0
SECTION
2
HEADER
9
$INSUNITS
70
4
9
$ACADVER
1
AC1014
9
$HANDSEED
5
FFFF
0
ENDSEC
0
SECTION
2
TABLES
0
TABLE
2
VPORT
5
8
100
AcDbSymbolTable
0
ENDTAB
0
TABLE
2
LTYPE
5
5
100
AcDbSymbolTable
0
LTYPE
5
14
100
AcDbSymbolTableRecord
100
AcDbLinetypeTableRecord
2
BYBLOCK
70
0
0
LTYPE
5
15
100
AcDbSymbolTableRecord
100
AcDbLinetypeTableRecord
2
BYLAYER
70
0
0
ENDTAB
0
TABLE
2
LAYER
5
2
100
AcDbSymbolTable
70
2
0
LAYER
5
50
100
AcDbSymbolTableRecord
100
AcDbLayerTableRecord
2
0
70
0
6
CONTINUOUS
0
ENDTAB
0
TABLE
2
STYLE
5
3
100
AcDbSymbolTable
70
1
0
STYLE
5
11
100
AcDbSymbolTableRecord
100
AcDbTextStyleTableRecord
2
STANDARD
70
0
0
ENDTAB
0
TABLE
2
VIEW
5
6
100
AcDbSymbolTable
70
0
0
ENDTAB
0
TABLE
2
UCS
5
7
100
AcDbSymbolTable
70
0
0
ENDTAB
0
TABLE
2
APPID
5
9
100
AcDbSymbolTable
70
2
0
APPID
5
12
100
AcDbSymbolTableRecord
100
AcDbRegAppTableRecord
2
ACAD
70
0
0
ENDTAB
0
TABLE
2
DIMSTYLE
5
A
100
AcDbSymbolTable
70
1
0
ENDTAB
0
TABLE
2
BLOCK_RECORD
5
1
100
AcDbSymbolTable
70
1
0
BLOCK_RECORD
5
1F
100
AcDbSymbolTableRecord
100
AcDbBlockTableRecord
2
*MODEL_SPACE
0
BLOCK_RECORD
5
1B
100
AcDbSymbolTableRecord
100
AcDbBlockTableRecord
2
*PAPER_SPACE
0
ENDTAB
0
ENDSEC
0
SECTION
2
BLOCKS
0
BLOCK
5
20
100
AcDbEntity
100
AcDbBlockBegin
2
*MODEL_SPACE
0
ENDBLK
5
21
100
AcDbEntity
100
AcDbBlockEnd
0
BLOCK
5
1C
100
AcDbEntity
100
AcDbBlockBegin
2
*PAPER_SPACE
0
ENDBLK
5
1D
100
AcDbEntity
100
AcDbBlockEnd
0
ENDSEC
0
SECTION
2
ENTITIES
0
CIRCLE
5
100
100
AcDbEntity
8
0
100
AcDbCircle
10
124.9742354780649
20
-36.214926191058829
30
0
40
2.5999999999999974
210
0
220
0
230
1
0
LWPOLYLINE
5
101
100
AcDbEntity
8
0
100
AcDbPolyline
90
10
70
1
43
0.0
10
164.04622958447806
20
-169.72192622482407
10
179.3496981437556
20
-165.59358961538442
42
-0.54493687266137725
10
198.01458527711156
20
-109.810122108971
10
173.80195162055344
20
-67.094210082365464
10
65.500000478164367
20
30.278073775097383
10
-11.674234521863092
20
30.278073775097383
10
-51.544556549640816
20
-87.085025337907155
10
-53.95248294146981
20
-110.37416984411813
42
-0.70291033547248227
10
-13.88607148291474
20
-162.65085841263078
10
-6.8150036710623141
20
-169.7219262245093
0
LWPOLYLINE
5
102
100
AcDbEntity
8
0
100
AcDbPolyline
90
8
70
1
43
0.0
10
25.50000047815135
20
-71.546926224582208
10
25.500000478150664
20
19.603073775415357
42
-0.41421356237325424
10
28.675000478152359
20
22.778073775415386
10
52.325000478152504
20
22.778073775402646
42
-0.41421356237292095
10
55.500000478150824
20
19.603073775402855
10
55.500000478156082
20
-71.546926224582009
42
-0.4142135623731098
10
52.32500047815607
20
-74.721926224582205
10
28.675000478151347
20
-74.721926224582205
42
-0.41421356237309426
0
LWPOLYLINE
5
103
100
AcDbEntity
8
0
100
AcDbPolyline
90
10
70
1
43
0.0
10
11.25000047808507
20
-96.396926224580369
42
-0.32575769328886989
10
13.453028902475586
20
-93.374361708114876
10
37.250000478087273
20
-85.721926224582191
10
43.750000478087273
20
-85.721926224582191
10
67.546972053698951
20
-93.374361708114861
42
-0.32575769328927268
10
69.750000478089461
20
-96.396926224585002
10
69.750000478036412
20
-156.54692622458492
42
-0.41421356237283696
10
66.575000478036401
20
-159.72192622458212
10
14.425000478049981
20
-159.72192622458221
42
-0.41421356237326423
10
11.250000478049976
20
-156.54692622458037
0
CIRCLE
5
104
100
AcDbEntity
8
0
100
AcDbCircle
10
186.3122314277754
20
-106.98789852501056
30
0
40
2.6000000000000161
210
0
220
0
230
1
0
CIRCLE
5
105
100
AcDbEntity
8
0
100
AcDbCircle
10
-5.674234521769109
20
-7.2219262249026528
30
0
40
0.75000000000000022
210
0
220
0
230
1
0
CIRCLE
5
106
100
AcDbEntity
8
0
100
AcDbCircle
10
86.674235478064858
20
-32.221926190523561
30
0
40
0.74999999999999301
210
0
220
0
230
1
0
CIRCLE
5
107
100
AcDbEntity
8
0
100
AcDbCircle
10
86.674235478064858
20
-7.2219261905235577
30
0
40
0.74999999999999301
210
0
220
0
230
1
0
LWPOLYLINE
5
108
100
AcDbEntity
8
0
100
AcDbPolyline
90
14
70
1
43
0.0
10
112.92423547800951
20
-156.93976669211247
10
112.92423547805235
20
-135.72192622472608
10
108.34923547807463
20
-135.72192622471684
42
-0.41421356237275914
10
105.17423547808107
20
-132.54692622471399
10
105.17423547812704
20
-80.896926224734273
42
-0.41421356237322449
10
108.34923547813133
20
-77.721926224737132
10
159.99923547807967
20
-77.721926224806722
42
-0.4142135623729607
10
163.17423547807545
20
-80.89692622480959
10
163.1742354780294
20
-132.54692622482412
42
-0.41421356237342283
10
159.999235478023
20
-135.72192622482129
10
155.42423547805168
20
-135.72192622481205
10
155.42423547800936
20
-156.9397666921987
42
-0.37881426176112348
10
152.63674216005006
20
-160.09103049761617
42
-0.061253639425352335
10
115.71172879595601
20
-160.09103049754114
42
-0.37881426176110239
0
CIRCLE
5
109
100
AcDbEntity
8
0
100
AcDbCircle
10
161.17423547804077
20
-141.47192622482382
30
0
40
2.6000000000000161
210
0
220
0
230
1
0
CIRCLE
5
110
100
AcDbEntity
8
0
100
AcDbCircle
10
168.30532625703319
20
-160.80486523401575
30
0
40
2.6000000000000161
210
0
220
0
230
1
0
CIRCLE
5
111
100
AcDbEntity
8
0
100
AcDbCircle
10
18.500000478081667
20
-87.221926224582205
30
0
40
2.6000000000000001
210
0
220
0
230
1
0
CIRCLE
5
112
100
AcDbEntity
8
0
100
AcDbCircle
10
-45.523874684073952
20
-101.7794857652066
30
0
40
2.5999999999999974
210
0
220
0
230
1
0
CIRCLE
5
113
100
AcDbEntity
8
0
100
AcDbCircle
10
62.5000004781011
20
-87.22192622460588
30
0
40
2.5999999999999974
210
0
220
0
230
1
0
CIRCLE
5
114
100
AcDbEntity
8
0
100
AcDbCircle
10
4.2500004780816667
20
-156.22192622458221
30
0
40
2.6000000000000001
210
0
220
0
230
1
0
CIRCLE
5
115
100
AcDbEntity
8
0
100
AcDbCircle
10
76.750000478026749
20
-156.22192622462126
30
0
40
2.5999999999999974
210
0
220
0
230
1
0
CIRCLE
5
116
100
AcDbEntity
8
0
100
AcDbCircle
10
-1.7345056347894161
20
-137.87665598465617
30
0
40
2.6000000000000001
210
0
220
0
230
1
0
CIRCLE
5
117
100
AcDbEntity
8
0
100
AcDbCircle
10
-5.6742345217705816
20
-32.221926224902646
30
0
40
0.75000000000000022
210
0
220
0
230
1
0
CIRCLE
5
118
100
AcDbEntity
8
0
100
AcDbCircle
10
-5.6742345217676373
20
17.778073775097347
30
0
40
0.75000000000000022
210
0
220
0
230
1
0
CIRCLE
5
119
100
AcDbEntity
8
0
100
AcDbCircle
10
86.674235478064858
20
-57.221926190523575
30
0
40
0.74999999999999301
210
0
220
0
230
1
0
CIRCLE
5
120
100
AcDbEntity
8
0
100
AcDbCircle
10
-5.6742345217735268
20
-82.221926224902674
30
0
40
0.75000000000000022
210
0
220
0
230
1
0
CIRCLE
5
121
100
AcDbEntity
8
0
100
AcDbCircle
10
86.674235478064858
20
-107.22192619052358
30
0
40
0.74999999999999301
210
0
220
0
230
1
0
CIRCLE
5
122
100
AcDbEntity
8
0
100
AcDbCircle
10
86.674235478064858
20
-132.22192619052356
30
0
40
0.74999999999999301
210
0
220
0
230
1
0
CIRCLE
5
123
100
AcDbEntity
8
0
100
AcDbCircle
10
-5.6742345217750003
20
-107.22192622490266
30
0
40
0.75000000000000022
210
0
220
0
230
1
0
CIRCLE
5
124
100
AcDbEntity
8
0
100
AcDbCircle
10
-5.674234521772056
20
-57.221926224902653
30
0
40
0.75000000000000022
210
0
220
0
230
1
0
CIRCLE
5
125
100
AcDbEntity
8
0
100
AcDbCircle
10
134.17423547804086
20
-72.221926224714451
30
0
40
2.5999999999999974
210
0
220
0
230
1
0
CIRCLE
5
126
100
AcDbEntity
8
0
100
AcDbCircle
10
-28.845684827157221
20
-46.290197616402331
30
0
40
3.5000000000000009
210
0
220
0
230
1
0
CIRCLE
5
127
100
AcDbEntity
8
0
100
AcDbCircle
10
86.674235478064858
20
-82.221926190523561
30
0
40
0.74999999999999301
210
0
220
0
230
1
0
CIRCLE
5
128
100
AcDbEntity
8
0
100
AcDbCircle
10
13.555653424716745
20
3.3828109596927289
30
0
40
3.5000000000000009
210
0
220
0
230
1
0
CIRCLE
5
129
100
AcDbEntity
8
0
100
AcDbCircle
10
107.1742354780408
20
-141.47192622471442
30
0
40
2.5999999999999974
210
0
220
0
230
1
0
LINE
5
130
100
AcDbEntity
8
0
100
AcDbLine
10
203.89481370449084
20
-170.96685875168555
30
0
11
203.89481370449084
21
79.03314124831445
31
0
0
CIRCLE
5
131
100
AcDbEntity
8
0
100
AcDbCircle
10
321.11539193091681
20
-32.221926190523561
30
0
40
0.74999999999999301
210
0
220
0
230
1
0
CIRCLE
5
132
100
AcDbEntity
8
0
100
AcDbCircle
10
321.11539193091681
20
-7.2219261905235754
30
0
40
0.74999999999999301
210
0
220
0
230
1
0
CIRCLE
5
133
100
AcDbEntity
8
0
100
AcDbCircle
10
321.11539193091681
20
-82.221926190523561
30
0
40
0.74999999999999301
210
0
220
0
230
1
0
CIRCLE
5
134
100
AcDbEntity
8
0
100
AcDbCircle
10
273.6153919309408
20
-72.221926224714466
30
0
40
2.5999999999999974
210
0
220
0
230
1
0
LWPOLYLINE
5
135
100
AcDbEntity
8
0
100
AcDbPolyline
90
14
70
1
43
0.0
10
299.4403919308503
20
-77.721926224737132
10
247.79039193090199
20
-77.721926224806737
42
0.41421356237296231
10
244.61539193090624
20
-80.89692622480959
10
244.61539193095228
20
-132.54692622482412
42
0.41421356237342283
10
247.79039193095866
20
-135.72192622482129
10
252.36539193092995
20
-135.72192622481205
10
252.36539193097229
20
-156.9397666921987
42
0.37881426176112187
10
255.15288524893165
20
-160.0910304976162
42
0.061253639425352384
10
292.07789861302564
20
-160.09103049754114
42
0.37881426176110239
10
294.86539193097212
20
-156.93976669211247
10
294.86539193092932
20
-135.72192622472608
10
299.44039193090703
20
-135.72192622471681
42
0.41421356237275914
10
302.61539193090061
20
-132.54692622471399
10
302.61539193085463
20
-80.896926224734273
42
0.41421356237322288
0
CIRCLE
5
136
100
AcDbEntity
8
0
100
AcDbCircle
10
321.11539193091681
20
-57.221926190523575
30
0
40
0.74999999999999301
210
0
220
0
230
1
0
LWPOLYLINE
5
137
100
AcDbEntity
8
0
100
AcDbPolyline
90
10
70
1
43
0.0
10
209.77504213187012
20
-109.810122108971
10
233.98767578842822
20
-67.094210082365464
10
342.28962693081724
20
30.278073775097383
10
419.46386193084481
20
30.278073775097383
10
459.33418395862248
20
-87.085025337907155
10
461.74211035045147
20
-110.37416984411813
42
0.70291033547248283
10
421.67569889189633
20
-162.65085841263078
10
414.60463108004399
20
-169.7219262245093
10
243.7433978245036
20
-169.72192622482407
10
228.43992926522606
20
-165.59358961538442
42
0.54493687266137725
0
LWPOLYLINE
5
138
100
AcDbEntity
8
0
100
AcDbPolyline
90
8
70
1
43
0.0
10
382.28962693083031
20
-71.546926224582208
42
-0.41421356237309503
10
379.1146269308303
20
-74.721926224582205
10
355.4646269308256
20
-74.721926224582205
42
-0.4142135623731098
10
352.28962693082559
20
-71.546926224582009
10
352.28962693083088
20
19.603073775402855
42
-0.41421356237291806
10
355.46462693082913
20
22.778073775402632
10
379.11462693082933
20
22.778073775415422
42
-0.41421356237324908
10
382.28962693083099
20
19.603073775415361
0
CIRCLE
5
139
100
AcDbEntity
8
0
100
AcDbCircle
10
413.46386193074932
20
17.778073775097347
30
0
40
0.75000000000000022
210
0
220
0
230
1
0
CIRCLE
5
140
100
AcDbEntity
8
0
100
AcDbCircle
10
413.46386193075216
20
-32.221926224902653
30
0
40
0.75000000000000022
210
0
220
0
230
1
0
CIRCLE
5
141
100
AcDbEntity
8
0
100
AcDbCircle
10
282.81539193091675
20
-36.214926191058829
30
0
40
2.5999999999999974
210
0
220
0
230
1
0
CIRCLE
5
142
100
AcDbEntity
8
0
100
AcDbCircle
10
413.46386193075375
20
-57.221926224902653
30
0
40
0.75000000000000022
210
0
220
0
230
1
0
CIRCLE
5
143
100
AcDbEntity
8
0
100
AcDbCircle
10
394.23397398426488
20
3.3828109596927192
30
0
40
3.5000000000000009
210
0
220
0
230
1
0
CIRCLE
5
144
100
AcDbEntity
8
0
100
AcDbCircle
10
413.4638619307508
20
-7.2219262249026528
30
0
40
0.75000000000000022
210
0
220
0
230
1
0
CIRCLE
5
145
100
AcDbEntity
8
0
100
AcDbCircle
10
239.48430115194844
20
-160.80486523401575
30
0
40
2.6000000000000161
210
0
220
0
230
1
0
CIRCLE
5
146
100
AcDbEntity
8
0
100
AcDbCircle
10
221.47739598120626
20
-106.98789852501056
30
0
40
2.6000000000000161
210
0
220
0
230
1
0
CIRCLE
5
147
100
AcDbEntity
8
0
100
AcDbCircle
10
321.11539193091681
20
-107.22192619052358
30
0
40
0.74999999999999301
210
0
220
0
230
1
0
CIRCLE
5
148
100
AcDbEntity
8
0
100
AcDbCircle
10
403.5396269309
20
-156.22192622458221
30
0
40
2.6000000000000001
210
0
220
0
230
1
0
CIRCLE
5
149
100
AcDbEntity
8
0
100
AcDbCircle
10
436.63531223613887
20
-46.290197616402331
30
0
40
3.5000000000000009
210
0
220
0
230
1
0
LWPOLYLINE
5
150
100
AcDbEntity
8
0
100
AcDbPolyline
90
10
70
1
43
0.0
10
394.33659850650605
20
-93.374361708114876
10
370.53962693089437
20
-85.721926224582191
10
364.03962693089443
20
-85.721926224582191
10
340.24265535528275
20
-93.374361708114861
42
0.32575769328927051
10
338.03962693089215
20
-96.396926224585002
10
338.03962693094525
20
-156.54692622458492
42
0.41421356237283774
10
341.21462693094531
20
-159.72192622458212
10
393.36462693093165
20
-159.72192622458221
42
0.41421356237326384
10
396.5396269309316
20
-156.54692622458037
10
396.53962693089659
20
-96.396926224580369
42
0.32575769328887211
0
CIRCLE
5
151
100
AcDbEntity
8
0
100
AcDbCircle
10
246.61539193094089
20
-141.47192622482382
30
0
40
2.6000000000000161
210
0
220
0
230
1
0
CIRCLE
5
152
100
AcDbEntity
8
0
100
AcDbCircle
10
389.2896269309
20
-87.221926224582205
30
0
40
2.6000000000000001
210
0
220
0
230
1
0
CIRCLE
5
153
100
AcDbEntity
8
0
100
AcDbCircle
10
331.03962693095491
20
-156.22192622462126
30
0
40
2.5999999999999974
210
0
220
0
230
1
0
CIRCLE
5
154
100
AcDbEntity
8
0
100
AcDbCircle
10
345.28962693088056
20
-87.22192622460588
30
0
40
2.5999999999999974
210
0
220
0
230
1
0
CIRCLE
5
155
100
AcDbEntity
8
0
100
AcDbCircle
10
321.11539193091681
20
-132.22192619052356
30
0
40
0.74999999999999301
210
0
220
0
230
1
0
CIRCLE
5
156
100
AcDbEntity
8
0
100
AcDbCircle
10
413.46386193075665
20
-107.22192622490266
30
0
40
0.75000000000000022
210
0
220
0
230
1
0
CIRCLE
5
157
100
AcDbEntity
8
0
100
AcDbCircle
10
453.3135020930556
20
-101.7794857652066
30
0
40
2.5999999999999974
210
0
220
0
230
1
0
CIRCLE
5
158
100
AcDbEntity
8
0
100
AcDbCircle
10
413.46386193075517
20
-82.221926224902674
30
0
40
0.75000000000000022
210
0
220
0
230
1
0
CIRCLE
5
159
100
AcDbEntity
8
0
100
AcDbCircle
10
300.61539193094086
20
-141.47192622471442
30
0
40
2.5999999999999974
210
0
220
0
230
1
0
CIRCLE
5
160
100
AcDbEntity
8
0
100
AcDbCircle
10
409.52413304377103
20
-137.87665598465617
30
0
40
2.6000000000000001
210
0
220
0
230
1
0
ENDSEC
0
SECTION
2
OBJECTS
0
DICTIONARY
5
C
100
AcDbDictionary
3
ACAD_GROUP
350
D
3
ACAD_MLINESTYLE
350
17
0
DICTIONARY
5
D
100
AcDbDictionary
0
DICTIONARY
5
1A
330
C
100
AcDbDictionary
0
DICTIONARY
5
17
100
AcDbDictionary
0
ENDSEC
0
EOF
