<?xml version="1.0" standalone="no"?>
<!DOCTYPE svg PUBLIC "-//W3C//DTD SVG 1.1//EN" "http://www.w3.org/Graphics/SVG/1.1/DTD/svg11.dtd">
<svg width="931mm" height="80mm" viewBox="0 -80 931 80" xmlns="http://www.w3.org/2000/svg" version="1.1">
<title>OpenSCAD Model</title>
<path d="
M 931,-80 L 0,-80 L 0,-0 L 4.95,-0 L 4.95,-6 L 5.00572,-6.53017
 L 5.17046,-7.03717 L 5.437,-7.49884 L 5.79372,-7.895 L 6.22499,-8.20836 L 6.71201,-8.42519 L 7.23344,-8.53603
 L 7.76654,-8.53603 L 8.28798,-8.42519 L 8.77499,-8.20836 L 9.20627,-7.895 L 9.56299,-7.49884 L 9.82953,-7.03717
 L 9.99426,-6.53017 L 10.05,-6 L 10.05,-0 L 188.15,-0 L 188.15,-6 L 188.206,-6.53017
 L 188.37,-7.03717 L 188.637,-7.49884 L 188.994,-7.895 L 189.425,-8.20836 L 189.912,-8.42519 L 190.433,-8.53603
 L 190.967,-8.53603 L 191.488,-8.42519 L 191.975,-8.20836 L 192.406,-7.895 L 192.763,-7.49884 L 193.03,-7.03717
 L 193.194,-6.53017 L 193.25,-6 L 193.25,-0 L 371.35,-0 L 371.35,-6 L 371.406,-6.53017
 L 371.57,-7.03717 L 371.837,-7.49884 L 372.194,-7.895 L 372.625,-8.20836 L 373.112,-8.42519 L 373.633,-8.53603
 L 374.167,-8.53603 L 374.688,-8.42519 L 375.175,-8.20836 L 375.606,-7.895 L 375.963,-7.49884 L 376.23,-7.03717
 L 376.394,-6.53017 L 376.45,-6 L 376.45,-0 L 554.55,-0 L 554.55,-6 L 554.606,-6.53017
 L 554.77,-7.03717 L 555.037,-7.49884 L 555.394,-7.895 L 555.825,-8.20836 L 556.312,-8.42519 L 556.833,-8.53603
 L 557.367,-8.53603 L 557.888,-8.42519 L 558.375,-8.20836 L 558.806,-7.895 L 559.163,-7.49884 L 559.43,-7.03717
 L 559.594,-6.53017 L 559.65,-6 L 559.65,-0 L 737.75,-0 L 737.75,-6 L 737.806,-6.53017
 L 737.97,-7.03717 L 738.237,-7.49884 L 738.594,-7.895 L 739.025,-8.20836 L 739.512,-8.42519 L 740.033,-8.53603
 L 740.567,-8.53603 L 741.088,-8.42519 L 741.575,-8.20836 L 742.006,-7.895 L 742.363,-7.49884 L 742.63,-7.03717
 L 742.794,-6.53017 L 742.85,-6 L 742.85,-0 L 920.95,-0 L 920.95,-6 L 921.006,-6.53017
 L 921.17,-7.03717 L 921.437,-7.49884 L 921.794,-7.895 L 922.225,-8.20836 L 922.712,-8.42519 L 923.233,-8.53603
 L 923.767,-8.53603 L 924.288,-8.42519 L 924.775,-8.20836 L 925.206,-7.895 L 925.563,-7.49884 L 925.83,-7.03717
 L 925.994,-6.53017 L 926.05,-6 L 926.05,-0 L 931,-0 z
M 6.98573,-55.607 L 6.47708,-55.6875 L 5.97964,-55.8208 L 5.49887,-56.0054 L 5.04001,-56.2392 L 4.60811,-56.5196
 L 4.20789,-56.8437 L 3.84373,-57.2079 L 3.51964,-57.6081 L 3.23917,-58.04 L 3.00537,-58.4989 L 2.82082,-58.9796
 L 2.68752,-59.4771 L 2.60696,-59.9857 L 2.58,-60.5 L 2.60696,-61.0143 L 2.68752,-61.5229 L 2.82082,-62.0204
 L 3.00537,-62.5011 L 3.23917,-62.96 L 3.51964,-63.3919 L 3.84373,-63.7921 L 4.20789,-64.1563 L 4.60811,-64.4804
 L 4.95001,-64.7024 L 4.95001,-74 L 5.00574,-74.5302 L 5.17047,-75.0372 L 5.43701,-75.4988 L 5.79373,-75.895
 L 6.22501,-76.2084 L 6.71202,-76.4252 L 7.23346,-76.536 L 7.76654,-76.536 L 8.28798,-76.4252 L 8.77499,-76.2084
 L 9.20627,-75.895 L 9.56299,-75.4988 L 9.82953,-75.0372 L 9.99426,-74.5302 L 10.05,-74 L 10.05,-64.7024
 L 10.3919,-64.4804 L 10.7921,-64.1563 L 11.1563,-63.7921 L 11.4804,-63.3919 L 11.7608,-62.96 L 11.9946,-62.5011
 L 12.1792,-62.0204 L 12.3125,-61.5229 L 12.393,-61.0143 L 12.42,-60.5 L 12.393,-59.9857 L 12.3125,-59.4771
 L 12.1792,-58.9796 L 11.9946,-58.4989 L 11.7608,-58.04 L 11.4804,-57.6081 L 11.1563,-57.2079 L 10.7921,-56.8437
 L 10.3919,-56.5196 L 9.95999,-56.2392 L 9.50113,-56.0054 L 9.02036,-55.8208 L 8.52292,-55.6875 L 8.01427,-55.607
 L 7.5,-55.58 z
M 190.186,-55.607 L 189.677,-55.6875 L 189.18,-55.8208 L 188.699,-56.0054 L 188.24,-56.2392 L 187.808,-56.5196
 L 187.408,-56.8437 L 187.044,-57.2079 L 186.72,-57.6081 L 186.439,-58.04 L 186.205,-58.4989 L 186.021,-58.9796
 L 185.888,-59.4771 L 185.807,-59.9857 L 185.78,-60.5 L 185.807,-61.0143 L 185.888,-61.5229 L 186.021,-62.0204
 L 186.205,-62.5011 L 186.439,-62.96 L 186.72,-63.3919 L 187.044,-63.7921 L 187.408,-64.1563 L 187.808,-64.4804
 L 188.15,-64.7024 L 188.15,-74 L 188.206,-74.5302 L 188.37,-75.0372 L 188.637,-75.4988 L 188.994,-75.895
 L 189.425,-76.2084 L 189.912,-76.4252 L 190.433,-76.536 L 190.967,-76.536 L 191.488,-76.4252 L 191.975,-76.2084
 L 192.406,-75.895 L 192.763,-75.4988 L 193.03,-75.0372 L 193.194,-74.5302 L 193.25,-74 L 193.25,-64.7024
 L 193.592,-64.4804 L 193.992,-64.1563 L 194.356,-63.7921 L 194.68,-63.3919 L 194.961,-62.96 L 195.195,-62.5011
 L 195.379,-62.0204 L 195.512,-61.5229 L 195.593,-61.0143 L 195.62,-60.5 L 195.593,-59.9857 L 195.512,-59.4771
 L 195.379,-58.9796 L 195.195,-58.4989 L 194.961,-58.04 L 194.68,-57.6081 L 194.356,-57.2079 L 193.992,-56.8437
 L 193.592,-56.5196 L 193.16,-56.2392 L 192.701,-56.0054 L 192.22,-55.8208 L 191.723,-55.6875 L 191.214,-55.607
 L 190.7,-55.58 z
M 373.386,-55.607 L 372.877,-55.6875 L 372.38,-55.8208 L 371.899,-56.0054 L 371.44,-56.2392 L 371.008,-56.5196
 L 370.608,-56.8437 L 370.244,-57.2079 L 369.92,-57.6081 L 369.639,-58.04 L 369.405,-58.4989 L 369.221,-58.9796
 L 369.088,-59.4771 L 369.007,-59.9857 L 368.98,-60.5 L 369.007,-61.0143 L 369.088,-61.5229 L 369.221,-62.0204
 L 369.405,-62.5011 L 369.639,-62.96 L 369.92,-63.3919 L 370.244,-63.7921 L 370.608,-64.1563 L 371.008,-64.4804
 L 371.35,-64.7024 L 371.35,-74 L 371.406,-74.5302 L 371.57,-75.0372 L 371.837,-75.4988 L 372.194,-75.895
 L 372.625,-76.2084 L 373.112,-76.4252 L 373.633,-76.536 L 374.167,-76.536 L 374.688,-76.4252 L 375.175,-76.2084
 L 375.606,-75.895 L 375.963,-75.4988 L 376.23,-75.0372 L 376.394,-74.5302 L 376.45,-74 L 376.45,-64.7024
 L 376.792,-64.4804 L 377.192,-64.1563 L 377.556,-63.7921 L 377.88,-63.3919 L 378.161,-62.96 L 378.395,-62.5011
 L 378.579,-62.0204 L 378.712,-61.5229 L 378.793,-61.0143 L 378.82,-60.5 L 378.793,-59.9857 L 378.712,-59.4771
 L 378.579,-58.9796 L 378.395,-58.4989 L 378.161,-58.04 L 377.88,-57.6081 L 377.556,-57.2079 L 377.192,-56.8437
 L 376.792,-56.5196 L 376.36,-56.2392 L 375.901,-56.0054 L 375.42,-55.8208 L 374.923,-55.6875 L 374.414,-55.607
 L 373.9,-55.58 z
M 556.586,-55.607 L 556.077,-55.6875 L 555.58,-55.8208 L 555.099,-56.0054 L 554.64,-56.2392 L 554.208,-56.5196
 L 553.808,-56.8437 L 553.444,-57.2079 L 553.12,-57.6081 L 552.839,-58.04 L 552.605,-58.4989 L 552.421,-58.9796
 L 552.288,-59.4771 L 552.207,-59.9857 L 552.18,-60.5 L 552.207,-61.0143 L 552.288,-61.5229 L 552.421,-62.0204
 L 552.605,-62.5011 L 552.839,-62.96 L 553.12,-63.3919 L 553.444,-63.7921 L 553.808,-64.1563 L 554.208,-64.4804
 L 554.55,-64.7024 L 554.55,-74 L 554.606,-74.5302 L 554.77,-75.0372 L 555.037,-75.4988 L 555.394,-75.895
 L 555.825,-76.2084 L 556.312,-76.4252 L 556.833,-76.536 L 557.367,-76.536 L 557.888,-76.4252 L 558.375,-76.2084
 L 558.806,-75.895 L 559.163,-75.4988 L 559.43,-75.0372 L 559.594,-74.5302 L 559.65,-74 L 559.65,-64.7024
 L 559.992,-64.4804 L 560.392,-64.1563 L 560.756,-63.7921 L 561.08,-63.3919 L 561.361,-62.96 L 561.595,-62.5011
 L 561.779,-62.0204 L 561.912,-61.5229 L 561.993,-61.0143 L 562.02,-60.5 L 561.993,-59.9857 L 561.912,-59.4771
 L 561.779,-58.9796 L 561.595,-58.4989 L 561.361,-58.04 L 561.08,-57.6081 L 560.756,-57.2079 L 560.392,-56.8437
 L 559.992,-56.5196 L 559.56,-56.2392 L 559.101,-56.0054 L 558.62,-55.8208 L 558.123,-55.6875 L 557.614,-55.607
 L 557.1,-55.58 z
M 739.786,-55.607 L 739.277,-55.6875 L 738.78,-55.8208 L 738.299,-56.0054 L 737.84,-56.2392 L 737.408,-56.5196
 L 737.008,-56.8437 L 736.644,-57.2079 L 736.32,-57.6081 L 736.039,-58.04 L 735.805,-58.4989 L 735.621,-58.9796
 L 735.488,-59.4771 L 735.407,-59.9857 L 735.38,-60.5 L 735.407,-61.0143 L 735.488,-61.5229 L 735.621,-62.0204
 L 735.805,-62.5011 L 736.039,-62.96 L 736.32,-63.3919 L 736.644,-63.7921 L 737.008,-64.1563 L 737.408,-64.4804
 L 737.75,-64.7024 L 737.75,-74 L 737.806,-74.5302 L 737.97,-75.0372 L 738.237,-75.4988 L 738.594,-75.895
 L 739.025,-76.2084 L 739.512,-76.4252 L 740.033,-76.536 L 740.567,-76.536 L 741.088,-76.4252 L 741.575,-76.2084
 L 742.006,-75.895 L 742.363,-75.4988 L 742.63,-75.0372 L 742.794,-74.5302 L 742.85,-74 L 742.85,-64.7024
 L 743.192,-64.4804 L 743.592,-64.1563 L 743.956,-63.7921 L 744.28,-63.3919 L 744.561,-62.96 L 744.795,-62.5011
 L 744.979,-62.0204 L 745.112,-61.5229 L 745.193,-61.0143 L 745.22,-60.5 L 745.193,-59.9857 L 745.112,-59.4771
 L 744.979,-58.9796 L 744.795,-58.4989 L 744.561,-58.04 L 744.28,-57.6081 L 743.956,-57.2079 L 743.592,-56.8437
 L 743.192,-56.5196 L 742.76,-56.2392 L 742.301,-56.0054 L 741.82,-55.8208 L 741.323,-55.6875 L 740.814,-55.607
 L 740.3,-55.58 z
M 922.986,-55.607 L 922.477,-55.6875 L 921.98,-55.8208 L 921.499,-56.0054 L 921.04,-56.2392 L 920.608,-56.5196
 L 920.208,-56.8437 L 919.844,-57.2079 L 919.52,-57.6081 L 919.239,-58.04 L 919.005,-58.4989 L 918.821,-58.9796
 L 918.688,-59.4771 L 918.607,-59.9857 L 918.58,-60.5 L 918.607,-61.0143 L 918.688,-61.5229 L 918.821,-62.0204
 L 919.005,-62.5011 L 919.239,-62.96 L 919.52,-63.3919 L 919.844,-63.7921 L 920.208,-64.1563 L 920.608,-64.4804
 L 920.95,-64.7024 L 920.95,-74 L 921.006,-74.5302 L 921.17,-75.0372 L 921.437,-75.4988 L 921.794,-75.895
 L 922.225,-76.2084 L 922.712,-76.4252 L 923.233,-76.536 L 923.767,-76.536 L 924.288,-76.4252 L 924.775,-76.2084
 L 925.206,-75.895 L 925.563,-75.4988 L 925.83,-75.0372 L 925.994,-74.5302 L 926.05,-74 L 926.05,-64.7024
 L 926.392,-64.4804 L 926.792,-64.1563 L 927.156,-63.7921 L 927.48,-63.3919 L 927.761,-62.96 L 927.995,-62.5011
 L 928.179,-62.0204 L 928.312,-61.5229 L 928.393,-61.0143 L 928.42,-60.5 L 928.393,-59.9857 L 928.312,-59.4771
 L 928.179,-58.9796 L 927.995,-58.4989 L 927.761,-58.04 L 927.48,-57.6081 L 927.156,-57.2079 L 926.792,-56.8437
 L 926.392,-56.5196 L 925.96,-56.2392 L 925.501,-56.0054 L 925.02,-55.8208 L 924.523,-55.6875 L 924.014,-55.607
 L 923.5,-55.58 z
M 464.918,-47.7659 L 464.108,-47.9733 L 447.198,-54.25 L 446.239,-54.7639 L 445.617,-55.3235 L 445.126,-56
 L 444.786,-56.7639 L 444.612,-57.5819 L 444.612,-58.4181 L 444.786,-59.2361 L 445.126,-60 L 445.617,-60.6765
 L 446.239,-61.2361 L 446.963,-61.6542 L 447.758,-61.9126 L 448.59,-62 L 482.41,-62 L 483.488,-61.852
 L 484.266,-61.5436 L 484.962,-61.0804 L 485.546,-60.4826 L 485.994,-59.7763 L 486.285,-58.9923 L 486.407,-58.165
 L 486.354,-57.3304 L 486.128,-56.5252 L 485.74,-55.7843 L 485.207,-55.1404 L 484.551,-54.6213 L 483.802,-54.25
 L 466.892,-47.9733 L 465.754,-47.7314 z
M 360.318,-20.7227 L 359.508,-20.9302 L 269.74,-54.25 L 268.781,-54.7639 L 268.16,-55.3235 L 267.668,-56
 L 267.328,-56.7639 L 267.154,-57.5819 L 267.154,-58.4181 L 267.328,-59.2361 L 267.668,-60 L 268.16,-60.6765
 L 268.781,-61.2361 L 269.505,-61.6542 L 270.301,-61.9126 L 271.132,-62 L 360.9,-62 L 362.136,-61.8042
 L 362.9,-61.4641 L 363.577,-60.9726 L 364.136,-60.3511 L 364.554,-59.627 L 364.813,-58.8316 L 364.9,-58
 L 364.9,-24.6802 L 364.775,-23.6879 L 364.484,-22.9039 L 364.036,-22.1975 L 363.452,-21.5997 L 362.755,-21.1365
 L 361.978,-20.8282 L 361.154,-20.6882 z
M 752.222,-20.8282 L 751.445,-21.1365 L 750.748,-21.5997 L 750.164,-22.1975 L 749.716,-22.9039 L 749.425,-23.6879
 L 749.3,-24.6802 L 749.3,-58 L 749.387,-58.8316 L 749.646,-59.627 L 750.064,-60.3511 L 750.623,-60.9726
 L 751.3,-61.4641 L 752.064,-61.8042 L 753.3,-62 L 843.068,-62 L 843.899,-61.9126 L 844.695,-61.6542
 L 845.419,-61.2361 L 846.04,-60.6765 L 846.532,-60 L 846.872,-59.2361 L 847.046,-58.4181 L 847.046,-57.5819
 L 846.872,-56.7639 L 846.532,-56 L 846.04,-55.3235 L 845.419,-54.7639 L 844.46,-54.25 L 754.692,-20.9302
 L 753.882,-20.7227 L 753.046,-20.6882 z
M 177.118,-20.7227 L 176.308,-20.9302 L 86.5405,-54.25 L 85.5813,-54.7639 L 84.9598,-55.3235 L 84.4683,-56
 L 84.1282,-56.7639 L 83.9543,-57.5819 L 83.9543,-58.4181 L 84.1282,-59.2361 L 84.4683,-60 L 84.9598,-60.6765
 L 85.5813,-61.2361 L 86.3055,-61.6542 L 87.1008,-61.9126 L 87.9324,-62 L 177.7,-62 L 178.936,-61.8042
 L 179.7,-61.4641 L 180.377,-60.9726 L 180.936,-60.3511 L 181.354,-59.627 L 181.613,-58.8316 L 181.7,-58
 L 181.7,-24.6802 L 181.575,-23.6879 L 181.284,-22.9039 L 180.836,-22.1975 L 180.252,-21.5997 L 179.555,-21.1365
 L 178.778,-20.8282 L 177.954,-20.6882 z
M 569.022,-20.8282 L 568.245,-21.1365 L 567.548,-21.5997 L 566.964,-22.1975 L 566.516,-22.9039 L 566.225,-23.6879
 L 566.1,-24.6802 L 566.1,-58 L 566.187,-58.8316 L 566.446,-59.627 L 566.864,-60.3511 L 567.423,-60.9726
 L 568.1,-61.4641 L 568.864,-61.8042 L 570.1,-62 L 659.868,-62 L 660.699,-61.9126 L 661.495,-61.6542
 L 662.219,-61.2361 L 662.84,-60.6765 L 663.332,-60 L 663.672,-59.2361 L 663.846,-58.4181 L 663.846,-57.5819
 L 663.672,-56.7639 L 663.332,-56 L 662.84,-55.3235 L 662.219,-54.7639 L 661.259,-54.25 L 571.492,-20.9302
 L 570.682,-20.7227 L 569.846,-20.6882 z
M 386.482,-18.5706 L 385.664,-18.7444 L 384.9,-19.0846 L 384.223,-19.5761 L 383.664,-20.1975 L 383.246,-20.9217
 L 382.987,-21.717 L 382.9,-22.5487 L 382.9,-57.4513 L 383.025,-58.4436 L 383.316,-59.2276 L 383.764,-59.934
 L 384.348,-60.5318 L 385.045,-60.995 L 385.822,-61.3033 L 386.646,-61.4433 L 387.482,-61.4088 L 388.292,-61.2013
 L 435.308,-43.75 L 435.771,-43.5436 L 436.468,-43.0804 L 437.052,-42.4826 L 437.5,-41.7763 L 437.791,-40.9923
 L 437.913,-40.165 L 437.86,-39.3304 L 437.634,-38.5252 L 437.246,-37.7843 L 436.713,-37.1404 L 436.057,-36.6213
 L 435.308,-36.25 L 388.292,-18.7987 L 387.318,-18.5706 z
M 543.518,-18.5912 L 542.708,-18.7986 L 495.692,-36.25 L 495.229,-36.4564 L 494.532,-36.9196 L 493.948,-37.5174
 L 493.5,-38.2237 L 493.209,-39.0077 L 493.087,-39.835 L 493.14,-40.6696 L 493.366,-41.4748 L 493.754,-42.2157
 L 494.287,-42.8596 L 494.943,-43.3787 L 495.692,-43.75 L 542.708,-61.2014 L 543.682,-61.4294 L 544.518,-61.4294
 L 545.336,-61.2556 L 546.1,-60.9155 L 546.777,-60.4239 L 547.336,-59.8025 L 547.754,-59.0783 L 548.013,-58.283
 L 548.1,-57.4514 L 548.1,-22.5486 L 547.975,-21.5563 L 547.684,-20.7724 L 547.236,-20.066 L 546.652,-19.4682
 L 545.955,-19.005 L 545.178,-18.6967 L 544.354,-18.5567 z
M 203.7,-18 L 202.464,-18.1958 L 201.7,-18.5359 L 201.023,-19.0274 L 200.464,-19.6489 L 200.046,-20.373
 L 199.787,-21.1684 L 199.7,-22 L 199.7,-55.3198 L 199.825,-56.3121 L 200.116,-57.0961 L 200.564,-57.8024
 L 201.148,-58.4003 L 201.845,-58.8635 L 202.622,-59.1718 L 203.446,-59.3118 L 204.282,-59.2773 L 205.092,-59.0698
 L 294.859,-25.75 L 295.819,-25.2361 L 296.44,-24.6765 L 296.932,-24 L 297.272,-23.2361 L 297.446,-22.4181
 L 297.446,-21.5819 L 297.272,-20.7639 L 296.932,-20 L 296.44,-19.3235 L 295.819,-18.7639 L 295.094,-18.3458
 L 294.299,-18.0874 L 293.468,-18 z
M 637.532,-18 L 636.701,-18.0874 L 635.905,-18.3458 L 635.181,-18.7639 L 634.56,-19.3235 L 634.068,-20
 L 633.728,-20.7639 L 633.554,-21.5819 L 633.554,-22.4181 L 633.728,-23.2361 L 634.068,-24 L 634.56,-24.6765
 L 635.181,-25.2361 L 636.141,-25.75 L 725.908,-59.0698 L 726.718,-59.2773 L 727.554,-59.3118 L 728.378,-59.1718
 L 729.155,-58.8635 L 729.852,-58.4003 L 730.436,-57.8024 L 730.884,-57.0961 L 731.175,-56.3121 L 731.3,-55.3198
 L 731.3,-22 L 731.213,-21.1684 L 730.954,-20.373 L 730.536,-19.6489 L 729.977,-19.0274 L 729.3,-18.5359
 L 728.536,-18.1958 L 727.3,-18 z
M 22,-18 L 20.7639,-18.1958 L 20,-18.5359 L 19.3235,-19.0274 L 18.7639,-19.6489 L 18.3458,-20.373
 L 18.0874,-21.1684 L 18,-22 L 18,-54.7631 L 18.125,-55.7554 L 18.416,-56.5393 L 18.8637,-57.2457
 L 19.4484,-57.8435 L 20.1446,-58.3067 L 20.9219,-58.615 L 21.7463,-58.755 L 22.5818,-58.7205 L 23.3919,-58.5131
 L 111.659,-25.75 L 112.619,-25.2361 L 113.24,-24.6765 L 113.732,-24 L 114.072,-23.2361 L 114.246,-22.4181
 L 114.246,-21.5819 L 114.072,-20.7639 L 113.732,-20 L 113.24,-19.3235 L 112.619,-18.7639 L 111.895,-18.3458
 L 111.099,-18.0874 L 110.268,-18 z
M 820.732,-18 L 819.901,-18.0874 L 819.105,-18.3458 L 818.381,-18.7639 L 817.76,-19.3235 L 817.268,-20
 L 816.928,-20.7639 L 816.754,-21.5819 L 816.754,-22.4181 L 816.928,-23.2361 L 817.268,-24 L 817.76,-24.6765
 L 818.381,-25.2361 L 819.341,-25.75 L 907.608,-58.5131 L 908.418,-58.7205 L 909.254,-58.755 L 910.078,-58.615
 L 910.855,-58.3067 L 911.552,-57.8435 L 912.136,-57.2457 L 912.584,-56.5393 L 912.875,-55.7554 L 913,-54.7631
 L 913,-22 L 912.913,-21.1684 L 912.654,-20.373 L 912.236,-19.6489 L 911.677,-19.0274 L 911,-18.5359
 L 910.236,-18.1958 L 909,-18 z
M 448.59,-18 L 447.512,-18.148 L 446.734,-18.4564 L 446.038,-18.9196 L 445.454,-19.5174 L 445.006,-20.2237
 L 444.715,-21.0077 L 444.593,-21.835 L 444.646,-22.6696 L 444.872,-23.4748 L 445.26,-24.2157 L 445.793,-24.8596
 L 446.449,-25.3787 L 447.198,-25.75 L 464.108,-32.0267 L 465.246,-32.2686 L 466.082,-32.2341 L 466.892,-32.0267
 L 483.802,-25.75 L 484.761,-25.2361 L 485.383,-24.6765 L 485.874,-24 L 486.214,-23.2361 L 486.388,-22.4181
 L 486.388,-21.5819 L 486.214,-20.7639 L 485.874,-20 L 485.383,-19.3235 L 484.761,-18.7639 L 484.037,-18.3458
 L 483.242,-18.0874 L 482.41,-18 z
" stroke="black" fill="lightgray" stroke-width="0.5"/>
</svg>
