<?xml version="1.0" standalone="no"?>
<!DOCTYPE svg PUBLIC "-//W3C//DTD SVG 1.1//EN" "http://www.w3.org/Graphics/SVG/1.1/DTD/svg11.dtd">
<svg width="780mm" height="80mm" viewBox="0 -80 780 80" xmlns="http://www.w3.org/2000/svg" version="1.1">
<title>OpenSCAD Model</title>
<path d="
M 780,-80 L 0,-80 L 0,-0 L 4.95,-0 L 4.95,-6 L 5.00572,-6.53017
 L 5.17046,-7.03717 L 5.437,-7.49884 L 5.79372,-7.895 L 6.22499,-8.20836 L 6.71201,-8.42519 L 7.23344,-8.53603
 L 7.76654,-8.53603 L 8.28798,-8.42519 L 8.77499,-8.20836 L 9.20627,-7.895 L 9.56299,-7.49884 L 9.82953,-7.03717
 L 9.99426,-6.53017 L 10.05,-6 L 10.05,-0 L 157.95,-0 L 157.95,-6 L 158.006,-6.53017
 L 158.17,-7.03717 L 158.437,-7.49884 L 158.794,-7.895 L 159.225,-8.20836 L 159.712,-8.42519 L 160.233,-8.53603
 L 160.767,-8.53603 L 161.288,-8.42519 L 161.775,-8.20836 L 162.206,-7.895 L 162.563,-7.49884 L 162.83,-7.03717
 L 162.994,-6.53017 L 163.05,-6 L 163.05,-0 L 310.95,-0 L 310.95,-6 L 311.006,-6.53017
 L 311.17,-7.03717 L 311.437,-7.49884 L 311.794,-7.895 L 312.225,-8.20836 L 312.712,-8.42519 L 313.233,-8.53603
 L 313.767,-8.53603 L 314.288,-8.42519 L 314.775,-8.20836 L 315.206,-7.895 L 315.563,-7.49884 L 315.83,-7.03717
 L 315.994,-6.53017 L 316.05,-6 L 316.05,-0 L 463.95,-0 L 463.95,-6 L 464.006,-6.53017
 L 464.17,-7.03717 L 464.437,-7.49884 L 464.794,-7.895 L 465.225,-8.20836 L 465.712,-8.42519 L 466.233,-8.53603
 L 466.767,-8.53603 L 467.288,-8.42519 L 467.775,-8.20836 L 468.206,-7.895 L 468.563,-7.49884 L 468.83,-7.03717
 L 468.994,-6.53017 L 469.05,-6 L 469.05,-0 L 616.95,-0 L 616.95,-6 L 617.006,-6.53017
 L 617.17,-7.03717 L 617.437,-7.49884 L 617.794,-7.895 L 618.225,-8.20836 L 618.712,-8.42519 L 619.233,-8.53603
 L 619.767,-8.53603 L 620.288,-8.42519 L 620.775,-8.20836 L 621.206,-7.895 L 621.563,-7.49884 L 621.83,-7.03717
 L 621.994,-6.53017 L 622.05,-6 L 622.05,-0 L 769.95,-0 L 769.95,-6 L 770.006,-6.53017
 L 770.17,-7.03717 L 770.437,-7.49884 L 770.794,-7.895 L 771.225,-8.20836 L 771.712,-8.42519 L 772.233,-8.53603
 L 772.767,-8.53603 L 773.288,-8.42519 L 773.775,-8.20836 L 774.206,-7.895 L 774.563,-7.49884 L 774.83,-7.03717
 L 774.994,-6.53017 L 775.05,-6 L 775.05,-0 L 780,-0 z
M 6.98573,-55.607 L 6.47708,-55.6875 L 5.97964,-55.8208 L 5.49887,-56.0054 L 5.04001,-56.2392 L 4.60811,-56.5196
 L 4.20789,-56.8437 L 3.84373,-57.2079 L 3.51964,-57.6081 L 3.23917,-58.04 L 3.00537,-58.4989 L 2.82082,-58.9796
 L 2.68752,-59.4771 L 2.60696,-59.9857 L 2.58,-60.5 L 2.60696,-61.0143 L 2.68752,-61.5229 L 2.82082,-62.0204
 L 3.00537,-62.5011 L 3.23917,-62.96 L 3.51964,-63.3919 L 3.84373,-63.7921 L 4.20789,-64.1563 L 4.60811,-64.4804
 L 4.95001,-64.7024 L 4.95001,-74 L 5.00574,-74.5302 L 5.17047,-75.0372 L 5.43701,-75.4988 L 5.79373,-75.895
 L 6.22501,-76.2084 L 6.71202,-76.4252 L 7.23346,-76.536 L 7.76654,-76.536 L 8.28798,-76.4252 L 8.77499,-76.2084
 L 9.20627,-75.895 L 9.56299,-75.4988 L 9.82953,-75.0372 L 9.99426,-74.5302 L 10.05,-74 L 10.05,-64.7024
 L 10.3919,-64.4804 L 10.7921,-64.1563 L 11.1563,-63.7921 L 11.4804,-63.3919 L 11.7608,-62.96 L 11.9946,-62.5011
 L 12.1792,-62.0204 L 12.3125,-61.5229 L 12.393,-61.0143 L 12.42,-60.5 L 12.393,-59.9857 L 12.3125,-59.4771
 L 12.1792,-58.9796 L 11.9946,-58.4989 L 11.7608,-58.04 L 11.4804,-57.6081 L 11.1563,-57.2079 L 10.7921,-56.8437
 L 10.3919,-56.5196 L 9.95999,-56.2392 L 9.50113,-56.0054 L 9.02036,-55.8208 L 8.52292,-55.6875 L 8.01427,-55.607
 L 7.5,-55.58 z
M 159.986,-55.607 L 159.477,-55.6875 L 158.98,-55.8208 L 158.499,-56.0054 L 158.04,-56.2392 L 157.608,-56.5196
 L 157.208,-56.8437 L 156.844,-57.2079 L 156.52,-57.6081 L 156.239,-58.04 L 156.005,-58.4989 L 155.821,-58.9796
 L 155.688,-59.4771 L 155.607,-59.9857 L 155.58,-60.5 L 155.607,-61.0143 L 155.688,-61.5229 L 155.821,-62.0204
 L 156.005,-62.5011 L 156.239,-62.96 L 156.52,-63.3919 L 156.844,-63.7921 L 157.208,-64.1563 L 157.608,-64.4804
 L 157.95,-64.7024 L 157.95,-74 L 158.006,-74.5302 L 158.17,-75.0372 L 158.437,-75.4988 L 158.794,-75.895
 L 159.225,-76.2084 L 159.712,-76.4252 L 160.233,-76.536 L 160.767,-76.536 L 161.288,-76.4252 L 161.775,-76.2084
 L 162.206,-75.895 L 162.563,-75.4988 L 162.83,-75.0372 L 162.994,-74.5302 L 163.05,-74 L 163.05,-64.7024
 L 163.392,-64.4804 L 163.792,-64.1563 L 164.156,-63.7921 L 164.48,-63.3919 L 164.761,-62.96 L 164.995,-62.5011
 L 165.179,-62.0204 L 165.312,-61.5229 L 165.393,-61.0143 L 165.42,-60.5 L 165.393,-59.9857 L 165.312,-59.4771
 L 165.179,-58.9796 L 164.995,-58.4989 L 164.761,-58.04 L 164.48,-57.6081 L 164.156,-57.2079 L 163.792,-56.8437
 L 163.392,-56.5196 L 162.96,-56.2392 L 162.501,-56.0054 L 162.02,-55.8208 L 161.523,-55.6875 L 161.014,-55.607
 L 160.5,-55.58 z
M 312.986,-55.607 L 312.477,-55.6875 L 311.98,-55.8208 L 311.499,-56.0054 L 311.04,-56.2392 L 310.608,-56.5196
 L 310.208,-56.8437 L 309.844,-57.2079 L 309.52,-57.6081 L 309.239,-58.04 L 309.005,-58.4989 L 308.821,-58.9796
 L 308.688,-59.4771 L 308.607,-59.9857 L 308.58,-60.5 L 308.607,-61.0143 L 308.688,-61.5229 L 308.821,-62.0204
 L 309.005,-62.5011 L 309.239,-62.96 L 309.52,-63.3919 L 309.844,-63.7921 L 310.208,-64.1563 L 310.608,-64.4804
 L 310.95,-64.7024 L 310.95,-74 L 311.006,-74.5302 L 311.17,-75.0372 L 311.437,-75.4988 L 311.794,-75.895
 L 312.225,-76.2084 L 312.712,-76.4252 L 313.233,-76.536 L 313.767,-76.536 L 314.288,-76.4252 L 314.775,-76.2084
 L 315.206,-75.895 L 315.563,-75.4988 L 315.83,-75.0372 L 315.994,-74.5302 L 316.05,-74 L 316.05,-64.7024
 L 316.392,-64.4804 L 316.792,-64.1563 L 317.156,-63.7921 L 317.48,-63.3919 L 317.761,-62.96 L 317.995,-62.5011
 L 318.179,-62.0204 L 318.312,-61.5229 L 318.393,-61.0143 L 318.42,-60.5 L 318.393,-59.9857 L 318.312,-59.4771
 L 318.179,-58.9796 L 317.995,-58.4989 L 317.761,-58.04 L 317.48,-57.6081 L 317.156,-57.2079 L 316.792,-56.8437
 L 316.392,-56.5196 L 315.96,-56.2392 L 315.501,-56.0054 L 315.02,-55.8208 L 314.523,-55.6875 L 314.014,-55.607
 L 313.5,-55.58 z
M 465.986,-55.607 L 465.477,-55.6875 L 464.98,-55.8208 L 464.499,-56.0054 L 464.04,-56.2392 L 463.608,-56.5196
 L 463.208,-56.8437 L 462.844,-57.2079 L 462.52,-57.6081 L 462.239,-58.04 L 462.005,-58.4989 L 461.821,-58.9796
 L 461.688,-59.4771 L 461.607,-59.9857 L 461.58,-60.5 L 461.607,-61.0143 L 461.688,-61.5229 L 461.821,-62.0204
 L 462.005,-62.5011 L 462.239,-62.96 L 462.52,-63.3919 L 462.844,-63.7921 L 463.208,-64.1563 L 463.608,-64.4804
 L 463.95,-64.7024 L 463.95,-74 L 464.006,-74.5302 L 464.17,-75.0372 L 464.437,-75.4988 L 464.794,-75.895
 L 465.225,-76.2084 L 465.712,-76.4252 L 466.233,-76.536 L 466.767,-76.536 L 467.288,-76.4252 L 467.775,-76.2084
 L 468.206,-75.895 L 468.563,-75.4988 L 468.83,-75.0372 L 468.994,-74.5302 L 469.05,-74 L 469.05,-64.7024
 L 469.392,-64.4804 L 469.792,-64.1563 L 470.156,-63.7921 L 470.48,-63.3919 L 470.761,-62.96 L 470.995,-62.5011
 L 471.179,-62.0204 L 471.312,-61.5229 L 471.393,-61.0143 L 471.42,-60.5 L 471.393,-59.9857 L 471.312,-59.4771
 L 471.179,-58.9796 L 470.995,-58.4989 L 470.761,-58.04 L 470.48,-57.6081 L 470.156,-57.2079 L 469.792,-56.8437
 L 469.392,-56.5196 L 468.96,-56.2392 L 468.501,-56.0054 L 468.02,-55.8208 L 467.523,-55.6875 L 467.014,-55.607
 L 466.5,-55.58 z
M 618.986,-55.607 L 618.477,-55.6875 L 617.98,-55.8208 L 617.499,-56.0054 L 617.04,-56.2392 L 616.608,-56.5196
 L 616.208,-56.8437 L 615.844,-57.2079 L 615.52,-57.6081 L 615.239,-58.04 L 615.005,-58.4989 L 614.821,-58.9796
 L 614.688,-59.4771 L 614.607,-59.9857 L 614.58,-60.5 L 614.607,-61.0143 L 614.688,-61.5229 L 614.821,-62.0204
 L 615.005,-62.5011 L 615.239,-62.96 L 615.52,-63.3919 L 615.844,-63.7921 L 616.208,-64.1563 L 616.608,-64.4804
 L 616.95,-64.7024 L 616.95,-74 L 617.006,-74.5302 L 617.17,-75.0372 L 617.437,-75.4988 L 617.794,-75.895
 L 618.225,-76.2084 L 618.712,-76.4252 L 619.233,-76.536 L 619.767,-76.536 L 620.288,-76.4252 L 620.775,-76.2084
 L 621.206,-75.895 L 621.563,-75.4988 L 621.83,-75.0372 L 621.994,-74.5302 L 622.05,-74 L 622.05,-64.7024
 L 622.392,-64.4804 L 622.792,-64.1563 L 623.156,-63.7921 L 623.48,-63.3919 L 623.761,-62.96 L 623.995,-62.5011
 L 624.179,-62.0204 L 624.312,-61.5229 L 624.393,-61.0143 L 624.42,-60.5 L 624.393,-59.9857 L 624.312,-59.4771
 L 624.179,-58.9796 L 623.995,-58.4989 L 623.761,-58.04 L 623.48,-57.6081 L 623.156,-57.2079 L 622.792,-56.8437
 L 622.392,-56.5196 L 621.96,-56.2392 L 621.501,-56.0054 L 621.02,-55.8208 L 620.523,-55.6875 L 620.014,-55.607
 L 619.5,-55.58 z
M 771.986,-55.607 L 771.477,-55.6875 L 770.98,-55.8208 L 770.499,-56.0054 L 770.04,-56.2392 L 769.608,-56.5196
 L 769.208,-56.8437 L 768.844,-57.2079 L 768.52,-57.6081 L 768.239,-58.04 L 768.005,-58.4989 L 767.821,-58.9796
 L 767.688,-59.4771 L 767.607,-59.9857 L 767.58,-60.5 L 767.607,-61.0143 L 767.688,-61.5229 L 767.821,-62.0204
 L 768.005,-62.5011 L 768.239,-62.96 L 768.52,-63.3919 L 768.844,-63.7921 L 769.208,-64.1563 L 769.608,-64.4804
 L 769.95,-64.7024 L 769.95,-74 L 770.006,-74.5302 L 770.17,-75.0372 L 770.437,-75.4988 L 770.794,-75.895
 L 771.225,-76.2084 L 771.712,-76.4252 L 772.233,-76.536 L 772.767,-76.536 L 773.288,-76.4252 L 773.775,-76.2084
 L 774.206,-75.895 L 774.563,-75.4988 L 774.83,-75.0372 L 774.994,-74.5302 L 775.05,-74 L 775.05,-64.7024
 L 775.392,-64.4804 L 775.792,-64.1563 L 776.156,-63.7921 L 776.48,-63.3919 L 776.761,-62.96 L 776.995,-62.5011
 L 777.179,-62.0204 L 777.312,-61.5229 L 777.393,-61.0143 L 777.42,-60.5 L 777.393,-59.9857 L 777.312,-59.4771
 L 777.179,-58.9796 L 776.995,-58.4989 L 776.761,-58.04 L 776.48,-57.6081 L 776.156,-57.2079 L 775.792,-56.8437
 L 775.392,-56.5196 L 774.96,-56.2392 L 774.501,-56.0054 L 774.02,-55.8208 L 773.523,-55.6875 L 773.014,-55.607
 L 772.5,-55.58 z
M 389.171,-48.1244 L 388.375,-48.3822 L 374.96,-54.3448 L 374.233,-54.7639 L 373.612,-55.3235 L 373.12,-56
 L 372.78,-56.7639 L 372.606,-57.5819 L 372.606,-58.4181 L 372.78,-59.2361 L 373.12,-60 L 373.612,-60.6765
 L 374.233,-61.2361 L 374.957,-61.6542 L 375.753,-61.9126 L 376.584,-62 L 403.416,-62 L 404.25,-61.912
 L 405.045,-61.6531 L 405.769,-61.2345 L 406.39,-60.6746 L 406.881,-59.9977 L 407.221,-59.2336 L 407.394,-58.4155
 L 407.393,-57.5793 L 407.219,-56.7614 L 406.878,-55.9977 L 406.386,-55.3215 L 405.765,-54.7624 L 405.04,-54.3448
 L 391.625,-48.3822 L 390.834,-48.1254 L 390.003,-48.0375 z
M 299.671,-22.0908 L 298.875,-22.3486 L 226.884,-54.3448 L 226.158,-54.7639 L 225.536,-55.3235 L 225.045,-56
 L 224.705,-56.7639 L 224.531,-57.5819 L 224.531,-58.4181 L 224.705,-59.2361 L 225.045,-60 L 225.536,-60.6765
 L 226.158,-61.2361 L 226.882,-61.6542 L 227.677,-61.9126 L 228.509,-62 L 300.5,-62 L 301.736,-61.8042
 L 302.5,-61.4641 L 303.177,-60.9726 L 303.736,-60.3511 L 304.154,-59.627 L 304.413,-58.8316 L 304.5,-58
 L 304.5,-26.0039 L 304.305,-24.7703 L 303.965,-24.0062 L 303.474,-23.3293 L 302.853,-22.7694 L 302.129,-22.3508
 L 301.334,-22.0918 L 300.503,-22.0039 z
M 631.666,-22.0918 L 630.871,-22.3508 L 630.147,-22.7694 L 629.526,-23.3293 L 629.035,-24.0062 L 628.695,-24.7703
 L 628.5,-26.0039 L 628.5,-58 L 628.587,-58.8316 L 628.846,-59.627 L 629.264,-60.3511 L 629.823,-60.9726
 L 630.5,-61.4641 L 631.264,-61.8042 L 632.5,-62 L 704.491,-62 L 705.323,-61.9126 L 706.118,-61.6542
 L 706.842,-61.2361 L 707.464,-60.6765 L 707.955,-60 L 708.295,-59.2361 L 708.469,-58.4181 L 708.469,-57.5819
 L 708.295,-56.7639 L 707.955,-56 L 707.464,-55.3235 L 706.842,-54.7639 L 706.116,-54.3448 L 634.125,-22.3486
 L 633.329,-22.0908 L 632.497,-22.0039 z
M 146.671,-22.0908 L 145.875,-22.3486 L 73.8842,-54.3448 L 73.1576,-54.7639 L 72.5362,-55.3235 L 72.0447,-56
 L 71.7045,-56.7639 L 71.5307,-57.5819 L 71.5307,-58.4181 L 71.7045,-59.2361 L 72.0447,-60 L 72.5362,-60.6765
 L 73.1576,-61.2361 L 73.8818,-61.6542 L 74.6771,-61.9126 L 75.5088,-62 L 147.5,-62 L 148.736,-61.8042
 L 149.5,-61.4641 L 150.177,-60.9726 L 150.736,-60.3511 L 151.154,-59.627 L 151.413,-58.8316 L 151.5,-58
 L 151.5,-26.0039 L 151.305,-24.7703 L 150.965,-24.0062 L 150.474,-23.3293 L 149.853,-22.7694 L 149.129,-22.3508
 L 148.334,-22.0918 L 147.503,-22.0039 z
M 478.666,-22.0918 L 477.871,-22.3508 L 477.147,-22.7694 L 476.526,-23.3293 L 476.035,-24.0062 L 475.695,-24.7703
 L 475.5,-26.0039 L 475.5,-58 L 475.587,-58.8316 L 475.846,-59.627 L 476.264,-60.3511 L 476.823,-60.9726
 L 477.5,-61.4641 L 478.264,-61.8042 L 479.5,-62 L 551.491,-62 L 552.323,-61.9126 L 553.118,-61.6542
 L 553.842,-61.2361 L 554.464,-60.6765 L 554.955,-60 L 555.295,-59.2361 L 555.469,-58.4181 L 555.469,-57.5819
 L 555.295,-56.7639 L 554.955,-56 L 554.464,-55.3235 L 553.842,-54.7639 L 553.116,-54.3448 L 481.125,-22.3486
 L 480.329,-22.0908 L 479.497,-22.0039 z
M 326.082,-19.8372 L 325.264,-20.011 L 324.5,-20.3512 L 323.823,-20.8427 L 323.264,-21.4641 L 322.846,-22.1883
 L 322.587,-22.9836 L 322.5,-23.8153 L 322.5,-56.1847 L 322.695,-57.4183 L 323.035,-58.1824 L 323.526,-58.8593
 L 324.147,-59.4193 L 324.871,-59.8378 L 325.666,-60.0968 L 326.497,-60.1847 L 327.329,-60.0979 L 328.125,-59.84
 L 364.54,-43.6552 L 365.269,-43.2345 L 365.89,-42.6746 L 366.381,-41.9977 L 366.721,-41.2336 L 366.894,-40.4155
 L 366.893,-39.5793 L 366.719,-38.7614 L 366.378,-37.9977 L 365.886,-37.3215 L 365.265,-36.7624 L 364.54,-36.3448
 L 328.125,-20.16 L 326.918,-19.8372 z
M 452.671,-19.9021 L 451.875,-20.16 L 415.46,-36.3448 L 414.731,-36.7655 L 414.11,-37.3254 L 413.619,-38.0023
 L 413.279,-38.7664 L 413.106,-39.5845 L 413.107,-40.4207 L 413.281,-41.2386 L 413.622,-42.0023 L 414.114,-42.6785
 L 414.735,-43.2376 L 415.46,-43.6552 L 451.875,-59.84 L 453.082,-60.1628 L 453.918,-60.1628 L 454.736,-59.989
 L 455.5,-59.6488 L 456.177,-59.1573 L 456.736,-58.5359 L 457.154,-57.8117 L 457.413,-57.0164 L 457.5,-56.1847
 L 457.5,-23.8153 L 457.305,-22.5817 L 456.965,-21.8175 L 456.474,-21.1407 L 455.853,-20.5807 L 455.129,-20.1621
 L 454.334,-19.9032 L 453.503,-19.8153 z
M 173.5,-18 L 172.264,-18.1958 L 171.5,-18.5359 L 170.823,-19.0274 L 170.264,-19.6489 L 169.846,-20.373
 L 169.587,-21.1684 L 169.5,-22 L 169.5,-53.9961 L 169.695,-55.2297 L 170.035,-55.9938 L 170.526,-56.6707
 L 171.147,-57.2306 L 171.871,-57.6492 L 172.666,-57.9081 L 173.497,-57.9961 L 174.329,-57.9092 L 175.125,-57.6513
 L 247.116,-25.6552 L 247.842,-25.2361 L 248.464,-24.6765 L 248.955,-24 L 249.295,-23.2361 L 249.469,-22.4181
 L 249.469,-21.5819 L 249.295,-20.7639 L 248.955,-20 L 248.464,-19.3235 L 247.842,-18.7639 L 247.118,-18.3458
 L 246.323,-18.0874 L 245.491,-18 z
M 534.509,-18 L 533.677,-18.0874 L 532.882,-18.3458 L 532.158,-18.7639 L 531.536,-19.3235 L 531.045,-20
 L 530.705,-20.7639 L 530.531,-21.5819 L 530.531,-22.4181 L 530.705,-23.2361 L 531.045,-24 L 531.536,-24.6765
 L 532.158,-25.2361 L 532.884,-25.6552 L 604.875,-57.6513 L 605.671,-57.9092 L 606.503,-57.9961 L 607.334,-57.9081
 L 608.129,-57.6492 L 608.853,-57.2306 L 609.474,-56.6707 L 609.965,-55.9938 L 610.305,-55.2297 L 610.5,-53.9961
 L 610.5,-22 L 610.413,-21.1684 L 610.154,-20.373 L 609.736,-19.6489 L 609.177,-19.0274 L 608.5,-18.5359
 L 607.736,-18.1958 L 606.5,-18 z
M 22,-18 L 20.7639,-18.1958 L 20,-18.5359 L 19.3235,-19.0274 L 18.7639,-19.6489 L 18.3458,-20.373
 L 18.0874,-21.1684 L 18,-22 L 18,-53.3294 L 18.195,-54.563 L 18.5346,-55.3271 L 19.0257,-56.004
 L 19.6467,-56.5639 L 20.3707,-56.9825 L 21.1658,-57.2415 L 21.9974,-57.3294 L 22.8291,-57.2426 L 23.6246,-56.9847
 L 94.1158,-25.6552 L 94.8424,-25.2361 L 95.4638,-24.6765 L 95.9553,-24 L 96.2955,-23.2361 L 96.4693,-22.4181
 L 96.4693,-21.5819 L 96.2955,-20.7639 L 95.9553,-20 L 95.4638,-19.3235 L 94.8424,-18.7639 L 94.1182,-18.3458
 L 93.3229,-18.0874 L 92.4912,-18 z
M 687.509,-18 L 686.677,-18.0874 L 685.882,-18.3458 L 685.158,-18.7639 L 684.536,-19.3235 L 684.045,-20
 L 683.705,-20.7639 L 683.531,-21.5819 L 683.531,-22.4181 L 683.705,-23.2361 L 684.045,-24 L 684.536,-24.6765
 L 685.158,-25.2361 L 685.884,-25.6552 L 756.375,-56.9847 L 757.171,-57.2426 L 758.003,-57.3294 L 758.834,-57.2415
 L 759.629,-56.9825 L 760.353,-56.5639 L 760.974,-56.004 L 761.465,-55.3271 L 761.805,-54.563 L 762,-53.3294
 L 762,-22 L 761.913,-21.1684 L 761.654,-20.373 L 761.236,-19.6489 L 760.677,-19.0274 L 760,-18.5359
 L 759.236,-18.1958 L 758,-18 z
M 376.584,-18 L 375.75,-18.088 L 374.955,-18.3469 L 374.231,-18.7655 L 373.61,-19.3254 L 373.119,-20.0023
 L 372.779,-20.7664 L 372.606,-21.5845 L 372.607,-22.4207 L 372.781,-23.2386 L 373.122,-24.0023 L 373.614,-24.6785
 L 374.235,-25.2376 L 374.96,-25.6552 L 388.375,-31.6178 L 389.166,-31.8746 L 389.997,-31.9625 L 390.829,-31.8756
 L 391.625,-31.6178 L 405.04,-25.6552 L 405.767,-25.2361 L 406.388,-24.6765 L 406.88,-24 L 407.22,-23.2361
 L 407.394,-22.4181 L 407.394,-21.5819 L 407.22,-20.7639 L 406.88,-20 L 406.388,-19.3235 L 405.767,-18.7639
 L 405.043,-18.3458 L 404.247,-18.0874 L 403.416,-18 z
" stroke="black" fill="lightgray" stroke-width="0.5"/>
</svg>
