<?xml version="1.0" standalone="no"?>
<!DOCTYPE svg PUBLIC "-//W3C//DTD SVG 1.1//EN" "http://www.w3.org/Graphics/SVG/1.1/DTD/svg11.dtd">
<svg width="675mm" height="80mm" viewBox="0 -80 675 80" xmlns="http://www.w3.org/2000/svg" version="1.1">
<title>OpenSCAD Model</title>
<path d="
M 675,-80 L 0,-80 L 0,-0 L 4.95,-0 L 4.95,-6 L 5.00572,-6.53017
 L 5.17046,-7.03717 L 5.437,-7.49884 L 5.79372,-7.895 L 6.22499,-8.20836 L 6.71201,-8.42519 L 7.23344,-8.53603
 L 7.76654,-8.53603 L 8.28798,-8.42519 L 8.77499,-8.20836 L 9.20627,-7.895 L 9.56299,-7.49884 L 9.82953,-7.03717
 L 9.99426,-6.53017 L 10.05,-6 L 10.05,-0 L 136.95,-0 L 136.95,-6 L 137.006,-6.53017
 L 137.17,-7.03717 L 137.437,-7.49884 L 137.794,-7.895 L 138.225,-8.20836 L 138.712,-8.42519 L 139.233,-8.53603
 L 139.767,-8.53603 L 140.288,-8.42519 L 140.775,-8.20836 L 141.206,-7.895 L 141.563,-7.49884 L 141.83,-7.03717
 L 141.994,-6.53017 L 142.05,-6 L 142.05,-0 L 268.95,-0 L 268.95,-6 L 269.006,-6.53017
 L 269.17,-7.03717 L 269.437,-7.49884 L 269.794,-7.895 L 270.225,-8.20836 L 270.712,-8.42519 L 271.233,-8.53603
 L 271.767,-8.53603 L 272.288,-8.42519 L 272.775,-8.20836 L 273.206,-7.895 L 273.563,-7.49884 L 273.83,-7.03717
 L 273.994,-6.53017 L 274.05,-6 L 274.05,-0 L 400.95,-0 L 400.95,-6 L 401.006,-6.53017
 L 401.17,-7.03717 L 401.437,-7.49884 L 401.794,-7.895 L 402.225,-8.20836 L 402.712,-8.42519 L 403.233,-8.53603
 L 403.767,-8.53603 L 404.288,-8.42519 L 404.775,-8.20836 L 405.206,-7.895 L 405.563,-7.49884 L 405.83,-7.03717
 L 405.994,-6.53017 L 406.05,-6 L 406.05,-0 L 532.95,-0 L 532.95,-6 L 533.006,-6.53017
 L 533.17,-7.03717 L 533.437,-7.49884 L 533.794,-7.895 L 534.225,-8.20836 L 534.712,-8.42519 L 535.233,-8.53603
 L 535.767,-8.53603 L 536.288,-8.42519 L 536.775,-8.20836 L 537.206,-7.895 L 537.563,-7.49884 L 537.83,-7.03717
 L 537.994,-6.53017 L 538.05,-6 L 538.05,-0 L 664.95,-0 L 664.95,-6 L 665.006,-6.53017
 L 665.17,-7.03717 L 665.437,-7.49884 L 665.794,-7.895 L 666.225,-8.20836 L 666.712,-8.42519 L 667.233,-8.53603
 L 667.767,-8.53603 L 668.288,-8.42519 L 668.775,-8.20836 L 669.206,-7.895 L 669.563,-7.49884 L 669.83,-7.03717
 L 669.994,-6.53017 L 670.05,-6 L 670.05,-0 L 675,-0 z
M 6.98573,-55.607 L 6.47708,-55.6875 L 5.97964,-55.8208 L 5.49887,-56.0054 L 5.04001,-56.2392 L 4.60811,-56.5196
 L 4.20789,-56.8437 L 3.84373,-57.2079 L 3.51964,-57.6081 L 3.23917,-58.04 L 3.00537,-58.4989 L 2.82082,-58.9796
 L 2.68752,-59.4771 L 2.60696,-59.9857 L 2.58,-60.5 L 2.60696,-61.0143 L 2.68752,-61.5229 L 2.82082,-62.0204
 L 3.00537,-62.5011 L 3.23917,-62.96 L 3.51964,-63.3919 L 3.84373,-63.7921 L 4.20789,-64.1563 L 4.60811,-64.4804
 L 4.95001,-64.7024 L 4.95001,-74 L 5.00574,-74.5302 L 5.17047,-75.0372 L 5.43701,-75.4988 L 5.79373,-75.895
 L 6.22501,-76.2084 L 6.71202,-76.4252 L 7.23346,-76.536 L 7.76654,-76.536 L 8.28798,-76.4252 L 8.77499,-76.2084
 L 9.20627,-75.895 L 9.56299,-75.4988 L 9.82953,-75.0372 L 9.99426,-74.5302 L 10.05,-74 L 10.05,-64.7024
 L 10.3919,-64.4804 L 10.7921,-64.1563 L 11.1563,-63.7921 L 11.4804,-63.3919 L 11.7608,-62.96 L 11.9946,-62.5011
 L 12.1792,-62.0204 L 12.3125,-61.5229 L 12.393,-61.0143 L 12.42,-60.5 L 12.393,-59.9857 L 12.3125,-59.4771
 L 12.1792,-58.9796 L 11.9946,-58.4989 L 11.7608,-58.04 L 11.4804,-57.6081 L 11.1563,-57.2079 L 10.7921,-56.8437
 L 10.3919,-56.5196 L 9.95999,-56.2392 L 9.50113,-56.0054 L 9.02036,-55.8208 L 8.52292,-55.6875 L 8.01427,-55.607
 L 7.5,-55.58 z
M 138.986,-55.607 L 138.477,-55.6875 L 137.98,-55.8208 L 137.499,-56.0054 L 137.04,-56.2392 L 136.608,-56.5196
 L 136.208,-56.8437 L 135.844,-57.2079 L 135.52,-57.6081 L 135.239,-58.04 L 135.005,-58.4989 L 134.821,-58.9796
 L 134.688,-59.4771 L 134.607,-59.9857 L 134.58,-60.5 L 134.607,-61.0143 L 134.688,-61.5229 L 134.821,-62.0204
 L 135.005,-62.5011 L 135.239,-62.96 L 135.52,-63.3919 L 135.844,-63.7921 L 136.208,-64.1563 L 136.608,-64.4804
 L 136.95,-64.7024 L 136.95,-74 L 137.006,-74.5302 L 137.17,-75.0372 L 137.437,-75.4988 L 137.794,-75.895
 L 138.225,-76.2084 L 138.712,-76.4252 L 139.233,-76.536 L 139.767,-76.536 L 140.288,-76.4252 L 140.775,-76.2084
 L 141.206,-75.895 L 141.563,-75.4988 L 141.83,-75.0372 L 141.994,-74.5302 L 142.05,-74 L 142.05,-64.7024
 L 142.392,-64.4804 L 142.792,-64.1563 L 143.156,-63.7921 L 143.48,-63.3919 L 143.761,-62.96 L 143.995,-62.5011
 L 144.179,-62.0204 L 144.312,-61.5229 L 144.393,-61.0143 L 144.42,-60.5 L 144.393,-59.9857 L 144.312,-59.4771
 L 144.179,-58.9796 L 143.995,-58.4989 L 143.761,-58.04 L 143.48,-57.6081 L 143.156,-57.2079 L 142.792,-56.8437
 L 142.392,-56.5196 L 141.96,-56.2392 L 141.501,-56.0054 L 141.02,-55.8208 L 140.523,-55.6875 L 140.014,-55.607
 L 139.5,-55.58 z
M 270.986,-55.607 L 270.477,-55.6875 L 269.98,-55.8208 L 269.499,-56.0054 L 269.04,-56.2392 L 268.608,-56.5196
 L 268.208,-56.8437 L 267.844,-57.2079 L 267.52,-57.6081 L 267.239,-58.04 L 267.005,-58.4989 L 266.821,-58.9796
 L 266.688,-59.4771 L 266.607,-59.9857 L 266.58,-60.5 L 266.607,-61.0143 L 266.688,-61.5229 L 266.821,-62.0204
 L 267.005,-62.5011 L 267.239,-62.96 L 267.52,-63.3919 L 267.844,-63.7921 L 268.208,-64.1563 L 268.608,-64.4804
 L 268.95,-64.7024 L 268.95,-74 L 269.006,-74.5302 L 269.17,-75.0372 L 269.437,-75.4988 L 269.794,-75.895
 L 270.225,-76.2084 L 270.712,-76.4252 L 271.233,-76.536 L 271.767,-76.536 L 272.288,-76.4252 L 272.775,-76.2084
 L 273.206,-75.895 L 273.563,-75.4988 L 273.83,-75.0372 L 273.994,-74.5302 L 274.05,-74 L 274.05,-64.7024
 L 274.392,-64.4804 L 274.792,-64.1563 L 275.156,-63.7921 L 275.48,-63.3919 L 275.761,-62.96 L 275.995,-62.5011
 L 276.179,-62.0204 L 276.312,-61.5229 L 276.393,-61.0143 L 276.42,-60.5 L 276.393,-59.9857 L 276.312,-59.4771
 L 276.179,-58.9796 L 275.995,-58.4989 L 275.761,-58.04 L 275.48,-57.6081 L 275.156,-57.2079 L 274.792,-56.8437
 L 274.392,-56.5196 L 273.96,-56.2392 L 273.501,-56.0054 L 273.02,-55.8208 L 272.523,-55.6875 L 272.014,-55.607
 L 271.5,-55.58 z
M 402.986,-55.607 L 402.477,-55.6875 L 401.98,-55.8208 L 401.499,-56.0054 L 401.04,-56.2392 L 400.608,-56.5196
 L 400.208,-56.8437 L 399.844,-57.2079 L 399.52,-57.6081 L 399.239,-58.04 L 399.005,-58.4989 L 398.821,-58.9796
 L 398.688,-59.4771 L 398.607,-59.9857 L 398.58,-60.5 L 398.607,-61.0143 L 398.688,-61.5229 L 398.821,-62.0204
 L 399.005,-62.5011 L 399.239,-62.96 L 399.52,-63.3919 L 399.844,-63.7921 L 400.208,-64.1563 L 400.608,-64.4804
 L 400.95,-64.7024 L 400.95,-74 L 401.006,-74.5302 L 401.17,-75.0372 L 401.437,-75.4988 L 401.794,-75.895
 L 402.225,-76.2084 L 402.712,-76.4252 L 403.233,-76.536 L 403.767,-76.536 L 404.288,-76.4252 L 404.775,-76.2084
 L 405.206,-75.895 L 405.563,-75.4988 L 405.83,-75.0372 L 405.994,-74.5302 L 406.05,-74 L 406.05,-64.7024
 L 406.392,-64.4804 L 406.792,-64.1563 L 407.156,-63.7921 L 407.48,-63.3919 L 407.761,-62.96 L 407.995,-62.5011
 L 408.179,-62.0204 L 408.312,-61.5229 L 408.393,-61.0143 L 408.42,-60.5 L 408.393,-59.9857 L 408.312,-59.4771
 L 408.179,-58.9796 L 407.995,-58.4989 L 407.761,-58.04 L 407.48,-57.6081 L 407.156,-57.2079 L 406.792,-56.8437
 L 406.392,-56.5196 L 405.96,-56.2392 L 405.501,-56.0054 L 405.02,-55.8208 L 404.523,-55.6875 L 404.014,-55.607
 L 403.5,-55.58 z
M 534.986,-55.607 L 534.477,-55.6875 L 533.98,-55.8208 L 533.499,-56.0054 L 533.04,-56.2392 L 532.608,-56.5196
 L 532.208,-56.8437 L 531.844,-57.2079 L 531.52,-57.6081 L 531.239,-58.04 L 531.005,-58.4989 L 530.821,-58.9796
 L 530.688,-59.4771 L 530.607,-59.9857 L 530.58,-60.5 L 530.607,-61.0143 L 530.688,-61.5229 L 530.821,-62.0204
 L 531.005,-62.5011 L 531.239,-62.96 L 531.52,-63.3919 L 531.844,-63.7921 L 532.208,-64.1563 L 532.608,-64.4804
 L 532.95,-64.7024 L 532.95,-74 L 533.006,-74.5302 L 533.17,-75.0372 L 533.437,-75.4988 L 533.794,-75.895
 L 534.225,-76.2084 L 534.712,-76.4252 L 535.233,-76.536 L 535.767,-76.536 L 536.288,-76.4252 L 536.775,-76.2084
 L 537.206,-75.895 L 537.563,-75.4988 L 537.83,-75.0372 L 537.994,-74.5302 L 538.05,-74 L 538.05,-64.7024
 L 538.392,-64.4804 L 538.792,-64.1563 L 539.156,-63.7921 L 539.48,-63.3919 L 539.761,-62.96 L 539.995,-62.5011
 L 540.179,-62.0204 L 540.312,-61.5229 L 540.393,-61.0143 L 540.42,-60.5 L 540.393,-59.9857 L 540.312,-59.4771
 L 540.179,-58.9796 L 539.995,-58.4989 L 539.761,-58.04 L 539.48,-57.6081 L 539.156,-57.2079 L 538.792,-56.8437
 L 538.392,-56.5196 L 537.96,-56.2392 L 537.501,-56.0054 L 537.02,-55.8208 L 536.523,-55.6875 L 536.014,-55.607
 L 535.5,-55.58 z
M 666.986,-55.607 L 666.477,-55.6875 L 665.98,-55.8208 L 665.499,-56.0054 L 665.04,-56.2392 L 664.608,-56.5196
 L 664.208,-56.8437 L 663.844,-57.2079 L 663.52,-57.6081 L 663.239,-58.04 L 663.005,-58.4989 L 662.821,-58.9796
 L 662.688,-59.4771 L 662.607,-59.9857 L 662.58,-60.5 L 662.607,-61.0143 L 662.688,-61.5229 L 662.821,-62.0204
 L 663.005,-62.5011 L 663.239,-62.96 L 663.52,-63.3919 L 663.844,-63.7921 L 664.208,-64.1563 L 664.608,-64.4804
 L 664.95,-64.7024 L 664.95,-74 L 665.006,-74.5302 L 665.17,-75.0372 L 665.437,-75.4988 L 665.794,-75.895
 L 666.225,-76.2084 L 666.712,-76.4252 L 667.233,-76.536 L 667.767,-76.536 L 668.288,-76.4252 L 668.775,-76.2084
 L 669.206,-75.895 L 669.563,-75.4988 L 669.83,-75.0372 L 669.994,-74.5302 L 670.05,-74 L 670.05,-64.7024
 L 670.392,-64.4804 L 670.792,-64.1563 L 671.156,-63.7921 L 671.48,-63.3919 L 671.761,-62.96 L 671.995,-62.5011
 L 672.179,-62.0204 L 672.312,-61.5229 L 672.393,-61.0143 L 672.42,-60.5 L 672.393,-59.9857 L 672.312,-59.4771
 L 672.179,-58.9796 L 671.995,-58.4989 L 671.761,-58.04 L 671.48,-57.6081 L 671.156,-57.2079 L 670.792,-56.8437
 L 670.392,-56.5196 L 669.96,-56.2392 L 669.501,-56.0054 L 669.02,-55.8208 L 668.523,-55.6875 L 668.014,-55.607
 L 667.5,-55.58 z
M 336.448,-48.5006 L 335.668,-48.8037 L 324.719,-54.4441 L 324.2,-54.7639 L 323.578,-55.3235 L 323.087,-56
 L 322.747,-56.7639 L 322.573,-57.5819 L 322.573,-58.4181 L 322.747,-59.2361 L 323.087,-60 L 323.578,-60.6765
 L 324.2,-61.2361 L 324.924,-61.6542 L 325.719,-61.9126 L 326.551,-62 L 348.449,-62 L 349.057,-61.9535
 L 349.866,-61.7407 L 350.613,-61.3643 L 351.265,-60.841 L 351.794,-60.1935 L 352.177,-59.4501 L 352.397,-58.6433
 L 352.444,-57.8085 L 352.317,-56.9819 L 352.021,-56.1999 L 351.569,-55.4966 L 350.98,-54.9027 L 350.281,-54.4441
 L 339.332,-48.8037 L 338.917,-48.6189 L 338.108,-48.4061 L 337.273,-48.3661 z
M 257.448,-23.4447 L 256.668,-23.7479 L 197.081,-54.4441 L 196.562,-54.7639 L 195.941,-55.3235 L 195.449,-56
 L 195.109,-56.7639 L 194.935,-57.5819 L 194.935,-58.4181 L 195.109,-59.2361 L 195.449,-60 L 195.941,-60.6765
 L 196.562,-61.2361 L 197.286,-61.6542 L 198.082,-61.9126 L 198.913,-62 L 258.5,-62 L 259.736,-61.8042
 L 260.5,-61.4641 L 261.177,-60.9726 L 261.736,-60.3511 L 262.154,-59.627 L 262.413,-58.8316 L 262.5,-58
 L 262.5,-27.3038 L 262.448,-26.6604 L 262.228,-25.8537 L 261.845,-25.1103 L 261.316,-24.4628 L 260.664,-23.9394
 L 259.917,-23.5631 L 259.108,-23.3503 L 258.273,-23.3102 z
M 547.892,-23.3503 L 547.083,-23.5631 L 546.336,-23.9394 L 545.684,-24.4628 L 545.155,-25.1103 L 544.772,-25.8537
 L 544.552,-26.6604 L 544.5,-27.3038 L 544.5,-58 L 544.587,-58.8316 L 544.846,-59.627 L 545.264,-60.3511
 L 545.823,-60.9726 L 546.5,-61.4641 L 547.264,-61.8042 L 548.5,-62 L 608.087,-62 L 608.918,-61.9126
 L 609.714,-61.6542 L 610.438,-61.2361 L 611.059,-60.6765 L 611.551,-60 L 611.891,-59.2361 L 612.065,-58.4181
 L 612.065,-57.5819 L 611.891,-56.7639 L 611.551,-56 L 611.059,-55.3235 L 610.438,-54.7639 L 609.919,-54.4441
 L 550.332,-23.7479 L 549.552,-23.4447 L 548.727,-23.3102 z
M 125.448,-23.4447 L 124.668,-23.7479 L 65.0814,-54.4441 L 64.5621,-54.7639 L 63.9406,-55.3235 L 63.4491,-56
 L 63.109,-56.7639 L 62.9351,-57.5819 L 62.9351,-58.4181 L 63.109,-59.2361 L 63.4491,-60 L 63.9406,-60.6765
 L 64.5621,-61.2361 L 65.2863,-61.6542 L 66.0816,-61.9126 L 66.9132,-62 L 126.5,-62 L 127.736,-61.8042
 L 128.5,-61.4641 L 129.177,-60.9726 L 129.736,-60.3511 L 130.154,-59.627 L 130.413,-58.8316 L 130.5,-58
 L 130.5,-27.3038 L 130.448,-26.6604 L 130.228,-25.8537 L 129.845,-25.1103 L 129.316,-24.4628 L 128.664,-23.9394
 L 127.917,-23.5631 L 127.108,-23.3503 L 126.273,-23.3102 z
M 415.892,-23.3503 L 415.083,-23.5631 L 414.336,-23.9394 L 413.684,-24.4628 L 413.155,-25.1103 L 412.772,-25.8537
 L 412.552,-26.6604 L 412.5,-27.3038 L 412.5,-58 L 412.587,-58.8316 L 412.846,-59.627 L 413.264,-60.3511
 L 413.823,-60.9726 L 414.5,-61.4641 L 415.264,-61.8042 L 416.5,-62 L 476.087,-62 L 476.918,-61.9126
 L 477.714,-61.6542 L 478.438,-61.2361 L 479.059,-60.6765 L 479.551,-60 L 479.891,-59.2361 L 480.065,-58.4181
 L 480.065,-57.5819 L 479.891,-56.7639 L 479.551,-56 L 479.059,-55.3235 L 478.438,-54.7639 L 477.919,-54.4441
 L 418.332,-23.7479 L 417.552,-23.4447 L 416.727,-23.3102 z
M 284.082,-21.0785 L 283.264,-21.2524 L 282.5,-21.5925 L 281.823,-22.084 L 281.264,-22.7055 L 280.846,-23.4296
 L 280.587,-24.2249 L 280.5,-25.0566 L 280.5,-54.9434 L 280.552,-55.5867 L 280.772,-56.3935 L 281.155,-57.1369
 L 281.684,-57.7844 L 282.336,-58.3078 L 283.083,-58.6841 L 283.892,-58.8969 L 284.727,-58.937 L 285.552,-58.8025
 L 286.332,-58.4993 L 315.34,-43.5559 L 316.324,-42.841 L 316.853,-42.1935 L 317.236,-41.4501 L 317.456,-40.6433
 L 317.503,-39.8085 L 317.376,-38.9819 L 317.08,-38.1999 L 316.628,-37.4966 L 316.039,-36.9027 L 315.34,-36.4441
 L 286.332,-21.5007 L 285.736,-21.2524 L 284.918,-21.0785 z
M 389.448,-21.1975 L 388.668,-21.5007 L 359.66,-36.4441 L 358.676,-37.159 L 358.147,-37.8065 L 357.764,-38.5499
 L 357.544,-39.3567 L 357.497,-40.1915 L 357.624,-41.0181 L 357.92,-41.8001 L 358.372,-42.5034 L 358.961,-43.0973
 L 359.66,-43.5559 L 388.668,-58.4993 L 389.264,-58.7477 L 390.082,-58.9215 L 390.918,-58.9215 L 391.736,-58.7477
 L 392.5,-58.4075 L 393.177,-57.916 L 393.736,-57.2946 L 394.154,-56.5704 L 394.413,-55.7751 L 394.5,-54.9434
 L 394.5,-25.0566 L 394.448,-24.4132 L 394.228,-23.6065 L 393.845,-22.8631 L 393.316,-22.2156 L 392.664,-21.6922
 L 391.917,-21.3159 L 391.108,-21.1031 L 390.273,-21.063 z
M 152.5,-18 L 151.264,-18.1958 L 150.5,-18.5359 L 149.823,-19.0274 L 149.264,-19.6489 L 148.846,-20.373
 L 148.587,-21.1684 L 148.5,-22 L 148.5,-52.6962 L 148.552,-53.3396 L 148.772,-54.1463 L 149.155,-54.8897
 L 149.684,-55.5372 L 150.336,-56.0606 L 151.083,-56.4369 L 151.892,-56.6497 L 152.727,-56.6898 L 153.552,-56.5553
 L 154.332,-56.2521 L 213.919,-25.5559 L 214.438,-25.2361 L 215.059,-24.6765 L 215.551,-24 L 215.891,-23.2361
 L 216.065,-22.4181 L 216.065,-21.5819 L 215.891,-20.7639 L 215.551,-20 L 215.059,-19.3235 L 214.438,-18.7639
 L 213.714,-18.3458 L 212.918,-18.0874 L 212.087,-18 z
M 462.913,-18 L 462.082,-18.0874 L 461.286,-18.3458 L 460.562,-18.7639 L 459.941,-19.3235 L 459.449,-20
 L 459.109,-20.7639 L 458.935,-21.5819 L 458.935,-22.4181 L 459.109,-23.2361 L 459.449,-24 L 459.941,-24.6765
 L 460.562,-25.2361 L 461.081,-25.5559 L 520.668,-56.2521 L 521.448,-56.5553 L 522.273,-56.6898 L 523.108,-56.6497
 L 523.917,-56.4369 L 524.664,-56.0606 L 525.316,-55.5372 L 525.845,-54.8897 L 526.228,-54.1463 L 526.448,-53.3396
 L 526.5,-52.6962 L 526.5,-22 L 526.413,-21.1684 L 526.154,-20.373 L 525.736,-19.6489 L 525.177,-19.0274
 L 524.5,-18.5359 L 523.736,-18.1958 L 522.5,-18 z
M 22,-18 L 20.7639,-18.1958 L 20,-18.5359 L 19.3235,-19.0274 L 18.7639,-19.6489 L 18.3458,-20.373
 L 18.0874,-21.1684 L 18,-22 L 18,-51.9235 L 18.0521,-52.5668 L 18.2721,-53.3736 L 18.6551,-54.117
 L 19.1842,-54.7645 L 19.8364,-55.2879 L 20.5832,-55.6642 L 21.3919,-55.877 L 22.2271,-55.917 L 23.0525,-55.7825
 L 23.8318,-55.4794 L 81.9186,-25.5559 L 82.4379,-25.2361 L 83.0594,-24.6765 L 83.5509,-24 L 83.891,-23.2361
 L 84.0649,-22.4181 L 84.0649,-21.5819 L 83.891,-20.7639 L 83.5509,-20 L 83.0594,-19.3235 L 82.4379,-18.7639
 L 81.7137,-18.3458 L 80.9184,-18.0874 L 80.0868,-18 z
M 594.913,-18 L 594.082,-18.0874 L 593.286,-18.3458 L 592.562,-18.7639 L 591.941,-19.3235 L 591.449,-20
 L 591.109,-20.7639 L 590.935,-21.5819 L 590.935,-22.4181 L 591.109,-23.2361 L 591.449,-24 L 591.941,-24.6765
 L 592.562,-25.2361 L 593.081,-25.5559 L 651.168,-55.4794 L 651.948,-55.7825 L 652.773,-55.917 L 653.608,-55.877
 L 654.417,-55.6642 L 655.164,-55.2879 L 655.816,-54.7645 L 656.345,-54.117 L 656.728,-53.3736 L 656.948,-52.5668
 L 657,-51.9235 L 657,-22 L 656.913,-21.1684 L 656.654,-20.373 L 656.236,-19.6489 L 655.677,-19.0274
 L 655,-18.5359 L 654.236,-18.1958 L 653,-18 z
M 326.551,-18 L 325.943,-18.0465 L 325.134,-18.2593 L 324.387,-18.6357 L 323.735,-19.159 L 323.206,-19.8065
 L 322.823,-20.5499 L 322.603,-21.3567 L 322.556,-22.1915 L 322.683,-23.0181 L 322.979,-23.8001 L 323.431,-24.5034
 L 324.02,-25.0973 L 324.719,-25.5559 L 335.668,-31.1963 L 336.083,-31.3811 L 336.892,-31.5939 L 337.727,-31.6339
 L 338.552,-31.4994 L 339.332,-31.1963 L 350.281,-25.5559 L 350.8,-25.2361 L 351.422,-24.6765 L 351.913,-24
 L 352.253,-23.2361 L 352.427,-22.4181 L 352.427,-21.5819 L 352.253,-20.7639 L 351.913,-20 L 351.422,-19.3235
 L 350.8,-18.7639 L 350.076,-18.3458 L 349.281,-18.0874 L 348.449,-18 z
" stroke="black" fill="lightgray" stroke-width="0.5"/>
</svg>
