<?xml version="1.0" standalone="no"?>
<!DOCTYPE svg PUBLIC "-//W3C//DTD SVG 1.1//EN" "http://www.w3.org/Graphics/SVG/1.1/DTD/svg11.dtd">
<svg width="555mm" height="80mm" viewBox="0 -80 555 80" xmlns="http://www.w3.org/2000/svg" version="1.1">
<title>OpenSCAD Model</title>
<path d="
M 555,-80 L 0,-80 L 0,-0 L 4.95,-0 L 4.95,-6 L 5.00572,-6.53017
 L 5.17046,-7.03717 L 5.437,-7.49884 L 5.79372,-7.895 L 6.22499,-8.20836 L 6.71201,-8.42519 L 7.23344,-8.53603
 L 7.76654,-8.53603 L 8.28798,-8.42519 L 8.77499,-8.20836 L 9.20627,-7.895 L 9.56299,-7.49884 L 9.82953,-7.03717
 L 9.99426,-6.53017 L 10.05,-6 L 10.05,-0 L 139.95,-0 L 139.95,-6 L 140.006,-6.53017
 L 140.17,-7.03717 L 140.437,-7.49884 L 140.794,-7.895 L 141.225,-8.20836 L 141.712,-8.42519 L 142.233,-8.53603
 L 142.767,-8.53603 L 143.288,-8.42519 L 143.775,-8.20836 L 144.206,-7.895 L 144.563,-7.49884 L 144.83,-7.03717
 L 144.994,-6.53017 L 145.05,-6 L 145.05,-0 L 274.95,-0 L 274.95,-6 L 275.006,-6.53017
 L 275.17,-7.03717 L 275.437,-7.49884 L 275.794,-7.895 L 276.225,-8.20836 L 276.712,-8.42519 L 277.233,-8.53603
 L 277.767,-8.53603 L 278.288,-8.42519 L 278.775,-8.20836 L 279.206,-7.895 L 279.563,-7.49884 L 279.83,-7.03717
 L 279.994,-6.53017 L 280.05,-6 L 280.05,-0 L 409.95,-0 L 409.95,-6 L 410.006,-6.53017
 L 410.17,-7.03717 L 410.437,-7.49884 L 410.794,-7.895 L 411.225,-8.20836 L 411.712,-8.42519 L 412.233,-8.53603
 L 412.767,-8.53603 L 413.288,-8.42519 L 413.775,-8.20836 L 414.206,-7.895 L 414.563,-7.49884 L 414.83,-7.03717
 L 414.994,-6.53017 L 415.05,-6 L 415.05,-0 L 544.95,-0 L 544.95,-6 L 545.006,-6.53017
 L 545.17,-7.03717 L 545.437,-7.49884 L 545.794,-7.895 L 546.225,-8.20836 L 546.712,-8.42519 L 547.233,-8.53603
 L 547.767,-8.53603 L 548.288,-8.42519 L 548.775,-8.20836 L 549.206,-7.895 L 549.563,-7.49884 L 549.83,-7.03717
 L 549.994,-6.53017 L 550.05,-6 L 550.05,-0 L 555,-0 z
M 6.98573,-55.607 L 6.47708,-55.6875 L 5.97964,-55.8208 L 5.49887,-56.0054 L 5.04001,-56.2392 L 4.60811,-56.5196
 L 4.20789,-56.8437 L 3.84373,-57.2079 L 3.51964,-57.6081 L 3.23917,-58.04 L 3.00537,-58.4989 L 2.82082,-58.9796
 L 2.68752,-59.4771 L 2.60696,-59.9857 L 2.58,-60.5 L 2.60696,-61.0143 L 2.68752,-61.5229 L 2.82082,-62.0204
 L 3.00537,-62.5011 L 3.23917,-62.96 L 3.51964,-63.3919 L 3.84373,-63.7921 L 4.20789,-64.1563 L 4.60811,-64.4804
 L 4.95001,-64.7024 L 4.95001,-74 L 5.00574,-74.5302 L 5.17047,-75.0372 L 5.43701,-75.4988 L 5.79373,-75.895
 L 6.22501,-76.2084 L 6.71202,-76.4252 L 7.23346,-76.536 L 7.76654,-76.536 L 8.28798,-76.4252 L 8.77499,-76.2084
 L 9.20627,-75.895 L 9.56299,-75.4988 L 9.82953,-75.0372 L 9.99426,-74.5302 L 10.05,-74 L 10.05,-64.7024
 L 10.3919,-64.4804 L 10.7921,-64.1563 L 11.1563,-63.7921 L 11.4804,-63.3919 L 11.7608,-62.96 L 11.9946,-62.5011
 L 12.1792,-62.0204 L 12.3125,-61.5229 L 12.393,-61.0143 L 12.42,-60.5 L 12.393,-59.9857 L 12.3125,-59.4771
 L 12.1792,-58.9796 L 11.9946,-58.4989 L 11.7608,-58.04 L 11.4804,-57.6081 L 11.1563,-57.2079 L 10.7921,-56.8437
 L 10.3919,-56.5196 L 9.95999,-56.2392 L 9.50113,-56.0054 L 9.02036,-55.8208 L 8.52292,-55.6875 L 8.01427,-55.607
 L 7.5,-55.58 z
M 141.986,-55.607 L 141.477,-55.6875 L 140.98,-55.8208 L 140.499,-56.0054 L 140.04,-56.2392 L 139.608,-56.5196
 L 139.208,-56.8437 L 138.844,-57.2079 L 138.52,-57.6081 L 138.239,-58.04 L 138.005,-58.4989 L 137.821,-58.9796
 L 137.688,-59.4771 L 137.607,-59.9857 L 137.58,-60.5 L 137.607,-61.0143 L 137.688,-61.5229 L 137.821,-62.0204
 L 138.005,-62.5011 L 138.239,-62.96 L 138.52,-63.3919 L 138.844,-63.7921 L 139.208,-64.1563 L 139.608,-64.4804
 L 139.95,-64.7024 L 139.95,-74 L 140.006,-74.5302 L 140.17,-75.0372 L 140.437,-75.4988 L 140.794,-75.895
 L 141.225,-76.2084 L 141.712,-76.4252 L 142.233,-76.536 L 142.767,-76.536 L 143.288,-76.4252 L 143.775,-76.2084
 L 144.206,-75.895 L 144.563,-75.4988 L 144.83,-75.0372 L 144.994,-74.5302 L 145.05,-74 L 145.05,-64.7024
 L 145.392,-64.4804 L 145.792,-64.1563 L 146.156,-63.7921 L 146.48,-63.3919 L 146.761,-62.96 L 146.995,-62.5011
 L 147.179,-62.0204 L 147.312,-61.5229 L 147.393,-61.0143 L 147.42,-60.5 L 147.393,-59.9857 L 147.312,-59.4771
 L 147.179,-58.9796 L 146.995,-58.4989 L 146.761,-58.04 L 146.48,-57.6081 L 146.156,-57.2079 L 145.792,-56.8437
 L 145.392,-56.5196 L 144.96,-56.2392 L 144.501,-56.0054 L 144.02,-55.8208 L 143.523,-55.6875 L 143.014,-55.607
 L 142.5,-55.58 z
M 276.986,-55.607 L 276.477,-55.6875 L 275.98,-55.8208 L 275.499,-56.0054 L 275.04,-56.2392 L 274.608,-56.5196
 L 274.208,-56.8437 L 273.844,-57.2079 L 273.52,-57.6081 L 273.239,-58.04 L 273.005,-58.4989 L 272.821,-58.9796
 L 272.688,-59.4771 L 272.607,-59.9857 L 272.58,-60.5 L 272.607,-61.0143 L 272.688,-61.5229 L 272.821,-62.0204
 L 273.005,-62.5011 L 273.239,-62.96 L 273.52,-63.3919 L 273.844,-63.7921 L 274.208,-64.1563 L 274.608,-64.4804
 L 274.95,-64.7024 L 274.95,-74 L 275.006,-74.5302 L 275.17,-75.0372 L 275.437,-75.4988 L 275.794,-75.895
 L 276.225,-76.2084 L 276.712,-76.4252 L 277.233,-76.536 L 277.767,-76.536 L 278.288,-76.4252 L 278.775,-76.2084
 L 279.206,-75.895 L 279.563,-75.4988 L 279.83,-75.0372 L 279.994,-74.5302 L 280.05,-74 L 280.05,-64.7024
 L 280.392,-64.4804 L 280.792,-64.1563 L 281.156,-63.7921 L 281.48,-63.3919 L 281.761,-62.96 L 281.995,-62.5011
 L 282.179,-62.0204 L 282.312,-61.5229 L 282.393,-61.0143 L 282.42,-60.5 L 282.393,-59.9857 L 282.312,-59.4771
 L 282.179,-58.9796 L 281.995,-58.4989 L 281.761,-58.04 L 281.48,-57.6081 L 281.156,-57.2079 L 280.792,-56.8437
 L 280.392,-56.5196 L 279.96,-56.2392 L 279.501,-56.0054 L 279.02,-55.8208 L 278.523,-55.6875 L 278.014,-55.607
 L 277.5,-55.58 z
M 411.986,-55.607 L 411.477,-55.6875 L 410.98,-55.8208 L 410.499,-56.0054 L 410.04,-56.2392 L 409.608,-56.5196
 L 409.208,-56.8437 L 408.844,-57.2079 L 408.52,-57.6081 L 408.239,-58.04 L 408.005,-58.4989 L 407.821,-58.9796
 L 407.688,-59.4771 L 407.607,-59.9857 L 407.58,-60.5 L 407.607,-61.0143 L 407.688,-61.5229 L 407.821,-62.0204
 L 408.005,-62.5011 L 408.239,-62.96 L 408.52,-63.3919 L 408.844,-63.7921 L 409.208,-64.1563 L 409.608,-64.4804
 L 409.95,-64.7024 L 409.95,-74 L 410.006,-74.5302 L 410.17,-75.0372 L 410.437,-75.4988 L 410.794,-75.895
 L 411.225,-76.2084 L 411.712,-76.4252 L 412.233,-76.536 L 412.767,-76.536 L 413.288,-76.4252 L 413.775,-76.2084
 L 414.206,-75.895 L 414.563,-75.4988 L 414.83,-75.0372 L 414.994,-74.5302 L 415.05,-74 L 415.05,-64.7024
 L 415.392,-64.4804 L 415.792,-64.1563 L 416.156,-63.7921 L 416.48,-63.3919 L 416.761,-62.96 L 416.995,-62.5011
 L 417.179,-62.0204 L 417.312,-61.5229 L 417.393,-61.0143 L 417.42,-60.5 L 417.393,-59.9857 L 417.312,-59.4771
 L 417.179,-58.9796 L 416.995,-58.4989 L 416.761,-58.04 L 416.48,-57.6081 L 416.156,-57.2079 L 415.792,-56.8437
 L 415.392,-56.5196 L 414.96,-56.2392 L 414.501,-56.0054 L 414.02,-55.8208 L 413.523,-55.6875 L 413.014,-55.607
 L 412.5,-55.58 z
M 546.986,-55.607 L 546.477,-55.6875 L 545.98,-55.8208 L 545.499,-56.0054 L 545.04,-56.2392 L 544.608,-56.5196
 L 544.208,-56.8437 L 543.844,-57.2079 L 543.52,-57.6081 L 543.239,-58.04 L 543.005,-58.4989 L 542.821,-58.9796
 L 542.688,-59.4771 L 542.607,-59.9857 L 542.58,-60.5 L 542.607,-61.0143 L 542.688,-61.5229 L 542.821,-62.0204
 L 543.005,-62.5011 L 543.239,-62.96 L 543.52,-63.3919 L 543.844,-63.7921 L 544.208,-64.1563 L 544.608,-64.4804
 L 544.95,-64.7024 L 544.95,-74 L 545.006,-74.5302 L 545.17,-75.0372 L 545.437,-75.4988 L 545.794,-75.895
 L 546.225,-76.2084 L 546.712,-76.4252 L 547.233,-76.536 L 547.767,-76.536 L 548.288,-76.4252 L 548.775,-76.2084
 L 549.206,-75.895 L 549.563,-75.4988 L 549.83,-75.0372 L 549.994,-74.5302 L 550.05,-74 L 550.05,-64.7024
 L 550.392,-64.4804 L 550.792,-64.1563 L 551.156,-63.7921 L 551.48,-63.3919 L 551.761,-62.96 L 551.995,-62.5011
 L 552.179,-62.0204 L 552.312,-61.5229 L 552.393,-61.0143 L 552.42,-60.5 L 552.393,-59.9857 L 552.312,-59.4771
 L 552.179,-58.9796 L 551.995,-58.4989 L 551.761,-58.04 L 551.48,-57.6081 L 551.156,-57.2079 L 550.792,-56.8437
 L 550.392,-56.5196 L 549.96,-56.2392 L 549.501,-56.0054 L 549.02,-55.8208 L 548.523,-55.6875 L 548.014,-55.607
 L 547.5,-55.58 z
M 289.856,-23.1398 L 289.049,-23.36 L 288.306,-23.743 L 287.658,-24.2723 L 287.135,-24.9246 L 286.759,-25.6714
 L 286.546,-26.4802 L 286.5,-27.0876 L 286.5,-58 L 286.587,-58.8316 L 286.846,-59.627 L 287.264,-60.3511
 L 287.823,-60.9726 L 288.5,-61.4641 L 289.264,-61.8042 L 290.5,-62 L 351.87,-62 L 352.702,-61.9126
 L 353.497,-61.6542 L 354.221,-61.2361 L 354.843,-60.6765 L 355.334,-60 L 355.674,-59.2361 L 355.848,-58.4181
 L 355.848,-57.5819 L 355.674,-56.7639 L 355.334,-56 L 354.843,-55.3235 L 354.221,-54.7639 L 353.67,-54.4276
 L 292.299,-23.5152 L 291.517,-23.2191 L 290.691,-23.0922 z
M 263.483,-23.2191 L 262.701,-23.5152 L 201.33,-54.4276 L 200.779,-54.7639 L 200.157,-55.3235 L 199.666,-56
 L 199.326,-56.7639 L 199.152,-57.5819 L 199.152,-58.4181 L 199.326,-59.2361 L 199.666,-60 L 200.157,-60.6765
 L 200.779,-61.2361 L 201.503,-61.6542 L 202.298,-61.9126 L 203.13,-62 L 264.5,-62 L 265.736,-61.8042
 L 266.5,-61.4641 L 267.177,-60.9726 L 267.736,-60.3511 L 268.154,-59.627 L 268.413,-58.8316 L 268.5,-58
 L 268.5,-27.0876 L 268.454,-26.4802 L 268.241,-25.6714 L 267.865,-24.9246 L 267.342,-24.2723 L 266.694,-23.743
 L 265.951,-23.36 L 265.144,-23.1398 L 264.309,-23.0922 z
M 424.856,-23.1398 L 424.049,-23.36 L 423.306,-23.743 L 422.658,-24.2723 L 422.135,-24.9246 L 421.759,-25.6714
 L 421.546,-26.4802 L 421.5,-27.0876 L 421.5,-58 L 421.587,-58.8316 L 421.846,-59.627 L 422.264,-60.3511
 L 422.823,-60.9726 L 423.5,-61.4641 L 424.264,-61.8042 L 425.5,-62 L 486.87,-62 L 487.702,-61.9126
 L 488.497,-61.6542 L 489.221,-61.2361 L 489.843,-60.6765 L 490.334,-60 L 490.674,-59.2361 L 490.848,-58.4181
 L 490.848,-57.5819 L 490.674,-56.7639 L 490.334,-56 L 489.843,-55.3235 L 489.221,-54.7639 L 488.67,-54.4276
 L 427.299,-23.5152 L 426.517,-23.2191 L 425.691,-23.0922 z
M 128.483,-23.2191 L 127.701,-23.5152 L 66.3304,-54.4276 L 65.7787,-54.7639 L 65.1572,-55.3235 L 64.6657,-56
 L 64.3256,-56.7639 L 64.1517,-57.5819 L 64.1517,-58.4181 L 64.3256,-59.2361 L 64.6657,-60 L 65.1572,-60.6765
 L 65.7787,-61.2361 L 66.5028,-61.6542 L 67.2981,-61.9126 L 68.1298,-62 L 129.5,-62 L 130.736,-61.8042
 L 131.5,-61.4641 L 132.177,-60.9726 L 132.736,-60.3511 L 133.154,-59.627 L 133.413,-58.8316 L 133.5,-58
 L 133.5,-27.0876 L 133.454,-26.4802 L 133.241,-25.6714 L 132.865,-24.9246 L 132.342,-24.2723 L 131.694,-23.743
 L 130.951,-23.36 L 130.144,-23.1398 L 129.309,-23.0922 z
M 338.13,-18 L 337.298,-18.0874 L 336.503,-18.3458 L 335.779,-18.7639 L 335.157,-19.3235 L 334.666,-20
 L 334.326,-20.7639 L 334.152,-21.5819 L 334.152,-22.4181 L 334.326,-23.2361 L 334.666,-24 L 335.157,-24.6765
 L 335.779,-25.2361 L 336.33,-25.5724 L 397.701,-56.4848 L 398.483,-56.7808 L 399.309,-56.9078 L 400.144,-56.8602
 L 400.951,-56.64 L 401.694,-56.2569 L 402.342,-55.7277 L 402.865,-55.0754 L 403.241,-54.3285 L 403.454,-53.5198
 L 403.5,-52.9124 L 403.5,-22 L 403.413,-21.1684 L 403.154,-20.373 L 402.736,-19.6489 L 402.177,-19.0274
 L 401.5,-18.5359 L 400.736,-18.1958 L 399.5,-18 z
M 155.5,-18 L 154.264,-18.1958 L 153.5,-18.5359 L 152.823,-19.0274 L 152.264,-19.6489 L 151.846,-20.373
 L 151.587,-21.1684 L 151.5,-22 L 151.5,-52.9124 L 151.546,-53.5198 L 151.759,-54.3285 L 152.135,-55.0754
 L 152.658,-55.7277 L 153.306,-56.2569 L 154.049,-56.64 L 154.856,-56.8602 L 155.691,-56.9078 L 156.517,-56.7808
 L 157.299,-56.4848 L 218.67,-25.5724 L 219.221,-25.2361 L 219.843,-24.6765 L 220.334,-24 L 220.674,-23.2361
 L 220.848,-22.4181 L 220.848,-21.5819 L 220.674,-20.7639 L 220.334,-20 L 219.843,-19.3235 L 219.221,-18.7639
 L 218.497,-18.3458 L 217.702,-18.0874 L 216.87,-18 z
M 22,-18 L 20.7639,-18.1958 L 20,-18.5359 L 19.3235,-19.0274 L 18.7639,-19.6489 L 18.3458,-20.373
 L 18.0874,-21.1684 L 18,-22 L 18,-52.1568 L 18.0464,-52.7643 L 18.2591,-53.573 L 18.6353,-54.3198
 L 19.1585,-54.9721 L 19.8059,-55.5014 L 20.5492,-55.8845 L 21.356,-56.1046 L 22.1908,-56.1523 L 23.0174,-56.0253
 L 23.7994,-55.7292 L 83.6696,-25.5724 L 84.2213,-25.2361 L 84.8428,-24.6765 L 85.3343,-24 L 85.6744,-23.2361
 L 85.8483,-22.4181 L 85.8483,-21.5819 L 85.6744,-20.7639 L 85.3343,-20 L 84.8428,-19.3235 L 84.2213,-18.7639
 L 83.4971,-18.3458 L 82.7018,-18.0874 L 81.8702,-18 z
M 473.13,-18 L 472.298,-18.0874 L 471.503,-18.3458 L 470.779,-18.7639 L 470.157,-19.3235 L 469.666,-20
 L 469.326,-20.7639 L 469.152,-21.5819 L 469.152,-22.4181 L 469.326,-23.2361 L 469.666,-24 L 470.157,-24.6765
 L 470.779,-25.2361 L 471.33,-25.5724 L 531.201,-55.7292 L 531.983,-56.0253 L 532.809,-56.1523 L 533.644,-56.1046
 L 534.451,-55.8845 L 535.194,-55.5014 L 535.842,-54.9721 L 536.365,-54.3198 L 536.741,-53.573 L 536.954,-52.7643
 L 537,-52.1568 L 537,-22 L 536.913,-21.1684 L 536.654,-20.373 L 536.236,-19.6489 L 535.677,-19.0274
 L 535,-18.5359 L 534.236,-18.1958 L 533,-18 z
" stroke="black" fill="lightgray" stroke-width="0.5"/>
</svg>
