<?xml version="1.0" standalone="no"?>
<!DOCTYPE svg PUBLIC "-//W3C//DTD SVG 1.1//EN" "http://www.w3.org/Graphics/SVG/1.1/DTD/svg11.dtd">
<svg width="868mm" height="80mm" viewBox="0 -80 868 80" xmlns="http://www.w3.org/2000/svg" version="1.1">
<title>OpenSCAD Model</title>
<path d="
M 868,-80 L 0,-80 L 0,-0 L 4.95,-0 L 4.95,-6 L 5.00572,-6.53017
 L 5.17046,-7.03717 L 5.437,-7.49884 L 5.79372,-7.895 L 6.22499,-8.20836 L 6.71201,-8.42519 L 7.23344,-8.53603
 L 7.76654,-8.53603 L 8.28798,-8.42519 L 8.77499,-8.20836 L 9.20627,-7.895 L 9.56299,-7.49884 L 9.82953,-7.03717
 L 9.99426,-6.53017 L 10.05,-6 L 10.05,-0 L 175.55,-0 L 175.55,-6 L 175.606,-6.53017
 L 175.77,-7.03717 L 176.037,-7.49884 L 176.394,-7.895 L 176.825,-8.20836 L 177.312,-8.42519 L 177.833,-8.53603
 L 178.367,-8.53603 L 178.888,-8.42519 L 179.375,-8.20836 L 179.806,-7.895 L 180.163,-7.49884 L 180.43,-7.03717
 L 180.594,-6.53017 L 180.65,-6 L 180.65,-0 L 346.15,-0 L 346.15,-6 L 346.206,-6.53017
 L 346.37,-7.03717 L 346.637,-7.49884 L 346.994,-7.895 L 347.425,-8.20836 L 347.912,-8.42519 L 348.433,-8.53603
 L 348.967,-8.53603 L 349.488,-8.42519 L 349.975,-8.20836 L 350.406,-7.895 L 350.763,-7.49884 L 351.03,-7.03717
 L 351.194,-6.53017 L 351.25,-6 L 351.25,-0 L 516.75,-0 L 516.75,-6 L 516.806,-6.53017
 L 516.97,-7.03717 L 517.237,-7.49884 L 517.594,-7.895 L 518.025,-8.20836 L 518.512,-8.42519 L 519.033,-8.53603
 L 519.567,-8.53603 L 520.088,-8.42519 L 520.575,-8.20836 L 521.006,-7.895 L 521.363,-7.49884 L 521.63,-7.03717
 L 521.794,-6.53017 L 521.85,-6 L 521.85,-0 L 687.35,-0 L 687.35,-6 L 687.406,-6.53017
 L 687.57,-7.03717 L 687.837,-7.49884 L 688.194,-7.895 L 688.625,-8.20836 L 689.112,-8.42519 L 689.633,-8.53603
 L 690.167,-8.53603 L 690.688,-8.42519 L 691.175,-8.20836 L 691.606,-7.895 L 691.963,-7.49884 L 692.23,-7.03717
 L 692.394,-6.53017 L 692.45,-6 L 692.45,-0 L 857.95,-0 L 857.95,-6 L 858.006,-6.53017
 L 858.17,-7.03717 L 858.437,-7.49884 L 858.794,-7.895 L 859.225,-8.20836 L 859.712,-8.42519 L 860.233,-8.53603
 L 860.767,-8.53603 L 861.288,-8.42519 L 861.775,-8.20836 L 862.206,-7.895 L 862.563,-7.49884 L 862.83,-7.03717
 L 862.994,-6.53017 L 863.05,-6 L 863.05,-0 L 868,-0 z
M 6.98573,-55.607 L 6.47708,-55.6875 L 5.97964,-55.8208 L 5.49887,-56.0054 L 5.04001,-56.2392 L 4.60811,-56.5196
 L 4.20789,-56.8437 L 3.84373,-57.2079 L 3.51964,-57.6081 L 3.23917,-58.04 L 3.00537,-58.4989 L 2.82082,-58.9796
 L 2.68752,-59.4771 L 2.60696,-59.9857 L 2.58,-60.5 L 2.60696,-61.0143 L 2.68752,-61.5229 L 2.82082,-62.0204
 L 3.00537,-62.5011 L 3.23917,-62.96 L 3.51964,-63.3919 L 3.84373,-63.7921 L 4.20789,-64.1563 L 4.60811,-64.4804
 L 4.95001,-64.7024 L 4.95001,-74 L 5.00574,-74.5302 L 5.17047,-75.0372 L 5.43701,-75.4988 L 5.79373,-75.895
 L 6.22501,-76.2084 L 6.71202,-76.4252 L 7.23346,-76.536 L 7.76654,-76.536 L 8.28798,-76.4252 L 8.77499,-76.2084
 L 9.20627,-75.895 L 9.56299,-75.4988 L 9.82953,-75.0372 L 9.99426,-74.5302 L 10.05,-74 L 10.05,-64.7024
 L 10.3919,-64.4804 L 10.7921,-64.1563 L 11.1563,-63.7921 L 11.4804,-63.3919 L 11.7608,-62.96 L 11.9946,-62.5011
 L 12.1792,-62.0204 L 12.3125,-61.5229 L 12.393,-61.0143 L 12.42,-60.5 L 12.393,-59.9857 L 12.3125,-59.4771
 L 12.1792,-58.9796 L 11.9946,-58.4989 L 11.7608,-58.04 L 11.4804,-57.6081 L 11.1563,-57.2079 L 10.7921,-56.8437
 L 10.3919,-56.5196 L 9.95999,-56.2392 L 9.50113,-56.0054 L 9.02036,-55.8208 L 8.52292,-55.6875 L 8.01427,-55.607
 L 7.5,-55.58 z
M 177.586,-55.607 L 177.077,-55.6875 L 176.58,-55.8208 L 176.099,-56.0054 L 175.64,-56.2392 L 175.208,-56.5196
 L 174.808,-56.8437 L 174.444,-57.2079 L 174.12,-57.6081 L 173.839,-58.04 L 173.605,-58.4989 L 173.421,-58.9796
 L 173.288,-59.4771 L 173.207,-59.9857 L 173.18,-60.5 L 173.207,-61.0143 L 173.288,-61.5229 L 173.421,-62.0204
 L 173.605,-62.5011 L 173.839,-62.96 L 174.12,-63.3919 L 174.444,-63.7921 L 174.808,-64.1563 L 175.208,-64.4804
 L 175.55,-64.7024 L 175.55,-74 L 175.606,-74.5302 L 175.77,-75.0372 L 176.037,-75.4988 L 176.394,-75.895
 L 176.825,-76.2084 L 177.312,-76.4252 L 177.833,-76.536 L 178.367,-76.536 L 178.888,-76.4252 L 179.375,-76.2084
 L 179.806,-75.895 L 180.163,-75.4988 L 180.43,-75.0372 L 180.594,-74.5302 L 180.65,-74 L 180.65,-64.7024
 L 180.992,-64.4804 L 181.392,-64.1563 L 181.756,-63.7921 L 182.08,-63.3919 L 182.361,-62.96 L 182.595,-62.5011
 L 182.779,-62.0204 L 182.912,-61.5229 L 182.993,-61.0143 L 183.02,-60.5 L 182.993,-59.9857 L 182.912,-59.4771
 L 182.779,-58.9796 L 182.595,-58.4989 L 182.361,-58.04 L 182.08,-57.6081 L 181.756,-57.2079 L 181.392,-56.8437
 L 180.992,-56.5196 L 180.56,-56.2392 L 180.101,-56.0054 L 179.62,-55.8208 L 179.123,-55.6875 L 178.614,-55.607
 L 178.1,-55.58 z
M 348.186,-55.607 L 347.677,-55.6875 L 347.18,-55.8208 L 346.699,-56.0054 L 346.24,-56.2392 L 345.808,-56.5196
 L 345.408,-56.8437 L 345.044,-57.2079 L 344.72,-57.6081 L 344.439,-58.04 L 344.205,-58.4989 L 344.021,-58.9796
 L 343.888,-59.4771 L 343.807,-59.9857 L 343.78,-60.5 L 343.807,-61.0143 L 343.888,-61.5229 L 344.021,-62.0204
 L 344.205,-62.5011 L 344.439,-62.96 L 344.72,-63.3919 L 345.044,-63.7921 L 345.408,-64.1563 L 345.808,-64.4804
 L 346.15,-64.7024 L 346.15,-74 L 346.206,-74.5302 L 346.37,-75.0372 L 346.637,-75.4988 L 346.994,-75.895
 L 347.425,-76.2084 L 347.912,-76.4252 L 348.433,-76.536 L 348.967,-76.536 L 349.488,-76.4252 L 349.975,-76.2084
 L 350.406,-75.895 L 350.763,-75.4988 L 351.03,-75.0372 L 351.194,-74.5302 L 351.25,-74 L 351.25,-64.7024
 L 351.592,-64.4804 L 351.992,-64.1563 L 352.356,-63.7921 L 352.68,-63.3919 L 352.961,-62.96 L 353.195,-62.5011
 L 353.379,-62.0204 L 353.512,-61.5229 L 353.593,-61.0143 L 353.62,-60.5 L 353.593,-59.9857 L 353.512,-59.4771
 L 353.379,-58.9796 L 353.195,-58.4989 L 352.961,-58.04 L 352.68,-57.6081 L 352.356,-57.2079 L 351.992,-56.8437
 L 351.592,-56.5196 L 351.16,-56.2392 L 350.701,-56.0054 L 350.22,-55.8208 L 349.723,-55.6875 L 349.214,-55.607
 L 348.7,-55.58 z
M 518.786,-55.607 L 518.277,-55.6875 L 517.78,-55.8208 L 517.299,-56.0054 L 516.84,-56.2392 L 516.408,-56.5196
 L 516.008,-56.8437 L 515.644,-57.2079 L 515.32,-57.6081 L 515.039,-58.04 L 514.805,-58.4989 L 514.621,-58.9796
 L 514.488,-59.4771 L 514.407,-59.9857 L 514.38,-60.5 L 514.407,-61.0143 L 514.488,-61.5229 L 514.621,-62.0204
 L 514.805,-62.5011 L 515.039,-62.96 L 515.32,-63.3919 L 515.644,-63.7921 L 516.008,-64.1563 L 516.408,-64.4804
 L 516.75,-64.7024 L 516.75,-74 L 516.806,-74.5302 L 516.97,-75.0372 L 517.237,-75.4988 L 517.594,-75.895
 L 518.025,-76.2084 L 518.512,-76.4252 L 519.033,-76.536 L 519.567,-76.536 L 520.088,-76.4252 L 520.575,-76.2084
 L 521.006,-75.895 L 521.363,-75.4988 L 521.63,-75.0372 L 521.794,-74.5302 L 521.85,-74 L 521.85,-64.7024
 L 522.192,-64.4804 L 522.592,-64.1563 L 522.956,-63.7921 L 523.28,-63.3919 L 523.561,-62.96 L 523.795,-62.5011
 L 523.979,-62.0204 L 524.112,-61.5229 L 524.193,-61.0143 L 524.22,-60.5 L 524.193,-59.9857 L 524.112,-59.4771
 L 523.979,-58.9796 L 523.795,-58.4989 L 523.561,-58.04 L 523.28,-57.6081 L 522.956,-57.2079 L 522.592,-56.8437
 L 522.192,-56.5196 L 521.76,-56.2392 L 521.301,-56.0054 L 520.82,-55.8208 L 520.323,-55.6875 L 519.814,-55.607
 L 519.3,-55.58 z
M 689.386,-55.607 L 688.877,-55.6875 L 688.38,-55.8208 L 687.899,-56.0054 L 687.44,-56.2392 L 687.008,-56.5196
 L 686.608,-56.8437 L 686.244,-57.2079 L 685.92,-57.6081 L 685.639,-58.04 L 685.405,-58.4989 L 685.221,-58.9796
 L 685.088,-59.4771 L 685.007,-59.9857 L 684.98,-60.5 L 685.007,-61.0143 L 685.088,-61.5229 L 685.221,-62.0204
 L 685.405,-62.5011 L 685.639,-62.96 L 685.92,-63.3919 L 686.244,-63.7921 L 686.608,-64.1563 L 687.008,-64.4804
 L 687.35,-64.7024 L 687.35,-74 L 687.406,-74.5302 L 687.57,-75.0372 L 687.837,-75.4988 L 688.194,-75.895
 L 688.625,-76.2084 L 689.112,-76.4252 L 689.633,-76.536 L 690.167,-76.536 L 690.688,-76.4252 L 691.175,-76.2084
 L 691.606,-75.895 L 691.963,-75.4988 L 692.23,-75.0372 L 692.394,-74.5302 L 692.45,-74 L 692.45,-64.7024
 L 692.792,-64.4804 L 693.192,-64.1563 L 693.556,-63.7921 L 693.88,-63.3919 L 694.161,-62.96 L 694.395,-62.5011
 L 694.579,-62.0204 L 694.712,-61.5229 L 694.793,-61.0143 L 694.82,-60.5 L 694.793,-59.9857 L 694.712,-59.4771
 L 694.579,-58.9796 L 694.395,-58.4989 L 694.161,-58.04 L 693.88,-57.6081 L 693.556,-57.2079 L 693.192,-56.8437
 L 692.792,-56.5196 L 692.36,-56.2392 L 691.901,-56.0054 L 691.42,-55.8208 L 690.923,-55.6875 L 690.414,-55.607
 L 689.9,-55.58 z
M 859.986,-55.607 L 859.477,-55.6875 L 858.98,-55.8208 L 858.499,-56.0054 L 858.04,-56.2392 L 857.608,-56.5196
 L 857.208,-56.8437 L 856.844,-57.2079 L 856.52,-57.6081 L 856.239,-58.04 L 856.005,-58.4989 L 855.821,-58.9796
 L 855.688,-59.4771 L 855.607,-59.9857 L 855.58,-60.5 L 855.607,-61.0143 L 855.688,-61.5229 L 855.821,-62.0204
 L 856.005,-62.5011 L 856.239,-62.96 L 856.52,-63.3919 L 856.844,-63.7921 L 857.208,-64.1563 L 857.608,-64.4804
 L 857.95,-64.7024 L 857.95,-74 L 858.006,-74.5302 L 858.17,-75.0372 L 858.437,-75.4988 L 858.794,-75.895
 L 859.225,-76.2084 L 859.712,-76.4252 L 860.233,-76.536 L 860.767,-76.536 L 861.288,-76.4252 L 861.775,-76.2084
 L 862.206,-75.895 L 862.563,-75.4988 L 862.83,-75.0372 L 862.994,-74.5302 L 863.05,-74 L 863.05,-64.7024
 L 863.392,-64.4804 L 863.792,-64.1563 L 864.156,-63.7921 L 864.48,-63.3919 L 864.761,-62.96 L 864.995,-62.5011
 L 865.179,-62.0204 L 865.312,-61.5229 L 865.393,-61.0143 L 865.42,-60.5 L 865.393,-59.9857 L 865.312,-59.4771
 L 865.179,-58.9796 L 864.995,-58.4989 L 864.761,-58.04 L 864.48,-57.6081 L 864.156,-57.2079 L 863.792,-56.8437
 L 863.392,-56.5196 L 862.96,-56.2392 L 862.501,-56.0054 L 862.02,-55.8208 L 861.523,-55.6875 L 861.014,-55.607
 L 860.5,-55.58 z
M 433.324,-47.8899 L 432.519,-48.1166 L 417.045,-54.2843 L 416.175,-54.7639 L 415.554,-55.3235 L 415.062,-56
 L 414.722,-56.7639 L 414.548,-57.5819 L 414.548,-58.4181 L 414.722,-59.2361 L 415.062,-60 L 415.554,-60.6765
 L 416.175,-61.2361 L 416.899,-61.6542 L 417.695,-61.9126 L 418.526,-62 L 449.474,-62 L 450.459,-61.8766
 L 451.244,-61.5869 L 451.951,-61.1405 L 452.55,-60.5568 L 453.014,-59.8613 L 453.324,-59.0845 L 453.465,-58.2603
 L 453.432,-57.4248 L 453.226,-56.6143 L 452.856,-55.8645 L 452.338,-55.2079 L 451.695,-54.6734 L 450.955,-54.2843
 L 435.481,-48.1166 L 434.986,-47.9557 L 434.158,-47.8355 z
M 335.024,-21.2229 L 334.219,-21.4497 L 251.843,-54.2843 L 250.973,-54.7639 L 250.351,-55.3235 L 249.86,-56
 L 249.52,-56.7639 L 249.346,-57.5819 L 249.346,-58.4181 L 249.52,-59.2361 L 249.86,-60 L 250.351,-60.6765
 L 250.973,-61.2361 L 251.697,-61.6542 L 252.492,-61.9126 L 253.324,-62 L 335.7,-62 L 336.936,-61.8042
 L 337.7,-61.4641 L 338.377,-60.9726 L 338.936,-60.3511 L 339.354,-59.627 L 339.613,-58.8316 L 339.7,-58
 L 339.7,-25.1654 L 339.55,-24.0808 L 339.241,-23.304 L 338.776,-22.6086 L 338.177,-22.0249 L 337.47,-21.5785
 L 336.686,-21.2888 L 335.858,-21.1685 z
M 701.914,-21.2888 L 701.13,-21.5785 L 700.423,-22.0249 L 699.824,-22.6086 L 699.359,-23.304 L 699.05,-24.0808
 L 698.9,-25.1654 L 698.9,-58 L 698.987,-58.8316 L 699.246,-59.627 L 699.664,-60.3511 L 700.223,-60.9726
 L 700.9,-61.4641 L 701.664,-61.8042 L 702.9,-62 L 785.276,-62 L 786.108,-61.9126 L 786.903,-61.6542
 L 787.627,-61.2361 L 788.249,-60.6765 L 788.74,-60 L 789.08,-59.2361 L 789.254,-58.4181 L 789.254,-57.5819
 L 789.08,-56.7639 L 788.74,-56 L 788.249,-55.3235 L 787.627,-54.7639 L 786.757,-54.2843 L 704.381,-21.4497
 L 703.576,-21.2229 L 702.742,-21.1685 z
M 164.424,-21.2229 L 163.619,-21.4497 L 81.2427,-54.2843 L 80.3726,-54.7639 L 79.7512,-55.3235 L 79.2596,-56
 L 78.9195,-56.7639 L 78.7457,-57.5819 L 78.7457,-58.4181 L 78.9195,-59.2361 L 79.2596,-60 L 79.7512,-60.6765
 L 80.3726,-61.2361 L 81.0968,-61.6542 L 81.8921,-61.9126 L 82.7237,-62 L 165.1,-62 L 166.336,-61.8042
 L 167.1,-61.4641 L 167.777,-60.9726 L 168.336,-60.3511 L 168.754,-59.627 L 169.013,-58.8316 L 169.1,-58
 L 169.1,-25.1654 L 168.95,-24.0808 L 168.641,-23.304 L 168.176,-22.6086 L 167.577,-22.0249 L 166.87,-21.5785
 L 166.086,-21.2888 L 165.258,-21.1685 z
M 531.314,-21.2888 L 530.53,-21.5785 L 529.823,-22.0249 L 529.224,-22.6086 L 528.759,-23.304 L 528.45,-24.0808
 L 528.3,-25.1654 L 528.3,-58 L 528.387,-58.8316 L 528.646,-59.627 L 529.064,-60.3511 L 529.623,-60.9726
 L 530.3,-61.4641 L 531.064,-61.8042 L 532.3,-62 L 614.676,-62 L 615.508,-61.9126 L 616.303,-61.6542
 L 617.027,-61.2361 L 617.649,-60.6765 L 618.14,-60 L 618.48,-59.2361 L 618.654,-58.4181 L 618.654,-57.5819
 L 618.48,-56.7639 L 618.14,-56 L 617.649,-55.3235 L 617.027,-54.7639 L 616.157,-54.2843 L 533.781,-21.4497
 L 532.976,-21.2229 L 532.142,-21.1685 z
M 361.282,-19.036 L 360.464,-19.2098 L 359.7,-19.55 L 359.023,-20.0415 L 358.464,-20.6629 L 358.046,-21.3871
 L 357.787,-22.1824 L 357.7,-23.0141 L 357.7,-56.9859 L 357.85,-58.0705 L 358.159,-58.8473 L 358.624,-59.5427
 L 359.223,-60.1264 L 359.93,-60.5729 L 360.714,-60.8625 L 361.542,-60.9828 L 362.376,-60.9284 L 363.181,-60.7016
 L 405.796,-43.7157 L 406.792,-43.1405 L 407.391,-42.5568 L 407.855,-41.8613 L 408.165,-41.0845 L 408.306,-40.2603
 L 408.273,-39.4248 L 408.067,-38.6143 L 407.697,-37.8645 L 407.179,-37.2079 L 406.536,-36.6734 L 405.796,-36.2843
 L 363.181,-19.2984 L 362.118,-19.036 z
M 505.624,-19.0716 L 504.819,-19.2983 L 462.204,-36.2843 L 461.208,-36.8595 L 460.609,-37.4432 L 460.145,-38.1387
 L 459.835,-38.9155 L 459.694,-39.7397 L 459.727,-40.5752 L 459.933,-41.3857 L 460.303,-42.1355 L 460.821,-42.7921
 L 461.464,-43.3266 L 462.204,-43.7157 L 504.819,-60.7017 L 505.882,-60.964 L 506.718,-60.964 L 507.536,-60.7902
 L 508.3,-60.45 L 508.977,-59.9585 L 509.536,-59.3371 L 509.954,-58.6129 L 510.213,-57.8176 L 510.3,-56.9859
 L 510.3,-23.0141 L 510.15,-21.9295 L 509.841,-21.1527 L 509.376,-20.4573 L 508.777,-19.8736 L 508.07,-19.4271
 L 507.286,-19.1374 L 506.458,-19.0172 z
M 191.1,-18 L 189.864,-18.1958 L 189.1,-18.5359 L 188.423,-19.0274 L 187.864,-19.6489 L 187.446,-20.373
 L 187.187,-21.1684 L 187.1,-22 L 187.1,-54.8346 L 187.25,-55.9191 L 187.559,-56.6959 L 188.024,-57.3914
 L 188.623,-57.9751 L 189.33,-58.4215 L 190.114,-58.7112 L 190.942,-58.8315 L 191.776,-58.777 L 192.581,-58.5503
 L 274.957,-25.7157 L 275.827,-25.2361 L 276.449,-24.6765 L 276.94,-24 L 277.28,-23.2361 L 277.454,-22.4181
 L 277.454,-21.5819 L 277.28,-20.7639 L 276.94,-20 L 276.449,-19.3235 L 275.827,-18.7639 L 275.103,-18.3458
 L 274.308,-18.0874 L 273.476,-18 z
M 594.524,-18 L 593.692,-18.0874 L 592.897,-18.3458 L 592.173,-18.7639 L 591.551,-19.3235 L 591.06,-20
 L 590.72,-20.7639 L 590.546,-21.5819 L 590.546,-22.4181 L 590.72,-23.2361 L 591.06,-24 L 591.551,-24.6765
 L 592.173,-25.2361 L 593.043,-25.7157 L 675.419,-58.5503 L 676.224,-58.777 L 677.058,-58.8315 L 677.886,-58.7112
 L 678.67,-58.4215 L 679.377,-57.9751 L 679.976,-57.3914 L 680.441,-56.6959 L 680.75,-55.9191 L 680.9,-54.8346
 L 680.9,-22 L 680.813,-21.1684 L 680.554,-20.373 L 680.136,-19.6489 L 679.577,-19.0274 L 678.9,-18.5359
 L 678.136,-18.1958 L 676.9,-18 z
M 22,-18 L 20.7639,-18.1958 L 20,-18.5359 L 19.3235,-19.0274 L 18.7639,-19.6489 L 18.3458,-20.373
 L 18.0874,-21.1684 L 18,-22 L 18,-54.2367 L 18.1498,-55.3213 L 18.4595,-56.0981 L 18.9238,-56.7935
 L 19.5226,-57.3772 L 20.2297,-57.8236 L 21.0142,-58.1133 L 21.8417,-58.2336 L 22.6761,-58.1792 L 23.481,-57.9524
 L 104.357,-25.7157 L 105.227,-25.2361 L 105.849,-24.6765 L 106.34,-24 L 106.68,-23.2361 L 106.854,-22.4181
 L 106.854,-21.5819 L 106.68,-20.7639 L 106.34,-20 L 105.849,-19.3235 L 105.227,-18.7639 L 104.503,-18.3458
 L 103.708,-18.0874 L 102.876,-18 z
M 765.124,-18 L 764.292,-18.0874 L 763.497,-18.3458 L 762.773,-18.7639 L 762.151,-19.3235 L 761.66,-20
 L 761.32,-20.7639 L 761.146,-21.5819 L 761.146,-22.4181 L 761.32,-23.2361 L 761.66,-24 L 762.151,-24.6765
 L 762.773,-25.2361 L 763.643,-25.7157 L 844.519,-57.9524 L 845.324,-58.1792 L 846.158,-58.2336 L 846.986,-58.1133
 L 847.77,-57.8236 L 848.477,-57.3772 L 849.076,-56.7935 L 849.541,-56.0981 L 849.85,-55.3213 L 850,-54.2367
 L 850,-22 L 849.913,-21.1684 L 849.654,-20.373 L 849.236,-19.6489 L 848.677,-19.0274 L 848,-18.5359
 L 847.236,-18.1958 L 846,-18 z
M 418.526,-18 L 417.541,-18.1234 L 416.756,-18.4131 L 416.049,-18.8595 L 415.45,-19.4432 L 414.986,-20.1387
 L 414.676,-20.9155 L 414.535,-21.7397 L 414.568,-22.5752 L 414.774,-23.3857 L 415.144,-24.1355 L 415.662,-24.7921
 L 416.305,-25.3266 L 417.045,-25.7157 L 432.519,-31.8834 L 433.014,-32.0443 L 433.842,-32.1645 L 434.676,-32.1101
 L 435.481,-31.8834 L 450.955,-25.7157 L 451.825,-25.2361 L 452.446,-24.6765 L 452.938,-24 L 453.278,-23.2361
 L 453.452,-22.4181 L 453.452,-21.5819 L 453.278,-20.7639 L 452.938,-20 L 452.446,-19.3235 L 451.825,-18.7639
 L 451.1,-18.3458 L 450.305,-18.0874 L 449.474,-18 z
" stroke="black" fill="lightgray" stroke-width="0.5"/>
</svg>
