<?xml version="1.0" standalone="no"?>
<!DOCTYPE svg PUBLIC "-//W3C//DTD SVG 1.1//EN" "http://www.w3.org/Graphics/SVG/1.1/DTD/svg11.dtd">
<svg width="751mm" height="80mm" viewBox="0 -80 751 80" xmlns="http://www.w3.org/2000/svg" version="1.1">
<title>OpenSCAD Model</title>
<path d="
M 751,-80 L 0,-80 L 0,-0 L 4.95,-0 L 4.95,-6 L 5.00572,-6.53017
 L 5.17046,-7.03717 L 5.437,-7.49884 L 5.79372,-7.895 L 6.22499,-8.20836 L 6.71201,-8.42519 L 7.23344,-8.53603
 L 7.76654,-8.53603 L 8.28798,-8.42519 L 8.77499,-8.20836 L 9.20627,-7.895 L 9.56299,-7.49884 L 9.82953,-7.03717
 L 9.99426,-6.53017 L 10.05,-6 L 10.05,-0 L 152.15,-0 L 152.15,-6 L 152.206,-6.53017
 L 152.37,-7.03717 L 152.637,-7.49884 L 152.994,-7.895 L 153.425,-8.20836 L 153.912,-8.42519 L 154.433,-8.53603
 L 154.967,-8.53603 L 155.488,-8.42519 L 155.975,-8.20836 L 156.406,-7.895 L 156.763,-7.49884 L 157.03,-7.03717
 L 157.194,-6.53017 L 157.25,-6 L 157.25,-0 L 299.35,-0 L 299.35,-6 L 299.406,-6.53017
 L 299.57,-7.03717 L 299.837,-7.49884 L 300.194,-7.895 L 300.625,-8.20836 L 301.112,-8.42519 L 301.633,-8.53603
 L 302.167,-8.53603 L 302.688,-8.42519 L 303.175,-8.20836 L 303.606,-7.895 L 303.963,-7.49884 L 304.23,-7.03717
 L 304.394,-6.53017 L 304.45,-6 L 304.45,-0 L 446.55,-0 L 446.55,-6 L 446.606,-6.53017
 L 446.77,-7.03717 L 447.037,-7.49884 L 447.394,-7.895 L 447.825,-8.20836 L 448.312,-8.42519 L 448.833,-8.53603
 L 449.367,-8.53603 L 449.888,-8.42519 L 450.375,-8.20836 L 450.806,-7.895 L 451.163,-7.49884 L 451.43,-7.03717
 L 451.594,-6.53017 L 451.65,-6 L 451.65,-0 L 593.75,-0 L 593.75,-6 L 593.806,-6.53017
 L 593.97,-7.03717 L 594.237,-7.49884 L 594.594,-7.895 L 595.025,-8.20836 L 595.512,-8.42519 L 596.033,-8.53603
 L 596.567,-8.53603 L 597.088,-8.42519 L 597.575,-8.20836 L 598.006,-7.895 L 598.363,-7.49884 L 598.63,-7.03717
 L 598.794,-6.53017 L 598.85,-6 L 598.85,-0 L 740.95,-0 L 740.95,-6 L 741.006,-6.53017
 L 741.17,-7.03717 L 741.437,-7.49884 L 741.794,-7.895 L 742.225,-8.20836 L 742.712,-8.42519 L 743.233,-8.53603
 L 743.767,-8.53603 L 744.288,-8.42519 L 744.775,-8.20836 L 745.206,-7.895 L 745.563,-7.49884 L 745.83,-7.03717
 L 745.994,-6.53017 L 746.05,-6 L 746.05,-0 L 751,-0 z
M 6.98573,-55.607 L 6.47708,-55.6875 L 5.97964,-55.8208 L 5.49887,-56.0054 L 5.04001,-56.2392 L 4.60811,-56.5196
 L 4.20789,-56.8437 L 3.84373,-57.2079 L 3.51964,-57.6081 L 3.23917,-58.04 L 3.00537,-58.4989 L 2.82082,-58.9796
 L 2.68752,-59.4771 L 2.60696,-59.9857 L 2.58,-60.5 L 2.60696,-61.0143 L 2.68752,-61.5229 L 2.82082,-62.0204
 L 3.00537,-62.5011 L 3.23917,-62.96 L 3.51964,-63.3919 L 3.84373,-63.7921 L 4.20789,-64.1563 L 4.60811,-64.4804
 L 4.95001,-64.7024 L 4.95001,-74 L 5.00574,-74.5302 L 5.17047,-75.0372 L 5.43701,-75.4988 L 5.79373,-75.895
 L 6.22501,-76.2084 L 6.71202,-76.4252 L 7.23346,-76.536 L 7.76654,-76.536 L 8.28798,-76.4252 L 8.77499,-76.2084
 L 9.20627,-75.895 L 9.56299,-75.4988 L 9.82953,-75.0372 L 9.99426,-74.5302 L 10.05,-74 L 10.05,-64.7024
 L 10.3919,-64.4804 L 10.7921,-64.1563 L 11.1563,-63.7921 L 11.4804,-63.3919 L 11.7608,-62.96 L 11.9946,-62.5011
 L 12.1792,-62.0204 L 12.3125,-61.5229 L 12.393,-61.0143 L 12.42,-60.5 L 12.393,-59.9857 L 12.3125,-59.4771
 L 12.1792,-58.9796 L 11.9946,-58.4989 L 11.7608,-58.04 L 11.4804,-57.6081 L 11.1563,-57.2079 L 10.7921,-56.8437
 L 10.3919,-56.5196 L 9.95999,-56.2392 L 9.50113,-56.0054 L 9.02036,-55.8208 L 8.52292,-55.6875 L 8.01427,-55.607
 L 7.5,-55.58 z
M 154.186,-55.607 L 153.677,-55.6875 L 153.18,-55.8208 L 152.699,-56.0054 L 152.24,-56.2392 L 151.808,-56.5196
 L 151.408,-56.8437 L 151.044,-57.2079 L 150.72,-57.6081 L 150.439,-58.04 L 150.205,-58.4989 L 150.021,-58.9796
 L 149.888,-59.4771 L 149.807,-59.9857 L 149.78,-60.5 L 149.807,-61.0143 L 149.888,-61.5229 L 150.021,-62.0204
 L 150.205,-62.5011 L 150.439,-62.96 L 150.72,-63.3919 L 151.044,-63.7921 L 151.408,-64.1563 L 151.808,-64.4804
 L 152.15,-64.7024 L 152.15,-74 L 152.206,-74.5302 L 152.37,-75.0372 L 152.637,-75.4988 L 152.994,-75.895
 L 153.425,-76.2084 L 153.912,-76.4252 L 154.433,-76.536 L 154.967,-76.536 L 155.488,-76.4252 L 155.975,-76.2084
 L 156.406,-75.895 L 156.763,-75.4988 L 157.03,-75.0372 L 157.194,-74.5302 L 157.25,-74 L 157.25,-64.7024
 L 157.592,-64.4804 L 157.992,-64.1563 L 158.356,-63.7921 L 158.68,-63.3919 L 158.961,-62.96 L 159.195,-62.5011
 L 159.379,-62.0204 L 159.512,-61.5229 L 159.593,-61.0143 L 159.62,-60.5 L 159.593,-59.9857 L 159.512,-59.4771
 L 159.379,-58.9796 L 159.195,-58.4989 L 158.961,-58.04 L 158.68,-57.6081 L 158.356,-57.2079 L 157.992,-56.8437
 L 157.592,-56.5196 L 157.16,-56.2392 L 156.701,-56.0054 L 156.22,-55.8208 L 155.723,-55.6875 L 155.214,-55.607
 L 154.7,-55.58 z
M 301.386,-55.607 L 300.877,-55.6875 L 300.38,-55.8208 L 299.899,-56.0054 L 299.44,-56.2392 L 299.008,-56.5196
 L 298.608,-56.8437 L 298.244,-57.2079 L 297.92,-57.6081 L 297.639,-58.04 L 297.405,-58.4989 L 297.221,-58.9796
 L 297.088,-59.4771 L 297.007,-59.9857 L 296.98,-60.5 L 297.007,-61.0143 L 297.088,-61.5229 L 297.221,-62.0204
 L 297.405,-62.5011 L 297.639,-62.96 L 297.92,-63.3919 L 298.244,-63.7921 L 298.608,-64.1563 L 299.008,-64.4804
 L 299.35,-64.7024 L 299.35,-74 L 299.406,-74.5302 L 299.57,-75.0372 L 299.837,-75.4988 L 300.194,-75.895
 L 300.625,-76.2084 L 301.112,-76.4252 L 301.633,-76.536 L 302.167,-76.536 L 302.688,-76.4252 L 303.175,-76.2084
 L 303.606,-75.895 L 303.963,-75.4988 L 304.23,-75.0372 L 304.394,-74.5302 L 304.45,-74 L 304.45,-64.7024
 L 304.792,-64.4804 L 305.192,-64.1563 L 305.556,-63.7921 L 305.88,-63.3919 L 306.161,-62.96 L 306.395,-62.5011
 L 306.579,-62.0204 L 306.712,-61.5229 L 306.793,-61.0143 L 306.82,-60.5 L 306.793,-59.9857 L 306.712,-59.4771
 L 306.579,-58.9796 L 306.395,-58.4989 L 306.161,-58.04 L 305.88,-57.6081 L 305.556,-57.2079 L 305.192,-56.8437
 L 304.792,-56.5196 L 304.36,-56.2392 L 303.901,-56.0054 L 303.42,-55.8208 L 302.923,-55.6875 L 302.414,-55.607
 L 301.9,-55.58 z
M 448.586,-55.607 L 448.077,-55.6875 L 447.58,-55.8208 L 447.099,-56.0054 L 446.64,-56.2392 L 446.208,-56.5196
 L 445.808,-56.8437 L 445.444,-57.2079 L 445.12,-57.6081 L 444.839,-58.04 L 444.605,-58.4989 L 444.421,-58.9796
 L 444.288,-59.4771 L 444.207,-59.9857 L 444.18,-60.5 L 444.207,-61.0143 L 444.288,-61.5229 L 444.421,-62.0204
 L 444.605,-62.5011 L 444.839,-62.96 L 445.12,-63.3919 L 445.444,-63.7921 L 445.808,-64.1563 L 446.208,-64.4804
 L 446.55,-64.7024 L 446.55,-74 L 446.606,-74.5302 L 446.77,-75.0372 L 447.037,-75.4988 L 447.394,-75.895
 L 447.825,-76.2084 L 448.312,-76.4252 L 448.833,-76.536 L 449.367,-76.536 L 449.888,-76.4252 L 450.375,-76.2084
 L 450.806,-75.895 L 451.163,-75.4988 L 451.43,-75.0372 L 451.594,-74.5302 L 451.65,-74 L 451.65,-64.7024
 L 451.992,-64.4804 L 452.392,-64.1563 L 452.756,-63.7921 L 453.08,-63.3919 L 453.361,-62.96 L 453.595,-62.5011
 L 453.779,-62.0204 L 453.912,-61.5229 L 453.993,-61.0143 L 454.02,-60.5 L 453.993,-59.9857 L 453.912,-59.4771
 L 453.779,-58.9796 L 453.595,-58.4989 L 453.361,-58.04 L 453.08,-57.6081 L 452.756,-57.2079 L 452.392,-56.8437
 L 451.992,-56.5196 L 451.56,-56.2392 L 451.101,-56.0054 L 450.62,-55.8208 L 450.123,-55.6875 L 449.614,-55.607
 L 449.1,-55.58 z
M 595.786,-55.607 L 595.277,-55.6875 L 594.78,-55.8208 L 594.299,-56.0054 L 593.84,-56.2392 L 593.408,-56.5196
 L 593.008,-56.8437 L 592.644,-57.2079 L 592.32,-57.6081 L 592.039,-58.04 L 591.805,-58.4989 L 591.621,-58.9796
 L 591.488,-59.4771 L 591.407,-59.9857 L 591.38,-60.5 L 591.407,-61.0143 L 591.488,-61.5229 L 591.621,-62.0204
 L 591.805,-62.5011 L 592.039,-62.96 L 592.32,-63.3919 L 592.644,-63.7921 L 593.008,-64.1563 L 593.408,-64.4804
 L 593.75,-64.7024 L 593.75,-74 L 593.806,-74.5302 L 593.97,-75.0372 L 594.237,-75.4988 L 594.594,-75.895
 L 595.025,-76.2084 L 595.512,-76.4252 L 596.033,-76.536 L 596.567,-76.536 L 597.088,-76.4252 L 597.575,-76.2084
 L 598.006,-75.895 L 598.363,-75.4988 L 598.63,-75.0372 L 598.794,-74.5302 L 598.85,-74 L 598.85,-64.7024
 L 599.192,-64.4804 L 599.592,-64.1563 L 599.956,-63.7921 L 600.28,-63.3919 L 600.561,-62.96 L 600.795,-62.5011
 L 600.979,-62.0204 L 601.112,-61.5229 L 601.193,-61.0143 L 601.22,-60.5 L 601.193,-59.9857 L 601.112,-59.4771
 L 600.979,-58.9796 L 600.795,-58.4989 L 600.561,-58.04 L 600.28,-57.6081 L 599.956,-57.2079 L 599.592,-56.8437
 L 599.192,-56.5196 L 598.76,-56.2392 L 598.301,-56.0054 L 597.82,-55.8208 L 597.323,-55.6875 L 596.814,-55.607
 L 596.3,-55.58 z
M 742.986,-55.607 L 742.477,-55.6875 L 741.98,-55.8208 L 741.499,-56.0054 L 741.04,-56.2392 L 740.608,-56.5196
 L 740.208,-56.8437 L 739.844,-57.2079 L 739.52,-57.6081 L 739.239,-58.04 L 739.005,-58.4989 L 738.821,-58.9796
 L 738.688,-59.4771 L 738.607,-59.9857 L 738.58,-60.5 L 738.607,-61.0143 L 738.688,-61.5229 L 738.821,-62.0204
 L 739.005,-62.5011 L 739.239,-62.96 L 739.52,-63.3919 L 739.844,-63.7921 L 740.208,-64.1563 L 740.608,-64.4804
 L 740.95,-64.7024 L 740.95,-74 L 741.006,-74.5302 L 741.17,-75.0372 L 741.437,-75.4988 L 741.794,-75.895
 L 742.225,-76.2084 L 742.712,-76.4252 L 743.233,-76.536 L 743.767,-76.536 L 744.288,-76.4252 L 744.775,-76.2084
 L 745.206,-75.895 L 745.563,-75.4988 L 745.83,-75.0372 L 745.994,-74.5302 L 746.05,-74 L 746.05,-64.7024
 L 746.392,-64.4804 L 746.792,-64.1563 L 747.156,-63.7921 L 747.48,-63.3919 L 747.761,-62.96 L 747.995,-62.5011
 L 748.179,-62.0204 L 748.312,-61.5229 L 748.393,-61.0143 L 748.42,-60.5 L 748.393,-59.9857 L 748.312,-59.4771
 L 748.179,-58.9796 L 747.995,-58.4989 L 747.761,-58.04 L 747.48,-57.6081 L 747.156,-57.2079 L 746.792,-56.8437
 L 746.392,-56.5196 L 745.96,-56.2392 L 745.501,-56.0054 L 745.02,-55.8208 L 744.523,-55.6875 L 744.014,-55.607
 L 743.5,-55.58 z
M 374.614,-48.2152 L 373.823,-48.4846 L 361.085,-54.3687 L 360.411,-54.7639 L 359.79,-55.3235 L 359.298,-56
 L 358.958,-56.7639 L 358.784,-57.5819 L 358.784,-58.4181 L 358.958,-59.2361 L 359.298,-60 L 359.79,-60.6765
 L 360.411,-61.2361 L 361.136,-61.6542 L 361.931,-61.9126 L 362.762,-62 L 388.237,-62 L 389.015,-61.9238
 L 389.814,-61.6764 L 390.543,-61.2684 L 391.173,-60.7175 L 391.673,-60.0479 L 392.024,-59.2887 L 392.209,-58.4733
 L 392.221,-57.6371 L 392.058,-56.8168 L 391.729,-56.0482 L 391.247,-55.365 L 390.633,-54.7969 L 389.915,-54.3687
 L 377.177,-48.4846 L 376.277,-48.1921 L 375.444,-48.1162 z
M 288.014,-22.4235 L 287.223,-22.6929 L 218.654,-54.3687 L 217.98,-54.7639 L 217.359,-55.3235 L 216.867,-56
 L 216.527,-56.7639 L 216.353,-57.5819 L 216.353,-58.4181 L 216.527,-59.2361 L 216.867,-60 L 217.359,-60.6765
 L 217.98,-61.2361 L 218.704,-61.6542 L 219.499,-61.9126 L 220.331,-62 L 288.9,-62 L 290.136,-61.8042
 L 290.9,-61.4641 L 291.577,-60.9726 L 292.136,-60.3511 L 292.554,-59.627 L 292.813,-58.8316 L 292.9,-58
 L 292.9,-26.3241 L 292.872,-25.8509 L 292.687,-25.0354 L 292.336,-24.2763 L 291.835,-23.6066 L 291.206,-23.0558
 L 290.476,-22.6477 L 289.677,-22.4004 L 288.844,-22.3245 z
M 608.523,-22.4004 L 607.724,-22.6477 L 606.994,-23.0558 L 606.365,-23.6066 L 605.864,-24.2763 L 605.513,-25.0354
 L 605.328,-25.8509 L 605.3,-26.3241 L 605.3,-58 L 605.387,-58.8316 L 605.646,-59.627 L 606.064,-60.3511
 L 606.623,-60.9726 L 607.3,-61.4641 L 608.064,-61.8042 L 609.3,-62 L 677.869,-62 L 678.701,-61.9126
 L 679.496,-61.6542 L 680.22,-61.2361 L 680.841,-60.6765 L 681.333,-60 L 681.673,-59.2361 L 681.847,-58.4181
 L 681.847,-57.5819 L 681.673,-56.7639 L 681.333,-56 L 680.841,-55.3235 L 680.22,-54.7639 L 679.546,-54.3687
 L 610.977,-22.6929 L 610.186,-22.4235 L 609.355,-22.3245 z
M 140.814,-22.4235 L 140.023,-22.6929 L 71.4536,-54.3687 L 70.78,-54.7639 L 70.1585,-55.3235 L 69.667,-56
 L 69.3269,-56.7639 L 69.153,-57.5819 L 69.153,-58.4181 L 69.3269,-59.2361 L 69.667,-60 L 70.1585,-60.6765
 L 70.78,-61.2361 L 71.5041,-61.6542 L 72.2994,-61.9126 L 73.1311,-62 L 141.7,-62 L 142.936,-61.8042
 L 143.7,-61.4641 L 144.377,-60.9726 L 144.936,-60.3511 L 145.354,-59.627 L 145.613,-58.8316 L 145.7,-58
 L 145.7,-26.3241 L 145.672,-25.8509 L 145.487,-25.0354 L 145.136,-24.2763 L 144.635,-23.6066 L 144.006,-23.0558
 L 143.276,-22.6477 L 142.477,-22.4004 L 141.645,-22.3245 z
M 461.323,-22.4004 L 460.524,-22.6477 L 459.794,-23.0558 L 459.165,-23.6066 L 458.664,-24.2763 L 458.313,-25.0354
 L 458.128,-25.8509 L 458.1,-26.3241 L 458.1,-58 L 458.187,-58.8316 L 458.446,-59.627 L 458.864,-60.3511
 L 459.423,-60.9726 L 460.1,-61.4641 L 460.864,-61.8042 L 462.1,-62 L 530.669,-62 L 531.501,-61.9126
 L 532.296,-61.6542 L 533.02,-61.2361 L 533.641,-60.6765 L 534.133,-60 L 534.473,-59.2361 L 534.647,-58.4181
 L 534.647,-57.5819 L 534.473,-56.7639 L 534.133,-56 L 533.641,-55.3235 L 533.02,-54.7639 L 532.346,-54.3687
 L 463.777,-22.6929 L 462.986,-22.4235 L 462.155,-22.3245 z
M 314.482,-20.1432 L 313.664,-20.317 L 312.9,-20.6572 L 312.223,-21.1487 L 311.664,-21.7701 L 311.246,-22.4943
 L 310.987,-23.2896 L 310.9,-24.1213 L 310.9,-55.8787 L 310.928,-56.352 L 311.113,-57.1674 L 311.464,-57.9266
 L 311.965,-58.5962 L 312.594,-59.1471 L 313.324,-59.5551 L 314.123,-59.8025 L 314.955,-59.8783 L 315.786,-59.7794
 L 316.577,-59.51 L 350.95,-43.6313 L 351.579,-43.2684 L 352.208,-42.7175 L 352.709,-42.0479 L 353.059,-41.2887
 L 353.245,-40.4733 L 353.256,-39.6371 L 353.094,-38.8168 L 352.764,-38.0482 L 352.282,-37.365 L 351.669,-36.7969
 L 350.95,-36.3687 L 316.577,-20.49 L 316.136,-20.317 L 315.318,-20.1432 z
M 435.214,-20.2206 L 434.423,-20.49 L 400.05,-36.3687 L 399.421,-36.7316 L 398.792,-37.2825 L 398.291,-37.9521
 L 397.941,-38.7113 L 397.755,-39.5267 L 397.744,-40.3629 L 397.906,-41.1832 L 398.236,-41.9518 L 398.718,-42.635
 L 399.331,-43.2031 L 400.05,-43.6313 L 434.423,-59.51 L 434.864,-59.683 L 435.682,-59.8568 L 436.518,-59.8568
 L 437.336,-59.683 L 438.1,-59.3428 L 438.777,-58.8513 L 439.336,-58.2299 L 439.754,-57.5057 L 440.013,-56.7104
 L 440.1,-55.8787 L 440.1,-24.1213 L 440.072,-23.648 L 439.887,-22.8326 L 439.536,-22.0734 L 439.035,-21.4038
 L 438.406,-20.8529 L 437.676,-20.4449 L 436.877,-20.1975 L 436.044,-20.1217 z
M 167.7,-18 L 166.464,-18.1958 L 165.7,-18.5359 L 165.023,-19.0274 L 164.464,-19.6489 L 164.046,-20.373
 L 163.787,-21.1684 L 163.7,-22 L 163.7,-53.6758 L 163.728,-54.1491 L 163.913,-54.9646 L 164.264,-55.7237
 L 164.765,-56.3933 L 165.394,-56.9442 L 166.124,-57.3522 L 166.923,-57.5996 L 167.755,-57.6755 L 168.586,-57.5765
 L 169.377,-57.3071 L 237.946,-25.6313 L 238.62,-25.2361 L 239.241,-24.6765 L 239.733,-24 L 240.073,-23.2361
 L 240.247,-22.4181 L 240.247,-21.5819 L 240.073,-20.7639 L 239.733,-20 L 239.241,-19.3235 L 238.62,-18.7639
 L 237.896,-18.3458 L 237.101,-18.0874 L 236.269,-18 z
M 514.731,-18 L 513.899,-18.0874 L 513.104,-18.3458 L 512.38,-18.7639 L 511.759,-19.3235 L 511.267,-20
 L 510.927,-20.7639 L 510.753,-21.5819 L 510.753,-22.4181 L 510.927,-23.2361 L 511.267,-24 L 511.759,-24.6765
 L 512.38,-25.2361 L 513.054,-25.6313 L 581.622,-57.3071 L 582.414,-57.5765 L 583.244,-57.6755 L 584.077,-57.5996
 L 584.876,-57.3522 L 585.606,-56.9442 L 586.235,-56.3933 L 586.736,-55.7237 L 587.087,-54.9646 L 587.272,-54.1491
 L 587.3,-53.6758 L 587.3,-22 L 587.213,-21.1684 L 586.954,-20.373 L 586.536,-19.6489 L 585.977,-19.0274
 L 585.3,-18.5359 L 584.536,-18.1958 L 583.3,-18 z
M 22,-18 L 20.7639,-18.1958 L 20,-18.5359 L 19.3235,-19.0274 L 18.7639,-19.6489 L 18.3458,-20.373
 L 18.0874,-21.1684 L 18,-22 L 18,-52.9829 L 18.0281,-53.4562 L 18.2133,-54.2716 L 18.564,-55.0308
 L 19.0648,-55.7004 L 19.694,-56.2513 L 20.4239,-56.6593 L 21.2227,-56.9067 L 22.0555,-56.9825 L 22.8858,-56.8836
 L 23.6775,-56.6142 L 90.7464,-25.6313 L 91.42,-25.2361 L 92.0415,-24.6765 L 92.533,-24 L 92.8731,-23.2361
 L 93.047,-22.4181 L 93.047,-21.5819 L 92.8731,-20.7639 L 92.533,-20 L 92.0415,-19.3235 L 91.42,-18.7639
 L 90.6958,-18.3458 L 89.9005,-18.0874 L 89.0689,-18 z
M 661.931,-18 L 661.099,-18.0874 L 660.304,-18.3458 L 659.58,-18.7639 L 658.959,-19.3235 L 658.467,-20
 L 658.127,-20.7639 L 657.953,-21.5819 L 657.953,-22.4181 L 658.127,-23.2361 L 658.467,-24 L 658.959,-24.6765
 L 659.58,-25.2361 L 660.254,-25.6313 L 727.323,-56.6142 L 728.114,-56.8836 L 728.945,-56.9825 L 729.777,-56.9067
 L 730.576,-56.6593 L 731.306,-56.2513 L 731.935,-55.7004 L 732.436,-55.0308 L 732.787,-54.2716 L 732.972,-53.4562
 L 733,-52.9829 L 733,-22 L 732.913,-21.1684 L 732.654,-20.373 L 732.236,-19.6489 L 731.677,-19.0274
 L 731,-18.5359 L 730.236,-18.1958 L 729,-18 z
M 362.762,-18 L 361.985,-18.0762 L 361.186,-18.3236 L 360.456,-18.7316 L 359.827,-19.2825 L 359.326,-19.9521
 L 358.976,-20.7113 L 358.791,-21.5267 L 358.779,-22.3629 L 358.941,-23.1832 L 359.271,-23.9518 L 359.753,-24.635
 L 360.367,-25.2031 L 361.085,-25.6313 L 373.823,-31.5154 L 374.723,-31.8079 L 375.555,-31.8838 L 376.386,-31.7848
 L 377.177,-31.5154 L 389.915,-25.6313 L 390.589,-25.2361 L 391.21,-24.6765 L 391.702,-24 L 392.042,-23.2361
 L 392.216,-22.4181 L 392.216,-21.5819 L 392.042,-20.7639 L 391.702,-20 L 391.21,-19.3235 L 390.589,-18.7639
 L 389.864,-18.3458 L 389.069,-18.0874 L 388.237,-18 z
" stroke="black" fill="lightgray" stroke-width="0.5"/>
</svg>
