<?xml version="1.0" standalone="no"?>
<!DOCTYPE svg PUBLIC "-//W3C//DTD SVG 1.1//EN" "http://www.w3.org/Graphics/SVG/1.1/DTD/svg11.dtd">
<svg width="493mm" height="80mm" viewBox="0 -80 493 80" xmlns="http://www.w3.org/2000/svg" version="1.1">
<title>OpenSCAD Model</title>
<path d="
M 493,-80 L 0,-80 L 0,-0 L 4.95,-0 L 4.95,-6 L 5.00572,-6.53017
 L 5.17046,-7.03717 L 5.437,-7.49884 L 5.79372,-7.895 L 6.22499,-8.20836 L 6.71201,-8.42519 L 7.23344,-8.53603
 L 7.76654,-8.53603 L 8.28798,-8.42519 L 8.77499,-8.20836 L 9.20627,-7.895 L 9.56299,-7.49884 L 9.82953,-7.03717
 L 9.99426,-6.53017 L 10.05,-6 L 10.05,-0 L 124.45,-0 L 124.45,-6 L 124.506,-6.53017
 L 124.67,-7.03717 L 124.937,-7.49884 L 125.294,-7.895 L 125.725,-8.20836 L 126.212,-8.42519 L 126.733,-8.53603
 L 127.267,-8.53603 L 127.788,-8.42519 L 128.275,-8.20836 L 128.706,-7.895 L 129.063,-7.49884 L 129.33,-7.03717
 L 129.494,-6.53017 L 129.55,-6 L 129.55,-0 L 243.95,-0 L 243.95,-6 L 244.006,-6.53017
 L 244.17,-7.03717 L 244.437,-7.49884 L 244.794,-7.895 L 245.225,-8.20836 L 245.712,-8.42519 L 246.233,-8.53603
 L 246.767,-8.53603 L 247.288,-8.42519 L 247.775,-8.20836 L 248.206,-7.895 L 248.563,-7.49884 L 248.83,-7.03717
 L 248.994,-6.53017 L 249.05,-6 L 249.05,-0 L 363.45,-0 L 363.45,-6 L 363.506,-6.53017
 L 363.67,-7.03717 L 363.937,-7.49884 L 364.294,-7.895 L 364.725,-8.20836 L 365.212,-8.42519 L 365.733,-8.53603
 L 366.267,-8.53603 L 366.788,-8.42519 L 367.275,-8.20836 L 367.706,-7.895 L 368.063,-7.49884 L 368.33,-7.03717
 L 368.494,-6.53017 L 368.55,-6 L 368.55,-0 L 482.95,-0 L 482.95,-6 L 483.006,-6.53017
 L 483.17,-7.03717 L 483.437,-7.49884 L 483.794,-7.895 L 484.225,-8.20836 L 484.712,-8.42519 L 485.233,-8.53603
 L 485.767,-8.53603 L 486.288,-8.42519 L 486.775,-8.20836 L 487.206,-7.895 L 487.563,-7.49884 L 487.83,-7.03717
 L 487.994,-6.53017 L 488.05,-6 L 488.05,-0 L 493,-0 z
M 6.98573,-55.607 L 6.47708,-55.6875 L 5.97964,-55.8208 L 5.49887,-56.0054 L 5.04001,-56.2392 L 4.60811,-56.5196
 L 4.20789,-56.8437 L 3.84373,-57.2079 L 3.51964,-57.6081 L 3.23917,-58.04 L 3.00537,-58.4989 L 2.82082,-58.9796
 L 2.68752,-59.4771 L 2.60696,-59.9857 L 2.58,-60.5 L 2.60696,-61.0143 L 2.68752,-61.5229 L 2.82082,-62.0204
 L 3.00537,-62.5011 L 3.23917,-62.96 L 3.51964,-63.3919 L 3.84373,-63.7921 L 4.20789,-64.1563 L 4.60811,-64.4804
 L 4.95001,-64.7024 L 4.95001,-74 L 5.00574,-74.5302 L 5.17047,-75.0372 L 5.43701,-75.4988 L 5.79373,-75.895
 L 6.22501,-76.2084 L 6.71202,-76.4252 L 7.23346,-76.536 L 7.76654,-76.536 L 8.28798,-76.4252 L 8.77499,-76.2084
 L 9.20627,-75.895 L 9.56299,-75.4988 L 9.82953,-75.0372 L 9.99426,-74.5302 L 10.05,-74 L 10.05,-64.7024
 L 10.3919,-64.4804 L 10.7921,-64.1563 L 11.1563,-63.7921 L 11.4804,-63.3919 L 11.7608,-62.96 L 11.9946,-62.5011
 L 12.1792,-62.0204 L 12.3125,-61.5229 L 12.393,-61.0143 L 12.42,-60.5 L 12.393,-59.9857 L 12.3125,-59.4771
 L 12.1792,-58.9796 L 11.9946,-58.4989 L 11.7608,-58.04 L 11.4804,-57.6081 L 11.1563,-57.2079 L 10.7921,-56.8437
 L 10.3919,-56.5196 L 9.95999,-56.2392 L 9.50113,-56.0054 L 9.02036,-55.8208 L 8.52292,-55.6875 L 8.01427,-55.607
 L 7.5,-55.58 z
M 126.486,-55.607 L 125.977,-55.6875 L 125.48,-55.8208 L 124.999,-56.0054 L 124.54,-56.2392 L 124.108,-56.5196
 L 123.708,-56.8437 L 123.344,-57.2079 L 123.02,-57.6081 L 122.739,-58.04 L 122.505,-58.4989 L 122.321,-58.9796
 L 122.188,-59.4771 L 122.107,-59.9857 L 122.08,-60.5 L 122.107,-61.0143 L 122.188,-61.5229 L 122.321,-62.0204
 L 122.505,-62.5011 L 122.739,-62.96 L 123.02,-63.3919 L 123.344,-63.7921 L 123.708,-64.1563 L 124.108,-64.4804
 L 124.45,-64.7024 L 124.45,-74 L 124.506,-74.5302 L 124.67,-75.0372 L 124.937,-75.4988 L 125.294,-75.895
 L 125.725,-76.2084 L 126.212,-76.4252 L 126.733,-76.536 L 127.267,-76.536 L 127.788,-76.4252 L 128.275,-76.2084
 L 128.706,-75.895 L 129.063,-75.4988 L 129.33,-75.0372 L 129.494,-74.5302 L 129.55,-74 L 129.55,-64.7024
 L 129.892,-64.4804 L 130.292,-64.1563 L 130.656,-63.7921 L 130.98,-63.3919 L 131.261,-62.96 L 131.495,-62.5011
 L 131.679,-62.0204 L 131.812,-61.5229 L 131.893,-61.0143 L 131.92,-60.5 L 131.893,-59.9857 L 131.812,-59.4771
 L 131.679,-58.9796 L 131.495,-58.4989 L 131.261,-58.04 L 130.98,-57.6081 L 130.656,-57.2079 L 130.292,-56.8437
 L 129.892,-56.5196 L 129.46,-56.2392 L 129.001,-56.0054 L 128.52,-55.8208 L 128.023,-55.6875 L 127.514,-55.607
 L 127,-55.58 z
M 245.986,-55.607 L 245.477,-55.6875 L 244.98,-55.8208 L 244.499,-56.0054 L 244.04,-56.2392 L 243.608,-56.5196
 L 243.208,-56.8437 L 242.844,-57.2079 L 242.52,-57.6081 L 242.239,-58.04 L 242.005,-58.4989 L 241.821,-58.9796
 L 241.688,-59.4771 L 241.607,-59.9857 L 241.58,-60.5 L 241.607,-61.0143 L 241.688,-61.5229 L 241.821,-62.0204
 L 242.005,-62.5011 L 242.239,-62.96 L 242.52,-63.3919 L 242.844,-63.7921 L 243.208,-64.1563 L 243.608,-64.4804
 L 243.95,-64.7024 L 243.95,-74 L 244.006,-74.5302 L 244.17,-75.0372 L 244.437,-75.4988 L 244.794,-75.895
 L 245.225,-76.2084 L 245.712,-76.4252 L 246.233,-76.536 L 246.767,-76.536 L 247.288,-76.4252 L 247.775,-76.2084
 L 248.206,-75.895 L 248.563,-75.4988 L 248.83,-75.0372 L 248.994,-74.5302 L 249.05,-74 L 249.05,-64.7024
 L 249.392,-64.4804 L 249.792,-64.1563 L 250.156,-63.7921 L 250.48,-63.3919 L 250.761,-62.96 L 250.995,-62.5011
 L 251.179,-62.0204 L 251.312,-61.5229 L 251.393,-61.0143 L 251.42,-60.5 L 251.393,-59.9857 L 251.312,-59.4771
 L 251.179,-58.9796 L 250.995,-58.4989 L 250.761,-58.04 L 250.48,-57.6081 L 250.156,-57.2079 L 249.792,-56.8437
 L 249.392,-56.5196 L 248.96,-56.2392 L 248.501,-56.0054 L 248.02,-55.8208 L 247.523,-55.6875 L 247.014,-55.607
 L 246.5,-55.58 z
M 365.486,-55.607 L 364.977,-55.6875 L 364.48,-55.8208 L 363.999,-56.0054 L 363.54,-56.2392 L 363.108,-56.5196
 L 362.708,-56.8437 L 362.344,-57.2079 L 362.02,-57.6081 L 361.739,-58.04 L 361.505,-58.4989 L 361.321,-58.9796
 L 361.188,-59.4771 L 361.107,-59.9857 L 361.08,-60.5 L 361.107,-61.0143 L 361.188,-61.5229 L 361.321,-62.0204
 L 361.505,-62.5011 L 361.739,-62.96 L 362.02,-63.3919 L 362.344,-63.7921 L 362.708,-64.1563 L 363.108,-64.4804
 L 363.45,-64.7024 L 363.45,-74 L 363.506,-74.5302 L 363.67,-75.0372 L 363.937,-75.4988 L 364.294,-75.895
 L 364.725,-76.2084 L 365.212,-76.4252 L 365.733,-76.536 L 366.267,-76.536 L 366.788,-76.4252 L 367.275,-76.2084
 L 367.706,-75.895 L 368.063,-75.4988 L 368.33,-75.0372 L 368.494,-74.5302 L 368.55,-74 L 368.55,-64.7024
 L 368.892,-64.4804 L 369.292,-64.1563 L 369.656,-63.7921 L 369.98,-63.3919 L 370.261,-62.96 L 370.495,-62.5011
 L 370.679,-62.0204 L 370.812,-61.5229 L 370.893,-61.0143 L 370.92,-60.5 L 370.893,-59.9857 L 370.812,-59.4771
 L 370.679,-58.9796 L 370.495,-58.4989 L 370.261,-58.04 L 369.98,-57.6081 L 369.656,-57.2079 L 369.292,-56.8437
 L 368.892,-56.5196 L 368.46,-56.2392 L 368.001,-56.0054 L 367.52,-55.8208 L 367.023,-55.6875 L 366.514,-55.607
 L 366,-55.58 z
M 484.986,-55.607 L 484.477,-55.6875 L 483.98,-55.8208 L 483.499,-56.0054 L 483.04,-56.2392 L 482.608,-56.5196
 L 482.208,-56.8437 L 481.844,-57.2079 L 481.52,-57.6081 L 481.239,-58.04 L 481.005,-58.4989 L 480.821,-58.9796
 L 480.688,-59.4771 L 480.607,-59.9857 L 480.58,-60.5 L 480.607,-61.0143 L 480.688,-61.5229 L 480.821,-62.0204
 L 481.005,-62.5011 L 481.239,-62.96 L 481.52,-63.3919 L 481.844,-63.7921 L 482.208,-64.1563 L 482.608,-64.4804
 L 482.95,-64.7024 L 482.95,-74 L 483.006,-74.5302 L 483.17,-75.0372 L 483.437,-75.4988 L 483.794,-75.895
 L 484.225,-76.2084 L 484.712,-76.4252 L 485.233,-76.536 L 485.767,-76.536 L 486.288,-76.4252 L 486.775,-76.2084
 L 487.206,-75.895 L 487.563,-75.4988 L 487.83,-75.0372 L 487.994,-74.5302 L 488.05,-74 L 488.05,-64.7024
 L 488.392,-64.4804 L 488.792,-64.1563 L 489.156,-63.7921 L 489.48,-63.3919 L 489.761,-62.96 L 489.995,-62.5011
 L 490.179,-62.0204 L 490.312,-61.5229 L 490.393,-61.0143 L 490.42,-60.5 L 490.393,-59.9857 L 490.312,-59.4771
 L 490.179,-58.9796 L 489.995,-58.4989 L 489.761,-58.04 L 489.48,-57.6081 L 489.156,-57.2079 L 488.792,-56.8437
 L 488.392,-56.5196 L 487.96,-56.2392 L 487.501,-56.0054 L 487.02,-55.8208 L 486.523,-55.6875 L 486.014,-55.607
 L 485.5,-55.58 z
M 259.057,-24.3792 L 258.24,-24.5581 L 257.478,-24.903 L 256.805,-25.3988 L 256.249,-26.0237 L 255.836,-26.7505
 L 255.582,-27.5474 L 255.5,-28.3546 L 255.5,-58 L 255.587,-58.8316 L 255.846,-59.627 L 256.264,-60.3511
 L 256.823,-60.9726 L 257.5,-61.4641 L 258.264,-61.8042 L 259.5,-62 L 311.598,-62 L 312.429,-61.9126
 L 313.224,-61.6542 L 313.949,-61.2361 L 314.57,-60.6765 L 315.062,-60 L 315.402,-59.2361 L 315.576,-58.4181
 L 315.576,-57.5819 L 315.402,-56.7639 L 315.062,-56 L 314.57,-55.3235 L 313.949,-54.7639 L 313.576,-54.5235
 L 261.478,-24.878 L 260.712,-24.5427 L 259.893,-24.3739 z
M 232.288,-24.5427 L 231.522,-24.878 L 179.424,-54.5235 L 179.051,-54.7639 L 178.43,-55.3235 L 177.938,-56
 L 177.598,-56.7639 L 177.424,-57.5819 L 177.424,-58.4181 L 177.598,-59.2361 L 177.938,-60 L 178.43,-60.6765
 L 179.051,-61.2361 L 179.776,-61.6542 L 180.571,-61.9126 L 181.402,-62 L 233.5,-62 L 234.736,-61.8042
 L 235.5,-61.4641 L 236.177,-60.9726 L 236.736,-60.3511 L 237.154,-59.627 L 237.413,-58.8316 L 237.5,-58
 L 237.5,-28.3546 L 237.418,-27.5474 L 237.164,-26.7505 L 236.751,-26.0237 L 236.195,-25.3988 L 235.522,-24.903
 L 234.76,-24.5581 L 233.943,-24.3792 L 233.107,-24.3739 z
M 378.557,-24.3792 L 377.74,-24.5581 L 376.978,-24.903 L 376.305,-25.3988 L 375.749,-26.0237 L 375.336,-26.7505
 L 375.082,-27.5474 L 375,-28.3546 L 375,-58 L 375.087,-58.8316 L 375.346,-59.627 L 375.764,-60.3511
 L 376.323,-60.9726 L 377,-61.4641 L 377.764,-61.8042 L 379,-62 L 431.098,-62 L 431.929,-61.9126
 L 432.724,-61.6542 L 433.449,-61.2361 L 434.07,-60.6765 L 434.562,-60 L 434.902,-59.2361 L 435.076,-58.4181
 L 435.076,-57.5819 L 434.902,-56.7639 L 434.562,-56 L 434.07,-55.3235 L 433.449,-54.7639 L 433.076,-54.5235
 L 380.978,-24.878 L 380.212,-24.5427 L 379.393,-24.3739 z
M 112.788,-24.5427 L 112.022,-24.878 L 59.9242,-54.5235 L 59.5513,-54.7639 L 58.9299,-55.3235 L 58.4384,-56
 L 58.0983,-56.7639 L 57.9244,-57.5819 L 57.9244,-58.4181 L 58.0983,-59.2361 L 58.4384,-60 L 58.9299,-60.6765
 L 59.5513,-61.2361 L 60.2755,-61.6542 L 61.0708,-61.9126 L 61.9025,-62 L 114,-62 L 115.236,-61.8042
 L 116,-61.4641 L 116.677,-60.9726 L 117.236,-60.3511 L 117.654,-59.627 L 117.913,-58.8316 L 118,-58
 L 118,-28.3546 L 117.918,-27.5474 L 117.664,-26.7505 L 117.251,-26.0237 L 116.695,-25.3988 L 116.022,-24.903
 L 115.26,-24.5581 L 114.443,-24.3792 L 113.607,-24.3739 z
M 300.902,-18 L 300.071,-18.0874 L 299.276,-18.3458 L 298.551,-18.7639 L 297.93,-19.3235 L 297.438,-20
 L 297.098,-20.7639 L 296.924,-21.5819 L 296.924,-22.4181 L 297.098,-23.2361 L 297.438,-24 L 297.93,-24.6765
 L 298.551,-25.2361 L 298.924,-25.4765 L 351.022,-55.122 L 351.788,-55.4573 L 352.607,-55.6261 L 353.443,-55.6208
 L 354.26,-55.4418 L 355.022,-55.097 L 355.695,-54.6012 L 356.251,-53.9763 L 356.664,-53.2495 L 356.918,-52.4526
 L 357,-51.6454 L 357,-22 L 356.913,-21.1684 L 356.654,-20.373 L 356.236,-19.6489 L 355.677,-19.0274
 L 355,-18.5359 L 354.236,-18.1958 L 353,-18 z
M 140,-18 L 138.764,-18.1958 L 138,-18.5359 L 137.323,-19.0274 L 136.764,-19.6489 L 136.346,-20.373
 L 136.087,-21.1684 L 136,-22 L 136,-51.6454 L 136.082,-52.4526 L 136.336,-53.2495 L 136.749,-53.9763
 L 137.305,-54.6012 L 137.978,-55.097 L 138.74,-55.4418 L 139.557,-55.6208 L 140.393,-55.6261 L 141.212,-55.4573
 L 141.978,-55.122 L 194.076,-25.4765 L 194.449,-25.2361 L 195.07,-24.6765 L 195.562,-24 L 195.902,-23.2361
 L 196.076,-22.4181 L 196.076,-21.5819 L 195.902,-20.7639 L 195.562,-20 L 195.07,-19.3235 L 194.449,-18.7639
 L 193.724,-18.3458 L 192.929,-18.0874 L 192.098,-18 z
M 22,-18 L 20.7639,-18.1958 L 20,-18.5359 L 19.3235,-19.0274 L 18.7639,-19.6489 L 18.3458,-20.373
 L 18.0874,-21.1684 L 18,-22 L 18,-50.7919 L 18.0823,-51.599 L 18.3357,-52.3959 L 18.7493,-53.1227
 L 19.3049,-53.7477 L 19.9784,-54.2434 L 20.7402,-54.5883 L 21.557,-54.7673 L 22.3932,-54.7725 L 23.2122,-54.6038
 L 23.9783,-54.2684 L 74.5758,-25.4765 L 74.9486,-25.2361 L 75.5701,-24.6765 L 76.0616,-24 L 76.4017,-23.2361
 L 76.5756,-22.4181 L 76.5756,-21.5819 L 76.4017,-20.7639 L 76.0616,-20 L 75.5701,-19.3235 L 74.9486,-18.7639
 L 74.2245,-18.3458 L 73.4292,-18.0874 L 72.5975,-18 z
M 420.402,-18 L 419.571,-18.0874 L 418.776,-18.3458 L 418.051,-18.7639 L 417.43,-19.3235 L 416.938,-20
 L 416.598,-20.7639 L 416.424,-21.5819 L 416.424,-22.4181 L 416.598,-23.2361 L 416.938,-24 L 417.43,-24.6765
 L 418.051,-25.2361 L 418.424,-25.4765 L 469.022,-54.2684 L 469.788,-54.6038 L 470.607,-54.7725 L 471.443,-54.7673
 L 472.26,-54.5883 L 473.022,-54.2434 L 473.695,-53.7477 L 474.251,-53.1227 L 474.664,-52.3959 L 474.918,-51.599
 L 475,-50.7919 L 475,-22 L 474.913,-21.1684 L 474.654,-20.373 L 474.236,-19.6489 L 473.677,-19.0274
 L 473,-18.5359 L 472.236,-18.1958 L 471,-18 z
" stroke="black" fill="lightgray" stroke-width="0.5"/>
</svg>
