<?xml version="1.0" standalone="no"?>
<!DOCTYPE svg PUBLIC "-//W3C//DTD SVG 1.1//EN" "http://www.w3.org/Graphics/SVG/1.1/DTD/svg11.dtd">
<svg width="686mm" height="80mm" viewBox="0 -80 686 80" xmlns="http://www.w3.org/2000/svg" version="1.1">
<title>OpenSCAD Model</title>
<path d="
M 686,-80 L 0,-80 L 0,-0 L 4.95,-0 L 4.95,-6 L 5.00572,-6.53017
 L 5.17046,-7.03717 L 5.437,-7.49884 L 5.79372,-7.895 L 6.22499,-8.20836 L 6.71201,-8.42519 L 7.23344,-8.53603
 L 7.76654,-8.53603 L 8.28798,-8.42519 L 8.77499,-8.20836 L 9.20627,-7.895 L 9.56299,-7.49884 L 9.82953,-7.03717
 L 9.99426,-6.53017 L 10.05,-6 L 10.05,-0 L 139.15,-0 L 139.15,-6 L 139.206,-6.53017
 L 139.37,-7.03717 L 139.637,-7.49884 L 139.994,-7.895 L 140.425,-8.20836 L 140.912,-8.42519 L 141.433,-8.53603
 L 141.967,-8.53603 L 142.488,-8.42519 L 142.975,-8.20836 L 143.406,-7.895 L 143.763,-7.49884 L 144.03,-7.03717
 L 144.194,-6.53017 L 144.25,-6 L 144.25,-0 L 273.35,-0 L 273.35,-6 L 273.406,-6.53017
 L 273.57,-7.03717 L 273.837,-7.49884 L 274.194,-7.895 L 274.625,-8.20836 L 275.112,-8.42519 L 275.633,-8.53603
 L 276.167,-8.53603 L 276.688,-8.42519 L 277.175,-8.20836 L 277.606,-7.895 L 277.963,-7.49884 L 278.23,-7.03717
 L 278.394,-6.53017 L 278.45,-6 L 278.45,-0 L 407.55,-0 L 407.55,-6 L 407.606,-6.53017
 L 407.77,-7.03717 L 408.037,-7.49884 L 408.394,-7.895 L 408.825,-8.20836 L 409.312,-8.42519 L 409.833,-8.53603
 L 410.367,-8.53603 L 410.888,-8.42519 L 411.375,-8.20836 L 411.806,-7.895 L 412.163,-7.49884 L 412.43,-7.03717
 L 412.594,-6.53017 L 412.65,-6 L 412.65,-0 L 541.75,-0 L 541.75,-6 L 541.806,-6.53017
 L 541.97,-7.03717 L 542.237,-7.49884 L 542.594,-7.895 L 543.025,-8.20836 L 543.512,-8.42519 L 544.033,-8.53603
 L 544.567,-8.53603 L 545.088,-8.42519 L 545.575,-8.20836 L 546.006,-7.895 L 546.363,-7.49884 L 546.63,-7.03717
 L 546.794,-6.53017 L 546.85,-6 L 546.85,-0 L 675.95,-0 L 675.95,-6 L 676.006,-6.53017
 L 676.17,-7.03717 L 676.437,-7.49884 L 676.794,-7.895 L 677.225,-8.20836 L 677.712,-8.42519 L 678.233,-8.53603
 L 678.767,-8.53603 L 679.288,-8.42519 L 679.775,-8.20836 L 680.206,-7.895 L 680.563,-7.49884 L 680.83,-7.03717
 L 680.994,-6.53017 L 681.05,-6 L 681.05,-0 L 686,-0 z
M 6.98573,-55.607 L 6.47708,-55.6875 L 5.97964,-55.8208 L 5.49887,-56.0054 L 5.04001,-56.2392 L 4.60811,-56.5196
 L 4.20789,-56.8437 L 3.84373,-57.2079 L 3.51964,-57.6081 L 3.23917,-58.04 L 3.00537,-58.4989 L 2.82082,-58.9796
 L 2.68752,-59.4771 L 2.60696,-59.9857 L 2.58,-60.5 L 2.60696,-61.0143 L 2.68752,-61.5229 L 2.82082,-62.0204
 L 3.00537,-62.5011 L 3.23917,-62.96 L 3.51964,-63.3919 L 3.84373,-63.7921 L 4.20789,-64.1563 L 4.60811,-64.4804
 L 4.95001,-64.7024 L 4.95001,-74 L 5.00574,-74.5302 L 5.17047,-75.0372 L 5.43701,-75.4988 L 5.79373,-75.895
 L 6.22501,-76.2084 L 6.71202,-76.4252 L 7.23346,-76.536 L 7.76654,-76.536 L 8.28798,-76.4252 L 8.77499,-76.2084
 L 9.20627,-75.895 L 9.56299,-75.4988 L 9.82953,-75.0372 L 9.99426,-74.5302 L 10.05,-74 L 10.05,-64.7024
 L 10.3919,-64.4804 L 10.7921,-64.1563 L 11.1563,-63.7921 L 11.4804,-63.3919 L 11.7608,-62.96 L 11.9946,-62.5011
 L 12.1792,-62.0204 L 12.3125,-61.5229 L 12.393,-61.0143 L 12.42,-60.5 L 12.393,-59.9857 L 12.3125,-59.4771
 L 12.1792,-58.9796 L 11.9946,-58.4989 L 11.7608,-58.04 L 11.4804,-57.6081 L 11.1563,-57.2079 L 10.7921,-56.8437
 L 10.3919,-56.5196 L 9.95999,-56.2392 L 9.50113,-56.0054 L 9.02036,-55.8208 L 8.52292,-55.6875 L 8.01427,-55.607
 L 7.5,-55.58 z
M 141.186,-55.607 L 140.677,-55.6875 L 140.18,-55.8208 L 139.699,-56.0054 L 139.24,-56.2392 L 138.808,-56.5196
 L 138.408,-56.8437 L 138.044,-57.2079 L 137.72,-57.6081 L 137.439,-58.04 L 137.205,-58.4989 L 137.021,-58.9796
 L 136.888,-59.4771 L 136.807,-59.9857 L 136.78,-60.5 L 136.807,-61.0143 L 136.888,-61.5229 L 137.021,-62.0204
 L 137.205,-62.5011 L 137.439,-62.96 L 137.72,-63.3919 L 138.044,-63.7921 L 138.408,-64.1563 L 138.808,-64.4804
 L 139.15,-64.7024 L 139.15,-74 L 139.206,-74.5302 L 139.37,-75.0372 L 139.637,-75.4988 L 139.994,-75.895
 L 140.425,-76.2084 L 140.912,-76.4252 L 141.433,-76.536 L 141.967,-76.536 L 142.488,-76.4252 L 142.975,-76.2084
 L 143.406,-75.895 L 143.763,-75.4988 L 144.03,-75.0372 L 144.194,-74.5302 L 144.25,-74 L 144.25,-64.7024
 L 144.592,-64.4804 L 144.992,-64.1563 L 145.356,-63.7921 L 145.68,-63.3919 L 145.961,-62.96 L 146.195,-62.5011
 L 146.379,-62.0204 L 146.512,-61.5229 L 146.593,-61.0143 L 146.62,-60.5 L 146.593,-59.9857 L 146.512,-59.4771
 L 146.379,-58.9796 L 146.195,-58.4989 L 145.961,-58.04 L 145.68,-57.6081 L 145.356,-57.2079 L 144.992,-56.8437
 L 144.592,-56.5196 L 144.16,-56.2392 L 143.701,-56.0054 L 143.22,-55.8208 L 142.723,-55.6875 L 142.214,-55.607
 L 141.7,-55.58 z
M 275.386,-55.607 L 274.877,-55.6875 L 274.38,-55.8208 L 273.899,-56.0054 L 273.44,-56.2392 L 273.008,-56.5196
 L 272.608,-56.8437 L 272.244,-57.2079 L 271.92,-57.6081 L 271.639,-58.04 L 271.405,-58.4989 L 271.221,-58.9796
 L 271.088,-59.4771 L 271.007,-59.9857 L 270.98,-60.5 L 271.007,-61.0143 L 271.088,-61.5229 L 271.221,-62.0204
 L 271.405,-62.5011 L 271.639,-62.96 L 271.92,-63.3919 L 272.244,-63.7921 L 272.608,-64.1563 L 273.008,-64.4804
 L 273.35,-64.7024 L 273.35,-74 L 273.406,-74.5302 L 273.57,-75.0372 L 273.837,-75.4988 L 274.194,-75.895
 L 274.625,-76.2084 L 275.112,-76.4252 L 275.633,-76.536 L 276.167,-76.536 L 276.688,-76.4252 L 277.175,-76.2084
 L 277.606,-75.895 L 277.963,-75.4988 L 278.23,-75.0372 L 278.394,-74.5302 L 278.45,-74 L 278.45,-64.7024
 L 278.792,-64.4804 L 279.192,-64.1563 L 279.556,-63.7921 L 279.88,-63.3919 L 280.161,-62.96 L 280.395,-62.5011
 L 280.579,-62.0204 L 280.712,-61.5229 L 280.793,-61.0143 L 280.82,-60.5 L 280.793,-59.9857 L 280.712,-59.4771
 L 280.579,-58.9796 L 280.395,-58.4989 L 280.161,-58.04 L 279.88,-57.6081 L 279.556,-57.2079 L 279.192,-56.8437
 L 278.792,-56.5196 L 278.36,-56.2392 L 277.901,-56.0054 L 277.42,-55.8208 L 276.923,-55.6875 L 276.414,-55.607
 L 275.9,-55.58 z
M 409.586,-55.607 L 409.077,-55.6875 L 408.58,-55.8208 L 408.099,-56.0054 L 407.64,-56.2392 L 407.208,-56.5196
 L 406.808,-56.8437 L 406.444,-57.2079 L 406.12,-57.6081 L 405.839,-58.04 L 405.605,-58.4989 L 405.421,-58.9796
 L 405.288,-59.4771 L 405.207,-59.9857 L 405.18,-60.5 L 405.207,-61.0143 L 405.288,-61.5229 L 405.421,-62.0204
 L 405.605,-62.5011 L 405.839,-62.96 L 406.12,-63.3919 L 406.444,-63.7921 L 406.808,-64.1563 L 407.208,-64.4804
 L 407.55,-64.7024 L 407.55,-74 L 407.606,-74.5302 L 407.77,-75.0372 L 408.037,-75.4988 L 408.394,-75.895
 L 408.825,-76.2084 L 409.312,-76.4252 L 409.833,-76.536 L 410.367,-76.536 L 410.888,-76.4252 L 411.375,-76.2084
 L 411.806,-75.895 L 412.163,-75.4988 L 412.43,-75.0372 L 412.594,-74.5302 L 412.65,-74 L 412.65,-64.7024
 L 412.992,-64.4804 L 413.392,-64.1563 L 413.756,-63.7921 L 414.08,-63.3919 L 414.361,-62.96 L 414.595,-62.5011
 L 414.779,-62.0204 L 414.912,-61.5229 L 414.993,-61.0143 L 415.02,-60.5 L 414.993,-59.9857 L 414.912,-59.4771
 L 414.779,-58.9796 L 414.595,-58.4989 L 414.361,-58.04 L 414.08,-57.6081 L 413.756,-57.2079 L 413.392,-56.8437
 L 412.992,-56.5196 L 412.56,-56.2392 L 412.101,-56.0054 L 411.62,-55.8208 L 411.123,-55.6875 L 410.614,-55.607
 L 410.1,-55.58 z
M 543.786,-55.607 L 543.277,-55.6875 L 542.78,-55.8208 L 542.299,-56.0054 L 541.84,-56.2392 L 541.408,-56.5196
 L 541.008,-56.8437 L 540.644,-57.2079 L 540.32,-57.6081 L 540.039,-58.04 L 539.805,-58.4989 L 539.621,-58.9796
 L 539.488,-59.4771 L 539.407,-59.9857 L 539.38,-60.5 L 539.407,-61.0143 L 539.488,-61.5229 L 539.621,-62.0204
 L 539.805,-62.5011 L 540.039,-62.96 L 540.32,-63.3919 L 540.644,-63.7921 L 541.008,-64.1563 L 541.408,-64.4804
 L 541.75,-64.7024 L 541.75,-74 L 541.806,-74.5302 L 541.97,-75.0372 L 542.237,-75.4988 L 542.594,-75.895
 L 543.025,-76.2084 L 543.512,-76.4252 L 544.033,-76.536 L 544.567,-76.536 L 545.088,-76.4252 L 545.575,-76.2084
 L 546.006,-75.895 L 546.363,-75.4988 L 546.63,-75.0372 L 546.794,-74.5302 L 546.85,-74 L 546.85,-64.7024
 L 547.192,-64.4804 L 547.592,-64.1563 L 547.956,-63.7921 L 548.28,-63.3919 L 548.561,-62.96 L 548.795,-62.5011
 L 548.979,-62.0204 L 549.112,-61.5229 L 549.193,-61.0143 L 549.22,-60.5 L 549.193,-59.9857 L 549.112,-59.4771
 L 548.979,-58.9796 L 548.795,-58.4989 L 548.561,-58.04 L 548.28,-57.6081 L 547.956,-57.2079 L 547.592,-56.8437
 L 547.192,-56.5196 L 546.76,-56.2392 L 546.301,-56.0054 L 545.82,-55.8208 L 545.323,-55.6875 L 544.814,-55.607
 L 544.3,-55.58 z
M 677.986,-55.607 L 677.477,-55.6875 L 676.98,-55.8208 L 676.499,-56.0054 L 676.04,-56.2392 L 675.608,-56.5196
 L 675.208,-56.8437 L 674.844,-57.2079 L 674.52,-57.6081 L 674.239,-58.04 L 674.005,-58.4989 L 673.821,-58.9796
 L 673.688,-59.4771 L 673.607,-59.9857 L 673.58,-60.5 L 673.607,-61.0143 L 673.688,-61.5229 L 673.821,-62.0204
 L 674.005,-62.5011 L 674.239,-62.96 L 674.52,-63.3919 L 674.844,-63.7921 L 675.208,-64.1563 L 675.608,-64.4804
 L 675.95,-64.7024 L 675.95,-74 L 676.006,-74.5302 L 676.17,-75.0372 L 676.437,-75.4988 L 676.794,-75.895
 L 677.225,-76.2084 L 677.712,-76.4252 L 678.233,-76.536 L 678.767,-76.536 L 679.288,-76.4252 L 679.775,-76.2084
 L 680.206,-75.895 L 680.563,-75.4988 L 680.83,-75.0372 L 680.994,-74.5302 L 681.05,-74 L 681.05,-64.7024
 L 681.392,-64.4804 L 681.792,-64.1563 L 682.156,-63.7921 L 682.48,-63.3919 L 682.761,-62.96 L 682.995,-62.5011
 L 683.179,-62.0204 L 683.312,-61.5229 L 683.393,-61.0143 L 683.42,-60.5 L 683.393,-59.9857 L 683.312,-59.4771
 L 683.179,-58.9796 L 682.995,-58.4989 L 682.761,-58.04 L 682.48,-57.6081 L 682.156,-57.2079 L 681.792,-56.8437
 L 681.392,-56.5196 L 680.96,-56.2392 L 680.501,-56.0054 L 680.02,-55.8208 L 679.523,-55.6875 L 679.014,-55.607
 L 678.5,-55.58 z
M 341.973,-48.45 L 341.192,-48.748 L 329.975,-54.4319 L 329.431,-54.7639 L 328.81,-55.3235 L 328.318,-56
 L 327.978,-56.7639 L 327.804,-57.5819 L 327.804,-58.4181 L 327.978,-59.2361 L 328.318,-60 L 328.81,-60.6765
 L 329.431,-61.2361 L 330.156,-61.6542 L 330.951,-61.9126 L 331.783,-62 L 354.217,-62 L 354.852,-61.9493
 L 355.659,-61.7311 L 356.403,-61.3498 L 357.052,-60.8221 L 357.577,-60.171 L 357.955,-59.4251 L 358.17,-58.6169
 L 358.211,-57.7817 L 358.079,-56.9561 L 357.777,-56.1761 L 357.32,-55.4758 L 356.728,-54.8858 L 356.025,-54.4319
 L 344.808,-48.748 L 343.635,-48.3667 L 342.8,-48.3211 z
M 261.873,-23.2765 L 261.092,-23.5744 L 200.194,-54.4319 L 199.651,-54.7639 L 199.029,-55.3235 L 198.538,-56
 L 198.198,-56.7639 L 198.024,-57.5819 L 198.024,-58.4181 L 198.198,-59.2361 L 198.538,-60 L 199.029,-60.6765
 L 199.651,-61.2361 L 200.375,-61.6542 L 201.17,-61.9126 L 202.002,-62 L 262.9,-62 L 264.136,-61.8042
 L 264.9,-61.4641 L 265.577,-60.9726 L 266.136,-60.3511 L 266.554,-59.627 L 266.813,-58.8316 L 266.9,-58
 L 266.9,-27.1425 L 266.852,-26.5256 L 266.638,-25.7174 L 266.26,-24.9715 L 265.735,-24.3204 L 265.086,-23.7927
 L 264.342,-23.4114 L 263.535,-23.1932 L 262.7,-23.1475 z
M 556.665,-23.1932 L 555.858,-23.4114 L 555.114,-23.7927 L 554.465,-24.3204 L 553.94,-24.9715 L 553.562,-25.7174
 L 553.348,-26.5256 L 553.3,-27.1425 L 553.3,-58 L 553.387,-58.8316 L 553.646,-59.627 L 554.064,-60.3511
 L 554.623,-60.9726 L 555.3,-61.4641 L 556.064,-61.8042 L 557.3,-62 L 618.198,-62 L 619.03,-61.9126
 L 619.825,-61.6542 L 620.549,-61.2361 L 621.171,-60.6765 L 621.662,-60 L 622.002,-59.2361 L 622.176,-58.4181
 L 622.176,-57.5819 L 622.002,-56.7639 L 621.662,-56 L 621.171,-55.3235 L 620.549,-54.7639 L 620.006,-54.4319
 L 559.108,-23.5744 L 558.327,-23.2765 L 557.5,-23.1475 z
M 127.673,-23.2765 L 126.892,-23.5744 L 65.9939,-54.4319 L 65.4507,-54.7639 L 64.8293,-55.3235 L 64.3377,-56
 L 63.9976,-56.7639 L 63.8237,-57.5819 L 63.8237,-58.4181 L 63.9976,-59.2361 L 64.3377,-60 L 64.8293,-60.6765
 L 65.4507,-61.2361 L 66.1749,-61.6542 L 66.9702,-61.9126 L 67.8018,-62 L 128.7,-62 L 129.936,-61.8042
 L 130.7,-61.4641 L 131.377,-60.9726 L 131.936,-60.3511 L 132.354,-59.627 L 132.613,-58.8316 L 132.7,-58
 L 132.7,-27.1425 L 132.652,-26.5256 L 132.438,-25.7174 L 132.06,-24.9715 L 131.535,-24.3204 L 130.886,-23.7927
 L 130.142,-23.4114 L 129.335,-23.1932 L 128.5,-23.1475 z
M 422.465,-23.1932 L 421.658,-23.4114 L 420.914,-23.7927 L 420.265,-24.3204 L 419.74,-24.9715 L 419.362,-25.7174
 L 419.148,-26.5256 L 419.1,-27.1425 L 419.1,-58 L 419.187,-58.8316 L 419.446,-59.627 L 419.864,-60.3511
 L 420.423,-60.9726 L 421.1,-61.4641 L 421.864,-61.8042 L 423.1,-62 L 483.998,-62 L 484.83,-61.9126
 L 485.625,-61.6542 L 486.349,-61.2361 L 486.971,-60.6765 L 487.462,-60 L 487.802,-59.2361 L 487.976,-58.4181
 L 487.976,-57.5819 L 487.802,-56.7639 L 487.462,-56 L 486.971,-55.3235 L 486.349,-54.7639 L 485.806,-54.4319
 L 424.908,-23.5744 L 424.127,-23.2765 L 423.3,-23.1475 z
M 288.482,-20.9252 L 287.664,-21.099 L 286.9,-21.4391 L 286.223,-21.9307 L 285.664,-22.5521 L 285.246,-23.2763
 L 284.987,-24.0716 L 284.9,-24.9032 L 284.9,-55.0968 L 284.948,-55.7136 L 285.162,-56.5219 L 285.54,-57.2678
 L 286.065,-57.9188 L 286.714,-58.4465 L 287.458,-58.8279 L 288.265,-59.0461 L 289.1,-59.0917 L 289.927,-58.9628
 L 290.708,-58.6648 L 320.502,-43.5681 L 320.88,-43.3498 L 321.529,-42.8221 L 322.053,-42.171 L 322.431,-41.4251
 L 322.646,-40.6169 L 322.688,-39.7817 L 322.555,-38.9561 L 322.254,-38.1761 L 321.797,-37.4758 L 321.204,-36.8858
 L 320.502,-36.4319 L 290.708,-21.3352 L 290.136,-21.099 L 289.318,-20.9252 z
M 396.073,-21.0372 L 395.292,-21.3352 L 365.498,-36.4319 L 365.12,-36.6502 L 364.471,-37.1779 L 363.947,-37.829
 L 363.569,-38.5749 L 363.354,-39.3831 L 363.312,-40.2183 L 363.445,-41.0439 L 363.746,-41.8239 L 364.203,-42.5242
 L 364.796,-43.1142 L 365.498,-43.5681 L 395.292,-58.6648 L 395.864,-58.901 L 396.682,-59.0748 L 397.518,-59.0748
 L 398.336,-58.901 L 399.1,-58.5609 L 399.777,-58.0693 L 400.336,-57.4479 L 400.754,-56.7237 L 401.013,-55.9284
 L 401.1,-55.0968 L 401.1,-24.9032 L 401.052,-24.2864 L 400.838,-23.4781 L 400.46,-22.7322 L 399.935,-22.0812
 L 399.286,-21.5535 L 398.542,-21.1721 L 397.735,-20.9539 L 396.9,-20.9083 z
M 154.7,-18 L 153.464,-18.1958 L 152.7,-18.5359 L 152.023,-19.0274 L 151.464,-19.6489 L 151.046,-20.373
 L 150.787,-21.1684 L 150.7,-22 L 150.7,-52.8575 L 150.748,-53.4743 L 150.962,-54.2826 L 151.34,-55.0285
 L 151.865,-55.6796 L 152.514,-56.2073 L 153.258,-56.5886 L 154.065,-56.8068 L 154.9,-56.8524 L 155.727,-56.7235
 L 156.508,-56.4256 L 217.406,-25.5681 L 217.949,-25.2361 L 218.571,-24.6765 L 219.062,-24 L 219.402,-23.2361
 L 219.576,-22.4181 L 219.576,-21.5819 L 219.402,-20.7639 L 219.062,-20 L 218.571,-19.3235 L 217.949,-18.7639
 L 217.225,-18.3458 L 216.43,-18.0874 L 215.598,-18 z
M 470.402,-18 L 469.57,-18.0874 L 468.775,-18.3458 L 468.051,-18.7639 L 467.429,-19.3235 L 466.938,-20
 L 466.598,-20.7639 L 466.424,-21.5819 L 466.424,-22.4181 L 466.598,-23.2361 L 466.938,-24 L 467.429,-24.6765
 L 468.051,-25.2361 L 468.594,-25.5681 L 529.492,-56.4256 L 530.273,-56.7235 L 531.1,-56.8524 L 531.935,-56.8068
 L 532.742,-56.5886 L 533.486,-56.2073 L 534.135,-55.6796 L 534.66,-55.0285 L 535.038,-54.2826 L 535.252,-53.4743
 L 535.3,-52.8575 L 535.3,-22 L 535.213,-21.1684 L 534.954,-20.373 L 534.536,-19.6489 L 533.977,-19.0274
 L 533.3,-18.5359 L 532.536,-18.1958 L 531.3,-18 z
M 22,-18 L 20.7639,-18.1958 L 20,-18.5359 L 19.3235,-19.0274 L 18.7639,-19.6489 L 18.3458,-20.373
 L 18.0874,-21.1684 L 18,-22 L 18,-52.0974 L 18.0479,-52.7143 L 18.2625,-53.5225 L 18.6404,-54.2684
 L 19.1652,-54.9195 L 19.8139,-55.4472 L 20.5582,-55.8285 L 21.3654,-56.0468 L 22.2004,-56.0924 L 23.0266,-55.9634
 L 23.808,-55.6655 L 83.2061,-25.5681 L 83.7493,-25.2361 L 84.3707,-24.6765 L 84.8622,-24 L 85.2024,-23.2361
 L 85.3762,-22.4181 L 85.3762,-21.5819 L 85.2024,-20.7639 L 84.8622,-20 L 84.3707,-19.3235 L 83.7493,-18.7639
 L 83.0251,-18.3458 L 82.2298,-18.0874 L 81.3981,-18 z
M 604.602,-18 L 603.77,-18.0874 L 602.975,-18.3458 L 602.251,-18.7639 L 601.629,-19.3235 L 601.138,-20
 L 600.798,-20.7639 L 600.624,-21.5819 L 600.624,-22.4181 L 600.798,-23.2361 L 601.138,-24 L 601.629,-24.6765
 L 602.251,-25.2361 L 602.794,-25.5681 L 662.192,-55.6655 L 662.973,-55.9634 L 663.8,-56.0924 L 664.635,-56.0468
 L 665.442,-55.8285 L 666.186,-55.4472 L 666.835,-54.9195 L 667.36,-54.2684 L 667.738,-53.5225 L 667.952,-52.7143
 L 668,-52.0974 L 668,-22 L 667.913,-21.1684 L 667.654,-20.373 L 667.236,-19.6489 L 666.677,-19.0274
 L 666,-18.5359 L 665.236,-18.1958 L 664,-18 z
M 331.783,-18 L 331.148,-18.0507 L 330.341,-18.2689 L 329.596,-18.6502 L 328.948,-19.1779 L 328.423,-19.829
 L 328.045,-20.5749 L 327.83,-21.3831 L 327.789,-22.2183 L 327.921,-23.0439 L 328.223,-23.8239 L 328.68,-24.5242
 L 329.272,-25.1142 L 329.975,-25.5681 L 341.192,-31.252 L 342.365,-31.6333 L 343.2,-31.6789 L 344.027,-31.55
 L 344.808,-31.252 L 356.025,-25.5681 L 356.569,-25.2361 L 357.19,-24.6765 L 357.682,-24 L 358.022,-23.2361
 L 358.196,-22.4181 L 358.196,-21.5819 L 358.022,-20.7639 L 357.682,-20 L 357.19,-19.3235 L 356.569,-18.7639
 L 355.844,-18.3458 L 355.049,-18.0874 L 354.217,-18 z
" stroke="black" fill="lightgray" stroke-width="0.5"/>
</svg>
