<?xml version="1.0" standalone="no"?>
<!DOCTYPE svg PUBLIC "-//W3C//DTD SVG 1.1//EN" "http://www.w3.org/Graphics/SVG/1.1/DTD/svg11.dtd">
<svg width="549mm" height="80mm" viewBox="0 -80 549 80" xmlns="http://www.w3.org/2000/svg" version="1.1">
<title>OpenSCAD Model</title>
<path d="
M 549,-80 L 0,-80 L 0,-0 L 4.95,-0 L 4.95,-6 L 5.00572,-6.53017
 L 5.17046,-7.03717 L 5.437,-7.49884 L 5.79372,-7.895 L 6.22499,-8.20836 L 6.71201,-8.42519 L 7.23344,-8.53603
 L 7.76654,-8.53603 L 8.28798,-8.42519 L 8.77499,-8.20836 L 9.20627,-7.895 L 9.56299,-7.49884 L 9.82953,-7.03717
 L 9.99426,-6.53017 L 10.05,-6 L 10.05,-0 L 138.45,-0 L 138.45,-6 L 138.506,-6.53017
 L 138.67,-7.03717 L 138.937,-7.49884 L 139.294,-7.895 L 139.725,-8.20836 L 140.212,-8.42519 L 140.733,-8.53603
 L 141.267,-8.53603 L 141.788,-8.42519 L 142.275,-8.20836 L 142.706,-7.895 L 143.063,-7.49884 L 143.33,-7.03717
 L 143.494,-6.53017 L 143.55,-6 L 143.55,-0 L 271.95,-0 L 271.95,-6 L 272.006,-6.53017
 L 272.17,-7.03717 L 272.437,-7.49884 L 272.794,-7.895 L 273.225,-8.20836 L 273.712,-8.42519 L 274.233,-8.53603
 L 274.767,-8.53603 L 275.288,-8.42519 L 275.775,-8.20836 L 276.206,-7.895 L 276.563,-7.49884 L 276.83,-7.03717
 L 276.994,-6.53017 L 277.05,-6 L 277.05,-0 L 405.45,-0 L 405.45,-6 L 405.506,-6.53017
 L 405.67,-7.03717 L 405.937,-7.49884 L 406.294,-7.895 L 406.725,-8.20836 L 407.212,-8.42519 L 407.733,-8.53603
 L 408.267,-8.53603 L 408.788,-8.42519 L 409.275,-8.20836 L 409.706,-7.895 L 410.063,-7.49884 L 410.33,-7.03717
 L 410.494,-6.53017 L 410.55,-6 L 410.55,-0 L 538.95,-0 L 538.95,-6 L 539.006,-6.53017
 L 539.17,-7.03717 L 539.437,-7.49884 L 539.794,-7.895 L 540.225,-8.20836 L 540.712,-8.42519 L 541.233,-8.53603
 L 541.767,-8.53603 L 542.288,-8.42519 L 542.775,-8.20836 L 543.206,-7.895 L 543.563,-7.49884 L 543.83,-7.03717
 L 543.994,-6.53017 L 544.05,-6 L 544.05,-0 L 549,-0 z
M 6.98573,-55.607 L 6.47708,-55.6875 L 5.97964,-55.8208 L 5.49887,-56.0054 L 5.04001,-56.2392 L 4.60811,-56.5196
 L 4.20789,-56.8437 L 3.84373,-57.2079 L 3.51964,-57.6081 L 3.23917,-58.04 L 3.00537,-58.4989 L 2.82082,-58.9796
 L 2.68752,-59.4771 L 2.60696,-59.9857 L 2.58,-60.5 L 2.60696,-61.0143 L 2.68752,-61.5229 L 2.82082,-62.0204
 L 3.00537,-62.5011 L 3.23917,-62.96 L 3.51964,-63.3919 L 3.84373,-63.7921 L 4.20789,-64.1563 L 4.60811,-64.4804
 L 4.95001,-64.7024 L 4.95001,-74 L 5.00574,-74.5302 L 5.17047,-75.0372 L 5.43701,-75.4988 L 5.79373,-75.895
 L 6.22501,-76.2084 L 6.71202,-76.4252 L 7.23346,-76.536 L 7.76654,-76.536 L 8.28798,-76.4252 L 8.77499,-76.2084
 L 9.20627,-75.895 L 9.56299,-75.4988 L 9.82953,-75.0372 L 9.99426,-74.5302 L 10.05,-74 L 10.05,-64.7024
 L 10.3919,-64.4804 L 10.7921,-64.1563 L 11.1563,-63.7921 L 11.4804,-63.3919 L 11.7608,-62.96 L 11.9946,-62.5011
 L 12.1792,-62.0204 L 12.3125,-61.5229 L 12.393,-61.0143 L 12.42,-60.5 L 12.393,-59.9857 L 12.3125,-59.4771
 L 12.1792,-58.9796 L 11.9946,-58.4989 L 11.7608,-58.04 L 11.4804,-57.6081 L 11.1563,-57.2079 L 10.7921,-56.8437
 L 10.3919,-56.5196 L 9.95999,-56.2392 L 9.50113,-56.0054 L 9.02036,-55.8208 L 8.52292,-55.6875 L 8.01427,-55.607
 L 7.5,-55.58 z
M 140.486,-55.607 L 139.977,-55.6875 L 139.48,-55.8208 L 138.999,-56.0054 L 138.54,-56.2392 L 138.108,-56.5196
 L 137.708,-56.8437 L 137.344,-57.2079 L 137.02,-57.6081 L 136.739,-58.04 L 136.505,-58.4989 L 136.321,-58.9796
 L 136.188,-59.4771 L 136.107,-59.9857 L 136.08,-60.5 L 136.107,-61.0143 L 136.188,-61.5229 L 136.321,-62.0204
 L 136.505,-62.5011 L 136.739,-62.96 L 137.02,-63.3919 L 137.344,-63.7921 L 137.708,-64.1563 L 138.108,-64.4804
 L 138.45,-64.7024 L 138.45,-74 L 138.506,-74.5302 L 138.67,-75.0372 L 138.937,-75.4988 L 139.294,-75.895
 L 139.725,-76.2084 L 140.212,-76.4252 L 140.733,-76.536 L 141.267,-76.536 L 141.788,-76.4252 L 142.275,-76.2084
 L 142.706,-75.895 L 143.063,-75.4988 L 143.33,-75.0372 L 143.494,-74.5302 L 143.55,-74 L 143.55,-64.7024
 L 143.892,-64.4804 L 144.292,-64.1563 L 144.656,-63.7921 L 144.98,-63.3919 L 145.261,-62.96 L 145.495,-62.5011
 L 145.679,-62.0204 L 145.812,-61.5229 L 145.893,-61.0143 L 145.92,-60.5 L 145.893,-59.9857 L 145.812,-59.4771
 L 145.679,-58.9796 L 145.495,-58.4989 L 145.261,-58.04 L 144.98,-57.6081 L 144.656,-57.2079 L 144.292,-56.8437
 L 143.892,-56.5196 L 143.46,-56.2392 L 143.001,-56.0054 L 142.52,-55.8208 L 142.023,-55.6875 L 141.514,-55.607
 L 141,-55.58 z
M 273.986,-55.607 L 273.477,-55.6875 L 272.98,-55.8208 L 272.499,-56.0054 L 272.04,-56.2392 L 271.608,-56.5196
 L 271.208,-56.8437 L 270.844,-57.2079 L 270.52,-57.6081 L 270.239,-58.04 L 270.005,-58.4989 L 269.821,-58.9796
 L 269.688,-59.4771 L 269.607,-59.9857 L 269.58,-60.5 L 269.607,-61.0143 L 269.688,-61.5229 L 269.821,-62.0204
 L 270.005,-62.5011 L 270.239,-62.96 L 270.52,-63.3919 L 270.844,-63.7921 L 271.208,-64.1563 L 271.608,-64.4804
 L 271.95,-64.7024 L 271.95,-74 L 272.006,-74.5302 L 272.17,-75.0372 L 272.437,-75.4988 L 272.794,-75.895
 L 273.225,-76.2084 L 273.712,-76.4252 L 274.233,-76.536 L 274.767,-76.536 L 275.288,-76.4252 L 275.775,-76.2084
 L 276.206,-75.895 L 276.563,-75.4988 L 276.83,-75.0372 L 276.994,-74.5302 L 277.05,-74 L 277.05,-64.7024
 L 277.392,-64.4804 L 277.792,-64.1563 L 278.156,-63.7921 L 278.48,-63.3919 L 278.761,-62.96 L 278.995,-62.5011
 L 279.179,-62.0204 L 279.312,-61.5229 L 279.393,-61.0143 L 279.42,-60.5 L 279.393,-59.9857 L 279.312,-59.4771
 L 279.179,-58.9796 L 278.995,-58.4989 L 278.761,-58.04 L 278.48,-57.6081 L 278.156,-57.2079 L 277.792,-56.8437
 L 277.392,-56.5196 L 276.96,-56.2392 L 276.501,-56.0054 L 276.02,-55.8208 L 275.523,-55.6875 L 275.014,-55.607
 L 274.5,-55.58 z
M 407.486,-55.607 L 406.977,-55.6875 L 406.48,-55.8208 L 405.999,-56.0054 L 405.54,-56.2392 L 405.108,-56.5196
 L 404.708,-56.8437 L 404.344,-57.2079 L 404.02,-57.6081 L 403.739,-58.04 L 403.505,-58.4989 L 403.321,-58.9796
 L 403.188,-59.4771 L 403.107,-59.9857 L 403.08,-60.5 L 403.107,-61.0143 L 403.188,-61.5229 L 403.321,-62.0204
 L 403.505,-62.5011 L 403.739,-62.96 L 404.02,-63.3919 L 404.344,-63.7921 L 404.708,-64.1563 L 405.108,-64.4804
 L 405.45,-64.7024 L 405.45,-74 L 405.506,-74.5302 L 405.67,-75.0372 L 405.937,-75.4988 L 406.294,-75.895
 L 406.725,-76.2084 L 407.212,-76.4252 L 407.733,-76.536 L 408.267,-76.536 L 408.788,-76.4252 L 409.275,-76.2084
 L 409.706,-75.895 L 410.063,-75.4988 L 410.33,-75.0372 L 410.494,-74.5302 L 410.55,-74 L 410.55,-64.7024
 L 410.892,-64.4804 L 411.292,-64.1563 L 411.656,-63.7921 L 411.98,-63.3919 L 412.261,-62.96 L 412.495,-62.5011
 L 412.679,-62.0204 L 412.812,-61.5229 L 412.893,-61.0143 L 412.92,-60.5 L 412.893,-59.9857 L 412.812,-59.4771
 L 412.679,-58.9796 L 412.495,-58.4989 L 412.261,-58.04 L 411.98,-57.6081 L 411.656,-57.2079 L 411.292,-56.8437
 L 410.892,-56.5196 L 410.46,-56.2392 L 410.001,-56.0054 L 409.52,-55.8208 L 409.023,-55.6875 L 408.514,-55.607
 L 408,-55.58 z
M 540.986,-55.607 L 540.477,-55.6875 L 539.98,-55.8208 L 539.499,-56.0054 L 539.04,-56.2392 L 538.608,-56.5196
 L 538.208,-56.8437 L 537.844,-57.2079 L 537.52,-57.6081 L 537.239,-58.04 L 537.005,-58.4989 L 536.821,-58.9796
 L 536.688,-59.4771 L 536.607,-59.9857 L 536.58,-60.5 L 536.607,-61.0143 L 536.688,-61.5229 L 536.821,-62.0204
 L 537.005,-62.5011 L 537.239,-62.96 L 537.52,-63.3919 L 537.844,-63.7921 L 538.208,-64.1563 L 538.608,-64.4804
 L 538.95,-64.7024 L 538.95,-74 L 539.006,-74.5302 L 539.17,-75.0372 L 539.437,-75.4988 L 539.794,-75.895
 L 540.225,-76.2084 L 540.712,-76.4252 L 541.233,-76.536 L 541.767,-76.536 L 542.288,-76.4252 L 542.775,-76.2084
 L 543.206,-75.895 L 543.563,-75.4988 L 543.83,-75.0372 L 543.994,-74.5302 L 544.05,-74 L 544.05,-64.7024
 L 544.392,-64.4804 L 544.792,-64.1563 L 545.156,-63.7921 L 545.48,-63.3919 L 545.761,-62.96 L 545.995,-62.5011
 L 546.179,-62.0204 L 546.312,-61.5229 L 546.393,-61.0143 L 546.42,-60.5 L 546.393,-59.9857 L 546.312,-59.4771
 L 546.179,-58.9796 L 545.995,-58.4989 L 545.761,-58.04 L 545.48,-57.6081 L 545.156,-57.2079 L 544.792,-56.8437
 L 544.392,-56.5196 L 543.96,-56.2392 L 543.501,-56.0054 L 543.02,-55.8208 L 542.523,-55.6875 L 542.014,-55.607
 L 541.5,-55.58 z
M 286.874,-23.2404 L 286.066,-23.457 L 285.321,-23.8367 L 284.671,-24.363 L 284.145,-25.013 L 283.765,-25.7581
 L 283.549,-26.5659 L 283.5,-27.1911 L 283.5,-58 L 283.587,-58.8316 L 283.846,-59.627 L 284.264,-60.3511
 L 284.823,-60.9726 L 285.5,-61.4641 L 286.264,-61.8042 L 287.5,-62 L 347.985,-62 L 348.817,-61.9126
 L 349.612,-61.6542 L 350.336,-61.2361 L 350.958,-60.6765 L 351.449,-60 L 351.789,-59.2361 L 351.963,-58.4181
 L 351.963,-57.5819 L 351.789,-56.7639 L 351.449,-56 L 350.958,-55.3235 L 350.336,-54.7639 L 349.801,-54.4357
 L 289.316,-23.6268 L 288.535,-23.3273 L 287.709,-23.1965 z
M 260.465,-23.3273 L 259.684,-23.6268 L 199.199,-54.4357 L 198.664,-54.7639 L 198.042,-55.3235 L 197.551,-56
 L 197.211,-56.7639 L 197.037,-57.5819 L 197.037,-58.4181 L 197.211,-59.2361 L 197.551,-60 L 198.042,-60.6765
 L 198.664,-61.2361 L 199.388,-61.6542 L 200.183,-61.9126 L 201.015,-62 L 261.5,-62 L 262.736,-61.8042
 L 263.5,-61.4641 L 264.177,-60.9726 L 264.736,-60.3511 L 265.154,-59.627 L 265.413,-58.8316 L 265.5,-58
 L 265.5,-27.1911 L 265.451,-26.5659 L 265.235,-25.7581 L 264.855,-25.013 L 264.329,-24.363 L 263.679,-23.8367
 L 262.934,-23.457 L 262.126,-23.2404 L 261.291,-23.1965 z
M 420.374,-23.2404 L 419.566,-23.457 L 418.821,-23.8367 L 418.171,-24.363 L 417.645,-25.013 L 417.265,-25.7581
 L 417.049,-26.5659 L 417,-27.1911 L 417,-58 L 417.087,-58.8316 L 417.346,-59.627 L 417.764,-60.3511
 L 418.323,-60.9726 L 419,-61.4641 L 419.764,-61.8042 L 421,-62 L 481.485,-62 L 482.317,-61.9126
 L 483.112,-61.6542 L 483.836,-61.2361 L 484.458,-60.6765 L 484.949,-60 L 485.289,-59.2361 L 485.463,-58.4181
 L 485.463,-57.5819 L 485.289,-56.7639 L 484.949,-56 L 484.458,-55.3235 L 483.836,-54.7639 L 483.301,-54.4357
 L 422.816,-23.6268 L 422.035,-23.3273 L 421.209,-23.1965 z
M 126.965,-23.3273 L 126.184,-23.6268 L 65.6994,-54.4357 L 65.1637,-54.7639 L 64.5423,-55.3235 L 64.0508,-56
 L 63.7106,-56.7639 L 63.5368,-57.5819 L 63.5368,-58.4181 L 63.7106,-59.2361 L 64.0508,-60 L 64.5423,-60.6765
 L 65.1637,-61.2361 L 65.8879,-61.6542 L 66.6832,-61.9126 L 67.5149,-62 L 128,-62 L 129.236,-61.8042
 L 130,-61.4641 L 130.677,-60.9726 L 131.236,-60.3511 L 131.654,-59.627 L 131.913,-58.8316 L 132,-58
 L 132,-27.1911 L 131.951,-26.5659 L 131.735,-25.7581 L 131.355,-25.013 L 130.829,-24.363 L 130.179,-23.8367
 L 129.434,-23.457 L 128.626,-23.2404 L 127.791,-23.1965 z
M 334.515,-18 L 333.683,-18.0874 L 332.888,-18.3458 L 332.164,-18.7639 L 331.542,-19.3235 L 331.051,-20
 L 330.711,-20.7639 L 330.537,-21.5819 L 330.537,-22.4181 L 330.711,-23.2361 L 331.051,-24 L 331.542,-24.6765
 L 332.164,-25.2361 L 332.699,-25.5643 L 393.184,-56.3731 L 393.965,-56.6727 L 394.791,-56.8034 L 395.626,-56.7596
 L 396.434,-56.543 L 397.179,-56.1633 L 397.829,-55.6369 L 398.355,-54.987 L 398.735,-54.2419 L 398.951,-53.4341
 L 399,-52.8089 L 399,-22 L 398.913,-21.1684 L 398.654,-20.373 L 398.236,-19.6489 L 397.677,-19.0274
 L 397,-18.5359 L 396.236,-18.1958 L 395,-18 z
M 154,-18 L 152.764,-18.1958 L 152,-18.5359 L 151.323,-19.0274 L 150.764,-19.6489 L 150.346,-20.373
 L 150.087,-21.1684 L 150,-22 L 150,-52.8089 L 150.049,-53.4341 L 150.265,-54.2419 L 150.645,-54.987
 L 151.171,-55.6369 L 151.821,-56.1633 L 152.566,-56.543 L 153.374,-56.7596 L 154.209,-56.8034 L 155.035,-56.6727
 L 155.816,-56.3731 L 216.301,-25.5643 L 216.836,-25.2361 L 217.458,-24.6765 L 217.949,-24 L 218.289,-23.2361
 L 218.463,-22.4181 L 218.463,-21.5819 L 218.289,-20.7639 L 217.949,-20 L 217.458,-19.3235 L 216.836,-18.7639
 L 216.112,-18.3458 L 215.317,-18.0874 L 214.485,-18 z
M 22,-18 L 20.7639,-18.1958 L 20,-18.5359 L 19.3235,-19.0274 L 18.7639,-19.6489 L 18.3458,-20.373
 L 18.0874,-21.1684 L 18,-22 L 18,-52.0448 L 18.0492,-52.6701 L 18.2655,-53.4778 L 18.645,-54.223
 L 19.1712,-54.8729 L 19.821,-55.3992 L 20.566,-55.779 L 21.3737,-55.9955 L 22.2088,-56.0394 L 23.0348,-55.9087
 L 23.8155,-55.6091 L 82.8006,-25.5643 L 83.3362,-25.2361 L 83.9577,-24.6765 L 84.4492,-24 L 84.7893,-23.2361
 L 84.9632,-22.4181 L 84.9632,-21.5819 L 84.7893,-20.7639 L 84.4492,-20 L 83.9577,-19.3235 L 83.3362,-18.7639
 L 82.6121,-18.3458 L 81.8168,-18.0874 L 80.9851,-18 z
M 468.015,-18 L 467.183,-18.0874 L 466.388,-18.3458 L 465.664,-18.7639 L 465.042,-19.3235 L 464.551,-20
 L 464.211,-20.7639 L 464.037,-21.5819 L 464.037,-22.4181 L 464.211,-23.2361 L 464.551,-24 L 465.042,-24.6765
 L 465.664,-25.2361 L 466.199,-25.5643 L 525.184,-55.6091 L 525.965,-55.9087 L 526.791,-56.0394 L 527.626,-55.9955
 L 528.434,-55.779 L 529.179,-55.3992 L 529.829,-54.8729 L 530.355,-54.223 L 530.735,-53.4778 L 530.951,-52.6701
 L 531,-52.0448 L 531,-22 L 530.913,-21.1684 L 530.654,-20.373 L 530.236,-19.6489 L 529.677,-19.0274
 L 529,-18.5359 L 528.236,-18.1958 L 527,-18 z
" stroke="black" fill="lightgray" stroke-width="0.5"/>
</svg>
