<?xml version="1.0" standalone="no"?>
<!DOCTYPE svg PUBLIC "-//W3C//DTD SVG 1.1//EN" "http://www.w3.org/Graphics/SVG/1.1/DTD/svg11.dtd">
<svg width="758mm" height="80mm" viewBox="0 -80 758 80" xmlns="http://www.w3.org/2000/svg" version="1.1">
<title>OpenSCAD Model</title>
<path d="
M 758,-80 L 0,-80 L 0,-0 L 4.95,-0 L 4.95,-6 L 5.00572,-6.53017
 L 5.17046,-7.03717 L 5.437,-7.49884 L 5.79372,-7.895 L 6.22499,-8.20836 L 6.71201,-8.42519 L 7.23344,-8.53603
 L 7.76654,-8.53603 L 8.28798,-8.42519 L 8.77499,-8.20836 L 9.20627,-7.895 L 9.56299,-7.49884 L 9.82953,-7.03717
 L 9.99426,-6.53017 L 10.05,-6 L 10.05,-0 L 153.55,-0 L 153.55,-6 L 153.606,-6.53017
 L 153.77,-7.03717 L 154.037,-7.49884 L 154.394,-7.895 L 154.825,-8.20836 L 155.312,-8.42519 L 155.833,-8.53603
 L 156.367,-8.53603 L 156.888,-8.42519 L 157.375,-8.20836 L 157.806,-7.895 L 158.163,-7.49884 L 158.43,-7.03717
 L 158.594,-6.53017 L 158.65,-6 L 158.65,-0 L 302.15,-0 L 302.15,-6 L 302.206,-6.53017
 L 302.37,-7.03717 L 302.637,-7.49884 L 302.994,-7.895 L 303.425,-8.20836 L 303.912,-8.42519 L 304.433,-8.53603
 L 304.967,-8.53603 L 305.488,-8.42519 L 305.975,-8.20836 L 306.406,-7.895 L 306.763,-7.49884 L 307.03,-7.03717
 L 307.194,-6.53017 L 307.25,-6 L 307.25,-0 L 450.75,-0 L 450.75,-6 L 450.806,-6.53017
 L 450.97,-7.03717 L 451.237,-7.49884 L 451.594,-7.895 L 452.025,-8.20836 L 452.512,-8.42519 L 453.033,-8.53603
 L 453.567,-8.53603 L 454.088,-8.42519 L 454.575,-8.20836 L 455.006,-7.895 L 455.363,-7.49884 L 455.63,-7.03717
 L 455.794,-6.53017 L 455.85,-6 L 455.85,-0 L 599.35,-0 L 599.35,-6 L 599.406,-6.53017
 L 599.57,-7.03717 L 599.837,-7.49884 L 600.194,-7.895 L 600.625,-8.20836 L 601.112,-8.42519 L 601.633,-8.53603
 L 602.167,-8.53603 L 602.688,-8.42519 L 603.175,-8.20836 L 603.606,-7.895 L 603.963,-7.49884 L 604.23,-7.03717
 L 604.394,-6.53017 L 604.45,-6 L 604.45,-0 L 747.95,-0 L 747.95,-6 L 748.006,-6.53017
 L 748.17,-7.03717 L 748.437,-7.49884 L 748.794,-7.895 L 749.225,-8.20836 L 749.712,-8.42519 L 750.233,-8.53603
 L 750.767,-8.53603 L 751.288,-8.42519 L 751.775,-8.20836 L 752.206,-7.895 L 752.563,-7.49884 L 752.83,-7.03717
 L 752.994,-6.53017 L 753.05,-6 L 753.05,-0 L 758,-0 z
M 6.98573,-55.607 L 6.47708,-55.6875 L 5.97964,-55.8208 L 5.49887,-56.0054 L 5.04001,-56.2392 L 4.60811,-56.5196
 L 4.20789,-56.8437 L 3.84373,-57.2079 L 3.51964,-57.6081 L 3.23917,-58.04 L 3.00537,-58.4989 L 2.82082,-58.9796
 L 2.68752,-59.4771 L 2.60696,-59.9857 L 2.58,-60.5 L 2.60696,-61.0143 L 2.68752,-61.5229 L 2.82082,-62.0204
 L 3.00537,-62.5011 L 3.23917,-62.96 L 3.51964,-63.3919 L 3.84373,-63.7921 L 4.20789,-64.1563 L 4.60811,-64.4804
 L 4.95001,-64.7024 L 4.95001,-74 L 5.00574,-74.5302 L 5.17047,-75.0372 L 5.43701,-75.4988 L 5.79373,-75.895
 L 6.22501,-76.2084 L 6.71202,-76.4252 L 7.23346,-76.536 L 7.76654,-76.536 L 8.28798,-76.4252 L 8.77499,-76.2084
 L 9.20627,-75.895 L 9.56299,-75.4988 L 9.82953,-75.0372 L 9.99426,-74.5302 L 10.05,-74 L 10.05,-64.7024
 L 10.3919,-64.4804 L 10.7921,-64.1563 L 11.1563,-63.7921 L 11.4804,-63.3919 L 11.7608,-62.96 L 11.9946,-62.5011
 L 12.1792,-62.0204 L 12.3125,-61.5229 L 12.393,-61.0143 L 12.42,-60.5 L 12.393,-59.9857 L 12.3125,-59.4771
 L 12.1792,-58.9796 L 11.9946,-58.4989 L 11.7608,-58.04 L 11.4804,-57.6081 L 11.1563,-57.2079 L 10.7921,-56.8437
 L 10.3919,-56.5196 L 9.95999,-56.2392 L 9.50113,-56.0054 L 9.02036,-55.8208 L 8.52292,-55.6875 L 8.01427,-55.607
 L 7.5,-55.58 z
M 155.586,-55.607 L 155.077,-55.6875 L 154.58,-55.8208 L 154.099,-56.0054 L 153.64,-56.2392 L 153.208,-56.5196
 L 152.808,-56.8437 L 152.444,-57.2079 L 152.12,-57.6081 L 151.839,-58.04 L 151.605,-58.4989 L 151.421,-58.9796
 L 151.288,-59.4771 L 151.207,-59.9857 L 151.18,-60.5 L 151.207,-61.0143 L 151.288,-61.5229 L 151.421,-62.0204
 L 151.605,-62.5011 L 151.839,-62.96 L 152.12,-63.3919 L 152.444,-63.7921 L 152.808,-64.1563 L 153.208,-64.4804
 L 153.55,-64.7024 L 153.55,-74 L 153.606,-74.5302 L 153.77,-75.0372 L 154.037,-75.4988 L 154.394,-75.895
 L 154.825,-76.2084 L 155.312,-76.4252 L 155.833,-76.536 L 156.367,-76.536 L 156.888,-76.4252 L 157.375,-76.2084
 L 157.806,-75.895 L 158.163,-75.4988 L 158.43,-75.0372 L 158.594,-74.5302 L 158.65,-74 L 158.65,-64.7024
 L 158.992,-64.4804 L 159.392,-64.1563 L 159.756,-63.7921 L 160.08,-63.3919 L 160.361,-62.96 L 160.595,-62.5011
 L 160.779,-62.0204 L 160.912,-61.5229 L 160.993,-61.0143 L 161.02,-60.5 L 160.993,-59.9857 L 160.912,-59.4771
 L 160.779,-58.9796 L 160.595,-58.4989 L 160.361,-58.04 L 160.08,-57.6081 L 159.756,-57.2079 L 159.392,-56.8437
 L 158.992,-56.5196 L 158.56,-56.2392 L 158.101,-56.0054 L 157.62,-55.8208 L 157.123,-55.6875 L 156.614,-55.607
 L 156.1,-55.58 z
M 304.186,-55.607 L 303.677,-55.6875 L 303.18,-55.8208 L 302.699,-56.0054 L 302.24,-56.2392 L 301.808,-56.5196
 L 301.408,-56.8437 L 301.044,-57.2079 L 300.72,-57.6081 L 300.439,-58.04 L 300.205,-58.4989 L 300.021,-58.9796
 L 299.888,-59.4771 L 299.807,-59.9857 L 299.78,-60.5 L 299.807,-61.0143 L 299.888,-61.5229 L 300.021,-62.0204
 L 300.205,-62.5011 L 300.439,-62.96 L 300.72,-63.3919 L 301.044,-63.7921 L 301.408,-64.1563 L 301.808,-64.4804
 L 302.15,-64.7024 L 302.15,-74 L 302.206,-74.5302 L 302.37,-75.0372 L 302.637,-75.4988 L 302.994,-75.895
 L 303.425,-76.2084 L 303.912,-76.4252 L 304.433,-76.536 L 304.967,-76.536 L 305.488,-76.4252 L 305.975,-76.2084
 L 306.406,-75.895 L 306.763,-75.4988 L 307.03,-75.0372 L 307.194,-74.5302 L 307.25,-74 L 307.25,-64.7024
 L 307.592,-64.4804 L 307.992,-64.1563 L 308.356,-63.7921 L 308.68,-63.3919 L 308.961,-62.96 L 309.195,-62.5011
 L 309.379,-62.0204 L 309.512,-61.5229 L 309.593,-61.0143 L 309.62,-60.5 L 309.593,-59.9857 L 309.512,-59.4771
 L 309.379,-58.9796 L 309.195,-58.4989 L 308.961,-58.04 L 308.68,-57.6081 L 308.356,-57.2079 L 307.992,-56.8437
 L 307.592,-56.5196 L 307.16,-56.2392 L 306.701,-56.0054 L 306.22,-55.8208 L 305.723,-55.6875 L 305.214,-55.607
 L 304.7,-55.58 z
M 452.786,-55.607 L 452.277,-55.6875 L 451.78,-55.8208 L 451.299,-56.0054 L 450.84,-56.2392 L 450.408,-56.5196
 L 450.008,-56.8437 L 449.644,-57.2079 L 449.32,-57.6081 L 449.039,-58.04 L 448.805,-58.4989 L 448.621,-58.9796
 L 448.488,-59.4771 L 448.407,-59.9857 L 448.38,-60.5 L 448.407,-61.0143 L 448.488,-61.5229 L 448.621,-62.0204
 L 448.805,-62.5011 L 449.039,-62.96 L 449.32,-63.3919 L 449.644,-63.7921 L 450.008,-64.1563 L 450.408,-64.4804
 L 450.75,-64.7024 L 450.75,-74 L 450.806,-74.5302 L 450.97,-75.0372 L 451.237,-75.4988 L 451.594,-75.895
 L 452.025,-76.2084 L 452.512,-76.4252 L 453.033,-76.536 L 453.567,-76.536 L 454.088,-76.4252 L 454.575,-76.2084
 L 455.006,-75.895 L 455.363,-75.4988 L 455.63,-75.0372 L 455.794,-74.5302 L 455.85,-74 L 455.85,-64.7024
 L 456.192,-64.4804 L 456.592,-64.1563 L 456.956,-63.7921 L 457.28,-63.3919 L 457.561,-62.96 L 457.795,-62.5011
 L 457.979,-62.0204 L 458.112,-61.5229 L 458.193,-61.0143 L 458.22,-60.5 L 458.193,-59.9857 L 458.112,-59.4771
 L 457.979,-58.9796 L 457.795,-58.4989 L 457.561,-58.04 L 457.28,-57.6081 L 456.956,-57.2079 L 456.592,-56.8437
 L 456.192,-56.5196 L 455.76,-56.2392 L 455.301,-56.0054 L 454.82,-55.8208 L 454.323,-55.6875 L 453.814,-55.607
 L 453.3,-55.58 z
M 601.386,-55.607 L 600.877,-55.6875 L 600.38,-55.8208 L 599.899,-56.0054 L 599.44,-56.2392 L 599.008,-56.5196
 L 598.608,-56.8437 L 598.244,-57.2079 L 597.92,-57.6081 L 597.639,-58.04 L 597.405,-58.4989 L 597.221,-58.9796
 L 597.088,-59.4771 L 597.007,-59.9857 L 596.98,-60.5 L 597.007,-61.0143 L 597.088,-61.5229 L 597.221,-62.0204
 L 597.405,-62.5011 L 597.639,-62.96 L 597.92,-63.3919 L 598.244,-63.7921 L 598.608,-64.1563 L 599.008,-64.4804
 L 599.35,-64.7024 L 599.35,-74 L 599.406,-74.5302 L 599.57,-75.0372 L 599.837,-75.4988 L 600.194,-75.895
 L 600.625,-76.2084 L 601.112,-76.4252 L 601.633,-76.536 L 602.167,-76.536 L 602.688,-76.4252 L 603.175,-76.2084
 L 603.606,-75.895 L 603.963,-75.4988 L 604.23,-75.0372 L 604.394,-74.5302 L 604.45,-74 L 604.45,-64.7024
 L 604.792,-64.4804 L 605.192,-64.1563 L 605.556,-63.7921 L 605.88,-63.3919 L 606.161,-62.96 L 606.395,-62.5011
 L 606.579,-62.0204 L 606.712,-61.5229 L 606.793,-61.0143 L 606.82,-60.5 L 606.793,-59.9857 L 606.712,-59.4771
 L 606.579,-58.9796 L 606.395,-58.4989 L 606.161,-58.04 L 605.88,-57.6081 L 605.556,-57.2079 L 605.192,-56.8437
 L 604.792,-56.5196 L 604.36,-56.2392 L 603.901,-56.0054 L 603.42,-55.8208 L 602.923,-55.6875 L 602.414,-55.607
 L 601.9,-55.58 z
M 749.986,-55.607 L 749.477,-55.6875 L 748.98,-55.8208 L 748.499,-56.0054 L 748.04,-56.2392 L 747.608,-56.5196
 L 747.208,-56.8437 L 746.844,-57.2079 L 746.52,-57.6081 L 746.239,-58.04 L 746.005,-58.4989 L 745.821,-58.9796
 L 745.688,-59.4771 L 745.607,-59.9857 L 745.58,-60.5 L 745.607,-61.0143 L 745.688,-61.5229 L 745.821,-62.0204
 L 746.005,-62.5011 L 746.239,-62.96 L 746.52,-63.3919 L 746.844,-63.7921 L 747.208,-64.1563 L 747.608,-64.4804
 L 747.95,-64.7024 L 747.95,-74 L 748.006,-74.5302 L 748.17,-75.0372 L 748.437,-75.4988 L 748.794,-75.895
 L 749.225,-76.2084 L 749.712,-76.4252 L 750.233,-76.536 L 750.767,-76.536 L 751.288,-76.4252 L 751.775,-76.2084
 L 752.206,-75.895 L 752.563,-75.4988 L 752.83,-75.0372 L 752.994,-74.5302 L 753.05,-74 L 753.05,-64.7024
 L 753.392,-64.4804 L 753.792,-64.1563 L 754.156,-63.7921 L 754.48,-63.3919 L 754.761,-62.96 L 754.995,-62.5011
 L 755.179,-62.0204 L 755.312,-61.5229 L 755.393,-61.0143 L 755.42,-60.5 L 755.393,-59.9857 L 755.312,-59.4771
 L 755.179,-58.9796 L 754.995,-58.4989 L 754.761,-58.04 L 754.48,-57.6081 L 754.156,-57.2079 L 753.792,-56.8437
 L 753.392,-56.5196 L 752.96,-56.2392 L 752.501,-56.0054 L 752.02,-55.8208 L 751.523,-55.6875 L 751.014,-55.607
 L 750.5,-55.58 z
M 378.128,-48.1925 L 377.336,-48.4591 L 364.434,-54.3627 L 363.748,-54.7639 L 363.126,-55.3235 L 362.635,-56
 L 362.295,-56.7639 L 362.121,-57.5819 L 362.121,-58.4181 L 362.295,-59.2361 L 362.635,-60 L 363.126,-60.6765
 L 363.748,-61.2361 L 364.472,-61.6542 L 365.267,-61.9126 L 366.099,-62 L 391.901,-62 L 392.693,-61.9209
 L 393.49,-61.6707 L 394.219,-61.2601 L 394.846,-60.7069 L 395.345,-60.0355 L 395.692,-59.2751 L 395.875,-58.459
 L 395.883,-57.6228 L 395.718,-56.8031 L 395.386,-56.0357 L 394.901,-55.3542 L 394.285,-54.7883 L 393.566,-54.3627
 L 380.664,-48.4591 L 379.791,-48.1754 L 378.959,-48.0966 z
M 290.828,-22.3407 L 290.036,-22.6073 L 220.641,-54.3627 L 219.954,-54.7639 L 219.332,-55.3235 L 218.841,-56
 L 218.501,-56.7639 L 218.327,-57.5819 L 218.327,-58.4181 L 218.501,-59.2361 L 218.841,-60 L 219.332,-60.6765
 L 219.954,-61.2361 L 220.678,-61.6542 L 221.473,-61.9126 L 222.305,-62 L 291.7,-62 L 292.936,-61.8042
 L 293.7,-61.4641 L 294.377,-60.9726 L 294.936,-60.3511 L 295.354,-59.627 L 295.613,-58.8316 L 295.7,-58
 L 295.7,-26.2446 L 295.674,-25.7856 L 295.491,-24.9694 L 295.143,-24.209 L 294.645,-23.5376 L 294.018,-22.9845
 L 293.289,-22.5738 L 292.491,-22.3236 L 291.659,-22.2448 z
M 614.109,-22.3236 L 613.311,-22.5738 L 612.582,-22.9845 L 611.955,-23.5376 L 611.457,-24.209 L 611.109,-24.9694
 L 610.926,-25.7856 L 610.9,-26.2446 L 610.9,-58 L 610.987,-58.8316 L 611.246,-59.627 L 611.664,-60.3511
 L 612.223,-60.9726 L 612.9,-61.4641 L 613.664,-61.8042 L 614.9,-62 L 684.295,-62 L 685.127,-61.9126
 L 685.922,-61.6542 L 686.646,-61.2361 L 687.268,-60.6765 L 687.759,-60 L 688.099,-59.2361 L 688.273,-58.4181
 L 688.273,-57.5819 L 688.099,-56.7639 L 687.759,-56 L 687.268,-55.3235 L 686.646,-54.7639 L 685.959,-54.3627
 L 616.564,-22.6073 L 615.772,-22.3407 L 614.941,-22.2448 z
M 142.228,-22.3407 L 141.436,-22.6073 L 72.0406,-54.3627 L 71.3539,-54.7639 L 70.7324,-55.3235 L 70.2409,-56
 L 69.9008,-56.7639 L 69.7269,-57.5819 L 69.7269,-58.4181 L 69.9008,-59.2361 L 70.2409,-60 L 70.7324,-60.6765
 L 71.3539,-61.2361 L 72.0781,-61.6542 L 72.8734,-61.9126 L 73.705,-62 L 143.1,-62 L 144.336,-61.8042
 L 145.1,-61.4641 L 145.777,-60.9726 L 146.336,-60.3511 L 146.754,-59.627 L 147.013,-58.8316 L 147.1,-58
 L 147.1,-26.2446 L 147.074,-25.7856 L 146.891,-24.9694 L 146.543,-24.209 L 146.045,-23.5376 L 145.418,-22.9845
 L 144.689,-22.5738 L 143.891,-22.3236 L 143.059,-22.2448 z
M 465.509,-22.3236 L 464.711,-22.5738 L 463.982,-22.9845 L 463.355,-23.5376 L 462.857,-24.209 L 462.509,-24.9694
 L 462.326,-25.7856 L 462.3,-26.2446 L 462.3,-58 L 462.387,-58.8316 L 462.646,-59.627 L 463.064,-60.3511
 L 463.623,-60.9726 L 464.3,-61.4641 L 465.064,-61.8042 L 466.3,-62 L 535.695,-62 L 536.527,-61.9126
 L 537.322,-61.6542 L 538.046,-61.2361 L 538.668,-60.6765 L 539.159,-60 L 539.499,-59.2361 L 539.673,-58.4181
 L 539.673,-57.5819 L 539.499,-56.7639 L 539.159,-56 L 538.668,-55.3235 L 538.046,-54.7639 L 537.359,-54.3627
 L 467.964,-22.6073 L 467.172,-22.3407 L 466.341,-22.2448 z
M 317.282,-20.0671 L 316.464,-20.241 L 315.7,-20.5811 L 315.023,-21.0726 L 314.464,-21.6941 L 314.046,-22.4183
 L 313.787,-23.2136 L 313.7,-24.0452 L 313.7,-55.9548 L 313.726,-56.4138 L 313.909,-57.2299 L 314.257,-57.9903
 L 314.755,-58.6617 L 315.382,-59.2148 L 316.111,-59.6255 L 316.909,-59.8757 L 317.741,-59.9546 L 318.572,-59.8586
 L 319.364,-59.592 L 354.23,-43.6373 L 354.884,-43.2601 L 355.511,-42.7069 L 356.009,-42.0355 L 356.357,-41.2751
 L 356.539,-40.459 L 356.548,-39.6228 L 356.383,-38.8031 L 356.05,-38.0357 L 355.566,-37.3542 L 354.95,-36.7883
 L 354.23,-36.3627 L 319.364,-20.408 L 318.936,-20.241 L 318.118,-20.0671 z
M 439.428,-20.1414 L 438.636,-20.408 L 403.77,-36.3627 L 403.116,-36.7399 L 402.489,-37.2931 L 401.991,-37.9645
 L 401.643,-38.7249 L 401.461,-39.541 L 401.452,-40.3772 L 401.617,-41.1969 L 401.95,-41.9643 L 402.434,-42.6458
 L 403.05,-43.2117 L 403.77,-43.6373 L 438.636,-59.592 L 439.064,-59.759 L 439.882,-59.9329 L 440.718,-59.9329
 L 441.536,-59.759 L 442.3,-59.4189 L 442.977,-58.9274 L 443.536,-58.3059 L 443.954,-57.5817 L 444.213,-56.7864
 L 444.3,-55.9548 L 444.3,-24.0452 L 444.274,-23.5862 L 444.091,-22.7701 L 443.743,-22.0097 L 443.245,-21.3383
 L 442.618,-20.7852 L 441.889,-20.3745 L 441.091,-20.1243 L 440.259,-20.0454 z
M 169.1,-18 L 167.864,-18.1958 L 167.1,-18.5359 L 166.423,-19.0274 L 165.864,-19.6489 L 165.446,-20.373
 L 165.187,-21.1684 L 165.1,-22 L 165.1,-53.7554 L 165.126,-54.2144 L 165.309,-55.0305 L 165.657,-55.7909
 L 166.155,-56.4624 L 166.782,-57.0155 L 167.511,-57.4261 L 168.309,-57.6764 L 169.141,-57.7552 L 169.972,-57.6593
 L 170.764,-57.3927 L 240.159,-25.6373 L 240.846,-25.2361 L 241.468,-24.6765 L 241.959,-24 L 242.299,-23.2361
 L 242.473,-22.4181 L 242.473,-21.5819 L 242.299,-20.7639 L 241.959,-20 L 241.468,-19.3235 L 240.846,-18.7639
 L 240.122,-18.3458 L 239.327,-18.0874 L 238.495,-18 z
M 519.505,-18 L 518.673,-18.0874 L 517.878,-18.3458 L 517.154,-18.7639 L 516.532,-19.3235 L 516.041,-20
 L 515.701,-20.7639 L 515.527,-21.5819 L 515.527,-22.4181 L 515.701,-23.2361 L 516.041,-24 L 516.532,-24.6765
 L 517.154,-25.2361 L 517.841,-25.6373 L 587.236,-57.3927 L 588.028,-57.6593 L 588.859,-57.7552 L 589.691,-57.6764
 L 590.489,-57.4261 L 591.218,-57.0155 L 591.845,-56.4624 L 592.343,-55.7909 L 592.691,-55.0305 L 592.874,-54.2144
 L 592.9,-53.7554 L 592.9,-22 L 592.813,-21.1684 L 592.554,-20.373 L 592.136,-19.6489 L 591.577,-19.0274
 L 590.9,-18.5359 L 590.136,-18.1958 L 588.9,-18 z
M 22,-18 L 20.7639,-18.1958 L 20,-18.5359 L 19.3235,-19.0274 L 18.7639,-19.6489 L 18.3458,-20.373
 L 18.0874,-21.1684 L 18,-22 L 18,-53.069 L 18.0264,-53.528 L 18.2087,-54.3441 L 18.5566,-55.1045
 L 19.0551,-55.776 L 19.6823,-56.3291 L 20.4107,-56.7397 L 21.2086,-56.99 L 22.0411,-57.0688 L 22.8718,-56.9729
 L 23.6644,-56.7063 L 91.5594,-25.6373 L 92.2461,-25.2361 L 92.8675,-24.6765 L 93.3591,-24 L 93.6992,-23.2361
 L 93.873,-22.4181 L 93.873,-21.5819 L 93.6992,-20.7639 L 93.3591,-20 L 92.8675,-19.3235 L 92.2461,-18.7639
 L 91.5219,-18.3458 L 90.7266,-18.0874 L 89.895,-18 z
M 668.105,-18 L 667.273,-18.0874 L 666.478,-18.3458 L 665.754,-18.7639 L 665.132,-19.3235 L 664.641,-20
 L 664.301,-20.7639 L 664.127,-21.5819 L 664.127,-22.4181 L 664.301,-23.2361 L 664.641,-24 L 665.132,-24.6765
 L 665.754,-25.2361 L 666.441,-25.6373 L 734.336,-56.7063 L 735.128,-56.9729 L 735.959,-57.0688 L 736.791,-56.99
 L 737.589,-56.7397 L 738.318,-56.3291 L 738.945,-55.776 L 739.443,-55.1045 L 739.791,-54.3441 L 739.974,-53.528
 L 740,-53.069 L 740,-22 L 739.913,-21.1684 L 739.654,-20.373 L 739.236,-19.6489 L 738.677,-19.0274
 L 738,-18.5359 L 737.236,-18.1958 L 736,-18 z
M 366.099,-18 L 365.307,-18.0791 L 364.51,-18.3293 L 363.781,-18.7399 L 363.154,-19.2931 L 362.655,-19.9645
 L 362.307,-20.7249 L 362.125,-21.541 L 362.117,-22.3772 L 362.282,-23.1969 L 362.614,-23.9643 L 363.099,-24.6458
 L 363.715,-25.2117 L 364.434,-25.6373 L 377.336,-31.5409 L 378.209,-31.8246 L 379.041,-31.9034 L 379.872,-31.8075
 L 380.664,-31.5409 L 393.566,-25.6373 L 394.252,-25.2361 L 394.874,-24.6765 L 395.365,-24 L 395.705,-23.2361
 L 395.879,-22.4181 L 395.879,-21.5819 L 395.705,-20.7639 L 395.365,-20 L 394.874,-19.3235 L 394.252,-18.7639
 L 393.528,-18.3458 L 392.733,-18.0874 L 391.901,-18 z
" stroke="black" fill="lightgray" stroke-width="0.5"/>
</svg>
