<?xml version="1.0" standalone="no"?>
<!DOCTYPE svg PUBLIC "-//W3C//DTD SVG 1.1//EN" "http://www.w3.org/Graphics/SVG/1.1/DTD/svg11.dtd">
<svg width="497mm" height="80mm" viewBox="0 -80 497 80" xmlns="http://www.w3.org/2000/svg" version="1.1">
<title>OpenSCAD Model</title>
<path d="
M 497,-80 L 0,-80 L 0,-0 L 4.95,-0 L 4.95,-6 L 5.00572,-6.53017
 L 5.17046,-7.03717 L 5.437,-7.49884 L 5.79372,-7.895 L 6.22499,-8.20836 L 6.71201,-8.42519 L 7.23344,-8.53603
 L 7.76654,-8.53603 L 8.28798,-8.42519 L 8.77499,-8.20836 L 9.20627,-7.895 L 9.56299,-7.49884 L 9.82953,-7.03717
 L 9.99426,-6.53017 L 10.05,-6 L 10.05,-0 L 125.45,-0 L 125.45,-6 L 125.506,-6.53017
 L 125.67,-7.03717 L 125.937,-7.49884 L 126.294,-7.895 L 126.725,-8.20836 L 127.212,-8.42519 L 127.733,-8.53603
 L 128.267,-8.53603 L 128.788,-8.42519 L 129.275,-8.20836 L 129.706,-7.895 L 130.063,-7.49884 L 130.33,-7.03717
 L 130.494,-6.53017 L 130.55,-6 L 130.55,-0 L 245.95,-0 L 245.95,-6 L 246.006,-6.53017
 L 246.17,-7.03717 L 246.437,-7.49884 L 246.794,-7.895 L 247.225,-8.20836 L 247.712,-8.42519 L 248.233,-8.53603
 L 248.767,-8.53603 L 249.288,-8.42519 L 249.775,-8.20836 L 250.206,-7.895 L 250.563,-7.49884 L 250.83,-7.03717
 L 250.994,-6.53017 L 251.05,-6 L 251.05,-0 L 366.45,-0 L 366.45,-6 L 366.506,-6.53017
 L 366.67,-7.03717 L 366.937,-7.49884 L 367.294,-7.895 L 367.725,-8.20836 L 368.212,-8.42519 L 368.733,-8.53603
 L 369.267,-8.53603 L 369.788,-8.42519 L 370.275,-8.20836 L 370.706,-7.895 L 371.063,-7.49884 L 371.33,-7.03717
 L 371.494,-6.53017 L 371.55,-6 L 371.55,-0 L 486.95,-0 L 486.95,-6 L 487.006,-6.53017
 L 487.17,-7.03717 L 487.437,-7.49884 L 487.794,-7.895 L 488.225,-8.20836 L 488.712,-8.42519 L 489.233,-8.53603
 L 489.767,-8.53603 L 490.288,-8.42519 L 490.775,-8.20836 L 491.206,-7.895 L 491.563,-7.49884 L 491.83,-7.03717
 L 491.994,-6.53017 L 492.05,-6 L 492.05,-0 L 497,-0 z
M 6.98573,-55.607 L 6.47708,-55.6875 L 5.97964,-55.8208 L 5.49887,-56.0054 L 5.04001,-56.2392 L 4.60811,-56.5196
 L 4.20789,-56.8437 L 3.84373,-57.2079 L 3.51964,-57.6081 L 3.23917,-58.04 L 3.00537,-58.4989 L 2.82082,-58.9796
 L 2.68752,-59.4771 L 2.60696,-59.9857 L 2.58,-60.5 L 2.60696,-61.0143 L 2.68752,-61.5229 L 2.82082,-62.0204
 L 3.00537,-62.5011 L 3.23917,-62.96 L 3.51964,-63.3919 L 3.84373,-63.7921 L 4.20789,-64.1563 L 4.60811,-64.4804
 L 4.95001,-64.7024 L 4.95001,-74 L 5.00574,-74.5302 L 5.17047,-75.0372 L 5.43701,-75.4988 L 5.79373,-75.895
 L 6.22501,-76.2084 L 6.71202,-76.4252 L 7.23346,-76.536 L 7.76654,-76.536 L 8.28798,-76.4252 L 8.77499,-76.2084
 L 9.20627,-75.895 L 9.56299,-75.4988 L 9.82953,-75.0372 L 9.99426,-74.5302 L 10.05,-74 L 10.05,-64.7024
 L 10.3919,-64.4804 L 10.7921,-64.1563 L 11.1563,-63.7921 L 11.4804,-63.3919 L 11.7608,-62.96 L 11.9946,-62.5011
 L 12.1792,-62.0204 L 12.3125,-61.5229 L 12.393,-61.0143 L 12.42,-60.5 L 12.393,-59.9857 L 12.3125,-59.4771
 L 12.1792,-58.9796 L 11.9946,-58.4989 L 11.7608,-58.04 L 11.4804,-57.6081 L 11.1563,-57.2079 L 10.7921,-56.8437
 L 10.3919,-56.5196 L 9.95999,-56.2392 L 9.50113,-56.0054 L 9.02036,-55.8208 L 8.52292,-55.6875 L 8.01427,-55.607
 L 7.5,-55.58 z
M 127.486,-55.607 L 126.977,-55.6875 L 126.48,-55.8208 L 125.999,-56.0054 L 125.54,-56.2392 L 125.108,-56.5196
 L 124.708,-56.8437 L 124.344,-57.2079 L 124.02,-57.6081 L 123.739,-58.04 L 123.505,-58.4989 L 123.321,-58.9796
 L 123.188,-59.4771 L 123.107,-59.9857 L 123.08,-60.5 L 123.107,-61.0143 L 123.188,-61.5229 L 123.321,-62.0204
 L 123.505,-62.5011 L 123.739,-62.96 L 124.02,-63.3919 L 124.344,-63.7921 L 124.708,-64.1563 L 125.108,-64.4804
 L 125.45,-64.7024 L 125.45,-74 L 125.506,-74.5302 L 125.67,-75.0372 L 125.937,-75.4988 L 126.294,-75.895
 L 126.725,-76.2084 L 127.212,-76.4252 L 127.733,-76.536 L 128.267,-76.536 L 128.788,-76.4252 L 129.275,-76.2084
 L 129.706,-75.895 L 130.063,-75.4988 L 130.33,-75.0372 L 130.494,-74.5302 L 130.55,-74 L 130.55,-64.7024
 L 130.892,-64.4804 L 131.292,-64.1563 L 131.656,-63.7921 L 131.98,-63.3919 L 132.261,-62.96 L 132.495,-62.5011
 L 132.679,-62.0204 L 132.812,-61.5229 L 132.893,-61.0143 L 132.92,-60.5 L 132.893,-59.9857 L 132.812,-59.4771
 L 132.679,-58.9796 L 132.495,-58.4989 L 132.261,-58.04 L 131.98,-57.6081 L 131.656,-57.2079 L 131.292,-56.8437
 L 130.892,-56.5196 L 130.46,-56.2392 L 130.001,-56.0054 L 129.52,-55.8208 L 129.023,-55.6875 L 128.514,-55.607
 L 128,-55.58 z
M 247.986,-55.607 L 247.477,-55.6875 L 246.98,-55.8208 L 246.499,-56.0054 L 246.04,-56.2392 L 245.608,-56.5196
 L 245.208,-56.8437 L 244.844,-57.2079 L 244.52,-57.6081 L 244.239,-58.04 L 244.005,-58.4989 L 243.821,-58.9796
 L 243.688,-59.4771 L 243.607,-59.9857 L 243.58,-60.5 L 243.607,-61.0143 L 243.688,-61.5229 L 243.821,-62.0204
 L 244.005,-62.5011 L 244.239,-62.96 L 244.52,-63.3919 L 244.844,-63.7921 L 245.208,-64.1563 L 245.608,-64.4804
 L 245.95,-64.7024 L 245.95,-74 L 246.006,-74.5302 L 246.17,-75.0372 L 246.437,-75.4988 L 246.794,-75.895
 L 247.225,-76.2084 L 247.712,-76.4252 L 248.233,-76.536 L 248.767,-76.536 L 249.288,-76.4252 L 249.775,-76.2084
 L 250.206,-75.895 L 250.563,-75.4988 L 250.83,-75.0372 L 250.994,-74.5302 L 251.05,-74 L 251.05,-64.7024
 L 251.392,-64.4804 L 251.792,-64.1563 L 252.156,-63.7921 L 252.48,-63.3919 L 252.761,-62.96 L 252.995,-62.5011
 L 253.179,-62.0204 L 253.312,-61.5229 L 253.393,-61.0143 L 253.42,-60.5 L 253.393,-59.9857 L 253.312,-59.4771
 L 253.179,-58.9796 L 252.995,-58.4989 L 252.761,-58.04 L 252.48,-57.6081 L 252.156,-57.2079 L 251.792,-56.8437
 L 251.392,-56.5196 L 250.96,-56.2392 L 250.501,-56.0054 L 250.02,-55.8208 L 249.523,-55.6875 L 249.014,-55.607
 L 248.5,-55.58 z
M 368.486,-55.607 L 367.977,-55.6875 L 367.48,-55.8208 L 366.999,-56.0054 L 366.54,-56.2392 L 366.108,-56.5196
 L 365.708,-56.8437 L 365.344,-57.2079 L 365.02,-57.6081 L 364.739,-58.04 L 364.505,-58.4989 L 364.321,-58.9796
 L 364.188,-59.4771 L 364.107,-59.9857 L 364.08,-60.5 L 364.107,-61.0143 L 364.188,-61.5229 L 364.321,-62.0204
 L 364.505,-62.5011 L 364.739,-62.96 L 365.02,-63.3919 L 365.344,-63.7921 L 365.708,-64.1563 L 366.108,-64.4804
 L 366.45,-64.7024 L 366.45,-74 L 366.506,-74.5302 L 366.67,-75.0372 L 366.937,-75.4988 L 367.294,-75.895
 L 367.725,-76.2084 L 368.212,-76.4252 L 368.733,-76.536 L 369.267,-76.536 L 369.788,-76.4252 L 370.275,-76.2084
 L 370.706,-75.895 L 371.063,-75.4988 L 371.33,-75.0372 L 371.494,-74.5302 L 371.55,-74 L 371.55,-64.7024
 L 371.892,-64.4804 L 372.292,-64.1563 L 372.656,-63.7921 L 372.98,-63.3919 L 373.261,-62.96 L 373.495,-62.5011
 L 373.679,-62.0204 L 373.812,-61.5229 L 373.893,-61.0143 L 373.92,-60.5 L 373.893,-59.9857 L 373.812,-59.4771
 L 373.679,-58.9796 L 373.495,-58.4989 L 373.261,-58.04 L 372.98,-57.6081 L 372.656,-57.2079 L 372.292,-56.8437
 L 371.892,-56.5196 L 371.46,-56.2392 L 371.001,-56.0054 L 370.52,-55.8208 L 370.023,-55.6875 L 369.514,-55.607
 L 369,-55.58 z
M 488.986,-55.607 L 488.477,-55.6875 L 487.98,-55.8208 L 487.499,-56.0054 L 487.04,-56.2392 L 486.608,-56.5196
 L 486.208,-56.8437 L 485.844,-57.2079 L 485.52,-57.6081 L 485.239,-58.04 L 485.005,-58.4989 L 484.821,-58.9796
 L 484.688,-59.4771 L 484.607,-59.9857 L 484.58,-60.5 L 484.607,-61.0143 L 484.688,-61.5229 L 484.821,-62.0204
 L 485.005,-62.5011 L 485.239,-62.96 L 485.52,-63.3919 L 485.844,-63.7921 L 486.208,-64.1563 L 486.608,-64.4804
 L 486.95,-64.7024 L 486.95,-74 L 487.006,-74.5302 L 487.17,-75.0372 L 487.437,-75.4988 L 487.794,-75.895
 L 488.225,-76.2084 L 488.712,-76.4252 L 489.233,-76.536 L 489.767,-76.536 L 490.288,-76.4252 L 490.775,-76.2084
 L 491.206,-75.895 L 491.563,-75.4988 L 491.83,-75.0372 L 491.994,-74.5302 L 492.05,-74 L 492.05,-64.7024
 L 492.392,-64.4804 L 492.792,-64.1563 L 493.156,-63.7921 L 493.48,-63.3919 L 493.761,-62.96 L 493.995,-62.5011
 L 494.179,-62.0204 L 494.312,-61.5229 L 494.393,-61.0143 L 494.42,-60.5 L 494.393,-59.9857 L 494.312,-59.4771
 L 494.179,-58.9796 L 493.995,-58.4989 L 493.761,-58.04 L 493.48,-57.6081 L 493.156,-57.2079 L 492.792,-56.8437
 L 492.392,-56.5196 L 491.96,-56.2392 L 491.501,-56.0054 L 491.02,-55.8208 L 490.523,-55.6875 L 490.014,-55.607
 L 489.5,-55.58 z
M 261.043,-24.2887 L 260.227,-24.4706 L 259.466,-24.8182 L 258.794,-25.3163 L 258.241,-25.9433 L 257.83,-26.6715
 L 257.579,-27.4693 L 257.5,-28.2625 L 257.5,-58 L 257.587,-58.8316 L 257.846,-59.627 L 258.264,-60.3511
 L 258.823,-60.9726 L 259.5,-61.4641 L 260.264,-61.8042 L 261.5,-62 L 314.197,-62 L 315.028,-61.9126
 L 315.824,-61.6542 L 316.548,-61.2361 L 317.169,-60.6765 L 317.661,-60 L 318.001,-59.2361 L 318.175,-58.4181
 L 318.175,-57.5819 L 318.001,-56.7639 L 317.661,-56 L 317.169,-55.3235 L 316.548,-54.7639 L 316.163,-54.5164
 L 263.466,-24.7789 L 262.699,-24.4463 L 261.879,-24.2805 z
M 234.301,-24.4463 L 233.534,-24.7789 L 180.837,-54.5164 L 180.452,-54.7639 L 179.831,-55.3235 L 179.339,-56
 L 178.999,-56.7639 L 178.825,-57.5819 L 178.825,-58.4181 L 178.999,-59.2361 L 179.339,-60 L 179.831,-60.6765
 L 180.452,-61.2361 L 181.176,-61.6542 L 181.972,-61.9126 L 182.803,-62 L 235.5,-62 L 236.736,-61.8042
 L 237.5,-61.4641 L 238.177,-60.9726 L 238.736,-60.3511 L 239.154,-59.627 L 239.413,-58.8316 L 239.5,-58
 L 239.5,-28.2625 L 239.421,-27.4693 L 239.17,-26.6715 L 238.759,-25.9433 L 238.206,-25.3163 L 237.534,-24.8182
 L 236.773,-24.4706 L 235.957,-24.2887 L 235.121,-24.2805 z
M 381.543,-24.2887 L 380.727,-24.4706 L 379.966,-24.8182 L 379.294,-25.3163 L 378.741,-25.9433 L 378.33,-26.6715
 L 378.079,-27.4693 L 378,-28.2625 L 378,-58 L 378.087,-58.8316 L 378.346,-59.627 L 378.764,-60.3511
 L 379.323,-60.9726 L 380,-61.4641 L 380.764,-61.8042 L 382,-62 L 434.697,-62 L 435.528,-61.9126
 L 436.324,-61.6542 L 437.048,-61.2361 L 437.669,-60.6765 L 438.161,-60 L 438.501,-59.2361 L 438.675,-58.4181
 L 438.675,-57.5819 L 438.501,-56.7639 L 438.161,-56 L 437.669,-55.3235 L 437.048,-54.7639 L 436.663,-54.5164
 L 383.966,-24.7789 L 383.199,-24.4463 L 382.379,-24.2805 z
M 113.801,-24.4463 L 113.034,-24.7789 L 60.3375,-54.5164 L 59.9522,-54.7639 L 59.3308,-55.3235 L 58.8392,-56
 L 58.4991,-56.7639 L 58.3253,-57.5819 L 58.3253,-58.4181 L 58.4991,-59.2361 L 58.8392,-60 L 59.3308,-60.6765
 L 59.9522,-61.2361 L 60.6764,-61.6542 L 61.4717,-61.9126 L 62.3033,-62 L 115,-62 L 116.236,-61.8042
 L 117,-61.4641 L 117.677,-60.9726 L 118.236,-60.3511 L 118.654,-59.627 L 118.913,-58.8316 L 119,-58
 L 119,-28.2625 L 118.921,-27.4693 L 118.67,-26.6715 L 118.259,-25.9433 L 117.706,-25.3163 L 117.034,-24.8182
 L 116.273,-24.4706 L 115.457,-24.2887 L 114.621,-24.2805 z
M 303.303,-18 L 302.472,-18.0874 L 301.676,-18.3458 L 300.952,-18.7639 L 300.331,-19.3235 L 299.839,-20
 L 299.499,-20.7639 L 299.325,-21.5819 L 299.325,-22.4181 L 299.499,-23.2361 L 299.839,-24 L 300.331,-24.6765
 L 300.952,-25.2361 L 301.337,-25.4836 L 354.034,-55.2211 L 354.801,-55.5537 L 355.621,-55.7195 L 356.457,-55.7113
 L 357.273,-55.5294 L 358.034,-55.1818 L 358.706,-54.6836 L 359.259,-54.0567 L 359.67,-53.3285 L 359.921,-52.5307
 L 360,-51.7375 L 360,-22 L 359.913,-21.1684 L 359.654,-20.373 L 359.236,-19.6489 L 358.677,-19.0274
 L 358,-18.5359 L 357.236,-18.1958 L 356,-18 z
M 141,-18 L 139.764,-18.1958 L 139,-18.5359 L 138.323,-19.0274 L 137.764,-19.6489 L 137.346,-20.373
 L 137.087,-21.1684 L 137,-22 L 137,-51.7375 L 137.079,-52.5307 L 137.33,-53.3285 L 137.741,-54.0567
 L 138.294,-54.6836 L 138.966,-55.1818 L 139.727,-55.5294 L 140.543,-55.7113 L 141.379,-55.7195 L 142.199,-55.5537
 L 142.966,-55.2211 L 195.663,-25.4836 L 196.048,-25.2361 L 196.669,-24.6765 L 197.161,-24 L 197.501,-23.2361
 L 197.675,-22.4181 L 197.675,-21.5819 L 197.501,-20.7639 L 197.161,-20 L 196.669,-19.3235 L 196.048,-18.7639
 L 195.324,-18.3458 L 194.528,-18.0874 L 193.697,-18 z
M 22,-18 L 20.7639,-18.1958 L 20,-18.5359 L 19.3235,-19.0274 L 18.7639,-19.6489 L 18.3458,-20.373
 L 18.0874,-21.1684 L 18,-22 L 18,-50.8911 L 18.0794,-51.6842 L 18.33,-52.482 L 18.741,-53.2103
 L 19.2944,-53.8372 L 19.966,-54.3353 L 20.7266,-54.6829 L 21.5428,-54.8648 L 22.379,-54.8731 L 23.1986,-54.7072
 L 23.9659,-54.3746 L 75.1625,-25.4836 L 75.5478,-25.2361 L 76.1692,-24.6765 L 76.6608,-24 L 77.0009,-23.2361
 L 77.1747,-22.4181 L 77.1747,-21.5819 L 77.0009,-20.7639 L 76.6608,-20 L 76.1692,-19.3235 L 75.5478,-18.7639
 L 74.8236,-18.3458 L 74.0283,-18.0874 L 73.1967,-18 z
M 423.803,-18 L 422.972,-18.0874 L 422.176,-18.3458 L 421.452,-18.7639 L 420.831,-19.3235 L 420.339,-20
 L 419.999,-20.7639 L 419.825,-21.5819 L 419.825,-22.4181 L 419.999,-23.2361 L 420.339,-24 L 420.831,-24.6765
 L 421.452,-25.2361 L 421.837,-25.4836 L 473.034,-54.3746 L 473.801,-54.7072 L 474.621,-54.8731 L 475.457,-54.8648
 L 476.273,-54.6829 L 477.034,-54.3353 L 477.706,-53.8372 L 478.259,-53.2103 L 478.67,-52.482 L 478.921,-51.6842
 L 479,-50.8911 L 479,-22 L 478.913,-21.1684 L 478.654,-20.373 L 478.236,-19.6489 L 477.677,-19.0274
 L 477,-18.5359 L 476.236,-18.1958 L 475,-18 z
" stroke="black" fill="lightgray" stroke-width="0.5"/>
</svg>
