<?xml version="1.0" standalone="no"?>
<!DOCTYPE svg PUBLIC "-//W3C//DTD SVG 1.1//EN" "http://www.w3.org/Graphics/SVG/1.1/DTD/svg11.dtd">
<svg width="926mm" height="80mm" viewBox="0 -80 926 80" xmlns="http://www.w3.org/2000/svg" version="1.1">
<title>OpenSCAD Model</title>
<path d="
M 926,-80 L 0,-80 L 0,-0 L 4.95,-0 L 4.95,-6 L 5.00572,-6.53017
 L 5.17046,-7.03717 L 5.437,-7.49884 L 5.79372,-7.895 L 6.22499,-8.20836 L 6.71201,-8.42519 L 7.23344,-8.53603
 L 7.76654,-8.53603 L 8.28798,-8.42519 L 8.77499,-8.20836 L 9.20627,-7.895 L 9.56299,-7.49884 L 9.82953,-7.03717
 L 9.99426,-6.53017 L 10.05,-6 L 10.05,-0 L 187.15,-0 L 187.15,-6 L 187.206,-6.53017
 L 187.37,-7.03717 L 187.637,-7.49884 L 187.994,-7.895 L 188.425,-8.20836 L 188.912,-8.42519 L 189.433,-8.53603
 L 189.967,-8.53603 L 190.488,-8.42519 L 190.975,-8.20836 L 191.406,-7.895 L 191.763,-7.49884 L 192.03,-7.03717
 L 192.194,-6.53017 L 192.25,-6 L 192.25,-0 L 369.35,-0 L 369.35,-6 L 369.406,-6.53017
 L 369.57,-7.03717 L 369.837,-7.49884 L 370.194,-7.895 L 370.625,-8.20836 L 371.112,-8.42519 L 371.633,-8.53603
 L 372.167,-8.53603 L 372.688,-8.42519 L 373.175,-8.20836 L 373.606,-7.895 L 373.963,-7.49884 L 374.23,-7.03717
 L 374.394,-6.53017 L 374.45,-6 L 374.45,-0 L 551.55,-0 L 551.55,-6 L 551.606,-6.53017
 L 551.77,-7.03717 L 552.037,-7.49884 L 552.394,-7.895 L 552.825,-8.20836 L 553.312,-8.42519 L 553.833,-8.53603
 L 554.367,-8.53603 L 554.888,-8.42519 L 555.375,-8.20836 L 555.806,-7.895 L 556.163,-7.49884 L 556.43,-7.03717
 L 556.594,-6.53017 L 556.65,-6 L 556.65,-0 L 733.75,-0 L 733.75,-6 L 733.806,-6.53017
 L 733.97,-7.03717 L 734.237,-7.49884 L 734.594,-7.895 L 735.025,-8.20836 L 735.512,-8.42519 L 736.033,-8.53603
 L 736.567,-8.53603 L 737.088,-8.42519 L 737.575,-8.20836 L 738.006,-7.895 L 738.363,-7.49884 L 738.63,-7.03717
 L 738.794,-6.53017 L 738.85,-6 L 738.85,-0 L 915.95,-0 L 915.95,-6 L 916.006,-6.53017
 L 916.17,-7.03717 L 916.437,-7.49884 L 916.794,-7.895 L 917.225,-8.20836 L 917.712,-8.42519 L 918.233,-8.53603
 L 918.767,-8.53603 L 919.288,-8.42519 L 919.775,-8.20836 L 920.206,-7.895 L 920.563,-7.49884 L 920.83,-7.03717
 L 920.994,-6.53017 L 921.05,-6 L 921.05,-0 L 926,-0 z
M 6.98573,-55.607 L 6.47708,-55.6875 L 5.97964,-55.8208 L 5.49887,-56.0054 L 5.04001,-56.2392 L 4.60811,-56.5196
 L 4.20789,-56.8437 L 3.84373,-57.2079 L 3.51964,-57.6081 L 3.23917,-58.04 L 3.00537,-58.4989 L 2.82082,-58.9796
 L 2.68752,-59.4771 L 2.60696,-59.9857 L 2.58,-60.5 L 2.60696,-61.0143 L 2.68752,-61.5229 L 2.82082,-62.0204
 L 3.00537,-62.5011 L 3.23917,-62.96 L 3.51964,-63.3919 L 3.84373,-63.7921 L 4.20789,-64.1563 L 4.60811,-64.4804
 L 4.95001,-64.7024 L 4.95001,-74 L 5.00574,-74.5302 L 5.17047,-75.0372 L 5.43701,-75.4988 L 5.79373,-75.895
 L 6.22501,-76.2084 L 6.71202,-76.4252 L 7.23346,-76.536 L 7.76654,-76.536 L 8.28798,-76.4252 L 8.77499,-76.2084
 L 9.20627,-75.895 L 9.56299,-75.4988 L 9.82953,-75.0372 L 9.99426,-74.5302 L 10.05,-74 L 10.05,-64.7024
 L 10.3919,-64.4804 L 10.7921,-64.1563 L 11.1563,-63.7921 L 11.4804,-63.3919 L 11.7608,-62.96 L 11.9946,-62.5011
 L 12.1792,-62.0204 L 12.3125,-61.5229 L 12.393,-61.0143 L 12.42,-60.5 L 12.393,-59.9857 L 12.3125,-59.4771
 L 12.1792,-58.9796 L 11.9946,-58.4989 L 11.7608,-58.04 L 11.4804,-57.6081 L 11.1563,-57.2079 L 10.7921,-56.8437
 L 10.3919,-56.5196 L 9.95999,-56.2392 L 9.50113,-56.0054 L 9.02036,-55.8208 L 8.52292,-55.6875 L 8.01427,-55.607
 L 7.5,-55.58 z
M 189.186,-55.607 L 188.677,-55.6875 L 188.18,-55.8208 L 187.699,-56.0054 L 187.24,-56.2392 L 186.808,-56.5196
 L 186.408,-56.8437 L 186.044,-57.2079 L 185.72,-57.6081 L 185.439,-58.04 L 185.205,-58.4989 L 185.021,-58.9796
 L 184.888,-59.4771 L 184.807,-59.9857 L 184.78,-60.5 L 184.807,-61.0143 L 184.888,-61.5229 L 185.021,-62.0204
 L 185.205,-62.5011 L 185.439,-62.96 L 185.72,-63.3919 L 186.044,-63.7921 L 186.408,-64.1563 L 186.808,-64.4804
 L 187.15,-64.7024 L 187.15,-74 L 187.206,-74.5302 L 187.37,-75.0372 L 187.637,-75.4988 L 187.994,-75.895
 L 188.425,-76.2084 L 188.912,-76.4252 L 189.433,-76.536 L 189.967,-76.536 L 190.488,-76.4252 L 190.975,-76.2084
 L 191.406,-75.895 L 191.763,-75.4988 L 192.03,-75.0372 L 192.194,-74.5302 L 192.25,-74 L 192.25,-64.7024
 L 192.592,-64.4804 L 192.992,-64.1563 L 193.356,-63.7921 L 193.68,-63.3919 L 193.961,-62.96 L 194.195,-62.5011
 L 194.379,-62.0204 L 194.512,-61.5229 L 194.593,-61.0143 L 194.62,-60.5 L 194.593,-59.9857 L 194.512,-59.4771
 L 194.379,-58.9796 L 194.195,-58.4989 L 193.961,-58.04 L 193.68,-57.6081 L 193.356,-57.2079 L 192.992,-56.8437
 L 192.592,-56.5196 L 192.16,-56.2392 L 191.701,-56.0054 L 191.22,-55.8208 L 190.723,-55.6875 L 190.214,-55.607
 L 189.7,-55.58 z
M 371.386,-55.607 L 370.877,-55.6875 L 370.38,-55.8208 L 369.899,-56.0054 L 369.44,-56.2392 L 369.008,-56.5196
 L 368.608,-56.8437 L 368.244,-57.2079 L 367.92,-57.6081 L 367.639,-58.04 L 367.405,-58.4989 L 367.221,-58.9796
 L 367.088,-59.4771 L 367.007,-59.9857 L 366.98,-60.5 L 367.007,-61.0143 L 367.088,-61.5229 L 367.221,-62.0204
 L 367.405,-62.5011 L 367.639,-62.96 L 367.92,-63.3919 L 368.244,-63.7921 L 368.608,-64.1563 L 369.008,-64.4804
 L 369.35,-64.7024 L 369.35,-74 L 369.406,-74.5302 L 369.57,-75.0372 L 369.837,-75.4988 L 370.194,-75.895
 L 370.625,-76.2084 L 371.112,-76.4252 L 371.633,-76.536 L 372.167,-76.536 L 372.688,-76.4252 L 373.175,-76.2084
 L 373.606,-75.895 L 373.963,-75.4988 L 374.23,-75.0372 L 374.394,-74.5302 L 374.45,-74 L 374.45,-64.7024
 L 374.792,-64.4804 L 375.192,-64.1563 L 375.556,-63.7921 L 375.88,-63.3919 L 376.161,-62.96 L 376.395,-62.5011
 L 376.579,-62.0204 L 376.712,-61.5229 L 376.793,-61.0143 L 376.82,-60.5 L 376.793,-59.9857 L 376.712,-59.4771
 L 376.579,-58.9796 L 376.395,-58.4989 L 376.161,-58.04 L 375.88,-57.6081 L 375.556,-57.2079 L 375.192,-56.8437
 L 374.792,-56.5196 L 374.36,-56.2392 L 373.901,-56.0054 L 373.42,-55.8208 L 372.923,-55.6875 L 372.414,-55.607
 L 371.9,-55.58 z
M 553.586,-55.607 L 553.077,-55.6875 L 552.58,-55.8208 L 552.099,-56.0054 L 551.64,-56.2392 L 551.208,-56.5196
 L 550.808,-56.8437 L 550.444,-57.2079 L 550.12,-57.6081 L 549.839,-58.04 L 549.605,-58.4989 L 549.421,-58.9796
 L 549.288,-59.4771 L 549.207,-59.9857 L 549.18,-60.5 L 549.207,-61.0143 L 549.288,-61.5229 L 549.421,-62.0204
 L 549.605,-62.5011 L 549.839,-62.96 L 550.12,-63.3919 L 550.444,-63.7921 L 550.808,-64.1563 L 551.208,-64.4804
 L 551.55,-64.7024 L 551.55,-74 L 551.606,-74.5302 L 551.77,-75.0372 L 552.037,-75.4988 L 552.394,-75.895
 L 552.825,-76.2084 L 553.312,-76.4252 L 553.833,-76.536 L 554.367,-76.536 L 554.888,-76.4252 L 555.375,-76.2084
 L 555.806,-75.895 L 556.163,-75.4988 L 556.43,-75.0372 L 556.594,-74.5302 L 556.65,-74 L 556.65,-64.7024
 L 556.992,-64.4804 L 557.392,-64.1563 L 557.756,-63.7921 L 558.08,-63.3919 L 558.361,-62.96 L 558.595,-62.5011
 L 558.779,-62.0204 L 558.912,-61.5229 L 558.993,-61.0143 L 559.02,-60.5 L 558.993,-59.9857 L 558.912,-59.4771
 L 558.779,-58.9796 L 558.595,-58.4989 L 558.361,-58.04 L 558.08,-57.6081 L 557.756,-57.2079 L 557.392,-56.8437
 L 556.992,-56.5196 L 556.56,-56.2392 L 556.101,-56.0054 L 555.62,-55.8208 L 555.123,-55.6875 L 554.614,-55.607
 L 554.1,-55.58 z
M 735.786,-55.607 L 735.277,-55.6875 L 734.78,-55.8208 L 734.299,-56.0054 L 733.84,-56.2392 L 733.408,-56.5196
 L 733.008,-56.8437 L 732.644,-57.2079 L 732.32,-57.6081 L 732.039,-58.04 L 731.805,-58.4989 L 731.621,-58.9796
 L 731.488,-59.4771 L 731.407,-59.9857 L 731.38,-60.5 L 731.407,-61.0143 L 731.488,-61.5229 L 731.621,-62.0204
 L 731.805,-62.5011 L 732.039,-62.96 L 732.32,-63.3919 L 732.644,-63.7921 L 733.008,-64.1563 L 733.408,-64.4804
 L 733.75,-64.7024 L 733.75,-74 L 733.806,-74.5302 L 733.97,-75.0372 L 734.237,-75.4988 L 734.594,-75.895
 L 735.025,-76.2084 L 735.512,-76.4252 L 736.033,-76.536 L 736.567,-76.536 L 737.088,-76.4252 L 737.575,-76.2084
 L 738.006,-75.895 L 738.363,-75.4988 L 738.63,-75.0372 L 738.794,-74.5302 L 738.85,-74 L 738.85,-64.7024
 L 739.192,-64.4804 L 739.592,-64.1563 L 739.956,-63.7921 L 740.28,-63.3919 L 740.561,-62.96 L 740.795,-62.5011
 L 740.979,-62.0204 L 741.112,-61.5229 L 741.193,-61.0143 L 741.22,-60.5 L 741.193,-59.9857 L 741.112,-59.4771
 L 740.979,-58.9796 L 740.795,-58.4989 L 740.561,-58.04 L 740.28,-57.6081 L 739.956,-57.2079 L 739.592,-56.8437
 L 739.192,-56.5196 L 738.76,-56.2392 L 738.301,-56.0054 L 737.82,-55.8208 L 737.323,-55.6875 L 736.814,-55.607
 L 736.3,-55.58 z
M 917.986,-55.607 L 917.477,-55.6875 L 916.98,-55.8208 L 916.499,-56.0054 L 916.04,-56.2392 L 915.608,-56.5196
 L 915.208,-56.8437 L 914.844,-57.2079 L 914.52,-57.6081 L 914.239,-58.04 L 914.005,-58.4989 L 913.821,-58.9796
 L 913.688,-59.4771 L 913.607,-59.9857 L 913.58,-60.5 L 913.607,-61.0143 L 913.688,-61.5229 L 913.821,-62.0204
 L 914.005,-62.5011 L 914.239,-62.96 L 914.52,-63.3919 L 914.844,-63.7921 L 915.208,-64.1563 L 915.608,-64.4804
 L 915.95,-64.7024 L 915.95,-74 L 916.006,-74.5302 L 916.17,-75.0372 L 916.437,-75.4988 L 916.794,-75.895
 L 917.225,-76.2084 L 917.712,-76.4252 L 918.233,-76.536 L 918.767,-76.536 L 919.288,-76.4252 L 919.775,-76.2084
 L 920.206,-75.895 L 920.563,-75.4988 L 920.83,-75.0372 L 920.994,-74.5302 L 921.05,-74 L 921.05,-64.7024
 L 921.392,-64.4804 L 921.792,-64.1563 L 922.156,-63.7921 L 922.48,-63.3919 L 922.761,-62.96 L 922.995,-62.5011
 L 923.179,-62.0204 L 923.312,-61.5229 L 923.393,-61.0143 L 923.42,-60.5 L 923.393,-59.9857 L 923.312,-59.4771
 L 923.179,-58.9796 L 922.995,-58.4989 L 922.761,-58.04 L 922.48,-57.6081 L 922.156,-57.2079 L 921.792,-56.8437
 L 921.392,-56.5196 L 920.96,-56.2392 L 920.501,-56.0054 L 920.02,-55.8208 L 919.523,-55.6875 L 919.014,-55.607
 L 918.5,-55.58 z
M 462.411,-47.7738 L 461.601,-47.9827 L 444.802,-54.2525 L 443.85,-54.7639 L 443.228,-55.3235 L 442.737,-56
 L 442.396,-56.7639 L 442.223,-57.5819 L 442.223,-58.4181 L 442.396,-59.2361 L 442.737,-60 L 443.228,-60.6765
 L 443.85,-61.2361 L 444.574,-61.6542 L 445.369,-61.9126 L 446.201,-62 L 479.799,-62 L 480.87,-61.8539
 L 481.648,-61.547 L 482.345,-61.085 L 482.931,-60.4882 L 483.38,-59.7827 L 483.672,-58.9993 L 483.796,-58.1721
 L 483.744,-57.3375 L 483.52,-56.5318 L 483.133,-55.7903 L 482.601,-55.1454 L 481.946,-54.6252 L 481.198,-54.2525
 L 464.399,-47.9827 L 463.247,-47.7378 z
M 358.311,-20.7584 L 357.501,-20.9673 L 268.317,-54.2525 L 267.364,-54.7639 L 266.743,-55.3235 L 266.251,-56
 L 265.911,-56.7639 L 265.737,-57.5819 L 265.737,-58.4181 L 265.911,-59.2361 L 266.251,-60 L 266.743,-60.6765
 L 267.364,-61.2361 L 268.088,-61.6542 L 268.884,-61.9126 L 269.715,-62 L 358.9,-62 L 360.136,-61.8042
 L 360.9,-61.4641 L 361.577,-60.9726 L 362.136,-60.3511 L 362.554,-59.627 L 362.813,-58.8316 L 362.9,-58
 L 362.9,-24.7148 L 362.773,-23.7156 L 362.481,-22.9321 L 362.032,-22.2266 L 361.446,-21.6298 L 360.749,-21.1679
 L 359.971,-20.8609 L 359.147,-20.7224 z
M 748.229,-20.8609 L 747.451,-21.1679 L 746.754,-21.6298 L 746.168,-22.2266 L 745.719,-22.9321 L 745.427,-23.7156
 L 745.3,-24.7148 L 745.3,-58 L 745.387,-58.8316 L 745.646,-59.627 L 746.064,-60.3511 L 746.623,-60.9726
 L 747.3,-61.4641 L 748.064,-61.8042 L 749.3,-62 L 838.485,-62 L 839.316,-61.9126 L 840.112,-61.6542
 L 840.836,-61.2361 L 841.457,-60.6765 L 841.949,-60 L 842.289,-59.2361 L 842.463,-58.4181 L 842.463,-57.5819
 L 842.289,-56.7639 L 841.949,-56 L 841.457,-55.3235 L 840.836,-54.7639 L 839.883,-54.2525 L 750.699,-20.9673
 L 749.889,-20.7584 L 749.053,-20.7224 z
M 176.111,-20.7584 L 175.301,-20.9673 L 86.1167,-54.2525 L 85.1642,-54.7639 L 84.5427,-55.3235 L 84.0512,-56
 L 83.7111,-56.7639 L 83.5372,-57.5819 L 83.5372,-58.4181 L 83.7111,-59.2361 L 84.0512,-60 L 84.5427,-60.6765
 L 85.1642,-61.2361 L 85.8884,-61.6542 L 86.6837,-61.9126 L 87.5153,-62 L 176.7,-62 L 177.936,-61.8042
 L 178.7,-61.4641 L 179.377,-60.9726 L 179.936,-60.3511 L 180.354,-59.627 L 180.613,-58.8316 L 180.7,-58
 L 180.7,-24.7148 L 180.573,-23.7156 L 180.281,-22.9321 L 179.832,-22.2266 L 179.246,-21.6298 L 178.549,-21.1679
 L 177.771,-20.8609 L 176.947,-20.7224 z
M 566.029,-20.8609 L 565.251,-21.1679 L 564.554,-21.6298 L 563.968,-22.2266 L 563.519,-22.9321 L 563.227,-23.7156
 L 563.1,-24.7148 L 563.1,-58 L 563.187,-58.8316 L 563.446,-59.627 L 563.864,-60.3511 L 564.423,-60.9726
 L 565.1,-61.4641 L 565.864,-61.8042 L 567.1,-62 L 656.285,-62 L 657.116,-61.9126 L 657.912,-61.6542
 L 658.636,-61.2361 L 659.257,-60.6765 L 659.749,-60 L 660.089,-59.2361 L 660.263,-58.4181 L 660.263,-57.5819
 L 660.089,-56.7639 L 659.749,-56 L 659.257,-55.3235 L 658.636,-54.7639 L 657.683,-54.2525 L 568.499,-20.9673
 L 567.689,-20.7584 L 566.853,-20.7224 z
M 384.482,-18.604 L 383.664,-18.7778 L 382.9,-19.118 L 382.223,-19.6095 L 381.664,-20.2309 L 381.246,-20.9551
 L 380.987,-21.7504 L 380.9,-22.5821 L 380.9,-57.4179 L 381.027,-58.4172 L 381.319,-59.2006 L 381.768,-59.9062
 L 382.354,-60.5029 L 383.051,-60.9649 L 383.829,-61.2718 L 384.653,-61.4103 L 385.489,-61.3743 L 386.299,-61.1655
 L 432.968,-43.7475 L 433.419,-43.547 L 434.116,-43.085 L 434.702,-42.4882 L 435.151,-41.7827 L 435.443,-40.9993
 L 435.566,-40.1721 L 435.515,-39.3375 L 435.291,-38.5318 L 434.904,-37.7903 L 434.372,-37.1454 L 433.717,-36.6252
 L 432.968,-36.2525 L 386.299,-18.8345 L 385.318,-18.604 z
M 540.511,-18.6256 L 539.701,-18.8345 L 493.031,-36.2525 L 492.581,-36.453 L 491.884,-36.915 L 491.298,-37.5118
 L 490.849,-38.2173 L 490.557,-39.0007 L 490.434,-39.8279 L 490.485,-40.6625 L 490.709,-41.4682 L 491.096,-42.2097
 L 491.628,-42.8546 L 492.283,-43.3748 L 493.031,-43.7475 L 539.701,-61.1655 L 540.682,-61.396 L 541.518,-61.396
 L 542.336,-61.2222 L 543.1,-60.882 L 543.777,-60.3905 L 544.336,-59.7691 L 544.754,-59.0449 L 545.013,-58.2496
 L 545.1,-57.418 L 545.1,-22.582 L 544.973,-21.5828 L 544.681,-20.7994 L 544.232,-20.0938 L 543.646,-19.497
 L 542.949,-19.0351 L 542.171,-18.7281 L 541.347,-18.5896 z
M 202.7,-18 L 201.464,-18.1958 L 200.7,-18.5359 L 200.023,-19.0274 L 199.464,-19.6489 L 199.046,-20.373
 L 198.787,-21.1684 L 198.7,-22 L 198.7,-55.2852 L 198.827,-56.2844 L 199.119,-57.0678 L 199.568,-57.7734
 L 200.154,-58.3702 L 200.851,-58.8321 L 201.629,-59.1391 L 202.453,-59.2776 L 203.289,-59.2416 L 204.099,-59.0327
 L 293.283,-25.7475 L 294.236,-25.2361 L 294.857,-24.6765 L 295.349,-24 L 295.689,-23.2361 L 295.863,-22.4181
 L 295.863,-21.5819 L 295.689,-20.7639 L 295.349,-20 L 294.857,-19.3235 L 294.236,-18.7639 L 293.512,-18.3458
 L 292.716,-18.0874 L 291.885,-18 z
M 634.115,-18 L 633.284,-18.0874 L 632.488,-18.3458 L 631.764,-18.7639 L 631.143,-19.3235 L 630.651,-20
 L 630.311,-20.7639 L 630.137,-21.5819 L 630.137,-22.4181 L 630.311,-23.2361 L 630.651,-24 L 631.143,-24.6765
 L 631.764,-25.2361 L 632.717,-25.7475 L 721.901,-59.0327 L 722.711,-59.2416 L 723.547,-59.2776 L 724.371,-59.1391
 L 725.149,-58.8321 L 725.846,-58.3702 L 726.432,-57.7734 L 726.881,-57.0678 L 727.173,-56.2844 L 727.3,-55.2852
 L 727.3,-22 L 727.213,-21.1684 L 726.954,-20.373 L 726.536,-19.6489 L 725.977,-19.0274 L 725.3,-18.5359
 L 724.536,-18.1958 L 723.3,-18 z
M 22,-18 L 20.7639,-18.1958 L 20,-18.5359 L 19.3235,-19.0274 L 18.7639,-19.6489 L 18.3458,-20.373
 L 18.0874,-21.1684 L 18,-22 L 18,-54.7253 L 18.1268,-55.7246 L 18.4192,-56.508 L 18.8681,-57.2136
 L 19.4539,-57.8103 L 20.1509,-58.2723 L 20.9288,-58.5792 L 21.7535,-58.7177 L 22.5889,-58.6817 L 23.3986,-58.4729
 L 111.083,-25.7475 L 112.036,-25.2361 L 112.657,-24.6765 L 113.149,-24 L 113.489,-23.2361 L 113.663,-22.4181
 L 113.663,-21.5819 L 113.489,-20.7639 L 113.149,-20 L 112.657,-19.3235 L 112.036,-18.7639 L 111.312,-18.3458
 L 110.516,-18.0874 L 109.685,-18 z
M 816.315,-18 L 815.484,-18.0874 L 814.688,-18.3458 L 813.964,-18.7639 L 813.343,-19.3235 L 812.851,-20
 L 812.511,-20.7639 L 812.337,-21.5819 L 812.337,-22.4181 L 812.511,-23.2361 L 812.851,-24 L 813.343,-24.6765
 L 813.964,-25.2361 L 814.917,-25.7475 L 902.601,-58.4729 L 903.411,-58.6817 L 904.247,-58.7177 L 905.071,-58.5792
 L 905.849,-58.2723 L 906.546,-57.8103 L 907.132,-57.2136 L 907.581,-56.508 L 907.873,-55.7246 L 908,-54.7253
 L 908,-22 L 907.913,-21.1684 L 907.654,-20.373 L 907.236,-19.6489 L 906.677,-19.0274 L 906,-18.5359
 L 905.236,-18.1958 L 904,-18 z
M 446.201,-18 L 445.13,-18.1461 L 444.352,-18.453 L 443.655,-18.915 L 443.069,-19.5118 L 442.62,-20.2173
 L 442.328,-21.0007 L 442.204,-21.8279 L 442.256,-22.6625 L 442.48,-23.4682 L 442.866,-24.2097 L 443.399,-24.8546
 L 444.054,-25.3748 L 444.802,-25.7475 L 461.601,-32.0173 L 462.753,-32.2622 L 463.589,-32.2262 L 464.399,-32.0173
 L 481.198,-25.7475 L 482.15,-25.2361 L 482.772,-24.6765 L 483.263,-24 L 483.603,-23.2361 L 483.777,-22.4181
 L 483.777,-21.5819 L 483.603,-20.7639 L 483.263,-20 L 482.772,-19.3235 L 482.15,-18.7639 L 481.426,-18.3458
 L 480.631,-18.0874 L 479.799,-18 z
" stroke="black" fill="lightgray" stroke-width="0.5"/>
</svg>
