<?xml version="1.0" standalone="no"?>
<!DOCTYPE svg PUBLIC "-//W3C//DTD SVG 1.1//EN" "http://www.w3.org/Graphics/SVG/1.1/DTD/svg11.dtd">
<svg width="779mm" height="80mm" viewBox="0 -80 779 80" xmlns="http://www.w3.org/2000/svg" version="1.1">
<title>OpenSCAD Model</title>
<path d="
M 779,-80 L 0,-80 L 0,-0 L 4.95,-0 L 4.95,-6 L 5.00572,-6.53017
 L 5.17046,-7.03717 L 5.437,-7.49884 L 5.79372,-7.895 L 6.22499,-8.20836 L 6.71201,-8.42519 L 7.23344,-8.53603
 L 7.76654,-8.53603 L 8.28798,-8.42519 L 8.77499,-8.20836 L 9.20627,-7.895 L 9.56299,-7.49884 L 9.82953,-7.03717
 L 9.99426,-6.53017 L 10.05,-6 L 10.05,-0 L 157.75,-0 L 157.75,-6 L 157.806,-6.53017
 L 157.97,-7.03717 L 158.237,-7.49884 L 158.594,-7.895 L 159.025,-8.20836 L 159.512,-8.42519 L 160.033,-8.53603
 L 160.567,-8.53603 L 161.088,-8.42519 L 161.575,-8.20836 L 162.006,-7.895 L 162.363,-7.49884 L 162.63,-7.03717
 L 162.794,-6.53017 L 162.85,-6 L 162.85,-0 L 310.55,-0 L 310.55,-6 L 310.606,-6.53017
 L 310.77,-7.03717 L 311.037,-7.49884 L 311.394,-7.895 L 311.825,-8.20836 L 312.312,-8.42519 L 312.833,-8.53603
 L 313.367,-8.53603 L 313.888,-8.42519 L 314.375,-8.20836 L 314.806,-7.895 L 315.163,-7.49884 L 315.43,-7.03717
 L 315.594,-6.53017 L 315.65,-6 L 315.65,-0 L 463.35,-0 L 463.35,-6 L 463.406,-6.53017
 L 463.57,-7.03717 L 463.837,-7.49884 L 464.194,-7.895 L 464.625,-8.20836 L 465.112,-8.42519 L 465.633,-8.53603
 L 466.167,-8.53603 L 466.688,-8.42519 L 467.175,-8.20836 L 467.606,-7.895 L 467.963,-7.49884 L 468.23,-7.03717
 L 468.394,-6.53017 L 468.45,-6 L 468.45,-0 L 616.15,-0 L 616.15,-6 L 616.206,-6.53017
 L 616.37,-7.03717 L 616.637,-7.49884 L 616.994,-7.895 L 617.425,-8.20836 L 617.912,-8.42519 L 618.433,-8.53603
 L 618.967,-8.53603 L 619.488,-8.42519 L 619.975,-8.20836 L 620.406,-7.895 L 620.763,-7.49884 L 621.03,-7.03717
 L 621.194,-6.53017 L 621.25,-6 L 621.25,-0 L 768.95,-0 L 768.95,-6 L 769.006,-6.53017
 L 769.17,-7.03717 L 769.437,-7.49884 L 769.794,-7.895 L 770.225,-8.20836 L 770.712,-8.42519 L 771.233,-8.53603
 L 771.767,-8.53603 L 772.288,-8.42519 L 772.775,-8.20836 L 773.206,-7.895 L 773.563,-7.49884 L 773.83,-7.03717
 L 773.994,-6.53017 L 774.05,-6 L 774.05,-0 L 779,-0 z
M 6.98573,-55.607 L 6.47708,-55.6875 L 5.97964,-55.8208 L 5.49887,-56.0054 L 5.04001,-56.2392 L 4.60811,-56.5196
 L 4.20789,-56.8437 L 3.84373,-57.2079 L 3.51964,-57.6081 L 3.23917,-58.04 L 3.00537,-58.4989 L 2.82082,-58.9796
 L 2.68752,-59.4771 L 2.60696,-59.9857 L 2.58,-60.5 L 2.60696,-61.0143 L 2.68752,-61.5229 L 2.82082,-62.0204
 L 3.00537,-62.5011 L 3.23917,-62.96 L 3.51964,-63.3919 L 3.84373,-63.7921 L 4.20789,-64.1563 L 4.60811,-64.4804
 L 4.95001,-64.7024 L 4.95001,-74 L 5.00574,-74.5302 L 5.17047,-75.0372 L 5.43701,-75.4988 L 5.79373,-75.895
 L 6.22501,-76.2084 L 6.71202,-76.4252 L 7.23346,-76.536 L 7.76654,-76.536 L 8.28798,-76.4252 L 8.77499,-76.2084
 L 9.20627,-75.895 L 9.56299,-75.4988 L 9.82953,-75.0372 L 9.99426,-74.5302 L 10.05,-74 L 10.05,-64.7024
 L 10.3919,-64.4804 L 10.7921,-64.1563 L 11.1563,-63.7921 L 11.4804,-63.3919 L 11.7608,-62.96 L 11.9946,-62.5011
 L 12.1792,-62.0204 L 12.3125,-61.5229 L 12.393,-61.0143 L 12.42,-60.5 L 12.393,-59.9857 L 12.3125,-59.4771
 L 12.1792,-58.9796 L 11.9946,-58.4989 L 11.7608,-58.04 L 11.4804,-57.6081 L 11.1563,-57.2079 L 10.7921,-56.8437
 L 10.3919,-56.5196 L 9.95999,-56.2392 L 9.50113,-56.0054 L 9.02036,-55.8208 L 8.52292,-55.6875 L 8.01427,-55.607
 L 7.5,-55.58 z
M 159.786,-55.607 L 159.277,-55.6875 L 158.78,-55.8208 L 158.299,-56.0054 L 157.84,-56.2392 L 157.408,-56.5196
 L 157.008,-56.8437 L 156.644,-57.2079 L 156.32,-57.6081 L 156.039,-58.04 L 155.805,-58.4989 L 155.621,-58.9796
 L 155.488,-59.4771 L 155.407,-59.9857 L 155.38,-60.5 L 155.407,-61.0143 L 155.488,-61.5229 L 155.621,-62.0204
 L 155.805,-62.5011 L 156.039,-62.96 L 156.32,-63.3919 L 156.644,-63.7921 L 157.008,-64.1563 L 157.408,-64.4804
 L 157.75,-64.7024 L 157.75,-74 L 157.806,-74.5302 L 157.97,-75.0372 L 158.237,-75.4988 L 158.594,-75.895
 L 159.025,-76.2084 L 159.512,-76.4252 L 160.033,-76.536 L 160.567,-76.536 L 161.088,-76.4252 L 161.575,-76.2084
 L 162.006,-75.895 L 162.363,-75.4988 L 162.63,-75.0372 L 162.794,-74.5302 L 162.85,-74 L 162.85,-64.7024
 L 163.192,-64.4804 L 163.592,-64.1563 L 163.956,-63.7921 L 164.28,-63.3919 L 164.561,-62.96 L 164.795,-62.5011
 L 164.979,-62.0204 L 165.112,-61.5229 L 165.193,-61.0143 L 165.22,-60.5 L 165.193,-59.9857 L 165.112,-59.4771
 L 164.979,-58.9796 L 164.795,-58.4989 L 164.561,-58.04 L 164.28,-57.6081 L 163.956,-57.2079 L 163.592,-56.8437
 L 163.192,-56.5196 L 162.76,-56.2392 L 162.301,-56.0054 L 161.82,-55.8208 L 161.323,-55.6875 L 160.814,-55.607
 L 160.3,-55.58 z
M 312.586,-55.607 L 312.077,-55.6875 L 311.58,-55.8208 L 311.099,-56.0054 L 310.64,-56.2392 L 310.208,-56.5196
 L 309.808,-56.8437 L 309.444,-57.2079 L 309.12,-57.6081 L 308.839,-58.04 L 308.605,-58.4989 L 308.421,-58.9796
 L 308.288,-59.4771 L 308.207,-59.9857 L 308.18,-60.5 L 308.207,-61.0143 L 308.288,-61.5229 L 308.421,-62.0204
 L 308.605,-62.5011 L 308.839,-62.96 L 309.12,-63.3919 L 309.444,-63.7921 L 309.808,-64.1563 L 310.208,-64.4804
 L 310.55,-64.7024 L 310.55,-74 L 310.606,-74.5302 L 310.77,-75.0372 L 311.037,-75.4988 L 311.394,-75.895
 L 311.825,-76.2084 L 312.312,-76.4252 L 312.833,-76.536 L 313.367,-76.536 L 313.888,-76.4252 L 314.375,-76.2084
 L 314.806,-75.895 L 315.163,-75.4988 L 315.43,-75.0372 L 315.594,-74.5302 L 315.65,-74 L 315.65,-64.7024
 L 315.992,-64.4804 L 316.392,-64.1563 L 316.756,-63.7921 L 317.08,-63.3919 L 317.361,-62.96 L 317.595,-62.5011
 L 317.779,-62.0204 L 317.912,-61.5229 L 317.993,-61.0143 L 318.02,-60.5 L 317.993,-59.9857 L 317.912,-59.4771
 L 317.779,-58.9796 L 317.595,-58.4989 L 317.361,-58.04 L 317.08,-57.6081 L 316.756,-57.2079 L 316.392,-56.8437
 L 315.992,-56.5196 L 315.56,-56.2392 L 315.101,-56.0054 L 314.62,-55.8208 L 314.123,-55.6875 L 313.614,-55.607
 L 313.1,-55.58 z
M 465.386,-55.607 L 464.877,-55.6875 L 464.38,-55.8208 L 463.899,-56.0054 L 463.44,-56.2392 L 463.008,-56.5196
 L 462.608,-56.8437 L 462.244,-57.2079 L 461.92,-57.6081 L 461.639,-58.04 L 461.405,-58.4989 L 461.221,-58.9796
 L 461.088,-59.4771 L 461.007,-59.9857 L 460.98,-60.5 L 461.007,-61.0143 L 461.088,-61.5229 L 461.221,-62.0204
 L 461.405,-62.5011 L 461.639,-62.96 L 461.92,-63.3919 L 462.244,-63.7921 L 462.608,-64.1563 L 463.008,-64.4804
 L 463.35,-64.7024 L 463.35,-74 L 463.406,-74.5302 L 463.57,-75.0372 L 463.837,-75.4988 L 464.194,-75.895
 L 464.625,-76.2084 L 465.112,-76.4252 L 465.633,-76.536 L 466.167,-76.536 L 466.688,-76.4252 L 467.175,-76.2084
 L 467.606,-75.895 L 467.963,-75.4988 L 468.23,-75.0372 L 468.394,-74.5302 L 468.45,-74 L 468.45,-64.7024
 L 468.792,-64.4804 L 469.192,-64.1563 L 469.556,-63.7921 L 469.88,-63.3919 L 470.161,-62.96 L 470.395,-62.5011
 L 470.579,-62.0204 L 470.712,-61.5229 L 470.793,-61.0143 L 470.82,-60.5 L 470.793,-59.9857 L 470.712,-59.4771
 L 470.579,-58.9796 L 470.395,-58.4989 L 470.161,-58.04 L 469.88,-57.6081 L 469.556,-57.2079 L 469.192,-56.8437
 L 468.792,-56.5196 L 468.36,-56.2392 L 467.901,-56.0054 L 467.42,-55.8208 L 466.923,-55.6875 L 466.414,-55.607
 L 465.9,-55.58 z
M 618.186,-55.607 L 617.677,-55.6875 L 617.18,-55.8208 L 616.699,-56.0054 L 616.24,-56.2392 L 615.808,-56.5196
 L 615.408,-56.8437 L 615.044,-57.2079 L 614.72,-57.6081 L 614.439,-58.04 L 614.205,-58.4989 L 614.021,-58.9796
 L 613.888,-59.4771 L 613.807,-59.9857 L 613.78,-60.5 L 613.807,-61.0143 L 613.888,-61.5229 L 614.021,-62.0204
 L 614.205,-62.5011 L 614.439,-62.96 L 614.72,-63.3919 L 615.044,-63.7921 L 615.408,-64.1563 L 615.808,-64.4804
 L 616.15,-64.7024 L 616.15,-74 L 616.206,-74.5302 L 616.37,-75.0372 L 616.637,-75.4988 L 616.994,-75.895
 L 617.425,-76.2084 L 617.912,-76.4252 L 618.433,-76.536 L 618.967,-76.536 L 619.488,-76.4252 L 619.975,-76.2084
 L 620.406,-75.895 L 620.763,-75.4988 L 621.03,-75.0372 L 621.194,-74.5302 L 621.25,-74 L 621.25,-64.7024
 L 621.592,-64.4804 L 621.992,-64.1563 L 622.356,-63.7921 L 622.68,-63.3919 L 622.961,-62.96 L 623.195,-62.5011
 L 623.379,-62.0204 L 623.512,-61.5229 L 623.593,-61.0143 L 623.62,-60.5 L 623.593,-59.9857 L 623.512,-59.4771
 L 623.379,-58.9796 L 623.195,-58.4989 L 622.961,-58.04 L 622.68,-57.6081 L 622.356,-57.2079 L 621.992,-56.8437
 L 621.592,-56.5196 L 621.16,-56.2392 L 620.701,-56.0054 L 620.22,-55.8208 L 619.723,-55.6875 L 619.214,-55.607
 L 618.7,-55.58 z
M 770.986,-55.607 L 770.477,-55.6875 L 769.98,-55.8208 L 769.499,-56.0054 L 769.04,-56.2392 L 768.608,-56.5196
 L 768.208,-56.8437 L 767.844,-57.2079 L 767.52,-57.6081 L 767.239,-58.04 L 767.005,-58.4989 L 766.821,-58.9796
 L 766.688,-59.4771 L 766.607,-59.9857 L 766.58,-60.5 L 766.607,-61.0143 L 766.688,-61.5229 L 766.821,-62.0204
 L 767.005,-62.5011 L 767.239,-62.96 L 767.52,-63.3919 L 767.844,-63.7921 L 768.208,-64.1563 L 768.608,-64.4804
 L 768.95,-64.7024 L 768.95,-74 L 769.006,-74.5302 L 769.17,-75.0372 L 769.437,-75.4988 L 769.794,-75.895
 L 770.225,-76.2084 L 770.712,-76.4252 L 771.233,-76.536 L 771.767,-76.536 L 772.288,-76.4252 L 772.775,-76.2084
 L 773.206,-75.895 L 773.563,-75.4988 L 773.83,-75.0372 L 773.994,-74.5302 L 774.05,-74 L 774.05,-64.7024
 L 774.392,-64.4804 L 774.792,-64.1563 L 775.156,-63.7921 L 775.48,-63.3919 L 775.761,-62.96 L 775.995,-62.5011
 L 776.179,-62.0204 L 776.312,-61.5229 L 776.393,-61.0143 L 776.42,-60.5 L 776.393,-59.9857 L 776.312,-59.4771
 L 776.179,-58.9796 L 775.995,-58.4989 L 775.761,-58.04 L 775.48,-57.6081 L 775.156,-57.2079 L 774.792,-56.8437
 L 774.392,-56.5196 L 773.96,-56.2392 L 773.501,-56.0054 L 773.02,-55.8208 L 772.523,-55.6875 L 772.014,-55.607
 L 771.5,-55.58 z
M 388.669,-48.1273 L 387.874,-48.3856 L 374.481,-54.3456 L 373.757,-54.7639 L 373.135,-55.3235 L 372.644,-56
 L 372.303,-56.7639 L 372.13,-57.5819 L 372.13,-58.4181 L 372.303,-59.2361 L 372.644,-60 L 373.135,-60.6765
 L 373.757,-61.2361 L 374.481,-61.6542 L 375.276,-61.9126 L 376.108,-62 L 402.892,-62 L 403.725,-61.9124
 L 404.52,-61.6539 L 405.244,-61.2357 L 405.865,-60.676 L 406.357,-59.9994 L 406.697,-59.2354 L 406.87,-58.4174
 L 406.87,-57.5812 L 406.696,-56.7633 L 406.356,-55.9994 L 405.864,-55.323 L 405.243,-54.7635 L 404.519,-54.3456
 L 391.126,-48.3856 L 390.332,-48.1276 L 389.501,-48.0401 z
M 299.269,-22.1018 L 298.474,-22.3601 L 226.6,-54.3456 L 225.876,-54.7639 L 225.254,-55.3235 L 224.763,-56
 L 224.423,-56.7639 L 224.249,-57.5819 L 224.249,-58.4181 L 224.423,-59.2361 L 224.763,-60 L 225.254,-60.6765
 L 225.876,-61.2361 L 226.6,-61.6542 L 227.395,-61.9126 L 228.227,-62 L 300.1,-62 L 301.336,-61.8042
 L 302.1,-61.4641 L 302.777,-60.9726 L 303.336,-60.3511 L 303.754,-59.627 L 304.013,-58.8316 L 304.1,-58
 L 304.1,-26.0145 L 303.904,-24.7791 L 303.564,-24.0151 L 303.073,-23.3385 L 302.452,-22.7789 L 301.728,-22.3606
 L 300.932,-22.1021 L 300.101,-22.0145 z
M 630.868,-22.1021 L 630.072,-22.3606 L 629.348,-22.7789 L 628.727,-23.3385 L 628.236,-24.0151 L 627.896,-24.7791
 L 627.7,-26.0145 L 627.7,-58 L 627.787,-58.8316 L 628.046,-59.627 L 628.464,-60.3511 L 629.023,-60.9726
 L 629.7,-61.4641 L 630.464,-61.8042 L 631.7,-62 L 703.573,-62 L 704.405,-61.9126 L 705.2,-61.6542
 L 705.924,-61.2361 L 706.546,-60.6765 L 707.037,-60 L 707.377,-59.2361 L 707.551,-58.4181 L 707.551,-57.5819
 L 707.377,-56.7639 L 707.037,-56 L 706.546,-55.3235 L 705.924,-54.7639 L 705.2,-54.3456 L 633.326,-22.3601
 L 632.531,-22.1018 L 631.699,-22.0145 z
M 146.469,-22.1018 L 145.674,-22.3601 L 73.8004,-54.3456 L 73.0756,-54.7639 L 72.4542,-55.3235 L 71.9627,-56
 L 71.6225,-56.7639 L 71.4487,-57.5819 L 71.4487,-58.4181 L 71.6225,-59.2361 L 71.9627,-60 L 72.4542,-60.6765
 L 73.0756,-61.2361 L 73.7998,-61.6542 L 74.5951,-61.9126 L 75.4268,-62 L 147.3,-62 L 148.536,-61.8042
 L 149.3,-61.4641 L 149.977,-60.9726 L 150.536,-60.3511 L 150.954,-59.627 L 151.213,-58.8316 L 151.3,-58
 L 151.3,-26.0145 L 151.104,-24.7791 L 150.764,-24.0151 L 150.273,-23.3385 L 149.652,-22.7789 L 148.928,-22.3606
 L 148.132,-22.1021 L 147.301,-22.0145 z
M 478.068,-22.1021 L 477.272,-22.3606 L 476.548,-22.7789 L 475.927,-23.3385 L 475.436,-24.0151 L 475.096,-24.7791
 L 474.9,-26.0145 L 474.9,-58 L 474.987,-58.8316 L 475.246,-59.627 L 475.664,-60.3511 L 476.223,-60.9726
 L 476.9,-61.4641 L 477.664,-61.8042 L 478.9,-62 L 550.773,-62 L 551.605,-61.9126 L 552.4,-61.6542
 L 553.124,-61.2361 L 553.746,-60.6765 L 554.237,-60 L 554.577,-59.2361 L 554.751,-58.4181 L 554.751,-57.5819
 L 554.577,-56.7639 L 554.237,-56 L 553.746,-55.3235 L 553.124,-54.7639 L 552.4,-54.3456 L 480.526,-22.3601
 L 479.731,-22.1018 L 478.899,-22.0145 z
M 325.682,-19.8474 L 324.864,-20.0212 L 324.1,-20.3613 L 323.423,-20.8529 L 322.864,-21.4743 L 322.446,-22.1985
 L 322.187,-22.9938 L 322.1,-23.8254 L 322.1,-56.1746 L 322.296,-57.41 L 322.636,-58.174 L 323.127,-58.8506
 L 323.748,-59.4102 L 324.472,-59.8285 L 325.268,-60.087 L 326.099,-60.1746 L 326.931,-60.0873 L 327.726,-59.829
 L 364.072,-43.6544 L 364.797,-43.2357 L 365.418,-42.676 L 365.91,-41.9994 L 366.25,-41.2354 L 366.423,-40.4174
 L 366.423,-39.5812 L 366.249,-38.7633 L 365.909,-37.9994 L 365.417,-37.323 L 364.796,-36.7635 L 364.072,-36.3456
 L 327.726,-20.171 L 326.518,-19.8474 z
M 452.069,-19.9127 L 451.274,-20.171 L 414.928,-36.3456 L 414.203,-36.7643 L 413.582,-37.324 L 413.09,-38.0006
 L 412.75,-38.7646 L 412.577,-39.5826 L 412.577,-40.4188 L 412.751,-41.2367 L 413.091,-42.0006 L 413.583,-42.677
 L 414.204,-43.2365 L 414.928,-43.6544 L 451.274,-59.829 L 452.482,-60.1527 L 453.318,-60.1527 L 454.136,-59.9788
 L 454.9,-59.6387 L 455.577,-59.1472 L 456.136,-58.5257 L 456.554,-57.8015 L 456.813,-57.0062 L 456.9,-56.1746
 L 456.9,-23.8254 L 456.704,-22.59 L 456.364,-21.826 L 455.873,-21.1494 L 455.252,-20.5898 L 454.528,-20.1715
 L 453.732,-19.913 L 452.901,-19.8254 z
M 173.3,-18 L 172.064,-18.1958 L 171.3,-18.5359 L 170.623,-19.0274 L 170.064,-19.6489 L 169.646,-20.373
 L 169.387,-21.1684 L 169.3,-22 L 169.3,-53.9855 L 169.496,-55.2209 L 169.836,-55.9849 L 170.327,-56.6615
 L 170.948,-57.2211 L 171.672,-57.6394 L 172.468,-57.8979 L 173.299,-57.9855 L 174.131,-57.8982 L 174.926,-57.6399
 L 246.8,-25.6544 L 247.524,-25.2361 L 248.146,-24.6765 L 248.637,-24 L 248.977,-23.2361 L 249.151,-22.4181
 L 249.151,-21.5819 L 248.977,-20.7639 L 248.637,-20 L 248.146,-19.3235 L 247.524,-18.7639 L 246.8,-18.3458
 L 246.005,-18.0874 L 245.173,-18 z
M 533.827,-18 L 532.995,-18.0874 L 532.2,-18.3458 L 531.476,-18.7639 L 530.854,-19.3235 L 530.363,-20
 L 530.023,-20.7639 L 529.849,-21.5819 L 529.849,-22.4181 L 530.023,-23.2361 L 530.363,-24 L 530.854,-24.6765
 L 531.476,-25.2361 L 532.2,-25.6544 L 604.074,-57.6399 L 604.869,-57.8982 L 605.701,-57.9855 L 606.532,-57.8979
 L 607.328,-57.6394 L 608.052,-57.2211 L 608.673,-56.6615 L 609.164,-55.9849 L 609.504,-55.2209 L 609.7,-53.9855
 L 609.7,-22 L 609.613,-21.1684 L 609.354,-20.373 L 608.936,-19.6489 L 608.377,-19.0274 L 607.7,-18.5359
 L 606.936,-18.1958 L 605.7,-18 z
M 22,-18 L 20.7639,-18.1958 L 20,-18.5359 L 19.3235,-19.0274 L 18.7639,-19.6489 L 18.3458,-20.373
 L 18.0874,-21.1684 L 18,-22 L 18,-53.3179 L 18.1956,-54.5533 L 18.5356,-55.3173 L 19.027,-55.9939
 L 19.6483,-56.5536 L 20.3724,-56.9718 L 21.1677,-57.2304 L 21.9993,-57.3179 L 22.831,-57.2307 L 23.6263,-56.9724
 L 93.9995,-25.6544 L 94.7243,-25.2361 L 95.3458,-24.6765 L 95.8373,-24 L 96.1774,-23.2361 L 96.3513,-22.4181
 L 96.3513,-21.5819 L 96.1774,-20.7639 L 95.8373,-20 L 95.3458,-19.3235 L 94.7243,-18.7639 L 94.0002,-18.3458
 L 93.2049,-18.0874 L 92.3732,-18 z
M 686.627,-18 L 685.795,-18.0874 L 685,-18.3458 L 684.276,-18.7639 L 683.654,-19.3235 L 683.163,-20
 L 682.823,-20.7639 L 682.649,-21.5819 L 682.649,-22.4181 L 682.823,-23.2361 L 683.163,-24 L 683.654,-24.6765
 L 684.276,-25.2361 L 685,-25.6544 L 755.374,-56.9724 L 756.169,-57.2307 L 757.001,-57.3179 L 757.832,-57.2304
 L 758.628,-56.9718 L 759.352,-56.5536 L 759.973,-55.9939 L 760.464,-55.3173 L 760.804,-54.5533 L 761,-53.3179
 L 761,-22 L 760.913,-21.1684 L 760.654,-20.373 L 760.236,-19.6489 L 759.677,-19.0274 L 759,-18.5359
 L 758.236,-18.1958 L 757,-18 z
M 376.108,-18 L 375.275,-18.0876 L 374.48,-18.3461 L 373.756,-18.7643 L 373.135,-19.324 L 372.643,-20.0006
 L 372.303,-20.7646 L 372.13,-21.5826 L 372.13,-22.4188 L 372.304,-23.2367 L 372.644,-24.0006 L 373.136,-24.677
 L 373.757,-25.2365 L 374.481,-25.6544 L 387.874,-31.6144 L 388.668,-31.8724 L 389.499,-31.9599 L 390.331,-31.8727
 L 391.126,-31.6144 L 404.519,-25.6544 L 405.243,-25.2361 L 405.865,-24.6765 L 406.356,-24 L 406.696,-23.2361
 L 406.87,-22.4181 L 406.87,-21.5819 L 406.696,-20.7639 L 406.356,-20 L 405.865,-19.3235 L 405.243,-18.7639
 L 404.519,-18.3458 L 403.724,-18.0874 L 402.892,-18 z
" stroke="black" fill="lightgray" stroke-width="0.5"/>
</svg>
