<?xml version="1.0" standalone="no"?>
<!DOCTYPE svg PUBLIC "-//W3C//DTD SVG 1.1//EN" "http://www.w3.org/Graphics/SVG/1.1/DTD/svg11.dtd">
<svg width="556mm" height="80mm" viewBox="0 -80 556 80" xmlns="http://www.w3.org/2000/svg" version="1.1">
<title>OpenSCAD Model</title>
<path d="
M 556,-80 L 0,-80 L 0,-0 L 4.95,-0 L 4.95,-6 L 5.00572,-6.53017
 L 5.17046,-7.03717 L 5.437,-7.49884 L 5.79372,-7.895 L 6.22499,-8.20836 L 6.71201,-8.42519 L 7.23344,-8.53603
 L 7.76654,-8.53603 L 8.28798,-8.42519 L 8.77499,-8.20836 L 9.20627,-7.895 L 9.56299,-7.49884 L 9.82953,-7.03717
 L 9.99426,-6.53017 L 10.05,-6 L 10.05,-0 L 140.2,-0 L 140.2,-6 L 140.256,-6.53017
 L 140.42,-7.03717 L 140.687,-7.49884 L 141.044,-7.895 L 141.475,-8.20836 L 141.962,-8.42519 L 142.483,-8.53603
 L 143.017,-8.53603 L 143.538,-8.42519 L 144.025,-8.20836 L 144.456,-7.895 L 144.813,-7.49884 L 145.08,-7.03717
 L 145.244,-6.53017 L 145.3,-6 L 145.3,-0 L 275.45,-0 L 275.45,-6 L 275.506,-6.53017
 L 275.67,-7.03717 L 275.937,-7.49884 L 276.294,-7.895 L 276.725,-8.20836 L 277.212,-8.42519 L 277.733,-8.53603
 L 278.267,-8.53603 L 278.788,-8.42519 L 279.275,-8.20836 L 279.706,-7.895 L 280.063,-7.49884 L 280.33,-7.03717
 L 280.494,-6.53017 L 280.55,-6 L 280.55,-0 L 410.7,-0 L 410.7,-6 L 410.756,-6.53017
 L 410.92,-7.03717 L 411.187,-7.49884 L 411.544,-7.895 L 411.975,-8.20836 L 412.462,-8.42519 L 412.983,-8.53603
 L 413.517,-8.53603 L 414.038,-8.42519 L 414.525,-8.20836 L 414.956,-7.895 L 415.313,-7.49884 L 415.58,-7.03717
 L 415.744,-6.53017 L 415.8,-6 L 415.8,-0 L 545.95,-0 L 545.95,-6 L 546.006,-6.53017
 L 546.17,-7.03717 L 546.437,-7.49884 L 546.794,-7.895 L 547.225,-8.20836 L 547.712,-8.42519 L 548.233,-8.53603
 L 548.767,-8.53603 L 549.288,-8.42519 L 549.775,-8.20836 L 550.206,-7.895 L 550.563,-7.49884 L 550.83,-7.03717
 L 550.994,-6.53017 L 551.05,-6 L 551.05,-0 L 556,-0 z
M 6.98573,-55.607 L 6.47708,-55.6875 L 5.97964,-55.8208 L 5.49887,-56.0054 L 5.04001,-56.2392 L 4.60811,-56.5196
 L 4.20789,-56.8437 L 3.84373,-57.2079 L 3.51964,-57.6081 L 3.23917,-58.04 L 3.00537,-58.4989 L 2.82082,-58.9796
 L 2.68752,-59.4771 L 2.60696,-59.9857 L 2.58,-60.5 L 2.60696,-61.0143 L 2.68752,-61.5229 L 2.82082,-62.0204
 L 3.00537,-62.5011 L 3.23917,-62.96 L 3.51964,-63.3919 L 3.84373,-63.7921 L 4.20789,-64.1563 L 4.60811,-64.4804
 L 4.95001,-64.7024 L 4.95001,-74 L 5.00574,-74.5302 L 5.17047,-75.0372 L 5.43701,-75.4988 L 5.79373,-75.895
 L 6.22501,-76.2084 L 6.71202,-76.4252 L 7.23346,-76.536 L 7.76654,-76.536 L 8.28798,-76.4252 L 8.77499,-76.2084
 L 9.20627,-75.895 L 9.56299,-75.4988 L 9.82953,-75.0372 L 9.99426,-74.5302 L 10.05,-74 L 10.05,-64.7024
 L 10.3919,-64.4804 L 10.7921,-64.1563 L 11.1563,-63.7921 L 11.4804,-63.3919 L 11.7608,-62.96 L 11.9946,-62.5011
 L 12.1792,-62.0204 L 12.3125,-61.5229 L 12.393,-61.0143 L 12.42,-60.5 L 12.393,-59.9857 L 12.3125,-59.4771
 L 12.1792,-58.9796 L 11.9946,-58.4989 L 11.7608,-58.04 L 11.4804,-57.6081 L 11.1563,-57.2079 L 10.7921,-56.8437
 L 10.3919,-56.5196 L 9.95999,-56.2392 L 9.50113,-56.0054 L 9.02036,-55.8208 L 8.52292,-55.6875 L 8.01427,-55.607
 L 7.5,-55.58 z
M 142.236,-55.607 L 141.727,-55.6875 L 141.23,-55.8208 L 140.749,-56.0054 L 140.29,-56.2392 L 139.858,-56.5196
 L 139.458,-56.8437 L 139.094,-57.2079 L 138.77,-57.6081 L 138.489,-58.04 L 138.255,-58.4989 L 138.071,-58.9796
 L 137.938,-59.4771 L 137.857,-59.9857 L 137.83,-60.5 L 137.857,-61.0143 L 137.938,-61.5229 L 138.071,-62.0204
 L 138.255,-62.5011 L 138.489,-62.96 L 138.77,-63.3919 L 139.094,-63.7921 L 139.458,-64.1563 L 139.858,-64.4804
 L 140.2,-64.7024 L 140.2,-74 L 140.256,-74.5302 L 140.42,-75.0372 L 140.687,-75.4988 L 141.044,-75.895
 L 141.475,-76.2084 L 141.962,-76.4252 L 142.483,-76.536 L 143.017,-76.536 L 143.538,-76.4252 L 144.025,-76.2084
 L 144.456,-75.895 L 144.813,-75.4988 L 145.08,-75.0372 L 145.244,-74.5302 L 145.3,-74 L 145.3,-64.7024
 L 145.642,-64.4804 L 146.042,-64.1563 L 146.406,-63.7921 L 146.73,-63.3919 L 147.011,-62.96 L 147.245,-62.5011
 L 147.429,-62.0204 L 147.562,-61.5229 L 147.643,-61.0143 L 147.67,-60.5 L 147.643,-59.9857 L 147.562,-59.4771
 L 147.429,-58.9796 L 147.245,-58.4989 L 147.011,-58.04 L 146.73,-57.6081 L 146.406,-57.2079 L 146.042,-56.8437
 L 145.642,-56.5196 L 145.21,-56.2392 L 144.751,-56.0054 L 144.27,-55.8208 L 143.773,-55.6875 L 143.264,-55.607
 L 142.75,-55.58 z
M 277.486,-55.607 L 276.977,-55.6875 L 276.48,-55.8208 L 275.999,-56.0054 L 275.54,-56.2392 L 275.108,-56.5196
 L 274.708,-56.8437 L 274.344,-57.2079 L 274.02,-57.6081 L 273.739,-58.04 L 273.505,-58.4989 L 273.321,-58.9796
 L 273.188,-59.4771 L 273.107,-59.9857 L 273.08,-60.5 L 273.107,-61.0143 L 273.188,-61.5229 L 273.321,-62.0204
 L 273.505,-62.5011 L 273.739,-62.96 L 274.02,-63.3919 L 274.344,-63.7921 L 274.708,-64.1563 L 275.108,-64.4804
 L 275.45,-64.7024 L 275.45,-74 L 275.506,-74.5302 L 275.67,-75.0372 L 275.937,-75.4988 L 276.294,-75.895
 L 276.725,-76.2084 L 277.212,-76.4252 L 277.733,-76.536 L 278.267,-76.536 L 278.788,-76.4252 L 279.275,-76.2084
 L 279.706,-75.895 L 280.063,-75.4988 L 280.33,-75.0372 L 280.494,-74.5302 L 280.55,-74 L 280.55,-64.7024
 L 280.892,-64.4804 L 281.292,-64.1563 L 281.656,-63.7921 L 281.98,-63.3919 L 282.261,-62.96 L 282.495,-62.5011
 L 282.679,-62.0204 L 282.812,-61.5229 L 282.893,-61.0143 L 282.92,-60.5 L 282.893,-59.9857 L 282.812,-59.4771
 L 282.679,-58.9796 L 282.495,-58.4989 L 282.261,-58.04 L 281.98,-57.6081 L 281.656,-57.2079 L 281.292,-56.8437
 L 280.892,-56.5196 L 280.46,-56.2392 L 280.001,-56.0054 L 279.52,-55.8208 L 279.023,-55.6875 L 278.514,-55.607
 L 278,-55.58 z
M 412.736,-55.607 L 412.227,-55.6875 L 411.73,-55.8208 L 411.249,-56.0054 L 410.79,-56.2392 L 410.358,-56.5196
 L 409.958,-56.8437 L 409.594,-57.2079 L 409.27,-57.6081 L 408.989,-58.04 L 408.755,-58.4989 L 408.571,-58.9796
 L 408.438,-59.4771 L 408.357,-59.9857 L 408.33,-60.5 L 408.357,-61.0143 L 408.438,-61.5229 L 408.571,-62.0204
 L 408.755,-62.5011 L 408.989,-62.96 L 409.27,-63.3919 L 409.594,-63.7921 L 409.958,-64.1563 L 410.358,-64.4804
 L 410.7,-64.7024 L 410.7,-74 L 410.756,-74.5302 L 410.92,-75.0372 L 411.187,-75.4988 L 411.544,-75.895
 L 411.975,-76.2084 L 412.462,-76.4252 L 412.983,-76.536 L 413.517,-76.536 L 414.038,-76.4252 L 414.525,-76.2084
 L 414.956,-75.895 L 415.313,-75.4988 L 415.58,-75.0372 L 415.744,-74.5302 L 415.8,-74 L 415.8,-64.7024
 L 416.142,-64.4804 L 416.542,-64.1563 L 416.906,-63.7921 L 417.23,-63.3919 L 417.511,-62.96 L 417.745,-62.5011
 L 417.929,-62.0204 L 418.062,-61.5229 L 418.143,-61.0143 L 418.17,-60.5 L 418.143,-59.9857 L 418.062,-59.4771
 L 417.929,-58.9796 L 417.745,-58.4989 L 417.511,-58.04 L 417.23,-57.6081 L 416.906,-57.2079 L 416.542,-56.8437
 L 416.142,-56.5196 L 415.71,-56.2392 L 415.251,-56.0054 L 414.77,-55.8208 L 414.273,-55.6875 L 413.764,-55.607
 L 413.25,-55.58 z
M 547.986,-55.607 L 547.477,-55.6875 L 546.98,-55.8208 L 546.499,-56.0054 L 546.04,-56.2392 L 545.608,-56.5196
 L 545.208,-56.8437 L 544.844,-57.2079 L 544.52,-57.6081 L 544.239,-58.04 L 544.005,-58.4989 L 543.821,-58.9796
 L 543.688,-59.4771 L 543.607,-59.9857 L 543.58,-60.5 L 543.607,-61.0143 L 543.688,-61.5229 L 543.821,-62.0204
 L 544.005,-62.5011 L 544.239,-62.96 L 544.52,-63.3919 L 544.844,-63.7921 L 545.208,-64.1563 L 545.608,-64.4804
 L 545.95,-64.7024 L 545.95,-74 L 546.006,-74.5302 L 546.17,-75.0372 L 546.437,-75.4988 L 546.794,-75.895
 L 547.225,-76.2084 L 547.712,-76.4252 L 548.233,-76.536 L 548.767,-76.536 L 549.288,-76.4252 L 549.775,-76.2084
 L 550.206,-75.895 L 550.563,-75.4988 L 550.83,-75.0372 L 550.994,-74.5302 L 551.05,-74 L 551.05,-64.7024
 L 551.392,-64.4804 L 551.792,-64.1563 L 552.156,-63.7921 L 552.48,-63.3919 L 552.761,-62.96 L 552.995,-62.5011
 L 553.179,-62.0204 L 553.312,-61.5229 L 553.393,-61.0143 L 553.42,-60.5 L 553.393,-59.9857 L 553.312,-59.4771
 L 553.179,-58.9796 L 552.995,-58.4989 L 552.761,-58.04 L 552.48,-57.6081 L 552.156,-57.2079 L 551.792,-56.8437
 L 551.392,-56.5196 L 550.96,-56.2392 L 550.501,-56.0054 L 550.02,-55.8208 L 549.523,-55.6875 L 549.014,-55.607
 L 548.5,-55.58 z
M 290.353,-23.1232 L 289.546,-23.344 L 288.803,-23.7276 L 288.156,-24.2574 L 287.634,-24.9101 L 287.258,-25.6572
 L 287.046,-26.4661 L 287,-27.0706 L 287,-58 L 287.087,-58.8316 L 287.346,-59.627 L 287.764,-60.3511
 L 288.323,-60.9726 L 289,-61.4641 L 289.764,-61.8042 L 291,-62 L 352.518,-62 L 353.349,-61.9126
 L 354.145,-61.6542 L 354.869,-61.2361 L 355.49,-60.6765 L 355.982,-60 L 356.322,-59.2361 L 356.496,-58.4181
 L 356.496,-57.5819 L 356.322,-56.7639 L 355.982,-56 L 355.49,-55.3235 L 354.869,-54.7639 L 354.314,-54.4263
 L 292.797,-23.4968 L 292.014,-23.2014 L 291.188,-23.075 z
M 263.986,-23.2014 L 263.203,-23.4968 L 201.686,-54.4263 L 201.131,-54.7639 L 200.51,-55.3235 L 200.018,-56
 L 199.678,-56.7639 L 199.504,-57.5819 L 199.504,-58.4181 L 199.678,-59.2361 L 200.018,-60 L 200.51,-60.6765
 L 201.131,-61.2361 L 201.855,-61.6542 L 202.651,-61.9126 L 203.482,-62 L 265,-62 L 266.236,-61.8042
 L 267,-61.4641 L 267.677,-60.9726 L 268.236,-60.3511 L 268.654,-59.627 L 268.913,-58.8316 L 269,-58
 L 269,-27.0706 L 268.954,-26.4661 L 268.742,-25.6572 L 268.366,-24.9101 L 267.844,-24.2574 L 267.197,-23.7276
 L 266.454,-23.344 L 265.647,-23.1232 L 264.812,-23.075 z
M 425.603,-23.1232 L 424.796,-23.344 L 424.053,-23.7276 L 423.406,-24.2574 L 422.884,-24.9101 L 422.508,-25.6572
 L 422.296,-26.4661 L 422.25,-27.0706 L 422.25,-58 L 422.337,-58.8316 L 422.596,-59.627 L 423.014,-60.3511
 L 423.573,-60.9726 L 424.25,-61.4641 L 425.014,-61.8042 L 426.25,-62 L 487.768,-62 L 488.599,-61.9126
 L 489.395,-61.6542 L 490.119,-61.2361 L 490.74,-60.6765 L 491.232,-60 L 491.572,-59.2361 L 491.746,-58.4181
 L 491.746,-57.5819 L 491.572,-56.7639 L 491.232,-56 L 490.74,-55.3235 L 490.119,-54.7639 L 489.564,-54.4263
 L 428.047,-23.4968 L 427.264,-23.2014 L 426.438,-23.075 z
M 128.736,-23.2014 L 127.953,-23.4968 L 66.4355,-54.4263 L 65.8811,-54.7639 L 65.2597,-55.3235 L 64.7682,-56
 L 64.4281,-56.7639 L 64.2542,-57.5819 L 64.2542,-58.4181 L 64.4281,-59.2361 L 64.7682,-60 L 65.2597,-60.6765
 L 65.8811,-61.2361 L 66.6053,-61.6542 L 67.4006,-61.9126 L 68.2323,-62 L 129.75,-62 L 130.986,-61.8042
 L 131.75,-61.4641 L 132.427,-60.9726 L 132.986,-60.3511 L 133.404,-59.627 L 133.663,-58.8316 L 133.75,-58
 L 133.75,-27.0706 L 133.704,-26.4661 L 133.492,-25.6572 L 133.116,-24.9101 L 132.594,-24.2574 L 131.947,-23.7276
 L 131.204,-23.344 L 130.397,-23.1232 L 129.562,-23.075 z
M 338.732,-18 L 337.901,-18.0874 L 337.105,-18.3458 L 336.381,-18.7639 L 335.76,-19.3235 L 335.268,-20
 L 334.928,-20.7639 L 334.754,-21.5819 L 334.754,-22.4181 L 334.928,-23.2361 L 335.268,-24 L 335.76,-24.6765
 L 336.381,-25.2361 L 336.936,-25.5737 L 398.453,-56.5031 L 399.236,-56.7986 L 400.062,-56.925 L 400.897,-56.8767
 L 401.704,-56.656 L 402.447,-56.2723 L 403.094,-55.7426 L 403.616,-55.0899 L 403.992,-54.3428 L 404.204,-53.5339
 L 404.25,-52.9294 L 404.25,-22 L 404.163,-21.1684 L 403.904,-20.373 L 403.486,-19.6489 L 402.927,-19.0274
 L 402.25,-18.5359 L 401.486,-18.1958 L 400.25,-18 z
M 155.75,-18 L 154.514,-18.1958 L 153.75,-18.5359 L 153.073,-19.0274 L 152.514,-19.6489 L 152.096,-20.373
 L 151.837,-21.1684 L 151.75,-22 L 151.75,-52.9294 L 151.796,-53.5339 L 152.008,-54.3428 L 152.384,-55.0899
 L 152.906,-55.7426 L 153.553,-56.2723 L 154.296,-56.656 L 155.103,-56.8767 L 155.938,-56.925 L 156.764,-56.7986
 L 157.547,-56.5031 L 219.064,-25.5737 L 219.619,-25.2361 L 220.24,-24.6765 L 220.732,-24 L 221.072,-23.2361
 L 221.246,-22.4181 L 221.246,-21.5819 L 221.072,-20.7639 L 220.732,-20 L 220.24,-19.3235 L 219.619,-18.7639
 L 218.895,-18.3458 L 218.099,-18.0874 L 217.268,-18 z
M 22,-18 L 20.7639,-18.1958 L 20,-18.5359 L 19.3235,-19.0274 L 18.7639,-19.6489 L 18.3458,-20.373
 L 18.0874,-21.1684 L 18,-22 L 18,-52.1753 L 18.0459,-52.7798 L 18.258,-53.5886 L 18.6337,-54.3358
 L 19.1564,-54.9884 L 19.8034,-55.5182 L 20.5465,-55.9018 L 21.353,-56.1226 L 22.1879,-56.1709 L 23.0145,-56.0445
 L 23.7968,-55.749 L 83.8145,-25.5737 L 84.3688,-25.2361 L 84.9903,-24.6765 L 85.4818,-24 L 85.8219,-23.2361
 L 85.9958,-22.4181 L 85.9958,-21.5819 L 85.8219,-20.7639 L 85.4818,-20 L 84.9903,-19.3235 L 84.3688,-18.7639
 L 83.6447,-18.3458 L 82.8493,-18.0874 L 82.0177,-18 z
M 473.982,-18 L 473.151,-18.0874 L 472.355,-18.3458 L 471.631,-18.7639 L 471.01,-19.3235 L 470.518,-20
 L 470.178,-20.7639 L 470.004,-21.5819 L 470.004,-22.4181 L 470.178,-23.2361 L 470.518,-24 L 471.01,-24.6765
 L 471.631,-25.2361 L 472.186,-25.5737 L 532.203,-55.749 L 532.986,-56.0445 L 533.812,-56.1709 L 534.647,-56.1226
 L 535.454,-55.9018 L 536.197,-55.5182 L 536.844,-54.9884 L 537.366,-54.3358 L 537.742,-53.5886 L 537.954,-52.7798
 L 538,-52.1753 L 538,-22 L 537.913,-21.1684 L 537.654,-20.373 L 537.236,-19.6489 L 536.677,-19.0274
 L 536,-18.5359 L 535.236,-18.1958 L 534,-18 z
" stroke="black" fill="lightgray" stroke-width="0.5"/>
</svg>
