<?xml version="1.0" standalone="no"?>
<!DOCTYPE svg PUBLIC "-//W3C//DTD SVG 1.1//EN" "http://www.w3.org/Graphics/SVG/1.1/DTD/svg11.dtd">
<svg width="933mm" height="80mm" viewBox="0 -80 933 80" xmlns="http://www.w3.org/2000/svg" version="1.1">
<title>OpenSCAD Model</title>
<path d="
M 933,-80 L 0,-80 L 0,-0 L 4.95,-0 L 4.95,-6 L 5.00572,-6.53017
 L 5.17046,-7.03717 L 5.437,-7.49884 L 5.79372,-7.895 L 6.22499,-8.20836 L 6.71201,-8.42519 L 7.23344,-8.53603
 L 7.76654,-8.53603 L 8.28798,-8.42519 L 8.77499,-8.20836 L 9.20627,-7.895 L 9.56299,-7.49884 L 9.82953,-7.03717
 L 9.99426,-6.53017 L 10.05,-6 L 10.05,-0 L 188.55,-0 L 188.55,-6 L 188.606,-6.53017
 L 188.77,-7.03717 L 189.037,-7.49884 L 189.394,-7.895 L 189.825,-8.20836 L 190.312,-8.42519 L 190.833,-8.53603
 L 191.367,-8.53603 L 191.888,-8.42519 L 192.375,-8.20836 L 192.806,-7.895 L 193.163,-7.49884 L 193.43,-7.03717
 L 193.594,-6.53017 L 193.65,-6 L 193.65,-0 L 372.15,-0 L 372.15,-6 L 372.206,-6.53017
 L 372.37,-7.03717 L 372.637,-7.49884 L 372.994,-7.895 L 373.425,-8.20836 L 373.912,-8.42519 L 374.433,-8.53603
 L 374.967,-8.53603 L 375.488,-8.42519 L 375.975,-8.20836 L 376.406,-7.895 L 376.763,-7.49884 L 377.03,-7.03717
 L 377.194,-6.53017 L 377.25,-6 L 377.25,-0 L 555.75,-0 L 555.75,-6 L 555.806,-6.53017
 L 555.97,-7.03717 L 556.237,-7.49884 L 556.594,-7.895 L 557.025,-8.20836 L 557.512,-8.42519 L 558.033,-8.53603
 L 558.567,-8.53603 L 559.088,-8.42519 L 559.575,-8.20836 L 560.006,-7.895 L 560.363,-7.49884 L 560.63,-7.03717
 L 560.794,-6.53017 L 560.85,-6 L 560.85,-0 L 739.35,-0 L 739.35,-6 L 739.406,-6.53017
 L 739.57,-7.03717 L 739.837,-7.49884 L 740.194,-7.895 L 740.625,-8.20836 L 741.112,-8.42519 L 741.633,-8.53603
 L 742.167,-8.53603 L 742.688,-8.42519 L 743.175,-8.20836 L 743.606,-7.895 L 743.963,-7.49884 L 744.23,-7.03717
 L 744.394,-6.53017 L 744.45,-6 L 744.45,-0 L 922.95,-0 L 922.95,-6 L 923.006,-6.53017
 L 923.17,-7.03717 L 923.437,-7.49884 L 923.794,-7.895 L 924.225,-8.20836 L 924.712,-8.42519 L 925.233,-8.53603
 L 925.767,-8.53603 L 926.288,-8.42519 L 926.775,-8.20836 L 927.206,-7.895 L 927.563,-7.49884 L 927.83,-7.03717
 L 927.994,-6.53017 L 928.05,-6 L 928.05,-0 L 933,-0 z
M 6.98573,-55.607 L 6.47708,-55.6875 L 5.97964,-55.8208 L 5.49887,-56.0054 L 5.04001,-56.2392 L 4.60811,-56.5196
 L 4.20789,-56.8437 L 3.84373,-57.2079 L 3.51964,-57.6081 L 3.23917,-58.04 L 3.00537,-58.4989 L 2.82082,-58.9796
 L 2.68752,-59.4771 L 2.60696,-59.9857 L 2.58,-60.5 L 2.60696,-61.0143 L 2.68752,-61.5229 L 2.82082,-62.0204
 L 3.00537,-62.5011 L 3.23917,-62.96 L 3.51964,-63.3919 L 3.84373,-63.7921 L 4.20789,-64.1563 L 4.60811,-64.4804
 L 4.95001,-64.7024 L 4.95001,-74 L 5.00574,-74.5302 L 5.17047,-75.0372 L 5.43701,-75.4988 L 5.79373,-75.895
 L 6.22501,-76.2084 L 6.71202,-76.4252 L 7.23346,-76.536 L 7.76654,-76.536 L 8.28798,-76.4252 L 8.77499,-76.2084
 L 9.20627,-75.895 L 9.56299,-75.4988 L 9.82953,-75.0372 L 9.99426,-74.5302 L 10.05,-74 L 10.05,-64.7024
 L 10.3919,-64.4804 L 10.7921,-64.1563 L 11.1563,-63.7921 L 11.4804,-63.3919 L 11.7608,-62.96 L 11.9946,-62.5011
 L 12.1792,-62.0204 L 12.3125,-61.5229 L 12.393,-61.0143 L 12.42,-60.5 L 12.393,-59.9857 L 12.3125,-59.4771
 L 12.1792,-58.9796 L 11.9946,-58.4989 L 11.7608,-58.04 L 11.4804,-57.6081 L 11.1563,-57.2079 L 10.7921,-56.8437
 L 10.3919,-56.5196 L 9.95999,-56.2392 L 9.50113,-56.0054 L 9.02036,-55.8208 L 8.52292,-55.6875 L 8.01427,-55.607
 L 7.5,-55.58 z
M 190.586,-55.607 L 190.077,-55.6875 L 189.58,-55.8208 L 189.099,-56.0054 L 188.64,-56.2392 L 188.208,-56.5196
 L 187.808,-56.8437 L 187.444,-57.2079 L 187.12,-57.6081 L 186.839,-58.04 L 186.605,-58.4989 L 186.421,-58.9796
 L 186.288,-59.4771 L 186.207,-59.9857 L 186.18,-60.5 L 186.207,-61.0143 L 186.288,-61.5229 L 186.421,-62.0204
 L 186.605,-62.5011 L 186.839,-62.96 L 187.12,-63.3919 L 187.444,-63.7921 L 187.808,-64.1563 L 188.208,-64.4804
 L 188.55,-64.7024 L 188.55,-74 L 188.606,-74.5302 L 188.77,-75.0372 L 189.037,-75.4988 L 189.394,-75.895
 L 189.825,-76.2084 L 190.312,-76.4252 L 190.833,-76.536 L 191.367,-76.536 L 191.888,-76.4252 L 192.375,-76.2084
 L 192.806,-75.895 L 193.163,-75.4988 L 193.43,-75.0372 L 193.594,-74.5302 L 193.65,-74 L 193.65,-64.7024
 L 193.992,-64.4804 L 194.392,-64.1563 L 194.756,-63.7921 L 195.08,-63.3919 L 195.361,-62.96 L 195.595,-62.5011
 L 195.779,-62.0204 L 195.912,-61.5229 L 195.993,-61.0143 L 196.02,-60.5 L 195.993,-59.9857 L 195.912,-59.4771
 L 195.779,-58.9796 L 195.595,-58.4989 L 195.361,-58.04 L 195.08,-57.6081 L 194.756,-57.2079 L 194.392,-56.8437
 L 193.992,-56.5196 L 193.56,-56.2392 L 193.101,-56.0054 L 192.62,-55.8208 L 192.123,-55.6875 L 191.614,-55.607
 L 191.1,-55.58 z
M 374.186,-55.607 L 373.677,-55.6875 L 373.18,-55.8208 L 372.699,-56.0054 L 372.24,-56.2392 L 371.808,-56.5196
 L 371.408,-56.8437 L 371.044,-57.2079 L 370.72,-57.6081 L 370.439,-58.04 L 370.205,-58.4989 L 370.021,-58.9796
 L 369.888,-59.4771 L 369.807,-59.9857 L 369.78,-60.5 L 369.807,-61.0143 L 369.888,-61.5229 L 370.021,-62.0204
 L 370.205,-62.5011 L 370.439,-62.96 L 370.72,-63.3919 L 371.044,-63.7921 L 371.408,-64.1563 L 371.808,-64.4804
 L 372.15,-64.7024 L 372.15,-74 L 372.206,-74.5302 L 372.37,-75.0372 L 372.637,-75.4988 L 372.994,-75.895
 L 373.425,-76.2084 L 373.912,-76.4252 L 374.433,-76.536 L 374.967,-76.536 L 375.488,-76.4252 L 375.975,-76.2084
 L 376.406,-75.895 L 376.763,-75.4988 L 377.03,-75.0372 L 377.194,-74.5302 L 377.25,-74 L 377.25,-64.7024
 L 377.592,-64.4804 L 377.992,-64.1563 L 378.356,-63.7921 L 378.68,-63.3919 L 378.961,-62.96 L 379.195,-62.5011
 L 379.379,-62.0204 L 379.512,-61.5229 L 379.593,-61.0143 L 379.62,-60.5 L 379.593,-59.9857 L 379.512,-59.4771
 L 379.379,-58.9796 L 379.195,-58.4989 L 378.961,-58.04 L 378.68,-57.6081 L 378.356,-57.2079 L 377.992,-56.8437
 L 377.592,-56.5196 L 377.16,-56.2392 L 376.701,-56.0054 L 376.22,-55.8208 L 375.723,-55.6875 L 375.214,-55.607
 L 374.7,-55.58 z
M 557.786,-55.607 L 557.277,-55.6875 L 556.78,-55.8208 L 556.299,-56.0054 L 555.84,-56.2392 L 555.408,-56.5196
 L 555.008,-56.8437 L 554.644,-57.2079 L 554.32,-57.6081 L 554.039,-58.04 L 553.805,-58.4989 L 553.621,-58.9796
 L 553.488,-59.4771 L 553.407,-59.9857 L 553.38,-60.5 L 553.407,-61.0143 L 553.488,-61.5229 L 553.621,-62.0204
 L 553.805,-62.5011 L 554.039,-62.96 L 554.32,-63.3919 L 554.644,-63.7921 L 555.008,-64.1563 L 555.408,-64.4804
 L 555.75,-64.7024 L 555.75,-74 L 555.806,-74.5302 L 555.97,-75.0372 L 556.237,-75.4988 L 556.594,-75.895
 L 557.025,-76.2084 L 557.512,-76.4252 L 558.033,-76.536 L 558.567,-76.536 L 559.088,-76.4252 L 559.575,-76.2084
 L 560.006,-75.895 L 560.363,-75.4988 L 560.63,-75.0372 L 560.794,-74.5302 L 560.85,-74 L 560.85,-64.7024
 L 561.192,-64.4804 L 561.592,-64.1563 L 561.956,-63.7921 L 562.28,-63.3919 L 562.561,-62.96 L 562.795,-62.5011
 L 562.979,-62.0204 L 563.112,-61.5229 L 563.193,-61.0143 L 563.22,-60.5 L 563.193,-59.9857 L 563.112,-59.4771
 L 562.979,-58.9796 L 562.795,-58.4989 L 562.561,-58.04 L 562.28,-57.6081 L 561.956,-57.2079 L 561.592,-56.8437
 L 561.192,-56.5196 L 560.76,-56.2392 L 560.301,-56.0054 L 559.82,-55.8208 L 559.323,-55.6875 L 558.814,-55.607
 L 558.3,-55.58 z
M 741.386,-55.607 L 740.877,-55.6875 L 740.38,-55.8208 L 739.899,-56.0054 L 739.44,-56.2392 L 739.008,-56.5196
 L 738.608,-56.8437 L 738.244,-57.2079 L 737.92,-57.6081 L 737.639,-58.04 L 737.405,-58.4989 L 737.221,-58.9796
 L 737.088,-59.4771 L 737.007,-59.9857 L 736.98,-60.5 L 737.007,-61.0143 L 737.088,-61.5229 L 737.221,-62.0204
 L 737.405,-62.5011 L 737.639,-62.96 L 737.92,-63.3919 L 738.244,-63.7921 L 738.608,-64.1563 L 739.008,-64.4804
 L 739.35,-64.7024 L 739.35,-74 L 739.406,-74.5302 L 739.57,-75.0372 L 739.837,-75.4988 L 740.194,-75.895
 L 740.625,-76.2084 L 741.112,-76.4252 L 741.633,-76.536 L 742.167,-76.536 L 742.688,-76.4252 L 743.175,-76.2084
 L 743.606,-75.895 L 743.963,-75.4988 L 744.23,-75.0372 L 744.394,-74.5302 L 744.45,-74 L 744.45,-64.7024
 L 744.792,-64.4804 L 745.192,-64.1563 L 745.556,-63.7921 L 745.88,-63.3919 L 746.161,-62.96 L 746.395,-62.5011
 L 746.579,-62.0204 L 746.712,-61.5229 L 746.793,-61.0143 L 746.82,-60.5 L 746.793,-59.9857 L 746.712,-59.4771
 L 746.579,-58.9796 L 746.395,-58.4989 L 746.161,-58.04 L 745.88,-57.6081 L 745.556,-57.2079 L 745.192,-56.8437
 L 744.792,-56.5196 L 744.36,-56.2392 L 743.901,-56.0054 L 743.42,-55.8208 L 742.923,-55.6875 L 742.414,-55.607
 L 741.9,-55.58 z
M 924.986,-55.607 L 924.477,-55.6875 L 923.98,-55.8208 L 923.499,-56.0054 L 923.04,-56.2392 L 922.608,-56.5196
 L 922.208,-56.8437 L 921.844,-57.2079 L 921.52,-57.6081 L 921.239,-58.04 L 921.005,-58.4989 L 920.821,-58.9796
 L 920.688,-59.4771 L 920.607,-59.9857 L 920.58,-60.5 L 920.607,-61.0143 L 920.688,-61.5229 L 920.821,-62.0204
 L 921.005,-62.5011 L 921.239,-62.96 L 921.52,-63.3919 L 921.844,-63.7921 L 922.208,-64.1563 L 922.608,-64.4804
 L 922.95,-64.7024 L 922.95,-74 L 923.006,-74.5302 L 923.17,-75.0372 L 923.437,-75.4988 L 923.794,-75.895
 L 924.225,-76.2084 L 924.712,-76.4252 L 925.233,-76.536 L 925.767,-76.536 L 926.288,-76.4252 L 926.775,-76.2084
 L 927.206,-75.895 L 927.563,-75.4988 L 927.83,-75.0372 L 927.994,-74.5302 L 928.05,-74 L 928.05,-64.7024
 L 928.392,-64.4804 L 928.792,-64.1563 L 929.156,-63.7921 L 929.48,-63.3919 L 929.761,-62.96 L 929.995,-62.5011
 L 930.179,-62.0204 L 930.312,-61.5229 L 930.393,-61.0143 L 930.42,-60.5 L 930.393,-59.9857 L 930.312,-59.4771
 L 930.179,-58.9796 L 929.995,-58.4989 L 929.761,-58.04 L 929.48,-57.6081 L 929.156,-57.2079 L 928.792,-56.8437
 L 928.392,-56.5196 L 927.96,-56.2392 L 927.501,-56.0054 L 927.02,-55.8208 L 926.523,-55.6875 L 926.014,-55.607
 L 925.5,-55.58 z
M 465.921,-47.7627 L 465.111,-47.9696 L 448.156,-54.249 L 447.194,-54.7639 L 446.573,-55.3235 L 446.081,-56
 L 445.741,-56.7639 L 445.567,-57.5819 L 445.567,-58.4181 L 445.741,-59.2361 L 446.081,-60 L 446.573,-60.6765
 L 447.194,-61.2361 L 447.919,-61.6542 L 448.714,-61.9126 L 449.546,-62 L 483.454,-62 L 484.535,-61.8512
 L 485.312,-61.5423 L 486.008,-61.0786 L 486.593,-60.4804 L 487.04,-59.7737 L 487.33,-58.9896 L 487.451,-58.1621
 L 487.398,-57.3276 L 487.172,-56.5225 L 486.783,-55.782 L 486.249,-55.1384 L 485.593,-54.6198 L 484.844,-54.249
 L 467.889,-47.9696 L 466.757,-47.7288 z
M 361.121,-20.7085 L 360.311,-20.9154 L 270.31,-54.249 L 269.348,-54.7639 L 268.727,-55.3235 L 268.235,-56
 L 267.895,-56.7639 L 267.721,-57.5819 L 267.721,-58.4181 L 267.895,-59.2361 L 268.235,-60 L 268.727,-60.6765
 L 269.348,-61.2361 L 270.072,-61.6542 L 270.868,-61.9126 L 271.699,-62 L 361.7,-62 L 362.936,-61.8042
 L 363.7,-61.4641 L 364.377,-60.9726 L 364.936,-60.3511 L 365.354,-59.627 L 365.613,-58.8316 L 365.7,-58
 L 365.7,-24.6664 L 365.576,-23.6768 L 365.285,-22.8927 L 364.838,-22.186 L 364.254,-21.5878 L 363.558,-21.1241
 L 362.781,-20.8152 L 361.956,-20.6746 z
M 753.819,-20.8152 L 753.042,-21.1241 L 752.346,-21.5878 L 751.762,-22.186 L 751.315,-22.8927 L 751.024,-23.6768
 L 750.9,-24.6664 L 750.9,-58 L 750.987,-58.8316 L 751.246,-59.627 L 751.664,-60.3511 L 752.223,-60.9726
 L 752.9,-61.4641 L 753.664,-61.8042 L 754.9,-62 L 844.901,-62 L 845.732,-61.9126 L 846.528,-61.6542
 L 847.252,-61.2361 L 847.873,-60.6765 L 848.365,-60 L 848.705,-59.2361 L 848.879,-58.4181 L 848.879,-57.5819
 L 848.705,-56.7639 L 848.365,-56 L 847.873,-55.3235 L 847.252,-54.7639 L 846.29,-54.249 L 756.289,-20.9154
 L 755.479,-20.7085 L 754.643,-20.6746 z
M 177.521,-20.7085 L 176.711,-20.9154 L 86.71,-54.249 L 85.7481,-54.7639 L 85.1267,-55.3235 L 84.6352,-56
 L 84.295,-56.7639 L 84.1212,-57.5819 L 84.1212,-58.4181 L 84.295,-59.2361 L 84.6352,-60 L 85.1267,-60.6765
 L 85.7481,-61.2361 L 86.4723,-61.6542 L 87.2676,-61.9126 L 88.0993,-62 L 178.1,-62 L 179.336,-61.8042
 L 180.1,-61.4641 L 180.777,-60.9726 L 181.336,-60.3511 L 181.754,-59.627 L 182.013,-58.8316 L 182.1,-58
 L 182.1,-24.6664 L 181.976,-23.6768 L 181.685,-22.8927 L 181.238,-22.186 L 180.654,-21.5878 L 179.958,-21.1241
 L 179.181,-20.8152 L 178.357,-20.6746 z
M 570.219,-20.8152 L 569.442,-21.1241 L 568.746,-21.5878 L 568.162,-22.186 L 567.715,-22.8927 L 567.424,-23.6768
 L 567.3,-24.6664 L 567.3,-58 L 567.387,-58.8316 L 567.646,-59.627 L 568.064,-60.3511 L 568.623,-60.9726
 L 569.3,-61.4641 L 570.064,-61.8042 L 571.3,-62 L 661.301,-62 L 662.132,-61.9126 L 662.928,-61.6542
 L 663.652,-61.2361 L 664.273,-60.6765 L 664.765,-60 L 665.105,-59.2361 L 665.279,-58.4181 L 665.279,-57.5819
 L 665.105,-56.7639 L 664.765,-56 L 664.273,-55.3235 L 663.652,-54.7639 L 662.69,-54.249 L 572.689,-20.9154
 L 571.879,-20.7085 L 571.043,-20.6746 z
M 387.282,-18.5573 L 386.464,-18.7312 L 385.7,-19.0713 L 385.023,-19.5628 L 384.464,-20.1843 L 384.046,-20.9084
 L 383.787,-21.7038 L 383.7,-22.5354 L 383.7,-57.4646 L 383.824,-58.4542 L 384.115,-59.2383 L 384.562,-59.945
 L 385.146,-60.5432 L 385.842,-61.0069 L 386.619,-61.3158 L 387.443,-61.4564 L 388.279,-61.4225 L 389.089,-61.2156
 L 436.244,-43.751 L 436.712,-43.5423 L 437.408,-43.0786 L 437.993,-42.4804 L 438.44,-41.7737 L 438.73,-40.9896
 L 438.851,-40.1621 L 438.798,-39.3276 L 438.572,-38.5225 L 438.183,-37.782 L 437.649,-37.1384 L 436.993,-36.6198
 L 436.244,-36.249 L 389.089,-18.7844 L 388.118,-18.5573 z
M 544.721,-18.5775 L 543.911,-18.7844 L 496.756,-36.249 L 496.288,-36.4577 L 495.592,-36.9214 L 495.007,-37.5196
 L 494.56,-38.2263 L 494.27,-39.0104 L 494.149,-39.8379 L 494.202,-40.6724 L 494.428,-41.4775 L 494.817,-42.218
 L 495.351,-42.8616 L 496.007,-43.3802 L 496.756,-43.751 L 543.911,-61.2156 L 544.882,-61.4427 L 545.718,-61.4427
 L 546.536,-61.2688 L 547.3,-60.9287 L 547.977,-60.4372 L 548.536,-59.8158 L 548.954,-59.0916 L 549.213,-58.2963
 L 549.3,-57.4646 L 549.3,-22.5354 L 549.176,-21.5458 L 548.885,-20.7617 L 548.438,-20.055 L 547.854,-19.4568
 L 547.158,-18.9931 L 546.381,-18.6842 L 545.557,-18.5436 z
M 204.1,-18 L 202.864,-18.1958 L 202.1,-18.5359 L 201.423,-19.0274 L 200.864,-19.6489 L 200.446,-20.373
 L 200.187,-21.1684 L 200.1,-22 L 200.1,-55.3336 L 200.224,-56.3232 L 200.515,-57.1073 L 200.962,-57.814
 L 201.546,-58.4122 L 202.242,-58.8759 L 203.019,-59.1848 L 203.843,-59.3253 L 204.679,-59.2915 L 205.489,-59.0846
 L 295.49,-25.751 L 296.452,-25.2361 L 297.073,-24.6765 L 297.565,-24 L 297.905,-23.2361 L 298.079,-22.4181
 L 298.079,-21.5819 L 297.905,-20.7639 L 297.565,-20 L 297.073,-19.3235 L 296.452,-18.7639 L 295.728,-18.3458
 L 294.932,-18.0874 L 294.101,-18 z
M 638.899,-18 L 638.068,-18.0874 L 637.272,-18.3458 L 636.548,-18.7639 L 635.927,-19.3235 L 635.435,-20
 L 635.095,-20.7639 L 634.921,-21.5819 L 634.921,-22.4181 L 635.095,-23.2361 L 635.435,-24 L 635.927,-24.6765
 L 636.548,-25.2361 L 637.51,-25.751 L 727.511,-59.0846 L 728.321,-59.2915 L 729.157,-59.3253 L 729.981,-59.1848
 L 730.758,-58.8759 L 731.454,-58.4122 L 732.038,-57.814 L 732.485,-57.1073 L 732.776,-56.3232 L 732.9,-55.3336
 L 732.9,-22 L 732.813,-21.1684 L 732.554,-20.373 L 732.136,-19.6489 L 731.577,-19.0274 L 730.9,-18.5359
 L 730.136,-18.1958 L 728.9,-18 z
M 22,-18 L 20.7639,-18.1958 L 20,-18.5359 L 19.3235,-19.0274 L 18.7639,-19.6489 L 18.3458,-20.373
 L 18.0874,-21.1684 L 18,-22 L 18,-54.778 L 18.1243,-55.7676 L 18.4148,-56.5518 L 18.8619,-57.2584
 L 19.4462,-57.8567 L 20.1421,-58.3204 L 20.9192,-58.6292 L 21.7435,-58.7698 L 22.579,-58.7359 L 23.3893,-58.529
 L 111.89,-25.751 L 112.852,-25.2361 L 113.473,-24.6765 L 113.965,-24 L 114.305,-23.2361 L 114.479,-22.4181
 L 114.479,-21.5819 L 114.305,-20.7639 L 113.965,-20 L 113.473,-19.3235 L 112.852,-18.7639 L 112.128,-18.3458
 L 111.332,-18.0874 L 110.501,-18 z
M 822.499,-18 L 821.668,-18.0874 L 820.872,-18.3458 L 820.148,-18.7639 L 819.527,-19.3235 L 819.035,-20
 L 818.695,-20.7639 L 818.521,-21.5819 L 818.521,-22.4181 L 818.695,-23.2361 L 819.035,-24 L 819.527,-24.6765
 L 820.148,-25.2361 L 821.11,-25.751 L 909.611,-58.529 L 910.421,-58.7359 L 911.257,-58.7698 L 912.081,-58.6292
 L 912.858,-58.3204 L 913.554,-57.8567 L 914.138,-57.2584 L 914.585,-56.5518 L 914.876,-55.7676 L 915,-54.778
 L 915,-22 L 914.913,-21.1684 L 914.654,-20.373 L 914.236,-19.6489 L 913.677,-19.0274 L 913,-18.5359
 L 912.236,-18.1958 L 911,-18 z
M 449.546,-18 L 448.465,-18.1488 L 447.688,-18.4577 L 446.992,-18.9214 L 446.407,-19.5196 L 445.96,-20.2263
 L 445.67,-21.0104 L 445.549,-21.8379 L 445.602,-22.6724 L 445.828,-23.4775 L 446.217,-24.218 L 446.751,-24.8616
 L 447.407,-25.3802 L 448.156,-25.751 L 465.111,-32.0304 L 466.243,-32.2712 L 467.079,-32.2373 L 467.889,-32.0304
 L 484.844,-25.751 L 485.806,-25.2361 L 486.427,-24.6765 L 486.919,-24 L 487.259,-23.2361 L 487.433,-22.4181
 L 487.433,-21.5819 L 487.259,-20.7639 L 486.919,-20 L 486.427,-19.3235 L 485.806,-18.7639 L 485.081,-18.3458
 L 484.286,-18.0874 L 483.454,-18 z
" stroke="black" fill="lightgray" stroke-width="0.5"/>
</svg>
