<?xml version="1.0" standalone="no"?>
<!DOCTYPE svg PUBLIC "-//W3C//DTD SVG 1.1//EN" "http://www.w3.org/Graphics/SVG/1.1/DTD/svg11.dtd">
<svg width="902mm" height="80mm" viewBox="0 -80 902 80" xmlns="http://www.w3.org/2000/svg" version="1.1">
<title>OpenSCAD Model</title>
<path d="
M 902,-80 L 0,-80 L 0,-0 L 4.95,-0 L 4.95,-6 L 5.00572,-6.53017
 L 5.17046,-7.03717 L 5.437,-7.49884 L 5.79372,-7.895 L 6.22499,-8.20836 L 6.71201,-8.42519 L 7.23344,-8.53603
 L 7.76654,-8.53603 L 8.28798,-8.42519 L 8.77499,-8.20836 L 9.20627,-7.895 L 9.56299,-7.49884 L 9.82953,-7.03717
 L 9.99426,-6.53017 L 10.05,-6 L 10.05,-0 L 182.35,-0 L 182.35,-6 L 182.406,-6.53017
 L 182.57,-7.03717 L 182.837,-7.49884 L 183.194,-7.895 L 183.625,-8.20836 L 184.112,-8.42519 L 184.633,-8.53603
 L 185.167,-8.53603 L 185.688,-8.42519 L 186.175,-8.20836 L 186.606,-7.895 L 186.963,-7.49884 L 187.23,-7.03717
 L 187.394,-6.53017 L 187.45,-6 L 187.45,-0 L 359.75,-0 L 359.75,-6 L 359.806,-6.53017
 L 359.97,-7.03717 L 360.237,-7.49884 L 360.594,-7.895 L 361.025,-8.20836 L 361.512,-8.42519 L 362.033,-8.53603
 L 362.567,-8.53603 L 363.088,-8.42519 L 363.575,-8.20836 L 364.006,-7.895 L 364.363,-7.49884 L 364.63,-7.03717
 L 364.794,-6.53017 L 364.85,-6 L 364.85,-0 L 537.15,-0 L 537.15,-6 L 537.206,-6.53017
 L 537.37,-7.03717 L 537.637,-7.49884 L 537.994,-7.895 L 538.425,-8.20836 L 538.912,-8.42519 L 539.433,-8.53603
 L 539.967,-8.53603 L 540.488,-8.42519 L 540.975,-8.20836 L 541.406,-7.895 L 541.763,-7.49884 L 542.03,-7.03717
 L 542.194,-6.53017 L 542.25,-6 L 542.25,-0 L 714.55,-0 L 714.55,-6 L 714.606,-6.53017
 L 714.77,-7.03717 L 715.037,-7.49884 L 715.394,-7.895 L 715.825,-8.20836 L 716.312,-8.42519 L 716.833,-8.53603
 L 717.367,-8.53603 L 717.888,-8.42519 L 718.375,-8.20836 L 718.806,-7.895 L 719.163,-7.49884 L 719.43,-7.03717
 L 719.594,-6.53017 L 719.65,-6 L 719.65,-0 L 891.95,-0 L 891.95,-6 L 892.006,-6.53017
 L 892.17,-7.03717 L 892.437,-7.49884 L 892.794,-7.895 L 893.225,-8.20836 L 893.712,-8.42519 L 894.233,-8.53603
 L 894.767,-8.53603 L 895.288,-8.42519 L 895.775,-8.20836 L 896.206,-7.895 L 896.563,-7.49884 L 896.83,-7.03717
 L 896.994,-6.53017 L 897.05,-6 L 897.05,-0 L 902,-0 z
M 6.98573,-55.607 L 6.47708,-55.6875 L 5.97964,-55.8208 L 5.49887,-56.0054 L 5.04001,-56.2392 L 4.60811,-56.5196
 L 4.20789,-56.8437 L 3.84373,-57.2079 L 3.51964,-57.6081 L 3.23917,-58.04 L 3.00537,-58.4989 L 2.82082,-58.9796
 L 2.68752,-59.4771 L 2.60696,-59.9857 L 2.58,-60.5 L 2.60696,-61.0143 L 2.68752,-61.5229 L 2.82082,-62.0204
 L 3.00537,-62.5011 L 3.23917,-62.96 L 3.51964,-63.3919 L 3.84373,-63.7921 L 4.20789,-64.1563 L 4.60811,-64.4804
 L 4.95001,-64.7024 L 4.95001,-74 L 5.00574,-74.5302 L 5.17047,-75.0372 L 5.43701,-75.4988 L 5.79373,-75.895
 L 6.22501,-76.2084 L 6.71202,-76.4252 L 7.23346,-76.536 L 7.76654,-76.536 L 8.28798,-76.4252 L 8.77499,-76.2084
 L 9.20627,-75.895 L 9.56299,-75.4988 L 9.82953,-75.0372 L 9.99426,-74.5302 L 10.05,-74 L 10.05,-64.7024
 L 10.3919,-64.4804 L 10.7921,-64.1563 L 11.1563,-63.7921 L 11.4804,-63.3919 L 11.7608,-62.96 L 11.9946,-62.5011
 L 12.1792,-62.0204 L 12.3125,-61.5229 L 12.393,-61.0143 L 12.42,-60.5 L 12.393,-59.9857 L 12.3125,-59.4771
 L 12.1792,-58.9796 L 11.9946,-58.4989 L 11.7608,-58.04 L 11.4804,-57.6081 L 11.1563,-57.2079 L 10.7921,-56.8437
 L 10.3919,-56.5196 L 9.95999,-56.2392 L 9.50113,-56.0054 L 9.02036,-55.8208 L 8.52292,-55.6875 L 8.01427,-55.607
 L 7.5,-55.58 z
M 184.386,-55.607 L 183.877,-55.6875 L 183.38,-55.8208 L 182.899,-56.0054 L 182.44,-56.2392 L 182.008,-56.5196
 L 181.608,-56.8437 L 181.244,-57.2079 L 180.92,-57.6081 L 180.639,-58.04 L 180.405,-58.4989 L 180.221,-58.9796
 L 180.088,-59.4771 L 180.007,-59.9857 L 179.98,-60.5 L 180.007,-61.0143 L 180.088,-61.5229 L 180.221,-62.0204
 L 180.405,-62.5011 L 180.639,-62.96 L 180.92,-63.3919 L 181.244,-63.7921 L 181.608,-64.1563 L 182.008,-64.4804
 L 182.35,-64.7024 L 182.35,-74 L 182.406,-74.5302 L 182.57,-75.0372 L 182.837,-75.4988 L 183.194,-75.895
 L 183.625,-76.2084 L 184.112,-76.4252 L 184.633,-76.536 L 185.167,-76.536 L 185.688,-76.4252 L 186.175,-76.2084
 L 186.606,-75.895 L 186.963,-75.4988 L 187.23,-75.0372 L 187.394,-74.5302 L 187.45,-74 L 187.45,-64.7024
 L 187.792,-64.4804 L 188.192,-64.1563 L 188.556,-63.7921 L 188.88,-63.3919 L 189.161,-62.96 L 189.395,-62.5011
 L 189.579,-62.0204 L 189.712,-61.5229 L 189.793,-61.0143 L 189.82,-60.5 L 189.793,-59.9857 L 189.712,-59.4771
 L 189.579,-58.9796 L 189.395,-58.4989 L 189.161,-58.04 L 188.88,-57.6081 L 188.556,-57.2079 L 188.192,-56.8437
 L 187.792,-56.5196 L 187.36,-56.2392 L 186.901,-56.0054 L 186.42,-55.8208 L 185.923,-55.6875 L 185.414,-55.607
 L 184.9,-55.58 z
M 361.786,-55.607 L 361.277,-55.6875 L 360.78,-55.8208 L 360.299,-56.0054 L 359.84,-56.2392 L 359.408,-56.5196
 L 359.008,-56.8437 L 358.644,-57.2079 L 358.32,-57.6081 L 358.039,-58.04 L 357.805,-58.4989 L 357.621,-58.9796
 L 357.488,-59.4771 L 357.407,-59.9857 L 357.38,-60.5 L 357.407,-61.0143 L 357.488,-61.5229 L 357.621,-62.0204
 L 357.805,-62.5011 L 358.039,-62.96 L 358.32,-63.3919 L 358.644,-63.7921 L 359.008,-64.1563 L 359.408,-64.4804
 L 359.75,-64.7024 L 359.75,-74 L 359.806,-74.5302 L 359.97,-75.0372 L 360.237,-75.4988 L 360.594,-75.895
 L 361.025,-76.2084 L 361.512,-76.4252 L 362.033,-76.536 L 362.567,-76.536 L 363.088,-76.4252 L 363.575,-76.2084
 L 364.006,-75.895 L 364.363,-75.4988 L 364.63,-75.0372 L 364.794,-74.5302 L 364.85,-74 L 364.85,-64.7024
 L 365.192,-64.4804 L 365.592,-64.1563 L 365.956,-63.7921 L 366.28,-63.3919 L 366.561,-62.96 L 366.795,-62.5011
 L 366.979,-62.0204 L 367.112,-61.5229 L 367.193,-61.0143 L 367.22,-60.5 L 367.193,-59.9857 L 367.112,-59.4771
 L 366.979,-58.9796 L 366.795,-58.4989 L 366.561,-58.04 L 366.28,-57.6081 L 365.956,-57.2079 L 365.592,-56.8437
 L 365.192,-56.5196 L 364.76,-56.2392 L 364.301,-56.0054 L 363.82,-55.8208 L 363.323,-55.6875 L 362.814,-55.607
 L 362.3,-55.58 z
M 539.186,-55.607 L 538.677,-55.6875 L 538.18,-55.8208 L 537.699,-56.0054 L 537.24,-56.2392 L 536.808,-56.5196
 L 536.408,-56.8437 L 536.044,-57.2079 L 535.72,-57.6081 L 535.439,-58.04 L 535.205,-58.4989 L 535.021,-58.9796
 L 534.888,-59.4771 L 534.807,-59.9857 L 534.78,-60.5 L 534.807,-61.0143 L 534.888,-61.5229 L 535.021,-62.0204
 L 535.205,-62.5011 L 535.439,-62.96 L 535.72,-63.3919 L 536.044,-63.7921 L 536.408,-64.1563 L 536.808,-64.4804
 L 537.15,-64.7024 L 537.15,-74 L 537.206,-74.5302 L 537.37,-75.0372 L 537.637,-75.4988 L 537.994,-75.895
 L 538.425,-76.2084 L 538.912,-76.4252 L 539.433,-76.536 L 539.967,-76.536 L 540.488,-76.4252 L 540.975,-76.2084
 L 541.406,-75.895 L 541.763,-75.4988 L 542.03,-75.0372 L 542.194,-74.5302 L 542.25,-74 L 542.25,-64.7024
 L 542.592,-64.4804 L 542.992,-64.1563 L 543.356,-63.7921 L 543.68,-63.3919 L 543.961,-62.96 L 544.195,-62.5011
 L 544.379,-62.0204 L 544.512,-61.5229 L 544.593,-61.0143 L 544.62,-60.5 L 544.593,-59.9857 L 544.512,-59.4771
 L 544.379,-58.9796 L 544.195,-58.4989 L 543.961,-58.04 L 543.68,-57.6081 L 543.356,-57.2079 L 542.992,-56.8437
 L 542.592,-56.5196 L 542.16,-56.2392 L 541.701,-56.0054 L 541.22,-55.8208 L 540.723,-55.6875 L 540.214,-55.607
 L 539.7,-55.58 z
M 716.586,-55.607 L 716.077,-55.6875 L 715.58,-55.8208 L 715.099,-56.0054 L 714.64,-56.2392 L 714.208,-56.5196
 L 713.808,-56.8437 L 713.444,-57.2079 L 713.12,-57.6081 L 712.839,-58.04 L 712.605,-58.4989 L 712.421,-58.9796
 L 712.288,-59.4771 L 712.207,-59.9857 L 712.18,-60.5 L 712.207,-61.0143 L 712.288,-61.5229 L 712.421,-62.0204
 L 712.605,-62.5011 L 712.839,-62.96 L 713.12,-63.3919 L 713.444,-63.7921 L 713.808,-64.1563 L 714.208,-64.4804
 L 714.55,-64.7024 L 714.55,-74 L 714.606,-74.5302 L 714.77,-75.0372 L 715.037,-75.4988 L 715.394,-75.895
 L 715.825,-76.2084 L 716.312,-76.4252 L 716.833,-76.536 L 717.367,-76.536 L 717.888,-76.4252 L 718.375,-76.2084
 L 718.806,-75.895 L 719.163,-75.4988 L 719.43,-75.0372 L 719.594,-74.5302 L 719.65,-74 L 719.65,-64.7024
 L 719.992,-64.4804 L 720.392,-64.1563 L 720.756,-63.7921 L 721.08,-63.3919 L 721.361,-62.96 L 721.595,-62.5011
 L 721.779,-62.0204 L 721.912,-61.5229 L 721.993,-61.0143 L 722.02,-60.5 L 721.993,-59.9857 L 721.912,-59.4771
 L 721.779,-58.9796 L 721.595,-58.4989 L 721.361,-58.04 L 721.08,-57.6081 L 720.756,-57.2079 L 720.392,-56.8437
 L 719.992,-56.5196 L 719.56,-56.2392 L 719.101,-56.0054 L 718.62,-55.8208 L 718.123,-55.6875 L 717.614,-55.607
 L 717.1,-55.58 z
M 893.986,-55.607 L 893.477,-55.6875 L 892.98,-55.8208 L 892.499,-56.0054 L 892.04,-56.2392 L 891.608,-56.5196
 L 891.208,-56.8437 L 890.844,-57.2079 L 890.52,-57.6081 L 890.239,-58.04 L 890.005,-58.4989 L 889.821,-58.9796
 L 889.688,-59.4771 L 889.607,-59.9857 L 889.58,-60.5 L 889.607,-61.0143 L 889.688,-61.5229 L 889.821,-62.0204
 L 890.005,-62.5011 L 890.239,-62.96 L 890.52,-63.3919 L 890.844,-63.7921 L 891.208,-64.1563 L 891.608,-64.4804
 L 891.95,-64.7024 L 891.95,-74 L 892.006,-74.5302 L 892.17,-75.0372 L 892.437,-75.4988 L 892.794,-75.895
 L 893.225,-76.2084 L 893.712,-76.4252 L 894.233,-76.536 L 894.767,-76.536 L 895.288,-76.4252 L 895.775,-76.2084
 L 896.206,-75.895 L 896.563,-75.4988 L 896.83,-75.0372 L 896.994,-74.5302 L 897.05,-74 L 897.05,-64.7024
 L 897.392,-64.4804 L 897.792,-64.1563 L 898.156,-63.7921 L 898.48,-63.3919 L 898.761,-62.96 L 898.995,-62.5011
 L 899.179,-62.0204 L 899.312,-61.5229 L 899.393,-61.0143 L 899.42,-60.5 L 899.393,-59.9857 L 899.312,-59.4771
 L 899.179,-58.9796 L 898.995,-58.4989 L 898.761,-58.04 L 898.48,-57.6081 L 898.156,-57.2079 L 897.792,-56.8437
 L 897.392,-56.5196 L 896.96,-56.2392 L 896.501,-56.0054 L 896.02,-55.8208 L 895.523,-55.6875 L 895.014,-55.607
 L 894.5,-55.58 z
M 450.376,-47.8135 L 449.568,-48.0296 L 433.301,-54.265 L 432.382,-54.7639 L 431.76,-55.3235 L 431.269,-56
 L 430.929,-56.7639 L 430.755,-57.5819 L 430.755,-58.4181 L 430.929,-59.2361 L 431.269,-60 L 431.76,-60.6765
 L 432.382,-61.2361 L 433.106,-61.6542 L 433.901,-61.9126 L 434.733,-62 L 467.267,-62 L 468.304,-61.8632
 L 469.085,-61.5632 L 469.786,-61.1074 L 470.377,-60.5158 L 470.832,-59.8143 L 471.131,-59.0334 L 471.262,-58.2074
 L 471.218,-57.3724 L 471.001,-56.5647 L 470.621,-55.8198 L 470.094,-55.1702 L 469.444,-54.6443 L 468.699,-54.265
 L 452.432,-48.0296 L 451.211,-47.7702 z
M 348.676,-20.9356 L 347.868,-21.1517 L 261.481,-54.265 L 260.562,-54.7639 L 259.941,-55.3235 L 259.449,-56
 L 259.109,-56.7639 L 258.935,-57.5819 L 258.935,-58.4181 L 259.109,-59.2361 L 259.449,-60 L 259.941,-60.6765
 L 260.562,-61.2361 L 261.286,-61.6542 L 262.081,-61.9126 L 262.913,-62 L 349.3,-62 L 350.536,-61.8042
 L 351.3,-61.4641 L 351.977,-60.9726 L 352.536,-60.3511 L 352.954,-59.627 L 353.213,-58.8316 L 353.3,-58
 L 353.3,-24.8867 L 353.164,-23.8532 L 352.865,-23.0724 L 352.41,-22.3709 L 351.819,-21.7793 L 351.118,-21.3235
 L 350.337,-21.0235 L 349.511,-20.8923 z
M 729.063,-21.0235 L 728.282,-21.3235 L 727.581,-21.7793 L 726.99,-22.3709 L 726.535,-23.0724 L 726.236,-23.8532
 L 726.1,-24.8867 L 726.1,-58 L 726.187,-58.8316 L 726.446,-59.627 L 726.864,-60.3511 L 727.423,-60.9726
 L 728.1,-61.4641 L 728.864,-61.8042 L 730.1,-62 L 816.487,-62 L 817.318,-61.9126 L 818.114,-61.6542
 L 818.838,-61.2361 L 819.459,-60.6765 L 819.951,-60 L 820.291,-59.2361 L 820.465,-58.4181 L 820.465,-57.5819
 L 820.291,-56.7639 L 819.951,-56 L 819.459,-55.3235 L 818.838,-54.7639 L 817.919,-54.265 L 731.532,-21.1517
 L 730.724,-20.9356 L 729.889,-20.8923 z
M 171.276,-20.9356 L 170.468,-21.1517 L 84.0815,-54.265 L 83.162,-54.7639 L 82.5406,-55.3235 L 82.0491,-56
 L 81.7089,-56.7639 L 81.5351,-57.5819 L 81.5351,-58.4181 L 81.7089,-59.2361 L 82.0491,-60 L 82.5406,-60.6765
 L 83.162,-61.2361 L 83.8862,-61.6542 L 84.6815,-61.9126 L 85.5132,-62 L 171.9,-62 L 173.136,-61.8042
 L 173.9,-61.4641 L 174.577,-60.9726 L 175.136,-60.3511 L 175.554,-59.627 L 175.813,-58.8316 L 175.9,-58
 L 175.9,-24.8867 L 175.764,-23.8532 L 175.465,-23.0724 L 175.01,-22.3709 L 174.419,-21.7793 L 173.718,-21.3235
 L 172.937,-21.0235 L 172.111,-20.8923 z
M 551.663,-21.0235 L 550.882,-21.3235 L 550.181,-21.7793 L 549.59,-22.3709 L 549.135,-23.0724 L 548.836,-23.8532
 L 548.7,-24.8867 L 548.7,-58 L 548.787,-58.8316 L 549.046,-59.627 L 549.464,-60.3511 L 550.023,-60.9726
 L 550.7,-61.4641 L 551.464,-61.8042 L 552.7,-62 L 639.087,-62 L 639.918,-61.9126 L 640.714,-61.6542
 L 641.438,-61.2361 L 642.059,-60.6765 L 642.551,-60 L 642.891,-59.2361 L 643.065,-58.4181 L 643.065,-57.5819
 L 642.891,-56.7639 L 642.551,-56 L 642.059,-55.3235 L 641.438,-54.7639 L 640.519,-54.265 L 554.132,-21.1517
 L 553.324,-20.9356 L 552.489,-20.8923 z
M 374.882,-18.7696 L 374.064,-18.9434 L 373.3,-19.2836 L 372.623,-19.7751 L 372.064,-20.3965 L 371.646,-21.1207
 L 371.387,-21.916 L 371.3,-22.7477 L 371.3,-57.2523 L 371.436,-58.2858 L 371.735,-59.0666 L 372.19,-59.7681
 L 372.781,-60.3597 L 373.482,-60.8155 L 374.263,-61.1155 L 375.089,-61.2467 L 375.924,-61.2034 L 376.732,-60.9873
 L 421.74,-43.735 L 422.126,-43.5632 L 422.827,-43.1074 L 423.418,-42.5158 L 423.873,-41.8143 L 424.172,-41.0334
 L 424.303,-40.2074 L 424.259,-39.3724 L 424.042,-38.5647 L 423.662,-37.8198 L 423.135,-37.1702 L 422.485,-36.6443
 L 421.74,-36.265 L 376.732,-19.0127 L 375.718,-18.7696 z
M 526.076,-18.7966 L 525.268,-19.0126 L 480.26,-36.265 L 479.874,-36.4368 L 479.173,-36.8926 L 478.582,-37.4842
 L 478.127,-38.1857 L 477.827,-38.9666 L 477.697,-39.7926 L 477.741,-40.6276 L 477.958,-41.4353 L 478.338,-42.1802
 L 478.865,-42.8298 L 479.515,-43.3557 L 480.26,-43.735 L 525.268,-60.9874 L 526.282,-61.2304 L 527.118,-61.2304
 L 527.936,-61.0566 L 528.7,-60.7164 L 529.377,-60.2249 L 529.936,-59.6035 L 530.354,-58.8793 L 530.613,-58.084
 L 530.7,-57.2523 L 530.7,-22.7477 L 530.564,-21.7142 L 530.265,-20.9334 L 529.81,-20.2319 L 529.219,-19.6403
 L 528.518,-19.1845 L 527.737,-18.8844 L 526.911,-18.7532 z
M 197.9,-18 L 196.664,-18.1958 L 195.9,-18.5359 L 195.223,-19.0274 L 194.664,-19.6489 L 194.246,-20.373
 L 193.987,-21.1684 L 193.9,-22 L 193.9,-55.1133 L 194.036,-56.1467 L 194.335,-56.9276 L 194.79,-57.6291
 L 195.381,-58.2207 L 196.082,-58.6765 L 196.863,-58.9765 L 197.689,-59.1077 L 198.524,-59.0644 L 199.332,-58.8483
 L 285.718,-25.735 L 286.638,-25.2361 L 287.259,-24.6765 L 287.751,-24 L 288.091,-23.2361 L 288.265,-22.4181
 L 288.265,-21.5819 L 288.091,-20.7639 L 287.751,-20 L 287.259,-19.3235 L 286.638,-18.7639 L 285.914,-18.3458
 L 285.118,-18.0874 L 284.287,-18 z
M 617.713,-18 L 616.882,-18.0874 L 616.086,-18.3458 L 615.362,-18.7639 L 614.741,-19.3235 L 614.249,-20
 L 613.909,-20.7639 L 613.735,-21.5819 L 613.735,-22.4181 L 613.909,-23.2361 L 614.249,-24 L 614.741,-24.6765
 L 615.362,-25.2361 L 616.281,-25.735 L 702.668,-58.8483 L 703.476,-59.0644 L 704.311,-59.1077 L 705.137,-58.9765
 L 705.918,-58.6765 L 706.619,-58.2207 L 707.21,-57.6291 L 707.665,-56.9276 L 707.964,-56.1467 L 708.1,-55.1133
 L 708.1,-22 L 708.013,-21.1684 L 707.754,-20.373 L 707.336,-19.6489 L 706.777,-19.0274 L 706.1,-18.5359
 L 705.336,-18.1958 L 704.1,-18 z
M 22,-18 L 20.7639,-18.1958 L 20,-18.5359 L 19.3235,-19.0274 L 18.7639,-19.6489 L 18.3458,-20.373
 L 18.0874,-21.1684 L 18,-22 L 18,-54.5383 L 18.1358,-55.5718 L 18.4351,-56.3526 L 18.8902,-57.0541
 L 19.4812,-57.6457 L 20.1823,-58.1015 L 20.9629,-58.4016 L 21.7887,-58.5328 L 22.6238,-58.4894 L 23.4317,-58.2733
 L 108.318,-25.735 L 109.238,-25.2361 L 109.859,-24.6765 L 110.351,-24 L 110.691,-23.2361 L 110.865,-22.4181
 L 110.865,-21.5819 L 110.691,-20.7639 L 110.351,-20 L 109.859,-19.3235 L 109.238,-18.7639 L 108.514,-18.3458
 L 107.718,-18.0874 L 106.887,-18 z
M 795.113,-18 L 794.282,-18.0874 L 793.486,-18.3458 L 792.762,-18.7639 L 792.141,-19.3235 L 791.649,-20
 L 791.309,-20.7639 L 791.135,-21.5819 L 791.135,-22.4181 L 791.309,-23.2361 L 791.649,-24 L 792.141,-24.6765
 L 792.762,-25.2361 L 793.682,-25.735 L 878.568,-58.2733 L 879.376,-58.4894 L 880.211,-58.5328 L 881.037,-58.4016
 L 881.818,-58.1015 L 882.519,-57.6457 L 883.11,-57.0541 L 883.565,-56.3526 L 883.864,-55.5718 L 884,-54.5383
 L 884,-22 L 883.913,-21.1684 L 883.654,-20.373 L 883.236,-19.6489 L 882.677,-19.0274 L 882,-18.5359
 L 881.236,-18.1958 L 880,-18 z
M 434.733,-18 L 433.696,-18.1368 L 432.915,-18.4368 L 432.214,-18.8926 L 431.623,-19.4842 L 431.168,-20.1857
 L 430.869,-20.9666 L 430.738,-21.7926 L 430.782,-22.6276 L 430.999,-23.4353 L 431.379,-24.1802 L 431.906,-24.8298
 L 432.556,-25.3557 L 433.301,-25.735 L 449.568,-31.9704 L 450.789,-32.2298 L 451.624,-32.1865 L 452.432,-31.9704
 L 468.699,-25.735 L 469.618,-25.2361 L 470.24,-24.6765 L 470.731,-24 L 471.071,-23.2361 L 471.245,-22.4181
 L 471.245,-21.5819 L 471.071,-20.7639 L 470.731,-20 L 470.24,-19.3235 L 469.618,-18.7639 L 468.894,-18.3458
 L 468.099,-18.0874 L 467.267,-18 z
" stroke="black" fill="lightgray" stroke-width="0.5"/>
</svg>
