<?xml version="1.0" standalone="no"?>
<!DOCTYPE svg PUBLIC "-//W3C//DTD SVG 1.1//EN" "http://www.w3.org/Graphics/SVG/1.1/DTD/svg11.dtd">
<svg width="819mm" height="80mm" viewBox="0 -80 819 80" xmlns="http://www.w3.org/2000/svg" version="1.1">
<title>OpenSCAD Model</title>
<path d="
M 819,-80 L 0,-80 L 0,-0 L 4.95,-0 L 4.95,-6 L 5.00572,-6.53017
 L 5.17046,-7.03717 L 5.437,-7.49884 L 5.79372,-7.895 L 6.22499,-8.20836 L 6.71201,-8.42519 L 7.23344,-8.53603
 L 7.76654,-8.53603 L 8.28798,-8.42519 L 8.77499,-8.20836 L 9.20627,-7.895 L 9.56299,-7.49884 L 9.82953,-7.03717
 L 9.99426,-6.53017 L 10.05,-6 L 10.05,-0 L 165.75,-0 L 165.75,-6 L 165.806,-6.53017
 L 165.97,-7.03717 L 166.237,-7.49884 L 166.594,-7.895 L 167.025,-8.20836 L 167.512,-8.42519 L 168.033,-8.53603
 L 168.567,-8.53603 L 169.088,-8.42519 L 169.575,-8.20836 L 170.006,-7.895 L 170.363,-7.49884 L 170.63,-7.03717
 L 170.794,-6.53017 L 170.85,-6 L 170.85,-0 L 326.55,-0 L 326.55,-6 L 326.606,-6.53017
 L 326.77,-7.03717 L 327.037,-7.49884 L 327.394,-7.895 L 327.825,-8.20836 L 328.312,-8.42519 L 328.833,-8.53603
 L 329.367,-8.53603 L 329.888,-8.42519 L 330.375,-8.20836 L 330.806,-7.895 L 331.163,-7.49884 L 331.43,-7.03717
 L 331.594,-6.53017 L 331.65,-6 L 331.65,-0 L 487.35,-0 L 487.35,-6 L 487.406,-6.53017
 L 487.57,-7.03717 L 487.837,-7.49884 L 488.194,-7.895 L 488.625,-8.20836 L 489.112,-8.42519 L 489.633,-8.53603
 L 490.167,-8.53603 L 490.688,-8.42519 L 491.175,-8.20836 L 491.606,-7.895 L 491.963,-7.49884 L 492.23,-7.03717
 L 492.394,-6.53017 L 492.45,-6 L 492.45,-0 L 648.15,-0 L 648.15,-6 L 648.206,-6.53017
 L 648.37,-7.03717 L 648.637,-7.49884 L 648.994,-7.895 L 649.425,-8.20836 L 649.912,-8.42519 L 650.433,-8.53603
 L 650.967,-8.53603 L 651.488,-8.42519 L 651.975,-8.20836 L 652.406,-7.895 L 652.763,-7.49884 L 653.03,-7.03717
 L 653.194,-6.53017 L 653.25,-6 L 653.25,-0 L 808.95,-0 L 808.95,-6 L 809.006,-6.53017
 L 809.17,-7.03717 L 809.437,-7.49884 L 809.794,-7.895 L 810.225,-8.20836 L 810.712,-8.42519 L 811.233,-8.53603
 L 811.767,-8.53603 L 812.288,-8.42519 L 812.775,-8.20836 L 813.206,-7.895 L 813.563,-7.49884 L 813.83,-7.03717
 L 813.994,-6.53017 L 814.05,-6 L 814.05,-0 L 819,-0 z
M 6.98573,-55.607 L 6.47708,-55.6875 L 5.97964,-55.8208 L 5.49887,-56.0054 L 5.04001,-56.2392 L 4.60811,-56.5196
 L 4.20789,-56.8437 L 3.84373,-57.2079 L 3.51964,-57.6081 L 3.23917,-58.04 L 3.00537,-58.4989 L 2.82082,-58.9796
 L 2.68752,-59.4771 L 2.60696,-59.9857 L 2.58,-60.5 L 2.60696,-61.0143 L 2.68752,-61.5229 L 2.82082,-62.0204
 L 3.00537,-62.5011 L 3.23917,-62.96 L 3.51964,-63.3919 L 3.84373,-63.7921 L 4.20789,-64.1563 L 4.60811,-64.4804
 L 4.95001,-64.7024 L 4.95001,-74 L 5.00574,-74.5302 L 5.17047,-75.0372 L 5.43701,-75.4988 L 5.79373,-75.895
 L 6.22501,-76.2084 L 6.71202,-76.4252 L 7.23346,-76.536 L 7.76654,-76.536 L 8.28798,-76.4252 L 8.77499,-76.2084
 L 9.20627,-75.895 L 9.56299,-75.4988 L 9.82953,-75.0372 L 9.99426,-74.5302 L 10.05,-74 L 10.05,-64.7024
 L 10.3919,-64.4804 L 10.7921,-64.1563 L 11.1563,-63.7921 L 11.4804,-63.3919 L 11.7608,-62.96 L 11.9946,-62.5011
 L 12.1792,-62.0204 L 12.3125,-61.5229 L 12.393,-61.0143 L 12.42,-60.5 L 12.393,-59.9857 L 12.3125,-59.4771
 L 12.1792,-58.9796 L 11.9946,-58.4989 L 11.7608,-58.04 L 11.4804,-57.6081 L 11.1563,-57.2079 L 10.7921,-56.8437
 L 10.3919,-56.5196 L 9.95999,-56.2392 L 9.50113,-56.0054 L 9.02036,-55.8208 L 8.52292,-55.6875 L 8.01427,-55.607
 L 7.5,-55.58 z
M 167.786,-55.607 L 167.277,-55.6875 L 166.78,-55.8208 L 166.299,-56.0054 L 165.84,-56.2392 L 165.408,-56.5196
 L 165.008,-56.8437 L 164.644,-57.2079 L 164.32,-57.6081 L 164.039,-58.04 L 163.805,-58.4989 L 163.621,-58.9796
 L 163.488,-59.4771 L 163.407,-59.9857 L 163.38,-60.5 L 163.407,-61.0143 L 163.488,-61.5229 L 163.621,-62.0204
 L 163.805,-62.5011 L 164.039,-62.96 L 164.32,-63.3919 L 164.644,-63.7921 L 165.008,-64.1563 L 165.408,-64.4804
 L 165.75,-64.7024 L 165.75,-74 L 165.806,-74.5302 L 165.97,-75.0372 L 166.237,-75.4988 L 166.594,-75.895
 L 167.025,-76.2084 L 167.512,-76.4252 L 168.033,-76.536 L 168.567,-76.536 L 169.088,-76.4252 L 169.575,-76.2084
 L 170.006,-75.895 L 170.363,-75.4988 L 170.63,-75.0372 L 170.794,-74.5302 L 170.85,-74 L 170.85,-64.7024
 L 171.192,-64.4804 L 171.592,-64.1563 L 171.956,-63.7921 L 172.28,-63.3919 L 172.561,-62.96 L 172.795,-62.5011
 L 172.979,-62.0204 L 173.112,-61.5229 L 173.193,-61.0143 L 173.22,-60.5 L 173.193,-59.9857 L 173.112,-59.4771
 L 172.979,-58.9796 L 172.795,-58.4989 L 172.561,-58.04 L 172.28,-57.6081 L 171.956,-57.2079 L 171.592,-56.8437
 L 171.192,-56.5196 L 170.76,-56.2392 L 170.301,-56.0054 L 169.82,-55.8208 L 169.323,-55.6875 L 168.814,-55.607
 L 168.3,-55.58 z
M 328.586,-55.607 L 328.077,-55.6875 L 327.58,-55.8208 L 327.099,-56.0054 L 326.64,-56.2392 L 326.208,-56.5196
 L 325.808,-56.8437 L 325.444,-57.2079 L 325.12,-57.6081 L 324.839,-58.04 L 324.605,-58.4989 L 324.421,-58.9796
 L 324.288,-59.4771 L 324.207,-59.9857 L 324.18,-60.5 L 324.207,-61.0143 L 324.288,-61.5229 L 324.421,-62.0204
 L 324.605,-62.5011 L 324.839,-62.96 L 325.12,-63.3919 L 325.444,-63.7921 L 325.808,-64.1563 L 326.208,-64.4804
 L 326.55,-64.7024 L 326.55,-74 L 326.606,-74.5302 L 326.77,-75.0372 L 327.037,-75.4988 L 327.394,-75.895
 L 327.825,-76.2084 L 328.312,-76.4252 L 328.833,-76.536 L 329.367,-76.536 L 329.888,-76.4252 L 330.375,-76.2084
 L 330.806,-75.895 L 331.163,-75.4988 L 331.43,-75.0372 L 331.594,-74.5302 L 331.65,-74 L 331.65,-64.7024
 L 331.992,-64.4804 L 332.392,-64.1563 L 332.756,-63.7921 L 333.08,-63.3919 L 333.361,-62.96 L 333.595,-62.5011
 L 333.779,-62.0204 L 333.912,-61.5229 L 333.993,-61.0143 L 334.02,-60.5 L 333.993,-59.9857 L 333.912,-59.4771
 L 333.779,-58.9796 L 333.595,-58.4989 L 333.361,-58.04 L 333.08,-57.6081 L 332.756,-57.2079 L 332.392,-56.8437
 L 331.992,-56.5196 L 331.56,-56.2392 L 331.101,-56.0054 L 330.62,-55.8208 L 330.123,-55.6875 L 329.614,-55.607
 L 329.1,-55.58 z
M 489.386,-55.607 L 488.877,-55.6875 L 488.38,-55.8208 L 487.899,-56.0054 L 487.44,-56.2392 L 487.008,-56.5196
 L 486.608,-56.8437 L 486.244,-57.2079 L 485.92,-57.6081 L 485.639,-58.04 L 485.405,-58.4989 L 485.221,-58.9796
 L 485.088,-59.4771 L 485.007,-59.9857 L 484.98,-60.5 L 485.007,-61.0143 L 485.088,-61.5229 L 485.221,-62.0204
 L 485.405,-62.5011 L 485.639,-62.96 L 485.92,-63.3919 L 486.244,-63.7921 L 486.608,-64.1563 L 487.008,-64.4804
 L 487.35,-64.7024 L 487.35,-74 L 487.406,-74.5302 L 487.57,-75.0372 L 487.837,-75.4988 L 488.194,-75.895
 L 488.625,-76.2084 L 489.112,-76.4252 L 489.633,-76.536 L 490.167,-76.536 L 490.688,-76.4252 L 491.175,-76.2084
 L 491.606,-75.895 L 491.963,-75.4988 L 492.23,-75.0372 L 492.394,-74.5302 L 492.45,-74 L 492.45,-64.7024
 L 492.792,-64.4804 L 493.192,-64.1563 L 493.556,-63.7921 L 493.88,-63.3919 L 494.161,-62.96 L 494.395,-62.5011
 L 494.579,-62.0204 L 494.712,-61.5229 L 494.793,-61.0143 L 494.82,-60.5 L 494.793,-59.9857 L 494.712,-59.4771
 L 494.579,-58.9796 L 494.395,-58.4989 L 494.161,-58.04 L 493.88,-57.6081 L 493.556,-57.2079 L 493.192,-56.8437
 L 492.792,-56.5196 L 492.36,-56.2392 L 491.901,-56.0054 L 491.42,-55.8208 L 490.923,-55.6875 L 490.414,-55.607
 L 489.9,-55.58 z
M 650.186,-55.607 L 649.677,-55.6875 L 649.18,-55.8208 L 648.699,-56.0054 L 648.24,-56.2392 L 647.808,-56.5196
 L 647.408,-56.8437 L 647.044,-57.2079 L 646.72,-57.6081 L 646.439,-58.04 L 646.205,-58.4989 L 646.021,-58.9796
 L 645.888,-59.4771 L 645.807,-59.9857 L 645.78,-60.5 L 645.807,-61.0143 L 645.888,-61.5229 L 646.021,-62.0204
 L 646.205,-62.5011 L 646.439,-62.96 L 646.72,-63.3919 L 647.044,-63.7921 L 647.408,-64.1563 L 647.808,-64.4804
 L 648.15,-64.7024 L 648.15,-74 L 648.206,-74.5302 L 648.37,-75.0372 L 648.637,-75.4988 L 648.994,-75.895
 L 649.425,-76.2084 L 649.912,-76.4252 L 650.433,-76.536 L 650.967,-76.536 L 651.488,-76.4252 L 651.975,-76.2084
 L 652.406,-75.895 L 652.763,-75.4988 L 653.03,-75.0372 L 653.194,-74.5302 L 653.25,-74 L 653.25,-64.7024
 L 653.592,-64.4804 L 653.992,-64.1563 L 654.356,-63.7921 L 654.68,-63.3919 L 654.961,-62.96 L 655.195,-62.5011
 L 655.379,-62.0204 L 655.512,-61.5229 L 655.593,-61.0143 L 655.62,-60.5 L 655.593,-59.9857 L 655.512,-59.4771
 L 655.379,-58.9796 L 655.195,-58.4989 L 654.961,-58.04 L 654.68,-57.6081 L 654.356,-57.2079 L 653.992,-56.8437
 L 653.592,-56.5196 L 653.16,-56.2392 L 652.701,-56.0054 L 652.22,-55.8208 L 651.723,-55.6875 L 651.214,-55.607
 L 650.7,-55.58 z
M 810.986,-55.607 L 810.477,-55.6875 L 809.98,-55.8208 L 809.499,-56.0054 L 809.04,-56.2392 L 808.608,-56.5196
 L 808.208,-56.8437 L 807.844,-57.2079 L 807.52,-57.6081 L 807.239,-58.04 L 807.005,-58.4989 L 806.821,-58.9796
 L 806.688,-59.4771 L 806.607,-59.9857 L 806.58,-60.5 L 806.607,-61.0143 L 806.688,-61.5229 L 806.821,-62.0204
 L 807.005,-62.5011 L 807.239,-62.96 L 807.52,-63.3919 L 807.844,-63.7921 L 808.208,-64.1563 L 808.608,-64.4804
 L 808.95,-64.7024 L 808.95,-74 L 809.006,-74.5302 L 809.17,-75.0372 L 809.437,-75.4988 L 809.794,-75.895
 L 810.225,-76.2084 L 810.712,-76.4252 L 811.233,-76.536 L 811.767,-76.536 L 812.288,-76.4252 L 812.775,-76.2084
 L 813.206,-75.895 L 813.563,-75.4988 L 813.83,-75.0372 L 813.994,-74.5302 L 814.05,-74 L 814.05,-64.7024
 L 814.392,-64.4804 L 814.792,-64.1563 L 815.156,-63.7921 L 815.48,-63.3919 L 815.761,-62.96 L 815.995,-62.5011
 L 816.179,-62.0204 L 816.312,-61.5229 L 816.393,-61.0143 L 816.42,-60.5 L 816.393,-59.9857 L 816.312,-59.4771
 L 816.179,-58.9796 L 815.995,-58.4989 L 815.761,-58.04 L 815.48,-57.6081 L 815.156,-57.2079 L 814.792,-56.8437
 L 814.392,-56.5196 L 813.96,-56.2392 L 813.501,-56.0054 L 813.02,-55.8208 L 812.523,-55.6875 L 812.014,-55.607
 L 811.5,-55.58 z
M 408.742,-48.0135 L 407.942,-48.2569 L 393.614,-54.3159 L 392.821,-54.7639 L 392.2,-55.3235 L 391.708,-56
 L 391.368,-56.7639 L 391.194,-57.5819 L 391.194,-58.4181 L 391.368,-59.2361 L 391.708,-60 L 392.2,-60.6765
 L 392.821,-61.2361 L 393.545,-61.6542 L 394.341,-61.9126 L 395.172,-62 L 423.828,-62 L 424.733,-61.8963
 L 425.523,-61.623 L 426.239,-61.1913 L 426.85,-60.6202 L 427.329,-59.9345 L 427.654,-59.1643 L 427.813,-58.3432
 L 427.797,-57.5072 L 427.608,-56.6926 L 427.254,-55.9352 L 426.749,-55.2681 L 426.118,-54.7203 L 425.386,-54.3159
 L 411.058,-48.2569 L 410.405,-48.0448 L 409.575,-47.9417 z
M 315.342,-21.6821 L 314.542,-21.9255 L 237.948,-54.3159 L 237.155,-54.7639 L 236.534,-55.3235 L 236.042,-56
 L 235.702,-56.7639 L 235.528,-57.5819 L 235.528,-58.4181 L 235.702,-59.2361 L 236.042,-60 L 236.534,-60.6765
 L 237.155,-61.2361 L 237.879,-61.6542 L 238.675,-61.9126 L 239.506,-62 L 316.1,-62 L 317.336,-61.8042
 L 318.1,-61.4641 L 318.777,-60.9726 L 319.336,-60.3511 L 319.754,-59.627 L 320.013,-58.8316 L 320.1,-58
 L 320.1,-25.6096 L 319.927,-24.4453 L 319.601,-23.6751 L 319.122,-22.9895 L 318.512,-22.4183 L 317.795,-21.9867
 L 317.005,-21.7134 L 316.175,-21.6103 z
M 662.795,-21.7134 L 662.005,-21.9867 L 661.288,-22.4183 L 660.678,-22.9895 L 660.199,-23.6751 L 659.873,-24.4453
 L 659.7,-25.6096 L 659.7,-58 L 659.787,-58.8316 L 660.046,-59.627 L 660.464,-60.3511 L 661.023,-60.9726
 L 661.7,-61.4641 L 662.464,-61.8042 L 663.7,-62 L 740.294,-62 L 741.125,-61.9126 L 741.921,-61.6542
 L 742.645,-61.2361 L 743.266,-60.6765 L 743.758,-60 L 744.098,-59.2361 L 744.272,-58.4181 L 744.272,-57.5819
 L 744.098,-56.7639 L 743.758,-56 L 743.266,-55.3235 L 742.645,-54.7639 L 741.852,-54.3159 L 665.258,-21.9255
 L 664.458,-21.6821 L 663.625,-21.6103 z
M 154.542,-21.6821 L 153.742,-21.9255 L 77.1483,-54.3159 L 76.3552,-54.7639 L 75.7337,-55.3235 L 75.2422,-56
 L 74.9021,-56.7639 L 74.7282,-57.5819 L 74.7282,-58.4181 L 74.9021,-59.2361 L 75.2422,-60 L 75.7337,-60.6765
 L 76.3552,-61.2361 L 77.0794,-61.6542 L 77.8747,-61.9126 L 78.7063,-62 L 155.3,-62 L 156.536,-61.8042
 L 157.3,-61.4641 L 157.977,-60.9726 L 158.536,-60.3511 L 158.954,-59.627 L 159.213,-58.8316 L 159.3,-58
 L 159.3,-25.6096 L 159.127,-24.4453 L 158.801,-23.6751 L 158.322,-22.9895 L 157.712,-22.4183 L 156.995,-21.9867
 L 156.205,-21.7134 L 155.375,-21.6103 z
M 501.995,-21.7134 L 501.205,-21.9867 L 500.488,-22.4183 L 499.878,-22.9895 L 499.399,-23.6751 L 499.073,-24.4453
 L 498.9,-25.6096 L 498.9,-58 L 498.987,-58.8316 L 499.246,-59.627 L 499.664,-60.3511 L 500.223,-60.9726
 L 500.9,-61.4641 L 501.664,-61.8042 L 502.9,-62 L 579.494,-62 L 580.325,-61.9126 L 581.121,-61.6542
 L 581.845,-61.2361 L 582.466,-60.6765 L 582.958,-60 L 583.298,-59.2361 L 583.472,-58.4181 L 583.472,-57.5819
 L 583.298,-56.7639 L 582.958,-56 L 582.466,-55.3235 L 581.845,-54.7639 L 581.052,-54.3159 L 504.458,-21.9255
 L 503.658,-21.6821 L 502.825,-21.6103 z
M 341.682,-19.4605 L 340.864,-19.6343 L 340.1,-19.9745 L 339.423,-20.466 L 338.864,-21.0874 L 338.446,-21.8116
 L 338.187,-22.6069 L 338.1,-23.4386 L 338.1,-56.5614 L 338.273,-57.7258 L 338.599,-58.496 L 339.078,-59.1816
 L 339.688,-59.7527 L 340.405,-60.1844 L 341.195,-60.4577 L 342.025,-60.5607 L 342.858,-60.489 L 343.658,-60.2456
 L 382.821,-43.6841 L 383.674,-43.1913 L 384.285,-42.6202 L 384.764,-41.9345 L 385.09,-41.1643 L 385.248,-40.3432
 L 385.232,-39.5072 L 385.043,-38.6926 L 384.689,-37.9352 L 384.185,-37.2681 L 383.553,-36.7203 L 382.821,-36.3159
 L 343.658,-19.7544 L 342.518,-19.4605 z
M 476.142,-19.511 L 475.342,-19.7544 L 436.179,-36.3159 L 435.325,-36.8087 L 434.715,-37.3798 L 434.236,-38.0655
 L 433.91,-38.8357 L 433.752,-39.6568 L 433.767,-40.4928 L 433.957,-41.3074 L 434.311,-42.0648 L 434.815,-42.7319
 L 435.447,-43.2797 L 436.179,-43.6841 L 475.342,-60.2456 L 476.482,-60.5396 L 477.318,-60.5396 L 478.136,-60.3657
 L 478.9,-60.0256 L 479.577,-59.534 L 480.136,-58.9126 L 480.554,-58.1884 L 480.813,-57.3931 L 480.9,-56.5615
 L 480.9,-23.4385 L 480.727,-22.2742 L 480.401,-21.504 L 479.922,-20.8184 L 479.312,-20.2472 L 478.595,-19.8156
 L 477.805,-19.5423 L 476.975,-19.4392 z
M 181.3,-18 L 180.064,-18.1958 L 179.3,-18.5359 L 178.623,-19.0274 L 178.064,-19.6489 L 177.646,-20.373
 L 177.387,-21.1684 L 177.3,-22 L 177.3,-54.3904 L 177.473,-55.5547 L 177.799,-56.3249 L 178.278,-57.0105
 L 178.888,-57.5816 L 179.605,-58.0133 L 180.395,-58.2866 L 181.225,-58.3896 L 182.058,-58.3179 L 182.858,-58.0745
 L 259.452,-25.6841 L 260.245,-25.2361 L 260.866,-24.6765 L 261.358,-24 L 261.698,-23.2361 L 261.872,-22.4181
 L 261.872,-21.5819 L 261.698,-20.7639 L 261.358,-20 L 260.866,-19.3235 L 260.245,-18.7639 L 259.521,-18.3458
 L 258.725,-18.0874 L 257.894,-18 z
M 561.106,-18 L 560.275,-18.0874 L 559.479,-18.3458 L 558.755,-18.7639 L 558.134,-19.3235 L 557.642,-20
 L 557.302,-20.7639 L 557.128,-21.5819 L 557.128,-22.4181 L 557.302,-23.2361 L 557.642,-24 L 558.134,-24.6765
 L 558.755,-25.2361 L 559.548,-25.6841 L 636.142,-58.0745 L 636.942,-58.3179 L 637.775,-58.3896 L 638.605,-58.2866
 L 639.395,-58.0133 L 640.112,-57.5816 L 640.722,-57.0105 L 641.201,-56.3249 L 641.527,-55.5547 L 641.7,-54.3904
 L 641.7,-22 L 641.613,-21.1684 L 641.354,-20.373 L 640.936,-19.6489 L 640.377,-19.0274 L 639.7,-18.5359
 L 638.936,-18.1958 L 637.7,-18 z
M 22,-18 L 20.7639,-18.1958 L 20,-18.5359 L 19.3235,-19.0274 L 18.7639,-19.6489 L 18.3458,-20.373
 L 18.0874,-21.1684 L 18,-22 L 18,-53.756 L 18.1732,-54.9204 L 18.4989,-55.6906 L 18.9776,-56.3762
 L 19.5884,-56.9473 L 20.3046,-57.379 L 21.0949,-57.6523 L 21.9248,-57.7553 L 22.7579,-57.6836 L 23.558,-57.4402
 L 98.6516,-25.6841 L 99.4448,-25.2361 L 100.066,-24.6765 L 100.558,-24 L 100.898,-23.2361 L 101.072,-22.4181
 L 101.072,-21.5819 L 100.898,-20.7639 L 100.558,-20 L 100.066,-19.3235 L 99.4448,-18.7639 L 98.7206,-18.3458
 L 97.9253,-18.0874 L 97.0937,-18 z
M 721.906,-18 L 721.075,-18.0874 L 720.279,-18.3458 L 719.555,-18.7639 L 718.934,-19.3235 L 718.442,-20
 L 718.102,-20.7639 L 717.928,-21.5819 L 717.928,-22.4181 L 718.102,-23.2361 L 718.442,-24 L 718.934,-24.6765
 L 719.555,-25.2361 L 720.348,-25.6841 L 795.442,-57.4402 L 796.242,-57.6836 L 797.075,-57.7553 L 797.905,-57.6523
 L 798.695,-57.379 L 799.412,-56.9473 L 800.022,-56.3762 L 800.501,-55.6906 L 800.827,-54.9204 L 801,-53.756
 L 801,-22 L 800.913,-21.1684 L 800.654,-20.373 L 800.236,-19.6489 L 799.677,-19.0274 L 799,-18.5359
 L 798.236,-18.1958 L 797,-18 z
M 395.172,-18 L 394.267,-18.1037 L 393.477,-18.377 L 392.761,-18.8087 L 392.15,-19.3798 L 391.671,-20.0655
 L 391.346,-20.8357 L 391.187,-21.6568 L 391.203,-22.4928 L 391.392,-23.3074 L 391.746,-24.0648 L 392.251,-24.7319
 L 392.882,-25.2797 L 393.614,-25.6841 L 407.942,-31.7431 L 408.595,-31.9552 L 409.425,-32.0583 L 410.258,-31.9865
 L 411.058,-31.7431 L 425.386,-25.6841 L 426.179,-25.2361 L 426.8,-24.6765 L 427.292,-24 L 427.632,-23.2361
 L 427.806,-22.4181 L 427.806,-21.5819 L 427.632,-20.7639 L 427.292,-20 L 426.8,-19.3235 L 426.179,-18.7639
 L 425.455,-18.3458 L 424.659,-18.0874 L 423.828,-18 z
" stroke="black" fill="lightgray" stroke-width="0.5"/>
</svg>
