<?xml version="1.0" standalone="no"?>
<!DOCTYPE svg PUBLIC "-//W3C//DTD SVG 1.1//EN" "http://www.w3.org/Graphics/SVG/1.1/DTD/svg11.dtd">
<svg width="663mm" height="80mm" viewBox="0 -80 663 80" xmlns="http://www.w3.org/2000/svg" version="1.1">
<title>OpenSCAD Model</title>
<path d="
M 663,-80 L 0,-80 L 0,-0 L 4.95,-0 L 4.95,-6 L 5.00572,-6.53017
 L 5.17046,-7.03717 L 5.437,-7.49884 L 5.79372,-7.895 L 6.22499,-8.20836 L 6.71201,-8.42519 L 7.23344,-8.53603
 L 7.76654,-8.53603 L 8.28798,-8.42519 L 8.77499,-8.20836 L 9.20627,-7.895 L 9.56299,-7.49884 L 9.82953,-7.03717
 L 9.99426,-6.53017 L 10.05,-6 L 10.05,-0 L 134.55,-0 L 134.55,-6 L 134.606,-6.53017
 L 134.77,-7.03717 L 135.037,-7.49884 L 135.394,-7.895 L 135.825,-8.20836 L 136.312,-8.42519 L 136.833,-8.53603
 L 137.367,-8.53603 L 137.888,-8.42519 L 138.375,-8.20836 L 138.806,-7.895 L 139.163,-7.49884 L 139.43,-7.03717
 L 139.594,-6.53017 L 139.65,-6 L 139.65,-0 L 264.15,-0 L 264.15,-6 L 264.206,-6.53017
 L 264.37,-7.03717 L 264.637,-7.49884 L 264.994,-7.895 L 265.425,-8.20836 L 265.912,-8.42519 L 266.433,-8.53603
 L 266.967,-8.53603 L 267.488,-8.42519 L 267.975,-8.20836 L 268.406,-7.895 L 268.763,-7.49884 L 269.03,-7.03717
 L 269.194,-6.53017 L 269.25,-6 L 269.25,-0 L 393.75,-0 L 393.75,-6 L 393.806,-6.53017
 L 393.97,-7.03717 L 394.237,-7.49884 L 394.594,-7.895 L 395.025,-8.20836 L 395.512,-8.42519 L 396.033,-8.53603
 L 396.567,-8.53603 L 397.088,-8.42519 L 397.575,-8.20836 L 398.006,-7.895 L 398.363,-7.49884 L 398.63,-7.03717
 L 398.794,-6.53017 L 398.85,-6 L 398.85,-0 L 523.35,-0 L 523.35,-6 L 523.406,-6.53017
 L 523.57,-7.03717 L 523.837,-7.49884 L 524.194,-7.895 L 524.625,-8.20836 L 525.112,-8.42519 L 525.633,-8.53603
 L 526.167,-8.53603 L 526.688,-8.42519 L 527.175,-8.20836 L 527.606,-7.895 L 527.963,-7.49884 L 528.23,-7.03717
 L 528.394,-6.53017 L 528.45,-6 L 528.45,-0 L 652.95,-0 L 652.95,-6 L 653.006,-6.53017
 L 653.17,-7.03717 L 653.437,-7.49884 L 653.794,-7.895 L 654.225,-8.20836 L 654.712,-8.42519 L 655.233,-8.53603
 L 655.767,-8.53603 L 656.288,-8.42519 L 656.775,-8.20836 L 657.206,-7.895 L 657.563,-7.49884 L 657.83,-7.03717
 L 657.994,-6.53017 L 658.05,-6 L 658.05,-0 L 663,-0 z
M 6.98573,-55.607 L 6.47708,-55.6875 L 5.97964,-55.8208 L 5.49887,-56.0054 L 5.04001,-56.2392 L 4.60811,-56.5196
 L 4.20789,-56.8437 L 3.84373,-57.2079 L 3.51964,-57.6081 L 3.23917,-58.04 L 3.00537,-58.4989 L 2.82082,-58.9796
 L 2.68752,-59.4771 L 2.60696,-59.9857 L 2.58,-60.5 L 2.60696,-61.0143 L 2.68752,-61.5229 L 2.82082,-62.0204
 L 3.00537,-62.5011 L 3.23917,-62.96 L 3.51964,-63.3919 L 3.84373,-63.7921 L 4.20789,-64.1563 L 4.60811,-64.4804
 L 4.95001,-64.7024 L 4.95001,-74 L 5.00574,-74.5302 L 5.17047,-75.0372 L 5.43701,-75.4988 L 5.79373,-75.895
 L 6.22501,-76.2084 L 6.71202,-76.4252 L 7.23346,-76.536 L 7.76654,-76.536 L 8.28798,-76.4252 L 8.77499,-76.2084
 L 9.20627,-75.895 L 9.56299,-75.4988 L 9.82953,-75.0372 L 9.99426,-74.5302 L 10.05,-74 L 10.05,-64.7024
 L 10.3919,-64.4804 L 10.7921,-64.1563 L 11.1563,-63.7921 L 11.4804,-63.3919 L 11.7608,-62.96 L 11.9946,-62.5011
 L 12.1792,-62.0204 L 12.3125,-61.5229 L 12.393,-61.0143 L 12.42,-60.5 L 12.393,-59.9857 L 12.3125,-59.4771
 L 12.1792,-58.9796 L 11.9946,-58.4989 L 11.7608,-58.04 L 11.4804,-57.6081 L 11.1563,-57.2079 L 10.7921,-56.8437
 L 10.3919,-56.5196 L 9.95999,-56.2392 L 9.50113,-56.0054 L 9.02036,-55.8208 L 8.52292,-55.6875 L 8.01427,-55.607
 L 7.5,-55.58 z
M 136.586,-55.607 L 136.077,-55.6875 L 135.58,-55.8208 L 135.099,-56.0054 L 134.64,-56.2392 L 134.208,-56.5196
 L 133.808,-56.8437 L 133.444,-57.2079 L 133.12,-57.6081 L 132.839,-58.04 L 132.605,-58.4989 L 132.421,-58.9796
 L 132.288,-59.4771 L 132.207,-59.9857 L 132.18,-60.5 L 132.207,-61.0143 L 132.288,-61.5229 L 132.421,-62.0204
 L 132.605,-62.5011 L 132.839,-62.96 L 133.12,-63.3919 L 133.444,-63.7921 L 133.808,-64.1563 L 134.208,-64.4804
 L 134.55,-64.7024 L 134.55,-74 L 134.606,-74.5302 L 134.77,-75.0372 L 135.037,-75.4988 L 135.394,-75.895
 L 135.825,-76.2084 L 136.312,-76.4252 L 136.833,-76.536 L 137.367,-76.536 L 137.888,-76.4252 L 138.375,-76.2084
 L 138.806,-75.895 L 139.163,-75.4988 L 139.43,-75.0372 L 139.594,-74.5302 L 139.65,-74 L 139.65,-64.7024
 L 139.992,-64.4804 L 140.392,-64.1563 L 140.756,-63.7921 L 141.08,-63.3919 L 141.361,-62.96 L 141.595,-62.5011
 L 141.779,-62.0204 L 141.912,-61.5229 L 141.993,-61.0143 L 142.02,-60.5 L 141.993,-59.9857 L 141.912,-59.4771
 L 141.779,-58.9796 L 141.595,-58.4989 L 141.361,-58.04 L 141.08,-57.6081 L 140.756,-57.2079 L 140.392,-56.8437
 L 139.992,-56.5196 L 139.56,-56.2392 L 139.101,-56.0054 L 138.62,-55.8208 L 138.123,-55.6875 L 137.614,-55.607
 L 137.1,-55.58 z
M 266.186,-55.607 L 265.677,-55.6875 L 265.18,-55.8208 L 264.699,-56.0054 L 264.24,-56.2392 L 263.808,-56.5196
 L 263.408,-56.8437 L 263.044,-57.2079 L 262.72,-57.6081 L 262.439,-58.04 L 262.205,-58.4989 L 262.021,-58.9796
 L 261.888,-59.4771 L 261.807,-59.9857 L 261.78,-60.5 L 261.807,-61.0143 L 261.888,-61.5229 L 262.021,-62.0204
 L 262.205,-62.5011 L 262.439,-62.96 L 262.72,-63.3919 L 263.044,-63.7921 L 263.408,-64.1563 L 263.808,-64.4804
 L 264.15,-64.7024 L 264.15,-74 L 264.206,-74.5302 L 264.37,-75.0372 L 264.637,-75.4988 L 264.994,-75.895
 L 265.425,-76.2084 L 265.912,-76.4252 L 266.433,-76.536 L 266.967,-76.536 L 267.488,-76.4252 L 267.975,-76.2084
 L 268.406,-75.895 L 268.763,-75.4988 L 269.03,-75.0372 L 269.194,-74.5302 L 269.25,-74 L 269.25,-64.7024
 L 269.592,-64.4804 L 269.992,-64.1563 L 270.356,-63.7921 L 270.68,-63.3919 L 270.961,-62.96 L 271.195,-62.5011
 L 271.379,-62.0204 L 271.512,-61.5229 L 271.593,-61.0143 L 271.62,-60.5 L 271.593,-59.9857 L 271.512,-59.4771
 L 271.379,-58.9796 L 271.195,-58.4989 L 270.961,-58.04 L 270.68,-57.6081 L 270.356,-57.2079 L 269.992,-56.8437
 L 269.592,-56.5196 L 269.16,-56.2392 L 268.701,-56.0054 L 268.22,-55.8208 L 267.723,-55.6875 L 267.214,-55.607
 L 266.7,-55.58 z
M 395.786,-55.607 L 395.277,-55.6875 L 394.78,-55.8208 L 394.299,-56.0054 L 393.84,-56.2392 L 393.408,-56.5196
 L 393.008,-56.8437 L 392.644,-57.2079 L 392.32,-57.6081 L 392.039,-58.04 L 391.805,-58.4989 L 391.621,-58.9796
 L 391.488,-59.4771 L 391.407,-59.9857 L 391.38,-60.5 L 391.407,-61.0143 L 391.488,-61.5229 L 391.621,-62.0204
 L 391.805,-62.5011 L 392.039,-62.96 L 392.32,-63.3919 L 392.644,-63.7921 L 393.008,-64.1563 L 393.408,-64.4804
 L 393.75,-64.7024 L 393.75,-74 L 393.806,-74.5302 L 393.97,-75.0372 L 394.237,-75.4988 L 394.594,-75.895
 L 395.025,-76.2084 L 395.512,-76.4252 L 396.033,-76.536 L 396.567,-76.536 L 397.088,-76.4252 L 397.575,-76.2084
 L 398.006,-75.895 L 398.363,-75.4988 L 398.63,-75.0372 L 398.794,-74.5302 L 398.85,-74 L 398.85,-64.7024
 L 399.192,-64.4804 L 399.592,-64.1563 L 399.956,-63.7921 L 400.28,-63.3919 L 400.561,-62.96 L 400.795,-62.5011
 L 400.979,-62.0204 L 401.112,-61.5229 L 401.193,-61.0143 L 401.22,-60.5 L 401.193,-59.9857 L 401.112,-59.4771
 L 400.979,-58.9796 L 400.795,-58.4989 L 400.561,-58.04 L 400.28,-57.6081 L 399.956,-57.2079 L 399.592,-56.8437
 L 399.192,-56.5196 L 398.76,-56.2392 L 398.301,-56.0054 L 397.82,-55.8208 L 397.323,-55.6875 L 396.814,-55.607
 L 396.3,-55.58 z
M 525.386,-55.607 L 524.877,-55.6875 L 524.38,-55.8208 L 523.899,-56.0054 L 523.44,-56.2392 L 523.008,-56.5196
 L 522.608,-56.8437 L 522.244,-57.2079 L 521.92,-57.6081 L 521.639,-58.04 L 521.405,-58.4989 L 521.221,-58.9796
 L 521.088,-59.4771 L 521.007,-59.9857 L 520.98,-60.5 L 521.007,-61.0143 L 521.088,-61.5229 L 521.221,-62.0204
 L 521.405,-62.5011 L 521.639,-62.96 L 521.92,-63.3919 L 522.244,-63.7921 L 522.608,-64.1563 L 523.008,-64.4804
 L 523.35,-64.7024 L 523.35,-74 L 523.406,-74.5302 L 523.57,-75.0372 L 523.837,-75.4988 L 524.194,-75.895
 L 524.625,-76.2084 L 525.112,-76.4252 L 525.633,-76.536 L 526.167,-76.536 L 526.688,-76.4252 L 527.175,-76.2084
 L 527.606,-75.895 L 527.963,-75.4988 L 528.23,-75.0372 L 528.394,-74.5302 L 528.45,-74 L 528.45,-64.7024
 L 528.792,-64.4804 L 529.192,-64.1563 L 529.556,-63.7921 L 529.88,-63.3919 L 530.161,-62.96 L 530.395,-62.5011
 L 530.579,-62.0204 L 530.712,-61.5229 L 530.793,-61.0143 L 530.82,-60.5 L 530.793,-59.9857 L 530.712,-59.4771
 L 530.579,-58.9796 L 530.395,-58.4989 L 530.161,-58.04 L 529.88,-57.6081 L 529.556,-57.2079 L 529.192,-56.8437
 L 528.792,-56.5196 L 528.36,-56.2392 L 527.901,-56.0054 L 527.42,-55.8208 L 526.923,-55.6875 L 526.414,-55.607
 L 525.9,-55.58 z
M 654.986,-55.607 L 654.477,-55.6875 L 653.98,-55.8208 L 653.499,-56.0054 L 653.04,-56.2392 L 652.608,-56.5196
 L 652.208,-56.8437 L 651.844,-57.2079 L 651.52,-57.6081 L 651.239,-58.04 L 651.005,-58.4989 L 650.821,-58.9796
 L 650.688,-59.4771 L 650.607,-59.9857 L 650.58,-60.5 L 650.607,-61.0143 L 650.688,-61.5229 L 650.821,-62.0204
 L 651.005,-62.5011 L 651.239,-62.96 L 651.52,-63.3919 L 651.844,-63.7921 L 652.208,-64.1563 L 652.608,-64.4804
 L 652.95,-64.7024 L 652.95,-74 L 653.006,-74.5302 L 653.17,-75.0372 L 653.437,-75.4988 L 653.794,-75.895
 L 654.225,-76.2084 L 654.712,-76.4252 L 655.233,-76.536 L 655.767,-76.536 L 656.288,-76.4252 L 656.775,-76.2084
 L 657.206,-75.895 L 657.563,-75.4988 L 657.83,-75.0372 L 657.994,-74.5302 L 658.05,-74 L 658.05,-64.7024
 L 658.392,-64.4804 L 658.792,-64.1563 L 659.156,-63.7921 L 659.48,-63.3919 L 659.761,-62.96 L 659.995,-62.5011
 L 660.179,-62.0204 L 660.312,-61.5229 L 660.393,-61.0143 L 660.42,-60.5 L 660.393,-59.9857 L 660.312,-59.4771
 L 660.179,-58.9796 L 659.995,-58.4989 L 659.761,-58.04 L 659.48,-57.6081 L 659.156,-57.2079 L 658.792,-56.8437
 L 658.392,-56.5196 L 657.96,-56.2392 L 657.501,-56.0054 L 657.02,-55.8208 L 656.523,-55.6875 L 656.014,-55.607
 L 655.5,-55.58 z
M 330.419,-48.561 L 329.642,-48.87 L 318.992,-54.458 L 318.499,-54.7639 L 317.877,-55.3235 L 317.386,-56
 L 317.046,-56.7639 L 316.872,-57.5819 L 316.872,-58.4181 L 317.046,-59.2361 L 317.386,-60 L 317.877,-60.6765
 L 318.499,-61.2361 L 319.223,-61.6542 L 320.018,-61.9126 L 320.85,-62 L 342.15,-62 L 342.728,-61.958
 L 343.539,-61.7512 L 344.288,-61.3805 L 344.944,-60.8621 L 345.478,-60.2185 L 345.867,-59.4781 L 346.093,-58.673
 L 346.147,-57.8385 L 346.026,-57.011 L 345.735,-56.2268 L 345.288,-55.5201 L 344.704,-54.9218 L 344.008,-54.458
 L 333.358,-48.87 L 332.889,-48.6609 L 332.078,-48.4541 L 331.243,-48.4203 z
M 252.619,-23.6387 L 251.842,-23.9478 L 193.693,-54.458 L 193.2,-54.7639 L 192.579,-55.3235 L 192.087,-56
 L 191.747,-56.7639 L 191.573,-57.5819 L 191.573,-58.4181 L 191.747,-59.2361 L 192.087,-60 L 192.579,-60.6765
 L 193.2,-61.2361 L 193.924,-61.6542 L 194.719,-61.9126 L 195.551,-62 L 253.7,-62 L 254.936,-61.8042
 L 255.7,-61.4641 L 256.377,-60.9726 L 256.936,-60.3511 L 257.354,-59.627 L 257.613,-58.8316 L 257.7,-58
 L 257.7,-27.4898 L 257.643,-26.8168 L 257.417,-26.0117 L 257.028,-25.2713 L 256.494,-24.6277 L 255.838,-24.1093
 L 255.089,-23.7386 L 254.278,-23.5318 L 253.443,-23.4981 z
M 538.322,-23.5318 L 537.511,-23.7386 L 536.762,-24.1093 L 536.106,-24.6277 L 535.572,-25.2713 L 535.183,-26.0117
 L 534.957,-26.8168 L 534.9,-27.4898 L 534.9,-58 L 534.987,-58.8316 L 535.246,-59.627 L 535.664,-60.3511
 L 536.223,-60.9726 L 536.9,-61.4641 L 537.664,-61.8042 L 538.9,-62 L 597.049,-62 L 597.881,-61.9126
 L 598.676,-61.6542 L 599.4,-61.2361 L 600.021,-60.6765 L 600.513,-60 L 600.853,-59.2361 L 601.027,-58.4181
 L 601.027,-57.5819 L 600.853,-56.7639 L 600.513,-56 L 600.021,-55.3235 L 599.4,-54.7639 L 598.907,-54.458
 L 540.758,-23.9478 L 539.981,-23.6387 L 539.157,-23.4981 z
M 123.019,-23.6387 L 122.242,-23.9478 L 64.0927,-54.458 L 63.6,-54.7639 L 62.9786,-55.3235 L 62.487,-56
 L 62.1469,-56.7639 L 61.9731,-57.5819 L 61.9731,-58.4181 L 62.1469,-59.2361 L 62.487,-60 L 62.9786,-60.6765
 L 63.6,-61.2361 L 64.3242,-61.6542 L 65.1195,-61.9126 L 65.9511,-62 L 124.1,-62 L 125.336,-61.8042
 L 126.1,-61.4641 L 126.777,-60.9726 L 127.336,-60.3511 L 127.754,-59.627 L 128.013,-58.8316 L 128.1,-58
 L 128.1,-27.4898 L 128.043,-26.8168 L 127.817,-26.0117 L 127.428,-25.2713 L 126.894,-24.6277 L 126.238,-24.1093
 L 125.489,-23.7386 L 124.678,-23.5318 L 123.843,-23.4981 z
M 408.722,-23.5318 L 407.911,-23.7386 L 407.162,-24.1093 L 406.506,-24.6277 L 405.972,-25.2713 L 405.583,-26.0117
 L 405.357,-26.8168 L 405.3,-27.4898 L 405.3,-58 L 405.387,-58.8316 L 405.646,-59.627 L 406.064,-60.3511
 L 406.623,-60.9726 L 407.3,-61.4641 L 408.064,-61.8042 L 409.3,-62 L 467.449,-62 L 468.281,-61.9126
 L 469.076,-61.6542 L 469.8,-61.2361 L 470.421,-60.6765 L 470.913,-60 L 471.253,-59.2361 L 471.427,-58.4181
 L 471.427,-57.5819 L 471.253,-56.7639 L 470.913,-56 L 470.421,-55.3235 L 469.8,-54.7639 L 469.307,-54.458
 L 411.158,-23.9478 L 410.381,-23.6387 L 409.557,-23.4981 z
M 279.282,-21.255 L 278.464,-21.4288 L 277.7,-21.769 L 277.023,-22.2605 L 276.464,-22.8819 L 276.046,-23.6061
 L 275.787,-24.4014 L 275.7,-25.2331 L 275.7,-54.7669 L 275.757,-55.4399 L 275.983,-56.245 L 276.372,-56.9855
 L 276.906,-57.629 L 277.562,-58.1474 L 278.311,-58.5181 L 279.122,-58.7249 L 279.957,-58.7587 L 280.781,-58.618
 L 281.558,-58.309 L 309.702,-43.542 L 310.638,-42.8621 L 311.172,-42.2185 L 311.561,-41.4781 L 311.787,-40.673
 L 311.841,-39.8385 L 311.72,-39.011 L 311.43,-38.2268 L 310.982,-37.5201 L 310.398,-36.9218 L 309.702,-36.458
 L 281.558,-21.691 L 280.936,-21.4288 L 280.118,-21.255 z
M 382.219,-21.382 L 381.442,-21.691 L 353.297,-36.458 L 352.362,-37.1379 L 351.828,-37.7815 L 351.439,-38.5219
 L 351.213,-39.327 L 351.159,-40.1615 L 351.28,-40.989 L 351.57,-41.7732 L 352.017,-42.4799 L 352.602,-43.0782
 L 353.297,-43.542 L 381.442,-58.309 L 382.064,-58.5712 L 382.882,-58.745 L 383.718,-58.745 L 384.536,-58.5712
 L 385.3,-58.231 L 385.977,-57.7395 L 386.536,-57.1181 L 386.954,-56.3939 L 387.213,-55.5986 L 387.3,-54.7669
 L 387.3,-25.2331 L 387.243,-24.5601 L 387.017,-23.755 L 386.628,-23.0145 L 386.094,-22.371 L 385.438,-21.8526
 L 384.689,-21.4819 L 383.878,-21.2751 L 383.043,-21.2413 z
M 150.1,-18 L 148.864,-18.1958 L 148.1,-18.5359 L 147.423,-19.0274 L 146.864,-19.6489 L 146.446,-20.373
 L 146.187,-21.1684 L 146.1,-22 L 146.1,-52.5102 L 146.157,-53.1832 L 146.383,-53.9883 L 146.772,-54.7287
 L 147.306,-55.3723 L 147.962,-55.8907 L 148.711,-56.2614 L 149.522,-56.4682 L 150.357,-56.5019 L 151.181,-56.3612
 L 151.958,-56.0522 L 210.107,-25.542 L 210.6,-25.2361 L 211.221,-24.6765 L 211.713,-24 L 212.053,-23.2361
 L 212.227,-22.4181 L 212.227,-21.5819 L 212.053,-20.7639 L 211.713,-20 L 211.221,-19.3235 L 210.6,-18.7639
 L 209.876,-18.3458 L 209.08,-18.0874 L 208.249,-18 z
M 454.751,-18 L 453.92,-18.0874 L 453.124,-18.3458 L 452.4,-18.7639 L 451.779,-19.3235 L 451.287,-20
 L 450.947,-20.7639 L 450.773,-21.5819 L 450.773,-22.4181 L 450.947,-23.2361 L 451.287,-24 L 451.779,-24.6765
 L 452.4,-25.2361 L 452.893,-25.542 L 511.042,-56.0522 L 511.819,-56.3612 L 512.643,-56.5019 L 513.478,-56.4682
 L 514.289,-56.2614 L 515.038,-55.8907 L 515.694,-55.3723 L 516.228,-54.7287 L 516.617,-53.9883 L 516.843,-53.1832
 L 516.9,-52.5102 L 516.9,-22 L 516.813,-21.1684 L 516.554,-20.373 L 516.136,-19.6489 L 515.577,-19.0274
 L 514.9,-18.5359 L 514.136,-18.1958 L 512.9,-18 z
M 22,-18 L 20.7639,-18.1958 L 20,-18.5359 L 19.3235,-19.0274 L 18.7639,-19.6489 L 18.3458,-20.373
 L 18.0874,-21.1684 L 18,-22 L 18,-51.7231 L 18.057,-52.3961 L 18.2831,-53.2012 L 18.6716,-53.9417
 L 19.2056,-54.5852 L 19.8617,-55.1037 L 20.6113,-55.4743 L 21.4216,-55.6811 L 22.2571,-55.7149 L 23.0814,-55.5742
 L 23.8585,-55.2652 L 80.5073,-25.542 L 81,-25.2361 L 81.6214,-24.6765 L 82.1129,-24 L 82.4531,-23.2361
 L 82.6269,-22.4181 L 82.6269,-21.5819 L 82.4531,-20.7639 L 82.1129,-20 L 81.6214,-19.3235 L 81,-18.7639
 L 80.2758,-18.3458 L 79.4805,-18.0874 L 78.6488,-18 z
M 584.351,-18 L 583.52,-18.0874 L 582.724,-18.3458 L 582,-18.7639 L 581.379,-19.3235 L 580.887,-20
 L 580.547,-20.7639 L 580.373,-21.5819 L 580.373,-22.4181 L 580.547,-23.2361 L 580.887,-24 L 581.379,-24.6765
 L 582,-25.2361 L 582.493,-25.542 L 639.142,-55.2652 L 639.919,-55.5742 L 640.743,-55.7149 L 641.578,-55.6811
 L 642.389,-55.4743 L 643.138,-55.1037 L 643.794,-54.5852 L 644.328,-53.9417 L 644.717,-53.2012 L 644.943,-52.3961
 L 645,-51.7231 L 645,-22 L 644.913,-21.1684 L 644.654,-20.373 L 644.236,-19.6489 L 643.677,-19.0274
 L 643,-18.5359 L 642.236,-18.1958 L 641,-18 z
M 320.85,-18 L 320.272,-18.042 L 319.461,-18.2488 L 318.712,-18.6195 L 318.056,-19.1379 L 317.522,-19.7815
 L 317.133,-20.5219 L 316.907,-21.327 L 316.853,-22.1615 L 316.974,-22.989 L 317.265,-23.7732 L 317.712,-24.4799
 L 318.296,-25.0782 L 318.992,-25.542 L 329.642,-31.13 L 330.111,-31.3391 L 330.922,-31.5459 L 331.757,-31.5797
 L 332.581,-31.439 L 333.358,-31.13 L 344.008,-25.542 L 344.501,-25.2361 L 345.122,-24.6765 L 345.614,-24
 L 345.954,-23.2361 L 346.128,-22.4181 L 346.128,-21.5819 L 345.954,-20.7639 L 345.614,-20 L 345.122,-19.3235
 L 344.501,-18.7639 L 343.777,-18.3458 L 342.982,-18.0874 L 342.15,-18 z
" stroke="black" fill="lightgray" stroke-width="0.5"/>
</svg>
