<?xml version="1.0" standalone="no"?>
<!DOCTYPE svg PUBLIC "-//W3C//DTD SVG 1.1//EN" "http://www.w3.org/Graphics/SVG/1.1/DTD/svg11.dtd">
<svg width="932mm" height="80mm" viewBox="0 -80 932 80" xmlns="http://www.w3.org/2000/svg" version="1.1">
<title>OpenSCAD Model</title>
<path d="
M 932,-80 L 0,-80 L 0,-0 L 4.95,-0 L 4.95,-6 L 5.00572,-6.53017
 L 5.17046,-7.03717 L 5.437,-7.49884 L 5.79372,-7.895 L 6.22499,-8.20836 L 6.71201,-8.42519 L 7.23344,-8.53603
 L 7.76654,-8.53603 L 8.28798,-8.42519 L 8.77499,-8.20836 L 9.20627,-7.895 L 9.56299,-7.49884 L 9.82953,-7.03717
 L 9.99426,-6.53017 L 10.05,-6 L 10.05,-0 L 188.35,-0 L 188.35,-6 L 188.406,-6.53017
 L 188.57,-7.03717 L 188.837,-7.49884 L 189.194,-7.895 L 189.625,-8.20836 L 190.112,-8.42519 L 190.633,-8.53603
 L 191.167,-8.53603 L 191.688,-8.42519 L 192.175,-8.20836 L 192.606,-7.895 L 192.963,-7.49884 L 193.23,-7.03717
 L 193.394,-6.53017 L 193.45,-6 L 193.45,-0 L 371.75,-0 L 371.75,-6 L 371.806,-6.53017
 L 371.97,-7.03717 L 372.237,-7.49884 L 372.594,-7.895 L 373.025,-8.20836 L 373.512,-8.42519 L 374.033,-8.53603
 L 374.567,-8.53603 L 375.088,-8.42519 L 375.575,-8.20836 L 376.006,-7.895 L 376.363,-7.49884 L 376.63,-7.03717
 L 376.794,-6.53017 L 376.85,-6 L 376.85,-0 L 555.15,-0 L 555.15,-6 L 555.206,-6.53017
 L 555.37,-7.03717 L 555.637,-7.49884 L 555.994,-7.895 L 556.425,-8.20836 L 556.912,-8.42519 L 557.433,-8.53603
 L 557.967,-8.53603 L 558.488,-8.42519 L 558.975,-8.20836 L 559.406,-7.895 L 559.763,-7.49884 L 560.03,-7.03717
 L 560.194,-6.53017 L 560.25,-6 L 560.25,-0 L 738.55,-0 L 738.55,-6 L 738.606,-6.53017
 L 738.77,-7.03717 L 739.037,-7.49884 L 739.394,-7.895 L 739.825,-8.20836 L 740.312,-8.42519 L 740.833,-8.53603
 L 741.367,-8.53603 L 741.888,-8.42519 L 742.375,-8.20836 L 742.806,-7.895 L 743.163,-7.49884 L 743.43,-7.03717
 L 743.594,-6.53017 L 743.65,-6 L 743.65,-0 L 921.95,-0 L 921.95,-6 L 922.006,-6.53017
 L 922.17,-7.03717 L 922.437,-7.49884 L 922.794,-7.895 L 923.225,-8.20836 L 923.712,-8.42519 L 924.233,-8.53603
 L 924.767,-8.53603 L 925.288,-8.42519 L 925.775,-8.20836 L 926.206,-7.895 L 926.563,-7.49884 L 926.83,-7.03717
 L 926.994,-6.53017 L 927.05,-6 L 927.05,-0 L 932,-0 z
M 6.98573,-55.607 L 6.47708,-55.6875 L 5.97964,-55.8208 L 5.49887,-56.0054 L 5.04001,-56.2392 L 4.60811,-56.5196
 L 4.20789,-56.8437 L 3.84373,-57.2079 L 3.51964,-57.6081 L 3.23917,-58.04 L 3.00537,-58.4989 L 2.82082,-58.9796
 L 2.68752,-59.4771 L 2.60696,-59.9857 L 2.58,-60.5 L 2.60696,-61.0143 L 2.68752,-61.5229 L 2.82082,-62.0204
 L 3.00537,-62.5011 L 3.23917,-62.96 L 3.51964,-63.3919 L 3.84373,-63.7921 L 4.20789,-64.1563 L 4.60811,-64.4804
 L 4.95001,-64.7024 L 4.95001,-74 L 5.00574,-74.5302 L 5.17047,-75.0372 L 5.43701,-75.4988 L 5.79373,-75.895
 L 6.22501,-76.2084 L 6.71202,-76.4252 L 7.23346,-76.536 L 7.76654,-76.536 L 8.28798,-76.4252 L 8.77499,-76.2084
 L 9.20627,-75.895 L 9.56299,-75.4988 L 9.82953,-75.0372 L 9.99426,-74.5302 L 10.05,-74 L 10.05,-64.7024
 L 10.3919,-64.4804 L 10.7921,-64.1563 L 11.1563,-63.7921 L 11.4804,-63.3919 L 11.7608,-62.96 L 11.9946,-62.5011
 L 12.1792,-62.0204 L 12.3125,-61.5229 L 12.393,-61.0143 L 12.42,-60.5 L 12.393,-59.9857 L 12.3125,-59.4771
 L 12.1792,-58.9796 L 11.9946,-58.4989 L 11.7608,-58.04 L 11.4804,-57.6081 L 11.1563,-57.2079 L 10.7921,-56.8437
 L 10.3919,-56.5196 L 9.95999,-56.2392 L 9.50113,-56.0054 L 9.02036,-55.8208 L 8.52292,-55.6875 L 8.01427,-55.607
 L 7.5,-55.58 z
M 190.386,-55.607 L 189.877,-55.6875 L 189.38,-55.8208 L 188.899,-56.0054 L 188.44,-56.2392 L 188.008,-56.5196
 L 187.608,-56.8437 L 187.244,-57.2079 L 186.92,-57.6081 L 186.639,-58.04 L 186.405,-58.4989 L 186.221,-58.9796
 L 186.088,-59.4771 L 186.007,-59.9857 L 185.98,-60.5 L 186.007,-61.0143 L 186.088,-61.5229 L 186.221,-62.0204
 L 186.405,-62.5011 L 186.639,-62.96 L 186.92,-63.3919 L 187.244,-63.7921 L 187.608,-64.1563 L 188.008,-64.4804
 L 188.35,-64.7024 L 188.35,-74 L 188.406,-74.5302 L 188.57,-75.0372 L 188.837,-75.4988 L 189.194,-75.895
 L 189.625,-76.2084 L 190.112,-76.4252 L 190.633,-76.536 L 191.167,-76.536 L 191.688,-76.4252 L 192.175,-76.2084
 L 192.606,-75.895 L 192.963,-75.4988 L 193.23,-75.0372 L 193.394,-74.5302 L 193.45,-74 L 193.45,-64.7024
 L 193.792,-64.4804 L 194.192,-64.1563 L 194.556,-63.7921 L 194.88,-63.3919 L 195.161,-62.96 L 195.395,-62.5011
 L 195.579,-62.0204 L 195.712,-61.5229 L 195.793,-61.0143 L 195.82,-60.5 L 195.793,-59.9857 L 195.712,-59.4771
 L 195.579,-58.9796 L 195.395,-58.4989 L 195.161,-58.04 L 194.88,-57.6081 L 194.556,-57.2079 L 194.192,-56.8437
 L 193.792,-56.5196 L 193.36,-56.2392 L 192.901,-56.0054 L 192.42,-55.8208 L 191.923,-55.6875 L 191.414,-55.607
 L 190.9,-55.58 z
M 373.786,-55.607 L 373.277,-55.6875 L 372.78,-55.8208 L 372.299,-56.0054 L 371.84,-56.2392 L 371.408,-56.5196
 L 371.008,-56.8437 L 370.644,-57.2079 L 370.32,-57.6081 L 370.039,-58.04 L 369.805,-58.4989 L 369.621,-58.9796
 L 369.488,-59.4771 L 369.407,-59.9857 L 369.38,-60.5 L 369.407,-61.0143 L 369.488,-61.5229 L 369.621,-62.0204
 L 369.805,-62.5011 L 370.039,-62.96 L 370.32,-63.3919 L 370.644,-63.7921 L 371.008,-64.1563 L 371.408,-64.4804
 L 371.75,-64.7024 L 371.75,-74 L 371.806,-74.5302 L 371.97,-75.0372 L 372.237,-75.4988 L 372.594,-75.895
 L 373.025,-76.2084 L 373.512,-76.4252 L 374.033,-76.536 L 374.567,-76.536 L 375.088,-76.4252 L 375.575,-76.2084
 L 376.006,-75.895 L 376.363,-75.4988 L 376.63,-75.0372 L 376.794,-74.5302 L 376.85,-74 L 376.85,-64.7024
 L 377.192,-64.4804 L 377.592,-64.1563 L 377.956,-63.7921 L 378.28,-63.3919 L 378.561,-62.96 L 378.795,-62.5011
 L 378.979,-62.0204 L 379.112,-61.5229 L 379.193,-61.0143 L 379.22,-60.5 L 379.193,-59.9857 L 379.112,-59.4771
 L 378.979,-58.9796 L 378.795,-58.4989 L 378.561,-58.04 L 378.28,-57.6081 L 377.956,-57.2079 L 377.592,-56.8437
 L 377.192,-56.5196 L 376.76,-56.2392 L 376.301,-56.0054 L 375.82,-55.8208 L 375.323,-55.6875 L 374.814,-55.607
 L 374.3,-55.58 z
M 557.186,-55.607 L 556.677,-55.6875 L 556.18,-55.8208 L 555.699,-56.0054 L 555.24,-56.2392 L 554.808,-56.5196
 L 554.408,-56.8437 L 554.044,-57.2079 L 553.72,-57.6081 L 553.439,-58.04 L 553.205,-58.4989 L 553.021,-58.9796
 L 552.888,-59.4771 L 552.807,-59.9857 L 552.78,-60.5 L 552.807,-61.0143 L 552.888,-61.5229 L 553.021,-62.0204
 L 553.205,-62.5011 L 553.439,-62.96 L 553.72,-63.3919 L 554.044,-63.7921 L 554.408,-64.1563 L 554.808,-64.4804
 L 555.15,-64.7024 L 555.15,-74 L 555.206,-74.5302 L 555.37,-75.0372 L 555.637,-75.4988 L 555.994,-75.895
 L 556.425,-76.2084 L 556.912,-76.4252 L 557.433,-76.536 L 557.967,-76.536 L 558.488,-76.4252 L 558.975,-76.2084
 L 559.406,-75.895 L 559.763,-75.4988 L 560.03,-75.0372 L 560.194,-74.5302 L 560.25,-74 L 560.25,-64.7024
 L 560.592,-64.4804 L 560.992,-64.1563 L 561.356,-63.7921 L 561.68,-63.3919 L 561.961,-62.96 L 562.195,-62.5011
 L 562.379,-62.0204 L 562.512,-61.5229 L 562.593,-61.0143 L 562.62,-60.5 L 562.593,-59.9857 L 562.512,-59.4771
 L 562.379,-58.9796 L 562.195,-58.4989 L 561.961,-58.04 L 561.68,-57.6081 L 561.356,-57.2079 L 560.992,-56.8437
 L 560.592,-56.5196 L 560.16,-56.2392 L 559.701,-56.0054 L 559.22,-55.8208 L 558.723,-55.6875 L 558.214,-55.607
 L 557.7,-55.58 z
M 740.586,-55.607 L 740.077,-55.6875 L 739.58,-55.8208 L 739.099,-56.0054 L 738.64,-56.2392 L 738.208,-56.5196
 L 737.808,-56.8437 L 737.444,-57.2079 L 737.12,-57.6081 L 736.839,-58.04 L 736.605,-58.4989 L 736.421,-58.9796
 L 736.288,-59.4771 L 736.207,-59.9857 L 736.18,-60.5 L 736.207,-61.0143 L 736.288,-61.5229 L 736.421,-62.0204
 L 736.605,-62.5011 L 736.839,-62.96 L 737.12,-63.3919 L 737.444,-63.7921 L 737.808,-64.1563 L 738.208,-64.4804
 L 738.55,-64.7024 L 738.55,-74 L 738.606,-74.5302 L 738.77,-75.0372 L 739.037,-75.4988 L 739.394,-75.895
 L 739.825,-76.2084 L 740.312,-76.4252 L 740.833,-76.536 L 741.367,-76.536 L 741.888,-76.4252 L 742.375,-76.2084
 L 742.806,-75.895 L 743.163,-75.4988 L 743.43,-75.0372 L 743.594,-74.5302 L 743.65,-74 L 743.65,-64.7024
 L 743.992,-64.4804 L 744.392,-64.1563 L 744.756,-63.7921 L 745.08,-63.3919 L 745.361,-62.96 L 745.595,-62.5011
 L 745.779,-62.0204 L 745.912,-61.5229 L 745.993,-61.0143 L 746.02,-60.5 L 745.993,-59.9857 L 745.912,-59.4771
 L 745.779,-58.9796 L 745.595,-58.4989 L 745.361,-58.04 L 745.08,-57.6081 L 744.756,-57.2079 L 744.392,-56.8437
 L 743.992,-56.5196 L 743.56,-56.2392 L 743.101,-56.0054 L 742.62,-55.8208 L 742.123,-55.6875 L 741.614,-55.607
 L 741.1,-55.58 z
M 923.986,-55.607 L 923.477,-55.6875 L 922.98,-55.8208 L 922.499,-56.0054 L 922.04,-56.2392 L 921.608,-56.5196
 L 921.208,-56.8437 L 920.844,-57.2079 L 920.52,-57.6081 L 920.239,-58.04 L 920.005,-58.4989 L 919.821,-58.9796
 L 919.688,-59.4771 L 919.607,-59.9857 L 919.58,-60.5 L 919.607,-61.0143 L 919.688,-61.5229 L 919.821,-62.0204
 L 920.005,-62.5011 L 920.239,-62.96 L 920.52,-63.3919 L 920.844,-63.7921 L 921.208,-64.1563 L 921.608,-64.4804
 L 921.95,-64.7024 L 921.95,-74 L 922.006,-74.5302 L 922.17,-75.0372 L 922.437,-75.4988 L 922.794,-75.895
 L 923.225,-76.2084 L 923.712,-76.4252 L 924.233,-76.536 L 924.767,-76.536 L 925.288,-76.4252 L 925.775,-76.2084
 L 926.206,-75.895 L 926.563,-75.4988 L 926.83,-75.0372 L 926.994,-74.5302 L 927.05,-74 L 927.05,-64.7024
 L 927.392,-64.4804 L 927.792,-64.1563 L 928.156,-63.7921 L 928.48,-63.3919 L 928.761,-62.96 L 928.995,-62.5011
 L 929.179,-62.0204 L 929.312,-61.5229 L 929.393,-61.0143 L 929.42,-60.5 L 929.393,-59.9857 L 929.312,-59.4771
 L 929.179,-58.9796 L 928.995,-58.4989 L 928.761,-58.04 L 928.48,-57.6081 L 928.156,-57.2079 L 927.792,-56.8437
 L 927.392,-56.5196 L 926.96,-56.2392 L 926.501,-56.0054 L 926.02,-55.8208 L 925.523,-55.6875 L 925.014,-55.607
 L 924.5,-55.58 z
M 465.42,-47.7643 L 464.609,-47.9714 L 447.677,-54.2495 L 446.717,-54.7639 L 446.095,-55.3235 L 445.604,-56
 L 445.263,-56.7639 L 445.09,-57.5819 L 445.09,-58.4181 L 445.263,-59.2361 L 445.604,-60 L 446.095,-60.6765
 L 446.717,-61.2361 L 447.441,-61.6542 L 448.236,-61.9126 L 449.068,-62 L 482.932,-62 L 484.012,-61.8516
 L 484.789,-61.543 L 485.485,-61.0795 L 486.069,-60.4815 L 486.517,-59.775 L 486.808,-58.9909 L 486.929,-58.1636
 L 486.876,-57.329 L 486.65,-56.5238 L 486.262,-55.7831 L 485.728,-55.1393 L 485.072,-54.6206 L 484.323,-54.2495
 L 467.391,-47.9714 L 466.255,-47.7301 z
M 360.72,-20.7156 L 359.909,-20.9228 L 270.025,-54.2495 L 269.065,-54.7639 L 268.443,-55.3235 L 267.952,-56
 L 267.612,-56.7639 L 267.438,-57.5819 L 267.438,-58.4181 L 267.612,-59.2361 L 267.952,-60 L 268.443,-60.6765
 L 269.065,-61.2361 L 269.789,-61.6542 L 270.584,-61.9126 L 271.416,-62 L 361.3,-62 L 362.536,-61.8042
 L 363.3,-61.4641 L 363.977,-60.9726 L 364.536,-60.3511 L 364.954,-59.627 L 365.213,-58.8316 L 365.3,-58
 L 365.3,-24.6733 L 365.175,-23.6823 L 364.885,-22.8983 L 364.437,-22.1918 L 363.853,-21.5937 L 363.157,-21.1303
 L 362.379,-20.8217 L 361.555,-20.6814 z
M 753.021,-20.8217 L 752.243,-21.1303 L 751.547,-21.5937 L 750.963,-22.1918 L 750.515,-22.8983 L 750.225,-23.6823
 L 750.1,-24.6733 L 750.1,-58 L 750.187,-58.8316 L 750.446,-59.627 L 750.864,-60.3511 L 751.423,-60.9726
 L 752.1,-61.4641 L 752.864,-61.8042 L 754.1,-62 L 843.984,-62 L 844.816,-61.9126 L 845.611,-61.6542
 L 846.335,-61.2361 L 846.957,-60.6765 L 847.448,-60 L 847.788,-59.2361 L 847.962,-58.4181 L 847.962,-57.5819
 L 847.788,-56.7639 L 847.448,-56 L 846.957,-55.3235 L 846.335,-54.7639 L 845.375,-54.2495 L 755.491,-20.9228
 L 754.68,-20.7156 L 753.845,-20.6814 z
M 177.32,-20.7156 L 176.509,-20.9228 L 86.6252,-54.2495 L 85.6647,-54.7639 L 85.0433,-55.3235 L 84.5517,-56
 L 84.2116,-56.7639 L 84.0378,-57.5819 L 84.0378,-58.4181 L 84.2116,-59.2361 L 84.5517,-60 L 85.0433,-60.6765
 L 85.6647,-61.2361 L 86.3889,-61.6542 L 87.1842,-61.9126 L 88.0158,-62 L 177.9,-62 L 179.136,-61.8042
 L 179.9,-61.4641 L 180.577,-60.9726 L 181.136,-60.3511 L 181.554,-59.627 L 181.813,-58.8316 L 181.9,-58
 L 181.9,-24.6733 L 181.775,-23.6823 L 181.485,-22.8983 L 181.037,-22.1918 L 180.453,-21.5937 L 179.757,-21.1303
 L 178.979,-20.8217 L 178.155,-20.6814 z
M 569.621,-20.8217 L 568.843,-21.1303 L 568.147,-21.5937 L 567.563,-22.1918 L 567.115,-22.8983 L 566.825,-23.6823
 L 566.7,-24.6733 L 566.7,-58 L 566.787,-58.8316 L 567.046,-59.627 L 567.464,-60.3511 L 568.023,-60.9726
 L 568.7,-61.4641 L 569.464,-61.8042 L 570.7,-62 L 660.584,-62 L 661.416,-61.9126 L 662.211,-61.6542
 L 662.935,-61.2361 L 663.557,-60.6765 L 664.048,-60 L 664.388,-59.2361 L 664.562,-58.4181 L 664.562,-57.5819
 L 664.388,-56.7639 L 664.048,-56 L 663.557,-55.3235 L 662.935,-54.7639 L 661.975,-54.2495 L 572.091,-20.9228
 L 571.28,-20.7156 L 570.445,-20.6814 z
M 386.882,-18.5639 L 386.064,-18.7378 L 385.3,-19.0779 L 384.623,-19.5694 L 384.064,-20.1909 L 383.646,-20.9151
 L 383.387,-21.7104 L 383.3,-22.542 L 383.3,-57.458 L 383.425,-58.4489 L 383.715,-59.233 L 384.163,-59.9395
 L 384.747,-60.5375 L 385.443,-61.001 L 386.221,-61.3096 L 387.045,-61.4498 L 387.88,-61.4156 L 388.691,-61.2085
 L 435.776,-43.7505 L 436.242,-43.543 L 436.938,-43.0795 L 437.522,-42.4815 L 437.97,-41.775 L 438.26,-40.9909
 L 438.382,-40.1636 L 438.329,-39.329 L 438.103,-38.5238 L 437.715,-37.7831 L 437.181,-37.1393 L 436.525,-36.6206
 L 435.776,-36.2495 L 388.691,-18.7915 L 387.718,-18.5639 z
M 544.12,-18.5844 L 543.309,-18.7915 L 496.224,-36.2495 L 495.758,-36.457 L 495.062,-36.9205 L 494.478,-37.5185
 L 494.03,-38.225 L 493.739,-39.0091 L 493.618,-39.8364 L 493.671,-40.671 L 493.897,-41.4762 L 494.285,-42.2169
 L 494.819,-42.8607 L 495.475,-43.3794 L 496.224,-43.7505 L 543.309,-61.2085 L 544.282,-61.4361 L 545.118,-61.4361
 L 545.936,-61.2622 L 546.7,-60.9221 L 547.377,-60.4306 L 547.936,-59.8091 L 548.354,-59.0849 L 548.613,-58.2896
 L 548.7,-57.458 L 548.7,-22.542 L 548.575,-21.5511 L 548.285,-20.767 L 547.837,-20.0605 L 547.253,-19.4625
 L 546.557,-18.999 L 545.779,-18.6904 L 544.955,-18.5502 z
M 203.9,-18 L 202.664,-18.1958 L 201.9,-18.5359 L 201.223,-19.0274 L 200.664,-19.6489 L 200.246,-20.373
 L 199.987,-21.1684 L 199.9,-22 L 199.9,-55.3267 L 200.025,-56.3177 L 200.315,-57.1017 L 200.763,-57.8082
 L 201.347,-58.4063 L 202.043,-58.8697 L 202.821,-59.1783 L 203.645,-59.3186 L 204.48,-59.2844 L 205.291,-59.0772
 L 295.175,-25.7505 L 296.135,-25.2361 L 296.757,-24.6765 L 297.248,-24 L 297.588,-23.2361 L 297.762,-22.4181
 L 297.762,-21.5819 L 297.588,-20.7639 L 297.248,-20 L 296.757,-19.3235 L 296.135,-18.7639 L 295.411,-18.3458
 L 294.616,-18.0874 L 293.784,-18 z
M 638.216,-18 L 637.384,-18.0874 L 636.589,-18.3458 L 635.865,-18.7639 L 635.243,-19.3235 L 634.752,-20
 L 634.412,-20.7639 L 634.238,-21.5819 L 634.238,-22.4181 L 634.412,-23.2361 L 634.752,-24 L 635.243,-24.6765
 L 635.865,-25.2361 L 636.825,-25.7505 L 726.709,-59.0772 L 727.52,-59.2844 L 728.355,-59.3186 L 729.179,-59.1783
 L 729.957,-58.8697 L 730.653,-58.4063 L 731.237,-57.8082 L 731.685,-57.1017 L 731.975,-56.3177 L 732.1,-55.3267
 L 732.1,-22 L 732.013,-21.1684 L 731.754,-20.373 L 731.336,-19.6489 L 730.777,-19.0274 L 730.1,-18.5359
 L 729.336,-18.1958 L 728.1,-18 z
M 22,-18 L 20.7639,-18.1958 L 20,-18.5359 L 19.3235,-19.0274 L 18.7639,-19.6489 L 18.3458,-20.373
 L 18.0874,-21.1684 L 18,-22 L 18,-54.7706 L 18.1247,-55.7615 L 18.4154,-56.5456 L 18.8628,-57.252
 L 19.4473,-57.8501 L 20.1433,-58.3135 L 20.9205,-58.6221 L 21.7449,-58.7624 L 22.5804,-58.7282 L 23.3906,-58.5211
 L 111.775,-25.7505 L 112.735,-25.2361 L 113.357,-24.6765 L 113.848,-24 L 114.188,-23.2361 L 114.362,-22.4181
 L 114.362,-21.5819 L 114.188,-20.7639 L 113.848,-20 L 113.357,-19.3235 L 112.735,-18.7639 L 112.011,-18.3458
 L 111.216,-18.0874 L 110.384,-18 z
M 821.616,-18 L 820.784,-18.0874 L 819.989,-18.3458 L 819.265,-18.7639 L 818.643,-19.3235 L 818.152,-20
 L 817.812,-20.7639 L 817.638,-21.5819 L 817.638,-22.4181 L 817.812,-23.2361 L 818.152,-24 L 818.643,-24.6765
 L 819.265,-25.2361 L 820.225,-25.7505 L 908.609,-58.5211 L 909.42,-58.7282 L 910.255,-58.7624 L 911.079,-58.6221
 L 911.857,-58.3135 L 912.553,-57.8501 L 913.137,-57.252 L 913.585,-56.5456 L 913.875,-55.7615 L 914,-54.7706
 L 914,-22 L 913.913,-21.1684 L 913.654,-20.373 L 913.236,-19.6489 L 912.677,-19.0274 L 912,-18.5359
 L 911.236,-18.1958 L 910,-18 z
M 449.068,-18 L 447.988,-18.1484 L 447.211,-18.457 L 446.515,-18.9205 L 445.93,-19.5185 L 445.483,-20.225
 L 445.192,-21.0091 L 445.071,-21.8364 L 445.124,-22.671 L 445.35,-23.4762 L 445.738,-24.2169 L 446.272,-24.8606
 L 446.928,-25.3794 L 447.677,-25.7505 L 464.609,-32.0286 L 465.745,-32.2699 L 466.58,-32.2357 L 467.391,-32.0286
 L 484.323,-25.7505 L 485.283,-25.2361 L 485.905,-24.6765 L 486.396,-24 L 486.736,-23.2361 L 486.91,-22.4181
 L 486.91,-21.5819 L 486.736,-20.7639 L 486.396,-20 L 485.905,-19.3235 L 485.283,-18.7639 L 484.559,-18.3458
 L 483.764,-18.0874 L 482.932,-18 z
" stroke="black" fill="lightgray" stroke-width="0.5"/>
</svg>
