<?xml version="1.0" standalone="no"?>
<!DOCTYPE svg PUBLIC "-//W3C//DTD SVG 1.1//EN" "http://www.w3.org/Graphics/SVG/1.1/DTD/svg11.dtd">
<svg width="636mm" height="80mm" viewBox="0 -80 636 80" xmlns="http://www.w3.org/2000/svg" version="1.1">
<title>OpenSCAD Model</title>
<path d="
M 636,-80 L 0,-80 L 0,-0 L 4.95,-0 L 4.95,-6 L 5.00572,-6.53017
 L 5.17046,-7.03717 L 5.437,-7.49884 L 5.79372,-7.895 L 6.22499,-8.20836 L 6.71201,-8.42519 L 7.23344,-8.53603
 L 7.76654,-8.53603 L 8.28798,-8.42519 L 8.77499,-8.20836 L 9.20627,-7.895 L 9.56299,-7.49884 L 9.82953,-7.03717
 L 9.99426,-6.53017 L 10.05,-6 L 10.05,-0 L 129.15,-0 L 129.15,-6 L 129.206,-6.53017
 L 129.37,-7.03717 L 129.637,-7.49884 L 129.994,-7.895 L 130.425,-8.20836 L 130.912,-8.42519 L 131.433,-8.53603
 L 131.967,-8.53603 L 132.488,-8.42519 L 132.975,-8.20836 L 133.406,-7.895 L 133.763,-7.49884 L 134.03,-7.03717
 L 134.194,-6.53017 L 134.25,-6 L 134.25,-0 L 253.35,-0 L 253.35,-6 L 253.406,-6.53017
 L 253.57,-7.03717 L 253.837,-7.49884 L 254.194,-7.895 L 254.625,-8.20836 L 255.112,-8.42519 L 255.633,-8.53603
 L 256.167,-8.53603 L 256.688,-8.42519 L 257.175,-8.20836 L 257.606,-7.895 L 257.963,-7.49884 L 258.23,-7.03717
 L 258.394,-6.53017 L 258.45,-6 L 258.45,-0 L 377.55,-0 L 377.55,-6 L 377.606,-6.53017
 L 377.77,-7.03717 L 378.037,-7.49884 L 378.394,-7.895 L 378.825,-8.20836 L 379.312,-8.42519 L 379.833,-8.53603
 L 380.367,-8.53603 L 380.888,-8.42519 L 381.375,-8.20836 L 381.806,-7.895 L 382.163,-7.49884 L 382.43,-7.03717
 L 382.594,-6.53017 L 382.65,-6 L 382.65,-0 L 501.75,-0 L 501.75,-6 L 501.806,-6.53017
 L 501.97,-7.03717 L 502.237,-7.49884 L 502.594,-7.895 L 503.025,-8.20836 L 503.512,-8.42519 L 504.033,-8.53603
 L 504.567,-8.53603 L 505.088,-8.42519 L 505.575,-8.20836 L 506.006,-7.895 L 506.363,-7.49884 L 506.63,-7.03717
 L 506.794,-6.53017 L 506.85,-6 L 506.85,-0 L 625.95,-0 L 625.95,-6 L 626.006,-6.53017
 L 626.17,-7.03717 L 626.437,-7.49884 L 626.794,-7.895 L 627.225,-8.20836 L 627.712,-8.42519 L 628.233,-8.53603
 L 628.767,-8.53603 L 629.288,-8.42519 L 629.775,-8.20836 L 630.206,-7.895 L 630.563,-7.49884 L 630.83,-7.03717
 L 630.994,-6.53017 L 631.05,-6 L 631.05,-0 L 636,-0 z
M 6.98573,-55.607 L 6.47708,-55.6875 L 5.97964,-55.8208 L 5.49887,-56.0054 L 5.04001,-56.2392 L 4.60811,-56.5196
 L 4.20789,-56.8437 L 3.84373,-57.2079 L 3.51964,-57.6081 L 3.23917,-58.04 L 3.00537,-58.4989 L 2.82082,-58.9796
 L 2.68752,-59.4771 L 2.60696,-59.9857 L 2.58,-60.5 L 2.60696,-61.0143 L 2.68752,-61.5229 L 2.82082,-62.0204
 L 3.00537,-62.5011 L 3.23917,-62.96 L 3.51964,-63.3919 L 3.84373,-63.7921 L 4.20789,-64.1563 L 4.60811,-64.4804
 L 4.95001,-64.7024 L 4.95001,-74 L 5.00574,-74.5302 L 5.17047,-75.0372 L 5.43701,-75.4988 L 5.79373,-75.895
 L 6.22501,-76.2084 L 6.71202,-76.4252 L 7.23346,-76.536 L 7.76654,-76.536 L 8.28798,-76.4252 L 8.77499,-76.2084
 L 9.20627,-75.895 L 9.56299,-75.4988 L 9.82953,-75.0372 L 9.99426,-74.5302 L 10.05,-74 L 10.05,-64.7024
 L 10.3919,-64.4804 L 10.7921,-64.1563 L 11.1563,-63.7921 L 11.4804,-63.3919 L 11.7608,-62.96 L 11.9946,-62.5011
 L 12.1792,-62.0204 L 12.3125,-61.5229 L 12.393,-61.0143 L 12.42,-60.5 L 12.393,-59.9857 L 12.3125,-59.4771
 L 12.1792,-58.9796 L 11.9946,-58.4989 L 11.7608,-58.04 L 11.4804,-57.6081 L 11.1563,-57.2079 L 10.7921,-56.8437
 L 10.3919,-56.5196 L 9.95999,-56.2392 L 9.50113,-56.0054 L 9.02036,-55.8208 L 8.52292,-55.6875 L 8.01427,-55.607
 L 7.5,-55.58 z
M 131.186,-55.607 L 130.677,-55.6875 L 130.18,-55.8208 L 129.699,-56.0054 L 129.24,-56.2392 L 128.808,-56.5196
 L 128.408,-56.8437 L 128.044,-57.2079 L 127.72,-57.6081 L 127.439,-58.04 L 127.205,-58.4989 L 127.021,-58.9796
 L 126.888,-59.4771 L 126.807,-59.9857 L 126.78,-60.5 L 126.807,-61.0143 L 126.888,-61.5229 L 127.021,-62.0204
 L 127.205,-62.5011 L 127.439,-62.96 L 127.72,-63.3919 L 128.044,-63.7921 L 128.408,-64.1563 L 128.808,-64.4804
 L 129.15,-64.7024 L 129.15,-74 L 129.206,-74.5302 L 129.37,-75.0372 L 129.637,-75.4988 L 129.994,-75.895
 L 130.425,-76.2084 L 130.912,-76.4252 L 131.433,-76.536 L 131.967,-76.536 L 132.488,-76.4252 L 132.975,-76.2084
 L 133.406,-75.895 L 133.763,-75.4988 L 134.03,-75.0372 L 134.194,-74.5302 L 134.25,-74 L 134.25,-64.7024
 L 134.592,-64.4804 L 134.992,-64.1563 L 135.356,-63.7921 L 135.68,-63.3919 L 135.961,-62.96 L 136.195,-62.5011
 L 136.379,-62.0204 L 136.512,-61.5229 L 136.593,-61.0143 L 136.62,-60.5 L 136.593,-59.9857 L 136.512,-59.4771
 L 136.379,-58.9796 L 136.195,-58.4989 L 135.961,-58.04 L 135.68,-57.6081 L 135.356,-57.2079 L 134.992,-56.8437
 L 134.592,-56.5196 L 134.16,-56.2392 L 133.701,-56.0054 L 133.22,-55.8208 L 132.723,-55.6875 L 132.214,-55.607
 L 131.7,-55.58 z
M 255.386,-55.607 L 254.877,-55.6875 L 254.38,-55.8208 L 253.899,-56.0054 L 253.44,-56.2392 L 253.008,-56.5196
 L 252.608,-56.8437 L 252.244,-57.2079 L 251.92,-57.6081 L 251.639,-58.04 L 251.405,-58.4989 L 251.221,-58.9796
 L 251.088,-59.4771 L 251.007,-59.9857 L 250.98,-60.5 L 251.007,-61.0143 L 251.088,-61.5229 L 251.221,-62.0204
 L 251.405,-62.5011 L 251.639,-62.96 L 251.92,-63.3919 L 252.244,-63.7921 L 252.608,-64.1563 L 253.008,-64.4804
 L 253.35,-64.7024 L 253.35,-74 L 253.406,-74.5302 L 253.57,-75.0372 L 253.837,-75.4988 L 254.194,-75.895
 L 254.625,-76.2084 L 255.112,-76.4252 L 255.633,-76.536 L 256.167,-76.536 L 256.688,-76.4252 L 257.175,-76.2084
 L 257.606,-75.895 L 257.963,-75.4988 L 258.23,-75.0372 L 258.394,-74.5302 L 258.45,-74 L 258.45,-64.7024
 L 258.792,-64.4804 L 259.192,-64.1563 L 259.556,-63.7921 L 259.88,-63.3919 L 260.161,-62.96 L 260.395,-62.5011
 L 260.579,-62.0204 L 260.712,-61.5229 L 260.793,-61.0143 L 260.82,-60.5 L 260.793,-59.9857 L 260.712,-59.4771
 L 260.579,-58.9796 L 260.395,-58.4989 L 260.161,-58.04 L 259.88,-57.6081 L 259.556,-57.2079 L 259.192,-56.8437
 L 258.792,-56.5196 L 258.36,-56.2392 L 257.901,-56.0054 L 257.42,-55.8208 L 256.923,-55.6875 L 256.414,-55.607
 L 255.9,-55.58 z
M 379.586,-55.607 L 379.077,-55.6875 L 378.58,-55.8208 L 378.099,-56.0054 L 377.64,-56.2392 L 377.208,-56.5196
 L 376.808,-56.8437 L 376.444,-57.2079 L 376.12,-57.6081 L 375.839,-58.04 L 375.605,-58.4989 L 375.421,-58.9796
 L 375.288,-59.4771 L 375.207,-59.9857 L 375.18,-60.5 L 375.207,-61.0143 L 375.288,-61.5229 L 375.421,-62.0204
 L 375.605,-62.5011 L 375.839,-62.96 L 376.12,-63.3919 L 376.444,-63.7921 L 376.808,-64.1563 L 377.208,-64.4804
 L 377.55,-64.7024 L 377.55,-74 L 377.606,-74.5302 L 377.77,-75.0372 L 378.037,-75.4988 L 378.394,-75.895
 L 378.825,-76.2084 L 379.312,-76.4252 L 379.833,-76.536 L 380.367,-76.536 L 380.888,-76.4252 L 381.375,-76.2084
 L 381.806,-75.895 L 382.163,-75.4988 L 382.43,-75.0372 L 382.594,-74.5302 L 382.65,-74 L 382.65,-64.7024
 L 382.992,-64.4804 L 383.392,-64.1563 L 383.756,-63.7921 L 384.08,-63.3919 L 384.361,-62.96 L 384.595,-62.5011
 L 384.779,-62.0204 L 384.912,-61.5229 L 384.993,-61.0143 L 385.02,-60.5 L 384.993,-59.9857 L 384.912,-59.4771
 L 384.779,-58.9796 L 384.595,-58.4989 L 384.361,-58.04 L 384.08,-57.6081 L 383.756,-57.2079 L 383.392,-56.8437
 L 382.992,-56.5196 L 382.56,-56.2392 L 382.101,-56.0054 L 381.62,-55.8208 L 381.123,-55.6875 L 380.614,-55.607
 L 380.1,-55.58 z
M 503.786,-55.607 L 503.277,-55.6875 L 502.78,-55.8208 L 502.299,-56.0054 L 501.84,-56.2392 L 501.408,-56.5196
 L 501.008,-56.8437 L 500.644,-57.2079 L 500.32,-57.6081 L 500.039,-58.04 L 499.805,-58.4989 L 499.621,-58.9796
 L 499.488,-59.4771 L 499.407,-59.9857 L 499.38,-60.5 L 499.407,-61.0143 L 499.488,-61.5229 L 499.621,-62.0204
 L 499.805,-62.5011 L 500.039,-62.96 L 500.32,-63.3919 L 500.644,-63.7921 L 501.008,-64.1563 L 501.408,-64.4804
 L 501.75,-64.7024 L 501.75,-74 L 501.806,-74.5302 L 501.97,-75.0372 L 502.237,-75.4988 L 502.594,-75.895
 L 503.025,-76.2084 L 503.512,-76.4252 L 504.033,-76.536 L 504.567,-76.536 L 505.088,-76.4252 L 505.575,-76.2084
 L 506.006,-75.895 L 506.363,-75.4988 L 506.63,-75.0372 L 506.794,-74.5302 L 506.85,-74 L 506.85,-64.7024
 L 507.192,-64.4804 L 507.592,-64.1563 L 507.956,-63.7921 L 508.28,-63.3919 L 508.561,-62.96 L 508.795,-62.5011
 L 508.979,-62.0204 L 509.112,-61.5229 L 509.193,-61.0143 L 509.22,-60.5 L 509.193,-59.9857 L 509.112,-59.4771
 L 508.979,-58.9796 L 508.795,-58.4989 L 508.561,-58.04 L 508.28,-57.6081 L 507.956,-57.2079 L 507.592,-56.8437
 L 507.192,-56.5196 L 506.76,-56.2392 L 506.301,-56.0054 L 505.82,-55.8208 L 505.323,-55.6875 L 504.814,-55.607
 L 504.3,-55.58 z
M 627.986,-55.607 L 627.477,-55.6875 L 626.98,-55.8208 L 626.499,-56.0054 L 626.04,-56.2392 L 625.608,-56.5196
 L 625.208,-56.8437 L 624.844,-57.2079 L 624.52,-57.6081 L 624.239,-58.04 L 624.005,-58.4989 L 623.821,-58.9796
 L 623.688,-59.4771 L 623.607,-59.9857 L 623.58,-60.5 L 623.607,-61.0143 L 623.688,-61.5229 L 623.821,-62.0204
 L 624.005,-62.5011 L 624.239,-62.96 L 624.52,-63.3919 L 624.844,-63.7921 L 625.208,-64.1563 L 625.608,-64.4804
 L 625.95,-64.7024 L 625.95,-74 L 626.006,-74.5302 L 626.17,-75.0372 L 626.437,-75.4988 L 626.794,-75.895
 L 627.225,-76.2084 L 627.712,-76.4252 L 628.233,-76.536 L 628.767,-76.536 L 629.288,-76.4252 L 629.775,-76.2084
 L 630.206,-75.895 L 630.563,-75.4988 L 630.83,-75.0372 L 630.994,-74.5302 L 631.05,-74 L 631.05,-64.7024
 L 631.392,-64.4804 L 631.792,-64.1563 L 632.156,-63.7921 L 632.48,-63.3919 L 632.761,-62.96 L 632.995,-62.5011
 L 633.179,-62.0204 L 633.312,-61.5229 L 633.393,-61.0143 L 633.42,-60.5 L 633.393,-59.9857 L 633.312,-59.4771
 L 633.179,-58.9796 L 632.995,-58.4989 L 632.761,-58.04 L 632.48,-57.6081 L 632.156,-57.2079 L 631.792,-56.8437
 L 631.392,-56.5196 L 630.96,-56.2392 L 630.501,-56.0054 L 630.02,-55.8208 L 629.523,-55.6875 L 629.014,-55.607
 L 628.5,-55.58 z
M 316.85,-48.7063 L 316.079,-49.029 L 306.102,-54.4914 L 305.672,-54.7639 L 305.05,-55.3235 L 304.559,-56
 L 304.219,-56.7639 L 304.045,-57.5819 L 304.045,-58.4181 L 304.219,-59.2361 L 304.559,-60 L 305.05,-60.6765
 L 305.672,-61.2361 L 306.396,-61.6542 L 307.191,-61.9126 L 308.023,-62 L 327.977,-62 L 328.485,-61.9676
 L 329.299,-61.7752 L 330.055,-61.4179 L 330.72,-60.9111 L 331.266,-60.2772 L 331.667,-59.5437 L 331.907,-58.7427
 L 331.976,-57.9093 L 331.87,-57.0799 L 331.593,-56.2906 L 331.159,-55.5761 L 330.585,-54.9675 L 329.898,-54.4914
 L 319.921,-49.029 L 319.322,-48.7623 L 318.508,-48.57 L 317.672,-48.551 z
M 241.75,-24.1034 L 240.979,-24.4261 L 186.066,-54.4914 L 185.635,-54.7639 L 185.014,-55.3235 L 184.522,-56
 L 184.182,-56.7639 L 184.008,-57.5819 L 184.008,-58.4181 L 184.182,-59.2361 L 184.522,-60 L 185.014,-60.6765
 L 185.635,-61.2361 L 186.36,-61.6542 L 187.155,-61.9126 L 187.987,-62 L 242.9,-62 L 244.136,-61.8042
 L 244.9,-61.4641 L 245.577,-60.9726 L 246.136,-60.3511 L 246.554,-59.627 L 246.813,-58.8316 L 246.9,-58
 L 246.9,-27.9346 L 246.83,-27.1919 L 246.59,-26.391 L 246.189,-25.6575 L 245.643,-25.0235 L 244.978,-24.5168
 L 244.222,-24.1594 L 243.408,-23.9671 L 242.572,-23.9481 z
M 516.792,-23.9671 L 515.978,-24.1594 L 515.222,-24.5168 L 514.557,-25.0235 L 514.011,-25.6575 L 513.61,-26.391
 L 513.37,-27.1919 L 513.3,-27.9346 L 513.3,-58 L 513.387,-58.8316 L 513.646,-59.627 L 514.064,-60.3511
 L 514.623,-60.9726 L 515.3,-61.4641 L 516.064,-61.8042 L 517.3,-62 L 572.213,-62 L 573.045,-61.9126
 L 573.84,-61.6542 L 574.565,-61.2361 L 575.186,-60.6765 L 575.678,-60 L 576.018,-59.2361 L 576.192,-58.4181
 L 576.192,-57.5819 L 576.018,-56.7639 L 575.678,-56 L 575.186,-55.3235 L 574.565,-54.7639 L 574.134,-54.4914
 L 519.221,-24.4261 L 518.45,-24.1034 L 517.628,-23.9481 z
M 117.55,-24.1034 L 116.779,-24.4261 L 61.8656,-54.4914 L 61.4354,-54.7639 L 60.8139,-55.3235 L 60.3224,-56
 L 59.9823,-56.7639 L 59.8084,-57.5819 L 59.8084,-58.4181 L 59.9823,-59.2361 L 60.3224,-60 L 60.8139,-60.6765
 L 61.4354,-61.2361 L 62.1596,-61.6542 L 62.9549,-61.9126 L 63.7865,-62 L 118.7,-62 L 119.936,-61.8042
 L 120.7,-61.4641 L 121.377,-60.9726 L 121.936,-60.3511 L 122.354,-59.627 L 122.613,-58.8316 L 122.7,-58
 L 122.7,-27.9346 L 122.63,-27.1919 L 122.39,-26.391 L 121.989,-25.6575 L 121.443,-25.0235 L 120.778,-24.5168
 L 120.022,-24.1594 L 119.208,-23.9671 L 118.372,-23.9481 z
M 392.592,-23.9671 L 391.778,-24.1594 L 391.022,-24.5168 L 390.357,-25.0235 L 389.811,-25.6575 L 389.41,-26.391
 L 389.17,-27.1919 L 389.1,-27.9346 L 389.1,-58 L 389.187,-58.8316 L 389.446,-59.627 L 389.864,-60.3511
 L 390.423,-60.9726 L 391.1,-61.4641 L 391.864,-61.8042 L 393.1,-62 L 448.013,-62 L 448.845,-61.9126
 L 449.64,-61.6542 L 450.365,-61.2361 L 450.986,-60.6765 L 451.478,-60 L 451.818,-59.2361 L 451.992,-58.4181
 L 451.992,-57.5819 L 451.818,-56.7639 L 451.478,-56 L 450.986,-55.3235 L 450.365,-54.7639 L 449.934,-54.4914
 L 395.021,-24.4261 L 394.249,-24.1034 L 393.428,-23.9481 z
M 268.482,-21.677 L 267.664,-21.8509 L 266.9,-22.191 L 266.223,-22.6825 L 265.664,-23.304 L 265.246,-24.0282
 L 264.987,-24.8235 L 264.9,-25.6551 L 264.9,-54.3449 L 264.97,-55.0876 L 265.21,-55.8886 L 265.611,-56.622
 L 266.157,-57.256 L 266.822,-57.7627 L 267.578,-58.1201 L 268.392,-58.3125 L 269.228,-58.3314 L 270.049,-58.1761
 L 270.821,-57.8534 L 297.021,-43.5086 L 297.844,-42.9111 L 298.389,-42.2772 L 298.791,-41.5437 L 299.031,-40.7427
 L 299.099,-39.9093 L 298.993,-39.0799 L 298.717,-38.2906 L 298.282,-37.5761 L 297.709,-36.9675 L 297.021,-36.4914
 L 270.821,-22.1466 L 270.136,-21.8509 L 269.318,-21.677 z
M 365.95,-21.8238 L 365.179,-22.1465 L 338.979,-36.4914 L 338.156,-37.0889 L 337.611,-37.7228 L 337.209,-38.4563
 L 336.969,-39.2573 L 336.9,-40.0907 L 337.007,-40.9201 L 337.283,-41.7094 L 337.718,-42.4239 L 338.291,-43.0325
 L 338.979,-43.5086 L 365.179,-57.8535 L 365.864,-58.1491 L 366.682,-58.323 L 367.518,-58.323 L 368.336,-58.1491
 L 369.1,-57.809 L 369.777,-57.3175 L 370.336,-56.696 L 370.754,-55.9718 L 371.013,-55.1765 L 371.1,-54.3449
 L 371.1,-25.6551 L 371.03,-24.9124 L 370.79,-24.1114 L 370.389,-23.3779 L 369.843,-22.744 L 369.178,-22.2372
 L 368.422,-21.8799 L 367.608,-21.6875 L 366.772,-21.6686 z
M 144.7,-18 L 143.464,-18.1958 L 142.7,-18.5359 L 142.023,-19.0274 L 141.464,-19.6489 L 141.046,-20.373
 L 140.787,-21.1684 L 140.7,-22 L 140.7,-52.0653 L 140.77,-52.8081 L 141.01,-53.609 L 141.411,-54.3425
 L 141.957,-54.9765 L 142.622,-55.4832 L 143.378,-55.8406 L 144.192,-56.0329 L 145.028,-56.0519 L 145.85,-55.8966
 L 146.621,-55.5739 L 201.534,-25.5086 L 201.965,-25.2361 L 202.586,-24.6765 L 203.078,-24 L 203.418,-23.2361
 L 203.592,-22.4181 L 203.592,-21.5819 L 203.418,-20.7639 L 203.078,-20 L 202.586,-19.3235 L 201.965,-18.7639
 L 201.24,-18.3458 L 200.445,-18.0874 L 199.613,-18 z
M 436.387,-18 L 435.555,-18.0874 L 434.76,-18.3458 L 434.035,-18.7639 L 433.414,-19.3235 L 432.922,-20
 L 432.582,-20.7639 L 432.408,-21.5819 L 432.408,-22.4181 L 432.582,-23.2361 L 432.922,-24 L 433.414,-24.6765
 L 434.035,-25.2361 L 434.466,-25.5086 L 489.379,-55.5739 L 490.15,-55.8966 L 490.972,-56.0519 L 491.808,-56.0329
 L 492.622,-55.8406 L 493.378,-55.4832 L 494.043,-54.9765 L 494.589,-54.3425 L 494.99,-53.609 L 495.23,-52.8081
 L 495.3,-52.0653 L 495.3,-22 L 495.213,-21.1684 L 494.954,-20.373 L 494.536,-19.6489 L 493.977,-19.0274
 L 493.3,-18.5359 L 492.536,-18.1958 L 491.3,-18 z
M 22,-18 L 20.7639,-18.1958 L 20,-18.5359 L 19.3235,-19.0274 L 18.7639,-19.6489 L 18.3458,-20.373
 L 18.0874,-21.1684 L 18,-22 L 18,-51.2441 L 18.0696,-51.9868 L 18.3099,-52.7878 L 18.7115,-53.5213
 L 19.2568,-54.1552 L 19.922,-54.6619 L 20.678,-55.0193 L 21.4918,-55.2117 L 22.3278,-55.2306 L 23.1495,-55.0753
 L 23.9209,-54.7526 L 77.3344,-25.5086 L 77.7646,-25.2361 L 78.386,-24.6765 L 78.8776,-24 L 79.2177,-23.2361
 L 79.3916,-22.4181 L 79.3916,-21.5819 L 79.2177,-20.7639 L 78.8776,-20 L 78.386,-19.3235 L 77.7646,-18.7639
 L 77.0404,-18.3458 L 76.2451,-18.0874 L 75.4135,-18 z
M 560.587,-18 L 559.755,-18.0874 L 558.96,-18.3458 L 558.235,-18.7639 L 557.614,-19.3235 L 557.122,-20
 L 556.782,-20.7639 L 556.608,-21.5819 L 556.608,-22.4181 L 556.782,-23.2361 L 557.122,-24 L 557.614,-24.6765
 L 558.235,-25.2361 L 558.666,-25.5086 L 612.079,-54.7526 L 612.85,-55.0753 L 613.672,-55.2306 L 614.508,-55.2117
 L 615.322,-55.0193 L 616.078,-54.6619 L 616.743,-54.1552 L 617.289,-53.5213 L 617.69,-52.7878 L 617.93,-51.9868
 L 618,-51.2441 L 618,-22 L 617.913,-21.1684 L 617.654,-20.373 L 617.236,-19.6489 L 616.677,-19.0274
 L 616,-18.5359 L 615.236,-18.1958 L 614,-18 z
M 308.023,-18 L 307.515,-18.0324 L 306.701,-18.2248 L 305.945,-18.5821 L 305.28,-19.0889 L 304.734,-19.7228
 L 304.333,-20.4563 L 304.093,-21.2573 L 304.024,-22.0907 L 304.13,-22.9201 L 304.407,-23.7094 L 304.841,-24.4239
 L 305.415,-25.0325 L 306.102,-25.5086 L 316.079,-30.971 L 316.678,-31.2377 L 317.492,-31.43 L 318.328,-31.449
 L 319.149,-31.2937 L 319.921,-30.971 L 329.898,-25.5086 L 330.328,-25.2361 L 330.95,-24.6765 L 331.441,-24
 L 331.781,-23.2361 L 331.955,-22.4181 L 331.955,-21.5819 L 331.781,-20.7639 L 331.441,-20 L 330.95,-19.3235
 L 330.328,-18.7639 L 329.604,-18.3458 L 328.809,-18.0874 L 327.977,-18 z
" stroke="black" fill="lightgray" stroke-width="0.5"/>
</svg>
