<?xml version="1.0" standalone="no"?>
<!DOCTYPE svg PUBLIC "-//W3C//DTD SVG 1.1//EN" "http://www.w3.org/Graphics/SVG/1.1/DTD/svg11.dtd">
<svg width="513mm" height="80mm" viewBox="0 -80 513 80" xmlns="http://www.w3.org/2000/svg" version="1.1">
<title>OpenSCAD Model</title>
<path d="
M 513,-80 L 0,-80 L 0,-0 L 4.95,-0 L 4.95,-6 L 5.00572,-6.53017
 L 5.17046,-7.03717 L 5.437,-7.49884 L 5.79372,-7.895 L 6.22499,-8.20836 L 6.71201,-8.42519 L 7.23344,-8.53603
 L 7.76654,-8.53603 L 8.28798,-8.42519 L 8.77499,-8.20836 L 9.20627,-7.895 L 9.56299,-7.49884 L 9.82953,-7.03717
 L 9.99426,-6.53017 L 10.05,-6 L 10.05,-0 L 129.45,-0 L 129.45,-6 L 129.506,-6.53017
 L 129.67,-7.03717 L 129.937,-7.49884 L 130.294,-7.895 L 130.725,-8.20836 L 131.212,-8.42519 L 131.733,-8.53603
 L 132.267,-8.53603 L 132.788,-8.42519 L 133.275,-8.20836 L 133.706,-7.895 L 134.063,-7.49884 L 134.33,-7.03717
 L 134.494,-6.53017 L 134.55,-6 L 134.55,-0 L 253.95,-0 L 253.95,-6 L 254.006,-6.53017
 L 254.17,-7.03717 L 254.437,-7.49884 L 254.794,-7.895 L 255.225,-8.20836 L 255.712,-8.42519 L 256.233,-8.53603
 L 256.767,-8.53603 L 257.288,-8.42519 L 257.775,-8.20836 L 258.206,-7.895 L 258.563,-7.49884 L 258.83,-7.03717
 L 258.994,-6.53017 L 259.05,-6 L 259.05,-0 L 378.45,-0 L 378.45,-6 L 378.506,-6.53017
 L 378.67,-7.03717 L 378.937,-7.49884 L 379.294,-7.895 L 379.725,-8.20836 L 380.212,-8.42519 L 380.733,-8.53603
 L 381.267,-8.53603 L 381.788,-8.42519 L 382.275,-8.20836 L 382.706,-7.895 L 383.063,-7.49884 L 383.33,-7.03717
 L 383.494,-6.53017 L 383.55,-6 L 383.55,-0 L 502.95,-0 L 502.95,-6 L 503.006,-6.53017
 L 503.17,-7.03717 L 503.437,-7.49884 L 503.794,-7.895 L 504.225,-8.20836 L 504.712,-8.42519 L 505.233,-8.53603
 L 505.767,-8.53603 L 506.288,-8.42519 L 506.775,-8.20836 L 507.206,-7.895 L 507.563,-7.49884 L 507.83,-7.03717
 L 507.994,-6.53017 L 508.05,-6 L 508.05,-0 L 513,-0 z
M 6.98573,-55.607 L 6.47708,-55.6875 L 5.97964,-55.8208 L 5.49887,-56.0054 L 5.04001,-56.2392 L 4.60811,-56.5196
 L 4.20789,-56.8437 L 3.84373,-57.2079 L 3.51964,-57.6081 L 3.23917,-58.04 L 3.00537,-58.4989 L 2.82082,-58.9796
 L 2.68752,-59.4771 L 2.60696,-59.9857 L 2.58,-60.5 L 2.60696,-61.0143 L 2.68752,-61.5229 L 2.82082,-62.0204
 L 3.00537,-62.5011 L 3.23917,-62.96 L 3.51964,-63.3919 L 3.84373,-63.7921 L 4.20789,-64.1563 L 4.60811,-64.4804
 L 4.95001,-64.7024 L 4.95001,-74 L 5.00574,-74.5302 L 5.17047,-75.0372 L 5.43701,-75.4988 L 5.79373,-75.895
 L 6.22501,-76.2084 L 6.71202,-76.4252 L 7.23346,-76.536 L 7.76654,-76.536 L 8.28798,-76.4252 L 8.77499,-76.2084
 L 9.20627,-75.895 L 9.56299,-75.4988 L 9.82953,-75.0372 L 9.99426,-74.5302 L 10.05,-74 L 10.05,-64.7024
 L 10.3919,-64.4804 L 10.7921,-64.1563 L 11.1563,-63.7921 L 11.4804,-63.3919 L 11.7608,-62.96 L 11.9946,-62.5011
 L 12.1792,-62.0204 L 12.3125,-61.5229 L 12.393,-61.0143 L 12.42,-60.5 L 12.393,-59.9857 L 12.3125,-59.4771
 L 12.1792,-58.9796 L 11.9946,-58.4989 L 11.7608,-58.04 L 11.4804,-57.6081 L 11.1563,-57.2079 L 10.7921,-56.8437
 L 10.3919,-56.5196 L 9.95999,-56.2392 L 9.50113,-56.0054 L 9.02036,-55.8208 L 8.52292,-55.6875 L 8.01427,-55.607
 L 7.5,-55.58 z
M 131.486,-55.607 L 130.977,-55.6875 L 130.48,-55.8208 L 129.999,-56.0054 L 129.54,-56.2392 L 129.108,-56.5196
 L 128.708,-56.8437 L 128.344,-57.2079 L 128.02,-57.6081 L 127.739,-58.04 L 127.505,-58.4989 L 127.321,-58.9796
 L 127.188,-59.4771 L 127.107,-59.9857 L 127.08,-60.5 L 127.107,-61.0143 L 127.188,-61.5229 L 127.321,-62.0204
 L 127.505,-62.5011 L 127.739,-62.96 L 128.02,-63.3919 L 128.344,-63.7921 L 128.708,-64.1563 L 129.108,-64.4804
 L 129.45,-64.7024 L 129.45,-74 L 129.506,-74.5302 L 129.67,-75.0372 L 129.937,-75.4988 L 130.294,-75.895
 L 130.725,-76.2084 L 131.212,-76.4252 L 131.733,-76.536 L 132.267,-76.536 L 132.788,-76.4252 L 133.275,-76.2084
 L 133.706,-75.895 L 134.063,-75.4988 L 134.33,-75.0372 L 134.494,-74.5302 L 134.55,-74 L 134.55,-64.7024
 L 134.892,-64.4804 L 135.292,-64.1563 L 135.656,-63.7921 L 135.98,-63.3919 L 136.261,-62.96 L 136.495,-62.5011
 L 136.679,-62.0204 L 136.812,-61.5229 L 136.893,-61.0143 L 136.92,-60.5 L 136.893,-59.9857 L 136.812,-59.4771
 L 136.679,-58.9796 L 136.495,-58.4989 L 136.261,-58.04 L 135.98,-57.6081 L 135.656,-57.2079 L 135.292,-56.8437
 L 134.892,-56.5196 L 134.46,-56.2392 L 134.001,-56.0054 L 133.52,-55.8208 L 133.023,-55.6875 L 132.514,-55.607
 L 132,-55.58 z
M 255.986,-55.607 L 255.477,-55.6875 L 254.98,-55.8208 L 254.499,-56.0054 L 254.04,-56.2392 L 253.608,-56.5196
 L 253.208,-56.8437 L 252.844,-57.2079 L 252.52,-57.6081 L 252.239,-58.04 L 252.005,-58.4989 L 251.821,-58.9796
 L 251.688,-59.4771 L 251.607,-59.9857 L 251.58,-60.5 L 251.607,-61.0143 L 251.688,-61.5229 L 251.821,-62.0204
 L 252.005,-62.5011 L 252.239,-62.96 L 252.52,-63.3919 L 252.844,-63.7921 L 253.208,-64.1563 L 253.608,-64.4804
 L 253.95,-64.7024 L 253.95,-74 L 254.006,-74.5302 L 254.17,-75.0372 L 254.437,-75.4988 L 254.794,-75.895
 L 255.225,-76.2084 L 255.712,-76.4252 L 256.233,-76.536 L 256.767,-76.536 L 257.288,-76.4252 L 257.775,-76.2084
 L 258.206,-75.895 L 258.563,-75.4988 L 258.83,-75.0372 L 258.994,-74.5302 L 259.05,-74 L 259.05,-64.7024
 L 259.392,-64.4804 L 259.792,-64.1563 L 260.156,-63.7921 L 260.48,-63.3919 L 260.761,-62.96 L 260.995,-62.5011
 L 261.179,-62.0204 L 261.312,-61.5229 L 261.393,-61.0143 L 261.42,-60.5 L 261.393,-59.9857 L 261.312,-59.4771
 L 261.179,-58.9796 L 260.995,-58.4989 L 260.761,-58.04 L 260.48,-57.6081 L 260.156,-57.2079 L 259.792,-56.8437
 L 259.392,-56.5196 L 258.96,-56.2392 L 258.501,-56.0054 L 258.02,-55.8208 L 257.523,-55.6875 L 257.014,-55.607
 L 256.5,-55.58 z
M 380.486,-55.607 L 379.977,-55.6875 L 379.48,-55.8208 L 378.999,-56.0054 L 378.54,-56.2392 L 378.108,-56.5196
 L 377.708,-56.8437 L 377.344,-57.2079 L 377.02,-57.6081 L 376.739,-58.04 L 376.505,-58.4989 L 376.321,-58.9796
 L 376.188,-59.4771 L 376.107,-59.9857 L 376.08,-60.5 L 376.107,-61.0143 L 376.188,-61.5229 L 376.321,-62.0204
 L 376.505,-62.5011 L 376.739,-62.96 L 377.02,-63.3919 L 377.344,-63.7921 L 377.708,-64.1563 L 378.108,-64.4804
 L 378.45,-64.7024 L 378.45,-74 L 378.506,-74.5302 L 378.67,-75.0372 L 378.937,-75.4988 L 379.294,-75.895
 L 379.725,-76.2084 L 380.212,-76.4252 L 380.733,-76.536 L 381.267,-76.536 L 381.788,-76.4252 L 382.275,-76.2084
 L 382.706,-75.895 L 383.063,-75.4988 L 383.33,-75.0372 L 383.494,-74.5302 L 383.55,-74 L 383.55,-64.7024
 L 383.892,-64.4804 L 384.292,-64.1563 L 384.656,-63.7921 L 384.98,-63.3919 L 385.261,-62.96 L 385.495,-62.5011
 L 385.679,-62.0204 L 385.812,-61.5229 L 385.893,-61.0143 L 385.92,-60.5 L 385.893,-59.9857 L 385.812,-59.4771
 L 385.679,-58.9796 L 385.495,-58.4989 L 385.261,-58.04 L 384.98,-57.6081 L 384.656,-57.2079 L 384.292,-56.8437
 L 383.892,-56.5196 L 383.46,-56.2392 L 383.001,-56.0054 L 382.52,-55.8208 L 382.023,-55.6875 L 381.514,-55.607
 L 381,-55.58 z
M 504.986,-55.607 L 504.477,-55.6875 L 503.98,-55.8208 L 503.499,-56.0054 L 503.04,-56.2392 L 502.608,-56.5196
 L 502.208,-56.8437 L 501.844,-57.2079 L 501.52,-57.6081 L 501.239,-58.04 L 501.005,-58.4989 L 500.821,-58.9796
 L 500.688,-59.4771 L 500.607,-59.9857 L 500.58,-60.5 L 500.607,-61.0143 L 500.688,-61.5229 L 500.821,-62.0204
 L 501.005,-62.5011 L 501.239,-62.96 L 501.52,-63.3919 L 501.844,-63.7921 L 502.208,-64.1563 L 502.608,-64.4804
 L 502.95,-64.7024 L 502.95,-74 L 503.006,-74.5302 L 503.17,-75.0372 L 503.437,-75.4988 L 503.794,-75.895
 L 504.225,-76.2084 L 504.712,-76.4252 L 505.233,-76.536 L 505.767,-76.536 L 506.288,-76.4252 L 506.775,-76.2084
 L 507.206,-75.895 L 507.563,-75.4988 L 507.83,-75.0372 L 507.994,-74.5302 L 508.05,-74 L 508.05,-64.7024
 L 508.392,-64.4804 L 508.792,-64.1563 L 509.156,-63.7921 L 509.48,-63.3919 L 509.761,-62.96 L 509.995,-62.5011
 L 510.179,-62.0204 L 510.312,-61.5229 L 510.393,-61.0143 L 510.42,-60.5 L 510.393,-59.9857 L 510.312,-59.4771
 L 510.179,-58.9796 L 509.995,-58.4989 L 509.761,-58.04 L 509.48,-57.6081 L 509.156,-57.2079 L 508.792,-56.8437
 L 508.392,-56.5196 L 507.96,-56.2392 L 507.501,-56.0054 L 507.02,-55.8208 L 506.523,-55.6875 L 506.014,-55.607
 L 505.5,-55.58 z
M 268.988,-23.9418 L 268.174,-24.135 L 267.419,-24.4932 L 266.754,-25.0006 L 266.209,-25.6351 L 265.808,-26.369
 L 265.569,-27.1702 L 265.5,-27.9089 L 265.5,-58 L 265.587,-58.8316 L 265.846,-59.627 L 266.264,-60.3511
 L 266.823,-60.9726 L 267.5,-61.4641 L 268.264,-61.8042 L 269.5,-62 L 324.593,-62 L 325.425,-61.9126
 L 326.22,-61.6542 L 326.944,-61.2361 L 327.566,-60.6765 L 328.057,-60 L 328.397,-59.2361 L 328.571,-58.4181
 L 328.571,-57.5819 L 328.397,-56.7639 L 328.057,-56 L 327.566,-55.3235 L 326.944,-54.7639 L 326.511,-54.4895
 L 271.417,-24.3984 L 270.646,-24.0765 L 269.824,-23.922 z
M 242.354,-24.0765 L 241.583,-24.3984 L 186.489,-54.4895 L 186.056,-54.7639 L 185.434,-55.3235 L 184.943,-56
 L 184.603,-56.7639 L 184.429,-57.5819 L 184.429,-58.4181 L 184.603,-59.2361 L 184.943,-60 L 185.434,-60.6765
 L 186.056,-61.2361 L 186.78,-61.6542 L 187.575,-61.9126 L 188.407,-62 L 243.5,-62 L 244.736,-61.8042
 L 245.5,-61.4641 L 246.177,-60.9726 L 246.736,-60.3511 L 247.154,-59.627 L 247.413,-58.8316 L 247.5,-58
 L 247.5,-27.9089 L 247.431,-27.1702 L 247.192,-26.369 L 246.791,-25.6351 L 246.246,-25.0006 L 245.581,-24.4932
 L 244.826,-24.135 L 244.012,-23.9418 L 243.176,-23.922 z
M 393.488,-23.9418 L 392.674,-24.135 L 391.919,-24.4932 L 391.254,-25.0006 L 390.709,-25.6351 L 390.308,-26.369
 L 390.069,-27.1702 L 390,-27.9089 L 390,-58 L 390.087,-58.8316 L 390.346,-59.627 L 390.764,-60.3511
 L 391.323,-60.9726 L 392,-61.4641 L 392.764,-61.8042 L 394,-62 L 449.093,-62 L 449.925,-61.9126
 L 450.72,-61.6542 L 451.444,-61.2361 L 452.066,-60.6765 L 452.557,-60 L 452.897,-59.2361 L 453.071,-58.4181
 L 453.071,-57.5819 L 452.897,-56.7639 L 452.557,-56 L 452.066,-55.3235 L 451.444,-54.7639 L 451.011,-54.4895
 L 395.917,-24.3984 L 395.146,-24.0765 L 394.324,-23.922 z
M 117.854,-24.0765 L 117.083,-24.3984 L 61.9894,-54.4895 L 61.5556,-54.7639 L 60.9342,-55.3235 L 60.4427,-56
 L 60.1025,-56.7639 L 59.9287,-57.5819 L 59.9287,-58.4181 L 60.1025,-59.2361 L 60.4427,-60 L 60.9342,-60.6765
 L 61.5556,-61.2361 L 62.2798,-61.6542 L 63.0751,-61.9126 L 63.9068,-62 L 119,-62 L 120.236,-61.8042
 L 121,-61.4641 L 121.677,-60.9726 L 122.236,-60.3511 L 122.654,-59.627 L 122.913,-58.8316 L 123,-58
 L 123,-27.9089 L 122.931,-27.1702 L 122.692,-26.369 L 122.291,-25.6351 L 121.746,-25.0006 L 121.081,-24.4932
 L 120.326,-24.135 L 119.512,-23.9418 L 118.676,-23.922 z
M 312.907,-18 L 312.075,-18.0874 L 311.28,-18.3458 L 310.556,-18.7639 L 309.934,-19.3235 L 309.443,-20
 L 309.103,-20.7639 L 308.929,-21.5819 L 308.929,-22.4181 L 309.103,-23.2361 L 309.443,-24 L 309.934,-24.6765
 L 310.556,-25.2361 L 310.989,-25.5105 L 366.083,-55.6016 L 366.854,-55.9235 L 367.676,-56.0779 L 368.512,-56.0581
 L 369.326,-55.8649 L 370.081,-55.5068 L 370.746,-54.9994 L 371.291,-54.3649 L 371.692,-53.631 L 371.931,-52.8298
 L 372,-52.0911 L 372,-22 L 371.913,-21.1684 L 371.654,-20.373 L 371.236,-19.6489 L 370.677,-19.0274
 L 370,-18.5359 L 369.236,-18.1958 L 368,-18 z
M 145,-18 L 143.764,-18.1958 L 143,-18.5359 L 142.323,-19.0274 L 141.764,-19.6489 L 141.346,-20.373
 L 141.087,-21.1684 L 141,-22 L 141,-52.0911 L 141.069,-52.8298 L 141.308,-53.631 L 141.709,-54.3649
 L 142.254,-54.9994 L 142.919,-55.5068 L 143.674,-55.8649 L 144.488,-56.0581 L 145.324,-56.0779 L 146.146,-55.9235
 L 146.917,-55.6016 L 202.011,-25.5105 L 202.444,-25.2361 L 203.066,-24.6765 L 203.557,-24 L 203.897,-23.2361
 L 204.071,-22.4181 L 204.071,-21.5819 L 203.897,-20.7639 L 203.557,-20 L 203.066,-19.3235 L 202.444,-18.7639
 L 201.72,-18.3458 L 200.925,-18.0874 L 200.093,-18 z
M 22,-18 L 20.7639,-18.1958 L 20,-18.5359 L 19.3235,-19.0274 L 18.7639,-19.6489 L 18.3458,-20.373
 L 18.0874,-21.1684 L 18,-22 L 18,-51.2718 L 18.0688,-52.0105 L 18.3083,-52.8117 L 18.7092,-53.5456
 L 19.2538,-54.1801 L 19.9185,-54.6875 L 20.6742,-55.0457 L 21.4878,-55.2389 L 22.3238,-55.2587 L 23.1456,-55.1042
 L 23.9174,-54.7823 L 77.5106,-25.5105 L 77.9444,-25.2361 L 78.5658,-24.6765 L 79.0573,-24 L 79.3974,-23.2361
 L 79.5713,-22.4181 L 79.5713,-21.5819 L 79.3974,-20.7639 L 79.0573,-20 L 78.5658,-19.3235 L 77.9444,-18.7639
 L 77.2202,-18.3458 L 76.4249,-18.0874 L 75.5932,-18 z
M 437.407,-18 L 436.575,-18.0874 L 435.78,-18.3458 L 435.056,-18.7639 L 434.434,-19.3235 L 433.943,-20
 L 433.603,-20.7639 L 433.429,-21.5819 L 433.429,-22.4181 L 433.603,-23.2361 L 433.943,-24 L 434.434,-24.6765
 L 435.056,-25.2361 L 435.489,-25.5105 L 489.083,-54.7823 L 489.854,-55.1042 L 490.676,-55.2587 L 491.512,-55.2389
 L 492.326,-55.0457 L 493.081,-54.6875 L 493.746,-54.1801 L 494.291,-53.5456 L 494.692,-52.8117 L 494.931,-52.0105
 L 495,-51.2718 L 495,-22 L 494.913,-21.1684 L 494.654,-20.373 L 494.236,-19.6489 L 493.677,-19.0274
 L 493,-18.5359 L 492.236,-18.1958 L 491,-18 z
" stroke="black" fill="lightgray" stroke-width="0.5"/>
</svg>
