<?xml version="1.0" standalone="no"?>
<!DOCTYPE svg PUBLIC "-//W3C//DTD SVG 1.1//EN" "http://www.w3.org/Graphics/SVG/1.1/DTD/svg11.dtd">
<svg width="802mm" height="80mm" viewBox="0 -80 802 80" xmlns="http://www.w3.org/2000/svg" version="1.1">
<title>OpenSCAD Model</title>
<path d="
M 802,-80 L 0,-80 L 0,-0 L 4.95,-0 L 4.95,-6 L 5.00572,-6.53017
 L 5.17046,-7.03717 L 5.437,-7.49884 L 5.79372,-7.895 L 6.22499,-8.20836 L 6.71201,-8.42519 L 7.23344,-8.53603
 L 7.76654,-8.53603 L 8.28798,-8.42519 L 8.77499,-8.20836 L 9.20627,-7.895 L 9.56299,-7.49884 L 9.82953,-7.03717
 L 9.99426,-6.53017 L 10.05,-6 L 10.05,-0 L 162.35,-0 L 162.35,-6 L 162.406,-6.53017
 L 162.57,-7.03717 L 162.837,-7.49884 L 163.194,-7.895 L 163.625,-8.20836 L 164.112,-8.42519 L 164.633,-8.53603
 L 165.167,-8.53603 L 165.688,-8.42519 L 166.175,-8.20836 L 166.606,-7.895 L 166.963,-7.49884 L 167.23,-7.03717
 L 167.394,-6.53017 L 167.45,-6 L 167.45,-0 L 319.75,-0 L 319.75,-6 L 319.806,-6.53017
 L 319.97,-7.03717 L 320.237,-7.49884 L 320.594,-7.895 L 321.025,-8.20836 L 321.512,-8.42519 L 322.033,-8.53603
 L 322.567,-8.53603 L 323.088,-8.42519 L 323.575,-8.20836 L 324.006,-7.895 L 324.363,-7.49884 L 324.63,-7.03717
 L 324.794,-6.53017 L 324.85,-6 L 324.85,-0 L 477.15,-0 L 477.15,-6 L 477.206,-6.53017
 L 477.37,-7.03717 L 477.637,-7.49884 L 477.994,-7.895 L 478.425,-8.20836 L 478.912,-8.42519 L 479.433,-8.53603
 L 479.967,-8.53603 L 480.488,-8.42519 L 480.975,-8.20836 L 481.406,-7.895 L 481.763,-7.49884 L 482.03,-7.03717
 L 482.194,-6.53017 L 482.25,-6 L 482.25,-0 L 634.55,-0 L 634.55,-6 L 634.606,-6.53017
 L 634.77,-7.03717 L 635.037,-7.49884 L 635.394,-7.895 L 635.825,-8.20836 L 636.312,-8.42519 L 636.833,-8.53603
 L 637.367,-8.53603 L 637.888,-8.42519 L 638.375,-8.20836 L 638.806,-7.895 L 639.163,-7.49884 L 639.43,-7.03717
 L 639.594,-6.53017 L 639.65,-6 L 639.65,-0 L 791.95,-0 L 791.95,-6 L 792.006,-6.53017
 L 792.17,-7.03717 L 792.437,-7.49884 L 792.794,-7.895 L 793.225,-8.20836 L 793.712,-8.42519 L 794.233,-8.53603
 L 794.767,-8.53603 L 795.288,-8.42519 L 795.775,-8.20836 L 796.206,-7.895 L 796.563,-7.49884 L 796.83,-7.03717
 L 796.994,-6.53017 L 797.05,-6 L 797.05,-0 L 802,-0 z
M 6.98573,-55.607 L 6.47708,-55.6875 L 5.97964,-55.8208 L 5.49887,-56.0054 L 5.04001,-56.2392 L 4.60811,-56.5196
 L 4.20789,-56.8437 L 3.84373,-57.2079 L 3.51964,-57.6081 L 3.23917,-58.04 L 3.00537,-58.4989 L 2.82082,-58.9796
 L 2.68752,-59.4771 L 2.60696,-59.9857 L 2.58,-60.5 L 2.60696,-61.0143 L 2.68752,-61.5229 L 2.82082,-62.0204
 L 3.00537,-62.5011 L 3.23917,-62.96 L 3.51964,-63.3919 L 3.84373,-63.7921 L 4.20789,-64.1563 L 4.60811,-64.4804
 L 4.95001,-64.7024 L 4.95001,-74 L 5.00574,-74.5302 L 5.17047,-75.0372 L 5.43701,-75.4988 L 5.79373,-75.895
 L 6.22501,-76.2084 L 6.71202,-76.4252 L 7.23346,-76.536 L 7.76654,-76.536 L 8.28798,-76.4252 L 8.77499,-76.2084
 L 9.20627,-75.895 L 9.56299,-75.4988 L 9.82953,-75.0372 L 9.99426,-74.5302 L 10.05,-74 L 10.05,-64.7024
 L 10.3919,-64.4804 L 10.7921,-64.1563 L 11.1563,-63.7921 L 11.4804,-63.3919 L 11.7608,-62.96 L 11.9946,-62.5011
 L 12.1792,-62.0204 L 12.3125,-61.5229 L 12.393,-61.0143 L 12.42,-60.5 L 12.393,-59.9857 L 12.3125,-59.4771
 L 12.1792,-58.9796 L 11.9946,-58.4989 L 11.7608,-58.04 L 11.4804,-57.6081 L 11.1563,-57.2079 L 10.7921,-56.8437
 L 10.3919,-56.5196 L 9.95999,-56.2392 L 9.50113,-56.0054 L 9.02036,-55.8208 L 8.52292,-55.6875 L 8.01427,-55.607
 L 7.5,-55.58 z
M 164.386,-55.607 L 163.877,-55.6875 L 163.38,-55.8208 L 162.899,-56.0054 L 162.44,-56.2392 L 162.008,-56.5196
 L 161.608,-56.8437 L 161.244,-57.2079 L 160.92,-57.6081 L 160.639,-58.04 L 160.405,-58.4989 L 160.221,-58.9796
 L 160.088,-59.4771 L 160.007,-59.9857 L 159.98,-60.5 L 160.007,-61.0143 L 160.088,-61.5229 L 160.221,-62.0204
 L 160.405,-62.5011 L 160.639,-62.96 L 160.92,-63.3919 L 161.244,-63.7921 L 161.608,-64.1563 L 162.008,-64.4804
 L 162.35,-64.7024 L 162.35,-74 L 162.406,-74.5302 L 162.57,-75.0372 L 162.837,-75.4988 L 163.194,-75.895
 L 163.625,-76.2084 L 164.112,-76.4252 L 164.633,-76.536 L 165.167,-76.536 L 165.688,-76.4252 L 166.175,-76.2084
 L 166.606,-75.895 L 166.963,-75.4988 L 167.23,-75.0372 L 167.394,-74.5302 L 167.45,-74 L 167.45,-64.7024
 L 167.792,-64.4804 L 168.192,-64.1563 L 168.556,-63.7921 L 168.88,-63.3919 L 169.161,-62.96 L 169.395,-62.5011
 L 169.579,-62.0204 L 169.712,-61.5229 L 169.793,-61.0143 L 169.82,-60.5 L 169.793,-59.9857 L 169.712,-59.4771
 L 169.579,-58.9796 L 169.395,-58.4989 L 169.161,-58.04 L 168.88,-57.6081 L 168.556,-57.2079 L 168.192,-56.8437
 L 167.792,-56.5196 L 167.36,-56.2392 L 166.901,-56.0054 L 166.42,-55.8208 L 165.923,-55.6875 L 165.414,-55.607
 L 164.9,-55.58 z
M 321.786,-55.607 L 321.277,-55.6875 L 320.78,-55.8208 L 320.299,-56.0054 L 319.84,-56.2392 L 319.408,-56.5196
 L 319.008,-56.8437 L 318.644,-57.2079 L 318.32,-57.6081 L 318.039,-58.04 L 317.805,-58.4989 L 317.621,-58.9796
 L 317.488,-59.4771 L 317.407,-59.9857 L 317.38,-60.5 L 317.407,-61.0143 L 317.488,-61.5229 L 317.621,-62.0204
 L 317.805,-62.5011 L 318.039,-62.96 L 318.32,-63.3919 L 318.644,-63.7921 L 319.008,-64.1563 L 319.408,-64.4804
 L 319.75,-64.7024 L 319.75,-74 L 319.806,-74.5302 L 319.97,-75.0372 L 320.237,-75.4988 L 320.594,-75.895
 L 321.025,-76.2084 L 321.512,-76.4252 L 322.033,-76.536 L 322.567,-76.536 L 323.088,-76.4252 L 323.575,-76.2084
 L 324.006,-75.895 L 324.363,-75.4988 L 324.63,-75.0372 L 324.794,-74.5302 L 324.85,-74 L 324.85,-64.7024
 L 325.192,-64.4804 L 325.592,-64.1563 L 325.956,-63.7921 L 326.28,-63.3919 L 326.561,-62.96 L 326.795,-62.5011
 L 326.979,-62.0204 L 327.112,-61.5229 L 327.193,-61.0143 L 327.22,-60.5 L 327.193,-59.9857 L 327.112,-59.4771
 L 326.979,-58.9796 L 326.795,-58.4989 L 326.561,-58.04 L 326.28,-57.6081 L 325.956,-57.2079 L 325.592,-56.8437
 L 325.192,-56.5196 L 324.76,-56.2392 L 324.301,-56.0054 L 323.82,-55.8208 L 323.323,-55.6875 L 322.814,-55.607
 L 322.3,-55.58 z
M 479.186,-55.607 L 478.677,-55.6875 L 478.18,-55.8208 L 477.699,-56.0054 L 477.24,-56.2392 L 476.808,-56.5196
 L 476.408,-56.8437 L 476.044,-57.2079 L 475.72,-57.6081 L 475.439,-58.04 L 475.205,-58.4989 L 475.021,-58.9796
 L 474.888,-59.4771 L 474.807,-59.9857 L 474.78,-60.5 L 474.807,-61.0143 L 474.888,-61.5229 L 475.021,-62.0204
 L 475.205,-62.5011 L 475.439,-62.96 L 475.72,-63.3919 L 476.044,-63.7921 L 476.408,-64.1563 L 476.808,-64.4804
 L 477.15,-64.7024 L 477.15,-74 L 477.206,-74.5302 L 477.37,-75.0372 L 477.637,-75.4988 L 477.994,-75.895
 L 478.425,-76.2084 L 478.912,-76.4252 L 479.433,-76.536 L 479.967,-76.536 L 480.488,-76.4252 L 480.975,-76.2084
 L 481.406,-75.895 L 481.763,-75.4988 L 482.03,-75.0372 L 482.194,-74.5302 L 482.25,-74 L 482.25,-64.7024
 L 482.592,-64.4804 L 482.992,-64.1563 L 483.356,-63.7921 L 483.68,-63.3919 L 483.961,-62.96 L 484.195,-62.5011
 L 484.379,-62.0204 L 484.512,-61.5229 L 484.593,-61.0143 L 484.62,-60.5 L 484.593,-59.9857 L 484.512,-59.4771
 L 484.379,-58.9796 L 484.195,-58.4989 L 483.961,-58.04 L 483.68,-57.6081 L 483.356,-57.2079 L 482.992,-56.8437
 L 482.592,-56.5196 L 482.16,-56.2392 L 481.701,-56.0054 L 481.22,-55.8208 L 480.723,-55.6875 L 480.214,-55.607
 L 479.7,-55.58 z
M 636.586,-55.607 L 636.077,-55.6875 L 635.58,-55.8208 L 635.099,-56.0054 L 634.64,-56.2392 L 634.208,-56.5196
 L 633.808,-56.8437 L 633.444,-57.2079 L 633.12,-57.6081 L 632.839,-58.04 L 632.605,-58.4989 L 632.421,-58.9796
 L 632.288,-59.4771 L 632.207,-59.9857 L 632.18,-60.5 L 632.207,-61.0143 L 632.288,-61.5229 L 632.421,-62.0204
 L 632.605,-62.5011 L 632.839,-62.96 L 633.12,-63.3919 L 633.444,-63.7921 L 633.808,-64.1563 L 634.208,-64.4804
 L 634.55,-64.7024 L 634.55,-74 L 634.606,-74.5302 L 634.77,-75.0372 L 635.037,-75.4988 L 635.394,-75.895
 L 635.825,-76.2084 L 636.312,-76.4252 L 636.833,-76.536 L 637.367,-76.536 L 637.888,-76.4252 L 638.375,-76.2084
 L 638.806,-75.895 L 639.163,-75.4988 L 639.43,-75.0372 L 639.594,-74.5302 L 639.65,-74 L 639.65,-64.7024
 L 639.992,-64.4804 L 640.392,-64.1563 L 640.756,-63.7921 L 641.08,-63.3919 L 641.361,-62.96 L 641.595,-62.5011
 L 641.779,-62.0204 L 641.912,-61.5229 L 641.993,-61.0143 L 642.02,-60.5 L 641.993,-59.9857 L 641.912,-59.4771
 L 641.779,-58.9796 L 641.595,-58.4989 L 641.361,-58.04 L 641.08,-57.6081 L 640.756,-57.2079 L 640.392,-56.8437
 L 639.992,-56.5196 L 639.56,-56.2392 L 639.101,-56.0054 L 638.62,-55.8208 L 638.123,-55.6875 L 637.614,-55.607
 L 637.1,-55.58 z
M 793.986,-55.607 L 793.477,-55.6875 L 792.98,-55.8208 L 792.499,-56.0054 L 792.04,-56.2392 L 791.608,-56.5196
 L 791.208,-56.8437 L 790.844,-57.2079 L 790.52,-57.6081 L 790.239,-58.04 L 790.005,-58.4989 L 789.821,-58.9796
 L 789.688,-59.4771 L 789.607,-59.9857 L 789.58,-60.5 L 789.607,-61.0143 L 789.688,-61.5229 L 789.821,-62.0204
 L 790.005,-62.5011 L 790.239,-62.96 L 790.52,-63.3919 L 790.844,-63.7921 L 791.208,-64.1563 L 791.608,-64.4804
 L 791.95,-64.7024 L 791.95,-74 L 792.006,-74.5302 L 792.17,-75.0372 L 792.437,-75.4988 L 792.794,-75.895
 L 793.225,-76.2084 L 793.712,-76.4252 L 794.233,-76.536 L 794.767,-76.536 L 795.288,-76.4252 L 795.775,-76.2084
 L 796.206,-75.895 L 796.563,-75.4988 L 796.83,-75.0372 L 796.994,-74.5302 L 797.05,-74 L 797.05,-64.7024
 L 797.392,-64.4804 L 797.792,-64.1563 L 798.156,-63.7921 L 798.48,-63.3919 L 798.761,-62.96 L 798.995,-62.5011
 L 799.179,-62.0204 L 799.312,-61.5229 L 799.393,-61.0143 L 799.42,-60.5 L 799.393,-59.9857 L 799.312,-59.4771
 L 799.179,-58.9796 L 798.995,-58.4989 L 798.761,-58.04 L 798.48,-57.6081 L 798.156,-57.2079 L 797.792,-56.8437
 L 797.392,-56.5196 L 796.96,-56.2392 L 796.501,-56.0054 L 796.02,-55.8208 L 795.523,-55.6875 L 795.014,-55.607
 L 794.5,-55.58 z
M 400.212,-48.0603 L 399.414,-48.3099 L 385.483,-54.328 L 384.719,-54.7639 L 384.097,-55.3235 L 383.606,-56
 L 383.266,-56.7639 L 383.092,-57.5819 L 383.092,-58.4181 L 383.266,-59.2361 L 383.606,-60 L 384.097,-60.6765
 L 384.719,-61.2361 L 385.443,-61.6542 L 386.238,-61.9126 L 387.07,-62 L 414.93,-62 L 415.805,-61.9031
 L 416.597,-61.6359 L 417.317,-61.2098 L 417.932,-60.6434 L 418.416,-59.9615 L 418.748,-59.1938 L 418.913,-58.374
 L 418.903,-57.5378 L 418.72,-56.7219 L 418.372,-55.9617 L 417.873,-55.2907 L 417.245,-54.7381 L 416.516,-54.328
 L 402.586,-48.3099 L 401.875,-48.0788 L 401.044,-47.9821 z
M 308.512,-21.8551 L 307.714,-22.1047 L 233.126,-54.328 L 232.361,-54.7639 L 231.74,-55.3235 L 231.248,-56
 L 230.908,-56.7639 L 230.734,-57.5819 L 230.734,-58.4181 L 230.908,-59.2361 L 231.248,-60 L 231.74,-60.6765
 L 232.361,-61.2361 L 233.086,-61.6542 L 233.881,-61.9126 L 234.712,-62 L 309.3,-62 L 310.536,-61.8042
 L 311.3,-61.4641 L 311.977,-60.9726 L 312.536,-60.3511 L 312.954,-59.627 L 313.213,-58.8316 L 313.3,-58
 L 313.3,-25.7767 L 313.118,-24.5828 L 312.786,-23.8152 L 312.302,-23.1333 L 311.687,-22.5669 L 310.967,-22.1407
 L 310.175,-21.8736 L 309.344,-21.7769 z
M 649.225,-21.8736 L 648.433,-22.1407 L 647.713,-22.5669 L 647.098,-23.1333 L 646.614,-23.8152 L 646.282,-24.5828
 L 646.1,-25.7767 L 646.1,-58 L 646.187,-58.8316 L 646.446,-59.627 L 646.864,-60.3511 L 647.423,-60.9726
 L 648.1,-61.4641 L 648.864,-61.8042 L 650.1,-62 L 724.688,-62 L 725.519,-61.9126 L 726.314,-61.6542
 L 727.039,-61.2361 L 727.66,-60.6765 L 728.152,-60 L 728.492,-59.2361 L 728.666,-58.4181 L 728.666,-57.5819
 L 728.492,-56.7639 L 728.152,-56 L 727.66,-55.3235 L 727.039,-54.7639 L 726.274,-54.328 L 651.686,-22.1047
 L 650.888,-21.8551 L 650.056,-21.7769 z
M 151.112,-21.8551 L 150.314,-22.1047 L 75.7261,-54.328 L 74.9614,-54.7639 L 74.3399,-55.3235 L 73.8484,-56
 L 73.5083,-56.7639 L 73.3344,-57.5819 L 73.3344,-58.4181 L 73.5083,-59.2361 L 73.8484,-60 L 74.3399,-60.6765
 L 74.9614,-61.2361 L 75.6855,-61.6542 L 76.4809,-61.9126 L 77.3125,-62 L 151.9,-62 L 153.136,-61.8042
 L 153.9,-61.4641 L 154.577,-60.9726 L 155.136,-60.3511 L 155.554,-59.627 L 155.813,-58.8316 L 155.9,-58
 L 155.9,-25.7767 L 155.718,-24.5828 L 155.386,-23.8152 L 154.902,-23.1333 L 154.287,-22.5669 L 153.567,-22.1407
 L 152.775,-21.8736 L 151.944,-21.7769 z
M 491.825,-21.8736 L 491.033,-22.1407 L 490.313,-22.5669 L 489.698,-23.1333 L 489.214,-23.8152 L 488.882,-24.5828
 L 488.7,-25.7767 L 488.7,-58 L 488.787,-58.8316 L 489.046,-59.627 L 489.464,-60.3511 L 490.023,-60.9726
 L 490.7,-61.4641 L 491.464,-61.8042 L 492.7,-62 L 567.287,-62 L 568.119,-61.9126 L 568.914,-61.6542
 L 569.639,-61.2361 L 570.26,-60.6765 L 570.752,-60 L 571.092,-59.2361 L 571.266,-58.4181 L 571.266,-57.5819
 L 571.092,-56.7639 L 570.752,-56 L 570.26,-55.3235 L 569.639,-54.7639 L 568.874,-54.328 L 494.286,-22.1047
 L 493.488,-21.8551 L 492.656,-21.7769 z
M 334.882,-19.6201 L 334.064,-19.7939 L 333.3,-20.1341 L 332.623,-20.6256 L 332.064,-21.247 L 331.646,-21.9712
 L 331.387,-22.7665 L 331.3,-23.5982 L 331.3,-56.4018 L 331.482,-57.5957 L 331.814,-58.3633 L 332.298,-59.0453
 L 332.913,-59.6116 L 333.633,-60.0378 L 334.425,-60.305 L 335.256,-60.4016 L 336.088,-60.3234 L 336.886,-60.0738
 L 374.852,-43.672 L 375.652,-43.2098 L 376.267,-42.6434 L 376.751,-41.9615 L 377.083,-41.1938 L 377.248,-40.374
 L 377.239,-39.5378 L 377.056,-38.7219 L 376.707,-37.9617 L 376.208,-37.2907 L 375.581,-36.7381 L 374.852,-36.328
 L 336.886,-19.9262 L 335.718,-19.6201 z
M 465.912,-19.6766 L 465.114,-19.9262 L 427.148,-36.328 L 426.348,-36.7902 L 425.732,-37.3566 L 425.249,-38.0385
 L 424.917,-38.8062 L 424.752,-39.626 L 424.761,-40.4622 L 424.944,-41.2781 L 425.293,-42.0383 L 425.792,-42.7093
 L 426.419,-43.2619 L 427.148,-43.672 L 465.114,-60.0738 L 466.282,-60.3799 L 467.118,-60.3799 L 467.936,-60.2061
 L 468.7,-59.8659 L 469.377,-59.3744 L 469.936,-58.753 L 470.354,-58.0288 L 470.613,-57.2335 L 470.7,-56.4018
 L 470.7,-23.5982 L 470.518,-22.4043 L 470.186,-21.6367 L 469.702,-20.9547 L 469.087,-20.3883 L 468.367,-19.9622
 L 467.575,-19.695 L 466.744,-19.5984 z
M 177.9,-18 L 176.664,-18.1958 L 175.9,-18.5359 L 175.223,-19.0274 L 174.664,-19.6489 L 174.246,-20.373
 L 173.987,-21.1684 L 173.9,-22 L 173.9,-54.2233 L 174.082,-55.4171 L 174.414,-56.1848 L 174.898,-56.8667
 L 175.513,-57.4331 L 176.233,-57.8592 L 177.025,-58.1264 L 177.856,-58.2231 L 178.688,-58.1449 L 179.486,-57.8953
 L 254.074,-25.672 L 254.839,-25.2361 L 255.46,-24.6765 L 255.952,-24 L 256.292,-23.2361 L 256.466,-22.4181
 L 256.466,-21.5819 L 256.292,-20.7639 L 255.952,-20 L 255.46,-19.3235 L 254.839,-18.7639 L 254.114,-18.3458
 L 253.319,-18.0874 L 252.487,-18 z
M 549.513,-18 L 548.681,-18.0874 L 547.886,-18.3458 L 547.161,-18.7639 L 546.54,-19.3235 L 546.048,-20
 L 545.708,-20.7639 L 545.534,-21.5819 L 545.534,-22.4181 L 545.708,-23.2361 L 546.048,-24 L 546.54,-24.6765
 L 547.161,-25.2361 L 547.926,-25.672 L 622.514,-57.8953 L 623.312,-58.1449 L 624.144,-58.2231 L 624.975,-58.1264
 L 625.767,-57.8592 L 626.487,-57.4331 L 627.102,-56.8667 L 627.586,-56.1848 L 627.918,-55.4171 L 628.1,-54.2233
 L 628.1,-22 L 628.013,-21.1684 L 627.754,-20.373 L 627.336,-19.6489 L 626.777,-19.0274 L 626.1,-18.5359
 L 625.336,-18.1958 L 624.1,-18 z
M 22,-18 L 20.7639,-18.1958 L 20,-18.5359 L 19.3235,-19.0274 L 18.7639,-19.6489 L 18.3458,-20.373
 L 18.0874,-21.1684 L 18,-22 L 18,-53.5753 L 18.1823,-54.7691 L 18.514,-55.5368 L 18.998,-56.2187
 L 19.6132,-56.7851 L 20.3327,-57.2112 L 21.1251,-57.4784 L 21.9557,-57.575 L 22.7883,-57.4968 L 23.5864,-57.2473
 L 96.6738,-25.672 L 97.4386,-25.2361 L 98.0601,-24.6765 L 98.5516,-24 L 98.8917,-23.2361 L 99.0656,-22.4181
 L 99.0656,-21.5819 L 98.8917,-20.7639 L 98.5516,-20 L 98.0601,-19.3235 L 97.4386,-18.7639 L 96.7144,-18.3458
 L 95.9191,-18.0874 L 95.0875,-18 z
M 706.913,-18 L 706.081,-18.0874 L 705.286,-18.3458 L 704.561,-18.7639 L 703.94,-19.3235 L 703.448,-20
 L 703.108,-20.7639 L 702.934,-21.5819 L 702.934,-22.4181 L 703.108,-23.2361 L 703.448,-24 L 703.94,-24.6765
 L 704.561,-25.2361 L 705.326,-25.672 L 778.414,-57.2473 L 779.212,-57.4968 L 780.044,-57.575 L 780.875,-57.4784
 L 781.667,-57.2112 L 782.387,-56.7851 L 783.002,-56.2187 L 783.486,-55.5368 L 783.818,-54.7691 L 784,-53.5753
 L 784,-22 L 783.913,-21.1684 L 783.654,-20.373 L 783.236,-19.6489 L 782.677,-19.0274 L 782,-18.5359
 L 781.236,-18.1958 L 780,-18 z
M 387.07,-18 L 386.195,-18.0969 L 385.403,-18.3641 L 384.683,-18.7902 L 384.068,-19.3566 L 383.584,-20.0385
 L 383.252,-20.8062 L 383.087,-21.626 L 383.097,-22.4622 L 383.28,-23.2781 L 383.628,-24.0383 L 384.127,-24.7093
 L 384.755,-25.2619 L 385.483,-25.672 L 399.414,-31.6901 L 400.125,-31.9212 L 400.956,-32.0179 L 401.788,-31.9397
 L 402.586,-31.6901 L 416.516,-25.672 L 417.281,-25.2361 L 417.903,-24.6765 L 418.394,-24 L 418.734,-23.2361
 L 418.908,-22.4181 L 418.908,-21.5819 L 418.734,-20.7639 L 418.394,-20 L 417.903,-19.3235 L 417.281,-18.7639
 L 416.557,-18.3458 L 415.762,-18.0874 L 414.93,-18 z
" stroke="black" fill="lightgray" stroke-width="0.5"/>
</svg>
