<?xml version="1.0" standalone="no"?>
<!DOCTYPE svg PUBLIC "-//W3C//DTD SVG 1.1//EN" "http://www.w3.org/Graphics/SVG/1.1/DTD/svg11.dtd">
<svg width="748mm" height="80mm" viewBox="0 -80 748 80" xmlns="http://www.w3.org/2000/svg" version="1.1">
<title>OpenSCAD Model</title>
<path d="
M 748,-80 L 0,-80 L 0,-0 L 4.95,-0 L 4.95,-6 L 5.00572,-6.53017
 L 5.17046,-7.03717 L 5.437,-7.49884 L 5.79372,-7.895 L 6.22499,-8.20836 L 6.71201,-8.42519 L 7.23344,-8.53603
 L 7.76654,-8.53603 L 8.28798,-8.42519 L 8.77499,-8.20836 L 9.20627,-7.895 L 9.56299,-7.49884 L 9.82953,-7.03717
 L 9.99426,-6.53017 L 10.05,-6 L 10.05,-0 L 151.55,-0 L 151.55,-6 L 151.606,-6.53017
 L 151.77,-7.03717 L 152.037,-7.49884 L 152.394,-7.895 L 152.825,-8.20836 L 153.312,-8.42519 L 153.833,-8.53603
 L 154.367,-8.53603 L 154.888,-8.42519 L 155.375,-8.20836 L 155.806,-7.895 L 156.163,-7.49884 L 156.43,-7.03717
 L 156.594,-6.53017 L 156.65,-6 L 156.65,-0 L 298.15,-0 L 298.15,-6 L 298.206,-6.53017
 L 298.37,-7.03717 L 298.637,-7.49884 L 298.994,-7.895 L 299.425,-8.20836 L 299.912,-8.42519 L 300.433,-8.53603
 L 300.967,-8.53603 L 301.488,-8.42519 L 301.975,-8.20836 L 302.406,-7.895 L 302.763,-7.49884 L 303.03,-7.03717
 L 303.194,-6.53017 L 303.25,-6 L 303.25,-0 L 444.75,-0 L 444.75,-6 L 444.806,-6.53017
 L 444.97,-7.03717 L 445.237,-7.49884 L 445.594,-7.895 L 446.025,-8.20836 L 446.512,-8.42519 L 447.033,-8.53603
 L 447.567,-8.53603 L 448.088,-8.42519 L 448.575,-8.20836 L 449.006,-7.895 L 449.363,-7.49884 L 449.63,-7.03717
 L 449.794,-6.53017 L 449.85,-6 L 449.85,-0 L 591.35,-0 L 591.35,-6 L 591.406,-6.53017
 L 591.57,-7.03717 L 591.837,-7.49884 L 592.194,-7.895 L 592.625,-8.20836 L 593.112,-8.42519 L 593.633,-8.53603
 L 594.167,-8.53603 L 594.688,-8.42519 L 595.175,-8.20836 L 595.606,-7.895 L 595.963,-7.49884 L 596.23,-7.03717
 L 596.394,-6.53017 L 596.45,-6 L 596.45,-0 L 737.95,-0 L 737.95,-6 L 738.006,-6.53017
 L 738.17,-7.03717 L 738.437,-7.49884 L 738.794,-7.895 L 739.225,-8.20836 L 739.712,-8.42519 L 740.233,-8.53603
 L 740.767,-8.53603 L 741.288,-8.42519 L 741.775,-8.20836 L 742.206,-7.895 L 742.563,-7.49884 L 742.83,-7.03717
 L 742.994,-6.53017 L 743.05,-6 L 743.05,-0 L 748,-0 z
M 6.98573,-55.607 L 6.47708,-55.6875 L 5.97964,-55.8208 L 5.49887,-56.0054 L 5.04001,-56.2392 L 4.60811,-56.5196
 L 4.20789,-56.8437 L 3.84373,-57.2079 L 3.51964,-57.6081 L 3.23917,-58.04 L 3.00537,-58.4989 L 2.82082,-58.9796
 L 2.68752,-59.4771 L 2.60696,-59.9857 L 2.58,-60.5 L 2.60696,-61.0143 L 2.68752,-61.5229 L 2.82082,-62.0204
 L 3.00537,-62.5011 L 3.23917,-62.96 L 3.51964,-63.3919 L 3.84373,-63.7921 L 4.20789,-64.1563 L 4.60811,-64.4804
 L 4.95001,-64.7024 L 4.95001,-74 L 5.00574,-74.5302 L 5.17047,-75.0372 L 5.43701,-75.4988 L 5.79373,-75.895
 L 6.22501,-76.2084 L 6.71202,-76.4252 L 7.23346,-76.536 L 7.76654,-76.536 L 8.28798,-76.4252 L 8.77499,-76.2084
 L 9.20627,-75.895 L 9.56299,-75.4988 L 9.82953,-75.0372 L 9.99426,-74.5302 L 10.05,-74 L 10.05,-64.7024
 L 10.3919,-64.4804 L 10.7921,-64.1563 L 11.1563,-63.7921 L 11.4804,-63.3919 L 11.7608,-62.96 L 11.9946,-62.5011
 L 12.1792,-62.0204 L 12.3125,-61.5229 L 12.393,-61.0143 L 12.42,-60.5 L 12.393,-59.9857 L 12.3125,-59.4771
 L 12.1792,-58.9796 L 11.9946,-58.4989 L 11.7608,-58.04 L 11.4804,-57.6081 L 11.1563,-57.2079 L 10.7921,-56.8437
 L 10.3919,-56.5196 L 9.95999,-56.2392 L 9.50113,-56.0054 L 9.02036,-55.8208 L 8.52292,-55.6875 L 8.01427,-55.607
 L 7.5,-55.58 z
M 153.586,-55.607 L 153.077,-55.6875 L 152.58,-55.8208 L 152.099,-56.0054 L 151.64,-56.2392 L 151.208,-56.5196
 L 150.808,-56.8437 L 150.444,-57.2079 L 150.12,-57.6081 L 149.839,-58.04 L 149.605,-58.4989 L 149.421,-58.9796
 L 149.288,-59.4771 L 149.207,-59.9857 L 149.18,-60.5 L 149.207,-61.0143 L 149.288,-61.5229 L 149.421,-62.0204
 L 149.605,-62.5011 L 149.839,-62.96 L 150.12,-63.3919 L 150.444,-63.7921 L 150.808,-64.1563 L 151.208,-64.4804
 L 151.55,-64.7024 L 151.55,-74 L 151.606,-74.5302 L 151.77,-75.0372 L 152.037,-75.4988 L 152.394,-75.895
 L 152.825,-76.2084 L 153.312,-76.4252 L 153.833,-76.536 L 154.367,-76.536 L 154.888,-76.4252 L 155.375,-76.2084
 L 155.806,-75.895 L 156.163,-75.4988 L 156.43,-75.0372 L 156.594,-74.5302 L 156.65,-74 L 156.65,-64.7024
 L 156.992,-64.4804 L 157.392,-64.1563 L 157.756,-63.7921 L 158.08,-63.3919 L 158.361,-62.96 L 158.595,-62.5011
 L 158.779,-62.0204 L 158.912,-61.5229 L 158.993,-61.0143 L 159.02,-60.5 L 158.993,-59.9857 L 158.912,-59.4771
 L 158.779,-58.9796 L 158.595,-58.4989 L 158.361,-58.04 L 158.08,-57.6081 L 157.756,-57.2079 L 157.392,-56.8437
 L 156.992,-56.5196 L 156.56,-56.2392 L 156.101,-56.0054 L 155.62,-55.8208 L 155.123,-55.6875 L 154.614,-55.607
 L 154.1,-55.58 z
M 300.186,-55.607 L 299.677,-55.6875 L 299.18,-55.8208 L 298.699,-56.0054 L 298.24,-56.2392 L 297.808,-56.5196
 L 297.408,-56.8437 L 297.044,-57.2079 L 296.72,-57.6081 L 296.439,-58.04 L 296.205,-58.4989 L 296.021,-58.9796
 L 295.888,-59.4771 L 295.807,-59.9857 L 295.78,-60.5 L 295.807,-61.0143 L 295.888,-61.5229 L 296.021,-62.0204
 L 296.205,-62.5011 L 296.439,-62.96 L 296.72,-63.3919 L 297.044,-63.7921 L 297.408,-64.1563 L 297.808,-64.4804
 L 298.15,-64.7024 L 298.15,-74 L 298.206,-74.5302 L 298.37,-75.0372 L 298.637,-75.4988 L 298.994,-75.895
 L 299.425,-76.2084 L 299.912,-76.4252 L 300.433,-76.536 L 300.967,-76.536 L 301.488,-76.4252 L 301.975,-76.2084
 L 302.406,-75.895 L 302.763,-75.4988 L 303.03,-75.0372 L 303.194,-74.5302 L 303.25,-74 L 303.25,-64.7024
 L 303.592,-64.4804 L 303.992,-64.1563 L 304.356,-63.7921 L 304.68,-63.3919 L 304.961,-62.96 L 305.195,-62.5011
 L 305.379,-62.0204 L 305.512,-61.5229 L 305.593,-61.0143 L 305.62,-60.5 L 305.593,-59.9857 L 305.512,-59.4771
 L 305.379,-58.9796 L 305.195,-58.4989 L 304.961,-58.04 L 304.68,-57.6081 L 304.356,-57.2079 L 303.992,-56.8437
 L 303.592,-56.5196 L 303.16,-56.2392 L 302.701,-56.0054 L 302.22,-55.8208 L 301.723,-55.6875 L 301.214,-55.607
 L 300.7,-55.58 z
M 446.786,-55.607 L 446.277,-55.6875 L 445.78,-55.8208 L 445.299,-56.0054 L 444.84,-56.2392 L 444.408,-56.5196
 L 444.008,-56.8437 L 443.644,-57.2079 L 443.32,-57.6081 L 443.039,-58.04 L 442.805,-58.4989 L 442.621,-58.9796
 L 442.488,-59.4771 L 442.407,-59.9857 L 442.38,-60.5 L 442.407,-61.0143 L 442.488,-61.5229 L 442.621,-62.0204
 L 442.805,-62.5011 L 443.039,-62.96 L 443.32,-63.3919 L 443.644,-63.7921 L 444.008,-64.1563 L 444.408,-64.4804
 L 444.75,-64.7024 L 444.75,-74 L 444.806,-74.5302 L 444.97,-75.0372 L 445.237,-75.4988 L 445.594,-75.895
 L 446.025,-76.2084 L 446.512,-76.4252 L 447.033,-76.536 L 447.567,-76.536 L 448.088,-76.4252 L 448.575,-76.2084
 L 449.006,-75.895 L 449.363,-75.4988 L 449.63,-75.0372 L 449.794,-74.5302 L 449.85,-74 L 449.85,-64.7024
 L 450.192,-64.4804 L 450.592,-64.1563 L 450.956,-63.7921 L 451.28,-63.3919 L 451.561,-62.96 L 451.795,-62.5011
 L 451.979,-62.0204 L 452.112,-61.5229 L 452.193,-61.0143 L 452.22,-60.5 L 452.193,-59.9857 L 452.112,-59.4771
 L 451.979,-58.9796 L 451.795,-58.4989 L 451.561,-58.04 L 451.28,-57.6081 L 450.956,-57.2079 L 450.592,-56.8437
 L 450.192,-56.5196 L 449.76,-56.2392 L 449.301,-56.0054 L 448.82,-55.8208 L 448.323,-55.6875 L 447.814,-55.607
 L 447.3,-55.58 z
M 593.386,-55.607 L 592.877,-55.6875 L 592.38,-55.8208 L 591.899,-56.0054 L 591.44,-56.2392 L 591.008,-56.5196
 L 590.608,-56.8437 L 590.244,-57.2079 L 589.92,-57.6081 L 589.639,-58.04 L 589.405,-58.4989 L 589.221,-58.9796
 L 589.088,-59.4771 L 589.007,-59.9857 L 588.98,-60.5 L 589.007,-61.0143 L 589.088,-61.5229 L 589.221,-62.0204
 L 589.405,-62.5011 L 589.639,-62.96 L 589.92,-63.3919 L 590.244,-63.7921 L 590.608,-64.1563 L 591.008,-64.4804
 L 591.35,-64.7024 L 591.35,-74 L 591.406,-74.5302 L 591.57,-75.0372 L 591.837,-75.4988 L 592.194,-75.895
 L 592.625,-76.2084 L 593.112,-76.4252 L 593.633,-76.536 L 594.167,-76.536 L 594.688,-76.4252 L 595.175,-76.2084
 L 595.606,-75.895 L 595.963,-75.4988 L 596.23,-75.0372 L 596.394,-74.5302 L 596.45,-74 L 596.45,-64.7024
 L 596.792,-64.4804 L 597.192,-64.1563 L 597.556,-63.7921 L 597.88,-63.3919 L 598.161,-62.96 L 598.395,-62.5011
 L 598.579,-62.0204 L 598.712,-61.5229 L 598.793,-61.0143 L 598.82,-60.5 L 598.793,-59.9857 L 598.712,-59.4771
 L 598.579,-58.9796 L 598.395,-58.4989 L 598.161,-58.04 L 597.88,-57.6081 L 597.556,-57.2079 L 597.192,-56.8437
 L 596.792,-56.5196 L 596.36,-56.2392 L 595.901,-56.0054 L 595.42,-55.8208 L 594.923,-55.6875 L 594.414,-55.607
 L 593.9,-55.58 z
M 739.986,-55.607 L 739.477,-55.6875 L 738.98,-55.8208 L 738.499,-56.0054 L 738.04,-56.2392 L 737.608,-56.5196
 L 737.208,-56.8437 L 736.844,-57.2079 L 736.52,-57.6081 L 736.239,-58.04 L 736.005,-58.4989 L 735.821,-58.9796
 L 735.688,-59.4771 L 735.607,-59.9857 L 735.58,-60.5 L 735.607,-61.0143 L 735.688,-61.5229 L 735.821,-62.0204
 L 736.005,-62.5011 L 736.239,-62.96 L 736.52,-63.3919 L 736.844,-63.7921 L 737.208,-64.1563 L 737.608,-64.4804
 L 737.95,-64.7024 L 737.95,-74 L 738.006,-74.5302 L 738.17,-75.0372 L 738.437,-75.4988 L 738.794,-75.895
 L 739.225,-76.2084 L 739.712,-76.4252 L 740.233,-76.536 L 740.767,-76.536 L 741.288,-76.4252 L 741.775,-76.2084
 L 742.206,-75.895 L 742.563,-75.4988 L 742.83,-75.0372 L 742.994,-74.5302 L 743.05,-74 L 743.05,-64.7024
 L 743.392,-64.4804 L 743.792,-64.1563 L 744.156,-63.7921 L 744.48,-63.3919 L 744.761,-62.96 L 744.995,-62.5011
 L 745.179,-62.0204 L 745.312,-61.5229 L 745.393,-61.0143 L 745.42,-60.5 L 745.393,-59.9857 L 745.312,-59.4771
 L 745.179,-58.9796 L 744.995,-58.4989 L 744.761,-58.04 L 744.48,-57.6081 L 744.156,-57.2079 L 743.792,-56.8437
 L 743.392,-56.5196 L 742.96,-56.2392 L 742.501,-56.0054 L 742.02,-55.8208 L 741.523,-55.6875 L 741.014,-55.607
 L 740.5,-55.58 z
M 373.108,-48.225 L 372.317,-48.4957 L 359.65,-54.3714 L 358.982,-54.7639 L 358.36,-55.3235 L 357.869,-56
 L 357.528,-56.7639 L 357.355,-57.5819 L 357.355,-58.4181 L 357.528,-59.2361 L 357.869,-60 L 358.36,-60.6765
 L 358.982,-61.2361 L 359.706,-61.6542 L 360.501,-61.9126 L 361.333,-62 L 386.667,-62 L 387.438,-61.925
 L 388.238,-61.6788 L 388.968,-61.272 L 389.598,-60.7221 L 390.1,-60.0532 L 390.452,-59.2946 L 390.638,-58.4794
 L 390.651,-57.6433 L 390.49,-56.8228 L 390.162,-56.0537 L 389.681,-55.3697 L 389.068,-54.8006 L 388.35,-54.3714
 L 375.683,-48.4957 L 374.771,-48.1993 L 373.938,-48.1248 z
M 286.808,-22.4594 L 286.017,-22.7301 L 217.802,-54.3714 L 217.134,-54.7639 L 216.513,-55.3235 L 216.021,-56
 L 215.681,-56.7639 L 215.507,-57.5819 L 215.507,-58.4181 L 215.681,-59.2361 L 216.021,-60 L 216.513,-60.6765
 L 217.134,-61.2361 L 217.858,-61.6542 L 218.653,-61.9126 L 219.485,-62 L 287.7,-62 L 288.936,-61.8042
 L 289.7,-61.4641 L 290.377,-60.9726 L 290.936,-60.3511 L 291.354,-59.627 L 291.613,-58.8316 L 291.7,-58
 L 291.7,-26.3587 L 291.671,-25.8793 L 291.485,-25.0641 L 291.133,-24.3055 L 290.631,-23.6367 L 290.001,-23.0868
 L 289.27,-22.6799 L 288.471,-22.4338 L 287.638,-22.3592 z
M 606.129,-22.4338 L 605.33,-22.6799 L 604.599,-23.0868 L 603.969,-23.6367 L 603.467,-24.3055 L 603.115,-25.0641
 L 602.929,-25.8793 L 602.9,-26.3587 L 602.9,-58 L 602.987,-58.8316 L 603.246,-59.627 L 603.664,-60.3511
 L 604.223,-60.9726 L 604.9,-61.4641 L 605.664,-61.8042 L 606.9,-62 L 675.115,-62 L 675.947,-61.9126
 L 676.742,-61.6542 L 677.466,-61.2361 L 678.087,-60.6765 L 678.579,-60 L 678.919,-59.2361 L 679.093,-58.4181
 L 679.093,-57.5819 L 678.919,-56.7639 L 678.579,-56 L 678.087,-55.3235 L 677.466,-54.7639 L 676.798,-54.3714
 L 608.583,-22.7301 L 607.792,-22.4594 L 606.962,-22.3592 z
M 140.208,-22.4594 L 139.417,-22.7301 L 71.202,-54.3714 L 70.534,-54.7639 L 69.9126,-55.3235 L 69.421,-56
 L 69.0809,-56.7639 L 68.907,-57.5819 L 68.907,-58.4181 L 69.0809,-59.2361 L 69.421,-60 L 69.9126,-60.6765
 L 70.534,-61.2361 L 71.2582,-61.6542 L 72.0535,-61.9126 L 72.8851,-62 L 141.1,-62 L 142.336,-61.8042
 L 143.1,-61.4641 L 143.777,-60.9726 L 144.336,-60.3511 L 144.754,-59.627 L 145.013,-58.8316 L 145.1,-58
 L 145.1,-26.3587 L 145.071,-25.8793 L 144.885,-25.0641 L 144.533,-24.3055 L 144.031,-23.6367 L 143.401,-23.0868
 L 142.67,-22.6799 L 141.871,-22.4338 L 141.038,-22.3592 z
M 459.529,-22.4338 L 458.73,-22.6799 L 457.999,-23.0868 L 457.369,-23.6367 L 456.867,-24.3055 L 456.515,-25.0641
 L 456.329,-25.8793 L 456.3,-26.3587 L 456.3,-58 L 456.387,-58.8316 L 456.646,-59.627 L 457.064,-60.3511
 L 457.623,-60.9726 L 458.3,-61.4641 L 459.064,-61.8042 L 460.3,-62 L 528.515,-62 L 529.347,-61.9126
 L 530.142,-61.6542 L 530.866,-61.2361 L 531.487,-60.6765 L 531.979,-60 L 532.319,-59.2361 L 532.493,-58.4181
 L 532.493,-57.5819 L 532.319,-56.7639 L 531.979,-56 L 531.487,-55.3235 L 530.866,-54.7639 L 530.198,-54.3714
 L 461.983,-22.7301 L 461.192,-22.4594 L 460.362,-22.3592 z
M 313.282,-20.1762 L 312.464,-20.3501 L 311.7,-20.6902 L 311.023,-21.1817 L 310.464,-21.8032 L 310.046,-22.5274
 L 309.787,-23.3227 L 309.7,-24.1543 L 309.7,-55.8457 L 309.729,-56.3251 L 309.915,-57.1403 L 310.267,-57.8989
 L 310.769,-58.5678 L 311.399,-59.1176 L 312.13,-59.5245 L 312.929,-59.7706 L 313.762,-59.8452 L 314.592,-59.745
 L 315.383,-59.4743 L 349.545,-43.6286 L 350.162,-43.272 L 350.792,-42.7221 L 351.294,-42.0532 L 351.646,-41.2946
 L 351.833,-40.4794 L 351.846,-39.6433 L 351.684,-38.8228 L 351.356,-38.0537 L 350.875,-37.3697 L 350.262,-36.8006
 L 349.545,-36.3714 L 315.383,-20.5257 L 314.936,-20.3501 L 314.118,-20.1762 z
M 433.408,-20.255 L 432.617,-20.5257 L 398.455,-36.3714 L 397.838,-36.728 L 397.208,-37.2779 L 396.706,-37.9468
 L 396.354,-38.7054 L 396.167,-39.5206 L 396.154,-40.3567 L 396.316,-41.1772 L 396.644,-41.9463 L 397.125,-42.6303
 L 397.738,-43.1994 L 398.455,-43.6286 L 432.617,-59.4743 L 433.064,-59.6499 L 433.882,-59.8238 L 434.718,-59.8238
 L 435.536,-59.6499 L 436.3,-59.3098 L 436.977,-58.8183 L 437.536,-58.1968 L 437.954,-57.4726 L 438.213,-56.6773
 L 438.3,-55.8457 L 438.3,-24.1543 L 438.271,-23.6749 L 438.085,-22.8597 L 437.733,-22.1011 L 437.231,-21.4322
 L 436.601,-20.8824 L 435.87,-20.4755 L 435.071,-20.2294 L 434.238,-20.1548 z
M 167.1,-18 L 165.864,-18.1958 L 165.1,-18.5359 L 164.423,-19.0274 L 163.864,-19.6489 L 163.446,-20.373
 L 163.187,-21.1684 L 163.1,-22 L 163.1,-53.6413 L 163.129,-54.1207 L 163.315,-54.9359 L 163.667,-55.6945
 L 164.169,-56.3633 L 164.799,-56.9132 L 165.53,-57.3201 L 166.329,-57.5662 L 167.162,-57.6408 L 167.992,-57.5406
 L 168.783,-57.2699 L 236.998,-25.6286 L 237.666,-25.2361 L 238.287,-24.6765 L 238.779,-24 L 239.119,-23.2361
 L 239.293,-22.4181 L 239.293,-21.5819 L 239.119,-20.7639 L 238.779,-20 L 238.287,-19.3235 L 237.666,-18.7639
 L 236.942,-18.3458 L 236.146,-18.0874 L 235.315,-18 z
M 512.685,-18 L 511.854,-18.0874 L 511.058,-18.3458 L 510.334,-18.7639 L 509.713,-19.3235 L 509.221,-20
 L 508.881,-20.7639 L 508.707,-21.5819 L 508.707,-22.4181 L 508.881,-23.2361 L 509.221,-24 L 509.713,-24.6765
 L 510.334,-25.2361 L 511.002,-25.6286 L 579.217,-57.2699 L 580.008,-57.5406 L 580.838,-57.6408 L 581.671,-57.5662
 L 582.47,-57.3201 L 583.201,-56.9132 L 583.831,-56.3633 L 584.333,-55.6945 L 584.685,-54.9359 L 584.871,-54.1207
 L 584.9,-53.6413 L 584.9,-22 L 584.813,-21.1684 L 584.554,-20.373 L 584.136,-19.6489 L 583.577,-19.0274
 L 582.9,-18.5359 L 582.136,-18.1958 L 580.9,-18 z
M 22,-18 L 20.7639,-18.1958 L 20,-18.5359 L 19.3235,-19.0274 L 18.7639,-19.6489 L 18.3458,-20.373
 L 18.0874,-21.1684 L 18,-22 L 18,-52.9455 L 18.0288,-53.4249 L 18.2153,-54.2401 L 18.5672,-54.9987
 L 19.0691,-55.6676 L 19.6991,-56.2175 L 20.4296,-56.6243 L 21.2288,-56.8705 L 22.0617,-56.945 L 22.8919,-56.8448
 L 23.6831,-56.5741 L 90.398,-25.6286 L 91.066,-25.2361 L 91.6874,-24.6765 L 92.1789,-24 L 92.5191,-23.2361
 L 92.6929,-22.4181 L 92.6929,-21.5819 L 92.5191,-20.7639 L 92.1789,-20 L 91.6874,-19.3235 L 91.066,-18.7639
 L 90.3418,-18.3458 L 89.5465,-18.0874 L 88.7148,-18 z
M 659.285,-18 L 658.454,-18.0874 L 657.658,-18.3458 L 656.934,-18.7639 L 656.313,-19.3235 L 655.821,-20
 L 655.481,-20.7639 L 655.307,-21.5819 L 655.307,-22.4181 L 655.481,-23.2361 L 655.821,-24 L 656.313,-24.6765
 L 656.934,-25.2361 L 657.602,-25.6286 L 724.317,-56.5741 L 725.108,-56.8448 L 725.938,-56.945 L 726.771,-56.8705
 L 727.57,-56.6243 L 728.301,-56.2175 L 728.931,-55.6676 L 729.433,-54.9987 L 729.785,-54.2401 L 729.971,-53.4249
 L 730,-52.9455 L 730,-22 L 729.913,-21.1684 L 729.654,-20.373 L 729.236,-19.6489 L 728.677,-19.0274
 L 728,-18.5359 L 727.236,-18.1958 L 726,-18 z
M 361.333,-18 L 360.561,-18.075 L 359.762,-18.3212 L 359.032,-18.728 L 358.402,-19.2779 L 357.9,-19.9468
 L 357.548,-20.7054 L 357.361,-21.5206 L 357.349,-22.3567 L 357.51,-23.1772 L 357.838,-23.9463 L 358.319,-24.6303
 L 358.932,-25.1994 L 359.65,-25.6286 L 372.317,-31.5043 L 373.229,-31.8007 L 374.062,-31.8752 L 374.892,-31.775
 L 375.683,-31.5043 L 388.35,-25.6286 L 389.018,-25.2361 L 389.64,-24.6765 L 390.131,-24 L 390.472,-23.2361
 L 390.645,-22.4181 L 390.645,-21.5819 L 390.472,-20.7639 L 390.131,-20 L 389.64,-19.3235 L 389.018,-18.7639
 L 388.294,-18.3458 L 387.499,-18.0874 L 386.667,-18 z
" stroke="black" fill="lightgray" stroke-width="0.5"/>
</svg>
