<?xml version="1.0" standalone="no"?>
<!DOCTYPE svg PUBLIC "-//W3C//DTD SVG 1.1//EN" "http://www.w3.org/Graphics/SVG/1.1/DTD/svg11.dtd">
<svg width="994mm" height="80mm" viewBox="0 -80 994 80" xmlns="http://www.w3.org/2000/svg" version="1.1">
<title>OpenSCAD Model</title>
<path d="
M 994,-80 L 0,-80 L 0,-0 L 4.95,-0 L 4.95,-6 L 5.00572,-6.53017
 L 5.17046,-7.03717 L 5.437,-7.49884 L 5.79372,-7.895 L 6.22499,-8.20836 L 6.71201,-8.42519 L 7.23344,-8.53603
 L 7.76654,-8.53603 L 8.28798,-8.42519 L 8.77499,-8.20836 L 9.20627,-7.895 L 9.56299,-7.49884 L 9.82953,-7.03717
 L 9.99426,-6.53017 L 10.05,-6 L 10.05,-0 L 200.75,-0 L 200.75,-6 L 200.806,-6.53017
 L 200.97,-7.03717 L 201.237,-7.49884 L 201.594,-7.895 L 202.025,-8.20836 L 202.512,-8.42519 L 203.033,-8.53603
 L 203.567,-8.53603 L 204.088,-8.42519 L 204.575,-8.20836 L 205.006,-7.895 L 205.363,-7.49884 L 205.63,-7.03717
 L 205.794,-6.53017 L 205.85,-6 L 205.85,-0 L 396.55,-0 L 396.55,-6 L 396.606,-6.53017
 L 396.77,-7.03717 L 397.037,-7.49884 L 397.394,-7.895 L 397.825,-8.20836 L 398.312,-8.42519 L 398.833,-8.53603
 L 399.367,-8.53603 L 399.888,-8.42519 L 400.375,-8.20836 L 400.806,-7.895 L 401.163,-7.49884 L 401.43,-7.03717
 L 401.594,-6.53017 L 401.65,-6 L 401.65,-0 L 592.35,-0 L 592.35,-6 L 592.406,-6.53017
 L 592.57,-7.03717 L 592.837,-7.49884 L 593.194,-7.895 L 593.625,-8.20836 L 594.112,-8.42519 L 594.633,-8.53603
 L 595.167,-8.53603 L 595.688,-8.42519 L 596.175,-8.20836 L 596.606,-7.895 L 596.963,-7.49884 L 597.23,-7.03717
 L 597.394,-6.53017 L 597.45,-6 L 597.45,-0 L 788.15,-0 L 788.15,-6 L 788.206,-6.53017
 L 788.37,-7.03717 L 788.637,-7.49884 L 788.994,-7.895 L 789.425,-8.20836 L 789.912,-8.42519 L 790.433,-8.53603
 L 790.967,-8.53603 L 791.488,-8.42519 L 791.975,-8.20836 L 792.406,-7.895 L 792.763,-7.49884 L 793.03,-7.03717
 L 793.194,-6.53017 L 793.25,-6 L 793.25,-0 L 983.95,-0 L 983.95,-6 L 984.006,-6.53017
 L 984.17,-7.03717 L 984.437,-7.49884 L 984.794,-7.895 L 985.225,-8.20836 L 985.712,-8.42519 L 986.233,-8.53603
 L 986.767,-8.53603 L 987.288,-8.42519 L 987.775,-8.20836 L 988.206,-7.895 L 988.563,-7.49884 L 988.83,-7.03717
 L 988.994,-6.53017 L 989.05,-6 L 989.05,-0 L 994,-0 z
M 6.98573,-55.607 L 6.47708,-55.6875 L 5.97964,-55.8208 L 5.49887,-56.0054 L 5.04001,-56.2392 L 4.60811,-56.5196
 L 4.20789,-56.8437 L 3.84373,-57.2079 L 3.51964,-57.6081 L 3.23917,-58.04 L 3.00537,-58.4989 L 2.82082,-58.9796
 L 2.68752,-59.4771 L 2.60696,-59.9857 L 2.58,-60.5 L 2.60696,-61.0143 L 2.68752,-61.5229 L 2.82082,-62.0204
 L 3.00537,-62.5011 L 3.23917,-62.96 L 3.51964,-63.3919 L 3.84373,-63.7921 L 4.20789,-64.1563 L 4.60811,-64.4804
 L 4.95001,-64.7024 L 4.95001,-74 L 5.00574,-74.5302 L 5.17047,-75.0372 L 5.43701,-75.4988 L 5.79373,-75.895
 L 6.22501,-76.2084 L 6.71202,-76.4252 L 7.23346,-76.536 L 7.76654,-76.536 L 8.28798,-76.4252 L 8.77499,-76.2084
 L 9.20627,-75.895 L 9.56299,-75.4988 L 9.82953,-75.0372 L 9.99426,-74.5302 L 10.05,-74 L 10.05,-64.7024
 L 10.3919,-64.4804 L 10.7921,-64.1563 L 11.1563,-63.7921 L 11.4804,-63.3919 L 11.7608,-62.96 L 11.9946,-62.5011
 L 12.1792,-62.0204 L 12.3125,-61.5229 L 12.393,-61.0143 L 12.42,-60.5 L 12.393,-59.9857 L 12.3125,-59.4771
 L 12.1792,-58.9796 L 11.9946,-58.4989 L 11.7608,-58.04 L 11.4804,-57.6081 L 11.1563,-57.2079 L 10.7921,-56.8437
 L 10.3919,-56.5196 L 9.95999,-56.2392 L 9.50113,-56.0054 L 9.02036,-55.8208 L 8.52292,-55.6875 L 8.01427,-55.607
 L 7.5,-55.58 z
M 202.786,-55.607 L 202.277,-55.6875 L 201.78,-55.8208 L 201.299,-56.0054 L 200.84,-56.2392 L 200.408,-56.5196
 L 200.008,-56.8437 L 199.644,-57.2079 L 199.32,-57.6081 L 199.039,-58.04 L 198.805,-58.4989 L 198.621,-58.9796
 L 198.488,-59.4771 L 198.407,-59.9857 L 198.38,-60.5 L 198.407,-61.0143 L 198.488,-61.5229 L 198.621,-62.0204
 L 198.805,-62.5011 L 199.039,-62.96 L 199.32,-63.3919 L 199.644,-63.7921 L 200.008,-64.1563 L 200.408,-64.4804
 L 200.75,-64.7024 L 200.75,-74 L 200.806,-74.5302 L 200.97,-75.0372 L 201.237,-75.4988 L 201.594,-75.895
 L 202.025,-76.2084 L 202.512,-76.4252 L 203.033,-76.536 L 203.567,-76.536 L 204.088,-76.4252 L 204.575,-76.2084
 L 205.006,-75.895 L 205.363,-75.4988 L 205.63,-75.0372 L 205.794,-74.5302 L 205.85,-74 L 205.85,-64.7024
 L 206.192,-64.4804 L 206.592,-64.1563 L 206.956,-63.7921 L 207.28,-63.3919 L 207.561,-62.96 L 207.795,-62.5011
 L 207.979,-62.0204 L 208.112,-61.5229 L 208.193,-61.0143 L 208.22,-60.5 L 208.193,-59.9857 L 208.112,-59.4771
 L 207.979,-58.9796 L 207.795,-58.4989 L 207.561,-58.04 L 207.28,-57.6081 L 206.956,-57.2079 L 206.592,-56.8437
 L 206.192,-56.5196 L 205.76,-56.2392 L 205.301,-56.0054 L 204.82,-55.8208 L 204.323,-55.6875 L 203.814,-55.607
 L 203.3,-55.58 z
M 398.586,-55.607 L 398.077,-55.6875 L 397.58,-55.8208 L 397.099,-56.0054 L 396.64,-56.2392 L 396.208,-56.5196
 L 395.808,-56.8437 L 395.444,-57.2079 L 395.12,-57.6081 L 394.839,-58.04 L 394.605,-58.4989 L 394.421,-58.9796
 L 394.288,-59.4771 L 394.207,-59.9857 L 394.18,-60.5 L 394.207,-61.0143 L 394.288,-61.5229 L 394.421,-62.0204
 L 394.605,-62.5011 L 394.839,-62.96 L 395.12,-63.3919 L 395.444,-63.7921 L 395.808,-64.1563 L 396.208,-64.4804
 L 396.55,-64.7024 L 396.55,-74 L 396.606,-74.5302 L 396.77,-75.0372 L 397.037,-75.4988 L 397.394,-75.895
 L 397.825,-76.2084 L 398.312,-76.4252 L 398.833,-76.536 L 399.367,-76.536 L 399.888,-76.4252 L 400.375,-76.2084
 L 400.806,-75.895 L 401.163,-75.4988 L 401.43,-75.0372 L 401.594,-74.5302 L 401.65,-74 L 401.65,-64.7024
 L 401.992,-64.4804 L 402.392,-64.1563 L 402.756,-63.7921 L 403.08,-63.3919 L 403.361,-62.96 L 403.595,-62.5011
 L 403.779,-62.0204 L 403.912,-61.5229 L 403.993,-61.0143 L 404.02,-60.5 L 403.993,-59.9857 L 403.912,-59.4771
 L 403.779,-58.9796 L 403.595,-58.4989 L 403.361,-58.04 L 403.08,-57.6081 L 402.756,-57.2079 L 402.392,-56.8437
 L 401.992,-56.5196 L 401.56,-56.2392 L 401.101,-56.0054 L 400.62,-55.8208 L 400.123,-55.6875 L 399.614,-55.607
 L 399.1,-55.58 z
M 594.386,-55.607 L 593.877,-55.6875 L 593.38,-55.8208 L 592.899,-56.0054 L 592.44,-56.2392 L 592.008,-56.5196
 L 591.608,-56.8437 L 591.244,-57.2079 L 590.92,-57.6081 L 590.639,-58.04 L 590.405,-58.4989 L 590.221,-58.9796
 L 590.088,-59.4771 L 590.007,-59.9857 L 589.98,-60.5 L 590.007,-61.0143 L 590.088,-61.5229 L 590.221,-62.0204
 L 590.405,-62.5011 L 590.639,-62.96 L 590.92,-63.3919 L 591.244,-63.7921 L 591.608,-64.1563 L 592.008,-64.4804
 L 592.35,-64.7024 L 592.35,-74 L 592.406,-74.5302 L 592.57,-75.0372 L 592.837,-75.4988 L 593.194,-75.895
 L 593.625,-76.2084 L 594.112,-76.4252 L 594.633,-76.536 L 595.167,-76.536 L 595.688,-76.4252 L 596.175,-76.2084
 L 596.606,-75.895 L 596.963,-75.4988 L 597.23,-75.0372 L 597.394,-74.5302 L 597.45,-74 L 597.45,-64.7024
 L 597.792,-64.4804 L 598.192,-64.1563 L 598.556,-63.7921 L 598.88,-63.3919 L 599.161,-62.96 L 599.395,-62.5011
 L 599.579,-62.0204 L 599.712,-61.5229 L 599.793,-61.0143 L 599.82,-60.5 L 599.793,-59.9857 L 599.712,-59.4771
 L 599.579,-58.9796 L 599.395,-58.4989 L 599.161,-58.04 L 598.88,-57.6081 L 598.556,-57.2079 L 598.192,-56.8437
 L 597.792,-56.5196 L 597.36,-56.2392 L 596.901,-56.0054 L 596.42,-55.8208 L 595.923,-55.6875 L 595.414,-55.607
 L 594.9,-55.58 z
M 790.186,-55.607 L 789.677,-55.6875 L 789.18,-55.8208 L 788.699,-56.0054 L 788.24,-56.2392 L 787.808,-56.5196
 L 787.408,-56.8437 L 787.044,-57.2079 L 786.72,-57.6081 L 786.439,-58.04 L 786.205,-58.4989 L 786.021,-58.9796
 L 785.888,-59.4771 L 785.807,-59.9857 L 785.78,-60.5 L 785.807,-61.0143 L 785.888,-61.5229 L 786.021,-62.0204
 L 786.205,-62.5011 L 786.439,-62.96 L 786.72,-63.3919 L 787.044,-63.7921 L 787.408,-64.1563 L 787.808,-64.4804
 L 788.15,-64.7024 L 788.15,-74 L 788.206,-74.5302 L 788.37,-75.0372 L 788.637,-75.4988 L 788.994,-75.895
 L 789.425,-76.2084 L 789.912,-76.4252 L 790.433,-76.536 L 790.967,-76.536 L 791.488,-76.4252 L 791.975,-76.2084
 L 792.406,-75.895 L 792.763,-75.4988 L 793.03,-75.0372 L 793.194,-74.5302 L 793.25,-74 L 793.25,-64.7024
 L 793.592,-64.4804 L 793.992,-64.1563 L 794.356,-63.7921 L 794.68,-63.3919 L 794.961,-62.96 L 795.195,-62.5011
 L 795.379,-62.0204 L 795.512,-61.5229 L 795.593,-61.0143 L 795.62,-60.5 L 795.593,-59.9857 L 795.512,-59.4771
 L 795.379,-58.9796 L 795.195,-58.4989 L 794.961,-58.04 L 794.68,-57.6081 L 794.356,-57.2079 L 793.992,-56.8437
 L 793.592,-56.5196 L 793.16,-56.2392 L 792.701,-56.0054 L 792.22,-55.8208 L 791.723,-55.6875 L 791.214,-55.607
 L 790.7,-55.58 z
M 985.986,-55.607 L 985.477,-55.6875 L 984.98,-55.8208 L 984.499,-56.0054 L 984.04,-56.2392 L 983.608,-56.5196
 L 983.208,-56.8437 L 982.844,-57.2079 L 982.52,-57.6081 L 982.239,-58.04 L 982.005,-58.4989 L 981.821,-58.9796
 L 981.688,-59.4771 L 981.607,-59.9857 L 981.58,-60.5 L 981.607,-61.0143 L 981.688,-61.5229 L 981.821,-62.0204
 L 982.005,-62.5011 L 982.239,-62.96 L 982.52,-63.3919 L 982.844,-63.7921 L 983.208,-64.1563 L 983.608,-64.4804
 L 983.95,-64.7024 L 983.95,-74 L 984.006,-74.5302 L 984.17,-75.0372 L 984.437,-75.4988 L 984.794,-75.895
 L 985.225,-76.2084 L 985.712,-76.4252 L 986.233,-76.536 L 986.767,-76.536 L 987.288,-76.4252 L 987.775,-76.2084
 L 988.206,-75.895 L 988.563,-75.4988 L 988.83,-75.0372 L 988.994,-74.5302 L 989.05,-74 L 989.05,-64.7024
 L 989.392,-64.4804 L 989.792,-64.1563 L 990.156,-63.7921 L 990.48,-63.3919 L 990.761,-62.96 L 990.995,-62.5011
 L 991.179,-62.0204 L 991.312,-61.5229 L 991.393,-61.0143 L 991.42,-60.5 L 991.393,-59.9857 L 991.312,-59.4771
 L 991.179,-58.9796 L 990.995,-58.4989 L 990.761,-58.04 L 990.48,-57.6081 L 990.156,-57.2079 L 989.792,-56.8437
 L 989.392,-56.5196 L 988.96,-56.2392 L 988.501,-56.0054 L 988.02,-55.8208 L 987.523,-55.6875 L 987.014,-55.607
 L 986.5,-55.58 z
M 496.502,-47.6732 L 495.688,-47.8635 L 477.381,-54.2214 L 476.342,-54.7639 L 475.72,-55.3235 L 475.229,-56
 L 474.889,-56.7639 L 474.715,-57.5819 L 474.715,-58.4181 L 474.889,-59.2361 L 475.229,-60 L 475.72,-60.6765
 L 476.342,-61.2361 L 477.066,-61.6542 L 477.861,-61.9126 L 478.693,-62 L 515.307,-62 L 516.466,-61.8283
 L 517.237,-61.5036 L 517.923,-61.0258 L 518.495,-60.4157 L 518.928,-59.7001 L 519.202,-58.9101 L 519.306,-58.0804
 L 519.235,-57.2472 L 518.993,-56.4468 L 518.59,-55.7144 L 518.043,-55.0818 L 517.376,-54.5768 L 516.619,-54.2214
 L 498.312,-47.8635 L 497.338,-47.6564 z
M 385.602,-20.3048 L 384.788,-20.4951 L 287.676,-54.2214 L 286.637,-54.7639 L 286.015,-55.3235 L 285.524,-56
 L 285.184,-56.7639 L 285.01,-57.5819 L 285.01,-58.4181 L 285.184,-59.2361 L 285.524,-60 L 286.015,-60.6765
 L 286.637,-61.2361 L 287.361,-61.6542 L 288.156,-61.9126 L 288.988,-62 L 386.1,-62 L 387.336,-61.8042
 L 388.1,-61.4641 L 388.777,-60.9726 L 389.336,-60.3511 L 389.754,-59.627 L 390.013,-58.8316 L 390.1,-58
 L 390.1,-24.2737 L 389.995,-23.3636 L 389.721,-22.5736 L 389.288,-21.858 L 388.716,-21.2479 L 388.03,-20.7701
 L 387.259,-20.4454 L 386.438,-20.288 z
M 802.541,-20.4454 L 801.77,-20.7701 L 801.084,-21.2479 L 800.512,-21.858 L 800.079,-22.5736 L 799.805,-23.3636
 L 799.7,-24.2737 L 799.7,-58 L 799.787,-58.8316 L 800.046,-59.627 L 800.464,-60.3511 L 801.023,-60.9726
 L 801.7,-61.4641 L 802.464,-61.8042 L 803.7,-62 L 900.812,-62 L 901.644,-61.9126 L 902.439,-61.6542
 L 903.163,-61.2361 L 903.785,-60.6765 L 904.276,-60 L 904.616,-59.2361 L 904.79,-58.4181 L 904.79,-57.5819
 L 904.616,-56.7639 L 904.276,-56 L 903.785,-55.3235 L 903.163,-54.7639 L 902.124,-54.2214 L 805.012,-20.4951
 L 804.198,-20.3048 L 803.362,-20.288 z
M 189.802,-20.3048 L 188.988,-20.4951 L 91.8758,-54.2214 L 90.8369,-54.7639 L 90.2155,-55.3235 L 89.724,-56
 L 89.3838,-56.7639 L 89.21,-57.5819 L 89.21,-58.4181 L 89.3838,-59.2361 L 89.724,-60 L 90.2155,-60.6765
 L 90.8369,-61.2361 L 91.5611,-61.6542 L 92.3564,-61.9126 L 93.188,-62 L 190.3,-62 L 191.536,-61.8042
 L 192.3,-61.4641 L 192.977,-60.9726 L 193.536,-60.3511 L 193.954,-59.627 L 194.213,-58.8316 L 194.3,-58
 L 194.3,-24.2737 L 194.195,-23.3636 L 193.921,-22.5736 L 193.488,-21.858 L 192.916,-21.2479 L 192.23,-20.7701
 L 191.459,-20.4454 L 190.638,-20.288 z
M 606.741,-20.4454 L 605.97,-20.7701 L 605.284,-21.2479 L 604.712,-21.858 L 604.279,-22.5736 L 604.005,-23.3636
 L 603.9,-24.2737 L 603.9,-58 L 603.987,-58.8316 L 604.246,-59.627 L 604.664,-60.3511 L 605.223,-60.9726
 L 605.9,-61.4641 L 606.664,-61.8042 L 607.9,-62 L 705.012,-62 L 705.844,-61.9126 L 706.639,-61.6542
 L 707.363,-61.2361 L 707.985,-60.6765 L 708.476,-60 L 708.816,-59.2361 L 708.99,-58.4181 L 708.99,-57.5819
 L 708.816,-56.7639 L 708.476,-56 L 707.985,-55.3235 L 707.363,-54.7639 L 706.324,-54.2214 L 609.212,-20.4951
 L 608.398,-20.3048 L 607.562,-20.288 z
M 411.682,-18.1789 L 410.864,-18.3527 L 410.1,-18.6929 L 409.423,-19.1844 L 408.864,-19.8058 L 408.446,-20.53
 L 408.187,-21.3253 L 408.1,-22.157 L 408.1,-57.843 L 408.205,-58.7532 L 408.479,-59.5431 L 408.912,-60.2588
 L 409.484,-60.8688 L 410.17,-61.3466 L 410.941,-61.6714 L 411.762,-61.8287 L 412.598,-61.8119 L 413.412,-61.6217
 L 464.79,-43.7786 L 465.407,-43.5036 L 466.094,-43.0258 L 466.666,-42.4157 L 467.098,-41.7001 L 467.373,-40.9101
 L 467.477,-40.0804 L 467.406,-39.2472 L 467.164,-38.4468 L 466.76,-37.7144 L 466.213,-37.0818 L 465.547,-36.5768
 L 464.79,-36.2214 L 413.412,-18.3783 L 412.518,-18.1789 z
M 581.402,-18.1881 L 580.588,-18.3783 L 529.21,-36.2214 L 528.592,-36.4964 L 527.906,-36.9742 L 527.334,-37.5843
 L 526.902,-38.2999 L 526.627,-39.0899 L 526.523,-39.9196 L 526.594,-40.7528 L 526.836,-41.5532 L 527.24,-42.2856
 L 527.787,-42.9182 L 528.453,-43.4232 L 529.21,-43.7786 L 580.588,-61.6217 L 581.482,-61.8212 L 582.318,-61.8212
 L 583.136,-61.6473 L 583.9,-61.3072 L 584.577,-60.8156 L 585.136,-60.1942 L 585.554,-59.47 L 585.813,-58.6747
 L 585.9,-57.8431 L 585.9,-22.1569 L 585.795,-21.2468 L 585.521,-20.4569 L 585.088,-19.7412 L 584.516,-19.1312
 L 583.83,-18.6533 L 583.059,-18.3286 L 582.238,-18.1712 z
M 216.3,-18 L 215.064,-18.1958 L 214.3,-18.5359 L 213.623,-19.0274 L 213.064,-19.6489 L 212.646,-20.373
 L 212.387,-21.1684 L 212.3,-22 L 212.3,-55.7263 L 212.405,-56.6364 L 212.679,-57.4264 L 213.112,-58.142
 L 213.684,-58.7521 L 214.37,-59.2299 L 215.141,-59.5546 L 215.962,-59.712 L 216.798,-59.6952 L 217.612,-59.5049
 L 314.724,-25.7786 L 315.763,-25.2361 L 316.384,-24.6765 L 316.876,-24 L 317.216,-23.2361 L 317.39,-22.4181
 L 317.39,-21.5819 L 317.216,-20.7639 L 316.876,-20 L 316.384,-19.3235 L 315.763,-18.7639 L 315.039,-18.3458
 L 314.244,-18.0874 L 313.412,-18 z
M 680.588,-18 L 679.756,-18.0874 L 678.961,-18.3458 L 678.237,-18.7639 L 677.615,-19.3235 L 677.124,-20
 L 676.784,-20.7639 L 676.61,-21.5819 L 676.61,-22.4181 L 676.784,-23.2361 L 677.124,-24 L 677.615,-24.6765
 L 678.237,-25.2361 L 679.276,-25.7786 L 776.388,-59.5049 L 777.202,-59.6952 L 778.038,-59.712 L 778.859,-59.5546
 L 779.63,-59.2299 L 780.316,-58.7521 L 780.888,-58.142 L 781.321,-57.4264 L 781.595,-56.6364 L 781.7,-55.7263
 L 781.7,-22 L 781.613,-21.1684 L 781.354,-20.373 L 780.936,-19.6489 L 780.377,-19.0274 L 779.7,-18.5359
 L 778.936,-18.1958 L 777.7,-18 z
M 22,-18 L 20.7639,-18.1958 L 20,-18.5359 L 19.3235,-19.0274 L 18.7639,-19.6489 L 18.3458,-20.373
 L 18.0874,-21.1684 L 18,-22 L 18,-55.2054 L 18.1049,-56.1155 L 18.3793,-56.9054 L 18.8118,-57.6211
 L 19.3838,-58.2311 L 20.07,-58.709 L 20.8407,-59.0337 L 21.6619,-59.1911 L 22.498,-59.1742 L 23.3123,-58.984
 L 118.924,-25.7786 L 119.963,-25.2361 L 120.585,-24.6765 L 121.076,-24 L 121.416,-23.2361 L 121.59,-22.4181
 L 121.59,-21.5819 L 121.416,-20.7639 L 121.076,-20 L 120.585,-19.3235 L 119.963,-18.7639 L 119.239,-18.3458
 L 118.444,-18.0874 L 117.612,-18 z
M 876.388,-18 L 875.556,-18.0874 L 874.761,-18.3458 L 874.037,-18.7639 L 873.415,-19.3235 L 872.924,-20
 L 872.584,-20.7639 L 872.41,-21.5819 L 872.41,-22.4181 L 872.584,-23.2361 L 872.924,-24 L 873.415,-24.6765
 L 874.037,-25.2361 L 875.076,-25.7786 L 970.688,-58.984 L 971.502,-59.1742 L 972.338,-59.1911 L 973.159,-59.0337
 L 973.93,-58.709 L 974.616,-58.2311 L 975.188,-57.6211 L 975.621,-56.9054 L 975.895,-56.1155 L 976,-55.2054
 L 976,-22 L 975.913,-21.1684 L 975.654,-20.373 L 975.236,-19.6489 L 974.677,-19.0274 L 974,-18.5359
 L 973.236,-18.1958 L 972,-18 z
M 478.693,-18 L 477.534,-18.1717 L 476.763,-18.4964 L 476.077,-18.9742 L 475.505,-19.5843 L 475.072,-20.2999
 L 474.798,-21.0899 L 474.694,-21.9196 L 474.765,-22.7528 L 475.007,-23.5532 L 475.41,-24.2856 L 475.957,-24.9182
 L 476.624,-25.4232 L 477.381,-25.7786 L 495.688,-32.1365 L 496.662,-32.3436 L 497.498,-32.3268 L 498.312,-32.1365
 L 516.619,-25.7786 L 517.658,-25.2361 L 518.279,-24.6765 L 518.771,-24 L 519.111,-23.2361 L 519.285,-22.4181
 L 519.285,-21.5819 L 519.111,-20.7639 L 518.771,-20 L 518.279,-19.3235 L 517.658,-18.7639 L 516.934,-18.3458
 L 516.139,-18.0874 L 515.307,-18 z
" stroke="black" fill="lightgray" stroke-width="0.5"/>
</svg>
