<?xml version="1.0" standalone="no"?>
<!DOCTYPE svg PUBLIC "-//W3C//DTD SVG 1.1//EN" "http://www.w3.org/Graphics/SVG/1.1/DTD/svg11.dtd">
<svg width="850mm" height="80mm" viewBox="0 -80 850 80" xmlns="http://www.w3.org/2000/svg" version="1.1">
<title>OpenSCAD Model</title>
<path d="
M 850,-80 L 0,-80 L 0,-0 L 4.95,-0 L 4.95,-6 L 5.00572,-6.53017
 L 5.17046,-7.03717 L 5.437,-7.49884 L 5.79372,-7.895 L 6.22499,-8.20836 L 6.71201,-8.42519 L 7.23344,-8.53603
 L 7.76654,-8.53603 L 8.28798,-8.42519 L 8.77499,-8.20836 L 9.20627,-7.895 L 9.56299,-7.49884 L 9.82953,-7.03717
 L 9.99426,-6.53017 L 10.05,-6 L 10.05,-0 L 171.95,-0 L 171.95,-6 L 172.006,-6.53017
 L 172.17,-7.03717 L 172.437,-7.49884 L 172.794,-7.895 L 173.225,-8.20836 L 173.712,-8.42519 L 174.233,-8.53603
 L 174.767,-8.53603 L 175.288,-8.42519 L 175.775,-8.20836 L 176.206,-7.895 L 176.563,-7.49884 L 176.83,-7.03717
 L 176.994,-6.53017 L 177.05,-6 L 177.05,-0 L 338.95,-0 L 338.95,-6 L 339.006,-6.53017
 L 339.17,-7.03717 L 339.437,-7.49884 L 339.794,-7.895 L 340.225,-8.20836 L 340.712,-8.42519 L 341.233,-8.53603
 L 341.767,-8.53603 L 342.288,-8.42519 L 342.775,-8.20836 L 343.206,-7.895 L 343.563,-7.49884 L 343.83,-7.03717
 L 343.994,-6.53017 L 344.05,-6 L 344.05,-0 L 505.95,-0 L 505.95,-6 L 506.006,-6.53017
 L 506.17,-7.03717 L 506.437,-7.49884 L 506.794,-7.895 L 507.225,-8.20836 L 507.712,-8.42519 L 508.233,-8.53603
 L 508.767,-8.53603 L 509.288,-8.42519 L 509.775,-8.20836 L 510.206,-7.895 L 510.563,-7.49884 L 510.83,-7.03717
 L 510.994,-6.53017 L 511.05,-6 L 511.05,-0 L 672.95,-0 L 672.95,-6 L 673.006,-6.53017
 L 673.17,-7.03717 L 673.437,-7.49884 L 673.794,-7.895 L 674.225,-8.20836 L 674.712,-8.42519 L 675.233,-8.53603
 L 675.767,-8.53603 L 676.288,-8.42519 L 676.775,-8.20836 L 677.206,-7.895 L 677.563,-7.49884 L 677.83,-7.03717
 L 677.994,-6.53017 L 678.05,-6 L 678.05,-0 L 839.95,-0 L 839.95,-6 L 840.006,-6.53017
 L 840.17,-7.03717 L 840.437,-7.49884 L 840.794,-7.895 L 841.225,-8.20836 L 841.712,-8.42519 L 842.233,-8.53603
 L 842.767,-8.53603 L 843.288,-8.42519 L 843.775,-8.20836 L 844.206,-7.895 L 844.563,-7.49884 L 844.83,-7.03717
 L 844.994,-6.53017 L 845.05,-6 L 845.05,-0 L 850,-0 z
M 6.98573,-55.607 L 6.47708,-55.6875 L 5.97964,-55.8208 L 5.49887,-56.0054 L 5.04001,-56.2392 L 4.60811,-56.5196
 L 4.20789,-56.8437 L 3.84373,-57.2079 L 3.51964,-57.6081 L 3.23917,-58.04 L 3.00537,-58.4989 L 2.82082,-58.9796
 L 2.68752,-59.4771 L 2.60696,-59.9857 L 2.58,-60.5 L 2.60696,-61.0143 L 2.68752,-61.5229 L 2.82082,-62.0204
 L 3.00537,-62.5011 L 3.23917,-62.96 L 3.51964,-63.3919 L 3.84373,-63.7921 L 4.20789,-64.1563 L 4.60811,-64.4804
 L 4.95001,-64.7024 L 4.95001,-74 L 5.00574,-74.5302 L 5.17047,-75.0372 L 5.43701,-75.4988 L 5.79373,-75.895
 L 6.22501,-76.2084 L 6.71202,-76.4252 L 7.23346,-76.536 L 7.76654,-76.536 L 8.28798,-76.4252 L 8.77499,-76.2084
 L 9.20627,-75.895 L 9.56299,-75.4988 L 9.82953,-75.0372 L 9.99426,-74.5302 L 10.05,-74 L 10.05,-64.7024
 L 10.3919,-64.4804 L 10.7921,-64.1563 L 11.1563,-63.7921 L 11.4804,-63.3919 L 11.7608,-62.96 L 11.9946,-62.5011
 L 12.1792,-62.0204 L 12.3125,-61.5229 L 12.393,-61.0143 L 12.42,-60.5 L 12.393,-59.9857 L 12.3125,-59.4771
 L 12.1792,-58.9796 L 11.9946,-58.4989 L 11.7608,-58.04 L 11.4804,-57.6081 L 11.1563,-57.2079 L 10.7921,-56.8437
 L 10.3919,-56.5196 L 9.95999,-56.2392 L 9.50113,-56.0054 L 9.02036,-55.8208 L 8.52292,-55.6875 L 8.01427,-55.607
 L 7.5,-55.58 z
M 173.986,-55.607 L 173.477,-55.6875 L 172.98,-55.8208 L 172.499,-56.0054 L 172.04,-56.2392 L 171.608,-56.5196
 L 171.208,-56.8437 L 170.844,-57.2079 L 170.52,-57.6081 L 170.239,-58.04 L 170.005,-58.4989 L 169.821,-58.9796
 L 169.688,-59.4771 L 169.607,-59.9857 L 169.58,-60.5 L 169.607,-61.0143 L 169.688,-61.5229 L 169.821,-62.0204
 L 170.005,-62.5011 L 170.239,-62.96 L 170.52,-63.3919 L 170.844,-63.7921 L 171.208,-64.1563 L 171.608,-64.4804
 L 171.95,-64.7024 L 171.95,-74 L 172.006,-74.5302 L 172.17,-75.0372 L 172.437,-75.4988 L 172.794,-75.895
 L 173.225,-76.2084 L 173.712,-76.4252 L 174.233,-76.536 L 174.767,-76.536 L 175.288,-76.4252 L 175.775,-76.2084
 L 176.206,-75.895 L 176.563,-75.4988 L 176.83,-75.0372 L 176.994,-74.5302 L 177.05,-74 L 177.05,-64.7024
 L 177.392,-64.4804 L 177.792,-64.1563 L 178.156,-63.7921 L 178.48,-63.3919 L 178.761,-62.96 L 178.995,-62.5011
 L 179.179,-62.0204 L 179.312,-61.5229 L 179.393,-61.0143 L 179.42,-60.5 L 179.393,-59.9857 L 179.312,-59.4771
 L 179.179,-58.9796 L 178.995,-58.4989 L 178.761,-58.04 L 178.48,-57.6081 L 178.156,-57.2079 L 177.792,-56.8437
 L 177.392,-56.5196 L 176.96,-56.2392 L 176.501,-56.0054 L 176.02,-55.8208 L 175.523,-55.6875 L 175.014,-55.607
 L 174.5,-55.58 z
M 340.986,-55.607 L 340.477,-55.6875 L 339.98,-55.8208 L 339.499,-56.0054 L 339.04,-56.2392 L 338.608,-56.5196
 L 338.208,-56.8437 L 337.844,-57.2079 L 337.52,-57.6081 L 337.239,-58.04 L 337.005,-58.4989 L 336.821,-58.9796
 L 336.688,-59.4771 L 336.607,-59.9857 L 336.58,-60.5 L 336.607,-61.0143 L 336.688,-61.5229 L 336.821,-62.0204
 L 337.005,-62.5011 L 337.239,-62.96 L 337.52,-63.3919 L 337.844,-63.7921 L 338.208,-64.1563 L 338.608,-64.4804
 L 338.95,-64.7024 L 338.95,-74 L 339.006,-74.5302 L 339.17,-75.0372 L 339.437,-75.4988 L 339.794,-75.895
 L 340.225,-76.2084 L 340.712,-76.4252 L 341.233,-76.536 L 341.767,-76.536 L 342.288,-76.4252 L 342.775,-76.2084
 L 343.206,-75.895 L 343.563,-75.4988 L 343.83,-75.0372 L 343.994,-74.5302 L 344.05,-74 L 344.05,-64.7024
 L 344.392,-64.4804 L 344.792,-64.1563 L 345.156,-63.7921 L 345.48,-63.3919 L 345.761,-62.96 L 345.995,-62.5011
 L 346.179,-62.0204 L 346.312,-61.5229 L 346.393,-61.0143 L 346.42,-60.5 L 346.393,-59.9857 L 346.312,-59.4771
 L 346.179,-58.9796 L 345.995,-58.4989 L 345.761,-58.04 L 345.48,-57.6081 L 345.156,-57.2079 L 344.792,-56.8437
 L 344.392,-56.5196 L 343.96,-56.2392 L 343.501,-56.0054 L 343.02,-55.8208 L 342.523,-55.6875 L 342.014,-55.607
 L 341.5,-55.58 z
M 507.986,-55.607 L 507.477,-55.6875 L 506.98,-55.8208 L 506.499,-56.0054 L 506.04,-56.2392 L 505.608,-56.5196
 L 505.208,-56.8437 L 504.844,-57.2079 L 504.52,-57.6081 L 504.239,-58.04 L 504.005,-58.4989 L 503.821,-58.9796
 L 503.688,-59.4771 L 503.607,-59.9857 L 503.58,-60.5 L 503.607,-61.0143 L 503.688,-61.5229 L 503.821,-62.0204
 L 504.005,-62.5011 L 504.239,-62.96 L 504.52,-63.3919 L 504.844,-63.7921 L 505.208,-64.1563 L 505.608,-64.4804
 L 505.95,-64.7024 L 505.95,-74 L 506.006,-74.5302 L 506.17,-75.0372 L 506.437,-75.4988 L 506.794,-75.895
 L 507.225,-76.2084 L 507.712,-76.4252 L 508.233,-76.536 L 508.767,-76.536 L 509.288,-76.4252 L 509.775,-76.2084
 L 510.206,-75.895 L 510.563,-75.4988 L 510.83,-75.0372 L 510.994,-74.5302 L 511.05,-74 L 511.05,-64.7024
 L 511.392,-64.4804 L 511.792,-64.1563 L 512.156,-63.7921 L 512.48,-63.3919 L 512.761,-62.96 L 512.995,-62.5011
 L 513.179,-62.0204 L 513.312,-61.5229 L 513.393,-61.0143 L 513.42,-60.5 L 513.393,-59.9857 L 513.312,-59.4771
 L 513.179,-58.9796 L 512.995,-58.4989 L 512.761,-58.04 L 512.48,-57.6081 L 512.156,-57.2079 L 511.792,-56.8437
 L 511.392,-56.5196 L 510.96,-56.2392 L 510.501,-56.0054 L 510.02,-55.8208 L 509.523,-55.6875 L 509.014,-55.607
 L 508.5,-55.58 z
M 674.986,-55.607 L 674.477,-55.6875 L 673.98,-55.8208 L 673.499,-56.0054 L 673.04,-56.2392 L 672.608,-56.5196
 L 672.208,-56.8437 L 671.844,-57.2079 L 671.52,-57.6081 L 671.239,-58.04 L 671.005,-58.4989 L 670.821,-58.9796
 L 670.688,-59.4771 L 670.607,-59.9857 L 670.58,-60.5 L 670.607,-61.0143 L 670.688,-61.5229 L 670.821,-62.0204
 L 671.005,-62.5011 L 671.239,-62.96 L 671.52,-63.3919 L 671.844,-63.7921 L 672.208,-64.1563 L 672.608,-64.4804
 L 672.95,-64.7024 L 672.95,-74 L 673.006,-74.5302 L 673.17,-75.0372 L 673.437,-75.4988 L 673.794,-75.895
 L 674.225,-76.2084 L 674.712,-76.4252 L 675.233,-76.536 L 675.767,-76.536 L 676.288,-76.4252 L 676.775,-76.2084
 L 677.206,-75.895 L 677.563,-75.4988 L 677.83,-75.0372 L 677.994,-74.5302 L 678.05,-74 L 678.05,-64.7024
 L 678.392,-64.4804 L 678.792,-64.1563 L 679.156,-63.7921 L 679.48,-63.3919 L 679.761,-62.96 L 679.995,-62.5011
 L 680.179,-62.0204 L 680.312,-61.5229 L 680.393,-61.0143 L 680.42,-60.5 L 680.393,-59.9857 L 680.312,-59.4771
 L 680.179,-58.9796 L 679.995,-58.4989 L 679.761,-58.04 L 679.48,-57.6081 L 679.156,-57.2079 L 678.792,-56.8437
 L 678.392,-56.5196 L 677.96,-56.2392 L 677.501,-56.0054 L 677.02,-55.8208 L 676.523,-55.6875 L 676.014,-55.607
 L 675.5,-55.58 z
M 841.986,-55.607 L 841.477,-55.6875 L 840.98,-55.8208 L 840.499,-56.0054 L 840.04,-56.2392 L 839.608,-56.5196
 L 839.208,-56.8437 L 838.844,-57.2079 L 838.52,-57.6081 L 838.239,-58.04 L 838.005,-58.4989 L 837.821,-58.9796
 L 837.688,-59.4771 L 837.607,-59.9857 L 837.58,-60.5 L 837.607,-61.0143 L 837.688,-61.5229 L 837.821,-62.0204
 L 838.005,-62.5011 L 838.239,-62.96 L 838.52,-63.3919 L 838.844,-63.7921 L 839.208,-64.1563 L 839.608,-64.4804
 L 839.95,-64.7024 L 839.95,-74 L 840.006,-74.5302 L 840.17,-75.0372 L 840.437,-75.4988 L 840.794,-75.895
 L 841.225,-76.2084 L 841.712,-76.4252 L 842.233,-76.536 L 842.767,-76.536 L 843.288,-76.4252 L 843.775,-76.2084
 L 844.206,-75.895 L 844.563,-75.4988 L 844.83,-75.0372 L 844.994,-74.5302 L 845.05,-74 L 845.05,-64.7024
 L 845.392,-64.4804 L 845.792,-64.1563 L 846.156,-63.7921 L 846.48,-63.3919 L 846.761,-62.96 L 846.995,-62.5011
 L 847.179,-62.0204 L 847.312,-61.5229 L 847.393,-61.0143 L 847.42,-60.5 L 847.393,-59.9857 L 847.312,-59.4771
 L 847.179,-58.9796 L 846.995,-58.4989 L 846.761,-58.04 L 846.48,-57.6081 L 846.156,-57.2079 L 845.792,-56.8437
 L 845.392,-56.5196 L 844.96,-56.2392 L 844.501,-56.0054 L 844.02,-55.8208 L 843.523,-55.6875 L 843.014,-55.607
 L 842.5,-55.58 z
M 424.295,-47.9335 L 423.492,-48.1661 L 408.439,-54.2953 L 407.596,-54.7639 L 406.975,-55.3235 L 406.483,-56
 L 406.143,-56.7639 L 405.969,-57.5819 L 405.969,-58.4181 L 406.143,-59.2361 L 406.483,-60 L 406.975,-60.6765
 L 407.596,-61.2361 L 408.32,-61.6542 L 409.116,-61.9126 L 409.947,-62 L 440.053,-62 L 441.01,-61.8838
 L 441.796,-61.5999 L 442.507,-61.1587 L 443.11,-60.5795 L 443.579,-59.8875 L 443.895,-59.113 L 444.042,-58.2899
 L 444.015,-57.4541 L 443.815,-56.6421 L 443.451,-55.8895 L 442.938,-55.2292 L 442.298,-54.6899 L 441.561,-54.2953
 L 426.508,-48.1661 L 425.957,-47.987 L 425.129,-47.8729 z
M 327.795,-21.3852 L 326.992,-21.6179 L 246.739,-54.2953 L 245.897,-54.7639 L 245.275,-55.3235 L 244.784,-56
 L 244.444,-56.7639 L 244.27,-57.5819 L 244.27,-58.4181 L 244.444,-59.2361 L 244.784,-60 L 245.275,-60.6765
 L 245.897,-61.2361 L 246.621,-61.6542 L 247.416,-61.9126 L 248.248,-62 L 328.5,-62 L 329.736,-61.8042
 L 330.5,-61.4641 L 331.177,-60.9726 L 331.736,-60.3511 L 332.154,-59.627 L 332.413,-58.8316 L 332.5,-58
 L 332.5,-25.3225 L 332.342,-24.2095 L 332.027,-23.4351 L 331.557,-22.7431 L 330.954,-22.1638 L 330.244,-21.7226
 L 329.457,-21.4387 L 328.629,-21.3246 z
M 687.543,-21.4387 L 686.756,-21.7226 L 686.046,-22.1638 L 685.443,-22.7431 L 684.973,-23.4351 L 684.658,-24.2095
 L 684.5,-25.3225 L 684.5,-58 L 684.587,-58.8316 L 684.846,-59.627 L 685.264,-60.3511 L 685.823,-60.9726
 L 686.5,-61.4641 L 687.264,-61.8042 L 688.5,-62 L 768.752,-62 L 769.584,-61.9126 L 770.379,-61.6542
 L 771.103,-61.2361 L 771.725,-60.6765 L 772.216,-60 L 772.556,-59.2361 L 772.73,-58.4181 L 772.73,-57.5819
 L 772.556,-56.7639 L 772.216,-56 L 771.725,-55.3235 L 771.103,-54.7639 L 770.261,-54.2953 L 690.008,-21.6179
 L 689.205,-21.3852 L 688.371,-21.3246 z
M 160.795,-21.3852 L 159.992,-21.6179 L 79.7395,-54.2953 L 78.8968,-54.7639 L 78.2754,-55.3235 L 77.7839,-56
 L 77.4437,-56.7639 L 77.2699,-57.5819 L 77.2699,-58.4181 L 77.4437,-59.2361 L 77.7839,-60 L 78.2754,-60.6765
 L 78.8968,-61.2361 L 79.621,-61.6542 L 80.4163,-61.9126 L 81.248,-62 L 161.5,-62 L 162.736,-61.8042
 L 163.5,-61.4641 L 164.177,-60.9726 L 164.736,-60.3511 L 165.154,-59.627 L 165.413,-58.8316 L 165.5,-58
 L 165.5,-25.3225 L 165.342,-24.2095 L 165.027,-23.4351 L 164.557,-22.7431 L 163.954,-22.1638 L 163.244,-21.7226
 L 162.457,-21.4387 L 161.629,-21.3246 z
M 520.543,-21.4387 L 519.756,-21.7226 L 519.046,-22.1638 L 518.443,-22.7431 L 517.973,-23.4351 L 517.658,-24.2095
 L 517.5,-25.3225 L 517.5,-58 L 517.587,-58.8316 L 517.846,-59.627 L 518.264,-60.3511 L 518.823,-60.9726
 L 519.5,-61.4641 L 520.264,-61.8042 L 521.5,-62 L 601.752,-62 L 602.584,-61.9126 L 603.379,-61.6542
 L 604.103,-61.2361 L 604.725,-60.6765 L 605.216,-60 L 605.556,-59.2361 L 605.73,-58.4181 L 605.73,-57.5819
 L 605.556,-56.7639 L 605.216,-56 L 604.725,-55.3235 L 604.103,-54.7639 L 603.261,-54.2953 L 523.008,-21.6179
 L 522.205,-21.3852 L 521.371,-21.3246 z
M 354.082,-19.1861 L 353.264,-19.36 L 352.5,-19.7001 L 351.823,-20.1916 L 351.264,-20.8131 L 350.846,-21.5373
 L 350.587,-22.3326 L 350.5,-23.1642 L 350.5,-56.8358 L 350.658,-57.9488 L 350.973,-58.7233 L 351.443,-59.4152
 L 352.046,-59.9945 L 352.756,-60.4357 L 353.543,-60.7196 L 354.371,-60.8337 L 355.205,-60.7731 L 356.008,-60.5404
 L 397.355,-43.7047 L 398.301,-43.1587 L 398.904,-42.5795 L 399.373,-41.8875 L 399.689,-41.113 L 399.836,-40.2899
 L 399.809,-39.4541 L 399.609,-38.6421 L 399.245,-37.8895 L 398.732,-37.2292 L 398.092,-36.6899 L 397.355,-36.2953
 L 356.008,-19.4596 L 354.918,-19.1861 z
M 494.795,-19.2269 L 493.992,-19.4595 L 452.645,-36.2953 L 451.699,-36.8413 L 451.096,-37.4205 L 450.627,-38.1125
 L 450.311,-38.887 L 450.164,-39.7101 L 450.191,-40.5459 L 450.391,-41.3579 L 450.755,-42.1105 L 451.268,-42.7708
 L 451.907,-43.3101 L 452.645,-43.7047 L 493.992,-60.5405 L 495.082,-60.8139 L 495.918,-60.8139 L 496.736,-60.64
 L 497.5,-60.2999 L 498.177,-59.8084 L 498.736,-59.1869 L 499.154,-58.4628 L 499.413,-57.6674 L 499.5,-56.8358
 L 499.5,-23.1642 L 499.342,-22.0512 L 499.027,-21.2767 L 498.557,-20.5847 L 497.954,-20.0055 L 497.244,-19.5643
 L 496.457,-19.2804 L 495.629,-19.1663 z
M 187.5,-18 L 186.264,-18.1958 L 185.5,-18.5359 L 184.823,-19.0274 L 184.264,-19.6489 L 183.846,-20.373
 L 183.587,-21.1684 L 183.5,-22 L 183.5,-54.6775 L 183.658,-55.7905 L 183.973,-56.5649 L 184.443,-57.2569
 L 185.046,-57.8362 L 185.756,-58.2774 L 186.543,-58.5613 L 187.371,-58.6754 L 188.205,-58.6148 L 189.008,-58.3821
 L 269.261,-25.7047 L 270.103,-25.2361 L 270.725,-24.6765 L 271.216,-24 L 271.556,-23.2361 L 271.73,-22.4181
 L 271.73,-21.5819 L 271.556,-20.7639 L 271.216,-20 L 270.725,-19.3235 L 270.103,-18.7639 L 269.379,-18.3458
 L 268.584,-18.0874 L 267.752,-18 z
M 582.248,-18 L 581.416,-18.0874 L 580.621,-18.3458 L 579.897,-18.7639 L 579.275,-19.3235 L 578.784,-20
 L 578.444,-20.7639 L 578.27,-21.5819 L 578.27,-22.4181 L 578.444,-23.2361 L 578.784,-24 L 579.275,-24.6765
 L 579.897,-25.2361 L 580.739,-25.7047 L 660.992,-58.3821 L 661.795,-58.6148 L 662.629,-58.6754 L 663.457,-58.5613
 L 664.244,-58.2774 L 664.954,-57.8362 L 665.557,-57.2569 L 666.027,-56.5649 L 666.342,-55.7905 L 666.5,-54.6775
 L 666.5,-22 L 666.413,-21.1684 L 666.154,-20.373 L 665.736,-19.6489 L 665.177,-19.0274 L 664.5,-18.5359
 L 663.736,-18.1958 L 662.5,-18 z
M 22,-18 L 20.7639,-18.1958 L 20,-18.5359 L 19.3235,-19.0274 L 18.7639,-19.6489 L 18.3458,-20.373
 L 18.0874,-21.1684 L 18,-22 L 18,-54.0667 L 18.158,-55.1797 L 18.4733,-55.9542 L 18.9428,-56.6461
 L 19.5459,-57.2254 L 20.2563,-57.6666 L 21.0428,-57.9505 L 21.8712,-58.0646 L 22.7053,-58.004 L 23.5085,-57.7713
 L 102.261,-25.7047 L 103.103,-25.2361 L 103.725,-24.6765 L 104.216,-24 L 104.556,-23.2361 L 104.73,-22.4181
 L 104.73,-21.5819 L 104.556,-20.7639 L 104.216,-20 L 103.725,-19.3235 L 103.103,-18.7639 L 102.379,-18.3458
 L 101.584,-18.0874 L 100.752,-18 z
M 749.248,-18 L 748.416,-18.0874 L 747.621,-18.3458 L 746.897,-18.7639 L 746.275,-19.3235 L 745.784,-20
 L 745.444,-20.7639 L 745.27,-21.5819 L 745.27,-22.4181 L 745.444,-23.2361 L 745.784,-24 L 746.275,-24.6765
 L 746.897,-25.2361 L 747.739,-25.7047 L 826.492,-57.7713 L 827.295,-58.004 L 828.129,-58.0646 L 828.957,-57.9505
 L 829.744,-57.6666 L 830.454,-57.2254 L 831.057,-56.6461 L 831.527,-55.9542 L 831.842,-55.1797 L 832,-54.0667
 L 832,-22 L 831.913,-21.1684 L 831.654,-20.373 L 831.236,-19.6489 L 830.677,-19.0274 L 830,-18.5359
 L 829.236,-18.1958 L 828,-18 z
M 409.947,-18 L 408.99,-18.1162 L 408.204,-18.4001 L 407.493,-18.8413 L 406.89,-19.4205 L 406.421,-20.1125
 L 406.105,-20.887 L 405.958,-21.7101 L 405.985,-22.5459 L 406.185,-23.3579 L 406.549,-24.1105 L 407.062,-24.7708
 L 407.702,-25.3101 L 408.439,-25.7047 L 423.492,-31.8339 L 424.043,-32.013 L 424.871,-32.1271 L 425.705,-32.0665
 L 426.508,-31.8339 L 441.561,-25.7047 L 442.404,-25.2361 L 443.025,-24.6765 L 443.517,-24 L 443.857,-23.2361
 L 444.031,-22.4181 L 444.031,-21.5819 L 443.857,-20.7639 L 443.517,-20 L 443.025,-19.3235 L 442.404,-18.7639
 L 441.68,-18.3458 L 440.884,-18.0874 L 440.053,-18 z
" stroke="black" fill="lightgray" stroke-width="0.5"/>
</svg>
