<?xml version="1.0" standalone="no"?>
<!DOCTYPE svg PUBLIC "-//W3C//DTD SVG 1.1//EN" "http://www.w3.org/Graphics/SVG/1.1/DTD/svg11.dtd">
<svg width="849mm" height="80mm" viewBox="0 -80 849 80" xmlns="http://www.w3.org/2000/svg" version="1.1">
<title>OpenSCAD Model</title>
<path d="
M 849,-80 L 0,-80 L 0,-0 L 4.95,-0 L 4.95,-6 L 5.00572,-6.53017
 L 5.17046,-7.03717 L 5.437,-7.49884 L 5.79372,-7.895 L 6.22499,-8.20836 L 6.71201,-8.42519 L 7.23344,-8.53603
 L 7.76654,-8.53603 L 8.28798,-8.42519 L 8.77499,-8.20836 L 9.20627,-7.895 L 9.56299,-7.49884 L 9.82953,-7.03717
 L 9.99426,-6.53017 L 10.05,-6 L 10.05,-0 L 171.75,-0 L 171.75,-6 L 171.806,-6.53017
 L 171.97,-7.03717 L 172.237,-7.49884 L 172.594,-7.895 L 173.025,-8.20836 L 173.512,-8.42519 L 174.033,-8.53603
 L 174.567,-8.53603 L 175.088,-8.42519 L 175.575,-8.20836 L 176.006,-7.895 L 176.363,-7.49884 L 176.63,-7.03717
 L 176.794,-6.53017 L 176.85,-6 L 176.85,-0 L 338.55,-0 L 338.55,-6 L 338.606,-6.53017
 L 338.77,-7.03717 L 339.037,-7.49884 L 339.394,-7.895 L 339.825,-8.20836 L 340.312,-8.42519 L 340.833,-8.53603
 L 341.367,-8.53603 L 341.888,-8.42519 L 342.375,-8.20836 L 342.806,-7.895 L 343.163,-7.49884 L 343.43,-7.03717
 L 343.594,-6.53017 L 343.65,-6 L 343.65,-0 L 505.35,-0 L 505.35,-6 L 505.406,-6.53017
 L 505.57,-7.03717 L 505.837,-7.49884 L 506.194,-7.895 L 506.625,-8.20836 L 507.112,-8.42519 L 507.633,-8.53603
 L 508.167,-8.53603 L 508.688,-8.42519 L 509.175,-8.20836 L 509.606,-7.895 L 509.963,-7.49884 L 510.23,-7.03717
 L 510.394,-6.53017 L 510.45,-6 L 510.45,-0 L 672.15,-0 L 672.15,-6 L 672.206,-6.53017
 L 672.37,-7.03717 L 672.637,-7.49884 L 672.994,-7.895 L 673.425,-8.20836 L 673.912,-8.42519 L 674.433,-8.53603
 L 674.967,-8.53603 L 675.488,-8.42519 L 675.975,-8.20836 L 676.406,-7.895 L 676.763,-7.49884 L 677.03,-7.03717
 L 677.194,-6.53017 L 677.25,-6 L 677.25,-0 L 838.95,-0 L 838.95,-6 L 839.006,-6.53017
 L 839.17,-7.03717 L 839.437,-7.49884 L 839.794,-7.895 L 840.225,-8.20836 L 840.712,-8.42519 L 841.233,-8.53603
 L 841.767,-8.53603 L 842.288,-8.42519 L 842.775,-8.20836 L 843.206,-7.895 L 843.563,-7.49884 L 843.83,-7.03717
 L 843.994,-6.53017 L 844.05,-6 L 844.05,-0 L 849,-0 z
M 6.98573,-55.607 L 6.47708,-55.6875 L 5.97964,-55.8208 L 5.49887,-56.0054 L 5.04001,-56.2392 L 4.60811,-56.5196
 L 4.20789,-56.8437 L 3.84373,-57.2079 L 3.51964,-57.6081 L 3.23917,-58.04 L 3.00537,-58.4989 L 2.82082,-58.9796
 L 2.68752,-59.4771 L 2.60696,-59.9857 L 2.58,-60.5 L 2.60696,-61.0143 L 2.68752,-61.5229 L 2.82082,-62.0204
 L 3.00537,-62.5011 L 3.23917,-62.96 L 3.51964,-63.3919 L 3.84373,-63.7921 L 4.20789,-64.1563 L 4.60811,-64.4804
 L 4.95001,-64.7024 L 4.95001,-74 L 5.00574,-74.5302 L 5.17047,-75.0372 L 5.43701,-75.4988 L 5.79373,-75.895
 L 6.22501,-76.2084 L 6.71202,-76.4252 L 7.23346,-76.536 L 7.76654,-76.536 L 8.28798,-76.4252 L 8.77499,-76.2084
 L 9.20627,-75.895 L 9.56299,-75.4988 L 9.82953,-75.0372 L 9.99426,-74.5302 L 10.05,-74 L 10.05,-64.7024
 L 10.3919,-64.4804 L 10.7921,-64.1563 L 11.1563,-63.7921 L 11.4804,-63.3919 L 11.7608,-62.96 L 11.9946,-62.5011
 L 12.1792,-62.0204 L 12.3125,-61.5229 L 12.393,-61.0143 L 12.42,-60.5 L 12.393,-59.9857 L 12.3125,-59.4771
 L 12.1792,-58.9796 L 11.9946,-58.4989 L 11.7608,-58.04 L 11.4804,-57.6081 L 11.1563,-57.2079 L 10.7921,-56.8437
 L 10.3919,-56.5196 L 9.95999,-56.2392 L 9.50113,-56.0054 L 9.02036,-55.8208 L 8.52292,-55.6875 L 8.01427,-55.607
 L 7.5,-55.58 z
M 173.786,-55.607 L 173.277,-55.6875 L 172.78,-55.8208 L 172.299,-56.0054 L 171.84,-56.2392 L 171.408,-56.5196
 L 171.008,-56.8437 L 170.644,-57.2079 L 170.32,-57.6081 L 170.039,-58.04 L 169.805,-58.4989 L 169.621,-58.9796
 L 169.488,-59.4771 L 169.407,-59.9857 L 169.38,-60.5 L 169.407,-61.0143 L 169.488,-61.5229 L 169.621,-62.0204
 L 169.805,-62.5011 L 170.039,-62.96 L 170.32,-63.3919 L 170.644,-63.7921 L 171.008,-64.1563 L 171.408,-64.4804
 L 171.75,-64.7024 L 171.75,-74 L 171.806,-74.5302 L 171.97,-75.0372 L 172.237,-75.4988 L 172.594,-75.895
 L 173.025,-76.2084 L 173.512,-76.4252 L 174.033,-76.536 L 174.567,-76.536 L 175.088,-76.4252 L 175.575,-76.2084
 L 176.006,-75.895 L 176.363,-75.4988 L 176.63,-75.0372 L 176.794,-74.5302 L 176.85,-74 L 176.85,-64.7024
 L 177.192,-64.4804 L 177.592,-64.1563 L 177.956,-63.7921 L 178.28,-63.3919 L 178.561,-62.96 L 178.795,-62.5011
 L 178.979,-62.0204 L 179.112,-61.5229 L 179.193,-61.0143 L 179.22,-60.5 L 179.193,-59.9857 L 179.112,-59.4771
 L 178.979,-58.9796 L 178.795,-58.4989 L 178.561,-58.04 L 178.28,-57.6081 L 177.956,-57.2079 L 177.592,-56.8437
 L 177.192,-56.5196 L 176.76,-56.2392 L 176.301,-56.0054 L 175.82,-55.8208 L 175.323,-55.6875 L 174.814,-55.607
 L 174.3,-55.58 z
M 340.586,-55.607 L 340.077,-55.6875 L 339.58,-55.8208 L 339.099,-56.0054 L 338.64,-56.2392 L 338.208,-56.5196
 L 337.808,-56.8437 L 337.444,-57.2079 L 337.12,-57.6081 L 336.839,-58.04 L 336.605,-58.4989 L 336.421,-58.9796
 L 336.288,-59.4771 L 336.207,-59.9857 L 336.18,-60.5 L 336.207,-61.0143 L 336.288,-61.5229 L 336.421,-62.0204
 L 336.605,-62.5011 L 336.839,-62.96 L 337.12,-63.3919 L 337.444,-63.7921 L 337.808,-64.1563 L 338.208,-64.4804
 L 338.55,-64.7024 L 338.55,-74 L 338.606,-74.5302 L 338.77,-75.0372 L 339.037,-75.4988 L 339.394,-75.895
 L 339.825,-76.2084 L 340.312,-76.4252 L 340.833,-76.536 L 341.367,-76.536 L 341.888,-76.4252 L 342.375,-76.2084
 L 342.806,-75.895 L 343.163,-75.4988 L 343.43,-75.0372 L 343.594,-74.5302 L 343.65,-74 L 343.65,-64.7024
 L 343.992,-64.4804 L 344.392,-64.1563 L 344.756,-63.7921 L 345.08,-63.3919 L 345.361,-62.96 L 345.595,-62.5011
 L 345.779,-62.0204 L 345.912,-61.5229 L 345.993,-61.0143 L 346.02,-60.5 L 345.993,-59.9857 L 345.912,-59.4771
 L 345.779,-58.9796 L 345.595,-58.4989 L 345.361,-58.04 L 345.08,-57.6081 L 344.756,-57.2079 L 344.392,-56.8437
 L 343.992,-56.5196 L 343.56,-56.2392 L 343.101,-56.0054 L 342.62,-55.8208 L 342.123,-55.6875 L 341.614,-55.607
 L 341.1,-55.58 z
M 507.386,-55.607 L 506.877,-55.6875 L 506.38,-55.8208 L 505.899,-56.0054 L 505.44,-56.2392 L 505.008,-56.5196
 L 504.608,-56.8437 L 504.244,-57.2079 L 503.92,-57.6081 L 503.639,-58.04 L 503.405,-58.4989 L 503.221,-58.9796
 L 503.088,-59.4771 L 503.007,-59.9857 L 502.98,-60.5 L 503.007,-61.0143 L 503.088,-61.5229 L 503.221,-62.0204
 L 503.405,-62.5011 L 503.639,-62.96 L 503.92,-63.3919 L 504.244,-63.7921 L 504.608,-64.1563 L 505.008,-64.4804
 L 505.35,-64.7024 L 505.35,-74 L 505.406,-74.5302 L 505.57,-75.0372 L 505.837,-75.4988 L 506.194,-75.895
 L 506.625,-76.2084 L 507.112,-76.4252 L 507.633,-76.536 L 508.167,-76.536 L 508.688,-76.4252 L 509.175,-76.2084
 L 509.606,-75.895 L 509.963,-75.4988 L 510.23,-75.0372 L 510.394,-74.5302 L 510.45,-74 L 510.45,-64.7024
 L 510.792,-64.4804 L 511.192,-64.1563 L 511.556,-63.7921 L 511.88,-63.3919 L 512.161,-62.96 L 512.395,-62.5011
 L 512.579,-62.0204 L 512.712,-61.5229 L 512.793,-61.0143 L 512.82,-60.5 L 512.793,-59.9857 L 512.712,-59.4771
 L 512.579,-58.9796 L 512.395,-58.4989 L 512.161,-58.04 L 511.88,-57.6081 L 511.556,-57.2079 L 511.192,-56.8437
 L 510.792,-56.5196 L 510.36,-56.2392 L 509.901,-56.0054 L 509.42,-55.8208 L 508.923,-55.6875 L 508.414,-55.607
 L 507.9,-55.58 z
M 674.186,-55.607 L 673.677,-55.6875 L 673.18,-55.8208 L 672.699,-56.0054 L 672.24,-56.2392 L 671.808,-56.5196
 L 671.408,-56.8437 L 671.044,-57.2079 L 670.72,-57.6081 L 670.439,-58.04 L 670.205,-58.4989 L 670.021,-58.9796
 L 669.888,-59.4771 L 669.807,-59.9857 L 669.78,-60.5 L 669.807,-61.0143 L 669.888,-61.5229 L 670.021,-62.0204
 L 670.205,-62.5011 L 670.439,-62.96 L 670.72,-63.3919 L 671.044,-63.7921 L 671.408,-64.1563 L 671.808,-64.4804
 L 672.15,-64.7024 L 672.15,-74 L 672.206,-74.5302 L 672.37,-75.0372 L 672.637,-75.4988 L 672.994,-75.895
 L 673.425,-76.2084 L 673.912,-76.4252 L 674.433,-76.536 L 674.967,-76.536 L 675.488,-76.4252 L 675.975,-76.2084
 L 676.406,-75.895 L 676.763,-75.4988 L 677.03,-75.0372 L 677.194,-74.5302 L 677.25,-74 L 677.25,-64.7024
 L 677.592,-64.4804 L 677.992,-64.1563 L 678.356,-63.7921 L 678.68,-63.3919 L 678.961,-62.96 L 679.195,-62.5011
 L 679.379,-62.0204 L 679.512,-61.5229 L 679.593,-61.0143 L 679.62,-60.5 L 679.593,-59.9857 L 679.512,-59.4771
 L 679.379,-58.9796 L 679.195,-58.4989 L 678.961,-58.04 L 678.68,-57.6081 L 678.356,-57.2079 L 677.992,-56.8437
 L 677.592,-56.5196 L 677.16,-56.2392 L 676.701,-56.0054 L 676.22,-55.8208 L 675.723,-55.6875 L 675.214,-55.607
 L 674.7,-55.58 z
M 840.986,-55.607 L 840.477,-55.6875 L 839.98,-55.8208 L 839.499,-56.0054 L 839.04,-56.2392 L 838.608,-56.5196
 L 838.208,-56.8437 L 837.844,-57.2079 L 837.52,-57.6081 L 837.239,-58.04 L 837.005,-58.4989 L 836.821,-58.9796
 L 836.688,-59.4771 L 836.607,-59.9857 L 836.58,-60.5 L 836.607,-61.0143 L 836.688,-61.5229 L 836.821,-62.0204
 L 837.005,-62.5011 L 837.239,-62.96 L 837.52,-63.3919 L 837.844,-63.7921 L 838.208,-64.1563 L 838.608,-64.4804
 L 838.95,-64.7024 L 838.95,-74 L 839.006,-74.5302 L 839.17,-75.0372 L 839.437,-75.4988 L 839.794,-75.895
 L 840.225,-76.2084 L 840.712,-76.4252 L 841.233,-76.536 L 841.767,-76.536 L 842.288,-76.4252 L 842.775,-76.2084
 L 843.206,-75.895 L 843.563,-75.4988 L 843.83,-75.0372 L 843.994,-74.5302 L 844.05,-74 L 844.05,-64.7024
 L 844.392,-64.4804 L 844.792,-64.1563 L 845.156,-63.7921 L 845.48,-63.3919 L 845.761,-62.96 L 845.995,-62.5011
 L 846.179,-62.0204 L 846.312,-61.5229 L 846.393,-61.0143 L 846.42,-60.5 L 846.393,-59.9857 L 846.312,-59.4771
 L 846.179,-58.9796 L 845.995,-58.4989 L 845.761,-58.04 L 845.48,-57.6081 L 845.156,-57.2079 L 844.792,-56.8437
 L 844.392,-56.5196 L 843.96,-56.2392 L 843.501,-56.0054 L 843.02,-55.8208 L 842.523,-55.6875 L 842.014,-55.607
 L 841.5,-55.58 z
M 423.793,-47.9359 L 422.99,-48.1689 L 407.961,-54.296 L 407.12,-54.7639 L 406.498,-55.3235 L 406.007,-56
 L 405.667,-56.7639 L 405.493,-57.5819 L 405.493,-58.4181 L 405.667,-59.2361 L 406.007,-60 L 406.498,-60.6765
 L 407.12,-61.2361 L 407.844,-61.6542 L 408.639,-61.9126 L 409.471,-62 L 439.529,-62 L 440.485,-61.8842
 L 441.271,-61.6006 L 441.982,-61.1597 L 442.585,-60.5807 L 443.055,-59.8889 L 443.371,-59.1146 L 443.519,-58.2915
 L 443.492,-57.4557 L 443.292,-56.6437 L 442.928,-55.891 L 442.415,-55.2304 L 441.776,-54.6909 L 441.039,-54.296
 L 426.01,-48.1689 L 425.455,-47.9888 L 424.627,-47.875 z
M 327.393,-21.3944 L 326.59,-21.6274 L 246.456,-54.296 L 245.615,-54.7639 L 244.993,-55.3235 L 244.502,-56
 L 244.162,-56.7639 L 243.988,-57.5819 L 243.988,-58.4181 L 244.162,-59.2361 L 244.502,-60 L 244.993,-60.6765
 L 245.615,-61.2361 L 246.339,-61.6542 L 247.134,-61.9126 L 247.966,-62 L 328.1,-62 L 329.336,-61.8042
 L 330.1,-61.4641 L 330.777,-60.9726 L 331.336,-60.3511 L 331.754,-59.627 L 332.013,-58.8316 L 332.1,-58
 L 332.1,-25.3315 L 331.942,-24.2169 L 331.626,-23.4425 L 331.156,-22.7507 L 330.553,-22.1717 L 329.842,-21.7308
 L 329.055,-21.4473 L 328.227,-21.3335 z
M 686.744,-21.4473 L 685.958,-21.7308 L 685.247,-22.1717 L 684.644,-22.7507 L 684.174,-23.4425 L 683.858,-24.2169
 L 683.7,-25.3315 L 683.7,-58 L 683.787,-58.8316 L 684.046,-59.627 L 684.464,-60.3511 L 685.023,-60.9726
 L 685.7,-61.4641 L 686.464,-61.8042 L 687.7,-62 L 767.834,-62 L 768.666,-61.9126 L 769.461,-61.6542
 L 770.185,-61.2361 L 770.807,-60.6765 L 771.298,-60 L 771.638,-59.2361 L 771.812,-58.4181 L 771.812,-57.5819
 L 771.638,-56.7639 L 771.298,-56 L 770.807,-55.3235 L 770.185,-54.7639 L 769.344,-54.296 L 689.21,-21.6274
 L 688.407,-21.3944 L 687.573,-21.3335 z
M 160.593,-21.3944 L 159.79,-21.6274 L 79.6559,-54.296 L 78.8148,-54.7639 L 78.1934,-55.3235 L 77.7019,-56
 L 77.3617,-56.7639 L 77.1879,-57.5819 L 77.1879,-58.4181 L 77.3617,-59.2361 L 77.7019,-60 L 78.1934,-60.6765
 L 78.8148,-61.2361 L 79.539,-61.6542 L 80.3343,-61.9126 L 81.166,-62 L 161.3,-62 L 162.536,-61.8042
 L 163.3,-61.4641 L 163.977,-60.9726 L 164.536,-60.3511 L 164.954,-59.627 L 165.213,-58.8316 L 165.3,-58
 L 165.3,-25.3315 L 165.142,-24.2169 L 164.826,-23.4425 L 164.356,-22.7507 L 163.753,-22.1717 L 163.042,-21.7308
 L 162.256,-21.4473 L 161.427,-21.3335 z
M 519.944,-21.4473 L 519.158,-21.7308 L 518.447,-22.1717 L 517.844,-22.7507 L 517.374,-23.4425 L 517.058,-24.2169
 L 516.9,-25.3315 L 516.9,-58 L 516.987,-58.8316 L 517.246,-59.627 L 517.664,-60.3511 L 518.223,-60.9726
 L 518.9,-61.4641 L 519.664,-61.8042 L 520.9,-62 L 601.034,-62 L 601.866,-61.9126 L 602.661,-61.6542
 L 603.385,-61.2361 L 604.007,-60.6765 L 604.498,-60 L 604.838,-59.2361 L 605.012,-58.4181 L 605.012,-57.5819
 L 604.838,-56.7639 L 604.498,-56 L 604.007,-55.3235 L 603.385,-54.7639 L 602.544,-54.296 L 522.41,-21.6274
 L 521.607,-21.3944 L 520.773,-21.3335 z
M 353.682,-19.1947 L 352.864,-19.3685 L 352.1,-19.7086 L 351.423,-20.2002 L 350.864,-20.8216 L 350.446,-21.5458
 L 350.187,-22.3411 L 350.1,-23.1727 L 350.1,-56.8273 L 350.258,-57.9418 L 350.574,-58.7162 L 351.044,-59.408
 L 351.647,-59.987 L 352.358,-60.4279 L 353.144,-60.7115 L 353.973,-60.8252 L 354.807,-60.7643 L 355.61,-60.5313
 L 396.886,-43.704 L 397.829,-43.1597 L 398.432,-42.5807 L 398.902,-41.8889 L 399.218,-41.1146 L 399.366,-40.2915
 L 399.339,-39.4557 L 399.139,-38.6437 L 398.775,-37.891 L 398.262,-37.2304 L 397.623,-36.6909 L 396.886,-36.296
 L 355.61,-19.4687 L 354.518,-19.1947 z
M 494.193,-19.2357 L 493.39,-19.4687 L 452.114,-36.296 L 451.171,-36.8403 L 450.568,-37.4193 L 450.098,-38.1111
 L 449.782,-38.8854 L 449.634,-39.7085 L 449.661,-40.5443 L 449.861,-41.3563 L 450.225,-42.109 L 450.738,-42.7696
 L 451.377,-43.3091 L 452.114,-43.704 L 493.39,-60.5313 L 494.482,-60.8054 L 495.318,-60.8054 L 496.136,-60.6315
 L 496.9,-60.2914 L 497.577,-59.7999 L 498.136,-59.1784 L 498.554,-58.4542 L 498.813,-57.6589 L 498.9,-56.8273
 L 498.9,-23.1727 L 498.742,-22.0582 L 498.426,-21.2838 L 497.956,-20.592 L 497.353,-20.013 L 496.642,-19.5721
 L 495.855,-19.2885 L 495.027,-19.1747 z
M 187.3,-18 L 186.064,-18.1958 L 185.3,-18.5359 L 184.623,-19.0274 L 184.064,-19.6489 L 183.646,-20.373
 L 183.387,-21.1684 L 183.3,-22 L 183.3,-54.6685 L 183.458,-55.7831 L 183.774,-56.5575 L 184.244,-57.2493
 L 184.847,-57.8283 L 185.558,-58.2692 L 186.344,-58.5527 L 187.173,-58.6665 L 188.007,-58.6056 L 188.81,-58.3726
 L 268.944,-25.704 L 269.785,-25.2361 L 270.407,-24.6765 L 270.898,-24 L 271.238,-23.2361 L 271.412,-22.4181
 L 271.412,-21.5819 L 271.238,-20.7639 L 270.898,-20 L 270.407,-19.3235 L 269.785,-18.7639 L 269.061,-18.3458
 L 268.266,-18.0874 L 267.434,-18 z
M 581.566,-18 L 580.734,-18.0874 L 579.939,-18.3458 L 579.215,-18.7639 L 578.593,-19.3235 L 578.102,-20
 L 577.762,-20.7639 L 577.588,-21.5819 L 577.588,-22.4181 L 577.762,-23.2361 L 578.102,-24 L 578.593,-24.6765
 L 579.215,-25.2361 L 580.056,-25.704 L 660.19,-58.3726 L 660.993,-58.6056 L 661.827,-58.6665 L 662.656,-58.5527
 L 663.442,-58.2692 L 664.153,-57.8283 L 664.756,-57.2493 L 665.226,-56.5575 L 665.542,-55.7831 L 665.7,-54.6685
 L 665.7,-22 L 665.613,-21.1684 L 665.354,-20.373 L 664.936,-19.6489 L 664.377,-19.0274 L 663.7,-18.5359
 L 662.936,-18.1958 L 661.7,-18 z
M 22,-18 L 20.7639,-18.1958 L 20,-18.5359 L 19.3235,-19.0274 L 18.7639,-19.6489 L 18.3458,-20.373
 L 18.0874,-21.1684 L 18,-22 L 18,-54.057 L 18.1584,-55.1716 L 18.4741,-55.946 L 18.9439,-56.6378
 L 19.5472,-57.2168 L 20.2578,-57.6577 L 21.0445,-57.9412 L 21.8729,-58.055 L 22.7069,-57.9941 L 23.51,-57.761
 L 102.144,-25.704 L 102.985,-25.2361 L 103.607,-24.6765 L 104.098,-24 L 104.438,-23.2361 L 104.612,-22.4181
 L 104.612,-21.5819 L 104.438,-20.7639 L 104.098,-20 L 103.607,-19.3235 L 102.985,-18.7639 L 102.261,-18.3458
 L 101.466,-18.0874 L 100.634,-18 z
M 748.366,-18 L 747.534,-18.0874 L 746.739,-18.3458 L 746.015,-18.7639 L 745.393,-19.3235 L 744.902,-20
 L 744.562,-20.7639 L 744.388,-21.5819 L 744.388,-22.4181 L 744.562,-23.2361 L 744.902,-24 L 745.393,-24.6765
 L 746.015,-25.2361 L 746.856,-25.704 L 825.49,-57.761 L 826.293,-57.9941 L 827.127,-58.055 L 827.956,-57.9412
 L 828.742,-57.6577 L 829.453,-57.2168 L 830.056,-56.6378 L 830.526,-55.946 L 830.842,-55.1716 L 831,-54.057
 L 831,-22 L 830.913,-21.1684 L 830.654,-20.373 L 830.236,-19.6489 L 829.677,-19.0274 L 829,-18.5359
 L 828.236,-18.1958 L 827,-18 z
M 409.471,-18 L 408.515,-18.1158 L 407.729,-18.3994 L 407.018,-18.8403 L 406.415,-19.4193 L 405.945,-20.1111
 L 405.629,-20.8854 L 405.481,-21.7085 L 405.508,-22.5443 L 405.708,-23.3563 L 406.072,-24.109 L 406.585,-24.7696
 L 407.224,-25.3091 L 407.961,-25.704 L 422.99,-31.8311 L 423.544,-32.0112 L 424.373,-32.125 L 425.207,-32.0641
 L 426.01,-31.8311 L 441.039,-25.704 L 441.88,-25.2361 L 442.502,-24.6765 L 442.993,-24 L 443.333,-23.2361
 L 443.507,-22.4181 L 443.507,-21.5819 L 443.333,-20.7639 L 442.993,-20 L 442.502,-19.3235 L 441.88,-18.7639
 L 441.156,-18.3458 L 440.361,-18.0874 L 439.529,-18 z
" stroke="black" fill="lightgray" stroke-width="0.5"/>
</svg>
