<?xml version="1.0" standalone="no"?>
<!DOCTYPE svg PUBLIC "-//W3C//DTD SVG 1.1//EN" "http://www.w3.org/Graphics/SVG/1.1/DTD/svg11.dtd">
<svg width="578mm" height="80mm" viewBox="0 -80 578 80" xmlns="http://www.w3.org/2000/svg" version="1.1">
<title>OpenSCAD Model</title>
<path d="
M 578,-80 L 0,-80 L 0,-0 L 4.95,-0 L 4.95,-6 L 5.00572,-6.53017
 L 5.17046,-7.03717 L 5.437,-7.49884 L 5.79372,-7.895 L 6.22499,-8.20836 L 6.71201,-8.42519 L 7.23344,-8.53603
 L 7.76654,-8.53603 L 8.28798,-8.42519 L 8.77499,-8.20836 L 9.20627,-7.895 L 9.56299,-7.49884 L 9.82953,-7.03717
 L 9.99426,-6.53017 L 10.05,-6 L 10.05,-0 L 145.7,-0 L 145.7,-6 L 145.756,-6.53017
 L 145.92,-7.03717 L 146.187,-7.49884 L 146.544,-7.895 L 146.975,-8.20836 L 147.462,-8.42519 L 147.983,-8.53603
 L 148.517,-8.53603 L 149.038,-8.42519 L 149.525,-8.20836 L 149.956,-7.895 L 150.313,-7.49884 L 150.58,-7.03717
 L 150.744,-6.53017 L 150.8,-6 L 150.8,-0 L 286.45,-0 L 286.45,-6 L 286.506,-6.53017
 L 286.67,-7.03717 L 286.937,-7.49884 L 287.294,-7.895 L 287.725,-8.20836 L 288.212,-8.42519 L 288.733,-8.53603
 L 289.267,-8.53603 L 289.788,-8.42519 L 290.275,-8.20836 L 290.706,-7.895 L 291.063,-7.49884 L 291.33,-7.03717
 L 291.494,-6.53017 L 291.55,-6 L 291.55,-0 L 427.2,-0 L 427.2,-6 L 427.256,-6.53017
 L 427.42,-7.03717 L 427.687,-7.49884 L 428.044,-7.895 L 428.475,-8.20836 L 428.962,-8.42519 L 429.483,-8.53603
 L 430.017,-8.53603 L 430.538,-8.42519 L 431.025,-8.20836 L 431.456,-7.895 L 431.813,-7.49884 L 432.08,-7.03717
 L 432.244,-6.53017 L 432.3,-6 L 432.3,-0 L 567.95,-0 L 567.95,-6 L 568.006,-6.53017
 L 568.17,-7.03717 L 568.437,-7.49884 L 568.794,-7.895 L 569.225,-8.20836 L 569.712,-8.42519 L 570.233,-8.53603
 L 570.767,-8.53603 L 571.288,-8.42519 L 571.775,-8.20836 L 572.206,-7.895 L 572.563,-7.49884 L 572.83,-7.03717
 L 572.994,-6.53017 L 573.05,-6 L 573.05,-0 L 578,-0 z
M 6.98573,-55.607 L 6.47708,-55.6875 L 5.97964,-55.8208 L 5.49887,-56.0054 L 5.04001,-56.2392 L 4.60811,-56.5196
 L 4.20789,-56.8437 L 3.84373,-57.2079 L 3.51964,-57.6081 L 3.23917,-58.04 L 3.00537,-58.4989 L 2.82082,-58.9796
 L 2.68752,-59.4771 L 2.60696,-59.9857 L 2.58,-60.5 L 2.60696,-61.0143 L 2.68752,-61.5229 L 2.82082,-62.0204
 L 3.00537,-62.5011 L 3.23917,-62.96 L 3.51964,-63.3919 L 3.84373,-63.7921 L 4.20789,-64.1563 L 4.60811,-64.4804
 L 4.95001,-64.7024 L 4.95001,-74 L 5.00574,-74.5302 L 5.17047,-75.0372 L 5.43701,-75.4988 L 5.79373,-75.895
 L 6.22501,-76.2084 L 6.71202,-76.4252 L 7.23346,-76.536 L 7.76654,-76.536 L 8.28798,-76.4252 L 8.77499,-76.2084
 L 9.20627,-75.895 L 9.56299,-75.4988 L 9.82953,-75.0372 L 9.99426,-74.5302 L 10.05,-74 L 10.05,-64.7024
 L 10.3919,-64.4804 L 10.7921,-64.1563 L 11.1563,-63.7921 L 11.4804,-63.3919 L 11.7608,-62.96 L 11.9946,-62.5011
 L 12.1792,-62.0204 L 12.3125,-61.5229 L 12.393,-61.0143 L 12.42,-60.5 L 12.393,-59.9857 L 12.3125,-59.4771
 L 12.1792,-58.9796 L 11.9946,-58.4989 L 11.7608,-58.04 L 11.4804,-57.6081 L 11.1563,-57.2079 L 10.7921,-56.8437
 L 10.3919,-56.5196 L 9.95999,-56.2392 L 9.50113,-56.0054 L 9.02036,-55.8208 L 8.52292,-55.6875 L 8.01427,-55.607
 L 7.5,-55.58 z
M 147.736,-55.607 L 147.227,-55.6875 L 146.73,-55.8208 L 146.249,-56.0054 L 145.79,-56.2392 L 145.358,-56.5196
 L 144.958,-56.8437 L 144.594,-57.2079 L 144.27,-57.6081 L 143.989,-58.04 L 143.755,-58.4989 L 143.571,-58.9796
 L 143.438,-59.4771 L 143.357,-59.9857 L 143.33,-60.5 L 143.357,-61.0143 L 143.438,-61.5229 L 143.571,-62.0204
 L 143.755,-62.5011 L 143.989,-62.96 L 144.27,-63.3919 L 144.594,-63.7921 L 144.958,-64.1563 L 145.358,-64.4804
 L 145.7,-64.7024 L 145.7,-74 L 145.756,-74.5302 L 145.92,-75.0372 L 146.187,-75.4988 L 146.544,-75.895
 L 146.975,-76.2084 L 147.462,-76.4252 L 147.983,-76.536 L 148.517,-76.536 L 149.038,-76.4252 L 149.525,-76.2084
 L 149.956,-75.895 L 150.313,-75.4988 L 150.58,-75.0372 L 150.744,-74.5302 L 150.8,-74 L 150.8,-64.7024
 L 151.142,-64.4804 L 151.542,-64.1563 L 151.906,-63.7921 L 152.23,-63.3919 L 152.511,-62.96 L 152.745,-62.5011
 L 152.929,-62.0204 L 153.062,-61.5229 L 153.143,-61.0143 L 153.17,-60.5 L 153.143,-59.9857 L 153.062,-59.4771
 L 152.929,-58.9796 L 152.745,-58.4989 L 152.511,-58.04 L 152.23,-57.6081 L 151.906,-57.2079 L 151.542,-56.8437
 L 151.142,-56.5196 L 150.71,-56.2392 L 150.251,-56.0054 L 149.77,-55.8208 L 149.273,-55.6875 L 148.764,-55.607
 L 148.25,-55.58 z
M 288.486,-55.607 L 287.977,-55.6875 L 287.48,-55.8208 L 286.999,-56.0054 L 286.54,-56.2392 L 286.108,-56.5196
 L 285.708,-56.8437 L 285.344,-57.2079 L 285.02,-57.6081 L 284.739,-58.04 L 284.505,-58.4989 L 284.321,-58.9796
 L 284.188,-59.4771 L 284.107,-59.9857 L 284.08,-60.5 L 284.107,-61.0143 L 284.188,-61.5229 L 284.321,-62.0204
 L 284.505,-62.5011 L 284.739,-62.96 L 285.02,-63.3919 L 285.344,-63.7921 L 285.708,-64.1563 L 286.108,-64.4804
 L 286.45,-64.7024 L 286.45,-74 L 286.506,-74.5302 L 286.67,-75.0372 L 286.937,-75.4988 L 287.294,-75.895
 L 287.725,-76.2084 L 288.212,-76.4252 L 288.733,-76.536 L 289.267,-76.536 L 289.788,-76.4252 L 290.275,-76.2084
 L 290.706,-75.895 L 291.063,-75.4988 L 291.33,-75.0372 L 291.494,-74.5302 L 291.55,-74 L 291.55,-64.7024
 L 291.892,-64.4804 L 292.292,-64.1563 L 292.656,-63.7921 L 292.98,-63.3919 L 293.261,-62.96 L 293.495,-62.5011
 L 293.679,-62.0204 L 293.812,-61.5229 L 293.893,-61.0143 L 293.92,-60.5 L 293.893,-59.9857 L 293.812,-59.4771
 L 293.679,-58.9796 L 293.495,-58.4989 L 293.261,-58.04 L 292.98,-57.6081 L 292.656,-57.2079 L 292.292,-56.8437
 L 291.892,-56.5196 L 291.46,-56.2392 L 291.001,-56.0054 L 290.52,-55.8208 L 290.023,-55.6875 L 289.514,-55.607
 L 289,-55.58 z
M 429.236,-55.607 L 428.727,-55.6875 L 428.23,-55.8208 L 427.749,-56.0054 L 427.29,-56.2392 L 426.858,-56.5196
 L 426.458,-56.8437 L 426.094,-57.2079 L 425.77,-57.6081 L 425.489,-58.04 L 425.255,-58.4989 L 425.071,-58.9796
 L 424.938,-59.4771 L 424.857,-59.9857 L 424.83,-60.5 L 424.857,-61.0143 L 424.938,-61.5229 L 425.071,-62.0204
 L 425.255,-62.5011 L 425.489,-62.96 L 425.77,-63.3919 L 426.094,-63.7921 L 426.458,-64.1563 L 426.858,-64.4804
 L 427.2,-64.7024 L 427.2,-74 L 427.256,-74.5302 L 427.42,-75.0372 L 427.687,-75.4988 L 428.044,-75.895
 L 428.475,-76.2084 L 428.962,-76.4252 L 429.483,-76.536 L 430.017,-76.536 L 430.538,-76.4252 L 431.025,-76.2084
 L 431.456,-75.895 L 431.813,-75.4988 L 432.08,-75.0372 L 432.244,-74.5302 L 432.3,-74 L 432.3,-64.7024
 L 432.642,-64.4804 L 433.042,-64.1563 L 433.406,-63.7921 L 433.73,-63.3919 L 434.011,-62.96 L 434.245,-62.5011
 L 434.429,-62.0204 L 434.562,-61.5229 L 434.643,-61.0143 L 434.67,-60.5 L 434.643,-59.9857 L 434.562,-59.4771
 L 434.429,-58.9796 L 434.245,-58.4989 L 434.011,-58.04 L 433.73,-57.6081 L 433.406,-57.2079 L 433.042,-56.8437
 L 432.642,-56.5196 L 432.21,-56.2392 L 431.751,-56.0054 L 431.27,-55.8208 L 430.773,-55.6875 L 430.264,-55.607
 L 429.75,-55.58 z
M 569.986,-55.607 L 569.477,-55.6875 L 568.98,-55.8208 L 568.499,-56.0054 L 568.04,-56.2392 L 567.608,-56.5196
 L 567.208,-56.8437 L 566.844,-57.2079 L 566.52,-57.6081 L 566.239,-58.04 L 566.005,-58.4989 L 565.821,-58.9796
 L 565.688,-59.4771 L 565.607,-59.9857 L 565.58,-60.5 L 565.607,-61.0143 L 565.688,-61.5229 L 565.821,-62.0204
 L 566.005,-62.5011 L 566.239,-62.96 L 566.52,-63.3919 L 566.844,-63.7921 L 567.208,-64.1563 L 567.608,-64.4804
 L 567.95,-64.7024 L 567.95,-74 L 568.006,-74.5302 L 568.17,-75.0372 L 568.437,-75.4988 L 568.794,-75.895
 L 569.225,-76.2084 L 569.712,-76.4252 L 570.233,-76.536 L 570.767,-76.536 L 571.288,-76.4252 L 571.775,-76.2084
 L 572.206,-75.895 L 572.563,-75.4988 L 572.83,-75.0372 L 572.994,-74.5302 L 573.05,-74 L 573.05,-64.7024
 L 573.392,-64.4804 L 573.792,-64.1563 L 574.156,-63.7921 L 574.48,-63.3919 L 574.761,-62.96 L 574.995,-62.5011
 L 575.179,-62.0204 L 575.312,-61.5229 L 575.393,-61.0143 L 575.42,-60.5 L 575.393,-59.9857 L 575.312,-59.4771
 L 575.179,-58.9796 L 574.995,-58.4989 L 574.761,-58.04 L 574.48,-57.6081 L 574.156,-57.2079 L 573.792,-56.8437
 L 573.392,-56.5196 L 572.96,-56.2392 L 572.501,-56.0054 L 572.02,-55.8208 L 571.523,-55.6875 L 571.014,-55.607
 L 570.5,-55.58 z
M 301.291,-22.7747 L 300.488,-23.0082 L 299.751,-23.4035 L 299.112,-23.9434 L 298.6,-24.6043 L 298.236,-25.3572
 L 298.037,-26.1694 L 298,-26.7113 L 298,-58 L 298.087,-58.8316 L 298.346,-59.627 L 298.764,-60.3511
 L 299.323,-60.9726 L 300,-61.4641 L 300.764,-61.8042 L 302,-62 L 366.763,-62 L 367.595,-61.9126
 L 368.39,-61.6542 L 369.114,-61.2361 L 369.736,-60.6765 L 370.227,-60 L 370.567,-59.2361 L 370.741,-58.4181
 L 370.741,-57.5819 L 370.567,-56.7639 L 370.227,-56 L 369.736,-55.3235 L 369.114,-54.7639 L 368.503,-54.3983
 L 303.74,-23.1096 L 302.953,-22.8265 L 302.125,-22.7132 z
M 275.047,-22.8265 L 274.26,-23.1096 L 209.497,-54.3983 L 208.886,-54.7639 L 208.264,-55.3235 L 207.773,-56
 L 207.433,-56.7639 L 207.259,-57.5819 L 207.259,-58.4181 L 207.433,-59.2361 L 207.773,-60 L 208.264,-60.6765
 L 208.886,-61.2361 L 209.61,-61.6542 L 210.405,-61.9126 L 211.237,-62 L 276,-62 L 277.236,-61.8042
 L 278,-61.4641 L 278.677,-60.9726 L 279.236,-60.3511 L 279.654,-59.627 L 279.913,-58.8316 L 280,-58
 L 280,-26.7113 L 279.963,-26.1694 L 279.764,-25.3572 L 279.4,-24.6043 L 278.888,-23.9434 L 278.249,-23.4035
 L 277.512,-23.0082 L 276.709,-22.7747 L 275.875,-22.7132 z
M 442.041,-22.7747 L 441.238,-23.0082 L 440.501,-23.4035 L 439.862,-23.9434 L 439.35,-24.6043 L 438.986,-25.3572
 L 438.787,-26.1694 L 438.75,-26.7113 L 438.75,-58 L 438.837,-58.8316 L 439.096,-59.627 L 439.514,-60.3511
 L 440.073,-60.9726 L 440.75,-61.4641 L 441.514,-61.8042 L 442.75,-62 L 507.513,-62 L 508.345,-61.9126
 L 509.14,-61.6542 L 509.864,-61.2361 L 510.486,-60.6765 L 510.977,-60 L 511.317,-59.2361 L 511.491,-58.4181
 L 511.491,-57.5819 L 511.317,-56.7639 L 510.977,-56 L 510.486,-55.3235 L 509.864,-54.7639 L 509.253,-54.3983
 L 444.49,-23.1096 L 443.703,-22.8265 L 442.875,-22.7132 z
M 134.297,-22.8265 L 133.51,-23.1096 L 68.7469,-54.3983 L 68.1358,-54.7639 L 67.5144,-55.3235 L 67.0229,-56
 L 66.6827,-56.7639 L 66.5089,-57.5819 L 66.5089,-58.4181 L 66.6827,-59.2361 L 67.0229,-60 L 67.5144,-60.6765
 L 68.1358,-61.2361 L 68.86,-61.6542 L 69.6553,-61.9126 L 70.487,-62 L 135.25,-62 L 136.486,-61.8042
 L 137.25,-61.4641 L 137.927,-60.9726 L 138.486,-60.3511 L 138.904,-59.627 L 139.163,-58.8316 L 139.25,-58
 L 139.25,-26.7113 L 139.213,-26.1694 L 139.014,-25.3572 L 138.65,-24.6043 L 138.138,-23.9434 L 137.499,-23.4035
 L 136.762,-23.0082 L 135.959,-22.7747 L 135.125,-22.7132 z
M 351.987,-18 L 351.155,-18.0874 L 350.36,-18.3458 L 349.636,-18.7639 L 349.014,-19.3235 L 348.523,-20
 L 348.183,-20.7639 L 348.009,-21.5819 L 348.009,-22.4181 L 348.183,-23.2361 L 348.523,-24 L 349.014,-24.6765
 L 349.636,-25.2361 L 350.247,-25.6017 L 415.01,-56.8904 L 415.797,-57.1735 L 416.625,-57.2868 L 417.459,-57.2253
 L 418.262,-56.9918 L 418.999,-56.5965 L 419.638,-56.0566 L 420.15,-55.3957 L 420.514,-54.6428 L 420.713,-53.8306
 L 420.75,-53.2887 L 420.75,-22 L 420.663,-21.1684 L 420.404,-20.373 L 419.986,-19.6489 L 419.427,-19.0274
 L 418.75,-18.5359 L 417.986,-18.1958 L 416.75,-18 z
M 161.25,-18 L 160.014,-18.1958 L 159.25,-18.5359 L 158.573,-19.0274 L 158.014,-19.6489 L 157.596,-20.373
 L 157.337,-21.1684 L 157.25,-22 L 157.25,-53.2887 L 157.287,-53.8306 L 157.486,-54.6428 L 157.85,-55.3957
 L 158.362,-56.0566 L 159.001,-56.5965 L 159.738,-56.9918 L 160.541,-57.2253 L 161.375,-57.2868 L 162.203,-57.1735
 L 162.99,-56.8904 L 227.753,-25.6017 L 228.364,-25.2361 L 228.986,-24.6765 L 229.477,-24 L 229.817,-23.2361
 L 229.991,-22.4181 L 229.991,-21.5819 L 229.817,-20.7639 L 229.477,-20 L 228.986,-19.3235 L 228.364,-18.7639
 L 227.64,-18.3458 L 226.845,-18.0874 L 226.013,-18 z
M 22,-18 L 20.7639,-18.1958 L 20,-18.5359 L 19.3235,-19.0274 L 18.7639,-19.6489 L 18.3458,-20.373
 L 18.0874,-21.1684 L 18,-22 L 18,-52.564 L 18.0369,-53.1059 L 18.2362,-53.9181 L 18.5999,-54.671
 L 19.1123,-55.3319 L 19.7509,-55.8718 L 20.4878,-56.2671 L 21.2907,-56.5006 L 22.1247,-56.5621 L 22.9532,-56.4488
 L 23.7401,-56.1657 L 87.0031,-25.6017 L 87.6142,-25.2361 L 88.2356,-24.6765 L 88.7271,-24 L 89.0672,-23.2361
 L 89.2411,-22.4181 L 89.2411,-21.5819 L 89.0672,-20.7639 L 88.7271,-20 L 88.2356,-19.3235 L 87.6142,-18.7639
 L 86.89,-18.3458 L 86.0947,-18.0874 L 85.263,-18 z
M 492.737,-18 L 491.905,-18.0874 L 491.11,-18.3458 L 490.386,-18.7639 L 489.764,-19.3235 L 489.273,-20
 L 488.933,-20.7639 L 488.759,-21.5819 L 488.759,-22.4181 L 488.933,-23.2361 L 489.273,-24 L 489.764,-24.6765
 L 490.386,-25.2361 L 490.997,-25.6017 L 554.26,-56.1657 L 555.047,-56.4488 L 555.875,-56.5621 L 556.709,-56.5006
 L 557.512,-56.2671 L 558.249,-55.8718 L 558.888,-55.3319 L 559.4,-54.671 L 559.764,-53.9181 L 559.963,-53.1059
 L 560,-52.564 L 560,-22 L 559.913,-21.1684 L 559.654,-20.373 L 559.236,-19.6489 L 558.677,-19.0274
 L 558,-18.5359 L 557.236,-18.1958 L 556,-18 z
" stroke="black" fill="lightgray" stroke-width="0.5"/>
</svg>
