<?xml version="1.0" standalone="no"?>
<!DOCTYPE svg PUBLIC "-//W3C//DTD SVG 1.1//EN" "http://www.w3.org/Graphics/SVG/1.1/DTD/svg11.dtd">
<svg width="626mm" height="80mm" viewBox="0 -80 626 80" xmlns="http://www.w3.org/2000/svg" version="1.1">
<title>OpenSCAD Model</title>
<path d="
M 626,-80 L 0,-80 L 0,-0 L 4.95,-0 L 4.95,-6 L 5.00572,-6.53017
 L 5.17046,-7.03717 L 5.437,-7.49884 L 5.79372,-7.895 L 6.22499,-8.20836 L 6.71201,-8.42519 L 7.23344,-8.53603
 L 7.76654,-8.53603 L 8.28798,-8.42519 L 8.77499,-8.20836 L 9.20627,-7.895 L 9.56299,-7.49884 L 9.82953,-7.03717
 L 9.99426,-6.53017 L 10.05,-6 L 10.05,-0 L 127.15,-0 L 127.15,-6 L 127.206,-6.53017
 L 127.37,-7.03717 L 127.637,-7.49884 L 127.994,-7.895 L 128.425,-8.20836 L 128.912,-8.42519 L 129.433,-8.53603
 L 129.967,-8.53603 L 130.488,-8.42519 L 130.975,-8.20836 L 131.406,-7.895 L 131.763,-7.49884 L 132.03,-7.03717
 L 132.194,-6.53017 L 132.25,-6 L 132.25,-0 L 249.35,-0 L 249.35,-6 L 249.406,-6.53017
 L 249.57,-7.03717 L 249.837,-7.49884 L 250.194,-7.895 L 250.625,-8.20836 L 251.112,-8.42519 L 251.633,-8.53603
 L 252.167,-8.53603 L 252.688,-8.42519 L 253.175,-8.20836 L 253.606,-7.895 L 253.963,-7.49884 L 254.23,-7.03717
 L 254.394,-6.53017 L 254.45,-6 L 254.45,-0 L 371.55,-0 L 371.55,-6 L 371.606,-6.53017
 L 371.77,-7.03717 L 372.037,-7.49884 L 372.394,-7.895 L 372.825,-8.20836 L 373.312,-8.42519 L 373.833,-8.53603
 L 374.367,-8.53603 L 374.888,-8.42519 L 375.375,-8.20836 L 375.806,-7.895 L 376.163,-7.49884 L 376.43,-7.03717
 L 376.594,-6.53017 L 376.65,-6 L 376.65,-0 L 493.75,-0 L 493.75,-6 L 493.806,-6.53017
 L 493.97,-7.03717 L 494.237,-7.49884 L 494.594,-7.895 L 495.025,-8.20836 L 495.512,-8.42519 L 496.033,-8.53603
 L 496.567,-8.53603 L 497.088,-8.42519 L 497.575,-8.20836 L 498.006,-7.895 L 498.363,-7.49884 L 498.63,-7.03717
 L 498.794,-6.53017 L 498.85,-6 L 498.85,-0 L 615.95,-0 L 615.95,-6 L 616.006,-6.53017
 L 616.17,-7.03717 L 616.437,-7.49884 L 616.794,-7.895 L 617.225,-8.20836 L 617.712,-8.42519 L 618.233,-8.53603
 L 618.767,-8.53603 L 619.288,-8.42519 L 619.775,-8.20836 L 620.206,-7.895 L 620.563,-7.49884 L 620.83,-7.03717
 L 620.994,-6.53017 L 621.05,-6 L 621.05,-0 L 626,-0 z
M 6.98573,-55.607 L 6.47708,-55.6875 L 5.97964,-55.8208 L 5.49887,-56.0054 L 5.04001,-56.2392 L 4.60811,-56.5196
 L 4.20789,-56.8437 L 3.84373,-57.2079 L 3.51964,-57.6081 L 3.23917,-58.04 L 3.00537,-58.4989 L 2.82082,-58.9796
 L 2.68752,-59.4771 L 2.60696,-59.9857 L 2.58,-60.5 L 2.60696,-61.0143 L 2.68752,-61.5229 L 2.82082,-62.0204
 L 3.00537,-62.5011 L 3.23917,-62.96 L 3.51964,-63.3919 L 3.84373,-63.7921 L 4.20789,-64.1563 L 4.60811,-64.4804
 L 4.95001,-64.7024 L 4.95001,-74 L 5.00574,-74.5302 L 5.17047,-75.0372 L 5.43701,-75.4988 L 5.79373,-75.895
 L 6.22501,-76.2084 L 6.71202,-76.4252 L 7.23346,-76.536 L 7.76654,-76.536 L 8.28798,-76.4252 L 8.77499,-76.2084
 L 9.20627,-75.895 L 9.56299,-75.4988 L 9.82953,-75.0372 L 9.99426,-74.5302 L 10.05,-74 L 10.05,-64.7024
 L 10.3919,-64.4804 L 10.7921,-64.1563 L 11.1563,-63.7921 L 11.4804,-63.3919 L 11.7608,-62.96 L 11.9946,-62.5011
 L 12.1792,-62.0204 L 12.3125,-61.5229 L 12.393,-61.0143 L 12.42,-60.5 L 12.393,-59.9857 L 12.3125,-59.4771
 L 12.1792,-58.9796 L 11.9946,-58.4989 L 11.7608,-58.04 L 11.4804,-57.6081 L 11.1563,-57.2079 L 10.7921,-56.8437
 L 10.3919,-56.5196 L 9.95999,-56.2392 L 9.50113,-56.0054 L 9.02036,-55.8208 L 8.52292,-55.6875 L 8.01427,-55.607
 L 7.5,-55.58 z
M 129.186,-55.607 L 128.677,-55.6875 L 128.18,-55.8208 L 127.699,-56.0054 L 127.24,-56.2392 L 126.808,-56.5196
 L 126.408,-56.8437 L 126.044,-57.2079 L 125.72,-57.6081 L 125.439,-58.04 L 125.205,-58.4989 L 125.021,-58.9796
 L 124.888,-59.4771 L 124.807,-59.9857 L 124.78,-60.5 L 124.807,-61.0143 L 124.888,-61.5229 L 125.021,-62.0204
 L 125.205,-62.5011 L 125.439,-62.96 L 125.72,-63.3919 L 126.044,-63.7921 L 126.408,-64.1563 L 126.808,-64.4804
 L 127.15,-64.7024 L 127.15,-74 L 127.206,-74.5302 L 127.37,-75.0372 L 127.637,-75.4988 L 127.994,-75.895
 L 128.425,-76.2084 L 128.912,-76.4252 L 129.433,-76.536 L 129.967,-76.536 L 130.488,-76.4252 L 130.975,-76.2084
 L 131.406,-75.895 L 131.763,-75.4988 L 132.03,-75.0372 L 132.194,-74.5302 L 132.25,-74 L 132.25,-64.7024
 L 132.592,-64.4804 L 132.992,-64.1563 L 133.356,-63.7921 L 133.68,-63.3919 L 133.961,-62.96 L 134.195,-62.5011
 L 134.379,-62.0204 L 134.512,-61.5229 L 134.593,-61.0143 L 134.62,-60.5 L 134.593,-59.9857 L 134.512,-59.4771
 L 134.379,-58.9796 L 134.195,-58.4989 L 133.961,-58.04 L 133.68,-57.6081 L 133.356,-57.2079 L 132.992,-56.8437
 L 132.592,-56.5196 L 132.16,-56.2392 L 131.701,-56.0054 L 131.22,-55.8208 L 130.723,-55.6875 L 130.214,-55.607
 L 129.7,-55.58 z
M 251.386,-55.607 L 250.877,-55.6875 L 250.38,-55.8208 L 249.899,-56.0054 L 249.44,-56.2392 L 249.008,-56.5196
 L 248.608,-56.8437 L 248.244,-57.2079 L 247.92,-57.6081 L 247.639,-58.04 L 247.405,-58.4989 L 247.221,-58.9796
 L 247.088,-59.4771 L 247.007,-59.9857 L 246.98,-60.5 L 247.007,-61.0143 L 247.088,-61.5229 L 247.221,-62.0204
 L 247.405,-62.5011 L 247.639,-62.96 L 247.92,-63.3919 L 248.244,-63.7921 L 248.608,-64.1563 L 249.008,-64.4804
 L 249.35,-64.7024 L 249.35,-74 L 249.406,-74.5302 L 249.57,-75.0372 L 249.837,-75.4988 L 250.194,-75.895
 L 250.625,-76.2084 L 251.112,-76.4252 L 251.633,-76.536 L 252.167,-76.536 L 252.688,-76.4252 L 253.175,-76.2084
 L 253.606,-75.895 L 253.963,-75.4988 L 254.23,-75.0372 L 254.394,-74.5302 L 254.45,-74 L 254.45,-64.7024
 L 254.792,-64.4804 L 255.192,-64.1563 L 255.556,-63.7921 L 255.88,-63.3919 L 256.161,-62.96 L 256.395,-62.5011
 L 256.579,-62.0204 L 256.712,-61.5229 L 256.793,-61.0143 L 256.82,-60.5 L 256.793,-59.9857 L 256.712,-59.4771
 L 256.579,-58.9796 L 256.395,-58.4989 L 256.161,-58.04 L 255.88,-57.6081 L 255.556,-57.2079 L 255.192,-56.8437
 L 254.792,-56.5196 L 254.36,-56.2392 L 253.901,-56.0054 L 253.42,-55.8208 L 252.923,-55.6875 L 252.414,-55.607
 L 251.9,-55.58 z
M 373.586,-55.607 L 373.077,-55.6875 L 372.58,-55.8208 L 372.099,-56.0054 L 371.64,-56.2392 L 371.208,-56.5196
 L 370.808,-56.8437 L 370.444,-57.2079 L 370.12,-57.6081 L 369.839,-58.04 L 369.605,-58.4989 L 369.421,-58.9796
 L 369.288,-59.4771 L 369.207,-59.9857 L 369.18,-60.5 L 369.207,-61.0143 L 369.288,-61.5229 L 369.421,-62.0204
 L 369.605,-62.5011 L 369.839,-62.96 L 370.12,-63.3919 L 370.444,-63.7921 L 370.808,-64.1563 L 371.208,-64.4804
 L 371.55,-64.7024 L 371.55,-74 L 371.606,-74.5302 L 371.77,-75.0372 L 372.037,-75.4988 L 372.394,-75.895
 L 372.825,-76.2084 L 373.312,-76.4252 L 373.833,-76.536 L 374.367,-76.536 L 374.888,-76.4252 L 375.375,-76.2084
 L 375.806,-75.895 L 376.163,-75.4988 L 376.43,-75.0372 L 376.594,-74.5302 L 376.65,-74 L 376.65,-64.7024
 L 376.992,-64.4804 L 377.392,-64.1563 L 377.756,-63.7921 L 378.08,-63.3919 L 378.361,-62.96 L 378.595,-62.5011
 L 378.779,-62.0204 L 378.912,-61.5229 L 378.993,-61.0143 L 379.02,-60.5 L 378.993,-59.9857 L 378.912,-59.4771
 L 378.779,-58.9796 L 378.595,-58.4989 L 378.361,-58.04 L 378.08,-57.6081 L 377.756,-57.2079 L 377.392,-56.8437
 L 376.992,-56.5196 L 376.56,-56.2392 L 376.101,-56.0054 L 375.62,-55.8208 L 375.123,-55.6875 L 374.614,-55.607
 L 374.1,-55.58 z
M 495.786,-55.607 L 495.277,-55.6875 L 494.78,-55.8208 L 494.299,-56.0054 L 493.84,-56.2392 L 493.408,-56.5196
 L 493.008,-56.8437 L 492.644,-57.2079 L 492.32,-57.6081 L 492.039,-58.04 L 491.805,-58.4989 L 491.621,-58.9796
 L 491.488,-59.4771 L 491.407,-59.9857 L 491.38,-60.5 L 491.407,-61.0143 L 491.488,-61.5229 L 491.621,-62.0204
 L 491.805,-62.5011 L 492.039,-62.96 L 492.32,-63.3919 L 492.644,-63.7921 L 493.008,-64.1563 L 493.408,-64.4804
 L 493.75,-64.7024 L 493.75,-74 L 493.806,-74.5302 L 493.97,-75.0372 L 494.237,-75.4988 L 494.594,-75.895
 L 495.025,-76.2084 L 495.512,-76.4252 L 496.033,-76.536 L 496.567,-76.536 L 497.088,-76.4252 L 497.575,-76.2084
 L 498.006,-75.895 L 498.363,-75.4988 L 498.63,-75.0372 L 498.794,-74.5302 L 498.85,-74 L 498.85,-64.7024
 L 499.192,-64.4804 L 499.592,-64.1563 L 499.956,-63.7921 L 500.28,-63.3919 L 500.561,-62.96 L 500.795,-62.5011
 L 500.979,-62.0204 L 501.112,-61.5229 L 501.193,-61.0143 L 501.22,-60.5 L 501.193,-59.9857 L 501.112,-59.4771
 L 500.979,-58.9796 L 500.795,-58.4989 L 500.561,-58.04 L 500.28,-57.6081 L 499.956,-57.2079 L 499.592,-56.8437
 L 499.192,-56.5196 L 498.76,-56.2392 L 498.301,-56.0054 L 497.82,-55.8208 L 497.323,-55.6875 L 496.814,-55.607
 L 496.3,-55.58 z
M 617.986,-55.607 L 617.477,-55.6875 L 616.98,-55.8208 L 616.499,-56.0054 L 616.04,-56.2392 L 615.608,-56.5196
 L 615.208,-56.8437 L 614.844,-57.2079 L 614.52,-57.6081 L 614.239,-58.04 L 614.005,-58.4989 L 613.821,-58.9796
 L 613.688,-59.4771 L 613.607,-59.9857 L 613.58,-60.5 L 613.607,-61.0143 L 613.688,-61.5229 L 613.821,-62.0204
 L 614.005,-62.5011 L 614.239,-62.96 L 614.52,-63.3919 L 614.844,-63.7921 L 615.208,-64.1563 L 615.608,-64.4804
 L 615.95,-64.7024 L 615.95,-74 L 616.006,-74.5302 L 616.17,-75.0372 L 616.437,-75.4988 L 616.794,-75.895
 L 617.225,-76.2084 L 617.712,-76.4252 L 618.233,-76.536 L 618.767,-76.536 L 619.288,-76.4252 L 619.775,-76.2084
 L 620.206,-75.895 L 620.563,-75.4988 L 620.83,-75.0372 L 620.994,-74.5302 L 621.05,-74 L 621.05,-64.7024
 L 621.392,-64.4804 L 621.792,-64.1563 L 622.156,-63.7921 L 622.48,-63.3919 L 622.761,-62.96 L 622.995,-62.5011
 L 623.179,-62.0204 L 623.312,-61.5229 L 623.393,-61.0143 L 623.42,-60.5 L 623.393,-59.9857 L 623.312,-59.4771
 L 623.179,-58.9796 L 622.995,-58.4989 L 622.761,-58.04 L 622.48,-57.6081 L 622.156,-57.2079 L 621.792,-56.8437
 L 621.392,-56.5196 L 620.96,-56.2392 L 620.501,-56.0054 L 620.02,-55.8208 L 619.523,-55.6875 L 619.014,-55.607
 L 618.5,-55.58 z
M 311.824,-48.7635 L 311.055,-49.0916 L 301.327,-54.5047 L 300.921,-54.7639 L 300.3,-55.3235 L 299.808,-56
 L 299.468,-56.7639 L 299.294,-57.5819 L 299.294,-58.4181 L 299.468,-59.2361 L 299.808,-60 L 300.3,-60.6765
 L 300.921,-61.2361 L 301.645,-61.6542 L 302.441,-61.9126 L 303.272,-62 L 322.728,-62 L 323.209,-61.971
 L 324.024,-61.7842 L 324.782,-61.4321 L 325.451,-60.9299 L 326.001,-60.2997 L 326.407,-59.569 L 326.653,-58.7697
 L 326.727,-57.9368 L 326.627,-57.1066 L 326.356,-56.3155 L 325.926,-55.598 L 325.357,-54.9855 L 324.673,-54.5047
 L 314.945,-49.0916 L 314.296,-48.8026 L 313.481,-48.6159 L 312.645,-48.6026 z
M 237.724,-24.2861 L 236.955,-24.6141 L 183.24,-54.5047 L 182.834,-54.7639 L 182.212,-55.3235 L 181.721,-56
 L 181.381,-56.7639 L 181.207,-57.5819 L 181.207,-58.4181 L 181.381,-59.2361 L 181.721,-60 L 182.212,-60.6765
 L 182.834,-61.2361 L 183.558,-61.6542 L 184.353,-61.9126 L 185.185,-62 L 238.9,-62 L 240.136,-61.8042
 L 240.9,-61.4641 L 241.577,-60.9726 L 242.136,-60.3511 L 242.554,-59.627 L 242.813,-58.8316 L 242.9,-58
 L 242.9,-28.1094 L 242.825,-27.3397 L 242.579,-26.5404 L 242.173,-25.8097 L 241.623,-25.1795 L 240.954,-24.6773
 L 240.196,-24.3252 L 239.381,-24.1384 L 238.545,-24.1252 z
M 508.819,-24.1384 L 508.004,-24.3252 L 507.245,-24.6773 L 506.577,-25.1795 L 506.027,-25.8097 L 505.621,-26.5404
 L 505.375,-27.3397 L 505.3,-28.1094 L 505.3,-58 L 505.387,-58.8316 L 505.646,-59.627 L 506.064,-60.3511
 L 506.623,-60.9726 L 507.3,-61.4641 L 508.064,-61.8042 L 509.3,-62 L 563.015,-62 L 563.847,-61.9126
 L 564.642,-61.6542 L 565.366,-61.2361 L 565.988,-60.6765 L 566.479,-60 L 566.819,-59.2361 L 566.993,-58.4181
 L 566.993,-57.5819 L 566.819,-56.7639 L 566.479,-56 L 565.988,-55.3235 L 565.366,-54.7639 L 564.96,-54.5047
 L 511.245,-24.6141 L 510.476,-24.2861 L 509.655,-24.1252 z
M 115.524,-24.2861 L 114.755,-24.6141 L 61.0398,-54.5047 L 60.6337,-54.7639 L 60.0122,-55.3235 L 59.5207,-56
 L 59.1806,-56.7639 L 59.0067,-57.5819 L 59.0067,-58.4181 L 59.1806,-59.2361 L 59.5207,-60 L 60.0122,-60.6765
 L 60.6337,-61.2361 L 61.3578,-61.6542 L 62.1532,-61.9126 L 62.9848,-62 L 116.7,-62 L 117.936,-61.8042
 L 118.7,-61.4641 L 119.377,-60.9726 L 119.936,-60.3511 L 120.354,-59.627 L 120.613,-58.8316 L 120.7,-58
 L 120.7,-28.1094 L 120.625,-27.3397 L 120.379,-26.5404 L 119.973,-25.8097 L 119.423,-25.1795 L 118.755,-24.6773
 L 117.996,-24.3252 L 117.181,-24.1384 L 116.345,-24.1252 z
M 386.619,-24.1384 L 385.804,-24.3252 L 385.045,-24.6773 L 384.377,-25.1795 L 383.827,-25.8097 L 383.421,-26.5404
 L 383.175,-27.3397 L 383.1,-28.1094 L 383.1,-58 L 383.187,-58.8316 L 383.446,-59.627 L 383.864,-60.3511
 L 384.423,-60.9726 L 385.1,-61.4641 L 385.864,-61.8042 L 387.1,-62 L 440.815,-62 L 441.647,-61.9126
 L 442.442,-61.6542 L 443.166,-61.2361 L 443.788,-60.6765 L 444.279,-60 L 444.619,-59.2361 L 444.793,-58.4181
 L 444.793,-57.5819 L 444.619,-56.7639 L 444.279,-56 L 443.788,-55.3235 L 443.166,-54.7639 L 442.76,-54.5047
 L 389.045,-24.6141 L 388.276,-24.2861 L 387.455,-24.1252 z
M 264.482,-21.8428 L 263.664,-22.0167 L 262.9,-22.3568 L 262.223,-22.8483 L 261.664,-23.4698 L 261.246,-24.1939
 L 260.987,-24.9892 L 260.9,-25.8209 L 260.9,-54.1791 L 260.975,-54.9488 L 261.221,-55.7481 L 261.627,-56.4788
 L 262.177,-57.109 L 262.845,-57.6112 L 263.604,-57.9633 L 264.419,-58.1501 L 265.255,-58.1633 L 266.076,-58.0024
 L 266.845,-57.6744 L 292.326,-43.4953 L 293.104,-42.9299 L 293.654,-42.2997 L 294.06,-41.569 L 294.306,-40.7697
 L 294.38,-39.9368 L 294.28,-39.1066 L 294.009,-38.3155 L 293.579,-37.598 L 293.01,-36.9855 L 292.326,-36.5047
 L 266.845,-22.3256 L 266.136,-22.0167 L 265.318,-21.8428 z
M 359.924,-21.9976 L 359.155,-22.3256 L 333.674,-36.5047 L 332.896,-37.0701 L 332.346,-37.7003 L 331.94,-38.431
 L 331.694,-39.2303 L 331.62,-40.0632 L 331.72,-40.8934 L 331.991,-41.6845 L 332.421,-42.402 L 332.99,-43.0145
 L 333.674,-43.4953 L 359.155,-57.6744 L 359.864,-57.9834 L 360.682,-58.1572 L 361.518,-58.1572 L 362.336,-57.9834
 L 363.1,-57.6432 L 363.777,-57.1517 L 364.336,-56.5303 L 364.754,-55.8061 L 365.013,-55.0108 L 365.1,-54.1791
 L 365.1,-25.8209 L 365.025,-25.0512 L 364.779,-24.2519 L 364.373,-23.5212 L 363.823,-22.891 L 363.154,-22.3888
 L 362.396,-22.0367 L 361.581,-21.8499 L 360.745,-21.8367 z
M 142.7,-18 L 141.464,-18.1958 L 140.7,-18.5359 L 140.023,-19.0274 L 139.464,-19.6489 L 139.046,-20.373
 L 138.787,-21.1684 L 138.7,-22 L 138.7,-51.8906 L 138.775,-52.6603 L 139.021,-53.4596 L 139.427,-54.1903
 L 139.977,-54.8205 L 140.645,-55.3227 L 141.404,-55.6748 L 142.219,-55.8616 L 143.055,-55.8748 L 143.876,-55.7139
 L 144.645,-55.3859 L 198.36,-25.4953 L 198.766,-25.2361 L 199.388,-24.6765 L 199.879,-24 L 200.219,-23.2361
 L 200.393,-22.4181 L 200.393,-21.5819 L 200.219,-20.7639 L 199.879,-20 L 199.388,-19.3235 L 198.766,-18.7639
 L 198.042,-18.3458 L 197.247,-18.0874 L 196.415,-18 z
M 429.585,-18 L 428.753,-18.0874 L 427.958,-18.3458 L 427.234,-18.7639 L 426.612,-19.3235 L 426.121,-20
 L 425.781,-20.7639 L 425.607,-21.5819 L 425.607,-22.4181 L 425.781,-23.2361 L 426.121,-24 L 426.612,-24.6765
 L 427.234,-25.2361 L 427.64,-25.4953 L 481.355,-55.3859 L 482.124,-55.7139 L 482.945,-55.8748 L 483.781,-55.8616
 L 484.596,-55.6748 L 485.354,-55.3227 L 486.023,-54.8205 L 486.573,-54.1903 L 486.979,-53.4596 L 487.225,-52.6603
 L 487.3,-51.8906 L 487.3,-22 L 487.213,-21.1684 L 486.954,-20.373 L 486.536,-19.6489 L 485.977,-19.0274
 L 485.3,-18.5359 L 484.536,-18.1958 L 483.3,-18 z
M 22,-18 L 20.7639,-18.1958 L 20,-18.5359 L 19.3235,-19.0274 L 18.7639,-19.6489 L 18.3458,-20.373
 L 18.0874,-21.1684 L 18,-22 L 18,-51.0559 L 18.0748,-51.8256 L 18.3206,-52.6249 L 18.7272,-53.3556
 L 19.2768,-53.9858 L 19.9455,-54.488 L 20.704,-54.8401 L 21.5191,-55.0269 L 22.3552,-55.0401 L 23.1758,-54.8792
 L 23.945,-54.5512 L 76.1602,-25.4953 L 76.5663,-25.2361 L 77.1878,-24.6765 L 77.6793,-24 L 78.0194,-23.2361
 L 78.1933,-22.4181 L 78.1933,-21.5819 L 78.0194,-20.7639 L 77.6793,-20 L 77.1878,-19.3235 L 76.5663,-18.7639
 L 75.8421,-18.3458 L 75.0468,-18.0874 L 74.2152,-18 z
M 551.785,-18 L 550.953,-18.0874 L 550.158,-18.3458 L 549.434,-18.7639 L 548.812,-19.3235 L 548.321,-20
 L 547.981,-20.7639 L 547.807,-21.5819 L 547.807,-22.4181 L 547.981,-23.2361 L 548.321,-24 L 548.812,-24.6765
 L 549.434,-25.2361 L 549.84,-25.4953 L 602.055,-54.5512 L 602.824,-54.8792 L 603.645,-55.0401 L 604.481,-55.0269
 L 605.296,-54.8401 L 606.055,-54.488 L 606.723,-53.9858 L 607.273,-53.3556 L 607.679,-52.6249 L 607.925,-51.8256
 L 608,-51.0559 L 608,-22 L 607.913,-21.1684 L 607.654,-20.373 L 607.236,-19.6489 L 606.677,-19.0274
 L 606,-18.5359 L 605.236,-18.1958 L 604,-18 z
M 303.272,-18 L 302.791,-18.029 L 301.976,-18.2158 L 301.218,-18.5679 L 300.549,-19.0701 L 299.999,-19.7003
 L 299.593,-20.431 L 299.347,-21.2303 L 299.273,-22.0632 L 299.373,-22.8934 L 299.644,-23.6845 L 300.074,-24.402
 L 300.643,-25.0145 L 301.327,-25.4953 L 311.055,-30.9084 L 311.704,-31.1974 L 312.519,-31.3841 L 313.355,-31.3974
 L 314.176,-31.2365 L 314.945,-30.9084 L 324.673,-25.4953 L 325.079,-25.2361 L 325.7,-24.6765 L 326.192,-24
 L 326.532,-23.2361 L 326.706,-22.4181 L 326.706,-21.5819 L 326.532,-20.7639 L 326.192,-20 L 325.7,-19.3235
 L 325.079,-18.7639 L 324.355,-18.3458 L 323.559,-18.0874 L 322.728,-18 z
" stroke="black" fill="lightgray" stroke-width="0.5"/>
</svg>
