<?xml version="1.0" standalone="no"?>
<!DOCTYPE svg PUBLIC "-//W3C//DTD SVG 1.1//EN" "http://www.w3.org/Graphics/SVG/1.1/DTD/svg11.dtd">
<svg width="687mm" height="80mm" viewBox="0 -80 687 80" xmlns="http://www.w3.org/2000/svg" version="1.1">
<title>OpenSCAD Model</title>
<path d="
M 687,-80 L 0,-80 L 0,-0 L 4.95,-0 L 4.95,-6 L 5.00572,-6.53017
 L 5.17046,-7.03717 L 5.437,-7.49884 L 5.79372,-7.895 L 6.22499,-8.20836 L 6.71201,-8.42519 L 7.23344,-8.53603
 L 7.76654,-8.53603 L 8.28798,-8.42519 L 8.77499,-8.20836 L 9.20627,-7.895 L 9.56299,-7.49884 L 9.82953,-7.03717
 L 9.99426,-6.53017 L 10.05,-6 L 10.05,-0 L 139.35,-0 L 139.35,-6 L 139.406,-6.53017
 L 139.57,-7.03717 L 139.837,-7.49884 L 140.194,-7.895 L 140.625,-8.20836 L 141.112,-8.42519 L 141.633,-8.53603
 L 142.167,-8.53603 L 142.688,-8.42519 L 143.175,-8.20836 L 143.606,-7.895 L 143.963,-7.49884 L 144.23,-7.03717
 L 144.394,-6.53017 L 144.45,-6 L 144.45,-0 L 273.75,-0 L 273.75,-6 L 273.806,-6.53017
 L 273.97,-7.03717 L 274.237,-7.49884 L 274.594,-7.895 L 275.025,-8.20836 L 275.512,-8.42519 L 276.033,-8.53603
 L 276.567,-8.53603 L 277.088,-8.42519 L 277.575,-8.20836 L 278.006,-7.895 L 278.363,-7.49884 L 278.63,-7.03717
 L 278.794,-6.53017 L 278.85,-6 L 278.85,-0 L 408.15,-0 L 408.15,-6 L 408.206,-6.53017
 L 408.37,-7.03717 L 408.637,-7.49884 L 408.994,-7.895 L 409.425,-8.20836 L 409.912,-8.42519 L 410.433,-8.53603
 L 410.967,-8.53603 L 411.488,-8.42519 L 411.975,-8.20836 L 412.406,-7.895 L 412.763,-7.49884 L 413.03,-7.03717
 L 413.194,-6.53017 L 413.25,-6 L 413.25,-0 L 542.55,-0 L 542.55,-6 L 542.606,-6.53017
 L 542.77,-7.03717 L 543.037,-7.49884 L 543.394,-7.895 L 543.825,-8.20836 L 544.312,-8.42519 L 544.833,-8.53603
 L 545.367,-8.53603 L 545.888,-8.42519 L 546.375,-8.20836 L 546.806,-7.895 L 547.163,-7.49884 L 547.43,-7.03717
 L 547.594,-6.53017 L 547.65,-6 L 547.65,-0 L 676.95,-0 L 676.95,-6 L 677.006,-6.53017
 L 677.17,-7.03717 L 677.437,-7.49884 L 677.794,-7.895 L 678.225,-8.20836 L 678.712,-8.42519 L 679.233,-8.53603
 L 679.767,-8.53603 L 680.288,-8.42519 L 680.775,-8.20836 L 681.206,-7.895 L 681.563,-7.49884 L 681.83,-7.03717
 L 681.994,-6.53017 L 682.05,-6 L 682.05,-0 L 687,-0 z
M 6.98573,-55.607 L 6.47708,-55.6875 L 5.97964,-55.8208 L 5.49887,-56.0054 L 5.04001,-56.2392 L 4.60811,-56.5196
 L 4.20789,-56.8437 L 3.84373,-57.2079 L 3.51964,-57.6081 L 3.23917,-58.04 L 3.00537,-58.4989 L 2.82082,-58.9796
 L 2.68752,-59.4771 L 2.60696,-59.9857 L 2.58,-60.5 L 2.60696,-61.0143 L 2.68752,-61.5229 L 2.82082,-62.0204
 L 3.00537,-62.5011 L 3.23917,-62.96 L 3.51964,-63.3919 L 3.84373,-63.7921 L 4.20789,-64.1563 L 4.60811,-64.4804
 L 4.95001,-64.7024 L 4.95001,-74 L 5.00574,-74.5302 L 5.17047,-75.0372 L 5.43701,-75.4988 L 5.79373,-75.895
 L 6.22501,-76.2084 L 6.71202,-76.4252 L 7.23346,-76.536 L 7.76654,-76.536 L 8.28798,-76.4252 L 8.77499,-76.2084
 L 9.20627,-75.895 L 9.56299,-75.4988 L 9.82953,-75.0372 L 9.99426,-74.5302 L 10.05,-74 L 10.05,-64.7024
 L 10.3919,-64.4804 L 10.7921,-64.1563 L 11.1563,-63.7921 L 11.4804,-63.3919 L 11.7608,-62.96 L 11.9946,-62.5011
 L 12.1792,-62.0204 L 12.3125,-61.5229 L 12.393,-61.0143 L 12.42,-60.5 L 12.393,-59.9857 L 12.3125,-59.4771
 L 12.1792,-58.9796 L 11.9946,-58.4989 L 11.7608,-58.04 L 11.4804,-57.6081 L 11.1563,-57.2079 L 10.7921,-56.8437
 L 10.3919,-56.5196 L 9.95999,-56.2392 L 9.50113,-56.0054 L 9.02036,-55.8208 L 8.52292,-55.6875 L 8.01427,-55.607
 L 7.5,-55.58 z
M 141.386,-55.607 L 140.877,-55.6875 L 140.38,-55.8208 L 139.899,-56.0054 L 139.44,-56.2392 L 139.008,-56.5196
 L 138.608,-56.8437 L 138.244,-57.2079 L 137.92,-57.6081 L 137.639,-58.04 L 137.405,-58.4989 L 137.221,-58.9796
 L 137.088,-59.4771 L 137.007,-59.9857 L 136.98,-60.5 L 137.007,-61.0143 L 137.088,-61.5229 L 137.221,-62.0204
 L 137.405,-62.5011 L 137.639,-62.96 L 137.92,-63.3919 L 138.244,-63.7921 L 138.608,-64.1563 L 139.008,-64.4804
 L 139.35,-64.7024 L 139.35,-74 L 139.406,-74.5302 L 139.57,-75.0372 L 139.837,-75.4988 L 140.194,-75.895
 L 140.625,-76.2084 L 141.112,-76.4252 L 141.633,-76.536 L 142.167,-76.536 L 142.688,-76.4252 L 143.175,-76.2084
 L 143.606,-75.895 L 143.963,-75.4988 L 144.23,-75.0372 L 144.394,-74.5302 L 144.45,-74 L 144.45,-64.7024
 L 144.792,-64.4804 L 145.192,-64.1563 L 145.556,-63.7921 L 145.88,-63.3919 L 146.161,-62.96 L 146.395,-62.5011
 L 146.579,-62.0204 L 146.712,-61.5229 L 146.793,-61.0143 L 146.82,-60.5 L 146.793,-59.9857 L 146.712,-59.4771
 L 146.579,-58.9796 L 146.395,-58.4989 L 146.161,-58.04 L 145.88,-57.6081 L 145.556,-57.2079 L 145.192,-56.8437
 L 144.792,-56.5196 L 144.36,-56.2392 L 143.901,-56.0054 L 143.42,-55.8208 L 142.923,-55.6875 L 142.414,-55.607
 L 141.9,-55.58 z
M 275.786,-55.607 L 275.277,-55.6875 L 274.78,-55.8208 L 274.299,-56.0054 L 273.84,-56.2392 L 273.408,-56.5196
 L 273.008,-56.8437 L 272.644,-57.2079 L 272.32,-57.6081 L 272.039,-58.04 L 271.805,-58.4989 L 271.621,-58.9796
 L 271.488,-59.4771 L 271.407,-59.9857 L 271.38,-60.5 L 271.407,-61.0143 L 271.488,-61.5229 L 271.621,-62.0204
 L 271.805,-62.5011 L 272.039,-62.96 L 272.32,-63.3919 L 272.644,-63.7921 L 273.008,-64.1563 L 273.408,-64.4804
 L 273.75,-64.7024 L 273.75,-74 L 273.806,-74.5302 L 273.97,-75.0372 L 274.237,-75.4988 L 274.594,-75.895
 L 275.025,-76.2084 L 275.512,-76.4252 L 276.033,-76.536 L 276.567,-76.536 L 277.088,-76.4252 L 277.575,-76.2084
 L 278.006,-75.895 L 278.363,-75.4988 L 278.63,-75.0372 L 278.794,-74.5302 L 278.85,-74 L 278.85,-64.7024
 L 279.192,-64.4804 L 279.592,-64.1563 L 279.956,-63.7921 L 280.28,-63.3919 L 280.561,-62.96 L 280.795,-62.5011
 L 280.979,-62.0204 L 281.112,-61.5229 L 281.193,-61.0143 L 281.22,-60.5 L 281.193,-59.9857 L 281.112,-59.4771
 L 280.979,-58.9796 L 280.795,-58.4989 L 280.561,-58.04 L 280.28,-57.6081 L 279.956,-57.2079 L 279.592,-56.8437
 L 279.192,-56.5196 L 278.76,-56.2392 L 278.301,-56.0054 L 277.82,-55.8208 L 277.323,-55.6875 L 276.814,-55.607
 L 276.3,-55.58 z
M 410.186,-55.607 L 409.677,-55.6875 L 409.18,-55.8208 L 408.699,-56.0054 L 408.24,-56.2392 L 407.808,-56.5196
 L 407.408,-56.8437 L 407.044,-57.2079 L 406.72,-57.6081 L 406.439,-58.04 L 406.205,-58.4989 L 406.021,-58.9796
 L 405.888,-59.4771 L 405.807,-59.9857 L 405.78,-60.5 L 405.807,-61.0143 L 405.888,-61.5229 L 406.021,-62.0204
 L 406.205,-62.5011 L 406.439,-62.96 L 406.72,-63.3919 L 407.044,-63.7921 L 407.408,-64.1563 L 407.808,-64.4804
 L 408.15,-64.7024 L 408.15,-74 L 408.206,-74.5302 L 408.37,-75.0372 L 408.637,-75.4988 L 408.994,-75.895
 L 409.425,-76.2084 L 409.912,-76.4252 L 410.433,-76.536 L 410.967,-76.536 L 411.488,-76.4252 L 411.975,-76.2084
 L 412.406,-75.895 L 412.763,-75.4988 L 413.03,-75.0372 L 413.194,-74.5302 L 413.25,-74 L 413.25,-64.7024
 L 413.592,-64.4804 L 413.992,-64.1563 L 414.356,-63.7921 L 414.68,-63.3919 L 414.961,-62.96 L 415.195,-62.5011
 L 415.379,-62.0204 L 415.512,-61.5229 L 415.593,-61.0143 L 415.62,-60.5 L 415.593,-59.9857 L 415.512,-59.4771
 L 415.379,-58.9796 L 415.195,-58.4989 L 414.961,-58.04 L 414.68,-57.6081 L 414.356,-57.2079 L 413.992,-56.8437
 L 413.592,-56.5196 L 413.16,-56.2392 L 412.701,-56.0054 L 412.22,-55.8208 L 411.723,-55.6875 L 411.214,-55.607
 L 410.7,-55.58 z
M 544.586,-55.607 L 544.077,-55.6875 L 543.58,-55.8208 L 543.099,-56.0054 L 542.64,-56.2392 L 542.208,-56.5196
 L 541.808,-56.8437 L 541.444,-57.2079 L 541.12,-57.6081 L 540.839,-58.04 L 540.605,-58.4989 L 540.421,-58.9796
 L 540.288,-59.4771 L 540.207,-59.9857 L 540.18,-60.5 L 540.207,-61.0143 L 540.288,-61.5229 L 540.421,-62.0204
 L 540.605,-62.5011 L 540.839,-62.96 L 541.12,-63.3919 L 541.444,-63.7921 L 541.808,-64.1563 L 542.208,-64.4804
 L 542.55,-64.7024 L 542.55,-74 L 542.606,-74.5302 L 542.77,-75.0372 L 543.037,-75.4988 L 543.394,-75.895
 L 543.825,-76.2084 L 544.312,-76.4252 L 544.833,-76.536 L 545.367,-76.536 L 545.888,-76.4252 L 546.375,-76.2084
 L 546.806,-75.895 L 547.163,-75.4988 L 547.43,-75.0372 L 547.594,-74.5302 L 547.65,-74 L 547.65,-64.7024
 L 547.992,-64.4804 L 548.392,-64.1563 L 548.756,-63.7921 L 549.08,-63.3919 L 549.361,-62.96 L 549.595,-62.5011
 L 549.779,-62.0204 L 549.912,-61.5229 L 549.993,-61.0143 L 550.02,-60.5 L 549.993,-59.9857 L 549.912,-59.4771
 L 549.779,-58.9796 L 549.595,-58.4989 L 549.361,-58.04 L 549.08,-57.6081 L 548.756,-57.2079 L 548.392,-56.8437
 L 547.992,-56.5196 L 547.56,-56.2392 L 547.101,-56.0054 L 546.62,-55.8208 L 546.123,-55.6875 L 545.614,-55.607
 L 545.1,-55.58 z
M 678.986,-55.607 L 678.477,-55.6875 L 677.98,-55.8208 L 677.499,-56.0054 L 677.04,-56.2392 L 676.608,-56.5196
 L 676.208,-56.8437 L 675.844,-57.2079 L 675.52,-57.6081 L 675.239,-58.04 L 675.005,-58.4989 L 674.821,-58.9796
 L 674.688,-59.4771 L 674.607,-59.9857 L 674.58,-60.5 L 674.607,-61.0143 L 674.688,-61.5229 L 674.821,-62.0204
 L 675.005,-62.5011 L 675.239,-62.96 L 675.52,-63.3919 L 675.844,-63.7921 L 676.208,-64.1563 L 676.608,-64.4804
 L 676.95,-64.7024 L 676.95,-74 L 677.006,-74.5302 L 677.17,-75.0372 L 677.437,-75.4988 L 677.794,-75.895
 L 678.225,-76.2084 L 678.712,-76.4252 L 679.233,-76.536 L 679.767,-76.536 L 680.288,-76.4252 L 680.775,-76.2084
 L 681.206,-75.895 L 681.563,-75.4988 L 681.83,-75.0372 L 681.994,-74.5302 L 682.05,-74 L 682.05,-64.7024
 L 682.392,-64.4804 L 682.792,-64.1563 L 683.156,-63.7921 L 683.48,-63.3919 L 683.761,-62.96 L 683.995,-62.5011
 L 684.179,-62.0204 L 684.312,-61.5229 L 684.393,-61.0143 L 684.42,-60.5 L 684.393,-59.9857 L 684.312,-59.4771
 L 684.179,-58.9796 L 683.995,-58.4989 L 683.761,-58.04 L 683.48,-57.6081 L 683.156,-57.2079 L 682.792,-56.8437
 L 682.392,-56.5196 L 681.96,-56.2392 L 681.501,-56.0054 L 681.02,-55.8208 L 680.523,-55.6875 L 680.014,-55.607
 L 679.5,-55.58 z
M 342.476,-48.4461 L 341.694,-48.7435 L 330.453,-54.4308 L 329.908,-54.7639 L 329.287,-55.3235 L 328.795,-56
 L 328.455,-56.7639 L 328.281,-57.5819 L 328.281,-58.4181 L 328.455,-59.2361 L 328.795,-60 L 329.287,-60.6765
 L 329.908,-61.2361 L 330.632,-61.6542 L 331.428,-61.9126 L 332.259,-62 L 354.741,-62 L 355.378,-61.949
 L 356.185,-61.7302 L 356.929,-61.3485 L 357.577,-60.8204 L 358.102,-60.169 L 358.479,-59.4229 L 358.693,-58.6145
 L 358.735,-57.7793 L 358.602,-56.9538 L 358.3,-56.1739 L 357.842,-55.4739 L 357.249,-54.8843 L 356.547,-54.4308
 L 345.306,-48.7435 L 344.137,-48.3637 L 343.302,-48.3176 z
M 262.276,-23.2621 L 261.494,-23.5596 L 200.478,-54.4308 L 199.933,-54.7639 L 199.311,-55.3235 L 198.82,-56
 L 198.48,-56.7639 L 198.306,-57.5819 L 198.306,-58.4181 L 198.48,-59.2361 L 198.82,-60 L 199.311,-60.6765
 L 199.933,-61.2361 L 200.657,-61.6542 L 201.452,-61.9126 L 202.284,-62 L 263.3,-62 L 264.536,-61.8042
 L 265.3,-61.4641 L 265.977,-60.9726 L 266.536,-60.3511 L 266.954,-59.627 L 267.213,-58.8316 L 267.3,-58
 L 267.3,-27.1287 L 267.253,-26.5142 L 267.038,-25.7059 L 266.661,-24.9597 L 266.136,-24.3083 L 265.488,-23.7802
 L 264.744,-23.3985 L 263.937,-23.1798 L 263.102,-23.1336 z
M 557.463,-23.1798 L 556.656,-23.3985 L 555.912,-23.7802 L 555.264,-24.3083 L 554.739,-24.9597 L 554.362,-25.7059
 L 554.147,-26.5142 L 554.1,-27.1287 L 554.1,-58 L 554.187,-58.8316 L 554.446,-59.627 L 554.864,-60.3511
 L 555.423,-60.9726 L 556.1,-61.4641 L 556.864,-61.8042 L 558.1,-62 L 619.116,-62 L 619.948,-61.9126
 L 620.743,-61.6542 L 621.467,-61.2361 L 622.089,-60.6765 L 622.58,-60 L 622.92,-59.2361 L 623.094,-58.4181
 L 623.094,-57.5819 L 622.92,-56.7639 L 622.58,-56 L 622.089,-55.3235 L 621.467,-54.7639 L 620.922,-54.4308
 L 559.906,-23.5596 L 559.124,-23.2621 L 558.298,-23.1336 z
M 127.876,-23.2621 L 127.094,-23.5596 L 66.078,-54.4308 L 65.5327,-54.7639 L 64.9113,-55.3235 L 64.4197,-56
 L 64.0796,-56.7639 L 63.9057,-57.5819 L 63.9057,-58.4181 L 64.0796,-59.2361 L 64.4197,-60 L 64.9113,-60.6765
 L 65.5327,-61.2361 L 66.2569,-61.6542 L 67.0522,-61.9126 L 67.8838,-62 L 128.9,-62 L 130.136,-61.8042
 L 130.9,-61.4641 L 131.577,-60.9726 L 132.136,-60.3511 L 132.554,-59.627 L 132.813,-58.8316 L 132.9,-58
 L 132.9,-27.1287 L 132.853,-26.5142 L 132.638,-25.7059 L 132.261,-24.9597 L 131.736,-24.3083 L 131.088,-23.7802
 L 130.344,-23.3985 L 129.537,-23.1798 L 128.702,-23.1336 z
M 423.063,-23.1798 L 422.256,-23.3985 L 421.512,-23.7802 L 420.864,-24.3083 L 420.339,-24.9597 L 419.962,-25.7059
 L 419.747,-26.5142 L 419.7,-27.1287 L 419.7,-58 L 419.787,-58.8316 L 420.046,-59.627 L 420.464,-60.3511
 L 421.023,-60.9726 L 421.7,-61.4641 L 422.464,-61.8042 L 423.7,-62 L 484.716,-62 L 485.548,-61.9126
 L 486.343,-61.6542 L 487.067,-61.2361 L 487.689,-60.6765 L 488.18,-60 L 488.52,-59.2361 L 488.694,-58.4181
 L 488.694,-57.5819 L 488.52,-56.7639 L 488.18,-56 L 487.689,-55.3235 L 487.067,-54.7639 L 486.522,-54.4308
 L 425.506,-23.5596 L 424.724,-23.2621 L 423.898,-23.1336 z
M 288.882,-20.912 L 288.064,-21.0858 L 287.3,-21.426 L 286.623,-21.9175 L 286.064,-22.5389 L 285.646,-23.2631
 L 285.387,-24.0584 L 285.3,-24.8901 L 285.3,-55.1099 L 285.347,-55.7244 L 285.562,-56.5328 L 285.939,-57.2789
 L 286.464,-57.9303 L 287.112,-58.4584 L 287.856,-58.8402 L 288.663,-59.0589 L 289.498,-59.105 L 290.324,-58.9765
 L 291.106,-58.6791 L 320.97,-43.5692 L 321.352,-43.3485 L 322.001,-42.8204 L 322.525,-42.169 L 322.903,-41.4229
 L 323.117,-40.6145 L 323.158,-39.7793 L 323.025,-38.9538 L 322.723,-38.1739 L 322.266,-37.4739 L 321.673,-36.8843
 L 320.97,-36.4308 L 291.106,-21.3209 L 290.536,-21.0858 L 289.718,-20.912 z
M 396.676,-21.0234 L 395.894,-21.3209 L 366.03,-36.4308 L 365.648,-36.6515 L 364.999,-37.1796 L 364.475,-37.831
 L 364.097,-38.5771 L 363.883,-39.3855 L 363.842,-40.2207 L 363.975,-41.0462 L 364.277,-41.8261 L 364.734,-42.5261
 L 365.327,-43.1157 L 366.03,-43.5692 L 395.894,-58.6791 L 396.464,-58.9142 L 397.282,-59.088 L 398.118,-59.088
 L 398.936,-58.9142 L 399.7,-58.574 L 400.377,-58.0825 L 400.936,-57.4611 L 401.354,-56.7369 L 401.613,-55.9416
 L 401.7,-55.1099 L 401.7,-24.8901 L 401.652,-24.2755 L 401.438,-23.4672 L 401.061,-22.721 L 400.536,-22.0697
 L 399.888,-21.5416 L 399.144,-21.1598 L 398.337,-20.9411 L 397.502,-20.895 z
M 154.9,-18 L 153.664,-18.1958 L 152.9,-18.5359 L 152.223,-19.0274 L 151.664,-19.6489 L 151.246,-20.373
 L 150.987,-21.1684 L 150.9,-22 L 150.9,-52.8713 L 150.947,-53.4858 L 151.162,-54.2941 L 151.539,-55.0403
 L 152.064,-55.6916 L 152.712,-56.2197 L 153.456,-56.6015 L 154.263,-56.8202 L 155.098,-56.8664 L 155.924,-56.7379
 L 156.706,-56.4404 L 217.722,-25.5692 L 218.267,-25.2361 L 218.889,-24.6765 L 219.38,-24 L 219.72,-23.2361
 L 219.894,-22.4181 L 219.894,-21.5819 L 219.72,-20.7639 L 219.38,-20 L 218.889,-19.3235 L 218.267,-18.7639
 L 217.543,-18.3458 L 216.748,-18.0874 L 215.916,-18 z
M 471.084,-18 L 470.252,-18.0874 L 469.457,-18.3458 L 468.733,-18.7639 L 468.111,-19.3235 L 467.62,-20
 L 467.28,-20.7639 L 467.106,-21.5819 L 467.106,-22.4181 L 467.28,-23.2361 L 467.62,-24 L 468.111,-24.6765
 L 468.733,-25.2361 L 469.278,-25.5692 L 530.294,-56.4404 L 531.076,-56.7379 L 531.902,-56.8664 L 532.737,-56.8202
 L 533.544,-56.6015 L 534.288,-56.2197 L 534.936,-55.6916 L 535.461,-55.0403 L 535.838,-54.2941 L 536.053,-53.4858
 L 536.1,-52.8713 L 536.1,-22 L 536.013,-21.1684 L 535.754,-20.373 L 535.336,-19.6489 L 534.777,-19.0274
 L 534.1,-18.5359 L 533.336,-18.1958 L 532.1,-18 z
M 22,-18 L 20.7639,-18.1958 L 20,-18.5359 L 19.3235,-19.0274 L 18.7639,-19.6489 L 18.3458,-20.373
 L 18.0874,-21.1684 L 18,-22 L 18,-52.1123 L 18.0475,-52.7269 L 18.2616,-53.5352 L 18.6391,-54.2814
 L 19.1635,-54.9327 L 19.8119,-55.4608 L 20.5559,-55.8426 L 21.363,-56.0613 L 22.198,-56.1074 L 23.0243,-55.979
 L 23.8058,-55.6815 L 83.322,-25.5692 L 83.8673,-25.2361 L 84.4887,-24.6765 L 84.9802,-24 L 85.3204,-23.2361
 L 85.4942,-22.4181 L 85.4942,-21.5819 L 85.3204,-20.7639 L 84.9802,-20 L 84.4887,-19.3235 L 83.8673,-18.7639
 L 83.1431,-18.3458 L 82.3478,-18.0874 L 81.5161,-18 z
M 605.484,-18 L 604.652,-18.0874 L 603.857,-18.3458 L 603.133,-18.7639 L 602.511,-19.3235 L 602.02,-20
 L 601.68,-20.7639 L 601.506,-21.5819 L 601.506,-22.4181 L 601.68,-23.2361 L 602.02,-24 L 602.511,-24.6765
 L 603.133,-25.2361 L 603.678,-25.5692 L 663.194,-55.6815 L 663.976,-55.979 L 664.802,-56.1074 L 665.637,-56.0613
 L 666.444,-55.8426 L 667.188,-55.4608 L 667.836,-54.9327 L 668.361,-54.2814 L 668.738,-53.5352 L 668.953,-52.7269
 L 669,-52.1123 L 669,-22 L 668.913,-21.1684 L 668.654,-20.373 L 668.236,-19.6489 L 667.677,-19.0274
 L 667,-18.5359 L 666.236,-18.1958 L 665,-18 z
M 332.259,-18 L 331.622,-18.051 L 330.815,-18.2698 L 330.071,-18.6515 L 329.423,-19.1796 L 328.898,-19.831
 L 328.521,-20.5771 L 328.307,-21.3855 L 328.265,-22.2207 L 328.398,-23.0462 L 328.7,-23.8261 L 329.158,-24.5261
 L 329.751,-25.1157 L 330.453,-25.5692 L 341.694,-31.2565 L 342.863,-31.6363 L 343.698,-31.6824 L 344.524,-31.5539
 L 345.306,-31.2565 L 356.547,-25.5692 L 357.092,-25.2361 L 357.713,-24.6765 L 358.205,-24 L 358.545,-23.2361
 L 358.719,-22.4181 L 358.719,-21.5819 L 358.545,-20.7639 L 358.205,-20 L 357.713,-19.3235 L 357.092,-18.7639
 L 356.368,-18.3458 L 355.572,-18.0874 L 354.741,-18 z
" stroke="black" fill="lightgray" stroke-width="0.5"/>
</svg>
