<?xml version="1.0" standalone="no"?>
<!DOCTYPE svg PUBLIC "-//W3C//DTD SVG 1.1//EN" "http://www.w3.org/Graphics/SVG/1.1/DTD/svg11.dtd">
<svg width="709mm" height="80mm" viewBox="0 -80 709 80" xmlns="http://www.w3.org/2000/svg" version="1.1">
<title>OpenSCAD Model</title>
<path d="
M 709,-80 L 0,-80 L 0,-0 L 4.95,-0 L 4.95,-6 L 5.00572,-6.53017
 L 5.17046,-7.03717 L 5.437,-7.49884 L 5.79372,-7.895 L 6.22499,-8.20836 L 6.71201,-8.42519 L 7.23344,-8.53603
 L 7.76654,-8.53603 L 8.28798,-8.42519 L 8.77499,-8.20836 L 9.20627,-7.895 L 9.56299,-7.49884 L 9.82953,-7.03717
 L 9.99426,-6.53017 L 10.05,-6 L 10.05,-0 L 143.75,-0 L 143.75,-6 L 143.806,-6.53017
 L 143.97,-7.03717 L 144.237,-7.49884 L 144.594,-7.895 L 145.025,-8.20836 L 145.512,-8.42519 L 146.033,-8.53603
 L 146.567,-8.53603 L 147.088,-8.42519 L 147.575,-8.20836 L 148.006,-7.895 L 148.363,-7.49884 L 148.63,-7.03717
 L 148.794,-6.53017 L 148.85,-6 L 148.85,-0 L 282.55,-0 L 282.55,-6 L 282.606,-6.53017
 L 282.77,-7.03717 L 283.037,-7.49884 L 283.394,-7.895 L 283.825,-8.20836 L 284.312,-8.42519 L 284.833,-8.53603
 L 285.367,-8.53603 L 285.888,-8.42519 L 286.375,-8.20836 L 286.806,-7.895 L 287.163,-7.49884 L 287.43,-7.03717
 L 287.594,-6.53017 L 287.65,-6 L 287.65,-0 L 421.35,-0 L 421.35,-6 L 421.406,-6.53017
 L 421.57,-7.03717 L 421.837,-7.49884 L 422.194,-7.895 L 422.625,-8.20836 L 423.112,-8.42519 L 423.633,-8.53603
 L 424.167,-8.53603 L 424.688,-8.42519 L 425.175,-8.20836 L 425.606,-7.895 L 425.963,-7.49884 L 426.23,-7.03717
 L 426.394,-6.53017 L 426.45,-6 L 426.45,-0 L 560.15,-0 L 560.15,-6 L 560.206,-6.53017
 L 560.37,-7.03717 L 560.637,-7.49884 L 560.994,-7.895 L 561.425,-8.20836 L 561.912,-8.42519 L 562.433,-8.53603
 L 562.967,-8.53603 L 563.488,-8.42519 L 563.975,-8.20836 L 564.406,-7.895 L 564.763,-7.49884 L 565.03,-7.03717
 L 565.194,-6.53017 L 565.25,-6 L 565.25,-0 L 698.95,-0 L 698.95,-6 L 699.006,-6.53017
 L 699.17,-7.03717 L 699.437,-7.49884 L 699.794,-7.895 L 700.225,-8.20836 L 700.712,-8.42519 L 701.233,-8.53603
 L 701.767,-8.53603 L 702.288,-8.42519 L 702.775,-8.20836 L 703.206,-7.895 L 703.563,-7.49884 L 703.83,-7.03717
 L 703.994,-6.53017 L 704.05,-6 L 704.05,-0 L 709,-0 z
M 6.98573,-55.607 L 6.47708,-55.6875 L 5.97964,-55.8208 L 5.49887,-56.0054 L 5.04001,-56.2392 L 4.60811,-56.5196
 L 4.20789,-56.8437 L 3.84373,-57.2079 L 3.51964,-57.6081 L 3.23917,-58.04 L 3.00537,-58.4989 L 2.82082,-58.9796
 L 2.68752,-59.4771 L 2.60696,-59.9857 L 2.58,-60.5 L 2.60696,-61.0143 L 2.68752,-61.5229 L 2.82082,-62.0204
 L 3.00537,-62.5011 L 3.23917,-62.96 L 3.51964,-63.3919 L 3.84373,-63.7921 L 4.20789,-64.1563 L 4.60811,-64.4804
 L 4.95001,-64.7024 L 4.95001,-74 L 5.00574,-74.5302 L 5.17047,-75.0372 L 5.43701,-75.4988 L 5.79373,-75.895
 L 6.22501,-76.2084 L 6.71202,-76.4252 L 7.23346,-76.536 L 7.76654,-76.536 L 8.28798,-76.4252 L 8.77499,-76.2084
 L 9.20627,-75.895 L 9.56299,-75.4988 L 9.82953,-75.0372 L 9.99426,-74.5302 L 10.05,-74 L 10.05,-64.7024
 L 10.3919,-64.4804 L 10.7921,-64.1563 L 11.1563,-63.7921 L 11.4804,-63.3919 L 11.7608,-62.96 L 11.9946,-62.5011
 L 12.1792,-62.0204 L 12.3125,-61.5229 L 12.393,-61.0143 L 12.42,-60.5 L 12.393,-59.9857 L 12.3125,-59.4771
 L 12.1792,-58.9796 L 11.9946,-58.4989 L 11.7608,-58.04 L 11.4804,-57.6081 L 11.1563,-57.2079 L 10.7921,-56.8437
 L 10.3919,-56.5196 L 9.95999,-56.2392 L 9.50113,-56.0054 L 9.02036,-55.8208 L 8.52292,-55.6875 L 8.01427,-55.607
 L 7.5,-55.58 z
M 145.786,-55.607 L 145.277,-55.6875 L 144.78,-55.8208 L 144.299,-56.0054 L 143.84,-56.2392 L 143.408,-56.5196
 L 143.008,-56.8437 L 142.644,-57.2079 L 142.32,-57.6081 L 142.039,-58.04 L 141.805,-58.4989 L 141.621,-58.9796
 L 141.488,-59.4771 L 141.407,-59.9857 L 141.38,-60.5 L 141.407,-61.0143 L 141.488,-61.5229 L 141.621,-62.0204
 L 141.805,-62.5011 L 142.039,-62.96 L 142.32,-63.3919 L 142.644,-63.7921 L 143.008,-64.1563 L 143.408,-64.4804
 L 143.75,-64.7024 L 143.75,-74 L 143.806,-74.5302 L 143.97,-75.0372 L 144.237,-75.4988 L 144.594,-75.895
 L 145.025,-76.2084 L 145.512,-76.4252 L 146.033,-76.536 L 146.567,-76.536 L 147.088,-76.4252 L 147.575,-76.2084
 L 148.006,-75.895 L 148.363,-75.4988 L 148.63,-75.0372 L 148.794,-74.5302 L 148.85,-74 L 148.85,-64.7024
 L 149.192,-64.4804 L 149.592,-64.1563 L 149.956,-63.7921 L 150.28,-63.3919 L 150.561,-62.96 L 150.795,-62.5011
 L 150.979,-62.0204 L 151.112,-61.5229 L 151.193,-61.0143 L 151.22,-60.5 L 151.193,-59.9857 L 151.112,-59.4771
 L 150.979,-58.9796 L 150.795,-58.4989 L 150.561,-58.04 L 150.28,-57.6081 L 149.956,-57.2079 L 149.592,-56.8437
 L 149.192,-56.5196 L 148.76,-56.2392 L 148.301,-56.0054 L 147.82,-55.8208 L 147.323,-55.6875 L 146.814,-55.607
 L 146.3,-55.58 z
M 284.586,-55.607 L 284.077,-55.6875 L 283.58,-55.8208 L 283.099,-56.0054 L 282.64,-56.2392 L 282.208,-56.5196
 L 281.808,-56.8437 L 281.444,-57.2079 L 281.12,-57.6081 L 280.839,-58.04 L 280.605,-58.4989 L 280.421,-58.9796
 L 280.288,-59.4771 L 280.207,-59.9857 L 280.18,-60.5 L 280.207,-61.0143 L 280.288,-61.5229 L 280.421,-62.0204
 L 280.605,-62.5011 L 280.839,-62.96 L 281.12,-63.3919 L 281.444,-63.7921 L 281.808,-64.1563 L 282.208,-64.4804
 L 282.55,-64.7024 L 282.55,-74 L 282.606,-74.5302 L 282.77,-75.0372 L 283.037,-75.4988 L 283.394,-75.895
 L 283.825,-76.2084 L 284.312,-76.4252 L 284.833,-76.536 L 285.367,-76.536 L 285.888,-76.4252 L 286.375,-76.2084
 L 286.806,-75.895 L 287.163,-75.4988 L 287.43,-75.0372 L 287.594,-74.5302 L 287.65,-74 L 287.65,-64.7024
 L 287.992,-64.4804 L 288.392,-64.1563 L 288.756,-63.7921 L 289.08,-63.3919 L 289.361,-62.96 L 289.595,-62.5011
 L 289.779,-62.0204 L 289.912,-61.5229 L 289.993,-61.0143 L 290.02,-60.5 L 289.993,-59.9857 L 289.912,-59.4771
 L 289.779,-58.9796 L 289.595,-58.4989 L 289.361,-58.04 L 289.08,-57.6081 L 288.756,-57.2079 L 288.392,-56.8437
 L 287.992,-56.5196 L 287.56,-56.2392 L 287.101,-56.0054 L 286.62,-55.8208 L 286.123,-55.6875 L 285.614,-55.607
 L 285.1,-55.58 z
M 423.386,-55.607 L 422.877,-55.6875 L 422.38,-55.8208 L 421.899,-56.0054 L 421.44,-56.2392 L 421.008,-56.5196
 L 420.608,-56.8437 L 420.244,-57.2079 L 419.92,-57.6081 L 419.639,-58.04 L 419.405,-58.4989 L 419.221,-58.9796
 L 419.088,-59.4771 L 419.007,-59.9857 L 418.98,-60.5 L 419.007,-61.0143 L 419.088,-61.5229 L 419.221,-62.0204
 L 419.405,-62.5011 L 419.639,-62.96 L 419.92,-63.3919 L 420.244,-63.7921 L 420.608,-64.1563 L 421.008,-64.4804
 L 421.35,-64.7024 L 421.35,-74 L 421.406,-74.5302 L 421.57,-75.0372 L 421.837,-75.4988 L 422.194,-75.895
 L 422.625,-76.2084 L 423.112,-76.4252 L 423.633,-76.536 L 424.167,-76.536 L 424.688,-76.4252 L 425.175,-76.2084
 L 425.606,-75.895 L 425.963,-75.4988 L 426.23,-75.0372 L 426.394,-74.5302 L 426.45,-74 L 426.45,-64.7024
 L 426.792,-64.4804 L 427.192,-64.1563 L 427.556,-63.7921 L 427.88,-63.3919 L 428.161,-62.96 L 428.395,-62.5011
 L 428.579,-62.0204 L 428.712,-61.5229 L 428.793,-61.0143 L 428.82,-60.5 L 428.793,-59.9857 L 428.712,-59.4771
 L 428.579,-58.9796 L 428.395,-58.4989 L 428.161,-58.04 L 427.88,-57.6081 L 427.556,-57.2079 L 427.192,-56.8437
 L 426.792,-56.5196 L 426.36,-56.2392 L 425.901,-56.0054 L 425.42,-55.8208 L 424.923,-55.6875 L 424.414,-55.607
 L 423.9,-55.58 z
M 562.186,-55.607 L 561.677,-55.6875 L 561.18,-55.8208 L 560.699,-56.0054 L 560.24,-56.2392 L 559.808,-56.5196
 L 559.408,-56.8437 L 559.044,-57.2079 L 558.72,-57.6081 L 558.439,-58.04 L 558.205,-58.4989 L 558.021,-58.9796
 L 557.888,-59.4771 L 557.807,-59.9857 L 557.78,-60.5 L 557.807,-61.0143 L 557.888,-61.5229 L 558.021,-62.0204
 L 558.205,-62.5011 L 558.439,-62.96 L 558.72,-63.3919 L 559.044,-63.7921 L 559.408,-64.1563 L 559.808,-64.4804
 L 560.15,-64.7024 L 560.15,-74 L 560.206,-74.5302 L 560.37,-75.0372 L 560.637,-75.4988 L 560.994,-75.895
 L 561.425,-76.2084 L 561.912,-76.4252 L 562.433,-76.536 L 562.967,-76.536 L 563.488,-76.4252 L 563.975,-76.2084
 L 564.406,-75.895 L 564.763,-75.4988 L 565.03,-75.0372 L 565.194,-74.5302 L 565.25,-74 L 565.25,-64.7024
 L 565.592,-64.4804 L 565.992,-64.1563 L 566.356,-63.7921 L 566.68,-63.3919 L 566.961,-62.96 L 567.195,-62.5011
 L 567.379,-62.0204 L 567.512,-61.5229 L 567.593,-61.0143 L 567.62,-60.5 L 567.593,-59.9857 L 567.512,-59.4771
 L 567.379,-58.9796 L 567.195,-58.4989 L 566.961,-58.04 L 566.68,-57.6081 L 566.356,-57.2079 L 565.992,-56.8437
 L 565.592,-56.5196 L 565.16,-56.2392 L 564.701,-56.0054 L 564.22,-55.8208 L 563.723,-55.6875 L 563.214,-55.607
 L 562.7,-55.58 z
M 700.986,-55.607 L 700.477,-55.6875 L 699.98,-55.8208 L 699.499,-56.0054 L 699.04,-56.2392 L 698.608,-56.5196
 L 698.208,-56.8437 L 697.844,-57.2079 L 697.52,-57.6081 L 697.239,-58.04 L 697.005,-58.4989 L 696.821,-58.9796
 L 696.688,-59.4771 L 696.607,-59.9857 L 696.58,-60.5 L 696.607,-61.0143 L 696.688,-61.5229 L 696.821,-62.0204
 L 697.005,-62.5011 L 697.239,-62.96 L 697.52,-63.3919 L 697.844,-63.7921 L 698.208,-64.1563 L 698.608,-64.4804
 L 698.95,-64.7024 L 698.95,-74 L 699.006,-74.5302 L 699.17,-75.0372 L 699.437,-75.4988 L 699.794,-75.895
 L 700.225,-76.2084 L 700.712,-76.4252 L 701.233,-76.536 L 701.767,-76.536 L 702.288,-76.4252 L 702.775,-76.2084
 L 703.206,-75.895 L 703.563,-75.4988 L 703.83,-75.0372 L 703.994,-74.5302 L 704.05,-74 L 704.05,-64.7024
 L 704.392,-64.4804 L 704.792,-64.1563 L 705.156,-63.7921 L 705.48,-63.3919 L 705.761,-62.96 L 705.995,-62.5011
 L 706.179,-62.0204 L 706.312,-61.5229 L 706.393,-61.0143 L 706.42,-60.5 L 706.393,-59.9857 L 706.312,-59.4771
 L 706.179,-58.9796 L 705.995,-58.4989 L 705.761,-58.04 L 705.48,-57.6081 L 705.156,-57.2079 L 704.792,-56.8437
 L 704.392,-56.5196 L 703.96,-56.2392 L 703.501,-56.0054 L 703.02,-55.8208 L 702.523,-55.6875 L 702.014,-55.607
 L 701.5,-55.58 z
M 353.525,-48.3615 L 352.74,-48.6488 L 340.985,-54.4079 L 340.394,-54.7639 L 339.772,-55.3235 L 339.281,-56
 L 338.94,-56.7639 L 338.767,-57.5819 L 338.767,-58.4181 L 338.94,-59.2361 L 339.281,-60 L 339.772,-60.6765
 L 340.394,-61.2361 L 341.118,-61.6542 L 341.913,-61.9126 L 342.745,-62 L 366.255,-62 L 366.943,-61.9404
 L 367.747,-61.7114 L 368.486,-61.3201 L 369.128,-60.7837 L 369.644,-60.1256 L 370.012,-59.3747 L 370.215,-58.5637
 L 370.246,-57.728 L 370.102,-56.9042 L 369.79,-56.1283 L 369.324,-55.4342 L 368.723,-54.8523 L 368.015,-54.4079
 L 356.26,-48.6488 L 355.188,-48.3005 L 354.353,-48.2436 z
M 271.125,-22.9559 L 270.34,-23.2433 L 206.728,-54.4079 L 206.136,-54.7639 L 205.515,-55.3235 L 205.023,-56
 L 204.683,-56.7639 L 204.509,-57.5819 L 204.509,-58.4181 L 204.683,-59.2361 L 205.023,-60 L 205.515,-60.6765
 L 206.136,-61.2361 L 206.861,-61.6542 L 207.656,-61.9126 L 208.488,-62 L 272.1,-62 L 273.336,-61.8042
 L 274.1,-61.4641 L 274.777,-60.9726 L 275.336,-60.3511 L 275.754,-59.627 L 276.013,-58.8316 L 276.1,-58
 L 276.1,-26.8354 L 276.06,-26.2718 L 275.856,-25.4607 L 275.488,-24.7098 L 274.972,-24.0517 L 274.331,-23.5153
 L 273.592,-23.1241 L 272.788,-22.895 L 271.953,-22.8381 z
M 575.012,-22.895 L 574.208,-23.1241 L 573.469,-23.5153 L 572.828,-24.0517 L 572.312,-24.7098 L 571.944,-25.4607
 L 571.74,-26.2718 L 571.7,-26.8354 L 571.7,-58 L 571.787,-58.8316 L 572.046,-59.627 L 572.464,-60.3511
 L 573.023,-60.9726 L 573.7,-61.4641 L 574.464,-61.8042 L 575.7,-62 L 639.312,-62 L 640.144,-61.9126
 L 640.939,-61.6542 L 641.664,-61.2361 L 642.285,-60.6765 L 642.777,-60 L 643.117,-59.2361 L 643.291,-58.4181
 L 643.291,-57.5819 L 643.117,-56.7639 L 642.777,-56 L 642.285,-55.3235 L 641.664,-54.7639 L 641.072,-54.4079
 L 577.46,-23.2433 L 576.675,-22.9559 L 575.847,-22.8381 z
M 132.325,-22.9559 L 131.54,-23.2433 L 67.9278,-54.4079 L 67.3364,-54.7639 L 66.715,-55.3235 L 66.2235,-56
 L 65.8833,-56.7639 L 65.7095,-57.5819 L 65.7095,-58.4181 L 65.8833,-59.2361 L 66.2235,-60 L 66.715,-60.6765
 L 67.3364,-61.2361 L 68.0606,-61.6542 L 68.8559,-61.9126 L 69.6876,-62 L 133.3,-62 L 134.536,-61.8042
 L 135.3,-61.4641 L 135.977,-60.9726 L 136.536,-60.3511 L 136.954,-59.627 L 137.213,-58.8316 L 137.3,-58
 L 137.3,-26.8354 L 137.26,-26.2718 L 137.056,-25.4607 L 136.688,-24.7098 L 136.172,-24.0517 L 135.531,-23.5153
 L 134.792,-23.1241 L 133.988,-22.895 L 133.153,-22.8381 z
M 436.212,-22.895 L 435.408,-23.1241 L 434.669,-23.5153 L 434.028,-24.0517 L 433.512,-24.7098 L 433.144,-25.4607
 L 432.94,-26.2718 L 432.9,-26.8354 L 432.9,-58 L 432.987,-58.8316 L 433.246,-59.627 L 433.664,-60.3511
 L 434.223,-60.9726 L 434.9,-61.4641 L 435.664,-61.8042 L 436.9,-62 L 500.512,-62 L 501.344,-61.9126
 L 502.139,-61.6542 L 502.864,-61.2361 L 503.485,-60.6765 L 503.977,-60 L 504.317,-59.2361 L 504.491,-58.4181
 L 504.491,-57.5819 L 504.317,-56.7639 L 503.977,-56 L 503.485,-55.3235 L 502.864,-54.7639 L 502.272,-54.4079
 L 438.66,-23.2433 L 437.875,-22.9559 L 437.047,-22.8381 z
M 297.682,-20.6317 L 296.864,-20.8056 L 296.1,-21.1457 L 295.423,-21.6372 L 294.864,-22.2587 L 294.446,-22.9828
 L 294.187,-23.7782 L 294.1,-24.6098 L 294.1,-55.3902 L 294.14,-55.9539 L 294.344,-56.7649 L 294.712,-57.5158
 L 295.228,-58.1739 L 295.869,-58.7103 L 296.608,-59.1016 L 297.412,-59.3306 L 298.247,-59.3875 L 299.075,-59.2697
 L 299.86,-58.9823 L 331.274,-43.5921 L 331.745,-43.3201 L 332.387,-42.7837 L 332.903,-42.1256 L 333.27,-41.3747
 L 333.474,-40.5637 L 333.505,-39.728 L 333.361,-38.9042 L 333.049,-38.1283 L 332.583,-37.4342 L 331.982,-36.8523
 L 331.274,-36.4079 L 299.86,-21.0177 L 299.336,-20.8056 L 298.518,-20.6317 z
M 409.925,-20.7303 L 409.14,-21.0177 L 377.726,-36.4079 L 377.255,-36.6799 L 376.613,-37.2163 L 376.097,-37.8744
 L 375.729,-38.6253 L 375.526,-39.4363 L 375.495,-40.272 L 375.639,-41.0958 L 375.951,-41.8717 L 376.417,-42.5658
 L 377.018,-43.1477 L 377.726,-43.5921 L 409.14,-58.9823 L 409.664,-59.1944 L 410.482,-59.3683 L 411.318,-59.3683
 L 412.136,-59.1944 L 412.9,-58.8543 L 413.577,-58.3628 L 414.136,-57.7413 L 414.554,-57.0172 L 414.813,-56.2218
 L 414.9,-55.3902 L 414.9,-24.6098 L 414.86,-24.0461 L 414.656,-23.2351 L 414.288,-22.4842 L 413.772,-21.8261
 L 413.131,-21.2897 L 412.392,-20.8984 L 411.588,-20.6694 L 410.753,-20.6125 z
M 159.3,-18 L 158.064,-18.1958 L 157.3,-18.5359 L 156.623,-19.0274 L 156.064,-19.6489 L 155.646,-20.373
 L 155.387,-21.1684 L 155.3,-22 L 155.3,-53.1646 L 155.34,-53.7282 L 155.544,-54.5393 L 155.912,-55.2902
 L 156.428,-55.9483 L 157.069,-56.4847 L 157.808,-56.8759 L 158.612,-57.105 L 159.447,-57.1619 L 160.275,-57.0441
 L 161.06,-56.7567 L 224.672,-25.5921 L 225.264,-25.2361 L 225.885,-24.6765 L 226.376,-24 L 226.717,-23.2361
 L 226.89,-22.4181 L 226.89,-21.5819 L 226.717,-20.7639 L 226.376,-20 L 225.885,-19.3235 L 225.264,-18.7639
 L 224.539,-18.3458 L 223.744,-18.0874 L 222.912,-18 z
M 486.088,-18 L 485.256,-18.0874 L 484.461,-18.3458 L 483.736,-18.7639 L 483.115,-19.3235 L 482.623,-20
 L 482.283,-20.7639 L 482.109,-21.5819 L 482.109,-22.4181 L 482.283,-23.2361 L 482.623,-24 L 483.115,-24.6765
 L 483.736,-25.2361 L 484.328,-25.5921 L 547.94,-56.7567 L 548.725,-57.0441 L 549.553,-57.1619 L 550.388,-57.105
 L 551.192,-56.8759 L 551.931,-56.4847 L 552.572,-55.9483 L 553.088,-55.2902 L 553.456,-54.5393 L 553.66,-53.7282
 L 553.7,-53.1646 L 553.7,-22 L 553.613,-21.1684 L 553.354,-20.373 L 552.936,-19.6489 L 552.377,-19.0274
 L 551.7,-18.5359 L 550.936,-18.1958 L 549.7,-18 z
M 22,-18 L 20.7639,-18.1958 L 20,-18.5359 L 19.3235,-19.0274 L 18.7639,-19.6489 L 18.3458,-20.373
 L 18.0874,-21.1684 L 18,-22 L 18,-52.4297 L 18.0399,-52.9934 L 18.2436,-53.8044 L 18.6115,-54.5553
 L 19.1275,-55.2134 L 19.7691,-55.7498 L 20.5081,-56.1411 L 21.3123,-56.3701 L 22.1466,-56.427 L 22.9745,-56.3092
 L 23.7598,-56.0218 L 85.8722,-25.5921 L 86.4635,-25.2361 L 87.085,-24.6765 L 87.5765,-24 L 87.9166,-23.2361
 L 88.0905,-22.4181 L 88.0905,-21.5819 L 87.9166,-20.7639 L 87.5765,-20 L 87.085,-19.3235 L 86.4635,-18.7639
 L 85.7394,-18.3458 L 84.9441,-18.0874 L 84.1124,-18 z
M 624.888,-18 L 624.056,-18.0874 L 623.261,-18.3458 L 622.536,-18.7639 L 621.915,-19.3235 L 621.423,-20
 L 621.083,-20.7639 L 620.91,-21.5819 L 620.91,-22.4181 L 621.083,-23.2361 L 621.423,-24 L 621.915,-24.6765
 L 622.536,-25.2361 L 623.128,-25.5921 L 685.24,-56.0218 L 686.025,-56.3092 L 686.853,-56.427 L 687.688,-56.3701
 L 688.492,-56.1411 L 689.231,-55.7498 L 689.872,-55.2134 L 690.388,-54.5553 L 690.756,-53.8044 L 690.96,-52.9934
 L 691,-52.4297 L 691,-22 L 690.913,-21.1684 L 690.654,-20.373 L 690.236,-19.6489 L 689.677,-19.0274
 L 689,-18.5359 L 688.236,-18.1958 L 687,-18 z
M 342.745,-18 L 342.057,-18.0596 L 341.253,-18.2886 L 340.514,-18.6799 L 339.872,-19.2163 L 339.356,-19.8744
 L 338.988,-20.6253 L 338.785,-21.4363 L 338.754,-22.272 L 338.898,-23.0958 L 339.21,-23.8717 L 339.676,-24.5658
 L 340.276,-25.1477 L 340.985,-25.5921 L 352.74,-31.3512 L 353.812,-31.6995 L 354.647,-31.7564 L 355.475,-31.6385
 L 356.26,-31.3512 L 368.015,-25.5921 L 368.606,-25.2361 L 369.228,-24.6765 L 369.719,-24 L 370.06,-23.2361
 L 370.233,-22.4181 L 370.233,-21.5819 L 370.06,-20.7639 L 369.719,-20 L 369.228,-19.3235 L 368.606,-18.7639
 L 367.882,-18.3458 L 367.087,-18.0874 L 366.255,-18 z
" stroke="black" fill="lightgray" stroke-width="0.5"/>
</svg>
