<?xml version="1.0" standalone="no"?>
<!DOCTYPE svg PUBLIC "-//W3C//DTD SVG 1.1//EN" "http://www.w3.org/Graphics/SVG/1.1/DTD/svg11.dtd">
<svg width="552mm" height="80mm" viewBox="0 -80 552 80" xmlns="http://www.w3.org/2000/svg" version="1.1">
<title>OpenSCAD Model</title>
<path d="
M 552,-80 L 0,-80 L 0,-0 L 4.95,-0 L 4.95,-6 L 5.00572,-6.53017
 L 5.17046,-7.03717 L 5.437,-7.49884 L 5.79372,-7.895 L 6.22499,-8.20836 L 6.71201,-8.42519 L 7.23344,-8.53603
 L 7.76654,-8.53603 L 8.28798,-8.42519 L 8.77499,-8.20836 L 9.20627,-7.895 L 9.56299,-7.49884 L 9.82953,-7.03717
 L 9.99426,-6.53017 L 10.05,-6 L 10.05,-0 L 139.2,-0 L 139.2,-6 L 139.256,-6.53017
 L 139.42,-7.03717 L 139.687,-7.49884 L 140.044,-7.895 L 140.475,-8.20836 L 140.962,-8.42519 L 141.483,-8.53603
 L 142.017,-8.53603 L 142.538,-8.42519 L 143.025,-8.20836 L 143.456,-7.895 L 143.813,-7.49884 L 144.08,-7.03717
 L 144.244,-6.53017 L 144.3,-6 L 144.3,-0 L 273.45,-0 L 273.45,-6 L 273.506,-6.53017
 L 273.67,-7.03717 L 273.937,-7.49884 L 274.294,-7.895 L 274.725,-8.20836 L 275.212,-8.42519 L 275.733,-8.53603
 L 276.267,-8.53603 L 276.788,-8.42519 L 277.275,-8.20836 L 277.706,-7.895 L 278.063,-7.49884 L 278.33,-7.03717
 L 278.494,-6.53017 L 278.55,-6 L 278.55,-0 L 407.7,-0 L 407.7,-6 L 407.756,-6.53017
 L 407.92,-7.03717 L 408.187,-7.49884 L 408.544,-7.895 L 408.975,-8.20836 L 409.462,-8.42519 L 409.983,-8.53603
 L 410.517,-8.53603 L 411.038,-8.42519 L 411.525,-8.20836 L 411.956,-7.895 L 412.313,-7.49884 L 412.58,-7.03717
 L 412.744,-6.53017 L 412.8,-6 L 412.8,-0 L 541.95,-0 L 541.95,-6 L 542.006,-6.53017
 L 542.17,-7.03717 L 542.437,-7.49884 L 542.794,-7.895 L 543.225,-8.20836 L 543.712,-8.42519 L 544.233,-8.53603
 L 544.767,-8.53603 L 545.288,-8.42519 L 545.775,-8.20836 L 546.206,-7.895 L 546.563,-7.49884 L 546.83,-7.03717
 L 546.994,-6.53017 L 547.05,-6 L 547.05,-0 L 552,-0 z
M 6.98573,-55.607 L 6.47708,-55.6875 L 5.97964,-55.8208 L 5.49887,-56.0054 L 5.04001,-56.2392 L 4.60811,-56.5196
 L 4.20789,-56.8437 L 3.84373,-57.2079 L 3.51964,-57.6081 L 3.23917,-58.04 L 3.00537,-58.4989 L 2.82082,-58.9796
 L 2.68752,-59.4771 L 2.60696,-59.9857 L 2.58,-60.5 L 2.60696,-61.0143 L 2.68752,-61.5229 L 2.82082,-62.0204
 L 3.00537,-62.5011 L 3.23917,-62.96 L 3.51964,-63.3919 L 3.84373,-63.7921 L 4.20789,-64.1563 L 4.60811,-64.4804
 L 4.95001,-64.7024 L 4.95001,-74 L 5.00574,-74.5302 L 5.17047,-75.0372 L 5.43701,-75.4988 L 5.79373,-75.895
 L 6.22501,-76.2084 L 6.71202,-76.4252 L 7.23346,-76.536 L 7.76654,-76.536 L 8.28798,-76.4252 L 8.77499,-76.2084
 L 9.20627,-75.895 L 9.56299,-75.4988 L 9.82953,-75.0372 L 9.99426,-74.5302 L 10.05,-74 L 10.05,-64.7024
 L 10.3919,-64.4804 L 10.7921,-64.1563 L 11.1563,-63.7921 L 11.4804,-63.3919 L 11.7608,-62.96 L 11.9946,-62.5011
 L 12.1792,-62.0204 L 12.3125,-61.5229 L 12.393,-61.0143 L 12.42,-60.5 L 12.393,-59.9857 L 12.3125,-59.4771
 L 12.1792,-58.9796 L 11.9946,-58.4989 L 11.7608,-58.04 L 11.4804,-57.6081 L 11.1563,-57.2079 L 10.7921,-56.8437
 L 10.3919,-56.5196 L 9.95999,-56.2392 L 9.50113,-56.0054 L 9.02036,-55.8208 L 8.52292,-55.6875 L 8.01427,-55.607
 L 7.5,-55.58 z
M 141.236,-55.607 L 140.727,-55.6875 L 140.23,-55.8208 L 139.749,-56.0054 L 139.29,-56.2392 L 138.858,-56.5196
 L 138.458,-56.8437 L 138.094,-57.2079 L 137.77,-57.6081 L 137.489,-58.04 L 137.255,-58.4989 L 137.071,-58.9796
 L 136.938,-59.4771 L 136.857,-59.9857 L 136.83,-60.5 L 136.857,-61.0143 L 136.938,-61.5229 L 137.071,-62.0204
 L 137.255,-62.5011 L 137.489,-62.96 L 137.77,-63.3919 L 138.094,-63.7921 L 138.458,-64.1563 L 138.858,-64.4804
 L 139.2,-64.7024 L 139.2,-74 L 139.256,-74.5302 L 139.42,-75.0372 L 139.687,-75.4988 L 140.044,-75.895
 L 140.475,-76.2084 L 140.962,-76.4252 L 141.483,-76.536 L 142.017,-76.536 L 142.538,-76.4252 L 143.025,-76.2084
 L 143.456,-75.895 L 143.813,-75.4988 L 144.08,-75.0372 L 144.244,-74.5302 L 144.3,-74 L 144.3,-64.7024
 L 144.642,-64.4804 L 145.042,-64.1563 L 145.406,-63.7921 L 145.73,-63.3919 L 146.011,-62.96 L 146.245,-62.5011
 L 146.429,-62.0204 L 146.562,-61.5229 L 146.643,-61.0143 L 146.67,-60.5 L 146.643,-59.9857 L 146.562,-59.4771
 L 146.429,-58.9796 L 146.245,-58.4989 L 146.011,-58.04 L 145.73,-57.6081 L 145.406,-57.2079 L 145.042,-56.8437
 L 144.642,-56.5196 L 144.21,-56.2392 L 143.751,-56.0054 L 143.27,-55.8208 L 142.773,-55.6875 L 142.264,-55.607
 L 141.75,-55.58 z
M 275.486,-55.607 L 274.977,-55.6875 L 274.48,-55.8208 L 273.999,-56.0054 L 273.54,-56.2392 L 273.108,-56.5196
 L 272.708,-56.8437 L 272.344,-57.2079 L 272.02,-57.6081 L 271.739,-58.04 L 271.505,-58.4989 L 271.321,-58.9796
 L 271.188,-59.4771 L 271.107,-59.9857 L 271.08,-60.5 L 271.107,-61.0143 L 271.188,-61.5229 L 271.321,-62.0204
 L 271.505,-62.5011 L 271.739,-62.96 L 272.02,-63.3919 L 272.344,-63.7921 L 272.708,-64.1563 L 273.108,-64.4804
 L 273.45,-64.7024 L 273.45,-74 L 273.506,-74.5302 L 273.67,-75.0372 L 273.937,-75.4988 L 274.294,-75.895
 L 274.725,-76.2084 L 275.212,-76.4252 L 275.733,-76.536 L 276.267,-76.536 L 276.788,-76.4252 L 277.275,-76.2084
 L 277.706,-75.895 L 278.063,-75.4988 L 278.33,-75.0372 L 278.494,-74.5302 L 278.55,-74 L 278.55,-64.7024
 L 278.892,-64.4804 L 279.292,-64.1563 L 279.656,-63.7921 L 279.98,-63.3919 L 280.261,-62.96 L 280.495,-62.5011
 L 280.679,-62.0204 L 280.812,-61.5229 L 280.893,-61.0143 L 280.92,-60.5 L 280.893,-59.9857 L 280.812,-59.4771
 L 280.679,-58.9796 L 280.495,-58.4989 L 280.261,-58.04 L 279.98,-57.6081 L 279.656,-57.2079 L 279.292,-56.8437
 L 278.892,-56.5196 L 278.46,-56.2392 L 278.001,-56.0054 L 277.52,-55.8208 L 277.023,-55.6875 L 276.514,-55.607
 L 276,-55.58 z
M 409.736,-55.607 L 409.227,-55.6875 L 408.73,-55.8208 L 408.249,-56.0054 L 407.79,-56.2392 L 407.358,-56.5196
 L 406.958,-56.8437 L 406.594,-57.2079 L 406.27,-57.6081 L 405.989,-58.04 L 405.755,-58.4989 L 405.571,-58.9796
 L 405.438,-59.4771 L 405.357,-59.9857 L 405.33,-60.5 L 405.357,-61.0143 L 405.438,-61.5229 L 405.571,-62.0204
 L 405.755,-62.5011 L 405.989,-62.96 L 406.27,-63.3919 L 406.594,-63.7921 L 406.958,-64.1563 L 407.358,-64.4804
 L 407.7,-64.7024 L 407.7,-74 L 407.756,-74.5302 L 407.92,-75.0372 L 408.187,-75.4988 L 408.544,-75.895
 L 408.975,-76.2084 L 409.462,-76.4252 L 409.983,-76.536 L 410.517,-76.536 L 411.038,-76.4252 L 411.525,-76.2084
 L 411.956,-75.895 L 412.313,-75.4988 L 412.58,-75.0372 L 412.744,-74.5302 L 412.8,-74 L 412.8,-64.7024
 L 413.142,-64.4804 L 413.542,-64.1563 L 413.906,-63.7921 L 414.23,-63.3919 L 414.511,-62.96 L 414.745,-62.5011
 L 414.929,-62.0204 L 415.062,-61.5229 L 415.143,-61.0143 L 415.17,-60.5 L 415.143,-59.9857 L 415.062,-59.4771
 L 414.929,-58.9796 L 414.745,-58.4989 L 414.511,-58.04 L 414.23,-57.6081 L 413.906,-57.2079 L 413.542,-56.8437
 L 413.142,-56.5196 L 412.71,-56.2392 L 412.251,-56.0054 L 411.77,-55.8208 L 411.273,-55.6875 L 410.764,-55.607
 L 410.25,-55.58 z
M 543.986,-55.607 L 543.477,-55.6875 L 542.98,-55.8208 L 542.499,-56.0054 L 542.04,-56.2392 L 541.608,-56.5196
 L 541.208,-56.8437 L 540.844,-57.2079 L 540.52,-57.6081 L 540.239,-58.04 L 540.005,-58.4989 L 539.821,-58.9796
 L 539.688,-59.4771 L 539.607,-59.9857 L 539.58,-60.5 L 539.607,-61.0143 L 539.688,-61.5229 L 539.821,-62.0204
 L 540.005,-62.5011 L 540.239,-62.96 L 540.52,-63.3919 L 540.844,-63.7921 L 541.208,-64.1563 L 541.608,-64.4804
 L 541.95,-64.7024 L 541.95,-74 L 542.006,-74.5302 L 542.17,-75.0372 L 542.437,-75.4988 L 542.794,-75.895
 L 543.225,-76.2084 L 543.712,-76.4252 L 544.233,-76.536 L 544.767,-76.536 L 545.288,-76.4252 L 545.775,-76.2084
 L 546.206,-75.895 L 546.563,-75.4988 L 546.83,-75.0372 L 546.994,-74.5302 L 547.05,-74 L 547.05,-64.7024
 L 547.392,-64.4804 L 547.792,-64.1563 L 548.156,-63.7921 L 548.48,-63.3919 L 548.761,-62.96 L 548.995,-62.5011
 L 549.179,-62.0204 L 549.312,-61.5229 L 549.393,-61.0143 L 549.42,-60.5 L 549.393,-59.9857 L 549.312,-59.4771
 L 549.179,-58.9796 L 548.995,-58.4989 L 548.761,-58.04 L 548.48,-57.6081 L 548.156,-57.2079 L 547.792,-56.8437
 L 547.392,-56.5196 L 546.96,-56.2392 L 546.501,-56.0054 L 546.02,-55.8208 L 545.523,-55.6875 L 545.014,-55.607
 L 544.5,-55.58 z
M 288.365,-23.1898 L 287.558,-23.4082 L 286.813,-23.7896 L 286.165,-24.3174 L 285.64,-24.9685 L 285.262,-25.7145
 L 285.048,-26.5228 L 285,-27.1391 L 285,-58 L 285.087,-58.8316 L 285.346,-59.627 L 285.764,-60.3511
 L 286.323,-60.9726 L 287,-61.4641 L 287.764,-61.8042 L 289,-62 L 349.928,-62 L 350.759,-61.9126
 L 351.555,-61.6542 L 352.279,-61.2361 L 352.9,-60.6765 L 353.392,-60 L 353.732,-59.2361 L 353.906,-58.4181
 L 353.906,-57.5819 L 353.732,-56.7639 L 353.392,-56 L 352.9,-55.3235 L 352.279,-54.7639 L 351.735,-54.4316
 L 290.807,-23.5707 L 290.026,-23.2729 L 289.2,-23.144 z
M 261.974,-23.2729 L 261.193,-23.5707 L 200.265,-54.4316 L 199.721,-54.7639 L 199.1,-55.3235 L 198.608,-56
 L 198.268,-56.7639 L 198.094,-57.5819 L 198.094,-58.4181 L 198.268,-59.2361 L 198.608,-60 L 199.1,-60.6765
 L 199.721,-61.2361 L 200.445,-61.6542 L 201.241,-61.9126 L 202.072,-62 L 263,-62 L 264.236,-61.8042
 L 265,-61.4641 L 265.677,-60.9726 L 266.236,-60.3511 L 266.654,-59.627 L 266.913,-58.8316 L 267,-58
 L 267,-27.1391 L 266.952,-26.5228 L 266.738,-25.7145 L 266.36,-24.9685 L 265.835,-24.3174 L 265.187,-23.7896
 L 264.442,-23.4082 L 263.635,-23.1898 L 262.8,-23.144 z
M 422.615,-23.1898 L 421.808,-23.4082 L 421.063,-23.7896 L 420.415,-24.3174 L 419.89,-24.9685 L 419.512,-25.7145
 L 419.298,-26.5228 L 419.25,-27.1391 L 419.25,-58 L 419.337,-58.8316 L 419.596,-59.627 L 420.014,-60.3511
 L 420.573,-60.9726 L 421.25,-61.4641 L 422.014,-61.8042 L 423.25,-62 L 484.178,-62 L 485.009,-61.9126
 L 485.805,-61.6542 L 486.529,-61.2361 L 487.15,-60.6765 L 487.642,-60 L 487.982,-59.2361 L 488.156,-58.4181
 L 488.156,-57.5819 L 487.982,-56.7639 L 487.642,-56 L 487.15,-55.3235 L 486.529,-54.7639 L 485.985,-54.4316
 L 425.057,-23.5707 L 424.276,-23.2729 L 423.45,-23.144 z
M 127.724,-23.2729 L 126.943,-23.5707 L 66.0149,-54.4316 L 65.4712,-54.7639 L 64.8498,-55.3235 L 64.3582,-56
 L 64.0181,-56.7639 L 63.8443,-57.5819 L 63.8443,-58.4181 L 64.0181,-59.2361 L 64.3582,-60 L 64.8498,-60.6765
 L 65.4712,-61.2361 L 66.1954,-61.6542 L 66.9907,-61.9126 L 67.8223,-62 L 128.75,-62 L 129.986,-61.8042
 L 130.75,-61.4641 L 131.427,-60.9726 L 131.986,-60.3511 L 132.404,-59.627 L 132.663,-58.8316 L 132.75,-58
 L 132.75,-27.1391 L 132.702,-26.5228 L 132.488,-25.7145 L 132.11,-24.9685 L 131.585,-24.3174 L 130.937,-23.7896
 L 130.192,-23.4082 L 129.385,-23.1898 L 128.55,-23.144 z
M 336.322,-18 L 335.491,-18.0874 L 334.695,-18.3458 L 333.971,-18.7639 L 333.35,-19.3235 L 332.858,-20
 L 332.518,-20.7639 L 332.344,-21.5819 L 332.344,-22.4181 L 332.518,-23.2361 L 332.858,-24 L 333.35,-24.6765
 L 333.971,-25.2361 L 334.515,-25.5684 L 395.443,-56.4293 L 396.224,-56.7271 L 397.05,-56.8559 L 397.885,-56.8102
 L 398.692,-56.5918 L 399.437,-56.2104 L 400.085,-55.6826 L 400.61,-55.0315 L 400.988,-54.2855 L 401.202,-53.4772
 L 401.25,-52.8609 L 401.25,-22 L 401.163,-21.1684 L 400.904,-20.373 L 400.486,-19.6489 L 399.927,-19.0274
 L 399.25,-18.5359 L 398.486,-18.1958 L 397.25,-18 z
M 154.75,-18 L 153.514,-18.1958 L 152.75,-18.5359 L 152.073,-19.0274 L 151.514,-19.6489 L 151.096,-20.373
 L 150.837,-21.1684 L 150.75,-22 L 150.75,-52.8609 L 150.798,-53.4772 L 151.012,-54.2855 L 151.39,-55.0315
 L 151.915,-55.6826 L 152.563,-56.2104 L 153.308,-56.5918 L 154.115,-56.8102 L 154.95,-56.8559 L 155.776,-56.7271
 L 156.557,-56.4293 L 217.485,-25.5684 L 218.029,-25.2361 L 218.65,-24.6765 L 219.142,-24 L 219.482,-23.2361
 L 219.656,-22.4181 L 219.656,-21.5819 L 219.482,-20.7639 L 219.142,-20 L 218.65,-19.3235 L 218.029,-18.7639
 L 217.305,-18.3458 L 216.509,-18.0874 L 215.678,-18 z
M 22,-18 L 20.7639,-18.1958 L 20,-18.5359 L 19.3235,-19.0274 L 18.7639,-19.6489 L 18.3458,-20.373
 L 18.0874,-21.1684 L 18,-22 L 18,-52.1012 L 18.0478,-52.7174 L 18.2623,-53.5257 L 18.6401,-54.2717
 L 19.1648,-54.9228 L 19.8134,-55.4506 L 20.5576,-55.832 L 21.3648,-56.0504 L 22.1998,-56.0962 L 23.026,-55.9673
 L 23.8074,-55.6695 L 83.2351,-25.5684 L 83.7788,-25.2361 L 84.4002,-24.6765 L 84.8917,-24 L 85.2319,-23.2361
 L 85.4057,-22.4181 L 85.4057,-21.5819 L 85.2319,-20.7639 L 84.8917,-20 L 84.4002,-19.3235 L 83.7788,-18.7639
 L 83.0546,-18.3458 L 82.2593,-18.0874 L 81.4276,-18 z
M 470.572,-18 L 469.741,-18.0874 L 468.945,-18.3458 L 468.221,-18.7639 L 467.6,-19.3235 L 467.108,-20
 L 466.768,-20.7639 L 466.594,-21.5819 L 466.594,-22.4181 L 466.768,-23.2361 L 467.108,-24 L 467.6,-24.6765
 L 468.221,-25.2361 L 468.765,-25.5684 L 528.193,-55.6695 L 528.974,-55.9673 L 529.8,-56.0962 L 530.635,-56.0504
 L 531.442,-55.832 L 532.187,-55.4506 L 532.835,-54.9228 L 533.36,-54.2717 L 533.738,-53.5257 L 533.952,-52.7174
 L 534,-52.1012 L 534,-22 L 533.913,-21.1684 L 533.654,-20.373 L 533.236,-19.6489 L 532.677,-19.0274
 L 532,-18.5359 L 531.236,-18.1958 L 530,-18 z
" stroke="black" fill="lightgray" stroke-width="0.5"/>
</svg>
