<?xml version="1.0" standalone="no"?>
<!DOCTYPE svg PUBLIC "-//W3C//DTD SVG 1.1//EN" "http://www.w3.org/Graphics/SVG/1.1/DTD/svg11.dtd">
<svg width="895mm" height="80mm" viewBox="0 -80 895 80" xmlns="http://www.w3.org/2000/svg" version="1.1">
<title>OpenSCAD Model</title>
<path d="
M 895,-80 L 0,-80 L 0,-0 L 4.95,-0 L 4.95,-6 L 5.00572,-6.53017
 L 5.17046,-7.03717 L 5.437,-7.49884 L 5.79372,-7.895 L 6.22499,-8.20836 L 6.71201,-8.42519 L 7.23344,-8.53603
 L 7.76654,-8.53603 L 8.28798,-8.42519 L 8.77499,-8.20836 L 9.20627,-7.895 L 9.56299,-7.49884 L 9.82953,-7.03717
 L 9.99426,-6.53017 L 10.05,-6 L 10.05,-0 L 180.95,-0 L 180.95,-6 L 181.006,-6.53017
 L 181.17,-7.03717 L 181.437,-7.49884 L 181.794,-7.895 L 182.225,-8.20836 L 182.712,-8.42519 L 183.233,-8.53603
 L 183.767,-8.53603 L 184.288,-8.42519 L 184.775,-8.20836 L 185.206,-7.895 L 185.563,-7.49884 L 185.83,-7.03717
 L 185.994,-6.53017 L 186.05,-6 L 186.05,-0 L 356.95,-0 L 356.95,-6 L 357.006,-6.53017
 L 357.17,-7.03717 L 357.437,-7.49884 L 357.794,-7.895 L 358.225,-8.20836 L 358.712,-8.42519 L 359.233,-8.53603
 L 359.767,-8.53603 L 360.288,-8.42519 L 360.775,-8.20836 L 361.206,-7.895 L 361.563,-7.49884 L 361.83,-7.03717
 L 361.994,-6.53017 L 362.05,-6 L 362.05,-0 L 532.95,-0 L 532.95,-6 L 533.006,-6.53017
 L 533.17,-7.03717 L 533.437,-7.49884 L 533.794,-7.895 L 534.225,-8.20836 L 534.712,-8.42519 L 535.233,-8.53603
 L 535.767,-8.53603 L 536.288,-8.42519 L 536.775,-8.20836 L 537.206,-7.895 L 537.563,-7.49884 L 537.83,-7.03717
 L 537.994,-6.53017 L 538.05,-6 L 538.05,-0 L 708.95,-0 L 708.95,-6 L 709.006,-6.53017
 L 709.17,-7.03717 L 709.437,-7.49884 L 709.794,-7.895 L 710.225,-8.20836 L 710.712,-8.42519 L 711.233,-8.53603
 L 711.767,-8.53603 L 712.288,-8.42519 L 712.775,-8.20836 L 713.206,-7.895 L 713.563,-7.49884 L 713.83,-7.03717
 L 713.994,-6.53017 L 714.05,-6 L 714.05,-0 L 884.95,-0 L 884.95,-6 L 885.006,-6.53017
 L 885.17,-7.03717 L 885.437,-7.49884 L 885.794,-7.895 L 886.225,-8.20836 L 886.712,-8.42519 L 887.233,-8.53603
 L 887.767,-8.53603 L 888.288,-8.42519 L 888.775,-8.20836 L 889.206,-7.895 L 889.563,-7.49884 L 889.83,-7.03717
 L 889.994,-6.53017 L 890.05,-6 L 890.05,-0 L 895,-0 z
M 6.98573,-55.607 L 6.47708,-55.6875 L 5.97964,-55.8208 L 5.49887,-56.0054 L 5.04001,-56.2392 L 4.60811,-56.5196
 L 4.20789,-56.8437 L 3.84373,-57.2079 L 3.51964,-57.6081 L 3.23917,-58.04 L 3.00537,-58.4989 L 2.82082,-58.9796
 L 2.68752,-59.4771 L 2.60696,-59.9857 L 2.58,-60.5 L 2.60696,-61.0143 L 2.68752,-61.5229 L 2.82082,-62.0204
 L 3.00537,-62.5011 L 3.23917,-62.96 L 3.51964,-63.3919 L 3.84373,-63.7921 L 4.20789,-64.1563 L 4.60811,-64.4804
 L 4.95001,-64.7024 L 4.95001,-74 L 5.00574,-74.5302 L 5.17047,-75.0372 L 5.43701,-75.4988 L 5.79373,-75.895
 L 6.22501,-76.2084 L 6.71202,-76.4252 L 7.23346,-76.536 L 7.76654,-76.536 L 8.28798,-76.4252 L 8.77499,-76.2084
 L 9.20627,-75.895 L 9.56299,-75.4988 L 9.82953,-75.0372 L 9.99426,-74.5302 L 10.05,-74 L 10.05,-64.7024
 L 10.3919,-64.4804 L 10.7921,-64.1563 L 11.1563,-63.7921 L 11.4804,-63.3919 L 11.7608,-62.96 L 11.9946,-62.5011
 L 12.1792,-62.0204 L 12.3125,-61.5229 L 12.393,-61.0143 L 12.42,-60.5 L 12.393,-59.9857 L 12.3125,-59.4771
 L 12.1792,-58.9796 L 11.9946,-58.4989 L 11.7608,-58.04 L 11.4804,-57.6081 L 11.1563,-57.2079 L 10.7921,-56.8437
 L 10.3919,-56.5196 L 9.95999,-56.2392 L 9.50113,-56.0054 L 9.02036,-55.8208 L 8.52292,-55.6875 L 8.01427,-55.607
 L 7.5,-55.58 z
M 182.986,-55.607 L 182.477,-55.6875 L 181.98,-55.8208 L 181.499,-56.0054 L 181.04,-56.2392 L 180.608,-56.5196
 L 180.208,-56.8437 L 179.844,-57.2079 L 179.52,-57.6081 L 179.239,-58.04 L 179.005,-58.4989 L 178.821,-58.9796
 L 178.688,-59.4771 L 178.607,-59.9857 L 178.58,-60.5 L 178.607,-61.0143 L 178.688,-61.5229 L 178.821,-62.0204
 L 179.005,-62.5011 L 179.239,-62.96 L 179.52,-63.3919 L 179.844,-63.7921 L 180.208,-64.1563 L 180.608,-64.4804
 L 180.95,-64.7024 L 180.95,-74 L 181.006,-74.5302 L 181.17,-75.0372 L 181.437,-75.4988 L 181.794,-75.895
 L 182.225,-76.2084 L 182.712,-76.4252 L 183.233,-76.536 L 183.767,-76.536 L 184.288,-76.4252 L 184.775,-76.2084
 L 185.206,-75.895 L 185.563,-75.4988 L 185.83,-75.0372 L 185.994,-74.5302 L 186.05,-74 L 186.05,-64.7024
 L 186.392,-64.4804 L 186.792,-64.1563 L 187.156,-63.7921 L 187.48,-63.3919 L 187.761,-62.96 L 187.995,-62.5011
 L 188.179,-62.0204 L 188.312,-61.5229 L 188.393,-61.0143 L 188.42,-60.5 L 188.393,-59.9857 L 188.312,-59.4771
 L 188.179,-58.9796 L 187.995,-58.4989 L 187.761,-58.04 L 187.48,-57.6081 L 187.156,-57.2079 L 186.792,-56.8437
 L 186.392,-56.5196 L 185.96,-56.2392 L 185.501,-56.0054 L 185.02,-55.8208 L 184.523,-55.6875 L 184.014,-55.607
 L 183.5,-55.58 z
M 358.986,-55.607 L 358.477,-55.6875 L 357.98,-55.8208 L 357.499,-56.0054 L 357.04,-56.2392 L 356.608,-56.5196
 L 356.208,-56.8437 L 355.844,-57.2079 L 355.52,-57.6081 L 355.239,-58.04 L 355.005,-58.4989 L 354.821,-58.9796
 L 354.688,-59.4771 L 354.607,-59.9857 L 354.58,-60.5 L 354.607,-61.0143 L 354.688,-61.5229 L 354.821,-62.0204
 L 355.005,-62.5011 L 355.239,-62.96 L 355.52,-63.3919 L 355.844,-63.7921 L 356.208,-64.1563 L 356.608,-64.4804
 L 356.95,-64.7024 L 356.95,-74 L 357.006,-74.5302 L 357.17,-75.0372 L 357.437,-75.4988 L 357.794,-75.895
 L 358.225,-76.2084 L 358.712,-76.4252 L 359.233,-76.536 L 359.767,-76.536 L 360.288,-76.4252 L 360.775,-76.2084
 L 361.206,-75.895 L 361.563,-75.4988 L 361.83,-75.0372 L 361.994,-74.5302 L 362.05,-74 L 362.05,-64.7024
 L 362.392,-64.4804 L 362.792,-64.1563 L 363.156,-63.7921 L 363.48,-63.3919 L 363.761,-62.96 L 363.995,-62.5011
 L 364.179,-62.0204 L 364.312,-61.5229 L 364.393,-61.0143 L 364.42,-60.5 L 364.393,-59.9857 L 364.312,-59.4771
 L 364.179,-58.9796 L 363.995,-58.4989 L 363.761,-58.04 L 363.48,-57.6081 L 363.156,-57.2079 L 362.792,-56.8437
 L 362.392,-56.5196 L 361.96,-56.2392 L 361.501,-56.0054 L 361.02,-55.8208 L 360.523,-55.6875 L 360.014,-55.607
 L 359.5,-55.58 z
M 534.986,-55.607 L 534.477,-55.6875 L 533.98,-55.8208 L 533.499,-56.0054 L 533.04,-56.2392 L 532.608,-56.5196
 L 532.208,-56.8437 L 531.844,-57.2079 L 531.52,-57.6081 L 531.239,-58.04 L 531.005,-58.4989 L 530.821,-58.9796
 L 530.688,-59.4771 L 530.607,-59.9857 L 530.58,-60.5 L 530.607,-61.0143 L 530.688,-61.5229 L 530.821,-62.0204
 L 531.005,-62.5011 L 531.239,-62.96 L 531.52,-63.3919 L 531.844,-63.7921 L 532.208,-64.1563 L 532.608,-64.4804
 L 532.95,-64.7024 L 532.95,-74 L 533.006,-74.5302 L 533.17,-75.0372 L 533.437,-75.4988 L 533.794,-75.895
 L 534.225,-76.2084 L 534.712,-76.4252 L 535.233,-76.536 L 535.767,-76.536 L 536.288,-76.4252 L 536.775,-76.2084
 L 537.206,-75.895 L 537.563,-75.4988 L 537.83,-75.0372 L 537.994,-74.5302 L 538.05,-74 L 538.05,-64.7024
 L 538.392,-64.4804 L 538.792,-64.1563 L 539.156,-63.7921 L 539.48,-63.3919 L 539.761,-62.96 L 539.995,-62.5011
 L 540.179,-62.0204 L 540.312,-61.5229 L 540.393,-61.0143 L 540.42,-60.5 L 540.393,-59.9857 L 540.312,-59.4771
 L 540.179,-58.9796 L 539.995,-58.4989 L 539.761,-58.04 L 539.48,-57.6081 L 539.156,-57.2079 L 538.792,-56.8437
 L 538.392,-56.5196 L 537.96,-56.2392 L 537.501,-56.0054 L 537.02,-55.8208 L 536.523,-55.6875 L 536.014,-55.607
 L 535.5,-55.58 z
M 710.986,-55.607 L 710.477,-55.6875 L 709.98,-55.8208 L 709.499,-56.0054 L 709.04,-56.2392 L 708.608,-56.5196
 L 708.208,-56.8437 L 707.844,-57.2079 L 707.52,-57.6081 L 707.239,-58.04 L 707.005,-58.4989 L 706.821,-58.9796
 L 706.688,-59.4771 L 706.607,-59.9857 L 706.58,-60.5 L 706.607,-61.0143 L 706.688,-61.5229 L 706.821,-62.0204
 L 707.005,-62.5011 L 707.239,-62.96 L 707.52,-63.3919 L 707.844,-63.7921 L 708.208,-64.1563 L 708.608,-64.4804
 L 708.95,-64.7024 L 708.95,-74 L 709.006,-74.5302 L 709.17,-75.0372 L 709.437,-75.4988 L 709.794,-75.895
 L 710.225,-76.2084 L 710.712,-76.4252 L 711.233,-76.536 L 711.767,-76.536 L 712.288,-76.4252 L 712.775,-76.2084
 L 713.206,-75.895 L 713.563,-75.4988 L 713.83,-75.0372 L 713.994,-74.5302 L 714.05,-74 L 714.05,-64.7024
 L 714.392,-64.4804 L 714.792,-64.1563 L 715.156,-63.7921 L 715.48,-63.3919 L 715.761,-62.96 L 715.995,-62.5011
 L 716.179,-62.0204 L 716.312,-61.5229 L 716.393,-61.0143 L 716.42,-60.5 L 716.393,-59.9857 L 716.312,-59.4771
 L 716.179,-58.9796 L 715.995,-58.4989 L 715.761,-58.04 L 715.48,-57.6081 L 715.156,-57.2079 L 714.792,-56.8437
 L 714.392,-56.5196 L 713.96,-56.2392 L 713.501,-56.0054 L 713.02,-55.8208 L 712.523,-55.6875 L 712.014,-55.607
 L 711.5,-55.58 z
M 886.986,-55.607 L 886.477,-55.6875 L 885.98,-55.8208 L 885.499,-56.0054 L 885.04,-56.2392 L 884.608,-56.5196
 L 884.208,-56.8437 L 883.844,-57.2079 L 883.52,-57.6081 L 883.239,-58.04 L 883.005,-58.4989 L 882.821,-58.9796
 L 882.688,-59.4771 L 882.607,-59.9857 L 882.58,-60.5 L 882.607,-61.0143 L 882.688,-61.5229 L 882.821,-62.0204
 L 883.005,-62.5011 L 883.239,-62.96 L 883.52,-63.3919 L 883.844,-63.7921 L 884.208,-64.1563 L 884.608,-64.4804
 L 884.95,-64.7024 L 884.95,-74 L 885.006,-74.5302 L 885.17,-75.0372 L 885.437,-75.4988 L 885.794,-75.895
 L 886.225,-76.2084 L 886.712,-76.4252 L 887.233,-76.536 L 887.767,-76.536 L 888.288,-76.4252 L 888.775,-76.2084
 L 889.206,-75.895 L 889.563,-75.4988 L 889.83,-75.0372 L 889.994,-74.5302 L 890.05,-74 L 890.05,-64.7024
 L 890.392,-64.4804 L 890.792,-64.1563 L 891.156,-63.7921 L 891.48,-63.3919 L 891.761,-62.96 L 891.995,-62.5011
 L 892.179,-62.0204 L 892.312,-61.5229 L 892.393,-61.0143 L 892.42,-60.5 L 892.393,-59.9857 L 892.312,-59.4771
 L 892.179,-58.9796 L 891.995,-58.4989 L 891.761,-58.04 L 891.48,-57.6081 L 891.156,-57.2079 L 890.792,-56.8437
 L 890.392,-56.5196 L 889.96,-56.2392 L 889.501,-56.0054 L 889.02,-55.8208 L 888.523,-55.6875 L 888.014,-55.607
 L 887.5,-55.58 z
M 446.866,-47.8282 L 446.058,-48.0464 L 429.953,-54.2688 L 429.044,-54.7639 L 428.422,-55.3235 L 427.931,-56
 L 427.591,-56.7639 L 427.417,-57.5819 L 427.417,-58.4181 L 427.591,-59.2361 L 427.931,-60 L 428.422,-60.6765
 L 429.044,-61.2361 L 429.768,-61.6542 L 430.563,-61.9126 L 431.395,-62 L 463.605,-62 L 464.632,-61.866
 L 465.413,-61.568 L 466.115,-61.1141 L 466.708,-60.524 L 467.165,-59.8237 L 467.466,-59.0437 L 467.599,-58.218
 L 467.557,-57.3829 L 467.342,-56.5747 L 466.964,-55.8288 L 466.44,-55.1777 L 465.791,-54.6501 L 465.047,-54.2688
 L 448.942,-48.0464 L 448.527,-47.9117 L 447.701,-47.7827 z
M 345.866,-20.9924 L 345.058,-21.2106 L 259.496,-54.2688 L 258.586,-54.7639 L 257.965,-55.3235 L 257.473,-56
 L 257.133,-56.7639 L 256.959,-57.5819 L 256.959,-58.4181 L 257.133,-59.2361 L 257.473,-60 L 257.965,-60.6765
 L 258.586,-61.2361 L 259.31,-61.6542 L 260.106,-61.9126 L 260.937,-62 L 346.5,-62 L 347.736,-61.8042
 L 348.5,-61.4641 L 349.177,-60.9726 L 349.736,-60.3511 L 350.154,-59.627 L 350.413,-58.8316 L 350.5,-58
 L 350.5,-24.9417 L 350.361,-23.8981 L 350.06,-23.118 L 349.603,-22.4177 L 349.011,-21.8277 L 348.308,-21.3738
 L 347.527,-21.0758 L 346.701,-20.9468 z
M 723.473,-21.0758 L 722.692,-21.3738 L 721.989,-21.8277 L 721.397,-22.4177 L 720.94,-23.118 L 720.639,-23.8981
 L 720.5,-24.9417 L 720.5,-58 L 720.587,-58.8316 L 720.846,-59.627 L 721.264,-60.3511 L 721.823,-60.9726
 L 722.5,-61.4641 L 723.264,-61.8042 L 724.5,-62 L 810.063,-62 L 810.894,-61.9126 L 811.69,-61.6542
 L 812.414,-61.2361 L 813.035,-60.6765 L 813.527,-60 L 813.867,-59.2361 L 814.041,-58.4181 L 814.041,-57.5819
 L 813.867,-56.7639 L 813.527,-56 L 813.035,-55.3235 L 812.414,-54.7639 L 811.504,-54.2688 L 725.942,-21.2106
 L 725.134,-20.9924 L 724.299,-20.9468 z
M 169.866,-20.9924 L 169.058,-21.2106 L 83.4958,-54.2688 L 82.5863,-54.7639 L 81.9648,-55.3235 L 81.4733,-56
 L 81.1332,-56.7639 L 80.9593,-57.5819 L 80.9593,-58.4181 L 81.1332,-59.2361 L 81.4733,-60 L 81.9648,-60.6765
 L 82.5863,-61.2361 L 83.3105,-61.6542 L 84.1058,-61.9126 L 84.9374,-62 L 170.5,-62 L 171.736,-61.8042
 L 172.5,-61.4641 L 173.177,-60.9726 L 173.736,-60.3511 L 174.154,-59.627 L 174.413,-58.8316 L 174.5,-58
 L 174.5,-24.9417 L 174.361,-23.8981 L 174.06,-23.118 L 173.603,-22.4177 L 173.011,-21.8277 L 172.308,-21.3738
 L 171.527,-21.0758 L 170.701,-20.9468 z
M 547.473,-21.0758 L 546.692,-21.3738 L 545.989,-21.8277 L 545.397,-22.4177 L 544.94,-23.118 L 544.639,-23.8981
 L 544.5,-24.9417 L 544.5,-58 L 544.587,-58.8316 L 544.846,-59.627 L 545.264,-60.3511 L 545.823,-60.9726
 L 546.5,-61.4641 L 547.264,-61.8042 L 548.5,-62 L 634.063,-62 L 634.894,-61.9126 L 635.69,-61.6542
 L 636.414,-61.2361 L 637.035,-60.6765 L 637.527,-60 L 637.867,-59.2361 L 638.041,-58.4181 L 638.041,-57.5819
 L 637.867,-56.7639 L 637.527,-56 L 637.035,-55.3235 L 636.414,-54.7639 L 635.504,-54.2688 L 549.942,-21.2106
 L 549.134,-20.9924 L 548.299,-20.9468 z
M 372.082,-18.8223 L 371.264,-18.9961 L 370.5,-19.3363 L 369.823,-19.8278 L 369.264,-20.4492 L 368.846,-21.1734
 L 368.587,-21.9687 L 368.5,-22.8004 L 368.5,-57.1996 L 368.639,-58.2433 L 368.94,-59.0233 L 369.397,-59.7237
 L 369.989,-60.3137 L 370.692,-60.7676 L 371.473,-61.0656 L 372.299,-61.1946 L 373.134,-61.149 L 373.942,-60.9308
 L 418.458,-43.7312 L 419.527,-43.1141 L 420.12,-42.524 L 420.577,-41.8237 L 420.878,-41.0437 L 421.011,-40.218
 L 420.969,-39.3829 L 420.754,-38.5747 L 420.376,-37.8288 L 419.851,-37.1777 L 419.203,-36.6501 L 418.458,-36.2688
 L 373.942,-19.0692 L 372.918,-18.8223 z
M 521.866,-18.851 L 521.058,-19.0692 L 476.542,-36.2688 L 475.473,-36.8859 L 474.88,-37.476 L 474.423,-38.1763
 L 474.122,-38.9563 L 473.989,-39.782 L 474.031,-40.6171 L 474.246,-41.4253 L 474.624,-42.1712 L 475.149,-42.8223
 L 475.797,-43.3499 L 476.542,-43.7312 L 521.058,-60.9308 L 522.082,-61.1777 L 522.918,-61.1777 L 523.736,-61.0039
 L 524.5,-60.6637 L 525.177,-60.1722 L 525.736,-59.5508 L 526.154,-58.8266 L 526.413,-58.0313 L 526.5,-57.1996
 L 526.5,-22.8004 L 526.361,-21.7567 L 526.06,-20.9766 L 525.603,-20.2763 L 525.011,-19.6863 L 524.308,-19.2324
 L 523.527,-18.9344 L 522.701,-18.8054 z
M 196.5,-18 L 195.264,-18.1958 L 194.5,-18.5359 L 193.823,-19.0274 L 193.264,-19.6489 L 192.846,-20.373
 L 192.587,-21.1684 L 192.5,-22 L 192.5,-55.0583 L 192.639,-56.1019 L 192.94,-56.882 L 193.397,-57.5823
 L 193.989,-58.1723 L 194.692,-58.6262 L 195.473,-58.9242 L 196.299,-59.0532 L 197.134,-59.0076 L 197.942,-58.7894
 L 283.504,-25.7312 L 284.414,-25.2361 L 285.035,-24.6765 L 285.527,-24 L 285.867,-23.2361 L 286.041,-22.4181
 L 286.041,-21.5819 L 285.867,-20.7639 L 285.527,-20 L 285.035,-19.3235 L 284.414,-18.7639 L 283.689,-18.3458
 L 282.894,-18.0874 L 282.063,-18 z
M 612.937,-18 L 612.106,-18.0874 L 611.311,-18.3458 L 610.586,-18.7639 L 609.965,-19.3235 L 609.473,-20
 L 609.133,-20.7639 L 608.959,-21.5819 L 608.959,-22.4181 L 609.133,-23.2361 L 609.473,-24 L 609.965,-24.6765
 L 610.586,-25.2361 L 611.496,-25.7312 L 697.058,-58.7894 L 697.866,-59.0076 L 698.701,-59.0532 L 699.527,-58.9242
 L 700.308,-58.6262 L 701.011,-58.1723 L 701.603,-57.5823 L 702.06,-56.882 L 702.361,-56.1019 L 702.5,-55.0583
 L 702.5,-22 L 702.413,-21.1684 L 702.154,-20.373 L 701.736,-19.6489 L 701.177,-19.0274 L 700.5,-18.5359
 L 699.736,-18.1958 L 698.5,-18 z
M 22,-18 L 20.7639,-18.1958 L 20,-18.5359 L 19.3235,-19.0274 L 18.7639,-19.6489 L 18.3458,-20.373
 L 18.0874,-21.1684 L 18,-22 L 18,-54.4787 L 18.1386,-55.5224 L 18.4399,-56.3024 L 18.8969,-57.0027
 L 19.4895,-57.5928 L 20.1918,-58.0467 L 20.9731,-58.3447 L 21.7993,-58.4737 L 22.6343,-58.4281 L 23.4416,-58.2099
 L 107.504,-25.7312 L 108.414,-25.2361 L 109.035,-24.6765 L 109.527,-24 L 109.867,-23.2361 L 110.041,-22.4181
 L 110.041,-21.5819 L 109.867,-20.7639 L 109.527,-20 L 109.035,-19.3235 L 108.414,-18.7639 L 107.689,-18.3458
 L 106.894,-18.0874 L 106.063,-18 z
M 788.937,-18 L 788.106,-18.0874 L 787.311,-18.3458 L 786.586,-18.7639 L 785.965,-19.3235 L 785.473,-20
 L 785.133,-20.7639 L 784.959,-21.5819 L 784.959,-22.4181 L 785.133,-23.2361 L 785.473,-24 L 785.965,-24.6765
 L 786.586,-25.2361 L 787.496,-25.7312 L 871.558,-58.2099 L 872.366,-58.4281 L 873.201,-58.4737 L 874.027,-58.3447
 L 874.808,-58.0467 L 875.511,-57.5928 L 876.103,-57.0027 L 876.56,-56.3024 L 876.861,-55.5224 L 877,-54.4787
 L 877,-22 L 876.913,-21.1684 L 876.654,-20.373 L 876.236,-19.6489 L 875.677,-19.0274 L 875,-18.5359
 L 874.236,-18.1958 L 873,-18 z
M 431.395,-18 L 430.368,-18.134 L 429.587,-18.432 L 428.885,-18.8859 L 428.292,-19.476 L 427.835,-20.1763
 L 427.534,-20.9563 L 427.401,-21.782 L 427.443,-22.6171 L 427.658,-23.4253 L 428.036,-24.1712 L 428.56,-24.8223
 L 429.209,-25.3499 L 429.953,-25.7312 L 446.058,-31.9536 L 446.473,-32.0883 L 447.299,-32.2173 L 448.134,-32.1718
 L 448.942,-31.9536 L 465.047,-25.7312 L 465.956,-25.2361 L 466.578,-24.6765 L 467.069,-24 L 467.409,-23.2361
 L 467.583,-22.4181 L 467.583,-21.5819 L 467.409,-20.7639 L 467.069,-20 L 466.578,-19.3235 L 465.956,-18.7639
 L 465.232,-18.3458 L 464.437,-18.0874 L 463.605,-18 z
" stroke="black" fill="lightgray" stroke-width="0.5"/>
</svg>
