<?xml version="1.0" standalone="no"?>
<!DOCTYPE svg PUBLIC "-//W3C//DTD SVG 1.1//EN" "http://www.w3.org/Graphics/SVG/1.1/DTD/svg11.dtd">
<svg width="883mm" height="80mm" viewBox="0 -80 883 80" xmlns="http://www.w3.org/2000/svg" version="1.1">
<title>OpenSCAD Model</title>
<path d="
M 883,-80 L 0,-80 L 0,-0 L 4.95,-0 L 4.95,-6 L 5.00572,-6.53017
 L 5.17046,-7.03717 L 5.437,-7.49884 L 5.79372,-7.895 L 6.22499,-8.20836 L 6.71201,-8.42519 L 7.23344,-8.53603
 L 7.76654,-8.53603 L 8.28798,-8.42519 L 8.77499,-8.20836 L 9.20627,-7.895 L 9.56299,-7.49884 L 9.82953,-7.03717
 L 9.99426,-6.53017 L 10.05,-6 L 10.05,-0 L 178.55,-0 L 178.55,-6 L 178.606,-6.53017
 L 178.77,-7.03717 L 179.037,-7.49884 L 179.394,-7.895 L 179.825,-8.20836 L 180.312,-8.42519 L 180.833,-8.53603
 L 181.367,-8.53603 L 181.888,-8.42519 L 182.375,-8.20836 L 182.806,-7.895 L 183.163,-7.49884 L 183.43,-7.03717
 L 183.594,-6.53017 L 183.65,-6 L 183.65,-0 L 352.15,-0 L 352.15,-6 L 352.206,-6.53017
 L 352.37,-7.03717 L 352.637,-7.49884 L 352.994,-7.895 L 353.425,-8.20836 L 353.912,-8.42519 L 354.433,-8.53603
 L 354.967,-8.53603 L 355.488,-8.42519 L 355.975,-8.20836 L 356.406,-7.895 L 356.763,-7.49884 L 357.03,-7.03717
 L 357.194,-6.53017 L 357.25,-6 L 357.25,-0 L 525.75,-0 L 525.75,-6 L 525.806,-6.53017
 L 525.97,-7.03717 L 526.237,-7.49884 L 526.594,-7.895 L 527.025,-8.20836 L 527.512,-8.42519 L 528.033,-8.53603
 L 528.567,-8.53603 L 529.088,-8.42519 L 529.575,-8.20836 L 530.006,-7.895 L 530.363,-7.49884 L 530.63,-7.03717
 L 530.794,-6.53017 L 530.85,-6 L 530.85,-0 L 699.35,-0 L 699.35,-6 L 699.406,-6.53017
 L 699.57,-7.03717 L 699.837,-7.49884 L 700.194,-7.895 L 700.625,-8.20836 L 701.112,-8.42519 L 701.633,-8.53603
 L 702.167,-8.53603 L 702.688,-8.42519 L 703.175,-8.20836 L 703.606,-7.895 L 703.963,-7.49884 L 704.23,-7.03717
 L 704.394,-6.53017 L 704.45,-6 L 704.45,-0 L 872.95,-0 L 872.95,-6 L 873.006,-6.53017
 L 873.17,-7.03717 L 873.437,-7.49884 L 873.794,-7.895 L 874.225,-8.20836 L 874.712,-8.42519 L 875.233,-8.53603
 L 875.767,-8.53603 L 876.288,-8.42519 L 876.775,-8.20836 L 877.206,-7.895 L 877.563,-7.49884 L 877.83,-7.03717
 L 877.994,-6.53017 L 878.05,-6 L 878.05,-0 L 883,-0 z
M 6.98573,-55.607 L 6.47708,-55.6875 L 5.97964,-55.8208 L 5.49887,-56.0054 L 5.04001,-56.2392 L 4.60811,-56.5196
 L 4.20789,-56.8437 L 3.84373,-57.2079 L 3.51964,-57.6081 L 3.23917,-58.04 L 3.00537,-58.4989 L 2.82082,-58.9796
 L 2.68752,-59.4771 L 2.60696,-59.9857 L 2.58,-60.5 L 2.60696,-61.0143 L 2.68752,-61.5229 L 2.82082,-62.0204
 L 3.00537,-62.5011 L 3.23917,-62.96 L 3.51964,-63.3919 L 3.84373,-63.7921 L 4.20789,-64.1563 L 4.60811,-64.4804
 L 4.95001,-64.7024 L 4.95001,-74 L 5.00574,-74.5302 L 5.17047,-75.0372 L 5.43701,-75.4988 L 5.79373,-75.895
 L 6.22501,-76.2084 L 6.71202,-76.4252 L 7.23346,-76.536 L 7.76654,-76.536 L 8.28798,-76.4252 L 8.77499,-76.2084
 L 9.20627,-75.895 L 9.56299,-75.4988 L 9.82953,-75.0372 L 9.99426,-74.5302 L 10.05,-74 L 10.05,-64.7024
 L 10.3919,-64.4804 L 10.7921,-64.1563 L 11.1563,-63.7921 L 11.4804,-63.3919 L 11.7608,-62.96 L 11.9946,-62.5011
 L 12.1792,-62.0204 L 12.3125,-61.5229 L 12.393,-61.0143 L 12.42,-60.5 L 12.393,-59.9857 L 12.3125,-59.4771
 L 12.1792,-58.9796 L 11.9946,-58.4989 L 11.7608,-58.04 L 11.4804,-57.6081 L 11.1563,-57.2079 L 10.7921,-56.8437
 L 10.3919,-56.5196 L 9.95999,-56.2392 L 9.50113,-56.0054 L 9.02036,-55.8208 L 8.52292,-55.6875 L 8.01427,-55.607
 L 7.5,-55.58 z
M 180.586,-55.607 L 180.077,-55.6875 L 179.58,-55.8208 L 179.099,-56.0054 L 178.64,-56.2392 L 178.208,-56.5196
 L 177.808,-56.8437 L 177.444,-57.2079 L 177.12,-57.6081 L 176.839,-58.04 L 176.605,-58.4989 L 176.421,-58.9796
 L 176.288,-59.4771 L 176.207,-59.9857 L 176.18,-60.5 L 176.207,-61.0143 L 176.288,-61.5229 L 176.421,-62.0204
 L 176.605,-62.5011 L 176.839,-62.96 L 177.12,-63.3919 L 177.444,-63.7921 L 177.808,-64.1563 L 178.208,-64.4804
 L 178.55,-64.7024 L 178.55,-74 L 178.606,-74.5302 L 178.77,-75.0372 L 179.037,-75.4988 L 179.394,-75.895
 L 179.825,-76.2084 L 180.312,-76.4252 L 180.833,-76.536 L 181.367,-76.536 L 181.888,-76.4252 L 182.375,-76.2084
 L 182.806,-75.895 L 183.163,-75.4988 L 183.43,-75.0372 L 183.594,-74.5302 L 183.65,-74 L 183.65,-64.7024
 L 183.992,-64.4804 L 184.392,-64.1563 L 184.756,-63.7921 L 185.08,-63.3919 L 185.361,-62.96 L 185.595,-62.5011
 L 185.779,-62.0204 L 185.912,-61.5229 L 185.993,-61.0143 L 186.02,-60.5 L 185.993,-59.9857 L 185.912,-59.4771
 L 185.779,-58.9796 L 185.595,-58.4989 L 185.361,-58.04 L 185.08,-57.6081 L 184.756,-57.2079 L 184.392,-56.8437
 L 183.992,-56.5196 L 183.56,-56.2392 L 183.101,-56.0054 L 182.62,-55.8208 L 182.123,-55.6875 L 181.614,-55.607
 L 181.1,-55.58 z
M 354.186,-55.607 L 353.677,-55.6875 L 353.18,-55.8208 L 352.699,-56.0054 L 352.24,-56.2392 L 351.808,-56.5196
 L 351.408,-56.8437 L 351.044,-57.2079 L 350.72,-57.6081 L 350.439,-58.04 L 350.205,-58.4989 L 350.021,-58.9796
 L 349.888,-59.4771 L 349.807,-59.9857 L 349.78,-60.5 L 349.807,-61.0143 L 349.888,-61.5229 L 350.021,-62.0204
 L 350.205,-62.5011 L 350.439,-62.96 L 350.72,-63.3919 L 351.044,-63.7921 L 351.408,-64.1563 L 351.808,-64.4804
 L 352.15,-64.7024 L 352.15,-74 L 352.206,-74.5302 L 352.37,-75.0372 L 352.637,-75.4988 L 352.994,-75.895
 L 353.425,-76.2084 L 353.912,-76.4252 L 354.433,-76.536 L 354.967,-76.536 L 355.488,-76.4252 L 355.975,-76.2084
 L 356.406,-75.895 L 356.763,-75.4988 L 357.03,-75.0372 L 357.194,-74.5302 L 357.25,-74 L 357.25,-64.7024
 L 357.592,-64.4804 L 357.992,-64.1563 L 358.356,-63.7921 L 358.68,-63.3919 L 358.961,-62.96 L 359.195,-62.5011
 L 359.379,-62.0204 L 359.512,-61.5229 L 359.593,-61.0143 L 359.62,-60.5 L 359.593,-59.9857 L 359.512,-59.4771
 L 359.379,-58.9796 L 359.195,-58.4989 L 358.961,-58.04 L 358.68,-57.6081 L 358.356,-57.2079 L 357.992,-56.8437
 L 357.592,-56.5196 L 357.16,-56.2392 L 356.701,-56.0054 L 356.22,-55.8208 L 355.723,-55.6875 L 355.214,-55.607
 L 354.7,-55.58 z
M 527.786,-55.607 L 527.277,-55.6875 L 526.78,-55.8208 L 526.299,-56.0054 L 525.84,-56.2392 L 525.408,-56.5196
 L 525.008,-56.8437 L 524.644,-57.2079 L 524.32,-57.6081 L 524.039,-58.04 L 523.805,-58.4989 L 523.621,-58.9796
 L 523.488,-59.4771 L 523.407,-59.9857 L 523.38,-60.5 L 523.407,-61.0143 L 523.488,-61.5229 L 523.621,-62.0204
 L 523.805,-62.5011 L 524.039,-62.96 L 524.32,-63.3919 L 524.644,-63.7921 L 525.008,-64.1563 L 525.408,-64.4804
 L 525.75,-64.7024 L 525.75,-74 L 525.806,-74.5302 L 525.97,-75.0372 L 526.237,-75.4988 L 526.594,-75.895
 L 527.025,-76.2084 L 527.512,-76.4252 L 528.033,-76.536 L 528.567,-76.536 L 529.088,-76.4252 L 529.575,-76.2084
 L 530.006,-75.895 L 530.363,-75.4988 L 530.63,-75.0372 L 530.794,-74.5302 L 530.85,-74 L 530.85,-64.7024
 L 531.192,-64.4804 L 531.592,-64.1563 L 531.956,-63.7921 L 532.28,-63.3919 L 532.561,-62.96 L 532.795,-62.5011
 L 532.979,-62.0204 L 533.112,-61.5229 L 533.193,-61.0143 L 533.22,-60.5 L 533.193,-59.9857 L 533.112,-59.4771
 L 532.979,-58.9796 L 532.795,-58.4989 L 532.561,-58.04 L 532.28,-57.6081 L 531.956,-57.2079 L 531.592,-56.8437
 L 531.192,-56.5196 L 530.76,-56.2392 L 530.301,-56.0054 L 529.82,-55.8208 L 529.323,-55.6875 L 528.814,-55.607
 L 528.3,-55.58 z
M 701.386,-55.607 L 700.877,-55.6875 L 700.38,-55.8208 L 699.899,-56.0054 L 699.44,-56.2392 L 699.008,-56.5196
 L 698.608,-56.8437 L 698.244,-57.2079 L 697.92,-57.6081 L 697.639,-58.04 L 697.405,-58.4989 L 697.221,-58.9796
 L 697.088,-59.4771 L 697.007,-59.9857 L 696.98,-60.5 L 697.007,-61.0143 L 697.088,-61.5229 L 697.221,-62.0204
 L 697.405,-62.5011 L 697.639,-62.96 L 697.92,-63.3919 L 698.244,-63.7921 L 698.608,-64.1563 L 699.008,-64.4804
 L 699.35,-64.7024 L 699.35,-74 L 699.406,-74.5302 L 699.57,-75.0372 L 699.837,-75.4988 L 700.194,-75.895
 L 700.625,-76.2084 L 701.112,-76.4252 L 701.633,-76.536 L 702.167,-76.536 L 702.688,-76.4252 L 703.175,-76.2084
 L 703.606,-75.895 L 703.963,-75.4988 L 704.23,-75.0372 L 704.394,-74.5302 L 704.45,-74 L 704.45,-64.7024
 L 704.792,-64.4804 L 705.192,-64.1563 L 705.556,-63.7921 L 705.88,-63.3919 L 706.161,-62.96 L 706.395,-62.5011
 L 706.579,-62.0204 L 706.712,-61.5229 L 706.793,-61.0143 L 706.82,-60.5 L 706.793,-59.9857 L 706.712,-59.4771
 L 706.579,-58.9796 L 706.395,-58.4989 L 706.161,-58.04 L 705.88,-57.6081 L 705.556,-57.2079 L 705.192,-56.8437
 L 704.792,-56.5196 L 704.36,-56.2392 L 703.901,-56.0054 L 703.42,-55.8208 L 702.923,-55.6875 L 702.414,-55.607
 L 701.9,-55.58 z
M 874.986,-55.607 L 874.477,-55.6875 L 873.98,-55.8208 L 873.499,-56.0054 L 873.04,-56.2392 L 872.608,-56.5196
 L 872.208,-56.8437 L 871.844,-57.2079 L 871.52,-57.6081 L 871.239,-58.04 L 871.005,-58.4989 L 870.821,-58.9796
 L 870.688,-59.4771 L 870.607,-59.9857 L 870.58,-60.5 L 870.607,-61.0143 L 870.688,-61.5229 L 870.821,-62.0204
 L 871.005,-62.5011 L 871.239,-62.96 L 871.52,-63.3919 L 871.844,-63.7921 L 872.208,-64.1563 L 872.608,-64.4804
 L 872.95,-64.7024 L 872.95,-74 L 873.006,-74.5302 L 873.17,-75.0372 L 873.437,-75.4988 L 873.794,-75.895
 L 874.225,-76.2084 L 874.712,-76.4252 L 875.233,-76.536 L 875.767,-76.536 L 876.288,-76.4252 L 876.775,-76.2084
 L 877.206,-75.895 L 877.563,-75.4988 L 877.83,-75.0372 L 877.994,-74.5302 L 878.05,-74 L 878.05,-64.7024
 L 878.392,-64.4804 L 878.792,-64.1563 L 879.156,-63.7921 L 879.48,-63.3919 L 879.761,-62.96 L 879.995,-62.5011
 L 880.179,-62.0204 L 880.312,-61.5229 L 880.393,-61.0143 L 880.42,-60.5 L 880.393,-59.9857 L 880.312,-59.4771
 L 880.179,-58.9796 L 879.995,-58.4989 L 879.761,-58.04 L 879.48,-57.6081 L 879.156,-57.2079 L 878.792,-56.8437
 L 878.392,-56.5196 L 877.96,-56.2392 L 877.501,-56.0054 L 877.02,-55.8208 L 876.523,-55.6875 L 876.014,-55.607
 L 875.5,-55.58 z
M 440.847,-47.8551 L 440.041,-48.0771 L 424.217,-54.2755 L 423.325,-54.7639 L 422.703,-55.3235 L 422.212,-56
 L 421.871,-56.7639 L 421.698,-57.5819 L 421.698,-58.4181 L 421.871,-59.2361 L 422.212,-60 L 422.703,-60.6765
 L 423.325,-61.2361 L 424.049,-61.6542 L 424.844,-61.9126 L 425.676,-62 L 457.324,-62 L 458.333,-61.8707
 L 459.116,-61.5763 L 459.82,-61.1257 L 460.416,-60.5384 L 460.876,-59.8402 L 461.181,-59.0616 L 461.317,-58.2366
 L 461.279,-57.4012 L 461.068,-56.592 L 460.694,-55.8444 L 460.172,-55.1909 L 459.526,-54.6602 L 458.783,-54.2755
 L 442.959,-48.0771 L 442.509,-47.9309 L 441.682,-47.8057 z
M 341.047,-21.093 L 340.241,-21.315 L 256.095,-54.2755 L 255.202,-54.7639 L 254.581,-55.3235 L 254.089,-56
 L 253.749,-56.7639 L 253.575,-57.5819 L 253.575,-58.4181 L 253.749,-59.2361 L 254.089,-60 L 254.581,-60.6765
 L 255.202,-61.2361 L 255.927,-61.6542 L 256.722,-61.9126 L 257.554,-62 L 341.7,-62 L 342.936,-61.8042
 L 343.7,-61.4641 L 344.377,-60.9726 L 344.936,-60.3511 L 345.354,-59.627 L 345.613,-58.8316 L 345.7,-58
 L 345.7,-25.0394 L 345.557,-23.9778 L 345.252,-23.1992 L 344.791,-22.501 L 344.196,-21.9138 L 343.492,-21.4631
 L 342.709,-21.1688 L 341.882,-21.0436 z
M 713.891,-21.1688 L 713.108,-21.4631 L 712.404,-21.9138 L 711.809,-22.501 L 711.348,-23.1992 L 711.043,-23.9778
 L 710.9,-25.0394 L 710.9,-58 L 710.987,-58.8316 L 711.246,-59.627 L 711.664,-60.3511 L 712.223,-60.9726
 L 712.9,-61.4641 L 713.664,-61.8042 L 714.9,-62 L 799.046,-62 L 799.878,-61.9126 L 800.673,-61.6542
 L 801.398,-61.2361 L 802.019,-60.6765 L 802.511,-60 L 802.851,-59.2361 L 803.025,-58.4181 L 803.025,-57.5819
 L 802.851,-56.7639 L 802.511,-56 L 802.019,-55.3235 L 801.398,-54.7639 L 800.505,-54.2755 L 716.359,-21.315
 L 715.553,-21.093 L 714.718,-21.0436 z
M 167.447,-21.093 L 166.641,-21.315 L 82.4947,-54.2755 L 81.6024,-54.7639 L 80.981,-55.3235 L 80.4895,-56
 L 80.1493,-56.7639 L 79.9755,-57.5819 L 79.9755,-58.4181 L 80.1493,-59.2361 L 80.4895,-60 L 80.981,-60.6765
 L 81.6024,-61.2361 L 82.3266,-61.6542 L 83.1219,-61.9126 L 83.9536,-62 L 168.1,-62 L 169.336,-61.8042
 L 170.1,-61.4641 L 170.777,-60.9726 L 171.336,-60.3511 L 171.754,-59.627 L 172.013,-58.8316 L 172.1,-58
 L 172.1,-25.0394 L 171.957,-23.9778 L 171.652,-23.1992 L 171.191,-22.501 L 170.596,-21.9138 L 169.892,-21.4631
 L 169.109,-21.1688 L 168.282,-21.0436 z
M 540.291,-21.1688 L 539.508,-21.4631 L 538.804,-21.9138 L 538.209,-22.501 L 537.748,-23.1992 L 537.443,-23.9778
 L 537.3,-25.0394 L 537.3,-58 L 537.387,-58.8316 L 537.646,-59.627 L 538.064,-60.3511 L 538.623,-60.9726
 L 539.3,-61.4641 L 540.064,-61.8042 L 541.3,-62 L 625.446,-62 L 626.278,-61.9126 L 627.073,-61.6542
 L 627.798,-61.2361 L 628.419,-60.6765 L 628.911,-60 L 629.251,-59.2361 L 629.425,-58.4181 L 629.425,-57.5819
 L 629.251,-56.7639 L 628.911,-56 L 628.419,-55.3235 L 627.798,-54.7639 L 626.905,-54.2755 L 542.759,-21.315
 L 541.953,-21.093 L 541.118,-21.0436 z
M 367.282,-18.9156 L 366.464,-19.0895 L 365.7,-19.4296 L 365.023,-19.9211 L 364.464,-20.5426 L 364.046,-21.2668
 L 363.787,-22.0621 L 363.7,-22.8937 L 363.7,-57.1063 L 363.843,-58.1679 L 364.148,-58.9465 L 364.609,-59.6447
 L 365.204,-60.232 L 365.908,-60.6826 L 366.691,-60.977 L 367.518,-61.1021 L 368.353,-61.0527 L 369.159,-60.8308
 L 412.83,-43.7245 L 413.867,-43.1257 L 414.463,-42.5384 L 414.923,-41.8402 L 415.228,-41.0616 L 415.364,-40.2366
 L 415.326,-39.4012 L 415.115,-38.592 L 414.741,-37.8444 L 414.219,-37.1909 L 413.573,-36.6602 L 412.83,-36.2755
 L 369.159,-19.1692 L 368.118,-18.9156 z
M 514.647,-18.9473 L 513.841,-19.1692 L 470.17,-36.2755 L 469.133,-36.8743 L 468.537,-37.4616 L 468.077,-38.1598
 L 467.772,-38.9384 L 467.636,-39.7634 L 467.674,-40.5988 L 467.885,-41.408 L 468.259,-42.1556 L 468.781,-42.8091
 L 469.427,-43.3398 L 470.17,-43.7245 L 513.841,-60.8308 L 514.882,-61.0844 L 515.718,-61.0844 L 516.536,-60.9105
 L 517.3,-60.5704 L 517.977,-60.0789 L 518.536,-59.4574 L 518.954,-58.7333 L 519.213,-57.938 L 519.3,-57.1063
 L 519.3,-22.8937 L 519.157,-21.8321 L 518.852,-21.0535 L 518.391,-20.3553 L 517.796,-19.768 L 517.092,-19.3174
 L 516.309,-19.023 L 515.482,-18.8978 z
M 194.1,-18 L 192.864,-18.1958 L 192.1,-18.5359 L 191.423,-19.0274 L 190.864,-19.6489 L 190.446,-20.373
 L 190.187,-21.1684 L 190.1,-22 L 190.1,-54.9606 L 190.243,-56.0222 L 190.548,-56.8008 L 191.009,-57.499
 L 191.604,-58.0862 L 192.308,-58.5369 L 193.091,-58.8312 L 193.918,-58.9564 L 194.753,-58.907 L 195.559,-58.685
 L 279.705,-25.7245 L 280.598,-25.2361 L 281.219,-24.6765 L 281.71,-24 L 282.051,-23.2361 L 282.224,-22.4181
 L 282.224,-21.5819 L 282.051,-20.7639 L 281.71,-20 L 281.219,-19.3235 L 280.598,-18.7639 L 279.873,-18.3458
 L 279.078,-18.0874 L 278.246,-18 z
M 604.754,-18 L 603.922,-18.0874 L 603.127,-18.3458 L 602.402,-18.7639 L 601.781,-19.3235 L 601.289,-20
 L 600.949,-20.7639 L 600.775,-21.5819 L 600.775,-22.4181 L 600.949,-23.2361 L 601.289,-24 L 601.781,-24.6765
 L 602.402,-25.2361 L 603.295,-25.7245 L 687.441,-58.685 L 688.247,-58.907 L 689.082,-58.9564 L 689.909,-58.8312
 L 690.692,-58.5369 L 691.396,-58.0862 L 691.991,-57.499 L 692.452,-56.8008 L 692.757,-56.0222 L 692.9,-54.9606
 L 692.9,-22 L 692.813,-21.1684 L 692.554,-20.373 L 692.136,-19.6489 L 691.577,-19.0274 L 690.9,-18.5359
 L 690.136,-18.1958 L 688.9,-18 z
M 22,-18 L 20.7639,-18.1958 L 20,-18.5359 L 19.3235,-19.0274 L 18.7639,-19.6489 L 18.3458,-20.373
 L 18.0874,-21.1684 L 18,-22 L 18,-54.373 L 18.1434,-55.4346 L 18.4484,-56.2132 L 18.9086,-56.9114
 L 19.504,-57.4987 L 20.2084,-57.9493 L 20.9911,-58.2437 L 21.8179,-58.3689 L 22.6526,-58.3194 L 23.4589,-58.0975
 L 106.105,-25.7245 L 106.998,-25.2361 L 107.619,-24.6765 L 108.111,-24 L 108.451,-23.2361 L 108.624,-22.4181
 L 108.624,-21.5819 L 108.451,-20.7639 L 108.111,-20 L 107.619,-19.3235 L 106.998,-18.7639 L 106.273,-18.3458
 L 105.478,-18.0874 L 104.646,-18 z
M 778.354,-18 L 777.522,-18.0874 L 776.727,-18.3458 L 776.002,-18.7639 L 775.381,-19.3235 L 774.889,-20
 L 774.549,-20.7639 L 774.376,-21.5819 L 774.376,-22.4181 L 774.549,-23.2361 L 774.889,-24 L 775.381,-24.6765
 L 776.002,-25.2361 L 776.895,-25.7245 L 859.541,-58.0975 L 860.347,-58.3194 L 861.182,-58.3689 L 862.009,-58.2437
 L 862.792,-57.9493 L 863.496,-57.4987 L 864.091,-56.9114 L 864.552,-56.2132 L 864.857,-55.4346 L 865,-54.373
 L 865,-22 L 864.913,-21.1684 L 864.654,-20.373 L 864.236,-19.6489 L 863.677,-19.0274 L 863,-18.5359
 L 862.236,-18.1958 L 861,-18 z
M 425.676,-18 L 424.667,-18.1293 L 423.884,-18.4237 L 423.18,-18.8743 L 422.584,-19.4616 L 422.124,-20.1598
 L 421.819,-20.9384 L 421.683,-21.7634 L 421.721,-22.5988 L 421.932,-23.408 L 422.306,-24.1556 L 422.828,-24.8091
 L 423.474,-25.3398 L 424.217,-25.7245 L 440.041,-31.9229 L 440.491,-32.0691 L 441.318,-32.1943 L 442.153,-32.1449
 L 442.959,-31.9229 L 458.783,-25.7245 L 459.675,-25.2361 L 460.297,-24.6765 L 460.788,-24 L 461.129,-23.2361
 L 461.302,-22.4181 L 461.302,-21.5819 L 461.129,-20.7639 L 460.788,-20 L 460.297,-19.3235 L 459.675,-18.7639
 L 458.951,-18.3458 L 458.156,-18.0874 L 457.324,-18 z
" stroke="black" fill="lightgray" stroke-width="0.5"/>
</svg>
