<?xml version="1.0" standalone="no"?>
<!DOCTYPE svg PUBLIC "-//W3C//DTD SVG 1.1//EN" "http://www.w3.org/Graphics/SVG/1.1/DTD/svg11.dtd">
<svg width="554mm" height="80mm" viewBox="0 -80 554 80" xmlns="http://www.w3.org/2000/svg" version="1.1">
<title>OpenSCAD Model</title>
<path d="
M 554,-80 L 0,-80 L 0,-0 L 4.95,-0 L 4.95,-6 L 5.00572,-6.53017
 L 5.17046,-7.03717 L 5.437,-7.49884 L 5.79372,-7.895 L 6.22499,-8.20836 L 6.71201,-8.42519 L 7.23344,-8.53603
 L 7.76654,-8.53603 L 8.28798,-8.42519 L 8.77499,-8.20836 L 9.20627,-7.895 L 9.56299,-7.49884 L 9.82953,-7.03717
 L 9.99426,-6.53017 L 10.05,-6 L 10.05,-0 L 139.7,-0 L 139.7,-6 L 139.756,-6.53017
 L 139.92,-7.03717 L 140.187,-7.49884 L 140.544,-7.895 L 140.975,-8.20836 L 141.462,-8.42519 L 141.983,-8.53603
 L 142.517,-8.53603 L 143.038,-8.42519 L 143.525,-8.20836 L 143.956,-7.895 L 144.313,-7.49884 L 144.58,-7.03717
 L 144.744,-6.53017 L 144.8,-6 L 144.8,-0 L 274.45,-0 L 274.45,-6 L 274.506,-6.53017
 L 274.67,-7.03717 L 274.937,-7.49884 L 275.294,-7.895 L 275.725,-8.20836 L 276.212,-8.42519 L 276.733,-8.53603
 L 277.267,-8.53603 L 277.788,-8.42519 L 278.275,-8.20836 L 278.706,-7.895 L 279.063,-7.49884 L 279.33,-7.03717
 L 279.494,-6.53017 L 279.55,-6 L 279.55,-0 L 409.2,-0 L 409.2,-6 L 409.256,-6.53017
 L 409.42,-7.03717 L 409.687,-7.49884 L 410.044,-7.895 L 410.475,-8.20836 L 410.962,-8.42519 L 411.483,-8.53603
 L 412.017,-8.53603 L 412.538,-8.42519 L 413.025,-8.20836 L 413.456,-7.895 L 413.813,-7.49884 L 414.08,-7.03717
 L 414.244,-6.53017 L 414.3,-6 L 414.3,-0 L 543.95,-0 L 543.95,-6 L 544.006,-6.53017
 L 544.17,-7.03717 L 544.437,-7.49884 L 544.794,-7.895 L 545.225,-8.20836 L 545.712,-8.42519 L 546.233,-8.53603
 L 546.767,-8.53603 L 547.288,-8.42519 L 547.775,-8.20836 L 548.206,-7.895 L 548.563,-7.49884 L 548.83,-7.03717
 L 548.994,-6.53017 L 549.05,-6 L 549.05,-0 L 554,-0 z
M 6.98573,-55.607 L 6.47708,-55.6875 L 5.97964,-55.8208 L 5.49887,-56.0054 L 5.04001,-56.2392 L 4.60811,-56.5196
 L 4.20789,-56.8437 L 3.84373,-57.2079 L 3.51964,-57.6081 L 3.23917,-58.04 L 3.00537,-58.4989 L 2.82082,-58.9796
 L 2.68752,-59.4771 L 2.60696,-59.9857 L 2.58,-60.5 L 2.60696,-61.0143 L 2.68752,-61.5229 L 2.82082,-62.0204
 L 3.00537,-62.5011 L 3.23917,-62.96 L 3.51964,-63.3919 L 3.84373,-63.7921 L 4.20789,-64.1563 L 4.60811,-64.4804
 L 4.95001,-64.7024 L 4.95001,-74 L 5.00574,-74.5302 L 5.17047,-75.0372 L 5.43701,-75.4988 L 5.79373,-75.895
 L 6.22501,-76.2084 L 6.71202,-76.4252 L 7.23346,-76.536 L 7.76654,-76.536 L 8.28798,-76.4252 L 8.77499,-76.2084
 L 9.20627,-75.895 L 9.56299,-75.4988 L 9.82953,-75.0372 L 9.99426,-74.5302 L 10.05,-74 L 10.05,-64.7024
 L 10.3919,-64.4804 L 10.7921,-64.1563 L 11.1563,-63.7921 L 11.4804,-63.3919 L 11.7608,-62.96 L 11.9946,-62.5011
 L 12.1792,-62.0204 L 12.3125,-61.5229 L 12.393,-61.0143 L 12.42,-60.5 L 12.393,-59.9857 L 12.3125,-59.4771
 L 12.1792,-58.9796 L 11.9946,-58.4989 L 11.7608,-58.04 L 11.4804,-57.6081 L 11.1563,-57.2079 L 10.7921,-56.8437
 L 10.3919,-56.5196 L 9.95999,-56.2392 L 9.50113,-56.0054 L 9.02036,-55.8208 L 8.52292,-55.6875 L 8.01427,-55.607
 L 7.5,-55.58 z
M 141.736,-55.607 L 141.227,-55.6875 L 140.73,-55.8208 L 140.249,-56.0054 L 139.79,-56.2392 L 139.358,-56.5196
 L 138.958,-56.8437 L 138.594,-57.2079 L 138.27,-57.6081 L 137.989,-58.04 L 137.755,-58.4989 L 137.571,-58.9796
 L 137.438,-59.4771 L 137.357,-59.9857 L 137.33,-60.5 L 137.357,-61.0143 L 137.438,-61.5229 L 137.571,-62.0204
 L 137.755,-62.5011 L 137.989,-62.96 L 138.27,-63.3919 L 138.594,-63.7921 L 138.958,-64.1563 L 139.358,-64.4804
 L 139.7,-64.7024 L 139.7,-74 L 139.756,-74.5302 L 139.92,-75.0372 L 140.187,-75.4988 L 140.544,-75.895
 L 140.975,-76.2084 L 141.462,-76.4252 L 141.983,-76.536 L 142.517,-76.536 L 143.038,-76.4252 L 143.525,-76.2084
 L 143.956,-75.895 L 144.313,-75.4988 L 144.58,-75.0372 L 144.744,-74.5302 L 144.8,-74 L 144.8,-64.7024
 L 145.142,-64.4804 L 145.542,-64.1563 L 145.906,-63.7921 L 146.23,-63.3919 L 146.511,-62.96 L 146.745,-62.5011
 L 146.929,-62.0204 L 147.062,-61.5229 L 147.143,-61.0143 L 147.17,-60.5 L 147.143,-59.9857 L 147.062,-59.4771
 L 146.929,-58.9796 L 146.745,-58.4989 L 146.511,-58.04 L 146.23,-57.6081 L 145.906,-57.2079 L 145.542,-56.8437
 L 145.142,-56.5196 L 144.71,-56.2392 L 144.251,-56.0054 L 143.77,-55.8208 L 143.273,-55.6875 L 142.764,-55.607
 L 142.25,-55.58 z
M 276.486,-55.607 L 275.977,-55.6875 L 275.48,-55.8208 L 274.999,-56.0054 L 274.54,-56.2392 L 274.108,-56.5196
 L 273.708,-56.8437 L 273.344,-57.2079 L 273.02,-57.6081 L 272.739,-58.04 L 272.505,-58.4989 L 272.321,-58.9796
 L 272.188,-59.4771 L 272.107,-59.9857 L 272.08,-60.5 L 272.107,-61.0143 L 272.188,-61.5229 L 272.321,-62.0204
 L 272.505,-62.5011 L 272.739,-62.96 L 273.02,-63.3919 L 273.344,-63.7921 L 273.708,-64.1563 L 274.108,-64.4804
 L 274.45,-64.7024 L 274.45,-74 L 274.506,-74.5302 L 274.67,-75.0372 L 274.937,-75.4988 L 275.294,-75.895
 L 275.725,-76.2084 L 276.212,-76.4252 L 276.733,-76.536 L 277.267,-76.536 L 277.788,-76.4252 L 278.275,-76.2084
 L 278.706,-75.895 L 279.063,-75.4988 L 279.33,-75.0372 L 279.494,-74.5302 L 279.55,-74 L 279.55,-64.7024
 L 279.892,-64.4804 L 280.292,-64.1563 L 280.656,-63.7921 L 280.98,-63.3919 L 281.261,-62.96 L 281.495,-62.5011
 L 281.679,-62.0204 L 281.812,-61.5229 L 281.893,-61.0143 L 281.92,-60.5 L 281.893,-59.9857 L 281.812,-59.4771
 L 281.679,-58.9796 L 281.495,-58.4989 L 281.261,-58.04 L 280.98,-57.6081 L 280.656,-57.2079 L 280.292,-56.8437
 L 279.892,-56.5196 L 279.46,-56.2392 L 279.001,-56.0054 L 278.52,-55.8208 L 278.023,-55.6875 L 277.514,-55.607
 L 277,-55.58 z
M 411.236,-55.607 L 410.727,-55.6875 L 410.23,-55.8208 L 409.749,-56.0054 L 409.29,-56.2392 L 408.858,-56.5196
 L 408.458,-56.8437 L 408.094,-57.2079 L 407.77,-57.6081 L 407.489,-58.04 L 407.255,-58.4989 L 407.071,-58.9796
 L 406.938,-59.4771 L 406.857,-59.9857 L 406.83,-60.5 L 406.857,-61.0143 L 406.938,-61.5229 L 407.071,-62.0204
 L 407.255,-62.5011 L 407.489,-62.96 L 407.77,-63.3919 L 408.094,-63.7921 L 408.458,-64.1563 L 408.858,-64.4804
 L 409.2,-64.7024 L 409.2,-74 L 409.256,-74.5302 L 409.42,-75.0372 L 409.687,-75.4988 L 410.044,-75.895
 L 410.475,-76.2084 L 410.962,-76.4252 L 411.483,-76.536 L 412.017,-76.536 L 412.538,-76.4252 L 413.025,-76.2084
 L 413.456,-75.895 L 413.813,-75.4988 L 414.08,-75.0372 L 414.244,-74.5302 L 414.3,-74 L 414.3,-64.7024
 L 414.642,-64.4804 L 415.042,-64.1563 L 415.406,-63.7921 L 415.73,-63.3919 L 416.011,-62.96 L 416.245,-62.5011
 L 416.429,-62.0204 L 416.562,-61.5229 L 416.643,-61.0143 L 416.67,-60.5 L 416.643,-59.9857 L 416.562,-59.4771
 L 416.429,-58.9796 L 416.245,-58.4989 L 416.011,-58.04 L 415.73,-57.6081 L 415.406,-57.2079 L 415.042,-56.8437
 L 414.642,-56.5196 L 414.21,-56.2392 L 413.751,-56.0054 L 413.27,-55.8208 L 412.773,-55.6875 L 412.264,-55.607
 L 411.75,-55.58 z
M 545.986,-55.607 L 545.477,-55.6875 L 544.98,-55.8208 L 544.499,-56.0054 L 544.04,-56.2392 L 543.608,-56.5196
 L 543.208,-56.8437 L 542.844,-57.2079 L 542.52,-57.6081 L 542.239,-58.04 L 542.005,-58.4989 L 541.821,-58.9796
 L 541.688,-59.4771 L 541.607,-59.9857 L 541.58,-60.5 L 541.607,-61.0143 L 541.688,-61.5229 L 541.821,-62.0204
 L 542.005,-62.5011 L 542.239,-62.96 L 542.52,-63.3919 L 542.844,-63.7921 L 543.208,-64.1563 L 543.608,-64.4804
 L 543.95,-64.7024 L 543.95,-74 L 544.006,-74.5302 L 544.17,-75.0372 L 544.437,-75.4988 L 544.794,-75.895
 L 545.225,-76.2084 L 545.712,-76.4252 L 546.233,-76.536 L 546.767,-76.536 L 547.288,-76.4252 L 547.775,-76.2084
 L 548.206,-75.895 L 548.563,-75.4988 L 548.83,-75.0372 L 548.994,-74.5302 L 549.05,-74 L 549.05,-64.7024
 L 549.392,-64.4804 L 549.792,-64.1563 L 550.156,-63.7921 L 550.48,-63.3919 L 550.761,-62.96 L 550.995,-62.5011
 L 551.179,-62.0204 L 551.312,-61.5229 L 551.393,-61.0143 L 551.42,-60.5 L 551.393,-59.9857 L 551.312,-59.4771
 L 551.179,-58.9796 L 550.995,-58.4989 L 550.761,-58.04 L 550.48,-57.6081 L 550.156,-57.2079 L 549.792,-56.8437
 L 549.392,-56.5196 L 548.96,-56.2392 L 548.501,-56.0054 L 548.02,-55.8208 L 547.523,-55.6875 L 547.014,-55.607
 L 546.5,-55.58 z
M 289.359,-23.1564 L 288.552,-23.376 L 287.808,-23.7585 L 287.161,-24.2873 L 286.637,-24.9392 L 286.26,-25.6857
 L 286.047,-26.4943 L 286,-27.1047 L 286,-58 L 286.087,-58.8316 L 286.346,-59.627 L 286.764,-60.3511
 L 287.323,-60.9726 L 288,-61.4641 L 288.764,-61.8042 L 290,-62 L 351.223,-62 L 352.054,-61.9126
 L 352.85,-61.6542 L 353.574,-61.2361 L 354.195,-60.6765 L 354.687,-60 L 355.027,-59.2361 L 355.201,-58.4181
 L 355.201,-57.5819 L 355.027,-56.7639 L 354.687,-56 L 354.195,-55.3235 L 353.574,-54.7639 L 353.025,-54.4289
 L 291.802,-23.5336 L 291.02,-23.237 L 290.194,-23.1094 z
M 262.98,-23.237 L 262.198,-23.5336 L 200.975,-54.4289 L 200.426,-54.7639 L 199.805,-55.3235 L 199.313,-56
 L 198.973,-56.7639 L 198.799,-57.5819 L 198.799,-58.4181 L 198.973,-59.2361 L 199.313,-60 L 199.805,-60.6765
 L 200.426,-61.2361 L 201.15,-61.6542 L 201.946,-61.9126 L 202.777,-62 L 264,-62 L 265.236,-61.8042
 L 266,-61.4641 L 266.677,-60.9726 L 267.236,-60.3511 L 267.654,-59.627 L 267.913,-58.8316 L 268,-58
 L 268,-27.1047 L 267.953,-26.4943 L 267.74,-25.6857 L 267.363,-24.9392 L 266.839,-24.2873 L 266.192,-23.7585
 L 265.448,-23.376 L 264.641,-23.1564 L 263.806,-23.1094 z
M 424.109,-23.1564 L 423.302,-23.376 L 422.558,-23.7585 L 421.911,-24.2873 L 421.387,-24.9392 L 421.01,-25.6857
 L 420.797,-26.4943 L 420.75,-27.1047 L 420.75,-58 L 420.837,-58.8316 L 421.096,-59.627 L 421.514,-60.3511
 L 422.073,-60.9726 L 422.75,-61.4641 L 423.514,-61.8042 L 424.75,-62 L 485.973,-62 L 486.804,-61.9126
 L 487.6,-61.6542 L 488.324,-61.2361 L 488.945,-60.6765 L 489.437,-60 L 489.777,-59.2361 L 489.951,-58.4181
 L 489.951,-57.5819 L 489.777,-56.7639 L 489.437,-56 L 488.945,-55.3235 L 488.324,-54.7639 L 487.775,-54.4289
 L 426.552,-23.5336 L 425.77,-23.237 L 424.944,-23.1094 z
M 128.23,-23.237 L 127.448,-23.5336 L 66.2252,-54.4289 L 65.6762,-54.7639 L 65.0547,-55.3235 L 64.5632,-56
 L 64.2231,-56.7639 L 64.0492,-57.5819 L 64.0492,-58.4181 L 64.2231,-59.2361 L 64.5632,-60 L 65.0547,-60.6765
 L 65.6762,-61.2361 L 66.4004,-61.6542 L 67.1957,-61.9126 L 68.0273,-62 L 129.25,-62 L 130.486,-61.8042
 L 131.25,-61.4641 L 131.927,-60.9726 L 132.486,-60.3511 L 132.904,-59.627 L 133.163,-58.8316 L 133.25,-58
 L 133.25,-27.1047 L 133.203,-26.4943 L 132.99,-25.6857 L 132.613,-24.9392 L 132.089,-24.2873 L 131.442,-23.7585
 L 130.698,-23.376 L 129.891,-23.1564 L 129.056,-23.1094 z
M 337.527,-18 L 336.696,-18.0874 L 335.9,-18.3458 L 335.176,-18.7639 L 334.555,-19.3235 L 334.063,-20
 L 333.723,-20.7639 L 333.549,-21.5819 L 333.549,-22.4181 L 333.723,-23.2361 L 334.063,-24 L 334.555,-24.6765
 L 335.176,-25.2361 L 335.725,-25.5711 L 396.948,-56.4664 L 397.73,-56.763 L 398.556,-56.8906 L 399.391,-56.8436
 L 400.198,-56.624 L 400.942,-56.2415 L 401.589,-55.7127 L 402.113,-55.0608 L 402.49,-54.3142 L 402.703,-53.5057
 L 402.75,-52.8953 L 402.75,-22 L 402.663,-21.1684 L 402.404,-20.373 L 401.986,-19.6489 L 401.427,-19.0274
 L 400.75,-18.5359 L 399.986,-18.1958 L 398.75,-18 z
M 155.25,-18 L 154.014,-18.1958 L 153.25,-18.5359 L 152.573,-19.0274 L 152.014,-19.6489 L 151.596,-20.373
 L 151.337,-21.1684 L 151.25,-22 L 151.25,-52.8953 L 151.297,-53.5057 L 151.51,-54.3142 L 151.887,-55.0608
 L 152.411,-55.7127 L 153.058,-56.2415 L 153.802,-56.624 L 154.609,-56.8436 L 155.444,-56.8906 L 156.27,-56.763
 L 157.052,-56.4664 L 218.275,-25.5711 L 218.824,-25.2361 L 219.445,-24.6765 L 219.937,-24 L 220.277,-23.2361
 L 220.451,-22.4181 L 220.451,-21.5819 L 220.277,-20.7639 L 219.937,-20 L 219.445,-19.3235 L 218.824,-18.7639
 L 218.1,-18.3458 L 217.304,-18.0874 L 216.473,-18 z
M 22,-18 L 20.7639,-18.1958 L 20,-18.5359 L 19.3235,-19.0274 L 18.7639,-19.6489 L 18.3458,-20.373
 L 18.0874,-21.1684 L 18,-22 L 18,-52.1383 L 18.0468,-52.7487 L 18.2601,-53.5573 L 18.6369,-54.3038
 L 19.1606,-54.9557 L 19.8084,-55.4845 L 20.552,-55.8671 L 21.3589,-56.0866 L 22.1938,-56.1336 L 23.0202,-56.006
 L 23.8021,-55.7094 L 83.5248,-25.5711 L 84.0738,-25.2361 L 84.6953,-24.6765 L 85.1868,-24 L 85.5269,-23.2361
 L 85.7008,-22.4181 L 85.7008,-21.5819 L 85.5269,-20.7639 L 85.1868,-20 L 84.6953,-19.3235 L 84.0738,-18.7639
 L 83.3496,-18.3458 L 82.5543,-18.0874 L 81.7227,-18 z
M 472.277,-18 L 471.446,-18.0874 L 470.65,-18.3458 L 469.926,-18.7639 L 469.305,-19.3235 L 468.813,-20
 L 468.473,-20.7639 L 468.299,-21.5819 L 468.299,-22.4181 L 468.473,-23.2361 L 468.813,-24 L 469.305,-24.6765
 L 469.926,-25.2361 L 470.475,-25.5711 L 530.198,-55.7094 L 530.98,-56.006 L 531.806,-56.1336 L 532.641,-56.0866
 L 533.448,-55.8671 L 534.192,-55.4845 L 534.839,-54.9557 L 535.363,-54.3038 L 535.74,-53.5573 L 535.953,-52.7487
 L 536,-52.1383 L 536,-22 L 535.913,-21.1684 L 535.654,-20.373 L 535.236,-19.6489 L 534.677,-19.0274
 L 534,-18.5359 L 533.236,-18.1958 L 532,-18 z
" stroke="black" fill="lightgray" stroke-width="0.5"/>
</svg>
