<?xml version="1.0" standalone="no"?>
<!DOCTYPE svg PUBLIC "-//W3C//DTD SVG 1.1//EN" "http://www.w3.org/Graphics/SVG/1.1/DTD/svg11.dtd">
<svg width="775mm" height="80mm" viewBox="0 -80 775 80" xmlns="http://www.w3.org/2000/svg" version="1.1">
<title>OpenSCAD Model</title>
<path d="
M 775,-80 L 0,-80 L 0,-0 L 4.95,-0 L 4.95,-6 L 5.00572,-6.53017
 L 5.17046,-7.03717 L 5.437,-7.49884 L 5.79372,-7.895 L 6.22499,-8.20836 L 6.71201,-8.42519 L 7.23344,-8.53603
 L 7.76654,-8.53603 L 8.28798,-8.42519 L 8.77499,-8.20836 L 9.20627,-7.895 L 9.56299,-7.49884 L 9.82953,-7.03717
 L 9.99426,-6.53017 L 10.05,-6 L 10.05,-0 L 156.95,-0 L 156.95,-6 L 157.006,-6.53017
 L 157.17,-7.03717 L 157.437,-7.49884 L 157.794,-7.895 L 158.225,-8.20836 L 158.712,-8.42519 L 159.233,-8.53603
 L 159.767,-8.53603 L 160.288,-8.42519 L 160.775,-8.20836 L 161.206,-7.895 L 161.563,-7.49884 L 161.83,-7.03717
 L 161.994,-6.53017 L 162.05,-6 L 162.05,-0 L 308.95,-0 L 308.95,-6 L 309.006,-6.53017
 L 309.17,-7.03717 L 309.437,-7.49884 L 309.794,-7.895 L 310.225,-8.20836 L 310.712,-8.42519 L 311.233,-8.53603
 L 311.767,-8.53603 L 312.288,-8.42519 L 312.775,-8.20836 L 313.206,-7.895 L 313.563,-7.49884 L 313.83,-7.03717
 L 313.994,-6.53017 L 314.05,-6 L 314.05,-0 L 460.95,-0 L 460.95,-6 L 461.006,-6.53017
 L 461.17,-7.03717 L 461.437,-7.49884 L 461.794,-7.895 L 462.225,-8.20836 L 462.712,-8.42519 L 463.233,-8.53603
 L 463.767,-8.53603 L 464.288,-8.42519 L 464.775,-8.20836 L 465.206,-7.895 L 465.563,-7.49884 L 465.83,-7.03717
 L 465.994,-6.53017 L 466.05,-6 L 466.05,-0 L 612.95,-0 L 612.95,-6 L 613.006,-6.53017
 L 613.17,-7.03717 L 613.437,-7.49884 L 613.794,-7.895 L 614.225,-8.20836 L 614.712,-8.42519 L 615.233,-8.53603
 L 615.767,-8.53603 L 616.288,-8.42519 L 616.775,-8.20836 L 617.206,-7.895 L 617.563,-7.49884 L 617.83,-7.03717
 L 617.994,-6.53017 L 618.05,-6 L 618.05,-0 L 764.95,-0 L 764.95,-6 L 765.006,-6.53017
 L 765.17,-7.03717 L 765.437,-7.49884 L 765.794,-7.895 L 766.225,-8.20836 L 766.712,-8.42519 L 767.233,-8.53603
 L 767.767,-8.53603 L 768.288,-8.42519 L 768.775,-8.20836 L 769.206,-7.895 L 769.563,-7.49884 L 769.83,-7.03717
 L 769.994,-6.53017 L 770.05,-6 L 770.05,-0 L 775,-0 z
M 6.98573,-55.607 L 6.47708,-55.6875 L 5.97964,-55.8208 L 5.49887,-56.0054 L 5.04001,-56.2392 L 4.60811,-56.5196
 L 4.20789,-56.8437 L 3.84373,-57.2079 L 3.51964,-57.6081 L 3.23917,-58.04 L 3.00537,-58.4989 L 2.82082,-58.9796
 L 2.68752,-59.4771 L 2.60696,-59.9857 L 2.58,-60.5 L 2.60696,-61.0143 L 2.68752,-61.5229 L 2.82082,-62.0204
 L 3.00537,-62.5011 L 3.23917,-62.96 L 3.51964,-63.3919 L 3.84373,-63.7921 L 4.20789,-64.1563 L 4.60811,-64.4804
 L 4.95001,-64.7024 L 4.95001,-74 L 5.00574,-74.5302 L 5.17047,-75.0372 L 5.43701,-75.4988 L 5.79373,-75.895
 L 6.22501,-76.2084 L 6.71202,-76.4252 L 7.23346,-76.536 L 7.76654,-76.536 L 8.28798,-76.4252 L 8.77499,-76.2084
 L 9.20627,-75.895 L 9.56299,-75.4988 L 9.82953,-75.0372 L 9.99426,-74.5302 L 10.05,-74 L 10.05,-64.7024
 L 10.3919,-64.4804 L 10.7921,-64.1563 L 11.1563,-63.7921 L 11.4804,-63.3919 L 11.7608,-62.96 L 11.9946,-62.5011
 L 12.1792,-62.0204 L 12.3125,-61.5229 L 12.393,-61.0143 L 12.42,-60.5 L 12.393,-59.9857 L 12.3125,-59.4771
 L 12.1792,-58.9796 L 11.9946,-58.4989 L 11.7608,-58.04 L 11.4804,-57.6081 L 11.1563,-57.2079 L 10.7921,-56.8437
 L 10.3919,-56.5196 L 9.95999,-56.2392 L 9.50113,-56.0054 L 9.02036,-55.8208 L 8.52292,-55.6875 L 8.01427,-55.607
 L 7.5,-55.58 z
M 158.986,-55.607 L 158.477,-55.6875 L 157.98,-55.8208 L 157.499,-56.0054 L 157.04,-56.2392 L 156.608,-56.5196
 L 156.208,-56.8437 L 155.844,-57.2079 L 155.52,-57.6081 L 155.239,-58.04 L 155.005,-58.4989 L 154.821,-58.9796
 L 154.688,-59.4771 L 154.607,-59.9857 L 154.58,-60.5 L 154.607,-61.0143 L 154.688,-61.5229 L 154.821,-62.0204
 L 155.005,-62.5011 L 155.239,-62.96 L 155.52,-63.3919 L 155.844,-63.7921 L 156.208,-64.1563 L 156.608,-64.4804
 L 156.95,-64.7024 L 156.95,-74 L 157.006,-74.5302 L 157.17,-75.0372 L 157.437,-75.4988 L 157.794,-75.895
 L 158.225,-76.2084 L 158.712,-76.4252 L 159.233,-76.536 L 159.767,-76.536 L 160.288,-76.4252 L 160.775,-76.2084
 L 161.206,-75.895 L 161.563,-75.4988 L 161.83,-75.0372 L 161.994,-74.5302 L 162.05,-74 L 162.05,-64.7024
 L 162.392,-64.4804 L 162.792,-64.1563 L 163.156,-63.7921 L 163.48,-63.3919 L 163.761,-62.96 L 163.995,-62.5011
 L 164.179,-62.0204 L 164.312,-61.5229 L 164.393,-61.0143 L 164.42,-60.5 L 164.393,-59.9857 L 164.312,-59.4771
 L 164.179,-58.9796 L 163.995,-58.4989 L 163.761,-58.04 L 163.48,-57.6081 L 163.156,-57.2079 L 162.792,-56.8437
 L 162.392,-56.5196 L 161.96,-56.2392 L 161.501,-56.0054 L 161.02,-55.8208 L 160.523,-55.6875 L 160.014,-55.607
 L 159.5,-55.58 z
M 310.986,-55.607 L 310.477,-55.6875 L 309.98,-55.8208 L 309.499,-56.0054 L 309.04,-56.2392 L 308.608,-56.5196
 L 308.208,-56.8437 L 307.844,-57.2079 L 307.52,-57.6081 L 307.239,-58.04 L 307.005,-58.4989 L 306.821,-58.9796
 L 306.688,-59.4771 L 306.607,-59.9857 L 306.58,-60.5 L 306.607,-61.0143 L 306.688,-61.5229 L 306.821,-62.0204
 L 307.005,-62.5011 L 307.239,-62.96 L 307.52,-63.3919 L 307.844,-63.7921 L 308.208,-64.1563 L 308.608,-64.4804
 L 308.95,-64.7024 L 308.95,-74 L 309.006,-74.5302 L 309.17,-75.0372 L 309.437,-75.4988 L 309.794,-75.895
 L 310.225,-76.2084 L 310.712,-76.4252 L 311.233,-76.536 L 311.767,-76.536 L 312.288,-76.4252 L 312.775,-76.2084
 L 313.206,-75.895 L 313.563,-75.4988 L 313.83,-75.0372 L 313.994,-74.5302 L 314.05,-74 L 314.05,-64.7024
 L 314.392,-64.4804 L 314.792,-64.1563 L 315.156,-63.7921 L 315.48,-63.3919 L 315.761,-62.96 L 315.995,-62.5011
 L 316.179,-62.0204 L 316.312,-61.5229 L 316.393,-61.0143 L 316.42,-60.5 L 316.393,-59.9857 L 316.312,-59.4771
 L 316.179,-58.9796 L 315.995,-58.4989 L 315.761,-58.04 L 315.48,-57.6081 L 315.156,-57.2079 L 314.792,-56.8437
 L 314.392,-56.5196 L 313.96,-56.2392 L 313.501,-56.0054 L 313.02,-55.8208 L 312.523,-55.6875 L 312.014,-55.607
 L 311.5,-55.58 z
M 462.986,-55.607 L 462.477,-55.6875 L 461.98,-55.8208 L 461.499,-56.0054 L 461.04,-56.2392 L 460.608,-56.5196
 L 460.208,-56.8437 L 459.844,-57.2079 L 459.52,-57.6081 L 459.239,-58.04 L 459.005,-58.4989 L 458.821,-58.9796
 L 458.688,-59.4771 L 458.607,-59.9857 L 458.58,-60.5 L 458.607,-61.0143 L 458.688,-61.5229 L 458.821,-62.0204
 L 459.005,-62.5011 L 459.239,-62.96 L 459.52,-63.3919 L 459.844,-63.7921 L 460.208,-64.1563 L 460.608,-64.4804
 L 460.95,-64.7024 L 460.95,-74 L 461.006,-74.5302 L 461.17,-75.0372 L 461.437,-75.4988 L 461.794,-75.895
 L 462.225,-76.2084 L 462.712,-76.4252 L 463.233,-76.536 L 463.767,-76.536 L 464.288,-76.4252 L 464.775,-76.2084
 L 465.206,-75.895 L 465.563,-75.4988 L 465.83,-75.0372 L 465.994,-74.5302 L 466.05,-74 L 466.05,-64.7024
 L 466.392,-64.4804 L 466.792,-64.1563 L 467.156,-63.7921 L 467.48,-63.3919 L 467.761,-62.96 L 467.995,-62.5011
 L 468.179,-62.0204 L 468.312,-61.5229 L 468.393,-61.0143 L 468.42,-60.5 L 468.393,-59.9857 L 468.312,-59.4771
 L 468.179,-58.9796 L 467.995,-58.4989 L 467.761,-58.04 L 467.48,-57.6081 L 467.156,-57.2079 L 466.792,-56.8437
 L 466.392,-56.5196 L 465.96,-56.2392 L 465.501,-56.0054 L 465.02,-55.8208 L 464.523,-55.6875 L 464.014,-55.607
 L 463.5,-55.58 z
M 614.986,-55.607 L 614.477,-55.6875 L 613.98,-55.8208 L 613.499,-56.0054 L 613.04,-56.2392 L 612.608,-56.5196
 L 612.208,-56.8437 L 611.844,-57.2079 L 611.52,-57.6081 L 611.239,-58.04 L 611.005,-58.4989 L 610.821,-58.9796
 L 610.688,-59.4771 L 610.607,-59.9857 L 610.58,-60.5 L 610.607,-61.0143 L 610.688,-61.5229 L 610.821,-62.0204
 L 611.005,-62.5011 L 611.239,-62.96 L 611.52,-63.3919 L 611.844,-63.7921 L 612.208,-64.1563 L 612.608,-64.4804
 L 612.95,-64.7024 L 612.95,-74 L 613.006,-74.5302 L 613.17,-75.0372 L 613.437,-75.4988 L 613.794,-75.895
 L 614.225,-76.2084 L 614.712,-76.4252 L 615.233,-76.536 L 615.767,-76.536 L 616.288,-76.4252 L 616.775,-76.2084
 L 617.206,-75.895 L 617.563,-75.4988 L 617.83,-75.0372 L 617.994,-74.5302 L 618.05,-74 L 618.05,-64.7024
 L 618.392,-64.4804 L 618.792,-64.1563 L 619.156,-63.7921 L 619.48,-63.3919 L 619.761,-62.96 L 619.995,-62.5011
 L 620.179,-62.0204 L 620.312,-61.5229 L 620.393,-61.0143 L 620.42,-60.5 L 620.393,-59.9857 L 620.312,-59.4771
 L 620.179,-58.9796 L 619.995,-58.4989 L 619.761,-58.04 L 619.48,-57.6081 L 619.156,-57.2079 L 618.792,-56.8437
 L 618.392,-56.5196 L 617.96,-56.2392 L 617.501,-56.0054 L 617.02,-55.8208 L 616.523,-55.6875 L 616.014,-55.607
 L 615.5,-55.58 z
M 766.986,-55.607 L 766.477,-55.6875 L 765.98,-55.8208 L 765.499,-56.0054 L 765.04,-56.2392 L 764.608,-56.5196
 L 764.208,-56.8437 L 763.844,-57.2079 L 763.52,-57.6081 L 763.239,-58.04 L 763.005,-58.4989 L 762.821,-58.9796
 L 762.688,-59.4771 L 762.607,-59.9857 L 762.58,-60.5 L 762.607,-61.0143 L 762.688,-61.5229 L 762.821,-62.0204
 L 763.005,-62.5011 L 763.239,-62.96 L 763.52,-63.3919 L 763.844,-63.7921 L 764.208,-64.1563 L 764.608,-64.4804
 L 764.95,-64.7024 L 764.95,-74 L 765.006,-74.5302 L 765.17,-75.0372 L 765.437,-75.4988 L 765.794,-75.895
 L 766.225,-76.2084 L 766.712,-76.4252 L 767.233,-76.536 L 767.767,-76.536 L 768.288,-76.4252 L 768.775,-76.2084
 L 769.206,-75.895 L 769.563,-75.4988 L 769.83,-75.0372 L 769.994,-74.5302 L 770.05,-74 L 770.05,-64.7024
 L 770.392,-64.4804 L 770.792,-64.1563 L 771.156,-63.7921 L 771.48,-63.3919 L 771.761,-62.96 L 771.995,-62.5011
 L 772.179,-62.0204 L 772.312,-61.5229 L 772.393,-61.0143 L 772.42,-60.5 L 772.393,-59.9857 L 772.312,-59.4771
 L 772.179,-58.9796 L 771.995,-58.4989 L 771.761,-58.04 L 771.48,-57.6081 L 771.156,-57.2079 L 770.792,-56.8437
 L 770.392,-56.5196 L 769.96,-56.2392 L 769.501,-56.0054 L 769.02,-55.8208 L 768.523,-55.6875 L 768.014,-55.607
 L 767.5,-55.58 z
M 386.661,-48.1395 L 385.867,-48.3993 L 372.568,-54.3487 L 371.85,-54.7639 L 371.229,-55.3235 L 370.737,-56
 L 370.397,-56.7639 L 370.223,-57.5819 L 370.223,-58.4181 L 370.397,-59.2361 L 370.737,-60 L 371.229,-60.6765
 L 371.85,-61.2361 L 372.574,-61.6542 L 373.37,-61.9126 L 374.201,-62 L 400.799,-62 L 401.623,-61.9141
 L 402.419,-61.6571 L 403.144,-61.2403 L 403.767,-60.6818 L 404.259,-60.0062 L 404.601,-59.2429 L 404.776,-58.4252
 L 404.778,-57.589 L 404.605,-56.7707 L 404.266,-56.0062 L 403.776,-55.3288 L 403.156,-54.7681 L 402.432,-54.3487
 L 389.133,-48.3993 L 388.325,-48.1365 L 387.493,-48.0506 z
M 297.661,-22.1463 L 296.867,-22.4061 L 225.465,-54.3487 L 224.748,-54.7639 L 224.126,-55.3235 L 223.635,-56
 L 223.295,-56.7639 L 223.121,-57.5819 L 223.121,-58.4181 L 223.295,-59.2361 L 223.635,-60 L 224.126,-60.6765
 L 224.748,-61.2361 L 225.472,-61.6542 L 226.267,-61.9126 L 227.099,-62 L 298.5,-62 L 299.736,-61.8042
 L 300.5,-61.4641 L 301.177,-60.9726 L 301.736,-60.3511 L 302.154,-59.627 L 302.413,-58.8316 L 302.5,-58
 L 302.5,-26.0574 L 302.477,-25.6321 L 302.302,-24.8145 L 301.961,-24.0512 L 301.468,-23.3755 L 300.845,-22.8171
 L 300.12,-22.4003 L 299.325,-22.1433 L 298.493,-22.0574 z
M 627.675,-22.1433 L 626.88,-22.4003 L 626.155,-22.8171 L 625.532,-23.3755 L 625.039,-24.0512 L 624.698,-24.8145
 L 624.523,-25.6321 L 624.5,-26.0574 L 624.5,-58 L 624.587,-58.8316 L 624.846,-59.627 L 625.264,-60.3511
 L 625.823,-60.9726 L 626.5,-61.4641 L 627.264,-61.8042 L 628.5,-62 L 699.901,-62 L 700.733,-61.9126
 L 701.528,-61.6542 L 702.252,-61.2361 L 702.874,-60.6765 L 703.365,-60 L 703.705,-59.2361 L 703.879,-58.4181
 L 703.879,-57.5819 L 703.705,-56.7639 L 703.365,-56 L 702.874,-55.3235 L 702.252,-54.7639 L 701.535,-54.3487
 L 630.133,-22.4061 L 629.339,-22.1463 L 628.507,-22.0574 z
M 145.661,-22.1463 L 144.867,-22.4061 L 73.4653,-54.3487 L 72.7477,-54.7639 L 72.1262,-55.3235 L 71.6347,-56
 L 71.2946,-56.7639 L 71.1207,-57.5819 L 71.1207,-58.4181 L 71.2946,-59.2361 L 71.6347,-60 L 72.1262,-60.6765
 L 72.7477,-61.2361 L 73.4719,-61.6542 L 74.2672,-61.9126 L 75.0988,-62 L 146.5,-62 L 147.736,-61.8042
 L 148.5,-61.4641 L 149.177,-60.9726 L 149.736,-60.3511 L 150.154,-59.627 L 150.413,-58.8316 L 150.5,-58
 L 150.5,-26.0574 L 150.477,-25.6321 L 150.302,-24.8145 L 149.961,-24.0512 L 149.468,-23.3755 L 148.845,-22.8171
 L 148.12,-22.4003 L 147.325,-22.1433 L 146.493,-22.0574 z
M 475.675,-22.1433 L 474.88,-22.4003 L 474.155,-22.8171 L 473.532,-23.3755 L 473.039,-24.0512 L 472.698,-24.8145
 L 472.523,-25.6321 L 472.5,-26.0574 L 472.5,-58 L 472.587,-58.8316 L 472.846,-59.627 L 473.264,-60.3511
 L 473.823,-60.9726 L 474.5,-61.4641 L 475.264,-61.8042 L 476.5,-62 L 547.901,-62 L 548.733,-61.9126
 L 549.528,-61.6542 L 550.252,-61.2361 L 550.874,-60.6765 L 551.365,-60 L 551.705,-59.2361 L 551.879,-58.4181
 L 551.879,-57.5819 L 551.705,-56.7639 L 551.365,-56 L 550.874,-55.3235 L 550.252,-54.7639 L 549.535,-54.3487
 L 478.133,-22.4061 L 477.339,-22.1463 L 476.507,-22.0574 z
M 324.082,-19.8883 L 323.264,-20.0621 L 322.5,-20.4023 L 321.823,-20.8938 L 321.264,-21.5152 L 320.846,-22.2394
 L 320.587,-23.0347 L 320.5,-23.8664 L 320.5,-56.1336 L 320.523,-56.5589 L 320.698,-57.3765 L 321.039,-58.1398
 L 321.532,-58.8155 L 322.155,-59.3739 L 322.88,-59.7907 L 323.675,-60.0477 L 324.507,-60.1336 L 325.339,-60.0447
 L 326.133,-59.7849 L 362.197,-43.6513 L 362.909,-43.2403 L 363.531,-42.6818 L 364.024,-42.0062 L 364.365,-41.2429
 L 364.541,-40.4252 L 364.542,-39.589 L 364.37,-38.7707 L 364.031,-38.0062 L 363.541,-37.3288 L 362.92,-36.7681
 L 362.197,-36.3487 L 326.133,-20.2151 L 325.736,-20.0621 L 324.918,-19.8883 z
M 449.661,-19.9552 L 448.867,-20.2151 L 412.803,-36.3487 L 412.091,-36.7597 L 411.469,-37.3182 L 410.976,-37.9938
 L 410.635,-38.7571 L 410.459,-39.5748 L 410.458,-40.411 L 410.63,-41.2293 L 410.969,-41.9938 L 411.459,-42.6712
 L 412.08,-43.2319 L 412.803,-43.6513 L 448.867,-59.7849 L 449.264,-59.9379 L 450.082,-60.1117 L 450.918,-60.1117
 L 451.736,-59.9379 L 452.5,-59.5977 L 453.177,-59.1062 L 453.736,-58.4848 L 454.154,-57.7606 L 454.413,-56.9653
 L 454.5,-56.1337 L 454.5,-23.8663 L 454.477,-23.4411 L 454.302,-22.6235 L 453.961,-21.8602 L 453.468,-21.1845
 L 452.845,-20.6261 L 452.12,-20.2093 L 451.325,-19.9523 L 450.493,-19.8663 z
M 172.5,-18 L 171.264,-18.1958 L 170.5,-18.5359 L 169.823,-19.0274 L 169.264,-19.6489 L 168.846,-20.373
 L 168.587,-21.1684 L 168.5,-22 L 168.5,-53.9426 L 168.523,-54.3678 L 168.698,-55.1855 L 169.039,-55.9488
 L 169.532,-56.6245 L 170.155,-57.1829 L 170.88,-57.5997 L 171.675,-57.8567 L 172.507,-57.9426 L 173.339,-57.8537
 L 174.133,-57.5939 L 245.535,-25.6513 L 246.252,-25.2361 L 246.874,-24.6765 L 247.365,-24 L 247.705,-23.2361
 L 247.879,-22.4181 L 247.879,-21.5819 L 247.705,-20.7639 L 247.365,-20 L 246.874,-19.3235 L 246.252,-18.7639
 L 245.528,-18.3458 L 244.733,-18.0874 L 243.901,-18 z
M 531.099,-18 L 530.267,-18.0874 L 529.472,-18.3458 L 528.748,-18.7639 L 528.126,-19.3235 L 527.635,-20
 L 527.295,-20.7639 L 527.121,-21.5819 L 527.121,-22.4181 L 527.295,-23.2361 L 527.635,-24 L 528.126,-24.6765
 L 528.748,-25.2361 L 529.465,-25.6513 L 600.867,-57.5939 L 601.661,-57.8537 L 602.493,-57.9426 L 603.325,-57.8567
 L 604.12,-57.5997 L 604.845,-57.1829 L 605.468,-56.6245 L 605.961,-55.9488 L 606.302,-55.1855 L 606.477,-54.3678
 L 606.5,-53.9426 L 606.5,-22 L 606.413,-21.1684 L 606.154,-20.373 L 605.736,-19.6489 L 605.177,-19.0274
 L 604.5,-18.5359 L 603.736,-18.1958 L 602.5,-18 z
M 22,-18 L 20.7639,-18.1958 L 20,-18.5359 L 19.3235,-19.0274 L 18.7639,-19.6489 L 18.3458,-20.373
 L 18.0874,-21.1684 L 18,-22 L 18,-53.2716 L 18.0227,-53.6968 L 18.198,-54.5144 L 18.5395,-55.2778
 L 19.0322,-55.9534 L 19.6546,-56.5118 L 20.3796,-56.9286 L 21.1753,-57.1856 L 22.0071,-57.2716 L 22.8386,-57.1827
 L 23.6335,-56.9229 L 93.5346,-25.6513 L 94.2523,-25.2361 L 94.8737,-24.6765 L 95.3653,-24 L 95.7054,-23.2361
 L 95.8793,-22.4181 L 95.8793,-21.5819 L 95.7054,-20.7639 L 95.3653,-20 L 94.8737,-19.3235 L 94.2523,-18.7639
 L 93.5281,-18.3458 L 92.7328,-18.0874 L 91.9012,-18 z
M 683.099,-18 L 682.267,-18.0874 L 681.472,-18.3458 L 680.748,-18.7639 L 680.126,-19.3235 L 679.635,-20
 L 679.295,-20.7639 L 679.121,-21.5819 L 679.121,-22.4181 L 679.295,-23.2361 L 679.635,-24 L 680.126,-24.6765
 L 680.748,-25.2361 L 681.465,-25.6513 L 751.367,-56.9229 L 752.161,-57.1827 L 752.993,-57.2716 L 753.825,-57.1856
 L 754.62,-56.9286 L 755.345,-56.5118 L 755.968,-55.9534 L 756.461,-55.2778 L 756.802,-54.5144 L 756.977,-53.6968
 L 757,-53.2716 L 757,-22 L 756.913,-21.1684 L 756.654,-20.373 L 756.236,-19.6489 L 755.677,-19.0274
 L 755,-18.5359 L 754.236,-18.1958 L 753,-18 z
M 374.201,-18 L 373.377,-18.0859 L 372.581,-18.3429 L 371.856,-18.7597 L 371.233,-19.3182 L 370.741,-19.9938
 L 370.399,-20.7571 L 370.224,-21.5748 L 370.222,-22.411 L 370.395,-23.2293 L 370.734,-23.9938 L 371.224,-24.6712
 L 371.844,-25.2319 L 372.568,-25.6513 L 385.867,-31.6007 L 386.675,-31.8635 L 387.507,-31.9494 L 388.339,-31.8605
 L 389.133,-31.6007 L 402.432,-25.6513 L 403.15,-25.2361 L 403.771,-24.6765 L 404.263,-24 L 404.603,-23.2361
 L 404.777,-22.4181 L 404.777,-21.5819 L 404.603,-20.7639 L 404.263,-20 L 403.771,-19.3235 L 403.15,-18.7639
 L 402.426,-18.3458 L 401.63,-18.0874 L 400.799,-18 z
" stroke="black" fill="lightgray" stroke-width="0.5"/>
</svg>
