<?xml version="1.0" standalone="no"?>
<!DOCTYPE svg PUBLIC "-//W3C//DTD SVG 1.1//EN" "http://www.w3.org/Graphics/SVG/1.1/DTD/svg11.dtd">
<svg width="678mm" height="80mm" viewBox="0 -80 678 80" xmlns="http://www.w3.org/2000/svg" version="1.1">
<title>OpenSCAD Model</title>
<path d="
M 678,-80 L 0,-80 L 0,-0 L 4.95,-0 L 4.95,-6 L 5.00572,-6.53017
 L 5.17046,-7.03717 L 5.437,-7.49884 L 5.79372,-7.895 L 6.22499,-8.20836 L 6.71201,-8.42519 L 7.23344,-8.53603
 L 7.76654,-8.53603 L 8.28798,-8.42519 L 8.77499,-8.20836 L 9.20627,-7.895 L 9.56299,-7.49884 L 9.82953,-7.03717
 L 9.99426,-6.53017 L 10.05,-6 L 10.05,-0 L 137.55,-0 L 137.55,-6 L 137.606,-6.53017
 L 137.77,-7.03717 L 138.037,-7.49884 L 138.394,-7.895 L 138.825,-8.20836 L 139.312,-8.42519 L 139.833,-8.53603
 L 140.367,-8.53603 L 140.888,-8.42519 L 141.375,-8.20836 L 141.806,-7.895 L 142.163,-7.49884 L 142.43,-7.03717
 L 142.594,-6.53017 L 142.65,-6 L 142.65,-0 L 270.15,-0 L 270.15,-6 L 270.206,-6.53017
 L 270.37,-7.03717 L 270.637,-7.49884 L 270.994,-7.895 L 271.425,-8.20836 L 271.912,-8.42519 L 272.433,-8.53603
 L 272.967,-8.53603 L 273.488,-8.42519 L 273.975,-8.20836 L 274.406,-7.895 L 274.763,-7.49884 L 275.03,-7.03717
 L 275.194,-6.53017 L 275.25,-6 L 275.25,-0 L 402.75,-0 L 402.75,-6 L 402.806,-6.53017
 L 402.97,-7.03717 L 403.237,-7.49884 L 403.594,-7.895 L 404.025,-8.20836 L 404.512,-8.42519 L 405.033,-8.53603
 L 405.567,-8.53603 L 406.088,-8.42519 L 406.575,-8.20836 L 407.006,-7.895 L 407.363,-7.49884 L 407.63,-7.03717
 L 407.794,-6.53017 L 407.85,-6 L 407.85,-0 L 535.35,-0 L 535.35,-6 L 535.406,-6.53017
 L 535.57,-7.03717 L 535.837,-7.49884 L 536.194,-7.895 L 536.625,-8.20836 L 537.112,-8.42519 L 537.633,-8.53603
 L 538.167,-8.53603 L 538.688,-8.42519 L 539.175,-8.20836 L 539.606,-7.895 L 539.963,-7.49884 L 540.23,-7.03717
 L 540.394,-6.53017 L 540.45,-6 L 540.45,-0 L 667.95,-0 L 667.95,-6 L 668.006,-6.53017
 L 668.17,-7.03717 L 668.437,-7.49884 L 668.794,-7.895 L 669.225,-8.20836 L 669.712,-8.42519 L 670.233,-8.53603
 L 670.767,-8.53603 L 671.288,-8.42519 L 671.775,-8.20836 L 672.206,-7.895 L 672.563,-7.49884 L 672.83,-7.03717
 L 672.994,-6.53017 L 673.05,-6 L 673.05,-0 L 678,-0 z
M 6.98573,-55.607 L 6.47708,-55.6875 L 5.97964,-55.8208 L 5.49887,-56.0054 L 5.04001,-56.2392 L 4.60811,-56.5196
 L 4.20789,-56.8437 L 3.84373,-57.2079 L 3.51964,-57.6081 L 3.23917,-58.04 L 3.00537,-58.4989 L 2.82082,-58.9796
 L 2.68752,-59.4771 L 2.60696,-59.9857 L 2.58,-60.5 L 2.60696,-61.0143 L 2.68752,-61.5229 L 2.82082,-62.0204
 L 3.00537,-62.5011 L 3.23917,-62.96 L 3.51964,-63.3919 L 3.84373,-63.7921 L 4.20789,-64.1563 L 4.60811,-64.4804
 L 4.95001,-64.7024 L 4.95001,-74 L 5.00574,-74.5302 L 5.17047,-75.0372 L 5.43701,-75.4988 L 5.79373,-75.895
 L 6.22501,-76.2084 L 6.71202,-76.4252 L 7.23346,-76.536 L 7.76654,-76.536 L 8.28798,-76.4252 L 8.77499,-76.2084
 L 9.20627,-75.895 L 9.56299,-75.4988 L 9.82953,-75.0372 L 9.99426,-74.5302 L 10.05,-74 L 10.05,-64.7024
 L 10.3919,-64.4804 L 10.7921,-64.1563 L 11.1563,-63.7921 L 11.4804,-63.3919 L 11.7608,-62.96 L 11.9946,-62.5011
 L 12.1792,-62.0204 L 12.3125,-61.5229 L 12.393,-61.0143 L 12.42,-60.5 L 12.393,-59.9857 L 12.3125,-59.4771
 L 12.1792,-58.9796 L 11.9946,-58.4989 L 11.7608,-58.04 L 11.4804,-57.6081 L 11.1563,-57.2079 L 10.7921,-56.8437
 L 10.3919,-56.5196 L 9.95999,-56.2392 L 9.50113,-56.0054 L 9.02036,-55.8208 L 8.52292,-55.6875 L 8.01427,-55.607
 L 7.5,-55.58 z
M 139.586,-55.607 L 139.077,-55.6875 L 138.58,-55.8208 L 138.099,-56.0054 L 137.64,-56.2392 L 137.208,-56.5196
 L 136.808,-56.8437 L 136.444,-57.2079 L 136.12,-57.6081 L 135.839,-58.04 L 135.605,-58.4989 L 135.421,-58.9796
 L 135.288,-59.4771 L 135.207,-59.9857 L 135.18,-60.5 L 135.207,-61.0143 L 135.288,-61.5229 L 135.421,-62.0204
 L 135.605,-62.5011 L 135.839,-62.96 L 136.12,-63.3919 L 136.444,-63.7921 L 136.808,-64.1563 L 137.208,-64.4804
 L 137.55,-64.7024 L 137.55,-74 L 137.606,-74.5302 L 137.77,-75.0372 L 138.037,-75.4988 L 138.394,-75.895
 L 138.825,-76.2084 L 139.312,-76.4252 L 139.833,-76.536 L 140.367,-76.536 L 140.888,-76.4252 L 141.375,-76.2084
 L 141.806,-75.895 L 142.163,-75.4988 L 142.43,-75.0372 L 142.594,-74.5302 L 142.65,-74 L 142.65,-64.7024
 L 142.992,-64.4804 L 143.392,-64.1563 L 143.756,-63.7921 L 144.08,-63.3919 L 144.361,-62.96 L 144.595,-62.5011
 L 144.779,-62.0204 L 144.912,-61.5229 L 144.993,-61.0143 L 145.02,-60.5 L 144.993,-59.9857 L 144.912,-59.4771
 L 144.779,-58.9796 L 144.595,-58.4989 L 144.361,-58.04 L 144.08,-57.6081 L 143.756,-57.2079 L 143.392,-56.8437
 L 142.992,-56.5196 L 142.56,-56.2392 L 142.101,-56.0054 L 141.62,-55.8208 L 141.123,-55.6875 L 140.614,-55.607
 L 140.1,-55.58 z
M 272.186,-55.607 L 271.677,-55.6875 L 271.18,-55.8208 L 270.699,-56.0054 L 270.24,-56.2392 L 269.808,-56.5196
 L 269.408,-56.8437 L 269.044,-57.2079 L 268.72,-57.6081 L 268.439,-58.04 L 268.205,-58.4989 L 268.021,-58.9796
 L 267.888,-59.4771 L 267.807,-59.9857 L 267.78,-60.5 L 267.807,-61.0143 L 267.888,-61.5229 L 268.021,-62.0204
 L 268.205,-62.5011 L 268.439,-62.96 L 268.72,-63.3919 L 269.044,-63.7921 L 269.408,-64.1563 L 269.808,-64.4804
 L 270.15,-64.7024 L 270.15,-74 L 270.206,-74.5302 L 270.37,-75.0372 L 270.637,-75.4988 L 270.994,-75.895
 L 271.425,-76.2084 L 271.912,-76.4252 L 272.433,-76.536 L 272.967,-76.536 L 273.488,-76.4252 L 273.975,-76.2084
 L 274.406,-75.895 L 274.763,-75.4988 L 275.03,-75.0372 L 275.194,-74.5302 L 275.25,-74 L 275.25,-64.7024
 L 275.592,-64.4804 L 275.992,-64.1563 L 276.356,-63.7921 L 276.68,-63.3919 L 276.961,-62.96 L 277.195,-62.5011
 L 277.379,-62.0204 L 277.512,-61.5229 L 277.593,-61.0143 L 277.62,-60.5 L 277.593,-59.9857 L 277.512,-59.4771
 L 277.379,-58.9796 L 277.195,-58.4989 L 276.961,-58.04 L 276.68,-57.6081 L 276.356,-57.2079 L 275.992,-56.8437
 L 275.592,-56.5196 L 275.16,-56.2392 L 274.701,-56.0054 L 274.22,-55.8208 L 273.723,-55.6875 L 273.214,-55.607
 L 272.7,-55.58 z
M 404.786,-55.607 L 404.277,-55.6875 L 403.78,-55.8208 L 403.299,-56.0054 L 402.84,-56.2392 L 402.408,-56.5196
 L 402.008,-56.8437 L 401.644,-57.2079 L 401.32,-57.6081 L 401.039,-58.04 L 400.805,-58.4989 L 400.621,-58.9796
 L 400.488,-59.4771 L 400.407,-59.9857 L 400.38,-60.5 L 400.407,-61.0143 L 400.488,-61.5229 L 400.621,-62.0204
 L 400.805,-62.5011 L 401.039,-62.96 L 401.32,-63.3919 L 401.644,-63.7921 L 402.008,-64.1563 L 402.408,-64.4804
 L 402.75,-64.7024 L 402.75,-74 L 402.806,-74.5302 L 402.97,-75.0372 L 403.237,-75.4988 L 403.594,-75.895
 L 404.025,-76.2084 L 404.512,-76.4252 L 405.033,-76.536 L 405.567,-76.536 L 406.088,-76.4252 L 406.575,-76.2084
 L 407.006,-75.895 L 407.363,-75.4988 L 407.63,-75.0372 L 407.794,-74.5302 L 407.85,-74 L 407.85,-64.7024
 L 408.192,-64.4804 L 408.592,-64.1563 L 408.956,-63.7921 L 409.28,-63.3919 L 409.561,-62.96 L 409.795,-62.5011
 L 409.979,-62.0204 L 410.112,-61.5229 L 410.193,-61.0143 L 410.22,-60.5 L 410.193,-59.9857 L 410.112,-59.4771
 L 409.979,-58.9796 L 409.795,-58.4989 L 409.561,-58.04 L 409.28,-57.6081 L 408.956,-57.2079 L 408.592,-56.8437
 L 408.192,-56.5196 L 407.76,-56.2392 L 407.301,-56.0054 L 406.82,-55.8208 L 406.323,-55.6875 L 405.814,-55.607
 L 405.3,-55.58 z
M 537.386,-55.607 L 536.877,-55.6875 L 536.38,-55.8208 L 535.899,-56.0054 L 535.44,-56.2392 L 535.008,-56.5196
 L 534.608,-56.8437 L 534.244,-57.2079 L 533.92,-57.6081 L 533.639,-58.04 L 533.405,-58.4989 L 533.221,-58.9796
 L 533.088,-59.4771 L 533.007,-59.9857 L 532.98,-60.5 L 533.007,-61.0143 L 533.088,-61.5229 L 533.221,-62.0204
 L 533.405,-62.5011 L 533.639,-62.96 L 533.92,-63.3919 L 534.244,-63.7921 L 534.608,-64.1563 L 535.008,-64.4804
 L 535.35,-64.7024 L 535.35,-74 L 535.406,-74.5302 L 535.57,-75.0372 L 535.837,-75.4988 L 536.194,-75.895
 L 536.625,-76.2084 L 537.112,-76.4252 L 537.633,-76.536 L 538.167,-76.536 L 538.688,-76.4252 L 539.175,-76.2084
 L 539.606,-75.895 L 539.963,-75.4988 L 540.23,-75.0372 L 540.394,-74.5302 L 540.45,-74 L 540.45,-64.7024
 L 540.792,-64.4804 L 541.192,-64.1563 L 541.556,-63.7921 L 541.88,-63.3919 L 542.161,-62.96 L 542.395,-62.5011
 L 542.579,-62.0204 L 542.712,-61.5229 L 542.793,-61.0143 L 542.82,-60.5 L 542.793,-59.9857 L 542.712,-59.4771
 L 542.579,-58.9796 L 542.395,-58.4989 L 542.161,-58.04 L 541.88,-57.6081 L 541.556,-57.2079 L 541.192,-56.8437
 L 540.792,-56.5196 L 540.36,-56.2392 L 539.901,-56.0054 L 539.42,-55.8208 L 538.923,-55.6875 L 538.414,-55.607
 L 537.9,-55.58 z
M 669.986,-55.607 L 669.477,-55.6875 L 668.98,-55.8208 L 668.499,-56.0054 L 668.04,-56.2392 L 667.608,-56.5196
 L 667.208,-56.8437 L 666.844,-57.2079 L 666.52,-57.6081 L 666.239,-58.04 L 666.005,-58.4989 L 665.821,-58.9796
 L 665.688,-59.4771 L 665.607,-59.9857 L 665.58,-60.5 L 665.607,-61.0143 L 665.688,-61.5229 L 665.821,-62.0204
 L 666.005,-62.5011 L 666.239,-62.96 L 666.52,-63.3919 L 666.844,-63.7921 L 667.208,-64.1563 L 667.608,-64.4804
 L 667.95,-64.7024 L 667.95,-74 L 668.006,-74.5302 L 668.17,-75.0372 L 668.437,-75.4988 L 668.794,-75.895
 L 669.225,-76.2084 L 669.712,-76.4252 L 670.233,-76.536 L 670.767,-76.536 L 671.288,-76.4252 L 671.775,-76.2084
 L 672.206,-75.895 L 672.563,-75.4988 L 672.83,-75.0372 L 672.994,-74.5302 L 673.05,-74 L 673.05,-64.7024
 L 673.392,-64.4804 L 673.792,-64.1563 L 674.156,-63.7921 L 674.48,-63.3919 L 674.761,-62.96 L 674.995,-62.5011
 L 675.179,-62.0204 L 675.312,-61.5229 L 675.393,-61.0143 L 675.42,-60.5 L 675.393,-59.9857 L 675.312,-59.4771
 L 675.179,-58.9796 L 674.995,-58.4989 L 674.761,-58.04 L 674.48,-57.6081 L 674.156,-57.2079 L 673.792,-56.8437
 L 673.392,-56.5196 L 672.96,-56.2392 L 672.501,-56.0054 L 672.02,-55.8208 L 671.523,-55.6875 L 671.014,-55.607
 L 670.5,-55.58 z
M 337.955,-48.4858 L 337.175,-48.7875 L 326.151,-54.4407 L 325.625,-54.7639 L 325.004,-55.3235 L 324.512,-56
 L 324.172,-56.7639 L 323.998,-57.5819 L 323.998,-58.4181 L 324.172,-59.2361 L 324.512,-60 L 325.004,-60.6765
 L 325.625,-61.2361 L 326.349,-61.6542 L 327.145,-61.9126 L 327.976,-62 L 350.024,-62 L 350.639,-61.9524
 L 351.447,-61.7381 L 352.194,-61.3604 L 352.845,-60.8358 L 353.373,-60.1873 L 353.754,-59.4432 L 353.973,-58.6361
 L 354.019,-57.8011 L 353.89,-56.9748 L 353.592,-56.1934 L 353.139,-55.4908 L 352.549,-54.898 L 351.849,-54.4407
 L 340.825,-48.7875 L 340.424,-48.6087 L 339.615,-48.3944 L 338.78,-48.3528 z
M 258.655,-23.3973 L 257.875,-23.6991 L 197.928,-54.4407 L 197.403,-54.7639 L 196.781,-55.3235 L 196.29,-56
 L 195.949,-56.7639 L 195.776,-57.5819 L 195.776,-58.4181 L 195.949,-59.2361 L 196.29,-60 L 196.781,-60.6765
 L 197.403,-61.2361 L 198.127,-61.6542 L 198.922,-61.9126 L 199.754,-62 L 259.7,-62 L 260.936,-61.8042
 L 261.7,-61.4641 L 262.377,-60.9726 L 262.936,-60.3511 L 263.354,-59.627 L 263.613,-58.8316 L 263.7,-58
 L 263.7,-27.2583 L 263.649,-26.6223 L 263.431,-25.8151 L 263.049,-25.071 L 262.521,-24.4225 L 261.87,-23.8979
 L 261.124,-23.5203 L 260.315,-23.3059 L 259.48,-23.2644 z
M 550.285,-23.3059 L 549.476,-23.5203 L 548.73,-23.8979 L 548.079,-24.4225 L 547.551,-25.071 L 547.169,-25.8151
 L 546.951,-26.6223 L 546.9,-27.2583 L 546.9,-58 L 546.987,-58.8316 L 547.246,-59.627 L 547.664,-60.3511
 L 548.223,-60.9726 L 548.9,-61.4641 L 549.664,-61.8042 L 550.9,-62 L 610.846,-62 L 611.678,-61.9126
 L 612.473,-61.6542 L 613.197,-61.2361 L 613.819,-60.6765 L 614.31,-60 L 614.651,-59.2361 L 614.824,-58.4181
 L 614.824,-57.5819 L 614.651,-56.7639 L 614.31,-56 L 613.819,-55.3235 L 613.197,-54.7639 L 612.672,-54.4407
 L 552.725,-23.6991 L 551.945,-23.3973 L 551.12,-23.2644 z
M 126.055,-23.3973 L 125.275,-23.6991 L 65.3284,-54.4407 L 64.8026,-54.7639 L 64.1811,-55.3235 L 63.6896,-56
 L 63.3495,-56.7639 L 63.1756,-57.5819 L 63.1756,-58.4181 L 63.3495,-59.2361 L 63.6896,-60 L 64.1811,-60.6765
 L 64.8026,-61.2361 L 65.5268,-61.6542 L 66.3221,-61.9126 L 67.1537,-62 L 127.1,-62 L 128.336,-61.8042
 L 129.1,-61.4641 L 129.777,-60.9726 L 130.336,-60.3511 L 130.754,-59.627 L 131.013,-58.8316 L 131.1,-58
 L 131.1,-27.2583 L 131.049,-26.6223 L 130.831,-25.8151 L 130.449,-25.071 L 129.921,-24.4225 L 129.27,-23.8979
 L 128.524,-23.5203 L 127.715,-23.3059 L 126.88,-23.2644 z
M 417.685,-23.3059 L 416.876,-23.5203 L 416.13,-23.8979 L 415.479,-24.4225 L 414.951,-25.071 L 414.569,-25.8151
 L 414.351,-26.6223 L 414.3,-27.2583 L 414.3,-58 L 414.387,-58.8316 L 414.646,-59.627 L 415.064,-60.3511
 L 415.623,-60.9726 L 416.3,-61.4641 L 417.064,-61.8042 L 418.3,-62 L 478.246,-62 L 479.078,-61.9126
 L 479.873,-61.6542 L 480.597,-61.2361 L 481.219,-60.6765 L 481.71,-60 L 482.051,-59.2361 L 482.224,-58.4181
 L 482.224,-57.5819 L 482.051,-56.7639 L 481.71,-56 L 481.219,-55.3235 L 480.597,-54.7639 L 480.072,-54.4407
 L 420.125,-23.6991 L 419.345,-23.3973 L 418.52,-23.2644 z
M 285.282,-21.0354 L 284.464,-21.2092 L 283.7,-21.5494 L 283.023,-22.0409 L 282.464,-22.6623 L 282.046,-23.3865
 L 281.787,-24.1818 L 281.7,-25.0135 L 281.7,-54.9865 L 281.751,-55.6226 L 281.969,-56.4297 L 282.351,-57.1738
 L 282.879,-57.8223 L 283.53,-58.3469 L 284.276,-58.7246 L 285.085,-58.9389 L 285.92,-58.9805 L 286.745,-58.8475
 L 287.525,-58.5458 L 316.749,-43.5593 L 317.745,-42.8358 L 318.273,-42.1873 L 318.654,-41.4432 L 318.873,-40.6361
 L 318.919,-39.8011 L 318.79,-38.9748 L 318.492,-38.1934 L 318.039,-37.4908 L 317.449,-36.898 L 316.749,-36.4407
 L 287.525,-21.4542 L 286.936,-21.2092 L 286.118,-21.0354 z
M 391.255,-21.1525 L 390.475,-21.4542 L 361.251,-36.4407 L 360.255,-37.1642 L 359.727,-37.8127 L 359.346,-38.5568
 L 359.127,-39.3639 L 359.081,-40.1989 L 359.21,-41.0252 L 359.507,-41.8066 L 359.961,-42.5092 L 360.551,-43.102
 L 361.251,-43.5593 L 390.475,-58.5458 L 391.064,-58.7908 L 391.882,-58.9646 L 392.718,-58.9646 L 393.536,-58.7908
 L 394.3,-58.4506 L 394.977,-57.9591 L 395.536,-57.3377 L 395.954,-56.6135 L 396.213,-55.8182 L 396.3,-54.9865
 L 396.3,-25.0135 L 396.249,-24.3774 L 396.031,-23.5702 L 395.649,-22.8261 L 395.121,-22.1777 L 394.47,-21.6531
 L 393.724,-21.2754 L 392.915,-21.0611 L 392.08,-21.0195 z
M 153.1,-18 L 151.864,-18.1958 L 151.1,-18.5359 L 150.423,-19.0274 L 149.864,-19.6489 L 149.446,-20.373
 L 149.187,-21.1684 L 149.1,-22 L 149.1,-52.7417 L 149.151,-53.3777 L 149.369,-54.1849 L 149.751,-54.929
 L 150.279,-55.5775 L 150.93,-56.102 L 151.676,-56.4797 L 152.485,-56.694 L 153.32,-56.7356 L 154.145,-56.6027
 L 154.925,-56.3009 L 214.872,-25.5593 L 215.397,-25.2361 L 216.019,-24.6765 L 216.51,-24 L 216.85,-23.2361
 L 217.024,-22.4181 L 217.024,-21.5819 L 216.85,-20.7639 L 216.51,-20 L 216.019,-19.3235 L 215.397,-18.7639
 L 214.673,-18.3458 L 213.878,-18.0874 L 213.046,-18 z
M 464.954,-18 L 464.122,-18.0874 L 463.327,-18.3458 L 462.603,-18.7639 L 461.981,-19.3235 L 461.49,-20
 L 461.149,-20.7639 L 460.976,-21.5819 L 460.976,-22.4181 L 461.149,-23.2361 L 461.49,-24 L 461.981,-24.6765
 L 462.603,-25.2361 L 463.128,-25.5593 L 523.075,-56.3009 L 523.855,-56.6027 L 524.68,-56.7356 L 525.515,-56.694
 L 526.324,-56.4797 L 527.07,-56.102 L 527.721,-55.5775 L 528.249,-54.929 L 528.631,-54.1849 L 528.849,-53.3777
 L 528.9,-52.7417 L 528.9,-22 L 528.813,-21.1684 L 528.554,-20.373 L 528.136,-19.6489 L 527.577,-19.0274
 L 526.9,-18.5359 L 526.136,-18.1958 L 524.9,-18 z
M 22,-18 L 20.7639,-18.1958 L 20,-18.5359 L 19.3235,-19.0274 L 18.7639,-19.6489 L 18.3458,-20.373
 L 18.0874,-21.1684 L 18,-22 L 18,-51.9724 L 18.0509,-52.6085 L 18.2694,-53.4157 L 18.651,-54.1598
 L 19.179,-54.8082 L 19.8302,-55.3328 L 20.5763,-55.7105 L 21.3846,-55.9248 L 22.2198,-55.9664 L 23.0454,-55.8334
 L 23.8253,-55.5317 L 82.2715,-25.5593 L 82.7974,-25.2361 L 83.4189,-24.6765 L 83.9104,-24 L 84.2505,-23.2361
 L 84.4244,-22.4181 L 84.4244,-21.5819 L 84.2505,-20.7639 L 83.9104,-20 L 83.4189,-19.3235 L 82.7974,-18.7639
 L 82.0732,-18.3458 L 81.2779,-18.0874 L 80.4463,-18 z
M 597.554,-18 L 596.722,-18.0874 L 595.927,-18.3458 L 595.203,-18.7639 L 594.581,-19.3235 L 594.09,-20
 L 593.749,-20.7639 L 593.576,-21.5819 L 593.576,-22.4181 L 593.749,-23.2361 L 594.09,-24 L 594.581,-24.6765
 L 595.203,-25.2361 L 595.728,-25.5593 L 654.175,-55.5317 L 654.955,-55.8334 L 655.78,-55.9664 L 656.615,-55.9248
 L 657.424,-55.7105 L 658.17,-55.3328 L 658.821,-54.8082 L 659.349,-54.1598 L 659.731,-53.4157 L 659.949,-52.6085
 L 660,-51.9724 L 660,-22 L 659.913,-21.1684 L 659.654,-20.373 L 659.236,-19.6489 L 658.677,-19.0274
 L 658,-18.5359 L 657.236,-18.1958 L 656,-18 z
M 327.976,-18 L 327.361,-18.0476 L 326.553,-18.2619 L 325.806,-18.6396 L 325.155,-19.1642 L 324.627,-19.8127
 L 324.246,-20.5568 L 324.027,-21.3639 L 323.981,-22.1989 L 324.11,-23.0252 L 324.407,-23.8066 L 324.861,-24.5092
 L 325.451,-25.102 L 326.151,-25.5593 L 337.175,-31.2125 L 337.576,-31.3913 L 338.385,-31.6056 L 339.22,-31.6472
 L 340.045,-31.5142 L 340.825,-31.2125 L 351.849,-25.5593 L 352.375,-25.2361 L 352.996,-24.6765 L 353.488,-24
 L 353.828,-23.2361 L 354.002,-22.4181 L 354.002,-21.5819 L 353.828,-20.7639 L 353.488,-20 L 352.996,-19.3235
 L 352.375,-18.7639 L 351.651,-18.3458 L 350.855,-18.0874 L 350.024,-18 z
" stroke="black" fill="lightgray" stroke-width="0.5"/>
</svg>
