<?xml version="1.0" standalone="no"?>
<!DOCTYPE svg PUBLIC "-//W3C//DTD SVG 1.1//EN" "http://www.w3.org/Graphics/SVG/1.1/DTD/svg11.dtd">
<svg width="889mm" height="80mm" viewBox="0 -80 889 80" xmlns="http://www.w3.org/2000/svg" version="1.1">
<title>OpenSCAD Model</title>
<path d="
M 889,-80 L 0,-80 L 0,-0 L 4.95,-0 L 4.95,-6 L 5.00572,-6.53017
 L 5.17046,-7.03717 L 5.437,-7.49884 L 5.79372,-7.895 L 6.22499,-8.20836 L 6.71201,-8.42519 L 7.23344,-8.53603
 L 7.76654,-8.53603 L 8.28798,-8.42519 L 8.77499,-8.20836 L 9.20627,-7.895 L 9.56299,-7.49884 L 9.82953,-7.03717
 L 9.99426,-6.53017 L 10.05,-6 L 10.05,-0 L 179.75,-0 L 179.75,-6 L 179.806,-6.53017
 L 179.97,-7.03717 L 180.237,-7.49884 L 180.594,-7.895 L 181.025,-8.20836 L 181.512,-8.42519 L 182.033,-8.53603
 L 182.567,-8.53603 L 183.088,-8.42519 L 183.575,-8.20836 L 184.006,-7.895 L 184.363,-7.49884 L 184.63,-7.03717
 L 184.794,-6.53017 L 184.85,-6 L 184.85,-0 L 354.55,-0 L 354.55,-6 L 354.606,-6.53017
 L 354.77,-7.03717 L 355.037,-7.49884 L 355.394,-7.895 L 355.825,-8.20836 L 356.312,-8.42519 L 356.833,-8.53603
 L 357.367,-8.53603 L 357.888,-8.42519 L 358.375,-8.20836 L 358.806,-7.895 L 359.163,-7.49884 L 359.43,-7.03717
 L 359.594,-6.53017 L 359.65,-6 L 359.65,-0 L 529.35,-0 L 529.35,-6 L 529.406,-6.53017
 L 529.57,-7.03717 L 529.837,-7.49884 L 530.194,-7.895 L 530.625,-8.20836 L 531.112,-8.42519 L 531.633,-8.53603
 L 532.167,-8.53603 L 532.688,-8.42519 L 533.175,-8.20836 L 533.606,-7.895 L 533.963,-7.49884 L 534.23,-7.03717
 L 534.394,-6.53017 L 534.45,-6 L 534.45,-0 L 704.15,-0 L 704.15,-6 L 704.206,-6.53017
 L 704.37,-7.03717 L 704.637,-7.49884 L 704.994,-7.895 L 705.425,-8.20836 L 705.912,-8.42519 L 706.433,-8.53603
 L 706.967,-8.53603 L 707.488,-8.42519 L 707.975,-8.20836 L 708.406,-7.895 L 708.763,-7.49884 L 709.03,-7.03717
 L 709.194,-6.53017 L 709.25,-6 L 709.25,-0 L 878.95,-0 L 878.95,-6 L 879.006,-6.53017
 L 879.17,-7.03717 L 879.437,-7.49884 L 879.794,-7.895 L 880.225,-8.20836 L 880.712,-8.42519 L 881.233,-8.53603
 L 881.767,-8.53603 L 882.288,-8.42519 L 882.775,-8.20836 L 883.206,-7.895 L 883.563,-7.49884 L 883.83,-7.03717
 L 883.994,-6.53017 L 884.05,-6 L 884.05,-0 L 889,-0 z
M 6.98573,-55.607 L 6.47708,-55.6875 L 5.97964,-55.8208 L 5.49887,-56.0054 L 5.04001,-56.2392 L 4.60811,-56.5196
 L 4.20789,-56.8437 L 3.84373,-57.2079 L 3.51964,-57.6081 L 3.23917,-58.04 L 3.00537,-58.4989 L 2.82082,-58.9796
 L 2.68752,-59.4771 L 2.60696,-59.9857 L 2.58,-60.5 L 2.60696,-61.0143 L 2.68752,-61.5229 L 2.82082,-62.0204
 L 3.00537,-62.5011 L 3.23917,-62.96 L 3.51964,-63.3919 L 3.84373,-63.7921 L 4.20789,-64.1563 L 4.60811,-64.4804
 L 4.95001,-64.7024 L 4.95001,-74 L 5.00574,-74.5302 L 5.17047,-75.0372 L 5.43701,-75.4988 L 5.79373,-75.895
 L 6.22501,-76.2084 L 6.71202,-76.4252 L 7.23346,-76.536 L 7.76654,-76.536 L 8.28798,-76.4252 L 8.77499,-76.2084
 L 9.20627,-75.895 L 9.56299,-75.4988 L 9.82953,-75.0372 L 9.99426,-74.5302 L 10.05,-74 L 10.05,-64.7024
 L 10.3919,-64.4804 L 10.7921,-64.1563 L 11.1563,-63.7921 L 11.4804,-63.3919 L 11.7608,-62.96 L 11.9946,-62.5011
 L 12.1792,-62.0204 L 12.3125,-61.5229 L 12.393,-61.0143 L 12.42,-60.5 L 12.393,-59.9857 L 12.3125,-59.4771
 L 12.1792,-58.9796 L 11.9946,-58.4989 L 11.7608,-58.04 L 11.4804,-57.6081 L 11.1563,-57.2079 L 10.7921,-56.8437
 L 10.3919,-56.5196 L 9.95999,-56.2392 L 9.50113,-56.0054 L 9.02036,-55.8208 L 8.52292,-55.6875 L 8.01427,-55.607
 L 7.5,-55.58 z
M 181.786,-55.607 L 181.277,-55.6875 L 180.78,-55.8208 L 180.299,-56.0054 L 179.84,-56.2392 L 179.408,-56.5196
 L 179.008,-56.8437 L 178.644,-57.2079 L 178.32,-57.6081 L 178.039,-58.04 L 177.805,-58.4989 L 177.621,-58.9796
 L 177.488,-59.4771 L 177.407,-59.9857 L 177.38,-60.5 L 177.407,-61.0143 L 177.488,-61.5229 L 177.621,-62.0204
 L 177.805,-62.5011 L 178.039,-62.96 L 178.32,-63.3919 L 178.644,-63.7921 L 179.008,-64.1563 L 179.408,-64.4804
 L 179.75,-64.7024 L 179.75,-74 L 179.806,-74.5302 L 179.97,-75.0372 L 180.237,-75.4988 L 180.594,-75.895
 L 181.025,-76.2084 L 181.512,-76.4252 L 182.033,-76.536 L 182.567,-76.536 L 183.088,-76.4252 L 183.575,-76.2084
 L 184.006,-75.895 L 184.363,-75.4988 L 184.63,-75.0372 L 184.794,-74.5302 L 184.85,-74 L 184.85,-64.7024
 L 185.192,-64.4804 L 185.592,-64.1563 L 185.956,-63.7921 L 186.28,-63.3919 L 186.561,-62.96 L 186.795,-62.5011
 L 186.979,-62.0204 L 187.112,-61.5229 L 187.193,-61.0143 L 187.22,-60.5 L 187.193,-59.9857 L 187.112,-59.4771
 L 186.979,-58.9796 L 186.795,-58.4989 L 186.561,-58.04 L 186.28,-57.6081 L 185.956,-57.2079 L 185.592,-56.8437
 L 185.192,-56.5196 L 184.76,-56.2392 L 184.301,-56.0054 L 183.82,-55.8208 L 183.323,-55.6875 L 182.814,-55.607
 L 182.3,-55.58 z
M 356.586,-55.607 L 356.077,-55.6875 L 355.58,-55.8208 L 355.099,-56.0054 L 354.64,-56.2392 L 354.208,-56.5196
 L 353.808,-56.8437 L 353.444,-57.2079 L 353.12,-57.6081 L 352.839,-58.04 L 352.605,-58.4989 L 352.421,-58.9796
 L 352.288,-59.4771 L 352.207,-59.9857 L 352.18,-60.5 L 352.207,-61.0143 L 352.288,-61.5229 L 352.421,-62.0204
 L 352.605,-62.5011 L 352.839,-62.96 L 353.12,-63.3919 L 353.444,-63.7921 L 353.808,-64.1563 L 354.208,-64.4804
 L 354.55,-64.7024 L 354.55,-74 L 354.606,-74.5302 L 354.77,-75.0372 L 355.037,-75.4988 L 355.394,-75.895
 L 355.825,-76.2084 L 356.312,-76.4252 L 356.833,-76.536 L 357.367,-76.536 L 357.888,-76.4252 L 358.375,-76.2084
 L 358.806,-75.895 L 359.163,-75.4988 L 359.43,-75.0372 L 359.594,-74.5302 L 359.65,-74 L 359.65,-64.7024
 L 359.992,-64.4804 L 360.392,-64.1563 L 360.756,-63.7921 L 361.08,-63.3919 L 361.361,-62.96 L 361.595,-62.5011
 L 361.779,-62.0204 L 361.912,-61.5229 L 361.993,-61.0143 L 362.02,-60.5 L 361.993,-59.9857 L 361.912,-59.4771
 L 361.779,-58.9796 L 361.595,-58.4989 L 361.361,-58.04 L 361.08,-57.6081 L 360.756,-57.2079 L 360.392,-56.8437
 L 359.992,-56.5196 L 359.56,-56.2392 L 359.101,-56.0054 L 358.62,-55.8208 L 358.123,-55.6875 L 357.614,-55.607
 L 357.1,-55.58 z
M 531.386,-55.607 L 530.877,-55.6875 L 530.38,-55.8208 L 529.899,-56.0054 L 529.44,-56.2392 L 529.008,-56.5196
 L 528.608,-56.8437 L 528.244,-57.2079 L 527.92,-57.6081 L 527.639,-58.04 L 527.405,-58.4989 L 527.221,-58.9796
 L 527.088,-59.4771 L 527.007,-59.9857 L 526.98,-60.5 L 527.007,-61.0143 L 527.088,-61.5229 L 527.221,-62.0204
 L 527.405,-62.5011 L 527.639,-62.96 L 527.92,-63.3919 L 528.244,-63.7921 L 528.608,-64.1563 L 529.008,-64.4804
 L 529.35,-64.7024 L 529.35,-74 L 529.406,-74.5302 L 529.57,-75.0372 L 529.837,-75.4988 L 530.194,-75.895
 L 530.625,-76.2084 L 531.112,-76.4252 L 531.633,-76.536 L 532.167,-76.536 L 532.688,-76.4252 L 533.175,-76.2084
 L 533.606,-75.895 L 533.963,-75.4988 L 534.23,-75.0372 L 534.394,-74.5302 L 534.45,-74 L 534.45,-64.7024
 L 534.792,-64.4804 L 535.192,-64.1563 L 535.556,-63.7921 L 535.88,-63.3919 L 536.161,-62.96 L 536.395,-62.5011
 L 536.579,-62.0204 L 536.712,-61.5229 L 536.793,-61.0143 L 536.82,-60.5 L 536.793,-59.9857 L 536.712,-59.4771
 L 536.579,-58.9796 L 536.395,-58.4989 L 536.161,-58.04 L 535.88,-57.6081 L 535.556,-57.2079 L 535.192,-56.8437
 L 534.792,-56.5196 L 534.36,-56.2392 L 533.901,-56.0054 L 533.42,-55.8208 L 532.923,-55.6875 L 532.414,-55.607
 L 531.9,-55.58 z
M 706.186,-55.607 L 705.677,-55.6875 L 705.18,-55.8208 L 704.699,-56.0054 L 704.24,-56.2392 L 703.808,-56.5196
 L 703.408,-56.8437 L 703.044,-57.2079 L 702.72,-57.6081 L 702.439,-58.04 L 702.205,-58.4989 L 702.021,-58.9796
 L 701.888,-59.4771 L 701.807,-59.9857 L 701.78,-60.5 L 701.807,-61.0143 L 701.888,-61.5229 L 702.021,-62.0204
 L 702.205,-62.5011 L 702.439,-62.96 L 702.72,-63.3919 L 703.044,-63.7921 L 703.408,-64.1563 L 703.808,-64.4804
 L 704.15,-64.7024 L 704.15,-74 L 704.206,-74.5302 L 704.37,-75.0372 L 704.637,-75.4988 L 704.994,-75.895
 L 705.425,-76.2084 L 705.912,-76.4252 L 706.433,-76.536 L 706.967,-76.536 L 707.488,-76.4252 L 707.975,-76.2084
 L 708.406,-75.895 L 708.763,-75.4988 L 709.03,-75.0372 L 709.194,-74.5302 L 709.25,-74 L 709.25,-64.7024
 L 709.592,-64.4804 L 709.992,-64.1563 L 710.356,-63.7921 L 710.68,-63.3919 L 710.961,-62.96 L 711.195,-62.5011
 L 711.379,-62.0204 L 711.512,-61.5229 L 711.593,-61.0143 L 711.62,-60.5 L 711.593,-59.9857 L 711.512,-59.4771
 L 711.379,-58.9796 L 711.195,-58.4989 L 710.961,-58.04 L 710.68,-57.6081 L 710.356,-57.2079 L 709.992,-56.8437
 L 709.592,-56.5196 L 709.16,-56.2392 L 708.701,-56.0054 L 708.22,-55.8208 L 707.723,-55.6875 L 707.214,-55.607
 L 706.7,-55.58 z
M 880.986,-55.607 L 880.477,-55.6875 L 879.98,-55.8208 L 879.499,-56.0054 L 879.04,-56.2392 L 878.608,-56.5196
 L 878.208,-56.8437 L 877.844,-57.2079 L 877.52,-57.6081 L 877.239,-58.04 L 877.005,-58.4989 L 876.821,-58.9796
 L 876.688,-59.4771 L 876.607,-59.9857 L 876.58,-60.5 L 876.607,-61.0143 L 876.688,-61.5229 L 876.821,-62.0204
 L 877.005,-62.5011 L 877.239,-62.96 L 877.52,-63.3919 L 877.844,-63.7921 L 878.208,-64.1563 L 878.608,-64.4804
 L 878.95,-64.7024 L 878.95,-74 L 879.006,-74.5302 L 879.17,-75.0372 L 879.437,-75.4988 L 879.794,-75.895
 L 880.225,-76.2084 L 880.712,-76.4252 L 881.233,-76.536 L 881.767,-76.536 L 882.288,-76.4252 L 882.775,-76.2084
 L 883.206,-75.895 L 883.563,-75.4988 L 883.83,-75.0372 L 883.994,-74.5302 L 884.05,-74 L 884.05,-64.7024
 L 884.392,-64.4804 L 884.792,-64.1563 L 885.156,-63.7921 L 885.48,-63.3919 L 885.761,-62.96 L 885.995,-62.5011
 L 886.179,-62.0204 L 886.312,-61.5229 L 886.393,-61.0143 L 886.42,-60.5 L 886.393,-59.9857 L 886.312,-59.4771
 L 886.179,-58.9796 L 885.995,-58.4989 L 885.761,-58.04 L 885.48,-57.6081 L 885.156,-57.2079 L 884.792,-56.8437
 L 884.392,-56.5196 L 883.96,-56.2392 L 883.501,-56.0054 L 883.02,-55.8208 L 882.523,-55.6875 L 882.014,-55.607
 L 881.5,-55.58 z
M 443.857,-47.8416 L 443.05,-48.0616 L 427.085,-54.2721 L 426.184,-54.7639 L 425.563,-55.3235 L 425.071,-56
 L 424.731,-56.7639 L 424.557,-57.5819 L 424.557,-58.4181 L 424.731,-59.2361 L 425.071,-60 L 425.563,-60.6765
 L 426.184,-61.2361 L 426.908,-61.6542 L 427.704,-61.9126 L 428.535,-62 L 460.465,-62 L 461.483,-61.8683
 L 462.265,-61.5721 L 462.968,-61.1198 L 463.562,-60.5312 L 464.02,-59.8319 L 464.324,-59.0526 L 464.458,-58.2272
 L 464.418,-57.392 L 464.205,-56.5833 L 463.829,-55.8365 L 463.306,-55.1843 L 462.658,-54.6551 L 461.915,-54.2721
 L 445.95,-48.0616 L 445.518,-47.9212 L 444.691,-47.7941 z
M 343.457,-21.0423 L 342.65,-21.2624 L 257.795,-54.2721 L 256.894,-54.7639 L 256.273,-55.3235 L 255.781,-56
 L 255.441,-56.7639 L 255.267,-57.5819 L 255.267,-58.4181 L 255.441,-59.2361 L 255.781,-60 L 256.273,-60.6765
 L 256.894,-61.2361 L 257.619,-61.6542 L 258.414,-61.9126 L 259.245,-62 L 344.1,-62 L 345.336,-61.8042
 L 346.1,-61.4641 L 346.777,-60.9726 L 347.336,-60.3511 L 347.754,-59.627 L 348.013,-58.8316 L 348.1,-58
 L 348.1,-24.9902 L 347.959,-23.9377 L 347.656,-23.1583 L 347.197,-22.4591 L 346.603,-21.8704 L 345.9,-21.4181
 L 345.118,-21.1219 L 344.291,-20.9948 z
M 718.682,-21.1219 L 717.9,-21.4181 L 717.197,-21.8704 L 716.603,-22.4591 L 716.144,-23.1583 L 715.841,-23.9377
 L 715.7,-24.9902 L 715.7,-58 L 715.787,-58.8316 L 716.046,-59.627 L 716.464,-60.3511 L 717.023,-60.9726
 L 717.7,-61.4641 L 718.464,-61.8042 L 719.7,-62 L 804.555,-62 L 805.386,-61.9126 L 806.181,-61.6542
 L 806.906,-61.2361 L 807.527,-60.6765 L 808.019,-60 L 808.359,-59.2361 L 808.533,-58.4181 L 808.533,-57.5819
 L 808.359,-56.7639 L 808.019,-56 L 807.527,-55.3235 L 806.906,-54.7639 L 806.005,-54.2721 L 721.15,-21.2624
 L 720.343,-21.0423 L 719.509,-20.9948 z
M 168.657,-21.0423 L 167.85,-21.2624 L 82.9953,-54.2721 L 82.0944,-54.7639 L 81.4729,-55.3235 L 80.9814,-56
 L 80.6413,-56.7639 L 80.4674,-57.5819 L 80.4674,-58.4181 L 80.6413,-59.2361 L 80.9814,-60 L 81.4729,-60.6765
 L 82.0944,-61.2361 L 82.8185,-61.6542 L 83.6138,-61.9126 L 84.4455,-62 L 169.3,-62 L 170.536,-61.8042
 L 171.3,-61.4641 L 171.977,-60.9726 L 172.536,-60.3511 L 172.954,-59.627 L 173.213,-58.8316 L 173.3,-58
 L 173.3,-24.9902 L 173.159,-23.9377 L 172.856,-23.1583 L 172.397,-22.4591 L 171.803,-21.8704 L 171.1,-21.4181
 L 170.318,-21.1219 L 169.491,-20.9948 z
M 543.882,-21.1219 L 543.1,-21.4181 L 542.397,-21.8704 L 541.803,-22.4591 L 541.344,-23.1583 L 541.041,-23.9377
 L 540.9,-24.9902 L 540.9,-58 L 540.987,-58.8316 L 541.246,-59.627 L 541.664,-60.3511 L 542.223,-60.9726
 L 542.9,-61.4641 L 543.664,-61.8042 L 544.9,-62 L 629.755,-62 L 630.586,-61.9126 L 631.381,-61.6542
 L 632.106,-61.2361 L 632.727,-60.6765 L 633.219,-60 L 633.559,-59.2361 L 633.733,-58.4181 L 633.733,-57.5819
 L 633.559,-56.7639 L 633.219,-56 L 632.727,-55.3235 L 632.106,-54.7639 L 631.205,-54.2721 L 546.35,-21.2624
 L 545.543,-21.0423 L 544.709,-20.9948 z
M 369.682,-18.8686 L 368.864,-19.0425 L 368.1,-19.3826 L 367.423,-19.8741 L 366.864,-20.4956 L 366.446,-21.2198
 L 366.187,-22.0151 L 366.1,-22.8467 L 366.1,-57.1533 L 366.241,-58.2059 L 366.544,-58.9852 L 367.003,-59.6845
 L 367.597,-60.2731 L 368.3,-60.7254 L 369.082,-61.0216 L 369.909,-61.1487 L 370.743,-61.1012 L 371.55,-60.8811
 L 415.644,-43.7279 L 416.697,-43.1198 L 417.291,-42.5312 L 417.75,-41.8319 L 418.053,-41.0526 L 418.188,-40.2272
 L 418.148,-39.392 L 417.935,-38.5833 L 417.558,-37.8365 L 417.035,-37.1843 L 416.388,-36.6551 L 415.644,-36.2721
 L 371.55,-19.1189 L 370.518,-18.8686 z
M 518.257,-18.8988 L 517.45,-19.1189 L 473.356,-36.2721 L 472.303,-36.8802 L 471.709,-37.4688 L 471.25,-38.1681
 L 470.947,-38.9474 L 470.812,-39.7728 L 470.852,-40.608 L 471.065,-41.4167 L 471.442,-42.1635 L 471.965,-42.8157
 L 472.612,-43.3449 L 473.356,-43.7279 L 517.45,-60.8811 L 518.482,-61.1314 L 519.318,-61.1314 L 520.136,-60.9575
 L 520.9,-60.6174 L 521.577,-60.1259 L 522.136,-59.5044 L 522.554,-58.7802 L 522.813,-57.9849 L 522.9,-57.1533
 L 522.9,-22.8467 L 522.759,-21.7941 L 522.456,-21.0148 L 521.997,-20.3155 L 521.403,-19.7269 L 520.7,-19.2746
 L 519.918,-18.9784 L 519.091,-18.8513 z
M 195.3,-18 L 194.064,-18.1958 L 193.3,-18.5359 L 192.623,-19.0274 L 192.064,-19.6489 L 191.646,-20.373
 L 191.387,-21.1684 L 191.3,-22 L 191.3,-55.0098 L 191.441,-56.0623 L 191.744,-56.8417 L 192.203,-57.5409
 L 192.797,-58.1296 L 193.5,-58.5819 L 194.282,-58.8781 L 195.109,-59.0052 L 195.943,-58.9577 L 196.75,-58.7376
 L 281.605,-25.7279 L 282.506,-25.2361 L 283.127,-24.6765 L 283.619,-24 L 283.959,-23.2361 L 284.133,-22.4181
 L 284.133,-21.5819 L 283.959,-20.7639 L 283.619,-20 L 283.127,-19.3235 L 282.506,-18.7639 L 281.781,-18.3458
 L 280.986,-18.0874 L 280.154,-18 z
M 608.846,-18 L 608.014,-18.0874 L 607.219,-18.3458 L 606.494,-18.7639 L 605.873,-19.3235 L 605.381,-20
 L 605.041,-20.7639 L 604.867,-21.5819 L 604.867,-22.4181 L 605.041,-23.2361 L 605.381,-24 L 605.873,-24.6765
 L 606.494,-25.2361 L 607.395,-25.7279 L 692.25,-58.7376 L 693.057,-58.9577 L 693.891,-59.0052 L 694.718,-58.8781
 L 695.5,-58.5819 L 696.203,-58.1296 L 696.797,-57.5409 L 697.256,-56.8417 L 697.559,-56.0623 L 697.7,-55.0098
 L 697.7,-22 L 697.613,-21.1684 L 697.354,-20.373 L 696.936,-19.6489 L 696.377,-19.0274 L 695.7,-18.5359
 L 694.936,-18.1958 L 693.7,-18 z
M 22,-18 L 20.7639,-18.1958 L 20,-18.5359 L 19.3235,-19.0274 L 18.7639,-19.6489 L 18.3458,-20.373
 L 18.0874,-21.1684 L 18,-22 L 18,-54.4262 L 18.141,-55.4788 L 18.4442,-56.2581 L 18.9027,-56.9574
 L 19.4967,-57.5461 L 20.2,-57.9984 L 20.9821,-58.2945 L 21.8086,-58.4216 L 22.6434,-58.3741 L 23.4502,-58.1541
 L 106.805,-25.7279 L 107.706,-25.2361 L 108.327,-24.6765 L 108.819,-24 L 109.159,-23.2361 L 109.333,-22.4181
 L 109.333,-21.5819 L 109.159,-20.7639 L 108.819,-20 L 108.327,-19.3235 L 107.706,-18.7639 L 106.981,-18.3458
 L 106.186,-18.0874 L 105.354,-18 z
M 783.646,-18 L 782.814,-18.0874 L 782.019,-18.3458 L 781.294,-18.7639 L 780.673,-19.3235 L 780.181,-20
 L 779.841,-20.7639 L 779.667,-21.5819 L 779.667,-22.4181 L 779.841,-23.2361 L 780.181,-24 L 780.673,-24.6765
 L 781.294,-25.2361 L 782.195,-25.7279 L 865.55,-58.1541 L 866.357,-58.3741 L 867.191,-58.4216 L 868.018,-58.2945
 L 868.8,-57.9984 L 869.503,-57.5461 L 870.097,-56.9574 L 870.556,-56.2581 L 870.859,-55.4788 L 871,-54.4262
 L 871,-22 L 870.913,-21.1684 L 870.654,-20.373 L 870.236,-19.6489 L 869.677,-19.0274 L 869,-18.5359
 L 868.236,-18.1958 L 867,-18 z
M 428.535,-18 L 427.517,-18.1317 L 426.735,-18.4279 L 426.032,-18.8802 L 425.438,-19.4688 L 424.979,-20.1681
 L 424.676,-20.9474 L 424.542,-21.7728 L 424.582,-22.608 L 424.795,-23.4167 L 425.171,-24.1635 L 425.694,-24.8157
 L 426.342,-25.3449 L 427.085,-25.7279 L 443.05,-31.9384 L 443.482,-32.0788 L 444.309,-32.2059 L 445.143,-32.1584
 L 445.95,-31.9384 L 461.915,-25.7279 L 462.816,-25.2361 L 463.437,-24.6765 L 463.929,-24 L 464.269,-23.2361
 L 464.443,-22.4181 L 464.443,-21.5819 L 464.269,-20.7639 L 463.929,-20 L 463.437,-19.3235 L 462.816,-18.7639
 L 462.092,-18.3458 L 461.296,-18.0874 L 460.465,-18 z
" stroke="black" fill="lightgray" stroke-width="0.5"/>
</svg>
