<?xml version="1.0" standalone="no"?>
<!DOCTYPE svg PUBLIC "-//W3C//DTD SVG 1.1//EN" "http://www.w3.org/Graphics/SVG/1.1/DTD/svg11.dtd">
<svg width="778mm" height="80mm" viewBox="0 -80 778 80" xmlns="http://www.w3.org/2000/svg" version="1.1">
<title>OpenSCAD Model</title>
<path d="
M 778,-80 L 0,-80 L 0,-0 L 4.95,-0 L 4.95,-6 L 5.00572,-6.53017
 L 5.17046,-7.03717 L 5.437,-7.49884 L 5.79372,-7.895 L 6.22499,-8.20836 L 6.71201,-8.42519 L 7.23344,-8.53603
 L 7.76654,-8.53603 L 8.28798,-8.42519 L 8.77499,-8.20836 L 9.20627,-7.895 L 9.56299,-7.49884 L 9.82953,-7.03717
 L 9.99426,-6.53017 L 10.05,-6 L 10.05,-0 L 157.55,-0 L 157.55,-6 L 157.606,-6.53017
 L 157.77,-7.03717 L 158.037,-7.49884 L 158.394,-7.895 L 158.825,-8.20836 L 159.312,-8.42519 L 159.833,-8.53603
 L 160.367,-8.53603 L 160.888,-8.42519 L 161.375,-8.20836 L 161.806,-7.895 L 162.163,-7.49884 L 162.43,-7.03717
 L 162.594,-6.53017 L 162.65,-6 L 162.65,-0 L 310.15,-0 L 310.15,-6 L 310.206,-6.53017
 L 310.37,-7.03717 L 310.637,-7.49884 L 310.994,-7.895 L 311.425,-8.20836 L 311.912,-8.42519 L 312.433,-8.53603
 L 312.967,-8.53603 L 313.488,-8.42519 L 313.975,-8.20836 L 314.406,-7.895 L 314.763,-7.49884 L 315.03,-7.03717
 L 315.194,-6.53017 L 315.25,-6 L 315.25,-0 L 462.75,-0 L 462.75,-6 L 462.806,-6.53017
 L 462.97,-7.03717 L 463.237,-7.49884 L 463.594,-7.895 L 464.025,-8.20836 L 464.512,-8.42519 L 465.033,-8.53603
 L 465.567,-8.53603 L 466.088,-8.42519 L 466.575,-8.20836 L 467.006,-7.895 L 467.363,-7.49884 L 467.63,-7.03717
 L 467.794,-6.53017 L 467.85,-6 L 467.85,-0 L 615.35,-0 L 615.35,-6 L 615.406,-6.53017
 L 615.57,-7.03717 L 615.837,-7.49884 L 616.194,-7.895 L 616.625,-8.20836 L 617.112,-8.42519 L 617.633,-8.53603
 L 618.167,-8.53603 L 618.688,-8.42519 L 619.175,-8.20836 L 619.606,-7.895 L 619.963,-7.49884 L 620.23,-7.03717
 L 620.394,-6.53017 L 620.45,-6 L 620.45,-0 L 767.95,-0 L 767.95,-6 L 768.006,-6.53017
 L 768.17,-7.03717 L 768.437,-7.49884 L 768.794,-7.895 L 769.225,-8.20836 L 769.712,-8.42519 L 770.233,-8.53603
 L 770.767,-8.53603 L 771.288,-8.42519 L 771.775,-8.20836 L 772.206,-7.895 L 772.563,-7.49884 L 772.83,-7.03717
 L 772.994,-6.53017 L 773.05,-6 L 773.05,-0 L 778,-0 z
M 6.98573,-55.607 L 6.47708,-55.6875 L 5.97964,-55.8208 L 5.49887,-56.0054 L 5.04001,-56.2392 L 4.60811,-56.5196
 L 4.20789,-56.8437 L 3.84373,-57.2079 L 3.51964,-57.6081 L 3.23917,-58.04 L 3.00537,-58.4989 L 2.82082,-58.9796
 L 2.68752,-59.4771 L 2.60696,-59.9857 L 2.58,-60.5 L 2.60696,-61.0143 L 2.68752,-61.5229 L 2.82082,-62.0204
 L 3.00537,-62.5011 L 3.23917,-62.96 L 3.51964,-63.3919 L 3.84373,-63.7921 L 4.20789,-64.1563 L 4.60811,-64.4804
 L 4.95001,-64.7024 L 4.95001,-74 L 5.00574,-74.5302 L 5.17047,-75.0372 L 5.43701,-75.4988 L 5.79373,-75.895
 L 6.22501,-76.2084 L 6.71202,-76.4252 L 7.23346,-76.536 L 7.76654,-76.536 L 8.28798,-76.4252 L 8.77499,-76.2084
 L 9.20627,-75.895 L 9.56299,-75.4988 L 9.82953,-75.0372 L 9.99426,-74.5302 L 10.05,-74 L 10.05,-64.7024
 L 10.3919,-64.4804 L 10.7921,-64.1563 L 11.1563,-63.7921 L 11.4804,-63.3919 L 11.7608,-62.96 L 11.9946,-62.5011
 L 12.1792,-62.0204 L 12.3125,-61.5229 L 12.393,-61.0143 L 12.42,-60.5 L 12.393,-59.9857 L 12.3125,-59.4771
 L 12.1792,-58.9796 L 11.9946,-58.4989 L 11.7608,-58.04 L 11.4804,-57.6081 L 11.1563,-57.2079 L 10.7921,-56.8437
 L 10.3919,-56.5196 L 9.95999,-56.2392 L 9.50113,-56.0054 L 9.02036,-55.8208 L 8.52292,-55.6875 L 8.01427,-55.607
 L 7.5,-55.58 z
M 159.586,-55.607 L 159.077,-55.6875 L 158.58,-55.8208 L 158.099,-56.0054 L 157.64,-56.2392 L 157.208,-56.5196
 L 156.808,-56.8437 L 156.444,-57.2079 L 156.12,-57.6081 L 155.839,-58.04 L 155.605,-58.4989 L 155.421,-58.9796
 L 155.288,-59.4771 L 155.207,-59.9857 L 155.18,-60.5 L 155.207,-61.0143 L 155.288,-61.5229 L 155.421,-62.0204
 L 155.605,-62.5011 L 155.839,-62.96 L 156.12,-63.3919 L 156.444,-63.7921 L 156.808,-64.1563 L 157.208,-64.4804
 L 157.55,-64.7024 L 157.55,-74 L 157.606,-74.5302 L 157.77,-75.0372 L 158.037,-75.4988 L 158.394,-75.895
 L 158.825,-76.2084 L 159.312,-76.4252 L 159.833,-76.536 L 160.367,-76.536 L 160.888,-76.4252 L 161.375,-76.2084
 L 161.806,-75.895 L 162.163,-75.4988 L 162.43,-75.0372 L 162.594,-74.5302 L 162.65,-74 L 162.65,-64.7024
 L 162.992,-64.4804 L 163.392,-64.1563 L 163.756,-63.7921 L 164.08,-63.3919 L 164.361,-62.96 L 164.595,-62.5011
 L 164.779,-62.0204 L 164.912,-61.5229 L 164.993,-61.0143 L 165.02,-60.5 L 164.993,-59.9857 L 164.912,-59.4771
 L 164.779,-58.9796 L 164.595,-58.4989 L 164.361,-58.04 L 164.08,-57.6081 L 163.756,-57.2079 L 163.392,-56.8437
 L 162.992,-56.5196 L 162.56,-56.2392 L 162.101,-56.0054 L 161.62,-55.8208 L 161.123,-55.6875 L 160.614,-55.607
 L 160.1,-55.58 z
M 312.186,-55.607 L 311.677,-55.6875 L 311.18,-55.8208 L 310.699,-56.0054 L 310.24,-56.2392 L 309.808,-56.5196
 L 309.408,-56.8437 L 309.044,-57.2079 L 308.72,-57.6081 L 308.439,-58.04 L 308.205,-58.4989 L 308.021,-58.9796
 L 307.888,-59.4771 L 307.807,-59.9857 L 307.78,-60.5 L 307.807,-61.0143 L 307.888,-61.5229 L 308.021,-62.0204
 L 308.205,-62.5011 L 308.439,-62.96 L 308.72,-63.3919 L 309.044,-63.7921 L 309.408,-64.1563 L 309.808,-64.4804
 L 310.15,-64.7024 L 310.15,-74 L 310.206,-74.5302 L 310.37,-75.0372 L 310.637,-75.4988 L 310.994,-75.895
 L 311.425,-76.2084 L 311.912,-76.4252 L 312.433,-76.536 L 312.967,-76.536 L 313.488,-76.4252 L 313.975,-76.2084
 L 314.406,-75.895 L 314.763,-75.4988 L 315.03,-75.0372 L 315.194,-74.5302 L 315.25,-74 L 315.25,-64.7024
 L 315.592,-64.4804 L 315.992,-64.1563 L 316.356,-63.7921 L 316.68,-63.3919 L 316.961,-62.96 L 317.195,-62.5011
 L 317.379,-62.0204 L 317.512,-61.5229 L 317.593,-61.0143 L 317.62,-60.5 L 317.593,-59.9857 L 317.512,-59.4771
 L 317.379,-58.9796 L 317.195,-58.4989 L 316.961,-58.04 L 316.68,-57.6081 L 316.356,-57.2079 L 315.992,-56.8437
 L 315.592,-56.5196 L 315.16,-56.2392 L 314.701,-56.0054 L 314.22,-55.8208 L 313.723,-55.6875 L 313.214,-55.607
 L 312.7,-55.58 z
M 464.786,-55.607 L 464.277,-55.6875 L 463.78,-55.8208 L 463.299,-56.0054 L 462.84,-56.2392 L 462.408,-56.5196
 L 462.008,-56.8437 L 461.644,-57.2079 L 461.32,-57.6081 L 461.039,-58.04 L 460.805,-58.4989 L 460.621,-58.9796
 L 460.488,-59.4771 L 460.407,-59.9857 L 460.38,-60.5 L 460.407,-61.0143 L 460.488,-61.5229 L 460.621,-62.0204
 L 460.805,-62.5011 L 461.039,-62.96 L 461.32,-63.3919 L 461.644,-63.7921 L 462.008,-64.1563 L 462.408,-64.4804
 L 462.75,-64.7024 L 462.75,-74 L 462.806,-74.5302 L 462.97,-75.0372 L 463.237,-75.4988 L 463.594,-75.895
 L 464.025,-76.2084 L 464.512,-76.4252 L 465.033,-76.536 L 465.567,-76.536 L 466.088,-76.4252 L 466.575,-76.2084
 L 467.006,-75.895 L 467.363,-75.4988 L 467.63,-75.0372 L 467.794,-74.5302 L 467.85,-74 L 467.85,-64.7024
 L 468.192,-64.4804 L 468.592,-64.1563 L 468.956,-63.7921 L 469.28,-63.3919 L 469.561,-62.96 L 469.795,-62.5011
 L 469.979,-62.0204 L 470.112,-61.5229 L 470.193,-61.0143 L 470.22,-60.5 L 470.193,-59.9857 L 470.112,-59.4771
 L 469.979,-58.9796 L 469.795,-58.4989 L 469.561,-58.04 L 469.28,-57.6081 L 468.956,-57.2079 L 468.592,-56.8437
 L 468.192,-56.5196 L 467.76,-56.2392 L 467.301,-56.0054 L 466.82,-55.8208 L 466.323,-55.6875 L 465.814,-55.607
 L 465.3,-55.58 z
M 617.386,-55.607 L 616.877,-55.6875 L 616.38,-55.8208 L 615.899,-56.0054 L 615.44,-56.2392 L 615.008,-56.5196
 L 614.608,-56.8437 L 614.244,-57.2079 L 613.92,-57.6081 L 613.639,-58.04 L 613.405,-58.4989 L 613.221,-58.9796
 L 613.088,-59.4771 L 613.007,-59.9857 L 612.98,-60.5 L 613.007,-61.0143 L 613.088,-61.5229 L 613.221,-62.0204
 L 613.405,-62.5011 L 613.639,-62.96 L 613.92,-63.3919 L 614.244,-63.7921 L 614.608,-64.1563 L 615.008,-64.4804
 L 615.35,-64.7024 L 615.35,-74 L 615.406,-74.5302 L 615.57,-75.0372 L 615.837,-75.4988 L 616.194,-75.895
 L 616.625,-76.2084 L 617.112,-76.4252 L 617.633,-76.536 L 618.167,-76.536 L 618.688,-76.4252 L 619.175,-76.2084
 L 619.606,-75.895 L 619.963,-75.4988 L 620.23,-75.0372 L 620.394,-74.5302 L 620.45,-74 L 620.45,-64.7024
 L 620.792,-64.4804 L 621.192,-64.1563 L 621.556,-63.7921 L 621.88,-63.3919 L 622.161,-62.96 L 622.395,-62.5011
 L 622.579,-62.0204 L 622.712,-61.5229 L 622.793,-61.0143 L 622.82,-60.5 L 622.793,-59.9857 L 622.712,-59.4771
 L 622.579,-58.9796 L 622.395,-58.4989 L 622.161,-58.04 L 621.88,-57.6081 L 621.556,-57.2079 L 621.192,-56.8437
 L 620.792,-56.5196 L 620.36,-56.2392 L 619.901,-56.0054 L 619.42,-55.8208 L 618.923,-55.6875 L 618.414,-55.607
 L 617.9,-55.58 z
M 769.986,-55.607 L 769.477,-55.6875 L 768.98,-55.8208 L 768.499,-56.0054 L 768.04,-56.2392 L 767.608,-56.5196
 L 767.208,-56.8437 L 766.844,-57.2079 L 766.52,-57.6081 L 766.239,-58.04 L 766.005,-58.4989 L 765.821,-58.9796
 L 765.688,-59.4771 L 765.607,-59.9857 L 765.58,-60.5 L 765.607,-61.0143 L 765.688,-61.5229 L 765.821,-62.0204
 L 766.005,-62.5011 L 766.239,-62.96 L 766.52,-63.3919 L 766.844,-63.7921 L 767.208,-64.1563 L 767.608,-64.4804
 L 767.95,-64.7024 L 767.95,-74 L 768.006,-74.5302 L 768.17,-75.0372 L 768.437,-75.4988 L 768.794,-75.895
 L 769.225,-76.2084 L 769.712,-76.4252 L 770.233,-76.536 L 770.767,-76.536 L 771.288,-76.4252 L 771.775,-76.2084
 L 772.206,-75.895 L 772.563,-75.4988 L 772.83,-75.0372 L 772.994,-74.5302 L 773.05,-74 L 773.05,-64.7024
 L 773.392,-64.4804 L 773.792,-64.1563 L 774.156,-63.7921 L 774.48,-63.3919 L 774.761,-62.96 L 774.995,-62.5011
 L 775.179,-62.0204 L 775.312,-61.5229 L 775.393,-61.0143 L 775.42,-60.5 L 775.393,-59.9857 L 775.312,-59.4771
 L 775.179,-58.9796 L 774.995,-58.4989 L 774.761,-58.04 L 774.48,-57.6081 L 774.156,-57.2079 L 773.792,-56.8437
 L 773.392,-56.5196 L 772.96,-56.2392 L 772.501,-56.0054 L 772.02,-55.8208 L 771.523,-55.6875 L 771.014,-55.607
 L 770.5,-55.58 z
M 388.167,-48.1304 L 387.372,-48.389 L 374.003,-54.3463 L 373.28,-54.7639 L 372.659,-55.3235 L 372.167,-56
 L 371.827,-56.7639 L 371.653,-57.5819 L 371.653,-58.4181 L 371.827,-59.2361 L 372.167,-60 L 372.659,-60.6765
 L 373.28,-61.2361 L 374.004,-61.6542 L 374.799,-61.9126 L 375.631,-62 L 402.369,-62 L 403.199,-61.9129
 L 403.995,-61.6547 L 404.719,-61.2368 L 405.341,-60.6775 L 405.832,-60.0011 L 406.173,-59.2373 L 406.347,-58.4194
 L 406.347,-57.5831 L 406.173,-56.7651 L 405.834,-56.0011 L 405.342,-55.3244 L 404.721,-54.7647 L 403.997,-54.3463
 L 390.628,-48.389 L 389.83,-48.1298 L 388.999,-48.0427 z
M 298.867,-22.1129 L 298.072,-22.3715 L 226.317,-54.3463 L 225.594,-54.7639 L 224.972,-55.3235 L 224.481,-56
 L 224.141,-56.7639 L 223.967,-57.5819 L 223.967,-58.4181 L 224.141,-59.2361 L 224.481,-60 L 224.972,-60.6765
 L 225.594,-61.2361 L 226.318,-61.6542 L 227.113,-61.9126 L 227.945,-62 L 299.7,-62 L 300.936,-61.8042
 L 301.7,-61.4641 L 302.377,-60.9726 L 302.936,-60.3511 L 303.354,-59.627 L 303.613,-58.8316 L 303.7,-58
 L 303.7,-26.0252 L 303.678,-25.6058 L 303.504,-24.7879 L 303.163,-24.0241 L 302.672,-23.3477 L 302.05,-22.7884
 L 301.326,-22.3705 L 300.53,-22.1124 L 299.699,-22.0252 z
M 630.07,-22.1124 L 629.274,-22.3705 L 628.55,-22.7884 L 627.928,-23.3477 L 627.437,-24.0241 L 627.096,-24.7879
 L 626.922,-25.6058 L 626.9,-26.0252 L 626.9,-58 L 626.987,-58.8316 L 627.246,-59.627 L 627.664,-60.3511
 L 628.223,-60.9726 L 628.9,-61.4641 L 629.664,-61.8042 L 630.9,-62 L 702.655,-62 L 703.487,-61.9126
 L 704.282,-61.6542 L 705.006,-61.2361 L 705.628,-60.6765 L 706.119,-60 L 706.459,-59.2361 L 706.633,-58.4181
 L 706.633,-57.5819 L 706.459,-56.7639 L 706.119,-56 L 705.628,-55.3235 L 705.006,-54.7639 L 704.283,-54.3463
 L 632.528,-22.3715 L 631.733,-22.1129 L 630.901,-22.0252 z
M 146.267,-22.1129 L 145.472,-22.3715 L 73.7167,-54.3463 L 72.9937,-54.7639 L 72.3722,-55.3235 L 71.8807,-56
 L 71.5406,-56.7639 L 71.3667,-57.5819 L 71.3667,-58.4181 L 71.5406,-59.2361 L 71.8807,-60 L 72.3722,-60.6765
 L 72.9937,-61.2361 L 73.7178,-61.6542 L 74.5131,-61.9126 L 75.3448,-62 L 147.1,-62 L 148.336,-61.8042
 L 149.1,-61.4641 L 149.777,-60.9726 L 150.336,-60.3511 L 150.754,-59.627 L 151.013,-58.8316 L 151.1,-58
 L 151.1,-26.0252 L 151.078,-25.6058 L 150.904,-24.7879 L 150.563,-24.0241 L 150.072,-23.3477 L 149.45,-22.7884
 L 148.726,-22.3705 L 147.93,-22.1124 L 147.099,-22.0252 z
M 477.47,-22.1124 L 476.674,-22.3705 L 475.95,-22.7884 L 475.328,-23.3477 L 474.837,-24.0241 L 474.496,-24.7879
 L 474.322,-25.6058 L 474.3,-26.0252 L 474.3,-58 L 474.387,-58.8316 L 474.646,-59.627 L 475.064,-60.3511
 L 475.623,-60.9726 L 476.3,-61.4641 L 477.064,-61.8042 L 478.3,-62 L 550.055,-62 L 550.887,-61.9126
 L 551.682,-61.6542 L 552.406,-61.2361 L 553.028,-60.6765 L 553.519,-60 L 553.859,-59.2361 L 554.033,-58.4181
 L 554.033,-57.5819 L 553.859,-56.7639 L 553.519,-56 L 553.028,-55.3235 L 552.406,-54.7639 L 551.683,-54.3463
 L 479.928,-22.3715 L 479.133,-22.1129 L 478.301,-22.0252 z
M 325.282,-19.8575 L 324.464,-20.0314 L 323.7,-20.3715 L 323.023,-20.8631 L 322.464,-21.4845 L 322.046,-22.2087
 L 321.787,-23.004 L 321.7,-23.8356 L 321.7,-56.1644 L 321.722,-56.5837 L 321.896,-57.4016 L 322.237,-58.1655
 L 322.728,-58.8418 L 323.35,-59.4012 L 324.074,-59.8191 L 324.87,-60.0772 L 325.701,-60.1644 L 326.533,-60.0767
 L 327.328,-59.818 L 363.603,-43.6537 L 364.325,-43.2368 L 364.946,-42.6775 L 365.438,-42.0011 L 365.779,-41.2373
 L 365.953,-40.4194 L 365.953,-39.5831 L 365.779,-38.7651 L 365.439,-38.0011 L 364.948,-37.3244 L 364.327,-36.7647
 L 363.603,-36.3463 L 327.328,-20.182 L 326.936,-20.0314 L 326.118,-19.8575 z
M 451.467,-19.9233 L 450.672,-20.1819 L 414.397,-36.3463 L 413.675,-36.7632 L 413.053,-37.3225 L 412.562,-37.9989
 L 412.221,-38.7627 L 412.047,-39.5806 L 412.047,-40.4169 L 412.221,-41.2349 L 412.56,-41.9989 L 413.052,-42.6756
 L 413.673,-43.2353 L 414.397,-43.6537 L 450.672,-59.8181 L 451.064,-59.9686 L 451.882,-60.1425 L 452.718,-60.1425
 L 453.536,-59.9686 L 454.3,-59.6285 L 454.977,-59.137 L 455.536,-58.5155 L 455.954,-57.7913 L 456.213,-56.996
 L 456.3,-56.1644 L 456.3,-23.8356 L 456.278,-23.4162 L 456.104,-22.5983 L 455.763,-21.8345 L 455.272,-21.1582
 L 454.65,-20.5988 L 453.926,-20.1809 L 453.13,-19.9228 L 452.299,-19.8356 z
M 173.1,-18 L 171.864,-18.1958 L 171.1,-18.5359 L 170.423,-19.0274 L 169.864,-19.6489 L 169.446,-20.373
 L 169.187,-21.1684 L 169.1,-22 L 169.1,-53.9748 L 169.122,-54.3942 L 169.296,-55.2121 L 169.637,-55.9759
 L 170.128,-56.6523 L 170.75,-57.2116 L 171.474,-57.6295 L 172.27,-57.8876 L 173.101,-57.9748 L 173.933,-57.8871
 L 174.728,-57.6285 L 246.483,-25.6537 L 247.206,-25.2361 L 247.828,-24.6765 L 248.319,-24 L 248.659,-23.2361
 L 248.833,-22.4181 L 248.833,-21.5819 L 248.659,-20.7639 L 248.319,-20 L 247.828,-19.3235 L 247.206,-18.7639
 L 246.482,-18.3458 L 245.687,-18.0874 L 244.855,-18 z
M 533.145,-18 L 532.313,-18.0874 L 531.518,-18.3458 L 530.794,-18.7639 L 530.172,-19.3235 L 529.681,-20
 L 529.341,-20.7639 L 529.167,-21.5819 L 529.167,-22.4181 L 529.341,-23.2361 L 529.681,-24 L 530.172,-24.6765
 L 530.794,-25.2361 L 531.517,-25.6537 L 603.272,-57.6285 L 604.067,-57.8871 L 604.899,-57.9748 L 605.73,-57.8876
 L 606.526,-57.6295 L 607.25,-57.2116 L 607.872,-56.6523 L 608.363,-55.9759 L 608.704,-55.2121 L 608.878,-54.3942
 L 608.9,-53.9748 L 608.9,-22 L 608.813,-21.1684 L 608.554,-20.373 L 608.136,-19.6489 L 607.577,-19.0274
 L 606.9,-18.5359 L 606.136,-18.1958 L 604.9,-18 z
M 22,-18 L 20.7639,-18.1958 L 20,-18.5359 L 19.3235,-19.0274 L 18.7639,-19.6489 L 18.3458,-20.373
 L 18.0874,-21.1684 L 18,-22 L 18,-53.3064 L 18.022,-53.7258 L 18.1962,-54.5437 L 18.5365,-55.3075
 L 19.0283,-55.9838 L 19.6499,-56.5432 L 20.3742,-56.9611 L 21.1696,-57.2192 L 22.0013,-57.3064 L 22.8329,-57.2187
 L 23.6281,-56.9601 L 93.8833,-25.6537 L 94.6063,-25.2361 L 95.2278,-24.6765 L 95.7193,-24 L 96.0594,-23.2361
 L 96.2333,-22.4181 L 96.2333,-21.5819 L 96.0594,-20.7639 L 95.7193,-20 L 95.2278,-19.3235 L 94.6063,-18.7639
 L 93.8821,-18.3458 L 93.0868,-18.0874 L 92.2552,-18 z
M 685.745,-18 L 684.913,-18.0874 L 684.118,-18.3458 L 683.394,-18.7639 L 682.772,-19.3235 L 682.281,-20
 L 681.941,-20.7639 L 681.767,-21.5819 L 681.767,-22.4181 L 681.941,-23.2361 L 682.281,-24 L 682.772,-24.6765
 L 683.394,-25.2361 L 684.117,-25.6537 L 754.372,-56.9601 L 755.167,-57.2187 L 755.999,-57.3064 L 756.83,-57.2192
 L 757.626,-56.9611 L 758.35,-56.5432 L 758.972,-55.9838 L 759.463,-55.3075 L 759.804,-54.5437 L 759.978,-53.7258
 L 760,-53.3064 L 760,-22 L 759.913,-21.1684 L 759.654,-20.373 L 759.236,-19.6489 L 758.677,-19.0274
 L 758,-18.5359 L 757.236,-18.1958 L 756,-18 z
M 375.631,-18 L 374.801,-18.0871 L 374.005,-18.3453 L 373.281,-18.7632 L 372.659,-19.3225 L 372.168,-19.9989
 L 371.827,-20.7627 L 371.653,-21.5806 L 371.653,-22.4169 L 371.826,-23.2349 L 372.166,-23.9989 L 372.658,-24.6756
 L 373.279,-25.2353 L 374.003,-25.6537 L 387.372,-31.611 L 388.17,-31.8702 L 389.001,-31.9573 L 389.833,-31.8696
 L 390.628,-31.611 L 403.997,-25.6537 L 404.72,-25.2361 L 405.341,-24.6765 L 405.833,-24 L 406.173,-23.2361
 L 406.347,-22.4181 L 406.347,-21.5819 L 406.173,-20.7639 L 405.833,-20 L 405.341,-19.3235 L 404.72,-18.7639
 L 403.996,-18.3458 L 403.201,-18.0874 L 402.369,-18 z
" stroke="black" fill="lightgray" stroke-width="0.5"/>
</svg>
