<?xml version="1.0" standalone="no"?>
<!DOCTYPE svg PUBLIC "-//W3C//DTD SVG 1.1//EN" "http://www.w3.org/Graphics/SVG/1.1/DTD/svg11.dtd">
<svg width="972mm" height="80mm" viewBox="0 -80 972 80" xmlns="http://www.w3.org/2000/svg" version="1.1">
<title>OpenSCAD Model</title>
<path d="
M 972,-80 L 0,-80 L 0,-0 L 4.95,-0 L 4.95,-6 L 5.00572,-6.53017
 L 5.17046,-7.03717 L 5.437,-7.49884 L 5.79372,-7.895 L 6.22499,-8.20836 L 6.71201,-8.42519 L 7.23344,-8.53603
 L 7.76654,-8.53603 L 8.28798,-8.42519 L 8.77499,-8.20836 L 9.20627,-7.895 L 9.56299,-7.49884 L 9.82953,-7.03717
 L 9.99426,-6.53017 L 10.05,-6 L 10.05,-0 L 196.35,-0 L 196.35,-6 L 196.406,-6.53017
 L 196.57,-7.03717 L 196.837,-7.49884 L 197.194,-7.895 L 197.625,-8.20836 L 198.112,-8.42519 L 198.633,-8.53603
 L 199.167,-8.53603 L 199.688,-8.42519 L 200.175,-8.20836 L 200.606,-7.895 L 200.963,-7.49884 L 201.23,-7.03717
 L 201.394,-6.53017 L 201.45,-6 L 201.45,-0 L 387.75,-0 L 387.75,-6 L 387.806,-6.53017
 L 387.97,-7.03717 L 388.237,-7.49884 L 388.594,-7.895 L 389.025,-8.20836 L 389.512,-8.42519 L 390.033,-8.53603
 L 390.567,-8.53603 L 391.088,-8.42519 L 391.575,-8.20836 L 392.006,-7.895 L 392.363,-7.49884 L 392.63,-7.03717
 L 392.794,-6.53017 L 392.85,-6 L 392.85,-0 L 579.15,-0 L 579.15,-6 L 579.206,-6.53017
 L 579.37,-7.03717 L 579.637,-7.49884 L 579.994,-7.895 L 580.425,-8.20836 L 580.912,-8.42519 L 581.433,-8.53603
 L 581.967,-8.53603 L 582.488,-8.42519 L 582.975,-8.20836 L 583.406,-7.895 L 583.763,-7.49884 L 584.03,-7.03717
 L 584.194,-6.53017 L 584.25,-6 L 584.25,-0 L 770.55,-0 L 770.55,-6 L 770.606,-6.53017
 L 770.77,-7.03717 L 771.037,-7.49884 L 771.394,-7.895 L 771.825,-8.20836 L 772.312,-8.42519 L 772.833,-8.53603
 L 773.367,-8.53603 L 773.888,-8.42519 L 774.375,-8.20836 L 774.806,-7.895 L 775.163,-7.49884 L 775.43,-7.03717
 L 775.594,-6.53017 L 775.65,-6 L 775.65,-0 L 961.95,-0 L 961.95,-6 L 962.006,-6.53017
 L 962.17,-7.03717 L 962.437,-7.49884 L 962.794,-7.895 L 963.225,-8.20836 L 963.712,-8.42519 L 964.233,-8.53603
 L 964.767,-8.53603 L 965.288,-8.42519 L 965.775,-8.20836 L 966.206,-7.895 L 966.563,-7.49884 L 966.83,-7.03717
 L 966.994,-6.53017 L 967.05,-6 L 967.05,-0 L 972,-0 z
M 6.98573,-55.607 L 6.47708,-55.6875 L 5.97964,-55.8208 L 5.49887,-56.0054 L 5.04001,-56.2392 L 4.60811,-56.5196
 L 4.20789,-56.8437 L 3.84373,-57.2079 L 3.51964,-57.6081 L 3.23917,-58.04 L 3.00537,-58.4989 L 2.82082,-58.9796
 L 2.68752,-59.4771 L 2.60696,-59.9857 L 2.58,-60.5 L 2.60696,-61.0143 L 2.68752,-61.5229 L 2.82082,-62.0204
 L 3.00537,-62.5011 L 3.23917,-62.96 L 3.51964,-63.3919 L 3.84373,-63.7921 L 4.20789,-64.1563 L 4.60811,-64.4804
 L 4.95001,-64.7024 L 4.95001,-74 L 5.00574,-74.5302 L 5.17047,-75.0372 L 5.43701,-75.4988 L 5.79373,-75.895
 L 6.22501,-76.2084 L 6.71202,-76.4252 L 7.23346,-76.536 L 7.76654,-76.536 L 8.28798,-76.4252 L 8.77499,-76.2084
 L 9.20627,-75.895 L 9.56299,-75.4988 L 9.82953,-75.0372 L 9.99426,-74.5302 L 10.05,-74 L 10.05,-64.7024
 L 10.3919,-64.4804 L 10.7921,-64.1563 L 11.1563,-63.7921 L 11.4804,-63.3919 L 11.7608,-62.96 L 11.9946,-62.5011
 L 12.1792,-62.0204 L 12.3125,-61.5229 L 12.393,-61.0143 L 12.42,-60.5 L 12.393,-59.9857 L 12.3125,-59.4771
 L 12.1792,-58.9796 L 11.9946,-58.4989 L 11.7608,-58.04 L 11.4804,-57.6081 L 11.1563,-57.2079 L 10.7921,-56.8437
 L 10.3919,-56.5196 L 9.95999,-56.2392 L 9.50113,-56.0054 L 9.02036,-55.8208 L 8.52292,-55.6875 L 8.01427,-55.607
 L 7.5,-55.58 z
M 198.386,-55.607 L 197.877,-55.6875 L 197.38,-55.8208 L 196.899,-56.0054 L 196.44,-56.2392 L 196.008,-56.5196
 L 195.608,-56.8437 L 195.244,-57.2079 L 194.92,-57.6081 L 194.639,-58.04 L 194.405,-58.4989 L 194.221,-58.9796
 L 194.088,-59.4771 L 194.007,-59.9857 L 193.98,-60.5 L 194.007,-61.0143 L 194.088,-61.5229 L 194.221,-62.0204
 L 194.405,-62.5011 L 194.639,-62.96 L 194.92,-63.3919 L 195.244,-63.7921 L 195.608,-64.1563 L 196.008,-64.4804
 L 196.35,-64.7024 L 196.35,-74 L 196.406,-74.5302 L 196.57,-75.0372 L 196.837,-75.4988 L 197.194,-75.895
 L 197.625,-76.2084 L 198.112,-76.4252 L 198.633,-76.536 L 199.167,-76.536 L 199.688,-76.4252 L 200.175,-76.2084
 L 200.606,-75.895 L 200.963,-75.4988 L 201.23,-75.0372 L 201.394,-74.5302 L 201.45,-74 L 201.45,-64.7024
 L 201.792,-64.4804 L 202.192,-64.1563 L 202.556,-63.7921 L 202.88,-63.3919 L 203.161,-62.96 L 203.395,-62.5011
 L 203.579,-62.0204 L 203.712,-61.5229 L 203.793,-61.0143 L 203.82,-60.5 L 203.793,-59.9857 L 203.712,-59.4771
 L 203.579,-58.9796 L 203.395,-58.4989 L 203.161,-58.04 L 202.88,-57.6081 L 202.556,-57.2079 L 202.192,-56.8437
 L 201.792,-56.5196 L 201.36,-56.2392 L 200.901,-56.0054 L 200.42,-55.8208 L 199.923,-55.6875 L 199.414,-55.607
 L 198.9,-55.58 z
M 389.786,-55.607 L 389.277,-55.6875 L 388.78,-55.8208 L 388.299,-56.0054 L 387.84,-56.2392 L 387.408,-56.5196
 L 387.008,-56.8437 L 386.644,-57.2079 L 386.32,-57.6081 L 386.039,-58.04 L 385.805,-58.4989 L 385.621,-58.9796
 L 385.488,-59.4771 L 385.407,-59.9857 L 385.38,-60.5 L 385.407,-61.0143 L 385.488,-61.5229 L 385.621,-62.0204
 L 385.805,-62.5011 L 386.039,-62.96 L 386.32,-63.3919 L 386.644,-63.7921 L 387.008,-64.1563 L 387.408,-64.4804
 L 387.75,-64.7024 L 387.75,-74 L 387.806,-74.5302 L 387.97,-75.0372 L 388.237,-75.4988 L 388.594,-75.895
 L 389.025,-76.2084 L 389.512,-76.4252 L 390.033,-76.536 L 390.567,-76.536 L 391.088,-76.4252 L 391.575,-76.2084
 L 392.006,-75.895 L 392.363,-75.4988 L 392.63,-75.0372 L 392.794,-74.5302 L 392.85,-74 L 392.85,-64.7024
 L 393.192,-64.4804 L 393.592,-64.1563 L 393.956,-63.7921 L 394.28,-63.3919 L 394.561,-62.96 L 394.795,-62.5011
 L 394.979,-62.0204 L 395.112,-61.5229 L 395.193,-61.0143 L 395.22,-60.5 L 395.193,-59.9857 L 395.112,-59.4771
 L 394.979,-58.9796 L 394.795,-58.4989 L 394.561,-58.04 L 394.28,-57.6081 L 393.956,-57.2079 L 393.592,-56.8437
 L 393.192,-56.5196 L 392.76,-56.2392 L 392.301,-56.0054 L 391.82,-55.8208 L 391.323,-55.6875 L 390.814,-55.607
 L 390.3,-55.58 z
M 581.186,-55.607 L 580.677,-55.6875 L 580.18,-55.8208 L 579.699,-56.0054 L 579.24,-56.2392 L 578.808,-56.5196
 L 578.408,-56.8437 L 578.044,-57.2079 L 577.72,-57.6081 L 577.439,-58.04 L 577.205,-58.4989 L 577.021,-58.9796
 L 576.888,-59.4771 L 576.807,-59.9857 L 576.78,-60.5 L 576.807,-61.0143 L 576.888,-61.5229 L 577.021,-62.0204
 L 577.205,-62.5011 L 577.439,-62.96 L 577.72,-63.3919 L 578.044,-63.7921 L 578.408,-64.1563 L 578.808,-64.4804
 L 579.15,-64.7024 L 579.15,-74 L 579.206,-74.5302 L 579.37,-75.0372 L 579.637,-75.4988 L 579.994,-75.895
 L 580.425,-76.2084 L 580.912,-76.4252 L 581.433,-76.536 L 581.967,-76.536 L 582.488,-76.4252 L 582.975,-76.2084
 L 583.406,-75.895 L 583.763,-75.4988 L 584.03,-75.0372 L 584.194,-74.5302 L 584.25,-74 L 584.25,-64.7024
 L 584.592,-64.4804 L 584.992,-64.1563 L 585.356,-63.7921 L 585.68,-63.3919 L 585.961,-62.96 L 586.195,-62.5011
 L 586.379,-62.0204 L 586.512,-61.5229 L 586.593,-61.0143 L 586.62,-60.5 L 586.593,-59.9857 L 586.512,-59.4771
 L 586.379,-58.9796 L 586.195,-58.4989 L 585.961,-58.04 L 585.68,-57.6081 L 585.356,-57.2079 L 584.992,-56.8437
 L 584.592,-56.5196 L 584.16,-56.2392 L 583.701,-56.0054 L 583.22,-55.8208 L 582.723,-55.6875 L 582.214,-55.607
 L 581.7,-55.58 z
M 772.586,-55.607 L 772.077,-55.6875 L 771.58,-55.8208 L 771.099,-56.0054 L 770.64,-56.2392 L 770.208,-56.5196
 L 769.808,-56.8437 L 769.444,-57.2079 L 769.12,-57.6081 L 768.839,-58.04 L 768.605,-58.4989 L 768.421,-58.9796
 L 768.288,-59.4771 L 768.207,-59.9857 L 768.18,-60.5 L 768.207,-61.0143 L 768.288,-61.5229 L 768.421,-62.0204
 L 768.605,-62.5011 L 768.839,-62.96 L 769.12,-63.3919 L 769.444,-63.7921 L 769.808,-64.1563 L 770.208,-64.4804
 L 770.55,-64.7024 L 770.55,-74 L 770.606,-74.5302 L 770.77,-75.0372 L 771.037,-75.4988 L 771.394,-75.895
 L 771.825,-76.2084 L 772.312,-76.4252 L 772.833,-76.536 L 773.367,-76.536 L 773.888,-76.4252 L 774.375,-76.2084
 L 774.806,-75.895 L 775.163,-75.4988 L 775.43,-75.0372 L 775.594,-74.5302 L 775.65,-74 L 775.65,-64.7024
 L 775.992,-64.4804 L 776.392,-64.1563 L 776.756,-63.7921 L 777.08,-63.3919 L 777.361,-62.96 L 777.595,-62.5011
 L 777.779,-62.0204 L 777.912,-61.5229 L 777.993,-61.0143 L 778.02,-60.5 L 777.993,-59.9857 L 777.912,-59.4771
 L 777.779,-58.9796 L 777.595,-58.4989 L 777.361,-58.04 L 777.08,-57.6081 L 776.756,-57.2079 L 776.392,-56.8437
 L 775.992,-56.5196 L 775.56,-56.2392 L 775.101,-56.0054 L 774.62,-55.8208 L 774.123,-55.6875 L 773.614,-55.607
 L 773.1,-55.58 z
M 963.986,-55.607 L 963.477,-55.6875 L 962.98,-55.8208 L 962.499,-56.0054 L 962.04,-56.2392 L 961.608,-56.5196
 L 961.208,-56.8437 L 960.844,-57.2079 L 960.52,-57.6081 L 960.239,-58.04 L 960.005,-58.4989 L 959.821,-58.9796
 L 959.688,-59.4771 L 959.607,-59.9857 L 959.58,-60.5 L 959.607,-61.0143 L 959.688,-61.5229 L 959.821,-62.0204
 L 960.005,-62.5011 L 960.239,-62.96 L 960.52,-63.3919 L 960.844,-63.7921 L 961.208,-64.1563 L 961.608,-64.4804
 L 961.95,-64.7024 L 961.95,-74 L 962.006,-74.5302 L 962.17,-75.0372 L 962.437,-75.4988 L 962.794,-75.895
 L 963.225,-76.2084 L 963.712,-76.4252 L 964.233,-76.536 L 964.767,-76.536 L 965.288,-76.4252 L 965.775,-76.2084
 L 966.206,-75.895 L 966.563,-75.4988 L 966.83,-75.0372 L 966.994,-74.5302 L 967.05,-74 L 967.05,-64.7024
 L 967.392,-64.4804 L 967.792,-64.1563 L 968.156,-63.7921 L 968.48,-63.3919 L 968.761,-62.96 L 968.995,-62.5011
 L 969.179,-62.0204 L 969.312,-61.5229 L 969.393,-61.0143 L 969.42,-60.5 L 969.393,-59.9857 L 969.312,-59.4771
 L 969.179,-58.9796 L 968.995,-58.4989 L 968.761,-58.04 L 968.48,-57.6081 L 968.156,-57.2079 L 967.792,-56.8437
 L 967.392,-56.5196 L 966.96,-56.2392 L 966.501,-56.0054 L 966.02,-55.8208 L 965.523,-55.6875 L 965.014,-55.607
 L 964.5,-55.58 z
M 485.474,-47.704 L 484.661,-47.9001 L 466.842,-54.2308 L 465.83,-54.7639 L 465.208,-55.3235 L 464.717,-56
 L 464.377,-56.7639 L 464.203,-57.5819 L 464.203,-58.4181 L 464.377,-59.2361 L 464.717,-60 L 465.208,-60.6765
 L 465.83,-61.2361 L 466.554,-61.6542 L 467.349,-61.9126 L 468.181,-62 L 503.819,-62 L 504.951,-61.8364
 L 505.724,-61.5172 L 506.414,-61.0443 L 506.99,-60.4383 L 507.428,-59.7258 L 507.708,-58.9378 L 507.818,-58.1088
 L 507.753,-57.2751 L 507.516,-56.4731 L 507.118,-55.7378 L 506.576,-55.1013 L 505.913,-54.5916 L 505.158,-54.2308
 L 487.339,-47.9001 L 486.31,-47.6813 z
M 376.774,-20.4443 L 375.961,-20.6404 L 281.414,-54.2308 L 280.402,-54.7639 L 279.78,-55.3235 L 279.289,-56
 L 278.949,-56.7639 L 278.775,-57.5819 L 278.775,-58.4181 L 278.949,-59.2361 L 279.289,-60 L 279.78,-60.6765
 L 280.402,-61.2361 L 281.126,-61.6542 L 281.921,-61.9126 L 282.753,-62 L 377.3,-62 L 378.536,-61.8042
 L 379.3,-61.4641 L 379.977,-60.9726 L 380.536,-60.3511 L 380.954,-59.627 L 381.213,-58.8316 L 381.3,-58
 L 381.3,-24.4095 L 381.189,-23.4718 L 380.909,-22.6838 L 380.471,-21.9712 L 379.895,-21.3652 L 379.205,-20.8923
 L 378.432,-20.5731 L 377.61,-20.4216 z
M 784.968,-20.5731 L 784.195,-20.8923 L 783.505,-21.3652 L 782.929,-21.9712 L 782.491,-22.6838 L 782.211,-23.4718
 L 782.1,-24.4095 L 782.1,-58 L 782.187,-58.8316 L 782.446,-59.627 L 782.864,-60.3511 L 783.423,-60.9726
 L 784.1,-61.4641 L 784.864,-61.8042 L 786.1,-62 L 880.647,-62 L 881.479,-61.9126 L 882.274,-61.6542
 L 882.998,-61.2361 L 883.62,-60.6765 L 884.111,-60 L 884.451,-59.2361 L 884.625,-58.4181 L 884.625,-57.5819
 L 884.451,-56.7639 L 884.111,-56 L 883.62,-55.3235 L 882.998,-54.7639 L 881.986,-54.2308 L 787.439,-20.6404
 L 786.626,-20.4443 L 785.79,-20.4216 z
M 185.374,-20.4443 L 184.561,-20.6404 L 90.0136,-54.2308 L 89.0016,-54.7639 L 88.3802,-55.3235 L 87.8887,-56
 L 87.5485,-56.7639 L 87.3747,-57.5819 L 87.3747,-58.4181 L 87.5485,-59.2361 L 87.8887,-60 L 88.3802,-60.6765
 L 89.0016,-61.2361 L 89.7258,-61.6542 L 90.5211,-61.9126 L 91.3528,-62 L 185.9,-62 L 187.136,-61.8042
 L 187.9,-61.4641 L 188.577,-60.9726 L 189.136,-60.3511 L 189.554,-59.627 L 189.813,-58.8316 L 189.9,-58
 L 189.9,-24.4095 L 189.789,-23.4718 L 189.509,-22.6838 L 189.071,-21.9712 L 188.495,-21.3652 L 187.805,-20.8923
 L 187.032,-20.5731 L 186.21,-20.4216 z
M 593.568,-20.5731 L 592.795,-20.8923 L 592.105,-21.3652 L 591.529,-21.9712 L 591.091,-22.6838 L 590.811,-23.4718
 L 590.7,-24.4095 L 590.7,-58 L 590.787,-58.8316 L 591.046,-59.627 L 591.464,-60.3511 L 592.023,-60.9726
 L 592.7,-61.4641 L 593.464,-61.8042 L 594.7,-62 L 689.247,-62 L 690.079,-61.9126 L 690.874,-61.6542
 L 691.598,-61.2361 L 692.22,-60.6765 L 692.711,-60 L 693.051,-59.2361 L 693.225,-58.4181 L 693.225,-57.5819
 L 693.051,-56.7639 L 692.711,-56 L 692.22,-55.3235 L 691.598,-54.7639 L 690.586,-54.2308 L 596.039,-20.6404
 L 595.226,-20.4443 L 594.39,-20.4216 z
M 402.882,-18.3098 L 402.064,-18.4836 L 401.3,-18.8238 L 400.623,-19.3153 L 400.064,-19.9367 L 399.646,-20.6609
 L 399.387,-21.4562 L 399.3,-22.2879 L 399.3,-57.7121 L 399.411,-58.6499 L 399.691,-59.4379 L 400.129,-60.1504
 L 400.705,-60.7564 L 401.395,-61.2294 L 402.168,-61.5486 L 402.99,-61.7001 L 403.826,-61.6774 L 404.639,-61.4813
 L 454.494,-43.7692 L 455.059,-43.5172 L 455.749,-43.0443 L 456.325,-42.4383 L 456.763,-41.7258 L 457.043,-40.9378
 L 457.153,-40.1088 L 457.088,-39.2751 L 456.852,-38.4731 L 456.453,-37.7378 L 455.911,-37.1013 L 455.248,-36.5916
 L 454.494,-36.2308 L 404.639,-18.5187 L 403.718,-18.3098 z
M 568.174,-18.3226 L 567.361,-18.5187 L 517.506,-36.2308 L 516.941,-36.4828 L 516.251,-36.9557 L 515.675,-37.5617
 L 515.237,-38.2742 L 514.957,-39.0622 L 514.847,-39.8912 L 514.912,-40.7249 L 515.148,-41.5269 L 515.547,-42.2622
 L 516.089,-42.8987 L 516.752,-43.4084 L 517.506,-43.7692 L 567.361,-61.4813 L 568.282,-61.6902 L 569.118,-61.6902
 L 569.936,-61.5164 L 570.7,-61.1762 L 571.377,-60.6847 L 571.936,-60.0633 L 572.354,-59.3391 L 572.613,-58.5438
 L 572.7,-57.7121 L 572.7,-22.2879 L 572.589,-21.3501 L 572.309,-20.5621 L 571.871,-19.8495 L 571.295,-19.2436
 L 570.605,-18.7706 L 569.832,-18.4514 L 569.01,-18.2999 z
M 211.9,-18 L 210.664,-18.1958 L 209.9,-18.5359 L 209.223,-19.0274 L 208.664,-19.6489 L 208.246,-20.373
 L 207.987,-21.1684 L 207.9,-22 L 207.9,-55.5904 L 208.011,-56.5282 L 208.291,-57.3162 L 208.729,-58.0287
 L 209.305,-58.6347 L 209.995,-59.1077 L 210.768,-59.4269 L 211.59,-59.5784 L 212.426,-59.5557 L 213.239,-59.3596
 L 307.786,-25.7692 L 308.798,-25.2361 L 309.42,-24.6765 L 309.911,-24 L 310.251,-23.2361 L 310.425,-22.4181
 L 310.425,-21.5819 L 310.251,-20.7639 L 309.911,-20 L 309.42,-19.3235 L 308.798,-18.7639 L 308.074,-18.3458
 L 307.279,-18.0874 L 306.447,-18 z
M 665.553,-18 L 664.721,-18.0874 L 663.926,-18.3458 L 663.202,-18.7639 L 662.58,-19.3235 L 662.089,-20
 L 661.749,-20.7639 L 661.575,-21.5819 L 661.575,-22.4181 L 661.749,-23.2361 L 662.089,-24 L 662.58,-24.6765
 L 663.202,-25.2361 L 664.214,-25.7692 L 758.761,-59.3596 L 759.574,-59.5557 L 760.41,-59.5784 L 761.232,-59.4269
 L 762.005,-59.1077 L 762.695,-58.6347 L 763.271,-58.0287 L 763.709,-57.3162 L 763.989,-56.5282 L 764.1,-55.5904
 L 764.1,-22 L 764.013,-21.1684 L 763.754,-20.373 L 763.336,-19.6489 L 762.777,-19.0274 L 762.1,-18.5359
 L 761.336,-18.1958 L 760.1,-18 z
M 22,-18 L 20.7639,-18.1958 L 20,-18.5359 L 19.3235,-19.0274 L 18.7639,-19.6489 L 18.3458,-20.373
 L 18.0874,-21.1684 L 18,-22 L 18,-55.0575 L 18.1115,-55.9953 L 18.3914,-56.7833 L 18.8291,-57.4958
 L 19.4053,-58.1018 L 20.095,-58.5748 L 20.8679,-58.894 L 21.6903,-59.0455 L 22.5262,-59.0228 L 23.3391,-58.8267
 L 116.386,-25.7692 L 117.398,-25.2361 L 118.02,-24.6765 L 118.511,-24 L 118.851,-23.2361 L 119.025,-22.4181
 L 119.025,-21.5819 L 118.851,-20.7639 L 118.511,-20 L 118.02,-19.3235 L 117.398,-18.7639 L 116.674,-18.3458
 L 115.879,-18.0874 L 115.047,-18 z
M 856.953,-18 L 856.121,-18.0874 L 855.326,-18.3458 L 854.602,-18.7639 L 853.98,-19.3235 L 853.489,-20
 L 853.149,-20.7639 L 852.975,-21.5819 L 852.975,-22.4181 L 853.149,-23.2361 L 853.489,-24 L 853.98,-24.6765
 L 854.602,-25.2361 L 855.614,-25.7692 L 948.661,-58.8267 L 949.474,-59.0228 L 950.31,-59.0455 L 951.132,-58.894
 L 951.905,-58.5748 L 952.595,-58.1018 L 953.171,-57.4958 L 953.609,-56.7833 L 953.889,-55.9953 L 954,-55.0575
 L 954,-22 L 953.913,-21.1684 L 953.654,-20.373 L 953.236,-19.6489 L 952.677,-19.0274 L 952,-18.5359
 L 951.236,-18.1958 L 950,-18 z
M 468.181,-18 L 467.049,-18.1636 L 466.276,-18.4828 L 465.586,-18.9557 L 465.01,-19.5617 L 464.572,-20.2742
 L 464.292,-21.0622 L 464.182,-21.8912 L 464.247,-22.7249 L 464.484,-23.5269 L 464.882,-24.2622 L 465.424,-24.8987
 L 466.087,-25.4084 L 466.842,-25.7692 L 484.661,-32.0999 L 485.69,-32.3187 L 486.526,-32.296 L 487.339,-32.0999
 L 505.158,-25.7692 L 506.17,-25.2361 L 506.792,-24.6765 L 507.283,-24 L 507.623,-23.2361 L 507.797,-22.4181
 L 507.797,-21.5819 L 507.623,-20.7639 L 507.283,-20 L 506.792,-19.3235 L 506.17,-18.7639 L 505.446,-18.3458
 L 504.651,-18.0874 L 503.819,-18 z
" stroke="black" fill="lightgray" stroke-width="0.5"/>
</svg>
