<?xml version="1.0" standalone="no"?>
<!DOCTYPE svg PUBLIC "-//W3C//DTD SVG 1.1//EN" "http://www.w3.org/Graphics/SVG/1.1/DTD/svg11.dtd">
<svg width="922mm" height="80mm" viewBox="0 -80 922 80" xmlns="http://www.w3.org/2000/svg" version="1.1">
<title>OpenSCAD Model</title>
<path d="
M 922,-80 L 0,-80 L 0,-0 L 4.95,-0 L 4.95,-6 L 5.00572,-6.53017
 L 5.17046,-7.03717 L 5.437,-7.49884 L 5.79372,-7.895 L 6.22499,-8.20836 L 6.71201,-8.42519 L 7.23344,-8.53603
 L 7.76654,-8.53603 L 8.28798,-8.42519 L 8.77499,-8.20836 L 9.20627,-7.895 L 9.56299,-7.49884 L 9.82953,-7.03717
 L 9.99426,-6.53017 L 10.05,-6 L 10.05,-0 L 186.35,-0 L 186.35,-6 L 186.406,-6.53017
 L 186.57,-7.03717 L 186.837,-7.49884 L 187.194,-7.895 L 187.625,-8.20836 L 188.112,-8.42519 L 188.633,-8.53603
 L 189.167,-8.53603 L 189.688,-8.42519 L 190.175,-8.20836 L 190.606,-7.895 L 190.963,-7.49884 L 191.23,-7.03717
 L 191.394,-6.53017 L 191.45,-6 L 191.45,-0 L 367.75,-0 L 367.75,-6 L 367.806,-6.53017
 L 367.97,-7.03717 L 368.237,-7.49884 L 368.594,-7.895 L 369.025,-8.20836 L 369.512,-8.42519 L 370.033,-8.53603
 L 370.567,-8.53603 L 371.088,-8.42519 L 371.575,-8.20836 L 372.006,-7.895 L 372.363,-7.49884 L 372.63,-7.03717
 L 372.794,-6.53017 L 372.85,-6 L 372.85,-0 L 549.15,-0 L 549.15,-6 L 549.206,-6.53017
 L 549.37,-7.03717 L 549.637,-7.49884 L 549.994,-7.895 L 550.425,-8.20836 L 550.912,-8.42519 L 551.433,-8.53603
 L 551.967,-8.53603 L 552.488,-8.42519 L 552.975,-8.20836 L 553.406,-7.895 L 553.763,-7.49884 L 554.03,-7.03717
 L 554.194,-6.53017 L 554.25,-6 L 554.25,-0 L 730.55,-0 L 730.55,-6 L 730.606,-6.53017
 L 730.77,-7.03717 L 731.037,-7.49884 L 731.394,-7.895 L 731.825,-8.20836 L 732.312,-8.42519 L 732.833,-8.53603
 L 733.367,-8.53603 L 733.888,-8.42519 L 734.375,-8.20836 L 734.806,-7.895 L 735.163,-7.49884 L 735.43,-7.03717
 L 735.594,-6.53017 L 735.65,-6 L 735.65,-0 L 911.95,-0 L 911.95,-6 L 912.006,-6.53017
 L 912.17,-7.03717 L 912.437,-7.49884 L 912.794,-7.895 L 913.225,-8.20836 L 913.712,-8.42519 L 914.233,-8.53603
 L 914.767,-8.53603 L 915.288,-8.42519 L 915.775,-8.20836 L 916.206,-7.895 L 916.563,-7.49884 L 916.83,-7.03717
 L 916.994,-6.53017 L 917.05,-6 L 917.05,-0 L 922,-0 z
M 6.98573,-55.607 L 6.47708,-55.6875 L 5.97964,-55.8208 L 5.49887,-56.0054 L 5.04001,-56.2392 L 4.60811,-56.5196
 L 4.20789,-56.8437 L 3.84373,-57.2079 L 3.51964,-57.6081 L 3.23917,-58.04 L 3.00537,-58.4989 L 2.82082,-58.9796
 L 2.68752,-59.4771 L 2.60696,-59.9857 L 2.58,-60.5 L 2.60696,-61.0143 L 2.68752,-61.5229 L 2.82082,-62.0204
 L 3.00537,-62.5011 L 3.23917,-62.96 L 3.51964,-63.3919 L 3.84373,-63.7921 L 4.20789,-64.1563 L 4.60811,-64.4804
 L 4.95001,-64.7024 L 4.95001,-74 L 5.00574,-74.5302 L 5.17047,-75.0372 L 5.43701,-75.4988 L 5.79373,-75.895
 L 6.22501,-76.2084 L 6.71202,-76.4252 L 7.23346,-76.536 L 7.76654,-76.536 L 8.28798,-76.4252 L 8.77499,-76.2084
 L 9.20627,-75.895 L 9.56299,-75.4988 L 9.82953,-75.0372 L 9.99426,-74.5302 L 10.05,-74 L 10.05,-64.7024
 L 10.3919,-64.4804 L 10.7921,-64.1563 L 11.1563,-63.7921 L 11.4804,-63.3919 L 11.7608,-62.96 L 11.9946,-62.5011
 L 12.1792,-62.0204 L 12.3125,-61.5229 L 12.393,-61.0143 L 12.42,-60.5 L 12.393,-59.9857 L 12.3125,-59.4771
 L 12.1792,-58.9796 L 11.9946,-58.4989 L 11.7608,-58.04 L 11.4804,-57.6081 L 11.1563,-57.2079 L 10.7921,-56.8437
 L 10.3919,-56.5196 L 9.95999,-56.2392 L 9.50113,-56.0054 L 9.02036,-55.8208 L 8.52292,-55.6875 L 8.01427,-55.607
 L 7.5,-55.58 z
M 188.386,-55.607 L 187.877,-55.6875 L 187.38,-55.8208 L 186.899,-56.0054 L 186.44,-56.2392 L 186.008,-56.5196
 L 185.608,-56.8437 L 185.244,-57.2079 L 184.92,-57.6081 L 184.639,-58.04 L 184.405,-58.4989 L 184.221,-58.9796
 L 184.088,-59.4771 L 184.007,-59.9857 L 183.98,-60.5 L 184.007,-61.0143 L 184.088,-61.5229 L 184.221,-62.0204
 L 184.405,-62.5011 L 184.639,-62.96 L 184.92,-63.3919 L 185.244,-63.7921 L 185.608,-64.1563 L 186.008,-64.4804
 L 186.35,-64.7024 L 186.35,-74 L 186.406,-74.5302 L 186.57,-75.0372 L 186.837,-75.4988 L 187.194,-75.895
 L 187.625,-76.2084 L 188.112,-76.4252 L 188.633,-76.536 L 189.167,-76.536 L 189.688,-76.4252 L 190.175,-76.2084
 L 190.606,-75.895 L 190.963,-75.4988 L 191.23,-75.0372 L 191.394,-74.5302 L 191.45,-74 L 191.45,-64.7024
 L 191.792,-64.4804 L 192.192,-64.1563 L 192.556,-63.7921 L 192.88,-63.3919 L 193.161,-62.96 L 193.395,-62.5011
 L 193.579,-62.0204 L 193.712,-61.5229 L 193.793,-61.0143 L 193.82,-60.5 L 193.793,-59.9857 L 193.712,-59.4771
 L 193.579,-58.9796 L 193.395,-58.4989 L 193.161,-58.04 L 192.88,-57.6081 L 192.556,-57.2079 L 192.192,-56.8437
 L 191.792,-56.5196 L 191.36,-56.2392 L 190.901,-56.0054 L 190.42,-55.8208 L 189.923,-55.6875 L 189.414,-55.607
 L 188.9,-55.58 z
M 369.786,-55.607 L 369.277,-55.6875 L 368.78,-55.8208 L 368.299,-56.0054 L 367.84,-56.2392 L 367.408,-56.5196
 L 367.008,-56.8437 L 366.644,-57.2079 L 366.32,-57.6081 L 366.039,-58.04 L 365.805,-58.4989 L 365.621,-58.9796
 L 365.488,-59.4771 L 365.407,-59.9857 L 365.38,-60.5 L 365.407,-61.0143 L 365.488,-61.5229 L 365.621,-62.0204
 L 365.805,-62.5011 L 366.039,-62.96 L 366.32,-63.3919 L 366.644,-63.7921 L 367.008,-64.1563 L 367.408,-64.4804
 L 367.75,-64.7024 L 367.75,-74 L 367.806,-74.5302 L 367.97,-75.0372 L 368.237,-75.4988 L 368.594,-75.895
 L 369.025,-76.2084 L 369.512,-76.4252 L 370.033,-76.536 L 370.567,-76.536 L 371.088,-76.4252 L 371.575,-76.2084
 L 372.006,-75.895 L 372.363,-75.4988 L 372.63,-75.0372 L 372.794,-74.5302 L 372.85,-74 L 372.85,-64.7024
 L 373.192,-64.4804 L 373.592,-64.1563 L 373.956,-63.7921 L 374.28,-63.3919 L 374.561,-62.96 L 374.795,-62.5011
 L 374.979,-62.0204 L 375.112,-61.5229 L 375.193,-61.0143 L 375.22,-60.5 L 375.193,-59.9857 L 375.112,-59.4771
 L 374.979,-58.9796 L 374.795,-58.4989 L 374.561,-58.04 L 374.28,-57.6081 L 373.956,-57.2079 L 373.592,-56.8437
 L 373.192,-56.5196 L 372.76,-56.2392 L 372.301,-56.0054 L 371.82,-55.8208 L 371.323,-55.6875 L 370.814,-55.607
 L 370.3,-55.58 z
M 551.186,-55.607 L 550.677,-55.6875 L 550.18,-55.8208 L 549.699,-56.0054 L 549.24,-56.2392 L 548.808,-56.5196
 L 548.408,-56.8437 L 548.044,-57.2079 L 547.72,-57.6081 L 547.439,-58.04 L 547.205,-58.4989 L 547.021,-58.9796
 L 546.888,-59.4771 L 546.807,-59.9857 L 546.78,-60.5 L 546.807,-61.0143 L 546.888,-61.5229 L 547.021,-62.0204
 L 547.205,-62.5011 L 547.439,-62.96 L 547.72,-63.3919 L 548.044,-63.7921 L 548.408,-64.1563 L 548.808,-64.4804
 L 549.15,-64.7024 L 549.15,-74 L 549.206,-74.5302 L 549.37,-75.0372 L 549.637,-75.4988 L 549.994,-75.895
 L 550.425,-76.2084 L 550.912,-76.4252 L 551.433,-76.536 L 551.967,-76.536 L 552.488,-76.4252 L 552.975,-76.2084
 L 553.406,-75.895 L 553.763,-75.4988 L 554.03,-75.0372 L 554.194,-74.5302 L 554.25,-74 L 554.25,-64.7024
 L 554.592,-64.4804 L 554.992,-64.1563 L 555.356,-63.7921 L 555.68,-63.3919 L 555.961,-62.96 L 556.195,-62.5011
 L 556.379,-62.0204 L 556.512,-61.5229 L 556.593,-61.0143 L 556.62,-60.5 L 556.593,-59.9857 L 556.512,-59.4771
 L 556.379,-58.9796 L 556.195,-58.4989 L 555.961,-58.04 L 555.68,-57.6081 L 555.356,-57.2079 L 554.992,-56.8437
 L 554.592,-56.5196 L 554.16,-56.2392 L 553.701,-56.0054 L 553.22,-55.8208 L 552.723,-55.6875 L 552.214,-55.607
 L 551.7,-55.58 z
M 732.586,-55.607 L 732.077,-55.6875 L 731.58,-55.8208 L 731.099,-56.0054 L 730.64,-56.2392 L 730.208,-56.5196
 L 729.808,-56.8437 L 729.444,-57.2079 L 729.12,-57.6081 L 728.839,-58.04 L 728.605,-58.4989 L 728.421,-58.9796
 L 728.288,-59.4771 L 728.207,-59.9857 L 728.18,-60.5 L 728.207,-61.0143 L 728.288,-61.5229 L 728.421,-62.0204
 L 728.605,-62.5011 L 728.839,-62.96 L 729.12,-63.3919 L 729.444,-63.7921 L 729.808,-64.1563 L 730.208,-64.4804
 L 730.55,-64.7024 L 730.55,-74 L 730.606,-74.5302 L 730.77,-75.0372 L 731.037,-75.4988 L 731.394,-75.895
 L 731.825,-76.2084 L 732.312,-76.4252 L 732.833,-76.536 L 733.367,-76.536 L 733.888,-76.4252 L 734.375,-76.2084
 L 734.806,-75.895 L 735.163,-75.4988 L 735.43,-75.0372 L 735.594,-74.5302 L 735.65,-74 L 735.65,-64.7024
 L 735.992,-64.4804 L 736.392,-64.1563 L 736.756,-63.7921 L 737.08,-63.3919 L 737.361,-62.96 L 737.595,-62.5011
 L 737.779,-62.0204 L 737.912,-61.5229 L 737.993,-61.0143 L 738.02,-60.5 L 737.993,-59.9857 L 737.912,-59.4771
 L 737.779,-58.9796 L 737.595,-58.4989 L 737.361,-58.04 L 737.08,-57.6081 L 736.756,-57.2079 L 736.392,-56.8437
 L 735.992,-56.5196 L 735.56,-56.2392 L 735.101,-56.0054 L 734.62,-55.8208 L 734.123,-55.6875 L 733.614,-55.607
 L 733.1,-55.58 z
M 913.986,-55.607 L 913.477,-55.6875 L 912.98,-55.8208 L 912.499,-56.0054 L 912.04,-56.2392 L 911.608,-56.5196
 L 911.208,-56.8437 L 910.844,-57.2079 L 910.52,-57.6081 L 910.239,-58.04 L 910.005,-58.4989 L 909.821,-58.9796
 L 909.688,-59.4771 L 909.607,-59.9857 L 909.58,-60.5 L 909.607,-61.0143 L 909.688,-61.5229 L 909.821,-62.0204
 L 910.005,-62.5011 L 910.239,-62.96 L 910.52,-63.3919 L 910.844,-63.7921 L 911.208,-64.1563 L 911.608,-64.4804
 L 911.95,-64.7024 L 911.95,-74 L 912.006,-74.5302 L 912.17,-75.0372 L 912.437,-75.4988 L 912.794,-75.895
 L 913.225,-76.2084 L 913.712,-76.4252 L 914.233,-76.536 L 914.767,-76.536 L 915.288,-76.4252 L 915.775,-76.2084
 L 916.206,-75.895 L 916.563,-75.4988 L 916.83,-75.0372 L 916.994,-74.5302 L 917.05,-74 L 917.05,-64.7024
 L 917.392,-64.4804 L 917.792,-64.1563 L 918.156,-63.7921 L 918.48,-63.3919 L 918.761,-62.96 L 918.995,-62.5011
 L 919.179,-62.0204 L 919.312,-61.5229 L 919.393,-61.0143 L 919.42,-60.5 L 919.393,-59.9857 L 919.312,-59.4771
 L 919.179,-58.9796 L 918.995,-58.4989 L 918.761,-58.04 L 918.48,-57.6081 L 918.156,-57.2079 L 917.792,-56.8437
 L 917.392,-56.5196 L 916.96,-56.2392 L 916.501,-56.0054 L 916.02,-55.8208 L 915.523,-55.6875 L 915.014,-55.607
 L 914.5,-55.58 z
M 460.405,-47.7803 L 459.596,-47.9904 L 442.885,-54.2545 L 441.938,-54.7639 L 441.317,-55.3235 L 440.825,-56
 L 440.485,-56.7639 L 440.311,-57.5819 L 440.311,-58.4181 L 440.485,-59.2361 L 440.825,-60 L 441.317,-60.6765
 L 441.938,-61.2361 L 442.662,-61.6542 L 443.458,-61.9126 L 444.289,-62 L 477.711,-62 L 478.776,-61.8554
 L 479.555,-61.5496 L 480.252,-61.0887 L 480.839,-60.4927 L 481.289,-59.7879 L 481.582,-59.0048 L 481.707,-58.1779
 L 481.656,-57.3432 L 481.433,-56.5372 L 481.048,-55.7951 L 480.517,-55.1494 L 479.863,-54.6283 L 479.115,-54.2545
 L 462.404,-47.9904 L 461.241,-47.7431 z
M 356.705,-20.7873 L 355.896,-20.9973 L 267.178,-54.2545 L 266.23,-54.7639 L 265.609,-55.3235 L 265.118,-56
 L 264.777,-56.7639 L 264.604,-57.5819 L 264.604,-58.4181 L 264.777,-59.2361 L 265.118,-60 L 265.609,-60.6765
 L 266.23,-61.2361 L 266.955,-61.6542 L 267.75,-61.9126 L 268.582,-62 L 357.3,-62 L 358.536,-61.8042
 L 359.3,-61.4641 L 359.977,-60.9726 L 360.536,-60.3511 L 360.954,-59.627 L 361.213,-58.8316 L 361.3,-58
 L 361.3,-24.7428 L 361.172,-23.738 L 360.878,-22.955 L 360.428,-22.2501 L 359.842,-21.6541 L 359.144,-21.1932
 L 358.366,-20.8874 L 357.541,-20.7501 z
M 745.034,-20.8874 L 744.256,-21.1932 L 743.558,-21.6541 L 742.972,-22.2501 L 742.522,-22.955 L 742.228,-23.738
 L 742.1,-24.7428 L 742.1,-58 L 742.187,-58.8316 L 742.446,-59.627 L 742.864,-60.3511 L 743.423,-60.9726
 L 744.1,-61.4641 L 744.864,-61.8042 L 746.1,-62 L 834.818,-62 L 835.65,-61.9126 L 836.445,-61.6542
 L 837.17,-61.2361 L 837.791,-60.6765 L 838.282,-60 L 838.623,-59.2361 L 838.796,-58.4181 L 838.796,-57.5819
 L 838.623,-56.7639 L 838.282,-56 L 837.791,-55.3235 L 837.17,-54.7639 L 836.222,-54.2545 L 747.504,-20.9973
 L 746.695,-20.7873 L 745.859,-20.7501 z
M 175.305,-20.7873 L 174.496,-20.9973 L 85.7776,-54.2545 L 84.8305,-54.7639 L 84.209,-55.3235 L 83.7175,-56
 L 83.3774,-56.7639 L 83.2035,-57.5819 L 83.2035,-58.4181 L 83.3774,-59.2361 L 83.7175,-60 L 84.209,-60.6765
 L 84.8305,-61.2361 L 85.5547,-61.6542 L 86.35,-61.9126 L 87.1816,-62 L 175.9,-62 L 177.136,-61.8042
 L 177.9,-61.4641 L 178.577,-60.9726 L 179.136,-60.3511 L 179.554,-59.627 L 179.813,-58.8316 L 179.9,-58
 L 179.9,-24.7428 L 179.772,-23.738 L 179.478,-22.955 L 179.028,-22.2501 L 178.442,-21.6541 L 177.744,-21.1932
 L 176.966,-20.8874 L 176.141,-20.7501 z
M 563.634,-20.8874 L 562.856,-21.1932 L 562.158,-21.6541 L 561.572,-22.2501 L 561.122,-22.955 L 560.828,-23.738
 L 560.7,-24.7428 L 560.7,-58 L 560.787,-58.8316 L 561.046,-59.627 L 561.464,-60.3511 L 562.023,-60.9726
 L 562.7,-61.4641 L 563.464,-61.8042 L 564.7,-62 L 653.418,-62 L 654.25,-61.9126 L 655.045,-61.6542
 L 655.77,-61.2361 L 656.391,-60.6765 L 656.882,-60 L 657.223,-59.2361 L 657.396,-58.4181 L 657.396,-57.5819
 L 657.223,-56.7639 L 656.882,-56 L 656.391,-55.3235 L 655.77,-54.7639 L 654.822,-54.2545 L 566.104,-20.9973
 L 565.295,-20.7873 L 564.459,-20.7501 z
M 382.882,-18.631 L 382.064,-18.8048 L 381.3,-19.145 L 380.623,-19.6365 L 380.064,-20.2579 L 379.646,-20.9821
 L 379.387,-21.7774 L 379.3,-22.6091 L 379.3,-57.3909 L 379.428,-58.3958 L 379.722,-59.1788 L 380.172,-59.8837
 L 380.758,-60.4796 L 381.456,-60.9406 L 382.234,-61.2464 L 383.059,-61.3837 L 383.895,-61.3465 L 384.704,-61.1364
 L 431.097,-43.7455 L 431.537,-43.5496 L 432.235,-43.0887 L 432.821,-42.4927 L 433.271,-41.7879 L 433.565,-41.0048
 L 433.689,-40.1779 L 433.639,-39.3432 L 433.416,-38.5372 L 433.03,-37.7951 L 432.499,-37.1494 L 431.845,-36.6283
 L 431.097,-36.2545 L 384.704,-18.8636 L 383.718,-18.631 z
M 538.105,-18.6535 L 537.296,-18.8636 L 490.903,-36.2545 L 490.463,-36.4504 L 489.765,-36.9113 L 489.179,-37.5073
 L 488.729,-38.2121 L 488.435,-38.9952 L 488.311,-39.8221 L 488.361,-40.6568 L 488.584,-41.4628 L 488.97,-42.2049
 L 489.501,-42.8506 L 490.155,-43.3717 L 490.903,-43.7455 L 537.296,-61.1364 L 538.282,-61.369 L 539.118,-61.369
 L 539.936,-61.1952 L 540.7,-60.8551 L 541.377,-60.3635 L 541.936,-59.7421 L 542.354,-59.0179 L 542.613,-58.2226
 L 542.7,-57.391 L 542.7,-22.609 L 542.572,-21.6042 L 542.278,-20.8212 L 541.828,-20.1163 L 541.242,-19.5204
 L 540.544,-19.0594 L 539.766,-18.7536 L 538.941,-18.6163 z
M 201.9,-18 L 200.664,-18.1958 L 199.9,-18.5359 L 199.223,-19.0274 L 198.664,-19.6489 L 198.246,-20.373
 L 197.987,-21.1684 L 197.9,-22 L 197.9,-55.2572 L 198.028,-56.262 L 198.322,-57.045 L 198.772,-57.7499
 L 199.358,-58.3458 L 200.056,-58.8068 L 200.834,-59.1126 L 201.659,-59.2499 L 202.495,-59.2127 L 203.304,-59.0026
 L 292.022,-25.7455 L 292.969,-25.2361 L 293.591,-24.6765 L 294.082,-24 L 294.423,-23.2361 L 294.596,-22.4181
 L 294.596,-21.5819 L 294.423,-20.7639 L 294.082,-20 L 293.591,-19.3235 L 292.969,-18.7639 L 292.245,-18.3458
 L 291.45,-18.0874 L 290.618,-18 z
M 631.382,-18 L 630.55,-18.0874 L 629.755,-18.3458 L 629.031,-18.7639 L 628.409,-19.3235 L 627.918,-20
 L 627.577,-20.7639 L 627.404,-21.5819 L 627.404,-22.4181 L 627.577,-23.2361 L 627.918,-24 L 628.409,-24.6765
 L 629.031,-25.2361 L 629.978,-25.7455 L 718.696,-59.0026 L 719.505,-59.2127 L 720.341,-59.2499 L 721.166,-59.1126
 L 721.944,-58.8068 L 722.642,-58.3458 L 723.228,-57.7499 L 723.678,-57.045 L 723.972,-56.262 L 724.1,-55.2572
 L 724.1,-22 L 724.013,-21.1684 L 723.754,-20.373 L 723.336,-19.6489 L 722.777,-19.0274 L 722.1,-18.5359
 L 721.336,-18.1958 L 720.1,-18 z
M 22,-18 L 20.7639,-18.1958 L 20,-18.5359 L 19.3235,-19.0274 L 18.7639,-19.6489 L 18.3458,-20.373
 L 18.0874,-21.1684 L 18,-22 L 18,-54.6949 L 18.1283,-55.6997 L 18.4218,-56.4827 L 18.8717,-57.1876
 L 19.4583,-57.7835 L 20.1561,-58.2445 L 20.9344,-58.5503 L 21.7592,-58.6876 L 22.5946,-58.6504 L 23.404,-58.4403
 L 110.622,-25.7455 L 111.569,-25.2361 L 112.191,-24.6765 L 112.682,-24 L 113.023,-23.2361 L 113.196,-22.4181
 L 113.196,-21.5819 L 113.023,-20.7639 L 112.682,-20 L 112.191,-19.3235 L 111.569,-18.7639 L 110.845,-18.3458
 L 110.05,-18.0874 L 109.218,-18 z
M 812.782,-18 L 811.95,-18.0874 L 811.155,-18.3458 L 810.431,-18.7639 L 809.809,-19.3235 L 809.318,-20
 L 808.977,-20.7639 L 808.804,-21.5819 L 808.804,-22.4181 L 808.977,-23.2361 L 809.318,-24 L 809.809,-24.6765
 L 810.431,-25.2361 L 811.378,-25.7455 L 898.596,-58.4403 L 899.405,-58.6504 L 900.241,-58.6876 L 901.066,-58.5503
 L 901.844,-58.2445 L 902.542,-57.7835 L 903.128,-57.1876 L 903.578,-56.4827 L 903.872,-55.6997 L 904,-54.6949
 L 904,-22 L 903.913,-21.1684 L 903.654,-20.373 L 903.236,-19.6489 L 902.677,-19.0274 L 902,-18.5359
 L 901.236,-18.1958 L 900,-18 z
M 444.289,-18 L 443.224,-18.1446 L 442.445,-18.4504 L 441.748,-18.9113 L 441.161,-19.5073 L 440.711,-20.2121
 L 440.418,-20.9952 L 440.293,-21.8221 L 440.344,-22.6568 L 440.566,-23.4628 L 440.952,-24.2049 L 441.483,-24.8506
 L 442.137,-25.3717 L 442.885,-25.7455 L 459.596,-32.0096 L 460.759,-32.2569 L 461.595,-32.2197 L 462.404,-32.0096
 L 479.115,-25.7455 L 480.062,-25.2361 L 480.683,-24.6765 L 481.175,-24 L 481.515,-23.2361 L 481.689,-22.4181
 L 481.689,-21.5819 L 481.515,-20.7639 L 481.175,-20 L 480.683,-19.3235 L 480.062,-18.7639 L 479.338,-18.3458
 L 478.542,-18.0874 L 477.711,-18 z
" stroke="black" fill="lightgray" stroke-width="0.5"/>
</svg>
