<?xml version="1.0" standalone="no"?>
<!DOCTYPE svg PUBLIC "-//W3C//DTD SVG 1.1//EN" "http://www.w3.org/Graphics/SVG/1.1/DTD/svg11.dtd">
<svg width="782mm" height="80mm" viewBox="0 -80 782 80" xmlns="http://www.w3.org/2000/svg" version="1.1">
<title>OpenSCAD Model</title>
<path d="
M 782,-80 L 0,-80 L 0,-0 L 4.95,-0 L 4.95,-6 L 5.00572,-6.53017
 L 5.17046,-7.03717 L 5.437,-7.49884 L 5.79372,-7.895 L 6.22499,-8.20836 L 6.71201,-8.42519 L 7.23344,-8.53603
 L 7.76654,-8.53603 L 8.28798,-8.42519 L 8.77499,-8.20836 L 9.20627,-7.895 L 9.56299,-7.49884 L 9.82953,-7.03717
 L 9.99426,-6.53017 L 10.05,-6 L 10.05,-0 L 158.35,-0 L 158.35,-6 L 158.406,-6.53017
 L 158.57,-7.03717 L 158.837,-7.49884 L 159.194,-7.895 L 159.625,-8.20836 L 160.112,-8.42519 L 160.633,-8.53603
 L 161.167,-8.53603 L 161.688,-8.42519 L 162.175,-8.20836 L 162.606,-7.895 L 162.963,-7.49884 L 163.23,-7.03717
 L 163.394,-6.53017 L 163.45,-6 L 163.45,-0 L 311.75,-0 L 311.75,-6 L 311.806,-6.53017
 L 311.97,-7.03717 L 312.237,-7.49884 L 312.594,-7.895 L 313.025,-8.20836 L 313.512,-8.42519 L 314.033,-8.53603
 L 314.567,-8.53603 L 315.088,-8.42519 L 315.575,-8.20836 L 316.006,-7.895 L 316.363,-7.49884 L 316.63,-7.03717
 L 316.794,-6.53017 L 316.85,-6 L 316.85,-0 L 465.15,-0 L 465.15,-6 L 465.206,-6.53017
 L 465.37,-7.03717 L 465.637,-7.49884 L 465.994,-7.895 L 466.425,-8.20836 L 466.912,-8.42519 L 467.433,-8.53603
 L 467.967,-8.53603 L 468.488,-8.42519 L 468.975,-8.20836 L 469.406,-7.895 L 469.763,-7.49884 L 470.03,-7.03717
 L 470.194,-6.53017 L 470.25,-6 L 470.25,-0 L 618.55,-0 L 618.55,-6 L 618.606,-6.53017
 L 618.77,-7.03717 L 619.037,-7.49884 L 619.394,-7.895 L 619.825,-8.20836 L 620.312,-8.42519 L 620.833,-8.53603
 L 621.367,-8.53603 L 621.888,-8.42519 L 622.375,-8.20836 L 622.806,-7.895 L 623.163,-7.49884 L 623.43,-7.03717
 L 623.594,-6.53017 L 623.65,-6 L 623.65,-0 L 771.95,-0 L 771.95,-6 L 772.006,-6.53017
 L 772.17,-7.03717 L 772.437,-7.49884 L 772.794,-7.895 L 773.225,-8.20836 L 773.712,-8.42519 L 774.233,-8.53603
 L 774.767,-8.53603 L 775.288,-8.42519 L 775.775,-8.20836 L 776.206,-7.895 L 776.563,-7.49884 L 776.83,-7.03717
 L 776.994,-6.53017 L 777.05,-6 L 777.05,-0 L 782,-0 z
M 6.98573,-55.607 L 6.47708,-55.6875 L 5.97964,-55.8208 L 5.49887,-56.0054 L 5.04001,-56.2392 L 4.60811,-56.5196
 L 4.20789,-56.8437 L 3.84373,-57.2079 L 3.51964,-57.6081 L 3.23917,-58.04 L 3.00537,-58.4989 L 2.82082,-58.9796
 L 2.68752,-59.4771 L 2.60696,-59.9857 L 2.58,-60.5 L 2.60696,-61.0143 L 2.68752,-61.5229 L 2.82082,-62.0204
 L 3.00537,-62.5011 L 3.23917,-62.96 L 3.51964,-63.3919 L 3.84373,-63.7921 L 4.20789,-64.1563 L 4.60811,-64.4804
 L 4.95001,-64.7024 L 4.95001,-74 L 5.00574,-74.5302 L 5.17047,-75.0372 L 5.43701,-75.4988 L 5.79373,-75.895
 L 6.22501,-76.2084 L 6.71202,-76.4252 L 7.23346,-76.536 L 7.76654,-76.536 L 8.28798,-76.4252 L 8.77499,-76.2084
 L 9.20627,-75.895 L 9.56299,-75.4988 L 9.82953,-75.0372 L 9.99426,-74.5302 L 10.05,-74 L 10.05,-64.7024
 L 10.3919,-64.4804 L 10.7921,-64.1563 L 11.1563,-63.7921 L 11.4804,-63.3919 L 11.7608,-62.96 L 11.9946,-62.5011
 L 12.1792,-62.0204 L 12.3125,-61.5229 L 12.393,-61.0143 L 12.42,-60.5 L 12.393,-59.9857 L 12.3125,-59.4771
 L 12.1792,-58.9796 L 11.9946,-58.4989 L 11.7608,-58.04 L 11.4804,-57.6081 L 11.1563,-57.2079 L 10.7921,-56.8437
 L 10.3919,-56.5196 L 9.95999,-56.2392 L 9.50113,-56.0054 L 9.02036,-55.8208 L 8.52292,-55.6875 L 8.01427,-55.607
 L 7.5,-55.58 z
M 160.386,-55.607 L 159.877,-55.6875 L 159.38,-55.8208 L 158.899,-56.0054 L 158.44,-56.2392 L 158.008,-56.5196
 L 157.608,-56.8437 L 157.244,-57.2079 L 156.92,-57.6081 L 156.639,-58.04 L 156.405,-58.4989 L 156.221,-58.9796
 L 156.088,-59.4771 L 156.007,-59.9857 L 155.98,-60.5 L 156.007,-61.0143 L 156.088,-61.5229 L 156.221,-62.0204
 L 156.405,-62.5011 L 156.639,-62.96 L 156.92,-63.3919 L 157.244,-63.7921 L 157.608,-64.1563 L 158.008,-64.4804
 L 158.35,-64.7024 L 158.35,-74 L 158.406,-74.5302 L 158.57,-75.0372 L 158.837,-75.4988 L 159.194,-75.895
 L 159.625,-76.2084 L 160.112,-76.4252 L 160.633,-76.536 L 161.167,-76.536 L 161.688,-76.4252 L 162.175,-76.2084
 L 162.606,-75.895 L 162.963,-75.4988 L 163.23,-75.0372 L 163.394,-74.5302 L 163.45,-74 L 163.45,-64.7024
 L 163.792,-64.4804 L 164.192,-64.1563 L 164.556,-63.7921 L 164.88,-63.3919 L 165.161,-62.96 L 165.395,-62.5011
 L 165.579,-62.0204 L 165.712,-61.5229 L 165.793,-61.0143 L 165.82,-60.5 L 165.793,-59.9857 L 165.712,-59.4771
 L 165.579,-58.9796 L 165.395,-58.4989 L 165.161,-58.04 L 164.88,-57.6081 L 164.556,-57.2079 L 164.192,-56.8437
 L 163.792,-56.5196 L 163.36,-56.2392 L 162.901,-56.0054 L 162.42,-55.8208 L 161.923,-55.6875 L 161.414,-55.607
 L 160.9,-55.58 z
M 313.786,-55.607 L 313.277,-55.6875 L 312.78,-55.8208 L 312.299,-56.0054 L 311.84,-56.2392 L 311.408,-56.5196
 L 311.008,-56.8437 L 310.644,-57.2079 L 310.32,-57.6081 L 310.039,-58.04 L 309.805,-58.4989 L 309.621,-58.9796
 L 309.488,-59.4771 L 309.407,-59.9857 L 309.38,-60.5 L 309.407,-61.0143 L 309.488,-61.5229 L 309.621,-62.0204
 L 309.805,-62.5011 L 310.039,-62.96 L 310.32,-63.3919 L 310.644,-63.7921 L 311.008,-64.1563 L 311.408,-64.4804
 L 311.75,-64.7024 L 311.75,-74 L 311.806,-74.5302 L 311.97,-75.0372 L 312.237,-75.4988 L 312.594,-75.895
 L 313.025,-76.2084 L 313.512,-76.4252 L 314.033,-76.536 L 314.567,-76.536 L 315.088,-76.4252 L 315.575,-76.2084
 L 316.006,-75.895 L 316.363,-75.4988 L 316.63,-75.0372 L 316.794,-74.5302 L 316.85,-74 L 316.85,-64.7024
 L 317.192,-64.4804 L 317.592,-64.1563 L 317.956,-63.7921 L 318.28,-63.3919 L 318.561,-62.96 L 318.795,-62.5011
 L 318.979,-62.0204 L 319.112,-61.5229 L 319.193,-61.0143 L 319.22,-60.5 L 319.193,-59.9857 L 319.112,-59.4771
 L 318.979,-58.9796 L 318.795,-58.4989 L 318.561,-58.04 L 318.28,-57.6081 L 317.956,-57.2079 L 317.592,-56.8437
 L 317.192,-56.5196 L 316.76,-56.2392 L 316.301,-56.0054 L 315.82,-55.8208 L 315.323,-55.6875 L 314.814,-55.607
 L 314.3,-55.58 z
M 467.186,-55.607 L 466.677,-55.6875 L 466.18,-55.8208 L 465.699,-56.0054 L 465.24,-56.2392 L 464.808,-56.5196
 L 464.408,-56.8437 L 464.044,-57.2079 L 463.72,-57.6081 L 463.439,-58.04 L 463.205,-58.4989 L 463.021,-58.9796
 L 462.888,-59.4771 L 462.807,-59.9857 L 462.78,-60.5 L 462.807,-61.0143 L 462.888,-61.5229 L 463.021,-62.0204
 L 463.205,-62.5011 L 463.439,-62.96 L 463.72,-63.3919 L 464.044,-63.7921 L 464.408,-64.1563 L 464.808,-64.4804
 L 465.15,-64.7024 L 465.15,-74 L 465.206,-74.5302 L 465.37,-75.0372 L 465.637,-75.4988 L 465.994,-75.895
 L 466.425,-76.2084 L 466.912,-76.4252 L 467.433,-76.536 L 467.967,-76.536 L 468.488,-76.4252 L 468.975,-76.2084
 L 469.406,-75.895 L 469.763,-75.4988 L 470.03,-75.0372 L 470.194,-74.5302 L 470.25,-74 L 470.25,-64.7024
 L 470.592,-64.4804 L 470.992,-64.1563 L 471.356,-63.7921 L 471.68,-63.3919 L 471.961,-62.96 L 472.195,-62.5011
 L 472.379,-62.0204 L 472.512,-61.5229 L 472.593,-61.0143 L 472.62,-60.5 L 472.593,-59.9857 L 472.512,-59.4771
 L 472.379,-58.9796 L 472.195,-58.4989 L 471.961,-58.04 L 471.68,-57.6081 L 471.356,-57.2079 L 470.992,-56.8437
 L 470.592,-56.5196 L 470.16,-56.2392 L 469.701,-56.0054 L 469.22,-55.8208 L 468.723,-55.6875 L 468.214,-55.607
 L 467.7,-55.58 z
M 620.586,-55.607 L 620.077,-55.6875 L 619.58,-55.8208 L 619.099,-56.0054 L 618.64,-56.2392 L 618.208,-56.5196
 L 617.808,-56.8437 L 617.444,-57.2079 L 617.12,-57.6081 L 616.839,-58.04 L 616.605,-58.4989 L 616.421,-58.9796
 L 616.288,-59.4771 L 616.207,-59.9857 L 616.18,-60.5 L 616.207,-61.0143 L 616.288,-61.5229 L 616.421,-62.0204
 L 616.605,-62.5011 L 616.839,-62.96 L 617.12,-63.3919 L 617.444,-63.7921 L 617.808,-64.1563 L 618.208,-64.4804
 L 618.55,-64.7024 L 618.55,-74 L 618.606,-74.5302 L 618.77,-75.0372 L 619.037,-75.4988 L 619.394,-75.895
 L 619.825,-76.2084 L 620.312,-76.4252 L 620.833,-76.536 L 621.367,-76.536 L 621.888,-76.4252 L 622.375,-76.2084
 L 622.806,-75.895 L 623.163,-75.4988 L 623.43,-75.0372 L 623.594,-74.5302 L 623.65,-74 L 623.65,-64.7024
 L 623.992,-64.4804 L 624.392,-64.1563 L 624.756,-63.7921 L 625.08,-63.3919 L 625.361,-62.96 L 625.595,-62.5011
 L 625.779,-62.0204 L 625.912,-61.5229 L 625.993,-61.0143 L 626.02,-60.5 L 625.993,-59.9857 L 625.912,-59.4771
 L 625.779,-58.9796 L 625.595,-58.4989 L 625.361,-58.04 L 625.08,-57.6081 L 624.756,-57.2079 L 624.392,-56.8437
 L 623.992,-56.5196 L 623.56,-56.2392 L 623.101,-56.0054 L 622.62,-55.8208 L 622.123,-55.6875 L 621.614,-55.607
 L 621.1,-55.58 z
M 773.986,-55.607 L 773.477,-55.6875 L 772.98,-55.8208 L 772.499,-56.0054 L 772.04,-56.2392 L 771.608,-56.5196
 L 771.208,-56.8437 L 770.844,-57.2079 L 770.52,-57.6081 L 770.239,-58.04 L 770.005,-58.4989 L 769.821,-58.9796
 L 769.688,-59.4771 L 769.607,-59.9857 L 769.58,-60.5 L 769.607,-61.0143 L 769.688,-61.5229 L 769.821,-62.0204
 L 770.005,-62.5011 L 770.239,-62.96 L 770.52,-63.3919 L 770.844,-63.7921 L 771.208,-64.1563 L 771.608,-64.4804
 L 771.95,-64.7024 L 771.95,-74 L 772.006,-74.5302 L 772.17,-75.0372 L 772.437,-75.4988 L 772.794,-75.895
 L 773.225,-76.2084 L 773.712,-76.4252 L 774.233,-76.536 L 774.767,-76.536 L 775.288,-76.4252 L 775.775,-76.2084
 L 776.206,-75.895 L 776.563,-75.4988 L 776.83,-75.0372 L 776.994,-74.5302 L 777.05,-74 L 777.05,-64.7024
 L 777.392,-64.4804 L 777.792,-64.1563 L 778.156,-63.7921 L 778.48,-63.3919 L 778.761,-62.96 L 778.995,-62.5011
 L 779.179,-62.0204 L 779.312,-61.5229 L 779.393,-61.0143 L 779.42,-60.5 L 779.393,-59.9857 L 779.312,-59.4771
 L 779.179,-58.9796 L 778.995,-58.4989 L 778.761,-58.04 L 778.48,-57.6081 L 778.156,-57.2079 L 777.792,-56.8437
 L 777.392,-56.5196 L 776.96,-56.2392 L 776.501,-56.0054 L 776.02,-55.8208 L 775.523,-55.6875 L 775.014,-55.607
 L 774.5,-55.58 z
M 390.175,-48.1184 L 389.379,-48.3755 L 375.917,-54.3432 L 375.186,-54.7639 L 374.565,-55.3235 L 374.073,-56
 L 373.733,-56.7639 L 373.559,-57.5819 L 373.559,-58.4181 L 373.733,-59.2361 L 374.073,-60 L 374.565,-60.6765
 L 375.186,-61.2361 L 375.911,-61.6542 L 376.706,-61.9126 L 377.538,-62 L 404.462,-62 L 405.3,-61.9112
 L 406.095,-61.6515 L 406.819,-61.2323 L 407.439,-60.6717 L 407.93,-59.9944 L 408.269,-59.2299 L 408.441,-58.4117
 L 408.44,-57.5754 L 408.265,-56.7578 L 407.923,-55.9944 L 407.431,-55.3186 L 406.808,-54.7601 L 406.083,-54.3432
 L 392.621,-48.3755 L 391.838,-48.1211 L 391.006,-48.0323 z
M 300.475,-22.0688 L 299.679,-22.3259 L 227.452,-54.3432 L 226.722,-54.7639 L 226.1,-55.3235 L 225.609,-56
 L 225.268,-56.7639 L 225.095,-57.5819 L 225.095,-58.4181 L 225.268,-59.2361 L 225.609,-60 L 226.1,-60.6765
 L 226.722,-61.2361 L 227.446,-61.6542 L 228.241,-61.9126 L 229.073,-62 L 301.3,-62 L 302.536,-61.8042
 L 303.3,-61.4641 L 303.977,-60.9726 L 304.536,-60.3511 L 304.954,-59.627 L 305.213,-58.8316 L 305.3,-58
 L 305.3,-25.9827 L 305.106,-24.7528 L 304.767,-23.9883 L 304.277,-23.311 L 303.656,-22.7504 L 302.933,-22.3312
 L 302.138,-22.0715 L 301.306,-21.9827 z
M 633.262,-22.0715 L 632.467,-22.3312 L 631.744,-22.7504 L 631.123,-23.311 L 630.633,-23.9883 L 630.294,-24.7528
 L 630.1,-25.9827 L 630.1,-58 L 630.187,-58.8316 L 630.446,-59.627 L 630.864,-60.3511 L 631.423,-60.9726
 L 632.1,-61.4641 L 632.864,-61.8042 L 634.1,-62 L 706.327,-62 L 707.159,-61.9126 L 707.954,-61.6542
 L 708.678,-61.2361 L 709.3,-60.6765 L 709.791,-60 L 710.132,-59.2361 L 710.305,-58.4181 L 710.305,-57.5819
 L 710.132,-56.7639 L 709.791,-56 L 709.3,-55.3235 L 708.678,-54.7639 L 707.948,-54.3432 L 635.721,-22.3259
 L 634.925,-22.0688 L 634.094,-21.9827 z
M 147.075,-22.0688 L 146.279,-22.3259 L 74.0517,-54.3432 L 73.3216,-54.7639 L 72.7001,-55.3235 L 72.2086,-56
 L 71.8685,-56.7639 L 71.6946,-57.5819 L 71.6946,-58.4181 L 71.8685,-59.2361 L 72.2086,-60 L 72.7001,-60.6765
 L 73.3216,-61.2361 L 74.0458,-61.6542 L 74.8411,-61.9126 L 75.6727,-62 L 147.9,-62 L 149.136,-61.8042
 L 149.9,-61.4641 L 150.577,-60.9726 L 151.136,-60.3511 L 151.554,-59.627 L 151.813,-58.8316 L 151.9,-58
 L 151.9,-25.9827 L 151.706,-24.7528 L 151.367,-23.9883 L 150.877,-23.311 L 150.256,-22.7504 L 149.533,-22.3312
 L 148.738,-22.0715 L 147.906,-21.9827 z
M 479.862,-22.0715 L 479.067,-22.3312 L 478.344,-22.7504 L 477.723,-23.311 L 477.233,-23.9883 L 476.894,-24.7528
 L 476.7,-25.9827 L 476.7,-58 L 476.787,-58.8316 L 477.046,-59.627 L 477.464,-60.3511 L 478.023,-60.9726
 L 478.7,-61.4641 L 479.464,-61.8042 L 480.7,-62 L 552.927,-62 L 553.759,-61.9126 L 554.554,-61.6542
 L 555.278,-61.2361 L 555.9,-60.6765 L 556.391,-60 L 556.731,-59.2361 L 556.905,-58.4181 L 556.905,-57.5819
 L 556.731,-56.7639 L 556.391,-56 L 555.9,-55.3235 L 555.278,-54.7639 L 554.548,-54.3432 L 482.321,-22.3259
 L 481.525,-22.0688 L 480.694,-21.9827 z
M 326.882,-19.8169 L 326.064,-19.9908 L 325.3,-20.3309 L 324.623,-20.8224 L 324.064,-21.4439 L 323.646,-22.1681
 L 323.387,-22.9634 L 323.3,-23.795 L 323.3,-56.205 L 323.494,-57.4349 L 323.833,-58.1993 L 324.323,-58.8767
 L 324.944,-59.4372 L 325.667,-59.8565 L 326.462,-60.1162 L 327.294,-60.205 L 328.125,-60.1189 L 328.921,-59.8618
 L 365.478,-43.6568 L 366.213,-43.2323 L 366.833,-42.6717 L 367.324,-41.9944 L 367.663,-41.2299 L 367.835,-40.4117
 L 367.834,-39.5754 L 367.659,-38.7578 L 367.317,-37.9944 L 366.825,-37.3186 L 366.202,-36.7601 L 365.478,-36.3432
 L 328.921,-20.1382 L 327.718,-19.8169 z
M 453.875,-19.8811 L 453.079,-20.1382 L 416.522,-36.3432 L 415.787,-36.7677 L 415.167,-37.3283 L 414.676,-38.0056
 L 414.337,-38.7701 L 414.165,-39.5883 L 414.166,-40.4246 L 414.341,-41.2422 L 414.683,-42.0056 L 415.175,-42.6814
 L 415.798,-43.2399 L 416.522,-43.6568 L 453.079,-59.8618 L 454.282,-60.1831 L 455.118,-60.1831 L 455.936,-60.0092
 L 456.7,-59.6691 L 457.377,-59.1776 L 457.936,-58.5561 L 458.354,-57.8319 L 458.613,-57.0366 L 458.7,-56.205
 L 458.7,-23.795 L 458.506,-22.5651 L 458.167,-21.8006 L 457.677,-21.1233 L 457.056,-20.5628 L 456.333,-20.1435
 L 455.538,-19.8838 L 454.706,-19.795 z
M 173.9,-18 L 172.664,-18.1958 L 171.9,-18.5359 L 171.223,-19.0274 L 170.664,-19.6489 L 170.246,-20.373
 L 169.987,-21.1684 L 169.9,-22 L 169.9,-54.0173 L 170.094,-55.2472 L 170.433,-56.0117 L 170.923,-56.689
 L 171.544,-57.2495 L 172.267,-57.6688 L 173.062,-57.9285 L 173.894,-58.0173 L 174.725,-57.9312 L 175.521,-57.6741
 L 247.748,-25.6568 L 248.478,-25.2361 L 249.1,-24.6765 L 249.591,-24 L 249.931,-23.2361 L 250.105,-22.4181
 L 250.105,-21.5819 L 249.931,-20.7639 L 249.591,-20 L 249.1,-19.3235 L 248.478,-18.7639 L 247.754,-18.3458
 L 246.959,-18.0874 L 246.127,-18 z
M 535.873,-18 L 535.041,-18.0874 L 534.246,-18.3458 L 533.522,-18.7639 L 532.9,-19.3235 L 532.409,-20
 L 532.069,-20.7639 L 531.895,-21.5819 L 531.895,-22.4181 L 532.069,-23.2361 L 532.409,-24 L 532.9,-24.6765
 L 533.522,-25.2361 L 534.252,-25.6568 L 606.479,-57.6741 L 607.275,-57.9312 L 608.106,-58.0173 L 608.938,-57.9285
 L 609.733,-57.6688 L 610.456,-57.2495 L 611.077,-56.689 L 611.567,-56.0117 L 611.906,-55.2472 L 612.1,-54.0173
 L 612.1,-22 L 612.013,-21.1684 L 611.754,-20.373 L 611.336,-19.6489 L 610.777,-19.0274 L 610.1,-18.5359
 L 609.336,-18.1958 L 608.1,-18 z
M 22,-18 L 20.7639,-18.1958 L 20,-18.5359 L 19.3235,-19.0274 L 18.7639,-19.6489 L 18.3458,-20.373
 L 18.0874,-21.1684 L 18,-22 L 18,-53.3524 L 18.1938,-54.5822 L 18.5327,-55.3467 L 19.0231,-56.024
 L 19.6436,-56.5846 L 20.3671,-57.0039 L 21.162,-57.2636 L 21.9935,-57.3524 L 22.8253,-57.2663 L 23.621,-57.0092
 L 94.3483,-25.6568 L 95.0784,-25.2361 L 95.6998,-24.6765 L 96.1913,-24 L 96.5315,-23.2361 L 96.7053,-22.4181
 L 96.7053,-21.5819 L 96.5315,-20.7639 L 96.1913,-20 L 95.6998,-19.3235 L 95.0784,-18.7639 L 94.3542,-18.3458
 L 93.5589,-18.0874 L 92.7272,-18 z
M 689.273,-18 L 688.441,-18.0874 L 687.646,-18.3458 L 686.922,-18.7639 L 686.3,-19.3235 L 685.809,-20
 L 685.469,-20.7639 L 685.295,-21.5819 L 685.295,-22.4181 L 685.469,-23.2361 L 685.809,-24 L 686.3,-24.6765
 L 686.922,-25.2361 L 687.652,-25.6568 L 758.379,-57.0092 L 759.175,-57.2663 L 760.006,-57.3524 L 760.838,-57.2636
 L 761.633,-57.0039 L 762.356,-56.5846 L 762.977,-56.024 L 763.467,-55.3467 L 763.806,-54.5822 L 764,-53.3524
 L 764,-22 L 763.913,-21.1684 L 763.654,-20.373 L 763.236,-19.6489 L 762.677,-19.0274 L 762,-18.5359
 L 761.236,-18.1958 L 760,-18 z
M 377.538,-18 L 376.7,-18.0888 L 375.905,-18.3485 L 375.181,-18.7677 L 374.561,-19.3283 L 374.07,-20.0056
 L 373.731,-20.7701 L 373.559,-21.5883 L 373.56,-22.4246 L 373.735,-23.2422 L 374.077,-24.0056 L 374.569,-24.6813
 L 375.192,-25.2399 L 375.917,-25.6568 L 389.379,-31.6245 L 390.162,-31.8789 L 390.993,-31.9677 L 391.825,-31.8816
 L 392.621,-31.6245 L 406.083,-25.6568 L 406.814,-25.2361 L 407.435,-24.6765 L 407.926,-24 L 408.267,-23.2361
 L 408.44,-22.4181 L 408.44,-21.5819 L 408.267,-20.7639 L 407.926,-20 L 407.435,-19.3235 L 406.814,-18.7639
 L 406.089,-18.3458 L 405.294,-18.0874 L 404.462,-18 z
" stroke="black" fill="lightgray" stroke-width="0.5"/>
</svg>
