<?xml version="1.0" standalone="no"?>
<!DOCTYPE svg PUBLIC "-//W3C//DTD SVG 1.1//EN" "http://www.w3.org/Graphics/SVG/1.1/DTD/svg11.dtd">
<svg width="508mm" height="80mm" viewBox="0 -80 508 80" xmlns="http://www.w3.org/2000/svg" version="1.1">
<title>OpenSCAD Model</title>
<path d="
M 508,-80 L 0,-80 L 0,-0 L 4.95,-0 L 4.95,-6 L 5.00572,-6.53017
 L 5.17046,-7.03717 L 5.437,-7.49884 L 5.79372,-7.895 L 6.22499,-8.20836 L 6.71201,-8.42519 L 7.23344,-8.53603
 L 7.76654,-8.53603 L 8.28798,-8.42519 L 8.77499,-8.20836 L 9.20627,-7.895 L 9.56299,-7.49884 L 9.82953,-7.03717
 L 9.99426,-6.53017 L 10.05,-6 L 10.05,-0 L 128.2,-0 L 128.2,-6 L 128.256,-6.53017
 L 128.42,-7.03717 L 128.687,-7.49884 L 129.044,-7.895 L 129.475,-8.20836 L 129.962,-8.42519 L 130.483,-8.53603
 L 131.017,-8.53603 L 131.538,-8.42519 L 132.025,-8.20836 L 132.456,-7.895 L 132.813,-7.49884 L 133.08,-7.03717
 L 133.244,-6.53017 L 133.3,-6 L 133.3,-0 L 251.45,-0 L 251.45,-6 L 251.506,-6.53017
 L 251.67,-7.03717 L 251.937,-7.49884 L 252.294,-7.895 L 252.725,-8.20836 L 253.212,-8.42519 L 253.733,-8.53603
 L 254.267,-8.53603 L 254.788,-8.42519 L 255.275,-8.20836 L 255.706,-7.895 L 256.063,-7.49884 L 256.33,-7.03717
 L 256.494,-6.53017 L 256.55,-6 L 256.55,-0 L 374.7,-0 L 374.7,-6 L 374.756,-6.53017
 L 374.92,-7.03717 L 375.187,-7.49884 L 375.544,-7.895 L 375.975,-8.20836 L 376.462,-8.42519 L 376.983,-8.53603
 L 377.517,-8.53603 L 378.038,-8.42519 L 378.525,-8.20836 L 378.956,-7.895 L 379.313,-7.49884 L 379.58,-7.03717
 L 379.744,-6.53017 L 379.8,-6 L 379.8,-0 L 497.95,-0 L 497.95,-6 L 498.006,-6.53017
 L 498.17,-7.03717 L 498.437,-7.49884 L 498.794,-7.895 L 499.225,-8.20836 L 499.712,-8.42519 L 500.233,-8.53603
 L 500.767,-8.53603 L 501.288,-8.42519 L 501.775,-8.20836 L 502.206,-7.895 L 502.563,-7.49884 L 502.83,-7.03717
 L 502.994,-6.53017 L 503.05,-6 L 503.05,-0 L 508,-0 z
M 6.98573,-55.607 L 6.47708,-55.6875 L 5.97964,-55.8208 L 5.49887,-56.0054 L 5.04001,-56.2392 L 4.60811,-56.5196
 L 4.20789,-56.8437 L 3.84373,-57.2079 L 3.51964,-57.6081 L 3.23917,-58.04 L 3.00537,-58.4989 L 2.82082,-58.9796
 L 2.68752,-59.4771 L 2.60696,-59.9857 L 2.58,-60.5 L 2.60696,-61.0143 L 2.68752,-61.5229 L 2.82082,-62.0204
 L 3.00537,-62.5011 L 3.23917,-62.96 L 3.51964,-63.3919 L 3.84373,-63.7921 L 4.20789,-64.1563 L 4.60811,-64.4804
 L 4.95001,-64.7024 L 4.95001,-74 L 5.00574,-74.5302 L 5.17047,-75.0372 L 5.43701,-75.4988 L 5.79373,-75.895
 L 6.22501,-76.2084 L 6.71202,-76.4252 L 7.23346,-76.536 L 7.76654,-76.536 L 8.28798,-76.4252 L 8.77499,-76.2084
 L 9.20627,-75.895 L 9.56299,-75.4988 L 9.82953,-75.0372 L 9.99426,-74.5302 L 10.05,-74 L 10.05,-64.7024
 L 10.3919,-64.4804 L 10.7921,-64.1563 L 11.1563,-63.7921 L 11.4804,-63.3919 L 11.7608,-62.96 L 11.9946,-62.5011
 L 12.1792,-62.0204 L 12.3125,-61.5229 L 12.393,-61.0143 L 12.42,-60.5 L 12.393,-59.9857 L 12.3125,-59.4771
 L 12.1792,-58.9796 L 11.9946,-58.4989 L 11.7608,-58.04 L 11.4804,-57.6081 L 11.1563,-57.2079 L 10.7921,-56.8437
 L 10.3919,-56.5196 L 9.95999,-56.2392 L 9.50113,-56.0054 L 9.02036,-55.8208 L 8.52292,-55.6875 L 8.01427,-55.607
 L 7.5,-55.58 z
M 130.236,-55.607 L 129.727,-55.6875 L 129.23,-55.8208 L 128.749,-56.0054 L 128.29,-56.2392 L 127.858,-56.5196
 L 127.458,-56.8437 L 127.094,-57.2079 L 126.77,-57.6081 L 126.489,-58.04 L 126.255,-58.4989 L 126.071,-58.9796
 L 125.938,-59.4771 L 125.857,-59.9857 L 125.83,-60.5 L 125.857,-61.0143 L 125.938,-61.5229 L 126.071,-62.0204
 L 126.255,-62.5011 L 126.489,-62.96 L 126.77,-63.3919 L 127.094,-63.7921 L 127.458,-64.1563 L 127.858,-64.4804
 L 128.2,-64.7024 L 128.2,-74 L 128.256,-74.5302 L 128.42,-75.0372 L 128.687,-75.4988 L 129.044,-75.895
 L 129.475,-76.2084 L 129.962,-76.4252 L 130.483,-76.536 L 131.017,-76.536 L 131.538,-76.4252 L 132.025,-76.2084
 L 132.456,-75.895 L 132.813,-75.4988 L 133.08,-75.0372 L 133.244,-74.5302 L 133.3,-74 L 133.3,-64.7024
 L 133.642,-64.4804 L 134.042,-64.1563 L 134.406,-63.7921 L 134.73,-63.3919 L 135.011,-62.96 L 135.245,-62.5011
 L 135.429,-62.0204 L 135.562,-61.5229 L 135.643,-61.0143 L 135.67,-60.5 L 135.643,-59.9857 L 135.562,-59.4771
 L 135.429,-58.9796 L 135.245,-58.4989 L 135.011,-58.04 L 134.73,-57.6081 L 134.406,-57.2079 L 134.042,-56.8437
 L 133.642,-56.5196 L 133.21,-56.2392 L 132.751,-56.0054 L 132.27,-55.8208 L 131.773,-55.6875 L 131.264,-55.607
 L 130.75,-55.58 z
M 253.486,-55.607 L 252.977,-55.6875 L 252.48,-55.8208 L 251.999,-56.0054 L 251.54,-56.2392 L 251.108,-56.5196
 L 250.708,-56.8437 L 250.344,-57.2079 L 250.02,-57.6081 L 249.739,-58.04 L 249.505,-58.4989 L 249.321,-58.9796
 L 249.188,-59.4771 L 249.107,-59.9857 L 249.08,-60.5 L 249.107,-61.0143 L 249.188,-61.5229 L 249.321,-62.0204
 L 249.505,-62.5011 L 249.739,-62.96 L 250.02,-63.3919 L 250.344,-63.7921 L 250.708,-64.1563 L 251.108,-64.4804
 L 251.45,-64.7024 L 251.45,-74 L 251.506,-74.5302 L 251.67,-75.0372 L 251.937,-75.4988 L 252.294,-75.895
 L 252.725,-76.2084 L 253.212,-76.4252 L 253.733,-76.536 L 254.267,-76.536 L 254.788,-76.4252 L 255.275,-76.2084
 L 255.706,-75.895 L 256.063,-75.4988 L 256.33,-75.0372 L 256.494,-74.5302 L 256.55,-74 L 256.55,-64.7024
 L 256.892,-64.4804 L 257.292,-64.1563 L 257.656,-63.7921 L 257.98,-63.3919 L 258.261,-62.96 L 258.495,-62.5011
 L 258.679,-62.0204 L 258.812,-61.5229 L 258.893,-61.0143 L 258.92,-60.5 L 258.893,-59.9857 L 258.812,-59.4771
 L 258.679,-58.9796 L 258.495,-58.4989 L 258.261,-58.04 L 257.98,-57.6081 L 257.656,-57.2079 L 257.292,-56.8437
 L 256.892,-56.5196 L 256.46,-56.2392 L 256.001,-56.0054 L 255.52,-55.8208 L 255.023,-55.6875 L 254.514,-55.607
 L 254,-55.58 z
M 376.736,-55.607 L 376.227,-55.6875 L 375.73,-55.8208 L 375.249,-56.0054 L 374.79,-56.2392 L 374.358,-56.5196
 L 373.958,-56.8437 L 373.594,-57.2079 L 373.27,-57.6081 L 372.989,-58.04 L 372.755,-58.4989 L 372.571,-58.9796
 L 372.438,-59.4771 L 372.357,-59.9857 L 372.33,-60.5 L 372.357,-61.0143 L 372.438,-61.5229 L 372.571,-62.0204
 L 372.755,-62.5011 L 372.989,-62.96 L 373.27,-63.3919 L 373.594,-63.7921 L 373.958,-64.1563 L 374.358,-64.4804
 L 374.7,-64.7024 L 374.7,-74 L 374.756,-74.5302 L 374.92,-75.0372 L 375.187,-75.4988 L 375.544,-75.895
 L 375.975,-76.2084 L 376.462,-76.4252 L 376.983,-76.536 L 377.517,-76.536 L 378.038,-76.4252 L 378.525,-76.2084
 L 378.956,-75.895 L 379.313,-75.4988 L 379.58,-75.0372 L 379.744,-74.5302 L 379.8,-74 L 379.8,-64.7024
 L 380.142,-64.4804 L 380.542,-64.1563 L 380.906,-63.7921 L 381.23,-63.3919 L 381.511,-62.96 L 381.745,-62.5011
 L 381.929,-62.0204 L 382.062,-61.5229 L 382.143,-61.0143 L 382.17,-60.5 L 382.143,-59.9857 L 382.062,-59.4771
 L 381.929,-58.9796 L 381.745,-58.4989 L 381.511,-58.04 L 381.23,-57.6081 L 380.906,-57.2079 L 380.542,-56.8437
 L 380.142,-56.5196 L 379.71,-56.2392 L 379.251,-56.0054 L 378.77,-55.8208 L 378.273,-55.6875 L 377.764,-55.607
 L 377.25,-55.58 z
M 499.986,-55.607 L 499.477,-55.6875 L 498.98,-55.8208 L 498.499,-56.0054 L 498.04,-56.2392 L 497.608,-56.5196
 L 497.208,-56.8437 L 496.844,-57.2079 L 496.52,-57.6081 L 496.239,-58.04 L 496.005,-58.4989 L 495.821,-58.9796
 L 495.688,-59.4771 L 495.607,-59.9857 L 495.58,-60.5 L 495.607,-61.0143 L 495.688,-61.5229 L 495.821,-62.0204
 L 496.005,-62.5011 L 496.239,-62.96 L 496.52,-63.3919 L 496.844,-63.7921 L 497.208,-64.1563 L 497.608,-64.4804
 L 497.95,-64.7024 L 497.95,-74 L 498.006,-74.5302 L 498.17,-75.0372 L 498.437,-75.4988 L 498.794,-75.895
 L 499.225,-76.2084 L 499.712,-76.4252 L 500.233,-76.536 L 500.767,-76.536 L 501.288,-76.4252 L 501.775,-76.2084
 L 502.206,-75.895 L 502.563,-75.4988 L 502.83,-75.0372 L 502.994,-74.5302 L 503.05,-74 L 503.05,-64.7024
 L 503.392,-64.4804 L 503.792,-64.1563 L 504.156,-63.7921 L 504.48,-63.3919 L 504.761,-62.96 L 504.995,-62.5011
 L 505.179,-62.0204 L 505.312,-61.5229 L 505.393,-61.0143 L 505.42,-60.5 L 505.393,-59.9857 L 505.312,-59.4771
 L 505.179,-58.9796 L 504.995,-58.4989 L 504.761,-58.04 L 504.48,-57.6081 L 504.156,-57.2079 L 503.792,-56.8437
 L 503.392,-56.5196 L 502.96,-56.2392 L 502.501,-56.0054 L 502.02,-55.8208 L 501.523,-55.6875 L 501.014,-55.607
 L 500.5,-55.58 z
M 266.505,-24.0477 L 265.69,-24.2374 L 264.933,-24.5923 L 264.266,-25.0969 L 263.719,-25.7291 L 263.315,-26.4613
 L 263.072,-27.2615 L 263,-28.0169 L 263,-58 L 263.087,-58.8316 L 263.346,-59.627 L 263.764,-60.3511
 L 264.323,-60.9726 L 265,-61.4641 L 265.764,-61.8042 L 267,-62 L 321.344,-62 L 322.176,-61.9126
 L 322.971,-61.6542 L 323.695,-61.2361 L 324.317,-60.6765 L 324.808,-60 L 325.149,-59.2361 L 325.322,-58.4181
 L 325.322,-57.5819 L 325.149,-56.7639 L 324.808,-56 L 324.317,-55.3235 L 323.695,-54.7639 L 323.277,-54.4977
 L 268.932,-24.5146 L 268.162,-24.1894 L 267.341,-24.0315 z
M 239.838,-24.1894 L 239.068,-24.5146 L 184.723,-54.4977 L 184.305,-54.7639 L 183.683,-55.3235 L 183.192,-56
 L 182.851,-56.7639 L 182.678,-57.5819 L 182.678,-58.4181 L 182.851,-59.2361 L 183.192,-60 L 183.683,-60.6765
 L 184.305,-61.2361 L 185.029,-61.6542 L 185.824,-61.9126 L 186.656,-62 L 241,-62 L 242.236,-61.8042
 L 243,-61.4641 L 243.677,-60.9726 L 244.236,-60.3511 L 244.654,-59.627 L 244.913,-58.8316 L 245,-58
 L 245,-28.0169 L 244.928,-27.2615 L 244.685,-26.4613 L 244.281,-25.7291 L 243.734,-25.0969 L 243.067,-24.5923
 L 242.31,-24.2374 L 241.495,-24.0477 L 240.659,-24.0315 z
M 389.755,-24.0477 L 388.94,-24.2374 L 388.183,-24.5923 L 387.516,-25.0969 L 386.969,-25.7291 L 386.565,-26.4613
 L 386.322,-27.2615 L 386.25,-28.0169 L 386.25,-58 L 386.337,-58.8316 L 386.596,-59.627 L 387.014,-60.3511
 L 387.573,-60.9726 L 388.25,-61.4641 L 389.014,-61.8042 L 390.25,-62 L 444.594,-62 L 445.426,-61.9126
 L 446.221,-61.6542 L 446.945,-61.2361 L 447.567,-60.6765 L 448.058,-60 L 448.399,-59.2361 L 448.572,-58.4181
 L 448.572,-57.5819 L 448.399,-56.7639 L 448.058,-56 L 447.567,-55.3235 L 446.945,-54.7639 L 446.527,-54.4977
 L 392.182,-24.5146 L 391.412,-24.1894 L 390.591,-24.0315 z
M 116.588,-24.1894 L 115.818,-24.5146 L 61.4734,-54.4977 L 61.0546,-54.7639 L 60.4331,-55.3235 L 59.9416,-56
 L 59.6015,-56.7639 L 59.4276,-57.5819 L 59.4276,-58.4181 L 59.6015,-59.2361 L 59.9416,-60 L 60.4331,-60.6765
 L 61.0546,-61.2361 L 61.7787,-61.6542 L 62.5741,-61.9126 L 63.4057,-62 L 117.75,-62 L 118.986,-61.8042
 L 119.75,-61.4641 L 120.427,-60.9726 L 120.986,-60.3511 L 121.404,-59.627 L 121.663,-58.8316 L 121.75,-58
 L 121.75,-28.0169 L 121.678,-27.2615 L 121.435,-26.4613 L 121.031,-25.7291 L 120.484,-25.0969 L 119.817,-24.5923
 L 119.06,-24.2374 L 118.245,-24.0477 L 117.409,-24.0315 z
M 309.906,-18 L 309.074,-18.0874 L 308.279,-18.3458 L 307.555,-18.7639 L 306.933,-19.3235 L 306.442,-20
 L 306.101,-20.7639 L 305.928,-21.5819 L 305.928,-22.4181 L 306.101,-23.2361 L 306.442,-24 L 306.933,-24.6765
 L 307.555,-25.2361 L 307.973,-25.5023 L 362.318,-55.4854 L 363.088,-55.8106 L 363.909,-55.9685 L 364.745,-55.9523
 L 365.56,-55.7625 L 366.317,-55.4076 L 366.984,-54.9031 L 367.531,-54.2709 L 367.935,-53.5387 L 368.178,-52.7385
 L 368.25,-51.983 L 368.25,-22 L 368.163,-21.1684 L 367.904,-20.373 L 367.486,-19.6489 L 366.927,-19.0274
 L 366.25,-18.5359 L 365.486,-18.1958 L 364.25,-18 z
M 143.75,-18 L 142.514,-18.1958 L 141.75,-18.5359 L 141.073,-19.0274 L 140.514,-19.6489 L 140.096,-20.373
 L 139.837,-21.1684 L 139.75,-22 L 139.75,-51.983 L 139.822,-52.7385 L 140.065,-53.5387 L 140.469,-54.2709
 L 141.016,-54.9031 L 141.683,-55.4076 L 142.44,-55.7625 L 143.255,-55.9523 L 144.091,-55.9685 L 144.912,-55.8106
 L 145.682,-55.4854 L 200.027,-25.5023 L 200.445,-25.2361 L 201.067,-24.6765 L 201.558,-24 L 201.899,-23.2361
 L 202.072,-22.4181 L 202.072,-21.5819 L 201.899,-20.7639 L 201.558,-20 L 201.067,-19.3235 L 200.445,-18.7639
 L 199.721,-18.3458 L 198.926,-18.0874 L 198.094,-18 z
M 22,-18 L 20.7639,-18.1958 L 20,-18.5359 L 19.3235,-19.0274 L 18.7639,-19.6489 L 18.3458,-20.373
 L 18.0874,-21.1684 L 18,-22 L 18,-51.1555 L 18.072,-51.9109 L 18.3149,-52.7111 L 18.7189,-53.4433
 L 19.2662,-54.0755 L 19.9331,-54.5801 L 20.6902,-54.935 L 21.5047,-55.1247 L 22.3407,-55.1409 L 23.1619,-54.983
 L 23.9323,-54.6578 L 76.7766,-25.5023 L 77.1954,-25.2361 L 77.8169,-24.6765 L 78.3084,-24 L 78.6485,-23.2361
 L 78.8224,-22.4181 L 78.8224,-21.5819 L 78.6485,-20.7639 L 78.3084,-20 L 77.8169,-19.3235 L 77.1954,-18.7639
 L 76.4712,-18.3458 L 75.6759,-18.0874 L 74.8443,-18 z
M 433.156,-18 L 432.324,-18.0874 L 431.529,-18.3458 L 430.805,-18.7639 L 430.183,-19.3235 L 429.692,-20
 L 429.351,-20.7639 L 429.178,-21.5819 L 429.178,-22.4181 L 429.351,-23.2361 L 429.692,-24 L 430.183,-24.6765
 L 430.805,-25.2361 L 431.223,-25.5023 L 484.068,-54.6578 L 484.838,-54.983 L 485.659,-55.1409 L 486.495,-55.1247
 L 487.31,-54.935 L 488.067,-54.5801 L 488.734,-54.0755 L 489.281,-53.4433 L 489.685,-52.7111 L 489.928,-51.9109
 L 490,-51.1555 L 490,-22 L 489.913,-21.1684 L 489.654,-20.373 L 489.236,-19.6489 L 488.677,-19.0274
 L 488,-18.5359 L 487.236,-18.1958 L 486,-18 z
" stroke="black" fill="lightgray" stroke-width="0.5"/>
</svg>
