<?xml version="1.0" standalone="no"?>
<!DOCTYPE svg PUBLIC "-//W3C//DTD SVG 1.1//EN" "http://www.w3.org/Graphics/SVG/1.1/DTD/svg11.dtd">
<svg width="823mm" height="80mm" viewBox="0 -80 823 80" xmlns="http://www.w3.org/2000/svg" version="1.1">
<title>OpenSCAD Model</title>
<path d="
M 823,-80 L 0,-80 L 0,-0 L 4.95,-0 L 4.95,-6 L 5.00572,-6.53017
 L 5.17046,-7.03717 L 5.437,-7.49884 L 5.79372,-7.895 L 6.22499,-8.20836 L 6.71201,-8.42519 L 7.23344,-8.53603
 L 7.76654,-8.53603 L 8.28798,-8.42519 L 8.77499,-8.20836 L 9.20627,-7.895 L 9.56299,-7.49884 L 9.82953,-7.03717
 L 9.99426,-6.53017 L 10.05,-6 L 10.05,-0 L 166.55,-0 L 166.55,-6 L 166.606,-6.53017
 L 166.77,-7.03717 L 167.037,-7.49884 L 167.394,-7.895 L 167.825,-8.20836 L 168.312,-8.42519 L 168.833,-8.53603
 L 169.367,-8.53603 L 169.888,-8.42519 L 170.375,-8.20836 L 170.806,-7.895 L 171.163,-7.49884 L 171.43,-7.03717
 L 171.594,-6.53017 L 171.65,-6 L 171.65,-0 L 328.15,-0 L 328.15,-6 L 328.206,-6.53017
 L 328.37,-7.03717 L 328.637,-7.49884 L 328.994,-7.895 L 329.425,-8.20836 L 329.912,-8.42519 L 330.433,-8.53603
 L 330.967,-8.53603 L 331.488,-8.42519 L 331.975,-8.20836 L 332.406,-7.895 L 332.763,-7.49884 L 333.03,-7.03717
 L 333.194,-6.53017 L 333.25,-6 L 333.25,-0 L 489.75,-0 L 489.75,-6 L 489.806,-6.53017
 L 489.97,-7.03717 L 490.237,-7.49884 L 490.594,-7.895 L 491.025,-8.20836 L 491.512,-8.42519 L 492.033,-8.53603
 L 492.567,-8.53603 L 493.088,-8.42519 L 493.575,-8.20836 L 494.006,-7.895 L 494.363,-7.49884 L 494.63,-7.03717
 L 494.794,-6.53017 L 494.85,-6 L 494.85,-0 L 651.35,-0 L 651.35,-6 L 651.406,-6.53017
 L 651.57,-7.03717 L 651.837,-7.49884 L 652.194,-7.895 L 652.625,-8.20836 L 653.112,-8.42519 L 653.633,-8.53603
 L 654.167,-8.53603 L 654.688,-8.42519 L 655.175,-8.20836 L 655.606,-7.895 L 655.963,-7.49884 L 656.23,-7.03717
 L 656.394,-6.53017 L 656.45,-6 L 656.45,-0 L 812.95,-0 L 812.95,-6 L 813.006,-6.53017
 L 813.17,-7.03717 L 813.437,-7.49884 L 813.794,-7.895 L 814.225,-8.20836 L 814.712,-8.42519 L 815.233,-8.53603
 L 815.767,-8.53603 L 816.288,-8.42519 L 816.775,-8.20836 L 817.206,-7.895 L 817.563,-7.49884 L 817.83,-7.03717
 L 817.994,-6.53017 L 818.05,-6 L 818.05,-0 L 823,-0 z
M 6.98573,-55.607 L 6.47708,-55.6875 L 5.97964,-55.8208 L 5.49887,-56.0054 L 5.04001,-56.2392 L 4.60811,-56.5196
 L 4.20789,-56.8437 L 3.84373,-57.2079 L 3.51964,-57.6081 L 3.23917,-58.04 L 3.00537,-58.4989 L 2.82082,-58.9796
 L 2.68752,-59.4771 L 2.60696,-59.9857 L 2.58,-60.5 L 2.60696,-61.0143 L 2.68752,-61.5229 L 2.82082,-62.0204
 L 3.00537,-62.5011 L 3.23917,-62.96 L 3.51964,-63.3919 L 3.84373,-63.7921 L 4.20789,-64.1563 L 4.60811,-64.4804
 L 4.95001,-64.7024 L 4.95001,-74 L 5.00574,-74.5302 L 5.17047,-75.0372 L 5.43701,-75.4988 L 5.79373,-75.895
 L 6.22501,-76.2084 L 6.71202,-76.4252 L 7.23346,-76.536 L 7.76654,-76.536 L 8.28798,-76.4252 L 8.77499,-76.2084
 L 9.20627,-75.895 L 9.56299,-75.4988 L 9.82953,-75.0372 L 9.99426,-74.5302 L 10.05,-74 L 10.05,-64.7024
 L 10.3919,-64.4804 L 10.7921,-64.1563 L 11.1563,-63.7921 L 11.4804,-63.3919 L 11.7608,-62.96 L 11.9946,-62.5011
 L 12.1792,-62.0204 L 12.3125,-61.5229 L 12.393,-61.0143 L 12.42,-60.5 L 12.393,-59.9857 L 12.3125,-59.4771
 L 12.1792,-58.9796 L 11.9946,-58.4989 L 11.7608,-58.04 L 11.4804,-57.6081 L 11.1563,-57.2079 L 10.7921,-56.8437
 L 10.3919,-56.5196 L 9.95999,-56.2392 L 9.50113,-56.0054 L 9.02036,-55.8208 L 8.52292,-55.6875 L 8.01427,-55.607
 L 7.5,-55.58 z
M 168.586,-55.607 L 168.077,-55.6875 L 167.58,-55.8208 L 167.099,-56.0054 L 166.64,-56.2392 L 166.208,-56.5196
 L 165.808,-56.8437 L 165.444,-57.2079 L 165.12,-57.6081 L 164.839,-58.04 L 164.605,-58.4989 L 164.421,-58.9796
 L 164.288,-59.4771 L 164.207,-59.9857 L 164.18,-60.5 L 164.207,-61.0143 L 164.288,-61.5229 L 164.421,-62.0204
 L 164.605,-62.5011 L 164.839,-62.96 L 165.12,-63.3919 L 165.444,-63.7921 L 165.808,-64.1563 L 166.208,-64.4804
 L 166.55,-64.7024 L 166.55,-74 L 166.606,-74.5302 L 166.77,-75.0372 L 167.037,-75.4988 L 167.394,-75.895
 L 167.825,-76.2084 L 168.312,-76.4252 L 168.833,-76.536 L 169.367,-76.536 L 169.888,-76.4252 L 170.375,-76.2084
 L 170.806,-75.895 L 171.163,-75.4988 L 171.43,-75.0372 L 171.594,-74.5302 L 171.65,-74 L 171.65,-64.7024
 L 171.992,-64.4804 L 172.392,-64.1563 L 172.756,-63.7921 L 173.08,-63.3919 L 173.361,-62.96 L 173.595,-62.5011
 L 173.779,-62.0204 L 173.912,-61.5229 L 173.993,-61.0143 L 174.02,-60.5 L 173.993,-59.9857 L 173.912,-59.4771
 L 173.779,-58.9796 L 173.595,-58.4989 L 173.361,-58.04 L 173.08,-57.6081 L 172.756,-57.2079 L 172.392,-56.8437
 L 171.992,-56.5196 L 171.56,-56.2392 L 171.101,-56.0054 L 170.62,-55.8208 L 170.123,-55.6875 L 169.614,-55.607
 L 169.1,-55.58 z
M 330.186,-55.607 L 329.677,-55.6875 L 329.18,-55.8208 L 328.699,-56.0054 L 328.24,-56.2392 L 327.808,-56.5196
 L 327.408,-56.8437 L 327.044,-57.2079 L 326.72,-57.6081 L 326.439,-58.04 L 326.205,-58.4989 L 326.021,-58.9796
 L 325.888,-59.4771 L 325.807,-59.9857 L 325.78,-60.5 L 325.807,-61.0143 L 325.888,-61.5229 L 326.021,-62.0204
 L 326.205,-62.5011 L 326.439,-62.96 L 326.72,-63.3919 L 327.044,-63.7921 L 327.408,-64.1563 L 327.808,-64.4804
 L 328.15,-64.7024 L 328.15,-74 L 328.206,-74.5302 L 328.37,-75.0372 L 328.637,-75.4988 L 328.994,-75.895
 L 329.425,-76.2084 L 329.912,-76.4252 L 330.433,-76.536 L 330.967,-76.536 L 331.488,-76.4252 L 331.975,-76.2084
 L 332.406,-75.895 L 332.763,-75.4988 L 333.03,-75.0372 L 333.194,-74.5302 L 333.25,-74 L 333.25,-64.7024
 L 333.592,-64.4804 L 333.992,-64.1563 L 334.356,-63.7921 L 334.68,-63.3919 L 334.961,-62.96 L 335.195,-62.5011
 L 335.379,-62.0204 L 335.512,-61.5229 L 335.593,-61.0143 L 335.62,-60.5 L 335.593,-59.9857 L 335.512,-59.4771
 L 335.379,-58.9796 L 335.195,-58.4989 L 334.961,-58.04 L 334.68,-57.6081 L 334.356,-57.2079 L 333.992,-56.8437
 L 333.592,-56.5196 L 333.16,-56.2392 L 332.701,-56.0054 L 332.22,-55.8208 L 331.723,-55.6875 L 331.214,-55.607
 L 330.7,-55.58 z
M 491.786,-55.607 L 491.277,-55.6875 L 490.78,-55.8208 L 490.299,-56.0054 L 489.84,-56.2392 L 489.408,-56.5196
 L 489.008,-56.8437 L 488.644,-57.2079 L 488.32,-57.6081 L 488.039,-58.04 L 487.805,-58.4989 L 487.621,-58.9796
 L 487.488,-59.4771 L 487.407,-59.9857 L 487.38,-60.5 L 487.407,-61.0143 L 487.488,-61.5229 L 487.621,-62.0204
 L 487.805,-62.5011 L 488.039,-62.96 L 488.32,-63.3919 L 488.644,-63.7921 L 489.008,-64.1563 L 489.408,-64.4804
 L 489.75,-64.7024 L 489.75,-74 L 489.806,-74.5302 L 489.97,-75.0372 L 490.237,-75.4988 L 490.594,-75.895
 L 491.025,-76.2084 L 491.512,-76.4252 L 492.033,-76.536 L 492.567,-76.536 L 493.088,-76.4252 L 493.575,-76.2084
 L 494.006,-75.895 L 494.363,-75.4988 L 494.63,-75.0372 L 494.794,-74.5302 L 494.85,-74 L 494.85,-64.7024
 L 495.192,-64.4804 L 495.592,-64.1563 L 495.956,-63.7921 L 496.28,-63.3919 L 496.561,-62.96 L 496.795,-62.5011
 L 496.979,-62.0204 L 497.112,-61.5229 L 497.193,-61.0143 L 497.22,-60.5 L 497.193,-59.9857 L 497.112,-59.4771
 L 496.979,-58.9796 L 496.795,-58.4989 L 496.561,-58.04 L 496.28,-57.6081 L 495.956,-57.2079 L 495.592,-56.8437
 L 495.192,-56.5196 L 494.76,-56.2392 L 494.301,-56.0054 L 493.82,-55.8208 L 493.323,-55.6875 L 492.814,-55.607
 L 492.3,-55.58 z
M 653.386,-55.607 L 652.877,-55.6875 L 652.38,-55.8208 L 651.899,-56.0054 L 651.44,-56.2392 L 651.008,-56.5196
 L 650.608,-56.8437 L 650.244,-57.2079 L 649.92,-57.6081 L 649.639,-58.04 L 649.405,-58.4989 L 649.221,-58.9796
 L 649.088,-59.4771 L 649.007,-59.9857 L 648.98,-60.5 L 649.007,-61.0143 L 649.088,-61.5229 L 649.221,-62.0204
 L 649.405,-62.5011 L 649.639,-62.96 L 649.92,-63.3919 L 650.244,-63.7921 L 650.608,-64.1563 L 651.008,-64.4804
 L 651.35,-64.7024 L 651.35,-74 L 651.406,-74.5302 L 651.57,-75.0372 L 651.837,-75.4988 L 652.194,-75.895
 L 652.625,-76.2084 L 653.112,-76.4252 L 653.633,-76.536 L 654.167,-76.536 L 654.688,-76.4252 L 655.175,-76.2084
 L 655.606,-75.895 L 655.963,-75.4988 L 656.23,-75.0372 L 656.394,-74.5302 L 656.45,-74 L 656.45,-64.7024
 L 656.792,-64.4804 L 657.192,-64.1563 L 657.556,-63.7921 L 657.88,-63.3919 L 658.161,-62.96 L 658.395,-62.5011
 L 658.579,-62.0204 L 658.712,-61.5229 L 658.793,-61.0143 L 658.82,-60.5 L 658.793,-59.9857 L 658.712,-59.4771
 L 658.579,-58.9796 L 658.395,-58.4989 L 658.161,-58.04 L 657.88,-57.6081 L 657.556,-57.2079 L 657.192,-56.8437
 L 656.792,-56.5196 L 656.36,-56.2392 L 655.901,-56.0054 L 655.42,-55.8208 L 654.923,-55.6875 L 654.414,-55.607
 L 653.9,-55.58 z
M 814.986,-55.607 L 814.477,-55.6875 L 813.98,-55.8208 L 813.499,-56.0054 L 813.04,-56.2392 L 812.608,-56.5196
 L 812.208,-56.8437 L 811.844,-57.2079 L 811.52,-57.6081 L 811.239,-58.04 L 811.005,-58.4989 L 810.821,-58.9796
 L 810.688,-59.4771 L 810.607,-59.9857 L 810.58,-60.5 L 810.607,-61.0143 L 810.688,-61.5229 L 810.821,-62.0204
 L 811.005,-62.5011 L 811.239,-62.96 L 811.52,-63.3919 L 811.844,-63.7921 L 812.208,-64.1563 L 812.608,-64.4804
 L 812.95,-64.7024 L 812.95,-74 L 813.006,-74.5302 L 813.17,-75.0372 L 813.437,-75.4988 L 813.794,-75.895
 L 814.225,-76.2084 L 814.712,-76.4252 L 815.233,-76.536 L 815.767,-76.536 L 816.288,-76.4252 L 816.775,-76.2084
 L 817.206,-75.895 L 817.563,-75.4988 L 817.83,-75.0372 L 817.994,-74.5302 L 818.05,-74 L 818.05,-64.7024
 L 818.392,-64.4804 L 818.792,-64.1563 L 819.156,-63.7921 L 819.48,-63.3919 L 819.761,-62.96 L 819.995,-62.5011
 L 820.179,-62.0204 L 820.312,-61.5229 L 820.393,-61.0143 L 820.42,-60.5 L 820.393,-59.9857 L 820.312,-59.4771
 L 820.179,-58.9796 L 819.995,-58.4989 L 819.761,-58.04 L 819.48,-57.6081 L 819.156,-57.2079 L 818.792,-56.8437
 L 818.392,-56.5196 L 817.96,-56.2392 L 817.501,-56.0054 L 817.02,-55.8208 L 816.523,-55.6875 L 816.014,-55.607
 L 815.5,-55.58 z
M 410.749,-48.0028 L 409.949,-48.2448 L 395.527,-54.3131 L 394.728,-54.7639 L 394.106,-55.3235 L 393.615,-56
 L 393.275,-56.7639 L 393.101,-57.5819 L 393.101,-58.4181 L 393.275,-59.2361 L 393.615,-60 L 394.106,-60.6765
 L 394.728,-61.2361 L 395.452,-61.6542 L 396.247,-61.9126 L 397.079,-62 L 425.921,-62 L 426.833,-61.8947
 L 427.623,-61.6199 L 428.338,-61.187 L 428.948,-60.6148 L 429.426,-59.9283 L 429.75,-59.1575 L 429.907,-58.3362
 L 429.89,-57.5001 L 429.699,-56.6859 L 429.343,-55.9291 L 428.838,-55.2629 L 428.205,-54.7162 L 427.473,-54.3131
 L 413.051,-48.2448 L 412.412,-48.037 L 411.582,-47.9325 z
M 316.949,-21.6425 L 316.149,-21.8845 L 239.083,-54.3131 L 238.283,-54.7639 L 237.662,-55.3235 L 237.17,-56
 L 236.83,-56.7639 L 236.656,-57.5819 L 236.656,-58.4181 L 236.83,-59.2361 L 237.17,-60 L 237.662,-60.6765
 L 238.283,-61.2361 L 239.007,-61.6542 L 239.803,-61.9126 L 240.634,-62 L 317.7,-62 L 318.936,-61.8042
 L 319.7,-61.4641 L 320.377,-60.9726 L 320.936,-60.3511 L 321.354,-59.627 L 321.613,-58.8316 L 321.7,-58
 L 321.7,-25.5714 L 321.529,-24.4138 L 321.204,-23.6431 L 320.727,-22.9566 L 320.117,-22.3843 L 319.402,-21.9514
 L 318.612,-21.6767 L 317.782,-21.5722 z
M 665.988,-21.6767 L 665.198,-21.9514 L 664.483,-22.3843 L 663.873,-22.9566 L 663.395,-23.6431 L 663.071,-24.4138
 L 662.9,-25.5714 L 662.9,-58 L 662.987,-58.8316 L 663.246,-59.627 L 663.664,-60.3511 L 664.223,-60.9726
 L 664.9,-61.4641 L 665.664,-61.8042 L 666.9,-62 L 743.966,-62 L 744.797,-61.9126 L 745.593,-61.6542
 L 746.317,-61.2361 L 746.938,-60.6765 L 747.43,-60 L 747.77,-59.2361 L 747.944,-58.4181 L 747.944,-57.5819
 L 747.77,-56.7639 L 747.43,-56 L 746.938,-55.3235 L 746.317,-54.7639 L 745.517,-54.3131 L 668.451,-21.8845
 L 667.651,-21.6425 L 666.818,-21.5722 z
M 155.349,-21.6425 L 154.549,-21.8845 L 77.4828,-54.3131 L 76.6831,-54.7639 L 76.0617,-55.3235 L 75.5702,-56
 L 75.23,-56.7639 L 75.0562,-57.5819 L 75.0562,-58.4181 L 75.23,-59.2361 L 75.5702,-60 L 76.0617,-60.6765
 L 76.6831,-61.2361 L 77.4073,-61.6542 L 78.2026,-61.9126 L 79.0343,-62 L 156.1,-62 L 157.336,-61.8042
 L 158.1,-61.4641 L 158.777,-60.9726 L 159.336,-60.3511 L 159.754,-59.627 L 160.013,-58.8316 L 160.1,-58
 L 160.1,-25.5714 L 159.929,-24.4138 L 159.605,-23.6431 L 159.127,-22.9566 L 158.517,-22.3843 L 157.802,-21.9514
 L 157.012,-21.6767 L 156.182,-21.5722 z
M 504.388,-21.6767 L 503.598,-21.9514 L 502.883,-22.3843 L 502.273,-22.9566 L 501.795,-23.6431 L 501.471,-24.4138
 L 501.3,-25.5714 L 501.3,-58 L 501.387,-58.8316 L 501.646,-59.627 L 502.064,-60.3511 L 502.623,-60.9726
 L 503.3,-61.4641 L 504.064,-61.8042 L 505.3,-62 L 582.366,-62 L 583.197,-61.9126 L 583.993,-61.6542
 L 584.717,-61.2361 L 585.338,-60.6765 L 585.83,-60 L 586.17,-59.2361 L 586.344,-58.4181 L 586.344,-57.5819
 L 586.17,-56.7639 L 585.83,-56 L 585.338,-55.3235 L 584.717,-54.7639 L 583.917,-54.3131 L 506.851,-21.8845
 L 506.051,-21.6425 L 505.218,-21.5722 z
M 343.282,-19.4239 L 342.464,-19.5977 L 341.7,-19.9379 L 341.023,-20.4294 L 340.464,-21.0508 L 340.046,-21.775
 L 339.787,-22.5703 L 339.7,-23.402 L 339.7,-56.598 L 339.871,-57.7556 L 340.195,-58.5263 L 340.673,-59.2128
 L 341.283,-59.785 L 341.998,-60.218 L 342.788,-60.4927 L 343.618,-60.5972 L 344.451,-60.5269 L 345.251,-60.2849
 L 384.696,-43.6869 L 385.562,-43.187 L 386.172,-42.6148 L 386.649,-41.9283 L 386.974,-41.1575 L 387.131,-40.3362
 L 387.113,-39.5001 L 386.923,-38.6859 L 386.567,-37.9291 L 386.062,-37.2629 L 385.429,-36.7162 L 384.696,-36.3131
 L 345.251,-19.7151 L 344.118,-19.4239 z
M 478.549,-19.4731 L 477.749,-19.7151 L 438.304,-36.3131 L 437.438,-36.813 L 436.828,-37.3852 L 436.351,-38.0717
 L 436.026,-38.8425 L 435.869,-39.6638 L 435.887,-40.4999 L 436.077,-41.3141 L 436.433,-42.0709 L 436.938,-42.7371
 L 437.571,-43.2838 L 438.304,-43.6869 L 477.749,-60.2849 L 478.882,-60.5761 L 479.718,-60.5761 L 480.536,-60.4023
 L 481.3,-60.0621 L 481.977,-59.5706 L 482.536,-58.9492 L 482.954,-58.225 L 483.213,-57.4297 L 483.3,-56.598
 L 483.3,-23.402 L 483.129,-22.2444 L 482.805,-21.4737 L 482.327,-20.7872 L 481.717,-20.215 L 481.002,-19.782
 L 480.212,-19.5073 L 479.382,-19.4028 z
M 182.1,-18 L 180.864,-18.1958 L 180.1,-18.5359 L 179.423,-19.0274 L 178.864,-19.6489 L 178.446,-20.373
 L 178.187,-21.1684 L 178.1,-22 L 178.1,-54.4286 L 178.271,-55.5862 L 178.595,-56.3569 L 179.073,-57.0434
 L 179.683,-57.6156 L 180.398,-58.0486 L 181.188,-58.3233 L 182.018,-58.4278 L 182.851,-58.3575 L 183.651,-58.1155
 L 260.717,-25.6869 L 261.517,-25.2361 L 262.138,-24.6765 L 262.63,-24 L 262.97,-23.2361 L 263.144,-22.4181
 L 263.144,-21.5819 L 262.97,-20.7639 L 262.63,-20 L 262.138,-19.3235 L 261.517,-18.7639 L 260.793,-18.3458
 L 259.997,-18.0874 L 259.166,-18 z
M 563.834,-18 L 563.003,-18.0874 L 562.207,-18.3458 L 561.483,-18.7639 L 560.862,-19.3235 L 560.37,-20
 L 560.03,-20.7639 L 559.856,-21.5819 L 559.856,-22.4181 L 560.03,-23.2361 L 560.37,-24 L 560.862,-24.6765
 L 561.483,-25.2361 L 562.283,-25.6869 L 639.349,-58.1155 L 640.149,-58.3575 L 640.982,-58.4278 L 641.812,-58.3233
 L 642.602,-58.0486 L 643.317,-57.6156 L 643.927,-57.0434 L 644.405,-56.3569 L 644.729,-55.5862 L 644.9,-54.4286
 L 644.9,-22 L 644.813,-21.1684 L 644.554,-20.373 L 644.136,-19.6489 L 643.577,-19.0274 L 642.9,-18.5359
 L 642.136,-18.1958 L 640.9,-18 z
M 22,-18 L 20.7639,-18.1958 L 20,-18.5359 L 19.3235,-19.0274 L 18.7639,-19.6489 L 18.3458,-20.373
 L 18.0874,-21.1684 L 18,-22 L 18,-53.7975 L 18.1711,-54.955 L 18.4955,-55.7258 L 18.973,-56.4122
 L 19.5828,-56.9845 L 20.2982,-57.4174 L 21.088,-57.6921 L 21.9177,-57.7966 L 22.751,-57.7263 L 23.5514,-57.4843
 L 99.1171,-25.6869 L 99.9168,-25.2361 L 100.538,-24.6765 L 101.03,-24 L 101.37,-23.2361 L 101.544,-22.4181
 L 101.544,-21.5819 L 101.37,-20.7639 L 101.03,-20 L 100.538,-19.3235 L 99.9168,-18.7639 L 99.1927,-18.3458
 L 98.3974,-18.0874 L 97.5657,-18 z
M 725.434,-18 L 724.603,-18.0874 L 723.807,-18.3458 L 723.083,-18.7639 L 722.462,-19.3235 L 721.97,-20
 L 721.63,-20.7639 L 721.456,-21.5819 L 721.456,-22.4181 L 721.63,-23.2361 L 721.97,-24 L 722.462,-24.6765
 L 723.083,-25.2361 L 723.883,-25.6869 L 799.449,-57.4843 L 800.249,-57.7263 L 801.082,-57.7966 L 801.912,-57.6921
 L 802.702,-57.4174 L 803.417,-56.9845 L 804.027,-56.4122 L 804.505,-55.7258 L 804.829,-54.955 L 805,-53.7975
 L 805,-22 L 804.913,-21.1684 L 804.654,-20.373 L 804.236,-19.6489 L 803.677,-19.0274 L 803,-18.5359
 L 802.236,-18.1958 L 801,-18 z
M 397.079,-18 L 396.167,-18.1053 L 395.377,-18.3801 L 394.662,-18.813 L 394.052,-19.3852 L 393.574,-20.0717
 L 393.25,-20.8425 L 393.093,-21.6638 L 393.11,-22.4999 L 393.301,-23.3141 L 393.657,-24.0709 L 394.162,-24.7371
 L 394.795,-25.2838 L 395.527,-25.6869 L 409.949,-31.7552 L 410.588,-31.963 L 411.418,-32.0675 L 412.251,-31.9972
 L 413.051,-31.7552 L 427.473,-25.6869 L 428.272,-25.2361 L 428.894,-24.6765 L 429.385,-24 L 429.725,-23.2361
 L 429.899,-22.4181 L 429.899,-21.5819 L 429.725,-20.7639 L 429.385,-20 L 428.894,-19.3235 L 428.272,-18.7639
 L 427.548,-18.3458 L 426.753,-18.0874 L 425.921,-18 z
" stroke="black" fill="lightgray" stroke-width="0.5"/>
</svg>
