<?xml version="1.0" standalone="no"?>
<!DOCTYPE svg PUBLIC "-//W3C//DTD SVG 1.1//EN" "http://www.w3.org/Graphics/SVG/1.1/DTD/svg11.dtd">
<svg width="961mm" height="80mm" viewBox="0 -80 961 80" xmlns="http://www.w3.org/2000/svg" version="1.1">
<title>OpenSCAD Model</title>
<path d="
M 961,-80 L 0,-80 L 0,-0 L 4.95,-0 L 4.95,-6 L 5.00572,-6.53017
 L 5.17046,-7.03717 L 5.437,-7.49884 L 5.79372,-7.895 L 6.22499,-8.20836 L 6.71201,-8.42519 L 7.23344,-8.53603
 L 7.76654,-8.53603 L 8.28798,-8.42519 L 8.77499,-8.20836 L 9.20627,-7.895 L 9.56299,-7.49884 L 9.82953,-7.03717
 L 9.99426,-6.53017 L 10.05,-6 L 10.05,-0 L 194.15,-0 L 194.15,-6 L 194.206,-6.53017
 L 194.37,-7.03717 L 194.637,-7.49884 L 194.994,-7.895 L 195.425,-8.20836 L 195.912,-8.42519 L 196.433,-8.53603
 L 196.967,-8.53603 L 197.488,-8.42519 L 197.975,-8.20836 L 198.406,-7.895 L 198.763,-7.49884 L 199.03,-7.03717
 L 199.194,-6.53017 L 199.25,-6 L 199.25,-0 L 383.35,-0 L 383.35,-6 L 383.406,-6.53017
 L 383.57,-7.03717 L 383.837,-7.49884 L 384.194,-7.895 L 384.625,-8.20836 L 385.112,-8.42519 L 385.633,-8.53603
 L 386.167,-8.53603 L 386.688,-8.42519 L 387.175,-8.20836 L 387.606,-7.895 L 387.963,-7.49884 L 388.23,-7.03717
 L 388.394,-6.53017 L 388.45,-6 L 388.45,-0 L 572.55,-0 L 572.55,-6 L 572.606,-6.53017
 L 572.77,-7.03717 L 573.037,-7.49884 L 573.394,-7.895 L 573.825,-8.20836 L 574.312,-8.42519 L 574.833,-8.53603
 L 575.367,-8.53603 L 575.888,-8.42519 L 576.375,-8.20836 L 576.806,-7.895 L 577.163,-7.49884 L 577.43,-7.03717
 L 577.594,-6.53017 L 577.65,-6 L 577.65,-0 L 761.75,-0 L 761.75,-6 L 761.806,-6.53017
 L 761.97,-7.03717 L 762.237,-7.49884 L 762.594,-7.895 L 763.025,-8.20836 L 763.512,-8.42519 L 764.033,-8.53603
 L 764.567,-8.53603 L 765.088,-8.42519 L 765.575,-8.20836 L 766.006,-7.895 L 766.363,-7.49884 L 766.63,-7.03717
 L 766.794,-6.53017 L 766.85,-6 L 766.85,-0 L 950.95,-0 L 950.95,-6 L 951.006,-6.53017
 L 951.17,-7.03717 L 951.437,-7.49884 L 951.794,-7.895 L 952.225,-8.20836 L 952.712,-8.42519 L 953.233,-8.53603
 L 953.767,-8.53603 L 954.288,-8.42519 L 954.775,-8.20836 L 955.206,-7.895 L 955.563,-7.49884 L 955.83,-7.03717
 L 955.994,-6.53017 L 956.05,-6 L 956.05,-0 L 961,-0 z
M 6.98573,-55.607 L 6.47708,-55.6875 L 5.97964,-55.8208 L 5.49887,-56.0054 L 5.04001,-56.2392 L 4.60811,-56.5196
 L 4.20789,-56.8437 L 3.84373,-57.2079 L 3.51964,-57.6081 L 3.23917,-58.04 L 3.00537,-58.4989 L 2.82082,-58.9796
 L 2.68752,-59.4771 L 2.60696,-59.9857 L 2.58,-60.5 L 2.60696,-61.0143 L 2.68752,-61.5229 L 2.82082,-62.0204
 L 3.00537,-62.5011 L 3.23917,-62.96 L 3.51964,-63.3919 L 3.84373,-63.7921 L 4.20789,-64.1563 L 4.60811,-64.4804
 L 4.95001,-64.7024 L 4.95001,-74 L 5.00574,-74.5302 L 5.17047,-75.0372 L 5.43701,-75.4988 L 5.79373,-75.895
 L 6.22501,-76.2084 L 6.71202,-76.4252 L 7.23346,-76.536 L 7.76654,-76.536 L 8.28798,-76.4252 L 8.77499,-76.2084
 L 9.20627,-75.895 L 9.56299,-75.4988 L 9.82953,-75.0372 L 9.99426,-74.5302 L 10.05,-74 L 10.05,-64.7024
 L 10.3919,-64.4804 L 10.7921,-64.1563 L 11.1563,-63.7921 L 11.4804,-63.3919 L 11.7608,-62.96 L 11.9946,-62.5011
 L 12.1792,-62.0204 L 12.3125,-61.5229 L 12.393,-61.0143 L 12.42,-60.5 L 12.393,-59.9857 L 12.3125,-59.4771
 L 12.1792,-58.9796 L 11.9946,-58.4989 L 11.7608,-58.04 L 11.4804,-57.6081 L 11.1563,-57.2079 L 10.7921,-56.8437
 L 10.3919,-56.5196 L 9.95999,-56.2392 L 9.50113,-56.0054 L 9.02036,-55.8208 L 8.52292,-55.6875 L 8.01427,-55.607
 L 7.5,-55.58 z
M 196.186,-55.607 L 195.677,-55.6875 L 195.18,-55.8208 L 194.699,-56.0054 L 194.24,-56.2392 L 193.808,-56.5196
 L 193.408,-56.8437 L 193.044,-57.2079 L 192.72,-57.6081 L 192.439,-58.04 L 192.205,-58.4989 L 192.021,-58.9796
 L 191.888,-59.4771 L 191.807,-59.9857 L 191.78,-60.5 L 191.807,-61.0143 L 191.888,-61.5229 L 192.021,-62.0204
 L 192.205,-62.5011 L 192.439,-62.96 L 192.72,-63.3919 L 193.044,-63.7921 L 193.408,-64.1563 L 193.808,-64.4804
 L 194.15,-64.7024 L 194.15,-74 L 194.206,-74.5302 L 194.37,-75.0372 L 194.637,-75.4988 L 194.994,-75.895
 L 195.425,-76.2084 L 195.912,-76.4252 L 196.433,-76.536 L 196.967,-76.536 L 197.488,-76.4252 L 197.975,-76.2084
 L 198.406,-75.895 L 198.763,-75.4988 L 199.03,-75.0372 L 199.194,-74.5302 L 199.25,-74 L 199.25,-64.7024
 L 199.592,-64.4804 L 199.992,-64.1563 L 200.356,-63.7921 L 200.68,-63.3919 L 200.961,-62.96 L 201.195,-62.5011
 L 201.379,-62.0204 L 201.512,-61.5229 L 201.593,-61.0143 L 201.62,-60.5 L 201.593,-59.9857 L 201.512,-59.4771
 L 201.379,-58.9796 L 201.195,-58.4989 L 200.961,-58.04 L 200.68,-57.6081 L 200.356,-57.2079 L 199.992,-56.8437
 L 199.592,-56.5196 L 199.16,-56.2392 L 198.701,-56.0054 L 198.22,-55.8208 L 197.723,-55.6875 L 197.214,-55.607
 L 196.7,-55.58 z
M 385.386,-55.607 L 384.877,-55.6875 L 384.38,-55.8208 L 383.899,-56.0054 L 383.44,-56.2392 L 383.008,-56.5196
 L 382.608,-56.8437 L 382.244,-57.2079 L 381.92,-57.6081 L 381.639,-58.04 L 381.405,-58.4989 L 381.221,-58.9796
 L 381.088,-59.4771 L 381.007,-59.9857 L 380.98,-60.5 L 381.007,-61.0143 L 381.088,-61.5229 L 381.221,-62.0204
 L 381.405,-62.5011 L 381.639,-62.96 L 381.92,-63.3919 L 382.244,-63.7921 L 382.608,-64.1563 L 383.008,-64.4804
 L 383.35,-64.7024 L 383.35,-74 L 383.406,-74.5302 L 383.57,-75.0372 L 383.837,-75.4988 L 384.194,-75.895
 L 384.625,-76.2084 L 385.112,-76.4252 L 385.633,-76.536 L 386.167,-76.536 L 386.688,-76.4252 L 387.175,-76.2084
 L 387.606,-75.895 L 387.963,-75.4988 L 388.23,-75.0372 L 388.394,-74.5302 L 388.45,-74 L 388.45,-64.7024
 L 388.792,-64.4804 L 389.192,-64.1563 L 389.556,-63.7921 L 389.88,-63.3919 L 390.161,-62.96 L 390.395,-62.5011
 L 390.579,-62.0204 L 390.712,-61.5229 L 390.793,-61.0143 L 390.82,-60.5 L 390.793,-59.9857 L 390.712,-59.4771
 L 390.579,-58.9796 L 390.395,-58.4989 L 390.161,-58.04 L 389.88,-57.6081 L 389.556,-57.2079 L 389.192,-56.8437
 L 388.792,-56.5196 L 388.36,-56.2392 L 387.901,-56.0054 L 387.42,-55.8208 L 386.923,-55.6875 L 386.414,-55.607
 L 385.9,-55.58 z
M 574.586,-55.607 L 574.077,-55.6875 L 573.58,-55.8208 L 573.099,-56.0054 L 572.64,-56.2392 L 572.208,-56.5196
 L 571.808,-56.8437 L 571.444,-57.2079 L 571.12,-57.6081 L 570.839,-58.04 L 570.605,-58.4989 L 570.421,-58.9796
 L 570.288,-59.4771 L 570.207,-59.9857 L 570.18,-60.5 L 570.207,-61.0143 L 570.288,-61.5229 L 570.421,-62.0204
 L 570.605,-62.5011 L 570.839,-62.96 L 571.12,-63.3919 L 571.444,-63.7921 L 571.808,-64.1563 L 572.208,-64.4804
 L 572.55,-64.7024 L 572.55,-74 L 572.606,-74.5302 L 572.77,-75.0372 L 573.037,-75.4988 L 573.394,-75.895
 L 573.825,-76.2084 L 574.312,-76.4252 L 574.833,-76.536 L 575.367,-76.536 L 575.888,-76.4252 L 576.375,-76.2084
 L 576.806,-75.895 L 577.163,-75.4988 L 577.43,-75.0372 L 577.594,-74.5302 L 577.65,-74 L 577.65,-64.7024
 L 577.992,-64.4804 L 578.392,-64.1563 L 578.756,-63.7921 L 579.08,-63.3919 L 579.361,-62.96 L 579.595,-62.5011
 L 579.779,-62.0204 L 579.912,-61.5229 L 579.993,-61.0143 L 580.02,-60.5 L 579.993,-59.9857 L 579.912,-59.4771
 L 579.779,-58.9796 L 579.595,-58.4989 L 579.361,-58.04 L 579.08,-57.6081 L 578.756,-57.2079 L 578.392,-56.8437
 L 577.992,-56.5196 L 577.56,-56.2392 L 577.101,-56.0054 L 576.62,-55.8208 L 576.123,-55.6875 L 575.614,-55.607
 L 575.1,-55.58 z
M 763.786,-55.607 L 763.277,-55.6875 L 762.78,-55.8208 L 762.299,-56.0054 L 761.84,-56.2392 L 761.408,-56.5196
 L 761.008,-56.8437 L 760.644,-57.2079 L 760.32,-57.6081 L 760.039,-58.04 L 759.805,-58.4989 L 759.621,-58.9796
 L 759.488,-59.4771 L 759.407,-59.9857 L 759.38,-60.5 L 759.407,-61.0143 L 759.488,-61.5229 L 759.621,-62.0204
 L 759.805,-62.5011 L 760.039,-62.96 L 760.32,-63.3919 L 760.644,-63.7921 L 761.008,-64.1563 L 761.408,-64.4804
 L 761.75,-64.7024 L 761.75,-74 L 761.806,-74.5302 L 761.97,-75.0372 L 762.237,-75.4988 L 762.594,-75.895
 L 763.025,-76.2084 L 763.512,-76.4252 L 764.033,-76.536 L 764.567,-76.536 L 765.088,-76.4252 L 765.575,-76.2084
 L 766.006,-75.895 L 766.363,-75.4988 L 766.63,-75.0372 L 766.794,-74.5302 L 766.85,-74 L 766.85,-64.7024
 L 767.192,-64.4804 L 767.592,-64.1563 L 767.956,-63.7921 L 768.28,-63.3919 L 768.561,-62.96 L 768.795,-62.5011
 L 768.979,-62.0204 L 769.112,-61.5229 L 769.193,-61.0143 L 769.22,-60.5 L 769.193,-59.9857 L 769.112,-59.4771
 L 768.979,-58.9796 L 768.795,-58.4989 L 768.561,-58.04 L 768.28,-57.6081 L 767.956,-57.2079 L 767.592,-56.8437
 L 767.192,-56.5196 L 766.76,-56.2392 L 766.301,-56.0054 L 765.82,-55.8208 L 765.323,-55.6875 L 764.814,-55.607
 L 764.3,-55.58 z
M 952.986,-55.607 L 952.477,-55.6875 L 951.98,-55.8208 L 951.499,-56.0054 L 951.04,-56.2392 L 950.608,-56.5196
 L 950.208,-56.8437 L 949.844,-57.2079 L 949.52,-57.6081 L 949.239,-58.04 L 949.005,-58.4989 L 948.821,-58.9796
 L 948.688,-59.4771 L 948.607,-59.9857 L 948.58,-60.5 L 948.607,-61.0143 L 948.688,-61.5229 L 948.821,-62.0204
 L 949.005,-62.5011 L 949.239,-62.96 L 949.52,-63.3919 L 949.844,-63.7921 L 950.208,-64.1563 L 950.608,-64.4804
 L 950.95,-64.7024 L 950.95,-74 L 951.006,-74.5302 L 951.17,-75.0372 L 951.437,-75.4988 L 951.794,-75.895
 L 952.225,-76.2084 L 952.712,-76.4252 L 953.233,-76.536 L 953.767,-76.536 L 954.288,-76.4252 L 954.775,-76.2084
 L 955.206,-75.895 L 955.563,-75.4988 L 955.83,-75.0372 L 955.994,-74.5302 L 956.05,-74 L 956.05,-64.7024
 L 956.392,-64.4804 L 956.792,-64.1563 L 957.156,-63.7921 L 957.48,-63.3919 L 957.761,-62.96 L 957.995,-62.5011
 L 958.179,-62.0204 L 958.312,-61.5229 L 958.393,-61.0143 L 958.42,-60.5 L 958.393,-59.9857 L 958.312,-59.4771
 L 958.179,-58.9796 L 957.995,-58.4989 L 957.761,-58.04 L 957.48,-57.6081 L 957.156,-57.2079 L 956.792,-56.8437
 L 956.392,-56.5196 L 955.96,-56.2392 L 955.501,-56.0054 L 955.02,-55.8208 L 954.523,-55.6875 L 954.014,-55.607
 L 953.5,-55.58 z
M 479.959,-47.72 L 479.147,-47.9191 L 461.572,-54.2357 L 460.574,-54.7639 L 459.952,-55.3235 L 459.461,-56
 L 459.12,-56.7639 L 458.947,-57.5819 L 458.947,-58.4181 L 459.12,-59.2361 L 459.461,-60 L 459.952,-60.6765
 L 460.574,-61.2361 L 461.298,-61.6542 L 462.093,-61.9126 L 462.925,-62 L 498.075,-62 L 499.193,-61.8406
 L 499.967,-61.5242 L 500.659,-61.0538 L 501.237,-60.4499 L 501.677,-59.739 L 501.96,-58.952 L 502.073,-58.1235
 L 502.012,-57.2895 L 501.778,-56.4866 L 501.382,-55.7499 L 500.842,-55.1115 L 500.181,-54.5993 L 499.428,-54.2357
 L 481.853,-47.9191 L 480.795,-47.6942 z
M 372.359,-20.5166 L 371.547,-20.7156 L 278.282,-54.2357 L 277.284,-54.7639 L 276.663,-55.3235 L 276.171,-56
 L 275.831,-56.7639 L 275.657,-57.5819 L 275.657,-58.4181 L 275.831,-59.2361 L 276.171,-60 L 276.663,-60.6765
 L 277.284,-61.2361 L 278.008,-61.6542 L 278.803,-61.9126 L 279.635,-62 L 372.9,-62 L 374.136,-61.8042
 L 374.9,-61.4641 L 375.577,-60.9726 L 376.136,-60.3511 L 376.554,-59.627 L 376.813,-58.8316 L 376.9,-58
 L 376.9,-24.4798 L 376.785,-23.5278 L 376.502,-22.7409 L 376.062,-22.0299 L 375.483,-21.4261 L 374.792,-20.9557
 L 374.018,-20.6393 L 373.195,-20.4907 z
M 776.182,-20.6393 L 775.408,-20.9557 L 774.717,-21.4261 L 774.138,-22.0299 L 773.698,-22.7409 L 773.415,-23.5278
 L 773.3,-24.4798 L 773.3,-58 L 773.387,-58.8316 L 773.646,-59.627 L 774.064,-60.3511 L 774.623,-60.9726
 L 775.3,-61.4641 L 776.064,-61.8042 L 777.3,-62 L 870.565,-62 L 871.397,-61.9126 L 872.192,-61.6542
 L 872.916,-61.2361 L 873.537,-60.6765 L 874.029,-60 L 874.369,-59.2361 L 874.543,-58.4181 L 874.543,-57.5819
 L 874.369,-56.7639 L 874.029,-56 L 873.537,-55.3235 L 872.916,-54.7639 L 871.918,-54.2357 L 778.653,-20.7156
 L 777.841,-20.5166 L 777.005,-20.4907 z
M 183.159,-20.5166 L 182.347,-20.7156 L 89.0822,-54.2357 L 88.084,-54.7639 L 87.4625,-55.3235 L 86.971,-56
 L 86.6309,-56.7639 L 86.457,-57.5819 L 86.457,-58.4181 L 86.6309,-59.2361 L 86.971,-60 L 87.4625,-60.6765
 L 88.084,-61.2361 L 88.8082,-61.6542 L 89.6035,-61.9126 L 90.4351,-62 L 183.7,-62 L 184.936,-61.8042
 L 185.7,-61.4641 L 186.377,-60.9726 L 186.936,-60.3511 L 187.354,-59.627 L 187.613,-58.8316 L 187.7,-58
 L 187.7,-24.4798 L 187.585,-23.5278 L 187.302,-22.7409 L 186.862,-22.0299 L 186.283,-21.4261 L 185.592,-20.9557
 L 184.818,-20.6393 L 183.995,-20.4907 z
M 586.982,-20.6393 L 586.208,-20.9557 L 585.516,-21.4261 L 584.938,-22.0299 L 584.498,-22.7409 L 584.215,-23.5278
 L 584.1,-24.4798 L 584.1,-58 L 584.187,-58.8316 L 584.446,-59.627 L 584.864,-60.3511 L 585.423,-60.9726
 L 586.1,-61.4641 L 586.864,-61.8042 L 588.1,-62 L 681.365,-62 L 682.197,-61.9126 L 682.992,-61.6542
 L 683.716,-61.2361 L 684.337,-60.6765 L 684.829,-60 L 685.169,-59.2361 L 685.343,-58.4181 L 685.343,-57.5819
 L 685.169,-56.7639 L 684.829,-56 L 684.337,-55.3235 L 683.716,-54.7639 L 682.718,-54.2357 L 589.453,-20.7156
 L 588.641,-20.5166 L 587.805,-20.4907 z
M 398.482,-18.3775 L 397.664,-18.5514 L 396.9,-18.8915 L 396.223,-19.383 L 395.664,-20.0045 L 395.246,-20.7287
 L 394.987,-21.524 L 394.9,-22.3556 L 394.9,-57.6444 L 395.015,-58.5964 L 395.298,-59.3833 L 395.738,-60.0943
 L 396.316,-60.6982 L 397.008,-61.1686 L 397.782,-61.4849 L 398.605,-61.6335 L 399.441,-61.6077 L 400.253,-61.4086
 L 449.346,-43.7643 L 449.885,-43.5242 L 450.576,-43.0538 L 451.155,-42.4499 L 451.595,-41.739 L 451.878,-40.952
 L 451.991,-40.1235 L 451.929,-39.2895 L 451.696,-38.4866 L 451.3,-37.7499 L 450.76,-37.1115 L 450.099,-36.5993
 L 449.346,-36.2357 L 400.253,-18.5914 L 399.318,-18.3775 z
M 561.559,-18.3923 L 560.747,-18.5914 L 511.654,-36.2357 L 511.115,-36.4758 L 510.424,-36.9462 L 509.845,-37.5501
 L 509.405,-38.261 L 509.122,-39.048 L 509.009,-39.8765 L 509.071,-40.7105 L 509.304,-41.5134 L 509.7,-42.2501
 L 510.24,-42.8885 L 510.901,-43.4007 L 511.654,-43.7643 L 560.747,-61.4086 L 561.682,-61.6225 L 562.518,-61.6225
 L 563.336,-61.4486 L 564.1,-61.1085 L 564.777,-60.617 L 565.336,-59.9955 L 565.754,-59.2713 L 566.013,-58.476
 L 566.1,-57.6444 L 566.1,-22.3556 L 565.985,-21.4036 L 565.702,-20.6166 L 565.262,-19.9057 L 564.683,-19.3018
 L 563.992,-18.8314 L 563.218,-18.515 L 562.395,-18.3665 z
M 209.7,-18 L 208.464,-18.1958 L 207.7,-18.5359 L 207.023,-19.0274 L 206.464,-19.6489 L 206.046,-20.373
 L 205.787,-21.1684 L 205.7,-22 L 205.7,-55.5201 L 205.815,-56.4722 L 206.098,-57.2591 L 206.538,-57.97
 L 207.117,-58.5739 L 207.808,-59.0443 L 208.582,-59.3607 L 209.405,-59.5092 L 210.241,-59.4834 L 211.053,-59.2844
 L 304.318,-25.7643 L 305.316,-25.2361 L 305.937,-24.6765 L 306.429,-24 L 306.769,-23.2361 L 306.943,-22.4181
 L 306.943,-21.5819 L 306.769,-20.7639 L 306.429,-20 L 305.937,-19.3235 L 305.316,-18.7639 L 304.592,-18.3458
 L 303.797,-18.0874 L 302.965,-18 z
M 658.035,-18 L 657.203,-18.0874 L 656.408,-18.3458 L 655.684,-18.7639 L 655.063,-19.3235 L 654.571,-20
 L 654.231,-20.7639 L 654.057,-21.5819 L 654.057,-22.4181 L 654.231,-23.2361 L 654.571,-24 L 655.063,-24.6765
 L 655.684,-25.2361 L 656.682,-25.7643 L 749.947,-59.2844 L 750.759,-59.4834 L 751.595,-59.5092 L 752.418,-59.3607
 L 753.192,-59.0443 L 753.883,-58.5739 L 754.462,-57.97 L 754.902,-57.2591 L 755.185,-56.4722 L 755.3,-55.5201
 L 755.3,-22 L 755.213,-21.1684 L 754.954,-20.373 L 754.536,-19.6489 L 753.977,-19.0274 L 753.3,-18.5359
 L 752.536,-18.1958 L 751.3,-18 z
M 22,-18 L 20.7639,-18.1958 L 20,-18.5359 L 19.3235,-19.0274 L 18.7639,-19.6489 L 18.3458,-20.373
 L 18.0874,-21.1684 L 18,-22 L 18,-54.981 L 18.1149,-55.9331 L 18.3978,-56.72 L 18.838,-57.4309
 L 19.4165,-58.0348 L 20.1079,-58.5052 L 20.8819,-58.8216 L 21.7049,-58.9701 L 22.5407,-58.9443 L 23.3529,-58.7453
 L 115.118,-25.7643 L 116.116,-25.2361 L 116.737,-24.6765 L 117.229,-24 L 117.569,-23.2361 L 117.743,-22.4181
 L 117.743,-21.5819 L 117.569,-20.7639 L 117.229,-20 L 116.737,-19.3235 L 116.116,-18.7639 L 115.392,-18.3458
 L 114.597,-18.0874 L 113.765,-18 z
M 847.235,-18 L 846.403,-18.0874 L 845.608,-18.3458 L 844.884,-18.7639 L 844.263,-19.3235 L 843.771,-20
 L 843.431,-20.7639 L 843.257,-21.5819 L 843.257,-22.4181 L 843.431,-23.2361 L 843.771,-24 L 844.263,-24.6765
 L 844.884,-25.2361 L 845.882,-25.7643 L 937.647,-58.7453 L 938.459,-58.9443 L 939.295,-58.9701 L 940.118,-58.8216
 L 940.892,-58.5052 L 941.583,-58.0348 L 942.162,-57.4309 L 942.602,-56.72 L 942.885,-55.9331 L 943,-54.981
 L 943,-22 L 942.913,-21.1684 L 942.654,-20.373 L 942.236,-19.6489 L 941.677,-19.0274 L 941,-18.5359
 L 940.236,-18.1958 L 939,-18 z
M 462.925,-18 L 461.807,-18.1594 L 461.033,-18.4758 L 460.341,-18.9462 L 459.763,-19.5501 L 459.322,-20.261
 L 459.04,-21.048 L 458.927,-21.8765 L 458.988,-22.7105 L 459.222,-23.5134 L 459.618,-24.2501 L 460.158,-24.8885
 L 460.819,-25.4007 L 461.572,-25.7643 L 479.147,-32.0809 L 480.205,-32.3058 L 481.041,-32.28 L 481.853,-32.0809
 L 499.428,-25.7643 L 500.426,-25.2361 L 501.048,-24.6765 L 501.539,-24 L 501.879,-23.2361 L 502.053,-22.4181
 L 502.053,-21.5819 L 501.879,-20.7639 L 501.539,-20 L 501.048,-19.3235 L 500.426,-18.7639 L 499.702,-18.3458
 L 498.907,-18.0874 L 498.075,-18 z
" stroke="black" fill="lightgray" stroke-width="0.5"/>
</svg>
