<?xml version="1.0" standalone="no"?>
<!DOCTYPE svg PUBLIC "-//W3C//DTD SVG 1.1//EN" "http://www.w3.org/Graphics/SVG/1.1/DTD/svg11.dtd">
<svg width="689mm" height="80mm" viewBox="0 -80 689 80" xmlns="http://www.w3.org/2000/svg" version="1.1">
<title>OpenSCAD Model</title>
<path d="
M 689,-80 L 0,-80 L 0,-0 L 4.95,-0 L 4.95,-6 L 5.00572,-6.53017
 L 5.17046,-7.03717 L 5.437,-7.49884 L 5.79372,-7.895 L 6.22499,-8.20836 L 6.71201,-8.42519 L 7.23344,-8.53603
 L 7.76654,-8.53603 L 8.28798,-8.42519 L 8.77499,-8.20836 L 9.20627,-7.895 L 9.56299,-7.49884 L 9.82953,-7.03717
 L 9.99426,-6.53017 L 10.05,-6 L 10.05,-0 L 139.75,-0 L 139.75,-6 L 139.806,-6.53017
 L 139.97,-7.03717 L 140.237,-7.49884 L 140.594,-7.895 L 141.025,-8.20836 L 141.512,-8.42519 L 142.033,-8.53603
 L 142.567,-8.53603 L 143.088,-8.42519 L 143.575,-8.20836 L 144.006,-7.895 L 144.363,-7.49884 L 144.63,-7.03717
 L 144.794,-6.53017 L 144.85,-6 L 144.85,-0 L 274.55,-0 L 274.55,-6 L 274.606,-6.53017
 L 274.77,-7.03717 L 275.037,-7.49884 L 275.394,-7.895 L 275.825,-8.20836 L 276.312,-8.42519 L 276.833,-8.53603
 L 277.367,-8.53603 L 277.888,-8.42519 L 278.375,-8.20836 L 278.806,-7.895 L 279.163,-7.49884 L 279.43,-7.03717
 L 279.594,-6.53017 L 279.65,-6 L 279.65,-0 L 409.35,-0 L 409.35,-6 L 409.406,-6.53017
 L 409.57,-7.03717 L 409.837,-7.49884 L 410.194,-7.895 L 410.625,-8.20836 L 411.112,-8.42519 L 411.633,-8.53603
 L 412.167,-8.53603 L 412.688,-8.42519 L 413.175,-8.20836 L 413.606,-7.895 L 413.963,-7.49884 L 414.23,-7.03717
 L 414.394,-6.53017 L 414.45,-6 L 414.45,-0 L 544.15,-0 L 544.15,-6 L 544.206,-6.53017
 L 544.37,-7.03717 L 544.637,-7.49884 L 544.994,-7.895 L 545.425,-8.20836 L 545.912,-8.42519 L 546.433,-8.53603
 L 546.967,-8.53603 L 547.488,-8.42519 L 547.975,-8.20836 L 548.406,-7.895 L 548.763,-7.49884 L 549.03,-7.03717
 L 549.194,-6.53017 L 549.25,-6 L 549.25,-0 L 678.95,-0 L 678.95,-6 L 679.006,-6.53017
 L 679.17,-7.03717 L 679.437,-7.49884 L 679.794,-7.895 L 680.225,-8.20836 L 680.712,-8.42519 L 681.233,-8.53603
 L 681.767,-8.53603 L 682.288,-8.42519 L 682.775,-8.20836 L 683.206,-7.895 L 683.563,-7.49884 L 683.83,-7.03717
 L 683.994,-6.53017 L 684.05,-6 L 684.05,-0 L 689,-0 z
M 6.98573,-55.607 L 6.47708,-55.6875 L 5.97964,-55.8208 L 5.49887,-56.0054 L 5.04001,-56.2392 L 4.60811,-56.5196
 L 4.20789,-56.8437 L 3.84373,-57.2079 L 3.51964,-57.6081 L 3.23917,-58.04 L 3.00537,-58.4989 L 2.82082,-58.9796
 L 2.68752,-59.4771 L 2.60696,-59.9857 L 2.58,-60.5 L 2.60696,-61.0143 L 2.68752,-61.5229 L 2.82082,-62.0204
 L 3.00537,-62.5011 L 3.23917,-62.96 L 3.51964,-63.3919 L 3.84373,-63.7921 L 4.20789,-64.1563 L 4.60811,-64.4804
 L 4.95001,-64.7024 L 4.95001,-74 L 5.00574,-74.5302 L 5.17047,-75.0372 L 5.43701,-75.4988 L 5.79373,-75.895
 L 6.22501,-76.2084 L 6.71202,-76.4252 L 7.23346,-76.536 L 7.76654,-76.536 L 8.28798,-76.4252 L 8.77499,-76.2084
 L 9.20627,-75.895 L 9.56299,-75.4988 L 9.82953,-75.0372 L 9.99426,-74.5302 L 10.05,-74 L 10.05,-64.7024
 L 10.3919,-64.4804 L 10.7921,-64.1563 L 11.1563,-63.7921 L 11.4804,-63.3919 L 11.7608,-62.96 L 11.9946,-62.5011
 L 12.1792,-62.0204 L 12.3125,-61.5229 L 12.393,-61.0143 L 12.42,-60.5 L 12.393,-59.9857 L 12.3125,-59.4771
 L 12.1792,-58.9796 L 11.9946,-58.4989 L 11.7608,-58.04 L 11.4804,-57.6081 L 11.1563,-57.2079 L 10.7921,-56.8437
 L 10.3919,-56.5196 L 9.95999,-56.2392 L 9.50113,-56.0054 L 9.02036,-55.8208 L 8.52292,-55.6875 L 8.01427,-55.607
 L 7.5,-55.58 z
M 141.786,-55.607 L 141.277,-55.6875 L 140.78,-55.8208 L 140.299,-56.0054 L 139.84,-56.2392 L 139.408,-56.5196
 L 139.008,-56.8437 L 138.644,-57.2079 L 138.32,-57.6081 L 138.039,-58.04 L 137.805,-58.4989 L 137.621,-58.9796
 L 137.488,-59.4771 L 137.407,-59.9857 L 137.38,-60.5 L 137.407,-61.0143 L 137.488,-61.5229 L 137.621,-62.0204
 L 137.805,-62.5011 L 138.039,-62.96 L 138.32,-63.3919 L 138.644,-63.7921 L 139.008,-64.1563 L 139.408,-64.4804
 L 139.75,-64.7024 L 139.75,-74 L 139.806,-74.5302 L 139.97,-75.0372 L 140.237,-75.4988 L 140.594,-75.895
 L 141.025,-76.2084 L 141.512,-76.4252 L 142.033,-76.536 L 142.567,-76.536 L 143.088,-76.4252 L 143.575,-76.2084
 L 144.006,-75.895 L 144.363,-75.4988 L 144.63,-75.0372 L 144.794,-74.5302 L 144.85,-74 L 144.85,-64.7024
 L 145.192,-64.4804 L 145.592,-64.1563 L 145.956,-63.7921 L 146.28,-63.3919 L 146.561,-62.96 L 146.795,-62.5011
 L 146.979,-62.0204 L 147.112,-61.5229 L 147.193,-61.0143 L 147.22,-60.5 L 147.193,-59.9857 L 147.112,-59.4771
 L 146.979,-58.9796 L 146.795,-58.4989 L 146.561,-58.04 L 146.28,-57.6081 L 145.956,-57.2079 L 145.592,-56.8437
 L 145.192,-56.5196 L 144.76,-56.2392 L 144.301,-56.0054 L 143.82,-55.8208 L 143.323,-55.6875 L 142.814,-55.607
 L 142.3,-55.58 z
M 276.586,-55.607 L 276.077,-55.6875 L 275.58,-55.8208 L 275.099,-56.0054 L 274.64,-56.2392 L 274.208,-56.5196
 L 273.808,-56.8437 L 273.444,-57.2079 L 273.12,-57.6081 L 272.839,-58.04 L 272.605,-58.4989 L 272.421,-58.9796
 L 272.288,-59.4771 L 272.207,-59.9857 L 272.18,-60.5 L 272.207,-61.0143 L 272.288,-61.5229 L 272.421,-62.0204
 L 272.605,-62.5011 L 272.839,-62.96 L 273.12,-63.3919 L 273.444,-63.7921 L 273.808,-64.1563 L 274.208,-64.4804
 L 274.55,-64.7024 L 274.55,-74 L 274.606,-74.5302 L 274.77,-75.0372 L 275.037,-75.4988 L 275.394,-75.895
 L 275.825,-76.2084 L 276.312,-76.4252 L 276.833,-76.536 L 277.367,-76.536 L 277.888,-76.4252 L 278.375,-76.2084
 L 278.806,-75.895 L 279.163,-75.4988 L 279.43,-75.0372 L 279.594,-74.5302 L 279.65,-74 L 279.65,-64.7024
 L 279.992,-64.4804 L 280.392,-64.1563 L 280.756,-63.7921 L 281.08,-63.3919 L 281.361,-62.96 L 281.595,-62.5011
 L 281.779,-62.0204 L 281.912,-61.5229 L 281.993,-61.0143 L 282.02,-60.5 L 281.993,-59.9857 L 281.912,-59.4771
 L 281.779,-58.9796 L 281.595,-58.4989 L 281.361,-58.04 L 281.08,-57.6081 L 280.756,-57.2079 L 280.392,-56.8437
 L 279.992,-56.5196 L 279.56,-56.2392 L 279.101,-56.0054 L 278.62,-55.8208 L 278.123,-55.6875 L 277.614,-55.607
 L 277.1,-55.58 z
M 411.386,-55.607 L 410.877,-55.6875 L 410.38,-55.8208 L 409.899,-56.0054 L 409.44,-56.2392 L 409.008,-56.5196
 L 408.608,-56.8437 L 408.244,-57.2079 L 407.92,-57.6081 L 407.639,-58.04 L 407.405,-58.4989 L 407.221,-58.9796
 L 407.088,-59.4771 L 407.007,-59.9857 L 406.98,-60.5 L 407.007,-61.0143 L 407.088,-61.5229 L 407.221,-62.0204
 L 407.405,-62.5011 L 407.639,-62.96 L 407.92,-63.3919 L 408.244,-63.7921 L 408.608,-64.1563 L 409.008,-64.4804
 L 409.35,-64.7024 L 409.35,-74 L 409.406,-74.5302 L 409.57,-75.0372 L 409.837,-75.4988 L 410.194,-75.895
 L 410.625,-76.2084 L 411.112,-76.4252 L 411.633,-76.536 L 412.167,-76.536 L 412.688,-76.4252 L 413.175,-76.2084
 L 413.606,-75.895 L 413.963,-75.4988 L 414.23,-75.0372 L 414.394,-74.5302 L 414.45,-74 L 414.45,-64.7024
 L 414.792,-64.4804 L 415.192,-64.1563 L 415.556,-63.7921 L 415.88,-63.3919 L 416.161,-62.96 L 416.395,-62.5011
 L 416.579,-62.0204 L 416.712,-61.5229 L 416.793,-61.0143 L 416.82,-60.5 L 416.793,-59.9857 L 416.712,-59.4771
 L 416.579,-58.9796 L 416.395,-58.4989 L 416.161,-58.04 L 415.88,-57.6081 L 415.556,-57.2079 L 415.192,-56.8437
 L 414.792,-56.5196 L 414.36,-56.2392 L 413.901,-56.0054 L 413.42,-55.8208 L 412.923,-55.6875 L 412.414,-55.607
 L 411.9,-55.58 z
M 546.186,-55.607 L 545.677,-55.6875 L 545.18,-55.8208 L 544.699,-56.0054 L 544.24,-56.2392 L 543.808,-56.5196
 L 543.408,-56.8437 L 543.044,-57.2079 L 542.72,-57.6081 L 542.439,-58.04 L 542.205,-58.4989 L 542.021,-58.9796
 L 541.888,-59.4771 L 541.807,-59.9857 L 541.78,-60.5 L 541.807,-61.0143 L 541.888,-61.5229 L 542.021,-62.0204
 L 542.205,-62.5011 L 542.439,-62.96 L 542.72,-63.3919 L 543.044,-63.7921 L 543.408,-64.1563 L 543.808,-64.4804
 L 544.15,-64.7024 L 544.15,-74 L 544.206,-74.5302 L 544.37,-75.0372 L 544.637,-75.4988 L 544.994,-75.895
 L 545.425,-76.2084 L 545.912,-76.4252 L 546.433,-76.536 L 546.967,-76.536 L 547.488,-76.4252 L 547.975,-76.2084
 L 548.406,-75.895 L 548.763,-75.4988 L 549.03,-75.0372 L 549.194,-74.5302 L 549.25,-74 L 549.25,-64.7024
 L 549.592,-64.4804 L 549.992,-64.1563 L 550.356,-63.7921 L 550.68,-63.3919 L 550.961,-62.96 L 551.195,-62.5011
 L 551.379,-62.0204 L 551.512,-61.5229 L 551.593,-61.0143 L 551.62,-60.5 L 551.593,-59.9857 L 551.512,-59.4771
 L 551.379,-58.9796 L 551.195,-58.4989 L 550.961,-58.04 L 550.68,-57.6081 L 550.356,-57.2079 L 549.992,-56.8437
 L 549.592,-56.5196 L 549.16,-56.2392 L 548.701,-56.0054 L 548.22,-55.8208 L 547.723,-55.6875 L 547.214,-55.607
 L 546.7,-55.58 z
M 680.986,-55.607 L 680.477,-55.6875 L 679.98,-55.8208 L 679.499,-56.0054 L 679.04,-56.2392 L 678.608,-56.5196
 L 678.208,-56.8437 L 677.844,-57.2079 L 677.52,-57.6081 L 677.239,-58.04 L 677.005,-58.4989 L 676.821,-58.9796
 L 676.688,-59.4771 L 676.607,-59.9857 L 676.58,-60.5 L 676.607,-61.0143 L 676.688,-61.5229 L 676.821,-62.0204
 L 677.005,-62.5011 L 677.239,-62.96 L 677.52,-63.3919 L 677.844,-63.7921 L 678.208,-64.1563 L 678.608,-64.4804
 L 678.95,-64.7024 L 678.95,-74 L 679.006,-74.5302 L 679.17,-75.0372 L 679.437,-75.4988 L 679.794,-75.895
 L 680.225,-76.2084 L 680.712,-76.4252 L 681.233,-76.536 L 681.767,-76.536 L 682.288,-76.4252 L 682.775,-76.2084
 L 683.206,-75.895 L 683.563,-75.4988 L 683.83,-75.0372 L 683.994,-74.5302 L 684.05,-74 L 684.05,-64.7024
 L 684.392,-64.4804 L 684.792,-64.1563 L 685.156,-63.7921 L 685.48,-63.3919 L 685.761,-62.96 L 685.995,-62.5011
 L 686.179,-62.0204 L 686.312,-61.5229 L 686.393,-61.0143 L 686.42,-60.5 L 686.393,-59.9857 L 686.312,-59.4771
 L 686.179,-58.9796 L 685.995,-58.4989 L 685.761,-58.04 L 685.48,-57.6081 L 685.156,-57.2079 L 684.792,-56.8437
 L 684.392,-56.5196 L 683.96,-56.2392 L 683.501,-56.0054 L 683.02,-55.8208 L 682.523,-55.6875 L 682.014,-55.607
 L 681.5,-55.58 z
M 343.48,-48.4381 L 342.698,-48.7346 L 331.411,-54.4287 L 330.861,-54.7639 L 330.24,-55.3235 L 329.748,-56
 L 329.408,-56.7639 L 329.234,-57.5819 L 329.234,-58.4181 L 329.408,-59.2361 L 329.748,-60 L 330.24,-60.6765
 L 330.861,-61.2361 L 331.585,-61.6542 L 332.381,-61.9126 L 333.212,-62 L 355.788,-62 L 356.429,-61.9482
 L 357.236,-61.7285 L 357.98,-61.3459 L 358.627,-60.817 L 359.151,-60.165 L 359.528,-59.4184 L 359.741,-58.6098
 L 359.781,-57.7745 L 359.647,-56.9491 L 359.344,-56.1697 L 358.886,-55.4702 L 358.292,-54.8813 L 357.589,-54.4287
 L 346.302,-48.7346 L 345.142,-48.3578 L 344.307,-48.3106 z
M 263.08,-23.2334 L 262.298,-23.5299 L 201.046,-54.4287 L 200.497,-54.7639 L 199.875,-55.3235 L 199.384,-56
 L 199.044,-56.7639 L 198.87,-57.5819 L 198.87,-58.4181 L 199.044,-59.2361 L 199.384,-60 L 199.875,-60.6765
 L 200.497,-61.2361 L 201.221,-61.6542 L 202.016,-61.9126 L 202.848,-62 L 264.1,-62 L 265.336,-61.8042
 L 266.1,-61.4641 L 266.777,-60.9726 L 267.336,-60.3511 L 267.754,-59.627 L 268.013,-58.8316 L 268.1,-58
 L 268.1,-27.1013 L 268.053,-26.4915 L 267.84,-25.6829 L 267.463,-24.9363 L 266.94,-24.2843 L 266.292,-23.7554
 L 265.549,-23.3728 L 264.742,-23.1531 L 263.907,-23.1059 z
M 559.058,-23.1531 L 558.251,-23.3728 L 557.508,-23.7554 L 556.86,-24.2843 L 556.337,-24.9363 L 555.96,-25.6829
 L 555.747,-26.4915 L 555.7,-27.1013 L 555.7,-58 L 555.787,-58.8316 L 556.046,-59.627 L 556.464,-60.3511
 L 557.023,-60.9726 L 557.7,-61.4641 L 558.464,-61.8042 L 559.7,-62 L 620.952,-62 L 621.784,-61.9126
 L 622.579,-61.6542 L 623.303,-61.2361 L 623.925,-60.6765 L 624.416,-60 L 624.756,-59.2361 L 624.93,-58.4181
 L 624.93,-57.5819 L 624.756,-56.7639 L 624.416,-56 L 623.925,-55.3235 L 623.303,-54.7639 L 622.754,-54.4287
 L 561.502,-23.5299 L 560.72,-23.2334 L 559.893,-23.1059 z
M 128.28,-23.2334 L 127.498,-23.5299 L 66.2462,-54.4287 L 65.6967,-54.7639 L 65.0752,-55.3235 L 64.5837,-56
 L 64.2436,-56.7639 L 64.0697,-57.5819 L 64.0697,-58.4181 L 64.2436,-59.2361 L 64.5837,-60 L 65.0752,-60.6765
 L 65.6967,-61.2361 L 66.4209,-61.6542 L 67.2162,-61.9126 L 68.0478,-62 L 129.3,-62 L 130.536,-61.8042
 L 131.3,-61.4641 L 131.977,-60.9726 L 132.536,-60.3511 L 132.954,-59.627 L 133.213,-58.8316 L 133.3,-58
 L 133.3,-27.1013 L 133.253,-26.4915 L 133.04,-25.6829 L 132.663,-24.9363 L 132.14,-24.2843 L 131.492,-23.7554
 L 130.749,-23.3728 L 129.942,-23.1531 L 129.107,-23.1059 z
M 424.258,-23.1531 L 423.451,-23.3728 L 422.708,-23.7554 L 422.06,-24.2843 L 421.537,-24.9363 L 421.16,-25.6829
 L 420.947,-26.4915 L 420.9,-27.1013 L 420.9,-58 L 420.987,-58.8316 L 421.246,-59.627 L 421.664,-60.3511
 L 422.223,-60.9726 L 422.9,-61.4641 L 423.664,-61.8042 L 424.9,-62 L 486.152,-62 L 486.984,-61.9126
 L 487.779,-61.6542 L 488.503,-61.2361 L 489.125,-60.6765 L 489.616,-60 L 489.956,-59.2361 L 490.13,-58.4181
 L 490.13,-57.5819 L 489.956,-56.7639 L 489.616,-56 L 489.125,-55.3235 L 488.503,-54.7639 L 487.954,-54.4287
 L 426.702,-23.5299 L 425.92,-23.2334 L 425.093,-23.1059 z
M 289.682,-20.8857 L 288.864,-21.0596 L 288.1,-21.3997 L 287.423,-21.8913 L 286.864,-22.5127 L 286.446,-23.2369
 L 286.187,-24.0322 L 286.1,-24.8638 L 286.1,-55.1362 L 286.147,-55.746 L 286.36,-56.5546 L 286.737,-57.3012
 L 287.26,-57.9532 L 287.908,-58.482 L 288.651,-58.8647 L 289.458,-59.0844 L 290.293,-59.1315 L 291.12,-59.004
 L 291.902,-58.7075 L 321.907,-43.5713 L 322.297,-43.3459 L 322.945,-42.817 L 323.469,-42.165 L 323.845,-41.4184
 L 324.058,-40.6098 L 324.099,-39.7745 L 323.965,-38.9491 L 323.662,-38.1697 L 323.204,-37.4702 L 322.61,-36.8813
 L 321.907,-36.4287 L 291.902,-21.2925 L 291.336,-21.0596 L 290.518,-20.8857 z
M 397.88,-20.996 L 397.098,-21.2925 L 367.093,-36.4287 L 366.703,-36.6541 L 366.055,-37.183 L 365.531,-37.835
 L 365.155,-38.5816 L 364.941,-39.3902 L 364.901,-40.2255 L 365.035,-41.0509 L 365.338,-41.8303 L 365.796,-42.5298
 L 366.39,-43.1187 L 367.093,-43.5713 L 397.098,-58.7075 L 397.664,-58.9404 L 398.482,-59.1143 L 399.318,-59.1143
 L 400.136,-58.9404 L 400.9,-58.6003 L 401.577,-58.1087 L 402.136,-57.4873 L 402.554,-56.7631 L 402.813,-55.9678
 L 402.9,-55.1362 L 402.9,-24.8638 L 402.853,-24.254 L 402.64,-23.4454 L 402.263,-22.6988 L 401.74,-22.0468
 L 401.092,-21.518 L 400.349,-21.1353 L 399.542,-20.9156 L 398.707,-20.8685 z
M 155.3,-18 L 154.064,-18.1958 L 153.3,-18.5359 L 152.623,-19.0274 L 152.064,-19.6489 L 151.646,-20.373
 L 151.387,-21.1684 L 151.3,-22 L 151.3,-52.8987 L 151.347,-53.5085 L 151.56,-54.3171 L 151.937,-55.0637
 L 152.46,-55.7157 L 153.108,-56.2446 L 153.851,-56.6272 L 154.658,-56.8469 L 155.493,-56.8941 L 156.32,-56.7666
 L 157.102,-56.4701 L 218.354,-25.5713 L 218.903,-25.2361 L 219.525,-24.6765 L 220.016,-24 L 220.356,-23.2361
 L 220.53,-22.4181 L 220.53,-21.5819 L 220.356,-20.7639 L 220.016,-20 L 219.525,-19.3235 L 218.903,-18.7639
 L 218.179,-18.3458 L 217.384,-18.0874 L 216.552,-18 z
M 472.448,-18 L 471.616,-18.0874 L 470.821,-18.3458 L 470.097,-18.7639 L 469.475,-19.3235 L 468.984,-20
 L 468.644,-20.7639 L 468.47,-21.5819 L 468.47,-22.4181 L 468.644,-23.2361 L 468.984,-24 L 469.475,-24.6765
 L 470.097,-25.2361 L 470.646,-25.5713 L 531.898,-56.4701 L 532.68,-56.7666 L 533.507,-56.8941 L 534.342,-56.8469
 L 535.149,-56.6272 L 535.892,-56.2446 L 536.54,-55.7157 L 537.063,-55.0637 L 537.44,-54.3171 L 537.653,-53.5085
 L 537.7,-52.8987 L 537.7,-22 L 537.613,-21.1684 L 537.354,-20.373 L 536.936,-19.6489 L 536.377,-19.0274
 L 535.7,-18.5359 L 534.936,-18.1958 L 533.7,-18 z
M 22,-18 L 20.7639,-18.1958 L 20,-18.5359 L 19.3235,-19.0274 L 18.7639,-19.6489 L 18.3458,-20.373
 L 18.0874,-21.1684 L 18,-22 L 18,-52.142 L 18.0468,-52.7518 L 18.2599,-53.5604 L 18.6366,-54.307
 L 19.1602,-54.959 L 19.8079,-55.4879 L 20.5515,-55.8705 L 21.3583,-56.0902 L 22.1932,-56.1374 L 23.0197,-56.0099
 L 23.8016,-55.7134 L 83.5537,-25.5713 L 84.1033,-25.2361 L 84.7248,-24.6765 L 85.2163,-24 L 85.5564,-23.2361
 L 85.7303,-22.4181 L 85.7303,-21.5819 L 85.5564,-20.7639 L 85.2163,-20 L 84.7248,-19.3235 L 84.1033,-18.7639
 L 83.3791,-18.3458 L 82.5838,-18.0874 L 81.7522,-18 z
M 607.248,-18 L 606.416,-18.0874 L 605.621,-18.3458 L 604.897,-18.7639 L 604.275,-19.3235 L 603.784,-20
 L 603.444,-20.7639 L 603.27,-21.5819 L 603.27,-22.4181 L 603.444,-23.2361 L 603.784,-24 L 604.275,-24.6765
 L 604.897,-25.2361 L 605.446,-25.5713 L 665.198,-55.7134 L 665.98,-56.0099 L 666.807,-56.1374 L 667.642,-56.0902
 L 668.449,-55.8705 L 669.192,-55.4879 L 669.84,-54.959 L 670.363,-54.307 L 670.74,-53.5604 L 670.953,-52.7518
 L 671,-52.142 L 671,-22 L 670.913,-21.1684 L 670.654,-20.373 L 670.236,-19.6489 L 669.677,-19.0274
 L 669,-18.5359 L 668.236,-18.1958 L 667,-18 z
M 333.212,-18 L 332.571,-18.0518 L 331.764,-18.2715 L 331.02,-18.6541 L 330.373,-19.183 L 329.849,-19.835
 L 329.472,-20.5816 L 329.259,-21.3902 L 329.219,-22.2255 L 329.353,-23.0509 L 329.656,-23.8303 L 330.114,-24.5298
 L 330.708,-25.1187 L 331.411,-25.5713 L 342.698,-31.2654 L 343.858,-31.6422 L 344.693,-31.6894 L 345.52,-31.5619
 L 346.302,-31.2654 L 357.589,-25.5713 L 358.139,-25.2361 L 358.76,-24.6765 L 359.252,-24 L 359.592,-23.2361
 L 359.766,-22.4181 L 359.766,-21.5819 L 359.592,-20.7639 L 359.252,-20 L 358.76,-19.3235 L 358.139,-18.7639
 L 357.415,-18.3458 L 356.619,-18.0874 L 355.788,-18 z
" stroke="black" fill="lightgray" stroke-width="0.5"/>
</svg>
