<?xml version="1.0" standalone="no"?>
<!DOCTYPE svg PUBLIC "-//W3C//DTD SVG 1.1//EN" "http://www.w3.org/Graphics/SVG/1.1/DTD/svg11.dtd">
<svg width="561mm" height="80mm" viewBox="0 -80 561 80" xmlns="http://www.w3.org/2000/svg" version="1.1">
<title>OpenSCAD Model</title>
<path d="
M 561,-80 L 0,-80 L 0,-0 L 4.95,-0 L 4.95,-6 L 5.00572,-6.53017
 L 5.17046,-7.03717 L 5.437,-7.49884 L 5.79372,-7.895 L 6.22499,-8.20836 L 6.71201,-8.42519 L 7.23344,-8.53603
 L 7.76654,-8.53603 L 8.28798,-8.42519 L 8.77499,-8.20836 L 9.20627,-7.895 L 9.56299,-7.49884 L 9.82953,-7.03717
 L 9.99426,-6.53017 L 10.05,-6 L 10.05,-0 L 141.45,-0 L 141.45,-6 L 141.506,-6.53017
 L 141.67,-7.03717 L 141.937,-7.49884 L 142.294,-7.895 L 142.725,-8.20836 L 143.212,-8.42519 L 143.733,-8.53603
 L 144.267,-8.53603 L 144.788,-8.42519 L 145.275,-8.20836 L 145.706,-7.895 L 146.063,-7.49884 L 146.33,-7.03717
 L 146.494,-6.53017 L 146.55,-6 L 146.55,-0 L 277.95,-0 L 277.95,-6 L 278.006,-6.53017
 L 278.17,-7.03717 L 278.437,-7.49884 L 278.794,-7.895 L 279.225,-8.20836 L 279.712,-8.42519 L 280.233,-8.53603
 L 280.767,-8.53603 L 281.288,-8.42519 L 281.775,-8.20836 L 282.206,-7.895 L 282.563,-7.49884 L 282.83,-7.03717
 L 282.994,-6.53017 L 283.05,-6 L 283.05,-0 L 414.45,-0 L 414.45,-6 L 414.506,-6.53017
 L 414.67,-7.03717 L 414.937,-7.49884 L 415.294,-7.895 L 415.725,-8.20836 L 416.212,-8.42519 L 416.733,-8.53603
 L 417.267,-8.53603 L 417.788,-8.42519 L 418.275,-8.20836 L 418.706,-7.895 L 419.063,-7.49884 L 419.33,-7.03717
 L 419.494,-6.53017 L 419.55,-6 L 419.55,-0 L 550.95,-0 L 550.95,-6 L 551.006,-6.53017
 L 551.17,-7.03717 L 551.437,-7.49884 L 551.794,-7.895 L 552.225,-8.20836 L 552.712,-8.42519 L 553.233,-8.53603
 L 553.767,-8.53603 L 554.288,-8.42519 L 554.775,-8.20836 L 555.206,-7.895 L 555.563,-7.49884 L 555.83,-7.03717
 L 555.994,-6.53017 L 556.05,-6 L 556.05,-0 L 561,-0 z
M 6.98573,-55.607 L 6.47708,-55.6875 L 5.97964,-55.8208 L 5.49887,-56.0054 L 5.04001,-56.2392 L 4.60811,-56.5196
 L 4.20789,-56.8437 L 3.84373,-57.2079 L 3.51964,-57.6081 L 3.23917,-58.04 L 3.00537,-58.4989 L 2.82082,-58.9796
 L 2.68752,-59.4771 L 2.60696,-59.9857 L 2.58,-60.5 L 2.60696,-61.0143 L 2.68752,-61.5229 L 2.82082,-62.0204
 L 3.00537,-62.5011 L 3.23917,-62.96 L 3.51964,-63.3919 L 3.84373,-63.7921 L 4.20789,-64.1563 L 4.60811,-64.4804
 L 4.95001,-64.7024 L 4.95001,-74 L 5.00574,-74.5302 L 5.17047,-75.0372 L 5.43701,-75.4988 L 5.79373,-75.895
 L 6.22501,-76.2084 L 6.71202,-76.4252 L 7.23346,-76.536 L 7.76654,-76.536 L 8.28798,-76.4252 L 8.77499,-76.2084
 L 9.20627,-75.895 L 9.56299,-75.4988 L 9.82953,-75.0372 L 9.99426,-74.5302 L 10.05,-74 L 10.05,-64.7024
 L 10.3919,-64.4804 L 10.7921,-64.1563 L 11.1563,-63.7921 L 11.4804,-63.3919 L 11.7608,-62.96 L 11.9946,-62.5011
 L 12.1792,-62.0204 L 12.3125,-61.5229 L 12.393,-61.0143 L 12.42,-60.5 L 12.393,-59.9857 L 12.3125,-59.4771
 L 12.1792,-58.9796 L 11.9946,-58.4989 L 11.7608,-58.04 L 11.4804,-57.6081 L 11.1563,-57.2079 L 10.7921,-56.8437
 L 10.3919,-56.5196 L 9.95999,-56.2392 L 9.50113,-56.0054 L 9.02036,-55.8208 L 8.52292,-55.6875 L 8.01427,-55.607
 L 7.5,-55.58 z
M 143.486,-55.607 L 142.977,-55.6875 L 142.48,-55.8208 L 141.999,-56.0054 L 141.54,-56.2392 L 141.108,-56.5196
 L 140.708,-56.8437 L 140.344,-57.2079 L 140.02,-57.6081 L 139.739,-58.04 L 139.505,-58.4989 L 139.321,-58.9796
 L 139.188,-59.4771 L 139.107,-59.9857 L 139.08,-60.5 L 139.107,-61.0143 L 139.188,-61.5229 L 139.321,-62.0204
 L 139.505,-62.5011 L 139.739,-62.96 L 140.02,-63.3919 L 140.344,-63.7921 L 140.708,-64.1563 L 141.108,-64.4804
 L 141.45,-64.7024 L 141.45,-74 L 141.506,-74.5302 L 141.67,-75.0372 L 141.937,-75.4988 L 142.294,-75.895
 L 142.725,-76.2084 L 143.212,-76.4252 L 143.733,-76.536 L 144.267,-76.536 L 144.788,-76.4252 L 145.275,-76.2084
 L 145.706,-75.895 L 146.063,-75.4988 L 146.33,-75.0372 L 146.494,-74.5302 L 146.55,-74 L 146.55,-64.7024
 L 146.892,-64.4804 L 147.292,-64.1563 L 147.656,-63.7921 L 147.98,-63.3919 L 148.261,-62.96 L 148.495,-62.5011
 L 148.679,-62.0204 L 148.812,-61.5229 L 148.893,-61.0143 L 148.92,-60.5 L 148.893,-59.9857 L 148.812,-59.4771
 L 148.679,-58.9796 L 148.495,-58.4989 L 148.261,-58.04 L 147.98,-57.6081 L 147.656,-57.2079 L 147.292,-56.8437
 L 146.892,-56.5196 L 146.46,-56.2392 L 146.001,-56.0054 L 145.52,-55.8208 L 145.023,-55.6875 L 144.514,-55.607
 L 144,-55.58 z
M 279.986,-55.607 L 279.477,-55.6875 L 278.98,-55.8208 L 278.499,-56.0054 L 278.04,-56.2392 L 277.608,-56.5196
 L 277.208,-56.8437 L 276.844,-57.2079 L 276.52,-57.6081 L 276.239,-58.04 L 276.005,-58.4989 L 275.821,-58.9796
 L 275.688,-59.4771 L 275.607,-59.9857 L 275.58,-60.5 L 275.607,-61.0143 L 275.688,-61.5229 L 275.821,-62.0204
 L 276.005,-62.5011 L 276.239,-62.96 L 276.52,-63.3919 L 276.844,-63.7921 L 277.208,-64.1563 L 277.608,-64.4804
 L 277.95,-64.7024 L 277.95,-74 L 278.006,-74.5302 L 278.17,-75.0372 L 278.437,-75.4988 L 278.794,-75.895
 L 279.225,-76.2084 L 279.712,-76.4252 L 280.233,-76.536 L 280.767,-76.536 L 281.288,-76.4252 L 281.775,-76.2084
 L 282.206,-75.895 L 282.563,-75.4988 L 282.83,-75.0372 L 282.994,-74.5302 L 283.05,-74 L 283.05,-64.7024
 L 283.392,-64.4804 L 283.792,-64.1563 L 284.156,-63.7921 L 284.48,-63.3919 L 284.761,-62.96 L 284.995,-62.5011
 L 285.179,-62.0204 L 285.312,-61.5229 L 285.393,-61.0143 L 285.42,-60.5 L 285.393,-59.9857 L 285.312,-59.4771
 L 285.179,-58.9796 L 284.995,-58.4989 L 284.761,-58.04 L 284.48,-57.6081 L 284.156,-57.2079 L 283.792,-56.8437
 L 283.392,-56.5196 L 282.96,-56.2392 L 282.501,-56.0054 L 282.02,-55.8208 L 281.523,-55.6875 L 281.014,-55.607
 L 280.5,-55.58 z
M 416.486,-55.607 L 415.977,-55.6875 L 415.48,-55.8208 L 414.999,-56.0054 L 414.54,-56.2392 L 414.108,-56.5196
 L 413.708,-56.8437 L 413.344,-57.2079 L 413.02,-57.6081 L 412.739,-58.04 L 412.505,-58.4989 L 412.321,-58.9796
 L 412.188,-59.4771 L 412.107,-59.9857 L 412.08,-60.5 L 412.107,-61.0143 L 412.188,-61.5229 L 412.321,-62.0204
 L 412.505,-62.5011 L 412.739,-62.96 L 413.02,-63.3919 L 413.344,-63.7921 L 413.708,-64.1563 L 414.108,-64.4804
 L 414.45,-64.7024 L 414.45,-74 L 414.506,-74.5302 L 414.67,-75.0372 L 414.937,-75.4988 L 415.294,-75.895
 L 415.725,-76.2084 L 416.212,-76.4252 L 416.733,-76.536 L 417.267,-76.536 L 417.788,-76.4252 L 418.275,-76.2084
 L 418.706,-75.895 L 419.063,-75.4988 L 419.33,-75.0372 L 419.494,-74.5302 L 419.55,-74 L 419.55,-64.7024
 L 419.892,-64.4804 L 420.292,-64.1563 L 420.656,-63.7921 L 420.98,-63.3919 L 421.261,-62.96 L 421.495,-62.5011
 L 421.679,-62.0204 L 421.812,-61.5229 L 421.893,-61.0143 L 421.92,-60.5 L 421.893,-59.9857 L 421.812,-59.4771
 L 421.679,-58.9796 L 421.495,-58.4989 L 421.261,-58.04 L 420.98,-57.6081 L 420.656,-57.2079 L 420.292,-56.8437
 L 419.892,-56.5196 L 419.46,-56.2392 L 419.001,-56.0054 L 418.52,-55.8208 L 418.023,-55.6875 L 417.514,-55.607
 L 417,-55.58 z
M 552.986,-55.607 L 552.477,-55.6875 L 551.98,-55.8208 L 551.499,-56.0054 L 551.04,-56.2392 L 550.608,-56.5196
 L 550.208,-56.8437 L 549.844,-57.2079 L 549.52,-57.6081 L 549.239,-58.04 L 549.005,-58.4989 L 548.821,-58.9796
 L 548.688,-59.4771 L 548.607,-59.9857 L 548.58,-60.5 L 548.607,-61.0143 L 548.688,-61.5229 L 548.821,-62.0204
 L 549.005,-62.5011 L 549.239,-62.96 L 549.52,-63.3919 L 549.844,-63.7921 L 550.208,-64.1563 L 550.608,-64.4804
 L 550.95,-64.7024 L 550.95,-74 L 551.006,-74.5302 L 551.17,-75.0372 L 551.437,-75.4988 L 551.794,-75.895
 L 552.225,-76.2084 L 552.712,-76.4252 L 553.233,-76.536 L 553.767,-76.536 L 554.288,-76.4252 L 554.775,-76.2084
 L 555.206,-75.895 L 555.563,-75.4988 L 555.83,-75.0372 L 555.994,-74.5302 L 556.05,-74 L 556.05,-64.7024
 L 556.392,-64.4804 L 556.792,-64.1563 L 557.156,-63.7921 L 557.48,-63.3919 L 557.761,-62.96 L 557.995,-62.5011
 L 558.179,-62.0204 L 558.312,-61.5229 L 558.393,-61.0143 L 558.42,-60.5 L 558.393,-59.9857 L 558.312,-59.4771
 L 558.179,-58.9796 L 557.995,-58.4989 L 557.761,-58.04 L 557.48,-57.6081 L 557.156,-57.2079 L 556.792,-56.8437
 L 556.392,-56.5196 L 555.96,-56.2392 L 555.501,-56.0054 L 555.02,-55.8208 L 554.523,-55.6875 L 554.014,-55.607
 L 553.5,-55.58 z
M 292.839,-23.0414 L 292.033,-23.2652 L 291.291,-23.6516 L 290.646,-24.1837 L 290.126,-24.8383 L 289.753,-25.5868
 L 289.544,-26.3964 L 289.5,-26.9864 L 289.5,-58 L 289.587,-58.8316 L 289.846,-59.627 L 290.264,-60.3511
 L 290.823,-60.9726 L 291.5,-61.4641 L 292.264,-61.8042 L 293.5,-62 L 355.755,-62 L 356.587,-61.9126
 L 357.382,-61.6542 L 358.106,-61.2361 L 358.728,-60.6765 L 359.219,-60 L 359.56,-59.2361 L 359.733,-58.4181
 L 359.733,-57.5819 L 359.56,-56.7639 L 359.219,-56 L 358.728,-55.3235 L 358.106,-54.7639 L 357.539,-54.4197
 L 295.284,-23.4061 L 294.5,-23.1134 L 293.673,-22.9901 z
M 266.5,-23.1134 L 265.716,-23.4061 L 203.461,-54.4197 L 202.894,-54.7639 L 202.272,-55.3235 L 201.781,-56
 L 201.44,-56.7639 L 201.267,-57.5819 L 201.267,-58.4181 L 201.44,-59.2361 L 201.781,-60 L 202.272,-60.6765
 L 202.894,-61.2361 L 203.618,-61.6542 L 204.413,-61.9126 L 205.245,-62 L 267.5,-62 L 268.736,-61.8042
 L 269.5,-61.4641 L 270.177,-60.9726 L 270.736,-60.3511 L 271.154,-59.627 L 271.413,-58.8316 L 271.5,-58
 L 271.5,-26.9864 L 271.456,-26.3964 L 271.247,-25.5868 L 270.874,-24.8383 L 270.354,-24.1837 L 269.709,-23.6516
 L 268.967,-23.2652 L 268.161,-23.0414 L 267.327,-22.9901 z
M 429.339,-23.0414 L 428.533,-23.2652 L 427.791,-23.6516 L 427.146,-24.1837 L 426.626,-24.8383 L 426.253,-25.5868
 L 426.044,-26.3964 L 426,-26.9864 L 426,-58 L 426.087,-58.8316 L 426.346,-59.627 L 426.764,-60.3511
 L 427.323,-60.9726 L 428,-61.4641 L 428.764,-61.8042 L 430,-62 L 492.255,-62 L 493.087,-61.9126
 L 493.882,-61.6542 L 494.606,-61.2361 L 495.228,-60.6765 L 495.719,-60 L 496.06,-59.2361 L 496.233,-58.4181
 L 496.233,-57.5819 L 496.06,-56.7639 L 495.719,-56 L 495.228,-55.3235 L 494.606,-54.7639 L 494.039,-54.4197
 L 431.784,-23.4061 L 431,-23.1134 L 430.173,-22.9901 z
M 130,-23.1134 L 129.216,-23.4061 L 66.9611,-54.4197 L 66.3936,-54.7639 L 65.7721,-55.3235 L 65.2806,-56
 L 64.9405,-56.7639 L 64.7666,-57.5819 L 64.7666,-58.4181 L 64.9405,-59.2361 L 65.2806,-60 L 65.7721,-60.6765
 L 66.3936,-61.2361 L 67.1178,-61.6542 L 67.9131,-61.9126 L 68.7447,-62 L 131,-62 L 132.236,-61.8042
 L 133,-61.4641 L 133.677,-60.9726 L 134.236,-60.3511 L 134.654,-59.627 L 134.913,-58.8316 L 135,-58
 L 135,-26.9864 L 134.956,-26.3964 L 134.747,-25.5868 L 134.374,-24.8383 L 133.854,-24.1837 L 133.209,-23.6516
 L 132.467,-23.2652 L 131.661,-23.0414 L 130.827,-22.9901 z
M 341.745,-18 L 340.913,-18.0874 L 340.118,-18.3458 L 339.394,-18.7639 L 338.772,-19.3235 L 338.281,-20
 L 337.94,-20.7639 L 337.767,-21.5819 L 337.767,-22.4181 L 337.94,-23.2361 L 338.281,-24 L 338.772,-24.6765
 L 339.394,-25.2361 L 339.961,-25.5803 L 402.216,-56.5939 L 403,-56.8865 L 403.827,-57.0099 L 404.661,-56.9585
 L 405.467,-56.7348 L 406.209,-56.3484 L 406.854,-55.8163 L 407.374,-55.1617 L 407.747,-54.4132 L 407.956,-53.6035
 L 408,-53.0136 L 408,-22 L 407.913,-21.1684 L 407.654,-20.373 L 407.236,-19.6489 L 406.677,-19.0274
 L 406,-18.5359 L 405.236,-18.1958 L 404,-18 z
M 157,-18 L 155.764,-18.1958 L 155,-18.5359 L 154.323,-19.0274 L 153.764,-19.6489 L 153.346,-20.373
 L 153.087,-21.1684 L 153,-22 L 153,-53.0136 L 153.044,-53.6035 L 153.253,-54.4132 L 153.626,-55.1617
 L 154.146,-55.8163 L 154.791,-56.3484 L 155.533,-56.7348 L 156.339,-56.9585 L 157.173,-57.0099 L 158,-56.8865
 L 158.784,-56.5939 L 221.039,-25.5803 L 221.606,-25.2361 L 222.228,-24.6765 L 222.719,-24 L 223.06,-23.2361
 L 223.233,-22.4181 L 223.233,-21.5819 L 223.06,-20.7639 L 222.719,-20 L 222.228,-19.3235 L 221.606,-18.7639
 L 220.882,-18.3458 L 220.087,-18.0874 L 219.255,-18 z
M 22,-18 L 20.7639,-18.1958 L 20,-18.5359 L 19.3235,-19.0274 L 18.7639,-19.6489 L 18.3458,-20.373
 L 18.0874,-21.1684 L 18,-22 L 18,-52.2664 L 18.0437,-52.8563 L 18.2529,-53.6659 L 18.6257,-54.4144
 L 19.1461,-55.069 L 19.7912,-55.6012 L 20.5328,-55.9875 L 21.3385,-56.2113 L 22.1732,-56.2626 L 23.0002,-56.1393
 L 23.7836,-55.8467 L 84.5389,-25.5803 L 85.1064,-25.2361 L 85.7279,-24.6765 L 86.2194,-24 L 86.5595,-23.2361
 L 86.7334,-22.4181 L 86.7334,-21.5819 L 86.5595,-20.7639 L 86.2194,-20 L 85.7279,-19.3235 L 85.1064,-18.7639
 L 84.3822,-18.3458 L 83.5869,-18.0874 L 82.7553,-18 z
M 478.245,-18 L 477.413,-18.0874 L 476.618,-18.3458 L 475.894,-18.7639 L 475.272,-19.3235 L 474.781,-20
 L 474.44,-20.7639 L 474.267,-21.5819 L 474.267,-22.4181 L 474.44,-23.2361 L 474.781,-24 L 475.272,-24.6765
 L 475.894,-25.2361 L 476.461,-25.5803 L 537.216,-55.8467 L 538,-56.1393 L 538.827,-56.2626 L 539.661,-56.2113
 L 540.467,-55.9875 L 541.209,-55.6012 L 541.854,-55.069 L 542.374,-54.4144 L 542.747,-53.6659 L 542.956,-52.8563
 L 543,-52.2664 L 543,-22 L 542.913,-21.1684 L 542.654,-20.373 L 542.236,-19.6489 L 541.677,-19.0274
 L 541,-18.5359 L 540.236,-18.1958 L 539,-18 z
" stroke="black" fill="lightgray" stroke-width="0.5"/>
</svg>
