<?xml version="1.0" standalone="no"?>
<!DOCTYPE svg PUBLIC "-//W3C//DTD SVG 1.1//EN" "http://www.w3.org/Graphics/SVG/1.1/DTD/svg11.dtd">
<svg width="987mm" height="80mm" viewBox="0 -80 987 80" xmlns="http://www.w3.org/2000/svg" version="1.1">
<title>OpenSCAD Model</title>
<path d="
M 987,-80 L 0,-80 L 0,-0 L 4.95,-0 L 4.95,-6 L 5.00572,-6.53017
 L 5.17046,-7.03717 L 5.437,-7.49884 L 5.79372,-7.895 L 6.22499,-8.20836 L 6.71201,-8.42519 L 7.23344,-8.53603
 L 7.76654,-8.53603 L 8.28798,-8.42519 L 8.77499,-8.20836 L 9.20627,-7.895 L 9.56299,-7.49884 L 9.82953,-7.03717
 L 9.99426,-6.53017 L 10.05,-6 L 10.05,-0 L 199.35,-0 L 199.35,-6 L 199.406,-6.53017
 L 199.57,-7.03717 L 199.837,-7.49884 L 200.194,-7.895 L 200.625,-8.20836 L 201.112,-8.42519 L 201.633,-8.53603
 L 202.167,-8.53603 L 202.688,-8.42519 L 203.175,-8.20836 L 203.606,-7.895 L 203.963,-7.49884 L 204.23,-7.03717
 L 204.394,-6.53017 L 204.45,-6 L 204.45,-0 L 393.75,-0 L 393.75,-6 L 393.806,-6.53017
 L 393.97,-7.03717 L 394.237,-7.49884 L 394.594,-7.895 L 395.025,-8.20836 L 395.512,-8.42519 L 396.033,-8.53603
 L 396.567,-8.53603 L 397.088,-8.42519 L 397.575,-8.20836 L 398.006,-7.895 L 398.363,-7.49884 L 398.63,-7.03717
 L 398.794,-6.53017 L 398.85,-6 L 398.85,-0 L 588.15,-0 L 588.15,-6 L 588.206,-6.53017
 L 588.37,-7.03717 L 588.637,-7.49884 L 588.994,-7.895 L 589.425,-8.20836 L 589.912,-8.42519 L 590.433,-8.53603
 L 590.967,-8.53603 L 591.488,-8.42519 L 591.975,-8.20836 L 592.406,-7.895 L 592.763,-7.49884 L 593.03,-7.03717
 L 593.194,-6.53017 L 593.25,-6 L 593.25,-0 L 782.55,-0 L 782.55,-6 L 782.606,-6.53017
 L 782.77,-7.03717 L 783.037,-7.49884 L 783.394,-7.895 L 783.825,-8.20836 L 784.312,-8.42519 L 784.833,-8.53603
 L 785.367,-8.53603 L 785.888,-8.42519 L 786.375,-8.20836 L 786.806,-7.895 L 787.163,-7.49884 L 787.43,-7.03717
 L 787.594,-6.53017 L 787.65,-6 L 787.65,-0 L 976.95,-0 L 976.95,-6 L 977.006,-6.53017
 L 977.17,-7.03717 L 977.437,-7.49884 L 977.794,-7.895 L 978.225,-8.20836 L 978.712,-8.42519 L 979.233,-8.53603
 L 979.767,-8.53603 L 980.288,-8.42519 L 980.775,-8.20836 L 981.206,-7.895 L 981.563,-7.49884 L 981.83,-7.03717
 L 981.994,-6.53017 L 982.05,-6 L 982.05,-0 L 987,-0 z
M 6.98573,-55.607 L 6.47708,-55.6875 L 5.97964,-55.8208 L 5.49887,-56.0054 L 5.04001,-56.2392 L 4.60811,-56.5196
 L 4.20789,-56.8437 L 3.84373,-57.2079 L 3.51964,-57.6081 L 3.23917,-58.04 L 3.00537,-58.4989 L 2.82082,-58.9796
 L 2.68752,-59.4771 L 2.60696,-59.9857 L 2.58,-60.5 L 2.60696,-61.0143 L 2.68752,-61.5229 L 2.82082,-62.0204
 L 3.00537,-62.5011 L 3.23917,-62.96 L 3.51964,-63.3919 L 3.84373,-63.7921 L 4.20789,-64.1563 L 4.60811,-64.4804
 L 4.95001,-64.7024 L 4.95001,-74 L 5.00574,-74.5302 L 5.17047,-75.0372 L 5.43701,-75.4988 L 5.79373,-75.895
 L 6.22501,-76.2084 L 6.71202,-76.4252 L 7.23346,-76.536 L 7.76654,-76.536 L 8.28798,-76.4252 L 8.77499,-76.2084
 L 9.20627,-75.895 L 9.56299,-75.4988 L 9.82953,-75.0372 L 9.99426,-74.5302 L 10.05,-74 L 10.05,-64.7024
 L 10.3919,-64.4804 L 10.7921,-64.1563 L 11.1563,-63.7921 L 11.4804,-63.3919 L 11.7608,-62.96 L 11.9946,-62.5011
 L 12.1792,-62.0204 L 12.3125,-61.5229 L 12.393,-61.0143 L 12.42,-60.5 L 12.393,-59.9857 L 12.3125,-59.4771
 L 12.1792,-58.9796 L 11.9946,-58.4989 L 11.7608,-58.04 L 11.4804,-57.6081 L 11.1563,-57.2079 L 10.7921,-56.8437
 L 10.3919,-56.5196 L 9.95999,-56.2392 L 9.50113,-56.0054 L 9.02036,-55.8208 L 8.52292,-55.6875 L 8.01427,-55.607
 L 7.5,-55.58 z
M 201.386,-55.607 L 200.877,-55.6875 L 200.38,-55.8208 L 199.899,-56.0054 L 199.44,-56.2392 L 199.008,-56.5196
 L 198.608,-56.8437 L 198.244,-57.2079 L 197.92,-57.6081 L 197.639,-58.04 L 197.405,-58.4989 L 197.221,-58.9796
 L 197.088,-59.4771 L 197.007,-59.9857 L 196.98,-60.5 L 197.007,-61.0143 L 197.088,-61.5229 L 197.221,-62.0204
 L 197.405,-62.5011 L 197.639,-62.96 L 197.92,-63.3919 L 198.244,-63.7921 L 198.608,-64.1563 L 199.008,-64.4804
 L 199.35,-64.7024 L 199.35,-74 L 199.406,-74.5302 L 199.57,-75.0372 L 199.837,-75.4988 L 200.194,-75.895
 L 200.625,-76.2084 L 201.112,-76.4252 L 201.633,-76.536 L 202.167,-76.536 L 202.688,-76.4252 L 203.175,-76.2084
 L 203.606,-75.895 L 203.963,-75.4988 L 204.23,-75.0372 L 204.394,-74.5302 L 204.45,-74 L 204.45,-64.7024
 L 204.792,-64.4804 L 205.192,-64.1563 L 205.556,-63.7921 L 205.88,-63.3919 L 206.161,-62.96 L 206.395,-62.5011
 L 206.579,-62.0204 L 206.712,-61.5229 L 206.793,-61.0143 L 206.82,-60.5 L 206.793,-59.9857 L 206.712,-59.4771
 L 206.579,-58.9796 L 206.395,-58.4989 L 206.161,-58.04 L 205.88,-57.6081 L 205.556,-57.2079 L 205.192,-56.8437
 L 204.792,-56.5196 L 204.36,-56.2392 L 203.901,-56.0054 L 203.42,-55.8208 L 202.923,-55.6875 L 202.414,-55.607
 L 201.9,-55.58 z
M 395.786,-55.607 L 395.277,-55.6875 L 394.78,-55.8208 L 394.299,-56.0054 L 393.84,-56.2392 L 393.408,-56.5196
 L 393.008,-56.8437 L 392.644,-57.2079 L 392.32,-57.6081 L 392.039,-58.04 L 391.805,-58.4989 L 391.621,-58.9796
 L 391.488,-59.4771 L 391.407,-59.9857 L 391.38,-60.5 L 391.407,-61.0143 L 391.488,-61.5229 L 391.621,-62.0204
 L 391.805,-62.5011 L 392.039,-62.96 L 392.32,-63.3919 L 392.644,-63.7921 L 393.008,-64.1563 L 393.408,-64.4804
 L 393.75,-64.7024 L 393.75,-74 L 393.806,-74.5302 L 393.97,-75.0372 L 394.237,-75.4988 L 394.594,-75.895
 L 395.025,-76.2084 L 395.512,-76.4252 L 396.033,-76.536 L 396.567,-76.536 L 397.088,-76.4252 L 397.575,-76.2084
 L 398.006,-75.895 L 398.363,-75.4988 L 398.63,-75.0372 L 398.794,-74.5302 L 398.85,-74 L 398.85,-64.7024
 L 399.192,-64.4804 L 399.592,-64.1563 L 399.956,-63.7921 L 400.28,-63.3919 L 400.561,-62.96 L 400.795,-62.5011
 L 400.979,-62.0204 L 401.112,-61.5229 L 401.193,-61.0143 L 401.22,-60.5 L 401.193,-59.9857 L 401.112,-59.4771
 L 400.979,-58.9796 L 400.795,-58.4989 L 400.561,-58.04 L 400.28,-57.6081 L 399.956,-57.2079 L 399.592,-56.8437
 L 399.192,-56.5196 L 398.76,-56.2392 L 398.301,-56.0054 L 397.82,-55.8208 L 397.323,-55.6875 L 396.814,-55.607
 L 396.3,-55.58 z
M 590.186,-55.607 L 589.677,-55.6875 L 589.18,-55.8208 L 588.699,-56.0054 L 588.24,-56.2392 L 587.808,-56.5196
 L 587.408,-56.8437 L 587.044,-57.2079 L 586.72,-57.6081 L 586.439,-58.04 L 586.205,-58.4989 L 586.021,-58.9796
 L 585.888,-59.4771 L 585.807,-59.9857 L 585.78,-60.5 L 585.807,-61.0143 L 585.888,-61.5229 L 586.021,-62.0204
 L 586.205,-62.5011 L 586.439,-62.96 L 586.72,-63.3919 L 587.044,-63.7921 L 587.408,-64.1563 L 587.808,-64.4804
 L 588.15,-64.7024 L 588.15,-74 L 588.206,-74.5302 L 588.37,-75.0372 L 588.637,-75.4988 L 588.994,-75.895
 L 589.425,-76.2084 L 589.912,-76.4252 L 590.433,-76.536 L 590.967,-76.536 L 591.488,-76.4252 L 591.975,-76.2084
 L 592.406,-75.895 L 592.763,-75.4988 L 593.03,-75.0372 L 593.194,-74.5302 L 593.25,-74 L 593.25,-64.7024
 L 593.592,-64.4804 L 593.992,-64.1563 L 594.356,-63.7921 L 594.68,-63.3919 L 594.961,-62.96 L 595.195,-62.5011
 L 595.379,-62.0204 L 595.512,-61.5229 L 595.593,-61.0143 L 595.62,-60.5 L 595.593,-59.9857 L 595.512,-59.4771
 L 595.379,-58.9796 L 595.195,-58.4989 L 594.961,-58.04 L 594.68,-57.6081 L 594.356,-57.2079 L 593.992,-56.8437
 L 593.592,-56.5196 L 593.16,-56.2392 L 592.701,-56.0054 L 592.22,-55.8208 L 591.723,-55.6875 L 591.214,-55.607
 L 590.7,-55.58 z
M 784.586,-55.607 L 784.077,-55.6875 L 783.58,-55.8208 L 783.099,-56.0054 L 782.64,-56.2392 L 782.208,-56.5196
 L 781.808,-56.8437 L 781.444,-57.2079 L 781.12,-57.6081 L 780.839,-58.04 L 780.605,-58.4989 L 780.421,-58.9796
 L 780.288,-59.4771 L 780.207,-59.9857 L 780.18,-60.5 L 780.207,-61.0143 L 780.288,-61.5229 L 780.421,-62.0204
 L 780.605,-62.5011 L 780.839,-62.96 L 781.12,-63.3919 L 781.444,-63.7921 L 781.808,-64.1563 L 782.208,-64.4804
 L 782.55,-64.7024 L 782.55,-74 L 782.606,-74.5302 L 782.77,-75.0372 L 783.037,-75.4988 L 783.394,-75.895
 L 783.825,-76.2084 L 784.312,-76.4252 L 784.833,-76.536 L 785.367,-76.536 L 785.888,-76.4252 L 786.375,-76.2084
 L 786.806,-75.895 L 787.163,-75.4988 L 787.43,-75.0372 L 787.594,-74.5302 L 787.65,-74 L 787.65,-64.7024
 L 787.992,-64.4804 L 788.392,-64.1563 L 788.756,-63.7921 L 789.08,-63.3919 L 789.361,-62.96 L 789.595,-62.5011
 L 789.779,-62.0204 L 789.912,-61.5229 L 789.993,-61.0143 L 790.02,-60.5 L 789.993,-59.9857 L 789.912,-59.4771
 L 789.779,-58.9796 L 789.595,-58.4989 L 789.361,-58.04 L 789.08,-57.6081 L 788.756,-57.2079 L 788.392,-56.8437
 L 787.992,-56.5196 L 787.56,-56.2392 L 787.101,-56.0054 L 786.62,-55.8208 L 786.123,-55.6875 L 785.614,-55.607
 L 785.1,-55.58 z
M 978.986,-55.607 L 978.477,-55.6875 L 977.98,-55.8208 L 977.499,-56.0054 L 977.04,-56.2392 L 976.608,-56.5196
 L 976.208,-56.8437 L 975.844,-57.2079 L 975.52,-57.6081 L 975.239,-58.04 L 975.005,-58.4989 L 974.821,-58.9796
 L 974.688,-59.4771 L 974.607,-59.9857 L 974.58,-60.5 L 974.607,-61.0143 L 974.688,-61.5229 L 974.821,-62.0204
 L 975.005,-62.5011 L 975.239,-62.96 L 975.52,-63.3919 L 975.844,-63.7921 L 976.208,-64.1563 L 976.608,-64.4804
 L 976.95,-64.7024 L 976.95,-74 L 977.006,-74.5302 L 977.17,-75.0372 L 977.437,-75.4988 L 977.794,-75.895
 L 978.225,-76.2084 L 978.712,-76.4252 L 979.233,-76.536 L 979.767,-76.536 L 980.288,-76.4252 L 980.775,-76.2084
 L 981.206,-75.895 L 981.563,-75.4988 L 981.83,-75.0372 L 981.994,-74.5302 L 982.05,-74 L 982.05,-64.7024
 L 982.392,-64.4804 L 982.792,-64.1563 L 983.156,-63.7921 L 983.48,-63.3919 L 983.761,-62.96 L 983.995,-62.5011
 L 984.179,-62.0204 L 984.312,-61.5229 L 984.393,-61.0143 L 984.42,-60.5 L 984.393,-59.9857 L 984.312,-59.4771
 L 984.179,-58.9796 L 983.995,-58.4989 L 983.761,-58.04 L 983.48,-57.6081 L 983.156,-57.2079 L 982.792,-56.8437
 L 982.392,-56.5196 L 981.96,-56.2392 L 981.501,-56.0054 L 981.02,-55.8208 L 980.523,-55.6875 L 980.014,-55.607
 L 979.5,-55.58 z
M 492.993,-47.6829 L 492.179,-47.8749 L 474.028,-54.2243 L 472.997,-54.7639 L 472.376,-55.3235 L 471.884,-56
 L 471.544,-56.7639 L 471.37,-57.5819 L 471.37,-58.4181 L 471.544,-59.2361 L 471.884,-60 L 472.376,-60.6765
 L 472.997,-61.2361 L 473.721,-61.6542 L 474.517,-61.9126 L 475.348,-62 L 511.652,-62 L 512.803,-61.8309
 L 513.574,-61.5079 L 514.261,-61.0316 L 514.834,-60.4228 L 515.269,-59.7081 L 515.545,-58.9188 L 515.651,-58.0893
 L 515.582,-57.2559 L 515.341,-56.4551 L 514.939,-55.7217 L 514.394,-55.0879 L 513.729,-54.5814 L 512.972,-54.2243
 L 494.821,-47.8749 L 493.829,-47.6642 z
M 382.793,-20.3485 L 381.979,-20.5406 L 285.683,-54.2243 L 284.653,-54.7639 L 284.032,-55.3235 L 283.54,-56
 L 283.2,-56.7639 L 283.026,-57.5819 L 283.026,-58.4181 L 283.2,-59.2361 L 283.54,-60 L 284.032,-60.6765
 L 284.653,-61.2361 L 285.377,-61.6542 L 286.172,-61.9126 L 287.004,-62 L 383.3,-62 L 384.536,-61.8042
 L 385.3,-61.4641 L 385.977,-60.9726 L 386.536,-60.3511 L 386.954,-59.627 L 387.213,-58.8316 L 387.3,-58
 L 387.3,-24.3163 L 387.193,-23.3974 L 386.917,-22.6081 L 386.483,-21.8934 L 385.909,-21.2847 L 385.222,-20.8083
 L 384.451,-20.4854 L 383.629,-20.3298 z
M 796.949,-20.4854 L 796.178,-20.8083 L 795.491,-21.2847 L 794.917,-21.8934 L 794.483,-22.6081 L 794.207,-23.3974
 L 794.1,-24.3163 L 794.1,-58 L 794.187,-58.8316 L 794.446,-59.627 L 794.864,-60.3511 L 795.423,-60.9726
 L 796.1,-61.4641 L 796.864,-61.8042 L 798.1,-62 L 894.396,-62 L 895.228,-61.9126 L 896.023,-61.6542
 L 896.747,-61.2361 L 897.368,-60.6765 L 897.86,-60 L 898.2,-59.2361 L 898.374,-58.4181 L 898.374,-57.5819
 L 898.2,-56.7639 L 897.86,-56 L 897.368,-55.3235 L 896.747,-54.7639 L 895.717,-54.2243 L 799.421,-20.5406
 L 798.607,-20.3485 L 797.771,-20.3298 z
M 188.393,-20.3485 L 187.579,-20.5406 L 91.2834,-54.2243 L 90.253,-54.7639 L 89.6315,-55.3235 L 89.14,-56
 L 88.7999,-56.7639 L 88.626,-57.5819 L 88.626,-58.4181 L 88.7999,-59.2361 L 89.14,-60 L 89.6315,-60.6765
 L 90.253,-61.2361 L 90.9771,-61.6542 L 91.7724,-61.9126 L 92.6041,-62 L 188.9,-62 L 190.136,-61.8042
 L 190.9,-61.4641 L 191.577,-60.9726 L 192.136,-60.3511 L 192.554,-59.627 L 192.813,-58.8316 L 192.9,-58
 L 192.9,-24.3163 L 192.793,-23.3974 L 192.517,-22.6081 L 192.083,-21.8934 L 191.509,-21.2847 L 190.822,-20.8083
 L 190.051,-20.4854 L 189.229,-20.3298 z
M 602.549,-20.4854 L 601.778,-20.8083 L 601.091,-21.2847 L 600.517,-21.8934 L 600.083,-22.6081 L 599.807,-23.3974
 L 599.7,-24.3163 L 599.7,-58 L 599.787,-58.8316 L 600.046,-59.627 L 600.464,-60.3511 L 601.023,-60.9726
 L 601.7,-61.4641 L 602.464,-61.8042 L 603.7,-62 L 699.996,-62 L 700.828,-61.9126 L 701.623,-61.6542
 L 702.347,-61.2361 L 702.968,-60.6765 L 703.46,-60 L 703.8,-59.2361 L 703.974,-58.4181 L 703.974,-57.5819
 L 703.8,-56.7639 L 703.46,-56 L 702.968,-55.3235 L 702.347,-54.7639 L 701.317,-54.2243 L 605.021,-20.5406
 L 604.207,-20.3485 L 603.371,-20.3298 z
M 408.882,-18.2199 L 408.064,-18.3937 L 407.3,-18.7339 L 406.623,-19.2254 L 406.064,-19.8468 L 405.646,-20.571
 L 405.387,-21.3663 L 405.3,-22.198 L 405.3,-57.802 L 405.407,-58.7208 L 405.683,-59.5102 L 406.117,-60.2249
 L 406.691,-60.8336 L 407.378,-61.3099 L 408.149,-61.6329 L 408.971,-61.7885 L 409.807,-61.7698 L 410.621,-61.5777
 L 461.514,-43.7757 L 462.115,-43.5079 L 462.802,-43.0316 L 463.376,-42.4228 L 463.81,-41.7081 L 464.086,-40.9188
 L 464.192,-40.0893 L 464.123,-39.2559 L 463.882,-38.4551 L 463.481,-37.7217 L 462.935,-37.0879 L 462.27,-36.5814
 L 461.514,-36.2243 L 410.621,-18.4223 L 409.718,-18.2199 z
M 577.193,-18.2302 L 576.379,-18.4223 L 525.486,-36.2243 L 524.885,-36.4921 L 524.198,-36.9684 L 523.624,-37.5772
 L 523.19,-38.2919 L 522.914,-39.0812 L 522.808,-39.9107 L 522.877,-40.7441 L 523.117,-41.5449 L 523.519,-42.2783
 L 524.065,-42.9121 L 524.73,-43.4186 L 525.486,-43.7757 L 576.379,-61.5777 L 577.282,-61.7801 L 578.118,-61.7801
 L 578.936,-61.6063 L 579.7,-61.2661 L 580.377,-60.7746 L 580.936,-60.1532 L 581.354,-59.429 L 581.613,-58.6337
 L 581.7,-57.802 L 581.7,-22.198 L 581.593,-21.2791 L 581.317,-20.4898 L 580.883,-19.7751 L 580.309,-19.1664
 L 579.622,-18.69 L 578.851,-18.3671 L 578.029,-18.2115 z
M 214.9,-18 L 213.664,-18.1958 L 212.9,-18.5359 L 212.223,-19.0274 L 211.664,-19.6489 L 211.246,-20.373
 L 210.987,-21.1684 L 210.9,-22 L 210.9,-55.6837 L 211.007,-56.6026 L 211.283,-57.3919 L 211.717,-58.1066
 L 212.291,-58.7153 L 212.978,-59.1917 L 213.749,-59.5146 L 214.571,-59.6702 L 215.407,-59.6515 L 216.221,-59.4594
 L 312.517,-25.7757 L 313.547,-25.2361 L 314.168,-24.6765 L 314.66,-24 L 315,-23.2361 L 315.174,-22.4181
 L 315.174,-21.5819 L 315,-20.7639 L 314.66,-20 L 314.168,-19.3235 L 313.547,-18.7639 L 312.823,-18.3458
 L 312.028,-18.0874 L 311.196,-18 z
M 675.804,-18 L 674.972,-18.0874 L 674.177,-18.3458 L 673.453,-18.7639 L 672.832,-19.3235 L 672.34,-20
 L 672,-20.7639 L 671.826,-21.5819 L 671.826,-22.4181 L 672,-23.2361 L 672.34,-24 L 672.832,-24.6765
 L 673.453,-25.2361 L 674.483,-25.7757 L 770.779,-59.4594 L 771.593,-59.6515 L 772.429,-59.6702 L 773.251,-59.5146
 L 774.022,-59.1917 L 774.709,-58.7153 L 775.283,-58.1066 L 775.717,-57.3919 L 775.993,-56.6026 L 776.1,-55.6837
 L 776.1,-22 L 776.013,-21.1684 L 775.754,-20.373 L 775.336,-19.6489 L 774.777,-19.0274 L 774.1,-18.5359
 L 773.336,-18.1958 L 772.1,-18 z
M 22,-18 L 20.7639,-18.1958 L 20,-18.5359 L 19.3235,-19.0274 L 18.7639,-19.6489 L 18.3458,-20.373
 L 18.0874,-21.1684 L 18,-22 L 18,-55.159 L 18.1069,-56.0779 L 18.3831,-56.8672 L 18.8172,-57.5819
 L 19.3905,-58.1906 L 20.0779,-58.6669 L 20.8492,-58.9899 L 21.6708,-59.1455 L 22.5068,-59.1268 L 23.3207,-58.9347
 L 118.117,-25.7757 L 119.147,-25.2361 L 119.768,-24.6765 L 120.26,-24 L 120.6,-23.2361 L 120.774,-22.4181
 L 120.774,-21.5819 L 120.6,-20.7639 L 120.26,-20 L 119.768,-19.3235 L 119.147,-18.7639 L 118.423,-18.3458
 L 117.628,-18.0874 L 116.796,-18 z
M 870.204,-18 L 869.372,-18.0874 L 868.577,-18.3458 L 867.853,-18.7639 L 867.232,-19.3235 L 866.74,-20
 L 866.4,-20.7639 L 866.226,-21.5819 L 866.226,-22.4181 L 866.4,-23.2361 L 866.74,-24 L 867.232,-24.6765
 L 867.853,-25.2361 L 868.883,-25.7757 L 963.679,-58.9347 L 964.493,-59.1268 L 965.329,-59.1455 L 966.151,-58.9899
 L 966.922,-58.6669 L 967.609,-58.1906 L 968.183,-57.5819 L 968.617,-56.8672 L 968.893,-56.0779 L 969,-55.159
 L 969,-22 L 968.913,-21.1684 L 968.654,-20.373 L 968.236,-19.6489 L 967.677,-19.0274 L 967,-18.5359
 L 966.236,-18.1958 L 965,-18 z
M 475.348,-18 L 474.197,-18.1691 L 473.426,-18.4921 L 472.739,-18.9684 L 472.165,-19.5772 L 471.731,-20.2919
 L 471.455,-21.0812 L 471.349,-21.9107 L 471.418,-22.7441 L 471.659,-23.5449 L 472.06,-24.2783 L 472.606,-24.9121
 L 473.271,-25.4186 L 474.028,-25.7757 L 492.179,-32.1251 L 493.171,-32.3358 L 494.007,-32.3171 L 494.821,-32.1251
 L 512.972,-25.7757 L 514.003,-25.2361 L 514.624,-24.6765 L 515.116,-24 L 515.456,-23.2361 L 515.63,-22.4181
 L 515.63,-21.5819 L 515.456,-20.7639 L 515.116,-20 L 514.624,-19.3235 L 514.003,-18.7639 L 513.279,-18.3458
 L 512.483,-18.0874 L 511.652,-18 z
" stroke="black" fill="lightgray" stroke-width="0.5"/>
</svg>
