<?xml version="1.0" standalone="no"?>
<!DOCTYPE svg PUBLIC "-//W3C//DTD SVG 1.1//EN" "http://www.w3.org/Graphics/SVG/1.1/DTD/svg11.dtd">
<svg width="899mm" height="80mm" viewBox="0 -80 899 80" xmlns="http://www.w3.org/2000/svg" version="1.1">
<title>OpenSCAD Model</title>
<path d="
M 899,-80 L 0,-80 L 0,-0 L 4.95,-0 L 4.95,-6 L 5.00572,-6.53017
 L 5.17046,-7.03717 L 5.437,-7.49884 L 5.79372,-7.895 L 6.22499,-8.20836 L 6.71201,-8.42519 L 7.23344,-8.53603
 L 7.76654,-8.53603 L 8.28798,-8.42519 L 8.77499,-8.20836 L 9.20627,-7.895 L 9.56299,-7.49884 L 9.82953,-7.03717
 L 9.99426,-6.53017 L 10.05,-6 L 10.05,-0 L 181.75,-0 L 181.75,-6 L 181.806,-6.53017
 L 181.97,-7.03717 L 182.237,-7.49884 L 182.594,-7.895 L 183.025,-8.20836 L 183.512,-8.42519 L 184.033,-8.53603
 L 184.567,-8.53603 L 185.088,-8.42519 L 185.575,-8.20836 L 186.006,-7.895 L 186.363,-7.49884 L 186.63,-7.03717
 L 186.794,-6.53017 L 186.85,-6 L 186.85,-0 L 358.55,-0 L 358.55,-6 L 358.606,-6.53017
 L 358.77,-7.03717 L 359.037,-7.49884 L 359.394,-7.895 L 359.825,-8.20836 L 360.312,-8.42519 L 360.833,-8.53603
 L 361.367,-8.53603 L 361.888,-8.42519 L 362.375,-8.20836 L 362.806,-7.895 L 363.163,-7.49884 L 363.43,-7.03717
 L 363.594,-6.53017 L 363.65,-6 L 363.65,-0 L 535.35,-0 L 535.35,-6 L 535.406,-6.53017
 L 535.57,-7.03717 L 535.837,-7.49884 L 536.194,-7.895 L 536.625,-8.20836 L 537.112,-8.42519 L 537.633,-8.53603
 L 538.167,-8.53603 L 538.688,-8.42519 L 539.175,-8.20836 L 539.606,-7.895 L 539.963,-7.49884 L 540.23,-7.03717
 L 540.394,-6.53017 L 540.45,-6 L 540.45,-0 L 712.15,-0 L 712.15,-6 L 712.206,-6.53017
 L 712.37,-7.03717 L 712.637,-7.49884 L 712.994,-7.895 L 713.425,-8.20836 L 713.912,-8.42519 L 714.433,-8.53603
 L 714.967,-8.53603 L 715.488,-8.42519 L 715.975,-8.20836 L 716.406,-7.895 L 716.763,-7.49884 L 717.03,-7.03717
 L 717.194,-6.53017 L 717.25,-6 L 717.25,-0 L 888.95,-0 L 888.95,-6 L 889.006,-6.53017
 L 889.17,-7.03717 L 889.437,-7.49884 L 889.794,-7.895 L 890.225,-8.20836 L 890.712,-8.42519 L 891.233,-8.53603
 L 891.767,-8.53603 L 892.288,-8.42519 L 892.775,-8.20836 L 893.206,-7.895 L 893.563,-7.49884 L 893.83,-7.03717
 L 893.994,-6.53017 L 894.05,-6 L 894.05,-0 L 899,-0 z
M 6.98573,-55.607 L 6.47708,-55.6875 L 5.97964,-55.8208 L 5.49887,-56.0054 L 5.04001,-56.2392 L 4.60811,-56.5196
 L 4.20789,-56.8437 L 3.84373,-57.2079 L 3.51964,-57.6081 L 3.23917,-58.04 L 3.00537,-58.4989 L 2.82082,-58.9796
 L 2.68752,-59.4771 L 2.60696,-59.9857 L 2.58,-60.5 L 2.60696,-61.0143 L 2.68752,-61.5229 L 2.82082,-62.0204
 L 3.00537,-62.5011 L 3.23917,-62.96 L 3.51964,-63.3919 L 3.84373,-63.7921 L 4.20789,-64.1563 L 4.60811,-64.4804
 L 4.95001,-64.7024 L 4.95001,-74 L 5.00574,-74.5302 L 5.17047,-75.0372 L 5.43701,-75.4988 L 5.79373,-75.895
 L 6.22501,-76.2084 L 6.71202,-76.4252 L 7.23346,-76.536 L 7.76654,-76.536 L 8.28798,-76.4252 L 8.77499,-76.2084
 L 9.20627,-75.895 L 9.56299,-75.4988 L 9.82953,-75.0372 L 9.99426,-74.5302 L 10.05,-74 L 10.05,-64.7024
 L 10.3919,-64.4804 L 10.7921,-64.1563 L 11.1563,-63.7921 L 11.4804,-63.3919 L 11.7608,-62.96 L 11.9946,-62.5011
 L 12.1792,-62.0204 L 12.3125,-61.5229 L 12.393,-61.0143 L 12.42,-60.5 L 12.393,-59.9857 L 12.3125,-59.4771
 L 12.1792,-58.9796 L 11.9946,-58.4989 L 11.7608,-58.04 L 11.4804,-57.6081 L 11.1563,-57.2079 L 10.7921,-56.8437
 L 10.3919,-56.5196 L 9.95999,-56.2392 L 9.50113,-56.0054 L 9.02036,-55.8208 L 8.52292,-55.6875 L 8.01427,-55.607
 L 7.5,-55.58 z
M 183.786,-55.607 L 183.277,-55.6875 L 182.78,-55.8208 L 182.299,-56.0054 L 181.84,-56.2392 L 181.408,-56.5196
 L 181.008,-56.8437 L 180.644,-57.2079 L 180.32,-57.6081 L 180.039,-58.04 L 179.805,-58.4989 L 179.621,-58.9796
 L 179.488,-59.4771 L 179.407,-59.9857 L 179.38,-60.5 L 179.407,-61.0143 L 179.488,-61.5229 L 179.621,-62.0204
 L 179.805,-62.5011 L 180.039,-62.96 L 180.32,-63.3919 L 180.644,-63.7921 L 181.008,-64.1563 L 181.408,-64.4804
 L 181.75,-64.7024 L 181.75,-74 L 181.806,-74.5302 L 181.97,-75.0372 L 182.237,-75.4988 L 182.594,-75.895
 L 183.025,-76.2084 L 183.512,-76.4252 L 184.033,-76.536 L 184.567,-76.536 L 185.088,-76.4252 L 185.575,-76.2084
 L 186.006,-75.895 L 186.363,-75.4988 L 186.63,-75.0372 L 186.794,-74.5302 L 186.85,-74 L 186.85,-64.7024
 L 187.192,-64.4804 L 187.592,-64.1563 L 187.956,-63.7921 L 188.28,-63.3919 L 188.561,-62.96 L 188.795,-62.5011
 L 188.979,-62.0204 L 189.112,-61.5229 L 189.193,-61.0143 L 189.22,-60.5 L 189.193,-59.9857 L 189.112,-59.4771
 L 188.979,-58.9796 L 188.795,-58.4989 L 188.561,-58.04 L 188.28,-57.6081 L 187.956,-57.2079 L 187.592,-56.8437
 L 187.192,-56.5196 L 186.76,-56.2392 L 186.301,-56.0054 L 185.82,-55.8208 L 185.323,-55.6875 L 184.814,-55.607
 L 184.3,-55.58 z
M 360.586,-55.607 L 360.077,-55.6875 L 359.58,-55.8208 L 359.099,-56.0054 L 358.64,-56.2392 L 358.208,-56.5196
 L 357.808,-56.8437 L 357.444,-57.2079 L 357.12,-57.6081 L 356.839,-58.04 L 356.605,-58.4989 L 356.421,-58.9796
 L 356.288,-59.4771 L 356.207,-59.9857 L 356.18,-60.5 L 356.207,-61.0143 L 356.288,-61.5229 L 356.421,-62.0204
 L 356.605,-62.5011 L 356.839,-62.96 L 357.12,-63.3919 L 357.444,-63.7921 L 357.808,-64.1563 L 358.208,-64.4804
 L 358.55,-64.7024 L 358.55,-74 L 358.606,-74.5302 L 358.77,-75.0372 L 359.037,-75.4988 L 359.394,-75.895
 L 359.825,-76.2084 L 360.312,-76.4252 L 360.833,-76.536 L 361.367,-76.536 L 361.888,-76.4252 L 362.375,-76.2084
 L 362.806,-75.895 L 363.163,-75.4988 L 363.43,-75.0372 L 363.594,-74.5302 L 363.65,-74 L 363.65,-64.7024
 L 363.992,-64.4804 L 364.392,-64.1563 L 364.756,-63.7921 L 365.08,-63.3919 L 365.361,-62.96 L 365.595,-62.5011
 L 365.779,-62.0204 L 365.912,-61.5229 L 365.993,-61.0143 L 366.02,-60.5 L 365.993,-59.9857 L 365.912,-59.4771
 L 365.779,-58.9796 L 365.595,-58.4989 L 365.361,-58.04 L 365.08,-57.6081 L 364.756,-57.2079 L 364.392,-56.8437
 L 363.992,-56.5196 L 363.56,-56.2392 L 363.101,-56.0054 L 362.62,-55.8208 L 362.123,-55.6875 L 361.614,-55.607
 L 361.1,-55.58 z
M 537.386,-55.607 L 536.877,-55.6875 L 536.38,-55.8208 L 535.899,-56.0054 L 535.44,-56.2392 L 535.008,-56.5196
 L 534.608,-56.8437 L 534.244,-57.2079 L 533.92,-57.6081 L 533.639,-58.04 L 533.405,-58.4989 L 533.221,-58.9796
 L 533.088,-59.4771 L 533.007,-59.9857 L 532.98,-60.5 L 533.007,-61.0143 L 533.088,-61.5229 L 533.221,-62.0204
 L 533.405,-62.5011 L 533.639,-62.96 L 533.92,-63.3919 L 534.244,-63.7921 L 534.608,-64.1563 L 535.008,-64.4804
 L 535.35,-64.7024 L 535.35,-74 L 535.406,-74.5302 L 535.57,-75.0372 L 535.837,-75.4988 L 536.194,-75.895
 L 536.625,-76.2084 L 537.112,-76.4252 L 537.633,-76.536 L 538.167,-76.536 L 538.688,-76.4252 L 539.175,-76.2084
 L 539.606,-75.895 L 539.963,-75.4988 L 540.23,-75.0372 L 540.394,-74.5302 L 540.45,-74 L 540.45,-64.7024
 L 540.792,-64.4804 L 541.192,-64.1563 L 541.556,-63.7921 L 541.88,-63.3919 L 542.161,-62.96 L 542.395,-62.5011
 L 542.579,-62.0204 L 542.712,-61.5229 L 542.793,-61.0143 L 542.82,-60.5 L 542.793,-59.9857 L 542.712,-59.4771
 L 542.579,-58.9796 L 542.395,-58.4989 L 542.161,-58.04 L 541.88,-57.6081 L 541.556,-57.2079 L 541.192,-56.8437
 L 540.792,-56.5196 L 540.36,-56.2392 L 539.901,-56.0054 L 539.42,-55.8208 L 538.923,-55.6875 L 538.414,-55.607
 L 537.9,-55.58 z
M 714.186,-55.607 L 713.677,-55.6875 L 713.18,-55.8208 L 712.699,-56.0054 L 712.24,-56.2392 L 711.808,-56.5196
 L 711.408,-56.8437 L 711.044,-57.2079 L 710.72,-57.6081 L 710.439,-58.04 L 710.205,-58.4989 L 710.021,-58.9796
 L 709.888,-59.4771 L 709.807,-59.9857 L 709.78,-60.5 L 709.807,-61.0143 L 709.888,-61.5229 L 710.021,-62.0204
 L 710.205,-62.5011 L 710.439,-62.96 L 710.72,-63.3919 L 711.044,-63.7921 L 711.408,-64.1563 L 711.808,-64.4804
 L 712.15,-64.7024 L 712.15,-74 L 712.206,-74.5302 L 712.37,-75.0372 L 712.637,-75.4988 L 712.994,-75.895
 L 713.425,-76.2084 L 713.912,-76.4252 L 714.433,-76.536 L 714.967,-76.536 L 715.488,-76.4252 L 715.975,-76.2084
 L 716.406,-75.895 L 716.763,-75.4988 L 717.03,-75.0372 L 717.194,-74.5302 L 717.25,-74 L 717.25,-64.7024
 L 717.592,-64.4804 L 717.992,-64.1563 L 718.356,-63.7921 L 718.68,-63.3919 L 718.961,-62.96 L 719.195,-62.5011
 L 719.379,-62.0204 L 719.512,-61.5229 L 719.593,-61.0143 L 719.62,-60.5 L 719.593,-59.9857 L 719.512,-59.4771
 L 719.379,-58.9796 L 719.195,-58.4989 L 718.961,-58.04 L 718.68,-57.6081 L 718.356,-57.2079 L 717.992,-56.8437
 L 717.592,-56.5196 L 717.16,-56.2392 L 716.701,-56.0054 L 716.22,-55.8208 L 715.723,-55.6875 L 715.214,-55.607
 L 714.7,-55.58 z
M 890.986,-55.607 L 890.477,-55.6875 L 889.98,-55.8208 L 889.499,-56.0054 L 889.04,-56.2392 L 888.608,-56.5196
 L 888.208,-56.8437 L 887.844,-57.2079 L 887.52,-57.6081 L 887.239,-58.04 L 887.005,-58.4989 L 886.821,-58.9796
 L 886.688,-59.4771 L 886.607,-59.9857 L 886.58,-60.5 L 886.607,-61.0143 L 886.688,-61.5229 L 886.821,-62.0204
 L 887.005,-62.5011 L 887.239,-62.96 L 887.52,-63.3919 L 887.844,-63.7921 L 888.208,-64.1563 L 888.608,-64.4804
 L 888.95,-64.7024 L 888.95,-74 L 889.006,-74.5302 L 889.17,-75.0372 L 889.437,-75.4988 L 889.794,-75.895
 L 890.225,-76.2084 L 890.712,-76.4252 L 891.233,-76.536 L 891.767,-76.536 L 892.288,-76.4252 L 892.775,-76.2084
 L 893.206,-75.895 L 893.563,-75.4988 L 893.83,-75.0372 L 893.994,-74.5302 L 894.05,-74 L 894.05,-64.7024
 L 894.392,-64.4804 L 894.792,-64.1563 L 895.156,-63.7921 L 895.48,-63.3919 L 895.761,-62.96 L 895.995,-62.5011
 L 896.179,-62.0204 L 896.312,-61.5229 L 896.393,-61.0143 L 896.42,-60.5 L 896.393,-59.9857 L 896.312,-59.4771
 L 896.179,-58.9796 L 895.995,-58.4989 L 895.761,-58.04 L 895.48,-57.6081 L 895.156,-57.2079 L 894.792,-56.8437
 L 894.392,-56.5196 L 893.96,-56.2392 L 893.501,-56.0054 L 893.02,-55.8208 L 892.523,-55.6875 L 892.014,-55.607
 L 891.5,-55.58 z
M 448.872,-47.8195 L 448.064,-48.0364 L 431.866,-54.2666 L 430.95,-54.7639 L 430.329,-55.3235 L 429.837,-56
 L 429.497,-56.7639 L 429.323,-57.5819 L 429.323,-58.4181 L 429.497,-59.2361 L 429.837,-60 L 430.329,-60.6765
 L 430.95,-61.2361 L 431.675,-61.6542 L 432.47,-61.9126 L 433.301,-62 L 465.698,-62 L 466.731,-61.8644
 L 467.512,-61.5652 L 468.214,-61.1102 L 468.805,-60.5193 L 469.261,-59.8183 L 469.561,-59.0378 L 469.693,-58.212
 L 469.65,-57.3768 L 469.434,-56.569 L 469.055,-55.8236 L 468.529,-55.1734 L 467.879,-54.6467 L 467.134,-54.2666
 L 450.936,-48.0364 L 450.533,-47.9054 L 449.707,-47.7751 z
M 347.472,-20.9594 L 346.664,-21.1764 L 260.629,-54.2666 L 259.714,-54.7639 L 259.093,-55.3235 L 258.601,-56
 L 258.261,-56.7639 L 258.087,-57.5819 L 258.087,-58.4181 L 258.261,-59.2361 L 258.601,-60 L 259.093,-60.6765
 L 259.714,-61.2361 L 260.438,-61.6542 L 261.234,-61.9126 L 262.065,-62 L 348.1,-62 L 349.336,-61.8042
 L 350.1,-61.4641 L 350.777,-60.9726 L 351.336,-60.3511 L 351.754,-59.627 L 352.013,-58.8316 L 352.1,-58
 L 352.1,-24.9098 L 351.963,-23.872 L 351.663,-23.0915 L 351.207,-22.3905 L 350.615,-21.7995 L 349.914,-21.3446
 L 349.133,-21.0454 L 348.307,-20.9151 z
M 726.667,-21.0454 L 725.886,-21.3446 L 725.185,-21.7995 L 724.593,-22.3905 L 724.137,-23.0915 L 723.837,-23.872
 L 723.7,-24.9098 L 723.7,-58 L 723.787,-58.8316 L 724.046,-59.627 L 724.464,-60.3511 L 725.023,-60.9726
 L 725.7,-61.4641 L 726.464,-61.8042 L 727.7,-62 L 813.735,-62 L 814.566,-61.9126 L 815.362,-61.6542
 L 816.086,-61.2361 L 816.707,-60.6765 L 817.199,-60 L 817.539,-59.2361 L 817.713,-58.4181 L 817.713,-57.5819
 L 817.539,-56.7639 L 817.199,-56 L 816.707,-55.3235 L 816.086,-54.7639 L 815.171,-54.2666 L 729.136,-21.1764
 L 728.328,-20.9594 L 727.493,-20.9151 z
M 170.672,-20.9594 L 169.864,-21.1764 L 83.8295,-54.2666 L 82.9142,-54.7639 L 82.2928,-55.3235 L 81.8013,-56
 L 81.4612,-56.7639 L 81.2873,-57.5819 L 81.2873,-58.4181 L 81.4612,-59.2361 L 81.8013,-60 L 82.2928,-60.6765
 L 82.9142,-61.2361 L 83.6384,-61.6542 L 84.4337,-61.9126 L 85.2654,-62 L 171.3,-62 L 172.536,-61.8042
 L 173.3,-61.4641 L 173.977,-60.9726 L 174.536,-60.3511 L 174.954,-59.627 L 175.213,-58.8316 L 175.3,-58
 L 175.3,-24.9098 L 175.163,-23.872 L 174.863,-23.0915 L 174.407,-22.3905 L 173.815,-21.7995 L 173.114,-21.3446
 L 172.333,-21.0454 L 171.507,-20.9151 z
M 549.867,-21.0454 L 549.086,-21.3446 L 548.385,-21.7995 L 547.793,-22.3905 L 547.337,-23.0915 L 547.037,-23.872
 L 546.9,-24.9098 L 546.9,-58 L 546.987,-58.8316 L 547.246,-59.627 L 547.664,-60.3511 L 548.223,-60.9726
 L 548.9,-61.4641 L 549.664,-61.8042 L 550.9,-62 L 636.935,-62 L 637.766,-61.9126 L 638.562,-61.6542
 L 639.286,-61.2361 L 639.907,-60.6765 L 640.399,-60 L 640.739,-59.2361 L 640.913,-58.4181 L 640.913,-57.5819
 L 640.739,-56.7639 L 640.399,-56 L 639.907,-55.3235 L 639.286,-54.7639 L 638.371,-54.2666 L 552.336,-21.1764
 L 551.528,-20.9594 L 550.693,-20.9151 z
M 373.682,-18.7917 L 372.864,-18.9656 L 372.1,-19.3057 L 371.423,-19.7972 L 370.864,-20.4187 L 370.446,-21.1429
 L 370.187,-21.9382 L 370.1,-22.7698 L 370.1,-57.2302 L 370.237,-58.268 L 370.537,-59.0485 L 370.993,-59.7495
 L 371.585,-60.3404 L 372.286,-60.7954 L 373.067,-61.0946 L 373.893,-61.2248 L 374.728,-61.1805 L 375.536,-60.9636
 L 420.334,-43.7334 L 421.414,-43.1102 L 422.005,-42.5193 L 422.461,-41.8183 L 422.761,-41.0378 L 422.893,-40.212
 L 422.85,-39.3768 L 422.634,-38.569 L 422.255,-37.8236 L 421.729,-37.1734 L 421.079,-36.6467 L 420.334,-36.2666
 L 375.536,-19.0364 L 374.518,-18.7917 z
M 524.272,-18.8195 L 523.464,-19.0364 L 478.666,-36.2666 L 477.586,-36.8898 L 476.995,-37.4807 L 476.539,-38.1817
 L 476.238,-38.9622 L 476.107,-39.788 L 476.15,-40.6232 L 476.366,-41.431 L 476.745,-42.1764 L 477.271,-42.8266
 L 477.921,-43.3533 L 478.666,-43.7334 L 523.464,-60.9636 L 524.482,-61.2083 L 525.318,-61.2083 L 526.136,-61.0344
 L 526.9,-60.6943 L 527.577,-60.2028 L 528.136,-59.5813 L 528.554,-58.8571 L 528.813,-58.0618 L 528.9,-57.2302
 L 528.9,-22.7698 L 528.763,-21.732 L 528.463,-20.9515 L 528.007,-20.2505 L 527.415,-19.6596 L 526.714,-19.2046
 L 525.933,-18.9054 L 525.107,-18.7751 z
M 197.3,-18 L 196.064,-18.1958 L 195.3,-18.5359 L 194.623,-19.0274 L 194.064,-19.6489 L 193.646,-20.373
 L 193.387,-21.1684 L 193.3,-22 L 193.3,-55.0902 L 193.437,-56.128 L 193.737,-56.9085 L 194.193,-57.6095
 L 194.785,-58.2005 L 195.486,-58.6554 L 196.267,-58.9546 L 197.093,-59.0849 L 197.928,-59.0406 L 198.736,-58.8236
 L 284.77,-25.7334 L 285.686,-25.2361 L 286.307,-24.6765 L 286.799,-24 L 287.139,-23.2361 L 287.313,-22.4181
 L 287.313,-21.5819 L 287.139,-20.7639 L 286.799,-20 L 286.307,-19.3235 L 285.686,-18.7639 L 284.962,-18.3458
 L 284.166,-18.0874 L 283.335,-18 z
M 615.665,-18 L 614.834,-18.0874 L 614.038,-18.3458 L 613.314,-18.7639 L 612.693,-19.3235 L 612.201,-20
 L 611.861,-20.7639 L 611.687,-21.5819 L 611.687,-22.4181 L 611.861,-23.2361 L 612.201,-24 L 612.693,-24.6765
 L 613.314,-25.2361 L 614.229,-25.7334 L 700.264,-58.8236 L 701.072,-59.0406 L 701.907,-59.0849 L 702.733,-58.9546
 L 703.514,-58.6554 L 704.215,-58.2005 L 704.807,-57.6095 L 705.263,-56.9085 L 705.563,-56.128 L 705.7,-55.0902
 L 705.7,-22 L 705.613,-21.1684 L 705.354,-20.373 L 704.936,-19.6489 L 704.377,-19.0274 L 703.7,-18.5359
 L 702.936,-18.1958 L 701.7,-18 z
M 22,-18 L 20.7639,-18.1958 L 20,-18.5359 L 19.3235,-19.0274 L 18.7639,-19.6489 L 18.3458,-20.373
 L 18.0874,-21.1684 L 18,-22 L 18,-54.5133 L 18.137,-55.5511 L 18.4372,-56.3316 L 18.8931,-57.0326
 L 19.4848,-57.6235 L 20.1864,-58.0785 L 20.9673,-58.3777 L 21.7933,-58.508 L 22.6283,-58.4637 L 23.4359,-58.2467
 L 107.971,-25.7334 L 108.886,-25.2361 L 109.507,-24.6765 L 109.999,-24 L 110.339,-23.2361 L 110.513,-22.4181
 L 110.513,-21.5819 L 110.339,-20.7639 L 109.999,-20 L 109.507,-19.3235 L 108.886,-18.7639 L 108.162,-18.3458
 L 107.366,-18.0874 L 106.535,-18 z
M 792.465,-18 L 791.634,-18.0874 L 790.838,-18.3458 L 790.114,-18.7639 L 789.493,-19.3235 L 789.001,-20
 L 788.661,-20.7639 L 788.487,-21.5819 L 788.487,-22.4181 L 788.661,-23.2361 L 789.001,-24 L 789.493,-24.6765
 L 790.114,-25.2361 L 791.029,-25.7334 L 875.564,-58.2467 L 876.372,-58.4637 L 877.207,-58.508 L 878.033,-58.3777
 L 878.814,-58.0785 L 879.515,-57.6235 L 880.107,-57.0326 L 880.563,-56.3316 L 880.863,-55.5511 L 881,-54.5133
 L 881,-22 L 880.913,-21.1684 L 880.654,-20.373 L 880.236,-19.6489 L 879.677,-19.0274 L 879,-18.5359
 L 878.236,-18.1958 L 877,-18 z
M 433.301,-18 L 432.269,-18.1356 L 431.488,-18.4348 L 430.786,-18.8898 L 430.195,-19.4807 L 429.739,-20.1817
 L 429.438,-20.9622 L 429.307,-21.788 L 429.35,-22.6232 L 429.566,-23.431 L 429.945,-24.1764 L 430.471,-24.8266
 L 431.121,-25.3533 L 431.866,-25.7334 L 448.064,-31.9636 L 448.467,-32.0946 L 449.293,-32.2249 L 450.128,-32.1805
 L 450.936,-31.9636 L 467.134,-25.7334 L 468.05,-25.2361 L 468.671,-24.6765 L 469.163,-24 L 469.503,-23.2361
 L 469.677,-22.4181 L 469.677,-21.5819 L 469.503,-20.7639 L 469.163,-20 L 468.671,-19.3235 L 468.05,-18.7639
 L 467.325,-18.3458 L 466.53,-18.0874 L 465.698,-18 z
" stroke="black" fill="lightgray" stroke-width="0.5"/>
</svg>
