<?xml version="1.0" standalone="no"?>
<!DOCTYPE svg PUBLIC "-//W3C//DTD SVG 1.1//EN" "http://www.w3.org/Graphics/SVG/1.1/DTD/svg11.dtd">
<svg width="742mm" height="80mm" viewBox="0 -80 742 80" xmlns="http://www.w3.org/2000/svg" version="1.1">
<title>OpenSCAD Model</title>
<path d="
M 742,-80 L 0,-80 L 0,-0 L 4.95,-0 L 4.95,-6 L 5.00572,-6.53017
 L 5.17046,-7.03717 L 5.437,-7.49884 L 5.79372,-7.895 L 6.22499,-8.20836 L 6.71201,-8.42519 L 7.23344,-8.53603
 L 7.76654,-8.53603 L 8.28798,-8.42519 L 8.77499,-8.20836 L 9.20627,-7.895 L 9.56299,-7.49884 L 9.82953,-7.03717
 L 9.99426,-6.53017 L 10.05,-6 L 10.05,-0 L 150.35,-0 L 150.35,-6 L 150.406,-6.53017
 L 150.57,-7.03717 L 150.837,-7.49884 L 151.194,-7.895 L 151.625,-8.20836 L 152.112,-8.42519 L 152.633,-8.53603
 L 153.167,-8.53603 L 153.688,-8.42519 L 154.175,-8.20836 L 154.606,-7.895 L 154.963,-7.49884 L 155.23,-7.03717
 L 155.394,-6.53017 L 155.45,-6 L 155.45,-0 L 295.75,-0 L 295.75,-6 L 295.806,-6.53017
 L 295.97,-7.03717 L 296.237,-7.49884 L 296.594,-7.895 L 297.025,-8.20836 L 297.512,-8.42519 L 298.033,-8.53603
 L 298.567,-8.53603 L 299.088,-8.42519 L 299.575,-8.20836 L 300.006,-7.895 L 300.363,-7.49884 L 300.63,-7.03717
 L 300.794,-6.53017 L 300.85,-6 L 300.85,-0 L 441.15,-0 L 441.15,-6 L 441.206,-6.53017
 L 441.37,-7.03717 L 441.637,-7.49884 L 441.994,-7.895 L 442.425,-8.20836 L 442.912,-8.42519 L 443.433,-8.53603
 L 443.967,-8.53603 L 444.488,-8.42519 L 444.975,-8.20836 L 445.406,-7.895 L 445.763,-7.49884 L 446.03,-7.03717
 L 446.194,-6.53017 L 446.25,-6 L 446.25,-0 L 586.55,-0 L 586.55,-6 L 586.606,-6.53017
 L 586.77,-7.03717 L 587.037,-7.49884 L 587.394,-7.895 L 587.825,-8.20836 L 588.312,-8.42519 L 588.833,-8.53603
 L 589.367,-8.53603 L 589.888,-8.42519 L 590.375,-8.20836 L 590.806,-7.895 L 591.163,-7.49884 L 591.43,-7.03717
 L 591.594,-6.53017 L 591.65,-6 L 591.65,-0 L 731.95,-0 L 731.95,-6 L 732.006,-6.53017
 L 732.17,-7.03717 L 732.437,-7.49884 L 732.794,-7.895 L 733.225,-8.20836 L 733.712,-8.42519 L 734.233,-8.53603
 L 734.767,-8.53603 L 735.288,-8.42519 L 735.775,-8.20836 L 736.206,-7.895 L 736.563,-7.49884 L 736.83,-7.03717
 L 736.994,-6.53017 L 737.05,-6 L 737.05,-0 L 742,-0 z
M 6.98573,-55.607 L 6.47708,-55.6875 L 5.97964,-55.8208 L 5.49887,-56.0054 L 5.04001,-56.2392 L 4.60811,-56.5196
 L 4.20789,-56.8437 L 3.84373,-57.2079 L 3.51964,-57.6081 L 3.23917,-58.04 L 3.00537,-58.4989 L 2.82082,-58.9796
 L 2.68752,-59.4771 L 2.60696,-59.9857 L 2.58,-60.5 L 2.60696,-61.0143 L 2.68752,-61.5229 L 2.82082,-62.0204
 L 3.00537,-62.5011 L 3.23917,-62.96 L 3.51964,-63.3919 L 3.84373,-63.7921 L 4.20789,-64.1563 L 4.60811,-64.4804
 L 4.95001,-64.7024 L 4.95001,-74 L 5.00574,-74.5302 L 5.17047,-75.0372 L 5.43701,-75.4988 L 5.79373,-75.895
 L 6.22501,-76.2084 L 6.71202,-76.4252 L 7.23346,-76.536 L 7.76654,-76.536 L 8.28798,-76.4252 L 8.77499,-76.2084
 L 9.20627,-75.895 L 9.56299,-75.4988 L 9.82953,-75.0372 L 9.99426,-74.5302 L 10.05,-74 L 10.05,-64.7024
 L 10.3919,-64.4804 L 10.7921,-64.1563 L 11.1563,-63.7921 L 11.4804,-63.3919 L 11.7608,-62.96 L 11.9946,-62.5011
 L 12.1792,-62.0204 L 12.3125,-61.5229 L 12.393,-61.0143 L 12.42,-60.5 L 12.393,-59.9857 L 12.3125,-59.4771
 L 12.1792,-58.9796 L 11.9946,-58.4989 L 11.7608,-58.04 L 11.4804,-57.6081 L 11.1563,-57.2079 L 10.7921,-56.8437
 L 10.3919,-56.5196 L 9.95999,-56.2392 L 9.50113,-56.0054 L 9.02036,-55.8208 L 8.52292,-55.6875 L 8.01427,-55.607
 L 7.5,-55.58 z
M 152.386,-55.607 L 151.877,-55.6875 L 151.38,-55.8208 L 150.899,-56.0054 L 150.44,-56.2392 L 150.008,-56.5196
 L 149.608,-56.8437 L 149.244,-57.2079 L 148.92,-57.6081 L 148.639,-58.04 L 148.405,-58.4989 L 148.221,-58.9796
 L 148.088,-59.4771 L 148.007,-59.9857 L 147.98,-60.5 L 148.007,-61.0143 L 148.088,-61.5229 L 148.221,-62.0204
 L 148.405,-62.5011 L 148.639,-62.96 L 148.92,-63.3919 L 149.244,-63.7921 L 149.608,-64.1563 L 150.008,-64.4804
 L 150.35,-64.7024 L 150.35,-74 L 150.406,-74.5302 L 150.57,-75.0372 L 150.837,-75.4988 L 151.194,-75.895
 L 151.625,-76.2084 L 152.112,-76.4252 L 152.633,-76.536 L 153.167,-76.536 L 153.688,-76.4252 L 154.175,-76.2084
 L 154.606,-75.895 L 154.963,-75.4988 L 155.23,-75.0372 L 155.394,-74.5302 L 155.45,-74 L 155.45,-64.7024
 L 155.792,-64.4804 L 156.192,-64.1563 L 156.556,-63.7921 L 156.88,-63.3919 L 157.161,-62.96 L 157.395,-62.5011
 L 157.579,-62.0204 L 157.712,-61.5229 L 157.793,-61.0143 L 157.82,-60.5 L 157.793,-59.9857 L 157.712,-59.4771
 L 157.579,-58.9796 L 157.395,-58.4989 L 157.161,-58.04 L 156.88,-57.6081 L 156.556,-57.2079 L 156.192,-56.8437
 L 155.792,-56.5196 L 155.36,-56.2392 L 154.901,-56.0054 L 154.42,-55.8208 L 153.923,-55.6875 L 153.414,-55.607
 L 152.9,-55.58 z
M 297.786,-55.607 L 297.277,-55.6875 L 296.78,-55.8208 L 296.299,-56.0054 L 295.84,-56.2392 L 295.408,-56.5196
 L 295.008,-56.8437 L 294.644,-57.2079 L 294.32,-57.6081 L 294.039,-58.04 L 293.805,-58.4989 L 293.621,-58.9796
 L 293.488,-59.4771 L 293.407,-59.9857 L 293.38,-60.5 L 293.407,-61.0143 L 293.488,-61.5229 L 293.621,-62.0204
 L 293.805,-62.5011 L 294.039,-62.96 L 294.32,-63.3919 L 294.644,-63.7921 L 295.008,-64.1563 L 295.408,-64.4804
 L 295.75,-64.7024 L 295.75,-74 L 295.806,-74.5302 L 295.97,-75.0372 L 296.237,-75.4988 L 296.594,-75.895
 L 297.025,-76.2084 L 297.512,-76.4252 L 298.033,-76.536 L 298.567,-76.536 L 299.088,-76.4252 L 299.575,-76.2084
 L 300.006,-75.895 L 300.363,-75.4988 L 300.63,-75.0372 L 300.794,-74.5302 L 300.85,-74 L 300.85,-64.7024
 L 301.192,-64.4804 L 301.592,-64.1563 L 301.956,-63.7921 L 302.28,-63.3919 L 302.561,-62.96 L 302.795,-62.5011
 L 302.979,-62.0204 L 303.112,-61.5229 L 303.193,-61.0143 L 303.22,-60.5 L 303.193,-59.9857 L 303.112,-59.4771
 L 302.979,-58.9796 L 302.795,-58.4989 L 302.561,-58.04 L 302.28,-57.6081 L 301.956,-57.2079 L 301.592,-56.8437
 L 301.192,-56.5196 L 300.76,-56.2392 L 300.301,-56.0054 L 299.82,-55.8208 L 299.323,-55.6875 L 298.814,-55.607
 L 298.3,-55.58 z
M 443.186,-55.607 L 442.677,-55.6875 L 442.18,-55.8208 L 441.699,-56.0054 L 441.24,-56.2392 L 440.808,-56.5196
 L 440.408,-56.8437 L 440.044,-57.2079 L 439.72,-57.6081 L 439.439,-58.04 L 439.205,-58.4989 L 439.021,-58.9796
 L 438.888,-59.4771 L 438.807,-59.9857 L 438.78,-60.5 L 438.807,-61.0143 L 438.888,-61.5229 L 439.021,-62.0204
 L 439.205,-62.5011 L 439.439,-62.96 L 439.72,-63.3919 L 440.044,-63.7921 L 440.408,-64.1563 L 440.808,-64.4804
 L 441.15,-64.7024 L 441.15,-74 L 441.206,-74.5302 L 441.37,-75.0372 L 441.637,-75.4988 L 441.994,-75.895
 L 442.425,-76.2084 L 442.912,-76.4252 L 443.433,-76.536 L 443.967,-76.536 L 444.488,-76.4252 L 444.975,-76.2084
 L 445.406,-75.895 L 445.763,-75.4988 L 446.03,-75.0372 L 446.194,-74.5302 L 446.25,-74 L 446.25,-64.7024
 L 446.592,-64.4804 L 446.992,-64.1563 L 447.356,-63.7921 L 447.68,-63.3919 L 447.961,-62.96 L 448.195,-62.5011
 L 448.379,-62.0204 L 448.512,-61.5229 L 448.593,-61.0143 L 448.62,-60.5 L 448.593,-59.9857 L 448.512,-59.4771
 L 448.379,-58.9796 L 448.195,-58.4989 L 447.961,-58.04 L 447.68,-57.6081 L 447.356,-57.2079 L 446.992,-56.8437
 L 446.592,-56.5196 L 446.16,-56.2392 L 445.701,-56.0054 L 445.22,-55.8208 L 444.723,-55.6875 L 444.214,-55.607
 L 443.7,-55.58 z
M 588.586,-55.607 L 588.077,-55.6875 L 587.58,-55.8208 L 587.099,-56.0054 L 586.64,-56.2392 L 586.208,-56.5196
 L 585.808,-56.8437 L 585.444,-57.2079 L 585.12,-57.6081 L 584.839,-58.04 L 584.605,-58.4989 L 584.421,-58.9796
 L 584.288,-59.4771 L 584.207,-59.9857 L 584.18,-60.5 L 584.207,-61.0143 L 584.288,-61.5229 L 584.421,-62.0204
 L 584.605,-62.5011 L 584.839,-62.96 L 585.12,-63.3919 L 585.444,-63.7921 L 585.808,-64.1563 L 586.208,-64.4804
 L 586.55,-64.7024 L 586.55,-74 L 586.606,-74.5302 L 586.77,-75.0372 L 587.037,-75.4988 L 587.394,-75.895
 L 587.825,-76.2084 L 588.312,-76.4252 L 588.833,-76.536 L 589.367,-76.536 L 589.888,-76.4252 L 590.375,-76.2084
 L 590.806,-75.895 L 591.163,-75.4988 L 591.43,-75.0372 L 591.594,-74.5302 L 591.65,-74 L 591.65,-64.7024
 L 591.992,-64.4804 L 592.392,-64.1563 L 592.756,-63.7921 L 593.08,-63.3919 L 593.361,-62.96 L 593.595,-62.5011
 L 593.779,-62.0204 L 593.912,-61.5229 L 593.993,-61.0143 L 594.02,-60.5 L 593.993,-59.9857 L 593.912,-59.4771
 L 593.779,-58.9796 L 593.595,-58.4989 L 593.361,-58.04 L 593.08,-57.6081 L 592.756,-57.2079 L 592.392,-56.8437
 L 591.992,-56.5196 L 591.56,-56.2392 L 591.101,-56.0054 L 590.62,-55.8208 L 590.123,-55.6875 L 589.614,-55.607
 L 589.1,-55.58 z
M 733.986,-55.607 L 733.477,-55.6875 L 732.98,-55.8208 L 732.499,-56.0054 L 732.04,-56.2392 L 731.608,-56.5196
 L 731.208,-56.8437 L 730.844,-57.2079 L 730.52,-57.6081 L 730.239,-58.04 L 730.005,-58.4989 L 729.821,-58.9796
 L 729.688,-59.4771 L 729.607,-59.9857 L 729.58,-60.5 L 729.607,-61.0143 L 729.688,-61.5229 L 729.821,-62.0204
 L 730.005,-62.5011 L 730.239,-62.96 L 730.52,-63.3919 L 730.844,-63.7921 L 731.208,-64.1563 L 731.608,-64.4804
 L 731.95,-64.7024 L 731.95,-74 L 732.006,-74.5302 L 732.17,-75.0372 L 732.437,-75.4988 L 732.794,-75.895
 L 733.225,-76.2084 L 733.712,-76.4252 L 734.233,-76.536 L 734.767,-76.536 L 735.288,-76.4252 L 735.775,-76.2084
 L 736.206,-75.895 L 736.563,-75.4988 L 736.83,-75.0372 L 736.994,-74.5302 L 737.05,-74 L 737.05,-64.7024
 L 737.392,-64.4804 L 737.792,-64.1563 L 738.156,-63.7921 L 738.48,-63.3919 L 738.761,-62.96 L 738.995,-62.5011
 L 739.179,-62.0204 L 739.312,-61.5229 L 739.393,-61.0143 L 739.42,-60.5 L 739.393,-59.9857 L 739.312,-59.4771
 L 739.179,-58.9796 L 738.995,-58.4989 L 738.761,-58.04 L 738.48,-57.6081 L 738.156,-57.2079 L 737.792,-56.8437
 L 737.392,-56.5196 L 736.96,-56.2392 L 736.501,-56.0054 L 736.02,-55.8208 L 735.523,-55.6875 L 735.014,-55.607
 L 734.5,-55.58 z
M 370.096,-48.2449 L 369.305,-48.5181 L 356.778,-54.3767 L 356.122,-54.7639 L 355.5,-55.3235 L 355.009,-56
 L 354.669,-56.7639 L 354.495,-57.5819 L 354.495,-58.4181 L 354.669,-59.2361 L 355.009,-60 L 355.5,-60.6765
 L 356.122,-61.2361 L 356.846,-61.6542 L 357.641,-61.9126 L 358.473,-62 L 383.527,-62 L 384.286,-61.9274
 L 385.086,-61.6838 L 385.818,-61.2792 L 386.449,-60.7313 L 386.953,-60.064 L 387.308,-59.3065 L 387.497,-58.4919
 L 387.512,-57.6559 L 387.354,-56.8348 L 387.028,-56.0647 L 386.549,-55.3792 L 385.938,-54.8082 L 385.222,-54.3767
 L 372.695,-48.5181 L 371.759,-48.2141 L 370.926,-48.1421 z
M 284.396,-22.5323 L 283.605,-22.8054 L 216.099,-54.3767 L 215.442,-54.7639 L 214.821,-55.3235 L 214.329,-56
 L 213.989,-56.7639 L 213.815,-57.5819 L 213.815,-58.4181 L 213.989,-59.2361 L 214.329,-60 L 214.821,-60.6765
 L 215.442,-61.2361 L 216.166,-61.6542 L 216.962,-61.9126 L 217.793,-62 L 285.3,-62 L 286.536,-61.8042
 L 287.3,-61.4641 L 287.977,-60.9726 L 288.536,-60.3511 L 288.954,-59.627 L 289.213,-58.8316 L 289.3,-58
 L 289.3,-26.4287 L 289.27,-25.9368 L 289.081,-25.1222 L 288.726,-24.3647 L 288.222,-23.6975 L 287.591,-23.1496
 L 286.859,-22.745 L 286.059,-22.5014 L 285.226,-22.4294 z
M 601.341,-22.5014 L 600.541,-22.745 L 599.809,-23.1496 L 599.178,-23.6975 L 598.674,-24.3647 L 598.319,-25.1222
 L 598.13,-25.9368 L 598.1,-26.4287 L 598.1,-58 L 598.187,-58.8316 L 598.446,-59.627 L 598.864,-60.3511
 L 599.423,-60.9726 L 600.1,-61.4641 L 600.864,-61.8042 L 602.1,-62 L 669.607,-62 L 670.438,-61.9126
 L 671.234,-61.6542 L 671.958,-61.2361 L 672.579,-60.6765 L 673.071,-60 L 673.411,-59.2361 L 673.585,-58.4181
 L 673.585,-57.5819 L 673.411,-56.7639 L 673.071,-56 L 672.579,-55.3235 L 671.958,-54.7639 L 671.301,-54.3767
 L 603.795,-22.8054 L 603.004,-22.5323 L 602.174,-22.4294 z
M 138.996,-22.5323 L 138.205,-22.8054 L 70.6987,-54.3767 L 70.0421,-54.7639 L 69.4206,-55.3235 L 68.9291,-56
 L 68.589,-56.7639 L 68.4151,-57.5819 L 68.4151,-58.4181 L 68.589,-59.2361 L 68.9291,-60 L 69.4206,-60.6765
 L 70.0421,-61.2361 L 70.7663,-61.6542 L 71.5616,-61.9126 L 72.3932,-62 L 139.9,-62 L 141.136,-61.8042
 L 141.9,-61.4641 L 142.577,-60.9726 L 143.136,-60.3511 L 143.554,-59.627 L 143.813,-58.8316 L 143.9,-58
 L 143.9,-26.4287 L 143.87,-25.9368 L 143.681,-25.1222 L 143.326,-24.3647 L 142.822,-23.6975 L 142.191,-23.1496
 L 141.459,-22.745 L 140.659,-22.5014 L 139.826,-22.4294 z
M 455.941,-22.5014 L 455.141,-22.745 L 454.409,-23.1496 L 453.778,-23.6975 L 453.274,-24.3647 L 452.919,-25.1222
 L 452.73,-25.9368 L 452.7,-26.4287 L 452.7,-58 L 452.787,-58.8316 L 453.046,-59.627 L 453.464,-60.3511
 L 454.023,-60.9726 L 454.7,-61.4641 L 455.464,-61.8042 L 456.7,-62 L 524.207,-62 L 525.038,-61.9126
 L 525.834,-61.6542 L 526.558,-61.2361 L 527.179,-60.6765 L 527.671,-60 L 528.011,-59.2361 L 528.185,-58.4181
 L 528.185,-57.5819 L 528.011,-56.7639 L 527.671,-56 L 527.179,-55.3235 L 526.558,-54.7639 L 525.901,-54.3767
 L 458.395,-22.8054 L 457.604,-22.5323 L 456.774,-22.4294 z
M 310.882,-20.2431 L 310.064,-20.417 L 309.3,-20.7571 L 308.623,-21.2486 L 308.064,-21.8701 L 307.646,-22.5943
 L 307.387,-23.3896 L 307.3,-24.2212 L 307.3,-55.7788 L 307.33,-56.2707 L 307.519,-57.0853 L 307.874,-57.8428
 L 308.378,-58.5101 L 309.009,-59.058 L 309.741,-59.4626 L 310.541,-59.7062 L 311.374,-59.7781 L 312.204,-59.6753
 L 312.995,-59.4021 L 346.733,-43.6233 L 347.329,-43.2792 L 347.961,-42.7313 L 348.465,-42.064 L 348.819,-41.3065
 L 349.008,-40.4919 L 349.024,-39.6559 L 348.865,-38.8348 L 348.539,-38.0647 L 348.061,-37.3792 L 347.45,-36.8082
 L 346.733,-36.3767 L 312.995,-20.5979 L 312.536,-20.417 L 311.718,-20.2431 z
M 429.796,-20.3247 L 429.005,-20.5979 L 395.267,-36.3767 L 394.671,-36.7208 L 394.039,-37.2687 L 393.535,-37.936
 L 393.181,-38.6935 L 392.992,-39.5081 L 392.976,-40.3441 L 393.135,-41.1652 L 393.461,-41.9353 L 393.939,-42.6208
 L 394.55,-43.1918 L 395.267,-43.6233 L 429.005,-59.4021 L 429.464,-59.583 L 430.282,-59.7569 L 431.118,-59.7569
 L 431.936,-59.583 L 432.7,-59.2429 L 433.377,-58.7514 L 433.936,-58.1299 L 434.354,-57.4057 L 434.613,-56.6104
 L 434.7,-55.7788 L 434.7,-24.2212 L 434.67,-23.7293 L 434.481,-22.9147 L 434.126,-22.1572 L 433.622,-21.4899
 L 432.991,-20.942 L 432.259,-20.5374 L 431.459,-20.2938 L 430.626,-20.2219 z
M 165.9,-18 L 164.664,-18.1958 L 163.9,-18.5359 L 163.223,-19.0274 L 162.664,-19.6489 L 162.246,-20.373
 L 161.987,-21.1684 L 161.9,-22 L 161.9,-53.5713 L 161.93,-54.0632 L 162.119,-54.8778 L 162.474,-55.6353
 L 162.978,-56.3025 L 163.609,-56.8504 L 164.341,-57.255 L 165.141,-57.4986 L 165.974,-57.5706 L 166.804,-57.4677
 L 167.595,-57.1946 L 235.101,-25.6233 L 235.758,-25.2361 L 236.379,-24.6765 L 236.871,-24 L 237.211,-23.2361
 L 237.385,-22.4181 L 237.385,-21.5819 L 237.211,-20.7639 L 236.871,-20 L 236.379,-19.3235 L 235.758,-18.7639
 L 235.034,-18.3458 L 234.238,-18.0874 L 233.407,-18 z
M 508.593,-18 L 507.762,-18.0874 L 506.966,-18.3458 L 506.242,-18.7639 L 505.621,-19.3235 L 505.129,-20
 L 504.789,-20.7639 L 504.615,-21.5819 L 504.615,-22.4181 L 504.789,-23.2361 L 505.129,-24 L 505.621,-24.6765
 L 506.242,-25.2361 L 506.899,-25.6233 L 574.405,-57.1946 L 575.196,-57.4677 L 576.026,-57.5706 L 576.859,-57.4986
 L 577.659,-57.255 L 578.391,-56.8504 L 579.022,-56.3025 L 579.526,-55.6353 L 579.881,-54.8778 L 580.07,-54.0632
 L 580.1,-53.5713 L 580.1,-22 L 580.013,-21.1684 L 579.754,-20.373 L 579.336,-19.6489 L 578.777,-19.0274
 L 578.1,-18.5359 L 577.336,-18.1958 L 576.1,-18 z
M 22,-18 L 20.7639,-18.1958 L 20,-18.5359 L 19.3235,-19.0274 L 18.7639,-19.6489 L 18.3458,-20.373
 L 18.0874,-21.1684 L 18,-22 L 18,-52.8698 L 18.0304,-53.3617 L 18.2194,-54.1763 L 18.5736,-54.9337
 L 19.0777,-55.601 L 19.7094,-56.1489 L 20.4412,-56.5535 L 21.2412,-56.7971 L 22.0743,-56.8691 L 22.9042,-56.7662
 L 23.6945,-56.4931 L 89.7013,-25.6233 L 90.3579,-25.2361 L 90.9794,-24.6765 L 91.4709,-24 L 91.811,-23.2361
 L 91.9849,-22.4181 L 91.9849,-21.5819 L 91.811,-20.7639 L 91.4709,-20 L 90.9794,-19.3235 L 90.3579,-18.7639
 L 89.6337,-18.3458 L 88.8384,-18.0874 L 88.0068,-18 z
M 653.993,-18 L 653.162,-18.0874 L 652.366,-18.3458 L 651.642,-18.7639 L 651.021,-19.3235 L 650.529,-20
 L 650.189,-20.7639 L 650.015,-21.5819 L 650.015,-22.4181 L 650.189,-23.2361 L 650.529,-24 L 651.021,-24.6765
 L 651.642,-25.2361 L 652.299,-25.6233 L 718.305,-56.4931 L 719.096,-56.7662 L 719.926,-56.8691 L 720.759,-56.7971
 L 721.559,-56.5535 L 722.291,-56.1489 L 722.922,-55.601 L 723.426,-54.9337 L 723.781,-54.1763 L 723.97,-53.3617
 L 724,-52.8698 L 724,-22 L 723.913,-21.1684 L 723.654,-20.373 L 723.236,-19.6489 L 722.677,-19.0274
 L 722,-18.5359 L 721.236,-18.1958 L 720,-18 z
M 358.473,-18 L 357.714,-18.0726 L 356.914,-18.3162 L 356.182,-18.7208 L 355.551,-19.2687 L 355.047,-19.936
 L 354.692,-20.6935 L 354.503,-21.5081 L 354.488,-22.3441 L 354.646,-23.1652 L 354.972,-23.9353 L 355.451,-24.6208
 L 356.062,-25.1918 L 356.778,-25.6233 L 369.305,-31.4819 L 370.241,-31.7859 L 371.074,-31.8579 L 371.904,-31.7551
 L 372.695,-31.4819 L 385.222,-25.6233 L 385.878,-25.2361 L 386.5,-24.6765 L 386.991,-24 L 387.331,-23.2361
 L 387.505,-22.4181 L 387.505,-21.5819 L 387.331,-20.7639 L 386.991,-20 L 386.5,-19.3235 L 385.878,-18.7639
 L 385.154,-18.3458 L 384.359,-18.0874 L 383.527,-18 z
" stroke="black" fill="lightgray" stroke-width="0.5"/>
</svg>
