<?xml version="1.0" standalone="no"?>
<!DOCTYPE svg PUBLIC "-//W3C//DTD SVG 1.1//EN" "http://www.w3.org/Graphics/SVG/1.1/DTD/svg11.dtd">
<svg width="536mm" height="80mm" viewBox="0 -80 536 80" xmlns="http://www.w3.org/2000/svg" version="1.1">
<title>OpenSCAD Model</title>
<path d="
M 536,-80 L 0,-80 L 0,-0 L 4.95,-0 L 4.95,-6 L 5.00572,-6.53017
 L 5.17046,-7.03717 L 5.437,-7.49884 L 5.79372,-7.895 L 6.22499,-8.20836 L 6.71201,-8.42519 L 7.23344,-8.53603
 L 7.76654,-8.53603 L 8.28798,-8.42519 L 8.77499,-8.20836 L 9.20627,-7.895 L 9.56299,-7.49884 L 9.82953,-7.03717
 L 9.99426,-6.53017 L 10.05,-6 L 10.05,-0 L 135.2,-0 L 135.2,-6 L 135.256,-6.53017
 L 135.42,-7.03717 L 135.687,-7.49884 L 136.044,-7.895 L 136.475,-8.20836 L 136.962,-8.42519 L 137.483,-8.53603
 L 138.017,-8.53603 L 138.538,-8.42519 L 139.025,-8.20836 L 139.456,-7.895 L 139.813,-7.49884 L 140.08,-7.03717
 L 140.244,-6.53017 L 140.3,-6 L 140.3,-0 L 265.45,-0 L 265.45,-6 L 265.506,-6.53017
 L 265.67,-7.03717 L 265.937,-7.49884 L 266.294,-7.895 L 266.725,-8.20836 L 267.212,-8.42519 L 267.733,-8.53603
 L 268.267,-8.53603 L 268.788,-8.42519 L 269.275,-8.20836 L 269.706,-7.895 L 270.063,-7.49884 L 270.33,-7.03717
 L 270.494,-6.53017 L 270.55,-6 L 270.55,-0 L 395.7,-0 L 395.7,-6 L 395.756,-6.53017
 L 395.92,-7.03717 L 396.187,-7.49884 L 396.544,-7.895 L 396.975,-8.20836 L 397.462,-8.42519 L 397.983,-8.53603
 L 398.517,-8.53603 L 399.038,-8.42519 L 399.525,-8.20836 L 399.956,-7.895 L 400.313,-7.49884 L 400.58,-7.03717
 L 400.744,-6.53017 L 400.8,-6 L 400.8,-0 L 525.95,-0 L 525.95,-6 L 526.006,-6.53017
 L 526.17,-7.03717 L 526.437,-7.49884 L 526.794,-7.895 L 527.225,-8.20836 L 527.712,-8.42519 L 528.233,-8.53603
 L 528.767,-8.53603 L 529.288,-8.42519 L 529.775,-8.20836 L 530.206,-7.895 L 530.563,-7.49884 L 530.83,-7.03717
 L 530.994,-6.53017 L 531.05,-6 L 531.05,-0 L 536,-0 z
M 6.98573,-55.607 L 6.47708,-55.6875 L 5.97964,-55.8208 L 5.49887,-56.0054 L 5.04001,-56.2392 L 4.60811,-56.5196
 L 4.20789,-56.8437 L 3.84373,-57.2079 L 3.51964,-57.6081 L 3.23917,-58.04 L 3.00537,-58.4989 L 2.82082,-58.9796
 L 2.68752,-59.4771 L 2.60696,-59.9857 L 2.58,-60.5 L 2.60696,-61.0143 L 2.68752,-61.5229 L 2.82082,-62.0204
 L 3.00537,-62.5011 L 3.23917,-62.96 L 3.51964,-63.3919 L 3.84373,-63.7921 L 4.20789,-64.1563 L 4.60811,-64.4804
 L 4.95001,-64.7024 L 4.95001,-74 L 5.00574,-74.5302 L 5.17047,-75.0372 L 5.43701,-75.4988 L 5.79373,-75.895
 L 6.22501,-76.2084 L 6.71202,-76.4252 L 7.23346,-76.536 L 7.76654,-76.536 L 8.28798,-76.4252 L 8.77499,-76.2084
 L 9.20627,-75.895 L 9.56299,-75.4988 L 9.82953,-75.0372 L 9.99426,-74.5302 L 10.05,-74 L 10.05,-64.7024
 L 10.3919,-64.4804 L 10.7921,-64.1563 L 11.1563,-63.7921 L 11.4804,-63.3919 L 11.7608,-62.96 L 11.9946,-62.5011
 L 12.1792,-62.0204 L 12.3125,-61.5229 L 12.393,-61.0143 L 12.42,-60.5 L 12.393,-59.9857 L 12.3125,-59.4771
 L 12.1792,-58.9796 L 11.9946,-58.4989 L 11.7608,-58.04 L 11.4804,-57.6081 L 11.1563,-57.2079 L 10.7921,-56.8437
 L 10.3919,-56.5196 L 9.95999,-56.2392 L 9.50113,-56.0054 L 9.02036,-55.8208 L 8.52292,-55.6875 L 8.01427,-55.607
 L 7.5,-55.58 z
M 137.236,-55.607 L 136.727,-55.6875 L 136.23,-55.8208 L 135.749,-56.0054 L 135.29,-56.2392 L 134.858,-56.5196
 L 134.458,-56.8437 L 134.094,-57.2079 L 133.77,-57.6081 L 133.489,-58.04 L 133.255,-58.4989 L 133.071,-58.9796
 L 132.938,-59.4771 L 132.857,-59.9857 L 132.83,-60.5 L 132.857,-61.0143 L 132.938,-61.5229 L 133.071,-62.0204
 L 133.255,-62.5011 L 133.489,-62.96 L 133.77,-63.3919 L 134.094,-63.7921 L 134.458,-64.1563 L 134.858,-64.4804
 L 135.2,-64.7024 L 135.2,-74 L 135.256,-74.5302 L 135.42,-75.0372 L 135.687,-75.4988 L 136.044,-75.895
 L 136.475,-76.2084 L 136.962,-76.4252 L 137.483,-76.536 L 138.017,-76.536 L 138.538,-76.4252 L 139.025,-76.2084
 L 139.456,-75.895 L 139.813,-75.4988 L 140.08,-75.0372 L 140.244,-74.5302 L 140.3,-74 L 140.3,-64.7024
 L 140.642,-64.4804 L 141.042,-64.1563 L 141.406,-63.7921 L 141.73,-63.3919 L 142.011,-62.96 L 142.245,-62.5011
 L 142.429,-62.0204 L 142.562,-61.5229 L 142.643,-61.0143 L 142.67,-60.5 L 142.643,-59.9857 L 142.562,-59.4771
 L 142.429,-58.9796 L 142.245,-58.4989 L 142.011,-58.04 L 141.73,-57.6081 L 141.406,-57.2079 L 141.042,-56.8437
 L 140.642,-56.5196 L 140.21,-56.2392 L 139.751,-56.0054 L 139.27,-55.8208 L 138.773,-55.6875 L 138.264,-55.607
 L 137.75,-55.58 z
M 267.486,-55.607 L 266.977,-55.6875 L 266.48,-55.8208 L 265.999,-56.0054 L 265.54,-56.2392 L 265.108,-56.5196
 L 264.708,-56.8437 L 264.344,-57.2079 L 264.02,-57.6081 L 263.739,-58.04 L 263.505,-58.4989 L 263.321,-58.9796
 L 263.188,-59.4771 L 263.107,-59.9857 L 263.08,-60.5 L 263.107,-61.0143 L 263.188,-61.5229 L 263.321,-62.0204
 L 263.505,-62.5011 L 263.739,-62.96 L 264.02,-63.3919 L 264.344,-63.7921 L 264.708,-64.1563 L 265.108,-64.4804
 L 265.45,-64.7024 L 265.45,-74 L 265.506,-74.5302 L 265.67,-75.0372 L 265.937,-75.4988 L 266.294,-75.895
 L 266.725,-76.2084 L 267.212,-76.4252 L 267.733,-76.536 L 268.267,-76.536 L 268.788,-76.4252 L 269.275,-76.2084
 L 269.706,-75.895 L 270.063,-75.4988 L 270.33,-75.0372 L 270.494,-74.5302 L 270.55,-74 L 270.55,-64.7024
 L 270.892,-64.4804 L 271.292,-64.1563 L 271.656,-63.7921 L 271.98,-63.3919 L 272.261,-62.96 L 272.495,-62.5011
 L 272.679,-62.0204 L 272.812,-61.5229 L 272.893,-61.0143 L 272.92,-60.5 L 272.893,-59.9857 L 272.812,-59.4771
 L 272.679,-58.9796 L 272.495,-58.4989 L 272.261,-58.04 L 271.98,-57.6081 L 271.656,-57.2079 L 271.292,-56.8437
 L 270.892,-56.5196 L 270.46,-56.2392 L 270.001,-56.0054 L 269.52,-55.8208 L 269.023,-55.6875 L 268.514,-55.607
 L 268,-55.58 z
M 397.736,-55.607 L 397.227,-55.6875 L 396.73,-55.8208 L 396.249,-56.0054 L 395.79,-56.2392 L 395.358,-56.5196
 L 394.958,-56.8437 L 394.594,-57.2079 L 394.27,-57.6081 L 393.989,-58.04 L 393.755,-58.4989 L 393.571,-58.9796
 L 393.438,-59.4771 L 393.357,-59.9857 L 393.33,-60.5 L 393.357,-61.0143 L 393.438,-61.5229 L 393.571,-62.0204
 L 393.755,-62.5011 L 393.989,-62.96 L 394.27,-63.3919 L 394.594,-63.7921 L 394.958,-64.1563 L 395.358,-64.4804
 L 395.7,-64.7024 L 395.7,-74 L 395.756,-74.5302 L 395.92,-75.0372 L 396.187,-75.4988 L 396.544,-75.895
 L 396.975,-76.2084 L 397.462,-76.4252 L 397.983,-76.536 L 398.517,-76.536 L 399.038,-76.4252 L 399.525,-76.2084
 L 399.956,-75.895 L 400.313,-75.4988 L 400.58,-75.0372 L 400.744,-74.5302 L 400.8,-74 L 400.8,-64.7024
 L 401.142,-64.4804 L 401.542,-64.1563 L 401.906,-63.7921 L 402.23,-63.3919 L 402.511,-62.96 L 402.745,-62.5011
 L 402.929,-62.0204 L 403.062,-61.5229 L 403.143,-61.0143 L 403.17,-60.5 L 403.143,-59.9857 L 403.062,-59.4771
 L 402.929,-58.9796 L 402.745,-58.4989 L 402.511,-58.04 L 402.23,-57.6081 L 401.906,-57.2079 L 401.542,-56.8437
 L 401.142,-56.5196 L 400.71,-56.2392 L 400.251,-56.0054 L 399.77,-55.8208 L 399.273,-55.6875 L 398.764,-55.607
 L 398.25,-55.58 z
M 527.986,-55.607 L 527.477,-55.6875 L 526.98,-55.8208 L 526.499,-56.0054 L 526.04,-56.2392 L 525.608,-56.5196
 L 525.208,-56.8437 L 524.844,-57.2079 L 524.52,-57.6081 L 524.239,-58.04 L 524.005,-58.4989 L 523.821,-58.9796
 L 523.688,-59.4771 L 523.607,-59.9857 L 523.58,-60.5 L 523.607,-61.0143 L 523.688,-61.5229 L 523.821,-62.0204
 L 524.005,-62.5011 L 524.239,-62.96 L 524.52,-63.3919 L 524.844,-63.7921 L 525.208,-64.1563 L 525.608,-64.4804
 L 525.95,-64.7024 L 525.95,-74 L 526.006,-74.5302 L 526.17,-75.0372 L 526.437,-75.4988 L 526.794,-75.895
 L 527.225,-76.2084 L 527.712,-76.4252 L 528.233,-76.536 L 528.767,-76.536 L 529.288,-76.4252 L 529.775,-76.2084
 L 530.206,-75.895 L 530.563,-75.4988 L 530.83,-75.0372 L 530.994,-74.5302 L 531.05,-74 L 531.05,-64.7024
 L 531.392,-64.4804 L 531.792,-64.1563 L 532.156,-63.7921 L 532.48,-63.3919 L 532.761,-62.96 L 532.995,-62.5011
 L 533.179,-62.0204 L 533.312,-61.5229 L 533.393,-61.0143 L 533.42,-60.5 L 533.393,-59.9857 L 533.312,-59.4771
 L 533.179,-58.9796 L 532.995,-58.4989 L 532.761,-58.04 L 532.48,-57.6081 L 532.156,-57.2079 L 531.792,-56.8437
 L 531.392,-56.5196 L 530.96,-56.2392 L 530.501,-56.0054 L 530.02,-55.8208 L 529.523,-55.6875 L 529.014,-55.607
 L 528.5,-55.58 z
M 280.413,-23.482 L 279.604,-23.6904 L 278.855,-24.0626 L 278.2,-24.5824 L 277.667,-25.227 L 277.28,-25.9683
 L 277.056,-26.7739 L 277,-27.4387 L 277,-58 L 277.087,-58.8316 L 277.346,-59.627 L 277.764,-60.3511
 L 278.323,-60.9726 L 279,-61.4641 L 279.764,-61.8042 L 281,-62 L 339.538,-62 L 340.37,-61.9126
 L 341.165,-61.6542 L 341.889,-61.2361 L 342.511,-60.6765 L 343.002,-60 L 343.343,-59.2361 L 343.516,-58.4181
 L 343.516,-57.5819 L 343.343,-56.7639 L 343.002,-56 L 342.511,-55.3235 L 341.889,-54.7639 L 341.389,-54.4541
 L 282.851,-23.8929 L 282.074,-23.5855 L 281.249,-23.4465 z
M 253.926,-23.5855 L 253.149,-23.8929 L 194.611,-54.4541 L 194.111,-54.7639 L 193.489,-55.3235 L 192.998,-56
 L 192.657,-56.7639 L 192.484,-57.5819 L 192.484,-58.4181 L 192.657,-59.2361 L 192.998,-60 L 193.489,-60.6765
 L 194.111,-61.2361 L 194.835,-61.6542 L 195.63,-61.9126 L 196.462,-62 L 255,-62 L 256.236,-61.8042
 L 257,-61.4641 L 257.677,-60.9726 L 258.236,-60.3511 L 258.654,-59.627 L 258.913,-58.8316 L 259,-58
 L 259,-27.4387 L 258.944,-26.7739 L 258.72,-25.9683 L 258.333,-25.227 L 257.8,-24.5824 L 257.145,-24.0626
 L 256.396,-23.6904 L 255.587,-23.482 L 254.751,-23.4465 z
M 410.663,-23.482 L 409.854,-23.6904 L 409.105,-24.0626 L 408.45,-24.5824 L 407.917,-25.227 L 407.53,-25.9683
 L 407.306,-26.7739 L 407.25,-27.4387 L 407.25,-58 L 407.337,-58.8316 L 407.596,-59.627 L 408.014,-60.3511
 L 408.573,-60.9726 L 409.25,-61.4641 L 410.014,-61.8042 L 411.25,-62 L 469.788,-62 L 470.62,-61.9126
 L 471.415,-61.6542 L 472.139,-61.2361 L 472.761,-60.6765 L 473.252,-60 L 473.593,-59.2361 L 473.766,-58.4181
 L 473.766,-57.5819 L 473.593,-56.7639 L 473.252,-56 L 472.761,-55.3235 L 472.139,-54.7639 L 471.639,-54.4541
 L 413.101,-23.8929 L 412.324,-23.5855 L 411.499,-23.4465 z
M 123.676,-23.5855 L 122.899,-23.8929 L 64.3605,-54.4541 L 63.8606,-54.7639 L 63.2391,-55.3235 L 62.7476,-56
 L 62.4075,-56.7639 L 62.2336,-57.5819 L 62.2336,-58.4181 L 62.4075,-59.2361 L 62.7476,-60 L 63.2391,-60.6765
 L 63.8606,-61.2361 L 64.5847,-61.6542 L 65.3801,-61.9126 L 66.2117,-62 L 124.75,-62 L 125.986,-61.8042
 L 126.75,-61.4641 L 127.427,-60.9726 L 127.986,-60.3511 L 128.404,-59.627 L 128.663,-58.8316 L 128.75,-58
 L 128.75,-27.4387 L 128.694,-26.7739 L 128.47,-25.9683 L 128.083,-25.227 L 127.55,-24.5824 L 126.895,-24.0626
 L 126.146,-23.6904 L 125.337,-23.482 L 124.501,-23.4465 z
M 326.712,-18 L 325.88,-18.0874 L 325.085,-18.3458 L 324.361,-18.7639 L 323.739,-19.3235 L 323.248,-20
 L 322.907,-20.7639 L 322.734,-21.5819 L 322.734,-22.4181 L 322.907,-23.2361 L 323.248,-24 L 323.739,-24.6765
 L 324.361,-25.2361 L 324.861,-25.5459 L 383.399,-56.1071 L 384.176,-56.4145 L 385.001,-56.5535 L 385.837,-56.518
 L 386.646,-56.3096 L 387.395,-55.9374 L 388.05,-55.4176 L 388.583,-54.7729 L 388.97,-54.0317 L 389.194,-53.2261
 L 389.25,-52.5612 L 389.25,-22 L 389.163,-21.1684 L 388.904,-20.373 L 388.486,-19.6489 L 387.927,-19.0274
 L 387.25,-18.5359 L 386.486,-18.1958 L 385.25,-18 z
M 150.75,-18 L 149.514,-18.1958 L 148.75,-18.5359 L 148.073,-19.0274 L 147.514,-19.6489 L 147.096,-20.373
 L 146.837,-21.1684 L 146.75,-22 L 146.75,-52.5612 L 146.806,-53.2261 L 147.03,-54.0317 L 147.417,-54.7729
 L 147.95,-55.4176 L 148.605,-55.9374 L 149.354,-56.3096 L 150.163,-56.518 L 150.999,-56.5535 L 151.824,-56.4145
 L 152.601,-56.1071 L 211.139,-25.5459 L 211.639,-25.2361 L 212.261,-24.6765 L 212.752,-24 L 213.093,-23.2361
 L 213.266,-22.4181 L 213.266,-21.5819 L 213.093,-20.7639 L 212.752,-20 L 212.261,-19.3235 L 211.639,-18.7639
 L 210.915,-18.3458 L 210.12,-18.0874 L 209.288,-18 z
M 22,-18 L 20.7639,-18.1958 L 20,-18.5359 L 19.3235,-19.0274 L 18.7639,-19.6489 L 18.3458,-20.373
 L 18.0874,-21.1684 L 18,-22 L 18,-51.7781 L 18.0556,-52.443 L 18.2801,-53.2486 L 18.6671,-53.9898
 L 19.1997,-54.6345 L 19.8548,-55.1543 L 20.6036,-55.5265 L 21.4135,-55.7349 L 22.2489,-55.7704 L 23.0735,-55.6314
 L 23.8512,-55.324 L 80.8895,-25.5459 L 81.3894,-25.2361 L 82.0109,-24.6765 L 82.5024,-24 L 82.8425,-23.2361
 L 83.0164,-22.4181 L 83.0164,-21.5819 L 82.8425,-20.7639 L 82.5024,-20 L 82.0109,-19.3235 L 81.3894,-18.7639
 L 80.6652,-18.3458 L 79.8699,-18.0874 L 79.0383,-18 z
M 456.962,-18 L 456.13,-18.0874 L 455.335,-18.3458 L 454.611,-18.7639 L 453.989,-19.3235 L 453.498,-20
 L 453.157,-20.7639 L 452.984,-21.5819 L 452.984,-22.4181 L 453.157,-23.2361 L 453.498,-24 L 453.989,-24.6765
 L 454.611,-25.2361 L 455.111,-25.5459 L 512.149,-55.324 L 512.926,-55.6314 L 513.751,-55.7704 L 514.587,-55.7349
 L 515.396,-55.5265 L 516.145,-55.1543 L 516.8,-54.6345 L 517.333,-53.9898 L 517.72,-53.2486 L 517.944,-52.443
 L 518,-51.7781 L 518,-22 L 517.913,-21.1684 L 517.654,-20.373 L 517.236,-19.6489 L 516.677,-19.0274
 L 516,-18.5359 L 515.236,-18.1958 L 514,-18 z
" stroke="black" fill="lightgray" stroke-width="0.5"/>
</svg>
