<?xml version="1.0" standalone="no"?>
<!DOCTYPE svg PUBLIC "-//W3C//DTD SVG 1.1//EN" "http://www.w3.org/Graphics/SVG/1.1/DTD/svg11.dtd">
<svg width="909mm" height="80mm" viewBox="0 -80 909 80" xmlns="http://www.w3.org/2000/svg" version="1.1">
<title>OpenSCAD Model</title>
<path d="
M 909,-80 L 0,-80 L 0,-0 L 4.95,-0 L 4.95,-6 L 5.00572,-6.53017
 L 5.17046,-7.03717 L 5.437,-7.49884 L 5.79372,-7.895 L 6.22499,-8.20836 L 6.71201,-8.42519 L 7.23344,-8.53603
 L 7.76654,-8.53603 L 8.28798,-8.42519 L 8.77499,-8.20836 L 9.20627,-7.895 L 9.56299,-7.49884 L 9.82953,-7.03717
 L 9.99426,-6.53017 L 10.05,-6 L 10.05,-0 L 183.75,-0 L 183.75,-6 L 183.806,-6.53017
 L 183.97,-7.03717 L 184.237,-7.49884 L 184.594,-7.895 L 185.025,-8.20836 L 185.512,-8.42519 L 186.033,-8.53603
 L 186.567,-8.53603 L 187.088,-8.42519 L 187.575,-8.20836 L 188.006,-7.895 L 188.363,-7.49884 L 188.63,-7.03717
 L 188.794,-6.53017 L 188.85,-6 L 188.85,-0 L 362.55,-0 L 362.55,-6 L 362.606,-6.53017
 L 362.77,-7.03717 L 363.037,-7.49884 L 363.394,-7.895 L 363.825,-8.20836 L 364.312,-8.42519 L 364.833,-8.53603
 L 365.367,-8.53603 L 365.888,-8.42519 L 366.375,-8.20836 L 366.806,-7.895 L 367.163,-7.49884 L 367.43,-7.03717
 L 367.594,-6.53017 L 367.65,-6 L 367.65,-0 L 541.35,-0 L 541.35,-6 L 541.406,-6.53017
 L 541.57,-7.03717 L 541.837,-7.49884 L 542.194,-7.895 L 542.625,-8.20836 L 543.112,-8.42519 L 543.633,-8.53603
 L 544.167,-8.53603 L 544.688,-8.42519 L 545.175,-8.20836 L 545.606,-7.895 L 545.963,-7.49884 L 546.23,-7.03717
 L 546.394,-6.53017 L 546.45,-6 L 546.45,-0 L 720.15,-0 L 720.15,-6 L 720.206,-6.53017
 L 720.37,-7.03717 L 720.637,-7.49884 L 720.994,-7.895 L 721.425,-8.20836 L 721.912,-8.42519 L 722.433,-8.53603
 L 722.967,-8.53603 L 723.488,-8.42519 L 723.975,-8.20836 L 724.406,-7.895 L 724.763,-7.49884 L 725.03,-7.03717
 L 725.194,-6.53017 L 725.25,-6 L 725.25,-0 L 898.95,-0 L 898.95,-6 L 899.006,-6.53017
 L 899.17,-7.03717 L 899.437,-7.49884 L 899.794,-7.895 L 900.225,-8.20836 L 900.712,-8.42519 L 901.233,-8.53603
 L 901.767,-8.53603 L 902.288,-8.42519 L 902.775,-8.20836 L 903.206,-7.895 L 903.563,-7.49884 L 903.83,-7.03717
 L 903.994,-6.53017 L 904.05,-6 L 904.05,-0 L 909,-0 z
M 6.98573,-55.607 L 6.47708,-55.6875 L 5.97964,-55.8208 L 5.49887,-56.0054 L 5.04001,-56.2392 L 4.60811,-56.5196
 L 4.20789,-56.8437 L 3.84373,-57.2079 L 3.51964,-57.6081 L 3.23917,-58.04 L 3.00537,-58.4989 L 2.82082,-58.9796
 L 2.68752,-59.4771 L 2.60696,-59.9857 L 2.58,-60.5 L 2.60696,-61.0143 L 2.68752,-61.5229 L 2.82082,-62.0204
 L 3.00537,-62.5011 L 3.23917,-62.96 L 3.51964,-63.3919 L 3.84373,-63.7921 L 4.20789,-64.1563 L 4.60811,-64.4804
 L 4.95001,-64.7024 L 4.95001,-74 L 5.00574,-74.5302 L 5.17047,-75.0372 L 5.43701,-75.4988 L 5.79373,-75.895
 L 6.22501,-76.2084 L 6.71202,-76.4252 L 7.23346,-76.536 L 7.76654,-76.536 L 8.28798,-76.4252 L 8.77499,-76.2084
 L 9.20627,-75.895 L 9.56299,-75.4988 L 9.82953,-75.0372 L 9.99426,-74.5302 L 10.05,-74 L 10.05,-64.7024
 L 10.3919,-64.4804 L 10.7921,-64.1563 L 11.1563,-63.7921 L 11.4804,-63.3919 L 11.7608,-62.96 L 11.9946,-62.5011
 L 12.1792,-62.0204 L 12.3125,-61.5229 L 12.393,-61.0143 L 12.42,-60.5 L 12.393,-59.9857 L 12.3125,-59.4771
 L 12.1792,-58.9796 L 11.9946,-58.4989 L 11.7608,-58.04 L 11.4804,-57.6081 L 11.1563,-57.2079 L 10.7921,-56.8437
 L 10.3919,-56.5196 L 9.95999,-56.2392 L 9.50113,-56.0054 L 9.02036,-55.8208 L 8.52292,-55.6875 L 8.01427,-55.607
 L 7.5,-55.58 z
M 185.786,-55.607 L 185.277,-55.6875 L 184.78,-55.8208 L 184.299,-56.0054 L 183.84,-56.2392 L 183.408,-56.5196
 L 183.008,-56.8437 L 182.644,-57.2079 L 182.32,-57.6081 L 182.039,-58.04 L 181.805,-58.4989 L 181.621,-58.9796
 L 181.488,-59.4771 L 181.407,-59.9857 L 181.38,-60.5 L 181.407,-61.0143 L 181.488,-61.5229 L 181.621,-62.0204
 L 181.805,-62.5011 L 182.039,-62.96 L 182.32,-63.3919 L 182.644,-63.7921 L 183.008,-64.1563 L 183.408,-64.4804
 L 183.75,-64.7024 L 183.75,-74 L 183.806,-74.5302 L 183.97,-75.0372 L 184.237,-75.4988 L 184.594,-75.895
 L 185.025,-76.2084 L 185.512,-76.4252 L 186.033,-76.536 L 186.567,-76.536 L 187.088,-76.4252 L 187.575,-76.2084
 L 188.006,-75.895 L 188.363,-75.4988 L 188.63,-75.0372 L 188.794,-74.5302 L 188.85,-74 L 188.85,-64.7024
 L 189.192,-64.4804 L 189.592,-64.1563 L 189.956,-63.7921 L 190.28,-63.3919 L 190.561,-62.96 L 190.795,-62.5011
 L 190.979,-62.0204 L 191.112,-61.5229 L 191.193,-61.0143 L 191.22,-60.5 L 191.193,-59.9857 L 191.112,-59.4771
 L 190.979,-58.9796 L 190.795,-58.4989 L 190.561,-58.04 L 190.28,-57.6081 L 189.956,-57.2079 L 189.592,-56.8437
 L 189.192,-56.5196 L 188.76,-56.2392 L 188.301,-56.0054 L 187.82,-55.8208 L 187.323,-55.6875 L 186.814,-55.607
 L 186.3,-55.58 z
M 364.586,-55.607 L 364.077,-55.6875 L 363.58,-55.8208 L 363.099,-56.0054 L 362.64,-56.2392 L 362.208,-56.5196
 L 361.808,-56.8437 L 361.444,-57.2079 L 361.12,-57.6081 L 360.839,-58.04 L 360.605,-58.4989 L 360.421,-58.9796
 L 360.288,-59.4771 L 360.207,-59.9857 L 360.18,-60.5 L 360.207,-61.0143 L 360.288,-61.5229 L 360.421,-62.0204
 L 360.605,-62.5011 L 360.839,-62.96 L 361.12,-63.3919 L 361.444,-63.7921 L 361.808,-64.1563 L 362.208,-64.4804
 L 362.55,-64.7024 L 362.55,-74 L 362.606,-74.5302 L 362.77,-75.0372 L 363.037,-75.4988 L 363.394,-75.895
 L 363.825,-76.2084 L 364.312,-76.4252 L 364.833,-76.536 L 365.367,-76.536 L 365.888,-76.4252 L 366.375,-76.2084
 L 366.806,-75.895 L 367.163,-75.4988 L 367.43,-75.0372 L 367.594,-74.5302 L 367.65,-74 L 367.65,-64.7024
 L 367.992,-64.4804 L 368.392,-64.1563 L 368.756,-63.7921 L 369.08,-63.3919 L 369.361,-62.96 L 369.595,-62.5011
 L 369.779,-62.0204 L 369.912,-61.5229 L 369.993,-61.0143 L 370.02,-60.5 L 369.993,-59.9857 L 369.912,-59.4771
 L 369.779,-58.9796 L 369.595,-58.4989 L 369.361,-58.04 L 369.08,-57.6081 L 368.756,-57.2079 L 368.392,-56.8437
 L 367.992,-56.5196 L 367.56,-56.2392 L 367.101,-56.0054 L 366.62,-55.8208 L 366.123,-55.6875 L 365.614,-55.607
 L 365.1,-55.58 z
M 543.386,-55.607 L 542.877,-55.6875 L 542.38,-55.8208 L 541.899,-56.0054 L 541.44,-56.2392 L 541.008,-56.5196
 L 540.608,-56.8437 L 540.244,-57.2079 L 539.92,-57.6081 L 539.639,-58.04 L 539.405,-58.4989 L 539.221,-58.9796
 L 539.088,-59.4771 L 539.007,-59.9857 L 538.98,-60.5 L 539.007,-61.0143 L 539.088,-61.5229 L 539.221,-62.0204
 L 539.405,-62.5011 L 539.639,-62.96 L 539.92,-63.3919 L 540.244,-63.7921 L 540.608,-64.1563 L 541.008,-64.4804
 L 541.35,-64.7024 L 541.35,-74 L 541.406,-74.5302 L 541.57,-75.0372 L 541.837,-75.4988 L 542.194,-75.895
 L 542.625,-76.2084 L 543.112,-76.4252 L 543.633,-76.536 L 544.167,-76.536 L 544.688,-76.4252 L 545.175,-76.2084
 L 545.606,-75.895 L 545.963,-75.4988 L 546.23,-75.0372 L 546.394,-74.5302 L 546.45,-74 L 546.45,-64.7024
 L 546.792,-64.4804 L 547.192,-64.1563 L 547.556,-63.7921 L 547.88,-63.3919 L 548.161,-62.96 L 548.395,-62.5011
 L 548.579,-62.0204 L 548.712,-61.5229 L 548.793,-61.0143 L 548.82,-60.5 L 548.793,-59.9857 L 548.712,-59.4771
 L 548.579,-58.9796 L 548.395,-58.4989 L 548.161,-58.04 L 547.88,-57.6081 L 547.556,-57.2079 L 547.192,-56.8437
 L 546.792,-56.5196 L 546.36,-56.2392 L 545.901,-56.0054 L 545.42,-55.8208 L 544.923,-55.6875 L 544.414,-55.607
 L 543.9,-55.58 z
M 722.186,-55.607 L 721.677,-55.6875 L 721.18,-55.8208 L 720.699,-56.0054 L 720.24,-56.2392 L 719.808,-56.5196
 L 719.408,-56.8437 L 719.044,-57.2079 L 718.72,-57.6081 L 718.439,-58.04 L 718.205,-58.4989 L 718.021,-58.9796
 L 717.888,-59.4771 L 717.807,-59.9857 L 717.78,-60.5 L 717.807,-61.0143 L 717.888,-61.5229 L 718.021,-62.0204
 L 718.205,-62.5011 L 718.439,-62.96 L 718.72,-63.3919 L 719.044,-63.7921 L 719.408,-64.1563 L 719.808,-64.4804
 L 720.15,-64.7024 L 720.15,-74 L 720.206,-74.5302 L 720.37,-75.0372 L 720.637,-75.4988 L 720.994,-75.895
 L 721.425,-76.2084 L 721.912,-76.4252 L 722.433,-76.536 L 722.967,-76.536 L 723.488,-76.4252 L 723.975,-76.2084
 L 724.406,-75.895 L 724.763,-75.4988 L 725.03,-75.0372 L 725.194,-74.5302 L 725.25,-74 L 725.25,-64.7024
 L 725.592,-64.4804 L 725.992,-64.1563 L 726.356,-63.7921 L 726.68,-63.3919 L 726.961,-62.96 L 727.195,-62.5011
 L 727.379,-62.0204 L 727.512,-61.5229 L 727.593,-61.0143 L 727.62,-60.5 L 727.593,-59.9857 L 727.512,-59.4771
 L 727.379,-58.9796 L 727.195,-58.4989 L 726.961,-58.04 L 726.68,-57.6081 L 726.356,-57.2079 L 725.992,-56.8437
 L 725.592,-56.5196 L 725.16,-56.2392 L 724.701,-56.0054 L 724.22,-55.8208 L 723.723,-55.6875 L 723.214,-55.607
 L 722.7,-55.58 z
M 900.986,-55.607 L 900.477,-55.6875 L 899.98,-55.8208 L 899.499,-56.0054 L 899.04,-56.2392 L 898.608,-56.5196
 L 898.208,-56.8437 L 897.844,-57.2079 L 897.52,-57.6081 L 897.239,-58.04 L 897.005,-58.4989 L 896.821,-58.9796
 L 896.688,-59.4771 L 896.607,-59.9857 L 896.58,-60.5 L 896.607,-61.0143 L 896.688,-61.5229 L 896.821,-62.0204
 L 897.005,-62.5011 L 897.239,-62.96 L 897.52,-63.3919 L 897.844,-63.7921 L 898.208,-64.1563 L 898.608,-64.4804
 L 898.95,-64.7024 L 898.95,-74 L 899.006,-74.5302 L 899.17,-75.0372 L 899.437,-75.4988 L 899.794,-75.895
 L 900.225,-76.2084 L 900.712,-76.4252 L 901.233,-76.536 L 901.767,-76.536 L 902.288,-76.4252 L 902.775,-76.2084
 L 903.206,-75.895 L 903.563,-75.4988 L 903.83,-75.0372 L 903.994,-74.5302 L 904.05,-74 L 904.05,-64.7024
 L 904.392,-64.4804 L 904.792,-64.1563 L 905.156,-63.7921 L 905.48,-63.3919 L 905.761,-62.96 L 905.995,-62.5011
 L 906.179,-62.0204 L 906.312,-61.5229 L 906.393,-61.0143 L 906.42,-60.5 L 906.393,-59.9857 L 906.312,-59.4771
 L 906.179,-58.9796 L 905.995,-58.4989 L 905.761,-58.04 L 905.48,-57.6081 L 905.156,-57.2079 L 904.792,-56.8437
 L 904.392,-56.5196 L 903.96,-56.2392 L 903.501,-56.0054 L 903.02,-55.8208 L 902.523,-55.6875 L 902.014,-55.607
 L 901.5,-55.58 z
M 453.886,-47.8017 L 453.078,-48.0156 L 436.656,-54.2613 L 435.727,-54.7639 L 435.105,-55.3235 L 434.614,-56
 L 434.273,-56.7639 L 434.1,-57.5819 L 434.1,-58.4181 L 434.273,-59.2361 L 434.614,-60 L 435.105,-60.6765
 L 435.727,-61.2361 L 436.451,-61.6542 L 437.246,-61.9126 L 438.078,-62 L 470.922,-62 L 471.97,-61.8605
 L 472.749,-61.5584 L 473.449,-61.1008 L 474.039,-60.5076 L 474.492,-59.8049 L 474.789,-59.0233 L 474.917,-58.197
 L 474.871,-57.362 L 474.652,-56.555 L 474.27,-55.8111 L 473.742,-55.1628 L 473.09,-54.6386 L 472.344,-54.2613
 L 455.922,-48.0156 L 454.722,-47.7605 z
M 351.486,-20.8829 L 350.678,-21.0969 L 263.475,-54.2613 L 262.546,-54.7639 L 261.925,-55.3235 L 261.433,-56
 L 261.093,-56.7639 L 260.919,-57.5819 L 260.919,-58.4181 L 261.093,-59.2361 L 261.433,-60 L 261.925,-60.6765
 L 262.546,-61.2361 L 263.27,-61.6542 L 264.065,-61.9126 L 264.897,-62 L 352.1,-62 L 353.336,-61.8042
 L 354.1,-61.4641 L 354.777,-60.9726 L 355.336,-60.3511 L 355.754,-59.627 L 356.013,-58.8316 L 356.1,-58
 L 356.1,-24.8356 L 355.967,-23.8123 L 355.67,-23.0307 L 355.216,-22.328 L 354.627,-21.7348 L 353.927,-21.2772
 L 353.147,-20.9751 L 352.322,-20.8418 z
M 734.653,-20.9751 L 733.873,-21.2772 L 733.173,-21.7348 L 732.584,-22.328 L 732.13,-23.0307 L 731.833,-23.8123
 L 731.7,-24.8356 L 731.7,-58 L 731.787,-58.8316 L 732.046,-59.627 L 732.464,-60.3511 L 733.023,-60.9726
 L 733.7,-61.4641 L 734.464,-61.8042 L 735.7,-62 L 822.903,-62 L 823.735,-61.9126 L 824.53,-61.6542
 L 825.254,-61.2361 L 825.875,-60.6765 L 826.367,-60 L 826.707,-59.2361 L 826.881,-58.4181 L 826.881,-57.5819
 L 826.707,-56.7639 L 826.367,-56 L 825.875,-55.3235 L 825.254,-54.7639 L 824.325,-54.2613 L 737.122,-21.0969
 L 736.314,-20.8829 L 735.478,-20.8418 z
M 172.686,-20.8829 L 171.878,-21.0969 L 84.6752,-54.2613 L 83.746,-54.7639 L 83.1245,-55.3235 L 82.633,-56
 L 82.2929,-56.7639 L 82.119,-57.5819 L 82.119,-58.4181 L 82.2929,-59.2361 L 82.633,-60 L 83.1245,-60.6765
 L 83.746,-61.2361 L 84.4702,-61.6542 L 85.2655,-61.9126 L 86.0971,-62 L 173.3,-62 L 174.536,-61.8042
 L 175.3,-61.4641 L 175.977,-60.9726 L 176.536,-60.3511 L 176.954,-59.627 L 177.213,-58.8316 L 177.3,-58
 L 177.3,-24.8356 L 177.167,-23.8123 L 176.87,-23.0307 L 176.416,-22.328 L 175.827,-21.7348 L 175.127,-21.2772
 L 174.347,-20.9751 L 173.522,-20.8418 z
M 555.853,-20.9751 L 555.073,-21.2772 L 554.373,-21.7348 L 553.784,-22.328 L 553.33,-23.0307 L 553.033,-23.8123
 L 552.9,-24.8356 L 552.9,-58 L 552.987,-58.8316 L 553.246,-59.627 L 553.664,-60.3511 L 554.223,-60.9726
 L 554.9,-61.4641 L 555.664,-61.8042 L 556.9,-62 L 644.103,-62 L 644.935,-61.9126 L 645.73,-61.6542
 L 646.454,-61.2361 L 647.075,-60.6765 L 647.567,-60 L 647.907,-59.2361 L 648.081,-58.4181 L 648.081,-57.5819
 L 647.907,-56.7639 L 647.567,-56 L 647.075,-55.3235 L 646.454,-54.7639 L 645.525,-54.2613 L 558.322,-21.0969
 L 557.514,-20.8829 L 556.678,-20.8418 z
M 377.682,-18.7204 L 376.864,-18.8942 L 376.1,-19.2344 L 375.423,-19.7259 L 374.864,-20.3473 L 374.446,-21.0715
 L 374.187,-21.8668 L 374.1,-22.6985 L 374.1,-57.3015 L 374.233,-58.3248 L 374.53,-59.1065 L 374.984,-59.8092
 L 375.573,-60.4023 L 376.273,-60.8599 L 377.053,-61.162 L 377.878,-61.2954 L 378.713,-61.2542 L 379.522,-61.0403
 L 425.015,-43.7387 L 425.42,-43.5584 L 426.12,-43.1008 L 426.709,-42.5076 L 427.163,-41.8049 L 427.46,-41.0233
 L 427.588,-40.197 L 427.542,-39.362 L 427.323,-38.555 L 426.941,-37.8111 L 426.413,-37.1628 L 425.761,-36.6386
 L 425.015,-36.2613 L 379.522,-18.9597 L 378.518,-18.7204 z
M 530.286,-18.7458 L 529.478,-18.9597 L 483.985,-36.2613 L 483.58,-36.4416 L 482.88,-36.8992 L 482.291,-37.4924
 L 481.837,-38.1951 L 481.54,-38.9767 L 481.412,-39.803 L 481.458,-40.638 L 481.677,-41.445 L 482.059,-42.1889
 L 482.587,-42.8372 L 483.239,-43.3614 L 483.985,-43.7387 L 529.478,-61.0403 L 530.482,-61.2796 L 531.318,-61.2796
 L 532.136,-61.1058 L 532.9,-60.7657 L 533.577,-60.2741 L 534.136,-59.6527 L 534.554,-58.9285 L 534.813,-58.1332
 L 534.9,-57.3016 L 534.9,-22.6984 L 534.767,-21.6751 L 534.47,-20.8935 L 534.016,-20.1908 L 533.427,-19.5977
 L 532.727,-19.1401 L 531.947,-18.838 L 531.122,-18.7046 z
M 199.3,-18 L 198.064,-18.1958 L 197.3,-18.5359 L 196.623,-19.0274 L 196.064,-19.6489 L 195.646,-20.373
 L 195.387,-21.1684 L 195.3,-22 L 195.3,-55.1644 L 195.433,-56.1877 L 195.73,-56.9693 L 196.184,-57.672
 L 196.773,-58.2652 L 197.473,-58.7228 L 198.253,-59.0249 L 199.078,-59.1582 L 199.913,-59.1171 L 200.722,-58.9031
 L 287.925,-25.7387 L 288.854,-25.2361 L 289.475,-24.6765 L 289.967,-24 L 290.307,-23.2361 L 290.481,-22.4181
 L 290.481,-21.5819 L 290.307,-20.7639 L 289.967,-20 L 289.475,-19.3235 L 288.854,-18.7639 L 288.13,-18.3458
 L 287.334,-18.0874 L 286.503,-18 z
M 622.497,-18 L 621.665,-18.0874 L 620.87,-18.3458 L 620.146,-18.7639 L 619.525,-19.3235 L 619.033,-20
 L 618.693,-20.7639 L 618.519,-21.5819 L 618.519,-22.4181 L 618.693,-23.2361 L 619.033,-24 L 619.525,-24.6765
 L 620.146,-25.2361 L 621.075,-25.7387 L 708.278,-58.9031 L 709.087,-59.1171 L 709.922,-59.1582 L 710.747,-59.0249
 L 711.527,-58.7228 L 712.227,-58.2652 L 712.816,-57.672 L 713.27,-56.9693 L 713.567,-56.1877 L 713.7,-55.1644
 L 713.7,-22 L 713.613,-21.1684 L 713.354,-20.373 L 712.936,-19.6489 L 712.377,-19.0274 L 711.7,-18.5359
 L 710.936,-18.1958 L 709.7,-18 z
M 22,-18 L 20.7639,-18.1958 L 20,-18.5359 L 19.3235,-19.0274 L 18.7639,-19.6489 L 18.3458,-20.373
 L 18.0874,-21.1684 L 18,-22 L 18,-54.5939 L 18.1331,-55.6172 L 18.4304,-56.3988 L 18.8836,-57.1016
 L 19.4731,-57.6947 L 20.173,-58.1523 L 20.9528,-58.4544 L 21.7783,-58.5878 L 22.6135,-58.5466 L 23.4219,-58.3327
 L 109.125,-25.7387 L 110.054,-25.2361 L 110.675,-24.6765 L 111.167,-24 L 111.507,-23.2361 L 111.681,-22.4181
 L 111.681,-21.5819 L 111.507,-20.7639 L 111.167,-20 L 110.675,-19.3235 L 110.054,-18.7639 L 109.33,-18.3458
 L 108.535,-18.0874 L 107.703,-18 z
M 801.297,-18 L 800.465,-18.0874 L 799.67,-18.3458 L 798.946,-18.7639 L 798.325,-19.3235 L 797.833,-20
 L 797.493,-20.7639 L 797.319,-21.5819 L 797.319,-22.4181 L 797.493,-23.2361 L 797.833,-24 L 798.325,-24.6765
 L 798.946,-25.2361 L 799.875,-25.7387 L 885.578,-58.3327 L 886.387,-58.5466 L 887.222,-58.5878 L 888.047,-58.4544
 L 888.827,-58.1523 L 889.527,-57.6947 L 890.116,-57.1016 L 890.57,-56.3988 L 890.867,-55.6172 L 891,-54.5939
 L 891,-22 L 890.913,-21.1684 L 890.654,-20.373 L 890.236,-19.6489 L 889.677,-19.0274 L 889,-18.5359
 L 888.236,-18.1958 L 887,-18 z
M 438.078,-18 L 437.03,-18.1395 L 436.251,-18.4416 L 435.551,-18.8992 L 434.961,-19.4924 L 434.508,-20.1951
 L 434.211,-20.9767 L 434.082,-21.803 L 434.129,-22.638 L 434.348,-23.445 L 434.73,-24.1889 L 435.258,-24.8372
 L 435.909,-25.3614 L 436.656,-25.7387 L 453.078,-31.9844 L 454.278,-32.2395 L 455.113,-32.1983 L 455.922,-31.9844
 L 472.344,-25.7387 L 473.273,-25.2361 L 473.895,-24.6765 L 474.386,-24 L 474.727,-23.2361 L 474.9,-22.4181
 L 474.9,-21.5819 L 474.727,-20.7639 L 474.386,-20 L 473.895,-19.3235 L 473.273,-18.7639 L 472.549,-18.3458
 L 471.754,-18.0874 L 470.922,-18 z
" stroke="black" fill="lightgray" stroke-width="0.5"/>
</svg>
