<?xml version="1.0" standalone="no"?>
<!DOCTYPE svg PUBLIC "-//W3C//DTD SVG 1.1//EN" "http://www.w3.org/Graphics/SVG/1.1/DTD/svg11.dtd">
<svg width="525mm" height="80mm" viewBox="0 -80 525 80" xmlns="http://www.w3.org/2000/svg" version="1.1">
<title>OpenSCAD Model</title>
<path d="
M 525,-80 L 0,-80 L 0,-0 L 4.95,-0 L 4.95,-6 L 5.00572,-6.53017
 L 5.17046,-7.03717 L 5.437,-7.49884 L 5.79372,-7.895 L 6.22499,-8.20836 L 6.71201,-8.42519 L 7.23344,-8.53603
 L 7.76654,-8.53603 L 8.28798,-8.42519 L 8.77499,-8.20836 L 9.20627,-7.895 L 9.56299,-7.49884 L 9.82953,-7.03717
 L 9.99426,-6.53017 L 10.05,-6 L 10.05,-0 L 132.45,-0 L 132.45,-6 L 132.506,-6.53017
 L 132.67,-7.03717 L 132.937,-7.49884 L 133.294,-7.895 L 133.725,-8.20836 L 134.212,-8.42519 L 134.733,-8.53603
 L 135.267,-8.53603 L 135.788,-8.42519 L 136.275,-8.20836 L 136.706,-7.895 L 137.063,-7.49884 L 137.33,-7.03717
 L 137.494,-6.53017 L 137.55,-6 L 137.55,-0 L 259.95,-0 L 259.95,-6 L 260.006,-6.53017
 L 260.17,-7.03717 L 260.437,-7.49884 L 260.794,-7.895 L 261.225,-8.20836 L 261.712,-8.42519 L 262.233,-8.53603
 L 262.767,-8.53603 L 263.288,-8.42519 L 263.775,-8.20836 L 264.206,-7.895 L 264.563,-7.49884 L 264.83,-7.03717
 L 264.994,-6.53017 L 265.05,-6 L 265.05,-0 L 387.45,-0 L 387.45,-6 L 387.506,-6.53017
 L 387.67,-7.03717 L 387.937,-7.49884 L 388.294,-7.895 L 388.725,-8.20836 L 389.212,-8.42519 L 389.733,-8.53603
 L 390.267,-8.53603 L 390.788,-8.42519 L 391.275,-8.20836 L 391.706,-7.895 L 392.063,-7.49884 L 392.33,-7.03717
 L 392.494,-6.53017 L 392.55,-6 L 392.55,-0 L 514.95,-0 L 514.95,-6 L 515.006,-6.53017
 L 515.17,-7.03717 L 515.437,-7.49884 L 515.794,-7.895 L 516.225,-8.20836 L 516.712,-8.42519 L 517.233,-8.53603
 L 517.767,-8.53603 L 518.288,-8.42519 L 518.775,-8.20836 L 519.206,-7.895 L 519.563,-7.49884 L 519.83,-7.03717
 L 519.994,-6.53017 L 520.05,-6 L 520.05,-0 L 525,-0 z
M 6.98573,-55.607 L 6.47708,-55.6875 L 5.97964,-55.8208 L 5.49887,-56.0054 L 5.04001,-56.2392 L 4.60811,-56.5196
 L 4.20789,-56.8437 L 3.84373,-57.2079 L 3.51964,-57.6081 L 3.23917,-58.04 L 3.00537,-58.4989 L 2.82082,-58.9796
 L 2.68752,-59.4771 L 2.60696,-59.9857 L 2.58,-60.5 L 2.60696,-61.0143 L 2.68752,-61.5229 L 2.82082,-62.0204
 L 3.00537,-62.5011 L 3.23917,-62.96 L 3.51964,-63.3919 L 3.84373,-63.7921 L 4.20789,-64.1563 L 4.60811,-64.4804
 L 4.95001,-64.7024 L 4.95001,-74 L 5.00574,-74.5302 L 5.17047,-75.0372 L 5.43701,-75.4988 L 5.79373,-75.895
 L 6.22501,-76.2084 L 6.71202,-76.4252 L 7.23346,-76.536 L 7.76654,-76.536 L 8.28798,-76.4252 L 8.77499,-76.2084
 L 9.20627,-75.895 L 9.56299,-75.4988 L 9.82953,-75.0372 L 9.99426,-74.5302 L 10.05,-74 L 10.05,-64.7024
 L 10.3919,-64.4804 L 10.7921,-64.1563 L 11.1563,-63.7921 L 11.4804,-63.3919 L 11.7608,-62.96 L 11.9946,-62.5011
 L 12.1792,-62.0204 L 12.3125,-61.5229 L 12.393,-61.0143 L 12.42,-60.5 L 12.393,-59.9857 L 12.3125,-59.4771
 L 12.1792,-58.9796 L 11.9946,-58.4989 L 11.7608,-58.04 L 11.4804,-57.6081 L 11.1563,-57.2079 L 10.7921,-56.8437
 L 10.3919,-56.5196 L 9.95999,-56.2392 L 9.50113,-56.0054 L 9.02036,-55.8208 L 8.52292,-55.6875 L 8.01427,-55.607
 L 7.5,-55.58 z
M 134.486,-55.607 L 133.977,-55.6875 L 133.48,-55.8208 L 132.999,-56.0054 L 132.54,-56.2392 L 132.108,-56.5196
 L 131.708,-56.8437 L 131.344,-57.2079 L 131.02,-57.6081 L 130.739,-58.04 L 130.505,-58.4989 L 130.321,-58.9796
 L 130.188,-59.4771 L 130.107,-59.9857 L 130.08,-60.5 L 130.107,-61.0143 L 130.188,-61.5229 L 130.321,-62.0204
 L 130.505,-62.5011 L 130.739,-62.96 L 131.02,-63.3919 L 131.344,-63.7921 L 131.708,-64.1563 L 132.108,-64.4804
 L 132.45,-64.7024 L 132.45,-74 L 132.506,-74.5302 L 132.67,-75.0372 L 132.937,-75.4988 L 133.294,-75.895
 L 133.725,-76.2084 L 134.212,-76.4252 L 134.733,-76.536 L 135.267,-76.536 L 135.788,-76.4252 L 136.275,-76.2084
 L 136.706,-75.895 L 137.063,-75.4988 L 137.33,-75.0372 L 137.494,-74.5302 L 137.55,-74 L 137.55,-64.7024
 L 137.892,-64.4804 L 138.292,-64.1563 L 138.656,-63.7921 L 138.98,-63.3919 L 139.261,-62.96 L 139.495,-62.5011
 L 139.679,-62.0204 L 139.812,-61.5229 L 139.893,-61.0143 L 139.92,-60.5 L 139.893,-59.9857 L 139.812,-59.4771
 L 139.679,-58.9796 L 139.495,-58.4989 L 139.261,-58.04 L 138.98,-57.6081 L 138.656,-57.2079 L 138.292,-56.8437
 L 137.892,-56.5196 L 137.46,-56.2392 L 137.001,-56.0054 L 136.52,-55.8208 L 136.023,-55.6875 L 135.514,-55.607
 L 135,-55.58 z
M 261.986,-55.607 L 261.477,-55.6875 L 260.98,-55.8208 L 260.499,-56.0054 L 260.04,-56.2392 L 259.608,-56.5196
 L 259.208,-56.8437 L 258.844,-57.2079 L 258.52,-57.6081 L 258.239,-58.04 L 258.005,-58.4989 L 257.821,-58.9796
 L 257.688,-59.4771 L 257.607,-59.9857 L 257.58,-60.5 L 257.607,-61.0143 L 257.688,-61.5229 L 257.821,-62.0204
 L 258.005,-62.5011 L 258.239,-62.96 L 258.52,-63.3919 L 258.844,-63.7921 L 259.208,-64.1563 L 259.608,-64.4804
 L 259.95,-64.7024 L 259.95,-74 L 260.006,-74.5302 L 260.17,-75.0372 L 260.437,-75.4988 L 260.794,-75.895
 L 261.225,-76.2084 L 261.712,-76.4252 L 262.233,-76.536 L 262.767,-76.536 L 263.288,-76.4252 L 263.775,-76.2084
 L 264.206,-75.895 L 264.563,-75.4988 L 264.83,-75.0372 L 264.994,-74.5302 L 265.05,-74 L 265.05,-64.7024
 L 265.392,-64.4804 L 265.792,-64.1563 L 266.156,-63.7921 L 266.48,-63.3919 L 266.761,-62.96 L 266.995,-62.5011
 L 267.179,-62.0204 L 267.312,-61.5229 L 267.393,-61.0143 L 267.42,-60.5 L 267.393,-59.9857 L 267.312,-59.4771
 L 267.179,-58.9796 L 266.995,-58.4989 L 266.761,-58.04 L 266.48,-57.6081 L 266.156,-57.2079 L 265.792,-56.8437
 L 265.392,-56.5196 L 264.96,-56.2392 L 264.501,-56.0054 L 264.02,-55.8208 L 263.523,-55.6875 L 263.014,-55.607
 L 262.5,-55.58 z
M 389.486,-55.607 L 388.977,-55.6875 L 388.48,-55.8208 L 387.999,-56.0054 L 387.54,-56.2392 L 387.108,-56.5196
 L 386.708,-56.8437 L 386.344,-57.2079 L 386.02,-57.6081 L 385.739,-58.04 L 385.505,-58.4989 L 385.321,-58.9796
 L 385.188,-59.4771 L 385.107,-59.9857 L 385.08,-60.5 L 385.107,-61.0143 L 385.188,-61.5229 L 385.321,-62.0204
 L 385.505,-62.5011 L 385.739,-62.96 L 386.02,-63.3919 L 386.344,-63.7921 L 386.708,-64.1563 L 387.108,-64.4804
 L 387.45,-64.7024 L 387.45,-74 L 387.506,-74.5302 L 387.67,-75.0372 L 387.937,-75.4988 L 388.294,-75.895
 L 388.725,-76.2084 L 389.212,-76.4252 L 389.733,-76.536 L 390.267,-76.536 L 390.788,-76.4252 L 391.275,-76.2084
 L 391.706,-75.895 L 392.063,-75.4988 L 392.33,-75.0372 L 392.494,-74.5302 L 392.55,-74 L 392.55,-64.7024
 L 392.892,-64.4804 L 393.292,-64.1563 L 393.656,-63.7921 L 393.98,-63.3919 L 394.261,-62.96 L 394.495,-62.5011
 L 394.679,-62.0204 L 394.812,-61.5229 L 394.893,-61.0143 L 394.92,-60.5 L 394.893,-59.9857 L 394.812,-59.4771
 L 394.679,-58.9796 L 394.495,-58.4989 L 394.261,-58.04 L 393.98,-57.6081 L 393.656,-57.2079 L 393.292,-56.8437
 L 392.892,-56.5196 L 392.46,-56.2392 L 392.001,-56.0054 L 391.52,-55.8208 L 391.023,-55.6875 L 390.514,-55.607
 L 390,-55.58 z
M 516.986,-55.607 L 516.477,-55.6875 L 515.98,-55.8208 L 515.499,-56.0054 L 515.04,-56.2392 L 514.608,-56.5196
 L 514.208,-56.8437 L 513.844,-57.2079 L 513.52,-57.6081 L 513.239,-58.04 L 513.005,-58.4989 L 512.821,-58.9796
 L 512.688,-59.4771 L 512.607,-59.9857 L 512.58,-60.5 L 512.607,-61.0143 L 512.688,-61.5229 L 512.821,-62.0204
 L 513.005,-62.5011 L 513.239,-62.96 L 513.52,-63.3919 L 513.844,-63.7921 L 514.208,-64.1563 L 514.608,-64.4804
 L 514.95,-64.7024 L 514.95,-74 L 515.006,-74.5302 L 515.17,-75.0372 L 515.437,-75.4988 L 515.794,-75.895
 L 516.225,-76.2084 L 516.712,-76.4252 L 517.233,-76.536 L 517.767,-76.536 L 518.288,-76.4252 L 518.775,-76.2084
 L 519.206,-75.895 L 519.563,-75.4988 L 519.83,-75.0372 L 519.994,-74.5302 L 520.05,-74 L 520.05,-64.7024
 L 520.392,-64.4804 L 520.792,-64.1563 L 521.156,-63.7921 L 521.48,-63.3919 L 521.761,-62.96 L 521.995,-62.5011
 L 522.179,-62.0204 L 522.312,-61.5229 L 522.393,-61.0143 L 522.42,-60.5 L 522.393,-59.9857 L 522.312,-59.4771
 L 522.179,-58.9796 L 521.995,-58.4989 L 521.761,-58.04 L 521.48,-57.6081 L 521.156,-57.2079 L 520.792,-56.8437
 L 520.392,-56.5196 L 519.96,-56.2392 L 519.501,-56.0054 L 519.02,-55.8208 L 518.523,-55.6875 L 518.014,-55.607
 L 517.5,-55.58 z
M 274.948,-23.6965 L 274.137,-23.8978 L 273.385,-24.2634 L 272.725,-24.7774 L 272.187,-25.4173 L 271.793,-26.1552
 L 271.562,-26.9587 L 271.5,-27.6583 L 271.5,-58 L 271.587,-58.8316 L 271.846,-59.627 L 272.264,-60.3511
 L 272.823,-60.9726 L 273.5,-61.4641 L 274.264,-61.8042 L 275.5,-62 L 332.391,-62 L 333.222,-61.9126
 L 334.018,-61.6542 L 334.742,-61.2361 L 335.363,-60.6765 L 335.855,-60 L 336.195,-59.2361 L 336.369,-58.4181
 L 336.369,-57.5819 L 336.195,-56.7639 L 335.855,-56 L 335.363,-55.3235 L 334.742,-54.7639 L 334.273,-54.4706
 L 277.382,-24.1289 L 276.607,-23.8147 L 275.784,-23.6684 z
M 248.393,-23.8147 L 247.618,-24.1289 L 190.727,-54.4706 L 190.258,-54.7639 L 189.637,-55.3235 L 189.145,-56
 L 188.805,-56.7639 L 188.631,-57.5819 L 188.631,-58.4181 L 188.805,-59.2361 L 189.145,-60 L 189.637,-60.6765
 L 190.258,-61.2361 L 190.982,-61.6542 L 191.778,-61.9126 L 192.609,-62 L 249.5,-62 L 250.736,-61.8042
 L 251.5,-61.4641 L 252.177,-60.9726 L 252.736,-60.3511 L 253.154,-59.627 L 253.413,-58.8316 L 253.5,-58
 L 253.5,-27.6583 L 253.438,-26.9587 L 253.207,-26.1552 L 252.813,-25.4173 L 252.275,-24.7774 L 251.615,-24.2634
 L 250.863,-23.8978 L 250.052,-23.6965 L 249.216,-23.6684 z
M 402.448,-23.6965 L 401.637,-23.8978 L 400.885,-24.2634 L 400.225,-24.7774 L 399.687,-25.4173 L 399.293,-26.1552
 L 399.062,-26.9587 L 399,-27.6583 L 399,-58 L 399.087,-58.8316 L 399.346,-59.627 L 399.764,-60.3511
 L 400.323,-60.9726 L 401,-61.4641 L 401.764,-61.8042 L 403,-62 L 459.891,-62 L 460.722,-61.9126
 L 461.518,-61.6542 L 462.242,-61.2361 L 462.863,-60.6765 L 463.355,-60 L 463.695,-59.2361 L 463.869,-58.4181
 L 463.869,-57.5819 L 463.695,-56.7639 L 463.355,-56 L 462.863,-55.3235 L 462.242,-54.7639 L 461.773,-54.4706
 L 404.882,-24.1289 L 404.107,-23.8147 L 403.284,-23.6684 z
M 120.893,-23.8147 L 120.118,-24.1289 L 63.227,-54.4706 L 62.7582,-54.7639 L 62.1368,-55.3235 L 61.6452,-56
 L 61.3051,-56.7639 L 61.1313,-57.5819 L 61.1313,-58.4181 L 61.3051,-59.2361 L 61.6452,-60 L 62.1368,-60.6765
 L 62.7582,-61.2361 L 63.4824,-61.6542 L 64.2777,-61.9126 L 65.1093,-62 L 122,-62 L 123.236,-61.8042
 L 124,-61.4641 L 124.677,-60.9726 L 125.236,-60.3511 L 125.654,-59.627 L 125.913,-58.8316 L 126,-58
 L 126,-27.6583 L 125.938,-26.9587 L 125.707,-26.1552 L 125.313,-25.4173 L 124.775,-24.7774 L 124.115,-24.2634
 L 123.363,-23.8978 L 122.552,-23.6965 L 121.716,-23.6684 z
M 320.109,-18 L 319.278,-18.0874 L 318.482,-18.3458 L 317.758,-18.7639 L 317.137,-19.3235 L 316.645,-20
 L 316.305,-20.7639 L 316.131,-21.5819 L 316.131,-22.4181 L 316.305,-23.2361 L 316.645,-24 L 317.137,-24.6765
 L 317.758,-25.2361 L 318.227,-25.5294 L 375.118,-55.8711 L 375.893,-56.1853 L 376.716,-56.3316 L 377.552,-56.3035
 L 378.363,-56.1022 L 379.115,-55.7365 L 379.775,-55.2225 L 380.313,-54.5826 L 380.707,-53.8448 L 380.938,-53.0412
 L 381,-52.3417 L 381,-22 L 380.913,-21.1684 L 380.654,-20.373 L 380.236,-19.6489 L 379.677,-19.0274
 L 379,-18.5359 L 378.236,-18.1958 L 377,-18 z
M 148,-18 L 146.764,-18.1958 L 146,-18.5359 L 145.323,-19.0274 L 144.764,-19.6489 L 144.346,-20.373
 L 144.087,-21.1684 L 144,-22 L 144,-52.3417 L 144.062,-53.0412 L 144.293,-53.8448 L 144.687,-54.5826
 L 145.225,-55.2225 L 145.885,-55.7365 L 146.637,-56.1022 L 147.448,-56.3035 L 148.284,-56.3316 L 149.107,-56.1853
 L 149.882,-55.8711 L 206.773,-25.5294 L 207.242,-25.2361 L 207.863,-24.6765 L 208.355,-24 L 208.695,-23.2361
 L 208.869,-22.4181 L 208.869,-21.5819 L 208.695,-20.7639 L 208.355,-20 L 207.863,-19.3235 L 207.242,-18.7639
 L 206.518,-18.3458 L 205.722,-18.0874 L 204.891,-18 z
M 22,-18 L 20.7639,-18.1958 L 20,-18.5359 L 19.3235,-19.0274 L 18.7639,-19.6489 L 18.3458,-20.373
 L 18.0874,-21.1684 L 18,-22 L 18,-51.5417 L 18.0616,-52.2412 L 18.2932,-53.0448 L 18.6867,-53.7826
 L 19.225,-54.4225 L 19.8846,-54.9365 L 20.6367,-55.3022 L 21.4483,-55.5034 L 22.2841,-55.5316 L 23.1074,-55.3853
 L 23.8824,-55.0711 L 79.273,-25.5294 L 79.7418,-25.2361 L 80.3632,-24.6765 L 80.8547,-24 L 81.1949,-23.2361
 L 81.3687,-22.4181 L 81.3687,-21.5819 L 81.1949,-20.7639 L 80.8547,-20 L 80.3632,-19.3235 L 79.7418,-18.7639
 L 79.0176,-18.3458 L 78.2223,-18.0874 L 77.3906,-18 z
M 447.609,-18 L 446.778,-18.0874 L 445.982,-18.3458 L 445.258,-18.7639 L 444.637,-19.3235 L 444.145,-20
 L 443.805,-20.7639 L 443.631,-21.5819 L 443.631,-22.4181 L 443.805,-23.2361 L 444.145,-24 L 444.637,-24.6765
 L 445.258,-25.2361 L 445.727,-25.5294 L 501.118,-55.0711 L 501.893,-55.3853 L 502.716,-55.5316 L 503.552,-55.5034
 L 504.363,-55.3022 L 505.115,-54.9365 L 505.775,-54.4225 L 506.313,-53.7826 L 506.707,-53.0448 L 506.938,-52.2412
 L 507,-51.5417 L 507,-22 L 506.913,-21.1684 L 506.654,-20.373 L 506.236,-19.6489 L 505.677,-19.0274
 L 505,-18.5359 L 504.236,-18.1958 L 503,-18 z
" stroke="black" fill="lightgray" stroke-width="0.5"/>
</svg>
