<?xml version="1.0" standalone="no"?>
<!DOCTYPE svg PUBLIC "-//W3C//DTD SVG 1.1//EN" "http://www.w3.org/Graphics/SVG/1.1/DTD/svg11.dtd">
<svg width="834mm" height="80mm" viewBox="0 -80 834 80" xmlns="http://www.w3.org/2000/svg" version="1.1">
<title>OpenSCAD Model</title>
<path d="
M 834,-80 L 0,-80 L 0,-0 L 4.95,-0 L 4.95,-6 L 5.00572,-6.53017
 L 5.17046,-7.03717 L 5.437,-7.49884 L 5.79372,-7.895 L 6.22499,-8.20836 L 6.71201,-8.42519 L 7.23344,-8.53603
 L 7.76654,-8.53603 L 8.28798,-8.42519 L 8.77499,-8.20836 L 9.20627,-7.895 L 9.56299,-7.49884 L 9.82953,-7.03717
 L 9.99426,-6.53017 L 10.05,-6 L 10.05,-0 L 168.75,-0 L 168.75,-6 L 168.806,-6.53017
 L 168.97,-7.03717 L 169.237,-7.49884 L 169.594,-7.895 L 170.025,-8.20836 L 170.512,-8.42519 L 171.033,-8.53603
 L 171.567,-8.53603 L 172.088,-8.42519 L 172.575,-8.20836 L 173.006,-7.895 L 173.363,-7.49884 L 173.63,-7.03717
 L 173.794,-6.53017 L 173.85,-6 L 173.85,-0 L 332.55,-0 L 332.55,-6 L 332.606,-6.53017
 L 332.77,-7.03717 L 333.037,-7.49884 L 333.394,-7.895 L 333.825,-8.20836 L 334.312,-8.42519 L 334.833,-8.53603
 L 335.367,-8.53603 L 335.888,-8.42519 L 336.375,-8.20836 L 336.806,-7.895 L 337.163,-7.49884 L 337.43,-7.03717
 L 337.594,-6.53017 L 337.65,-6 L 337.65,-0 L 496.35,-0 L 496.35,-6 L 496.406,-6.53017
 L 496.57,-7.03717 L 496.837,-7.49884 L 497.194,-7.895 L 497.625,-8.20836 L 498.112,-8.42519 L 498.633,-8.53603
 L 499.167,-8.53603 L 499.688,-8.42519 L 500.175,-8.20836 L 500.606,-7.895 L 500.963,-7.49884 L 501.23,-7.03717
 L 501.394,-6.53017 L 501.45,-6 L 501.45,-0 L 660.15,-0 L 660.15,-6 L 660.206,-6.53017
 L 660.37,-7.03717 L 660.637,-7.49884 L 660.994,-7.895 L 661.425,-8.20836 L 661.912,-8.42519 L 662.433,-8.53603
 L 662.967,-8.53603 L 663.488,-8.42519 L 663.975,-8.20836 L 664.406,-7.895 L 664.763,-7.49884 L 665.03,-7.03717
 L 665.194,-6.53017 L 665.25,-6 L 665.25,-0 L 823.95,-0 L 823.95,-6 L 824.006,-6.53017
 L 824.17,-7.03717 L 824.437,-7.49884 L 824.794,-7.895 L 825.225,-8.20836 L 825.712,-8.42519 L 826.233,-8.53603
 L 826.767,-8.53603 L 827.288,-8.42519 L 827.775,-8.20836 L 828.206,-7.895 L 828.563,-7.49884 L 828.83,-7.03717
 L 828.994,-6.53017 L 829.05,-6 L 829.05,-0 L 834,-0 z
M 6.98573,-55.607 L 6.47708,-55.6875 L 5.97964,-55.8208 L 5.49887,-56.0054 L 5.04001,-56.2392 L 4.60811,-56.5196
 L 4.20789,-56.8437 L 3.84373,-57.2079 L 3.51964,-57.6081 L 3.23917,-58.04 L 3.00537,-58.4989 L 2.82082,-58.9796
 L 2.68752,-59.4771 L 2.60696,-59.9857 L 2.58,-60.5 L 2.60696,-61.0143 L 2.68752,-61.5229 L 2.82082,-62.0204
 L 3.00537,-62.5011 L 3.23917,-62.96 L 3.51964,-63.3919 L 3.84373,-63.7921 L 4.20789,-64.1563 L 4.60811,-64.4804
 L 4.95001,-64.7024 L 4.95001,-74 L 5.00574,-74.5302 L 5.17047,-75.0372 L 5.43701,-75.4988 L 5.79373,-75.895
 L 6.22501,-76.2084 L 6.71202,-76.4252 L 7.23346,-76.536 L 7.76654,-76.536 L 8.28798,-76.4252 L 8.77499,-76.2084
 L 9.20627,-75.895 L 9.56299,-75.4988 L 9.82953,-75.0372 L 9.99426,-74.5302 L 10.05,-74 L 10.05,-64.7024
 L 10.3919,-64.4804 L 10.7921,-64.1563 L 11.1563,-63.7921 L 11.4804,-63.3919 L 11.7608,-62.96 L 11.9946,-62.5011
 L 12.1792,-62.0204 L 12.3125,-61.5229 L 12.393,-61.0143 L 12.42,-60.5 L 12.393,-59.9857 L 12.3125,-59.4771
 L 12.1792,-58.9796 L 11.9946,-58.4989 L 11.7608,-58.04 L 11.4804,-57.6081 L 11.1563,-57.2079 L 10.7921,-56.8437
 L 10.3919,-56.5196 L 9.95999,-56.2392 L 9.50113,-56.0054 L 9.02036,-55.8208 L 8.52292,-55.6875 L 8.01427,-55.607
 L 7.5,-55.58 z
M 170.786,-55.607 L 170.277,-55.6875 L 169.78,-55.8208 L 169.299,-56.0054 L 168.84,-56.2392 L 168.408,-56.5196
 L 168.008,-56.8437 L 167.644,-57.2079 L 167.32,-57.6081 L 167.039,-58.04 L 166.805,-58.4989 L 166.621,-58.9796
 L 166.488,-59.4771 L 166.407,-59.9857 L 166.38,-60.5 L 166.407,-61.0143 L 166.488,-61.5229 L 166.621,-62.0204
 L 166.805,-62.5011 L 167.039,-62.96 L 167.32,-63.3919 L 167.644,-63.7921 L 168.008,-64.1563 L 168.408,-64.4804
 L 168.75,-64.7024 L 168.75,-74 L 168.806,-74.5302 L 168.97,-75.0372 L 169.237,-75.4988 L 169.594,-75.895
 L 170.025,-76.2084 L 170.512,-76.4252 L 171.033,-76.536 L 171.567,-76.536 L 172.088,-76.4252 L 172.575,-76.2084
 L 173.006,-75.895 L 173.363,-75.4988 L 173.63,-75.0372 L 173.794,-74.5302 L 173.85,-74 L 173.85,-64.7024
 L 174.192,-64.4804 L 174.592,-64.1563 L 174.956,-63.7921 L 175.28,-63.3919 L 175.561,-62.96 L 175.795,-62.5011
 L 175.979,-62.0204 L 176.112,-61.5229 L 176.193,-61.0143 L 176.22,-60.5 L 176.193,-59.9857 L 176.112,-59.4771
 L 175.979,-58.9796 L 175.795,-58.4989 L 175.561,-58.04 L 175.28,-57.6081 L 174.956,-57.2079 L 174.592,-56.8437
 L 174.192,-56.5196 L 173.76,-56.2392 L 173.301,-56.0054 L 172.82,-55.8208 L 172.323,-55.6875 L 171.814,-55.607
 L 171.3,-55.58 z
M 334.586,-55.607 L 334.077,-55.6875 L 333.58,-55.8208 L 333.099,-56.0054 L 332.64,-56.2392 L 332.208,-56.5196
 L 331.808,-56.8437 L 331.444,-57.2079 L 331.12,-57.6081 L 330.839,-58.04 L 330.605,-58.4989 L 330.421,-58.9796
 L 330.288,-59.4771 L 330.207,-59.9857 L 330.18,-60.5 L 330.207,-61.0143 L 330.288,-61.5229 L 330.421,-62.0204
 L 330.605,-62.5011 L 330.839,-62.96 L 331.12,-63.3919 L 331.444,-63.7921 L 331.808,-64.1563 L 332.208,-64.4804
 L 332.55,-64.7024 L 332.55,-74 L 332.606,-74.5302 L 332.77,-75.0372 L 333.037,-75.4988 L 333.394,-75.895
 L 333.825,-76.2084 L 334.312,-76.4252 L 334.833,-76.536 L 335.367,-76.536 L 335.888,-76.4252 L 336.375,-76.2084
 L 336.806,-75.895 L 337.163,-75.4988 L 337.43,-75.0372 L 337.594,-74.5302 L 337.65,-74 L 337.65,-64.7024
 L 337.992,-64.4804 L 338.392,-64.1563 L 338.756,-63.7921 L 339.08,-63.3919 L 339.361,-62.96 L 339.595,-62.5011
 L 339.779,-62.0204 L 339.912,-61.5229 L 339.993,-61.0143 L 340.02,-60.5 L 339.993,-59.9857 L 339.912,-59.4771
 L 339.779,-58.9796 L 339.595,-58.4989 L 339.361,-58.04 L 339.08,-57.6081 L 338.756,-57.2079 L 338.392,-56.8437
 L 337.992,-56.5196 L 337.56,-56.2392 L 337.101,-56.0054 L 336.62,-55.8208 L 336.123,-55.6875 L 335.614,-55.607
 L 335.1,-55.58 z
M 498.386,-55.607 L 497.877,-55.6875 L 497.38,-55.8208 L 496.899,-56.0054 L 496.44,-56.2392 L 496.008,-56.5196
 L 495.608,-56.8437 L 495.244,-57.2079 L 494.92,-57.6081 L 494.639,-58.04 L 494.405,-58.4989 L 494.221,-58.9796
 L 494.088,-59.4771 L 494.007,-59.9857 L 493.98,-60.5 L 494.007,-61.0143 L 494.088,-61.5229 L 494.221,-62.0204
 L 494.405,-62.5011 L 494.639,-62.96 L 494.92,-63.3919 L 495.244,-63.7921 L 495.608,-64.1563 L 496.008,-64.4804
 L 496.35,-64.7024 L 496.35,-74 L 496.406,-74.5302 L 496.57,-75.0372 L 496.837,-75.4988 L 497.194,-75.895
 L 497.625,-76.2084 L 498.112,-76.4252 L 498.633,-76.536 L 499.167,-76.536 L 499.688,-76.4252 L 500.175,-76.2084
 L 500.606,-75.895 L 500.963,-75.4988 L 501.23,-75.0372 L 501.394,-74.5302 L 501.45,-74 L 501.45,-64.7024
 L 501.792,-64.4804 L 502.192,-64.1563 L 502.556,-63.7921 L 502.88,-63.3919 L 503.161,-62.96 L 503.395,-62.5011
 L 503.579,-62.0204 L 503.712,-61.5229 L 503.793,-61.0143 L 503.82,-60.5 L 503.793,-59.9857 L 503.712,-59.4771
 L 503.579,-58.9796 L 503.395,-58.4989 L 503.161,-58.04 L 502.88,-57.6081 L 502.556,-57.2079 L 502.192,-56.8437
 L 501.792,-56.5196 L 501.36,-56.2392 L 500.901,-56.0054 L 500.42,-55.8208 L 499.923,-55.6875 L 499.414,-55.607
 L 498.9,-55.58 z
M 662.186,-55.607 L 661.677,-55.6875 L 661.18,-55.8208 L 660.699,-56.0054 L 660.24,-56.2392 L 659.808,-56.5196
 L 659.408,-56.8437 L 659.044,-57.2079 L 658.72,-57.6081 L 658.439,-58.04 L 658.205,-58.4989 L 658.021,-58.9796
 L 657.888,-59.4771 L 657.807,-59.9857 L 657.78,-60.5 L 657.807,-61.0143 L 657.888,-61.5229 L 658.021,-62.0204
 L 658.205,-62.5011 L 658.439,-62.96 L 658.72,-63.3919 L 659.044,-63.7921 L 659.408,-64.1563 L 659.808,-64.4804
 L 660.15,-64.7024 L 660.15,-74 L 660.206,-74.5302 L 660.37,-75.0372 L 660.637,-75.4988 L 660.994,-75.895
 L 661.425,-76.2084 L 661.912,-76.4252 L 662.433,-76.536 L 662.967,-76.536 L 663.488,-76.4252 L 663.975,-76.2084
 L 664.406,-75.895 L 664.763,-75.4988 L 665.03,-75.0372 L 665.194,-74.5302 L 665.25,-74 L 665.25,-64.7024
 L 665.592,-64.4804 L 665.992,-64.1563 L 666.356,-63.7921 L 666.68,-63.3919 L 666.961,-62.96 L 667.195,-62.5011
 L 667.379,-62.0204 L 667.512,-61.5229 L 667.593,-61.0143 L 667.62,-60.5 L 667.593,-59.9857 L 667.512,-59.4771
 L 667.379,-58.9796 L 667.195,-58.4989 L 666.961,-58.04 L 666.68,-57.6081 L 666.356,-57.2079 L 665.992,-56.8437
 L 665.592,-56.5196 L 665.16,-56.2392 L 664.701,-56.0054 L 664.22,-55.8208 L 663.723,-55.6875 L 663.214,-55.607
 L 662.7,-55.58 z
M 825.986,-55.607 L 825.477,-55.6875 L 824.98,-55.8208 L 824.499,-56.0054 L 824.04,-56.2392 L 823.608,-56.5196
 L 823.208,-56.8437 L 822.844,-57.2079 L 822.52,-57.6081 L 822.239,-58.04 L 822.005,-58.4989 L 821.821,-58.9796
 L 821.688,-59.4771 L 821.607,-59.9857 L 821.58,-60.5 L 821.607,-61.0143 L 821.688,-61.5229 L 821.821,-62.0204
 L 822.005,-62.5011 L 822.239,-62.96 L 822.52,-63.3919 L 822.844,-63.7921 L 823.208,-64.1563 L 823.608,-64.4804
 L 823.95,-64.7024 L 823.95,-74 L 824.006,-74.5302 L 824.17,-75.0372 L 824.437,-75.4988 L 824.794,-75.895
 L 825.225,-76.2084 L 825.712,-76.4252 L 826.233,-76.536 L 826.767,-76.536 L 827.288,-76.4252 L 827.775,-76.2084
 L 828.206,-75.895 L 828.563,-75.4988 L 828.83,-75.0372 L 828.994,-74.5302 L 829.05,-74 L 829.05,-64.7024
 L 829.392,-64.4804 L 829.792,-64.1563 L 830.156,-63.7921 L 830.48,-63.3919 L 830.761,-62.96 L 830.995,-62.5011
 L 831.179,-62.0204 L 831.312,-61.5229 L 831.393,-61.0143 L 831.42,-60.5 L 831.393,-59.9857 L 831.312,-59.4771
 L 831.179,-58.9796 L 830.995,-58.4989 L 830.761,-58.04 L 830.48,-57.6081 L 830.156,-57.2079 L 829.792,-56.8437
 L 829.392,-56.5196 L 828.96,-56.2392 L 828.501,-56.0054 L 828.02,-55.8208 L 827.523,-55.6875 L 827.014,-55.607
 L 826.5,-55.58 z
M 416.268,-47.9739 L 415.466,-48.2121 L 400.788,-54.3057 L 399.97,-54.7639 L 399.349,-55.3235 L 398.857,-56
 L 398.517,-56.7639 L 398.343,-57.5819 L 398.343,-58.4181 L 398.517,-59.2361 L 398.857,-60 L 399.349,-60.6765
 L 399.97,-61.2361 L 400.695,-61.6542 L 401.49,-61.9126 L 402.322,-62 L 431.678,-62 L 432.609,-61.8902
 L 433.398,-61.6117 L 434.111,-61.1753 L 434.718,-60.6002 L 435.192,-59.9114 L 435.513,-59.1391 L 435.666,-58.317
 L 435.645,-57.481 L 435.45,-56.6678 L 435.091,-55.9127 L 434.582,-55.2489 L 433.947,-54.7053 L 433.212,-54.3057
 L 418.534,-48.2121 L 417.931,-48.0162 L 417.102,-47.9077 z
M 321.368,-21.5356 L 320.566,-21.7737 L 242.202,-54.3057 L 241.385,-54.7639 L 240.764,-55.3235 L 240.272,-56
 L 239.932,-56.7639 L 239.758,-57.5819 L 239.758,-58.4181 L 239.932,-59.2361 L 240.272,-60 L 240.764,-60.6765
 L 241.385,-61.2361 L 242.109,-61.6542 L 242.904,-61.9126 L 243.736,-62 L 322.1,-62 L 323.336,-61.8042
 L 324.1,-61.4641 L 324.777,-60.9726 L 325.336,-60.3511 L 325.754,-59.627 L 326.013,-58.8316 L 326.1,-58
 L 326.1,-25.468 L 325.934,-24.3289 L 325.614,-23.5566 L 325.14,-22.8678 L 324.533,-22.2927 L 323.819,-21.8563
 L 323.031,-21.5778 L 322.202,-21.4693 z
M 674.769,-21.5778 L 673.981,-21.8563 L 673.267,-22.2927 L 672.66,-22.8678 L 672.186,-23.5566 L 671.866,-24.3289
 L 671.7,-25.468 L 671.7,-58 L 671.787,-58.8316 L 672.046,-59.627 L 672.464,-60.3511 L 673.023,-60.9726
 L 673.7,-61.4641 L 674.464,-61.8042 L 675.7,-62 L 754.064,-62 L 754.896,-61.9126 L 755.691,-61.6542
 L 756.415,-61.2361 L 757.036,-60.6765 L 757.528,-60 L 757.868,-59.2361 L 758.042,-58.4181 L 758.042,-57.5819
 L 757.868,-56.7639 L 757.528,-56 L 757.036,-55.3235 L 756.415,-54.7639 L 755.598,-54.3057 L 677.234,-21.7737
 L 676.432,-21.5356 L 675.598,-21.4693 z
M 157.568,-21.5356 L 156.766,-21.7737 L 78.4025,-54.3057 L 77.585,-54.7639 L 76.9635,-55.3235 L 76.472,-56
 L 76.1319,-56.7639 L 75.958,-57.5819 L 75.958,-58.4181 L 76.1319,-59.2361 L 76.472,-60 L 76.9635,-60.6765
 L 77.585,-61.2361 L 78.3092,-61.6542 L 79.1045,-61.9126 L 79.9361,-62 L 158.3,-62 L 159.536,-61.8042
 L 160.3,-61.4641 L 160.977,-60.9726 L 161.536,-60.3511 L 161.954,-59.627 L 162.213,-58.8316 L 162.3,-58
 L 162.3,-25.468 L 162.134,-24.3289 L 161.814,-23.5566 L 161.34,-22.8678 L 160.733,-22.2927 L 160.019,-21.8563
 L 159.231,-21.5778 L 158.402,-21.4693 z
M 510.969,-21.5778 L 510.181,-21.8563 L 509.467,-22.2927 L 508.86,-22.8678 L 508.386,-23.5566 L 508.066,-24.3289
 L 507.9,-25.468 L 507.9,-58 L 507.987,-58.8316 L 508.246,-59.627 L 508.664,-60.3511 L 509.223,-60.9726
 L 509.9,-61.4641 L 510.664,-61.8042 L 511.9,-62 L 590.264,-62 L 591.096,-61.9126 L 591.891,-61.6542
 L 592.615,-61.2361 L 593.236,-60.6765 L 593.728,-60 L 594.068,-59.2361 L 594.242,-58.4181 L 594.242,-57.5819
 L 594.068,-56.7639 L 593.728,-56 L 593.236,-55.3235 L 592.615,-54.7639 L 591.798,-54.3057 L 513.434,-21.7737
 L 512.632,-21.5356 L 511.798,-21.4693 z
M 347.682,-19.3251 L 346.864,-19.499 L 346.1,-19.8391 L 345.423,-20.3306 L 344.864,-20.9521 L 344.446,-21.6763
 L 344.187,-22.4716 L 344.1,-23.3032 L 344.1,-56.6968 L 344.266,-57.8359 L 344.586,-58.6082 L 345.06,-59.297
 L 345.667,-59.8721 L 346.381,-60.3085 L 347.169,-60.587 L 347.998,-60.6955 L 348.832,-60.6292 L 349.634,-60.3911
 L 389.853,-43.6943 L 390.752,-43.1753 L 391.359,-42.6002 L 391.833,-41.9114 L 392.154,-41.1391 L 392.307,-40.317
 L 392.286,-39.481 L 392.091,-38.6678 L 391.732,-37.9127 L 391.223,-37.2489 L 390.588,-36.7053 L 389.853,-36.3057
 L 349.634,-19.6089 L 348.518,-19.3251 z
M 485.168,-19.3708 L 484.366,-19.6089 L 444.147,-36.3057 L 443.248,-36.8247 L 442.641,-37.3998 L 442.167,-38.0886
 L 441.846,-38.8609 L 441.693,-39.683 L 441.714,-40.519 L 441.909,-41.3322 L 442.268,-42.0873 L 442.777,-42.7511
 L 443.412,-43.2947 L 444.147,-43.6943 L 484.366,-60.3911 L 485.482,-60.6749 L 486.318,-60.6749 L 487.136,-60.501
 L 487.9,-60.1609 L 488.577,-59.6694 L 489.136,-59.0479 L 489.554,-58.3237 L 489.813,-57.5284 L 489.9,-56.6968
 L 489.9,-23.3032 L 489.734,-22.1641 L 489.414,-21.3918 L 488.94,-20.703 L 488.333,-20.1279 L 487.619,-19.6915
 L 486.831,-19.413 L 486.002,-19.3045 z
M 184.3,-18 L 183.064,-18.1958 L 182.3,-18.5359 L 181.623,-19.0274 L 181.064,-19.6489 L 180.646,-20.373
 L 180.387,-21.1684 L 180.3,-22 L 180.3,-54.532 L 180.466,-55.6711 L 180.786,-56.4434 L 181.26,-57.1322
 L 181.867,-57.7073 L 182.581,-58.1437 L 183.369,-58.4222 L 184.198,-58.5307 L 185.032,-58.4644 L 185.834,-58.2263
 L 264.197,-25.6943 L 265.015,-25.2361 L 265.636,-24.6765 L 266.128,-24 L 266.468,-23.2361 L 266.642,-22.4181
 L 266.642,-21.5819 L 266.468,-20.7639 L 266.128,-20 L 265.636,-19.3235 L 265.015,-18.7639 L 264.291,-18.3458
 L 263.495,-18.0874 L 262.664,-18 z
M 571.336,-18 L 570.505,-18.0874 L 569.709,-18.3458 L 568.985,-18.7639 L 568.364,-19.3235 L 567.872,-20
 L 567.532,-20.7639 L 567.358,-21.5819 L 567.358,-22.4181 L 567.532,-23.2361 L 567.872,-24 L 568.364,-24.6765
 L 568.985,-25.2361 L 569.802,-25.6943 L 648.166,-58.2263 L 648.968,-58.4644 L 649.802,-58.5307 L 650.631,-58.4222
 L 651.419,-58.1437 L 652.133,-57.7073 L 652.74,-57.1322 L 653.214,-56.4434 L 653.534,-55.6711 L 653.7,-54.532
 L 653.7,-22 L 653.613,-21.1684 L 653.354,-20.373 L 652.936,-19.6489 L 652.377,-19.0274 L 651.7,-18.5359
 L 650.936,-18.1958 L 649.7,-18 z
M 22,-18 L 20.7639,-18.1958 L 20,-18.5359 L 19.3235,-19.0274 L 18.7639,-19.6489 L 18.3458,-20.373
 L 18.0874,-21.1684 L 18,-22 L 18,-53.9093 L 18.1656,-55.0484 L 18.4862,-55.8207 L 18.9604,-56.5095
 L 19.5675,-57.0846 L 20.2808,-57.521 L 21.0693,-57.7995 L 21.8985,-57.908 L 22.7321,-57.8417 L 23.5337,-57.6036
 L 100.398,-25.6943 L 101.215,-25.2361 L 101.836,-24.6765 L 102.328,-24 L 102.668,-23.2361 L 102.842,-22.4181
 L 102.842,-21.5819 L 102.668,-20.7639 L 102.328,-20 L 101.836,-19.3235 L 101.215,-18.7639 L 100.491,-18.3458
 L 99.6955,-18.0874 L 98.8638,-18 z
M 735.136,-18 L 734.305,-18.0874 L 733.509,-18.3458 L 732.785,-18.7639 L 732.164,-19.3235 L 731.672,-20
 L 731.332,-20.7639 L 731.158,-21.5819 L 731.158,-22.4181 L 731.332,-23.2361 L 731.672,-24 L 732.164,-24.6765
 L 732.785,-25.2361 L 733.602,-25.6943 L 810.466,-57.6036 L 811.268,-57.8417 L 812.102,-57.908 L 812.931,-57.7995
 L 813.719,-57.521 L 814.433,-57.0846 L 815.04,-56.5095 L 815.514,-55.8207 L 815.834,-55.0484 L 816,-53.9093
 L 816,-22 L 815.913,-21.1684 L 815.654,-20.373 L 815.236,-19.6489 L 814.677,-19.0274 L 814,-18.5359
 L 813.236,-18.1958 L 812,-18 z
M 402.322,-18 L 401.391,-18.1098 L 400.602,-18.3883 L 399.889,-18.8247 L 399.282,-19.3998 L 398.808,-20.0886
 L 398.487,-20.8609 L 398.334,-21.683 L 398.355,-22.519 L 398.55,-23.3322 L 398.909,-24.0873 L 399.418,-24.7511
 L 400.053,-25.2947 L 400.788,-25.6943 L 415.466,-31.7879 L 416.069,-31.9838 L 416.898,-32.0923 L 417.732,-32.0261
 L 418.534,-31.7879 L 433.212,-25.6943 L 434.03,-25.2361 L 434.651,-24.6765 L 435.143,-24 L 435.483,-23.2361
 L 435.657,-22.4181 L 435.657,-21.5819 L 435.483,-20.7639 L 435.143,-20 L 434.651,-19.3235 L 434.03,-18.7639
 L 433.305,-18.3458 L 432.51,-18.0874 L 431.678,-18 z
" stroke="black" fill="lightgray" stroke-width="0.5"/>
</svg>
