<?xml version="1.0" standalone="no"?>
<!DOCTYPE svg PUBLIC "-//W3C//DTD SVG 1.1//EN" "http://www.w3.org/Graphics/SVG/1.1/DTD/svg11.dtd">
<svg width="893mm" height="80mm" viewBox="0 -80 893 80" xmlns="http://www.w3.org/2000/svg" version="1.1">
<title>OpenSCAD Model</title>
<path d="
M 893,-80 L 0,-80 L 0,-0 L 4.95,-0 L 4.95,-6 L 5.00572,-6.53017
 L 5.17046,-7.03717 L 5.437,-7.49884 L 5.79372,-7.895 L 6.22499,-8.20836 L 6.71201,-8.42519 L 7.23344,-8.53603
 L 7.76654,-8.53603 L 8.28798,-8.42519 L 8.77499,-8.20836 L 9.20627,-7.895 L 9.56299,-7.49884 L 9.82953,-7.03717
 L 9.99426,-6.53017 L 10.05,-6 L 10.05,-0 L 180.55,-0 L 180.55,-6 L 180.606,-6.53017
 L 180.77,-7.03717 L 181.037,-7.49884 L 181.394,-7.895 L 181.825,-8.20836 L 182.312,-8.42519 L 182.833,-8.53603
 L 183.367,-8.53603 L 183.888,-8.42519 L 184.375,-8.20836 L 184.806,-7.895 L 185.163,-7.49884 L 185.43,-7.03717
 L 185.594,-6.53017 L 185.65,-6 L 185.65,-0 L 356.15,-0 L 356.15,-6 L 356.206,-6.53017
 L 356.37,-7.03717 L 356.637,-7.49884 L 356.994,-7.895 L 357.425,-8.20836 L 357.912,-8.42519 L 358.433,-8.53603
 L 358.967,-8.53603 L 359.488,-8.42519 L 359.975,-8.20836 L 360.406,-7.895 L 360.763,-7.49884 L 361.03,-7.03717
 L 361.194,-6.53017 L 361.25,-6 L 361.25,-0 L 531.75,-0 L 531.75,-6 L 531.806,-6.53017
 L 531.97,-7.03717 L 532.237,-7.49884 L 532.594,-7.895 L 533.025,-8.20836 L 533.512,-8.42519 L 534.033,-8.53603
 L 534.567,-8.53603 L 535.088,-8.42519 L 535.575,-8.20836 L 536.006,-7.895 L 536.363,-7.49884 L 536.63,-7.03717
 L 536.794,-6.53017 L 536.85,-6 L 536.85,-0 L 707.35,-0 L 707.35,-6 L 707.406,-6.53017
 L 707.57,-7.03717 L 707.837,-7.49884 L 708.194,-7.895 L 708.625,-8.20836 L 709.112,-8.42519 L 709.633,-8.53603
 L 710.167,-8.53603 L 710.688,-8.42519 L 711.175,-8.20836 L 711.606,-7.895 L 711.963,-7.49884 L 712.23,-7.03717
 L 712.394,-6.53017 L 712.45,-6 L 712.45,-0 L 882.95,-0 L 882.95,-6 L 883.006,-6.53017
 L 883.17,-7.03717 L 883.437,-7.49884 L 883.794,-7.895 L 884.225,-8.20836 L 884.712,-8.42519 L 885.233,-8.53603
 L 885.767,-8.53603 L 886.288,-8.42519 L 886.775,-8.20836 L 887.206,-7.895 L 887.563,-7.49884 L 887.83,-7.03717
 L 887.994,-6.53017 L 888.05,-6 L 888.05,-0 L 893,-0 z
M 6.98573,-55.607 L 6.47708,-55.6875 L 5.97964,-55.8208 L 5.49887,-56.0054 L 5.04001,-56.2392 L 4.60811,-56.5196
 L 4.20789,-56.8437 L 3.84373,-57.2079 L 3.51964,-57.6081 L 3.23917,-58.04 L 3.00537,-58.4989 L 2.82082,-58.9796
 L 2.68752,-59.4771 L 2.60696,-59.9857 L 2.58,-60.5 L 2.60696,-61.0143 L 2.68752,-61.5229 L 2.82082,-62.0204
 L 3.00537,-62.5011 L 3.23917,-62.96 L 3.51964,-63.3919 L 3.84373,-63.7921 L 4.20789,-64.1563 L 4.60811,-64.4804
 L 4.95001,-64.7024 L 4.95001,-74 L 5.00574,-74.5302 L 5.17047,-75.0372 L 5.43701,-75.4988 L 5.79373,-75.895
 L 6.22501,-76.2084 L 6.71202,-76.4252 L 7.23346,-76.536 L 7.76654,-76.536 L 8.28798,-76.4252 L 8.77499,-76.2084
 L 9.20627,-75.895 L 9.56299,-75.4988 L 9.82953,-75.0372 L 9.99426,-74.5302 L 10.05,-74 L 10.05,-64.7024
 L 10.3919,-64.4804 L 10.7921,-64.1563 L 11.1563,-63.7921 L 11.4804,-63.3919 L 11.7608,-62.96 L 11.9946,-62.5011
 L 12.1792,-62.0204 L 12.3125,-61.5229 L 12.393,-61.0143 L 12.42,-60.5 L 12.393,-59.9857 L 12.3125,-59.4771
 L 12.1792,-58.9796 L 11.9946,-58.4989 L 11.7608,-58.04 L 11.4804,-57.6081 L 11.1563,-57.2079 L 10.7921,-56.8437
 L 10.3919,-56.5196 L 9.95999,-56.2392 L 9.50113,-56.0054 L 9.02036,-55.8208 L 8.52292,-55.6875 L 8.01427,-55.607
 L 7.5,-55.58 z
M 182.586,-55.607 L 182.077,-55.6875 L 181.58,-55.8208 L 181.099,-56.0054 L 180.64,-56.2392 L 180.208,-56.5196
 L 179.808,-56.8437 L 179.444,-57.2079 L 179.12,-57.6081 L 178.839,-58.04 L 178.605,-58.4989 L 178.421,-58.9796
 L 178.288,-59.4771 L 178.207,-59.9857 L 178.18,-60.5 L 178.207,-61.0143 L 178.288,-61.5229 L 178.421,-62.0204
 L 178.605,-62.5011 L 178.839,-62.96 L 179.12,-63.3919 L 179.444,-63.7921 L 179.808,-64.1563 L 180.208,-64.4804
 L 180.55,-64.7024 L 180.55,-74 L 180.606,-74.5302 L 180.77,-75.0372 L 181.037,-75.4988 L 181.394,-75.895
 L 181.825,-76.2084 L 182.312,-76.4252 L 182.833,-76.536 L 183.367,-76.536 L 183.888,-76.4252 L 184.375,-76.2084
 L 184.806,-75.895 L 185.163,-75.4988 L 185.43,-75.0372 L 185.594,-74.5302 L 185.65,-74 L 185.65,-64.7024
 L 185.992,-64.4804 L 186.392,-64.1563 L 186.756,-63.7921 L 187.08,-63.3919 L 187.361,-62.96 L 187.595,-62.5011
 L 187.779,-62.0204 L 187.912,-61.5229 L 187.993,-61.0143 L 188.02,-60.5 L 187.993,-59.9857 L 187.912,-59.4771
 L 187.779,-58.9796 L 187.595,-58.4989 L 187.361,-58.04 L 187.08,-57.6081 L 186.756,-57.2079 L 186.392,-56.8437
 L 185.992,-56.5196 L 185.56,-56.2392 L 185.101,-56.0054 L 184.62,-55.8208 L 184.123,-55.6875 L 183.614,-55.607
 L 183.1,-55.58 z
M 358.186,-55.607 L 357.677,-55.6875 L 357.18,-55.8208 L 356.699,-56.0054 L 356.24,-56.2392 L 355.808,-56.5196
 L 355.408,-56.8437 L 355.044,-57.2079 L 354.72,-57.6081 L 354.439,-58.04 L 354.205,-58.4989 L 354.021,-58.9796
 L 353.888,-59.4771 L 353.807,-59.9857 L 353.78,-60.5 L 353.807,-61.0143 L 353.888,-61.5229 L 354.021,-62.0204
 L 354.205,-62.5011 L 354.439,-62.96 L 354.72,-63.3919 L 355.044,-63.7921 L 355.408,-64.1563 L 355.808,-64.4804
 L 356.15,-64.7024 L 356.15,-74 L 356.206,-74.5302 L 356.37,-75.0372 L 356.637,-75.4988 L 356.994,-75.895
 L 357.425,-76.2084 L 357.912,-76.4252 L 358.433,-76.536 L 358.967,-76.536 L 359.488,-76.4252 L 359.975,-76.2084
 L 360.406,-75.895 L 360.763,-75.4988 L 361.03,-75.0372 L 361.194,-74.5302 L 361.25,-74 L 361.25,-64.7024
 L 361.592,-64.4804 L 361.992,-64.1563 L 362.356,-63.7921 L 362.68,-63.3919 L 362.961,-62.96 L 363.195,-62.5011
 L 363.379,-62.0204 L 363.512,-61.5229 L 363.593,-61.0143 L 363.62,-60.5 L 363.593,-59.9857 L 363.512,-59.4771
 L 363.379,-58.9796 L 363.195,-58.4989 L 362.961,-58.04 L 362.68,-57.6081 L 362.356,-57.2079 L 361.992,-56.8437
 L 361.592,-56.5196 L 361.16,-56.2392 L 360.701,-56.0054 L 360.22,-55.8208 L 359.723,-55.6875 L 359.214,-55.607
 L 358.7,-55.58 z
M 533.786,-55.607 L 533.277,-55.6875 L 532.78,-55.8208 L 532.299,-56.0054 L 531.84,-56.2392 L 531.408,-56.5196
 L 531.008,-56.8437 L 530.644,-57.2079 L 530.32,-57.6081 L 530.039,-58.04 L 529.805,-58.4989 L 529.621,-58.9796
 L 529.488,-59.4771 L 529.407,-59.9857 L 529.38,-60.5 L 529.407,-61.0143 L 529.488,-61.5229 L 529.621,-62.0204
 L 529.805,-62.5011 L 530.039,-62.96 L 530.32,-63.3919 L 530.644,-63.7921 L 531.008,-64.1563 L 531.408,-64.4804
 L 531.75,-64.7024 L 531.75,-74 L 531.806,-74.5302 L 531.97,-75.0372 L 532.237,-75.4988 L 532.594,-75.895
 L 533.025,-76.2084 L 533.512,-76.4252 L 534.033,-76.536 L 534.567,-76.536 L 535.088,-76.4252 L 535.575,-76.2084
 L 536.006,-75.895 L 536.363,-75.4988 L 536.63,-75.0372 L 536.794,-74.5302 L 536.85,-74 L 536.85,-64.7024
 L 537.192,-64.4804 L 537.592,-64.1563 L 537.956,-63.7921 L 538.28,-63.3919 L 538.561,-62.96 L 538.795,-62.5011
 L 538.979,-62.0204 L 539.112,-61.5229 L 539.193,-61.0143 L 539.22,-60.5 L 539.193,-59.9857 L 539.112,-59.4771
 L 538.979,-58.9796 L 538.795,-58.4989 L 538.561,-58.04 L 538.28,-57.6081 L 537.956,-57.2079 L 537.592,-56.8437
 L 537.192,-56.5196 L 536.76,-56.2392 L 536.301,-56.0054 L 535.82,-55.8208 L 535.323,-55.6875 L 534.814,-55.607
 L 534.3,-55.58 z
M 709.386,-55.607 L 708.877,-55.6875 L 708.38,-55.8208 L 707.899,-56.0054 L 707.44,-56.2392 L 707.008,-56.5196
 L 706.608,-56.8437 L 706.244,-57.2079 L 705.92,-57.6081 L 705.639,-58.04 L 705.405,-58.4989 L 705.221,-58.9796
 L 705.088,-59.4771 L 705.007,-59.9857 L 704.98,-60.5 L 705.007,-61.0143 L 705.088,-61.5229 L 705.221,-62.0204
 L 705.405,-62.5011 L 705.639,-62.96 L 705.92,-63.3919 L 706.244,-63.7921 L 706.608,-64.1563 L 707.008,-64.4804
 L 707.35,-64.7024 L 707.35,-74 L 707.406,-74.5302 L 707.57,-75.0372 L 707.837,-75.4988 L 708.194,-75.895
 L 708.625,-76.2084 L 709.112,-76.4252 L 709.633,-76.536 L 710.167,-76.536 L 710.688,-76.4252 L 711.175,-76.2084
 L 711.606,-75.895 L 711.963,-75.4988 L 712.23,-75.0372 L 712.394,-74.5302 L 712.45,-74 L 712.45,-64.7024
 L 712.792,-64.4804 L 713.192,-64.1563 L 713.556,-63.7921 L 713.88,-63.3919 L 714.161,-62.96 L 714.395,-62.5011
 L 714.579,-62.0204 L 714.712,-61.5229 L 714.793,-61.0143 L 714.82,-60.5 L 714.793,-59.9857 L 714.712,-59.4771
 L 714.579,-58.9796 L 714.395,-58.4989 L 714.161,-58.04 L 713.88,-57.6081 L 713.556,-57.2079 L 713.192,-56.8437
 L 712.792,-56.5196 L 712.36,-56.2392 L 711.901,-56.0054 L 711.42,-55.8208 L 710.923,-55.6875 L 710.414,-55.607
 L 709.9,-55.58 z
M 884.986,-55.607 L 884.477,-55.6875 L 883.98,-55.8208 L 883.499,-56.0054 L 883.04,-56.2392 L 882.608,-56.5196
 L 882.208,-56.8437 L 881.844,-57.2079 L 881.52,-57.6081 L 881.239,-58.04 L 881.005,-58.4989 L 880.821,-58.9796
 L 880.688,-59.4771 L 880.607,-59.9857 L 880.58,-60.5 L 880.607,-61.0143 L 880.688,-61.5229 L 880.821,-62.0204
 L 881.005,-62.5011 L 881.239,-62.96 L 881.52,-63.3919 L 881.844,-63.7921 L 882.208,-64.1563 L 882.608,-64.4804
 L 882.95,-64.7024 L 882.95,-74 L 883.006,-74.5302 L 883.17,-75.0372 L 883.437,-75.4988 L 883.794,-75.895
 L 884.225,-76.2084 L 884.712,-76.4252 L 885.233,-76.536 L 885.767,-76.536 L 886.288,-76.4252 L 886.775,-76.2084
 L 887.206,-75.895 L 887.563,-75.4988 L 887.83,-75.0372 L 887.994,-74.5302 L 888.05,-74 L 888.05,-64.7024
 L 888.392,-64.4804 L 888.792,-64.1563 L 889.156,-63.7921 L 889.48,-63.3919 L 889.761,-62.96 L 889.995,-62.5011
 L 890.179,-62.0204 L 890.312,-61.5229 L 890.393,-61.0143 L 890.42,-60.5 L 890.393,-59.9857 L 890.312,-59.4771
 L 890.179,-58.9796 L 889.995,-58.4989 L 889.761,-58.04 L 889.48,-57.6081 L 889.156,-57.2079 L 888.792,-56.8437
 L 888.392,-56.5196 L 887.96,-56.2392 L 887.501,-56.0054 L 887.02,-55.8208 L 886.523,-55.6875 L 886.014,-55.607
 L 885.5,-55.58 z
M 445.863,-47.8327 L 445.056,-48.0515 L 428.997,-54.2699 L 428.091,-54.7639 L 427.469,-55.3235 L 426.978,-56
 L 426.638,-56.7639 L 426.464,-57.5819 L 426.464,-58.4181 L 426.638,-59.2361 L 426.978,-60 L 427.469,-60.6765
 L 428.091,-61.2361 L 428.815,-61.6542 L 429.61,-61.9126 L 430.442,-62 L 462.558,-62 L 463.582,-61.8667
 L 464.364,-61.5694 L 465.066,-61.116 L 465.659,-60.5264 L 466.117,-59.8264 L 466.419,-59.0466 L 466.552,-58.2211
 L 466.511,-57.3859 L 466.297,-56.5775 L 465.919,-55.8313 L 465.395,-55.1799 L 464.747,-54.6517 L 464.003,-54.2699
 L 447.944,-48.0515 L 447.524,-47.9148 L 446.698,-47.7865 z
M 345.063,-21.0089 L 344.256,-21.2278 L 258.929,-54.2699 L 258.022,-54.7639 L 257.401,-55.3235 L 256.909,-56
 L 256.569,-56.7639 L 256.395,-57.5819 L 256.395,-58.4181 L 256.569,-59.2361 L 256.909,-60 L 257.401,-60.6765
 L 258.022,-61.2361 L 258.746,-61.6542 L 259.542,-61.9126 L 260.373,-62 L 345.7,-62 L 346.936,-61.8042
 L 347.7,-61.4641 L 348.377,-60.9726 L 348.936,-60.3511 L 349.354,-59.627 L 349.613,-58.8316 L 349.7,-58
 L 349.7,-24.9578 L 349.561,-23.9112 L 349.259,-23.1314 L 348.801,-22.4314 L 348.208,-21.8419 L 347.505,-21.3885
 L 346.724,-21.0911 L 345.898,-20.9627 z
M 721.876,-21.0911 L 721.095,-21.3885 L 720.392,-21.8419 L 719.799,-22.4314 L 719.341,-23.1314 L 719.039,-23.9112
 L 718.9,-24.9578 L 718.9,-58 L 718.987,-58.8316 L 719.246,-59.627 L 719.664,-60.3511 L 720.223,-60.9726
 L 720.9,-61.4641 L 721.664,-61.8042 L 722.9,-62 L 808.227,-62 L 809.058,-61.9126 L 809.854,-61.6542
 L 810.578,-61.2361 L 811.199,-60.6765 L 811.691,-60 L 812.031,-59.2361 L 812.205,-58.4181 L 812.205,-57.5819
 L 812.031,-56.7639 L 811.691,-56 L 811.199,-55.3235 L 810.578,-54.7639 L 809.671,-54.2699 L 724.344,-21.2278
 L 723.537,-21.0089 L 722.702,-20.9627 z
M 169.463,-21.0089 L 168.656,-21.2278 L 83.329,-54.2699 L 82.4223,-54.7639 L 81.8009,-55.3235 L 81.3094,-56
 L 80.9692,-56.7639 L 80.7954,-57.5819 L 80.7954,-58.4181 L 80.9692,-59.2361 L 81.3094,-60 L 81.8009,-60.6765
 L 82.4223,-61.2361 L 83.1465,-61.6542 L 83.9418,-61.9126 L 84.7735,-62 L 170.1,-62 L 171.336,-61.8042
 L 172.1,-61.4641 L 172.777,-60.9726 L 173.336,-60.3511 L 173.754,-59.627 L 174.013,-58.8316 L 174.1,-58
 L 174.1,-24.9578 L 173.961,-23.9112 L 173.659,-23.1314 L 173.201,-22.4314 L 172.608,-21.8419 L 171.905,-21.3885
 L 171.124,-21.0911 L 170.298,-20.9627 z
M 546.276,-21.0911 L 545.495,-21.3885 L 544.792,-21.8419 L 544.199,-22.4314 L 543.741,-23.1314 L 543.439,-23.9112
 L 543.3,-24.9578 L 543.3,-58 L 543.387,-58.8316 L 543.646,-59.627 L 544.064,-60.3511 L 544.623,-60.9726
 L 545.3,-61.4641 L 546.064,-61.8042 L 547.3,-62 L 632.627,-62 L 633.458,-61.9126 L 634.253,-61.6542
 L 634.978,-61.2361 L 635.599,-60.6765 L 636.091,-60 L 636.431,-59.2361 L 636.605,-58.4181 L 636.605,-57.5819
 L 636.431,-56.7639 L 636.091,-56 L 635.599,-55.3235 L 634.978,-54.7639 L 634.071,-54.2699 L 548.744,-21.2278
 L 547.937,-21.0089 L 547.102,-20.9627 z
M 371.282,-18.8377 L 370.464,-19.0115 L 369.7,-19.3517 L 369.023,-19.8432 L 368.464,-20.4646 L 368.046,-21.1888
 L 367.787,-21.9841 L 367.7,-22.8158 L 367.7,-57.1842 L 367.839,-58.2309 L 368.141,-59.0107 L 368.599,-59.7107
 L 369.192,-60.3002 L 369.895,-60.7536 L 370.676,-61.051 L 371.502,-61.1794 L 372.337,-61.1331 L 373.144,-60.9143
 L 417.52,-43.7301 L 418.584,-43.116 L 419.177,-42.5264 L 419.634,-41.8264 L 419.936,-41.0466 L 420.07,-40.2211
 L 420.028,-39.3859 L 419.814,-38.5775 L 419.437,-37.8313 L 418.913,-37.1799 L 418.264,-36.6517 L 417.52,-36.2699
 L 373.144,-19.0857 L 372.118,-18.8377 z
M 520.663,-18.8668 L 519.856,-19.0856 L 475.48,-36.2699 L 474.416,-36.884 L 473.823,-37.4736 L 473.365,-38.1736
 L 473.064,-38.9534 L 472.93,-39.7789 L 472.972,-40.6141 L 473.186,-41.4225 L 473.563,-42.1687 L 474.087,-42.8201
 L 474.736,-43.3483 L 475.48,-43.7301 L 519.856,-60.9144 L 520.882,-61.1624 L 521.718,-61.1624 L 522.536,-60.9885
 L 523.3,-60.6484 L 523.977,-60.1568 L 524.536,-59.5354 L 524.954,-58.8112 L 525.213,-58.0159 L 525.3,-57.1843
 L 525.3,-22.8157 L 525.161,-21.7691 L 524.859,-20.9893 L 524.401,-20.2893 L 523.808,-19.6998 L 523.105,-19.2464
 L 522.324,-18.949 L 521.498,-18.8206 z
M 196.1,-18 L 194.864,-18.1958 L 194.1,-18.5359 L 193.423,-19.0274 L 192.864,-19.6489 L 192.446,-20.373
 L 192.187,-21.1684 L 192.1,-22 L 192.1,-55.0422 L 192.239,-56.0888 L 192.541,-56.8686 L 192.999,-57.5686
 L 193.592,-58.1581 L 194.295,-58.6115 L 195.076,-58.9089 L 195.902,-59.0373 L 196.737,-58.9911 L 197.544,-58.7722
 L 282.871,-25.7301 L 283.778,-25.2361 L 284.399,-24.6765 L 284.891,-24 L 285.231,-23.2361 L 285.405,-22.4181
 L 285.405,-21.5819 L 285.231,-20.7639 L 284.891,-20 L 284.399,-19.3235 L 283.778,-18.7639 L 283.053,-18.3458
 L 282.258,-18.0874 L 281.427,-18 z
M 611.573,-18 L 610.742,-18.0874 L 609.947,-18.3458 L 609.222,-18.7639 L 608.601,-19.3235 L 608.109,-20
 L 607.769,-20.7639 L 607.595,-21.5819 L 607.595,-22.4181 L 607.769,-23.2361 L 608.109,-24 L 608.601,-24.6765
 L 609.222,-25.2361 L 610.129,-25.7301 L 695.456,-58.7722 L 696.263,-58.9911 L 697.098,-59.0373 L 697.924,-58.9089
 L 698.705,-58.6115 L 699.408,-58.1581 L 700.001,-57.5686 L 700.459,-56.8686 L 700.761,-56.0888 L 700.9,-55.0422
 L 700.9,-22 L 700.813,-21.1684 L 700.554,-20.373 L 700.136,-19.6489 L 699.577,-19.0274 L 698.9,-18.5359
 L 698.136,-18.1958 L 696.9,-18 z
M 22,-18 L 20.7639,-18.1958 L 20,-18.5359 L 19.3235,-19.0274 L 18.7639,-19.6489 L 18.3458,-20.373
 L 18.0874,-21.1684 L 18,-22 L 18,-54.4613 L 18.1394,-55.5079 L 18.4413,-56.2877 L 18.8988,-56.9877
 L 19.4919,-57.5773 L 20.1945,-58.0306 L 20.9761,-58.328 L 21.8024,-58.4564 L 22.6374,-58.4102 L 23.4445,-58.1914
 L 107.271,-25.7301 L 108.178,-25.2361 L 108.799,-24.6765 L 109.291,-24 L 109.631,-23.2361 L 109.805,-22.4181
 L 109.805,-21.5819 L 109.631,-20.7639 L 109.291,-20 L 108.799,-19.3235 L 108.178,-18.7639 L 107.453,-18.3458
 L 106.658,-18.0874 L 105.827,-18 z
M 787.173,-18 L 786.342,-18.0874 L 785.547,-18.3458 L 784.822,-18.7639 L 784.201,-19.3235 L 783.709,-20
 L 783.369,-20.7639 L 783.195,-21.5819 L 783.195,-22.4181 L 783.369,-23.2361 L 783.709,-24 L 784.201,-24.6765
 L 784.822,-25.2361 L 785.729,-25.7301 L 869.556,-58.1914 L 870.363,-58.4102 L 871.198,-58.4564 L 872.024,-58.328
 L 872.805,-58.0306 L 873.508,-57.5773 L 874.101,-56.9877 L 874.559,-56.2877 L 874.861,-55.5079 L 875,-54.4613
 L 875,-22 L 874.913,-21.1684 L 874.654,-20.373 L 874.236,-19.6489 L 873.677,-19.0274 L 873,-18.5359
 L 872.236,-18.1958 L 871,-18 z
M 430.442,-18 L 429.418,-18.1333 L 428.636,-18.4306 L 427.934,-18.884 L 427.341,-19.4736 L 426.883,-20.1736
 L 426.581,-20.9534 L 426.448,-21.7789 L 426.489,-22.6141 L 426.703,-23.4225 L 427.081,-24.1687 L 427.605,-24.8201
 L 428.253,-25.3483 L 428.997,-25.7301 L 445.056,-31.9485 L 445.476,-32.0852 L 446.302,-32.2135 L 447.137,-32.1673
 L 447.944,-31.9485 L 464.003,-25.7301 L 464.909,-25.2361 L 465.531,-24.6765 L 466.022,-24 L 466.362,-23.2361
 L 466.536,-22.4181 L 466.536,-21.5819 L 466.362,-20.7639 L 466.022,-20 L 465.531,-19.3235 L 464.909,-18.7639
 L 464.185,-18.3458 L 463.39,-18.0874 L 462.558,-18 z
" stroke="black" fill="lightgray" stroke-width="0.5"/>
</svg>
