<?xml version="1.0" standalone="no"?>
<!DOCTYPE svg PUBLIC "-//W3C//DTD SVG 1.1//EN" "http://www.w3.org/Graphics/SVG/1.1/DTD/svg11.dtd">
<svg width="901mm" height="80mm" viewBox="0 -80 901 80" xmlns="http://www.w3.org/2000/svg" version="1.1">
<title>OpenSCAD Model</title>
<path d="
M 901,-80 L 0,-80 L 0,-0 L 4.95,-0 L 4.95,-6 L 5.00572,-6.53017
 L 5.17046,-7.03717 L 5.437,-7.49884 L 5.79372,-7.895 L 6.22499,-8.20836 L 6.71201,-8.42519 L 7.23344,-8.53603
 L 7.76654,-8.53603 L 8.28798,-8.42519 L 8.77499,-8.20836 L 9.20627,-7.895 L 9.56299,-7.49884 L 9.82953,-7.03717
 L 9.99426,-6.53017 L 10.05,-6 L 10.05,-0 L 182.15,-0 L 182.15,-6 L 182.206,-6.53017
 L 182.37,-7.03717 L 182.637,-7.49884 L 182.994,-7.895 L 183.425,-8.20836 L 183.912,-8.42519 L 184.433,-8.53603
 L 184.967,-8.53603 L 185.488,-8.42519 L 185.975,-8.20836 L 186.406,-7.895 L 186.763,-7.49884 L 187.03,-7.03717
 L 187.194,-6.53017 L 187.25,-6 L 187.25,-0 L 359.35,-0 L 359.35,-6 L 359.406,-6.53017
 L 359.57,-7.03717 L 359.837,-7.49884 L 360.194,-7.895 L 360.625,-8.20836 L 361.112,-8.42519 L 361.633,-8.53603
 L 362.167,-8.53603 L 362.688,-8.42519 L 363.175,-8.20836 L 363.606,-7.895 L 363.963,-7.49884 L 364.23,-7.03717
 L 364.394,-6.53017 L 364.45,-6 L 364.45,-0 L 536.55,-0 L 536.55,-6 L 536.606,-6.53017
 L 536.77,-7.03717 L 537.037,-7.49884 L 537.394,-7.895 L 537.825,-8.20836 L 538.312,-8.42519 L 538.833,-8.53603
 L 539.367,-8.53603 L 539.888,-8.42519 L 540.375,-8.20836 L 540.806,-7.895 L 541.163,-7.49884 L 541.43,-7.03717
 L 541.594,-6.53017 L 541.65,-6 L 541.65,-0 L 713.75,-0 L 713.75,-6 L 713.806,-6.53017
 L 713.97,-7.03717 L 714.237,-7.49884 L 714.594,-7.895 L 715.025,-8.20836 L 715.512,-8.42519 L 716.033,-8.53603
 L 716.567,-8.53603 L 717.088,-8.42519 L 717.575,-8.20836 L 718.006,-7.895 L 718.363,-7.49884 L 718.63,-7.03717
 L 718.794,-6.53017 L 718.85,-6 L 718.85,-0 L 890.95,-0 L 890.95,-6 L 891.006,-6.53017
 L 891.17,-7.03717 L 891.437,-7.49884 L 891.794,-7.895 L 892.225,-8.20836 L 892.712,-8.42519 L 893.233,-8.53603
 L 893.767,-8.53603 L 894.288,-8.42519 L 894.775,-8.20836 L 895.206,-7.895 L 895.563,-7.49884 L 895.83,-7.03717
 L 895.994,-6.53017 L 896.05,-6 L 896.05,-0 L 901,-0 z
M 6.98573,-55.607 L 6.47708,-55.6875 L 5.97964,-55.8208 L 5.49887,-56.0054 L 5.04001,-56.2392 L 4.60811,-56.5196
 L 4.20789,-56.8437 L 3.84373,-57.2079 L 3.51964,-57.6081 L 3.23917,-58.04 L 3.00537,-58.4989 L 2.82082,-58.9796
 L 2.68752,-59.4771 L 2.60696,-59.9857 L 2.58,-60.5 L 2.60696,-61.0143 L 2.68752,-61.5229 L 2.82082,-62.0204
 L 3.00537,-62.5011 L 3.23917,-62.96 L 3.51964,-63.3919 L 3.84373,-63.7921 L 4.20789,-64.1563 L 4.60811,-64.4804
 L 4.95001,-64.7024 L 4.95001,-74 L 5.00574,-74.5302 L 5.17047,-75.0372 L 5.43701,-75.4988 L 5.79373,-75.895
 L 6.22501,-76.2084 L 6.71202,-76.4252 L 7.23346,-76.536 L 7.76654,-76.536 L 8.28798,-76.4252 L 8.77499,-76.2084
 L 9.20627,-75.895 L 9.56299,-75.4988 L 9.82953,-75.0372 L 9.99426,-74.5302 L 10.05,-74 L 10.05,-64.7024
 L 10.3919,-64.4804 L 10.7921,-64.1563 L 11.1563,-63.7921 L 11.4804,-63.3919 L 11.7608,-62.96 L 11.9946,-62.5011
 L 12.1792,-62.0204 L 12.3125,-61.5229 L 12.393,-61.0143 L 12.42,-60.5 L 12.393,-59.9857 L 12.3125,-59.4771
 L 12.1792,-58.9796 L 11.9946,-58.4989 L 11.7608,-58.04 L 11.4804,-57.6081 L 11.1563,-57.2079 L 10.7921,-56.8437
 L 10.3919,-56.5196 L 9.95999,-56.2392 L 9.50113,-56.0054 L 9.02036,-55.8208 L 8.52292,-55.6875 L 8.01427,-55.607
 L 7.5,-55.58 z
M 184.186,-55.607 L 183.677,-55.6875 L 183.18,-55.8208 L 182.699,-56.0054 L 182.24,-56.2392 L 181.808,-56.5196
 L 181.408,-56.8437 L 181.044,-57.2079 L 180.72,-57.6081 L 180.439,-58.04 L 180.205,-58.4989 L 180.021,-58.9796
 L 179.888,-59.4771 L 179.807,-59.9857 L 179.78,-60.5 L 179.807,-61.0143 L 179.888,-61.5229 L 180.021,-62.0204
 L 180.205,-62.5011 L 180.439,-62.96 L 180.72,-63.3919 L 181.044,-63.7921 L 181.408,-64.1563 L 181.808,-64.4804
 L 182.15,-64.7024 L 182.15,-74 L 182.206,-74.5302 L 182.37,-75.0372 L 182.637,-75.4988 L 182.994,-75.895
 L 183.425,-76.2084 L 183.912,-76.4252 L 184.433,-76.536 L 184.967,-76.536 L 185.488,-76.4252 L 185.975,-76.2084
 L 186.406,-75.895 L 186.763,-75.4988 L 187.03,-75.0372 L 187.194,-74.5302 L 187.25,-74 L 187.25,-64.7024
 L 187.592,-64.4804 L 187.992,-64.1563 L 188.356,-63.7921 L 188.68,-63.3919 L 188.961,-62.96 L 189.195,-62.5011
 L 189.379,-62.0204 L 189.512,-61.5229 L 189.593,-61.0143 L 189.62,-60.5 L 189.593,-59.9857 L 189.512,-59.4771
 L 189.379,-58.9796 L 189.195,-58.4989 L 188.961,-58.04 L 188.68,-57.6081 L 188.356,-57.2079 L 187.992,-56.8437
 L 187.592,-56.5196 L 187.16,-56.2392 L 186.701,-56.0054 L 186.22,-55.8208 L 185.723,-55.6875 L 185.214,-55.607
 L 184.7,-55.58 z
M 361.386,-55.607 L 360.877,-55.6875 L 360.38,-55.8208 L 359.899,-56.0054 L 359.44,-56.2392 L 359.008,-56.5196
 L 358.608,-56.8437 L 358.244,-57.2079 L 357.92,-57.6081 L 357.639,-58.04 L 357.405,-58.4989 L 357.221,-58.9796
 L 357.088,-59.4771 L 357.007,-59.9857 L 356.98,-60.5 L 357.007,-61.0143 L 357.088,-61.5229 L 357.221,-62.0204
 L 357.405,-62.5011 L 357.639,-62.96 L 357.92,-63.3919 L 358.244,-63.7921 L 358.608,-64.1563 L 359.008,-64.4804
 L 359.35,-64.7024 L 359.35,-74 L 359.406,-74.5302 L 359.57,-75.0372 L 359.837,-75.4988 L 360.194,-75.895
 L 360.625,-76.2084 L 361.112,-76.4252 L 361.633,-76.536 L 362.167,-76.536 L 362.688,-76.4252 L 363.175,-76.2084
 L 363.606,-75.895 L 363.963,-75.4988 L 364.23,-75.0372 L 364.394,-74.5302 L 364.45,-74 L 364.45,-64.7024
 L 364.792,-64.4804 L 365.192,-64.1563 L 365.556,-63.7921 L 365.88,-63.3919 L 366.161,-62.96 L 366.395,-62.5011
 L 366.579,-62.0204 L 366.712,-61.5229 L 366.793,-61.0143 L 366.82,-60.5 L 366.793,-59.9857 L 366.712,-59.4771
 L 366.579,-58.9796 L 366.395,-58.4989 L 366.161,-58.04 L 365.88,-57.6081 L 365.556,-57.2079 L 365.192,-56.8437
 L 364.792,-56.5196 L 364.36,-56.2392 L 363.901,-56.0054 L 363.42,-55.8208 L 362.923,-55.6875 L 362.414,-55.607
 L 361.9,-55.58 z
M 538.586,-55.607 L 538.077,-55.6875 L 537.58,-55.8208 L 537.099,-56.0054 L 536.64,-56.2392 L 536.208,-56.5196
 L 535.808,-56.8437 L 535.444,-57.2079 L 535.12,-57.6081 L 534.839,-58.04 L 534.605,-58.4989 L 534.421,-58.9796
 L 534.288,-59.4771 L 534.207,-59.9857 L 534.18,-60.5 L 534.207,-61.0143 L 534.288,-61.5229 L 534.421,-62.0204
 L 534.605,-62.5011 L 534.839,-62.96 L 535.12,-63.3919 L 535.444,-63.7921 L 535.808,-64.1563 L 536.208,-64.4804
 L 536.55,-64.7024 L 536.55,-74 L 536.606,-74.5302 L 536.77,-75.0372 L 537.037,-75.4988 L 537.394,-75.895
 L 537.825,-76.2084 L 538.312,-76.4252 L 538.833,-76.536 L 539.367,-76.536 L 539.888,-76.4252 L 540.375,-76.2084
 L 540.806,-75.895 L 541.163,-75.4988 L 541.43,-75.0372 L 541.594,-74.5302 L 541.65,-74 L 541.65,-64.7024
 L 541.992,-64.4804 L 542.392,-64.1563 L 542.756,-63.7921 L 543.08,-63.3919 L 543.361,-62.96 L 543.595,-62.5011
 L 543.779,-62.0204 L 543.912,-61.5229 L 543.993,-61.0143 L 544.02,-60.5 L 543.993,-59.9857 L 543.912,-59.4771
 L 543.779,-58.9796 L 543.595,-58.4989 L 543.361,-58.04 L 543.08,-57.6081 L 542.756,-57.2079 L 542.392,-56.8437
 L 541.992,-56.5196 L 541.56,-56.2392 L 541.101,-56.0054 L 540.62,-55.8208 L 540.123,-55.6875 L 539.614,-55.607
 L 539.1,-55.58 z
M 715.786,-55.607 L 715.277,-55.6875 L 714.78,-55.8208 L 714.299,-56.0054 L 713.84,-56.2392 L 713.408,-56.5196
 L 713.008,-56.8437 L 712.644,-57.2079 L 712.32,-57.6081 L 712.039,-58.04 L 711.805,-58.4989 L 711.621,-58.9796
 L 711.488,-59.4771 L 711.407,-59.9857 L 711.38,-60.5 L 711.407,-61.0143 L 711.488,-61.5229 L 711.621,-62.0204
 L 711.805,-62.5011 L 712.039,-62.96 L 712.32,-63.3919 L 712.644,-63.7921 L 713.008,-64.1563 L 713.408,-64.4804
 L 713.75,-64.7024 L 713.75,-74 L 713.806,-74.5302 L 713.97,-75.0372 L 714.237,-75.4988 L 714.594,-75.895
 L 715.025,-76.2084 L 715.512,-76.4252 L 716.033,-76.536 L 716.567,-76.536 L 717.088,-76.4252 L 717.575,-76.2084
 L 718.006,-75.895 L 718.363,-75.4988 L 718.63,-75.0372 L 718.794,-74.5302 L 718.85,-74 L 718.85,-64.7024
 L 719.192,-64.4804 L 719.592,-64.1563 L 719.956,-63.7921 L 720.28,-63.3919 L 720.561,-62.96 L 720.795,-62.5011
 L 720.979,-62.0204 L 721.112,-61.5229 L 721.193,-61.0143 L 721.22,-60.5 L 721.193,-59.9857 L 721.112,-59.4771
 L 720.979,-58.9796 L 720.795,-58.4989 L 720.561,-58.04 L 720.28,-57.6081 L 719.956,-57.2079 L 719.592,-56.8437
 L 719.192,-56.5196 L 718.76,-56.2392 L 718.301,-56.0054 L 717.82,-55.8208 L 717.323,-55.6875 L 716.814,-55.607
 L 716.3,-55.58 z
M 892.986,-55.607 L 892.477,-55.6875 L 891.98,-55.8208 L 891.499,-56.0054 L 891.04,-56.2392 L 890.608,-56.5196
 L 890.208,-56.8437 L 889.844,-57.2079 L 889.52,-57.6081 L 889.239,-58.04 L 889.005,-58.4989 L 888.821,-58.9796
 L 888.688,-59.4771 L 888.607,-59.9857 L 888.58,-60.5 L 888.607,-61.0143 L 888.688,-61.5229 L 888.821,-62.0204
 L 889.005,-62.5011 L 889.239,-62.96 L 889.52,-63.3919 L 889.844,-63.7921 L 890.208,-64.1563 L 890.608,-64.4804
 L 890.95,-64.7024 L 890.95,-74 L 891.006,-74.5302 L 891.17,-75.0372 L 891.437,-75.4988 L 891.794,-75.895
 L 892.225,-76.2084 L 892.712,-76.4252 L 893.233,-76.536 L 893.767,-76.536 L 894.288,-76.4252 L 894.775,-76.2084
 L 895.206,-75.895 L 895.563,-75.4988 L 895.83,-75.0372 L 895.994,-74.5302 L 896.05,-74 L 896.05,-64.7024
 L 896.392,-64.4804 L 896.792,-64.1563 L 897.156,-63.7921 L 897.48,-63.3919 L 897.761,-62.96 L 897.995,-62.5011
 L 898.179,-62.0204 L 898.312,-61.5229 L 898.393,-61.0143 L 898.42,-60.5 L 898.393,-59.9857 L 898.312,-59.4771
 L 898.179,-58.9796 L 897.995,-58.4989 L 897.761,-58.04 L 897.48,-57.6081 L 897.156,-57.2079 L 896.792,-56.8437
 L 896.392,-56.5196 L 895.96,-56.2392 L 895.501,-56.0054 L 895.02,-55.8208 L 894.523,-55.6875 L 894.014,-55.607
 L 893.5,-55.58 z
M 449.875,-47.8152 L 449.067,-48.0316 L 432.822,-54.2655 L 431.904,-54.7639 L 431.282,-55.3235 L 430.791,-56
 L 430.451,-56.7639 L 430.277,-57.5819 L 430.277,-58.4181 L 430.451,-59.2361 L 430.791,-60 L 431.282,-60.6765
 L 431.904,-61.2361 L 432.628,-61.6542 L 433.423,-61.9126 L 434.255,-62 L 466.745,-62 L 467.781,-61.8636
 L 468.561,-61.5638 L 469.263,-61.1083 L 469.854,-60.517 L 470.309,-59.8156 L 470.609,-59.0349 L 470.739,-58.2089
 L 470.696,-57.3739 L 470.479,-56.5661 L 470.099,-55.8211 L 469.573,-55.1713 L 468.923,-54.6451 L 468.178,-54.2655
 L 451.933,-48.0316 L 450.71,-47.7715 z
M 348.275,-20.9432 L 347.467,-21.1596 L 261.197,-54.2655 L 260.279,-54.7639 L 259.657,-55.3235 L 259.166,-56
 L 258.826,-56.7639 L 258.652,-57.5819 L 258.652,-58.4181 L 258.826,-59.2361 L 259.166,-60 L 259.657,-60.6765
 L 260.279,-61.2361 L 261.003,-61.6542 L 261.798,-61.9126 L 262.63,-62 L 348.9,-62 L 350.136,-61.8042
 L 350.9,-61.4641 L 351.577,-60.9726 L 352.136,-60.3511 L 352.554,-59.627 L 352.813,-58.8316 L 352.9,-58
 L 352.9,-24.894 L 352.764,-23.8591 L 352.464,-23.0784 L 352.009,-22.3771 L 351.418,-21.7857 L 350.716,-21.3302
 L 349.936,-21.0304 L 349.11,-20.8995 z
M 728.264,-21.0304 L 727.484,-21.3302 L 726.782,-21.7857 L 726.191,-22.3771 L 725.736,-23.0784 L 725.436,-23.8591
 L 725.3,-24.894 L 725.3,-58 L 725.387,-58.8316 L 725.646,-59.627 L 726.064,-60.3511 L 726.623,-60.9726
 L 727.3,-61.4641 L 728.064,-61.8042 L 729.3,-62 L 815.57,-62 L 816.402,-61.9126 L 817.197,-61.6542
 L 817.921,-61.2361 L 818.543,-60.6765 L 819.034,-60 L 819.374,-59.2361 L 819.548,-58.4181 L 819.548,-57.5819
 L 819.374,-56.7639 L 819.034,-56 L 818.543,-55.3235 L 817.921,-54.7639 L 817.003,-54.2655 L 730.733,-21.1596
 L 729.925,-20.9432 L 729.09,-20.8995 z
M 171.075,-20.9432 L 170.267,-21.1596 L 83.9966,-54.2655 L 83.0786,-54.7639 L 82.4572,-55.3235 L 81.9656,-56
 L 81.6255,-56.7639 L 81.4516,-57.5819 L 81.4516,-58.4181 L 81.6255,-59.2361 L 81.9656,-60 L 82.4572,-60.6765
 L 83.0786,-61.2361 L 83.8028,-61.6542 L 84.5981,-61.9126 L 85.4297,-62 L 171.7,-62 L 172.936,-61.8042
 L 173.7,-61.4641 L 174.377,-60.9726 L 174.936,-60.3511 L 175.354,-59.627 L 175.613,-58.8316 L 175.7,-58
 L 175.7,-24.894 L 175.564,-23.8591 L 175.264,-23.0784 L 174.809,-22.3771 L 174.218,-21.7857 L 173.516,-21.3302
 L 172.736,-21.0304 L 171.91,-20.8995 z
M 551.064,-21.0304 L 550.284,-21.3302 L 549.582,-21.7857 L 548.991,-22.3771 L 548.536,-23.0784 L 548.236,-23.8591
 L 548.1,-24.894 L 548.1,-58 L 548.187,-58.8316 L 548.446,-59.627 L 548.864,-60.3511 L 549.423,-60.9726
 L 550.1,-61.4641 L 550.864,-61.8042 L 552.1,-62 L 638.37,-62 L 639.202,-61.9126 L 639.997,-61.6542
 L 640.721,-61.2361 L 641.343,-60.6765 L 641.834,-60 L 642.174,-59.2361 L 642.348,-58.4181 L 642.348,-57.5819
 L 642.174,-56.7639 L 641.834,-56 L 641.343,-55.3235 L 640.721,-54.7639 L 639.803,-54.2655 L 553.533,-21.1596
 L 552.725,-20.9432 L 551.89,-20.8995 z
M 374.482,-18.7767 L 373.664,-18.9505 L 372.9,-19.2907 L 372.223,-19.7822 L 371.664,-20.4036 L 371.246,-21.1278
 L 370.987,-21.9231 L 370.9,-22.7548 L 370.9,-57.2452 L 371.036,-58.2801 L 371.336,-59.0608 L 371.791,-59.7622
 L 372.382,-60.3536 L 373.084,-60.8091 L 373.864,-61.1088 L 374.69,-61.2397 L 375.525,-61.1961 L 376.333,-60.9797
 L 421.272,-43.7345 L 421.655,-43.5638 L 422.357,-43.1083 L 422.948,-42.517 L 423.403,-41.8156 L 423.703,-41.0349
 L 423.834,-40.2089 L 423.79,-39.3739 L 423.573,-38.5661 L 423.194,-37.8211 L 422.667,-37.1713 L 422.017,-36.6451
 L 421.272,-36.2655 L 376.333,-19.0203 L 375.318,-18.7767 z
M 525.475,-18.8039 L 524.667,-19.0203 L 479.728,-36.2655 L 479.345,-36.4362 L 478.643,-36.8917 L 478.052,-37.483
 L 477.597,-38.1844 L 477.297,-38.9651 L 477.166,-39.7911 L 477.21,-40.6261 L 477.427,-41.4339 L 477.806,-42.1789
 L 478.333,-42.8287 L 478.983,-43.3549 L 479.728,-43.7345 L 524.667,-60.9797 L 525.682,-61.2233 L 526.518,-61.2233
 L 527.336,-61.0495 L 528.1,-60.7094 L 528.777,-60.2178 L 529.336,-59.5964 L 529.754,-58.8722 L 530.013,-58.0769
 L 530.1,-57.2453 L 530.1,-22.7547 L 529.964,-21.7199 L 529.664,-20.9391 L 529.209,-20.2378 L 528.618,-19.6464
 L 527.916,-19.1909 L 527.136,-18.8911 L 526.31,-18.7603 z
M 197.7,-18 L 196.464,-18.1958 L 195.7,-18.5359 L 195.023,-19.0274 L 194.464,-19.6489 L 194.046,-20.373
 L 193.787,-21.1684 L 193.7,-22 L 193.7,-55.106 L 193.836,-56.1408 L 194.136,-56.9216 L 194.591,-57.6229
 L 195.182,-58.2143 L 195.884,-58.6698 L 196.664,-58.9696 L 197.49,-59.1004 L 198.325,-59.0568 L 199.133,-58.8404
 L 285.403,-25.7345 L 286.321,-25.2361 L 286.943,-24.6765 L 287.434,-24 L 287.774,-23.2361 L 287.948,-22.4181
 L 287.948,-21.5819 L 287.774,-20.7639 L 287.434,-20 L 286.943,-19.3235 L 286.321,-18.7639 L 285.597,-18.3458
 L 284.802,-18.0874 L 283.97,-18 z
M 617.03,-18 L 616.198,-18.0874 L 615.403,-18.3458 L 614.679,-18.7639 L 614.057,-19.3235 L 613.566,-20
 L 613.226,-20.7639 L 613.052,-21.5819 L 613.052,-22.4181 L 613.226,-23.2361 L 613.566,-24 L 614.057,-24.6765
 L 614.679,-25.2361 L 615.597,-25.7345 L 701.867,-58.8404 L 702.675,-59.0568 L 703.51,-59.1004 L 704.336,-58.9696
 L 705.116,-58.6698 L 705.818,-58.2143 L 706.409,-57.6229 L 706.864,-56.9216 L 707.164,-56.1408 L 707.3,-55.106
 L 707.3,-22 L 707.213,-21.1684 L 706.954,-20.373 L 706.536,-19.6489 L 705.977,-19.0274 L 705.3,-18.5359
 L 704.536,-18.1958 L 703.3,-18 z
M 22,-18 L 20.7639,-18.1958 L 20,-18.5359 L 19.3235,-19.0274 L 18.7639,-19.6489 L 18.3458,-20.373
 L 18.0874,-21.1684 L 18,-22 L 18,-54.5303 L 18.1362,-55.5652 L 18.4358,-56.3459 L 18.8912,-57.0473
 L 19.4824,-57.6387 L 20.1837,-58.0942 L 20.9643,-58.3939 L 21.7903,-58.5248 L 22.6253,-58.4812 L 23.4331,-58.2648
 L 108.203,-25.7345 L 109.121,-25.2361 L 109.743,-24.6765 L 110.234,-24 L 110.574,-23.2361 L 110.748,-22.4181
 L 110.748,-21.5819 L 110.574,-20.7639 L 110.234,-20 L 109.743,-19.3235 L 109.121,-18.7639 L 108.397,-18.3458
 L 107.602,-18.0874 L 106.77,-18 z
M 794.23,-18 L 793.398,-18.0874 L 792.603,-18.3458 L 791.879,-18.7639 L 791.257,-19.3235 L 790.766,-20
 L 790.426,-20.7639 L 790.252,-21.5819 L 790.252,-22.4181 L 790.426,-23.2361 L 790.766,-24 L 791.257,-24.6765
 L 791.879,-25.2361 L 792.797,-25.7345 L 877.567,-58.2648 L 878.375,-58.4812 L 879.21,-58.5248 L 880.036,-58.3939
 L 880.816,-58.0942 L 881.518,-57.6387 L 882.109,-57.0473 L 882.564,-56.3459 L 882.864,-55.5652 L 883,-54.5303
 L 883,-22 L 882.913,-21.1684 L 882.654,-20.373 L 882.236,-19.6489 L 881.677,-19.0274 L 881,-18.5359
 L 880.236,-18.1958 L 879,-18 z
M 434.255,-18 L 433.219,-18.1364 L 432.439,-18.4362 L 431.737,-18.8917 L 431.146,-19.483 L 430.691,-20.1844
 L 430.391,-20.9651 L 430.26,-21.7911 L 430.304,-22.6261 L 430.521,-23.4339 L 430.901,-24.1789 L 431.427,-24.8287
 L 432.077,-25.3549 L 432.822,-25.7345 L 449.067,-31.9684 L 450.29,-32.2285 L 451.125,-32.1848 L 451.933,-31.9684
 L 468.178,-25.7345 L 469.096,-25.2361 L 469.718,-24.6765 L 470.209,-24 L 470.549,-23.2361 L 470.723,-22.4181
 L 470.723,-21.5819 L 470.549,-20.7639 L 470.209,-20 L 469.718,-19.3235 L 469.096,-18.7639 L 468.372,-18.3458
 L 467.577,-18.0874 L 466.745,-18 z
" stroke="black" fill="lightgray" stroke-width="0.5"/>
</svg>
