<?xml version="1.0" standalone="no"?>
<!DOCTYPE svg PUBLIC "-//W3C//DTD SVG 1.1//EN" "http://www.w3.org/Graphics/SVG/1.1/DTD/svg11.dtd">
<svg width="505mm" height="80mm" viewBox="0 -80 505 80" xmlns="http://www.w3.org/2000/svg" version="1.1">
<title>OpenSCAD Model</title>
<path d="
M 505,-80 L 0,-80 L 0,-0 L 4.95,-0 L 4.95,-6 L 5.00572,-6.53017
 L 5.17046,-7.03717 L 5.437,-7.49884 L 5.79372,-7.895 L 6.22499,-8.20836 L 6.71201,-8.42519 L 7.23344,-8.53603
 L 7.76654,-8.53603 L 8.28798,-8.42519 L 8.77499,-8.20836 L 9.20627,-7.895 L 9.56299,-7.49884 L 9.82953,-7.03717
 L 9.99426,-6.53017 L 10.05,-6 L 10.05,-0 L 127.45,-0 L 127.45,-6 L 127.506,-6.53017
 L 127.67,-7.03717 L 127.937,-7.49884 L 128.294,-7.895 L 128.725,-8.20836 L 129.212,-8.42519 L 129.733,-8.53603
 L 130.267,-8.53603 L 130.788,-8.42519 L 131.275,-8.20836 L 131.706,-7.895 L 132.063,-7.49884 L 132.33,-7.03717
 L 132.494,-6.53017 L 132.55,-6 L 132.55,-0 L 249.95,-0 L 249.95,-6 L 250.006,-6.53017
 L 250.17,-7.03717 L 250.437,-7.49884 L 250.794,-7.895 L 251.225,-8.20836 L 251.712,-8.42519 L 252.233,-8.53603
 L 252.767,-8.53603 L 253.288,-8.42519 L 253.775,-8.20836 L 254.206,-7.895 L 254.563,-7.49884 L 254.83,-7.03717
 L 254.994,-6.53017 L 255.05,-6 L 255.05,-0 L 372.45,-0 L 372.45,-6 L 372.506,-6.53017
 L 372.67,-7.03717 L 372.937,-7.49884 L 373.294,-7.895 L 373.725,-8.20836 L 374.212,-8.42519 L 374.733,-8.53603
 L 375.267,-8.53603 L 375.788,-8.42519 L 376.275,-8.20836 L 376.706,-7.895 L 377.063,-7.49884 L 377.33,-7.03717
 L 377.494,-6.53017 L 377.55,-6 L 377.55,-0 L 494.95,-0 L 494.95,-6 L 495.006,-6.53017
 L 495.17,-7.03717 L 495.437,-7.49884 L 495.794,-7.895 L 496.225,-8.20836 L 496.712,-8.42519 L 497.233,-8.53603
 L 497.767,-8.53603 L 498.288,-8.42519 L 498.775,-8.20836 L 499.206,-7.895 L 499.563,-7.49884 L 499.83,-7.03717
 L 499.994,-6.53017 L 500.05,-6 L 500.05,-0 L 505,-0 z
M 6.98573,-55.607 L 6.47708,-55.6875 L 5.97964,-55.8208 L 5.49887,-56.0054 L 5.04001,-56.2392 L 4.60811,-56.5196
 L 4.20789,-56.8437 L 3.84373,-57.2079 L 3.51964,-57.6081 L 3.23917,-58.04 L 3.00537,-58.4989 L 2.82082,-58.9796
 L 2.68752,-59.4771 L 2.60696,-59.9857 L 2.58,-60.5 L 2.60696,-61.0143 L 2.68752,-61.5229 L 2.82082,-62.0204
 L 3.00537,-62.5011 L 3.23917,-62.96 L 3.51964,-63.3919 L 3.84373,-63.7921 L 4.20789,-64.1563 L 4.60811,-64.4804
 L 4.95001,-64.7024 L 4.95001,-74 L 5.00574,-74.5302 L 5.17047,-75.0372 L 5.43701,-75.4988 L 5.79373,-75.895
 L 6.22501,-76.2084 L 6.71202,-76.4252 L 7.23346,-76.536 L 7.76654,-76.536 L 8.28798,-76.4252 L 8.77499,-76.2084
 L 9.20627,-75.895 L 9.56299,-75.4988 L 9.82953,-75.0372 L 9.99426,-74.5302 L 10.05,-74 L 10.05,-64.7024
 L 10.3919,-64.4804 L 10.7921,-64.1563 L 11.1563,-63.7921 L 11.4804,-63.3919 L 11.7608,-62.96 L 11.9946,-62.5011
 L 12.1792,-62.0204 L 12.3125,-61.5229 L 12.393,-61.0143 L 12.42,-60.5 L 12.393,-59.9857 L 12.3125,-59.4771
 L 12.1792,-58.9796 L 11.9946,-58.4989 L 11.7608,-58.04 L 11.4804,-57.6081 L 11.1563,-57.2079 L 10.7921,-56.8437
 L 10.3919,-56.5196 L 9.95999,-56.2392 L 9.50113,-56.0054 L 9.02036,-55.8208 L 8.52292,-55.6875 L 8.01427,-55.607
 L 7.5,-55.58 z
M 129.486,-55.607 L 128.977,-55.6875 L 128.48,-55.8208 L 127.999,-56.0054 L 127.54,-56.2392 L 127.108,-56.5196
 L 126.708,-56.8437 L 126.344,-57.2079 L 126.02,-57.6081 L 125.739,-58.04 L 125.505,-58.4989 L 125.321,-58.9796
 L 125.188,-59.4771 L 125.107,-59.9857 L 125.08,-60.5 L 125.107,-61.0143 L 125.188,-61.5229 L 125.321,-62.0204
 L 125.505,-62.5011 L 125.739,-62.96 L 126.02,-63.3919 L 126.344,-63.7921 L 126.708,-64.1563 L 127.108,-64.4804
 L 127.45,-64.7024 L 127.45,-74 L 127.506,-74.5302 L 127.67,-75.0372 L 127.937,-75.4988 L 128.294,-75.895
 L 128.725,-76.2084 L 129.212,-76.4252 L 129.733,-76.536 L 130.267,-76.536 L 130.788,-76.4252 L 131.275,-76.2084
 L 131.706,-75.895 L 132.063,-75.4988 L 132.33,-75.0372 L 132.494,-74.5302 L 132.55,-74 L 132.55,-64.7024
 L 132.892,-64.4804 L 133.292,-64.1563 L 133.656,-63.7921 L 133.98,-63.3919 L 134.261,-62.96 L 134.495,-62.5011
 L 134.679,-62.0204 L 134.812,-61.5229 L 134.893,-61.0143 L 134.92,-60.5 L 134.893,-59.9857 L 134.812,-59.4771
 L 134.679,-58.9796 L 134.495,-58.4989 L 134.261,-58.04 L 133.98,-57.6081 L 133.656,-57.2079 L 133.292,-56.8437
 L 132.892,-56.5196 L 132.46,-56.2392 L 132.001,-56.0054 L 131.52,-55.8208 L 131.023,-55.6875 L 130.514,-55.607
 L 130,-55.58 z
M 251.986,-55.607 L 251.477,-55.6875 L 250.98,-55.8208 L 250.499,-56.0054 L 250.04,-56.2392 L 249.608,-56.5196
 L 249.208,-56.8437 L 248.844,-57.2079 L 248.52,-57.6081 L 248.239,-58.04 L 248.005,-58.4989 L 247.821,-58.9796
 L 247.688,-59.4771 L 247.607,-59.9857 L 247.58,-60.5 L 247.607,-61.0143 L 247.688,-61.5229 L 247.821,-62.0204
 L 248.005,-62.5011 L 248.239,-62.96 L 248.52,-63.3919 L 248.844,-63.7921 L 249.208,-64.1563 L 249.608,-64.4804
 L 249.95,-64.7024 L 249.95,-74 L 250.006,-74.5302 L 250.17,-75.0372 L 250.437,-75.4988 L 250.794,-75.895
 L 251.225,-76.2084 L 251.712,-76.4252 L 252.233,-76.536 L 252.767,-76.536 L 253.288,-76.4252 L 253.775,-76.2084
 L 254.206,-75.895 L 254.563,-75.4988 L 254.83,-75.0372 L 254.994,-74.5302 L 255.05,-74 L 255.05,-64.7024
 L 255.392,-64.4804 L 255.792,-64.1563 L 256.156,-63.7921 L 256.48,-63.3919 L 256.761,-62.96 L 256.995,-62.5011
 L 257.179,-62.0204 L 257.312,-61.5229 L 257.393,-61.0143 L 257.42,-60.5 L 257.393,-59.9857 L 257.312,-59.4771
 L 257.179,-58.9796 L 256.995,-58.4989 L 256.761,-58.04 L 256.48,-57.6081 L 256.156,-57.2079 L 255.792,-56.8437
 L 255.392,-56.5196 L 254.96,-56.2392 L 254.501,-56.0054 L 254.02,-55.8208 L 253.523,-55.6875 L 253.014,-55.607
 L 252.5,-55.58 z
M 374.486,-55.607 L 373.977,-55.6875 L 373.48,-55.8208 L 372.999,-56.0054 L 372.54,-56.2392 L 372.108,-56.5196
 L 371.708,-56.8437 L 371.344,-57.2079 L 371.02,-57.6081 L 370.739,-58.04 L 370.505,-58.4989 L 370.321,-58.9796
 L 370.188,-59.4771 L 370.107,-59.9857 L 370.08,-60.5 L 370.107,-61.0143 L 370.188,-61.5229 L 370.321,-62.0204
 L 370.505,-62.5011 L 370.739,-62.96 L 371.02,-63.3919 L 371.344,-63.7921 L 371.708,-64.1563 L 372.108,-64.4804
 L 372.45,-64.7024 L 372.45,-74 L 372.506,-74.5302 L 372.67,-75.0372 L 372.937,-75.4988 L 373.294,-75.895
 L 373.725,-76.2084 L 374.212,-76.4252 L 374.733,-76.536 L 375.267,-76.536 L 375.788,-76.4252 L 376.275,-76.2084
 L 376.706,-75.895 L 377.063,-75.4988 L 377.33,-75.0372 L 377.494,-74.5302 L 377.55,-74 L 377.55,-64.7024
 L 377.892,-64.4804 L 378.292,-64.1563 L 378.656,-63.7921 L 378.98,-63.3919 L 379.261,-62.96 L 379.495,-62.5011
 L 379.679,-62.0204 L 379.812,-61.5229 L 379.893,-61.0143 L 379.92,-60.5 L 379.893,-59.9857 L 379.812,-59.4771
 L 379.679,-58.9796 L 379.495,-58.4989 L 379.261,-58.04 L 378.98,-57.6081 L 378.656,-57.2079 L 378.292,-56.8437
 L 377.892,-56.5196 L 377.46,-56.2392 L 377.001,-56.0054 L 376.52,-55.8208 L 376.023,-55.6875 L 375.514,-55.607
 L 375,-55.58 z
M 496.986,-55.607 L 496.477,-55.6875 L 495.98,-55.8208 L 495.499,-56.0054 L 495.04,-56.2392 L 494.608,-56.5196
 L 494.208,-56.8437 L 493.844,-57.2079 L 493.52,-57.6081 L 493.239,-58.04 L 493.005,-58.4989 L 492.821,-58.9796
 L 492.688,-59.4771 L 492.607,-59.9857 L 492.58,-60.5 L 492.607,-61.0143 L 492.688,-61.5229 L 492.821,-62.0204
 L 493.005,-62.5011 L 493.239,-62.96 L 493.52,-63.3919 L 493.844,-63.7921 L 494.208,-64.1563 L 494.608,-64.4804
 L 494.95,-64.7024 L 494.95,-74 L 495.006,-74.5302 L 495.17,-75.0372 L 495.437,-75.4988 L 495.794,-75.895
 L 496.225,-76.2084 L 496.712,-76.4252 L 497.233,-76.536 L 497.767,-76.536 L 498.288,-76.4252 L 498.775,-76.2084
 L 499.206,-75.895 L 499.563,-75.4988 L 499.83,-75.0372 L 499.994,-74.5302 L 500.05,-74 L 500.05,-64.7024
 L 500.392,-64.4804 L 500.792,-64.1563 L 501.156,-63.7921 L 501.48,-63.3919 L 501.761,-62.96 L 501.995,-62.5011
 L 502.179,-62.0204 L 502.312,-61.5229 L 502.393,-61.0143 L 502.42,-60.5 L 502.393,-59.9857 L 502.312,-59.4771
 L 502.179,-58.9796 L 501.995,-58.4989 L 501.761,-58.04 L 501.48,-57.6081 L 501.156,-57.2079 L 500.792,-56.8437
 L 500.392,-56.5196 L 499.96,-56.2392 L 499.501,-56.0054 L 499.02,-55.8208 L 498.523,-55.6875 L 498.014,-55.607
 L 497.5,-55.58 z
M 265.015,-24.1123 L 264.2,-24.2999 L 263.442,-24.6529 L 262.774,-25.1557 L 262.225,-25.7865 L 261.819,-26.5177
 L 261.574,-27.3172 L 261.5,-28.0828 L 261.5,-58 L 261.587,-58.8316 L 261.846,-59.627 L 262.264,-60.3511
 L 262.823,-60.9726 L 263.5,-61.4641 L 264.264,-61.8042 L 265.5,-62 L 319.395,-62 L 320.227,-61.9126
 L 321.022,-61.6542 L 321.746,-61.2361 L 322.368,-60.6765 L 322.859,-60 L 323.199,-59.2361 L 323.373,-58.4181
 L 323.373,-57.5819 L 323.199,-56.7639 L 322.859,-56 L 322.368,-55.3235 L 321.746,-54.7639 L 321.336,-54.5027
 L 267.441,-24.5855 L 266.672,-24.2583 L 265.851,-24.0982 z
M 238.328,-24.2583 L 237.559,-24.5855 L 183.664,-54.5027 L 183.254,-54.7639 L 182.632,-55.3235 L 182.141,-56
 L 181.801,-56.7639 L 181.627,-57.5819 L 181.627,-58.4181 L 181.801,-59.2361 L 182.141,-60 L 182.632,-60.6765
 L 183.254,-61.2361 L 183.978,-61.6542 L 184.773,-61.9126 L 185.605,-62 L 239.5,-62 L 240.736,-61.8042
 L 241.5,-61.4641 L 242.177,-60.9726 L 242.736,-60.3511 L 243.154,-59.627 L 243.413,-58.8316 L 243.5,-58
 L 243.5,-28.0828 L 243.426,-27.3172 L 243.181,-26.5177 L 242.775,-25.7865 L 242.226,-25.1557 L 241.558,-24.6529
 L 240.8,-24.2999 L 239.985,-24.1123 L 239.149,-24.0982 z
M 387.515,-24.1123 L 386.7,-24.2999 L 385.942,-24.6529 L 385.274,-25.1557 L 384.725,-25.7865 L 384.319,-26.5177
 L 384.074,-27.3172 L 384,-28.0828 L 384,-58 L 384.087,-58.8316 L 384.346,-59.627 L 384.764,-60.3511
 L 385.323,-60.9726 L 386,-61.4641 L 386.764,-61.8042 L 388,-62 L 441.895,-62 L 442.727,-61.9126
 L 443.522,-61.6542 L 444.246,-61.2361 L 444.868,-60.6765 L 445.359,-60 L 445.699,-59.2361 L 445.873,-58.4181
 L 445.873,-57.5819 L 445.699,-56.7639 L 445.359,-56 L 444.868,-55.3235 L 444.246,-54.7639 L 443.836,-54.5027
 L 389.941,-24.5855 L 389.172,-24.2583 L 388.351,-24.0982 z
M 115.828,-24.2583 L 115.059,-24.5855 L 61.1637,-54.5027 L 60.7539,-54.7639 L 60.1325,-55.3235 L 59.641,-56
 L 59.3008,-56.7639 L 59.127,-57.5819 L 59.127,-58.4181 L 59.3008,-59.2361 L 59.641,-60 L 60.1325,-60.6765
 L 60.7539,-61.2361 L 61.4781,-61.6542 L 62.2734,-61.9126 L 63.1051,-62 L 117,-62 L 118.236,-61.8042
 L 119,-61.4641 L 119.677,-60.9726 L 120.236,-60.3511 L 120.654,-59.627 L 120.913,-58.8316 L 121,-58
 L 121,-28.0828 L 120.926,-27.3172 L 120.681,-26.5177 L 120.275,-25.7865 L 119.726,-25.1557 L 119.058,-24.6529
 L 118.3,-24.2999 L 117.485,-24.1123 L 116.649,-24.0982 z
M 308.105,-18 L 307.273,-18.0874 L 306.478,-18.3458 L 305.754,-18.7639 L 305.132,-19.3235 L 304.641,-20
 L 304.301,-20.7639 L 304.127,-21.5819 L 304.127,-22.4181 L 304.301,-23.2361 L 304.641,-24 L 305.132,-24.6765
 L 305.754,-25.2361 L 306.164,-25.4973 L 360.059,-55.4145 L 360.828,-55.7417 L 361.649,-55.9017 L 362.485,-55.8876
 L 363.3,-55.7 L 364.058,-55.3471 L 364.726,-54.8442 L 365.275,-54.2135 L 365.681,-53.4823 L 365.926,-52.6828
 L 366,-51.9172 L 366,-22 L 365.913,-21.1684 L 365.654,-20.373 L 365.236,-19.6489 L 364.677,-19.0274
 L 364,-18.5359 L 363.236,-18.1958 L 362,-18 z
M 143,-18 L 141.764,-18.1958 L 141,-18.5359 L 140.323,-19.0274 L 139.764,-19.6489 L 139.346,-20.373
 L 139.087,-21.1684 L 139,-22 L 139,-51.9172 L 139.074,-52.6828 L 139.319,-53.4823 L 139.725,-54.2135
 L 140.274,-54.8442 L 140.942,-55.3471 L 141.7,-55.7 L 142.515,-55.8876 L 143.351,-55.9017 L 144.172,-55.7417
 L 144.941,-55.4145 L 198.836,-25.4973 L 199.246,-25.2361 L 199.868,-24.6765 L 200.359,-24 L 200.699,-23.2361
 L 200.873,-22.4181 L 200.873,-21.5819 L 200.699,-20.7639 L 200.359,-20 L 199.868,-19.3235 L 199.246,-18.7639
 L 198.522,-18.3458 L 197.727,-18.0874 L 196.895,-18 z
M 22,-18 L 20.7639,-18.1958 L 20,-18.5359 L 19.3235,-19.0274 L 18.7639,-19.6489 L 18.3458,-20.373
 L 18.0874,-21.1684 L 18,-22 L 18,-51.0845 L 18.074,-51.8501 L 18.3189,-52.6497 L 18.7248,-53.3808
 L 19.2738,-54.0116 L 19.9419,-54.5145 L 20.7,-54.8674 L 21.5149,-55.055 L 22.351,-55.0691 L 23.1718,-54.909
 L 23.9414,-54.5818 L 76.3363,-25.4973 L 76.7461,-25.2361 L 77.3675,-24.6765 L 77.859,-24 L 78.1992,-23.2361
 L 78.373,-22.4181 L 78.373,-21.5819 L 78.1992,-20.7639 L 77.859,-20 L 77.3675,-19.3235 L 76.7461,-18.7639
 L 76.0219,-18.3458 L 75.2266,-18.0874 L 74.3949,-18 z
M 430.605,-18 L 429.773,-18.0874 L 428.978,-18.3458 L 428.254,-18.7639 L 427.632,-19.3235 L 427.141,-20
 L 426.801,-20.7639 L 426.627,-21.5819 L 426.627,-22.4181 L 426.801,-23.2361 L 427.141,-24 L 427.632,-24.6765
 L 428.254,-25.2361 L 428.664,-25.4973 L 481.059,-54.5818 L 481.828,-54.909 L 482.649,-55.0691 L 483.485,-55.055
 L 484.3,-54.8674 L 485.058,-54.5145 L 485.726,-54.0116 L 486.275,-53.3808 L 486.681,-52.6497 L 486.926,-51.8501
 L 487,-51.0845 L 487,-22 L 486.913,-21.1684 L 486.654,-20.373 L 486.236,-19.6489 L 485.677,-19.0274
 L 485,-18.5359 L 484.236,-18.1958 L 483,-18 z
" stroke="black" fill="lightgray" stroke-width="0.5"/>
</svg>
