<?xml version="1.0" standalone="no"?>
<!DOCTYPE svg PUBLIC "-//W3C//DTD SVG 1.1//EN" "http://www.w3.org/Graphics/SVG/1.1/DTD/svg11.dtd">
<svg width="835mm" height="80mm" viewBox="0 -80 835 80" xmlns="http://www.w3.org/2000/svg" version="1.1">
<title>OpenSCAD Model</title>
<path d="
M 835,-80 L 0,-80 L 0,-0 L 4.95,-0 L 4.95,-6 L 5.00572,-6.53017
 L 5.17046,-7.03717 L 5.437,-7.49884 L 5.79372,-7.895 L 6.22499,-8.20836 L 6.71201,-8.42519 L 7.23344,-8.53603
 L 7.76654,-8.53603 L 8.28798,-8.42519 L 8.77499,-8.20836 L 9.20627,-7.895 L 9.56299,-7.49884 L 9.82953,-7.03717
 L 9.99426,-6.53017 L 10.05,-6 L 10.05,-0 L 168.95,-0 L 168.95,-6 L 169.006,-6.53017
 L 169.17,-7.03717 L 169.437,-7.49884 L 169.794,-7.895 L 170.225,-8.20836 L 170.712,-8.42519 L 171.233,-8.53603
 L 171.767,-8.53603 L 172.288,-8.42519 L 172.775,-8.20836 L 173.206,-7.895 L 173.563,-7.49884 L 173.83,-7.03717
 L 173.994,-6.53017 L 174.05,-6 L 174.05,-0 L 332.95,-0 L 332.95,-6 L 333.006,-6.53017
 L 333.17,-7.03717 L 333.437,-7.49884 L 333.794,-7.895 L 334.225,-8.20836 L 334.712,-8.42519 L 335.233,-8.53603
 L 335.767,-8.53603 L 336.288,-8.42519 L 336.775,-8.20836 L 337.206,-7.895 L 337.563,-7.49884 L 337.83,-7.03717
 L 337.994,-6.53017 L 338.05,-6 L 338.05,-0 L 496.95,-0 L 496.95,-6 L 497.006,-6.53017
 L 497.17,-7.03717 L 497.437,-7.49884 L 497.794,-7.895 L 498.225,-8.20836 L 498.712,-8.42519 L 499.233,-8.53603
 L 499.767,-8.53603 L 500.288,-8.42519 L 500.775,-8.20836 L 501.206,-7.895 L 501.563,-7.49884 L 501.83,-7.03717
 L 501.994,-6.53017 L 502.05,-6 L 502.05,-0 L 660.95,-0 L 660.95,-6 L 661.006,-6.53017
 L 661.17,-7.03717 L 661.437,-7.49884 L 661.794,-7.895 L 662.225,-8.20836 L 662.712,-8.42519 L 663.233,-8.53603
 L 663.767,-8.53603 L 664.288,-8.42519 L 664.775,-8.20836 L 665.206,-7.895 L 665.563,-7.49884 L 665.83,-7.03717
 L 665.994,-6.53017 L 666.05,-6 L 666.05,-0 L 824.95,-0 L 824.95,-6 L 825.006,-6.53017
 L 825.17,-7.03717 L 825.437,-7.49884 L 825.794,-7.895 L 826.225,-8.20836 L 826.712,-8.42519 L 827.233,-8.53603
 L 827.767,-8.53603 L 828.288,-8.42519 L 828.775,-8.20836 L 829.206,-7.895 L 829.563,-7.49884 L 829.83,-7.03717
 L 829.994,-6.53017 L 830.05,-6 L 830.05,-0 L 835,-0 z
M 6.98573,-55.607 L 6.47708,-55.6875 L 5.97964,-55.8208 L 5.49887,-56.0054 L 5.04001,-56.2392 L 4.60811,-56.5196
 L 4.20789,-56.8437 L 3.84373,-57.2079 L 3.51964,-57.6081 L 3.23917,-58.04 L 3.00537,-58.4989 L 2.82082,-58.9796
 L 2.68752,-59.4771 L 2.60696,-59.9857 L 2.58,-60.5 L 2.60696,-61.0143 L 2.68752,-61.5229 L 2.82082,-62.0204
 L 3.00537,-62.5011 L 3.23917,-62.96 L 3.51964,-63.3919 L 3.84373,-63.7921 L 4.20789,-64.1563 L 4.60811,-64.4804
 L 4.95001,-64.7024 L 4.95001,-74 L 5.00574,-74.5302 L 5.17047,-75.0372 L 5.43701,-75.4988 L 5.79373,-75.895
 L 6.22501,-76.2084 L 6.71202,-76.4252 L 7.23346,-76.536 L 7.76654,-76.536 L 8.28798,-76.4252 L 8.77499,-76.2084
 L 9.20627,-75.895 L 9.56299,-75.4988 L 9.82953,-75.0372 L 9.99426,-74.5302 L 10.05,-74 L 10.05,-64.7024
 L 10.3919,-64.4804 L 10.7921,-64.1563 L 11.1563,-63.7921 L 11.4804,-63.3919 L 11.7608,-62.96 L 11.9946,-62.5011
 L 12.1792,-62.0204 L 12.3125,-61.5229 L 12.393,-61.0143 L 12.42,-60.5 L 12.393,-59.9857 L 12.3125,-59.4771
 L 12.1792,-58.9796 L 11.9946,-58.4989 L 11.7608,-58.04 L 11.4804,-57.6081 L 11.1563,-57.2079 L 10.7921,-56.8437
 L 10.3919,-56.5196 L 9.95999,-56.2392 L 9.50113,-56.0054 L 9.02036,-55.8208 L 8.52292,-55.6875 L 8.01427,-55.607
 L 7.5,-55.58 z
M 170.986,-55.607 L 170.477,-55.6875 L 169.98,-55.8208 L 169.499,-56.0054 L 169.04,-56.2392 L 168.608,-56.5196
 L 168.208,-56.8437 L 167.844,-57.2079 L 167.52,-57.6081 L 167.239,-58.04 L 167.005,-58.4989 L 166.821,-58.9796
 L 166.688,-59.4771 L 166.607,-59.9857 L 166.58,-60.5 L 166.607,-61.0143 L 166.688,-61.5229 L 166.821,-62.0204
 L 167.005,-62.5011 L 167.239,-62.96 L 167.52,-63.3919 L 167.844,-63.7921 L 168.208,-64.1563 L 168.608,-64.4804
 L 168.95,-64.7024 L 168.95,-74 L 169.006,-74.5302 L 169.17,-75.0372 L 169.437,-75.4988 L 169.794,-75.895
 L 170.225,-76.2084 L 170.712,-76.4252 L 171.233,-76.536 L 171.767,-76.536 L 172.288,-76.4252 L 172.775,-76.2084
 L 173.206,-75.895 L 173.563,-75.4988 L 173.83,-75.0372 L 173.994,-74.5302 L 174.05,-74 L 174.05,-64.7024
 L 174.392,-64.4804 L 174.792,-64.1563 L 175.156,-63.7921 L 175.48,-63.3919 L 175.761,-62.96 L 175.995,-62.5011
 L 176.179,-62.0204 L 176.312,-61.5229 L 176.393,-61.0143 L 176.42,-60.5 L 176.393,-59.9857 L 176.312,-59.4771
 L 176.179,-58.9796 L 175.995,-58.4989 L 175.761,-58.04 L 175.48,-57.6081 L 175.156,-57.2079 L 174.792,-56.8437
 L 174.392,-56.5196 L 173.96,-56.2392 L 173.501,-56.0054 L 173.02,-55.8208 L 172.523,-55.6875 L 172.014,-55.607
 L 171.5,-55.58 z
M 334.986,-55.607 L 334.477,-55.6875 L 333.98,-55.8208 L 333.499,-56.0054 L 333.04,-56.2392 L 332.608,-56.5196
 L 332.208,-56.8437 L 331.844,-57.2079 L 331.52,-57.6081 L 331.239,-58.04 L 331.005,-58.4989 L 330.821,-58.9796
 L 330.688,-59.4771 L 330.607,-59.9857 L 330.58,-60.5 L 330.607,-61.0143 L 330.688,-61.5229 L 330.821,-62.0204
 L 331.005,-62.5011 L 331.239,-62.96 L 331.52,-63.3919 L 331.844,-63.7921 L 332.208,-64.1563 L 332.608,-64.4804
 L 332.95,-64.7024 L 332.95,-74 L 333.006,-74.5302 L 333.17,-75.0372 L 333.437,-75.4988 L 333.794,-75.895
 L 334.225,-76.2084 L 334.712,-76.4252 L 335.233,-76.536 L 335.767,-76.536 L 336.288,-76.4252 L 336.775,-76.2084
 L 337.206,-75.895 L 337.563,-75.4988 L 337.83,-75.0372 L 337.994,-74.5302 L 338.05,-74 L 338.05,-64.7024
 L 338.392,-64.4804 L 338.792,-64.1563 L 339.156,-63.7921 L 339.48,-63.3919 L 339.761,-62.96 L 339.995,-62.5011
 L 340.179,-62.0204 L 340.312,-61.5229 L 340.393,-61.0143 L 340.42,-60.5 L 340.393,-59.9857 L 340.312,-59.4771
 L 340.179,-58.9796 L 339.995,-58.4989 L 339.761,-58.04 L 339.48,-57.6081 L 339.156,-57.2079 L 338.792,-56.8437
 L 338.392,-56.5196 L 337.96,-56.2392 L 337.501,-56.0054 L 337.02,-55.8208 L 336.523,-55.6875 L 336.014,-55.607
 L 335.5,-55.58 z
M 498.986,-55.607 L 498.477,-55.6875 L 497.98,-55.8208 L 497.499,-56.0054 L 497.04,-56.2392 L 496.608,-56.5196
 L 496.208,-56.8437 L 495.844,-57.2079 L 495.52,-57.6081 L 495.239,-58.04 L 495.005,-58.4989 L 494.821,-58.9796
 L 494.688,-59.4771 L 494.607,-59.9857 L 494.58,-60.5 L 494.607,-61.0143 L 494.688,-61.5229 L 494.821,-62.0204
 L 495.005,-62.5011 L 495.239,-62.96 L 495.52,-63.3919 L 495.844,-63.7921 L 496.208,-64.1563 L 496.608,-64.4804
 L 496.95,-64.7024 L 496.95,-74 L 497.006,-74.5302 L 497.17,-75.0372 L 497.437,-75.4988 L 497.794,-75.895
 L 498.225,-76.2084 L 498.712,-76.4252 L 499.233,-76.536 L 499.767,-76.536 L 500.288,-76.4252 L 500.775,-76.2084
 L 501.206,-75.895 L 501.563,-75.4988 L 501.83,-75.0372 L 501.994,-74.5302 L 502.05,-74 L 502.05,-64.7024
 L 502.392,-64.4804 L 502.792,-64.1563 L 503.156,-63.7921 L 503.48,-63.3919 L 503.761,-62.96 L 503.995,-62.5011
 L 504.179,-62.0204 L 504.312,-61.5229 L 504.393,-61.0143 L 504.42,-60.5 L 504.393,-59.9857 L 504.312,-59.4771
 L 504.179,-58.9796 L 503.995,-58.4989 L 503.761,-58.04 L 503.48,-57.6081 L 503.156,-57.2079 L 502.792,-56.8437
 L 502.392,-56.5196 L 501.96,-56.2392 L 501.501,-56.0054 L 501.02,-55.8208 L 500.523,-55.6875 L 500.014,-55.607
 L 499.5,-55.58 z
M 662.986,-55.607 L 662.477,-55.6875 L 661.98,-55.8208 L 661.499,-56.0054 L 661.04,-56.2392 L 660.608,-56.5196
 L 660.208,-56.8437 L 659.844,-57.2079 L 659.52,-57.6081 L 659.239,-58.04 L 659.005,-58.4989 L 658.821,-58.9796
 L 658.688,-59.4771 L 658.607,-59.9857 L 658.58,-60.5 L 658.607,-61.0143 L 658.688,-61.5229 L 658.821,-62.0204
 L 659.005,-62.5011 L 659.239,-62.96 L 659.52,-63.3919 L 659.844,-63.7921 L 660.208,-64.1563 L 660.608,-64.4804
 L 660.95,-64.7024 L 660.95,-74 L 661.006,-74.5302 L 661.17,-75.0372 L 661.437,-75.4988 L 661.794,-75.895
 L 662.225,-76.2084 L 662.712,-76.4252 L 663.233,-76.536 L 663.767,-76.536 L 664.288,-76.4252 L 664.775,-76.2084
 L 665.206,-75.895 L 665.563,-75.4988 L 665.83,-75.0372 L 665.994,-74.5302 L 666.05,-74 L 666.05,-64.7024
 L 666.392,-64.4804 L 666.792,-64.1563 L 667.156,-63.7921 L 667.48,-63.3919 L 667.761,-62.96 L 667.995,-62.5011
 L 668.179,-62.0204 L 668.312,-61.5229 L 668.393,-61.0143 L 668.42,-60.5 L 668.393,-59.9857 L 668.312,-59.4771
 L 668.179,-58.9796 L 667.995,-58.4989 L 667.761,-58.04 L 667.48,-57.6081 L 667.156,-57.2079 L 666.792,-56.8437
 L 666.392,-56.5196 L 665.96,-56.2392 L 665.501,-56.0054 L 665.02,-55.8208 L 664.523,-55.6875 L 664.014,-55.607
 L 663.5,-55.58 z
M 826.986,-55.607 L 826.477,-55.6875 L 825.98,-55.8208 L 825.499,-56.0054 L 825.04,-56.2392 L 824.608,-56.5196
 L 824.208,-56.8437 L 823.844,-57.2079 L 823.52,-57.6081 L 823.239,-58.04 L 823.005,-58.4989 L 822.821,-58.9796
 L 822.688,-59.4771 L 822.607,-59.9857 L 822.58,-60.5 L 822.607,-61.0143 L 822.688,-61.5229 L 822.821,-62.0204
 L 823.005,-62.5011 L 823.239,-62.96 L 823.52,-63.3919 L 823.844,-63.7921 L 824.208,-64.1563 L 824.608,-64.4804
 L 824.95,-64.7024 L 824.95,-74 L 825.006,-74.5302 L 825.17,-75.0372 L 825.437,-75.4988 L 825.794,-75.895
 L 826.225,-76.2084 L 826.712,-76.4252 L 827.233,-76.536 L 827.767,-76.536 L 828.288,-76.4252 L 828.775,-76.2084
 L 829.206,-75.895 L 829.563,-75.4988 L 829.83,-75.0372 L 829.994,-74.5302 L 830.05,-74 L 830.05,-64.7024
 L 830.392,-64.4804 L 830.792,-64.1563 L 831.156,-63.7921 L 831.48,-63.3919 L 831.761,-62.96 L 831.995,-62.5011
 L 832.179,-62.0204 L 832.312,-61.5229 L 832.393,-61.0143 L 832.42,-60.5 L 832.393,-59.9857 L 832.312,-59.4771
 L 832.179,-58.9796 L 831.995,-58.4989 L 831.761,-58.04 L 831.48,-57.6081 L 831.156,-57.2079 L 830.792,-56.8437
 L 830.392,-56.5196 L 829.96,-56.2392 L 829.501,-56.0054 L 829.02,-55.8208 L 828.523,-55.6875 L 828.014,-55.607
 L 827.5,-55.58 z
M 416.77,-47.9714 L 415.968,-48.2092 L 401.266,-54.305 L 400.447,-54.7639 L 399.826,-55.3235 L 399.334,-56
 L 398.994,-56.7639 L 398.82,-57.5819 L 398.82,-58.4181 L 398.994,-59.2361 L 399.334,-60 L 399.826,-60.6765
 L 400.447,-61.2361 L 401.171,-61.6542 L 401.966,-61.9126 L 402.798,-62 L 432.202,-62 L 433.134,-61.8898
 L 433.923,-61.611 L 434.636,-61.1743 L 435.243,-60.5989 L 435.716,-59.9099 L 436.037,-59.1374 L 436.189,-58.3153
 L 436.168,-57.4793 L 435.973,-56.6661 L 435.613,-55.9112 L 435.104,-55.2476 L 434.469,-54.7043 L 433.734,-54.305
 L 419.032,-48.2092 L 418.432,-48.0143 L 417.603,-47.9054 z
M 321.77,-21.526 L 320.968,-21.7638 L 242.486,-54.305 L 241.667,-54.7639 L 241.046,-55.3235 L 240.554,-56
 L 240.214,-56.7639 L 240.04,-57.5819 L 240.04,-58.4181 L 240.214,-59.2361 L 240.554,-60 L 241.046,-60.6765
 L 241.667,-61.2361 L 242.391,-61.6542 L 243.186,-61.9126 L 244.018,-62 L 322.5,-62 L 323.736,-61.8042
 L 324.5,-61.4641 L 325.177,-60.9726 L 325.736,-60.3511 L 326.154,-59.627 L 326.413,-58.8316 L 326.5,-58
 L 326.5,-25.4587 L 326.335,-24.3213 L 326.015,-23.5488 L 325.541,-22.8599 L 324.934,-22.2845 L 324.221,-21.8478
 L 323.432,-21.5689 L 322.603,-21.4601 z
M 675.568,-21.5689 L 674.779,-21.8478 L 674.066,-22.2845 L 673.459,-22.8599 L 672.985,-23.5488 L 672.665,-24.3213
 L 672.5,-25.4587 L 672.5,-58 L 672.587,-58.8316 L 672.846,-59.627 L 673.264,-60.3511 L 673.823,-60.9726
 L 674.5,-61.4641 L 675.264,-61.8042 L 676.5,-62 L 754.982,-62 L 755.814,-61.9126 L 756.609,-61.6542
 L 757.333,-61.2361 L 757.954,-60.6765 L 758.446,-60 L 758.786,-59.2361 L 758.96,-58.4181 L 758.96,-57.5819
 L 758.786,-56.7639 L 758.446,-56 L 757.954,-55.3235 L 757.333,-54.7639 L 756.514,-54.305 L 678.032,-21.7638
 L 677.23,-21.526 L 676.397,-21.4601 z
M 157.77,-21.526 L 156.968,-21.7638 L 78.4861,-54.305 L 77.667,-54.7639 L 77.0455,-55.3235 L 76.554,-56
 L 76.2139,-56.7639 L 76.04,-57.5819 L 76.04,-58.4181 L 76.2139,-59.2361 L 76.554,-60 L 77.0455,-60.6765
 L 77.667,-61.2361 L 78.3912,-61.6542 L 79.1865,-61.9126 L 80.0181,-62 L 158.5,-62 L 159.736,-61.8042
 L 160.5,-61.4641 L 161.177,-60.9726 L 161.736,-60.3511 L 162.154,-59.627 L 162.413,-58.8316 L 162.5,-58
 L 162.5,-25.4587 L 162.335,-24.3213 L 162.015,-23.5488 L 161.541,-22.8599 L 160.934,-22.2845 L 160.221,-21.8478
 L 159.432,-21.5689 L 158.603,-21.4601 z
M 511.568,-21.5689 L 510.779,-21.8478 L 510.066,-22.2845 L 509.459,-22.8599 L 508.985,-23.5488 L 508.665,-24.3213
 L 508.5,-25.4587 L 508.5,-58 L 508.587,-58.8316 L 508.846,-59.627 L 509.264,-60.3511 L 509.823,-60.9726
 L 510.5,-61.4641 L 511.264,-61.8042 L 512.5,-62 L 590.982,-62 L 591.814,-61.9126 L 592.609,-61.6542
 L 593.333,-61.2361 L 593.954,-60.6765 L 594.446,-60 L 594.786,-59.2361 L 594.96,-58.4181 L 594.96,-57.5819
 L 594.786,-56.7639 L 594.446,-56 L 593.954,-55.3235 L 593.333,-54.7639 L 592.514,-54.305 L 514.032,-21.7638
 L 513.23,-21.526 L 512.397,-21.4601 z
M 348.082,-19.3163 L 347.264,-19.4901 L 346.5,-19.8303 L 345.823,-20.3218 L 345.264,-20.9432 L 344.846,-21.6674
 L 344.587,-22.4627 L 344.5,-23.2944 L 344.5,-56.7056 L 344.665,-57.8431 L 344.985,-58.6155 L 345.459,-59.3045
 L 346.066,-59.8799 L 346.779,-60.3166 L 347.568,-60.5955 L 348.397,-60.7043 L 349.23,-60.6384 L 350.032,-60.4006
 L 390.322,-43.695 L 391.224,-43.1743 L 391.831,-42.5989 L 392.305,-41.9099 L 392.625,-41.1374 L 392.778,-40.3153
 L 392.756,-39.4793 L 392.561,-38.6661 L 392.201,-37.9112 L 391.693,-37.2476 L 391.057,-36.7043 L 390.322,-36.305
 L 350.032,-19.5994 L 348.918,-19.3163 z
M 485.77,-19.3616 L 484.968,-19.5994 L 444.678,-36.305 L 443.776,-36.8257 L 443.169,-37.4011 L 442.695,-38.0901
 L 442.375,-38.8626 L 442.222,-39.6847 L 442.244,-40.5207 L 442.439,-41.3339 L 442.799,-42.0888 L 443.307,-42.7524
 L 443.943,-43.2957 L 444.678,-43.695 L 484.968,-60.4006 L 486.082,-60.6837 L 486.918,-60.6837 L 487.736,-60.5099
 L 488.5,-60.1697 L 489.177,-59.6782 L 489.736,-59.0568 L 490.154,-58.3326 L 490.413,-57.5373 L 490.5,-56.7056
 L 490.5,-23.2944 L 490.335,-22.1569 L 490.015,-21.3845 L 489.541,-20.6955 L 488.934,-20.1201 L 488.221,-19.6834
 L 487.432,-19.4045 L 486.603,-19.2957 z
M 184.5,-18 L 183.264,-18.1958 L 182.5,-18.5359 L 181.823,-19.0274 L 181.264,-19.6489 L 180.846,-20.373
 L 180.587,-21.1684 L 180.5,-22 L 180.5,-54.5413 L 180.665,-55.6787 L 180.985,-56.4512 L 181.459,-57.1401
 L 182.066,-57.7155 L 182.779,-58.1522 L 183.568,-58.4311 L 184.397,-58.5399 L 185.23,-58.474 L 186.032,-58.2362
 L 264.514,-25.695 L 265.333,-25.2361 L 265.954,-24.6765 L 266.446,-24 L 266.786,-23.2361 L 266.96,-22.4181
 L 266.96,-21.5819 L 266.786,-20.7639 L 266.446,-20 L 265.954,-19.3235 L 265.333,-18.7639 L 264.609,-18.3458
 L 263.814,-18.0874 L 262.982,-18 z
M 572.018,-18 L 571.186,-18.0874 L 570.391,-18.3458 L 569.667,-18.7639 L 569.046,-19.3235 L 568.554,-20
 L 568.214,-20.7639 L 568.04,-21.5819 L 568.04,-22.4181 L 568.214,-23.2361 L 568.554,-24 L 569.046,-24.6765
 L 569.667,-25.2361 L 570.486,-25.695 L 648.968,-58.2362 L 649.77,-58.474 L 650.603,-58.5399 L 651.432,-58.4311
 L 652.221,-58.1522 L 652.934,-57.7155 L 653.541,-57.1401 L 654.015,-56.4512 L 654.335,-55.6787 L 654.5,-54.5413
 L 654.5,-22 L 654.413,-21.1684 L 654.154,-20.373 L 653.736,-19.6489 L 653.177,-19.0274 L 652.5,-18.5359
 L 651.736,-18.1958 L 650.5,-18 z
M 22,-18 L 20.7639,-18.1958 L 20,-18.5359 L 19.3235,-19.0274 L 18.7639,-19.6489 L 18.3458,-20.373
 L 18.0874,-21.1684 L 18,-22 L 18,-53.9193 L 18.1651,-55.0567 L 18.4854,-55.8292 L 18.9593,-56.5182
 L 19.5661,-57.0936 L 20.2793,-57.5303 L 21.0676,-57.8091 L 21.8967,-57.918 L 22.7303,-57.8521 L 23.5321,-57.6143
 L 100.514,-25.695 L 101.333,-25.2361 L 101.954,-24.6765 L 102.446,-24 L 102.786,-23.2361 L 102.96,-22.4181
 L 102.96,-21.5819 L 102.786,-20.7639 L 102.446,-20 L 101.954,-19.3235 L 101.333,-18.7639 L 100.609,-18.3458
 L 99.8135,-18.0874 L 98.9819,-18 z
M 736.018,-18 L 735.186,-18.0874 L 734.391,-18.3458 L 733.667,-18.7639 L 733.046,-19.3235 L 732.554,-20
 L 732.214,-20.7639 L 732.04,-21.5819 L 732.04,-22.4181 L 732.214,-23.2361 L 732.554,-24 L 733.046,-24.6765
 L 733.667,-25.2361 L 734.486,-25.695 L 811.468,-57.6143 L 812.27,-57.8521 L 813.103,-57.918 L 813.932,-57.8091
 L 814.721,-57.5303 L 815.434,-57.0936 L 816.041,-56.5182 L 816.515,-55.8292 L 816.835,-55.0567 L 817,-53.9193
 L 817,-22 L 816.913,-21.1684 L 816.654,-20.373 L 816.236,-19.6489 L 815.677,-19.0274 L 815,-18.5359
 L 814.236,-18.1958 L 813,-18 z
M 402.798,-18 L 401.866,-18.1102 L 401.077,-18.389 L 400.364,-18.8257 L 399.757,-19.4011 L 399.284,-20.0901
 L 398.963,-20.8626 L 398.811,-21.6847 L 398.832,-22.5207 L 399.027,-23.3339 L 399.387,-24.0888 L 399.896,-24.7524
 L 400.531,-25.2957 L 401.266,-25.695 L 415.968,-31.7908 L 416.568,-31.9857 L 417.397,-32.0946 L 418.23,-32.0286
 L 419.032,-31.7908 L 433.734,-25.695 L 434.553,-25.2361 L 435.174,-24.6765 L 435.666,-24 L 436.006,-23.2361
 L 436.18,-22.4181 L 436.18,-21.5819 L 436.006,-20.7639 L 435.666,-20 L 435.174,-19.3235 L 434.553,-18.7639
 L 433.829,-18.3458 L 433.033,-18.0874 L 432.202,-18 z
" stroke="black" fill="lightgray" stroke-width="0.5"/>
</svg>
