<?xml version="1.0" standalone="no"?>
<!DOCTYPE svg PUBLIC "-//W3C//DTD SVG 1.1//EN" "http://www.w3.org/Graphics/SVG/1.1/DTD/svg11.dtd">
<svg width="621mm" height="80mm" viewBox="0 -80 621 80" xmlns="http://www.w3.org/2000/svg" version="1.1">
<title>OpenSCAD Model</title>
<path d="
M 621,-80 L 0,-80 L 0,-0 L 4.95,-0 L 4.95,-6 L 5.00572,-6.53017
 L 5.17046,-7.03717 L 5.437,-7.49884 L 5.79372,-7.895 L 6.22499,-8.20836 L 6.71201,-8.42519 L 7.23344,-8.53603
 L 7.76654,-8.53603 L 8.28798,-8.42519 L 8.77499,-8.20836 L 9.20627,-7.895 L 9.56299,-7.49884 L 9.82953,-7.03717
 L 9.99426,-6.53017 L 10.05,-6 L 10.05,-0 L 126.15,-0 L 126.15,-6 L 126.206,-6.53017
 L 126.37,-7.03717 L 126.637,-7.49884 L 126.994,-7.895 L 127.425,-8.20836 L 127.912,-8.42519 L 128.433,-8.53603
 L 128.967,-8.53603 L 129.488,-8.42519 L 129.975,-8.20836 L 130.406,-7.895 L 130.763,-7.49884 L 131.03,-7.03717
 L 131.194,-6.53017 L 131.25,-6 L 131.25,-0 L 247.35,-0 L 247.35,-6 L 247.406,-6.53017
 L 247.57,-7.03717 L 247.837,-7.49884 L 248.194,-7.895 L 248.625,-8.20836 L 249.112,-8.42519 L 249.633,-8.53603
 L 250.167,-8.53603 L 250.688,-8.42519 L 251.175,-8.20836 L 251.606,-7.895 L 251.963,-7.49884 L 252.23,-7.03717
 L 252.394,-6.53017 L 252.45,-6 L 252.45,-0 L 368.55,-0 L 368.55,-6 L 368.606,-6.53017
 L 368.77,-7.03717 L 369.037,-7.49884 L 369.394,-7.895 L 369.825,-8.20836 L 370.312,-8.42519 L 370.833,-8.53603
 L 371.367,-8.53603 L 371.888,-8.42519 L 372.375,-8.20836 L 372.806,-7.895 L 373.163,-7.49884 L 373.43,-7.03717
 L 373.594,-6.53017 L 373.65,-6 L 373.65,-0 L 489.75,-0 L 489.75,-6 L 489.806,-6.53017
 L 489.97,-7.03717 L 490.237,-7.49884 L 490.594,-7.895 L 491.025,-8.20836 L 491.512,-8.42519 L 492.033,-8.53603
 L 492.567,-8.53603 L 493.088,-8.42519 L 493.575,-8.20836 L 494.006,-7.895 L 494.363,-7.49884 L 494.63,-7.03717
 L 494.794,-6.53017 L 494.85,-6 L 494.85,-0 L 610.95,-0 L 610.95,-6 L 611.006,-6.53017
 L 611.17,-7.03717 L 611.437,-7.49884 L 611.794,-7.895 L 612.225,-8.20836 L 612.712,-8.42519 L 613.233,-8.53603
 L 613.767,-8.53603 L 614.288,-8.42519 L 614.775,-8.20836 L 615.206,-7.895 L 615.563,-7.49884 L 615.83,-7.03717
 L 615.994,-6.53017 L 616.05,-6 L 616.05,-0 L 621,-0 z
M 6.98573,-55.607 L 6.47708,-55.6875 L 5.97964,-55.8208 L 5.49887,-56.0054 L 5.04001,-56.2392 L 4.60811,-56.5196
 L 4.20789,-56.8437 L 3.84373,-57.2079 L 3.51964,-57.6081 L 3.23917,-58.04 L 3.00537,-58.4989 L 2.82082,-58.9796
 L 2.68752,-59.4771 L 2.60696,-59.9857 L 2.58,-60.5 L 2.60696,-61.0143 L 2.68752,-61.5229 L 2.82082,-62.0204
 L 3.00537,-62.5011 L 3.23917,-62.96 L 3.51964,-63.3919 L 3.84373,-63.7921 L 4.20789,-64.1563 L 4.60811,-64.4804
 L 4.95001,-64.7024 L 4.95001,-74 L 5.00574,-74.5302 L 5.17047,-75.0372 L 5.43701,-75.4988 L 5.79373,-75.895
 L 6.22501,-76.2084 L 6.71202,-76.4252 L 7.23346,-76.536 L 7.76654,-76.536 L 8.28798,-76.4252 L 8.77499,-76.2084
 L 9.20627,-75.895 L 9.56299,-75.4988 L 9.82953,-75.0372 L 9.99426,-74.5302 L 10.05,-74 L 10.05,-64.7024
 L 10.3919,-64.4804 L 10.7921,-64.1563 L 11.1563,-63.7921 L 11.4804,-63.3919 L 11.7608,-62.96 L 11.9946,-62.5011
 L 12.1792,-62.0204 L 12.3125,-61.5229 L 12.393,-61.0143 L 12.42,-60.5 L 12.393,-59.9857 L 12.3125,-59.4771
 L 12.1792,-58.9796 L 11.9946,-58.4989 L 11.7608,-58.04 L 11.4804,-57.6081 L 11.1563,-57.2079 L 10.7921,-56.8437
 L 10.3919,-56.5196 L 9.95999,-56.2392 L 9.50113,-56.0054 L 9.02036,-55.8208 L 8.52292,-55.6875 L 8.01427,-55.607
 L 7.5,-55.58 z
M 128.186,-55.607 L 127.677,-55.6875 L 127.18,-55.8208 L 126.699,-56.0054 L 126.24,-56.2392 L 125.808,-56.5196
 L 125.408,-56.8437 L 125.044,-57.2079 L 124.72,-57.6081 L 124.439,-58.04 L 124.205,-58.4989 L 124.021,-58.9796
 L 123.888,-59.4771 L 123.807,-59.9857 L 123.78,-60.5 L 123.807,-61.0143 L 123.888,-61.5229 L 124.021,-62.0204
 L 124.205,-62.5011 L 124.439,-62.96 L 124.72,-63.3919 L 125.044,-63.7921 L 125.408,-64.1563 L 125.808,-64.4804
 L 126.15,-64.7024 L 126.15,-74 L 126.206,-74.5302 L 126.37,-75.0372 L 126.637,-75.4988 L 126.994,-75.895
 L 127.425,-76.2084 L 127.912,-76.4252 L 128.433,-76.536 L 128.967,-76.536 L 129.488,-76.4252 L 129.975,-76.2084
 L 130.406,-75.895 L 130.763,-75.4988 L 131.03,-75.0372 L 131.194,-74.5302 L 131.25,-74 L 131.25,-64.7024
 L 131.592,-64.4804 L 131.992,-64.1563 L 132.356,-63.7921 L 132.68,-63.3919 L 132.961,-62.96 L 133.195,-62.5011
 L 133.379,-62.0204 L 133.512,-61.5229 L 133.593,-61.0143 L 133.62,-60.5 L 133.593,-59.9857 L 133.512,-59.4771
 L 133.379,-58.9796 L 133.195,-58.4989 L 132.961,-58.04 L 132.68,-57.6081 L 132.356,-57.2079 L 131.992,-56.8437
 L 131.592,-56.5196 L 131.16,-56.2392 L 130.701,-56.0054 L 130.22,-55.8208 L 129.723,-55.6875 L 129.214,-55.607
 L 128.7,-55.58 z
M 249.386,-55.607 L 248.877,-55.6875 L 248.38,-55.8208 L 247.899,-56.0054 L 247.44,-56.2392 L 247.008,-56.5196
 L 246.608,-56.8437 L 246.244,-57.2079 L 245.92,-57.6081 L 245.639,-58.04 L 245.405,-58.4989 L 245.221,-58.9796
 L 245.088,-59.4771 L 245.007,-59.9857 L 244.98,-60.5 L 245.007,-61.0143 L 245.088,-61.5229 L 245.221,-62.0204
 L 245.405,-62.5011 L 245.639,-62.96 L 245.92,-63.3919 L 246.244,-63.7921 L 246.608,-64.1563 L 247.008,-64.4804
 L 247.35,-64.7024 L 247.35,-74 L 247.406,-74.5302 L 247.57,-75.0372 L 247.837,-75.4988 L 248.194,-75.895
 L 248.625,-76.2084 L 249.112,-76.4252 L 249.633,-76.536 L 250.167,-76.536 L 250.688,-76.4252 L 251.175,-76.2084
 L 251.606,-75.895 L 251.963,-75.4988 L 252.23,-75.0372 L 252.394,-74.5302 L 252.45,-74 L 252.45,-64.7024
 L 252.792,-64.4804 L 253.192,-64.1563 L 253.556,-63.7921 L 253.88,-63.3919 L 254.161,-62.96 L 254.395,-62.5011
 L 254.579,-62.0204 L 254.712,-61.5229 L 254.793,-61.0143 L 254.82,-60.5 L 254.793,-59.9857 L 254.712,-59.4771
 L 254.579,-58.9796 L 254.395,-58.4989 L 254.161,-58.04 L 253.88,-57.6081 L 253.556,-57.2079 L 253.192,-56.8437
 L 252.792,-56.5196 L 252.36,-56.2392 L 251.901,-56.0054 L 251.42,-55.8208 L 250.923,-55.6875 L 250.414,-55.607
 L 249.9,-55.58 z
M 370.586,-55.607 L 370.077,-55.6875 L 369.58,-55.8208 L 369.099,-56.0054 L 368.64,-56.2392 L 368.208,-56.5196
 L 367.808,-56.8437 L 367.444,-57.2079 L 367.12,-57.6081 L 366.839,-58.04 L 366.605,-58.4989 L 366.421,-58.9796
 L 366.288,-59.4771 L 366.207,-59.9857 L 366.18,-60.5 L 366.207,-61.0143 L 366.288,-61.5229 L 366.421,-62.0204
 L 366.605,-62.5011 L 366.839,-62.96 L 367.12,-63.3919 L 367.444,-63.7921 L 367.808,-64.1563 L 368.208,-64.4804
 L 368.55,-64.7024 L 368.55,-74 L 368.606,-74.5302 L 368.77,-75.0372 L 369.037,-75.4988 L 369.394,-75.895
 L 369.825,-76.2084 L 370.312,-76.4252 L 370.833,-76.536 L 371.367,-76.536 L 371.888,-76.4252 L 372.375,-76.2084
 L 372.806,-75.895 L 373.163,-75.4988 L 373.43,-75.0372 L 373.594,-74.5302 L 373.65,-74 L 373.65,-64.7024
 L 373.992,-64.4804 L 374.392,-64.1563 L 374.756,-63.7921 L 375.08,-63.3919 L 375.361,-62.96 L 375.595,-62.5011
 L 375.779,-62.0204 L 375.912,-61.5229 L 375.993,-61.0143 L 376.02,-60.5 L 375.993,-59.9857 L 375.912,-59.4771
 L 375.779,-58.9796 L 375.595,-58.4989 L 375.361,-58.04 L 375.08,-57.6081 L 374.756,-57.2079 L 374.392,-56.8437
 L 373.992,-56.5196 L 373.56,-56.2392 L 373.101,-56.0054 L 372.62,-55.8208 L 372.123,-55.6875 L 371.614,-55.607
 L 371.1,-55.58 z
M 491.786,-55.607 L 491.277,-55.6875 L 490.78,-55.8208 L 490.299,-56.0054 L 489.84,-56.2392 L 489.408,-56.5196
 L 489.008,-56.8437 L 488.644,-57.2079 L 488.32,-57.6081 L 488.039,-58.04 L 487.805,-58.4989 L 487.621,-58.9796
 L 487.488,-59.4771 L 487.407,-59.9857 L 487.38,-60.5 L 487.407,-61.0143 L 487.488,-61.5229 L 487.621,-62.0204
 L 487.805,-62.5011 L 488.039,-62.96 L 488.32,-63.3919 L 488.644,-63.7921 L 489.008,-64.1563 L 489.408,-64.4804
 L 489.75,-64.7024 L 489.75,-74 L 489.806,-74.5302 L 489.97,-75.0372 L 490.237,-75.4988 L 490.594,-75.895
 L 491.025,-76.2084 L 491.512,-76.4252 L 492.033,-76.536 L 492.567,-76.536 L 493.088,-76.4252 L 493.575,-76.2084
 L 494.006,-75.895 L 494.363,-75.4988 L 494.63,-75.0372 L 494.794,-74.5302 L 494.85,-74 L 494.85,-64.7024
 L 495.192,-64.4804 L 495.592,-64.1563 L 495.956,-63.7921 L 496.28,-63.3919 L 496.561,-62.96 L 496.795,-62.5011
 L 496.979,-62.0204 L 497.112,-61.5229 L 497.193,-61.0143 L 497.22,-60.5 L 497.193,-59.9857 L 497.112,-59.4771
 L 496.979,-58.9796 L 496.795,-58.4989 L 496.561,-58.04 L 496.28,-57.6081 L 495.956,-57.2079 L 495.592,-56.8437
 L 495.192,-56.5196 L 494.76,-56.2392 L 494.301,-56.0054 L 493.82,-55.8208 L 493.323,-55.6875 L 492.814,-55.607
 L 492.3,-55.58 z
M 612.986,-55.607 L 612.477,-55.6875 L 611.98,-55.8208 L 611.499,-56.0054 L 611.04,-56.2392 L 610.608,-56.5196
 L 610.208,-56.8437 L 609.844,-57.2079 L 609.52,-57.6081 L 609.239,-58.04 L 609.005,-58.4989 L 608.821,-58.9796
 L 608.688,-59.4771 L 608.607,-59.9857 L 608.58,-60.5 L 608.607,-61.0143 L 608.688,-61.5229 L 608.821,-62.0204
 L 609.005,-62.5011 L 609.239,-62.96 L 609.52,-63.3919 L 609.844,-63.7921 L 610.208,-64.1563 L 610.608,-64.4804
 L 610.95,-64.7024 L 610.95,-74 L 611.006,-74.5302 L 611.17,-75.0372 L 611.437,-75.4988 L 611.794,-75.895
 L 612.225,-76.2084 L 612.712,-76.4252 L 613.233,-76.536 L 613.767,-76.536 L 614.288,-76.4252 L 614.775,-76.2084
 L 615.206,-75.895 L 615.563,-75.4988 L 615.83,-75.0372 L 615.994,-74.5302 L 616.05,-74 L 616.05,-64.7024
 L 616.392,-64.4804 L 616.792,-64.1563 L 617.156,-63.7921 L 617.48,-63.3919 L 617.761,-62.96 L 617.995,-62.5011
 L 618.179,-62.0204 L 618.312,-61.5229 L 618.393,-61.0143 L 618.42,-60.5 L 618.393,-59.9857 L 618.312,-59.4771
 L 618.179,-58.9796 L 617.995,-58.4989 L 617.761,-58.04 L 617.48,-57.6081 L 617.156,-57.2079 L 616.792,-56.8437
 L 616.392,-56.5196 L 615.96,-56.2392 L 615.501,-56.0054 L 615.02,-55.8208 L 614.523,-55.6875 L 614.014,-55.607
 L 613.5,-55.58 z
M 309.311,-48.7929 L 308.543,-49.1236 L 298.94,-54.5116 L 298.546,-54.7639 L 297.924,-55.3235 L 297.433,-56
 L 297.093,-56.7639 L 296.919,-57.5819 L 296.919,-58.4181 L 297.093,-59.2361 L 297.433,-60 L 297.924,-60.6765
 L 298.546,-61.2361 L 299.27,-61.6542 L 300.065,-61.9126 L 300.897,-62 L 320.103,-62 L 320.57,-61.9726
 L 321.386,-61.7887 L 322.146,-61.4392 L 322.816,-60.9394 L 323.368,-60.3111 L 323.777,-59.5818 L 324.026,-58.7834
 L 324.103,-57.9508 L 324.005,-57.1203 L 323.737,-56.3282 L 323.31,-55.6092 L 322.743,-54.9947 L 322.06,-54.5116
 L 312.457,-49.1236 L 311.783,-48.8234 L 310.967,-48.6395 L 310.131,-48.6292 z
M 235.711,-24.3798 L 234.943,-24.7105 L 181.827,-54.5116 L 181.433,-54.7639 L 180.811,-55.3235 L 180.32,-56
 L 179.98,-56.7639 L 179.806,-57.5819 L 179.806,-58.4181 L 179.98,-59.2361 L 180.32,-60 L 180.811,-60.6765
 L 181.433,-61.2361 L 182.157,-61.6542 L 182.952,-61.9126 L 183.784,-62 L 236.9,-62 L 238.136,-61.8042
 L 238.9,-61.4641 L 239.577,-60.9726 L 240.136,-60.3511 L 240.554,-59.627 L 240.813,-58.8316 L 240.9,-58
 L 240.9,-28.1989 L 240.823,-27.4155 L 240.574,-26.6171 L 240.165,-25.8878 L 239.613,-25.2595 L 238.942,-24.7597
 L 238.183,-24.4102 L 237.367,-24.2263 L 236.531,-24.216 z
M 504.833,-24.2263 L 504.017,-24.4102 L 503.258,-24.7597 L 502.587,-25.2595 L 502.035,-25.8878 L 501.626,-26.6171
 L 501.377,-27.4155 L 501.3,-28.1989 L 501.3,-58 L 501.387,-58.8316 L 501.646,-59.627 L 502.064,-60.3511
 L 502.623,-60.9726 L 503.3,-61.4641 L 504.064,-61.8042 L 505.3,-62 L 558.416,-62 L 559.248,-61.9126
 L 560.043,-61.6542 L 560.767,-61.2361 L 561.389,-60.6765 L 561.88,-60 L 562.22,-59.2361 L 562.394,-58.4181
 L 562.394,-57.5819 L 562.22,-56.7639 L 561.88,-56 L 561.389,-55.3235 L 560.767,-54.7639 L 560.373,-54.5116
 L 507.257,-24.7105 L 506.489,-24.3798 L 505.669,-24.216 z
M 114.511,-24.3798 L 113.743,-24.7105 L 60.6267,-54.5116 L 60.2328,-54.7639 L 59.6114,-55.3235 L 59.1198,-56
 L 58.7797,-56.7639 L 58.6059,-57.5819 L 58.6059,-58.4181 L 58.7797,-59.2361 L 59.1198,-60 L 59.6114,-60.6765
 L 60.2328,-61.2361 L 60.957,-61.6542 L 61.7523,-61.9126 L 62.5839,-62 L 115.7,-62 L 116.936,-61.8042
 L 117.7,-61.4641 L 118.377,-60.9726 L 118.936,-60.3511 L 119.354,-59.627 L 119.613,-58.8316 L 119.7,-58
 L 119.7,-28.1989 L 119.623,-27.4155 L 119.374,-26.6171 L 118.965,-25.8878 L 118.413,-25.2595 L 117.742,-24.7597
 L 116.983,-24.4102 L 116.167,-24.2263 L 115.331,-24.216 z
M 383.633,-24.2263 L 382.817,-24.4102 L 382.058,-24.7597 L 381.387,-25.2595 L 380.835,-25.8878 L 380.426,-26.6171
 L 380.177,-27.4155 L 380.1,-28.1989 L 380.1,-58 L 380.187,-58.8316 L 380.446,-59.627 L 380.864,-60.3511
 L 381.423,-60.9726 L 382.1,-61.4641 L 382.864,-61.8042 L 384.1,-62 L 437.216,-62 L 438.048,-61.9126
 L 438.843,-61.6542 L 439.567,-61.2361 L 440.189,-60.6765 L 440.68,-60 L 441.02,-59.2361 L 441.194,-58.4181
 L 441.194,-57.5819 L 441.02,-56.7639 L 440.68,-56 L 440.189,-55.3235 L 439.567,-54.7639 L 439.173,-54.5116
 L 386.057,-24.7105 L 385.289,-24.3798 L 384.469,-24.216 z
M 262.482,-21.9277 L 261.664,-22.1016 L 260.9,-22.4417 L 260.223,-22.9332 L 259.664,-23.5547 L 259.246,-24.2789
 L 258.987,-25.0742 L 258.9,-25.9058 L 258.9,-54.0942 L 258.977,-54.8776 L 259.226,-55.676 L 259.635,-56.4053
 L 260.187,-57.0336 L 260.858,-57.5334 L 261.617,-57.8829 L 262.433,-58.0668 L 263.269,-58.0771 L 264.089,-57.9133
 L 264.857,-57.5826 L 289.978,-43.4884 L 290.734,-42.9394 L 291.286,-42.3111 L 291.695,-41.5818 L 291.943,-40.7834
 L 292.02,-39.9508 L 291.923,-39.1203 L 291.655,-38.3282 L 291.228,-37.6092 L 290.661,-36.9947 L 289.978,-36.5116
 L 264.857,-22.4174 L 264.136,-22.1016 L 263.318,-21.9277 z
M 356.911,-22.0867 L 356.143,-22.4174 L 331.022,-36.5116 L 330.266,-37.0606 L 329.714,-37.6889 L 329.305,-38.4182
 L 329.057,-39.2166 L 328.979,-40.0492 L 329.077,-40.8797 L 329.345,-41.6718 L 329.772,-42.3908 L 330.339,-43.0053
 L 331.022,-43.4884 L 356.143,-57.5826 L 356.864,-57.8984 L 357.682,-58.0723 L 358.518,-58.0723 L 359.336,-57.8984
 L 360.1,-57.5583 L 360.777,-57.0668 L 361.336,-56.4453 L 361.754,-55.7211 L 362.013,-54.9258 L 362.1,-54.0942
 L 362.1,-25.9058 L 362.023,-25.1224 L 361.774,-24.324 L 361.365,-23.5947 L 360.813,-22.9664 L 360.142,-22.4666
 L 359.383,-22.1171 L 358.567,-21.9332 L 357.731,-21.9229 z
M 141.7,-18 L 140.464,-18.1958 L 139.7,-18.5359 L 139.023,-19.0274 L 138.464,-19.6489 L 138.046,-20.373
 L 137.787,-21.1684 L 137.7,-22 L 137.7,-51.8011 L 137.777,-52.5845 L 138.026,-53.3829 L 138.435,-54.1122
 L 138.987,-54.7405 L 139.658,-55.2403 L 140.417,-55.5898 L 141.233,-55.7737 L 142.069,-55.784 L 142.889,-55.6202
 L 143.657,-55.2895 L 196.773,-25.4884 L 197.167,-25.2361 L 197.789,-24.6765 L 198.28,-24 L 198.62,-23.2361
 L 198.794,-22.4181 L 198.794,-21.5819 L 198.62,-20.7639 L 198.28,-20 L 197.789,-19.3235 L 197.167,-18.7639
 L 196.443,-18.3458 L 195.648,-18.0874 L 194.816,-18 z
M 426.184,-18 L 425.352,-18.0874 L 424.557,-18.3458 L 423.833,-18.7639 L 423.211,-19.3235 L 422.72,-20
 L 422.38,-20.7639 L 422.206,-21.5819 L 422.206,-22.4181 L 422.38,-23.2361 L 422.72,-24 L 423.211,-24.6765
 L 423.833,-25.2361 L 424.227,-25.4884 L 477.343,-55.2895 L 478.111,-55.6202 L 478.931,-55.784 L 479.767,-55.7737
 L 480.583,-55.5898 L 481.342,-55.2403 L 482.013,-54.7405 L 482.565,-54.1122 L 482.974,-53.3829 L 483.223,-52.5845
 L 483.3,-51.8011 L 483.3,-22 L 483.213,-21.1684 L 482.954,-20.373 L 482.536,-19.6489 L 481.977,-19.0274
 L 481.3,-18.5359 L 480.536,-18.1958 L 479.3,-18 z
M 22,-18 L 20.7639,-18.1958 L 20,-18.5359 L 19.3235,-19.0274 L 18.7639,-19.6489 L 18.3458,-20.373
 L 18.0874,-21.1684 L 18,-22 L 18,-50.9595 L 18.0775,-51.7429 L 18.3261,-52.5413 L 18.7352,-53.2706
 L 19.2871,-53.8989 L 19.9575,-54.3987 L 20.7172,-54.7482 L 21.533,-54.9321 L 22.3691,-54.9424 L 23.1892,-54.7786
 L 23.9572,-54.4479 L 75.5733,-25.4884 L 75.9672,-25.2361 L 76.5886,-24.6765 L 77.0801,-24 L 77.4203,-23.2361
 L 77.5941,-22.4181 L 77.5941,-21.5819 L 77.4203,-20.7639 L 77.0801,-20 L 76.5886,-19.3235 L 75.9672,-18.7639
 L 75.243,-18.3458 L 74.4477,-18.0874 L 73.616,-18 z
M 547.384,-18 L 546.552,-18.0874 L 545.757,-18.3458 L 545.033,-18.7639 L 544.411,-19.3235 L 543.92,-20
 L 543.58,-20.7639 L 543.406,-21.5819 L 543.406,-22.4181 L 543.58,-23.2361 L 543.92,-24 L 544.411,-24.6765
 L 545.033,-25.2361 L 545.427,-25.4884 L 597.043,-54.4479 L 597.811,-54.7786 L 598.631,-54.9424 L 599.467,-54.9321
 L 600.283,-54.7482 L 601.042,-54.3987 L 601.713,-53.8989 L 602.265,-53.2706 L 602.674,-52.5413 L 602.923,-51.7429
 L 603,-50.9595 L 603,-22 L 602.913,-21.1684 L 602.654,-20.373 L 602.236,-19.6489 L 601.677,-19.0274
 L 601,-18.5359 L 600.236,-18.1958 L 599,-18 z
M 300.897,-18 L 300.43,-18.0274 L 299.614,-18.2113 L 298.854,-18.5608 L 298.184,-19.0606 L 297.632,-19.6889
 L 297.223,-20.4182 L 296.974,-21.2166 L 296.897,-22.0492 L 296.995,-22.8797 L 297.263,-23.6718 L 297.69,-24.3908
 L 298.257,-25.0053 L 298.94,-25.4884 L 308.543,-30.8764 L 309.217,-31.1766 L 310.033,-31.3605 L 310.869,-31.3708
 L 311.689,-31.2071 L 312.457,-30.8764 L 322.06,-25.4884 L 322.454,-25.2361 L 323.076,-24.6765 L 323.567,-24
 L 323.907,-23.2361 L 324.081,-22.4181 L 324.081,-21.5819 L 323.907,-20.7639 L 323.567,-20 L 323.076,-19.3235
 L 322.454,-18.7639 L 321.73,-18.3458 L 320.935,-18.0874 L 320.103,-18 z
" stroke="black" fill="lightgray" stroke-width="0.5"/>
</svg>
