<?xml version="1.0" standalone="no"?>
<!DOCTYPE svg PUBLIC "-//W3C//DTD SVG 1.1//EN" "http://www.w3.org/Graphics/SVG/1.1/DTD/svg11.dtd">
<svg width="979mm" height="80mm" viewBox="0 -80 979 80" xmlns="http://www.w3.org/2000/svg" version="1.1">
<title>OpenSCAD Model</title>
<path d="
M 979,-80 L 0,-80 L 0,-0 L 4.95,-0 L 4.95,-6 L 5.00572,-6.53017
 L 5.17046,-7.03717 L 5.437,-7.49884 L 5.79372,-7.895 L 6.22499,-8.20836 L 6.71201,-8.42519 L 7.23344,-8.53603
 L 7.76654,-8.53603 L 8.28798,-8.42519 L 8.77499,-8.20836 L 9.20627,-7.895 L 9.56299,-7.49884 L 9.82953,-7.03717
 L 9.99426,-6.53017 L 10.05,-6 L 10.05,-0 L 197.75,-0 L 197.75,-6 L 197.806,-6.53017
 L 197.97,-7.03717 L 198.237,-7.49884 L 198.594,-7.895 L 199.025,-8.20836 L 199.512,-8.42519 L 200.033,-8.53603
 L 200.567,-8.53603 L 201.088,-8.42519 L 201.575,-8.20836 L 202.006,-7.895 L 202.363,-7.49884 L 202.63,-7.03717
 L 202.794,-6.53017 L 202.85,-6 L 202.85,-0 L 390.55,-0 L 390.55,-6 L 390.606,-6.53017
 L 390.77,-7.03717 L 391.037,-7.49884 L 391.394,-7.895 L 391.825,-8.20836 L 392.312,-8.42519 L 392.833,-8.53603
 L 393.367,-8.53603 L 393.888,-8.42519 L 394.375,-8.20836 L 394.806,-7.895 L 395.163,-7.49884 L 395.43,-7.03717
 L 395.594,-6.53017 L 395.65,-6 L 395.65,-0 L 583.35,-0 L 583.35,-6 L 583.406,-6.53017
 L 583.57,-7.03717 L 583.837,-7.49884 L 584.194,-7.895 L 584.625,-8.20836 L 585.112,-8.42519 L 585.633,-8.53603
 L 586.167,-8.53603 L 586.688,-8.42519 L 587.175,-8.20836 L 587.606,-7.895 L 587.963,-7.49884 L 588.23,-7.03717
 L 588.394,-6.53017 L 588.45,-6 L 588.45,-0 L 776.15,-0 L 776.15,-6 L 776.206,-6.53017
 L 776.37,-7.03717 L 776.637,-7.49884 L 776.994,-7.895 L 777.425,-8.20836 L 777.912,-8.42519 L 778.433,-8.53603
 L 778.967,-8.53603 L 779.488,-8.42519 L 779.975,-8.20836 L 780.406,-7.895 L 780.763,-7.49884 L 781.03,-7.03717
 L 781.194,-6.53017 L 781.25,-6 L 781.25,-0 L 968.95,-0 L 968.95,-6 L 969.006,-6.53017
 L 969.17,-7.03717 L 969.437,-7.49884 L 969.794,-7.895 L 970.225,-8.20836 L 970.712,-8.42519 L 971.233,-8.53603
 L 971.767,-8.53603 L 972.288,-8.42519 L 972.775,-8.20836 L 973.206,-7.895 L 973.563,-7.49884 L 973.83,-7.03717
 L 973.994,-6.53017 L 974.05,-6 L 974.05,-0 L 979,-0 z
M 6.98573,-55.607 L 6.47708,-55.6875 L 5.97964,-55.8208 L 5.49887,-56.0054 L 5.04001,-56.2392 L 4.60811,-56.5196
 L 4.20789,-56.8437 L 3.84373,-57.2079 L 3.51964,-57.6081 L 3.23917,-58.04 L 3.00537,-58.4989 L 2.82082,-58.9796
 L 2.68752,-59.4771 L 2.60696,-59.9857 L 2.58,-60.5 L 2.60696,-61.0143 L 2.68752,-61.5229 L 2.82082,-62.0204
 L 3.00537,-62.5011 L 3.23917,-62.96 L 3.51964,-63.3919 L 3.84373,-63.7921 L 4.20789,-64.1563 L 4.60811,-64.4804
 L 4.95001,-64.7024 L 4.95001,-74 L 5.00574,-74.5302 L 5.17047,-75.0372 L 5.43701,-75.4988 L 5.79373,-75.895
 L 6.22501,-76.2084 L 6.71202,-76.4252 L 7.23346,-76.536 L 7.76654,-76.536 L 8.28798,-76.4252 L 8.77499,-76.2084
 L 9.20627,-75.895 L 9.56299,-75.4988 L 9.82953,-75.0372 L 9.99426,-74.5302 L 10.05,-74 L 10.05,-64.7024
 L 10.3919,-64.4804 L 10.7921,-64.1563 L 11.1563,-63.7921 L 11.4804,-63.3919 L 11.7608,-62.96 L 11.9946,-62.5011
 L 12.1792,-62.0204 L 12.3125,-61.5229 L 12.393,-61.0143 L 12.42,-60.5 L 12.393,-59.9857 L 12.3125,-59.4771
 L 12.1792,-58.9796 L 11.9946,-58.4989 L 11.7608,-58.04 L 11.4804,-57.6081 L 11.1563,-57.2079 L 10.7921,-56.8437
 L 10.3919,-56.5196 L 9.95999,-56.2392 L 9.50113,-56.0054 L 9.02036,-55.8208 L 8.52292,-55.6875 L 8.01427,-55.607
 L 7.5,-55.58 z
M 199.786,-55.607 L 199.277,-55.6875 L 198.78,-55.8208 L 198.299,-56.0054 L 197.84,-56.2392 L 197.408,-56.5196
 L 197.008,-56.8437 L 196.644,-57.2079 L 196.32,-57.6081 L 196.039,-58.04 L 195.805,-58.4989 L 195.621,-58.9796
 L 195.488,-59.4771 L 195.407,-59.9857 L 195.38,-60.5 L 195.407,-61.0143 L 195.488,-61.5229 L 195.621,-62.0204
 L 195.805,-62.5011 L 196.039,-62.96 L 196.32,-63.3919 L 196.644,-63.7921 L 197.008,-64.1563 L 197.408,-64.4804
 L 197.75,-64.7024 L 197.75,-74 L 197.806,-74.5302 L 197.97,-75.0372 L 198.237,-75.4988 L 198.594,-75.895
 L 199.025,-76.2084 L 199.512,-76.4252 L 200.033,-76.536 L 200.567,-76.536 L 201.088,-76.4252 L 201.575,-76.2084
 L 202.006,-75.895 L 202.363,-75.4988 L 202.63,-75.0372 L 202.794,-74.5302 L 202.85,-74 L 202.85,-64.7024
 L 203.192,-64.4804 L 203.592,-64.1563 L 203.956,-63.7921 L 204.28,-63.3919 L 204.561,-62.96 L 204.795,-62.5011
 L 204.979,-62.0204 L 205.112,-61.5229 L 205.193,-61.0143 L 205.22,-60.5 L 205.193,-59.9857 L 205.112,-59.4771
 L 204.979,-58.9796 L 204.795,-58.4989 L 204.561,-58.04 L 204.28,-57.6081 L 203.956,-57.2079 L 203.592,-56.8437
 L 203.192,-56.5196 L 202.76,-56.2392 L 202.301,-56.0054 L 201.82,-55.8208 L 201.323,-55.6875 L 200.814,-55.607
 L 200.3,-55.58 z
M 392.586,-55.607 L 392.077,-55.6875 L 391.58,-55.8208 L 391.099,-56.0054 L 390.64,-56.2392 L 390.208,-56.5196
 L 389.808,-56.8437 L 389.444,-57.2079 L 389.12,-57.6081 L 388.839,-58.04 L 388.605,-58.4989 L 388.421,-58.9796
 L 388.288,-59.4771 L 388.207,-59.9857 L 388.18,-60.5 L 388.207,-61.0143 L 388.288,-61.5229 L 388.421,-62.0204
 L 388.605,-62.5011 L 388.839,-62.96 L 389.12,-63.3919 L 389.444,-63.7921 L 389.808,-64.1563 L 390.208,-64.4804
 L 390.55,-64.7024 L 390.55,-74 L 390.606,-74.5302 L 390.77,-75.0372 L 391.037,-75.4988 L 391.394,-75.895
 L 391.825,-76.2084 L 392.312,-76.4252 L 392.833,-76.536 L 393.367,-76.536 L 393.888,-76.4252 L 394.375,-76.2084
 L 394.806,-75.895 L 395.163,-75.4988 L 395.43,-75.0372 L 395.594,-74.5302 L 395.65,-74 L 395.65,-64.7024
 L 395.992,-64.4804 L 396.392,-64.1563 L 396.756,-63.7921 L 397.08,-63.3919 L 397.361,-62.96 L 397.595,-62.5011
 L 397.779,-62.0204 L 397.912,-61.5229 L 397.993,-61.0143 L 398.02,-60.5 L 397.993,-59.9857 L 397.912,-59.4771
 L 397.779,-58.9796 L 397.595,-58.4989 L 397.361,-58.04 L 397.08,-57.6081 L 396.756,-57.2079 L 396.392,-56.8437
 L 395.992,-56.5196 L 395.56,-56.2392 L 395.101,-56.0054 L 394.62,-55.8208 L 394.123,-55.6875 L 393.614,-55.607
 L 393.1,-55.58 z
M 585.386,-55.607 L 584.877,-55.6875 L 584.38,-55.8208 L 583.899,-56.0054 L 583.44,-56.2392 L 583.008,-56.5196
 L 582.608,-56.8437 L 582.244,-57.2079 L 581.92,-57.6081 L 581.639,-58.04 L 581.405,-58.4989 L 581.221,-58.9796
 L 581.088,-59.4771 L 581.007,-59.9857 L 580.98,-60.5 L 581.007,-61.0143 L 581.088,-61.5229 L 581.221,-62.0204
 L 581.405,-62.5011 L 581.639,-62.96 L 581.92,-63.3919 L 582.244,-63.7921 L 582.608,-64.1563 L 583.008,-64.4804
 L 583.35,-64.7024 L 583.35,-74 L 583.406,-74.5302 L 583.57,-75.0372 L 583.837,-75.4988 L 584.194,-75.895
 L 584.625,-76.2084 L 585.112,-76.4252 L 585.633,-76.536 L 586.167,-76.536 L 586.688,-76.4252 L 587.175,-76.2084
 L 587.606,-75.895 L 587.963,-75.4988 L 588.23,-75.0372 L 588.394,-74.5302 L 588.45,-74 L 588.45,-64.7024
 L 588.792,-64.4804 L 589.192,-64.1563 L 589.556,-63.7921 L 589.88,-63.3919 L 590.161,-62.96 L 590.395,-62.5011
 L 590.579,-62.0204 L 590.712,-61.5229 L 590.793,-61.0143 L 590.82,-60.5 L 590.793,-59.9857 L 590.712,-59.4771
 L 590.579,-58.9796 L 590.395,-58.4989 L 590.161,-58.04 L 589.88,-57.6081 L 589.556,-57.2079 L 589.192,-56.8437
 L 588.792,-56.5196 L 588.36,-56.2392 L 587.901,-56.0054 L 587.42,-55.8208 L 586.923,-55.6875 L 586.414,-55.607
 L 585.9,-55.58 z
M 778.186,-55.607 L 777.677,-55.6875 L 777.18,-55.8208 L 776.699,-56.0054 L 776.24,-56.2392 L 775.808,-56.5196
 L 775.408,-56.8437 L 775.044,-57.2079 L 774.72,-57.6081 L 774.439,-58.04 L 774.205,-58.4989 L 774.021,-58.9796
 L 773.888,-59.4771 L 773.807,-59.9857 L 773.78,-60.5 L 773.807,-61.0143 L 773.888,-61.5229 L 774.021,-62.0204
 L 774.205,-62.5011 L 774.439,-62.96 L 774.72,-63.3919 L 775.044,-63.7921 L 775.408,-64.1563 L 775.808,-64.4804
 L 776.15,-64.7024 L 776.15,-74 L 776.206,-74.5302 L 776.37,-75.0372 L 776.637,-75.4988 L 776.994,-75.895
 L 777.425,-76.2084 L 777.912,-76.4252 L 778.433,-76.536 L 778.967,-76.536 L 779.488,-76.4252 L 779.975,-76.2084
 L 780.406,-75.895 L 780.763,-75.4988 L 781.03,-75.0372 L 781.194,-74.5302 L 781.25,-74 L 781.25,-64.7024
 L 781.592,-64.4804 L 781.992,-64.1563 L 782.356,-63.7921 L 782.68,-63.3919 L 782.961,-62.96 L 783.195,-62.5011
 L 783.379,-62.0204 L 783.512,-61.5229 L 783.593,-61.0143 L 783.62,-60.5 L 783.593,-59.9857 L 783.512,-59.4771
 L 783.379,-58.9796 L 783.195,-58.4989 L 782.961,-58.04 L 782.68,-57.6081 L 782.356,-57.2079 L 781.992,-56.8437
 L 781.592,-56.5196 L 781.16,-56.2392 L 780.701,-56.0054 L 780.22,-55.8208 L 779.723,-55.6875 L 779.214,-55.607
 L 778.7,-55.58 z
M 970.986,-55.607 L 970.477,-55.6875 L 969.98,-55.8208 L 969.499,-56.0054 L 969.04,-56.2392 L 968.608,-56.5196
 L 968.208,-56.8437 L 967.844,-57.2079 L 967.52,-57.6081 L 967.239,-58.04 L 967.005,-58.4989 L 966.821,-58.9796
 L 966.688,-59.4771 L 966.607,-59.9857 L 966.58,-60.5 L 966.607,-61.0143 L 966.688,-61.5229 L 966.821,-62.0204
 L 967.005,-62.5011 L 967.239,-62.96 L 967.52,-63.3919 L 967.844,-63.7921 L 968.208,-64.1563 L 968.608,-64.4804
 L 968.95,-64.7024 L 968.95,-74 L 969.006,-74.5302 L 969.17,-75.0372 L 969.437,-75.4988 L 969.794,-75.895
 L 970.225,-76.2084 L 970.712,-76.4252 L 971.233,-76.536 L 971.767,-76.536 L 972.288,-76.4252 L 972.775,-76.2084
 L 973.206,-75.895 L 973.563,-75.4988 L 973.83,-75.0372 L 973.994,-74.5302 L 974.05,-74 L 974.05,-64.7024
 L 974.392,-64.4804 L 974.792,-64.1563 L 975.156,-63.7921 L 975.48,-63.3919 L 975.761,-62.96 L 975.995,-62.5011
 L 976.179,-62.0204 L 976.312,-61.5229 L 976.393,-61.0143 L 976.42,-60.5 L 976.393,-59.9857 L 976.312,-59.4771
 L 976.179,-58.9796 L 975.995,-58.4989 L 975.761,-58.04 L 975.48,-57.6081 L 975.156,-57.2079 L 974.792,-56.8437
 L 974.392,-56.5196 L 973.96,-56.2392 L 973.501,-56.0054 L 973.02,-55.8208 L 972.523,-55.6875 L 972.014,-55.607
 L 971.5,-55.58 z
M 488.983,-47.6941 L 488.17,-47.8882 L 470.195,-54.2278 L 469.174,-54.7639 L 468.553,-55.3235 L 468.062,-56
 L 467.721,-56.7639 L 467.548,-57.5819 L 467.548,-58.4181 L 467.721,-59.2361 L 468.062,-60 L 468.553,-60.6765
 L 469.174,-61.2361 L 469.899,-61.6542 L 470.694,-61.9126 L 471.526,-62 L 507.474,-62 L 508.615,-61.8338
 L 509.387,-61.5128 L 510.076,-61.0383 L 510.651,-60.431 L 511.087,-59.7175 L 511.365,-58.9289 L 511.473,-58.0997
 L 511.406,-57.2661 L 511.168,-56.4646 L 510.768,-55.7302 L 510.224,-55.095 L 509.56,-54.5868 L 508.805,-54.2278
 L 490.83,-47.8882 L 489.819,-47.6732 z
M 379.583,-20.3992 L 378.77,-20.5934 L 283.406,-54.2278 L 282.386,-54.7639 L 281.764,-55.3235 L 281.273,-56
 L 280.932,-56.7639 L 280.759,-57.5819 L 280.759,-58.4181 L 280.932,-59.2361 L 281.273,-60 L 281.764,-60.6765
 L 282.386,-61.2361 L 283.11,-61.6542 L 283.905,-61.9126 L 284.737,-62 L 380.1,-62 L 381.336,-61.8042
 L 382.1,-61.4641 L 382.777,-60.9726 L 383.336,-60.3511 L 383.754,-59.627 L 384.013,-58.8316 L 384.1,-58
 L 384.1,-24.3656 L 383.991,-23.4368 L 383.712,-22.6482 L 383.276,-21.9346 L 382.702,-21.3273 L 382.013,-20.8528
 L 381.241,-20.5318 L 380.419,-20.3784 z
M 790.559,-20.5318 L 789.787,-20.8528 L 789.098,-21.3273 L 788.524,-21.9346 L 788.087,-22.6482 L 787.809,-23.4368
 L 787.7,-24.3656 L 787.7,-58 L 787.787,-58.8316 L 788.046,-59.627 L 788.464,-60.3511 L 789.023,-60.9726
 L 789.7,-61.4641 L 790.464,-61.8042 L 791.7,-62 L 887.063,-62 L 887.895,-61.9126 L 888.69,-61.6542
 L 889.414,-61.2361 L 890.036,-60.6765 L 890.527,-60 L 890.868,-59.2361 L 891.041,-58.4181 L 891.041,-57.5819
 L 890.868,-56.7639 L 890.527,-56 L 890.036,-55.3235 L 889.414,-54.7639 L 888.394,-54.2278 L 793.03,-20.5934
 L 792.217,-20.3992 L 791.381,-20.3784 z
M 186.783,-20.3992 L 185.97,-20.5934 L 90.6062,-54.2278 L 89.5856,-54.7639 L 88.9641,-55.3235 L 88.4726,-56
 L 88.1325,-56.7639 L 87.9586,-57.5819 L 87.9586,-58.4181 L 88.1325,-59.2361 L 88.4726,-60 L 88.9641,-60.6765
 L 89.5856,-61.2361 L 90.3098,-61.6542 L 91.1051,-61.9126 L 91.9367,-62 L 187.3,-62 L 188.536,-61.8042
 L 189.3,-61.4641 L 189.977,-60.9726 L 190.536,-60.3511 L 190.954,-59.627 L 191.213,-58.8316 L 191.3,-58
 L 191.3,-24.3656 L 191.191,-23.4368 L 190.913,-22.6482 L 190.476,-21.9346 L 189.902,-21.3273 L 189.213,-20.8528
 L 188.441,-20.5318 L 187.619,-20.3784 z
M 597.759,-20.5318 L 596.987,-20.8528 L 596.298,-21.3273 L 595.724,-21.9346 L 595.287,-22.6482 L 595.009,-23.4368
 L 594.9,-24.3656 L 594.9,-58 L 594.987,-58.8316 L 595.246,-59.627 L 595.664,-60.3511 L 596.223,-60.9726
 L 596.9,-61.4641 L 597.664,-61.8042 L 598.9,-62 L 694.263,-62 L 695.095,-61.9126 L 695.89,-61.6542
 L 696.614,-61.2361 L 697.236,-60.6765 L 697.727,-60 L 698.068,-59.2361 L 698.241,-58.4181 L 698.241,-57.5819
 L 698.068,-56.7639 L 697.727,-56 L 697.236,-55.3235 L 696.614,-54.7639 L 695.594,-54.2278 L 600.23,-20.5934
 L 599.417,-20.3992 L 598.581,-20.3784 z
M 405.682,-18.2675 L 404.864,-18.4413 L 404.1,-18.7815 L 403.423,-19.273 L 402.864,-19.8944 L 402.446,-20.6186
 L 402.187,-21.4139 L 402.1,-22.2456 L 402.1,-57.7544 L 402.209,-58.6833 L 402.487,-59.4719 L 402.924,-60.1855
 L 403.498,-60.7928 L 404.187,-61.2673 L 404.959,-61.5883 L 405.781,-61.7417 L 406.617,-61.7209 L 407.43,-61.5267
 L 457.769,-43.7722 L 458.352,-43.5128 L 459.041,-43.0383 L 459.616,-42.431 L 460.052,-41.7175 L 460.33,-40.9289
 L 460.438,-40.0997 L 460.371,-39.2661 L 460.133,-38.4646 L 459.733,-37.7302 L 459.189,-37.095 L 458.525,-36.5868
 L 457.769,-36.2278 L 407.43,-18.4733 L 406.518,-18.2675 z
M 572.383,-18.2791 L 571.57,-18.4733 L 521.23,-36.2278 L 520.648,-36.4872 L 519.959,-36.9617 L 519.384,-37.569
 L 518.948,-38.2825 L 518.67,-39.0711 L 518.562,-39.9003 L 518.629,-40.7339 L 518.867,-41.5354 L 519.267,-42.2698
 L 519.811,-42.905 L 520.475,-43.4132 L 521.23,-43.7722 L 571.57,-61.5267 L 572.482,-61.7325 L 573.318,-61.7325
 L 574.136,-61.5587 L 574.9,-61.2185 L 575.577,-60.727 L 576.136,-60.1056 L 576.554,-59.3814 L 576.813,-58.5861
 L 576.9,-57.7544 L 576.9,-22.2456 L 576.791,-21.3167 L 576.512,-20.5281 L 576.076,-19.8145 L 575.502,-19.2072
 L 574.813,-18.7327 L 574.041,-18.4117 L 573.219,-18.2583 z
M 213.3,-18 L 212.064,-18.1958 L 211.3,-18.5359 L 210.623,-19.0274 L 210.064,-19.6489 L 209.646,-20.373
 L 209.387,-21.1684 L 209.3,-22 L 209.3,-55.6343 L 209.409,-56.5632 L 209.687,-57.3518 L 210.124,-58.0654
 L 210.698,-58.6727 L 211.387,-59.1472 L 212.159,-59.4682 L 212.981,-59.6216 L 213.817,-59.6008 L 214.63,-59.4066
 L 309.994,-25.7722 L 311.014,-25.2361 L 311.636,-24.6765 L 312.127,-24 L 312.467,-23.2361 L 312.641,-22.4181
 L 312.641,-21.5819 L 312.467,-20.7639 L 312.127,-20 L 311.636,-19.3235 L 311.014,-18.7639 L 310.29,-18.3458
 L 309.495,-18.0874 L 308.663,-18 z
M 670.337,-18 L 669.505,-18.0874 L 668.71,-18.3458 L 667.986,-18.7639 L 667.364,-19.3235 L 666.873,-20
 L 666.533,-20.7639 L 666.359,-21.5819 L 666.359,-22.4181 L 666.533,-23.2361 L 666.873,-24 L 667.364,-24.6765
 L 667.986,-25.2361 L 669.006,-25.7722 L 764.37,-59.4066 L 765.183,-59.6008 L 766.019,-59.6216 L 766.841,-59.4682
 L 767.613,-59.1472 L 768.302,-58.6727 L 768.876,-58.0654 L 769.313,-57.3518 L 769.591,-56.5632 L 769.7,-55.6343
 L 769.7,-22 L 769.613,-21.1684 L 769.354,-20.373 L 768.936,-19.6489 L 768.377,-19.0274 L 767.7,-18.5359
 L 766.936,-18.1958 L 765.7,-18 z
M 22,-18 L 20.7639,-18.1958 L 20,-18.5359 L 19.3235,-19.0274 L 18.7639,-19.6489 L 18.3458,-20.373
 L 18.0874,-21.1684 L 18,-22 L 18,-55.1053 L 18.1093,-56.0342 L 18.3875,-56.8228 L 18.8235,-57.5363
 L 19.3984,-58.1436 L 20.0869,-58.6181 L 20.8591,-58.9391 L 21.6811,-59.0926 L 22.5171,-59.0717 L 23.3305,-58.8775
 L 117.194,-25.7722 L 118.214,-25.2361 L 118.836,-24.6765 L 119.327,-24 L 119.667,-23.2361 L 119.841,-22.4181
 L 119.841,-21.5819 L 119.667,-20.7639 L 119.327,-20 L 118.836,-19.3235 L 118.214,-18.7639 L 117.49,-18.3458
 L 116.695,-18.0874 L 115.863,-18 z
M 863.137,-18 L 862.305,-18.0874 L 861.51,-18.3458 L 860.786,-18.7639 L 860.164,-19.3235 L 859.673,-20
 L 859.333,-20.7639 L 859.159,-21.5819 L 859.159,-22.4181 L 859.333,-23.2361 L 859.673,-24 L 860.164,-24.6765
 L 860.786,-25.2361 L 861.806,-25.7722 L 955.67,-58.8775 L 956.483,-59.0717 L 957.319,-59.0926 L 958.141,-58.9391
 L 958.913,-58.6181 L 959.602,-58.1436 L 960.176,-57.5363 L 960.613,-56.8228 L 960.891,-56.0342 L 961,-55.1053
 L 961,-22 L 960.913,-21.1684 L 960.654,-20.373 L 960.236,-19.6489 L 959.677,-19.0274 L 959,-18.5359
 L 958.236,-18.1958 L 957,-18 z
M 471.526,-18 L 470.385,-18.1662 L 469.613,-18.4872 L 468.924,-18.9617 L 468.349,-19.569 L 467.913,-20.2825
 L 467.635,-21.0711 L 467.527,-21.9003 L 467.594,-22.7339 L 467.832,-23.5354 L 468.232,-24.2698 L 468.776,-24.905
 L 469.44,-25.4132 L 470.195,-25.7722 L 488.17,-32.1118 L 489.181,-32.3268 L 490.017,-32.3059 L 490.83,-32.1118
 L 508.805,-25.7722 L 509.825,-25.2361 L 510.447,-24.6765 L 510.938,-24 L 511.279,-23.2361 L 511.452,-22.4181
 L 511.452,-21.5819 L 511.279,-20.7639 L 510.938,-20 L 510.447,-19.3235 L 509.825,-18.7639 L 509.101,-18.3458
 L 508.306,-18.0874 L 507.474,-18 z
" stroke="black" fill="lightgray" stroke-width="0.5"/>
</svg>
