<?xml version="1.0" standalone="no"?>
<!DOCTYPE svg PUBLIC "-//W3C//DTD SVG 1.1//EN" "http://www.w3.org/Graphics/SVG/1.1/DTD/svg11.dtd">
<svg width="534mm" height="80mm" viewBox="0 -80 534 80" xmlns="http://www.w3.org/2000/svg" version="1.1">
<title>OpenSCAD Model</title>
<path d="
M 534,-80 L 0,-80 L 0,-0 L 4.95,-0 L 4.95,-6 L 5.00572,-6.53017
 L 5.17046,-7.03717 L 5.437,-7.49884 L 5.79372,-7.895 L 6.22499,-8.20836 L 6.71201,-8.42519 L 7.23344,-8.53603
 L 7.76654,-8.53603 L 8.28798,-8.42519 L 8.77499,-8.20836 L 9.20627,-7.895 L 9.56299,-7.49884 L 9.82953,-7.03717
 L 9.99426,-6.53017 L 10.05,-6 L 10.05,-0 L 134.7,-0 L 134.7,-6 L 134.756,-6.53017
 L 134.92,-7.03717 L 135.187,-7.49884 L 135.544,-7.895 L 135.975,-8.20836 L 136.462,-8.42519 L 136.983,-8.53603
 L 137.517,-8.53603 L 138.038,-8.42519 L 138.525,-8.20836 L 138.956,-7.895 L 139.313,-7.49884 L 139.58,-7.03717
 L 139.744,-6.53017 L 139.8,-6 L 139.8,-0 L 264.45,-0 L 264.45,-6 L 264.506,-6.53017
 L 264.67,-7.03717 L 264.937,-7.49884 L 265.294,-7.895 L 265.725,-8.20836 L 266.212,-8.42519 L 266.733,-8.53603
 L 267.267,-8.53603 L 267.788,-8.42519 L 268.275,-8.20836 L 268.706,-7.895 L 269.063,-7.49884 L 269.33,-7.03717
 L 269.494,-6.53017 L 269.55,-6 L 269.55,-0 L 394.2,-0 L 394.2,-6 L 394.256,-6.53017
 L 394.42,-7.03717 L 394.687,-7.49884 L 395.044,-7.895 L 395.475,-8.20836 L 395.962,-8.42519 L 396.483,-8.53603
 L 397.017,-8.53603 L 397.538,-8.42519 L 398.025,-8.20836 L 398.456,-7.895 L 398.813,-7.49884 L 399.08,-7.03717
 L 399.244,-6.53017 L 399.3,-6 L 399.3,-0 L 523.95,-0 L 523.95,-6 L 524.006,-6.53017
 L 524.17,-7.03717 L 524.437,-7.49884 L 524.794,-7.895 L 525.225,-8.20836 L 525.712,-8.42519 L 526.233,-8.53603
 L 526.767,-8.53603 L 527.288,-8.42519 L 527.775,-8.20836 L 528.206,-7.895 L 528.563,-7.49884 L 528.83,-7.03717
 L 528.994,-6.53017 L 529.05,-6 L 529.05,-0 L 534,-0 z
M 6.98573,-55.607 L 6.47708,-55.6875 L 5.97964,-55.8208 L 5.49887,-56.0054 L 5.04001,-56.2392 L 4.60811,-56.5196
 L 4.20789,-56.8437 L 3.84373,-57.2079 L 3.51964,-57.6081 L 3.23917,-58.04 L 3.00537,-58.4989 L 2.82082,-58.9796
 L 2.68752,-59.4771 L 2.60696,-59.9857 L 2.58,-60.5 L 2.60696,-61.0143 L 2.68752,-61.5229 L 2.82082,-62.0204
 L 3.00537,-62.5011 L 3.23917,-62.96 L 3.51964,-63.3919 L 3.84373,-63.7921 L 4.20789,-64.1563 L 4.60811,-64.4804
 L 4.95001,-64.7024 L 4.95001,-74 L 5.00574,-74.5302 L 5.17047,-75.0372 L 5.43701,-75.4988 L 5.79373,-75.895
 L 6.22501,-76.2084 L 6.71202,-76.4252 L 7.23346,-76.536 L 7.76654,-76.536 L 8.28798,-76.4252 L 8.77499,-76.2084
 L 9.20627,-75.895 L 9.56299,-75.4988 L 9.82953,-75.0372 L 9.99426,-74.5302 L 10.05,-74 L 10.05,-64.7024
 L 10.3919,-64.4804 L 10.7921,-64.1563 L 11.1563,-63.7921 L 11.4804,-63.3919 L 11.7608,-62.96 L 11.9946,-62.5011
 L 12.1792,-62.0204 L 12.3125,-61.5229 L 12.393,-61.0143 L 12.42,-60.5 L 12.393,-59.9857 L 12.3125,-59.4771
 L 12.1792,-58.9796 L 11.9946,-58.4989 L 11.7608,-58.04 L 11.4804,-57.6081 L 11.1563,-57.2079 L 10.7921,-56.8437
 L 10.3919,-56.5196 L 9.95999,-56.2392 L 9.50113,-56.0054 L 9.02036,-55.8208 L 8.52292,-55.6875 L 8.01427,-55.607
 L 7.5,-55.58 z
M 136.736,-55.607 L 136.227,-55.6875 L 135.73,-55.8208 L 135.249,-56.0054 L 134.79,-56.2392 L 134.358,-56.5196
 L 133.958,-56.8437 L 133.594,-57.2079 L 133.27,-57.6081 L 132.989,-58.04 L 132.755,-58.4989 L 132.571,-58.9796
 L 132.438,-59.4771 L 132.357,-59.9857 L 132.33,-60.5 L 132.357,-61.0143 L 132.438,-61.5229 L 132.571,-62.0204
 L 132.755,-62.5011 L 132.989,-62.96 L 133.27,-63.3919 L 133.594,-63.7921 L 133.958,-64.1563 L 134.358,-64.4804
 L 134.7,-64.7024 L 134.7,-74 L 134.756,-74.5302 L 134.92,-75.0372 L 135.187,-75.4988 L 135.544,-75.895
 L 135.975,-76.2084 L 136.462,-76.4252 L 136.983,-76.536 L 137.517,-76.536 L 138.038,-76.4252 L 138.525,-76.2084
 L 138.956,-75.895 L 139.313,-75.4988 L 139.58,-75.0372 L 139.744,-74.5302 L 139.8,-74 L 139.8,-64.7024
 L 140.142,-64.4804 L 140.542,-64.1563 L 140.906,-63.7921 L 141.23,-63.3919 L 141.511,-62.96 L 141.745,-62.5011
 L 141.929,-62.0204 L 142.062,-61.5229 L 142.143,-61.0143 L 142.17,-60.5 L 142.143,-59.9857 L 142.062,-59.4771
 L 141.929,-58.9796 L 141.745,-58.4989 L 141.511,-58.04 L 141.23,-57.6081 L 140.906,-57.2079 L 140.542,-56.8437
 L 140.142,-56.5196 L 139.71,-56.2392 L 139.251,-56.0054 L 138.77,-55.8208 L 138.273,-55.6875 L 137.764,-55.607
 L 137.25,-55.58 z
M 266.486,-55.607 L 265.977,-55.6875 L 265.48,-55.8208 L 264.999,-56.0054 L 264.54,-56.2392 L 264.108,-56.5196
 L 263.708,-56.8437 L 263.344,-57.2079 L 263.02,-57.6081 L 262.739,-58.04 L 262.505,-58.4989 L 262.321,-58.9796
 L 262.188,-59.4771 L 262.107,-59.9857 L 262.08,-60.5 L 262.107,-61.0143 L 262.188,-61.5229 L 262.321,-62.0204
 L 262.505,-62.5011 L 262.739,-62.96 L 263.02,-63.3919 L 263.344,-63.7921 L 263.708,-64.1563 L 264.108,-64.4804
 L 264.45,-64.7024 L 264.45,-74 L 264.506,-74.5302 L 264.67,-75.0372 L 264.937,-75.4988 L 265.294,-75.895
 L 265.725,-76.2084 L 266.212,-76.4252 L 266.733,-76.536 L 267.267,-76.536 L 267.788,-76.4252 L 268.275,-76.2084
 L 268.706,-75.895 L 269.063,-75.4988 L 269.33,-75.0372 L 269.494,-74.5302 L 269.55,-74 L 269.55,-64.7024
 L 269.892,-64.4804 L 270.292,-64.1563 L 270.656,-63.7921 L 270.98,-63.3919 L 271.261,-62.96 L 271.495,-62.5011
 L 271.679,-62.0204 L 271.812,-61.5229 L 271.893,-61.0143 L 271.92,-60.5 L 271.893,-59.9857 L 271.812,-59.4771
 L 271.679,-58.9796 L 271.495,-58.4989 L 271.261,-58.04 L 270.98,-57.6081 L 270.656,-57.2079 L 270.292,-56.8437
 L 269.892,-56.5196 L 269.46,-56.2392 L 269.001,-56.0054 L 268.52,-55.8208 L 268.023,-55.6875 L 267.514,-55.607
 L 267,-55.58 z
M 396.236,-55.607 L 395.727,-55.6875 L 395.23,-55.8208 L 394.749,-56.0054 L 394.29,-56.2392 L 393.858,-56.5196
 L 393.458,-56.8437 L 393.094,-57.2079 L 392.77,-57.6081 L 392.489,-58.04 L 392.255,-58.4989 L 392.071,-58.9796
 L 391.938,-59.4771 L 391.857,-59.9857 L 391.83,-60.5 L 391.857,-61.0143 L 391.938,-61.5229 L 392.071,-62.0204
 L 392.255,-62.5011 L 392.489,-62.96 L 392.77,-63.3919 L 393.094,-63.7921 L 393.458,-64.1563 L 393.858,-64.4804
 L 394.2,-64.7024 L 394.2,-74 L 394.256,-74.5302 L 394.42,-75.0372 L 394.687,-75.4988 L 395.044,-75.895
 L 395.475,-76.2084 L 395.962,-76.4252 L 396.483,-76.536 L 397.017,-76.536 L 397.538,-76.4252 L 398.025,-76.2084
 L 398.456,-75.895 L 398.813,-75.4988 L 399.08,-75.0372 L 399.244,-74.5302 L 399.3,-74 L 399.3,-64.7024
 L 399.642,-64.4804 L 400.042,-64.1563 L 400.406,-63.7921 L 400.73,-63.3919 L 401.011,-62.96 L 401.245,-62.5011
 L 401.429,-62.0204 L 401.562,-61.5229 L 401.643,-61.0143 L 401.67,-60.5 L 401.643,-59.9857 L 401.562,-59.4771
 L 401.429,-58.9796 L 401.245,-58.4989 L 401.011,-58.04 L 400.73,-57.6081 L 400.406,-57.2079 L 400.042,-56.8437
 L 399.642,-56.5196 L 399.21,-56.2392 L 398.751,-56.0054 L 398.27,-55.8208 L 397.773,-55.6875 L 397.264,-55.607
 L 396.75,-55.58 z
M 525.986,-55.607 L 525.477,-55.6875 L 524.98,-55.8208 L 524.499,-56.0054 L 524.04,-56.2392 L 523.608,-56.5196
 L 523.208,-56.8437 L 522.844,-57.2079 L 522.52,-57.6081 L 522.239,-58.04 L 522.005,-58.4989 L 521.821,-58.9796
 L 521.688,-59.4771 L 521.607,-59.9857 L 521.58,-60.5 L 521.607,-61.0143 L 521.688,-61.5229 L 521.821,-62.0204
 L 522.005,-62.5011 L 522.239,-62.96 L 522.52,-63.3919 L 522.844,-63.7921 L 523.208,-64.1563 L 523.608,-64.4804
 L 523.95,-64.7024 L 523.95,-74 L 524.006,-74.5302 L 524.17,-75.0372 L 524.437,-75.4988 L 524.794,-75.895
 L 525.225,-76.2084 L 525.712,-76.4252 L 526.233,-76.536 L 526.767,-76.536 L 527.288,-76.4252 L 527.775,-76.2084
 L 528.206,-75.895 L 528.563,-75.4988 L 528.83,-75.0372 L 528.994,-74.5302 L 529.05,-74 L 529.05,-64.7024
 L 529.392,-64.4804 L 529.792,-64.1563 L 530.156,-63.7921 L 530.48,-63.3919 L 530.761,-62.96 L 530.995,-62.5011
 L 531.179,-62.0204 L 531.312,-61.5229 L 531.393,-61.0143 L 531.42,-60.5 L 531.393,-59.9857 L 531.312,-59.4771
 L 531.179,-58.9796 L 530.995,-58.4989 L 530.761,-58.04 L 530.48,-57.6081 L 530.156,-57.2079 L 529.792,-56.8437
 L 529.392,-56.5196 L 528.96,-56.2392 L 528.501,-56.0054 L 528.02,-55.8208 L 527.523,-55.6875 L 527.014,-55.607
 L 526.5,-55.58 z
M 279.42,-23.5203 L 278.61,-23.7274 L 277.86,-24.0985 L 277.204,-24.6172 L 276.671,-25.261 L 276.282,-26.0017
 L 276.057,-26.8069 L 276,-27.478 L 276,-58 L 276.087,-58.8316 L 276.346,-59.627 L 276.764,-60.3511
 L 277.323,-60.9726 L 278,-61.4641 L 278.764,-61.8042 L 280,-62 L 338.239,-62 L 339.07,-61.9126
 L 339.866,-61.6542 L 340.59,-61.2361 L 341.211,-60.6765 L 341.703,-60 L 342.043,-59.2361 L 342.217,-58.4181
 L 342.217,-57.5819 L 342.043,-56.7639 L 341.703,-56 L 341.211,-55.3235 L 340.59,-54.7639 L 340.096,-54.4571
 L 281.857,-23.935 L 281.08,-23.6264 L 280.255,-23.4861 z
M 252.92,-23.6264 L 252.143,-23.935 L 193.904,-54.4571 L 193.41,-54.7639 L 192.789,-55.3235 L 192.297,-56
 L 191.957,-56.7639 L 191.783,-57.5819 L 191.783,-58.4181 L 191.957,-59.2361 L 192.297,-60 L 192.789,-60.6765
 L 193.41,-61.2361 L 194.134,-61.6542 L 194.93,-61.9126 L 195.761,-62 L 254,-62 L 255.236,-61.8042
 L 256,-61.4641 L 256.677,-60.9726 L 257.236,-60.3511 L 257.654,-59.627 L 257.913,-58.8316 L 258,-58
 L 258,-27.478 L 257.943,-26.8069 L 257.718,-26.0017 L 257.329,-25.261 L 256.796,-24.6172 L 256.14,-24.0985
 L 255.39,-23.7274 L 254.58,-23.5203 L 253.745,-23.4861 z
M 409.17,-23.5203 L 408.36,-23.7274 L 407.61,-24.0985 L 406.954,-24.6172 L 406.421,-25.261 L 406.032,-26.0017
 L 405.807,-26.8069 L 405.75,-27.478 L 405.75,-58 L 405.837,-58.8316 L 406.096,-59.627 L 406.514,-60.3511
 L 407.073,-60.9726 L 407.75,-61.4641 L 408.514,-61.8042 L 409.75,-62 L 467.989,-62 L 468.82,-61.9126
 L 469.616,-61.6542 L 470.34,-61.2361 L 470.961,-60.6765 L 471.453,-60 L 471.793,-59.2361 L 471.967,-58.4181
 L 471.967,-57.5819 L 471.793,-56.7639 L 471.453,-56 L 470.961,-55.3235 L 470.34,-54.7639 L 469.846,-54.4571
 L 411.607,-23.935 L 410.83,-23.6264 L 410.005,-23.4861 z
M 123.17,-23.6264 L 122.393,-23.935 L 64.1545,-54.4571 L 63.6601,-54.7639 L 63.0387,-55.3235 L 62.5472,-56
 L 62.207,-56.7639 L 62.0332,-57.5819 L 62.0332,-58.4181 L 62.207,-59.2361 L 62.5472,-60 L 63.0387,-60.6765
 L 63.6601,-61.2361 L 64.3843,-61.6542 L 65.1796,-61.9126 L 66.0113,-62 L 124.25,-62 L 125.486,-61.8042
 L 126.25,-61.4641 L 126.927,-60.9726 L 127.486,-60.3511 L 127.904,-59.627 L 128.163,-58.8316 L 128.25,-58
 L 128.25,-27.478 L 128.193,-26.8069 L 127.968,-26.0017 L 127.579,-25.261 L 127.046,-24.6172 L 126.39,-24.0985
 L 125.64,-23.7274 L 124.83,-23.5203 L 123.995,-23.4861 z
M 325.511,-18 L 324.68,-18.0874 L 323.884,-18.3458 L 323.16,-18.7639 L 322.539,-19.3235 L 322.047,-20
 L 321.707,-20.7639 L 321.533,-21.5819 L 321.533,-22.4181 L 321.707,-23.2361 L 322.047,-24 L 322.539,-24.6765
 L 323.16,-25.2361 L 323.654,-25.5429 L 381.893,-56.0649 L 382.67,-56.3736 L 383.495,-56.5139 L 384.33,-56.4797
 L 385.14,-56.2726 L 385.89,-55.9015 L 386.546,-55.3828 L 387.079,-54.739 L 387.468,-53.9983 L 387.693,-53.1931
 L 387.75,-52.522 L 387.75,-22 L 387.663,-21.1684 L 387.404,-20.373 L 386.986,-19.6489 L 386.427,-19.0274
 L 385.75,-18.5359 L 384.986,-18.1958 L 383.75,-18 z
M 150.25,-18 L 149.014,-18.1958 L 148.25,-18.5359 L 147.573,-19.0274 L 147.014,-19.6489 L 146.596,-20.373
 L 146.337,-21.1684 L 146.25,-22 L 146.25,-52.522 L 146.307,-53.1931 L 146.532,-53.9983 L 146.921,-54.739
 L 147.454,-55.3828 L 148.11,-55.9015 L 148.86,-56.2726 L 149.67,-56.4797 L 150.505,-56.5139 L 151.33,-56.3736
 L 152.107,-56.0649 L 210.346,-25.5429 L 210.84,-25.2361 L 211.461,-24.6765 L 211.953,-24 L 212.293,-23.2361
 L 212.467,-22.4181 L 212.467,-21.5819 L 212.293,-20.7639 L 211.953,-20 L 211.461,-19.3235 L 210.84,-18.7639
 L 210.116,-18.3458 L 209.32,-18.0874 L 208.489,-18 z
M 22,-18 L 20.7639,-18.1958 L 20,-18.5359 L 19.3235,-19.0274 L 18.7639,-19.6489 L 18.3458,-20.373
 L 18.0874,-21.1684 L 18,-22 L 18,-51.7359 L 18.0567,-52.407 L 18.2824,-53.2122 L 18.6706,-53.9529
 L 19.2043,-54.5966 L 19.8601,-55.1154 L 20.6095,-55.4864 L 21.4197,-55.6936 L 22.2552,-55.7277 L 23.0796,-55.5874
 L 23.8568,-55.2788 L 80.5955,-25.5429 L 81.0899,-25.2361 L 81.7113,-24.6765 L 82.2028,-24 L 82.543,-23.2361
 L 82.7168,-22.4181 L 82.7168,-21.5819 L 82.543,-20.7639 L 82.2028,-20 L 81.7113,-19.3235 L 81.0899,-18.7639
 L 80.3657,-18.3458 L 79.5704,-18.0874 L 78.7387,-18 z
M 455.261,-18 L 454.43,-18.0874 L 453.634,-18.3458 L 452.91,-18.7639 L 452.289,-19.3235 L 451.797,-20
 L 451.457,-20.7639 L 451.283,-21.5819 L 451.283,-22.4181 L 451.457,-23.2361 L 451.797,-24 L 452.289,-24.6765
 L 452.91,-25.2361 L 453.404,-25.5429 L 510.143,-55.2788 L 510.92,-55.5874 L 511.745,-55.7277 L 512.58,-55.6936
 L 513.39,-55.4864 L 514.14,-55.1154 L 514.796,-54.5966 L 515.329,-53.9529 L 515.718,-53.2122 L 515.943,-52.407
 L 516,-51.7359 L 516,-22 L 515.913,-21.1684 L 515.654,-20.373 L 515.236,-19.6489 L 514.677,-19.0274
 L 514,-18.5359 L 513.236,-18.1958 L 512,-18 z
" stroke="black" fill="lightgray" stroke-width="0.5"/>
</svg>
