<?xml version="1.0" standalone="no"?>
<!DOCTYPE svg PUBLIC "-//W3C//DTD SVG 1.1//EN" "http://www.w3.org/Graphics/SVG/1.1/DTD/svg11.dtd">
<svg width="557mm" height="80mm" viewBox="0 -80 557 80" xmlns="http://www.w3.org/2000/svg" version="1.1">
<title>OpenSCAD Model</title>
<path d="
M 557,-80 L 0,-80 L 0,-0 L 4.95,-0 L 4.95,-6 L 5.00572,-6.53017
 L 5.17046,-7.03717 L 5.437,-7.49884 L 5.79372,-7.895 L 6.22499,-8.20836 L 6.71201,-8.42519 L 7.23344,-8.53603
 L 7.76654,-8.53603 L 8.28798,-8.42519 L 8.77499,-8.20836 L 9.20627,-7.895 L 9.56299,-7.49884 L 9.82953,-7.03717
 L 9.99426,-6.53017 L 10.05,-6 L 10.05,-0 L 140.45,-0 L 140.45,-6 L 140.506,-6.53017
 L 140.67,-7.03717 L 140.937,-7.49884 L 141.294,-7.895 L 141.725,-8.20836 L 142.212,-8.42519 L 142.733,-8.53603
 L 143.267,-8.53603 L 143.788,-8.42519 L 144.275,-8.20836 L 144.706,-7.895 L 145.063,-7.49884 L 145.33,-7.03717
 L 145.494,-6.53017 L 145.55,-6 L 145.55,-0 L 275.95,-0 L 275.95,-6 L 276.006,-6.53017
 L 276.17,-7.03717 L 276.437,-7.49884 L 276.794,-7.895 L 277.225,-8.20836 L 277.712,-8.42519 L 278.233,-8.53603
 L 278.767,-8.53603 L 279.288,-8.42519 L 279.775,-8.20836 L 280.206,-7.895 L 280.563,-7.49884 L 280.83,-7.03717
 L 280.994,-6.53017 L 281.05,-6 L 281.05,-0 L 411.45,-0 L 411.45,-6 L 411.506,-6.53017
 L 411.67,-7.03717 L 411.937,-7.49884 L 412.294,-7.895 L 412.725,-8.20836 L 413.212,-8.42519 L 413.733,-8.53603
 L 414.267,-8.53603 L 414.788,-8.42519 L 415.275,-8.20836 L 415.706,-7.895 L 416.063,-7.49884 L 416.33,-7.03717
 L 416.494,-6.53017 L 416.55,-6 L 416.55,-0 L 546.95,-0 L 546.95,-6 L 547.006,-6.53017
 L 547.17,-7.03717 L 547.437,-7.49884 L 547.794,-7.895 L 548.225,-8.20836 L 548.712,-8.42519 L 549.233,-8.53603
 L 549.767,-8.53603 L 550.288,-8.42519 L 550.775,-8.20836 L 551.206,-7.895 L 551.563,-7.49884 L 551.83,-7.03717
 L 551.994,-6.53017 L 552.05,-6 L 552.05,-0 L 557,-0 z
M 6.98573,-55.607 L 6.47708,-55.6875 L 5.97964,-55.8208 L 5.49887,-56.0054 L 5.04001,-56.2392 L 4.60811,-56.5196
 L 4.20789,-56.8437 L 3.84373,-57.2079 L 3.51964,-57.6081 L 3.23917,-58.04 L 3.00537,-58.4989 L 2.82082,-58.9796
 L 2.68752,-59.4771 L 2.60696,-59.9857 L 2.58,-60.5 L 2.60696,-61.0143 L 2.68752,-61.5229 L 2.82082,-62.0204
 L 3.00537,-62.5011 L 3.23917,-62.96 L 3.51964,-63.3919 L 3.84373,-63.7921 L 4.20789,-64.1563 L 4.60811,-64.4804
 L 4.95001,-64.7024 L 4.95001,-74 L 5.00574,-74.5302 L 5.17047,-75.0372 L 5.43701,-75.4988 L 5.79373,-75.895
 L 6.22501,-76.2084 L 6.71202,-76.4252 L 7.23346,-76.536 L 7.76654,-76.536 L 8.28798,-76.4252 L 8.77499,-76.2084
 L 9.20627,-75.895 L 9.56299,-75.4988 L 9.82953,-75.0372 L 9.99426,-74.5302 L 10.05,-74 L 10.05,-64.7024
 L 10.3919,-64.4804 L 10.7921,-64.1563 L 11.1563,-63.7921 L 11.4804,-63.3919 L 11.7608,-62.96 L 11.9946,-62.5011
 L 12.1792,-62.0204 L 12.3125,-61.5229 L 12.393,-61.0143 L 12.42,-60.5 L 12.393,-59.9857 L 12.3125,-59.4771
 L 12.1792,-58.9796 L 11.9946,-58.4989 L 11.7608,-58.04 L 11.4804,-57.6081 L 11.1563,-57.2079 L 10.7921,-56.8437
 L 10.3919,-56.5196 L 9.95999,-56.2392 L 9.50113,-56.0054 L 9.02036,-55.8208 L 8.52292,-55.6875 L 8.01427,-55.607
 L 7.5,-55.58 z
M 142.486,-55.607 L 141.977,-55.6875 L 141.48,-55.8208 L 140.999,-56.0054 L 140.54,-56.2392 L 140.108,-56.5196
 L 139.708,-56.8437 L 139.344,-57.2079 L 139.02,-57.6081 L 138.739,-58.04 L 138.505,-58.4989 L 138.321,-58.9796
 L 138.188,-59.4771 L 138.107,-59.9857 L 138.08,-60.5 L 138.107,-61.0143 L 138.188,-61.5229 L 138.321,-62.0204
 L 138.505,-62.5011 L 138.739,-62.96 L 139.02,-63.3919 L 139.344,-63.7921 L 139.708,-64.1563 L 140.108,-64.4804
 L 140.45,-64.7024 L 140.45,-74 L 140.506,-74.5302 L 140.67,-75.0372 L 140.937,-75.4988 L 141.294,-75.895
 L 141.725,-76.2084 L 142.212,-76.4252 L 142.733,-76.536 L 143.267,-76.536 L 143.788,-76.4252 L 144.275,-76.2084
 L 144.706,-75.895 L 145.063,-75.4988 L 145.33,-75.0372 L 145.494,-74.5302 L 145.55,-74 L 145.55,-64.7024
 L 145.892,-64.4804 L 146.292,-64.1563 L 146.656,-63.7921 L 146.98,-63.3919 L 147.261,-62.96 L 147.495,-62.5011
 L 147.679,-62.0204 L 147.812,-61.5229 L 147.893,-61.0143 L 147.92,-60.5 L 147.893,-59.9857 L 147.812,-59.4771
 L 147.679,-58.9796 L 147.495,-58.4989 L 147.261,-58.04 L 146.98,-57.6081 L 146.656,-57.2079 L 146.292,-56.8437
 L 145.892,-56.5196 L 145.46,-56.2392 L 145.001,-56.0054 L 144.52,-55.8208 L 144.023,-55.6875 L 143.514,-55.607
 L 143,-55.58 z
M 277.986,-55.607 L 277.477,-55.6875 L 276.98,-55.8208 L 276.499,-56.0054 L 276.04,-56.2392 L 275.608,-56.5196
 L 275.208,-56.8437 L 274.844,-57.2079 L 274.52,-57.6081 L 274.239,-58.04 L 274.005,-58.4989 L 273.821,-58.9796
 L 273.688,-59.4771 L 273.607,-59.9857 L 273.58,-60.5 L 273.607,-61.0143 L 273.688,-61.5229 L 273.821,-62.0204
 L 274.005,-62.5011 L 274.239,-62.96 L 274.52,-63.3919 L 274.844,-63.7921 L 275.208,-64.1563 L 275.608,-64.4804
 L 275.95,-64.7024 L 275.95,-74 L 276.006,-74.5302 L 276.17,-75.0372 L 276.437,-75.4988 L 276.794,-75.895
 L 277.225,-76.2084 L 277.712,-76.4252 L 278.233,-76.536 L 278.767,-76.536 L 279.288,-76.4252 L 279.775,-76.2084
 L 280.206,-75.895 L 280.563,-75.4988 L 280.83,-75.0372 L 280.994,-74.5302 L 281.05,-74 L 281.05,-64.7024
 L 281.392,-64.4804 L 281.792,-64.1563 L 282.156,-63.7921 L 282.48,-63.3919 L 282.761,-62.96 L 282.995,-62.5011
 L 283.179,-62.0204 L 283.312,-61.5229 L 283.393,-61.0143 L 283.42,-60.5 L 283.393,-59.9857 L 283.312,-59.4771
 L 283.179,-58.9796 L 282.995,-58.4989 L 282.761,-58.04 L 282.48,-57.6081 L 282.156,-57.2079 L 281.792,-56.8437
 L 281.392,-56.5196 L 280.96,-56.2392 L 280.501,-56.0054 L 280.02,-55.8208 L 279.523,-55.6875 L 279.014,-55.607
 L 278.5,-55.58 z
M 413.486,-55.607 L 412.977,-55.6875 L 412.48,-55.8208 L 411.999,-56.0054 L 411.54,-56.2392 L 411.108,-56.5196
 L 410.708,-56.8437 L 410.344,-57.2079 L 410.02,-57.6081 L 409.739,-58.04 L 409.505,-58.4989 L 409.321,-58.9796
 L 409.188,-59.4771 L 409.107,-59.9857 L 409.08,-60.5 L 409.107,-61.0143 L 409.188,-61.5229 L 409.321,-62.0204
 L 409.505,-62.5011 L 409.739,-62.96 L 410.02,-63.3919 L 410.344,-63.7921 L 410.708,-64.1563 L 411.108,-64.4804
 L 411.45,-64.7024 L 411.45,-74 L 411.506,-74.5302 L 411.67,-75.0372 L 411.937,-75.4988 L 412.294,-75.895
 L 412.725,-76.2084 L 413.212,-76.4252 L 413.733,-76.536 L 414.267,-76.536 L 414.788,-76.4252 L 415.275,-76.2084
 L 415.706,-75.895 L 416.063,-75.4988 L 416.33,-75.0372 L 416.494,-74.5302 L 416.55,-74 L 416.55,-64.7024
 L 416.892,-64.4804 L 417.292,-64.1563 L 417.656,-63.7921 L 417.98,-63.3919 L 418.261,-62.96 L 418.495,-62.5011
 L 418.679,-62.0204 L 418.812,-61.5229 L 418.893,-61.0143 L 418.92,-60.5 L 418.893,-59.9857 L 418.812,-59.4771
 L 418.679,-58.9796 L 418.495,-58.4989 L 418.261,-58.04 L 417.98,-57.6081 L 417.656,-57.2079 L 417.292,-56.8437
 L 416.892,-56.5196 L 416.46,-56.2392 L 416.001,-56.0054 L 415.52,-55.8208 L 415.023,-55.6875 L 414.514,-55.607
 L 414,-55.58 z
M 548.986,-55.607 L 548.477,-55.6875 L 547.98,-55.8208 L 547.499,-56.0054 L 547.04,-56.2392 L 546.608,-56.5196
 L 546.208,-56.8437 L 545.844,-57.2079 L 545.52,-57.6081 L 545.239,-58.04 L 545.005,-58.4989 L 544.821,-58.9796
 L 544.688,-59.4771 L 544.607,-59.9857 L 544.58,-60.5 L 544.607,-61.0143 L 544.688,-61.5229 L 544.821,-62.0204
 L 545.005,-62.5011 L 545.239,-62.96 L 545.52,-63.3919 L 545.844,-63.7921 L 546.208,-64.1563 L 546.608,-64.4804
 L 546.95,-64.7024 L 546.95,-74 L 547.006,-74.5302 L 547.17,-75.0372 L 547.437,-75.4988 L 547.794,-75.895
 L 548.225,-76.2084 L 548.712,-76.4252 L 549.233,-76.536 L 549.767,-76.536 L 550.288,-76.4252 L 550.775,-76.2084
 L 551.206,-75.895 L 551.563,-75.4988 L 551.83,-75.0372 L 551.994,-74.5302 L 552.05,-74 L 552.05,-64.7024
 L 552.392,-64.4804 L 552.792,-64.1563 L 553.156,-63.7921 L 553.48,-63.3919 L 553.761,-62.96 L 553.995,-62.5011
 L 554.179,-62.0204 L 554.312,-61.5229 L 554.393,-61.0143 L 554.42,-60.5 L 554.393,-59.9857 L 554.312,-59.4771
 L 554.179,-58.9796 L 553.995,-58.4989 L 553.761,-58.04 L 553.48,-57.6081 L 553.156,-57.2079 L 552.792,-56.8437
 L 552.392,-56.5196 L 551.96,-56.2392 L 551.501,-56.0054 L 551.02,-55.8208 L 550.523,-55.6875 L 550.014,-55.607
 L 549.5,-55.58 z
M 290.85,-23.1068 L 290.044,-23.3281 L 289.301,-23.7123 L 288.654,-24.2425 L 288.132,-24.8956 L 287.757,-25.643
 L 287.545,-26.452 L 287.5,-27.0536 L 287.5,-58 L 287.587,-58.8316 L 287.846,-59.627 L 288.264,-60.3511
 L 288.823,-60.9726 L 289.5,-61.4641 L 290.264,-61.8042 L 291.5,-62 L 353.165,-62 L 353.997,-61.9126
 L 354.792,-61.6542 L 355.516,-61.2361 L 356.138,-60.6765 L 356.629,-60 L 356.969,-59.2361 L 357.143,-58.4181
 L 357.143,-57.5819 L 356.969,-56.7639 L 356.629,-56 L 356.138,-55.3235 L 355.516,-54.7639 L 354.959,-54.4249
 L 293.294,-23.4785 L 292.512,-23.1836 L 291.685,-23.0579 z
M 264.488,-23.1836 L 263.706,-23.4785 L 202.041,-54.4249 L 201.484,-54.7639 L 200.862,-55.3235 L 200.371,-56
 L 200.031,-56.7639 L 199.857,-57.5819 L 199.857,-58.4181 L 200.031,-59.2361 L 200.371,-60 L 200.862,-60.6765
 L 201.484,-61.2361 L 202.208,-61.6542 L 203.003,-61.9126 L 203.835,-62 L 265.5,-62 L 266.736,-61.8042
 L 267.5,-61.4641 L 268.177,-60.9726 L 268.736,-60.3511 L 269.154,-59.627 L 269.413,-58.8316 L 269.5,-58
 L 269.5,-27.0536 L 269.455,-26.452 L 269.243,-25.643 L 268.868,-24.8956 L 268.346,-24.2425 L 267.699,-23.7123
 L 266.956,-23.3281 L 266.15,-23.1068 L 265.315,-23.0579 z
M 426.35,-23.1068 L 425.544,-23.3281 L 424.801,-23.7123 L 424.154,-24.2425 L 423.632,-24.8956 L 423.257,-25.643
 L 423.045,-26.452 L 423,-27.0536 L 423,-58 L 423.087,-58.8316 L 423.346,-59.627 L 423.764,-60.3511
 L 424.323,-60.9726 L 425,-61.4641 L 425.764,-61.8042 L 427,-62 L 488.665,-62 L 489.497,-61.9126
 L 490.292,-61.6542 L 491.016,-61.2361 L 491.638,-60.6765 L 492.129,-60 L 492.469,-59.2361 L 492.643,-58.4181
 L 492.643,-57.5819 L 492.469,-56.7639 L 492.129,-56 L 491.638,-55.3235 L 491.016,-54.7639 L 490.459,-54.4249
 L 428.794,-23.4785 L 428.012,-23.1836 L 427.185,-23.0579 z
M 128.988,-23.1836 L 128.206,-23.4785 L 66.5406,-54.4249 L 65.9836,-54.7639 L 65.3622,-55.3235 L 64.8707,-56
 L 64.5305,-56.7639 L 64.3567,-57.5819 L 64.3567,-58.4181 L 64.5305,-59.2361 L 64.8707,-60 L 65.3622,-60.6765
 L 65.9836,-61.2361 L 66.7078,-61.6542 L 67.5031,-61.9126 L 68.3348,-62 L 130,-62 L 131.236,-61.8042
 L 132,-61.4641 L 132.677,-60.9726 L 133.236,-60.3511 L 133.654,-59.627 L 133.913,-58.8316 L 134,-58
 L 134,-27.0536 L 133.955,-26.452 L 133.743,-25.643 L 133.368,-24.8956 L 132.846,-24.2425 L 132.199,-23.7123
 L 131.456,-23.3281 L 130.65,-23.1068 L 129.815,-23.0579 z
M 339.335,-18 L 338.503,-18.0874 L 337.708,-18.3458 L 336.984,-18.7639 L 336.362,-19.3235 L 335.871,-20
 L 335.531,-20.7639 L 335.357,-21.5819 L 335.357,-22.4181 L 335.531,-23.2361 L 335.871,-24 L 336.362,-24.6765
 L 336.984,-25.2361 L 337.541,-25.5751 L 399.206,-56.5215 L 399.988,-56.8163 L 400.815,-56.9421 L 401.65,-56.8932
 L 402.456,-56.6719 L 403.199,-56.2877 L 403.846,-55.7575 L 404.368,-55.1044 L 404.743,-54.357 L 404.955,-53.5479
 L 405,-52.9464 L 405,-22 L 404.913,-21.1684 L 404.654,-20.373 L 404.236,-19.6489 L 403.677,-19.0274
 L 403,-18.5359 L 402.236,-18.1958 L 401,-18 z
M 156,-18 L 154.764,-18.1958 L 154,-18.5359 L 153.323,-19.0274 L 152.764,-19.6489 L 152.346,-20.373
 L 152.087,-21.1684 L 152,-22 L 152,-52.9464 L 152.045,-53.5479 L 152.257,-54.357 L 152.632,-55.1044
 L 153.154,-55.7575 L 153.801,-56.2877 L 154.544,-56.6719 L 155.35,-56.8932 L 156.185,-56.9421 L 157.012,-56.8163
 L 157.794,-56.5215 L 219.459,-25.5751 L 220.016,-25.2361 L 220.638,-24.6765 L 221.129,-24 L 221.469,-23.2361
 L 221.643,-22.4181 L 221.643,-21.5819 L 221.469,-20.7639 L 221.129,-20 L 220.638,-19.3235 L 220.016,-18.7639
 L 219.292,-18.3458 L 218.497,-18.0874 L 217.665,-18 z
M 22,-18 L 20.7639,-18.1958 L 20,-18.5359 L 19.3235,-19.0274 L 18.7639,-19.6489 L 18.3458,-20.373
 L 18.0874,-21.1684 L 18,-22 L 18,-52.1936 L 18.0455,-52.7952 L 18.257,-53.6042 L 18.632,-54.3516
 L 19.1543,-55.0047 L 19.801,-55.5349 L 20.5437,-55.9191 L 21.3501,-56.1405 L 22.1849,-56.1893 L 23.0116,-56.0636
 L 23.7941,-55.7687 L 83.9594,-25.5751 L 84.5164,-25.2361 L 85.1378,-24.6765 L 85.6293,-24 L 85.9695,-23.2361
 L 86.1433,-22.4181 L 86.1433,-21.5819 L 85.9695,-20.7639 L 85.6293,-20 L 85.1378,-19.3235 L 84.5164,-18.7639
 L 83.7922,-18.3458 L 82.9969,-18.0874 L 82.1652,-18 z
M 474.835,-18 L 474.003,-18.0874 L 473.208,-18.3458 L 472.484,-18.7639 L 471.862,-19.3235 L 471.371,-20
 L 471.031,-20.7639 L 470.857,-21.5819 L 470.857,-22.4181 L 471.031,-23.2361 L 471.371,-24 L 471.862,-24.6765
 L 472.484,-25.2361 L 473.041,-25.5751 L 533.206,-55.7687 L 533.988,-56.0636 L 534.815,-56.1893 L 535.65,-56.1405
 L 536.456,-55.9191 L 537.199,-55.5349 L 537.846,-55.0047 L 538.368,-54.3516 L 538.743,-53.6042 L 538.955,-52.7952
 L 539,-52.1936 L 539,-22 L 538.913,-21.1684 L 538.654,-20.373 L 538.236,-19.6489 L 537.677,-19.0274
 L 537,-18.5359 L 536.236,-18.1958 L 535,-18 z
" stroke="black" fill="lightgray" stroke-width="0.5"/>
</svg>
