<?xml version="1.0" standalone="no"?>
<!DOCTYPE svg PUBLIC "-//W3C//DTD SVG 1.1//EN" "http://www.w3.org/Graphics/SVG/1.1/DTD/svg11.dtd">
<svg width="984mm" height="80mm" viewBox="0 -80 984 80" xmlns="http://www.w3.org/2000/svg" version="1.1">
<title>OpenSCAD Model</title>
<path d="
M 984,-80 L 0,-80 L 0,-0 L 4.95,-0 L 4.95,-6 L 5.00572,-6.53017
 L 5.17046,-7.03717 L 5.437,-7.49884 L 5.79372,-7.895 L 6.22499,-8.20836 L 6.71201,-8.42519 L 7.23344,-8.53603
 L 7.76654,-8.53603 L 8.28798,-8.42519 L 8.77499,-8.20836 L 9.20627,-7.895 L 9.56299,-7.49884 L 9.82953,-7.03717
 L 9.99426,-6.53017 L 10.05,-6 L 10.05,-0 L 198.75,-0 L 198.75,-6 L 198.806,-6.53017
 L 198.97,-7.03717 L 199.237,-7.49884 L 199.594,-7.895 L 200.025,-8.20836 L 200.512,-8.42519 L 201.033,-8.53603
 L 201.567,-8.53603 L 202.088,-8.42519 L 202.575,-8.20836 L 203.006,-7.895 L 203.363,-7.49884 L 203.63,-7.03717
 L 203.794,-6.53017 L 203.85,-6 L 203.85,-0 L 392.55,-0 L 392.55,-6 L 392.606,-6.53017
 L 392.77,-7.03717 L 393.037,-7.49884 L 393.394,-7.895 L 393.825,-8.20836 L 394.312,-8.42519 L 394.833,-8.53603
 L 395.367,-8.53603 L 395.888,-8.42519 L 396.375,-8.20836 L 396.806,-7.895 L 397.163,-7.49884 L 397.43,-7.03717
 L 397.594,-6.53017 L 397.65,-6 L 397.65,-0 L 586.35,-0 L 586.35,-6 L 586.406,-6.53017
 L 586.57,-7.03717 L 586.837,-7.49884 L 587.194,-7.895 L 587.625,-8.20836 L 588.112,-8.42519 L 588.633,-8.53603
 L 589.167,-8.53603 L 589.688,-8.42519 L 590.175,-8.20836 L 590.606,-7.895 L 590.963,-7.49884 L 591.23,-7.03717
 L 591.394,-6.53017 L 591.45,-6 L 591.45,-0 L 780.15,-0 L 780.15,-6 L 780.206,-6.53017
 L 780.37,-7.03717 L 780.637,-7.49884 L 780.994,-7.895 L 781.425,-8.20836 L 781.912,-8.42519 L 782.433,-8.53603
 L 782.967,-8.53603 L 783.488,-8.42519 L 783.975,-8.20836 L 784.406,-7.895 L 784.763,-7.49884 L 785.03,-7.03717
 L 785.194,-6.53017 L 785.25,-6 L 785.25,-0 L 973.95,-0 L 973.95,-6 L 974.006,-6.53017
 L 974.17,-7.03717 L 974.437,-7.49884 L 974.794,-7.895 L 975.225,-8.20836 L 975.712,-8.42519 L 976.233,-8.53603
 L 976.767,-8.53603 L 977.288,-8.42519 L 977.775,-8.20836 L 978.206,-7.895 L 978.563,-7.49884 L 978.83,-7.03717
 L 978.994,-6.53017 L 979.05,-6 L 979.05,-0 L 984,-0 z
M 6.98573,-55.607 L 6.47708,-55.6875 L 5.97964,-55.8208 L 5.49887,-56.0054 L 5.04001,-56.2392 L 4.60811,-56.5196
 L 4.20789,-56.8437 L 3.84373,-57.2079 L 3.51964,-57.6081 L 3.23917,-58.04 L 3.00537,-58.4989 L 2.82082,-58.9796
 L 2.68752,-59.4771 L 2.60696,-59.9857 L 2.58,-60.5 L 2.60696,-61.0143 L 2.68752,-61.5229 L 2.82082,-62.0204
 L 3.00537,-62.5011 L 3.23917,-62.96 L 3.51964,-63.3919 L 3.84373,-63.7921 L 4.20789,-64.1563 L 4.60811,-64.4804
 L 4.95001,-64.7024 L 4.95001,-74 L 5.00574,-74.5302 L 5.17047,-75.0372 L 5.43701,-75.4988 L 5.79373,-75.895
 L 6.22501,-76.2084 L 6.71202,-76.4252 L 7.23346,-76.536 L 7.76654,-76.536 L 8.28798,-76.4252 L 8.77499,-76.2084
 L 9.20627,-75.895 L 9.56299,-75.4988 L 9.82953,-75.0372 L 9.99426,-74.5302 L 10.05,-74 L 10.05,-64.7024
 L 10.3919,-64.4804 L 10.7921,-64.1563 L 11.1563,-63.7921 L 11.4804,-63.3919 L 11.7608,-62.96 L 11.9946,-62.5011
 L 12.1792,-62.0204 L 12.3125,-61.5229 L 12.393,-61.0143 L 12.42,-60.5 L 12.393,-59.9857 L 12.3125,-59.4771
 L 12.1792,-58.9796 L 11.9946,-58.4989 L 11.7608,-58.04 L 11.4804,-57.6081 L 11.1563,-57.2079 L 10.7921,-56.8437
 L 10.3919,-56.5196 L 9.95999,-56.2392 L 9.50113,-56.0054 L 9.02036,-55.8208 L 8.52292,-55.6875 L 8.01427,-55.607
 L 7.5,-55.58 z
M 200.786,-55.607 L 200.277,-55.6875 L 199.78,-55.8208 L 199.299,-56.0054 L 198.84,-56.2392 L 198.408,-56.5196
 L 198.008,-56.8437 L 197.644,-57.2079 L 197.32,-57.6081 L 197.039,-58.04 L 196.805,-58.4989 L 196.621,-58.9796
 L 196.488,-59.4771 L 196.407,-59.9857 L 196.38,-60.5 L 196.407,-61.0143 L 196.488,-61.5229 L 196.621,-62.0204
 L 196.805,-62.5011 L 197.039,-62.96 L 197.32,-63.3919 L 197.644,-63.7921 L 198.008,-64.1563 L 198.408,-64.4804
 L 198.75,-64.7024 L 198.75,-74 L 198.806,-74.5302 L 198.97,-75.0372 L 199.237,-75.4988 L 199.594,-75.895
 L 200.025,-76.2084 L 200.512,-76.4252 L 201.033,-76.536 L 201.567,-76.536 L 202.088,-76.4252 L 202.575,-76.2084
 L 203.006,-75.895 L 203.363,-75.4988 L 203.63,-75.0372 L 203.794,-74.5302 L 203.85,-74 L 203.85,-64.7024
 L 204.192,-64.4804 L 204.592,-64.1563 L 204.956,-63.7921 L 205.28,-63.3919 L 205.561,-62.96 L 205.795,-62.5011
 L 205.979,-62.0204 L 206.112,-61.5229 L 206.193,-61.0143 L 206.22,-60.5 L 206.193,-59.9857 L 206.112,-59.4771
 L 205.979,-58.9796 L 205.795,-58.4989 L 205.561,-58.04 L 205.28,-57.6081 L 204.956,-57.2079 L 204.592,-56.8437
 L 204.192,-56.5196 L 203.76,-56.2392 L 203.301,-56.0054 L 202.82,-55.8208 L 202.323,-55.6875 L 201.814,-55.607
 L 201.3,-55.58 z
M 394.586,-55.607 L 394.077,-55.6875 L 393.58,-55.8208 L 393.099,-56.0054 L 392.64,-56.2392 L 392.208,-56.5196
 L 391.808,-56.8437 L 391.444,-57.2079 L 391.12,-57.6081 L 390.839,-58.04 L 390.605,-58.4989 L 390.421,-58.9796
 L 390.288,-59.4771 L 390.207,-59.9857 L 390.18,-60.5 L 390.207,-61.0143 L 390.288,-61.5229 L 390.421,-62.0204
 L 390.605,-62.5011 L 390.839,-62.96 L 391.12,-63.3919 L 391.444,-63.7921 L 391.808,-64.1563 L 392.208,-64.4804
 L 392.55,-64.7024 L 392.55,-74 L 392.606,-74.5302 L 392.77,-75.0372 L 393.037,-75.4988 L 393.394,-75.895
 L 393.825,-76.2084 L 394.312,-76.4252 L 394.833,-76.536 L 395.367,-76.536 L 395.888,-76.4252 L 396.375,-76.2084
 L 396.806,-75.895 L 397.163,-75.4988 L 397.43,-75.0372 L 397.594,-74.5302 L 397.65,-74 L 397.65,-64.7024
 L 397.992,-64.4804 L 398.392,-64.1563 L 398.756,-63.7921 L 399.08,-63.3919 L 399.361,-62.96 L 399.595,-62.5011
 L 399.779,-62.0204 L 399.912,-61.5229 L 399.993,-61.0143 L 400.02,-60.5 L 399.993,-59.9857 L 399.912,-59.4771
 L 399.779,-58.9796 L 399.595,-58.4989 L 399.361,-58.04 L 399.08,-57.6081 L 398.756,-57.2079 L 398.392,-56.8437
 L 397.992,-56.5196 L 397.56,-56.2392 L 397.101,-56.0054 L 396.62,-55.8208 L 396.123,-55.6875 L 395.614,-55.607
 L 395.1,-55.58 z
M 588.386,-55.607 L 587.877,-55.6875 L 587.38,-55.8208 L 586.899,-56.0054 L 586.44,-56.2392 L 586.008,-56.5196
 L 585.608,-56.8437 L 585.244,-57.2079 L 584.92,-57.6081 L 584.639,-58.04 L 584.405,-58.4989 L 584.221,-58.9796
 L 584.088,-59.4771 L 584.007,-59.9857 L 583.98,-60.5 L 584.007,-61.0143 L 584.088,-61.5229 L 584.221,-62.0204
 L 584.405,-62.5011 L 584.639,-62.96 L 584.92,-63.3919 L 585.244,-63.7921 L 585.608,-64.1563 L 586.008,-64.4804
 L 586.35,-64.7024 L 586.35,-74 L 586.406,-74.5302 L 586.57,-75.0372 L 586.837,-75.4988 L 587.194,-75.895
 L 587.625,-76.2084 L 588.112,-76.4252 L 588.633,-76.536 L 589.167,-76.536 L 589.688,-76.4252 L 590.175,-76.2084
 L 590.606,-75.895 L 590.963,-75.4988 L 591.23,-75.0372 L 591.394,-74.5302 L 591.45,-74 L 591.45,-64.7024
 L 591.792,-64.4804 L 592.192,-64.1563 L 592.556,-63.7921 L 592.88,-63.3919 L 593.161,-62.96 L 593.395,-62.5011
 L 593.579,-62.0204 L 593.712,-61.5229 L 593.793,-61.0143 L 593.82,-60.5 L 593.793,-59.9857 L 593.712,-59.4771
 L 593.579,-58.9796 L 593.395,-58.4989 L 593.161,-58.04 L 592.88,-57.6081 L 592.556,-57.2079 L 592.192,-56.8437
 L 591.792,-56.5196 L 591.36,-56.2392 L 590.901,-56.0054 L 590.42,-55.8208 L 589.923,-55.6875 L 589.414,-55.607
 L 588.9,-55.58 z
M 782.186,-55.607 L 781.677,-55.6875 L 781.18,-55.8208 L 780.699,-56.0054 L 780.24,-56.2392 L 779.808,-56.5196
 L 779.408,-56.8437 L 779.044,-57.2079 L 778.72,-57.6081 L 778.439,-58.04 L 778.205,-58.4989 L 778.021,-58.9796
 L 777.888,-59.4771 L 777.807,-59.9857 L 777.78,-60.5 L 777.807,-61.0143 L 777.888,-61.5229 L 778.021,-62.0204
 L 778.205,-62.5011 L 778.439,-62.96 L 778.72,-63.3919 L 779.044,-63.7921 L 779.408,-64.1563 L 779.808,-64.4804
 L 780.15,-64.7024 L 780.15,-74 L 780.206,-74.5302 L 780.37,-75.0372 L 780.637,-75.4988 L 780.994,-75.895
 L 781.425,-76.2084 L 781.912,-76.4252 L 782.433,-76.536 L 782.967,-76.536 L 783.488,-76.4252 L 783.975,-76.2084
 L 784.406,-75.895 L 784.763,-75.4988 L 785.03,-75.0372 L 785.194,-74.5302 L 785.25,-74 L 785.25,-64.7024
 L 785.592,-64.4804 L 785.992,-64.1563 L 786.356,-63.7921 L 786.68,-63.3919 L 786.961,-62.96 L 787.195,-62.5011
 L 787.379,-62.0204 L 787.512,-61.5229 L 787.593,-61.0143 L 787.62,-60.5 L 787.593,-59.9857 L 787.512,-59.4771
 L 787.379,-58.9796 L 787.195,-58.4989 L 786.961,-58.04 L 786.68,-57.6081 L 786.356,-57.2079 L 785.992,-56.8437
 L 785.592,-56.5196 L 785.16,-56.2392 L 784.701,-56.0054 L 784.22,-55.8208 L 783.723,-55.6875 L 783.214,-55.607
 L 782.7,-55.58 z
M 975.986,-55.607 L 975.477,-55.6875 L 974.98,-55.8208 L 974.499,-56.0054 L 974.04,-56.2392 L 973.608,-56.5196
 L 973.208,-56.8437 L 972.844,-57.2079 L 972.52,-57.6081 L 972.239,-58.04 L 972.005,-58.4989 L 971.821,-58.9796
 L 971.688,-59.4771 L 971.607,-59.9857 L 971.58,-60.5 L 971.607,-61.0143 L 971.688,-61.5229 L 971.821,-62.0204
 L 972.005,-62.5011 L 972.239,-62.96 L 972.52,-63.3919 L 972.844,-63.7921 L 973.208,-64.1563 L 973.608,-64.4804
 L 973.95,-64.7024 L 973.95,-74 L 974.006,-74.5302 L 974.17,-75.0372 L 974.437,-75.4988 L 974.794,-75.895
 L 975.225,-76.2084 L 975.712,-76.4252 L 976.233,-76.536 L 976.767,-76.536 L 977.288,-76.4252 L 977.775,-76.2084
 L 978.206,-75.895 L 978.563,-75.4988 L 978.83,-75.0372 L 978.994,-74.5302 L 979.05,-74 L 979.05,-64.7024
 L 979.392,-64.4804 L 979.792,-64.1563 L 980.156,-63.7921 L 980.48,-63.3919 L 980.761,-62.96 L 980.995,-62.5011
 L 981.179,-62.0204 L 981.312,-61.5229 L 981.393,-61.0143 L 981.42,-60.5 L 981.393,-59.9857 L 981.312,-59.4771
 L 981.179,-58.9796 L 980.995,-58.4989 L 980.761,-58.04 L 980.48,-57.6081 L 980.156,-57.2079 L 979.792,-56.8437
 L 979.392,-56.5196 L 978.96,-56.2392 L 978.501,-56.0054 L 978.02,-55.8208 L 977.523,-55.6875 L 977.014,-55.607
 L 976.5,-55.58 z
M 491.489,-47.687 L 490.676,-47.8799 L 472.59,-54.2256 L 471.564,-54.7639 L 470.942,-55.3235 L 470.451,-56
 L 470.111,-56.7639 L 469.937,-57.5819 L 469.937,-58.4181 L 470.111,-59.2361 L 470.451,-60 L 470.942,-60.6765
 L 471.564,-61.2361 L 472.288,-61.6542 L 473.083,-61.9126 L 473.915,-62 L 510.085,-62 L 511.232,-61.832
 L 512.004,-61.5098 L 512.692,-61.0341 L 513.266,-60.4259 L 513.7,-59.7116 L 513.977,-58.9226 L 514.084,-58.0932
 L 514.016,-57.2597 L 513.776,-56.4586 L 513.375,-55.7249 L 512.83,-55.0906 L 512.165,-54.5834 L 511.41,-54.2256
 L 493.324,-47.8799 L 492.325,-47.6676 z
M 381.589,-20.3674 L 380.776,-20.5603 L 284.829,-54.2256 L 283.803,-54.7639 L 283.181,-55.3235 L 282.69,-56
 L 282.35,-56.7639 L 282.176,-57.5819 L 282.176,-58.4181 L 282.35,-59.2361 L 282.69,-60 L 283.181,-60.6765
 L 283.803,-61.2361 L 284.527,-61.6542 L 285.322,-61.9126 L 286.154,-62 L 382.1,-62 L 383.336,-61.8042
 L 384.1,-61.4641 L 384.777,-60.9726 L 385.336,-60.3511 L 385.754,-59.627 L 386.013,-58.8316 L 386.1,-58
 L 386.1,-24.3347 L 385.992,-23.4121 L 385.715,-22.6231 L 385.28,-21.9088 L 384.707,-21.3006 L 384.019,-20.8249
 L 383.247,-20.5027 L 382.425,-20.3479 z
M 794.553,-20.5027 L 793.781,-20.8249 L 793.093,-21.3006 L 792.52,-21.9088 L 792.085,-22.6231 L 791.808,-23.4121
 L 791.7,-24.3347 L 791.7,-58 L 791.787,-58.8316 L 792.046,-59.627 L 792.464,-60.3511 L 793.023,-60.9726
 L 793.7,-61.4641 L 794.464,-61.8042 L 795.7,-62 L 891.646,-62 L 892.478,-61.9126 L 893.273,-61.6542
 L 893.997,-61.2361 L 894.619,-60.6765 L 895.11,-60 L 895.45,-59.2361 L 895.624,-58.4181 L 895.624,-57.5819
 L 895.45,-56.7639 L 895.11,-56 L 894.619,-55.3235 L 893.997,-54.7639 L 892.971,-54.2256 L 797.024,-20.5603
 L 796.211,-20.3674 L 795.375,-20.3479 z
M 187.789,-20.3674 L 186.976,-20.5603 L 91.0295,-54.2256 L 90.0027,-54.7639 L 89.3812,-55.3235 L 88.8897,-56
 L 88.5496,-56.7639 L 88.3757,-57.5819 L 88.3757,-58.4181 L 88.5496,-59.2361 L 88.8897,-60 L 89.3812,-60.6765
 L 90.0027,-61.2361 L 90.7269,-61.6542 L 91.5222,-61.9126 L 92.3538,-62 L 188.3,-62 L 189.536,-61.8042
 L 190.3,-61.4641 L 190.977,-60.9726 L 191.536,-60.3511 L 191.954,-59.627 L 192.213,-58.8316 L 192.3,-58
 L 192.3,-24.3347 L 192.192,-23.4121 L 191.915,-22.6231 L 191.48,-21.9088 L 190.907,-21.3006 L 190.219,-20.8249
 L 189.447,-20.5027 L 188.625,-20.3479 z
M 600.753,-20.5027 L 599.981,-20.8249 L 599.293,-21.3006 L 598.72,-21.9088 L 598.285,-22.6231 L 598.008,-23.4121
 L 597.9,-24.3347 L 597.9,-58 L 597.987,-58.8316 L 598.246,-59.627 L 598.664,-60.3511 L 599.223,-60.9726
 L 599.9,-61.4641 L 600.664,-61.8042 L 601.9,-62 L 697.846,-62 L 698.678,-61.9126 L 699.473,-61.6542
 L 700.197,-61.2361 L 700.819,-60.6765 L 701.31,-60 L 701.65,-59.2361 L 701.824,-58.4181 L 701.824,-57.5819
 L 701.65,-56.7639 L 701.31,-56 L 700.819,-55.3235 L 700.197,-54.7639 L 699.171,-54.2256 L 603.224,-20.5603
 L 602.411,-20.3674 L 601.575,-20.3479 z
M 407.682,-18.2376 L 406.864,-18.4115 L 406.1,-18.7516 L 405.423,-19.2431 L 404.864,-19.8646 L 404.446,-20.5888
 L 404.187,-21.3841 L 404.1,-22.2157 L 404.1,-57.7843 L 404.208,-58.7068 L 404.485,-59.4959 L 404.92,-60.2102
 L 405.493,-60.8184 L 406.181,-61.294 L 406.953,-61.6163 L 407.775,-61.771 L 408.611,-61.7515 L 409.424,-61.5587
 L 460.11,-43.7744 L 460.704,-43.5098 L 461.392,-43.0341 L 461.966,-42.4259 L 462.4,-41.7116 L 462.677,-40.9226
 L 462.784,-40.0932 L 462.716,-39.2597 L 462.476,-38.4586 L 462.075,-37.7249 L 461.53,-37.0906 L 460.865,-36.5834
 L 460.11,-36.2256 L 409.424,-18.4413 L 408.518,-18.2376 z
M 575.389,-18.2484 L 574.576,-18.4413 L 523.89,-36.2256 L 523.296,-36.4902 L 522.608,-36.9659 L 522.034,-37.5741
 L 521.599,-38.2884 L 521.323,-39.0774 L 521.216,-39.9068 L 521.284,-40.7403 L 521.524,-41.5414 L 521.925,-42.2751
 L 522.47,-42.9094 L 523.135,-43.4166 L 523.89,-43.7744 L 574.576,-61.5587 L 575.482,-61.7624 L 576.318,-61.7624
 L 577.136,-61.5885 L 577.9,-61.2484 L 578.577,-60.7569 L 579.136,-60.1354 L 579.554,-59.4112 L 579.813,-58.6159
 L 579.9,-57.7843 L 579.9,-22.2157 L 579.792,-21.2932 L 579.515,-20.5041 L 579.08,-19.7898 L 578.507,-19.1816
 L 577.819,-18.706 L 577.047,-18.3837 L 576.225,-18.229 z
M 214.3,-18 L 213.064,-18.1958 L 212.3,-18.5359 L 211.623,-19.0274 L 211.064,-19.6489 L 210.646,-20.373
 L 210.387,-21.1684 L 210.3,-22 L 210.3,-55.6653 L 210.408,-56.5879 L 210.685,-57.3769 L 211.12,-58.0912
 L 211.693,-58.6994 L 212.381,-59.1751 L 213.153,-59.4973 L 213.975,-59.6521 L 214.811,-59.6326 L 215.624,-59.4397
 L 311.57,-25.7744 L 312.597,-25.2361 L 313.219,-24.6765 L 313.71,-24 L 314.05,-23.2361 L 314.224,-22.4181
 L 314.224,-21.5819 L 314.05,-20.7639 L 313.71,-20 L 313.219,-19.3235 L 312.597,-18.7639 L 311.873,-18.3458
 L 311.078,-18.0874 L 310.246,-18 z
M 673.754,-18 L 672.922,-18.0874 L 672.127,-18.3458 L 671.403,-18.7639 L 670.781,-19.3235 L 670.29,-20
 L 669.95,-20.7639 L 669.776,-21.5819 L 669.776,-22.4181 L 669.95,-23.2361 L 670.29,-24 L 670.781,-24.6765
 L 671.403,-25.2361 L 672.429,-25.7744 L 768.376,-59.4397 L 769.189,-59.6326 L 770.025,-59.6521 L 770.847,-59.4973
 L 771.619,-59.1751 L 772.307,-58.6994 L 772.88,-58.0912 L 773.315,-57.3769 L 773.592,-56.5879 L 773.7,-55.6653
 L 773.7,-22 L 773.613,-21.1684 L 773.354,-20.373 L 772.936,-19.6489 L 772.377,-19.0274 L 771.7,-18.5359
 L 770.936,-18.1958 L 769.7,-18 z
M 22,-18 L 20.7639,-18.1958 L 20,-18.5359 L 19.3235,-19.0274 L 18.7639,-19.6489 L 18.3458,-20.373
 L 18.0874,-21.1684 L 18,-22 L 18,-55.139 L 18.1078,-56.0616 L 18.3847,-56.8506 L 18.8196,-57.5649
 L 19.3934,-58.1731 L 20.0812,-58.6487 L 20.8529,-58.971 L 21.6747,-59.1257 L 22.5107,-59.1063 L 23.3244,-58.9134
 L 117.771,-25.7744 L 118.797,-25.2361 L 119.419,-24.6765 L 119.91,-24 L 120.25,-23.2361 L 120.424,-22.4181
 L 120.424,-21.5819 L 120.25,-20.7639 L 119.91,-20 L 119.419,-19.3235 L 118.797,-18.7639 L 118.073,-18.3458
 L 117.278,-18.0874 L 116.446,-18 z
M 867.554,-18 L 866.722,-18.0874 L 865.927,-18.3458 L 865.203,-18.7639 L 864.581,-19.3235 L 864.09,-20
 L 863.75,-20.7639 L 863.576,-21.5819 L 863.576,-22.4181 L 863.75,-23.2361 L 864.09,-24 L 864.581,-24.6765
 L 865.203,-25.2361 L 866.229,-25.7744 L 960.676,-58.9134 L 961.489,-59.1063 L 962.325,-59.1257 L 963.147,-58.971
 L 963.919,-58.6487 L 964.607,-58.1731 L 965.18,-57.5649 L 965.615,-56.8506 L 965.892,-56.0616 L 966,-55.139
 L 966,-22 L 965.913,-21.1684 L 965.654,-20.373 L 965.236,-19.6489 L 964.677,-19.0274 L 964,-18.5359
 L 963.236,-18.1958 L 962,-18 z
M 473.915,-18 L 472.768,-18.168 L 471.996,-18.4902 L 471.308,-18.9659 L 470.734,-19.5741 L 470.299,-20.2884
 L 470.023,-21.0774 L 469.916,-21.9068 L 469.984,-22.7403 L 470.224,-23.5414 L 470.625,-24.2751 L 471.17,-24.9094
 L 471.835,-25.4166 L 472.59,-25.7744 L 490.676,-32.1201 L 491.675,-32.3324 L 492.511,-32.313 L 493.324,-32.1201
 L 511.41,-25.7744 L 512.436,-25.2361 L 513.058,-24.6765 L 513.549,-24 L 513.889,-23.2361 L 514.063,-22.4181
 L 514.063,-21.5819 L 513.889,-20.7639 L 513.549,-20 L 513.058,-19.3235 L 512.436,-18.7639 L 511.712,-18.3458
 L 510.917,-18.0874 L 510.085,-18 z
" stroke="black" fill="lightgray" stroke-width="0.5"/>
</svg>
