<?xml version="1.0" standalone="no"?>
<!DOCTYPE svg PUBLIC "-//W3C//DTD SVG 1.1//EN" "http://www.w3.org/Graphics/SVG/1.1/DTD/svg11.dtd">
<svg width="847mm" height="80mm" viewBox="0 -80 847 80" xmlns="http://www.w3.org/2000/svg" version="1.1">
<title>OpenSCAD Model</title>
<path d="
M 847,-80 L 0,-80 L 0,-0 L 4.95,-0 L 4.95,-6 L 5.00572,-6.53017
 L 5.17046,-7.03717 L 5.437,-7.49884 L 5.79372,-7.895 L 6.22499,-8.20836 L 6.71201,-8.42519 L 7.23344,-8.53603
 L 7.76654,-8.53603 L 8.28798,-8.42519 L 8.77499,-8.20836 L 9.20627,-7.895 L 9.56299,-7.49884 L 9.82953,-7.03717
 L 9.99426,-6.53017 L 10.05,-6 L 10.05,-0 L 171.35,-0 L 171.35,-6 L 171.406,-6.53017
 L 171.57,-7.03717 L 171.837,-7.49884 L 172.194,-7.895 L 172.625,-8.20836 L 173.112,-8.42519 L 173.633,-8.53603
 L 174.167,-8.53603 L 174.688,-8.42519 L 175.175,-8.20836 L 175.606,-7.895 L 175.963,-7.49884 L 176.23,-7.03717
 L 176.394,-6.53017 L 176.45,-6 L 176.45,-0 L 337.75,-0 L 337.75,-6 L 337.806,-6.53017
 L 337.97,-7.03717 L 338.237,-7.49884 L 338.594,-7.895 L 339.025,-8.20836 L 339.512,-8.42519 L 340.033,-8.53603
 L 340.567,-8.53603 L 341.088,-8.42519 L 341.575,-8.20836 L 342.006,-7.895 L 342.363,-7.49884 L 342.63,-7.03717
 L 342.794,-6.53017 L 342.85,-6 L 342.85,-0 L 504.15,-0 L 504.15,-6 L 504.206,-6.53017
 L 504.37,-7.03717 L 504.637,-7.49884 L 504.994,-7.895 L 505.425,-8.20836 L 505.912,-8.42519 L 506.433,-8.53603
 L 506.967,-8.53603 L 507.488,-8.42519 L 507.975,-8.20836 L 508.406,-7.895 L 508.763,-7.49884 L 509.03,-7.03717
 L 509.194,-6.53017 L 509.25,-6 L 509.25,-0 L 670.55,-0 L 670.55,-6 L 670.606,-6.53017
 L 670.77,-7.03717 L 671.037,-7.49884 L 671.394,-7.895 L 671.825,-8.20836 L 672.312,-8.42519 L 672.833,-8.53603
 L 673.367,-8.53603 L 673.888,-8.42519 L 674.375,-8.20836 L 674.806,-7.895 L 675.163,-7.49884 L 675.43,-7.03717
 L 675.594,-6.53017 L 675.65,-6 L 675.65,-0 L 836.95,-0 L 836.95,-6 L 837.006,-6.53017
 L 837.17,-7.03717 L 837.437,-7.49884 L 837.794,-7.895 L 838.225,-8.20836 L 838.712,-8.42519 L 839.233,-8.53603
 L 839.767,-8.53603 L 840.288,-8.42519 L 840.775,-8.20836 L 841.206,-7.895 L 841.563,-7.49884 L 841.83,-7.03717
 L 841.994,-6.53017 L 842.05,-6 L 842.05,-0 L 847,-0 z
M 6.98573,-55.607 L 6.47708,-55.6875 L 5.97964,-55.8208 L 5.49887,-56.0054 L 5.04001,-56.2392 L 4.60811,-56.5196
 L 4.20789,-56.8437 L 3.84373,-57.2079 L 3.51964,-57.6081 L 3.23917,-58.04 L 3.00537,-58.4989 L 2.82082,-58.9796
 L 2.68752,-59.4771 L 2.60696,-59.9857 L 2.58,-60.5 L 2.60696,-61.0143 L 2.68752,-61.5229 L 2.82082,-62.0204
 L 3.00537,-62.5011 L 3.23917,-62.96 L 3.51964,-63.3919 L 3.84373,-63.7921 L 4.20789,-64.1563 L 4.60811,-64.4804
 L 4.95001,-64.7024 L 4.95001,-74 L 5.00574,-74.5302 L 5.17047,-75.0372 L 5.43701,-75.4988 L 5.79373,-75.895
 L 6.22501,-76.2084 L 6.71202,-76.4252 L 7.23346,-76.536 L 7.76654,-76.536 L 8.28798,-76.4252 L 8.77499,-76.2084
 L 9.20627,-75.895 L 9.56299,-75.4988 L 9.82953,-75.0372 L 9.99426,-74.5302 L 10.05,-74 L 10.05,-64.7024
 L 10.3919,-64.4804 L 10.7921,-64.1563 L 11.1563,-63.7921 L 11.4804,-63.3919 L 11.7608,-62.96 L 11.9946,-62.5011
 L 12.1792,-62.0204 L 12.3125,-61.5229 L 12.393,-61.0143 L 12.42,-60.5 L 12.393,-59.9857 L 12.3125,-59.4771
 L 12.1792,-58.9796 L 11.9946,-58.4989 L 11.7608,-58.04 L 11.4804,-57.6081 L 11.1563,-57.2079 L 10.7921,-56.8437
 L 10.3919,-56.5196 L 9.95999,-56.2392 L 9.50113,-56.0054 L 9.02036,-55.8208 L 8.52292,-55.6875 L 8.01427,-55.607
 L 7.5,-55.58 z
M 173.386,-55.607 L 172.877,-55.6875 L 172.38,-55.8208 L 171.899,-56.0054 L 171.44,-56.2392 L 171.008,-56.5196
 L 170.608,-56.8437 L 170.244,-57.2079 L 169.92,-57.6081 L 169.639,-58.04 L 169.405,-58.4989 L 169.221,-58.9796
 L 169.088,-59.4771 L 169.007,-59.9857 L 168.98,-60.5 L 169.007,-61.0143 L 169.088,-61.5229 L 169.221,-62.0204
 L 169.405,-62.5011 L 169.639,-62.96 L 169.92,-63.3919 L 170.244,-63.7921 L 170.608,-64.1563 L 171.008,-64.4804
 L 171.35,-64.7024 L 171.35,-74 L 171.406,-74.5302 L 171.57,-75.0372 L 171.837,-75.4988 L 172.194,-75.895
 L 172.625,-76.2084 L 173.112,-76.4252 L 173.633,-76.536 L 174.167,-76.536 L 174.688,-76.4252 L 175.175,-76.2084
 L 175.606,-75.895 L 175.963,-75.4988 L 176.23,-75.0372 L 176.394,-74.5302 L 176.45,-74 L 176.45,-64.7024
 L 176.792,-64.4804 L 177.192,-64.1563 L 177.556,-63.7921 L 177.88,-63.3919 L 178.161,-62.96 L 178.395,-62.5011
 L 178.579,-62.0204 L 178.712,-61.5229 L 178.793,-61.0143 L 178.82,-60.5 L 178.793,-59.9857 L 178.712,-59.4771
 L 178.579,-58.9796 L 178.395,-58.4989 L 178.161,-58.04 L 177.88,-57.6081 L 177.556,-57.2079 L 177.192,-56.8437
 L 176.792,-56.5196 L 176.36,-56.2392 L 175.901,-56.0054 L 175.42,-55.8208 L 174.923,-55.6875 L 174.414,-55.607
 L 173.9,-55.58 z
M 339.786,-55.607 L 339.277,-55.6875 L 338.78,-55.8208 L 338.299,-56.0054 L 337.84,-56.2392 L 337.408,-56.5196
 L 337.008,-56.8437 L 336.644,-57.2079 L 336.32,-57.6081 L 336.039,-58.04 L 335.805,-58.4989 L 335.621,-58.9796
 L 335.488,-59.4771 L 335.407,-59.9857 L 335.38,-60.5 L 335.407,-61.0143 L 335.488,-61.5229 L 335.621,-62.0204
 L 335.805,-62.5011 L 336.039,-62.96 L 336.32,-63.3919 L 336.644,-63.7921 L 337.008,-64.1563 L 337.408,-64.4804
 L 337.75,-64.7024 L 337.75,-74 L 337.806,-74.5302 L 337.97,-75.0372 L 338.237,-75.4988 L 338.594,-75.895
 L 339.025,-76.2084 L 339.512,-76.4252 L 340.033,-76.536 L 340.567,-76.536 L 341.088,-76.4252 L 341.575,-76.2084
 L 342.006,-75.895 L 342.363,-75.4988 L 342.63,-75.0372 L 342.794,-74.5302 L 342.85,-74 L 342.85,-64.7024
 L 343.192,-64.4804 L 343.592,-64.1563 L 343.956,-63.7921 L 344.28,-63.3919 L 344.561,-62.96 L 344.795,-62.5011
 L 344.979,-62.0204 L 345.112,-61.5229 L 345.193,-61.0143 L 345.22,-60.5 L 345.193,-59.9857 L 345.112,-59.4771
 L 344.979,-58.9796 L 344.795,-58.4989 L 344.561,-58.04 L 344.28,-57.6081 L 343.956,-57.2079 L 343.592,-56.8437
 L 343.192,-56.5196 L 342.76,-56.2392 L 342.301,-56.0054 L 341.82,-55.8208 L 341.323,-55.6875 L 340.814,-55.607
 L 340.3,-55.58 z
M 506.186,-55.607 L 505.677,-55.6875 L 505.18,-55.8208 L 504.699,-56.0054 L 504.24,-56.2392 L 503.808,-56.5196
 L 503.408,-56.8437 L 503.044,-57.2079 L 502.72,-57.6081 L 502.439,-58.04 L 502.205,-58.4989 L 502.021,-58.9796
 L 501.888,-59.4771 L 501.807,-59.9857 L 501.78,-60.5 L 501.807,-61.0143 L 501.888,-61.5229 L 502.021,-62.0204
 L 502.205,-62.5011 L 502.439,-62.96 L 502.72,-63.3919 L 503.044,-63.7921 L 503.408,-64.1563 L 503.808,-64.4804
 L 504.15,-64.7024 L 504.15,-74 L 504.206,-74.5302 L 504.37,-75.0372 L 504.637,-75.4988 L 504.994,-75.895
 L 505.425,-76.2084 L 505.912,-76.4252 L 506.433,-76.536 L 506.967,-76.536 L 507.488,-76.4252 L 507.975,-76.2084
 L 508.406,-75.895 L 508.763,-75.4988 L 509.03,-75.0372 L 509.194,-74.5302 L 509.25,-74 L 509.25,-64.7024
 L 509.592,-64.4804 L 509.992,-64.1563 L 510.356,-63.7921 L 510.68,-63.3919 L 510.961,-62.96 L 511.195,-62.5011
 L 511.379,-62.0204 L 511.512,-61.5229 L 511.593,-61.0143 L 511.62,-60.5 L 511.593,-59.9857 L 511.512,-59.4771
 L 511.379,-58.9796 L 511.195,-58.4989 L 510.961,-58.04 L 510.68,-57.6081 L 510.356,-57.2079 L 509.992,-56.8437
 L 509.592,-56.5196 L 509.16,-56.2392 L 508.701,-56.0054 L 508.22,-55.8208 L 507.723,-55.6875 L 507.214,-55.607
 L 506.7,-55.58 z
M 672.586,-55.607 L 672.077,-55.6875 L 671.58,-55.8208 L 671.099,-56.0054 L 670.64,-56.2392 L 670.208,-56.5196
 L 669.808,-56.8437 L 669.444,-57.2079 L 669.12,-57.6081 L 668.839,-58.04 L 668.605,-58.4989 L 668.421,-58.9796
 L 668.288,-59.4771 L 668.207,-59.9857 L 668.18,-60.5 L 668.207,-61.0143 L 668.288,-61.5229 L 668.421,-62.0204
 L 668.605,-62.5011 L 668.839,-62.96 L 669.12,-63.3919 L 669.444,-63.7921 L 669.808,-64.1563 L 670.208,-64.4804
 L 670.55,-64.7024 L 670.55,-74 L 670.606,-74.5302 L 670.77,-75.0372 L 671.037,-75.4988 L 671.394,-75.895
 L 671.825,-76.2084 L 672.312,-76.4252 L 672.833,-76.536 L 673.367,-76.536 L 673.888,-76.4252 L 674.375,-76.2084
 L 674.806,-75.895 L 675.163,-75.4988 L 675.43,-75.0372 L 675.594,-74.5302 L 675.65,-74 L 675.65,-64.7024
 L 675.992,-64.4804 L 676.392,-64.1563 L 676.756,-63.7921 L 677.08,-63.3919 L 677.361,-62.96 L 677.595,-62.5011
 L 677.779,-62.0204 L 677.912,-61.5229 L 677.993,-61.0143 L 678.02,-60.5 L 677.993,-59.9857 L 677.912,-59.4771
 L 677.779,-58.9796 L 677.595,-58.4989 L 677.361,-58.04 L 677.08,-57.6081 L 676.756,-57.2079 L 676.392,-56.8437
 L 675.992,-56.5196 L 675.56,-56.2392 L 675.101,-56.0054 L 674.62,-55.8208 L 674.123,-55.6875 L 673.614,-55.607
 L 673.1,-55.58 z
M 838.986,-55.607 L 838.477,-55.6875 L 837.98,-55.8208 L 837.499,-56.0054 L 837.04,-56.2392 L 836.608,-56.5196
 L 836.208,-56.8437 L 835.844,-57.2079 L 835.52,-57.6081 L 835.239,-58.04 L 835.005,-58.4989 L 834.821,-58.9796
 L 834.688,-59.4771 L 834.607,-59.9857 L 834.58,-60.5 L 834.607,-61.0143 L 834.688,-61.5229 L 834.821,-62.0204
 L 835.005,-62.5011 L 835.239,-62.96 L 835.52,-63.3919 L 835.844,-63.7921 L 836.208,-64.1563 L 836.608,-64.4804
 L 836.95,-64.7024 L 836.95,-74 L 837.006,-74.5302 L 837.17,-75.0372 L 837.437,-75.4988 L 837.794,-75.895
 L 838.225,-76.2084 L 838.712,-76.4252 L 839.233,-76.536 L 839.767,-76.536 L 840.288,-76.4252 L 840.775,-76.2084
 L 841.206,-75.895 L 841.563,-75.4988 L 841.83,-75.0372 L 841.994,-74.5302 L 842.05,-74 L 842.05,-64.7024
 L 842.392,-64.4804 L 842.792,-64.1563 L 843.156,-63.7921 L 843.48,-63.3919 L 843.761,-62.96 L 843.995,-62.5011
 L 844.179,-62.0204 L 844.312,-61.5229 L 844.393,-61.0143 L 844.42,-60.5 L 844.393,-59.9857 L 844.312,-59.4771
 L 844.179,-58.9796 L 843.995,-58.4989 L 843.761,-58.04 L 843.48,-57.6081 L 843.156,-57.2079 L 842.792,-56.8437
 L 842.392,-56.5196 L 841.96,-56.2392 L 841.501,-56.0054 L 841.02,-55.8208 L 840.523,-55.6875 L 840.014,-55.607
 L 839.5,-55.58 z
M 422.79,-47.9409 L 421.987,-48.1746 L 407.004,-54.2972 L 406.166,-54.7639 L 405.545,-55.3235 L 405.053,-56
 L 404.713,-56.7639 L 404.539,-57.5819 L 404.539,-58.4181 L 404.713,-59.2361 L 405.053,-60 L 405.545,-60.6765
 L 406.166,-61.2361 L 406.891,-61.6542 L 407.686,-61.9126 L 408.518,-62 L 438.482,-62 L 439.435,-61.885
 L 440.222,-61.6021 L 440.933,-61.1618 L 441.536,-60.5833 L 442.007,-59.8919 L 442.323,-59.1178 L 442.472,-58.2949
 L 442.446,-57.459 L 442.247,-56.6469 L 441.883,-55.8938 L 441.371,-55.2328 L 440.732,-54.6928 L 439.996,-54.2972
 L 425.013,-48.1746 L 424.452,-47.9924 L 423.624,-47.8793 z
M 326.59,-21.4129 L 325.787,-21.6466 L 245.889,-54.2972 L 245.051,-54.7639 L 244.429,-55.3235 L 243.938,-56
 L 243.598,-56.7639 L 243.424,-57.5819 L 243.424,-58.4181 L 243.598,-59.2361 L 243.938,-60 L 244.429,-60.6765
 L 245.051,-61.2361 L 245.775,-61.6542 L 246.57,-61.9126 L 247.402,-62 L 327.3,-62 L 328.536,-61.8042
 L 329.3,-61.4641 L 329.977,-60.9726 L 330.536,-60.3511 L 330.954,-59.627 L 331.213,-58.8316 L 331.3,-58
 L 331.3,-25.3494 L 331.141,-24.2316 L 330.824,-23.4575 L 330.354,-22.7661 L 329.75,-22.1876 L 329.039,-21.7473
 L 328.252,-21.4644 L 327.424,-21.3513 z
M 685.148,-21.4644 L 684.361,-21.7473 L 683.65,-22.1876 L 683.046,-22.7661 L 682.576,-23.4575 L 682.259,-24.2316
 L 682.1,-25.3494 L 682.1,-58 L 682.187,-58.8316 L 682.446,-59.627 L 682.864,-60.3511 L 683.423,-60.9726
 L 684.1,-61.4641 L 684.864,-61.8042 L 686.1,-62 L 765.998,-62 L 766.83,-61.9126 L 767.625,-61.6542
 L 768.349,-61.2361 L 768.971,-60.6765 L 769.462,-60 L 769.802,-59.2361 L 769.976,-58.4181 L 769.976,-57.5819
 L 769.802,-56.7639 L 769.462,-56 L 768.971,-55.3235 L 768.349,-54.7639 L 767.511,-54.2972 L 687.613,-21.6466
 L 686.81,-21.4129 L 685.976,-21.3513 z
M 160.19,-21.4129 L 159.387,-21.6466 L 79.4888,-54.2972 L 78.6508,-54.7639 L 78.0294,-55.3235 L 77.5379,-56
 L 77.1978,-56.7639 L 77.0239,-57.5819 L 77.0239,-58.4181 L 77.1978,-59.2361 L 77.5379,-60 L 78.0294,-60.6765
 L 78.6508,-61.2361 L 79.375,-61.6542 L 80.1703,-61.9126 L 81.002,-62 L 160.9,-62 L 162.136,-61.8042
 L 162.9,-61.4641 L 163.577,-60.9726 L 164.136,-60.3511 L 164.554,-59.627 L 164.813,-58.8316 L 164.9,-58
 L 164.9,-25.3494 L 164.741,-24.2316 L 164.424,-23.4575 L 163.954,-22.7661 L 163.35,-22.1876 L 162.639,-21.7473
 L 161.852,-21.4644 L 161.024,-21.3513 z
M 518.748,-21.4644 L 517.961,-21.7473 L 517.25,-22.1876 L 516.646,-22.7661 L 516.176,-23.4575 L 515.859,-24.2316
 L 515.7,-25.3494 L 515.7,-58 L 515.787,-58.8316 L 516.046,-59.627 L 516.464,-60.3511 L 517.023,-60.9726
 L 517.7,-61.4641 L 518.464,-61.8042 L 519.7,-62 L 599.598,-62 L 600.43,-61.9126 L 601.225,-61.6542
 L 601.949,-61.2361 L 602.571,-60.6765 L 603.062,-60 L 603.402,-59.2361 L 603.576,-58.4181 L 603.576,-57.5819
 L 603.402,-56.7639 L 603.062,-56 L 602.571,-55.3235 L 601.949,-54.7639 L 601.111,-54.2972 L 521.213,-21.6466
 L 520.41,-21.4129 L 519.576,-21.3513 z
M 352.882,-19.2118 L 352.064,-19.3856 L 351.3,-19.7258 L 350.623,-20.2173 L 350.064,-20.8387 L 349.646,-21.5629
 L 349.387,-22.3582 L 349.3,-23.1899 L 349.3,-56.8101 L 349.459,-57.9279 L 349.776,-58.702 L 350.246,-59.3934
 L 350.85,-59.9719 L 351.561,-60.4122 L 352.348,-60.6951 L 353.176,-60.8082 L 354.01,-60.7466 L 354.813,-60.5129
 L 395.949,-43.7028 L 396.885,-43.1618 L 397.489,-42.5833 L 397.96,-41.8919 L 398.276,-41.1178 L 398.424,-40.2949
 L 398.399,-39.459 L 398.2,-38.6469 L 397.836,-37.8938 L 397.324,-37.2328 L 396.685,-36.6928 L 395.949,-36.2972
 L 354.813,-19.4871 L 353.718,-19.2118 z
M 492.99,-19.2534 L 492.187,-19.4871 L 451.051,-36.2972 L 450.114,-36.8382 L 449.511,-37.4167 L 449.04,-38.1081
 L 448.724,-38.8822 L 448.575,-39.7051 L 448.601,-40.541 L 448.8,-41.3531 L 449.164,-42.1062 L 449.676,-42.7672
 L 450.315,-43.3072 L 451.051,-43.7028 L 492.187,-60.5129 L 493.282,-60.7882 L 494.118,-60.7882 L 494.936,-60.6144
 L 495.7,-60.2742 L 496.377,-59.7827 L 496.936,-59.1613 L 497.354,-58.4371 L 497.613,-57.6418 L 497.7,-56.8102
 L 497.7,-23.1898 L 497.541,-22.072 L 497.224,-21.2979 L 496.754,-20.6066 L 496.15,-20.028 L 495.439,-19.5877
 L 494.652,-19.3049 L 493.824,-19.1918 z
M 186.9,-18 L 185.664,-18.1958 L 184.9,-18.5359 L 184.223,-19.0274 L 183.664,-19.6489 L 183.246,-20.373
 L 182.987,-21.1684 L 182.9,-22 L 182.9,-54.6506 L 183.059,-55.7684 L 183.376,-56.5425 L 183.846,-57.2339
 L 184.45,-57.8124 L 185.161,-58.2527 L 185.948,-58.5356 L 186.776,-58.6487 L 187.61,-58.5871 L 188.413,-58.3534
 L 268.311,-25.7028 L 269.149,-25.2361 L 269.771,-24.6765 L 270.262,-24 L 270.602,-23.2361 L 270.776,-22.4181
 L 270.776,-21.5819 L 270.602,-20.7639 L 270.262,-20 L 269.771,-19.3235 L 269.149,-18.7639 L 268.425,-18.3458
 L 267.63,-18.0874 L 266.798,-18 z
M 580.202,-18 L 579.37,-18.0874 L 578.575,-18.3458 L 577.851,-18.7639 L 577.229,-19.3235 L 576.738,-20
 L 576.398,-20.7639 L 576.224,-21.5819 L 576.224,-22.4181 L 576.398,-23.2361 L 576.738,-24 L 577.229,-24.6765
 L 577.851,-25.2361 L 578.689,-25.7028 L 658.587,-58.3534 L 659.39,-58.5871 L 660.224,-58.6487 L 661.052,-58.5356
 L 661.839,-58.2527 L 662.55,-57.8124 L 663.154,-57.2339 L 663.624,-56.5425 L 663.941,-55.7684 L 664.1,-54.6506
 L 664.1,-22 L 664.013,-21.1684 L 663.754,-20.373 L 663.336,-19.6489 L 662.777,-19.0274 L 662.1,-18.5359
 L 661.336,-18.1958 L 660.1,-18 z
M 22,-18 L 20.7639,-18.1958 L 20,-18.5359 L 19.3235,-19.0274 L 18.7639,-19.6489 L 18.3458,-20.373
 L 18.0874,-21.1684 L 18,-22 L 18,-54.0376 L 18.1594,-55.1555 L 18.4757,-55.9295 L 18.9461,-56.6209
 L 19.5499,-57.1994 L 20.2608,-57.6398 L 21.0477,-57.9226 L 21.8763,-58.0357 L 22.7102,-57.9741 L 23.5131,-57.7404
 L 101.911,-25.7028 L 102.749,-25.2361 L 103.371,-24.6765 L 103.862,-24 L 104.202,-23.2361 L 104.376,-22.4181
 L 104.376,-21.5819 L 104.202,-20.7639 L 103.862,-20 L 103.371,-19.3235 L 102.749,-18.7639 L 102.025,-18.3458
 L 101.23,-18.0874 L 100.398,-18 z
M 746.602,-18 L 745.77,-18.0874 L 744.975,-18.3458 L 744.251,-18.7639 L 743.629,-19.3235 L 743.138,-20
 L 742.798,-20.7639 L 742.624,-21.5819 L 742.624,-22.4181 L 742.798,-23.2361 L 743.138,-24 L 743.629,-24.6765
 L 744.251,-25.2361 L 745.089,-25.7028 L 823.487,-57.7404 L 824.29,-57.9741 L 825.124,-58.0357 L 825.952,-57.9226
 L 826.739,-57.6398 L 827.45,-57.1994 L 828.054,-56.6209 L 828.524,-55.9295 L 828.841,-55.1555 L 829,-54.0376
 L 829,-22 L 828.913,-21.1684 L 828.654,-20.373 L 828.236,-19.6489 L 827.677,-19.0274 L 827,-18.5359
 L 826.236,-18.1958 L 825,-18 z
M 408.518,-18 L 407.565,-18.115 L 406.778,-18.3979 L 406.067,-18.8382 L 405.464,-19.4167 L 404.993,-20.1081
 L 404.677,-20.8822 L 404.528,-21.7051 L 404.554,-22.541 L 404.753,-23.3531 L 405.117,-24.1062 L 405.629,-24.7672
 L 406.268,-25.3072 L 407.004,-25.7028 L 421.987,-31.8254 L 422.548,-32.0076 L 423.376,-32.1207 L 424.21,-32.0591
 L 425.013,-31.8254 L 439.996,-25.7028 L 440.834,-25.2361 L 441.455,-24.6765 L 441.947,-24 L 442.287,-23.2361
 L 442.461,-22.4181 L 442.461,-21.5819 L 442.287,-20.7639 L 441.947,-20 L 441.455,-19.3235 L 440.834,-18.7639
 L 440.109,-18.3458 L 439.314,-18.0874 L 438.482,-18 z
" stroke="black" fill="lightgray" stroke-width="0.5"/>
</svg>
