<?xml version="1.0" standalone="no"?>
<!DOCTYPE svg PUBLIC "-//W3C//DTD SVG 1.1//EN" "http://www.w3.org/Graphics/SVG/1.1/DTD/svg11.dtd">
<svg width="677mm" height="80mm" viewBox="0 -80 677 80" xmlns="http://www.w3.org/2000/svg" version="1.1">
<title>OpenSCAD Model</title>
<path d="
M 677,-80 L 0,-80 L 0,-0 L 4.95,-0 L 4.95,-6 L 5.00572,-6.53017
 L 5.17046,-7.03717 L 5.437,-7.49884 L 5.79372,-7.895 L 6.22499,-8.20836 L 6.71201,-8.42519 L 7.23344,-8.53603
 L 7.76654,-8.53603 L 8.28798,-8.42519 L 8.77499,-8.20836 L 9.20627,-7.895 L 9.56299,-7.49884 L 9.82953,-7.03717
 L 9.99426,-6.53017 L 10.05,-6 L 10.05,-0 L 137.35,-0 L 137.35,-6 L 137.406,-6.53017
 L 137.57,-7.03717 L 137.837,-7.49884 L 138.194,-7.895 L 138.625,-8.20836 L 139.112,-8.42519 L 139.633,-8.53603
 L 140.167,-8.53603 L 140.688,-8.42519 L 141.175,-8.20836 L 141.606,-7.895 L 141.963,-7.49884 L 142.23,-7.03717
 L 142.394,-6.53017 L 142.45,-6 L 142.45,-0 L 269.75,-0 L 269.75,-6 L 269.806,-6.53017
 L 269.97,-7.03717 L 270.237,-7.49884 L 270.594,-7.895 L 271.025,-8.20836 L 271.512,-8.42519 L 272.033,-8.53603
 L 272.567,-8.53603 L 273.088,-8.42519 L 273.575,-8.20836 L 274.006,-7.895 L 274.363,-7.49884 L 274.63,-7.03717
 L 274.794,-6.53017 L 274.85,-6 L 274.85,-0 L 402.15,-0 L 402.15,-6 L 402.206,-6.53017
 L 402.37,-7.03717 L 402.637,-7.49884 L 402.994,-7.895 L 403.425,-8.20836 L 403.912,-8.42519 L 404.433,-8.53603
 L 404.967,-8.53603 L 405.488,-8.42519 L 405.975,-8.20836 L 406.406,-7.895 L 406.763,-7.49884 L 407.03,-7.03717
 L 407.194,-6.53017 L 407.25,-6 L 407.25,-0 L 534.55,-0 L 534.55,-6 L 534.606,-6.53017
 L 534.77,-7.03717 L 535.037,-7.49884 L 535.394,-7.895 L 535.825,-8.20836 L 536.312,-8.42519 L 536.833,-8.53603
 L 537.367,-8.53603 L 537.888,-8.42519 L 538.375,-8.20836 L 538.806,-7.895 L 539.163,-7.49884 L 539.43,-7.03717
 L 539.594,-6.53017 L 539.65,-6 L 539.65,-0 L 666.95,-0 L 666.95,-6 L 667.006,-6.53017
 L 667.17,-7.03717 L 667.437,-7.49884 L 667.794,-7.895 L 668.225,-8.20836 L 668.712,-8.42519 L 669.233,-8.53603
 L 669.767,-8.53603 L 670.288,-8.42519 L 670.775,-8.20836 L 671.206,-7.895 L 671.563,-7.49884 L 671.83,-7.03717
 L 671.994,-6.53017 L 672.05,-6 L 672.05,-0 L 677,-0 z
M 6.98573,-55.607 L 6.47708,-55.6875 L 5.97964,-55.8208 L 5.49887,-56.0054 L 5.04001,-56.2392 L 4.60811,-56.5196
 L 4.20789,-56.8437 L 3.84373,-57.2079 L 3.51964,-57.6081 L 3.23917,-58.04 L 3.00537,-58.4989 L 2.82082,-58.9796
 L 2.68752,-59.4771 L 2.60696,-59.9857 L 2.58,-60.5 L 2.60696,-61.0143 L 2.68752,-61.5229 L 2.82082,-62.0204
 L 3.00537,-62.5011 L 3.23917,-62.96 L 3.51964,-63.3919 L 3.84373,-63.7921 L 4.20789,-64.1563 L 4.60811,-64.4804
 L 4.95001,-64.7024 L 4.95001,-74 L 5.00574,-74.5302 L 5.17047,-75.0372 L 5.43701,-75.4988 L 5.79373,-75.895
 L 6.22501,-76.2084 L 6.71202,-76.4252 L 7.23346,-76.536 L 7.76654,-76.536 L 8.28798,-76.4252 L 8.77499,-76.2084
 L 9.20627,-75.895 L 9.56299,-75.4988 L 9.82953,-75.0372 L 9.99426,-74.5302 L 10.05,-74 L 10.05,-64.7024
 L 10.3919,-64.4804 L 10.7921,-64.1563 L 11.1563,-63.7921 L 11.4804,-63.3919 L 11.7608,-62.96 L 11.9946,-62.5011
 L 12.1792,-62.0204 L 12.3125,-61.5229 L 12.393,-61.0143 L 12.42,-60.5 L 12.393,-59.9857 L 12.3125,-59.4771
 L 12.1792,-58.9796 L 11.9946,-58.4989 L 11.7608,-58.04 L 11.4804,-57.6081 L 11.1563,-57.2079 L 10.7921,-56.8437
 L 10.3919,-56.5196 L 9.95999,-56.2392 L 9.50113,-56.0054 L 9.02036,-55.8208 L 8.52292,-55.6875 L 8.01427,-55.607
 L 7.5,-55.58 z
M 139.386,-55.607 L 138.877,-55.6875 L 138.38,-55.8208 L 137.899,-56.0054 L 137.44,-56.2392 L 137.008,-56.5196
 L 136.608,-56.8437 L 136.244,-57.2079 L 135.92,-57.6081 L 135.639,-58.04 L 135.405,-58.4989 L 135.221,-58.9796
 L 135.088,-59.4771 L 135.007,-59.9857 L 134.98,-60.5 L 135.007,-61.0143 L 135.088,-61.5229 L 135.221,-62.0204
 L 135.405,-62.5011 L 135.639,-62.96 L 135.92,-63.3919 L 136.244,-63.7921 L 136.608,-64.1563 L 137.008,-64.4804
 L 137.35,-64.7024 L 137.35,-74 L 137.406,-74.5302 L 137.57,-75.0372 L 137.837,-75.4988 L 138.194,-75.895
 L 138.625,-76.2084 L 139.112,-76.4252 L 139.633,-76.536 L 140.167,-76.536 L 140.688,-76.4252 L 141.175,-76.2084
 L 141.606,-75.895 L 141.963,-75.4988 L 142.23,-75.0372 L 142.394,-74.5302 L 142.45,-74 L 142.45,-64.7024
 L 142.792,-64.4804 L 143.192,-64.1563 L 143.556,-63.7921 L 143.88,-63.3919 L 144.161,-62.96 L 144.395,-62.5011
 L 144.579,-62.0204 L 144.712,-61.5229 L 144.793,-61.0143 L 144.82,-60.5 L 144.793,-59.9857 L 144.712,-59.4771
 L 144.579,-58.9796 L 144.395,-58.4989 L 144.161,-58.04 L 143.88,-57.6081 L 143.556,-57.2079 L 143.192,-56.8437
 L 142.792,-56.5196 L 142.36,-56.2392 L 141.901,-56.0054 L 141.42,-55.8208 L 140.923,-55.6875 L 140.414,-55.607
 L 139.9,-55.58 z
M 271.786,-55.607 L 271.277,-55.6875 L 270.78,-55.8208 L 270.299,-56.0054 L 269.84,-56.2392 L 269.408,-56.5196
 L 269.008,-56.8437 L 268.644,-57.2079 L 268.32,-57.6081 L 268.039,-58.04 L 267.805,-58.4989 L 267.621,-58.9796
 L 267.488,-59.4771 L 267.407,-59.9857 L 267.38,-60.5 L 267.407,-61.0143 L 267.488,-61.5229 L 267.621,-62.0204
 L 267.805,-62.5011 L 268.039,-62.96 L 268.32,-63.3919 L 268.644,-63.7921 L 269.008,-64.1563 L 269.408,-64.4804
 L 269.75,-64.7024 L 269.75,-74 L 269.806,-74.5302 L 269.97,-75.0372 L 270.237,-75.4988 L 270.594,-75.895
 L 271.025,-76.2084 L 271.512,-76.4252 L 272.033,-76.536 L 272.567,-76.536 L 273.088,-76.4252 L 273.575,-76.2084
 L 274.006,-75.895 L 274.363,-75.4988 L 274.63,-75.0372 L 274.794,-74.5302 L 274.85,-74 L 274.85,-64.7024
 L 275.192,-64.4804 L 275.592,-64.1563 L 275.956,-63.7921 L 276.28,-63.3919 L 276.561,-62.96 L 276.795,-62.5011
 L 276.979,-62.0204 L 277.112,-61.5229 L 277.193,-61.0143 L 277.22,-60.5 L 277.193,-59.9857 L 277.112,-59.4771
 L 276.979,-58.9796 L 276.795,-58.4989 L 276.561,-58.04 L 276.28,-57.6081 L 275.956,-57.2079 L 275.592,-56.8437
 L 275.192,-56.5196 L 274.76,-56.2392 L 274.301,-56.0054 L 273.82,-55.8208 L 273.323,-55.6875 L 272.814,-55.607
 L 272.3,-55.58 z
M 404.186,-55.607 L 403.677,-55.6875 L 403.18,-55.8208 L 402.699,-56.0054 L 402.24,-56.2392 L 401.808,-56.5196
 L 401.408,-56.8437 L 401.044,-57.2079 L 400.72,-57.6081 L 400.439,-58.04 L 400.205,-58.4989 L 400.021,-58.9796
 L 399.888,-59.4771 L 399.807,-59.9857 L 399.78,-60.5 L 399.807,-61.0143 L 399.888,-61.5229 L 400.021,-62.0204
 L 400.205,-62.5011 L 400.439,-62.96 L 400.72,-63.3919 L 401.044,-63.7921 L 401.408,-64.1563 L 401.808,-64.4804
 L 402.15,-64.7024 L 402.15,-74 L 402.206,-74.5302 L 402.37,-75.0372 L 402.637,-75.4988 L 402.994,-75.895
 L 403.425,-76.2084 L 403.912,-76.4252 L 404.433,-76.536 L 404.967,-76.536 L 405.488,-76.4252 L 405.975,-76.2084
 L 406.406,-75.895 L 406.763,-75.4988 L 407.03,-75.0372 L 407.194,-74.5302 L 407.25,-74 L 407.25,-64.7024
 L 407.592,-64.4804 L 407.992,-64.1563 L 408.356,-63.7921 L 408.68,-63.3919 L 408.961,-62.96 L 409.195,-62.5011
 L 409.379,-62.0204 L 409.512,-61.5229 L 409.593,-61.0143 L 409.62,-60.5 L 409.593,-59.9857 L 409.512,-59.4771
 L 409.379,-58.9796 L 409.195,-58.4989 L 408.961,-58.04 L 408.68,-57.6081 L 408.356,-57.2079 L 407.992,-56.8437
 L 407.592,-56.5196 L 407.16,-56.2392 L 406.701,-56.0054 L 406.22,-55.8208 L 405.723,-55.6875 L 405.214,-55.607
 L 404.7,-55.58 z
M 536.586,-55.607 L 536.077,-55.6875 L 535.58,-55.8208 L 535.099,-56.0054 L 534.64,-56.2392 L 534.208,-56.5196
 L 533.808,-56.8437 L 533.444,-57.2079 L 533.12,-57.6081 L 532.839,-58.04 L 532.605,-58.4989 L 532.421,-58.9796
 L 532.288,-59.4771 L 532.207,-59.9857 L 532.18,-60.5 L 532.207,-61.0143 L 532.288,-61.5229 L 532.421,-62.0204
 L 532.605,-62.5011 L 532.839,-62.96 L 533.12,-63.3919 L 533.444,-63.7921 L 533.808,-64.1563 L 534.208,-64.4804
 L 534.55,-64.7024 L 534.55,-74 L 534.606,-74.5302 L 534.77,-75.0372 L 535.037,-75.4988 L 535.394,-75.895
 L 535.825,-76.2084 L 536.312,-76.4252 L 536.833,-76.536 L 537.367,-76.536 L 537.888,-76.4252 L 538.375,-76.2084
 L 538.806,-75.895 L 539.163,-75.4988 L 539.43,-75.0372 L 539.594,-74.5302 L 539.65,-74 L 539.65,-64.7024
 L 539.992,-64.4804 L 540.392,-64.1563 L 540.756,-63.7921 L 541.08,-63.3919 L 541.361,-62.96 L 541.595,-62.5011
 L 541.779,-62.0204 L 541.912,-61.5229 L 541.993,-61.0143 L 542.02,-60.5 L 541.993,-59.9857 L 541.912,-59.4771
 L 541.779,-58.9796 L 541.595,-58.4989 L 541.361,-58.04 L 541.08,-57.6081 L 540.756,-57.2079 L 540.392,-56.8437
 L 539.992,-56.5196 L 539.56,-56.2392 L 539.101,-56.0054 L 538.62,-55.8208 L 538.123,-55.6875 L 537.614,-55.607
 L 537.1,-55.58 z
M 668.986,-55.607 L 668.477,-55.6875 L 667.98,-55.8208 L 667.499,-56.0054 L 667.04,-56.2392 L 666.608,-56.5196
 L 666.208,-56.8437 L 665.844,-57.2079 L 665.52,-57.6081 L 665.239,-58.04 L 665.005,-58.4989 L 664.821,-58.9796
 L 664.688,-59.4771 L 664.607,-59.9857 L 664.58,-60.5 L 664.607,-61.0143 L 664.688,-61.5229 L 664.821,-62.0204
 L 665.005,-62.5011 L 665.239,-62.96 L 665.52,-63.3919 L 665.844,-63.7921 L 666.208,-64.1563 L 666.608,-64.4804
 L 666.95,-64.7024 L 666.95,-74 L 667.006,-74.5302 L 667.17,-75.0372 L 667.437,-75.4988 L 667.794,-75.895
 L 668.225,-76.2084 L 668.712,-76.4252 L 669.233,-76.536 L 669.767,-76.536 L 670.288,-76.4252 L 670.775,-76.2084
 L 671.206,-75.895 L 671.563,-75.4988 L 671.83,-75.0372 L 671.994,-74.5302 L 672.05,-74 L 672.05,-64.7024
 L 672.392,-64.4804 L 672.792,-64.1563 L 673.156,-63.7921 L 673.48,-63.3919 L 673.761,-62.96 L 673.995,-62.5011
 L 674.179,-62.0204 L 674.312,-61.5229 L 674.393,-61.0143 L 674.42,-60.5 L 674.393,-59.9857 L 674.312,-59.4771
 L 674.179,-58.9796 L 673.995,-58.4989 L 673.761,-58.04 L 673.48,-57.6081 L 673.156,-57.2079 L 672.792,-56.8437
 L 672.392,-56.5196 L 671.96,-56.2392 L 671.501,-56.0054 L 671.02,-55.8208 L 670.523,-55.6875 L 670.014,-55.607
 L 669.5,-55.58 z
M 337.452,-48.4907 L 336.673,-48.7929 L 325.674,-54.4418 L 325.15,-54.7639 L 324.529,-55.3235 L 324.037,-56
 L 323.697,-56.7639 L 323.523,-57.5819 L 323.523,-58.4181 L 323.697,-59.2361 L 324.037,-60 L 324.529,-60.6765
 L 325.15,-61.2361 L 325.874,-61.6542 L 326.669,-61.9126 L 327.501,-62 L 349.499,-62 L 350.112,-61.9527
 L 350.92,-61.7389 L 351.667,-61.3617 L 352.318,-60.8375 L 352.846,-60.1894 L 353.228,-59.4455 L 353.448,-58.6385
 L 353.494,-57.8035 L 353.366,-56.9772 L 353.069,-56.1955 L 352.615,-55.4928 L 352.026,-54.8996 L 351.326,-54.4418
 L 340.327,-48.7929 L 339.921,-48.6121 L 339.113,-48.3983 L 338.278,-48.3572 z
M 258.252,-23.4131 L 257.473,-23.7153 L 197.646,-54.4418 L 197.122,-54.7639 L 196.501,-55.3235 L 196.009,-56
 L 195.669,-56.7639 L 195.495,-57.5819 L 195.495,-58.4181 L 195.669,-59.2361 L 196.009,-60 L 196.501,-60.6765
 L 197.122,-61.2361 L 197.847,-61.6542 L 198.642,-61.9126 L 199.474,-62 L 259.3,-62 L 260.536,-61.8042
 L 261.3,-61.4641 L 261.977,-60.9726 L 262.536,-60.3511 L 262.954,-59.627 L 263.213,-58.8316 L 263.3,-58
 L 263.3,-27.2734 L 263.249,-26.6349 L 263.03,-25.8279 L 262.648,-25.0841 L 262.119,-24.4359 L 261.468,-23.9117
 L 260.721,-23.5345 L 259.913,-23.3207 L 259.078,-23.2796 z
M 549.487,-23.3207 L 548.679,-23.5345 L 547.932,-23.9117 L 547.281,-24.4359 L 546.752,-25.0841 L 546.37,-25.8279
 L 546.151,-26.6349 L 546.1,-27.2734 L 546.1,-58 L 546.187,-58.8316 L 546.446,-59.627 L 546.864,-60.3511
 L 547.423,-60.9726 L 548.1,-61.4641 L 548.864,-61.8042 L 550.1,-62 L 609.926,-62 L 610.758,-61.9126
 L 611.553,-61.6542 L 612.278,-61.2361 L 612.899,-60.6765 L 613.391,-60 L 613.731,-59.2361 L 613.905,-58.4181
 L 613.905,-57.5819 L 613.731,-56.7639 L 613.391,-56 L 612.899,-55.3235 L 612.278,-54.7639 L 611.754,-54.4418
 L 551.927,-23.7153 L 551.148,-23.4131 L 550.322,-23.2796 z
M 125.852,-23.4131 L 125.073,-23.7153 L 65.2461,-54.4418 L 64.7224,-54.7639 L 64.101,-55.3235 L 63.6095,-56
 L 63.2693,-56.7639 L 63.0955,-57.5819 L 63.0955,-58.4181 L 63.2693,-59.2361 L 63.6095,-60 L 64.101,-60.6765
 L 64.7224,-61.2361 L 65.4466,-61.6542 L 66.2419,-61.9126 L 67.0735,-62 L 126.9,-62 L 128.136,-61.8042
 L 128.9,-61.4641 L 129.577,-60.9726 L 130.136,-60.3511 L 130.554,-59.627 L 130.813,-58.8316 L 130.9,-58
 L 130.9,-27.2734 L 130.849,-26.6349 L 130.63,-25.8279 L 130.248,-25.0841 L 129.719,-24.4359 L 129.068,-23.9117
 L 128.321,-23.5345 L 127.513,-23.3207 L 126.678,-23.2796 z
M 417.087,-23.3207 L 416.279,-23.5345 L 415.532,-23.9117 L 414.881,-24.4359 L 414.352,-25.0841 L 413.97,-25.8279
 L 413.751,-26.6349 L 413.7,-27.2734 L 413.7,-58 L 413.787,-58.8316 L 414.046,-59.627 L 414.464,-60.3511
 L 415.023,-60.9726 L 415.7,-61.4641 L 416.464,-61.8042 L 417.7,-62 L 477.526,-62 L 478.358,-61.9126
 L 479.153,-61.6542 L 479.878,-61.2361 L 480.499,-60.6765 L 480.991,-60 L 481.331,-59.2361 L 481.505,-58.4181
 L 481.505,-57.5819 L 481.331,-56.7639 L 480.991,-56 L 480.499,-55.3235 L 479.878,-54.7639 L 479.354,-54.4418
 L 419.527,-23.7153 L 418.748,-23.4131 L 417.922,-23.2796 z
M 284.882,-21.0497 L 284.064,-21.2236 L 283.3,-21.5637 L 282.623,-22.0552 L 282.064,-22.6767 L 281.646,-23.4008
 L 281.387,-24.1962 L 281.3,-25.0278 L 281.3,-54.9722 L 281.351,-55.6107 L 281.57,-56.4177 L 281.952,-57.1616
 L 282.481,-57.8097 L 283.132,-58.3339 L 283.879,-58.7111 L 284.687,-58.9249 L 285.522,-58.966 L 286.348,-58.8326
 L 287.127,-58.5303 L 316.279,-43.5582 L 317.271,-42.8375 L 317.799,-42.1894 L 318.181,-41.4455 L 318.4,-40.6385
 L 318.447,-39.8035 L 318.319,-38.9772 L 318.022,-38.1955 L 317.568,-37.4928 L 316.979,-36.8996 L 316.279,-36.4418
 L 287.127,-21.4697 L 286.536,-21.2236 L 285.718,-21.0497 z
M 390.652,-21.1674 L 389.873,-21.4696 L 360.721,-36.4418 L 359.729,-37.1625 L 359.201,-37.8106 L 358.819,-38.5545
 L 358.599,-39.3615 L 358.553,-40.1965 L 358.681,-41.0228 L 358.978,-41.8045 L 359.432,-42.5072 L 360.021,-43.1004
 L 360.721,-43.5582 L 389.873,-58.5304 L 390.464,-58.7764 L 391.282,-58.9503 L 392.118,-58.9503 L 392.936,-58.7764
 L 393.7,-58.4363 L 394.377,-57.9448 L 394.936,-57.3233 L 395.354,-56.5992 L 395.613,-55.8039 L 395.7,-54.9722
 L 395.7,-25.0278 L 395.649,-24.3893 L 395.43,-23.5823 L 395.048,-22.8384 L 394.519,-22.1902 L 393.868,-21.6661
 L 393.121,-21.2889 L 392.313,-21.075 L 391.478,-21.034 z
M 152.9,-18 L 151.664,-18.1958 L 150.9,-18.5359 L 150.223,-19.0274 L 149.664,-19.6489 L 149.246,-20.373
 L 148.987,-21.1684 L 148.9,-22 L 148.9,-52.7266 L 148.951,-53.365 L 149.17,-54.1721 L 149.552,-54.9159
 L 150.081,-55.5641 L 150.732,-56.0883 L 151.479,-56.4655 L 152.287,-56.6793 L 153.122,-56.7204 L 153.948,-56.5869
 L 154.727,-56.2847 L 214.554,-25.5582 L 215.078,-25.2361 L 215.699,-24.6765 L 216.191,-24 L 216.531,-23.2361
 L 216.705,-22.4181 L 216.705,-21.5819 L 216.531,-20.7639 L 216.191,-20 L 215.699,-19.3235 L 215.078,-18.7639
 L 214.353,-18.3458 L 213.558,-18.0874 L 212.726,-18 z
M 464.274,-18 L 463.442,-18.0874 L 462.647,-18.3458 L 461.922,-18.7639 L 461.301,-19.3235 L 460.809,-20
 L 460.469,-20.7639 L 460.295,-21.5819 L 460.295,-22.4181 L 460.469,-23.2361 L 460.809,-24 L 461.301,-24.6765
 L 461.922,-25.2361 L 462.446,-25.5582 L 522.273,-56.2847 L 523.052,-56.5869 L 523.878,-56.7204 L 524.713,-56.6793
 L 525.521,-56.4655 L 526.268,-56.0883 L 526.919,-55.5641 L 527.448,-54.9159 L 527.83,-54.1721 L 528.049,-53.365
 L 528.1,-52.7266 L 528.1,-22 L 528.013,-21.1684 L 527.754,-20.373 L 527.336,-19.6489 L 526.777,-19.0274
 L 526.1,-18.5359 L 525.336,-18.1958 L 524.1,-18 z
M 22,-18 L 20.7639,-18.1958 L 20,-18.5359 L 19.3235,-19.0274 L 18.7639,-19.6489 L 18.3458,-20.373
 L 18.0874,-21.1684 L 18,-22 L 18,-51.9562 L 18.0513,-52.5947 L 18.2703,-53.4017 L 18.6524,-54.1455
 L 19.1807,-54.7937 L 19.8323,-55.3179 L 20.5786,-55.6951 L 21.387,-55.9089 L 22.2222,-55.95 L 23.0477,-55.8165
 L 23.8275,-55.5143 L 82.1539,-25.5582 L 82.6776,-25.2361 L 83.299,-24.6765 L 83.7905,-24 L 84.1307,-23.2361
 L 84.3045,-22.4181 L 84.3045,-21.5819 L 84.1307,-20.7639 L 83.7905,-20 L 83.299,-19.3235 L 82.6776,-18.7639
 L 81.9534,-18.3458 L 81.1581,-18.0874 L 80.3264,-18 z
M 596.674,-18 L 595.842,-18.0874 L 595.047,-18.3458 L 594.322,-18.7639 L 593.701,-19.3235 L 593.209,-20
 L 592.869,-20.7639 L 592.695,-21.5819 L 592.695,-22.4181 L 592.869,-23.2361 L 593.209,-24 L 593.701,-24.6765
 L 594.322,-25.2361 L 594.846,-25.5582 L 653.173,-55.5143 L 653.952,-55.8165 L 654.778,-55.95 L 655.613,-55.9089
 L 656.421,-55.6951 L 657.168,-55.3179 L 657.819,-54.7937 L 658.348,-54.1455 L 658.73,-53.4017 L 658.949,-52.5947
 L 659,-51.9562 L 659,-22 L 658.913,-21.1684 L 658.654,-20.373 L 658.236,-19.6489 L 657.677,-19.0274
 L 657,-18.5359 L 656.236,-18.1958 L 655,-18 z
M 327.501,-18 L 326.888,-18.0473 L 326.08,-18.2611 L 325.333,-18.6383 L 324.682,-19.1625 L 324.154,-19.8106
 L 323.771,-20.5545 L 323.552,-21.3615 L 323.506,-22.1965 L 323.634,-23.0228 L 323.931,-23.8045 L 324.384,-24.5072
 L 324.974,-25.1004 L 325.674,-25.5582 L 336.673,-31.2071 L 337.079,-31.3879 L 337.887,-31.6017 L 338.722,-31.6428
 L 339.548,-31.5093 L 340.327,-31.2071 L 351.326,-25.5582 L 351.85,-25.2361 L 352.471,-24.6765 L 352.963,-24
 L 353.303,-23.2361 L 353.477,-22.4181 L 353.477,-21.5819 L 353.303,-20.7639 L 352.963,-20 L 352.471,-19.3235
 L 351.85,-18.7639 L 351.126,-18.3458 L 350.33,-18.0874 L 349.499,-18 z
" stroke="black" fill="lightgray" stroke-width="0.5"/>
</svg>
