<?xml version="1.0" standalone="no"?>
<!DOCTYPE svg PUBLIC "-//W3C//DTD SVG 1.1//EN" "http://www.w3.org/Graphics/SVG/1.1/DTD/svg11.dtd">
<svg width="650mm" height="80mm" viewBox="0 -80 650 80" xmlns="http://www.w3.org/2000/svg" version="1.1">
<title>OpenSCAD Model</title>
<path d="
M 650,-80 L 0,-80 L 0,-0 L 4.95,-0 L 4.95,-6 L 5.00572,-6.53017
 L 5.17046,-7.03717 L 5.437,-7.49884 L 5.79372,-7.895 L 6.22499,-8.20836 L 6.71201,-8.42519 L 7.23344,-8.53603
 L 7.76654,-8.53603 L 8.28798,-8.42519 L 8.77499,-8.20836 L 9.20627,-7.895 L 9.56299,-7.49884 L 9.82953,-7.03717
 L 9.99426,-6.53017 L 10.05,-6 L 10.05,-0 L 131.95,-0 L 131.95,-6 L 132.006,-6.53017
 L 132.17,-7.03717 L 132.437,-7.49884 L 132.794,-7.895 L 133.225,-8.20836 L 133.712,-8.42519 L 134.233,-8.53603
 L 134.767,-8.53603 L 135.288,-8.42519 L 135.775,-8.20836 L 136.206,-7.895 L 136.563,-7.49884 L 136.83,-7.03717
 L 136.994,-6.53017 L 137.05,-6 L 137.05,-0 L 258.95,-0 L 258.95,-6 L 259.006,-6.53017
 L 259.17,-7.03717 L 259.437,-7.49884 L 259.794,-7.895 L 260.225,-8.20836 L 260.712,-8.42519 L 261.233,-8.53603
 L 261.767,-8.53603 L 262.288,-8.42519 L 262.775,-8.20836 L 263.206,-7.895 L 263.563,-7.49884 L 263.83,-7.03717
 L 263.994,-6.53017 L 264.05,-6 L 264.05,-0 L 385.95,-0 L 385.95,-6 L 386.006,-6.53017
 L 386.17,-7.03717 L 386.437,-7.49884 L 386.794,-7.895 L 387.225,-8.20836 L 387.712,-8.42519 L 388.233,-8.53603
 L 388.767,-8.53603 L 389.288,-8.42519 L 389.775,-8.20836 L 390.206,-7.895 L 390.563,-7.49884 L 390.83,-7.03717
 L 390.994,-6.53017 L 391.05,-6 L 391.05,-0 L 512.95,-0 L 512.95,-6 L 513.006,-6.53017
 L 513.17,-7.03717 L 513.437,-7.49884 L 513.794,-7.895 L 514.225,-8.20836 L 514.712,-8.42519 L 515.233,-8.53603
 L 515.767,-8.53603 L 516.288,-8.42519 L 516.775,-8.20836 L 517.206,-7.895 L 517.563,-7.49884 L 517.83,-7.03717
 L 517.994,-6.53017 L 518.05,-6 L 518.05,-0 L 639.95,-0 L 639.95,-6 L 640.006,-6.53017
 L 640.17,-7.03717 L 640.437,-7.49884 L 640.794,-7.895 L 641.225,-8.20836 L 641.712,-8.42519 L 642.233,-8.53603
 L 642.767,-8.53603 L 643.288,-8.42519 L 643.775,-8.20836 L 644.206,-7.895 L 644.563,-7.49884 L 644.83,-7.03717
 L 644.994,-6.53017 L 645.05,-6 L 645.05,-0 L 650,-0 z
M 6.98573,-55.607 L 6.47708,-55.6875 L 5.97964,-55.8208 L 5.49887,-56.0054 L 5.04001,-56.2392 L 4.60811,-56.5196
 L 4.20789,-56.8437 L 3.84373,-57.2079 L 3.51964,-57.6081 L 3.23917,-58.04 L 3.00537,-58.4989 L 2.82082,-58.9796
 L 2.68752,-59.4771 L 2.60696,-59.9857 L 2.58,-60.5 L 2.60696,-61.0143 L 2.68752,-61.5229 L 2.82082,-62.0204
 L 3.00537,-62.5011 L 3.23917,-62.96 L 3.51964,-63.3919 L 3.84373,-63.7921 L 4.20789,-64.1563 L 4.60811,-64.4804
 L 4.95001,-64.7024 L 4.95001,-74 L 5.00574,-74.5302 L 5.17047,-75.0372 L 5.43701,-75.4988 L 5.79373,-75.895
 L 6.22501,-76.2084 L 6.71202,-76.4252 L 7.23346,-76.536 L 7.76654,-76.536 L 8.28798,-76.4252 L 8.77499,-76.2084
 L 9.20627,-75.895 L 9.56299,-75.4988 L 9.82953,-75.0372 L 9.99426,-74.5302 L 10.05,-74 L 10.05,-64.7024
 L 10.3919,-64.4804 L 10.7921,-64.1563 L 11.1563,-63.7921 L 11.4804,-63.3919 L 11.7608,-62.96 L 11.9946,-62.5011
 L 12.1792,-62.0204 L 12.3125,-61.5229 L 12.393,-61.0143 L 12.42,-60.5 L 12.393,-59.9857 L 12.3125,-59.4771
 L 12.1792,-58.9796 L 11.9946,-58.4989 L 11.7608,-58.04 L 11.4804,-57.6081 L 11.1563,-57.2079 L 10.7921,-56.8437
 L 10.3919,-56.5196 L 9.95999,-56.2392 L 9.50113,-56.0054 L 9.02036,-55.8208 L 8.52292,-55.6875 L 8.01427,-55.607
 L 7.5,-55.58 z
M 133.986,-55.607 L 133.477,-55.6875 L 132.98,-55.8208 L 132.499,-56.0054 L 132.04,-56.2392 L 131.608,-56.5196
 L 131.208,-56.8437 L 130.844,-57.2079 L 130.52,-57.6081 L 130.239,-58.04 L 130.005,-58.4989 L 129.821,-58.9796
 L 129.688,-59.4771 L 129.607,-59.9857 L 129.58,-60.5 L 129.607,-61.0143 L 129.688,-61.5229 L 129.821,-62.0204
 L 130.005,-62.5011 L 130.239,-62.96 L 130.52,-63.3919 L 130.844,-63.7921 L 131.208,-64.1563 L 131.608,-64.4804
 L 131.95,-64.7024 L 131.95,-74 L 132.006,-74.5302 L 132.17,-75.0372 L 132.437,-75.4988 L 132.794,-75.895
 L 133.225,-76.2084 L 133.712,-76.4252 L 134.233,-76.536 L 134.767,-76.536 L 135.288,-76.4252 L 135.775,-76.2084
 L 136.206,-75.895 L 136.563,-75.4988 L 136.83,-75.0372 L 136.994,-74.5302 L 137.05,-74 L 137.05,-64.7024
 L 137.392,-64.4804 L 137.792,-64.1563 L 138.156,-63.7921 L 138.48,-63.3919 L 138.761,-62.96 L 138.995,-62.5011
 L 139.179,-62.0204 L 139.312,-61.5229 L 139.393,-61.0143 L 139.42,-60.5 L 139.393,-59.9857 L 139.312,-59.4771
 L 139.179,-58.9796 L 138.995,-58.4989 L 138.761,-58.04 L 138.48,-57.6081 L 138.156,-57.2079 L 137.792,-56.8437
 L 137.392,-56.5196 L 136.96,-56.2392 L 136.501,-56.0054 L 136.02,-55.8208 L 135.523,-55.6875 L 135.014,-55.607
 L 134.5,-55.58 z
M 260.986,-55.607 L 260.477,-55.6875 L 259.98,-55.8208 L 259.499,-56.0054 L 259.04,-56.2392 L 258.608,-56.5196
 L 258.208,-56.8437 L 257.844,-57.2079 L 257.52,-57.6081 L 257.239,-58.04 L 257.005,-58.4989 L 256.821,-58.9796
 L 256.688,-59.4771 L 256.607,-59.9857 L 256.58,-60.5 L 256.607,-61.0143 L 256.688,-61.5229 L 256.821,-62.0204
 L 257.005,-62.5011 L 257.239,-62.96 L 257.52,-63.3919 L 257.844,-63.7921 L 258.208,-64.1563 L 258.608,-64.4804
 L 258.95,-64.7024 L 258.95,-74 L 259.006,-74.5302 L 259.17,-75.0372 L 259.437,-75.4988 L 259.794,-75.895
 L 260.225,-76.2084 L 260.712,-76.4252 L 261.233,-76.536 L 261.767,-76.536 L 262.288,-76.4252 L 262.775,-76.2084
 L 263.206,-75.895 L 263.563,-75.4988 L 263.83,-75.0372 L 263.994,-74.5302 L 264.05,-74 L 264.05,-64.7024
 L 264.392,-64.4804 L 264.792,-64.1563 L 265.156,-63.7921 L 265.48,-63.3919 L 265.761,-62.96 L 265.995,-62.5011
 L 266.179,-62.0204 L 266.312,-61.5229 L 266.393,-61.0143 L 266.42,-60.5 L 266.393,-59.9857 L 266.312,-59.4771
 L 266.179,-58.9796 L 265.995,-58.4989 L 265.761,-58.04 L 265.48,-57.6081 L 265.156,-57.2079 L 264.792,-56.8437
 L 264.392,-56.5196 L 263.96,-56.2392 L 263.501,-56.0054 L 263.02,-55.8208 L 262.523,-55.6875 L 262.014,-55.607
 L 261.5,-55.58 z
M 387.986,-55.607 L 387.477,-55.6875 L 386.98,-55.8208 L 386.499,-56.0054 L 386.04,-56.2392 L 385.608,-56.5196
 L 385.208,-56.8437 L 384.844,-57.2079 L 384.52,-57.6081 L 384.239,-58.04 L 384.005,-58.4989 L 383.821,-58.9796
 L 383.688,-59.4771 L 383.607,-59.9857 L 383.58,-60.5 L 383.607,-61.0143 L 383.688,-61.5229 L 383.821,-62.0204
 L 384.005,-62.5011 L 384.239,-62.96 L 384.52,-63.3919 L 384.844,-63.7921 L 385.208,-64.1563 L 385.608,-64.4804
 L 385.95,-64.7024 L 385.95,-74 L 386.006,-74.5302 L 386.17,-75.0372 L 386.437,-75.4988 L 386.794,-75.895
 L 387.225,-76.2084 L 387.712,-76.4252 L 388.233,-76.536 L 388.767,-76.536 L 389.288,-76.4252 L 389.775,-76.2084
 L 390.206,-75.895 L 390.563,-75.4988 L 390.83,-75.0372 L 390.994,-74.5302 L 391.05,-74 L 391.05,-64.7024
 L 391.392,-64.4804 L 391.792,-64.1563 L 392.156,-63.7921 L 392.48,-63.3919 L 392.761,-62.96 L 392.995,-62.5011
 L 393.179,-62.0204 L 393.312,-61.5229 L 393.393,-61.0143 L 393.42,-60.5 L 393.393,-59.9857 L 393.312,-59.4771
 L 393.179,-58.9796 L 392.995,-58.4989 L 392.761,-58.04 L 392.48,-57.6081 L 392.156,-57.2079 L 391.792,-56.8437
 L 391.392,-56.5196 L 390.96,-56.2392 L 390.501,-56.0054 L 390.02,-55.8208 L 389.523,-55.6875 L 389.014,-55.607
 L 388.5,-55.58 z
M 514.986,-55.607 L 514.477,-55.6875 L 513.98,-55.8208 L 513.499,-56.0054 L 513.04,-56.2392 L 512.608,-56.5196
 L 512.208,-56.8437 L 511.844,-57.2079 L 511.52,-57.6081 L 511.239,-58.04 L 511.005,-58.4989 L 510.821,-58.9796
 L 510.688,-59.4771 L 510.607,-59.9857 L 510.58,-60.5 L 510.607,-61.0143 L 510.688,-61.5229 L 510.821,-62.0204
 L 511.005,-62.5011 L 511.239,-62.96 L 511.52,-63.3919 L 511.844,-63.7921 L 512.208,-64.1563 L 512.608,-64.4804
 L 512.95,-64.7024 L 512.95,-74 L 513.006,-74.5302 L 513.17,-75.0372 L 513.437,-75.4988 L 513.794,-75.895
 L 514.225,-76.2084 L 514.712,-76.4252 L 515.233,-76.536 L 515.767,-76.536 L 516.288,-76.4252 L 516.775,-76.2084
 L 517.206,-75.895 L 517.563,-75.4988 L 517.83,-75.0372 L 517.994,-74.5302 L 518.05,-74 L 518.05,-64.7024
 L 518.392,-64.4804 L 518.792,-64.1563 L 519.156,-63.7921 L 519.48,-63.3919 L 519.761,-62.96 L 519.995,-62.5011
 L 520.179,-62.0204 L 520.312,-61.5229 L 520.393,-61.0143 L 520.42,-60.5 L 520.393,-59.9857 L 520.312,-59.4771
 L 520.179,-58.9796 L 519.995,-58.4989 L 519.761,-58.04 L 519.48,-57.6081 L 519.156,-57.2079 L 518.792,-56.8437
 L 518.392,-56.5196 L 517.96,-56.2392 L 517.501,-56.0054 L 517.02,-55.8208 L 516.523,-55.6875 L 516.014,-55.607
 L 515.5,-55.58 z
M 641.986,-55.607 L 641.477,-55.6875 L 640.98,-55.8208 L 640.499,-56.0054 L 640.04,-56.2392 L 639.608,-56.5196
 L 639.208,-56.8437 L 638.844,-57.2079 L 638.52,-57.6081 L 638.239,-58.04 L 638.005,-58.4989 L 637.821,-58.9796
 L 637.688,-59.4771 L 637.607,-59.9857 L 637.58,-60.5 L 637.607,-61.0143 L 637.688,-61.5229 L 637.821,-62.0204
 L 638.005,-62.5011 L 638.239,-62.96 L 638.52,-63.3919 L 638.844,-63.7921 L 639.208,-64.1563 L 639.608,-64.4804
 L 639.95,-64.7024 L 639.95,-74 L 640.006,-74.5302 L 640.17,-75.0372 L 640.437,-75.4988 L 640.794,-75.895
 L 641.225,-76.2084 L 641.712,-76.4252 L 642.233,-76.536 L 642.767,-76.536 L 643.288,-76.4252 L 643.775,-76.2084
 L 644.206,-75.895 L 644.563,-75.4988 L 644.83,-75.0372 L 644.994,-74.5302 L 645.05,-74 L 645.05,-64.7024
 L 645.392,-64.4804 L 645.792,-64.1563 L 646.156,-63.7921 L 646.48,-63.3919 L 646.761,-62.96 L 646.995,-62.5011
 L 647.179,-62.0204 L 647.312,-61.5229 L 647.393,-61.0143 L 647.42,-60.5 L 647.393,-59.9857 L 647.312,-59.4771
 L 647.179,-58.9796 L 646.995,-58.4989 L 646.761,-58.04 L 646.48,-57.6081 L 646.156,-57.2079 L 645.792,-56.8437
 L 645.392,-56.5196 L 644.96,-56.2392 L 644.501,-56.0054 L 644.02,-55.8208 L 643.523,-55.6875 L 643.014,-55.607
 L 642.5,-55.58 z
M 323.886,-48.6293 L 323.112,-48.9448 L 312.786,-54.4737 L 312.323,-54.7639 L 311.701,-55.3235 L 311.21,-56
 L 310.87,-56.7639 L 310.696,-57.5819 L 310.696,-58.4181 L 310.87,-59.2361 L 311.21,-60 L 311.701,-60.6765
 L 312.323,-61.2361 L 313.047,-61.6542 L 313.842,-61.9126 L 314.674,-62 L 335.326,-62 L 335.871,-61.9627
 L 336.683,-61.7627 L 337.436,-61.3983 L 338.096,-60.8854 L 338.636,-60.2464 L 339.03,-59.5092 L 339.263,-58.706
 L 339.324,-57.872 L 339.21,-57.0436 L 338.926,-56.2569 L 338.485,-55.5465 L 337.906,-54.9433 L 337.214,-54.4737
 L 326.888,-48.9448 L 326.357,-48.7084 L 325.545,-48.5085 L 324.709,-48.4817 z
M 247.386,-23.8574 L 246.612,-24.1729 L 190.021,-54.4737 L 189.558,-54.7639 L 188.936,-55.3235 L 188.445,-56
 L 188.105,-56.7639 L 187.931,-57.5819 L 187.931,-58.4181 L 188.105,-59.2361 L 188.445,-60 L 188.936,-60.6765
 L 189.558,-61.2361 L 190.282,-61.6542 L 191.077,-61.9126 L 191.909,-62 L 248.5,-62 L 249.736,-61.8042
 L 250.5,-61.4641 L 251.177,-60.9726 L 251.736,-60.3511 L 252.154,-59.627 L 252.413,-58.8316 L 252.5,-58
 L 252.5,-27.6993 L 252.437,-26.9933 L 252.204,-26.1901 L 251.81,-25.4529 L 251.27,-24.8139 L 250.61,-24.3009
 L 249.857,-23.9365 L 249.045,-23.7366 L 248.209,-23.7098 z
M 527.955,-23.7366 L 527.143,-23.9365 L 526.39,-24.3009 L 525.73,-24.8139 L 525.19,-25.4529 L 524.796,-26.1901
 L 524.563,-26.9933 L 524.5,-27.6993 L 524.5,-58 L 524.587,-58.8316 L 524.846,-59.627 L 525.264,-60.3511
 L 525.823,-60.9726 L 526.5,-61.4641 L 527.264,-61.8042 L 528.5,-62 L 585.091,-62 L 585.923,-61.9126
 L 586.718,-61.6542 L 587.442,-61.2361 L 588.064,-60.6765 L 588.555,-60 L 588.895,-59.2361 L 589.069,-58.4181
 L 589.069,-57.5819 L 588.895,-56.7639 L 588.555,-56 L 588.064,-55.3235 L 587.442,-54.7639 L 586.979,-54.4737
 L 530.388,-24.1729 L 529.614,-23.8574 L 528.791,-23.7098 z
M 120.386,-23.8574 L 119.612,-24.1729 L 63.0208,-54.4737 L 62.5578,-54.7639 L 61.9363,-55.3235 L 61.4448,-56
 L 61.1047,-56.7639 L 60.9308,-57.5819 L 60.9308,-58.4181 L 61.1047,-59.2361 L 61.4448,-60 L 61.9363,-60.6765
 L 62.5578,-61.2361 L 63.282,-61.6542 L 64.0773,-61.9126 L 64.9089,-62 L 121.5,-62 L 122.736,-61.8042
 L 123.5,-61.4641 L 124.177,-60.9726 L 124.736,-60.3511 L 125.154,-59.627 L 125.413,-58.8316 L 125.5,-58
 L 125.5,-27.6993 L 125.437,-26.9933 L 125.204,-26.1901 L 124.81,-25.4529 L 124.27,-24.8139 L 123.61,-24.3009
 L 122.857,-23.9365 L 122.045,-23.7366 L 121.209,-23.7098 z
M 400.955,-23.7366 L 400.143,-23.9365 L 399.39,-24.3009 L 398.73,-24.8139 L 398.19,-25.4529 L 397.796,-26.1901
 L 397.563,-26.9933 L 397.5,-27.6993 L 397.5,-58 L 397.587,-58.8316 L 397.846,-59.627 L 398.264,-60.3511
 L 398.823,-60.9726 L 399.5,-61.4641 L 400.264,-61.8042 L 401.5,-62 L 458.091,-62 L 458.923,-61.9126
 L 459.718,-61.6542 L 460.442,-61.2361 L 461.064,-60.6765 L 461.555,-60 L 461.895,-59.2361 L 462.069,-58.4181
 L 462.069,-57.5819 L 461.895,-56.7639 L 461.555,-56 L 461.064,-55.3235 L 460.442,-54.7639 L 459.979,-54.4737
 L 403.388,-24.1729 L 402.614,-23.8574 L 401.791,-23.7098 z
M 274.082,-21.4537 L 273.264,-21.6276 L 272.5,-21.9677 L 271.823,-22.4592 L 271.264,-23.0807 L 270.846,-23.8048
 L 270.587,-24.6001 L 270.5,-25.4318 L 270.5,-54.5682 L 270.563,-55.2742 L 270.796,-56.0774 L 271.19,-56.8146
 L 271.73,-57.4536 L 272.39,-57.9665 L 273.143,-58.3309 L 273.955,-58.5309 L 274.791,-58.5576 L 275.614,-58.41
 L 276.388,-58.0945 L 303.596,-43.5263 L 304.479,-42.8854 L 305.018,-42.2464 L 305.413,-41.5092 L 305.645,-40.706
 L 305.706,-39.872 L 305.592,-39.0436 L 305.309,-38.2569 L 304.867,-37.5465 L 304.288,-36.9433 L 303.596,-36.4737
 L 276.388,-21.9055 L 275.736,-21.6276 L 274.918,-21.4537 z
M 374.386,-21.59 L 373.612,-21.9055 L 346.404,-36.4737 L 345.521,-37.1146 L 344.982,-37.7536 L 344.587,-38.4908
 L 344.355,-39.294 L 344.294,-40.128 L 344.408,-40.9564 L 344.691,-41.7431 L 345.133,-42.4535 L 345.712,-43.0567
 L 346.404,-43.5263 L 373.612,-58.0945 L 374.264,-58.3724 L 375.082,-58.5463 L 375.918,-58.5463 L 376.736,-58.3724
 L 377.5,-58.0323 L 378.177,-57.5408 L 378.736,-56.9193 L 379.154,-56.1952 L 379.413,-55.3999 L 379.5,-54.5682
 L 379.5,-25.4318 L 379.437,-24.7258 L 379.204,-23.9226 L 378.81,-23.1854 L 378.27,-22.5464 L 377.61,-22.0335
 L 376.857,-21.6691 L 376.045,-21.4691 L 375.209,-21.4424 z
M 147.5,-18 L 146.264,-18.1958 L 145.5,-18.5359 L 144.823,-19.0274 L 144.264,-19.6489 L 143.846,-20.373
 L 143.587,-21.1684 L 143.5,-22 L 143.5,-52.3007 L 143.563,-53.0067 L 143.796,-53.8099 L 144.19,-54.5471
 L 144.73,-55.1861 L 145.39,-55.699 L 146.143,-56.0634 L 146.955,-56.2634 L 147.791,-56.2901 L 148.614,-56.1426
 L 149.388,-55.8271 L 205.979,-25.5263 L 206.442,-25.2361 L 207.064,-24.6765 L 207.555,-24 L 207.895,-23.2361
 L 208.069,-22.4181 L 208.069,-21.5819 L 207.895,-20.7639 L 207.555,-20 L 207.064,-19.3235 L 206.442,-18.7639
 L 205.718,-18.3458 L 204.923,-18.0874 L 204.091,-18 z
M 445.909,-18 L 445.077,-18.0874 L 444.282,-18.3458 L 443.558,-18.7639 L 442.936,-19.3235 L 442.445,-20
 L 442.105,-20.7639 L 441.931,-21.5819 L 441.931,-22.4181 L 442.105,-23.2361 L 442.445,-24 L 442.936,-24.6765
 L 443.558,-25.2361 L 444.021,-25.5263 L 500.612,-55.8271 L 501.386,-56.1426 L 502.209,-56.2901 L 503.045,-56.2634
 L 503.857,-56.0634 L 504.61,-55.699 L 505.27,-55.1861 L 505.81,-54.5471 L 506.204,-53.8099 L 506.437,-53.0067
 L 506.5,-52.3007 L 506.5,-22 L 506.413,-21.1684 L 506.154,-20.373 L 505.736,-19.6489 L 505.177,-19.0274
 L 504.5,-18.5359 L 503.736,-18.1958 L 502.5,-18 z
M 22,-18 L 20.7639,-18.1958 L 20,-18.5359 L 19.3235,-19.0274 L 18.7639,-19.6489 L 18.3458,-20.373
 L 18.0874,-21.1684 L 18,-22 L 18,-51.4976 L 18.0628,-52.2036 L 18.2956,-53.0067 L 18.6904,-53.7439
 L 19.2297,-54.383 L 19.8902,-54.8959 L 20.6428,-55.2603 L 21.4548,-55.4602 L 22.2906,-55.487 L 23.1137,-55.3394
 L 23.8881,-55.0239 L 78.9792,-25.5263 L 79.4422,-25.2361 L 80.0637,-24.6765 L 80.5552,-24 L 80.8953,-23.2361
 L 81.0692,-22.4181 L 81.0692,-21.5819 L 80.8953,-20.7639 L 80.5552,-20 L 80.0637,-19.3235 L 79.4422,-18.7639
 L 78.718,-18.3458 L 77.9227,-18.0874 L 77.0911,-18 z
M 572.909,-18 L 572.077,-18.0874 L 571.282,-18.3458 L 570.558,-18.7639 L 569.936,-19.3235 L 569.445,-20
 L 569.105,-20.7639 L 568.931,-21.5819 L 568.931,-22.4181 L 569.105,-23.2361 L 569.445,-24 L 569.936,-24.6765
 L 570.558,-25.2361 L 571.021,-25.5263 L 626.112,-55.0239 L 626.886,-55.3394 L 627.709,-55.487 L 628.545,-55.4602
 L 629.357,-55.2603 L 630.11,-54.8959 L 630.77,-54.383 L 631.31,-53.7439 L 631.704,-53.0067 L 631.937,-52.2036
 L 632,-51.4976 L 632,-22 L 631.913,-21.1684 L 631.654,-20.373 L 631.236,-19.6489 L 630.677,-19.0274
 L 630,-18.5359 L 629.236,-18.1958 L 628,-18 z
M 314.674,-18 L 314.129,-18.0373 L 313.317,-18.2373 L 312.564,-18.6017 L 311.904,-19.1146 L 311.364,-19.7536
 L 310.97,-20.4908 L 310.737,-21.294 L 310.676,-22.128 L 310.79,-22.9564 L 311.074,-23.7431 L 311.515,-24.4535
 L 312.094,-25.0567 L 312.786,-25.5263 L 323.112,-31.0552 L 323.643,-31.2916 L 324.455,-31.4915 L 325.291,-31.5183
 L 326.114,-31.3707 L 326.888,-31.0552 L 337.214,-25.5263 L 337.677,-25.2361 L 338.298,-24.6765 L 338.79,-24
 L 339.13,-23.2361 L 339.304,-22.4181 L 339.304,-21.5819 L 339.13,-20.7639 L 338.79,-20 L 338.298,-19.3235
 L 337.677,-18.7639 L 336.953,-18.3458 L 336.158,-18.0874 L 335.326,-18 z
" stroke="black" fill="lightgray" stroke-width="0.5"/>
</svg>
