<?xml version="1.0" standalone="no"?>
<!DOCTYPE svg PUBLIC "-//W3C//DTD SVG 1.1//EN" "http://www.w3.org/Graphics/SVG/1.1/DTD/svg11.dtd">
<svg width="562mm" height="80mm" viewBox="0 -80 562 80" xmlns="http://www.w3.org/2000/svg" version="1.1">
<title>OpenSCAD Model</title>
<path d="
M 562,-80 L 0,-80 L 0,-0 L 4.95,-0 L 4.95,-6 L 5.00572,-6.53017
 L 5.17046,-7.03717 L 5.437,-7.49884 L 5.79372,-7.895 L 6.22499,-8.20836 L 6.71201,-8.42519 L 7.23344,-8.53603
 L 7.76654,-8.53603 L 8.28798,-8.42519 L 8.77499,-8.20836 L 9.20627,-7.895 L 9.56299,-7.49884 L 9.82953,-7.03717
 L 9.99426,-6.53017 L 10.05,-6 L 10.05,-0 L 141.7,-0 L 141.7,-6 L 141.756,-6.53017
 L 141.92,-7.03717 L 142.187,-7.49884 L 142.544,-7.895 L 142.975,-8.20836 L 143.462,-8.42519 L 143.983,-8.53603
 L 144.517,-8.53603 L 145.038,-8.42519 L 145.525,-8.20836 L 145.956,-7.895 L 146.313,-7.49884 L 146.58,-7.03717
 L 146.744,-6.53017 L 146.8,-6 L 146.8,-0 L 278.45,-0 L 278.45,-6 L 278.506,-6.53017
 L 278.67,-7.03717 L 278.937,-7.49884 L 279.294,-7.895 L 279.725,-8.20836 L 280.212,-8.42519 L 280.733,-8.53603
 L 281.267,-8.53603 L 281.788,-8.42519 L 282.275,-8.20836 L 282.706,-7.895 L 283.063,-7.49884 L 283.33,-7.03717
 L 283.494,-6.53017 L 283.55,-6 L 283.55,-0 L 415.2,-0 L 415.2,-6 L 415.256,-6.53017
 L 415.42,-7.03717 L 415.687,-7.49884 L 416.044,-7.895 L 416.475,-8.20836 L 416.962,-8.42519 L 417.483,-8.53603
 L 418.017,-8.53603 L 418.538,-8.42519 L 419.025,-8.20836 L 419.456,-7.895 L 419.813,-7.49884 L 420.08,-7.03717
 L 420.244,-6.53017 L 420.3,-6 L 420.3,-0 L 551.95,-0 L 551.95,-6 L 552.006,-6.53017
 L 552.17,-7.03717 L 552.437,-7.49884 L 552.794,-7.895 L 553.225,-8.20836 L 553.712,-8.42519 L 554.233,-8.53603
 L 554.767,-8.53603 L 555.288,-8.42519 L 555.775,-8.20836 L 556.206,-7.895 L 556.563,-7.49884 L 556.83,-7.03717
 L 556.994,-6.53017 L 557.05,-6 L 557.05,-0 L 562,-0 z
M 6.98573,-55.607 L 6.47708,-55.6875 L 5.97964,-55.8208 L 5.49887,-56.0054 L 5.04001,-56.2392 L 4.60811,-56.5196
 L 4.20789,-56.8437 L 3.84373,-57.2079 L 3.51964,-57.6081 L 3.23917,-58.04 L 3.00537,-58.4989 L 2.82082,-58.9796
 L 2.68752,-59.4771 L 2.60696,-59.9857 L 2.58,-60.5 L 2.60696,-61.0143 L 2.68752,-61.5229 L 2.82082,-62.0204
 L 3.00537,-62.5011 L 3.23917,-62.96 L 3.51964,-63.3919 L 3.84373,-63.7921 L 4.20789,-64.1563 L 4.60811,-64.4804
 L 4.95001,-64.7024 L 4.95001,-74 L 5.00574,-74.5302 L 5.17047,-75.0372 L 5.43701,-75.4988 L 5.79373,-75.895
 L 6.22501,-76.2084 L 6.71202,-76.4252 L 7.23346,-76.536 L 7.76654,-76.536 L 8.28798,-76.4252 L 8.77499,-76.2084
 L 9.20627,-75.895 L 9.56299,-75.4988 L 9.82953,-75.0372 L 9.99426,-74.5302 L 10.05,-74 L 10.05,-64.7024
 L 10.3919,-64.4804 L 10.7921,-64.1563 L 11.1563,-63.7921 L 11.4804,-63.3919 L 11.7608,-62.96 L 11.9946,-62.5011
 L 12.1792,-62.0204 L 12.3125,-61.5229 L 12.393,-61.0143 L 12.42,-60.5 L 12.393,-59.9857 L 12.3125,-59.4771
 L 12.1792,-58.9796 L 11.9946,-58.4989 L 11.7608,-58.04 L 11.4804,-57.6081 L 11.1563,-57.2079 L 10.7921,-56.8437
 L 10.3919,-56.5196 L 9.95999,-56.2392 L 9.50113,-56.0054 L 9.02036,-55.8208 L 8.52292,-55.6875 L 8.01427,-55.607
 L 7.5,-55.58 z
M 143.736,-55.607 L 143.227,-55.6875 L 142.73,-55.8208 L 142.249,-56.0054 L 141.79,-56.2392 L 141.358,-56.5196
 L 140.958,-56.8437 L 140.594,-57.2079 L 140.27,-57.6081 L 139.989,-58.04 L 139.755,-58.4989 L 139.571,-58.9796
 L 139.438,-59.4771 L 139.357,-59.9857 L 139.33,-60.5 L 139.357,-61.0143 L 139.438,-61.5229 L 139.571,-62.0204
 L 139.755,-62.5011 L 139.989,-62.96 L 140.27,-63.3919 L 140.594,-63.7921 L 140.958,-64.1563 L 141.358,-64.4804
 L 141.7,-64.7024 L 141.7,-74 L 141.756,-74.5302 L 141.92,-75.0372 L 142.187,-75.4988 L 142.544,-75.895
 L 142.975,-76.2084 L 143.462,-76.4252 L 143.983,-76.536 L 144.517,-76.536 L 145.038,-76.4252 L 145.525,-76.2084
 L 145.956,-75.895 L 146.313,-75.4988 L 146.58,-75.0372 L 146.744,-74.5302 L 146.8,-74 L 146.8,-64.7024
 L 147.142,-64.4804 L 147.542,-64.1563 L 147.906,-63.7921 L 148.23,-63.3919 L 148.511,-62.96 L 148.745,-62.5011
 L 148.929,-62.0204 L 149.062,-61.5229 L 149.143,-61.0143 L 149.17,-60.5 L 149.143,-59.9857 L 149.062,-59.4771
 L 148.929,-58.9796 L 148.745,-58.4989 L 148.511,-58.04 L 148.23,-57.6081 L 147.906,-57.2079 L 147.542,-56.8437
 L 147.142,-56.5196 L 146.71,-56.2392 L 146.251,-56.0054 L 145.77,-55.8208 L 145.273,-55.6875 L 144.764,-55.607
 L 144.25,-55.58 z
M 280.486,-55.607 L 279.977,-55.6875 L 279.48,-55.8208 L 278.999,-56.0054 L 278.54,-56.2392 L 278.108,-56.5196
 L 277.708,-56.8437 L 277.344,-57.2079 L 277.02,-57.6081 L 276.739,-58.04 L 276.505,-58.4989 L 276.321,-58.9796
 L 276.188,-59.4771 L 276.107,-59.9857 L 276.08,-60.5 L 276.107,-61.0143 L 276.188,-61.5229 L 276.321,-62.0204
 L 276.505,-62.5011 L 276.739,-62.96 L 277.02,-63.3919 L 277.344,-63.7921 L 277.708,-64.1563 L 278.108,-64.4804
 L 278.45,-64.7024 L 278.45,-74 L 278.506,-74.5302 L 278.67,-75.0372 L 278.937,-75.4988 L 279.294,-75.895
 L 279.725,-76.2084 L 280.212,-76.4252 L 280.733,-76.536 L 281.267,-76.536 L 281.788,-76.4252 L 282.275,-76.2084
 L 282.706,-75.895 L 283.063,-75.4988 L 283.33,-75.0372 L 283.494,-74.5302 L 283.55,-74 L 283.55,-64.7024
 L 283.892,-64.4804 L 284.292,-64.1563 L 284.656,-63.7921 L 284.98,-63.3919 L 285.261,-62.96 L 285.495,-62.5011
 L 285.679,-62.0204 L 285.812,-61.5229 L 285.893,-61.0143 L 285.92,-60.5 L 285.893,-59.9857 L 285.812,-59.4771
 L 285.679,-58.9796 L 285.495,-58.4989 L 285.261,-58.04 L 284.98,-57.6081 L 284.656,-57.2079 L 284.292,-56.8437
 L 283.892,-56.5196 L 283.46,-56.2392 L 283.001,-56.0054 L 282.52,-55.8208 L 282.023,-55.6875 L 281.514,-55.607
 L 281,-55.58 z
M 417.236,-55.607 L 416.727,-55.6875 L 416.23,-55.8208 L 415.749,-56.0054 L 415.29,-56.2392 L 414.858,-56.5196
 L 414.458,-56.8437 L 414.094,-57.2079 L 413.77,-57.6081 L 413.489,-58.04 L 413.255,-58.4989 L 413.071,-58.9796
 L 412.938,-59.4771 L 412.857,-59.9857 L 412.83,-60.5 L 412.857,-61.0143 L 412.938,-61.5229 L 413.071,-62.0204
 L 413.255,-62.5011 L 413.489,-62.96 L 413.77,-63.3919 L 414.094,-63.7921 L 414.458,-64.1563 L 414.858,-64.4804
 L 415.2,-64.7024 L 415.2,-74 L 415.256,-74.5302 L 415.42,-75.0372 L 415.687,-75.4988 L 416.044,-75.895
 L 416.475,-76.2084 L 416.962,-76.4252 L 417.483,-76.536 L 418.017,-76.536 L 418.538,-76.4252 L 419.025,-76.2084
 L 419.456,-75.895 L 419.813,-75.4988 L 420.08,-75.0372 L 420.244,-74.5302 L 420.3,-74 L 420.3,-64.7024
 L 420.642,-64.4804 L 421.042,-64.1563 L 421.406,-63.7921 L 421.73,-63.3919 L 422.011,-62.96 L 422.245,-62.5011
 L 422.429,-62.0204 L 422.562,-61.5229 L 422.643,-61.0143 L 422.67,-60.5 L 422.643,-59.9857 L 422.562,-59.4771
 L 422.429,-58.9796 L 422.245,-58.4989 L 422.011,-58.04 L 421.73,-57.6081 L 421.406,-57.2079 L 421.042,-56.8437
 L 420.642,-56.5196 L 420.21,-56.2392 L 419.751,-56.0054 L 419.27,-55.8208 L 418.773,-55.6875 L 418.264,-55.607
 L 417.75,-55.58 z
M 553.986,-55.607 L 553.477,-55.6875 L 552.98,-55.8208 L 552.499,-56.0054 L 552.04,-56.2392 L 551.608,-56.5196
 L 551.208,-56.8437 L 550.844,-57.2079 L 550.52,-57.6081 L 550.239,-58.04 L 550.005,-58.4989 L 549.821,-58.9796
 L 549.688,-59.4771 L 549.607,-59.9857 L 549.58,-60.5 L 549.607,-61.0143 L 549.688,-61.5229 L 549.821,-62.0204
 L 550.005,-62.5011 L 550.239,-62.96 L 550.52,-63.3919 L 550.844,-63.7921 L 551.208,-64.1563 L 551.608,-64.4804
 L 551.95,-64.7024 L 551.95,-74 L 552.006,-74.5302 L 552.17,-75.0372 L 552.437,-75.4988 L 552.794,-75.895
 L 553.225,-76.2084 L 553.712,-76.4252 L 554.233,-76.536 L 554.767,-76.536 L 555.288,-76.4252 L 555.775,-76.2084
 L 556.206,-75.895 L 556.563,-75.4988 L 556.83,-75.0372 L 556.994,-74.5302 L 557.05,-74 L 557.05,-64.7024
 L 557.392,-64.4804 L 557.792,-64.1563 L 558.156,-63.7921 L 558.48,-63.3919 L 558.761,-62.96 L 558.995,-62.5011
 L 559.179,-62.0204 L 559.312,-61.5229 L 559.393,-61.0143 L 559.42,-60.5 L 559.393,-59.9857 L 559.312,-59.4771
 L 559.179,-58.9796 L 558.995,-58.4989 L 558.761,-58.04 L 558.48,-57.6081 L 558.156,-57.2079 L 557.792,-56.8437
 L 557.392,-56.5196 L 556.96,-56.2392 L 556.501,-56.0054 L 556.02,-55.8208 L 555.523,-55.6875 L 555.014,-55.607
 L 554.5,-55.58 z
M 293.336,-23.0253 L 292.53,-23.2496 L 291.789,-23.6365 L 291.144,-24.1691 L 290.624,-24.8241 L 290.252,-25.5729
 L 290.043,-26.3827 L 290,-26.9697 L 290,-58 L 290.087,-58.8316 L 290.346,-59.627 L 290.764,-60.3511
 L 291.323,-60.9726 L 292,-61.4641 L 292.764,-61.8042 L 294,-62 L 356.403,-62 L 357.234,-61.9126
 L 358.03,-61.6542 L 358.754,-61.2361 L 359.375,-60.6765 L 359.867,-60 L 360.207,-59.2361 L 360.381,-58.4181
 L 360.381,-57.5819 L 360.207,-56.7639 L 359.867,-56 L 359.375,-55.3235 L 358.754,-54.7639 L 358.184,-54.4184
 L 295.781,-23.3881 L 294.997,-23.0961 L 294.17,-22.9733 z
M 267.003,-23.0961 L 266.219,-23.3881 L 203.816,-54.4184 L 203.246,-54.7639 L 202.625,-55.3235 L 202.133,-56
 L 201.793,-56.7639 L 201.619,-57.5819 L 201.619,-58.4181 L 201.793,-59.2361 L 202.133,-60 L 202.625,-60.6765
 L 203.246,-61.2361 L 203.97,-61.6542 L 204.766,-61.9126 L 205.597,-62 L 268,-62 L 269.236,-61.8042
 L 270,-61.4641 L 270.677,-60.9726 L 271.236,-60.3511 L 271.654,-59.627 L 271.913,-58.8316 L 272,-58
 L 272,-26.9697 L 271.957,-26.3827 L 271.748,-25.5729 L 271.376,-24.8241 L 270.856,-24.1691 L 270.211,-23.6365
 L 269.47,-23.2496 L 268.664,-23.0253 L 267.83,-22.9733 z
M 430.086,-23.0253 L 429.28,-23.2496 L 428.539,-23.6365 L 427.894,-24.1691 L 427.374,-24.8241 L 427.002,-25.5729
 L 426.793,-26.3827 L 426.75,-26.9697 L 426.75,-58 L 426.837,-58.8316 L 427.096,-59.627 L 427.514,-60.3511
 L 428.073,-60.9726 L 428.75,-61.4641 L 429.514,-61.8042 L 430.75,-62 L 493.153,-62 L 493.984,-61.9126
 L 494.78,-61.6542 L 495.504,-61.2361 L 496.125,-60.6765 L 496.617,-60 L 496.957,-59.2361 L 497.131,-58.4181
 L 497.131,-57.5819 L 496.957,-56.7639 L 496.617,-56 L 496.125,-55.3235 L 495.504,-54.7639 L 494.934,-54.4184
 L 432.531,-23.3881 L 431.747,-23.0961 L 430.92,-22.9733 z
M 130.253,-23.0961 L 129.469,-23.3881 L 67.0662,-54.4184 L 66.496,-54.7639 L 65.8746,-55.3235 L 65.3831,-56
 L 65.043,-56.7639 L 64.8691,-57.5819 L 64.8691,-58.4181 L 65.043,-59.2361 L 65.3831,-60 L 65.8746,-60.6765
 L 66.496,-61.2361 L 67.2202,-61.6542 L 68.0155,-61.9126 L 68.8472,-62 L 131.25,-62 L 132.486,-61.8042
 L 133.25,-61.4641 L 133.927,-60.9726 L 134.486,-60.3511 L 134.904,-59.627 L 135.163,-58.8316 L 135.25,-58
 L 135.25,-26.9697 L 135.207,-26.3827 L 134.998,-25.5729 L 134.626,-24.8241 L 134.106,-24.1691 L 133.461,-23.6365
 L 132.72,-23.2496 L 131.914,-23.0253 L 131.08,-22.9733 z
M 342.347,-18 L 341.516,-18.0874 L 340.72,-18.3458 L 339.996,-18.7639 L 339.375,-19.3235 L 338.883,-20
 L 338.543,-20.7639 L 338.369,-21.5819 L 338.369,-22.4181 L 338.543,-23.2361 L 338.883,-24 L 339.375,-24.6765
 L 339.996,-25.2361 L 340.566,-25.5816 L 402.969,-56.6119 L 403.753,-56.9039 L 404.58,-57.0266 L 405.414,-56.9747
 L 406.22,-56.7504 L 406.961,-56.3635 L 407.606,-55.8309 L 408.126,-55.1759 L 408.498,-54.4271 L 408.707,-53.6173
 L 408.75,-53.0303 L 408.75,-22 L 408.663,-21.1684 L 408.404,-20.373 L 407.986,-19.6489 L 407.427,-19.0274
 L 406.75,-18.5359 L 405.986,-18.1958 L 404.75,-18 z
M 157.25,-18 L 156.014,-18.1958 L 155.25,-18.5359 L 154.573,-19.0274 L 154.014,-19.6489 L 153.596,-20.373
 L 153.337,-21.1684 L 153.25,-22 L 153.25,-53.0303 L 153.293,-53.6173 L 153.502,-54.4271 L 153.874,-55.1759
 L 154.394,-55.8309 L 155.039,-56.3635 L 155.78,-56.7504 L 156.586,-56.9747 L 157.42,-57.0266 L 158.247,-56.9039
 L 159.031,-56.6119 L 221.434,-25.5816 L 222.004,-25.2361 L 222.625,-24.6765 L 223.117,-24 L 223.457,-23.2361
 L 223.631,-22.4181 L 223.631,-21.5819 L 223.457,-20.7639 L 223.117,-20 L 222.625,-19.3235 L 222.004,-18.7639
 L 221.28,-18.3458 L 220.484,-18.0874 L 219.653,-18 z
M 22,-18 L 20.7639,-18.1958 L 20,-18.5359 L 19.3235,-19.0274 L 18.7639,-19.6489 L 18.3458,-20.373
 L 18.0874,-21.1684 L 18,-22 L 18,-52.2844 L 18.0433,-52.8714 L 18.2518,-53.6812 L 18.6242,-54.43
 L 19.144,-55.085 L 19.7887,-55.6176 L 20.53,-56.0045 L 21.3356,-56.2288 L 22.1702,-56.2807 L 22.9974,-56.158
 L 23.781,-55.866 L 84.6838,-25.5816 L 85.2539,-25.2361 L 85.8754,-24.6765 L 86.3669,-24 L 86.707,-23.2361
 L 86.8809,-22.4181 L 86.8809,-21.5819 L 86.707,-20.7639 L 86.3669,-20 L 85.8754,-19.3235 L 85.2539,-18.7639
 L 84.5297,-18.3458 L 83.7344,-18.0874 L 82.9028,-18 z
M 479.097,-18 L 478.266,-18.0874 L 477.47,-18.3458 L 476.746,-18.7639 L 476.125,-19.3235 L 475.633,-20
 L 475.293,-20.7639 L 475.119,-21.5819 L 475.119,-22.4181 L 475.293,-23.2361 L 475.633,-24 L 476.125,-24.6765
 L 476.746,-25.2361 L 477.316,-25.5816 L 538.219,-55.866 L 539.003,-56.158 L 539.83,-56.2807 L 540.664,-56.2288
 L 541.47,-56.0045 L 542.211,-55.6176 L 542.856,-55.085 L 543.376,-54.43 L 543.748,-53.6812 L 543.957,-52.8714
 L 544,-52.2844 L 544,-22 L 543.913,-21.1684 L 543.654,-20.373 L 543.236,-19.6489 L 542.677,-19.0274
 L 542,-18.5359 L 541.236,-18.1958 L 540,-18 z
" stroke="black" fill="lightgray" stroke-width="0.5"/>
</svg>
