<?xml version="1.0" standalone="no"?>
<!DOCTYPE svg PUBLIC "-//W3C//DTD SVG 1.1//EN" "http://www.w3.org/Graphics/SVG/1.1/DTD/svg11.dtd">
<svg width="970mm" height="80mm" viewBox="0 -80 970 80" xmlns="http://www.w3.org/2000/svg" version="1.1">
<title>OpenSCAD Model</title>
<path d="
M 970,-80 L 0,-80 L 0,-0 L 4.95,-0 L 4.95,-6 L 5.00572,-6.53017
 L 5.17046,-7.03717 L 5.437,-7.49884 L 5.79372,-7.895 L 6.22499,-8.20836 L 6.71201,-8.42519 L 7.23344,-8.53603
 L 7.76654,-8.53603 L 8.28798,-8.42519 L 8.77499,-8.20836 L 9.20627,-7.895 L 9.56299,-7.49884 L 9.82953,-7.03717
 L 9.99426,-6.53017 L 10.05,-6 L 10.05,-0 L 195.95,-0 L 195.95,-6 L 196.006,-6.53017
 L 196.17,-7.03717 L 196.437,-7.49884 L 196.794,-7.895 L 197.225,-8.20836 L 197.712,-8.42519 L 198.233,-8.53603
 L 198.767,-8.53603 L 199.288,-8.42519 L 199.775,-8.20836 L 200.206,-7.895 L 200.563,-7.49884 L 200.83,-7.03717
 L 200.994,-6.53017 L 201.05,-6 L 201.05,-0 L 386.95,-0 L 386.95,-6 L 387.006,-6.53017
 L 387.17,-7.03717 L 387.437,-7.49884 L 387.794,-7.895 L 388.225,-8.20836 L 388.712,-8.42519 L 389.233,-8.53603
 L 389.767,-8.53603 L 390.288,-8.42519 L 390.775,-8.20836 L 391.206,-7.895 L 391.563,-7.49884 L 391.83,-7.03717
 L 391.994,-6.53017 L 392.05,-6 L 392.05,-0 L 577.95,-0 L 577.95,-6 L 578.006,-6.53017
 L 578.17,-7.03717 L 578.437,-7.49884 L 578.794,-7.895 L 579.225,-8.20836 L 579.712,-8.42519 L 580.233,-8.53603
 L 580.767,-8.53603 L 581.288,-8.42519 L 581.775,-8.20836 L 582.206,-7.895 L 582.563,-7.49884 L 582.83,-7.03717
 L 582.994,-6.53017 L 583.05,-6 L 583.05,-0 L 768.95,-0 L 768.95,-6 L 769.006,-6.53017
 L 769.17,-7.03717 L 769.437,-7.49884 L 769.794,-7.895 L 770.225,-8.20836 L 770.712,-8.42519 L 771.233,-8.53603
 L 771.767,-8.53603 L 772.288,-8.42519 L 772.775,-8.20836 L 773.206,-7.895 L 773.563,-7.49884 L 773.83,-7.03717
 L 773.994,-6.53017 L 774.05,-6 L 774.05,-0 L 959.95,-0 L 959.95,-6 L 960.006,-6.53017
 L 960.17,-7.03717 L 960.437,-7.49884 L 960.794,-7.895 L 961.225,-8.20836 L 961.712,-8.42519 L 962.233,-8.53603
 L 962.767,-8.53603 L 963.288,-8.42519 L 963.775,-8.20836 L 964.206,-7.895 L 964.563,-7.49884 L 964.83,-7.03717
 L 964.994,-6.53017 L 965.05,-6 L 965.05,-0 L 970,-0 z
M 6.98573,-55.607 L 6.47708,-55.6875 L 5.97964,-55.8208 L 5.49887,-56.0054 L 5.04001,-56.2392 L 4.60811,-56.5196
 L 4.20789,-56.8437 L 3.84373,-57.2079 L 3.51964,-57.6081 L 3.23917,-58.04 L 3.00537,-58.4989 L 2.82082,-58.9796
 L 2.68752,-59.4771 L 2.60696,-59.9857 L 2.58,-60.5 L 2.60696,-61.0143 L 2.68752,-61.5229 L 2.82082,-62.0204
 L 3.00537,-62.5011 L 3.23917,-62.96 L 3.51964,-63.3919 L 3.84373,-63.7921 L 4.20789,-64.1563 L 4.60811,-64.4804
 L 4.95001,-64.7024 L 4.95001,-74 L 5.00574,-74.5302 L 5.17047,-75.0372 L 5.43701,-75.4988 L 5.79373,-75.895
 L 6.22501,-76.2084 L 6.71202,-76.4252 L 7.23346,-76.536 L 7.76654,-76.536 L 8.28798,-76.4252 L 8.77499,-76.2084
 L 9.20627,-75.895 L 9.56299,-75.4988 L 9.82953,-75.0372 L 9.99426,-74.5302 L 10.05,-74 L 10.05,-64.7024
 L 10.3919,-64.4804 L 10.7921,-64.1563 L 11.1563,-63.7921 L 11.4804,-63.3919 L 11.7608,-62.96 L 11.9946,-62.5011
 L 12.1792,-62.0204 L 12.3125,-61.5229 L 12.393,-61.0143 L 12.42,-60.5 L 12.393,-59.9857 L 12.3125,-59.4771
 L 12.1792,-58.9796 L 11.9946,-58.4989 L 11.7608,-58.04 L 11.4804,-57.6081 L 11.1563,-57.2079 L 10.7921,-56.8437
 L 10.3919,-56.5196 L 9.95999,-56.2392 L 9.50113,-56.0054 L 9.02036,-55.8208 L 8.52292,-55.6875 L 8.01427,-55.607
 L 7.5,-55.58 z
M 197.986,-55.607 L 197.477,-55.6875 L 196.98,-55.8208 L 196.499,-56.0054 L 196.04,-56.2392 L 195.608,-56.5196
 L 195.208,-56.8437 L 194.844,-57.2079 L 194.52,-57.6081 L 194.239,-58.04 L 194.005,-58.4989 L 193.821,-58.9796
 L 193.688,-59.4771 L 193.607,-59.9857 L 193.58,-60.5 L 193.607,-61.0143 L 193.688,-61.5229 L 193.821,-62.0204
 L 194.005,-62.5011 L 194.239,-62.96 L 194.52,-63.3919 L 194.844,-63.7921 L 195.208,-64.1563 L 195.608,-64.4804
 L 195.95,-64.7024 L 195.95,-74 L 196.006,-74.5302 L 196.17,-75.0372 L 196.437,-75.4988 L 196.794,-75.895
 L 197.225,-76.2084 L 197.712,-76.4252 L 198.233,-76.536 L 198.767,-76.536 L 199.288,-76.4252 L 199.775,-76.2084
 L 200.206,-75.895 L 200.563,-75.4988 L 200.83,-75.0372 L 200.994,-74.5302 L 201.05,-74 L 201.05,-64.7024
 L 201.392,-64.4804 L 201.792,-64.1563 L 202.156,-63.7921 L 202.48,-63.3919 L 202.761,-62.96 L 202.995,-62.5011
 L 203.179,-62.0204 L 203.312,-61.5229 L 203.393,-61.0143 L 203.42,-60.5 L 203.393,-59.9857 L 203.312,-59.4771
 L 203.179,-58.9796 L 202.995,-58.4989 L 202.761,-58.04 L 202.48,-57.6081 L 202.156,-57.2079 L 201.792,-56.8437
 L 201.392,-56.5196 L 200.96,-56.2392 L 200.501,-56.0054 L 200.02,-55.8208 L 199.523,-55.6875 L 199.014,-55.607
 L 198.5,-55.58 z
M 388.986,-55.607 L 388.477,-55.6875 L 387.98,-55.8208 L 387.499,-56.0054 L 387.04,-56.2392 L 386.608,-56.5196
 L 386.208,-56.8437 L 385.844,-57.2079 L 385.52,-57.6081 L 385.239,-58.04 L 385.005,-58.4989 L 384.821,-58.9796
 L 384.688,-59.4771 L 384.607,-59.9857 L 384.58,-60.5 L 384.607,-61.0143 L 384.688,-61.5229 L 384.821,-62.0204
 L 385.005,-62.5011 L 385.239,-62.96 L 385.52,-63.3919 L 385.844,-63.7921 L 386.208,-64.1563 L 386.608,-64.4804
 L 386.95,-64.7024 L 386.95,-74 L 387.006,-74.5302 L 387.17,-75.0372 L 387.437,-75.4988 L 387.794,-75.895
 L 388.225,-76.2084 L 388.712,-76.4252 L 389.233,-76.536 L 389.767,-76.536 L 390.288,-76.4252 L 390.775,-76.2084
 L 391.206,-75.895 L 391.563,-75.4988 L 391.83,-75.0372 L 391.994,-74.5302 L 392.05,-74 L 392.05,-64.7024
 L 392.392,-64.4804 L 392.792,-64.1563 L 393.156,-63.7921 L 393.48,-63.3919 L 393.761,-62.96 L 393.995,-62.5011
 L 394.179,-62.0204 L 394.312,-61.5229 L 394.393,-61.0143 L 394.42,-60.5 L 394.393,-59.9857 L 394.312,-59.4771
 L 394.179,-58.9796 L 393.995,-58.4989 L 393.761,-58.04 L 393.48,-57.6081 L 393.156,-57.2079 L 392.792,-56.8437
 L 392.392,-56.5196 L 391.96,-56.2392 L 391.501,-56.0054 L 391.02,-55.8208 L 390.523,-55.6875 L 390.014,-55.607
 L 389.5,-55.58 z
M 579.986,-55.607 L 579.477,-55.6875 L 578.98,-55.8208 L 578.499,-56.0054 L 578.04,-56.2392 L 577.608,-56.5196
 L 577.208,-56.8437 L 576.844,-57.2079 L 576.52,-57.6081 L 576.239,-58.04 L 576.005,-58.4989 L 575.821,-58.9796
 L 575.688,-59.4771 L 575.607,-59.9857 L 575.58,-60.5 L 575.607,-61.0143 L 575.688,-61.5229 L 575.821,-62.0204
 L 576.005,-62.5011 L 576.239,-62.96 L 576.52,-63.3919 L 576.844,-63.7921 L 577.208,-64.1563 L 577.608,-64.4804
 L 577.95,-64.7024 L 577.95,-74 L 578.006,-74.5302 L 578.17,-75.0372 L 578.437,-75.4988 L 578.794,-75.895
 L 579.225,-76.2084 L 579.712,-76.4252 L 580.233,-76.536 L 580.767,-76.536 L 581.288,-76.4252 L 581.775,-76.2084
 L 582.206,-75.895 L 582.563,-75.4988 L 582.83,-75.0372 L 582.994,-74.5302 L 583.05,-74 L 583.05,-64.7024
 L 583.392,-64.4804 L 583.792,-64.1563 L 584.156,-63.7921 L 584.48,-63.3919 L 584.761,-62.96 L 584.995,-62.5011
 L 585.179,-62.0204 L 585.312,-61.5229 L 585.393,-61.0143 L 585.42,-60.5 L 585.393,-59.9857 L 585.312,-59.4771
 L 585.179,-58.9796 L 584.995,-58.4989 L 584.761,-58.04 L 584.48,-57.6081 L 584.156,-57.2079 L 583.792,-56.8437
 L 583.392,-56.5196 L 582.96,-56.2392 L 582.501,-56.0054 L 582.02,-55.8208 L 581.523,-55.6875 L 581.014,-55.607
 L 580.5,-55.58 z
M 770.986,-55.607 L 770.477,-55.6875 L 769.98,-55.8208 L 769.499,-56.0054 L 769.04,-56.2392 L 768.608,-56.5196
 L 768.208,-56.8437 L 767.844,-57.2079 L 767.52,-57.6081 L 767.239,-58.04 L 767.005,-58.4989 L 766.821,-58.9796
 L 766.688,-59.4771 L 766.607,-59.9857 L 766.58,-60.5 L 766.607,-61.0143 L 766.688,-61.5229 L 766.821,-62.0204
 L 767.005,-62.5011 L 767.239,-62.96 L 767.52,-63.3919 L 767.844,-63.7921 L 768.208,-64.1563 L 768.608,-64.4804
 L 768.95,-64.7024 L 768.95,-74 L 769.006,-74.5302 L 769.17,-75.0372 L 769.437,-75.4988 L 769.794,-75.895
 L 770.225,-76.2084 L 770.712,-76.4252 L 771.233,-76.536 L 771.767,-76.536 L 772.288,-76.4252 L 772.775,-76.2084
 L 773.206,-75.895 L 773.563,-75.4988 L 773.83,-75.0372 L 773.994,-74.5302 L 774.05,-74 L 774.05,-64.7024
 L 774.392,-64.4804 L 774.792,-64.1563 L 775.156,-63.7921 L 775.48,-63.3919 L 775.761,-62.96 L 775.995,-62.5011
 L 776.179,-62.0204 L 776.312,-61.5229 L 776.393,-61.0143 L 776.42,-60.5 L 776.393,-59.9857 L 776.312,-59.4771
 L 776.179,-58.9796 L 775.995,-58.4989 L 775.761,-58.04 L 775.48,-57.6081 L 775.156,-57.2079 L 774.792,-56.8437
 L 774.392,-56.5196 L 773.96,-56.2392 L 773.501,-56.0054 L 773.02,-55.8208 L 772.523,-55.6875 L 772.014,-55.607
 L 771.5,-55.58 z
M 961.986,-55.607 L 961.477,-55.6875 L 960.98,-55.8208 L 960.499,-56.0054 L 960.04,-56.2392 L 959.608,-56.5196
 L 959.208,-56.8437 L 958.844,-57.2079 L 958.52,-57.6081 L 958.239,-58.04 L 958.005,-58.4989 L 957.821,-58.9796
 L 957.688,-59.4771 L 957.607,-59.9857 L 957.58,-60.5 L 957.607,-61.0143 L 957.688,-61.5229 L 957.821,-62.0204
 L 958.005,-62.5011 L 958.239,-62.96 L 958.52,-63.3919 L 958.844,-63.7921 L 959.208,-64.1563 L 959.608,-64.4804
 L 959.95,-64.7024 L 959.95,-74 L 960.006,-74.5302 L 960.17,-75.0372 L 960.437,-75.4988 L 960.794,-75.895
 L 961.225,-76.2084 L 961.712,-76.4252 L 962.233,-76.536 L 962.767,-76.536 L 963.288,-76.4252 L 963.775,-76.2084
 L 964.206,-75.895 L 964.563,-75.4988 L 964.83,-75.0372 L 964.994,-74.5302 L 965.05,-74 L 965.05,-64.7024
 L 965.392,-64.4804 L 965.792,-64.1563 L 966.156,-63.7921 L 966.48,-63.3919 L 966.761,-62.96 L 966.995,-62.5011
 L 967.179,-62.0204 L 967.312,-61.5229 L 967.393,-61.0143 L 967.42,-60.5 L 967.393,-59.9857 L 967.312,-59.4771
 L 967.179,-58.9796 L 966.995,-58.4989 L 966.761,-58.04 L 966.48,-57.6081 L 966.156,-57.2079 L 965.792,-56.8437
 L 965.392,-56.5196 L 964.96,-56.2392 L 964.501,-56.0054 L 964.02,-55.8208 L 963.523,-55.6875 L 963.014,-55.607
 L 962.5,-55.58 z
M 484.471,-47.7069 L 483.658,-47.9035 L 465.884,-54.2317 L 464.874,-54.7639 L 464.253,-55.3235 L 463.761,-56
 L 463.421,-56.7639 L 463.247,-57.5819 L 463.247,-58.4181 L 463.421,-59.2361 L 463.761,-60 L 464.253,-60.6765
 L 464.874,-61.2361 L 465.598,-61.6542 L 466.394,-61.9126 L 467.225,-62 L 502.775,-62 L 503.904,-61.8372
 L 504.677,-61.5185 L 505.367,-61.046 L 505.944,-60.4404 L 506.382,-59.7281 L 506.663,-58.9404 L 506.773,-58.1115
 L 506.709,-57.2777 L 506.473,-56.4755 L 506.075,-55.7399 L 505.533,-55.1032 L 504.871,-54.593 L 504.116,-54.2317
 L 486.342,-47.9035 L 485.307,-47.6836 z
M 375.971,-20.4573 L 375.158,-20.6539 L 280.844,-54.2317 L 279.835,-54.7639 L 279.213,-55.3235 L 278.722,-56
 L 278.382,-56.7639 L 278.208,-57.5819 L 278.208,-58.4181 L 278.382,-59.2361 L 278.722,-60 L 279.213,-60.6765
 L 279.835,-61.2361 L 280.559,-61.6542 L 281.354,-61.9126 L 282.186,-62 L 376.5,-62 L 377.736,-61.8042
 L 378.5,-61.4641 L 379.177,-60.9726 L 379.736,-60.3511 L 380.154,-59.627 L 380.413,-58.8316 L 380.5,-58
 L 380.5,-24.4222 L 380.388,-23.4819 L 380.107,-22.6941 L 379.669,-21.9818 L 379.093,-21.3762 L 378.403,-20.9037
 L 377.63,-20.585 L 376.807,-20.434 z
M 783.37,-20.585 L 782.597,-20.9037 L 781.907,-21.3762 L 781.331,-21.9818 L 780.893,-22.6941 L 780.612,-23.4819
 L 780.5,-24.4222 L 780.5,-58 L 780.587,-58.8316 L 780.846,-59.627 L 781.264,-60.3511 L 781.823,-60.9726
 L 782.5,-61.4641 L 783.264,-61.8042 L 784.5,-62 L 878.814,-62 L 879.646,-61.9126 L 880.441,-61.6542
 L 881.165,-61.2361 L 881.787,-60.6765 L 882.278,-60 L 882.618,-59.2361 L 882.792,-58.4181 L 882.792,-57.5819
 L 882.618,-56.7639 L 882.278,-56 L 881.787,-55.3235 L 881.165,-54.7639 L 880.156,-54.2317 L 785.842,-20.6539
 L 785.029,-20.4573 L 784.193,-20.434 z
M 184.971,-20.4573 L 184.158,-20.6539 L 89.8443,-54.2317 L 88.8348,-54.7639 L 88.2133,-55.3235 L 87.7218,-56
 L 87.3817,-56.7639 L 87.2078,-57.5819 L 87.2078,-58.4181 L 87.3817,-59.2361 L 87.7218,-60 L 88.2133,-60.6765
 L 88.8348,-61.2361 L 89.559,-61.6542 L 90.3543,-61.9126 L 91.1859,-62 L 185.5,-62 L 186.736,-61.8042
 L 187.5,-61.4641 L 188.177,-60.9726 L 188.736,-60.3511 L 189.154,-59.627 L 189.413,-58.8316 L 189.5,-58
 L 189.5,-24.4222 L 189.388,-23.4819 L 189.107,-22.6941 L 188.669,-21.9818 L 188.093,-21.3762 L 187.403,-20.9037
 L 186.63,-20.585 L 185.807,-20.434 z
M 592.37,-20.585 L 591.597,-20.9037 L 590.907,-21.3762 L 590.331,-21.9818 L 589.893,-22.6941 L 589.612,-23.4819
 L 589.5,-24.4222 L 589.5,-58 L 589.587,-58.8316 L 589.846,-59.627 L 590.264,-60.3511 L 590.823,-60.9726
 L 591.5,-61.4641 L 592.264,-61.8042 L 593.5,-62 L 687.814,-62 L 688.646,-61.9126 L 689.441,-61.6542
 L 690.165,-61.2361 L 690.787,-60.6765 L 691.278,-60 L 691.618,-59.2361 L 691.792,-58.4181 L 691.792,-57.5819
 L 691.618,-56.7639 L 691.278,-56 L 690.787,-55.3235 L 690.165,-54.7639 L 689.156,-54.2317 L 594.842,-20.6539
 L 594.029,-20.4573 L 593.193,-20.434 z
M 402.082,-18.322 L 401.264,-18.4958 L 400.5,-18.836 L 399.823,-19.3275 L 399.264,-19.9489 L 398.846,-20.6731
 L 398.587,-21.4684 L 398.5,-22.3001 L 398.5,-57.6999 L 398.612,-58.6403 L 398.893,-59.4281 L 399.331,-60.1403
 L 399.907,-60.7459 L 400.597,-61.2184 L 401.37,-61.5371 L 402.193,-61.6881 L 403.029,-61.6648 L 403.842,-61.4682
 L 453.558,-43.7683 L 454.119,-43.5185 L 454.809,-43.046 L 455.385,-42.4404 L 455.823,-41.7281 L 456.104,-40.9404
 L 456.214,-40.1115 L 456.15,-39.2777 L 455.914,-38.4755 L 455.516,-37.7399 L 454.974,-37.1032 L 454.312,-36.593
 L 453.558,-36.2317 L 403.842,-18.5318 L 402.918,-18.322 z
M 566.971,-18.3352 L 566.158,-18.5318 L 516.442,-36.2317 L 515.881,-36.4815 L 515.191,-36.954 L 514.615,-37.5596
 L 514.177,-38.2719 L 513.896,-39.0596 L 513.786,-39.8885 L 513.85,-40.7223 L 514.086,-41.5245 L 514.484,-42.2601
 L 515.026,-42.8968 L 515.688,-43.407 L 516.442,-43.7683 L 566.158,-61.4682 L 567.082,-61.678 L 567.918,-61.678
 L 568.736,-61.5042 L 569.5,-61.164 L 570.177,-60.6725 L 570.736,-60.0511 L 571.154,-59.3269 L 571.413,-58.5316
 L 571.5,-57.6999 L 571.5,-22.3001 L 571.388,-21.3597 L 571.107,-20.5719 L 570.669,-19.8597 L 570.093,-19.2541
 L 569.403,-18.7816 L 568.63,-18.4629 L 567.807,-18.3119 z
M 211.5,-18 L 210.264,-18.1958 L 209.5,-18.5359 L 208.823,-19.0274 L 208.264,-19.6489 L 207.846,-20.373
 L 207.587,-21.1684 L 207.5,-22 L 207.5,-55.5778 L 207.612,-56.5181 L 207.893,-57.3059 L 208.331,-58.0182
 L 208.907,-58.6238 L 209.597,-59.0963 L 210.37,-59.415 L 211.193,-59.566 L 212.029,-59.5427 L 212.842,-59.3461
 L 307.156,-25.7683 L 308.165,-25.2361 L 308.787,-24.6765 L 309.278,-24 L 309.618,-23.2361 L 309.792,-22.4181
 L 309.792,-21.5819 L 309.618,-20.7639 L 309.278,-20 L 308.787,-19.3235 L 308.165,-18.7639 L 307.441,-18.3458
 L 306.646,-18.0874 L 305.814,-18 z
M 664.186,-18 L 663.354,-18.0874 L 662.559,-18.3458 L 661.835,-18.7639 L 661.213,-19.3235 L 660.722,-20
 L 660.382,-20.7639 L 660.208,-21.5819 L 660.208,-22.4181 L 660.382,-23.2361 L 660.722,-24 L 661.213,-24.6765
 L 661.835,-25.2361 L 662.844,-25.7683 L 757.158,-59.3461 L 757.971,-59.5427 L 758.807,-59.566 L 759.63,-59.415
 L 760.403,-59.0963 L 761.093,-58.6238 L 761.669,-58.0182 L 762.107,-57.3059 L 762.388,-56.5181 L 762.5,-55.5778
 L 762.5,-22 L 762.413,-21.1684 L 762.154,-20.373 L 761.736,-19.6489 L 761.177,-19.0274 L 760.5,-18.5359
 L 759.736,-18.1958 L 758.5,-18 z
M 22,-18 L 20.7639,-18.1958 L 20,-18.5359 L 19.3235,-19.0274 L 18.7639,-19.6489 L 18.3458,-20.373
 L 18.0874,-21.1684 L 18,-22 L 18,-55.0437 L 18.1121,-55.9841 L 18.3926,-56.7719 L 18.8307,-57.4841
 L 19.4073,-58.0898 L 20.0973,-58.5622 L 20.8704,-58.8809 L 21.6929,-59.0319 L 22.5288,-59.0086 L 23.3416,-58.8121
 L 116.156,-25.7683 L 117.165,-25.2361 L 117.787,-24.6765 L 118.278,-24 L 118.618,-23.2361 L 118.792,-22.4181
 L 118.792,-21.5819 L 118.618,-20.7639 L 118.278,-20 L 117.787,-19.3235 L 117.165,-18.7639 L 116.441,-18.3458
 L 115.646,-18.0874 L 114.814,-18 z
M 855.186,-18 L 854.354,-18.0874 L 853.559,-18.3458 L 852.835,-18.7639 L 852.213,-19.3235 L 851.722,-20
 L 851.382,-20.7639 L 851.208,-21.5819 L 851.208,-22.4181 L 851.382,-23.2361 L 851.722,-24 L 852.213,-24.6765
 L 852.835,-25.2361 L 853.844,-25.7683 L 946.658,-58.8121 L 947.471,-59.0086 L 948.307,-59.0319 L 949.13,-58.8809
 L 949.903,-58.5622 L 950.593,-58.0898 L 951.169,-57.4841 L 951.607,-56.7719 L 951.888,-55.9841 L 952,-55.0437
 L 952,-22 L 951.913,-21.1684 L 951.654,-20.373 L 951.236,-19.6489 L 950.677,-19.0274 L 950,-18.5359
 L 949.236,-18.1958 L 948,-18 z
M 467.225,-18 L 466.096,-18.1628 L 465.322,-18.4815 L 464.633,-18.954 L 464.056,-19.5596 L 463.618,-20.2719
 L 463.337,-21.0596 L 463.227,-21.8885 L 463.291,-22.7223 L 463.527,-23.5245 L 463.925,-24.2601 L 464.467,-24.8968
 L 465.129,-25.407 L 465.884,-25.7683 L 483.658,-32.0965 L 484.693,-32.3164 L 485.529,-32.2931 L 486.342,-32.0965
 L 504.116,-25.7683 L 505.126,-25.2361 L 505.747,-24.6765 L 506.239,-24 L 506.579,-23.2361 L 506.753,-22.4181
 L 506.753,-21.5819 L 506.579,-20.7639 L 506.239,-20 L 505.747,-19.3235 L 505.126,-18.7639 L 504.402,-18.3458
 L 503.606,-18.0874 L 502.775,-18 z
" stroke="black" fill="lightgray" stroke-width="0.5"/>
</svg>
