<?xml version="1.0" standalone="no"?>
<!DOCTYPE svg PUBLIC "-//W3C//DTD SVG 1.1//EN" "http://www.w3.org/Graphics/SVG/1.1/DTD/svg11.dtd">
<svg width="916mm" height="80mm" viewBox="0 -80 916 80" xmlns="http://www.w3.org/2000/svg" version="1.1">
<title>OpenSCAD Model</title>
<path d="
M 916,-80 L 0,-80 L 0,-0 L 4.95,-0 L 4.95,-6 L 5.00572,-6.53017
 L 5.17046,-7.03717 L 5.437,-7.49884 L 5.79372,-7.895 L 6.22499,-8.20836 L 6.71201,-8.42519 L 7.23344,-8.53603
 L 7.76654,-8.53603 L 8.28798,-8.42519 L 8.77499,-8.20836 L 9.20627,-7.895 L 9.56299,-7.49884 L 9.82953,-7.03717
 L 9.99426,-6.53017 L 10.05,-6 L 10.05,-0 L 185.15,-0 L 185.15,-6 L 185.206,-6.53017
 L 185.37,-7.03717 L 185.637,-7.49884 L 185.994,-7.895 L 186.425,-8.20836 L 186.912,-8.42519 L 187.433,-8.53603
 L 187.967,-8.53603 L 188.488,-8.42519 L 188.975,-8.20836 L 189.406,-7.895 L 189.763,-7.49884 L 190.03,-7.03717
 L 190.194,-6.53017 L 190.25,-6 L 190.25,-0 L 365.35,-0 L 365.35,-6 L 365.406,-6.53017
 L 365.57,-7.03717 L 365.837,-7.49884 L 366.194,-7.895 L 366.625,-8.20836 L 367.112,-8.42519 L 367.633,-8.53603
 L 368.167,-8.53603 L 368.688,-8.42519 L 369.175,-8.20836 L 369.606,-7.895 L 369.963,-7.49884 L 370.23,-7.03717
 L 370.394,-6.53017 L 370.45,-6 L 370.45,-0 L 545.55,-0 L 545.55,-6 L 545.606,-6.53017
 L 545.77,-7.03717 L 546.037,-7.49884 L 546.394,-7.895 L 546.825,-8.20836 L 547.312,-8.42519 L 547.833,-8.53603
 L 548.367,-8.53603 L 548.888,-8.42519 L 549.375,-8.20836 L 549.806,-7.895 L 550.163,-7.49884 L 550.43,-7.03717
 L 550.594,-6.53017 L 550.65,-6 L 550.65,-0 L 725.75,-0 L 725.75,-6 L 725.806,-6.53017
 L 725.97,-7.03717 L 726.237,-7.49884 L 726.594,-7.895 L 727.025,-8.20836 L 727.512,-8.42519 L 728.033,-8.53603
 L 728.567,-8.53603 L 729.088,-8.42519 L 729.575,-8.20836 L 730.006,-7.895 L 730.363,-7.49884 L 730.63,-7.03717
 L 730.794,-6.53017 L 730.85,-6 L 730.85,-0 L 905.95,-0 L 905.95,-6 L 906.006,-6.53017
 L 906.17,-7.03717 L 906.437,-7.49884 L 906.794,-7.895 L 907.225,-8.20836 L 907.712,-8.42519 L 908.233,-8.53603
 L 908.767,-8.53603 L 909.288,-8.42519 L 909.775,-8.20836 L 910.206,-7.895 L 910.563,-7.49884 L 910.83,-7.03717
 L 910.994,-6.53017 L 911.05,-6 L 911.05,-0 L 916,-0 z
M 6.98573,-55.607 L 6.47708,-55.6875 L 5.97964,-55.8208 L 5.49887,-56.0054 L 5.04001,-56.2392 L 4.60811,-56.5196
 L 4.20789,-56.8437 L 3.84373,-57.2079 L 3.51964,-57.6081 L 3.23917,-58.04 L 3.00537,-58.4989 L 2.82082,-58.9796
 L 2.68752,-59.4771 L 2.60696,-59.9857 L 2.58,-60.5 L 2.60696,-61.0143 L 2.68752,-61.5229 L 2.82082,-62.0204
 L 3.00537,-62.5011 L 3.23917,-62.96 L 3.51964,-63.3919 L 3.84373,-63.7921 L 4.20789,-64.1563 L 4.60811,-64.4804
 L 4.95001,-64.7024 L 4.95001,-74 L 5.00574,-74.5302 L 5.17047,-75.0372 L 5.43701,-75.4988 L 5.79373,-75.895
 L 6.22501,-76.2084 L 6.71202,-76.4252 L 7.23346,-76.536 L 7.76654,-76.536 L 8.28798,-76.4252 L 8.77499,-76.2084
 L 9.20627,-75.895 L 9.56299,-75.4988 L 9.82953,-75.0372 L 9.99426,-74.5302 L 10.05,-74 L 10.05,-64.7024
 L 10.3919,-64.4804 L 10.7921,-64.1563 L 11.1563,-63.7921 L 11.4804,-63.3919 L 11.7608,-62.96 L 11.9946,-62.5011
 L 12.1792,-62.0204 L 12.3125,-61.5229 L 12.393,-61.0143 L 12.42,-60.5 L 12.393,-59.9857 L 12.3125,-59.4771
 L 12.1792,-58.9796 L 11.9946,-58.4989 L 11.7608,-58.04 L 11.4804,-57.6081 L 11.1563,-57.2079 L 10.7921,-56.8437
 L 10.3919,-56.5196 L 9.95999,-56.2392 L 9.50113,-56.0054 L 9.02036,-55.8208 L 8.52292,-55.6875 L 8.01427,-55.607
 L 7.5,-55.58 z
M 187.186,-55.607 L 186.677,-55.6875 L 186.18,-55.8208 L 185.699,-56.0054 L 185.24,-56.2392 L 184.808,-56.5196
 L 184.408,-56.8437 L 184.044,-57.2079 L 183.72,-57.6081 L 183.439,-58.04 L 183.205,-58.4989 L 183.021,-58.9796
 L 182.888,-59.4771 L 182.807,-59.9857 L 182.78,-60.5 L 182.807,-61.0143 L 182.888,-61.5229 L 183.021,-62.0204
 L 183.205,-62.5011 L 183.439,-62.96 L 183.72,-63.3919 L 184.044,-63.7921 L 184.408,-64.1563 L 184.808,-64.4804
 L 185.15,-64.7024 L 185.15,-74 L 185.206,-74.5302 L 185.37,-75.0372 L 185.637,-75.4988 L 185.994,-75.895
 L 186.425,-76.2084 L 186.912,-76.4252 L 187.433,-76.536 L 187.967,-76.536 L 188.488,-76.4252 L 188.975,-76.2084
 L 189.406,-75.895 L 189.763,-75.4988 L 190.03,-75.0372 L 190.194,-74.5302 L 190.25,-74 L 190.25,-64.7024
 L 190.592,-64.4804 L 190.992,-64.1563 L 191.356,-63.7921 L 191.68,-63.3919 L 191.961,-62.96 L 192.195,-62.5011
 L 192.379,-62.0204 L 192.512,-61.5229 L 192.593,-61.0143 L 192.62,-60.5 L 192.593,-59.9857 L 192.512,-59.4771
 L 192.379,-58.9796 L 192.195,-58.4989 L 191.961,-58.04 L 191.68,-57.6081 L 191.356,-57.2079 L 190.992,-56.8437
 L 190.592,-56.5196 L 190.16,-56.2392 L 189.701,-56.0054 L 189.22,-55.8208 L 188.723,-55.6875 L 188.214,-55.607
 L 187.7,-55.58 z
M 367.386,-55.607 L 366.877,-55.6875 L 366.38,-55.8208 L 365.899,-56.0054 L 365.44,-56.2392 L 365.008,-56.5196
 L 364.608,-56.8437 L 364.244,-57.2079 L 363.92,-57.6081 L 363.639,-58.04 L 363.405,-58.4989 L 363.221,-58.9796
 L 363.088,-59.4771 L 363.007,-59.9857 L 362.98,-60.5 L 363.007,-61.0143 L 363.088,-61.5229 L 363.221,-62.0204
 L 363.405,-62.5011 L 363.639,-62.96 L 363.92,-63.3919 L 364.244,-63.7921 L 364.608,-64.1563 L 365.008,-64.4804
 L 365.35,-64.7024 L 365.35,-74 L 365.406,-74.5302 L 365.57,-75.0372 L 365.837,-75.4988 L 366.194,-75.895
 L 366.625,-76.2084 L 367.112,-76.4252 L 367.633,-76.536 L 368.167,-76.536 L 368.688,-76.4252 L 369.175,-76.2084
 L 369.606,-75.895 L 369.963,-75.4988 L 370.23,-75.0372 L 370.394,-74.5302 L 370.45,-74 L 370.45,-64.7024
 L 370.792,-64.4804 L 371.192,-64.1563 L 371.556,-63.7921 L 371.88,-63.3919 L 372.161,-62.96 L 372.395,-62.5011
 L 372.579,-62.0204 L 372.712,-61.5229 L 372.793,-61.0143 L 372.82,-60.5 L 372.793,-59.9857 L 372.712,-59.4771
 L 372.579,-58.9796 L 372.395,-58.4989 L 372.161,-58.04 L 371.88,-57.6081 L 371.556,-57.2079 L 371.192,-56.8437
 L 370.792,-56.5196 L 370.36,-56.2392 L 369.901,-56.0054 L 369.42,-55.8208 L 368.923,-55.6875 L 368.414,-55.607
 L 367.9,-55.58 z
M 547.586,-55.607 L 547.077,-55.6875 L 546.58,-55.8208 L 546.099,-56.0054 L 545.64,-56.2392 L 545.208,-56.5196
 L 544.808,-56.8437 L 544.444,-57.2079 L 544.12,-57.6081 L 543.839,-58.04 L 543.605,-58.4989 L 543.421,-58.9796
 L 543.288,-59.4771 L 543.207,-59.9857 L 543.18,-60.5 L 543.207,-61.0143 L 543.288,-61.5229 L 543.421,-62.0204
 L 543.605,-62.5011 L 543.839,-62.96 L 544.12,-63.3919 L 544.444,-63.7921 L 544.808,-64.1563 L 545.208,-64.4804
 L 545.55,-64.7024 L 545.55,-74 L 545.606,-74.5302 L 545.77,-75.0372 L 546.037,-75.4988 L 546.394,-75.895
 L 546.825,-76.2084 L 547.312,-76.4252 L 547.833,-76.536 L 548.367,-76.536 L 548.888,-76.4252 L 549.375,-76.2084
 L 549.806,-75.895 L 550.163,-75.4988 L 550.43,-75.0372 L 550.594,-74.5302 L 550.65,-74 L 550.65,-64.7024
 L 550.992,-64.4804 L 551.392,-64.1563 L 551.756,-63.7921 L 552.08,-63.3919 L 552.361,-62.96 L 552.595,-62.5011
 L 552.779,-62.0204 L 552.912,-61.5229 L 552.993,-61.0143 L 553.02,-60.5 L 552.993,-59.9857 L 552.912,-59.4771
 L 552.779,-58.9796 L 552.595,-58.4989 L 552.361,-58.04 L 552.08,-57.6081 L 551.756,-57.2079 L 551.392,-56.8437
 L 550.992,-56.5196 L 550.56,-56.2392 L 550.101,-56.0054 L 549.62,-55.8208 L 549.123,-55.6875 L 548.614,-55.607
 L 548.1,-55.58 z
M 727.786,-55.607 L 727.277,-55.6875 L 726.78,-55.8208 L 726.299,-56.0054 L 725.84,-56.2392 L 725.408,-56.5196
 L 725.008,-56.8437 L 724.644,-57.2079 L 724.32,-57.6081 L 724.039,-58.04 L 723.805,-58.4989 L 723.621,-58.9796
 L 723.488,-59.4771 L 723.407,-59.9857 L 723.38,-60.5 L 723.407,-61.0143 L 723.488,-61.5229 L 723.621,-62.0204
 L 723.805,-62.5011 L 724.039,-62.96 L 724.32,-63.3919 L 724.644,-63.7921 L 725.008,-64.1563 L 725.408,-64.4804
 L 725.75,-64.7024 L 725.75,-74 L 725.806,-74.5302 L 725.97,-75.0372 L 726.237,-75.4988 L 726.594,-75.895
 L 727.025,-76.2084 L 727.512,-76.4252 L 728.033,-76.536 L 728.567,-76.536 L 729.088,-76.4252 L 729.575,-76.2084
 L 730.006,-75.895 L 730.363,-75.4988 L 730.63,-75.0372 L 730.794,-74.5302 L 730.85,-74 L 730.85,-64.7024
 L 731.192,-64.4804 L 731.592,-64.1563 L 731.956,-63.7921 L 732.28,-63.3919 L 732.561,-62.96 L 732.795,-62.5011
 L 732.979,-62.0204 L 733.112,-61.5229 L 733.193,-61.0143 L 733.22,-60.5 L 733.193,-59.9857 L 733.112,-59.4771
 L 732.979,-58.9796 L 732.795,-58.4989 L 732.561,-58.04 L 732.28,-57.6081 L 731.956,-57.2079 L 731.592,-56.8437
 L 731.192,-56.5196 L 730.76,-56.2392 L 730.301,-56.0054 L 729.82,-55.8208 L 729.323,-55.6875 L 728.814,-55.607
 L 728.3,-55.58 z
M 907.986,-55.607 L 907.477,-55.6875 L 906.98,-55.8208 L 906.499,-56.0054 L 906.04,-56.2392 L 905.608,-56.5196
 L 905.208,-56.8437 L 904.844,-57.2079 L 904.52,-57.6081 L 904.239,-58.04 L 904.005,-58.4989 L 903.821,-58.9796
 L 903.688,-59.4771 L 903.607,-59.9857 L 903.58,-60.5 L 903.607,-61.0143 L 903.688,-61.5229 L 903.821,-62.0204
 L 904.005,-62.5011 L 904.239,-62.96 L 904.52,-63.3919 L 904.844,-63.7921 L 905.208,-64.1563 L 905.608,-64.4804
 L 905.95,-64.7024 L 905.95,-74 L 906.006,-74.5302 L 906.17,-75.0372 L 906.437,-75.4988 L 906.794,-75.895
 L 907.225,-76.2084 L 907.712,-76.4252 L 908.233,-76.536 L 908.767,-76.536 L 909.288,-76.4252 L 909.775,-76.2084
 L 910.206,-75.895 L 910.563,-75.4988 L 910.83,-75.0372 L 910.994,-74.5302 L 911.05,-74 L 911.05,-64.7024
 L 911.392,-64.4804 L 911.792,-64.1563 L 912.156,-63.7921 L 912.48,-63.3919 L 912.761,-62.96 L 912.995,-62.5011
 L 913.179,-62.0204 L 913.312,-61.5229 L 913.393,-61.0143 L 913.42,-60.5 L 913.393,-59.9857 L 913.312,-59.4771
 L 913.179,-58.9796 L 912.995,-58.4989 L 912.761,-58.04 L 912.48,-57.6081 L 912.156,-57.2079 L 911.792,-56.8437
 L 911.392,-56.5196 L 910.96,-56.2392 L 910.501,-56.0054 L 910.02,-55.8208 L 909.523,-55.6875 L 909.014,-55.607
 L 908.5,-55.58 z
M 457.397,-47.7901 L 456.588,-48.0019 L 440.01,-54.2576 L 439.071,-54.7639 L 438.45,-55.3235 L 437.958,-56
 L 437.618,-56.7639 L 437.444,-57.5819 L 437.444,-58.4181 L 437.618,-59.2361 L 437.958,-60 L 438.45,-60.6765
 L 439.071,-61.2361 L 439.795,-61.6542 L 440.591,-61.9126 L 441.422,-62 L 474.578,-62 L 475.635,-61.8578
 L 476.414,-61.5536 L 477.112,-61.0942 L 477.7,-60.4996 L 478.152,-59.7957 L 478.447,-59.0133 L 478.573,-58.1866
 L 478.525,-57.3518 L 478.304,-56.5453 L 477.92,-55.8024 L 477.39,-55.1555 L 476.737,-54.633 L 475.99,-54.2576
 L 459.412,-48.0019 L 458.232,-47.7511 z
M 354.297,-20.8311 L 353.488,-21.0429 L 265.469,-54.2576 L 264.53,-54.7639 L 263.908,-55.3235 L 263.417,-56
 L 263.077,-56.7639 L 262.903,-57.5819 L 262.903,-58.4181 L 263.077,-59.2361 L 263.417,-60 L 263.908,-60.6765
 L 264.53,-61.2361 L 265.254,-61.6542 L 266.049,-61.9126 L 266.881,-62 L 354.9,-62 L 356.136,-61.8042
 L 356.9,-61.4641 L 357.577,-60.9726 L 358.136,-60.3511 L 358.554,-59.627 L 358.813,-58.8316 L 358.9,-58
 L 358.9,-24.7853 L 358.77,-23.772 L 358.474,-22.9896 L 358.023,-22.2857 L 357.435,-21.6911 L 356.736,-21.2317
 L 355.957,-20.9276 L 355.132,-20.792 z
M 740.243,-20.9276 L 739.464,-21.2317 L 738.765,-21.6911 L 738.177,-22.2857 L 737.726,-22.9896 L 737.43,-23.772
 L 737.3,-24.7853 L 737.3,-58 L 737.387,-58.8316 L 737.646,-59.627 L 738.064,-60.3511 L 738.623,-60.9726
 L 739.3,-61.4641 L 740.064,-61.8042 L 741.3,-62 L 829.319,-62 L 830.151,-61.9126 L 830.946,-61.6542
 L 831.67,-61.2361 L 832.292,-60.6765 L 832.783,-60 L 833.123,-59.2361 L 833.297,-58.4181 L 833.297,-57.5819
 L 833.123,-56.7639 L 832.783,-56 L 832.292,-55.3235 L 831.67,-54.7639 L 830.731,-54.2576 L 742.712,-21.0429
 L 741.903,-20.8311 L 741.068,-20.792 z
M 174.097,-20.8311 L 173.288,-21.0429 L 85.2688,-54.2576 L 84.3299,-54.7639 L 83.7085,-55.3235 L 83.217,-56
 L 82.8768,-56.7639 L 82.703,-57.5819 L 82.703,-58.4181 L 82.8768,-59.2361 L 83.217,-60 L 83.7085,-60.6765
 L 84.3299,-61.2361 L 85.0541,-61.6542 L 85.8494,-61.9126 L 86.6811,-62 L 174.7,-62 L 175.936,-61.8042
 L 176.7,-61.4641 L 177.377,-60.9726 L 177.936,-60.3511 L 178.354,-59.627 L 178.613,-58.8316 L 178.7,-58
 L 178.7,-24.7853 L 178.57,-23.772 L 178.274,-22.9896 L 177.823,-22.2857 L 177.235,-21.6911 L 176.536,-21.2317
 L 175.757,-20.9276 L 174.932,-20.792 z
M 560.043,-20.9276 L 559.264,-21.2317 L 558.565,-21.6911 L 557.977,-22.2857 L 557.526,-22.9896 L 557.23,-23.772
 L 557.1,-24.7853 L 557.1,-58 L 557.187,-58.8316 L 557.446,-59.627 L 557.864,-60.3511 L 558.423,-60.9726
 L 559.1,-61.4641 L 559.864,-61.8042 L 561.1,-62 L 649.119,-62 L 649.951,-61.9126 L 650.746,-61.6542
 L 651.47,-61.2361 L 652.091,-60.6765 L 652.583,-60 L 652.923,-59.2361 L 653.097,-58.4181 L 653.097,-57.5819
 L 652.923,-56.7639 L 652.583,-56 L 652.091,-55.3235 L 651.47,-54.7639 L 650.531,-54.2576 L 562.512,-21.0429
 L 561.703,-20.8311 L 560.868,-20.792 z
M 380.482,-18.6719 L 379.664,-18.8458 L 378.9,-19.1859 L 378.223,-19.6774 L 377.664,-20.2989 L 377.246,-21.023
 L 376.987,-21.8183 L 376.9,-22.65 L 376.9,-57.35 L 377.03,-58.3633 L 377.326,-59.1457 L 377.777,-59.8496
 L 378.365,-60.4442 L 379.064,-60.9037 L 379.843,-61.2078 L 380.668,-61.3433 L 381.503,-61.3042 L 382.312,-61.0924
 L 428.29,-43.7424 L 428.714,-43.5536 L 429.412,-43.0942 L 430,-42.4996 L 430.452,-41.7957 L 430.747,-41.0133
 L 430.873,-40.1866 L 430.825,-39.3518 L 430.604,-38.5453 L 430.22,-37.8024 L 429.69,-37.1555 L 429.037,-36.633
 L 428.29,-36.2576 L 382.312,-18.9076 L 381.318,-18.6719 z
M 534.497,-18.6957 L 533.688,-18.9076 L 487.71,-36.2576 L 487.286,-36.4464 L 486.588,-36.9058 L 486,-37.5004
 L 485.548,-38.2043 L 485.253,-38.9867 L 485.127,-39.8134 L 485.175,-40.6482 L 485.396,-41.4547 L 485.78,-42.1976
 L 486.31,-42.8445 L 486.963,-43.367 L 487.71,-43.7424 L 533.688,-61.0924 L 534.682,-61.3281 L 535.518,-61.3281
 L 536.336,-61.1543 L 537.1,-60.8141 L 537.777,-60.3226 L 538.336,-59.7012 L 538.754,-58.977 L 539.013,-58.1817
 L 539.1,-57.35 L 539.1,-22.65 L 538.97,-21.6367 L 538.674,-20.8543 L 538.223,-20.1504 L 537.635,-19.5558
 L 536.936,-19.0963 L 536.157,-18.7922 L 535.332,-18.6567 z
M 200.7,-18 L 199.464,-18.1958 L 198.7,-18.5359 L 198.023,-19.0274 L 197.464,-19.6489 L 197.046,-20.373
 L 196.787,-21.1684 L 196.7,-22 L 196.7,-55.2147 L 196.83,-56.228 L 197.126,-57.0104 L 197.577,-57.7142
 L 198.165,-58.3089 L 198.864,-58.7683 L 199.643,-59.0724 L 200.468,-59.2079 L 201.303,-59.1689 L 202.112,-58.9571
 L 290.131,-25.7424 L 291.07,-25.2361 L 291.691,-24.6765 L 292.183,-24 L 292.523,-23.2361 L 292.697,-22.4181
 L 292.697,-21.5819 L 292.523,-20.7639 L 292.183,-20 L 291.691,-19.3235 L 291.07,-18.7639 L 290.346,-18.3458
 L 289.551,-18.0874 L 288.719,-18 z
M 627.281,-18 L 626.449,-18.0874 L 625.654,-18.3458 L 624.93,-18.7639 L 624.309,-19.3235 L 623.817,-20
 L 623.477,-20.7639 L 623.303,-21.5819 L 623.303,-22.4181 L 623.477,-23.2361 L 623.817,-24 L 624.309,-24.6765
 L 624.93,-25.2361 L 625.869,-25.7424 L 713.888,-58.9571 L 714.697,-59.1689 L 715.532,-59.2079 L 716.357,-59.0724
 L 717.136,-58.7683 L 717.835,-58.3089 L 718.423,-57.7142 L 718.874,-57.0104 L 719.17,-56.228 L 719.3,-55.2147
 L 719.3,-22 L 719.213,-21.1684 L 718.954,-20.373 L 718.536,-19.6489 L 717.977,-19.0274 L 717.3,-18.5359
 L 716.536,-18.1958 L 715.3,-18 z
M 22,-18 L 20.7639,-18.1958 L 20,-18.5359 L 19.3235,-19.0274 L 18.7639,-19.6489 L 18.3458,-20.373
 L 18.0874,-21.1684 L 18,-22 L 18,-54.6486 L 18.1305,-55.6619 L 18.4257,-56.4443 L 18.8772,-57.1482
 L 19.4651,-57.7429 L 20.1638,-58.2023 L 20.9428,-58.5064 L 21.768,-58.6419 L 22.6033,-58.6029 L 23.4122,-58.391
 L 109.931,-25.7424 L 110.87,-25.2361 L 111.491,-24.6765 L 111.983,-24 L 112.323,-23.2361 L 112.497,-22.4181
 L 112.497,-21.5819 L 112.323,-20.7639 L 111.983,-20 L 111.491,-19.3235 L 110.87,-18.7639 L 110.146,-18.3458
 L 109.351,-18.0874 L 108.519,-18 z
M 807.481,-18 L 806.649,-18.0874 L 805.854,-18.3458 L 805.13,-18.7639 L 804.509,-19.3235 L 804.017,-20
 L 803.677,-20.7639 L 803.503,-21.5819 L 803.503,-22.4181 L 803.677,-23.2361 L 804.017,-24 L 804.509,-24.6765
 L 805.13,-25.2361 L 806.069,-25.7424 L 892.588,-58.391 L 893.397,-58.6029 L 894.232,-58.6419 L 895.057,-58.5064
 L 895.836,-58.2023 L 896.535,-57.7429 L 897.123,-57.1482 L 897.574,-56.4443 L 897.87,-55.6619 L 898,-54.6486
 L 898,-22 L 897.913,-21.1684 L 897.654,-20.373 L 897.236,-19.6489 L 896.677,-19.0274 L 896,-18.5359
 L 895.236,-18.1958 L 894,-18 z
M 441.422,-18 L 440.365,-18.1422 L 439.586,-18.4464 L 438.888,-18.9058 L 438.3,-19.5004 L 437.848,-20.2043
 L 437.553,-20.9867 L 437.427,-21.8134 L 437.475,-22.6482 L 437.696,-23.4547 L 438.08,-24.1976 L 438.61,-24.8445
 L 439.263,-25.367 L 440.01,-25.7424 L 456.588,-31.9981 L 457.768,-32.2489 L 458.603,-32.2099 L 459.412,-31.9981
 L 475.99,-25.7424 L 476.929,-25.2361 L 477.55,-24.6765 L 478.042,-24 L 478.382,-23.2361 L 478.556,-22.4181
 L 478.556,-21.5819 L 478.382,-20.7639 L 478.042,-20 L 477.55,-19.3235 L 476.929,-18.7639 L 476.204,-18.3458
 L 475.409,-18.0874 L 474.578,-18 z
" stroke="black" fill="lightgray" stroke-width="0.5"/>
</svg>
