<?xml version="1.0" standalone="no"?>
<!DOCTYPE svg PUBLIC "-//W3C//DTD SVG 1.1//EN" "http://www.w3.org/Graphics/SVG/1.1/DTD/svg11.dtd">
<svg width="772mm" height="80mm" viewBox="0 -80 772 80" xmlns="http://www.w3.org/2000/svg" version="1.1">
<title>OpenSCAD Model</title>
<path d="
M 772,-80 L 0,-80 L 0,-0 L 4.95,-0 L 4.95,-6 L 5.00572,-6.53017
 L 5.17046,-7.03717 L 5.437,-7.49884 L 5.79372,-7.895 L 6.22499,-8.20836 L 6.71201,-8.42519 L 7.23344,-8.53603
 L 7.76654,-8.53603 L 8.28798,-8.42519 L 8.77499,-8.20836 L 9.20627,-7.895 L 9.56299,-7.49884 L 9.82953,-7.03717
 L 9.99426,-6.53017 L 10.05,-6 L 10.05,-0 L 156.35,-0 L 156.35,-6 L 156.406,-6.53017
 L 156.57,-7.03717 L 156.837,-7.49884 L 157.194,-7.895 L 157.625,-8.20836 L 158.112,-8.42519 L 158.633,-8.53603
 L 159.167,-8.53603 L 159.688,-8.42519 L 160.175,-8.20836 L 160.606,-7.895 L 160.963,-7.49884 L 161.23,-7.03717
 L 161.394,-6.53017 L 161.45,-6 L 161.45,-0 L 307.75,-0 L 307.75,-6 L 307.806,-6.53017
 L 307.97,-7.03717 L 308.237,-7.49884 L 308.594,-7.895 L 309.025,-8.20836 L 309.512,-8.42519 L 310.033,-8.53603
 L 310.567,-8.53603 L 311.088,-8.42519 L 311.575,-8.20836 L 312.006,-7.895 L 312.363,-7.49884 L 312.63,-7.03717
 L 312.794,-6.53017 L 312.85,-6 L 312.85,-0 L 459.15,-0 L 459.15,-6 L 459.206,-6.53017
 L 459.37,-7.03717 L 459.637,-7.49884 L 459.994,-7.895 L 460.425,-8.20836 L 460.912,-8.42519 L 461.433,-8.53603
 L 461.967,-8.53603 L 462.488,-8.42519 L 462.975,-8.20836 L 463.406,-7.895 L 463.763,-7.49884 L 464.03,-7.03717
 L 464.194,-6.53017 L 464.25,-6 L 464.25,-0 L 610.55,-0 L 610.55,-6 L 610.606,-6.53017
 L 610.77,-7.03717 L 611.037,-7.49884 L 611.394,-7.895 L 611.825,-8.20836 L 612.312,-8.42519 L 612.833,-8.53603
 L 613.367,-8.53603 L 613.888,-8.42519 L 614.375,-8.20836 L 614.806,-7.895 L 615.163,-7.49884 L 615.43,-7.03717
 L 615.594,-6.53017 L 615.65,-6 L 615.65,-0 L 761.95,-0 L 761.95,-6 L 762.006,-6.53017
 L 762.17,-7.03717 L 762.437,-7.49884 L 762.794,-7.895 L 763.225,-8.20836 L 763.712,-8.42519 L 764.233,-8.53603
 L 764.767,-8.53603 L 765.288,-8.42519 L 765.775,-8.20836 L 766.206,-7.895 L 766.563,-7.49884 L 766.83,-7.03717
 L 766.994,-6.53017 L 767.05,-6 L 767.05,-0 L 772,-0 z
M 6.98573,-55.607 L 6.47708,-55.6875 L 5.97964,-55.8208 L 5.49887,-56.0054 L 5.04001,-56.2392 L 4.60811,-56.5196
 L 4.20789,-56.8437 L 3.84373,-57.2079 L 3.51964,-57.6081 L 3.23917,-58.04 L 3.00537,-58.4989 L 2.82082,-58.9796
 L 2.68752,-59.4771 L 2.60696,-59.9857 L 2.58,-60.5 L 2.60696,-61.0143 L 2.68752,-61.5229 L 2.82082,-62.0204
 L 3.00537,-62.5011 L 3.23917,-62.96 L 3.51964,-63.3919 L 3.84373,-63.7921 L 4.20789,-64.1563 L 4.60811,-64.4804
 L 4.95001,-64.7024 L 4.95001,-74 L 5.00574,-74.5302 L 5.17047,-75.0372 L 5.43701,-75.4988 L 5.79373,-75.895
 L 6.22501,-76.2084 L 6.71202,-76.4252 L 7.23346,-76.536 L 7.76654,-76.536 L 8.28798,-76.4252 L 8.77499,-76.2084
 L 9.20627,-75.895 L 9.56299,-75.4988 L 9.82953,-75.0372 L 9.99426,-74.5302 L 10.05,-74 L 10.05,-64.7024
 L 10.3919,-64.4804 L 10.7921,-64.1563 L 11.1563,-63.7921 L 11.4804,-63.3919 L 11.7608,-62.96 L 11.9946,-62.5011
 L 12.1792,-62.0204 L 12.3125,-61.5229 L 12.393,-61.0143 L 12.42,-60.5 L 12.393,-59.9857 L 12.3125,-59.4771
 L 12.1792,-58.9796 L 11.9946,-58.4989 L 11.7608,-58.04 L 11.4804,-57.6081 L 11.1563,-57.2079 L 10.7921,-56.8437
 L 10.3919,-56.5196 L 9.95999,-56.2392 L 9.50113,-56.0054 L 9.02036,-55.8208 L 8.52292,-55.6875 L 8.01427,-55.607
 L 7.5,-55.58 z
M 158.386,-55.607 L 157.877,-55.6875 L 157.38,-55.8208 L 156.899,-56.0054 L 156.44,-56.2392 L 156.008,-56.5196
 L 155.608,-56.8437 L 155.244,-57.2079 L 154.92,-57.6081 L 154.639,-58.04 L 154.405,-58.4989 L 154.221,-58.9796
 L 154.088,-59.4771 L 154.007,-59.9857 L 153.98,-60.5 L 154.007,-61.0143 L 154.088,-61.5229 L 154.221,-62.0204
 L 154.405,-62.5011 L 154.639,-62.96 L 154.92,-63.3919 L 155.244,-63.7921 L 155.608,-64.1563 L 156.008,-64.4804
 L 156.35,-64.7024 L 156.35,-74 L 156.406,-74.5302 L 156.57,-75.0372 L 156.837,-75.4988 L 157.194,-75.895
 L 157.625,-76.2084 L 158.112,-76.4252 L 158.633,-76.536 L 159.167,-76.536 L 159.688,-76.4252 L 160.175,-76.2084
 L 160.606,-75.895 L 160.963,-75.4988 L 161.23,-75.0372 L 161.394,-74.5302 L 161.45,-74 L 161.45,-64.7024
 L 161.792,-64.4804 L 162.192,-64.1563 L 162.556,-63.7921 L 162.88,-63.3919 L 163.161,-62.96 L 163.395,-62.5011
 L 163.579,-62.0204 L 163.712,-61.5229 L 163.793,-61.0143 L 163.82,-60.5 L 163.793,-59.9857 L 163.712,-59.4771
 L 163.579,-58.9796 L 163.395,-58.4989 L 163.161,-58.04 L 162.88,-57.6081 L 162.556,-57.2079 L 162.192,-56.8437
 L 161.792,-56.5196 L 161.36,-56.2392 L 160.901,-56.0054 L 160.42,-55.8208 L 159.923,-55.6875 L 159.414,-55.607
 L 158.9,-55.58 z
M 309.786,-55.607 L 309.277,-55.6875 L 308.78,-55.8208 L 308.299,-56.0054 L 307.84,-56.2392 L 307.408,-56.5196
 L 307.008,-56.8437 L 306.644,-57.2079 L 306.32,-57.6081 L 306.039,-58.04 L 305.805,-58.4989 L 305.621,-58.9796
 L 305.488,-59.4771 L 305.407,-59.9857 L 305.38,-60.5 L 305.407,-61.0143 L 305.488,-61.5229 L 305.621,-62.0204
 L 305.805,-62.5011 L 306.039,-62.96 L 306.32,-63.3919 L 306.644,-63.7921 L 307.008,-64.1563 L 307.408,-64.4804
 L 307.75,-64.7024 L 307.75,-74 L 307.806,-74.5302 L 307.97,-75.0372 L 308.237,-75.4988 L 308.594,-75.895
 L 309.025,-76.2084 L 309.512,-76.4252 L 310.033,-76.536 L 310.567,-76.536 L 311.088,-76.4252 L 311.575,-76.2084
 L 312.006,-75.895 L 312.363,-75.4988 L 312.63,-75.0372 L 312.794,-74.5302 L 312.85,-74 L 312.85,-64.7024
 L 313.192,-64.4804 L 313.592,-64.1563 L 313.956,-63.7921 L 314.28,-63.3919 L 314.561,-62.96 L 314.795,-62.5011
 L 314.979,-62.0204 L 315.112,-61.5229 L 315.193,-61.0143 L 315.22,-60.5 L 315.193,-59.9857 L 315.112,-59.4771
 L 314.979,-58.9796 L 314.795,-58.4989 L 314.561,-58.04 L 314.28,-57.6081 L 313.956,-57.2079 L 313.592,-56.8437
 L 313.192,-56.5196 L 312.76,-56.2392 L 312.301,-56.0054 L 311.82,-55.8208 L 311.323,-55.6875 L 310.814,-55.607
 L 310.3,-55.58 z
M 461.186,-55.607 L 460.677,-55.6875 L 460.18,-55.8208 L 459.699,-56.0054 L 459.24,-56.2392 L 458.808,-56.5196
 L 458.408,-56.8437 L 458.044,-57.2079 L 457.72,-57.6081 L 457.439,-58.04 L 457.205,-58.4989 L 457.021,-58.9796
 L 456.888,-59.4771 L 456.807,-59.9857 L 456.78,-60.5 L 456.807,-61.0143 L 456.888,-61.5229 L 457.021,-62.0204
 L 457.205,-62.5011 L 457.439,-62.96 L 457.72,-63.3919 L 458.044,-63.7921 L 458.408,-64.1563 L 458.808,-64.4804
 L 459.15,-64.7024 L 459.15,-74 L 459.206,-74.5302 L 459.37,-75.0372 L 459.637,-75.4988 L 459.994,-75.895
 L 460.425,-76.2084 L 460.912,-76.4252 L 461.433,-76.536 L 461.967,-76.536 L 462.488,-76.4252 L 462.975,-76.2084
 L 463.406,-75.895 L 463.763,-75.4988 L 464.03,-75.0372 L 464.194,-74.5302 L 464.25,-74 L 464.25,-64.7024
 L 464.592,-64.4804 L 464.992,-64.1563 L 465.356,-63.7921 L 465.68,-63.3919 L 465.961,-62.96 L 466.195,-62.5011
 L 466.379,-62.0204 L 466.512,-61.5229 L 466.593,-61.0143 L 466.62,-60.5 L 466.593,-59.9857 L 466.512,-59.4771
 L 466.379,-58.9796 L 466.195,-58.4989 L 465.961,-58.04 L 465.68,-57.6081 L 465.356,-57.2079 L 464.992,-56.8437
 L 464.592,-56.5196 L 464.16,-56.2392 L 463.701,-56.0054 L 463.22,-55.8208 L 462.723,-55.6875 L 462.214,-55.607
 L 461.7,-55.58 z
M 612.586,-55.607 L 612.077,-55.6875 L 611.58,-55.8208 L 611.099,-56.0054 L 610.64,-56.2392 L 610.208,-56.5196
 L 609.808,-56.8437 L 609.444,-57.2079 L 609.12,-57.6081 L 608.839,-58.04 L 608.605,-58.4989 L 608.421,-58.9796
 L 608.288,-59.4771 L 608.207,-59.9857 L 608.18,-60.5 L 608.207,-61.0143 L 608.288,-61.5229 L 608.421,-62.0204
 L 608.605,-62.5011 L 608.839,-62.96 L 609.12,-63.3919 L 609.444,-63.7921 L 609.808,-64.1563 L 610.208,-64.4804
 L 610.55,-64.7024 L 610.55,-74 L 610.606,-74.5302 L 610.77,-75.0372 L 611.037,-75.4988 L 611.394,-75.895
 L 611.825,-76.2084 L 612.312,-76.4252 L 612.833,-76.536 L 613.367,-76.536 L 613.888,-76.4252 L 614.375,-76.2084
 L 614.806,-75.895 L 615.163,-75.4988 L 615.43,-75.0372 L 615.594,-74.5302 L 615.65,-74 L 615.65,-64.7024
 L 615.992,-64.4804 L 616.392,-64.1563 L 616.756,-63.7921 L 617.08,-63.3919 L 617.361,-62.96 L 617.595,-62.5011
 L 617.779,-62.0204 L 617.912,-61.5229 L 617.993,-61.0143 L 618.02,-60.5 L 617.993,-59.9857 L 617.912,-59.4771
 L 617.779,-58.9796 L 617.595,-58.4989 L 617.361,-58.04 L 617.08,-57.6081 L 616.756,-57.2079 L 616.392,-56.8437
 L 615.992,-56.5196 L 615.56,-56.2392 L 615.101,-56.0054 L 614.62,-55.8208 L 614.123,-55.6875 L 613.614,-55.607
 L 613.1,-55.58 z
M 763.986,-55.607 L 763.477,-55.6875 L 762.98,-55.8208 L 762.499,-56.0054 L 762.04,-56.2392 L 761.608,-56.5196
 L 761.208,-56.8437 L 760.844,-57.2079 L 760.52,-57.6081 L 760.239,-58.04 L 760.005,-58.4989 L 759.821,-58.9796
 L 759.688,-59.4771 L 759.607,-59.9857 L 759.58,-60.5 L 759.607,-61.0143 L 759.688,-61.5229 L 759.821,-62.0204
 L 760.005,-62.5011 L 760.239,-62.96 L 760.52,-63.3919 L 760.844,-63.7921 L 761.208,-64.1563 L 761.608,-64.4804
 L 761.95,-64.7024 L 761.95,-74 L 762.006,-74.5302 L 762.17,-75.0372 L 762.437,-75.4988 L 762.794,-75.895
 L 763.225,-76.2084 L 763.712,-76.4252 L 764.233,-76.536 L 764.767,-76.536 L 765.288,-76.4252 L 765.775,-76.2084
 L 766.206,-75.895 L 766.563,-75.4988 L 766.83,-75.0372 L 766.994,-74.5302 L 767.05,-74 L 767.05,-64.7024
 L 767.392,-64.4804 L 767.792,-64.1563 L 768.156,-63.7921 L 768.48,-63.3919 L 768.761,-62.96 L 768.995,-62.5011
 L 769.179,-62.0204 L 769.312,-61.5229 L 769.393,-61.0143 L 769.42,-60.5 L 769.393,-59.9857 L 769.312,-59.4771
 L 769.179,-58.9796 L 768.995,-58.4989 L 768.761,-58.04 L 768.48,-57.6081 L 768.156,-57.2079 L 767.792,-56.8437
 L 767.392,-56.5196 L 766.96,-56.2392 L 766.501,-56.0054 L 766.02,-55.8208 L 765.523,-55.6875 L 765.014,-55.607
 L 764.5,-55.58 z
M 385.156,-48.1487 L 384.361,-48.4096 L 371.133,-54.3511 L 370.42,-54.7639 L 369.799,-55.3235 L 369.307,-56
 L 368.967,-56.7639 L 368.793,-57.5819 L 368.793,-58.4181 L 368.967,-59.2361 L 369.307,-60 L 369.799,-60.6765
 L 370.42,-61.2361 L 371.144,-61.6542 L 371.94,-61.9126 L 372.771,-62 L 399.229,-62 L 400.047,-61.9153
 L 400.844,-61.6595 L 401.569,-61.2437 L 402.192,-60.6862 L 402.686,-60.0113 L 403.029,-59.2485 L 403.205,-58.4311
 L 403.208,-57.5949 L 403.037,-56.7763 L 402.699,-56.0113 L 402.21,-55.3332 L 401.59,-54.7716 L 400.867,-54.3511
 L 387.639,-48.4096 L 386.819,-48.1432 L 385.987,-48.0585 z
M 296.456,-22.1799 L 295.661,-22.4409 L 224.614,-54.3511 L 223.902,-54.7639 L 223.28,-55.3235 L 222.789,-56
 L 222.449,-56.7639 L 222.275,-57.5819 L 222.275,-58.4181 L 222.449,-59.2361 L 222.789,-60 L 223.28,-60.6765
 L 223.902,-61.2361 L 224.626,-61.6542 L 225.421,-61.9126 L 226.253,-62 L 297.3,-62 L 298.536,-61.8042
 L 299.3,-61.4641 L 299.977,-60.9726 L 300.536,-60.3511 L 300.954,-59.627 L 301.213,-58.8316 L 301.3,-58
 L 301.3,-26.0898 L 301.277,-25.6587 L 301.1,-24.8413 L 300.758,-24.0785 L 300.264,-23.4036 L 299.641,-22.8461
 L 298.915,-22.4303 L 298.119,-22.1745 L 297.287,-22.0898 z
M 625.281,-22.1745 L 624.485,-22.4303 L 623.759,-22.8461 L 623.136,-23.4036 L 622.642,-24.0785 L 622.3,-24.8413
 L 622.123,-25.6587 L 622.1,-26.0898 L 622.1,-58 L 622.187,-58.8316 L 622.446,-59.627 L 622.864,-60.3511
 L 623.423,-60.9726 L 624.1,-61.4641 L 624.864,-61.8042 L 626.1,-62 L 697.147,-62 L 697.979,-61.9126
 L 698.774,-61.6542 L 699.498,-61.2361 L 700.12,-60.6765 L 700.611,-60 L 700.951,-59.2361 L 701.125,-58.4181
 L 701.125,-57.5819 L 700.951,-56.7639 L 700.611,-56 L 700.12,-55.3235 L 699.498,-54.7639 L 698.786,-54.3511
 L 627.739,-22.4409 L 626.944,-22.1799 L 626.113,-22.0898 z
M 145.056,-22.1799 L 144.261,-22.4409 L 73.214,-54.3511 L 72.5017,-54.7639 L 71.8803,-55.3235 L 71.3887,-56
 L 71.0486,-56.7639 L 70.8748,-57.5819 L 70.8748,-58.4181 L 71.0486,-59.2361 L 71.3887,-60 L 71.8803,-60.6765
 L 72.5017,-61.2361 L 73.2259,-61.6542 L 74.0212,-61.9126 L 74.8528,-62 L 145.9,-62 L 147.136,-61.8042
 L 147.9,-61.4641 L 148.577,-60.9726 L 149.136,-60.3511 L 149.554,-59.627 L 149.813,-58.8316 L 149.9,-58
 L 149.9,-26.0898 L 149.877,-25.6587 L 149.7,-24.8413 L 149.358,-24.0785 L 148.864,-23.4036 L 148.241,-22.8461
 L 147.515,-22.4303 L 146.719,-22.1745 L 145.887,-22.0898 z
M 473.881,-22.1745 L 473.085,-22.4303 L 472.359,-22.8461 L 471.736,-23.4036 L 471.242,-24.0785 L 470.9,-24.8413
 L 470.723,-25.6587 L 470.7,-26.0898 L 470.7,-58 L 470.787,-58.8316 L 471.046,-59.627 L 471.464,-60.3511
 L 472.023,-60.9726 L 472.7,-61.4641 L 473.464,-61.8042 L 474.7,-62 L 545.747,-62 L 546.579,-61.9126
 L 547.374,-61.6542 L 548.098,-61.2361 L 548.72,-60.6765 L 549.211,-60 L 549.551,-59.2361 L 549.725,-58.4181
 L 549.725,-57.5819 L 549.551,-56.7639 L 549.211,-56 L 548.72,-55.3235 L 548.098,-54.7639 L 547.386,-54.3511
 L 476.339,-22.4409 L 475.544,-22.1799 L 474.713,-22.0898 z
M 322.882,-19.9193 L 322.064,-20.0931 L 321.3,-20.4333 L 320.623,-20.9248 L 320.064,-21.5462 L 319.646,-22.2704
 L 319.387,-23.0657 L 319.3,-23.8974 L 319.3,-56.1026 L 319.323,-56.5337 L 319.5,-57.3511 L 319.842,-58.1139
 L 320.336,-58.7888 L 320.959,-59.3464 L 321.685,-59.7621 L 322.481,-60.0179 L 323.313,-60.1026 L 324.144,-60.0125
 L 324.939,-59.7515 L 360.791,-43.6489 L 361.493,-43.2437 L 362.116,-42.6862 L 362.61,-42.0113 L 362.952,-41.2485
 L 363.129,-40.4311 L 363.132,-39.5949 L 362.96,-38.7763 L 362.623,-38.0113 L 362.133,-37.3332 L 361.514,-36.7716
 L 360.791,-36.3511 L 324.939,-20.2485 L 324.536,-20.0931 L 323.718,-19.9193 z
M 447.856,-19.9875 L 447.061,-20.2485 L 411.209,-36.3511 L 410.507,-36.7563 L 409.884,-37.3138 L 409.39,-37.9887
 L 409.048,-38.7515 L 408.871,-39.5689 L 408.868,-40.4051 L 409.04,-41.2237 L 409.377,-41.9887 L 409.867,-42.6668
 L 410.486,-43.2284 L 411.209,-43.6489 L 447.061,-59.7515 L 447.464,-59.9069 L 448.282,-60.0807 L 449.118,-60.0807
 L 449.936,-59.9069 L 450.7,-59.5668 L 451.377,-59.0752 L 451.936,-58.4538 L 452.354,-57.7296 L 452.613,-56.9343
 L 452.7,-56.1027 L 452.7,-23.8973 L 452.677,-23.4663 L 452.5,-22.6489 L 452.158,-21.886 L 451.664,-21.2111
 L 451.041,-20.6536 L 450.315,-20.2379 L 449.519,-19.9821 L 448.687,-19.8974 z
M 171.9,-18 L 170.664,-18.1958 L 169.9,-18.5359 L 169.223,-19.0274 L 168.664,-19.6489 L 168.246,-20.373
 L 167.987,-21.1684 L 167.9,-22 L 167.9,-53.9102 L 167.923,-54.3413 L 168.1,-55.1587 L 168.442,-55.9215
 L 168.936,-56.5964 L 169.559,-57.1539 L 170.285,-57.5697 L 171.081,-57.8255 L 171.913,-57.9102 L 172.744,-57.8201
 L 173.539,-57.5591 L 244.586,-25.6489 L 245.298,-25.2361 L 245.92,-24.6765 L 246.411,-24 L 246.751,-23.2361
 L 246.925,-22.4181 L 246.925,-21.5819 L 246.751,-20.7639 L 246.411,-20 L 245.92,-19.3235 L 245.298,-18.7639
 L 244.574,-18.3458 L 243.779,-18.0874 L 242.947,-18 z
M 529.053,-18 L 528.221,-18.0874 L 527.426,-18.3458 L 526.702,-18.7639 L 526.08,-19.3235 L 525.589,-20
 L 525.249,-20.7639 L 525.075,-21.5819 L 525.075,-22.4181 L 525.249,-23.2361 L 525.589,-24 L 526.08,-24.6765
 L 526.702,-25.2361 L 527.414,-25.6489 L 598.461,-57.5591 L 599.256,-57.8201 L 600.087,-57.9102 L 600.919,-57.8255
 L 601.715,-57.5697 L 602.441,-57.1539 L 603.064,-56.5964 L 603.558,-55.9215 L 603.9,-55.1587 L 604.077,-54.3413
 L 604.1,-53.9102 L 604.1,-22 L 604.013,-21.1684 L 603.754,-20.373 L 603.336,-19.6489 L 602.777,-19.0274
 L 602.1,-18.5359 L 601.336,-18.1958 L 600.1,-18 z
M 22,-18 L 20.7639,-18.1958 L 20,-18.5359 L 19.3235,-19.0274 L 18.7639,-19.6489 L 18.3458,-20.373
 L 18.0874,-21.1684 L 18,-22 L 18,-53.2365 L 18.0233,-53.6676 L 18.1998,-54.4849 L 18.5424,-55.2478
 L 19.0362,-55.9227 L 19.6594,-56.4802 L 20.385,-56.896 L 21.1811,-57.1518 L 22.013,-57.2365 L 22.8444,-57.1463
 L 23.6389,-56.8853 L 93.186,-25.6489 L 93.8983,-25.2361 L 94.5197,-24.6765 L 95.0112,-24 L 95.3513,-23.2361
 L 95.5252,-22.4181 L 95.5252,-21.5819 L 95.3513,-20.7639 L 95.0112,-20 L 94.5197,-19.3235 L 93.8983,-18.7639
 L 93.1741,-18.3458 L 92.3788,-18.0874 L 91.5471,-18 z
M 680.453,-18 L 679.621,-18.0874 L 678.826,-18.3458 L 678.102,-18.7639 L 677.48,-19.3235 L 676.989,-20
 L 676.649,-20.7639 L 676.475,-21.5819 L 676.475,-22.4181 L 676.649,-23.2361 L 676.989,-24 L 677.48,-24.6765
 L 678.102,-25.2361 L 678.814,-25.6489 L 748.361,-56.8853 L 749.156,-57.1463 L 749.987,-57.2365 L 750.819,-57.1518
 L 751.615,-56.896 L 752.341,-56.4802 L 752.964,-55.9227 L 753.458,-55.2478 L 753.8,-54.4849 L 753.977,-53.6676
 L 754,-53.2365 L 754,-22 L 753.913,-21.1684 L 753.654,-20.373 L 753.236,-19.6489 L 752.677,-19.0274
 L 752,-18.5359 L 751.236,-18.1958 L 750,-18 z
M 372.771,-18 L 371.953,-18.0847 L 371.156,-18.3405 L 370.431,-18.7563 L 369.808,-19.3138 L 369.314,-19.9887
 L 368.971,-20.7515 L 368.795,-21.5689 L 368.792,-22.4051 L 368.963,-23.2237 L 369.301,-23.9887 L 369.79,-24.6668
 L 370.41,-25.2284 L 371.133,-25.6489 L 384.361,-31.5904 L 385.181,-31.8568 L 386.013,-31.9415 L 386.844,-31.8513
 L 387.639,-31.5904 L 400.867,-25.6489 L 401.58,-25.2361 L 402.201,-24.6765 L 402.693,-24 L 403.033,-23.2361
 L 403.207,-22.4181 L 403.207,-21.5819 L 403.033,-20.7639 L 402.693,-20 L 402.201,-19.3235 L 401.58,-18.7639
 L 400.855,-18.3458 L 400.06,-18.0874 L 399.229,-18 z
" stroke="black" fill="lightgray" stroke-width="0.5"/>
</svg>
