<?xml version="1.0" standalone="no"?>
<!DOCTYPE svg PUBLIC "-//W3C//DTD SVG 1.1//EN" "http://www.w3.org/Graphics/SVG/1.1/DTD/svg11.dtd">
<svg width="896mm" height="80mm" viewBox="0 -80 896 80" xmlns="http://www.w3.org/2000/svg" version="1.1">
<title>OpenSCAD Model</title>
<path d="
M 896,-80 L 0,-80 L 0,-0 L 4.95,-0 L 4.95,-6 L 5.00572,-6.53017
 L 5.17046,-7.03717 L 5.437,-7.49884 L 5.79372,-7.895 L 6.22499,-8.20836 L 6.71201,-8.42519 L 7.23344,-8.53603
 L 7.76654,-8.53603 L 8.28798,-8.42519 L 8.77499,-8.20836 L 9.20627,-7.895 L 9.56299,-7.49884 L 9.82953,-7.03717
 L 9.99426,-6.53017 L 10.05,-6 L 10.05,-0 L 181.15,-0 L 181.15,-6 L 181.206,-6.53017
 L 181.37,-7.03717 L 181.637,-7.49884 L 181.994,-7.895 L 182.425,-8.20836 L 182.912,-8.42519 L 183.433,-8.53603
 L 183.967,-8.53603 L 184.488,-8.42519 L 184.975,-8.20836 L 185.406,-7.895 L 185.763,-7.49884 L 186.03,-7.03717
 L 186.194,-6.53017 L 186.25,-6 L 186.25,-0 L 357.35,-0 L 357.35,-6 L 357.406,-6.53017
 L 357.57,-7.03717 L 357.837,-7.49884 L 358.194,-7.895 L 358.625,-8.20836 L 359.112,-8.42519 L 359.633,-8.53603
 L 360.167,-8.53603 L 360.688,-8.42519 L 361.175,-8.20836 L 361.606,-7.895 L 361.963,-7.49884 L 362.23,-7.03717
 L 362.394,-6.53017 L 362.45,-6 L 362.45,-0 L 533.55,-0 L 533.55,-6 L 533.606,-6.53017
 L 533.77,-7.03717 L 534.037,-7.49884 L 534.394,-7.895 L 534.825,-8.20836 L 535.312,-8.42519 L 535.833,-8.53603
 L 536.367,-8.53603 L 536.888,-8.42519 L 537.375,-8.20836 L 537.806,-7.895 L 538.163,-7.49884 L 538.43,-7.03717
 L 538.594,-6.53017 L 538.65,-6 L 538.65,-0 L 709.75,-0 L 709.75,-6 L 709.806,-6.53017
 L 709.97,-7.03717 L 710.237,-7.49884 L 710.594,-7.895 L 711.025,-8.20836 L 711.512,-8.42519 L 712.033,-8.53603
 L 712.567,-8.53603 L 713.088,-8.42519 L 713.575,-8.20836 L 714.006,-7.895 L 714.363,-7.49884 L 714.63,-7.03717
 L 714.794,-6.53017 L 714.85,-6 L 714.85,-0 L 885.95,-0 L 885.95,-6 L 886.006,-6.53017
 L 886.17,-7.03717 L 886.437,-7.49884 L 886.794,-7.895 L 887.225,-8.20836 L 887.712,-8.42519 L 888.233,-8.53603
 L 888.767,-8.53603 L 889.288,-8.42519 L 889.775,-8.20836 L 890.206,-7.895 L 890.563,-7.49884 L 890.83,-7.03717
 L 890.994,-6.53017 L 891.05,-6 L 891.05,-0 L 896,-0 z
M 6.98573,-55.607 L 6.47708,-55.6875 L 5.97964,-55.8208 L 5.49887,-56.0054 L 5.04001,-56.2392 L 4.60811,-56.5196
 L 4.20789,-56.8437 L 3.84373,-57.2079 L 3.51964,-57.6081 L 3.23917,-58.04 L 3.00537,-58.4989 L 2.82082,-58.9796
 L 2.68752,-59.4771 L 2.60696,-59.9857 L 2.58,-60.5 L 2.60696,-61.0143 L 2.68752,-61.5229 L 2.82082,-62.0204
 L 3.00537,-62.5011 L 3.23917,-62.96 L 3.51964,-63.3919 L 3.84373,-63.7921 L 4.20789,-64.1563 L 4.60811,-64.4804
 L 4.95001,-64.7024 L 4.95001,-74 L 5.00574,-74.5302 L 5.17047,-75.0372 L 5.43701,-75.4988 L 5.79373,-75.895
 L 6.22501,-76.2084 L 6.71202,-76.4252 L 7.23346,-76.536 L 7.76654,-76.536 L 8.28798,-76.4252 L 8.77499,-76.2084
 L 9.20627,-75.895 L 9.56299,-75.4988 L 9.82953,-75.0372 L 9.99426,-74.5302 L 10.05,-74 L 10.05,-64.7024
 L 10.3919,-64.4804 L 10.7921,-64.1563 L 11.1563,-63.7921 L 11.4804,-63.3919 L 11.7608,-62.96 L 11.9946,-62.5011
 L 12.1792,-62.0204 L 12.3125,-61.5229 L 12.393,-61.0143 L 12.42,-60.5 L 12.393,-59.9857 L 12.3125,-59.4771
 L 12.1792,-58.9796 L 11.9946,-58.4989 L 11.7608,-58.04 L 11.4804,-57.6081 L 11.1563,-57.2079 L 10.7921,-56.8437
 L 10.3919,-56.5196 L 9.95999,-56.2392 L 9.50113,-56.0054 L 9.02036,-55.8208 L 8.52292,-55.6875 L 8.01427,-55.607
 L 7.5,-55.58 z
M 183.186,-55.607 L 182.677,-55.6875 L 182.18,-55.8208 L 181.699,-56.0054 L 181.24,-56.2392 L 180.808,-56.5196
 L 180.408,-56.8437 L 180.044,-57.2079 L 179.72,-57.6081 L 179.439,-58.04 L 179.205,-58.4989 L 179.021,-58.9796
 L 178.888,-59.4771 L 178.807,-59.9857 L 178.78,-60.5 L 178.807,-61.0143 L 178.888,-61.5229 L 179.021,-62.0204
 L 179.205,-62.5011 L 179.439,-62.96 L 179.72,-63.3919 L 180.044,-63.7921 L 180.408,-64.1563 L 180.808,-64.4804
 L 181.15,-64.7024 L 181.15,-74 L 181.206,-74.5302 L 181.37,-75.0372 L 181.637,-75.4988 L 181.994,-75.895
 L 182.425,-76.2084 L 182.912,-76.4252 L 183.433,-76.536 L 183.967,-76.536 L 184.488,-76.4252 L 184.975,-76.2084
 L 185.406,-75.895 L 185.763,-75.4988 L 186.03,-75.0372 L 186.194,-74.5302 L 186.25,-74 L 186.25,-64.7024
 L 186.592,-64.4804 L 186.992,-64.1563 L 187.356,-63.7921 L 187.68,-63.3919 L 187.961,-62.96 L 188.195,-62.5011
 L 188.379,-62.0204 L 188.512,-61.5229 L 188.593,-61.0143 L 188.62,-60.5 L 188.593,-59.9857 L 188.512,-59.4771
 L 188.379,-58.9796 L 188.195,-58.4989 L 187.961,-58.04 L 187.68,-57.6081 L 187.356,-57.2079 L 186.992,-56.8437
 L 186.592,-56.5196 L 186.16,-56.2392 L 185.701,-56.0054 L 185.22,-55.8208 L 184.723,-55.6875 L 184.214,-55.607
 L 183.7,-55.58 z
M 359.386,-55.607 L 358.877,-55.6875 L 358.38,-55.8208 L 357.899,-56.0054 L 357.44,-56.2392 L 357.008,-56.5196
 L 356.608,-56.8437 L 356.244,-57.2079 L 355.92,-57.6081 L 355.639,-58.04 L 355.405,-58.4989 L 355.221,-58.9796
 L 355.088,-59.4771 L 355.007,-59.9857 L 354.98,-60.5 L 355.007,-61.0143 L 355.088,-61.5229 L 355.221,-62.0204
 L 355.405,-62.5011 L 355.639,-62.96 L 355.92,-63.3919 L 356.244,-63.7921 L 356.608,-64.1563 L 357.008,-64.4804
 L 357.35,-64.7024 L 357.35,-74 L 357.406,-74.5302 L 357.57,-75.0372 L 357.837,-75.4988 L 358.194,-75.895
 L 358.625,-76.2084 L 359.112,-76.4252 L 359.633,-76.536 L 360.167,-76.536 L 360.688,-76.4252 L 361.175,-76.2084
 L 361.606,-75.895 L 361.963,-75.4988 L 362.23,-75.0372 L 362.394,-74.5302 L 362.45,-74 L 362.45,-64.7024
 L 362.792,-64.4804 L 363.192,-64.1563 L 363.556,-63.7921 L 363.88,-63.3919 L 364.161,-62.96 L 364.395,-62.5011
 L 364.579,-62.0204 L 364.712,-61.5229 L 364.793,-61.0143 L 364.82,-60.5 L 364.793,-59.9857 L 364.712,-59.4771
 L 364.579,-58.9796 L 364.395,-58.4989 L 364.161,-58.04 L 363.88,-57.6081 L 363.556,-57.2079 L 363.192,-56.8437
 L 362.792,-56.5196 L 362.36,-56.2392 L 361.901,-56.0054 L 361.42,-55.8208 L 360.923,-55.6875 L 360.414,-55.607
 L 359.9,-55.58 z
M 535.586,-55.607 L 535.077,-55.6875 L 534.58,-55.8208 L 534.099,-56.0054 L 533.64,-56.2392 L 533.208,-56.5196
 L 532.808,-56.8437 L 532.444,-57.2079 L 532.12,-57.6081 L 531.839,-58.04 L 531.605,-58.4989 L 531.421,-58.9796
 L 531.288,-59.4771 L 531.207,-59.9857 L 531.18,-60.5 L 531.207,-61.0143 L 531.288,-61.5229 L 531.421,-62.0204
 L 531.605,-62.5011 L 531.839,-62.96 L 532.12,-63.3919 L 532.444,-63.7921 L 532.808,-64.1563 L 533.208,-64.4804
 L 533.55,-64.7024 L 533.55,-74 L 533.606,-74.5302 L 533.77,-75.0372 L 534.037,-75.4988 L 534.394,-75.895
 L 534.825,-76.2084 L 535.312,-76.4252 L 535.833,-76.536 L 536.367,-76.536 L 536.888,-76.4252 L 537.375,-76.2084
 L 537.806,-75.895 L 538.163,-75.4988 L 538.43,-75.0372 L 538.594,-74.5302 L 538.65,-74 L 538.65,-64.7024
 L 538.992,-64.4804 L 539.392,-64.1563 L 539.756,-63.7921 L 540.08,-63.3919 L 540.361,-62.96 L 540.595,-62.5011
 L 540.779,-62.0204 L 540.912,-61.5229 L 540.993,-61.0143 L 541.02,-60.5 L 540.993,-59.9857 L 540.912,-59.4771
 L 540.779,-58.9796 L 540.595,-58.4989 L 540.361,-58.04 L 540.08,-57.6081 L 539.756,-57.2079 L 539.392,-56.8437
 L 538.992,-56.5196 L 538.56,-56.2392 L 538.101,-56.0054 L 537.62,-55.8208 L 537.123,-55.6875 L 536.614,-55.607
 L 536.1,-55.58 z
M 711.786,-55.607 L 711.277,-55.6875 L 710.78,-55.8208 L 710.299,-56.0054 L 709.84,-56.2392 L 709.408,-56.5196
 L 709.008,-56.8437 L 708.644,-57.2079 L 708.32,-57.6081 L 708.039,-58.04 L 707.805,-58.4989 L 707.621,-58.9796
 L 707.488,-59.4771 L 707.407,-59.9857 L 707.38,-60.5 L 707.407,-61.0143 L 707.488,-61.5229 L 707.621,-62.0204
 L 707.805,-62.5011 L 708.039,-62.96 L 708.32,-63.3919 L 708.644,-63.7921 L 709.008,-64.1563 L 709.408,-64.4804
 L 709.75,-64.7024 L 709.75,-74 L 709.806,-74.5302 L 709.97,-75.0372 L 710.237,-75.4988 L 710.594,-75.895
 L 711.025,-76.2084 L 711.512,-76.4252 L 712.033,-76.536 L 712.567,-76.536 L 713.088,-76.4252 L 713.575,-76.2084
 L 714.006,-75.895 L 714.363,-75.4988 L 714.63,-75.0372 L 714.794,-74.5302 L 714.85,-74 L 714.85,-64.7024
 L 715.192,-64.4804 L 715.592,-64.1563 L 715.956,-63.7921 L 716.28,-63.3919 L 716.561,-62.96 L 716.795,-62.5011
 L 716.979,-62.0204 L 717.112,-61.5229 L 717.193,-61.0143 L 717.22,-60.5 L 717.193,-59.9857 L 717.112,-59.4771
 L 716.979,-58.9796 L 716.795,-58.4989 L 716.561,-58.04 L 716.28,-57.6081 L 715.956,-57.2079 L 715.592,-56.8437
 L 715.192,-56.5196 L 714.76,-56.2392 L 714.301,-56.0054 L 713.82,-55.8208 L 713.323,-55.6875 L 712.814,-55.607
 L 712.3,-55.58 z
M 887.986,-55.607 L 887.477,-55.6875 L 886.98,-55.8208 L 886.499,-56.0054 L 886.04,-56.2392 L 885.608,-56.5196
 L 885.208,-56.8437 L 884.844,-57.2079 L 884.52,-57.6081 L 884.239,-58.04 L 884.005,-58.4989 L 883.821,-58.9796
 L 883.688,-59.4771 L 883.607,-59.9857 L 883.58,-60.5 L 883.607,-61.0143 L 883.688,-61.5229 L 883.821,-62.0204
 L 884.005,-62.5011 L 884.239,-62.96 L 884.52,-63.3919 L 884.844,-63.7921 L 885.208,-64.1563 L 885.608,-64.4804
 L 885.95,-64.7024 L 885.95,-74 L 886.006,-74.5302 L 886.17,-75.0372 L 886.437,-75.4988 L 886.794,-75.895
 L 887.225,-76.2084 L 887.712,-76.4252 L 888.233,-76.536 L 888.767,-76.536 L 889.288,-76.4252 L 889.775,-76.2084
 L 890.206,-75.895 L 890.563,-75.4988 L 890.83,-75.0372 L 890.994,-74.5302 L 891.05,-74 L 891.05,-64.7024
 L 891.392,-64.4804 L 891.792,-64.1563 L 892.156,-63.7921 L 892.48,-63.3919 L 892.761,-62.96 L 892.995,-62.5011
 L 893.179,-62.0204 L 893.312,-61.5229 L 893.393,-61.0143 L 893.42,-60.5 L 893.393,-59.9857 L 893.312,-59.4771
 L 893.179,-58.9796 L 892.995,-58.4989 L 892.761,-58.04 L 892.48,-57.6081 L 892.156,-57.2079 L 891.792,-56.8437
 L 891.392,-56.5196 L 890.96,-56.2392 L 890.501,-56.0054 L 890.02,-55.8208 L 889.523,-55.6875 L 889.014,-55.607
 L 888.5,-55.58 z
M 447.367,-47.826 L 446.56,-48.0439 L 430.431,-54.2683 L 429.52,-54.7639 L 428.899,-55.3235 L 428.408,-56
 L 428.067,-56.7639 L 427.894,-57.5819 L 427.894,-58.4181 L 428.067,-59.2361 L 428.408,-60 L 428.899,-60.6765
 L 429.52,-61.2361 L 430.245,-61.6542 L 431.04,-61.9126 L 431.872,-62 L 464.128,-62 L 465.157,-61.8656
 L 465.938,-61.5673 L 466.64,-61.1131 L 467.232,-60.5229 L 467.689,-59.8224 L 467.99,-59.0422 L 468.122,-58.2165
 L 468.08,-57.3814 L 467.865,-56.5732 L 467.487,-55.8275 L 466.962,-55.1767 L 466.313,-54.6492 L 465.568,-54.2683
 L 449.44,-48.0439 L 449.028,-47.9101 L 448.202,-47.7808 z
M 346.267,-20.9841 L 345.46,-21.202 L 259.779,-54.2683 L 258.868,-54.7639 L 258.247,-55.3235 L 257.755,-56
 L 257.415,-56.7639 L 257.241,-57.5819 L 257.241,-58.4181 L 257.415,-59.2361 L 257.755,-60 L 258.247,-60.6765
 L 258.868,-61.2361 L 259.592,-61.6542 L 260.388,-61.9126 L 261.219,-62 L 346.9,-62 L 348.136,-61.8042
 L 348.9,-61.4641 L 349.577,-60.9726 L 350.136,-60.3511 L 350.554,-59.627 L 350.813,-58.8316 L 350.9,-58
 L 350.9,-24.9337 L 350.762,-23.8915 L 350.461,-23.1114 L 350.004,-22.4109 L 349.412,-21.8206 L 348.71,-21.3664
 L 347.928,-21.0682 L 347.102,-20.9388 z
M 724.272,-21.0682 L 723.49,-21.3664 L 722.788,-21.8206 L 722.196,-22.4109 L 721.739,-23.1114 L 721.438,-23.8915
 L 721.3,-24.9337 L 721.3,-58 L 721.387,-58.8316 L 721.646,-59.627 L 722.064,-60.3511 L 722.623,-60.9726
 L 723.3,-61.4641 L 724.064,-61.8042 L 725.3,-62 L 810.981,-62 L 811.812,-61.9126 L 812.608,-61.6542
 L 813.332,-61.2361 L 813.953,-60.6765 L 814.445,-60 L 814.785,-59.2361 L 814.959,-58.4181 L 814.959,-57.5819
 L 814.785,-56.7639 L 814.445,-56 L 813.953,-55.3235 L 813.332,-54.7639 L 812.421,-54.2683 L 726.74,-21.202
 L 725.933,-20.9841 L 725.098,-20.9388 z
M 170.067,-20.9841 L 169.26,-21.202 L 83.5793,-54.2683 L 82.6683,-54.7639 L 82.0468,-55.3235 L 81.5553,-56
 L 81.2152,-56.7639 L 81.0413,-57.5819 L 81.0413,-58.4181 L 81.2152,-59.2361 L 81.5553,-60 L 82.0468,-60.6765
 L 82.6683,-61.2361 L 83.3925,-61.6542 L 84.1878,-61.9126 L 85.0194,-62 L 170.7,-62 L 171.936,-61.8042
 L 172.7,-61.4641 L 173.377,-60.9726 L 173.936,-60.3511 L 174.354,-59.627 L 174.613,-58.8316 L 174.7,-58
 L 174.7,-24.9337 L 174.562,-23.8915 L 174.261,-23.1114 L 173.804,-22.4109 L 173.212,-21.8206 L 172.51,-21.3664
 L 171.728,-21.0682 L 170.902,-20.9388 z
M 548.072,-21.0682 L 547.29,-21.3664 L 546.588,-21.8206 L 545.996,-22.4109 L 545.539,-23.1114 L 545.238,-23.8915
 L 545.1,-24.9337 L 545.1,-58 L 545.187,-58.8316 L 545.446,-59.627 L 545.864,-60.3511 L 546.423,-60.9726
 L 547.1,-61.4641 L 547.864,-61.8042 L 549.1,-62 L 634.781,-62 L 635.612,-61.9126 L 636.408,-61.6542
 L 637.132,-61.2361 L 637.753,-60.6765 L 638.245,-60 L 638.585,-59.2361 L 638.759,-58.4181 L 638.759,-57.5819
 L 638.585,-56.7639 L 638.245,-56 L 637.753,-55.3235 L 637.132,-54.7639 L 636.221,-54.2683 L 550.54,-21.202
 L 549.733,-20.9841 L 548.898,-20.9388 z
M 372.482,-18.8146 L 371.664,-18.9885 L 370.9,-19.3286 L 370.223,-19.8201 L 369.664,-20.4416 L 369.246,-21.1657
 L 368.987,-21.961 L 368.9,-22.7927 L 368.9,-57.2073 L 369.038,-58.2495 L 369.339,-59.0297 L 369.796,-59.7302
 L 370.388,-60.3204 L 371.09,-60.7746 L 371.872,-61.0729 L 372.698,-61.2022 L 373.533,-61.1569 L 374.34,-60.939
 L 418.927,-43.7317 L 419.999,-43.1131 L 420.591,-42.5229 L 421.048,-41.8224 L 421.349,-41.0422 L 421.481,-40.2165
 L 421.439,-39.3814 L 421.224,-38.5732 L 420.846,-37.8275 L 420.321,-37.1767 L 419.672,-36.6492 L 418.927,-36.2683
 L 374.34,-19.061 L 373.318,-18.8146 z
M 522.467,-18.8431 L 521.66,-19.061 L 477.073,-36.2683 L 476.001,-36.8869 L 475.409,-37.4771 L 474.952,-38.1776
 L 474.651,-38.9578 L 474.519,-39.7835 L 474.561,-40.6187 L 474.776,-41.4268 L 475.154,-42.1725 L 475.679,-42.8233
 L 476.328,-43.3508 L 477.073,-43.7317 L 521.66,-60.939 L 522.682,-61.1854 L 523.518,-61.1854 L 524.336,-61.0115
 L 525.1,-60.6714 L 525.777,-60.1799 L 526.336,-59.5584 L 526.754,-58.8343 L 527.013,-58.039 L 527.1,-57.2073
 L 527.1,-22.7927 L 526.962,-21.7505 L 526.661,-20.9703 L 526.204,-20.2698 L 525.612,-19.6796 L 524.91,-19.2254
 L 524.128,-18.9271 L 523.302,-18.7978 z
M 196.7,-18 L 195.464,-18.1958 L 194.7,-18.5359 L 194.023,-19.0274 L 193.464,-19.6489 L 193.046,-20.373
 L 192.787,-21.1684 L 192.7,-22 L 192.7,-55.0663 L 192.838,-56.1085 L 193.139,-56.8886 L 193.596,-57.5891
 L 194.188,-58.1794 L 194.89,-58.6335 L 195.672,-58.9318 L 196.498,-59.0612 L 197.333,-59.0159 L 198.14,-58.798
 L 283.821,-25.7317 L 284.732,-25.2361 L 285.353,-24.6765 L 285.845,-24 L 286.185,-23.2361 L 286.359,-22.4181
 L 286.359,-21.5819 L 286.185,-20.7639 L 285.845,-20 L 285.353,-19.3235 L 284.732,-18.7639 L 284.008,-18.3458
 L 283.212,-18.0874 L 282.381,-18 z
M 613.619,-18 L 612.788,-18.0874 L 611.992,-18.3458 L 611.268,-18.7639 L 610.647,-19.3235 L 610.155,-20
 L 609.815,-20.7639 L 609.641,-21.5819 L 609.641,-22.4181 L 609.815,-23.2361 L 610.155,-24 L 610.647,-24.6765
 L 611.268,-25.2361 L 612.179,-25.7317 L 697.86,-58.798 L 698.667,-59.0159 L 699.502,-59.0612 L 700.328,-58.9318
 L 701.11,-58.6335 L 701.812,-58.1794 L 702.404,-57.5891 L 702.861,-56.8886 L 703.162,-56.1085 L 703.3,-55.0663
 L 703.3,-22 L 703.213,-21.1684 L 702.954,-20.373 L 702.536,-19.6489 L 701.977,-19.0274 L 701.3,-18.5359
 L 700.536,-18.1958 L 699.3,-18 z
M 22,-18 L 20.7639,-18.1958 L 20,-18.5359 L 19.3235,-19.0274 L 18.7639,-19.6489 L 18.3458,-20.373
 L 18.0874,-21.1684 L 18,-22 L 18,-54.4874 L 18.1382,-55.5296 L 18.4392,-56.3097 L 18.8959,-57.0102
 L 19.4883,-57.6005 L 20.1904,-58.0547 L 20.9717,-58.3529 L 21.7978,-58.4823 L 22.6328,-58.437 L 23.4402,-58.2191
 L 107.621,-25.7317 L 108.532,-25.2361 L 109.153,-24.6765 L 109.645,-24 L 109.985,-23.2361 L 110.159,-22.4181
 L 110.159,-21.5819 L 109.985,-20.7639 L 109.645,-20 L 109.153,-19.3235 L 108.532,-18.7639 L 107.808,-18.3458
 L 107.012,-18.0874 L 106.181,-18 z
M 789.819,-18 L 788.988,-18.0874 L 788.192,-18.3458 L 787.468,-18.7639 L 786.847,-19.3235 L 786.355,-20
 L 786.015,-20.7639 L 785.841,-21.5819 L 785.841,-22.4181 L 786.015,-23.2361 L 786.355,-24 L 786.847,-24.6765
 L 787.468,-25.2361 L 788.379,-25.7317 L 872.56,-58.2191 L 873.367,-58.437 L 874.202,-58.4823 L 875.028,-58.3529
 L 875.81,-58.0547 L 876.512,-57.6005 L 877.104,-57.0102 L 877.561,-56.3097 L 877.862,-55.5296 L 878,-54.4874
 L 878,-22 L 877.913,-21.1684 L 877.654,-20.373 L 877.236,-19.6489 L 876.677,-19.0274 L 876,-18.5359
 L 875.236,-18.1958 L 874,-18 z
M 431.872,-18 L 430.843,-18.1344 L 430.062,-18.4327 L 429.36,-18.8869 L 428.768,-19.4771 L 428.311,-20.1776
 L 428.01,-20.9578 L 427.877,-21.7835 L 427.92,-22.6187 L 428.135,-23.4268 L 428.513,-24.1725 L 429.038,-24.8233
 L 429.687,-25.3508 L 430.431,-25.7317 L 446.56,-31.9561 L 446.972,-32.0899 L 447.798,-32.2192 L 448.633,-32.174
 L 449.44,-31.9561 L 465.568,-25.7317 L 466.479,-25.2361 L 467.101,-24.6765 L 467.592,-24 L 467.933,-23.2361
 L 468.106,-22.4181 L 468.106,-21.5819 L 467.933,-20.7639 L 467.592,-20 L 467.101,-19.3235 L 466.479,-18.7639
 L 465.755,-18.3458 L 464.96,-18.0874 L 464.128,-18 z
" stroke="black" fill="lightgray" stroke-width="0.5"/>
</svg>
