<?xml version="1.0" standalone="no"?>
<!DOCTYPE svg PUBLIC "-//W3C//DTD SVG 1.1//EN" "http://www.w3.org/Graphics/SVG/1.1/DTD/svg11.dtd">
<svg width="640mm" height="80mm" viewBox="0 -80 640 80" xmlns="http://www.w3.org/2000/svg" version="1.1">
<title>OpenSCAD Model</title>
<path d="
M 640,-80 L 0,-80 L 0,-0 L 4.95,-0 L 4.95,-6 L 5.00572,-6.53017
 L 5.17046,-7.03717 L 5.437,-7.49884 L 5.79372,-7.895 L 6.22499,-8.20836 L 6.71201,-8.42519 L 7.23344,-8.53603
 L 7.76654,-8.53603 L 8.28798,-8.42519 L 8.77499,-8.20836 L 9.20627,-7.895 L 9.56299,-7.49884 L 9.82953,-7.03717
 L 9.99426,-6.53017 L 10.05,-6 L 10.05,-0 L 129.95,-0 L 129.95,-6 L 130.006,-6.53017
 L 130.17,-7.03717 L 130.437,-7.49884 L 130.794,-7.895 L 131.225,-8.20836 L 131.712,-8.42519 L 132.233,-8.53603
 L 132.767,-8.53603 L 133.288,-8.42519 L 133.775,-8.20836 L 134.206,-7.895 L 134.563,-7.49884 L 134.83,-7.03717
 L 134.994,-6.53017 L 135.05,-6 L 135.05,-0 L 254.95,-0 L 254.95,-6 L 255.006,-6.53017
 L 255.17,-7.03717 L 255.437,-7.49884 L 255.794,-7.895 L 256.225,-8.20836 L 256.712,-8.42519 L 257.233,-8.53603
 L 257.767,-8.53603 L 258.288,-8.42519 L 258.775,-8.20836 L 259.206,-7.895 L 259.563,-7.49884 L 259.83,-7.03717
 L 259.994,-6.53017 L 260.05,-6 L 260.05,-0 L 379.95,-0 L 379.95,-6 L 380.006,-6.53017
 L 380.17,-7.03717 L 380.437,-7.49884 L 380.794,-7.895 L 381.225,-8.20836 L 381.712,-8.42519 L 382.233,-8.53603
 L 382.767,-8.53603 L 383.288,-8.42519 L 383.775,-8.20836 L 384.206,-7.895 L 384.563,-7.49884 L 384.83,-7.03717
 L 384.994,-6.53017 L 385.05,-6 L 385.05,-0 L 504.95,-0 L 504.95,-6 L 505.006,-6.53017
 L 505.17,-7.03717 L 505.437,-7.49884 L 505.794,-7.895 L 506.225,-8.20836 L 506.712,-8.42519 L 507.233,-8.53603
 L 507.767,-8.53603 L 508.288,-8.42519 L 508.775,-8.20836 L 509.206,-7.895 L 509.563,-7.49884 L 509.83,-7.03717
 L 509.994,-6.53017 L 510.05,-6 L 510.05,-0 L 629.95,-0 L 629.95,-6 L 630.006,-6.53017
 L 630.17,-7.03717 L 630.437,-7.49884 L 630.794,-7.895 L 631.225,-8.20836 L 631.712,-8.42519 L 632.233,-8.53603
 L 632.767,-8.53603 L 633.288,-8.42519 L 633.775,-8.20836 L 634.206,-7.895 L 634.563,-7.49884 L 634.83,-7.03717
 L 634.994,-6.53017 L 635.05,-6 L 635.05,-0 L 640,-0 z
M 6.98573,-55.607 L 6.47708,-55.6875 L 5.97964,-55.8208 L 5.49887,-56.0054 L 5.04001,-56.2392 L 4.60811,-56.5196
 L 4.20789,-56.8437 L 3.84373,-57.2079 L 3.51964,-57.6081 L 3.23917,-58.04 L 3.00537,-58.4989 L 2.82082,-58.9796
 L 2.68752,-59.4771 L 2.60696,-59.9857 L 2.58,-60.5 L 2.60696,-61.0143 L 2.68752,-61.5229 L 2.82082,-62.0204
 L 3.00537,-62.5011 L 3.23917,-62.96 L 3.51964,-63.3919 L 3.84373,-63.7921 L 4.20789,-64.1563 L 4.60811,-64.4804
 L 4.95001,-64.7024 L 4.95001,-74 L 5.00574,-74.5302 L 5.17047,-75.0372 L 5.43701,-75.4988 L 5.79373,-75.895
 L 6.22501,-76.2084 L 6.71202,-76.4252 L 7.23346,-76.536 L 7.76654,-76.536 L 8.28798,-76.4252 L 8.77499,-76.2084
 L 9.20627,-75.895 L 9.56299,-75.4988 L 9.82953,-75.0372 L 9.99426,-74.5302 L 10.05,-74 L 10.05,-64.7024
 L 10.3919,-64.4804 L 10.7921,-64.1563 L 11.1563,-63.7921 L 11.4804,-63.3919 L 11.7608,-62.96 L 11.9946,-62.5011
 L 12.1792,-62.0204 L 12.3125,-61.5229 L 12.393,-61.0143 L 12.42,-60.5 L 12.393,-59.9857 L 12.3125,-59.4771
 L 12.1792,-58.9796 L 11.9946,-58.4989 L 11.7608,-58.04 L 11.4804,-57.6081 L 11.1563,-57.2079 L 10.7921,-56.8437
 L 10.3919,-56.5196 L 9.95999,-56.2392 L 9.50113,-56.0054 L 9.02036,-55.8208 L 8.52292,-55.6875 L 8.01427,-55.607
 L 7.5,-55.58 z
M 131.986,-55.607 L 131.477,-55.6875 L 130.98,-55.8208 L 130.499,-56.0054 L 130.04,-56.2392 L 129.608,-56.5196
 L 129.208,-56.8437 L 128.844,-57.2079 L 128.52,-57.6081 L 128.239,-58.04 L 128.005,-58.4989 L 127.821,-58.9796
 L 127.688,-59.4771 L 127.607,-59.9857 L 127.58,-60.5 L 127.607,-61.0143 L 127.688,-61.5229 L 127.821,-62.0204
 L 128.005,-62.5011 L 128.239,-62.96 L 128.52,-63.3919 L 128.844,-63.7921 L 129.208,-64.1563 L 129.608,-64.4804
 L 129.95,-64.7024 L 129.95,-74 L 130.006,-74.5302 L 130.17,-75.0372 L 130.437,-75.4988 L 130.794,-75.895
 L 131.225,-76.2084 L 131.712,-76.4252 L 132.233,-76.536 L 132.767,-76.536 L 133.288,-76.4252 L 133.775,-76.2084
 L 134.206,-75.895 L 134.563,-75.4988 L 134.83,-75.0372 L 134.994,-74.5302 L 135.05,-74 L 135.05,-64.7024
 L 135.392,-64.4804 L 135.792,-64.1563 L 136.156,-63.7921 L 136.48,-63.3919 L 136.761,-62.96 L 136.995,-62.5011
 L 137.179,-62.0204 L 137.312,-61.5229 L 137.393,-61.0143 L 137.42,-60.5 L 137.393,-59.9857 L 137.312,-59.4771
 L 137.179,-58.9796 L 136.995,-58.4989 L 136.761,-58.04 L 136.48,-57.6081 L 136.156,-57.2079 L 135.792,-56.8437
 L 135.392,-56.5196 L 134.96,-56.2392 L 134.501,-56.0054 L 134.02,-55.8208 L 133.523,-55.6875 L 133.014,-55.607
 L 132.5,-55.58 z
M 256.986,-55.607 L 256.477,-55.6875 L 255.98,-55.8208 L 255.499,-56.0054 L 255.04,-56.2392 L 254.608,-56.5196
 L 254.208,-56.8437 L 253.844,-57.2079 L 253.52,-57.6081 L 253.239,-58.04 L 253.005,-58.4989 L 252.821,-58.9796
 L 252.688,-59.4771 L 252.607,-59.9857 L 252.58,-60.5 L 252.607,-61.0143 L 252.688,-61.5229 L 252.821,-62.0204
 L 253.005,-62.5011 L 253.239,-62.96 L 253.52,-63.3919 L 253.844,-63.7921 L 254.208,-64.1563 L 254.608,-64.4804
 L 254.95,-64.7024 L 254.95,-74 L 255.006,-74.5302 L 255.17,-75.0372 L 255.437,-75.4988 L 255.794,-75.895
 L 256.225,-76.2084 L 256.712,-76.4252 L 257.233,-76.536 L 257.767,-76.536 L 258.288,-76.4252 L 258.775,-76.2084
 L 259.206,-75.895 L 259.563,-75.4988 L 259.83,-75.0372 L 259.994,-74.5302 L 260.05,-74 L 260.05,-64.7024
 L 260.392,-64.4804 L 260.792,-64.1563 L 261.156,-63.7921 L 261.48,-63.3919 L 261.761,-62.96 L 261.995,-62.5011
 L 262.179,-62.0204 L 262.312,-61.5229 L 262.393,-61.0143 L 262.42,-60.5 L 262.393,-59.9857 L 262.312,-59.4771
 L 262.179,-58.9796 L 261.995,-58.4989 L 261.761,-58.04 L 261.48,-57.6081 L 261.156,-57.2079 L 260.792,-56.8437
 L 260.392,-56.5196 L 259.96,-56.2392 L 259.501,-56.0054 L 259.02,-55.8208 L 258.523,-55.6875 L 258.014,-55.607
 L 257.5,-55.58 z
M 381.986,-55.607 L 381.477,-55.6875 L 380.98,-55.8208 L 380.499,-56.0054 L 380.04,-56.2392 L 379.608,-56.5196
 L 379.208,-56.8437 L 378.844,-57.2079 L 378.52,-57.6081 L 378.239,-58.04 L 378.005,-58.4989 L 377.821,-58.9796
 L 377.688,-59.4771 L 377.607,-59.9857 L 377.58,-60.5 L 377.607,-61.0143 L 377.688,-61.5229 L 377.821,-62.0204
 L 378.005,-62.5011 L 378.239,-62.96 L 378.52,-63.3919 L 378.844,-63.7921 L 379.208,-64.1563 L 379.608,-64.4804
 L 379.95,-64.7024 L 379.95,-74 L 380.006,-74.5302 L 380.17,-75.0372 L 380.437,-75.4988 L 380.794,-75.895
 L 381.225,-76.2084 L 381.712,-76.4252 L 382.233,-76.536 L 382.767,-76.536 L 383.288,-76.4252 L 383.775,-76.2084
 L 384.206,-75.895 L 384.563,-75.4988 L 384.83,-75.0372 L 384.994,-74.5302 L 385.05,-74 L 385.05,-64.7024
 L 385.392,-64.4804 L 385.792,-64.1563 L 386.156,-63.7921 L 386.48,-63.3919 L 386.761,-62.96 L 386.995,-62.5011
 L 387.179,-62.0204 L 387.312,-61.5229 L 387.393,-61.0143 L 387.42,-60.5 L 387.393,-59.9857 L 387.312,-59.4771
 L 387.179,-58.9796 L 386.995,-58.4989 L 386.761,-58.04 L 386.48,-57.6081 L 386.156,-57.2079 L 385.792,-56.8437
 L 385.392,-56.5196 L 384.96,-56.2392 L 384.501,-56.0054 L 384.02,-55.8208 L 383.523,-55.6875 L 383.014,-55.607
 L 382.5,-55.58 z
M 506.986,-55.607 L 506.477,-55.6875 L 505.98,-55.8208 L 505.499,-56.0054 L 505.04,-56.2392 L 504.608,-56.5196
 L 504.208,-56.8437 L 503.844,-57.2079 L 503.52,-57.6081 L 503.239,-58.04 L 503.005,-58.4989 L 502.821,-58.9796
 L 502.688,-59.4771 L 502.607,-59.9857 L 502.58,-60.5 L 502.607,-61.0143 L 502.688,-61.5229 L 502.821,-62.0204
 L 503.005,-62.5011 L 503.239,-62.96 L 503.52,-63.3919 L 503.844,-63.7921 L 504.208,-64.1563 L 504.608,-64.4804
 L 504.95,-64.7024 L 504.95,-74 L 505.006,-74.5302 L 505.17,-75.0372 L 505.437,-75.4988 L 505.794,-75.895
 L 506.225,-76.2084 L 506.712,-76.4252 L 507.233,-76.536 L 507.767,-76.536 L 508.288,-76.4252 L 508.775,-76.2084
 L 509.206,-75.895 L 509.563,-75.4988 L 509.83,-75.0372 L 509.994,-74.5302 L 510.05,-74 L 510.05,-64.7024
 L 510.392,-64.4804 L 510.792,-64.1563 L 511.156,-63.7921 L 511.48,-63.3919 L 511.761,-62.96 L 511.995,-62.5011
 L 512.179,-62.0204 L 512.312,-61.5229 L 512.393,-61.0143 L 512.42,-60.5 L 512.393,-59.9857 L 512.312,-59.4771
 L 512.179,-58.9796 L 511.995,-58.4989 L 511.761,-58.04 L 511.48,-57.6081 L 511.156,-57.2079 L 510.792,-56.8437
 L 510.392,-56.5196 L 509.96,-56.2392 L 509.501,-56.0054 L 509.02,-55.8208 L 508.523,-55.6875 L 508.014,-55.607
 L 507.5,-55.58 z
M 631.986,-55.607 L 631.477,-55.6875 L 630.98,-55.8208 L 630.499,-56.0054 L 630.04,-56.2392 L 629.608,-56.5196
 L 629.208,-56.8437 L 628.844,-57.2079 L 628.52,-57.6081 L 628.239,-58.04 L 628.005,-58.4989 L 627.821,-58.9796
 L 627.688,-59.4771 L 627.607,-59.9857 L 627.58,-60.5 L 627.607,-61.0143 L 627.688,-61.5229 L 627.821,-62.0204
 L 628.005,-62.5011 L 628.239,-62.96 L 628.52,-63.3919 L 628.844,-63.7921 L 629.208,-64.1563 L 629.608,-64.4804
 L 629.95,-64.7024 L 629.95,-74 L 630.006,-74.5302 L 630.17,-75.0372 L 630.437,-75.4988 L 630.794,-75.895
 L 631.225,-76.2084 L 631.712,-76.4252 L 632.233,-76.536 L 632.767,-76.536 L 633.288,-76.4252 L 633.775,-76.2084
 L 634.206,-75.895 L 634.563,-75.4988 L 634.83,-75.0372 L 634.994,-74.5302 L 635.05,-74 L 635.05,-64.7024
 L 635.392,-64.4804 L 635.792,-64.1563 L 636.156,-63.7921 L 636.48,-63.3919 L 636.761,-62.96 L 636.995,-62.5011
 L 637.179,-62.0204 L 637.312,-61.5229 L 637.393,-61.0143 L 637.42,-60.5 L 637.393,-59.9857 L 637.312,-59.4771
 L 637.179,-58.9796 L 636.995,-58.4989 L 636.761,-58.04 L 636.48,-57.6081 L 636.156,-57.2079 L 635.792,-56.8437
 L 635.392,-56.5196 L 634.96,-56.2392 L 634.501,-56.0054 L 634.02,-55.8208 L 633.523,-55.6875 L 633.014,-55.607
 L 632.5,-55.58 z
M 318.861,-48.6839 L 318.089,-49.0045 L 308.012,-54.4863 L 307.572,-54.7639 L 306.951,-55.3235 L 306.459,-56
 L 306.119,-56.7639 L 305.945,-57.5819 L 305.945,-58.4181 L 306.119,-59.2361 L 306.459,-60 L 306.951,-60.6765
 L 307.572,-61.2361 L 308.296,-61.6542 L 309.092,-61.9126 L 309.923,-62 L 330.077,-62 L 330.596,-61.9662
 L 331.409,-61.7716 L 332.164,-61.4122 L 332.828,-60.9037 L 333.371,-60.2683 L 333.771,-59.5337 L 334.009,-58.7321
 L 334.075,-57.8985 L 333.967,-57.0694 L 333.688,-56.2809 L 333.252,-55.5675 L 332.677,-54.9605 L 331.988,-54.4863
 L 321.911,-49.0045 L 321.332,-48.7466 L 320.519,-48.5521 L 319.683,-48.5309 z
M 243.361,-24.032 L 242.589,-24.3526 L 187.196,-54.4863 L 186.756,-54.7639 L 186.135,-55.3235 L 185.643,-56
 L 185.303,-56.7639 L 185.129,-57.5819 L 185.129,-58.4181 L 185.303,-59.2361 L 185.643,-60 L 186.135,-60.6765
 L 186.756,-61.2361 L 187.48,-61.6542 L 188.276,-61.9126 L 189.107,-62 L 244.5,-62 L 245.736,-61.8042
 L 246.5,-61.4641 L 247.177,-60.9726 L 247.736,-60.3511 L 248.154,-59.627 L 248.413,-58.8316 L 248.5,-58
 L 248.5,-27.8663 L 248.432,-27.1342 L 248.194,-26.3326 L 247.795,-25.598 L 247.251,-24.9626 L 246.587,-24.4541
 L 245.832,-24.0947 L 245.019,-23.9001 L 244.183,-23.8789 z
M 519.981,-23.9001 L 519.168,-24.0947 L 518.413,-24.4541 L 517.749,-24.9626 L 517.205,-25.598 L 516.806,-26.3326
 L 516.568,-27.1342 L 516.5,-27.8663 L 516.5,-58 L 516.587,-58.8316 L 516.846,-59.627 L 517.264,-60.3511
 L 517.823,-60.9726 L 518.5,-61.4641 L 519.264,-61.8042 L 520.5,-62 L 575.893,-62 L 576.724,-61.9126
 L 577.52,-61.6542 L 578.244,-61.2361 L 578.865,-60.6765 L 579.357,-60 L 579.697,-59.2361 L 579.871,-58.4181
 L 579.871,-57.5819 L 579.697,-56.7639 L 579.357,-56 L 578.865,-55.3235 L 578.244,-54.7639 L 577.804,-54.4863
 L 522.411,-24.3526 L 521.639,-24.032 L 520.817,-23.8789 z
M 118.361,-24.032 L 117.589,-24.3526 L 62.1957,-54.4863 L 61.7561,-54.7639 L 61.1346,-55.3235 L 60.6431,-56
 L 60.303,-56.7639 L 60.1291,-57.5819 L 60.1291,-58.4181 L 60.303,-59.2361 L 60.6431,-60 L 61.1346,-60.6765
 L 61.7561,-61.2361 L 62.4802,-61.6542 L 63.2755,-61.9126 L 64.1072,-62 L 119.5,-62 L 120.736,-61.8042
 L 121.5,-61.4641 L 122.177,-60.9726 L 122.736,-60.3511 L 123.154,-59.627 L 123.413,-58.8316 L 123.5,-58
 L 123.5,-27.8663 L 123.432,-27.1342 L 123.194,-26.3326 L 122.795,-25.598 L 122.251,-24.9626 L 121.587,-24.4541
 L 120.832,-24.0947 L 120.019,-23.9001 L 119.183,-23.8789 z
M 394.981,-23.9001 L 394.168,-24.0947 L 393.413,-24.4541 L 392.749,-24.9626 L 392.205,-25.598 L 391.806,-26.3326
 L 391.568,-27.1342 L 391.5,-27.8663 L 391.5,-58 L 391.587,-58.8316 L 391.846,-59.627 L 392.264,-60.3511
 L 392.823,-60.9726 L 393.5,-61.4641 L 394.264,-61.8042 L 395.5,-62 L 450.893,-62 L 451.724,-61.9126
 L 452.52,-61.6542 L 453.244,-61.2361 L 453.865,-60.6765 L 454.357,-60 L 454.697,-59.2361 L 454.871,-58.4181
 L 454.871,-57.5819 L 454.697,-56.7639 L 454.357,-56 L 453.865,-55.3235 L 453.244,-54.7639 L 452.804,-54.4863
 L 397.411,-24.3526 L 396.639,-24.032 L 395.817,-23.8789 z
M 270.082,-21.6122 L 269.264,-21.7861 L 268.5,-22.1262 L 267.823,-22.6177 L 267.264,-23.2392 L 266.846,-23.9633
 L 266.587,-24.7586 L 266.5,-25.5903 L 266.5,-54.4097 L 266.568,-55.1418 L 266.806,-55.9434 L 267.205,-56.678
 L 267.749,-57.3134 L 268.413,-57.822 L 269.168,-58.1814 L 269.981,-58.3759 L 270.817,-58.3971 L 271.639,-58.2441
 L 272.411,-57.9234 L 298.9,-43.5137 L 299.74,-42.9037 L 300.283,-42.2683 L 300.683,-41.5337 L 300.921,-40.7321
 L 300.987,-39.8985 L 300.879,-39.0694 L 300.6,-38.2809 L 300.164,-37.5675 L 299.589,-36.9605 L 298.9,-36.4863
 L 272.411,-22.0766 L 271.736,-21.7861 L 270.918,-21.6122 z
M 368.361,-21.7559 L 367.589,-22.0765 L 341.1,-36.4863 L 340.26,-37.0963 L 339.717,-37.7317 L 339.317,-38.4663
 L 339.079,-39.2679 L 339.013,-40.1015 L 339.121,-40.9306 L 339.4,-41.7191 L 339.836,-42.4325 L 340.411,-43.0395
 L 341.1,-43.5137 L 367.589,-57.9235 L 368.264,-58.214 L 369.082,-58.3878 L 369.918,-58.3878 L 370.736,-58.214
 L 371.5,-57.8738 L 372.177,-57.3823 L 372.736,-56.7609 L 373.154,-56.0367 L 373.413,-55.2414 L 373.5,-54.4097
 L 373.5,-25.5903 L 373.432,-24.8582 L 373.194,-24.0566 L 372.795,-23.322 L 372.251,-22.6866 L 371.587,-22.178
 L 370.832,-21.8186 L 370.019,-21.6241 L 369.183,-21.6029 z
M 145.5,-18 L 144.264,-18.1958 L 143.5,-18.5359 L 142.823,-19.0274 L 142.264,-19.6489 L 141.846,-20.373
 L 141.587,-21.1684 L 141.5,-22 L 141.5,-52.1337 L 141.568,-52.8658 L 141.806,-53.6674 L 142.205,-54.4019
 L 142.749,-55.0374 L 143.413,-55.5459 L 144.168,-55.9053 L 144.981,-56.0999 L 145.817,-56.1211 L 146.639,-55.968
 L 147.411,-55.6474 L 202.804,-25.5137 L 203.244,-25.2361 L 203.865,-24.6765 L 204.357,-24 L 204.697,-23.2361
 L 204.871,-22.4181 L 204.871,-21.5819 L 204.697,-20.7639 L 204.357,-20 L 203.865,-19.3235 L 203.244,-18.7639
 L 202.52,-18.3458 L 201.724,-18.0874 L 200.893,-18 z
M 439.107,-18 L 438.276,-18.0874 L 437.48,-18.3458 L 436.756,-18.7639 L 436.135,-19.3235 L 435.643,-20
 L 435.303,-20.7639 L 435.129,-21.5819 L 435.129,-22.4181 L 435.303,-23.2361 L 435.643,-24 L 436.135,-24.6765
 L 436.756,-25.2361 L 437.196,-25.5137 L 492.589,-55.6474 L 493.361,-55.968 L 494.183,-56.1211 L 495.019,-56.0999
 L 495.832,-55.9053 L 496.587,-55.5459 L 497.251,-55.0374 L 497.795,-54.4019 L 498.194,-53.6674 L 498.432,-52.8658
 L 498.5,-52.1337 L 498.5,-22 L 498.413,-21.1684 L 498.154,-20.373 L 497.736,-19.6489 L 497.177,-19.0274
 L 496.5,-18.5359 L 495.736,-18.1958 L 494.5,-18 z
M 22,-18 L 20.7639,-18.1958 L 20,-18.5359 L 19.3235,-19.0274 L 18.7639,-19.6489 L 18.3458,-20.373
 L 18.0874,-21.1684 L 18,-22 L 18,-51.3177 L 18.0676,-52.0498 L 18.3057,-52.8514 L 18.7053,-53.586
 L 19.2489,-54.2214 L 19.9128,-54.7299 L 20.6678,-55.0893 L 21.4811,-55.2839 L 22.317,-55.3051 L 23.1392,-55.152
 L 23.9115,-54.8314 L 77.8043,-25.5137 L 78.2439,-25.2361 L 78.8654,-24.6765 L 79.3569,-24 L 79.697,-23.2361
 L 79.8709,-22.4181 L 79.8709,-21.5819 L 79.697,-20.7639 L 79.3569,-20 L 78.8654,-19.3235 L 78.2439,-18.7639
 L 77.5197,-18.3458 L 76.7244,-18.0874 L 75.8928,-18 z
M 564.107,-18 L 563.276,-18.0874 L 562.48,-18.3458 L 561.756,-18.7639 L 561.135,-19.3235 L 560.643,-20
 L 560.303,-20.7639 L 560.129,-21.5819 L 560.129,-22.4181 L 560.303,-23.2361 L 560.643,-24 L 561.135,-24.6765
 L 561.756,-25.2361 L 562.196,-25.5137 L 616.089,-54.8314 L 616.861,-55.152 L 617.683,-55.3051 L 618.519,-55.2839
 L 619.332,-55.0893 L 620.087,-54.7299 L 620.751,-54.2214 L 621.295,-53.586 L 621.694,-52.8514 L 621.932,-52.0498
 L 622,-51.3177 L 622,-22 L 621.913,-21.1684 L 621.654,-20.373 L 621.236,-19.6489 L 620.677,-19.0274
 L 620,-18.5359 L 619.236,-18.1958 L 618,-18 z
M 309.923,-18 L 309.404,-18.0338 L 308.591,-18.2284 L 307.836,-18.5878 L 307.172,-19.0963 L 306.629,-19.7317
 L 306.229,-20.4663 L 305.991,-21.2679 L 305.925,-22.1015 L 306.033,-22.9306 L 306.312,-23.7191 L 306.748,-24.4325
 L 307.323,-25.0395 L 308.012,-25.5137 L 318.089,-30.9955 L 318.668,-31.2534 L 319.481,-31.4479 L 320.317,-31.4691
 L 321.139,-31.3161 L 321.911,-30.9955 L 331.988,-25.5137 L 332.428,-25.2361 L 333.049,-24.6765 L 333.541,-24
 L 333.881,-23.2361 L 334.055,-22.4181 L 334.055,-21.5819 L 333.881,-20.7639 L 333.541,-20 L 333.049,-19.3235
 L 332.428,-18.7639 L 331.704,-18.3458 L 330.908,-18.0874 L 330.077,-18 z
" stroke="black" fill="lightgray" stroke-width="0.5"/>
</svg>
