<?xml version="1.0" standalone="no"?>
<!DOCTYPE svg PUBLIC "-//W3C//DTD SVG 1.1//EN" "http://www.w3.org/Graphics/SVG/1.1/DTD/svg11.dtd">
<svg width="495mm" height="80mm" viewBox="0 -80 495 80" xmlns="http://www.w3.org/2000/svg" version="1.1">
<title>OpenSCAD Model</title>
<path d="
M 495,-80 L 0,-80 L 0,-0 L 4.95,-0 L 4.95,-6 L 5.00572,-6.53017
 L 5.17046,-7.03717 L 5.437,-7.49884 L 5.79372,-7.895 L 6.22499,-8.20836 L 6.71201,-8.42519 L 7.23344,-8.53603
 L 7.76654,-8.53603 L 8.28798,-8.42519 L 8.77499,-8.20836 L 9.20627,-7.895 L 9.56299,-7.49884 L 9.82953,-7.03717
 L 9.99426,-6.53017 L 10.05,-6 L 10.05,-0 L 124.95,-0 L 124.95,-6 L 125.006,-6.53017
 L 125.17,-7.03717 L 125.437,-7.49884 L 125.794,-7.895 L 126.225,-8.20836 L 126.712,-8.42519 L 127.233,-8.53603
 L 127.767,-8.53603 L 128.288,-8.42519 L 128.775,-8.20836 L 129.206,-7.895 L 129.563,-7.49884 L 129.83,-7.03717
 L 129.994,-6.53017 L 130.05,-6 L 130.05,-0 L 244.95,-0 L 244.95,-6 L 245.006,-6.53017
 L 245.17,-7.03717 L 245.437,-7.49884 L 245.794,-7.895 L 246.225,-8.20836 L 246.712,-8.42519 L 247.233,-8.53603
 L 247.767,-8.53603 L 248.288,-8.42519 L 248.775,-8.20836 L 249.206,-7.895 L 249.563,-7.49884 L 249.83,-7.03717
 L 249.994,-6.53017 L 250.05,-6 L 250.05,-0 L 364.95,-0 L 364.95,-6 L 365.006,-6.53017
 L 365.17,-7.03717 L 365.437,-7.49884 L 365.794,-7.895 L 366.225,-8.20836 L 366.712,-8.42519 L 367.233,-8.53603
 L 367.767,-8.53603 L 368.288,-8.42519 L 368.775,-8.20836 L 369.206,-7.895 L 369.563,-7.49884 L 369.83,-7.03717
 L 369.994,-6.53017 L 370.05,-6 L 370.05,-0 L 484.95,-0 L 484.95,-6 L 485.006,-6.53017
 L 485.17,-7.03717 L 485.437,-7.49884 L 485.794,-7.895 L 486.225,-8.20836 L 486.712,-8.42519 L 487.233,-8.53603
 L 487.767,-8.53603 L 488.288,-8.42519 L 488.775,-8.20836 L 489.206,-7.895 L 489.563,-7.49884 L 489.83,-7.03717
 L 489.994,-6.53017 L 490.05,-6 L 490.05,-0 L 495,-0 z
M 6.98573,-55.607 L 6.47708,-55.6875 L 5.97964,-55.8208 L 5.49887,-56.0054 L 5.04001,-56.2392 L 4.60811,-56.5196
 L 4.20789,-56.8437 L 3.84373,-57.2079 L 3.51964,-57.6081 L 3.23917,-58.04 L 3.00537,-58.4989 L 2.82082,-58.9796
 L 2.68752,-59.4771 L 2.60696,-59.9857 L 2.58,-60.5 L 2.60696,-61.0143 L 2.68752,-61.5229 L 2.82082,-62.0204
 L 3.00537,-62.5011 L 3.23917,-62.96 L 3.51964,-63.3919 L 3.84373,-63.7921 L 4.20789,-64.1563 L 4.60811,-64.4804
 L 4.95001,-64.7024 L 4.95001,-74 L 5.00574,-74.5302 L 5.17047,-75.0372 L 5.43701,-75.4988 L 5.79373,-75.895
 L 6.22501,-76.2084 L 6.71202,-76.4252 L 7.23346,-76.536 L 7.76654,-76.536 L 8.28798,-76.4252 L 8.77499,-76.2084
 L 9.20627,-75.895 L 9.56299,-75.4988 L 9.82953,-75.0372 L 9.99426,-74.5302 L 10.05,-74 L 10.05,-64.7024
 L 10.3919,-64.4804 L 10.7921,-64.1563 L 11.1563,-63.7921 L 11.4804,-63.3919 L 11.7608,-62.96 L 11.9946,-62.5011
 L 12.1792,-62.0204 L 12.3125,-61.5229 L 12.393,-61.0143 L 12.42,-60.5 L 12.393,-59.9857 L 12.3125,-59.4771
 L 12.1792,-58.9796 L 11.9946,-58.4989 L 11.7608,-58.04 L 11.4804,-57.6081 L 11.1563,-57.2079 L 10.7921,-56.8437
 L 10.3919,-56.5196 L 9.95999,-56.2392 L 9.50113,-56.0054 L 9.02036,-55.8208 L 8.52292,-55.6875 L 8.01427,-55.607
 L 7.5,-55.58 z
M 126.986,-55.607 L 126.477,-55.6875 L 125.98,-55.8208 L 125.499,-56.0054 L 125.04,-56.2392 L 124.608,-56.5196
 L 124.208,-56.8437 L 123.844,-57.2079 L 123.52,-57.6081 L 123.239,-58.04 L 123.005,-58.4989 L 122.821,-58.9796
 L 122.688,-59.4771 L 122.607,-59.9857 L 122.58,-60.5 L 122.607,-61.0143 L 122.688,-61.5229 L 122.821,-62.0204
 L 123.005,-62.5011 L 123.239,-62.96 L 123.52,-63.3919 L 123.844,-63.7921 L 124.208,-64.1563 L 124.608,-64.4804
 L 124.95,-64.7024 L 124.95,-74 L 125.006,-74.5302 L 125.17,-75.0372 L 125.437,-75.4988 L 125.794,-75.895
 L 126.225,-76.2084 L 126.712,-76.4252 L 127.233,-76.536 L 127.767,-76.536 L 128.288,-76.4252 L 128.775,-76.2084
 L 129.206,-75.895 L 129.563,-75.4988 L 129.83,-75.0372 L 129.994,-74.5302 L 130.05,-74 L 130.05,-64.7024
 L 130.392,-64.4804 L 130.792,-64.1563 L 131.156,-63.7921 L 131.48,-63.3919 L 131.761,-62.96 L 131.995,-62.5011
 L 132.179,-62.0204 L 132.312,-61.5229 L 132.393,-61.0143 L 132.42,-60.5 L 132.393,-59.9857 L 132.312,-59.4771
 L 132.179,-58.9796 L 131.995,-58.4989 L 131.761,-58.04 L 131.48,-57.6081 L 131.156,-57.2079 L 130.792,-56.8437
 L 130.392,-56.5196 L 129.96,-56.2392 L 129.501,-56.0054 L 129.02,-55.8208 L 128.523,-55.6875 L 128.014,-55.607
 L 127.5,-55.58 z
M 246.986,-55.607 L 246.477,-55.6875 L 245.98,-55.8208 L 245.499,-56.0054 L 245.04,-56.2392 L 244.608,-56.5196
 L 244.208,-56.8437 L 243.844,-57.2079 L 243.52,-57.6081 L 243.239,-58.04 L 243.005,-58.4989 L 242.821,-58.9796
 L 242.688,-59.4771 L 242.607,-59.9857 L 242.58,-60.5 L 242.607,-61.0143 L 242.688,-61.5229 L 242.821,-62.0204
 L 243.005,-62.5011 L 243.239,-62.96 L 243.52,-63.3919 L 243.844,-63.7921 L 244.208,-64.1563 L 244.608,-64.4804
 L 244.95,-64.7024 L 244.95,-74 L 245.006,-74.5302 L 245.17,-75.0372 L 245.437,-75.4988 L 245.794,-75.895
 L 246.225,-76.2084 L 246.712,-76.4252 L 247.233,-76.536 L 247.767,-76.536 L 248.288,-76.4252 L 248.775,-76.2084
 L 249.206,-75.895 L 249.563,-75.4988 L 249.83,-75.0372 L 249.994,-74.5302 L 250.05,-74 L 250.05,-64.7024
 L 250.392,-64.4804 L 250.792,-64.1563 L 251.156,-63.7921 L 251.48,-63.3919 L 251.761,-62.96 L 251.995,-62.5011
 L 252.179,-62.0204 L 252.312,-61.5229 L 252.393,-61.0143 L 252.42,-60.5 L 252.393,-59.9857 L 252.312,-59.4771
 L 252.179,-58.9796 L 251.995,-58.4989 L 251.761,-58.04 L 251.48,-57.6081 L 251.156,-57.2079 L 250.792,-56.8437
 L 250.392,-56.5196 L 249.96,-56.2392 L 249.501,-56.0054 L 249.02,-55.8208 L 248.523,-55.6875 L 248.014,-55.607
 L 247.5,-55.58 z
M 366.986,-55.607 L 366.477,-55.6875 L 365.98,-55.8208 L 365.499,-56.0054 L 365.04,-56.2392 L 364.608,-56.5196
 L 364.208,-56.8437 L 363.844,-57.2079 L 363.52,-57.6081 L 363.239,-58.04 L 363.005,-58.4989 L 362.821,-58.9796
 L 362.688,-59.4771 L 362.607,-59.9857 L 362.58,-60.5 L 362.607,-61.0143 L 362.688,-61.5229 L 362.821,-62.0204
 L 363.005,-62.5011 L 363.239,-62.96 L 363.52,-63.3919 L 363.844,-63.7921 L 364.208,-64.1563 L 364.608,-64.4804
 L 364.95,-64.7024 L 364.95,-74 L 365.006,-74.5302 L 365.17,-75.0372 L 365.437,-75.4988 L 365.794,-75.895
 L 366.225,-76.2084 L 366.712,-76.4252 L 367.233,-76.536 L 367.767,-76.536 L 368.288,-76.4252 L 368.775,-76.2084
 L 369.206,-75.895 L 369.563,-75.4988 L 369.83,-75.0372 L 369.994,-74.5302 L 370.05,-74 L 370.05,-64.7024
 L 370.392,-64.4804 L 370.792,-64.1563 L 371.156,-63.7921 L 371.48,-63.3919 L 371.761,-62.96 L 371.995,-62.5011
 L 372.179,-62.0204 L 372.312,-61.5229 L 372.393,-61.0143 L 372.42,-60.5 L 372.393,-59.9857 L 372.312,-59.4771
 L 372.179,-58.9796 L 371.995,-58.4989 L 371.761,-58.04 L 371.48,-57.6081 L 371.156,-57.2079 L 370.792,-56.8437
 L 370.392,-56.5196 L 369.96,-56.2392 L 369.501,-56.0054 L 369.02,-55.8208 L 368.523,-55.6875 L 368.014,-55.607
 L 367.5,-55.58 z
M 486.986,-55.607 L 486.477,-55.6875 L 485.98,-55.8208 L 485.499,-56.0054 L 485.04,-56.2392 L 484.608,-56.5196
 L 484.208,-56.8437 L 483.844,-57.2079 L 483.52,-57.6081 L 483.239,-58.04 L 483.005,-58.4989 L 482.821,-58.9796
 L 482.688,-59.4771 L 482.607,-59.9857 L 482.58,-60.5 L 482.607,-61.0143 L 482.688,-61.5229 L 482.821,-62.0204
 L 483.005,-62.5011 L 483.239,-62.96 L 483.52,-63.3919 L 483.844,-63.7921 L 484.208,-64.1563 L 484.608,-64.4804
 L 484.95,-64.7024 L 484.95,-74 L 485.006,-74.5302 L 485.17,-75.0372 L 485.437,-75.4988 L 485.794,-75.895
 L 486.225,-76.2084 L 486.712,-76.4252 L 487.233,-76.536 L 487.767,-76.536 L 488.288,-76.4252 L 488.775,-76.2084
 L 489.206,-75.895 L 489.563,-75.4988 L 489.83,-75.0372 L 489.994,-74.5302 L 490.05,-74 L 490.05,-64.7024
 L 490.392,-64.4804 L 490.792,-64.1563 L 491.156,-63.7921 L 491.48,-63.3919 L 491.761,-62.96 L 491.995,-62.5011
 L 492.179,-62.0204 L 492.312,-61.5229 L 492.393,-61.0143 L 492.42,-60.5 L 492.393,-59.9857 L 492.312,-59.4771
 L 492.179,-58.9796 L 491.995,-58.4989 L 491.761,-58.04 L 491.48,-57.6081 L 491.156,-57.2079 L 490.792,-56.8437
 L 490.392,-56.5196 L 489.96,-56.2392 L 489.501,-56.0054 L 489.02,-55.8208 L 488.523,-55.6875 L 488.014,-55.607
 L 487.5,-55.58 z
M 260.05,-24.3337 L 259.233,-24.5142 L 258.472,-24.8604 L 257.8,-25.3574 L 257.245,-25.9833 L 256.833,-26.7108
 L 256.581,-27.5082 L 256.5,-28.3083 L 256.5,-58 L 256.587,-58.8316 L 256.846,-59.627 L 257.264,-60.3511
 L 257.823,-60.9726 L 258.5,-61.4641 L 259.264,-61.8042 L 260.5,-62 L 312.897,-62 L 313.729,-61.9126
 L 314.524,-61.6542 L 315.248,-61.2361 L 315.87,-60.6765 L 316.361,-60 L 316.701,-59.2361 L 316.875,-58.4181
 L 316.875,-57.5819 L 316.701,-56.7639 L 316.361,-56 L 315.87,-55.3235 L 315.248,-54.7639 L 314.869,-54.5199
 L 262.472,-24.8282 L 261.705,-24.4943 L 260.886,-24.327 z
M 233.295,-24.4943 L 232.528,-24.8282 L 180.131,-54.5199 L 179.752,-54.7639 L 179.13,-55.3235 L 178.639,-56
 L 178.299,-56.7639 L 178.125,-57.5819 L 178.125,-58.4181 L 178.299,-59.2361 L 178.639,-60 L 179.13,-60.6765
 L 179.752,-61.2361 L 180.476,-61.6542 L 181.271,-61.9126 L 182.103,-62 L 234.5,-62 L 235.736,-61.8042
 L 236.5,-61.4641 L 237.177,-60.9726 L 237.736,-60.3511 L 238.154,-59.627 L 238.413,-58.8316 L 238.5,-58
 L 238.5,-28.3083 L 238.419,-27.5082 L 238.167,-26.7108 L 237.755,-25.9833 L 237.2,-25.3574 L 236.528,-24.8604
 L 235.767,-24.5142 L 234.95,-24.3337 L 234.114,-24.327 z
M 380.05,-24.3337 L 379.233,-24.5142 L 378.472,-24.8604 L 377.8,-25.3574 L 377.245,-25.9833 L 376.833,-26.7108
 L 376.581,-27.5082 L 376.5,-28.3083 L 376.5,-58 L 376.587,-58.8316 L 376.846,-59.627 L 377.264,-60.3511
 L 377.823,-60.9726 L 378.5,-61.4641 L 379.264,-61.8042 L 380.5,-62 L 432.897,-62 L 433.729,-61.9126
 L 434.524,-61.6542 L 435.248,-61.2361 L 435.87,-60.6765 L 436.361,-60 L 436.701,-59.2361 L 436.875,-58.4181
 L 436.875,-57.5819 L 436.701,-56.7639 L 436.361,-56 L 435.87,-55.3235 L 435.248,-54.7639 L 434.869,-54.5199
 L 382.472,-24.8282 L 381.705,-24.4943 L 380.886,-24.327 z
M 113.295,-24.4943 L 112.528,-24.8282 L 60.1309,-54.5199 L 59.7518,-54.7639 L 59.1303,-55.3235 L 58.6388,-56
 L 58.2987,-56.7639 L 58.1248,-57.5819 L 58.1248,-58.4181 L 58.2987,-59.2361 L 58.6388,-60 L 59.1303,-60.6765
 L 59.7518,-61.2361 L 60.476,-61.6542 L 61.2713,-61.9126 L 62.1029,-62 L 114.5,-62 L 115.736,-61.8042
 L 116.5,-61.4641 L 117.177,-60.9726 L 117.736,-60.3511 L 118.154,-59.627 L 118.413,-58.8316 L 118.5,-58
 L 118.5,-28.3083 L 118.419,-27.5082 L 118.167,-26.7108 L 117.755,-25.9833 L 117.2,-25.3574 L 116.528,-24.8604
 L 115.767,-24.5142 L 114.95,-24.3337 L 114.114,-24.327 z
M 302.103,-18 L 301.271,-18.0874 L 300.476,-18.3458 L 299.752,-18.7639 L 299.13,-19.3235 L 298.639,-20
 L 298.299,-20.7639 L 298.125,-21.5819 L 298.125,-22.4181 L 298.299,-23.2361 L 298.639,-24 L 299.13,-24.6765
 L 299.752,-25.2361 L 300.131,-25.4801 L 352.528,-55.1718 L 353.295,-55.5057 L 354.114,-55.673 L 354.95,-55.6663
 L 355.767,-55.4858 L 356.528,-55.1396 L 357.2,-54.6426 L 357.755,-54.0167 L 358.167,-53.2891 L 358.419,-52.4918
 L 358.5,-51.6917 L 358.5,-22 L 358.413,-21.1684 L 358.154,-20.373 L 357.736,-19.6489 L 357.177,-19.0274
 L 356.5,-18.5359 L 355.736,-18.1958 L 354.5,-18 z
M 140.5,-18 L 139.264,-18.1958 L 138.5,-18.5359 L 137.823,-19.0274 L 137.264,-19.6489 L 136.846,-20.373
 L 136.587,-21.1684 L 136.5,-22 L 136.5,-51.6917 L 136.581,-52.4918 L 136.833,-53.2891 L 137.245,-54.0167
 L 137.8,-54.6426 L 138.472,-55.1396 L 139.233,-55.4858 L 140.05,-55.6663 L 140.886,-55.673 L 141.705,-55.5057
 L 142.472,-55.1718 L 194.869,-25.4801 L 195.248,-25.2361 L 195.87,-24.6765 L 196.361,-24 L 196.701,-23.2361
 L 196.875,-22.4181 L 196.875,-21.5819 L 196.701,-20.7639 L 196.361,-20 L 195.87,-19.3235 L 195.248,-18.7639
 L 194.524,-18.3458 L 193.729,-18.0874 L 192.897,-18 z
M 22,-18 L 20.7639,-18.1958 L 20,-18.5359 L 19.3235,-19.0274 L 18.7639,-19.6489 L 18.3458,-20.373
 L 18.0874,-21.1684 L 18,-22 L 18,-50.8417 L 18.0808,-51.6418 L 18.3328,-52.4391 L 18.7451,-53.1667
 L 19.2996,-53.7926 L 19.9722,-54.2896 L 20.7334,-54.6358 L 21.5499,-54.8163 L 22.3861,-54.823 L 23.2054,-54.6557
 L 23.972,-54.3218 L 74.8691,-25.4801 L 75.2482,-25.2361 L 75.8697,-24.6765 L 76.3612,-24 L 76.7013,-23.2361
 L 76.8752,-22.4181 L 76.8752,-21.5819 L 76.7013,-20.7639 L 76.3612,-20 L 75.8697,-19.3235 L 75.2482,-18.7639
 L 74.524,-18.3458 L 73.7287,-18.0874 L 72.8971,-18 z
M 422.103,-18 L 421.271,-18.0874 L 420.476,-18.3458 L 419.752,-18.7639 L 419.13,-19.3235 L 418.639,-20
 L 418.299,-20.7639 L 418.125,-21.5819 L 418.125,-22.4181 L 418.299,-23.2361 L 418.639,-24 L 419.13,-24.6765
 L 419.752,-25.2361 L 420.131,-25.4801 L 471.028,-54.3218 L 471.795,-54.6557 L 472.614,-54.823 L 473.45,-54.8163
 L 474.267,-54.6358 L 475.028,-54.2896 L 475.7,-53.7926 L 476.255,-53.1667 L 476.667,-52.4391 L 476.919,-51.6418
 L 477,-50.8417 L 477,-22 L 476.913,-21.1684 L 476.654,-20.373 L 476.236,-19.6489 L 475.677,-19.0274
 L 475,-18.5359 L 474.236,-18.1958 L 473,-18 z
" stroke="black" fill="lightgray" stroke-width="0.5"/>
</svg>
