<?xml version="1.0" standalone="no"?>
<!DOCTYPE svg PUBLIC "-//W3C//DTD SVG 1.1//EN" "http://www.w3.org/Graphics/SVG/1.1/DTD/svg11.dtd">
<svg width="965mm" height="80mm" viewBox="0 -80 965 80" xmlns="http://www.w3.org/2000/svg" version="1.1">
<title>OpenSCAD Model</title>
<path d="
M 965,-80 L 0,-80 L 0,-0 L 4.95,-0 L 4.95,-6 L 5.00572,-6.53017
 L 5.17046,-7.03717 L 5.437,-7.49884 L 5.79372,-7.895 L 6.22499,-8.20836 L 6.71201,-8.42519 L 7.23344,-8.53603
 L 7.76654,-8.53603 L 8.28798,-8.42519 L 8.77499,-8.20836 L 9.20627,-7.895 L 9.56299,-7.49884 L 9.82953,-7.03717
 L 9.99426,-6.53017 L 10.05,-6 L 10.05,-0 L 194.95,-0 L 194.95,-6 L 195.006,-6.53017
 L 195.17,-7.03717 L 195.437,-7.49884 L 195.794,-7.895 L 196.225,-8.20836 L 196.712,-8.42519 L 197.233,-8.53603
 L 197.767,-8.53603 L 198.288,-8.42519 L 198.775,-8.20836 L 199.206,-7.895 L 199.563,-7.49884 L 199.83,-7.03717
 L 199.994,-6.53017 L 200.05,-6 L 200.05,-0 L 384.95,-0 L 384.95,-6 L 385.006,-6.53017
 L 385.17,-7.03717 L 385.437,-7.49884 L 385.794,-7.895 L 386.225,-8.20836 L 386.712,-8.42519 L 387.233,-8.53603
 L 387.767,-8.53603 L 388.288,-8.42519 L 388.775,-8.20836 L 389.206,-7.895 L 389.563,-7.49884 L 389.83,-7.03717
 L 389.994,-6.53017 L 390.05,-6 L 390.05,-0 L 574.95,-0 L 574.95,-6 L 575.006,-6.53017
 L 575.17,-7.03717 L 575.437,-7.49884 L 575.794,-7.895 L 576.225,-8.20836 L 576.712,-8.42519 L 577.233,-8.53603
 L 577.767,-8.53603 L 578.288,-8.42519 L 578.775,-8.20836 L 579.206,-7.895 L 579.563,-7.49884 L 579.83,-7.03717
 L 579.994,-6.53017 L 580.05,-6 L 580.05,-0 L 764.95,-0 L 764.95,-6 L 765.006,-6.53017
 L 765.17,-7.03717 L 765.437,-7.49884 L 765.794,-7.895 L 766.225,-8.20836 L 766.712,-8.42519 L 767.233,-8.53603
 L 767.767,-8.53603 L 768.288,-8.42519 L 768.775,-8.20836 L 769.206,-7.895 L 769.563,-7.49884 L 769.83,-7.03717
 L 769.994,-6.53017 L 770.05,-6 L 770.05,-0 L 954.95,-0 L 954.95,-6 L 955.006,-6.53017
 L 955.17,-7.03717 L 955.437,-7.49884 L 955.794,-7.895 L 956.225,-8.20836 L 956.712,-8.42519 L 957.233,-8.53603
 L 957.767,-8.53603 L 958.288,-8.42519 L 958.775,-8.20836 L 959.206,-7.895 L 959.563,-7.49884 L 959.83,-7.03717
 L 959.994,-6.53017 L 960.05,-6 L 960.05,-0 L 965,-0 z
M 6.98573,-55.607 L 6.47708,-55.6875 L 5.97964,-55.8208 L 5.49887,-56.0054 L 5.04001,-56.2392 L 4.60811,-56.5196
 L 4.20789,-56.8437 L 3.84373,-57.2079 L 3.51964,-57.6081 L 3.23917,-58.04 L 3.00537,-58.4989 L 2.82082,-58.9796
 L 2.68752,-59.4771 L 2.60696,-59.9857 L 2.58,-60.5 L 2.60696,-61.0143 L 2.68752,-61.5229 L 2.82082,-62.0204
 L 3.00537,-62.5011 L 3.23917,-62.96 L 3.51964,-63.3919 L 3.84373,-63.7921 L 4.20789,-64.1563 L 4.60811,-64.4804
 L 4.95001,-64.7024 L 4.95001,-74 L 5.00574,-74.5302 L 5.17047,-75.0372 L 5.43701,-75.4988 L 5.79373,-75.895
 L 6.22501,-76.2084 L 6.71202,-76.4252 L 7.23346,-76.536 L 7.76654,-76.536 L 8.28798,-76.4252 L 8.77499,-76.2084
 L 9.20627,-75.895 L 9.56299,-75.4988 L 9.82953,-75.0372 L 9.99426,-74.5302 L 10.05,-74 L 10.05,-64.7024
 L 10.3919,-64.4804 L 10.7921,-64.1563 L 11.1563,-63.7921 L 11.4804,-63.3919 L 11.7608,-62.96 L 11.9946,-62.5011
 L 12.1792,-62.0204 L 12.3125,-61.5229 L 12.393,-61.0143 L 12.42,-60.5 L 12.393,-59.9857 L 12.3125,-59.4771
 L 12.1792,-58.9796 L 11.9946,-58.4989 L 11.7608,-58.04 L 11.4804,-57.6081 L 11.1563,-57.2079 L 10.7921,-56.8437
 L 10.3919,-56.5196 L 9.95999,-56.2392 L 9.50113,-56.0054 L 9.02036,-55.8208 L 8.52292,-55.6875 L 8.01427,-55.607
 L 7.5,-55.58 z
M 196.986,-55.607 L 196.477,-55.6875 L 195.98,-55.8208 L 195.499,-56.0054 L 195.04,-56.2392 L 194.608,-56.5196
 L 194.208,-56.8437 L 193.844,-57.2079 L 193.52,-57.6081 L 193.239,-58.04 L 193.005,-58.4989 L 192.821,-58.9796
 L 192.688,-59.4771 L 192.607,-59.9857 L 192.58,-60.5 L 192.607,-61.0143 L 192.688,-61.5229 L 192.821,-62.0204
 L 193.005,-62.5011 L 193.239,-62.96 L 193.52,-63.3919 L 193.844,-63.7921 L 194.208,-64.1563 L 194.608,-64.4804
 L 194.95,-64.7024 L 194.95,-74 L 195.006,-74.5302 L 195.17,-75.0372 L 195.437,-75.4988 L 195.794,-75.895
 L 196.225,-76.2084 L 196.712,-76.4252 L 197.233,-76.536 L 197.767,-76.536 L 198.288,-76.4252 L 198.775,-76.2084
 L 199.206,-75.895 L 199.563,-75.4988 L 199.83,-75.0372 L 199.994,-74.5302 L 200.05,-74 L 200.05,-64.7024
 L 200.392,-64.4804 L 200.792,-64.1563 L 201.156,-63.7921 L 201.48,-63.3919 L 201.761,-62.96 L 201.995,-62.5011
 L 202.179,-62.0204 L 202.312,-61.5229 L 202.393,-61.0143 L 202.42,-60.5 L 202.393,-59.9857 L 202.312,-59.4771
 L 202.179,-58.9796 L 201.995,-58.4989 L 201.761,-58.04 L 201.48,-57.6081 L 201.156,-57.2079 L 200.792,-56.8437
 L 200.392,-56.5196 L 199.96,-56.2392 L 199.501,-56.0054 L 199.02,-55.8208 L 198.523,-55.6875 L 198.014,-55.607
 L 197.5,-55.58 z
M 386.986,-55.607 L 386.477,-55.6875 L 385.98,-55.8208 L 385.499,-56.0054 L 385.04,-56.2392 L 384.608,-56.5196
 L 384.208,-56.8437 L 383.844,-57.2079 L 383.52,-57.6081 L 383.239,-58.04 L 383.005,-58.4989 L 382.821,-58.9796
 L 382.688,-59.4771 L 382.607,-59.9857 L 382.58,-60.5 L 382.607,-61.0143 L 382.688,-61.5229 L 382.821,-62.0204
 L 383.005,-62.5011 L 383.239,-62.96 L 383.52,-63.3919 L 383.844,-63.7921 L 384.208,-64.1563 L 384.608,-64.4804
 L 384.95,-64.7024 L 384.95,-74 L 385.006,-74.5302 L 385.17,-75.0372 L 385.437,-75.4988 L 385.794,-75.895
 L 386.225,-76.2084 L 386.712,-76.4252 L 387.233,-76.536 L 387.767,-76.536 L 388.288,-76.4252 L 388.775,-76.2084
 L 389.206,-75.895 L 389.563,-75.4988 L 389.83,-75.0372 L 389.994,-74.5302 L 390.05,-74 L 390.05,-64.7024
 L 390.392,-64.4804 L 390.792,-64.1563 L 391.156,-63.7921 L 391.48,-63.3919 L 391.761,-62.96 L 391.995,-62.5011
 L 392.179,-62.0204 L 392.312,-61.5229 L 392.393,-61.0143 L 392.42,-60.5 L 392.393,-59.9857 L 392.312,-59.4771
 L 392.179,-58.9796 L 391.995,-58.4989 L 391.761,-58.04 L 391.48,-57.6081 L 391.156,-57.2079 L 390.792,-56.8437
 L 390.392,-56.5196 L 389.96,-56.2392 L 389.501,-56.0054 L 389.02,-55.8208 L 388.523,-55.6875 L 388.014,-55.607
 L 387.5,-55.58 z
M 576.986,-55.607 L 576.477,-55.6875 L 575.98,-55.8208 L 575.499,-56.0054 L 575.04,-56.2392 L 574.608,-56.5196
 L 574.208,-56.8437 L 573.844,-57.2079 L 573.52,-57.6081 L 573.239,-58.04 L 573.005,-58.4989 L 572.821,-58.9796
 L 572.688,-59.4771 L 572.607,-59.9857 L 572.58,-60.5 L 572.607,-61.0143 L 572.688,-61.5229 L 572.821,-62.0204
 L 573.005,-62.5011 L 573.239,-62.96 L 573.52,-63.3919 L 573.844,-63.7921 L 574.208,-64.1563 L 574.608,-64.4804
 L 574.95,-64.7024 L 574.95,-74 L 575.006,-74.5302 L 575.17,-75.0372 L 575.437,-75.4988 L 575.794,-75.895
 L 576.225,-76.2084 L 576.712,-76.4252 L 577.233,-76.536 L 577.767,-76.536 L 578.288,-76.4252 L 578.775,-76.2084
 L 579.206,-75.895 L 579.563,-75.4988 L 579.83,-75.0372 L 579.994,-74.5302 L 580.05,-74 L 580.05,-64.7024
 L 580.392,-64.4804 L 580.792,-64.1563 L 581.156,-63.7921 L 581.48,-63.3919 L 581.761,-62.96 L 581.995,-62.5011
 L 582.179,-62.0204 L 582.312,-61.5229 L 582.393,-61.0143 L 582.42,-60.5 L 582.393,-59.9857 L 582.312,-59.4771
 L 582.179,-58.9796 L 581.995,-58.4989 L 581.761,-58.04 L 581.48,-57.6081 L 581.156,-57.2079 L 580.792,-56.8437
 L 580.392,-56.5196 L 579.96,-56.2392 L 579.501,-56.0054 L 579.02,-55.8208 L 578.523,-55.6875 L 578.014,-55.607
 L 577.5,-55.58 z
M 766.986,-55.607 L 766.477,-55.6875 L 765.98,-55.8208 L 765.499,-56.0054 L 765.04,-56.2392 L 764.608,-56.5196
 L 764.208,-56.8437 L 763.844,-57.2079 L 763.52,-57.6081 L 763.239,-58.04 L 763.005,-58.4989 L 762.821,-58.9796
 L 762.688,-59.4771 L 762.607,-59.9857 L 762.58,-60.5 L 762.607,-61.0143 L 762.688,-61.5229 L 762.821,-62.0204
 L 763.005,-62.5011 L 763.239,-62.96 L 763.52,-63.3919 L 763.844,-63.7921 L 764.208,-64.1563 L 764.608,-64.4804
 L 764.95,-64.7024 L 764.95,-74 L 765.006,-74.5302 L 765.17,-75.0372 L 765.437,-75.4988 L 765.794,-75.895
 L 766.225,-76.2084 L 766.712,-76.4252 L 767.233,-76.536 L 767.767,-76.536 L 768.288,-76.4252 L 768.775,-76.2084
 L 769.206,-75.895 L 769.563,-75.4988 L 769.83,-75.0372 L 769.994,-74.5302 L 770.05,-74 L 770.05,-64.7024
 L 770.392,-64.4804 L 770.792,-64.1563 L 771.156,-63.7921 L 771.48,-63.3919 L 771.761,-62.96 L 771.995,-62.5011
 L 772.179,-62.0204 L 772.312,-61.5229 L 772.393,-61.0143 L 772.42,-60.5 L 772.393,-59.9857 L 772.312,-59.4771
 L 772.179,-58.9796 L 771.995,-58.4989 L 771.761,-58.04 L 771.48,-57.6081 L 771.156,-57.2079 L 770.792,-56.8437
 L 770.392,-56.5196 L 769.96,-56.2392 L 769.501,-56.0054 L 769.02,-55.8208 L 768.523,-55.6875 L 768.014,-55.607
 L 767.5,-55.58 z
M 956.986,-55.607 L 956.477,-55.6875 L 955.98,-55.8208 L 955.499,-56.0054 L 955.04,-56.2392 L 954.608,-56.5196
 L 954.208,-56.8437 L 953.844,-57.2079 L 953.52,-57.6081 L 953.239,-58.04 L 953.005,-58.4989 L 952.821,-58.9796
 L 952.688,-59.4771 L 952.607,-59.9857 L 952.58,-60.5 L 952.607,-61.0143 L 952.688,-61.5229 L 952.821,-62.0204
 L 953.005,-62.5011 L 953.239,-62.96 L 953.52,-63.3919 L 953.844,-63.7921 L 954.208,-64.1563 L 954.608,-64.4804
 L 954.95,-64.7024 L 954.95,-74 L 955.006,-74.5302 L 955.17,-75.0372 L 955.437,-75.4988 L 955.794,-75.895
 L 956.225,-76.2084 L 956.712,-76.4252 L 957.233,-76.536 L 957.767,-76.536 L 958.288,-76.4252 L 958.775,-76.2084
 L 959.206,-75.895 L 959.563,-75.4988 L 959.83,-75.0372 L 959.994,-74.5302 L 960.05,-74 L 960.05,-64.7024
 L 960.392,-64.4804 L 960.792,-64.1563 L 961.156,-63.7921 L 961.48,-63.3919 L 961.761,-62.96 L 961.995,-62.5011
 L 962.179,-62.0204 L 962.312,-61.5229 L 962.393,-61.0143 L 962.42,-60.5 L 962.393,-59.9857 L 962.312,-59.4771
 L 962.179,-58.9796 L 961.995,-58.4989 L 961.761,-58.04 L 961.48,-57.6081 L 961.156,-57.2079 L 960.792,-56.8437
 L 960.392,-56.5196 L 959.96,-56.2392 L 959.501,-56.0054 L 959.02,-55.8208 L 958.523,-55.6875 L 958.014,-55.607
 L 957.5,-55.58 z
M 481.965,-47.7142 L 481.152,-47.9121 L 463.488,-54.2339 L 462.485,-54.7639 L 461.863,-55.3235 L 461.372,-56
 L 461.032,-56.7639 L 460.858,-57.5819 L 460.858,-58.4181 L 461.032,-59.2361 L 461.372,-60 L 461.863,-60.6765
 L 462.485,-61.2361 L 463.209,-61.6542 L 464.004,-61.9126 L 464.836,-62 L 500.164,-62 L 501.287,-61.8391
 L 502.061,-61.5217 L 502.752,-61.0503 L 503.329,-60.4457 L 503.768,-59.7341 L 504.05,-58.9468 L 504.162,-58.1181
 L 504.099,-57.2842 L 503.865,-56.4817 L 503.468,-55.7454 L 502.927,-55.1077 L 502.265,-54.5965 L 501.512,-54.2339
 L 483.848,-47.9121 L 482.8,-47.6895 z
M 373.965,-20.4901 L 373.152,-20.688 L 279.421,-54.2339 L 278.418,-54.7639 L 277.796,-55.3235 L 277.305,-56
 L 276.965,-56.7639 L 276.791,-57.5819 L 276.791,-58.4181 L 276.965,-59.2361 L 277.305,-60 L 277.796,-60.6765
 L 278.418,-61.2361 L 279.142,-61.6542 L 279.937,-61.9126 L 280.769,-62 L 374.5,-62 L 375.736,-61.8042
 L 376.5,-61.4641 L 377.177,-60.9726 L 377.736,-60.3511 L 378.154,-59.627 L 378.413,-58.8316 L 378.5,-58
 L 378.5,-24.4541 L 378.386,-23.5073 L 378.105,-22.72 L 377.665,-22.0084 L 377.088,-21.4038 L 376.397,-20.9324
 L 375.623,-20.615 L 374.8,-20.4654 z
M 779.377,-20.615 L 778.603,-20.9324 L 777.912,-21.4038 L 777.335,-22.0084 L 776.895,-22.72 L 776.614,-23.5073
 L 776.5,-24.4541 L 776.5,-58 L 776.587,-58.8316 L 776.846,-59.627 L 777.264,-60.3511 L 777.823,-60.9726
 L 778.5,-61.4641 L 779.264,-61.8042 L 780.5,-62 L 874.231,-62 L 875.063,-61.9126 L 875.858,-61.6542
 L 876.582,-61.2361 L 877.204,-60.6765 L 877.695,-60 L 878.035,-59.2361 L 878.209,-58.4181 L 878.209,-57.5819
 L 878.035,-56.7639 L 877.695,-56 L 877.204,-55.3235 L 876.582,-54.7639 L 875.579,-54.2339 L 781.848,-20.688
 L 781.035,-20.4901 L 780.2,-20.4654 z
M 183.965,-20.4901 L 183.152,-20.688 L 89.4209,-54.2339 L 88.4177,-54.7639 L 87.7962,-55.3235 L 87.3047,-56
 L 86.9646,-56.7639 L 86.7907,-57.5819 L 86.7907,-58.4181 L 86.9646,-59.2361 L 87.3047,-60 L 87.7962,-60.6765
 L 88.4177,-61.2361 L 89.1418,-61.6542 L 89.9371,-61.9126 L 90.7688,-62 L 184.5,-62 L 185.736,-61.8042
 L 186.5,-61.4641 L 187.177,-60.9726 L 187.736,-60.3511 L 188.154,-59.627 L 188.413,-58.8316 L 188.5,-58
 L 188.5,-24.4541 L 188.386,-23.5073 L 188.105,-22.72 L 187.665,-22.0084 L 187.088,-21.4038 L 186.397,-20.9324
 L 185.623,-20.615 L 184.8,-20.4654 z
M 589.377,-20.615 L 588.603,-20.9324 L 587.912,-21.4038 L 587.335,-22.0084 L 586.895,-22.72 L 586.614,-23.5073
 L 586.5,-24.4541 L 586.5,-58 L 586.587,-58.8316 L 586.846,-59.627 L 587.264,-60.3511 L 587.823,-60.9726
 L 588.5,-61.4641 L 589.264,-61.8042 L 590.5,-62 L 684.231,-62 L 685.063,-61.9126 L 685.858,-61.6542
 L 686.582,-61.2361 L 687.204,-60.6765 L 687.695,-60 L 688.035,-59.2361 L 688.209,-58.4181 L 688.209,-57.5819
 L 688.035,-56.7639 L 687.695,-56 L 687.204,-55.3235 L 686.582,-54.7639 L 685.579,-54.2339 L 591.848,-20.688
 L 591.035,-20.4901 L 590.2,-20.4654 z
M 400.082,-18.3527 L 399.264,-18.5266 L 398.5,-18.8667 L 397.823,-19.3582 L 397.264,-19.9797 L 396.846,-20.7039
 L 396.587,-21.4992 L 396.5,-22.3308 L 396.5,-57.6692 L 396.614,-58.616 L 396.895,-59.4033 L 397.335,-60.1149
 L 397.912,-60.7195 L 398.603,-61.1908 L 399.377,-61.5083 L 400.2,-61.6579 L 401.035,-61.6332 L 401.848,-61.4353
 L 451.218,-43.7661 L 451.767,-43.5217 L 452.457,-43.0503 L 453.035,-42.4457 L 453.474,-41.7341 L 453.756,-40.9468
 L 453.868,-40.1181 L 453.805,-39.2842 L 453.57,-38.4817 L 453.174,-37.7454 L 452.633,-37.1077 L 451.971,-36.5965
 L 451.218,-36.2339 L 401.848,-18.5647 L 400.918,-18.3527 z
M 563.965,-18.3668 L 563.152,-18.5647 L 513.782,-36.2339 L 513.233,-36.4783 L 512.543,-36.9497 L 511.965,-37.5543
 L 511.526,-38.2659 L 511.244,-39.0532 L 511.132,-39.8819 L 511.195,-40.7158 L 511.43,-41.5183 L 511.826,-42.2546
 L 512.367,-42.8923 L 513.029,-43.4035 L 513.782,-43.7661 L 563.152,-61.4353 L 564.082,-61.6473 L 564.918,-61.6473
 L 565.736,-61.4734 L 566.5,-61.1333 L 567.177,-60.6418 L 567.736,-60.0203 L 568.154,-59.2962 L 568.413,-58.5009
 L 568.5,-57.6692 L 568.5,-22.3308 L 568.386,-21.384 L 568.105,-20.5967 L 567.665,-19.8851 L 567.088,-19.2805
 L 566.397,-18.8091 L 565.623,-18.4917 L 564.8,-18.3421 z
M 210.5,-18 L 209.264,-18.1958 L 208.5,-18.5359 L 207.823,-19.0274 L 207.264,-19.6489 L 206.846,-20.373
 L 206.587,-21.1684 L 206.5,-22 L 206.5,-55.5459 L 206.614,-56.4927 L 206.895,-57.28 L 207.335,-57.9916
 L 207.912,-58.5962 L 208.603,-59.0676 L 209.377,-59.385 L 210.2,-59.5346 L 211.035,-59.5099 L 211.848,-59.312
 L 305.579,-25.7661 L 306.582,-25.2361 L 307.204,-24.6765 L 307.695,-24 L 308.035,-23.2361 L 308.209,-22.4181
 L 308.209,-21.5819 L 308.035,-20.7639 L 307.695,-20 L 307.204,-19.3235 L 306.582,-18.7639 L 305.858,-18.3458
 L 305.063,-18.0874 L 304.231,-18 z
M 660.769,-18 L 659.937,-18.0874 L 659.142,-18.3458 L 658.418,-18.7639 L 657.796,-19.3235 L 657.305,-20
 L 656.965,-20.7639 L 656.791,-21.5819 L 656.791,-22.4181 L 656.965,-23.2361 L 657.305,-24 L 657.796,-24.6765
 L 658.418,-25.2361 L 659.421,-25.7661 L 753.152,-59.312 L 753.965,-59.5099 L 754.8,-59.5346 L 755.623,-59.385
 L 756.397,-59.0676 L 757.088,-58.5962 L 757.665,-57.9916 L 758.105,-57.28 L 758.386,-56.4927 L 758.5,-55.5459
 L 758.5,-22 L 758.413,-21.1684 L 758.154,-20.373 L 757.736,-19.6489 L 757.177,-19.0274 L 756.5,-18.5359
 L 755.736,-18.1958 L 754.5,-18 z
M 22,-18 L 20.7639,-18.1958 L 20,-18.5359 L 19.3235,-19.0274 L 18.7639,-19.6489 L 18.3458,-20.373
 L 18.0874,-21.1684 L 18,-22 L 18,-55.009 L 18.1137,-55.9559 L 18.3954,-56.7432 L 18.8348,-57.4547
 L 19.4124,-58.0594 L 20.1031,-58.5307 L 20.8768,-58.8481 L 21.6995,-58.9977 L 22.5354,-58.9731 L 23.3479,-58.7751
 L 115.579,-25.7661 L 116.582,-25.2361 L 117.204,-24.6765 L 117.695,-24 L 118.035,-23.2361 L 118.209,-22.4181
 L 118.209,-21.5819 L 118.035,-20.7639 L 117.695,-20 L 117.204,-19.3235 L 116.582,-18.7639 L 115.858,-18.3458
 L 115.063,-18.0874 L 114.231,-18 z
M 850.769,-18 L 849.937,-18.0874 L 849.142,-18.3458 L 848.418,-18.7639 L 847.796,-19.3235 L 847.305,-20
 L 846.965,-20.7639 L 846.791,-21.5819 L 846.791,-22.4181 L 846.965,-23.2361 L 847.305,-24 L 847.796,-24.6765
 L 848.418,-25.2361 L 849.421,-25.7661 L 941.652,-58.7751 L 942.465,-58.9731 L 943.3,-58.9977 L 944.123,-58.8481
 L 944.897,-58.5307 L 945.588,-58.0594 L 946.165,-57.4547 L 946.605,-56.7432 L 946.886,-55.9559 L 947,-55.009
 L 947,-22 L 946.913,-21.1684 L 946.654,-20.373 L 946.236,-19.6489 L 945.677,-19.0274 L 945,-18.5359
 L 944.236,-18.1958 L 943,-18 z
M 464.836,-18 L 463.713,-18.1609 L 462.939,-18.4783 L 462.248,-18.9497 L 461.671,-19.5543 L 461.231,-20.2659
 L 460.95,-21.0532 L 460.838,-21.8819 L 460.901,-22.7158 L 461.135,-23.5183 L 461.532,-24.2546 L 462.073,-24.8923
 L 462.735,-25.4035 L 463.488,-25.7661 L 481.152,-32.0879 L 482.2,-32.3105 L 483.035,-32.2858 L 483.848,-32.0879
 L 501.512,-25.7661 L 502.515,-25.2361 L 503.137,-24.6765 L 503.628,-24 L 503.968,-23.2361 L 504.142,-22.4181
 L 504.142,-21.5819 L 503.968,-20.7639 L 503.628,-20 L 503.137,-19.3235 L 502.515,-18.7639 L 501.791,-18.3458
 L 500.996,-18.0874 L 500.164,-18 z
" stroke="black" fill="lightgray" stroke-width="0.5"/>
</svg>
