<?xml version="1.0" standalone="no"?>
<!DOCTYPE svg PUBLIC "-//W3C//DTD SVG 1.1//EN" "http://www.w3.org/Graphics/SVG/1.1/DTD/svg11.dtd">
<svg width="828mm" height="80mm" viewBox="0 -80 828 80" xmlns="http://www.w3.org/2000/svg" version="1.1">
<title>OpenSCAD Model</title>
<path d="
M 828,-80 L 0,-80 L 0,-0 L 4.95,-0 L 4.95,-6 L 5.00572,-6.53017
 L 5.17046,-7.03717 L 5.437,-7.49884 L 5.79372,-7.895 L 6.22499,-8.20836 L 6.71201,-8.42519 L 7.23344,-8.53603
 L 7.76654,-8.53603 L 8.28798,-8.42519 L 8.77499,-8.20836 L 9.20627,-7.895 L 9.56299,-7.49884 L 9.82953,-7.03717
 L 9.99426,-6.53017 L 10.05,-6 L 10.05,-0 L 167.55,-0 L 167.55,-6 L 167.606,-6.53017
 L 167.77,-7.03717 L 168.037,-7.49884 L 168.394,-7.895 L 168.825,-8.20836 L 169.312,-8.42519 L 169.833,-8.53603
 L 170.367,-8.53603 L 170.888,-8.42519 L 171.375,-8.20836 L 171.806,-7.895 L 172.163,-7.49884 L 172.43,-7.03717
 L 172.594,-6.53017 L 172.65,-6 L 172.65,-0 L 330.15,-0 L 330.15,-6 L 330.206,-6.53017
 L 330.37,-7.03717 L 330.637,-7.49884 L 330.994,-7.895 L 331.425,-8.20836 L 331.912,-8.42519 L 332.433,-8.53603
 L 332.967,-8.53603 L 333.488,-8.42519 L 333.975,-8.20836 L 334.406,-7.895 L 334.763,-7.49884 L 335.03,-7.03717
 L 335.194,-6.53017 L 335.25,-6 L 335.25,-0 L 492.75,-0 L 492.75,-6 L 492.806,-6.53017
 L 492.97,-7.03717 L 493.237,-7.49884 L 493.594,-7.895 L 494.025,-8.20836 L 494.512,-8.42519 L 495.033,-8.53603
 L 495.567,-8.53603 L 496.088,-8.42519 L 496.575,-8.20836 L 497.006,-7.895 L 497.363,-7.49884 L 497.63,-7.03717
 L 497.794,-6.53017 L 497.85,-6 L 497.85,-0 L 655.35,-0 L 655.35,-6 L 655.406,-6.53017
 L 655.57,-7.03717 L 655.837,-7.49884 L 656.194,-7.895 L 656.625,-8.20836 L 657.112,-8.42519 L 657.633,-8.53603
 L 658.167,-8.53603 L 658.688,-8.42519 L 659.175,-8.20836 L 659.606,-7.895 L 659.963,-7.49884 L 660.23,-7.03717
 L 660.394,-6.53017 L 660.45,-6 L 660.45,-0 L 817.95,-0 L 817.95,-6 L 818.006,-6.53017
 L 818.17,-7.03717 L 818.437,-7.49884 L 818.794,-7.895 L 819.225,-8.20836 L 819.712,-8.42519 L 820.233,-8.53603
 L 820.767,-8.53603 L 821.288,-8.42519 L 821.775,-8.20836 L 822.206,-7.895 L 822.563,-7.49884 L 822.83,-7.03717
 L 822.994,-6.53017 L 823.05,-6 L 823.05,-0 L 828,-0 z
M 6.98573,-55.607 L 6.47708,-55.6875 L 5.97964,-55.8208 L 5.49887,-56.0054 L 5.04001,-56.2392 L 4.60811,-56.5196
 L 4.20789,-56.8437 L 3.84373,-57.2079 L 3.51964,-57.6081 L 3.23917,-58.04 L 3.00537,-58.4989 L 2.82082,-58.9796
 L 2.68752,-59.4771 L 2.60696,-59.9857 L 2.58,-60.5 L 2.60696,-61.0143 L 2.68752,-61.5229 L 2.82082,-62.0204
 L 3.00537,-62.5011 L 3.23917,-62.96 L 3.51964,-63.3919 L 3.84373,-63.7921 L 4.20789,-64.1563 L 4.60811,-64.4804
 L 4.95001,-64.7024 L 4.95001,-74 L 5.00574,-74.5302 L 5.17047,-75.0372 L 5.43701,-75.4988 L 5.79373,-75.895
 L 6.22501,-76.2084 L 6.71202,-76.4252 L 7.23346,-76.536 L 7.76654,-76.536 L 8.28798,-76.4252 L 8.77499,-76.2084
 L 9.20627,-75.895 L 9.56299,-75.4988 L 9.82953,-75.0372 L 9.99426,-74.5302 L 10.05,-74 L 10.05,-64.7024
 L 10.3919,-64.4804 L 10.7921,-64.1563 L 11.1563,-63.7921 L 11.4804,-63.3919 L 11.7608,-62.96 L 11.9946,-62.5011
 L 12.1792,-62.0204 L 12.3125,-61.5229 L 12.393,-61.0143 L 12.42,-60.5 L 12.393,-59.9857 L 12.3125,-59.4771
 L 12.1792,-58.9796 L 11.9946,-58.4989 L 11.7608,-58.04 L 11.4804,-57.6081 L 11.1563,-57.2079 L 10.7921,-56.8437
 L 10.3919,-56.5196 L 9.95999,-56.2392 L 9.50113,-56.0054 L 9.02036,-55.8208 L 8.52292,-55.6875 L 8.01427,-55.607
 L 7.5,-55.58 z
M 169.586,-55.607 L 169.077,-55.6875 L 168.58,-55.8208 L 168.099,-56.0054 L 167.64,-56.2392 L 167.208,-56.5196
 L 166.808,-56.8437 L 166.444,-57.2079 L 166.12,-57.6081 L 165.839,-58.04 L 165.605,-58.4989 L 165.421,-58.9796
 L 165.288,-59.4771 L 165.207,-59.9857 L 165.18,-60.5 L 165.207,-61.0143 L 165.288,-61.5229 L 165.421,-62.0204
 L 165.605,-62.5011 L 165.839,-62.96 L 166.12,-63.3919 L 166.444,-63.7921 L 166.808,-64.1563 L 167.208,-64.4804
 L 167.55,-64.7024 L 167.55,-74 L 167.606,-74.5302 L 167.77,-75.0372 L 168.037,-75.4988 L 168.394,-75.895
 L 168.825,-76.2084 L 169.312,-76.4252 L 169.833,-76.536 L 170.367,-76.536 L 170.888,-76.4252 L 171.375,-76.2084
 L 171.806,-75.895 L 172.163,-75.4988 L 172.43,-75.0372 L 172.594,-74.5302 L 172.65,-74 L 172.65,-64.7024
 L 172.992,-64.4804 L 173.392,-64.1563 L 173.756,-63.7921 L 174.08,-63.3919 L 174.361,-62.96 L 174.595,-62.5011
 L 174.779,-62.0204 L 174.912,-61.5229 L 174.993,-61.0143 L 175.02,-60.5 L 174.993,-59.9857 L 174.912,-59.4771
 L 174.779,-58.9796 L 174.595,-58.4989 L 174.361,-58.04 L 174.08,-57.6081 L 173.756,-57.2079 L 173.392,-56.8437
 L 172.992,-56.5196 L 172.56,-56.2392 L 172.101,-56.0054 L 171.62,-55.8208 L 171.123,-55.6875 L 170.614,-55.607
 L 170.1,-55.58 z
M 332.186,-55.607 L 331.677,-55.6875 L 331.18,-55.8208 L 330.699,-56.0054 L 330.24,-56.2392 L 329.808,-56.5196
 L 329.408,-56.8437 L 329.044,-57.2079 L 328.72,-57.6081 L 328.439,-58.04 L 328.205,-58.4989 L 328.021,-58.9796
 L 327.888,-59.4771 L 327.807,-59.9857 L 327.78,-60.5 L 327.807,-61.0143 L 327.888,-61.5229 L 328.021,-62.0204
 L 328.205,-62.5011 L 328.439,-62.96 L 328.72,-63.3919 L 329.044,-63.7921 L 329.408,-64.1563 L 329.808,-64.4804
 L 330.15,-64.7024 L 330.15,-74 L 330.206,-74.5302 L 330.37,-75.0372 L 330.637,-75.4988 L 330.994,-75.895
 L 331.425,-76.2084 L 331.912,-76.4252 L 332.433,-76.536 L 332.967,-76.536 L 333.488,-76.4252 L 333.975,-76.2084
 L 334.406,-75.895 L 334.763,-75.4988 L 335.03,-75.0372 L 335.194,-74.5302 L 335.25,-74 L 335.25,-64.7024
 L 335.592,-64.4804 L 335.992,-64.1563 L 336.356,-63.7921 L 336.68,-63.3919 L 336.961,-62.96 L 337.195,-62.5011
 L 337.379,-62.0204 L 337.512,-61.5229 L 337.593,-61.0143 L 337.62,-60.5 L 337.593,-59.9857 L 337.512,-59.4771
 L 337.379,-58.9796 L 337.195,-58.4989 L 336.961,-58.04 L 336.68,-57.6081 L 336.356,-57.2079 L 335.992,-56.8437
 L 335.592,-56.5196 L 335.16,-56.2392 L 334.701,-56.0054 L 334.22,-55.8208 L 333.723,-55.6875 L 333.214,-55.607
 L 332.7,-55.58 z
M 494.786,-55.607 L 494.277,-55.6875 L 493.78,-55.8208 L 493.299,-56.0054 L 492.84,-56.2392 L 492.408,-56.5196
 L 492.008,-56.8437 L 491.644,-57.2079 L 491.32,-57.6081 L 491.039,-58.04 L 490.805,-58.4989 L 490.621,-58.9796
 L 490.488,-59.4771 L 490.407,-59.9857 L 490.38,-60.5 L 490.407,-61.0143 L 490.488,-61.5229 L 490.621,-62.0204
 L 490.805,-62.5011 L 491.039,-62.96 L 491.32,-63.3919 L 491.644,-63.7921 L 492.008,-64.1563 L 492.408,-64.4804
 L 492.75,-64.7024 L 492.75,-74 L 492.806,-74.5302 L 492.97,-75.0372 L 493.237,-75.4988 L 493.594,-75.895
 L 494.025,-76.2084 L 494.512,-76.4252 L 495.033,-76.536 L 495.567,-76.536 L 496.088,-76.4252 L 496.575,-76.2084
 L 497.006,-75.895 L 497.363,-75.4988 L 497.63,-75.0372 L 497.794,-74.5302 L 497.85,-74 L 497.85,-64.7024
 L 498.192,-64.4804 L 498.592,-64.1563 L 498.956,-63.7921 L 499.28,-63.3919 L 499.561,-62.96 L 499.795,-62.5011
 L 499.979,-62.0204 L 500.112,-61.5229 L 500.193,-61.0143 L 500.22,-60.5 L 500.193,-59.9857 L 500.112,-59.4771
 L 499.979,-58.9796 L 499.795,-58.4989 L 499.561,-58.04 L 499.28,-57.6081 L 498.956,-57.2079 L 498.592,-56.8437
 L 498.192,-56.5196 L 497.76,-56.2392 L 497.301,-56.0054 L 496.82,-55.8208 L 496.323,-55.6875 L 495.814,-55.607
 L 495.3,-55.58 z
M 657.386,-55.607 L 656.877,-55.6875 L 656.38,-55.8208 L 655.899,-56.0054 L 655.44,-56.2392 L 655.008,-56.5196
 L 654.608,-56.8437 L 654.244,-57.2079 L 653.92,-57.6081 L 653.639,-58.04 L 653.405,-58.4989 L 653.221,-58.9796
 L 653.088,-59.4771 L 653.007,-59.9857 L 652.98,-60.5 L 653.007,-61.0143 L 653.088,-61.5229 L 653.221,-62.0204
 L 653.405,-62.5011 L 653.639,-62.96 L 653.92,-63.3919 L 654.244,-63.7921 L 654.608,-64.1563 L 655.008,-64.4804
 L 655.35,-64.7024 L 655.35,-74 L 655.406,-74.5302 L 655.57,-75.0372 L 655.837,-75.4988 L 656.194,-75.895
 L 656.625,-76.2084 L 657.112,-76.4252 L 657.633,-76.536 L 658.167,-76.536 L 658.688,-76.4252 L 659.175,-76.2084
 L 659.606,-75.895 L 659.963,-75.4988 L 660.23,-75.0372 L 660.394,-74.5302 L 660.45,-74 L 660.45,-64.7024
 L 660.792,-64.4804 L 661.192,-64.1563 L 661.556,-63.7921 L 661.88,-63.3919 L 662.161,-62.96 L 662.395,-62.5011
 L 662.579,-62.0204 L 662.712,-61.5229 L 662.793,-61.0143 L 662.82,-60.5 L 662.793,-59.9857 L 662.712,-59.4771
 L 662.579,-58.9796 L 662.395,-58.4989 L 662.161,-58.04 L 661.88,-57.6081 L 661.556,-57.2079 L 661.192,-56.8437
 L 660.792,-56.5196 L 660.36,-56.2392 L 659.901,-56.0054 L 659.42,-55.8208 L 658.923,-55.6875 L 658.414,-55.607
 L 657.9,-55.58 z
M 819.986,-55.607 L 819.477,-55.6875 L 818.98,-55.8208 L 818.499,-56.0054 L 818.04,-56.2392 L 817.608,-56.5196
 L 817.208,-56.8437 L 816.844,-57.2079 L 816.52,-57.6081 L 816.239,-58.04 L 816.005,-58.4989 L 815.821,-58.9796
 L 815.688,-59.4771 L 815.607,-59.9857 L 815.58,-60.5 L 815.607,-61.0143 L 815.688,-61.5229 L 815.821,-62.0204
 L 816.005,-62.5011 L 816.239,-62.96 L 816.52,-63.3919 L 816.844,-63.7921 L 817.208,-64.1563 L 817.608,-64.4804
 L 817.95,-64.7024 L 817.95,-74 L 818.006,-74.5302 L 818.17,-75.0372 L 818.437,-75.4988 L 818.794,-75.895
 L 819.225,-76.2084 L 819.712,-76.4252 L 820.233,-76.536 L 820.767,-76.536 L 821.288,-76.4252 L 821.775,-76.2084
 L 822.206,-75.895 L 822.563,-75.4988 L 822.83,-75.0372 L 822.994,-74.5302 L 823.05,-74 L 823.05,-64.7024
 L 823.392,-64.4804 L 823.792,-64.1563 L 824.156,-63.7921 L 824.48,-63.3919 L 824.761,-62.96 L 824.995,-62.5011
 L 825.179,-62.0204 L 825.312,-61.5229 L 825.393,-61.0143 L 825.42,-60.5 L 825.393,-59.9857 L 825.312,-59.4771
 L 825.179,-58.9796 L 824.995,-58.4989 L 824.761,-58.04 L 824.48,-57.6081 L 824.156,-57.2079 L 823.792,-56.8437
 L 823.392,-56.5196 L 822.96,-56.2392 L 822.501,-56.0054 L 822.02,-55.8208 L 821.523,-55.6875 L 821.014,-55.607
 L 820.5,-55.58 z
M 413.258,-47.9896 L 412.457,-48.2298 L 397.919,-54.3097 L 397.111,-54.7639 L 396.489,-55.3235 L 395.998,-56
 L 395.658,-56.7639 L 395.484,-57.5819 L 395.484,-58.4181 L 395.658,-59.2361 L 395.998,-60 L 396.489,-60.6765
 L 397.111,-61.2361 L 397.835,-61.6542 L 398.63,-61.9126 L 399.462,-62 L 428.538,-62 L 429.459,-61.8926
 L 430.248,-61.6162 L 430.962,-61.1817 L 431.571,-60.6081 L 432.047,-59.9206 L 432.37,-59.1491 L 432.525,-58.3274
 L 432.506,-57.4914 L 432.313,-56.6776 L 431.956,-55.9216 L 431.449,-55.2565 L 430.815,-54.7112 L 430.081,-54.3097
 L 415.543,-48.2298 L 414.921,-48.0275 L 414.091,-47.9211 z
M 318.958,-21.5935 L 318.157,-21.8337 L 240.501,-54.3097 L 239.693,-54.7639 L 239.072,-55.3235 L 238.58,-56
 L 238.24,-56.7639 L 238.066,-57.5819 L 238.066,-58.4181 L 238.24,-59.2361 L 238.58,-60 L 239.072,-60.6765
 L 239.693,-61.2361 L 240.417,-61.6542 L 241.213,-61.9126 L 242.044,-62 L 319.7,-62 L 320.936,-61.8042
 L 321.7,-61.4641 L 322.377,-60.9726 L 322.936,-60.3511 L 323.354,-59.627 L 323.613,-58.8316 L 323.7,-58
 L 323.7,-25.524 L 323.531,-24.3749 L 323.209,-23.6035 L 322.733,-22.9159 L 322.124,-22.3424 L 321.41,-21.9079
 L 320.621,-21.6314 L 319.791,-21.5251 z
M 669.979,-21.6314 L 669.19,-21.9079 L 668.476,-22.3424 L 667.867,-22.9159 L 667.391,-23.6035 L 667.069,-24.3749
 L 666.9,-25.524 L 666.9,-58 L 666.987,-58.8316 L 667.246,-59.627 L 667.664,-60.3511 L 668.223,-60.9726
 L 668.9,-61.4641 L 669.664,-61.8042 L 670.9,-62 L 748.556,-62 L 749.387,-61.9126 L 750.183,-61.6542
 L 750.907,-61.2361 L 751.528,-60.6765 L 752.02,-60 L 752.36,-59.2361 L 752.534,-58.4181 L 752.534,-57.5819
 L 752.36,-56.7639 L 752.02,-56 L 751.528,-55.3235 L 750.907,-54.7639 L 750.099,-54.3097 L 672.443,-21.8337
 L 671.642,-21.5935 L 670.809,-21.5251 z
M 156.358,-21.5935 L 155.557,-21.8337 L 77.9009,-54.3097 L 77.0931,-54.7639 L 76.4716,-55.3235 L 75.9801,-56
 L 75.64,-56.7639 L 75.4661,-57.5819 L 75.4661,-58.4181 L 75.64,-59.2361 L 75.9801,-60 L 76.4716,-60.6765
 L 77.0931,-61.2361 L 77.8172,-61.6542 L 78.6125,-61.9126 L 79.4442,-62 L 157.1,-62 L 158.336,-61.8042
 L 159.1,-61.4641 L 159.777,-60.9726 L 160.336,-60.3511 L 160.754,-59.627 L 161.013,-58.8316 L 161.1,-58
 L 161.1,-25.524 L 160.931,-24.3749 L 160.609,-23.6035 L 160.133,-22.9159 L 159.524,-22.3424 L 158.81,-21.9079
 L 158.021,-21.6314 L 157.191,-21.5251 z
M 507.379,-21.6314 L 506.59,-21.9079 L 505.876,-22.3424 L 505.267,-22.9159 L 504.791,-23.6035 L 504.469,-24.3749
 L 504.3,-25.524 L 504.3,-58 L 504.387,-58.8316 L 504.646,-59.627 L 505.064,-60.3511 L 505.623,-60.9726
 L 506.3,-61.4641 L 507.064,-61.8042 L 508.3,-62 L 585.956,-62 L 586.787,-61.9126 L 587.583,-61.6542
 L 588.307,-61.2361 L 588.928,-60.6765 L 589.42,-60 L 589.76,-59.2361 L 589.934,-58.4181 L 589.934,-57.5819
 L 589.76,-56.7639 L 589.42,-56 L 588.928,-55.3235 L 588.307,-54.7639 L 587.499,-54.3097 L 509.843,-21.8337
 L 509.042,-21.5935 L 508.209,-21.5251 z
M 345.282,-19.3787 L 344.464,-19.5525 L 343.7,-19.8927 L 343.023,-20.3842 L 342.464,-21.0056 L 342.046,-21.7298
 L 341.787,-22.5251 L 341.7,-23.3568 L 341.7,-56.6432 L 341.869,-57.7923 L 342.191,-58.5638 L 342.667,-59.2514
 L 343.276,-59.8249 L 343.99,-60.2594 L 344.779,-60.5359 L 345.609,-60.6422 L 346.442,-60.5738 L 347.243,-60.3335
 L 387.04,-43.6903 L 387.921,-43.1817 L 388.53,-42.6081 L 389.006,-41.9206 L 389.328,-41.1491 L 389.484,-40.3274
 L 389.464,-39.4914 L 389.272,-38.6776 L 388.915,-37.9216 L 388.408,-37.2565 L 387.774,-36.7112 L 387.04,-36.3097
 L 347.243,-19.6665 L 346.118,-19.3787 z
M 481.558,-19.4262 L 480.757,-19.6664 L 440.96,-36.3097 L 440.079,-36.8183 L 439.47,-37.3919 L 438.994,-38.0794
 L 438.672,-38.8509 L 438.516,-39.6726 L 438.535,-40.5086 L 438.728,-41.3224 L 439.085,-42.0784 L 439.592,-42.7435
 L 440.226,-43.2888 L 440.96,-43.6903 L 480.757,-60.3336 L 481.882,-60.6214 L 482.718,-60.6214 L 483.536,-60.4475
 L 484.3,-60.1074 L 484.977,-59.6158 L 485.536,-58.9944 L 485.954,-58.2702 L 486.213,-57.4749 L 486.3,-56.6433
 L 486.3,-23.3567 L 486.131,-22.2076 L 485.809,-21.4362 L 485.333,-20.7486 L 484.724,-20.1751 L 484.01,-19.7406
 L 483.221,-19.4641 L 482.391,-19.3578 z
M 183.1,-18 L 181.864,-18.1958 L 181.1,-18.5359 L 180.423,-19.0274 L 179.864,-19.6489 L 179.446,-20.373
 L 179.187,-21.1684 L 179.1,-22 L 179.1,-54.476 L 179.269,-55.6251 L 179.591,-56.3965 L 180.067,-57.0841
 L 180.676,-57.6576 L 181.39,-58.0921 L 182.179,-58.3686 L 183.009,-58.4749 L 183.842,-58.4065 L 184.643,-58.1663
 L 262.299,-25.6903 L 263.107,-25.2361 L 263.728,-24.6765 L 264.22,-24 L 264.56,-23.2361 L 264.734,-22.4181
 L 264.734,-21.5819 L 264.56,-20.7639 L 264.22,-20 L 263.728,-19.3235 L 263.107,-18.7639 L 262.383,-18.3458
 L 261.587,-18.0874 L 260.756,-18 z
M 567.244,-18 L 566.413,-18.0874 L 565.617,-18.3458 L 564.893,-18.7639 L 564.272,-19.3235 L 563.78,-20
 L 563.44,-20.7639 L 563.266,-21.5819 L 563.266,-22.4181 L 563.44,-23.2361 L 563.78,-24 L 564.272,-24.6765
 L 564.893,-25.2361 L 565.701,-25.6903 L 643.357,-58.1663 L 644.158,-58.4065 L 644.991,-58.4749 L 645.821,-58.3686
 L 646.61,-58.0921 L 647.324,-57.6576 L 647.933,-57.0841 L 648.409,-56.3965 L 648.731,-55.6251 L 648.9,-54.476
 L 648.9,-22 L 648.813,-21.1684 L 648.554,-20.373 L 648.136,-19.6489 L 647.577,-19.0274 L 646.9,-18.5359
 L 646.136,-18.1958 L 644.9,-18 z
M 22,-18 L 20.7639,-18.1958 L 20,-18.5359 L 19.3235,-19.0274 L 18.7639,-19.6489 L 18.3458,-20.373
 L 18.0874,-21.1684 L 18,-22 L 18,-53.8487 L 18.1686,-54.9978 L 18.4912,-55.7692 L 18.9672,-56.4568
 L 19.5758,-57.0303 L 20.2903,-57.4648 L 21.0795,-57.7413 L 21.9089,-57.8476 L 22.7423,-57.7792 L 23.5433,-57.539
 L 99.6991,-25.6903 L 100.507,-25.2361 L 101.128,-24.6765 L 101.62,-24 L 101.96,-23.2361 L 102.134,-22.4181
 L 102.134,-21.5819 L 101.96,-20.7639 L 101.62,-20 L 101.128,-19.3235 L 100.507,-18.7639 L 99.7827,-18.3458
 L 98.9874,-18.0874 L 98.1558,-18 z
M 729.844,-18 L 729.013,-18.0874 L 728.217,-18.3458 L 727.493,-18.7639 L 726.872,-19.3235 L 726.38,-20
 L 726.04,-20.7639 L 725.866,-21.5819 L 725.866,-22.4181 L 726.04,-23.2361 L 726.38,-24 L 726.872,-24.6765
 L 727.493,-25.2361 L 728.301,-25.6903 L 804.457,-57.539 L 805.258,-57.7792 L 806.091,-57.8476 L 806.921,-57.7413
 L 807.71,-57.4648 L 808.424,-57.0303 L 809.033,-56.4568 L 809.509,-55.7692 L 809.831,-54.9978 L 810,-53.8487
 L 810,-22 L 809.913,-21.1684 L 809.654,-20.373 L 809.236,-19.6489 L 808.677,-19.0274 L 808,-18.5359
 L 807.236,-18.1958 L 806,-18 z
M 399.462,-18 L 398.541,-18.1074 L 397.752,-18.3838 L 397.038,-18.8183 L 396.429,-19.3919 L 395.953,-20.0794
 L 395.63,-20.8509 L 395.475,-21.6726 L 395.494,-22.5086 L 395.687,-23.3224 L 396.044,-24.0784 L 396.551,-24.7435
 L 397.185,-25.2888 L 397.919,-25.6903 L 412.457,-31.7702 L 413.079,-31.9725 L 413.909,-32.0789 L 414.742,-32.0104
 L 415.543,-31.7702 L 430.081,-25.6903 L 430.889,-25.2361 L 431.511,-24.6765 L 432.002,-24 L 432.342,-23.2361
 L 432.516,-22.4181 L 432.516,-21.5819 L 432.342,-20.7639 L 432.002,-20 L 431.511,-19.3235 L 430.889,-18.7639
 L 430.165,-18.3458 L 429.37,-18.0874 L 428.538,-18 z
" stroke="black" fill="lightgray" stroke-width="0.5"/>
</svg>
