<?xml version="1.0" standalone="no"?>
<!DOCTYPE svg PUBLIC "-//W3C//DTD SVG 1.1//EN" "http://www.w3.org/Graphics/SVG/1.1/DTD/svg11.dtd">
<svg width="732mm" height="80mm" viewBox="0 -80 732 80" xmlns="http://www.w3.org/2000/svg" version="1.1">
<title>OpenSCAD Model</title>
<path d="
M 732,-80 L 0,-80 L 0,-0 L 4.95,-0 L 4.95,-6 L 5.00572,-6.53017
 L 5.17046,-7.03717 L 5.437,-7.49884 L 5.79372,-7.895 L 6.22499,-8.20836 L 6.71201,-8.42519 L 7.23344,-8.53603
 L 7.76654,-8.53603 L 8.28798,-8.42519 L 8.77499,-8.20836 L 9.20627,-7.895 L 9.56299,-7.49884 L 9.82953,-7.03717
 L 9.99426,-6.53017 L 10.05,-6 L 10.05,-0 L 148.35,-0 L 148.35,-6 L 148.406,-6.53017
 L 148.57,-7.03717 L 148.837,-7.49884 L 149.194,-7.895 L 149.625,-8.20836 L 150.112,-8.42519 L 150.633,-8.53603
 L 151.167,-8.53603 L 151.688,-8.42519 L 152.175,-8.20836 L 152.606,-7.895 L 152.963,-7.49884 L 153.23,-7.03717
 L 153.394,-6.53017 L 153.45,-6 L 153.45,-0 L 291.75,-0 L 291.75,-6 L 291.806,-6.53017
 L 291.97,-7.03717 L 292.237,-7.49884 L 292.594,-7.895 L 293.025,-8.20836 L 293.512,-8.42519 L 294.033,-8.53603
 L 294.567,-8.53603 L 295.088,-8.42519 L 295.575,-8.20836 L 296.006,-7.895 L 296.363,-7.49884 L 296.63,-7.03717
 L 296.794,-6.53017 L 296.85,-6 L 296.85,-0 L 435.15,-0 L 435.15,-6 L 435.206,-6.53017
 L 435.37,-7.03717 L 435.637,-7.49884 L 435.994,-7.895 L 436.425,-8.20836 L 436.912,-8.42519 L 437.433,-8.53603
 L 437.967,-8.53603 L 438.488,-8.42519 L 438.975,-8.20836 L 439.406,-7.895 L 439.763,-7.49884 L 440.03,-7.03717
 L 440.194,-6.53017 L 440.25,-6 L 440.25,-0 L 578.55,-0 L 578.55,-6 L 578.606,-6.53017
 L 578.77,-7.03717 L 579.037,-7.49884 L 579.394,-7.895 L 579.825,-8.20836 L 580.312,-8.42519 L 580.833,-8.53603
 L 581.367,-8.53603 L 581.888,-8.42519 L 582.375,-8.20836 L 582.806,-7.895 L 583.163,-7.49884 L 583.43,-7.03717
 L 583.594,-6.53017 L 583.65,-6 L 583.65,-0 L 721.95,-0 L 721.95,-6 L 722.006,-6.53017
 L 722.17,-7.03717 L 722.437,-7.49884 L 722.794,-7.895 L 723.225,-8.20836 L 723.712,-8.42519 L 724.233,-8.53603
 L 724.767,-8.53603 L 725.288,-8.42519 L 725.775,-8.20836 L 726.206,-7.895 L 726.563,-7.49884 L 726.83,-7.03717
 L 726.994,-6.53017 L 727.05,-6 L 727.05,-0 L 732,-0 z
M 6.98573,-55.607 L 6.47708,-55.6875 L 5.97964,-55.8208 L 5.49887,-56.0054 L 5.04001,-56.2392 L 4.60811,-56.5196
 L 4.20789,-56.8437 L 3.84373,-57.2079 L 3.51964,-57.6081 L 3.23917,-58.04 L 3.00537,-58.4989 L 2.82082,-58.9796
 L 2.68752,-59.4771 L 2.60696,-59.9857 L 2.58,-60.5 L 2.60696,-61.0143 L 2.68752,-61.5229 L 2.82082,-62.0204
 L 3.00537,-62.5011 L 3.23917,-62.96 L 3.51964,-63.3919 L 3.84373,-63.7921 L 4.20789,-64.1563 L 4.60811,-64.4804
 L 4.95001,-64.7024 L 4.95001,-74 L 5.00574,-74.5302 L 5.17047,-75.0372 L 5.43701,-75.4988 L 5.79373,-75.895
 L 6.22501,-76.2084 L 6.71202,-76.4252 L 7.23346,-76.536 L 7.76654,-76.536 L 8.28798,-76.4252 L 8.77499,-76.2084
 L 9.20627,-75.895 L 9.56299,-75.4988 L 9.82953,-75.0372 L 9.99426,-74.5302 L 10.05,-74 L 10.05,-64.7024
 L 10.3919,-64.4804 L 10.7921,-64.1563 L 11.1563,-63.7921 L 11.4804,-63.3919 L 11.7608,-62.96 L 11.9946,-62.5011
 L 12.1792,-62.0204 L 12.3125,-61.5229 L 12.393,-61.0143 L 12.42,-60.5 L 12.393,-59.9857 L 12.3125,-59.4771
 L 12.1792,-58.9796 L 11.9946,-58.4989 L 11.7608,-58.04 L 11.4804,-57.6081 L 11.1563,-57.2079 L 10.7921,-56.8437
 L 10.3919,-56.5196 L 9.95999,-56.2392 L 9.50113,-56.0054 L 9.02036,-55.8208 L 8.52292,-55.6875 L 8.01427,-55.607
 L 7.5,-55.58 z
M 150.386,-55.607 L 149.877,-55.6875 L 149.38,-55.8208 L 148.899,-56.0054 L 148.44,-56.2392 L 148.008,-56.5196
 L 147.608,-56.8437 L 147.244,-57.2079 L 146.92,-57.6081 L 146.639,-58.04 L 146.405,-58.4989 L 146.221,-58.9796
 L 146.088,-59.4771 L 146.007,-59.9857 L 145.98,-60.5 L 146.007,-61.0143 L 146.088,-61.5229 L 146.221,-62.0204
 L 146.405,-62.5011 L 146.639,-62.96 L 146.92,-63.3919 L 147.244,-63.7921 L 147.608,-64.1563 L 148.008,-64.4804
 L 148.35,-64.7024 L 148.35,-74 L 148.406,-74.5302 L 148.57,-75.0372 L 148.837,-75.4988 L 149.194,-75.895
 L 149.625,-76.2084 L 150.112,-76.4252 L 150.633,-76.536 L 151.167,-76.536 L 151.688,-76.4252 L 152.175,-76.2084
 L 152.606,-75.895 L 152.963,-75.4988 L 153.23,-75.0372 L 153.394,-74.5302 L 153.45,-74 L 153.45,-64.7024
 L 153.792,-64.4804 L 154.192,-64.1563 L 154.556,-63.7921 L 154.88,-63.3919 L 155.161,-62.96 L 155.395,-62.5011
 L 155.579,-62.0204 L 155.712,-61.5229 L 155.793,-61.0143 L 155.82,-60.5 L 155.793,-59.9857 L 155.712,-59.4771
 L 155.579,-58.9796 L 155.395,-58.4989 L 155.161,-58.04 L 154.88,-57.6081 L 154.556,-57.2079 L 154.192,-56.8437
 L 153.792,-56.5196 L 153.36,-56.2392 L 152.901,-56.0054 L 152.42,-55.8208 L 151.923,-55.6875 L 151.414,-55.607
 L 150.9,-55.58 z
M 293.786,-55.607 L 293.277,-55.6875 L 292.78,-55.8208 L 292.299,-56.0054 L 291.84,-56.2392 L 291.408,-56.5196
 L 291.008,-56.8437 L 290.644,-57.2079 L 290.32,-57.6081 L 290.039,-58.04 L 289.805,-58.4989 L 289.621,-58.9796
 L 289.488,-59.4771 L 289.407,-59.9857 L 289.38,-60.5 L 289.407,-61.0143 L 289.488,-61.5229 L 289.621,-62.0204
 L 289.805,-62.5011 L 290.039,-62.96 L 290.32,-63.3919 L 290.644,-63.7921 L 291.008,-64.1563 L 291.408,-64.4804
 L 291.75,-64.7024 L 291.75,-74 L 291.806,-74.5302 L 291.97,-75.0372 L 292.237,-75.4988 L 292.594,-75.895
 L 293.025,-76.2084 L 293.512,-76.4252 L 294.033,-76.536 L 294.567,-76.536 L 295.088,-76.4252 L 295.575,-76.2084
 L 296.006,-75.895 L 296.363,-75.4988 L 296.63,-75.0372 L 296.794,-74.5302 L 296.85,-74 L 296.85,-64.7024
 L 297.192,-64.4804 L 297.592,-64.1563 L 297.956,-63.7921 L 298.28,-63.3919 L 298.561,-62.96 L 298.795,-62.5011
 L 298.979,-62.0204 L 299.112,-61.5229 L 299.193,-61.0143 L 299.22,-60.5 L 299.193,-59.9857 L 299.112,-59.4771
 L 298.979,-58.9796 L 298.795,-58.4989 L 298.561,-58.04 L 298.28,-57.6081 L 297.956,-57.2079 L 297.592,-56.8437
 L 297.192,-56.5196 L 296.76,-56.2392 L 296.301,-56.0054 L 295.82,-55.8208 L 295.323,-55.6875 L 294.814,-55.607
 L 294.3,-55.58 z
M 437.186,-55.607 L 436.677,-55.6875 L 436.18,-55.8208 L 435.699,-56.0054 L 435.24,-56.2392 L 434.808,-56.5196
 L 434.408,-56.8437 L 434.044,-57.2079 L 433.72,-57.6081 L 433.439,-58.04 L 433.205,-58.4989 L 433.021,-58.9796
 L 432.888,-59.4771 L 432.807,-59.9857 L 432.78,-60.5 L 432.807,-61.0143 L 432.888,-61.5229 L 433.021,-62.0204
 L 433.205,-62.5011 L 433.439,-62.96 L 433.72,-63.3919 L 434.044,-63.7921 L 434.408,-64.1563 L 434.808,-64.4804
 L 435.15,-64.7024 L 435.15,-74 L 435.206,-74.5302 L 435.37,-75.0372 L 435.637,-75.4988 L 435.994,-75.895
 L 436.425,-76.2084 L 436.912,-76.4252 L 437.433,-76.536 L 437.967,-76.536 L 438.488,-76.4252 L 438.975,-76.2084
 L 439.406,-75.895 L 439.763,-75.4988 L 440.03,-75.0372 L 440.194,-74.5302 L 440.25,-74 L 440.25,-64.7024
 L 440.592,-64.4804 L 440.992,-64.1563 L 441.356,-63.7921 L 441.68,-63.3919 L 441.961,-62.96 L 442.195,-62.5011
 L 442.379,-62.0204 L 442.512,-61.5229 L 442.593,-61.0143 L 442.62,-60.5 L 442.593,-59.9857 L 442.512,-59.4771
 L 442.379,-58.9796 L 442.195,-58.4989 L 441.961,-58.04 L 441.68,-57.6081 L 441.356,-57.2079 L 440.992,-56.8437
 L 440.592,-56.5196 L 440.16,-56.2392 L 439.701,-56.0054 L 439.22,-55.8208 L 438.723,-55.6875 L 438.214,-55.607
 L 437.7,-55.58 z
M 580.586,-55.607 L 580.077,-55.6875 L 579.58,-55.8208 L 579.099,-56.0054 L 578.64,-56.2392 L 578.208,-56.5196
 L 577.808,-56.8437 L 577.444,-57.2079 L 577.12,-57.6081 L 576.839,-58.04 L 576.605,-58.4989 L 576.421,-58.9796
 L 576.288,-59.4771 L 576.207,-59.9857 L 576.18,-60.5 L 576.207,-61.0143 L 576.288,-61.5229 L 576.421,-62.0204
 L 576.605,-62.5011 L 576.839,-62.96 L 577.12,-63.3919 L 577.444,-63.7921 L 577.808,-64.1563 L 578.208,-64.4804
 L 578.55,-64.7024 L 578.55,-74 L 578.606,-74.5302 L 578.77,-75.0372 L 579.037,-75.4988 L 579.394,-75.895
 L 579.825,-76.2084 L 580.312,-76.4252 L 580.833,-76.536 L 581.367,-76.536 L 581.888,-76.4252 L 582.375,-76.2084
 L 582.806,-75.895 L 583.163,-75.4988 L 583.43,-75.0372 L 583.594,-74.5302 L 583.65,-74 L 583.65,-64.7024
 L 583.992,-64.4804 L 584.392,-64.1563 L 584.756,-63.7921 L 585.08,-63.3919 L 585.361,-62.96 L 585.595,-62.5011
 L 585.779,-62.0204 L 585.912,-61.5229 L 585.993,-61.0143 L 586.02,-60.5 L 585.993,-59.9857 L 585.912,-59.4771
 L 585.779,-58.9796 L 585.595,-58.4989 L 585.361,-58.04 L 585.08,-57.6081 L 584.756,-57.2079 L 584.392,-56.8437
 L 583.992,-56.5196 L 583.56,-56.2392 L 583.101,-56.0054 L 582.62,-55.8208 L 582.123,-55.6875 L 581.614,-55.607
 L 581.1,-55.58 z
M 723.986,-55.607 L 723.477,-55.6875 L 722.98,-55.8208 L 722.499,-56.0054 L 722.04,-56.2392 L 721.608,-56.5196
 L 721.208,-56.8437 L 720.844,-57.2079 L 720.52,-57.6081 L 720.239,-58.04 L 720.005,-58.4989 L 719.821,-58.9796
 L 719.688,-59.4771 L 719.607,-59.9857 L 719.58,-60.5 L 719.607,-61.0143 L 719.688,-61.5229 L 719.821,-62.0204
 L 720.005,-62.5011 L 720.239,-62.96 L 720.52,-63.3919 L 720.844,-63.7921 L 721.208,-64.1563 L 721.608,-64.4804
 L 721.95,-64.7024 L 721.95,-74 L 722.006,-74.5302 L 722.17,-75.0372 L 722.437,-75.4988 L 722.794,-75.895
 L 723.225,-76.2084 L 723.712,-76.4252 L 724.233,-76.536 L 724.767,-76.536 L 725.288,-76.4252 L 725.775,-76.2084
 L 726.206,-75.895 L 726.563,-75.4988 L 726.83,-75.0372 L 726.994,-74.5302 L 727.05,-74 L 727.05,-64.7024
 L 727.392,-64.4804 L 727.792,-64.1563 L 728.156,-63.7921 L 728.48,-63.3919 L 728.761,-62.96 L 728.995,-62.5011
 L 729.179,-62.0204 L 729.312,-61.5229 L 729.393,-61.0143 L 729.42,-60.5 L 729.393,-59.9857 L 729.312,-59.4771
 L 729.179,-58.9796 L 728.995,-58.4989 L 728.761,-58.04 L 728.48,-57.6081 L 728.156,-57.2079 L 727.792,-56.8437
 L 727.392,-56.5196 L 726.96,-56.2392 L 726.501,-56.0054 L 726.02,-55.8208 L 725.523,-55.6875 L 725.014,-55.607
 L 724.5,-55.58 z
M 365.075,-48.279 L 364.286,-48.5564 L 351.993,-54.3858 L 351.356,-54.7639 L 350.734,-55.3235 L 350.243,-56
 L 349.903,-56.7639 L 349.729,-57.5819 L 349.729,-58.4181 L 349.903,-59.2361 L 350.243,-60 L 350.734,-60.6765
 L 351.356,-61.2361 L 352.08,-61.6542 L 352.875,-61.9126 L 353.707,-62 L 378.293,-62 L 379.031,-61.9314
 L 379.832,-61.692 L 380.566,-61.2914 L 381.201,-60.7468 L 381.708,-60.0823 L 382.067,-59.3267 L 382.26,-58.5131
 L 382.28,-57.6771 L 382.126,-56.8553 L 381.804,-56.0834 L 381.329,-55.3953 L 380.721,-54.8211 L 380.007,-54.3858
 L 367.714,-48.5564 L 366.738,-48.2393 L 365.904,-48.1718 z
M 280.375,-22.6564 L 279.586,-22.9338 L 213.259,-54.3858 L 212.622,-54.7639 L 212.001,-55.3235 L 211.509,-56
 L 211.169,-56.7639 L 210.995,-57.5819 L 210.995,-58.4181 L 211.169,-59.2361 L 211.509,-60 L 212.001,-60.6765
 L 212.622,-61.2361 L 213.346,-61.6542 L 214.142,-61.9126 L 214.973,-62 L 281.3,-62 L 282.536,-61.8042
 L 283.3,-61.4641 L 283.977,-60.9726 L 284.536,-60.3511 L 284.954,-59.627 L 285.213,-58.8316 L 285.3,-58
 L 285.3,-26.548 L 285.267,-26.0349 L 285.074,-25.2213 L 284.715,-24.4658 L 284.208,-23.8012 L 283.573,-23.2567
 L 282.839,-22.856 L 282.038,-22.6167 L 281.204,-22.5492 z
M 593.362,-22.6167 L 592.561,-22.856 L 591.827,-23.2567 L 591.192,-23.8012 L 590.685,-24.4658 L 590.326,-25.2213
 L 590.133,-26.0349 L 590.1,-26.548 L 590.1,-58 L 590.187,-58.8316 L 590.446,-59.627 L 590.864,-60.3511
 L 591.423,-60.9726 L 592.1,-61.4641 L 592.864,-61.8042 L 594.1,-62 L 660.427,-62 L 661.258,-61.9126
 L 662.054,-61.6542 L 662.778,-61.2361 L 663.399,-60.6765 L 663.891,-60 L 664.231,-59.2361 L 664.405,-58.4181
 L 664.405,-57.5819 L 664.231,-56.7639 L 663.891,-56 L 663.399,-55.3235 L 662.778,-54.7639 L 662.141,-54.3858
 L 595.814,-22.9338 L 595.025,-22.6564 L 594.196,-22.5492 z
M 136.975,-22.6564 L 136.186,-22.9338 L 69.8595,-54.3858 L 69.2222,-54.7639 L 68.6007,-55.3235 L 68.1092,-56
 L 67.7691,-56.7639 L 67.5952,-57.5819 L 67.5952,-58.4181 L 67.7691,-59.2361 L 68.1092,-60 L 68.6007,-60.6765
 L 69.2222,-61.2361 L 69.9464,-61.6542 L 70.7417,-61.9126 L 71.5733,-62 L 137.9,-62 L 139.136,-61.8042
 L 139.9,-61.4641 L 140.577,-60.9726 L 141.136,-60.3511 L 141.554,-59.627 L 141.813,-58.8316 L 141.9,-58
 L 141.9,-26.548 L 141.867,-26.0349 L 141.674,-25.2213 L 141.315,-24.4658 L 140.808,-23.8012 L 140.173,-23.2567
 L 139.439,-22.856 L 138.638,-22.6167 L 137.804,-22.5492 z
M 449.962,-22.6167 L 449.161,-22.856 L 448.427,-23.2567 L 447.792,-23.8012 L 447.285,-24.4658 L 446.926,-25.2213
 L 446.733,-26.0349 L 446.7,-26.548 L 446.7,-58 L 446.787,-58.8316 L 447.046,-59.627 L 447.464,-60.3511
 L 448.023,-60.9726 L 448.7,-61.4641 L 449.464,-61.8042 L 450.7,-62 L 517.027,-62 L 517.858,-61.9126
 L 518.654,-61.6542 L 519.378,-61.2361 L 519.999,-60.6765 L 520.491,-60 L 520.831,-59.2361 L 521.005,-58.4181
 L 521.005,-57.5819 L 520.831,-56.7639 L 520.491,-56 L 519.999,-55.3235 L 519.378,-54.7639 L 518.741,-54.3858
 L 452.414,-22.9338 L 451.625,-22.6564 L 450.796,-22.5492 z
M 306.882,-20.3571 L 306.064,-20.531 L 305.3,-20.8711 L 304.623,-21.3626 L 304.064,-21.9841 L 303.646,-22.7082
 L 303.387,-23.5035 L 303.3,-24.3352 L 303.3,-55.6648 L 303.333,-56.1779 L 303.526,-56.9915 L 303.885,-57.7471
 L 304.392,-58.4117 L 305.027,-58.9562 L 305.761,-59.3569 L 306.562,-59.5962 L 307.396,-59.6637 L 308.225,-59.5564
 L 309.014,-59.279 L 342.048,-43.6142 L 342.607,-43.2914 L 343.242,-42.7468 L 343.75,-42.0823 L 344.108,-41.3267
 L 344.301,-40.5131 L 344.321,-39.6771 L 344.167,-38.8553 L 343.845,-38.0834 L 343.37,-37.3953 L 342.762,-36.8211
 L 342.048,-36.3858 L 309.014,-20.721 L 308.536,-20.531 L 307.718,-20.3571 z
M 423.775,-20.4436 L 422.986,-20.721 L 389.952,-36.3858 L 389.393,-36.7086 L 388.758,-37.2532 L 388.25,-37.9177
 L 387.892,-38.6733 L 387.699,-39.4869 L 387.679,-40.3229 L 387.833,-41.1447 L 388.155,-41.9166 L 388.63,-42.6047
 L 389.238,-43.1789 L 389.952,-43.6142 L 422.986,-59.279 L 423.464,-59.469 L 424.282,-59.6429 L 425.118,-59.6429
 L 425.936,-59.469 L 426.7,-59.1289 L 427.377,-58.6374 L 427.936,-58.0159 L 428.354,-57.2918 L 428.613,-56.4965
 L 428.7,-55.6648 L 428.7,-24.3352 L 428.667,-23.8221 L 428.474,-23.0085 L 428.115,-22.2529 L 427.608,-21.5883
 L 426.973,-21.0438 L 426.239,-20.6431 L 425.438,-20.4038 L 424.604,-20.3363 z
M 163.9,-18 L 162.664,-18.1958 L 161.9,-18.5359 L 161.223,-19.0274 L 160.664,-19.6489 L 160.246,-20.373
 L 159.987,-21.1684 L 159.9,-22 L 159.9,-53.452 L 159.933,-53.9651 L 160.126,-54.7787 L 160.485,-55.5342
 L 160.992,-56.1988 L 161.627,-56.7433 L 162.361,-57.144 L 163.162,-57.3833 L 163.996,-57.4508 L 164.825,-57.3436
 L 165.614,-57.0662 L 231.941,-25.6142 L 232.578,-25.2361 L 233.199,-24.6765 L 233.691,-24 L 234.031,-23.2361
 L 234.205,-22.4181 L 234.205,-21.5819 L 234.031,-20.7639 L 233.691,-20 L 233.199,-19.3235 L 232.578,-18.7639
 L 231.854,-18.3458 L 231.058,-18.0874 L 230.227,-18 z
M 501.773,-18 L 500.942,-18.0874 L 500.146,-18.3458 L 499.422,-18.7639 L 498.801,-19.3235 L 498.309,-20
 L 497.969,-20.7639 L 497.795,-21.5819 L 497.795,-22.4181 L 497.969,-23.2361 L 498.309,-24 L 498.801,-24.6765
 L 499.422,-25.2361 L 500.059,-25.6142 L 566.386,-57.0662 L 567.175,-57.3436 L 568.004,-57.4508 L 568.838,-57.3833
 L 569.639,-57.144 L 570.373,-56.7433 L 571.008,-56.1988 L 571.515,-55.5342 L 571.874,-54.7787 L 572.067,-53.9651
 L 572.1,-53.452 L 572.1,-22 L 572.013,-21.1684 L 571.754,-20.373 L 571.336,-19.6489 L 570.777,-19.0274
 L 570.1,-18.5359 L 569.336,-18.1958 L 568.1,-18 z
M 22,-18 L 20.7639,-18.1958 L 20,-18.5359 L 19.3235,-19.0274 L 18.7639,-19.6489 L 18.3458,-20.373
 L 18.0874,-21.1684 L 18,-22 L 18,-52.7407 L 18.0331,-53.2538 L 18.2264,-54.0674 L 18.5847,-54.8229
 L 19.0923,-55.4875 L 19.7269,-56.032 L 20.4609,-56.4327 L 21.2621,-56.672 L 22.0957,-56.7395 L 22.925,-56.6323
 L 23.7139,-56.3549 L 88.5405,-25.6142 L 89.1778,-25.2361 L 89.7992,-24.6765 L 90.2908,-24 L 90.6309,-23.2361
 L 90.8047,-22.4181 L 90.8047,-21.5819 L 90.6309,-20.7639 L 90.2908,-20 L 89.7992,-19.3235 L 89.1778,-18.7639
 L 88.4536,-18.3458 L 87.6583,-18.0874 L 86.8267,-18 z
M 645.173,-18 L 644.342,-18.0874 L 643.546,-18.3458 L 642.822,-18.7639 L 642.201,-19.3235 L 641.709,-20
 L 641.369,-20.7639 L 641.195,-21.5819 L 641.195,-22.4181 L 641.369,-23.2361 L 641.709,-24 L 642.201,-24.6765
 L 642.822,-25.2361 L 643.459,-25.6142 L 708.286,-56.3549 L 709.075,-56.6323 L 709.904,-56.7395 L 710.738,-56.672
 L 711.539,-56.4327 L 712.273,-56.032 L 712.908,-55.4875 L 713.415,-54.8229 L 713.774,-54.0674 L 713.967,-53.2538
 L 714,-52.7407 L 714,-22 L 713.913,-21.1684 L 713.654,-20.373 L 713.236,-19.6489 L 712.677,-19.0274
 L 712,-18.5359 L 711.236,-18.1958 L 710,-18 z
M 353.707,-18 L 352.969,-18.0686 L 352.168,-18.308 L 351.434,-18.7086 L 350.799,-19.2532 L 350.292,-19.9177
 L 349.933,-20.6733 L 349.74,-21.4869 L 349.72,-22.3229 L 349.874,-23.1447 L 350.196,-23.9166 L 350.671,-24.6047
 L 351.279,-25.1789 L 351.993,-25.6142 L 364.286,-31.4436 L 365.262,-31.7608 L 366.096,-31.8282 L 366.925,-31.721
 L 367.714,-31.4436 L 380.007,-25.6142 L 380.644,-25.2361 L 381.266,-24.6765 L 381.757,-24 L 382.097,-23.2361
 L 382.271,-22.4181 L 382.271,-21.5819 L 382.097,-20.7639 L 381.757,-20 L 381.266,-19.3235 L 380.644,-18.7639
 L 379.92,-18.3458 L 379.125,-18.0874 L 378.293,-18 z
" stroke="black" fill="lightgray" stroke-width="0.5"/>
</svg>
