<?xml version="1.0" standalone="no"?>
<!DOCTYPE svg PUBLIC "-//W3C//DTD SVG 1.1//EN" "http://www.w3.org/Graphics/SVG/1.1/DTD/svg11.dtd">
<svg width="990mm" height="80mm" viewBox="0 -80 990 80" xmlns="http://www.w3.org/2000/svg" version="1.1">
<title>OpenSCAD Model</title>
<path d="
M 990,-80 L 0,-80 L 0,-0 L 4.95,-0 L 4.95,-6 L 5.00572,-6.53017
 L 5.17046,-7.03717 L 5.437,-7.49884 L 5.79372,-7.895 L 6.22499,-8.20836 L 6.71201,-8.42519 L 7.23344,-8.53603
 L 7.76654,-8.53603 L 8.28798,-8.42519 L 8.77499,-8.20836 L 9.20627,-7.895 L 9.56299,-7.49884 L 9.82953,-7.03717
 L 9.99426,-6.53017 L 10.05,-6 L 10.05,-0 L 199.95,-0 L 199.95,-6 L 200.006,-6.53017
 L 200.17,-7.03717 L 200.437,-7.49884 L 200.794,-7.895 L 201.225,-8.20836 L 201.712,-8.42519 L 202.233,-8.53603
 L 202.767,-8.53603 L 203.288,-8.42519 L 203.775,-8.20836 L 204.206,-7.895 L 204.563,-7.49884 L 204.83,-7.03717
 L 204.994,-6.53017 L 205.05,-6 L 205.05,-0 L 394.95,-0 L 394.95,-6 L 395.006,-6.53017
 L 395.17,-7.03717 L 395.437,-7.49884 L 395.794,-7.895 L 396.225,-8.20836 L 396.712,-8.42519 L 397.233,-8.53603
 L 397.767,-8.53603 L 398.288,-8.42519 L 398.775,-8.20836 L 399.206,-7.895 L 399.563,-7.49884 L 399.83,-7.03717
 L 399.994,-6.53017 L 400.05,-6 L 400.05,-0 L 589.95,-0 L 589.95,-6 L 590.006,-6.53017
 L 590.17,-7.03717 L 590.437,-7.49884 L 590.794,-7.895 L 591.225,-8.20836 L 591.712,-8.42519 L 592.233,-8.53603
 L 592.767,-8.53603 L 593.288,-8.42519 L 593.775,-8.20836 L 594.206,-7.895 L 594.563,-7.49884 L 594.83,-7.03717
 L 594.994,-6.53017 L 595.05,-6 L 595.05,-0 L 784.95,-0 L 784.95,-6 L 785.006,-6.53017
 L 785.17,-7.03717 L 785.437,-7.49884 L 785.794,-7.895 L 786.225,-8.20836 L 786.712,-8.42519 L 787.233,-8.53603
 L 787.767,-8.53603 L 788.288,-8.42519 L 788.775,-8.20836 L 789.206,-7.895 L 789.563,-7.49884 L 789.83,-7.03717
 L 789.994,-6.53017 L 790.05,-6 L 790.05,-0 L 979.95,-0 L 979.95,-6 L 980.006,-6.53017
 L 980.17,-7.03717 L 980.437,-7.49884 L 980.794,-7.895 L 981.225,-8.20836 L 981.712,-8.42519 L 982.233,-8.53603
 L 982.767,-8.53603 L 983.288,-8.42519 L 983.775,-8.20836 L 984.206,-7.895 L 984.563,-7.49884 L 984.83,-7.03717
 L 984.994,-6.53017 L 985.05,-6 L 985.05,-0 L 990,-0 z
M 6.98573,-55.607 L 6.47708,-55.6875 L 5.97964,-55.8208 L 5.49887,-56.0054 L 5.04001,-56.2392 L 4.60811,-56.5196
 L 4.20789,-56.8437 L 3.84373,-57.2079 L 3.51964,-57.6081 L 3.23917,-58.04 L 3.00537,-58.4989 L 2.82082,-58.9796
 L 2.68752,-59.4771 L 2.60696,-59.9857 L 2.58,-60.5 L 2.60696,-61.0143 L 2.68752,-61.5229 L 2.82082,-62.0204
 L 3.00537,-62.5011 L 3.23917,-62.96 L 3.51964,-63.3919 L 3.84373,-63.7921 L 4.20789,-64.1563 L 4.60811,-64.4804
 L 4.95001,-64.7024 L 4.95001,-74 L 5.00574,-74.5302 L 5.17047,-75.0372 L 5.43701,-75.4988 L 5.79373,-75.895
 L 6.22501,-76.2084 L 6.71202,-76.4252 L 7.23346,-76.536 L 7.76654,-76.536 L 8.28798,-76.4252 L 8.77499,-76.2084
 L 9.20627,-75.895 L 9.56299,-75.4988 L 9.82953,-75.0372 L 9.99426,-74.5302 L 10.05,-74 L 10.05,-64.7024
 L 10.3919,-64.4804 L 10.7921,-64.1563 L 11.1563,-63.7921 L 11.4804,-63.3919 L 11.7608,-62.96 L 11.9946,-62.5011
 L 12.1792,-62.0204 L 12.3125,-61.5229 L 12.393,-61.0143 L 12.42,-60.5 L 12.393,-59.9857 L 12.3125,-59.4771
 L 12.1792,-58.9796 L 11.9946,-58.4989 L 11.7608,-58.04 L 11.4804,-57.6081 L 11.1563,-57.2079 L 10.7921,-56.8437
 L 10.3919,-56.5196 L 9.95999,-56.2392 L 9.50113,-56.0054 L 9.02036,-55.8208 L 8.52292,-55.6875 L 8.01427,-55.607
 L 7.5,-55.58 z
M 201.986,-55.607 L 201.477,-55.6875 L 200.98,-55.8208 L 200.499,-56.0054 L 200.04,-56.2392 L 199.608,-56.5196
 L 199.208,-56.8437 L 198.844,-57.2079 L 198.52,-57.6081 L 198.239,-58.04 L 198.005,-58.4989 L 197.821,-58.9796
 L 197.688,-59.4771 L 197.607,-59.9857 L 197.58,-60.5 L 197.607,-61.0143 L 197.688,-61.5229 L 197.821,-62.0204
 L 198.005,-62.5011 L 198.239,-62.96 L 198.52,-63.3919 L 198.844,-63.7921 L 199.208,-64.1563 L 199.608,-64.4804
 L 199.95,-64.7024 L 199.95,-74 L 200.006,-74.5302 L 200.17,-75.0372 L 200.437,-75.4988 L 200.794,-75.895
 L 201.225,-76.2084 L 201.712,-76.4252 L 202.233,-76.536 L 202.767,-76.536 L 203.288,-76.4252 L 203.775,-76.2084
 L 204.206,-75.895 L 204.563,-75.4988 L 204.83,-75.0372 L 204.994,-74.5302 L 205.05,-74 L 205.05,-64.7024
 L 205.392,-64.4804 L 205.792,-64.1563 L 206.156,-63.7921 L 206.48,-63.3919 L 206.761,-62.96 L 206.995,-62.5011
 L 207.179,-62.0204 L 207.312,-61.5229 L 207.393,-61.0143 L 207.42,-60.5 L 207.393,-59.9857 L 207.312,-59.4771
 L 207.179,-58.9796 L 206.995,-58.4989 L 206.761,-58.04 L 206.48,-57.6081 L 206.156,-57.2079 L 205.792,-56.8437
 L 205.392,-56.5196 L 204.96,-56.2392 L 204.501,-56.0054 L 204.02,-55.8208 L 203.523,-55.6875 L 203.014,-55.607
 L 202.5,-55.58 z
M 396.986,-55.607 L 396.477,-55.6875 L 395.98,-55.8208 L 395.499,-56.0054 L 395.04,-56.2392 L 394.608,-56.5196
 L 394.208,-56.8437 L 393.844,-57.2079 L 393.52,-57.6081 L 393.239,-58.04 L 393.005,-58.4989 L 392.821,-58.9796
 L 392.688,-59.4771 L 392.607,-59.9857 L 392.58,-60.5 L 392.607,-61.0143 L 392.688,-61.5229 L 392.821,-62.0204
 L 393.005,-62.5011 L 393.239,-62.96 L 393.52,-63.3919 L 393.844,-63.7921 L 394.208,-64.1563 L 394.608,-64.4804
 L 394.95,-64.7024 L 394.95,-74 L 395.006,-74.5302 L 395.17,-75.0372 L 395.437,-75.4988 L 395.794,-75.895
 L 396.225,-76.2084 L 396.712,-76.4252 L 397.233,-76.536 L 397.767,-76.536 L 398.288,-76.4252 L 398.775,-76.2084
 L 399.206,-75.895 L 399.563,-75.4988 L 399.83,-75.0372 L 399.994,-74.5302 L 400.05,-74 L 400.05,-64.7024
 L 400.392,-64.4804 L 400.792,-64.1563 L 401.156,-63.7921 L 401.48,-63.3919 L 401.761,-62.96 L 401.995,-62.5011
 L 402.179,-62.0204 L 402.312,-61.5229 L 402.393,-61.0143 L 402.42,-60.5 L 402.393,-59.9857 L 402.312,-59.4771
 L 402.179,-58.9796 L 401.995,-58.4989 L 401.761,-58.04 L 401.48,-57.6081 L 401.156,-57.2079 L 400.792,-56.8437
 L 400.392,-56.5196 L 399.96,-56.2392 L 399.501,-56.0054 L 399.02,-55.8208 L 398.523,-55.6875 L 398.014,-55.607
 L 397.5,-55.58 z
M 591.986,-55.607 L 591.477,-55.6875 L 590.98,-55.8208 L 590.499,-56.0054 L 590.04,-56.2392 L 589.608,-56.5196
 L 589.208,-56.8437 L 588.844,-57.2079 L 588.52,-57.6081 L 588.239,-58.04 L 588.005,-58.4989 L 587.821,-58.9796
 L 587.688,-59.4771 L 587.607,-59.9857 L 587.58,-60.5 L 587.607,-61.0143 L 587.688,-61.5229 L 587.821,-62.0204
 L 588.005,-62.5011 L 588.239,-62.96 L 588.52,-63.3919 L 588.844,-63.7921 L 589.208,-64.1563 L 589.608,-64.4804
 L 589.95,-64.7024 L 589.95,-74 L 590.006,-74.5302 L 590.17,-75.0372 L 590.437,-75.4988 L 590.794,-75.895
 L 591.225,-76.2084 L 591.712,-76.4252 L 592.233,-76.536 L 592.767,-76.536 L 593.288,-76.4252 L 593.775,-76.2084
 L 594.206,-75.895 L 594.563,-75.4988 L 594.83,-75.0372 L 594.994,-74.5302 L 595.05,-74 L 595.05,-64.7024
 L 595.392,-64.4804 L 595.792,-64.1563 L 596.156,-63.7921 L 596.48,-63.3919 L 596.761,-62.96 L 596.995,-62.5011
 L 597.179,-62.0204 L 597.312,-61.5229 L 597.393,-61.0143 L 597.42,-60.5 L 597.393,-59.9857 L 597.312,-59.4771
 L 597.179,-58.9796 L 596.995,-58.4989 L 596.761,-58.04 L 596.48,-57.6081 L 596.156,-57.2079 L 595.792,-56.8437
 L 595.392,-56.5196 L 594.96,-56.2392 L 594.501,-56.0054 L 594.02,-55.8208 L 593.523,-55.6875 L 593.014,-55.607
 L 592.5,-55.58 z
M 786.986,-55.607 L 786.477,-55.6875 L 785.98,-55.8208 L 785.499,-56.0054 L 785.04,-56.2392 L 784.608,-56.5196
 L 784.208,-56.8437 L 783.844,-57.2079 L 783.52,-57.6081 L 783.239,-58.04 L 783.005,-58.4989 L 782.821,-58.9796
 L 782.688,-59.4771 L 782.607,-59.9857 L 782.58,-60.5 L 782.607,-61.0143 L 782.688,-61.5229 L 782.821,-62.0204
 L 783.005,-62.5011 L 783.239,-62.96 L 783.52,-63.3919 L 783.844,-63.7921 L 784.208,-64.1563 L 784.608,-64.4804
 L 784.95,-64.7024 L 784.95,-74 L 785.006,-74.5302 L 785.17,-75.0372 L 785.437,-75.4988 L 785.794,-75.895
 L 786.225,-76.2084 L 786.712,-76.4252 L 787.233,-76.536 L 787.767,-76.536 L 788.288,-76.4252 L 788.775,-76.2084
 L 789.206,-75.895 L 789.563,-75.4988 L 789.83,-75.0372 L 789.994,-74.5302 L 790.05,-74 L 790.05,-64.7024
 L 790.392,-64.4804 L 790.792,-64.1563 L 791.156,-63.7921 L 791.48,-63.3919 L 791.761,-62.96 L 791.995,-62.5011
 L 792.179,-62.0204 L 792.312,-61.5229 L 792.393,-61.0143 L 792.42,-60.5 L 792.393,-59.9857 L 792.312,-59.4771
 L 792.179,-58.9796 L 791.995,-58.4989 L 791.761,-58.04 L 791.48,-57.6081 L 791.156,-57.2079 L 790.792,-56.8437
 L 790.392,-56.5196 L 789.96,-56.2392 L 789.501,-56.0054 L 789.02,-55.8208 L 788.523,-55.6875 L 788.014,-55.607
 L 787.5,-55.58 z
M 981.986,-55.607 L 981.477,-55.6875 L 980.98,-55.8208 L 980.499,-56.0054 L 980.04,-56.2392 L 979.608,-56.5196
 L 979.208,-56.8437 L 978.844,-57.2079 L 978.52,-57.6081 L 978.239,-58.04 L 978.005,-58.4989 L 977.821,-58.9796
 L 977.688,-59.4771 L 977.607,-59.9857 L 977.58,-60.5 L 977.607,-61.0143 L 977.688,-61.5229 L 977.821,-62.0204
 L 978.005,-62.5011 L 978.239,-62.96 L 978.52,-63.3919 L 978.844,-63.7921 L 979.208,-64.1563 L 979.608,-64.4804
 L 979.95,-64.7024 L 979.95,-74 L 980.006,-74.5302 L 980.17,-75.0372 L 980.437,-75.4988 L 980.794,-75.895
 L 981.225,-76.2084 L 981.712,-76.4252 L 982.233,-76.536 L 982.767,-76.536 L 983.288,-76.4252 L 983.775,-76.2084
 L 984.206,-75.895 L 984.563,-75.4988 L 984.83,-75.0372 L 984.994,-74.5302 L 985.05,-74 L 985.05,-64.7024
 L 985.392,-64.4804 L 985.792,-64.1563 L 986.156,-63.7921 L 986.48,-63.3919 L 986.761,-62.96 L 986.995,-62.5011
 L 987.179,-62.0204 L 987.312,-61.5229 L 987.393,-61.0143 L 987.42,-60.5 L 987.393,-59.9857 L 987.312,-59.4771
 L 987.179,-58.9796 L 986.995,-58.4989 L 986.761,-58.04 L 986.48,-57.6081 L 986.156,-57.2079 L 985.792,-56.8437
 L 985.392,-56.5196 L 984.96,-56.2392 L 984.501,-56.0054 L 984.02,-55.8208 L 983.523,-55.6875 L 983.014,-55.607
 L 982.5,-55.58 z
M 494.497,-47.6787 L 493.683,-47.87 L 475.465,-54.2231 L 474.431,-54.7639 L 473.809,-55.3235 L 473.318,-56
 L 472.978,-56.7639 L 472.804,-57.5819 L 472.804,-58.4181 L 472.978,-59.2361 L 473.318,-60 L 473.809,-60.6765
 L 474.431,-61.2361 L 475.155,-61.6542 L 475.95,-61.9126 L 476.782,-62 L 513.218,-62 L 514.373,-61.8298
 L 515.144,-61.5061 L 515.831,-61.0291 L 516.403,-60.4198 L 516.837,-59.7047 L 517.112,-58.9151 L 517.217,-58.0855
 L 517.148,-57.2522 L 516.906,-56.4515 L 516.504,-55.7186 L 515.958,-55.0853 L 515.292,-54.5794 L 514.535,-54.2231
 L 496.317,-47.87 L 495.333,-47.6609 z
M 383.997,-20.3297 L 383.183,-20.521 L 286.537,-54.2231 L 285.503,-54.7639 L 284.882,-55.3235 L 284.39,-56
 L 284.05,-56.7639 L 283.876,-57.5819 L 283.876,-58.4181 L 284.05,-59.2361 L 284.39,-60 L 284.882,-60.6765
 L 285.503,-61.2361 L 286.227,-61.6542 L 287.023,-61.9126 L 287.854,-62 L 384.5,-62 L 385.736,-61.8042
 L 386.5,-61.4641 L 387.177,-60.9726 L 387.736,-60.3511 L 388.154,-59.627 L 388.413,-58.8316 L 388.5,-58
 L 388.5,-24.2979 L 388.394,-23.3829 L 388.119,-22.5933 L 387.685,-21.8782 L 387.112,-21.2688 L 386.426,-20.7919
 L 385.654,-20.4682 L 384.833,-20.3118 z
M 799.346,-20.4682 L 798.574,-20.7919 L 797.888,-21.2688 L 797.315,-21.8782 L 796.881,-22.5933 L 796.606,-23.3829
 L 796.5,-24.2979 L 796.5,-58 L 796.587,-58.8316 L 796.846,-59.627 L 797.264,-60.3511 L 797.823,-60.9726
 L 798.5,-61.4641 L 799.264,-61.8042 L 800.5,-62 L 897.146,-62 L 897.977,-61.9126 L 898.773,-61.6542
 L 899.497,-61.2361 L 900.118,-60.6765 L 900.61,-60 L 900.95,-59.2361 L 901.124,-58.4181 L 901.124,-57.5819
 L 900.95,-56.7639 L 900.61,-56 L 900.118,-55.3235 L 899.497,-54.7639 L 898.463,-54.2231 L 801.817,-20.521
 L 801.003,-20.3297 L 800.167,-20.3118 z
M 188.997,-20.3297 L 188.183,-20.521 L 91.5373,-54.2231 L 90.5032,-54.7639 L 89.8818,-55.3235 L 89.3903,-56
 L 89.0501,-56.7639 L 88.8763,-57.5819 L 88.8763,-58.4181 L 89.0501,-59.2361 L 89.3903,-60 L 89.8818,-60.6765
 L 90.5032,-61.2361 L 91.2274,-61.6542 L 92.0227,-61.9126 L 92.8544,-62 L 189.5,-62 L 190.736,-61.8042
 L 191.5,-61.4641 L 192.177,-60.9726 L 192.736,-60.3511 L 193.154,-59.627 L 193.413,-58.8316 L 193.5,-58
 L 193.5,-24.2979 L 193.394,-23.3829 L 193.119,-22.5933 L 192.685,-21.8782 L 192.112,-21.2688 L 191.426,-20.7919
 L 190.654,-20.4682 L 189.833,-20.3118 z
M 604.346,-20.4682 L 603.574,-20.7919 L 602.888,-21.2688 L 602.315,-21.8782 L 601.881,-22.5933 L 601.606,-23.3829
 L 601.5,-24.2979 L 601.5,-58 L 601.587,-58.8316 L 601.846,-59.627 L 602.264,-60.3511 L 602.823,-60.9726
 L 603.5,-61.4641 L 604.264,-61.8042 L 605.5,-62 L 702.146,-62 L 702.977,-61.9126 L 703.773,-61.6542
 L 704.497,-61.2361 L 705.118,-60.6765 L 705.61,-60 L 705.95,-59.2361 L 706.124,-58.4181 L 706.124,-57.5819
 L 705.95,-56.7639 L 705.61,-56 L 705.118,-55.3235 L 704.497,-54.7639 L 703.463,-54.2231 L 606.817,-20.521
 L 606.003,-20.3297 L 605.167,-20.3118 z
M 410.082,-18.2022 L 409.264,-18.3761 L 408.5,-18.7162 L 407.823,-19.2077 L 407.264,-19.8292 L 406.846,-20.5534
 L 406.587,-21.3487 L 406.5,-22.1803 L 406.5,-57.8197 L 406.606,-58.7348 L 406.881,-59.5244 L 407.315,-60.2395
 L 407.888,-60.8488 L 408.574,-61.3257 L 409.346,-61.6495 L 410.167,-61.8058 L 411.003,-61.7879 L 411.817,-61.5966
 L 462.918,-43.7769 L 463.526,-43.5061 L 464.213,-43.0291 L 464.786,-42.4198 L 465.219,-41.7047 L 465.495,-40.9151
 L 465.6,-40.0855 L 465.53,-39.2522 L 465.289,-38.4515 L 464.886,-37.7186 L 464.34,-37.0853 L 463.674,-36.5794
 L 462.918,-36.2231 L 411.817,-18.4034 L 410.918,-18.2022 z
M 578.997,-18.2121 L 578.183,-18.4034 L 527.082,-36.2231 L 526.474,-36.4939 L 525.787,-36.9709 L 525.214,-37.5802
 L 524.781,-38.2953 L 524.505,-39.0849 L 524.4,-39.9145 L 524.47,-40.7478 L 524.711,-41.5485 L 525.114,-42.2814
 L 525.66,-42.9147 L 526.326,-43.4206 L 527.082,-43.7769 L 578.183,-61.5966 L 579.082,-61.7978 L 579.918,-61.7978
 L 580.736,-61.6239 L 581.5,-61.2838 L 582.177,-60.7923 L 582.736,-60.1708 L 583.154,-59.4467 L 583.413,-58.6514
 L 583.5,-57.8197 L 583.5,-22.1803 L 583.394,-21.2652 L 583.119,-20.4756 L 582.685,-19.7605 L 582.112,-19.1512
 L 581.426,-18.6742 L 580.654,-18.3505 L 579.833,-18.1942 z
M 215.5,-18 L 214.264,-18.1958 L 213.5,-18.5359 L 212.823,-19.0274 L 212.264,-19.6489 L 211.846,-20.373
 L 211.587,-21.1684 L 211.5,-22 L 211.5,-55.7021 L 211.606,-56.6171 L 211.881,-57.4067 L 212.315,-58.1218
 L 212.888,-58.7312 L 213.574,-59.2081 L 214.346,-59.5318 L 215.167,-59.6882 L 216.003,-59.6703 L 216.817,-59.479
 L 313.463,-25.7769 L 314.497,-25.2361 L 315.118,-24.6765 L 315.61,-24 L 315.95,-23.2361 L 316.124,-22.4181
 L 316.124,-21.5819 L 315.95,-20.7639 L 315.61,-20 L 315.118,-19.3235 L 314.497,-18.7639 L 313.773,-18.3458
 L 312.977,-18.0874 L 312.146,-18 z
M 677.854,-18 L 677.023,-18.0874 L 676.227,-18.3458 L 675.503,-18.7639 L 674.882,-19.3235 L 674.39,-20
 L 674.05,-20.7639 L 673.876,-21.5819 L 673.876,-22.4181 L 674.05,-23.2361 L 674.39,-24 L 674.882,-24.6765
 L 675.503,-25.2361 L 676.537,-25.7769 L 773.183,-59.479 L 773.997,-59.6703 L 774.833,-59.6882 L 775.654,-59.5318
 L 776.426,-59.2081 L 777.112,-58.7312 L 777.685,-58.1218 L 778.119,-57.4067 L 778.394,-56.6171 L 778.5,-55.7021
 L 778.5,-22 L 778.413,-21.1684 L 778.154,-20.373 L 777.736,-19.6489 L 777.177,-19.0274 L 776.5,-18.5359
 L 775.736,-18.1958 L 774.5,-18 z
M 22,-18 L 20.7639,-18.1958 L 20,-18.5359 L 19.3235,-19.0274 L 18.7639,-19.6489 L 18.3458,-20.373
 L 18.0874,-21.1684 L 18,-22 L 18,-55.179 L 18.1061,-56.094 L 18.3814,-56.8836 L 18.8149,-57.5987
 L 19.3876,-58.2081 L 20.0745,-58.685 L 20.8455,-59.0087 L 21.667,-59.1651 L 22.503,-59.1472 L 23.3171,-58.9559
 L 118.463,-25.7769 L 119.497,-25.2361 L 120.118,-24.6765 L 120.61,-24 L 120.95,-23.2361 L 121.124,-22.4181
 L 121.124,-21.5819 L 120.95,-20.7639 L 120.61,-20 L 120.118,-19.3235 L 119.497,-18.7639 L 118.773,-18.3458
 L 117.977,-18.0874 L 117.146,-18 z
M 872.854,-18 L 872.023,-18.0874 L 871.227,-18.3458 L 870.503,-18.7639 L 869.882,-19.3235 L 869.39,-20
 L 869.05,-20.7639 L 868.876,-21.5819 L 868.876,-22.4181 L 869.05,-23.2361 L 869.39,-24 L 869.882,-24.6765
 L 870.503,-25.2361 L 871.537,-25.7769 L 966.683,-58.9559 L 967.497,-59.1472 L 968.333,-59.1651 L 969.154,-59.0087
 L 969.926,-58.685 L 970.612,-58.2081 L 971.185,-57.5987 L 971.619,-56.8836 L 971.894,-56.094 L 972,-55.179
 L 972,-22 L 971.913,-21.1684 L 971.654,-20.373 L 971.236,-19.6489 L 970.677,-19.0274 L 970,-18.5359
 L 969.236,-18.1958 L 968,-18 z
M 476.782,-18 L 475.627,-18.1702 L 474.856,-18.4939 L 474.169,-18.9709 L 473.597,-19.5802 L 473.163,-20.2953
 L 472.888,-21.0849 L 472.783,-21.9145 L 472.852,-22.7478 L 473.094,-23.5485 L 473.496,-24.2814 L 474.042,-24.9147
 L 474.708,-25.4206 L 475.465,-25.7769 L 493.683,-32.13 L 494.667,-32.3391 L 495.503,-32.3213 L 496.317,-32.13
 L 514.535,-25.7769 L 515.569,-25.2361 L 516.191,-24.6765 L 516.682,-24 L 517.022,-23.2361 L 517.196,-22.4181
 L 517.196,-21.5819 L 517.022,-20.7639 L 516.682,-20 L 516.191,-19.3235 L 515.569,-18.7639 L 514.845,-18.3458
 L 514.05,-18.0874 L 513.218,-18 z
" stroke="black" fill="lightgray" stroke-width="0.5"/>
</svg>
