<?xml version="1.0" standalone="no"?>
<!DOCTYPE svg PUBLIC "-//W3C//DTD SVG 1.1//EN" "http://www.w3.org/Graphics/SVG/1.1/DTD/svg11.dtd">
<svg width="988mm" height="80mm" viewBox="0 -80 988 80" xmlns="http://www.w3.org/2000/svg" version="1.1">
<title>OpenSCAD Model</title>
<path d="
M 988,-80 L 0,-80 L 0,-0 L 4.95,-0 L 4.95,-6 L 5.00572,-6.53017
 L 5.17046,-7.03717 L 5.437,-7.49884 L 5.79372,-7.895 L 6.22499,-8.20836 L 6.71201,-8.42519 L 7.23344,-8.53603
 L 7.76654,-8.53603 L 8.28798,-8.42519 L 8.77499,-8.20836 L 9.20627,-7.895 L 9.56299,-7.49884 L 9.82953,-7.03717
 L 9.99426,-6.53017 L 10.05,-6 L 10.05,-0 L 199.55,-0 L 199.55,-6 L 199.606,-6.53017
 L 199.77,-7.03717 L 200.037,-7.49884 L 200.394,-7.895 L 200.825,-8.20836 L 201.312,-8.42519 L 201.833,-8.53603
 L 202.367,-8.53603 L 202.888,-8.42519 L 203.375,-8.20836 L 203.806,-7.895 L 204.163,-7.49884 L 204.43,-7.03717
 L 204.594,-6.53017 L 204.65,-6 L 204.65,-0 L 394.15,-0 L 394.15,-6 L 394.206,-6.53017
 L 394.37,-7.03717 L 394.637,-7.49884 L 394.994,-7.895 L 395.425,-8.20836 L 395.912,-8.42519 L 396.433,-8.53603
 L 396.967,-8.53603 L 397.488,-8.42519 L 397.975,-8.20836 L 398.406,-7.895 L 398.763,-7.49884 L 399.03,-7.03717
 L 399.194,-6.53017 L 399.25,-6 L 399.25,-0 L 588.75,-0 L 588.75,-6 L 588.806,-6.53017
 L 588.97,-7.03717 L 589.237,-7.49884 L 589.594,-7.895 L 590.025,-8.20836 L 590.512,-8.42519 L 591.033,-8.53603
 L 591.567,-8.53603 L 592.088,-8.42519 L 592.575,-8.20836 L 593.006,-7.895 L 593.363,-7.49884 L 593.63,-7.03717
 L 593.794,-6.53017 L 593.85,-6 L 593.85,-0 L 783.35,-0 L 783.35,-6 L 783.406,-6.53017
 L 783.57,-7.03717 L 783.837,-7.49884 L 784.194,-7.895 L 784.625,-8.20836 L 785.112,-8.42519 L 785.633,-8.53603
 L 786.167,-8.53603 L 786.688,-8.42519 L 787.175,-8.20836 L 787.606,-7.895 L 787.963,-7.49884 L 788.23,-7.03717
 L 788.394,-6.53017 L 788.45,-6 L 788.45,-0 L 977.95,-0 L 977.95,-6 L 978.006,-6.53017
 L 978.17,-7.03717 L 978.437,-7.49884 L 978.794,-7.895 L 979.225,-8.20836 L 979.712,-8.42519 L 980.233,-8.53603
 L 980.767,-8.53603 L 981.288,-8.42519 L 981.775,-8.20836 L 982.206,-7.895 L 982.563,-7.49884 L 982.83,-7.03717
 L 982.994,-6.53017 L 983.05,-6 L 983.05,-0 L 988,-0 z
M 6.98573,-55.607 L 6.47708,-55.6875 L 5.97964,-55.8208 L 5.49887,-56.0054 L 5.04001,-56.2392 L 4.60811,-56.5196
 L 4.20789,-56.8437 L 3.84373,-57.2079 L 3.51964,-57.6081 L 3.23917,-58.04 L 3.00537,-58.4989 L 2.82082,-58.9796
 L 2.68752,-59.4771 L 2.60696,-59.9857 L 2.58,-60.5 L 2.60696,-61.0143 L 2.68752,-61.5229 L 2.82082,-62.0204
 L 3.00537,-62.5011 L 3.23917,-62.96 L 3.51964,-63.3919 L 3.84373,-63.7921 L 4.20789,-64.1563 L 4.60811,-64.4804
 L 4.95001,-64.7024 L 4.95001,-74 L 5.00574,-74.5302 L 5.17047,-75.0372 L 5.43701,-75.4988 L 5.79373,-75.895
 L 6.22501,-76.2084 L 6.71202,-76.4252 L 7.23346,-76.536 L 7.76654,-76.536 L 8.28798,-76.4252 L 8.77499,-76.2084
 L 9.20627,-75.895 L 9.56299,-75.4988 L 9.82953,-75.0372 L 9.99426,-74.5302 L 10.05,-74 L 10.05,-64.7024
 L 10.3919,-64.4804 L 10.7921,-64.1563 L 11.1563,-63.7921 L 11.4804,-63.3919 L 11.7608,-62.96 L 11.9946,-62.5011
 L 12.1792,-62.0204 L 12.3125,-61.5229 L 12.393,-61.0143 L 12.42,-60.5 L 12.393,-59.9857 L 12.3125,-59.4771
 L 12.1792,-58.9796 L 11.9946,-58.4989 L 11.7608,-58.04 L 11.4804,-57.6081 L 11.1563,-57.2079 L 10.7921,-56.8437
 L 10.3919,-56.5196 L 9.95999,-56.2392 L 9.50113,-56.0054 L 9.02036,-55.8208 L 8.52292,-55.6875 L 8.01427,-55.607
 L 7.5,-55.58 z
M 201.586,-55.607 L 201.077,-55.6875 L 200.58,-55.8208 L 200.099,-56.0054 L 199.64,-56.2392 L 199.208,-56.5196
 L 198.808,-56.8437 L 198.444,-57.2079 L 198.12,-57.6081 L 197.839,-58.04 L 197.605,-58.4989 L 197.421,-58.9796
 L 197.288,-59.4771 L 197.207,-59.9857 L 197.18,-60.5 L 197.207,-61.0143 L 197.288,-61.5229 L 197.421,-62.0204
 L 197.605,-62.5011 L 197.839,-62.96 L 198.12,-63.3919 L 198.444,-63.7921 L 198.808,-64.1563 L 199.208,-64.4804
 L 199.55,-64.7024 L 199.55,-74 L 199.606,-74.5302 L 199.77,-75.0372 L 200.037,-75.4988 L 200.394,-75.895
 L 200.825,-76.2084 L 201.312,-76.4252 L 201.833,-76.536 L 202.367,-76.536 L 202.888,-76.4252 L 203.375,-76.2084
 L 203.806,-75.895 L 204.163,-75.4988 L 204.43,-75.0372 L 204.594,-74.5302 L 204.65,-74 L 204.65,-64.7024
 L 204.992,-64.4804 L 205.392,-64.1563 L 205.756,-63.7921 L 206.08,-63.3919 L 206.361,-62.96 L 206.595,-62.5011
 L 206.779,-62.0204 L 206.912,-61.5229 L 206.993,-61.0143 L 207.02,-60.5 L 206.993,-59.9857 L 206.912,-59.4771
 L 206.779,-58.9796 L 206.595,-58.4989 L 206.361,-58.04 L 206.08,-57.6081 L 205.756,-57.2079 L 205.392,-56.8437
 L 204.992,-56.5196 L 204.56,-56.2392 L 204.101,-56.0054 L 203.62,-55.8208 L 203.123,-55.6875 L 202.614,-55.607
 L 202.1,-55.58 z
M 396.186,-55.607 L 395.677,-55.6875 L 395.18,-55.8208 L 394.699,-56.0054 L 394.24,-56.2392 L 393.808,-56.5196
 L 393.408,-56.8437 L 393.044,-57.2079 L 392.72,-57.6081 L 392.439,-58.04 L 392.205,-58.4989 L 392.021,-58.9796
 L 391.888,-59.4771 L 391.807,-59.9857 L 391.78,-60.5 L 391.807,-61.0143 L 391.888,-61.5229 L 392.021,-62.0204
 L 392.205,-62.5011 L 392.439,-62.96 L 392.72,-63.3919 L 393.044,-63.7921 L 393.408,-64.1563 L 393.808,-64.4804
 L 394.15,-64.7024 L 394.15,-74 L 394.206,-74.5302 L 394.37,-75.0372 L 394.637,-75.4988 L 394.994,-75.895
 L 395.425,-76.2084 L 395.912,-76.4252 L 396.433,-76.536 L 396.967,-76.536 L 397.488,-76.4252 L 397.975,-76.2084
 L 398.406,-75.895 L 398.763,-75.4988 L 399.03,-75.0372 L 399.194,-74.5302 L 399.25,-74 L 399.25,-64.7024
 L 399.592,-64.4804 L 399.992,-64.1563 L 400.356,-63.7921 L 400.68,-63.3919 L 400.961,-62.96 L 401.195,-62.5011
 L 401.379,-62.0204 L 401.512,-61.5229 L 401.593,-61.0143 L 401.62,-60.5 L 401.593,-59.9857 L 401.512,-59.4771
 L 401.379,-58.9796 L 401.195,-58.4989 L 400.961,-58.04 L 400.68,-57.6081 L 400.356,-57.2079 L 399.992,-56.8437
 L 399.592,-56.5196 L 399.16,-56.2392 L 398.701,-56.0054 L 398.22,-55.8208 L 397.723,-55.6875 L 397.214,-55.607
 L 396.7,-55.58 z
M 590.786,-55.607 L 590.277,-55.6875 L 589.78,-55.8208 L 589.299,-56.0054 L 588.84,-56.2392 L 588.408,-56.5196
 L 588.008,-56.8437 L 587.644,-57.2079 L 587.32,-57.6081 L 587.039,-58.04 L 586.805,-58.4989 L 586.621,-58.9796
 L 586.488,-59.4771 L 586.407,-59.9857 L 586.38,-60.5 L 586.407,-61.0143 L 586.488,-61.5229 L 586.621,-62.0204
 L 586.805,-62.5011 L 587.039,-62.96 L 587.32,-63.3919 L 587.644,-63.7921 L 588.008,-64.1563 L 588.408,-64.4804
 L 588.75,-64.7024 L 588.75,-74 L 588.806,-74.5302 L 588.97,-75.0372 L 589.237,-75.4988 L 589.594,-75.895
 L 590.025,-76.2084 L 590.512,-76.4252 L 591.033,-76.536 L 591.567,-76.536 L 592.088,-76.4252 L 592.575,-76.2084
 L 593.006,-75.895 L 593.363,-75.4988 L 593.63,-75.0372 L 593.794,-74.5302 L 593.85,-74 L 593.85,-64.7024
 L 594.192,-64.4804 L 594.592,-64.1563 L 594.956,-63.7921 L 595.28,-63.3919 L 595.561,-62.96 L 595.795,-62.5011
 L 595.979,-62.0204 L 596.112,-61.5229 L 596.193,-61.0143 L 596.22,-60.5 L 596.193,-59.9857 L 596.112,-59.4771
 L 595.979,-58.9796 L 595.795,-58.4989 L 595.561,-58.04 L 595.28,-57.6081 L 594.956,-57.2079 L 594.592,-56.8437
 L 594.192,-56.5196 L 593.76,-56.2392 L 593.301,-56.0054 L 592.82,-55.8208 L 592.323,-55.6875 L 591.814,-55.607
 L 591.3,-55.58 z
M 785.386,-55.607 L 784.877,-55.6875 L 784.38,-55.8208 L 783.899,-56.0054 L 783.44,-56.2392 L 783.008,-56.5196
 L 782.608,-56.8437 L 782.244,-57.2079 L 781.92,-57.6081 L 781.639,-58.04 L 781.405,-58.4989 L 781.221,-58.9796
 L 781.088,-59.4771 L 781.007,-59.9857 L 780.98,-60.5 L 781.007,-61.0143 L 781.088,-61.5229 L 781.221,-62.0204
 L 781.405,-62.5011 L 781.639,-62.96 L 781.92,-63.3919 L 782.244,-63.7921 L 782.608,-64.1563 L 783.008,-64.4804
 L 783.35,-64.7024 L 783.35,-74 L 783.406,-74.5302 L 783.57,-75.0372 L 783.837,-75.4988 L 784.194,-75.895
 L 784.625,-76.2084 L 785.112,-76.4252 L 785.633,-76.536 L 786.167,-76.536 L 786.688,-76.4252 L 787.175,-76.2084
 L 787.606,-75.895 L 787.963,-75.4988 L 788.23,-75.0372 L 788.394,-74.5302 L 788.45,-74 L 788.45,-64.7024
 L 788.792,-64.4804 L 789.192,-64.1563 L 789.556,-63.7921 L 789.88,-63.3919 L 790.161,-62.96 L 790.395,-62.5011
 L 790.579,-62.0204 L 790.712,-61.5229 L 790.793,-61.0143 L 790.82,-60.5 L 790.793,-59.9857 L 790.712,-59.4771
 L 790.579,-58.9796 L 790.395,-58.4989 L 790.161,-58.04 L 789.88,-57.6081 L 789.556,-57.2079 L 789.192,-56.8437
 L 788.792,-56.5196 L 788.36,-56.2392 L 787.901,-56.0054 L 787.42,-55.8208 L 786.923,-55.6875 L 786.414,-55.607
 L 785.9,-55.58 z
M 979.986,-55.607 L 979.477,-55.6875 L 978.98,-55.8208 L 978.499,-56.0054 L 978.04,-56.2392 L 977.608,-56.5196
 L 977.208,-56.8437 L 976.844,-57.2079 L 976.52,-57.6081 L 976.239,-58.04 L 976.005,-58.4989 L 975.821,-58.9796
 L 975.688,-59.4771 L 975.607,-59.9857 L 975.58,-60.5 L 975.607,-61.0143 L 975.688,-61.5229 L 975.821,-62.0204
 L 976.005,-62.5011 L 976.239,-62.96 L 976.52,-63.3919 L 976.844,-63.7921 L 977.208,-64.1563 L 977.608,-64.4804
 L 977.95,-64.7024 L 977.95,-74 L 978.006,-74.5302 L 978.17,-75.0372 L 978.437,-75.4988 L 978.794,-75.895
 L 979.225,-76.2084 L 979.712,-76.4252 L 980.233,-76.536 L 980.767,-76.536 L 981.288,-76.4252 L 981.775,-76.2084
 L 982.206,-75.895 L 982.563,-75.4988 L 982.83,-75.0372 L 982.994,-74.5302 L 983.05,-74 L 983.05,-64.7024
 L 983.392,-64.4804 L 983.792,-64.1563 L 984.156,-63.7921 L 984.48,-63.3919 L 984.761,-62.96 L 984.995,-62.5011
 L 985.179,-62.0204 L 985.312,-61.5229 L 985.393,-61.0143 L 985.42,-60.5 L 985.393,-59.9857 L 985.312,-59.4771
 L 985.179,-58.9796 L 984.995,-58.4989 L 984.761,-58.04 L 984.48,-57.6081 L 984.156,-57.2079 L 983.792,-56.8437
 L 983.392,-56.5196 L 982.96,-56.2392 L 982.501,-56.0054 L 982.02,-55.8208 L 981.523,-55.6875 L 981.014,-55.607
 L 980.5,-55.58 z
M 493.494,-47.6815 L 492.68,-47.8733 L 474.507,-54.2239 L 473.475,-54.7639 L 472.854,-55.3235 L 472.362,-56
 L 472.022,-56.7639 L 471.848,-57.5819 L 471.848,-58.4181 L 472.022,-59.2361 L 472.362,-60 L 472.854,-60.6765
 L 473.475,-61.2361 L 474.199,-61.6542 L 474.994,-61.9126 L 475.826,-62 L 512.174,-62 L 513.326,-61.8305
 L 514.097,-61.5073 L 514.784,-61.0308 L 515.357,-60.4218 L 515.791,-59.707 L 516.067,-58.9176 L 516.173,-58.088
 L 516.104,-57.2547 L 515.863,-56.4539 L 515.461,-55.7207 L 514.915,-55.0871 L 514.25,-54.5808 L 513.493,-54.2239
 L 495.319,-47.8733 L 494.33,-47.6631 z
M 383.194,-20.3422 L 382.38,-20.534 L 285.968,-54.2239 L 284.936,-54.7639 L 284.315,-55.3235 L 283.823,-56
 L 283.483,-56.7639 L 283.309,-57.5819 L 283.309,-58.4181 L 283.483,-59.2361 L 283.823,-60 L 284.315,-60.6765
 L 284.936,-61.2361 L 285.661,-61.6542 L 286.456,-61.9126 L 287.288,-62 L 383.7,-62 L 384.936,-61.8042
 L 385.7,-61.4641 L 386.377,-60.9726 L 386.936,-60.3511 L 387.354,-59.627 L 387.613,-58.8316 L 387.7,-58
 L 387.7,-24.3101 L 387.593,-23.3926 L 387.317,-22.6031 L 386.884,-21.8883 L 386.31,-21.2794 L 385.623,-20.8029
 L 384.852,-20.4796 L 384.03,-20.3238 z
M 797.748,-20.4796 L 796.977,-20.8029 L 796.29,-21.2794 L 795.716,-21.8883 L 795.283,-22.6031 L 795.007,-23.3926
 L 794.9,-24.3101 L 794.9,-58 L 794.987,-58.8316 L 795.246,-59.627 L 795.664,-60.3511 L 796.223,-60.9726
 L 796.9,-61.4641 L 797.664,-61.8042 L 798.9,-62 L 895.312,-62 L 896.144,-61.9126 L 896.939,-61.6542
 L 897.664,-61.2361 L 898.285,-60.6765 L 898.777,-60 L 899.117,-59.2361 L 899.291,-58.4181 L 899.291,-57.5819
 L 899.117,-56.7639 L 898.777,-56 L 898.285,-55.3235 L 897.664,-54.7639 L 896.632,-54.2239 L 800.22,-20.534
 L 799.406,-20.3422 L 798.57,-20.3238 z
M 188.594,-20.3422 L 187.78,-20.534 L 91.368,-54.2239 L 90.3364,-54.7639 L 89.7149,-55.3235 L 89.2234,-56
 L 88.8833,-56.7639 L 88.7094,-57.5819 L 88.7094,-58.4181 L 88.8833,-59.2361 L 89.2234,-60 L 89.7149,-60.6765
 L 90.3364,-61.2361 L 91.0606,-61.6542 L 91.8559,-61.9126 L 92.6875,-62 L 189.1,-62 L 190.336,-61.8042
 L 191.1,-61.4641 L 191.777,-60.9726 L 192.336,-60.3511 L 192.754,-59.627 L 193.013,-58.8316 L 193.1,-58
 L 193.1,-24.3101 L 192.993,-23.3926 L 192.717,-22.6031 L 192.284,-21.8883 L 191.71,-21.2794 L 191.023,-20.8029
 L 190.252,-20.4796 L 189.43,-20.3238 z
M 603.148,-20.4796 L 602.377,-20.8029 L 601.69,-21.2794 L 601.116,-21.8883 L 600.683,-22.6031 L 600.407,-23.3926
 L 600.3,-24.3101 L 600.3,-58 L 600.387,-58.8316 L 600.646,-59.627 L 601.064,-60.3511 L 601.623,-60.9726
 L 602.3,-61.4641 L 603.064,-61.8042 L 604.3,-62 L 700.712,-62 L 701.544,-61.9126 L 702.339,-61.6542
 L 703.064,-61.2361 L 703.685,-60.6765 L 704.177,-60 L 704.517,-59.2361 L 704.691,-58.4181 L 704.691,-57.5819
 L 704.517,-56.7639 L 704.177,-56 L 703.685,-55.3235 L 703.064,-54.7639 L 702.032,-54.2239 L 605.62,-20.534
 L 604.806,-20.3422 L 603.97,-20.3238 z
M 409.282,-18.214 L 408.464,-18.3878 L 407.7,-18.728 L 407.023,-19.2195 L 406.464,-19.8409 L 406.046,-20.5651
 L 405.787,-21.3604 L 405.7,-22.1921 L 405.7,-57.8079 L 405.807,-58.7255 L 406.083,-59.5149 L 406.516,-60.2297
 L 407.09,-60.8387 L 407.777,-61.3152 L 408.548,-61.6384 L 409.37,-61.7943 L 410.206,-61.7759 L 411.02,-61.584
 L 461.982,-43.7761 L 462.585,-43.5073 L 463.273,-43.0308 L 463.846,-42.4218 L 464.28,-41.707 L 464.555,-40.9176
 L 464.661,-40.088 L 464.592,-39.2547 L 464.351,-38.4539 L 463.949,-37.7207 L 463.403,-37.0871 L 462.738,-36.5808
 L 461.982,-36.2239 L 411.02,-18.416 L 410.118,-18.214 z
M 577.794,-18.2241 L 576.98,-18.416 L 526.018,-36.2239 L 525.415,-36.4927 L 524.727,-36.9692 L 524.154,-37.5782
 L 523.72,-38.293 L 523.444,-39.0824 L 523.339,-39.912 L 523.408,-40.7453 L 523.649,-41.5461 L 524.051,-42.2793
 L 524.597,-42.9129 L 525.262,-43.4192 L 526.018,-43.7761 L 576.98,-61.584 L 577.882,-61.786 L 578.718,-61.786
 L 579.536,-61.6122 L 580.3,-61.272 L 580.977,-60.7805 L 581.536,-60.1591 L 581.954,-59.4349 L 582.213,-58.6396
 L 582.3,-57.808 L 582.3,-22.192 L 582.193,-21.2745 L 581.917,-20.4851 L 581.484,-19.7702 L 580.91,-19.1613
 L 580.223,-18.6848 L 579.452,-18.3615 L 578.63,-18.2057 z
M 215.1,-18 L 213.864,-18.1958 L 213.1,-18.5359 L 212.423,-19.0274 L 211.864,-19.6489 L 211.446,-20.373
 L 211.187,-21.1684 L 211.1,-22 L 211.1,-55.6898 L 211.207,-56.6074 L 211.482,-57.3968 L 211.916,-58.1116
 L 212.49,-58.7206 L 213.177,-59.1971 L 213.948,-59.5204 L 214.77,-59.6762 L 215.606,-59.6578 L 216.419,-59.4659
 L 312.832,-25.7761 L 313.864,-25.2361 L 314.485,-24.6765 L 314.977,-24 L 315.317,-23.2361 L 315.491,-22.4181
 L 315.491,-21.5819 L 315.317,-20.7639 L 314.977,-20 L 314.485,-19.3235 L 313.864,-18.7639 L 313.139,-18.3458
 L 312.344,-18.0874 L 311.512,-18 z
M 676.488,-18 L 675.656,-18.0874 L 674.861,-18.3458 L 674.136,-18.7639 L 673.515,-19.3235 L 673.023,-20
 L 672.683,-20.7639 L 672.509,-21.5819 L 672.509,-22.4181 L 672.683,-23.2361 L 673.023,-24 L 673.515,-24.6765
 L 674.136,-25.2361 L 675.168,-25.7761 L 771.58,-59.4659 L 772.394,-59.6578 L 773.23,-59.6762 L 774.052,-59.5204
 L 774.823,-59.1971 L 775.51,-58.7206 L 776.084,-58.1116 L 776.517,-57.3968 L 776.793,-56.6074 L 776.9,-55.6898
 L 776.9,-22 L 776.813,-21.1684 L 776.554,-20.373 L 776.136,-19.6489 L 775.577,-19.0274 L 774.9,-18.5359
 L 774.136,-18.1958 L 772.9,-18 z
M 22,-18 L 20.7639,-18.1958 L 20,-18.5359 L 19.3235,-19.0274 L 18.7639,-19.6489 L 18.3458,-20.373
 L 18.0874,-21.1684 L 18,-22 L 18,-55.1657 L 18.1067,-56.0833 L 18.3825,-56.8727 L 18.8165,-57.5875
 L 19.3896,-58.1965 L 20.0767,-58.673 L 20.848,-58.9962 L 21.6695,-59.152 L 22.5056,-59.1336 L 23.3195,-58.9418
 L 118.232,-25.7761 L 119.264,-25.2361 L 119.885,-24.6765 L 120.377,-24 L 120.717,-23.2361 L 120.891,-22.4181
 L 120.891,-21.5819 L 120.717,-20.7639 L 120.377,-20 L 119.885,-19.3235 L 119.264,-18.7639 L 118.539,-18.3458
 L 117.744,-18.0874 L 116.912,-18 z
M 871.088,-18 L 870.256,-18.0874 L 869.461,-18.3458 L 868.736,-18.7639 L 868.115,-19.3235 L 867.623,-20
 L 867.283,-20.7639 L 867.109,-21.5819 L 867.109,-22.4181 L 867.283,-23.2361 L 867.623,-24 L 868.115,-24.6765
 L 868.736,-25.2361 L 869.768,-25.7761 L 964.68,-58.9418 L 965.494,-59.1336 L 966.33,-59.152 L 967.152,-58.9962
 L 967.923,-58.673 L 968.61,-58.1965 L 969.184,-57.5875 L 969.617,-56.8727 L 969.893,-56.0833 L 970,-55.1657
 L 970,-22 L 969.913,-21.1684 L 969.654,-20.373 L 969.236,-19.6489 L 968.677,-19.0274 L 968,-18.5359
 L 967.236,-18.1958 L 966,-18 z
M 475.826,-18 L 474.674,-18.1695 L 473.903,-18.4927 L 473.216,-18.9692 L 472.643,-19.5782 L 472.209,-20.293
 L 471.933,-21.0824 L 471.827,-21.912 L 471.896,-22.7453 L 472.137,-23.5461 L 472.539,-24.2793 L 473.085,-24.9129
 L 473.75,-25.4192 L 474.507,-25.7761 L 492.68,-32.1267 L 493.67,-32.3369 L 494.506,-32.3185 L 495.319,-32.1267
 L 513.493,-25.7761 L 514.525,-25.2361 L 515.146,-24.6765 L 515.638,-24 L 515.978,-23.2361 L 516.152,-22.4181
 L 516.152,-21.5819 L 515.978,-20.7639 L 515.638,-20 L 515.146,-19.3235 L 514.525,-18.7639 L 513.801,-18.3458
 L 513.006,-18.0874 L 512.174,-18 z
" stroke="black" fill="lightgray" stroke-width="0.5"/>
</svg>
