<?xml version="1.0" standalone="no"?>
<!DOCTYPE svg PUBLIC "-//W3C//DTD SVG 1.1//EN" "http://www.w3.org/Graphics/SVG/1.1/DTD/svg11.dtd">
<svg width="538mm" height="80mm" viewBox="0 -80 538 80" xmlns="http://www.w3.org/2000/svg" version="1.1">
<title>OpenSCAD Model</title>
<path d="
M 538,-80 L 0,-80 L 0,-0 L 4.95,-0 L 4.95,-6 L 5.00572,-6.53017
 L 5.17046,-7.03717 L 5.437,-7.49884 L 5.79372,-7.895 L 6.22499,-8.20836 L 6.71201,-8.42519 L 7.23344,-8.53603
 L 7.76654,-8.53603 L 8.28798,-8.42519 L 8.77499,-8.20836 L 9.20627,-7.895 L 9.56299,-7.49884 L 9.82953,-7.03717
 L 9.99426,-6.53017 L 10.05,-6 L 10.05,-0 L 135.7,-0 L 135.7,-6 L 135.756,-6.53017
 L 135.92,-7.03717 L 136.187,-7.49884 L 136.544,-7.895 L 136.975,-8.20836 L 137.462,-8.42519 L 137.983,-8.53603
 L 138.517,-8.53603 L 139.038,-8.42519 L 139.525,-8.20836 L 139.956,-7.895 L 140.313,-7.49884 L 140.58,-7.03717
 L 140.744,-6.53017 L 140.8,-6 L 140.8,-0 L 266.45,-0 L 266.45,-6 L 266.506,-6.53017
 L 266.67,-7.03717 L 266.937,-7.49884 L 267.294,-7.895 L 267.725,-8.20836 L 268.212,-8.42519 L 268.733,-8.53603
 L 269.267,-8.53603 L 269.788,-8.42519 L 270.275,-8.20836 L 270.706,-7.895 L 271.063,-7.49884 L 271.33,-7.03717
 L 271.494,-6.53017 L 271.55,-6 L 271.55,-0 L 397.2,-0 L 397.2,-6 L 397.256,-6.53017
 L 397.42,-7.03717 L 397.687,-7.49884 L 398.044,-7.895 L 398.475,-8.20836 L 398.962,-8.42519 L 399.483,-8.53603
 L 400.017,-8.53603 L 400.538,-8.42519 L 401.025,-8.20836 L 401.456,-7.895 L 401.813,-7.49884 L 402.08,-7.03717
 L 402.244,-6.53017 L 402.3,-6 L 402.3,-0 L 527.95,-0 L 527.95,-6 L 528.006,-6.53017
 L 528.17,-7.03717 L 528.437,-7.49884 L 528.794,-7.895 L 529.225,-8.20836 L 529.712,-8.42519 L 530.233,-8.53603
 L 530.767,-8.53603 L 531.288,-8.42519 L 531.775,-8.20836 L 532.206,-7.895 L 532.563,-7.49884 L 532.83,-7.03717
 L 532.994,-6.53017 L 533.05,-6 L 533.05,-0 L 538,-0 z
M 6.98573,-55.607 L 6.47708,-55.6875 L 5.97964,-55.8208 L 5.49887,-56.0054 L 5.04001,-56.2392 L 4.60811,-56.5196
 L 4.20789,-56.8437 L 3.84373,-57.2079 L 3.51964,-57.6081 L 3.23917,-58.04 L 3.00537,-58.4989 L 2.82082,-58.9796
 L 2.68752,-59.4771 L 2.60696,-59.9857 L 2.58,-60.5 L 2.60696,-61.0143 L 2.68752,-61.5229 L 2.82082,-62.0204
 L 3.00537,-62.5011 L 3.23917,-62.96 L 3.51964,-63.3919 L 3.84373,-63.7921 L 4.20789,-64.1563 L 4.60811,-64.4804
 L 4.95001,-64.7024 L 4.95001,-74 L 5.00574,-74.5302 L 5.17047,-75.0372 L 5.43701,-75.4988 L 5.79373,-75.895
 L 6.22501,-76.2084 L 6.71202,-76.4252 L 7.23346,-76.536 L 7.76654,-76.536 L 8.28798,-76.4252 L 8.77499,-76.2084
 L 9.20627,-75.895 L 9.56299,-75.4988 L 9.82953,-75.0372 L 9.99426,-74.5302 L 10.05,-74 L 10.05,-64.7024
 L 10.3919,-64.4804 L 10.7921,-64.1563 L 11.1563,-63.7921 L 11.4804,-63.3919 L 11.7608,-62.96 L 11.9946,-62.5011
 L 12.1792,-62.0204 L 12.3125,-61.5229 L 12.393,-61.0143 L 12.42,-60.5 L 12.393,-59.9857 L 12.3125,-59.4771
 L 12.1792,-58.9796 L 11.9946,-58.4989 L 11.7608,-58.04 L 11.4804,-57.6081 L 11.1563,-57.2079 L 10.7921,-56.8437
 L 10.3919,-56.5196 L 9.95999,-56.2392 L 9.50113,-56.0054 L 9.02036,-55.8208 L 8.52292,-55.6875 L 8.01427,-55.607
 L 7.5,-55.58 z
M 137.736,-55.607 L 137.227,-55.6875 L 136.73,-55.8208 L 136.249,-56.0054 L 135.79,-56.2392 L 135.358,-56.5196
 L 134.958,-56.8437 L 134.594,-57.2079 L 134.27,-57.6081 L 133.989,-58.04 L 133.755,-58.4989 L 133.571,-58.9796
 L 133.438,-59.4771 L 133.357,-59.9857 L 133.33,-60.5 L 133.357,-61.0143 L 133.438,-61.5229 L 133.571,-62.0204
 L 133.755,-62.5011 L 133.989,-62.96 L 134.27,-63.3919 L 134.594,-63.7921 L 134.958,-64.1563 L 135.358,-64.4804
 L 135.7,-64.7024 L 135.7,-74 L 135.756,-74.5302 L 135.92,-75.0372 L 136.187,-75.4988 L 136.544,-75.895
 L 136.975,-76.2084 L 137.462,-76.4252 L 137.983,-76.536 L 138.517,-76.536 L 139.038,-76.4252 L 139.525,-76.2084
 L 139.956,-75.895 L 140.313,-75.4988 L 140.58,-75.0372 L 140.744,-74.5302 L 140.8,-74 L 140.8,-64.7024
 L 141.142,-64.4804 L 141.542,-64.1563 L 141.906,-63.7921 L 142.23,-63.3919 L 142.511,-62.96 L 142.745,-62.5011
 L 142.929,-62.0204 L 143.062,-61.5229 L 143.143,-61.0143 L 143.17,-60.5 L 143.143,-59.9857 L 143.062,-59.4771
 L 142.929,-58.9796 L 142.745,-58.4989 L 142.511,-58.04 L 142.23,-57.6081 L 141.906,-57.2079 L 141.542,-56.8437
 L 141.142,-56.5196 L 140.71,-56.2392 L 140.251,-56.0054 L 139.77,-55.8208 L 139.273,-55.6875 L 138.764,-55.607
 L 138.25,-55.58 z
M 268.486,-55.607 L 267.977,-55.6875 L 267.48,-55.8208 L 266.999,-56.0054 L 266.54,-56.2392 L 266.108,-56.5196
 L 265.708,-56.8437 L 265.344,-57.2079 L 265.02,-57.6081 L 264.739,-58.04 L 264.505,-58.4989 L 264.321,-58.9796
 L 264.188,-59.4771 L 264.107,-59.9857 L 264.08,-60.5 L 264.107,-61.0143 L 264.188,-61.5229 L 264.321,-62.0204
 L 264.505,-62.5011 L 264.739,-62.96 L 265.02,-63.3919 L 265.344,-63.7921 L 265.708,-64.1563 L 266.108,-64.4804
 L 266.45,-64.7024 L 266.45,-74 L 266.506,-74.5302 L 266.67,-75.0372 L 266.937,-75.4988 L 267.294,-75.895
 L 267.725,-76.2084 L 268.212,-76.4252 L 268.733,-76.536 L 269.267,-76.536 L 269.788,-76.4252 L 270.275,-76.2084
 L 270.706,-75.895 L 271.063,-75.4988 L 271.33,-75.0372 L 271.494,-74.5302 L 271.55,-74 L 271.55,-64.7024
 L 271.892,-64.4804 L 272.292,-64.1563 L 272.656,-63.7921 L 272.98,-63.3919 L 273.261,-62.96 L 273.495,-62.5011
 L 273.679,-62.0204 L 273.812,-61.5229 L 273.893,-61.0143 L 273.92,-60.5 L 273.893,-59.9857 L 273.812,-59.4771
 L 273.679,-58.9796 L 273.495,-58.4989 L 273.261,-58.04 L 272.98,-57.6081 L 272.656,-57.2079 L 272.292,-56.8437
 L 271.892,-56.5196 L 271.46,-56.2392 L 271.001,-56.0054 L 270.52,-55.8208 L 270.023,-55.6875 L 269.514,-55.607
 L 269,-55.58 z
M 399.236,-55.607 L 398.727,-55.6875 L 398.23,-55.8208 L 397.749,-56.0054 L 397.29,-56.2392 L 396.858,-56.5196
 L 396.458,-56.8437 L 396.094,-57.2079 L 395.77,-57.6081 L 395.489,-58.04 L 395.255,-58.4989 L 395.071,-58.9796
 L 394.938,-59.4771 L 394.857,-59.9857 L 394.83,-60.5 L 394.857,-61.0143 L 394.938,-61.5229 L 395.071,-62.0204
 L 395.255,-62.5011 L 395.489,-62.96 L 395.77,-63.3919 L 396.094,-63.7921 L 396.458,-64.1563 L 396.858,-64.4804
 L 397.2,-64.7024 L 397.2,-74 L 397.256,-74.5302 L 397.42,-75.0372 L 397.687,-75.4988 L 398.044,-75.895
 L 398.475,-76.2084 L 398.962,-76.4252 L 399.483,-76.536 L 400.017,-76.536 L 400.538,-76.4252 L 401.025,-76.2084
 L 401.456,-75.895 L 401.813,-75.4988 L 402.08,-75.0372 L 402.244,-74.5302 L 402.3,-74 L 402.3,-64.7024
 L 402.642,-64.4804 L 403.042,-64.1563 L 403.406,-63.7921 L 403.73,-63.3919 L 404.011,-62.96 L 404.245,-62.5011
 L 404.429,-62.0204 L 404.562,-61.5229 L 404.643,-61.0143 L 404.67,-60.5 L 404.643,-59.9857 L 404.562,-59.4771
 L 404.429,-58.9796 L 404.245,-58.4989 L 404.011,-58.04 L 403.73,-57.6081 L 403.406,-57.2079 L 403.042,-56.8437
 L 402.642,-56.5196 L 402.21,-56.2392 L 401.751,-56.0054 L 401.27,-55.8208 L 400.773,-55.6875 L 400.264,-55.607
 L 399.75,-55.58 z
M 529.986,-55.607 L 529.477,-55.6875 L 528.98,-55.8208 L 528.499,-56.0054 L 528.04,-56.2392 L 527.608,-56.5196
 L 527.208,-56.8437 L 526.844,-57.2079 L 526.52,-57.6081 L 526.239,-58.04 L 526.005,-58.4989 L 525.821,-58.9796
 L 525.688,-59.4771 L 525.607,-59.9857 L 525.58,-60.5 L 525.607,-61.0143 L 525.688,-61.5229 L 525.821,-62.0204
 L 526.005,-62.5011 L 526.239,-62.96 L 526.52,-63.3919 L 526.844,-63.7921 L 527.208,-64.1563 L 527.608,-64.4804
 L 527.95,-64.7024 L 527.95,-74 L 528.006,-74.5302 L 528.17,-75.0372 L 528.437,-75.4988 L 528.794,-75.895
 L 529.225,-76.2084 L 529.712,-76.4252 L 530.233,-76.536 L 530.767,-76.536 L 531.288,-76.4252 L 531.775,-76.2084
 L 532.206,-75.895 L 532.563,-75.4988 L 532.83,-75.0372 L 532.994,-74.5302 L 533.05,-74 L 533.05,-64.7024
 L 533.392,-64.4804 L 533.792,-64.1563 L 534.156,-63.7921 L 534.48,-63.3919 L 534.761,-62.96 L 534.995,-62.5011
 L 535.179,-62.0204 L 535.312,-61.5229 L 535.393,-61.0143 L 535.42,-60.5 L 535.393,-59.9857 L 535.312,-59.4771
 L 535.179,-58.9796 L 534.995,-58.4989 L 534.761,-58.04 L 534.48,-57.6081 L 534.156,-57.2079 L 533.792,-56.8437
 L 533.392,-56.5196 L 532.96,-56.2392 L 532.501,-56.0054 L 532.02,-55.8208 L 531.523,-55.6875 L 531.014,-55.607
 L 530.5,-55.58 z
M 281.407,-23.444 L 280.598,-23.6537 L 279.85,-24.0271 L 279.195,-24.5479 L 278.664,-25.1933 L 278.278,-25.9352
 L 278.055,-26.7411 L 278,-27.3998 L 278,-58 L 278.087,-58.8316 L 278.346,-59.627 L 278.764,-60.3511
 L 279.323,-60.9726 L 280,-61.4641 L 280.764,-61.8042 L 282,-62 L 340.838,-62 L 341.67,-61.9126
 L 342.465,-61.6542 L 343.189,-61.2361 L 343.81,-60.6765 L 344.302,-60 L 344.642,-59.2361 L 344.816,-58.4181
 L 344.816,-57.5819 L 344.642,-56.7639 L 344.302,-56 L 343.81,-55.3235 L 343.189,-54.7639 L 342.684,-54.4512
 L 283.846,-23.8511 L 283.067,-23.5449 L 282.243,-23.4072 z
M 254.933,-23.5449 L 254.154,-23.8511 L 195.316,-54.4512 L 194.811,-54.7639 L 194.19,-55.3235 L 193.698,-56
 L 193.358,-56.7639 L 193.184,-57.5819 L 193.184,-58.4181 L 193.358,-59.2361 L 193.698,-60 L 194.19,-60.6765
 L 194.811,-61.2361 L 195.535,-61.6542 L 196.33,-61.9126 L 197.162,-62 L 256,-62 L 257.236,-61.8042
 L 258,-61.4641 L 258.677,-60.9726 L 259.236,-60.3511 L 259.654,-59.627 L 259.913,-58.8316 L 260,-58
 L 260,-27.3998 L 259.945,-26.7411 L 259.722,-25.9352 L 259.336,-25.1933 L 258.805,-24.5479 L 258.15,-24.0271
 L 257.402,-23.6537 L 256.593,-23.444 L 255.757,-23.4072 z
M 412.157,-23.444 L 411.348,-23.6537 L 410.6,-24.0271 L 409.945,-24.5479 L 409.414,-25.1933 L 409.028,-25.9352
 L 408.805,-26.7411 L 408.75,-27.3998 L 408.75,-58 L 408.837,-58.8316 L 409.096,-59.627 L 409.514,-60.3511
 L 410.073,-60.9726 L 410.75,-61.4641 L 411.514,-61.8042 L 412.75,-62 L 471.588,-62 L 472.42,-61.9126
 L 473.215,-61.6542 L 473.939,-61.2361 L 474.56,-60.6765 L 475.052,-60 L 475.392,-59.2361 L 475.566,-58.4181
 L 475.566,-57.5819 L 475.392,-56.7639 L 475.052,-56 L 474.56,-55.3235 L 473.939,-54.7639 L 473.434,-54.4512
 L 414.596,-23.8511 L 413.817,-23.5449 L 412.993,-23.4072 z
M 124.183,-23.5449 L 123.404,-23.8511 L 64.5665,-54.4512 L 64.061,-54.7639 L 63.4395,-55.3235 L 62.948,-56
 L 62.6079,-56.7639 L 62.434,-57.5819 L 62.434,-58.4181 L 62.6079,-59.2361 L 62.948,-60 L 63.4395,-60.6765
 L 64.061,-61.2361 L 64.7852,-61.6542 L 65.5805,-61.9126 L 66.4121,-62 L 125.25,-62 L 126.486,-61.8042
 L 127.25,-61.4641 L 127.927,-60.9726 L 128.486,-60.3511 L 128.904,-59.627 L 129.163,-58.8316 L 129.25,-58
 L 129.25,-27.3998 L 129.195,-26.7411 L 128.972,-25.9352 L 128.586,-25.1933 L 128.055,-24.5479 L 127.4,-24.0271
 L 126.652,-23.6537 L 125.843,-23.444 L 125.007,-23.4072 z
M 327.912,-18 L 327.08,-18.0874 L 326.285,-18.3458 L 325.561,-18.7639 L 324.94,-19.3235 L 324.448,-20
 L 324.108,-20.7639 L 323.934,-21.5819 L 323.934,-22.4181 L 324.108,-23.2361 L 324.448,-24 L 324.94,-24.6765
 L 325.561,-25.2361 L 326.067,-25.5488 L 384.904,-56.1489 L 385.683,-56.4551 L 386.507,-56.5928 L 387.343,-56.556
 L 388.152,-56.3463 L 388.9,-55.9729 L 389.555,-55.4521 L 390.086,-54.8066 L 390.472,-54.0647 L 390.695,-53.2588
 L 390.75,-52.6002 L 390.75,-22 L 390.663,-21.1684 L 390.404,-20.373 L 389.986,-19.6489 L 389.427,-19.0274
 L 388.75,-18.5359 L 387.986,-18.1958 L 386.75,-18 z
M 151.25,-18 L 150.014,-18.1958 L 149.25,-18.5359 L 148.573,-19.0274 L 148.014,-19.6489 L 147.596,-20.373
 L 147.337,-21.1684 L 147.25,-22 L 147.25,-52.6002 L 147.305,-53.2588 L 147.528,-54.0647 L 147.914,-54.8066
 L 148.445,-55.4521 L 149.1,-55.9729 L 149.848,-56.3463 L 150.657,-56.556 L 151.493,-56.5928 L 152.317,-56.4551
 L 153.096,-56.1489 L 211.933,-25.5488 L 212.439,-25.2361 L 213.06,-24.6765 L 213.552,-24 L 213.892,-23.2361
 L 214.066,-22.4181 L 214.066,-21.5819 L 213.892,-20.7639 L 213.552,-20 L 213.06,-19.3235 L 212.439,-18.7639
 L 211.715,-18.3458 L 210.92,-18.0874 L 210.088,-18 z
M 22,-18 L 20.7639,-18.1958 L 20,-18.5359 L 19.3235,-19.0274 L 18.7639,-19.6489 L 18.3458,-20.373
 L 18.0874,-21.1684 L 18,-22 L 18,-51.8201 L 18.0546,-52.4787 L 18.2778,-53.2846 L 18.6636,-54.0265
 L 19.1953,-54.672 L 19.8495,-55.1928 L 20.5977,-55.5662 L 21.4072,-55.7759 L 22.2426,-55.8127 L 23.0675,-55.675
 L 23.8456,-55.3688 L 81.1835,-25.5488 L 81.689,-25.2361 L 82.3104,-24.6765 L 82.802,-24 L 83.1421,-23.2361
 L 83.3159,-22.4181 L 83.3159,-21.5819 L 83.1421,-20.7639 L 82.802,-20 L 82.3104,-19.3235 L 81.689,-18.7639
 L 80.9648,-18.3458 L 80.1695,-18.0874 L 79.3379,-18 z
M 458.662,-18 L 457.83,-18.0874 L 457.035,-18.3458 L 456.311,-18.7639 L 455.69,-19.3235 L 455.198,-20
 L 454.858,-20.7639 L 454.684,-21.5819 L 454.684,-22.4181 L 454.858,-23.2361 L 455.198,-24 L 455.69,-24.6765
 L 456.311,-25.2361 L 456.817,-25.5488 L 514.154,-55.3688 L 514.933,-55.675 L 515.757,-55.8127 L 516.593,-55.7759
 L 517.402,-55.5662 L 518.15,-55.1928 L 518.805,-54.672 L 519.336,-54.0265 L 519.722,-53.2846 L 519.945,-52.4787
 L 520,-51.8201 L 520,-22 L 519.913,-21.1684 L 519.654,-20.373 L 519.236,-19.6489 L 518.677,-19.0274
 L 518,-18.5359 L 517.236,-18.1958 L 516,-18 z
" stroke="black" fill="lightgray" stroke-width="0.5"/>
</svg>
