<?xml version="1.0" standalone="no"?>
<!DOCTYPE svg PUBLIC "-//W3C//DTD SVG 1.1//EN" "http://www.w3.org/Graphics/SVG/1.1/DTD/svg11.dtd">
<svg width="805mm" height="80mm" viewBox="0 -80 805 80" xmlns="http://www.w3.org/2000/svg" version="1.1">
<title>OpenSCAD Model</title>
<path d="
M 805,-80 L 0,-80 L 0,-0 L 4.95,-0 L 4.95,-6 L 5.00572,-6.53017
 L 5.17046,-7.03717 L 5.437,-7.49884 L 5.79372,-7.895 L 6.22499,-8.20836 L 6.71201,-8.42519 L 7.23344,-8.53603
 L 7.76654,-8.53603 L 8.28798,-8.42519 L 8.77499,-8.20836 L 9.20627,-7.895 L 9.56299,-7.49884 L 9.82953,-7.03717
 L 9.99426,-6.53017 L 10.05,-6 L 10.05,-0 L 162.95,-0 L 162.95,-6 L 163.006,-6.53017
 L 163.17,-7.03717 L 163.437,-7.49884 L 163.794,-7.895 L 164.225,-8.20836 L 164.712,-8.42519 L 165.233,-8.53603
 L 165.767,-8.53603 L 166.288,-8.42519 L 166.775,-8.20836 L 167.206,-7.895 L 167.563,-7.49884 L 167.83,-7.03717
 L 167.994,-6.53017 L 168.05,-6 L 168.05,-0 L 320.95,-0 L 320.95,-6 L 321.006,-6.53017
 L 321.17,-7.03717 L 321.437,-7.49884 L 321.794,-7.895 L 322.225,-8.20836 L 322.712,-8.42519 L 323.233,-8.53603
 L 323.767,-8.53603 L 324.288,-8.42519 L 324.775,-8.20836 L 325.206,-7.895 L 325.563,-7.49884 L 325.83,-7.03717
 L 325.994,-6.53017 L 326.05,-6 L 326.05,-0 L 478.95,-0 L 478.95,-6 L 479.006,-6.53017
 L 479.17,-7.03717 L 479.437,-7.49884 L 479.794,-7.895 L 480.225,-8.20836 L 480.712,-8.42519 L 481.233,-8.53603
 L 481.767,-8.53603 L 482.288,-8.42519 L 482.775,-8.20836 L 483.206,-7.895 L 483.563,-7.49884 L 483.83,-7.03717
 L 483.994,-6.53017 L 484.05,-6 L 484.05,-0 L 636.95,-0 L 636.95,-6 L 637.006,-6.53017
 L 637.17,-7.03717 L 637.437,-7.49884 L 637.794,-7.895 L 638.225,-8.20836 L 638.712,-8.42519 L 639.233,-8.53603
 L 639.767,-8.53603 L 640.288,-8.42519 L 640.775,-8.20836 L 641.206,-7.895 L 641.563,-7.49884 L 641.83,-7.03717
 L 641.994,-6.53017 L 642.05,-6 L 642.05,-0 L 794.95,-0 L 794.95,-6 L 795.006,-6.53017
 L 795.17,-7.03717 L 795.437,-7.49884 L 795.794,-7.895 L 796.225,-8.20836 L 796.712,-8.42519 L 797.233,-8.53603
 L 797.767,-8.53603 L 798.288,-8.42519 L 798.775,-8.20836 L 799.206,-7.895 L 799.563,-7.49884 L 799.83,-7.03717
 L 799.994,-6.53017 L 800.05,-6 L 800.05,-0 L 805,-0 z
M 6.98573,-55.607 L 6.47708,-55.6875 L 5.97964,-55.8208 L 5.49887,-56.0054 L 5.04001,-56.2392 L 4.60811,-56.5196
 L 4.20789,-56.8437 L 3.84373,-57.2079 L 3.51964,-57.6081 L 3.23917,-58.04 L 3.00537,-58.4989 L 2.82082,-58.9796
 L 2.68752,-59.4771 L 2.60696,-59.9857 L 2.58,-60.5 L 2.60696,-61.0143 L 2.68752,-61.5229 L 2.82082,-62.0204
 L 3.00537,-62.5011 L 3.23917,-62.96 L 3.51964,-63.3919 L 3.84373,-63.7921 L 4.20789,-64.1563 L 4.60811,-64.4804
 L 4.95001,-64.7024 L 4.95001,-74 L 5.00574,-74.5302 L 5.17047,-75.0372 L 5.43701,-75.4988 L 5.79373,-75.895
 L 6.22501,-76.2084 L 6.71202,-76.4252 L 7.23346,-76.536 L 7.76654,-76.536 L 8.28798,-76.4252 L 8.77499,-76.2084
 L 9.20627,-75.895 L 9.56299,-75.4988 L 9.82953,-75.0372 L 9.99426,-74.5302 L 10.05,-74 L 10.05,-64.7024
 L 10.3919,-64.4804 L 10.7921,-64.1563 L 11.1563,-63.7921 L 11.4804,-63.3919 L 11.7608,-62.96 L 11.9946,-62.5011
 L 12.1792,-62.0204 L 12.3125,-61.5229 L 12.393,-61.0143 L 12.42,-60.5 L 12.393,-59.9857 L 12.3125,-59.4771
 L 12.1792,-58.9796 L 11.9946,-58.4989 L 11.7608,-58.04 L 11.4804,-57.6081 L 11.1563,-57.2079 L 10.7921,-56.8437
 L 10.3919,-56.5196 L 9.95999,-56.2392 L 9.50113,-56.0054 L 9.02036,-55.8208 L 8.52292,-55.6875 L 8.01427,-55.607
 L 7.5,-55.58 z
M 164.986,-55.607 L 164.477,-55.6875 L 163.98,-55.8208 L 163.499,-56.0054 L 163.04,-56.2392 L 162.608,-56.5196
 L 162.208,-56.8437 L 161.844,-57.2079 L 161.52,-57.6081 L 161.239,-58.04 L 161.005,-58.4989 L 160.821,-58.9796
 L 160.688,-59.4771 L 160.607,-59.9857 L 160.58,-60.5 L 160.607,-61.0143 L 160.688,-61.5229 L 160.821,-62.0204
 L 161.005,-62.5011 L 161.239,-62.96 L 161.52,-63.3919 L 161.844,-63.7921 L 162.208,-64.1563 L 162.608,-64.4804
 L 162.95,-64.7024 L 162.95,-74 L 163.006,-74.5302 L 163.17,-75.0372 L 163.437,-75.4988 L 163.794,-75.895
 L 164.225,-76.2084 L 164.712,-76.4252 L 165.233,-76.536 L 165.767,-76.536 L 166.288,-76.4252 L 166.775,-76.2084
 L 167.206,-75.895 L 167.563,-75.4988 L 167.83,-75.0372 L 167.994,-74.5302 L 168.05,-74 L 168.05,-64.7024
 L 168.392,-64.4804 L 168.792,-64.1563 L 169.156,-63.7921 L 169.48,-63.3919 L 169.761,-62.96 L 169.995,-62.5011
 L 170.179,-62.0204 L 170.312,-61.5229 L 170.393,-61.0143 L 170.42,-60.5 L 170.393,-59.9857 L 170.312,-59.4771
 L 170.179,-58.9796 L 169.995,-58.4989 L 169.761,-58.04 L 169.48,-57.6081 L 169.156,-57.2079 L 168.792,-56.8437
 L 168.392,-56.5196 L 167.96,-56.2392 L 167.501,-56.0054 L 167.02,-55.8208 L 166.523,-55.6875 L 166.014,-55.607
 L 165.5,-55.58 z
M 322.986,-55.607 L 322.477,-55.6875 L 321.98,-55.8208 L 321.499,-56.0054 L 321.04,-56.2392 L 320.608,-56.5196
 L 320.208,-56.8437 L 319.844,-57.2079 L 319.52,-57.6081 L 319.239,-58.04 L 319.005,-58.4989 L 318.821,-58.9796
 L 318.688,-59.4771 L 318.607,-59.9857 L 318.58,-60.5 L 318.607,-61.0143 L 318.688,-61.5229 L 318.821,-62.0204
 L 319.005,-62.5011 L 319.239,-62.96 L 319.52,-63.3919 L 319.844,-63.7921 L 320.208,-64.1563 L 320.608,-64.4804
 L 320.95,-64.7024 L 320.95,-74 L 321.006,-74.5302 L 321.17,-75.0372 L 321.437,-75.4988 L 321.794,-75.895
 L 322.225,-76.2084 L 322.712,-76.4252 L 323.233,-76.536 L 323.767,-76.536 L 324.288,-76.4252 L 324.775,-76.2084
 L 325.206,-75.895 L 325.563,-75.4988 L 325.83,-75.0372 L 325.994,-74.5302 L 326.05,-74 L 326.05,-64.7024
 L 326.392,-64.4804 L 326.792,-64.1563 L 327.156,-63.7921 L 327.48,-63.3919 L 327.761,-62.96 L 327.995,-62.5011
 L 328.179,-62.0204 L 328.312,-61.5229 L 328.393,-61.0143 L 328.42,-60.5 L 328.393,-59.9857 L 328.312,-59.4771
 L 328.179,-58.9796 L 327.995,-58.4989 L 327.761,-58.04 L 327.48,-57.6081 L 327.156,-57.2079 L 326.792,-56.8437
 L 326.392,-56.5196 L 325.96,-56.2392 L 325.501,-56.0054 L 325.02,-55.8208 L 324.523,-55.6875 L 324.014,-55.607
 L 323.5,-55.58 z
M 480.986,-55.607 L 480.477,-55.6875 L 479.98,-55.8208 L 479.499,-56.0054 L 479.04,-56.2392 L 478.608,-56.5196
 L 478.208,-56.8437 L 477.844,-57.2079 L 477.52,-57.6081 L 477.239,-58.04 L 477.005,-58.4989 L 476.821,-58.9796
 L 476.688,-59.4771 L 476.607,-59.9857 L 476.58,-60.5 L 476.607,-61.0143 L 476.688,-61.5229 L 476.821,-62.0204
 L 477.005,-62.5011 L 477.239,-62.96 L 477.52,-63.3919 L 477.844,-63.7921 L 478.208,-64.1563 L 478.608,-64.4804
 L 478.95,-64.7024 L 478.95,-74 L 479.006,-74.5302 L 479.17,-75.0372 L 479.437,-75.4988 L 479.794,-75.895
 L 480.225,-76.2084 L 480.712,-76.4252 L 481.233,-76.536 L 481.767,-76.536 L 482.288,-76.4252 L 482.775,-76.2084
 L 483.206,-75.895 L 483.563,-75.4988 L 483.83,-75.0372 L 483.994,-74.5302 L 484.05,-74 L 484.05,-64.7024
 L 484.392,-64.4804 L 484.792,-64.1563 L 485.156,-63.7921 L 485.48,-63.3919 L 485.761,-62.96 L 485.995,-62.5011
 L 486.179,-62.0204 L 486.312,-61.5229 L 486.393,-61.0143 L 486.42,-60.5 L 486.393,-59.9857 L 486.312,-59.4771
 L 486.179,-58.9796 L 485.995,-58.4989 L 485.761,-58.04 L 485.48,-57.6081 L 485.156,-57.2079 L 484.792,-56.8437
 L 484.392,-56.5196 L 483.96,-56.2392 L 483.501,-56.0054 L 483.02,-55.8208 L 482.523,-55.6875 L 482.014,-55.607
 L 481.5,-55.58 z
M 638.986,-55.607 L 638.477,-55.6875 L 637.98,-55.8208 L 637.499,-56.0054 L 637.04,-56.2392 L 636.608,-56.5196
 L 636.208,-56.8437 L 635.844,-57.2079 L 635.52,-57.6081 L 635.239,-58.04 L 635.005,-58.4989 L 634.821,-58.9796
 L 634.688,-59.4771 L 634.607,-59.9857 L 634.58,-60.5 L 634.607,-61.0143 L 634.688,-61.5229 L 634.821,-62.0204
 L 635.005,-62.5011 L 635.239,-62.96 L 635.52,-63.3919 L 635.844,-63.7921 L 636.208,-64.1563 L 636.608,-64.4804
 L 636.95,-64.7024 L 636.95,-74 L 637.006,-74.5302 L 637.17,-75.0372 L 637.437,-75.4988 L 637.794,-75.895
 L 638.225,-76.2084 L 638.712,-76.4252 L 639.233,-76.536 L 639.767,-76.536 L 640.288,-76.4252 L 640.775,-76.2084
 L 641.206,-75.895 L 641.563,-75.4988 L 641.83,-75.0372 L 641.994,-74.5302 L 642.05,-74 L 642.05,-64.7024
 L 642.392,-64.4804 L 642.792,-64.1563 L 643.156,-63.7921 L 643.48,-63.3919 L 643.761,-62.96 L 643.995,-62.5011
 L 644.179,-62.0204 L 644.312,-61.5229 L 644.393,-61.0143 L 644.42,-60.5 L 644.393,-59.9857 L 644.312,-59.4771
 L 644.179,-58.9796 L 643.995,-58.4989 L 643.761,-58.04 L 643.48,-57.6081 L 643.156,-57.2079 L 642.792,-56.8437
 L 642.392,-56.5196 L 641.96,-56.2392 L 641.501,-56.0054 L 641.02,-55.8208 L 640.523,-55.6875 L 640.014,-55.607
 L 639.5,-55.58 z
M 796.986,-55.607 L 796.477,-55.6875 L 795.98,-55.8208 L 795.499,-56.0054 L 795.04,-56.2392 L 794.608,-56.5196
 L 794.208,-56.8437 L 793.844,-57.2079 L 793.52,-57.6081 L 793.239,-58.04 L 793.005,-58.4989 L 792.821,-58.9796
 L 792.688,-59.4771 L 792.607,-59.9857 L 792.58,-60.5 L 792.607,-61.0143 L 792.688,-61.5229 L 792.821,-62.0204
 L 793.005,-62.5011 L 793.239,-62.96 L 793.52,-63.3919 L 793.844,-63.7921 L 794.208,-64.1563 L 794.608,-64.4804
 L 794.95,-64.7024 L 794.95,-74 L 795.006,-74.5302 L 795.17,-75.0372 L 795.437,-75.4988 L 795.794,-75.895
 L 796.225,-76.2084 L 796.712,-76.4252 L 797.233,-76.536 L 797.767,-76.536 L 798.288,-76.4252 L 798.775,-76.2084
 L 799.206,-75.895 L 799.563,-75.4988 L 799.83,-75.0372 L 799.994,-74.5302 L 800.05,-74 L 800.05,-64.7024
 L 800.392,-64.4804 L 800.792,-64.1563 L 801.156,-63.7921 L 801.48,-63.3919 L 801.761,-62.96 L 801.995,-62.5011
 L 802.179,-62.0204 L 802.312,-61.5229 L 802.393,-61.0143 L 802.42,-60.5 L 802.393,-59.9857 L 802.312,-59.4771
 L 802.179,-58.9796 L 801.995,-58.4989 L 801.761,-58.04 L 801.48,-57.6081 L 801.156,-57.2079 L 800.792,-56.8437
 L 800.392,-56.5196 L 799.96,-56.2392 L 799.501,-56.0054 L 799.02,-55.8208 L 798.523,-55.6875 L 798.014,-55.607
 L 797.5,-55.58 z
M 401.717,-48.0519 L 400.919,-48.3004 L 386.918,-54.3258 L 386.149,-54.7639 L 385.527,-55.3235 L 385.036,-56
 L 384.695,-56.7639 L 384.522,-57.5819 L 384.522,-58.4181 L 384.695,-59.2361 L 385.036,-60 L 385.527,-60.6765
 L 386.149,-61.2361 L 386.873,-61.6542 L 387.668,-61.9126 L 388.5,-62 L 416.5,-62 L 417.381,-61.9019
 L 418.173,-61.6336 L 418.892,-61.2065 L 419.506,-60.6393 L 419.989,-59.9567 L 420.32,-59.1886 L 420.483,-58.3685
 L 420.473,-57.5323 L 420.289,-56.7166 L 419.939,-55.957 L 419.439,-55.2867 L 418.811,-54.7349 L 418.082,-54.3258
 L 404.081,-48.3004 L 403.38,-48.0726 L 402.55,-47.9749 z
M 309.717,-21.824 L 308.919,-22.0725 L 233.977,-54.3258 L 233.207,-54.7639 L 232.586,-55.3235 L 232.094,-56
 L 231.754,-56.7639 L 231.58,-57.5819 L 231.58,-58.4181 L 231.754,-59.2361 L 232.094,-60 L 232.586,-60.6765
 L 233.207,-61.2361 L 233.932,-61.6542 L 234.727,-61.9126 L 235.558,-62 L 310.5,-62 L 311.736,-61.8042
 L 312.5,-61.4641 L 313.177,-60.9726 L 313.736,-60.3511 L 314.154,-59.627 L 314.413,-58.8316 L 314.5,-58
 L 314.5,-25.7467 L 314.319,-24.5581 L 313.989,-23.79 L 313.506,-23.1074 L 312.891,-22.5402 L 312.172,-22.1131
 L 311.38,-21.8448 L 310.55,-21.747 z
M 651.62,-21.8448 L 650.828,-22.1131 L 650.109,-22.5402 L 649.494,-23.1074 L 649.011,-23.79 L 648.681,-24.5581
 L 648.5,-25.7467 L 648.5,-58 L 648.587,-58.8316 L 648.846,-59.627 L 649.264,-60.3511 L 649.823,-60.9726
 L 650.5,-61.4641 L 651.264,-61.8042 L 652.5,-62 L 727.442,-62 L 728.273,-61.9126 L 729.068,-61.6542
 L 729.793,-61.2361 L 730.414,-60.6765 L 730.906,-60 L 731.246,-59.2361 L 731.42,-58.4181 L 731.42,-57.5819
 L 731.246,-56.7639 L 730.906,-56 L 730.414,-55.3235 L 729.793,-54.7639 L 729.023,-54.3258 L 654.081,-22.0725
 L 653.283,-21.824 L 652.45,-21.747 z
M 151.717,-21.824 L 150.919,-22.0725 L 75.9772,-54.3258 L 75.2073,-54.7639 L 74.5859,-55.3235 L 74.0944,-56
 L 73.7542,-56.7639 L 73.5804,-57.5819 L 73.5804,-58.4181 L 73.7542,-59.2361 L 74.0944,-60 L 74.5859,-60.6765
 L 75.2073,-61.2361 L 75.9315,-61.6542 L 76.7268,-61.9126 L 77.5585,-62 L 152.5,-62 L 153.736,-61.8042
 L 154.5,-61.4641 L 155.177,-60.9726 L 155.736,-60.3511 L 156.154,-59.627 L 156.413,-58.8316 L 156.5,-58
 L 156.5,-25.7467 L 156.319,-24.5581 L 155.989,-23.79 L 155.506,-23.1074 L 154.891,-22.5402 L 154.172,-22.1131
 L 153.38,-21.8448 L 152.55,-21.747 z
M 493.62,-21.8448 L 492.828,-22.1131 L 492.109,-22.5402 L 491.494,-23.1074 L 491.011,-23.79 L 490.681,-24.5581
 L 490.5,-25.7467 L 490.5,-58 L 490.587,-58.8316 L 490.846,-59.627 L 491.264,-60.3511 L 491.823,-60.9726
 L 492.5,-61.4641 L 493.264,-61.8042 L 494.5,-62 L 569.442,-62 L 570.273,-61.9126 L 571.068,-61.6542
 L 571.793,-61.2361 L 572.414,-60.6765 L 572.906,-60 L 573.246,-59.2361 L 573.42,-58.4181 L 573.42,-57.5819
 L 573.246,-56.7639 L 572.906,-56 L 572.414,-55.3235 L 571.793,-54.7639 L 571.023,-54.3258 L 496.081,-22.0725
 L 495.283,-21.824 L 494.45,-21.747 z
M 336.082,-19.5914 L 335.264,-19.7653 L 334.5,-20.1054 L 333.823,-20.5969 L 333.264,-21.2184 L 332.846,-21.9426
 L 332.587,-22.7379 L 332.5,-23.5695 L 332.5,-56.4305 L 332.681,-57.6191 L 333.011,-58.3872 L 333.494,-59.0698
 L 334.109,-59.637 L 334.828,-60.0641 L 335.62,-60.3324 L 336.45,-60.4302 L 337.283,-60.3531 L 338.081,-60.1047
 L 376.258,-43.6742 L 377.068,-43.2065 L 377.682,-42.6393 L 378.165,-41.9567 L 378.496,-41.1886 L 378.66,-40.3685
 L 378.649,-39.5323 L 378.465,-38.7166 L 378.116,-37.957 L 377.616,-37.2867 L 376.987,-36.7349 L 376.258,-36.3258
 L 338.081,-19.8953 L 336.918,-19.5914 z
M 467.717,-19.6468 L 466.919,-19.8953 L 428.742,-36.3258 L 427.932,-36.7935 L 427.318,-37.3607 L 426.834,-38.0433
 L 426.504,-38.8114 L 426.34,-39.6315 L 426.351,-40.4677 L 426.535,-41.2834 L 426.884,-42.043 L 427.384,-42.7133
 L 428.013,-43.2651 L 428.742,-43.6742 L 466.919,-60.1047 L 468.082,-60.4086 L 468.918,-60.4086 L 469.736,-60.2347
 L 470.5,-59.8946 L 471.177,-59.4031 L 471.736,-58.7816 L 472.154,-58.0575 L 472.413,-57.2622 L 472.5,-56.4305
 L 472.5,-23.5695 L 472.319,-22.3809 L 471.989,-21.6128 L 471.506,-20.9302 L 470.891,-20.363 L 470.172,-19.9359
 L 469.38,-19.6676 L 468.55,-19.5698 z
M 178.5,-18 L 177.264,-18.1958 L 176.5,-18.5359 L 175.823,-19.0274 L 175.264,-19.6489 L 174.846,-20.373
 L 174.587,-21.1684 L 174.5,-22 L 174.5,-54.2533 L 174.681,-55.4419 L 175.011,-56.21 L 175.494,-56.8926
 L 176.109,-57.4598 L 176.828,-57.8869 L 177.62,-58.1552 L 178.45,-58.253 L 179.283,-58.176 L 180.081,-57.9275
 L 255.023,-25.6742 L 255.793,-25.2361 L 256.414,-24.6765 L 256.906,-24 L 257.246,-23.2361 L 257.42,-22.4181
 L 257.42,-21.5819 L 257.246,-20.7639 L 256.906,-20 L 256.414,-19.3235 L 255.793,-18.7639 L 255.068,-18.3458
 L 254.273,-18.0874 L 253.442,-18 z
M 551.558,-18 L 550.727,-18.0874 L 549.932,-18.3458 L 549.207,-18.7639 L 548.586,-19.3235 L 548.094,-20
 L 547.754,-20.7639 L 547.58,-21.5819 L 547.58,-22.4181 L 547.754,-23.2361 L 548.094,-24 L 548.586,-24.6765
 L 549.207,-25.2361 L 549.977,-25.6742 L 624.919,-57.9275 L 625.717,-58.176 L 626.55,-58.253 L 627.38,-58.1552
 L 628.172,-57.8869 L 628.891,-57.4598 L 629.506,-56.8926 L 629.989,-56.21 L 630.319,-55.4419 L 630.5,-54.2533
 L 630.5,-22 L 630.413,-21.1684 L 630.154,-20.373 L 629.736,-19.6489 L 629.177,-19.0274 L 628.5,-18.5359
 L 627.736,-18.1958 L 626.5,-18 z
M 22,-18 L 20.7639,-18.1958 L 20,-18.5359 L 19.3235,-19.0274 L 18.7639,-19.6489 L 18.3458,-20.373
 L 18.0874,-21.1684 L 18,-22 L 18,-53.6077 L 18.1807,-54.7963 L 18.5112,-55.5644 L 18.9943,-56.247
 L 19.6087,-56.8143 L 20.3277,-57.2413 L 21.1197,-57.5096 L 21.9502,-57.6074 L 22.7828,-57.5304 L 23.5813,-57.2819
 L 97.0228,-25.6742 L 97.7926,-25.2361 L 98.4141,-24.6765 L 98.9056,-24 L 99.2457,-23.2361 L 99.4196,-22.4181
 L 99.4196,-21.5819 L 99.2457,-20.7639 L 98.9056,-20 L 98.4141,-19.3235 L 97.7926,-18.7639 L 97.0685,-18.3458
 L 96.2732,-18.0874 L 95.4415,-18 z
M 709.558,-18 L 708.727,-18.0874 L 707.932,-18.3458 L 707.207,-18.7639 L 706.586,-19.3235 L 706.094,-20
 L 705.754,-20.7639 L 705.58,-21.5819 L 705.58,-22.4181 L 705.754,-23.2361 L 706.094,-24 L 706.586,-24.6765
 L 707.207,-25.2361 L 707.977,-25.6742 L 781.419,-57.2819 L 782.217,-57.5304 L 783.05,-57.6074 L 783.88,-57.5096
 L 784.672,-57.2413 L 785.391,-56.8143 L 786.006,-56.247 L 786.489,-55.5644 L 786.819,-54.7963 L 787,-53.6077
 L 787,-22 L 786.913,-21.1684 L 786.654,-20.373 L 786.236,-19.6489 L 785.677,-19.0274 L 785,-18.5359
 L 784.236,-18.1958 L 783,-18 z
M 388.5,-18 L 387.619,-18.0981 L 386.827,-18.3664 L 386.108,-18.7935 L 385.494,-19.3607 L 385.011,-20.0433
 L 384.68,-20.8114 L 384.517,-21.6315 L 384.527,-22.4677 L 384.711,-23.2834 L 385.061,-24.043 L 385.561,-24.7133
 L 386.189,-25.2651 L 386.918,-25.6742 L 400.919,-31.6996 L 401.62,-31.9274 L 402.45,-32.0251 L 403.283,-31.9481
 L 404.081,-31.6996 L 418.082,-25.6742 L 418.851,-25.2361 L 419.473,-24.6765 L 419.964,-24 L 420.305,-23.2361
 L 420.478,-22.4181 L 420.478,-21.5819 L 420.305,-20.7639 L 419.964,-20 L 419.473,-19.3235 L 418.851,-18.7639
 L 418.127,-18.3458 L 417.332,-18.0874 L 416.5,-18 z
" stroke="black" fill="lightgray" stroke-width="0.5"/>
</svg>
