<?xml version="1.0" standalone="no"?>
<!DOCTYPE svg PUBLIC "-//W3C//DTD SVG 1.1//EN" "http://www.w3.org/Graphics/SVG/1.1/DTD/svg11.dtd">
<svg width="891mm" height="80mm" viewBox="0 -80 891 80" xmlns="http://www.w3.org/2000/svg" version="1.1">
<title>OpenSCAD Model</title>
<path d="
M 891,-80 L 0,-80 L 0,-0 L 4.95,-0 L 4.95,-6 L 5.00572,-6.53017
 L 5.17046,-7.03717 L 5.437,-7.49884 L 5.79372,-7.895 L 6.22499,-8.20836 L 6.71201,-8.42519 L 7.23344,-8.53603
 L 7.76654,-8.53603 L 8.28798,-8.42519 L 8.77499,-8.20836 L 9.20627,-7.895 L 9.56299,-7.49884 L 9.82953,-7.03717
 L 9.99426,-6.53017 L 10.05,-6 L 10.05,-0 L 180.15,-0 L 180.15,-6 L 180.206,-6.53017
 L 180.37,-7.03717 L 180.637,-7.49884 L 180.994,-7.895 L 181.425,-8.20836 L 181.912,-8.42519 L 182.433,-8.53603
 L 182.967,-8.53603 L 183.488,-8.42519 L 183.975,-8.20836 L 184.406,-7.895 L 184.763,-7.49884 L 185.03,-7.03717
 L 185.194,-6.53017 L 185.25,-6 L 185.25,-0 L 355.35,-0 L 355.35,-6 L 355.406,-6.53017
 L 355.57,-7.03717 L 355.837,-7.49884 L 356.194,-7.895 L 356.625,-8.20836 L 357.112,-8.42519 L 357.633,-8.53603
 L 358.167,-8.53603 L 358.688,-8.42519 L 359.175,-8.20836 L 359.606,-7.895 L 359.963,-7.49884 L 360.23,-7.03717
 L 360.394,-6.53017 L 360.45,-6 L 360.45,-0 L 530.55,-0 L 530.55,-6 L 530.606,-6.53017
 L 530.77,-7.03717 L 531.037,-7.49884 L 531.394,-7.895 L 531.825,-8.20836 L 532.312,-8.42519 L 532.833,-8.53603
 L 533.367,-8.53603 L 533.888,-8.42519 L 534.375,-8.20836 L 534.806,-7.895 L 535.163,-7.49884 L 535.43,-7.03717
 L 535.594,-6.53017 L 535.65,-6 L 535.65,-0 L 705.75,-0 L 705.75,-6 L 705.806,-6.53017
 L 705.97,-7.03717 L 706.237,-7.49884 L 706.594,-7.895 L 707.025,-8.20836 L 707.512,-8.42519 L 708.033,-8.53603
 L 708.567,-8.53603 L 709.088,-8.42519 L 709.575,-8.20836 L 710.006,-7.895 L 710.363,-7.49884 L 710.63,-7.03717
 L 710.794,-6.53017 L 710.85,-6 L 710.85,-0 L 880.95,-0 L 880.95,-6 L 881.006,-6.53017
 L 881.17,-7.03717 L 881.437,-7.49884 L 881.794,-7.895 L 882.225,-8.20836 L 882.712,-8.42519 L 883.233,-8.53603
 L 883.767,-8.53603 L 884.288,-8.42519 L 884.775,-8.20836 L 885.206,-7.895 L 885.563,-7.49884 L 885.83,-7.03717
 L 885.994,-6.53017 L 886.05,-6 L 886.05,-0 L 891,-0 z
M 6.98573,-55.607 L 6.47708,-55.6875 L 5.97964,-55.8208 L 5.49887,-56.0054 L 5.04001,-56.2392 L 4.60811,-56.5196
 L 4.20789,-56.8437 L 3.84373,-57.2079 L 3.51964,-57.6081 L 3.23917,-58.04 L 3.00537,-58.4989 L 2.82082,-58.9796
 L 2.68752,-59.4771 L 2.60696,-59.9857 L 2.58,-60.5 L 2.60696,-61.0143 L 2.68752,-61.5229 L 2.82082,-62.0204
 L 3.00537,-62.5011 L 3.23917,-62.96 L 3.51964,-63.3919 L 3.84373,-63.7921 L 4.20789,-64.1563 L 4.60811,-64.4804
 L 4.95001,-64.7024 L 4.95001,-74 L 5.00574,-74.5302 L 5.17047,-75.0372 L 5.43701,-75.4988 L 5.79373,-75.895
 L 6.22501,-76.2084 L 6.71202,-76.4252 L 7.23346,-76.536 L 7.76654,-76.536 L 8.28798,-76.4252 L 8.77499,-76.2084
 L 9.20627,-75.895 L 9.56299,-75.4988 L 9.82953,-75.0372 L 9.99426,-74.5302 L 10.05,-74 L 10.05,-64.7024
 L 10.3919,-64.4804 L 10.7921,-64.1563 L 11.1563,-63.7921 L 11.4804,-63.3919 L 11.7608,-62.96 L 11.9946,-62.5011
 L 12.1792,-62.0204 L 12.3125,-61.5229 L 12.393,-61.0143 L 12.42,-60.5 L 12.393,-59.9857 L 12.3125,-59.4771
 L 12.1792,-58.9796 L 11.9946,-58.4989 L 11.7608,-58.04 L 11.4804,-57.6081 L 11.1563,-57.2079 L 10.7921,-56.8437
 L 10.3919,-56.5196 L 9.95999,-56.2392 L 9.50113,-56.0054 L 9.02036,-55.8208 L 8.52292,-55.6875 L 8.01427,-55.607
 L 7.5,-55.58 z
M 182.186,-55.607 L 181.677,-55.6875 L 181.18,-55.8208 L 180.699,-56.0054 L 180.24,-56.2392 L 179.808,-56.5196
 L 179.408,-56.8437 L 179.044,-57.2079 L 178.72,-57.6081 L 178.439,-58.04 L 178.205,-58.4989 L 178.021,-58.9796
 L 177.888,-59.4771 L 177.807,-59.9857 L 177.78,-60.5 L 177.807,-61.0143 L 177.888,-61.5229 L 178.021,-62.0204
 L 178.205,-62.5011 L 178.439,-62.96 L 178.72,-63.3919 L 179.044,-63.7921 L 179.408,-64.1563 L 179.808,-64.4804
 L 180.15,-64.7024 L 180.15,-74 L 180.206,-74.5302 L 180.37,-75.0372 L 180.637,-75.4988 L 180.994,-75.895
 L 181.425,-76.2084 L 181.912,-76.4252 L 182.433,-76.536 L 182.967,-76.536 L 183.488,-76.4252 L 183.975,-76.2084
 L 184.406,-75.895 L 184.763,-75.4988 L 185.03,-75.0372 L 185.194,-74.5302 L 185.25,-74 L 185.25,-64.7024
 L 185.592,-64.4804 L 185.992,-64.1563 L 186.356,-63.7921 L 186.68,-63.3919 L 186.961,-62.96 L 187.195,-62.5011
 L 187.379,-62.0204 L 187.512,-61.5229 L 187.593,-61.0143 L 187.62,-60.5 L 187.593,-59.9857 L 187.512,-59.4771
 L 187.379,-58.9796 L 187.195,-58.4989 L 186.961,-58.04 L 186.68,-57.6081 L 186.356,-57.2079 L 185.992,-56.8437
 L 185.592,-56.5196 L 185.16,-56.2392 L 184.701,-56.0054 L 184.22,-55.8208 L 183.723,-55.6875 L 183.214,-55.607
 L 182.7,-55.58 z
M 357.386,-55.607 L 356.877,-55.6875 L 356.38,-55.8208 L 355.899,-56.0054 L 355.44,-56.2392 L 355.008,-56.5196
 L 354.608,-56.8437 L 354.244,-57.2079 L 353.92,-57.6081 L 353.639,-58.04 L 353.405,-58.4989 L 353.221,-58.9796
 L 353.088,-59.4771 L 353.007,-59.9857 L 352.98,-60.5 L 353.007,-61.0143 L 353.088,-61.5229 L 353.221,-62.0204
 L 353.405,-62.5011 L 353.639,-62.96 L 353.92,-63.3919 L 354.244,-63.7921 L 354.608,-64.1563 L 355.008,-64.4804
 L 355.35,-64.7024 L 355.35,-74 L 355.406,-74.5302 L 355.57,-75.0372 L 355.837,-75.4988 L 356.194,-75.895
 L 356.625,-76.2084 L 357.112,-76.4252 L 357.633,-76.536 L 358.167,-76.536 L 358.688,-76.4252 L 359.175,-76.2084
 L 359.606,-75.895 L 359.963,-75.4988 L 360.23,-75.0372 L 360.394,-74.5302 L 360.45,-74 L 360.45,-64.7024
 L 360.792,-64.4804 L 361.192,-64.1563 L 361.556,-63.7921 L 361.88,-63.3919 L 362.161,-62.96 L 362.395,-62.5011
 L 362.579,-62.0204 L 362.712,-61.5229 L 362.793,-61.0143 L 362.82,-60.5 L 362.793,-59.9857 L 362.712,-59.4771
 L 362.579,-58.9796 L 362.395,-58.4989 L 362.161,-58.04 L 361.88,-57.6081 L 361.556,-57.2079 L 361.192,-56.8437
 L 360.792,-56.5196 L 360.36,-56.2392 L 359.901,-56.0054 L 359.42,-55.8208 L 358.923,-55.6875 L 358.414,-55.607
 L 357.9,-55.58 z
M 532.586,-55.607 L 532.077,-55.6875 L 531.58,-55.8208 L 531.099,-56.0054 L 530.64,-56.2392 L 530.208,-56.5196
 L 529.808,-56.8437 L 529.444,-57.2079 L 529.12,-57.6081 L 528.839,-58.04 L 528.605,-58.4989 L 528.421,-58.9796
 L 528.288,-59.4771 L 528.207,-59.9857 L 528.18,-60.5 L 528.207,-61.0143 L 528.288,-61.5229 L 528.421,-62.0204
 L 528.605,-62.5011 L 528.839,-62.96 L 529.12,-63.3919 L 529.444,-63.7921 L 529.808,-64.1563 L 530.208,-64.4804
 L 530.55,-64.7024 L 530.55,-74 L 530.606,-74.5302 L 530.77,-75.0372 L 531.037,-75.4988 L 531.394,-75.895
 L 531.825,-76.2084 L 532.312,-76.4252 L 532.833,-76.536 L 533.367,-76.536 L 533.888,-76.4252 L 534.375,-76.2084
 L 534.806,-75.895 L 535.163,-75.4988 L 535.43,-75.0372 L 535.594,-74.5302 L 535.65,-74 L 535.65,-64.7024
 L 535.992,-64.4804 L 536.392,-64.1563 L 536.756,-63.7921 L 537.08,-63.3919 L 537.361,-62.96 L 537.595,-62.5011
 L 537.779,-62.0204 L 537.912,-61.5229 L 537.993,-61.0143 L 538.02,-60.5 L 537.993,-59.9857 L 537.912,-59.4771
 L 537.779,-58.9796 L 537.595,-58.4989 L 537.361,-58.04 L 537.08,-57.6081 L 536.756,-57.2079 L 536.392,-56.8437
 L 535.992,-56.5196 L 535.56,-56.2392 L 535.101,-56.0054 L 534.62,-55.8208 L 534.123,-55.6875 L 533.614,-55.607
 L 533.1,-55.58 z
M 707.786,-55.607 L 707.277,-55.6875 L 706.78,-55.8208 L 706.299,-56.0054 L 705.84,-56.2392 L 705.408,-56.5196
 L 705.008,-56.8437 L 704.644,-57.2079 L 704.32,-57.6081 L 704.039,-58.04 L 703.805,-58.4989 L 703.621,-58.9796
 L 703.488,-59.4771 L 703.407,-59.9857 L 703.38,-60.5 L 703.407,-61.0143 L 703.488,-61.5229 L 703.621,-62.0204
 L 703.805,-62.5011 L 704.039,-62.96 L 704.32,-63.3919 L 704.644,-63.7921 L 705.008,-64.1563 L 705.408,-64.4804
 L 705.75,-64.7024 L 705.75,-74 L 705.806,-74.5302 L 705.97,-75.0372 L 706.237,-75.4988 L 706.594,-75.895
 L 707.025,-76.2084 L 707.512,-76.4252 L 708.033,-76.536 L 708.567,-76.536 L 709.088,-76.4252 L 709.575,-76.2084
 L 710.006,-75.895 L 710.363,-75.4988 L 710.63,-75.0372 L 710.794,-74.5302 L 710.85,-74 L 710.85,-64.7024
 L 711.192,-64.4804 L 711.592,-64.1563 L 711.956,-63.7921 L 712.28,-63.3919 L 712.561,-62.96 L 712.795,-62.5011
 L 712.979,-62.0204 L 713.112,-61.5229 L 713.193,-61.0143 L 713.22,-60.5 L 713.193,-59.9857 L 713.112,-59.4771
 L 712.979,-58.9796 L 712.795,-58.4989 L 712.561,-58.04 L 712.28,-57.6081 L 711.956,-57.2079 L 711.592,-56.8437
 L 711.192,-56.5196 L 710.76,-56.2392 L 710.301,-56.0054 L 709.82,-55.8208 L 709.323,-55.6875 L 708.814,-55.607
 L 708.3,-55.58 z
M 882.986,-55.607 L 882.477,-55.6875 L 881.98,-55.8208 L 881.499,-56.0054 L 881.04,-56.2392 L 880.608,-56.5196
 L 880.208,-56.8437 L 879.844,-57.2079 L 879.52,-57.6081 L 879.239,-58.04 L 879.005,-58.4989 L 878.821,-58.9796
 L 878.688,-59.4771 L 878.607,-59.9857 L 878.58,-60.5 L 878.607,-61.0143 L 878.688,-61.5229 L 878.821,-62.0204
 L 879.005,-62.5011 L 879.239,-62.96 L 879.52,-63.3919 L 879.844,-63.7921 L 880.208,-64.1563 L 880.608,-64.4804
 L 880.95,-64.7024 L 880.95,-74 L 881.006,-74.5302 L 881.17,-75.0372 L 881.437,-75.4988 L 881.794,-75.895
 L 882.225,-76.2084 L 882.712,-76.4252 L 883.233,-76.536 L 883.767,-76.536 L 884.288,-76.4252 L 884.775,-76.2084
 L 885.206,-75.895 L 885.563,-75.4988 L 885.83,-75.0372 L 885.994,-74.5302 L 886.05,-74 L 886.05,-64.7024
 L 886.392,-64.4804 L 886.792,-64.1563 L 887.156,-63.7921 L 887.48,-63.3919 L 887.761,-62.96 L 887.995,-62.5011
 L 888.179,-62.0204 L 888.312,-61.5229 L 888.393,-61.0143 L 888.42,-60.5 L 888.393,-59.9857 L 888.312,-59.4771
 L 888.179,-58.9796 L 887.995,-58.4989 L 887.761,-58.04 L 887.48,-57.6081 L 887.156,-57.2079 L 886.792,-56.8437
 L 886.392,-56.5196 L 885.96,-56.2392 L 885.501,-56.0054 L 885.02,-55.8208 L 884.523,-55.6875 L 884.014,-55.607
 L 883.5,-55.58 z
M 444.86,-47.8371 L 444.053,-48.0565 L 428.041,-54.271 L 427.137,-54.7639 L 426.516,-55.3235 L 426.024,-56
 L 425.684,-56.7639 L 425.51,-57.5819 L 425.51,-58.4181 L 425.684,-59.2361 L 426.024,-60 L 426.516,-60.6765
 L 427.137,-61.2361 L 427.862,-61.6542 L 428.657,-61.9126 L 429.489,-62 L 461.511,-62 L 462.532,-61.8675
 L 463.314,-61.5707 L 464.017,-61.1179 L 464.611,-60.5288 L 465.069,-59.8292 L 465.371,-59.0496 L 465.505,-58.2242
 L 465.464,-57.3889 L 465.251,-56.5804 L 464.874,-55.8339 L 464.35,-55.1821 L 463.702,-54.6534 L 462.959,-54.271
 L 446.947,-48.0565 L 446.521,-47.918 L 445.694,-47.7903 z
M 344.26,-21.0256 L 343.453,-21.245 L 258.362,-54.271 L 257.458,-54.7639 L 256.837,-55.3235 L 256.345,-56
 L 256.005,-56.7639 L 255.831,-57.5819 L 255.831,-58.4181 L 256.005,-59.2361 L 256.345,-60 L 256.837,-60.6765
 L 257.458,-61.2361 L 258.183,-61.6542 L 258.978,-61.9126 L 259.809,-62 L 344.9,-62 L 346.136,-61.8042
 L 346.9,-61.4641 L 347.577,-60.9726 L 348.136,-60.3511 L 348.554,-59.627 L 348.813,-58.8316 L 348.9,-58
 L 348.9,-24.974 L 348.76,-23.9244 L 348.457,-23.1448 L 347.999,-22.4452 L 347.406,-21.8561 L 346.703,-21.4033
 L 345.921,-21.1065 L 345.095,-20.9787 z
M 720.279,-21.1065 L 719.497,-21.4033 L 718.794,-21.8561 L 718.201,-22.4452 L 717.743,-23.1448 L 717.44,-23.9244
 L 717.3,-24.974 L 717.3,-58 L 717.387,-58.8316 L 717.646,-59.627 L 718.064,-60.3511 L 718.623,-60.9726
 L 719.3,-61.4641 L 720.064,-61.8042 L 721.3,-62 L 806.391,-62 L 807.222,-61.9126 L 808.017,-61.6542
 L 808.742,-61.2361 L 809.363,-60.6765 L 809.855,-60 L 810.195,-59.2361 L 810.369,-58.4181 L 810.369,-57.5819
 L 810.195,-56.7639 L 809.855,-56 L 809.363,-55.3235 L 808.742,-54.7639 L 807.838,-54.271 L 722.747,-21.245
 L 721.94,-21.0256 L 721.105,-20.9787 z
M 169.06,-21.0256 L 168.253,-21.245 L 83.1622,-54.271 L 82.2583,-54.7639 L 81.6369,-55.3235 L 81.1454,-56
 L 80.8053,-56.7639 L 80.6314,-57.5819 L 80.6314,-58.4181 L 80.8053,-59.2361 L 81.1454,-60 L 81.6369,-60.6765
 L 82.2583,-61.2361 L 82.9825,-61.6542 L 83.7778,-61.9126 L 84.6095,-62 L 169.7,-62 L 170.936,-61.8042
 L 171.7,-61.4641 L 172.377,-60.9726 L 172.936,-60.3511 L 173.354,-59.627 L 173.613,-58.8316 L 173.7,-58
 L 173.7,-24.974 L 173.56,-23.9244 L 173.257,-23.1448 L 172.799,-22.4452 L 172.206,-21.8561 L 171.503,-21.4033
 L 170.721,-21.1065 L 169.895,-20.9787 z
M 545.079,-21.1065 L 544.297,-21.4033 L 543.594,-21.8561 L 543.001,-22.4452 L 542.543,-23.1448 L 542.24,-23.9244
 L 542.1,-24.974 L 542.1,-58 L 542.187,-58.8316 L 542.446,-59.627 L 542.864,-60.3511 L 543.423,-60.9726
 L 544.1,-61.4641 L 544.864,-61.8042 L 546.1,-62 L 631.191,-62 L 632.022,-61.9126 L 632.817,-61.6542
 L 633.542,-61.2361 L 634.163,-60.6765 L 634.655,-60 L 634.995,-59.2361 L 635.169,-58.4181 L 635.169,-57.5819
 L 634.995,-56.7639 L 634.655,-56 L 634.163,-55.3235 L 633.542,-54.7639 L 632.638,-54.271 L 547.547,-21.245
 L 546.74,-21.0256 L 545.905,-20.9787 z
M 370.482,-18.8531 L 369.664,-19.027 L 368.9,-19.3671 L 368.223,-19.8586 L 367.664,-20.4801 L 367.246,-21.2042
 L 366.987,-21.9995 L 366.9,-22.8312 L 366.9,-57.1688 L 367.04,-58.2184 L 367.343,-58.998 L 367.801,-59.6976
 L 368.394,-60.2867 L 369.097,-60.7395 L 369.879,-61.0363 L 370.705,-61.1641 L 371.54,-61.1172 L 372.347,-60.8978
 L 416.582,-43.729 L 417.641,-43.1179 L 418.234,-42.5288 L 418.692,-41.8292 L 418.995,-41.0496 L 419.129,-40.2242
 L 419.088,-39.3889 L 418.875,-38.5804 L 418.498,-37.8339 L 417.974,-37.1821 L 417.326,-36.6534 L 416.582,-36.271
 L 372.347,-19.1022 L 371.318,-18.8531 z
M 519.46,-18.8828 L 518.653,-19.1022 L 474.418,-36.271 L 473.359,-36.8821 L 472.766,-37.4712 L 472.308,-38.1708
 L 472.005,-38.9504 L 471.871,-39.7758 L 471.912,-40.6111 L 472.125,-41.4196 L 472.502,-42.1661 L 473.026,-42.8179
 L 473.674,-43.3466 L 474.418,-43.729 L 518.653,-60.8978 L 519.682,-61.1469 L 520.518,-61.1469 L 521.336,-60.9731
 L 522.1,-60.6329 L 522.777,-60.1414 L 523.336,-59.52 L 523.754,-58.7958 L 524.013,-58.0005 L 524.1,-57.1688
 L 524.1,-22.8312 L 523.96,-21.7816 L 523.657,-21.002 L 523.199,-20.3024 L 522.606,-19.7133 L 521.903,-19.2604
 L 521.121,-18.9637 L 520.295,-18.8359 z
M 195.7,-18 L 194.464,-18.1958 L 193.7,-18.5359 L 193.023,-19.0274 L 192.464,-19.6489 L 192.046,-20.373
 L 191.787,-21.1684 L 191.7,-22 L 191.7,-55.026 L 191.84,-56.0756 L 192.143,-56.8552 L 192.601,-57.5548
 L 193.194,-58.1439 L 193.897,-58.5967 L 194.679,-58.8935 L 195.505,-59.0213 L 196.34,-58.9744 L 197.147,-58.755
 L 282.238,-25.729 L 283.142,-25.2361 L 283.763,-24.6765 L 284.255,-24 L 284.595,-23.2361 L 284.769,-22.4181
 L 284.769,-21.5819 L 284.595,-20.7639 L 284.255,-20 L 283.763,-19.3235 L 283.142,-18.7639 L 282.417,-18.3458
 L 281.622,-18.0874 L 280.79,-18 z
M 610.209,-18 L 609.378,-18.0874 L 608.583,-18.3458 L 607.858,-18.7639 L 607.237,-19.3235 L 606.745,-20
 L 606.405,-20.7639 L 606.231,-21.5819 L 606.231,-22.4181 L 606.405,-23.2361 L 606.745,-24 L 607.237,-24.6765
 L 607.858,-25.2361 L 608.762,-25.729 L 693.853,-58.755 L 694.66,-58.9744 L 695.495,-59.0213 L 696.321,-58.8935
 L 697.103,-58.5967 L 697.806,-58.1439 L 698.399,-57.5548 L 698.857,-56.8552 L 699.16,-56.0756 L 699.3,-55.026
 L 699.3,-22 L 699.213,-21.1684 L 698.954,-20.373 L 698.536,-19.6489 L 697.977,-19.0274 L 697.3,-18.5359
 L 696.536,-18.1958 L 695.3,-18 z
M 22,-18 L 20.7639,-18.1958 L 20,-18.5359 L 19.3235,-19.0274 L 18.7639,-19.6489 L 18.3458,-20.373
 L 18.0874,-21.1684 L 18,-22 L 18,-54.4438 L 18.1402,-55.4934 L 18.4427,-56.273 L 18.9008,-56.9726
 L 19.4943,-57.5617 L 20.1973,-58.0145 L 20.9791,-58.3113 L 21.8055,-58.4391 L 22.6404,-58.3922 L 23.4473,-58.1728
 L 107.038,-25.729 L 107.942,-25.2361 L 108.563,-24.6765 L 109.055,-24 L 109.395,-23.2361 L 109.569,-22.4181
 L 109.569,-21.5819 L 109.395,-20.7639 L 109.055,-20 L 108.563,-19.3235 L 107.942,-18.7639 L 107.217,-18.3458
 L 106.422,-18.0874 L 105.59,-18 z
M 785.41,-18 L 784.578,-18.0874 L 783.783,-18.3458 L 783.058,-18.7639 L 782.437,-19.3235 L 781.945,-20
 L 781.605,-20.7639 L 781.431,-21.5819 L 781.431,-22.4181 L 781.605,-23.2361 L 781.945,-24 L 782.437,-24.6765
 L 783.058,-25.2361 L 783.962,-25.729 L 867.553,-58.1728 L 868.36,-58.3922 L 869.195,-58.4391 L 870.021,-58.3113
 L 870.803,-58.0145 L 871.506,-57.5617 L 872.099,-56.9726 L 872.557,-56.273 L 872.86,-55.4934 L 873,-54.4438
 L 873,-22 L 872.913,-21.1684 L 872.654,-20.373 L 872.236,-19.6489 L 871.677,-19.0274 L 871,-18.5359
 L 870.236,-18.1958 L 869,-18 z
M 429.489,-18 L 428.468,-18.1325 L 427.686,-18.4293 L 426.983,-18.8821 L 426.389,-19.4712 L 425.931,-20.1708
 L 425.629,-20.9504 L 425.495,-21.7758 L 425.536,-22.6111 L 425.749,-23.4196 L 426.126,-24.1661 L 426.65,-24.8179
 L 427.298,-25.3466 L 428.041,-25.729 L 444.053,-31.9435 L 444.479,-32.082 L 445.305,-32.2097 L 446.14,-32.1629
 L 446.947,-31.9435 L 462.959,-25.729 L 463.863,-25.2361 L 464.484,-24.6765 L 464.975,-24 L 465.316,-23.2361
 L 465.489,-22.4181 L 465.489,-21.5819 L 465.316,-20.7639 L 464.975,-20 L 464.484,-19.3235 L 463.863,-18.7639
 L 463.138,-18.3458 L 462.343,-18.0874 L 461.511,-18 z
" stroke="black" fill="lightgray" stroke-width="0.5"/>
</svg>
