<?xml version="1.0" standalone="no"?>
<!DOCTYPE svg PUBLIC "-//W3C//DTD SVG 1.1//EN" "http://www.w3.org/Graphics/SVG/1.1/DTD/svg11.dtd">
<svg width="616mm" height="80mm" viewBox="0 -80 616 80" xmlns="http://www.w3.org/2000/svg" version="1.1">
<title>OpenSCAD Model</title>
<path d="
M 616,-80 L 0,-80 L 0,-0 L 4.95,-0 L 4.95,-6 L 5.00572,-6.53017
 L 5.17046,-7.03717 L 5.437,-7.49884 L 5.79372,-7.895 L 6.22499,-8.20836 L 6.71201,-8.42519 L 7.23344,-8.53603
 L 7.76654,-8.53603 L 8.28798,-8.42519 L 8.77499,-8.20836 L 9.20627,-7.895 L 9.56299,-7.49884 L 9.82953,-7.03717
 L 9.99426,-6.53017 L 10.05,-6 L 10.05,-0 L 125.15,-0 L 125.15,-6 L 125.206,-6.53017
 L 125.37,-7.03717 L 125.637,-7.49884 L 125.994,-7.895 L 126.425,-8.20836 L 126.912,-8.42519 L 127.433,-8.53603
 L 127.967,-8.53603 L 128.488,-8.42519 L 128.975,-8.20836 L 129.406,-7.895 L 129.763,-7.49884 L 130.03,-7.03717
 L 130.194,-6.53017 L 130.25,-6 L 130.25,-0 L 245.35,-0 L 245.35,-6 L 245.406,-6.53017
 L 245.57,-7.03717 L 245.837,-7.49884 L 246.194,-7.895 L 246.625,-8.20836 L 247.112,-8.42519 L 247.633,-8.53603
 L 248.167,-8.53603 L 248.688,-8.42519 L 249.175,-8.20836 L 249.606,-7.895 L 249.963,-7.49884 L 250.23,-7.03717
 L 250.394,-6.53017 L 250.45,-6 L 250.45,-0 L 365.55,-0 L 365.55,-6 L 365.606,-6.53017
 L 365.77,-7.03717 L 366.037,-7.49884 L 366.394,-7.895 L 366.825,-8.20836 L 367.312,-8.42519 L 367.833,-8.53603
 L 368.367,-8.53603 L 368.888,-8.42519 L 369.375,-8.20836 L 369.806,-7.895 L 370.163,-7.49884 L 370.43,-7.03717
 L 370.594,-6.53017 L 370.65,-6 L 370.65,-0 L 485.75,-0 L 485.75,-6 L 485.806,-6.53017
 L 485.97,-7.03717 L 486.237,-7.49884 L 486.594,-7.895 L 487.025,-8.20836 L 487.512,-8.42519 L 488.033,-8.53603
 L 488.567,-8.53603 L 489.088,-8.42519 L 489.575,-8.20836 L 490.006,-7.895 L 490.363,-7.49884 L 490.63,-7.03717
 L 490.794,-6.53017 L 490.85,-6 L 490.85,-0 L 605.95,-0 L 605.95,-6 L 606.006,-6.53017
 L 606.17,-7.03717 L 606.437,-7.49884 L 606.794,-7.895 L 607.225,-8.20836 L 607.712,-8.42519 L 608.233,-8.53603
 L 608.767,-8.53603 L 609.288,-8.42519 L 609.775,-8.20836 L 610.206,-7.895 L 610.563,-7.49884 L 610.83,-7.03717
 L 610.994,-6.53017 L 611.05,-6 L 611.05,-0 L 616,-0 z
M 6.98573,-55.607 L 6.47708,-55.6875 L 5.97964,-55.8208 L 5.49887,-56.0054 L 5.04001,-56.2392 L 4.60811,-56.5196
 L 4.20789,-56.8437 L 3.84373,-57.2079 L 3.51964,-57.6081 L 3.23917,-58.04 L 3.00537,-58.4989 L 2.82082,-58.9796
 L 2.68752,-59.4771 L 2.60696,-59.9857 L 2.58,-60.5 L 2.60696,-61.0143 L 2.68752,-61.5229 L 2.82082,-62.0204
 L 3.00537,-62.5011 L 3.23917,-62.96 L 3.51964,-63.3919 L 3.84373,-63.7921 L 4.20789,-64.1563 L 4.60811,-64.4804
 L 4.95001,-64.7024 L 4.95001,-74 L 5.00574,-74.5302 L 5.17047,-75.0372 L 5.43701,-75.4988 L 5.79373,-75.895
 L 6.22501,-76.2084 L 6.71202,-76.4252 L 7.23346,-76.536 L 7.76654,-76.536 L 8.28798,-76.4252 L 8.77499,-76.2084
 L 9.20627,-75.895 L 9.56299,-75.4988 L 9.82953,-75.0372 L 9.99426,-74.5302 L 10.05,-74 L 10.05,-64.7024
 L 10.3919,-64.4804 L 10.7921,-64.1563 L 11.1563,-63.7921 L 11.4804,-63.3919 L 11.7608,-62.96 L 11.9946,-62.5011
 L 12.1792,-62.0204 L 12.3125,-61.5229 L 12.393,-61.0143 L 12.42,-60.5 L 12.393,-59.9857 L 12.3125,-59.4771
 L 12.1792,-58.9796 L 11.9946,-58.4989 L 11.7608,-58.04 L 11.4804,-57.6081 L 11.1563,-57.2079 L 10.7921,-56.8437
 L 10.3919,-56.5196 L 9.95999,-56.2392 L 9.50113,-56.0054 L 9.02036,-55.8208 L 8.52292,-55.6875 L 8.01427,-55.607
 L 7.5,-55.58 z
M 127.186,-55.607 L 126.677,-55.6875 L 126.18,-55.8208 L 125.699,-56.0054 L 125.24,-56.2392 L 124.808,-56.5196
 L 124.408,-56.8437 L 124.044,-57.2079 L 123.72,-57.6081 L 123.439,-58.04 L 123.205,-58.4989 L 123.021,-58.9796
 L 122.888,-59.4771 L 122.807,-59.9857 L 122.78,-60.5 L 122.807,-61.0143 L 122.888,-61.5229 L 123.021,-62.0204
 L 123.205,-62.5011 L 123.439,-62.96 L 123.72,-63.3919 L 124.044,-63.7921 L 124.408,-64.1563 L 124.808,-64.4804
 L 125.15,-64.7024 L 125.15,-74 L 125.206,-74.5302 L 125.37,-75.0372 L 125.637,-75.4988 L 125.994,-75.895
 L 126.425,-76.2084 L 126.912,-76.4252 L 127.433,-76.536 L 127.967,-76.536 L 128.488,-76.4252 L 128.975,-76.2084
 L 129.406,-75.895 L 129.763,-75.4988 L 130.03,-75.0372 L 130.194,-74.5302 L 130.25,-74 L 130.25,-64.7024
 L 130.592,-64.4804 L 130.992,-64.1563 L 131.356,-63.7921 L 131.68,-63.3919 L 131.961,-62.96 L 132.195,-62.5011
 L 132.379,-62.0204 L 132.512,-61.5229 L 132.593,-61.0143 L 132.62,-60.5 L 132.593,-59.9857 L 132.512,-59.4771
 L 132.379,-58.9796 L 132.195,-58.4989 L 131.961,-58.04 L 131.68,-57.6081 L 131.356,-57.2079 L 130.992,-56.8437
 L 130.592,-56.5196 L 130.16,-56.2392 L 129.701,-56.0054 L 129.22,-55.8208 L 128.723,-55.6875 L 128.214,-55.607
 L 127.7,-55.58 z
M 247.386,-55.607 L 246.877,-55.6875 L 246.38,-55.8208 L 245.899,-56.0054 L 245.44,-56.2392 L 245.008,-56.5196
 L 244.608,-56.8437 L 244.244,-57.2079 L 243.92,-57.6081 L 243.639,-58.04 L 243.405,-58.4989 L 243.221,-58.9796
 L 243.088,-59.4771 L 243.007,-59.9857 L 242.98,-60.5 L 243.007,-61.0143 L 243.088,-61.5229 L 243.221,-62.0204
 L 243.405,-62.5011 L 243.639,-62.96 L 243.92,-63.3919 L 244.244,-63.7921 L 244.608,-64.1563 L 245.008,-64.4804
 L 245.35,-64.7024 L 245.35,-74 L 245.406,-74.5302 L 245.57,-75.0372 L 245.837,-75.4988 L 246.194,-75.895
 L 246.625,-76.2084 L 247.112,-76.4252 L 247.633,-76.536 L 248.167,-76.536 L 248.688,-76.4252 L 249.175,-76.2084
 L 249.606,-75.895 L 249.963,-75.4988 L 250.23,-75.0372 L 250.394,-74.5302 L 250.45,-74 L 250.45,-64.7024
 L 250.792,-64.4804 L 251.192,-64.1563 L 251.556,-63.7921 L 251.88,-63.3919 L 252.161,-62.96 L 252.395,-62.5011
 L 252.579,-62.0204 L 252.712,-61.5229 L 252.793,-61.0143 L 252.82,-60.5 L 252.793,-59.9857 L 252.712,-59.4771
 L 252.579,-58.9796 L 252.395,-58.4989 L 252.161,-58.04 L 251.88,-57.6081 L 251.556,-57.2079 L 251.192,-56.8437
 L 250.792,-56.5196 L 250.36,-56.2392 L 249.901,-56.0054 L 249.42,-55.8208 L 248.923,-55.6875 L 248.414,-55.607
 L 247.9,-55.58 z
M 367.586,-55.607 L 367.077,-55.6875 L 366.58,-55.8208 L 366.099,-56.0054 L 365.64,-56.2392 L 365.208,-56.5196
 L 364.808,-56.8437 L 364.444,-57.2079 L 364.12,-57.6081 L 363.839,-58.04 L 363.605,-58.4989 L 363.421,-58.9796
 L 363.288,-59.4771 L 363.207,-59.9857 L 363.18,-60.5 L 363.207,-61.0143 L 363.288,-61.5229 L 363.421,-62.0204
 L 363.605,-62.5011 L 363.839,-62.96 L 364.12,-63.3919 L 364.444,-63.7921 L 364.808,-64.1563 L 365.208,-64.4804
 L 365.55,-64.7024 L 365.55,-74 L 365.606,-74.5302 L 365.77,-75.0372 L 366.037,-75.4988 L 366.394,-75.895
 L 366.825,-76.2084 L 367.312,-76.4252 L 367.833,-76.536 L 368.367,-76.536 L 368.888,-76.4252 L 369.375,-76.2084
 L 369.806,-75.895 L 370.163,-75.4988 L 370.43,-75.0372 L 370.594,-74.5302 L 370.65,-74 L 370.65,-64.7024
 L 370.992,-64.4804 L 371.392,-64.1563 L 371.756,-63.7921 L 372.08,-63.3919 L 372.361,-62.96 L 372.595,-62.5011
 L 372.779,-62.0204 L 372.912,-61.5229 L 372.993,-61.0143 L 373.02,-60.5 L 372.993,-59.9857 L 372.912,-59.4771
 L 372.779,-58.9796 L 372.595,-58.4989 L 372.361,-58.04 L 372.08,-57.6081 L 371.756,-57.2079 L 371.392,-56.8437
 L 370.992,-56.5196 L 370.56,-56.2392 L 370.101,-56.0054 L 369.62,-55.8208 L 369.123,-55.6875 L 368.614,-55.607
 L 368.1,-55.58 z
M 487.786,-55.607 L 487.277,-55.6875 L 486.78,-55.8208 L 486.299,-56.0054 L 485.84,-56.2392 L 485.408,-56.5196
 L 485.008,-56.8437 L 484.644,-57.2079 L 484.32,-57.6081 L 484.039,-58.04 L 483.805,-58.4989 L 483.621,-58.9796
 L 483.488,-59.4771 L 483.407,-59.9857 L 483.38,-60.5 L 483.407,-61.0143 L 483.488,-61.5229 L 483.621,-62.0204
 L 483.805,-62.5011 L 484.039,-62.96 L 484.32,-63.3919 L 484.644,-63.7921 L 485.008,-64.1563 L 485.408,-64.4804
 L 485.75,-64.7024 L 485.75,-74 L 485.806,-74.5302 L 485.97,-75.0372 L 486.237,-75.4988 L 486.594,-75.895
 L 487.025,-76.2084 L 487.512,-76.4252 L 488.033,-76.536 L 488.567,-76.536 L 489.088,-76.4252 L 489.575,-76.2084
 L 490.006,-75.895 L 490.363,-75.4988 L 490.63,-75.0372 L 490.794,-74.5302 L 490.85,-74 L 490.85,-64.7024
 L 491.192,-64.4804 L 491.592,-64.1563 L 491.956,-63.7921 L 492.28,-63.3919 L 492.561,-62.96 L 492.795,-62.5011
 L 492.979,-62.0204 L 493.112,-61.5229 L 493.193,-61.0143 L 493.22,-60.5 L 493.193,-59.9857 L 493.112,-59.4771
 L 492.979,-58.9796 L 492.795,-58.4989 L 492.561,-58.04 L 492.28,-57.6081 L 491.956,-57.2079 L 491.592,-56.8437
 L 491.192,-56.5196 L 490.76,-56.2392 L 490.301,-56.0054 L 489.82,-55.8208 L 489.323,-55.6875 L 488.814,-55.607
 L 488.3,-55.58 z
M 607.986,-55.607 L 607.477,-55.6875 L 606.98,-55.8208 L 606.499,-56.0054 L 606.04,-56.2392 L 605.608,-56.5196
 L 605.208,-56.8437 L 604.844,-57.2079 L 604.52,-57.6081 L 604.239,-58.04 L 604.005,-58.4989 L 603.821,-58.9796
 L 603.688,-59.4771 L 603.607,-59.9857 L 603.58,-60.5 L 603.607,-61.0143 L 603.688,-61.5229 L 603.821,-62.0204
 L 604.005,-62.5011 L 604.239,-62.96 L 604.52,-63.3919 L 604.844,-63.7921 L 605.208,-64.1563 L 605.608,-64.4804
 L 605.95,-64.7024 L 605.95,-74 L 606.006,-74.5302 L 606.17,-75.0372 L 606.437,-75.4988 L 606.794,-75.895
 L 607.225,-76.2084 L 607.712,-76.4252 L 608.233,-76.536 L 608.767,-76.536 L 609.288,-76.4252 L 609.775,-76.2084
 L 610.206,-75.895 L 610.563,-75.4988 L 610.83,-75.0372 L 610.994,-74.5302 L 611.05,-74 L 611.05,-64.7024
 L 611.392,-64.4804 L 611.792,-64.1563 L 612.156,-63.7921 L 612.48,-63.3919 L 612.761,-62.96 L 612.995,-62.5011
 L 613.179,-62.0204 L 613.312,-61.5229 L 613.393,-61.0143 L 613.42,-60.5 L 613.393,-59.9857 L 613.312,-59.4771
 L 613.179,-58.9796 L 612.995,-58.4989 L 612.761,-58.04 L 612.48,-57.6081 L 612.156,-57.2079 L 611.792,-56.8437
 L 611.392,-56.5196 L 610.96,-56.2392 L 610.501,-56.0054 L 610.02,-55.8208 L 609.523,-55.6875 L 609.014,-55.607
 L 608.5,-55.58 z
M 306.797,-48.8228 L 306.03,-49.1563 L 296.552,-54.5185 L 296.17,-54.7639 L 295.549,-55.3235 L 295.057,-56
 L 294.717,-56.7639 L 294.543,-57.5819 L 294.543,-58.4181 L 294.717,-59.2361 L 295.057,-60 L 295.549,-60.6765
 L 296.17,-61.2361 L 296.894,-61.6542 L 297.69,-61.9126 L 298.521,-62 L 317.479,-62 L 317.931,-61.9743
 L 318.748,-61.7932 L 319.509,-61.4464 L 320.181,-60.949 L 320.735,-60.3227 L 321.147,-59.5949 L 321.398,-58.7973
 L 321.478,-57.965 L 321.384,-57.1341 L 321.118,-56.3411 L 320.694,-55.6206 L 320.129,-55.0041 L 319.448,-54.5185
 L 309.97,-49.1563 L 309.269,-48.8445 L 308.453,-48.6635 L 307.617,-48.6562 z
M 233.697,-24.475 L 232.93,-24.8084 L 180.414,-54.5185 L 180.032,-54.7639 L 179.41,-55.3235 L 178.919,-56
 L 178.579,-56.7639 L 178.405,-57.5819 L 178.405,-58.4181 L 178.579,-59.2361 L 178.919,-60 L 179.41,-60.6765
 L 180.032,-61.2361 L 180.756,-61.6542 L 181.551,-61.9126 L 182.383,-62 L 234.9,-62 L 236.136,-61.8042
 L 236.9,-61.4641 L 237.577,-60.9726 L 238.136,-60.3511 L 238.554,-59.627 L 238.813,-58.8316 L 238.9,-58
 L 238.9,-28.2899 L 238.82,-27.4926 L 238.568,-26.6951 L 238.157,-25.9672 L 237.602,-25.3409 L 236.93,-24.8435
 L 236.169,-24.4967 L 235.353,-24.3157 L 234.517,-24.3083 z
M 500.847,-24.3157 L 500.031,-24.4967 L 499.27,-24.8435 L 498.598,-25.3409 L 498.043,-25.9672 L 497.632,-26.6951
 L 497.38,-27.4926 L 497.3,-28.2899 L 497.3,-58 L 497.387,-58.8316 L 497.646,-59.627 L 498.064,-60.3511
 L 498.623,-60.9726 L 499.3,-61.4641 L 500.064,-61.8042 L 501.3,-62 L 553.817,-62 L 554.649,-61.9126
 L 555.444,-61.6542 L 556.168,-61.2361 L 556.79,-60.6765 L 557.281,-60 L 557.621,-59.2361 L 557.795,-58.4181
 L 557.795,-57.5819 L 557.621,-56.7639 L 557.281,-56 L 556.79,-55.3235 L 556.168,-54.7639 L 555.786,-54.5185
 L 503.27,-24.8084 L 502.503,-24.475 L 501.683,-24.3083 z
M 113.497,-24.475 L 112.73,-24.8084 L 60.2135,-54.5185 L 59.8319,-54.7639 L 59.2105,-55.3235 L 58.719,-56
 L 58.3788,-56.7639 L 58.205,-57.5819 L 58.205,-58.4181 L 58.3788,-59.2361 L 58.719,-60 L 59.2105,-60.6765
 L 59.8319,-61.2361 L 60.5561,-61.6542 L 61.3514,-61.9126 L 62.1831,-62 L 114.7,-62 L 115.936,-61.8042
 L 116.7,-61.4641 L 117.377,-60.9726 L 117.936,-60.3511 L 118.354,-59.627 L 118.613,-58.8316 L 118.7,-58
 L 118.7,-28.2899 L 118.62,-27.4926 L 118.368,-26.6951 L 117.957,-25.9672 L 117.402,-25.3409 L 116.73,-24.8435
 L 115.969,-24.4967 L 115.153,-24.3157 L 114.317,-24.3083 z
M 380.647,-24.3157 L 379.831,-24.4967 L 379.07,-24.8435 L 378.398,-25.3409 L 377.843,-25.9672 L 377.432,-26.6951
 L 377.18,-27.4926 L 377.1,-28.2899 L 377.1,-58 L 377.187,-58.8316 L 377.446,-59.627 L 377.864,-60.3511
 L 378.423,-60.9726 L 379.1,-61.4641 L 379.864,-61.8042 L 381.1,-62 L 433.617,-62 L 434.449,-61.9126
 L 435.244,-61.6542 L 435.968,-61.2361 L 436.589,-60.6765 L 437.081,-60 L 437.421,-59.2361 L 437.595,-58.4181
 L 437.595,-57.5819 L 437.421,-56.7639 L 437.081,-56 L 436.589,-55.3235 L 435.968,-54.7639 L 435.586,-54.5185
 L 383.07,-24.8084 L 382.303,-24.475 L 381.483,-24.3083 z
M 260.482,-22.0141 L 259.664,-22.1879 L 258.9,-22.5281 L 258.223,-23.0196 L 257.664,-23.641 L 257.246,-24.3652
 L 256.987,-25.1605 L 256.9,-25.9922 L 256.9,-54.0078 L 256.98,-54.8052 L 257.232,-55.6027 L 257.643,-56.3305
 L 258.198,-56.9568 L 258.87,-57.4543 L 259.631,-57.8011 L 260.447,-57.9821 L 261.283,-57.9894 L 262.103,-57.8227
 L 262.87,-57.4893 L 287.63,-43.4815 L 288.363,-42.949 L 288.917,-42.3227 L 289.329,-41.5949 L 289.581,-40.7973
 L 289.661,-39.965 L 289.566,-39.1341 L 289.301,-38.3411 L 288.876,-37.6206 L 288.311,-37.0041 L 287.63,-36.5185
 L 262.87,-22.5107 L 262.136,-22.1879 L 261.318,-22.0141 z
M 353.897,-22.1773 L 353.13,-22.5107 L 328.37,-36.5185 L 327.637,-37.051 L 327.083,-37.6773 L 326.671,-38.4051
 L 326.419,-39.2027 L 326.339,-40.035 L 326.434,-40.8659 L 326.699,-41.6589 L 327.124,-42.3794 L 327.689,-42.9959
 L 328.37,-43.4815 L 353.13,-57.4893 L 353.864,-57.8121 L 354.682,-57.9859 L 355.518,-57.9859 L 356.336,-57.8121
 L 357.1,-57.4719 L 357.777,-56.9804 L 358.336,-56.359 L 358.754,-55.6348 L 359.013,-54.8395 L 359.1,-54.0078
 L 359.1,-25.9922 L 359.02,-25.1948 L 358.768,-24.3973 L 358.357,-23.6695 L 357.802,-23.0432 L 357.13,-22.5457
 L 356.369,-22.1989 L 355.553,-22.0179 L 354.717,-22.0106 z
M 140.7,-18 L 139.464,-18.1958 L 138.7,-18.5359 L 138.023,-19.0274 L 137.464,-19.6489 L 137.046,-20.373
 L 136.787,-21.1684 L 136.7,-22 L 136.7,-51.7101 L 136.78,-52.5074 L 137.032,-53.3049 L 137.443,-54.0327
 L 137.998,-54.6591 L 138.67,-55.1565 L 139.431,-55.5033 L 140.247,-55.6843 L 141.083,-55.6917 L 141.903,-55.525
 L 142.67,-55.1915 L 195.186,-25.4815 L 195.568,-25.2361 L 196.189,-24.6765 L 196.681,-24 L 197.021,-23.2361
 L 197.195,-22.4181 L 197.195,-21.5819 L 197.021,-20.7639 L 196.681,-20 L 196.189,-19.3235 L 195.568,-18.7639
 L 194.844,-18.3458 L 194.049,-18.0874 L 193.217,-18 z
M 422.783,-18 L 421.951,-18.0874 L 421.156,-18.3458 L 420.432,-18.7639 L 419.811,-19.3235 L 419.319,-20
 L 418.979,-20.7639 L 418.805,-21.5819 L 418.805,-22.4181 L 418.979,-23.2361 L 419.319,-24 L 419.811,-24.6765
 L 420.432,-25.2361 L 420.814,-25.4815 L 473.33,-55.1915 L 474.097,-55.525 L 474.917,-55.6917 L 475.753,-55.6843
 L 476.569,-55.5033 L 477.33,-55.1565 L 478.002,-54.6591 L 478.557,-54.0327 L 478.968,-53.3049 L 479.22,-52.5074
 L 479.3,-51.7101 L 479.3,-22 L 479.213,-21.1684 L 478.954,-20.373 L 478.536,-19.6489 L 477.977,-19.0274
 L 477.3,-18.5359 L 476.536,-18.1958 L 475.3,-18 z
M 22,-18 L 20.7639,-18.1958 L 20,-18.5359 L 19.3235,-19.0274 L 18.7639,-19.6489 L 18.3458,-20.373
 L 18.0874,-21.1684 L 18,-22 L 18,-50.8615 L 18.0803,-51.6588 L 18.3317,-52.4563 L 18.7435,-53.1842
 L 19.2975,-53.8105 L 19.9697,-54.3079 L 20.7306,-54.6547 L 21.547,-54.8357 L 22.3832,-54.8431 L 23.2027,-54.6764
 L 23.9696,-54.343 L 74.9865,-25.4815 L 75.368,-25.2361 L 75.9895,-24.6765 L 76.481,-24 L 76.8211,-23.2361
 L 76.995,-22.4181 L 76.995,-21.5819 L 76.8211,-20.7639 L 76.481,-20 L 75.9895,-19.3235 L 75.368,-18.7639
 L 74.6439,-18.3458 L 73.8486,-18.0874 L 73.0169,-18 z
M 542.983,-18 L 542.151,-18.0874 L 541.356,-18.3458 L 540.632,-18.7639 L 540.011,-19.3235 L 539.519,-20
 L 539.179,-20.7639 L 539.005,-21.5819 L 539.005,-22.4181 L 539.179,-23.2361 L 539.519,-24 L 540.011,-24.6765
 L 540.632,-25.2361 L 541.014,-25.4815 L 592.03,-54.343 L 592.797,-54.6764 L 593.617,-54.8431 L 594.453,-54.8357
 L 595.269,-54.6547 L 596.03,-54.3079 L 596.702,-53.8105 L 597.257,-53.1842 L 597.668,-52.4563 L 597.92,-51.6588
 L 598,-50.8615 L 598,-22 L 597.913,-21.1684 L 597.654,-20.373 L 597.236,-19.6489 L 596.677,-19.0274
 L 596,-18.5359 L 595.236,-18.1958 L 594,-18 z
M 298.521,-18 L 298.068,-18.0257 L 297.252,-18.2068 L 296.491,-18.5536 L 295.819,-19.051 L 295.265,-19.6773
 L 294.853,-20.4051 L 294.602,-21.2027 L 294.522,-22.035 L 294.616,-22.8659 L 294.882,-23.6589 L 295.306,-24.3794
 L 295.871,-24.9959 L 296.552,-25.4815 L 306.03,-30.8437 L 306.731,-31.1555 L 307.547,-31.3365 L 308.383,-31.3438
 L 309.203,-31.1772 L 309.97,-30.8437 L 319.448,-25.4815 L 319.83,-25.2361 L 320.451,-24.6765 L 320.943,-24
 L 321.283,-23.2361 L 321.457,-22.4181 L 321.457,-21.5819 L 321.283,-20.7639 L 320.943,-20 L 320.451,-19.3235
 L 319.83,-18.7639 L 319.105,-18.3458 L 318.31,-18.0874 L 317.479,-18 z
" stroke="black" fill="lightgray" stroke-width="0.5"/>
</svg>
