<?xml version="1.0" standalone="no"?>
<!DOCTYPE svg PUBLIC "-//W3C//DTD SVG 1.1//EN" "http://www.w3.org/Graphics/SVG/1.1/DTD/svg11.dtd">
<svg width="580mm" height="80mm" viewBox="0 -80 580 80" xmlns="http://www.w3.org/2000/svg" version="1.1">
<title>OpenSCAD Model</title>
<path d="
M 580,-80 L 0,-80 L 0,-0 L 4.95,-0 L 4.95,-6 L 5.00572,-6.53017
 L 5.17046,-7.03717 L 5.437,-7.49884 L 5.79372,-7.895 L 6.22499,-8.20836 L 6.71201,-8.42519 L 7.23344,-8.53603
 L 7.76654,-8.53603 L 8.28798,-8.42519 L 8.77499,-8.20836 L 9.20627,-7.895 L 9.56299,-7.49884 L 9.82953,-7.03717
 L 9.99426,-6.53017 L 10.05,-6 L 10.05,-0 L 146.2,-0 L 146.2,-6 L 146.256,-6.53017
 L 146.42,-7.03717 L 146.687,-7.49884 L 147.044,-7.895 L 147.475,-8.20836 L 147.962,-8.42519 L 148.483,-8.53603
 L 149.017,-8.53603 L 149.538,-8.42519 L 150.025,-8.20836 L 150.456,-7.895 L 150.813,-7.49884 L 151.08,-7.03717
 L 151.244,-6.53017 L 151.3,-6 L 151.3,-0 L 287.45,-0 L 287.45,-6 L 287.506,-6.53017
 L 287.67,-7.03717 L 287.937,-7.49884 L 288.294,-7.895 L 288.725,-8.20836 L 289.212,-8.42519 L 289.733,-8.53603
 L 290.267,-8.53603 L 290.788,-8.42519 L 291.275,-8.20836 L 291.706,-7.895 L 292.063,-7.49884 L 292.33,-7.03717
 L 292.494,-6.53017 L 292.55,-6 L 292.55,-0 L 428.7,-0 L 428.7,-6 L 428.756,-6.53017
 L 428.92,-7.03717 L 429.187,-7.49884 L 429.544,-7.895 L 429.975,-8.20836 L 430.462,-8.42519 L 430.983,-8.53603
 L 431.517,-8.53603 L 432.038,-8.42519 L 432.525,-8.20836 L 432.956,-7.895 L 433.313,-7.49884 L 433.58,-7.03717
 L 433.744,-6.53017 L 433.8,-6 L 433.8,-0 L 569.95,-0 L 569.95,-6 L 570.006,-6.53017
 L 570.17,-7.03717 L 570.437,-7.49884 L 570.794,-7.895 L 571.225,-8.20836 L 571.712,-8.42519 L 572.233,-8.53603
 L 572.767,-8.53603 L 573.288,-8.42519 L 573.775,-8.20836 L 574.206,-7.895 L 574.563,-7.49884 L 574.83,-7.03717
 L 574.994,-6.53017 L 575.05,-6 L 575.05,-0 L 580,-0 z
M 6.98573,-55.607 L 6.47708,-55.6875 L 5.97964,-55.8208 L 5.49887,-56.0054 L 5.04001,-56.2392 L 4.60811,-56.5196
 L 4.20789,-56.8437 L 3.84373,-57.2079 L 3.51964,-57.6081 L 3.23917,-58.04 L 3.00537,-58.4989 L 2.82082,-58.9796
 L 2.68752,-59.4771 L 2.60696,-59.9857 L 2.58,-60.5 L 2.60696,-61.0143 L 2.68752,-61.5229 L 2.82082,-62.0204
 L 3.00537,-62.5011 L 3.23917,-62.96 L 3.51964,-63.3919 L 3.84373,-63.7921 L 4.20789,-64.1563 L 4.60811,-64.4804
 L 4.95001,-64.7024 L 4.95001,-74 L 5.00574,-74.5302 L 5.17047,-75.0372 L 5.43701,-75.4988 L 5.79373,-75.895
 L 6.22501,-76.2084 L 6.71202,-76.4252 L 7.23346,-76.536 L 7.76654,-76.536 L 8.28798,-76.4252 L 8.77499,-76.2084
 L 9.20627,-75.895 L 9.56299,-75.4988 L 9.82953,-75.0372 L 9.99426,-74.5302 L 10.05,-74 L 10.05,-64.7024
 L 10.3919,-64.4804 L 10.7921,-64.1563 L 11.1563,-63.7921 L 11.4804,-63.3919 L 11.7608,-62.96 L 11.9946,-62.5011
 L 12.1792,-62.0204 L 12.3125,-61.5229 L 12.393,-61.0143 L 12.42,-60.5 L 12.393,-59.9857 L 12.3125,-59.4771
 L 12.1792,-58.9796 L 11.9946,-58.4989 L 11.7608,-58.04 L 11.4804,-57.6081 L 11.1563,-57.2079 L 10.7921,-56.8437
 L 10.3919,-56.5196 L 9.95999,-56.2392 L 9.50113,-56.0054 L 9.02036,-55.8208 L 8.52292,-55.6875 L 8.01427,-55.607
 L 7.5,-55.58 z
M 148.236,-55.607 L 147.727,-55.6875 L 147.23,-55.8208 L 146.749,-56.0054 L 146.29,-56.2392 L 145.858,-56.5196
 L 145.458,-56.8437 L 145.094,-57.2079 L 144.77,-57.6081 L 144.489,-58.04 L 144.255,-58.4989 L 144.071,-58.9796
 L 143.938,-59.4771 L 143.857,-59.9857 L 143.83,-60.5 L 143.857,-61.0143 L 143.938,-61.5229 L 144.071,-62.0204
 L 144.255,-62.5011 L 144.489,-62.96 L 144.77,-63.3919 L 145.094,-63.7921 L 145.458,-64.1563 L 145.858,-64.4804
 L 146.2,-64.7024 L 146.2,-74 L 146.256,-74.5302 L 146.42,-75.0372 L 146.687,-75.4988 L 147.044,-75.895
 L 147.475,-76.2084 L 147.962,-76.4252 L 148.483,-76.536 L 149.017,-76.536 L 149.538,-76.4252 L 150.025,-76.2084
 L 150.456,-75.895 L 150.813,-75.4988 L 151.08,-75.0372 L 151.244,-74.5302 L 151.3,-74 L 151.3,-64.7024
 L 151.642,-64.4804 L 152.042,-64.1563 L 152.406,-63.7921 L 152.73,-63.3919 L 153.011,-62.96 L 153.245,-62.5011
 L 153.429,-62.0204 L 153.562,-61.5229 L 153.643,-61.0143 L 153.67,-60.5 L 153.643,-59.9857 L 153.562,-59.4771
 L 153.429,-58.9796 L 153.245,-58.4989 L 153.011,-58.04 L 152.73,-57.6081 L 152.406,-57.2079 L 152.042,-56.8437
 L 151.642,-56.5196 L 151.21,-56.2392 L 150.751,-56.0054 L 150.27,-55.8208 L 149.773,-55.6875 L 149.264,-55.607
 L 148.75,-55.58 z
M 289.486,-55.607 L 288.977,-55.6875 L 288.48,-55.8208 L 287.999,-56.0054 L 287.54,-56.2392 L 287.108,-56.5196
 L 286.708,-56.8437 L 286.344,-57.2079 L 286.02,-57.6081 L 285.739,-58.04 L 285.505,-58.4989 L 285.321,-58.9796
 L 285.188,-59.4771 L 285.107,-59.9857 L 285.08,-60.5 L 285.107,-61.0143 L 285.188,-61.5229 L 285.321,-62.0204
 L 285.505,-62.5011 L 285.739,-62.96 L 286.02,-63.3919 L 286.344,-63.7921 L 286.708,-64.1563 L 287.108,-64.4804
 L 287.45,-64.7024 L 287.45,-74 L 287.506,-74.5302 L 287.67,-75.0372 L 287.937,-75.4988 L 288.294,-75.895
 L 288.725,-76.2084 L 289.212,-76.4252 L 289.733,-76.536 L 290.267,-76.536 L 290.788,-76.4252 L 291.275,-76.2084
 L 291.706,-75.895 L 292.063,-75.4988 L 292.33,-75.0372 L 292.494,-74.5302 L 292.55,-74 L 292.55,-64.7024
 L 292.892,-64.4804 L 293.292,-64.1563 L 293.656,-63.7921 L 293.98,-63.3919 L 294.261,-62.96 L 294.495,-62.5011
 L 294.679,-62.0204 L 294.812,-61.5229 L 294.893,-61.0143 L 294.92,-60.5 L 294.893,-59.9857 L 294.812,-59.4771
 L 294.679,-58.9796 L 294.495,-58.4989 L 294.261,-58.04 L 293.98,-57.6081 L 293.656,-57.2079 L 293.292,-56.8437
 L 292.892,-56.5196 L 292.46,-56.2392 L 292.001,-56.0054 L 291.52,-55.8208 L 291.023,-55.6875 L 290.514,-55.607
 L 290,-55.58 z
M 430.736,-55.607 L 430.227,-55.6875 L 429.73,-55.8208 L 429.249,-56.0054 L 428.79,-56.2392 L 428.358,-56.5196
 L 427.958,-56.8437 L 427.594,-57.2079 L 427.27,-57.6081 L 426.989,-58.04 L 426.755,-58.4989 L 426.571,-58.9796
 L 426.438,-59.4771 L 426.357,-59.9857 L 426.33,-60.5 L 426.357,-61.0143 L 426.438,-61.5229 L 426.571,-62.0204
 L 426.755,-62.5011 L 426.989,-62.96 L 427.27,-63.3919 L 427.594,-63.7921 L 427.958,-64.1563 L 428.358,-64.4804
 L 428.7,-64.7024 L 428.7,-74 L 428.756,-74.5302 L 428.92,-75.0372 L 429.187,-75.4988 L 429.544,-75.895
 L 429.975,-76.2084 L 430.462,-76.4252 L 430.983,-76.536 L 431.517,-76.536 L 432.038,-76.4252 L 432.525,-76.2084
 L 432.956,-75.895 L 433.313,-75.4988 L 433.58,-75.0372 L 433.744,-74.5302 L 433.8,-74 L 433.8,-64.7024
 L 434.142,-64.4804 L 434.542,-64.1563 L 434.906,-63.7921 L 435.23,-63.3919 L 435.511,-62.96 L 435.745,-62.5011
 L 435.929,-62.0204 L 436.062,-61.5229 L 436.143,-61.0143 L 436.17,-60.5 L 436.143,-59.9857 L 436.062,-59.4771
 L 435.929,-58.9796 L 435.745,-58.4989 L 435.511,-58.04 L 435.23,-57.6081 L 434.906,-57.2079 L 434.542,-56.8437
 L 434.142,-56.5196 L 433.71,-56.2392 L 433.251,-56.0054 L 432.77,-55.8208 L 432.273,-55.6875 L 431.764,-55.607
 L 431.25,-55.58 z
M 571.986,-55.607 L 571.477,-55.6875 L 570.98,-55.8208 L 570.499,-56.0054 L 570.04,-56.2392 L 569.608,-56.5196
 L 569.208,-56.8437 L 568.844,-57.2079 L 568.52,-57.6081 L 568.239,-58.04 L 568.005,-58.4989 L 567.821,-58.9796
 L 567.688,-59.4771 L 567.607,-59.9857 L 567.58,-60.5 L 567.607,-61.0143 L 567.688,-61.5229 L 567.821,-62.0204
 L 568.005,-62.5011 L 568.239,-62.96 L 568.52,-63.3919 L 568.844,-63.7921 L 569.208,-64.1563 L 569.608,-64.4804
 L 569.95,-64.7024 L 569.95,-74 L 570.006,-74.5302 L 570.17,-75.0372 L 570.437,-75.4988 L 570.794,-75.895
 L 571.225,-76.2084 L 571.712,-76.4252 L 572.233,-76.536 L 572.767,-76.536 L 573.288,-76.4252 L 573.775,-76.2084
 L 574.206,-75.895 L 574.563,-75.4988 L 574.83,-75.0372 L 574.994,-74.5302 L 575.05,-74 L 575.05,-64.7024
 L 575.392,-64.4804 L 575.792,-64.1563 L 576.156,-63.7921 L 576.48,-63.3919 L 576.761,-62.96 L 576.995,-62.5011
 L 577.179,-62.0204 L 577.312,-61.5229 L 577.393,-61.0143 L 577.42,-60.5 L 577.393,-59.9857 L 577.312,-59.4771
 L 577.179,-58.9796 L 576.995,-58.4989 L 576.761,-58.04 L 576.48,-57.6081 L 576.156,-57.2079 L 575.792,-56.8437
 L 575.392,-56.5196 L 574.96,-56.2392 L 574.501,-56.0054 L 574.02,-55.8208 L 573.523,-55.6875 L 573.014,-55.607
 L 572.5,-55.58 z
M 302.285,-22.7444 L 301.483,-22.979 L 300.746,-23.3753 L 300.108,-23.9161 L 299.597,-24.5777 L 299.234,-25.3312
 L 299.036,-26.1436 L 299,-26.68 L 299,-58 L 299.087,-58.8316 L 299.346,-59.627 L 299.764,-60.3511
 L 300.323,-60.9726 L 301,-61.4641 L 301.764,-61.8042 L 303,-62 L 368.058,-62 L 368.89,-61.9126
 L 369.685,-61.6542 L 370.409,-61.2361 L 371.031,-60.6765 L 371.522,-60 L 371.862,-59.2361 L 372.036,-58.4181
 L 372.036,-57.5819 L 371.862,-56.7639 L 371.522,-56 L 371.031,-55.3235 L 370.409,-54.7639 L 369.793,-54.3959
 L 304.735,-23.0759 L 303.948,-22.7939 L 303.119,-22.6818 z
M 276.052,-22.7939 L 275.265,-23.0759 L 210.207,-54.3959 L 209.591,-54.7639 L 208.969,-55.3235 L 208.478,-56
 L 208.138,-56.7639 L 207.964,-57.5819 L 207.964,-58.4181 L 208.138,-59.2361 L 208.478,-60 L 208.969,-60.6765
 L 209.591,-61.2361 L 210.315,-61.6542 L 211.11,-61.9126 L 211.942,-62 L 277,-62 L 278.236,-61.8042
 L 279,-61.4641 L 279.677,-60.9726 L 280.236,-60.3511 L 280.654,-59.627 L 280.913,-58.8316 L 281,-58
 L 281,-26.68 L 280.964,-26.1436 L 280.766,-25.3312 L 280.403,-24.5777 L 279.892,-23.9161 L 279.254,-23.3753
 L 278.517,-22.979 L 277.715,-22.7444 L 276.881,-22.6818 z
M 443.535,-22.7444 L 442.733,-22.979 L 441.996,-23.3753 L 441.358,-23.9161 L 440.847,-24.5777 L 440.484,-25.3312
 L 440.286,-26.1436 L 440.25,-26.68 L 440.25,-58 L 440.337,-58.8316 L 440.596,-59.627 L 441.014,-60.3511
 L 441.573,-60.9726 L 442.25,-61.4641 L 443.014,-61.8042 L 444.25,-62 L 509.308,-62 L 510.14,-61.9126
 L 510.935,-61.6542 L 511.659,-61.2361 L 512.281,-60.6765 L 512.772,-60 L 513.112,-59.2361 L 513.286,-58.4181
 L 513.286,-57.5819 L 513.112,-56.7639 L 512.772,-56 L 512.281,-55.3235 L 511.659,-54.7639 L 511.043,-54.3959
 L 445.985,-23.0759 L 445.198,-22.7939 L 444.369,-22.6818 z
M 134.802,-22.7939 L 134.015,-23.0759 L 68.9568,-54.3959 L 68.3408,-54.7639 L 67.7193,-55.3235 L 67.2278,-56
 L 66.8877,-56.7639 L 66.7138,-57.5819 L 66.7138,-58.4181 L 66.8877,-59.2361 L 67.2278,-60 L 67.7193,-60.6765
 L 68.3408,-61.2361 L 69.065,-61.6542 L 69.8603,-61.9126 L 70.6919,-62 L 135.75,-62 L 136.986,-61.8042
 L 137.75,-61.4641 L 138.427,-60.9726 L 138.986,-60.3511 L 139.404,-59.627 L 139.663,-58.8316 L 139.75,-58
 L 139.75,-26.68 L 139.714,-26.1436 L 139.516,-25.3312 L 139.153,-24.5777 L 138.642,-23.9161 L 138.004,-23.3753
 L 137.267,-22.979 L 136.465,-22.7444 L 135.631,-22.6818 z
M 353.192,-18 L 352.36,-18.0874 L 351.565,-18.3458 L 350.841,-18.7639 L 350.219,-19.3235 L 349.728,-20
 L 349.388,-20.7639 L 349.214,-21.5819 L 349.214,-22.4181 L 349.388,-23.2361 L 349.728,-24 L 350.219,-24.6765
 L 350.841,-25.2361 L 351.457,-25.6041 L 416.515,-56.9241 L 417.302,-57.2061 L 418.131,-57.3182 L 418.965,-57.2556
 L 419.767,-57.021 L 420.504,-56.6246 L 421.142,-56.0839 L 421.653,-55.4223 L 422.016,-54.6688 L 422.214,-53.8564
 L 422.25,-53.32 L 422.25,-22 L 422.163,-21.1684 L 421.904,-20.373 L 421.486,-19.6489 L 420.927,-19.0274
 L 420.25,-18.5359 L 419.486,-18.1958 L 418.25,-18 z
M 161.75,-18 L 160.514,-18.1958 L 159.75,-18.5359 L 159.073,-19.0274 L 158.514,-19.6489 L 158.096,-20.373
 L 157.837,-21.1684 L 157.75,-22 L 157.75,-53.32 L 157.786,-53.8564 L 157.984,-54.6688 L 158.347,-55.4223
 L 158.858,-56.0839 L 159.496,-56.6246 L 160.233,-57.021 L 161.035,-57.2556 L 161.869,-57.3182 L 162.698,-57.2061
 L 163.485,-56.9241 L 228.543,-25.6041 L 229.159,-25.2361 L 229.781,-24.6765 L 230.272,-24 L 230.612,-23.2361
 L 230.786,-22.4181 L 230.786,-21.5819 L 230.612,-20.7639 L 230.272,-20 L 229.781,-19.3235 L 229.159,-18.7639
 L 228.435,-18.3458 L 227.64,-18.0874 L 226.808,-18 z
M 22,-18 L 20.7639,-18.1958 L 20,-18.5359 L 19.3235,-19.0274 L 18.7639,-19.6489 L 18.3458,-20.373
 L 18.0874,-21.1684 L 18,-22 L 18,-52.5979 L 18.0361,-53.1343 L 18.2343,-53.9467 L 18.597,-54.7001
 L 19.1085,-55.3617 L 19.7463,-55.9025 L 20.4826,-56.2989 L 21.2853,-56.5335 L 22.1191,-56.5961 L 22.9478,-56.4839
 L 23.7351,-56.202 L 87.2931,-25.6041 L 87.9092,-25.2361 L 88.5306,-24.6765 L 89.0221,-24 L 89.3623,-23.2361
 L 89.5361,-22.4181 L 89.5361,-21.5819 L 89.3623,-20.7639 L 89.0221,-20 L 88.5306,-19.3235 L 87.9092,-18.7639
 L 87.185,-18.3458 L 86.3897,-18.0874 L 85.558,-18 z
M 494.442,-18 L 493.61,-18.0874 L 492.815,-18.3458 L 492.091,-18.7639 L 491.469,-19.3235 L 490.978,-20
 L 490.638,-20.7639 L 490.464,-21.5819 L 490.464,-22.4181 L 490.638,-23.2361 L 490.978,-24 L 491.469,-24.6765
 L 492.091,-25.2361 L 492.707,-25.6041 L 556.265,-56.202 L 557.052,-56.4839 L 557.881,-56.5961 L 558.715,-56.5335
 L 559.517,-56.2989 L 560.254,-55.9025 L 560.892,-55.3617 L 561.403,-54.7001 L 561.766,-53.9467 L 561.964,-53.1343
 L 562,-52.5979 L 562,-22 L 561.913,-21.1684 L 561.654,-20.373 L 561.236,-19.6489 L 560.677,-19.0274
 L 560,-18.5359 L 559.236,-18.1958 L 558,-18 z
" stroke="black" fill="lightgray" stroke-width="0.5"/>
</svg>
