<?xml version="1.0" standalone="no"?>
<!DOCTYPE svg PUBLIC "-//W3C//DTD SVG 1.1//EN" "http://www.w3.org/Graphics/SVG/1.1/DTD/svg11.dtd">
<svg width="863mm" height="80mm" viewBox="0 -80 863 80" xmlns="http://www.w3.org/2000/svg" version="1.1">
<title>OpenSCAD Model</title>
<path d="
M 863,-80 L 0,-80 L 0,-0 L 4.95,-0 L 4.95,-6 L 5.00572,-6.53017
 L 5.17046,-7.03717 L 5.437,-7.49884 L 5.79372,-7.895 L 6.22499,-8.20836 L 6.71201,-8.42519 L 7.23344,-8.53603
 L 7.76654,-8.53603 L 8.28798,-8.42519 L 8.77499,-8.20836 L 9.20627,-7.895 L 9.56299,-7.49884 L 9.82953,-7.03717
 L 9.99426,-6.53017 L 10.05,-6 L 10.05,-0 L 174.55,-0 L 174.55,-6 L 174.606,-6.53017
 L 174.77,-7.03717 L 175.037,-7.49884 L 175.394,-7.895 L 175.825,-8.20836 L 176.312,-8.42519 L 176.833,-8.53603
 L 177.367,-8.53603 L 177.888,-8.42519 L 178.375,-8.20836 L 178.806,-7.895 L 179.163,-7.49884 L 179.43,-7.03717
 L 179.594,-6.53017 L 179.65,-6 L 179.65,-0 L 344.15,-0 L 344.15,-6 L 344.206,-6.53017
 L 344.37,-7.03717 L 344.637,-7.49884 L 344.994,-7.895 L 345.425,-8.20836 L 345.912,-8.42519 L 346.433,-8.53603
 L 346.967,-8.53603 L 347.488,-8.42519 L 347.975,-8.20836 L 348.406,-7.895 L 348.763,-7.49884 L 349.03,-7.03717
 L 349.194,-6.53017 L 349.25,-6 L 349.25,-0 L 513.75,-0 L 513.75,-6 L 513.806,-6.53017
 L 513.97,-7.03717 L 514.237,-7.49884 L 514.594,-7.895 L 515.025,-8.20836 L 515.512,-8.42519 L 516.033,-8.53603
 L 516.567,-8.53603 L 517.088,-8.42519 L 517.575,-8.20836 L 518.006,-7.895 L 518.363,-7.49884 L 518.63,-7.03717
 L 518.794,-6.53017 L 518.85,-6 L 518.85,-0 L 683.35,-0 L 683.35,-6 L 683.406,-6.53017
 L 683.57,-7.03717 L 683.837,-7.49884 L 684.194,-7.895 L 684.625,-8.20836 L 685.112,-8.42519 L 685.633,-8.53603
 L 686.167,-8.53603 L 686.688,-8.42519 L 687.175,-8.20836 L 687.606,-7.895 L 687.963,-7.49884 L 688.23,-7.03717
 L 688.394,-6.53017 L 688.45,-6 L 688.45,-0 L 852.95,-0 L 852.95,-6 L 853.006,-6.53017
 L 853.17,-7.03717 L 853.437,-7.49884 L 853.794,-7.895 L 854.225,-8.20836 L 854.712,-8.42519 L 855.233,-8.53603
 L 855.767,-8.53603 L 856.288,-8.42519 L 856.775,-8.20836 L 857.206,-7.895 L 857.563,-7.49884 L 857.83,-7.03717
 L 857.994,-6.53017 L 858.05,-6 L 858.05,-0 L 863,-0 z
M 6.98573,-55.607 L 6.47708,-55.6875 L 5.97964,-55.8208 L 5.49887,-56.0054 L 5.04001,-56.2392 L 4.60811,-56.5196
 L 4.20789,-56.8437 L 3.84373,-57.2079 L 3.51964,-57.6081 L 3.23917,-58.04 L 3.00537,-58.4989 L 2.82082,-58.9796
 L 2.68752,-59.4771 L 2.60696,-59.9857 L 2.58,-60.5 L 2.60696,-61.0143 L 2.68752,-61.5229 L 2.82082,-62.0204
 L 3.00537,-62.5011 L 3.23917,-62.96 L 3.51964,-63.3919 L 3.84373,-63.7921 L 4.20789,-64.1563 L 4.60811,-64.4804
 L 4.95001,-64.7024 L 4.95001,-74 L 5.00574,-74.5302 L 5.17047,-75.0372 L 5.43701,-75.4988 L 5.79373,-75.895
 L 6.22501,-76.2084 L 6.71202,-76.4252 L 7.23346,-76.536 L 7.76654,-76.536 L 8.28798,-76.4252 L 8.77499,-76.2084
 L 9.20627,-75.895 L 9.56299,-75.4988 L 9.82953,-75.0372 L 9.99426,-74.5302 L 10.05,-74 L 10.05,-64.7024
 L 10.3919,-64.4804 L 10.7921,-64.1563 L 11.1563,-63.7921 L 11.4804,-63.3919 L 11.7608,-62.96 L 11.9946,-62.5011
 L 12.1792,-62.0204 L 12.3125,-61.5229 L 12.393,-61.0143 L 12.42,-60.5 L 12.393,-59.9857 L 12.3125,-59.4771
 L 12.1792,-58.9796 L 11.9946,-58.4989 L 11.7608,-58.04 L 11.4804,-57.6081 L 11.1563,-57.2079 L 10.7921,-56.8437
 L 10.3919,-56.5196 L 9.95999,-56.2392 L 9.50113,-56.0054 L 9.02036,-55.8208 L 8.52292,-55.6875 L 8.01427,-55.607
 L 7.5,-55.58 z
M 176.586,-55.607 L 176.077,-55.6875 L 175.58,-55.8208 L 175.099,-56.0054 L 174.64,-56.2392 L 174.208,-56.5196
 L 173.808,-56.8437 L 173.444,-57.2079 L 173.12,-57.6081 L 172.839,-58.04 L 172.605,-58.4989 L 172.421,-58.9796
 L 172.288,-59.4771 L 172.207,-59.9857 L 172.18,-60.5 L 172.207,-61.0143 L 172.288,-61.5229 L 172.421,-62.0204
 L 172.605,-62.5011 L 172.839,-62.96 L 173.12,-63.3919 L 173.444,-63.7921 L 173.808,-64.1563 L 174.208,-64.4804
 L 174.55,-64.7024 L 174.55,-74 L 174.606,-74.5302 L 174.77,-75.0372 L 175.037,-75.4988 L 175.394,-75.895
 L 175.825,-76.2084 L 176.312,-76.4252 L 176.833,-76.536 L 177.367,-76.536 L 177.888,-76.4252 L 178.375,-76.2084
 L 178.806,-75.895 L 179.163,-75.4988 L 179.43,-75.0372 L 179.594,-74.5302 L 179.65,-74 L 179.65,-64.7024
 L 179.992,-64.4804 L 180.392,-64.1563 L 180.756,-63.7921 L 181.08,-63.3919 L 181.361,-62.96 L 181.595,-62.5011
 L 181.779,-62.0204 L 181.912,-61.5229 L 181.993,-61.0143 L 182.02,-60.5 L 181.993,-59.9857 L 181.912,-59.4771
 L 181.779,-58.9796 L 181.595,-58.4989 L 181.361,-58.04 L 181.08,-57.6081 L 180.756,-57.2079 L 180.392,-56.8437
 L 179.992,-56.5196 L 179.56,-56.2392 L 179.101,-56.0054 L 178.62,-55.8208 L 178.123,-55.6875 L 177.614,-55.607
 L 177.1,-55.58 z
M 346.186,-55.607 L 345.677,-55.6875 L 345.18,-55.8208 L 344.699,-56.0054 L 344.24,-56.2392 L 343.808,-56.5196
 L 343.408,-56.8437 L 343.044,-57.2079 L 342.72,-57.6081 L 342.439,-58.04 L 342.205,-58.4989 L 342.021,-58.9796
 L 341.888,-59.4771 L 341.807,-59.9857 L 341.78,-60.5 L 341.807,-61.0143 L 341.888,-61.5229 L 342.021,-62.0204
 L 342.205,-62.5011 L 342.439,-62.96 L 342.72,-63.3919 L 343.044,-63.7921 L 343.408,-64.1563 L 343.808,-64.4804
 L 344.15,-64.7024 L 344.15,-74 L 344.206,-74.5302 L 344.37,-75.0372 L 344.637,-75.4988 L 344.994,-75.895
 L 345.425,-76.2084 L 345.912,-76.4252 L 346.433,-76.536 L 346.967,-76.536 L 347.488,-76.4252 L 347.975,-76.2084
 L 348.406,-75.895 L 348.763,-75.4988 L 349.03,-75.0372 L 349.194,-74.5302 L 349.25,-74 L 349.25,-64.7024
 L 349.592,-64.4804 L 349.992,-64.1563 L 350.356,-63.7921 L 350.68,-63.3919 L 350.961,-62.96 L 351.195,-62.5011
 L 351.379,-62.0204 L 351.512,-61.5229 L 351.593,-61.0143 L 351.62,-60.5 L 351.593,-59.9857 L 351.512,-59.4771
 L 351.379,-58.9796 L 351.195,-58.4989 L 350.961,-58.04 L 350.68,-57.6081 L 350.356,-57.2079 L 349.992,-56.8437
 L 349.592,-56.5196 L 349.16,-56.2392 L 348.701,-56.0054 L 348.22,-55.8208 L 347.723,-55.6875 L 347.214,-55.607
 L 346.7,-55.58 z
M 515.786,-55.607 L 515.277,-55.6875 L 514.78,-55.8208 L 514.299,-56.0054 L 513.84,-56.2392 L 513.408,-56.5196
 L 513.008,-56.8437 L 512.644,-57.2079 L 512.32,-57.6081 L 512.039,-58.04 L 511.805,-58.4989 L 511.621,-58.9796
 L 511.488,-59.4771 L 511.407,-59.9857 L 511.38,-60.5 L 511.407,-61.0143 L 511.488,-61.5229 L 511.621,-62.0204
 L 511.805,-62.5011 L 512.039,-62.96 L 512.32,-63.3919 L 512.644,-63.7921 L 513.008,-64.1563 L 513.408,-64.4804
 L 513.75,-64.7024 L 513.75,-74 L 513.806,-74.5302 L 513.97,-75.0372 L 514.237,-75.4988 L 514.594,-75.895
 L 515.025,-76.2084 L 515.512,-76.4252 L 516.033,-76.536 L 516.567,-76.536 L 517.088,-76.4252 L 517.575,-76.2084
 L 518.006,-75.895 L 518.363,-75.4988 L 518.63,-75.0372 L 518.794,-74.5302 L 518.85,-74 L 518.85,-64.7024
 L 519.192,-64.4804 L 519.592,-64.1563 L 519.956,-63.7921 L 520.28,-63.3919 L 520.561,-62.96 L 520.795,-62.5011
 L 520.979,-62.0204 L 521.112,-61.5229 L 521.193,-61.0143 L 521.22,-60.5 L 521.193,-59.9857 L 521.112,-59.4771
 L 520.979,-58.9796 L 520.795,-58.4989 L 520.561,-58.04 L 520.28,-57.6081 L 519.956,-57.2079 L 519.592,-56.8437
 L 519.192,-56.5196 L 518.76,-56.2392 L 518.301,-56.0054 L 517.82,-55.8208 L 517.323,-55.6875 L 516.814,-55.607
 L 516.3,-55.58 z
M 685.386,-55.607 L 684.877,-55.6875 L 684.38,-55.8208 L 683.899,-56.0054 L 683.44,-56.2392 L 683.008,-56.5196
 L 682.608,-56.8437 L 682.244,-57.2079 L 681.92,-57.6081 L 681.639,-58.04 L 681.405,-58.4989 L 681.221,-58.9796
 L 681.088,-59.4771 L 681.007,-59.9857 L 680.98,-60.5 L 681.007,-61.0143 L 681.088,-61.5229 L 681.221,-62.0204
 L 681.405,-62.5011 L 681.639,-62.96 L 681.92,-63.3919 L 682.244,-63.7921 L 682.608,-64.1563 L 683.008,-64.4804
 L 683.35,-64.7024 L 683.35,-74 L 683.406,-74.5302 L 683.57,-75.0372 L 683.837,-75.4988 L 684.194,-75.895
 L 684.625,-76.2084 L 685.112,-76.4252 L 685.633,-76.536 L 686.167,-76.536 L 686.688,-76.4252 L 687.175,-76.2084
 L 687.606,-75.895 L 687.963,-75.4988 L 688.23,-75.0372 L 688.394,-74.5302 L 688.45,-74 L 688.45,-64.7024
 L 688.792,-64.4804 L 689.192,-64.1563 L 689.556,-63.7921 L 689.88,-63.3919 L 690.161,-62.96 L 690.395,-62.5011
 L 690.579,-62.0204 L 690.712,-61.5229 L 690.793,-61.0143 L 690.82,-60.5 L 690.793,-59.9857 L 690.712,-59.4771
 L 690.579,-58.9796 L 690.395,-58.4989 L 690.161,-58.04 L 689.88,-57.6081 L 689.556,-57.2079 L 689.192,-56.8437
 L 688.792,-56.5196 L 688.36,-56.2392 L 687.901,-56.0054 L 687.42,-55.8208 L 686.923,-55.6875 L 686.414,-55.607
 L 685.9,-55.58 z
M 854.986,-55.607 L 854.477,-55.6875 L 853.98,-55.8208 L 853.499,-56.0054 L 853.04,-56.2392 L 852.608,-56.5196
 L 852.208,-56.8437 L 851.844,-57.2079 L 851.52,-57.6081 L 851.239,-58.04 L 851.005,-58.4989 L 850.821,-58.9796
 L 850.688,-59.4771 L 850.607,-59.9857 L 850.58,-60.5 L 850.607,-61.0143 L 850.688,-61.5229 L 850.821,-62.0204
 L 851.005,-62.5011 L 851.239,-62.96 L 851.52,-63.3919 L 851.844,-63.7921 L 852.208,-64.1563 L 852.608,-64.4804
 L 852.95,-64.7024 L 852.95,-74 L 853.006,-74.5302 L 853.17,-75.0372 L 853.437,-75.4988 L 853.794,-75.895
 L 854.225,-76.2084 L 854.712,-76.4252 L 855.233,-76.536 L 855.767,-76.536 L 856.288,-76.4252 L 856.775,-76.2084
 L 857.206,-75.895 L 857.563,-75.4988 L 857.83,-75.0372 L 857.994,-74.5302 L 858.05,-74 L 858.05,-64.7024
 L 858.392,-64.4804 L 858.792,-64.1563 L 859.156,-63.7921 L 859.48,-63.3919 L 859.761,-62.96 L 859.995,-62.5011
 L 860.179,-62.0204 L 860.312,-61.5229 L 860.393,-61.0143 L 860.42,-60.5 L 860.393,-59.9857 L 860.312,-59.4771
 L 860.179,-58.9796 L 859.995,-58.4989 L 859.761,-58.04 L 859.48,-57.6081 L 859.156,-57.2079 L 858.792,-56.8437
 L 858.392,-56.5196 L 857.96,-56.2392 L 857.501,-56.0054 L 857.02,-55.8208 L 856.523,-55.6875 L 856.014,-55.607
 L 855.5,-55.58 z
M 430.816,-47.9018 L 430.011,-48.1302 L 414.655,-54.2873 L 413.792,-54.7639 L 413.171,-55.3235 L 412.679,-56
 L 412.339,-56.7639 L 412.165,-57.5819 L 412.165,-58.4181 L 412.339,-59.2361 L 412.679,-60 L 413.171,-60.6765
 L 413.792,-61.2361 L 414.516,-61.6542 L 415.312,-61.9126 L 416.143,-62 L 446.857,-62 L 447.835,-61.8786
 L 448.62,-61.5905 L 449.328,-61.1455 L 449.928,-60.563 L 450.393,-59.8685 L 450.705,-59.0923 L 450.848,-58.2684
 L 450.816,-57.4328 L 450.612,-56.6219 L 450.243,-55.8713 L 449.727,-55.2137 L 449.085,-54.6779 L 448.345,-54.2873
 L 432.989,-48.1302 L 432.478,-47.9643 L 431.65,-47.8457 z
M 333.016,-21.2673 L 332.211,-21.4957 L 250.425,-54.2873 L 249.563,-54.7639 L 248.941,-55.3235 L 248.45,-56
 L 248.11,-56.7639 L 247.936,-57.5819 L 247.936,-58.4181 L 248.11,-59.2361 L 248.45,-60 L 248.941,-60.6765
 L 249.563,-61.2361 L 250.287,-61.6542 L 251.082,-61.9126 L 251.914,-62 L 333.7,-62 L 334.936,-61.8042
 L 335.7,-61.4641 L 336.377,-60.9726 L 336.936,-60.3511 L 337.354,-59.627 L 337.613,-58.8316 L 337.7,-58
 L 337.7,-25.2084 L 337.548,-24.116 L 337.237,-23.3399 L 336.771,-22.6454 L 336.171,-22.0629 L 335.463,-21.6179
 L 334.678,-21.3298 L 333.85,-21.2112 z
M 697.922,-21.3298 L 697.137,-21.6179 L 696.429,-22.0629 L 695.829,-22.6454 L 695.363,-23.3399 L 695.052,-24.116
 L 694.9,-25.2084 L 694.9,-58 L 694.987,-58.8316 L 695.246,-59.627 L 695.664,-60.3511 L 696.223,-60.9726
 L 696.9,-61.4641 L 697.664,-61.8042 L 698.9,-62 L 780.686,-62 L 781.518,-61.9126 L 782.313,-61.6542
 L 783.037,-61.2361 L 783.659,-60.6765 L 784.15,-60 L 784.49,-59.2361 L 784.664,-58.4181 L 784.664,-57.5819
 L 784.49,-56.7639 L 784.15,-56 L 783.659,-55.3235 L 783.037,-54.7639 L 782.175,-54.2873 L 700.389,-21.4957
 L 699.584,-21.2673 L 698.75,-21.2112 z
M 163.416,-21.2673 L 162.611,-21.4957 L 80.8252,-54.2873 L 79.9627,-54.7639 L 79.3412,-55.3235 L 78.8497,-56
 L 78.5096,-56.7639 L 78.3357,-57.5819 L 78.3357,-58.4181 L 78.5096,-59.2361 L 78.8497,-60 L 79.3412,-60.6765
 L 79.9627,-61.2361 L 80.6868,-61.6542 L 81.4821,-61.9126 L 82.3138,-62 L 164.1,-62 L 165.336,-61.8042
 L 166.1,-61.4641 L 166.777,-60.9726 L 167.336,-60.3511 L 167.754,-59.627 L 168.013,-58.8316 L 168.1,-58
 L 168.1,-25.2084 L 167.948,-24.116 L 167.637,-23.3399 L 167.171,-22.6454 L 166.571,-22.0629 L 165.863,-21.6179
 L 165.078,-21.3298 L 164.25,-21.2112 z
M 528.322,-21.3298 L 527.537,-21.6179 L 526.829,-22.0629 L 526.229,-22.6454 L 525.763,-23.3399 L 525.452,-24.116
 L 525.3,-25.2084 L 525.3,-58 L 525.387,-58.8316 L 525.646,-59.627 L 526.064,-60.3511 L 526.623,-60.9726
 L 527.3,-61.4641 L 528.064,-61.8042 L 529.3,-62 L 611.086,-62 L 611.918,-61.9126 L 612.713,-61.6542
 L 613.437,-61.2361 L 614.059,-60.6765 L 614.55,-60 L 614.89,-59.2361 L 615.064,-58.4181 L 615.064,-57.5819
 L 614.89,-56.7639 L 614.55,-56 L 614.059,-55.3235 L 613.437,-54.7639 L 612.575,-54.2873 L 530.789,-21.4957
 L 529.984,-21.2673 L 529.15,-21.2112 z
M 359.282,-19.077 L 358.464,-19.2509 L 357.7,-19.591 L 357.023,-20.0826 L 356.464,-20.704 L 356.046,-21.4282
 L 355.787,-22.2235 L 355.7,-23.0551 L 355.7,-56.9449 L 355.852,-58.0372 L 356.163,-58.8134 L 356.629,-59.5079
 L 357.229,-60.0904 L 357.937,-60.5354 L 358.722,-60.8235 L 359.55,-60.942 L 360.384,-60.8859 L 361.189,-60.6576
 L 403.451,-43.7127 L 404.433,-43.1455 L 405.033,-42.563 L 405.499,-41.8685 L 405.81,-41.0923 L 405.953,-40.2684
 L 405.922,-39.4328 L 405.718,-38.6219 L 405.349,-37.8713 L 404.832,-37.2137 L 404.19,-36.6779 L 403.451,-36.2873
 L 361.189,-19.3424 L 360.118,-19.077 z
M 502.616,-19.1141 L 501.811,-19.3424 L 459.549,-36.2873 L 458.566,-36.8545 L 457.966,-37.437 L 457.501,-38.1315
 L 457.19,-38.9077 L 457.046,-39.7316 L 457.078,-40.5672 L 457.282,-41.3781 L 457.651,-42.1287 L 458.167,-42.7863
 L 458.81,-43.3221 L 459.549,-43.7127 L 501.811,-60.6576 L 502.882,-60.923 L 503.718,-60.923 L 504.536,-60.7491
 L 505.3,-60.409 L 505.977,-59.9174 L 506.536,-59.296 L 506.954,-58.5718 L 507.213,-57.7765 L 507.3,-56.9449
 L 507.3,-23.0551 L 507.148,-21.9628 L 506.837,-21.1866 L 506.371,-20.4921 L 505.771,-19.9096 L 505.063,-19.4646
 L 504.278,-19.1765 L 503.45,-19.058 z
M 190.1,-18 L 188.864,-18.1958 L 188.1,-18.5359 L 187.423,-19.0274 L 186.864,-19.6489 L 186.446,-20.373
 L 186.187,-21.1684 L 186.1,-22 L 186.1,-54.7916 L 186.252,-55.884 L 186.563,-56.6601 L 187.029,-57.3546
 L 187.629,-57.9371 L 188.337,-58.3821 L 189.122,-58.6702 L 189.95,-58.7888 L 190.784,-58.7327 L 191.589,-58.5043
 L 273.375,-25.7127 L 274.237,-25.2361 L 274.859,-24.6765 L 275.35,-24 L 275.69,-23.2361 L 275.864,-22.4181
 L 275.864,-21.5819 L 275.69,-20.7639 L 275.35,-20 L 274.859,-19.3235 L 274.237,-18.7639 L 273.513,-18.3458
 L 272.718,-18.0874 L 271.886,-18 z
M 591.114,-18 L 590.282,-18.0874 L 589.487,-18.3458 L 588.763,-18.7639 L 588.141,-19.3235 L 587.65,-20
 L 587.31,-20.7639 L 587.136,-21.5819 L 587.136,-22.4181 L 587.31,-23.2361 L 587.65,-24 L 588.141,-24.6765
 L 588.763,-25.2361 L 589.625,-25.7127 L 671.411,-58.5043 L 672.216,-58.7327 L 673.05,-58.7888 L 673.878,-58.6702
 L 674.663,-58.3821 L 675.371,-57.9371 L 675.971,-57.3546 L 676.437,-56.6601 L 676.748,-55.884 L 676.9,-54.7916
 L 676.9,-22 L 676.813,-21.1684 L 676.554,-20.373 L 676.136,-19.6489 L 675.577,-19.0274 L 674.9,-18.5359
 L 674.136,-18.1958 L 672.9,-18 z
M 22,-18 L 20.7639,-18.1958 L 20,-18.5359 L 19.3235,-19.0274 L 18.7639,-19.6489 L 18.3458,-20.373
 L 18.0874,-21.1684 L 18,-22 L 18,-54.1902 L 18.152,-55.2825 L 18.4632,-56.0587 L 18.929,-56.7532
 L 19.529,-57.3357 L 20.237,-57.7807 L 21.022,-58.0688 L 21.8498,-58.1874 L 22.6841,-58.1313 L 23.4886,-57.9029
 L 103.775,-25.7127 L 104.637,-25.2361 L 105.259,-24.6765 L 105.75,-24 L 106.09,-23.2361 L 106.264,-22.4181
 L 106.264,-21.5819 L 106.09,-20.7639 L 105.75,-20 L 105.259,-19.3235 L 104.637,-18.7639 L 103.913,-18.3458
 L 103.118,-18.0874 L 102.286,-18 z
M 760.714,-18 L 759.882,-18.0874 L 759.087,-18.3458 L 758.363,-18.7639 L 757.741,-19.3235 L 757.25,-20
 L 756.91,-20.7639 L 756.736,-21.5819 L 756.736,-22.4181 L 756.91,-23.2361 L 757.25,-24 L 757.741,-24.6765
 L 758.363,-25.2361 L 759.225,-25.7127 L 839.511,-57.9029 L 840.316,-58.1313 L 841.15,-58.1874 L 841.978,-58.0688
 L 842.763,-57.7807 L 843.471,-57.3357 L 844.071,-56.7532 L 844.537,-56.0587 L 844.848,-55.2825 L 845,-54.1902
 L 845,-22 L 844.913,-21.1684 L 844.654,-20.373 L 844.236,-19.6489 L 843.677,-19.0274 L 843,-18.5359
 L 842.236,-18.1958 L 841,-18 z
M 416.143,-18 L 415.165,-18.1214 L 414.38,-18.4095 L 413.672,-18.8545 L 413.072,-19.437 L 412.607,-20.1315
 L 412.295,-20.9077 L 412.152,-21.7316 L 412.184,-22.5672 L 412.388,-23.3781 L 412.757,-24.1287 L 413.273,-24.7863
 L 413.915,-25.3221 L 414.655,-25.7127 L 430.011,-31.8698 L 430.522,-32.0357 L 431.35,-32.1543 L 432.184,-32.0982
 L 432.989,-31.8698 L 448.345,-25.7127 L 449.208,-25.2361 L 449.829,-24.6765 L 450.321,-24 L 450.661,-23.2361
 L 450.835,-22.4181 L 450.835,-21.5819 L 450.661,-20.7639 L 450.321,-20 L 449.829,-19.3235 L 449.208,-18.7639
 L 448.484,-18.3458 L 447.688,-18.0874 L 446.857,-18 z
" stroke="black" fill="lightgray" stroke-width="0.5"/>
</svg>
