<?xml version="1.0" standalone="no"?>
<!DOCTYPE svg PUBLIC "-//W3C//DTD SVG 1.1//EN" "http://www.w3.org/Graphics/SVG/1.1/DTD/svg11.dtd">
<svg width="804mm" height="80mm" viewBox="0 -80 804 80" xmlns="http://www.w3.org/2000/svg" version="1.1">
<title>OpenSCAD Model</title>
<path d="
M 804,-80 L 0,-80 L 0,-0 L 4.95,-0 L 4.95,-6 L 5.00572,-6.53017
 L 5.17046,-7.03717 L 5.437,-7.49884 L 5.79372,-7.895 L 6.22499,-8.20836 L 6.71201,-8.42519 L 7.23344,-8.53603
 L 7.76654,-8.53603 L 8.28798,-8.42519 L 8.77499,-8.20836 L 9.20627,-7.895 L 9.56299,-7.49884 L 9.82953,-7.03717
 L 9.99426,-6.53017 L 10.05,-6 L 10.05,-0 L 162.75,-0 L 162.75,-6 L 162.806,-6.53017
 L 162.97,-7.03717 L 163.237,-7.49884 L 163.594,-7.895 L 164.025,-8.20836 L 164.512,-8.42519 L 165.033,-8.53603
 L 165.567,-8.53603 L 166.088,-8.42519 L 166.575,-8.20836 L 167.006,-7.895 L 167.363,-7.49884 L 167.63,-7.03717
 L 167.794,-6.53017 L 167.85,-6 L 167.85,-0 L 320.55,-0 L 320.55,-6 L 320.606,-6.53017
 L 320.77,-7.03717 L 321.037,-7.49884 L 321.394,-7.895 L 321.825,-8.20836 L 322.312,-8.42519 L 322.833,-8.53603
 L 323.367,-8.53603 L 323.888,-8.42519 L 324.375,-8.20836 L 324.806,-7.895 L 325.163,-7.49884 L 325.43,-7.03717
 L 325.594,-6.53017 L 325.65,-6 L 325.65,-0 L 478.35,-0 L 478.35,-6 L 478.406,-6.53017
 L 478.57,-7.03717 L 478.837,-7.49884 L 479.194,-7.895 L 479.625,-8.20836 L 480.112,-8.42519 L 480.633,-8.53603
 L 481.167,-8.53603 L 481.688,-8.42519 L 482.175,-8.20836 L 482.606,-7.895 L 482.963,-7.49884 L 483.23,-7.03717
 L 483.394,-6.53017 L 483.45,-6 L 483.45,-0 L 636.15,-0 L 636.15,-6 L 636.206,-6.53017
 L 636.37,-7.03717 L 636.637,-7.49884 L 636.994,-7.895 L 637.425,-8.20836 L 637.912,-8.42519 L 638.433,-8.53603
 L 638.967,-8.53603 L 639.488,-8.42519 L 639.975,-8.20836 L 640.406,-7.895 L 640.763,-7.49884 L 641.03,-7.03717
 L 641.194,-6.53017 L 641.25,-6 L 641.25,-0 L 793.95,-0 L 793.95,-6 L 794.006,-6.53017
 L 794.17,-7.03717 L 794.437,-7.49884 L 794.794,-7.895 L 795.225,-8.20836 L 795.712,-8.42519 L 796.233,-8.53603
 L 796.767,-8.53603 L 797.288,-8.42519 L 797.775,-8.20836 L 798.206,-7.895 L 798.563,-7.49884 L 798.83,-7.03717
 L 798.994,-6.53017 L 799.05,-6 L 799.05,-0 L 804,-0 z
M 6.98573,-55.607 L 6.47708,-55.6875 L 5.97964,-55.8208 L 5.49887,-56.0054 L 5.04001,-56.2392 L 4.60811,-56.5196
 L 4.20789,-56.8437 L 3.84373,-57.2079 L 3.51964,-57.6081 L 3.23917,-58.04 L 3.00537,-58.4989 L 2.82082,-58.9796
 L 2.68752,-59.4771 L 2.60696,-59.9857 L 2.58,-60.5 L 2.60696,-61.0143 L 2.68752,-61.5229 L 2.82082,-62.0204
 L 3.00537,-62.5011 L 3.23917,-62.96 L 3.51964,-63.3919 L 3.84373,-63.7921 L 4.20789,-64.1563 L 4.60811,-64.4804
 L 4.95001,-64.7024 L 4.95001,-74 L 5.00574,-74.5302 L 5.17047,-75.0372 L 5.43701,-75.4988 L 5.79373,-75.895
 L 6.22501,-76.2084 L 6.71202,-76.4252 L 7.23346,-76.536 L 7.76654,-76.536 L 8.28798,-76.4252 L 8.77499,-76.2084
 L 9.20627,-75.895 L 9.56299,-75.4988 L 9.82953,-75.0372 L 9.99426,-74.5302 L 10.05,-74 L 10.05,-64.7024
 L 10.3919,-64.4804 L 10.7921,-64.1563 L 11.1563,-63.7921 L 11.4804,-63.3919 L 11.7608,-62.96 L 11.9946,-62.5011
 L 12.1792,-62.0204 L 12.3125,-61.5229 L 12.393,-61.0143 L 12.42,-60.5 L 12.393,-59.9857 L 12.3125,-59.4771
 L 12.1792,-58.9796 L 11.9946,-58.4989 L 11.7608,-58.04 L 11.4804,-57.6081 L 11.1563,-57.2079 L 10.7921,-56.8437
 L 10.3919,-56.5196 L 9.95999,-56.2392 L 9.50113,-56.0054 L 9.02036,-55.8208 L 8.52292,-55.6875 L 8.01427,-55.607
 L 7.5,-55.58 z
M 164.786,-55.607 L 164.277,-55.6875 L 163.78,-55.8208 L 163.299,-56.0054 L 162.84,-56.2392 L 162.408,-56.5196
 L 162.008,-56.8437 L 161.644,-57.2079 L 161.32,-57.6081 L 161.039,-58.04 L 160.805,-58.4989 L 160.621,-58.9796
 L 160.488,-59.4771 L 160.407,-59.9857 L 160.38,-60.5 L 160.407,-61.0143 L 160.488,-61.5229 L 160.621,-62.0204
 L 160.805,-62.5011 L 161.039,-62.96 L 161.32,-63.3919 L 161.644,-63.7921 L 162.008,-64.1563 L 162.408,-64.4804
 L 162.75,-64.7024 L 162.75,-74 L 162.806,-74.5302 L 162.97,-75.0372 L 163.237,-75.4988 L 163.594,-75.895
 L 164.025,-76.2084 L 164.512,-76.4252 L 165.033,-76.536 L 165.567,-76.536 L 166.088,-76.4252 L 166.575,-76.2084
 L 167.006,-75.895 L 167.363,-75.4988 L 167.63,-75.0372 L 167.794,-74.5302 L 167.85,-74 L 167.85,-64.7024
 L 168.192,-64.4804 L 168.592,-64.1563 L 168.956,-63.7921 L 169.28,-63.3919 L 169.561,-62.96 L 169.795,-62.5011
 L 169.979,-62.0204 L 170.112,-61.5229 L 170.193,-61.0143 L 170.22,-60.5 L 170.193,-59.9857 L 170.112,-59.4771
 L 169.979,-58.9796 L 169.795,-58.4989 L 169.561,-58.04 L 169.28,-57.6081 L 168.956,-57.2079 L 168.592,-56.8437
 L 168.192,-56.5196 L 167.76,-56.2392 L 167.301,-56.0054 L 166.82,-55.8208 L 166.323,-55.6875 L 165.814,-55.607
 L 165.3,-55.58 z
M 322.586,-55.607 L 322.077,-55.6875 L 321.58,-55.8208 L 321.099,-56.0054 L 320.64,-56.2392 L 320.208,-56.5196
 L 319.808,-56.8437 L 319.444,-57.2079 L 319.12,-57.6081 L 318.839,-58.04 L 318.605,-58.4989 L 318.421,-58.9796
 L 318.288,-59.4771 L 318.207,-59.9857 L 318.18,-60.5 L 318.207,-61.0143 L 318.288,-61.5229 L 318.421,-62.0204
 L 318.605,-62.5011 L 318.839,-62.96 L 319.12,-63.3919 L 319.444,-63.7921 L 319.808,-64.1563 L 320.208,-64.4804
 L 320.55,-64.7024 L 320.55,-74 L 320.606,-74.5302 L 320.77,-75.0372 L 321.037,-75.4988 L 321.394,-75.895
 L 321.825,-76.2084 L 322.312,-76.4252 L 322.833,-76.536 L 323.367,-76.536 L 323.888,-76.4252 L 324.375,-76.2084
 L 324.806,-75.895 L 325.163,-75.4988 L 325.43,-75.0372 L 325.594,-74.5302 L 325.65,-74 L 325.65,-64.7024
 L 325.992,-64.4804 L 326.392,-64.1563 L 326.756,-63.7921 L 327.08,-63.3919 L 327.361,-62.96 L 327.595,-62.5011
 L 327.779,-62.0204 L 327.912,-61.5229 L 327.993,-61.0143 L 328.02,-60.5 L 327.993,-59.9857 L 327.912,-59.4771
 L 327.779,-58.9796 L 327.595,-58.4989 L 327.361,-58.04 L 327.08,-57.6081 L 326.756,-57.2079 L 326.392,-56.8437
 L 325.992,-56.5196 L 325.56,-56.2392 L 325.101,-56.0054 L 324.62,-55.8208 L 324.123,-55.6875 L 323.614,-55.607
 L 323.1,-55.58 z
M 480.386,-55.607 L 479.877,-55.6875 L 479.38,-55.8208 L 478.899,-56.0054 L 478.44,-56.2392 L 478.008,-56.5196
 L 477.608,-56.8437 L 477.244,-57.2079 L 476.92,-57.6081 L 476.639,-58.04 L 476.405,-58.4989 L 476.221,-58.9796
 L 476.088,-59.4771 L 476.007,-59.9857 L 475.98,-60.5 L 476.007,-61.0143 L 476.088,-61.5229 L 476.221,-62.0204
 L 476.405,-62.5011 L 476.639,-62.96 L 476.92,-63.3919 L 477.244,-63.7921 L 477.608,-64.1563 L 478.008,-64.4804
 L 478.35,-64.7024 L 478.35,-74 L 478.406,-74.5302 L 478.57,-75.0372 L 478.837,-75.4988 L 479.194,-75.895
 L 479.625,-76.2084 L 480.112,-76.4252 L 480.633,-76.536 L 481.167,-76.536 L 481.688,-76.4252 L 482.175,-76.2084
 L 482.606,-75.895 L 482.963,-75.4988 L 483.23,-75.0372 L 483.394,-74.5302 L 483.45,-74 L 483.45,-64.7024
 L 483.792,-64.4804 L 484.192,-64.1563 L 484.556,-63.7921 L 484.88,-63.3919 L 485.161,-62.96 L 485.395,-62.5011
 L 485.579,-62.0204 L 485.712,-61.5229 L 485.793,-61.0143 L 485.82,-60.5 L 485.793,-59.9857 L 485.712,-59.4771
 L 485.579,-58.9796 L 485.395,-58.4989 L 485.161,-58.04 L 484.88,-57.6081 L 484.556,-57.2079 L 484.192,-56.8437
 L 483.792,-56.5196 L 483.36,-56.2392 L 482.901,-56.0054 L 482.42,-55.8208 L 481.923,-55.6875 L 481.414,-55.607
 L 480.9,-55.58 z
M 638.186,-55.607 L 637.677,-55.6875 L 637.18,-55.8208 L 636.699,-56.0054 L 636.24,-56.2392 L 635.808,-56.5196
 L 635.408,-56.8437 L 635.044,-57.2079 L 634.72,-57.6081 L 634.439,-58.04 L 634.205,-58.4989 L 634.021,-58.9796
 L 633.888,-59.4771 L 633.807,-59.9857 L 633.78,-60.5 L 633.807,-61.0143 L 633.888,-61.5229 L 634.021,-62.0204
 L 634.205,-62.5011 L 634.439,-62.96 L 634.72,-63.3919 L 635.044,-63.7921 L 635.408,-64.1563 L 635.808,-64.4804
 L 636.15,-64.7024 L 636.15,-74 L 636.206,-74.5302 L 636.37,-75.0372 L 636.637,-75.4988 L 636.994,-75.895
 L 637.425,-76.2084 L 637.912,-76.4252 L 638.433,-76.536 L 638.967,-76.536 L 639.488,-76.4252 L 639.975,-76.2084
 L 640.406,-75.895 L 640.763,-75.4988 L 641.03,-75.0372 L 641.194,-74.5302 L 641.25,-74 L 641.25,-64.7024
 L 641.592,-64.4804 L 641.992,-64.1563 L 642.356,-63.7921 L 642.68,-63.3919 L 642.961,-62.96 L 643.195,-62.5011
 L 643.379,-62.0204 L 643.512,-61.5229 L 643.593,-61.0143 L 643.62,-60.5 L 643.593,-59.9857 L 643.512,-59.4771
 L 643.379,-58.9796 L 643.195,-58.4989 L 642.961,-58.04 L 642.68,-57.6081 L 642.356,-57.2079 L 641.992,-56.8437
 L 641.592,-56.5196 L 641.16,-56.2392 L 640.701,-56.0054 L 640.22,-55.8208 L 639.723,-55.6875 L 639.214,-55.607
 L 638.7,-55.58 z
M 795.986,-55.607 L 795.477,-55.6875 L 794.98,-55.8208 L 794.499,-56.0054 L 794.04,-56.2392 L 793.608,-56.5196
 L 793.208,-56.8437 L 792.844,-57.2079 L 792.52,-57.6081 L 792.239,-58.04 L 792.005,-58.4989 L 791.821,-58.9796
 L 791.688,-59.4771 L 791.607,-59.9857 L 791.58,-60.5 L 791.607,-61.0143 L 791.688,-61.5229 L 791.821,-62.0204
 L 792.005,-62.5011 L 792.239,-62.96 L 792.52,-63.3919 L 792.844,-63.7921 L 793.208,-64.1563 L 793.608,-64.4804
 L 793.95,-64.7024 L 793.95,-74 L 794.006,-74.5302 L 794.17,-75.0372 L 794.437,-75.4988 L 794.794,-75.895
 L 795.225,-76.2084 L 795.712,-76.4252 L 796.233,-76.536 L 796.767,-76.536 L 797.288,-76.4252 L 797.775,-76.2084
 L 798.206,-75.895 L 798.563,-75.4988 L 798.83,-75.0372 L 798.994,-74.5302 L 799.05,-74 L 799.05,-64.7024
 L 799.392,-64.4804 L 799.792,-64.1563 L 800.156,-63.7921 L 800.48,-63.3919 L 800.761,-62.96 L 800.995,-62.5011
 L 801.179,-62.0204 L 801.312,-61.5229 L 801.393,-61.0143 L 801.42,-60.5 L 801.393,-59.9857 L 801.312,-59.4771
 L 801.179,-58.9796 L 800.995,-58.4989 L 800.761,-58.04 L 800.48,-57.6081 L 800.156,-57.2079 L 799.792,-56.8437
 L 799.392,-56.5196 L 798.96,-56.2392 L 798.501,-56.0054 L 798.02,-55.8208 L 797.523,-55.6875 L 797.014,-55.607
 L 796.5,-55.58 z
M 401.215,-48.0547 L 400.417,-48.3036 L 386.44,-54.3266 L 385.672,-54.7639 L 385.05,-55.3235 L 384.559,-56
 L 384.219,-56.7639 L 384.045,-57.5819 L 384.045,-58.4181 L 384.219,-59.2361 L 384.559,-60 L 385.05,-60.6765
 L 385.672,-61.2361 L 386.396,-61.6542 L 387.191,-61.9126 L 388.023,-62 L 415.977,-62 L 416.855,-61.9023
 L 417.648,-61.6344 L 418.367,-61.2076 L 418.981,-60.6407 L 419.465,-59.9583 L 419.796,-59.1903 L 419.96,-58.3703
 L 419.95,-57.5342 L 419.766,-56.7184 L 419.417,-55.9586 L 418.917,-55.288 L 418.289,-54.7359 L 417.56,-54.3266
 L 403.583,-48.3036 L 402.879,-48.0747 L 402.048,-47.9773 z
M 309.315,-21.8344 L 308.517,-22.0832 L 233.693,-54.3266 L 232.925,-54.7639 L 232.304,-55.3235 L 231.812,-56
 L 231.472,-56.7639 L 231.298,-57.5819 L 231.298,-58.4181 L 231.472,-59.2361 L 231.812,-60 L 232.304,-60.6765
 L 232.925,-61.2361 L 233.65,-61.6542 L 234.445,-61.9126 L 235.276,-62 L 310.1,-62 L 311.336,-61.8042
 L 312.1,-61.4641 L 312.777,-60.9726 L 313.336,-60.3511 L 313.754,-59.627 L 314.013,-58.8316 L 314.1,-58
 L 314.1,-25.7567 L 313.919,-24.5663 L 313.588,-23.7984 L 313.104,-23.116 L 312.49,-22.549 L 311.771,-22.1223
 L 310.979,-21.8543 L 310.148,-21.757 z
M 650.821,-21.8543 L 650.029,-22.1223 L 649.31,-22.549 L 648.696,-23.116 L 648.212,-23.7984 L 647.881,-24.5663
 L 647.7,-25.7567 L 647.7,-58 L 647.787,-58.8316 L 648.046,-59.627 L 648.464,-60.3511 L 649.023,-60.9726
 L 649.7,-61.4641 L 650.464,-61.8042 L 651.7,-62 L 726.524,-62 L 727.355,-61.9126 L 728.15,-61.6542
 L 728.875,-61.2361 L 729.496,-60.6765 L 729.988,-60 L 730.328,-59.2361 L 730.502,-58.4181 L 730.502,-57.5819
 L 730.328,-56.7639 L 729.988,-56 L 729.496,-55.3235 L 728.875,-54.7639 L 728.106,-54.3266 L 653.283,-22.0832
 L 652.485,-21.8344 L 651.652,-21.757 z
M 151.515,-21.8344 L 150.717,-22.0832 L 75.8935,-54.3266 L 75.1254,-54.7639 L 74.5039,-55.3235 L 74.0124,-56
 L 73.6723,-56.7639 L 73.4984,-57.5819 L 73.4984,-58.4181 L 73.6723,-59.2361 L 74.0124,-60 L 74.5039,-60.6765
 L 75.1254,-61.2361 L 75.8495,-61.6542 L 76.6448,-61.9126 L 77.4765,-62 L 152.3,-62 L 153.536,-61.8042
 L 154.3,-61.4641 L 154.977,-60.9726 L 155.536,-60.3511 L 155.954,-59.627 L 156.213,-58.8316 L 156.3,-58
 L 156.3,-25.7567 L 156.119,-24.5663 L 155.788,-23.7984 L 155.304,-23.116 L 154.69,-22.549 L 153.971,-22.1223
 L 153.179,-21.8543 L 152.348,-21.757 z
M 493.021,-21.8543 L 492.229,-22.1223 L 491.51,-22.549 L 490.896,-23.116 L 490.412,-23.7984 L 490.081,-24.5663
 L 489.9,-25.7567 L 489.9,-58 L 489.987,-58.8316 L 490.246,-59.627 L 490.664,-60.3511 L 491.223,-60.9726
 L 491.9,-61.4641 L 492.664,-61.8042 L 493.9,-62 L 568.724,-62 L 569.555,-61.9126 L 570.35,-61.6542
 L 571.075,-61.2361 L 571.696,-60.6765 L 572.188,-60 L 572.528,-59.2361 L 572.702,-58.4181 L 572.702,-57.5819
 L 572.528,-56.7639 L 572.188,-56 L 571.696,-55.3235 L 571.075,-54.7639 L 570.306,-54.3266 L 495.483,-22.0832
 L 494.685,-21.8344 L 493.852,-21.757 z
M 335.682,-19.601 L 334.864,-19.7748 L 334.1,-20.1149 L 333.423,-20.6065 L 332.864,-21.2279 L 332.446,-21.9521
 L 332.187,-22.7474 L 332.1,-23.579 L 332.1,-56.421 L 332.281,-57.6113 L 332.612,-58.3792 L 333.096,-59.0616
 L 333.71,-59.6286 L 334.429,-60.0554 L 335.221,-60.3233 L 336.052,-60.4207 L 336.885,-60.3432 L 337.683,-60.0944
 L 375.789,-43.6734 L 376.596,-43.2076 L 377.211,-42.6407 L 377.694,-41.9583 L 378.025,-41.1903 L 378.189,-40.3703
 L 378.179,-39.5342 L 377.995,-38.7184 L 377.646,-37.9586 L 377.147,-37.288 L 376.518,-36.7359 L 375.789,-36.3266
 L 337.683,-19.9056 L 336.518,-19.601 z
M 467.115,-19.6567 L 466.317,-19.9056 L 428.211,-36.3266 L 427.404,-36.7924 L 426.789,-37.3593 L 426.306,-38.0417
 L 425.975,-38.8097 L 425.811,-39.6297 L 425.821,-40.4658 L 426.005,-41.2816 L 426.354,-42.0414 L 426.853,-42.712
 L 427.482,-43.2641 L 428.211,-43.6734 L 466.317,-60.0944 L 467.482,-60.3991 L 468.318,-60.3991 L 469.136,-60.2252
 L 469.9,-59.8851 L 470.577,-59.3936 L 471.136,-58.7721 L 471.554,-58.0479 L 471.813,-57.2526 L 471.9,-56.421
 L 471.9,-23.579 L 471.719,-22.3887 L 471.388,-21.6207 L 470.904,-20.9384 L 470.29,-20.3714 L 469.571,-19.9446
 L 468.779,-19.6767 L 467.948,-19.5793 z
M 178.3,-18 L 177.064,-18.1958 L 176.3,-18.5359 L 175.623,-19.0274 L 175.064,-19.6489 L 174.646,-20.373
 L 174.387,-21.1684 L 174.3,-22 L 174.3,-54.2433 L 174.481,-55.4337 L 174.812,-56.2016 L 175.296,-56.884
 L 175.91,-57.451 L 176.629,-57.8777 L 177.421,-58.1457 L 178.252,-58.243 L 179.085,-58.1656 L 179.883,-57.9168
 L 254.706,-25.6734 L 255.475,-25.2361 L 256.096,-24.6765 L 256.588,-24 L 256.928,-23.2361 L 257.102,-22.4181
 L 257.102,-21.5819 L 256.928,-20.7639 L 256.588,-20 L 256.096,-19.3235 L 255.475,-18.7639 L 254.75,-18.3458
 L 253.955,-18.0874 L 253.123,-18 z
M 550.876,-18 L 550.045,-18.0874 L 549.25,-18.3458 L 548.525,-18.7639 L 547.904,-19.3235 L 547.412,-20
 L 547.072,-20.7639 L 546.898,-21.5819 L 546.898,-22.4181 L 547.072,-23.2361 L 547.412,-24 L 547.904,-24.6765
 L 548.525,-25.2361 L 549.294,-25.6734 L 624.117,-57.9168 L 624.915,-58.1656 L 625.748,-58.243 L 626.579,-58.1457
 L 627.371,-57.8777 L 628.09,-57.451 L 628.704,-56.884 L 629.188,-56.2016 L 629.519,-55.4337 L 629.7,-54.2433
 L 629.7,-22 L 629.613,-21.1684 L 629.354,-20.373 L 628.936,-19.6489 L 628.377,-19.0274 L 627.7,-18.5359
 L 626.936,-18.1958 L 625.7,-18 z
M 22,-18 L 20.7639,-18.1958 L 20,-18.5359 L 19.3235,-19.0274 L 18.7639,-19.6489 L 18.3458,-20.373
 L 18.0874,-21.1684 L 18,-22 L 18,-53.5969 L 18.1812,-54.7873 L 18.5121,-55.5552 L 18.9955,-56.2376
 L 19.6102,-56.8046 L 20.3293,-57.2313 L 21.1215,-57.4993 L 21.952,-57.5966 L 22.7846,-57.5192 L 23.583,-57.2704
 L 96.9065,-25.6734 L 97.6746,-25.2361 L 98.2961,-24.6765 L 98.7876,-24 L 99.1277,-23.2361 L 99.3016,-22.4181
 L 99.3016,-21.5819 L 99.1277,-20.7639 L 98.7876,-20 L 98.2961,-19.3235 L 97.6746,-18.7639 L 96.9505,-18.3458
 L 96.1552,-18.0874 L 95.3235,-18 z
M 708.676,-18 L 707.845,-18.0874 L 707.05,-18.3458 L 706.325,-18.7639 L 705.704,-19.3235 L 705.212,-20
 L 704.872,-20.7639 L 704.698,-21.5819 L 704.698,-22.4181 L 704.872,-23.2361 L 705.212,-24 L 705.704,-24.6765
 L 706.325,-25.2361 L 707.094,-25.6734 L 780.417,-57.2704 L 781.215,-57.5192 L 782.048,-57.5966 L 782.879,-57.4993
 L 783.671,-57.2313 L 784.39,-56.8046 L 785.004,-56.2376 L 785.488,-55.5552 L 785.819,-54.7873 L 786,-53.5969
 L 786,-22 L 785.913,-21.1684 L 785.654,-20.373 L 785.236,-19.6489 L 784.677,-19.0274 L 784,-18.5359
 L 783.236,-18.1958 L 782,-18 z
M 388.023,-18 L 387.145,-18.0977 L 386.352,-18.3656 L 385.633,-18.7924 L 385.019,-19.3593 L 384.535,-20.0417
 L 384.204,-20.8097 L 384.04,-21.6297 L 384.05,-22.4658 L 384.234,-23.2816 L 384.583,-24.0414 L 385.083,-24.712
 L 385.711,-25.2641 L 386.44,-25.6734 L 400.417,-31.6964 L 401.121,-31.9253 L 401.952,-32.0227 L 402.785,-31.9453
 L 403.583,-31.6964 L 417.56,-25.6734 L 418.328,-25.2361 L 418.949,-24.6765 L 419.441,-24 L 419.781,-23.2361
 L 419.955,-22.4181 L 419.955,-21.5819 L 419.781,-20.7639 L 419.441,-20 L 418.949,-19.3235 L 418.328,-18.7639
 L 417.604,-18.3458 L 416.809,-18.0874 L 415.977,-18 z
" stroke="black" fill="lightgray" stroke-width="0.5"/>
</svg>
