<?xml version="1.0" standalone="no"?>
<!DOCTYPE svg PUBLIC "-//W3C//DTD SVG 1.1//EN" "http://www.w3.org/Graphics/SVG/1.1/DTD/svg11.dtd">
<svg width="490mm" height="80mm" viewBox="0 -80 490 80" xmlns="http://www.w3.org/2000/svg" version="1.1">
<title>OpenSCAD Model</title>
<path d="
M 490,-80 L 0,-80 L 0,-0 L 4.95,-0 L 4.95,-6 L 5.00572,-6.53017
 L 5.17046,-7.03717 L 5.437,-7.49884 L 5.79372,-7.895 L 6.22499,-8.20836 L 6.71201,-8.42519 L 7.23344,-8.53603
 L 7.76654,-8.53603 L 8.28798,-8.42519 L 8.77499,-8.20836 L 9.20627,-7.895 L 9.56299,-7.49884 L 9.82953,-7.03717
 L 9.99426,-6.53017 L 10.05,-6 L 10.05,-0 L 123.7,-0 L 123.7,-6 L 123.756,-6.53017
 L 123.92,-7.03717 L 124.187,-7.49884 L 124.544,-7.895 L 124.975,-8.20836 L 125.462,-8.42519 L 125.983,-8.53603
 L 126.517,-8.53603 L 127.038,-8.42519 L 127.525,-8.20836 L 127.956,-7.895 L 128.313,-7.49884 L 128.58,-7.03717
 L 128.744,-6.53017 L 128.8,-6 L 128.8,-0 L 242.45,-0 L 242.45,-6 L 242.506,-6.53017
 L 242.67,-7.03717 L 242.937,-7.49884 L 243.294,-7.895 L 243.725,-8.20836 L 244.212,-8.42519 L 244.733,-8.53603
 L 245.267,-8.53603 L 245.788,-8.42519 L 246.275,-8.20836 L 246.706,-7.895 L 247.063,-7.49884 L 247.33,-7.03717
 L 247.494,-6.53017 L 247.55,-6 L 247.55,-0 L 361.2,-0 L 361.2,-6 L 361.256,-6.53017
 L 361.42,-7.03717 L 361.687,-7.49884 L 362.044,-7.895 L 362.475,-8.20836 L 362.962,-8.42519 L 363.483,-8.53603
 L 364.017,-8.53603 L 364.538,-8.42519 L 365.025,-8.20836 L 365.456,-7.895 L 365.813,-7.49884 L 366.08,-7.03717
 L 366.244,-6.53017 L 366.3,-6 L 366.3,-0 L 479.95,-0 L 479.95,-6 L 480.006,-6.53017
 L 480.17,-7.03717 L 480.437,-7.49884 L 480.794,-7.895 L 481.225,-8.20836 L 481.712,-8.42519 L 482.233,-8.53603
 L 482.767,-8.53603 L 483.288,-8.42519 L 483.775,-8.20836 L 484.206,-7.895 L 484.563,-7.49884 L 484.83,-7.03717
 L 484.994,-6.53017 L 485.05,-6 L 485.05,-0 L 490,-0 z
M 6.98573,-55.607 L 6.47708,-55.6875 L 5.97964,-55.8208 L 5.49887,-56.0054 L 5.04001,-56.2392 L 4.60811,-56.5196
 L 4.20789,-56.8437 L 3.84373,-57.2079 L 3.51964,-57.6081 L 3.23917,-58.04 L 3.00537,-58.4989 L 2.82082,-58.9796
 L 2.68752,-59.4771 L 2.60696,-59.9857 L 2.58,-60.5 L 2.60696,-61.0143 L 2.68752,-61.5229 L 2.82082,-62.0204
 L 3.00537,-62.5011 L 3.23917,-62.96 L 3.51964,-63.3919 L 3.84373,-63.7921 L 4.20789,-64.1563 L 4.60811,-64.4804
 L 4.95001,-64.7024 L 4.95001,-74 L 5.00574,-74.5302 L 5.17047,-75.0372 L 5.43701,-75.4988 L 5.79373,-75.895
 L 6.22501,-76.2084 L 6.71202,-76.4252 L 7.23346,-76.536 L 7.76654,-76.536 L 8.28798,-76.4252 L 8.77499,-76.2084
 L 9.20627,-75.895 L 9.56299,-75.4988 L 9.82953,-75.0372 L 9.99426,-74.5302 L 10.05,-74 L 10.05,-64.7024
 L 10.3919,-64.4804 L 10.7921,-64.1563 L 11.1563,-63.7921 L 11.4804,-63.3919 L 11.7608,-62.96 L 11.9946,-62.5011
 L 12.1792,-62.0204 L 12.3125,-61.5229 L 12.393,-61.0143 L 12.42,-60.5 L 12.393,-59.9857 L 12.3125,-59.4771
 L 12.1792,-58.9796 L 11.9946,-58.4989 L 11.7608,-58.04 L 11.4804,-57.6081 L 11.1563,-57.2079 L 10.7921,-56.8437
 L 10.3919,-56.5196 L 9.95999,-56.2392 L 9.50113,-56.0054 L 9.02036,-55.8208 L 8.52292,-55.6875 L 8.01427,-55.607
 L 7.5,-55.58 z
M 125.736,-55.607 L 125.227,-55.6875 L 124.73,-55.8208 L 124.249,-56.0054 L 123.79,-56.2392 L 123.358,-56.5196
 L 122.958,-56.8437 L 122.594,-57.2079 L 122.27,-57.6081 L 121.989,-58.04 L 121.755,-58.4989 L 121.571,-58.9796
 L 121.438,-59.4771 L 121.357,-59.9857 L 121.33,-60.5 L 121.357,-61.0143 L 121.438,-61.5229 L 121.571,-62.0204
 L 121.755,-62.5011 L 121.989,-62.96 L 122.27,-63.3919 L 122.594,-63.7921 L 122.958,-64.1563 L 123.358,-64.4804
 L 123.7,-64.7024 L 123.7,-74 L 123.756,-74.5302 L 123.92,-75.0372 L 124.187,-75.4988 L 124.544,-75.895
 L 124.975,-76.2084 L 125.462,-76.4252 L 125.983,-76.536 L 126.517,-76.536 L 127.038,-76.4252 L 127.525,-76.2084
 L 127.956,-75.895 L 128.313,-75.4988 L 128.58,-75.0372 L 128.744,-74.5302 L 128.8,-74 L 128.8,-64.7024
 L 129.142,-64.4804 L 129.542,-64.1563 L 129.906,-63.7921 L 130.23,-63.3919 L 130.511,-62.96 L 130.745,-62.5011
 L 130.929,-62.0204 L 131.062,-61.5229 L 131.143,-61.0143 L 131.17,-60.5 L 131.143,-59.9857 L 131.062,-59.4771
 L 130.929,-58.9796 L 130.745,-58.4989 L 130.511,-58.04 L 130.23,-57.6081 L 129.906,-57.2079 L 129.542,-56.8437
 L 129.142,-56.5196 L 128.71,-56.2392 L 128.251,-56.0054 L 127.77,-55.8208 L 127.273,-55.6875 L 126.764,-55.607
 L 126.25,-55.58 z
M 244.486,-55.607 L 243.977,-55.6875 L 243.48,-55.8208 L 242.999,-56.0054 L 242.54,-56.2392 L 242.108,-56.5196
 L 241.708,-56.8437 L 241.344,-57.2079 L 241.02,-57.6081 L 240.739,-58.04 L 240.505,-58.4989 L 240.321,-58.9796
 L 240.188,-59.4771 L 240.107,-59.9857 L 240.08,-60.5 L 240.107,-61.0143 L 240.188,-61.5229 L 240.321,-62.0204
 L 240.505,-62.5011 L 240.739,-62.96 L 241.02,-63.3919 L 241.344,-63.7921 L 241.708,-64.1563 L 242.108,-64.4804
 L 242.45,-64.7024 L 242.45,-74 L 242.506,-74.5302 L 242.67,-75.0372 L 242.937,-75.4988 L 243.294,-75.895
 L 243.725,-76.2084 L 244.212,-76.4252 L 244.733,-76.536 L 245.267,-76.536 L 245.788,-76.4252 L 246.275,-76.2084
 L 246.706,-75.895 L 247.063,-75.4988 L 247.33,-75.0372 L 247.494,-74.5302 L 247.55,-74 L 247.55,-64.7024
 L 247.892,-64.4804 L 248.292,-64.1563 L 248.656,-63.7921 L 248.98,-63.3919 L 249.261,-62.96 L 249.495,-62.5011
 L 249.679,-62.0204 L 249.812,-61.5229 L 249.893,-61.0143 L 249.92,-60.5 L 249.893,-59.9857 L 249.812,-59.4771
 L 249.679,-58.9796 L 249.495,-58.4989 L 249.261,-58.04 L 248.98,-57.6081 L 248.656,-57.2079 L 248.292,-56.8437
 L 247.892,-56.5196 L 247.46,-56.2392 L 247.001,-56.0054 L 246.52,-55.8208 L 246.023,-55.6875 L 245.514,-55.607
 L 245,-55.58 z
M 363.236,-55.607 L 362.727,-55.6875 L 362.23,-55.8208 L 361.749,-56.0054 L 361.29,-56.2392 L 360.858,-56.5196
 L 360.458,-56.8437 L 360.094,-57.2079 L 359.77,-57.6081 L 359.489,-58.04 L 359.255,-58.4989 L 359.071,-58.9796
 L 358.938,-59.4771 L 358.857,-59.9857 L 358.83,-60.5 L 358.857,-61.0143 L 358.938,-61.5229 L 359.071,-62.0204
 L 359.255,-62.5011 L 359.489,-62.96 L 359.77,-63.3919 L 360.094,-63.7921 L 360.458,-64.1563 L 360.858,-64.4804
 L 361.2,-64.7024 L 361.2,-74 L 361.256,-74.5302 L 361.42,-75.0372 L 361.687,-75.4988 L 362.044,-75.895
 L 362.475,-76.2084 L 362.962,-76.4252 L 363.483,-76.536 L 364.017,-76.536 L 364.538,-76.4252 L 365.025,-76.2084
 L 365.456,-75.895 L 365.813,-75.4988 L 366.08,-75.0372 L 366.244,-74.5302 L 366.3,-74 L 366.3,-64.7024
 L 366.642,-64.4804 L 367.042,-64.1563 L 367.406,-63.7921 L 367.73,-63.3919 L 368.011,-62.96 L 368.245,-62.5011
 L 368.429,-62.0204 L 368.562,-61.5229 L 368.643,-61.0143 L 368.67,-60.5 L 368.643,-59.9857 L 368.562,-59.4771
 L 368.429,-58.9796 L 368.245,-58.4989 L 368.011,-58.04 L 367.73,-57.6081 L 367.406,-57.2079 L 367.042,-56.8437
 L 366.642,-56.5196 L 366.21,-56.2392 L 365.751,-56.0054 L 365.27,-55.8208 L 364.773,-55.6875 L 364.264,-55.607
 L 363.75,-55.58 z
M 481.986,-55.607 L 481.477,-55.6875 L 480.98,-55.8208 L 480.499,-56.0054 L 480.04,-56.2392 L 479.608,-56.5196
 L 479.208,-56.8437 L 478.844,-57.2079 L 478.52,-57.6081 L 478.239,-58.04 L 478.005,-58.4989 L 477.821,-58.9796
 L 477.688,-59.4771 L 477.607,-59.9857 L 477.58,-60.5 L 477.607,-61.0143 L 477.688,-61.5229 L 477.821,-62.0204
 L 478.005,-62.5011 L 478.239,-62.96 L 478.52,-63.3919 L 478.844,-63.7921 L 479.208,-64.1563 L 479.608,-64.4804
 L 479.95,-64.7024 L 479.95,-74 L 480.006,-74.5302 L 480.17,-75.0372 L 480.437,-75.4988 L 480.794,-75.895
 L 481.225,-76.2084 L 481.712,-76.4252 L 482.233,-76.536 L 482.767,-76.536 L 483.288,-76.4252 L 483.775,-76.2084
 L 484.206,-75.895 L 484.563,-75.4988 L 484.83,-75.0372 L 484.994,-74.5302 L 485.05,-74 L 485.05,-64.7024
 L 485.392,-64.4804 L 485.792,-64.1563 L 486.156,-63.7921 L 486.48,-63.3919 L 486.761,-62.96 L 486.995,-62.5011
 L 487.179,-62.0204 L 487.312,-61.5229 L 487.393,-61.0143 L 487.42,-60.5 L 487.393,-59.9857 L 487.312,-59.4771
 L 487.179,-58.9796 L 486.995,-58.4989 L 486.761,-58.04 L 486.48,-57.6081 L 486.156,-57.2079 L 485.792,-56.8437
 L 485.392,-56.5196 L 484.96,-56.2392 L 484.501,-56.0054 L 484.02,-55.8208 L 483.523,-55.6875 L 483.014,-55.607
 L 482.5,-55.58 z
M 257.568,-24.4481 L 256.75,-24.6248 L 255.988,-24.9677 L 255.313,-25.4616 L 254.756,-26.085 L 254.34,-26.8107
 L 254.084,-27.6069 L 254,-28.4246 L 254,-58 L 254.087,-58.8316 L 254.346,-59.627 L 254.764,-60.3511
 L 255.323,-60.9726 L 256,-61.4641 L 256.764,-61.8042 L 258,-62 L 309.648,-62 L 310.48,-61.9126
 L 311.275,-61.6542 L 311.999,-61.2361 L 312.621,-60.6765 L 313.112,-60 L 313.452,-59.2361 L 313.626,-58.4181
 L 313.626,-57.5819 L 313.452,-56.7639 L 313.112,-56 L 312.621,-55.3235 L 311.999,-54.7639 L 311.636,-54.5288
 L 259.988,-24.9535 L 259.223,-24.6161 L 258.404,-24.4451 z
M 230.777,-24.6161 L 230.012,-24.9535 L 178.364,-54.5288 L 178.001,-54.7639 L 177.379,-55.3235 L 176.888,-56
 L 176.548,-56.7639 L 176.374,-57.5819 L 176.374,-58.4181 L 176.548,-59.2361 L 176.888,-60 L 177.379,-60.6765
 L 178.001,-61.2361 L 178.725,-61.6542 L 179.52,-61.9126 L 180.352,-62 L 232,-62 L 233.236,-61.8042
 L 234,-61.4641 L 234.677,-60.9726 L 235.236,-60.3511 L 235.654,-59.627 L 235.913,-58.8316 L 236,-58
 L 236,-28.4246 L 235.916,-27.6069 L 235.66,-26.8107 L 235.244,-26.085 L 234.687,-25.4616 L 234.012,-24.9677
 L 233.25,-24.6248 L 232.432,-24.4481 L 231.596,-24.4451 z
M 376.318,-24.4481 L 375.5,-24.6248 L 374.738,-24.9677 L 374.063,-25.4616 L 373.506,-26.085 L 373.09,-26.8107
 L 372.834,-27.6069 L 372.75,-28.4246 L 372.75,-58 L 372.837,-58.8316 L 373.096,-59.627 L 373.514,-60.3511
 L 374.073,-60.9726 L 374.75,-61.4641 L 375.514,-61.8042 L 376.75,-62 L 428.398,-62 L 429.23,-61.9126
 L 430.025,-61.6542 L 430.749,-61.2361 L 431.371,-60.6765 L 431.862,-60 L 432.202,-59.2361 L 432.376,-58.4181
 L 432.376,-57.5819 L 432.202,-56.7639 L 431.862,-56 L 431.371,-55.3235 L 430.749,-54.7639 L 430.386,-54.5288
 L 378.738,-24.9535 L 377.973,-24.6161 L 377.154,-24.4451 z
M 112.027,-24.6161 L 111.262,-24.9535 L 59.6141,-54.5288 L 59.2507,-54.7639 L 58.6293,-55.3235 L 58.1377,-56
 L 57.7976,-56.7639 L 57.6237,-57.5819 L 57.6237,-58.4181 L 57.7976,-59.2361 L 58.1377,-60 L 58.6293,-60.6765
 L 59.2507,-61.2361 L 59.9749,-61.6542 L 60.7702,-61.9126 L 61.6018,-62 L 113.25,-62 L 114.486,-61.8042
 L 115.25,-61.4641 L 115.927,-60.9726 L 116.486,-60.3511 L 116.904,-59.627 L 117.163,-58.8316 L 117.25,-58
 L 117.25,-28.4246 L 117.166,-27.6069 L 116.91,-26.8107 L 116.494,-26.085 L 115.937,-25.4616 L 115.262,-24.9677
 L 114.5,-24.6248 L 113.682,-24.4481 L 112.846,-24.4451 z
M 299.102,-18 L 298.27,-18.0874 L 297.475,-18.3458 L 296.751,-18.7639 L 296.129,-19.3235 L 295.638,-20
 L 295.298,-20.7639 L 295.124,-21.5819 L 295.124,-22.4181 L 295.298,-23.2361 L 295.638,-24 L 296.129,-24.6765
 L 296.751,-25.2361 L 297.114,-25.4712 L 348.762,-55.0465 L 349.527,-55.3839 L 350.346,-55.5549 L 351.182,-55.5519
 L 352,-55.3752 L 352.762,-55.0323 L 353.437,-54.5384 L 353.994,-53.915 L 354.41,-53.1893 L 354.666,-52.3931
 L 354.75,-51.5753 L 354.75,-22 L 354.663,-21.1684 L 354.404,-20.373 L 353.986,-19.6489 L 353.427,-19.0274
 L 352.75,-18.5359 L 351.986,-18.1958 L 350.75,-18 z
M 139.25,-18 L 138.014,-18.1958 L 137.25,-18.5359 L 136.573,-19.0274 L 136.014,-19.6489 L 135.596,-20.373
 L 135.337,-21.1684 L 135.25,-22 L 135.25,-51.5753 L 135.334,-52.3931 L 135.59,-53.1893 L 136.006,-53.915
 L 136.563,-54.5384 L 137.238,-55.0323 L 138,-55.3752 L 138.818,-55.5519 L 139.654,-55.5549 L 140.473,-55.3839
 L 141.238,-55.0465 L 192.886,-25.4712 L 193.249,-25.2361 L 193.871,-24.6765 L 194.362,-24 L 194.702,-23.2361
 L 194.876,-22.4181 L 194.876,-21.5819 L 194.702,-20.7639 L 194.362,-20 L 193.871,-19.3235 L 193.249,-18.7639
 L 192.525,-18.3458 L 191.73,-18.0874 L 190.898,-18 z
M 22,-18 L 20.7639,-18.1958 L 20,-18.5359 L 19.3235,-19.0274 L 18.7639,-19.6489 L 18.3458,-20.373
 L 18.0874,-21.1684 L 18,-22 L 18,-50.7164 L 18.0845,-51.5342 L 18.3401,-52.3304 L 18.7556,-53.0561
 L 19.313,-53.6795 L 19.9877,-54.1734 L 20.7504,-54.5162 L 21.5678,-54.693 L 22.404,-54.696 L 23.2226,-54.525
 L 23.9877,-54.1876 L 74.1358,-25.4712 L 74.4993,-25.2361 L 75.1207,-24.6765 L 75.6122,-24 L 75.9524,-23.2361
 L 76.1262,-22.4181 L 76.1262,-21.5819 L 75.9524,-20.7639 L 75.6122,-20 L 75.1207,-19.3235 L 74.4993,-18.7639
 L 73.7751,-18.3458 L 72.9798,-18.0874 L 72.1481,-18 z
M 417.852,-18 L 417.02,-18.0874 L 416.225,-18.3458 L 415.501,-18.7639 L 414.879,-19.3235 L 414.388,-20
 L 414.048,-20.7639 L 413.874,-21.5819 L 413.874,-22.4181 L 414.048,-23.2361 L 414.388,-24 L 414.879,-24.6765
 L 415.501,-25.2361 L 415.864,-25.4712 L 466.012,-54.1876 L 466.777,-54.525 L 467.596,-54.696 L 468.432,-54.693
 L 469.25,-54.5162 L 470.012,-54.1734 L 470.687,-53.6795 L 471.244,-53.0561 L 471.66,-52.3304 L 471.916,-51.5342
 L 472,-50.7164 L 472,-22 L 471.913,-21.1684 L 471.654,-20.373 L 471.236,-19.6489 L 470.677,-19.0274
 L 470,-18.5359 L 469.236,-18.1958 L 468,-18 z
" stroke="black" fill="lightgray" stroke-width="0.5"/>
</svg>
