<?xml version="1.0" standalone="no"?>
<!DOCTYPE svg PUBLIC "-//W3C//DTD SVG 1.1//EN" "http://www.w3.org/Graphics/SVG/1.1/DTD/svg11.dtd">
<svg width="739mm" height="80mm" viewBox="0 -80 739 80" xmlns="http://www.w3.org/2000/svg" version="1.1">
<title>OpenSCAD Model</title>
<path d="
M 739,-80 L 0,-80 L 0,-0 L 4.95,-0 L 4.95,-6 L 5.00572,-6.53017
 L 5.17046,-7.03717 L 5.437,-7.49884 L 5.79372,-7.895 L 6.22499,-8.20836 L 6.71201,-8.42519 L 7.23344,-8.53603
 L 7.76654,-8.53603 L 8.28798,-8.42519 L 8.77499,-8.20836 L 9.20627,-7.895 L 9.56299,-7.49884 L 9.82953,-7.03717
 L 9.99426,-6.53017 L 10.05,-6 L 10.05,-0 L 149.75,-0 L 149.75,-6 L 149.806,-6.53017
 L 149.97,-7.03717 L 150.237,-7.49884 L 150.594,-7.895 L 151.025,-8.20836 L 151.512,-8.42519 L 152.033,-8.53603
 L 152.567,-8.53603 L 153.088,-8.42519 L 153.575,-8.20836 L 154.006,-7.895 L 154.363,-7.49884 L 154.63,-7.03717
 L 154.794,-6.53017 L 154.85,-6 L 154.85,-0 L 294.55,-0 L 294.55,-6 L 294.606,-6.53017
 L 294.77,-7.03717 L 295.037,-7.49884 L 295.394,-7.895 L 295.825,-8.20836 L 296.312,-8.42519 L 296.833,-8.53603
 L 297.367,-8.53603 L 297.888,-8.42519 L 298.375,-8.20836 L 298.806,-7.895 L 299.163,-7.49884 L 299.43,-7.03717
 L 299.594,-6.53017 L 299.65,-6 L 299.65,-0 L 439.35,-0 L 439.35,-6 L 439.406,-6.53017
 L 439.57,-7.03717 L 439.837,-7.49884 L 440.194,-7.895 L 440.625,-8.20836 L 441.112,-8.42519 L 441.633,-8.53603
 L 442.167,-8.53603 L 442.688,-8.42519 L 443.175,-8.20836 L 443.606,-7.895 L 443.963,-7.49884 L 444.23,-7.03717
 L 444.394,-6.53017 L 444.45,-6 L 444.45,-0 L 584.15,-0 L 584.15,-6 L 584.206,-6.53017
 L 584.37,-7.03717 L 584.637,-7.49884 L 584.994,-7.895 L 585.425,-8.20836 L 585.912,-8.42519 L 586.433,-8.53603
 L 586.967,-8.53603 L 587.488,-8.42519 L 587.975,-8.20836 L 588.406,-7.895 L 588.763,-7.49884 L 589.03,-7.03717
 L 589.194,-6.53017 L 589.25,-6 L 589.25,-0 L 728.95,-0 L 728.95,-6 L 729.006,-6.53017
 L 729.17,-7.03717 L 729.437,-7.49884 L 729.794,-7.895 L 730.225,-8.20836 L 730.712,-8.42519 L 731.233,-8.53603
 L 731.767,-8.53603 L 732.288,-8.42519 L 732.775,-8.20836 L 733.206,-7.895 L 733.563,-7.49884 L 733.83,-7.03717
 L 733.994,-6.53017 L 734.05,-6 L 734.05,-0 L 739,-0 z
M 6.98573,-55.607 L 6.47708,-55.6875 L 5.97964,-55.8208 L 5.49887,-56.0054 L 5.04001,-56.2392 L 4.60811,-56.5196
 L 4.20789,-56.8437 L 3.84373,-57.2079 L 3.51964,-57.6081 L 3.23917,-58.04 L 3.00537,-58.4989 L 2.82082,-58.9796
 L 2.68752,-59.4771 L 2.60696,-59.9857 L 2.58,-60.5 L 2.60696,-61.0143 L 2.68752,-61.5229 L 2.82082,-62.0204
 L 3.00537,-62.5011 L 3.23917,-62.96 L 3.51964,-63.3919 L 3.84373,-63.7921 L 4.20789,-64.1563 L 4.60811,-64.4804
 L 4.95001,-64.7024 L 4.95001,-74 L 5.00574,-74.5302 L 5.17047,-75.0372 L 5.43701,-75.4988 L 5.79373,-75.895
 L 6.22501,-76.2084 L 6.71202,-76.4252 L 7.23346,-76.536 L 7.76654,-76.536 L 8.28798,-76.4252 L 8.77499,-76.2084
 L 9.20627,-75.895 L 9.56299,-75.4988 L 9.82953,-75.0372 L 9.99426,-74.5302 L 10.05,-74 L 10.05,-64.7024
 L 10.3919,-64.4804 L 10.7921,-64.1563 L 11.1563,-63.7921 L 11.4804,-63.3919 L 11.7608,-62.96 L 11.9946,-62.5011
 L 12.1792,-62.0204 L 12.3125,-61.5229 L 12.393,-61.0143 L 12.42,-60.5 L 12.393,-59.9857 L 12.3125,-59.4771
 L 12.1792,-58.9796 L 11.9946,-58.4989 L 11.7608,-58.04 L 11.4804,-57.6081 L 11.1563,-57.2079 L 10.7921,-56.8437
 L 10.3919,-56.5196 L 9.95999,-56.2392 L 9.50113,-56.0054 L 9.02036,-55.8208 L 8.52292,-55.6875 L 8.01427,-55.607
 L 7.5,-55.58 z
M 151.786,-55.607 L 151.277,-55.6875 L 150.78,-55.8208 L 150.299,-56.0054 L 149.84,-56.2392 L 149.408,-56.5196
 L 149.008,-56.8437 L 148.644,-57.2079 L 148.32,-57.6081 L 148.039,-58.04 L 147.805,-58.4989 L 147.621,-58.9796
 L 147.488,-59.4771 L 147.407,-59.9857 L 147.38,-60.5 L 147.407,-61.0143 L 147.488,-61.5229 L 147.621,-62.0204
 L 147.805,-62.5011 L 148.039,-62.96 L 148.32,-63.3919 L 148.644,-63.7921 L 149.008,-64.1563 L 149.408,-64.4804
 L 149.75,-64.7024 L 149.75,-74 L 149.806,-74.5302 L 149.97,-75.0372 L 150.237,-75.4988 L 150.594,-75.895
 L 151.025,-76.2084 L 151.512,-76.4252 L 152.033,-76.536 L 152.567,-76.536 L 153.088,-76.4252 L 153.575,-76.2084
 L 154.006,-75.895 L 154.363,-75.4988 L 154.63,-75.0372 L 154.794,-74.5302 L 154.85,-74 L 154.85,-64.7024
 L 155.192,-64.4804 L 155.592,-64.1563 L 155.956,-63.7921 L 156.28,-63.3919 L 156.561,-62.96 L 156.795,-62.5011
 L 156.979,-62.0204 L 157.112,-61.5229 L 157.193,-61.0143 L 157.22,-60.5 L 157.193,-59.9857 L 157.112,-59.4771
 L 156.979,-58.9796 L 156.795,-58.4989 L 156.561,-58.04 L 156.28,-57.6081 L 155.956,-57.2079 L 155.592,-56.8437
 L 155.192,-56.5196 L 154.76,-56.2392 L 154.301,-56.0054 L 153.82,-55.8208 L 153.323,-55.6875 L 152.814,-55.607
 L 152.3,-55.58 z
M 296.586,-55.607 L 296.077,-55.6875 L 295.58,-55.8208 L 295.099,-56.0054 L 294.64,-56.2392 L 294.208,-56.5196
 L 293.808,-56.8437 L 293.444,-57.2079 L 293.12,-57.6081 L 292.839,-58.04 L 292.605,-58.4989 L 292.421,-58.9796
 L 292.288,-59.4771 L 292.207,-59.9857 L 292.18,-60.5 L 292.207,-61.0143 L 292.288,-61.5229 L 292.421,-62.0204
 L 292.605,-62.5011 L 292.839,-62.96 L 293.12,-63.3919 L 293.444,-63.7921 L 293.808,-64.1563 L 294.208,-64.4804
 L 294.55,-64.7024 L 294.55,-74 L 294.606,-74.5302 L 294.77,-75.0372 L 295.037,-75.4988 L 295.394,-75.895
 L 295.825,-76.2084 L 296.312,-76.4252 L 296.833,-76.536 L 297.367,-76.536 L 297.888,-76.4252 L 298.375,-76.2084
 L 298.806,-75.895 L 299.163,-75.4988 L 299.43,-75.0372 L 299.594,-74.5302 L 299.65,-74 L 299.65,-64.7024
 L 299.992,-64.4804 L 300.392,-64.1563 L 300.756,-63.7921 L 301.08,-63.3919 L 301.361,-62.96 L 301.595,-62.5011
 L 301.779,-62.0204 L 301.912,-61.5229 L 301.993,-61.0143 L 302.02,-60.5 L 301.993,-59.9857 L 301.912,-59.4771
 L 301.779,-58.9796 L 301.595,-58.4989 L 301.361,-58.04 L 301.08,-57.6081 L 300.756,-57.2079 L 300.392,-56.8437
 L 299.992,-56.5196 L 299.56,-56.2392 L 299.101,-56.0054 L 298.62,-55.8208 L 298.123,-55.6875 L 297.614,-55.607
 L 297.1,-55.58 z
M 441.386,-55.607 L 440.877,-55.6875 L 440.38,-55.8208 L 439.899,-56.0054 L 439.44,-56.2392 L 439.008,-56.5196
 L 438.608,-56.8437 L 438.244,-57.2079 L 437.92,-57.6081 L 437.639,-58.04 L 437.405,-58.4989 L 437.221,-58.9796
 L 437.088,-59.4771 L 437.007,-59.9857 L 436.98,-60.5 L 437.007,-61.0143 L 437.088,-61.5229 L 437.221,-62.0204
 L 437.405,-62.5011 L 437.639,-62.96 L 437.92,-63.3919 L 438.244,-63.7921 L 438.608,-64.1563 L 439.008,-64.4804
 L 439.35,-64.7024 L 439.35,-74 L 439.406,-74.5302 L 439.57,-75.0372 L 439.837,-75.4988 L 440.194,-75.895
 L 440.625,-76.2084 L 441.112,-76.4252 L 441.633,-76.536 L 442.167,-76.536 L 442.688,-76.4252 L 443.175,-76.2084
 L 443.606,-75.895 L 443.963,-75.4988 L 444.23,-75.0372 L 444.394,-74.5302 L 444.45,-74 L 444.45,-64.7024
 L 444.792,-64.4804 L 445.192,-64.1563 L 445.556,-63.7921 L 445.88,-63.3919 L 446.161,-62.96 L 446.395,-62.5011
 L 446.579,-62.0204 L 446.712,-61.5229 L 446.793,-61.0143 L 446.82,-60.5 L 446.793,-59.9857 L 446.712,-59.4771
 L 446.579,-58.9796 L 446.395,-58.4989 L 446.161,-58.04 L 445.88,-57.6081 L 445.556,-57.2079 L 445.192,-56.8437
 L 444.792,-56.5196 L 444.36,-56.2392 L 443.901,-56.0054 L 443.42,-55.8208 L 442.923,-55.6875 L 442.414,-55.607
 L 441.9,-55.58 z
M 586.186,-55.607 L 585.677,-55.6875 L 585.18,-55.8208 L 584.699,-56.0054 L 584.24,-56.2392 L 583.808,-56.5196
 L 583.408,-56.8437 L 583.044,-57.2079 L 582.72,-57.6081 L 582.439,-58.04 L 582.205,-58.4989 L 582.021,-58.9796
 L 581.888,-59.4771 L 581.807,-59.9857 L 581.78,-60.5 L 581.807,-61.0143 L 581.888,-61.5229 L 582.021,-62.0204
 L 582.205,-62.5011 L 582.439,-62.96 L 582.72,-63.3919 L 583.044,-63.7921 L 583.408,-64.1563 L 583.808,-64.4804
 L 584.15,-64.7024 L 584.15,-74 L 584.206,-74.5302 L 584.37,-75.0372 L 584.637,-75.4988 L 584.994,-75.895
 L 585.425,-76.2084 L 585.912,-76.4252 L 586.433,-76.536 L 586.967,-76.536 L 587.488,-76.4252 L 587.975,-76.2084
 L 588.406,-75.895 L 588.763,-75.4988 L 589.03,-75.0372 L 589.194,-74.5302 L 589.25,-74 L 589.25,-64.7024
 L 589.592,-64.4804 L 589.992,-64.1563 L 590.356,-63.7921 L 590.68,-63.3919 L 590.961,-62.96 L 591.195,-62.5011
 L 591.379,-62.0204 L 591.512,-61.5229 L 591.593,-61.0143 L 591.62,-60.5 L 591.593,-59.9857 L 591.512,-59.4771
 L 591.379,-58.9796 L 591.195,-58.4989 L 590.961,-58.04 L 590.68,-57.6081 L 590.356,-57.2079 L 589.992,-56.8437
 L 589.592,-56.5196 L 589.16,-56.2392 L 588.701,-56.0054 L 588.22,-55.8208 L 587.723,-55.6875 L 587.214,-55.607
 L 586.7,-55.58 z
M 730.986,-55.607 L 730.477,-55.6875 L 729.98,-55.8208 L 729.499,-56.0054 L 729.04,-56.2392 L 728.608,-56.5196
 L 728.208,-56.8437 L 727.844,-57.2079 L 727.52,-57.6081 L 727.239,-58.04 L 727.005,-58.4989 L 726.821,-58.9796
 L 726.688,-59.4771 L 726.607,-59.9857 L 726.58,-60.5 L 726.607,-61.0143 L 726.688,-61.5229 L 726.821,-62.0204
 L 727.005,-62.5011 L 727.239,-62.96 L 727.52,-63.3919 L 727.844,-63.7921 L 728.208,-64.1563 L 728.608,-64.4804
 L 728.95,-64.7024 L 728.95,-74 L 729.006,-74.5302 L 729.17,-75.0372 L 729.437,-75.4988 L 729.794,-75.895
 L 730.225,-76.2084 L 730.712,-76.4252 L 731.233,-76.536 L 731.767,-76.536 L 732.288,-76.4252 L 732.775,-76.2084
 L 733.206,-75.895 L 733.563,-75.4988 L 733.83,-75.0372 L 733.994,-74.5302 L 734.05,-74 L 734.05,-64.7024
 L 734.392,-64.4804 L 734.792,-64.1563 L 735.156,-63.7921 L 735.48,-63.3919 L 735.761,-62.96 L 735.995,-62.5011
 L 736.179,-62.0204 L 736.312,-61.5229 L 736.393,-61.0143 L 736.42,-60.5 L 736.393,-59.9857 L 736.312,-59.4771
 L 736.179,-58.9796 L 735.995,-58.4989 L 735.761,-58.04 L 735.48,-57.6081 L 735.156,-57.2079 L 734.792,-56.8437
 L 734.392,-56.5196 L 733.96,-56.2392 L 733.501,-56.0054 L 733.02,-55.8208 L 732.523,-55.6875 L 732.014,-55.607
 L 731.5,-55.58 z
M 368.59,-48.2551 L 367.8,-48.5295 L 355.343,-54.3794 L 354.692,-54.7639 L 354.071,-55.3235 L 353.579,-56
 L 353.239,-56.7639 L 353.065,-57.5819 L 353.065,-58.4181 L 353.239,-59.2361 L 353.579,-60 L 354.071,-60.6765
 L 354.692,-61.2361 L 355.416,-61.6542 L 356.211,-61.9126 L 357.043,-62 L 381.957,-62 L 382.709,-61.9286
 L 383.51,-61.6862 L 384.242,-61.2828 L 384.875,-60.7359 L 385.38,-60.0694 L 385.735,-59.3125 L 385.926,-58.4982
 L 385.943,-57.6622 L 385.785,-56.8409 L 385.461,-56.0703 L 384.983,-55.384 L 384.373,-54.812 L 383.657,-54.3794
 L 371.2,-48.5295 L 370.253,-48.2215 L 369.419,-48.1509 z
M 283.19,-22.5692 L 282.4,-22.8435 L 215.247,-54.3794 L 214.596,-54.7639 L 213.975,-55.3235 L 213.483,-56
 L 213.143,-56.7639 L 212.969,-57.5819 L 212.969,-58.4181 L 213.143,-59.2361 L 213.483,-60 L 213.975,-60.6765
 L 214.596,-61.2361 L 215.32,-61.6542 L 216.116,-61.9126 L 216.947,-62 L 284.1,-62 L 285.336,-61.8042
 L 286.1,-61.4641 L 286.777,-60.9726 L 287.336,-60.3511 L 287.754,-59.627 L 288.013,-58.8316 L 288.1,-58
 L 288.1,-26.4642 L 288.069,-25.9659 L 287.879,-25.1516 L 287.523,-24.3947 L 287.018,-23.7283 L 286.385,-23.1814
 L 285.653,-22.7779 L 284.853,-22.5356 L 284.019,-22.465 z
M 598.947,-22.5356 L 598.147,-22.7779 L 597.415,-23.1814 L 596.782,-23.7283 L 596.277,-24.3947 L 595.921,-25.1516
 L 595.731,-25.9659 L 595.7,-26.4642 L 595.7,-58 L 595.787,-58.8316 L 596.046,-59.627 L 596.464,-60.3511
 L 597.023,-60.9726 L 597.7,-61.4641 L 598.464,-61.8042 L 599.7,-62 L 666.853,-62 L 667.684,-61.9126
 L 668.48,-61.6542 L 669.204,-61.2361 L 669.825,-60.6765 L 670.317,-60 L 670.657,-59.2361 L 670.831,-58.4181
 L 670.831,-57.5819 L 670.657,-56.7639 L 670.317,-56 L 669.825,-55.3235 L 669.204,-54.7639 L 668.553,-54.3794
 L 601.4,-22.8435 L 600.61,-22.5692 L 599.781,-22.465 z
M 138.39,-22.5692 L 137.6,-22.8435 L 70.4469,-54.3794 L 69.7961,-54.7639 L 69.1747,-55.3235 L 68.6831,-56
 L 68.343,-56.7639 L 68.1691,-57.5819 L 68.1691,-58.4181 L 68.343,-59.2361 L 68.6831,-60 L 69.1747,-60.6765
 L 69.7961,-61.2361 L 70.5203,-61.6542 L 71.3156,-61.9126 L 72.1472,-62 L 139.3,-62 L 140.536,-61.8042
 L 141.3,-61.4641 L 141.977,-60.9726 L 142.536,-60.3511 L 142.954,-59.627 L 143.213,-58.8316 L 143.3,-58
 L 143.3,-26.4642 L 143.269,-25.9659 L 143.079,-25.1516 L 142.723,-24.3947 L 142.218,-23.7283 L 141.585,-23.1814
 L 140.853,-22.7779 L 140.053,-22.5356 L 139.219,-22.465 z
M 454.147,-22.5356 L 453.347,-22.7779 L 452.615,-23.1814 L 451.982,-23.7283 L 451.477,-24.3947 L 451.121,-25.1516
 L 450.931,-25.9659 L 450.9,-26.4642 L 450.9,-58 L 450.987,-58.8316 L 451.246,-59.627 L 451.664,-60.3511
 L 452.223,-60.9726 L 452.9,-61.4641 L 453.664,-61.8042 L 454.9,-62 L 522.053,-62 L 522.884,-61.9126
 L 523.68,-61.6542 L 524.404,-61.2361 L 525.025,-60.6765 L 525.517,-60 L 525.857,-59.2361 L 526.031,-58.4181
 L 526.031,-57.5819 L 525.857,-56.7639 L 525.517,-56 L 525.025,-55.3235 L 524.404,-54.7639 L 523.753,-54.3794
 L 456.6,-22.8435 L 455.81,-22.5692 L 454.981,-22.465 z
M 309.682,-20.277 L 308.864,-20.4509 L 308.1,-20.791 L 307.423,-21.2825 L 306.864,-21.9039 L 306.446,-22.6281
 L 306.187,-23.4234 L 306.1,-24.2551 L 306.1,-55.7449 L 306.131,-56.2432 L 306.321,-57.0574 L 306.677,-57.8144
 L 307.182,-58.4808 L 307.815,-59.0277 L 308.547,-59.4312 L 309.347,-59.6735 L 310.181,-59.7441 L 311.01,-59.6399
 L 311.8,-59.3656 L 345.328,-43.6206 L 345.913,-43.2828 L 346.545,-42.7359 L 347.05,-42.0694 L 347.406,-41.3125
 L 347.596,-40.4982 L 347.613,-39.6622 L 347.456,-38.8409 L 347.131,-38.0703 L 346.653,-37.384 L 346.043,-36.812
 L 345.328,-36.3794 L 311.8,-20.6344 L 311.336,-20.4509 L 310.518,-20.277 z
M 427.99,-20.36 L 427.2,-20.6344 L 393.672,-36.3794 L 393.087,-36.7172 L 392.455,-37.2641 L 391.949,-37.9306
 L 391.594,-38.6875 L 391.404,-39.5018 L 391.387,-40.3378 L 391.544,-41.1591 L 391.869,-41.9297 L 392.347,-42.616
 L 392.957,-43.188 L 393.672,-43.6206 L 427.2,-59.3656 L 427.664,-59.5492 L 428.482,-59.723 L 429.318,-59.723
 L 430.136,-59.5492 L 430.9,-59.209 L 431.577,-58.7175 L 432.136,-58.0961 L 432.554,-57.3719 L 432.813,-56.5766
 L 432.9,-55.7449 L 432.9,-24.2551 L 432.869,-23.7568 L 432.679,-22.9425 L 432.323,-22.1856 L 431.818,-21.5191
 L 431.185,-20.9722 L 430.453,-20.5688 L 429.653,-20.3265 L 428.819,-20.2559 z
M 165.3,-18 L 164.064,-18.1958 L 163.3,-18.5359 L 162.623,-19.0274 L 162.064,-19.6489 L 161.646,-20.373
 L 161.387,-21.1684 L 161.3,-22 L 161.3,-53.5358 L 161.331,-54.0341 L 161.521,-54.8483 L 161.877,-55.6053
 L 162.382,-56.2717 L 163.015,-56.8186 L 163.747,-57.2221 L 164.547,-57.4644 L 165.381,-57.535 L 166.21,-57.4308
 L 167,-57.1564 L 234.153,-25.6206 L 234.804,-25.2361 L 235.425,-24.6765 L 235.917,-24 L 236.257,-23.2361
 L 236.431,-22.4181 L 236.431,-21.5819 L 236.257,-20.7639 L 235.917,-20 L 235.425,-19.3235 L 234.804,-18.7639
 L 234.08,-18.3458 L 233.284,-18.0874 L 232.453,-18 z
M 506.547,-18 L 505.716,-18.0874 L 504.92,-18.3458 L 504.196,-18.7639 L 503.575,-19.3235 L 503.083,-20
 L 502.743,-20.7639 L 502.569,-21.5819 L 502.569,-22.4181 L 502.743,-23.2361 L 503.083,-24 L 503.575,-24.6765
 L 504.196,-25.2361 L 504.847,-25.6206 L 572,-57.1564 L 572.79,-57.4308 L 573.619,-57.535 L 574.453,-57.4644
 L 575.253,-57.2221 L 575.985,-56.8186 L 576.618,-56.2717 L 577.123,-55.6053 L 577.479,-54.8483 L 577.669,-54.0341
 L 577.7,-53.5358 L 577.7,-22 L 577.613,-21.1684 L 577.354,-20.373 L 576.936,-19.6489 L 576.377,-19.0274
 L 575.7,-18.5359 L 574.936,-18.1958 L 573.7,-18 z
M 22,-18 L 20.7639,-18.1958 L 20,-18.5359 L 19.3235,-19.0274 L 18.7639,-19.6489 L 18.3458,-20.373
 L 18.0874,-21.1684 L 18,-22 L 18,-52.8314 L 18.0312,-53.3297 L 18.2215,-54.1439 L 18.5769,-54.9008
 L 19.082,-55.5673 L 19.7146,-56.1142 L 20.4471,-56.5177 L 21.2474,-56.76 L 22.0807,-56.8306 L 22.9104,-56.7264
 L 23.7003,-56.452 L 89.3531,-25.6206 L 90.0039,-25.2361 L 90.6253,-24.6765 L 91.1169,-24 L 91.457,-23.2361
 L 91.6308,-22.4181 L 91.6308,-21.5819 L 91.457,-20.7639 L 91.1169,-20 L 90.6253,-19.3235 L 90.0039,-18.7639
 L 89.2797,-18.3458 L 88.4844,-18.0874 L 87.6528,-18 z
M 651.347,-18 L 650.516,-18.0874 L 649.72,-18.3458 L 648.996,-18.7639 L 648.375,-19.3235 L 647.883,-20
 L 647.543,-20.7639 L 647.369,-21.5819 L 647.369,-22.4181 L 647.543,-23.2361 L 647.883,-24 L 648.375,-24.6765
 L 648.996,-25.2361 L 649.647,-25.6206 L 715.3,-56.452 L 716.09,-56.7264 L 716.919,-56.8306 L 717.753,-56.76
 L 718.553,-56.5177 L 719.285,-56.1142 L 719.918,-55.5673 L 720.423,-54.9008 L 720.779,-54.1439 L 720.969,-53.3297
 L 721,-52.8314 L 721,-22 L 720.913,-21.1684 L 720.654,-20.373 L 720.236,-19.6489 L 719.677,-19.0274
 L 719,-18.5359 L 718.236,-18.1958 L 717,-18 z
M 357.043,-18 L 356.291,-18.0714 L 355.49,-18.3138 L 354.758,-18.7172 L 354.125,-19.2641 L 353.62,-19.9306
 L 353.265,-20.6875 L 353.074,-21.5018 L 353.057,-22.3378 L 353.215,-23.1591 L 353.539,-23.9297 L 354.017,-24.616
 L 354.627,-25.188 L 355.343,-25.6206 L 367.8,-31.4705 L 368.747,-31.7785 L 369.581,-31.8491 L 370.41,-31.7449
 L 371.2,-31.4705 L 383.657,-25.6206 L 384.308,-25.2361 L 384.929,-24.6765 L 385.421,-24 L 385.761,-23.2361
 L 385.935,-22.4181 L 385.935,-21.5819 L 385.761,-20.7639 L 385.421,-20 L 384.929,-19.3235 L 384.308,-18.7639
 L 383.584,-18.3458 L 382.788,-18.0874 L 381.957,-18 z
" stroke="black" fill="lightgray" stroke-width="0.5"/>
</svg>
