<?xml version="1.0" standalone="no"?>
<!DOCTYPE svg PUBLIC "-//W3C//DTD SVG 1.1//EN" "http://www.w3.org/Graphics/SVG/1.1/DTD/svg11.dtd">
<svg width="595mm" height="80mm" viewBox="0 -80 595 80" xmlns="http://www.w3.org/2000/svg" version="1.1">
<title>OpenSCAD Model</title>
<path d="
M 595,-80 L 0,-80 L 0,-0 L 4.95,-0 L 4.95,-6 L 5.00572,-6.53017
 L 5.17046,-7.03717 L 5.437,-7.49884 L 5.79372,-7.895 L 6.22499,-8.20836 L 6.71201,-8.42519 L 7.23344,-8.53603
 L 7.76654,-8.53603 L 8.28798,-8.42519 L 8.77499,-8.20836 L 9.20627,-7.895 L 9.56299,-7.49884 L 9.82953,-7.03717
 L 9.99426,-6.53017 L 10.05,-6 L 10.05,-0 L 149.95,-0 L 149.95,-6 L 150.006,-6.53017
 L 150.17,-7.03717 L 150.437,-7.49884 L 150.794,-7.895 L 151.225,-8.20836 L 151.712,-8.42519 L 152.233,-8.53603
 L 152.767,-8.53603 L 153.288,-8.42519 L 153.775,-8.20836 L 154.206,-7.895 L 154.563,-7.49884 L 154.83,-7.03717
 L 154.994,-6.53017 L 155.05,-6 L 155.05,-0 L 294.95,-0 L 294.95,-6 L 295.006,-6.53017
 L 295.17,-7.03717 L 295.437,-7.49884 L 295.794,-7.895 L 296.225,-8.20836 L 296.712,-8.42519 L 297.233,-8.53603
 L 297.767,-8.53603 L 298.288,-8.42519 L 298.775,-8.20836 L 299.206,-7.895 L 299.563,-7.49884 L 299.83,-7.03717
 L 299.994,-6.53017 L 300.05,-6 L 300.05,-0 L 439.95,-0 L 439.95,-6 L 440.006,-6.53017
 L 440.17,-7.03717 L 440.437,-7.49884 L 440.794,-7.895 L 441.225,-8.20836 L 441.712,-8.42519 L 442.233,-8.53603
 L 442.767,-8.53603 L 443.288,-8.42519 L 443.775,-8.20836 L 444.206,-7.895 L 444.563,-7.49884 L 444.83,-7.03717
 L 444.994,-6.53017 L 445.05,-6 L 445.05,-0 L 584.95,-0 L 584.95,-6 L 585.006,-6.53017
 L 585.17,-7.03717 L 585.437,-7.49884 L 585.794,-7.895 L 586.225,-8.20836 L 586.712,-8.42519 L 587.233,-8.53603
 L 587.767,-8.53603 L 588.288,-8.42519 L 588.775,-8.20836 L 589.206,-7.895 L 589.563,-7.49884 L 589.83,-7.03717
 L 589.994,-6.53017 L 590.05,-6 L 590.05,-0 L 595,-0 z
M 6.98573,-55.607 L 6.47708,-55.6875 L 5.97964,-55.8208 L 5.49887,-56.0054 L 5.04001,-56.2392 L 4.60811,-56.5196
 L 4.20789,-56.8437 L 3.84373,-57.2079 L 3.51964,-57.6081 L 3.23917,-58.04 L 3.00537,-58.4989 L 2.82082,-58.9796
 L 2.68752,-59.4771 L 2.60696,-59.9857 L 2.58,-60.5 L 2.60696,-61.0143 L 2.68752,-61.5229 L 2.82082,-62.0204
 L 3.00537,-62.5011 L 3.23917,-62.96 L 3.51964,-63.3919 L 3.84373,-63.7921 L 4.20789,-64.1563 L 4.60811,-64.4804
 L 4.95001,-64.7024 L 4.95001,-74 L 5.00574,-74.5302 L 5.17047,-75.0372 L 5.43701,-75.4988 L 5.79373,-75.895
 L 6.22501,-76.2084 L 6.71202,-76.4252 L 7.23346,-76.536 L 7.76654,-76.536 L 8.28798,-76.4252 L 8.77499,-76.2084
 L 9.20627,-75.895 L 9.56299,-75.4988 L 9.82953,-75.0372 L 9.99426,-74.5302 L 10.05,-74 L 10.05,-64.7024
 L 10.3919,-64.4804 L 10.7921,-64.1563 L 11.1563,-63.7921 L 11.4804,-63.3919 L 11.7608,-62.96 L 11.9946,-62.5011
 L 12.1792,-62.0204 L 12.3125,-61.5229 L 12.393,-61.0143 L 12.42,-60.5 L 12.393,-59.9857 L 12.3125,-59.4771
 L 12.1792,-58.9796 L 11.9946,-58.4989 L 11.7608,-58.04 L 11.4804,-57.6081 L 11.1563,-57.2079 L 10.7921,-56.8437
 L 10.3919,-56.5196 L 9.95999,-56.2392 L 9.50113,-56.0054 L 9.02036,-55.8208 L 8.52292,-55.6875 L 8.01427,-55.607
 L 7.5,-55.58 z
M 151.986,-55.607 L 151.477,-55.6875 L 150.98,-55.8208 L 150.499,-56.0054 L 150.04,-56.2392 L 149.608,-56.5196
 L 149.208,-56.8437 L 148.844,-57.2079 L 148.52,-57.6081 L 148.239,-58.04 L 148.005,-58.4989 L 147.821,-58.9796
 L 147.688,-59.4771 L 147.607,-59.9857 L 147.58,-60.5 L 147.607,-61.0143 L 147.688,-61.5229 L 147.821,-62.0204
 L 148.005,-62.5011 L 148.239,-62.96 L 148.52,-63.3919 L 148.844,-63.7921 L 149.208,-64.1563 L 149.608,-64.4804
 L 149.95,-64.7024 L 149.95,-74 L 150.006,-74.5302 L 150.17,-75.0372 L 150.437,-75.4988 L 150.794,-75.895
 L 151.225,-76.2084 L 151.712,-76.4252 L 152.233,-76.536 L 152.767,-76.536 L 153.288,-76.4252 L 153.775,-76.2084
 L 154.206,-75.895 L 154.563,-75.4988 L 154.83,-75.0372 L 154.994,-74.5302 L 155.05,-74 L 155.05,-64.7024
 L 155.392,-64.4804 L 155.792,-64.1563 L 156.156,-63.7921 L 156.48,-63.3919 L 156.761,-62.96 L 156.995,-62.5011
 L 157.179,-62.0204 L 157.312,-61.5229 L 157.393,-61.0143 L 157.42,-60.5 L 157.393,-59.9857 L 157.312,-59.4771
 L 157.179,-58.9796 L 156.995,-58.4989 L 156.761,-58.04 L 156.48,-57.6081 L 156.156,-57.2079 L 155.792,-56.8437
 L 155.392,-56.5196 L 154.96,-56.2392 L 154.501,-56.0054 L 154.02,-55.8208 L 153.523,-55.6875 L 153.014,-55.607
 L 152.5,-55.58 z
M 296.986,-55.607 L 296.477,-55.6875 L 295.98,-55.8208 L 295.499,-56.0054 L 295.04,-56.2392 L 294.608,-56.5196
 L 294.208,-56.8437 L 293.844,-57.2079 L 293.52,-57.6081 L 293.239,-58.04 L 293.005,-58.4989 L 292.821,-58.9796
 L 292.688,-59.4771 L 292.607,-59.9857 L 292.58,-60.5 L 292.607,-61.0143 L 292.688,-61.5229 L 292.821,-62.0204
 L 293.005,-62.5011 L 293.239,-62.96 L 293.52,-63.3919 L 293.844,-63.7921 L 294.208,-64.1563 L 294.608,-64.4804
 L 294.95,-64.7024 L 294.95,-74 L 295.006,-74.5302 L 295.17,-75.0372 L 295.437,-75.4988 L 295.794,-75.895
 L 296.225,-76.2084 L 296.712,-76.4252 L 297.233,-76.536 L 297.767,-76.536 L 298.288,-76.4252 L 298.775,-76.2084
 L 299.206,-75.895 L 299.563,-75.4988 L 299.83,-75.0372 L 299.994,-74.5302 L 300.05,-74 L 300.05,-64.7024
 L 300.392,-64.4804 L 300.792,-64.1563 L 301.156,-63.7921 L 301.48,-63.3919 L 301.761,-62.96 L 301.995,-62.5011
 L 302.179,-62.0204 L 302.312,-61.5229 L 302.393,-61.0143 L 302.42,-60.5 L 302.393,-59.9857 L 302.312,-59.4771
 L 302.179,-58.9796 L 301.995,-58.4989 L 301.761,-58.04 L 301.48,-57.6081 L 301.156,-57.2079 L 300.792,-56.8437
 L 300.392,-56.5196 L 299.96,-56.2392 L 299.501,-56.0054 L 299.02,-55.8208 L 298.523,-55.6875 L 298.014,-55.607
 L 297.5,-55.58 z
M 441.986,-55.607 L 441.477,-55.6875 L 440.98,-55.8208 L 440.499,-56.0054 L 440.04,-56.2392 L 439.608,-56.5196
 L 439.208,-56.8437 L 438.844,-57.2079 L 438.52,-57.6081 L 438.239,-58.04 L 438.005,-58.4989 L 437.821,-58.9796
 L 437.688,-59.4771 L 437.607,-59.9857 L 437.58,-60.5 L 437.607,-61.0143 L 437.688,-61.5229 L 437.821,-62.0204
 L 438.005,-62.5011 L 438.239,-62.96 L 438.52,-63.3919 L 438.844,-63.7921 L 439.208,-64.1563 L 439.608,-64.4804
 L 439.95,-64.7024 L 439.95,-74 L 440.006,-74.5302 L 440.17,-75.0372 L 440.437,-75.4988 L 440.794,-75.895
 L 441.225,-76.2084 L 441.712,-76.4252 L 442.233,-76.536 L 442.767,-76.536 L 443.288,-76.4252 L 443.775,-76.2084
 L 444.206,-75.895 L 444.563,-75.4988 L 444.83,-75.0372 L 444.994,-74.5302 L 445.05,-74 L 445.05,-64.7024
 L 445.392,-64.4804 L 445.792,-64.1563 L 446.156,-63.7921 L 446.48,-63.3919 L 446.761,-62.96 L 446.995,-62.5011
 L 447.179,-62.0204 L 447.312,-61.5229 L 447.393,-61.0143 L 447.42,-60.5 L 447.393,-59.9857 L 447.312,-59.4771
 L 447.179,-58.9796 L 446.995,-58.4989 L 446.761,-58.04 L 446.48,-57.6081 L 446.156,-57.2079 L 445.792,-56.8437
 L 445.392,-56.5196 L 444.96,-56.2392 L 444.501,-56.0054 L 444.02,-55.8208 L 443.523,-55.6875 L 443.014,-55.607
 L 442.5,-55.58 z
M 586.986,-55.607 L 586.477,-55.6875 L 585.98,-55.8208 L 585.499,-56.0054 L 585.04,-56.2392 L 584.608,-56.5196
 L 584.208,-56.8437 L 583.844,-57.2079 L 583.52,-57.6081 L 583.239,-58.04 L 583.005,-58.4989 L 582.821,-58.9796
 L 582.688,-59.4771 L 582.607,-59.9857 L 582.58,-60.5 L 582.607,-61.0143 L 582.688,-61.5229 L 582.821,-62.0204
 L 583.005,-62.5011 L 583.239,-62.96 L 583.52,-63.3919 L 583.844,-63.7921 L 584.208,-64.1563 L 584.608,-64.4804
 L 584.95,-64.7024 L 584.95,-74 L 585.006,-74.5302 L 585.17,-75.0372 L 585.437,-75.4988 L 585.794,-75.895
 L 586.225,-76.2084 L 586.712,-76.4252 L 587.233,-76.536 L 587.767,-76.536 L 588.288,-76.4252 L 588.775,-76.2084
 L 589.206,-75.895 L 589.563,-75.4988 L 589.83,-75.0372 L 589.994,-74.5302 L 590.05,-74 L 590.05,-64.7024
 L 590.392,-64.4804 L 590.792,-64.1563 L 591.156,-63.7921 L 591.48,-63.3919 L 591.761,-62.96 L 591.995,-62.5011
 L 592.179,-62.0204 L 592.312,-61.5229 L 592.393,-61.0143 L 592.42,-60.5 L 592.393,-59.9857 L 592.312,-59.4771
 L 592.179,-58.9796 L 591.995,-58.4989 L 591.761,-58.04 L 591.48,-57.6081 L 591.156,-57.2079 L 590.792,-56.8437
 L 590.392,-56.5196 L 589.96,-56.2392 L 589.501,-56.0054 L 589.02,-55.8208 L 588.523,-55.6875 L 588.014,-55.607
 L 587.5,-55.58 z
M 309.745,-22.5242 L 308.945,-22.7669 L 308.213,-23.1707 L 307.581,-23.718 L 307.076,-24.3847 L 306.721,-25.1418
 L 306.531,-25.9562 L 306.5,-26.4523 L 306.5,-58 L 306.587,-58.8316 L 306.846,-59.627 L 307.264,-60.3511
 L 307.823,-60.9726 L 308.5,-61.4641 L 309.264,-61.8042 L 310.5,-62 L 377.771,-62 L 378.602,-61.9126
 L 379.398,-61.6542 L 380.122,-61.2361 L 380.743,-60.6765 L 381.235,-60 L 381.575,-59.2361 L 381.749,-58.4181
 L 381.749,-57.5819 L 381.575,-56.7639 L 381.235,-56 L 380.743,-55.3235 L 380.122,-54.7639 L 379.469,-54.3785
 L 312.198,-22.8308 L 311.408,-22.5568 L 310.579,-22.4531 z
M 283.592,-22.5568 L 282.802,-22.8308 L 215.531,-54.3785 L 214.878,-54.7639 L 214.257,-55.3235 L 213.765,-56
 L 213.425,-56.7639 L 213.251,-57.5819 L 213.251,-58.4181 L 213.425,-59.2361 L 213.765,-60 L 214.257,-60.6765
 L 214.878,-61.2361 L 215.602,-61.6542 L 216.398,-61.9126 L 217.229,-62 L 284.5,-62 L 285.736,-61.8042
 L 286.5,-61.4641 L 287.177,-60.9726 L 287.736,-60.3511 L 288.154,-59.627 L 288.413,-58.8316 L 288.5,-58
 L 288.5,-26.4523 L 288.469,-25.9562 L 288.279,-25.1418 L 287.924,-24.3847 L 287.419,-23.718 L 286.787,-23.1707
 L 286.055,-22.7669 L 285.255,-22.5242 L 284.421,-22.4531 z
M 454.745,-22.5242 L 453.945,-22.7669 L 453.213,-23.1707 L 452.581,-23.718 L 452.076,-24.3847 L 451.721,-25.1418
 L 451.531,-25.9562 L 451.5,-26.4523 L 451.5,-58 L 451.587,-58.8316 L 451.846,-59.627 L 452.264,-60.3511
 L 452.823,-60.9726 L 453.5,-61.4641 L 454.264,-61.8042 L 455.5,-62 L 522.771,-62 L 523.602,-61.9126
 L 524.398,-61.6542 L 525.122,-61.2361 L 525.743,-60.6765 L 526.235,-60 L 526.575,-59.2361 L 526.749,-58.4181
 L 526.749,-57.5819 L 526.575,-56.7639 L 526.235,-56 L 525.743,-55.3235 L 525.122,-54.7639 L 524.469,-54.3785
 L 457.198,-22.8308 L 456.408,-22.5568 L 455.579,-22.4531 z
M 138.592,-22.5568 L 137.802,-22.8308 L 70.5308,-54.3785 L 69.8781,-54.7639 L 69.2566,-55.3235 L 68.7651,-56
 L 68.425,-56.7639 L 68.2511,-57.5819 L 68.2511,-58.4181 L 68.425,-59.2361 L 68.7651,-60 L 69.2566,-60.6765
 L 69.8781,-61.2361 L 70.6023,-61.6542 L 71.3976,-61.9126 L 72.2292,-62 L 139.5,-62 L 140.736,-61.8042
 L 141.5,-61.4641 L 142.177,-60.9726 L 142.736,-60.3511 L 143.154,-59.627 L 143.413,-58.8316 L 143.5,-58
 L 143.5,-26.4523 L 143.469,-25.9562 L 143.279,-25.1418 L 142.924,-24.3847 L 142.419,-23.718 L 141.787,-23.1707
 L 141.055,-22.7669 L 140.255,-22.5242 L 139.421,-22.4531 z
M 362.229,-18 L 361.398,-18.0874 L 360.602,-18.3458 L 359.878,-18.7639 L 359.257,-19.3235 L 358.765,-20
 L 358.425,-20.7639 L 358.251,-21.5819 L 358.251,-22.4181 L 358.425,-23.2361 L 358.765,-24 L 359.257,-24.6765
 L 359.878,-25.2361 L 360.531,-25.6215 L 427.802,-57.1692 L 428.592,-57.4432 L 429.421,-57.5469 L 430.255,-57.4758
 L 431.055,-57.2331 L 431.787,-56.8293 L 432.419,-56.282 L 432.924,-55.6153 L 433.279,-54.8582 L 433.469,-54.0438
 L 433.5,-53.5477 L 433.5,-22 L 433.413,-21.1684 L 433.154,-20.373 L 432.736,-19.6489 L 432.177,-19.0274
 L 431.5,-18.5359 L 430.736,-18.1958 L 429.5,-18 z
M 165.5,-18 L 164.264,-18.1958 L 163.5,-18.5359 L 162.823,-19.0274 L 162.264,-19.6489 L 161.846,-20.373
 L 161.587,-21.1684 L 161.5,-22 L 161.5,-53.5477 L 161.531,-54.0438 L 161.721,-54.8582 L 162.076,-55.6153
 L 162.581,-56.282 L 163.213,-56.8293 L 163.945,-57.2331 L 164.745,-57.4758 L 165.579,-57.5469 L 166.408,-57.4432
 L 167.198,-57.1692 L 234.469,-25.6215 L 235.122,-25.2361 L 235.743,-24.6765 L 236.235,-24 L 236.575,-23.2361
 L 236.749,-22.4181 L 236.749,-21.5819 L 236.575,-20.7639 L 236.235,-20 L 235.743,-19.3235 L 235.122,-18.7639
 L 234.398,-18.3458 L 233.602,-18.0874 L 232.771,-18 z
M 22,-18 L 20.7639,-18.1958 L 20,-18.5359 L 19.3235,-19.0274 L 18.7639,-19.6489 L 18.3458,-20.373
 L 18.0874,-21.1684 L 18,-22 L 18,-52.8442 L 18.0309,-53.3404 L 18.2208,-54.1547 L 18.5758,-54.9118
 L 19.0805,-55.5786 L 19.7128,-56.1258 L 20.4451,-56.5296 L 21.2453,-56.7724 L 22.0785,-56.8434 L 22.9083,-56.7397
 L 23.6984,-56.4658 L 89.4691,-25.6215 L 90.1219,-25.2361 L 90.7433,-24.6765 L 91.2349,-24 L 91.575,-23.2361
 L 91.7489,-22.4181 L 91.7489,-21.5819 L 91.575,-20.7639 L 91.2349,-20 L 90.7433,-19.3235 L 90.1219,-18.7639
 L 89.3977,-18.3458 L 88.6024,-18.0874 L 87.7708,-18 z
M 507.229,-18 L 506.398,-18.0874 L 505.602,-18.3458 L 504.878,-18.7639 L 504.257,-19.3235 L 503.765,-20
 L 503.425,-20.7639 L 503.251,-21.5819 L 503.251,-22.4181 L 503.425,-23.2361 L 503.765,-24 L 504.257,-24.6765
 L 504.878,-25.2361 L 505.531,-25.6215 L 571.302,-56.4658 L 572.092,-56.7397 L 572.921,-56.8434 L 573.755,-56.7724
 L 574.555,-56.5296 L 575.287,-56.1258 L 575.919,-55.5786 L 576.424,-54.9118 L 576.779,-54.1547 L 576.969,-53.3404
 L 577,-52.8442 L 577,-22 L 576.913,-21.1684 L 576.654,-20.373 L 576.236,-19.6489 L 575.677,-19.0274
 L 575,-18.5359 L 574.236,-18.1958 L 573,-18 z
" stroke="black" fill="lightgray" stroke-width="0.5"/>
</svg>
