<?xml version="1.0" standalone="no"?>
<!DOCTYPE svg PUBLIC "-//W3C//DTD SVG 1.1//EN" "http://www.w3.org/Graphics/SVG/1.1/DTD/svg11.dtd">
<svg width="776mm" height="80mm" viewBox="0 -80 776 80" xmlns="http://www.w3.org/2000/svg" version="1.1">
<title>OpenSCAD Model</title>
<path d="
M 776,-80 L 0,-80 L 0,-0 L 4.95,-0 L 4.95,-6 L 5.00572,-6.53017
 L 5.17046,-7.03717 L 5.437,-7.49884 L 5.79372,-7.895 L 6.22499,-8.20836 L 6.71201,-8.42519 L 7.23344,-8.53603
 L 7.76654,-8.53603 L 8.28798,-8.42519 L 8.77499,-8.20836 L 9.20627,-7.895 L 9.56299,-7.49884 L 9.82953,-7.03717
 L 9.99426,-6.53017 L 10.05,-6 L 10.05,-0 L 157.15,-0 L 157.15,-6 L 157.206,-6.53017
 L 157.37,-7.03717 L 157.637,-7.49884 L 157.994,-7.895 L 158.425,-8.20836 L 158.912,-8.42519 L 159.433,-8.53603
 L 159.967,-8.53603 L 160.488,-8.42519 L 160.975,-8.20836 L 161.406,-7.895 L 161.763,-7.49884 L 162.03,-7.03717
 L 162.194,-6.53017 L 162.25,-6 L 162.25,-0 L 309.35,-0 L 309.35,-6 L 309.406,-6.53017
 L 309.57,-7.03717 L 309.837,-7.49884 L 310.194,-7.895 L 310.625,-8.20836 L 311.112,-8.42519 L 311.633,-8.53603
 L 312.167,-8.53603 L 312.688,-8.42519 L 313.175,-8.20836 L 313.606,-7.895 L 313.963,-7.49884 L 314.23,-7.03717
 L 314.394,-6.53017 L 314.45,-6 L 314.45,-0 L 461.55,-0 L 461.55,-6 L 461.606,-6.53017
 L 461.77,-7.03717 L 462.037,-7.49884 L 462.394,-7.895 L 462.825,-8.20836 L 463.312,-8.42519 L 463.833,-8.53603
 L 464.367,-8.53603 L 464.888,-8.42519 L 465.375,-8.20836 L 465.806,-7.895 L 466.163,-7.49884 L 466.43,-7.03717
 L 466.594,-6.53017 L 466.65,-6 L 466.65,-0 L 613.75,-0 L 613.75,-6 L 613.806,-6.53017
 L 613.97,-7.03717 L 614.237,-7.49884 L 614.594,-7.895 L 615.025,-8.20836 L 615.512,-8.42519 L 616.033,-8.53603
 L 616.567,-8.53603 L 617.088,-8.42519 L 617.575,-8.20836 L 618.006,-7.895 L 618.363,-7.49884 L 618.63,-7.03717
 L 618.794,-6.53017 L 618.85,-6 L 618.85,-0 L 765.95,-0 L 765.95,-6 L 766.006,-6.53017
 L 766.17,-7.03717 L 766.437,-7.49884 L 766.794,-7.895 L 767.225,-8.20836 L 767.712,-8.42519 L 768.233,-8.53603
 L 768.767,-8.53603 L 769.288,-8.42519 L 769.775,-8.20836 L 770.206,-7.895 L 770.563,-7.49884 L 770.83,-7.03717
 L 770.994,-6.53017 L 771.05,-6 L 771.05,-0 L 776,-0 z
M 6.98573,-55.607 L 6.47708,-55.6875 L 5.97964,-55.8208 L 5.49887,-56.0054 L 5.04001,-56.2392 L 4.60811,-56.5196
 L 4.20789,-56.8437 L 3.84373,-57.2079 L 3.51964,-57.6081 L 3.23917,-58.04 L 3.00537,-58.4989 L 2.82082,-58.9796
 L 2.68752,-59.4771 L 2.60696,-59.9857 L 2.58,-60.5 L 2.60696,-61.0143 L 2.68752,-61.5229 L 2.82082,-62.0204
 L 3.00537,-62.5011 L 3.23917,-62.96 L 3.51964,-63.3919 L 3.84373,-63.7921 L 4.20789,-64.1563 L 4.60811,-64.4804
 L 4.95001,-64.7024 L 4.95001,-74 L 5.00574,-74.5302 L 5.17047,-75.0372 L 5.43701,-75.4988 L 5.79373,-75.895
 L 6.22501,-76.2084 L 6.71202,-76.4252 L 7.23346,-76.536 L 7.76654,-76.536 L 8.28798,-76.4252 L 8.77499,-76.2084
 L 9.20627,-75.895 L 9.56299,-75.4988 L 9.82953,-75.0372 L 9.99426,-74.5302 L 10.05,-74 L 10.05,-64.7024
 L 10.3919,-64.4804 L 10.7921,-64.1563 L 11.1563,-63.7921 L 11.4804,-63.3919 L 11.7608,-62.96 L 11.9946,-62.5011
 L 12.1792,-62.0204 L 12.3125,-61.5229 L 12.393,-61.0143 L 12.42,-60.5 L 12.393,-59.9857 L 12.3125,-59.4771
 L 12.1792,-58.9796 L 11.9946,-58.4989 L 11.7608,-58.04 L 11.4804,-57.6081 L 11.1563,-57.2079 L 10.7921,-56.8437
 L 10.3919,-56.5196 L 9.95999,-56.2392 L 9.50113,-56.0054 L 9.02036,-55.8208 L 8.52292,-55.6875 L 8.01427,-55.607
 L 7.5,-55.58 z
M 159.186,-55.607 L 158.677,-55.6875 L 158.18,-55.8208 L 157.699,-56.0054 L 157.24,-56.2392 L 156.808,-56.5196
 L 156.408,-56.8437 L 156.044,-57.2079 L 155.72,-57.6081 L 155.439,-58.04 L 155.205,-58.4989 L 155.021,-58.9796
 L 154.888,-59.4771 L 154.807,-59.9857 L 154.78,-60.5 L 154.807,-61.0143 L 154.888,-61.5229 L 155.021,-62.0204
 L 155.205,-62.5011 L 155.439,-62.96 L 155.72,-63.3919 L 156.044,-63.7921 L 156.408,-64.1563 L 156.808,-64.4804
 L 157.15,-64.7024 L 157.15,-74 L 157.206,-74.5302 L 157.37,-75.0372 L 157.637,-75.4988 L 157.994,-75.895
 L 158.425,-76.2084 L 158.912,-76.4252 L 159.433,-76.536 L 159.967,-76.536 L 160.488,-76.4252 L 160.975,-76.2084
 L 161.406,-75.895 L 161.763,-75.4988 L 162.03,-75.0372 L 162.194,-74.5302 L 162.25,-74 L 162.25,-64.7024
 L 162.592,-64.4804 L 162.992,-64.1563 L 163.356,-63.7921 L 163.68,-63.3919 L 163.961,-62.96 L 164.195,-62.5011
 L 164.379,-62.0204 L 164.512,-61.5229 L 164.593,-61.0143 L 164.62,-60.5 L 164.593,-59.9857 L 164.512,-59.4771
 L 164.379,-58.9796 L 164.195,-58.4989 L 163.961,-58.04 L 163.68,-57.6081 L 163.356,-57.2079 L 162.992,-56.8437
 L 162.592,-56.5196 L 162.16,-56.2392 L 161.701,-56.0054 L 161.22,-55.8208 L 160.723,-55.6875 L 160.214,-55.607
 L 159.7,-55.58 z
M 311.386,-55.607 L 310.877,-55.6875 L 310.38,-55.8208 L 309.899,-56.0054 L 309.44,-56.2392 L 309.008,-56.5196
 L 308.608,-56.8437 L 308.244,-57.2079 L 307.92,-57.6081 L 307.639,-58.04 L 307.405,-58.4989 L 307.221,-58.9796
 L 307.088,-59.4771 L 307.007,-59.9857 L 306.98,-60.5 L 307.007,-61.0143 L 307.088,-61.5229 L 307.221,-62.0204
 L 307.405,-62.5011 L 307.639,-62.96 L 307.92,-63.3919 L 308.244,-63.7921 L 308.608,-64.1563 L 309.008,-64.4804
 L 309.35,-64.7024 L 309.35,-74 L 309.406,-74.5302 L 309.57,-75.0372 L 309.837,-75.4988 L 310.194,-75.895
 L 310.625,-76.2084 L 311.112,-76.4252 L 311.633,-76.536 L 312.167,-76.536 L 312.688,-76.4252 L 313.175,-76.2084
 L 313.606,-75.895 L 313.963,-75.4988 L 314.23,-75.0372 L 314.394,-74.5302 L 314.45,-74 L 314.45,-64.7024
 L 314.792,-64.4804 L 315.192,-64.1563 L 315.556,-63.7921 L 315.88,-63.3919 L 316.161,-62.96 L 316.395,-62.5011
 L 316.579,-62.0204 L 316.712,-61.5229 L 316.793,-61.0143 L 316.82,-60.5 L 316.793,-59.9857 L 316.712,-59.4771
 L 316.579,-58.9796 L 316.395,-58.4989 L 316.161,-58.04 L 315.88,-57.6081 L 315.556,-57.2079 L 315.192,-56.8437
 L 314.792,-56.5196 L 314.36,-56.2392 L 313.901,-56.0054 L 313.42,-55.8208 L 312.923,-55.6875 L 312.414,-55.607
 L 311.9,-55.58 z
M 463.586,-55.607 L 463.077,-55.6875 L 462.58,-55.8208 L 462.099,-56.0054 L 461.64,-56.2392 L 461.208,-56.5196
 L 460.808,-56.8437 L 460.444,-57.2079 L 460.12,-57.6081 L 459.839,-58.04 L 459.605,-58.4989 L 459.421,-58.9796
 L 459.288,-59.4771 L 459.207,-59.9857 L 459.18,-60.5 L 459.207,-61.0143 L 459.288,-61.5229 L 459.421,-62.0204
 L 459.605,-62.5011 L 459.839,-62.96 L 460.12,-63.3919 L 460.444,-63.7921 L 460.808,-64.1563 L 461.208,-64.4804
 L 461.55,-64.7024 L 461.55,-74 L 461.606,-74.5302 L 461.77,-75.0372 L 462.037,-75.4988 L 462.394,-75.895
 L 462.825,-76.2084 L 463.312,-76.4252 L 463.833,-76.536 L 464.367,-76.536 L 464.888,-76.4252 L 465.375,-76.2084
 L 465.806,-75.895 L 466.163,-75.4988 L 466.43,-75.0372 L 466.594,-74.5302 L 466.65,-74 L 466.65,-64.7024
 L 466.992,-64.4804 L 467.392,-64.1563 L 467.756,-63.7921 L 468.08,-63.3919 L 468.361,-62.96 L 468.595,-62.5011
 L 468.779,-62.0204 L 468.912,-61.5229 L 468.993,-61.0143 L 469.02,-60.5 L 468.993,-59.9857 L 468.912,-59.4771
 L 468.779,-58.9796 L 468.595,-58.4989 L 468.361,-58.04 L 468.08,-57.6081 L 467.756,-57.2079 L 467.392,-56.8437
 L 466.992,-56.5196 L 466.56,-56.2392 L 466.101,-56.0054 L 465.62,-55.8208 L 465.123,-55.6875 L 464.614,-55.607
 L 464.1,-55.58 z
M 615.786,-55.607 L 615.277,-55.6875 L 614.78,-55.8208 L 614.299,-56.0054 L 613.84,-56.2392 L 613.408,-56.5196
 L 613.008,-56.8437 L 612.644,-57.2079 L 612.32,-57.6081 L 612.039,-58.04 L 611.805,-58.4989 L 611.621,-58.9796
 L 611.488,-59.4771 L 611.407,-59.9857 L 611.38,-60.5 L 611.407,-61.0143 L 611.488,-61.5229 L 611.621,-62.0204
 L 611.805,-62.5011 L 612.039,-62.96 L 612.32,-63.3919 L 612.644,-63.7921 L 613.008,-64.1563 L 613.408,-64.4804
 L 613.75,-64.7024 L 613.75,-74 L 613.806,-74.5302 L 613.97,-75.0372 L 614.237,-75.4988 L 614.594,-75.895
 L 615.025,-76.2084 L 615.512,-76.4252 L 616.033,-76.536 L 616.567,-76.536 L 617.088,-76.4252 L 617.575,-76.2084
 L 618.006,-75.895 L 618.363,-75.4988 L 618.63,-75.0372 L 618.794,-74.5302 L 618.85,-74 L 618.85,-64.7024
 L 619.192,-64.4804 L 619.592,-64.1563 L 619.956,-63.7921 L 620.28,-63.3919 L 620.561,-62.96 L 620.795,-62.5011
 L 620.979,-62.0204 L 621.112,-61.5229 L 621.193,-61.0143 L 621.22,-60.5 L 621.193,-59.9857 L 621.112,-59.4771
 L 620.979,-58.9796 L 620.795,-58.4989 L 620.561,-58.04 L 620.28,-57.6081 L 619.956,-57.2079 L 619.592,-56.8437
 L 619.192,-56.5196 L 618.76,-56.2392 L 618.301,-56.0054 L 617.82,-55.8208 L 617.323,-55.6875 L 616.814,-55.607
 L 616.3,-55.58 z
M 767.986,-55.607 L 767.477,-55.6875 L 766.98,-55.8208 L 766.499,-56.0054 L 766.04,-56.2392 L 765.608,-56.5196
 L 765.208,-56.8437 L 764.844,-57.2079 L 764.52,-57.6081 L 764.239,-58.04 L 764.005,-58.4989 L 763.821,-58.9796
 L 763.688,-59.4771 L 763.607,-59.9857 L 763.58,-60.5 L 763.607,-61.0143 L 763.688,-61.5229 L 763.821,-62.0204
 L 764.005,-62.5011 L 764.239,-62.96 L 764.52,-63.3919 L 764.844,-63.7921 L 765.208,-64.1563 L 765.608,-64.4804
 L 765.95,-64.7024 L 765.95,-74 L 766.006,-74.5302 L 766.17,-75.0372 L 766.437,-75.4988 L 766.794,-75.895
 L 767.225,-76.2084 L 767.712,-76.4252 L 768.233,-76.536 L 768.767,-76.536 L 769.288,-76.4252 L 769.775,-76.2084
 L 770.206,-75.895 L 770.563,-75.4988 L 770.83,-75.0372 L 770.994,-74.5302 L 771.05,-74 L 771.05,-64.7024
 L 771.392,-64.4804 L 771.792,-64.1563 L 772.156,-63.7921 L 772.48,-63.3919 L 772.761,-62.96 L 772.995,-62.5011
 L 773.179,-62.0204 L 773.312,-61.5229 L 773.393,-61.0143 L 773.42,-60.5 L 773.393,-59.9857 L 773.312,-59.4771
 L 773.179,-58.9796 L 772.995,-58.4989 L 772.761,-58.04 L 772.48,-57.6081 L 772.156,-57.2079 L 771.792,-56.8437
 L 771.392,-56.5196 L 770.96,-56.2392 L 770.501,-56.0054 L 770.02,-55.8208 L 769.523,-55.6875 L 769.014,-55.607
 L 768.5,-55.58 z
M 387.163,-48.1364 L 386.368,-48.3959 L 373.046,-54.3479 L 372.327,-54.7639 L 371.705,-55.3235 L 371.214,-56
 L 370.874,-56.7639 L 370.7,-57.5819 L 370.7,-58.4181 L 370.874,-59.2361 L 371.214,-60 L 371.705,-60.6765
 L 372.327,-61.2361 L 373.051,-61.6542 L 373.846,-61.9126 L 374.678,-62 L 401.322,-62 L 402.149,-61.9137
 L 402.944,-61.6563 L 403.669,-61.2391 L 404.291,-60.6804 L 404.784,-60.0045 L 405.125,-59.241 L 405.3,-58.4233
 L 405.301,-57.587 L 405.128,-56.7689 L 404.789,-56.0045 L 404.298,-55.3273 L 403.677,-54.767 L 402.954,-54.3479
 L 389.632,-48.3959 L 388.827,-48.1343 L 387.995,-48.0479 z
M 298.063,-22.1351 L 297.268,-22.3945 L 225.749,-54.3479 L 225.03,-54.7639 L 224.408,-55.3235 L 223.917,-56
 L 223.577,-56.7639 L 223.403,-57.5819 L 223.403,-58.4181 L 223.577,-59.2361 L 223.917,-60 L 224.408,-60.6765
 L 225.03,-61.2361 L 225.754,-61.6542 L 226.549,-61.9126 L 227.381,-62 L 298.9,-62 L 300.136,-61.8042
 L 300.9,-61.4641 L 301.577,-60.9726 L 302.136,-60.3511 L 302.554,-59.627 L 302.813,-58.8316 L 302.9,-58
 L 302.9,-26.0466 L 302.878,-25.6234 L 302.703,-24.8056 L 302.362,-24.0421 L 301.869,-23.3662 L 301.247,-22.8075
 L 300.522,-22.3903 L 299.727,-22.1329 L 298.895,-22.0466 z
M 628.473,-22.1329 L 627.678,-22.3903 L 626.953,-22.8075 L 626.331,-23.3662 L 625.838,-24.0421 L 625.497,-24.8056
 L 625.322,-25.6234 L 625.3,-26.0466 L 625.3,-58 L 625.387,-58.8316 L 625.646,-59.627 L 626.064,-60.3511
 L 626.623,-60.9726 L 627.3,-61.4641 L 628.064,-61.8042 L 629.3,-62 L 700.819,-62 L 701.651,-61.9126
 L 702.446,-61.6542 L 703.17,-61.2361 L 703.792,-60.6765 L 704.283,-60 L 704.623,-59.2361 L 704.797,-58.4181
 L 704.797,-57.5819 L 704.623,-56.7639 L 704.283,-56 L 703.792,-55.3235 L 703.17,-54.7639 L 702.451,-54.3479
 L 630.932,-22.3945 L 630.137,-22.1351 L 629.305,-22.0466 z
M 145.863,-22.1351 L 145.068,-22.3945 L 73.5491,-54.3479 L 72.8297,-54.7639 L 72.2082,-55.3235 L 71.7167,-56
 L 71.3766,-56.7639 L 71.2027,-57.5819 L 71.2027,-58.4181 L 71.3766,-59.2361 L 71.7167,-60 L 72.2082,-60.6765
 L 72.8297,-61.2361 L 73.5538,-61.6542 L 74.3492,-61.9126 L 75.1808,-62 L 146.7,-62 L 147.936,-61.8042
 L 148.7,-61.4641 L 149.377,-60.9726 L 149.936,-60.3511 L 150.354,-59.627 L 150.613,-58.8316 L 150.7,-58
 L 150.7,-26.0466 L 150.678,-25.6234 L 150.503,-24.8056 L 150.162,-24.0421 L 149.669,-23.3662 L 149.047,-22.8075
 L 148.322,-22.3903 L 147.527,-22.1329 L 146.695,-22.0466 z
M 476.273,-22.1329 L 475.478,-22.3903 L 474.753,-22.8075 L 474.131,-23.3662 L 473.638,-24.0421 L 473.297,-24.8056
 L 473.122,-25.6234 L 473.1,-26.0466 L 473.1,-58 L 473.187,-58.8316 L 473.446,-59.627 L 473.864,-60.3511
 L 474.423,-60.9726 L 475.1,-61.4641 L 475.864,-61.8042 L 477.1,-62 L 548.619,-62 L 549.451,-61.9126
 L 550.246,-61.6542 L 550.97,-61.2361 L 551.592,-60.6765 L 552.083,-60 L 552.423,-59.2361 L 552.597,-58.4181
 L 552.597,-57.5819 L 552.423,-56.7639 L 552.083,-56 L 551.592,-55.3235 L 550.97,-54.7639 L 550.251,-54.3479
 L 478.732,-22.3945 L 477.937,-22.1351 L 477.105,-22.0466 z
M 324.482,-19.878 L 323.664,-20.0519 L 322.9,-20.392 L 322.223,-20.8835 L 321.664,-21.505 L 321.246,-22.2291
 L 320.987,-23.0244 L 320.9,-23.8561 L 320.9,-56.1439 L 320.922,-56.5672 L 321.097,-57.3849 L 321.438,-58.1484
 L 321.931,-58.8243 L 322.553,-59.383 L 323.278,-59.8002 L 324.073,-60.0576 L 324.905,-60.1439 L 325.737,-60.0554
 L 326.532,-59.796 L 362.666,-43.6521 L 363.381,-43.2391 L 364.003,-42.6804 L 364.495,-42.0045 L 364.836,-41.241
 L 365.011,-40.4233 L 365.012,-39.587 L 364.84,-38.7689 L 364.501,-38.0045 L 364.01,-37.3273 L 363.389,-36.767
 L 362.666,-36.3479 L 326.532,-20.204 L 326.136,-20.0519 L 325.318,-19.878 z
M 450.263,-19.9446 L 449.468,-20.204 L 413.334,-36.3479 L 412.619,-36.7609 L 411.997,-37.3196 L 411.505,-37.9955
 L 411.163,-38.759 L 410.989,-39.5767 L 410.987,-40.413 L 411.16,-41.2311 L 411.499,-41.9955 L 411.99,-42.6727
 L 412.611,-43.233 L 413.334,-43.6521 L 449.468,-59.796 L 449.864,-59.9482 L 450.682,-60.122 L 451.518,-60.122
 L 452.336,-59.9482 L 453.1,-59.608 L 453.777,-59.1165 L 454.336,-58.4951 L 454.754,-57.7709 L 455.013,-56.9756
 L 455.1,-56.1439 L 455.1,-23.8561 L 455.078,-23.4328 L 454.903,-22.6151 L 454.562,-21.8516 L 454.069,-21.1757
 L 453.447,-20.617 L 452.722,-20.1998 L 451.927,-19.9424 L 451.095,-19.8561 z
M 172.7,-18 L 171.464,-18.1958 L 170.7,-18.5359 L 170.023,-19.0274 L 169.464,-19.6489 L 169.046,-20.373
 L 168.787,-21.1684 L 168.7,-22 L 168.7,-53.9534 L 168.722,-54.3766 L 168.897,-55.1944 L 169.238,-55.9579
 L 169.731,-56.6337 L 170.353,-57.1925 L 171.078,-57.6096 L 171.873,-57.867 L 172.705,-57.9534 L 173.537,-57.8649
 L 174.332,-57.6054 L 245.851,-25.6521 L 246.57,-25.2361 L 247.192,-24.6765 L 247.683,-24 L 248.023,-23.2361
 L 248.197,-22.4181 L 248.197,-21.5819 L 248.023,-20.7639 L 247.683,-20 L 247.192,-19.3235 L 246.57,-18.7639
 L 245.846,-18.3458 L 245.051,-18.0874 L 244.219,-18 z
M 531.781,-18 L 530.949,-18.0874 L 530.154,-18.3458 L 529.43,-18.7639 L 528.808,-19.3235 L 528.317,-20
 L 527.977,-20.7639 L 527.803,-21.5819 L 527.803,-22.4181 L 527.977,-23.2361 L 528.317,-24 L 528.808,-24.6765
 L 529.43,-25.2361 L 530.149,-25.6521 L 601.668,-57.6054 L 602.463,-57.8649 L 603.295,-57.9534 L 604.127,-57.867
 L 604.922,-57.6096 L 605.647,-57.1925 L 606.269,-56.6337 L 606.762,-55.9579 L 607.103,-55.1944 L 607.278,-54.3766
 L 607.3,-53.9534 L 607.3,-22 L 607.213,-21.1684 L 606.954,-20.373 L 606.536,-19.6489 L 605.977,-19.0274
 L 605.3,-18.5359 L 604.536,-18.1958 L 603.3,-18 z
M 22,-18 L 20.7639,-18.1958 L 20,-18.5359 L 19.3235,-19.0274 L 18.7639,-19.6489 L 18.3458,-20.373
 L 18.0874,-21.1684 L 18,-22 L 18,-53.2832 L 18.0225,-53.7065 L 18.1974,-54.5242 L 18.5385,-55.2877
 L 19.0309,-55.9636 L 19.653,-56.5223 L 20.3778,-56.9395 L 21.1734,-57.1969 L 22.0052,-57.2832 L 22.8367,-57.1947
 L 23.6317,-56.9353 L 93.6508,-25.6521 L 94.3703,-25.2361 L 94.9918,-24.6765 L 95.4833,-24 L 95.8234,-23.2361
 L 95.9973,-22.4181 L 95.9973,-21.5819 L 95.8234,-20.7639 L 95.4833,-20 L 94.9918,-19.3235 L 94.3703,-18.7639
 L 93.6461,-18.3458 L 92.8508,-18.0874 L 92.0192,-18 z
M 683.981,-18 L 683.149,-18.0874 L 682.354,-18.3458 L 681.63,-18.7639 L 681.008,-19.3235 L 680.517,-20
 L 680.177,-20.7639 L 680.003,-21.5819 L 680.003,-22.4181 L 680.177,-23.2361 L 680.517,-24 L 681.008,-24.6765
 L 681.63,-25.2361 L 682.349,-25.6521 L 752.368,-56.9353 L 753.163,-57.1947 L 753.995,-57.2832 L 754.827,-57.1969
 L 755.622,-56.9395 L 756.347,-56.5223 L 756.969,-55.9636 L 757.462,-55.2877 L 757.803,-54.5242 L 757.978,-53.7065
 L 758,-53.2832 L 758,-22 L 757.913,-21.1684 L 757.654,-20.373 L 757.236,-19.6489 L 756.677,-19.0274
 L 756,-18.5359 L 755.236,-18.1958 L 754,-18 z
M 374.678,-18 L 373.851,-18.0863 L 373.056,-18.3437 L 372.331,-18.7609 L 371.709,-19.3196 L 371.216,-19.9955
 L 370.875,-20.759 L 370.7,-21.5767 L 370.699,-22.413 L 370.872,-23.2311 L 371.211,-23.9955 L 371.702,-24.6727
 L 372.323,-25.233 L 373.046,-25.6521 L 386.368,-31.6041 L 387.173,-31.8657 L 388.005,-31.9521 L 388.837,-31.8636
 L 389.632,-31.6041 L 402.954,-25.6521 L 403.673,-25.2361 L 404.295,-24.6765 L 404.786,-24 L 405.126,-23.2361
 L 405.3,-22.4181 L 405.3,-21.5819 L 405.126,-20.7639 L 404.786,-20 L 404.295,-19.3235 L 403.673,-18.7639
 L 402.949,-18.3458 L 402.154,-18.0874 L 401.322,-18 z
" stroke="black" fill="lightgray" stroke-width="0.5"/>
</svg>
