<?xml version="1.0" standalone="no"?>
<!DOCTYPE svg PUBLIC "-//W3C//DTD SVG 1.1//EN" "http://www.w3.org/Graphics/SVG/1.1/DTD/svg11.dtd">
<svg width="1639mm" height="80mm" viewBox="0 -80 1639 80" xmlns="http://www.w3.org/2000/svg" version="1.1">
<title>OpenSCAD Model</title>
<path d="
M 1639,-80 L 0,-80 L 0,-0 L 4.95,-0 L 4.95,-6 L 5.00572,-6.53017
 L 5.17046,-7.03717 L 5.437,-7.49884 L 5.79372,-7.895 L 6.22499,-8.20836 L 6.71201,-8.42519 L 7.23344,-8.53603
 L 7.76654,-8.53603 L 8.28798,-8.42519 L 8.77499,-8.20836 L 9.20627,-7.895 L 9.56299,-7.49884 L 9.82953,-7.03717
 L 9.99426,-6.53017 L 10.05,-6 L 10.05,-0 L 185.394,-0 L 185.394,-6 L 185.45,-6.53017
 L 185.615,-7.03717 L 185.881,-7.49884 L 186.238,-7.895 L 186.669,-8.20836 L 187.156,-8.42519 L 187.678,-8.53603
 L 188.211,-8.53603 L 188.732,-8.42519 L 189.219,-8.20836 L 189.651,-7.895 L 190.007,-7.49884 L 190.274,-7.03717
 L 190.439,-6.53017 L 190.494,-6 L 190.494,-0 L 365.839,-0 L 365.839,-6 L 365.895,-6.53017
 L 366.059,-7.03717 L 366.326,-7.49884 L 366.683,-7.895 L 367.114,-8.20836 L 367.601,-8.42519 L 368.122,-8.53603
 L 368.655,-8.53603 L 369.177,-8.42519 L 369.664,-8.20836 L 370.095,-7.895 L 370.452,-7.49884 L 370.718,-7.03717
 L 370.883,-6.53017 L 370.939,-6 L 370.939,-0 L 546.283,-0 L 546.283,-6 L 546.339,-6.53017
 L 546.504,-7.03717 L 546.77,-7.49884 L 547.127,-7.895 L 547.558,-8.20836 L 548.045,-8.42519 L 548.567,-8.53603
 L 549.1,-8.53603 L 549.621,-8.42519 L 550.108,-8.20836 L 550.54,-7.895 L 550.896,-7.49884 L 551.163,-7.03717
 L 551.328,-6.53017 L 551.383,-6 L 551.383,-0 L 726.728,-0 L 726.728,-6 L 726.783,-6.53017
 L 726.948,-7.03717 L 727.215,-7.49884 L 727.571,-7.895 L 728.003,-8.20836 L 728.49,-8.42519 L 729.011,-8.53603
 L 729.544,-8.53603 L 730.066,-8.42519 L 730.553,-8.20836 L 730.984,-7.895 L 731.341,-7.49884 L 731.607,-7.03717
 L 731.772,-6.53017 L 731.828,-6 L 731.828,-0 L 907.172,-0 L 907.172,-6 L 907.228,-6.53017
 L 907.393,-7.03717 L 907.659,-7.49884 L 908.016,-7.895 L 908.447,-8.20836 L 908.934,-8.42519 L 909.456,-8.53603
 L 909.989,-8.53603 L 910.51,-8.42519 L 910.997,-8.20836 L 911.428,-7.895 L 911.785,-7.49884 L 912.052,-7.03717
 L 912.216,-6.53017 L 912.272,-6 L 912.272,-0 L 1087.62,-0 L 1087.62,-6 L 1087.67,-6.53017
 L 1087.84,-7.03717 L 1088.1,-7.49884 L 1088.46,-7.895 L 1088.89,-8.20836 L 1089.38,-8.42519 L 1089.9,-8.53603
 L 1090.43,-8.53603 L 1090.95,-8.42519 L 1091.44,-8.20836 L 1091.87,-7.895 L 1092.23,-7.49884 L 1092.5,-7.03717
 L 1092.66,-6.53017 L 1092.72,-6 L 1092.72,-0 L 1268.06,-0 L 1268.06,-6 L 1268.12,-6.53017
 L 1268.28,-7.03717 L 1268.55,-7.49884 L 1268.9,-7.895 L 1269.34,-8.20836 L 1269.82,-8.42519 L 1270.34,-8.53603
 L 1270.88,-8.53603 L 1271.4,-8.42519 L 1271.89,-8.20836 L 1272.32,-7.895 L 1272.67,-7.49884 L 1272.94,-7.03717
 L 1273.11,-6.53017 L 1273.16,-6 L 1273.16,-0 L 1448.51,-0 L 1448.51,-6 L 1448.56,-6.53017
 L 1448.73,-7.03717 L 1448.99,-7.49884 L 1449.35,-7.895 L 1449.78,-8.20836 L 1450.27,-8.42519 L 1450.79,-8.53603
 L 1451.32,-8.53603 L 1451.84,-8.42519 L 1452.33,-8.20836 L 1452.76,-7.895 L 1453.12,-7.49884 L 1453.39,-7.03717
 L 1453.55,-6.53017 L 1453.61,-6 L 1453.61,-0 L 1628.95,-0 L 1628.95,-6 L 1629.01,-6.53017
 L 1629.17,-7.03717 L 1629.44,-7.49884 L 1629.79,-7.895 L 1630.22,-8.20836 L 1630.71,-8.42519 L 1631.23,-8.53603
 L 1631.77,-8.53603 L 1632.29,-8.42519 L 1632.77,-8.20836 L 1633.21,-7.895 L 1633.56,-7.49884 L 1633.83,-7.03717
 L 1633.99,-6.53017 L 1634.05,-6 L 1634.05,-0 L 1639,-0 z
M 6.98573,-55.607 L 6.47708,-55.6875 L 5.97964,-55.8208 L 5.49887,-56.0054 L 5.04001,-56.2392 L 4.60811,-56.5196
 L 4.20789,-56.8437 L 3.84373,-57.2079 L 3.51964,-57.6081 L 3.23917,-58.04 L 3.00537,-58.4989 L 2.82082,-58.9796
 L 2.68752,-59.4771 L 2.60696,-59.9857 L 2.58,-60.5 L 2.60696,-61.0143 L 2.68752,-61.5229 L 2.82082,-62.0204
 L 3.00537,-62.5011 L 3.23917,-62.96 L 3.51964,-63.3919 L 3.84373,-63.7921 L 4.20789,-64.1563 L 4.60811,-64.4804
 L 4.95001,-64.7024 L 4.95001,-74 L 5.00574,-74.5302 L 5.17047,-75.0372 L 5.43701,-75.4988 L 5.79373,-75.895
 L 6.22501,-76.2084 L 6.71202,-76.4252 L 7.23346,-76.536 L 7.76654,-76.536 L 8.28798,-76.4252 L 8.77499,-76.2084
 L 9.20627,-75.895 L 9.56299,-75.4988 L 9.82953,-75.0372 L 9.99426,-74.5302 L 10.05,-74 L 10.05,-64.7024
 L 10.3919,-64.4804 L 10.7921,-64.1563 L 11.1563,-63.7921 L 11.4804,-63.3919 L 11.7608,-62.96 L 11.9946,-62.5011
 L 12.1792,-62.0204 L 12.3125,-61.5229 L 12.393,-61.0143 L 12.42,-60.5 L 12.393,-59.9857 L 12.3125,-59.4771
 L 12.1792,-58.9796 L 11.9946,-58.4989 L 11.7608,-58.04 L 11.4804,-57.6081 L 11.1563,-57.2079 L 10.7921,-56.8437
 L 10.3919,-56.5196 L 9.95999,-56.2392 L 9.50113,-56.0054 L 9.02036,-55.8208 L 8.52292,-55.6875 L 8.01427,-55.607
 L 7.5,-55.58 z
M 1089.65,-55.607 L 1089.14,-55.6875 L 1088.65,-55.8208 L 1088.17,-56.0054 L 1087.71,-56.2392 L 1087.27,-56.5196
 L 1086.87,-56.8437 L 1086.51,-57.2079 L 1086.19,-57.6081 L 1085.91,-58.04 L 1085.67,-58.4989 L 1085.49,-58.9796
 L 1085.35,-59.4771 L 1085.27,-59.9857 L 1085.25,-60.5 L 1085.27,-61.0143 L 1085.35,-61.5229 L 1085.49,-62.0204
 L 1085.67,-62.5011 L 1085.91,-62.96 L 1086.19,-63.3919 L 1086.51,-63.7921 L 1086.87,-64.1563 L 1087.27,-64.4804
 L 1087.62,-64.7024 L 1087.62,-74 L 1087.67,-74.5302 L 1087.84,-75.0372 L 1088.1,-75.4988 L 1088.46,-75.895
 L 1088.89,-76.2084 L 1089.38,-76.4252 L 1089.9,-76.536 L 1090.43,-76.536 L 1090.95,-76.4252 L 1091.44,-76.2084
 L 1091.87,-75.895 L 1092.23,-75.4988 L 1092.5,-75.0372 L 1092.66,-74.5302 L 1092.72,-74 L 1092.72,-64.7024
 L 1093.06,-64.4804 L 1093.46,-64.1563 L 1093.82,-63.7921 L 1094.15,-63.3919 L 1094.43,-62.96 L 1094.66,-62.5011
 L 1094.85,-62.0204 L 1094.98,-61.5229 L 1095.06,-61.0143 L 1095.09,-60.5 L 1095.06,-59.9857 L 1094.98,-59.4771
 L 1094.85,-58.9796 L 1094.66,-58.4989 L 1094.43,-58.04 L 1094.15,-57.6081 L 1093.82,-57.2079 L 1093.46,-56.8437
 L 1093.06,-56.5196 L 1092.63,-56.2392 L 1092.17,-56.0054 L 1091.69,-55.8208 L 1091.19,-55.6875 L 1090.68,-55.607
 L 1090.17,-55.58 z
M 1270.1,-55.607 L 1269.59,-55.6875 L 1269.09,-55.8208 L 1268.61,-56.0054 L 1268.15,-56.2392 L 1267.72,-56.5196
 L 1267.32,-56.8437 L 1266.95,-57.2079 L 1266.63,-57.6081 L 1266.35,-58.04 L 1266.12,-58.4989 L 1265.93,-58.9796
 L 1265.8,-59.4771 L 1265.72,-59.9857 L 1265.69,-60.5 L 1265.72,-61.0143 L 1265.8,-61.5229 L 1265.93,-62.0204
 L 1266.12,-62.5011 L 1266.35,-62.96 L 1266.63,-63.3919 L 1266.95,-63.7921 L 1267.32,-64.1563 L 1267.72,-64.4804
 L 1268.06,-64.7024 L 1268.06,-74 L 1268.12,-74.5302 L 1268.28,-75.0372 L 1268.55,-75.4988 L 1268.9,-75.895
 L 1269.34,-76.2084 L 1269.82,-76.4252 L 1270.34,-76.536 L 1270.88,-76.536 L 1271.4,-76.4252 L 1271.89,-76.2084
 L 1272.32,-75.895 L 1272.67,-75.4988 L 1272.94,-75.0372 L 1273.11,-74.5302 L 1273.16,-74 L 1273.16,-64.7024
 L 1273.5,-64.4804 L 1273.9,-64.1563 L 1274.27,-63.7921 L 1274.59,-63.3919 L 1274.87,-62.96 L 1275.11,-62.5011
 L 1275.29,-62.0204 L 1275.42,-61.5229 L 1275.5,-61.0143 L 1275.53,-60.5 L 1275.5,-59.9857 L 1275.42,-59.4771
 L 1275.29,-58.9796 L 1275.11,-58.4989 L 1274.87,-58.04 L 1274.59,-57.6081 L 1274.27,-57.2079 L 1273.9,-56.8437
 L 1273.5,-56.5196 L 1273.07,-56.2392 L 1272.61,-56.0054 L 1272.13,-55.8208 L 1271.63,-55.6875 L 1271.13,-55.607
 L 1270.61,-55.58 z
M 909.208,-55.607 L 908.699,-55.6875 L 908.202,-55.8208 L 907.721,-56.0054 L 907.262,-56.2392 L 906.83,-56.5196
 L 906.43,-56.8437 L 906.066,-57.2079 L 905.742,-57.6081 L 905.461,-58.04 L 905.228,-58.4989 L 905.043,-58.9796
 L 904.91,-59.4771 L 904.829,-59.9857 L 904.802,-60.5 L 904.829,-61.0143 L 904.91,-61.5229 L 905.043,-62.0204
 L 905.228,-62.5011 L 905.461,-62.96 L 905.742,-63.3919 L 906.066,-63.7921 L 906.43,-64.1563 L 906.83,-64.4804
 L 907.172,-64.7024 L 907.172,-74 L 907.228,-74.5302 L 907.393,-75.0372 L 907.659,-75.4988 L 908.016,-75.895
 L 908.447,-76.2084 L 908.934,-76.4252 L 909.456,-76.536 L 909.989,-76.536 L 910.51,-76.4252 L 910.997,-76.2084
 L 911.428,-75.895 L 911.785,-75.4988 L 912.052,-75.0372 L 912.216,-74.5302 L 912.272,-74 L 912.272,-64.7024
 L 912.614,-64.4804 L 913.014,-64.1563 L 913.378,-63.7921 L 913.703,-63.3919 L 913.983,-62.96 L 914.217,-62.5011
 L 914.401,-62.0204 L 914.535,-61.5229 L 914.615,-61.0143 L 914.642,-60.5 L 914.615,-59.9857 L 914.535,-59.4771
 L 914.401,-58.9796 L 914.217,-58.4989 L 913.983,-58.04 L 913.703,-57.6081 L 913.378,-57.2079 L 913.014,-56.8437
 L 912.614,-56.5196 L 912.182,-56.2392 L 911.723,-56.0054 L 911.243,-55.8208 L 910.745,-55.6875 L 910.236,-55.607
 L 909.722,-55.58 z
M 728.764,-55.607 L 728.255,-55.6875 L 727.757,-55.8208 L 727.277,-56.0054 L 726.818,-56.2392 L 726.386,-56.5196
 L 725.986,-56.8437 L 725.622,-57.2079 L 725.297,-57.6081 L 725.017,-58.04 L 724.783,-58.4989 L 724.599,-58.9796
 L 724.465,-59.4771 L 724.385,-59.9857 L 724.358,-60.5 L 724.385,-61.0143 L 724.465,-61.5229 L 724.599,-62.0204
 L 724.783,-62.5011 L 725.017,-62.96 L 725.297,-63.3919 L 725.622,-63.7921 L 725.986,-64.1563 L 726.386,-64.4804
 L 726.728,-64.7024 L 726.728,-74 L 726.784,-74.5302 L 726.948,-75.0372 L 727.215,-75.4988 L 727.572,-75.895
 L 728.003,-76.2084 L 728.49,-76.4252 L 729.011,-76.536 L 729.544,-76.536 L 730.066,-76.4252 L 730.553,-76.2084
 L 730.984,-75.895 L 731.341,-75.4988 L 731.607,-75.0372 L 731.772,-74.5302 L 731.828,-74 L 731.828,-64.7024
 L 732.17,-64.4804 L 732.57,-64.1563 L 732.934,-63.7921 L 733.258,-63.3919 L 733.539,-62.96 L 733.772,-62.5011
 L 733.957,-62.0204 L 734.09,-61.5229 L 734.171,-61.0143 L 734.198,-60.5 L 734.171,-59.9857 L 734.09,-59.4771
 L 733.957,-58.9796 L 733.772,-58.4989 L 733.539,-58.04 L 733.258,-57.6081 L 732.934,-57.2079 L 732.57,-56.8437
 L 732.17,-56.5196 L 731.738,-56.2392 L 731.279,-56.0054 L 730.798,-55.8208 L 730.301,-55.6875 L 729.792,-55.607
 L 729.278,-55.58 z
M 1450.54,-55.607 L 1450.03,-55.6875 L 1449.54,-55.8208 L 1449.05,-56.0054 L 1448.6,-56.2392 L 1448.16,-56.5196
 L 1447.76,-56.8437 L 1447.4,-57.2079 L 1447.08,-57.6081 L 1446.79,-58.04 L 1446.56,-58.4989 L 1446.38,-58.9796
 L 1446.24,-59.4771 L 1446.16,-59.9857 L 1446.14,-60.5 L 1446.16,-61.0143 L 1446.24,-61.5229 L 1446.38,-62.0204
 L 1446.56,-62.5011 L 1446.79,-62.96 L 1447.08,-63.3919 L 1447.4,-63.7921 L 1447.76,-64.1563 L 1448.16,-64.4804
 L 1448.51,-64.7024 L 1448.51,-74 L 1448.56,-74.5302 L 1448.73,-75.0372 L 1448.99,-75.4988 L 1449.35,-75.895
 L 1449.78,-76.2084 L 1450.27,-76.4252 L 1450.79,-76.536 L 1451.32,-76.536 L 1451.84,-76.4252 L 1452.33,-76.2084
 L 1452.76,-75.895 L 1453.12,-75.4988 L 1453.39,-75.0372 L 1453.55,-74.5302 L 1453.61,-74 L 1453.61,-64.7024
 L 1453.95,-64.4804 L 1454.35,-64.1563 L 1454.71,-63.7921 L 1455.04,-63.3919 L 1455.32,-62.96 L 1455.55,-62.5011
 L 1455.73,-62.0204 L 1455.87,-61.5229 L 1455.95,-61.0143 L 1455.98,-60.5 L 1455.95,-59.9857 L 1455.87,-59.4771
 L 1455.73,-58.9796 L 1455.55,-58.4989 L 1455.32,-58.04 L 1455.04,-57.6081 L 1454.71,-57.2079 L 1454.35,-56.8437
 L 1453.95,-56.5196 L 1453.52,-56.2392 L 1453.06,-56.0054 L 1452.58,-55.8208 L 1452.08,-55.6875 L 1451.57,-55.607
 L 1451.06,-55.58 z
M 548.319,-55.607 L 547.81,-55.6875 L 547.313,-55.8208 L 546.832,-56.0054 L 546.373,-56.2392 L 545.941,-56.5196
 L 545.541,-56.8437 L 545.177,-57.2079 L 544.853,-57.6081 L 544.572,-58.04 L 544.339,-58.4989 L 544.154,-58.9796
 L 544.021,-59.4771 L 543.94,-59.9857 L 543.913,-60.5 L 543.94,-61.0143 L 544.021,-61.5229 L 544.154,-62.0204
 L 544.339,-62.5011 L 544.572,-62.96 L 544.853,-63.3919 L 545.177,-63.7921 L 545.541,-64.1563 L 545.941,-64.4804
 L 546.283,-64.7024 L 546.283,-74 L 546.339,-74.5302 L 546.504,-75.0372 L 546.77,-75.4988 L 547.127,-75.895
 L 547.558,-76.2084 L 548.045,-76.4252 L 548.567,-76.536 L 549.1,-76.536 L 549.621,-76.4252 L 550.108,-76.2084
 L 550.54,-75.895 L 550.896,-75.4988 L 551.163,-75.0372 L 551.328,-74.5302 L 551.383,-74 L 551.383,-64.7024
 L 551.725,-64.4804 L 552.125,-64.1563 L 552.49,-63.7921 L 552.814,-63.3919 L 553.094,-62.96 L 553.328,-62.5011
 L 553.513,-62.0204 L 553.646,-61.5229 L 553.726,-61.0143 L 553.753,-60.5 L 553.726,-59.9857 L 553.646,-59.4771
 L 553.513,-58.9796 L 553.328,-58.4989 L 553.094,-58.04 L 552.814,-57.6081 L 552.49,-57.2079 L 552.125,-56.8437
 L 551.725,-56.5196 L 551.293,-56.2392 L 550.834,-56.0054 L 550.354,-55.8208 L 549.856,-55.6875 L 549.348,-55.607
 L 548.833,-55.58 z
M 367.875,-55.607 L 367.366,-55.6875 L 366.869,-55.8208 L 366.388,-56.0054 L 365.929,-56.2392 L 365.497,-56.5196
 L 365.097,-56.8437 L 364.733,-57.2079 L 364.409,-57.6081 L 364.128,-58.04 L 363.894,-58.4989 L 363.71,-58.9796
 L 363.576,-59.4771 L 363.496,-59.9857 L 363.469,-60.5 L 363.496,-61.0143 L 363.576,-61.5229 L 363.71,-62.0204
 L 363.894,-62.5011 L 364.128,-62.96 L 364.409,-63.3919 L 364.733,-63.7921 L 365.097,-64.1563 L 365.497,-64.4804
 L 365.839,-64.7024 L 365.839,-74 L 365.895,-74.5302 L 366.059,-75.0372 L 366.326,-75.4988 L 366.683,-75.895
 L 367.114,-76.2084 L 367.601,-76.4252 L 368.122,-76.536 L 368.655,-76.536 L 369.177,-76.4252 L 369.664,-76.2084
 L 370.095,-75.895 L 370.452,-75.4988 L 370.718,-75.0372 L 370.883,-74.5302 L 370.939,-74 L 370.939,-64.7024
 L 371.281,-64.4804 L 371.681,-64.1563 L 372.045,-63.7921 L 372.369,-63.3919 L 372.65,-62.96 L 372.884,-62.5011
 L 373.068,-62.0204 L 373.201,-61.5229 L 373.282,-61.0143 L 373.309,-60.5 L 373.282,-59.9857 L 373.201,-59.4771
 L 373.068,-58.9796 L 372.884,-58.4989 L 372.65,-58.04 L 372.369,-57.6081 L 372.045,-57.2079 L 371.681,-56.8437
 L 371.281,-56.5196 L 370.849,-56.2392 L 370.39,-56.0054 L 369.909,-55.8208 L 369.412,-55.6875 L 368.903,-55.607
 L 368.389,-55.58 z
M 1630.99,-55.607 L 1630.48,-55.6875 L 1629.98,-55.8208 L 1629.5,-56.0054 L 1629.04,-56.2392 L 1628.61,-56.5196
 L 1628.21,-56.8437 L 1627.84,-57.2079 L 1627.52,-57.6081 L 1627.24,-58.04 L 1627.01,-58.4989 L 1626.82,-58.9796
 L 1626.69,-59.4771 L 1626.61,-59.9857 L 1626.58,-60.5 L 1626.61,-61.0143 L 1626.69,-61.5229 L 1626.82,-62.0204
 L 1627.01,-62.5011 L 1627.24,-62.96 L 1627.52,-63.3919 L 1627.84,-63.7921 L 1628.21,-64.1563 L 1628.61,-64.4804
 L 1628.95,-64.7024 L 1628.95,-74 L 1629.01,-74.5302 L 1629.17,-75.0372 L 1629.44,-75.4988 L 1629.79,-75.895
 L 1630.23,-76.2084 L 1630.71,-76.4252 L 1631.23,-76.536 L 1631.77,-76.536 L 1632.29,-76.4252 L 1632.77,-76.2084
 L 1633.21,-75.895 L 1633.56,-75.4988 L 1633.83,-75.0372 L 1633.99,-74.5302 L 1634.05,-74 L 1634.05,-64.7024
 L 1634.39,-64.4804 L 1634.79,-64.1563 L 1635.16,-63.7921 L 1635.48,-63.3919 L 1635.76,-62.96 L 1635.99,-62.5011
 L 1636.18,-62.0204 L 1636.31,-61.5229 L 1636.39,-61.0143 L 1636.42,-60.5 L 1636.39,-59.9857 L 1636.31,-59.4771
 L 1636.18,-58.9796 L 1635.99,-58.4989 L 1635.76,-58.04 L 1635.48,-57.6081 L 1635.16,-57.2079 L 1634.79,-56.8437
 L 1634.39,-56.5196 L 1633.96,-56.2392 L 1633.5,-56.0054 L 1633.02,-55.8208 L 1632.52,-55.6875 L 1632.01,-55.607
 L 1631.5,-55.58 z
M 187.43,-55.607 L 186.922,-55.6875 L 186.424,-55.8208 L 185.943,-56.0054 L 185.484,-56.2392 L 185.053,-56.5196
 L 184.652,-56.8437 L 184.288,-57.2079 L 183.964,-57.6081 L 183.684,-58.04 L 183.45,-58.4989 L 183.265,-58.9796
 L 183.132,-59.4771 L 183.051,-59.9857 L 183.024,-60.5 L 183.051,-61.0143 L 183.132,-61.5229 L 183.265,-62.0204
 L 183.45,-62.5011 L 183.684,-62.96 L 183.964,-63.3919 L 184.288,-63.7921 L 184.652,-64.1563 L 185.053,-64.4804
 L 185.394,-64.7024 L 185.394,-74 L 185.45,-74.5302 L 185.615,-75.0372 L 185.881,-75.4988 L 186.238,-75.895
 L 186.669,-76.2084 L 187.156,-76.4252 L 187.678,-76.536 L 188.211,-76.536 L 188.732,-76.4252 L 189.219,-76.2084
 L 189.651,-75.895 L 190.007,-75.4988 L 190.274,-75.0372 L 190.439,-74.5302 L 190.494,-74 L 190.494,-64.7024
 L 190.836,-64.4804 L 191.237,-64.1563 L 191.601,-63.7921 L 191.925,-63.3919 L 192.205,-62.96 L 192.439,-62.5011
 L 192.624,-62.0204 L 192.757,-61.5229 L 192.837,-61.0143 L 192.864,-60.5 L 192.837,-59.9857 L 192.757,-59.4771
 L 192.624,-58.9796 L 192.439,-58.4989 L 192.205,-58.04 L 191.925,-57.6081 L 191.601,-57.2079 L 191.237,-56.8437
 L 190.836,-56.5196 L 190.404,-56.2392 L 189.946,-56.0054 L 189.465,-55.8208 L 188.967,-55.6875 L 188.459,-55.607
 L 187.944,-55.58 z
M 1102.11,-20.9193 L 1101.33,-21.2238 L 1100.63,-21.6835 L 1100.04,-22.2784 L 1099.59,-22.9825 L 1099.3,-23.765
 L 1099.17,-24.7766 L 1099.17,-58 L 1099.25,-58.8316 L 1099.51,-59.627 L 1099.93,-60.3511 L 1100.49,-60.9726
 L 1101.17,-61.4641 L 1101.93,-61.8042 L 1103.17,-62 L 1191.33,-62 L 1192.16,-61.9126 L 1192.96,-61.6542
 L 1193.68,-61.2361 L 1194.3,-60.6765 L 1194.79,-60 L 1195.13,-59.2361 L 1195.31,-58.4181 L 1195.31,-57.5819
 L 1195.13,-56.7639 L 1194.79,-56 L 1194.3,-55.3235 L 1193.68,-54.7639 L 1192.74,-54.257 L 1104.58,-21.0336
 L 1103.77,-20.8221 L 1102.93,-20.7834 z
M 921.663,-20.9193 L 920.884,-21.2238 L 920.186,-21.6835 L 919.598,-22.2784 L 919.147,-22.9825 L 918.852,-23.765
 L 918.722,-24.7766 L 918.722,-58 L 918.81,-58.8316 L 919.068,-59.627 L 919.486,-60.3511 L 920.046,-60.9726
 L 920.722,-61.4641 L 921.486,-61.8042 L 922.722,-62 L 1010.88,-62 L 1011.72,-61.9126 L 1012.51,-61.6542
 L 1013.23,-61.2361 L 1013.86,-60.6765 L 1014.35,-60 L 1014.69,-59.2361 L 1014.86,-58.4181 L 1014.86,-57.5819
 L 1014.69,-56.7639 L 1014.35,-56 L 1013.86,-55.3235 L 1013.23,-54.7639 L 1012.29,-54.257 L 924.133,-21.0336
 L 923.324,-20.8221 L 922.488,-20.7834 z
M 818.898,-47.7881 L 818.089,-47.9995 L 801.485,-54.257 L 800.544,-54.7639 L 799.923,-55.3235 L 799.431,-56
 L 799.091,-56.7639 L 798.917,-57.5819 L 798.917,-58.4181 L 799.091,-59.2361 L 799.431,-60 L 799.923,-60.6765
 L 800.544,-61.2361 L 801.268,-61.6542 L 802.064,-61.9126 L 802.895,-62 L 836.105,-62 L 837.164,-61.8573
 L 837.942,-61.5528 L 838.641,-61.0931 L 839.229,-60.4982 L 839.68,-59.7941 L 839.975,-59.0116 L 840.1,-58.1849
 L 840.051,-57.3501 L 839.83,-56.5437 L 839.446,-55.8009 L 838.916,-55.1543 L 838.263,-54.632 L 837.515,-54.257
 L 820.911,-47.9995 L 819.734,-47.7494 z
M 715.676,-20.8221 L 714.867,-21.0336 L 626.706,-54.257 L 625.765,-54.7639 L 625.144,-55.3235 L 624.652,-56
 L 624.312,-56.7639 L 624.138,-57.5819 L 624.138,-58.4181 L 624.312,-59.2361 L 624.652,-60 L 625.144,-60.6765
 L 625.765,-61.2361 L 626.489,-61.6542 L 627.285,-61.9126 L 628.116,-62 L 716.278,-62 L 717.514,-61.8042
 L 718.278,-61.4641 L 718.954,-60.9726 L 719.514,-60.3511 L 719.932,-59.627 L 720.19,-58.8316 L 720.278,-58
 L 720.278,-24.7766 L 720.148,-23.765 L 719.853,-22.9825 L 719.402,-22.2784 L 718.814,-21.6835 L 718.116,-21.2238
 L 717.337,-20.9193 L 716.512,-20.7834 z
M 535.232,-20.8221 L 534.423,-21.0336 L 446.261,-54.257 L 445.321,-54.7639 L 444.699,-55.3235 L 444.208,-56
 L 443.868,-56.7639 L 443.694,-57.5819 L 443.694,-58.4181 L 443.868,-59.2361 L 444.208,-60 L 444.699,-60.6765
 L 445.321,-61.2361 L 446.045,-61.6542 L 446.84,-61.9126 L 447.672,-62 L 535.833,-62 L 537.069,-61.8042
 L 537.833,-61.4641 L 538.51,-60.9726 L 539.069,-60.3511 L 539.488,-59.627 L 539.746,-58.8316 L 539.833,-58
 L 539.833,-24.7766 L 539.703,-23.765 L 539.408,-22.9825 L 538.957,-22.2784 L 538.37,-21.6835 L 537.671,-21.2238
 L 536.892,-20.9193 L 536.067,-20.7834 z
M 354.787,-20.8221 L 353.978,-21.0336 L 265.817,-54.257 L 264.876,-54.7639 L 264.255,-55.3235 L 263.763,-56
 L 263.423,-56.7639 L 263.249,-57.5819 L 263.249,-58.4181 L 263.423,-59.2361 L 263.763,-60 L 264.255,-60.6765
 L 264.876,-61.2361 L 265.601,-61.6542 L 266.396,-61.9126 L 267.227,-62 L 355.389,-62 L 356.625,-61.8042
 L 357.389,-61.4641 L 358.065,-60.9726 L 358.625,-60.3511 L 359.043,-59.627 L 359.301,-58.8316 L 359.389,-58
 L 359.389,-24.7766 L 359.259,-23.765 L 358.964,-22.9825 L 358.513,-22.2784 L 357.925,-21.6835 L 357.227,-21.2238
 L 356.448,-20.9193 L 355.623,-20.7834 z
M 1463,-20.9193 L 1462.22,-21.2238 L 1461.52,-21.6835 L 1460.93,-22.2784 L 1460.48,-22.9825 L 1460.19,-23.765
 L 1460.06,-24.7766 L 1460.06,-58 L 1460.14,-58.8316 L 1460.4,-59.627 L 1460.82,-60.3511 L 1461.38,-60.9726
 L 1462.06,-61.4641 L 1462.82,-61.8042 L 1464.06,-62 L 1552.22,-62 L 1553.05,-61.9126 L 1553.84,-61.6542
 L 1554.57,-61.2361 L 1555.19,-60.6765 L 1555.68,-60 L 1556.02,-59.2361 L 1556.2,-58.4181 L 1556.2,-57.5819
 L 1556.02,-56.7639 L 1555.68,-56 L 1555.19,-55.3235 L 1554.57,-54.7639 L 1553.63,-54.257 L 1465.47,-21.0336
 L 1464.66,-20.8221 L 1463.82,-20.7834 z
M 174.343,-20.8221 L 173.534,-21.0336 L 85.3725,-54.257 L 84.4319,-54.7639 L 83.8105,-55.3235 L 83.3189,-56
 L 82.9788,-56.7639 L 82.8049,-57.5819 L 82.8049,-58.4181 L 82.9788,-59.2361 L 83.3189,-60 L 83.8105,-60.6765
 L 84.4319,-61.2361 L 85.1561,-61.6542 L 85.9514,-61.9126 L 86.783,-62 L 174.944,-62 L 176.181,-61.8042
 L 176.944,-61.4641 L 177.621,-60.9726 L 178.181,-60.3511 L 178.599,-59.627 L 178.857,-58.8316 L 178.944,-58
 L 178.944,-24.7766 L 178.814,-23.765 L 178.52,-22.9825 L 178.068,-22.2784 L 177.481,-21.6835 L 176.782,-21.2238
 L 176.003,-20.9193 L 175.178,-20.7834 z
M 1282.55,-20.9193 L 1281.77,-21.2238 L 1281.07,-21.6835 L 1280.49,-22.2784 L 1280.04,-22.9825 L 1279.74,-23.765
 L 1279.61,-24.7766 L 1279.61,-58 L 1279.7,-58.8316 L 1279.96,-59.627 L 1280.38,-60.3511 L 1280.93,-60.9726
 L 1281.61,-61.4641 L 1282.38,-61.8042 L 1283.61,-62 L 1371.77,-62 L 1372.6,-61.9126 L 1373.4,-61.6542
 L 1374.12,-61.2361 L 1374.75,-60.6765 L 1375.24,-60 L 1375.58,-59.2361 L 1375.75,-58.4181 L 1375.75,-57.5819
 L 1375.58,-56.7639 L 1375.24,-56 L 1374.75,-55.3235 L 1374.12,-54.7639 L 1373.18,-54.257 L 1285.02,-21.0336
 L 1284.21,-20.8221 L 1283.38,-20.7834 z
M 741.86,-18.6635 L 741.042,-18.8374 L 740.278,-19.1775 L 739.601,-19.669 L 739.042,-20.2905 L 738.624,-21.0147
 L 738.365,-21.81 L 738.278,-22.6416 L 738.278,-57.3584 L 738.408,-58.3699 L 738.703,-59.1525 L 739.154,-59.8566
 L 739.741,-60.4515 L 740.44,-60.9112 L 741.219,-61.2157 L 742.044,-61.3515 L 742.879,-61.3129 L 743.688,-61.1014
 L 789.75,-43.743 L 790.178,-43.5528 L 790.876,-43.0931 L 791.464,-42.4982 L 791.915,-41.7941 L 792.21,-41.0116
 L 792.336,-40.1849 L 792.287,-39.3501 L 792.065,-38.5437 L 791.681,-37.8009 L 791.151,-37.1543 L 790.498,-36.632
 L 789.75,-36.257 L 743.688,-18.8986 L 742.696,-18.6635 z
M 896.121,-18.6871 L 895.312,-18.8986 L 849.249,-36.257 L 848.822,-36.4472 L 848.124,-36.9069 L 847.536,-37.5018
 L 847.085,-38.2059 L 846.79,-38.9884 L 846.664,-39.8151 L 846.713,-40.6499 L 846.935,-41.4563 L 847.319,-42.1991
 L 847.849,-42.8457 L 848.502,-43.368 L 849.249,-43.743 L 895.312,-61.1014 L 896.304,-61.3365 L 897.14,-61.3365
 L 897.958,-61.1626 L 898.722,-60.8225 L 899.399,-60.331 L 899.958,-59.7095 L 900.376,-58.9854 L 900.635,-58.19
 L 900.722,-57.3584 L 900.722,-22.6416 L 900.592,-21.63 L 900.297,-20.8475 L 899.846,-20.1434 L 899.258,-19.5485
 L 898.56,-19.0888 L 897.781,-18.7843 L 896.956,-18.6484 z
M 200.944,-18 L 199.708,-18.1958 L 198.944,-18.5359 L 198.268,-19.0274 L 197.708,-19.6489 L 197.29,-20.373
 L 197.032,-21.1684 L 196.944,-22 L 196.944,-55.2234 L 197.074,-56.2349 L 197.369,-57.0175 L 197.82,-57.7216
 L 198.408,-58.3165 L 199.107,-58.7762 L 199.885,-59.0807 L 200.711,-59.2165 L 201.546,-59.1779 L 202.355,-58.9664
 L 290.516,-25.743 L 291.457,-25.2361 L 292.078,-24.6765 L 292.57,-24 L 292.91,-23.2361 L 293.084,-22.4181
 L 293.084,-21.5819 L 292.91,-20.7639 L 292.57,-20 L 292.078,-19.3235 L 291.457,-18.7639 L 290.733,-18.3458
 L 289.937,-18.0874 L 289.106,-18 z
M 381.389,-18 L 380.153,-18.1958 L 379.389,-18.5359 L 378.712,-19.0274 L 378.153,-19.6489 L 377.735,-20.373
 L 377.476,-21.1684 L 377.389,-22 L 377.389,-55.2234 L 377.519,-56.2349 L 377.814,-57.0175 L 378.265,-57.7216
 L 378.853,-58.3165 L 379.551,-58.7762 L 380.33,-59.0807 L 381.155,-59.2165 L 381.99,-59.1779 L 382.799,-58.9664
 L 470.961,-25.743 L 471.901,-25.2361 L 472.523,-24.6765 L 473.014,-24 L 473.354,-23.2361 L 473.528,-22.4181
 L 473.528,-21.5819 L 473.354,-20.7639 L 473.014,-20 L 472.523,-19.3235 L 471.901,-18.7639 L 471.177,-18.3458
 L 470.382,-18.0874 L 469.55,-18 z
M 561.833,-18 L 560.597,-18.1958 L 559.833,-18.5359 L 559.157,-19.0274 L 558.597,-19.6489 L 558.179,-20.373
 L 557.921,-21.1684 L 557.833,-22 L 557.833,-55.2234 L 557.963,-56.2349 L 558.258,-57.0175 L 558.709,-57.7216
 L 559.297,-58.3165 L 559.996,-58.7762 L 560.774,-59.0807 L 561.6,-59.2165 L 562.435,-59.1779 L 563.244,-58.9664
 L 651.405,-25.743 L 652.346,-25.2361 L 652.967,-24.6765 L 653.459,-24 L 653.799,-23.2361 L 653.973,-22.4181
 L 653.973,-21.5819 L 653.799,-20.7639 L 653.459,-20 L 652.967,-19.3235 L 652.346,-18.7639 L 651.622,-18.3458
 L 650.826,-18.0874 L 649.995,-18 z
M 989.005,-18 L 988.174,-18.0874 L 987.378,-18.3458 L 986.654,-18.7639 L 986.033,-19.3235 L 985.541,-20
 L 985.201,-20.7639 L 985.027,-21.5819 L 985.027,-22.4181 L 985.201,-23.2361 L 985.541,-24 L 986.033,-24.6765
 L 986.654,-25.2361 L 987.595,-25.743 L 1075.76,-58.9664 L 1076.57,-59.1779 L 1077.4,-59.2165 L 1078.23,-59.0807
 L 1079,-58.7762 L 1079.7,-58.3165 L 1080.29,-57.7216 L 1080.74,-57.0175 L 1081.04,-56.2349 L 1081.17,-55.2234
 L 1081.17,-22 L 1081.08,-21.1684 L 1080.82,-20.373 L 1080.4,-19.6489 L 1079.84,-19.0274 L 1079.17,-18.5359
 L 1078.4,-18.1958 L 1077.17,-18 z
M 1169.45,-18 L 1168.62,-18.0874 L 1167.82,-18.3458 L 1167.1,-18.7639 L 1166.48,-19.3235 L 1165.99,-20
 L 1165.65,-20.7639 L 1165.47,-21.5819 L 1165.47,-22.4181 L 1165.65,-23.2361 L 1165.99,-24 L 1166.48,-24.6765
 L 1167.1,-25.2361 L 1168.04,-25.743 L 1256.2,-58.9664 L 1257.01,-59.1779 L 1257.84,-59.2165 L 1258.67,-59.0807
 L 1259.45,-58.7762 L 1260.15,-58.3165 L 1260.74,-57.7216 L 1261.19,-57.0175 L 1261.48,-56.2349 L 1261.61,-55.2234
 L 1261.61,-22 L 1261.52,-21.1684 L 1261.27,-20.373 L 1260.85,-19.6489 L 1260.29,-19.0274 L 1259.61,-18.5359
 L 1258.85,-18.1958 L 1257.61,-18 z
M 1349.89,-18 L 1349.06,-18.0874 L 1348.27,-18.3458 L 1347.54,-18.7639 L 1346.92,-19.3235 L 1346.43,-20
 L 1346.09,-20.7639 L 1345.92,-21.5819 L 1345.92,-22.4181 L 1346.09,-23.2361 L 1346.43,-24 L 1346.92,-24.6765
 L 1347.54,-25.2361 L 1348.48,-25.743 L 1436.64,-58.9664 L 1437.45,-59.1779 L 1438.29,-59.2165 L 1439.11,-59.0807
 L 1439.89,-58.7762 L 1440.59,-58.3165 L 1441.18,-57.7216 L 1441.63,-57.0175 L 1441.93,-56.2349 L 1442.06,-55.2234
 L 1442.06,-22 L 1441.97,-21.1684 L 1441.71,-20.373 L 1441.29,-19.6489 L 1440.73,-19.0274 L 1440.06,-18.5359
 L 1439.29,-18.1958 L 1438.06,-18 z
M 22,-18 L 20.7639,-18.1958 L 20,-18.5359 L 19.3235,-19.0274 L 18.7639,-19.6489 L 18.3458,-20.373
 L 18.0874,-21.1684 L 18,-22 L 18,-54.6581 L 18.13,-55.6697 L 18.4249,-56.4522 L 18.876,-57.1563
 L 19.4637,-57.7512 L 20.1622,-58.2109 L 20.9411,-58.5154 L 21.7662,-58.6513 L 22.6015,-58.6126 L 23.4106,-58.4011
 L 110.072,-25.743 L 111.013,-25.2361 L 111.634,-24.6765 L 112.125,-24 L 112.466,-23.2361 L 112.639,-22.4181
 L 112.639,-21.5819 L 112.466,-20.7639 L 112.125,-20 L 111.634,-19.3235 L 111.013,-18.7639 L 110.288,-18.3458
 L 109.493,-18.0874 L 108.661,-18 z
M 1530.34,-18 L 1529.51,-18.0874 L 1528.71,-18.3458 L 1527.99,-18.7639 L 1527.37,-19.3235 L 1526.87,-20
 L 1526.53,-20.7639 L 1526.36,-21.5819 L 1526.36,-22.4181 L 1526.53,-23.2361 L 1526.87,-24 L 1527.37,-24.6765
 L 1527.99,-25.2361 L 1528.93,-25.743 L 1615.59,-58.4011 L 1616.4,-58.6126 L 1617.23,-58.6513 L 1618.06,-58.5154
 L 1618.84,-58.2109 L 1619.54,-57.7512 L 1620.12,-57.1563 L 1620.58,-56.4522 L 1620.87,-55.6697 L 1621,-54.6581
 L 1621,-22 L 1620.91,-21.1684 L 1620.65,-20.373 L 1620.24,-19.6489 L 1619.68,-19.0274 L 1619,-18.5359
 L 1618.24,-18.1958 L 1617,-18 z
M 802.895,-18 L 801.836,-18.1427 L 801.058,-18.4472 L 800.359,-18.9069 L 799.771,-19.5018 L 799.32,-20.2059
 L 799.025,-20.9884 L 798.9,-21.8151 L 798.949,-22.6499 L 799.17,-23.4563 L 799.554,-24.1991 L 800.084,-24.8457
 L 800.737,-25.368 L 801.485,-25.743 L 818.089,-32.0005 L 819.266,-32.2506 L 820.101,-32.2119 L 820.911,-32.0005
 L 837.515,-25.743 L 838.456,-25.2361 L 839.077,-24.6765 L 839.569,-24 L 839.909,-23.2361 L 840.083,-22.4181
 L 840.083,-21.5819 L 839.909,-20.7639 L 839.569,-20 L 839.077,-19.3235 L 838.456,-18.7639 L 837.732,-18.3458
 L 836.936,-18.0874 L 836.105,-18 z
" stroke="black" fill="lightgray" stroke-width="0.5"/>
</svg>
