<?xml version="1.0" standalone="no"?>
<!DOCTYPE svg PUBLIC "-//W3C//DTD SVG 1.1//EN" "http://www.w3.org/Graphics/SVG/1.1/DTD/svg11.dtd">
<svg width="1656mm" height="80mm" viewBox="0 -80 1656 80" xmlns="http://www.w3.org/2000/svg" version="1.1">
<title>OpenSCAD Model</title>
<path d="
M 1656,-80 L 0,-80 L 0,-0 L 4.95,-0 L 4.95,-6 L 5.00572,-6.53017
 L 5.17046,-7.03717 L 5.437,-7.49884 L 5.79372,-7.895 L 6.22499,-8.20836 L 6.71201,-8.42519 L 7.23344,-8.53603
 L 7.76654,-8.53603 L 8.28798,-8.42519 L 8.77499,-8.20836 L 9.20627,-7.895 L 9.56299,-7.49884 L 9.82953,-7.03717
 L 9.99426,-6.53017 L 10.05,-6 L 10.05,-0 L 187.283,-0 L 187.283,-6 L 187.339,-6.53017
 L 187.504,-7.03717 L 187.77,-7.49884 L 188.127,-7.895 L 188.558,-8.20836 L 189.045,-8.42519 L 189.567,-8.53603
 L 190.1,-8.53603 L 190.621,-8.42519 L 191.108,-8.20836 L 191.54,-7.895 L 191.896,-7.49884 L 192.163,-7.03717
 L 192.328,-6.53017 L 192.383,-6 L 192.383,-0 L 369.617,-0 L 369.617,-6 L 369.672,-6.53017
 L 369.837,-7.03717 L 370.104,-7.49884 L 370.46,-7.895 L 370.892,-8.20836 L 371.379,-8.42519 L 371.9,-8.53603
 L 372.433,-8.53603 L 372.955,-8.42519 L 373.442,-8.20836 L 373.873,-7.895 L 374.23,-7.49884 L 374.496,-7.03717
 L 374.661,-6.53017 L 374.717,-6 L 374.717,-0 L 551.95,-0 L 551.95,-6 L 552.006,-6.53017
 L 552.17,-7.03717 L 552.437,-7.49884 L 552.794,-7.895 L 553.225,-8.20836 L 553.712,-8.42519 L 554.233,-8.53603
 L 554.767,-8.53603 L 555.288,-8.42519 L 555.775,-8.20836 L 556.206,-7.895 L 556.563,-7.49884 L 556.83,-7.03717
 L 556.994,-6.53017 L 557.05,-6 L 557.05,-0 L 734.283,-0 L 734.283,-6 L 734.339,-6.53017
 L 734.504,-7.03717 L 734.77,-7.49884 L 735.127,-7.895 L 735.558,-8.20836 L 736.045,-8.42519 L 736.567,-8.53603
 L 737.1,-8.53603 L 737.621,-8.42519 L 738.108,-8.20836 L 738.54,-7.895 L 738.896,-7.49884 L 739.163,-7.03717
 L 739.328,-6.53017 L 739.383,-6 L 739.383,-0 L 916.617,-0 L 916.617,-6 L 916.672,-6.53017
 L 916.837,-7.03717 L 917.104,-7.49884 L 917.46,-7.895 L 917.892,-8.20836 L 918.379,-8.42519 L 918.9,-8.53603
 L 919.433,-8.53603 L 919.955,-8.42519 L 920.442,-8.20836 L 920.873,-7.895 L 921.23,-7.49884 L 921.496,-7.03717
 L 921.661,-6.53017 L 921.717,-6 L 921.717,-0 L 1098.95,-0 L 1098.95,-6 L 1099.01,-6.53017
 L 1099.17,-7.03717 L 1099.44,-7.49884 L 1099.79,-7.895 L 1100.22,-8.20836 L 1100.71,-8.42519 L 1101.23,-8.53603
 L 1101.77,-8.53603 L 1102.29,-8.42519 L 1102.77,-8.20836 L 1103.21,-7.895 L 1103.56,-7.49884 L 1103.83,-7.03717
 L 1103.99,-6.53017 L 1104.05,-6 L 1104.05,-0 L 1281.28,-0 L 1281.28,-6 L 1281.34,-6.53017
 L 1281.5,-7.03717 L 1281.77,-7.49884 L 1282.13,-7.895 L 1282.56,-8.20836 L 1283.05,-8.42519 L 1283.57,-8.53603
 L 1284.1,-8.53603 L 1284.62,-8.42519 L 1285.11,-8.20836 L 1285.54,-7.895 L 1285.9,-7.49884 L 1286.16,-7.03717
 L 1286.33,-6.53017 L 1286.38,-6 L 1286.38,-0 L 1463.62,-0 L 1463.62,-6 L 1463.67,-6.53017
 L 1463.84,-7.03717 L 1464.1,-7.49884 L 1464.46,-7.895 L 1464.89,-8.20836 L 1465.38,-8.42519 L 1465.9,-8.53603
 L 1466.43,-8.53603 L 1466.95,-8.42519 L 1467.44,-8.20836 L 1467.87,-7.895 L 1468.23,-7.49884 L 1468.5,-7.03717
 L 1468.66,-6.53017 L 1468.72,-6 L 1468.72,-0 L 1645.95,-0 L 1645.95,-6 L 1646.01,-6.53017
 L 1646.17,-7.03717 L 1646.44,-7.49884 L 1646.79,-7.895 L 1647.22,-8.20836 L 1647.71,-8.42519 L 1648.23,-8.53603
 L 1648.77,-8.53603 L 1649.29,-8.42519 L 1649.77,-8.20836 L 1650.21,-7.895 L 1650.56,-7.49884 L 1650.83,-7.03717
 L 1650.99,-6.53017 L 1651.05,-6 L 1651.05,-0 L 1656,-0 z
M 6.98573,-55.607 L 6.47708,-55.6875 L 5.97964,-55.8208 L 5.49887,-56.0054 L 5.04001,-56.2392 L 4.60811,-56.5196
 L 4.20789,-56.8437 L 3.84373,-57.2079 L 3.51964,-57.6081 L 3.23917,-58.04 L 3.00537,-58.4989 L 2.82082,-58.9796
 L 2.68752,-59.4771 L 2.60696,-59.9857 L 2.58,-60.5 L 2.60696,-61.0143 L 2.68752,-61.5229 L 2.82082,-62.0204
 L 3.00537,-62.5011 L 3.23917,-62.96 L 3.51964,-63.3919 L 3.84373,-63.7921 L 4.20789,-64.1563 L 4.60811,-64.4804
 L 4.95001,-64.7024 L 4.95001,-74 L 5.00574,-74.5302 L 5.17047,-75.0372 L 5.43701,-75.4988 L 5.79373,-75.895
 L 6.22501,-76.2084 L 6.71202,-76.4252 L 7.23346,-76.536 L 7.76654,-76.536 L 8.28798,-76.4252 L 8.77499,-76.2084
 L 9.20627,-75.895 L 9.56299,-75.4988 L 9.82953,-75.0372 L 9.99426,-74.5302 L 10.05,-74 L 10.05,-64.7024
 L 10.3919,-64.4804 L 10.7921,-64.1563 L 11.1563,-63.7921 L 11.4804,-63.3919 L 11.7608,-62.96 L 11.9946,-62.5011
 L 12.1792,-62.0204 L 12.3125,-61.5229 L 12.393,-61.0143 L 12.42,-60.5 L 12.393,-59.9857 L 12.3125,-59.4771
 L 12.1792,-58.9796 L 11.9946,-58.4989 L 11.7608,-58.04 L 11.4804,-57.6081 L 11.1563,-57.2079 L 10.7921,-56.8437
 L 10.3919,-56.5196 L 9.95999,-56.2392 L 9.50113,-56.0054 L 9.02036,-55.8208 L 8.52292,-55.6875 L 8.01427,-55.607
 L 7.5,-55.58 z
M 1100.99,-55.607 L 1100.48,-55.6875 L 1099.98,-55.8208 L 1099.5,-56.0054 L 1099.04,-56.2392 L 1098.61,-56.5196
 L 1098.21,-56.8437 L 1097.84,-57.2079 L 1097.52,-57.6081 L 1097.24,-58.04 L 1097.01,-58.4989 L 1096.82,-58.9796
 L 1096.69,-59.4771 L 1096.61,-59.9857 L 1096.58,-60.5 L 1096.61,-61.0143 L 1096.69,-61.5229 L 1096.82,-62.0204
 L 1097.01,-62.5011 L 1097.24,-62.96 L 1097.52,-63.3919 L 1097.84,-63.7921 L 1098.21,-64.1563 L 1098.61,-64.4804
 L 1098.95,-64.7024 L 1098.95,-74 L 1099.01,-74.5302 L 1099.17,-75.0372 L 1099.44,-75.4988 L 1099.79,-75.895
 L 1100.23,-76.2084 L 1100.71,-76.4252 L 1101.23,-76.536 L 1101.77,-76.536 L 1102.29,-76.4252 L 1102.77,-76.2084
 L 1103.21,-75.895 L 1103.56,-75.4988 L 1103.83,-75.0372 L 1103.99,-74.5302 L 1104.05,-74 L 1104.05,-64.7024
 L 1104.39,-64.4804 L 1104.79,-64.1563 L 1105.16,-63.7921 L 1105.48,-63.3919 L 1105.76,-62.96 L 1105.99,-62.5011
 L 1106.18,-62.0204 L 1106.31,-61.5229 L 1106.39,-61.0143 L 1106.42,-60.5 L 1106.39,-59.9857 L 1106.31,-59.4771
 L 1106.18,-58.9796 L 1105.99,-58.4989 L 1105.76,-58.04 L 1105.48,-57.6081 L 1105.16,-57.2079 L 1104.79,-56.8437
 L 1104.39,-56.5196 L 1103.96,-56.2392 L 1103.5,-56.0054 L 1103.02,-55.8208 L 1102.52,-55.6875 L 1102.01,-55.607
 L 1101.5,-55.58 z
M 1283.32,-55.607 L 1282.81,-55.6875 L 1282.31,-55.8208 L 1281.83,-56.0054 L 1281.37,-56.2392 L 1280.94,-56.5196
 L 1280.54,-56.8437 L 1280.18,-57.2079 L 1279.85,-57.6081 L 1279.57,-58.04 L 1279.34,-58.4989 L 1279.15,-58.9796
 L 1279.02,-59.4771 L 1278.94,-59.9857 L 1278.91,-60.5 L 1278.94,-61.0143 L 1279.02,-61.5229 L 1279.15,-62.0204
 L 1279.34,-62.5011 L 1279.57,-62.96 L 1279.85,-63.3919 L 1280.18,-63.7921 L 1280.54,-64.1563 L 1280.94,-64.4804
 L 1281.28,-64.7024 L 1281.28,-74 L 1281.34,-74.5302 L 1281.5,-75.0372 L 1281.77,-75.4988 L 1282.13,-75.895
 L 1282.56,-76.2084 L 1283.05,-76.4252 L 1283.57,-76.536 L 1284.1,-76.536 L 1284.62,-76.4252 L 1285.11,-76.2084
 L 1285.54,-75.895 L 1285.9,-75.4988 L 1286.16,-75.0372 L 1286.33,-74.5302 L 1286.38,-74 L 1286.38,-64.7024
 L 1286.73,-64.4804 L 1287.13,-64.1563 L 1287.49,-63.7921 L 1287.81,-63.3919 L 1288.09,-62.96 L 1288.33,-62.5011
 L 1288.51,-62.0204 L 1288.65,-61.5229 L 1288.73,-61.0143 L 1288.75,-60.5 L 1288.73,-59.9857 L 1288.65,-59.4771
 L 1288.51,-58.9796 L 1288.33,-58.4989 L 1288.09,-58.04 L 1287.81,-57.6081 L 1287.49,-57.2079 L 1287.13,-56.8437
 L 1286.73,-56.5196 L 1286.29,-56.2392 L 1285.83,-56.0054 L 1285.35,-55.8208 L 1284.86,-55.6875 L 1284.35,-55.607
 L 1283.83,-55.58 z
M 918.652,-55.607 L 918.144,-55.6875 L 917.646,-55.8208 L 917.166,-56.0054 L 916.707,-56.2392 L 916.275,-56.5196
 L 915.875,-56.8437 L 915.51,-57.2079 L 915.186,-57.6081 L 914.906,-58.04 L 914.672,-58.4989 L 914.487,-58.9796
 L 914.354,-59.4771 L 914.274,-59.9857 L 914.247,-60.5 L 914.274,-61.0143 L 914.354,-61.5229 L 914.487,-62.0204
 L 914.672,-62.5011 L 914.906,-62.96 L 915.186,-63.3919 L 915.51,-63.7921 L 915.875,-64.1563 L 916.275,-64.4804
 L 916.617,-64.7024 L 916.617,-74 L 916.672,-74.5302 L 916.837,-75.0372 L 917.104,-75.4988 L 917.46,-75.895
 L 917.892,-76.2084 L 918.379,-76.4252 L 918.9,-76.536 L 919.433,-76.536 L 919.955,-76.4252 L 920.442,-76.2084
 L 920.873,-75.895 L 921.23,-75.4988 L 921.496,-75.0372 L 921.661,-74.5302 L 921.717,-74 L 921.717,-64.7024
 L 922.059,-64.4804 L 922.459,-64.1563 L 922.823,-63.7921 L 923.147,-63.3919 L 923.427,-62.96 L 923.661,-62.5011
 L 923.846,-62.0204 L 923.979,-61.5229 L 924.06,-61.0143 L 924.087,-60.5 L 924.06,-59.9857 L 923.979,-59.4771
 L 923.846,-58.9796 L 923.661,-58.4989 L 923.427,-58.04 L 923.147,-57.6081 L 922.823,-57.2079 L 922.459,-56.8437
 L 922.059,-56.5196 L 921.627,-56.2392 L 921.168,-56.0054 L 920.687,-55.8208 L 920.19,-55.6875 L 919.681,-55.607
 L 919.167,-55.58 z
M 736.319,-55.607 L 735.81,-55.6875 L 735.313,-55.8208 L 734.832,-56.0054 L 734.373,-56.2392 L 733.941,-56.5196
 L 733.541,-56.8437 L 733.177,-57.2079 L 732.853,-57.6081 L 732.572,-58.04 L 732.339,-58.4989 L 732.154,-58.9796
 L 732.021,-59.4771 L 731.94,-59.9857 L 731.913,-60.5 L 731.94,-61.0143 L 732.021,-61.5229 L 732.154,-62.0204
 L 732.339,-62.5011 L 732.572,-62.96 L 732.853,-63.3919 L 733.177,-63.7921 L 733.541,-64.1563 L 733.941,-64.4804
 L 734.283,-64.7024 L 734.283,-74 L 734.339,-74.5302 L 734.504,-75.0372 L 734.77,-75.4988 L 735.127,-75.895
 L 735.558,-76.2084 L 736.045,-76.4252 L 736.567,-76.536 L 737.1,-76.536 L 737.621,-76.4252 L 738.108,-76.2084
 L 738.54,-75.895 L 738.896,-75.4988 L 739.163,-75.0372 L 739.328,-74.5302 L 739.383,-74 L 739.383,-64.7024
 L 739.725,-64.4804 L 740.125,-64.1563 L 740.49,-63.7921 L 740.814,-63.3919 L 741.094,-62.96 L 741.328,-62.5011
 L 741.513,-62.0204 L 741.646,-61.5229 L 741.726,-61.0143 L 741.753,-60.5 L 741.726,-59.9857 L 741.646,-59.4771
 L 741.513,-58.9796 L 741.328,-58.4989 L 741.094,-58.04 L 740.814,-57.6081 L 740.49,-57.2079 L 740.125,-56.8437
 L 739.725,-56.5196 L 739.293,-56.2392 L 738.834,-56.0054 L 738.354,-55.8208 L 737.856,-55.6875 L 737.348,-55.607
 L 736.833,-55.58 z
M 1465.65,-55.607 L 1465.14,-55.6875 L 1464.65,-55.8208 L 1464.17,-56.0054 L 1463.71,-56.2392 L 1463.27,-56.5196
 L 1462.87,-56.8437 L 1462.51,-57.2079 L 1462.19,-57.6081 L 1461.91,-58.04 L 1461.67,-58.4989 L 1461.49,-58.9796
 L 1461.35,-59.4771 L 1461.27,-59.9857 L 1461.25,-60.5 L 1461.27,-61.0143 L 1461.35,-61.5229 L 1461.49,-62.0204
 L 1461.67,-62.5011 L 1461.91,-62.96 L 1462.19,-63.3919 L 1462.51,-63.7921 L 1462.87,-64.1563 L 1463.27,-64.4804
 L 1463.62,-64.7024 L 1463.62,-74 L 1463.67,-74.5302 L 1463.84,-75.0372 L 1464.1,-75.4988 L 1464.46,-75.895
 L 1464.89,-76.2084 L 1465.38,-76.4252 L 1465.9,-76.536 L 1466.43,-76.536 L 1466.95,-76.4252 L 1467.44,-76.2084
 L 1467.87,-75.895 L 1468.23,-75.4988 L 1468.5,-75.0372 L 1468.66,-74.5302 L 1468.72,-74 L 1468.72,-64.7024
 L 1469.06,-64.4804 L 1469.46,-64.1563 L 1469.82,-63.7921 L 1470.15,-63.3919 L 1470.43,-62.96 L 1470.66,-62.5011
 L 1470.85,-62.0204 L 1470.98,-61.5229 L 1471.06,-61.0143 L 1471.09,-60.5 L 1471.06,-59.9857 L 1470.98,-59.4771
 L 1470.85,-58.9796 L 1470.66,-58.4989 L 1470.43,-58.04 L 1470.15,-57.6081 L 1469.82,-57.2079 L 1469.46,-56.8437
 L 1469.06,-56.5196 L 1468.63,-56.2392 L 1468.17,-56.0054 L 1467.69,-55.8208 L 1467.19,-55.6875 L 1466.68,-55.607
 L 1466.17,-55.58 z
M 553.986,-55.607 L 553.477,-55.6875 L 552.98,-55.8208 L 552.499,-56.0054 L 552.04,-56.2392 L 551.608,-56.5196
 L 551.208,-56.8437 L 550.844,-57.2079 L 550.52,-57.6081 L 550.239,-58.04 L 550.005,-58.4989 L 549.821,-58.9796
 L 549.688,-59.4771 L 549.607,-59.9857 L 549.58,-60.5 L 549.607,-61.0143 L 549.688,-61.5229 L 549.821,-62.0204
 L 550.005,-62.5011 L 550.239,-62.96 L 550.52,-63.3919 L 550.844,-63.7921 L 551.208,-64.1563 L 551.608,-64.4804
 L 551.95,-64.7024 L 551.95,-74 L 552.006,-74.5302 L 552.17,-75.0372 L 552.437,-75.4988 L 552.794,-75.895
 L 553.225,-76.2084 L 553.712,-76.4252 L 554.233,-76.536 L 554.767,-76.536 L 555.288,-76.4252 L 555.775,-76.2084
 L 556.206,-75.895 L 556.563,-75.4988 L 556.83,-75.0372 L 556.994,-74.5302 L 557.05,-74 L 557.05,-64.7024
 L 557.392,-64.4804 L 557.792,-64.1563 L 558.156,-63.7921 L 558.48,-63.3919 L 558.761,-62.96 L 558.995,-62.5011
 L 559.179,-62.0204 L 559.312,-61.5229 L 559.393,-61.0143 L 559.42,-60.5 L 559.393,-59.9857 L 559.312,-59.4771
 L 559.179,-58.9796 L 558.995,-58.4989 L 558.761,-58.04 L 558.48,-57.6081 L 558.156,-57.2079 L 557.792,-56.8437
 L 557.392,-56.5196 L 556.96,-56.2392 L 556.501,-56.0054 L 556.02,-55.8208 L 555.523,-55.6875 L 555.014,-55.607
 L 554.5,-55.58 z
M 371.652,-55.607 L 371.144,-55.6875 L 370.646,-55.8208 L 370.166,-56.0054 L 369.707,-56.2392 L 369.275,-56.5196
 L 368.875,-56.8437 L 368.51,-57.2079 L 368.186,-57.6081 L 367.906,-58.04 L 367.672,-58.4989 L 367.487,-58.9796
 L 367.354,-59.4771 L 367.274,-59.9857 L 367.247,-60.5 L 367.274,-61.0143 L 367.354,-61.5229 L 367.487,-62.0204
 L 367.672,-62.5011 L 367.906,-62.96 L 368.186,-63.3919 L 368.51,-63.7921 L 368.875,-64.1563 L 369.275,-64.4804
 L 369.617,-64.7024 L 369.617,-74 L 369.672,-74.5302 L 369.837,-75.0372 L 370.104,-75.4988 L 370.46,-75.895
 L 370.892,-76.2084 L 371.379,-76.4252 L 371.9,-76.536 L 372.433,-76.536 L 372.955,-76.4252 L 373.442,-76.2084
 L 373.873,-75.895 L 374.23,-75.4988 L 374.496,-75.0372 L 374.661,-74.5302 L 374.717,-74 L 374.717,-64.7024
 L 375.059,-64.4804 L 375.459,-64.1563 L 375.823,-63.7921 L 376.147,-63.3919 L 376.427,-62.96 L 376.661,-62.5011
 L 376.846,-62.0204 L 376.979,-61.5229 L 377.06,-61.0143 L 377.087,-60.5 L 377.06,-59.9857 L 376.979,-59.4771
 L 376.846,-58.9796 L 376.661,-58.4989 L 376.427,-58.04 L 376.147,-57.6081 L 375.823,-57.2079 L 375.459,-56.8437
 L 375.059,-56.5196 L 374.627,-56.2392 L 374.168,-56.0054 L 373.687,-55.8208 L 373.19,-55.6875 L 372.681,-55.607
 L 372.167,-55.58 z
M 1647.99,-55.607 L 1647.48,-55.6875 L 1646.98,-55.8208 L 1646.5,-56.0054 L 1646.04,-56.2392 L 1645.61,-56.5196
 L 1645.21,-56.8437 L 1644.84,-57.2079 L 1644.52,-57.6081 L 1644.24,-58.04 L 1644.01,-58.4989 L 1643.82,-58.9796
 L 1643.69,-59.4771 L 1643.61,-59.9857 L 1643.58,-60.5 L 1643.61,-61.0143 L 1643.69,-61.5229 L 1643.82,-62.0204
 L 1644.01,-62.5011 L 1644.24,-62.96 L 1644.52,-63.3919 L 1644.84,-63.7921 L 1645.21,-64.1563 L 1645.61,-64.4804
 L 1645.95,-64.7024 L 1645.95,-74 L 1646.01,-74.5302 L 1646.17,-75.0372 L 1646.44,-75.4988 L 1646.79,-75.895
 L 1647.23,-76.2084 L 1647.71,-76.4252 L 1648.23,-76.536 L 1648.77,-76.536 L 1649.29,-76.4252 L 1649.77,-76.2084
 L 1650.21,-75.895 L 1650.56,-75.4988 L 1650.83,-75.0372 L 1650.99,-74.5302 L 1651.05,-74 L 1651.05,-64.7024
 L 1651.39,-64.4804 L 1651.79,-64.1563 L 1652.16,-63.7921 L 1652.48,-63.3919 L 1652.76,-62.96 L 1652.99,-62.5011
 L 1653.18,-62.0204 L 1653.31,-61.5229 L 1653.39,-61.0143 L 1653.42,-60.5 L 1653.39,-59.9857 L 1653.31,-59.4771
 L 1653.18,-58.9796 L 1652.99,-58.4989 L 1652.76,-58.04 L 1652.48,-57.6081 L 1652.16,-57.2079 L 1651.79,-56.8437
 L 1651.39,-56.5196 L 1650.96,-56.2392 L 1650.5,-56.0054 L 1650.02,-55.8208 L 1649.52,-55.6875 L 1649.01,-55.607
 L 1648.5,-55.58 z
M 189.319,-55.607 L 188.81,-55.6875 L 188.313,-55.8208 L 187.832,-56.0054 L 187.373,-56.2392 L 186.941,-56.5196
 L 186.541,-56.8437 L 186.177,-57.2079 L 185.853,-57.6081 L 185.572,-58.04 L 185.339,-58.4989 L 185.154,-58.9796
 L 185.021,-59.4771 L 184.94,-59.9857 L 184.913,-60.5 L 184.94,-61.0143 L 185.021,-61.5229 L 185.154,-62.0204
 L 185.339,-62.5011 L 185.572,-62.96 L 185.853,-63.3919 L 186.177,-63.7921 L 186.541,-64.1563 L 186.941,-64.4804
 L 187.283,-64.7024 L 187.283,-74 L 187.339,-74.5302 L 187.504,-75.0372 L 187.77,-75.4988 L 188.127,-75.895
 L 188.558,-76.2084 L 189.045,-76.4252 L 189.567,-76.536 L 190.1,-76.536 L 190.621,-76.4252 L 191.108,-76.2084
 L 191.54,-75.895 L 191.896,-75.4988 L 192.163,-75.0372 L 192.328,-74.5302 L 192.383,-74 L 192.383,-64.7024
 L 192.725,-64.4804 L 193.125,-64.1563 L 193.49,-63.7921 L 193.814,-63.3919 L 194.094,-62.96 L 194.328,-62.5011
 L 194.513,-62.0204 L 194.646,-61.5229 L 194.726,-61.0143 L 194.753,-60.5 L 194.726,-59.9857 L 194.646,-59.4771
 L 194.513,-58.9796 L 194.328,-58.4989 L 194.094,-58.04 L 193.814,-57.6081 L 193.49,-57.2079 L 193.125,-56.8437
 L 192.725,-56.5196 L 192.293,-56.2392 L 191.834,-56.0054 L 191.354,-55.8208 L 190.856,-55.6875 L 190.348,-55.607
 L 189.833,-55.58 z
M 1113.43,-20.8565 L 1112.65,-21.1637 L 1111.95,-21.6258 L 1111.37,-22.2227 L 1110.92,-22.9283 L 1110.63,-23.7119
 L 1110.5,-24.7102 L 1110.5,-58 L 1110.59,-58.8316 L 1110.85,-59.627 L 1111.26,-60.3511 L 1111.82,-60.9726
 L 1112.5,-61.4641 L 1113.26,-61.8042 L 1114.5,-62 L 1203.76,-62 L 1204.59,-61.9126 L 1205.39,-61.6542
 L 1206.11,-61.2361 L 1206.73,-60.6765 L 1207.23,-60 L 1207.57,-59.2361 L 1207.74,-58.4181 L 1207.74,-57.5819
 L 1207.57,-56.7639 L 1207.23,-56 L 1206.73,-55.3235 L 1206.11,-54.7639 L 1205.16,-54.2522 L 1115.9,-20.9623
 L 1115.09,-20.7536 L 1114.25,-20.7178 z
M 931.095,-20.8565 L 930.317,-21.1637 L 929.62,-21.6258 L 929.034,-22.2227 L 928.585,-22.9283 L 928.293,-23.7119
 L 928.167,-24.7102 L 928.167,-58 L 928.254,-58.8316 L 928.512,-59.627 L 928.931,-60.3511 L 929.49,-60.9726
 L 930.167,-61.4641 L 930.931,-61.8042 L 932.167,-62 L 1021.43,-62 L 1022.26,-61.9126 L 1023.06,-61.6542
 L 1023.78,-61.2361 L 1024.4,-60.6765 L 1024.89,-60 L 1025.23,-59.2361 L 1025.41,-58.4181 L 1025.41,-57.5819
 L 1025.23,-56.7639 L 1024.89,-56 L 1024.4,-55.3235 L 1023.78,-54.7639 L 1022.83,-54.2522 L 933.564,-20.9623
 L 932.755,-20.7536 L 931.919,-20.7178 z
M 827.412,-47.7728 L 826.602,-47.9815 L 809.788,-54.2522 L 808.835,-54.7639 L 808.213,-55.3235 L 807.722,-56
 L 807.382,-56.7639 L 807.208,-57.5819 L 807.208,-58.4181 L 807.382,-59.2361 L 807.722,-60 L 808.213,-60.6765
 L 808.835,-61.2361 L 809.559,-61.6542 L 810.354,-61.9126 L 811.186,-62 L 844.814,-62 L 845.886,-61.8536
 L 846.664,-61.5465 L 847.361,-61.0844 L 847.947,-60.4875 L 848.395,-59.7818 L 848.687,-58.9983 L 848.81,-58.1712
 L 848.759,-57.3365 L 848.534,-56.5309 L 848.148,-55.7895 L 847.615,-55.1447 L 846.96,-54.6247 L 846.212,-54.2522
 L 829.398,-47.9815 L 828.247,-47.737 z
M 723.245,-20.7536 L 722.436,-20.9623 L 633.173,-54.2522 L 632.22,-54.7639 L 631.598,-55.3235 L 631.107,-56
 L 630.767,-56.7639 L 630.593,-57.5819 L 630.593,-58.4181 L 630.767,-59.2361 L 631.107,-60 L 631.598,-60.6765
 L 632.22,-61.2361 L 632.944,-61.6542 L 633.739,-61.9126 L 634.571,-62 L 723.833,-62 L 725.069,-61.8042
 L 725.833,-61.4641 L 726.51,-60.9726 L 727.069,-60.3511 L 727.488,-59.627 L 727.746,-58.8316 L 727.833,-58
 L 727.833,-24.7102 L 727.707,-23.7119 L 727.415,-22.9283 L 726.966,-22.2227 L 726.38,-21.6258 L 725.683,-21.1637
 L 724.905,-20.8565 L 724.081,-20.7178 z
M 540.912,-20.7536 L 540.102,-20.9623 L 450.84,-54.2522 L 449.886,-54.7639 L 449.265,-55.3235 L 448.773,-56
 L 448.433,-56.7639 L 448.259,-57.5819 L 448.259,-58.4181 L 448.433,-59.2361 L 448.773,-60 L 449.265,-60.6765
 L 449.886,-61.2361 L 450.611,-61.6542 L 451.406,-61.9126 L 452.238,-62 L 541.5,-62 L 542.736,-61.8042
 L 543.5,-61.4641 L 544.177,-60.9726 L 544.736,-60.3511 L 545.154,-59.627 L 545.413,-58.8316 L 545.5,-58
 L 545.5,-24.7102 L 545.373,-23.7119 L 545.081,-22.9283 L 544.632,-22.2227 L 544.047,-21.6258 L 543.35,-21.1637
 L 542.572,-20.8565 L 541.747,-20.7178 z
M 358.579,-20.7536 L 357.769,-20.9623 L 268.507,-54.2522 L 267.553,-54.7639 L 266.932,-55.3235 L 266.44,-56
 L 266.1,-56.7639 L 265.926,-57.5819 L 265.926,-58.4181 L 266.1,-59.2361 L 266.44,-60 L 266.932,-60.6765
 L 267.553,-61.2361 L 268.277,-61.6542 L 269.073,-61.9126 L 269.904,-62 L 359.167,-62 L 360.403,-61.8042
 L 361.167,-61.4641 L 361.843,-60.9726 L 362.403,-60.3511 L 362.821,-59.627 L 363.079,-58.8316 L 363.167,-58
 L 363.167,-24.7102 L 363.04,-23.7119 L 362.748,-22.9283 L 362.299,-22.2227 L 361.714,-21.6258 L 361.017,-21.1637
 L 360.239,-20.8565 L 359.414,-20.7178 z
M 1478.09,-20.8565 L 1477.32,-21.1637 L 1476.62,-21.6258 L 1476.03,-22.2227 L 1475.59,-22.9283 L 1475.29,-23.7119
 L 1475.17,-24.7102 L 1475.17,-58 L 1475.25,-58.8316 L 1475.51,-59.627 L 1475.93,-60.3511 L 1476.49,-60.9726
 L 1477.17,-61.4641 L 1477.93,-61.8042 L 1479.17,-62 L 1568.43,-62 L 1569.26,-61.9126 L 1570.06,-61.6542
 L 1570.78,-61.2361 L 1571.4,-60.6765 L 1571.89,-60 L 1572.23,-59.2361 L 1572.41,-58.4181 L 1572.41,-57.5819
 L 1572.23,-56.7639 L 1571.89,-56 L 1571.4,-55.3235 L 1570.78,-54.7639 L 1569.83,-54.2522 L 1480.56,-20.9623
 L 1479.75,-20.7536 L 1478.92,-20.7178 z
M 176.245,-20.7536 L 175.436,-20.9623 L 86.1732,-54.2522 L 85.2198,-54.7639 L 84.5983,-55.3235 L 84.1068,-56
 L 83.7667,-56.7639 L 83.5928,-57.5819 L 83.5928,-58.4181 L 83.7667,-59.2361 L 84.1068,-60 L 84.5983,-60.6765
 L 85.2198,-61.2361 L 85.944,-61.6542 L 86.7393,-61.9126 L 87.5709,-62 L 176.833,-62 L 178.069,-61.8042
 L 178.833,-61.4641 L 179.51,-60.9726 L 180.069,-60.3511 L 180.488,-59.627 L 180.746,-58.8316 L 180.833,-58
 L 180.833,-24.7102 L 180.707,-23.7119 L 180.415,-22.9283 L 179.966,-22.2227 L 179.38,-21.6258 L 178.683,-21.1637
 L 177.905,-20.8565 L 177.081,-20.7178 z
M 1295.76,-20.8565 L 1294.98,-21.1637 L 1294.29,-21.6258 L 1293.7,-22.2227 L 1293.25,-22.9283 L 1292.96,-23.7119
 L 1292.83,-24.7102 L 1292.83,-58 L 1292.92,-58.8316 L 1293.18,-59.627 L 1293.6,-60.3511 L 1294.16,-60.9726
 L 1294.83,-61.4641 L 1295.6,-61.8042 L 1296.83,-62 L 1386.1,-62 L 1386.93,-61.9126 L 1387.72,-61.6542
 L 1388.45,-61.2361 L 1389.07,-60.6765 L 1389.56,-60 L 1389.9,-59.2361 L 1390.07,-58.4181 L 1390.07,-57.5819
 L 1389.9,-56.7639 L 1389.56,-56 L 1389.07,-55.3235 L 1388.45,-54.7639 L 1387.49,-54.2522 L 1298.23,-20.9623
 L 1297.42,-20.7536 L 1296.59,-20.7178 z
M 749.415,-18.5995 L 748.597,-18.7734 L 747.833,-19.1135 L 747.157,-19.605 L 746.597,-20.2265 L 746.179,-20.9506
 L 745.921,-21.7459 L 745.833,-22.5776 L 745.833,-57.4224 L 745.96,-58.4207 L 746.252,-59.2042 L 746.701,-59.9099
 L 747.286,-60.5068 L 747.983,-60.9689 L 748.761,-61.276 L 749.586,-61.4147 L 750.421,-61.379 L 751.231,-61.1703
 L 797.947,-43.7478 L 798.399,-43.5465 L 799.096,-43.0844 L 799.682,-42.4875 L 800.131,-41.7818 L 800.423,-40.9983
 L 800.546,-40.1712 L 800.494,-39.3365 L 800.27,-38.5309 L 799.883,-37.7895 L 799.351,-37.1447 L 798.696,-36.6247
 L 797.947,-36.2522 L 751.231,-18.8297 L 750.251,-18.5995 z
M 905.579,-18.621 L 904.769,-18.8297 L 858.053,-36.2522 L 857.601,-36.4535 L 856.904,-36.9156 L 856.318,-37.5125
 L 855.869,-38.2182 L 855.577,-39.0017 L 855.454,-39.8288 L 855.506,-40.6635 L 855.73,-41.4691 L 856.117,-42.2105
 L 856.649,-42.8553 L 857.304,-43.3753 L 858.053,-43.7478 L 904.769,-61.1703 L 905.749,-61.4005 L 906.585,-61.4005
 L 907.403,-61.2267 L 908.167,-60.8865 L 908.843,-60.395 L 909.403,-59.7736 L 909.821,-59.0494 L 910.079,-58.2541
 L 910.167,-57.4224 L 910.167,-22.5776 L 910.04,-21.5793 L 909.748,-20.7957 L 909.299,-20.0901 L 908.714,-19.4932
 L 908.017,-19.0311 L 907.239,-18.7239 L 906.414,-18.5852 z
M 202.833,-18 L 201.597,-18.1958 L 200.833,-18.5359 L 200.157,-19.0274 L 199.597,-19.6489 L 199.179,-20.373
 L 198.921,-21.1684 L 198.833,-22 L 198.833,-55.2898 L 198.96,-56.2881 L 199.252,-57.0716 L 199.701,-57.7773
 L 200.286,-58.3742 L 200.983,-58.8363 L 201.761,-59.1434 L 202.586,-59.2822 L 203.421,-59.2464 L 204.231,-59.0377
 L 293.493,-25.7478 L 294.447,-25.2361 L 295.068,-24.6765 L 295.56,-24 L 295.9,-23.2361 L 296.074,-22.4181
 L 296.074,-21.5819 L 295.9,-20.7639 L 295.56,-20 L 295.068,-19.3235 L 294.447,-18.7639 L 293.723,-18.3458
 L 292.927,-18.0874 L 292.096,-18 z
M 385.167,-18 L 383.931,-18.1958 L 383.167,-18.5359 L 382.49,-19.0274 L 381.931,-19.6489 L 381.512,-20.373
 L 381.254,-21.1684 L 381.167,-22 L 381.167,-55.2898 L 381.293,-56.2881 L 381.585,-57.0716 L 382.034,-57.7773
 L 382.62,-58.3742 L 383.317,-58.8363 L 384.095,-59.1434 L 384.919,-59.2822 L 385.755,-59.2464 L 386.564,-59.0377
 L 475.827,-25.7478 L 476.78,-25.2361 L 477.402,-24.6765 L 477.893,-24 L 478.233,-23.2361 L 478.407,-22.4181
 L 478.407,-21.5819 L 478.233,-20.7639 L 477.893,-20 L 477.402,-19.3235 L 476.78,-18.7639 L 476.056,-18.3458
 L 475.261,-18.0874 L 474.429,-18 z
M 567.5,-18 L 566.264,-18.1958 L 565.5,-18.5359 L 564.823,-19.0274 L 564.264,-19.6489 L 563.846,-20.373
 L 563.587,-21.1684 L 563.5,-22 L 563.5,-55.2898 L 563.627,-56.2881 L 563.919,-57.0716 L 564.368,-57.7773
 L 564.953,-58.3742 L 565.65,-58.8363 L 566.428,-59.1434 L 567.253,-59.2822 L 568.088,-59.2464 L 568.898,-59.0377
 L 658.16,-25.7478 L 659.114,-25.2361 L 659.735,-24.6765 L 660.226,-24 L 660.567,-23.2361 L 660.74,-22.4181
 L 660.74,-21.5819 L 660.567,-20.7639 L 660.226,-20 L 659.735,-19.3235 L 659.114,-18.7639 L 658.389,-18.3458
 L 657.594,-18.0874 L 656.762,-18 z
M 999.238,-18 L 998.406,-18.0874 L 997.611,-18.3458 L 996.886,-18.7639 L 996.265,-19.3235 L 995.774,-20
 L 995.433,-20.7639 L 995.26,-21.5819 L 995.26,-22.4181 L 995.433,-23.2361 L 995.774,-24 L 996.265,-24.6765
 L 996.886,-25.2361 L 997.84,-25.7478 L 1087.1,-59.0377 L 1087.91,-59.2464 L 1088.75,-59.2822 L 1089.57,-59.1434
 L 1090.35,-58.8363 L 1091.05,-58.3742 L 1091.63,-57.7773 L 1092.08,-57.0716 L 1092.37,-56.2881 L 1092.5,-55.2898
 L 1092.5,-22 L 1092.41,-21.1684 L 1092.15,-20.373 L 1091.74,-19.6489 L 1091.18,-19.0274 L 1090.5,-18.5359
 L 1089.74,-18.1958 L 1088.5,-18 z
M 1181.57,-18 L 1180.74,-18.0874 L 1179.94,-18.3458 L 1179.22,-18.7639 L 1178.6,-19.3235 L 1178.11,-20
 L 1177.77,-20.7639 L 1177.59,-21.5819 L 1177.59,-22.4181 L 1177.77,-23.2361 L 1178.11,-24 L 1178.6,-24.6765
 L 1179.22,-25.2361 L 1180.17,-25.7478 L 1269.44,-59.0377 L 1270.25,-59.2464 L 1271.08,-59.2822 L 1271.91,-59.1434
 L 1272.68,-58.8363 L 1273.38,-58.3742 L 1273.97,-57.7773 L 1274.41,-57.0716 L 1274.71,-56.2881 L 1274.83,-55.2898
 L 1274.83,-22 L 1274.75,-21.1684 L 1274.49,-20.373 L 1274.07,-19.6489 L 1273.51,-19.0274 L 1272.83,-18.5359
 L 1272.07,-18.1958 L 1270.83,-18 z
M 1363.9,-18 L 1363.07,-18.0874 L 1362.28,-18.3458 L 1361.55,-18.7639 L 1360.93,-19.3235 L 1360.44,-20
 L 1360.1,-20.7639 L 1359.93,-21.5819 L 1359.93,-22.4181 L 1360.1,-23.2361 L 1360.44,-24 L 1360.93,-24.6765
 L 1361.55,-25.2361 L 1362.51,-25.7478 L 1451.77,-59.0377 L 1452.58,-59.2464 L 1453.41,-59.2822 L 1454.24,-59.1434
 L 1455.02,-58.8363 L 1455.71,-58.3742 L 1456.3,-57.7773 L 1456.75,-57.0716 L 1457.04,-56.2881 L 1457.17,-55.2898
 L 1457.17,-22 L 1457.08,-21.1684 L 1456.82,-20.373 L 1456.4,-19.6489 L 1455.84,-19.0274 L 1455.17,-18.5359
 L 1454.4,-18.1958 L 1453.17,-18 z
M 22,-18 L 20.7639,-18.1958 L 20,-18.5359 L 19.3235,-19.0274 L 18.7639,-19.6489 L 18.3458,-20.373
 L 18.0874,-21.1684 L 18,-22 L 18,-54.7304 L 18.1266,-55.7287 L 18.4188,-56.5122 L 18.8675,-57.2179
 L 19.4531,-57.8148 L 20.1501,-58.2769 L 20.9279,-58.584 L 21.7525,-58.7227 L 22.588,-58.6869 L 23.3977,-58.4782
 L 111.16,-25.7478 L 112.114,-25.2361 L 112.735,-24.6765 L 113.226,-24 L 113.567,-23.2361 L 113.74,-22.4181
 L 113.74,-21.5819 L 113.567,-20.7639 L 113.226,-20 L 112.735,-19.3235 L 112.114,-18.7639 L 111.389,-18.3458
 L 110.594,-18.0874 L 109.762,-18 z
M 1546.24,-18 L 1545.41,-18.0874 L 1544.61,-18.3458 L 1543.89,-18.7639 L 1543.27,-19.3235 L 1542.77,-20
 L 1542.43,-20.7639 L 1542.26,-21.5819 L 1542.26,-22.4181 L 1542.43,-23.2361 L 1542.77,-24 L 1543.27,-24.6765
 L 1543.89,-25.2361 L 1544.84,-25.7478 L 1632.6,-58.4782 L 1633.41,-58.6869 L 1634.25,-58.7227 L 1635.07,-58.584
 L 1635.85,-58.2769 L 1636.55,-57.8148 L 1637.13,-57.2179 L 1637.58,-56.5122 L 1637.87,-55.7287 L 1638,-54.7304
 L 1638,-22 L 1637.91,-21.1684 L 1637.65,-20.373 L 1637.24,-19.6489 L 1636.68,-19.0274 L 1636,-18.5359
 L 1635.24,-18.1958 L 1634,-18 z
M 811.186,-18 L 810.114,-18.1464 L 809.336,-18.4535 L 808.639,-18.9156 L 808.053,-19.5125 L 807.605,-20.2182
 L 807.313,-21.0017 L 807.19,-21.8288 L 807.241,-22.6635 L 807.465,-23.4691 L 807.852,-24.2105 L 808.385,-24.8553
 L 809.04,-25.3753 L 809.788,-25.7478 L 826.602,-32.0185 L 827.752,-32.263 L 828.588,-32.2272 L 829.398,-32.0185
 L 846.212,-25.7478 L 847.165,-25.2361 L 847.787,-24.6765 L 848.278,-24 L 848.618,-23.2361 L 848.792,-22.4181
 L 848.792,-21.5819 L 848.618,-20.7639 L 848.278,-20 L 847.787,-19.3235 L 847.165,-18.7639 L 846.441,-18.3458
 L 845.646,-18.0874 L 844.814,-18 z
" stroke="black" fill="lightgray" stroke-width="0.5"/>
</svg>
