<?xml version="1.0" standalone="no"?>
<!DOCTYPE svg PUBLIC "-//W3C//DTD SVG 1.1//EN" "http://www.w3.org/Graphics/SVG/1.1/DTD/svg11.dtd">
<svg width="1442mm" height="80mm" viewBox="0 -80 1442 80" xmlns="http://www.w3.org/2000/svg" version="1.1">
<title>OpenSCAD Model</title>
<path d="
M 1442,-80 L 0,-80 L 0,-0 L 4.95,-0 L 4.95,-6 L 5.00572,-6.53017
 L 5.17046,-7.03717 L 5.437,-7.49884 L 5.79372,-7.895 L 6.22499,-8.20836 L 6.71201,-8.42519 L 7.23344,-8.53603
 L 7.76654,-8.53603 L 8.28798,-8.42519 L 8.77499,-8.20836 L 9.20627,-7.895 L 9.56299,-7.49884 L 9.82953,-7.03717
 L 9.99426,-6.53017 L 10.05,-6 L 10.05,-0 L 183.325,-0 L 183.325,-6 L 183.381,-6.53017
 L 183.545,-7.03717 L 183.812,-7.49884 L 184.169,-7.895 L 184.6,-8.20836 L 185.087,-8.42519 L 185.608,-8.53603
 L 186.142,-8.53603 L 186.663,-8.42519 L 187.15,-8.20836 L 187.581,-7.895 L 187.938,-7.49884 L 188.205,-7.03717
 L 188.369,-6.53017 L 188.425,-6 L 188.425,-0 L 361.7,-0 L 361.7,-6 L 361.756,-6.53017
 L 361.92,-7.03717 L 362.187,-7.49884 L 362.544,-7.895 L 362.975,-8.20836 L 363.462,-8.42519 L 363.983,-8.53603
 L 364.517,-8.53603 L 365.038,-8.42519 L 365.525,-8.20836 L 365.956,-7.895 L 366.313,-7.49884 L 366.58,-7.03717
 L 366.744,-6.53017 L 366.8,-6 L 366.8,-0 L 540.075,-0 L 540.075,-6 L 540.131,-6.53017
 L 540.295,-7.03717 L 540.562,-7.49884 L 540.919,-7.895 L 541.35,-8.20836 L 541.837,-8.42519 L 542.358,-8.53603
 L 542.892,-8.53603 L 543.413,-8.42519 L 543.9,-8.20836 L 544.331,-7.895 L 544.688,-7.49884 L 544.955,-7.03717
 L 545.119,-6.53017 L 545.175,-6 L 545.175,-0 L 718.45,-0 L 718.45,-6 L 718.506,-6.53017
 L 718.67,-7.03717 L 718.937,-7.49884 L 719.294,-7.895 L 719.725,-8.20836 L 720.212,-8.42519 L 720.733,-8.53603
 L 721.267,-8.53603 L 721.788,-8.42519 L 722.275,-8.20836 L 722.706,-7.895 L 723.063,-7.49884 L 723.33,-7.03717
 L 723.494,-6.53017 L 723.55,-6 L 723.55,-0 L 896.825,-0 L 896.825,-6 L 896.881,-6.53017
 L 897.045,-7.03717 L 897.312,-7.49884 L 897.669,-7.895 L 898.1,-8.20836 L 898.587,-8.42519 L 899.108,-8.53603
 L 899.642,-8.53603 L 900.163,-8.42519 L 900.65,-8.20836 L 901.081,-7.895 L 901.438,-7.49884 L 901.705,-7.03717
 L 901.869,-6.53017 L 901.925,-6 L 901.925,-0 L 1075.2,-0 L 1075.2,-6 L 1075.26,-6.53017
 L 1075.42,-7.03717 L 1075.69,-7.49884 L 1076.04,-7.895 L 1076.47,-8.20836 L 1076.96,-8.42519 L 1077.48,-8.53603
 L 1078.02,-8.53603 L 1078.54,-8.42519 L 1079.02,-8.20836 L 1079.46,-7.895 L 1079.81,-7.49884 L 1080.08,-7.03717
 L 1080.24,-6.53017 L 1080.3,-6 L 1080.3,-0 L 1253.57,-0 L 1253.57,-6 L 1253.63,-6.53017
 L 1253.8,-7.03717 L 1254.06,-7.49884 L 1254.42,-7.895 L 1254.85,-8.20836 L 1255.34,-8.42519 L 1255.86,-8.53603
 L 1256.39,-8.53603 L 1256.91,-8.42519 L 1257.4,-8.20836 L 1257.83,-7.895 L 1258.19,-7.49884 L 1258.45,-7.03717
 L 1258.62,-6.53017 L 1258.67,-6 L 1258.67,-0 L 1431.95,-0 L 1431.95,-6 L 1432.01,-6.53017
 L 1432.17,-7.03717 L 1432.44,-7.49884 L 1432.79,-7.895 L 1433.22,-8.20836 L 1433.71,-8.42519 L 1434.23,-8.53603
 L 1434.77,-8.53603 L 1435.29,-8.42519 L 1435.77,-8.20836 L 1436.21,-7.895 L 1436.56,-7.49884 L 1436.83,-7.03717
 L 1436.99,-6.53017 L 1437.05,-6 L 1437.05,-0 L 1442,-0 z
M 185.361,-55.607 L 184.852,-55.6875 L 184.355,-55.8208 L 183.874,-56.0054 L 183.415,-56.2392 L 182.983,-56.5196
 L 182.583,-56.8437 L 182.219,-57.2079 L 181.895,-57.6081 L 181.614,-58.04 L 181.38,-58.4989 L 181.196,-58.9796
 L 181.063,-59.4771 L 180.982,-59.9857 L 180.955,-60.5 L 180.982,-61.0143 L 181.063,-61.5229 L 181.196,-62.0204
 L 181.38,-62.5011 L 181.614,-62.96 L 181.895,-63.3919 L 182.219,-63.7921 L 182.583,-64.1563 L 182.983,-64.4804
 L 183.325,-64.7024 L 183.325,-74 L 183.381,-74.5302 L 183.545,-75.0372 L 183.812,-75.4988 L 184.169,-75.895
 L 184.6,-76.2084 L 185.087,-76.4252 L 185.608,-76.536 L 186.142,-76.536 L 186.663,-76.4252 L 187.15,-76.2084
 L 187.581,-75.895 L 187.938,-75.4988 L 188.205,-75.0372 L 188.369,-74.5302 L 188.425,-74 L 188.425,-64.7024
 L 188.767,-64.4804 L 189.167,-64.1563 L 189.531,-63.7921 L 189.855,-63.3919 L 190.136,-62.96 L 190.37,-62.5011
 L 190.554,-62.0204 L 190.687,-61.5229 L 190.768,-61.0143 L 190.795,-60.5 L 190.768,-59.9857 L 190.687,-59.4771
 L 190.554,-58.9796 L 190.37,-58.4989 L 190.136,-58.04 L 189.855,-57.6081 L 189.531,-57.2079 L 189.167,-56.8437
 L 188.767,-56.5196 L 188.335,-56.2392 L 187.876,-56.0054 L 187.395,-55.8208 L 186.898,-55.6875 L 186.389,-55.607
 L 185.875,-55.58 z
M 1077.24,-55.607 L 1076.73,-55.6875 L 1076.23,-55.8208 L 1075.75,-56.0054 L 1075.29,-56.2392 L 1074.86,-56.5196
 L 1074.46,-56.8437 L 1074.09,-57.2079 L 1073.77,-57.6081 L 1073.49,-58.04 L 1073.26,-58.4989 L 1073.07,-58.9796
 L 1072.94,-59.4771 L 1072.86,-59.9857 L 1072.83,-60.5 L 1072.86,-61.0143 L 1072.94,-61.5229 L 1073.07,-62.0204
 L 1073.26,-62.5011 L 1073.49,-62.96 L 1073.77,-63.3919 L 1074.09,-63.7921 L 1074.46,-64.1563 L 1074.86,-64.4804
 L 1075.2,-64.7024 L 1075.2,-74 L 1075.26,-74.5302 L 1075.42,-75.0372 L 1075.69,-75.4988 L 1076.04,-75.895
 L 1076.48,-76.2084 L 1076.96,-76.4252 L 1077.48,-76.536 L 1078.02,-76.536 L 1078.54,-76.4252 L 1079.02,-76.2084
 L 1079.46,-75.895 L 1079.81,-75.4988 L 1080.08,-75.0372 L 1080.24,-74.5302 L 1080.3,-74 L 1080.3,-64.7024
 L 1080.64,-64.4804 L 1081.04,-64.1563 L 1081.41,-63.7921 L 1081.73,-63.3919 L 1082.01,-62.96 L 1082.24,-62.5011
 L 1082.43,-62.0204 L 1082.56,-61.5229 L 1082.64,-61.0143 L 1082.67,-60.5 L 1082.64,-59.9857 L 1082.56,-59.4771
 L 1082.43,-58.9796 L 1082.24,-58.4989 L 1082.01,-58.04 L 1081.73,-57.6081 L 1081.41,-57.2079 L 1081.04,-56.8437
 L 1080.64,-56.5196 L 1080.21,-56.2392 L 1079.75,-56.0054 L 1079.27,-55.8208 L 1078.77,-55.6875 L 1078.26,-55.607
 L 1077.75,-55.58 z
M 898.861,-55.607 L 898.352,-55.6875 L 897.855,-55.8208 L 897.374,-56.0054 L 896.915,-56.2392 L 896.483,-56.5196
 L 896.083,-56.8437 L 895.719,-57.2079 L 895.395,-57.6081 L 895.114,-58.04 L 894.88,-58.4989 L 894.696,-58.9796
 L 894.563,-59.4771 L 894.482,-59.9857 L 894.455,-60.5 L 894.482,-61.0143 L 894.563,-61.5229 L 894.696,-62.0204
 L 894.88,-62.5011 L 895.114,-62.96 L 895.395,-63.3919 L 895.719,-63.7921 L 896.083,-64.1563 L 896.483,-64.4804
 L 896.825,-64.7024 L 896.825,-74 L 896.881,-74.5302 L 897.045,-75.0372 L 897.312,-75.4988 L 897.669,-75.895
 L 898.1,-76.2084 L 898.587,-76.4252 L 899.108,-76.536 L 899.642,-76.536 L 900.163,-76.4252 L 900.65,-76.2084
 L 901.081,-75.895 L 901.438,-75.4988 L 901.705,-75.0372 L 901.869,-74.5302 L 901.925,-74 L 901.925,-64.7024
 L 902.267,-64.4804 L 902.667,-64.1563 L 903.031,-63.7921 L 903.355,-63.3919 L 903.636,-62.96 L 903.87,-62.5011
 L 904.054,-62.0204 L 904.187,-61.5229 L 904.268,-61.0143 L 904.295,-60.5 L 904.268,-59.9857 L 904.187,-59.4771
 L 904.054,-58.9796 L 903.87,-58.4989 L 903.636,-58.04 L 903.355,-57.6081 L 903.031,-57.2079 L 902.667,-56.8437
 L 902.267,-56.5196 L 901.835,-56.2392 L 901.376,-56.0054 L 900.895,-55.8208 L 900.398,-55.6875 L 899.889,-55.607
 L 899.375,-55.58 z
M 6.98573,-55.607 L 6.47708,-55.6875 L 5.97964,-55.8208 L 5.49887,-56.0054 L 5.04001,-56.2392 L 4.60811,-56.5196
 L 4.20789,-56.8437 L 3.84373,-57.2079 L 3.51964,-57.6081 L 3.23917,-58.04 L 3.00537,-58.4989 L 2.82082,-58.9796
 L 2.68752,-59.4771 L 2.60696,-59.9857 L 2.58,-60.5 L 2.60696,-61.0143 L 2.68752,-61.5229 L 2.82082,-62.0204
 L 3.00537,-62.5011 L 3.23917,-62.96 L 3.51964,-63.3919 L 3.84373,-63.7921 L 4.20789,-64.1563 L 4.60811,-64.4804
 L 4.95001,-64.7024 L 4.95001,-74 L 5.00574,-74.5302 L 5.17047,-75.0372 L 5.43701,-75.4988 L 5.79373,-75.895
 L 6.22501,-76.2084 L 6.71202,-76.4252 L 7.23346,-76.536 L 7.76654,-76.536 L 8.28798,-76.4252 L 8.77499,-76.2084
 L 9.20627,-75.895 L 9.56299,-75.4988 L 9.82953,-75.0372 L 9.99426,-74.5302 L 10.05,-74 L 10.05,-64.7024
 L 10.3919,-64.4804 L 10.7921,-64.1563 L 11.1563,-63.7921 L 11.4804,-63.3919 L 11.7608,-62.96 L 11.9946,-62.5011
 L 12.1792,-62.0204 L 12.3125,-61.5229 L 12.393,-61.0143 L 12.42,-60.5 L 12.393,-59.9857 L 12.3125,-59.4771
 L 12.1792,-58.9796 L 11.9946,-58.4989 L 11.7608,-58.04 L 11.4804,-57.6081 L 11.1563,-57.2079 L 10.7921,-56.8437
 L 10.3919,-56.5196 L 9.95999,-56.2392 L 9.50113,-56.0054 L 9.02036,-55.8208 L 8.52292,-55.6875 L 8.01427,-55.607
 L 7.5,-55.58 z
M 720.486,-55.607 L 719.977,-55.6875 L 719.48,-55.8208 L 718.999,-56.0054 L 718.54,-56.2392 L 718.108,-56.5196
 L 717.708,-56.8437 L 717.344,-57.2079 L 717.02,-57.6081 L 716.739,-58.04 L 716.505,-58.4989 L 716.321,-58.9796
 L 716.188,-59.4771 L 716.107,-59.9857 L 716.08,-60.5 L 716.107,-61.0143 L 716.188,-61.5229 L 716.321,-62.0204
 L 716.505,-62.5011 L 716.739,-62.96 L 717.02,-63.3919 L 717.344,-63.7921 L 717.708,-64.1563 L 718.108,-64.4804
 L 718.45,-64.7024 L 718.45,-74 L 718.506,-74.5302 L 718.67,-75.0372 L 718.937,-75.4988 L 719.294,-75.895
 L 719.725,-76.2084 L 720.212,-76.4252 L 720.733,-76.536 L 721.267,-76.536 L 721.788,-76.4252 L 722.275,-76.2084
 L 722.706,-75.895 L 723.063,-75.4988 L 723.33,-75.0372 L 723.494,-74.5302 L 723.55,-74 L 723.55,-64.7024
 L 723.892,-64.4804 L 724.292,-64.1563 L 724.656,-63.7921 L 724.98,-63.3919 L 725.261,-62.96 L 725.495,-62.5011
 L 725.679,-62.0204 L 725.812,-61.5229 L 725.893,-61.0143 L 725.92,-60.5 L 725.893,-59.9857 L 725.812,-59.4771
 L 725.679,-58.9796 L 725.495,-58.4989 L 725.261,-58.04 L 724.98,-57.6081 L 724.656,-57.2079 L 724.292,-56.8437
 L 723.892,-56.5196 L 723.46,-56.2392 L 723.001,-56.0054 L 722.52,-55.8208 L 722.023,-55.6875 L 721.514,-55.607
 L 721,-55.58 z
M 1255.61,-55.607 L 1255.1,-55.6875 L 1254.6,-55.8208 L 1254.12,-56.0054 L 1253.67,-56.2392 L 1253.23,-56.5196
 L 1252.83,-56.8437 L 1252.47,-57.2079 L 1252.14,-57.6081 L 1251.86,-58.04 L 1251.63,-58.4989 L 1251.45,-58.9796
 L 1251.31,-59.4771 L 1251.23,-59.9857 L 1251.21,-60.5 L 1251.23,-61.0143 L 1251.31,-61.5229 L 1251.45,-62.0204
 L 1251.63,-62.5011 L 1251.86,-62.96 L 1252.14,-63.3919 L 1252.47,-63.7921 L 1252.83,-64.1563 L 1253.23,-64.4804
 L 1253.58,-64.7024 L 1253.58,-74 L 1253.63,-74.5302 L 1253.8,-75.0372 L 1254.06,-75.4988 L 1254.42,-75.895
 L 1254.85,-76.2084 L 1255.34,-76.4252 L 1255.86,-76.536 L 1256.39,-76.536 L 1256.91,-76.4252 L 1257.4,-76.2084
 L 1257.83,-75.895 L 1258.19,-75.4988 L 1258.45,-75.0372 L 1258.62,-74.5302 L 1258.67,-74 L 1258.67,-64.7024
 L 1259.02,-64.4804 L 1259.42,-64.1563 L 1259.78,-63.7921 L 1260.11,-63.3919 L 1260.39,-62.96 L 1260.62,-62.5011
 L 1260.8,-62.0204 L 1260.94,-61.5229 L 1261.02,-61.0143 L 1261.04,-60.5 L 1261.02,-59.9857 L 1260.94,-59.4771
 L 1260.8,-58.9796 L 1260.62,-58.4989 L 1260.39,-58.04 L 1260.11,-57.6081 L 1259.78,-57.2079 L 1259.42,-56.8437
 L 1259.02,-56.5196 L 1258.58,-56.2392 L 1258.13,-56.0054 L 1257.65,-55.8208 L 1257.15,-55.6875 L 1256.64,-55.607
 L 1256.12,-55.58 z
M 542.111,-55.607 L 541.602,-55.6875 L 541.105,-55.8208 L 540.624,-56.0054 L 540.165,-56.2392 L 539.733,-56.5196
 L 539.333,-56.8437 L 538.969,-57.2079 L 538.645,-57.6081 L 538.364,-58.04 L 538.13,-58.4989 L 537.946,-58.9796
 L 537.813,-59.4771 L 537.732,-59.9857 L 537.705,-60.5 L 537.732,-61.0143 L 537.813,-61.5229 L 537.946,-62.0204
 L 538.13,-62.5011 L 538.364,-62.96 L 538.645,-63.3919 L 538.969,-63.7921 L 539.333,-64.1563 L 539.733,-64.4804
 L 540.075,-64.7024 L 540.075,-74 L 540.131,-74.5302 L 540.295,-75.0372 L 540.562,-75.4988 L 540.919,-75.895
 L 541.35,-76.2084 L 541.837,-76.4252 L 542.358,-76.536 L 542.892,-76.536 L 543.413,-76.4252 L 543.9,-76.2084
 L 544.331,-75.895 L 544.688,-75.4988 L 544.955,-75.0372 L 545.119,-74.5302 L 545.175,-74 L 545.175,-64.7024
 L 545.517,-64.4804 L 545.917,-64.1563 L 546.281,-63.7921 L 546.605,-63.3919 L 546.886,-62.96 L 547.12,-62.5011
 L 547.304,-62.0204 L 547.437,-61.5229 L 547.518,-61.0143 L 547.545,-60.5 L 547.518,-59.9857 L 547.437,-59.4771
 L 547.304,-58.9796 L 547.12,-58.4989 L 546.886,-58.04 L 546.605,-57.6081 L 546.281,-57.2079 L 545.917,-56.8437
 L 545.517,-56.5196 L 545.085,-56.2392 L 544.626,-56.0054 L 544.145,-55.8208 L 543.648,-55.6875 L 543.139,-55.607
 L 542.625,-55.58 z
M 363.736,-55.607 L 363.227,-55.6875 L 362.73,-55.8208 L 362.249,-56.0054 L 361.79,-56.2392 L 361.358,-56.5196
 L 360.958,-56.8437 L 360.594,-57.2079 L 360.27,-57.6081 L 359.989,-58.04 L 359.755,-58.4989 L 359.571,-58.9796
 L 359.438,-59.4771 L 359.357,-59.9857 L 359.33,-60.5 L 359.357,-61.0143 L 359.438,-61.5229 L 359.571,-62.0204
 L 359.755,-62.5011 L 359.989,-62.96 L 360.27,-63.3919 L 360.594,-63.7921 L 360.958,-64.1563 L 361.358,-64.4804
 L 361.7,-64.7024 L 361.7,-74 L 361.756,-74.5302 L 361.92,-75.0372 L 362.187,-75.4988 L 362.544,-75.895
 L 362.975,-76.2084 L 363.462,-76.4252 L 363.983,-76.536 L 364.517,-76.536 L 365.038,-76.4252 L 365.525,-76.2084
 L 365.956,-75.895 L 366.313,-75.4988 L 366.58,-75.0372 L 366.744,-74.5302 L 366.8,-74 L 366.8,-64.7024
 L 367.142,-64.4804 L 367.542,-64.1563 L 367.906,-63.7921 L 368.23,-63.3919 L 368.511,-62.96 L 368.745,-62.5011
 L 368.929,-62.0204 L 369.062,-61.5229 L 369.143,-61.0143 L 369.17,-60.5 L 369.143,-59.9857 L 369.062,-59.4771
 L 368.929,-58.9796 L 368.745,-58.4989 L 368.511,-58.04 L 368.23,-57.6081 L 367.906,-57.2079 L 367.542,-56.8437
 L 367.142,-56.5196 L 366.71,-56.2392 L 366.251,-56.0054 L 365.77,-55.8208 L 365.273,-55.6875 L 364.764,-55.607
 L 364.25,-55.58 z
M 1433.99,-55.607 L 1433.48,-55.6875 L 1432.98,-55.8208 L 1432.5,-56.0054 L 1432.04,-56.2392 L 1431.61,-56.5196
 L 1431.21,-56.8437 L 1430.84,-57.2079 L 1430.52,-57.6081 L 1430.24,-58.04 L 1430.01,-58.4989 L 1429.82,-58.9796
 L 1429.69,-59.4771 L 1429.61,-59.9857 L 1429.58,-60.5 L 1429.61,-61.0143 L 1429.69,-61.5229 L 1429.82,-62.0204
 L 1430.01,-62.5011 L 1430.24,-62.96 L 1430.52,-63.3919 L 1430.84,-63.7921 L 1431.21,-64.1563 L 1431.61,-64.4804
 L 1431.95,-64.7024 L 1431.95,-74 L 1432.01,-74.5302 L 1432.17,-75.0372 L 1432.44,-75.4988 L 1432.79,-75.895
 L 1433.23,-76.2084 L 1433.71,-76.4252 L 1434.23,-76.536 L 1434.77,-76.536 L 1435.29,-76.4252 L 1435.77,-76.2084
 L 1436.21,-75.895 L 1436.56,-75.4988 L 1436.83,-75.0372 L 1436.99,-74.5302 L 1437.05,-74 L 1437.05,-64.7024
 L 1437.39,-64.4804 L 1437.79,-64.1563 L 1438.16,-63.7921 L 1438.48,-63.3919 L 1438.76,-62.96 L 1438.99,-62.5011
 L 1439.18,-62.0204 L 1439.31,-61.5229 L 1439.39,-61.0143 L 1439.42,-60.5 L 1439.39,-59.9857 L 1439.31,-59.4771
 L 1439.18,-58.9796 L 1438.99,-58.4989 L 1438.76,-58.04 L 1438.48,-57.6081 L 1438.16,-57.2079 L 1437.79,-56.8437
 L 1437.39,-56.5196 L 1436.96,-56.2392 L 1436.5,-56.0054 L 1436.02,-55.8208 L 1435.52,-55.6875 L 1435.01,-55.607
 L 1434.5,-55.58 z
M 350.633,-20.8988 L 349.825,-21.1134 L 262.87,-54.2624 L 261.944,-54.7639 L 261.322,-55.3235 L 260.831,-56
 L 260.491,-56.7639 L 260.317,-57.5819 L 260.317,-58.4181 L 260.491,-59.2361 L 260.831,-60 L 261.322,-60.6765
 L 261.944,-61.2361 L 262.668,-61.6542 L 263.463,-61.9126 L 264.295,-62 L 351.25,-62 L 352.486,-61.8042
 L 353.25,-61.4641 L 353.927,-60.9726 L 354.486,-60.3511 L 354.904,-59.627 L 355.163,-58.8316 L 355.25,-58
 L 355.25,-24.851 L 355.116,-23.8246 L 354.818,-23.0433 L 354.364,-22.3409 L 353.774,-21.7482 L 353.074,-21.2912
 L 352.294,-20.9897 L 351.469,-20.857 z
M 529.008,-20.8988 L 528.2,-21.1134 L 441.245,-54.2624 L 440.319,-54.7639 L 439.697,-55.3235 L 439.206,-56
 L 438.866,-56.7639 L 438.692,-57.5819 L 438.692,-58.4181 L 438.866,-59.2361 L 439.206,-60 L 439.697,-60.6765
 L 440.319,-61.2361 L 441.043,-61.6542 L 441.838,-61.9126 L 442.67,-62 L 529.625,-62 L 530.861,-61.8042
 L 531.625,-61.4641 L 532.302,-60.9726 L 532.861,-60.3511 L 533.279,-59.627 L 533.538,-58.8316 L 533.625,-58
 L 533.625,-24.851 L 533.491,-23.8246 L 533.193,-23.0433 L 532.739,-22.3409 L 532.149,-21.7482 L 531.449,-21.2912
 L 530.669,-20.9897 L 529.844,-20.857 z
M 1268.08,-20.9897 L 1267.3,-21.2912 L 1266.6,-21.7482 L 1266.01,-22.3409 L 1265.56,-23.0433 L 1265.26,-23.8246
 L 1265.12,-24.851 L 1265.12,-58 L 1265.21,-58.8316 L 1265.47,-59.627 L 1265.89,-60.3511 L 1266.45,-60.9726
 L 1267.12,-61.4641 L 1267.89,-61.8042 L 1269.12,-62 L 1356.08,-62 L 1356.91,-61.9126 L 1357.71,-61.6542
 L 1358.43,-61.2361 L 1359.05,-60.6765 L 1359.54,-60 L 1359.88,-59.2361 L 1360.06,-58.4181 L 1360.06,-57.5819
 L 1359.88,-56.7639 L 1359.54,-56 L 1359.05,-55.3235 L 1358.43,-54.7639 L 1357.51,-54.2624 L 1270.55,-21.1134
 L 1269.74,-20.8988 L 1268.91,-20.857 z
M 707.383,-20.8988 L 706.575,-21.1134 L 619.62,-54.2624 L 618.694,-54.7639 L 618.072,-55.3235 L 617.581,-56
 L 617.241,-56.7639 L 617.067,-57.5819 L 617.067,-58.4181 L 617.241,-59.2361 L 617.581,-60 L 618.072,-60.6765
 L 618.694,-61.2361 L 619.418,-61.6542 L 620.213,-61.9126 L 621.045,-62 L 708,-62 L 709.236,-61.8042
 L 710,-61.4641 L 710.677,-60.9726 L 711.236,-60.3511 L 711.654,-59.627 L 711.913,-58.8316 L 712,-58
 L 712,-24.851 L 711.866,-23.8246 L 711.568,-23.0433 L 711.114,-22.3409 L 710.524,-21.7482 L 709.824,-21.2912
 L 709.044,-20.9897 L 708.219,-20.857 z
M 172.258,-20.8988 L 171.45,-21.1134 L 84.495,-54.2624 L 83.5687,-54.7639 L 82.9473,-55.3235 L 82.4557,-56
 L 82.1156,-56.7639 L 81.9418,-57.5819 L 81.9418,-58.4181 L 82.1156,-59.2361 L 82.4557,-60 L 82.9473,-60.6765
 L 83.5687,-61.2361 L 84.2929,-61.6542 L 85.0882,-61.9126 L 85.9198,-62 L 172.875,-62 L 174.111,-61.8042
 L 174.875,-61.4641 L 175.552,-60.9726 L 176.111,-60.3511 L 176.529,-59.627 L 176.788,-58.8316 L 176.875,-58
 L 176.875,-24.851 L 176.741,-23.8246 L 176.443,-23.0433 L 175.989,-22.3409 L 175.399,-21.7482 L 174.699,-21.2912
 L 173.919,-20.9897 L 173.094,-20.857 z
M 732.956,-20.9897 L 732.176,-21.2912 L 731.476,-21.7482 L 730.886,-22.3409 L 730.432,-23.0433 L 730.134,-23.8246
 L 730,-24.851 L 730,-58 L 730.087,-58.8316 L 730.346,-59.627 L 730.764,-60.3511 L 731.323,-60.9726
 L 732,-61.4641 L 732.764,-61.8042 L 734,-62 L 820.955,-62 L 821.787,-61.9126 L 822.582,-61.6542
 L 823.306,-61.2361 L 823.928,-60.6765 L 824.419,-60 L 824.759,-59.2361 L 824.933,-58.4181 L 824.933,-57.5819
 L 824.759,-56.7639 L 824.419,-56 L 823.928,-55.3235 L 823.306,-54.7639 L 822.38,-54.2624 L 735.425,-21.1134
 L 734.617,-20.8988 L 733.781,-20.857 z
M 911.331,-20.9897 L 910.551,-21.2912 L 909.851,-21.7482 L 909.261,-22.3409 L 908.807,-23.0433 L 908.509,-23.8246
 L 908.375,-24.851 L 908.375,-58 L 908.462,-58.8316 L 908.721,-59.627 L 909.139,-60.3511 L 909.698,-60.9726
 L 910.375,-61.4641 L 911.139,-61.8042 L 912.375,-62 L 999.33,-62 L 1000.16,-61.9126 L 1000.96,-61.6542
 L 1001.68,-61.2361 L 1002.3,-60.6765 L 1002.79,-60 L 1003.13,-59.2361 L 1003.31,-58.4181 L 1003.31,-57.5819
 L 1003.13,-56.7639 L 1002.79,-56 L 1002.3,-55.3235 L 1001.68,-54.7639 L 1000.76,-54.2624 L 913.8,-21.1134
 L 912.992,-20.8988 L 912.156,-20.857 z
M 1089.71,-20.9897 L 1088.93,-21.2912 L 1088.23,-21.7482 L 1087.64,-22.3409 L 1087.18,-23.0433 L 1086.88,-23.8246
 L 1086.75,-24.851 L 1086.75,-58 L 1086.84,-58.8316 L 1087.1,-59.627 L 1087.51,-60.3511 L 1088.07,-60.9726
 L 1088.75,-61.4641 L 1089.51,-61.8042 L 1090.75,-62 L 1177.71,-62 L 1178.54,-61.9126 L 1179.33,-61.6542
 L 1180.06,-61.2361 L 1180.68,-60.6765 L 1181.17,-60 L 1181.51,-59.2361 L 1181.68,-58.4181 L 1181.68,-57.5819
 L 1181.51,-56.7639 L 1181.17,-56 L 1180.68,-55.3235 L 1180.06,-54.7639 L 1179.13,-54.2624 L 1092.17,-21.1134
 L 1091.37,-20.8988 L 1090.53,-20.857 z
M 198.875,-18 L 197.639,-18.1958 L 196.875,-18.5359 L 196.198,-19.0274 L 195.639,-19.6489 L 195.221,-20.373
 L 194.962,-21.1684 L 194.875,-22 L 194.875,-55.149 L 195.009,-56.1753 L 195.307,-56.9567 L 195.761,-57.6591
 L 196.351,-58.2517 L 197.051,-58.7088 L 197.831,-59.0103 L 198.656,-59.143 L 199.492,-59.1012 L 200.3,-58.8866
 L 287.255,-25.7376 L 288.181,-25.2361 L 288.803,-24.6765 L 289.294,-24 L 289.634,-23.2361 L 289.808,-22.4181
 L 289.808,-21.5819 L 289.634,-20.7639 L 289.294,-20 L 288.803,-19.3235 L 288.181,-18.7639 L 287.457,-18.3458
 L 286.662,-18.0874 L 285.83,-18 z
M 377.25,-18 L 376.014,-18.1958 L 375.25,-18.5359 L 374.573,-19.0274 L 374.014,-19.6489 L 373.596,-20.373
 L 373.337,-21.1684 L 373.25,-22 L 373.25,-55.149 L 373.384,-56.1753 L 373.682,-56.9567 L 374.136,-57.6591
 L 374.726,-58.2517 L 375.426,-58.7088 L 376.206,-59.0103 L 377.031,-59.143 L 377.867,-59.1012 L 378.675,-58.8866
 L 465.63,-25.7376 L 466.556,-25.2361 L 467.178,-24.6765 L 467.669,-24 L 468.009,-23.2361 L 468.183,-22.4181
 L 468.183,-21.5819 L 468.009,-20.7639 L 467.669,-20 L 467.178,-19.3235 L 466.556,-18.7639 L 465.832,-18.3458
 L 465.037,-18.0874 L 464.205,-18 z
M 555.625,-18 L 554.389,-18.1958 L 553.625,-18.5359 L 552.948,-19.0274 L 552.389,-19.6489 L 551.971,-20.373
 L 551.712,-21.1684 L 551.625,-22 L 551.625,-55.149 L 551.759,-56.1753 L 552.057,-56.9567 L 552.511,-57.6591
 L 553.101,-58.2517 L 553.801,-58.7088 L 554.581,-59.0103 L 555.406,-59.143 L 556.242,-59.1012 L 557.05,-58.8866
 L 644.005,-25.7376 L 644.931,-25.2361 L 645.553,-24.6765 L 646.044,-24 L 646.384,-23.2361 L 646.558,-22.4181
 L 646.558,-21.5819 L 646.384,-20.7639 L 646.044,-20 L 645.553,-19.3235 L 644.931,-18.7639 L 644.207,-18.3458
 L 643.412,-18.0874 L 642.58,-18 z
M 799.42,-18 L 798.588,-18.0874 L 797.793,-18.3458 L 797.069,-18.7639 L 796.447,-19.3235 L 795.956,-20
 L 795.616,-20.7639 L 795.442,-21.5819 L 795.442,-22.4181 L 795.616,-23.2361 L 795.956,-24 L 796.447,-24.6765
 L 797.069,-25.2361 L 797.995,-25.7376 L 884.95,-58.8866 L 885.758,-59.1012 L 886.594,-59.143 L 887.419,-59.0103
 L 888.199,-58.7088 L 888.899,-58.2517 L 889.489,-57.6591 L 889.943,-56.9567 L 890.241,-56.1753 L 890.375,-55.149
 L 890.375,-22 L 890.288,-21.1684 L 890.029,-20.373 L 889.611,-19.6489 L 889.052,-19.0274 L 888.375,-18.5359
 L 887.611,-18.1958 L 886.375,-18 z
M 977.795,-18 L 976.963,-18.0874 L 976.168,-18.3458 L 975.444,-18.7639 L 974.822,-19.3235 L 974.331,-20
 L 973.991,-20.7639 L 973.817,-21.5819 L 973.817,-22.4181 L 973.991,-23.2361 L 974.331,-24 L 974.822,-24.6765
 L 975.444,-25.2361 L 976.37,-25.7376 L 1063.33,-58.8866 L 1064.13,-59.1012 L 1064.97,-59.143 L 1065.79,-59.0103
 L 1066.57,-58.7088 L 1067.27,-58.2517 L 1067.86,-57.6591 L 1068.32,-56.9567 L 1068.62,-56.1753 L 1068.75,-55.149
 L 1068.75,-22 L 1068.66,-21.1684 L 1068.4,-20.373 L 1067.99,-19.6489 L 1067.43,-19.0274 L 1066.75,-18.5359
 L 1065.99,-18.1958 L 1064.75,-18 z
M 1156.17,-18 L 1155.34,-18.0874 L 1154.54,-18.3458 L 1153.82,-18.7639 L 1153.2,-19.3235 L 1152.71,-20
 L 1152.37,-20.7639 L 1152.19,-21.5819 L 1152.19,-22.4181 L 1152.37,-23.2361 L 1152.71,-24 L 1153.2,-24.6765
 L 1153.82,-25.2361 L 1154.75,-25.7376 L 1241.7,-58.8866 L 1242.51,-59.1012 L 1243.34,-59.143 L 1244.17,-59.0103
 L 1244.95,-58.7088 L 1245.65,-58.2517 L 1246.24,-57.6591 L 1246.69,-56.9567 L 1246.99,-56.1753 L 1247.12,-55.149
 L 1247.12,-22 L 1247.04,-21.1684 L 1246.78,-20.373 L 1246.36,-19.6489 L 1245.8,-19.0274 L 1245.12,-18.5359
 L 1244.36,-18.1958 L 1243.12,-18 z
M 1334.54,-18 L 1333.71,-18.0874 L 1332.92,-18.3458 L 1332.19,-18.7639 L 1331.57,-19.3235 L 1331.08,-20
 L 1330.74,-20.7639 L 1330.57,-21.5819 L 1330.57,-22.4181 L 1330.74,-23.2361 L 1331.08,-24 L 1331.57,-24.6765
 L 1332.19,-25.2361 L 1333.12,-25.7376 L 1418.58,-58.3148 L 1419.38,-58.5293 L 1420.22,-58.5712 L 1421.04,-58.4384
 L 1421.82,-58.137 L 1422.52,-57.6799 L 1423.11,-57.0872 L 1423.57,-56.3849 L 1423.87,-55.6035 L 1424,-54.5771
 L 1424,-22 L 1423.91,-21.1684 L 1423.65,-20.373 L 1423.24,-19.6489 L 1422.68,-19.0274 L 1422,-18.5359
 L 1421.24,-18.1958 L 1420,-18 z
M 22,-18 L 20.7639,-18.1958 L 20,-18.5359 L 19.3235,-19.0274 L 18.7639,-19.6489 L 18.3458,-20.373
 L 18.0874,-21.1684 L 18,-22 L 18,-54.5771 L 18.1339,-55.6035 L 18.4318,-56.3849 L 18.8856,-57.0872
 L 19.4756,-57.6799 L 20.1758,-58.137 L 20.9558,-58.4384 L 21.7814,-58.5712 L 22.6166,-58.5293 L 23.4249,-58.3148
 L 108.88,-25.7376 L 109.806,-25.2361 L 110.428,-24.6765 L 110.919,-24 L 111.259,-23.2361 L 111.433,-22.4181
 L 111.433,-21.5819 L 111.259,-20.7639 L 110.919,-20 L 110.428,-19.3235 L 109.806,-18.7639 L 109.082,-18.3458
 L 108.287,-18.0874 L 107.455,-18 z
" stroke="black" fill="lightgray" stroke-width="0.5"/>
</svg>
