<?xml version="1.0" standalone="no"?>
<!DOCTYPE svg PUBLIC "-//W3C//DTD SVG 1.1//EN" "http://www.w3.org/Graphics/SVG/1.1/DTD/svg11.dtd">
<svg width="1272mm" height="80mm" viewBox="0 -80 1272 80" xmlns="http://www.w3.org/2000/svg" version="1.1">
<title>OpenSCAD Model</title>
<path d="
M 1272,-80 L 0,-80 L 0,-0 L 4.95,-0 L 4.95,-6 L 5.00572,-6.53017
 L 5.17046,-7.03717 L 5.437,-7.49884 L 5.79372,-7.895 L 6.22499,-8.20836 L 6.71201,-8.42519 L 7.23344,-8.53603
 L 7.76654,-8.53603 L 8.28798,-8.42519 L 8.77499,-8.20836 L 9.20627,-7.895 L 9.56299,-7.49884 L 9.82953,-7.03717
 L 9.99426,-6.53017 L 10.05,-6 L 10.05,-0 L 184.521,-0 L 184.521,-6 L 184.577,-6.53017
 L 184.742,-7.03717 L 185.008,-7.49884 L 185.365,-7.895 L 185.796,-8.20836 L 186.283,-8.42519 L 186.805,-8.53603
 L 187.338,-8.53603 L 187.859,-8.42519 L 188.346,-8.20836 L 188.778,-7.895 L 189.134,-7.49884 L 189.401,-7.03717
 L 189.566,-6.53017 L 189.621,-6 L 189.621,-0 L 364.093,-0 L 364.093,-6 L 364.149,-6.53017
 L 364.313,-7.03717 L 364.58,-7.49884 L 364.937,-7.895 L 365.368,-8.20836 L 365.855,-8.42519 L 366.376,-8.53603
 L 366.909,-8.53603 L 367.431,-8.42519 L 367.918,-8.20836 L 368.349,-7.895 L 368.706,-7.49884 L 368.972,-7.03717
 L 369.137,-6.53017 L 369.193,-6 L 369.193,-0 L 543.664,-0 L 543.664,-6 L 543.72,-6.53017
 L 543.885,-7.03717 L 544.151,-7.49884 L 544.508,-7.895 L 544.939,-8.20836 L 545.426,-8.42519 L 545.948,-8.53603
 L 546.481,-8.53603 L 547.002,-8.42519 L 547.489,-8.20836 L 547.921,-7.895 L 548.277,-7.49884 L 548.544,-7.03717
 L 548.709,-6.53017 L 548.764,-6 L 548.764,-0 L 723.236,-0 L 723.236,-6 L 723.291,-6.53017
 L 723.456,-7.03717 L 723.723,-7.49884 L 724.079,-7.895 L 724.511,-8.20836 L 724.998,-8.42519 L 725.519,-8.53603
 L 726.052,-8.53603 L 726.574,-8.42519 L 727.061,-8.20836 L 727.492,-7.895 L 727.849,-7.49884 L 728.115,-7.03717
 L 728.28,-6.53017 L 728.336,-6 L 728.336,-0 L 902.807,-0 L 902.807,-6 L 902.863,-6.53017
 L 903.028,-7.03717 L 903.294,-7.49884 L 903.651,-7.895 L 904.082,-8.20836 L 904.569,-8.42519 L 905.091,-8.53603
 L 905.624,-8.53603 L 906.145,-8.42519 L 906.632,-8.20836 L 907.063,-7.895 L 907.42,-7.49884 L 907.687,-7.03717
 L 907.851,-6.53017 L 907.907,-6 L 907.907,-0 L 1082.38,-0 L 1082.38,-6 L 1082.43,-6.53017
 L 1082.6,-7.03717 L 1082.87,-7.49884 L 1083.22,-7.895 L 1083.65,-8.20836 L 1084.14,-8.42519 L 1084.66,-8.53603
 L 1085.2,-8.53603 L 1085.72,-8.42519 L 1086.2,-8.20836 L 1086.63,-7.895 L 1086.99,-7.49884 L 1087.26,-7.03717
 L 1087.42,-6.53017 L 1087.48,-6 L 1087.48,-0 L 1261.95,-0 L 1261.95,-6 L 1262.01,-6.53017
 L 1262.17,-7.03717 L 1262.44,-7.49884 L 1262.79,-7.895 L 1263.22,-8.20836 L 1263.71,-8.42519 L 1264.23,-8.53603
 L 1264.77,-8.53603 L 1265.29,-8.42519 L 1265.77,-8.20836 L 1266.21,-7.895 L 1266.56,-7.49884 L 1266.83,-7.03717
 L 1266.99,-6.53017 L 1267.05,-6 L 1267.05,-0 L 1272,-0 z
M 6.98573,-55.607 L 6.47708,-55.6875 L 5.97964,-55.8208 L 5.49887,-56.0054 L 5.04001,-56.2392 L 4.60811,-56.5196
 L 4.20789,-56.8437 L 3.84373,-57.2079 L 3.51964,-57.6081 L 3.23917,-58.04 L 3.00537,-58.4989 L 2.82082,-58.9796
 L 2.68752,-59.4771 L 2.60696,-59.9857 L 2.58,-60.5 L 2.60696,-61.0143 L 2.68752,-61.5229 L 2.82082,-62.0204
 L 3.00537,-62.5011 L 3.23917,-62.96 L 3.51964,-63.3919 L 3.84373,-63.7921 L 4.20789,-64.1563 L 4.60811,-64.4804
 L 4.95001,-64.7024 L 4.95001,-74 L 5.00574,-74.5302 L 5.17047,-75.0372 L 5.43701,-75.4988 L 5.79373,-75.895
 L 6.22501,-76.2084 L 6.71202,-76.4252 L 7.23346,-76.536 L 7.76654,-76.536 L 8.28798,-76.4252 L 8.77499,-76.2084
 L 9.20627,-75.895 L 9.56299,-75.4988 L 9.82953,-75.0372 L 9.99426,-74.5302 L 10.05,-74 L 10.05,-64.7024
 L 10.3919,-64.4804 L 10.7921,-64.1563 L 11.1563,-63.7921 L 11.4804,-63.3919 L 11.7608,-62.96 L 11.9946,-62.5011
 L 12.1792,-62.0204 L 12.3125,-61.5229 L 12.393,-61.0143 L 12.42,-60.5 L 12.393,-59.9857 L 12.3125,-59.4771
 L 12.1792,-58.9796 L 11.9946,-58.4989 L 11.7608,-58.04 L 11.4804,-57.6081 L 11.1563,-57.2079 L 10.7921,-56.8437
 L 10.3919,-56.5196 L 9.95999,-56.2392 L 9.50113,-56.0054 L 9.02036,-55.8208 L 8.52292,-55.6875 L 8.01427,-55.607
 L 7.5,-55.58 z
M 186.557,-55.607 L 186.049,-55.6875 L 185.551,-55.8208 L 185.07,-56.0054 L 184.611,-56.2392 L 184.18,-56.5196
 L 183.779,-56.8437 L 183.415,-57.2079 L 183.091,-57.6081 L 182.811,-58.04 L 182.577,-58.4989 L 182.392,-58.9796
 L 182.259,-59.4771 L 182.178,-59.9857 L 182.151,-60.5 L 182.178,-61.0143 L 182.259,-61.5229 L 182.392,-62.0204
 L 182.577,-62.5011 L 182.811,-62.96 L 183.091,-63.3919 L 183.415,-63.7921 L 183.779,-64.1563 L 184.18,-64.4804
 L 184.521,-64.7024 L 184.521,-74 L 184.577,-74.5302 L 184.742,-75.0372 L 185.008,-75.4988 L 185.365,-75.895
 L 185.796,-76.2084 L 186.283,-76.4252 L 186.805,-76.536 L 187.338,-76.536 L 187.859,-76.4252 L 188.346,-76.2084
 L 188.778,-75.895 L 189.134,-75.4988 L 189.401,-75.0372 L 189.566,-74.5302 L 189.621,-74 L 189.621,-64.7024
 L 189.963,-64.4804 L 190.364,-64.1563 L 190.728,-63.7921 L 191.052,-63.3919 L 191.332,-62.96 L 191.566,-62.5011
 L 191.751,-62.0204 L 191.884,-61.5229 L 191.964,-61.0143 L 191.991,-60.5 L 191.964,-59.9857 L 191.884,-59.4771
 L 191.751,-58.9796 L 191.566,-58.4989 L 191.332,-58.04 L 191.052,-57.6081 L 190.728,-57.2079 L 190.364,-56.8437
 L 189.963,-56.5196 L 189.531,-56.2392 L 189.073,-56.0054 L 188.592,-55.8208 L 188.094,-55.6875 L 187.586,-55.607
 L 187.071,-55.58 z
M 366.129,-55.607 L 365.62,-55.6875 L 365.122,-55.8208 L 364.642,-56.0054 L 364.183,-56.2392 L 363.751,-56.5196
 L 363.351,-56.8437 L 362.987,-57.2079 L 362.662,-57.6081 L 362.382,-58.04 L 362.148,-58.4989 L 361.964,-58.9796
 L 361.83,-59.4771 L 361.75,-59.9857 L 361.723,-60.5 L 361.75,-61.0143 L 361.83,-61.5229 L 361.964,-62.0204
 L 362.148,-62.5011 L 362.382,-62.96 L 362.662,-63.3919 L 362.987,-63.7921 L 363.351,-64.1563 L 363.751,-64.4804
 L 364.093,-64.7024 L 364.093,-74 L 364.149,-74.5302 L 364.313,-75.0372 L 364.58,-75.4988 L 364.937,-75.895
 L 365.368,-76.2084 L 365.855,-76.4252 L 366.376,-76.536 L 366.909,-76.536 L 367.431,-76.4252 L 367.918,-76.2084
 L 368.349,-75.895 L 368.706,-75.4988 L 368.972,-75.0372 L 369.137,-74.5302 L 369.193,-74 L 369.193,-64.7024
 L 369.535,-64.4804 L 369.935,-64.1563 L 370.299,-63.7921 L 370.623,-63.3919 L 370.904,-62.96 L 371.137,-62.5011
 L 371.322,-62.0204 L 371.455,-61.5229 L 371.536,-61.0143 L 371.563,-60.5 L 371.536,-59.9857 L 371.455,-59.4771
 L 371.322,-58.9796 L 371.137,-58.4989 L 370.904,-58.04 L 370.623,-57.6081 L 370.299,-57.2079 L 369.935,-56.8437
 L 369.535,-56.5196 L 369.103,-56.2392 L 368.644,-56.0054 L 368.163,-55.8208 L 367.666,-55.6875 L 367.157,-55.607
 L 366.643,-55.58 z
M 545.7,-55.607 L 545.191,-55.6875 L 544.694,-55.8208 L 544.213,-56.0054 L 543.754,-56.2392 L 543.322,-56.5196
 L 542.922,-56.8437 L 542.558,-57.2079 L 542.234,-57.6081 L 541.953,-58.04 L 541.72,-58.4989 L 541.535,-58.9796
 L 541.402,-59.4771 L 541.321,-59.9857 L 541.294,-60.5 L 541.321,-61.0143 L 541.402,-61.5229 L 541.535,-62.0204
 L 541.72,-62.5011 L 541.953,-62.96 L 542.234,-63.3919 L 542.558,-63.7921 L 542.922,-64.1563 L 543.322,-64.4804
 L 543.664,-64.7024 L 543.664,-74 L 543.72,-74.5302 L 543.885,-75.0372 L 544.151,-75.4988 L 544.508,-75.895
 L 544.939,-76.2084 L 545.426,-76.4252 L 545.948,-76.536 L 546.481,-76.536 L 547.002,-76.4252 L 547.489,-76.2084
 L 547.921,-75.895 L 548.277,-75.4988 L 548.544,-75.0372 L 548.709,-74.5302 L 548.764,-74 L 548.764,-64.7024
 L 549.106,-64.4804 L 549.506,-64.1563 L 549.871,-63.7921 L 550.195,-63.3919 L 550.475,-62.96 L 550.709,-62.5011
 L 550.893,-62.0204 L 551.027,-61.5229 L 551.107,-61.0143 L 551.134,-60.5 L 551.107,-59.9857 L 551.027,-59.4771
 L 550.893,-58.9796 L 550.709,-58.4989 L 550.475,-58.04 L 550.195,-57.6081 L 549.871,-57.2079 L 549.506,-56.8437
 L 549.106,-56.5196 L 548.674,-56.2392 L 548.215,-56.0054 L 547.735,-55.8208 L 547.237,-55.6875 L 546.729,-55.607
 L 546.214,-55.58 z
M 725.271,-55.607 L 724.763,-55.6875 L 724.265,-55.8208 L 723.785,-56.0054 L 723.326,-56.2392 L 722.894,-56.5196
 L 722.494,-56.8437 L 722.129,-57.2079 L 721.805,-57.6081 L 721.525,-58.04 L 721.291,-58.4989 L 721.107,-58.9796
 L 720.973,-59.4771 L 720.893,-59.9857 L 720.866,-60.5 L 720.893,-61.0143 L 720.973,-61.5229 L 721.107,-62.0204
 L 721.291,-62.5011 L 721.525,-62.96 L 721.805,-63.3919 L 722.129,-63.7921 L 722.494,-64.1563 L 722.894,-64.4804
 L 723.236,-64.7024 L 723.236,-74 L 723.291,-74.5302 L 723.456,-75.0372 L 723.723,-75.4988 L 724.079,-75.895
 L 724.511,-76.2084 L 724.998,-76.4252 L 725.519,-76.536 L 726.052,-76.536 L 726.574,-76.4252 L 727.061,-76.2084
 L 727.492,-75.895 L 727.849,-75.4988 L 728.115,-75.0372 L 728.28,-74.5302 L 728.336,-74 L 728.336,-64.7024
 L 728.678,-64.4804 L 729.078,-64.1563 L 729.442,-63.7921 L 729.766,-63.3919 L 730.047,-62.96 L 730.28,-62.5011
 L 730.465,-62.0204 L 730.598,-61.5229 L 730.679,-61.0143 L 730.706,-60.5 L 730.679,-59.9857 L 730.598,-59.4771
 L 730.465,-58.9796 L 730.28,-58.4989 L 730.047,-58.04 L 729.766,-57.6081 L 729.442,-57.2079 L 729.078,-56.8437
 L 728.678,-56.5196 L 728.246,-56.2392 L 727.787,-56.0054 L 727.306,-55.8208 L 726.809,-55.6875 L 726.3,-55.607
 L 725.786,-55.58 z
M 904.843,-55.607 L 904.334,-55.6875 L 903.837,-55.8208 L 903.356,-56.0054 L 902.897,-56.2392 L 902.465,-56.5196
 L 902.065,-56.8437 L 901.701,-57.2079 L 901.377,-57.6081 L 901.096,-58.04 L 900.863,-58.4989 L 900.678,-58.9796
 L 900.545,-59.4771 L 900.464,-59.9857 L 900.437,-60.5 L 900.464,-61.0143 L 900.545,-61.5229 L 900.678,-62.0204
 L 900.863,-62.5011 L 901.096,-62.96 L 901.377,-63.3919 L 901.701,-63.7921 L 902.065,-64.1563 L 902.465,-64.4804
 L 902.807,-64.7024 L 902.807,-74 L 902.863,-74.5302 L 903.028,-75.0372 L 903.294,-75.4988 L 903.651,-75.895
 L 904.082,-76.2084 L 904.569,-76.4252 L 905.091,-76.536 L 905.624,-76.536 L 906.145,-76.4252 L 906.632,-76.2084
 L 907.063,-75.895 L 907.42,-75.4988 L 907.687,-75.0372 L 907.851,-74.5302 L 907.907,-74 L 907.907,-64.7024
 L 908.249,-64.4804 L 908.649,-64.1563 L 909.013,-63.7921 L 909.337,-63.3919 L 909.618,-62.96 L 909.852,-62.5011
 L 910.036,-62.0204 L 910.17,-61.5229 L 910.25,-61.0143 L 910.277,-60.5 L 910.25,-59.9857 L 910.17,-59.4771
 L 910.036,-58.9796 L 909.852,-58.4989 L 909.618,-58.04 L 909.337,-57.6081 L 909.013,-57.2079 L 908.649,-56.8437
 L 908.249,-56.5196 L 907.817,-56.2392 L 907.358,-56.0054 L 906.877,-55.8208 L 906.38,-55.6875 L 905.871,-55.607
 L 905.357,-55.58 z
M 1084.41,-55.607 L 1083.91,-55.6875 L 1083.41,-55.8208 L 1082.93,-56.0054 L 1082.47,-56.2392 L 1082.04,-56.5196
 L 1081.64,-56.8437 L 1081.27,-57.2079 L 1080.95,-57.6081 L 1080.67,-58.04 L 1080.43,-58.4989 L 1080.25,-58.9796
 L 1080.12,-59.4771 L 1080.04,-59.9857 L 1080.01,-60.5 L 1080.04,-61.0143 L 1080.12,-61.5229 L 1080.25,-62.0204
 L 1080.43,-62.5011 L 1080.67,-62.96 L 1080.95,-63.3919 L 1081.27,-63.7921 L 1081.64,-64.1563 L 1082.04,-64.4804
 L 1082.38,-64.7024 L 1082.38,-74 L 1082.43,-74.5302 L 1082.6,-75.0372 L 1082.87,-75.4988 L 1083.22,-75.895
 L 1083.65,-76.2084 L 1084.14,-76.4252 L 1084.66,-76.536 L 1085.2,-76.536 L 1085.72,-76.4252 L 1086.2,-76.2084
 L 1086.63,-75.895 L 1086.99,-75.4988 L 1087.26,-75.0372 L 1087.42,-74.5302 L 1087.48,-74 L 1087.48,-64.7024
 L 1087.82,-64.4804 L 1088.22,-64.1563 L 1088.58,-63.7921 L 1088.91,-63.3919 L 1089.19,-62.96 L 1089.42,-62.5011
 L 1089.61,-62.0204 L 1089.74,-61.5229 L 1089.82,-61.0143 L 1089.85,-60.5 L 1089.82,-59.9857 L 1089.74,-59.4771
 L 1089.61,-58.9796 L 1089.42,-58.4989 L 1089.19,-58.04 L 1088.91,-57.6081 L 1088.58,-57.2079 L 1088.22,-56.8437
 L 1087.82,-56.5196 L 1087.39,-56.2392 L 1086.93,-56.0054 L 1086.45,-55.8208 L 1085.95,-55.6875 L 1085.44,-55.607
 L 1084.93,-55.58 z
M 1263.99,-55.607 L 1263.48,-55.6875 L 1262.98,-55.8208 L 1262.5,-56.0054 L 1262.04,-56.2392 L 1261.61,-56.5196
 L 1261.21,-56.8437 L 1260.84,-57.2079 L 1260.52,-57.6081 L 1260.24,-58.04 L 1260.01,-58.4989 L 1259.82,-58.9796
 L 1259.69,-59.4771 L 1259.61,-59.9857 L 1259.58,-60.5 L 1259.61,-61.0143 L 1259.69,-61.5229 L 1259.82,-62.0204
 L 1260.01,-62.5011 L 1260.24,-62.96 L 1260.52,-63.3919 L 1260.84,-63.7921 L 1261.21,-64.1563 L 1261.61,-64.4804
 L 1261.95,-64.7024 L 1261.95,-74 L 1262.01,-74.5302 L 1262.17,-75.0372 L 1262.44,-75.4988 L 1262.79,-75.895
 L 1263.23,-76.2084 L 1263.71,-76.4252 L 1264.23,-76.536 L 1264.77,-76.536 L 1265.29,-76.4252 L 1265.77,-76.2084
 L 1266.21,-75.895 L 1266.56,-75.4988 L 1266.83,-75.0372 L 1266.99,-74.5302 L 1267.05,-74 L 1267.05,-64.7024
 L 1267.39,-64.4804 L 1267.79,-64.1563 L 1268.16,-63.7921 L 1268.48,-63.3919 L 1268.76,-62.96 L 1268.99,-62.5011
 L 1269.18,-62.0204 L 1269.31,-61.5229 L 1269.39,-61.0143 L 1269.42,-60.5 L 1269.39,-59.9857 L 1269.31,-59.4771
 L 1269.18,-58.9796 L 1268.99,-58.4989 L 1268.76,-58.04 L 1268.48,-57.6081 L 1268.16,-57.2079 L 1267.79,-56.8437
 L 1267.39,-56.5196 L 1266.96,-56.2392 L 1266.5,-56.0054 L 1266.02,-55.8208 L 1265.52,-55.6875 L 1265.01,-55.607
 L 1264.5,-55.58 z
M 737.733,-20.9488 L 736.954,-21.252 L 736.254,-21.7106 L 735.666,-22.3046 L 735.214,-23.008 L 734.917,-23.79
 L 734.786,-24.8078 L 734.786,-58 L 734.873,-58.8316 L 735.132,-59.627 L 735.55,-60.3511 L 736.109,-60.9726
 L 736.786,-61.4641 L 737.55,-61.8042 L 738.786,-62 L 826.438,-62 L 827.27,-61.9126 L 828.065,-61.6542
 L 828.789,-61.2361 L 829.411,-60.6765 L 829.902,-60 L 830.242,-59.2361 L 830.416,-58.4181 L 830.416,-57.5819
 L 830.242,-56.7639 L 829.902,-56 L 829.411,-55.3235 L 828.789,-54.7639 L 827.855,-54.2592 L 740.202,-21.067
 L 739.394,-20.8542 L 738.558,-20.8143 z
M 635.392,-47.7953 L 634.583,-48.008 L 618.076,-54.2592 L 617.141,-54.7639 L 616.52,-55.3235 L 616.028,-56
 L 615.688,-56.7639 L 615.514,-57.5819 L 615.514,-58.4181 L 615.688,-59.2361 L 616.028,-60 L 616.52,-60.6765
 L 617.141,-61.2361 L 617.865,-61.6542 L 618.66,-61.9126 L 619.492,-62 L 652.508,-62 L 653.561,-61.859
 L 654.34,-61.5558 L 655.039,-61.0972 L 655.628,-60.5032 L 656.08,-59.7998 L 656.376,-59.0178 L 656.503,-58.1913
 L 656.456,-57.3564 L 656.236,-56.5496 L 655.853,-55.8063 L 655.323,-55.1588 L 654.671,-54.6355 L 653.924,-54.2592
 L 637.417,-48.008 L 636.227,-47.7553 z
M 532.606,-20.8542 L 531.798,-21.067 L 444.145,-54.2592 L 443.211,-54.7639 L 442.589,-55.3235 L 442.098,-56
 L 441.758,-56.7639 L 441.584,-57.5819 L 441.584,-58.4181 L 441.758,-59.2361 L 442.098,-60 L 442.589,-60.6765
 L 443.211,-61.2361 L 443.935,-61.6542 L 444.73,-61.9126 L 445.562,-62 L 533.214,-62 L 534.45,-61.8042
 L 535.214,-61.4641 L 535.891,-60.9726 L 536.45,-60.3511 L 536.868,-59.627 L 537.127,-58.8316 L 537.214,-58
 L 537.214,-24.8078 L 537.083,-23.79 L 536.786,-23.008 L 536.334,-22.3046 L 535.746,-21.7106 L 535.046,-21.252
 L 534.267,-20.9488 L 533.442,-20.8143 z
M 353.035,-20.8542 L 352.226,-21.067 L 264.574,-54.2592 L 263.639,-54.7639 L 263.018,-55.3235 L 262.526,-56
 L 262.186,-56.7639 L 262.012,-57.5819 L 262.012,-58.4181 L 262.186,-59.2361 L 262.526,-60 L 263.018,-60.6765
 L 263.639,-61.2361 L 264.363,-61.6542 L 265.159,-61.9126 L 265.99,-62 L 353.643,-62 L 354.879,-61.8042
 L 355.643,-61.4641 L 356.319,-60.9726 L 356.879,-60.3511 L 357.297,-59.627 L 357.555,-58.8316 L 357.643,-58
 L 357.643,-24.8078 L 357.511,-23.79 L 357.215,-23.008 L 356.763,-22.3046 L 356.174,-21.7106 L 355.475,-21.252
 L 354.696,-20.9488 L 353.87,-20.8143 z
M 1096.88,-20.9488 L 1096.1,-21.252 L 1095.4,-21.7106 L 1094.81,-22.3046 L 1094.36,-23.008 L 1094.06,-23.79
 L 1093.93,-24.8078 L 1093.93,-58 L 1094.02,-58.8316 L 1094.27,-59.627 L 1094.69,-60.3511 L 1095.25,-60.9726
 L 1095.93,-61.4641 L 1096.69,-61.8042 L 1097.93,-62 L 1185.58,-62 L 1186.41,-61.9126 L 1187.21,-61.6542
 L 1187.93,-61.2361 L 1188.55,-60.6765 L 1189.05,-60 L 1189.39,-59.2361 L 1189.56,-58.4181 L 1189.56,-57.5819
 L 1189.39,-56.7639 L 1189.05,-56 L 1188.55,-55.3235 L 1187.93,-54.7639 L 1187,-54.2592 L 1099.35,-21.067
 L 1098.54,-20.8542 L 1097.7,-20.8143 z
M 173.464,-20.8542 L 172.655,-21.067 L 85.0023,-54.2592 L 84.0678,-54.7639 L 83.4463,-55.3235 L 82.9548,-56
 L 82.6147,-56.7639 L 82.4408,-57.5819 L 82.4408,-58.4181 L 82.6147,-59.2361 L 82.9548,-60 L 83.4463,-60.6765
 L 84.0678,-61.2361 L 84.7919,-61.6542 L 85.5872,-61.9126 L 86.4189,-62 L 174.071,-62 L 175.307,-61.8042
 L 176.071,-61.4641 L 176.748,-60.9726 L 177.307,-60.3511 L 177.726,-59.627 L 177.984,-58.8316 L 178.071,-58
 L 178.071,-24.8078 L 177.94,-23.79 L 177.644,-23.008 L 177.191,-22.3046 L 176.603,-21.7106 L 175.904,-21.252
 L 175.124,-20.9488 L 174.299,-20.8143 z
M 917.304,-20.9488 L 916.525,-21.252 L 915.826,-21.7106 L 915.237,-22.3046 L 914.785,-23.008 L 914.489,-23.79
 L 914.357,-24.8078 L 914.357,-58 L 914.445,-58.8316 L 914.703,-59.627 L 915.121,-60.3511 L 915.681,-60.9726
 L 916.357,-61.4641 L 917.121,-61.8042 L 918.357,-62 L 1006.01,-62 L 1006.84,-61.9126 L 1007.64,-61.6542
 L 1008.36,-61.2361 L 1008.98,-60.6765 L 1009.47,-60 L 1009.81,-59.2361 L 1009.99,-58.4181 L 1009.99,-57.5819
 L 1009.81,-56.7639 L 1009.47,-56 L 1008.98,-55.3235 L 1008.36,-54.7639 L 1007.43,-54.2592 L 919.774,-21.067
 L 918.965,-20.8542 L 918.13,-20.8143 z
M 558.796,-18.6936 L 557.978,-18.8674 L 557.214,-19.2076 L 556.538,-19.6991 L 555.978,-20.3205 L 555.56,-21.0447
 L 555.302,-21.84 L 555.214,-22.6717 L 555.214,-57.3283 L 555.346,-58.3461 L 555.642,-59.1281 L 556.094,-59.8315
 L 556.683,-60.4255 L 557.382,-60.8841 L 558.162,-61.1873 L 558.987,-61.3219 L 559.822,-61.2819 L 560.631,-61.0691
 L 606.391,-43.7408 L 606.806,-43.5558 L 607.506,-43.0972 L 608.094,-42.5032 L 608.546,-41.7998 L 608.843,-41.0178
 L 608.97,-40.1913 L 608.922,-39.3564 L 608.702,-38.5496 L 608.319,-37.8063 L 607.79,-37.1588 L 607.138,-36.6355
 L 606.391,-36.2592 L 560.631,-18.9309 L 559.632,-18.6936 z
M 712.178,-18.7181 L 711.369,-18.9309 L 665.609,-36.2592 L 665.194,-36.4442 L 664.494,-36.9028 L 663.906,-37.4968
 L 663.454,-38.2002 L 663.157,-38.9822 L 663.03,-39.8087 L 663.078,-40.6436 L 663.298,-41.4504 L 663.681,-42.1937
 L 664.21,-42.8412 L 664.862,-43.3645 L 665.609,-43.7408 L 711.369,-61.0691 L 712.368,-61.3064 L 713.204,-61.3064
 L 714.022,-61.1326 L 714.786,-60.7924 L 715.462,-60.3009 L 716.022,-59.6795 L 716.44,-58.9553 L 716.698,-58.16
 L 716.786,-57.3284 L 716.786,-22.6716 L 716.654,-21.6539 L 716.358,-20.8718 L 715.906,-20.1685 L 715.317,-19.5745
 L 714.618,-19.1159 L 713.838,-18.8127 L 713.013,-18.6781 z
M 200.071,-18 L 198.835,-18.1958 L 198.071,-18.5359 L 197.395,-19.0274 L 196.835,-19.6489 L 196.417,-20.373
 L 196.159,-21.1684 L 196.071,-22 L 196.071,-55.1922 L 196.203,-56.21 L 196.499,-56.992 L 196.951,-57.6954
 L 197.54,-58.2894 L 198.239,-58.748 L 199.019,-59.0512 L 199.844,-59.1857 L 200.679,-59.1458 L 201.488,-58.933
 L 289.14,-25.7408 L 290.075,-25.2361 L 290.697,-24.6765 L 291.188,-24 L 291.528,-23.2361 L 291.702,-22.4181
 L 291.702,-21.5819 L 291.528,-20.7639 L 291.188,-20 L 290.697,-19.3235 L 290.075,-18.7639 L 289.351,-18.3458
 L 288.556,-18.0874 L 287.724,-18 z
M 379.643,-18 L 378.407,-18.1958 L 377.643,-18.5359 L 376.966,-19.0274 L 376.407,-19.6489 L 375.989,-20.373
 L 375.73,-21.1684 L 375.643,-22 L 375.643,-55.1922 L 375.775,-56.21 L 376.071,-56.992 L 376.523,-57.6954
 L 377.112,-58.2894 L 377.811,-58.748 L 378.59,-59.0512 L 379.415,-59.1857 L 380.251,-59.1458 L 381.059,-58.933
 L 468.712,-25.7408 L 469.646,-25.2361 L 470.268,-24.6765 L 470.759,-24 L 471.1,-23.2361 L 471.273,-22.4181
 L 471.273,-21.5819 L 471.1,-20.7639 L 470.759,-20 L 470.268,-19.3235 L 469.646,-18.7639 L 468.922,-18.3458
 L 468.127,-18.0874 L 467.295,-18 z
M 804.705,-18 L 803.873,-18.0874 L 803.078,-18.3458 L 802.353,-18.7639 L 801.732,-19.3235 L 801.241,-20
 L 800.9,-20.7639 L 800.727,-21.5819 L 800.727,-22.4181 L 800.9,-23.2361 L 801.241,-24 L 801.732,-24.6765
 L 802.353,-25.2361 L 803.288,-25.7408 L 890.941,-58.933 L 891.749,-59.1458 L 892.585,-59.1857 L 893.41,-59.0512
 L 894.189,-58.748 L 894.888,-58.2894 L 895.477,-57.6954 L 895.929,-56.992 L 896.225,-56.21 L 896.357,-55.1922
 L 896.357,-22 L 896.27,-21.1684 L 896.011,-20.373 L 895.593,-19.6489 L 895.034,-19.0274 L 894.357,-18.5359
 L 893.593,-18.1958 L 892.357,-18 z
M 984.276,-18 L 983.444,-18.0874 L 982.649,-18.3458 L 981.925,-18.7639 L 981.303,-19.3235 L 980.812,-20
 L 980.472,-20.7639 L 980.298,-21.5819 L 980.298,-22.4181 L 980.472,-23.2361 L 980.812,-24 L 981.303,-24.6765
 L 981.925,-25.2361 L 982.859,-25.7408 L 1070.51,-58.933 L 1071.32,-59.1458 L 1072.16,-59.1857 L 1072.98,-59.0512
 L 1073.76,-58.748 L 1074.46,-58.2894 L 1075.05,-57.6954 L 1075.5,-56.992 L 1075.8,-56.21 L 1075.93,-55.1922
 L 1075.93,-22 L 1075.84,-21.1684 L 1075.58,-20.373 L 1075.16,-19.6489 L 1074.61,-19.0274 L 1073.93,-18.5359
 L 1073.16,-18.1958 L 1071.93,-18 z
M 22,-18 L 20.7639,-18.1958 L 20,-18.5359 L 19.3235,-19.0274 L 18.7639,-19.6489 L 18.3458,-20.373
 L 18.0874,-21.1684 L 18,-22 L 18,-54.6242 L 18.1317,-55.642 L 18.4278,-56.424 L 18.8801,-57.1274
 L 19.4687,-57.7213 L 20.1679,-58.1799 L 20.9473,-58.4832 L 21.7726,-58.6177 L 22.6078,-58.5777 L 23.4165,-58.3649
 L 109.569,-25.7408 L 110.504,-25.2361 L 111.125,-24.6765 L 111.617,-24 L 111.957,-23.2361 L 112.131,-22.4181
 L 112.131,-21.5819 L 111.957,-20.7639 L 111.617,-20 L 111.125,-19.3235 L 110.504,-18.7639 L 109.779,-18.3458
 L 108.984,-18.0874 L 108.153,-18 z
M 1163.85,-18 L 1163.02,-18.0874 L 1162.22,-18.3458 L 1161.5,-18.7639 L 1160.87,-19.3235 L 1160.38,-20
 L 1160.04,-20.7639 L 1159.87,-21.5819 L 1159.87,-22.4181 L 1160.04,-23.2361 L 1160.38,-24 L 1160.87,-24.6765
 L 1161.5,-25.2361 L 1162.43,-25.7408 L 1248.58,-58.3649 L 1249.39,-58.5777 L 1250.23,-58.6177 L 1251.05,-58.4832
 L 1251.83,-58.1799 L 1252.53,-57.7213 L 1253.12,-57.1274 L 1253.57,-56.424 L 1253.87,-55.642 L 1254,-54.6242
 L 1254,-22 L 1253.91,-21.1684 L 1253.65,-20.373 L 1253.24,-19.6489 L 1252.68,-19.0274 L 1252,-18.5359
 L 1251.24,-18.1958 L 1250,-18 z
M 619.492,-18 L 618.439,-18.141 L 617.66,-18.4442 L 616.961,-18.9028 L 616.372,-19.4968 L 615.92,-20.2002
 L 615.624,-20.9822 L 615.497,-21.8087 L 615.544,-22.6436 L 615.764,-23.4504 L 616.147,-24.1937 L 616.677,-24.8412
 L 617.329,-25.3645 L 618.076,-25.7408 L 634.583,-31.992 L 635.773,-32.2447 L 636.608,-32.2047 L 637.417,-31.992
 L 653.924,-25.7408 L 654.859,-25.2361 L 655.48,-24.6765 L 655.972,-24 L 656.312,-23.2361 L 656.486,-22.4181
 L 656.486,-21.5819 L 656.312,-20.7639 L 655.972,-20 L 655.48,-19.3235 L 654.859,-18.7639 L 654.135,-18.3458
 L 653.339,-18.0874 L 652.508,-18 z
" stroke="black" fill="lightgray" stroke-width="0.5"/>
</svg>
