<?xml version="1.0" standalone="no"?>
<!DOCTYPE svg PUBLIC "-//W3C//DTD SVG 1.1//EN" "http://www.w3.org/Graphics/SVG/1.1/DTD/svg11.dtd">
<svg width="1140mm" height="80mm" viewBox="0 -80 1140 80" xmlns="http://www.w3.org/2000/svg" version="1.1">
<title>OpenSCAD Model</title>
<path d="
M 1140,-80 L 0,-80 L 0,-0 L 4.95,-0 L 4.95,-6 L 5.00572,-6.53017
 L 5.17046,-7.03717 L 5.437,-7.49884 L 5.79372,-7.895 L 6.22499,-8.20836 L 6.71201,-8.42519 L 7.23344,-8.53603
 L 7.76654,-8.53603 L 8.28798,-8.42519 L 8.77499,-8.20836 L 9.20627,-7.895 L 9.56299,-7.49884 L 9.82953,-7.03717
 L 9.99426,-6.53017 L 10.05,-6 L 10.05,-0 L 192.45,-0 L 192.45,-6 L 192.506,-6.53017
 L 192.67,-7.03717 L 192.937,-7.49884 L 193.294,-7.895 L 193.725,-8.20836 L 194.212,-8.42519 L 194.733,-8.53603
 L 195.267,-8.53603 L 195.788,-8.42519 L 196.275,-8.20836 L 196.706,-7.895 L 197.063,-7.49884 L 197.33,-7.03717
 L 197.494,-6.53017 L 197.55,-6 L 197.55,-0 L 379.95,-0 L 379.95,-6 L 380.006,-6.53017
 L 380.17,-7.03717 L 380.437,-7.49884 L 380.794,-7.895 L 381.225,-8.20836 L 381.712,-8.42519 L 382.233,-8.53603
 L 382.767,-8.53603 L 383.288,-8.42519 L 383.775,-8.20836 L 384.206,-7.895 L 384.563,-7.49884 L 384.83,-7.03717
 L 384.994,-6.53017 L 385.05,-6 L 385.05,-0 L 567.45,-0 L 567.45,-6 L 567.506,-6.53017
 L 567.67,-7.03717 L 567.937,-7.49884 L 568.294,-7.895 L 568.725,-8.20836 L 569.212,-8.42519 L 569.733,-8.53603
 L 570.267,-8.53603 L 570.788,-8.42519 L 571.275,-8.20836 L 571.706,-7.895 L 572.063,-7.49884 L 572.33,-7.03717
 L 572.494,-6.53017 L 572.55,-6 L 572.55,-0 L 754.95,-0 L 754.95,-6 L 755.006,-6.53017
 L 755.17,-7.03717 L 755.437,-7.49884 L 755.794,-7.895 L 756.225,-8.20836 L 756.712,-8.42519 L 757.233,-8.53603
 L 757.767,-8.53603 L 758.288,-8.42519 L 758.775,-8.20836 L 759.206,-7.895 L 759.563,-7.49884 L 759.83,-7.03717
 L 759.994,-6.53017 L 760.05,-6 L 760.05,-0 L 942.45,-0 L 942.45,-6 L 942.506,-6.53017
 L 942.67,-7.03717 L 942.937,-7.49884 L 943.294,-7.895 L 943.725,-8.20836 L 944.212,-8.42519 L 944.733,-8.53603
 L 945.267,-8.53603 L 945.788,-8.42519 L 946.275,-8.20836 L 946.706,-7.895 L 947.063,-7.49884 L 947.33,-7.03717
 L 947.494,-6.53017 L 947.55,-6 L 947.55,-0 L 1129.95,-0 L 1129.95,-6 L 1130.01,-6.53017
 L 1130.17,-7.03717 L 1130.44,-7.49884 L 1130.79,-7.895 L 1131.22,-8.20836 L 1131.71,-8.42519 L 1132.23,-8.53603
 L 1132.77,-8.53603 L 1133.29,-8.42519 L 1133.77,-8.20836 L 1134.21,-7.895 L 1134.56,-7.49884 L 1134.83,-7.03717
 L 1134.99,-6.53017 L 1135.05,-6 L 1135.05,-0 L 1140,-0 z
M 6.98573,-55.607 L 6.47708,-55.6875 L 5.97964,-55.8208 L 5.49887,-56.0054 L 5.04001,-56.2392 L 4.60811,-56.5196
 L 4.20789,-56.8437 L 3.84373,-57.2079 L 3.51964,-57.6081 L 3.23917,-58.04 L 3.00537,-58.4989 L 2.82082,-58.9796
 L 2.68752,-59.4771 L 2.60696,-59.9857 L 2.58,-60.5 L 2.60696,-61.0143 L 2.68752,-61.5229 L 2.82082,-62.0204
 L 3.00537,-62.5011 L 3.23917,-62.96 L 3.51964,-63.3919 L 3.84373,-63.7921 L 4.20789,-64.1563 L 4.60811,-64.4804
 L 4.95001,-64.7024 L 4.95001,-74 L 5.00574,-74.5302 L 5.17047,-75.0372 L 5.43701,-75.4988 L 5.79373,-75.895
 L 6.22501,-76.2084 L 6.71202,-76.4252 L 7.23346,-76.536 L 7.76654,-76.536 L 8.28798,-76.4252 L 8.77499,-76.2084
 L 9.20627,-75.895 L 9.56299,-75.4988 L 9.82953,-75.0372 L 9.99426,-74.5302 L 10.05,-74 L 10.05,-64.7024
 L 10.3919,-64.4804 L 10.7921,-64.1563 L 11.1563,-63.7921 L 11.4804,-63.3919 L 11.7608,-62.96 L 11.9946,-62.5011
 L 12.1792,-62.0204 L 12.3125,-61.5229 L 12.393,-61.0143 L 12.42,-60.5 L 12.393,-59.9857 L 12.3125,-59.4771
 L 12.1792,-58.9796 L 11.9946,-58.4989 L 11.7608,-58.04 L 11.4804,-57.6081 L 11.1563,-57.2079 L 10.7921,-56.8437
 L 10.3919,-56.5196 L 9.95999,-56.2392 L 9.50113,-56.0054 L 9.02036,-55.8208 L 8.52292,-55.6875 L 8.01427,-55.607
 L 7.5,-55.58 z
M 194.486,-55.607 L 193.977,-55.6875 L 193.48,-55.8208 L 192.999,-56.0054 L 192.54,-56.2392 L 192.108,-56.5196
 L 191.708,-56.8437 L 191.344,-57.2079 L 191.02,-57.6081 L 190.739,-58.04 L 190.505,-58.4989 L 190.321,-58.9796
 L 190.188,-59.4771 L 190.107,-59.9857 L 190.08,-60.5 L 190.107,-61.0143 L 190.188,-61.5229 L 190.321,-62.0204
 L 190.505,-62.5011 L 190.739,-62.96 L 191.02,-63.3919 L 191.344,-63.7921 L 191.708,-64.1563 L 192.108,-64.4804
 L 192.45,-64.7024 L 192.45,-74 L 192.506,-74.5302 L 192.67,-75.0372 L 192.937,-75.4988 L 193.294,-75.895
 L 193.725,-76.2084 L 194.212,-76.4252 L 194.733,-76.536 L 195.267,-76.536 L 195.788,-76.4252 L 196.275,-76.2084
 L 196.706,-75.895 L 197.063,-75.4988 L 197.33,-75.0372 L 197.494,-74.5302 L 197.55,-74 L 197.55,-64.7024
 L 197.892,-64.4804 L 198.292,-64.1563 L 198.656,-63.7921 L 198.98,-63.3919 L 199.261,-62.96 L 199.495,-62.5011
 L 199.679,-62.0204 L 199.812,-61.5229 L 199.893,-61.0143 L 199.92,-60.5 L 199.893,-59.9857 L 199.812,-59.4771
 L 199.679,-58.9796 L 199.495,-58.4989 L 199.261,-58.04 L 198.98,-57.6081 L 198.656,-57.2079 L 198.292,-56.8437
 L 197.892,-56.5196 L 197.46,-56.2392 L 197.001,-56.0054 L 196.52,-55.8208 L 196.023,-55.6875 L 195.514,-55.607
 L 195,-55.58 z
M 381.986,-55.607 L 381.477,-55.6875 L 380.98,-55.8208 L 380.499,-56.0054 L 380.04,-56.2392 L 379.608,-56.5196
 L 379.208,-56.8437 L 378.844,-57.2079 L 378.52,-57.6081 L 378.239,-58.04 L 378.005,-58.4989 L 377.821,-58.9796
 L 377.688,-59.4771 L 377.607,-59.9857 L 377.58,-60.5 L 377.607,-61.0143 L 377.688,-61.5229 L 377.821,-62.0204
 L 378.005,-62.5011 L 378.239,-62.96 L 378.52,-63.3919 L 378.844,-63.7921 L 379.208,-64.1563 L 379.608,-64.4804
 L 379.95,-64.7024 L 379.95,-74 L 380.006,-74.5302 L 380.17,-75.0372 L 380.437,-75.4988 L 380.794,-75.895
 L 381.225,-76.2084 L 381.712,-76.4252 L 382.233,-76.536 L 382.767,-76.536 L 383.288,-76.4252 L 383.775,-76.2084
 L 384.206,-75.895 L 384.563,-75.4988 L 384.83,-75.0372 L 384.994,-74.5302 L 385.05,-74 L 385.05,-64.7024
 L 385.392,-64.4804 L 385.792,-64.1563 L 386.156,-63.7921 L 386.48,-63.3919 L 386.761,-62.96 L 386.995,-62.5011
 L 387.179,-62.0204 L 387.312,-61.5229 L 387.393,-61.0143 L 387.42,-60.5 L 387.393,-59.9857 L 387.312,-59.4771
 L 387.179,-58.9796 L 386.995,-58.4989 L 386.761,-58.04 L 386.48,-57.6081 L 386.156,-57.2079 L 385.792,-56.8437
 L 385.392,-56.5196 L 384.96,-56.2392 L 384.501,-56.0054 L 384.02,-55.8208 L 383.523,-55.6875 L 383.014,-55.607
 L 382.5,-55.58 z
M 569.486,-55.607 L 568.977,-55.6875 L 568.48,-55.8208 L 567.999,-56.0054 L 567.54,-56.2392 L 567.108,-56.5196
 L 566.708,-56.8437 L 566.344,-57.2079 L 566.02,-57.6081 L 565.739,-58.04 L 565.505,-58.4989 L 565.321,-58.9796
 L 565.188,-59.4771 L 565.107,-59.9857 L 565.08,-60.5 L 565.107,-61.0143 L 565.188,-61.5229 L 565.321,-62.0204
 L 565.505,-62.5011 L 565.739,-62.96 L 566.02,-63.3919 L 566.344,-63.7921 L 566.708,-64.1563 L 567.108,-64.4804
 L 567.45,-64.7024 L 567.45,-74 L 567.506,-74.5302 L 567.67,-75.0372 L 567.937,-75.4988 L 568.294,-75.895
 L 568.725,-76.2084 L 569.212,-76.4252 L 569.733,-76.536 L 570.267,-76.536 L 570.788,-76.4252 L 571.275,-76.2084
 L 571.706,-75.895 L 572.063,-75.4988 L 572.33,-75.0372 L 572.494,-74.5302 L 572.55,-74 L 572.55,-64.7024
 L 572.892,-64.4804 L 573.292,-64.1563 L 573.656,-63.7921 L 573.98,-63.3919 L 574.261,-62.96 L 574.495,-62.5011
 L 574.679,-62.0204 L 574.812,-61.5229 L 574.893,-61.0143 L 574.92,-60.5 L 574.893,-59.9857 L 574.812,-59.4771
 L 574.679,-58.9796 L 574.495,-58.4989 L 574.261,-58.04 L 573.98,-57.6081 L 573.656,-57.2079 L 573.292,-56.8437
 L 572.892,-56.5196 L 572.46,-56.2392 L 572.001,-56.0054 L 571.52,-55.8208 L 571.023,-55.6875 L 570.514,-55.607
 L 570,-55.58 z
M 756.986,-55.607 L 756.477,-55.6875 L 755.98,-55.8208 L 755.499,-56.0054 L 755.04,-56.2392 L 754.608,-56.5196
 L 754.208,-56.8437 L 753.844,-57.2079 L 753.52,-57.6081 L 753.239,-58.04 L 753.005,-58.4989 L 752.821,-58.9796
 L 752.688,-59.4771 L 752.607,-59.9857 L 752.58,-60.5 L 752.607,-61.0143 L 752.688,-61.5229 L 752.821,-62.0204
 L 753.005,-62.5011 L 753.239,-62.96 L 753.52,-63.3919 L 753.844,-63.7921 L 754.208,-64.1563 L 754.608,-64.4804
 L 754.95,-64.7024 L 754.95,-74 L 755.006,-74.5302 L 755.17,-75.0372 L 755.437,-75.4988 L 755.794,-75.895
 L 756.225,-76.2084 L 756.712,-76.4252 L 757.233,-76.536 L 757.767,-76.536 L 758.288,-76.4252 L 758.775,-76.2084
 L 759.206,-75.895 L 759.563,-75.4988 L 759.83,-75.0372 L 759.994,-74.5302 L 760.05,-74 L 760.05,-64.7024
 L 760.392,-64.4804 L 760.792,-64.1563 L 761.156,-63.7921 L 761.48,-63.3919 L 761.761,-62.96 L 761.995,-62.5011
 L 762.179,-62.0204 L 762.312,-61.5229 L 762.393,-61.0143 L 762.42,-60.5 L 762.393,-59.9857 L 762.312,-59.4771
 L 762.179,-58.9796 L 761.995,-58.4989 L 761.761,-58.04 L 761.48,-57.6081 L 761.156,-57.2079 L 760.792,-56.8437
 L 760.392,-56.5196 L 759.96,-56.2392 L 759.501,-56.0054 L 759.02,-55.8208 L 758.523,-55.6875 L 758.014,-55.607
 L 757.5,-55.58 z
M 944.486,-55.607 L 943.977,-55.6875 L 943.48,-55.8208 L 942.999,-56.0054 L 942.54,-56.2392 L 942.108,-56.5196
 L 941.708,-56.8437 L 941.344,-57.2079 L 941.02,-57.6081 L 940.739,-58.04 L 940.505,-58.4989 L 940.321,-58.9796
 L 940.188,-59.4771 L 940.107,-59.9857 L 940.08,-60.5 L 940.107,-61.0143 L 940.188,-61.5229 L 940.321,-62.0204
 L 940.505,-62.5011 L 940.739,-62.96 L 941.02,-63.3919 L 941.344,-63.7921 L 941.708,-64.1563 L 942.108,-64.4804
 L 942.45,-64.7024 L 942.45,-74 L 942.506,-74.5302 L 942.67,-75.0372 L 942.937,-75.4988 L 943.294,-75.895
 L 943.725,-76.2084 L 944.212,-76.4252 L 944.733,-76.536 L 945.267,-76.536 L 945.788,-76.4252 L 946.275,-76.2084
 L 946.706,-75.895 L 947.063,-75.4988 L 947.33,-75.0372 L 947.494,-74.5302 L 947.55,-74 L 947.55,-64.7024
 L 947.892,-64.4804 L 948.292,-64.1563 L 948.656,-63.7921 L 948.98,-63.3919 L 949.261,-62.96 L 949.495,-62.5011
 L 949.679,-62.0204 L 949.812,-61.5229 L 949.893,-61.0143 L 949.92,-60.5 L 949.893,-59.9857 L 949.812,-59.4771
 L 949.679,-58.9796 L 949.495,-58.4989 L 949.261,-58.04 L 948.98,-57.6081 L 948.656,-57.2079 L 948.292,-56.8437
 L 947.892,-56.5196 L 947.46,-56.2392 L 947.001,-56.0054 L 946.52,-55.8208 L 946.023,-55.6875 L 945.514,-55.607
 L 945,-55.58 z
M 1131.99,-55.607 L 1131.48,-55.6875 L 1130.98,-55.8208 L 1130.5,-56.0054 L 1130.04,-56.2392 L 1129.61,-56.5196
 L 1129.21,-56.8437 L 1128.84,-57.2079 L 1128.52,-57.6081 L 1128.24,-58.04 L 1128.01,-58.4989 L 1127.82,-58.9796
 L 1127.69,-59.4771 L 1127.61,-59.9857 L 1127.58,-60.5 L 1127.61,-61.0143 L 1127.69,-61.5229 L 1127.82,-62.0204
 L 1128.01,-62.5011 L 1128.24,-62.96 L 1128.52,-63.3919 L 1128.84,-63.7921 L 1129.21,-64.1563 L 1129.61,-64.4804
 L 1129.95,-64.7024 L 1129.95,-74 L 1130.01,-74.5302 L 1130.17,-75.0372 L 1130.44,-75.4988 L 1130.79,-75.895
 L 1131.23,-76.2084 L 1131.71,-76.4252 L 1132.23,-76.536 L 1132.77,-76.536 L 1133.29,-76.4252 L 1133.77,-76.2084
 L 1134.21,-75.895 L 1134.56,-75.4988 L 1134.83,-75.0372 L 1134.99,-74.5302 L 1135.05,-74 L 1135.05,-64.7024
 L 1135.39,-64.4804 L 1135.79,-64.1563 L 1136.16,-63.7921 L 1136.48,-63.3919 L 1136.76,-62.96 L 1136.99,-62.5011
 L 1137.18,-62.0204 L 1137.31,-61.5229 L 1137.39,-61.0143 L 1137.42,-60.5 L 1137.39,-59.9857 L 1137.31,-59.4771
 L 1137.18,-58.9796 L 1136.99,-58.4989 L 1136.76,-58.04 L 1136.48,-57.6081 L 1136.16,-57.2079 L 1135.79,-56.8437
 L 1135.39,-56.5196 L 1134.96,-56.2392 L 1134.5,-56.0054 L 1134.02,-55.8208 L 1133.52,-55.6875 L 1133.01,-55.607
 L 1132.5,-55.58 z
M 956.893,-20.6915 L 956.118,-21.0057 L 955.425,-21.4741 L 954.845,-22.0763 L 954.403,-22.7859 L 954.118,-23.5721
 L 954,-24.5353 L 954,-58 L 954.087,-58.8316 L 954.346,-59.627 L 954.764,-60.3511 L 955.323,-60.9726
 L 956,-61.4641 L 956.764,-61.8042 L 958,-62 L 1050.27,-62 L 1051.11,-61.9126 L 1051.9,-61.6542
 L 1052.63,-61.2361 L 1053.25,-60.6765 L 1053.74,-60 L 1054.08,-59.2361 L 1054.25,-58.4181 L 1054.25,-57.5819
 L 1054.08,-56.7639 L 1053.74,-56 L 1053.25,-55.3235 L 1052.63,-54.7639 L 1051.64,-54.2397 L 959.364,-20.7749
 L 958.552,-20.5736 L 957.716,-20.5454 z
M 368.948,-20.5736 L 368.136,-20.7749 L 275.862,-54.2397 L 274.875,-54.7639 L 274.253,-55.3235 L 273.762,-56
 L 273.422,-56.7639 L 273.248,-57.5819 L 273.248,-58.4181 L 273.422,-59.2361 L 273.762,-60 L 274.253,-60.6765
 L 274.875,-61.2361 L 275.599,-61.6542 L 276.394,-61.9126 L 277.226,-62 L 369.5,-62 L 370.736,-61.8042
 L 371.5,-61.4641 L 372.177,-60.9726 L 372.736,-60.3511 L 373.154,-59.627 L 373.413,-58.8316 L 373.5,-58
 L 373.5,-24.5353 L 373.382,-23.5721 L 373.097,-22.7859 L 372.655,-22.0763 L 372.075,-21.4741 L 371.382,-21.0057
 L 370.607,-20.6915 L 369.784,-20.5454 z
M 181.448,-20.5736 L 180.636,-20.7749 L 88.3623,-54.2397 L 87.3749,-54.7639 L 86.7534,-55.3235 L 86.2619,-56
 L 85.9218,-56.7639 L 85.7479,-57.5819 L 85.7479,-58.4181 L 85.9218,-59.2361 L 86.2619,-60 L 86.7534,-60.6765
 L 87.3749,-61.2361 L 88.0991,-61.6542 L 88.8944,-61.9126 L 89.726,-62 L 182,-62 L 183.236,-61.8042
 L 184,-61.4641 L 184.677,-60.9726 L 185.236,-60.3511 L 185.654,-59.627 L 185.913,-58.8316 L 186,-58
 L 186,-24.5353 L 185.882,-23.5721 L 185.597,-22.7859 L 185.155,-22.0763 L 184.575,-21.4741 L 183.882,-21.0057
 L 183.107,-20.6915 L 182.284,-20.5454 z
M 556.448,-20.5736 L 555.636,-20.7749 L 463.362,-54.2397 L 462.375,-54.7639 L 461.753,-55.3235 L 461.262,-56
 L 460.922,-56.7639 L 460.748,-57.5819 L 460.748,-58.4181 L 460.922,-59.2361 L 461.262,-60 L 461.753,-60.6765
 L 462.375,-61.2361 L 463.099,-61.6542 L 463.894,-61.9126 L 464.726,-62 L 557,-62 L 558.236,-61.8042
 L 559,-61.4641 L 559.677,-60.9726 L 560.236,-60.3511 L 560.654,-59.627 L 560.913,-58.8316 L 561,-58
 L 561,-24.5353 L 560.882,-23.5721 L 560.597,-22.7859 L 560.155,-22.0763 L 559.575,-21.4741 L 558.882,-21.0057
 L 558.107,-20.6915 L 557.284,-20.5454 z
M 581.893,-20.6915 L 581.118,-21.0057 L 580.425,-21.4741 L 579.845,-22.0763 L 579.403,-22.7859 L 579.118,-23.5721
 L 579,-24.5353 L 579,-58 L 579.087,-58.8316 L 579.346,-59.627 L 579.764,-60.3511 L 580.323,-60.9726
 L 581,-61.4641 L 581.764,-61.8042 L 583,-62 L 675.274,-62 L 676.106,-61.9126 L 676.901,-61.6542
 L 677.625,-61.2361 L 678.247,-60.6765 L 678.738,-60 L 679.078,-59.2361 L 679.252,-58.4181 L 679.252,-57.5819
 L 679.078,-56.7639 L 678.738,-56 L 678.247,-55.3235 L 677.625,-54.7639 L 676.638,-54.2397 L 584.364,-20.7749
 L 583.552,-20.5736 L 582.716,-20.5454 z
M 769.393,-20.6915 L 768.618,-21.0057 L 767.925,-21.4741 L 767.345,-22.0763 L 766.903,-22.7859 L 766.618,-23.5721
 L 766.5,-24.5353 L 766.5,-58 L 766.587,-58.8316 L 766.846,-59.627 L 767.264,-60.3511 L 767.823,-60.9726
 L 768.5,-61.4641 L 769.264,-61.8042 L 770.5,-62 L 862.774,-62 L 863.606,-61.9126 L 864.401,-61.6542
 L 865.125,-61.2361 L 865.747,-60.6765 L 866.238,-60 L 866.578,-59.2361 L 866.752,-58.4181 L 866.752,-57.5819
 L 866.578,-56.7639 L 866.238,-56 L 865.747,-55.3235 L 865.125,-54.7639 L 864.138,-54.2397 L 771.864,-20.7749
 L 771.052,-20.5736 L 770.216,-20.5454 z
M 208,-18 L 206.764,-18.1958 L 206,-18.5359 L 205.323,-19.0274 L 204.764,-19.6489 L 204.346,-20.373
 L 204.087,-21.1684 L 204,-22 L 204,-55.4647 L 204.118,-56.4279 L 204.403,-57.214 L 204.845,-57.9237
 L 205.425,-58.5259 L 206.118,-58.9943 L 206.893,-59.3085 L 207.716,-59.4546 L 208.552,-59.4264 L 209.364,-59.225
 L 301.638,-25.7603 L 302.625,-25.2361 L 303.247,-24.6765 L 303.738,-24 L 304.078,-23.2361 L 304.252,-22.4181
 L 304.252,-21.5819 L 304.078,-20.7639 L 303.738,-20 L 303.247,-19.3235 L 302.625,-18.7639 L 301.901,-18.3458
 L 301.106,-18.0874 L 300.274,-18 z
M 395.5,-18 L 394.264,-18.1958 L 393.5,-18.5359 L 392.823,-19.0274 L 392.264,-19.6489 L 391.846,-20.373
 L 391.587,-21.1684 L 391.5,-22 L 391.5,-55.4647 L 391.618,-56.4279 L 391.903,-57.214 L 392.345,-57.9237
 L 392.925,-58.5259 L 393.618,-58.9943 L 394.393,-59.3085 L 395.216,-59.4546 L 396.052,-59.4264 L 396.864,-59.225
 L 489.138,-25.7603 L 490.125,-25.2361 L 490.747,-24.6765 L 491.238,-24 L 491.578,-23.2361 L 491.752,-22.4181
 L 491.752,-21.5819 L 491.578,-20.7639 L 491.238,-20 L 490.747,-19.3235 L 490.125,-18.7639 L 489.401,-18.3458
 L 488.606,-18.0874 L 487.774,-18 z
M 652.226,-18 L 651.394,-18.0874 L 650.599,-18.3458 L 649.875,-18.7639 L 649.253,-19.3235 L 648.762,-20
 L 648.422,-20.7639 L 648.248,-21.5819 L 648.248,-22.4181 L 648.422,-23.2361 L 648.762,-24 L 649.253,-24.6765
 L 649.875,-25.2361 L 650.862,-25.7603 L 743.136,-59.225 L 743.948,-59.4264 L 744.784,-59.4546 L 745.607,-59.3085
 L 746.382,-58.9943 L 747.075,-58.5259 L 747.655,-57.9237 L 748.097,-57.214 L 748.382,-56.4279 L 748.5,-55.4647
 L 748.5,-22 L 748.413,-21.1684 L 748.154,-20.373 L 747.736,-19.6489 L 747.177,-19.0274 L 746.5,-18.5359
 L 745.736,-18.1958 L 744.5,-18 z
M 839.726,-18 L 838.894,-18.0874 L 838.099,-18.3458 L 837.375,-18.7639 L 836.753,-19.3235 L 836.262,-20
 L 835.922,-20.7639 L 835.748,-21.5819 L 835.748,-22.4181 L 835.922,-23.2361 L 836.262,-24 L 836.753,-24.6765
 L 837.375,-25.2361 L 838.362,-25.7603 L 930.636,-59.225 L 931.448,-59.4264 L 932.284,-59.4546 L 933.107,-59.3085
 L 933.882,-58.9943 L 934.575,-58.5259 L 935.155,-57.9237 L 935.597,-57.214 L 935.882,-56.4279 L 936,-55.4647
 L 936,-22 L 935.913,-21.1684 L 935.654,-20.373 L 935.236,-19.6489 L 934.677,-19.0274 L 934,-18.5359
 L 933.236,-18.1958 L 932,-18 z
M 1027.23,-18 L 1026.39,-18.0874 L 1025.6,-18.3458 L 1024.87,-18.7639 L 1024.25,-19.3235 L 1023.76,-20
 L 1023.42,-20.7639 L 1023.25,-21.5819 L 1023.25,-22.4181 L 1023.42,-23.2361 L 1023.76,-24 L 1024.25,-24.6765
 L 1024.87,-25.2361 L 1025.86,-25.7603 L 1116.64,-58.681 L 1117.45,-58.8824 L 1118.28,-58.9106 L 1119.11,-58.7645
 L 1119.88,-58.4503 L 1120.57,-57.9819 L 1121.15,-57.3797 L 1121.6,-56.67 L 1121.88,-55.8839 L 1122,-54.9207
 L 1122,-22 L 1121.91,-21.1684 L 1121.65,-20.373 L 1121.24,-19.6489 L 1120.68,-19.0274 L 1120,-18.5359
 L 1119.24,-18.1958 L 1118,-18 z
M 22,-18 L 20.7639,-18.1958 L 20,-18.5359 L 19.3235,-19.0274 L 18.7639,-19.6489 L 18.3458,-20.373
 L 18.0874,-21.1684 L 18,-22 L 18,-54.9207 L 18.1177,-55.8839 L 18.4028,-56.67 L 18.8451,-57.3797
 L 19.4253,-57.9819 L 20.118,-58.4503 L 20.893,-58.7645 L 21.7164,-58.9106 L 22.5521,-58.8824 L 23.3638,-58.681
 L 114.138,-25.7603 L 115.125,-25.2361 L 115.747,-24.6765 L 116.238,-24 L 116.578,-23.2361 L 116.752,-22.4181
 L 116.752,-21.5819 L 116.578,-20.7639 L 116.238,-20 L 115.747,-19.3235 L 115.125,-18.7639 L 114.401,-18.3458
 L 113.606,-18.0874 L 112.774,-18 z
" stroke="black" fill="lightgray" stroke-width="0.5"/>
</svg>
