<?xml version="1.0" standalone="no"?>
<!DOCTYPE svg PUBLIC "-//W3C//DTD SVG 1.1//EN" "http://www.w3.org/Graphics/SVG/1.1/DTD/svg11.dtd">
<svg width="1120mm" height="80mm" viewBox="0 -80 1120 80" xmlns="http://www.w3.org/2000/svg" version="1.1">
<title>OpenSCAD Model</title>
<path d="
M 1120,-80 L 0,-80 L 0,-0 L 4.95,-0 L 4.95,-6 L 5.00572,-6.53017
 L 5.17046,-7.03717 L 5.437,-7.49884 L 5.79372,-7.895 L 6.22499,-8.20836 L 6.71201,-8.42519 L 7.23344,-8.53603
 L 7.76654,-8.53603 L 8.28798,-8.42519 L 8.77499,-8.20836 L 9.20627,-7.895 L 9.56299,-7.49884 L 9.82953,-7.03717
 L 9.99426,-6.53017 L 10.05,-6 L 10.05,-0 L 189.117,-0 L 189.117,-6 L 189.172,-6.53017
 L 189.337,-7.03717 L 189.604,-7.49884 L 189.96,-7.895 L 190.392,-8.20836 L 190.879,-8.42519 L 191.4,-8.53603
 L 191.933,-8.53603 L 192.455,-8.42519 L 192.942,-8.20836 L 193.373,-7.895 L 193.73,-7.49884 L 193.996,-7.03717
 L 194.161,-6.53017 L 194.217,-6 L 194.217,-0 L 373.283,-0 L 373.283,-6 L 373.339,-6.53017
 L 373.504,-7.03717 L 373.77,-7.49884 L 374.127,-7.895 L 374.558,-8.20836 L 375.045,-8.42519 L 375.567,-8.53603
 L 376.1,-8.53603 L 376.621,-8.42519 L 377.108,-8.20836 L 377.54,-7.895 L 377.896,-7.49884 L 378.163,-7.03717
 L 378.328,-6.53017 L 378.383,-6 L 378.383,-0 L 557.45,-0 L 557.45,-6 L 557.506,-6.53017
 L 557.67,-7.03717 L 557.937,-7.49884 L 558.294,-7.895 L 558.725,-8.20836 L 559.212,-8.42519 L 559.733,-8.53603
 L 560.267,-8.53603 L 560.788,-8.42519 L 561.275,-8.20836 L 561.706,-7.895 L 562.063,-7.49884 L 562.33,-7.03717
 L 562.494,-6.53017 L 562.55,-6 L 562.55,-0 L 741.617,-0 L 741.617,-6 L 741.672,-6.53017
 L 741.837,-7.03717 L 742.104,-7.49884 L 742.46,-7.895 L 742.892,-8.20836 L 743.379,-8.42519 L 743.9,-8.53603
 L 744.433,-8.53603 L 744.955,-8.42519 L 745.442,-8.20836 L 745.873,-7.895 L 746.23,-7.49884 L 746.496,-7.03717
 L 746.661,-6.53017 L 746.717,-6 L 746.717,-0 L 925.783,-0 L 925.783,-6 L 925.839,-6.53017
 L 926.004,-7.03717 L 926.27,-7.49884 L 926.627,-7.895 L 927.058,-8.20836 L 927.545,-8.42519 L 928.067,-8.53603
 L 928.6,-8.53603 L 929.121,-8.42519 L 929.608,-8.20836 L 930.04,-7.895 L 930.396,-7.49884 L 930.663,-7.03717
 L 930.828,-6.53017 L 930.883,-6 L 930.883,-0 L 1109.95,-0 L 1109.95,-6 L 1110.01,-6.53017
 L 1110.17,-7.03717 L 1110.44,-7.49884 L 1110.79,-7.895 L 1111.22,-8.20836 L 1111.71,-8.42519 L 1112.23,-8.53603
 L 1112.77,-8.53603 L 1113.29,-8.42519 L 1113.77,-8.20836 L 1114.21,-7.895 L 1114.56,-7.49884 L 1114.83,-7.03717
 L 1114.99,-6.53017 L 1115.05,-6 L 1115.05,-0 L 1120,-0 z
M 6.98573,-55.607 L 6.47708,-55.6875 L 5.97964,-55.8208 L 5.49887,-56.0054 L 5.04001,-56.2392 L 4.60811,-56.5196
 L 4.20789,-56.8437 L 3.84373,-57.2079 L 3.51964,-57.6081 L 3.23917,-58.04 L 3.00537,-58.4989 L 2.82082,-58.9796
 L 2.68752,-59.4771 L 2.60696,-59.9857 L 2.58,-60.5 L 2.60696,-61.0143 L 2.68752,-61.5229 L 2.82082,-62.0204
 L 3.00537,-62.5011 L 3.23917,-62.96 L 3.51964,-63.3919 L 3.84373,-63.7921 L 4.20789,-64.1563 L 4.60811,-64.4804
 L 4.95001,-64.7024 L 4.95001,-74 L 5.00574,-74.5302 L 5.17047,-75.0372 L 5.43701,-75.4988 L 5.79373,-75.895
 L 6.22501,-76.2084 L 6.71202,-76.4252 L 7.23346,-76.536 L 7.76654,-76.536 L 8.28798,-76.4252 L 8.77499,-76.2084
 L 9.20627,-75.895 L 9.56299,-75.4988 L 9.82953,-75.0372 L 9.99426,-74.5302 L 10.05,-74 L 10.05,-64.7024
 L 10.3919,-64.4804 L 10.7921,-64.1563 L 11.1563,-63.7921 L 11.4804,-63.3919 L 11.7608,-62.96 L 11.9946,-62.5011
 L 12.1792,-62.0204 L 12.3125,-61.5229 L 12.393,-61.0143 L 12.42,-60.5 L 12.393,-59.9857 L 12.3125,-59.4771
 L 12.1792,-58.9796 L 11.9946,-58.4989 L 11.7608,-58.04 L 11.4804,-57.6081 L 11.1563,-57.2079 L 10.7921,-56.8437
 L 10.3919,-56.5196 L 9.95999,-56.2392 L 9.50113,-56.0054 L 9.02036,-55.8208 L 8.52292,-55.6875 L 8.01427,-55.607
 L 7.5,-55.58 z
M 191.152,-55.607 L 190.644,-55.6875 L 190.146,-55.8208 L 189.666,-56.0054 L 189.207,-56.2392 L 188.775,-56.5196
 L 188.375,-56.8437 L 188.01,-57.2079 L 187.686,-57.6081 L 187.406,-58.04 L 187.172,-58.4989 L 186.987,-58.9796
 L 186.854,-59.4771 L 186.774,-59.9857 L 186.747,-60.5 L 186.774,-61.0143 L 186.854,-61.5229 L 186.987,-62.0204
 L 187.172,-62.5011 L 187.406,-62.96 L 187.686,-63.3919 L 188.01,-63.7921 L 188.375,-64.1563 L 188.775,-64.4804
 L 189.117,-64.7024 L 189.117,-74 L 189.172,-74.5302 L 189.337,-75.0372 L 189.604,-75.4988 L 189.96,-75.895
 L 190.392,-76.2084 L 190.879,-76.4252 L 191.4,-76.536 L 191.933,-76.536 L 192.455,-76.4252 L 192.942,-76.2084
 L 193.373,-75.895 L 193.73,-75.4988 L 193.996,-75.0372 L 194.161,-74.5302 L 194.217,-74 L 194.217,-64.7024
 L 194.559,-64.4804 L 194.959,-64.1563 L 195.323,-63.7921 L 195.647,-63.3919 L 195.927,-62.96 L 196.161,-62.5011
 L 196.346,-62.0204 L 196.479,-61.5229 L 196.56,-61.0143 L 196.587,-60.5 L 196.56,-59.9857 L 196.479,-59.4771
 L 196.346,-58.9796 L 196.161,-58.4989 L 195.927,-58.04 L 195.647,-57.6081 L 195.323,-57.2079 L 194.959,-56.8437
 L 194.559,-56.5196 L 194.127,-56.2392 L 193.668,-56.0054 L 193.187,-55.8208 L 192.69,-55.6875 L 192.181,-55.607
 L 191.667,-55.58 z
M 375.319,-55.607 L 374.81,-55.6875 L 374.313,-55.8208 L 373.832,-56.0054 L 373.373,-56.2392 L 372.941,-56.5196
 L 372.541,-56.8437 L 372.177,-57.2079 L 371.853,-57.6081 L 371.572,-58.04 L 371.339,-58.4989 L 371.154,-58.9796
 L 371.021,-59.4771 L 370.94,-59.9857 L 370.913,-60.5 L 370.94,-61.0143 L 371.021,-61.5229 L 371.154,-62.0204
 L 371.339,-62.5011 L 371.572,-62.96 L 371.853,-63.3919 L 372.177,-63.7921 L 372.541,-64.1563 L 372.941,-64.4804
 L 373.283,-64.7024 L 373.283,-74 L 373.339,-74.5302 L 373.504,-75.0372 L 373.77,-75.4988 L 374.127,-75.895
 L 374.558,-76.2084 L 375.045,-76.4252 L 375.567,-76.536 L 376.1,-76.536 L 376.621,-76.4252 L 377.108,-76.2084
 L 377.54,-75.895 L 377.896,-75.4988 L 378.163,-75.0372 L 378.328,-74.5302 L 378.383,-74 L 378.383,-64.7024
 L 378.725,-64.4804 L 379.125,-64.1563 L 379.49,-63.7921 L 379.814,-63.3919 L 380.094,-62.96 L 380.328,-62.5011
 L 380.513,-62.0204 L 380.646,-61.5229 L 380.726,-61.0143 L 380.753,-60.5 L 380.726,-59.9857 L 380.646,-59.4771
 L 380.513,-58.9796 L 380.328,-58.4989 L 380.094,-58.04 L 379.814,-57.6081 L 379.49,-57.2079 L 379.125,-56.8437
 L 378.725,-56.5196 L 378.293,-56.2392 L 377.834,-56.0054 L 377.354,-55.8208 L 376.856,-55.6875 L 376.348,-55.607
 L 375.833,-55.58 z
M 559.486,-55.607 L 558.977,-55.6875 L 558.48,-55.8208 L 557.999,-56.0054 L 557.54,-56.2392 L 557.108,-56.5196
 L 556.708,-56.8437 L 556.344,-57.2079 L 556.02,-57.6081 L 555.739,-58.04 L 555.505,-58.4989 L 555.321,-58.9796
 L 555.188,-59.4771 L 555.107,-59.9857 L 555.08,-60.5 L 555.107,-61.0143 L 555.188,-61.5229 L 555.321,-62.0204
 L 555.505,-62.5011 L 555.739,-62.96 L 556.02,-63.3919 L 556.344,-63.7921 L 556.708,-64.1563 L 557.108,-64.4804
 L 557.45,-64.7024 L 557.45,-74 L 557.506,-74.5302 L 557.67,-75.0372 L 557.937,-75.4988 L 558.294,-75.895
 L 558.725,-76.2084 L 559.212,-76.4252 L 559.733,-76.536 L 560.267,-76.536 L 560.788,-76.4252 L 561.275,-76.2084
 L 561.706,-75.895 L 562.063,-75.4988 L 562.33,-75.0372 L 562.494,-74.5302 L 562.55,-74 L 562.55,-64.7024
 L 562.892,-64.4804 L 563.292,-64.1563 L 563.656,-63.7921 L 563.98,-63.3919 L 564.261,-62.96 L 564.495,-62.5011
 L 564.679,-62.0204 L 564.812,-61.5229 L 564.893,-61.0143 L 564.92,-60.5 L 564.893,-59.9857 L 564.812,-59.4771
 L 564.679,-58.9796 L 564.495,-58.4989 L 564.261,-58.04 L 563.98,-57.6081 L 563.656,-57.2079 L 563.292,-56.8437
 L 562.892,-56.5196 L 562.46,-56.2392 L 562.001,-56.0054 L 561.52,-55.8208 L 561.023,-55.6875 L 560.514,-55.607
 L 560,-55.58 z
M 743.652,-55.607 L 743.144,-55.6875 L 742.646,-55.8208 L 742.166,-56.0054 L 741.707,-56.2392 L 741.275,-56.5196
 L 740.875,-56.8437 L 740.51,-57.2079 L 740.186,-57.6081 L 739.906,-58.04 L 739.672,-58.4989 L 739.487,-58.9796
 L 739.354,-59.4771 L 739.274,-59.9857 L 739.247,-60.5 L 739.274,-61.0143 L 739.354,-61.5229 L 739.487,-62.0204
 L 739.672,-62.5011 L 739.906,-62.96 L 740.186,-63.3919 L 740.51,-63.7921 L 740.875,-64.1563 L 741.275,-64.4804
 L 741.617,-64.7024 L 741.617,-74 L 741.672,-74.5302 L 741.837,-75.0372 L 742.104,-75.4988 L 742.46,-75.895
 L 742.892,-76.2084 L 743.379,-76.4252 L 743.9,-76.536 L 744.433,-76.536 L 744.955,-76.4252 L 745.442,-76.2084
 L 745.873,-75.895 L 746.23,-75.4988 L 746.496,-75.0372 L 746.661,-74.5302 L 746.717,-74 L 746.717,-64.7024
 L 747.059,-64.4804 L 747.459,-64.1563 L 747.823,-63.7921 L 748.147,-63.3919 L 748.427,-62.96 L 748.661,-62.5011
 L 748.846,-62.0204 L 748.979,-61.5229 L 749.06,-61.0143 L 749.087,-60.5 L 749.06,-59.9857 L 748.979,-59.4771
 L 748.846,-58.9796 L 748.661,-58.4989 L 748.427,-58.04 L 748.147,-57.6081 L 747.823,-57.2079 L 747.459,-56.8437
 L 747.059,-56.5196 L 746.627,-56.2392 L 746.168,-56.0054 L 745.687,-55.8208 L 745.19,-55.6875 L 744.681,-55.607
 L 744.167,-55.58 z
M 927.819,-55.607 L 927.31,-55.6875 L 926.813,-55.8208 L 926.332,-56.0054 L 925.873,-56.2392 L 925.441,-56.5196
 L 925.041,-56.8437 L 924.677,-57.2079 L 924.353,-57.6081 L 924.072,-58.04 L 923.839,-58.4989 L 923.654,-58.9796
 L 923.521,-59.4771 L 923.44,-59.9857 L 923.413,-60.5 L 923.44,-61.0143 L 923.521,-61.5229 L 923.654,-62.0204
 L 923.839,-62.5011 L 924.072,-62.96 L 924.353,-63.3919 L 924.677,-63.7921 L 925.041,-64.1563 L 925.441,-64.4804
 L 925.783,-64.7024 L 925.783,-74 L 925.839,-74.5302 L 926.004,-75.0372 L 926.27,-75.4988 L 926.627,-75.895
 L 927.058,-76.2084 L 927.545,-76.4252 L 928.067,-76.536 L 928.6,-76.536 L 929.121,-76.4252 L 929.608,-76.2084
 L 930.04,-75.895 L 930.396,-75.4988 L 930.663,-75.0372 L 930.828,-74.5302 L 930.883,-74 L 930.883,-64.7024
 L 931.225,-64.4804 L 931.625,-64.1563 L 931.99,-63.7921 L 932.314,-63.3919 L 932.594,-62.96 L 932.828,-62.5011
 L 933.013,-62.0204 L 933.146,-61.5229 L 933.226,-61.0143 L 933.253,-60.5 L 933.226,-59.9857 L 933.146,-59.4771
 L 933.013,-58.9796 L 932.828,-58.4989 L 932.594,-58.04 L 932.314,-57.6081 L 931.99,-57.2079 L 931.625,-56.8437
 L 931.225,-56.5196 L 930.793,-56.2392 L 930.334,-56.0054 L 929.854,-55.8208 L 929.356,-55.6875 L 928.848,-55.607
 L 928.333,-55.58 z
M 1111.99,-55.607 L 1111.48,-55.6875 L 1110.98,-55.8208 L 1110.5,-56.0054 L 1110.04,-56.2392 L 1109.61,-56.5196
 L 1109.21,-56.8437 L 1108.84,-57.2079 L 1108.52,-57.6081 L 1108.24,-58.04 L 1108.01,-58.4989 L 1107.82,-58.9796
 L 1107.69,-59.4771 L 1107.61,-59.9857 L 1107.58,-60.5 L 1107.61,-61.0143 L 1107.69,-61.5229 L 1107.82,-62.0204
 L 1108.01,-62.5011 L 1108.24,-62.96 L 1108.52,-63.3919 L 1108.84,-63.7921 L 1109.21,-64.1563 L 1109.61,-64.4804
 L 1109.95,-64.7024 L 1109.95,-74 L 1110.01,-74.5302 L 1110.17,-75.0372 L 1110.44,-75.4988 L 1110.79,-75.895
 L 1111.23,-76.2084 L 1111.71,-76.4252 L 1112.23,-76.536 L 1112.77,-76.536 L 1113.29,-76.4252 L 1113.77,-76.2084
 L 1114.21,-75.895 L 1114.56,-75.4988 L 1114.83,-75.0372 L 1114.99,-74.5302 L 1115.05,-74 L 1115.05,-64.7024
 L 1115.39,-64.4804 L 1115.79,-64.1563 L 1116.16,-63.7921 L 1116.48,-63.3919 L 1116.76,-62.96 L 1116.99,-62.5011
 L 1117.18,-62.0204 L 1117.31,-61.5229 L 1117.39,-61.0143 L 1117.42,-60.5 L 1117.39,-59.9857 L 1117.31,-59.4771
 L 1117.18,-58.9796 L 1116.99,-58.4989 L 1116.76,-58.04 L 1116.48,-57.6081 L 1116.16,-57.2079 L 1115.79,-56.8437
 L 1115.39,-56.5196 L 1114.96,-56.2392 L 1114.5,-56.0054 L 1114.02,-55.8208 L 1113.52,-55.6875 L 1113.01,-55.607
 L 1112.5,-55.58 z
M 940.249,-20.7969 L 939.472,-21.1065 L 938.776,-21.5709 L 938.193,-22.1698 L 937.746,-22.8769 L 937.457,-23.6613
 L 937.333,-24.647 L 937.333,-58 L 937.421,-58.8316 L 937.679,-59.627 L 938.097,-60.3511 L 938.657,-60.9726
 L 939.333,-61.4641 L 940.097,-61.8042 L 941.333,-62 L 1031.66,-62 L 1032.5,-61.9126 L 1033.29,-61.6542
 L 1034.02,-61.2361 L 1034.64,-60.6765 L 1035.13,-60 L 1035.47,-59.2361 L 1035.64,-58.4181 L 1035.64,-57.5819
 L 1035.47,-56.7639 L 1035.13,-56 L 1034.64,-55.3235 L 1034.02,-54.7639 L 1033.05,-54.2476 L 942.719,-20.8946
 L 941.908,-20.6886 L 941.073,-20.6555 z
M 362.258,-20.6886 L 361.448,-20.8946 L 271.117,-54.2476 L 270.151,-54.7639 L 269.53,-55.3235 L 269.038,-56
 L 268.698,-56.7639 L 268.524,-57.5819 L 268.524,-58.4181 L 268.698,-59.2361 L 269.038,-60 L 269.53,-60.6765
 L 270.151,-61.2361 L 270.875,-61.6542 L 271.671,-61.9126 L 272.502,-62 L 362.833,-62 L 364.069,-61.8042
 L 364.833,-61.4641 L 365.51,-60.9726 L 366.069,-60.3511 L 366.487,-59.627 L 366.746,-58.8316 L 366.833,-58
 L 366.833,-24.647 L 366.71,-23.6613 L 366.42,-22.8769 L 365.974,-22.1698 L 365.39,-21.5709 L 364.695,-21.1065
 L 363.918,-20.7969 L 363.094,-20.6555 z
M 178.092,-20.6886 L 177.281,-20.8946 L 86.9501,-54.2476 L 85.9845,-54.7639 L 85.3631,-55.3235 L 84.8715,-56
 L 84.5314,-56.7639 L 84.3575,-57.5819 L 84.3575,-58.4181 L 84.5314,-59.2361 L 84.8715,-60 L 85.3631,-60.6765
 L 85.9845,-61.2361 L 86.7087,-61.6542 L 87.504,-61.9126 L 88.3356,-62 L 178.667,-62 L 179.903,-61.8042
 L 180.667,-61.4641 L 181.343,-60.9726 L 181.903,-60.3511 L 182.321,-59.627 L 182.579,-58.8316 L 182.667,-58
 L 182.667,-24.647 L 182.543,-23.6613 L 182.254,-22.8769 L 181.807,-22.1698 L 181.224,-21.5709 L 180.528,-21.1065
 L 179.751,-20.7969 L 178.927,-20.6555 z
M 546.425,-20.6886 L 545.614,-20.8946 L 455.283,-54.2476 L 454.318,-54.7639 L 453.696,-55.3235 L 453.205,-56
 L 452.865,-56.7639 L 452.691,-57.5819 L 452.691,-58.4181 L 452.865,-59.2361 L 453.205,-60 L 453.696,-60.6765
 L 454.318,-61.2361 L 455.042,-61.6542 L 455.837,-61.9126 L 456.669,-62 L 547,-62 L 548.236,-61.8042
 L 549,-61.4641 L 549.677,-60.9726 L 550.236,-60.3511 L 550.654,-59.627 L 550.913,-58.8316 L 551,-58
 L 551,-24.647 L 550.877,-23.6613 L 550.587,-22.8769 L 550.141,-22.1698 L 549.557,-21.5709 L 548.861,-21.1065
 L 548.085,-20.7969 L 547.26,-20.6555 z
M 571.915,-20.7969 L 571.139,-21.1065 L 570.443,-21.5709 L 569.859,-22.1698 L 569.413,-22.8769 L 569.123,-23.6613
 L 569,-24.647 L 569,-58 L 569.087,-58.8316 L 569.346,-59.627 L 569.764,-60.3511 L 570.323,-60.9726
 L 571,-61.4641 L 571.764,-61.8042 L 573,-62 L 663.331,-62 L 664.163,-61.9126 L 664.958,-61.6542
 L 665.682,-61.2361 L 666.304,-60.6765 L 666.795,-60 L 667.135,-59.2361 L 667.309,-58.4181 L 667.309,-57.5819
 L 667.135,-56.7639 L 666.795,-56 L 666.304,-55.3235 L 665.682,-54.7639 L 664.717,-54.2476 L 574.385,-20.8946
 L 573.575,-20.6886 L 572.739,-20.6555 z
M 756.082,-20.7969 L 755.305,-21.1065 L 754.61,-21.5709 L 754.026,-22.1698 L 753.58,-22.8769 L 753.29,-23.6613
 L 753.167,-24.647 L 753.167,-58 L 753.254,-58.8316 L 753.512,-59.627 L 753.931,-60.3511 L 754.49,-60.9726
 L 755.167,-61.4641 L 755.931,-61.8042 L 757.167,-62 L 847.498,-62 L 848.329,-61.9126 L 849.125,-61.6542
 L 849.849,-61.2361 L 850.47,-60.6765 L 850.962,-60 L 851.302,-59.2361 L 851.476,-58.4181 L 851.476,-57.5819
 L 851.302,-56.7639 L 850.962,-56 L 850.47,-55.3235 L 849.849,-54.7639 L 848.883,-54.2476 L 758.552,-20.8946
 L 757.742,-20.6886 L 756.906,-20.6555 z
M 204.667,-18 L 203.431,-18.1958 L 202.667,-18.5359 L 201.99,-19.0274 L 201.431,-19.6489 L 201.012,-20.373
 L 200.754,-21.1684 L 200.667,-22 L 200.667,-55.353 L 200.79,-56.3387 L 201.08,-57.1231 L 201.526,-57.8302
 L 202.11,-58.429 L 202.805,-58.8934 L 203.582,-59.2031 L 204.406,-59.3445 L 205.242,-59.3114 L 206.052,-59.1054
 L 296.383,-25.7524 L 297.349,-25.2361 L 297.97,-24.6765 L 298.462,-24 L 298.802,-23.2361 L 298.976,-22.4181
 L 298.976,-21.5819 L 298.802,-20.7639 L 298.462,-20 L 297.97,-19.3235 L 297.349,-18.7639 L 296.625,-18.3458
 L 295.829,-18.0874 L 294.998,-18 z
M 388.833,-18 L 387.597,-18.1958 L 386.833,-18.5359 L 386.157,-19.0274 L 385.597,-19.6489 L 385.179,-20.373
 L 384.921,-21.1684 L 384.833,-22 L 384.833,-55.353 L 384.957,-56.3387 L 385.246,-57.1231 L 385.693,-57.8302
 L 386.276,-58.429 L 386.972,-58.8934 L 387.749,-59.2031 L 388.573,-59.3445 L 389.408,-59.3114 L 390.219,-59.1054
 L 480.55,-25.7524 L 481.515,-25.2361 L 482.137,-24.6765 L 482.628,-24 L 482.969,-23.2361 L 483.142,-22.4181
 L 483.142,-21.5819 L 482.969,-20.7639 L 482.628,-20 L 482.137,-19.3235 L 481.515,-18.7639 L 480.791,-18.3458
 L 479.996,-18.0874 L 479.164,-18 z
M 640.836,-18 L 640.004,-18.0874 L 639.209,-18.3458 L 638.485,-18.7639 L 637.863,-19.3235 L 637.372,-20
 L 637.031,-20.7639 L 636.858,-21.5819 L 636.858,-22.4181 L 637.031,-23.2361 L 637.372,-24 L 637.863,-24.6765
 L 638.485,-25.2361 L 639.45,-25.7524 L 729.781,-59.1054 L 730.592,-59.3114 L 731.427,-59.3445 L 732.251,-59.2031
 L 733.028,-58.8934 L 733.724,-58.429 L 734.307,-57.8302 L 734.754,-57.1231 L 735.043,-56.3387 L 735.167,-55.353
 L 735.167,-22 L 735.079,-21.1684 L 734.821,-20.373 L 734.403,-19.6489 L 733.843,-19.0274 L 733.167,-18.5359
 L 732.403,-18.1958 L 731.167,-18 z
M 825.002,-18 L 824.171,-18.0874 L 823.375,-18.3458 L 822.651,-18.7639 L 822.03,-19.3235 L 821.538,-20
 L 821.198,-20.7639 L 821.024,-21.5819 L 821.024,-22.4181 L 821.198,-23.2361 L 821.538,-24 L 822.03,-24.6765
 L 822.651,-25.2361 L 823.617,-25.7524 L 913.948,-59.1054 L 914.758,-59.3114 L 915.594,-59.3445 L 916.418,-59.2031
 L 917.195,-58.8934 L 917.89,-58.429 L 918.474,-57.8302 L 918.92,-57.1231 L 919.21,-56.3387 L 919.333,-55.353
 L 919.333,-22 L 919.246,-21.1684 L 918.988,-20.373 L 918.569,-19.6489 L 918.01,-19.0274 L 917.333,-18.5359
 L 916.569,-18.1958 L 915.333,-18 z
M 1009.17,-18 L 1008.34,-18.0874 L 1007.54,-18.3458 L 1006.82,-18.7639 L 1006.2,-19.3235 L 1005.7,-20
 L 1005.36,-20.7639 L 1005.19,-21.5819 L 1005.19,-22.4181 L 1005.36,-23.2361 L 1005.7,-24 L 1006.2,-24.6765
 L 1006.82,-25.2361 L 1007.78,-25.7524 L 1096.61,-58.5515 L 1097.42,-58.7576 L 1098.26,-58.7906 L 1099.08,-58.6492
 L 1099.86,-58.3396 L 1100.56,-57.8752 L 1101.14,-57.2764 L 1101.59,-56.5693 L 1101.88,-55.7848 L 1102,-54.7991
 L 1102,-22 L 1101.91,-21.1684 L 1101.65,-20.373 L 1101.24,-19.6489 L 1100.68,-19.0274 L 1100,-18.5359
 L 1099.24,-18.1958 L 1098,-18 z
M 22,-18 L 20.7639,-18.1958 L 20,-18.5359 L 19.3235,-19.0274 L 18.7639,-19.6489 L 18.3458,-20.373
 L 18.0874,-21.1684 L 18,-22 L 18,-54.7991 L 18.1234,-55.7848 L 18.413,-56.5693 L 18.8594,-57.2764
 L 19.4431,-57.8752 L 20.1385,-58.3396 L 20.9153,-58.6492 L 21.7395,-58.7906 L 22.5751,-58.7576 L 23.3855,-58.5515
 L 112.217,-25.7524 L 113.182,-25.2361 L 113.804,-24.6765 L 114.295,-24 L 114.635,-23.2361 L 114.809,-22.4181
 L 114.809,-21.5819 L 114.635,-20.7639 L 114.295,-20 L 113.804,-19.3235 L 113.182,-18.7639 L 112.458,-18.3458
 L 111.663,-18.0874 L 110.831,-18 z
" stroke="black" fill="lightgray" stroke-width="0.5"/>
</svg>
