<?xml version="1.0" standalone="no"?>
<!DOCTYPE svg PUBLIC "-//W3C//DTD SVG 1.1//EN" "http://www.w3.org/Graphics/SVG/1.1/DTD/svg11.dtd">
<svg width="1305mm" height="80mm" viewBox="0 -80 1305 80" xmlns="http://www.w3.org/2000/svg" version="1.1">
<title>OpenSCAD Model</title>
<path d="
M 1305,-80 L 0,-80 L 0,-0 L 4.95,-0 L 4.95,-6 L 5.00572,-6.53017
 L 5.17046,-7.03717 L 5.437,-7.49884 L 5.79372,-7.895 L 6.22499,-8.20836 L 6.71201,-8.42519 L 7.23344,-8.53603
 L 7.76654,-8.53603 L 8.28798,-8.42519 L 8.77499,-8.20836 L 9.20627,-7.895 L 9.56299,-7.49884 L 9.82953,-7.03717
 L 9.99426,-6.53017 L 10.05,-6 L 10.05,-0 L 189.236,-0 L 189.236,-6 L 189.291,-6.53017
 L 189.456,-7.03717 L 189.723,-7.49884 L 190.079,-7.895 L 190.511,-8.20836 L 190.998,-8.42519 L 191.519,-8.53603
 L 192.052,-8.53603 L 192.574,-8.42519 L 193.061,-8.20836 L 193.492,-7.895 L 193.849,-7.49884 L 194.115,-7.03717
 L 194.28,-6.53017 L 194.336,-6 L 194.336,-0 L 373.521,-0 L 373.521,-6 L 373.577,-6.53017
 L 373.742,-7.03717 L 374.008,-7.49884 L 374.365,-7.895 L 374.796,-8.20836 L 375.283,-8.42519 L 375.805,-8.53603
 L 376.338,-8.53603 L 376.859,-8.42519 L 377.346,-8.20836 L 377.778,-7.895 L 378.134,-7.49884 L 378.401,-7.03717
 L 378.566,-6.53017 L 378.621,-6 L 378.621,-0 L 557.807,-0 L 557.807,-6 L 557.863,-6.53017
 L 558.028,-7.03717 L 558.294,-7.49884 L 558.651,-7.895 L 559.082,-8.20836 L 559.569,-8.42519 L 560.091,-8.53603
 L 560.624,-8.53603 L 561.145,-8.42519 L 561.632,-8.20836 L 562.063,-7.895 L 562.42,-7.49884 L 562.687,-7.03717
 L 562.851,-6.53017 L 562.907,-6 L 562.907,-0 L 742.093,-0 L 742.093,-6 L 742.149,-6.53017
 L 742.313,-7.03717 L 742.58,-7.49884 L 742.937,-7.895 L 743.368,-8.20836 L 743.855,-8.42519 L 744.376,-8.53603
 L 744.909,-8.53603 L 745.431,-8.42519 L 745.918,-8.20836 L 746.349,-7.895 L 746.706,-7.49884 L 746.972,-7.03717
 L 747.137,-6.53017 L 747.193,-6 L 747.193,-0 L 926.379,-0 L 926.379,-6 L 926.434,-6.53017
 L 926.599,-7.03717 L 926.866,-7.49884 L 927.222,-7.895 L 927.654,-8.20836 L 928.141,-8.42519 L 928.662,-8.53603
 L 929.195,-8.53603 L 929.717,-8.42519 L 930.204,-8.20836 L 930.635,-7.895 L 930.992,-7.49884 L 931.258,-7.03717
 L 931.423,-6.53017 L 931.479,-6 L 931.479,-0 L 1110.66,-0 L 1110.66,-6 L 1110.72,-6.53017
 L 1110.88,-7.03717 L 1111.15,-7.49884 L 1111.51,-7.895 L 1111.94,-8.20836 L 1112.43,-8.42519 L 1112.95,-8.53603
 L 1113.48,-8.53603 L 1114,-8.42519 L 1114.49,-8.20836 L 1114.92,-7.895 L 1115.28,-7.49884 L 1115.54,-7.03717
 L 1115.71,-6.53017 L 1115.76,-6 L 1115.76,-0 L 1294.95,-0 L 1294.95,-6 L 1295.01,-6.53017
 L 1295.17,-7.03717 L 1295.44,-7.49884 L 1295.79,-7.895 L 1296.22,-8.20836 L 1296.71,-8.42519 L 1297.23,-8.53603
 L 1297.77,-8.53603 L 1298.29,-8.42519 L 1298.77,-8.20836 L 1299.21,-7.895 L 1299.56,-7.49884 L 1299.83,-7.03717
 L 1299.99,-6.53017 L 1300.05,-6 L 1300.05,-0 L 1305,-0 z
M 6.98573,-55.607 L 6.47708,-55.6875 L 5.97964,-55.8208 L 5.49887,-56.0054 L 5.04001,-56.2392 L 4.60811,-56.5196
 L 4.20789,-56.8437 L 3.84373,-57.2079 L 3.51964,-57.6081 L 3.23917,-58.04 L 3.00537,-58.4989 L 2.82082,-58.9796
 L 2.68752,-59.4771 L 2.60696,-59.9857 L 2.58,-60.5 L 2.60696,-61.0143 L 2.68752,-61.5229 L 2.82082,-62.0204
 L 3.00537,-62.5011 L 3.23917,-62.96 L 3.51964,-63.3919 L 3.84373,-63.7921 L 4.20789,-64.1563 L 4.60811,-64.4804
 L 4.95001,-64.7024 L 4.95001,-74 L 5.00574,-74.5302 L 5.17047,-75.0372 L 5.43701,-75.4988 L 5.79373,-75.895
 L 6.22501,-76.2084 L 6.71202,-76.4252 L 7.23346,-76.536 L 7.76654,-76.536 L 8.28798,-76.4252 L 8.77499,-76.2084
 L 9.20627,-75.895 L 9.56299,-75.4988 L 9.82953,-75.0372 L 9.99426,-74.5302 L 10.05,-74 L 10.05,-64.7024
 L 10.3919,-64.4804 L 10.7921,-64.1563 L 11.1563,-63.7921 L 11.4804,-63.3919 L 11.7608,-62.96 L 11.9946,-62.5011
 L 12.1792,-62.0204 L 12.3125,-61.5229 L 12.393,-61.0143 L 12.42,-60.5 L 12.393,-59.9857 L 12.3125,-59.4771
 L 12.1792,-58.9796 L 11.9946,-58.4989 L 11.7608,-58.04 L 11.4804,-57.6081 L 11.1563,-57.2079 L 10.7921,-56.8437
 L 10.3919,-56.5196 L 9.95999,-56.2392 L 9.50113,-56.0054 L 9.02036,-55.8208 L 8.52292,-55.6875 L 8.01427,-55.607
 L 7.5,-55.58 z
M 191.271,-55.607 L 190.763,-55.6875 L 190.265,-55.8208 L 189.785,-56.0054 L 189.326,-56.2392 L 188.894,-56.5196
 L 188.494,-56.8437 L 188.129,-57.2079 L 187.805,-57.6081 L 187.525,-58.04 L 187.291,-58.4989 L 187.107,-58.9796
 L 186.973,-59.4771 L 186.893,-59.9857 L 186.866,-60.5 L 186.893,-61.0143 L 186.973,-61.5229 L 187.107,-62.0204
 L 187.291,-62.5011 L 187.525,-62.96 L 187.805,-63.3919 L 188.129,-63.7921 L 188.494,-64.1563 L 188.894,-64.4804
 L 189.236,-64.7024 L 189.236,-74 L 189.291,-74.5302 L 189.456,-75.0372 L 189.723,-75.4988 L 190.079,-75.895
 L 190.511,-76.2084 L 190.998,-76.4252 L 191.519,-76.536 L 192.052,-76.536 L 192.574,-76.4252 L 193.061,-76.2084
 L 193.492,-75.895 L 193.849,-75.4988 L 194.115,-75.0372 L 194.28,-74.5302 L 194.336,-74 L 194.336,-64.7024
 L 194.678,-64.4804 L 195.078,-64.1563 L 195.442,-63.7921 L 195.766,-63.3919 L 196.047,-62.96 L 196.28,-62.5011
 L 196.465,-62.0204 L 196.598,-61.5229 L 196.679,-61.0143 L 196.706,-60.5 L 196.679,-59.9857 L 196.598,-59.4771
 L 196.465,-58.9796 L 196.28,-58.4989 L 196.047,-58.04 L 195.766,-57.6081 L 195.442,-57.2079 L 195.078,-56.8437
 L 194.678,-56.5196 L 194.246,-56.2392 L 193.787,-56.0054 L 193.306,-55.8208 L 192.809,-55.6875 L 192.3,-55.607
 L 191.786,-55.58 z
M 375.557,-55.607 L 375.049,-55.6875 L 374.551,-55.8208 L 374.07,-56.0054 L 373.611,-56.2392 L 373.18,-56.5196
 L 372.779,-56.8437 L 372.415,-57.2079 L 372.091,-57.6081 L 371.811,-58.04 L 371.577,-58.4989 L 371.392,-58.9796
 L 371.259,-59.4771 L 371.178,-59.9857 L 371.151,-60.5 L 371.178,-61.0143 L 371.259,-61.5229 L 371.392,-62.0204
 L 371.577,-62.5011 L 371.811,-62.96 L 372.091,-63.3919 L 372.415,-63.7921 L 372.779,-64.1563 L 373.18,-64.4804
 L 373.521,-64.7024 L 373.521,-74 L 373.577,-74.5302 L 373.742,-75.0372 L 374.008,-75.4988 L 374.365,-75.895
 L 374.796,-76.2084 L 375.283,-76.4252 L 375.805,-76.536 L 376.338,-76.536 L 376.859,-76.4252 L 377.346,-76.2084
 L 377.778,-75.895 L 378.134,-75.4988 L 378.401,-75.0372 L 378.566,-74.5302 L 378.621,-74 L 378.621,-64.7024
 L 378.963,-64.4804 L 379.364,-64.1563 L 379.728,-63.7921 L 380.052,-63.3919 L 380.332,-62.96 L 380.566,-62.5011
 L 380.751,-62.0204 L 380.884,-61.5229 L 380.964,-61.0143 L 380.991,-60.5 L 380.964,-59.9857 L 380.884,-59.4771
 L 380.751,-58.9796 L 380.566,-58.4989 L 380.332,-58.04 L 380.052,-57.6081 L 379.728,-57.2079 L 379.364,-56.8437
 L 378.963,-56.5196 L 378.531,-56.2392 L 378.073,-56.0054 L 377.592,-55.8208 L 377.094,-55.6875 L 376.586,-55.607
 L 376.071,-55.58 z
M 559.843,-55.607 L 559.334,-55.6875 L 558.837,-55.8208 L 558.356,-56.0054 L 557.897,-56.2392 L 557.465,-56.5196
 L 557.065,-56.8437 L 556.701,-57.2079 L 556.377,-57.6081 L 556.096,-58.04 L 555.863,-58.4989 L 555.678,-58.9796
 L 555.545,-59.4771 L 555.464,-59.9857 L 555.437,-60.5 L 555.464,-61.0143 L 555.545,-61.5229 L 555.678,-62.0204
 L 555.863,-62.5011 L 556.096,-62.96 L 556.377,-63.3919 L 556.701,-63.7921 L 557.065,-64.1563 L 557.465,-64.4804
 L 557.807,-64.7024 L 557.807,-74 L 557.863,-74.5302 L 558.028,-75.0372 L 558.294,-75.4988 L 558.651,-75.895
 L 559.082,-76.2084 L 559.569,-76.4252 L 560.091,-76.536 L 560.624,-76.536 L 561.145,-76.4252 L 561.632,-76.2084
 L 562.063,-75.895 L 562.42,-75.4988 L 562.687,-75.0372 L 562.851,-74.5302 L 562.907,-74 L 562.907,-64.7024
 L 563.249,-64.4804 L 563.649,-64.1563 L 564.013,-63.7921 L 564.337,-63.3919 L 564.618,-62.96 L 564.852,-62.5011
 L 565.036,-62.0204 L 565.17,-61.5229 L 565.25,-61.0143 L 565.277,-60.5 L 565.25,-59.9857 L 565.17,-59.4771
 L 565.036,-58.9796 L 564.852,-58.4989 L 564.618,-58.04 L 564.337,-57.6081 L 564.013,-57.2079 L 563.649,-56.8437
 L 563.249,-56.5196 L 562.817,-56.2392 L 562.358,-56.0054 L 561.877,-55.8208 L 561.38,-55.6875 L 560.871,-55.607
 L 560.357,-55.58 z
M 744.129,-55.607 L 743.62,-55.6875 L 743.122,-55.8208 L 742.642,-56.0054 L 742.183,-56.2392 L 741.751,-56.5196
 L 741.351,-56.8437 L 740.987,-57.2079 L 740.662,-57.6081 L 740.382,-58.04 L 740.148,-58.4989 L 739.964,-58.9796
 L 739.83,-59.4771 L 739.75,-59.9857 L 739.723,-60.5 L 739.75,-61.0143 L 739.83,-61.5229 L 739.964,-62.0204
 L 740.148,-62.5011 L 740.382,-62.96 L 740.662,-63.3919 L 740.987,-63.7921 L 741.351,-64.1563 L 741.751,-64.4804
 L 742.093,-64.7024 L 742.093,-74 L 742.149,-74.5302 L 742.313,-75.0372 L 742.58,-75.4988 L 742.937,-75.895
 L 743.368,-76.2084 L 743.855,-76.4252 L 744.376,-76.536 L 744.909,-76.536 L 745.431,-76.4252 L 745.918,-76.2084
 L 746.349,-75.895 L 746.706,-75.4988 L 746.972,-75.0372 L 747.137,-74.5302 L 747.193,-74 L 747.193,-64.7024
 L 747.535,-64.4804 L 747.935,-64.1563 L 748.299,-63.7921 L 748.623,-63.3919 L 748.904,-62.96 L 749.137,-62.5011
 L 749.322,-62.0204 L 749.455,-61.5229 L 749.536,-61.0143 L 749.563,-60.5 L 749.536,-59.9857 L 749.455,-59.4771
 L 749.322,-58.9796 L 749.137,-58.4989 L 748.904,-58.04 L 748.623,-57.6081 L 748.299,-57.2079 L 747.935,-56.8437
 L 747.535,-56.5196 L 747.103,-56.2392 L 746.644,-56.0054 L 746.163,-55.8208 L 745.666,-55.6875 L 745.157,-55.607
 L 744.643,-55.58 z
M 928.414,-55.607 L 927.906,-55.6875 L 927.408,-55.8208 L 926.927,-56.0054 L 926.469,-56.2392 L 926.037,-56.5196
 L 925.636,-56.8437 L 925.272,-57.2079 L 924.948,-57.6081 L 924.668,-58.04 L 924.434,-58.4989 L 924.249,-58.9796
 L 924.116,-59.4771 L 924.036,-59.9857 L 924.009,-60.5 L 924.036,-61.0143 L 924.116,-61.5229 L 924.249,-62.0204
 L 924.434,-62.5011 L 924.668,-62.96 L 924.948,-63.3919 L 925.272,-63.7921 L 925.636,-64.1563 L 926.037,-64.4804
 L 926.379,-64.7024 L 926.379,-74 L 926.434,-74.5302 L 926.599,-75.0372 L 926.866,-75.4988 L 927.222,-75.895
 L 927.654,-76.2084 L 928.141,-76.4252 L 928.662,-76.536 L 929.195,-76.536 L 929.717,-76.4252 L 930.204,-76.2084
 L 930.635,-75.895 L 930.992,-75.4988 L 931.258,-75.0372 L 931.423,-74.5302 L 931.479,-74 L 931.479,-64.7024
 L 931.82,-64.4804 L 932.221,-64.1563 L 932.585,-63.7921 L 932.909,-63.3919 L 933.189,-62.96 L 933.423,-62.5011
 L 933.608,-62.0204 L 933.741,-61.5229 L 933.822,-61.0143 L 933.849,-60.5 L 933.822,-59.9857 L 933.741,-59.4771
 L 933.608,-58.9796 L 933.423,-58.4989 L 933.189,-58.04 L 932.909,-57.6081 L 932.585,-57.2079 L 932.221,-56.8437
 L 931.82,-56.5196 L 931.389,-56.2392 L 930.93,-56.0054 L 930.449,-55.8208 L 929.951,-55.6875 L 929.443,-55.607
 L 928.929,-55.58 z
M 1112.7,-55.607 L 1112.19,-55.6875 L 1111.69,-55.8208 L 1111.21,-56.0054 L 1110.75,-56.2392 L 1110.32,-56.5196
 L 1109.92,-56.8437 L 1109.56,-57.2079 L 1109.23,-57.6081 L 1108.95,-58.04 L 1108.72,-58.4989 L 1108.54,-58.9796
 L 1108.4,-59.4771 L 1108.32,-59.9857 L 1108.29,-60.5 L 1108.32,-61.0143 L 1108.4,-61.5229 L 1108.54,-62.0204
 L 1108.72,-62.5011 L 1108.95,-62.96 L 1109.23,-63.3919 L 1109.56,-63.7921 L 1109.92,-64.1563 L 1110.32,-64.4804
 L 1110.66,-64.7024 L 1110.66,-74 L 1110.72,-74.5302 L 1110.88,-75.0372 L 1111.15,-75.4988 L 1111.51,-75.895
 L 1111.94,-76.2084 L 1112.43,-76.4252 L 1112.95,-76.536 L 1113.48,-76.536 L 1114,-76.4252 L 1114.49,-76.2084
 L 1114.92,-75.895 L 1115.28,-75.4988 L 1115.54,-75.0372 L 1115.71,-74.5302 L 1115.76,-74 L 1115.76,-64.7024
 L 1116.11,-64.4804 L 1116.51,-64.1563 L 1116.87,-63.7921 L 1117.19,-63.3919 L 1117.48,-62.96 L 1117.71,-62.5011
 L 1117.89,-62.0204 L 1118.03,-61.5229 L 1118.11,-61.0143 L 1118.13,-60.5 L 1118.11,-59.9857 L 1118.03,-59.4771
 L 1117.89,-58.9796 L 1117.71,-58.4989 L 1117.48,-58.04 L 1117.19,-57.6081 L 1116.87,-57.2079 L 1116.51,-56.8437
 L 1116.11,-56.5196 L 1115.67,-56.2392 L 1115.22,-56.0054 L 1114.73,-55.8208 L 1114.24,-55.6875 L 1113.73,-55.607
 L 1113.21,-55.58 z
M 1296.99,-55.607 L 1296.48,-55.6875 L 1295.98,-55.8208 L 1295.5,-56.0054 L 1295.04,-56.2392 L 1294.61,-56.5196
 L 1294.21,-56.8437 L 1293.84,-57.2079 L 1293.52,-57.6081 L 1293.24,-58.04 L 1293.01,-58.4989 L 1292.82,-58.9796
 L 1292.69,-59.4771 L 1292.61,-59.9857 L 1292.58,-60.5 L 1292.61,-61.0143 L 1292.69,-61.5229 L 1292.82,-62.0204
 L 1293.01,-62.5011 L 1293.24,-62.96 L 1293.52,-63.3919 L 1293.84,-63.7921 L 1294.21,-64.1563 L 1294.61,-64.4804
 L 1294.95,-64.7024 L 1294.95,-74 L 1295.01,-74.5302 L 1295.17,-75.0372 L 1295.44,-75.4988 L 1295.79,-75.895
 L 1296.23,-76.2084 L 1296.71,-76.4252 L 1297.23,-76.536 L 1297.77,-76.536 L 1298.29,-76.4252 L 1298.77,-76.2084
 L 1299.21,-75.895 L 1299.56,-75.4988 L 1299.83,-75.0372 L 1299.99,-74.5302 L 1300.05,-74 L 1300.05,-64.7024
 L 1300.39,-64.4804 L 1300.79,-64.1563 L 1301.16,-63.7921 L 1301.48,-63.3919 L 1301.76,-62.96 L 1301.99,-62.5011
 L 1302.18,-62.0204 L 1302.31,-61.5229 L 1302.39,-61.0143 L 1302.42,-60.5 L 1302.39,-59.9857 L 1302.31,-59.4771
 L 1302.18,-58.9796 L 1301.99,-58.4989 L 1301.76,-58.04 L 1301.48,-57.6081 L 1301.16,-57.2079 L 1300.79,-56.8437
 L 1300.39,-56.5196 L 1299.96,-56.2392 L 1299.5,-56.0054 L 1299.02,-55.8208 L 1298.52,-55.6875 L 1298.01,-55.607
 L 1297.5,-55.58 z
M 756.557,-20.7931 L 755.781,-21.1029 L 755.085,-21.5674 L 754.502,-22.1664 L 754.055,-22.8736 L 753.766,-23.6581
 L 753.643,-24.6429 L 753.643,-58 L 753.73,-58.8316 L 753.989,-59.627 L 754.407,-60.3511 L 754.966,-60.9726
 L 755.643,-61.4641 L 756.407,-61.8042 L 757.643,-62 L 848.043,-62 L 848.875,-61.9126 L 849.67,-61.6542
 L 850.394,-61.2361 L 851.016,-60.6765 L 851.507,-60 L 851.848,-59.2361 L 852.021,-58.4181 L 852.021,-57.5819
 L 851.848,-56.7639 L 851.507,-56 L 851.016,-55.3235 L 850.394,-54.7639 L 849.428,-54.2473 L 759.028,-20.8903
 L 758.217,-20.6844 L 757.382,-20.6515 z
M 651.926,-47.7573 L 651.115,-47.9632 L 634.085,-54.2473 L 633.118,-54.7639 L 632.497,-55.3235 L 632.005,-56
 L 631.665,-56.7639 L 631.491,-57.5819 L 631.491,-58.4181 L 631.665,-59.2361 L 632.005,-60 L 632.497,-60.6765
 L 633.118,-61.2361 L 633.843,-61.6542 L 634.638,-61.9126 L 635.469,-62 L 669.53,-62 L 670.616,-61.8499
 L 671.393,-61.5401 L 672.088,-61.0755 L 672.672,-60.4766 L 673.118,-59.7694 L 673.407,-58.9849 L 673.527,-58.1573
 L 673.473,-57.3229 L 673.246,-56.518 L 672.856,-55.7779 L 672.322,-55.135 L 671.665,-54.6172 L 670.915,-54.2473
 L 653.885,-47.9632 L 652.761,-47.7244 z
M 546.783,-20.6844 L 545.972,-20.8903 L 455.572,-54.2473 L 454.606,-54.7639 L 453.984,-55.3235 L 453.493,-56
 L 453.152,-56.7639 L 452.979,-57.5819 L 452.979,-58.4181 L 453.152,-59.2361 L 453.493,-60 L 453.984,-60.6765
 L 454.606,-61.2361 L 455.33,-61.6542 L 456.125,-61.9126 L 456.957,-62 L 547.357,-62 L 548.593,-61.8042
 L 549.357,-61.4641 L 550.034,-60.9726 L 550.593,-60.3511 L 551.011,-59.627 L 551.27,-58.8316 L 551.357,-58
 L 551.357,-24.6429 L 551.234,-23.6581 L 550.945,-22.8736 L 550.498,-22.1664 L 549.915,-21.5674 L 549.219,-21.1029
 L 548.443,-20.7931 L 547.618,-20.6515 z
M 362.497,-20.6844 L 361.687,-20.8903 L 271.286,-54.2473 L 270.32,-54.7639 L 269.698,-55.3235 L 269.207,-56
 L 268.867,-56.7639 L 268.693,-57.5819 L 268.693,-58.4181 L 268.867,-59.2361 L 269.207,-60 L 269.698,-60.6765
 L 270.32,-61.2361 L 271.044,-61.6542 L 271.839,-61.9126 L 272.671,-62 L 363.071,-62 L 364.307,-61.8042
 L 365.071,-61.4641 L 365.748,-60.9726 L 366.307,-60.3511 L 366.726,-59.627 L 366.984,-58.8316 L 367.071,-58
 L 367.071,-24.6429 L 366.948,-23.6581 L 366.659,-22.8736 L 366.213,-22.1664 L 365.629,-21.5674 L 364.934,-21.1029
 L 364.157,-20.7931 L 363.333,-20.6515 z
M 1125.13,-20.7931 L 1124.35,-21.1029 L 1123.66,-21.5674 L 1123.07,-22.1664 L 1122.63,-22.8736 L 1122.34,-23.6581
 L 1122.21,-24.6429 L 1122.21,-58 L 1122.3,-58.8316 L 1122.56,-59.627 L 1122.98,-60.3511 L 1123.54,-60.9726
 L 1124.21,-61.4641 L 1124.98,-61.8042 L 1126.21,-62 L 1216.61,-62 L 1217.45,-61.9126 L 1218.24,-61.6542
 L 1218.97,-61.2361 L 1219.59,-60.6765 L 1220.08,-60 L 1220.42,-59.2361 L 1220.59,-58.4181 L 1220.59,-57.5819
 L 1220.42,-56.7639 L 1220.08,-56 L 1219.59,-55.3235 L 1218.97,-54.7639 L 1218,-54.2473 L 1127.6,-20.8903
 L 1126.79,-20.6844 L 1125.95,-20.6515 z
M 178.211,-20.6844 L 177.401,-20.8903 L 87.0006,-54.2473 L 86.0341,-54.7639 L 85.4127,-55.3235 L 84.9212,-56
 L 84.5811,-56.7639 L 84.4072,-57.5819 L 84.4072,-58.4181 L 84.5811,-59.2361 L 84.9212,-60 L 85.4127,-60.6765
 L 86.0341,-61.2361 L 86.7583,-61.6542 L 87.5536,-61.9126 L 88.3853,-62 L 178.786,-62 L 180.022,-61.8042
 L 180.786,-61.4641 L 181.462,-60.9726 L 182.022,-60.3511 L 182.44,-59.627 L 182.698,-58.8316 L 182.786,-58
 L 182.786,-24.6429 L 182.663,-23.6581 L 182.373,-22.8736 L 181.927,-22.1664 L 181.343,-21.5674 L 180.648,-21.1029
 L 179.871,-20.7931 L 179.047,-20.6515 z
M 940.843,-20.7931 L 940.066,-21.1029 L 939.371,-21.5674 L 938.787,-22.1664 L 938.341,-22.8736 L 938.052,-23.6581
 L 937.929,-24.6429 L 937.929,-58 L 938.016,-58.8316 L 938.274,-59.627 L 938.693,-60.3511 L 939.252,-60.9726
 L 939.929,-61.4641 L 940.693,-61.8042 L 941.929,-62 L 1032.33,-62 L 1033.16,-61.9126 L 1033.96,-61.6542
 L 1034.68,-61.2361 L 1035.3,-60.6765 L 1035.79,-60 L 1036.13,-59.2361 L 1036.31,-58.4181 L 1036.31,-57.5819
 L 1036.13,-56.7639 L 1035.79,-56 L 1035.3,-55.3235 L 1034.68,-54.7639 L 1033.71,-54.2473 L 943.313,-20.8903
 L 942.503,-20.6844 L 941.667,-20.6515 z
M 572.939,-18.5347 L 572.121,-18.7086 L 571.357,-19.0487 L 570.681,-19.5402 L 570.121,-20.1617 L 569.703,-20.8858
 L 569.445,-21.6812 L 569.357,-22.5128 L 569.357,-57.4872 L 569.48,-58.4721 L 569.77,-59.2566 L 570.216,-59.9638
 L 570.8,-60.5627 L 571.495,-61.0273 L 572.272,-61.3371 L 573.096,-61.4787 L 573.931,-61.4458 L 574.742,-61.2399
 L 622.134,-43.7527 L 622.611,-43.5401 L 623.306,-43.0755 L 623.89,-42.4766 L 624.336,-41.7694 L 624.626,-40.9849
 L 624.746,-40.1573 L 624.691,-39.3229 L 624.464,-38.518 L 624.075,-37.7779 L 623.54,-37.135 L 622.884,-36.6172
 L 622.134,-36.2473 L 574.742,-18.7601 L 573.775,-18.5347 z
M 731.069,-18.5542 L 730.258,-18.7601 L 682.866,-36.2473 L 682.389,-36.4599 L 681.693,-36.9245 L 681.11,-37.5234
 L 680.664,-38.2306 L 680.374,-39.0151 L 680.254,-39.8427 L 680.309,-40.6771 L 680.536,-41.482 L 680.925,-42.2221
 L 681.46,-42.865 L 682.116,-43.3828 L 682.866,-43.7527 L 730.258,-61.2399 L 731.225,-61.4653 L 732.061,-61.4653
 L 732.879,-61.2914 L 733.643,-60.9513 L 734.319,-60.4598 L 734.879,-59.8383 L 735.297,-59.1142 L 735.555,-58.3189
 L 735.643,-57.4872 L 735.643,-22.5128 L 735.52,-21.5279 L 735.23,-20.7434 L 734.784,-20.0362 L 734.2,-19.4373
 L 733.505,-18.9727 L 732.728,-18.6629 L 731.904,-18.5213 z
M 204.786,-18 L 203.55,-18.1958 L 202.786,-18.5359 L 202.109,-19.0274 L 201.55,-19.6489 L 201.132,-20.373
 L 200.873,-21.1684 L 200.786,-22 L 200.786,-55.357 L 200.909,-56.3419 L 201.198,-57.1264 L 201.645,-57.8336
 L 202.228,-58.4326 L 202.923,-58.8971 L 203.7,-59.2069 L 204.524,-59.3485 L 205.36,-59.3156 L 206.17,-59.1097
 L 296.571,-25.7527 L 297.537,-25.2361 L 298.159,-24.6765 L 298.65,-24 L 298.99,-23.2361 L 299.164,-22.4181
 L 299.164,-21.5819 L 298.99,-20.7639 L 298.65,-20 L 298.159,-19.3235 L 297.537,-18.7639 L 296.813,-18.3458
 L 296.018,-18.0874 L 295.186,-18 z
M 389.071,-18 L 387.835,-18.1958 L 387.071,-18.5359 L 386.395,-19.0274 L 385.835,-19.6489 L 385.417,-20.373
 L 385.159,-21.1684 L 385.071,-22 L 385.071,-55.357 L 385.195,-56.3419 L 385.484,-57.1264 L 385.93,-57.8336
 L 386.514,-58.4326 L 387.209,-58.8971 L 387.986,-59.2069 L 388.81,-59.3485 L 389.646,-59.3156 L 390.456,-59.1097
 L 480.857,-25.7527 L 481.823,-25.2361 L 482.444,-24.6765 L 482.936,-24 L 483.276,-23.2361 L 483.45,-22.4181
 L 483.45,-21.5819 L 483.276,-20.7639 L 482.936,-20 L 482.444,-19.3235 L 481.823,-18.7639 L 481.099,-18.3458
 L 480.303,-18.0874 L 479.472,-18 z
M 825.528,-18 L 824.697,-18.0874 L 823.901,-18.3458 L 823.177,-18.7639 L 822.556,-19.3235 L 822.064,-20
 L 821.724,-20.7639 L 821.55,-21.5819 L 821.55,-22.4181 L 821.724,-23.2361 L 822.064,-24 L 822.556,-24.6765
 L 823.177,-25.2361 L 824.143,-25.7527 L 914.544,-59.1097 L 915.354,-59.3156 L 916.19,-59.3485 L 917.014,-59.2069
 L 917.791,-58.8971 L 918.486,-58.4326 L 919.07,-57.8336 L 919.516,-57.1264 L 919.805,-56.3419 L 919.929,-55.357
 L 919.929,-22 L 919.841,-21.1684 L 919.583,-20.373 L 919.165,-19.6489 L 918.605,-19.0274 L 917.929,-18.5359
 L 917.165,-18.1958 L 915.929,-18 z
M 1009.81,-18 L 1008.98,-18.0874 L 1008.19,-18.3458 L 1007.46,-18.7639 L 1006.84,-19.3235 L 1006.35,-20
 L 1006.01,-20.7639 L 1005.84,-21.5819 L 1005.84,-22.4181 L 1006.01,-23.2361 L 1006.35,-24 L 1006.84,-24.6765
 L 1007.46,-25.2361 L 1008.43,-25.7527 L 1098.83,-59.1097 L 1099.64,-59.3156 L 1100.48,-59.3485 L 1101.3,-59.2069
 L 1102.08,-58.8971 L 1102.77,-58.4326 L 1103.36,-57.8336 L 1103.8,-57.1264 L 1104.09,-56.3419 L 1104.21,-55.357
 L 1104.21,-22 L 1104.13,-21.1684 L 1103.87,-20.373 L 1103.45,-19.6489 L 1102.89,-19.0274 L 1102.21,-18.5359
 L 1101.45,-18.1958 L 1100.21,-18 z
M 22,-18 L 20.7639,-18.1958 L 20,-18.5359 L 19.3235,-19.0274 L 18.7639,-19.6489 L 18.3458,-20.373
 L 18.0874,-21.1684 L 18,-22 L 18,-54.8036 L 18.1231,-55.7884 L 18.4126,-56.5729 L 18.8589,-57.2801
 L 19.4424,-57.8791 L 20.1378,-58.3436 L 20.9145,-58.6534 L 21.7386,-58.795 L 22.5742,-58.7621 L 23.3847,-58.5562
 L 112.285,-25.7527 L 113.252,-25.2361 L 113.873,-24.6765 L 114.364,-24 L 114.705,-23.2361 L 114.878,-22.4181
 L 114.878,-21.5819 L 114.705,-20.7639 L 114.364,-20 L 113.873,-19.3235 L 113.252,-18.7639 L 112.527,-18.3458
 L 111.732,-18.0874 L 110.9,-18 z
M 1194.1,-18 L 1193.27,-18.0874 L 1192.47,-18.3458 L 1191.75,-18.7639 L 1191.13,-19.3235 L 1190.64,-20
 L 1190.3,-20.7639 L 1190.12,-21.5819 L 1190.12,-22.4181 L 1190.3,-23.2361 L 1190.64,-24 L 1191.13,-24.6765
 L 1191.75,-25.2361 L 1192.71,-25.7527 L 1281.62,-58.5562 L 1282.43,-58.7621 L 1283.26,-58.795 L 1284.09,-58.6534
 L 1284.86,-58.3436 L 1285.56,-57.8791 L 1286.14,-57.2801 L 1286.59,-56.5729 L 1286.88,-55.7884 L 1287,-54.8036
 L 1287,-22 L 1286.91,-21.1684 L 1286.65,-20.373 L 1286.24,-19.6489 L 1285.68,-19.0274 L 1285,-18.5359
 L 1284.24,-18.1958 L 1283,-18 z
M 635.469,-18 L 634.384,-18.1501 L 633.607,-18.4599 L 632.912,-18.9245 L 632.328,-19.5234 L 631.882,-20.2306
 L 631.593,-21.0151 L 631.473,-21.8427 L 631.527,-22.6771 L 631.754,-23.482 L 632.143,-24.2221 L 632.678,-24.865
 L 633.335,-25.3828 L 634.085,-25.7527 L 651.115,-32.0368 L 652.239,-32.2756 L 653.074,-32.2427 L 653.885,-32.0368
 L 670.915,-25.7527 L 671.882,-25.2361 L 672.503,-24.6765 L 672.995,-24 L 673.335,-23.2361 L 673.509,-22.4181
 L 673.509,-21.5819 L 673.335,-20.7639 L 672.995,-20 L 672.503,-19.3235 L 671.882,-18.7639 L 671.157,-18.3458
 L 670.362,-18.0874 L 669.53,-18 z
" stroke="black" fill="lightgray" stroke-width="0.5"/>
</svg>
