<?xml version="1.0" standalone="no"?>
<!DOCTYPE svg PUBLIC "-//W3C//DTD SVG 1.1//EN" "http://www.w3.org/Graphics/SVG/1.1/DTD/svg11.dtd">
<svg width="1184mm" height="80mm" viewBox="0 -80 1184 80" xmlns="http://www.w3.org/2000/svg" version="1.1">
<title>OpenSCAD Model</title>
<path d="
M 1184,-80 L 0,-80 L 0,-0 L 4.95,-0 L 4.95,-6 L 5.00572,-6.53017
 L 5.17046,-7.03717 L 5.437,-7.49884 L 5.79372,-7.895 L 6.22499,-8.20836 L 6.71201,-8.42519 L 7.23344,-8.53603
 L 7.76654,-8.53603 L 8.28798,-8.42519 L 8.77499,-8.20836 L 9.20627,-7.895 L 9.56299,-7.49884 L 9.82953,-7.03717
 L 9.99426,-6.53017 L 10.05,-6 L 10.05,-0 L 199.783,-0 L 199.783,-6 L 199.839,-6.53017
 L 200.004,-7.03717 L 200.27,-7.49884 L 200.627,-7.895 L 201.058,-8.20836 L 201.545,-8.42519 L 202.067,-8.53603
 L 202.6,-8.53603 L 203.121,-8.42519 L 203.608,-8.20836 L 204.04,-7.895 L 204.396,-7.49884 L 204.663,-7.03717
 L 204.828,-6.53017 L 204.883,-6 L 204.883,-0 L 394.617,-0 L 394.617,-6 L 394.672,-6.53017
 L 394.837,-7.03717 L 395.104,-7.49884 L 395.46,-7.895 L 395.892,-8.20836 L 396.379,-8.42519 L 396.9,-8.53603
 L 397.433,-8.53603 L 397.955,-8.42519 L 398.442,-8.20836 L 398.873,-7.895 L 399.23,-7.49884 L 399.496,-7.03717
 L 399.661,-6.53017 L 399.717,-6 L 399.717,-0 L 589.45,-0 L 589.45,-6 L 589.506,-6.53017
 L 589.67,-7.03717 L 589.937,-7.49884 L 590.294,-7.895 L 590.725,-8.20836 L 591.212,-8.42519 L 591.733,-8.53603
 L 592.267,-8.53603 L 592.788,-8.42519 L 593.275,-8.20836 L 593.706,-7.895 L 594.063,-7.49884 L 594.33,-7.03717
 L 594.494,-6.53017 L 594.55,-6 L 594.55,-0 L 784.283,-0 L 784.283,-6 L 784.339,-6.53017
 L 784.504,-7.03717 L 784.77,-7.49884 L 785.127,-7.895 L 785.558,-8.20836 L 786.045,-8.42519 L 786.567,-8.53603
 L 787.1,-8.53603 L 787.621,-8.42519 L 788.108,-8.20836 L 788.54,-7.895 L 788.896,-7.49884 L 789.163,-7.03717
 L 789.328,-6.53017 L 789.383,-6 L 789.383,-0 L 979.117,-0 L 979.117,-6 L 979.172,-6.53017
 L 979.337,-7.03717 L 979.604,-7.49884 L 979.96,-7.895 L 980.392,-8.20836 L 980.879,-8.42519 L 981.4,-8.53603
 L 981.933,-8.53603 L 982.455,-8.42519 L 982.942,-8.20836 L 983.373,-7.895 L 983.73,-7.49884 L 983.996,-7.03717
 L 984.161,-6.53017 L 984.217,-6 L 984.217,-0 L 1173.95,-0 L 1173.95,-6 L 1174.01,-6.53017
 L 1174.17,-7.03717 L 1174.44,-7.49884 L 1174.79,-7.895 L 1175.22,-8.20836 L 1175.71,-8.42519 L 1176.23,-8.53603
 L 1176.77,-8.53603 L 1177.29,-8.42519 L 1177.77,-8.20836 L 1178.21,-7.895 L 1178.56,-7.49884 L 1178.83,-7.03717
 L 1178.99,-6.53017 L 1179.05,-6 L 1179.05,-0 L 1184,-0 z
M 6.98573,-55.607 L 6.47708,-55.6875 L 5.97964,-55.8208 L 5.49887,-56.0054 L 5.04001,-56.2392 L 4.60811,-56.5196
 L 4.20789,-56.8437 L 3.84373,-57.2079 L 3.51964,-57.6081 L 3.23917,-58.04 L 3.00537,-58.4989 L 2.82082,-58.9796
 L 2.68752,-59.4771 L 2.60696,-59.9857 L 2.58,-60.5 L 2.60696,-61.0143 L 2.68752,-61.5229 L 2.82082,-62.0204
 L 3.00537,-62.5011 L 3.23917,-62.96 L 3.51964,-63.3919 L 3.84373,-63.7921 L 4.20789,-64.1563 L 4.60811,-64.4804
 L 4.95001,-64.7024 L 4.95001,-74 L 5.00574,-74.5302 L 5.17047,-75.0372 L 5.43701,-75.4988 L 5.79373,-75.895
 L 6.22501,-76.2084 L 6.71202,-76.4252 L 7.23346,-76.536 L 7.76654,-76.536 L 8.28798,-76.4252 L 8.77499,-76.2084
 L 9.20627,-75.895 L 9.56299,-75.4988 L 9.82953,-75.0372 L 9.99426,-74.5302 L 10.05,-74 L 10.05,-64.7024
 L 10.3919,-64.4804 L 10.7921,-64.1563 L 11.1563,-63.7921 L 11.4804,-63.3919 L 11.7608,-62.96 L 11.9946,-62.5011
 L 12.1792,-62.0204 L 12.3125,-61.5229 L 12.393,-61.0143 L 12.42,-60.5 L 12.393,-59.9857 L 12.3125,-59.4771
 L 12.1792,-58.9796 L 11.9946,-58.4989 L 11.7608,-58.04 L 11.4804,-57.6081 L 11.1563,-57.2079 L 10.7921,-56.8437
 L 10.3919,-56.5196 L 9.95999,-56.2392 L 9.50113,-56.0054 L 9.02036,-55.8208 L 8.52292,-55.6875 L 8.01427,-55.607
 L 7.5,-55.58 z
M 201.819,-55.607 L 201.31,-55.6875 L 200.813,-55.8208 L 200.332,-56.0054 L 199.873,-56.2392 L 199.441,-56.5196
 L 199.041,-56.8437 L 198.677,-57.2079 L 198.353,-57.6081 L 198.072,-58.04 L 197.839,-58.4989 L 197.654,-58.9796
 L 197.521,-59.4771 L 197.44,-59.9857 L 197.413,-60.5 L 197.44,-61.0143 L 197.521,-61.5229 L 197.654,-62.0204
 L 197.839,-62.5011 L 198.072,-62.96 L 198.353,-63.3919 L 198.677,-63.7921 L 199.041,-64.1563 L 199.441,-64.4804
 L 199.783,-64.7024 L 199.783,-74 L 199.839,-74.5302 L 200.004,-75.0372 L 200.27,-75.4988 L 200.627,-75.895
 L 201.058,-76.2084 L 201.545,-76.4252 L 202.067,-76.536 L 202.6,-76.536 L 203.121,-76.4252 L 203.608,-76.2084
 L 204.04,-75.895 L 204.396,-75.4988 L 204.663,-75.0372 L 204.828,-74.5302 L 204.883,-74 L 204.883,-64.7024
 L 205.225,-64.4804 L 205.625,-64.1563 L 205.99,-63.7921 L 206.314,-63.3919 L 206.594,-62.96 L 206.828,-62.5011
 L 207.013,-62.0204 L 207.146,-61.5229 L 207.226,-61.0143 L 207.253,-60.5 L 207.226,-59.9857 L 207.146,-59.4771
 L 207.013,-58.9796 L 206.828,-58.4989 L 206.594,-58.04 L 206.314,-57.6081 L 205.99,-57.2079 L 205.625,-56.8437
 L 205.225,-56.5196 L 204.793,-56.2392 L 204.334,-56.0054 L 203.854,-55.8208 L 203.356,-55.6875 L 202.848,-55.607
 L 202.333,-55.58 z
M 396.652,-55.607 L 396.144,-55.6875 L 395.646,-55.8208 L 395.166,-56.0054 L 394.707,-56.2392 L 394.275,-56.5196
 L 393.875,-56.8437 L 393.51,-57.2079 L 393.186,-57.6081 L 392.906,-58.04 L 392.672,-58.4989 L 392.487,-58.9796
 L 392.354,-59.4771 L 392.274,-59.9857 L 392.247,-60.5 L 392.274,-61.0143 L 392.354,-61.5229 L 392.487,-62.0204
 L 392.672,-62.5011 L 392.906,-62.96 L 393.186,-63.3919 L 393.51,-63.7921 L 393.875,-64.1563 L 394.275,-64.4804
 L 394.617,-64.7024 L 394.617,-74 L 394.672,-74.5302 L 394.837,-75.0372 L 395.104,-75.4988 L 395.46,-75.895
 L 395.892,-76.2084 L 396.379,-76.4252 L 396.9,-76.536 L 397.433,-76.536 L 397.955,-76.4252 L 398.442,-76.2084
 L 398.873,-75.895 L 399.23,-75.4988 L 399.496,-75.0372 L 399.661,-74.5302 L 399.717,-74 L 399.717,-64.7024
 L 400.059,-64.4804 L 400.459,-64.1563 L 400.823,-63.7921 L 401.147,-63.3919 L 401.427,-62.96 L 401.661,-62.5011
 L 401.846,-62.0204 L 401.979,-61.5229 L 402.06,-61.0143 L 402.087,-60.5 L 402.06,-59.9857 L 401.979,-59.4771
 L 401.846,-58.9796 L 401.661,-58.4989 L 401.427,-58.04 L 401.147,-57.6081 L 400.823,-57.2079 L 400.459,-56.8437
 L 400.059,-56.5196 L 399.627,-56.2392 L 399.168,-56.0054 L 398.687,-55.8208 L 398.19,-55.6875 L 397.681,-55.607
 L 397.167,-55.58 z
M 591.486,-55.607 L 590.977,-55.6875 L 590.48,-55.8208 L 589.999,-56.0054 L 589.54,-56.2392 L 589.108,-56.5196
 L 588.708,-56.8437 L 588.344,-57.2079 L 588.02,-57.6081 L 587.739,-58.04 L 587.505,-58.4989 L 587.321,-58.9796
 L 587.188,-59.4771 L 587.107,-59.9857 L 587.08,-60.5 L 587.107,-61.0143 L 587.188,-61.5229 L 587.321,-62.0204
 L 587.505,-62.5011 L 587.739,-62.96 L 588.02,-63.3919 L 588.344,-63.7921 L 588.708,-64.1563 L 589.108,-64.4804
 L 589.45,-64.7024 L 589.45,-74 L 589.506,-74.5302 L 589.67,-75.0372 L 589.937,-75.4988 L 590.294,-75.895
 L 590.725,-76.2084 L 591.212,-76.4252 L 591.733,-76.536 L 592.267,-76.536 L 592.788,-76.4252 L 593.275,-76.2084
 L 593.706,-75.895 L 594.063,-75.4988 L 594.33,-75.0372 L 594.494,-74.5302 L 594.55,-74 L 594.55,-64.7024
 L 594.892,-64.4804 L 595.292,-64.1563 L 595.656,-63.7921 L 595.98,-63.3919 L 596.261,-62.96 L 596.495,-62.5011
 L 596.679,-62.0204 L 596.812,-61.5229 L 596.893,-61.0143 L 596.92,-60.5 L 596.893,-59.9857 L 596.812,-59.4771
 L 596.679,-58.9796 L 596.495,-58.4989 L 596.261,-58.04 L 595.98,-57.6081 L 595.656,-57.2079 L 595.292,-56.8437
 L 594.892,-56.5196 L 594.46,-56.2392 L 594.001,-56.0054 L 593.52,-55.8208 L 593.023,-55.6875 L 592.514,-55.607
 L 592,-55.58 z
M 786.319,-55.607 L 785.81,-55.6875 L 785.313,-55.8208 L 784.832,-56.0054 L 784.373,-56.2392 L 783.941,-56.5196
 L 783.541,-56.8437 L 783.177,-57.2079 L 782.853,-57.6081 L 782.572,-58.04 L 782.339,-58.4989 L 782.154,-58.9796
 L 782.021,-59.4771 L 781.94,-59.9857 L 781.913,-60.5 L 781.94,-61.0143 L 782.021,-61.5229 L 782.154,-62.0204
 L 782.339,-62.5011 L 782.572,-62.96 L 782.853,-63.3919 L 783.177,-63.7921 L 783.541,-64.1563 L 783.941,-64.4804
 L 784.283,-64.7024 L 784.283,-74 L 784.339,-74.5302 L 784.504,-75.0372 L 784.77,-75.4988 L 785.127,-75.895
 L 785.558,-76.2084 L 786.045,-76.4252 L 786.567,-76.536 L 787.1,-76.536 L 787.621,-76.4252 L 788.108,-76.2084
 L 788.54,-75.895 L 788.896,-75.4988 L 789.163,-75.0372 L 789.328,-74.5302 L 789.383,-74 L 789.383,-64.7024
 L 789.725,-64.4804 L 790.125,-64.1563 L 790.49,-63.7921 L 790.814,-63.3919 L 791.094,-62.96 L 791.328,-62.5011
 L 791.513,-62.0204 L 791.646,-61.5229 L 791.726,-61.0143 L 791.753,-60.5 L 791.726,-59.9857 L 791.646,-59.4771
 L 791.513,-58.9796 L 791.328,-58.4989 L 791.094,-58.04 L 790.814,-57.6081 L 790.49,-57.2079 L 790.125,-56.8437
 L 789.725,-56.5196 L 789.293,-56.2392 L 788.834,-56.0054 L 788.354,-55.8208 L 787.856,-55.6875 L 787.348,-55.607
 L 786.833,-55.58 z
M 981.152,-55.607 L 980.644,-55.6875 L 980.146,-55.8208 L 979.666,-56.0054 L 979.207,-56.2392 L 978.775,-56.5196
 L 978.375,-56.8437 L 978.01,-57.2079 L 977.686,-57.6081 L 977.406,-58.04 L 977.172,-58.4989 L 976.987,-58.9796
 L 976.854,-59.4771 L 976.774,-59.9857 L 976.747,-60.5 L 976.774,-61.0143 L 976.854,-61.5229 L 976.987,-62.0204
 L 977.172,-62.5011 L 977.406,-62.96 L 977.686,-63.3919 L 978.01,-63.7921 L 978.375,-64.1563 L 978.775,-64.4804
 L 979.117,-64.7024 L 979.117,-74 L 979.172,-74.5302 L 979.337,-75.0372 L 979.604,-75.4988 L 979.96,-75.895
 L 980.392,-76.2084 L 980.879,-76.4252 L 981.4,-76.536 L 981.933,-76.536 L 982.455,-76.4252 L 982.942,-76.2084
 L 983.373,-75.895 L 983.73,-75.4988 L 983.996,-75.0372 L 984.161,-74.5302 L 984.217,-74 L 984.217,-64.7024
 L 984.559,-64.4804 L 984.959,-64.1563 L 985.323,-63.7921 L 985.647,-63.3919 L 985.927,-62.96 L 986.161,-62.5011
 L 986.346,-62.0204 L 986.479,-61.5229 L 986.56,-61.0143 L 986.587,-60.5 L 986.56,-59.9857 L 986.479,-59.4771
 L 986.346,-58.9796 L 986.161,-58.4989 L 985.927,-58.04 L 985.647,-57.6081 L 985.323,-57.2079 L 984.959,-56.8437
 L 984.559,-56.5196 L 984.127,-56.2392 L 983.668,-56.0054 L 983.187,-55.8208 L 982.69,-55.6875 L 982.181,-55.607
 L 981.667,-55.58 z
M 1175.99,-55.607 L 1175.48,-55.6875 L 1174.98,-55.8208 L 1174.5,-56.0054 L 1174.04,-56.2392 L 1173.61,-56.5196
 L 1173.21,-56.8437 L 1172.84,-57.2079 L 1172.52,-57.6081 L 1172.24,-58.04 L 1172.01,-58.4989 L 1171.82,-58.9796
 L 1171.69,-59.4771 L 1171.61,-59.9857 L 1171.58,-60.5 L 1171.61,-61.0143 L 1171.69,-61.5229 L 1171.82,-62.0204
 L 1172.01,-62.5011 L 1172.24,-62.96 L 1172.52,-63.3919 L 1172.84,-63.7921 L 1173.21,-64.1563 L 1173.61,-64.4804
 L 1173.95,-64.7024 L 1173.95,-74 L 1174.01,-74.5302 L 1174.17,-75.0372 L 1174.44,-75.4988 L 1174.79,-75.895
 L 1175.23,-76.2084 L 1175.71,-76.4252 L 1176.23,-76.536 L 1176.77,-76.536 L 1177.29,-76.4252 L 1177.77,-76.2084
 L 1178.21,-75.895 L 1178.56,-75.4988 L 1178.83,-75.0372 L 1178.99,-74.5302 L 1179.05,-74 L 1179.05,-64.7024
 L 1179.39,-64.4804 L 1179.79,-64.1563 L 1180.16,-63.7921 L 1180.48,-63.3919 L 1180.76,-62.96 L 1180.99,-62.5011
 L 1181.18,-62.0204 L 1181.31,-61.5229 L 1181.39,-61.0143 L 1181.42,-60.5 L 1181.39,-59.9857 L 1181.31,-59.4771
 L 1181.18,-58.9796 L 1180.99,-58.4989 L 1180.76,-58.04 L 1180.48,-57.6081 L 1180.16,-57.2079 L 1179.79,-56.8437
 L 1179.39,-56.5196 L 1178.96,-56.2392 L 1178.5,-56.0054 L 1178.02,-55.8208 L 1177.52,-55.6875 L 1177.01,-55.607
 L 1176.5,-55.58 z
M 993.513,-20.4729 L 992.742,-20.7964 L 992.055,-21.2732 L 991.482,-21.8824 L 991.049,-22.5974 L 990.773,-23.3869
 L 990.667,-24.303 L 990.667,-58 L 990.754,-58.8316 L 991.012,-59.627 L 991.431,-60.3511 L 991.99,-60.9726
 L 992.667,-61.4641 L 993.431,-61.8042 L 994.667,-62 L 1091.22,-62 L 1092.05,-61.9126 L 1092.84,-61.6542
 L 1093.57,-61.2361 L 1094.19,-60.6765 L 1094.68,-60 L 1095.02,-59.2361 L 1095.19,-58.4181 L 1095.19,-57.5819
 L 1095.02,-56.7639 L 1094.68,-56 L 1094.19,-55.3235 L 1093.57,-54.7639 L 1092.53,-54.2234 L 995.985,-20.5264
 L 995.171,-20.3349 L 994.335,-20.3168 z
M 383.663,-20.3349 L 382.849,-20.5264 L 286.3,-54.2234 L 285.267,-54.7639 L 284.646,-55.3235 L 284.154,-56
 L 283.814,-56.7639 L 283.64,-57.5819 L 283.64,-58.4181 L 283.814,-59.2361 L 284.154,-60 L 284.646,-60.6765
 L 285.267,-61.2361 L 285.991,-61.6542 L 286.787,-61.9126 L 287.618,-62 L 384.167,-62 L 385.403,-61.8042
 L 386.167,-61.4641 L 386.843,-60.9726 L 387.403,-60.3511 L 387.821,-59.627 L 388.079,-58.8316 L 388.167,-58
 L 388.167,-24.303 L 388.06,-23.3869 L 387.785,-22.5974 L 387.351,-21.8824 L 386.778,-21.2732 L 386.091,-20.7964
 L 385.32,-20.4729 L 384.499,-20.3168 z
M 188.829,-20.3349 L 188.015,-20.5264 L 91.4668,-54.2234 L 90.4337,-54.7639 L 89.8123,-55.3235 L 89.3207,-56
 L 88.9806,-56.7639 L 88.8067,-57.5819 L 88.8067,-58.4181 L 88.9806,-59.2361 L 89.3207,-60 L 89.8123,-60.6765
 L 90.4337,-61.2361 L 91.1579,-61.6542 L 91.9532,-61.9126 L 92.7848,-62 L 189.333,-62 L 190.569,-61.8042
 L 191.333,-61.4641 L 192.01,-60.9726 L 192.569,-60.3511 L 192.988,-59.627 L 193.246,-58.8316 L 193.333,-58
 L 193.333,-24.303 L 193.227,-23.3869 L 192.951,-22.5974 L 192.518,-21.8824 L 191.945,-21.2732 L 191.258,-20.7964
 L 190.487,-20.4729 L 189.665,-20.3168 z
M 578.496,-20.3349 L 577.682,-20.5264 L 481.133,-54.2234 L 480.1,-54.7639 L 479.479,-55.3235 L 478.987,-56
 L 478.647,-56.7639 L 478.473,-57.5819 L 478.473,-58.4181 L 478.647,-59.2361 L 478.987,-60 L 479.479,-60.6765
 L 480.1,-61.2361 L 480.825,-61.6542 L 481.62,-61.9126 L 482.451,-62 L 579,-62 L 580.236,-61.8042
 L 581,-61.4641 L 581.677,-60.9726 L 582.236,-60.3511 L 582.654,-59.627 L 582.913,-58.8316 L 583,-58
 L 583,-24.303 L 582.894,-23.3869 L 582.618,-22.5974 L 582.184,-21.8824 L 581.612,-21.2732 L 580.925,-20.7964
 L 580.153,-20.4729 L 579.332,-20.3168 z
M 603.847,-20.4729 L 603.075,-20.7964 L 602.388,-21.2732 L 601.816,-21.8824 L 601.382,-22.5974 L 601.106,-23.3869
 L 601,-24.303 L 601,-58 L 601.087,-58.8316 L 601.346,-59.627 L 601.764,-60.3511 L 602.323,-60.9726
 L 603,-61.4641 L 603.764,-61.8042 L 605,-62 L 701.548,-62 L 702.38,-61.9126 L 703.175,-61.6542
 L 703.9,-61.2361 L 704.521,-60.6765 L 705.013,-60 L 705.353,-59.2361 L 705.527,-58.4181 L 705.527,-57.5819
 L 705.353,-56.7639 L 705.013,-56 L 704.521,-55.3235 L 703.9,-54.7639 L 702.867,-54.2234 L 606.318,-20.5264
 L 605.504,-20.3349 L 604.668,-20.3168 z
M 798.68,-20.4729 L 797.909,-20.7964 L 797.222,-21.2732 L 796.649,-21.8824 L 796.215,-22.5974 L 795.94,-23.3869
 L 795.833,-24.303 L 795.833,-58 L 795.921,-58.8316 L 796.179,-59.627 L 796.597,-60.3511 L 797.157,-60.9726
 L 797.833,-61.4641 L 798.597,-61.8042 L 799.833,-62 L 896.382,-62 L 897.213,-61.9126 L 898.009,-61.6542
 L 898.733,-61.2361 L 899.354,-60.6765 L 899.846,-60 L 900.186,-59.2361 L 900.36,-58.4181 L 900.36,-57.5819
 L 900.186,-56.7639 L 899.846,-56 L 899.354,-55.3235 L 898.733,-54.7639 L 897.7,-54.2234 L 801.151,-20.5264
 L 800.337,-20.3349 L 799.501,-20.3168 z
M 215.333,-18 L 214.097,-18.1958 L 213.333,-18.5359 L 212.657,-19.0274 L 212.097,-19.6489 L 211.679,-20.373
 L 211.421,-21.1684 L 211.333,-22 L 211.333,-55.697 L 211.44,-56.6131 L 211.715,-57.4026 L 212.149,-58.1176
 L 212.722,-58.7268 L 213.409,-59.2035 L 214.18,-59.5271 L 215.001,-59.6832 L 215.837,-59.6651 L 216.651,-59.4736
 L 313.2,-25.7766 L 314.233,-25.2361 L 314.854,-24.6765 L 315.346,-24 L 315.686,-23.2361 L 315.86,-22.4181
 L 315.86,-21.5819 L 315.686,-20.7639 L 315.346,-20 L 314.854,-19.3235 L 314.233,-18.7639 L 313.509,-18.3458
 L 312.713,-18.0874 L 311.882,-18 z
M 410.167,-18 L 408.931,-18.1958 L 408.167,-18.5359 L 407.49,-19.0274 L 406.931,-19.6489 L 406.512,-20.373
 L 406.254,-21.1684 L 406.167,-22 L 406.167,-55.697 L 406.273,-56.6131 L 406.549,-57.4026 L 406.982,-58.1176
 L 407.555,-58.7268 L 408.242,-59.2035 L 409.013,-59.5271 L 409.835,-59.6832 L 410.671,-59.6651 L 411.485,-59.4736
 L 508.033,-25.7766 L 509.066,-25.2361 L 509.688,-24.6765 L 510.179,-24 L 510.519,-23.2361 L 510.693,-22.4181
 L 510.693,-21.5819 L 510.519,-20.7639 L 510.179,-20 L 509.688,-19.3235 L 509.066,-18.7639 L 508.342,-18.3458
 L 507.547,-18.0874 L 506.715,-18 z
M 677.285,-18 L 676.453,-18.0874 L 675.658,-18.3458 L 674.934,-18.7639 L 674.312,-19.3235 L 673.821,-20
 L 673.481,-20.7639 L 673.307,-21.5819 L 673.307,-22.4181 L 673.481,-23.2361 L 673.821,-24 L 674.312,-24.6765
 L 674.934,-25.2361 L 675.967,-25.7766 L 772.515,-59.4736 L 773.329,-59.6651 L 774.165,-59.6832 L 774.987,-59.5271
 L 775.758,-59.2035 L 776.445,-58.7268 L 777.018,-58.1176 L 777.451,-57.4026 L 777.727,-56.6131 L 777.833,-55.697
 L 777.833,-22 L 777.746,-21.1684 L 777.488,-20.373 L 777.069,-19.6489 L 776.51,-19.0274 L 775.833,-18.5359
 L 775.069,-18.1958 L 773.833,-18 z
M 872.118,-18 L 871.287,-18.0874 L 870.491,-18.3458 L 869.767,-18.7639 L 869.146,-19.3235 L 868.654,-20
 L 868.314,-20.7639 L 868.14,-21.5819 L 868.14,-22.4181 L 868.314,-23.2361 L 868.654,-24 L 869.146,-24.6765
 L 869.767,-25.2361 L 870.8,-25.7766 L 967.349,-59.4736 L 968.163,-59.6651 L 968.999,-59.6832 L 969.82,-59.5271
 L 970.591,-59.2035 L 971.278,-58.7268 L 971.851,-58.1176 L 972.285,-57.4026 L 972.56,-56.6131 L 972.667,-55.697
 L 972.667,-22 L 972.579,-21.1684 L 972.321,-20.373 L 971.903,-19.6489 L 971.343,-19.0274 L 970.667,-18.5359
 L 969.903,-18.1958 L 968.667,-18 z
M 1066.95,-18 L 1066.12,-18.0874 L 1065.32,-18.3458 L 1064.6,-18.7639 L 1063.98,-19.3235 L 1063.49,-20
 L 1063.15,-20.7639 L 1062.97,-21.5819 L 1062.97,-22.4181 L 1063.15,-23.2361 L 1063.49,-24 L 1063.98,-24.6765
 L 1064.6,-25.2361 L 1065.63,-25.7766 L 1160.68,-58.95 L 1161.5,-59.1416 L 1162.33,-59.1597 L 1163.15,-59.0035
 L 1163.92,-58.68 L 1164.61,-58.2032 L 1165.18,-57.5941 L 1165.62,-56.8791 L 1165.89,-56.0896 L 1166,-55.1734
 L 1166,-22 L 1165.91,-21.1684 L 1165.65,-20.373 L 1165.24,-19.6489 L 1164.68,-19.0274 L 1164,-18.5359
 L 1163.24,-18.1958 L 1162,-18 z
M 22,-18 L 20.7639,-18.1958 L 20,-18.5359 L 19.3235,-19.0274 L 18.7639,-19.6489 L 18.3458,-20.373
 L 18.0874,-21.1684 L 18,-22 L 18,-55.1734 L 18.1063,-56.0896 L 18.3819,-56.8791 L 18.8156,-57.5941
 L 19.3884,-58.2032 L 20.0754,-58.68 L 20.8465,-59.0035 L 21.6681,-59.1597 L 22.5041,-59.1416 L 23.3181,-58.95
 L 118.367,-25.7766 L 119.4,-25.2361 L 120.021,-24.6765 L 120.513,-24 L 120.853,-23.2361 L 121.027,-22.4181
 L 121.027,-21.5819 L 120.853,-20.7639 L 120.513,-20 L 120.021,-19.3235 L 119.4,-18.7639 L 118.675,-18.3458
 L 117.88,-18.0874 L 117.048,-18 z
" stroke="black" fill="lightgray" stroke-width="0.5"/>
</svg>
