<?xml version="1.0" standalone="no"?>
<!DOCTYPE svg PUBLIC "-//W3C//DTD SVG 1.1//EN" "http://www.w3.org/Graphics/SVG/1.1/DTD/svg11.dtd">
<svg width="1427mm" height="80mm" viewBox="0 -80 1427 80" xmlns="http://www.w3.org/2000/svg" version="1.1">
<title>OpenSCAD Model</title>
<path d="
M 1427,-80 L 0,-80 L 0,-0 L 4.95,-0 L 4.95,-6 L 5.00572,-6.53017
 L 5.17046,-7.03717 L 5.437,-7.49884 L 5.79372,-7.895 L 6.22499,-8.20836 L 6.71201,-8.42519 L 7.23344,-8.53603
 L 7.76654,-8.53603 L 8.28798,-8.42519 L 8.77499,-8.20836 L 9.20627,-7.895 L 9.56299,-7.49884 L 9.82953,-7.03717
 L 9.99426,-6.53017 L 10.05,-6 L 10.05,-0 L 181.45,-0 L 181.45,-6 L 181.506,-6.53017
 L 181.67,-7.03717 L 181.937,-7.49884 L 182.294,-7.895 L 182.725,-8.20836 L 183.212,-8.42519 L 183.733,-8.53603
 L 184.267,-8.53603 L 184.788,-8.42519 L 185.275,-8.20836 L 185.706,-7.895 L 186.063,-7.49884 L 186.33,-7.03717
 L 186.494,-6.53017 L 186.55,-6 L 186.55,-0 L 357.95,-0 L 357.95,-6 L 358.006,-6.53017
 L 358.17,-7.03717 L 358.437,-7.49884 L 358.794,-7.895 L 359.225,-8.20836 L 359.712,-8.42519 L 360.233,-8.53603
 L 360.767,-8.53603 L 361.288,-8.42519 L 361.775,-8.20836 L 362.206,-7.895 L 362.563,-7.49884 L 362.83,-7.03717
 L 362.994,-6.53017 L 363.05,-6 L 363.05,-0 L 534.45,-0 L 534.45,-6 L 534.506,-6.53017
 L 534.67,-7.03717 L 534.937,-7.49884 L 535.294,-7.895 L 535.725,-8.20836 L 536.212,-8.42519 L 536.733,-8.53603
 L 537.267,-8.53603 L 537.788,-8.42519 L 538.275,-8.20836 L 538.706,-7.895 L 539.063,-7.49884 L 539.33,-7.03717
 L 539.494,-6.53017 L 539.55,-6 L 539.55,-0 L 710.95,-0 L 710.95,-6 L 711.006,-6.53017
 L 711.17,-7.03717 L 711.437,-7.49884 L 711.794,-7.895 L 712.225,-8.20836 L 712.712,-8.42519 L 713.233,-8.53603
 L 713.767,-8.53603 L 714.288,-8.42519 L 714.775,-8.20836 L 715.206,-7.895 L 715.563,-7.49884 L 715.83,-7.03717
 L 715.994,-6.53017 L 716.05,-6 L 716.05,-0 L 887.45,-0 L 887.45,-6 L 887.506,-6.53017
 L 887.67,-7.03717 L 887.937,-7.49884 L 888.294,-7.895 L 888.725,-8.20836 L 889.212,-8.42519 L 889.733,-8.53603
 L 890.267,-8.53603 L 890.788,-8.42519 L 891.275,-8.20836 L 891.706,-7.895 L 892.063,-7.49884 L 892.33,-7.03717
 L 892.494,-6.53017 L 892.55,-6 L 892.55,-0 L 1063.95,-0 L 1063.95,-6 L 1064.01,-6.53017
 L 1064.17,-7.03717 L 1064.44,-7.49884 L 1064.79,-7.895 L 1065.22,-8.20836 L 1065.71,-8.42519 L 1066.23,-8.53603
 L 1066.77,-8.53603 L 1067.29,-8.42519 L 1067.77,-8.20836 L 1068.21,-7.895 L 1068.56,-7.49884 L 1068.83,-7.03717
 L 1068.99,-6.53017 L 1069.05,-6 L 1069.05,-0 L 1240.45,-0 L 1240.45,-6 L 1240.51,-6.53017
 L 1240.67,-7.03717 L 1240.94,-7.49884 L 1241.29,-7.895 L 1241.72,-8.20836 L 1242.21,-8.42519 L 1242.73,-8.53603
 L 1243.27,-8.53603 L 1243.79,-8.42519 L 1244.27,-8.20836 L 1244.71,-7.895 L 1245.06,-7.49884 L 1245.33,-7.03717
 L 1245.49,-6.53017 L 1245.55,-6 L 1245.55,-0 L 1416.95,-0 L 1416.95,-6 L 1417.01,-6.53017
 L 1417.17,-7.03717 L 1417.44,-7.49884 L 1417.79,-7.895 L 1418.22,-8.20836 L 1418.71,-8.42519 L 1419.23,-8.53603
 L 1419.77,-8.53603 L 1420.29,-8.42519 L 1420.77,-8.20836 L 1421.21,-7.895 L 1421.56,-7.49884 L 1421.83,-7.03717
 L 1421.99,-6.53017 L 1422.05,-6 L 1422.05,-0 L 1427,-0 z
M 183.486,-55.607 L 182.977,-55.6875 L 182.48,-55.8208 L 181.999,-56.0054 L 181.54,-56.2392 L 181.108,-56.5196
 L 180.708,-56.8437 L 180.344,-57.2079 L 180.02,-57.6081 L 179.739,-58.04 L 179.505,-58.4989 L 179.321,-58.9796
 L 179.188,-59.4771 L 179.107,-59.9857 L 179.08,-60.5 L 179.107,-61.0143 L 179.188,-61.5229 L 179.321,-62.0204
 L 179.505,-62.5011 L 179.739,-62.96 L 180.02,-63.3919 L 180.344,-63.7921 L 180.708,-64.1563 L 181.108,-64.4804
 L 181.45,-64.7024 L 181.45,-74 L 181.506,-74.5302 L 181.67,-75.0372 L 181.937,-75.4988 L 182.294,-75.895
 L 182.725,-76.2084 L 183.212,-76.4252 L 183.733,-76.536 L 184.267,-76.536 L 184.788,-76.4252 L 185.275,-76.2084
 L 185.706,-75.895 L 186.063,-75.4988 L 186.33,-75.0372 L 186.494,-74.5302 L 186.55,-74 L 186.55,-64.7024
 L 186.892,-64.4804 L 187.292,-64.1563 L 187.656,-63.7921 L 187.98,-63.3919 L 188.261,-62.96 L 188.495,-62.5011
 L 188.679,-62.0204 L 188.812,-61.5229 L 188.893,-61.0143 L 188.92,-60.5 L 188.893,-59.9857 L 188.812,-59.4771
 L 188.679,-58.9796 L 188.495,-58.4989 L 188.261,-58.04 L 187.98,-57.6081 L 187.656,-57.2079 L 187.292,-56.8437
 L 186.892,-56.5196 L 186.46,-56.2392 L 186.001,-56.0054 L 185.52,-55.8208 L 185.023,-55.6875 L 184.514,-55.607
 L 184,-55.58 z
M 1065.99,-55.607 L 1065.48,-55.6875 L 1064.98,-55.8208 L 1064.5,-56.0054 L 1064.04,-56.2392 L 1063.61,-56.5196
 L 1063.21,-56.8437 L 1062.84,-57.2079 L 1062.52,-57.6081 L 1062.24,-58.04 L 1062.01,-58.4989 L 1061.82,-58.9796
 L 1061.69,-59.4771 L 1061.61,-59.9857 L 1061.58,-60.5 L 1061.61,-61.0143 L 1061.69,-61.5229 L 1061.82,-62.0204
 L 1062.01,-62.5011 L 1062.24,-62.96 L 1062.52,-63.3919 L 1062.84,-63.7921 L 1063.21,-64.1563 L 1063.61,-64.4804
 L 1063.95,-64.7024 L 1063.95,-74 L 1064.01,-74.5302 L 1064.17,-75.0372 L 1064.44,-75.4988 L 1064.79,-75.895
 L 1065.23,-76.2084 L 1065.71,-76.4252 L 1066.23,-76.536 L 1066.77,-76.536 L 1067.29,-76.4252 L 1067.77,-76.2084
 L 1068.21,-75.895 L 1068.56,-75.4988 L 1068.83,-75.0372 L 1068.99,-74.5302 L 1069.05,-74 L 1069.05,-64.7024
 L 1069.39,-64.4804 L 1069.79,-64.1563 L 1070.16,-63.7921 L 1070.48,-63.3919 L 1070.76,-62.96 L 1070.99,-62.5011
 L 1071.18,-62.0204 L 1071.31,-61.5229 L 1071.39,-61.0143 L 1071.42,-60.5 L 1071.39,-59.9857 L 1071.31,-59.4771
 L 1071.18,-58.9796 L 1070.99,-58.4989 L 1070.76,-58.04 L 1070.48,-57.6081 L 1070.16,-57.2079 L 1069.79,-56.8437
 L 1069.39,-56.5196 L 1068.96,-56.2392 L 1068.5,-56.0054 L 1068.02,-55.8208 L 1067.52,-55.6875 L 1067.01,-55.607
 L 1066.5,-55.58 z
M 889.486,-55.607 L 888.977,-55.6875 L 888.48,-55.8208 L 887.999,-56.0054 L 887.54,-56.2392 L 887.108,-56.5196
 L 886.708,-56.8437 L 886.344,-57.2079 L 886.02,-57.6081 L 885.739,-58.04 L 885.505,-58.4989 L 885.321,-58.9796
 L 885.188,-59.4771 L 885.107,-59.9857 L 885.08,-60.5 L 885.107,-61.0143 L 885.188,-61.5229 L 885.321,-62.0204
 L 885.505,-62.5011 L 885.739,-62.96 L 886.02,-63.3919 L 886.344,-63.7921 L 886.708,-64.1563 L 887.108,-64.4804
 L 887.45,-64.7024 L 887.45,-74 L 887.506,-74.5302 L 887.67,-75.0372 L 887.937,-75.4988 L 888.294,-75.895
 L 888.725,-76.2084 L 889.212,-76.4252 L 889.733,-76.536 L 890.267,-76.536 L 890.788,-76.4252 L 891.275,-76.2084
 L 891.706,-75.895 L 892.063,-75.4988 L 892.33,-75.0372 L 892.494,-74.5302 L 892.55,-74 L 892.55,-64.7024
 L 892.892,-64.4804 L 893.292,-64.1563 L 893.656,-63.7921 L 893.98,-63.3919 L 894.261,-62.96 L 894.495,-62.5011
 L 894.679,-62.0204 L 894.812,-61.5229 L 894.893,-61.0143 L 894.92,-60.5 L 894.893,-59.9857 L 894.812,-59.4771
 L 894.679,-58.9796 L 894.495,-58.4989 L 894.261,-58.04 L 893.98,-57.6081 L 893.656,-57.2079 L 893.292,-56.8437
 L 892.892,-56.5196 L 892.46,-56.2392 L 892.001,-56.0054 L 891.52,-55.8208 L 891.023,-55.6875 L 890.514,-55.607
 L 890,-55.58 z
M 6.98573,-55.607 L 6.47708,-55.6875 L 5.97964,-55.8208 L 5.49887,-56.0054 L 5.04001,-56.2392 L 4.60811,-56.5196
 L 4.20789,-56.8437 L 3.84373,-57.2079 L 3.51964,-57.6081 L 3.23917,-58.04 L 3.00537,-58.4989 L 2.82082,-58.9796
 L 2.68752,-59.4771 L 2.60696,-59.9857 L 2.58,-60.5 L 2.60696,-61.0143 L 2.68752,-61.5229 L 2.82082,-62.0204
 L 3.00537,-62.5011 L 3.23917,-62.96 L 3.51964,-63.3919 L 3.84373,-63.7921 L 4.20789,-64.1563 L 4.60811,-64.4804
 L 4.95001,-64.7024 L 4.95001,-74 L 5.00574,-74.5302 L 5.17047,-75.0372 L 5.43701,-75.4988 L 5.79373,-75.895
 L 6.22501,-76.2084 L 6.71202,-76.4252 L 7.23346,-76.536 L 7.76654,-76.536 L 8.28798,-76.4252 L 8.77499,-76.2084
 L 9.20627,-75.895 L 9.56299,-75.4988 L 9.82953,-75.0372 L 9.99426,-74.5302 L 10.05,-74 L 10.05,-64.7024
 L 10.3919,-64.4804 L 10.7921,-64.1563 L 11.1563,-63.7921 L 11.4804,-63.3919 L 11.7608,-62.96 L 11.9946,-62.5011
 L 12.1792,-62.0204 L 12.3125,-61.5229 L 12.393,-61.0143 L 12.42,-60.5 L 12.393,-59.9857 L 12.3125,-59.4771
 L 12.1792,-58.9796 L 11.9946,-58.4989 L 11.7608,-58.04 L 11.4804,-57.6081 L 11.1563,-57.2079 L 10.7921,-56.8437
 L 10.3919,-56.5196 L 9.95999,-56.2392 L 9.50113,-56.0054 L 9.02036,-55.8208 L 8.52292,-55.6875 L 8.01427,-55.607
 L 7.5,-55.58 z
M 712.986,-55.607 L 712.477,-55.6875 L 711.98,-55.8208 L 711.499,-56.0054 L 711.04,-56.2392 L 710.608,-56.5196
 L 710.208,-56.8437 L 709.844,-57.2079 L 709.52,-57.6081 L 709.239,-58.04 L 709.005,-58.4989 L 708.821,-58.9796
 L 708.688,-59.4771 L 708.607,-59.9857 L 708.58,-60.5 L 708.607,-61.0143 L 708.688,-61.5229 L 708.821,-62.0204
 L 709.005,-62.5011 L 709.239,-62.96 L 709.52,-63.3919 L 709.844,-63.7921 L 710.208,-64.1563 L 710.608,-64.4804
 L 710.95,-64.7024 L 710.95,-74 L 711.006,-74.5302 L 711.17,-75.0372 L 711.437,-75.4988 L 711.794,-75.895
 L 712.225,-76.2084 L 712.712,-76.4252 L 713.233,-76.536 L 713.767,-76.536 L 714.288,-76.4252 L 714.775,-76.2084
 L 715.206,-75.895 L 715.563,-75.4988 L 715.83,-75.0372 L 715.994,-74.5302 L 716.05,-74 L 716.05,-64.7024
 L 716.392,-64.4804 L 716.792,-64.1563 L 717.156,-63.7921 L 717.48,-63.3919 L 717.761,-62.96 L 717.995,-62.5011
 L 718.179,-62.0204 L 718.312,-61.5229 L 718.393,-61.0143 L 718.42,-60.5 L 718.393,-59.9857 L 718.312,-59.4771
 L 718.179,-58.9796 L 717.995,-58.4989 L 717.761,-58.04 L 717.48,-57.6081 L 717.156,-57.2079 L 716.792,-56.8437
 L 716.392,-56.5196 L 715.96,-56.2392 L 715.501,-56.0054 L 715.02,-55.8208 L 714.523,-55.6875 L 714.014,-55.607
 L 713.5,-55.58 z
M 1242.49,-55.607 L 1241.98,-55.6875 L 1241.48,-55.8208 L 1241,-56.0054 L 1240.54,-56.2392 L 1240.11,-56.5196
 L 1239.71,-56.8437 L 1239.34,-57.2079 L 1239.02,-57.6081 L 1238.74,-58.04 L 1238.51,-58.4989 L 1238.32,-58.9796
 L 1238.19,-59.4771 L 1238.11,-59.9857 L 1238.08,-60.5 L 1238.11,-61.0143 L 1238.19,-61.5229 L 1238.32,-62.0204
 L 1238.51,-62.5011 L 1238.74,-62.96 L 1239.02,-63.3919 L 1239.34,-63.7921 L 1239.71,-64.1563 L 1240.11,-64.4804
 L 1240.45,-64.7024 L 1240.45,-74 L 1240.51,-74.5302 L 1240.67,-75.0372 L 1240.94,-75.4988 L 1241.29,-75.895
 L 1241.73,-76.2084 L 1242.21,-76.4252 L 1242.73,-76.536 L 1243.27,-76.536 L 1243.79,-76.4252 L 1244.27,-76.2084
 L 1244.71,-75.895 L 1245.06,-75.4988 L 1245.33,-75.0372 L 1245.49,-74.5302 L 1245.55,-74 L 1245.55,-64.7024
 L 1245.89,-64.4804 L 1246.29,-64.1563 L 1246.66,-63.7921 L 1246.98,-63.3919 L 1247.26,-62.96 L 1247.49,-62.5011
 L 1247.68,-62.0204 L 1247.81,-61.5229 L 1247.89,-61.0143 L 1247.92,-60.5 L 1247.89,-59.9857 L 1247.81,-59.4771
 L 1247.68,-58.9796 L 1247.49,-58.4989 L 1247.26,-58.04 L 1246.98,-57.6081 L 1246.66,-57.2079 L 1246.29,-56.8437
 L 1245.89,-56.5196 L 1245.46,-56.2392 L 1245,-56.0054 L 1244.52,-55.8208 L 1244.02,-55.6875 L 1243.51,-55.607
 L 1243,-55.58 z
M 536.486,-55.607 L 535.977,-55.6875 L 535.48,-55.8208 L 534.999,-56.0054 L 534.54,-56.2392 L 534.108,-56.5196
 L 533.708,-56.8437 L 533.344,-57.2079 L 533.02,-57.6081 L 532.739,-58.04 L 532.505,-58.4989 L 532.321,-58.9796
 L 532.188,-59.4771 L 532.107,-59.9857 L 532.08,-60.5 L 532.107,-61.0143 L 532.188,-61.5229 L 532.321,-62.0204
 L 532.505,-62.5011 L 532.739,-62.96 L 533.02,-63.3919 L 533.344,-63.7921 L 533.708,-64.1563 L 534.108,-64.4804
 L 534.45,-64.7024 L 534.45,-74 L 534.506,-74.5302 L 534.67,-75.0372 L 534.937,-75.4988 L 535.294,-75.895
 L 535.725,-76.2084 L 536.212,-76.4252 L 536.733,-76.536 L 537.267,-76.536 L 537.788,-76.4252 L 538.275,-76.2084
 L 538.706,-75.895 L 539.063,-75.4988 L 539.33,-75.0372 L 539.494,-74.5302 L 539.55,-74 L 539.55,-64.7024
 L 539.892,-64.4804 L 540.292,-64.1563 L 540.656,-63.7921 L 540.98,-63.3919 L 541.261,-62.96 L 541.495,-62.5011
 L 541.679,-62.0204 L 541.812,-61.5229 L 541.893,-61.0143 L 541.92,-60.5 L 541.893,-59.9857 L 541.812,-59.4771
 L 541.679,-58.9796 L 541.495,-58.4989 L 541.261,-58.04 L 540.98,-57.6081 L 540.656,-57.2079 L 540.292,-56.8437
 L 539.892,-56.5196 L 539.46,-56.2392 L 539.001,-56.0054 L 538.52,-55.8208 L 538.023,-55.6875 L 537.514,-55.607
 L 537,-55.58 z
M 359.986,-55.607 L 359.477,-55.6875 L 358.98,-55.8208 L 358.499,-56.0054 L 358.04,-56.2392 L 357.608,-56.5196
 L 357.208,-56.8437 L 356.844,-57.2079 L 356.52,-57.6081 L 356.239,-58.04 L 356.005,-58.4989 L 355.821,-58.9796
 L 355.688,-59.4771 L 355.607,-59.9857 L 355.58,-60.5 L 355.607,-61.0143 L 355.688,-61.5229 L 355.821,-62.0204
 L 356.005,-62.5011 L 356.239,-62.96 L 356.52,-63.3919 L 356.844,-63.7921 L 357.208,-64.1563 L 357.608,-64.4804
 L 357.95,-64.7024 L 357.95,-74 L 358.006,-74.5302 L 358.17,-75.0372 L 358.437,-75.4988 L 358.794,-75.895
 L 359.225,-76.2084 L 359.712,-76.4252 L 360.233,-76.536 L 360.767,-76.536 L 361.288,-76.4252 L 361.775,-76.2084
 L 362.206,-75.895 L 362.563,-75.4988 L 362.83,-75.0372 L 362.994,-74.5302 L 363.05,-74 L 363.05,-64.7024
 L 363.392,-64.4804 L 363.792,-64.1563 L 364.156,-63.7921 L 364.48,-63.3919 L 364.761,-62.96 L 364.995,-62.5011
 L 365.179,-62.0204 L 365.312,-61.5229 L 365.393,-61.0143 L 365.42,-60.5 L 365.393,-59.9857 L 365.312,-59.4771
 L 365.179,-58.9796 L 364.995,-58.4989 L 364.761,-58.04 L 364.48,-57.6081 L 364.156,-57.2079 L 363.792,-56.8437
 L 363.392,-56.5196 L 362.96,-56.2392 L 362.501,-56.0054 L 362.02,-55.8208 L 361.523,-55.6875 L 361.014,-55.607
 L 360.5,-55.58 z
M 1418.99,-55.607 L 1418.48,-55.6875 L 1417.98,-55.8208 L 1417.5,-56.0054 L 1417.04,-56.2392 L 1416.61,-56.5196
 L 1416.21,-56.8437 L 1415.84,-57.2079 L 1415.52,-57.6081 L 1415.24,-58.04 L 1415.01,-58.4989 L 1414.82,-58.9796
 L 1414.69,-59.4771 L 1414.61,-59.9857 L 1414.58,-60.5 L 1414.61,-61.0143 L 1414.69,-61.5229 L 1414.82,-62.0204
 L 1415.01,-62.5011 L 1415.24,-62.96 L 1415.52,-63.3919 L 1415.84,-63.7921 L 1416.21,-64.1563 L 1416.61,-64.4804
 L 1416.95,-64.7024 L 1416.95,-74 L 1417.01,-74.5302 L 1417.17,-75.0372 L 1417.44,-75.4988 L 1417.79,-75.895
 L 1418.23,-76.2084 L 1418.71,-76.4252 L 1419.23,-76.536 L 1419.77,-76.536 L 1420.29,-76.4252 L 1420.77,-76.2084
 L 1421.21,-75.895 L 1421.56,-75.4988 L 1421.83,-75.0372 L 1421.99,-74.5302 L 1422.05,-74 L 1422.05,-64.7024
 L 1422.39,-64.4804 L 1422.79,-64.1563 L 1423.16,-63.7921 L 1423.48,-63.3919 L 1423.76,-62.96 L 1423.99,-62.5011
 L 1424.18,-62.0204 L 1424.31,-61.5229 L 1424.39,-61.0143 L 1424.42,-60.5 L 1424.39,-59.9857 L 1424.31,-59.4771
 L 1424.18,-58.9796 L 1423.99,-58.4989 L 1423.76,-58.04 L 1423.48,-57.6081 L 1423.16,-57.2079 L 1422.79,-56.8437
 L 1422.39,-56.5196 L 1421.96,-56.2392 L 1421.5,-56.0054 L 1421.02,-55.8208 L 1420.52,-55.6875 L 1420.01,-55.607
 L 1419.5,-55.58 z
M 346.869,-20.9717 L 346.062,-21.1892 L 260.204,-54.2674 L 259.291,-54.7639 L 258.67,-55.3235 L 258.178,-56
 L 257.838,-56.7639 L 257.664,-57.5819 L 257.664,-58.4181 L 257.838,-59.2361 L 258.178,-60 L 258.67,-60.6765
 L 259.291,-61.2361 L 260.015,-61.6542 L 260.811,-61.9126 L 261.642,-62 L 347.5,-62 L 348.736,-61.8042
 L 349.5,-61.4641 L 350.177,-60.9726 L 350.736,-60.3511 L 351.154,-59.627 L 351.413,-58.8316 L 351.5,-58
 L 351.5,-24.9217 L 351.362,-23.8817 L 351.062,-23.1014 L 350.605,-22.4006 L 350.013,-21.8101 L 349.312,-21.3555
 L 348.531,-21.0567 L 347.704,-20.927 z
M 523.369,-20.9717 L 522.562,-21.1892 L 436.704,-54.2674 L 435.791,-54.7639 L 435.17,-55.3235 L 434.678,-56
 L 434.338,-56.7639 L 434.164,-57.5819 L 434.164,-58.4181 L 434.338,-59.2361 L 434.678,-60 L 435.17,-60.6765
 L 435.791,-61.2361 L 436.515,-61.6542 L 437.311,-61.9126 L 438.142,-62 L 524,-62 L 525.236,-61.8042
 L 526,-61.4641 L 526.677,-60.9726 L 527.236,-60.3511 L 527.654,-59.627 L 527.913,-58.8316 L 528,-58
 L 528,-24.9217 L 527.862,-23.8817 L 527.562,-23.1014 L 527.105,-22.4006 L 526.513,-21.8101 L 525.812,-21.3555
 L 525.031,-21.0567 L 524.204,-20.927 z
M 1254.97,-21.0567 L 1254.19,-21.3555 L 1253.49,-21.8101 L 1252.89,-22.4006 L 1252.44,-23.1014 L 1252.14,-23.8817
 L 1252,-24.9217 L 1252,-58 L 1252.09,-58.8316 L 1252.35,-59.627 L 1252.76,-60.3511 L 1253.32,-60.9726
 L 1254,-61.4641 L 1254.76,-61.8042 L 1256,-62 L 1341.86,-62 L 1342.69,-61.9126 L 1343.48,-61.6542
 L 1344.21,-61.2361 L 1344.83,-60.6765 L 1345.32,-60 L 1345.66,-59.2361 L 1345.84,-58.4181 L 1345.84,-57.5819
 L 1345.66,-56.7639 L 1345.32,-56 L 1344.83,-55.3235 L 1344.21,-54.7639 L 1343.3,-54.2674 L 1257.44,-21.1892
 L 1256.63,-20.9717 L 1255.8,-20.927 z
M 699.869,-20.9717 L 699.062,-21.1892 L 613.204,-54.2674 L 612.291,-54.7639 L 611.67,-55.3235 L 611.178,-56
 L 610.838,-56.7639 L 610.664,-57.5819 L 610.664,-58.4181 L 610.838,-59.2361 L 611.178,-60 L 611.67,-60.6765
 L 612.291,-61.2361 L 613.015,-61.6542 L 613.811,-61.9126 L 614.642,-62 L 700.5,-62 L 701.736,-61.8042
 L 702.5,-61.4641 L 703.177,-60.9726 L 703.736,-60.3511 L 704.154,-59.627 L 704.413,-58.8316 L 704.5,-58
 L 704.5,-24.9217 L 704.362,-23.8817 L 704.062,-23.1014 L 703.605,-22.4006 L 703.013,-21.8101 L 702.312,-21.3555
 L 701.531,-21.0567 L 700.704,-20.927 z
M 170.369,-20.9717 L 169.562,-21.1892 L 83.7044,-54.2674 L 82.7913,-54.7639 L 82.1698,-55.3235 L 81.6783,-56
 L 81.3382,-56.7639 L 81.1643,-57.5819 L 81.1643,-58.4181 L 81.3382,-59.2361 L 81.6783,-60 L 82.1698,-60.6765
 L 82.7913,-61.2361 L 83.5154,-61.6542 L 84.3107,-61.9126 L 85.1424,-62 L 171,-62 L 172.236,-61.8042
 L 173,-61.4641 L 173.677,-60.9726 L 174.236,-60.3511 L 174.654,-59.627 L 174.913,-58.8316 L 175,-58
 L 175,-24.9217 L 174.862,-23.8817 L 174.562,-23.1014 L 174.105,-22.4006 L 173.513,-21.8101 L 172.812,-21.3555
 L 172.031,-21.0567 L 171.204,-20.927 z
M 725.469,-21.0567 L 724.688,-21.3555 L 723.987,-21.8101 L 723.395,-22.4006 L 722.938,-23.1014 L 722.638,-23.8817
 L 722.5,-24.9217 L 722.5,-58 L 722.587,-58.8316 L 722.846,-59.627 L 723.264,-60.3511 L 723.823,-60.9726
 L 724.5,-61.4641 L 725.264,-61.8042 L 726.5,-62 L 812.358,-62 L 813.189,-61.9126 L 813.985,-61.6542
 L 814.709,-61.2361 L 815.33,-60.6765 L 815.822,-60 L 816.162,-59.2361 L 816.336,-58.4181 L 816.336,-57.5819
 L 816.162,-56.7639 L 815.822,-56 L 815.33,-55.3235 L 814.709,-54.7639 L 813.796,-54.2674 L 727.938,-21.1892
 L 727.131,-20.9717 L 726.296,-20.927 z
M 901.969,-21.0567 L 901.188,-21.3555 L 900.487,-21.8101 L 899.895,-22.4006 L 899.438,-23.1014 L 899.138,-23.8817
 L 899,-24.9217 L 899,-58 L 899.087,-58.8316 L 899.346,-59.627 L 899.764,-60.3511 L 900.323,-60.9726
 L 901,-61.4641 L 901.764,-61.8042 L 903,-62 L 988.858,-62 L 989.689,-61.9126 L 990.485,-61.6542
 L 991.209,-61.2361 L 991.83,-60.6765 L 992.322,-60 L 992.662,-59.2361 L 992.836,-58.4181 L 992.836,-57.5819
 L 992.662,-56.7639 L 992.322,-56 L 991.83,-55.3235 L 991.209,-54.7639 L 990.296,-54.2674 L 904.438,-21.1892
 L 903.631,-20.9717 L 902.796,-20.927 z
M 1078.47,-21.0567 L 1077.69,-21.3555 L 1076.99,-21.8101 L 1076.39,-22.4006 L 1075.94,-23.1014 L 1075.64,-23.8817
 L 1075.5,-24.9217 L 1075.5,-58 L 1075.59,-58.8316 L 1075.85,-59.627 L 1076.26,-60.3511 L 1076.82,-60.9726
 L 1077.5,-61.4641 L 1078.26,-61.8042 L 1079.5,-62 L 1165.36,-62 L 1166.19,-61.9126 L 1166.98,-61.6542
 L 1167.71,-61.2361 L 1168.33,-60.6765 L 1168.82,-60 L 1169.16,-59.2361 L 1169.34,-58.4181 L 1169.34,-57.5819
 L 1169.16,-56.7639 L 1168.82,-56 L 1168.33,-55.3235 L 1167.71,-54.7639 L 1166.8,-54.2674 L 1080.94,-21.1892
 L 1080.13,-20.9717 L 1079.3,-20.927 z
M 197,-18 L 195.764,-18.1958 L 195,-18.5359 L 194.323,-19.0274 L 193.764,-19.6489 L 193.346,-20.373
 L 193.087,-21.1684 L 193,-22 L 193,-55.0783 L 193.138,-56.1183 L 193.438,-56.8986 L 193.895,-57.5993
 L 194.487,-58.1899 L 195.188,-58.6445 L 195.969,-58.9432 L 196.796,-59.073 L 197.631,-59.0282 L 198.438,-58.8108
 L 284.296,-25.7326 L 285.209,-25.2361 L 285.83,-24.6765 L 286.322,-24 L 286.662,-23.2361 L 286.836,-22.4181
 L 286.836,-21.5819 L 286.662,-20.7639 L 286.322,-20 L 285.83,-19.3235 L 285.209,-18.7639 L 284.485,-18.3458
 L 283.689,-18.0874 L 282.858,-18 z
M 373.5,-18 L 372.264,-18.1958 L 371.5,-18.5359 L 370.823,-19.0274 L 370.264,-19.6489 L 369.846,-20.373
 L 369.587,-21.1684 L 369.5,-22 L 369.5,-55.0783 L 369.638,-56.1183 L 369.938,-56.8986 L 370.395,-57.5993
 L 370.987,-58.1899 L 371.688,-58.6445 L 372.469,-58.9432 L 373.296,-59.073 L 374.131,-59.0282 L 374.938,-58.8108
 L 460.796,-25.7326 L 461.709,-25.2361 L 462.33,-24.6765 L 462.822,-24 L 463.162,-23.2361 L 463.336,-22.4181
 L 463.336,-21.5819 L 463.162,-20.7639 L 462.822,-20 L 462.33,-19.3235 L 461.709,-18.7639 L 460.985,-18.3458
 L 460.189,-18.0874 L 459.358,-18 z
M 550,-18 L 548.764,-18.1958 L 548,-18.5359 L 547.323,-19.0274 L 546.764,-19.6489 L 546.346,-20.373
 L 546.087,-21.1684 L 546,-22 L 546,-55.0783 L 546.138,-56.1183 L 546.438,-56.8986 L 546.895,-57.5993
 L 547.487,-58.1899 L 548.188,-58.6445 L 548.969,-58.9432 L 549.796,-59.073 L 550.631,-59.0282 L 551.438,-58.8108
 L 637.296,-25.7326 L 638.209,-25.2361 L 638.83,-24.6765 L 639.322,-24 L 639.662,-23.2361 L 639.836,-22.4181
 L 639.836,-21.5819 L 639.662,-20.7639 L 639.322,-20 L 638.83,-19.3235 L 638.209,-18.7639 L 637.485,-18.3458
 L 636.689,-18.0874 L 635.858,-18 z
M 791.142,-18 L 790.311,-18.0874 L 789.515,-18.3458 L 788.791,-18.7639 L 788.17,-19.3235 L 787.678,-20
 L 787.338,-20.7639 L 787.164,-21.5819 L 787.164,-22.4181 L 787.338,-23.2361 L 787.678,-24 L 788.17,-24.6765
 L 788.791,-25.2361 L 789.704,-25.7326 L 875.562,-58.8108 L 876.369,-59.0282 L 877.204,-59.073 L 878.031,-58.9432
 L 878.812,-58.6445 L 879.513,-58.1899 L 880.105,-57.5993 L 880.562,-56.8986 L 880.862,-56.1183 L 881,-55.0783
 L 881,-22 L 880.913,-21.1684 L 880.654,-20.373 L 880.236,-19.6489 L 879.677,-19.0274 L 879,-18.5359
 L 878.236,-18.1958 L 877,-18 z
M 967.642,-18 L 966.811,-18.0874 L 966.015,-18.3458 L 965.291,-18.7639 L 964.67,-19.3235 L 964.178,-20
 L 963.838,-20.7639 L 963.664,-21.5819 L 963.664,-22.4181 L 963.838,-23.2361 L 964.178,-24 L 964.67,-24.6765
 L 965.291,-25.2361 L 966.204,-25.7326 L 1052.06,-58.8108 L 1052.87,-59.0282 L 1053.7,-59.073 L 1054.53,-58.9432
 L 1055.31,-58.6445 L 1056.01,-58.1899 L 1056.61,-57.5993 L 1057.06,-56.8986 L 1057.36,-56.1183 L 1057.5,-55.0783
 L 1057.5,-22 L 1057.41,-21.1684 L 1057.15,-20.373 L 1056.74,-19.6489 L 1056.18,-19.0274 L 1055.5,-18.5359
 L 1054.74,-18.1958 L 1053.5,-18 z
M 1144.14,-18 L 1143.31,-18.0874 L 1142.52,-18.3458 L 1141.79,-18.7639 L 1141.17,-19.3235 L 1140.68,-20
 L 1140.34,-20.7639 L 1140.16,-21.5819 L 1140.16,-22.4181 L 1140.34,-23.2361 L 1140.68,-24 L 1141.17,-24.6765
 L 1141.79,-25.2361 L 1142.7,-25.7326 L 1228.56,-58.8108 L 1229.37,-59.0282 L 1230.2,-59.073 L 1231.03,-58.9432
 L 1231.81,-58.6445 L 1232.51,-58.1899 L 1233.11,-57.5993 L 1233.56,-56.8986 L 1233.86,-56.1183 L 1234,-55.0783
 L 1234,-22 L 1233.91,-21.1684 L 1233.65,-20.373 L 1233.24,-19.6489 L 1232.68,-19.0274 L 1232,-18.5359
 L 1231.24,-18.1958 L 1230,-18 z
M 1320.64,-18 L 1319.81,-18.0874 L 1319.02,-18.3458 L 1318.29,-18.7639 L 1317.67,-19.3235 L 1317.18,-20
 L 1316.84,-20.7639 L 1316.66,-21.5819 L 1316.66,-22.4181 L 1316.84,-23.2361 L 1317.18,-24 L 1317.67,-24.6765
 L 1318.29,-25.2361 L 1319.2,-25.7326 L 1403.56,-58.2329 L 1404.37,-58.4503 L 1405.2,-58.4951 L 1406.03,-58.3653
 L 1406.81,-58.0666 L 1407.51,-57.612 L 1408.11,-57.0215 L 1408.56,-56.3207 L 1408.86,-55.5404 L 1409,-54.5004
 L 1409,-22 L 1408.91,-21.1684 L 1408.65,-20.373 L 1408.24,-19.6489 L 1407.68,-19.0274 L 1407,-18.5359
 L 1406.24,-18.1958 L 1405,-18 z
M 22,-18 L 20.7639,-18.1958 L 20,-18.5359 L 19.3235,-19.0274 L 18.7639,-19.6489 L 18.3458,-20.373
 L 18.0874,-21.1684 L 18,-22 L 18,-54.5004 L 18.1376,-55.5404 L 18.4382,-56.3207 L 18.8945,-57.0215
 L 19.4865,-57.612 L 20.1884,-58.0666 L 20.9695,-58.3653 L 21.7955,-58.4951 L 22.6306,-58.4503 L 23.438,-58.2329
 L 107.796,-25.7326 L 108.709,-25.2361 L 109.33,-24.6765 L 109.822,-24 L 110.162,-23.2361 L 110.336,-22.4181
 L 110.336,-21.5819 L 110.162,-20.7639 L 109.822,-20 L 109.33,-19.3235 L 108.709,-18.7639 L 107.985,-18.3458
 L 107.189,-18.0874 L 106.358,-18 z
" stroke="black" fill="lightgray" stroke-width="0.5"/>
</svg>
