<?xml version="1.0" standalone="no"?>
<!DOCTYPE svg PUBLIC "-//W3C//DTD SVG 1.1//EN" "http://www.w3.org/Graphics/SVG/1.1/DTD/svg11.dtd">
<svg width="1077mm" height="80mm" viewBox="0 -80 1077 80" xmlns="http://www.w3.org/2000/svg" version="1.1">
<title>OpenSCAD Model</title>
<path d="
M 1077,-80 L 0,-80 L 0,-0 L 4.95,-0 L 4.95,-6 L 5.00572,-6.53017
 L 5.17046,-7.03717 L 5.437,-7.49884 L 5.79372,-7.895 L 6.22499,-8.20836 L 6.71201,-8.42519 L 7.23344,-8.53603
 L 7.76654,-8.53603 L 8.28798,-8.42519 L 8.77499,-8.20836 L 9.20627,-7.895 L 9.56299,-7.49884 L 9.82953,-7.03717
 L 9.99426,-6.53017 L 10.05,-6 L 10.05,-0 L 181.95,-0 L 181.95,-6 L 182.006,-6.53017
 L 182.17,-7.03717 L 182.437,-7.49884 L 182.794,-7.895 L 183.225,-8.20836 L 183.712,-8.42519 L 184.233,-8.53603
 L 184.767,-8.53603 L 185.288,-8.42519 L 185.775,-8.20836 L 186.206,-7.895 L 186.563,-7.49884 L 186.83,-7.03717
 L 186.994,-6.53017 L 187.05,-6 L 187.05,-0 L 358.95,-0 L 358.95,-6 L 359.006,-6.53017
 L 359.17,-7.03717 L 359.437,-7.49884 L 359.794,-7.895 L 360.225,-8.20836 L 360.712,-8.42519 L 361.233,-8.53603
 L 361.767,-8.53603 L 362.288,-8.42519 L 362.775,-8.20836 L 363.206,-7.895 L 363.563,-7.49884 L 363.83,-7.03717
 L 363.994,-6.53017 L 364.05,-6 L 364.05,-0 L 535.95,-0 L 535.95,-6 L 536.006,-6.53017
 L 536.17,-7.03717 L 536.437,-7.49884 L 536.794,-7.895 L 537.225,-8.20836 L 537.712,-8.42519 L 538.233,-8.53603
 L 538.767,-8.53603 L 539.288,-8.42519 L 539.775,-8.20836 L 540.206,-7.895 L 540.563,-7.49884 L 540.83,-7.03717
 L 540.994,-6.53017 L 541.05,-6 L 541.05,-0 L 712.95,-0 L 712.95,-6 L 713.006,-6.53017
 L 713.17,-7.03717 L 713.437,-7.49884 L 713.794,-7.895 L 714.225,-8.20836 L 714.712,-8.42519 L 715.233,-8.53603
 L 715.767,-8.53603 L 716.288,-8.42519 L 716.775,-8.20836 L 717.206,-7.895 L 717.563,-7.49884 L 717.83,-7.03717
 L 717.994,-6.53017 L 718.05,-6 L 718.05,-0 L 889.95,-0 L 889.95,-6 L 890.006,-6.53017
 L 890.17,-7.03717 L 890.437,-7.49884 L 890.794,-7.895 L 891.225,-8.20836 L 891.712,-8.42519 L 892.233,-8.53603
 L 892.767,-8.53603 L 893.288,-8.42519 L 893.775,-8.20836 L 894.206,-7.895 L 894.563,-7.49884 L 894.83,-7.03717
 L 894.994,-6.53017 L 895.05,-6 L 895.05,-0 L 1066.95,-0 L 1066.95,-6 L 1067.01,-6.53017
 L 1067.17,-7.03717 L 1067.44,-7.49884 L 1067.79,-7.895 L 1068.22,-8.20836 L 1068.71,-8.42519 L 1069.23,-8.53603
 L 1069.77,-8.53603 L 1070.29,-8.42519 L 1070.77,-8.20836 L 1071.21,-7.895 L 1071.56,-7.49884 L 1071.83,-7.03717
 L 1071.99,-6.53017 L 1072.05,-6 L 1072.05,-0 L 1077,-0 z
M 6.98573,-55.607 L 6.47708,-55.6875 L 5.97964,-55.8208 L 5.49887,-56.0054 L 5.04001,-56.2392 L 4.60811,-56.5196
 L 4.20789,-56.8437 L 3.84373,-57.2079 L 3.51964,-57.6081 L 3.23917,-58.04 L 3.00537,-58.4989 L 2.82082,-58.9796
 L 2.68752,-59.4771 L 2.60696,-59.9857 L 2.58,-60.5 L 2.60696,-61.0143 L 2.68752,-61.5229 L 2.82082,-62.0204
 L 3.00537,-62.5011 L 3.23917,-62.96 L 3.51964,-63.3919 L 3.84373,-63.7921 L 4.20789,-64.1563 L 4.60811,-64.4804
 L 4.95001,-64.7024 L 4.95001,-74 L 5.00574,-74.5302 L 5.17047,-75.0372 L 5.43701,-75.4988 L 5.79373,-75.895
 L 6.22501,-76.2084 L 6.71202,-76.4252 L 7.23346,-76.536 L 7.76654,-76.536 L 8.28798,-76.4252 L 8.77499,-76.2084
 L 9.20627,-75.895 L 9.56299,-75.4988 L 9.82953,-75.0372 L 9.99426,-74.5302 L 10.05,-74 L 10.05,-64.7024
 L 10.3919,-64.4804 L 10.7921,-64.1563 L 11.1563,-63.7921 L 11.4804,-63.3919 L 11.7608,-62.96 L 11.9946,-62.5011
 L 12.1792,-62.0204 L 12.3125,-61.5229 L 12.393,-61.0143 L 12.42,-60.5 L 12.393,-59.9857 L 12.3125,-59.4771
 L 12.1792,-58.9796 L 11.9946,-58.4989 L 11.7608,-58.04 L 11.4804,-57.6081 L 11.1563,-57.2079 L 10.7921,-56.8437
 L 10.3919,-56.5196 L 9.95999,-56.2392 L 9.50113,-56.0054 L 9.02036,-55.8208 L 8.52292,-55.6875 L 8.01427,-55.607
 L 7.5,-55.58 z
M 183.986,-55.607 L 183.477,-55.6875 L 182.98,-55.8208 L 182.499,-56.0054 L 182.04,-56.2392 L 181.608,-56.5196
 L 181.208,-56.8437 L 180.844,-57.2079 L 180.52,-57.6081 L 180.239,-58.04 L 180.005,-58.4989 L 179.821,-58.9796
 L 179.688,-59.4771 L 179.607,-59.9857 L 179.58,-60.5 L 179.607,-61.0143 L 179.688,-61.5229 L 179.821,-62.0204
 L 180.005,-62.5011 L 180.239,-62.96 L 180.52,-63.3919 L 180.844,-63.7921 L 181.208,-64.1563 L 181.608,-64.4804
 L 181.95,-64.7024 L 181.95,-74 L 182.006,-74.5302 L 182.17,-75.0372 L 182.437,-75.4988 L 182.794,-75.895
 L 183.225,-76.2084 L 183.712,-76.4252 L 184.233,-76.536 L 184.767,-76.536 L 185.288,-76.4252 L 185.775,-76.2084
 L 186.206,-75.895 L 186.563,-75.4988 L 186.83,-75.0372 L 186.994,-74.5302 L 187.05,-74 L 187.05,-64.7024
 L 187.392,-64.4804 L 187.792,-64.1563 L 188.156,-63.7921 L 188.48,-63.3919 L 188.761,-62.96 L 188.995,-62.5011
 L 189.179,-62.0204 L 189.312,-61.5229 L 189.393,-61.0143 L 189.42,-60.5 L 189.393,-59.9857 L 189.312,-59.4771
 L 189.179,-58.9796 L 188.995,-58.4989 L 188.761,-58.04 L 188.48,-57.6081 L 188.156,-57.2079 L 187.792,-56.8437
 L 187.392,-56.5196 L 186.96,-56.2392 L 186.501,-56.0054 L 186.02,-55.8208 L 185.523,-55.6875 L 185.014,-55.607
 L 184.5,-55.58 z
M 360.986,-55.607 L 360.477,-55.6875 L 359.98,-55.8208 L 359.499,-56.0054 L 359.04,-56.2392 L 358.608,-56.5196
 L 358.208,-56.8437 L 357.844,-57.2079 L 357.52,-57.6081 L 357.239,-58.04 L 357.005,-58.4989 L 356.821,-58.9796
 L 356.688,-59.4771 L 356.607,-59.9857 L 356.58,-60.5 L 356.607,-61.0143 L 356.688,-61.5229 L 356.821,-62.0204
 L 357.005,-62.5011 L 357.239,-62.96 L 357.52,-63.3919 L 357.844,-63.7921 L 358.208,-64.1563 L 358.608,-64.4804
 L 358.95,-64.7024 L 358.95,-74 L 359.006,-74.5302 L 359.17,-75.0372 L 359.437,-75.4988 L 359.794,-75.895
 L 360.225,-76.2084 L 360.712,-76.4252 L 361.233,-76.536 L 361.767,-76.536 L 362.288,-76.4252 L 362.775,-76.2084
 L 363.206,-75.895 L 363.563,-75.4988 L 363.83,-75.0372 L 363.994,-74.5302 L 364.05,-74 L 364.05,-64.7024
 L 364.392,-64.4804 L 364.792,-64.1563 L 365.156,-63.7921 L 365.48,-63.3919 L 365.761,-62.96 L 365.995,-62.5011
 L 366.179,-62.0204 L 366.312,-61.5229 L 366.393,-61.0143 L 366.42,-60.5 L 366.393,-59.9857 L 366.312,-59.4771
 L 366.179,-58.9796 L 365.995,-58.4989 L 365.761,-58.04 L 365.48,-57.6081 L 365.156,-57.2079 L 364.792,-56.8437
 L 364.392,-56.5196 L 363.96,-56.2392 L 363.501,-56.0054 L 363.02,-55.8208 L 362.523,-55.6875 L 362.014,-55.607
 L 361.5,-55.58 z
M 537.986,-55.607 L 537.477,-55.6875 L 536.98,-55.8208 L 536.499,-56.0054 L 536.04,-56.2392 L 535.608,-56.5196
 L 535.208,-56.8437 L 534.844,-57.2079 L 534.52,-57.6081 L 534.239,-58.04 L 534.005,-58.4989 L 533.821,-58.9796
 L 533.688,-59.4771 L 533.607,-59.9857 L 533.58,-60.5 L 533.607,-61.0143 L 533.688,-61.5229 L 533.821,-62.0204
 L 534.005,-62.5011 L 534.239,-62.96 L 534.52,-63.3919 L 534.844,-63.7921 L 535.208,-64.1563 L 535.608,-64.4804
 L 535.95,-64.7024 L 535.95,-74 L 536.006,-74.5302 L 536.17,-75.0372 L 536.437,-75.4988 L 536.794,-75.895
 L 537.225,-76.2084 L 537.712,-76.4252 L 538.233,-76.536 L 538.767,-76.536 L 539.288,-76.4252 L 539.775,-76.2084
 L 540.206,-75.895 L 540.563,-75.4988 L 540.83,-75.0372 L 540.994,-74.5302 L 541.05,-74 L 541.05,-64.7024
 L 541.392,-64.4804 L 541.792,-64.1563 L 542.156,-63.7921 L 542.48,-63.3919 L 542.761,-62.96 L 542.995,-62.5011
 L 543.179,-62.0204 L 543.312,-61.5229 L 543.393,-61.0143 L 543.42,-60.5 L 543.393,-59.9857 L 543.312,-59.4771
 L 543.179,-58.9796 L 542.995,-58.4989 L 542.761,-58.04 L 542.48,-57.6081 L 542.156,-57.2079 L 541.792,-56.8437
 L 541.392,-56.5196 L 540.96,-56.2392 L 540.501,-56.0054 L 540.02,-55.8208 L 539.523,-55.6875 L 539.014,-55.607
 L 538.5,-55.58 z
M 714.986,-55.607 L 714.477,-55.6875 L 713.98,-55.8208 L 713.499,-56.0054 L 713.04,-56.2392 L 712.608,-56.5196
 L 712.208,-56.8437 L 711.844,-57.2079 L 711.52,-57.6081 L 711.239,-58.04 L 711.005,-58.4989 L 710.821,-58.9796
 L 710.688,-59.4771 L 710.607,-59.9857 L 710.58,-60.5 L 710.607,-61.0143 L 710.688,-61.5229 L 710.821,-62.0204
 L 711.005,-62.5011 L 711.239,-62.96 L 711.52,-63.3919 L 711.844,-63.7921 L 712.208,-64.1563 L 712.608,-64.4804
 L 712.95,-64.7024 L 712.95,-74 L 713.006,-74.5302 L 713.17,-75.0372 L 713.437,-75.4988 L 713.794,-75.895
 L 714.225,-76.2084 L 714.712,-76.4252 L 715.233,-76.536 L 715.767,-76.536 L 716.288,-76.4252 L 716.775,-76.2084
 L 717.206,-75.895 L 717.563,-75.4988 L 717.83,-75.0372 L 717.994,-74.5302 L 718.05,-74 L 718.05,-64.7024
 L 718.392,-64.4804 L 718.792,-64.1563 L 719.156,-63.7921 L 719.48,-63.3919 L 719.761,-62.96 L 719.995,-62.5011
 L 720.179,-62.0204 L 720.312,-61.5229 L 720.393,-61.0143 L 720.42,-60.5 L 720.393,-59.9857 L 720.312,-59.4771
 L 720.179,-58.9796 L 719.995,-58.4989 L 719.761,-58.04 L 719.48,-57.6081 L 719.156,-57.2079 L 718.792,-56.8437
 L 718.392,-56.5196 L 717.96,-56.2392 L 717.501,-56.0054 L 717.02,-55.8208 L 716.523,-55.6875 L 716.014,-55.607
 L 715.5,-55.58 z
M 891.986,-55.607 L 891.477,-55.6875 L 890.98,-55.8208 L 890.499,-56.0054 L 890.04,-56.2392 L 889.608,-56.5196
 L 889.208,-56.8437 L 888.844,-57.2079 L 888.52,-57.6081 L 888.239,-58.04 L 888.005,-58.4989 L 887.821,-58.9796
 L 887.688,-59.4771 L 887.607,-59.9857 L 887.58,-60.5 L 887.607,-61.0143 L 887.688,-61.5229 L 887.821,-62.0204
 L 888.005,-62.5011 L 888.239,-62.96 L 888.52,-63.3919 L 888.844,-63.7921 L 889.208,-64.1563 L 889.608,-64.4804
 L 889.95,-64.7024 L 889.95,-74 L 890.006,-74.5302 L 890.17,-75.0372 L 890.437,-75.4988 L 890.794,-75.895
 L 891.225,-76.2084 L 891.712,-76.4252 L 892.233,-76.536 L 892.767,-76.536 L 893.288,-76.4252 L 893.775,-76.2084
 L 894.206,-75.895 L 894.563,-75.4988 L 894.83,-75.0372 L 894.994,-74.5302 L 895.05,-74 L 895.05,-64.7024
 L 895.392,-64.4804 L 895.792,-64.1563 L 896.156,-63.7921 L 896.48,-63.3919 L 896.761,-62.96 L 896.995,-62.5011
 L 897.179,-62.0204 L 897.312,-61.5229 L 897.393,-61.0143 L 897.42,-60.5 L 897.393,-59.9857 L 897.312,-59.4771
 L 897.179,-58.9796 L 896.995,-58.4989 L 896.761,-58.04 L 896.48,-57.6081 L 896.156,-57.2079 L 895.792,-56.8437
 L 895.392,-56.5196 L 894.96,-56.2392 L 894.501,-56.0054 L 894.02,-55.8208 L 893.523,-55.6875 L 893.014,-55.607
 L 892.5,-55.58 z
M 1068.99,-55.607 L 1068.48,-55.6875 L 1067.98,-55.8208 L 1067.5,-56.0054 L 1067.04,-56.2392 L 1066.61,-56.5196
 L 1066.21,-56.8437 L 1065.84,-57.2079 L 1065.52,-57.6081 L 1065.24,-58.04 L 1065.01,-58.4989 L 1064.82,-58.9796
 L 1064.69,-59.4771 L 1064.61,-59.9857 L 1064.58,-60.5 L 1064.61,-61.0143 L 1064.69,-61.5229 L 1064.82,-62.0204
 L 1065.01,-62.5011 L 1065.24,-62.96 L 1065.52,-63.3919 L 1065.84,-63.7921 L 1066.21,-64.1563 L 1066.61,-64.4804
 L 1066.95,-64.7024 L 1066.95,-74 L 1067.01,-74.5302 L 1067.17,-75.0372 L 1067.44,-75.4988 L 1067.79,-75.895
 L 1068.23,-76.2084 L 1068.71,-76.4252 L 1069.23,-76.536 L 1069.77,-76.536 L 1070.29,-76.4252 L 1070.77,-76.2084
 L 1071.21,-75.895 L 1071.56,-75.4988 L 1071.83,-75.0372 L 1071.99,-74.5302 L 1072.05,-74 L 1072.05,-64.7024
 L 1072.39,-64.4804 L 1072.79,-64.1563 L 1073.16,-63.7921 L 1073.48,-63.3919 L 1073.76,-62.96 L 1073.99,-62.5011
 L 1074.18,-62.0204 L 1074.31,-61.5229 L 1074.39,-61.0143 L 1074.42,-60.5 L 1074.39,-59.9857 L 1074.31,-59.4771
 L 1074.18,-58.9796 L 1073.99,-58.4989 L 1073.76,-58.04 L 1073.48,-57.6081 L 1073.16,-57.2079 L 1072.79,-56.8437
 L 1072.39,-56.5196 L 1071.96,-56.2392 L 1071.5,-56.0054 L 1071.02,-55.8208 L 1070.52,-55.6875 L 1070.01,-55.607
 L 1069.5,-55.58 z
M 904.466,-21.0378 L 903.685,-21.3373 L 902.984,-21.7925 L 902.392,-22.3837 L 901.936,-23.0849 L 901.637,-23.8655
 L 901.5,-24.9018 L 901.5,-58 L 901.587,-58.8316 L 901.846,-59.627 L 902.264,-60.3511 L 902.823,-60.9726
 L 903.5,-61.4641 L 904.264,-61.8042 L 905.5,-62 L 991.653,-62 L 992.484,-61.9126 L 993.28,-61.6542
 L 994.004,-61.2361 L 994.625,-60.6765 L 995.117,-60 L 995.457,-59.2361 L 995.631,-58.4181 L 995.631,-57.5819
 L 995.457,-56.7639 L 995.117,-56 L 994.625,-55.3235 L 994.004,-54.7639 L 993.087,-54.2661 L 906.935,-21.1679
 L 906.127,-20.9512 L 905.292,-20.9072 z
M 347.873,-20.9512 L 347.065,-21.1679 L 260.913,-54.2661 L 259.996,-54.7639 L 259.375,-55.3235 L 258.883,-56
 L 258.543,-56.7639 L 258.369,-57.5819 L 258.369,-58.4181 L 258.543,-59.2361 L 258.883,-60 L 259.375,-60.6765
 L 259.996,-61.2361 L 260.72,-61.6542 L 261.516,-61.9126 L 262.347,-62 L 348.5,-62 L 349.736,-61.8042
 L 350.5,-61.4641 L 351.177,-60.9726 L 351.736,-60.3511 L 352.154,-59.627 L 352.413,-58.8316 L 352.5,-58
 L 352.5,-24.9018 L 352.363,-23.8655 L 352.064,-23.0849 L 351.608,-22.3837 L 351.016,-21.7925 L 350.315,-21.3373
 L 349.534,-21.0378 L 348.708,-20.9072 z
M 170.873,-20.9512 L 170.065,-21.1679 L 83.9129,-54.2661 L 82.9962,-54.7639 L 82.3748,-55.3235 L 81.8833,-56
 L 81.5431,-56.7639 L 81.3693,-57.5819 L 81.3693,-58.4181 L 81.5431,-59.2361 L 81.8833,-60 L 82.3748,-60.6765
 L 82.9962,-61.2361 L 83.7204,-61.6542 L 84.5157,-61.9126 L 85.3474,-62 L 171.5,-62 L 172.736,-61.8042
 L 173.5,-61.4641 L 174.177,-60.9726 L 174.736,-60.3511 L 175.154,-59.627 L 175.413,-58.8316 L 175.5,-58
 L 175.5,-24.9018 L 175.363,-23.8655 L 175.064,-23.0849 L 174.608,-22.3837 L 174.016,-21.7925 L 173.315,-21.3373
 L 172.534,-21.0378 L 171.708,-20.9072 z
M 524.873,-20.9512 L 524.065,-21.1679 L 437.913,-54.2661 L 436.996,-54.7639 L 436.375,-55.3235 L 435.883,-56
 L 435.543,-56.7639 L 435.369,-57.5819 L 435.369,-58.4181 L 435.543,-59.2361 L 435.883,-60 L 436.375,-60.6765
 L 436.996,-61.2361 L 437.72,-61.6542 L 438.516,-61.9126 L 439.347,-62 L 525.5,-62 L 526.736,-61.8042
 L 527.5,-61.4641 L 528.177,-60.9726 L 528.736,-60.3511 L 529.154,-59.627 L 529.413,-58.8316 L 529.5,-58
 L 529.5,-24.9018 L 529.363,-23.8655 L 529.064,-23.0849 L 528.608,-22.3837 L 528.016,-21.7925 L 527.315,-21.3373
 L 526.534,-21.0378 L 525.708,-20.9072 z
M 550.466,-21.0378 L 549.685,-21.3373 L 548.984,-21.7925 L 548.392,-22.3837 L 547.936,-23.0849 L 547.637,-23.8655
 L 547.5,-24.9018 L 547.5,-58 L 547.587,-58.8316 L 547.846,-59.627 L 548.264,-60.3511 L 548.823,-60.9726
 L 549.5,-61.4641 L 550.264,-61.8042 L 551.5,-62 L 637.653,-62 L 638.484,-61.9126 L 639.28,-61.6542
 L 640.004,-61.2361 L 640.625,-60.6765 L 641.117,-60 L 641.457,-59.2361 L 641.631,-58.4181 L 641.631,-57.5819
 L 641.457,-56.7639 L 641.117,-56 L 640.625,-55.3235 L 640.004,-54.7639 L 639.087,-54.2661 L 552.935,-21.1679
 L 552.127,-20.9512 L 551.292,-20.9072 z
M 727.466,-21.0378 L 726.685,-21.3373 L 725.984,-21.7925 L 725.392,-22.3837 L 724.936,-23.0849 L 724.637,-23.8655
 L 724.5,-24.9018 L 724.5,-58 L 724.587,-58.8316 L 724.846,-59.627 L 725.264,-60.3511 L 725.823,-60.9726
 L 726.5,-61.4641 L 727.264,-61.8042 L 728.5,-62 L 814.653,-62 L 815.484,-61.9126 L 816.28,-61.6542
 L 817.004,-61.2361 L 817.625,-60.6765 L 818.117,-60 L 818.457,-59.2361 L 818.631,-58.4181 L 818.631,-57.5819
 L 818.457,-56.7639 L 818.117,-56 L 817.625,-55.3235 L 817.004,-54.7639 L 816.087,-54.2661 L 729.935,-21.1679
 L 729.127,-20.9512 L 728.292,-20.9072 z
M 197.5,-18 L 196.264,-18.1958 L 195.5,-18.5359 L 194.823,-19.0274 L 194.264,-19.6489 L 193.846,-20.373
 L 193.587,-21.1684 L 193.5,-22 L 193.5,-55.0982 L 193.637,-56.1345 L 193.936,-56.9151 L 194.392,-57.6163
 L 194.984,-58.2075 L 195.685,-58.6627 L 196.466,-58.9622 L 197.292,-59.0928 L 198.127,-59.0488 L 198.935,-58.8321
 L 285.087,-25.7339 L 286.004,-25.2361 L 286.625,-24.6765 L 287.117,-24 L 287.457,-23.2361 L 287.631,-22.4181
 L 287.631,-21.5819 L 287.457,-20.7639 L 287.117,-20 L 286.625,-19.3235 L 286.004,-18.7639 L 285.28,-18.3458
 L 284.484,-18.0874 L 283.653,-18 z
M 374.5,-18 L 373.264,-18.1958 L 372.5,-18.5359 L 371.823,-19.0274 L 371.264,-19.6489 L 370.846,-20.373
 L 370.587,-21.1684 L 370.5,-22 L 370.5,-55.0982 L 370.637,-56.1345 L 370.936,-56.9151 L 371.392,-57.6163
 L 371.984,-58.2075 L 372.685,-58.6627 L 373.466,-58.9622 L 374.292,-59.0928 L 375.127,-59.0488 L 375.935,-58.8321
 L 462.087,-25.7339 L 463.004,-25.2361 L 463.625,-24.6765 L 464.117,-24 L 464.457,-23.2361 L 464.631,-22.4181
 L 464.631,-21.5819 L 464.457,-20.7639 L 464.117,-20 L 463.625,-19.3235 L 463.004,-18.7639 L 462.28,-18.3458
 L 461.484,-18.0874 L 460.653,-18 z
M 616.347,-18 L 615.516,-18.0874 L 614.72,-18.3458 L 613.996,-18.7639 L 613.375,-19.3235 L 612.883,-20
 L 612.543,-20.7639 L 612.369,-21.5819 L 612.369,-22.4181 L 612.543,-23.2361 L 612.883,-24 L 613.375,-24.6765
 L 613.996,-25.2361 L 614.913,-25.7339 L 701.065,-58.8321 L 701.873,-59.0488 L 702.708,-59.0928 L 703.534,-58.9622
 L 704.315,-58.6627 L 705.016,-58.2075 L 705.608,-57.6163 L 706.064,-56.9151 L 706.363,-56.1345 L 706.5,-55.0982
 L 706.5,-22 L 706.413,-21.1684 L 706.154,-20.373 L 705.736,-19.6489 L 705.177,-19.0274 L 704.5,-18.5359
 L 703.736,-18.1958 L 702.5,-18 z
M 793.347,-18 L 792.516,-18.0874 L 791.72,-18.3458 L 790.996,-18.7639 L 790.375,-19.3235 L 789.883,-20
 L 789.543,-20.7639 L 789.369,-21.5819 L 789.369,-22.4181 L 789.543,-23.2361 L 789.883,-24 L 790.375,-24.6765
 L 790.996,-25.2361 L 791.913,-25.7339 L 878.065,-58.8321 L 878.873,-59.0488 L 879.708,-59.0928 L 880.534,-58.9622
 L 881.315,-58.6627 L 882.016,-58.2075 L 882.608,-57.6163 L 883.064,-56.9151 L 883.363,-56.1345 L 883.5,-55.0982
 L 883.5,-22 L 883.413,-21.1684 L 883.154,-20.373 L 882.736,-19.6489 L 882.177,-19.0274 L 881.5,-18.5359
 L 880.736,-18.1958 L 879.5,-18 z
M 970.347,-18 L 969.516,-18.0874 L 968.72,-18.3458 L 967.996,-18.7639 L 967.375,-19.3235 L 966.883,-20
 L 966.543,-20.7639 L 966.369,-21.5819 L 966.369,-22.4181 L 966.543,-23.2361 L 966.883,-24 L 967.375,-24.6765
 L 967.996,-25.2361 L 968.913,-25.7339 L 1053.57,-58.2558 L 1054.37,-58.4725 L 1055.21,-58.5165 L 1056.03,-58.3859
 L 1056.81,-58.0864 L 1057.52,-57.6312 L 1058.11,-57.04 L 1058.56,-56.3388 L 1058.86,-55.5582 L 1059,-54.5219
 L 1059,-22 L 1058.91,-21.1684 L 1058.65,-20.373 L 1058.24,-19.6489 L 1057.68,-19.0274 L 1057,-18.5359
 L 1056.24,-18.1958 L 1055,-18 z
M 22,-18 L 20.7639,-18.1958 L 20,-18.5359 L 19.3235,-19.0274 L 18.7639,-19.6489 L 18.3458,-20.373
 L 18.0874,-21.1684 L 18,-22 L 18,-54.5219 L 18.1366,-55.5582 L 18.4365,-56.3388 L 18.8921,-57.04
 L 19.4836,-57.6312 L 20.185,-58.0864 L 20.9658,-58.3859 L 21.7918,-58.5165 L 22.6268,-58.4725 L 23.4345,-58.2558
 L 108.087,-25.7339 L 109.004,-25.2361 L 109.625,-24.6765 L 110.117,-24 L 110.457,-23.2361 L 110.631,-22.4181
 L 110.631,-21.5819 L 110.457,-20.7639 L 110.117,-20 L 109.625,-19.3235 L 109.004,-18.7639 L 108.28,-18.3458
 L 107.484,-18.0874 L 106.653,-18 z
" stroke="black" fill="lightgray" stroke-width="0.5"/>
</svg>
