<?xml version="1.0" standalone="no"?>
<!DOCTYPE svg PUBLIC "-//W3C//DTD SVG 1.1//EN" "http://www.w3.org/Graphics/SVG/1.1/DTD/svg11.dtd">
<svg width="1411mm" height="80mm" viewBox="0 -80 1411 80" xmlns="http://www.w3.org/2000/svg" version="1.1">
<title>OpenSCAD Model</title>
<path d="
M 1411,-80 L 0,-80 L 0,-0 L 4.95,-0 L 4.95,-6 L 5.00572,-6.53017
 L 5.17046,-7.03717 L 5.437,-7.49884 L 5.79372,-7.895 L 6.22499,-8.20836 L 6.71201,-8.42519 L 7.23344,-8.53603
 L 7.76654,-8.53603 L 8.28798,-8.42519 L 8.77499,-8.20836 L 9.20627,-7.895 L 9.56299,-7.49884 L 9.82953,-7.03717
 L 9.99426,-6.53017 L 10.05,-6 L 10.05,-0 L 179.45,-0 L 179.45,-6 L 179.506,-6.53017
 L 179.67,-7.03717 L 179.937,-7.49884 L 180.294,-7.895 L 180.725,-8.20836 L 181.212,-8.42519 L 181.733,-8.53603
 L 182.267,-8.53603 L 182.788,-8.42519 L 183.275,-8.20836 L 183.706,-7.895 L 184.063,-7.49884 L 184.33,-7.03717
 L 184.494,-6.53017 L 184.55,-6 L 184.55,-0 L 353.95,-0 L 353.95,-6 L 354.006,-6.53017
 L 354.17,-7.03717 L 354.437,-7.49884 L 354.794,-7.895 L 355.225,-8.20836 L 355.712,-8.42519 L 356.233,-8.53603
 L 356.767,-8.53603 L 357.288,-8.42519 L 357.775,-8.20836 L 358.206,-7.895 L 358.563,-7.49884 L 358.83,-7.03717
 L 358.994,-6.53017 L 359.05,-6 L 359.05,-0 L 528.45,-0 L 528.45,-6 L 528.506,-6.53017
 L 528.67,-7.03717 L 528.937,-7.49884 L 529.294,-7.895 L 529.725,-8.20836 L 530.212,-8.42519 L 530.733,-8.53603
 L 531.267,-8.53603 L 531.788,-8.42519 L 532.275,-8.20836 L 532.706,-7.895 L 533.063,-7.49884 L 533.33,-7.03717
 L 533.494,-6.53017 L 533.55,-6 L 533.55,-0 L 702.95,-0 L 702.95,-6 L 703.006,-6.53017
 L 703.17,-7.03717 L 703.437,-7.49884 L 703.794,-7.895 L 704.225,-8.20836 L 704.712,-8.42519 L 705.233,-8.53603
 L 705.767,-8.53603 L 706.288,-8.42519 L 706.775,-8.20836 L 707.206,-7.895 L 707.563,-7.49884 L 707.83,-7.03717
 L 707.994,-6.53017 L 708.05,-6 L 708.05,-0 L 877.45,-0 L 877.45,-6 L 877.506,-6.53017
 L 877.67,-7.03717 L 877.937,-7.49884 L 878.294,-7.895 L 878.725,-8.20836 L 879.212,-8.42519 L 879.733,-8.53603
 L 880.267,-8.53603 L 880.788,-8.42519 L 881.275,-8.20836 L 881.706,-7.895 L 882.063,-7.49884 L 882.33,-7.03717
 L 882.494,-6.53017 L 882.55,-6 L 882.55,-0 L 1051.95,-0 L 1051.95,-6 L 1052.01,-6.53017
 L 1052.17,-7.03717 L 1052.44,-7.49884 L 1052.79,-7.895 L 1053.22,-8.20836 L 1053.71,-8.42519 L 1054.23,-8.53603
 L 1054.77,-8.53603 L 1055.29,-8.42519 L 1055.77,-8.20836 L 1056.21,-7.895 L 1056.56,-7.49884 L 1056.83,-7.03717
 L 1056.99,-6.53017 L 1057.05,-6 L 1057.05,-0 L 1226.45,-0 L 1226.45,-6 L 1226.51,-6.53017
 L 1226.67,-7.03717 L 1226.94,-7.49884 L 1227.29,-7.895 L 1227.72,-8.20836 L 1228.21,-8.42519 L 1228.73,-8.53603
 L 1229.27,-8.53603 L 1229.79,-8.42519 L 1230.27,-8.20836 L 1230.71,-7.895 L 1231.06,-7.49884 L 1231.33,-7.03717
 L 1231.49,-6.53017 L 1231.55,-6 L 1231.55,-0 L 1400.95,-0 L 1400.95,-6 L 1401.01,-6.53017
 L 1401.17,-7.03717 L 1401.44,-7.49884 L 1401.79,-7.895 L 1402.22,-8.20836 L 1402.71,-8.42519 L 1403.23,-8.53603
 L 1403.77,-8.53603 L 1404.29,-8.42519 L 1404.77,-8.20836 L 1405.21,-7.895 L 1405.56,-7.49884 L 1405.83,-7.03717
 L 1405.99,-6.53017 L 1406.05,-6 L 1406.05,-0 L 1411,-0 z
M 181.486,-55.607 L 180.977,-55.6875 L 180.48,-55.8208 L 179.999,-56.0054 L 179.54,-56.2392 L 179.108,-56.5196
 L 178.708,-56.8437 L 178.344,-57.2079 L 178.02,-57.6081 L 177.739,-58.04 L 177.505,-58.4989 L 177.321,-58.9796
 L 177.188,-59.4771 L 177.107,-59.9857 L 177.08,-60.5 L 177.107,-61.0143 L 177.188,-61.5229 L 177.321,-62.0204
 L 177.505,-62.5011 L 177.739,-62.96 L 178.02,-63.3919 L 178.344,-63.7921 L 178.708,-64.1563 L 179.108,-64.4804
 L 179.45,-64.7024 L 179.45,-74 L 179.506,-74.5302 L 179.67,-75.0372 L 179.937,-75.4988 L 180.294,-75.895
 L 180.725,-76.2084 L 181.212,-76.4252 L 181.733,-76.536 L 182.267,-76.536 L 182.788,-76.4252 L 183.275,-76.2084
 L 183.706,-75.895 L 184.063,-75.4988 L 184.33,-75.0372 L 184.494,-74.5302 L 184.55,-74 L 184.55,-64.7024
 L 184.892,-64.4804 L 185.292,-64.1563 L 185.656,-63.7921 L 185.98,-63.3919 L 186.261,-62.96 L 186.495,-62.5011
 L 186.679,-62.0204 L 186.812,-61.5229 L 186.893,-61.0143 L 186.92,-60.5 L 186.893,-59.9857 L 186.812,-59.4771
 L 186.679,-58.9796 L 186.495,-58.4989 L 186.261,-58.04 L 185.98,-57.6081 L 185.656,-57.2079 L 185.292,-56.8437
 L 184.892,-56.5196 L 184.46,-56.2392 L 184.001,-56.0054 L 183.52,-55.8208 L 183.023,-55.6875 L 182.514,-55.607
 L 182,-55.58 z
M 1053.99,-55.607 L 1053.48,-55.6875 L 1052.98,-55.8208 L 1052.5,-56.0054 L 1052.04,-56.2392 L 1051.61,-56.5196
 L 1051.21,-56.8437 L 1050.84,-57.2079 L 1050.52,-57.6081 L 1050.24,-58.04 L 1050.01,-58.4989 L 1049.82,-58.9796
 L 1049.69,-59.4771 L 1049.61,-59.9857 L 1049.58,-60.5 L 1049.61,-61.0143 L 1049.69,-61.5229 L 1049.82,-62.0204
 L 1050.01,-62.5011 L 1050.24,-62.96 L 1050.52,-63.3919 L 1050.84,-63.7921 L 1051.21,-64.1563 L 1051.61,-64.4804
 L 1051.95,-64.7024 L 1051.95,-74 L 1052.01,-74.5302 L 1052.17,-75.0372 L 1052.44,-75.4988 L 1052.79,-75.895
 L 1053.23,-76.2084 L 1053.71,-76.4252 L 1054.23,-76.536 L 1054.77,-76.536 L 1055.29,-76.4252 L 1055.77,-76.2084
 L 1056.21,-75.895 L 1056.56,-75.4988 L 1056.83,-75.0372 L 1056.99,-74.5302 L 1057.05,-74 L 1057.05,-64.7024
 L 1057.39,-64.4804 L 1057.79,-64.1563 L 1058.16,-63.7921 L 1058.48,-63.3919 L 1058.76,-62.96 L 1058.99,-62.5011
 L 1059.18,-62.0204 L 1059.31,-61.5229 L 1059.39,-61.0143 L 1059.42,-60.5 L 1059.39,-59.9857 L 1059.31,-59.4771
 L 1059.18,-58.9796 L 1058.99,-58.4989 L 1058.76,-58.04 L 1058.48,-57.6081 L 1058.16,-57.2079 L 1057.79,-56.8437
 L 1057.39,-56.5196 L 1056.96,-56.2392 L 1056.5,-56.0054 L 1056.02,-55.8208 L 1055.52,-55.6875 L 1055.01,-55.607
 L 1054.5,-55.58 z
M 879.486,-55.607 L 878.977,-55.6875 L 878.48,-55.8208 L 877.999,-56.0054 L 877.54,-56.2392 L 877.108,-56.5196
 L 876.708,-56.8437 L 876.344,-57.2079 L 876.02,-57.6081 L 875.739,-58.04 L 875.505,-58.4989 L 875.321,-58.9796
 L 875.188,-59.4771 L 875.107,-59.9857 L 875.08,-60.5 L 875.107,-61.0143 L 875.188,-61.5229 L 875.321,-62.0204
 L 875.505,-62.5011 L 875.739,-62.96 L 876.02,-63.3919 L 876.344,-63.7921 L 876.708,-64.1563 L 877.108,-64.4804
 L 877.45,-64.7024 L 877.45,-74 L 877.506,-74.5302 L 877.67,-75.0372 L 877.937,-75.4988 L 878.294,-75.895
 L 878.725,-76.2084 L 879.212,-76.4252 L 879.733,-76.536 L 880.267,-76.536 L 880.788,-76.4252 L 881.275,-76.2084
 L 881.706,-75.895 L 882.063,-75.4988 L 882.33,-75.0372 L 882.494,-74.5302 L 882.55,-74 L 882.55,-64.7024
 L 882.892,-64.4804 L 883.292,-64.1563 L 883.656,-63.7921 L 883.98,-63.3919 L 884.261,-62.96 L 884.495,-62.5011
 L 884.679,-62.0204 L 884.812,-61.5229 L 884.893,-61.0143 L 884.92,-60.5 L 884.893,-59.9857 L 884.812,-59.4771
 L 884.679,-58.9796 L 884.495,-58.4989 L 884.261,-58.04 L 883.98,-57.6081 L 883.656,-57.2079 L 883.292,-56.8437
 L 882.892,-56.5196 L 882.46,-56.2392 L 882.001,-56.0054 L 881.52,-55.8208 L 881.023,-55.6875 L 880.514,-55.607
 L 880,-55.58 z
M 6.98573,-55.607 L 6.47708,-55.6875 L 5.97964,-55.8208 L 5.49887,-56.0054 L 5.04001,-56.2392 L 4.60811,-56.5196
 L 4.20789,-56.8437 L 3.84373,-57.2079 L 3.51964,-57.6081 L 3.23917,-58.04 L 3.00537,-58.4989 L 2.82082,-58.9796
 L 2.68752,-59.4771 L 2.60696,-59.9857 L 2.58,-60.5 L 2.60696,-61.0143 L 2.68752,-61.5229 L 2.82082,-62.0204
 L 3.00537,-62.5011 L 3.23917,-62.96 L 3.51964,-63.3919 L 3.84373,-63.7921 L 4.20789,-64.1563 L 4.60811,-64.4804
 L 4.95001,-64.7024 L 4.95001,-74 L 5.00574,-74.5302 L 5.17047,-75.0372 L 5.43701,-75.4988 L 5.79373,-75.895
 L 6.22501,-76.2084 L 6.71202,-76.4252 L 7.23346,-76.536 L 7.76654,-76.536 L 8.28798,-76.4252 L 8.77499,-76.2084
 L 9.20627,-75.895 L 9.56299,-75.4988 L 9.82953,-75.0372 L 9.99426,-74.5302 L 10.05,-74 L 10.05,-64.7024
 L 10.3919,-64.4804 L 10.7921,-64.1563 L 11.1563,-63.7921 L 11.4804,-63.3919 L 11.7608,-62.96 L 11.9946,-62.5011
 L 12.1792,-62.0204 L 12.3125,-61.5229 L 12.393,-61.0143 L 12.42,-60.5 L 12.393,-59.9857 L 12.3125,-59.4771
 L 12.1792,-58.9796 L 11.9946,-58.4989 L 11.7608,-58.04 L 11.4804,-57.6081 L 11.1563,-57.2079 L 10.7921,-56.8437
 L 10.3919,-56.5196 L 9.95999,-56.2392 L 9.50113,-56.0054 L 9.02036,-55.8208 L 8.52292,-55.6875 L 8.01427,-55.607
 L 7.5,-55.58 z
M 704.986,-55.607 L 704.477,-55.6875 L 703.98,-55.8208 L 703.499,-56.0054 L 703.04,-56.2392 L 702.608,-56.5196
 L 702.208,-56.8437 L 701.844,-57.2079 L 701.52,-57.6081 L 701.239,-58.04 L 701.005,-58.4989 L 700.821,-58.9796
 L 700.688,-59.4771 L 700.607,-59.9857 L 700.58,-60.5 L 700.607,-61.0143 L 700.688,-61.5229 L 700.821,-62.0204
 L 701.005,-62.5011 L 701.239,-62.96 L 701.52,-63.3919 L 701.844,-63.7921 L 702.208,-64.1563 L 702.608,-64.4804
 L 702.95,-64.7024 L 702.95,-74 L 703.006,-74.5302 L 703.17,-75.0372 L 703.437,-75.4988 L 703.794,-75.895
 L 704.225,-76.2084 L 704.712,-76.4252 L 705.233,-76.536 L 705.767,-76.536 L 706.288,-76.4252 L 706.775,-76.2084
 L 707.206,-75.895 L 707.563,-75.4988 L 707.83,-75.0372 L 707.994,-74.5302 L 708.05,-74 L 708.05,-64.7024
 L 708.392,-64.4804 L 708.792,-64.1563 L 709.156,-63.7921 L 709.48,-63.3919 L 709.761,-62.96 L 709.995,-62.5011
 L 710.179,-62.0204 L 710.312,-61.5229 L 710.393,-61.0143 L 710.42,-60.5 L 710.393,-59.9857 L 710.312,-59.4771
 L 710.179,-58.9796 L 709.995,-58.4989 L 709.761,-58.04 L 709.48,-57.6081 L 709.156,-57.2079 L 708.792,-56.8437
 L 708.392,-56.5196 L 707.96,-56.2392 L 707.501,-56.0054 L 707.02,-55.8208 L 706.523,-55.6875 L 706.014,-55.607
 L 705.5,-55.58 z
M 1228.49,-55.607 L 1227.98,-55.6875 L 1227.48,-55.8208 L 1227,-56.0054 L 1226.54,-56.2392 L 1226.11,-56.5196
 L 1225.71,-56.8437 L 1225.34,-57.2079 L 1225.02,-57.6081 L 1224.74,-58.04 L 1224.51,-58.4989 L 1224.32,-58.9796
 L 1224.19,-59.4771 L 1224.11,-59.9857 L 1224.08,-60.5 L 1224.11,-61.0143 L 1224.19,-61.5229 L 1224.32,-62.0204
 L 1224.51,-62.5011 L 1224.74,-62.96 L 1225.02,-63.3919 L 1225.34,-63.7921 L 1225.71,-64.1563 L 1226.11,-64.4804
 L 1226.45,-64.7024 L 1226.45,-74 L 1226.51,-74.5302 L 1226.67,-75.0372 L 1226.94,-75.4988 L 1227.29,-75.895
 L 1227.73,-76.2084 L 1228.21,-76.4252 L 1228.73,-76.536 L 1229.27,-76.536 L 1229.79,-76.4252 L 1230.27,-76.2084
 L 1230.71,-75.895 L 1231.06,-75.4988 L 1231.33,-75.0372 L 1231.49,-74.5302 L 1231.55,-74 L 1231.55,-64.7024
 L 1231.89,-64.4804 L 1232.29,-64.1563 L 1232.66,-63.7921 L 1232.98,-63.3919 L 1233.26,-62.96 L 1233.49,-62.5011
 L 1233.68,-62.0204 L 1233.81,-61.5229 L 1233.89,-61.0143 L 1233.92,-60.5 L 1233.89,-59.9857 L 1233.81,-59.4771
 L 1233.68,-58.9796 L 1233.49,-58.4989 L 1233.26,-58.04 L 1232.98,-57.6081 L 1232.66,-57.2079 L 1232.29,-56.8437
 L 1231.89,-56.5196 L 1231.46,-56.2392 L 1231,-56.0054 L 1230.52,-55.8208 L 1230.02,-55.6875 L 1229.51,-55.607
 L 1229,-55.58 z
M 530.486,-55.607 L 529.977,-55.6875 L 529.48,-55.8208 L 528.999,-56.0054 L 528.54,-56.2392 L 528.108,-56.5196
 L 527.708,-56.8437 L 527.344,-57.2079 L 527.02,-57.6081 L 526.739,-58.04 L 526.505,-58.4989 L 526.321,-58.9796
 L 526.188,-59.4771 L 526.107,-59.9857 L 526.08,-60.5 L 526.107,-61.0143 L 526.188,-61.5229 L 526.321,-62.0204
 L 526.505,-62.5011 L 526.739,-62.96 L 527.02,-63.3919 L 527.344,-63.7921 L 527.708,-64.1563 L 528.108,-64.4804
 L 528.45,-64.7024 L 528.45,-74 L 528.506,-74.5302 L 528.67,-75.0372 L 528.937,-75.4988 L 529.294,-75.895
 L 529.725,-76.2084 L 530.212,-76.4252 L 530.733,-76.536 L 531.267,-76.536 L 531.788,-76.4252 L 532.275,-76.2084
 L 532.706,-75.895 L 533.063,-75.4988 L 533.33,-75.0372 L 533.494,-74.5302 L 533.55,-74 L 533.55,-64.7024
 L 533.892,-64.4804 L 534.292,-64.1563 L 534.656,-63.7921 L 534.98,-63.3919 L 535.261,-62.96 L 535.495,-62.5011
 L 535.679,-62.0204 L 535.812,-61.5229 L 535.893,-61.0143 L 535.92,-60.5 L 535.893,-59.9857 L 535.812,-59.4771
 L 535.679,-58.9796 L 535.495,-58.4989 L 535.261,-58.04 L 534.98,-57.6081 L 534.656,-57.2079 L 534.292,-56.8437
 L 533.892,-56.5196 L 533.46,-56.2392 L 533.001,-56.0054 L 532.52,-55.8208 L 532.023,-55.6875 L 531.514,-55.607
 L 531,-55.58 z
M 355.986,-55.607 L 355.477,-55.6875 L 354.98,-55.8208 L 354.499,-56.0054 L 354.04,-56.2392 L 353.608,-56.5196
 L 353.208,-56.8437 L 352.844,-57.2079 L 352.52,-57.6081 L 352.239,-58.04 L 352.005,-58.4989 L 351.821,-58.9796
 L 351.688,-59.4771 L 351.607,-59.9857 L 351.58,-60.5 L 351.607,-61.0143 L 351.688,-61.5229 L 351.821,-62.0204
 L 352.005,-62.5011 L 352.239,-62.96 L 352.52,-63.3919 L 352.844,-63.7921 L 353.208,-64.1563 L 353.608,-64.4804
 L 353.95,-64.7024 L 353.95,-74 L 354.006,-74.5302 L 354.17,-75.0372 L 354.437,-75.4988 L 354.794,-75.895
 L 355.225,-76.2084 L 355.712,-76.4252 L 356.233,-76.536 L 356.767,-76.536 L 357.288,-76.4252 L 357.775,-76.2084
 L 358.206,-75.895 L 358.563,-75.4988 L 358.83,-75.0372 L 358.994,-74.5302 L 359.05,-74 L 359.05,-64.7024
 L 359.392,-64.4804 L 359.792,-64.1563 L 360.156,-63.7921 L 360.48,-63.3919 L 360.761,-62.96 L 360.995,-62.5011
 L 361.179,-62.0204 L 361.312,-61.5229 L 361.393,-61.0143 L 361.42,-60.5 L 361.393,-59.9857 L 361.312,-59.4771
 L 361.179,-58.9796 L 360.995,-58.4989 L 360.761,-58.04 L 360.48,-57.6081 L 360.156,-57.2079 L 359.792,-56.8437
 L 359.392,-56.5196 L 358.96,-56.2392 L 358.501,-56.0054 L 358.02,-55.8208 L 357.523,-55.6875 L 357.014,-55.607
 L 356.5,-55.58 z
M 1402.99,-55.607 L 1402.48,-55.6875 L 1401.98,-55.8208 L 1401.5,-56.0054 L 1401.04,-56.2392 L 1400.61,-56.5196
 L 1400.21,-56.8437 L 1399.84,-57.2079 L 1399.52,-57.6081 L 1399.24,-58.04 L 1399.01,-58.4989 L 1398.82,-58.9796
 L 1398.69,-59.4771 L 1398.61,-59.9857 L 1398.58,-60.5 L 1398.61,-61.0143 L 1398.69,-61.5229 L 1398.82,-62.0204
 L 1399.01,-62.5011 L 1399.24,-62.96 L 1399.52,-63.3919 L 1399.84,-63.7921 L 1400.21,-64.1563 L 1400.61,-64.4804
 L 1400.95,-64.7024 L 1400.95,-74 L 1401.01,-74.5302 L 1401.17,-75.0372 L 1401.44,-75.4988 L 1401.79,-75.895
 L 1402.23,-76.2084 L 1402.71,-76.4252 L 1403.23,-76.536 L 1403.77,-76.536 L 1404.29,-76.4252 L 1404.77,-76.2084
 L 1405.21,-75.895 L 1405.56,-75.4988 L 1405.83,-75.0372 L 1405.99,-74.5302 L 1406.05,-74 L 1406.05,-64.7024
 L 1406.39,-64.4804 L 1406.79,-64.1563 L 1407.16,-63.7921 L 1407.48,-63.3919 L 1407.76,-62.96 L 1407.99,-62.5011
 L 1408.18,-62.0204 L 1408.31,-61.5229 L 1408.39,-61.0143 L 1408.42,-60.5 L 1408.39,-59.9857 L 1408.31,-59.4771
 L 1408.18,-58.9796 L 1407.99,-58.4989 L 1407.76,-58.04 L 1407.48,-57.6081 L 1407.16,-57.2079 L 1406.79,-56.8437
 L 1406.39,-56.5196 L 1405.96,-56.2392 L 1405.5,-56.0054 L 1405.02,-55.8208 L 1404.52,-55.6875 L 1404.01,-55.607
 L 1403.5,-55.58 z
M 342.854,-21.0549 L 342.048,-21.2755 L 257.37,-54.273 L 256.471,-54.7639 L 255.85,-55.3235 L 255.358,-56
 L 255.018,-56.7639 L 254.844,-57.5819 L 254.844,-58.4181 L 255.018,-59.2361 L 255.358,-60 L 255.85,-60.6765
 L 256.471,-61.2361 L 257.196,-61.6542 L 257.991,-61.9126 L 258.823,-62 L 343.5,-62 L 344.736,-61.8042
 L 345.5,-61.4641 L 346.177,-60.9726 L 346.736,-60.3511 L 347.154,-59.627 L 347.413,-58.8316 L 347.5,-58
 L 347.5,-25.0025 L 347.358,-23.9476 L 347.055,-23.1685 L 346.596,-22.4695 L 346.002,-21.8812 L 345.298,-21.4293
 L 344.516,-21.1336 L 343.689,-21.0069 z
M 517.354,-21.0549 L 516.548,-21.2755 L 431.87,-54.273 L 430.971,-54.7639 L 430.35,-55.3235 L 429.858,-56
 L 429.518,-56.7639 L 429.344,-57.5819 L 429.344,-58.4181 L 429.518,-59.2361 L 429.858,-60 L 430.35,-60.6765
 L 430.971,-61.2361 L 431.696,-61.6542 L 432.491,-61.9126 L 433.323,-62 L 518,-62 L 519.236,-61.8042
 L 520,-61.4641 L 520.677,-60.9726 L 521.236,-60.3511 L 521.654,-59.627 L 521.913,-58.8316 L 522,-58
 L 522,-25.0025 L 521.858,-23.9476 L 521.555,-23.1685 L 521.096,-22.4695 L 520.502,-21.8812 L 519.798,-21.4293
 L 519.016,-21.1336 L 518.189,-21.0069 z
M 1240.98,-21.1336 L 1240.2,-21.4293 L 1239.5,-21.8812 L 1238.9,-22.4695 L 1238.45,-23.1685 L 1238.14,-23.9476
 L 1238,-25.0025 L 1238,-58 L 1238.09,-58.8316 L 1238.35,-59.627 L 1238.76,-60.3511 L 1239.32,-60.9726
 L 1240,-61.4641 L 1240.76,-61.8042 L 1242,-62 L 1326.68,-62 L 1327.51,-61.9126 L 1328.3,-61.6542
 L 1329.03,-61.2361 L 1329.65,-60.6765 L 1330.14,-60 L 1330.48,-59.2361 L 1330.66,-58.4181 L 1330.66,-57.5819
 L 1330.48,-56.7639 L 1330.14,-56 L 1329.65,-55.3235 L 1329.03,-54.7639 L 1328.13,-54.273 L 1243.45,-21.2755
 L 1242.65,-21.0549 L 1241.81,-21.0069 z
M 691.854,-21.0549 L 691.048,-21.2755 L 606.37,-54.273 L 605.471,-54.7639 L 604.85,-55.3235 L 604.358,-56
 L 604.018,-56.7639 L 603.844,-57.5819 L 603.844,-58.4181 L 604.018,-59.2361 L 604.358,-60 L 604.85,-60.6765
 L 605.471,-61.2361 L 606.196,-61.6542 L 606.991,-61.9126 L 607.823,-62 L 692.5,-62 L 693.736,-61.8042
 L 694.5,-61.4641 L 695.177,-60.9726 L 695.736,-60.3511 L 696.154,-59.627 L 696.413,-58.8316 L 696.5,-58
 L 696.5,-25.0025 L 696.358,-23.9476 L 696.055,-23.1685 L 695.596,-22.4695 L 695.002,-21.8812 L 694.298,-21.4293
 L 693.516,-21.1336 L 692.689,-21.0069 z
M 168.354,-21.0549 L 167.548,-21.2755 L 82.8701,-54.273 L 81.9714,-54.7639 L 81.3499,-55.3235 L 80.8584,-56
 L 80.5183,-56.7639 L 80.3444,-57.5819 L 80.3444,-58.4181 L 80.5183,-59.2361 L 80.8584,-60 L 81.3499,-60.6765
 L 81.9714,-61.2361 L 82.6956,-61.6542 L 83.4909,-61.9126 L 84.3225,-62 L 169,-62 L 170.236,-61.8042
 L 171,-61.4641 L 171.677,-60.9726 L 172.236,-60.3511 L 172.654,-59.627 L 172.913,-58.8316 L 173,-58
 L 173,-25.0025 L 172.858,-23.9476 L 172.555,-23.1685 L 172.096,-22.4695 L 171.502,-21.8812 L 170.798,-21.4293
 L 170.016,-21.1336 L 169.189,-21.0069 z
M 717.484,-21.1336 L 716.702,-21.4293 L 715.998,-21.8812 L 715.404,-22.4695 L 714.945,-23.1685 L 714.642,-23.9476
 L 714.5,-25.0025 L 714.5,-58 L 714.587,-58.8316 L 714.846,-59.627 L 715.264,-60.3511 L 715.823,-60.9726
 L 716.5,-61.4641 L 717.264,-61.8042 L 718.5,-62 L 803.177,-62 L 804.009,-61.9126 L 804.804,-61.6542
 L 805.529,-61.2361 L 806.15,-60.6765 L 806.642,-60 L 806.982,-59.2361 L 807.156,-58.4181 L 807.156,-57.5819
 L 806.982,-56.7639 L 806.642,-56 L 806.15,-55.3235 L 805.529,-54.7639 L 804.63,-54.273 L 719.952,-21.2755
 L 719.146,-21.0549 L 718.311,-21.0069 z
M 891.984,-21.1336 L 891.202,-21.4293 L 890.498,-21.8812 L 889.904,-22.4695 L 889.445,-23.1685 L 889.142,-23.9476
 L 889,-25.0025 L 889,-58 L 889.087,-58.8316 L 889.346,-59.627 L 889.764,-60.3511 L 890.323,-60.9726
 L 891,-61.4641 L 891.764,-61.8042 L 893,-62 L 977.677,-62 L 978.509,-61.9126 L 979.304,-61.6542
 L 980.029,-61.2361 L 980.65,-60.6765 L 981.142,-60 L 981.482,-59.2361 L 981.656,-58.4181 L 981.656,-57.5819
 L 981.482,-56.7639 L 981.142,-56 L 980.65,-55.3235 L 980.029,-54.7639 L 979.13,-54.273 L 894.452,-21.2755
 L 893.646,-21.0549 L 892.811,-21.0069 z
M 1066.48,-21.1336 L 1065.7,-21.4293 L 1065,-21.8812 L 1064.4,-22.4695 L 1063.95,-23.1685 L 1063.64,-23.9476
 L 1063.5,-25.0025 L 1063.5,-58 L 1063.59,-58.8316 L 1063.85,-59.627 L 1064.26,-60.3511 L 1064.82,-60.9726
 L 1065.5,-61.4641 L 1066.26,-61.8042 L 1067.5,-62 L 1152.18,-62 L 1153.01,-61.9126 L 1153.8,-61.6542
 L 1154.53,-61.2361 L 1155.15,-60.6765 L 1155.64,-60 L 1155.98,-59.2361 L 1156.16,-58.4181 L 1156.16,-57.5819
 L 1155.98,-56.7639 L 1155.64,-56 L 1155.15,-55.3235 L 1154.53,-54.7639 L 1153.63,-54.273 L 1068.95,-21.2755
 L 1068.15,-21.0549 L 1067.31,-21.0069 z
M 195,-18 L 193.764,-18.1958 L 193,-18.5359 L 192.323,-19.0274 L 191.764,-19.6489 L 191.346,-20.373
 L 191.087,-21.1684 L 191,-22 L 191,-54.9975 L 191.142,-56.0523 L 191.445,-56.8315 L 191.904,-57.5305
 L 192.498,-58.1188 L 193.202,-58.5707 L 193.984,-58.8664 L 194.811,-58.993 L 195.646,-58.9451 L 196.452,-58.7245
 L 281.13,-25.727 L 282.029,-25.2361 L 282.65,-24.6765 L 283.142,-24 L 283.482,-23.2361 L 283.656,-22.4181
 L 283.656,-21.5819 L 283.482,-20.7639 L 283.142,-20 L 282.65,-19.3235 L 282.029,-18.7639 L 281.304,-18.3458
 L 280.509,-18.0874 L 279.677,-18 z
M 369.5,-18 L 368.264,-18.1958 L 367.5,-18.5359 L 366.823,-19.0274 L 366.264,-19.6489 L 365.846,-20.373
 L 365.587,-21.1684 L 365.5,-22 L 365.5,-54.9975 L 365.642,-56.0523 L 365.945,-56.8315 L 366.404,-57.5305
 L 366.998,-58.1188 L 367.702,-58.5707 L 368.484,-58.8664 L 369.311,-58.993 L 370.146,-58.9451 L 370.952,-58.7245
 L 455.63,-25.727 L 456.529,-25.2361 L 457.15,-24.6765 L 457.642,-24 L 457.982,-23.2361 L 458.156,-22.4181
 L 458.156,-21.5819 L 457.982,-20.7639 L 457.642,-20 L 457.15,-19.3235 L 456.529,-18.7639 L 455.804,-18.3458
 L 455.009,-18.0874 L 454.177,-18 z
M 544,-18 L 542.764,-18.1958 L 542,-18.5359 L 541.323,-19.0274 L 540.764,-19.6489 L 540.346,-20.373
 L 540.087,-21.1684 L 540,-22 L 540,-54.9975 L 540.142,-56.0523 L 540.445,-56.8315 L 540.904,-57.5305
 L 541.498,-58.1188 L 542.202,-58.5707 L 542.984,-58.8664 L 543.811,-58.993 L 544.646,-58.9451 L 545.452,-58.7245
 L 630.13,-25.727 L 631.029,-25.2361 L 631.65,-24.6765 L 632.142,-24 L 632.482,-23.2361 L 632.656,-22.4181
 L 632.656,-21.5819 L 632.482,-20.7639 L 632.142,-20 L 631.65,-19.3235 L 631.029,-18.7639 L 630.304,-18.3458
 L 629.509,-18.0874 L 628.677,-18 z
M 782.323,-18 L 781.491,-18.0874 L 780.696,-18.3458 L 779.971,-18.7639 L 779.35,-19.3235 L 778.858,-20
 L 778.518,-20.7639 L 778.344,-21.5819 L 778.344,-22.4181 L 778.518,-23.2361 L 778.858,-24 L 779.35,-24.6765
 L 779.971,-25.2361 L 780.87,-25.727 L 865.548,-58.7245 L 866.354,-58.9451 L 867.189,-58.993 L 868.016,-58.8664
 L 868.798,-58.5707 L 869.502,-58.1188 L 870.096,-57.5305 L 870.555,-56.8315 L 870.858,-56.0523 L 871,-54.9975
 L 871,-22 L 870.913,-21.1684 L 870.654,-20.373 L 870.236,-19.6489 L 869.677,-19.0274 L 869,-18.5359
 L 868.236,-18.1958 L 867,-18 z
M 956.823,-18 L 955.991,-18.0874 L 955.196,-18.3458 L 954.471,-18.7639 L 953.85,-19.3235 L 953.358,-20
 L 953.018,-20.7639 L 952.844,-21.5819 L 952.844,-22.4181 L 953.018,-23.2361 L 953.358,-24 L 953.85,-24.6765
 L 954.471,-25.2361 L 955.37,-25.727 L 1040.05,-58.7245 L 1040.85,-58.9451 L 1041.69,-58.993 L 1042.52,-58.8664
 L 1043.3,-58.5707 L 1044,-58.1188 L 1044.6,-57.5305 L 1045.05,-56.8315 L 1045.36,-56.0523 L 1045.5,-54.9975
 L 1045.5,-22 L 1045.41,-21.1684 L 1045.15,-20.373 L 1044.74,-19.6489 L 1044.18,-19.0274 L 1043.5,-18.5359
 L 1042.74,-18.1958 L 1041.5,-18 z
M 1131.32,-18 L 1130.49,-18.0874 L 1129.7,-18.3458 L 1128.97,-18.7639 L 1128.35,-19.3235 L 1127.86,-20
 L 1127.52,-20.7639 L 1127.34,-21.5819 L 1127.34,-22.4181 L 1127.52,-23.2361 L 1127.86,-24 L 1128.35,-24.6765
 L 1128.97,-25.2361 L 1129.87,-25.727 L 1214.55,-58.7245 L 1215.35,-58.9451 L 1216.19,-58.993 L 1217.02,-58.8664
 L 1217.8,-58.5707 L 1218.5,-58.1188 L 1219.1,-57.5305 L 1219.55,-56.8315 L 1219.86,-56.0523 L 1220,-54.9975
 L 1220,-22 L 1219.91,-21.1684 L 1219.65,-20.373 L 1219.24,-19.6489 L 1218.68,-19.0274 L 1218,-18.5359
 L 1217.24,-18.1958 L 1216,-18 z
M 1305.82,-18 L 1304.99,-18.0874 L 1304.2,-18.3458 L 1303.47,-18.7639 L 1302.85,-19.3235 L 1302.36,-20
 L 1302.02,-20.7639 L 1301.84,-21.5819 L 1301.84,-22.4181 L 1302.02,-23.2361 L 1302.36,-24 L 1302.85,-24.6765
 L 1303.47,-25.2361 L 1304.37,-25.727 L 1387.55,-58.14 L 1388.35,-58.3605 L 1389.19,-58.4085 L 1390.02,-58.2819
 L 1390.8,-57.9862 L 1391.5,-57.5343 L 1392.1,-56.946 L 1392.55,-56.247 L 1392.86,-55.4678 L 1393,-54.413
 L 1393,-22 L 1392.91,-21.1684 L 1392.65,-20.373 L 1392.24,-19.6489 L 1391.68,-19.0274 L 1391,-18.5359
 L 1390.24,-18.1958 L 1389,-18 z
M 22,-18 L 20.7639,-18.1958 L 20,-18.5359 L 19.3235,-19.0274 L 18.7639,-19.6489 L 18.3458,-20.373
 L 18.0874,-21.1684 L 18,-22 L 18,-54.413 L 18.1416,-55.4678 L 18.4452,-56.247 L 18.9042,-56.946
 L 19.4985,-57.5343 L 20.2021,-57.9862 L 20.9843,-58.2819 L 21.8109,-58.4085 L 22.6457,-58.3605 L 23.4524,-58.14
 L 106.63,-25.727 L 107.529,-25.2361 L 108.15,-24.6765 L 108.642,-24 L 108.982,-23.2361 L 109.156,-22.4181
 L 109.156,-21.5819 L 108.982,-20.7639 L 108.642,-20 L 108.15,-19.3235 L 107.529,-18.7639 L 106.804,-18.3458
 L 106.009,-18.0874 L 105.177,-18 z
" stroke="black" fill="lightgray" stroke-width="0.5"/>
</svg>
