<?xml version="1.0" standalone="no"?>
<!DOCTYPE svg PUBLIC "-//W3C//DTD SVG 1.1//EN" "http://www.w3.org/Graphics/SVG/1.1/DTD/svg11.dtd">
<svg width="1684mm" height="80mm" viewBox="0 -80 1684 80" xmlns="http://www.w3.org/2000/svg" version="1.1">
<title>OpenSCAD Model</title>
<path d="
M 1684,-80 L 0,-80 L 0,-0 L 4.95,-0 L 4.95,-6 L 5.00572,-6.53017
 L 5.17046,-7.03717 L 5.437,-7.49884 L 5.79372,-7.895 L 6.22499,-8.20836 L 6.71201,-8.42519 L 7.23344,-8.53603
 L 7.76654,-8.53603 L 8.28798,-8.42519 L 8.77499,-8.20836 L 9.20627,-7.895 L 9.56299,-7.49884 L 9.82953,-7.03717
 L 9.99426,-6.53017 L 10.05,-6 L 10.05,-0 L 190.394,-0 L 190.394,-6 L 190.45,-6.53017
 L 190.615,-7.03717 L 190.881,-7.49884 L 191.238,-7.895 L 191.669,-8.20836 L 192.156,-8.42519 L 192.678,-8.53603
 L 193.211,-8.53603 L 193.732,-8.42519 L 194.219,-8.20836 L 194.651,-7.895 L 195.007,-7.49884 L 195.274,-7.03717
 L 195.439,-6.53017 L 195.494,-6 L 195.494,-0 L 375.839,-0 L 375.839,-6 L 375.895,-6.53017
 L 376.059,-7.03717 L 376.326,-7.49884 L 376.683,-7.895 L 377.114,-8.20836 L 377.601,-8.42519 L 378.122,-8.53603
 L 378.655,-8.53603 L 379.177,-8.42519 L 379.664,-8.20836 L 380.095,-7.895 L 380.452,-7.49884 L 380.718,-7.03717
 L 380.883,-6.53017 L 380.939,-6 L 380.939,-0 L 561.283,-0 L 561.283,-6 L 561.339,-6.53017
 L 561.504,-7.03717 L 561.77,-7.49884 L 562.127,-7.895 L 562.558,-8.20836 L 563.045,-8.42519 L 563.567,-8.53603
 L 564.1,-8.53603 L 564.621,-8.42519 L 565.108,-8.20836 L 565.54,-7.895 L 565.896,-7.49884 L 566.163,-7.03717
 L 566.328,-6.53017 L 566.383,-6 L 566.383,-0 L 746.728,-0 L 746.728,-6 L 746.783,-6.53017
 L 746.948,-7.03717 L 747.215,-7.49884 L 747.571,-7.895 L 748.003,-8.20836 L 748.49,-8.42519 L 749.011,-8.53603
 L 749.544,-8.53603 L 750.066,-8.42519 L 750.553,-8.20836 L 750.984,-7.895 L 751.341,-7.49884 L 751.607,-7.03717
 L 751.772,-6.53017 L 751.828,-6 L 751.828,-0 L 932.172,-0 L 932.172,-6 L 932.228,-6.53017
 L 932.393,-7.03717 L 932.659,-7.49884 L 933.016,-7.895 L 933.447,-8.20836 L 933.934,-8.42519 L 934.456,-8.53603
 L 934.989,-8.53603 L 935.51,-8.42519 L 935.997,-8.20836 L 936.428,-7.895 L 936.785,-7.49884 L 937.052,-7.03717
 L 937.216,-6.53017 L 937.272,-6 L 937.272,-0 L 1117.62,-0 L 1117.62,-6 L 1117.67,-6.53017
 L 1117.84,-7.03717 L 1118.1,-7.49884 L 1118.46,-7.895 L 1118.89,-8.20836 L 1119.38,-8.42519 L 1119.9,-8.53603
 L 1120.43,-8.53603 L 1120.95,-8.42519 L 1121.44,-8.20836 L 1121.87,-7.895 L 1122.23,-7.49884 L 1122.5,-7.03717
 L 1122.66,-6.53017 L 1122.72,-6 L 1122.72,-0 L 1303.06,-0 L 1303.06,-6 L 1303.12,-6.53017
 L 1303.28,-7.03717 L 1303.55,-7.49884 L 1303.9,-7.895 L 1304.34,-8.20836 L 1304.82,-8.42519 L 1305.34,-8.53603
 L 1305.88,-8.53603 L 1306.4,-8.42519 L 1306.89,-8.20836 L 1307.32,-7.895 L 1307.67,-7.49884 L 1307.94,-7.03717
 L 1308.11,-6.53017 L 1308.16,-6 L 1308.16,-0 L 1488.51,-0 L 1488.51,-6 L 1488.56,-6.53017
 L 1488.73,-7.03717 L 1488.99,-7.49884 L 1489.35,-7.895 L 1489.78,-8.20836 L 1490.27,-8.42519 L 1490.79,-8.53603
 L 1491.32,-8.53603 L 1491.84,-8.42519 L 1492.33,-8.20836 L 1492.76,-7.895 L 1493.12,-7.49884 L 1493.39,-7.03717
 L 1493.55,-6.53017 L 1493.61,-6 L 1493.61,-0 L 1673.95,-0 L 1673.95,-6 L 1674.01,-6.53017
 L 1674.17,-7.03717 L 1674.44,-7.49884 L 1674.79,-7.895 L 1675.22,-8.20836 L 1675.71,-8.42519 L 1676.23,-8.53603
 L 1676.77,-8.53603 L 1677.29,-8.42519 L 1677.77,-8.20836 L 1678.21,-7.895 L 1678.56,-7.49884 L 1678.83,-7.03717
 L 1678.99,-6.53017 L 1679.05,-6 L 1679.05,-0 L 1684,-0 z
M 6.98573,-55.607 L 6.47708,-55.6875 L 5.97964,-55.8208 L 5.49887,-56.0054 L 5.04001,-56.2392 L 4.60811,-56.5196
 L 4.20789,-56.8437 L 3.84373,-57.2079 L 3.51964,-57.6081 L 3.23917,-58.04 L 3.00537,-58.4989 L 2.82082,-58.9796
 L 2.68752,-59.4771 L 2.60696,-59.9857 L 2.58,-60.5 L 2.60696,-61.0143 L 2.68752,-61.5229 L 2.82082,-62.0204
 L 3.00537,-62.5011 L 3.23917,-62.96 L 3.51964,-63.3919 L 3.84373,-63.7921 L 4.20789,-64.1563 L 4.60811,-64.4804
 L 4.95001,-64.7024 L 4.95001,-74 L 5.00574,-74.5302 L 5.17047,-75.0372 L 5.43701,-75.4988 L 5.79373,-75.895
 L 6.22501,-76.2084 L 6.71202,-76.4252 L 7.23346,-76.536 L 7.76654,-76.536 L 8.28798,-76.4252 L 8.77499,-76.2084
 L 9.20627,-75.895 L 9.56299,-75.4988 L 9.82953,-75.0372 L 9.99426,-74.5302 L 10.05,-74 L 10.05,-64.7024
 L 10.3919,-64.4804 L 10.7921,-64.1563 L 11.1563,-63.7921 L 11.4804,-63.3919 L 11.7608,-62.96 L 11.9946,-62.5011
 L 12.1792,-62.0204 L 12.3125,-61.5229 L 12.393,-61.0143 L 12.42,-60.5 L 12.393,-59.9857 L 12.3125,-59.4771
 L 12.1792,-58.9796 L 11.9946,-58.4989 L 11.7608,-58.04 L 11.4804,-57.6081 L 11.1563,-57.2079 L 10.7921,-56.8437
 L 10.3919,-56.5196 L 9.95999,-56.2392 L 9.50113,-56.0054 L 9.02036,-55.8208 L 8.52292,-55.6875 L 8.01427,-55.607
 L 7.5,-55.58 z
M 1119.65,-55.607 L 1119.14,-55.6875 L 1118.65,-55.8208 L 1118.17,-56.0054 L 1117.71,-56.2392 L 1117.27,-56.5196
 L 1116.87,-56.8437 L 1116.51,-57.2079 L 1116.19,-57.6081 L 1115.91,-58.04 L 1115.67,-58.4989 L 1115.49,-58.9796
 L 1115.35,-59.4771 L 1115.27,-59.9857 L 1115.25,-60.5 L 1115.27,-61.0143 L 1115.35,-61.5229 L 1115.49,-62.0204
 L 1115.67,-62.5011 L 1115.91,-62.96 L 1116.19,-63.3919 L 1116.51,-63.7921 L 1116.87,-64.1563 L 1117.27,-64.4804
 L 1117.62,-64.7024 L 1117.62,-74 L 1117.67,-74.5302 L 1117.84,-75.0372 L 1118.1,-75.4988 L 1118.46,-75.895
 L 1118.89,-76.2084 L 1119.38,-76.4252 L 1119.9,-76.536 L 1120.43,-76.536 L 1120.95,-76.4252 L 1121.44,-76.2084
 L 1121.87,-75.895 L 1122.23,-75.4988 L 1122.5,-75.0372 L 1122.66,-74.5302 L 1122.72,-74 L 1122.72,-64.7024
 L 1123.06,-64.4804 L 1123.46,-64.1563 L 1123.82,-63.7921 L 1124.15,-63.3919 L 1124.43,-62.96 L 1124.66,-62.5011
 L 1124.85,-62.0204 L 1124.98,-61.5229 L 1125.06,-61.0143 L 1125.09,-60.5 L 1125.06,-59.9857 L 1124.98,-59.4771
 L 1124.85,-58.9796 L 1124.66,-58.4989 L 1124.43,-58.04 L 1124.15,-57.6081 L 1123.82,-57.2079 L 1123.46,-56.8437
 L 1123.06,-56.5196 L 1122.63,-56.2392 L 1122.17,-56.0054 L 1121.69,-55.8208 L 1121.19,-55.6875 L 1120.68,-55.607
 L 1120.17,-55.58 z
M 1305.1,-55.607 L 1304.59,-55.6875 L 1304.09,-55.8208 L 1303.61,-56.0054 L 1303.15,-56.2392 L 1302.72,-56.5196
 L 1302.32,-56.8437 L 1301.95,-57.2079 L 1301.63,-57.6081 L 1301.35,-58.04 L 1301.12,-58.4989 L 1300.93,-58.9796
 L 1300.8,-59.4771 L 1300.72,-59.9857 L 1300.69,-60.5 L 1300.72,-61.0143 L 1300.8,-61.5229 L 1300.93,-62.0204
 L 1301.12,-62.5011 L 1301.35,-62.96 L 1301.63,-63.3919 L 1301.95,-63.7921 L 1302.32,-64.1563 L 1302.72,-64.4804
 L 1303.06,-64.7024 L 1303.06,-74 L 1303.12,-74.5302 L 1303.28,-75.0372 L 1303.55,-75.4988 L 1303.9,-75.895
 L 1304.34,-76.2084 L 1304.82,-76.4252 L 1305.34,-76.536 L 1305.88,-76.536 L 1306.4,-76.4252 L 1306.89,-76.2084
 L 1307.32,-75.895 L 1307.67,-75.4988 L 1307.94,-75.0372 L 1308.11,-74.5302 L 1308.16,-74 L 1308.16,-64.7024
 L 1308.5,-64.4804 L 1308.9,-64.1563 L 1309.27,-63.7921 L 1309.59,-63.3919 L 1309.87,-62.96 L 1310.11,-62.5011
 L 1310.29,-62.0204 L 1310.42,-61.5229 L 1310.5,-61.0143 L 1310.53,-60.5 L 1310.5,-59.9857 L 1310.42,-59.4771
 L 1310.29,-58.9796 L 1310.11,-58.4989 L 1309.87,-58.04 L 1309.59,-57.6081 L 1309.27,-57.2079 L 1308.9,-56.8437
 L 1308.5,-56.5196 L 1308.07,-56.2392 L 1307.61,-56.0054 L 1307.13,-55.8208 L 1306.63,-55.6875 L 1306.13,-55.607
 L 1305.61,-55.58 z
M 934.208,-55.607 L 933.699,-55.6875 L 933.202,-55.8208 L 932.721,-56.0054 L 932.262,-56.2392 L 931.83,-56.5196
 L 931.43,-56.8437 L 931.066,-57.2079 L 930.742,-57.6081 L 930.461,-58.04 L 930.228,-58.4989 L 930.043,-58.9796
 L 929.91,-59.4771 L 929.829,-59.9857 L 929.802,-60.5 L 929.829,-61.0143 L 929.91,-61.5229 L 930.043,-62.0204
 L 930.228,-62.5011 L 930.461,-62.96 L 930.742,-63.3919 L 931.066,-63.7921 L 931.43,-64.1563 L 931.83,-64.4804
 L 932.172,-64.7024 L 932.172,-74 L 932.228,-74.5302 L 932.393,-75.0372 L 932.659,-75.4988 L 933.016,-75.895
 L 933.447,-76.2084 L 933.934,-76.4252 L 934.456,-76.536 L 934.989,-76.536 L 935.51,-76.4252 L 935.997,-76.2084
 L 936.428,-75.895 L 936.785,-75.4988 L 937.052,-75.0372 L 937.216,-74.5302 L 937.272,-74 L 937.272,-64.7024
 L 937.614,-64.4804 L 938.014,-64.1563 L 938.378,-63.7921 L 938.703,-63.3919 L 938.983,-62.96 L 939.217,-62.5011
 L 939.401,-62.0204 L 939.535,-61.5229 L 939.615,-61.0143 L 939.642,-60.5 L 939.615,-59.9857 L 939.535,-59.4771
 L 939.401,-58.9796 L 939.217,-58.4989 L 938.983,-58.04 L 938.703,-57.6081 L 938.378,-57.2079 L 938.014,-56.8437
 L 937.614,-56.5196 L 937.182,-56.2392 L 936.723,-56.0054 L 936.243,-55.8208 L 935.745,-55.6875 L 935.236,-55.607
 L 934.722,-55.58 z
M 748.764,-55.607 L 748.255,-55.6875 L 747.757,-55.8208 L 747.277,-56.0054 L 746.818,-56.2392 L 746.386,-56.5196
 L 745.986,-56.8437 L 745.622,-57.2079 L 745.297,-57.6081 L 745.017,-58.04 L 744.783,-58.4989 L 744.599,-58.9796
 L 744.465,-59.4771 L 744.385,-59.9857 L 744.358,-60.5 L 744.385,-61.0143 L 744.465,-61.5229 L 744.599,-62.0204
 L 744.783,-62.5011 L 745.017,-62.96 L 745.297,-63.3919 L 745.622,-63.7921 L 745.986,-64.1563 L 746.386,-64.4804
 L 746.728,-64.7024 L 746.728,-74 L 746.784,-74.5302 L 746.948,-75.0372 L 747.215,-75.4988 L 747.572,-75.895
 L 748.003,-76.2084 L 748.49,-76.4252 L 749.011,-76.536 L 749.544,-76.536 L 750.066,-76.4252 L 750.553,-76.2084
 L 750.984,-75.895 L 751.341,-75.4988 L 751.607,-75.0372 L 751.772,-74.5302 L 751.828,-74 L 751.828,-64.7024
 L 752.17,-64.4804 L 752.57,-64.1563 L 752.934,-63.7921 L 753.258,-63.3919 L 753.539,-62.96 L 753.772,-62.5011
 L 753.957,-62.0204 L 754.09,-61.5229 L 754.171,-61.0143 L 754.198,-60.5 L 754.171,-59.9857 L 754.09,-59.4771
 L 753.957,-58.9796 L 753.772,-58.4989 L 753.539,-58.04 L 753.258,-57.6081 L 752.934,-57.2079 L 752.57,-56.8437
 L 752.17,-56.5196 L 751.738,-56.2392 L 751.279,-56.0054 L 750.798,-55.8208 L 750.301,-55.6875 L 749.792,-55.607
 L 749.278,-55.58 z
M 1490.54,-55.607 L 1490.03,-55.6875 L 1489.54,-55.8208 L 1489.05,-56.0054 L 1488.6,-56.2392 L 1488.16,-56.5196
 L 1487.76,-56.8437 L 1487.4,-57.2079 L 1487.08,-57.6081 L 1486.79,-58.04 L 1486.56,-58.4989 L 1486.38,-58.9796
 L 1486.24,-59.4771 L 1486.16,-59.9857 L 1486.14,-60.5 L 1486.16,-61.0143 L 1486.24,-61.5229 L 1486.38,-62.0204
 L 1486.56,-62.5011 L 1486.79,-62.96 L 1487.08,-63.3919 L 1487.4,-63.7921 L 1487.76,-64.1563 L 1488.16,-64.4804
 L 1488.51,-64.7024 L 1488.51,-74 L 1488.56,-74.5302 L 1488.73,-75.0372 L 1488.99,-75.4988 L 1489.35,-75.895
 L 1489.78,-76.2084 L 1490.27,-76.4252 L 1490.79,-76.536 L 1491.32,-76.536 L 1491.84,-76.4252 L 1492.33,-76.2084
 L 1492.76,-75.895 L 1493.12,-75.4988 L 1493.39,-75.0372 L 1493.55,-74.5302 L 1493.61,-74 L 1493.61,-64.7024
 L 1493.95,-64.4804 L 1494.35,-64.1563 L 1494.71,-63.7921 L 1495.04,-63.3919 L 1495.32,-62.96 L 1495.55,-62.5011
 L 1495.73,-62.0204 L 1495.87,-61.5229 L 1495.95,-61.0143 L 1495.98,-60.5 L 1495.95,-59.9857 L 1495.87,-59.4771
 L 1495.73,-58.9796 L 1495.55,-58.4989 L 1495.32,-58.04 L 1495.04,-57.6081 L 1494.71,-57.2079 L 1494.35,-56.8437
 L 1493.95,-56.5196 L 1493.52,-56.2392 L 1493.06,-56.0054 L 1492.58,-55.8208 L 1492.08,-55.6875 L 1491.57,-55.607
 L 1491.06,-55.58 z
M 563.319,-55.607 L 562.81,-55.6875 L 562.313,-55.8208 L 561.832,-56.0054 L 561.373,-56.2392 L 560.941,-56.5196
 L 560.541,-56.8437 L 560.177,-57.2079 L 559.853,-57.6081 L 559.572,-58.04 L 559.339,-58.4989 L 559.154,-58.9796
 L 559.021,-59.4771 L 558.94,-59.9857 L 558.913,-60.5 L 558.94,-61.0143 L 559.021,-61.5229 L 559.154,-62.0204
 L 559.339,-62.5011 L 559.572,-62.96 L 559.853,-63.3919 L 560.177,-63.7921 L 560.541,-64.1563 L 560.941,-64.4804
 L 561.283,-64.7024 L 561.283,-74 L 561.339,-74.5302 L 561.504,-75.0372 L 561.77,-75.4988 L 562.127,-75.895
 L 562.558,-76.2084 L 563.045,-76.4252 L 563.567,-76.536 L 564.1,-76.536 L 564.621,-76.4252 L 565.108,-76.2084
 L 565.54,-75.895 L 565.896,-75.4988 L 566.163,-75.0372 L 566.328,-74.5302 L 566.383,-74 L 566.383,-64.7024
 L 566.725,-64.4804 L 567.125,-64.1563 L 567.49,-63.7921 L 567.814,-63.3919 L 568.094,-62.96 L 568.328,-62.5011
 L 568.513,-62.0204 L 568.646,-61.5229 L 568.726,-61.0143 L 568.753,-60.5 L 568.726,-59.9857 L 568.646,-59.4771
 L 568.513,-58.9796 L 568.328,-58.4989 L 568.094,-58.04 L 567.814,-57.6081 L 567.49,-57.2079 L 567.125,-56.8437
 L 566.725,-56.5196 L 566.293,-56.2392 L 565.834,-56.0054 L 565.354,-55.8208 L 564.856,-55.6875 L 564.348,-55.607
 L 563.833,-55.58 z
M 377.875,-55.607 L 377.366,-55.6875 L 376.869,-55.8208 L 376.388,-56.0054 L 375.929,-56.2392 L 375.497,-56.5196
 L 375.097,-56.8437 L 374.733,-57.2079 L 374.409,-57.6081 L 374.128,-58.04 L 373.894,-58.4989 L 373.71,-58.9796
 L 373.576,-59.4771 L 373.496,-59.9857 L 373.469,-60.5 L 373.496,-61.0143 L 373.576,-61.5229 L 373.71,-62.0204
 L 373.894,-62.5011 L 374.128,-62.96 L 374.409,-63.3919 L 374.733,-63.7921 L 375.097,-64.1563 L 375.497,-64.4804
 L 375.839,-64.7024 L 375.839,-74 L 375.895,-74.5302 L 376.059,-75.0372 L 376.326,-75.4988 L 376.683,-75.895
 L 377.114,-76.2084 L 377.601,-76.4252 L 378.122,-76.536 L 378.655,-76.536 L 379.177,-76.4252 L 379.664,-76.2084
 L 380.095,-75.895 L 380.452,-75.4988 L 380.718,-75.0372 L 380.883,-74.5302 L 380.939,-74 L 380.939,-64.7024
 L 381.281,-64.4804 L 381.681,-64.1563 L 382.045,-63.7921 L 382.369,-63.3919 L 382.65,-62.96 L 382.884,-62.5011
 L 383.068,-62.0204 L 383.201,-61.5229 L 383.282,-61.0143 L 383.309,-60.5 L 383.282,-59.9857 L 383.201,-59.4771
 L 383.068,-58.9796 L 382.884,-58.4989 L 382.65,-58.04 L 382.369,-57.6081 L 382.045,-57.2079 L 381.681,-56.8437
 L 381.281,-56.5196 L 380.849,-56.2392 L 380.39,-56.0054 L 379.909,-55.8208 L 379.412,-55.6875 L 378.903,-55.607
 L 378.389,-55.58 z
M 1675.99,-55.607 L 1675.48,-55.6875 L 1674.98,-55.8208 L 1674.5,-56.0054 L 1674.04,-56.2392 L 1673.61,-56.5196
 L 1673.21,-56.8437 L 1672.84,-57.2079 L 1672.52,-57.6081 L 1672.24,-58.04 L 1672.01,-58.4989 L 1671.82,-58.9796
 L 1671.69,-59.4771 L 1671.61,-59.9857 L 1671.58,-60.5 L 1671.61,-61.0143 L 1671.69,-61.5229 L 1671.82,-62.0204
 L 1672.01,-62.5011 L 1672.24,-62.96 L 1672.52,-63.3919 L 1672.84,-63.7921 L 1673.21,-64.1563 L 1673.61,-64.4804
 L 1673.95,-64.7024 L 1673.95,-74 L 1674.01,-74.5302 L 1674.17,-75.0372 L 1674.44,-75.4988 L 1674.79,-75.895
 L 1675.23,-76.2084 L 1675.71,-76.4252 L 1676.23,-76.536 L 1676.77,-76.536 L 1677.29,-76.4252 L 1677.77,-76.2084
 L 1678.21,-75.895 L 1678.56,-75.4988 L 1678.83,-75.0372 L 1678.99,-74.5302 L 1679.05,-74 L 1679.05,-64.7024
 L 1679.39,-64.4804 L 1679.79,-64.1563 L 1680.16,-63.7921 L 1680.48,-63.3919 L 1680.76,-62.96 L 1680.99,-62.5011
 L 1681.18,-62.0204 L 1681.31,-61.5229 L 1681.39,-61.0143 L 1681.42,-60.5 L 1681.39,-59.9857 L 1681.31,-59.4771
 L 1681.18,-58.9796 L 1680.99,-58.4989 L 1680.76,-58.04 L 1680.48,-57.6081 L 1680.16,-57.2079 L 1679.79,-56.8437
 L 1679.39,-56.5196 L 1678.96,-56.2392 L 1678.5,-56.0054 L 1678.02,-55.8208 L 1677.52,-55.6875 L 1677.01,-55.607
 L 1676.5,-55.58 z
M 192.43,-55.607 L 191.922,-55.6875 L 191.424,-55.8208 L 190.943,-56.0054 L 190.484,-56.2392 L 190.053,-56.5196
 L 189.652,-56.8437 L 189.288,-57.2079 L 188.964,-57.6081 L 188.684,-58.04 L 188.45,-58.4989 L 188.265,-58.9796
 L 188.132,-59.4771 L 188.051,-59.9857 L 188.024,-60.5 L 188.051,-61.0143 L 188.132,-61.5229 L 188.265,-62.0204
 L 188.45,-62.5011 L 188.684,-62.96 L 188.964,-63.3919 L 189.288,-63.7921 L 189.652,-64.1563 L 190.053,-64.4804
 L 190.394,-64.7024 L 190.394,-74 L 190.45,-74.5302 L 190.615,-75.0372 L 190.881,-75.4988 L 191.238,-75.895
 L 191.669,-76.2084 L 192.156,-76.4252 L 192.678,-76.536 L 193.211,-76.536 L 193.732,-76.4252 L 194.219,-76.2084
 L 194.651,-75.895 L 195.007,-75.4988 L 195.274,-75.0372 L 195.439,-74.5302 L 195.494,-74 L 195.494,-64.7024
 L 195.836,-64.4804 L 196.237,-64.1563 L 196.601,-63.7921 L 196.925,-63.3919 L 197.205,-62.96 L 197.439,-62.5011
 L 197.624,-62.0204 L 197.757,-61.5229 L 197.837,-61.0143 L 197.864,-60.5 L 197.837,-59.9857 L 197.757,-59.4771
 L 197.624,-58.9796 L 197.439,-58.4989 L 197.205,-58.04 L 196.925,-57.6081 L 196.601,-57.2079 L 196.237,-56.8437
 L 195.836,-56.5196 L 195.404,-56.2392 L 194.946,-56.0054 L 194.465,-55.8208 L 193.967,-55.6875 L 193.459,-55.607
 L 192.944,-55.58 z
M 1132.07,-20.756 L 1131.3,-21.0674 L 1130.6,-21.5334 L 1130.02,-22.1335 L 1129.58,-22.8416 L 1129.29,-23.6267
 L 1129.17,-24.6037 L 1129.17,-58 L 1129.25,-58.8316 L 1129.51,-59.627 L 1129.93,-60.3511 L 1130.49,-60.9726
 L 1131.17,-61.4641 L 1131.93,-61.8042 L 1133.17,-62 L 1224.24,-62 L 1225.07,-61.9126 L 1225.87,-61.6542
 L 1226.59,-61.2361 L 1227.22,-60.6765 L 1227.71,-60 L 1228.05,-59.2361 L 1228.22,-58.4181 L 1228.22,-57.5819
 L 1228.05,-56.7639 L 1227.71,-56 L 1227.22,-55.3235 L 1226.59,-54.7639 L 1225.62,-54.2445 L 1134.54,-20.8482
 L 1133.73,-20.644 L 1132.9,-20.6128 z
M 946.629,-20.756 L 945.853,-21.0674 L 945.158,-21.5334 L 944.576,-22.1335 L 944.131,-22.8416 L 943.843,-23.6267
 L 943.722,-24.6037 L 943.722,-58 L 943.81,-58.8316 L 944.068,-59.627 L 944.486,-60.3511 L 945.046,-60.9726
 L 945.722,-61.4641 L 946.486,-61.8042 L 947.722,-62 L 1038.8,-62 L 1039.63,-61.9126 L 1040.43,-61.6542
 L 1041.15,-61.2361 L 1041.77,-60.6765 L 1042.26,-60 L 1042.6,-59.2361 L 1042.78,-58.4181 L 1042.78,-57.5819
 L 1042.6,-56.7639 L 1042.26,-56 L 1041.77,-55.3235 L 1041.15,-54.7639 L 1040.18,-54.2445 L 949.099,-20.8482
 L 948.288,-20.644 L 947.453,-20.6128 z
M 841.434,-47.7483 L 840.623,-47.9526 L 823.464,-54.2445 L 822.49,-54.7639 L 821.868,-55.3235 L 821.377,-56
 L 821.037,-56.7639 L 820.863,-57.5819 L 820.863,-58.4181 L 821.037,-59.2361 L 821.377,-60 L 821.868,-60.6765
 L 822.49,-61.2361 L 823.214,-61.6542 L 824.009,-61.9126 L 824.841,-62 L 859.159,-62 L 860.252,-61.8477
 L 861.028,-61.5363 L 861.723,-61.0703 L 862.305,-60.4702 L 862.75,-59.7621 L 863.038,-58.977 L 863.156,-58.1492
 L 863.1,-57.3148 L 862.871,-56.5105 L 862.48,-55.7712 L 861.944,-55.1293 L 861.287,-54.6129 L 860.536,-54.2445
 L 843.377,-47.9526 L 842.269,-47.7171 z
M 735.712,-20.644 L 734.901,-20.8482 L 643.825,-54.2445 L 642.851,-54.7639 L 642.229,-55.3235 L 641.738,-56
 L 641.398,-56.7639 L 641.224,-57.5819 L 641.224,-58.4181 L 641.398,-59.2361 L 641.738,-60 L 642.229,-60.6765
 L 642.851,-61.2361 L 643.575,-61.6542 L 644.37,-61.9126 L 645.202,-62 L 736.278,-62 L 737.514,-61.8042
 L 738.278,-61.4641 L 738.954,-60.9726 L 739.514,-60.3511 L 739.932,-59.627 L 740.19,-58.8316 L 740.278,-58
 L 740.278,-24.6037 L 740.157,-23.6267 L 739.869,-22.8416 L 739.424,-22.1335 L 738.842,-21.5334 L 738.147,-21.0674
 L 737.371,-20.756 L 736.547,-20.6128 z
M 550.267,-20.644 L 549.456,-20.8482 L 458.38,-54.2445 L 457.406,-54.7639 L 456.785,-55.3235 L 456.293,-56
 L 455.953,-56.7639 L 455.779,-57.5819 L 455.779,-58.4181 L 455.953,-59.2361 L 456.293,-60 L 456.785,-60.6765
 L 457.406,-61.2361 L 458.131,-61.6542 L 458.926,-61.9126 L 459.757,-62 L 550.833,-62 L 552.069,-61.8042
 L 552.833,-61.4641 L 553.51,-60.9726 L 554.069,-60.3511 L 554.488,-59.627 L 554.746,-58.8316 L 554.833,-58
 L 554.833,-24.6037 L 554.712,-23.6267 L 554.424,-22.8416 L 553.979,-22.1335 L 553.397,-21.5334 L 552.703,-21.0674
 L 551.927,-20.756 L 551.103,-20.6128 z
M 364.823,-20.644 L 364.012,-20.8482 L 272.936,-54.2445 L 271.962,-54.7639 L 271.34,-55.3235 L 270.849,-56
 L 270.509,-56.7639 L 270.335,-57.5819 L 270.335,-58.4181 L 270.509,-59.2361 L 270.849,-60 L 271.34,-60.6765
 L 271.962,-61.2361 L 272.686,-61.6542 L 273.481,-61.9126 L 274.313,-62 L 365.389,-62 L 366.625,-61.8042
 L 367.389,-61.4641 L 368.065,-60.9726 L 368.625,-60.3511 L 369.043,-59.627 L 369.301,-58.8316 L 369.389,-58
 L 369.389,-24.6037 L 369.268,-23.6267 L 368.98,-22.8416 L 368.535,-22.1335 L 367.953,-21.5334 L 367.258,-21.0674
 L 366.482,-20.756 L 365.658,-20.6128 z
M 1502.96,-20.756 L 1502.19,-21.0674 L 1501.49,-21.5334 L 1500.91,-22.1335 L 1500.46,-22.8416 L 1500.18,-23.6267
 L 1500.06,-24.6037 L 1500.06,-58 L 1500.14,-58.8316 L 1500.4,-59.627 L 1500.82,-60.3511 L 1501.38,-60.9726
 L 1502.06,-61.4641 L 1502.82,-61.8042 L 1504.06,-62 L 1595.13,-62 L 1595.96,-61.9126 L 1596.76,-61.6542
 L 1597.48,-61.2361 L 1598.1,-60.6765 L 1598.6,-60 L 1598.94,-59.2361 L 1599.11,-58.4181 L 1599.11,-57.5819
 L 1598.94,-56.7639 L 1598.6,-56 L 1598.1,-55.3235 L 1597.48,-54.7639 L 1596.51,-54.2445 L 1505.43,-20.8482
 L 1504.62,-20.644 L 1503.79,-20.6128 z
M 179.378,-20.644 L 178.567,-20.8482 L 87.4915,-54.2445 L 86.5175,-54.7639 L 85.896,-55.3235 L 85.4045,-56
 L 85.0644,-56.7639 L 84.8905,-57.5819 L 84.8905,-58.4181 L 85.0644,-59.2361 L 85.4045,-60 L 85.896,-60.6765
 L 86.5175,-61.2361 L 87.2417,-61.6542 L 88.037,-61.9126 L 88.8686,-62 L 179.944,-62 L 181.181,-61.8042
 L 181.944,-61.4641 L 182.621,-60.9726 L 183.181,-60.3511 L 183.599,-59.627 L 183.857,-58.8316 L 183.944,-58
 L 183.944,-24.6037 L 183.823,-23.6267 L 183.535,-22.8416 L 183.091,-22.1335 L 182.508,-21.5334 L 181.814,-21.0674
 L 181.038,-20.756 L 180.214,-20.6128 z
M 1317.52,-20.756 L 1316.74,-21.0674 L 1316.05,-21.5334 L 1315.46,-22.1335 L 1315.02,-22.8416 L 1314.73,-23.6267
 L 1314.61,-24.6037 L 1314.61,-58 L 1314.7,-58.8316 L 1314.96,-59.627 L 1315.38,-60.3511 L 1315.93,-60.9726
 L 1316.61,-61.4641 L 1317.38,-61.8042 L 1318.61,-62 L 1409.69,-62 L 1410.52,-61.9126 L 1411.31,-61.6542
 L 1412.04,-61.2361 L 1412.66,-60.6765 L 1413.15,-60 L 1413.49,-59.2361 L 1413.67,-58.4181 L 1413.67,-57.5819
 L 1413.49,-56.7639 L 1413.15,-56 L 1412.66,-55.3235 L 1412.04,-54.7639 L 1411.06,-54.2445 L 1319.99,-20.8482
 L 1319.18,-20.644 L 1318.34,-20.6128 z
M 761.86,-18.4969 L 761.042,-18.6708 L 760.278,-19.0109 L 759.601,-19.5024 L 759.042,-20.1239 L 758.624,-20.848
 L 758.365,-21.6433 L 758.278,-22.475 L 758.278,-57.525 L 758.399,-58.502 L 758.687,-59.2871 L 759.132,-59.9952
 L 759.714,-60.5953 L 760.408,-61.0613 L 761.184,-61.3727 L 762.008,-61.5159 L 762.844,-61.4847 L 763.655,-61.2805
 L 811.448,-43.7555 L 811.94,-43.5363 L 812.634,-43.0703 L 813.217,-42.4702 L 813.662,-41.7621 L 813.95,-40.977
 L 814.068,-40.1492 L 814.012,-39.3148 L 813.783,-38.5105 L 813.392,-37.7712 L 812.856,-37.1293 L 812.198,-36.6129
 L 811.448,-36.2445 L 763.655,-18.7195 L 762.696,-18.4969 z
M 921.156,-18.5152 L 920.345,-18.7195 L 872.552,-36.2445 L 872.06,-36.4637 L 871.365,-36.9297 L 870.783,-37.5298
 L 870.338,-38.2379 L 870.05,-39.023 L 869.932,-39.8508 L 869.988,-40.6852 L 870.217,-41.4895 L 870.608,-42.2288
 L 871.144,-42.8707 L 871.801,-43.3871 L 872.552,-43.7555 L 920.345,-61.2805 L 921.304,-61.5031 L 922.14,-61.5031
 L 922.958,-61.3293 L 923.722,-60.9891 L 924.399,-60.4976 L 924.958,-59.8762 L 925.376,-59.152 L 925.635,-58.3567
 L 925.722,-57.525 L 925.722,-22.475 L 925.601,-21.498 L 925.313,-20.7129 L 924.868,-20.0048 L 924.286,-19.4046
 L 923.592,-18.9387 L 922.816,-18.6273 L 921.992,-18.4841 z
M 205.944,-18 L 204.708,-18.1958 L 203.944,-18.5359 L 203.268,-19.0274 L 202.708,-19.6489 L 202.29,-20.373
 L 202.032,-21.1684 L 201.944,-22 L 201.944,-55.3963 L 202.066,-56.3733 L 202.353,-57.1584 L 202.798,-57.8665
 L 203.381,-58.4666 L 204.075,-58.9326 L 204.851,-59.2439 L 205.675,-59.3872 L 206.511,-59.356 L 207.322,-59.1517
 L 298.397,-25.7555 L 299.371,-25.2361 L 299.993,-24.6765 L 300.484,-24 L 300.824,-23.2361 L 300.998,-22.4181
 L 300.998,-21.5819 L 300.824,-20.7639 L 300.484,-20 L 299.993,-19.3235 L 299.371,-18.7639 L 298.647,-18.3458
 L 297.852,-18.0874 L 297.02,-18 z
M 391.389,-18 L 390.153,-18.1958 L 389.389,-18.5359 L 388.712,-19.0274 L 388.153,-19.6489 L 387.735,-20.373
 L 387.476,-21.1684 L 387.389,-22 L 387.389,-55.3963 L 387.51,-56.3733 L 387.798,-57.1584 L 388.243,-57.8665
 L 388.825,-58.4666 L 389.519,-58.9326 L 390.296,-59.2439 L 391.119,-59.3872 L 391.955,-59.356 L 392.766,-59.1517
 L 483.842,-25.7555 L 484.816,-25.2361 L 485.437,-24.6765 L 485.929,-24 L 486.269,-23.2361 L 486.443,-22.4181
 L 486.443,-21.5819 L 486.269,-20.7639 L 485.929,-20 L 485.437,-19.3235 L 484.816,-18.7639 L 484.092,-18.3458
 L 483.296,-18.0874 L 482.465,-18 z
M 576.833,-18 L 575.597,-18.1958 L 574.833,-18.5359 L 574.157,-19.0274 L 573.597,-19.6489 L 573.179,-20.373
 L 572.921,-21.1684 L 572.833,-22 L 572.833,-55.3963 L 572.954,-56.3733 L 573.242,-57.1584 L 573.687,-57.8665
 L 574.27,-58.4666 L 574.964,-58.9326 L 575.74,-59.2439 L 576.564,-59.3872 L 577.4,-59.356 L 578.21,-59.1517
 L 669.286,-25.7555 L 670.26,-25.2361 L 670.882,-24.6765 L 671.373,-24 L 671.713,-23.2361 L 671.887,-22.4181
 L 671.887,-21.5819 L 671.713,-20.7639 L 671.373,-20 L 670.882,-19.3235 L 670.26,-18.7639 L 669.536,-18.3458
 L 668.741,-18.0874 L 667.909,-18 z
M 1016.09,-18 L 1015.26,-18.0874 L 1014.46,-18.3458 L 1013.74,-18.7639 L 1013.12,-19.3235 L 1012.63,-20
 L 1012.29,-20.7639 L 1012.11,-21.5819 L 1012.11,-22.4181 L 1012.29,-23.2361 L 1012.63,-24 L 1013.12,-24.6765
 L 1013.74,-25.2361 L 1014.71,-25.7555 L 1105.79,-59.1517 L 1106.6,-59.356 L 1107.44,-59.3872 L 1108.26,-59.2439
 L 1109.04,-58.9326 L 1109.73,-58.4666 L 1110.31,-57.8665 L 1110.76,-57.1584 L 1111.05,-56.3733 L 1111.17,-55.3963
 L 1111.17,-22 L 1111.08,-21.1684 L 1110.82,-20.373 L 1110.4,-19.6489 L 1109.84,-19.0274 L 1109.17,-18.5359
 L 1108.4,-18.1958 L 1107.17,-18 z
M 1201.54,-18 L 1200.7,-18.0874 L 1199.91,-18.3458 L 1199.18,-18.7639 L 1198.56,-19.3235 L 1198.07,-20
 L 1197.73,-20.7639 L 1197.56,-21.5819 L 1197.56,-22.4181 L 1197.73,-23.2361 L 1198.07,-24 L 1198.56,-24.6765
 L 1199.18,-25.2361 L 1200.16,-25.7555 L 1291.23,-59.1517 L 1292.04,-59.356 L 1292.88,-59.3872 L 1293.7,-59.2439
 L 1294.48,-58.9326 L 1295.17,-58.4666 L 1295.76,-57.8665 L 1296.2,-57.1584 L 1296.49,-56.3733 L 1296.61,-55.3963
 L 1296.61,-22 L 1296.52,-21.1684 L 1296.27,-20.373 L 1295.85,-19.6489 L 1295.29,-19.0274 L 1294.61,-18.5359
 L 1293.85,-18.1958 L 1292.61,-18 z
M 1386.98,-18 L 1386.15,-18.0874 L 1385.35,-18.3458 L 1384.63,-18.7639 L 1384.01,-19.3235 L 1383.52,-20
 L 1383.18,-20.7639 L 1383,-21.5819 L 1383,-22.4181 L 1383.18,-23.2361 L 1383.52,-24 L 1384.01,-24.6765
 L 1384.63,-25.2361 L 1385.6,-25.7555 L 1476.68,-59.1517 L 1477.49,-59.356 L 1478.33,-59.3872 L 1479.15,-59.2439
 L 1479.92,-58.9326 L 1480.62,-58.4666 L 1481.2,-57.8665 L 1481.65,-57.1584 L 1481.93,-56.3733 L 1482.06,-55.3963
 L 1482.06,-22 L 1481.97,-21.1684 L 1481.71,-20.373 L 1481.29,-19.6489 L 1480.73,-19.0274 L 1480.06,-18.5359
 L 1479.29,-18.1958 L 1478.06,-18 z
M 22,-18 L 20.7639,-18.1958 L 20,-18.5359 L 19.3235,-19.0274 L 18.7639,-19.6489 L 18.3458,-20.373
 L 18.0874,-21.1684 L 18,-22 L 18,-54.8463 L 18.1212,-55.8232 L 18.409,-56.6084 L 18.8539,-57.3165
 L 19.4362,-57.9166 L 20.1306,-58.3825 L 20.9067,-58.6939 L 21.7305,-58.8372 L 22.5662,-58.806 L 23.3771,-58.6017
 L 112.953,-25.7555 L 113.927,-25.2361 L 114.548,-24.6765 L 115.04,-24 L 115.38,-23.2361 L 115.554,-22.4181
 L 115.554,-21.5819 L 115.38,-20.7639 L 115.04,-20 L 114.548,-19.3235 L 113.927,-18.7639 L 113.203,-18.3458
 L 112.407,-18.0874 L 111.576,-18 z
M 1572.42,-18 L 1571.59,-18.0874 L 1570.8,-18.3458 L 1570.07,-18.7639 L 1569.45,-19.3235 L 1568.96,-20
 L 1568.62,-20.7639 L 1568.45,-21.5819 L 1568.45,-22.4181 L 1568.62,-23.2361 L 1568.96,-24 L 1569.45,-24.6765
 L 1570.07,-25.2361 L 1571.05,-25.7555 L 1660.62,-58.6017 L 1661.43,-58.806 L 1662.27,-58.8372 L 1663.09,-58.6939
 L 1663.87,-58.3825 L 1664.56,-57.9166 L 1665.15,-57.3165 L 1665.59,-56.6084 L 1665.88,-55.8232 L 1666,-54.8463
 L 1666,-22 L 1665.91,-21.1684 L 1665.65,-20.373 L 1665.24,-19.6489 L 1664.68,-19.0274 L 1664,-18.5359
 L 1663.24,-18.1958 L 1662,-18 z
M 824.841,-18 L 823.748,-18.1523 L 822.972,-18.4637 L 822.277,-18.9297 L 821.695,-19.5298 L 821.25,-20.2379
 L 820.962,-21.023 L 820.844,-21.8508 L 820.9,-22.6852 L 821.129,-23.4895 L 821.52,-24.2288 L 822.056,-24.8707
 L 822.713,-25.3871 L 823.464,-25.7555 L 840.623,-32.0474 L 841.73,-32.2829 L 842.566,-32.2517 L 843.377,-32.0474
 L 860.536,-25.7555 L 861.51,-25.2361 L 862.131,-24.6765 L 862.623,-24 L 862.963,-23.2361 L 863.137,-22.4181
 L 863.137,-21.5819 L 862.963,-20.7639 L 862.623,-20 L 862.131,-19.3235 L 861.51,-18.7639 L 860.786,-18.3458
 L 859.991,-18.0874 L 859.159,-18 z
" stroke="black" fill="lightgray" stroke-width="0.5"/>
</svg>
