<?xml version="1.0" standalone="no"?>
<!DOCTYPE svg PUBLIC "-//W3C//DTD SVG 1.1//EN" "http://www.w3.org/Graphics/SVG/1.1/DTD/svg11.dtd">
<svg width="1560mm" height="80mm" viewBox="0 -80 1560 80" xmlns="http://www.w3.org/2000/svg" version="1.1">
<title>OpenSCAD Model</title>
<path d="
M 1560,-80 L 0,-80 L 0,-0 L 4.95,-0 L 4.95,-6 L 5.00572,-6.53017
 L 5.17046,-7.03717 L 5.437,-7.49884 L 5.79372,-7.895 L 6.22499,-8.20836 L 6.71201,-8.42519 L 7.23344,-8.53603
 L 7.76654,-8.53603 L 8.28798,-8.42519 L 8.77499,-8.20836 L 9.20627,-7.895 L 9.56299,-7.49884 L 9.82953,-7.03717
 L 9.99426,-6.53017 L 10.05,-6 L 10.05,-0 L 198.075,-0 L 198.075,-6 L 198.131,-6.53017
 L 198.295,-7.03717 L 198.562,-7.49884 L 198.919,-7.895 L 199.35,-8.20836 L 199.837,-8.42519 L 200.358,-8.53603
 L 200.892,-8.53603 L 201.413,-8.42519 L 201.9,-8.20836 L 202.331,-7.895 L 202.688,-7.49884 L 202.955,-7.03717
 L 203.119,-6.53017 L 203.175,-6 L 203.175,-0 L 391.2,-0 L 391.2,-6 L 391.256,-6.53017
 L 391.42,-7.03717 L 391.687,-7.49884 L 392.044,-7.895 L 392.475,-8.20836 L 392.962,-8.42519 L 393.483,-8.53603
 L 394.017,-8.53603 L 394.538,-8.42519 L 395.025,-8.20836 L 395.456,-7.895 L 395.813,-7.49884 L 396.08,-7.03717
 L 396.244,-6.53017 L 396.3,-6 L 396.3,-0 L 584.325,-0 L 584.325,-6 L 584.381,-6.53017
 L 584.545,-7.03717 L 584.812,-7.49884 L 585.169,-7.895 L 585.6,-8.20836 L 586.087,-8.42519 L 586.608,-8.53603
 L 587.142,-8.53603 L 587.663,-8.42519 L 588.15,-8.20836 L 588.581,-7.895 L 588.938,-7.49884 L 589.205,-7.03717
 L 589.369,-6.53017 L 589.425,-6 L 589.425,-0 L 777.45,-0 L 777.45,-6 L 777.506,-6.53017
 L 777.67,-7.03717 L 777.937,-7.49884 L 778.294,-7.895 L 778.725,-8.20836 L 779.212,-8.42519 L 779.733,-8.53603
 L 780.267,-8.53603 L 780.788,-8.42519 L 781.275,-8.20836 L 781.706,-7.895 L 782.063,-7.49884 L 782.33,-7.03717
 L 782.494,-6.53017 L 782.55,-6 L 782.55,-0 L 970.575,-0 L 970.575,-6 L 970.631,-6.53017
 L 970.795,-7.03717 L 971.062,-7.49884 L 971.419,-7.895 L 971.85,-8.20836 L 972.337,-8.42519 L 972.858,-8.53603
 L 973.392,-8.53603 L 973.913,-8.42519 L 974.4,-8.20836 L 974.831,-7.895 L 975.188,-7.49884 L 975.455,-7.03717
 L 975.619,-6.53017 L 975.675,-6 L 975.675,-0 L 1163.7,-0 L 1163.7,-6 L 1163.76,-6.53017
 L 1163.92,-7.03717 L 1164.19,-7.49884 L 1164.54,-7.895 L 1164.97,-8.20836 L 1165.46,-8.42519 L 1165.98,-8.53603
 L 1166.52,-8.53603 L 1167.04,-8.42519 L 1167.52,-8.20836 L 1167.96,-7.895 L 1168.31,-7.49884 L 1168.58,-7.03717
 L 1168.74,-6.53017 L 1168.8,-6 L 1168.8,-0 L 1356.82,-0 L 1356.82,-6 L 1356.88,-6.53017
 L 1357.05,-7.03717 L 1357.31,-7.49884 L 1357.67,-7.895 L 1358.1,-8.20836 L 1358.59,-8.42519 L 1359.11,-8.53603
 L 1359.64,-8.53603 L 1360.16,-8.42519 L 1360.65,-8.20836 L 1361.08,-7.895 L 1361.44,-7.49884 L 1361.7,-7.03717
 L 1361.87,-6.53017 L 1361.92,-6 L 1361.92,-0 L 1549.95,-0 L 1549.95,-6 L 1550.01,-6.53017
 L 1550.17,-7.03717 L 1550.44,-7.49884 L 1550.79,-7.895 L 1551.22,-8.20836 L 1551.71,-8.42519 L 1552.23,-8.53603
 L 1552.77,-8.53603 L 1553.29,-8.42519 L 1553.77,-8.20836 L 1554.21,-7.895 L 1554.56,-7.49884 L 1554.83,-7.03717
 L 1554.99,-6.53017 L 1555.05,-6 L 1555.05,-0 L 1560,-0 z
M 200.111,-55.607 L 199.602,-55.6875 L 199.105,-55.8208 L 198.624,-56.0054 L 198.165,-56.2392 L 197.733,-56.5196
 L 197.333,-56.8437 L 196.969,-57.2079 L 196.645,-57.6081 L 196.364,-58.04 L 196.13,-58.4989 L 195.946,-58.9796
 L 195.813,-59.4771 L 195.732,-59.9857 L 195.705,-60.5 L 195.732,-61.0143 L 195.813,-61.5229 L 195.946,-62.0204
 L 196.13,-62.5011 L 196.364,-62.96 L 196.645,-63.3919 L 196.969,-63.7921 L 197.333,-64.1563 L 197.733,-64.4804
 L 198.075,-64.7024 L 198.075,-74 L 198.131,-74.5302 L 198.295,-75.0372 L 198.562,-75.4988 L 198.919,-75.895
 L 199.35,-76.2084 L 199.837,-76.4252 L 200.358,-76.536 L 200.892,-76.536 L 201.413,-76.4252 L 201.9,-76.2084
 L 202.331,-75.895 L 202.688,-75.4988 L 202.955,-75.0372 L 203.119,-74.5302 L 203.175,-74 L 203.175,-64.7024
 L 203.517,-64.4804 L 203.917,-64.1563 L 204.281,-63.7921 L 204.605,-63.3919 L 204.886,-62.96 L 205.12,-62.5011
 L 205.304,-62.0204 L 205.437,-61.5229 L 205.518,-61.0143 L 205.545,-60.5 L 205.518,-59.9857 L 205.437,-59.4771
 L 205.304,-58.9796 L 205.12,-58.4989 L 204.886,-58.04 L 204.605,-57.6081 L 204.281,-57.2079 L 203.917,-56.8437
 L 203.517,-56.5196 L 203.085,-56.2392 L 202.626,-56.0054 L 202.145,-55.8208 L 201.648,-55.6875 L 201.139,-55.607
 L 200.625,-55.58 z
M 1165.74,-55.607 L 1165.23,-55.6875 L 1164.73,-55.8208 L 1164.25,-56.0054 L 1163.79,-56.2392 L 1163.36,-56.5196
 L 1162.96,-56.8437 L 1162.59,-57.2079 L 1162.27,-57.6081 L 1161.99,-58.04 L 1161.76,-58.4989 L 1161.57,-58.9796
 L 1161.44,-59.4771 L 1161.36,-59.9857 L 1161.33,-60.5 L 1161.36,-61.0143 L 1161.44,-61.5229 L 1161.57,-62.0204
 L 1161.76,-62.5011 L 1161.99,-62.96 L 1162.27,-63.3919 L 1162.59,-63.7921 L 1162.96,-64.1563 L 1163.36,-64.4804
 L 1163.7,-64.7024 L 1163.7,-74 L 1163.76,-74.5302 L 1163.92,-75.0372 L 1164.19,-75.4988 L 1164.54,-75.895
 L 1164.98,-76.2084 L 1165.46,-76.4252 L 1165.98,-76.536 L 1166.52,-76.536 L 1167.04,-76.4252 L 1167.52,-76.2084
 L 1167.96,-75.895 L 1168.31,-75.4988 L 1168.58,-75.0372 L 1168.74,-74.5302 L 1168.8,-74 L 1168.8,-64.7024
 L 1169.14,-64.4804 L 1169.54,-64.1563 L 1169.91,-63.7921 L 1170.23,-63.3919 L 1170.51,-62.96 L 1170.74,-62.5011
 L 1170.93,-62.0204 L 1171.06,-61.5229 L 1171.14,-61.0143 L 1171.17,-60.5 L 1171.14,-59.9857 L 1171.06,-59.4771
 L 1170.93,-58.9796 L 1170.74,-58.4989 L 1170.51,-58.04 L 1170.23,-57.6081 L 1169.91,-57.2079 L 1169.54,-56.8437
 L 1169.14,-56.5196 L 1168.71,-56.2392 L 1168.25,-56.0054 L 1167.77,-55.8208 L 1167.27,-55.6875 L 1166.76,-55.607
 L 1166.25,-55.58 z
M 972.611,-55.607 L 972.102,-55.6875 L 971.605,-55.8208 L 971.124,-56.0054 L 970.665,-56.2392 L 970.233,-56.5196
 L 969.833,-56.8437 L 969.469,-57.2079 L 969.145,-57.6081 L 968.864,-58.04 L 968.63,-58.4989 L 968.446,-58.9796
 L 968.313,-59.4771 L 968.232,-59.9857 L 968.205,-60.5 L 968.232,-61.0143 L 968.313,-61.5229 L 968.446,-62.0204
 L 968.63,-62.5011 L 968.864,-62.96 L 969.145,-63.3919 L 969.469,-63.7921 L 969.833,-64.1563 L 970.233,-64.4804
 L 970.575,-64.7024 L 970.575,-74 L 970.631,-74.5302 L 970.795,-75.0372 L 971.062,-75.4988 L 971.419,-75.895
 L 971.85,-76.2084 L 972.337,-76.4252 L 972.858,-76.536 L 973.392,-76.536 L 973.913,-76.4252 L 974.4,-76.2084
 L 974.831,-75.895 L 975.188,-75.4988 L 975.455,-75.0372 L 975.619,-74.5302 L 975.675,-74 L 975.675,-64.7024
 L 976.017,-64.4804 L 976.417,-64.1563 L 976.781,-63.7921 L 977.105,-63.3919 L 977.386,-62.96 L 977.62,-62.5011
 L 977.804,-62.0204 L 977.937,-61.5229 L 978.018,-61.0143 L 978.045,-60.5 L 978.018,-59.9857 L 977.937,-59.4771
 L 977.804,-58.9796 L 977.62,-58.4989 L 977.386,-58.04 L 977.105,-57.6081 L 976.781,-57.2079 L 976.417,-56.8437
 L 976.017,-56.5196 L 975.585,-56.2392 L 975.126,-56.0054 L 974.645,-55.8208 L 974.148,-55.6875 L 973.639,-55.607
 L 973.125,-55.58 z
M 6.98573,-55.607 L 6.47708,-55.6875 L 5.97964,-55.8208 L 5.49887,-56.0054 L 5.04001,-56.2392 L 4.60811,-56.5196
 L 4.20789,-56.8437 L 3.84373,-57.2079 L 3.51964,-57.6081 L 3.23917,-58.04 L 3.00537,-58.4989 L 2.82082,-58.9796
 L 2.68752,-59.4771 L 2.60696,-59.9857 L 2.58,-60.5 L 2.60696,-61.0143 L 2.68752,-61.5229 L 2.82082,-62.0204
 L 3.00537,-62.5011 L 3.23917,-62.96 L 3.51964,-63.3919 L 3.84373,-63.7921 L 4.20789,-64.1563 L 4.60811,-64.4804
 L 4.95001,-64.7024 L 4.95001,-74 L 5.00574,-74.5302 L 5.17047,-75.0372 L 5.43701,-75.4988 L 5.79373,-75.895
 L 6.22501,-76.2084 L 6.71202,-76.4252 L 7.23346,-76.536 L 7.76654,-76.536 L 8.28798,-76.4252 L 8.77499,-76.2084
 L 9.20627,-75.895 L 9.56299,-75.4988 L 9.82953,-75.0372 L 9.99426,-74.5302 L 10.05,-74 L 10.05,-64.7024
 L 10.3919,-64.4804 L 10.7921,-64.1563 L 11.1563,-63.7921 L 11.4804,-63.3919 L 11.7608,-62.96 L 11.9946,-62.5011
 L 12.1792,-62.0204 L 12.3125,-61.5229 L 12.393,-61.0143 L 12.42,-60.5 L 12.393,-59.9857 L 12.3125,-59.4771
 L 12.1792,-58.9796 L 11.9946,-58.4989 L 11.7608,-58.04 L 11.4804,-57.6081 L 11.1563,-57.2079 L 10.7921,-56.8437
 L 10.3919,-56.5196 L 9.95999,-56.2392 L 9.50113,-56.0054 L 9.02036,-55.8208 L 8.52292,-55.6875 L 8.01427,-55.607
 L 7.5,-55.58 z
M 779.486,-55.607 L 778.977,-55.6875 L 778.48,-55.8208 L 777.999,-56.0054 L 777.54,-56.2392 L 777.108,-56.5196
 L 776.708,-56.8437 L 776.344,-57.2079 L 776.02,-57.6081 L 775.739,-58.04 L 775.505,-58.4989 L 775.321,-58.9796
 L 775.188,-59.4771 L 775.107,-59.9857 L 775.08,-60.5 L 775.107,-61.0143 L 775.188,-61.5229 L 775.321,-62.0204
 L 775.505,-62.5011 L 775.739,-62.96 L 776.02,-63.3919 L 776.344,-63.7921 L 776.708,-64.1563 L 777.108,-64.4804
 L 777.45,-64.7024 L 777.45,-74 L 777.506,-74.5302 L 777.67,-75.0372 L 777.937,-75.4988 L 778.294,-75.895
 L 778.725,-76.2084 L 779.212,-76.4252 L 779.733,-76.536 L 780.267,-76.536 L 780.788,-76.4252 L 781.275,-76.2084
 L 781.706,-75.895 L 782.063,-75.4988 L 782.33,-75.0372 L 782.494,-74.5302 L 782.55,-74 L 782.55,-64.7024
 L 782.892,-64.4804 L 783.292,-64.1563 L 783.656,-63.7921 L 783.98,-63.3919 L 784.261,-62.96 L 784.495,-62.5011
 L 784.679,-62.0204 L 784.812,-61.5229 L 784.893,-61.0143 L 784.92,-60.5 L 784.893,-59.9857 L 784.812,-59.4771
 L 784.679,-58.9796 L 784.495,-58.4989 L 784.261,-58.04 L 783.98,-57.6081 L 783.656,-57.2079 L 783.292,-56.8437
 L 782.892,-56.5196 L 782.46,-56.2392 L 782.001,-56.0054 L 781.52,-55.8208 L 781.023,-55.6875 L 780.514,-55.607
 L 780,-55.58 z
M 1358.86,-55.607 L 1358.35,-55.6875 L 1357.85,-55.8208 L 1357.37,-56.0054 L 1356.92,-56.2392 L 1356.48,-56.5196
 L 1356.08,-56.8437 L 1355.72,-57.2079 L 1355.39,-57.6081 L 1355.11,-58.04 L 1354.88,-58.4989 L 1354.7,-58.9796
 L 1354.56,-59.4771 L 1354.48,-59.9857 L 1354.46,-60.5 L 1354.48,-61.0143 L 1354.56,-61.5229 L 1354.7,-62.0204
 L 1354.88,-62.5011 L 1355.11,-62.96 L 1355.39,-63.3919 L 1355.72,-63.7921 L 1356.08,-64.1563 L 1356.48,-64.4804
 L 1356.83,-64.7024 L 1356.83,-74 L 1356.88,-74.5302 L 1357.05,-75.0372 L 1357.31,-75.4988 L 1357.67,-75.895
 L 1358.1,-76.2084 L 1358.59,-76.4252 L 1359.11,-76.536 L 1359.64,-76.536 L 1360.16,-76.4252 L 1360.65,-76.2084
 L 1361.08,-75.895 L 1361.44,-75.4988 L 1361.7,-75.0372 L 1361.87,-74.5302 L 1361.92,-74 L 1361.92,-64.7024
 L 1362.27,-64.4804 L 1362.67,-64.1563 L 1363.03,-63.7921 L 1363.36,-63.3919 L 1363.64,-62.96 L 1363.87,-62.5011
 L 1364.05,-62.0204 L 1364.19,-61.5229 L 1364.27,-61.0143 L 1364.29,-60.5 L 1364.27,-59.9857 L 1364.19,-59.4771
 L 1364.05,-58.9796 L 1363.87,-58.4989 L 1363.64,-58.04 L 1363.36,-57.6081 L 1363.03,-57.2079 L 1362.67,-56.8437
 L 1362.27,-56.5196 L 1361.83,-56.2392 L 1361.38,-56.0054 L 1360.9,-55.8208 L 1360.4,-55.6875 L 1359.89,-55.607
 L 1359.38,-55.58 z
M 586.361,-55.607 L 585.852,-55.6875 L 585.355,-55.8208 L 584.874,-56.0054 L 584.415,-56.2392 L 583.983,-56.5196
 L 583.583,-56.8437 L 583.219,-57.2079 L 582.895,-57.6081 L 582.614,-58.04 L 582.38,-58.4989 L 582.196,-58.9796
 L 582.063,-59.4771 L 581.982,-59.9857 L 581.955,-60.5 L 581.982,-61.0143 L 582.063,-61.5229 L 582.196,-62.0204
 L 582.38,-62.5011 L 582.614,-62.96 L 582.895,-63.3919 L 583.219,-63.7921 L 583.583,-64.1563 L 583.983,-64.4804
 L 584.325,-64.7024 L 584.325,-74 L 584.381,-74.5302 L 584.545,-75.0372 L 584.812,-75.4988 L 585.169,-75.895
 L 585.6,-76.2084 L 586.087,-76.4252 L 586.608,-76.536 L 587.142,-76.536 L 587.663,-76.4252 L 588.15,-76.2084
 L 588.581,-75.895 L 588.938,-75.4988 L 589.205,-75.0372 L 589.369,-74.5302 L 589.425,-74 L 589.425,-64.7024
 L 589.767,-64.4804 L 590.167,-64.1563 L 590.531,-63.7921 L 590.855,-63.3919 L 591.136,-62.96 L 591.37,-62.5011
 L 591.554,-62.0204 L 591.687,-61.5229 L 591.768,-61.0143 L 591.795,-60.5 L 591.768,-59.9857 L 591.687,-59.4771
 L 591.554,-58.9796 L 591.37,-58.4989 L 591.136,-58.04 L 590.855,-57.6081 L 590.531,-57.2079 L 590.167,-56.8437
 L 589.767,-56.5196 L 589.335,-56.2392 L 588.876,-56.0054 L 588.395,-55.8208 L 587.898,-55.6875 L 587.389,-55.607
 L 586.875,-55.58 z
M 393.236,-55.607 L 392.727,-55.6875 L 392.23,-55.8208 L 391.749,-56.0054 L 391.29,-56.2392 L 390.858,-56.5196
 L 390.458,-56.8437 L 390.094,-57.2079 L 389.77,-57.6081 L 389.489,-58.04 L 389.255,-58.4989 L 389.071,-58.9796
 L 388.938,-59.4771 L 388.857,-59.9857 L 388.83,-60.5 L 388.857,-61.0143 L 388.938,-61.5229 L 389.071,-62.0204
 L 389.255,-62.5011 L 389.489,-62.96 L 389.77,-63.3919 L 390.094,-63.7921 L 390.458,-64.1563 L 390.858,-64.4804
 L 391.2,-64.7024 L 391.2,-74 L 391.256,-74.5302 L 391.42,-75.0372 L 391.687,-75.4988 L 392.044,-75.895
 L 392.475,-76.2084 L 392.962,-76.4252 L 393.483,-76.536 L 394.017,-76.536 L 394.538,-76.4252 L 395.025,-76.2084
 L 395.456,-75.895 L 395.813,-75.4988 L 396.08,-75.0372 L 396.244,-74.5302 L 396.3,-74 L 396.3,-64.7024
 L 396.642,-64.4804 L 397.042,-64.1563 L 397.406,-63.7921 L 397.73,-63.3919 L 398.011,-62.96 L 398.245,-62.5011
 L 398.429,-62.0204 L 398.562,-61.5229 L 398.643,-61.0143 L 398.67,-60.5 L 398.643,-59.9857 L 398.562,-59.4771
 L 398.429,-58.9796 L 398.245,-58.4989 L 398.011,-58.04 L 397.73,-57.6081 L 397.406,-57.2079 L 397.042,-56.8437
 L 396.642,-56.5196 L 396.21,-56.2392 L 395.751,-56.0054 L 395.27,-55.8208 L 394.773,-55.6875 L 394.264,-55.607
 L 393.75,-55.58 z
M 1551.99,-55.607 L 1551.48,-55.6875 L 1550.98,-55.8208 L 1550.5,-56.0054 L 1550.04,-56.2392 L 1549.61,-56.5196
 L 1549.21,-56.8437 L 1548.84,-57.2079 L 1548.52,-57.6081 L 1548.24,-58.04 L 1548.01,-58.4989 L 1547.82,-58.9796
 L 1547.69,-59.4771 L 1547.61,-59.9857 L 1547.58,-60.5 L 1547.61,-61.0143 L 1547.69,-61.5229 L 1547.82,-62.0204
 L 1548.01,-62.5011 L 1548.24,-62.96 L 1548.52,-63.3919 L 1548.84,-63.7921 L 1549.21,-64.1563 L 1549.61,-64.4804
 L 1549.95,-64.7024 L 1549.95,-74 L 1550.01,-74.5302 L 1550.17,-75.0372 L 1550.44,-75.4988 L 1550.79,-75.895
 L 1551.23,-76.2084 L 1551.71,-76.4252 L 1552.23,-76.536 L 1552.77,-76.536 L 1553.29,-76.4252 L 1553.77,-76.2084
 L 1554.21,-75.895 L 1554.56,-75.4988 L 1554.83,-75.0372 L 1554.99,-74.5302 L 1555.05,-74 L 1555.05,-64.7024
 L 1555.39,-64.4804 L 1555.79,-64.1563 L 1556.16,-63.7921 L 1556.48,-63.3919 L 1556.76,-62.96 L 1556.99,-62.5011
 L 1557.18,-62.0204 L 1557.31,-61.5229 L 1557.39,-61.0143 L 1557.42,-60.5 L 1557.39,-59.9857 L 1557.31,-59.4771
 L 1557.18,-58.9796 L 1556.99,-58.4989 L 1556.76,-58.04 L 1556.48,-57.6081 L 1556.16,-57.2079 L 1555.79,-56.8437
 L 1555.39,-56.5196 L 1554.96,-56.2392 L 1554.5,-56.0054 L 1554.02,-55.8208 L 1553.52,-55.6875 L 1553.01,-55.607
 L 1552.5,-55.58 z
M 380.235,-20.3888 L 379.422,-20.5826 L 283.869,-54.2271 L 282.846,-54.7639 L 282.225,-55.3235 L 281.733,-56
 L 281.393,-56.7639 L 281.219,-57.5819 L 281.219,-58.4181 L 281.393,-59.2361 L 281.733,-60 L 282.225,-60.6765
 L 282.846,-61.2361 L 283.57,-61.6542 L 284.366,-61.9126 L 285.197,-62 L 380.75,-62 L 381.986,-61.8042
 L 382.75,-61.4641 L 383.427,-60.9726 L 383.986,-60.3511 L 384.404,-59.627 L 384.663,-58.8316 L 384.75,-58
 L 384.75,-24.3555 L 384.641,-23.4287 L 384.363,-22.64 L 383.928,-21.9262 L 383.353,-21.3186 L 382.665,-20.8437
 L 381.893,-20.5223 L 381.071,-20.3684 z
M 573.36,-20.3888 L 572.547,-20.5826 L 476.994,-54.2271 L 475.971,-54.7639 L 475.35,-55.3235 L 474.858,-56
 L 474.518,-56.7639 L 474.344,-57.5819 L 474.344,-58.4181 L 474.518,-59.2361 L 474.858,-60 L 475.35,-60.6765
 L 475.971,-61.2361 L 476.695,-61.6542 L 477.491,-61.9126 L 478.322,-62 L 573.875,-62 L 575.111,-61.8042
 L 575.875,-61.4641 L 576.552,-60.9726 L 577.111,-60.3511 L 577.529,-59.627 L 577.788,-58.8316 L 577.875,-58
 L 577.875,-24.3555 L 577.766,-23.4287 L 577.488,-22.64 L 577.053,-21.9262 L 576.478,-21.3186 L 575.79,-20.8437
 L 575.018,-20.5223 L 574.196,-20.3684 z
M 1371.23,-20.5223 L 1370.46,-20.8437 L 1369.77,-21.3186 L 1369.2,-21.9262 L 1368.76,-22.64 L 1368.48,-23.4287
 L 1368.38,-24.3555 L 1368.38,-58 L 1368.46,-58.8316 L 1368.72,-59.627 L 1369.14,-60.3511 L 1369.7,-60.9726
 L 1370.38,-61.4641 L 1371.14,-61.8042 L 1372.38,-62 L 1467.93,-62 L 1468.76,-61.9126 L 1469.55,-61.6542
 L 1470.28,-61.2361 L 1470.9,-60.6765 L 1471.39,-60 L 1471.73,-59.2361 L 1471.91,-58.4181 L 1471.91,-57.5819
 L 1471.73,-56.7639 L 1471.39,-56 L 1470.9,-55.3235 L 1470.28,-54.7639 L 1469.26,-54.2271 L 1373.7,-20.5826
 L 1372.89,-20.3888 L 1372.05,-20.3684 z
M 766.485,-20.3888 L 765.672,-20.5826 L 670.119,-54.2271 L 669.096,-54.7639 L 668.475,-55.3235 L 667.983,-56
 L 667.643,-56.7639 L 667.469,-57.5819 L 667.469,-58.4181 L 667.643,-59.2361 L 667.983,-60 L 668.475,-60.6765
 L 669.096,-61.2361 L 669.82,-61.6542 L 670.616,-61.9126 L 671.447,-62 L 767,-62 L 768.236,-61.8042
 L 769,-61.4641 L 769.677,-60.9726 L 770.236,-60.3511 L 770.654,-59.627 L 770.913,-58.8316 L 771,-58
 L 771,-24.3555 L 770.891,-23.4287 L 770.613,-22.64 L 770.178,-21.9262 L 769.603,-21.3186 L 768.915,-20.8437
 L 768.143,-20.5223 L 767.321,-20.3684 z
M 187.11,-20.3888 L 186.297,-20.5826 L 90.7438,-54.2271 L 89.7211,-54.7639 L 89.0997,-55.3235 L 88.6082,-56
 L 88.268,-56.7639 L 88.0942,-57.5819 L 88.0942,-58.4181 L 88.268,-59.2361 L 88.6082,-60 L 89.0997,-60.6765
 L 89.7211,-61.2361 L 90.4453,-61.6542 L 91.2406,-61.9126 L 92.0723,-62 L 187.625,-62 L 188.861,-61.8042
 L 189.625,-61.4641 L 190.302,-60.9726 L 190.861,-60.3511 L 191.279,-59.627 L 191.538,-58.8316 L 191.625,-58
 L 191.625,-24.3555 L 191.516,-23.4287 L 191.238,-22.64 L 190.803,-21.9262 L 190.228,-21.3186 L 189.54,-20.8437
 L 188.768,-20.5223 L 187.946,-20.3684 z
M 791.857,-20.5223 L 791.085,-20.8437 L 790.397,-21.3186 L 789.822,-21.9262 L 789.387,-22.64 L 789.109,-23.4287
 L 789,-24.3555 L 789,-58 L 789.087,-58.8316 L 789.346,-59.627 L 789.764,-60.3511 L 790.323,-60.9726
 L 791,-61.4641 L 791.764,-61.8042 L 793,-62 L 888.553,-62 L 889.384,-61.9126 L 890.18,-61.6542
 L 890.904,-61.2361 L 891.525,-60.6765 L 892.017,-60 L 892.357,-59.2361 L 892.531,-58.4181 L 892.531,-57.5819
 L 892.357,-56.7639 L 892.017,-56 L 891.525,-55.3235 L 890.904,-54.7639 L 889.881,-54.2271 L 794.328,-20.5826
 L 793.515,-20.3888 L 792.679,-20.3684 z
M 984.982,-20.5223 L 984.21,-20.8437 L 983.522,-21.3186 L 982.947,-21.9262 L 982.512,-22.64 L 982.234,-23.4287
 L 982.125,-24.3555 L 982.125,-58 L 982.212,-58.8316 L 982.471,-59.627 L 982.889,-60.3511 L 983.448,-60.9726
 L 984.125,-61.4641 L 984.889,-61.8042 L 986.125,-62 L 1081.68,-62 L 1082.51,-61.9126 L 1083.3,-61.6542
 L 1084.03,-61.2361 L 1084.65,-60.6765 L 1085.14,-60 L 1085.48,-59.2361 L 1085.66,-58.4181 L 1085.66,-57.5819
 L 1085.48,-56.7639 L 1085.14,-56 L 1084.65,-55.3235 L 1084.03,-54.7639 L 1083.01,-54.2271 L 987.453,-20.5826
 L 986.64,-20.3888 L 985.804,-20.3684 z
M 1178.11,-20.5223 L 1177.34,-20.8437 L 1176.65,-21.3186 L 1176.07,-21.9262 L 1175.64,-22.64 L 1175.36,-23.4287
 L 1175.25,-24.3555 L 1175.25,-58 L 1175.34,-58.8316 L 1175.6,-59.627 L 1176.01,-60.3511 L 1176.57,-60.9726
 L 1177.25,-61.4641 L 1178.01,-61.8042 L 1179.25,-62 L 1274.8,-62 L 1275.63,-61.9126 L 1276.43,-61.6542
 L 1277.15,-61.2361 L 1277.78,-60.6765 L 1278.27,-60 L 1278.61,-59.2361 L 1278.78,-58.4181 L 1278.78,-57.5819
 L 1278.61,-56.7639 L 1278.27,-56 L 1277.78,-55.3235 L 1277.15,-54.7639 L 1276.13,-54.2271 L 1180.58,-20.5826
 L 1179.76,-20.3888 L 1178.93,-20.3684 z
M 213.625,-18 L 212.389,-18.1958 L 211.625,-18.5359 L 210.948,-19.0274 L 210.389,-19.6489 L 209.971,-20.373
 L 209.712,-21.1684 L 209.625,-22 L 209.625,-55.6444 L 209.734,-56.5713 L 210.012,-57.36 L 210.447,-58.0738
 L 211.022,-58.6814 L 211.71,-59.1563 L 212.482,-59.4777 L 213.304,-59.6315 L 214.14,-59.6111 L 214.953,-59.4174
 L 310.506,-25.7729 L 311.529,-25.2361 L 312.15,-24.6765 L 312.642,-24 L 312.982,-23.2361 L 313.156,-22.4181
 L 313.156,-21.5819 L 312.982,-20.7639 L 312.642,-20 L 312.15,-19.3235 L 311.529,-18.7639 L 310.805,-18.3458
 L 310.009,-18.0874 L 309.178,-18 z
M 406.75,-18 L 405.514,-18.1958 L 404.75,-18.5359 L 404.073,-19.0274 L 403.514,-19.6489 L 403.096,-20.373
 L 402.837,-21.1684 L 402.75,-22 L 402.75,-55.6444 L 402.859,-56.5713 L 403.137,-57.36 L 403.572,-58.0738
 L 404.147,-58.6814 L 404.835,-59.1563 L 405.607,-59.4777 L 406.429,-59.6315 L 407.265,-59.6111 L 408.078,-59.4174
 L 503.631,-25.7729 L 504.654,-25.2361 L 505.275,-24.6765 L 505.767,-24 L 506.107,-23.2361 L 506.281,-22.4181
 L 506.281,-21.5819 L 506.107,-20.7639 L 505.767,-20 L 505.275,-19.3235 L 504.654,-18.7639 L 503.93,-18.3458
 L 503.134,-18.0874 L 502.303,-18 z
M 599.875,-18 L 598.639,-18.1958 L 597.875,-18.5359 L 597.198,-19.0274 L 596.639,-19.6489 L 596.221,-20.373
 L 595.962,-21.1684 L 595.875,-22 L 595.875,-55.6444 L 595.984,-56.5713 L 596.262,-57.36 L 596.697,-58.0738
 L 597.272,-58.6814 L 597.96,-59.1563 L 598.732,-59.4777 L 599.554,-59.6315 L 600.39,-59.6111 L 601.203,-59.4174
 L 696.756,-25.7729 L 697.779,-25.2361 L 698.4,-24.6765 L 698.892,-24 L 699.232,-23.2361 L 699.406,-22.4181
 L 699.406,-21.5819 L 699.232,-20.7639 L 698.892,-20 L 698.4,-19.3235 L 697.779,-18.7639 L 697.055,-18.3458
 L 696.259,-18.0874 L 695.428,-18 z
M 864.572,-18 L 863.741,-18.0874 L 862.945,-18.3458 L 862.221,-18.7639 L 861.6,-19.3235 L 861.108,-20
 L 860.768,-20.7639 L 860.594,-21.5819 L 860.594,-22.4181 L 860.768,-23.2361 L 861.108,-24 L 861.6,-24.6765
 L 862.221,-25.2361 L 863.244,-25.7729 L 958.797,-59.4174 L 959.61,-59.6111 L 960.446,-59.6315 L 961.268,-59.4777
 L 962.04,-59.1563 L 962.728,-58.6814 L 963.303,-58.0738 L 963.738,-57.36 L 964.016,-56.5713 L 964.125,-55.6444
 L 964.125,-22 L 964.038,-21.1684 L 963.779,-20.373 L 963.361,-19.6489 L 962.802,-19.0274 L 962.125,-18.5359
 L 961.361,-18.1958 L 960.125,-18 z
M 1057.7,-18 L 1056.87,-18.0874 L 1056.07,-18.3458 L 1055.35,-18.7639 L 1054.72,-19.3235 L 1054.23,-20
 L 1053.89,-20.7639 L 1053.72,-21.5819 L 1053.72,-22.4181 L 1053.89,-23.2361 L 1054.23,-24 L 1054.72,-24.6765
 L 1055.35,-25.2361 L 1056.37,-25.7729 L 1151.92,-59.4174 L 1152.74,-59.6111 L 1153.57,-59.6315 L 1154.39,-59.4777
 L 1155.16,-59.1563 L 1155.85,-58.6814 L 1156.43,-58.0738 L 1156.86,-57.36 L 1157.14,-56.5713 L 1157.25,-55.6444
 L 1157.25,-22 L 1157.16,-21.1684 L 1156.9,-20.373 L 1156.49,-19.6489 L 1155.93,-19.0274 L 1155.25,-18.5359
 L 1154.49,-18.1958 L 1153.25,-18 z
M 1250.82,-18 L 1249.99,-18.0874 L 1249.2,-18.3458 L 1248.47,-18.7639 L 1247.85,-19.3235 L 1247.36,-20
 L 1247.02,-20.7639 L 1246.84,-21.5819 L 1246.84,-22.4181 L 1247.02,-23.2361 L 1247.36,-24 L 1247.85,-24.6765
 L 1248.47,-25.2361 L 1249.49,-25.7729 L 1345.05,-59.4174 L 1345.86,-59.6111 L 1346.7,-59.6315 L 1347.52,-59.4777
 L 1348.29,-59.1563 L 1348.98,-58.6814 L 1349.55,-58.0738 L 1349.99,-57.36 L 1350.27,-56.5713 L 1350.38,-55.6444
 L 1350.38,-22 L 1350.29,-21.1684 L 1350.03,-20.373 L 1349.61,-19.6489 L 1349.05,-19.0274 L 1348.38,-18.5359
 L 1347.61,-18.1958 L 1346.38,-18 z
M 1443.95,-18 L 1443.12,-18.0874 L 1442.32,-18.3458 L 1441.6,-18.7639 L 1440.97,-19.3235 L 1440.48,-20
 L 1440.14,-20.7639 L 1439.97,-21.5819 L 1439.97,-22.4181 L 1440.14,-23.2361 L 1440.48,-24 L 1440.97,-24.6765
 L 1441.6,-25.2361 L 1442.62,-25.7729 L 1536.67,-58.8892 L 1537.49,-59.083 L 1538.32,-59.1034 L 1539.14,-58.9495
 L 1539.91,-58.6281 L 1540.6,-58.1533 L 1541.18,-57.5456 L 1541.61,-56.8319 L 1541.89,-56.0431 L 1542,-55.1163
 L 1542,-22 L 1541.91,-21.1684 L 1541.65,-20.373 L 1541.24,-19.6489 L 1540.68,-19.0274 L 1540,-18.5359
 L 1539.24,-18.1958 L 1538,-18 z
M 22,-18 L 20.7639,-18.1958 L 20,-18.5359 L 19.3235,-19.0274 L 18.7639,-19.6489 L 18.3458,-20.373
 L 18.0874,-21.1684 L 18,-22 L 18,-55.1163 L 18.1089,-56.0431 L 18.3866,-56.8319 L 18.8222,-57.5456
 L 19.3968,-58.1533 L 20.0851,-58.6281 L 20.8571,-58.9495 L 21.679,-59.1034 L 22.515,-59.083 L 23.3285,-58.8892
 L 117.381,-25.7729 L 118.404,-25.2361 L 119.025,-24.6765 L 119.517,-24 L 119.857,-23.2361 L 120.031,-22.4181
 L 120.031,-21.5819 L 119.857,-20.7639 L 119.517,-20 L 119.025,-19.3235 L 118.404,-18.7639 L 117.68,-18.3458
 L 116.884,-18.0874 L 116.053,-18 z
" stroke="black" fill="lightgray" stroke-width="0.5"/>
</svg>
