<?xml version="1.0" standalone="no"?>
<!DOCTYPE svg PUBLIC "-//W3C//DTD SVG 1.1//EN" "http://www.w3.org/Graphics/SVG/1.1/DTD/svg11.dtd">
<svg width="1458mm" height="80mm" viewBox="0 -80 1458 80" xmlns="http://www.w3.org/2000/svg" version="1.1">
<title>OpenSCAD Model</title>
<path d="
M 1458,-80 L 0,-80 L 0,-0 L 4.95,-0 L 4.95,-6 L 5.00572,-6.53017
 L 5.17046,-7.03717 L 5.437,-7.49884 L 5.79372,-7.895 L 6.22499,-8.20836 L 6.71201,-8.42519 L 7.23344,-8.53603
 L 7.76654,-8.53603 L 8.28798,-8.42519 L 8.77499,-8.20836 L 9.20627,-7.895 L 9.56299,-7.49884 L 9.82953,-7.03717
 L 9.99426,-6.53017 L 10.05,-6 L 10.05,-0 L 185.325,-0 L 185.325,-6 L 185.381,-6.53017
 L 185.545,-7.03717 L 185.812,-7.49884 L 186.169,-7.895 L 186.6,-8.20836 L 187.087,-8.42519 L 187.608,-8.53603
 L 188.142,-8.53603 L 188.663,-8.42519 L 189.15,-8.20836 L 189.581,-7.895 L 189.938,-7.49884 L 190.205,-7.03717
 L 190.369,-6.53017 L 190.425,-6 L 190.425,-0 L 365.7,-0 L 365.7,-6 L 365.756,-6.53017
 L 365.92,-7.03717 L 366.187,-7.49884 L 366.544,-7.895 L 366.975,-8.20836 L 367.462,-8.42519 L 367.983,-8.53603
 L 368.517,-8.53603 L 369.038,-8.42519 L 369.525,-8.20836 L 369.956,-7.895 L 370.313,-7.49884 L 370.58,-7.03717
 L 370.744,-6.53017 L 370.8,-6 L 370.8,-0 L 546.075,-0 L 546.075,-6 L 546.131,-6.53017
 L 546.295,-7.03717 L 546.562,-7.49884 L 546.919,-7.895 L 547.35,-8.20836 L 547.837,-8.42519 L 548.358,-8.53603
 L 548.892,-8.53603 L 549.413,-8.42519 L 549.9,-8.20836 L 550.331,-7.895 L 550.688,-7.49884 L 550.955,-7.03717
 L 551.119,-6.53017 L 551.175,-6 L 551.175,-0 L 726.45,-0 L 726.45,-6 L 726.506,-6.53017
 L 726.67,-7.03717 L 726.937,-7.49884 L 727.294,-7.895 L 727.725,-8.20836 L 728.212,-8.42519 L 728.733,-8.53603
 L 729.267,-8.53603 L 729.788,-8.42519 L 730.275,-8.20836 L 730.706,-7.895 L 731.063,-7.49884 L 731.33,-7.03717
 L 731.494,-6.53017 L 731.55,-6 L 731.55,-0 L 906.825,-0 L 906.825,-6 L 906.881,-6.53017
 L 907.045,-7.03717 L 907.312,-7.49884 L 907.669,-7.895 L 908.1,-8.20836 L 908.587,-8.42519 L 909.108,-8.53603
 L 909.642,-8.53603 L 910.163,-8.42519 L 910.65,-8.20836 L 911.081,-7.895 L 911.438,-7.49884 L 911.705,-7.03717
 L 911.869,-6.53017 L 911.925,-6 L 911.925,-0 L 1087.2,-0 L 1087.2,-6 L 1087.26,-6.53017
 L 1087.42,-7.03717 L 1087.69,-7.49884 L 1088.04,-7.895 L 1088.47,-8.20836 L 1088.96,-8.42519 L 1089.48,-8.53603
 L 1090.02,-8.53603 L 1090.54,-8.42519 L 1091.02,-8.20836 L 1091.46,-7.895 L 1091.81,-7.49884 L 1092.08,-7.03717
 L 1092.24,-6.53017 L 1092.3,-6 L 1092.3,-0 L 1267.57,-0 L 1267.57,-6 L 1267.63,-6.53017
 L 1267.8,-7.03717 L 1268.06,-7.49884 L 1268.42,-7.895 L 1268.85,-8.20836 L 1269.34,-8.42519 L 1269.86,-8.53603
 L 1270.39,-8.53603 L 1270.91,-8.42519 L 1271.4,-8.20836 L 1271.83,-7.895 L 1272.19,-7.49884 L 1272.45,-7.03717
 L 1272.62,-6.53017 L 1272.67,-6 L 1272.67,-0 L 1447.95,-0 L 1447.95,-6 L 1448.01,-6.53017
 L 1448.17,-7.03717 L 1448.44,-7.49884 L 1448.79,-7.895 L 1449.22,-8.20836 L 1449.71,-8.42519 L 1450.23,-8.53603
 L 1450.77,-8.53603 L 1451.29,-8.42519 L 1451.77,-8.20836 L 1452.21,-7.895 L 1452.56,-7.49884 L 1452.83,-7.03717
 L 1452.99,-6.53017 L 1453.05,-6 L 1453.05,-0 L 1458,-0 z
M 187.361,-55.607 L 186.852,-55.6875 L 186.355,-55.8208 L 185.874,-56.0054 L 185.415,-56.2392 L 184.983,-56.5196
 L 184.583,-56.8437 L 184.219,-57.2079 L 183.895,-57.6081 L 183.614,-58.04 L 183.38,-58.4989 L 183.196,-58.9796
 L 183.063,-59.4771 L 182.982,-59.9857 L 182.955,-60.5 L 182.982,-61.0143 L 183.063,-61.5229 L 183.196,-62.0204
 L 183.38,-62.5011 L 183.614,-62.96 L 183.895,-63.3919 L 184.219,-63.7921 L 184.583,-64.1563 L 184.983,-64.4804
 L 185.325,-64.7024 L 185.325,-74 L 185.381,-74.5302 L 185.545,-75.0372 L 185.812,-75.4988 L 186.169,-75.895
 L 186.6,-76.2084 L 187.087,-76.4252 L 187.608,-76.536 L 188.142,-76.536 L 188.663,-76.4252 L 189.15,-76.2084
 L 189.581,-75.895 L 189.938,-75.4988 L 190.205,-75.0372 L 190.369,-74.5302 L 190.425,-74 L 190.425,-64.7024
 L 190.767,-64.4804 L 191.167,-64.1563 L 191.531,-63.7921 L 191.855,-63.3919 L 192.136,-62.96 L 192.37,-62.5011
 L 192.554,-62.0204 L 192.687,-61.5229 L 192.768,-61.0143 L 192.795,-60.5 L 192.768,-59.9857 L 192.687,-59.4771
 L 192.554,-58.9796 L 192.37,-58.4989 L 192.136,-58.04 L 191.855,-57.6081 L 191.531,-57.2079 L 191.167,-56.8437
 L 190.767,-56.5196 L 190.335,-56.2392 L 189.876,-56.0054 L 189.395,-55.8208 L 188.898,-55.6875 L 188.389,-55.607
 L 187.875,-55.58 z
M 1089.24,-55.607 L 1088.73,-55.6875 L 1088.23,-55.8208 L 1087.75,-56.0054 L 1087.29,-56.2392 L 1086.86,-56.5196
 L 1086.46,-56.8437 L 1086.09,-57.2079 L 1085.77,-57.6081 L 1085.49,-58.04 L 1085.26,-58.4989 L 1085.07,-58.9796
 L 1084.94,-59.4771 L 1084.86,-59.9857 L 1084.83,-60.5 L 1084.86,-61.0143 L 1084.94,-61.5229 L 1085.07,-62.0204
 L 1085.26,-62.5011 L 1085.49,-62.96 L 1085.77,-63.3919 L 1086.09,-63.7921 L 1086.46,-64.1563 L 1086.86,-64.4804
 L 1087.2,-64.7024 L 1087.2,-74 L 1087.26,-74.5302 L 1087.42,-75.0372 L 1087.69,-75.4988 L 1088.04,-75.895
 L 1088.48,-76.2084 L 1088.96,-76.4252 L 1089.48,-76.536 L 1090.02,-76.536 L 1090.54,-76.4252 L 1091.02,-76.2084
 L 1091.46,-75.895 L 1091.81,-75.4988 L 1092.08,-75.0372 L 1092.24,-74.5302 L 1092.3,-74 L 1092.3,-64.7024
 L 1092.64,-64.4804 L 1093.04,-64.1563 L 1093.41,-63.7921 L 1093.73,-63.3919 L 1094.01,-62.96 L 1094.24,-62.5011
 L 1094.43,-62.0204 L 1094.56,-61.5229 L 1094.64,-61.0143 L 1094.67,-60.5 L 1094.64,-59.9857 L 1094.56,-59.4771
 L 1094.43,-58.9796 L 1094.24,-58.4989 L 1094.01,-58.04 L 1093.73,-57.6081 L 1093.41,-57.2079 L 1093.04,-56.8437
 L 1092.64,-56.5196 L 1092.21,-56.2392 L 1091.75,-56.0054 L 1091.27,-55.8208 L 1090.77,-55.6875 L 1090.26,-55.607
 L 1089.75,-55.58 z
M 908.861,-55.607 L 908.352,-55.6875 L 907.855,-55.8208 L 907.374,-56.0054 L 906.915,-56.2392 L 906.483,-56.5196
 L 906.083,-56.8437 L 905.719,-57.2079 L 905.395,-57.6081 L 905.114,-58.04 L 904.88,-58.4989 L 904.696,-58.9796
 L 904.563,-59.4771 L 904.482,-59.9857 L 904.455,-60.5 L 904.482,-61.0143 L 904.563,-61.5229 L 904.696,-62.0204
 L 904.88,-62.5011 L 905.114,-62.96 L 905.395,-63.3919 L 905.719,-63.7921 L 906.083,-64.1563 L 906.483,-64.4804
 L 906.825,-64.7024 L 906.825,-74 L 906.881,-74.5302 L 907.045,-75.0372 L 907.312,-75.4988 L 907.669,-75.895
 L 908.1,-76.2084 L 908.587,-76.4252 L 909.108,-76.536 L 909.642,-76.536 L 910.163,-76.4252 L 910.65,-76.2084
 L 911.081,-75.895 L 911.438,-75.4988 L 911.705,-75.0372 L 911.869,-74.5302 L 911.925,-74 L 911.925,-64.7024
 L 912.267,-64.4804 L 912.667,-64.1563 L 913.031,-63.7921 L 913.355,-63.3919 L 913.636,-62.96 L 913.87,-62.5011
 L 914.054,-62.0204 L 914.187,-61.5229 L 914.268,-61.0143 L 914.295,-60.5 L 914.268,-59.9857 L 914.187,-59.4771
 L 914.054,-58.9796 L 913.87,-58.4989 L 913.636,-58.04 L 913.355,-57.6081 L 913.031,-57.2079 L 912.667,-56.8437
 L 912.267,-56.5196 L 911.835,-56.2392 L 911.376,-56.0054 L 910.895,-55.8208 L 910.398,-55.6875 L 909.889,-55.607
 L 909.375,-55.58 z
M 6.98573,-55.607 L 6.47708,-55.6875 L 5.97964,-55.8208 L 5.49887,-56.0054 L 5.04001,-56.2392 L 4.60811,-56.5196
 L 4.20789,-56.8437 L 3.84373,-57.2079 L 3.51964,-57.6081 L 3.23917,-58.04 L 3.00537,-58.4989 L 2.82082,-58.9796
 L 2.68752,-59.4771 L 2.60696,-59.9857 L 2.58,-60.5 L 2.60696,-61.0143 L 2.68752,-61.5229 L 2.82082,-62.0204
 L 3.00537,-62.5011 L 3.23917,-62.96 L 3.51964,-63.3919 L 3.84373,-63.7921 L 4.20789,-64.1563 L 4.60811,-64.4804
 L 4.95001,-64.7024 L 4.95001,-74 L 5.00574,-74.5302 L 5.17047,-75.0372 L 5.43701,-75.4988 L 5.79373,-75.895
 L 6.22501,-76.2084 L 6.71202,-76.4252 L 7.23346,-76.536 L 7.76654,-76.536 L 8.28798,-76.4252 L 8.77499,-76.2084
 L 9.20627,-75.895 L 9.56299,-75.4988 L 9.82953,-75.0372 L 9.99426,-74.5302 L 10.05,-74 L 10.05,-64.7024
 L 10.3919,-64.4804 L 10.7921,-64.1563 L 11.1563,-63.7921 L 11.4804,-63.3919 L 11.7608,-62.96 L 11.9946,-62.5011
 L 12.1792,-62.0204 L 12.3125,-61.5229 L 12.393,-61.0143 L 12.42,-60.5 L 12.393,-59.9857 L 12.3125,-59.4771
 L 12.1792,-58.9796 L 11.9946,-58.4989 L 11.7608,-58.04 L 11.4804,-57.6081 L 11.1563,-57.2079 L 10.7921,-56.8437
 L 10.3919,-56.5196 L 9.95999,-56.2392 L 9.50113,-56.0054 L 9.02036,-55.8208 L 8.52292,-55.6875 L 8.01427,-55.607
 L 7.5,-55.58 z
M 728.486,-55.607 L 727.977,-55.6875 L 727.48,-55.8208 L 726.999,-56.0054 L 726.54,-56.2392 L 726.108,-56.5196
 L 725.708,-56.8437 L 725.344,-57.2079 L 725.02,-57.6081 L 724.739,-58.04 L 724.505,-58.4989 L 724.321,-58.9796
 L 724.188,-59.4771 L 724.107,-59.9857 L 724.08,-60.5 L 724.107,-61.0143 L 724.188,-61.5229 L 724.321,-62.0204
 L 724.505,-62.5011 L 724.739,-62.96 L 725.02,-63.3919 L 725.344,-63.7921 L 725.708,-64.1563 L 726.108,-64.4804
 L 726.45,-64.7024 L 726.45,-74 L 726.506,-74.5302 L 726.67,-75.0372 L 726.937,-75.4988 L 727.294,-75.895
 L 727.725,-76.2084 L 728.212,-76.4252 L 728.733,-76.536 L 729.267,-76.536 L 729.788,-76.4252 L 730.275,-76.2084
 L 730.706,-75.895 L 731.063,-75.4988 L 731.33,-75.0372 L 731.494,-74.5302 L 731.55,-74 L 731.55,-64.7024
 L 731.892,-64.4804 L 732.292,-64.1563 L 732.656,-63.7921 L 732.98,-63.3919 L 733.261,-62.96 L 733.495,-62.5011
 L 733.679,-62.0204 L 733.812,-61.5229 L 733.893,-61.0143 L 733.92,-60.5 L 733.893,-59.9857 L 733.812,-59.4771
 L 733.679,-58.9796 L 733.495,-58.4989 L 733.261,-58.04 L 732.98,-57.6081 L 732.656,-57.2079 L 732.292,-56.8437
 L 731.892,-56.5196 L 731.46,-56.2392 L 731.001,-56.0054 L 730.52,-55.8208 L 730.023,-55.6875 L 729.514,-55.607
 L 729,-55.58 z
M 1269.61,-55.607 L 1269.1,-55.6875 L 1268.6,-55.8208 L 1268.12,-56.0054 L 1267.67,-56.2392 L 1267.23,-56.5196
 L 1266.83,-56.8437 L 1266.47,-57.2079 L 1266.14,-57.6081 L 1265.86,-58.04 L 1265.63,-58.4989 L 1265.45,-58.9796
 L 1265.31,-59.4771 L 1265.23,-59.9857 L 1265.21,-60.5 L 1265.23,-61.0143 L 1265.31,-61.5229 L 1265.45,-62.0204
 L 1265.63,-62.5011 L 1265.86,-62.96 L 1266.14,-63.3919 L 1266.47,-63.7921 L 1266.83,-64.1563 L 1267.23,-64.4804
 L 1267.58,-64.7024 L 1267.58,-74 L 1267.63,-74.5302 L 1267.8,-75.0372 L 1268.06,-75.4988 L 1268.42,-75.895
 L 1268.85,-76.2084 L 1269.34,-76.4252 L 1269.86,-76.536 L 1270.39,-76.536 L 1270.91,-76.4252 L 1271.4,-76.2084
 L 1271.83,-75.895 L 1272.19,-75.4988 L 1272.45,-75.0372 L 1272.62,-74.5302 L 1272.67,-74 L 1272.67,-64.7024
 L 1273.02,-64.4804 L 1273.42,-64.1563 L 1273.78,-63.7921 L 1274.11,-63.3919 L 1274.39,-62.96 L 1274.62,-62.5011
 L 1274.8,-62.0204 L 1274.94,-61.5229 L 1275.02,-61.0143 L 1275.04,-60.5 L 1275.02,-59.9857 L 1274.94,-59.4771
 L 1274.8,-58.9796 L 1274.62,-58.4989 L 1274.39,-58.04 L 1274.11,-57.6081 L 1273.78,-57.2079 L 1273.42,-56.8437
 L 1273.02,-56.5196 L 1272.58,-56.2392 L 1272.13,-56.0054 L 1271.65,-55.8208 L 1271.15,-55.6875 L 1270.64,-55.607
 L 1270.12,-55.58 z
M 548.111,-55.607 L 547.602,-55.6875 L 547.105,-55.8208 L 546.624,-56.0054 L 546.165,-56.2392 L 545.733,-56.5196
 L 545.333,-56.8437 L 544.969,-57.2079 L 544.645,-57.6081 L 544.364,-58.04 L 544.13,-58.4989 L 543.946,-58.9796
 L 543.813,-59.4771 L 543.732,-59.9857 L 543.705,-60.5 L 543.732,-61.0143 L 543.813,-61.5229 L 543.946,-62.0204
 L 544.13,-62.5011 L 544.364,-62.96 L 544.645,-63.3919 L 544.969,-63.7921 L 545.333,-64.1563 L 545.733,-64.4804
 L 546.075,-64.7024 L 546.075,-74 L 546.131,-74.5302 L 546.295,-75.0372 L 546.562,-75.4988 L 546.919,-75.895
 L 547.35,-76.2084 L 547.837,-76.4252 L 548.358,-76.536 L 548.892,-76.536 L 549.413,-76.4252 L 549.9,-76.2084
 L 550.331,-75.895 L 550.688,-75.4988 L 550.955,-75.0372 L 551.119,-74.5302 L 551.175,-74 L 551.175,-64.7024
 L 551.517,-64.4804 L 551.917,-64.1563 L 552.281,-63.7921 L 552.605,-63.3919 L 552.886,-62.96 L 553.12,-62.5011
 L 553.304,-62.0204 L 553.437,-61.5229 L 553.518,-61.0143 L 553.545,-60.5 L 553.518,-59.9857 L 553.437,-59.4771
 L 553.304,-58.9796 L 553.12,-58.4989 L 552.886,-58.04 L 552.605,-57.6081 L 552.281,-57.2079 L 551.917,-56.8437
 L 551.517,-56.5196 L 551.085,-56.2392 L 550.626,-56.0054 L 550.145,-55.8208 L 549.648,-55.6875 L 549.139,-55.607
 L 548.625,-55.58 z
M 367.736,-55.607 L 367.227,-55.6875 L 366.73,-55.8208 L 366.249,-56.0054 L 365.79,-56.2392 L 365.358,-56.5196
 L 364.958,-56.8437 L 364.594,-57.2079 L 364.27,-57.6081 L 363.989,-58.04 L 363.755,-58.4989 L 363.571,-58.9796
 L 363.438,-59.4771 L 363.357,-59.9857 L 363.33,-60.5 L 363.357,-61.0143 L 363.438,-61.5229 L 363.571,-62.0204
 L 363.755,-62.5011 L 363.989,-62.96 L 364.27,-63.3919 L 364.594,-63.7921 L 364.958,-64.1563 L 365.358,-64.4804
 L 365.7,-64.7024 L 365.7,-74 L 365.756,-74.5302 L 365.92,-75.0372 L 366.187,-75.4988 L 366.544,-75.895
 L 366.975,-76.2084 L 367.462,-76.4252 L 367.983,-76.536 L 368.517,-76.536 L 369.038,-76.4252 L 369.525,-76.2084
 L 369.956,-75.895 L 370.313,-75.4988 L 370.58,-75.0372 L 370.744,-74.5302 L 370.8,-74 L 370.8,-64.7024
 L 371.142,-64.4804 L 371.542,-64.1563 L 371.906,-63.7921 L 372.23,-63.3919 L 372.511,-62.96 L 372.745,-62.5011
 L 372.929,-62.0204 L 373.062,-61.5229 L 373.143,-61.0143 L 373.17,-60.5 L 373.143,-59.9857 L 373.062,-59.4771
 L 372.929,-58.9796 L 372.745,-58.4989 L 372.511,-58.04 L 372.23,-57.6081 L 371.906,-57.2079 L 371.542,-56.8437
 L 371.142,-56.5196 L 370.71,-56.2392 L 370.251,-56.0054 L 369.77,-55.8208 L 369.273,-55.6875 L 368.764,-55.607
 L 368.25,-55.58 z
M 1449.99,-55.607 L 1449.48,-55.6875 L 1448.98,-55.8208 L 1448.5,-56.0054 L 1448.04,-56.2392 L 1447.61,-56.5196
 L 1447.21,-56.8437 L 1446.84,-57.2079 L 1446.52,-57.6081 L 1446.24,-58.04 L 1446.01,-58.4989 L 1445.82,-58.9796
 L 1445.69,-59.4771 L 1445.61,-59.9857 L 1445.58,-60.5 L 1445.61,-61.0143 L 1445.69,-61.5229 L 1445.82,-62.0204
 L 1446.01,-62.5011 L 1446.24,-62.96 L 1446.52,-63.3919 L 1446.84,-63.7921 L 1447.21,-64.1563 L 1447.61,-64.4804
 L 1447.95,-64.7024 L 1447.95,-74 L 1448.01,-74.5302 L 1448.17,-75.0372 L 1448.44,-75.4988 L 1448.79,-75.895
 L 1449.23,-76.2084 L 1449.71,-76.4252 L 1450.23,-76.536 L 1450.77,-76.536 L 1451.29,-76.4252 L 1451.77,-76.2084
 L 1452.21,-75.895 L 1452.56,-75.4988 L 1452.83,-75.0372 L 1452.99,-74.5302 L 1453.05,-74 L 1453.05,-64.7024
 L 1453.39,-64.4804 L 1453.79,-64.1563 L 1454.16,-63.7921 L 1454.48,-63.3919 L 1454.76,-62.96 L 1454.99,-62.5011
 L 1455.18,-62.0204 L 1455.31,-61.5229 L 1455.39,-61.0143 L 1455.42,-60.5 L 1455.39,-59.9857 L 1455.31,-59.4771
 L 1455.18,-58.9796 L 1454.99,-58.4989 L 1454.76,-58.04 L 1454.48,-57.6081 L 1454.16,-57.2079 L 1453.79,-56.8437
 L 1453.39,-56.5196 L 1452.96,-56.2392 L 1452.5,-56.0054 L 1452.02,-55.8208 L 1451.52,-55.6875 L 1451.01,-55.607
 L 1450.5,-55.58 z
M 354.648,-20.8246 L 353.839,-21.0362 L 265.718,-54.2571 L 264.778,-54.7639 L 264.156,-55.3235 L 263.665,-56
 L 263.325,-56.7639 L 263.151,-57.5819 L 263.151,-58.4181 L 263.325,-59.2361 L 263.665,-60 L 264.156,-60.6765
 L 264.778,-61.2361 L 265.502,-61.6542 L 266.297,-61.9126 L 267.129,-62 L 355.25,-62 L 356.486,-61.8042
 L 357.25,-61.4641 L 357.927,-60.9726 L 358.486,-60.3511 L 358.904,-59.627 L 359.163,-58.8316 L 359.25,-58
 L 359.25,-24.7791 L 359.12,-23.767 L 358.825,-22.9845 L 358.374,-22.2805 L 357.786,-21.6857 L 357.087,-21.226
 L 356.308,-20.9217 L 355.483,-20.7859 z
M 535.023,-20.8246 L 534.214,-21.0362 L 446.093,-54.2571 L 445.153,-54.7639 L 444.531,-55.3235 L 444.04,-56
 L 443.7,-56.7639 L 443.526,-57.5819 L 443.526,-58.4181 L 443.7,-59.2361 L 444.04,-60 L 444.531,-60.6765
 L 445.153,-61.2361 L 445.877,-61.6542 L 446.672,-61.9126 L 447.504,-62 L 535.625,-62 L 536.861,-61.8042
 L 537.625,-61.4641 L 538.302,-60.9726 L 538.861,-60.3511 L 539.279,-59.627 L 539.538,-58.8316 L 539.625,-58
 L 539.625,-24.7791 L 539.495,-23.767 L 539.2,-22.9845 L 538.749,-22.2805 L 538.161,-21.6857 L 537.462,-21.226
 L 536.683,-20.9217 L 535.858,-20.7859 z
M 1282.07,-20.9217 L 1281.29,-21.226 L 1280.59,-21.6857 L 1280,-22.2805 L 1279.55,-22.9845 L 1279.26,-23.767
 L 1279.12,-24.7791 L 1279.12,-58 L 1279.21,-58.8316 L 1279.47,-59.627 L 1279.89,-60.3511 L 1280.45,-60.9726
 L 1281.12,-61.4641 L 1281.89,-61.8042 L 1283.12,-62 L 1371.25,-62 L 1372.08,-61.9126 L 1372.87,-61.6542
 L 1373.6,-61.2361 L 1374.22,-60.6765 L 1374.71,-60 L 1375.05,-59.2361 L 1375.22,-58.4181 L 1375.22,-57.5819
 L 1375.05,-56.7639 L 1374.71,-56 L 1374.22,-55.3235 L 1373.6,-54.7639 L 1372.66,-54.2571 L 1284.54,-21.0362
 L 1283.73,-20.8246 L 1282.89,-20.7859 z
M 715.398,-20.8246 L 714.589,-21.0362 L 626.468,-54.2571 L 625.528,-54.7639 L 624.906,-55.3235 L 624.415,-56
 L 624.075,-56.7639 L 623.901,-57.5819 L 623.901,-58.4181 L 624.075,-59.2361 L 624.415,-60 L 624.906,-60.6765
 L 625.528,-61.2361 L 626.252,-61.6542 L 627.047,-61.9126 L 627.879,-62 L 716,-62 L 717.236,-61.8042
 L 718,-61.4641 L 718.677,-60.9726 L 719.236,-60.3511 L 719.654,-59.627 L 719.913,-58.8316 L 720,-58
 L 720,-24.7791 L 719.87,-23.767 L 719.575,-22.9845 L 719.124,-22.2805 L 718.536,-21.6857 L 717.837,-21.226
 L 717.058,-20.9217 L 716.233,-20.7859 z
M 174.273,-20.8246 L 173.464,-21.0362 L 85.343,-54.2571 L 84.4029,-54.7639 L 83.7815,-55.3235 L 83.29,-56
 L 82.9498,-56.7639 L 82.776,-57.5819 L 82.776,-58.4181 L 82.9498,-59.2361 L 83.29,-60 L 83.7815,-60.6765
 L 84.4029,-61.2361 L 85.1271,-61.6542 L 85.9224,-61.9126 L 86.7541,-62 L 174.875,-62 L 176.111,-61.8042
 L 176.875,-61.4641 L 177.552,-60.9726 L 178.111,-60.3511 L 178.529,-59.627 L 178.788,-58.8316 L 178.875,-58
 L 178.875,-24.7791 L 178.745,-23.767 L 178.45,-22.9845 L 177.999,-22.2805 L 177.411,-21.6857 L 176.712,-21.226
 L 175.933,-20.9217 L 175.108,-20.7859 z
M 740.942,-20.9217 L 740.163,-21.226 L 739.464,-21.6857 L 738.876,-22.2805 L 738.425,-22.9845 L 738.13,-23.767
 L 738,-24.7791 L 738,-58 L 738.087,-58.8316 L 738.346,-59.627 L 738.764,-60.3511 L 739.323,-60.9726
 L 740,-61.4641 L 740.764,-61.8042 L 742,-62 L 830.121,-62 L 830.953,-61.9126 L 831.748,-61.6542
 L 832.472,-61.2361 L 833.094,-60.6765 L 833.585,-60 L 833.925,-59.2361 L 834.099,-58.4181 L 834.099,-57.5819
 L 833.925,-56.7639 L 833.585,-56 L 833.094,-55.3235 L 832.472,-54.7639 L 831.532,-54.2571 L 743.411,-21.0362
 L 742.602,-20.8246 L 741.767,-20.7859 z
M 921.317,-20.9217 L 920.538,-21.226 L 919.839,-21.6857 L 919.251,-22.2805 L 918.8,-22.9845 L 918.505,-23.767
 L 918.375,-24.7791 L 918.375,-58 L 918.462,-58.8316 L 918.721,-59.627 L 919.139,-60.3511 L 919.698,-60.9726
 L 920.375,-61.4641 L 921.139,-61.8042 L 922.375,-62 L 1010.5,-62 L 1011.33,-61.9126 L 1012.12,-61.6542
 L 1012.85,-61.2361 L 1013.47,-60.6765 L 1013.96,-60 L 1014.3,-59.2361 L 1014.47,-58.4181 L 1014.47,-57.5819
 L 1014.3,-56.7639 L 1013.96,-56 L 1013.47,-55.3235 L 1012.85,-54.7639 L 1011.91,-54.2571 L 923.786,-21.0362
 L 922.977,-20.8246 L 922.142,-20.7859 z
M 1101.69,-20.9217 L 1100.91,-21.226 L 1100.21,-21.6857 L 1099.63,-22.2805 L 1099.18,-22.9845 L 1098.88,-23.767
 L 1098.75,-24.7791 L 1098.75,-58 L 1098.84,-58.8316 L 1099.1,-59.627 L 1099.51,-60.3511 L 1100.07,-60.9726
 L 1100.75,-61.4641 L 1101.51,-61.8042 L 1102.75,-62 L 1190.87,-62 L 1191.7,-61.9126 L 1192.5,-61.6542
 L 1193.22,-61.2361 L 1193.84,-60.6765 L 1194.34,-60 L 1194.68,-59.2361 L 1194.85,-58.4181 L 1194.85,-57.5819
 L 1194.68,-56.7639 L 1194.34,-56 L 1193.84,-55.3235 L 1193.22,-54.7639 L 1192.28,-54.2571 L 1104.16,-21.0362
 L 1103.35,-20.8246 L 1102.52,-20.7859 z
M 200.875,-18 L 199.639,-18.1958 L 198.875,-18.5359 L 198.198,-19.0274 L 197.639,-19.6489 L 197.221,-20.373
 L 196.962,-21.1684 L 196.875,-22 L 196.875,-55.2209 L 197.005,-56.233 L 197.3,-57.0154 L 197.751,-57.7195
 L 198.339,-58.3143 L 199.038,-58.774 L 199.817,-59.0783 L 200.642,-59.2141 L 201.477,-59.1753 L 202.286,-58.9638
 L 290.407,-25.7429 L 291.347,-25.2361 L 291.968,-24.6765 L 292.46,-24 L 292.8,-23.2361 L 292.974,-22.4181
 L 292.974,-21.5819 L 292.8,-20.7639 L 292.46,-20 L 291.968,-19.3235 L 291.347,-18.7639 L 290.623,-18.3458
 L 289.828,-18.0874 L 288.996,-18 z
M 381.25,-18 L 380.014,-18.1958 L 379.25,-18.5359 L 378.573,-19.0274 L 378.014,-19.6489 L 377.596,-20.373
 L 377.337,-21.1684 L 377.25,-22 L 377.25,-55.2209 L 377.38,-56.233 L 377.675,-57.0154 L 378.126,-57.7195
 L 378.714,-58.3143 L 379.413,-58.774 L 380.192,-59.0783 L 381.017,-59.2141 L 381.852,-59.1753 L 382.661,-58.9638
 L 470.782,-25.7429 L 471.722,-25.2361 L 472.343,-24.6765 L 472.835,-24 L 473.175,-23.2361 L 473.349,-22.4181
 L 473.349,-21.5819 L 473.175,-20.7639 L 472.835,-20 L 472.343,-19.3235 L 471.722,-18.7639 L 470.998,-18.3458
 L 470.203,-18.0874 L 469.371,-18 z
M 561.625,-18 L 560.389,-18.1958 L 559.625,-18.5359 L 558.948,-19.0274 L 558.389,-19.6489 L 557.971,-20.373
 L 557.712,-21.1684 L 557.625,-22 L 557.625,-55.2209 L 557.755,-56.233 L 558.05,-57.0154 L 558.501,-57.7195
 L 559.089,-58.3143 L 559.788,-58.774 L 560.567,-59.0783 L 561.392,-59.2141 L 562.227,-59.1753 L 563.036,-58.9638
 L 651.157,-25.7429 L 652.097,-25.2361 L 652.718,-24.6765 L 653.21,-24 L 653.55,-23.2361 L 653.724,-22.4181
 L 653.724,-21.5819 L 653.55,-20.7639 L 653.21,-20 L 652.718,-19.3235 L 652.097,-18.7639 L 651.373,-18.3458
 L 650.578,-18.0874 L 649.746,-18 z
M 808.254,-18 L 807.422,-18.0874 L 806.627,-18.3458 L 805.903,-18.7639 L 805.282,-19.3235 L 804.79,-20
 L 804.45,-20.7639 L 804.276,-21.5819 L 804.276,-22.4181 L 804.45,-23.2361 L 804.79,-24 L 805.282,-24.6765
 L 805.903,-25.2361 L 806.843,-25.7429 L 894.964,-58.9638 L 895.773,-59.1753 L 896.608,-59.2141 L 897.433,-59.0783
 L 898.212,-58.774 L 898.911,-58.3143 L 899.499,-57.7195 L 899.95,-57.0154 L 900.245,-56.233 L 900.375,-55.2209
 L 900.375,-22 L 900.288,-21.1684 L 900.029,-20.373 L 899.611,-19.6489 L 899.052,-19.0274 L 898.375,-18.5359
 L 897.611,-18.1958 L 896.375,-18 z
M 988.629,-18 L 987.797,-18.0874 L 987.002,-18.3458 L 986.278,-18.7639 L 985.657,-19.3235 L 985.165,-20
 L 984.825,-20.7639 L 984.651,-21.5819 L 984.651,-22.4181 L 984.825,-23.2361 L 985.165,-24 L 985.657,-24.6765
 L 986.278,-25.2361 L 987.218,-25.7429 L 1075.34,-58.9638 L 1076.15,-59.1753 L 1076.98,-59.2141 L 1077.81,-59.0783
 L 1078.59,-58.774 L 1079.29,-58.3143 L 1079.87,-57.7195 L 1080.32,-57.0154 L 1080.62,-56.233 L 1080.75,-55.2209
 L 1080.75,-22 L 1080.66,-21.1684 L 1080.4,-20.373 L 1079.99,-19.6489 L 1079.43,-19.0274 L 1078.75,-18.5359
 L 1077.99,-18.1958 L 1076.75,-18 z
M 1169,-18 L 1168.17,-18.0874 L 1167.38,-18.3458 L 1166.65,-18.7639 L 1166.03,-19.3235 L 1165.54,-20
 L 1165.2,-20.7639 L 1165.03,-21.5819 L 1165.03,-22.4181 L 1165.2,-23.2361 L 1165.54,-24 L 1166.03,-24.6765
 L 1166.65,-25.2361 L 1167.59,-25.7429 L 1255.71,-58.9638 L 1256.52,-59.1753 L 1257.36,-59.2141 L 1258.18,-59.0783
 L 1258.96,-58.774 L 1259.66,-58.3143 L 1260.25,-57.7195 L 1260.7,-57.0154 L 1260.99,-56.233 L 1261.12,-55.2209
 L 1261.12,-22 L 1261.04,-21.1684 L 1260.78,-20.373 L 1260.36,-19.6489 L 1259.8,-19.0274 L 1259.12,-18.5359
 L 1258.36,-18.1958 L 1257.12,-18 z
M 1349.38,-18 L 1348.55,-18.0874 L 1347.75,-18.3458 L 1347.03,-18.7639 L 1346.41,-19.3235 L 1345.92,-20
 L 1345.57,-20.7639 L 1345.4,-21.5819 L 1345.4,-22.4181 L 1345.57,-23.2361 L 1345.92,-24 L 1346.41,-24.6765
 L 1347.03,-25.2361 L 1347.97,-25.7429 L 1434.59,-58.3983 L 1435.4,-58.6098 L 1436.23,-58.6486 L 1437.06,-58.5128
 L 1437.84,-58.2085 L 1438.54,-57.7488 L 1439.12,-57.154 L 1439.57,-56.45 L 1439.87,-55.6675 L 1440,-54.6554
 L 1440,-22 L 1439.91,-21.1684 L 1439.65,-20.373 L 1439.24,-19.6489 L 1438.68,-19.0274 L 1438,-18.5359
 L 1437.24,-18.1958 L 1436,-18 z
M 22,-18 L 20.7639,-18.1958 L 20,-18.5359 L 19.3235,-19.0274 L 18.7639,-19.6489 L 18.3458,-20.373
 L 18.0874,-21.1684 L 18,-22 L 18,-54.6554 L 18.1302,-55.6675 L 18.4251,-56.45 L 18.8764,-57.154
 L 19.4641,-57.7488 L 20.1627,-58.2085 L 20.9415,-58.5128 L 21.7667,-58.6486 L 22.602,-58.6098 L 23.411,-58.3983
 L 110.032,-25.7429 L 110.972,-25.2361 L 111.593,-24.6765 L 112.085,-24 L 112.425,-23.2361 L 112.599,-22.4181
 L 112.599,-21.5819 L 112.425,-20.7639 L 112.085,-20 L 111.593,-19.3235 L 110.972,-18.7639 L 110.248,-18.3458
 L 109.453,-18.0874 L 108.621,-18 z
" stroke="black" fill="lightgray" stroke-width="0.5"/>
</svg>
