<?xml version="1.0" standalone="no"?>
<!DOCTYPE svg PUBLIC "-//W3C//DTD SVG 1.1//EN" "http://www.w3.org/Graphics/SVG/1.1/DTD/svg11.dtd">
<svg width="1278mm" height="80mm" viewBox="0 -80 1278 80" xmlns="http://www.w3.org/2000/svg" version="1.1">
<title>OpenSCAD Model</title>
<path d="
M 1278,-80 L 0,-80 L 0,-0 L 4.95,-0 L 4.95,-6 L 5.00572,-6.53017
 L 5.17046,-7.03717 L 5.437,-7.49884 L 5.79372,-7.895 L 6.22499,-8.20836 L 6.71201,-8.42519 L 7.23344,-8.53603
 L 7.76654,-8.53603 L 8.28798,-8.42519 L 8.77499,-8.20836 L 9.20627,-7.895 L 9.56299,-7.49884 L 9.82953,-7.03717
 L 9.99426,-6.53017 L 10.05,-6 L 10.05,-0 L 185.379,-0 L 185.379,-6 L 185.434,-6.53017
 L 185.599,-7.03717 L 185.866,-7.49884 L 186.222,-7.895 L 186.654,-8.20836 L 187.141,-8.42519 L 187.662,-8.53603
 L 188.195,-8.53603 L 188.717,-8.42519 L 189.204,-8.20836 L 189.635,-7.895 L 189.992,-7.49884 L 190.258,-7.03717
 L 190.423,-6.53017 L 190.479,-6 L 190.479,-0 L 365.807,-0 L 365.807,-6 L 365.863,-6.53017
 L 366.028,-7.03717 L 366.294,-7.49884 L 366.651,-7.895 L 367.082,-8.20836 L 367.569,-8.42519 L 368.091,-8.53603
 L 368.624,-8.53603 L 369.145,-8.42519 L 369.632,-8.20836 L 370.063,-7.895 L 370.42,-7.49884 L 370.687,-7.03717
 L 370.851,-6.53017 L 370.907,-6 L 370.907,-0 L 546.236,-0 L 546.236,-6 L 546.291,-6.53017
 L 546.456,-7.03717 L 546.723,-7.49884 L 547.079,-7.895 L 547.511,-8.20836 L 547.998,-8.42519 L 548.519,-8.53603
 L 549.052,-8.53603 L 549.574,-8.42519 L 550.061,-8.20836 L 550.492,-7.895 L 550.849,-7.49884 L 551.115,-7.03717
 L 551.28,-6.53017 L 551.336,-6 L 551.336,-0 L 726.664,-0 L 726.664,-6 L 726.72,-6.53017
 L 726.885,-7.03717 L 727.151,-7.49884 L 727.508,-7.895 L 727.939,-8.20836 L 728.426,-8.42519 L 728.948,-8.53603
 L 729.481,-8.53603 L 730.002,-8.42519 L 730.489,-8.20836 L 730.921,-7.895 L 731.277,-7.49884 L 731.544,-7.03717
 L 731.709,-6.53017 L 731.764,-6 L 731.764,-0 L 907.093,-0 L 907.093,-6 L 907.149,-6.53017
 L 907.313,-7.03717 L 907.58,-7.49884 L 907.937,-7.895 L 908.368,-8.20836 L 908.855,-8.42519 L 909.376,-8.53603
 L 909.909,-8.53603 L 910.431,-8.42519 L 910.918,-8.20836 L 911.349,-7.895 L 911.706,-7.49884 L 911.972,-7.03717
 L 912.137,-6.53017 L 912.193,-6 L 912.193,-0 L 1087.52,-0 L 1087.52,-6 L 1087.58,-6.53017
 L 1087.74,-7.03717 L 1088.01,-7.49884 L 1088.37,-7.895 L 1088.8,-8.20836 L 1089.28,-8.42519 L 1089.8,-8.53603
 L 1090.34,-8.53603 L 1090.86,-8.42519 L 1091.35,-8.20836 L 1091.78,-7.895 L 1092.13,-7.49884 L 1092.4,-7.03717
 L 1092.57,-6.53017 L 1092.62,-6 L 1092.62,-0 L 1267.95,-0 L 1267.95,-6 L 1268.01,-6.53017
 L 1268.17,-7.03717 L 1268.44,-7.49884 L 1268.79,-7.895 L 1269.22,-8.20836 L 1269.71,-8.42519 L 1270.23,-8.53603
 L 1270.77,-8.53603 L 1271.29,-8.42519 L 1271.77,-8.20836 L 1272.21,-7.895 L 1272.56,-7.49884 L 1272.83,-7.03717
 L 1272.99,-6.53017 L 1273.05,-6 L 1273.05,-0 L 1278,-0 z
M 6.98573,-55.607 L 6.47708,-55.6875 L 5.97964,-55.8208 L 5.49887,-56.0054 L 5.04001,-56.2392 L 4.60811,-56.5196
 L 4.20789,-56.8437 L 3.84373,-57.2079 L 3.51964,-57.6081 L 3.23917,-58.04 L 3.00537,-58.4989 L 2.82082,-58.9796
 L 2.68752,-59.4771 L 2.60696,-59.9857 L 2.58,-60.5 L 2.60696,-61.0143 L 2.68752,-61.5229 L 2.82082,-62.0204
 L 3.00537,-62.5011 L 3.23917,-62.96 L 3.51964,-63.3919 L 3.84373,-63.7921 L 4.20789,-64.1563 L 4.60811,-64.4804
 L 4.95001,-64.7024 L 4.95001,-74 L 5.00574,-74.5302 L 5.17047,-75.0372 L 5.43701,-75.4988 L 5.79373,-75.895
 L 6.22501,-76.2084 L 6.71202,-76.4252 L 7.23346,-76.536 L 7.76654,-76.536 L 8.28798,-76.4252 L 8.77499,-76.2084
 L 9.20627,-75.895 L 9.56299,-75.4988 L 9.82953,-75.0372 L 9.99426,-74.5302 L 10.05,-74 L 10.05,-64.7024
 L 10.3919,-64.4804 L 10.7921,-64.1563 L 11.1563,-63.7921 L 11.4804,-63.3919 L 11.7608,-62.96 L 11.9946,-62.5011
 L 12.1792,-62.0204 L 12.3125,-61.5229 L 12.393,-61.0143 L 12.42,-60.5 L 12.393,-59.9857 L 12.3125,-59.4771
 L 12.1792,-58.9796 L 11.9946,-58.4989 L 11.7608,-58.04 L 11.4804,-57.6081 L 11.1563,-57.2079 L 10.7921,-56.8437
 L 10.3919,-56.5196 L 9.95999,-56.2392 L 9.50113,-56.0054 L 9.02036,-55.8208 L 8.52292,-55.6875 L 8.01427,-55.607
 L 7.5,-55.58 z
M 187.414,-55.607 L 186.906,-55.6875 L 186.408,-55.8208 L 185.927,-56.0054 L 185.469,-56.2392 L 185.037,-56.5196
 L 184.636,-56.8437 L 184.272,-57.2079 L 183.948,-57.6081 L 183.668,-58.04 L 183.434,-58.4989 L 183.249,-58.9796
 L 183.116,-59.4771 L 183.036,-59.9857 L 183.009,-60.5 L 183.036,-61.0143 L 183.116,-61.5229 L 183.249,-62.0204
 L 183.434,-62.5011 L 183.668,-62.96 L 183.948,-63.3919 L 184.272,-63.7921 L 184.636,-64.1563 L 185.037,-64.4804
 L 185.379,-64.7024 L 185.379,-74 L 185.434,-74.5302 L 185.599,-75.0372 L 185.866,-75.4988 L 186.222,-75.895
 L 186.654,-76.2084 L 187.141,-76.4252 L 187.662,-76.536 L 188.195,-76.536 L 188.717,-76.4252 L 189.204,-76.2084
 L 189.635,-75.895 L 189.992,-75.4988 L 190.258,-75.0372 L 190.423,-74.5302 L 190.479,-74 L 190.479,-64.7024
 L 190.82,-64.4804 L 191.221,-64.1563 L 191.585,-63.7921 L 191.909,-63.3919 L 192.189,-62.96 L 192.423,-62.5011
 L 192.608,-62.0204 L 192.741,-61.5229 L 192.822,-61.0143 L 192.849,-60.5 L 192.822,-59.9857 L 192.741,-59.4771
 L 192.608,-58.9796 L 192.423,-58.4989 L 192.189,-58.04 L 191.909,-57.6081 L 191.585,-57.2079 L 191.221,-56.8437
 L 190.82,-56.5196 L 190.389,-56.2392 L 189.93,-56.0054 L 189.449,-55.8208 L 188.951,-55.6875 L 188.443,-55.607
 L 187.929,-55.58 z
M 367.843,-55.607 L 367.334,-55.6875 L 366.837,-55.8208 L 366.356,-56.0054 L 365.897,-56.2392 L 365.465,-56.5196
 L 365.065,-56.8437 L 364.701,-57.2079 L 364.377,-57.6081 L 364.096,-58.04 L 363.863,-58.4989 L 363.678,-58.9796
 L 363.545,-59.4771 L 363.464,-59.9857 L 363.437,-60.5 L 363.464,-61.0143 L 363.545,-61.5229 L 363.678,-62.0204
 L 363.863,-62.5011 L 364.096,-62.96 L 364.377,-63.3919 L 364.701,-63.7921 L 365.065,-64.1563 L 365.465,-64.4804
 L 365.807,-64.7024 L 365.807,-74 L 365.863,-74.5302 L 366.028,-75.0372 L 366.294,-75.4988 L 366.651,-75.895
 L 367.082,-76.2084 L 367.569,-76.4252 L 368.091,-76.536 L 368.624,-76.536 L 369.145,-76.4252 L 369.632,-76.2084
 L 370.063,-75.895 L 370.42,-75.4988 L 370.687,-75.0372 L 370.851,-74.5302 L 370.907,-74 L 370.907,-64.7024
 L 371.249,-64.4804 L 371.649,-64.1563 L 372.013,-63.7921 L 372.337,-63.3919 L 372.618,-62.96 L 372.852,-62.5011
 L 373.036,-62.0204 L 373.17,-61.5229 L 373.25,-61.0143 L 373.277,-60.5 L 373.25,-59.9857 L 373.17,-59.4771
 L 373.036,-58.9796 L 372.852,-58.4989 L 372.618,-58.04 L 372.337,-57.6081 L 372.013,-57.2079 L 371.649,-56.8437
 L 371.249,-56.5196 L 370.817,-56.2392 L 370.358,-56.0054 L 369.877,-55.8208 L 369.38,-55.6875 L 368.871,-55.607
 L 368.357,-55.58 z
M 548.271,-55.607 L 547.763,-55.6875 L 547.265,-55.8208 L 546.785,-56.0054 L 546.326,-56.2392 L 545.894,-56.5196
 L 545.494,-56.8437 L 545.129,-57.2079 L 544.805,-57.6081 L 544.525,-58.04 L 544.291,-58.4989 L 544.107,-58.9796
 L 543.973,-59.4771 L 543.893,-59.9857 L 543.866,-60.5 L 543.893,-61.0143 L 543.973,-61.5229 L 544.107,-62.0204
 L 544.291,-62.5011 L 544.525,-62.96 L 544.805,-63.3919 L 545.129,-63.7921 L 545.494,-64.1563 L 545.894,-64.4804
 L 546.236,-64.7024 L 546.236,-74 L 546.291,-74.5302 L 546.456,-75.0372 L 546.723,-75.4988 L 547.079,-75.895
 L 547.511,-76.2084 L 547.998,-76.4252 L 548.519,-76.536 L 549.052,-76.536 L 549.574,-76.4252 L 550.061,-76.2084
 L 550.492,-75.895 L 550.849,-75.4988 L 551.115,-75.0372 L 551.28,-74.5302 L 551.336,-74 L 551.336,-64.7024
 L 551.678,-64.4804 L 552.078,-64.1563 L 552.442,-63.7921 L 552.766,-63.3919 L 553.047,-62.96 L 553.28,-62.5011
 L 553.465,-62.0204 L 553.598,-61.5229 L 553.679,-61.0143 L 553.706,-60.5 L 553.679,-59.9857 L 553.598,-59.4771
 L 553.465,-58.9796 L 553.28,-58.4989 L 553.047,-58.04 L 552.766,-57.6081 L 552.442,-57.2079 L 552.078,-56.8437
 L 551.678,-56.5196 L 551.246,-56.2392 L 550.787,-56.0054 L 550.306,-55.8208 L 549.809,-55.6875 L 549.3,-55.607
 L 548.786,-55.58 z
M 728.7,-55.607 L 728.191,-55.6875 L 727.694,-55.8208 L 727.213,-56.0054 L 726.754,-56.2392 L 726.322,-56.5196
 L 725.922,-56.8437 L 725.558,-57.2079 L 725.234,-57.6081 L 724.953,-58.04 L 724.72,-58.4989 L 724.535,-58.9796
 L 724.402,-59.4771 L 724.321,-59.9857 L 724.294,-60.5 L 724.321,-61.0143 L 724.402,-61.5229 L 724.535,-62.0204
 L 724.72,-62.5011 L 724.953,-62.96 L 725.234,-63.3919 L 725.558,-63.7921 L 725.922,-64.1563 L 726.322,-64.4804
 L 726.664,-64.7024 L 726.664,-74 L 726.72,-74.5302 L 726.885,-75.0372 L 727.151,-75.4988 L 727.508,-75.895
 L 727.939,-76.2084 L 728.426,-76.4252 L 728.948,-76.536 L 729.481,-76.536 L 730.002,-76.4252 L 730.489,-76.2084
 L 730.921,-75.895 L 731.277,-75.4988 L 731.544,-75.0372 L 731.709,-74.5302 L 731.764,-74 L 731.764,-64.7024
 L 732.106,-64.4804 L 732.506,-64.1563 L 732.871,-63.7921 L 733.195,-63.3919 L 733.475,-62.96 L 733.709,-62.5011
 L 733.893,-62.0204 L 734.027,-61.5229 L 734.107,-61.0143 L 734.134,-60.5 L 734.107,-59.9857 L 734.027,-59.4771
 L 733.893,-58.9796 L 733.709,-58.4989 L 733.475,-58.04 L 733.195,-57.6081 L 732.871,-57.2079 L 732.506,-56.8437
 L 732.106,-56.5196 L 731.674,-56.2392 L 731.215,-56.0054 L 730.735,-55.8208 L 730.237,-55.6875 L 729.729,-55.607
 L 729.214,-55.58 z
M 909.129,-55.607 L 908.62,-55.6875 L 908.122,-55.8208 L 907.642,-56.0054 L 907.183,-56.2392 L 906.751,-56.5196
 L 906.351,-56.8437 L 905.987,-57.2079 L 905.662,-57.6081 L 905.382,-58.04 L 905.148,-58.4989 L 904.964,-58.9796
 L 904.83,-59.4771 L 904.75,-59.9857 L 904.723,-60.5 L 904.75,-61.0143 L 904.83,-61.5229 L 904.964,-62.0204
 L 905.148,-62.5011 L 905.382,-62.96 L 905.662,-63.3919 L 905.987,-63.7921 L 906.351,-64.1563 L 906.751,-64.4804
 L 907.093,-64.7024 L 907.093,-74 L 907.149,-74.5302 L 907.313,-75.0372 L 907.58,-75.4988 L 907.937,-75.895
 L 908.368,-76.2084 L 908.855,-76.4252 L 909.376,-76.536 L 909.909,-76.536 L 910.431,-76.4252 L 910.918,-76.2084
 L 911.349,-75.895 L 911.706,-75.4988 L 911.972,-75.0372 L 912.137,-74.5302 L 912.193,-74 L 912.193,-64.7024
 L 912.535,-64.4804 L 912.935,-64.1563 L 913.299,-63.7921 L 913.623,-63.3919 L 913.904,-62.96 L 914.137,-62.5011
 L 914.322,-62.0204 L 914.455,-61.5229 L 914.536,-61.0143 L 914.563,-60.5 L 914.536,-59.9857 L 914.455,-59.4771
 L 914.322,-58.9796 L 914.137,-58.4989 L 913.904,-58.04 L 913.623,-57.6081 L 913.299,-57.2079 L 912.935,-56.8437
 L 912.535,-56.5196 L 912.103,-56.2392 L 911.644,-56.0054 L 911.163,-55.8208 L 910.666,-55.6875 L 910.157,-55.607
 L 909.643,-55.58 z
M 1089.56,-55.607 L 1089.05,-55.6875 L 1088.55,-55.8208 L 1088.07,-56.0054 L 1087.61,-56.2392 L 1087.18,-56.5196
 L 1086.78,-56.8437 L 1086.42,-57.2079 L 1086.09,-57.6081 L 1085.81,-58.04 L 1085.58,-58.4989 L 1085.39,-58.9796
 L 1085.26,-59.4771 L 1085.18,-59.9857 L 1085.15,-60.5 L 1085.18,-61.0143 L 1085.26,-61.5229 L 1085.39,-62.0204
 L 1085.58,-62.5011 L 1085.81,-62.96 L 1086.09,-63.3919 L 1086.42,-63.7921 L 1086.78,-64.1563 L 1087.18,-64.4804
 L 1087.52,-64.7024 L 1087.52,-74 L 1087.58,-74.5302 L 1087.74,-75.0372 L 1088.01,-75.4988 L 1088.37,-75.895
 L 1088.8,-76.2084 L 1089.28,-76.4252 L 1089.8,-76.536 L 1090.34,-76.536 L 1090.86,-76.4252 L 1091.35,-76.2084
 L 1091.78,-75.895 L 1092.13,-75.4988 L 1092.4,-75.0372 L 1092.57,-74.5302 L 1092.62,-74 L 1092.62,-64.7024
 L 1092.96,-64.4804 L 1093.36,-64.1563 L 1093.73,-63.7921 L 1094.05,-63.3919 L 1094.33,-62.96 L 1094.57,-62.5011
 L 1094.75,-62.0204 L 1094.88,-61.5229 L 1094.96,-61.0143 L 1094.99,-60.5 L 1094.96,-59.9857 L 1094.88,-59.4771
 L 1094.75,-58.9796 L 1094.57,-58.4989 L 1094.33,-58.04 L 1094.05,-57.6081 L 1093.73,-57.2079 L 1093.36,-56.8437
 L 1092.96,-56.5196 L 1092.53,-56.2392 L 1092.07,-56.0054 L 1091.59,-55.8208 L 1091.09,-55.6875 L 1090.59,-55.607
 L 1090.07,-55.58 z
M 1269.99,-55.607 L 1269.48,-55.6875 L 1268.98,-55.8208 L 1268.5,-56.0054 L 1268.04,-56.2392 L 1267.61,-56.5196
 L 1267.21,-56.8437 L 1266.84,-57.2079 L 1266.52,-57.6081 L 1266.24,-58.04 L 1266.01,-58.4989 L 1265.82,-58.9796
 L 1265.69,-59.4771 L 1265.61,-59.9857 L 1265.58,-60.5 L 1265.61,-61.0143 L 1265.69,-61.5229 L 1265.82,-62.0204
 L 1266.01,-62.5011 L 1266.24,-62.96 L 1266.52,-63.3919 L 1266.84,-63.7921 L 1267.21,-64.1563 L 1267.61,-64.4804
 L 1267.95,-64.7024 L 1267.95,-74 L 1268.01,-74.5302 L 1268.17,-75.0372 L 1268.44,-75.4988 L 1268.79,-75.895
 L 1269.23,-76.2084 L 1269.71,-76.4252 L 1270.23,-76.536 L 1270.77,-76.536 L 1271.29,-76.4252 L 1271.77,-76.2084
 L 1272.21,-75.895 L 1272.56,-75.4988 L 1272.83,-75.0372 L 1272.99,-74.5302 L 1273.05,-74 L 1273.05,-64.7024
 L 1273.39,-64.4804 L 1273.79,-64.1563 L 1274.16,-63.7921 L 1274.48,-63.3919 L 1274.76,-62.96 L 1274.99,-62.5011
 L 1275.18,-62.0204 L 1275.31,-61.5229 L 1275.39,-61.0143 L 1275.42,-60.5 L 1275.39,-59.9857 L 1275.31,-59.4771
 L 1275.18,-58.9796 L 1274.99,-58.4989 L 1274.76,-58.04 L 1274.48,-57.6081 L 1274.16,-57.2079 L 1273.79,-56.8437
 L 1273.39,-56.5196 L 1272.96,-56.2392 L 1272.5,-56.0054 L 1272.02,-55.8208 L 1271.52,-55.6875 L 1271.01,-55.607
 L 1270.5,-55.58 z
M 741.155,-20.9199 L 740.377,-21.2243 L 739.678,-21.684 L 739.09,-22.2789 L 738.639,-22.983 L 738.344,-23.7655
 L 738.214,-24.7772 L 738.214,-58 L 738.302,-58.8316 L 738.56,-59.627 L 738.978,-60.3511 L 739.538,-60.9726
 L 740.214,-61.4641 L 740.978,-61.8042 L 742.214,-62 L 830.366,-62 L 831.198,-61.9126 L 831.993,-61.6542
 L 832.718,-61.2361 L 833.339,-60.6765 L 833.831,-60 L 834.171,-59.2361 L 834.345,-58.4181 L 834.345,-57.5819
 L 834.171,-56.7639 L 833.831,-56 L 833.339,-55.3235 L 832.718,-54.7639 L 831.777,-54.257 L 743.625,-21.0342
 L 742.816,-20.8227 L 741.981,-20.784 z
M 638.398,-47.7882 L 637.589,-47.9997 L 620.986,-54.257 L 620.046,-54.7639 L 619.425,-55.3235 L 618.933,-56
 L 618.593,-56.7639 L 618.419,-57.5819 L 618.419,-58.4181 L 618.593,-59.2361 L 618.933,-60 L 619.425,-60.6765
 L 620.046,-61.2361 L 620.77,-61.6542 L 621.565,-61.9126 L 622.397,-62 L 655.603,-62 L 656.662,-61.8573
 L 657.441,-61.5529 L 658.139,-61.0932 L 658.727,-60.4983 L 659.178,-59.7942 L 659.473,-59.0117 L 659.599,-58.185
 L 659.55,-57.3502 L 659.328,-56.5438 L 658.944,-55.801 L 658.414,-55.1544 L 657.761,-54.6321 L 657.014,-54.257
 L 640.411,-47.9997 L 639.234,-47.7495 z
M 535.184,-20.8227 L 534.375,-21.0342 L 446.223,-54.257 L 445.282,-54.7639 L 444.661,-55.3235 L 444.169,-56
 L 443.829,-56.7639 L 443.655,-57.5819 L 443.655,-58.4181 L 443.829,-59.2361 L 444.169,-60 L 444.661,-60.6765
 L 445.282,-61.2361 L 446.007,-61.6542 L 446.802,-61.9126 L 447.634,-62 L 535.786,-62 L 537.022,-61.8042
 L 537.786,-61.4641 L 538.462,-60.9726 L 539.022,-60.3511 L 539.44,-59.627 L 539.698,-58.8316 L 539.786,-58
 L 539.786,-24.7772 L 539.656,-23.7655 L 539.361,-22.983 L 538.91,-22.2789 L 538.322,-21.684 L 537.623,-21.2243
 L 536.845,-20.9199 L 536.019,-20.784 z
M 354.755,-20.8227 L 353.946,-21.0342 L 265.794,-54.257 L 264.854,-54.7639 L 264.232,-55.3235 L 263.741,-56
 L 263.401,-56.7639 L 263.227,-57.5819 L 263.227,-58.4181 L 263.401,-59.2361 L 263.741,-60 L 264.232,-60.6765
 L 264.854,-61.2361 L 265.578,-61.6542 L 266.373,-61.9126 L 267.205,-62 L 355.357,-62 L 356.593,-61.8042
 L 357.357,-61.4641 L 358.034,-60.9726 L 358.593,-60.3511 L 359.011,-59.627 L 359.27,-58.8316 L 359.357,-58
 L 359.357,-24.7772 L 359.227,-23.7655 L 358.932,-22.983 L 358.481,-22.2789 L 357.893,-21.684 L 357.195,-21.2243
 L 356.416,-20.9199 L 355.591,-20.784 z
M 1102.01,-20.9199 L 1101.23,-21.2243 L 1100.54,-21.684 L 1099.95,-22.2789 L 1099.5,-22.983 L 1099.2,-23.7655
 L 1099.07,-24.7772 L 1099.07,-58 L 1099.16,-58.8316 L 1099.42,-59.627 L 1099.84,-60.3511 L 1100.39,-60.9726
 L 1101.07,-61.4641 L 1101.84,-61.8042 L 1103.07,-62 L 1191.22,-62 L 1192.06,-61.9126 L 1192.85,-61.6542
 L 1193.57,-61.2361 L 1194.2,-60.6765 L 1194.69,-60 L 1195.03,-59.2361 L 1195.2,-58.4181 L 1195.2,-57.5819
 L 1195.03,-56.7639 L 1194.69,-56 L 1194.2,-55.3235 L 1193.57,-54.7639 L 1192.63,-54.257 L 1104.48,-21.0342
 L 1103.67,-20.8227 L 1102.84,-20.784 z
M 174.327,-20.8227 L 173.518,-21.0342 L 85.3658,-54.257 L 84.4253,-54.7639 L 83.8038,-55.3235 L 83.3123,-56
 L 82.9722,-56.7639 L 82.7983,-57.5819 L 82.7983,-58.4181 L 82.9722,-59.2361 L 83.3123,-60 L 83.8038,-60.6765
 L 84.4253,-61.2361 L 85.1495,-61.6542 L 85.9448,-61.9126 L 86.7764,-62 L 174.929,-62 L 176.165,-61.8042
 L 176.929,-61.4641 L 177.605,-60.9726 L 178.165,-60.3511 L 178.583,-59.627 L 178.841,-58.8316 L 178.929,-58
 L 178.929,-24.7772 L 178.799,-23.7655 L 178.504,-22.983 L 178.052,-22.2789 L 177.465,-21.684 L 176.766,-21.2243
 L 175.987,-20.9199 L 175.162,-20.784 z
M 921.584,-20.9199 L 920.805,-21.2243 L 920.107,-21.684 L 919.519,-22.2789 L 919.068,-22.983 L 918.773,-23.7655
 L 918.643,-24.7772 L 918.643,-58 L 918.73,-58.8316 L 918.989,-59.627 L 919.407,-60.3511 L 919.966,-60.9726
 L 920.643,-61.4641 L 921.407,-61.8042 L 922.643,-62 L 1010.79,-62 L 1011.63,-61.9126 L 1012.42,-61.6542
 L 1013.15,-61.2361 L 1013.77,-60.6765 L 1014.26,-60 L 1014.6,-59.2361 L 1014.77,-58.4181 L 1014.77,-57.5819
 L 1014.6,-56.7639 L 1014.26,-56 L 1013.77,-55.3235 L 1013.15,-54.7639 L 1012.21,-54.257 L 924.054,-21.0342
 L 923.244,-20.8227 L 922.409,-20.784 z
M 561.368,-18.6641 L 560.55,-18.8379 L 559.786,-19.1781 L 559.109,-19.6696 L 558.55,-20.291 L 558.132,-21.0152
 L 557.873,-21.8105 L 557.786,-22.6422 L 557.786,-57.3578 L 557.916,-58.3695 L 558.211,-59.152 L 558.662,-59.8561
 L 559.25,-60.451 L 559.948,-60.9107 L 560.727,-61.2152 L 561.552,-61.351 L 562.387,-61.3123 L 563.196,-61.1008
 L 609.253,-43.743 L 609.68,-43.5529 L 610.379,-43.0932 L 610.966,-42.4983 L 611.417,-41.7942 L 611.712,-41.0117
 L 611.838,-40.185 L 611.789,-39.3502 L 611.568,-38.5438 L 611.184,-37.801 L 610.653,-37.1544 L 610,-36.6321
 L 609.253,-36.257 L 563.196,-18.8992 L 562.204,-18.6641 z
M 715.613,-18.6876 L 714.804,-18.8991 L 668.747,-36.257 L 668.32,-36.4471 L 667.621,-36.9068 L 667.034,-37.5017
 L 666.583,-38.2058 L 666.288,-38.9883 L 666.162,-39.815 L 666.211,-40.6498 L 666.432,-41.4562 L 666.816,-42.199
 L 667.346,-42.8456 L 668,-43.3679 L 668.747,-43.743 L 714.804,-61.1009 L 715.796,-61.336 L 716.632,-61.336
 L 717.45,-61.1621 L 718.214,-60.822 L 718.891,-60.3304 L 719.45,-59.709 L 719.868,-58.9848 L 720.127,-58.1895
 L 720.214,-57.3579 L 720.214,-22.6421 L 720.084,-21.6304 L 719.789,-20.8479 L 719.338,-20.1439 L 718.75,-19.549
 L 718.052,-19.0892 L 717.273,-18.7848 L 716.448,-18.649 z
M 200.929,-18 L 199.692,-18.1958 L 198.929,-18.5359 L 198.252,-19.0274 L 197.692,-19.6489 L 197.274,-20.373
 L 197.016,-21.1684 L 196.929,-22 L 196.929,-55.2228 L 197.059,-56.2345 L 197.354,-57.017 L 197.805,-57.7211
 L 198.392,-58.316 L 199.091,-58.7757 L 199.87,-59.0801 L 200.695,-59.216 L 201.53,-59.1773 L 202.339,-58.9658
 L 290.491,-25.743 L 291.432,-25.2361 L 292.053,-24.6765 L 292.545,-24 L 292.885,-23.2361 L 293.059,-22.4181
 L 293.059,-21.5819 L 292.885,-20.7639 L 292.545,-20 L 292.053,-19.3235 L 291.432,-18.7639 L 290.708,-18.3458
 L 289.912,-18.0874 L 289.081,-18 z
M 381.357,-18 L 380.121,-18.1958 L 379.357,-18.5359 L 378.681,-19.0274 L 378.121,-19.6489 L 377.703,-20.373
 L 377.445,-21.1684 L 377.357,-22 L 377.357,-55.2228 L 377.487,-56.2345 L 377.782,-57.017 L 378.233,-57.7211
 L 378.821,-58.316 L 379.519,-58.7757 L 380.298,-59.0801 L 381.123,-59.216 L 381.959,-59.1773 L 382.768,-58.9658
 L 470.92,-25.743 L 471.86,-25.2361 L 472.482,-24.6765 L 472.973,-24 L 473.313,-23.2361 L 473.487,-22.4181
 L 473.487,-21.5819 L 473.313,-20.7639 L 472.973,-20 L 472.482,-19.3235 L 471.86,-18.7639 L 471.136,-18.3458
 L 470.341,-18.0874 L 469.509,-18 z
M 808.491,-18 L 807.659,-18.0874 L 806.864,-18.3458 L 806.14,-18.7639 L 805.518,-19.3235 L 805.027,-20
 L 804.686,-20.7639 L 804.513,-21.5819 L 804.513,-22.4181 L 804.686,-23.2361 L 805.027,-24 L 805.518,-24.6765
 L 806.14,-25.2361 L 807.08,-25.743 L 895.232,-58.9658 L 896.041,-59.1773 L 896.877,-59.216 L 897.702,-59.0801
 L 898.481,-58.7757 L 899.179,-58.316 L 899.767,-57.7211 L 900.218,-57.017 L 900.513,-56.2345 L 900.643,-55.2228
 L 900.643,-22 L 900.555,-21.1684 L 900.297,-20.373 L 899.879,-19.6489 L 899.319,-19.0274 L 898.643,-18.5359
 L 897.879,-18.1958 L 896.643,-18 z
M 988.919,-18 L 988.088,-18.0874 L 987.292,-18.3458 L 986.568,-18.7639 L 985.947,-19.3235 L 985.455,-20
 L 985.115,-20.7639 L 984.941,-21.5819 L 984.941,-22.4181 L 985.115,-23.2361 L 985.455,-24 L 985.947,-24.6765
 L 986.568,-25.2361 L 987.509,-25.743 L 1075.66,-58.9658 L 1076.47,-59.1773 L 1077.31,-59.216 L 1078.13,-59.0801
 L 1078.91,-58.7757 L 1079.61,-58.316 L 1080.2,-57.7211 L 1080.65,-57.017 L 1080.94,-56.2345 L 1081.07,-55.2228
 L 1081.07,-22 L 1080.98,-21.1684 L 1080.73,-20.373 L 1080.31,-19.6489 L 1079.75,-19.0274 L 1079.07,-18.5359
 L 1078.31,-18.1958 L 1077.07,-18 z
M 22,-18 L 20.7639,-18.1958 L 20,-18.5359 L 19.3235,-19.0274 L 18.7639,-19.6489 L 18.3458,-20.373
 L 18.0874,-21.1684 L 18,-22 L 18,-54.6575 L 18.1301,-55.6692 L 18.425,-56.4517 L 18.8761,-57.1558
 L 19.4638,-57.7507 L 20.1623,-58.2104 L 20.9412,-58.5148 L 21.7663,-58.6507 L 22.6016,-58.612 L 23.4107,-58.4005
 L 110.063,-25.743 L 111.003,-25.2361 L 111.625,-24.6765 L 112.116,-24 L 112.456,-23.2361 L 112.63,-22.4181
 L 112.63,-21.5819 L 112.456,-20.7639 L 112.116,-20 L 111.625,-19.3235 L 111.003,-18.7639 L 110.279,-18.3458
 L 109.484,-18.0874 L 108.652,-18 z
M 1169.35,-18 L 1168.52,-18.0874 L 1167.72,-18.3458 L 1167,-18.7639 L 1166.38,-19.3235 L 1165.88,-20
 L 1165.54,-20.7639 L 1165.37,-21.5819 L 1165.37,-22.4181 L 1165.54,-23.2361 L 1165.88,-24 L 1166.38,-24.6765
 L 1167,-25.2361 L 1167.94,-25.743 L 1254.59,-58.4005 L 1255.4,-58.612 L 1256.23,-58.6507 L 1257.06,-58.5148
 L 1257.84,-58.2104 L 1258.54,-57.7507 L 1259.12,-57.1558 L 1259.58,-56.4517 L 1259.87,-55.6692 L 1260,-54.6575
 L 1260,-22 L 1259.91,-21.1684 L 1259.65,-20.373 L 1259.24,-19.6489 L 1258.68,-19.0274 L 1258,-18.5359
 L 1257.24,-18.1958 L 1256,-18 z
M 622.397,-18 L 621.338,-18.1427 L 620.559,-18.4471 L 619.861,-18.9068 L 619.273,-19.5017 L 618.822,-20.2058
 L 618.527,-20.9883 L 618.401,-21.815 L 618.45,-22.6498 L 618.672,-23.4562 L 619.056,-24.199 L 619.586,-24.8456
 L 620.239,-25.3679 L 620.986,-25.743 L 637.589,-32.0003 L 638.766,-32.2505 L 639.602,-32.2118 L 640.411,-32.0003
 L 657.014,-25.743 L 657.954,-25.2361 L 658.575,-24.6765 L 659.067,-24 L 659.407,-23.2361 L 659.581,-22.4181
 L 659.581,-21.5819 L 659.407,-20.7639 L 659.067,-20 L 658.575,-19.3235 L 657.954,-18.7639 L 657.23,-18.3458
 L 656.435,-18.0874 L 655.603,-18 z
" stroke="black" fill="lightgray" stroke-width="0.5"/>
</svg>
