<?xml version="1.0" standalone="no"?>
<!DOCTYPE svg PUBLIC "-//W3C//DTD SVG 1.1//EN" "http://www.w3.org/Graphics/SVG/1.1/DTD/svg11.dtd">
<svg width="1266mm" height="80mm" viewBox="0 -80 1266 80" xmlns="http://www.w3.org/2000/svg" version="1.1">
<title>OpenSCAD Model</title>
<path d="
M 1266,-80 L 0,-80 L 0,-0 L 4.95,-0 L 4.95,-6 L 5.00572,-6.53017
 L 5.17046,-7.03717 L 5.437,-7.49884 L 5.79372,-7.895 L 6.22499,-8.20836 L 6.71201,-8.42519 L 7.23344,-8.53603
 L 7.76654,-8.53603 L 8.28798,-8.42519 L 8.77499,-8.20836 L 9.20627,-7.895 L 9.56299,-7.49884 L 9.82953,-7.03717
 L 9.99426,-6.53017 L 10.05,-6 L 10.05,-0 L 183.664,-0 L 183.664,-6 L 183.72,-6.53017
 L 183.885,-7.03717 L 184.151,-7.49884 L 184.508,-7.895 L 184.939,-8.20836 L 185.426,-8.42519 L 185.948,-8.53603
 L 186.481,-8.53603 L 187.002,-8.42519 L 187.489,-8.20836 L 187.921,-7.895 L 188.277,-7.49884 L 188.544,-7.03717
 L 188.709,-6.53017 L 188.764,-6 L 188.764,-0 L 362.379,-0 L 362.379,-6 L 362.434,-6.53017
 L 362.599,-7.03717 L 362.866,-7.49884 L 363.222,-7.895 L 363.654,-8.20836 L 364.141,-8.42519 L 364.662,-8.53603
 L 365.195,-8.53603 L 365.717,-8.42519 L 366.204,-8.20836 L 366.635,-7.895 L 366.992,-7.49884 L 367.258,-7.03717
 L 367.423,-6.53017 L 367.479,-6 L 367.479,-0 L 541.093,-0 L 541.093,-6 L 541.149,-6.53017
 L 541.313,-7.03717 L 541.58,-7.49884 L 541.937,-7.895 L 542.368,-8.20836 L 542.855,-8.42519 L 543.376,-8.53603
 L 543.909,-8.53603 L 544.431,-8.42519 L 544.918,-8.20836 L 545.349,-7.895 L 545.706,-7.49884 L 545.972,-7.03717
 L 546.137,-6.53017 L 546.193,-6 L 546.193,-0 L 719.807,-0 L 719.807,-6 L 719.863,-6.53017
 L 720.028,-7.03717 L 720.294,-7.49884 L 720.651,-7.895 L 721.082,-8.20836 L 721.569,-8.42519 L 722.091,-8.53603
 L 722.624,-8.53603 L 723.145,-8.42519 L 723.632,-8.20836 L 724.063,-7.895 L 724.42,-7.49884 L 724.687,-7.03717
 L 724.851,-6.53017 L 724.907,-6 L 724.907,-0 L 898.521,-0 L 898.521,-6 L 898.577,-6.53017
 L 898.742,-7.03717 L 899.008,-7.49884 L 899.365,-7.895 L 899.796,-8.20836 L 900.283,-8.42519 L 900.805,-8.53603
 L 901.338,-8.53603 L 901.859,-8.42519 L 902.346,-8.20836 L 902.778,-7.895 L 903.134,-7.49884 L 903.401,-7.03717
 L 903.566,-6.53017 L 903.621,-6 L 903.621,-0 L 1077.24,-0 L 1077.24,-6 L 1077.29,-6.53017
 L 1077.46,-7.03717 L 1077.72,-7.49884 L 1078.08,-7.895 L 1078.51,-8.20836 L 1079,-8.42519 L 1079.52,-8.53603
 L 1080.05,-8.53603 L 1080.57,-8.42519 L 1081.06,-8.20836 L 1081.49,-7.895 L 1081.85,-7.49884 L 1082.12,-7.03717
 L 1082.28,-6.53017 L 1082.34,-6 L 1082.34,-0 L 1255.95,-0 L 1255.95,-6 L 1256.01,-6.53017
 L 1256.17,-7.03717 L 1256.44,-7.49884 L 1256.79,-7.895 L 1257.22,-8.20836 L 1257.71,-8.42519 L 1258.23,-8.53603
 L 1258.77,-8.53603 L 1259.29,-8.42519 L 1259.77,-8.20836 L 1260.21,-7.895 L 1260.56,-7.49884 L 1260.83,-7.03717
 L 1260.99,-6.53017 L 1261.05,-6 L 1261.05,-0 L 1266,-0 z
M 6.98573,-55.607 L 6.47708,-55.6875 L 5.97964,-55.8208 L 5.49887,-56.0054 L 5.04001,-56.2392 L 4.60811,-56.5196
 L 4.20789,-56.8437 L 3.84373,-57.2079 L 3.51964,-57.6081 L 3.23917,-58.04 L 3.00537,-58.4989 L 2.82082,-58.9796
 L 2.68752,-59.4771 L 2.60696,-59.9857 L 2.58,-60.5 L 2.60696,-61.0143 L 2.68752,-61.5229 L 2.82082,-62.0204
 L 3.00537,-62.5011 L 3.23917,-62.96 L 3.51964,-63.3919 L 3.84373,-63.7921 L 4.20789,-64.1563 L 4.60811,-64.4804
 L 4.95001,-64.7024 L 4.95001,-74 L 5.00574,-74.5302 L 5.17047,-75.0372 L 5.43701,-75.4988 L 5.79373,-75.895
 L 6.22501,-76.2084 L 6.71202,-76.4252 L 7.23346,-76.536 L 7.76654,-76.536 L 8.28798,-76.4252 L 8.77499,-76.2084
 L 9.20627,-75.895 L 9.56299,-75.4988 L 9.82953,-75.0372 L 9.99426,-74.5302 L 10.05,-74 L 10.05,-64.7024
 L 10.3919,-64.4804 L 10.7921,-64.1563 L 11.1563,-63.7921 L 11.4804,-63.3919 L 11.7608,-62.96 L 11.9946,-62.5011
 L 12.1792,-62.0204 L 12.3125,-61.5229 L 12.393,-61.0143 L 12.42,-60.5 L 12.393,-59.9857 L 12.3125,-59.4771
 L 12.1792,-58.9796 L 11.9946,-58.4989 L 11.7608,-58.04 L 11.4804,-57.6081 L 11.1563,-57.2079 L 10.7921,-56.8437
 L 10.3919,-56.5196 L 9.95999,-56.2392 L 9.50113,-56.0054 L 9.02036,-55.8208 L 8.52292,-55.6875 L 8.01427,-55.607
 L 7.5,-55.58 z
M 185.7,-55.607 L 185.191,-55.6875 L 184.694,-55.8208 L 184.213,-56.0054 L 183.754,-56.2392 L 183.322,-56.5196
 L 182.922,-56.8437 L 182.558,-57.2079 L 182.234,-57.6081 L 181.953,-58.04 L 181.72,-58.4989 L 181.535,-58.9796
 L 181.402,-59.4771 L 181.321,-59.9857 L 181.294,-60.5 L 181.321,-61.0143 L 181.402,-61.5229 L 181.535,-62.0204
 L 181.72,-62.5011 L 181.953,-62.96 L 182.234,-63.3919 L 182.558,-63.7921 L 182.922,-64.1563 L 183.322,-64.4804
 L 183.664,-64.7024 L 183.664,-74 L 183.72,-74.5302 L 183.885,-75.0372 L 184.151,-75.4988 L 184.508,-75.895
 L 184.939,-76.2084 L 185.426,-76.4252 L 185.948,-76.536 L 186.481,-76.536 L 187.002,-76.4252 L 187.489,-76.2084
 L 187.921,-75.895 L 188.277,-75.4988 L 188.544,-75.0372 L 188.709,-74.5302 L 188.764,-74 L 188.764,-64.7024
 L 189.106,-64.4804 L 189.506,-64.1563 L 189.871,-63.7921 L 190.195,-63.3919 L 190.475,-62.96 L 190.709,-62.5011
 L 190.893,-62.0204 L 191.027,-61.5229 L 191.107,-61.0143 L 191.134,-60.5 L 191.107,-59.9857 L 191.027,-59.4771
 L 190.893,-58.9796 L 190.709,-58.4989 L 190.475,-58.04 L 190.195,-57.6081 L 189.871,-57.2079 L 189.506,-56.8437
 L 189.106,-56.5196 L 188.674,-56.2392 L 188.215,-56.0054 L 187.735,-55.8208 L 187.237,-55.6875 L 186.729,-55.607
 L 186.214,-55.58 z
M 364.414,-55.607 L 363.906,-55.6875 L 363.408,-55.8208 L 362.927,-56.0054 L 362.469,-56.2392 L 362.037,-56.5196
 L 361.636,-56.8437 L 361.272,-57.2079 L 360.948,-57.6081 L 360.668,-58.04 L 360.434,-58.4989 L 360.249,-58.9796
 L 360.116,-59.4771 L 360.036,-59.9857 L 360.009,-60.5 L 360.036,-61.0143 L 360.116,-61.5229 L 360.249,-62.0204
 L 360.434,-62.5011 L 360.668,-62.96 L 360.948,-63.3919 L 361.272,-63.7921 L 361.636,-64.1563 L 362.037,-64.4804
 L 362.379,-64.7024 L 362.379,-74 L 362.434,-74.5302 L 362.599,-75.0372 L 362.866,-75.4988 L 363.222,-75.895
 L 363.654,-76.2084 L 364.141,-76.4252 L 364.662,-76.536 L 365.195,-76.536 L 365.717,-76.4252 L 366.204,-76.2084
 L 366.635,-75.895 L 366.992,-75.4988 L 367.258,-75.0372 L 367.423,-74.5302 L 367.479,-74 L 367.479,-64.7024
 L 367.82,-64.4804 L 368.221,-64.1563 L 368.585,-63.7921 L 368.909,-63.3919 L 369.189,-62.96 L 369.423,-62.5011
 L 369.608,-62.0204 L 369.741,-61.5229 L 369.822,-61.0143 L 369.849,-60.5 L 369.822,-59.9857 L 369.741,-59.4771
 L 369.608,-58.9796 L 369.423,-58.4989 L 369.189,-58.04 L 368.909,-57.6081 L 368.585,-57.2079 L 368.221,-56.8437
 L 367.82,-56.5196 L 367.389,-56.2392 L 366.93,-56.0054 L 366.449,-55.8208 L 365.951,-55.6875 L 365.443,-55.607
 L 364.929,-55.58 z
M 543.129,-55.607 L 542.62,-55.6875 L 542.122,-55.8208 L 541.642,-56.0054 L 541.183,-56.2392 L 540.751,-56.5196
 L 540.351,-56.8437 L 539.987,-57.2079 L 539.662,-57.6081 L 539.382,-58.04 L 539.148,-58.4989 L 538.964,-58.9796
 L 538.83,-59.4771 L 538.75,-59.9857 L 538.723,-60.5 L 538.75,-61.0143 L 538.83,-61.5229 L 538.964,-62.0204
 L 539.148,-62.5011 L 539.382,-62.96 L 539.662,-63.3919 L 539.987,-63.7921 L 540.351,-64.1563 L 540.751,-64.4804
 L 541.093,-64.7024 L 541.093,-74 L 541.149,-74.5302 L 541.313,-75.0372 L 541.58,-75.4988 L 541.937,-75.895
 L 542.368,-76.2084 L 542.855,-76.4252 L 543.376,-76.536 L 543.909,-76.536 L 544.431,-76.4252 L 544.918,-76.2084
 L 545.349,-75.895 L 545.706,-75.4988 L 545.972,-75.0372 L 546.137,-74.5302 L 546.193,-74 L 546.193,-64.7024
 L 546.535,-64.4804 L 546.935,-64.1563 L 547.299,-63.7921 L 547.623,-63.3919 L 547.904,-62.96 L 548.137,-62.5011
 L 548.322,-62.0204 L 548.455,-61.5229 L 548.536,-61.0143 L 548.563,-60.5 L 548.536,-59.9857 L 548.455,-59.4771
 L 548.322,-58.9796 L 548.137,-58.4989 L 547.904,-58.04 L 547.623,-57.6081 L 547.299,-57.2079 L 546.935,-56.8437
 L 546.535,-56.5196 L 546.103,-56.2392 L 545.644,-56.0054 L 545.163,-55.8208 L 544.666,-55.6875 L 544.157,-55.607
 L 543.643,-55.58 z
M 721.843,-55.607 L 721.334,-55.6875 L 720.837,-55.8208 L 720.356,-56.0054 L 719.897,-56.2392 L 719.465,-56.5196
 L 719.065,-56.8437 L 718.701,-57.2079 L 718.377,-57.6081 L 718.096,-58.04 L 717.863,-58.4989 L 717.678,-58.9796
 L 717.545,-59.4771 L 717.464,-59.9857 L 717.437,-60.5 L 717.464,-61.0143 L 717.545,-61.5229 L 717.678,-62.0204
 L 717.863,-62.5011 L 718.096,-62.96 L 718.377,-63.3919 L 718.701,-63.7921 L 719.065,-64.1563 L 719.465,-64.4804
 L 719.807,-64.7024 L 719.807,-74 L 719.863,-74.5302 L 720.028,-75.0372 L 720.294,-75.4988 L 720.651,-75.895
 L 721.082,-76.2084 L 721.569,-76.4252 L 722.091,-76.536 L 722.624,-76.536 L 723.145,-76.4252 L 723.632,-76.2084
 L 724.063,-75.895 L 724.42,-75.4988 L 724.687,-75.0372 L 724.851,-74.5302 L 724.907,-74 L 724.907,-64.7024
 L 725.249,-64.4804 L 725.649,-64.1563 L 726.013,-63.7921 L 726.337,-63.3919 L 726.618,-62.96 L 726.852,-62.5011
 L 727.036,-62.0204 L 727.17,-61.5229 L 727.25,-61.0143 L 727.277,-60.5 L 727.25,-59.9857 L 727.17,-59.4771
 L 727.036,-58.9796 L 726.852,-58.4989 L 726.618,-58.04 L 726.337,-57.6081 L 726.013,-57.2079 L 725.649,-56.8437
 L 725.249,-56.5196 L 724.817,-56.2392 L 724.358,-56.0054 L 723.877,-55.8208 L 723.38,-55.6875 L 722.871,-55.607
 L 722.357,-55.58 z
M 900.557,-55.607 L 900.049,-55.6875 L 899.551,-55.8208 L 899.07,-56.0054 L 898.611,-56.2392 L 898.18,-56.5196
 L 897.779,-56.8437 L 897.415,-57.2079 L 897.091,-57.6081 L 896.811,-58.04 L 896.577,-58.4989 L 896.392,-58.9796
 L 896.259,-59.4771 L 896.178,-59.9857 L 896.151,-60.5 L 896.178,-61.0143 L 896.259,-61.5229 L 896.392,-62.0204
 L 896.577,-62.5011 L 896.811,-62.96 L 897.091,-63.3919 L 897.415,-63.7921 L 897.779,-64.1563 L 898.18,-64.4804
 L 898.521,-64.7024 L 898.521,-74 L 898.577,-74.5302 L 898.742,-75.0372 L 899.008,-75.4988 L 899.365,-75.895
 L 899.796,-76.2084 L 900.283,-76.4252 L 900.805,-76.536 L 901.338,-76.536 L 901.859,-76.4252 L 902.346,-76.2084
 L 902.778,-75.895 L 903.134,-75.4988 L 903.401,-75.0372 L 903.566,-74.5302 L 903.621,-74 L 903.621,-64.7024
 L 903.963,-64.4804 L 904.364,-64.1563 L 904.728,-63.7921 L 905.052,-63.3919 L 905.332,-62.96 L 905.566,-62.5011
 L 905.751,-62.0204 L 905.884,-61.5229 L 905.964,-61.0143 L 905.991,-60.5 L 905.964,-59.9857 L 905.884,-59.4771
 L 905.751,-58.9796 L 905.566,-58.4989 L 905.332,-58.04 L 905.052,-57.6081 L 904.728,-57.2079 L 904.364,-56.8437
 L 903.963,-56.5196 L 903.531,-56.2392 L 903.073,-56.0054 L 902.592,-55.8208 L 902.094,-55.6875 L 901.586,-55.607
 L 901.071,-55.58 z
M 1079.27,-55.607 L 1078.76,-55.6875 L 1078.27,-55.8208 L 1077.78,-56.0054 L 1077.33,-56.2392 L 1076.89,-56.5196
 L 1076.49,-56.8437 L 1076.13,-57.2079 L 1075.81,-57.6081 L 1075.52,-58.04 L 1075.29,-58.4989 L 1075.11,-58.9796
 L 1074.97,-59.4771 L 1074.89,-59.9857 L 1074.87,-60.5 L 1074.89,-61.0143 L 1074.97,-61.5229 L 1075.11,-62.0204
 L 1075.29,-62.5011 L 1075.52,-62.96 L 1075.81,-63.3919 L 1076.13,-63.7921 L 1076.49,-64.1563 L 1076.89,-64.4804
 L 1077.24,-64.7024 L 1077.24,-74 L 1077.29,-74.5302 L 1077.46,-75.0372 L 1077.72,-75.4988 L 1078.08,-75.895
 L 1078.51,-76.2084 L 1079,-76.4252 L 1079.52,-76.536 L 1080.05,-76.536 L 1080.57,-76.4252 L 1081.06,-76.2084
 L 1081.49,-75.895 L 1081.85,-75.4988 L 1082.12,-75.0372 L 1082.28,-74.5302 L 1082.34,-74 L 1082.34,-64.7024
 L 1082.68,-64.4804 L 1083.08,-64.1563 L 1083.44,-63.7921 L 1083.77,-63.3919 L 1084.05,-62.96 L 1084.28,-62.5011
 L 1084.46,-62.0204 L 1084.6,-61.5229 L 1084.68,-61.0143 L 1084.71,-60.5 L 1084.68,-59.9857 L 1084.6,-59.4771
 L 1084.46,-58.9796 L 1084.28,-58.4989 L 1084.05,-58.04 L 1083.77,-57.6081 L 1083.44,-57.2079 L 1083.08,-56.8437
 L 1082.68,-56.5196 L 1082.25,-56.2392 L 1081.79,-56.0054 L 1081.31,-55.8208 L 1080.81,-55.6875 L 1080.3,-55.607
 L 1079.79,-55.58 z
M 1257.99,-55.607 L 1257.48,-55.6875 L 1256.98,-55.8208 L 1256.5,-56.0054 L 1256.04,-56.2392 L 1255.61,-56.5196
 L 1255.21,-56.8437 L 1254.84,-57.2079 L 1254.52,-57.6081 L 1254.24,-58.04 L 1254.01,-58.4989 L 1253.82,-58.9796
 L 1253.69,-59.4771 L 1253.61,-59.9857 L 1253.58,-60.5 L 1253.61,-61.0143 L 1253.69,-61.5229 L 1253.82,-62.0204
 L 1254.01,-62.5011 L 1254.24,-62.96 L 1254.52,-63.3919 L 1254.84,-63.7921 L 1255.21,-64.1563 L 1255.61,-64.4804
 L 1255.95,-64.7024 L 1255.95,-74 L 1256.01,-74.5302 L 1256.17,-75.0372 L 1256.44,-75.4988 L 1256.79,-75.895
 L 1257.23,-76.2084 L 1257.71,-76.4252 L 1258.23,-76.536 L 1258.77,-76.536 L 1259.29,-76.4252 L 1259.77,-76.2084
 L 1260.21,-75.895 L 1260.56,-75.4988 L 1260.83,-75.0372 L 1260.99,-74.5302 L 1261.05,-74 L 1261.05,-64.7024
 L 1261.39,-64.4804 L 1261.79,-64.1563 L 1262.16,-63.7921 L 1262.48,-63.3919 L 1262.76,-62.96 L 1262.99,-62.5011
 L 1263.18,-62.0204 L 1263.31,-61.5229 L 1263.39,-61.0143 L 1263.42,-60.5 L 1263.39,-59.9857 L 1263.31,-59.4771
 L 1263.18,-58.9796 L 1262.99,-58.4989 L 1262.76,-58.04 L 1262.48,-57.6081 L 1262.16,-57.2079 L 1261.79,-56.8437
 L 1261.39,-56.5196 L 1260.96,-56.2392 L 1260.5,-56.0054 L 1260.02,-55.8208 L 1259.52,-55.6875 L 1259.01,-55.607
 L 1258.5,-55.58 z
M 734.311,-20.9781 L 733.531,-21.28 L 732.831,-21.7375 L 732.241,-22.3306 L 731.788,-23.0332 L 731.49,-23.8148
 L 731.357,-24.8387 L 731.357,-58 L 731.445,-58.8316 L 731.703,-59.627 L 732.121,-60.3511 L 732.681,-60.9726
 L 733.357,-61.4641 L 734.121,-61.8042 L 735.357,-62 L 822.51,-62 L 823.342,-61.9126 L 824.137,-61.6542
 L 824.861,-61.2361 L 825.483,-60.6765 L 825.974,-60 L 826.314,-59.2361 L 826.488,-58.4181 L 826.488,-57.5819
 L 826.314,-56.7639 L 825.974,-56 L 825.483,-55.3235 L 824.861,-54.7639 L 823.933,-54.2615 L 736.78,-21.1002
 L 735.971,-20.8861 L 735.136,-20.8448 z
M 632.386,-47.8024 L 631.577,-48.0165 L 615.165,-54.2615 L 614.236,-54.7639 L 613.615,-55.3235 L 613.123,-56
 L 612.783,-56.7639 L 612.609,-57.5819 L 612.609,-58.4181 L 612.783,-59.2361 L 613.123,-60 L 613.615,-60.6765
 L 614.236,-61.2361 L 614.96,-61.6542 L 615.755,-61.9126 L 616.587,-62 L 649.413,-62 L 650.459,-61.8606
 L 651.239,-61.5587 L 651.939,-61.1012 L 652.529,-60.5081 L 652.982,-59.8055 L 653.28,-59.0239 L 653.408,-58.1976
 L 653.362,-57.3627 L 653.143,-56.5556 L 652.761,-55.8116 L 652.233,-55.1633 L 651.582,-54.6389 L 650.835,-54.2615
 L 634.422,-48.0165 L 633.221,-47.7611 z
M 530.029,-20.8861 L 529.22,-21.1002 L 442.067,-54.2615 L 441.139,-54.7639 L 440.517,-55.3235 L 440.026,-56
 L 439.686,-56.7639 L 439.512,-57.5819 L 439.512,-58.4181 L 439.686,-59.2361 L 440.026,-60 L 440.517,-60.6765
 L 441.139,-61.2361 L 441.863,-61.6542 L 442.658,-61.9126 L 443.49,-62 L 530.643,-62 L 531.879,-61.8042
 L 532.643,-61.4641 L 533.319,-60.9726 L 533.879,-60.3511 L 534.297,-59.627 L 534.555,-58.8316 L 534.643,-58
 L 534.643,-24.8387 L 534.51,-23.8148 L 534.212,-23.0332 L 533.759,-22.3306 L 533.169,-21.7375 L 532.469,-21.28
 L 531.689,-20.9781 L 530.864,-20.8448 z
M 351.314,-20.8861 L 350.506,-21.1002 L 263.353,-54.2615 L 262.425,-54.7639 L 261.803,-55.3235 L 261.312,-56
 L 260.971,-56.7639 L 260.798,-57.5819 L 260.798,-58.4181 L 260.971,-59.2361 L 261.312,-60 L 261.803,-60.6765
 L 262.425,-61.2361 L 263.149,-61.6542 L 263.944,-61.9126 L 264.776,-62 L 351.929,-62 L 353.165,-61.8042
 L 353.929,-61.4641 L 354.605,-60.9726 L 355.165,-60.3511 L 355.583,-59.627 L 355.841,-58.8316 L 355.929,-58
 L 355.929,-24.8387 L 355.795,-23.8148 L 355.498,-23.0332 L 355.045,-22.3306 L 354.455,-21.7375 L 353.755,-21.28
 L 352.975,-20.9781 L 352.15,-20.8448 z
M 1091.74,-20.9781 L 1090.96,-21.28 L 1090.26,-21.7375 L 1089.67,-22.3306 L 1089.22,-23.0332 L 1088.92,-23.8148
 L 1088.79,-24.8387 L 1088.79,-58 L 1088.87,-58.8316 L 1089.13,-59.627 L 1089.55,-60.3511 L 1090.11,-60.9726
 L 1090.79,-61.4641 L 1091.55,-61.8042 L 1092.79,-62 L 1179.94,-62 L 1180.77,-61.9126 L 1181.57,-61.6542
 L 1182.29,-61.2361 L 1182.91,-60.6765 L 1183.4,-60 L 1183.74,-59.2361 L 1183.92,-58.4181 L 1183.92,-57.5819
 L 1183.74,-56.7639 L 1183.4,-56 L 1182.91,-55.3235 L 1182.29,-54.7639 L 1181.36,-54.2615 L 1094.21,-21.1002
 L 1093.4,-20.8861 L 1092.56,-20.8448 z
M 172.6,-20.8861 L 171.792,-21.1002 L 84.6389,-54.2615 L 83.7102,-54.7639 L 83.0888,-55.3235 L 82.5973,-56
 L 82.2571,-56.7639 L 82.0833,-57.5819 L 82.0833,-58.4181 L 82.2571,-59.2361 L 82.5973,-60 L 83.0888,-60.6765
 L 83.7102,-61.2361 L 84.4344,-61.6542 L 85.2297,-61.9126 L 86.0614,-62 L 173.214,-62 L 174.45,-61.8042
 L 175.214,-61.4641 L 175.891,-60.9726 L 176.45,-60.3511 L 176.868,-59.627 L 177.127,-58.8316 L 177.214,-58
 L 177.214,-24.8387 L 177.081,-23.8148 L 176.784,-23.0332 L 176.33,-22.3306 L 175.741,-21.7375 L 175.041,-21.28
 L 174.261,-20.9781 L 173.435,-20.8448 z
M 913.025,-20.9781 L 912.245,-21.28 L 911.545,-21.7375 L 910.955,-22.3306 L 910.502,-23.0332 L 910.205,-23.8148
 L 910.071,-24.8387 L 910.071,-58 L 910.159,-58.8316 L 910.417,-59.627 L 910.835,-60.3511 L 911.395,-60.9726
 L 912.071,-61.4641 L 912.835,-61.8042 L 914.071,-62 L 1001.22,-62 L 1002.06,-61.9126 L 1002.85,-61.6542
 L 1003.58,-61.2361 L 1004.2,-60.6765 L 1004.69,-60 L 1005.03,-59.2361 L 1005.2,-58.4181 L 1005.2,-57.5819
 L 1005.03,-56.7639 L 1004.69,-56 L 1004.2,-55.3235 L 1003.58,-54.7639 L 1002.65,-54.2615 L 915.494,-21.1002
 L 914.686,-20.8861 L 913.85,-20.8448 z
M 556.225,-18.7234 L 555.407,-18.8972 L 554.643,-19.2374 L 553.966,-19.7289 L 553.407,-20.3503 L 552.989,-21.0745
 L 552.73,-21.8698 L 552.643,-22.7014 L 552.643,-57.2986 L 552.776,-58.3225 L 553.074,-59.104 L 553.527,-59.8067
 L 554.116,-60.3997 L 554.816,-60.8572 L 555.596,-61.1592 L 556.422,-61.2924 L 557.257,-61.2511 L 558.065,-61.0371
 L 603.529,-43.7385 L 603.933,-43.5587 L 604.632,-43.1012 L 605.222,-42.5081 L 605.675,-41.8055 L 605.973,-41.0239
 L 606.101,-40.1976 L 606.055,-39.3627 L 605.836,-38.5556 L 605.454,-37.8116 L 604.926,-37.1633 L 604.275,-36.6389
 L 603.529,-36.2615 L 558.065,-18.9629 L 557.061,-18.7234 z
M 708.743,-18.7489 L 707.935,-18.9629 L 662.471,-36.2615 L 662.067,-36.4413 L 661.367,-36.8988 L 660.778,-37.4919
 L 660.325,-38.1945 L 660.027,-38.9761 L 659.899,-39.8024 L 659.945,-40.6373 L 660.164,-41.4444 L 660.546,-42.1884
 L 661.074,-42.8367 L 661.725,-43.3611 L 662.471,-43.7385 L 707.935,-61.0371 L 708.939,-61.2767 L 709.775,-61.2767
 L 710.593,-61.1028 L 711.357,-60.7627 L 712.034,-60.2711 L 712.593,-59.6497 L 713.011,-58.9255 L 713.27,-58.1302
 L 713.357,-57.2986 L 713.357,-22.7014 L 713.224,-21.6775 L 712.926,-20.896 L 712.473,-20.1933 L 711.884,-19.6003
 L 711.184,-19.1428 L 710.404,-18.8408 L 709.578,-18.7076 z
M 199.214,-18 L 197.978,-18.1958 L 197.214,-18.5359 L 196.538,-19.0274 L 195.978,-19.6489 L 195.56,-20.373
 L 195.302,-21.1684 L 195.214,-22 L 195.214,-55.1613 L 195.348,-56.1852 L 195.645,-56.9668 L 196.098,-57.6694
 L 196.688,-58.2625 L 197.388,-58.72 L 198.168,-59.0219 L 198.993,-59.1552 L 199.828,-59.1139 L 200.637,-58.8998
 L 287.79,-25.7385 L 288.718,-25.2361 L 289.34,-24.6765 L 289.831,-24 L 290.171,-23.2361 L 290.345,-22.4181
 L 290.345,-21.5819 L 290.171,-20.7639 L 289.831,-20 L 289.34,-19.3235 L 288.718,-18.7639 L 287.994,-18.3458
 L 287.199,-18.0874 L 286.367,-18 z
M 377.929,-18 L 376.692,-18.1958 L 375.929,-18.5359 L 375.252,-19.0274 L 374.692,-19.6489 L 374.274,-20.373
 L 374.016,-21.1684 L 373.929,-22 L 373.929,-55.1613 L 374.062,-56.1852 L 374.359,-56.9668 L 374.813,-57.6694
 L 375.402,-58.2625 L 376.102,-58.72 L 376.882,-59.0219 L 377.707,-59.1552 L 378.543,-59.1139 L 379.351,-58.8998
 L 466.504,-25.7385 L 467.433,-25.2361 L 468.054,-24.6765 L 468.546,-24 L 468.886,-23.2361 L 469.06,-22.4181
 L 469.06,-21.5819 L 468.886,-20.7639 L 468.546,-20 L 468.054,-19.3235 L 467.433,-18.7639 L 466.708,-18.3458
 L 465.913,-18.0874 L 465.081,-18 z
M 800.919,-18 L 800.087,-18.0874 L 799.292,-18.3458 L 798.567,-18.7639 L 797.946,-19.3235 L 797.454,-20
 L 797.114,-20.7639 L 796.94,-21.5819 L 796.94,-22.4181 L 797.114,-23.2361 L 797.454,-24 L 797.946,-24.6765
 L 798.567,-25.2361 L 799.496,-25.7385 L 886.649,-58.8998 L 887.457,-59.1139 L 888.293,-59.1552 L 889.118,-59.0219
 L 889.898,-58.72 L 890.598,-58.2625 L 891.187,-57.6694 L 891.641,-56.9668 L 891.938,-56.1852 L 892.071,-55.1613
 L 892.071,-22 L 891.984,-21.1684 L 891.726,-20.373 L 891.307,-19.6489 L 890.748,-19.0274 L 890.071,-18.5359
 L 889.307,-18.1958 L 888.071,-18 z
M 979.633,-18 L 978.801,-18.0874 L 978.006,-18.3458 L 977.282,-18.7639 L 976.66,-19.3235 L 976.169,-20
 L 975.829,-20.7639 L 975.655,-21.5819 L 975.655,-22.4181 L 975.829,-23.2361 L 976.169,-24 L 976.66,-24.6765
 L 977.282,-25.2361 L 978.21,-25.7385 L 1065.36,-58.8998 L 1066.17,-59.1139 L 1067.01,-59.1552 L 1067.83,-59.0219
 L 1068.61,-58.72 L 1069.31,-58.2625 L 1069.9,-57.6694 L 1070.36,-56.9668 L 1070.65,-56.1852 L 1070.79,-55.1613
 L 1070.79,-22 L 1070.7,-21.1684 L 1070.44,-20.373 L 1070.02,-19.6489 L 1069.46,-19.0274 L 1068.79,-18.5359
 L 1068.02,-18.1958 L 1066.79,-18 z
M 22,-18 L 20.7639,-18.1958 L 20,-18.5359 L 19.3235,-19.0274 L 18.7639,-19.6489 L 18.3458,-20.373
 L 18.0874,-21.1684 L 18,-22 L 18,-54.5905 L 18.1333,-55.6145 L 18.4306,-56.396 L 18.884,-57.0987
 L 19.4736,-57.6917 L 20.1736,-58.1492 L 20.9534,-58.4512 L 21.7789,-58.5844 L 22.6141,-58.5431 L 23.4225,-58.3291
 L 109.075,-25.7385 L 110.004,-25.2361 L 110.625,-24.6765 L 111.117,-24 L 111.457,-23.2361 L 111.631,-22.4181
 L 111.631,-21.5819 L 111.457,-20.7639 L 111.117,-20 L 110.625,-19.3235 L 110.004,-18.7639 L 109.28,-18.3458
 L 108.485,-18.0874 L 107.653,-18 z
M 1158.35,-18 L 1157.52,-18.0874 L 1156.72,-18.3458 L 1156,-18.7639 L 1155.37,-19.3235 L 1154.88,-20
 L 1154.54,-20.7639 L 1154.37,-21.5819 L 1154.37,-22.4181 L 1154.54,-23.2361 L 1154.88,-24 L 1155.37,-24.6765
 L 1156,-25.2361 L 1156.92,-25.7385 L 1242.58,-58.3291 L 1243.39,-58.5431 L 1244.22,-58.5844 L 1245.05,-58.4512
 L 1245.83,-58.1492 L 1246.53,-57.6917 L 1247.12,-57.0987 L 1247.57,-56.396 L 1247.87,-55.6145 L 1248,-54.5905
 L 1248,-22 L 1247.91,-21.1684 L 1247.65,-20.373 L 1247.24,-19.6489 L 1246.68,-19.0274 L 1246,-18.5359
 L 1245.24,-18.1958 L 1244,-18 z
M 616.587,-18 L 615.541,-18.1394 L 614.761,-18.4413 L 614.061,-18.8988 L 613.471,-19.4919 L 613.018,-20.1945
 L 612.72,-20.9761 L 612.592,-21.8024 L 612.638,-22.6373 L 612.857,-23.4444 L 613.239,-24.1884 L 613.767,-24.8367
 L 614.418,-25.3611 L 615.165,-25.7385 L 631.577,-31.9835 L 632.779,-32.2389 L 633.614,-32.1976 L 634.422,-31.9835
 L 650.835,-25.7385 L 651.764,-25.2361 L 652.385,-24.6765 L 652.877,-24 L 653.217,-23.2361 L 653.391,-22.4181
 L 653.391,-21.5819 L 653.217,-20.7639 L 652.877,-20 L 652.385,-19.3235 L 651.764,-18.7639 L 651.04,-18.3458
 L 650.244,-18.0874 L 649.413,-18 z
" stroke="black" fill="lightgray" stroke-width="0.5"/>
</svg>
