<?xml version="1.0" standalone="no"?>
<!DOCTYPE svg PUBLIC "-//W3C//DTD SVG 1.1//EN" "http://www.w3.org/Graphics/SVG/1.1/DTD/svg11.dtd">
<svg width="1484mm" height="80mm" viewBox="0 -80 1484 80" xmlns="http://www.w3.org/2000/svg" version="1.1">
<title>OpenSCAD Model</title>
<path d="
M 1484,-80 L 0,-80 L 0,-0 L 4.95,-0 L 4.95,-6 L 5.00572,-6.53017
 L 5.17046,-7.03717 L 5.437,-7.49884 L 5.79372,-7.895 L 6.22499,-8.20836 L 6.71201,-8.42519 L 7.23344,-8.53603
 L 7.76654,-8.53603 L 8.28798,-8.42519 L 8.77499,-8.20836 L 9.20627,-7.895 L 9.56299,-7.49884 L 9.82953,-7.03717
 L 9.99426,-6.53017 L 10.05,-6 L 10.05,-0 L 188.575,-0 L 188.575,-6 L 188.631,-6.53017
 L 188.795,-7.03717 L 189.062,-7.49884 L 189.419,-7.895 L 189.85,-8.20836 L 190.337,-8.42519 L 190.858,-8.53603
 L 191.392,-8.53603 L 191.913,-8.42519 L 192.4,-8.20836 L 192.831,-7.895 L 193.188,-7.49884 L 193.455,-7.03717
 L 193.619,-6.53017 L 193.675,-6 L 193.675,-0 L 372.2,-0 L 372.2,-6 L 372.256,-6.53017
 L 372.42,-7.03717 L 372.687,-7.49884 L 373.044,-7.895 L 373.475,-8.20836 L 373.962,-8.42519 L 374.483,-8.53603
 L 375.017,-8.53603 L 375.538,-8.42519 L 376.025,-8.20836 L 376.456,-7.895 L 376.813,-7.49884 L 377.08,-7.03717
 L 377.244,-6.53017 L 377.3,-6 L 377.3,-0 L 555.825,-0 L 555.825,-6 L 555.881,-6.53017
 L 556.045,-7.03717 L 556.312,-7.49884 L 556.669,-7.895 L 557.1,-8.20836 L 557.587,-8.42519 L 558.108,-8.53603
 L 558.642,-8.53603 L 559.163,-8.42519 L 559.65,-8.20836 L 560.081,-7.895 L 560.438,-7.49884 L 560.705,-7.03717
 L 560.869,-6.53017 L 560.925,-6 L 560.925,-0 L 739.45,-0 L 739.45,-6 L 739.506,-6.53017
 L 739.67,-7.03717 L 739.937,-7.49884 L 740.294,-7.895 L 740.725,-8.20836 L 741.212,-8.42519 L 741.733,-8.53603
 L 742.267,-8.53603 L 742.788,-8.42519 L 743.275,-8.20836 L 743.706,-7.895 L 744.063,-7.49884 L 744.33,-7.03717
 L 744.494,-6.53017 L 744.55,-6 L 744.55,-0 L 923.075,-0 L 923.075,-6 L 923.131,-6.53017
 L 923.295,-7.03717 L 923.562,-7.49884 L 923.919,-7.895 L 924.35,-8.20836 L 924.837,-8.42519 L 925.358,-8.53603
 L 925.892,-8.53603 L 926.413,-8.42519 L 926.9,-8.20836 L 927.331,-7.895 L 927.688,-7.49884 L 927.955,-7.03717
 L 928.119,-6.53017 L 928.175,-6 L 928.175,-0 L 1106.7,-0 L 1106.7,-6 L 1106.76,-6.53017
 L 1106.92,-7.03717 L 1107.19,-7.49884 L 1107.54,-7.895 L 1107.97,-8.20836 L 1108.46,-8.42519 L 1108.98,-8.53603
 L 1109.52,-8.53603 L 1110.04,-8.42519 L 1110.52,-8.20836 L 1110.96,-7.895 L 1111.31,-7.49884 L 1111.58,-7.03717
 L 1111.74,-6.53017 L 1111.8,-6 L 1111.8,-0 L 1290.32,-0 L 1290.32,-6 L 1290.38,-6.53017
 L 1290.55,-7.03717 L 1290.81,-7.49884 L 1291.17,-7.895 L 1291.6,-8.20836 L 1292.09,-8.42519 L 1292.61,-8.53603
 L 1293.14,-8.53603 L 1293.66,-8.42519 L 1294.15,-8.20836 L 1294.58,-7.895 L 1294.94,-7.49884 L 1295.2,-7.03717
 L 1295.37,-6.53017 L 1295.42,-6 L 1295.42,-0 L 1473.95,-0 L 1473.95,-6 L 1474.01,-6.53017
 L 1474.17,-7.03717 L 1474.44,-7.49884 L 1474.79,-7.895 L 1475.22,-8.20836 L 1475.71,-8.42519 L 1476.23,-8.53603
 L 1476.77,-8.53603 L 1477.29,-8.42519 L 1477.77,-8.20836 L 1478.21,-7.895 L 1478.56,-7.49884 L 1478.83,-7.03717
 L 1478.99,-6.53017 L 1479.05,-6 L 1479.05,-0 L 1484,-0 z
M 190.611,-55.607 L 190.102,-55.6875 L 189.605,-55.8208 L 189.124,-56.0054 L 188.665,-56.2392 L 188.233,-56.5196
 L 187.833,-56.8437 L 187.469,-57.2079 L 187.145,-57.6081 L 186.864,-58.04 L 186.63,-58.4989 L 186.446,-58.9796
 L 186.313,-59.4771 L 186.232,-59.9857 L 186.205,-60.5 L 186.232,-61.0143 L 186.313,-61.5229 L 186.446,-62.0204
 L 186.63,-62.5011 L 186.864,-62.96 L 187.145,-63.3919 L 187.469,-63.7921 L 187.833,-64.1563 L 188.233,-64.4804
 L 188.575,-64.7024 L 188.575,-74 L 188.631,-74.5302 L 188.795,-75.0372 L 189.062,-75.4988 L 189.419,-75.895
 L 189.85,-76.2084 L 190.337,-76.4252 L 190.858,-76.536 L 191.392,-76.536 L 191.913,-76.4252 L 192.4,-76.2084
 L 192.831,-75.895 L 193.188,-75.4988 L 193.455,-75.0372 L 193.619,-74.5302 L 193.675,-74 L 193.675,-64.7024
 L 194.017,-64.4804 L 194.417,-64.1563 L 194.781,-63.7921 L 195.105,-63.3919 L 195.386,-62.96 L 195.62,-62.5011
 L 195.804,-62.0204 L 195.937,-61.5229 L 196.018,-61.0143 L 196.045,-60.5 L 196.018,-59.9857 L 195.937,-59.4771
 L 195.804,-58.9796 L 195.62,-58.4989 L 195.386,-58.04 L 195.105,-57.6081 L 194.781,-57.2079 L 194.417,-56.8437
 L 194.017,-56.5196 L 193.585,-56.2392 L 193.126,-56.0054 L 192.645,-55.8208 L 192.148,-55.6875 L 191.639,-55.607
 L 191.125,-55.58 z
M 1108.74,-55.607 L 1108.23,-55.6875 L 1107.73,-55.8208 L 1107.25,-56.0054 L 1106.79,-56.2392 L 1106.36,-56.5196
 L 1105.96,-56.8437 L 1105.59,-57.2079 L 1105.27,-57.6081 L 1104.99,-58.04 L 1104.76,-58.4989 L 1104.57,-58.9796
 L 1104.44,-59.4771 L 1104.36,-59.9857 L 1104.33,-60.5 L 1104.36,-61.0143 L 1104.44,-61.5229 L 1104.57,-62.0204
 L 1104.76,-62.5011 L 1104.99,-62.96 L 1105.27,-63.3919 L 1105.59,-63.7921 L 1105.96,-64.1563 L 1106.36,-64.4804
 L 1106.7,-64.7024 L 1106.7,-74 L 1106.76,-74.5302 L 1106.92,-75.0372 L 1107.19,-75.4988 L 1107.54,-75.895
 L 1107.98,-76.2084 L 1108.46,-76.4252 L 1108.98,-76.536 L 1109.52,-76.536 L 1110.04,-76.4252 L 1110.52,-76.2084
 L 1110.96,-75.895 L 1111.31,-75.4988 L 1111.58,-75.0372 L 1111.74,-74.5302 L 1111.8,-74 L 1111.8,-64.7024
 L 1112.14,-64.4804 L 1112.54,-64.1563 L 1112.91,-63.7921 L 1113.23,-63.3919 L 1113.51,-62.96 L 1113.74,-62.5011
 L 1113.93,-62.0204 L 1114.06,-61.5229 L 1114.14,-61.0143 L 1114.17,-60.5 L 1114.14,-59.9857 L 1114.06,-59.4771
 L 1113.93,-58.9796 L 1113.74,-58.4989 L 1113.51,-58.04 L 1113.23,-57.6081 L 1112.91,-57.2079 L 1112.54,-56.8437
 L 1112.14,-56.5196 L 1111.71,-56.2392 L 1111.25,-56.0054 L 1110.77,-55.8208 L 1110.27,-55.6875 L 1109.76,-55.607
 L 1109.25,-55.58 z
M 925.111,-55.607 L 924.602,-55.6875 L 924.105,-55.8208 L 923.624,-56.0054 L 923.165,-56.2392 L 922.733,-56.5196
 L 922.333,-56.8437 L 921.969,-57.2079 L 921.645,-57.6081 L 921.364,-58.04 L 921.13,-58.4989 L 920.946,-58.9796
 L 920.813,-59.4771 L 920.732,-59.9857 L 920.705,-60.5 L 920.732,-61.0143 L 920.813,-61.5229 L 920.946,-62.0204
 L 921.13,-62.5011 L 921.364,-62.96 L 921.645,-63.3919 L 921.969,-63.7921 L 922.333,-64.1563 L 922.733,-64.4804
 L 923.075,-64.7024 L 923.075,-74 L 923.131,-74.5302 L 923.295,-75.0372 L 923.562,-75.4988 L 923.919,-75.895
 L 924.35,-76.2084 L 924.837,-76.4252 L 925.358,-76.536 L 925.892,-76.536 L 926.413,-76.4252 L 926.9,-76.2084
 L 927.331,-75.895 L 927.688,-75.4988 L 927.955,-75.0372 L 928.119,-74.5302 L 928.175,-74 L 928.175,-64.7024
 L 928.517,-64.4804 L 928.917,-64.1563 L 929.281,-63.7921 L 929.605,-63.3919 L 929.886,-62.96 L 930.12,-62.5011
 L 930.304,-62.0204 L 930.437,-61.5229 L 930.518,-61.0143 L 930.545,-60.5 L 930.518,-59.9857 L 930.437,-59.4771
 L 930.304,-58.9796 L 930.12,-58.4989 L 929.886,-58.04 L 929.605,-57.6081 L 929.281,-57.2079 L 928.917,-56.8437
 L 928.517,-56.5196 L 928.085,-56.2392 L 927.626,-56.0054 L 927.145,-55.8208 L 926.648,-55.6875 L 926.139,-55.607
 L 925.625,-55.58 z
M 6.98573,-55.607 L 6.47708,-55.6875 L 5.97964,-55.8208 L 5.49887,-56.0054 L 5.04001,-56.2392 L 4.60811,-56.5196
 L 4.20789,-56.8437 L 3.84373,-57.2079 L 3.51964,-57.6081 L 3.23917,-58.04 L 3.00537,-58.4989 L 2.82082,-58.9796
 L 2.68752,-59.4771 L 2.60696,-59.9857 L 2.58,-60.5 L 2.60696,-61.0143 L 2.68752,-61.5229 L 2.82082,-62.0204
 L 3.00537,-62.5011 L 3.23917,-62.96 L 3.51964,-63.3919 L 3.84373,-63.7921 L 4.20789,-64.1563 L 4.60811,-64.4804
 L 4.95001,-64.7024 L 4.95001,-74 L 5.00574,-74.5302 L 5.17047,-75.0372 L 5.43701,-75.4988 L 5.79373,-75.895
 L 6.22501,-76.2084 L 6.71202,-76.4252 L 7.23346,-76.536 L 7.76654,-76.536 L 8.28798,-76.4252 L 8.77499,-76.2084
 L 9.20627,-75.895 L 9.56299,-75.4988 L 9.82953,-75.0372 L 9.99426,-74.5302 L 10.05,-74 L 10.05,-64.7024
 L 10.3919,-64.4804 L 10.7921,-64.1563 L 11.1563,-63.7921 L 11.4804,-63.3919 L 11.7608,-62.96 L 11.9946,-62.5011
 L 12.1792,-62.0204 L 12.3125,-61.5229 L 12.393,-61.0143 L 12.42,-60.5 L 12.393,-59.9857 L 12.3125,-59.4771
 L 12.1792,-58.9796 L 11.9946,-58.4989 L 11.7608,-58.04 L 11.4804,-57.6081 L 11.1563,-57.2079 L 10.7921,-56.8437
 L 10.3919,-56.5196 L 9.95999,-56.2392 L 9.50113,-56.0054 L 9.02036,-55.8208 L 8.52292,-55.6875 L 8.01427,-55.607
 L 7.5,-55.58 z
M 741.486,-55.607 L 740.977,-55.6875 L 740.48,-55.8208 L 739.999,-56.0054 L 739.54,-56.2392 L 739.108,-56.5196
 L 738.708,-56.8437 L 738.344,-57.2079 L 738.02,-57.6081 L 737.739,-58.04 L 737.505,-58.4989 L 737.321,-58.9796
 L 737.188,-59.4771 L 737.107,-59.9857 L 737.08,-60.5 L 737.107,-61.0143 L 737.188,-61.5229 L 737.321,-62.0204
 L 737.505,-62.5011 L 737.739,-62.96 L 738.02,-63.3919 L 738.344,-63.7921 L 738.708,-64.1563 L 739.108,-64.4804
 L 739.45,-64.7024 L 739.45,-74 L 739.506,-74.5302 L 739.67,-75.0372 L 739.937,-75.4988 L 740.294,-75.895
 L 740.725,-76.2084 L 741.212,-76.4252 L 741.733,-76.536 L 742.267,-76.536 L 742.788,-76.4252 L 743.275,-76.2084
 L 743.706,-75.895 L 744.063,-75.4988 L 744.33,-75.0372 L 744.494,-74.5302 L 744.55,-74 L 744.55,-64.7024
 L 744.892,-64.4804 L 745.292,-64.1563 L 745.656,-63.7921 L 745.98,-63.3919 L 746.261,-62.96 L 746.495,-62.5011
 L 746.679,-62.0204 L 746.812,-61.5229 L 746.893,-61.0143 L 746.92,-60.5 L 746.893,-59.9857 L 746.812,-59.4771
 L 746.679,-58.9796 L 746.495,-58.4989 L 746.261,-58.04 L 745.98,-57.6081 L 745.656,-57.2079 L 745.292,-56.8437
 L 744.892,-56.5196 L 744.46,-56.2392 L 744.001,-56.0054 L 743.52,-55.8208 L 743.023,-55.6875 L 742.514,-55.607
 L 742,-55.58 z
M 1292.36,-55.607 L 1291.85,-55.6875 L 1291.35,-55.8208 L 1290.87,-56.0054 L 1290.42,-56.2392 L 1289.98,-56.5196
 L 1289.58,-56.8437 L 1289.22,-57.2079 L 1288.89,-57.6081 L 1288.61,-58.04 L 1288.38,-58.4989 L 1288.2,-58.9796
 L 1288.06,-59.4771 L 1287.98,-59.9857 L 1287.96,-60.5 L 1287.98,-61.0143 L 1288.06,-61.5229 L 1288.2,-62.0204
 L 1288.38,-62.5011 L 1288.61,-62.96 L 1288.89,-63.3919 L 1289.22,-63.7921 L 1289.58,-64.1563 L 1289.98,-64.4804
 L 1290.33,-64.7024 L 1290.33,-74 L 1290.38,-74.5302 L 1290.55,-75.0372 L 1290.81,-75.4988 L 1291.17,-75.895
 L 1291.6,-76.2084 L 1292.09,-76.4252 L 1292.61,-76.536 L 1293.14,-76.536 L 1293.66,-76.4252 L 1294.15,-76.2084
 L 1294.58,-75.895 L 1294.94,-75.4988 L 1295.2,-75.0372 L 1295.37,-74.5302 L 1295.42,-74 L 1295.42,-64.7024
 L 1295.77,-64.4804 L 1296.17,-64.1563 L 1296.53,-63.7921 L 1296.86,-63.3919 L 1297.14,-62.96 L 1297.37,-62.5011
 L 1297.55,-62.0204 L 1297.69,-61.5229 L 1297.77,-61.0143 L 1297.79,-60.5 L 1297.77,-59.9857 L 1297.69,-59.4771
 L 1297.55,-58.9796 L 1297.37,-58.4989 L 1297.14,-58.04 L 1296.86,-57.6081 L 1296.53,-57.2079 L 1296.17,-56.8437
 L 1295.77,-56.5196 L 1295.33,-56.2392 L 1294.88,-56.0054 L 1294.4,-55.8208 L 1293.9,-55.6875 L 1293.39,-55.607
 L 1292.88,-55.58 z
M 557.861,-55.607 L 557.352,-55.6875 L 556.855,-55.8208 L 556.374,-56.0054 L 555.915,-56.2392 L 555.483,-56.5196
 L 555.083,-56.8437 L 554.719,-57.2079 L 554.395,-57.6081 L 554.114,-58.04 L 553.88,-58.4989 L 553.696,-58.9796
 L 553.563,-59.4771 L 553.482,-59.9857 L 553.455,-60.5 L 553.482,-61.0143 L 553.563,-61.5229 L 553.696,-62.0204
 L 553.88,-62.5011 L 554.114,-62.96 L 554.395,-63.3919 L 554.719,-63.7921 L 555.083,-64.1563 L 555.483,-64.4804
 L 555.825,-64.7024 L 555.825,-74 L 555.881,-74.5302 L 556.045,-75.0372 L 556.312,-75.4988 L 556.669,-75.895
 L 557.1,-76.2084 L 557.587,-76.4252 L 558.108,-76.536 L 558.642,-76.536 L 559.163,-76.4252 L 559.65,-76.2084
 L 560.081,-75.895 L 560.438,-75.4988 L 560.705,-75.0372 L 560.869,-74.5302 L 560.925,-74 L 560.925,-64.7024
 L 561.267,-64.4804 L 561.667,-64.1563 L 562.031,-63.7921 L 562.355,-63.3919 L 562.636,-62.96 L 562.87,-62.5011
 L 563.054,-62.0204 L 563.187,-61.5229 L 563.268,-61.0143 L 563.295,-60.5 L 563.268,-59.9857 L 563.187,-59.4771
 L 563.054,-58.9796 L 562.87,-58.4989 L 562.636,-58.04 L 562.355,-57.6081 L 562.031,-57.2079 L 561.667,-56.8437
 L 561.267,-56.5196 L 560.835,-56.2392 L 560.376,-56.0054 L 559.895,-55.8208 L 559.398,-55.6875 L 558.889,-55.607
 L 558.375,-55.58 z
M 374.236,-55.607 L 373.727,-55.6875 L 373.23,-55.8208 L 372.749,-56.0054 L 372.29,-56.2392 L 371.858,-56.5196
 L 371.458,-56.8437 L 371.094,-57.2079 L 370.77,-57.6081 L 370.489,-58.04 L 370.255,-58.4989 L 370.071,-58.9796
 L 369.938,-59.4771 L 369.857,-59.9857 L 369.83,-60.5 L 369.857,-61.0143 L 369.938,-61.5229 L 370.071,-62.0204
 L 370.255,-62.5011 L 370.489,-62.96 L 370.77,-63.3919 L 371.094,-63.7921 L 371.458,-64.1563 L 371.858,-64.4804
 L 372.2,-64.7024 L 372.2,-74 L 372.256,-74.5302 L 372.42,-75.0372 L 372.687,-75.4988 L 373.044,-75.895
 L 373.475,-76.2084 L 373.962,-76.4252 L 374.483,-76.536 L 375.017,-76.536 L 375.538,-76.4252 L 376.025,-76.2084
 L 376.456,-75.895 L 376.813,-75.4988 L 377.08,-75.0372 L 377.244,-74.5302 L 377.3,-74 L 377.3,-64.7024
 L 377.642,-64.4804 L 378.042,-64.1563 L 378.406,-63.7921 L 378.73,-63.3919 L 379.011,-62.96 L 379.245,-62.5011
 L 379.429,-62.0204 L 379.562,-61.5229 L 379.643,-61.0143 L 379.67,-60.5 L 379.643,-59.9857 L 379.562,-59.4771
 L 379.429,-58.9796 L 379.245,-58.4989 L 379.011,-58.04 L 378.73,-57.6081 L 378.406,-57.2079 L 378.042,-56.8437
 L 377.642,-56.5196 L 377.21,-56.2392 L 376.751,-56.0054 L 376.27,-55.8208 L 375.773,-55.6875 L 375.264,-55.607
 L 374.75,-55.58 z
M 1475.99,-55.607 L 1475.48,-55.6875 L 1474.98,-55.8208 L 1474.5,-56.0054 L 1474.04,-56.2392 L 1473.61,-56.5196
 L 1473.21,-56.8437 L 1472.84,-57.2079 L 1472.52,-57.6081 L 1472.24,-58.04 L 1472.01,-58.4989 L 1471.82,-58.9796
 L 1471.69,-59.4771 L 1471.61,-59.9857 L 1471.58,-60.5 L 1471.61,-61.0143 L 1471.69,-61.5229 L 1471.82,-62.0204
 L 1472.01,-62.5011 L 1472.24,-62.96 L 1472.52,-63.3919 L 1472.84,-63.7921 L 1473.21,-64.1563 L 1473.61,-64.4804
 L 1473.95,-64.7024 L 1473.95,-74 L 1474.01,-74.5302 L 1474.17,-75.0372 L 1474.44,-75.4988 L 1474.79,-75.895
 L 1475.23,-76.2084 L 1475.71,-76.4252 L 1476.23,-76.536 L 1476.77,-76.536 L 1477.29,-76.4252 L 1477.77,-76.2084
 L 1478.21,-75.895 L 1478.56,-75.4988 L 1478.83,-75.0372 L 1478.99,-74.5302 L 1479.05,-74 L 1479.05,-64.7024
 L 1479.39,-64.4804 L 1479.79,-64.1563 L 1480.16,-63.7921 L 1480.48,-63.3919 L 1480.76,-62.96 L 1480.99,-62.5011
 L 1481.18,-62.0204 L 1481.31,-61.5229 L 1481.39,-61.0143 L 1481.42,-60.5 L 1481.39,-59.9857 L 1481.31,-59.4771
 L 1481.18,-58.9796 L 1480.99,-58.4989 L 1480.76,-58.04 L 1480.48,-57.6081 L 1480.16,-57.2079 L 1479.79,-56.8437
 L 1479.39,-56.5196 L 1478.96,-56.2392 L 1478.5,-56.0054 L 1478.02,-55.8208 L 1477.52,-55.6875 L 1477.01,-55.607
 L 1476.5,-55.58 z
M 361.171,-20.7076 L 360.361,-20.9145 L 270.346,-54.2489 L 269.384,-54.7639 L 268.762,-55.3235 L 268.271,-56
 L 267.93,-56.7639 L 267.757,-57.5819 L 267.757,-58.4181 L 267.93,-59.2361 L 268.271,-60 L 268.762,-60.6765
 L 269.384,-61.2361 L 270.108,-61.6542 L 270.903,-61.9126 L 271.735,-62 L 361.75,-62 L 362.986,-61.8042
 L 363.75,-61.4641 L 364.427,-60.9726 L 364.986,-60.3511 L 365.404,-59.627 L 365.663,-58.8316 L 365.75,-58
 L 365.75,-24.6655 L 365.626,-23.6761 L 365.335,-22.892 L 364.888,-22.1853 L 364.304,-21.587 L 363.608,-21.1233
 L 362.831,-20.8144 L 362.007,-20.6738 z
M 544.796,-20.7076 L 543.986,-20.9145 L 453.971,-54.2489 L 453.009,-54.7639 L 452.387,-55.3235 L 451.896,-56
 L 451.555,-56.7639 L 451.382,-57.5819 L 451.382,-58.4181 L 451.555,-59.2361 L 451.896,-60 L 452.387,-60.6765
 L 453.009,-61.2361 L 453.733,-61.6542 L 454.528,-61.9126 L 455.36,-62 L 545.375,-62 L 546.611,-61.8042
 L 547.375,-61.4641 L 548.052,-60.9726 L 548.611,-60.3511 L 549.029,-59.627 L 549.288,-58.8316 L 549.375,-58
 L 549.375,-24.6655 L 549.251,-23.6761 L 548.96,-22.892 L 548.513,-22.1853 L 547.929,-21.587 L 547.233,-21.1233
 L 546.456,-20.8144 L 545.632,-20.6738 z
M 1304.79,-20.8144 L 1304.02,-21.1233 L 1303.32,-21.587 L 1302.74,-22.1853 L 1302.29,-22.892 L 1302,-23.6761
 L 1301.88,-24.6655 L 1301.88,-58 L 1301.96,-58.8316 L 1302.22,-59.627 L 1302.64,-60.3511 L 1303.2,-60.9726
 L 1303.88,-61.4641 L 1304.64,-61.8042 L 1305.88,-62 L 1395.89,-62 L 1396.72,-61.9126 L 1397.52,-61.6542
 L 1398.24,-61.2361 L 1398.86,-60.6765 L 1399.35,-60 L 1399.69,-59.2361 L 1399.87,-58.4181 L 1399.87,-57.5819
 L 1399.69,-56.7639 L 1399.35,-56 L 1398.86,-55.3235 L 1398.24,-54.7639 L 1397.28,-54.2489 L 1307.26,-20.9145
 L 1306.45,-20.7076 L 1305.62,-20.6738 z
M 728.421,-20.7076 L 727.611,-20.9145 L 637.596,-54.2489 L 636.634,-54.7639 L 636.012,-55.3235 L 635.521,-56
 L 635.18,-56.7639 L 635.007,-57.5819 L 635.007,-58.4181 L 635.18,-59.2361 L 635.521,-60 L 636.012,-60.6765
 L 636.634,-61.2361 L 637.358,-61.6542 L 638.153,-61.9126 L 638.985,-62 L 729,-62 L 730.236,-61.8042
 L 731,-61.4641 L 731.677,-60.9726 L 732.236,-60.3511 L 732.654,-59.627 L 732.913,-58.8316 L 733,-58
 L 733,-24.6655 L 732.876,-23.6761 L 732.585,-22.892 L 732.138,-22.1853 L 731.554,-21.587 L 730.858,-21.1233
 L 730.081,-20.8144 L 729.257,-20.6738 z
M 177.546,-20.7076 L 176.736,-20.9145 L 86.7206,-54.2489 L 85.7586,-54.7639 L 85.1371,-55.3235 L 84.6456,-56
 L 84.3055,-56.7639 L 84.1316,-57.5819 L 84.1316,-58.4181 L 84.3055,-59.2361 L 84.6456,-60 L 85.1371,-60.6765
 L 85.7586,-61.2361 L 86.4827,-61.6542 L 87.278,-61.9126 L 88.1097,-62 L 178.125,-62 L 179.361,-61.8042
 L 180.125,-61.4641 L 180.802,-60.9726 L 181.361,-60.3511 L 181.779,-59.627 L 182.038,-58.8316 L 182.125,-58
 L 182.125,-24.6655 L 182.001,-23.6761 L 181.71,-22.892 L 181.263,-22.1853 L 180.679,-21.587 L 179.983,-21.1233
 L 179.206,-20.8144 L 178.382,-20.6738 z
M 753.919,-20.8144 L 753.142,-21.1233 L 752.446,-21.587 L 751.862,-22.1853 L 751.415,-22.892 L 751.124,-23.6761
 L 751,-24.6655 L 751,-58 L 751.087,-58.8316 L 751.346,-59.627 L 751.764,-60.3511 L 752.323,-60.9726
 L 753,-61.4641 L 753.764,-61.8042 L 755,-62 L 845.015,-62 L 845.847,-61.9126 L 846.642,-61.6542
 L 847.366,-61.2361 L 847.988,-60.6765 L 848.479,-60 L 848.82,-59.2361 L 848.993,-58.4181 L 848.993,-57.5819
 L 848.82,-56.7639 L 848.479,-56 L 847.988,-55.3235 L 847.366,-54.7639 L 846.404,-54.2489 L 756.389,-20.9145
 L 755.579,-20.7076 L 754.743,-20.6738 z
M 937.544,-20.8144 L 936.767,-21.1233 L 936.071,-21.587 L 935.487,-22.1853 L 935.04,-22.892 L 934.749,-23.6761
 L 934.625,-24.6655 L 934.625,-58 L 934.712,-58.8316 L 934.971,-59.627 L 935.389,-60.3511 L 935.948,-60.9726
 L 936.625,-61.4641 L 937.389,-61.8042 L 938.625,-62 L 1028.64,-62 L 1029.47,-61.9126 L 1030.27,-61.6542
 L 1030.99,-61.2361 L 1031.61,-60.6765 L 1032.1,-60 L 1032.44,-59.2361 L 1032.62,-58.4181 L 1032.62,-57.5819
 L 1032.44,-56.7639 L 1032.1,-56 L 1031.61,-55.3235 L 1030.99,-54.7639 L 1030.03,-54.2489 L 940.014,-20.9145
 L 939.204,-20.7076 L 938.368,-20.6738 z
M 1121.17,-20.8144 L 1120.39,-21.1233 L 1119.7,-21.587 L 1119.11,-22.1853 L 1118.66,-22.892 L 1118.37,-23.6761
 L 1118.25,-24.6655 L 1118.25,-58 L 1118.34,-58.8316 L 1118.6,-59.627 L 1119.01,-60.3511 L 1119.57,-60.9726
 L 1120.25,-61.4641 L 1121.01,-61.8042 L 1122.25,-62 L 1212.27,-62 L 1213.1,-61.9126 L 1213.89,-61.6542
 L 1214.62,-61.2361 L 1215.24,-60.6765 L 1215.73,-60 L 1216.07,-59.2361 L 1216.24,-58.4181 L 1216.24,-57.5819
 L 1216.07,-56.7639 L 1215.73,-56 L 1215.24,-55.3235 L 1214.62,-54.7639 L 1213.65,-54.2489 L 1123.64,-20.9145
 L 1122.83,-20.7076 L 1121.99,-20.6738 z
M 204.125,-18 L 202.889,-18.1958 L 202.125,-18.5359 L 201.448,-19.0274 L 200.889,-19.6489 L 200.471,-20.373
 L 200.212,-21.1684 L 200.125,-22 L 200.125,-55.3344 L 200.249,-56.3238 L 200.54,-57.108 L 200.987,-57.8147
 L 201.571,-58.413 L 202.267,-58.8767 L 203.044,-59.1856 L 203.868,-59.3262 L 204.704,-59.2923 L 205.514,-59.0855
 L 295.529,-25.7511 L 296.491,-25.2361 L 297.113,-24.6765 L 297.604,-24 L 297.945,-23.2361 L 298.118,-22.4181
 L 298.118,-21.5819 L 297.945,-20.7639 L 297.604,-20 L 297.113,-19.3235 L 296.491,-18.7639 L 295.767,-18.3458
 L 294.972,-18.0874 L 294.14,-18 z
M 387.75,-18 L 386.514,-18.1958 L 385.75,-18.5359 L 385.073,-19.0274 L 384.514,-19.6489 L 384.096,-20.373
 L 383.837,-21.1684 L 383.75,-22 L 383.75,-55.3344 L 383.874,-56.3238 L 384.165,-57.108 L 384.612,-57.8147
 L 385.196,-58.413 L 385.892,-58.8767 L 386.669,-59.1856 L 387.493,-59.3262 L 388.329,-59.2923 L 389.139,-59.0855
 L 479.154,-25.7511 L 480.116,-25.2361 L 480.738,-24.6765 L 481.229,-24 L 481.57,-23.2361 L 481.743,-22.4181
 L 481.743,-21.5819 L 481.57,-20.7639 L 481.229,-20 L 480.738,-19.3235 L 480.116,-18.7639 L 479.392,-18.3458
 L 478.597,-18.0874 L 477.765,-18 z
M 571.375,-18 L 570.139,-18.1958 L 569.375,-18.5359 L 568.698,-19.0274 L 568.139,-19.6489 L 567.721,-20.373
 L 567.462,-21.1684 L 567.375,-22 L 567.375,-55.3344 L 567.499,-56.3238 L 567.79,-57.108 L 568.237,-57.8147
 L 568.821,-58.413 L 569.517,-58.8767 L 570.294,-59.1856 L 571.118,-59.3262 L 571.954,-59.2923 L 572.764,-59.0855
 L 662.779,-25.7511 L 663.741,-25.2361 L 664.363,-24.6765 L 664.854,-24 L 665.195,-23.2361 L 665.368,-22.4181
 L 665.368,-21.5819 L 665.195,-20.7639 L 664.854,-20 L 664.363,-19.3235 L 663.741,-18.7639 L 663.017,-18.3458
 L 662.222,-18.0874 L 661.39,-18 z
M 822.61,-18 L 821.778,-18.0874 L 820.983,-18.3458 L 820.259,-18.7639 L 819.637,-19.3235 L 819.146,-20
 L 818.805,-20.7639 L 818.632,-21.5819 L 818.632,-22.4181 L 818.805,-23.2361 L 819.146,-24 L 819.637,-24.6765
 L 820.259,-25.2361 L 821.221,-25.7511 L 911.236,-59.0855 L 912.046,-59.2923 L 912.882,-59.3262 L 913.706,-59.1856
 L 914.483,-58.8767 L 915.179,-58.413 L 915.763,-57.8147 L 916.21,-57.108 L 916.501,-56.3238 L 916.625,-55.3344
 L 916.625,-22 L 916.538,-21.1684 L 916.279,-20.373 L 915.861,-19.6489 L 915.302,-19.0274 L 914.625,-18.5359
 L 913.861,-18.1958 L 912.625,-18 z
M 1006.23,-18 L 1005.4,-18.0874 L 1004.61,-18.3458 L 1003.88,-18.7639 L 1003.26,-19.3235 L 1002.77,-20
 L 1002.43,-20.7639 L 1002.26,-21.5819 L 1002.26,-22.4181 L 1002.43,-23.2361 L 1002.77,-24 L 1003.26,-24.6765
 L 1003.88,-25.2361 L 1004.85,-25.7511 L 1094.86,-59.0855 L 1095.67,-59.2923 L 1096.51,-59.3262 L 1097.33,-59.1856
 L 1098.11,-58.8767 L 1098.8,-58.413 L 1099.39,-57.8147 L 1099.84,-57.108 L 1100.13,-56.3238 L 1100.25,-55.3344
 L 1100.25,-22 L 1100.16,-21.1684 L 1099.9,-20.373 L 1099.49,-19.6489 L 1098.93,-19.0274 L 1098.25,-18.5359
 L 1097.49,-18.1958 L 1096.25,-18 z
M 1189.86,-18 L 1189.03,-18.0874 L 1188.23,-18.3458 L 1187.51,-18.7639 L 1186.89,-19.3235 L 1186.4,-20
 L 1186.06,-20.7639 L 1185.88,-21.5819 L 1185.88,-22.4181 L 1186.06,-23.2361 L 1186.4,-24 L 1186.89,-24.6765
 L 1187.51,-25.2361 L 1188.47,-25.7511 L 1278.49,-59.0855 L 1279.3,-59.2923 L 1280.13,-59.3262 L 1280.96,-59.1856
 L 1281.73,-58.8767 L 1282.43,-58.413 L 1283.01,-57.8147 L 1283.46,-57.108 L 1283.75,-56.3238 L 1283.88,-55.3344
 L 1283.88,-22 L 1283.79,-21.1684 L 1283.53,-20.373 L 1283.11,-19.6489 L 1282.55,-19.0274 L 1281.88,-18.5359
 L 1281.11,-18.1958 L 1279.88,-18 z
M 1373.48,-18 L 1372.65,-18.0874 L 1371.86,-18.3458 L 1371.13,-18.7639 L 1370.51,-19.3235 L 1370.02,-20
 L 1369.68,-20.7639 L 1369.51,-21.5819 L 1369.51,-22.4181 L 1369.68,-23.2361 L 1370.02,-24 L 1370.51,-24.6765
 L 1371.13,-25.2361 L 1372.1,-25.7511 L 1460.61,-58.53 L 1461.42,-58.7369 L 1462.26,-58.7707 L 1463.08,-58.6301
 L 1463.86,-58.3212 L 1464.55,-57.8575 L 1465.14,-57.2592 L 1465.59,-56.5526 L 1465.88,-55.7684 L 1466,-54.779
 L 1466,-22 L 1465.91,-21.1684 L 1465.65,-20.373 L 1465.24,-19.6489 L 1464.68,-19.0274 L 1464,-18.5359
 L 1463.24,-18.1958 L 1462,-18 z
M 22,-18 L 20.7639,-18.1958 L 20,-18.5359 L 19.3235,-19.0274 L 18.7639,-19.6489 L 18.3458,-20.373
 L 18.0874,-21.1684 L 18,-22 L 18,-54.779 L 18.1243,-55.7684 L 18.4147,-56.5526 L 18.8618,-57.2592
 L 19.446,-57.8575 L 20.1419,-58.3212 L 20.919,-58.6301 L 21.7433,-58.7707 L 22.5788,-58.7369 L 23.3891,-58.53
 L 111.904,-25.7511 L 112.866,-25.2361 L 113.488,-24.6765 L 113.979,-24 L 114.32,-23.2361 L 114.493,-22.4181
 L 114.493,-21.5819 L 114.32,-20.7639 L 113.979,-20 L 113.488,-19.3235 L 112.866,-18.7639 L 112.142,-18.3458
 L 111.347,-18.0874 L 110.515,-18 z
" stroke="black" fill="lightgray" stroke-width="0.5"/>
</svg>
