<?xml version="1.0" standalone="no"?>
<!DOCTYPE svg PUBLIC "-//W3C//DTD SVG 1.1//EN" "http://www.w3.org/Graphics/SVG/1.1/DTD/svg11.dtd">
<svg width="1350mm" height="80mm" viewBox="0 -80 1350 80" xmlns="http://www.w3.org/2000/svg" version="1.1">
<title>OpenSCAD Model</title>
<path d="
M 1350,-80 L 0,-80 L 0,-0 L 4.95,-0 L 4.95,-6 L 5.00572,-6.53017
 L 5.17046,-7.03717 L 5.437,-7.49884 L 5.79372,-7.895 L 6.22499,-8.20836 L 6.71201,-8.42519 L 7.23344,-8.53603
 L 7.76654,-8.53603 L 8.28798,-8.42519 L 8.77499,-8.20836 L 9.20627,-7.895 L 9.56299,-7.49884 L 9.82953,-7.03717
 L 9.99426,-6.53017 L 10.05,-6 L 10.05,-0 L 195.664,-0 L 195.664,-6 L 195.72,-6.53017
 L 195.885,-7.03717 L 196.151,-7.49884 L 196.508,-7.895 L 196.939,-8.20836 L 197.426,-8.42519 L 197.948,-8.53603
 L 198.481,-8.53603 L 199.002,-8.42519 L 199.489,-8.20836 L 199.921,-7.895 L 200.277,-7.49884 L 200.544,-7.03717
 L 200.709,-6.53017 L 200.764,-6 L 200.764,-0 L 386.379,-0 L 386.379,-6 L 386.434,-6.53017
 L 386.599,-7.03717 L 386.866,-7.49884 L 387.222,-7.895 L 387.654,-8.20836 L 388.141,-8.42519 L 388.662,-8.53603
 L 389.195,-8.53603 L 389.717,-8.42519 L 390.204,-8.20836 L 390.635,-7.895 L 390.992,-7.49884 L 391.258,-7.03717
 L 391.423,-6.53017 L 391.479,-6 L 391.479,-0 L 577.093,-0 L 577.093,-6 L 577.149,-6.53017
 L 577.313,-7.03717 L 577.58,-7.49884 L 577.937,-7.895 L 578.368,-8.20836 L 578.855,-8.42519 L 579.376,-8.53603
 L 579.909,-8.53603 L 580.431,-8.42519 L 580.918,-8.20836 L 581.349,-7.895 L 581.706,-7.49884 L 581.972,-7.03717
 L 582.137,-6.53017 L 582.193,-6 L 582.193,-0 L 767.807,-0 L 767.807,-6 L 767.863,-6.53017
 L 768.028,-7.03717 L 768.294,-7.49884 L 768.651,-7.895 L 769.082,-8.20836 L 769.569,-8.42519 L 770.091,-8.53603
 L 770.624,-8.53603 L 771.145,-8.42519 L 771.632,-8.20836 L 772.063,-7.895 L 772.42,-7.49884 L 772.687,-7.03717
 L 772.851,-6.53017 L 772.907,-6 L 772.907,-0 L 958.521,-0 L 958.521,-6 L 958.577,-6.53017
 L 958.742,-7.03717 L 959.008,-7.49884 L 959.365,-7.895 L 959.796,-8.20836 L 960.283,-8.42519 L 960.805,-8.53603
 L 961.338,-8.53603 L 961.859,-8.42519 L 962.346,-8.20836 L 962.778,-7.895 L 963.134,-7.49884 L 963.401,-7.03717
 L 963.566,-6.53017 L 963.621,-6 L 963.621,-0 L 1149.24,-0 L 1149.24,-6 L 1149.29,-6.53017
 L 1149.46,-7.03717 L 1149.72,-7.49884 L 1150.08,-7.895 L 1150.51,-8.20836 L 1151,-8.42519 L 1151.52,-8.53603
 L 1152.05,-8.53603 L 1152.57,-8.42519 L 1153.06,-8.20836 L 1153.49,-7.895 L 1153.85,-7.49884 L 1154.12,-7.03717
 L 1154.28,-6.53017 L 1154.34,-6 L 1154.34,-0 L 1339.95,-0 L 1339.95,-6 L 1340.01,-6.53017
 L 1340.17,-7.03717 L 1340.44,-7.49884 L 1340.79,-7.895 L 1341.22,-8.20836 L 1341.71,-8.42519 L 1342.23,-8.53603
 L 1342.77,-8.53603 L 1343.29,-8.42519 L 1343.77,-8.20836 L 1344.21,-7.895 L 1344.56,-7.49884 L 1344.83,-7.03717
 L 1344.99,-6.53017 L 1345.05,-6 L 1345.05,-0 L 1350,-0 z
M 6.98573,-55.607 L 6.47708,-55.6875 L 5.97964,-55.8208 L 5.49887,-56.0054 L 5.04001,-56.2392 L 4.60811,-56.5196
 L 4.20789,-56.8437 L 3.84373,-57.2079 L 3.51964,-57.6081 L 3.23917,-58.04 L 3.00537,-58.4989 L 2.82082,-58.9796
 L 2.68752,-59.4771 L 2.60696,-59.9857 L 2.58,-60.5 L 2.60696,-61.0143 L 2.68752,-61.5229 L 2.82082,-62.0204
 L 3.00537,-62.5011 L 3.23917,-62.96 L 3.51964,-63.3919 L 3.84373,-63.7921 L 4.20789,-64.1563 L 4.60811,-64.4804
 L 4.95001,-64.7024 L 4.95001,-74 L 5.00574,-74.5302 L 5.17047,-75.0372 L 5.43701,-75.4988 L 5.79373,-75.895
 L 6.22501,-76.2084 L 6.71202,-76.4252 L 7.23346,-76.536 L 7.76654,-76.536 L 8.28798,-76.4252 L 8.77499,-76.2084
 L 9.20627,-75.895 L 9.56299,-75.4988 L 9.82953,-75.0372 L 9.99426,-74.5302 L 10.05,-74 L 10.05,-64.7024
 L 10.3919,-64.4804 L 10.7921,-64.1563 L 11.1563,-63.7921 L 11.4804,-63.3919 L 11.7608,-62.96 L 11.9946,-62.5011
 L 12.1792,-62.0204 L 12.3125,-61.5229 L 12.393,-61.0143 L 12.42,-60.5 L 12.393,-59.9857 L 12.3125,-59.4771
 L 12.1792,-58.9796 L 11.9946,-58.4989 L 11.7608,-58.04 L 11.4804,-57.6081 L 11.1563,-57.2079 L 10.7921,-56.8437
 L 10.3919,-56.5196 L 9.95999,-56.2392 L 9.50113,-56.0054 L 9.02036,-55.8208 L 8.52292,-55.6875 L 8.01427,-55.607
 L 7.5,-55.58 z
M 197.7,-55.607 L 197.191,-55.6875 L 196.694,-55.8208 L 196.213,-56.0054 L 195.754,-56.2392 L 195.322,-56.5196
 L 194.922,-56.8437 L 194.558,-57.2079 L 194.234,-57.6081 L 193.953,-58.04 L 193.72,-58.4989 L 193.535,-58.9796
 L 193.402,-59.4771 L 193.321,-59.9857 L 193.294,-60.5 L 193.321,-61.0143 L 193.402,-61.5229 L 193.535,-62.0204
 L 193.72,-62.5011 L 193.953,-62.96 L 194.234,-63.3919 L 194.558,-63.7921 L 194.922,-64.1563 L 195.322,-64.4804
 L 195.664,-64.7024 L 195.664,-74 L 195.72,-74.5302 L 195.885,-75.0372 L 196.151,-75.4988 L 196.508,-75.895
 L 196.939,-76.2084 L 197.426,-76.4252 L 197.948,-76.536 L 198.481,-76.536 L 199.002,-76.4252 L 199.489,-76.2084
 L 199.921,-75.895 L 200.277,-75.4988 L 200.544,-75.0372 L 200.709,-74.5302 L 200.764,-74 L 200.764,-64.7024
 L 201.106,-64.4804 L 201.506,-64.1563 L 201.871,-63.7921 L 202.195,-63.3919 L 202.475,-62.96 L 202.709,-62.5011
 L 202.893,-62.0204 L 203.027,-61.5229 L 203.107,-61.0143 L 203.134,-60.5 L 203.107,-59.9857 L 203.027,-59.4771
 L 202.893,-58.9796 L 202.709,-58.4989 L 202.475,-58.04 L 202.195,-57.6081 L 201.871,-57.2079 L 201.506,-56.8437
 L 201.106,-56.5196 L 200.674,-56.2392 L 200.215,-56.0054 L 199.735,-55.8208 L 199.237,-55.6875 L 198.729,-55.607
 L 198.214,-55.58 z
M 388.414,-55.607 L 387.906,-55.6875 L 387.408,-55.8208 L 386.927,-56.0054 L 386.469,-56.2392 L 386.037,-56.5196
 L 385.636,-56.8437 L 385.272,-57.2079 L 384.948,-57.6081 L 384.668,-58.04 L 384.434,-58.4989 L 384.249,-58.9796
 L 384.116,-59.4771 L 384.036,-59.9857 L 384.009,-60.5 L 384.036,-61.0143 L 384.116,-61.5229 L 384.249,-62.0204
 L 384.434,-62.5011 L 384.668,-62.96 L 384.948,-63.3919 L 385.272,-63.7921 L 385.636,-64.1563 L 386.037,-64.4804
 L 386.379,-64.7024 L 386.379,-74 L 386.434,-74.5302 L 386.599,-75.0372 L 386.866,-75.4988 L 387.222,-75.895
 L 387.654,-76.2084 L 388.141,-76.4252 L 388.662,-76.536 L 389.195,-76.536 L 389.717,-76.4252 L 390.204,-76.2084
 L 390.635,-75.895 L 390.992,-75.4988 L 391.258,-75.0372 L 391.423,-74.5302 L 391.479,-74 L 391.479,-64.7024
 L 391.82,-64.4804 L 392.221,-64.1563 L 392.585,-63.7921 L 392.909,-63.3919 L 393.189,-62.96 L 393.423,-62.5011
 L 393.608,-62.0204 L 393.741,-61.5229 L 393.822,-61.0143 L 393.849,-60.5 L 393.822,-59.9857 L 393.741,-59.4771
 L 393.608,-58.9796 L 393.423,-58.4989 L 393.189,-58.04 L 392.909,-57.6081 L 392.585,-57.2079 L 392.221,-56.8437
 L 391.82,-56.5196 L 391.389,-56.2392 L 390.93,-56.0054 L 390.449,-55.8208 L 389.951,-55.6875 L 389.443,-55.607
 L 388.929,-55.58 z
M 579.129,-55.607 L 578.62,-55.6875 L 578.122,-55.8208 L 577.642,-56.0054 L 577.183,-56.2392 L 576.751,-56.5196
 L 576.351,-56.8437 L 575.987,-57.2079 L 575.662,-57.6081 L 575.382,-58.04 L 575.148,-58.4989 L 574.964,-58.9796
 L 574.83,-59.4771 L 574.75,-59.9857 L 574.723,-60.5 L 574.75,-61.0143 L 574.83,-61.5229 L 574.964,-62.0204
 L 575.148,-62.5011 L 575.382,-62.96 L 575.662,-63.3919 L 575.987,-63.7921 L 576.351,-64.1563 L 576.751,-64.4804
 L 577.093,-64.7024 L 577.093,-74 L 577.149,-74.5302 L 577.313,-75.0372 L 577.58,-75.4988 L 577.937,-75.895
 L 578.368,-76.2084 L 578.855,-76.4252 L 579.376,-76.536 L 579.909,-76.536 L 580.431,-76.4252 L 580.918,-76.2084
 L 581.349,-75.895 L 581.706,-75.4988 L 581.972,-75.0372 L 582.137,-74.5302 L 582.193,-74 L 582.193,-64.7024
 L 582.535,-64.4804 L 582.935,-64.1563 L 583.299,-63.7921 L 583.623,-63.3919 L 583.904,-62.96 L 584.137,-62.5011
 L 584.322,-62.0204 L 584.455,-61.5229 L 584.536,-61.0143 L 584.563,-60.5 L 584.536,-59.9857 L 584.455,-59.4771
 L 584.322,-58.9796 L 584.137,-58.4989 L 583.904,-58.04 L 583.623,-57.6081 L 583.299,-57.2079 L 582.935,-56.8437
 L 582.535,-56.5196 L 582.103,-56.2392 L 581.644,-56.0054 L 581.163,-55.8208 L 580.666,-55.6875 L 580.157,-55.607
 L 579.643,-55.58 z
M 769.843,-55.607 L 769.334,-55.6875 L 768.837,-55.8208 L 768.356,-56.0054 L 767.897,-56.2392 L 767.465,-56.5196
 L 767.065,-56.8437 L 766.701,-57.2079 L 766.377,-57.6081 L 766.096,-58.04 L 765.863,-58.4989 L 765.678,-58.9796
 L 765.545,-59.4771 L 765.464,-59.9857 L 765.437,-60.5 L 765.464,-61.0143 L 765.545,-61.5229 L 765.678,-62.0204
 L 765.863,-62.5011 L 766.096,-62.96 L 766.377,-63.3919 L 766.701,-63.7921 L 767.065,-64.1563 L 767.465,-64.4804
 L 767.807,-64.7024 L 767.807,-74 L 767.863,-74.5302 L 768.028,-75.0372 L 768.294,-75.4988 L 768.651,-75.895
 L 769.082,-76.2084 L 769.569,-76.4252 L 770.091,-76.536 L 770.624,-76.536 L 771.145,-76.4252 L 771.632,-76.2084
 L 772.063,-75.895 L 772.42,-75.4988 L 772.687,-75.0372 L 772.851,-74.5302 L 772.907,-74 L 772.907,-64.7024
 L 773.249,-64.4804 L 773.649,-64.1563 L 774.013,-63.7921 L 774.337,-63.3919 L 774.618,-62.96 L 774.852,-62.5011
 L 775.036,-62.0204 L 775.17,-61.5229 L 775.25,-61.0143 L 775.277,-60.5 L 775.25,-59.9857 L 775.17,-59.4771
 L 775.036,-58.9796 L 774.852,-58.4989 L 774.618,-58.04 L 774.337,-57.6081 L 774.013,-57.2079 L 773.649,-56.8437
 L 773.249,-56.5196 L 772.817,-56.2392 L 772.358,-56.0054 L 771.877,-55.8208 L 771.38,-55.6875 L 770.871,-55.607
 L 770.357,-55.58 z
M 960.557,-55.607 L 960.049,-55.6875 L 959.551,-55.8208 L 959.07,-56.0054 L 958.611,-56.2392 L 958.18,-56.5196
 L 957.779,-56.8437 L 957.415,-57.2079 L 957.091,-57.6081 L 956.811,-58.04 L 956.577,-58.4989 L 956.392,-58.9796
 L 956.259,-59.4771 L 956.178,-59.9857 L 956.151,-60.5 L 956.178,-61.0143 L 956.259,-61.5229 L 956.392,-62.0204
 L 956.577,-62.5011 L 956.811,-62.96 L 957.091,-63.3919 L 957.415,-63.7921 L 957.779,-64.1563 L 958.18,-64.4804
 L 958.521,-64.7024 L 958.521,-74 L 958.577,-74.5302 L 958.742,-75.0372 L 959.008,-75.4988 L 959.365,-75.895
 L 959.796,-76.2084 L 960.283,-76.4252 L 960.805,-76.536 L 961.338,-76.536 L 961.859,-76.4252 L 962.346,-76.2084
 L 962.778,-75.895 L 963.134,-75.4988 L 963.401,-75.0372 L 963.566,-74.5302 L 963.621,-74 L 963.621,-64.7024
 L 963.963,-64.4804 L 964.364,-64.1563 L 964.728,-63.7921 L 965.052,-63.3919 L 965.332,-62.96 L 965.566,-62.5011
 L 965.751,-62.0204 L 965.884,-61.5229 L 965.964,-61.0143 L 965.991,-60.5 L 965.964,-59.9857 L 965.884,-59.4771
 L 965.751,-58.9796 L 965.566,-58.4989 L 965.332,-58.04 L 965.052,-57.6081 L 964.728,-57.2079 L 964.364,-56.8437
 L 963.963,-56.5196 L 963.531,-56.2392 L 963.073,-56.0054 L 962.592,-55.8208 L 962.094,-55.6875 L 961.586,-55.607
 L 961.071,-55.58 z
M 1151.27,-55.607 L 1150.76,-55.6875 L 1150.27,-55.8208 L 1149.78,-56.0054 L 1149.33,-56.2392 L 1148.89,-56.5196
 L 1148.49,-56.8437 L 1148.13,-57.2079 L 1147.81,-57.6081 L 1147.52,-58.04 L 1147.29,-58.4989 L 1147.11,-58.9796
 L 1146.97,-59.4771 L 1146.89,-59.9857 L 1146.87,-60.5 L 1146.89,-61.0143 L 1146.97,-61.5229 L 1147.11,-62.0204
 L 1147.29,-62.5011 L 1147.52,-62.96 L 1147.81,-63.3919 L 1148.13,-63.7921 L 1148.49,-64.1563 L 1148.89,-64.4804
 L 1149.24,-64.7024 L 1149.24,-74 L 1149.29,-74.5302 L 1149.46,-75.0372 L 1149.72,-75.4988 L 1150.08,-75.895
 L 1150.51,-76.2084 L 1151,-76.4252 L 1151.52,-76.536 L 1152.05,-76.536 L 1152.57,-76.4252 L 1153.06,-76.2084
 L 1153.49,-75.895 L 1153.85,-75.4988 L 1154.12,-75.0372 L 1154.28,-74.5302 L 1154.34,-74 L 1154.34,-64.7024
 L 1154.68,-64.4804 L 1155.08,-64.1563 L 1155.44,-63.7921 L 1155.77,-63.3919 L 1156.05,-62.96 L 1156.28,-62.5011
 L 1156.46,-62.0204 L 1156.6,-61.5229 L 1156.68,-61.0143 L 1156.71,-60.5 L 1156.68,-59.9857 L 1156.6,-59.4771
 L 1156.46,-58.9796 L 1156.28,-58.4989 L 1156.05,-58.04 L 1155.77,-57.6081 L 1155.44,-57.2079 L 1155.08,-56.8437
 L 1154.68,-56.5196 L 1154.25,-56.2392 L 1153.79,-56.0054 L 1153.31,-55.8208 L 1152.81,-55.6875 L 1152.3,-55.607
 L 1151.79,-55.58 z
M 1341.99,-55.607 L 1341.48,-55.6875 L 1340.98,-55.8208 L 1340.5,-56.0054 L 1340.04,-56.2392 L 1339.61,-56.5196
 L 1339.21,-56.8437 L 1338.84,-57.2079 L 1338.52,-57.6081 L 1338.24,-58.04 L 1338.01,-58.4989 L 1337.82,-58.9796
 L 1337.69,-59.4771 L 1337.61,-59.9857 L 1337.58,-60.5 L 1337.61,-61.0143 L 1337.69,-61.5229 L 1337.82,-62.0204
 L 1338.01,-62.5011 L 1338.24,-62.96 L 1338.52,-63.3919 L 1338.84,-63.7921 L 1339.21,-64.1563 L 1339.61,-64.4804
 L 1339.95,-64.7024 L 1339.95,-74 L 1340.01,-74.5302 L 1340.17,-75.0372 L 1340.44,-75.4988 L 1340.79,-75.895
 L 1341.23,-76.2084 L 1341.71,-76.4252 L 1342.23,-76.536 L 1342.77,-76.536 L 1343.29,-76.4252 L 1343.77,-76.2084
 L 1344.21,-75.895 L 1344.56,-75.4988 L 1344.83,-75.0372 L 1344.99,-74.5302 L 1345.05,-74 L 1345.05,-64.7024
 L 1345.39,-64.4804 L 1345.79,-64.1563 L 1346.16,-63.7921 L 1346.48,-63.3919 L 1346.76,-62.96 L 1346.99,-62.5011
 L 1347.18,-62.0204 L 1347.31,-61.5229 L 1347.39,-61.0143 L 1347.42,-60.5 L 1347.39,-59.9857 L 1347.31,-59.4771
 L 1347.18,-58.9796 L 1346.99,-58.4989 L 1346.76,-58.04 L 1346.48,-57.6081 L 1346.16,-57.2079 L 1345.79,-56.8437
 L 1345.39,-56.5196 L 1344.96,-56.2392 L 1344.5,-56.0054 L 1344.02,-55.8208 L 1343.52,-55.6875 L 1343.01,-55.607
 L 1342.5,-55.58 z
M 782.229,-20.5936 L 781.456,-20.9119 L 780.766,-21.384 L 780.189,-21.9894 L 779.751,-22.7014 L 779.47,-23.4891
 L 779.357,-24.4313 L 779.357,-58 L 779.445,-58.8316 L 779.703,-59.627 L 780.121,-60.3511 L 780.681,-60.9726
 L 781.357,-61.4641 L 782.121,-61.8042 L 783.357,-62 L 877.505,-62 L 878.336,-61.9126 L 879.132,-61.6542
 L 879.856,-61.2361 L 880.477,-60.6765 L 880.969,-60 L 881.309,-59.2361 L 881.483,-58.4181 L 881.483,-57.5819
 L 881.309,-56.7639 L 880.969,-56 L 880.477,-55.3235 L 879.856,-54.7639 L 878.848,-54.2323 L 784.701,-20.6636
 L 783.888,-20.4666 L 783.052,-20.4429 z
M 674.469,-47.709 L 673.657,-47.9059 L 655.913,-54.2323 L 654.906,-54.7639 L 654.284,-55.3235 L 653.793,-56
 L 653.453,-56.7639 L 653.279,-57.5819 L 653.279,-58.4181 L 653.453,-59.2361 L 653.793,-60 L 654.284,-60.6765
 L 654.906,-61.2361 L 655.63,-61.6542 L 656.425,-61.9126 L 657.257,-62 L 692.743,-62 L 693.871,-61.8377
 L 694.644,-61.5194 L 695.334,-61.0472 L 695.911,-60.4419 L 696.35,-59.7298 L 696.631,-58.9422 L 696.742,-58.1134
 L 696.678,-57.2796 L 696.442,-56.4773 L 696.045,-55.7415 L 695.503,-55.1045 L 694.84,-54.594 L 694.087,-54.2323
 L 676.343,-47.9059 L 675.305,-47.6853 z
M 566.112,-20.4666 L 565.299,-20.6636 L 471.152,-54.2323 L 470.144,-54.7639 L 469.523,-55.3235 L 469.031,-56
 L 468.691,-56.7639 L 468.517,-57.5819 L 468.517,-58.4181 L 468.691,-59.2361 L 469.031,-60 L 469.523,-60.6765
 L 470.144,-61.2361 L 470.868,-61.6542 L 471.664,-61.9126 L 472.495,-62 L 566.643,-62 L 567.879,-61.8042
 L 568.643,-61.4641 L 569.319,-60.9726 L 569.879,-60.3511 L 570.297,-59.627 L 570.555,-58.8316 L 570.643,-58
 L 570.643,-24.4313 L 570.53,-23.4891 L 570.249,-22.7014 L 569.811,-21.9894 L 569.234,-21.384 L 568.544,-20.9119
 L 567.771,-20.5936 L 566.948,-20.4429 z
M 375.398,-20.4666 L 374.585,-20.6636 L 280.438,-54.2323 L 279.43,-54.7639 L 278.808,-55.3235 L 278.317,-56
 L 277.977,-56.7639 L 277.803,-57.5819 L 277.803,-58.4181 L 277.977,-59.2361 L 278.317,-60 L 278.808,-60.6765
 L 279.43,-61.2361 L 280.154,-61.6542 L 280.949,-61.9126 L 281.781,-62 L 375.929,-62 L 377.165,-61.8042
 L 377.929,-61.4641 L 378.605,-60.9726 L 379.165,-60.3511 L 379.583,-59.627 L 379.841,-58.8316 L 379.929,-58
 L 379.929,-24.4313 L 379.816,-23.4891 L 379.535,-22.7014 L 379.097,-21.9894 L 378.52,-21.384 L 377.83,-20.9119
 L 377.056,-20.5936 L 376.234,-20.4429 z
M 1163.66,-20.5936 L 1162.88,-20.9119 L 1162.19,-21.384 L 1161.62,-21.9894 L 1161.18,-22.7014 L 1160.9,-23.4891
 L 1160.79,-24.4313 L 1160.79,-58 L 1160.87,-58.8316 L 1161.13,-59.627 L 1161.55,-60.3511 L 1162.11,-60.9726
 L 1162.79,-61.4641 L 1163.55,-61.8042 L 1164.79,-62 L 1258.93,-62 L 1259.76,-61.9126 L 1260.56,-61.6542
 L 1261.28,-61.2361 L 1261.91,-60.6765 L 1262.4,-60 L 1262.74,-59.2361 L 1262.91,-58.4181 L 1262.91,-57.5819
 L 1262.74,-56.7639 L 1262.4,-56 L 1261.91,-55.3235 L 1261.28,-54.7639 L 1260.28,-54.2323 L 1166.13,-20.6636
 L 1165.32,-20.4666 L 1164.48,-20.4429 z
M 184.684,-20.4666 L 183.871,-20.6636 L 89.7234,-54.2323 L 88.7156,-54.7639 L 88.0942,-55.3235 L 87.6026,-56
 L 87.2625,-56.7639 L 87.0887,-57.5819 L 87.0887,-58.4181 L 87.2625,-59.2361 L 87.6026,-60 L 88.0942,-60.6765
 L 88.7156,-61.2361 L 89.4398,-61.6542 L 90.2351,-61.9126 L 91.0667,-62 L 185.214,-62 L 186.45,-61.8042
 L 187.214,-61.4641 L 187.891,-60.9726 L 188.45,-60.3511 L 188.868,-59.627 L 189.127,-58.8316 L 189.214,-58
 L 189.214,-24.4313 L 189.102,-23.4891 L 188.821,-22.7014 L 188.382,-21.9894 L 187.805,-21.384 L 187.115,-20.9119
 L 186.342,-20.5936 L 185.519,-20.4429 z
M 972.944,-20.5936 L 972.17,-20.9119 L 971.48,-21.384 L 970.903,-21.9894 L 970.465,-22.7014 L 970.184,-23.4891
 L 970.071,-24.4313 L 970.071,-58 L 970.159,-58.8316 L 970.417,-59.627 L 970.835,-60.3511 L 971.395,-60.9726
 L 972.071,-61.4641 L 972.835,-61.8042 L 974.071,-62 L 1068.22,-62 L 1069.05,-61.9126 L 1069.85,-61.6542
 L 1070.57,-61.2361 L 1071.19,-60.6765 L 1071.68,-60 L 1072.02,-59.2361 L 1072.2,-58.4181 L 1072.2,-57.5819
 L 1072.02,-56.7639 L 1071.68,-56 L 1071.19,-55.3235 L 1070.57,-54.7639 L 1069.56,-54.2323 L 975.415,-20.6636
 L 974.602,-20.4666 L 973.766,-20.4429 z
M 592.225,-18.3307 L 591.407,-18.5046 L 590.643,-18.8447 L 589.966,-19.3362 L 589.407,-19.9577 L 588.989,-20.6819
 L 588.73,-21.4772 L 588.643,-22.3088 L 588.643,-57.6912 L 588.755,-58.6334 L 589.036,-59.421 L 589.475,-60.1331
 L 590.052,-60.7384 L 590.742,-61.2106 L 591.515,-61.5289 L 592.338,-61.6795 L 593.174,-61.6558 L 593.986,-61.4588
 L 643.603,-43.7677 L 644.161,-43.5194 L 644.851,-43.0472 L 645.428,-42.4419 L 645.867,-41.7298 L 646.147,-40.9422
 L 646.258,-40.1134 L 646.195,-39.2796 L 645.959,-38.4773 L 645.561,-37.7415 L 645.02,-37.1045 L 644.357,-36.594
 L 643.603,-36.2323 L 593.986,-18.5412 L 593.061,-18.3307 z
M 756.826,-18.3442 L 756.014,-18.5411 L 706.397,-36.2323 L 705.839,-36.4806 L 705.149,-36.9528 L 704.572,-37.5581
 L 704.133,-38.2702 L 703.853,-39.0578 L 703.742,-39.8866 L 703.805,-40.7204 L 704.041,-41.5227 L 704.439,-42.2585
 L 704.98,-42.8955 L 705.643,-43.406 L 706.397,-43.7677 L 756.014,-61.4589 L 756.939,-61.6693 L 757.775,-61.6693
 L 758.593,-61.4954 L 759.357,-61.1553 L 760.034,-60.6638 L 760.593,-60.0423 L 761.011,-59.3181 L 761.27,-58.5228
 L 761.357,-57.6912 L 761.357,-22.3088 L 761.245,-21.3666 L 760.964,-20.579 L 760.525,-19.8669 L 759.948,-19.2616
 L 759.258,-18.7894 L 758.485,-18.4711 L 757.662,-18.3205 z
M 211.214,-18 L 209.978,-18.1958 L 209.214,-18.5359 L 208.538,-19.0274 L 207.978,-19.6489 L 207.56,-20.373
 L 207.302,-21.1684 L 207.214,-22 L 207.214,-55.5687 L 207.327,-56.5109 L 207.608,-57.2985 L 208.046,-58.0106
 L 208.623,-58.6159 L 209.313,-59.0881 L 210.087,-59.4064 L 210.909,-59.557 L 211.745,-59.5333 L 212.558,-59.3364
 L 306.705,-25.7677 L 307.713,-25.2361 L 308.334,-24.6765 L 308.826,-24 L 309.166,-23.2361 L 309.34,-22.4181
 L 309.34,-21.5819 L 309.166,-20.7639 L 308.826,-20 L 308.334,-19.3235 L 307.713,-18.7639 L 306.989,-18.3458
 L 306.193,-18.0874 L 305.362,-18 z
M 401.929,-18 L 400.692,-18.1958 L 399.929,-18.5359 L 399.252,-19.0274 L 398.692,-19.6489 L 398.274,-20.373
 L 398.016,-21.1684 L 397.929,-22 L 397.929,-55.5687 L 398.041,-56.5109 L 398.322,-57.2985 L 398.76,-58.0106
 L 399.337,-58.6159 L 400.028,-59.0881 L 400.801,-59.4064 L 401.623,-59.557 L 402.459,-59.5333 L 403.272,-59.3364
 L 497.419,-25.7677 L 498.427,-25.2361 L 499.049,-24.6765 L 499.54,-24 L 499.88,-23.2361 L 500.054,-22.4181
 L 500.054,-21.5819 L 499.88,-20.7639 L 499.54,-20 L 499.049,-19.3235 L 498.427,-18.7639 L 497.703,-18.3458
 L 496.908,-18.0874 L 496.076,-18 z
M 853.924,-18 L 853.092,-18.0874 L 852.297,-18.3458 L 851.573,-18.7639 L 850.951,-19.3235 L 850.46,-20
 L 850.12,-20.7639 L 849.946,-21.5819 L 849.946,-22.4181 L 850.12,-23.2361 L 850.46,-24 L 850.951,-24.6765
 L 851.573,-25.2361 L 852.581,-25.7677 L 946.728,-59.3364 L 947.541,-59.5333 L 948.377,-59.557 L 949.199,-59.4064
 L 949.972,-59.0881 L 950.663,-58.6159 L 951.24,-58.0106 L 951.678,-57.2985 L 951.959,-56.5109 L 952.071,-55.5687
 L 952.071,-22 L 951.984,-21.1684 L 951.726,-20.373 L 951.307,-19.6489 L 950.748,-19.0274 L 950.071,-18.5359
 L 949.307,-18.1958 L 948.071,-18 z
M 1044.64,-18 L 1043.81,-18.0874 L 1043.01,-18.3458 L 1042.29,-18.7639 L 1041.67,-19.3235 L 1041.17,-20
 L 1040.83,-20.7639 L 1040.66,-21.5819 L 1040.66,-22.4181 L 1040.83,-23.2361 L 1041.17,-24 L 1041.67,-24.6765
 L 1042.29,-25.2361 L 1043.29,-25.7677 L 1137.44,-59.3364 L 1138.26,-59.5333 L 1139.09,-59.557 L 1139.91,-59.4064
 L 1140.69,-59.0881 L 1141.38,-58.6159 L 1141.95,-58.0106 L 1142.39,-57.2985 L 1142.67,-56.5109 L 1142.79,-55.5687
 L 1142.79,-22 L 1142.7,-21.1684 L 1142.44,-20.373 L 1142.02,-19.6489 L 1141.46,-19.0274 L 1140.79,-18.5359
 L 1140.02,-18.1958 L 1138.79,-18 z
M 22,-18 L 20.7639,-18.1958 L 20,-18.5359 L 19.3235,-19.0274 L 18.7639,-19.6489 L 18.3458,-20.373
 L 18.0874,-21.1684 L 18,-22 L 18,-55.0339 L 18.1125,-55.9761 L 18.3934,-56.7637 L 18.8319,-57.4758
 L 19.4088,-58.0811 L 20.099,-58.5533 L 20.8722,-58.8716 L 21.6948,-59.0222 L 22.5307,-58.9985 L 23.3434,-58.8015
 L 115.991,-25.7677 L 116.999,-25.2361 L 117.62,-24.6765 L 118.112,-24 L 118.452,-23.2361 L 118.626,-22.4181
 L 118.626,-21.5819 L 118.452,-20.7639 L 118.112,-20 L 117.62,-19.3235 L 116.999,-18.7639 L 116.274,-18.3458
 L 115.479,-18.0874 L 114.648,-18 z
M 1235.35,-18 L 1234.52,-18.0874 L 1233.73,-18.3458 L 1233,-18.7639 L 1232.38,-19.3235 L 1231.89,-20
 L 1231.55,-20.7639 L 1231.37,-21.5819 L 1231.37,-22.4181 L 1231.55,-23.2361 L 1231.89,-24 L 1232.38,-24.6765
 L 1233,-25.2361 L 1234.01,-25.7677 L 1326.66,-58.8015 L 1327.47,-58.9985 L 1328.31,-59.0222 L 1329.13,-58.8716
 L 1329.9,-58.5533 L 1330.59,-58.0811 L 1331.17,-57.4758 L 1331.61,-56.7637 L 1331.89,-55.9761 L 1332,-55.0339
 L 1332,-22 L 1331.91,-21.1684 L 1331.65,-20.373 L 1331.24,-19.6489 L 1330.68,-19.0274 L 1330,-18.5359
 L 1329.24,-18.1958 L 1328,-18 z
M 657.257,-18 L 656.129,-18.1623 L 655.356,-18.4806 L 654.666,-18.9528 L 654.089,-19.5581 L 653.65,-20.2702
 L 653.369,-21.0578 L 653.258,-21.8866 L 653.322,-22.7204 L 653.558,-23.5227 L 653.955,-24.2585 L 654.497,-24.8955
 L 655.159,-25.406 L 655.913,-25.7677 L 673.657,-32.0941 L 674.695,-32.3147 L 675.531,-32.291 L 676.343,-32.0941
 L 694.087,-25.7677 L 695.094,-25.2361 L 695.716,-24.6765 L 696.207,-24 L 696.547,-23.2361 L 696.721,-22.4181
 L 696.721,-21.5819 L 696.547,-20.7639 L 696.207,-20 L 695.716,-19.3235 L 695.094,-18.7639 L 694.37,-18.3458
 L 693.575,-18.0874 L 692.743,-18 z
" stroke="black" fill="lightgray" stroke-width="0.5"/>
</svg>
