<?xml version="1.0" standalone="no"?>
<!DOCTYPE svg PUBLIC "-//W3C//DTD SVG 1.1//EN" "http://www.w3.org/Graphics/SVG/1.1/DTD/svg11.dtd">
<svg width="1001mm" height="80mm" viewBox="0 -80 1001 80" xmlns="http://www.w3.org/2000/svg" version="1.1">
<title>OpenSCAD Model</title>
<path d="
M 1001,-80 L 0,-80 L 0,-0 L 4.95,-0 L 4.95,-6 L 5.00572,-6.53017
 L 5.17046,-7.03717 L 5.437,-7.49884 L 5.79372,-7.895 L 6.22499,-8.20836 L 6.71201,-8.42519 L 7.23344,-8.53603
 L 7.76654,-8.53603 L 8.28798,-8.42519 L 8.77499,-8.20836 L 9.20627,-7.895 L 9.56299,-7.49884 L 9.82953,-7.03717
 L 9.99426,-6.53017 L 10.05,-6 L 10.05,-0 L 169.283,-0 L 169.283,-6 L 169.339,-6.53017
 L 169.504,-7.03717 L 169.77,-7.49884 L 170.127,-7.895 L 170.558,-8.20836 L 171.045,-8.42519 L 171.567,-8.53603
 L 172.1,-8.53603 L 172.621,-8.42519 L 173.108,-8.20836 L 173.54,-7.895 L 173.896,-7.49884 L 174.163,-7.03717
 L 174.328,-6.53017 L 174.383,-6 L 174.383,-0 L 333.617,-0 L 333.617,-6 L 333.672,-6.53017
 L 333.837,-7.03717 L 334.104,-7.49884 L 334.46,-7.895 L 334.892,-8.20836 L 335.379,-8.42519 L 335.9,-8.53603
 L 336.433,-8.53603 L 336.955,-8.42519 L 337.442,-8.20836 L 337.873,-7.895 L 338.23,-7.49884 L 338.496,-7.03717
 L 338.661,-6.53017 L 338.717,-6 L 338.717,-0 L 497.95,-0 L 497.95,-6 L 498.006,-6.53017
 L 498.17,-7.03717 L 498.437,-7.49884 L 498.794,-7.895 L 499.225,-8.20836 L 499.712,-8.42519 L 500.233,-8.53603
 L 500.767,-8.53603 L 501.288,-8.42519 L 501.775,-8.20836 L 502.206,-7.895 L 502.563,-7.49884 L 502.83,-7.03717
 L 502.994,-6.53017 L 503.05,-6 L 503.05,-0 L 662.283,-0 L 662.283,-6 L 662.339,-6.53017
 L 662.504,-7.03717 L 662.77,-7.49884 L 663.127,-7.895 L 663.558,-8.20836 L 664.045,-8.42519 L 664.567,-8.53603
 L 665.1,-8.53603 L 665.621,-8.42519 L 666.108,-8.20836 L 666.54,-7.895 L 666.896,-7.49884 L 667.163,-7.03717
 L 667.328,-6.53017 L 667.383,-6 L 667.383,-0 L 826.617,-0 L 826.617,-6 L 826.672,-6.53017
 L 826.837,-7.03717 L 827.104,-7.49884 L 827.46,-7.895 L 827.892,-8.20836 L 828.379,-8.42519 L 828.9,-8.53603
 L 829.433,-8.53603 L 829.955,-8.42519 L 830.442,-8.20836 L 830.873,-7.895 L 831.23,-7.49884 L 831.496,-7.03717
 L 831.661,-6.53017 L 831.717,-6 L 831.717,-0 L 990.95,-0 L 990.95,-6 L 991.006,-6.53017
 L 991.17,-7.03717 L 991.437,-7.49884 L 991.794,-7.895 L 992.225,-8.20836 L 992.712,-8.42519 L 993.233,-8.53603
 L 993.767,-8.53603 L 994.288,-8.42519 L 994.775,-8.20836 L 995.206,-7.895 L 995.563,-7.49884 L 995.83,-7.03717
 L 995.994,-6.53017 L 996.05,-6 L 996.05,-0 L 1001,-0 z
M 6.98573,-55.607 L 6.47708,-55.6875 L 5.97964,-55.8208 L 5.49887,-56.0054 L 5.04001,-56.2392 L 4.60811,-56.5196
 L 4.20789,-56.8437 L 3.84373,-57.2079 L 3.51964,-57.6081 L 3.23917,-58.04 L 3.00537,-58.4989 L 2.82082,-58.9796
 L 2.68752,-59.4771 L 2.60696,-59.9857 L 2.58,-60.5 L 2.60696,-61.0143 L 2.68752,-61.5229 L 2.82082,-62.0204
 L 3.00537,-62.5011 L 3.23917,-62.96 L 3.51964,-63.3919 L 3.84373,-63.7921 L 4.20789,-64.1563 L 4.60811,-64.4804
 L 4.95001,-64.7024 L 4.95001,-74 L 5.00574,-74.5302 L 5.17047,-75.0372 L 5.43701,-75.4988 L 5.79373,-75.895
 L 6.22501,-76.2084 L 6.71202,-76.4252 L 7.23346,-76.536 L 7.76654,-76.536 L 8.28798,-76.4252 L 8.77499,-76.2084
 L 9.20627,-75.895 L 9.56299,-75.4988 L 9.82953,-75.0372 L 9.99426,-74.5302 L 10.05,-74 L 10.05,-64.7024
 L 10.3919,-64.4804 L 10.7921,-64.1563 L 11.1563,-63.7921 L 11.4804,-63.3919 L 11.7608,-62.96 L 11.9946,-62.5011
 L 12.1792,-62.0204 L 12.3125,-61.5229 L 12.393,-61.0143 L 12.42,-60.5 L 12.393,-59.9857 L 12.3125,-59.4771
 L 12.1792,-58.9796 L 11.9946,-58.4989 L 11.7608,-58.04 L 11.4804,-57.6081 L 11.1563,-57.2079 L 10.7921,-56.8437
 L 10.3919,-56.5196 L 9.95999,-56.2392 L 9.50113,-56.0054 L 9.02036,-55.8208 L 8.52292,-55.6875 L 8.01427,-55.607
 L 7.5,-55.58 z
M 171.319,-55.607 L 170.81,-55.6875 L 170.313,-55.8208 L 169.832,-56.0054 L 169.373,-56.2392 L 168.941,-56.5196
 L 168.541,-56.8437 L 168.177,-57.2079 L 167.853,-57.6081 L 167.572,-58.04 L 167.339,-58.4989 L 167.154,-58.9796
 L 167.021,-59.4771 L 166.94,-59.9857 L 166.913,-60.5 L 166.94,-61.0143 L 167.021,-61.5229 L 167.154,-62.0204
 L 167.339,-62.5011 L 167.572,-62.96 L 167.853,-63.3919 L 168.177,-63.7921 L 168.541,-64.1563 L 168.941,-64.4804
 L 169.283,-64.7024 L 169.283,-74 L 169.339,-74.5302 L 169.504,-75.0372 L 169.77,-75.4988 L 170.127,-75.895
 L 170.558,-76.2084 L 171.045,-76.4252 L 171.567,-76.536 L 172.1,-76.536 L 172.621,-76.4252 L 173.108,-76.2084
 L 173.54,-75.895 L 173.896,-75.4988 L 174.163,-75.0372 L 174.328,-74.5302 L 174.383,-74 L 174.383,-64.7024
 L 174.725,-64.4804 L 175.125,-64.1563 L 175.49,-63.7921 L 175.814,-63.3919 L 176.094,-62.96 L 176.328,-62.5011
 L 176.513,-62.0204 L 176.646,-61.5229 L 176.726,-61.0143 L 176.753,-60.5 L 176.726,-59.9857 L 176.646,-59.4771
 L 176.513,-58.9796 L 176.328,-58.4989 L 176.094,-58.04 L 175.814,-57.6081 L 175.49,-57.2079 L 175.125,-56.8437
 L 174.725,-56.5196 L 174.293,-56.2392 L 173.834,-56.0054 L 173.354,-55.8208 L 172.856,-55.6875 L 172.348,-55.607
 L 171.833,-55.58 z
M 335.652,-55.607 L 335.144,-55.6875 L 334.646,-55.8208 L 334.166,-56.0054 L 333.707,-56.2392 L 333.275,-56.5196
 L 332.875,-56.8437 L 332.51,-57.2079 L 332.186,-57.6081 L 331.906,-58.04 L 331.672,-58.4989 L 331.487,-58.9796
 L 331.354,-59.4771 L 331.274,-59.9857 L 331.247,-60.5 L 331.274,-61.0143 L 331.354,-61.5229 L 331.487,-62.0204
 L 331.672,-62.5011 L 331.906,-62.96 L 332.186,-63.3919 L 332.51,-63.7921 L 332.875,-64.1563 L 333.275,-64.4804
 L 333.617,-64.7024 L 333.617,-74 L 333.672,-74.5302 L 333.837,-75.0372 L 334.104,-75.4988 L 334.46,-75.895
 L 334.892,-76.2084 L 335.379,-76.4252 L 335.9,-76.536 L 336.433,-76.536 L 336.955,-76.4252 L 337.442,-76.2084
 L 337.873,-75.895 L 338.23,-75.4988 L 338.496,-75.0372 L 338.661,-74.5302 L 338.717,-74 L 338.717,-64.7024
 L 339.059,-64.4804 L 339.459,-64.1563 L 339.823,-63.7921 L 340.147,-63.3919 L 340.427,-62.96 L 340.661,-62.5011
 L 340.846,-62.0204 L 340.979,-61.5229 L 341.06,-61.0143 L 341.087,-60.5 L 341.06,-59.9857 L 340.979,-59.4771
 L 340.846,-58.9796 L 340.661,-58.4989 L 340.427,-58.04 L 340.147,-57.6081 L 339.823,-57.2079 L 339.459,-56.8437
 L 339.059,-56.5196 L 338.627,-56.2392 L 338.168,-56.0054 L 337.687,-55.8208 L 337.19,-55.6875 L 336.681,-55.607
 L 336.167,-55.58 z
M 499.986,-55.607 L 499.477,-55.6875 L 498.98,-55.8208 L 498.499,-56.0054 L 498.04,-56.2392 L 497.608,-56.5196
 L 497.208,-56.8437 L 496.844,-57.2079 L 496.52,-57.6081 L 496.239,-58.04 L 496.005,-58.4989 L 495.821,-58.9796
 L 495.688,-59.4771 L 495.607,-59.9857 L 495.58,-60.5 L 495.607,-61.0143 L 495.688,-61.5229 L 495.821,-62.0204
 L 496.005,-62.5011 L 496.239,-62.96 L 496.52,-63.3919 L 496.844,-63.7921 L 497.208,-64.1563 L 497.608,-64.4804
 L 497.95,-64.7024 L 497.95,-74 L 498.006,-74.5302 L 498.17,-75.0372 L 498.437,-75.4988 L 498.794,-75.895
 L 499.225,-76.2084 L 499.712,-76.4252 L 500.233,-76.536 L 500.767,-76.536 L 501.288,-76.4252 L 501.775,-76.2084
 L 502.206,-75.895 L 502.563,-75.4988 L 502.83,-75.0372 L 502.994,-74.5302 L 503.05,-74 L 503.05,-64.7024
 L 503.392,-64.4804 L 503.792,-64.1563 L 504.156,-63.7921 L 504.48,-63.3919 L 504.761,-62.96 L 504.995,-62.5011
 L 505.179,-62.0204 L 505.312,-61.5229 L 505.393,-61.0143 L 505.42,-60.5 L 505.393,-59.9857 L 505.312,-59.4771
 L 505.179,-58.9796 L 504.995,-58.4989 L 504.761,-58.04 L 504.48,-57.6081 L 504.156,-57.2079 L 503.792,-56.8437
 L 503.392,-56.5196 L 502.96,-56.2392 L 502.501,-56.0054 L 502.02,-55.8208 L 501.523,-55.6875 L 501.014,-55.607
 L 500.5,-55.58 z
M 664.319,-55.607 L 663.81,-55.6875 L 663.313,-55.8208 L 662.832,-56.0054 L 662.373,-56.2392 L 661.941,-56.5196
 L 661.541,-56.8437 L 661.177,-57.2079 L 660.853,-57.6081 L 660.572,-58.04 L 660.339,-58.4989 L 660.154,-58.9796
 L 660.021,-59.4771 L 659.94,-59.9857 L 659.913,-60.5 L 659.94,-61.0143 L 660.021,-61.5229 L 660.154,-62.0204
 L 660.339,-62.5011 L 660.572,-62.96 L 660.853,-63.3919 L 661.177,-63.7921 L 661.541,-64.1563 L 661.941,-64.4804
 L 662.283,-64.7024 L 662.283,-74 L 662.339,-74.5302 L 662.504,-75.0372 L 662.77,-75.4988 L 663.127,-75.895
 L 663.558,-76.2084 L 664.045,-76.4252 L 664.567,-76.536 L 665.1,-76.536 L 665.621,-76.4252 L 666.108,-76.2084
 L 666.54,-75.895 L 666.896,-75.4988 L 667.163,-75.0372 L 667.328,-74.5302 L 667.383,-74 L 667.383,-64.7024
 L 667.725,-64.4804 L 668.125,-64.1563 L 668.49,-63.7921 L 668.814,-63.3919 L 669.094,-62.96 L 669.328,-62.5011
 L 669.513,-62.0204 L 669.646,-61.5229 L 669.726,-61.0143 L 669.753,-60.5 L 669.726,-59.9857 L 669.646,-59.4771
 L 669.513,-58.9796 L 669.328,-58.4989 L 669.094,-58.04 L 668.814,-57.6081 L 668.49,-57.2079 L 668.125,-56.8437
 L 667.725,-56.5196 L 667.293,-56.2392 L 666.834,-56.0054 L 666.354,-55.8208 L 665.856,-55.6875 L 665.348,-55.607
 L 664.833,-55.58 z
M 828.652,-55.607 L 828.144,-55.6875 L 827.646,-55.8208 L 827.166,-56.0054 L 826.707,-56.2392 L 826.275,-56.5196
 L 825.875,-56.8437 L 825.51,-57.2079 L 825.186,-57.6081 L 824.906,-58.04 L 824.672,-58.4989 L 824.487,-58.9796
 L 824.354,-59.4771 L 824.274,-59.9857 L 824.247,-60.5 L 824.274,-61.0143 L 824.354,-61.5229 L 824.487,-62.0204
 L 824.672,-62.5011 L 824.906,-62.96 L 825.186,-63.3919 L 825.51,-63.7921 L 825.875,-64.1563 L 826.275,-64.4804
 L 826.617,-64.7024 L 826.617,-74 L 826.672,-74.5302 L 826.837,-75.0372 L 827.104,-75.4988 L 827.46,-75.895
 L 827.892,-76.2084 L 828.379,-76.4252 L 828.9,-76.536 L 829.433,-76.536 L 829.955,-76.4252 L 830.442,-76.2084
 L 830.873,-75.895 L 831.23,-75.4988 L 831.496,-75.0372 L 831.661,-74.5302 L 831.717,-74 L 831.717,-64.7024
 L 832.059,-64.4804 L 832.459,-64.1563 L 832.823,-63.7921 L 833.147,-63.3919 L 833.427,-62.96 L 833.661,-62.5011
 L 833.846,-62.0204 L 833.979,-61.5229 L 834.06,-61.0143 L 834.087,-60.5 L 834.06,-59.9857 L 833.979,-59.4771
 L 833.846,-58.9796 L 833.661,-58.4989 L 833.427,-58.04 L 833.147,-57.6081 L 832.823,-57.2079 L 832.459,-56.8437
 L 832.059,-56.5196 L 831.627,-56.2392 L 831.168,-56.0054 L 830.687,-55.8208 L 830.19,-55.6875 L 829.681,-55.607
 L 829.167,-55.58 z
M 992.986,-55.607 L 992.477,-55.6875 L 991.98,-55.8208 L 991.499,-56.0054 L 991.04,-56.2392 L 990.608,-56.5196
 L 990.208,-56.8437 L 989.844,-57.2079 L 989.52,-57.6081 L 989.239,-58.04 L 989.005,-58.4989 L 988.821,-58.9796
 L 988.688,-59.4771 L 988.607,-59.9857 L 988.58,-60.5 L 988.607,-61.0143 L 988.688,-61.5229 L 988.821,-62.0204
 L 989.005,-62.5011 L 989.239,-62.96 L 989.52,-63.3919 L 989.844,-63.7921 L 990.208,-64.1563 L 990.608,-64.4804
 L 990.95,-64.7024 L 990.95,-74 L 991.006,-74.5302 L 991.17,-75.0372 L 991.437,-75.4988 L 991.794,-75.895
 L 992.225,-76.2084 L 992.712,-76.4252 L 993.233,-76.536 L 993.767,-76.536 L 994.288,-76.4252 L 994.775,-76.2084
 L 995.206,-75.895 L 995.563,-75.4988 L 995.83,-75.0372 L 995.994,-74.5302 L 996.05,-74 L 996.05,-64.7024
 L 996.392,-64.4804 L 996.792,-64.1563 L 997.156,-63.7921 L 997.48,-63.3919 L 997.761,-62.96 L 997.995,-62.5011
 L 998.179,-62.0204 L 998.312,-61.5229 L 998.393,-61.0143 L 998.42,-60.5 L 998.393,-59.9857 L 998.312,-59.4771
 L 998.179,-58.9796 L 997.995,-58.4989 L 997.761,-58.04 L 997.48,-57.6081 L 997.156,-57.2079 L 996.792,-56.8437
 L 996.392,-56.5196 L 995.96,-56.2392 L 995.501,-56.0054 L 995.02,-55.8208 L 994.523,-55.6875 L 994.014,-55.607
 L 993.5,-55.58 z
M 841.231,-21.5542 L 840.443,-21.8336 L 839.73,-22.2708 L 839.124,-22.8467 L 838.651,-23.536 L 838.331,-24.3087
 L 838.167,-25.4434 L 838.167,-58 L 838.254,-58.8316 L 838.512,-59.627 L 838.931,-60.3511 L 839.49,-60.9726
 L 840.167,-61.4641 L 840.931,-61.8042 L 842.167,-62 L 920.845,-62 L 921.677,-61.9126 L 922.472,-61.6542
 L 923.196,-61.2361 L 923.818,-60.6765 L 924.309,-60 L 924.649,-59.2361 L 924.823,-58.4181 L 924.823,-57.5819
 L 924.649,-56.7639 L 924.309,-56 L 923.818,-55.3235 L 923.196,-54.7639 L 922.375,-54.3039 L 843.696,-21.7473
 L 842.894,-21.5101 L 842.061,-21.4448 z
M 322.439,-21.5101 L 321.637,-21.7473 L 242.959,-54.3039 L 242.137,-54.7639 L 241.516,-55.3235 L 241.024,-56
 L 240.684,-56.7639 L 240.51,-57.5819 L 240.51,-58.4181 L 240.684,-59.2361 L 241.024,-60 L 241.516,-60.6765
 L 242.137,-61.2361 L 242.861,-61.6542 L 243.656,-61.9126 L 244.488,-62 L 323.167,-62 L 324.403,-61.8042
 L 325.167,-61.4641 L 325.843,-60.9726 L 326.403,-60.3511 L 326.821,-59.627 L 327.079,-58.8316 L 327.167,-58
 L 327.167,-25.4434 L 327.002,-24.3087 L 326.683,-23.536 L 326.209,-22.8467 L 325.603,-22.2708 L 324.89,-21.8336
 L 324.102,-21.5542 L 323.273,-21.4448 z
M 158.106,-21.5101 L 157.304,-21.7473 L 78.6254,-54.3039 L 77.8036,-54.7639 L 77.1822,-55.3235 L 76.6907,-56
 L 76.3505,-56.7639 L 76.1767,-57.5819 L 76.1767,-58.4181 L 76.3505,-59.2361 L 76.6907,-60 L 77.1822,-60.6765
 L 77.8036,-61.2361 L 78.5278,-61.6542 L 79.3231,-61.9126 L 80.1548,-62 L 158.833,-62 L 160.069,-61.8042
 L 160.833,-61.4641 L 161.51,-60.9726 L 162.069,-60.3511 L 162.488,-59.627 L 162.746,-58.8316 L 162.833,-58
 L 162.833,-25.4434 L 162.669,-24.3087 L 162.349,-23.536 L 161.876,-22.8467 L 161.27,-22.2708 L 160.557,-21.8336
 L 159.769,-21.5542 L 158.939,-21.4448 z
M 486.772,-21.5101 L 485.971,-21.7473 L 407.292,-54.3039 L 406.47,-54.7639 L 405.849,-55.3235 L 405.357,-56
 L 405.017,-56.7639 L 404.843,-57.5819 L 404.843,-58.4181 L 405.017,-59.2361 L 405.357,-60 L 405.849,-60.6765
 L 406.47,-61.2361 L 407.194,-61.6542 L 407.99,-61.9126 L 408.821,-62 L 487.5,-62 L 488.736,-61.8042
 L 489.5,-61.4641 L 490.177,-60.9726 L 490.736,-60.3511 L 491.154,-59.627 L 491.413,-58.8316 L 491.5,-58
 L 491.5,-25.4434 L 491.336,-24.3087 L 491.016,-23.536 L 490.543,-22.8467 L 489.936,-22.2708 L 489.223,-21.8336
 L 488.435,-21.5542 L 487.606,-21.4448 z
M 512.565,-21.5542 L 511.777,-21.8336 L 511.064,-22.2708 L 510.457,-22.8467 L 509.984,-23.536 L 509.664,-24.3087
 L 509.5,-25.4434 L 509.5,-58 L 509.587,-58.8316 L 509.846,-59.627 L 510.264,-60.3511 L 510.823,-60.9726
 L 511.5,-61.4641 L 512.264,-61.8042 L 513.5,-62 L 592.179,-62 L 593.01,-61.9126 L 593.806,-61.6542
 L 594.53,-61.2361 L 595.151,-60.6765 L 595.643,-60 L 595.983,-59.2361 L 596.157,-58.4181 L 596.157,-57.5819
 L 595.983,-56.7639 L 595.643,-56 L 595.151,-55.3235 L 594.53,-54.7639 L 593.708,-54.3039 L 515.029,-21.7473
 L 514.228,-21.5101 L 513.394,-21.4448 z
M 676.898,-21.5542 L 676.11,-21.8336 L 675.397,-22.2708 L 674.791,-22.8467 L 674.317,-23.536 L 673.998,-24.3087
 L 673.833,-25.4434 L 673.833,-58 L 673.921,-58.8316 L 674.179,-59.627 L 674.597,-60.3511 L 675.157,-60.9726
 L 675.833,-61.4641 L 676.597,-61.8042 L 677.833,-62 L 756.512,-62 L 757.344,-61.9126 L 758.139,-61.6542
 L 758.863,-61.2361 L 759.484,-60.6765 L 759.976,-60 L 760.316,-59.2361 L 760.49,-58.4181 L 760.49,-57.5819
 L 760.316,-56.7639 L 759.976,-56 L 759.484,-55.3235 L 758.863,-54.7639 L 758.041,-54.3039 L 679.363,-21.7473
 L 678.561,-21.5101 L 677.727,-21.4448 z
M 184.833,-18 L 183.597,-18.1958 L 182.833,-18.5359 L 182.157,-19.0274 L 181.597,-19.6489 L 181.179,-20.373
 L 180.921,-21.1684 L 180.833,-22 L 180.833,-54.5566 L 180.998,-55.6913 L 181.317,-56.464 L 181.791,-57.1533
 L 182.397,-57.7292 L 183.11,-58.1664 L 183.898,-58.4458 L 184.727,-58.5552 L 185.561,-58.4899 L 186.363,-58.2527
 L 265.041,-25.6961 L 265.863,-25.2361 L 266.484,-24.6765 L 266.976,-24 L 267.316,-23.2361 L 267.49,-22.4181
 L 267.49,-21.5819 L 267.316,-20.7639 L 266.976,-20 L 266.484,-19.3235 L 265.863,-18.7639 L 265.139,-18.3458
 L 264.344,-18.0874 L 263.512,-18 z
M 349.167,-18 L 347.931,-18.1958 L 347.167,-18.5359 L 346.49,-19.0274 L 345.931,-19.6489 L 345.512,-20.373
 L 345.254,-21.1684 L 345.167,-22 L 345.167,-54.5566 L 345.331,-55.6913 L 345.651,-56.464 L 346.124,-57.1533
 L 346.73,-57.7292 L 347.443,-58.1664 L 348.231,-58.4458 L 349.061,-58.5552 L 349.894,-58.4899 L 350.696,-58.2527
 L 429.375,-25.6961 L 430.196,-25.2361 L 430.818,-24.6765 L 431.309,-24 L 431.649,-23.2361 L 431.823,-22.4181
 L 431.823,-21.5819 L 431.649,-20.7639 L 431.309,-20 L 430.818,-19.3235 L 430.196,-18.7639 L 429.472,-18.3458
 L 428.677,-18.0874 L 427.845,-18 z
M 573.155,-18 L 572.323,-18.0874 L 571.528,-18.3458 L 570.804,-18.7639 L 570.182,-19.3235 L 569.691,-20
 L 569.351,-20.7639 L 569.177,-21.5819 L 569.177,-22.4181 L 569.351,-23.2361 L 569.691,-24 L 570.182,-24.6765
 L 570.804,-25.2361 L 571.625,-25.6961 L 650.304,-58.2527 L 651.106,-58.4899 L 651.939,-58.5552 L 652.769,-58.4458
 L 653.557,-58.1664 L 654.27,-57.7292 L 654.876,-57.1533 L 655.349,-56.464 L 655.669,-55.6913 L 655.833,-54.5566
 L 655.833,-22 L 655.746,-21.1684 L 655.488,-20.373 L 655.069,-19.6489 L 654.51,-19.0274 L 653.833,-18.5359
 L 653.069,-18.1958 L 651.833,-18 z
M 737.488,-18 L 736.656,-18.0874 L 735.861,-18.3458 L 735.137,-18.7639 L 734.516,-19.3235 L 734.024,-20
 L 733.684,-20.7639 L 733.51,-21.5819 L 733.51,-22.4181 L 733.684,-23.2361 L 734.024,-24 L 734.516,-24.6765
 L 735.137,-25.2361 L 735.959,-25.6961 L 814.637,-58.2527 L 815.439,-58.4899 L 816.273,-58.5552 L 817.102,-58.4458
 L 817.89,-58.1664 L 818.603,-57.7292 L 819.209,-57.1533 L 819.683,-56.464 L 820.002,-55.6913 L 820.167,-54.5566
 L 820.167,-22 L 820.079,-21.1684 L 819.821,-20.373 L 819.403,-19.6489 L 818.843,-19.0274 L 818.167,-18.5359
 L 817.403,-18.1958 L 816.167,-18 z
M 901.821,-18 L 900.99,-18.0874 L 900.195,-18.3458 L 899.47,-18.7639 L 898.849,-19.3235 L 898.357,-20
 L 898.017,-20.7639 L 897.843,-21.5819 L 897.843,-22.4181 L 898.017,-23.2361 L 898.357,-24 L 898.849,-24.6765
 L 899.47,-25.2361 L 900.292,-25.6961 L 977.471,-57.632 L 978.272,-57.8692 L 979.106,-57.9345 L 979.935,-57.8251
 L 980.723,-57.5457 L 981.436,-57.1085 L 982.043,-56.5326 L 982.516,-55.8433 L 982.836,-55.0706 L 983,-53.9359
 L 983,-22 L 982.913,-21.1684 L 982.654,-20.373 L 982.236,-19.6489 L 981.677,-19.0274 L 981,-18.5359
 L 980.236,-18.1958 L 979,-18 z
M 22,-18 L 20.7639,-18.1958 L 20,-18.5359 L 19.3235,-19.0274 L 18.7639,-19.6489 L 18.3458,-20.373
 L 18.0874,-21.1684 L 18,-22 L 18,-53.9359 L 18.1643,-55.0706 L 18.484,-55.8433 L 18.9574,-56.5326
 L 19.5638,-57.1085 L 20.2767,-57.5457 L 21.0648,-57.8251 L 21.8939,-57.9345 L 22.7275,-57.8692 L 23.5294,-57.632
 L 100.708,-25.6961 L 101.53,-25.2361 L 102.151,-24.6765 L 102.643,-24 L 102.983,-23.2361 L 103.157,-22.4181
 L 103.157,-21.5819 L 102.983,-20.7639 L 102.643,-20 L 102.151,-19.3235 L 101.53,-18.7639 L 100.805,-18.3458
 L 100.01,-18.0874 L 99.1785,-18 z
" stroke="black" fill="lightgray" stroke-width="0.5"/>
</svg>
