<?xml version="1.0" standalone="no"?>
<!DOCTYPE svg PUBLIC "-//W3C//DTD SVG 1.1//EN" "http://www.w3.org/Graphics/SVG/1.1/DTD/svg11.dtd">
<svg width="1108mm" height="80mm" viewBox="0 -80 1108 80" xmlns="http://www.w3.org/2000/svg" version="1.1">
<title>OpenSCAD Model</title>
<path d="
M 1108,-80 L 0,-80 L 0,-0 L 4.95,-0 L 4.95,-6 L 5.00572,-6.53017
 L 5.17046,-7.03717 L 5.437,-7.49884 L 5.79372,-7.895 L 6.22499,-8.20836 L 6.71201,-8.42519 L 7.23344,-8.53603
 L 7.76654,-8.53603 L 8.28798,-8.42519 L 8.77499,-8.20836 L 9.20627,-7.895 L 9.56299,-7.49884 L 9.82953,-7.03717
 L 9.99426,-6.53017 L 10.05,-6 L 10.05,-0 L 187.117,-0 L 187.117,-6 L 187.172,-6.53017
 L 187.337,-7.03717 L 187.604,-7.49884 L 187.96,-7.895 L 188.392,-8.20836 L 188.879,-8.42519 L 189.4,-8.53603
 L 189.933,-8.53603 L 190.455,-8.42519 L 190.942,-8.20836 L 191.373,-7.895 L 191.73,-7.49884 L 191.996,-7.03717
 L 192.161,-6.53017 L 192.217,-6 L 192.217,-0 L 369.283,-0 L 369.283,-6 L 369.339,-6.53017
 L 369.504,-7.03717 L 369.77,-7.49884 L 370.127,-7.895 L 370.558,-8.20836 L 371.045,-8.42519 L 371.567,-8.53603
 L 372.1,-8.53603 L 372.621,-8.42519 L 373.108,-8.20836 L 373.54,-7.895 L 373.896,-7.49884 L 374.163,-7.03717
 L 374.328,-6.53017 L 374.383,-6 L 374.383,-0 L 551.45,-0 L 551.45,-6 L 551.506,-6.53017
 L 551.67,-7.03717 L 551.937,-7.49884 L 552.294,-7.895 L 552.725,-8.20836 L 553.212,-8.42519 L 553.733,-8.53603
 L 554.267,-8.53603 L 554.788,-8.42519 L 555.275,-8.20836 L 555.706,-7.895 L 556.063,-7.49884 L 556.33,-7.03717
 L 556.494,-6.53017 L 556.55,-6 L 556.55,-0 L 733.617,-0 L 733.617,-6 L 733.672,-6.53017
 L 733.837,-7.03717 L 734.104,-7.49884 L 734.46,-7.895 L 734.892,-8.20836 L 735.379,-8.42519 L 735.9,-8.53603
 L 736.433,-8.53603 L 736.955,-8.42519 L 737.442,-8.20836 L 737.873,-7.895 L 738.23,-7.49884 L 738.496,-7.03717
 L 738.661,-6.53017 L 738.717,-6 L 738.717,-0 L 915.783,-0 L 915.783,-6 L 915.839,-6.53017
 L 916.004,-7.03717 L 916.27,-7.49884 L 916.627,-7.895 L 917.058,-8.20836 L 917.545,-8.42519 L 918.067,-8.53603
 L 918.6,-8.53603 L 919.121,-8.42519 L 919.608,-8.20836 L 920.04,-7.895 L 920.396,-7.49884 L 920.663,-7.03717
 L 920.828,-6.53017 L 920.883,-6 L 920.883,-0 L 1097.95,-0 L 1097.95,-6 L 1098.01,-6.53017
 L 1098.17,-7.03717 L 1098.44,-7.49884 L 1098.79,-7.895 L 1099.22,-8.20836 L 1099.71,-8.42519 L 1100.23,-8.53603
 L 1100.77,-8.53603 L 1101.29,-8.42519 L 1101.77,-8.20836 L 1102.21,-7.895 L 1102.56,-7.49884 L 1102.83,-7.03717
 L 1102.99,-6.53017 L 1103.05,-6 L 1103.05,-0 L 1108,-0 z
M 6.98573,-55.607 L 6.47708,-55.6875 L 5.97964,-55.8208 L 5.49887,-56.0054 L 5.04001,-56.2392 L 4.60811,-56.5196
 L 4.20789,-56.8437 L 3.84373,-57.2079 L 3.51964,-57.6081 L 3.23917,-58.04 L 3.00537,-58.4989 L 2.82082,-58.9796
 L 2.68752,-59.4771 L 2.60696,-59.9857 L 2.58,-60.5 L 2.60696,-61.0143 L 2.68752,-61.5229 L 2.82082,-62.0204
 L 3.00537,-62.5011 L 3.23917,-62.96 L 3.51964,-63.3919 L 3.84373,-63.7921 L 4.20789,-64.1563 L 4.60811,-64.4804
 L 4.95001,-64.7024 L 4.95001,-74 L 5.00574,-74.5302 L 5.17047,-75.0372 L 5.43701,-75.4988 L 5.79373,-75.895
 L 6.22501,-76.2084 L 6.71202,-76.4252 L 7.23346,-76.536 L 7.76654,-76.536 L 8.28798,-76.4252 L 8.77499,-76.2084
 L 9.20627,-75.895 L 9.56299,-75.4988 L 9.82953,-75.0372 L 9.99426,-74.5302 L 10.05,-74 L 10.05,-64.7024
 L 10.3919,-64.4804 L 10.7921,-64.1563 L 11.1563,-63.7921 L 11.4804,-63.3919 L 11.7608,-62.96 L 11.9946,-62.5011
 L 12.1792,-62.0204 L 12.3125,-61.5229 L 12.393,-61.0143 L 12.42,-60.5 L 12.393,-59.9857 L 12.3125,-59.4771
 L 12.1792,-58.9796 L 11.9946,-58.4989 L 11.7608,-58.04 L 11.4804,-57.6081 L 11.1563,-57.2079 L 10.7921,-56.8437
 L 10.3919,-56.5196 L 9.95999,-56.2392 L 9.50113,-56.0054 L 9.02036,-55.8208 L 8.52292,-55.6875 L 8.01427,-55.607
 L 7.5,-55.58 z
M 189.152,-55.607 L 188.644,-55.6875 L 188.146,-55.8208 L 187.666,-56.0054 L 187.207,-56.2392 L 186.775,-56.5196
 L 186.375,-56.8437 L 186.01,-57.2079 L 185.686,-57.6081 L 185.406,-58.04 L 185.172,-58.4989 L 184.987,-58.9796
 L 184.854,-59.4771 L 184.774,-59.9857 L 184.747,-60.5 L 184.774,-61.0143 L 184.854,-61.5229 L 184.987,-62.0204
 L 185.172,-62.5011 L 185.406,-62.96 L 185.686,-63.3919 L 186.01,-63.7921 L 186.375,-64.1563 L 186.775,-64.4804
 L 187.117,-64.7024 L 187.117,-74 L 187.172,-74.5302 L 187.337,-75.0372 L 187.604,-75.4988 L 187.96,-75.895
 L 188.392,-76.2084 L 188.879,-76.4252 L 189.4,-76.536 L 189.933,-76.536 L 190.455,-76.4252 L 190.942,-76.2084
 L 191.373,-75.895 L 191.73,-75.4988 L 191.996,-75.0372 L 192.161,-74.5302 L 192.217,-74 L 192.217,-64.7024
 L 192.559,-64.4804 L 192.959,-64.1563 L 193.323,-63.7921 L 193.647,-63.3919 L 193.927,-62.96 L 194.161,-62.5011
 L 194.346,-62.0204 L 194.479,-61.5229 L 194.56,-61.0143 L 194.587,-60.5 L 194.56,-59.9857 L 194.479,-59.4771
 L 194.346,-58.9796 L 194.161,-58.4989 L 193.927,-58.04 L 193.647,-57.6081 L 193.323,-57.2079 L 192.959,-56.8437
 L 192.559,-56.5196 L 192.127,-56.2392 L 191.668,-56.0054 L 191.187,-55.8208 L 190.69,-55.6875 L 190.181,-55.607
 L 189.667,-55.58 z
M 371.319,-55.607 L 370.81,-55.6875 L 370.313,-55.8208 L 369.832,-56.0054 L 369.373,-56.2392 L 368.941,-56.5196
 L 368.541,-56.8437 L 368.177,-57.2079 L 367.853,-57.6081 L 367.572,-58.04 L 367.339,-58.4989 L 367.154,-58.9796
 L 367.021,-59.4771 L 366.94,-59.9857 L 366.913,-60.5 L 366.94,-61.0143 L 367.021,-61.5229 L 367.154,-62.0204
 L 367.339,-62.5011 L 367.572,-62.96 L 367.853,-63.3919 L 368.177,-63.7921 L 368.541,-64.1563 L 368.941,-64.4804
 L 369.283,-64.7024 L 369.283,-74 L 369.339,-74.5302 L 369.504,-75.0372 L 369.77,-75.4988 L 370.127,-75.895
 L 370.558,-76.2084 L 371.045,-76.4252 L 371.567,-76.536 L 372.1,-76.536 L 372.621,-76.4252 L 373.108,-76.2084
 L 373.54,-75.895 L 373.896,-75.4988 L 374.163,-75.0372 L 374.328,-74.5302 L 374.383,-74 L 374.383,-64.7024
 L 374.725,-64.4804 L 375.125,-64.1563 L 375.49,-63.7921 L 375.814,-63.3919 L 376.094,-62.96 L 376.328,-62.5011
 L 376.513,-62.0204 L 376.646,-61.5229 L 376.726,-61.0143 L 376.753,-60.5 L 376.726,-59.9857 L 376.646,-59.4771
 L 376.513,-58.9796 L 376.328,-58.4989 L 376.094,-58.04 L 375.814,-57.6081 L 375.49,-57.2079 L 375.125,-56.8437
 L 374.725,-56.5196 L 374.293,-56.2392 L 373.834,-56.0054 L 373.354,-55.8208 L 372.856,-55.6875 L 372.348,-55.607
 L 371.833,-55.58 z
M 553.486,-55.607 L 552.977,-55.6875 L 552.48,-55.8208 L 551.999,-56.0054 L 551.54,-56.2392 L 551.108,-56.5196
 L 550.708,-56.8437 L 550.344,-57.2079 L 550.02,-57.6081 L 549.739,-58.04 L 549.505,-58.4989 L 549.321,-58.9796
 L 549.188,-59.4771 L 549.107,-59.9857 L 549.08,-60.5 L 549.107,-61.0143 L 549.188,-61.5229 L 549.321,-62.0204
 L 549.505,-62.5011 L 549.739,-62.96 L 550.02,-63.3919 L 550.344,-63.7921 L 550.708,-64.1563 L 551.108,-64.4804
 L 551.45,-64.7024 L 551.45,-74 L 551.506,-74.5302 L 551.67,-75.0372 L 551.937,-75.4988 L 552.294,-75.895
 L 552.725,-76.2084 L 553.212,-76.4252 L 553.733,-76.536 L 554.267,-76.536 L 554.788,-76.4252 L 555.275,-76.2084
 L 555.706,-75.895 L 556.063,-75.4988 L 556.33,-75.0372 L 556.494,-74.5302 L 556.55,-74 L 556.55,-64.7024
 L 556.892,-64.4804 L 557.292,-64.1563 L 557.656,-63.7921 L 557.98,-63.3919 L 558.261,-62.96 L 558.495,-62.5011
 L 558.679,-62.0204 L 558.812,-61.5229 L 558.893,-61.0143 L 558.92,-60.5 L 558.893,-59.9857 L 558.812,-59.4771
 L 558.679,-58.9796 L 558.495,-58.4989 L 558.261,-58.04 L 557.98,-57.6081 L 557.656,-57.2079 L 557.292,-56.8437
 L 556.892,-56.5196 L 556.46,-56.2392 L 556.001,-56.0054 L 555.52,-55.8208 L 555.023,-55.6875 L 554.514,-55.607
 L 554,-55.58 z
M 735.652,-55.607 L 735.144,-55.6875 L 734.646,-55.8208 L 734.166,-56.0054 L 733.707,-56.2392 L 733.275,-56.5196
 L 732.875,-56.8437 L 732.51,-57.2079 L 732.186,-57.6081 L 731.906,-58.04 L 731.672,-58.4989 L 731.487,-58.9796
 L 731.354,-59.4771 L 731.274,-59.9857 L 731.247,-60.5 L 731.274,-61.0143 L 731.354,-61.5229 L 731.487,-62.0204
 L 731.672,-62.5011 L 731.906,-62.96 L 732.186,-63.3919 L 732.51,-63.7921 L 732.875,-64.1563 L 733.275,-64.4804
 L 733.617,-64.7024 L 733.617,-74 L 733.672,-74.5302 L 733.837,-75.0372 L 734.104,-75.4988 L 734.46,-75.895
 L 734.892,-76.2084 L 735.379,-76.4252 L 735.9,-76.536 L 736.433,-76.536 L 736.955,-76.4252 L 737.442,-76.2084
 L 737.873,-75.895 L 738.23,-75.4988 L 738.496,-75.0372 L 738.661,-74.5302 L 738.717,-74 L 738.717,-64.7024
 L 739.059,-64.4804 L 739.459,-64.1563 L 739.823,-63.7921 L 740.147,-63.3919 L 740.427,-62.96 L 740.661,-62.5011
 L 740.846,-62.0204 L 740.979,-61.5229 L 741.06,-61.0143 L 741.087,-60.5 L 741.06,-59.9857 L 740.979,-59.4771
 L 740.846,-58.9796 L 740.661,-58.4989 L 740.427,-58.04 L 740.147,-57.6081 L 739.823,-57.2079 L 739.459,-56.8437
 L 739.059,-56.5196 L 738.627,-56.2392 L 738.168,-56.0054 L 737.687,-55.8208 L 737.19,-55.6875 L 736.681,-55.607
 L 736.167,-55.58 z
M 917.819,-55.607 L 917.31,-55.6875 L 916.813,-55.8208 L 916.332,-56.0054 L 915.873,-56.2392 L 915.441,-56.5196
 L 915.041,-56.8437 L 914.677,-57.2079 L 914.353,-57.6081 L 914.072,-58.04 L 913.839,-58.4989 L 913.654,-58.9796
 L 913.521,-59.4771 L 913.44,-59.9857 L 913.413,-60.5 L 913.44,-61.0143 L 913.521,-61.5229 L 913.654,-62.0204
 L 913.839,-62.5011 L 914.072,-62.96 L 914.353,-63.3919 L 914.677,-63.7921 L 915.041,-64.1563 L 915.441,-64.4804
 L 915.783,-64.7024 L 915.783,-74 L 915.839,-74.5302 L 916.004,-75.0372 L 916.27,-75.4988 L 916.627,-75.895
 L 917.058,-76.2084 L 917.545,-76.4252 L 918.067,-76.536 L 918.6,-76.536 L 919.121,-76.4252 L 919.608,-76.2084
 L 920.04,-75.895 L 920.396,-75.4988 L 920.663,-75.0372 L 920.828,-74.5302 L 920.883,-74 L 920.883,-64.7024
 L 921.225,-64.4804 L 921.625,-64.1563 L 921.99,-63.7921 L 922.314,-63.3919 L 922.594,-62.96 L 922.828,-62.5011
 L 923.013,-62.0204 L 923.146,-61.5229 L 923.226,-61.0143 L 923.253,-60.5 L 923.226,-59.9857 L 923.146,-59.4771
 L 923.013,-58.9796 L 922.828,-58.4989 L 922.594,-58.04 L 922.314,-57.6081 L 921.99,-57.2079 L 921.625,-56.8437
 L 921.225,-56.5196 L 920.793,-56.2392 L 920.334,-56.0054 L 919.854,-55.8208 L 919.356,-55.6875 L 918.848,-55.607
 L 918.333,-55.58 z
M 1099.99,-55.607 L 1099.48,-55.6875 L 1098.98,-55.8208 L 1098.5,-56.0054 L 1098.04,-56.2392 L 1097.61,-56.5196
 L 1097.21,-56.8437 L 1096.84,-57.2079 L 1096.52,-57.6081 L 1096.24,-58.04 L 1096.01,-58.4989 L 1095.82,-58.9796
 L 1095.69,-59.4771 L 1095.61,-59.9857 L 1095.58,-60.5 L 1095.61,-61.0143 L 1095.69,-61.5229 L 1095.82,-62.0204
 L 1096.01,-62.5011 L 1096.24,-62.96 L 1096.52,-63.3919 L 1096.84,-63.7921 L 1097.21,-64.1563 L 1097.61,-64.4804
 L 1097.95,-64.7024 L 1097.95,-74 L 1098.01,-74.5302 L 1098.17,-75.0372 L 1098.44,-75.4988 L 1098.79,-75.895
 L 1099.23,-76.2084 L 1099.71,-76.4252 L 1100.23,-76.536 L 1100.77,-76.536 L 1101.29,-76.4252 L 1101.77,-76.2084
 L 1102.21,-75.895 L 1102.56,-75.4988 L 1102.83,-75.0372 L 1102.99,-74.5302 L 1103.05,-74 L 1103.05,-64.7024
 L 1103.39,-64.4804 L 1103.79,-64.1563 L 1104.16,-63.7921 L 1104.48,-63.3919 L 1104.76,-62.96 L 1104.99,-62.5011
 L 1105.18,-62.0204 L 1105.31,-61.5229 L 1105.39,-61.0143 L 1105.42,-60.5 L 1105.39,-59.9857 L 1105.31,-59.4771
 L 1105.18,-58.9796 L 1104.99,-58.4989 L 1104.76,-58.04 L 1104.48,-57.6081 L 1104.16,-57.2079 L 1103.79,-56.8437
 L 1103.39,-56.5196 L 1102.96,-56.2392 L 1102.5,-56.0054 L 1102.02,-55.8208 L 1101.52,-55.6875 L 1101.01,-55.607
 L 1100.5,-55.58 z
M 930.262,-20.862 L 929.484,-21.1689 L 928.787,-21.6308 L 928.202,-22.2276 L 927.753,-22.9331 L 927.46,-23.7165
 L 927.333,-24.716 L 927.333,-58 L 927.421,-58.8316 L 927.679,-59.627 L 928.097,-60.3511 L 928.657,-60.9726
 L 929.333,-61.4641 L 930.097,-61.8042 L 931.333,-62 L 1020.5,-62 L 1021.33,-61.9126 L 1022.13,-61.6542
 L 1022.85,-61.2361 L 1023.47,-60.6765 L 1023.96,-60 L 1024.3,-59.2361 L 1024.48,-58.4181 L 1024.48,-57.5819
 L 1024.3,-56.7639 L 1023.96,-56 L 1023.47,-55.3235 L 1022.85,-54.7639 L 1021.9,-54.2526 L 932.732,-20.9686
 L 931.922,-20.7596 L 931.087,-20.7236 z
M 358.244,-20.7596 L 357.434,-20.9686 L 268.269,-54.2526 L 267.317,-54.7639 L 266.695,-55.3235 L 266.204,-56
 L 265.864,-56.7639 L 265.69,-57.5819 L 265.69,-58.4181 L 265.864,-59.2361 L 266.204,-60 L 266.695,-60.6765
 L 267.317,-61.2361 L 268.041,-61.6542 L 268.836,-61.9126 L 269.668,-62 L 358.833,-62 L 360.069,-61.8042
 L 360.833,-61.4641 L 361.51,-60.9726 L 362.069,-60.3511 L 362.487,-59.627 L 362.746,-58.8316 L 362.833,-58
 L 362.833,-24.716 L 362.706,-23.7165 L 362.414,-22.9331 L 361.965,-22.2276 L 361.379,-21.6308 L 360.682,-21.1689
 L 359.904,-20.862 L 359.08,-20.7236 z
M 176.077,-20.7596 L 175.268,-20.9686 L 86.1026,-54.2526 L 85.1503,-54.7639 L 84.5288,-55.3235 L 84.0373,-56
 L 83.6972,-56.7639 L 83.5233,-57.5819 L 83.5233,-58.4181 L 83.6972,-59.2361 L 84.0373,-60 L 84.5288,-60.6765
 L 85.1503,-61.2361 L 85.8745,-61.6542 L 86.6698,-61.9126 L 87.5014,-62 L 176.667,-62 L 177.903,-61.8042
 L 178.667,-61.4641 L 179.343,-60.9726 L 179.903,-60.3511 L 180.321,-59.627 L 180.579,-58.8316 L 180.667,-58
 L 180.667,-24.716 L 180.54,-23.7165 L 180.247,-22.9331 L 179.798,-22.2276 L 179.213,-21.6308 L 178.516,-21.1689
 L 177.738,-20.862 L 176.913,-20.7236 z
M 540.411,-20.7596 L 539.601,-20.9686 L 450.436,-54.2526 L 449.484,-54.7639 L 448.862,-55.3235 L 448.371,-56
 L 448.031,-56.7639 L 447.857,-57.5819 L 447.857,-58.4181 L 448.031,-59.2361 L 448.371,-60 L 448.862,-60.6765
 L 449.484,-61.2361 L 450.208,-61.6542 L 451.003,-61.9126 L 451.835,-62 L 541,-62 L 542.236,-61.8042
 L 543,-61.4641 L 543.677,-60.9726 L 544.236,-60.3511 L 544.654,-59.627 L 544.913,-58.8316 L 545,-58
 L 545,-24.716 L 544.873,-23.7165 L 544.581,-22.9331 L 544.132,-22.2276 L 543.546,-21.6308 L 542.849,-21.1689
 L 542.071,-20.862 L 541.246,-20.7236 z
M 565.929,-20.862 L 565.151,-21.1689 L 564.454,-21.6308 L 563.868,-22.2276 L 563.419,-22.9331 L 563.127,-23.7165
 L 563,-24.716 L 563,-58 L 563.087,-58.8316 L 563.346,-59.627 L 563.764,-60.3511 L 564.323,-60.9726
 L 565,-61.4641 L 565.764,-61.8042 L 567,-62 L 656.165,-62 L 656.997,-61.9126 L 657.792,-61.6542
 L 658.516,-61.2361 L 659.138,-60.6765 L 659.629,-60 L 659.969,-59.2361 L 660.143,-58.4181 L 660.143,-57.5819
 L 659.969,-56.7639 L 659.629,-56 L 659.138,-55.3235 L 658.516,-54.7639 L 657.564,-54.2526 L 568.399,-20.9686
 L 567.589,-20.7596 L 566.754,-20.7236 z
M 748.096,-20.862 L 747.318,-21.1689 L 746.621,-21.6308 L 746.035,-22.2276 L 745.586,-22.9331 L 745.294,-23.7165
 L 745.167,-24.716 L 745.167,-58 L 745.254,-58.8316 L 745.512,-59.627 L 745.931,-60.3511 L 746.49,-60.9726
 L 747.167,-61.4641 L 747.931,-61.8042 L 749.167,-62 L 838.332,-62 L 839.164,-61.9126 L 839.959,-61.6542
 L 840.683,-61.2361 L 841.305,-60.6765 L 841.796,-60 L 842.136,-59.2361 L 842.31,-58.4181 L 842.31,-57.5819
 L 842.136,-56.7639 L 841.796,-56 L 841.305,-55.3235 L 840.683,-54.7639 L 839.731,-54.2526 L 750.566,-20.9686
 L 749.756,-20.7596 L 748.92,-20.7236 z
M 202.667,-18 L 201.431,-18.1958 L 200.667,-18.5359 L 199.99,-19.0274 L 199.431,-19.6489 L 199.012,-20.373
 L 198.754,-21.1684 L 198.667,-22 L 198.667,-55.284 L 198.794,-56.2835 L 199.086,-57.0669 L 199.535,-57.7724
 L 200.121,-58.3692 L 200.818,-58.8311 L 201.596,-59.138 L 202.42,-59.2764 L 203.256,-59.2404 L 204.066,-59.0314
 L 293.231,-25.7474 L 294.183,-25.2361 L 294.804,-24.6765 L 295.296,-24 L 295.636,-23.2361 L 295.81,-22.4181
 L 295.81,-21.5819 L 295.636,-20.7639 L 295.296,-20 L 294.804,-19.3235 L 294.183,-18.7639 L 293.459,-18.3458
 L 292.664,-18.0874 L 291.832,-18 z
M 384.833,-18 L 383.597,-18.1958 L 382.833,-18.5359 L 382.157,-19.0274 L 381.597,-19.6489 L 381.179,-20.373
 L 380.921,-21.1684 L 380.833,-22 L 380.833,-55.284 L 380.96,-56.2835 L 381.253,-57.0669 L 381.702,-57.7724
 L 382.287,-58.3692 L 382.984,-58.8311 L 383.762,-59.138 L 384.587,-59.2764 L 385.422,-59.2404 L 386.232,-59.0314
 L 475.397,-25.7474 L 476.35,-25.2361 L 476.971,-24.6765 L 477.463,-24 L 477.803,-23.2361 L 477.977,-22.4181
 L 477.977,-21.5819 L 477.803,-20.7639 L 477.463,-20 L 476.971,-19.3235 L 476.35,-18.7639 L 475.626,-18.3458
 L 474.83,-18.0874 L 473.999,-18 z
M 634.001,-18 L 633.17,-18.0874 L 632.374,-18.3458 L 631.65,-18.7639 L 631.029,-19.3235 L 630.537,-20
 L 630.197,-20.7639 L 630.023,-21.5819 L 630.023,-22.4181 L 630.197,-23.2361 L 630.537,-24 L 631.029,-24.6765
 L 631.65,-25.2361 L 632.603,-25.7474 L 721.768,-59.0314 L 722.577,-59.2404 L 723.413,-59.2764 L 724.238,-59.138
 L 725.016,-58.8311 L 725.713,-58.3692 L 726.298,-57.7724 L 726.747,-57.0669 L 727.04,-56.2835 L 727.167,-55.284
 L 727.167,-22 L 727.079,-21.1684 L 726.821,-20.373 L 726.403,-19.6489 L 725.843,-19.0274 L 725.167,-18.5359
 L 724.403,-18.1958 L 723.167,-18 z
M 816.168,-18 L 815.336,-18.0874 L 814.541,-18.3458 L 813.817,-18.7639 L 813.196,-19.3235 L 812.704,-20
 L 812.364,-20.7639 L 812.19,-21.5819 L 812.19,-22.4181 L 812.364,-23.2361 L 812.704,-24 L 813.196,-24.6765
 L 813.817,-25.2361 L 814.769,-25.7474 L 903.934,-59.0314 L 904.744,-59.2404 L 905.58,-59.2764 L 906.404,-59.138
 L 907.182,-58.8311 L 907.879,-58.3692 L 908.465,-57.7724 L 908.914,-57.0669 L 909.206,-56.2835 L 909.333,-55.284
 L 909.333,-22 L 909.246,-21.1684 L 908.988,-20.373 L 908.569,-19.6489 L 908.01,-19.0274 L 907.333,-18.5359
 L 906.569,-18.1958 L 905.333,-18 z
M 998.335,-18 L 997.503,-18.0874 L 996.708,-18.3458 L 995.984,-18.7639 L 995.362,-19.3235 L 994.871,-20
 L 994.531,-20.7639 L 994.357,-21.5819 L 994.357,-22.4181 L 994.531,-23.2361 L 994.871,-24 L 995.362,-24.6765
 L 995.984,-25.2361 L 996.936,-25.7474 L 1084.6,-58.4715 L 1085.41,-58.6805 L 1086.25,-58.7165 L 1087.07,-58.578
 L 1087.85,-58.2711 L 1088.55,-57.8092 L 1089.13,-57.2125 L 1089.58,-56.507 L 1089.87,-55.7236 L 1090,-54.7241
 L 1090,-22 L 1089.91,-21.1684 L 1089.65,-20.373 L 1089.24,-19.6489 L 1088.68,-19.0274 L 1088,-18.5359
 L 1087.24,-18.1958 L 1086,-18 z
M 22,-18 L 20.7639,-18.1958 L 20,-18.5359 L 19.3235,-19.0274 L 18.7639,-19.6489 L 18.3458,-20.373
 L 18.0874,-21.1684 L 18,-22 L 18,-54.7241 L 18.1269,-55.7236 L 18.4193,-56.507 L 18.8683,-57.2125
 L 19.4541,-57.8092 L 20.1511,-58.2711 L 20.929,-58.578 L 21.7537,-58.7165 L 22.5892,-58.6805 L 23.3988,-58.4715
 L 111.064,-25.7474 L 112.016,-25.2361 L 112.638,-24.6765 L 113.129,-24 L 113.469,-23.2361 L 113.643,-22.4181
 L 113.643,-21.5819 L 113.469,-20.7639 L 113.129,-20 L 112.638,-19.3235 L 112.016,-18.7639 L 111.292,-18.3458
 L 110.497,-18.0874 L 109.665,-18 z
" stroke="black" fill="lightgray" stroke-width="0.5"/>
</svg>
