<?xml version="1.0" standalone="no"?>
<!DOCTYPE svg PUBLIC "-//W3C//DTD SVG 1.1//EN" "http://www.w3.org/Graphics/SVG/1.1/DTD/svg11.dtd">
<svg width="1491mm" height="80mm" viewBox="0 -80 1491 80" xmlns="http://www.w3.org/2000/svg" version="1.1">
<title>OpenSCAD Model</title>
<path d="
M 1491,-80 L 0,-80 L 0,-0 L 4.95,-0 L 4.95,-6 L 5.00572,-6.53017
 L 5.17046,-7.03717 L 5.437,-7.49884 L 5.79372,-7.895 L 6.22499,-8.20836 L 6.71201,-8.42519 L 7.23344,-8.53603
 L 7.76654,-8.53603 L 8.28798,-8.42519 L 8.77499,-8.20836 L 9.20627,-7.895 L 9.56299,-7.49884 L 9.82953,-7.03717
 L 9.99426,-6.53017 L 10.05,-6 L 10.05,-0 L 189.45,-0 L 189.45,-6 L 189.506,-6.53017
 L 189.67,-7.03717 L 189.937,-7.49884 L 190.294,-7.895 L 190.725,-8.20836 L 191.212,-8.42519 L 191.733,-8.53603
 L 192.267,-8.53603 L 192.788,-8.42519 L 193.275,-8.20836 L 193.706,-7.895 L 194.063,-7.49884 L 194.33,-7.03717
 L 194.494,-6.53017 L 194.55,-6 L 194.55,-0 L 373.95,-0 L 373.95,-6 L 374.006,-6.53017
 L 374.17,-7.03717 L 374.437,-7.49884 L 374.794,-7.895 L 375.225,-8.20836 L 375.712,-8.42519 L 376.233,-8.53603
 L 376.767,-8.53603 L 377.288,-8.42519 L 377.775,-8.20836 L 378.206,-7.895 L 378.563,-7.49884 L 378.83,-7.03717
 L 378.994,-6.53017 L 379.05,-6 L 379.05,-0 L 558.45,-0 L 558.45,-6 L 558.506,-6.53017
 L 558.67,-7.03717 L 558.937,-7.49884 L 559.294,-7.895 L 559.725,-8.20836 L 560.212,-8.42519 L 560.733,-8.53603
 L 561.267,-8.53603 L 561.788,-8.42519 L 562.275,-8.20836 L 562.706,-7.895 L 563.063,-7.49884 L 563.33,-7.03717
 L 563.494,-6.53017 L 563.55,-6 L 563.55,-0 L 742.95,-0 L 742.95,-6 L 743.006,-6.53017
 L 743.17,-7.03717 L 743.437,-7.49884 L 743.794,-7.895 L 744.225,-8.20836 L 744.712,-8.42519 L 745.233,-8.53603
 L 745.767,-8.53603 L 746.288,-8.42519 L 746.775,-8.20836 L 747.206,-7.895 L 747.563,-7.49884 L 747.83,-7.03717
 L 747.994,-6.53017 L 748.05,-6 L 748.05,-0 L 927.45,-0 L 927.45,-6 L 927.506,-6.53017
 L 927.67,-7.03717 L 927.937,-7.49884 L 928.294,-7.895 L 928.725,-8.20836 L 929.212,-8.42519 L 929.733,-8.53603
 L 930.267,-8.53603 L 930.788,-8.42519 L 931.275,-8.20836 L 931.706,-7.895 L 932.063,-7.49884 L 932.33,-7.03717
 L 932.494,-6.53017 L 932.55,-6 L 932.55,-0 L 1111.95,-0 L 1111.95,-6 L 1112.01,-6.53017
 L 1112.17,-7.03717 L 1112.44,-7.49884 L 1112.79,-7.895 L 1113.22,-8.20836 L 1113.71,-8.42519 L 1114.23,-8.53603
 L 1114.77,-8.53603 L 1115.29,-8.42519 L 1115.77,-8.20836 L 1116.21,-7.895 L 1116.56,-7.49884 L 1116.83,-7.03717
 L 1116.99,-6.53017 L 1117.05,-6 L 1117.05,-0 L 1296.45,-0 L 1296.45,-6 L 1296.51,-6.53017
 L 1296.67,-7.03717 L 1296.94,-7.49884 L 1297.29,-7.895 L 1297.72,-8.20836 L 1298.21,-8.42519 L 1298.73,-8.53603
 L 1299.27,-8.53603 L 1299.79,-8.42519 L 1300.27,-8.20836 L 1300.71,-7.895 L 1301.06,-7.49884 L 1301.33,-7.03717
 L 1301.49,-6.53017 L 1301.55,-6 L 1301.55,-0 L 1480.95,-0 L 1480.95,-6 L 1481.01,-6.53017
 L 1481.17,-7.03717 L 1481.44,-7.49884 L 1481.79,-7.895 L 1482.22,-8.20836 L 1482.71,-8.42519 L 1483.23,-8.53603
 L 1483.77,-8.53603 L 1484.29,-8.42519 L 1484.77,-8.20836 L 1485.21,-7.895 L 1485.56,-7.49884 L 1485.83,-7.03717
 L 1485.99,-6.53017 L 1486.05,-6 L 1486.05,-0 L 1491,-0 z
M 191.486,-55.607 L 190.977,-55.6875 L 190.48,-55.8208 L 189.999,-56.0054 L 189.54,-56.2392 L 189.108,-56.5196
 L 188.708,-56.8437 L 188.344,-57.2079 L 188.02,-57.6081 L 187.739,-58.04 L 187.505,-58.4989 L 187.321,-58.9796
 L 187.188,-59.4771 L 187.107,-59.9857 L 187.08,-60.5 L 187.107,-61.0143 L 187.188,-61.5229 L 187.321,-62.0204
 L 187.505,-62.5011 L 187.739,-62.96 L 188.02,-63.3919 L 188.344,-63.7921 L 188.708,-64.1563 L 189.108,-64.4804
 L 189.45,-64.7024 L 189.45,-74 L 189.506,-74.5302 L 189.67,-75.0372 L 189.937,-75.4988 L 190.294,-75.895
 L 190.725,-76.2084 L 191.212,-76.4252 L 191.733,-76.536 L 192.267,-76.536 L 192.788,-76.4252 L 193.275,-76.2084
 L 193.706,-75.895 L 194.063,-75.4988 L 194.33,-75.0372 L 194.494,-74.5302 L 194.55,-74 L 194.55,-64.7024
 L 194.892,-64.4804 L 195.292,-64.1563 L 195.656,-63.7921 L 195.98,-63.3919 L 196.261,-62.96 L 196.495,-62.5011
 L 196.679,-62.0204 L 196.812,-61.5229 L 196.893,-61.0143 L 196.92,-60.5 L 196.893,-59.9857 L 196.812,-59.4771
 L 196.679,-58.9796 L 196.495,-58.4989 L 196.261,-58.04 L 195.98,-57.6081 L 195.656,-57.2079 L 195.292,-56.8437
 L 194.892,-56.5196 L 194.46,-56.2392 L 194.001,-56.0054 L 193.52,-55.8208 L 193.023,-55.6875 L 192.514,-55.607
 L 192,-55.58 z
M 1113.99,-55.607 L 1113.48,-55.6875 L 1112.98,-55.8208 L 1112.5,-56.0054 L 1112.04,-56.2392 L 1111.61,-56.5196
 L 1111.21,-56.8437 L 1110.84,-57.2079 L 1110.52,-57.6081 L 1110.24,-58.04 L 1110.01,-58.4989 L 1109.82,-58.9796
 L 1109.69,-59.4771 L 1109.61,-59.9857 L 1109.58,-60.5 L 1109.61,-61.0143 L 1109.69,-61.5229 L 1109.82,-62.0204
 L 1110.01,-62.5011 L 1110.24,-62.96 L 1110.52,-63.3919 L 1110.84,-63.7921 L 1111.21,-64.1563 L 1111.61,-64.4804
 L 1111.95,-64.7024 L 1111.95,-74 L 1112.01,-74.5302 L 1112.17,-75.0372 L 1112.44,-75.4988 L 1112.79,-75.895
 L 1113.23,-76.2084 L 1113.71,-76.4252 L 1114.23,-76.536 L 1114.77,-76.536 L 1115.29,-76.4252 L 1115.77,-76.2084
 L 1116.21,-75.895 L 1116.56,-75.4988 L 1116.83,-75.0372 L 1116.99,-74.5302 L 1117.05,-74 L 1117.05,-64.7024
 L 1117.39,-64.4804 L 1117.79,-64.1563 L 1118.16,-63.7921 L 1118.48,-63.3919 L 1118.76,-62.96 L 1118.99,-62.5011
 L 1119.18,-62.0204 L 1119.31,-61.5229 L 1119.39,-61.0143 L 1119.42,-60.5 L 1119.39,-59.9857 L 1119.31,-59.4771
 L 1119.18,-58.9796 L 1118.99,-58.4989 L 1118.76,-58.04 L 1118.48,-57.6081 L 1118.16,-57.2079 L 1117.79,-56.8437
 L 1117.39,-56.5196 L 1116.96,-56.2392 L 1116.5,-56.0054 L 1116.02,-55.8208 L 1115.52,-55.6875 L 1115.01,-55.607
 L 1114.5,-55.58 z
M 929.486,-55.607 L 928.977,-55.6875 L 928.48,-55.8208 L 927.999,-56.0054 L 927.54,-56.2392 L 927.108,-56.5196
 L 926.708,-56.8437 L 926.344,-57.2079 L 926.02,-57.6081 L 925.739,-58.04 L 925.505,-58.4989 L 925.321,-58.9796
 L 925.188,-59.4771 L 925.107,-59.9857 L 925.08,-60.5 L 925.107,-61.0143 L 925.188,-61.5229 L 925.321,-62.0204
 L 925.505,-62.5011 L 925.739,-62.96 L 926.02,-63.3919 L 926.344,-63.7921 L 926.708,-64.1563 L 927.108,-64.4804
 L 927.45,-64.7024 L 927.45,-74 L 927.506,-74.5302 L 927.67,-75.0372 L 927.937,-75.4988 L 928.294,-75.895
 L 928.725,-76.2084 L 929.212,-76.4252 L 929.733,-76.536 L 930.267,-76.536 L 930.788,-76.4252 L 931.275,-76.2084
 L 931.706,-75.895 L 932.063,-75.4988 L 932.33,-75.0372 L 932.494,-74.5302 L 932.55,-74 L 932.55,-64.7024
 L 932.892,-64.4804 L 933.292,-64.1563 L 933.656,-63.7921 L 933.98,-63.3919 L 934.261,-62.96 L 934.495,-62.5011
 L 934.679,-62.0204 L 934.812,-61.5229 L 934.893,-61.0143 L 934.92,-60.5 L 934.893,-59.9857 L 934.812,-59.4771
 L 934.679,-58.9796 L 934.495,-58.4989 L 934.261,-58.04 L 933.98,-57.6081 L 933.656,-57.2079 L 933.292,-56.8437
 L 932.892,-56.5196 L 932.46,-56.2392 L 932.001,-56.0054 L 931.52,-55.8208 L 931.023,-55.6875 L 930.514,-55.607
 L 930,-55.58 z
M 6.98573,-55.607 L 6.47708,-55.6875 L 5.97964,-55.8208 L 5.49887,-56.0054 L 5.04001,-56.2392 L 4.60811,-56.5196
 L 4.20789,-56.8437 L 3.84373,-57.2079 L 3.51964,-57.6081 L 3.23917,-58.04 L 3.00537,-58.4989 L 2.82082,-58.9796
 L 2.68752,-59.4771 L 2.60696,-59.9857 L 2.58,-60.5 L 2.60696,-61.0143 L 2.68752,-61.5229 L 2.82082,-62.0204
 L 3.00537,-62.5011 L 3.23917,-62.96 L 3.51964,-63.3919 L 3.84373,-63.7921 L 4.20789,-64.1563 L 4.60811,-64.4804
 L 4.95001,-64.7024 L 4.95001,-74 L 5.00574,-74.5302 L 5.17047,-75.0372 L 5.43701,-75.4988 L 5.79373,-75.895
 L 6.22501,-76.2084 L 6.71202,-76.4252 L 7.23346,-76.536 L 7.76654,-76.536 L 8.28798,-76.4252 L 8.77499,-76.2084
 L 9.20627,-75.895 L 9.56299,-75.4988 L 9.82953,-75.0372 L 9.99426,-74.5302 L 10.05,-74 L 10.05,-64.7024
 L 10.3919,-64.4804 L 10.7921,-64.1563 L 11.1563,-63.7921 L 11.4804,-63.3919 L 11.7608,-62.96 L 11.9946,-62.5011
 L 12.1792,-62.0204 L 12.3125,-61.5229 L 12.393,-61.0143 L 12.42,-60.5 L 12.393,-59.9857 L 12.3125,-59.4771
 L 12.1792,-58.9796 L 11.9946,-58.4989 L 11.7608,-58.04 L 11.4804,-57.6081 L 11.1563,-57.2079 L 10.7921,-56.8437
 L 10.3919,-56.5196 L 9.95999,-56.2392 L 9.50113,-56.0054 L 9.02036,-55.8208 L 8.52292,-55.6875 L 8.01427,-55.607
 L 7.5,-55.58 z
M 744.986,-55.607 L 744.477,-55.6875 L 743.98,-55.8208 L 743.499,-56.0054 L 743.04,-56.2392 L 742.608,-56.5196
 L 742.208,-56.8437 L 741.844,-57.2079 L 741.52,-57.6081 L 741.239,-58.04 L 741.005,-58.4989 L 740.821,-58.9796
 L 740.688,-59.4771 L 740.607,-59.9857 L 740.58,-60.5 L 740.607,-61.0143 L 740.688,-61.5229 L 740.821,-62.0204
 L 741.005,-62.5011 L 741.239,-62.96 L 741.52,-63.3919 L 741.844,-63.7921 L 742.208,-64.1563 L 742.608,-64.4804
 L 742.95,-64.7024 L 742.95,-74 L 743.006,-74.5302 L 743.17,-75.0372 L 743.437,-75.4988 L 743.794,-75.895
 L 744.225,-76.2084 L 744.712,-76.4252 L 745.233,-76.536 L 745.767,-76.536 L 746.288,-76.4252 L 746.775,-76.2084
 L 747.206,-75.895 L 747.563,-75.4988 L 747.83,-75.0372 L 747.994,-74.5302 L 748.05,-74 L 748.05,-64.7024
 L 748.392,-64.4804 L 748.792,-64.1563 L 749.156,-63.7921 L 749.48,-63.3919 L 749.761,-62.96 L 749.995,-62.5011
 L 750.179,-62.0204 L 750.312,-61.5229 L 750.393,-61.0143 L 750.42,-60.5 L 750.393,-59.9857 L 750.312,-59.4771
 L 750.179,-58.9796 L 749.995,-58.4989 L 749.761,-58.04 L 749.48,-57.6081 L 749.156,-57.2079 L 748.792,-56.8437
 L 748.392,-56.5196 L 747.96,-56.2392 L 747.501,-56.0054 L 747.02,-55.8208 L 746.523,-55.6875 L 746.014,-55.607
 L 745.5,-55.58 z
M 1298.49,-55.607 L 1297.98,-55.6875 L 1297.48,-55.8208 L 1297,-56.0054 L 1296.54,-56.2392 L 1296.11,-56.5196
 L 1295.71,-56.8437 L 1295.34,-57.2079 L 1295.02,-57.6081 L 1294.74,-58.04 L 1294.51,-58.4989 L 1294.32,-58.9796
 L 1294.19,-59.4771 L 1294.11,-59.9857 L 1294.08,-60.5 L 1294.11,-61.0143 L 1294.19,-61.5229 L 1294.32,-62.0204
 L 1294.51,-62.5011 L 1294.74,-62.96 L 1295.02,-63.3919 L 1295.34,-63.7921 L 1295.71,-64.1563 L 1296.11,-64.4804
 L 1296.45,-64.7024 L 1296.45,-74 L 1296.51,-74.5302 L 1296.67,-75.0372 L 1296.94,-75.4988 L 1297.29,-75.895
 L 1297.73,-76.2084 L 1298.21,-76.4252 L 1298.73,-76.536 L 1299.27,-76.536 L 1299.79,-76.4252 L 1300.27,-76.2084
 L 1300.71,-75.895 L 1301.06,-75.4988 L 1301.33,-75.0372 L 1301.49,-74.5302 L 1301.55,-74 L 1301.55,-64.7024
 L 1301.89,-64.4804 L 1302.29,-64.1563 L 1302.66,-63.7921 L 1302.98,-63.3919 L 1303.26,-62.96 L 1303.49,-62.5011
 L 1303.68,-62.0204 L 1303.81,-61.5229 L 1303.89,-61.0143 L 1303.92,-60.5 L 1303.89,-59.9857 L 1303.81,-59.4771
 L 1303.68,-58.9796 L 1303.49,-58.4989 L 1303.26,-58.04 L 1302.98,-57.6081 L 1302.66,-57.2079 L 1302.29,-56.8437
 L 1301.89,-56.5196 L 1301.46,-56.2392 L 1301,-56.0054 L 1300.52,-55.8208 L 1300.02,-55.6875 L 1299.51,-55.607
 L 1299,-55.58 z
M 560.486,-55.607 L 559.977,-55.6875 L 559.48,-55.8208 L 558.999,-56.0054 L 558.54,-56.2392 L 558.108,-56.5196
 L 557.708,-56.8437 L 557.344,-57.2079 L 557.02,-57.6081 L 556.739,-58.04 L 556.505,-58.4989 L 556.321,-58.9796
 L 556.188,-59.4771 L 556.107,-59.9857 L 556.08,-60.5 L 556.107,-61.0143 L 556.188,-61.5229 L 556.321,-62.0204
 L 556.505,-62.5011 L 556.739,-62.96 L 557.02,-63.3919 L 557.344,-63.7921 L 557.708,-64.1563 L 558.108,-64.4804
 L 558.45,-64.7024 L 558.45,-74 L 558.506,-74.5302 L 558.67,-75.0372 L 558.937,-75.4988 L 559.294,-75.895
 L 559.725,-76.2084 L 560.212,-76.4252 L 560.733,-76.536 L 561.267,-76.536 L 561.788,-76.4252 L 562.275,-76.2084
 L 562.706,-75.895 L 563.063,-75.4988 L 563.33,-75.0372 L 563.494,-74.5302 L 563.55,-74 L 563.55,-64.7024
 L 563.892,-64.4804 L 564.292,-64.1563 L 564.656,-63.7921 L 564.98,-63.3919 L 565.261,-62.96 L 565.495,-62.5011
 L 565.679,-62.0204 L 565.812,-61.5229 L 565.893,-61.0143 L 565.92,-60.5 L 565.893,-59.9857 L 565.812,-59.4771
 L 565.679,-58.9796 L 565.495,-58.4989 L 565.261,-58.04 L 564.98,-57.6081 L 564.656,-57.2079 L 564.292,-56.8437
 L 563.892,-56.5196 L 563.46,-56.2392 L 563.001,-56.0054 L 562.52,-55.8208 L 562.023,-55.6875 L 561.514,-55.607
 L 561,-55.58 z
M 375.986,-55.607 L 375.477,-55.6875 L 374.98,-55.8208 L 374.499,-56.0054 L 374.04,-56.2392 L 373.608,-56.5196
 L 373.208,-56.8437 L 372.844,-57.2079 L 372.52,-57.6081 L 372.239,-58.04 L 372.005,-58.4989 L 371.821,-58.9796
 L 371.688,-59.4771 L 371.607,-59.9857 L 371.58,-60.5 L 371.607,-61.0143 L 371.688,-61.5229 L 371.821,-62.0204
 L 372.005,-62.5011 L 372.239,-62.96 L 372.52,-63.3919 L 372.844,-63.7921 L 373.208,-64.1563 L 373.608,-64.4804
 L 373.95,-64.7024 L 373.95,-74 L 374.006,-74.5302 L 374.17,-75.0372 L 374.437,-75.4988 L 374.794,-75.895
 L 375.225,-76.2084 L 375.712,-76.4252 L 376.233,-76.536 L 376.767,-76.536 L 377.288,-76.4252 L 377.775,-76.2084
 L 378.206,-75.895 L 378.563,-75.4988 L 378.83,-75.0372 L 378.994,-74.5302 L 379.05,-74 L 379.05,-64.7024
 L 379.392,-64.4804 L 379.792,-64.1563 L 380.156,-63.7921 L 380.48,-63.3919 L 380.761,-62.96 L 380.995,-62.5011
 L 381.179,-62.0204 L 381.312,-61.5229 L 381.393,-61.0143 L 381.42,-60.5 L 381.393,-59.9857 L 381.312,-59.4771
 L 381.179,-58.9796 L 380.995,-58.4989 L 380.761,-58.04 L 380.48,-57.6081 L 380.156,-57.2079 L 379.792,-56.8437
 L 379.392,-56.5196 L 378.96,-56.2392 L 378.501,-56.0054 L 378.02,-55.8208 L 377.523,-55.6875 L 377.014,-55.607
 L 376.5,-55.58 z
M 1482.99,-55.607 L 1482.48,-55.6875 L 1481.98,-55.8208 L 1481.5,-56.0054 L 1481.04,-56.2392 L 1480.61,-56.5196
 L 1480.21,-56.8437 L 1479.84,-57.2079 L 1479.52,-57.6081 L 1479.24,-58.04 L 1479.01,-58.4989 L 1478.82,-58.9796
 L 1478.69,-59.4771 L 1478.61,-59.9857 L 1478.58,-60.5 L 1478.61,-61.0143 L 1478.69,-61.5229 L 1478.82,-62.0204
 L 1479.01,-62.5011 L 1479.24,-62.96 L 1479.52,-63.3919 L 1479.84,-63.7921 L 1480.21,-64.1563 L 1480.61,-64.4804
 L 1480.95,-64.7024 L 1480.95,-74 L 1481.01,-74.5302 L 1481.17,-75.0372 L 1481.44,-75.4988 L 1481.79,-75.895
 L 1482.23,-76.2084 L 1482.71,-76.4252 L 1483.23,-76.536 L 1483.77,-76.536 L 1484.29,-76.4252 L 1484.77,-76.2084
 L 1485.21,-75.895 L 1485.56,-75.4988 L 1485.83,-75.0372 L 1485.99,-74.5302 L 1486.05,-74 L 1486.05,-64.7024
 L 1486.39,-64.4804 L 1486.79,-64.1563 L 1487.16,-63.7921 L 1487.48,-63.3919 L 1487.76,-62.96 L 1487.99,-62.5011
 L 1488.18,-62.0204 L 1488.31,-61.5229 L 1488.39,-61.0143 L 1488.42,-60.5 L 1488.39,-59.9857 L 1488.31,-59.4771
 L 1488.18,-58.9796 L 1487.99,-58.4989 L 1487.76,-58.04 L 1487.48,-57.6081 L 1487.16,-57.2079 L 1486.79,-56.8437
 L 1486.39,-56.5196 L 1485.96,-56.2392 L 1485.5,-56.0054 L 1485.02,-55.8208 L 1484.52,-55.6875 L 1484.01,-55.607
 L 1483.5,-55.58 z
M 362.927,-20.6769 L 362.117,-20.8824 L 271.591,-54.2468 L 270.624,-54.7639 L 270.002,-55.3235 L 269.511,-56
 L 269.17,-56.7639 L 268.997,-57.5819 L 268.997,-58.4181 L 269.17,-59.2361 L 269.511,-60 L 270.002,-60.6765
 L 270.624,-61.2361 L 271.348,-61.6542 L 272.143,-61.9126 L 272.975,-62 L 363.5,-62 L 364.736,-61.8042
 L 365.5,-61.4641 L 366.177,-60.9726 L 366.736,-60.3511 L 367.154,-59.627 L 367.413,-58.8316 L 367.5,-58
 L 367.5,-24.6357 L 367.377,-23.6523 L 367.088,-22.8676 L 366.642,-22.1603 L 366.059,-21.5611 L 365.364,-21.0963
 L 364.587,-20.7862 L 363.763,-20.6443 z
M 547.427,-20.6769 L 546.617,-20.8824 L 456.091,-54.2468 L 455.124,-54.7639 L 454.502,-55.3235 L 454.011,-56
 L 453.67,-56.7639 L 453.497,-57.5819 L 453.497,-58.4181 L 453.67,-59.2361 L 454.011,-60 L 454.502,-60.6765
 L 455.124,-61.2361 L 455.848,-61.6542 L 456.643,-61.9126 L 457.475,-62 L 548,-62 L 549.236,-61.8042
 L 550,-61.4641 L 550.677,-60.9726 L 551.236,-60.3511 L 551.654,-59.627 L 551.913,-58.8316 L 552,-58
 L 552,-24.6357 L 551.877,-23.6523 L 551.588,-22.8676 L 551.142,-22.1603 L 550.559,-21.5611 L 549.864,-21.0963
 L 549.087,-20.7862 L 548.263,-20.6443 z
M 1310.91,-20.7862 L 1310.14,-21.0963 L 1309.44,-21.5611 L 1308.86,-22.1603 L 1308.41,-22.8676 L 1308.12,-23.6523
 L 1308,-24.6357 L 1308,-58 L 1308.09,-58.8316 L 1308.35,-59.627 L 1308.76,-60.3511 L 1309.32,-60.9726
 L 1310,-61.4641 L 1310.76,-61.8042 L 1312,-62 L 1402.53,-62 L 1403.36,-61.9126 L 1404.15,-61.6542
 L 1404.88,-61.2361 L 1405.5,-60.6765 L 1405.99,-60 L 1406.33,-59.2361 L 1406.5,-58.4181 L 1406.5,-57.5819
 L 1406.33,-56.7639 L 1405.99,-56 L 1405.5,-55.3235 L 1404.88,-54.7639 L 1403.91,-54.2468 L 1313.38,-20.8824
 L 1312.57,-20.6769 L 1311.74,-20.6443 z
M 731.927,-20.6769 L 731.117,-20.8824 L 640.591,-54.2468 L 639.624,-54.7639 L 639.002,-55.3235 L 638.511,-56
 L 638.17,-56.7639 L 637.997,-57.5819 L 637.997,-58.4181 L 638.17,-59.2361 L 638.511,-60 L 639.002,-60.6765
 L 639.624,-61.2361 L 640.348,-61.6542 L 641.143,-61.9126 L 641.975,-62 L 732.5,-62 L 733.736,-61.8042
 L 734.5,-61.4641 L 735.177,-60.9726 L 735.736,-60.3511 L 736.154,-59.627 L 736.413,-58.8316 L 736.5,-58
 L 736.5,-24.6357 L 736.377,-23.6523 L 736.088,-22.8676 L 735.642,-22.1603 L 735.059,-21.5611 L 734.364,-21.0963
 L 733.587,-20.7862 L 732.763,-20.6443 z
M 178.427,-20.6769 L 177.617,-20.8824 L 87.0914,-54.2468 L 86.1235,-54.7639 L 85.5021,-55.3235 L 85.0106,-56
 L 84.6704,-56.7639 L 84.4966,-57.5819 L 84.4966,-58.4181 L 84.6704,-59.2361 L 85.0106,-60 L 85.5021,-60.6765
 L 86.1235,-61.2361 L 86.8477,-61.6542 L 87.643,-61.9126 L 88.4747,-62 L 179,-62 L 180.236,-61.8042
 L 181,-61.4641 L 181.677,-60.9726 L 182.236,-60.3511 L 182.654,-59.627 L 182.913,-58.8316 L 183,-58
 L 183,-24.6357 L 182.877,-23.6523 L 182.588,-22.8676 L 182.142,-22.1603 L 181.559,-21.5611 L 180.864,-21.0963
 L 180.087,-20.7862 L 179.263,-20.6443 z
M 757.413,-20.7862 L 756.636,-21.0963 L 755.941,-21.5611 L 755.358,-22.1603 L 754.912,-22.8676 L 754.623,-23.6523
 L 754.5,-24.6357 L 754.5,-58 L 754.587,-58.8316 L 754.846,-59.627 L 755.264,-60.3511 L 755.823,-60.9726
 L 756.5,-61.4641 L 757.264,-61.8042 L 758.5,-62 L 849.025,-62 L 849.857,-61.9126 L 850.652,-61.6542
 L 851.376,-61.2361 L 851.998,-60.6765 L 852.489,-60 L 852.83,-59.2361 L 853.003,-58.4181 L 853.003,-57.5819
 L 852.83,-56.7639 L 852.489,-56 L 851.998,-55.3235 L 851.376,-54.7639 L 850.409,-54.2468 L 759.883,-20.8824
 L 759.073,-20.6769 L 758.237,-20.6443 z
M 941.913,-20.7862 L 941.136,-21.0963 L 940.441,-21.5611 L 939.858,-22.1603 L 939.412,-22.8676 L 939.123,-23.6523
 L 939,-24.6357 L 939,-58 L 939.087,-58.8316 L 939.346,-59.627 L 939.764,-60.3511 L 940.323,-60.9726
 L 941,-61.4641 L 941.764,-61.8042 L 943,-62 L 1033.53,-62 L 1034.36,-61.9126 L 1035.15,-61.6542
 L 1035.88,-61.2361 L 1036.5,-60.6765 L 1036.99,-60 L 1037.33,-59.2361 L 1037.5,-58.4181 L 1037.5,-57.5819
 L 1037.33,-56.7639 L 1036.99,-56 L 1036.5,-55.3235 L 1035.88,-54.7639 L 1034.91,-54.2468 L 944.383,-20.8824
 L 943.573,-20.6769 L 942.737,-20.6443 z
M 1126.41,-20.7862 L 1125.64,-21.0963 L 1124.94,-21.5611 L 1124.36,-22.1603 L 1123.91,-22.8676 L 1123.62,-23.6523
 L 1123.5,-24.6357 L 1123.5,-58 L 1123.59,-58.8316 L 1123.85,-59.627 L 1124.26,-60.3511 L 1124.82,-60.9726
 L 1125.5,-61.4641 L 1126.26,-61.8042 L 1127.5,-62 L 1218.03,-62 L 1218.86,-61.9126 L 1219.65,-61.6542
 L 1220.38,-61.2361 L 1221,-60.6765 L 1221.49,-60 L 1221.83,-59.2361 L 1222,-58.4181 L 1222,-57.5819
 L 1221.83,-56.7639 L 1221.49,-56 L 1221,-55.3235 L 1220.38,-54.7639 L 1219.41,-54.2468 L 1128.88,-20.8824
 L 1128.07,-20.6769 L 1127.24,-20.6443 z
M 205,-18 L 203.764,-18.1958 L 203,-18.5359 L 202.323,-19.0274 L 201.764,-19.6489 L 201.346,-20.373
 L 201.087,-21.1684 L 201,-22 L 201,-55.3643 L 201.123,-56.3477 L 201.412,-57.1324 L 201.858,-57.8397
 L 202.441,-58.4389 L 203.136,-58.9037 L 203.913,-59.2138 L 204.737,-59.3557 L 205.573,-59.3231 L 206.383,-59.1175
 L 296.909,-25.7532 L 297.876,-25.2361 L 298.498,-24.6765 L 298.989,-24 L 299.33,-23.2361 L 299.503,-22.4181
 L 299.503,-21.5819 L 299.33,-20.7639 L 298.989,-20 L 298.498,-19.3235 L 297.876,-18.7639 L 297.152,-18.3458
 L 296.357,-18.0874 L 295.525,-18 z
M 389.5,-18 L 388.264,-18.1958 L 387.5,-18.5359 L 386.823,-19.0274 L 386.264,-19.6489 L 385.846,-20.373
 L 385.587,-21.1684 L 385.5,-22 L 385.5,-55.3643 L 385.623,-56.3477 L 385.912,-57.1324 L 386.358,-57.8397
 L 386.941,-58.4389 L 387.636,-58.9037 L 388.413,-59.2138 L 389.237,-59.3557 L 390.073,-59.3231 L 390.883,-59.1175
 L 481.409,-25.7532 L 482.376,-25.2361 L 482.998,-24.6765 L 483.489,-24 L 483.83,-23.2361 L 484.003,-22.4181
 L 484.003,-21.5819 L 483.83,-20.7639 L 483.489,-20 L 482.998,-19.3235 L 482.376,-18.7639 L 481.652,-18.3458
 L 480.857,-18.0874 L 480.025,-18 z
M 574,-18 L 572.764,-18.1958 L 572,-18.5359 L 571.323,-19.0274 L 570.764,-19.6489 L 570.346,-20.373
 L 570.087,-21.1684 L 570,-22 L 570,-55.3643 L 570.123,-56.3477 L 570.412,-57.1324 L 570.858,-57.8397
 L 571.441,-58.4389 L 572.136,-58.9037 L 572.913,-59.2138 L 573.737,-59.3557 L 574.573,-59.3231 L 575.383,-59.1175
 L 665.909,-25.7532 L 666.876,-25.2361 L 667.498,-24.6765 L 667.989,-24 L 668.33,-23.2361 L 668.503,-22.4181
 L 668.503,-21.5819 L 668.33,-20.7639 L 667.989,-20 L 667.498,-19.3235 L 666.876,-18.7639 L 666.152,-18.3458
 L 665.357,-18.0874 L 664.525,-18 z
M 826.475,-18 L 825.643,-18.0874 L 824.848,-18.3458 L 824.124,-18.7639 L 823.502,-19.3235 L 823.011,-20
 L 822.67,-20.7639 L 822.497,-21.5819 L 822.497,-22.4181 L 822.67,-23.2361 L 823.011,-24 L 823.502,-24.6765
 L 824.124,-25.2361 L 825.091,-25.7532 L 915.617,-59.1175 L 916.427,-59.3231 L 917.263,-59.3557 L 918.087,-59.2138
 L 918.864,-58.9037 L 919.559,-58.4389 L 920.142,-57.8397 L 920.588,-57.1324 L 920.877,-56.3477 L 921,-55.3643
 L 921,-22 L 920.913,-21.1684 L 920.654,-20.373 L 920.236,-19.6489 L 919.677,-19.0274 L 919,-18.5359
 L 918.236,-18.1958 L 917,-18 z
M 1010.97,-18 L 1010.14,-18.0874 L 1009.35,-18.3458 L 1008.62,-18.7639 L 1008,-19.3235 L 1007.51,-20
 L 1007.17,-20.7639 L 1007,-21.5819 L 1007,-22.4181 L 1007.17,-23.2361 L 1007.51,-24 L 1008,-24.6765
 L 1008.62,-25.2361 L 1009.59,-25.7532 L 1100.12,-59.1175 L 1100.93,-59.3231 L 1101.76,-59.3557 L 1102.59,-59.2138
 L 1103.36,-58.9037 L 1104.06,-58.4389 L 1104.64,-57.8397 L 1105.09,-57.1324 L 1105.38,-56.3477 L 1105.5,-55.3643
 L 1105.5,-22 L 1105.41,-21.1684 L 1105.15,-20.373 L 1104.74,-19.6489 L 1104.18,-19.0274 L 1103.5,-18.5359
 L 1102.74,-18.1958 L 1101.5,-18 z
M 1195.47,-18 L 1194.64,-18.0874 L 1193.85,-18.3458 L 1193.12,-18.7639 L 1192.5,-19.3235 L 1192.01,-20
 L 1191.67,-20.7639 L 1191.5,-21.5819 L 1191.5,-22.4181 L 1191.67,-23.2361 L 1192.01,-24 L 1192.5,-24.6765
 L 1193.12,-25.2361 L 1194.09,-25.7532 L 1284.62,-59.1175 L 1285.43,-59.3231 L 1286.26,-59.3557 L 1287.09,-59.2138
 L 1287.86,-58.9037 L 1288.56,-58.4389 L 1289.14,-57.8397 L 1289.59,-57.1324 L 1289.88,-56.3477 L 1290,-55.3643
 L 1290,-22 L 1289.91,-21.1684 L 1289.65,-20.373 L 1289.24,-19.6489 L 1288.68,-19.0274 L 1288,-18.5359
 L 1287.24,-18.1958 L 1286,-18 z
M 1379.97,-18 L 1379.14,-18.0874 L 1378.35,-18.3458 L 1377.62,-18.7639 L 1377,-19.3235 L 1376.51,-20
 L 1376.17,-20.7639 L 1376,-21.5819 L 1376,-22.4181 L 1376.17,-23.2361 L 1376.51,-24 L 1377,-24.6765
 L 1377.62,-25.2361 L 1378.59,-25.7532 L 1467.62,-58.5647 L 1468.43,-58.7703 L 1469.26,-58.8028 L 1470.09,-58.661
 L 1470.86,-58.3509 L 1471.56,-57.8861 L 1472.14,-57.2869 L 1472.59,-56.5795 L 1472.88,-55.7949 L 1473,-54.8115
 L 1473,-22 L 1472.91,-21.1684 L 1472.65,-20.373 L 1472.24,-19.6489 L 1471.68,-19.0274 L 1471,-18.5359
 L 1470.24,-18.1958 L 1469,-18 z
M 22,-18 L 20.7639,-18.1958 L 20,-18.5359 L 19.3235,-19.0274 L 18.7639,-19.6489 L 18.3458,-20.373
 L 18.0874,-21.1684 L 18,-22 L 18,-54.8115 L 18.1228,-55.7949 L 18.412,-56.5795 L 18.858,-57.2869
 L 19.4413,-57.8861 L 20.1364,-58.3509 L 20.913,-58.661 L 21.7371,-58.8028 L 22.5727,-58.7703 L 23.3833,-58.5647
 L 112.409,-25.7532 L 113.376,-25.2361 L 113.998,-24.6765 L 114.489,-24 L 114.83,-23.2361 L 115.003,-22.4181
 L 115.003,-21.5819 L 114.83,-20.7639 L 114.489,-20 L 113.998,-19.3235 L 113.376,-18.7639 L 112.652,-18.3458
 L 111.857,-18.0874 L 111.025,-18 z
" stroke="black" fill="lightgray" stroke-width="0.5"/>
</svg>
