<?xml version="1.0" standalone="no"?>
<!DOCTYPE svg PUBLIC "-//W3C//DTD SVG 1.1//EN" "http://www.w3.org/Graphics/SVG/1.1/DTD/svg11.dtd">
<svg width="1173mm" height="80mm" viewBox="0 -80 1173 80" xmlns="http://www.w3.org/2000/svg" version="1.1">
<title>OpenSCAD Model</title>
<path d="
M 1173,-80 L 0,-80 L 0,-0 L 4.95,-0 L 4.95,-6 L 5.00572,-6.53017
 L 5.17046,-7.03717 L 5.437,-7.49884 L 5.79372,-7.895 L 6.22499,-8.20836 L 6.71201,-8.42519 L 7.23344,-8.53603
 L 7.76654,-8.53603 L 8.28798,-8.42519 L 8.77499,-8.20836 L 9.20627,-7.895 L 9.56299,-7.49884 L 9.82953,-7.03717
 L 9.99426,-6.53017 L 10.05,-6 L 10.05,-0 L 197.95,-0 L 197.95,-6 L 198.006,-6.53017
 L 198.17,-7.03717 L 198.437,-7.49884 L 198.794,-7.895 L 199.225,-8.20836 L 199.712,-8.42519 L 200.233,-8.53603
 L 200.767,-8.53603 L 201.288,-8.42519 L 201.775,-8.20836 L 202.206,-7.895 L 202.563,-7.49884 L 202.83,-7.03717
 L 202.994,-6.53017 L 203.05,-6 L 203.05,-0 L 390.95,-0 L 390.95,-6 L 391.006,-6.53017
 L 391.17,-7.03717 L 391.437,-7.49884 L 391.794,-7.895 L 392.225,-8.20836 L 392.712,-8.42519 L 393.233,-8.53603
 L 393.767,-8.53603 L 394.288,-8.42519 L 394.775,-8.20836 L 395.206,-7.895 L 395.563,-7.49884 L 395.83,-7.03717
 L 395.994,-6.53017 L 396.05,-6 L 396.05,-0 L 583.95,-0 L 583.95,-6 L 584.006,-6.53017
 L 584.17,-7.03717 L 584.437,-7.49884 L 584.794,-7.895 L 585.225,-8.20836 L 585.712,-8.42519 L 586.233,-8.53603
 L 586.767,-8.53603 L 587.288,-8.42519 L 587.775,-8.20836 L 588.206,-7.895 L 588.563,-7.49884 L 588.83,-7.03717
 L 588.994,-6.53017 L 589.05,-6 L 589.05,-0 L 776.95,-0 L 776.95,-6 L 777.006,-6.53017
 L 777.17,-7.03717 L 777.437,-7.49884 L 777.794,-7.895 L 778.225,-8.20836 L 778.712,-8.42519 L 779.233,-8.53603
 L 779.767,-8.53603 L 780.288,-8.42519 L 780.775,-8.20836 L 781.206,-7.895 L 781.563,-7.49884 L 781.83,-7.03717
 L 781.994,-6.53017 L 782.05,-6 L 782.05,-0 L 969.95,-0 L 969.95,-6 L 970.006,-6.53017
 L 970.17,-7.03717 L 970.437,-7.49884 L 970.794,-7.895 L 971.225,-8.20836 L 971.712,-8.42519 L 972.233,-8.53603
 L 972.767,-8.53603 L 973.288,-8.42519 L 973.775,-8.20836 L 974.206,-7.895 L 974.563,-7.49884 L 974.83,-7.03717
 L 974.994,-6.53017 L 975.05,-6 L 975.05,-0 L 1162.95,-0 L 1162.95,-6 L 1163.01,-6.53017
 L 1163.17,-7.03717 L 1163.44,-7.49884 L 1163.79,-7.895 L 1164.22,-8.20836 L 1164.71,-8.42519 L 1165.23,-8.53603
 L 1165.77,-8.53603 L 1166.29,-8.42519 L 1166.77,-8.20836 L 1167.21,-7.895 L 1167.56,-7.49884 L 1167.83,-7.03717
 L 1167.99,-6.53017 L 1168.05,-6 L 1168.05,-0 L 1173,-0 z
M 6.98573,-55.607 L 6.47708,-55.6875 L 5.97964,-55.8208 L 5.49887,-56.0054 L 5.04001,-56.2392 L 4.60811,-56.5196
 L 4.20789,-56.8437 L 3.84373,-57.2079 L 3.51964,-57.6081 L 3.23917,-58.04 L 3.00537,-58.4989 L 2.82082,-58.9796
 L 2.68752,-59.4771 L 2.60696,-59.9857 L 2.58,-60.5 L 2.60696,-61.0143 L 2.68752,-61.5229 L 2.82082,-62.0204
 L 3.00537,-62.5011 L 3.23917,-62.96 L 3.51964,-63.3919 L 3.84373,-63.7921 L 4.20789,-64.1563 L 4.60811,-64.4804
 L 4.95001,-64.7024 L 4.95001,-74 L 5.00574,-74.5302 L 5.17047,-75.0372 L 5.43701,-75.4988 L 5.79373,-75.895
 L 6.22501,-76.2084 L 6.71202,-76.4252 L 7.23346,-76.536 L 7.76654,-76.536 L 8.28798,-76.4252 L 8.77499,-76.2084
 L 9.20627,-75.895 L 9.56299,-75.4988 L 9.82953,-75.0372 L 9.99426,-74.5302 L 10.05,-74 L 10.05,-64.7024
 L 10.3919,-64.4804 L 10.7921,-64.1563 L 11.1563,-63.7921 L 11.4804,-63.3919 L 11.7608,-62.96 L 11.9946,-62.5011
 L 12.1792,-62.0204 L 12.3125,-61.5229 L 12.393,-61.0143 L 12.42,-60.5 L 12.393,-59.9857 L 12.3125,-59.4771
 L 12.1792,-58.9796 L 11.9946,-58.4989 L 11.7608,-58.04 L 11.4804,-57.6081 L 11.1563,-57.2079 L 10.7921,-56.8437
 L 10.3919,-56.5196 L 9.95999,-56.2392 L 9.50113,-56.0054 L 9.02036,-55.8208 L 8.52292,-55.6875 L 8.01427,-55.607
 L 7.5,-55.58 z
M 199.986,-55.607 L 199.477,-55.6875 L 198.98,-55.8208 L 198.499,-56.0054 L 198.04,-56.2392 L 197.608,-56.5196
 L 197.208,-56.8437 L 196.844,-57.2079 L 196.52,-57.6081 L 196.239,-58.04 L 196.005,-58.4989 L 195.821,-58.9796
 L 195.688,-59.4771 L 195.607,-59.9857 L 195.58,-60.5 L 195.607,-61.0143 L 195.688,-61.5229 L 195.821,-62.0204
 L 196.005,-62.5011 L 196.239,-62.96 L 196.52,-63.3919 L 196.844,-63.7921 L 197.208,-64.1563 L 197.608,-64.4804
 L 197.95,-64.7024 L 197.95,-74 L 198.006,-74.5302 L 198.17,-75.0372 L 198.437,-75.4988 L 198.794,-75.895
 L 199.225,-76.2084 L 199.712,-76.4252 L 200.233,-76.536 L 200.767,-76.536 L 201.288,-76.4252 L 201.775,-76.2084
 L 202.206,-75.895 L 202.563,-75.4988 L 202.83,-75.0372 L 202.994,-74.5302 L 203.05,-74 L 203.05,-64.7024
 L 203.392,-64.4804 L 203.792,-64.1563 L 204.156,-63.7921 L 204.48,-63.3919 L 204.761,-62.96 L 204.995,-62.5011
 L 205.179,-62.0204 L 205.312,-61.5229 L 205.393,-61.0143 L 205.42,-60.5 L 205.393,-59.9857 L 205.312,-59.4771
 L 205.179,-58.9796 L 204.995,-58.4989 L 204.761,-58.04 L 204.48,-57.6081 L 204.156,-57.2079 L 203.792,-56.8437
 L 203.392,-56.5196 L 202.96,-56.2392 L 202.501,-56.0054 L 202.02,-55.8208 L 201.523,-55.6875 L 201.014,-55.607
 L 200.5,-55.58 z
M 392.986,-55.607 L 392.477,-55.6875 L 391.98,-55.8208 L 391.499,-56.0054 L 391.04,-56.2392 L 390.608,-56.5196
 L 390.208,-56.8437 L 389.844,-57.2079 L 389.52,-57.6081 L 389.239,-58.04 L 389.005,-58.4989 L 388.821,-58.9796
 L 388.688,-59.4771 L 388.607,-59.9857 L 388.58,-60.5 L 388.607,-61.0143 L 388.688,-61.5229 L 388.821,-62.0204
 L 389.005,-62.5011 L 389.239,-62.96 L 389.52,-63.3919 L 389.844,-63.7921 L 390.208,-64.1563 L 390.608,-64.4804
 L 390.95,-64.7024 L 390.95,-74 L 391.006,-74.5302 L 391.17,-75.0372 L 391.437,-75.4988 L 391.794,-75.895
 L 392.225,-76.2084 L 392.712,-76.4252 L 393.233,-76.536 L 393.767,-76.536 L 394.288,-76.4252 L 394.775,-76.2084
 L 395.206,-75.895 L 395.563,-75.4988 L 395.83,-75.0372 L 395.994,-74.5302 L 396.05,-74 L 396.05,-64.7024
 L 396.392,-64.4804 L 396.792,-64.1563 L 397.156,-63.7921 L 397.48,-63.3919 L 397.761,-62.96 L 397.995,-62.5011
 L 398.179,-62.0204 L 398.312,-61.5229 L 398.393,-61.0143 L 398.42,-60.5 L 398.393,-59.9857 L 398.312,-59.4771
 L 398.179,-58.9796 L 397.995,-58.4989 L 397.761,-58.04 L 397.48,-57.6081 L 397.156,-57.2079 L 396.792,-56.8437
 L 396.392,-56.5196 L 395.96,-56.2392 L 395.501,-56.0054 L 395.02,-55.8208 L 394.523,-55.6875 L 394.014,-55.607
 L 393.5,-55.58 z
M 585.986,-55.607 L 585.477,-55.6875 L 584.98,-55.8208 L 584.499,-56.0054 L 584.04,-56.2392 L 583.608,-56.5196
 L 583.208,-56.8437 L 582.844,-57.2079 L 582.52,-57.6081 L 582.239,-58.04 L 582.005,-58.4989 L 581.821,-58.9796
 L 581.688,-59.4771 L 581.607,-59.9857 L 581.58,-60.5 L 581.607,-61.0143 L 581.688,-61.5229 L 581.821,-62.0204
 L 582.005,-62.5011 L 582.239,-62.96 L 582.52,-63.3919 L 582.844,-63.7921 L 583.208,-64.1563 L 583.608,-64.4804
 L 583.95,-64.7024 L 583.95,-74 L 584.006,-74.5302 L 584.17,-75.0372 L 584.437,-75.4988 L 584.794,-75.895
 L 585.225,-76.2084 L 585.712,-76.4252 L 586.233,-76.536 L 586.767,-76.536 L 587.288,-76.4252 L 587.775,-76.2084
 L 588.206,-75.895 L 588.563,-75.4988 L 588.83,-75.0372 L 588.994,-74.5302 L 589.05,-74 L 589.05,-64.7024
 L 589.392,-64.4804 L 589.792,-64.1563 L 590.156,-63.7921 L 590.48,-63.3919 L 590.761,-62.96 L 590.995,-62.5011
 L 591.179,-62.0204 L 591.312,-61.5229 L 591.393,-61.0143 L 591.42,-60.5 L 591.393,-59.9857 L 591.312,-59.4771
 L 591.179,-58.9796 L 590.995,-58.4989 L 590.761,-58.04 L 590.48,-57.6081 L 590.156,-57.2079 L 589.792,-56.8437
 L 589.392,-56.5196 L 588.96,-56.2392 L 588.501,-56.0054 L 588.02,-55.8208 L 587.523,-55.6875 L 587.014,-55.607
 L 586.5,-55.58 z
M 778.986,-55.607 L 778.477,-55.6875 L 777.98,-55.8208 L 777.499,-56.0054 L 777.04,-56.2392 L 776.608,-56.5196
 L 776.208,-56.8437 L 775.844,-57.2079 L 775.52,-57.6081 L 775.239,-58.04 L 775.005,-58.4989 L 774.821,-58.9796
 L 774.688,-59.4771 L 774.607,-59.9857 L 774.58,-60.5 L 774.607,-61.0143 L 774.688,-61.5229 L 774.821,-62.0204
 L 775.005,-62.5011 L 775.239,-62.96 L 775.52,-63.3919 L 775.844,-63.7921 L 776.208,-64.1563 L 776.608,-64.4804
 L 776.95,-64.7024 L 776.95,-74 L 777.006,-74.5302 L 777.17,-75.0372 L 777.437,-75.4988 L 777.794,-75.895
 L 778.225,-76.2084 L 778.712,-76.4252 L 779.233,-76.536 L 779.767,-76.536 L 780.288,-76.4252 L 780.775,-76.2084
 L 781.206,-75.895 L 781.563,-75.4988 L 781.83,-75.0372 L 781.994,-74.5302 L 782.05,-74 L 782.05,-64.7024
 L 782.392,-64.4804 L 782.792,-64.1563 L 783.156,-63.7921 L 783.48,-63.3919 L 783.761,-62.96 L 783.995,-62.5011
 L 784.179,-62.0204 L 784.312,-61.5229 L 784.393,-61.0143 L 784.42,-60.5 L 784.393,-59.9857 L 784.312,-59.4771
 L 784.179,-58.9796 L 783.995,-58.4989 L 783.761,-58.04 L 783.48,-57.6081 L 783.156,-57.2079 L 782.792,-56.8437
 L 782.392,-56.5196 L 781.96,-56.2392 L 781.501,-56.0054 L 781.02,-55.8208 L 780.523,-55.6875 L 780.014,-55.607
 L 779.5,-55.58 z
M 971.986,-55.607 L 971.477,-55.6875 L 970.98,-55.8208 L 970.499,-56.0054 L 970.04,-56.2392 L 969.608,-56.5196
 L 969.208,-56.8437 L 968.844,-57.2079 L 968.52,-57.6081 L 968.239,-58.04 L 968.005,-58.4989 L 967.821,-58.9796
 L 967.688,-59.4771 L 967.607,-59.9857 L 967.58,-60.5 L 967.607,-61.0143 L 967.688,-61.5229 L 967.821,-62.0204
 L 968.005,-62.5011 L 968.239,-62.96 L 968.52,-63.3919 L 968.844,-63.7921 L 969.208,-64.1563 L 969.608,-64.4804
 L 969.95,-64.7024 L 969.95,-74 L 970.006,-74.5302 L 970.17,-75.0372 L 970.437,-75.4988 L 970.794,-75.895
 L 971.225,-76.2084 L 971.712,-76.4252 L 972.233,-76.536 L 972.767,-76.536 L 973.288,-76.4252 L 973.775,-76.2084
 L 974.206,-75.895 L 974.563,-75.4988 L 974.83,-75.0372 L 974.994,-74.5302 L 975.05,-74 L 975.05,-64.7024
 L 975.392,-64.4804 L 975.792,-64.1563 L 976.156,-63.7921 L 976.48,-63.3919 L 976.761,-62.96 L 976.995,-62.5011
 L 977.179,-62.0204 L 977.312,-61.5229 L 977.393,-61.0143 L 977.42,-60.5 L 977.393,-59.9857 L 977.312,-59.4771
 L 977.179,-58.9796 L 976.995,-58.4989 L 976.761,-58.04 L 976.48,-57.6081 L 976.156,-57.2079 L 975.792,-56.8437
 L 975.392,-56.5196 L 974.96,-56.2392 L 974.501,-56.0054 L 974.02,-55.8208 L 973.523,-55.6875 L 973.014,-55.607
 L 972.5,-55.58 z
M 1164.99,-55.607 L 1164.48,-55.6875 L 1163.98,-55.8208 L 1163.5,-56.0054 L 1163.04,-56.2392 L 1162.61,-56.5196
 L 1162.21,-56.8437 L 1161.84,-57.2079 L 1161.52,-57.6081 L 1161.24,-58.04 L 1161.01,-58.4989 L 1160.82,-58.9796
 L 1160.69,-59.4771 L 1160.61,-59.9857 L 1160.58,-60.5 L 1160.61,-61.0143 L 1160.69,-61.5229 L 1160.82,-62.0204
 L 1161.01,-62.5011 L 1161.24,-62.96 L 1161.52,-63.3919 L 1161.84,-63.7921 L 1162.21,-64.1563 L 1162.61,-64.4804
 L 1162.95,-64.7024 L 1162.95,-74 L 1163.01,-74.5302 L 1163.17,-75.0372 L 1163.44,-75.4988 L 1163.79,-75.895
 L 1164.23,-76.2084 L 1164.71,-76.4252 L 1165.23,-76.536 L 1165.77,-76.536 L 1166.29,-76.4252 L 1166.77,-76.2084
 L 1167.21,-75.895 L 1167.56,-75.4988 L 1167.83,-75.0372 L 1167.99,-74.5302 L 1168.05,-74 L 1168.05,-64.7024
 L 1168.39,-64.4804 L 1168.79,-64.1563 L 1169.16,-63.7921 L 1169.48,-63.3919 L 1169.76,-62.96 L 1169.99,-62.5011
 L 1170.18,-62.0204 L 1170.31,-61.5229 L 1170.39,-61.0143 L 1170.42,-60.5 L 1170.39,-59.9857 L 1170.31,-59.4771
 L 1170.18,-58.9796 L 1169.99,-58.4989 L 1169.76,-58.04 L 1169.48,-57.6081 L 1169.16,-57.2079 L 1168.79,-56.8437
 L 1168.39,-56.5196 L 1167.96,-56.2392 L 1167.5,-56.0054 L 1167.02,-55.8208 L 1166.52,-55.6875 L 1166.01,-55.607
 L 1165.5,-55.58 z
M 984.358,-20.526 L 983.586,-20.8472 L 982.897,-21.3219 L 982.323,-21.9294 L 981.887,-22.6431 L 981.609,-23.4318
 L 981.5,-24.3594 L 981.5,-58 L 981.587,-58.8316 L 981.846,-59.627 L 982.264,-60.3511 L 982.823,-60.9726
 L 983.5,-61.4641 L 984.264,-61.8042 L 985.5,-62 L 1080.98,-62 L 1081.81,-61.9126 L 1082.61,-61.6542
 L 1083.33,-61.2361 L 1083.95,-60.6765 L 1084.44,-60 L 1084.78,-59.2361 L 1084.96,-58.4181 L 1084.96,-57.5819
 L 1084.78,-56.7639 L 1084.44,-56 L 1083.95,-55.3235 L 1083.33,-54.7639 L 1082.31,-54.2273 L 986.829,-20.5867
 L 986.016,-20.3928 L 985.18,-20.3723 z
M 379.984,-20.3928 L 379.171,-20.5867 L 283.691,-54.2273 L 282.669,-54.7639 L 282.048,-55.3235 L 281.556,-56
 L 281.216,-56.7639 L 281.042,-57.5819 L 281.042,-58.4181 L 281.216,-59.2361 L 281.556,-60 L 282.048,-60.6765
 L 282.669,-61.2361 L 283.393,-61.6542 L 284.188,-61.9126 L 285.02,-62 L 380.5,-62 L 381.736,-61.8042
 L 382.5,-61.4641 L 383.177,-60.9726 L 383.736,-60.3511 L 384.154,-59.627 L 384.413,-58.8316 L 384.5,-58
 L 384.5,-24.3594 L 384.391,-23.4318 L 384.113,-22.6431 L 383.677,-21.9294 L 383.103,-21.3219 L 382.414,-20.8472
 L 381.642,-20.526 L 380.82,-20.3723 z
M 186.984,-20.3928 L 186.171,-20.5867 L 90.6909,-54.2273 L 89.669,-54.7639 L 89.0475,-55.3235 L 88.556,-56
 L 88.2159,-56.7639 L 88.042,-57.5819 L 88.042,-58.4181 L 88.2159,-59.2361 L 88.556,-60 L 89.0475,-60.6765
 L 89.669,-61.2361 L 90.3932,-61.6542 L 91.1885,-61.9126 L 92.0201,-62 L 187.5,-62 L 188.736,-61.8042
 L 189.5,-61.4641 L 190.177,-60.9726 L 190.736,-60.3511 L 191.154,-59.627 L 191.413,-58.8316 L 191.5,-58
 L 191.5,-24.3594 L 191.391,-23.4318 L 191.113,-22.6431 L 190.677,-21.9294 L 190.103,-21.3219 L 189.414,-20.8472
 L 188.642,-20.526 L 187.82,-20.3723 z
M 572.984,-20.3928 L 572.171,-20.5867 L 476.691,-54.2273 L 475.669,-54.7639 L 475.048,-55.3235 L 474.556,-56
 L 474.216,-56.7639 L 474.042,-57.5819 L 474.042,-58.4181 L 474.216,-59.2361 L 474.556,-60 L 475.048,-60.6765
 L 475.669,-61.2361 L 476.393,-61.6542 L 477.188,-61.9126 L 478.02,-62 L 573.5,-62 L 574.736,-61.8042
 L 575.5,-61.4641 L 576.177,-60.9726 L 576.736,-60.3511 L 577.154,-59.627 L 577.413,-58.8316 L 577.5,-58
 L 577.5,-24.3594 L 577.391,-23.4318 L 577.113,-22.6431 L 576.677,-21.9294 L 576.103,-21.3219 L 575.414,-20.8472
 L 574.642,-20.526 L 573.82,-20.3723 z
M 598.358,-20.526 L 597.586,-20.8472 L 596.897,-21.3219 L 596.323,-21.9294 L 595.887,-22.6431 L 595.609,-23.4318
 L 595.5,-24.3594 L 595.5,-58 L 595.587,-58.8316 L 595.846,-59.627 L 596.264,-60.3511 L 596.823,-60.9726
 L 597.5,-61.4641 L 598.264,-61.8042 L 599.5,-62 L 694.98,-62 L 695.812,-61.9126 L 696.607,-61.6542
 L 697.331,-61.2361 L 697.952,-60.6765 L 698.444,-60 L 698.784,-59.2361 L 698.958,-58.4181 L 698.958,-57.5819
 L 698.784,-56.7639 L 698.444,-56 L 697.952,-55.3235 L 697.331,-54.7639 L 696.309,-54.2273 L 600.829,-20.5867
 L 600.016,-20.3928 L 599.18,-20.3723 z
M 791.358,-20.526 L 790.586,-20.8472 L 789.897,-21.3219 L 789.323,-21.9294 L 788.887,-22.6431 L 788.609,-23.4318
 L 788.5,-24.3594 L 788.5,-58 L 788.587,-58.8316 L 788.846,-59.627 L 789.264,-60.3511 L 789.823,-60.9726
 L 790.5,-61.4641 L 791.264,-61.8042 L 792.5,-62 L 887.98,-62 L 888.812,-61.9126 L 889.607,-61.6542
 L 890.331,-61.2361 L 890.952,-60.6765 L 891.444,-60 L 891.784,-59.2361 L 891.958,-58.4181 L 891.958,-57.5819
 L 891.784,-56.7639 L 891.444,-56 L 890.952,-55.3235 L 890.331,-54.7639 L 889.309,-54.2273 L 793.829,-20.5867
 L 793.016,-20.3928 L 792.18,-20.3723 z
M 213.5,-18 L 212.264,-18.1958 L 211.5,-18.5359 L 210.823,-19.0274 L 210.264,-19.6489 L 209.846,-20.373
 L 209.587,-21.1684 L 209.5,-22 L 209.5,-55.6406 L 209.609,-56.5682 L 209.887,-57.3569 L 210.323,-58.0706
 L 210.897,-58.6781 L 211.586,-59.1528 L 212.358,-59.474 L 213.18,-59.6277 L 214.016,-59.6072 L 214.829,-59.4133
 L 310.309,-25.7727 L 311.331,-25.2361 L 311.952,-24.6765 L 312.444,-24 L 312.784,-23.2361 L 312.958,-22.4181
 L 312.958,-21.5819 L 312.784,-20.7639 L 312.444,-20 L 311.952,-19.3235 L 311.331,-18.7639 L 310.607,-18.3458
 L 309.811,-18.0874 L 308.98,-18 z
M 406.5,-18 L 405.264,-18.1958 L 404.5,-18.5359 L 403.823,-19.0274 L 403.264,-19.6489 L 402.846,-20.373
 L 402.587,-21.1684 L 402.5,-22 L 402.5,-55.6406 L 402.609,-56.5682 L 402.887,-57.3569 L 403.323,-58.0706
 L 403.897,-58.6781 L 404.586,-59.1528 L 405.358,-59.474 L 406.18,-59.6277 L 407.016,-59.6072 L 407.829,-59.4133
 L 503.309,-25.7727 L 504.331,-25.2361 L 504.952,-24.6765 L 505.444,-24 L 505.784,-23.2361 L 505.958,-22.4181
 L 505.958,-21.5819 L 505.784,-20.7639 L 505.444,-20 L 504.952,-19.3235 L 504.331,-18.7639 L 503.607,-18.3458
 L 502.811,-18.0874 L 501.98,-18 z
M 671.02,-18 L 670.189,-18.0874 L 669.393,-18.3458 L 668.669,-18.7639 L 668.048,-19.3235 L 667.556,-20
 L 667.216,-20.7639 L 667.042,-21.5819 L 667.042,-22.4181 L 667.216,-23.2361 L 667.556,-24 L 668.048,-24.6765
 L 668.669,-25.2361 L 669.691,-25.7727 L 765.171,-59.4133 L 765.984,-59.6072 L 766.82,-59.6277 L 767.642,-59.474
 L 768.414,-59.1528 L 769.103,-58.6781 L 769.677,-58.0706 L 770.113,-57.3569 L 770.391,-56.5682 L 770.5,-55.6406
 L 770.5,-22 L 770.413,-21.1684 L 770.154,-20.373 L 769.736,-19.6489 L 769.177,-19.0274 L 768.5,-18.5359
 L 767.736,-18.1958 L 766.5,-18 z
M 864.02,-18 L 863.189,-18.0874 L 862.393,-18.3458 L 861.669,-18.7639 L 861.048,-19.3235 L 860.556,-20
 L 860.216,-20.7639 L 860.042,-21.5819 L 860.042,-22.4181 L 860.216,-23.2361 L 860.556,-24 L 861.048,-24.6765
 L 861.669,-25.2361 L 862.691,-25.7727 L 958.171,-59.4133 L 958.984,-59.6072 L 959.82,-59.6277 L 960.642,-59.474
 L 961.414,-59.1528 L 962.103,-58.6781 L 962.677,-58.0706 L 963.113,-57.3569 L 963.391,-56.5682 L 963.5,-55.6406
 L 963.5,-22 L 963.413,-21.1684 L 963.154,-20.373 L 962.736,-19.6489 L 962.177,-19.0274 L 961.5,-18.5359
 L 960.736,-18.1958 L 959.5,-18 z
M 1057.02,-18 L 1056.19,-18.0874 L 1055.39,-18.3458 L 1054.67,-18.7639 L 1054.05,-19.3235 L 1053.56,-20
 L 1053.22,-20.7639 L 1053.04,-21.5819 L 1053.04,-22.4181 L 1053.22,-23.2361 L 1053.56,-24 L 1054.05,-24.6765
 L 1054.67,-25.2361 L 1055.69,-25.7727 L 1149.67,-58.8848 L 1150.48,-59.0787 L 1151.32,-59.0992 L 1152.14,-58.9455
 L 1152.91,-58.6243 L 1153.6,-58.1496 L 1154.18,-57.5421 L 1154.61,-56.8284 L 1154.89,-56.0397 L 1155,-55.1121
 L 1155,-22 L 1154.91,-21.1684 L 1154.65,-20.373 L 1154.24,-19.6489 L 1153.68,-19.0274 L 1153,-18.5359
 L 1152.24,-18.1958 L 1151,-18 z
M 22,-18 L 20.7639,-18.1958 L 20,-18.5359 L 19.3235,-19.0274 L 18.7639,-19.6489 L 18.3458,-20.373
 L 18.0874,-21.1684 L 18,-22 L 18,-55.1121 L 18.109,-56.0397 L 18.3869,-56.8284 L 18.8227,-57.5421
 L 19.3974,-58.1496 L 20.0858,-58.6243 L 20.8578,-58.9455 L 21.6798,-59.0992 L 22.5158,-59.0787 L 23.3292,-58.8848
 L 117.309,-25.7727 L 118.331,-25.2361 L 118.952,-24.6765 L 119.444,-24 L 119.784,-23.2361 L 119.958,-22.4181
 L 119.958,-21.5819 L 119.784,-20.7639 L 119.444,-20 L 118.952,-19.3235 L 118.331,-18.7639 L 117.607,-18.3458
 L 116.811,-18.0874 L 115.98,-18 z
" stroke="black" fill="lightgray" stroke-width="0.5"/>
</svg>
