<?xml version="1.0" standalone="no"?>
<!DOCTYPE svg PUBLIC "-//W3C//DTD SVG 1.1//EN" "http://www.w3.org/Graphics/SVG/1.1/DTD/svg11.dtd">
<svg width="1212mm" height="80mm" viewBox="0 -80 1212 80" xmlns="http://www.w3.org/2000/svg" version="1.1">
<title>OpenSCAD Model</title>
<path d="
M 1212,-80 L 0,-80 L 0,-0 L 4.95,-0 L 4.95,-6 L 5.00572,-6.53017
 L 5.17046,-7.03717 L 5.437,-7.49884 L 5.79372,-7.895 L 6.22499,-8.20836 L 6.71201,-8.42519 L 7.23344,-8.53603
 L 7.76654,-8.53603 L 8.28798,-8.42519 L 8.77499,-8.20836 L 9.20627,-7.895 L 9.56299,-7.49884 L 9.82953,-7.03717
 L 9.99426,-6.53017 L 10.05,-6 L 10.05,-0 L 175.95,-0 L 175.95,-6 L 176.006,-6.53017
 L 176.17,-7.03717 L 176.437,-7.49884 L 176.794,-7.895 L 177.225,-8.20836 L 177.712,-8.42519 L 178.233,-8.53603
 L 178.767,-8.53603 L 179.288,-8.42519 L 179.775,-8.20836 L 180.206,-7.895 L 180.563,-7.49884 L 180.83,-7.03717
 L 180.994,-6.53017 L 181.05,-6 L 181.05,-0 L 346.95,-0 L 346.95,-6 L 347.006,-6.53017
 L 347.17,-7.03717 L 347.437,-7.49884 L 347.794,-7.895 L 348.225,-8.20836 L 348.712,-8.42519 L 349.233,-8.53603
 L 349.767,-8.53603 L 350.288,-8.42519 L 350.775,-8.20836 L 351.206,-7.895 L 351.563,-7.49884 L 351.83,-7.03717
 L 351.994,-6.53017 L 352.05,-6 L 352.05,-0 L 517.95,-0 L 517.95,-6 L 518.006,-6.53017
 L 518.17,-7.03717 L 518.437,-7.49884 L 518.794,-7.895 L 519.225,-8.20836 L 519.712,-8.42519 L 520.233,-8.53603
 L 520.767,-8.53603 L 521.288,-8.42519 L 521.775,-8.20836 L 522.206,-7.895 L 522.563,-7.49884 L 522.83,-7.03717
 L 522.994,-6.53017 L 523.05,-6 L 523.05,-0 L 688.95,-0 L 688.95,-6 L 689.006,-6.53017
 L 689.17,-7.03717 L 689.437,-7.49884 L 689.794,-7.895 L 690.225,-8.20836 L 690.712,-8.42519 L 691.233,-8.53603
 L 691.767,-8.53603 L 692.288,-8.42519 L 692.775,-8.20836 L 693.206,-7.895 L 693.563,-7.49884 L 693.83,-7.03717
 L 693.994,-6.53017 L 694.05,-6 L 694.05,-0 L 859.95,-0 L 859.95,-6 L 860.006,-6.53017
 L 860.17,-7.03717 L 860.437,-7.49884 L 860.794,-7.895 L 861.225,-8.20836 L 861.712,-8.42519 L 862.233,-8.53603
 L 862.767,-8.53603 L 863.288,-8.42519 L 863.775,-8.20836 L 864.206,-7.895 L 864.563,-7.49884 L 864.83,-7.03717
 L 864.994,-6.53017 L 865.05,-6 L 865.05,-0 L 1030.95,-0 L 1030.95,-6 L 1031.01,-6.53017
 L 1031.17,-7.03717 L 1031.44,-7.49884 L 1031.79,-7.895 L 1032.22,-8.20836 L 1032.71,-8.42519 L 1033.23,-8.53603
 L 1033.77,-8.53603 L 1034.29,-8.42519 L 1034.77,-8.20836 L 1035.21,-7.895 L 1035.56,-7.49884 L 1035.83,-7.03717
 L 1035.99,-6.53017 L 1036.05,-6 L 1036.05,-0 L 1201.95,-0 L 1201.95,-6 L 1202.01,-6.53017
 L 1202.17,-7.03717 L 1202.44,-7.49884 L 1202.79,-7.895 L 1203.22,-8.20836 L 1203.71,-8.42519 L 1204.23,-8.53603
 L 1204.77,-8.53603 L 1205.29,-8.42519 L 1205.77,-8.20836 L 1206.21,-7.895 L 1206.56,-7.49884 L 1206.83,-7.03717
 L 1206.99,-6.53017 L 1207.05,-6 L 1207.05,-0 L 1212,-0 z
M 6.98573,-55.607 L 6.47708,-55.6875 L 5.97964,-55.8208 L 5.49887,-56.0054 L 5.04001,-56.2392 L 4.60811,-56.5196
 L 4.20789,-56.8437 L 3.84373,-57.2079 L 3.51964,-57.6081 L 3.23917,-58.04 L 3.00537,-58.4989 L 2.82082,-58.9796
 L 2.68752,-59.4771 L 2.60696,-59.9857 L 2.58,-60.5 L 2.60696,-61.0143 L 2.68752,-61.5229 L 2.82082,-62.0204
 L 3.00537,-62.5011 L 3.23917,-62.96 L 3.51964,-63.3919 L 3.84373,-63.7921 L 4.20789,-64.1563 L 4.60811,-64.4804
 L 4.95001,-64.7024 L 4.95001,-74 L 5.00574,-74.5302 L 5.17047,-75.0372 L 5.43701,-75.4988 L 5.79373,-75.895
 L 6.22501,-76.2084 L 6.71202,-76.4252 L 7.23346,-76.536 L 7.76654,-76.536 L 8.28798,-76.4252 L 8.77499,-76.2084
 L 9.20627,-75.895 L 9.56299,-75.4988 L 9.82953,-75.0372 L 9.99426,-74.5302 L 10.05,-74 L 10.05,-64.7024
 L 10.3919,-64.4804 L 10.7921,-64.1563 L 11.1563,-63.7921 L 11.4804,-63.3919 L 11.7608,-62.96 L 11.9946,-62.5011
 L 12.1792,-62.0204 L 12.3125,-61.5229 L 12.393,-61.0143 L 12.42,-60.5 L 12.393,-59.9857 L 12.3125,-59.4771
 L 12.1792,-58.9796 L 11.9946,-58.4989 L 11.7608,-58.04 L 11.4804,-57.6081 L 11.1563,-57.2079 L 10.7921,-56.8437
 L 10.3919,-56.5196 L 9.95999,-56.2392 L 9.50113,-56.0054 L 9.02036,-55.8208 L 8.52292,-55.6875 L 8.01427,-55.607
 L 7.5,-55.58 z
M 177.986,-55.607 L 177.477,-55.6875 L 176.98,-55.8208 L 176.499,-56.0054 L 176.04,-56.2392 L 175.608,-56.5196
 L 175.208,-56.8437 L 174.844,-57.2079 L 174.52,-57.6081 L 174.239,-58.04 L 174.005,-58.4989 L 173.821,-58.9796
 L 173.688,-59.4771 L 173.607,-59.9857 L 173.58,-60.5 L 173.607,-61.0143 L 173.688,-61.5229 L 173.821,-62.0204
 L 174.005,-62.5011 L 174.239,-62.96 L 174.52,-63.3919 L 174.844,-63.7921 L 175.208,-64.1563 L 175.608,-64.4804
 L 175.95,-64.7024 L 175.95,-74 L 176.006,-74.5302 L 176.17,-75.0372 L 176.437,-75.4988 L 176.794,-75.895
 L 177.225,-76.2084 L 177.712,-76.4252 L 178.233,-76.536 L 178.767,-76.536 L 179.288,-76.4252 L 179.775,-76.2084
 L 180.206,-75.895 L 180.563,-75.4988 L 180.83,-75.0372 L 180.994,-74.5302 L 181.05,-74 L 181.05,-64.7024
 L 181.392,-64.4804 L 181.792,-64.1563 L 182.156,-63.7921 L 182.48,-63.3919 L 182.761,-62.96 L 182.995,-62.5011
 L 183.179,-62.0204 L 183.312,-61.5229 L 183.393,-61.0143 L 183.42,-60.5 L 183.393,-59.9857 L 183.312,-59.4771
 L 183.179,-58.9796 L 182.995,-58.4989 L 182.761,-58.04 L 182.48,-57.6081 L 182.156,-57.2079 L 181.792,-56.8437
 L 181.392,-56.5196 L 180.96,-56.2392 L 180.501,-56.0054 L 180.02,-55.8208 L 179.523,-55.6875 L 179.014,-55.607
 L 178.5,-55.58 z
M 348.986,-55.607 L 348.477,-55.6875 L 347.98,-55.8208 L 347.499,-56.0054 L 347.04,-56.2392 L 346.608,-56.5196
 L 346.208,-56.8437 L 345.844,-57.2079 L 345.52,-57.6081 L 345.239,-58.04 L 345.005,-58.4989 L 344.821,-58.9796
 L 344.688,-59.4771 L 344.607,-59.9857 L 344.58,-60.5 L 344.607,-61.0143 L 344.688,-61.5229 L 344.821,-62.0204
 L 345.005,-62.5011 L 345.239,-62.96 L 345.52,-63.3919 L 345.844,-63.7921 L 346.208,-64.1563 L 346.608,-64.4804
 L 346.95,-64.7024 L 346.95,-74 L 347.006,-74.5302 L 347.17,-75.0372 L 347.437,-75.4988 L 347.794,-75.895
 L 348.225,-76.2084 L 348.712,-76.4252 L 349.233,-76.536 L 349.767,-76.536 L 350.288,-76.4252 L 350.775,-76.2084
 L 351.206,-75.895 L 351.563,-75.4988 L 351.83,-75.0372 L 351.994,-74.5302 L 352.05,-74 L 352.05,-64.7024
 L 352.392,-64.4804 L 352.792,-64.1563 L 353.156,-63.7921 L 353.48,-63.3919 L 353.761,-62.96 L 353.995,-62.5011
 L 354.179,-62.0204 L 354.312,-61.5229 L 354.393,-61.0143 L 354.42,-60.5 L 354.393,-59.9857 L 354.312,-59.4771
 L 354.179,-58.9796 L 353.995,-58.4989 L 353.761,-58.04 L 353.48,-57.6081 L 353.156,-57.2079 L 352.792,-56.8437
 L 352.392,-56.5196 L 351.96,-56.2392 L 351.501,-56.0054 L 351.02,-55.8208 L 350.523,-55.6875 L 350.014,-55.607
 L 349.5,-55.58 z
M 519.986,-55.607 L 519.477,-55.6875 L 518.98,-55.8208 L 518.499,-56.0054 L 518.04,-56.2392 L 517.608,-56.5196
 L 517.208,-56.8437 L 516.844,-57.2079 L 516.52,-57.6081 L 516.239,-58.04 L 516.005,-58.4989 L 515.821,-58.9796
 L 515.688,-59.4771 L 515.607,-59.9857 L 515.58,-60.5 L 515.607,-61.0143 L 515.688,-61.5229 L 515.821,-62.0204
 L 516.005,-62.5011 L 516.239,-62.96 L 516.52,-63.3919 L 516.844,-63.7921 L 517.208,-64.1563 L 517.608,-64.4804
 L 517.95,-64.7024 L 517.95,-74 L 518.006,-74.5302 L 518.17,-75.0372 L 518.437,-75.4988 L 518.794,-75.895
 L 519.225,-76.2084 L 519.712,-76.4252 L 520.233,-76.536 L 520.767,-76.536 L 521.288,-76.4252 L 521.775,-76.2084
 L 522.206,-75.895 L 522.563,-75.4988 L 522.83,-75.0372 L 522.994,-74.5302 L 523.05,-74 L 523.05,-64.7024
 L 523.392,-64.4804 L 523.792,-64.1563 L 524.156,-63.7921 L 524.48,-63.3919 L 524.761,-62.96 L 524.995,-62.5011
 L 525.179,-62.0204 L 525.312,-61.5229 L 525.393,-61.0143 L 525.42,-60.5 L 525.393,-59.9857 L 525.312,-59.4771
 L 525.179,-58.9796 L 524.995,-58.4989 L 524.761,-58.04 L 524.48,-57.6081 L 524.156,-57.2079 L 523.792,-56.8437
 L 523.392,-56.5196 L 522.96,-56.2392 L 522.501,-56.0054 L 522.02,-55.8208 L 521.523,-55.6875 L 521.014,-55.607
 L 520.5,-55.58 z
M 690.986,-55.607 L 690.477,-55.6875 L 689.98,-55.8208 L 689.499,-56.0054 L 689.04,-56.2392 L 688.608,-56.5196
 L 688.208,-56.8437 L 687.844,-57.2079 L 687.52,-57.6081 L 687.239,-58.04 L 687.005,-58.4989 L 686.821,-58.9796
 L 686.688,-59.4771 L 686.607,-59.9857 L 686.58,-60.5 L 686.607,-61.0143 L 686.688,-61.5229 L 686.821,-62.0204
 L 687.005,-62.5011 L 687.239,-62.96 L 687.52,-63.3919 L 687.844,-63.7921 L 688.208,-64.1563 L 688.608,-64.4804
 L 688.95,-64.7024 L 688.95,-74 L 689.006,-74.5302 L 689.17,-75.0372 L 689.437,-75.4988 L 689.794,-75.895
 L 690.225,-76.2084 L 690.712,-76.4252 L 691.233,-76.536 L 691.767,-76.536 L 692.288,-76.4252 L 692.775,-76.2084
 L 693.206,-75.895 L 693.563,-75.4988 L 693.83,-75.0372 L 693.994,-74.5302 L 694.05,-74 L 694.05,-64.7024
 L 694.392,-64.4804 L 694.792,-64.1563 L 695.156,-63.7921 L 695.48,-63.3919 L 695.761,-62.96 L 695.995,-62.5011
 L 696.179,-62.0204 L 696.312,-61.5229 L 696.393,-61.0143 L 696.42,-60.5 L 696.393,-59.9857 L 696.312,-59.4771
 L 696.179,-58.9796 L 695.995,-58.4989 L 695.761,-58.04 L 695.48,-57.6081 L 695.156,-57.2079 L 694.792,-56.8437
 L 694.392,-56.5196 L 693.96,-56.2392 L 693.501,-56.0054 L 693.02,-55.8208 L 692.523,-55.6875 L 692.014,-55.607
 L 691.5,-55.58 z
M 861.986,-55.607 L 861.477,-55.6875 L 860.98,-55.8208 L 860.499,-56.0054 L 860.04,-56.2392 L 859.608,-56.5196
 L 859.208,-56.8437 L 858.844,-57.2079 L 858.52,-57.6081 L 858.239,-58.04 L 858.005,-58.4989 L 857.821,-58.9796
 L 857.688,-59.4771 L 857.607,-59.9857 L 857.58,-60.5 L 857.607,-61.0143 L 857.688,-61.5229 L 857.821,-62.0204
 L 858.005,-62.5011 L 858.239,-62.96 L 858.52,-63.3919 L 858.844,-63.7921 L 859.208,-64.1563 L 859.608,-64.4804
 L 859.95,-64.7024 L 859.95,-74 L 860.006,-74.5302 L 860.17,-75.0372 L 860.437,-75.4988 L 860.794,-75.895
 L 861.225,-76.2084 L 861.712,-76.4252 L 862.233,-76.536 L 862.767,-76.536 L 863.288,-76.4252 L 863.775,-76.2084
 L 864.206,-75.895 L 864.563,-75.4988 L 864.83,-75.0372 L 864.994,-74.5302 L 865.05,-74 L 865.05,-64.7024
 L 865.392,-64.4804 L 865.792,-64.1563 L 866.156,-63.7921 L 866.48,-63.3919 L 866.761,-62.96 L 866.995,-62.5011
 L 867.179,-62.0204 L 867.312,-61.5229 L 867.393,-61.0143 L 867.42,-60.5 L 867.393,-59.9857 L 867.312,-59.4771
 L 867.179,-58.9796 L 866.995,-58.4989 L 866.761,-58.04 L 866.48,-57.6081 L 866.156,-57.2079 L 865.792,-56.8437
 L 865.392,-56.5196 L 864.96,-56.2392 L 864.501,-56.0054 L 864.02,-55.8208 L 863.523,-55.6875 L 863.014,-55.607
 L 862.5,-55.58 z
M 1032.99,-55.607 L 1032.48,-55.6875 L 1031.98,-55.8208 L 1031.5,-56.0054 L 1031.04,-56.2392 L 1030.61,-56.5196
 L 1030.21,-56.8437 L 1029.84,-57.2079 L 1029.52,-57.6081 L 1029.24,-58.04 L 1029.01,-58.4989 L 1028.82,-58.9796
 L 1028.69,-59.4771 L 1028.61,-59.9857 L 1028.58,-60.5 L 1028.61,-61.0143 L 1028.69,-61.5229 L 1028.82,-62.0204
 L 1029.01,-62.5011 L 1029.24,-62.96 L 1029.52,-63.3919 L 1029.84,-63.7921 L 1030.21,-64.1563 L 1030.61,-64.4804
 L 1030.95,-64.7024 L 1030.95,-74 L 1031.01,-74.5302 L 1031.17,-75.0372 L 1031.44,-75.4988 L 1031.79,-75.895
 L 1032.23,-76.2084 L 1032.71,-76.4252 L 1033.23,-76.536 L 1033.77,-76.536 L 1034.29,-76.4252 L 1034.77,-76.2084
 L 1035.21,-75.895 L 1035.56,-75.4988 L 1035.83,-75.0372 L 1035.99,-74.5302 L 1036.05,-74 L 1036.05,-64.7024
 L 1036.39,-64.4804 L 1036.79,-64.1563 L 1037.16,-63.7921 L 1037.48,-63.3919 L 1037.76,-62.96 L 1037.99,-62.5011
 L 1038.18,-62.0204 L 1038.31,-61.5229 L 1038.39,-61.0143 L 1038.42,-60.5 L 1038.39,-59.9857 L 1038.31,-59.4771
 L 1038.18,-58.9796 L 1037.99,-58.4989 L 1037.76,-58.04 L 1037.48,-57.6081 L 1037.16,-57.2079 L 1036.79,-56.8437
 L 1036.39,-56.5196 L 1035.96,-56.2392 L 1035.5,-56.0054 L 1035.02,-55.8208 L 1034.52,-55.6875 L 1034.01,-55.607
 L 1033.5,-55.58 z
M 1203.99,-55.607 L 1203.48,-55.6875 L 1202.98,-55.8208 L 1202.5,-56.0054 L 1202.04,-56.2392 L 1201.61,-56.5196
 L 1201.21,-56.8437 L 1200.84,-57.2079 L 1200.52,-57.6081 L 1200.24,-58.04 L 1200.01,-58.4989 L 1199.82,-58.9796
 L 1199.69,-59.4771 L 1199.61,-59.9857 L 1199.58,-60.5 L 1199.61,-61.0143 L 1199.69,-61.5229 L 1199.82,-62.0204
 L 1200.01,-62.5011 L 1200.24,-62.96 L 1200.52,-63.3919 L 1200.84,-63.7921 L 1201.21,-64.1563 L 1201.61,-64.4804
 L 1201.95,-64.7024 L 1201.95,-74 L 1202.01,-74.5302 L 1202.17,-75.0372 L 1202.44,-75.4988 L 1202.79,-75.895
 L 1203.23,-76.2084 L 1203.71,-76.4252 L 1204.23,-76.536 L 1204.77,-76.536 L 1205.29,-76.4252 L 1205.77,-76.2084
 L 1206.21,-75.895 L 1206.56,-75.4988 L 1206.83,-75.0372 L 1206.99,-74.5302 L 1207.05,-74 L 1207.05,-64.7024
 L 1207.39,-64.4804 L 1207.79,-64.1563 L 1208.16,-63.7921 L 1208.48,-63.3919 L 1208.76,-62.96 L 1208.99,-62.5011
 L 1209.18,-62.0204 L 1209.31,-61.5229 L 1209.39,-61.0143 L 1209.42,-60.5 L 1209.39,-59.9857 L 1209.31,-59.4771
 L 1209.18,-58.9796 L 1208.99,-58.4989 L 1208.76,-58.04 L 1208.48,-57.6081 L 1208.16,-57.2079 L 1207.79,-56.8437
 L 1207.39,-56.5196 L 1206.96,-56.2392 L 1206.5,-56.0054 L 1206.02,-55.8208 L 1205.52,-55.6875 L 1205.01,-55.607
 L 1204.5,-55.58 z
M 703.511,-21.2725 L 702.727,-21.5628 L 702.02,-22.0098 L 701.422,-22.594 L 700.958,-23.2898 L 700.649,-24.0669
 L 700.5,-25.1483 L 700.5,-58 L 700.587,-58.8316 L 700.846,-59.627 L 701.264,-60.3511 L 701.823,-60.9726
 L 702.5,-61.4641 L 703.264,-61.8042 L 704.5,-62 L 787.112,-62 L 787.944,-61.9126 L 788.739,-61.6542
 L 789.463,-61.2361 L 790.085,-60.6765 L 790.576,-60 L 790.917,-59.2361 L 791.09,-58.4181 L 791.09,-57.5819
 L 790.917,-56.7639 L 790.576,-56 L 790.085,-55.3235 L 789.463,-54.7639 L 788.59,-54.2831 L 705.978,-21.4314
 L 705.173,-21.2054 L 704.338,-21.1516 z
M 605.327,-47.8852 L 604.522,-48.1113 L 589.002,-54.2831 L 588.129,-54.7639 L 587.507,-55.3235 L 587.016,-56
 L 586.675,-56.7639 L 586.502,-57.5819 L 586.502,-58.4181 L 586.675,-59.2361 L 587.016,-60 L 587.507,-60.6765
 L 588.129,-61.2361 L 588.853,-61.6542 L 589.648,-61.9126 L 590.48,-62 L 621.52,-62 L 622.509,-61.8758
 L 623.294,-61.5855 L 624,-61.1385 L 624.599,-60.5543 L 625.062,-59.8585 L 625.371,-59.0815 L 625.512,-58.2571
 L 625.478,-57.4216 L 625.272,-56.6113 L 624.901,-55.8618 L 624.382,-55.2056 L 623.739,-54.6716 L 622.998,-54.2831
 L 607.478,-48.1113 L 606.989,-47.9523 L 606.161,-47.8314 z
M 506.827,-21.2054 L 506.022,-21.4314 L 423.41,-54.2831 L 422.537,-54.7639 L 421.915,-55.3235 L 421.424,-56
 L 421.083,-56.7639 L 420.91,-57.5819 L 420.91,-58.4181 L 421.083,-59.2361 L 421.424,-60 L 421.915,-60.6765
 L 422.537,-61.2361 L 423.261,-61.6542 L 424.056,-61.9126 L 424.888,-62 L 507.5,-62 L 508.736,-61.8042
 L 509.5,-61.4641 L 510.177,-60.9726 L 510.736,-60.3511 L 511.154,-59.627 L 511.413,-58.8316 L 511.5,-58
 L 511.5,-25.1483 L 511.351,-24.0669 L 511.042,-23.2898 L 510.578,-22.594 L 509.98,-22.0098 L 509.273,-21.5628
 L 508.489,-21.2725 L 507.662,-21.1516 z
M 335.827,-21.2054 L 335.022,-21.4314 L 252.41,-54.2831 L 251.537,-54.7639 L 250.915,-55.3235 L 250.424,-56
 L 250.083,-56.7639 L 249.91,-57.5819 L 249.91,-58.4181 L 250.083,-59.2361 L 250.424,-60 L 250.915,-60.6765
 L 251.537,-61.2361 L 252.261,-61.6542 L 253.056,-61.9126 L 253.888,-62 L 336.5,-62 L 337.736,-61.8042
 L 338.5,-61.4641 L 339.177,-60.9726 L 339.736,-60.3511 L 340.154,-59.627 L 340.413,-58.8316 L 340.5,-58
 L 340.5,-25.1483 L 340.351,-24.0669 L 340.042,-23.2898 L 339.578,-22.594 L 338.98,-22.0098 L 338.273,-21.5628
 L 337.489,-21.2725 L 336.662,-21.1516 z
M 1045.51,-21.2725 L 1044.73,-21.5628 L 1044.02,-22.0098 L 1043.42,-22.594 L 1042.96,-23.2898 L 1042.65,-24.0669
 L 1042.5,-25.1483 L 1042.5,-58 L 1042.59,-58.8316 L 1042.85,-59.627 L 1043.26,-60.3511 L 1043.82,-60.9726
 L 1044.5,-61.4641 L 1045.26,-61.8042 L 1046.5,-62 L 1129.11,-62 L 1129.94,-61.9126 L 1130.74,-61.6542
 L 1131.46,-61.2361 L 1132.08,-60.6765 L 1132.58,-60 L 1132.92,-59.2361 L 1133.09,-58.4181 L 1133.09,-57.5819
 L 1132.92,-56.7639 L 1132.58,-56 L 1132.08,-55.3235 L 1131.46,-54.7639 L 1130.59,-54.2831 L 1047.98,-21.4314
 L 1047.17,-21.2054 L 1046.34,-21.1516 z
M 164.827,-21.2054 L 164.022,-21.4314 L 81.4097,-54.2831 L 80.5366,-54.7639 L 79.9151,-55.3235 L 79.4236,-56
 L 79.0835,-56.7639 L 78.9096,-57.5819 L 78.9096,-58.4181 L 79.0835,-59.2361 L 79.4236,-60 L 79.9151,-60.6765
 L 80.5366,-61.2361 L 81.2608,-61.6542 L 82.0561,-61.9126 L 82.8877,-62 L 165.5,-62 L 166.736,-61.8042
 L 167.5,-61.4641 L 168.177,-60.9726 L 168.736,-60.3511 L 169.154,-59.627 L 169.413,-58.8316 L 169.5,-58
 L 169.5,-25.1483 L 169.351,-24.0669 L 169.042,-23.2898 L 168.578,-22.594 L 167.98,-22.0098 L 167.273,-21.5628
 L 166.489,-21.2725 L 165.662,-21.1516 z
M 874.511,-21.2725 L 873.727,-21.5628 L 873.02,-22.0098 L 872.422,-22.594 L 871.958,-23.2898 L 871.649,-24.0669
 L 871.5,-25.1483 L 871.5,-58 L 871.587,-58.8316 L 871.846,-59.627 L 872.264,-60.3511 L 872.823,-60.9726
 L 873.5,-61.4641 L 874.264,-61.8042 L 875.5,-62 L 958.112,-62 L 958.944,-61.9126 L 959.739,-61.6542
 L 960.463,-61.2361 L 961.085,-60.6765 L 961.576,-60 L 961.917,-59.2361 L 962.09,-58.4181 L 962.09,-57.5819
 L 961.917,-56.7639 L 961.576,-56 L 961.085,-55.3235 L 960.463,-54.7639 L 959.59,-54.2831 L 876.978,-21.4314
 L 876.173,-21.2054 L 875.338,-21.1516 z
M 533.082,-19.0197 L 532.264,-19.1935 L 531.5,-19.5337 L 530.823,-20.0252 L 530.264,-20.6466 L 529.846,-21.3708
 L 529.587,-22.1661 L 529.5,-22.9978 L 529.5,-57.0022 L 529.649,-58.0837 L 529.958,-58.8607 L 530.422,-59.5565
 L 531.02,-60.1407 L 531.727,-60.5877 L 532.511,-60.8781 L 533.338,-60.999 L 534.173,-60.9452 L 534.978,-60.7191
 L 577.734,-43.7169 L 578.736,-43.1385 L 579.334,-42.5543 L 579.798,-41.8585 L 580.107,-41.0815 L 580.247,-40.2571
 L 580.214,-39.4216 L 580.007,-38.6113 L 579.636,-37.8618 L 579.118,-37.2056 L 578.474,-36.6716 L 577.734,-36.2831
 L 534.978,-19.2809 L 533.918,-19.0197 z
M 677.827,-19.0548 L 677.022,-19.2809 L 634.266,-36.2831 L 633.264,-36.8615 L 632.666,-37.4457 L 632.202,-38.1415
 L 631.893,-38.9185 L 631.753,-39.7429 L 631.786,-40.5784 L 631.993,-41.3887 L 632.364,-42.1382 L 632.882,-42.7944
 L 633.526,-43.3284 L 634.266,-43.7169 L 677.022,-60.7191 L 678.082,-60.9803 L 678.918,-60.9803 L 679.736,-60.8065
 L 680.5,-60.4663 L 681.177,-59.9748 L 681.736,-59.3534 L 682.154,-58.6292 L 682.413,-57.8339 L 682.5,-57.0022
 L 682.5,-22.9978 L 682.351,-21.9163 L 682.042,-21.1393 L 681.578,-20.4435 L 680.98,-19.8593 L 680.273,-19.4122
 L 679.489,-19.1219 L 678.662,-19.001 z
M 191.5,-18 L 190.264,-18.1958 L 189.5,-18.5359 L 188.823,-19.0274 L 188.264,-19.6489 L 187.846,-20.373
 L 187.587,-21.1684 L 187.5,-22 L 187.5,-54.8517 L 187.649,-55.9331 L 187.958,-56.7101 L 188.422,-57.406
 L 189.02,-57.9901 L 189.727,-58.4372 L 190.511,-58.7275 L 191.338,-58.8484 L 192.173,-58.7946 L 192.978,-58.5686
 L 275.59,-25.7169 L 276.463,-25.2361 L 277.085,-24.6765 L 277.576,-24 L 277.916,-23.2361 L 278.09,-22.4181
 L 278.09,-21.5819 L 277.916,-20.7639 L 277.576,-20 L 277.085,-19.3235 L 276.463,-18.7639 L 275.739,-18.3458
 L 274.944,-18.0874 L 274.112,-18 z
M 362.5,-18 L 361.264,-18.1958 L 360.5,-18.5359 L 359.823,-19.0274 L 359.264,-19.6489 L 358.846,-20.373
 L 358.587,-21.1684 L 358.5,-22 L 358.5,-54.8517 L 358.649,-55.9331 L 358.958,-56.7101 L 359.422,-57.406
 L 360.02,-57.9901 L 360.727,-58.4372 L 361.511,-58.7275 L 362.338,-58.8484 L 363.173,-58.7946 L 363.978,-58.5686
 L 446.59,-25.7169 L 447.463,-25.2361 L 448.085,-24.6765 L 448.576,-24 L 448.916,-23.2361 L 449.09,-22.4181
 L 449.09,-21.5819 L 448.916,-20.7639 L 448.576,-20 L 448.085,-19.3235 L 447.463,-18.7639 L 446.739,-18.3458
 L 445.944,-18.0874 L 445.112,-18 z
M 766.888,-18 L 766.056,-18.0874 L 765.261,-18.3458 L 764.537,-18.7639 L 763.915,-19.3235 L 763.424,-20
 L 763.084,-20.7639 L 762.91,-21.5819 L 762.91,-22.4181 L 763.084,-23.2361 L 763.424,-24 L 763.915,-24.6765
 L 764.537,-25.2361 L 765.41,-25.7169 L 848.022,-58.5686 L 848.827,-58.7946 L 849.662,-58.8484 L 850.489,-58.7275
 L 851.273,-58.4372 L 851.98,-57.9901 L 852.578,-57.406 L 853.042,-56.7101 L 853.351,-55.9331 L 853.5,-54.8517
 L 853.5,-22 L 853.413,-21.1684 L 853.154,-20.373 L 852.736,-19.6489 L 852.177,-19.0274 L 851.5,-18.5359
 L 850.736,-18.1958 L 849.5,-18 z
M 937.888,-18 L 937.056,-18.0874 L 936.261,-18.3458 L 935.537,-18.7639 L 934.915,-19.3235 L 934.424,-20
 L 934.084,-20.7639 L 933.91,-21.5819 L 933.91,-22.4181 L 934.084,-23.2361 L 934.424,-24 L 934.915,-24.6765
 L 935.537,-25.2361 L 936.41,-25.7169 L 1019.02,-58.5686 L 1019.83,-58.7946 L 1020.66,-58.8484 L 1021.49,-58.7275
 L 1022.27,-58.4372 L 1022.98,-57.9901 L 1023.58,-57.406 L 1024.04,-56.7101 L 1024.35,-55.9331 L 1024.5,-54.8517
 L 1024.5,-22 L 1024.41,-21.1684 L 1024.15,-20.373 L 1023.74,-19.6489 L 1023.18,-19.0274 L 1022.5,-18.5359
 L 1021.74,-18.1958 L 1020.5,-18 z
M 22,-18 L 20.7639,-18.1958 L 20,-18.5359 L 19.3235,-19.0274 L 18.7639,-19.6489 L 18.3458,-20.373
 L 18.0874,-21.1684 L 18,-22 L 18,-54.2552 L 18.149,-55.3366 L 18.458,-56.1136 L 18.9218,-56.8095
 L 19.5201,-57.3936 L 20.2268,-57.8407 L 21.011,-58.131 L 21.8385,-58.2519 L 22.673,-58.1981 L 23.4781,-57.9721
 L 104.59,-25.7169 L 105.463,-25.2361 L 106.085,-24.6765 L 106.576,-24 L 106.916,-23.2361 L 107.09,-22.4181
 L 107.09,-21.5819 L 106.916,-20.7639 L 106.576,-20 L 106.085,-19.3235 L 105.463,-18.7639 L 104.739,-18.3458
 L 103.944,-18.0874 L 103.112,-18 z
M 1108.89,-18 L 1108.06,-18.0874 L 1107.26,-18.3458 L 1106.54,-18.7639 L 1105.92,-19.3235 L 1105.42,-20
 L 1105.08,-20.7639 L 1104.91,-21.5819 L 1104.91,-22.4181 L 1105.08,-23.2361 L 1105.42,-24 L 1105.92,-24.6765
 L 1106.54,-25.2361 L 1107.41,-25.7169 L 1188.52,-57.9721 L 1189.33,-58.1981 L 1190.16,-58.2519 L 1190.99,-58.131
 L 1191.77,-57.8407 L 1192.48,-57.3936 L 1193.08,-56.8095 L 1193.54,-56.1136 L 1193.85,-55.3366 L 1194,-54.2552
 L 1194,-22 L 1193.91,-21.1684 L 1193.65,-20.373 L 1193.24,-19.6489 L 1192.68,-19.0274 L 1192,-18.5359
 L 1191.24,-18.1958 L 1190,-18 z
M 590.48,-18 L 589.491,-18.1242 L 588.706,-18.4145 L 588,-18.8615 L 587.401,-19.4457 L 586.938,-20.1415
 L 586.629,-20.9185 L 586.488,-21.7429 L 586.522,-22.5784 L 586.728,-23.3887 L 587.099,-24.1382 L 587.618,-24.7944
 L 588.261,-25.3284 L 589.002,-25.7169 L 604.522,-31.8887 L 605.011,-32.0477 L 605.838,-32.1686 L 606.673,-32.1148
 L 607.478,-31.8887 L 622.998,-25.7169 L 623.871,-25.2361 L 624.493,-24.6765 L 624.984,-24 L 625.325,-23.2361
 L 625.498,-22.4181 L 625.498,-21.5819 L 625.325,-20.7639 L 624.984,-20 L 624.493,-19.3235 L 623.871,-18.7639
 L 623.147,-18.3458 L 622.352,-18.0874 L 621.52,-18 z
" stroke="black" fill="lightgray" stroke-width="0.5"/>
</svg>
