<?xml version="1.0" standalone="no"?>
<!DOCTYPE svg PUBLIC "-//W3C//DTD SVG 1.1//EN" "http://www.w3.org/Graphics/SVG/1.1/DTD/svg11.dtd">
<svg width="1648mm" height="80mm" viewBox="0 -80 1648 80" xmlns="http://www.w3.org/2000/svg" version="1.1">
<title>OpenSCAD Model</title>
<path d="
M 1648,-80 L 0,-80 L 0,-0 L 4.95,-0 L 4.95,-6 L 5.00572,-6.53017
 L 5.17046,-7.03717 L 5.437,-7.49884 L 5.79372,-7.895 L 6.22499,-8.20836 L 6.71201,-8.42519 L 7.23344,-8.53603
 L 7.76654,-8.53603 L 8.28798,-8.42519 L 8.77499,-8.20836 L 9.20627,-7.895 L 9.56299,-7.49884 L 9.82953,-7.03717
 L 9.99426,-6.53017 L 10.05,-6 L 10.05,-0 L 186.394,-0 L 186.394,-6 L 186.45,-6.53017
 L 186.615,-7.03717 L 186.881,-7.49884 L 187.238,-7.895 L 187.669,-8.20836 L 188.156,-8.42519 L 188.678,-8.53603
 L 189.211,-8.53603 L 189.732,-8.42519 L 190.219,-8.20836 L 190.651,-7.895 L 191.007,-7.49884 L 191.274,-7.03717
 L 191.439,-6.53017 L 191.494,-6 L 191.494,-0 L 367.839,-0 L 367.839,-6 L 367.895,-6.53017
 L 368.059,-7.03717 L 368.326,-7.49884 L 368.683,-7.895 L 369.114,-8.20836 L 369.601,-8.42519 L 370.122,-8.53603
 L 370.655,-8.53603 L 371.177,-8.42519 L 371.664,-8.20836 L 372.095,-7.895 L 372.452,-7.49884 L 372.718,-7.03717
 L 372.883,-6.53017 L 372.939,-6 L 372.939,-0 L 549.283,-0 L 549.283,-6 L 549.339,-6.53017
 L 549.504,-7.03717 L 549.77,-7.49884 L 550.127,-7.895 L 550.558,-8.20836 L 551.045,-8.42519 L 551.567,-8.53603
 L 552.1,-8.53603 L 552.621,-8.42519 L 553.108,-8.20836 L 553.54,-7.895 L 553.896,-7.49884 L 554.163,-7.03717
 L 554.328,-6.53017 L 554.383,-6 L 554.383,-0 L 730.728,-0 L 730.728,-6 L 730.783,-6.53017
 L 730.948,-7.03717 L 731.215,-7.49884 L 731.571,-7.895 L 732.003,-8.20836 L 732.49,-8.42519 L 733.011,-8.53603
 L 733.544,-8.53603 L 734.066,-8.42519 L 734.553,-8.20836 L 734.984,-7.895 L 735.341,-7.49884 L 735.607,-7.03717
 L 735.772,-6.53017 L 735.828,-6 L 735.828,-0 L 912.172,-0 L 912.172,-6 L 912.228,-6.53017
 L 912.393,-7.03717 L 912.659,-7.49884 L 913.016,-7.895 L 913.447,-8.20836 L 913.934,-8.42519 L 914.456,-8.53603
 L 914.989,-8.53603 L 915.51,-8.42519 L 915.997,-8.20836 L 916.428,-7.895 L 916.785,-7.49884 L 917.052,-7.03717
 L 917.216,-6.53017 L 917.272,-6 L 917.272,-0 L 1093.62,-0 L 1093.62,-6 L 1093.67,-6.53017
 L 1093.84,-7.03717 L 1094.1,-7.49884 L 1094.46,-7.895 L 1094.89,-8.20836 L 1095.38,-8.42519 L 1095.9,-8.53603
 L 1096.43,-8.53603 L 1096.95,-8.42519 L 1097.44,-8.20836 L 1097.87,-7.895 L 1098.23,-7.49884 L 1098.5,-7.03717
 L 1098.66,-6.53017 L 1098.72,-6 L 1098.72,-0 L 1275.06,-0 L 1275.06,-6 L 1275.12,-6.53017
 L 1275.28,-7.03717 L 1275.55,-7.49884 L 1275.9,-7.895 L 1276.34,-8.20836 L 1276.82,-8.42519 L 1277.34,-8.53603
 L 1277.88,-8.53603 L 1278.4,-8.42519 L 1278.89,-8.20836 L 1279.32,-7.895 L 1279.67,-7.49884 L 1279.94,-7.03717
 L 1280.11,-6.53017 L 1280.16,-6 L 1280.16,-0 L 1456.51,-0 L 1456.51,-6 L 1456.56,-6.53017
 L 1456.73,-7.03717 L 1456.99,-7.49884 L 1457.35,-7.895 L 1457.78,-8.20836 L 1458.27,-8.42519 L 1458.79,-8.53603
 L 1459.32,-8.53603 L 1459.84,-8.42519 L 1460.33,-8.20836 L 1460.76,-7.895 L 1461.12,-7.49884 L 1461.39,-7.03717
 L 1461.55,-6.53017 L 1461.61,-6 L 1461.61,-0 L 1637.95,-0 L 1637.95,-6 L 1638.01,-6.53017
 L 1638.17,-7.03717 L 1638.44,-7.49884 L 1638.79,-7.895 L 1639.22,-8.20836 L 1639.71,-8.42519 L 1640.23,-8.53603
 L 1640.77,-8.53603 L 1641.29,-8.42519 L 1641.77,-8.20836 L 1642.21,-7.895 L 1642.56,-7.49884 L 1642.83,-7.03717
 L 1642.99,-6.53017 L 1643.05,-6 L 1643.05,-0 L 1648,-0 z
M 6.98573,-55.607 L 6.47708,-55.6875 L 5.97964,-55.8208 L 5.49887,-56.0054 L 5.04001,-56.2392 L 4.60811,-56.5196
 L 4.20789,-56.8437 L 3.84373,-57.2079 L 3.51964,-57.6081 L 3.23917,-58.04 L 3.00537,-58.4989 L 2.82082,-58.9796
 L 2.68752,-59.4771 L 2.60696,-59.9857 L 2.58,-60.5 L 2.60696,-61.0143 L 2.68752,-61.5229 L 2.82082,-62.0204
 L 3.00537,-62.5011 L 3.23917,-62.96 L 3.51964,-63.3919 L 3.84373,-63.7921 L 4.20789,-64.1563 L 4.60811,-64.4804
 L 4.95001,-64.7024 L 4.95001,-74 L 5.00574,-74.5302 L 5.17047,-75.0372 L 5.43701,-75.4988 L 5.79373,-75.895
 L 6.22501,-76.2084 L 6.71202,-76.4252 L 7.23346,-76.536 L 7.76654,-76.536 L 8.28798,-76.4252 L 8.77499,-76.2084
 L 9.20627,-75.895 L 9.56299,-75.4988 L 9.82953,-75.0372 L 9.99426,-74.5302 L 10.05,-74 L 10.05,-64.7024
 L 10.3919,-64.4804 L 10.7921,-64.1563 L 11.1563,-63.7921 L 11.4804,-63.3919 L 11.7608,-62.96 L 11.9946,-62.5011
 L 12.1792,-62.0204 L 12.3125,-61.5229 L 12.393,-61.0143 L 12.42,-60.5 L 12.393,-59.9857 L 12.3125,-59.4771
 L 12.1792,-58.9796 L 11.9946,-58.4989 L 11.7608,-58.04 L 11.4804,-57.6081 L 11.1563,-57.2079 L 10.7921,-56.8437
 L 10.3919,-56.5196 L 9.95999,-56.2392 L 9.50113,-56.0054 L 9.02036,-55.8208 L 8.52292,-55.6875 L 8.01427,-55.607
 L 7.5,-55.58 z
M 1095.65,-55.607 L 1095.14,-55.6875 L 1094.65,-55.8208 L 1094.17,-56.0054 L 1093.71,-56.2392 L 1093.27,-56.5196
 L 1092.87,-56.8437 L 1092.51,-57.2079 L 1092.19,-57.6081 L 1091.91,-58.04 L 1091.67,-58.4989 L 1091.49,-58.9796
 L 1091.35,-59.4771 L 1091.27,-59.9857 L 1091.25,-60.5 L 1091.27,-61.0143 L 1091.35,-61.5229 L 1091.49,-62.0204
 L 1091.67,-62.5011 L 1091.91,-62.96 L 1092.19,-63.3919 L 1092.51,-63.7921 L 1092.87,-64.1563 L 1093.27,-64.4804
 L 1093.62,-64.7024 L 1093.62,-74 L 1093.67,-74.5302 L 1093.84,-75.0372 L 1094.1,-75.4988 L 1094.46,-75.895
 L 1094.89,-76.2084 L 1095.38,-76.4252 L 1095.9,-76.536 L 1096.43,-76.536 L 1096.95,-76.4252 L 1097.44,-76.2084
 L 1097.87,-75.895 L 1098.23,-75.4988 L 1098.5,-75.0372 L 1098.66,-74.5302 L 1098.72,-74 L 1098.72,-64.7024
 L 1099.06,-64.4804 L 1099.46,-64.1563 L 1099.82,-63.7921 L 1100.15,-63.3919 L 1100.43,-62.96 L 1100.66,-62.5011
 L 1100.85,-62.0204 L 1100.98,-61.5229 L 1101.06,-61.0143 L 1101.09,-60.5 L 1101.06,-59.9857 L 1100.98,-59.4771
 L 1100.85,-58.9796 L 1100.66,-58.4989 L 1100.43,-58.04 L 1100.15,-57.6081 L 1099.82,-57.2079 L 1099.46,-56.8437
 L 1099.06,-56.5196 L 1098.63,-56.2392 L 1098.17,-56.0054 L 1097.69,-55.8208 L 1097.19,-55.6875 L 1096.68,-55.607
 L 1096.17,-55.58 z
M 1277.1,-55.607 L 1276.59,-55.6875 L 1276.09,-55.8208 L 1275.61,-56.0054 L 1275.15,-56.2392 L 1274.72,-56.5196
 L 1274.32,-56.8437 L 1273.95,-57.2079 L 1273.63,-57.6081 L 1273.35,-58.04 L 1273.12,-58.4989 L 1272.93,-58.9796
 L 1272.8,-59.4771 L 1272.72,-59.9857 L 1272.69,-60.5 L 1272.72,-61.0143 L 1272.8,-61.5229 L 1272.93,-62.0204
 L 1273.12,-62.5011 L 1273.35,-62.96 L 1273.63,-63.3919 L 1273.95,-63.7921 L 1274.32,-64.1563 L 1274.72,-64.4804
 L 1275.06,-64.7024 L 1275.06,-74 L 1275.12,-74.5302 L 1275.28,-75.0372 L 1275.55,-75.4988 L 1275.9,-75.895
 L 1276.34,-76.2084 L 1276.82,-76.4252 L 1277.34,-76.536 L 1277.88,-76.536 L 1278.4,-76.4252 L 1278.89,-76.2084
 L 1279.32,-75.895 L 1279.67,-75.4988 L 1279.94,-75.0372 L 1280.11,-74.5302 L 1280.16,-74 L 1280.16,-64.7024
 L 1280.5,-64.4804 L 1280.9,-64.1563 L 1281.27,-63.7921 L 1281.59,-63.3919 L 1281.87,-62.96 L 1282.11,-62.5011
 L 1282.29,-62.0204 L 1282.42,-61.5229 L 1282.5,-61.0143 L 1282.53,-60.5 L 1282.5,-59.9857 L 1282.42,-59.4771
 L 1282.29,-58.9796 L 1282.11,-58.4989 L 1281.87,-58.04 L 1281.59,-57.6081 L 1281.27,-57.2079 L 1280.9,-56.8437
 L 1280.5,-56.5196 L 1280.07,-56.2392 L 1279.61,-56.0054 L 1279.13,-55.8208 L 1278.63,-55.6875 L 1278.13,-55.607
 L 1277.61,-55.58 z
M 914.208,-55.607 L 913.699,-55.6875 L 913.202,-55.8208 L 912.721,-56.0054 L 912.262,-56.2392 L 911.83,-56.5196
 L 911.43,-56.8437 L 911.066,-57.2079 L 910.742,-57.6081 L 910.461,-58.04 L 910.228,-58.4989 L 910.043,-58.9796
 L 909.91,-59.4771 L 909.829,-59.9857 L 909.802,-60.5 L 909.829,-61.0143 L 909.91,-61.5229 L 910.043,-62.0204
 L 910.228,-62.5011 L 910.461,-62.96 L 910.742,-63.3919 L 911.066,-63.7921 L 911.43,-64.1563 L 911.83,-64.4804
 L 912.172,-64.7024 L 912.172,-74 L 912.228,-74.5302 L 912.393,-75.0372 L 912.659,-75.4988 L 913.016,-75.895
 L 913.447,-76.2084 L 913.934,-76.4252 L 914.456,-76.536 L 914.989,-76.536 L 915.51,-76.4252 L 915.997,-76.2084
 L 916.428,-75.895 L 916.785,-75.4988 L 917.052,-75.0372 L 917.216,-74.5302 L 917.272,-74 L 917.272,-64.7024
 L 917.614,-64.4804 L 918.014,-64.1563 L 918.378,-63.7921 L 918.703,-63.3919 L 918.983,-62.96 L 919.217,-62.5011
 L 919.401,-62.0204 L 919.535,-61.5229 L 919.615,-61.0143 L 919.642,-60.5 L 919.615,-59.9857 L 919.535,-59.4771
 L 919.401,-58.9796 L 919.217,-58.4989 L 918.983,-58.04 L 918.703,-57.6081 L 918.378,-57.2079 L 918.014,-56.8437
 L 917.614,-56.5196 L 917.182,-56.2392 L 916.723,-56.0054 L 916.243,-55.8208 L 915.745,-55.6875 L 915.236,-55.607
 L 914.722,-55.58 z
M 732.764,-55.607 L 732.255,-55.6875 L 731.757,-55.8208 L 731.277,-56.0054 L 730.818,-56.2392 L 730.386,-56.5196
 L 729.986,-56.8437 L 729.622,-57.2079 L 729.297,-57.6081 L 729.017,-58.04 L 728.783,-58.4989 L 728.599,-58.9796
 L 728.465,-59.4771 L 728.385,-59.9857 L 728.358,-60.5 L 728.385,-61.0143 L 728.465,-61.5229 L 728.599,-62.0204
 L 728.783,-62.5011 L 729.017,-62.96 L 729.297,-63.3919 L 729.622,-63.7921 L 729.986,-64.1563 L 730.386,-64.4804
 L 730.728,-64.7024 L 730.728,-74 L 730.784,-74.5302 L 730.948,-75.0372 L 731.215,-75.4988 L 731.572,-75.895
 L 732.003,-76.2084 L 732.49,-76.4252 L 733.011,-76.536 L 733.544,-76.536 L 734.066,-76.4252 L 734.553,-76.2084
 L 734.984,-75.895 L 735.341,-75.4988 L 735.607,-75.0372 L 735.772,-74.5302 L 735.828,-74 L 735.828,-64.7024
 L 736.17,-64.4804 L 736.57,-64.1563 L 736.934,-63.7921 L 737.258,-63.3919 L 737.539,-62.96 L 737.772,-62.5011
 L 737.957,-62.0204 L 738.09,-61.5229 L 738.171,-61.0143 L 738.198,-60.5 L 738.171,-59.9857 L 738.09,-59.4771
 L 737.957,-58.9796 L 737.772,-58.4989 L 737.539,-58.04 L 737.258,-57.6081 L 736.934,-57.2079 L 736.57,-56.8437
 L 736.17,-56.5196 L 735.738,-56.2392 L 735.279,-56.0054 L 734.798,-55.8208 L 734.301,-55.6875 L 733.792,-55.607
 L 733.278,-55.58 z
M 1458.54,-55.607 L 1458.03,-55.6875 L 1457.54,-55.8208 L 1457.05,-56.0054 L 1456.6,-56.2392 L 1456.16,-56.5196
 L 1455.76,-56.8437 L 1455.4,-57.2079 L 1455.08,-57.6081 L 1454.79,-58.04 L 1454.56,-58.4989 L 1454.38,-58.9796
 L 1454.24,-59.4771 L 1454.16,-59.9857 L 1454.14,-60.5 L 1454.16,-61.0143 L 1454.24,-61.5229 L 1454.38,-62.0204
 L 1454.56,-62.5011 L 1454.79,-62.96 L 1455.08,-63.3919 L 1455.4,-63.7921 L 1455.76,-64.1563 L 1456.16,-64.4804
 L 1456.51,-64.7024 L 1456.51,-74 L 1456.56,-74.5302 L 1456.73,-75.0372 L 1456.99,-75.4988 L 1457.35,-75.895
 L 1457.78,-76.2084 L 1458.27,-76.4252 L 1458.79,-76.536 L 1459.32,-76.536 L 1459.84,-76.4252 L 1460.33,-76.2084
 L 1460.76,-75.895 L 1461.12,-75.4988 L 1461.39,-75.0372 L 1461.55,-74.5302 L 1461.61,-74 L 1461.61,-64.7024
 L 1461.95,-64.4804 L 1462.35,-64.1563 L 1462.71,-63.7921 L 1463.04,-63.3919 L 1463.32,-62.96 L 1463.55,-62.5011
 L 1463.73,-62.0204 L 1463.87,-61.5229 L 1463.95,-61.0143 L 1463.98,-60.5 L 1463.95,-59.9857 L 1463.87,-59.4771
 L 1463.73,-58.9796 L 1463.55,-58.4989 L 1463.32,-58.04 L 1463.04,-57.6081 L 1462.71,-57.2079 L 1462.35,-56.8437
 L 1461.95,-56.5196 L 1461.52,-56.2392 L 1461.06,-56.0054 L 1460.58,-55.8208 L 1460.08,-55.6875 L 1459.57,-55.607
 L 1459.06,-55.58 z
M 551.319,-55.607 L 550.81,-55.6875 L 550.313,-55.8208 L 549.832,-56.0054 L 549.373,-56.2392 L 548.941,-56.5196
 L 548.541,-56.8437 L 548.177,-57.2079 L 547.853,-57.6081 L 547.572,-58.04 L 547.339,-58.4989 L 547.154,-58.9796
 L 547.021,-59.4771 L 546.94,-59.9857 L 546.913,-60.5 L 546.94,-61.0143 L 547.021,-61.5229 L 547.154,-62.0204
 L 547.339,-62.5011 L 547.572,-62.96 L 547.853,-63.3919 L 548.177,-63.7921 L 548.541,-64.1563 L 548.941,-64.4804
 L 549.283,-64.7024 L 549.283,-74 L 549.339,-74.5302 L 549.504,-75.0372 L 549.77,-75.4988 L 550.127,-75.895
 L 550.558,-76.2084 L 551.045,-76.4252 L 551.567,-76.536 L 552.1,-76.536 L 552.621,-76.4252 L 553.108,-76.2084
 L 553.54,-75.895 L 553.896,-75.4988 L 554.163,-75.0372 L 554.328,-74.5302 L 554.383,-74 L 554.383,-64.7024
 L 554.725,-64.4804 L 555.125,-64.1563 L 555.49,-63.7921 L 555.814,-63.3919 L 556.094,-62.96 L 556.328,-62.5011
 L 556.513,-62.0204 L 556.646,-61.5229 L 556.726,-61.0143 L 556.753,-60.5 L 556.726,-59.9857 L 556.646,-59.4771
 L 556.513,-58.9796 L 556.328,-58.4989 L 556.094,-58.04 L 555.814,-57.6081 L 555.49,-57.2079 L 555.125,-56.8437
 L 554.725,-56.5196 L 554.293,-56.2392 L 553.834,-56.0054 L 553.354,-55.8208 L 552.856,-55.6875 L 552.348,-55.607
 L 551.833,-55.58 z
M 369.875,-55.607 L 369.366,-55.6875 L 368.869,-55.8208 L 368.388,-56.0054 L 367.929,-56.2392 L 367.497,-56.5196
 L 367.097,-56.8437 L 366.733,-57.2079 L 366.409,-57.6081 L 366.128,-58.04 L 365.894,-58.4989 L 365.71,-58.9796
 L 365.576,-59.4771 L 365.496,-59.9857 L 365.469,-60.5 L 365.496,-61.0143 L 365.576,-61.5229 L 365.71,-62.0204
 L 365.894,-62.5011 L 366.128,-62.96 L 366.409,-63.3919 L 366.733,-63.7921 L 367.097,-64.1563 L 367.497,-64.4804
 L 367.839,-64.7024 L 367.839,-74 L 367.895,-74.5302 L 368.059,-75.0372 L 368.326,-75.4988 L 368.683,-75.895
 L 369.114,-76.2084 L 369.601,-76.4252 L 370.122,-76.536 L 370.655,-76.536 L 371.177,-76.4252 L 371.664,-76.2084
 L 372.095,-75.895 L 372.452,-75.4988 L 372.718,-75.0372 L 372.883,-74.5302 L 372.939,-74 L 372.939,-64.7024
 L 373.281,-64.4804 L 373.681,-64.1563 L 374.045,-63.7921 L 374.369,-63.3919 L 374.65,-62.96 L 374.884,-62.5011
 L 375.068,-62.0204 L 375.201,-61.5229 L 375.282,-61.0143 L 375.309,-60.5 L 375.282,-59.9857 L 375.201,-59.4771
 L 375.068,-58.9796 L 374.884,-58.4989 L 374.65,-58.04 L 374.369,-57.6081 L 374.045,-57.2079 L 373.681,-56.8437
 L 373.281,-56.5196 L 372.849,-56.2392 L 372.39,-56.0054 L 371.909,-55.8208 L 371.412,-55.6875 L 370.903,-55.607
 L 370.389,-55.58 z
M 1639.99,-55.607 L 1639.48,-55.6875 L 1638.98,-55.8208 L 1638.5,-56.0054 L 1638.04,-56.2392 L 1637.61,-56.5196
 L 1637.21,-56.8437 L 1636.84,-57.2079 L 1636.52,-57.6081 L 1636.24,-58.04 L 1636.01,-58.4989 L 1635.82,-58.9796
 L 1635.69,-59.4771 L 1635.61,-59.9857 L 1635.58,-60.5 L 1635.61,-61.0143 L 1635.69,-61.5229 L 1635.82,-62.0204
 L 1636.01,-62.5011 L 1636.24,-62.96 L 1636.52,-63.3919 L 1636.84,-63.7921 L 1637.21,-64.1563 L 1637.61,-64.4804
 L 1637.95,-64.7024 L 1637.95,-74 L 1638.01,-74.5302 L 1638.17,-75.0372 L 1638.44,-75.4988 L 1638.79,-75.895
 L 1639.23,-76.2084 L 1639.71,-76.4252 L 1640.23,-76.536 L 1640.77,-76.536 L 1641.29,-76.4252 L 1641.77,-76.2084
 L 1642.21,-75.895 L 1642.56,-75.4988 L 1642.83,-75.0372 L 1642.99,-74.5302 L 1643.05,-74 L 1643.05,-64.7024
 L 1643.39,-64.4804 L 1643.79,-64.1563 L 1644.16,-63.7921 L 1644.48,-63.3919 L 1644.76,-62.96 L 1644.99,-62.5011
 L 1645.18,-62.0204 L 1645.31,-61.5229 L 1645.39,-61.0143 L 1645.42,-60.5 L 1645.39,-59.9857 L 1645.31,-59.4771
 L 1645.18,-58.9796 L 1644.99,-58.4989 L 1644.76,-58.04 L 1644.48,-57.6081 L 1644.16,-57.2079 L 1643.79,-56.8437
 L 1643.39,-56.5196 L 1642.96,-56.2392 L 1642.5,-56.0054 L 1642.02,-55.8208 L 1641.52,-55.6875 L 1641.01,-55.607
 L 1640.5,-55.58 z
M 188.43,-55.607 L 187.922,-55.6875 L 187.424,-55.8208 L 186.943,-56.0054 L 186.484,-56.2392 L 186.053,-56.5196
 L 185.652,-56.8437 L 185.288,-57.2079 L 184.964,-57.6081 L 184.684,-58.04 L 184.45,-58.4989 L 184.265,-58.9796
 L 184.132,-59.4771 L 184.051,-59.9857 L 184.024,-60.5 L 184.051,-61.0143 L 184.132,-61.5229 L 184.265,-62.0204
 L 184.45,-62.5011 L 184.684,-62.96 L 184.964,-63.3919 L 185.288,-63.7921 L 185.652,-64.1563 L 186.053,-64.4804
 L 186.394,-64.7024 L 186.394,-74 L 186.45,-74.5302 L 186.615,-75.0372 L 186.881,-75.4988 L 187.238,-75.895
 L 187.669,-76.2084 L 188.156,-76.4252 L 188.678,-76.536 L 189.211,-76.536 L 189.732,-76.4252 L 190.219,-76.2084
 L 190.651,-75.895 L 191.007,-75.4988 L 191.274,-75.0372 L 191.439,-74.5302 L 191.494,-74 L 191.494,-64.7024
 L 191.836,-64.4804 L 192.237,-64.1563 L 192.601,-63.7921 L 192.925,-63.3919 L 193.205,-62.96 L 193.439,-62.5011
 L 193.624,-62.0204 L 193.757,-61.5229 L 193.837,-61.0143 L 193.864,-60.5 L 193.837,-59.9857 L 193.757,-59.4771
 L 193.624,-58.9796 L 193.439,-58.4989 L 193.205,-58.04 L 192.925,-57.6081 L 192.601,-57.2079 L 192.237,-56.8437
 L 191.836,-56.5196 L 191.404,-56.2392 L 190.946,-56.0054 L 190.465,-55.8208 L 189.967,-55.6875 L 189.459,-55.607
 L 188.944,-55.58 z
M 1108.1,-20.8859 L 1107.32,-21.1918 L 1106.62,-21.6528 L 1106.04,-22.2488 L 1105.59,-22.9537 L 1105.29,-23.7367
 L 1105.17,-24.7413 L 1105.17,-58 L 1105.25,-58.8316 L 1105.51,-59.627 L 1105.93,-60.3511 L 1106.49,-60.9726
 L 1107.17,-61.4641 L 1107.93,-61.8042 L 1109.17,-62 L 1197.91,-62 L 1198.74,-61.9126 L 1199.54,-61.6542
 L 1200.26,-61.2361 L 1200.88,-60.6765 L 1201.38,-60 L 1201.72,-59.2361 L 1201.89,-58.4181 L 1201.89,-57.5819
 L 1201.72,-56.7639 L 1201.38,-56 L 1200.88,-55.3235 L 1200.26,-54.7639 L 1199.31,-54.2544 L 1110.57,-20.9957
 L 1109.76,-20.7857 L 1108.93,-20.7486 z
M 926.656,-20.8859 L 925.878,-21.1918 L 925.18,-21.6528 L 924.594,-22.2488 L 924.144,-22.9537 L 923.85,-23.7367
 L 923.722,-24.7413 L 923.722,-58 L 923.81,-58.8316 L 924.068,-59.627 L 924.486,-60.3511 L 925.046,-60.9726
 L 925.722,-61.4641 L 926.486,-61.8042 L 927.722,-62 L 1016.47,-62 L 1017.3,-61.9126 L 1018.09,-61.6542
 L 1018.82,-61.2361 L 1019.44,-60.6765 L 1019.93,-60 L 1020.27,-59.2361 L 1020.44,-58.4181 L 1020.44,-57.5819
 L 1020.27,-56.7639 L 1019.93,-56 L 1019.44,-55.3235 L 1018.82,-54.7639 L 1017.87,-54.2544 L 929.126,-20.9957
 L 928.317,-20.7857 L 927.481,-20.7486 z
M 823.406,-47.7799 L 822.596,-47.9899 L 805.881,-54.2544 L 804.933,-54.7639 L 804.312,-55.3235 L 803.82,-56
 L 803.48,-56.7639 L 803.306,-57.5819 L 803.306,-58.4181 L 803.48,-59.2361 L 803.82,-60 L 804.312,-60.6765
 L 804.933,-61.2361 L 805.658,-61.6542 L 806.453,-61.9126 L 807.284,-62 L 840.715,-62 L 841.781,-61.8553
 L 842.56,-61.5495 L 843.257,-61.0885 L 843.844,-60.4925 L 844.294,-59.7876 L 844.587,-59.0045 L 844.712,-58.1776
 L 844.661,-57.3429 L 844.438,-56.5369 L 844.053,-55.7948 L 843.521,-55.1492 L 842.867,-54.6281 L 842.119,-54.2544
 L 825.404,-47.9899 L 824.241,-47.7428 z
M 719.683,-20.7857 L 718.874,-20.9957 L 630.13,-54.2544 L 629.182,-54.7639 L 628.561,-55.3235 L 628.069,-56
 L 627.729,-56.7639 L 627.555,-57.5819 L 627.555,-58.4181 L 627.729,-59.2361 L 628.069,-60 L 628.561,-60.6765
 L 629.182,-61.2361 L 629.907,-61.6542 L 630.702,-61.9126 L 631.533,-62 L 720.278,-62 L 721.514,-61.8042
 L 722.278,-61.4641 L 722.954,-60.9726 L 723.514,-60.3511 L 723.932,-59.627 L 724.19,-58.8316 L 724.278,-58
 L 724.278,-24.7413 L 724.15,-23.7367 L 723.856,-22.9537 L 723.406,-22.2488 L 722.82,-21.6528 L 722.122,-21.1918
 L 721.344,-20.8859 L 720.519,-20.7486 z
M 538.239,-20.7857 L 537.43,-20.9957 L 448.685,-54.2544 L 447.738,-54.7639 L 447.116,-55.3235 L 446.625,-56
 L 446.285,-56.7639 L 446.111,-57.5819 L 446.111,-58.4181 L 446.285,-59.2361 L 446.625,-60 L 447.116,-60.6765
 L 447.738,-61.2361 L 448.462,-61.6542 L 449.257,-61.9126 L 450.089,-62 L 538.833,-62 L 540.069,-61.8042
 L 540.833,-61.4641 L 541.51,-60.9726 L 542.069,-60.3511 L 542.488,-59.627 L 542.746,-58.8316 L 542.833,-58
 L 542.833,-24.7413 L 542.705,-23.7367 L 542.412,-22.9537 L 541.962,-22.2488 L 541.375,-21.6528 L 540.678,-21.1918
 L 539.899,-20.8859 L 539.074,-20.7486 z
M 356.795,-20.7857 L 355.985,-20.9957 L 267.241,-54.2544 L 266.293,-54.7639 L 265.672,-55.3235 L 265.18,-56
 L 264.84,-56.7639 L 264.667,-57.5819 L 264.667,-58.4181 L 264.84,-59.2361 L 265.18,-60 L 265.672,-60.6765
 L 266.293,-61.2361 L 267.018,-61.6542 L 267.813,-61.9126 L 268.645,-62 L 357.389,-62 L 358.625,-61.8042
 L 359.389,-61.4641 L 360.065,-60.9726 L 360.625,-60.3511 L 361.043,-59.627 L 361.301,-58.8316 L 361.389,-58
 L 361.389,-24.7413 L 361.261,-23.7367 L 360.967,-22.9537 L 360.517,-22.2488 L 359.931,-21.6528 L 359.233,-21.1918
 L 358.455,-20.8859 L 357.63,-20.7486 z
M 1470.99,-20.8859 L 1470.21,-21.1918 L 1469.51,-21.6528 L 1468.93,-22.2488 L 1468.48,-22.9537 L 1468.18,-23.7367
 L 1468.06,-24.7413 L 1468.06,-58 L 1468.14,-58.8316 L 1468.4,-59.627 L 1468.82,-60.3511 L 1469.38,-60.9726
 L 1470.06,-61.4641 L 1470.82,-61.8042 L 1472.06,-62 L 1560.8,-62 L 1561.63,-61.9126 L 1562.43,-61.6542
 L 1563.15,-61.2361 L 1563.77,-60.6765 L 1564.26,-60 L 1564.6,-59.2361 L 1564.78,-58.4181 L 1564.78,-57.5819
 L 1564.6,-56.7639 L 1564.26,-56 L 1563.77,-55.3235 L 1563.15,-54.7639 L 1562.2,-54.2544 L 1473.46,-20.9957
 L 1472.65,-20.7857 L 1471.81,-20.7486 z
M 175.35,-20.7857 L 174.541,-20.9957 L 85.7964,-54.2544 L 84.849,-54.7639 L 84.2276,-55.3235 L 83.7361,-56
 L 83.3959,-56.7639 L 83.2221,-57.5819 L 83.2221,-58.4181 L 83.3959,-59.2361 L 83.7361,-60 L 84.2276,-60.6765
 L 84.849,-61.2361 L 85.5732,-61.6542 L 86.3685,-61.9126 L 87.2001,-62 L 175.944,-62 L 177.181,-61.8042
 L 177.944,-61.4641 L 178.621,-60.9726 L 179.181,-60.3511 L 179.599,-59.627 L 179.857,-58.8316 L 179.944,-58
 L 179.944,-24.7413 L 179.816,-23.7367 L 179.523,-22.9537 L 179.073,-22.2488 L 178.486,-21.6528 L 177.789,-21.1918
 L 177.01,-20.8859 L 176.186,-20.7486 z
M 1289.55,-20.8859 L 1288.77,-21.1918 L 1288.07,-21.6528 L 1287.48,-22.2488 L 1287.03,-22.9537 L 1286.74,-23.7367
 L 1286.61,-24.7413 L 1286.61,-58 L 1286.7,-58.8316 L 1286.96,-59.627 L 1287.38,-60.3511 L 1287.93,-60.9726
 L 1288.61,-61.4641 L 1289.38,-61.8042 L 1290.61,-62 L 1379.36,-62 L 1380.19,-61.9126 L 1380.98,-61.6542
 L 1381.71,-61.2361 L 1382.33,-60.6765 L 1382.82,-60 L 1383.16,-59.2361 L 1383.33,-58.4181 L 1383.33,-57.5819
 L 1383.16,-56.7639 L 1382.82,-56 L 1382.33,-55.3235 L 1381.71,-54.7639 L 1380.76,-54.2544 L 1292.01,-20.9957
 L 1291.21,-20.7857 L 1290.37,-20.7486 z
M 745.86,-18.6295 L 745.042,-18.8033 L 744.278,-19.1435 L 743.601,-19.635 L 743.042,-20.2564 L 742.624,-20.9806
 L 742.365,-21.7759 L 742.278,-22.6076 L 742.278,-57.3924 L 742.406,-58.397 L 742.699,-59.18 L 743.149,-59.8849
 L 743.736,-60.4809 L 744.434,-60.9419 L 745.212,-61.2478 L 746.037,-61.3852 L 746.872,-61.348 L 747.682,-61.138
 L 794.09,-43.7456 L 794.53,-43.5495 L 795.228,-43.0885 L 795.815,-42.4925 L 796.264,-41.7876 L 796.558,-41.0045
 L 796.682,-40.1776 L 796.632,-39.3429 L 796.409,-38.5369 L 796.023,-37.7948 L 795.492,-37.1492 L 794.838,-36.6281
 L 794.09,-36.2544 L 747.682,-18.862 L 746.696,-18.6295 z
M 901.128,-18.6519 L 900.318,-18.8619 L 853.91,-36.2544 L 853.47,-36.4505 L 852.772,-36.9115 L 852.185,-37.5075
 L 851.736,-38.2124 L 851.442,-38.9955 L 851.318,-39.8224 L 851.368,-40.6571 L 851.591,-41.4631 L 851.977,-42.2052
 L 852.508,-42.8508 L 853.162,-43.3719 L 853.91,-43.7456 L 900.318,-61.1381 L 901.304,-61.3705 L 902.14,-61.3705
 L 902.958,-61.1967 L 903.722,-60.8566 L 904.399,-60.365 L 904.958,-59.7436 L 905.376,-59.0194 L 905.635,-58.2241
 L 905.722,-57.3925 L 905.722,-22.6075 L 905.594,-21.603 L 905.301,-20.82 L 904.851,-20.1151 L 904.264,-19.5191
 L 903.566,-19.0581 L 902.788,-18.7522 L 901.963,-18.6148 z
M 201.944,-18 L 200.708,-18.1958 L 199.944,-18.5359 L 199.268,-19.0274 L 198.708,-19.6489 L 198.29,-20.373
 L 198.032,-21.1684 L 197.944,-22 L 197.944,-55.2587 L 198.073,-56.2632 L 198.366,-57.0463 L 198.816,-57.7512
 L 199.403,-58.3472 L 200.1,-58.8082 L 200.878,-59.1141 L 201.703,-59.2514 L 202.539,-59.2143 L 203.348,-59.0043
 L 292.092,-25.7456 L 293.04,-25.2361 L 293.661,-24.6765 L 294.153,-24 L 294.493,-23.2361 L 294.667,-22.4181
 L 294.667,-21.5819 L 294.493,-20.7639 L 294.153,-20 L 293.661,-19.3235 L 293.04,-18.7639 L 292.316,-18.3458
 L 291.52,-18.0874 L 290.689,-18 z
M 383.389,-18 L 382.153,-18.1958 L 381.389,-18.5359 L 380.712,-19.0274 L 380.153,-19.6489 L 379.735,-20.373
 L 379.476,-21.1684 L 379.389,-22 L 379.389,-55.2587 L 379.517,-56.2632 L 379.811,-57.0463 L 380.26,-57.7512
 L 380.847,-58.3472 L 381.545,-58.8082 L 382.323,-59.1141 L 383.148,-59.2514 L 383.983,-59.2143 L 384.793,-59.0043
 L 473.537,-25.7456 L 474.484,-25.2361 L 475.106,-24.6765 L 475.597,-24 L 475.937,-23.2361 L 476.111,-22.4181
 L 476.111,-21.5819 L 475.937,-20.7639 L 475.597,-20 L 475.106,-19.3235 L 474.484,-18.7639 L 473.76,-18.3458
 L 472.965,-18.0874 L 472.133,-18 z
M 564.833,-18 L 563.597,-18.1958 L 562.833,-18.5359 L 562.157,-19.0274 L 561.597,-19.6489 L 561.179,-20.373
 L 560.921,-21.1684 L 560.833,-22 L 560.833,-55.2587 L 560.962,-56.2632 L 561.255,-57.0463 L 561.705,-57.7512
 L 562.291,-58.3472 L 562.989,-58.8082 L 563.767,-59.1141 L 564.592,-59.2514 L 565.428,-59.2143 L 566.237,-59.0043
 L 654.981,-25.7456 L 655.929,-25.2361 L 656.55,-24.6765 L 657.042,-24 L 657.382,-23.2361 L 657.556,-22.4181
 L 657.556,-21.5819 L 657.382,-20.7639 L 657.042,-20 L 656.55,-19.3235 L 655.929,-18.7639 L 655.205,-18.3458
 L 654.409,-18.0874 L 653.578,-18 z
M 994.422,-18 L 993.591,-18.0874 L 992.795,-18.3458 L 992.071,-18.7639 L 991.45,-19.3235 L 990.958,-20
 L 990.618,-20.7639 L 990.444,-21.5819 L 990.444,-22.4181 L 990.618,-23.2361 L 990.958,-24 L 991.45,-24.6765
 L 992.071,-25.2361 L 993.019,-25.7456 L 1081.76,-59.0043 L 1082.57,-59.2143 L 1083.41,-59.2514 L 1084.23,-59.1141
 L 1085.01,-58.8082 L 1085.71,-58.3472 L 1086.3,-57.7512 L 1086.75,-57.0463 L 1087.04,-56.2632 L 1087.17,-55.2587
 L 1087.17,-22 L 1087.08,-21.1684 L 1086.82,-20.373 L 1086.4,-19.6489 L 1085.84,-19.0274 L 1085.17,-18.5359
 L 1084.4,-18.1958 L 1083.17,-18 z
M 1175.87,-18 L 1175.04,-18.0874 L 1174.24,-18.3458 L 1173.52,-18.7639 L 1172.89,-19.3235 L 1172.4,-20
 L 1172.06,-20.7639 L 1171.89,-21.5819 L 1171.89,-22.4181 L 1172.06,-23.2361 L 1172.4,-24 L 1172.89,-24.6765
 L 1173.52,-25.2361 L 1174.46,-25.7456 L 1263.21,-59.0043 L 1264.02,-59.2143 L 1264.85,-59.2514 L 1265.68,-59.1141
 L 1266.46,-58.8082 L 1267.15,-58.3472 L 1267.74,-57.7512 L 1268.19,-57.0463 L 1268.48,-56.2632 L 1268.61,-55.2587
 L 1268.61,-22 L 1268.52,-21.1684 L 1268.27,-20.373 L 1267.85,-19.6489 L 1267.29,-19.0274 L 1266.61,-18.5359
 L 1265.85,-18.1958 L 1264.61,-18 z
M 1357.31,-18 L 1356.48,-18.0874 L 1355.68,-18.3458 L 1354.96,-18.7639 L 1354.34,-19.3235 L 1353.85,-20
 L 1353.51,-20.7639 L 1353.33,-21.5819 L 1353.33,-22.4181 L 1353.51,-23.2361 L 1353.85,-24 L 1354.34,-24.6765
 L 1354.96,-25.2361 L 1355.91,-25.7456 L 1444.65,-59.0043 L 1445.46,-59.2143 L 1446.3,-59.2514 L 1447.12,-59.1141
 L 1447.9,-58.8082 L 1448.6,-58.3472 L 1449.18,-57.7512 L 1449.63,-57.0463 L 1449.93,-56.2632 L 1450.06,-55.2587
 L 1450.06,-22 L 1449.97,-21.1684 L 1449.71,-20.373 L 1449.29,-19.6489 L 1448.73,-19.0274 L 1448.06,-18.5359
 L 1447.29,-18.1958 L 1446.06,-18 z
M 22,-18 L 20.7639,-18.1958 L 20,-18.5359 L 19.3235,-19.0274 L 18.7639,-19.6489 L 18.3458,-20.373
 L 18.0874,-21.1684 L 18,-22 L 18,-54.6966 L 18.1282,-55.7011 L 18.4216,-56.4841 L 18.8715,-57.1891
 L 19.4581,-57.785 L 20.1558,-58.246 L 20.934,-58.5519 L 21.7589,-58.6893 L 22.5943,-58.6522 L 23.4037,-58.4422
 L 110.648,-25.7456 L 111.595,-25.2361 L 112.217,-24.6765 L 112.708,-24 L 113.048,-23.2361 L 113.222,-22.4181
 L 113.222,-21.5819 L 113.048,-20.7639 L 112.708,-20 L 112.217,-19.3235 L 111.595,-18.7639 L 110.871,-18.3458
 L 110.076,-18.0874 L 109.244,-18 z
M 1538.76,-18 L 1537.92,-18.0874 L 1537.13,-18.3458 L 1536.4,-18.7639 L 1535.78,-19.3235 L 1535.29,-20
 L 1534.95,-20.7639 L 1534.78,-21.5819 L 1534.78,-22.4181 L 1534.95,-23.2361 L 1535.29,-24 L 1535.78,-24.6765
 L 1536.4,-25.2361 L 1537.35,-25.7456 L 1624.6,-58.4422 L 1625.41,-58.6522 L 1626.24,-58.6893 L 1627.07,-58.5519
 L 1627.84,-58.246 L 1628.54,-57.785 L 1629.13,-57.1891 L 1629.58,-56.4841 L 1629.87,-55.7011 L 1630,-54.6966
 L 1630,-22 L 1629.91,-21.1684 L 1629.65,-20.373 L 1629.24,-19.6489 L 1628.68,-19.0274 L 1628,-18.5359
 L 1627.24,-18.1958 L 1626,-18 z
M 807.284,-18 L 806.219,-18.1447 L 805.44,-18.4505 L 804.743,-18.9115 L 804.156,-19.5075 L 803.706,-20.2124
 L 803.413,-20.9955 L 803.288,-21.8224 L 803.339,-22.6571 L 803.562,-23.4631 L 803.947,-24.2052 L 804.479,-24.8508
 L 805.133,-25.3719 L 805.881,-25.7456 L 822.596,-32.0101 L 823.759,-32.2572 L 824.594,-32.2201 L 825.404,-32.0101
 L 842.119,-25.7456 L 843.067,-25.2361 L 843.688,-24.6765 L 844.18,-24 L 844.52,-23.2361 L 844.694,-22.4181
 L 844.694,-21.5819 L 844.52,-20.7639 L 844.18,-20 L 843.688,-19.3235 L 843.067,-18.7639 L 842.342,-18.3458
 L 841.547,-18.0874 L 840.715,-18 z
" stroke="black" fill="lightgray" stroke-width="0.5"/>
</svg>
