<?xml version="1.0" standalone="no"?>
<!DOCTYPE svg PUBLIC "-//W3C//DTD SVG 1.1//EN" "http://www.w3.org/Graphics/SVG/1.1/DTD/svg11.dtd">
<svg width="1012mm" height="80mm" viewBox="0 -80 1012 80" xmlns="http://www.w3.org/2000/svg" version="1.1">
<title>OpenSCAD Model</title>
<path d="
M 1012,-80 L 0,-80 L 0,-0 L 4.95,-0 L 4.95,-6 L 5.00572,-6.53017
 L 5.17046,-7.03717 L 5.437,-7.49884 L 5.79372,-7.895 L 6.22499,-8.20836 L 6.71201,-8.42519 L 7.23344,-8.53603
 L 7.76654,-8.53603 L 8.28798,-8.42519 L 8.77499,-8.20836 L 9.20627,-7.895 L 9.56299,-7.49884 L 9.82953,-7.03717
 L 9.99426,-6.53017 L 10.05,-6 L 10.05,-0 L 171.117,-0 L 171.117,-6 L 171.172,-6.53017
 L 171.337,-7.03717 L 171.604,-7.49884 L 171.96,-7.895 L 172.392,-8.20836 L 172.879,-8.42519 L 173.4,-8.53603
 L 173.933,-8.53603 L 174.455,-8.42519 L 174.942,-8.20836 L 175.373,-7.895 L 175.73,-7.49884 L 175.996,-7.03717
 L 176.161,-6.53017 L 176.217,-6 L 176.217,-0 L 337.283,-0 L 337.283,-6 L 337.339,-6.53017
 L 337.504,-7.03717 L 337.77,-7.49884 L 338.127,-7.895 L 338.558,-8.20836 L 339.045,-8.42519 L 339.567,-8.53603
 L 340.1,-8.53603 L 340.621,-8.42519 L 341.108,-8.20836 L 341.54,-7.895 L 341.896,-7.49884 L 342.163,-7.03717
 L 342.328,-6.53017 L 342.383,-6 L 342.383,-0 L 503.45,-0 L 503.45,-6 L 503.506,-6.53017
 L 503.67,-7.03717 L 503.937,-7.49884 L 504.294,-7.895 L 504.725,-8.20836 L 505.212,-8.42519 L 505.733,-8.53603
 L 506.267,-8.53603 L 506.788,-8.42519 L 507.275,-8.20836 L 507.706,-7.895 L 508.063,-7.49884 L 508.33,-7.03717
 L 508.494,-6.53017 L 508.55,-6 L 508.55,-0 L 669.617,-0 L 669.617,-6 L 669.672,-6.53017
 L 669.837,-7.03717 L 670.104,-7.49884 L 670.46,-7.895 L 670.892,-8.20836 L 671.379,-8.42519 L 671.9,-8.53603
 L 672.433,-8.53603 L 672.955,-8.42519 L 673.442,-8.20836 L 673.873,-7.895 L 674.23,-7.49884 L 674.496,-7.03717
 L 674.661,-6.53017 L 674.717,-6 L 674.717,-0 L 835.783,-0 L 835.783,-6 L 835.839,-6.53017
 L 836.004,-7.03717 L 836.27,-7.49884 L 836.627,-7.895 L 837.058,-8.20836 L 837.545,-8.42519 L 838.067,-8.53603
 L 838.6,-8.53603 L 839.121,-8.42519 L 839.608,-8.20836 L 840.04,-7.895 L 840.396,-7.49884 L 840.663,-7.03717
 L 840.828,-6.53017 L 840.883,-6 L 840.883,-0 L 1001.95,-0 L 1001.95,-6 L 1002.01,-6.53017
 L 1002.17,-7.03717 L 1002.44,-7.49884 L 1002.79,-7.895 L 1003.22,-8.20836 L 1003.71,-8.42519 L 1004.23,-8.53603
 L 1004.77,-8.53603 L 1005.29,-8.42519 L 1005.77,-8.20836 L 1006.21,-7.895 L 1006.56,-7.49884 L 1006.83,-7.03717
 L 1006.99,-6.53017 L 1007.05,-6 L 1007.05,-0 L 1012,-0 z
M 6.98573,-55.607 L 6.47708,-55.6875 L 5.97964,-55.8208 L 5.49887,-56.0054 L 5.04001,-56.2392 L 4.60811,-56.5196
 L 4.20789,-56.8437 L 3.84373,-57.2079 L 3.51964,-57.6081 L 3.23917,-58.04 L 3.00537,-58.4989 L 2.82082,-58.9796
 L 2.68752,-59.4771 L 2.60696,-59.9857 L 2.58,-60.5 L 2.60696,-61.0143 L 2.68752,-61.5229 L 2.82082,-62.0204
 L 3.00537,-62.5011 L 3.23917,-62.96 L 3.51964,-63.3919 L 3.84373,-63.7921 L 4.20789,-64.1563 L 4.60811,-64.4804
 L 4.95001,-64.7024 L 4.95001,-74 L 5.00574,-74.5302 L 5.17047,-75.0372 L 5.43701,-75.4988 L 5.79373,-75.895
 L 6.22501,-76.2084 L 6.71202,-76.4252 L 7.23346,-76.536 L 7.76654,-76.536 L 8.28798,-76.4252 L 8.77499,-76.2084
 L 9.20627,-75.895 L 9.56299,-75.4988 L 9.82953,-75.0372 L 9.99426,-74.5302 L 10.05,-74 L 10.05,-64.7024
 L 10.3919,-64.4804 L 10.7921,-64.1563 L 11.1563,-63.7921 L 11.4804,-63.3919 L 11.7608,-62.96 L 11.9946,-62.5011
 L 12.1792,-62.0204 L 12.3125,-61.5229 L 12.393,-61.0143 L 12.42,-60.5 L 12.393,-59.9857 L 12.3125,-59.4771
 L 12.1792,-58.9796 L 11.9946,-58.4989 L 11.7608,-58.04 L 11.4804,-57.6081 L 11.1563,-57.2079 L 10.7921,-56.8437
 L 10.3919,-56.5196 L 9.95999,-56.2392 L 9.50113,-56.0054 L 9.02036,-55.8208 L 8.52292,-55.6875 L 8.01427,-55.607
 L 7.5,-55.58 z
M 173.152,-55.607 L 172.644,-55.6875 L 172.146,-55.8208 L 171.666,-56.0054 L 171.207,-56.2392 L 170.775,-56.5196
 L 170.375,-56.8437 L 170.01,-57.2079 L 169.686,-57.6081 L 169.406,-58.04 L 169.172,-58.4989 L 168.987,-58.9796
 L 168.854,-59.4771 L 168.774,-59.9857 L 168.747,-60.5 L 168.774,-61.0143 L 168.854,-61.5229 L 168.987,-62.0204
 L 169.172,-62.5011 L 169.406,-62.96 L 169.686,-63.3919 L 170.01,-63.7921 L 170.375,-64.1563 L 170.775,-64.4804
 L 171.117,-64.7024 L 171.117,-74 L 171.172,-74.5302 L 171.337,-75.0372 L 171.604,-75.4988 L 171.96,-75.895
 L 172.392,-76.2084 L 172.879,-76.4252 L 173.4,-76.536 L 173.933,-76.536 L 174.455,-76.4252 L 174.942,-76.2084
 L 175.373,-75.895 L 175.73,-75.4988 L 175.996,-75.0372 L 176.161,-74.5302 L 176.217,-74 L 176.217,-64.7024
 L 176.559,-64.4804 L 176.959,-64.1563 L 177.323,-63.7921 L 177.647,-63.3919 L 177.927,-62.96 L 178.161,-62.5011
 L 178.346,-62.0204 L 178.479,-61.5229 L 178.56,-61.0143 L 178.587,-60.5 L 178.56,-59.9857 L 178.479,-59.4771
 L 178.346,-58.9796 L 178.161,-58.4989 L 177.927,-58.04 L 177.647,-57.6081 L 177.323,-57.2079 L 176.959,-56.8437
 L 176.559,-56.5196 L 176.127,-56.2392 L 175.668,-56.0054 L 175.187,-55.8208 L 174.69,-55.6875 L 174.181,-55.607
 L 173.667,-55.58 z
M 339.319,-55.607 L 338.81,-55.6875 L 338.313,-55.8208 L 337.832,-56.0054 L 337.373,-56.2392 L 336.941,-56.5196
 L 336.541,-56.8437 L 336.177,-57.2079 L 335.853,-57.6081 L 335.572,-58.04 L 335.339,-58.4989 L 335.154,-58.9796
 L 335.021,-59.4771 L 334.94,-59.9857 L 334.913,-60.5 L 334.94,-61.0143 L 335.021,-61.5229 L 335.154,-62.0204
 L 335.339,-62.5011 L 335.572,-62.96 L 335.853,-63.3919 L 336.177,-63.7921 L 336.541,-64.1563 L 336.941,-64.4804
 L 337.283,-64.7024 L 337.283,-74 L 337.339,-74.5302 L 337.504,-75.0372 L 337.77,-75.4988 L 338.127,-75.895
 L 338.558,-76.2084 L 339.045,-76.4252 L 339.567,-76.536 L 340.1,-76.536 L 340.621,-76.4252 L 341.108,-76.2084
 L 341.54,-75.895 L 341.896,-75.4988 L 342.163,-75.0372 L 342.328,-74.5302 L 342.383,-74 L 342.383,-64.7024
 L 342.725,-64.4804 L 343.125,-64.1563 L 343.49,-63.7921 L 343.814,-63.3919 L 344.094,-62.96 L 344.328,-62.5011
 L 344.513,-62.0204 L 344.646,-61.5229 L 344.726,-61.0143 L 344.753,-60.5 L 344.726,-59.9857 L 344.646,-59.4771
 L 344.513,-58.9796 L 344.328,-58.4989 L 344.094,-58.04 L 343.814,-57.6081 L 343.49,-57.2079 L 343.125,-56.8437
 L 342.725,-56.5196 L 342.293,-56.2392 L 341.834,-56.0054 L 341.354,-55.8208 L 340.856,-55.6875 L 340.348,-55.607
 L 339.833,-55.58 z
M 505.486,-55.607 L 504.977,-55.6875 L 504.48,-55.8208 L 503.999,-56.0054 L 503.54,-56.2392 L 503.108,-56.5196
 L 502.708,-56.8437 L 502.344,-57.2079 L 502.02,-57.6081 L 501.739,-58.04 L 501.505,-58.4989 L 501.321,-58.9796
 L 501.188,-59.4771 L 501.107,-59.9857 L 501.08,-60.5 L 501.107,-61.0143 L 501.188,-61.5229 L 501.321,-62.0204
 L 501.505,-62.5011 L 501.739,-62.96 L 502.02,-63.3919 L 502.344,-63.7921 L 502.708,-64.1563 L 503.108,-64.4804
 L 503.45,-64.7024 L 503.45,-74 L 503.506,-74.5302 L 503.67,-75.0372 L 503.937,-75.4988 L 504.294,-75.895
 L 504.725,-76.2084 L 505.212,-76.4252 L 505.733,-76.536 L 506.267,-76.536 L 506.788,-76.4252 L 507.275,-76.2084
 L 507.706,-75.895 L 508.063,-75.4988 L 508.33,-75.0372 L 508.494,-74.5302 L 508.55,-74 L 508.55,-64.7024
 L 508.892,-64.4804 L 509.292,-64.1563 L 509.656,-63.7921 L 509.98,-63.3919 L 510.261,-62.96 L 510.495,-62.5011
 L 510.679,-62.0204 L 510.812,-61.5229 L 510.893,-61.0143 L 510.92,-60.5 L 510.893,-59.9857 L 510.812,-59.4771
 L 510.679,-58.9796 L 510.495,-58.4989 L 510.261,-58.04 L 509.98,-57.6081 L 509.656,-57.2079 L 509.292,-56.8437
 L 508.892,-56.5196 L 508.46,-56.2392 L 508.001,-56.0054 L 507.52,-55.8208 L 507.023,-55.6875 L 506.514,-55.607
 L 506,-55.58 z
M 671.652,-55.607 L 671.144,-55.6875 L 670.646,-55.8208 L 670.166,-56.0054 L 669.707,-56.2392 L 669.275,-56.5196
 L 668.875,-56.8437 L 668.51,-57.2079 L 668.186,-57.6081 L 667.906,-58.04 L 667.672,-58.4989 L 667.487,-58.9796
 L 667.354,-59.4771 L 667.274,-59.9857 L 667.247,-60.5 L 667.274,-61.0143 L 667.354,-61.5229 L 667.487,-62.0204
 L 667.672,-62.5011 L 667.906,-62.96 L 668.186,-63.3919 L 668.51,-63.7921 L 668.875,-64.1563 L 669.275,-64.4804
 L 669.617,-64.7024 L 669.617,-74 L 669.672,-74.5302 L 669.837,-75.0372 L 670.104,-75.4988 L 670.46,-75.895
 L 670.892,-76.2084 L 671.379,-76.4252 L 671.9,-76.536 L 672.433,-76.536 L 672.955,-76.4252 L 673.442,-76.2084
 L 673.873,-75.895 L 674.23,-75.4988 L 674.496,-75.0372 L 674.661,-74.5302 L 674.717,-74 L 674.717,-64.7024
 L 675.059,-64.4804 L 675.459,-64.1563 L 675.823,-63.7921 L 676.147,-63.3919 L 676.427,-62.96 L 676.661,-62.5011
 L 676.846,-62.0204 L 676.979,-61.5229 L 677.06,-61.0143 L 677.087,-60.5 L 677.06,-59.9857 L 676.979,-59.4771
 L 676.846,-58.9796 L 676.661,-58.4989 L 676.427,-58.04 L 676.147,-57.6081 L 675.823,-57.2079 L 675.459,-56.8437
 L 675.059,-56.5196 L 674.627,-56.2392 L 674.168,-56.0054 L 673.687,-55.8208 L 673.19,-55.6875 L 672.681,-55.607
 L 672.167,-55.58 z
M 837.819,-55.607 L 837.31,-55.6875 L 836.813,-55.8208 L 836.332,-56.0054 L 835.873,-56.2392 L 835.441,-56.5196
 L 835.041,-56.8437 L 834.677,-57.2079 L 834.353,-57.6081 L 834.072,-58.04 L 833.839,-58.4989 L 833.654,-58.9796
 L 833.521,-59.4771 L 833.44,-59.9857 L 833.413,-60.5 L 833.44,-61.0143 L 833.521,-61.5229 L 833.654,-62.0204
 L 833.839,-62.5011 L 834.072,-62.96 L 834.353,-63.3919 L 834.677,-63.7921 L 835.041,-64.1563 L 835.441,-64.4804
 L 835.783,-64.7024 L 835.783,-74 L 835.839,-74.5302 L 836.004,-75.0372 L 836.27,-75.4988 L 836.627,-75.895
 L 837.058,-76.2084 L 837.545,-76.4252 L 838.067,-76.536 L 838.6,-76.536 L 839.121,-76.4252 L 839.608,-76.2084
 L 840.04,-75.895 L 840.396,-75.4988 L 840.663,-75.0372 L 840.828,-74.5302 L 840.883,-74 L 840.883,-64.7024
 L 841.225,-64.4804 L 841.625,-64.1563 L 841.99,-63.7921 L 842.314,-63.3919 L 842.594,-62.96 L 842.828,-62.5011
 L 843.013,-62.0204 L 843.146,-61.5229 L 843.226,-61.0143 L 843.253,-60.5 L 843.226,-59.9857 L 843.146,-59.4771
 L 843.013,-58.9796 L 842.828,-58.4989 L 842.594,-58.04 L 842.314,-57.6081 L 841.99,-57.2079 L 841.625,-56.8437
 L 841.225,-56.5196 L 840.793,-56.2392 L 840.334,-56.0054 L 839.854,-55.8208 L 839.356,-55.6875 L 838.848,-55.607
 L 838.333,-55.58 z
M 1003.99,-55.607 L 1003.48,-55.6875 L 1002.98,-55.8208 L 1002.5,-56.0054 L 1002.04,-56.2392 L 1001.61,-56.5196
 L 1001.21,-56.8437 L 1000.84,-57.2079 L 1000.52,-57.6081 L 1000.24,-58.04 L 1000.01,-58.4989 L 999.821,-58.9796
 L 999.688,-59.4771 L 999.607,-59.9857 L 999.58,-60.5 L 999.607,-61.0143 L 999.688,-61.5229 L 999.821,-62.0204
 L 1000.01,-62.5011 L 1000.24,-62.96 L 1000.52,-63.3919 L 1000.84,-63.7921 L 1001.21,-64.1563 L 1001.61,-64.4804
 L 1001.95,-64.7024 L 1001.95,-74 L 1002.01,-74.5302 L 1002.17,-75.0372 L 1002.44,-75.4988 L 1002.79,-75.895
 L 1003.23,-76.2084 L 1003.71,-76.4252 L 1004.23,-76.536 L 1004.77,-76.536 L 1005.29,-76.4252 L 1005.77,-76.2084
 L 1006.21,-75.895 L 1006.56,-75.4988 L 1006.83,-75.0372 L 1006.99,-74.5302 L 1007.05,-74 L 1007.05,-64.7024
 L 1007.39,-64.4804 L 1007.79,-64.1563 L 1008.16,-63.7921 L 1008.48,-63.3919 L 1008.76,-62.96 L 1008.99,-62.5011
 L 1009.18,-62.0204 L 1009.31,-61.5229 L 1009.39,-61.0143 L 1009.42,-60.5 L 1009.39,-59.9857 L 1009.31,-59.4771
 L 1009.18,-58.9796 L 1008.99,-58.4989 L 1008.76,-58.04 L 1008.48,-57.6081 L 1008.16,-57.2079 L 1007.79,-56.8437
 L 1007.39,-56.5196 L 1006.96,-56.2392 L 1006.5,-56.0054 L 1006.02,-55.8208 L 1005.52,-55.6875 L 1005.01,-55.607
 L 1004.5,-55.58 z
M 850.383,-21.4744 L 849.596,-21.7569 L 848.885,-22.1969 L 848.281,-22.7751 L 847.81,-23.4662 L 847.493,-24.2402
 L 847.333,-25.3599 L 847.333,-58 L 847.421,-58.8316 L 847.679,-59.627 L 848.097,-60.3511 L 848.657,-60.9726
 L 849.333,-61.4641 L 850.097,-61.8042 L 851.333,-62 L 931.094,-62 L 931.925,-61.9126 L 932.721,-61.6542
 L 933.445,-61.2361 L 934.066,-60.6765 L 934.558,-60 L 934.898,-59.2361 L 935.072,-58.4181 L 935.072,-57.5819
 L 934.898,-56.7639 L 934.558,-56 L 934.066,-55.3235 L 933.445,-54.7639 L 932.609,-54.298 L 852.848,-21.6579
 L 852.046,-21.4238 L 851.212,-21.3617 z
M 326.121,-21.4238 L 325.318,-21.6579 L 245.558,-54.298 L 244.722,-54.7639 L 244.1,-55.3235 L 243.609,-56
 L 243.269,-56.7639 L 243.095,-57.5819 L 243.095,-58.4181 L 243.269,-59.2361 L 243.609,-60 L 244.1,-60.6765
 L 244.722,-61.2361 L 245.446,-61.6542 L 246.241,-61.9126 L 247.073,-62 L 326.833,-62 L 328.069,-61.8042
 L 328.833,-61.4641 L 329.51,-60.9726 L 330.069,-60.3511 L 330.487,-59.627 L 330.746,-58.8316 L 330.833,-58
 L 330.833,-25.3599 L 330.673,-24.2402 L 330.357,-23.4662 L 329.886,-22.7751 L 329.282,-22.1969 L 328.571,-21.7569
 L 327.784,-21.4744 L 326.955,-21.3617 z
M 159.954,-21.4238 L 159.152,-21.6579 L 79.3914,-54.298 L 78.5552,-54.7639 L 77.9337,-55.3235 L 77.4422,-56
 L 77.1021,-56.7639 L 76.9282,-57.5819 L 76.9282,-58.4181 L 77.1021,-59.2361 L 77.4422,-60 L 77.9337,-60.6765
 L 78.5552,-61.2361 L 79.2794,-61.6542 L 80.0747,-61.9126 L 80.9063,-62 L 160.667,-62 L 161.903,-61.8042
 L 162.667,-61.4641 L 163.343,-60.9726 L 163.903,-60.3511 L 164.321,-59.627 L 164.579,-58.8316 L 164.667,-58
 L 164.667,-25.3599 L 164.507,-24.2402 L 164.19,-23.4662 L 163.719,-22.7751 L 163.115,-22.1969 L 162.404,-21.7569
 L 161.617,-21.4744 L 160.788,-21.3617 z
M 492.288,-21.4238 L 491.485,-21.6579 L 411.725,-54.298 L 410.889,-54.7639 L 410.267,-55.3235 L 409.776,-56
 L 409.435,-56.7639 L 409.262,-57.5819 L 409.262,-58.4181 L 409.435,-59.2361 L 409.776,-60 L 410.267,-60.6765
 L 410.889,-61.2361 L 411.613,-61.6542 L 412.408,-61.9126 L 413.24,-62 L 493,-62 L 494.236,-61.8042
 L 495,-61.4641 L 495.677,-60.9726 L 496.236,-60.3511 L 496.654,-59.627 L 496.913,-58.8316 L 497,-58
 L 497,-25.3599 L 496.84,-24.2402 L 496.523,-23.4662 L 496.053,-22.7751 L 495.449,-22.1969 L 494.737,-21.7569
 L 493.95,-21.4744 L 493.122,-21.3617 z
M 518.05,-21.4744 L 517.263,-21.7569 L 516.551,-22.1969 L 515.947,-22.7751 L 515.477,-23.4662 L 515.16,-24.2402
 L 515,-25.3599 L 515,-58 L 515.087,-58.8316 L 515.346,-59.627 L 515.764,-60.3511 L 516.323,-60.9726
 L 517,-61.4641 L 517.764,-61.8042 L 519,-62 L 598.76,-62 L 599.592,-61.9126 L 600.387,-61.6542
 L 601.111,-61.2361 L 601.733,-60.6765 L 602.224,-60 L 602.565,-59.2361 L 602.738,-58.4181 L 602.738,-57.5819
 L 602.565,-56.7639 L 602.224,-56 L 601.733,-55.3235 L 601.111,-54.7639 L 600.275,-54.298 L 520.515,-21.6579
 L 519.712,-21.4238 L 518.878,-21.3617 z
M 684.216,-21.4744 L 683.429,-21.7569 L 682.718,-22.1969 L 682.114,-22.7751 L 681.643,-23.4662 L 681.327,-24.2402
 L 681.167,-25.3599 L 681.167,-58 L 681.254,-58.8316 L 681.512,-59.627 L 681.931,-60.3511 L 682.49,-60.9726
 L 683.167,-61.4641 L 683.931,-61.8042 L 685.167,-62 L 764.927,-62 L 765.759,-61.9126 L 766.554,-61.6542
 L 767.278,-61.2361 L 767.9,-60.6765 L 768.391,-60 L 768.731,-59.2361 L 768.905,-58.4181 L 768.905,-57.5819
 L 768.731,-56.7639 L 768.391,-56 L 767.9,-55.3235 L 767.278,-54.7639 L 766.442,-54.298 L 686.682,-21.6579
 L 685.879,-21.4238 L 685.045,-21.3617 z
M 186.667,-18 L 185.431,-18.1958 L 184.667,-18.5359 L 183.99,-19.0274 L 183.431,-19.6489 L 183.012,-20.373
 L 182.754,-21.1684 L 182.667,-22 L 182.667,-54.6401 L 182.827,-55.7598 L 183.143,-56.5338 L 183.614,-57.2249
 L 184.218,-57.8031 L 184.929,-58.2431 L 185.716,-58.5256 L 186.545,-58.6383 L 187.379,-58.5762 L 188.182,-58.3421
 L 267.942,-25.702 L 268.778,-25.2361 L 269.4,-24.6765 L 269.891,-24 L 270.231,-23.2361 L 270.405,-22.4181
 L 270.405,-21.5819 L 270.231,-20.7639 L 269.891,-20 L 269.4,-19.3235 L 268.778,-18.7639 L 268.054,-18.3458
 L 267.259,-18.0874 L 266.427,-18 z
M 352.833,-18 L 351.597,-18.1958 L 350.833,-18.5359 L 350.157,-19.0274 L 349.597,-19.6489 L 349.179,-20.373
 L 348.921,-21.1684 L 348.833,-22 L 348.833,-54.6401 L 348.993,-55.7598 L 349.31,-56.5338 L 349.781,-57.2249
 L 350.385,-57.8031 L 351.096,-58.2431 L 351.883,-58.5256 L 352.712,-58.6383 L 353.546,-58.5762 L 354.348,-58.3421
 L 434.109,-25.702 L 434.945,-25.2361 L 435.566,-24.6765 L 436.058,-24 L 436.398,-23.2361 L 436.572,-22.4181
 L 436.572,-21.5819 L 436.398,-20.7639 L 436.058,-20 L 435.566,-19.3235 L 434.945,-18.7639 L 434.221,-18.3458
 L 433.425,-18.0874 L 432.594,-18 z
M 579.406,-18 L 578.575,-18.0874 L 577.779,-18.3458 L 577.055,-18.7639 L 576.434,-19.3235 L 575.942,-20
 L 575.602,-20.7639 L 575.428,-21.5819 L 575.428,-22.4181 L 575.602,-23.2361 L 575.942,-24 L 576.434,-24.6765
 L 577.055,-25.2361 L 577.891,-25.702 L 657.652,-58.3421 L 658.454,-58.5762 L 659.288,-58.6383 L 660.117,-58.5256
 L 660.904,-58.2431 L 661.615,-57.8031 L 662.219,-57.2249 L 662.69,-56.5338 L 663.007,-55.7598 L 663.167,-54.6401
 L 663.167,-22 L 663.079,-21.1684 L 662.821,-20.373 L 662.403,-19.6489 L 661.843,-19.0274 L 661.167,-18.5359
 L 660.403,-18.1958 L 659.167,-18 z
M 745.573,-18 L 744.741,-18.0874 L 743.946,-18.3458 L 743.222,-18.7639 L 742.6,-19.3235 L 742.109,-20
 L 741.769,-20.7639 L 741.595,-21.5819 L 741.595,-22.4181 L 741.769,-23.2361 L 742.109,-24 L 742.6,-24.6765
 L 743.222,-25.2361 L 744.058,-25.702 L 823.818,-58.3421 L 824.621,-58.5762 L 825.455,-58.6383 L 826.284,-58.5256
 L 827.071,-58.2431 L 827.782,-57.8031 L 828.386,-57.2249 L 828.857,-56.5338 L 829.173,-55.7598 L 829.333,-54.6401
 L 829.333,-22 L 829.246,-21.1684 L 828.988,-20.373 L 828.569,-19.6489 L 828.01,-19.0274 L 827.333,-18.5359
 L 826.569,-18.1958 L 825.333,-18 z
M 911.74,-18 L 910.908,-18.0874 L 910.113,-18.3458 L 909.389,-18.7639 L 908.767,-19.3235 L 908.276,-20
 L 907.935,-20.7639 L 907.762,-21.5819 L 907.762,-22.4181 L 907.935,-23.2361 L 908.276,-24 L 908.767,-24.6765
 L 909.389,-25.2361 L 910.225,-25.702 L 988.485,-57.7283 L 989.288,-57.9624 L 990.122,-58.0244 L 990.95,-57.9117
 L 991.737,-57.6292 L 992.449,-57.1893 L 993.053,-56.6111 L 993.523,-55.9199 L 993.84,-55.146 L 994,-54.0263
 L 994,-22 L 993.913,-21.1684 L 993.654,-20.373 L 993.236,-19.6489 L 992.677,-19.0274 L 992,-18.5359
 L 991.236,-18.1958 L 990,-18 z
M 22,-18 L 20.7639,-18.1958 L 20,-18.5359 L 19.3235,-19.0274 L 18.7639,-19.6489 L 18.3458,-20.373
 L 18.0874,-21.1684 L 18,-22 L 18,-54.0263 L 18.1599,-55.146 L 18.4766,-55.9199 L 18.9473,-56.6111
 L 19.5515,-57.1893 L 20.2626,-57.6292 L 21.0497,-57.9117 L 21.8783,-58.0244 L 22.7122,-57.9624 L 23.515,-57.7283
 L 101.775,-25.702 L 102.611,-25.2361 L 103.233,-24.6765 L 103.724,-24 L 104.065,-23.2361 L 104.238,-22.4181
 L 104.238,-21.5819 L 104.065,-20.7639 L 103.724,-20 L 103.233,-19.3235 L 102.611,-18.7639 L 101.887,-18.3458
 L 101.092,-18.0874 L 100.26,-18 z
" stroke="black" fill="lightgray" stroke-width="0.5"/>
</svg>
