<?xml version="1.0" standalone="no"?>
<!DOCTYPE svg PUBLIC "-//W3C//DTD SVG 1.1//EN" "http://www.w3.org/Graphics/SVG/1.1/DTD/svg11.dtd">
<svg width="1666mm" height="80mm" viewBox="0 -80 1666 80" xmlns="http://www.w3.org/2000/svg" version="1.1">
<title>OpenSCAD Model</title>
<path d="
M 1666,-80 L 0,-80 L 0,-0 L 4.95,-0 L 4.95,-6 L 5.00572,-6.53017
 L 5.17046,-7.03717 L 5.437,-7.49884 L 5.79372,-7.895 L 6.22499,-8.20836 L 6.71201,-8.42519 L 7.23344,-8.53603
 L 7.76654,-8.53603 L 8.28798,-8.42519 L 8.77499,-8.20836 L 9.20627,-7.895 L 9.56299,-7.49884 L 9.82953,-7.03717
 L 9.99426,-6.53017 L 10.05,-6 L 10.05,-0 L 188.394,-0 L 188.394,-6 L 188.45,-6.53017
 L 188.615,-7.03717 L 188.881,-7.49884 L 189.238,-7.895 L 189.669,-8.20836 L 190.156,-8.42519 L 190.678,-8.53603
 L 191.211,-8.53603 L 191.732,-8.42519 L 192.219,-8.20836 L 192.651,-7.895 L 193.007,-7.49884 L 193.274,-7.03717
 L 193.439,-6.53017 L 193.494,-6 L 193.494,-0 L 371.839,-0 L 371.839,-6 L 371.895,-6.53017
 L 372.059,-7.03717 L 372.326,-7.49884 L 372.683,-7.895 L 373.114,-8.20836 L 373.601,-8.42519 L 374.122,-8.53603
 L 374.655,-8.53603 L 375.177,-8.42519 L 375.664,-8.20836 L 376.095,-7.895 L 376.452,-7.49884 L 376.718,-7.03717
 L 376.883,-6.53017 L 376.939,-6 L 376.939,-0 L 555.283,-0 L 555.283,-6 L 555.339,-6.53017
 L 555.504,-7.03717 L 555.77,-7.49884 L 556.127,-7.895 L 556.558,-8.20836 L 557.045,-8.42519 L 557.567,-8.53603
 L 558.1,-8.53603 L 558.621,-8.42519 L 559.108,-8.20836 L 559.54,-7.895 L 559.896,-7.49884 L 560.163,-7.03717
 L 560.328,-6.53017 L 560.383,-6 L 560.383,-0 L 738.728,-0 L 738.728,-6 L 738.783,-6.53017
 L 738.948,-7.03717 L 739.215,-7.49884 L 739.571,-7.895 L 740.003,-8.20836 L 740.49,-8.42519 L 741.011,-8.53603
 L 741.544,-8.53603 L 742.066,-8.42519 L 742.553,-8.20836 L 742.984,-7.895 L 743.341,-7.49884 L 743.607,-7.03717
 L 743.772,-6.53017 L 743.828,-6 L 743.828,-0 L 922.172,-0 L 922.172,-6 L 922.228,-6.53017
 L 922.393,-7.03717 L 922.659,-7.49884 L 923.016,-7.895 L 923.447,-8.20836 L 923.934,-8.42519 L 924.456,-8.53603
 L 924.989,-8.53603 L 925.51,-8.42519 L 925.997,-8.20836 L 926.428,-7.895 L 926.785,-7.49884 L 927.052,-7.03717
 L 927.216,-6.53017 L 927.272,-6 L 927.272,-0 L 1105.62,-0 L 1105.62,-6 L 1105.67,-6.53017
 L 1105.84,-7.03717 L 1106.1,-7.49884 L 1106.46,-7.895 L 1106.89,-8.20836 L 1107.38,-8.42519 L 1107.9,-8.53603
 L 1108.43,-8.53603 L 1108.95,-8.42519 L 1109.44,-8.20836 L 1109.87,-7.895 L 1110.23,-7.49884 L 1110.5,-7.03717
 L 1110.66,-6.53017 L 1110.72,-6 L 1110.72,-0 L 1289.06,-0 L 1289.06,-6 L 1289.12,-6.53017
 L 1289.28,-7.03717 L 1289.55,-7.49884 L 1289.9,-7.895 L 1290.34,-8.20836 L 1290.82,-8.42519 L 1291.34,-8.53603
 L 1291.88,-8.53603 L 1292.4,-8.42519 L 1292.89,-8.20836 L 1293.32,-7.895 L 1293.67,-7.49884 L 1293.94,-7.03717
 L 1294.11,-6.53017 L 1294.16,-6 L 1294.16,-0 L 1472.51,-0 L 1472.51,-6 L 1472.56,-6.53017
 L 1472.73,-7.03717 L 1472.99,-7.49884 L 1473.35,-7.895 L 1473.78,-8.20836 L 1474.27,-8.42519 L 1474.79,-8.53603
 L 1475.32,-8.53603 L 1475.84,-8.42519 L 1476.33,-8.20836 L 1476.76,-7.895 L 1477.12,-7.49884 L 1477.39,-7.03717
 L 1477.55,-6.53017 L 1477.61,-6 L 1477.61,-0 L 1655.95,-0 L 1655.95,-6 L 1656.01,-6.53017
 L 1656.17,-7.03717 L 1656.44,-7.49884 L 1656.79,-7.895 L 1657.22,-8.20836 L 1657.71,-8.42519 L 1658.23,-8.53603
 L 1658.77,-8.53603 L 1659.29,-8.42519 L 1659.77,-8.20836 L 1660.21,-7.895 L 1660.56,-7.49884 L 1660.83,-7.03717
 L 1660.99,-6.53017 L 1661.05,-6 L 1661.05,-0 L 1666,-0 z
M 6.98573,-55.607 L 6.47708,-55.6875 L 5.97964,-55.8208 L 5.49887,-56.0054 L 5.04001,-56.2392 L 4.60811,-56.5196
 L 4.20789,-56.8437 L 3.84373,-57.2079 L 3.51964,-57.6081 L 3.23917,-58.04 L 3.00537,-58.4989 L 2.82082,-58.9796
 L 2.68752,-59.4771 L 2.60696,-59.9857 L 2.58,-60.5 L 2.60696,-61.0143 L 2.68752,-61.5229 L 2.82082,-62.0204
 L 3.00537,-62.5011 L 3.23917,-62.96 L 3.51964,-63.3919 L 3.84373,-63.7921 L 4.20789,-64.1563 L 4.60811,-64.4804
 L 4.95001,-64.7024 L 4.95001,-74 L 5.00574,-74.5302 L 5.17047,-75.0372 L 5.43701,-75.4988 L 5.79373,-75.895
 L 6.22501,-76.2084 L 6.71202,-76.4252 L 7.23346,-76.536 L 7.76654,-76.536 L 8.28798,-76.4252 L 8.77499,-76.2084
 L 9.20627,-75.895 L 9.56299,-75.4988 L 9.82953,-75.0372 L 9.99426,-74.5302 L 10.05,-74 L 10.05,-64.7024
 L 10.3919,-64.4804 L 10.7921,-64.1563 L 11.1563,-63.7921 L 11.4804,-63.3919 L 11.7608,-62.96 L 11.9946,-62.5011
 L 12.1792,-62.0204 L 12.3125,-61.5229 L 12.393,-61.0143 L 12.42,-60.5 L 12.393,-59.9857 L 12.3125,-59.4771
 L 12.1792,-58.9796 L 11.9946,-58.4989 L 11.7608,-58.04 L 11.4804,-57.6081 L 11.1563,-57.2079 L 10.7921,-56.8437
 L 10.3919,-56.5196 L 9.95999,-56.2392 L 9.50113,-56.0054 L 9.02036,-55.8208 L 8.52292,-55.6875 L 8.01427,-55.607
 L 7.5,-55.58 z
M 1107.65,-55.607 L 1107.14,-55.6875 L 1106.65,-55.8208 L 1106.17,-56.0054 L 1105.71,-56.2392 L 1105.27,-56.5196
 L 1104.87,-56.8437 L 1104.51,-57.2079 L 1104.19,-57.6081 L 1103.91,-58.04 L 1103.67,-58.4989 L 1103.49,-58.9796
 L 1103.35,-59.4771 L 1103.27,-59.9857 L 1103.25,-60.5 L 1103.27,-61.0143 L 1103.35,-61.5229 L 1103.49,-62.0204
 L 1103.67,-62.5011 L 1103.91,-62.96 L 1104.19,-63.3919 L 1104.51,-63.7921 L 1104.87,-64.1563 L 1105.27,-64.4804
 L 1105.62,-64.7024 L 1105.62,-74 L 1105.67,-74.5302 L 1105.84,-75.0372 L 1106.1,-75.4988 L 1106.46,-75.895
 L 1106.89,-76.2084 L 1107.38,-76.4252 L 1107.9,-76.536 L 1108.43,-76.536 L 1108.95,-76.4252 L 1109.44,-76.2084
 L 1109.87,-75.895 L 1110.23,-75.4988 L 1110.5,-75.0372 L 1110.66,-74.5302 L 1110.72,-74 L 1110.72,-64.7024
 L 1111.06,-64.4804 L 1111.46,-64.1563 L 1111.82,-63.7921 L 1112.15,-63.3919 L 1112.43,-62.96 L 1112.66,-62.5011
 L 1112.85,-62.0204 L 1112.98,-61.5229 L 1113.06,-61.0143 L 1113.09,-60.5 L 1113.06,-59.9857 L 1112.98,-59.4771
 L 1112.85,-58.9796 L 1112.66,-58.4989 L 1112.43,-58.04 L 1112.15,-57.6081 L 1111.82,-57.2079 L 1111.46,-56.8437
 L 1111.06,-56.5196 L 1110.63,-56.2392 L 1110.17,-56.0054 L 1109.69,-55.8208 L 1109.19,-55.6875 L 1108.68,-55.607
 L 1108.17,-55.58 z
M 1291.1,-55.607 L 1290.59,-55.6875 L 1290.09,-55.8208 L 1289.61,-56.0054 L 1289.15,-56.2392 L 1288.72,-56.5196
 L 1288.32,-56.8437 L 1287.95,-57.2079 L 1287.63,-57.6081 L 1287.35,-58.04 L 1287.12,-58.4989 L 1286.93,-58.9796
 L 1286.8,-59.4771 L 1286.72,-59.9857 L 1286.69,-60.5 L 1286.72,-61.0143 L 1286.8,-61.5229 L 1286.93,-62.0204
 L 1287.12,-62.5011 L 1287.35,-62.96 L 1287.63,-63.3919 L 1287.95,-63.7921 L 1288.32,-64.1563 L 1288.72,-64.4804
 L 1289.06,-64.7024 L 1289.06,-74 L 1289.12,-74.5302 L 1289.28,-75.0372 L 1289.55,-75.4988 L 1289.9,-75.895
 L 1290.34,-76.2084 L 1290.82,-76.4252 L 1291.34,-76.536 L 1291.88,-76.536 L 1292.4,-76.4252 L 1292.89,-76.2084
 L 1293.32,-75.895 L 1293.67,-75.4988 L 1293.94,-75.0372 L 1294.11,-74.5302 L 1294.16,-74 L 1294.16,-64.7024
 L 1294.5,-64.4804 L 1294.9,-64.1563 L 1295.27,-63.7921 L 1295.59,-63.3919 L 1295.87,-62.96 L 1296.11,-62.5011
 L 1296.29,-62.0204 L 1296.42,-61.5229 L 1296.5,-61.0143 L 1296.53,-60.5 L 1296.5,-59.9857 L 1296.42,-59.4771
 L 1296.29,-58.9796 L 1296.11,-58.4989 L 1295.87,-58.04 L 1295.59,-57.6081 L 1295.27,-57.2079 L 1294.9,-56.8437
 L 1294.5,-56.5196 L 1294.07,-56.2392 L 1293.61,-56.0054 L 1293.13,-55.8208 L 1292.63,-55.6875 L 1292.13,-55.607
 L 1291.61,-55.58 z
M 924.208,-55.607 L 923.699,-55.6875 L 923.202,-55.8208 L 922.721,-56.0054 L 922.262,-56.2392 L 921.83,-56.5196
 L 921.43,-56.8437 L 921.066,-57.2079 L 920.742,-57.6081 L 920.461,-58.04 L 920.228,-58.4989 L 920.043,-58.9796
 L 919.91,-59.4771 L 919.829,-59.9857 L 919.802,-60.5 L 919.829,-61.0143 L 919.91,-61.5229 L 920.043,-62.0204
 L 920.228,-62.5011 L 920.461,-62.96 L 920.742,-63.3919 L 921.066,-63.7921 L 921.43,-64.1563 L 921.83,-64.4804
 L 922.172,-64.7024 L 922.172,-74 L 922.228,-74.5302 L 922.393,-75.0372 L 922.659,-75.4988 L 923.016,-75.895
 L 923.447,-76.2084 L 923.934,-76.4252 L 924.456,-76.536 L 924.989,-76.536 L 925.51,-76.4252 L 925.997,-76.2084
 L 926.428,-75.895 L 926.785,-75.4988 L 927.052,-75.0372 L 927.216,-74.5302 L 927.272,-74 L 927.272,-64.7024
 L 927.614,-64.4804 L 928.014,-64.1563 L 928.378,-63.7921 L 928.703,-63.3919 L 928.983,-62.96 L 929.217,-62.5011
 L 929.401,-62.0204 L 929.535,-61.5229 L 929.615,-61.0143 L 929.642,-60.5 L 929.615,-59.9857 L 929.535,-59.4771
 L 929.401,-58.9796 L 929.217,-58.4989 L 928.983,-58.04 L 928.703,-57.6081 L 928.378,-57.2079 L 928.014,-56.8437
 L 927.614,-56.5196 L 927.182,-56.2392 L 926.723,-56.0054 L 926.243,-55.8208 L 925.745,-55.6875 L 925.236,-55.607
 L 924.722,-55.58 z
M 740.764,-55.607 L 740.255,-55.6875 L 739.757,-55.8208 L 739.277,-56.0054 L 738.818,-56.2392 L 738.386,-56.5196
 L 737.986,-56.8437 L 737.622,-57.2079 L 737.297,-57.6081 L 737.017,-58.04 L 736.783,-58.4989 L 736.599,-58.9796
 L 736.465,-59.4771 L 736.385,-59.9857 L 736.358,-60.5 L 736.385,-61.0143 L 736.465,-61.5229 L 736.599,-62.0204
 L 736.783,-62.5011 L 737.017,-62.96 L 737.297,-63.3919 L 737.622,-63.7921 L 737.986,-64.1563 L 738.386,-64.4804
 L 738.728,-64.7024 L 738.728,-74 L 738.784,-74.5302 L 738.948,-75.0372 L 739.215,-75.4988 L 739.572,-75.895
 L 740.003,-76.2084 L 740.49,-76.4252 L 741.011,-76.536 L 741.544,-76.536 L 742.066,-76.4252 L 742.553,-76.2084
 L 742.984,-75.895 L 743.341,-75.4988 L 743.607,-75.0372 L 743.772,-74.5302 L 743.828,-74 L 743.828,-64.7024
 L 744.17,-64.4804 L 744.57,-64.1563 L 744.934,-63.7921 L 745.258,-63.3919 L 745.539,-62.96 L 745.772,-62.5011
 L 745.957,-62.0204 L 746.09,-61.5229 L 746.171,-61.0143 L 746.198,-60.5 L 746.171,-59.9857 L 746.09,-59.4771
 L 745.957,-58.9796 L 745.772,-58.4989 L 745.539,-58.04 L 745.258,-57.6081 L 744.934,-57.2079 L 744.57,-56.8437
 L 744.17,-56.5196 L 743.738,-56.2392 L 743.279,-56.0054 L 742.798,-55.8208 L 742.301,-55.6875 L 741.792,-55.607
 L 741.278,-55.58 z
M 1474.54,-55.607 L 1474.03,-55.6875 L 1473.54,-55.8208 L 1473.05,-56.0054 L 1472.6,-56.2392 L 1472.16,-56.5196
 L 1471.76,-56.8437 L 1471.4,-57.2079 L 1471.08,-57.6081 L 1470.79,-58.04 L 1470.56,-58.4989 L 1470.38,-58.9796
 L 1470.24,-59.4771 L 1470.16,-59.9857 L 1470.14,-60.5 L 1470.16,-61.0143 L 1470.24,-61.5229 L 1470.38,-62.0204
 L 1470.56,-62.5011 L 1470.79,-62.96 L 1471.08,-63.3919 L 1471.4,-63.7921 L 1471.76,-64.1563 L 1472.16,-64.4804
 L 1472.51,-64.7024 L 1472.51,-74 L 1472.56,-74.5302 L 1472.73,-75.0372 L 1472.99,-75.4988 L 1473.35,-75.895
 L 1473.78,-76.2084 L 1474.27,-76.4252 L 1474.79,-76.536 L 1475.32,-76.536 L 1475.84,-76.4252 L 1476.33,-76.2084
 L 1476.76,-75.895 L 1477.12,-75.4988 L 1477.39,-75.0372 L 1477.55,-74.5302 L 1477.61,-74 L 1477.61,-64.7024
 L 1477.95,-64.4804 L 1478.35,-64.1563 L 1478.71,-63.7921 L 1479.04,-63.3919 L 1479.32,-62.96 L 1479.55,-62.5011
 L 1479.73,-62.0204 L 1479.87,-61.5229 L 1479.95,-61.0143 L 1479.98,-60.5 L 1479.95,-59.9857 L 1479.87,-59.4771
 L 1479.73,-58.9796 L 1479.55,-58.4989 L 1479.32,-58.04 L 1479.04,-57.6081 L 1478.71,-57.2079 L 1478.35,-56.8437
 L 1477.95,-56.5196 L 1477.52,-56.2392 L 1477.06,-56.0054 L 1476.58,-55.8208 L 1476.08,-55.6875 L 1475.57,-55.607
 L 1475.06,-55.58 z
M 557.319,-55.607 L 556.81,-55.6875 L 556.313,-55.8208 L 555.832,-56.0054 L 555.373,-56.2392 L 554.941,-56.5196
 L 554.541,-56.8437 L 554.177,-57.2079 L 553.853,-57.6081 L 553.572,-58.04 L 553.339,-58.4989 L 553.154,-58.9796
 L 553.021,-59.4771 L 552.94,-59.9857 L 552.913,-60.5 L 552.94,-61.0143 L 553.021,-61.5229 L 553.154,-62.0204
 L 553.339,-62.5011 L 553.572,-62.96 L 553.853,-63.3919 L 554.177,-63.7921 L 554.541,-64.1563 L 554.941,-64.4804
 L 555.283,-64.7024 L 555.283,-74 L 555.339,-74.5302 L 555.504,-75.0372 L 555.77,-75.4988 L 556.127,-75.895
 L 556.558,-76.2084 L 557.045,-76.4252 L 557.567,-76.536 L 558.1,-76.536 L 558.621,-76.4252 L 559.108,-76.2084
 L 559.54,-75.895 L 559.896,-75.4988 L 560.163,-75.0372 L 560.328,-74.5302 L 560.383,-74 L 560.383,-64.7024
 L 560.725,-64.4804 L 561.125,-64.1563 L 561.49,-63.7921 L 561.814,-63.3919 L 562.094,-62.96 L 562.328,-62.5011
 L 562.513,-62.0204 L 562.646,-61.5229 L 562.726,-61.0143 L 562.753,-60.5 L 562.726,-59.9857 L 562.646,-59.4771
 L 562.513,-58.9796 L 562.328,-58.4989 L 562.094,-58.04 L 561.814,-57.6081 L 561.49,-57.2079 L 561.125,-56.8437
 L 560.725,-56.5196 L 560.293,-56.2392 L 559.834,-56.0054 L 559.354,-55.8208 L 558.856,-55.6875 L 558.348,-55.607
 L 557.833,-55.58 z
M 373.875,-55.607 L 373.366,-55.6875 L 372.869,-55.8208 L 372.388,-56.0054 L 371.929,-56.2392 L 371.497,-56.5196
 L 371.097,-56.8437 L 370.733,-57.2079 L 370.409,-57.6081 L 370.128,-58.04 L 369.894,-58.4989 L 369.71,-58.9796
 L 369.576,-59.4771 L 369.496,-59.9857 L 369.469,-60.5 L 369.496,-61.0143 L 369.576,-61.5229 L 369.71,-62.0204
 L 369.894,-62.5011 L 370.128,-62.96 L 370.409,-63.3919 L 370.733,-63.7921 L 371.097,-64.1563 L 371.497,-64.4804
 L 371.839,-64.7024 L 371.839,-74 L 371.895,-74.5302 L 372.059,-75.0372 L 372.326,-75.4988 L 372.683,-75.895
 L 373.114,-76.2084 L 373.601,-76.4252 L 374.122,-76.536 L 374.655,-76.536 L 375.177,-76.4252 L 375.664,-76.2084
 L 376.095,-75.895 L 376.452,-75.4988 L 376.718,-75.0372 L 376.883,-74.5302 L 376.939,-74 L 376.939,-64.7024
 L 377.281,-64.4804 L 377.681,-64.1563 L 378.045,-63.7921 L 378.369,-63.3919 L 378.65,-62.96 L 378.884,-62.5011
 L 379.068,-62.0204 L 379.201,-61.5229 L 379.282,-61.0143 L 379.309,-60.5 L 379.282,-59.9857 L 379.201,-59.4771
 L 379.068,-58.9796 L 378.884,-58.4989 L 378.65,-58.04 L 378.369,-57.6081 L 378.045,-57.2079 L 377.681,-56.8437
 L 377.281,-56.5196 L 376.849,-56.2392 L 376.39,-56.0054 L 375.909,-55.8208 L 375.412,-55.6875 L 374.903,-55.607
 L 374.389,-55.58 z
M 1657.99,-55.607 L 1657.48,-55.6875 L 1656.98,-55.8208 L 1656.5,-56.0054 L 1656.04,-56.2392 L 1655.61,-56.5196
 L 1655.21,-56.8437 L 1654.84,-57.2079 L 1654.52,-57.6081 L 1654.24,-58.04 L 1654.01,-58.4989 L 1653.82,-58.9796
 L 1653.69,-59.4771 L 1653.61,-59.9857 L 1653.58,-60.5 L 1653.61,-61.0143 L 1653.69,-61.5229 L 1653.82,-62.0204
 L 1654.01,-62.5011 L 1654.24,-62.96 L 1654.52,-63.3919 L 1654.84,-63.7921 L 1655.21,-64.1563 L 1655.61,-64.4804
 L 1655.95,-64.7024 L 1655.95,-74 L 1656.01,-74.5302 L 1656.17,-75.0372 L 1656.44,-75.4988 L 1656.79,-75.895
 L 1657.23,-76.2084 L 1657.71,-76.4252 L 1658.23,-76.536 L 1658.77,-76.536 L 1659.29,-76.4252 L 1659.77,-76.2084
 L 1660.21,-75.895 L 1660.56,-75.4988 L 1660.83,-75.0372 L 1660.99,-74.5302 L 1661.05,-74 L 1661.05,-64.7024
 L 1661.39,-64.4804 L 1661.79,-64.1563 L 1662.16,-63.7921 L 1662.48,-63.3919 L 1662.76,-62.96 L 1662.99,-62.5011
 L 1663.18,-62.0204 L 1663.31,-61.5229 L 1663.39,-61.0143 L 1663.42,-60.5 L 1663.39,-59.9857 L 1663.31,-59.4771
 L 1663.18,-58.9796 L 1662.99,-58.4989 L 1662.76,-58.04 L 1662.48,-57.6081 L 1662.16,-57.2079 L 1661.79,-56.8437
 L 1661.39,-56.5196 L 1660.96,-56.2392 L 1660.5,-56.0054 L 1660.02,-55.8208 L 1659.52,-55.6875 L 1659.01,-55.607
 L 1658.5,-55.58 z
M 190.43,-55.607 L 189.922,-55.6875 L 189.424,-55.8208 L 188.943,-56.0054 L 188.484,-56.2392 L 188.053,-56.5196
 L 187.652,-56.8437 L 187.288,-57.2079 L 186.964,-57.6081 L 186.684,-58.04 L 186.45,-58.4989 L 186.265,-58.9796
 L 186.132,-59.4771 L 186.051,-59.9857 L 186.024,-60.5 L 186.051,-61.0143 L 186.132,-61.5229 L 186.265,-62.0204
 L 186.45,-62.5011 L 186.684,-62.96 L 186.964,-63.3919 L 187.288,-63.7921 L 187.652,-64.1563 L 188.053,-64.4804
 L 188.394,-64.7024 L 188.394,-74 L 188.45,-74.5302 L 188.615,-75.0372 L 188.881,-75.4988 L 189.238,-75.895
 L 189.669,-76.2084 L 190.156,-76.4252 L 190.678,-76.536 L 191.211,-76.536 L 191.732,-76.4252 L 192.219,-76.2084
 L 192.651,-75.895 L 193.007,-75.4988 L 193.274,-75.0372 L 193.439,-74.5302 L 193.494,-74 L 193.494,-64.7024
 L 193.836,-64.4804 L 194.237,-64.1563 L 194.601,-63.7921 L 194.925,-63.3919 L 195.205,-62.96 L 195.439,-62.5011
 L 195.624,-62.0204 L 195.757,-61.5229 L 195.837,-61.0143 L 195.864,-60.5 L 195.837,-59.9857 L 195.757,-59.4771
 L 195.624,-58.9796 L 195.439,-58.4989 L 195.205,-58.04 L 194.925,-57.6081 L 194.601,-57.2079 L 194.237,-56.8437
 L 193.836,-56.5196 L 193.404,-56.2392 L 192.946,-56.0054 L 192.465,-55.8208 L 191.967,-55.6875 L 191.459,-55.607
 L 190.944,-55.58 z
M 1120.09,-20.8202 L 1119.31,-21.1289 L 1118.61,-21.5924 L 1118.03,-22.1905 L 1117.58,-22.897 L 1117.29,-23.6811
 L 1117.17,-24.6717 L 1117.17,-58 L 1117.25,-58.8316 L 1117.51,-59.627 L 1117.93,-60.3511 L 1118.49,-60.9726
 L 1119.17,-61.4641 L 1119.93,-61.8042 L 1121.17,-62 L 1211.08,-62 L 1211.91,-61.9126 L 1212.7,-61.6542
 L 1213.43,-61.2361 L 1214.05,-60.6765 L 1214.54,-60 L 1214.88,-59.2361 L 1215.05,-58.4181 L 1215.05,-57.5819
 L 1214.88,-56.7639 L 1214.54,-56 L 1214.05,-55.3235 L 1213.43,-54.7639 L 1212.47,-54.2494 L 1122.56,-20.9211
 L 1121.75,-20.714 L 1120.91,-20.6799 z
M 936.642,-20.8202 L 935.865,-21.1289 L 935.169,-21.5924 L 934.585,-22.1905 L 934.137,-22.897 L 933.847,-23.6811
 L 933.722,-24.6717 L 933.722,-58 L 933.81,-58.8316 L 934.068,-59.627 L 934.486,-60.3511 L 935.046,-60.9726
 L 935.722,-61.4641 L 936.486,-61.8042 L 937.722,-62 L 1027.63,-62 L 1028.46,-61.9126 L 1029.26,-61.6542
 L 1029.98,-61.2361 L 1030.6,-60.6765 L 1031.1,-60 L 1031.44,-59.2361 L 1031.61,-58.4181 L 1031.61,-57.5819
 L 1031.44,-56.7639 L 1031.1,-56 L 1030.6,-55.3235 L 1029.98,-54.7639 L 1029.02,-54.2494 L 939.113,-20.9211
 L 938.302,-20.714 L 937.467,-20.6799 z
M 832.42,-47.7639 L 831.61,-47.971 L 814.672,-54.2494 L 813.712,-54.7639 L 813.09,-55.3235 L 812.599,-56
 L 812.259,-56.7639 L 812.085,-57.5819 L 812.085,-58.4181 L 812.259,-59.2361 L 812.599,-60 L 813.09,-60.6765
 L 813.712,-61.2361 L 814.436,-61.6542 L 815.231,-61.9126 L 816.063,-62 L 849.937,-62 L 851.017,-61.8515
 L 851.794,-61.5428 L 852.49,-61.0793 L 853.075,-60.4812 L 853.522,-59.7747 L 853.813,-58.9906 L 853.934,-58.1632
 L 853.88,-57.3287 L 853.655,-56.5235 L 853.267,-55.7829 L 852.733,-55.1391 L 852.077,-54.6204 L 851.327,-54.2494
 L 834.39,-47.971 L 833.255,-47.7298 z
M 727.698,-20.714 L 726.887,-20.9211 L 636.977,-54.2494 L 636.017,-54.7639 L 635.395,-55.3235 L 634.904,-56
 L 634.563,-56.7639 L 634.39,-57.5819 L 634.39,-58.4181 L 634.563,-59.2361 L 634.904,-60 L 635.395,-60.6765
 L 636.017,-61.2361 L 636.741,-61.6542 L 637.536,-61.9126 L 638.368,-62 L 728.278,-62 L 729.514,-61.8042
 L 730.278,-61.4641 L 730.954,-60.9726 L 731.514,-60.3511 L 731.932,-59.627 L 732.19,-58.8316 L 732.278,-58
 L 732.278,-24.6717 L 732.153,-23.6811 L 731.863,-22.897 L 731.415,-22.1905 L 730.831,-21.5924 L 730.135,-21.1289
 L 729.358,-20.8202 L 728.533,-20.6799 z
M 544.253,-20.714 L 543.443,-20.9211 L 453.533,-54.2494 L 452.572,-54.7639 L 451.951,-55.3235 L 451.459,-56
 L 451.119,-56.7639 L 450.945,-57.5819 L 450.945,-58.4181 L 451.119,-59.2361 L 451.459,-60 L 451.951,-60.6765
 L 452.572,-61.2361 L 453.296,-61.6542 L 454.092,-61.9126 L 454.923,-62 L 544.833,-62 L 546.069,-61.8042
 L 546.833,-61.4641 L 547.51,-60.9726 L 548.069,-60.3511 L 548.488,-59.627 L 548.746,-58.8316 L 548.833,-58
 L 548.833,-24.6717 L 548.709,-23.6811 L 548.418,-22.897 L 547.971,-22.1905 L 547.386,-21.5924 L 546.69,-21.1289
 L 545.913,-20.8202 L 545.089,-20.6799 z
M 360.809,-20.714 L 359.999,-20.9211 L 270.089,-54.2494 L 269.128,-54.7639 L 268.506,-55.3235 L 268.015,-56
 L 267.675,-56.7639 L 267.501,-57.5819 L 267.501,-58.4181 L 267.675,-59.2361 L 268.015,-60 L 268.506,-60.6765
 L 269.128,-61.2361 L 269.852,-61.6542 L 270.647,-61.9126 L 271.479,-62 L 361.389,-62 L 362.625,-61.8042
 L 363.389,-61.4641 L 364.065,-60.9726 L 364.625,-60.3511 L 365.043,-59.627 L 365.301,-58.8316 L 365.389,-58
 L 365.389,-24.6717 L 365.264,-23.6811 L 364.974,-22.897 L 364.526,-22.1905 L 363.942,-21.5924 L 363.246,-21.1289
 L 362.469,-20.8202 L 361.644,-20.6799 z
M 1486.98,-20.8202 L 1486.2,-21.1289 L 1485.5,-21.5924 L 1484.92,-22.1905 L 1484.47,-22.897 L 1484.18,-23.6811
 L 1484.06,-24.6717 L 1484.06,-58 L 1484.14,-58.8316 L 1484.4,-59.627 L 1484.82,-60.3511 L 1485.38,-60.9726
 L 1486.06,-61.4641 L 1486.82,-61.8042 L 1488.06,-62 L 1577.97,-62 L 1578.8,-61.9126 L 1579.59,-61.6542
 L 1580.32,-61.2361 L 1580.94,-60.6765 L 1581.43,-60 L 1581.77,-59.2361 L 1581.94,-58.4181 L 1581.94,-57.5819
 L 1581.77,-56.7639 L 1581.43,-56 L 1580.94,-55.3235 L 1580.32,-54.7639 L 1579.36,-54.2494 L 1489.45,-20.9211
 L 1488.64,-20.714 L 1487.8,-20.6799 z
M 177.364,-20.714 L 176.554,-20.9211 L 86.6441,-54.2494 L 85.6832,-54.7639 L 85.0618,-55.3235 L 84.5703,-56
 L 84.2301,-56.7639 L 84.0563,-57.5819 L 84.0563,-58.4181 L 84.2301,-59.2361 L 84.5703,-60 L 85.0618,-60.6765
 L 85.6832,-61.2361 L 86.4074,-61.6542 L 87.2027,-61.9126 L 88.0344,-62 L 177.944,-62 L 179.181,-61.8042
 L 179.944,-61.4641 L 180.621,-60.9726 L 181.181,-60.3511 L 181.599,-59.627 L 181.857,-58.8316 L 181.944,-58
 L 181.944,-24.6717 L 181.82,-23.6811 L 181.529,-22.897 L 181.082,-22.1905 L 180.497,-21.5924 L 179.801,-21.1289
 L 179.024,-20.8202 L 178.2,-20.6799 z
M 1303.53,-20.8202 L 1302.75,-21.1289 L 1302.06,-21.5924 L 1301.47,-22.1905 L 1301.03,-22.897 L 1300.74,-23.6811
 L 1300.61,-24.6717 L 1300.61,-58 L 1300.7,-58.8316 L 1300.96,-59.627 L 1301.38,-60.3511 L 1301.93,-60.9726
 L 1302.61,-61.4641 L 1303.38,-61.8042 L 1304.61,-62 L 1394.52,-62 L 1395.35,-61.9126 L 1396.15,-61.6542
 L 1396.87,-61.2361 L 1397.49,-60.6765 L 1397.99,-60 L 1398.33,-59.2361 L 1398.5,-58.4181 L 1398.5,-57.5819
 L 1398.33,-56.7639 L 1397.99,-56 L 1397.49,-55.3235 L 1396.87,-54.7639 L 1395.91,-54.2494 L 1306,-20.9211
 L 1305.19,-20.714 L 1304.36,-20.6799 z
M 753.86,-18.5625 L 753.042,-18.7363 L 752.278,-19.0764 L 751.601,-19.568 L 751.042,-20.1894 L 750.624,-20.9136
 L 750.365,-21.7089 L 750.278,-22.5405 L 750.278,-57.4595 L 750.402,-58.4501 L 750.693,-59.2342 L 751.14,-59.9407
 L 751.725,-60.5388 L 752.421,-61.0023 L 753.198,-61.311 L 754.022,-61.4513 L 754.858,-61.4172 L 755.668,-61.2101
 L 802.769,-43.7506 L 803.235,-43.5428 L 803.931,-43.0793 L 804.516,-42.4812 L 804.963,-41.7747 L 805.254,-40.9906
 L 805.375,-40.1632 L 805.322,-39.3287 L 805.096,-38.5235 L 804.708,-37.7829 L 804.174,-37.1391 L 803.518,-36.6204
 L 802.769,-36.2494 L 755.668,-18.7899 L 754.696,-18.5625 z
M 911.142,-18.5828 L 910.332,-18.7899 L 863.231,-36.2494 L 862.765,-36.4572 L 862.069,-36.9207 L 861.484,-37.5188
 L 861.037,-38.2253 L 860.746,-39.0094 L 860.625,-39.8368 L 860.678,-40.6713 L 860.904,-41.4765 L 861.292,-42.2171
 L 861.826,-42.8609 L 862.482,-43.3796 L 863.231,-43.7506 L 910.332,-61.2101 L 911.304,-61.4376 L 912.14,-61.4376
 L 912.958,-61.2637 L 913.722,-60.9236 L 914.399,-60.4321 L 914.958,-59.8106 L 915.376,-59.0864 L 915.635,-58.2911
 L 915.722,-57.4595 L 915.722,-22.5405 L 915.598,-21.5499 L 915.307,-20.7658 L 914.86,-20.0593 L 914.275,-19.4612
 L 913.579,-18.9977 L 912.802,-18.689 L 911.978,-18.5487 z
M 203.944,-18 L 202.708,-18.1958 L 201.944,-18.5359 L 201.268,-19.0274 L 200.708,-19.6489 L 200.29,-20.373
 L 200.032,-21.1684 L 199.944,-22 L 199.944,-55.3282 L 200.069,-56.3189 L 200.36,-57.103 L 200.807,-57.8095
 L 201.391,-58.4076 L 202.087,-58.8711 L 202.865,-59.1797 L 203.689,-59.3201 L 204.525,-59.2859 L 205.335,-59.0789
 L 295.245,-25.7506 L 296.206,-25.2361 L 296.827,-24.6765 L 297.319,-24 L 297.659,-23.2361 L 297.833,-22.4181
 L 297.833,-21.5819 L 297.659,-20.7639 L 297.319,-20 L 296.827,-19.3235 L 296.206,-18.7639 L 295.481,-18.3458
 L 294.686,-18.0874 L 293.854,-18 z
M 387.389,-18 L 386.153,-18.1958 L 385.389,-18.5359 L 384.712,-19.0274 L 384.153,-19.6489 L 383.735,-20.373
 L 383.476,-21.1684 L 383.389,-22 L 383.389,-55.3282 L 383.513,-56.3189 L 383.804,-57.103 L 384.251,-57.8095
 L 384.836,-58.4076 L 385.532,-58.8711 L 386.309,-59.1797 L 387.133,-59.3201 L 387.969,-59.2859 L 388.779,-59.0789
 L 478.689,-25.7506 L 479.65,-25.2361 L 480.271,-24.6765 L 480.763,-24 L 481.103,-23.2361 L 481.277,-22.4181
 L 481.277,-21.5819 L 481.103,-20.7639 L 480.763,-20 L 480.271,-19.3235 L 479.65,-18.7639 L 478.926,-18.3458
 L 478.131,-18.0874 L 477.299,-18 z
M 570.833,-18 L 569.597,-18.1958 L 568.833,-18.5359 L 568.157,-19.0274 L 567.597,-19.6489 L 567.179,-20.373
 L 566.921,-21.1684 L 566.833,-22 L 566.833,-55.3282 L 566.958,-56.3189 L 567.249,-57.103 L 567.696,-57.8095
 L 568.28,-58.4076 L 568.976,-58.8711 L 569.754,-59.1797 L 570.578,-59.3201 L 571.413,-59.2859 L 572.224,-59.0789
 L 662.134,-25.7506 L 663.094,-25.2361 L 663.716,-24.6765 L 664.207,-24 L 664.548,-23.2361 L 664.721,-22.4181
 L 664.721,-21.5819 L 664.548,-20.7639 L 664.207,-20 L 663.716,-19.3235 L 663.094,-18.7639 L 662.37,-18.3458
 L 661.575,-18.0874 L 660.743,-18 z
M 1005.26,-18 L 1004.42,-18.0874 L 1003.63,-18.3458 L 1002.91,-18.7639 L 1002.28,-19.3235 L 1001.79,-20
 L 1001.45,-20.7639 L 1001.28,-21.5819 L 1001.28,-22.4181 L 1001.45,-23.2361 L 1001.79,-24 L 1002.28,-24.6765
 L 1002.91,-25.2361 L 1003.87,-25.7506 L 1093.78,-59.0789 L 1094.59,-59.2859 L 1095.42,-59.3201 L 1096.25,-59.1797
 L 1097.02,-58.8711 L 1097.72,-58.4076 L 1098.3,-57.8095 L 1098.75,-57.103 L 1099.04,-56.3189 L 1099.17,-55.3282
 L 1099.17,-22 L 1099.08,-21.1684 L 1098.82,-20.373 L 1098.4,-19.6489 L 1097.84,-19.0274 L 1097.17,-18.5359
 L 1096.4,-18.1958 L 1095.17,-18 z
M 1188.7,-18 L 1187.87,-18.0874 L 1187.07,-18.3458 L 1186.35,-18.7639 L 1185.73,-19.3235 L 1185.24,-20
 L 1184.9,-20.7639 L 1184.72,-21.5819 L 1184.72,-22.4181 L 1184.9,-23.2361 L 1185.24,-24 L 1185.73,-24.6765
 L 1186.35,-25.2361 L 1187.31,-25.7506 L 1277.22,-59.0789 L 1278.03,-59.2859 L 1278.87,-59.3201 L 1279.69,-59.1797
 L 1280.47,-58.8711 L 1281.16,-58.4076 L 1281.75,-57.8095 L 1282.2,-57.103 L 1282.49,-56.3189 L 1282.61,-55.3282
 L 1282.61,-22 L 1282.52,-21.1684 L 1282.27,-20.373 L 1281.85,-19.6489 L 1281.29,-19.0274 L 1280.61,-18.5359
 L 1279.85,-18.1958 L 1278.61,-18 z
M 1372.15,-18 L 1371.31,-18.0874 L 1370.52,-18.3458 L 1369.79,-18.7639 L 1369.17,-19.3235 L 1368.68,-20
 L 1368.34,-20.7639 L 1368.17,-21.5819 L 1368.17,-22.4181 L 1368.34,-23.2361 L 1368.68,-24 L 1369.17,-24.6765
 L 1369.79,-25.2361 L 1370.76,-25.7506 L 1460.67,-59.0789 L 1461.48,-59.2859 L 1462.31,-59.3201 L 1463.14,-59.1797
 L 1463.91,-58.8711 L 1464.61,-58.4076 L 1465.19,-57.8095 L 1465.64,-57.103 L 1465.93,-56.3189 L 1466.06,-55.3282
 L 1466.06,-22 L 1465.97,-21.1684 L 1465.71,-20.373 L 1465.29,-19.6489 L 1464.73,-19.0274 L 1464.06,-18.5359
 L 1463.29,-18.1958 L 1462.06,-18 z
M 22,-18 L 20.7639,-18.1958 L 20,-18.5359 L 19.3235,-19.0274 L 18.7639,-19.6489 L 18.3458,-20.373
 L 18.0874,-21.1684 L 18,-22 L 18,-54.7722 L 18.1246,-55.7628 L 18.4153,-56.5469 L 18.8626,-57.2535
 L 19.447,-57.8515 L 20.143,-58.315 L 20.9202,-58.6237 L 21.7446,-58.7641 L 22.5801,-58.7299 L 23.3903,-58.5228
 L 111.8,-25.7506 L 112.761,-25.2361 L 113.383,-24.6765 L 113.874,-24 L 114.214,-23.2361 L 114.388,-22.4181
 L 114.388,-21.5819 L 114.214,-20.7639 L 113.874,-20 L 113.383,-19.3235 L 112.761,-18.7639 L 112.037,-18.3458
 L 111.242,-18.0874 L 110.41,-18 z
M 1555.59,-18 L 1554.76,-18.0874 L 1553.96,-18.3458 L 1553.24,-18.7639 L 1552.62,-19.3235 L 1552.13,-20
 L 1551.79,-20.7639 L 1551.61,-21.5819 L 1551.61,-22.4181 L 1551.79,-23.2361 L 1552.13,-24 L 1552.62,-24.6765
 L 1553.24,-25.2361 L 1554.2,-25.7506 L 1642.61,-58.5228 L 1643.42,-58.7299 L 1644.26,-58.7641 L 1645.08,-58.6237
 L 1645.86,-58.315 L 1646.55,-57.8515 L 1647.14,-57.2535 L 1647.58,-56.5469 L 1647.88,-55.7628 L 1648,-54.7722
 L 1648,-22 L 1647.91,-21.1684 L 1647.65,-20.373 L 1647.24,-19.6489 L 1646.68,-19.0274 L 1646,-18.5359
 L 1645.24,-18.1958 L 1644,-18 z
M 816.063,-18 L 814.983,-18.1485 L 814.206,-18.4572 L 813.51,-18.9207 L 812.925,-19.5188 L 812.478,-20.2253
 L 812.187,-21.0094 L 812.066,-21.8368 L 812.119,-22.6713 L 812.345,-23.4765 L 812.733,-24.2171 L 813.267,-24.8609
 L 813.923,-25.3796 L 814.672,-25.7506 L 831.61,-32.029 L 832.745,-32.2702 L 833.58,-32.2361 L 834.39,-32.029
 L 851.327,-25.7506 L 852.288,-25.2361 L 852.91,-24.6765 L 853.401,-24 L 853.741,-23.2361 L 853.915,-22.4181
 L 853.915,-21.5819 L 853.741,-20.7639 L 853.401,-20 L 852.91,-19.3235 L 852.288,-18.7639 L 851.564,-18.3458
 L 850.769,-18.0874 L 849.937,-18 z
" stroke="black" fill="lightgray" stroke-width="0.5"/>
</svg>
