<?xml version="1.0" standalone="no"?>
<!DOCTYPE svg PUBLIC "-//W3C//DTD SVG 1.1//EN" "http://www.w3.org/Graphics/SVG/1.1/DTD/svg11.dtd">
<svg width="1066mm" height="80mm" viewBox="0 -80 1066 80" xmlns="http://www.w3.org/2000/svg" version="1.1">
<title>OpenSCAD Model</title>
<path d="
M 1066,-80 L 0,-80 L 0,-0 L 4.95,-0 L 4.95,-6 L 5.00572,-6.53017
 L 5.17046,-7.03717 L 5.437,-7.49884 L 5.79372,-7.895 L 6.22499,-8.20836 L 6.71201,-8.42519 L 7.23344,-8.53603
 L 7.76654,-8.53603 L 8.28798,-8.42519 L 8.77499,-8.20836 L 9.20627,-7.895 L 9.56299,-7.49884 L 9.82953,-7.03717
 L 9.99426,-6.53017 L 10.05,-6 L 10.05,-0 L 180.117,-0 L 180.117,-6 L 180.172,-6.53017
 L 180.337,-7.03717 L 180.604,-7.49884 L 180.96,-7.895 L 181.392,-8.20836 L 181.879,-8.42519 L 182.4,-8.53603
 L 182.933,-8.53603 L 183.455,-8.42519 L 183.942,-8.20836 L 184.373,-7.895 L 184.73,-7.49884 L 184.996,-7.03717
 L 185.161,-6.53017 L 185.217,-6 L 185.217,-0 L 355.283,-0 L 355.283,-6 L 355.339,-6.53017
 L 355.504,-7.03717 L 355.77,-7.49884 L 356.127,-7.895 L 356.558,-8.20836 L 357.045,-8.42519 L 357.567,-8.53603
 L 358.1,-8.53603 L 358.621,-8.42519 L 359.108,-8.20836 L 359.54,-7.895 L 359.896,-7.49884 L 360.163,-7.03717
 L 360.328,-6.53017 L 360.383,-6 L 360.383,-0 L 530.45,-0 L 530.45,-6 L 530.506,-6.53017
 L 530.67,-7.03717 L 530.937,-7.49884 L 531.294,-7.895 L 531.725,-8.20836 L 532.212,-8.42519 L 532.733,-8.53603
 L 533.267,-8.53603 L 533.788,-8.42519 L 534.275,-8.20836 L 534.706,-7.895 L 535.063,-7.49884 L 535.33,-7.03717
 L 535.494,-6.53017 L 535.55,-6 L 535.55,-0 L 705.617,-0 L 705.617,-6 L 705.672,-6.53017
 L 705.837,-7.03717 L 706.104,-7.49884 L 706.46,-7.895 L 706.892,-8.20836 L 707.379,-8.42519 L 707.9,-8.53603
 L 708.433,-8.53603 L 708.955,-8.42519 L 709.442,-8.20836 L 709.873,-7.895 L 710.23,-7.49884 L 710.496,-7.03717
 L 710.661,-6.53017 L 710.717,-6 L 710.717,-0 L 880.783,-0 L 880.783,-6 L 880.839,-6.53017
 L 881.004,-7.03717 L 881.27,-7.49884 L 881.627,-7.895 L 882.058,-8.20836 L 882.545,-8.42519 L 883.067,-8.53603
 L 883.6,-8.53603 L 884.121,-8.42519 L 884.608,-8.20836 L 885.04,-7.895 L 885.396,-7.49884 L 885.663,-7.03717
 L 885.828,-6.53017 L 885.883,-6 L 885.883,-0 L 1055.95,-0 L 1055.95,-6 L 1056.01,-6.53017
 L 1056.17,-7.03717 L 1056.44,-7.49884 L 1056.79,-7.895 L 1057.22,-8.20836 L 1057.71,-8.42519 L 1058.23,-8.53603
 L 1058.77,-8.53603 L 1059.29,-8.42519 L 1059.77,-8.20836 L 1060.21,-7.895 L 1060.56,-7.49884 L 1060.83,-7.03717
 L 1060.99,-6.53017 L 1061.05,-6 L 1061.05,-0 L 1066,-0 z
M 6.98573,-55.607 L 6.47708,-55.6875 L 5.97964,-55.8208 L 5.49887,-56.0054 L 5.04001,-56.2392 L 4.60811,-56.5196
 L 4.20789,-56.8437 L 3.84373,-57.2079 L 3.51964,-57.6081 L 3.23917,-58.04 L 3.00537,-58.4989 L 2.82082,-58.9796
 L 2.68752,-59.4771 L 2.60696,-59.9857 L 2.58,-60.5 L 2.60696,-61.0143 L 2.68752,-61.5229 L 2.82082,-62.0204
 L 3.00537,-62.5011 L 3.23917,-62.96 L 3.51964,-63.3919 L 3.84373,-63.7921 L 4.20789,-64.1563 L 4.60811,-64.4804
 L 4.95001,-64.7024 L 4.95001,-74 L 5.00574,-74.5302 L 5.17047,-75.0372 L 5.43701,-75.4988 L 5.79373,-75.895
 L 6.22501,-76.2084 L 6.71202,-76.4252 L 7.23346,-76.536 L 7.76654,-76.536 L 8.28798,-76.4252 L 8.77499,-76.2084
 L 9.20627,-75.895 L 9.56299,-75.4988 L 9.82953,-75.0372 L 9.99426,-74.5302 L 10.05,-74 L 10.05,-64.7024
 L 10.3919,-64.4804 L 10.7921,-64.1563 L 11.1563,-63.7921 L 11.4804,-63.3919 L 11.7608,-62.96 L 11.9946,-62.5011
 L 12.1792,-62.0204 L 12.3125,-61.5229 L 12.393,-61.0143 L 12.42,-60.5 L 12.393,-59.9857 L 12.3125,-59.4771
 L 12.1792,-58.9796 L 11.9946,-58.4989 L 11.7608,-58.04 L 11.4804,-57.6081 L 11.1563,-57.2079 L 10.7921,-56.8437
 L 10.3919,-56.5196 L 9.95999,-56.2392 L 9.50113,-56.0054 L 9.02036,-55.8208 L 8.52292,-55.6875 L 8.01427,-55.607
 L 7.5,-55.58 z
M 182.152,-55.607 L 181.644,-55.6875 L 181.146,-55.8208 L 180.666,-56.0054 L 180.207,-56.2392 L 179.775,-56.5196
 L 179.375,-56.8437 L 179.01,-57.2079 L 178.686,-57.6081 L 178.406,-58.04 L 178.172,-58.4989 L 177.987,-58.9796
 L 177.854,-59.4771 L 177.774,-59.9857 L 177.747,-60.5 L 177.774,-61.0143 L 177.854,-61.5229 L 177.987,-62.0204
 L 178.172,-62.5011 L 178.406,-62.96 L 178.686,-63.3919 L 179.01,-63.7921 L 179.375,-64.1563 L 179.775,-64.4804
 L 180.117,-64.7024 L 180.117,-74 L 180.172,-74.5302 L 180.337,-75.0372 L 180.604,-75.4988 L 180.96,-75.895
 L 181.392,-76.2084 L 181.879,-76.4252 L 182.4,-76.536 L 182.933,-76.536 L 183.455,-76.4252 L 183.942,-76.2084
 L 184.373,-75.895 L 184.73,-75.4988 L 184.996,-75.0372 L 185.161,-74.5302 L 185.217,-74 L 185.217,-64.7024
 L 185.559,-64.4804 L 185.959,-64.1563 L 186.323,-63.7921 L 186.647,-63.3919 L 186.927,-62.96 L 187.161,-62.5011
 L 187.346,-62.0204 L 187.479,-61.5229 L 187.56,-61.0143 L 187.587,-60.5 L 187.56,-59.9857 L 187.479,-59.4771
 L 187.346,-58.9796 L 187.161,-58.4989 L 186.927,-58.04 L 186.647,-57.6081 L 186.323,-57.2079 L 185.959,-56.8437
 L 185.559,-56.5196 L 185.127,-56.2392 L 184.668,-56.0054 L 184.187,-55.8208 L 183.69,-55.6875 L 183.181,-55.607
 L 182.667,-55.58 z
M 357.319,-55.607 L 356.81,-55.6875 L 356.313,-55.8208 L 355.832,-56.0054 L 355.373,-56.2392 L 354.941,-56.5196
 L 354.541,-56.8437 L 354.177,-57.2079 L 353.853,-57.6081 L 353.572,-58.04 L 353.339,-58.4989 L 353.154,-58.9796
 L 353.021,-59.4771 L 352.94,-59.9857 L 352.913,-60.5 L 352.94,-61.0143 L 353.021,-61.5229 L 353.154,-62.0204
 L 353.339,-62.5011 L 353.572,-62.96 L 353.853,-63.3919 L 354.177,-63.7921 L 354.541,-64.1563 L 354.941,-64.4804
 L 355.283,-64.7024 L 355.283,-74 L 355.339,-74.5302 L 355.504,-75.0372 L 355.77,-75.4988 L 356.127,-75.895
 L 356.558,-76.2084 L 357.045,-76.4252 L 357.567,-76.536 L 358.1,-76.536 L 358.621,-76.4252 L 359.108,-76.2084
 L 359.54,-75.895 L 359.896,-75.4988 L 360.163,-75.0372 L 360.328,-74.5302 L 360.383,-74 L 360.383,-64.7024
 L 360.725,-64.4804 L 361.125,-64.1563 L 361.49,-63.7921 L 361.814,-63.3919 L 362.094,-62.96 L 362.328,-62.5011
 L 362.513,-62.0204 L 362.646,-61.5229 L 362.726,-61.0143 L 362.753,-60.5 L 362.726,-59.9857 L 362.646,-59.4771
 L 362.513,-58.9796 L 362.328,-58.4989 L 362.094,-58.04 L 361.814,-57.6081 L 361.49,-57.2079 L 361.125,-56.8437
 L 360.725,-56.5196 L 360.293,-56.2392 L 359.834,-56.0054 L 359.354,-55.8208 L 358.856,-55.6875 L 358.348,-55.607
 L 357.833,-55.58 z
M 532.486,-55.607 L 531.977,-55.6875 L 531.48,-55.8208 L 530.999,-56.0054 L 530.54,-56.2392 L 530.108,-56.5196
 L 529.708,-56.8437 L 529.344,-57.2079 L 529.02,-57.6081 L 528.739,-58.04 L 528.505,-58.4989 L 528.321,-58.9796
 L 528.188,-59.4771 L 528.107,-59.9857 L 528.08,-60.5 L 528.107,-61.0143 L 528.188,-61.5229 L 528.321,-62.0204
 L 528.505,-62.5011 L 528.739,-62.96 L 529.02,-63.3919 L 529.344,-63.7921 L 529.708,-64.1563 L 530.108,-64.4804
 L 530.45,-64.7024 L 530.45,-74 L 530.506,-74.5302 L 530.67,-75.0372 L 530.937,-75.4988 L 531.294,-75.895
 L 531.725,-76.2084 L 532.212,-76.4252 L 532.733,-76.536 L 533.267,-76.536 L 533.788,-76.4252 L 534.275,-76.2084
 L 534.706,-75.895 L 535.063,-75.4988 L 535.33,-75.0372 L 535.494,-74.5302 L 535.55,-74 L 535.55,-64.7024
 L 535.892,-64.4804 L 536.292,-64.1563 L 536.656,-63.7921 L 536.98,-63.3919 L 537.261,-62.96 L 537.495,-62.5011
 L 537.679,-62.0204 L 537.812,-61.5229 L 537.893,-61.0143 L 537.92,-60.5 L 537.893,-59.9857 L 537.812,-59.4771
 L 537.679,-58.9796 L 537.495,-58.4989 L 537.261,-58.04 L 536.98,-57.6081 L 536.656,-57.2079 L 536.292,-56.8437
 L 535.892,-56.5196 L 535.46,-56.2392 L 535.001,-56.0054 L 534.52,-55.8208 L 534.023,-55.6875 L 533.514,-55.607
 L 533,-55.58 z
M 707.652,-55.607 L 707.144,-55.6875 L 706.646,-55.8208 L 706.166,-56.0054 L 705.707,-56.2392 L 705.275,-56.5196
 L 704.875,-56.8437 L 704.51,-57.2079 L 704.186,-57.6081 L 703.906,-58.04 L 703.672,-58.4989 L 703.487,-58.9796
 L 703.354,-59.4771 L 703.274,-59.9857 L 703.247,-60.5 L 703.274,-61.0143 L 703.354,-61.5229 L 703.487,-62.0204
 L 703.672,-62.5011 L 703.906,-62.96 L 704.186,-63.3919 L 704.51,-63.7921 L 704.875,-64.1563 L 705.275,-64.4804
 L 705.617,-64.7024 L 705.617,-74 L 705.672,-74.5302 L 705.837,-75.0372 L 706.104,-75.4988 L 706.46,-75.895
 L 706.892,-76.2084 L 707.379,-76.4252 L 707.9,-76.536 L 708.433,-76.536 L 708.955,-76.4252 L 709.442,-76.2084
 L 709.873,-75.895 L 710.23,-75.4988 L 710.496,-75.0372 L 710.661,-74.5302 L 710.717,-74 L 710.717,-64.7024
 L 711.059,-64.4804 L 711.459,-64.1563 L 711.823,-63.7921 L 712.147,-63.3919 L 712.427,-62.96 L 712.661,-62.5011
 L 712.846,-62.0204 L 712.979,-61.5229 L 713.06,-61.0143 L 713.087,-60.5 L 713.06,-59.9857 L 712.979,-59.4771
 L 712.846,-58.9796 L 712.661,-58.4989 L 712.427,-58.04 L 712.147,-57.6081 L 711.823,-57.2079 L 711.459,-56.8437
 L 711.059,-56.5196 L 710.627,-56.2392 L 710.168,-56.0054 L 709.687,-55.8208 L 709.19,-55.6875 L 708.681,-55.607
 L 708.167,-55.58 z
M 882.819,-55.607 L 882.31,-55.6875 L 881.813,-55.8208 L 881.332,-56.0054 L 880.873,-56.2392 L 880.441,-56.5196
 L 880.041,-56.8437 L 879.677,-57.2079 L 879.353,-57.6081 L 879.072,-58.04 L 878.839,-58.4989 L 878.654,-58.9796
 L 878.521,-59.4771 L 878.44,-59.9857 L 878.413,-60.5 L 878.44,-61.0143 L 878.521,-61.5229 L 878.654,-62.0204
 L 878.839,-62.5011 L 879.072,-62.96 L 879.353,-63.3919 L 879.677,-63.7921 L 880.041,-64.1563 L 880.441,-64.4804
 L 880.783,-64.7024 L 880.783,-74 L 880.839,-74.5302 L 881.004,-75.0372 L 881.27,-75.4988 L 881.627,-75.895
 L 882.058,-76.2084 L 882.545,-76.4252 L 883.067,-76.536 L 883.6,-76.536 L 884.121,-76.4252 L 884.608,-76.2084
 L 885.04,-75.895 L 885.396,-75.4988 L 885.663,-75.0372 L 885.828,-74.5302 L 885.883,-74 L 885.883,-64.7024
 L 886.225,-64.4804 L 886.625,-64.1563 L 886.99,-63.7921 L 887.314,-63.3919 L 887.594,-62.96 L 887.828,-62.5011
 L 888.013,-62.0204 L 888.146,-61.5229 L 888.226,-61.0143 L 888.253,-60.5 L 888.226,-59.9857 L 888.146,-59.4771
 L 888.013,-58.9796 L 887.828,-58.4989 L 887.594,-58.04 L 887.314,-57.6081 L 886.99,-57.2079 L 886.625,-56.8437
 L 886.225,-56.5196 L 885.793,-56.2392 L 885.334,-56.0054 L 884.854,-55.8208 L 884.356,-55.6875 L 883.848,-55.607
 L 883.333,-55.58 z
M 1057.99,-55.607 L 1057.48,-55.6875 L 1056.98,-55.8208 L 1056.5,-56.0054 L 1056.04,-56.2392 L 1055.61,-56.5196
 L 1055.21,-56.8437 L 1054.84,-57.2079 L 1054.52,-57.6081 L 1054.24,-58.04 L 1054.01,-58.4989 L 1053.82,-58.9796
 L 1053.69,-59.4771 L 1053.61,-59.9857 L 1053.58,-60.5 L 1053.61,-61.0143 L 1053.69,-61.5229 L 1053.82,-62.0204
 L 1054.01,-62.5011 L 1054.24,-62.96 L 1054.52,-63.3919 L 1054.84,-63.7921 L 1055.21,-64.1563 L 1055.61,-64.4804
 L 1055.95,-64.7024 L 1055.95,-74 L 1056.01,-74.5302 L 1056.17,-75.0372 L 1056.44,-75.4988 L 1056.79,-75.895
 L 1057.23,-76.2084 L 1057.71,-76.4252 L 1058.23,-76.536 L 1058.77,-76.536 L 1059.29,-76.4252 L 1059.77,-76.2084
 L 1060.21,-75.895 L 1060.56,-75.4988 L 1060.83,-75.0372 L 1060.99,-74.5302 L 1061.05,-74 L 1061.05,-64.7024
 L 1061.39,-64.4804 L 1061.79,-64.1563 L 1062.16,-63.7921 L 1062.48,-63.3919 L 1062.76,-62.96 L 1062.99,-62.5011
 L 1063.18,-62.0204 L 1063.31,-61.5229 L 1063.39,-61.0143 L 1063.42,-60.5 L 1063.39,-59.9857 L 1063.31,-59.4771
 L 1063.18,-58.9796 L 1062.99,-58.4989 L 1062.76,-58.04 L 1062.48,-57.6081 L 1062.16,-57.2079 L 1061.79,-56.8437
 L 1061.39,-56.5196 L 1060.96,-56.2392 L 1060.5,-56.0054 L 1060.02,-55.8208 L 1059.52,-55.6875 L 1059.01,-55.607
 L 1058.5,-55.58 z
M 895.313,-21.1078 L 894.531,-21.4045 L 893.828,-21.8573 L 893.234,-22.4464 L 892.776,-23.146 L 892.474,-23.9255
 L 892.333,-24.9754 L 892.333,-58 L 892.421,-58.8316 L 892.679,-59.627 L 893.097,-60.3511 L 893.657,-60.9726
 L 894.333,-61.4641 L 895.097,-61.8042 L 896.333,-62 L 981.404,-62 L 982.236,-61.9126 L 983.031,-61.6542
 L 983.755,-61.2361 L 984.377,-60.6765 L 984.868,-60 L 985.208,-59.2361 L 985.382,-58.4181 L 985.382,-57.5819
 L 985.208,-56.7639 L 984.868,-56 L 984.377,-55.3235 L 983.755,-54.7639 L 982.852,-54.2711 L 897.781,-21.2465
 L 896.974,-21.027 L 896.139,-20.9801 z
M 344.193,-21.027 L 343.386,-21.2465 L 258.315,-54.2711 L 257.411,-54.7639 L 256.79,-55.3235 L 256.298,-56
 L 255.958,-56.7639 L 255.784,-57.5819 L 255.784,-58.4181 L 255.958,-59.2361 L 256.298,-60 L 256.79,-60.6765
 L 257.411,-61.2361 L 258.136,-61.6542 L 258.931,-61.9126 L 259.762,-62 L 344.833,-62 L 346.069,-61.8042
 L 346.833,-61.4641 L 347.51,-60.9726 L 348.069,-60.3511 L 348.487,-59.627 L 348.746,-58.8316 L 348.833,-58
 L 348.833,-24.9754 L 348.693,-23.9255 L 348.39,-23.146 L 347.932,-22.4464 L 347.339,-21.8573 L 346.636,-21.4045
 L 345.854,-21.1078 L 345.028,-20.9801 z
M 169.026,-21.027 L 168.219,-21.2465 L 83.1483,-54.2711 L 82.2447,-54.7639 L 81.6232,-55.3235 L 81.1317,-56
 L 80.7916,-56.7639 L 80.6177,-57.5819 L 80.6177,-58.4181 L 80.7916,-59.2361 L 81.1317,-60 L 81.6232,-60.6765
 L 82.2447,-61.2361 L 82.9689,-61.6542 L 83.7642,-61.9126 L 84.5958,-62 L 169.667,-62 L 170.903,-61.8042
 L 171.667,-61.4641 L 172.343,-60.9726 L 172.903,-60.3511 L 173.321,-59.627 L 173.579,-58.8316 L 173.667,-58
 L 173.667,-24.9754 L 173.526,-23.9255 L 173.224,-23.146 L 172.766,-22.4464 L 172.172,-21.8573 L 171.469,-21.4045
 L 170.687,-21.1078 L 169.861,-20.9801 z
M 519.359,-21.027 L 518.552,-21.2465 L 433.482,-54.2711 L 432.578,-54.7639 L 431.957,-55.3235 L 431.465,-56
 L 431.125,-56.7639 L 430.951,-57.5819 L 430.951,-58.4181 L 431.125,-59.2361 L 431.465,-60 L 431.957,-60.6765
 L 432.578,-61.2361 L 433.302,-61.6542 L 434.097,-61.9126 L 434.929,-62 L 520,-62 L 521.236,-61.8042
 L 522,-61.4641 L 522.677,-60.9726 L 523.236,-60.3511 L 523.654,-59.627 L 523.913,-58.8316 L 524,-58
 L 524,-24.9754 L 523.86,-23.9255 L 523.557,-23.146 L 523.099,-22.4464 L 522.506,-21.8573 L 521.802,-21.4045
 L 521.021,-21.1078 L 520.194,-20.9801 z
M 544.979,-21.1078 L 544.198,-21.4045 L 543.494,-21.8573 L 542.901,-22.4464 L 542.443,-23.146 L 542.14,-23.9255
 L 542,-24.9754 L 542,-58 L 542.087,-58.8316 L 542.346,-59.627 L 542.764,-60.3511 L 543.323,-60.9726
 L 544,-61.4641 L 544.764,-61.8042 L 546,-62 L 631.071,-62 L 631.902,-61.9126 L 632.698,-61.6542
 L 633.422,-61.2361 L 634.043,-60.6765 L 634.535,-60 L 634.875,-59.2361 L 635.049,-58.4181 L 635.049,-57.5819
 L 634.875,-56.7639 L 634.535,-56 L 634.043,-55.3235 L 633.422,-54.7639 L 632.518,-54.2711 L 547.448,-21.2465
 L 546.641,-21.027 L 545.806,-20.9801 z
M 720.146,-21.1078 L 719.364,-21.4045 L 718.661,-21.8573 L 718.068,-22.4464 L 717.61,-23.146 L 717.307,-23.9255
 L 717.167,-24.9754 L 717.167,-58 L 717.254,-58.8316 L 717.512,-59.627 L 717.931,-60.3511 L 718.49,-60.9726
 L 719.167,-61.4641 L 719.931,-61.8042 L 721.167,-62 L 806.238,-62 L 807.069,-61.9126 L 807.864,-61.6542
 L 808.589,-61.2361 L 809.21,-60.6765 L 809.702,-60 L 810.042,-59.2361 L 810.216,-58.4181 L 810.216,-57.5819
 L 810.042,-56.7639 L 809.702,-56 L 809.21,-55.3235 L 808.589,-54.7639 L 807.685,-54.2711 L 722.614,-21.2465
 L 721.807,-21.027 L 720.972,-20.9801 z
M 195.667,-18 L 194.431,-18.1958 L 193.667,-18.5359 L 192.99,-19.0274 L 192.431,-19.6489 L 192.012,-20.373
 L 191.754,-21.1684 L 191.667,-22 L 191.667,-55.0246 L 191.807,-56.0745 L 192.11,-56.854 L 192.568,-57.5536
 L 193.161,-58.1427 L 193.864,-58.5955 L 194.646,-58.8922 L 195.472,-59.0199 L 196.307,-58.973 L 197.114,-58.7535
 L 282.185,-25.7289 L 283.089,-25.2361 L 283.71,-24.6765 L 284.202,-24 L 284.542,-23.2361 L 284.716,-22.4181
 L 284.716,-21.5819 L 284.542,-20.7639 L 284.202,-20 L 283.71,-19.3235 L 283.089,-18.7639 L 282.364,-18.3458
 L 281.569,-18.0874 L 280.737,-18 z
M 370.833,-18 L 369.597,-18.1958 L 368.833,-18.5359 L 368.157,-19.0274 L 367.597,-19.6489 L 367.179,-20.373
 L 366.921,-21.1684 L 366.833,-22 L 366.833,-55.0246 L 366.974,-56.0745 L 367.276,-56.854 L 367.734,-57.5536
 L 368.328,-58.1427 L 369.031,-58.5955 L 369.813,-58.8922 L 370.639,-59.0199 L 371.474,-58.973 L 372.281,-58.7535
 L 457.352,-25.7289 L 458.255,-25.2361 L 458.877,-24.6765 L 459.368,-24 L 459.708,-23.2361 L 459.882,-22.4181
 L 459.882,-21.5819 L 459.708,-20.7639 L 459.368,-20 L 458.877,-19.3235 L 458.255,-18.7639 L 457.531,-18.3458
 L 456.736,-18.0874 L 455.904,-18 z
M 610.096,-18 L 609.264,-18.0874 L 608.469,-18.3458 L 607.745,-18.7639 L 607.123,-19.3235 L 606.632,-20
 L 606.292,-20.7639 L 606.118,-21.5819 L 606.118,-22.4181 L 606.292,-23.2361 L 606.632,-24 L 607.123,-24.6765
 L 607.745,-25.2361 L 608.648,-25.7289 L 693.719,-58.7535 L 694.526,-58.973 L 695.361,-59.0199 L 696.187,-58.8922
 L 696.969,-58.5955 L 697.672,-58.1427 L 698.266,-57.5536 L 698.724,-56.854 L 699.026,-56.0745 L 699.167,-55.0246
 L 699.167,-22 L 699.079,-21.1684 L 698.821,-20.373 L 698.403,-19.6489 L 697.843,-19.0274 L 697.167,-18.5359
 L 696.403,-18.1958 L 695.167,-18 z
M 785.262,-18 L 784.431,-18.0874 L 783.636,-18.3458 L 782.911,-18.7639 L 782.29,-19.3235 L 781.798,-20
 L 781.458,-20.7639 L 781.284,-21.5819 L 781.284,-22.4181 L 781.458,-23.2361 L 781.798,-24 L 782.29,-24.6765
 L 782.911,-25.2361 L 783.815,-25.7289 L 868.886,-58.7535 L 869.693,-58.973 L 870.528,-59.0199 L 871.354,-58.8922
 L 872.136,-58.5955 L 872.839,-58.1427 L 873.432,-57.5536 L 873.89,-56.854 L 874.193,-56.0745 L 874.333,-55.0246
 L 874.333,-22 L 874.246,-21.1684 L 873.988,-20.373 L 873.569,-19.6489 L 873.01,-19.0274 L 872.333,-18.5359
 L 871.569,-18.1958 L 870.333,-18 z
M 960.429,-18 L 959.598,-18.0874 L 958.802,-18.3458 L 958.078,-18.7639 L 957.457,-19.3235 L 956.965,-20
 L 956.625,-20.7639 L 956.451,-21.5819 L 956.451,-22.4181 L 956.625,-23.2361 L 956.965,-24 L 957.457,-24.6765
 L 958.078,-25.2361 L 958.982,-25.7289 L 1042.55,-58.1712 L 1043.36,-58.3907 L 1044.19,-58.4376 L 1045.02,-58.3099
 L 1045.8,-58.0132 L 1046.51,-57.5604 L 1047.1,-56.9713 L 1047.56,-56.2717 L 1047.86,-55.4922 L 1048,-54.4423
 L 1048,-22 L 1047.91,-21.1684 L 1047.65,-20.373 L 1047.24,-19.6489 L 1046.68,-19.0274 L 1046,-18.5359
 L 1045.24,-18.1958 L 1044,-18 z
M 22,-18 L 20.7639,-18.1958 L 20,-18.5359 L 19.3235,-19.0274 L 18.7639,-19.6489 L 18.3458,-20.373
 L 18.0874,-21.1684 L 18,-22 L 18,-54.4423 L 18.1402,-55.4922 L 18.4429,-56.2717 L 18.9009,-56.9713
 L 19.4945,-57.5604 L 20.1975,-58.0132 L 20.9793,-58.3099 L 21.8057,-58.4376 L 22.6406,-58.3907 L 23.4476,-58.1712
 L 107.018,-25.7289 L 107.922,-25.2361 L 108.543,-24.6765 L 109.035,-24 L 109.375,-23.2361 L 109.549,-22.4181
 L 109.549,-21.5819 L 109.375,-20.7639 L 109.035,-20 L 108.543,-19.3235 L 107.922,-18.7639 L 107.198,-18.3458
 L 106.402,-18.0874 L 105.571,-18 z
" stroke="black" fill="lightgray" stroke-width="0.5"/>
</svg>
