<?xml version="1.0" standalone="no"?>
<!DOCTYPE svg PUBLIC "-//W3C//DTD SVG 1.1//EN" "http://www.w3.org/Graphics/SVG/1.1/DTD/svg11.dtd">
<svg width="1010mm" height="80mm" viewBox="0 -80 1010 80" xmlns="http://www.w3.org/2000/svg" version="1.1">
<title>OpenSCAD Model</title>
<path d="
M 1010,-80 L 0,-80 L 0,-0 L 4.95,-0 L 4.95,-6 L 5.00572,-6.53017
 L 5.17046,-7.03717 L 5.437,-7.49884 L 5.79372,-7.895 L 6.22499,-8.20836 L 6.71201,-8.42519 L 7.23344,-8.53603
 L 7.76654,-8.53603 L 8.28798,-8.42519 L 8.77499,-8.20836 L 9.20627,-7.895 L 9.56299,-7.49884 L 9.82953,-7.03717
 L 9.99426,-6.53017 L 10.05,-6 L 10.05,-0 L 170.783,-0 L 170.783,-6 L 170.839,-6.53017
 L 171.004,-7.03717 L 171.27,-7.49884 L 171.627,-7.895 L 172.058,-8.20836 L 172.545,-8.42519 L 173.067,-8.53603
 L 173.6,-8.53603 L 174.121,-8.42519 L 174.608,-8.20836 L 175.04,-7.895 L 175.396,-7.49884 L 175.663,-7.03717
 L 175.828,-6.53017 L 175.883,-6 L 175.883,-0 L 336.617,-0 L 336.617,-6 L 336.672,-6.53017
 L 336.837,-7.03717 L 337.104,-7.49884 L 337.46,-7.895 L 337.892,-8.20836 L 338.379,-8.42519 L 338.9,-8.53603
 L 339.433,-8.53603 L 339.955,-8.42519 L 340.442,-8.20836 L 340.873,-7.895 L 341.23,-7.49884 L 341.496,-7.03717
 L 341.661,-6.53017 L 341.717,-6 L 341.717,-0 L 502.45,-0 L 502.45,-6 L 502.506,-6.53017
 L 502.67,-7.03717 L 502.937,-7.49884 L 503.294,-7.895 L 503.725,-8.20836 L 504.212,-8.42519 L 504.733,-8.53603
 L 505.267,-8.53603 L 505.788,-8.42519 L 506.275,-8.20836 L 506.706,-7.895 L 507.063,-7.49884 L 507.33,-7.03717
 L 507.494,-6.53017 L 507.55,-6 L 507.55,-0 L 668.283,-0 L 668.283,-6 L 668.339,-6.53017
 L 668.504,-7.03717 L 668.77,-7.49884 L 669.127,-7.895 L 669.558,-8.20836 L 670.045,-8.42519 L 670.567,-8.53603
 L 671.1,-8.53603 L 671.621,-8.42519 L 672.108,-8.20836 L 672.54,-7.895 L 672.896,-7.49884 L 673.163,-7.03717
 L 673.328,-6.53017 L 673.383,-6 L 673.383,-0 L 834.117,-0 L 834.117,-6 L 834.172,-6.53017
 L 834.337,-7.03717 L 834.604,-7.49884 L 834.96,-7.895 L 835.392,-8.20836 L 835.879,-8.42519 L 836.4,-8.53603
 L 836.933,-8.53603 L 837.455,-8.42519 L 837.942,-8.20836 L 838.373,-7.895 L 838.73,-7.49884 L 838.996,-7.03717
 L 839.161,-6.53017 L 839.217,-6 L 839.217,-0 L 999.95,-0 L 999.95,-6 L 1000.01,-6.53017
 L 1000.17,-7.03717 L 1000.44,-7.49884 L 1000.79,-7.895 L 1001.22,-8.20836 L 1001.71,-8.42519 L 1002.23,-8.53603
 L 1002.77,-8.53603 L 1003.29,-8.42519 L 1003.77,-8.20836 L 1004.21,-7.895 L 1004.56,-7.49884 L 1004.83,-7.03717
 L 1004.99,-6.53017 L 1005.05,-6 L 1005.05,-0 L 1010,-0 z
M 6.98573,-55.607 L 6.47708,-55.6875 L 5.97964,-55.8208 L 5.49887,-56.0054 L 5.04001,-56.2392 L 4.60811,-56.5196
 L 4.20789,-56.8437 L 3.84373,-57.2079 L 3.51964,-57.6081 L 3.23917,-58.04 L 3.00537,-58.4989 L 2.82082,-58.9796
 L 2.68752,-59.4771 L 2.60696,-59.9857 L 2.58,-60.5 L 2.60696,-61.0143 L 2.68752,-61.5229 L 2.82082,-62.0204
 L 3.00537,-62.5011 L 3.23917,-62.96 L 3.51964,-63.3919 L 3.84373,-63.7921 L 4.20789,-64.1563 L 4.60811,-64.4804
 L 4.95001,-64.7024 L 4.95001,-74 L 5.00574,-74.5302 L 5.17047,-75.0372 L 5.43701,-75.4988 L 5.79373,-75.895
 L 6.22501,-76.2084 L 6.71202,-76.4252 L 7.23346,-76.536 L 7.76654,-76.536 L 8.28798,-76.4252 L 8.77499,-76.2084
 L 9.20627,-75.895 L 9.56299,-75.4988 L 9.82953,-75.0372 L 9.99426,-74.5302 L 10.05,-74 L 10.05,-64.7024
 L 10.3919,-64.4804 L 10.7921,-64.1563 L 11.1563,-63.7921 L 11.4804,-63.3919 L 11.7608,-62.96 L 11.9946,-62.5011
 L 12.1792,-62.0204 L 12.3125,-61.5229 L 12.393,-61.0143 L 12.42,-60.5 L 12.393,-59.9857 L 12.3125,-59.4771
 L 12.1792,-58.9796 L 11.9946,-58.4989 L 11.7608,-58.04 L 11.4804,-57.6081 L 11.1563,-57.2079 L 10.7921,-56.8437
 L 10.3919,-56.5196 L 9.95999,-56.2392 L 9.50113,-56.0054 L 9.02036,-55.8208 L 8.52292,-55.6875 L 8.01427,-55.607
 L 7.5,-55.58 z
M 172.819,-55.607 L 172.31,-55.6875 L 171.813,-55.8208 L 171.332,-56.0054 L 170.873,-56.2392 L 170.441,-56.5196
 L 170.041,-56.8437 L 169.677,-57.2079 L 169.353,-57.6081 L 169.072,-58.04 L 168.839,-58.4989 L 168.654,-58.9796
 L 168.521,-59.4771 L 168.44,-59.9857 L 168.413,-60.5 L 168.44,-61.0143 L 168.521,-61.5229 L 168.654,-62.0204
 L 168.839,-62.5011 L 169.072,-62.96 L 169.353,-63.3919 L 169.677,-63.7921 L 170.041,-64.1563 L 170.441,-64.4804
 L 170.783,-64.7024 L 170.783,-74 L 170.839,-74.5302 L 171.004,-75.0372 L 171.27,-75.4988 L 171.627,-75.895
 L 172.058,-76.2084 L 172.545,-76.4252 L 173.067,-76.536 L 173.6,-76.536 L 174.121,-76.4252 L 174.608,-76.2084
 L 175.04,-75.895 L 175.396,-75.4988 L 175.663,-75.0372 L 175.828,-74.5302 L 175.883,-74 L 175.883,-64.7024
 L 176.225,-64.4804 L 176.625,-64.1563 L 176.99,-63.7921 L 177.314,-63.3919 L 177.594,-62.96 L 177.828,-62.5011
 L 178.013,-62.0204 L 178.146,-61.5229 L 178.226,-61.0143 L 178.253,-60.5 L 178.226,-59.9857 L 178.146,-59.4771
 L 178.013,-58.9796 L 177.828,-58.4989 L 177.594,-58.04 L 177.314,-57.6081 L 176.99,-57.2079 L 176.625,-56.8437
 L 176.225,-56.5196 L 175.793,-56.2392 L 175.334,-56.0054 L 174.854,-55.8208 L 174.356,-55.6875 L 173.848,-55.607
 L 173.333,-55.58 z
M 338.652,-55.607 L 338.144,-55.6875 L 337.646,-55.8208 L 337.166,-56.0054 L 336.707,-56.2392 L 336.275,-56.5196
 L 335.875,-56.8437 L 335.51,-57.2079 L 335.186,-57.6081 L 334.906,-58.04 L 334.672,-58.4989 L 334.487,-58.9796
 L 334.354,-59.4771 L 334.274,-59.9857 L 334.247,-60.5 L 334.274,-61.0143 L 334.354,-61.5229 L 334.487,-62.0204
 L 334.672,-62.5011 L 334.906,-62.96 L 335.186,-63.3919 L 335.51,-63.7921 L 335.875,-64.1563 L 336.275,-64.4804
 L 336.617,-64.7024 L 336.617,-74 L 336.672,-74.5302 L 336.837,-75.0372 L 337.104,-75.4988 L 337.46,-75.895
 L 337.892,-76.2084 L 338.379,-76.4252 L 338.9,-76.536 L 339.433,-76.536 L 339.955,-76.4252 L 340.442,-76.2084
 L 340.873,-75.895 L 341.23,-75.4988 L 341.496,-75.0372 L 341.661,-74.5302 L 341.717,-74 L 341.717,-64.7024
 L 342.059,-64.4804 L 342.459,-64.1563 L 342.823,-63.7921 L 343.147,-63.3919 L 343.427,-62.96 L 343.661,-62.5011
 L 343.846,-62.0204 L 343.979,-61.5229 L 344.06,-61.0143 L 344.087,-60.5 L 344.06,-59.9857 L 343.979,-59.4771
 L 343.846,-58.9796 L 343.661,-58.4989 L 343.427,-58.04 L 343.147,-57.6081 L 342.823,-57.2079 L 342.459,-56.8437
 L 342.059,-56.5196 L 341.627,-56.2392 L 341.168,-56.0054 L 340.687,-55.8208 L 340.19,-55.6875 L 339.681,-55.607
 L 339.167,-55.58 z
M 504.486,-55.607 L 503.977,-55.6875 L 503.48,-55.8208 L 502.999,-56.0054 L 502.54,-56.2392 L 502.108,-56.5196
 L 501.708,-56.8437 L 501.344,-57.2079 L 501.02,-57.6081 L 500.739,-58.04 L 500.505,-58.4989 L 500.321,-58.9796
 L 500.188,-59.4771 L 500.107,-59.9857 L 500.08,-60.5 L 500.107,-61.0143 L 500.188,-61.5229 L 500.321,-62.0204
 L 500.505,-62.5011 L 500.739,-62.96 L 501.02,-63.3919 L 501.344,-63.7921 L 501.708,-64.1563 L 502.108,-64.4804
 L 502.45,-64.7024 L 502.45,-74 L 502.506,-74.5302 L 502.67,-75.0372 L 502.937,-75.4988 L 503.294,-75.895
 L 503.725,-76.2084 L 504.212,-76.4252 L 504.733,-76.536 L 505.267,-76.536 L 505.788,-76.4252 L 506.275,-76.2084
 L 506.706,-75.895 L 507.063,-75.4988 L 507.33,-75.0372 L 507.494,-74.5302 L 507.55,-74 L 507.55,-64.7024
 L 507.892,-64.4804 L 508.292,-64.1563 L 508.656,-63.7921 L 508.98,-63.3919 L 509.261,-62.96 L 509.495,-62.5011
 L 509.679,-62.0204 L 509.812,-61.5229 L 509.893,-61.0143 L 509.92,-60.5 L 509.893,-59.9857 L 509.812,-59.4771
 L 509.679,-58.9796 L 509.495,-58.4989 L 509.261,-58.04 L 508.98,-57.6081 L 508.656,-57.2079 L 508.292,-56.8437
 L 507.892,-56.5196 L 507.46,-56.2392 L 507.001,-56.0054 L 506.52,-55.8208 L 506.023,-55.6875 L 505.514,-55.607
 L 505,-55.58 z
M 670.319,-55.607 L 669.81,-55.6875 L 669.313,-55.8208 L 668.832,-56.0054 L 668.373,-56.2392 L 667.941,-56.5196
 L 667.541,-56.8437 L 667.177,-57.2079 L 666.853,-57.6081 L 666.572,-58.04 L 666.339,-58.4989 L 666.154,-58.9796
 L 666.021,-59.4771 L 665.94,-59.9857 L 665.913,-60.5 L 665.94,-61.0143 L 666.021,-61.5229 L 666.154,-62.0204
 L 666.339,-62.5011 L 666.572,-62.96 L 666.853,-63.3919 L 667.177,-63.7921 L 667.541,-64.1563 L 667.941,-64.4804
 L 668.283,-64.7024 L 668.283,-74 L 668.339,-74.5302 L 668.504,-75.0372 L 668.77,-75.4988 L 669.127,-75.895
 L 669.558,-76.2084 L 670.045,-76.4252 L 670.567,-76.536 L 671.1,-76.536 L 671.621,-76.4252 L 672.108,-76.2084
 L 672.54,-75.895 L 672.896,-75.4988 L 673.163,-75.0372 L 673.328,-74.5302 L 673.383,-74 L 673.383,-64.7024
 L 673.725,-64.4804 L 674.125,-64.1563 L 674.49,-63.7921 L 674.814,-63.3919 L 675.094,-62.96 L 675.328,-62.5011
 L 675.513,-62.0204 L 675.646,-61.5229 L 675.726,-61.0143 L 675.753,-60.5 L 675.726,-59.9857 L 675.646,-59.4771
 L 675.513,-58.9796 L 675.328,-58.4989 L 675.094,-58.04 L 674.814,-57.6081 L 674.49,-57.2079 L 674.125,-56.8437
 L 673.725,-56.5196 L 673.293,-56.2392 L 672.834,-56.0054 L 672.354,-55.8208 L 671.856,-55.6875 L 671.348,-55.607
 L 670.833,-55.58 z
M 836.152,-55.607 L 835.644,-55.6875 L 835.146,-55.8208 L 834.666,-56.0054 L 834.207,-56.2392 L 833.775,-56.5196
 L 833.375,-56.8437 L 833.01,-57.2079 L 832.686,-57.6081 L 832.406,-58.04 L 832.172,-58.4989 L 831.987,-58.9796
 L 831.854,-59.4771 L 831.774,-59.9857 L 831.747,-60.5 L 831.774,-61.0143 L 831.854,-61.5229 L 831.987,-62.0204
 L 832.172,-62.5011 L 832.406,-62.96 L 832.686,-63.3919 L 833.01,-63.7921 L 833.375,-64.1563 L 833.775,-64.4804
 L 834.117,-64.7024 L 834.117,-74 L 834.172,-74.5302 L 834.337,-75.0372 L 834.604,-75.4988 L 834.96,-75.895
 L 835.392,-76.2084 L 835.879,-76.4252 L 836.4,-76.536 L 836.933,-76.536 L 837.455,-76.4252 L 837.942,-76.2084
 L 838.373,-75.895 L 838.73,-75.4988 L 838.996,-75.0372 L 839.161,-74.5302 L 839.217,-74 L 839.217,-64.7024
 L 839.559,-64.4804 L 839.959,-64.1563 L 840.323,-63.7921 L 840.647,-63.3919 L 840.927,-62.96 L 841.161,-62.5011
 L 841.346,-62.0204 L 841.479,-61.5229 L 841.56,-61.0143 L 841.587,-60.5 L 841.56,-59.9857 L 841.479,-59.4771
 L 841.346,-58.9796 L 841.161,-58.4989 L 840.927,-58.04 L 840.647,-57.6081 L 840.323,-57.2079 L 839.959,-56.8437
 L 839.559,-56.5196 L 839.127,-56.2392 L 838.668,-56.0054 L 838.187,-55.8208 L 837.69,-55.6875 L 837.181,-55.607
 L 836.667,-55.58 z
M 1001.99,-55.607 L 1001.48,-55.6875 L 1000.98,-55.8208 L 1000.5,-56.0054 L 1000.04,-56.2392 L 999.608,-56.5196
 L 999.208,-56.8437 L 998.844,-57.2079 L 998.52,-57.6081 L 998.239,-58.04 L 998.005,-58.4989 L 997.821,-58.9796
 L 997.688,-59.4771 L 997.607,-59.9857 L 997.58,-60.5 L 997.607,-61.0143 L 997.688,-61.5229 L 997.821,-62.0204
 L 998.005,-62.5011 L 998.239,-62.96 L 998.52,-63.3919 L 998.844,-63.7921 L 999.208,-64.1563 L 999.608,-64.4804
 L 999.95,-64.7024 L 999.95,-74 L 1000.01,-74.5302 L 1000.17,-75.0372 L 1000.44,-75.4988 L 1000.79,-75.895
 L 1001.23,-76.2084 L 1001.71,-76.4252 L 1002.23,-76.536 L 1002.77,-76.536 L 1003.29,-76.4252 L 1003.77,-76.2084
 L 1004.21,-75.895 L 1004.56,-75.4988 L 1004.83,-75.0372 L 1004.99,-74.5302 L 1005.05,-74 L 1005.05,-64.7024
 L 1005.39,-64.4804 L 1005.79,-64.1563 L 1006.16,-63.7921 L 1006.48,-63.3919 L 1006.76,-62.96 L 1006.99,-62.5011
 L 1007.18,-62.0204 L 1007.31,-61.5229 L 1007.39,-61.0143 L 1007.42,-60.5 L 1007.39,-59.9857 L 1007.31,-59.4771
 L 1007.18,-58.9796 L 1006.99,-58.4989 L 1006.76,-58.04 L 1006.48,-57.6081 L 1006.16,-57.2079 L 1005.79,-56.8437
 L 1005.39,-56.5196 L 1004.96,-56.2392 L 1004.5,-56.0054 L 1004.02,-55.8208 L 1003.52,-55.6875 L 1003.01,-55.607
 L 1002.5,-55.58 z
M 848.719,-21.4888 L 847.932,-21.7707 L 847.22,-22.2102 L 846.616,-22.788 L 846.145,-23.4788 L 845.827,-24.2525
 L 845.667,-25.3749 L 845.667,-58 L 845.754,-58.8316 L 846.012,-59.627 L 846.431,-60.3511 L 846.99,-60.9726
 L 847.667,-61.4641 L 848.431,-61.8042 L 849.667,-62 L 929.23,-62 L 930.062,-61.9126 L 930.857,-61.6542
 L 931.581,-61.2361 L 932.203,-60.6765 L 932.694,-60 L 933.035,-59.2361 L 933.208,-58.4181 L 933.208,-57.5819
 L 933.035,-56.7639 L 932.694,-56 L 932.203,-55.3235 L 931.581,-54.7639 L 930.748,-54.2991 L 851.184,-21.674
 L 850.382,-21.4393 L 849.548,-21.3767 z
M 325.452,-21.4393 L 324.649,-21.674 L 245.085,-54.2991 L 244.252,-54.7639 L 243.63,-55.3235 L 243.139,-56
 L 242.799,-56.7639 L 242.625,-57.5819 L 242.625,-58.4181 L 242.799,-59.2361 L 243.139,-60 L 243.63,-60.6765
 L 244.252,-61.2361 L 244.976,-61.6542 L 245.771,-61.9126 L 246.603,-62 L 326.167,-62 L 327.403,-61.8042
 L 328.167,-61.4641 L 328.843,-60.9726 L 329.403,-60.3511 L 329.821,-59.627 L 330.079,-58.8316 L 330.167,-58
 L 330.167,-25.3749 L 330.006,-24.2525 L 329.689,-23.4788 L 329.217,-22.788 L 328.613,-22.2102 L 327.902,-21.7707
 L 327.114,-21.4888 L 326.286,-21.3767 z
M 159.618,-21.4393 L 158.816,-21.674 L 79.2521,-54.2991 L 78.4185,-54.7639 L 77.7971,-55.3235 L 77.3056,-56
 L 76.9655,-56.7639 L 76.7916,-57.5819 L 76.7916,-58.4181 L 76.9655,-59.2361 L 77.3056,-60 L 77.7971,-60.6765
 L 78.4185,-61.2361 L 79.1427,-61.6542 L 79.938,-61.9126 L 80.7697,-62 L 160.333,-62 L 161.569,-61.8042
 L 162.333,-61.4641 L 163.01,-60.9726 L 163.569,-60.3511 L 163.988,-59.627 L 164.246,-58.8316 L 164.333,-58
 L 164.333,-25.3749 L 164.173,-24.2525 L 163.855,-23.4788 L 163.384,-22.788 L 162.78,-22.2102 L 162.068,-21.7707
 L 161.281,-21.4888 L 160.452,-21.3767 z
M 491.285,-21.4393 L 490.482,-21.674 L 410.919,-54.2991 L 410.085,-54.7639 L 409.464,-55.3235 L 408.972,-56
 L 408.632,-56.7639 L 408.458,-57.5819 L 408.458,-58.4181 L 408.632,-59.2361 L 408.972,-60 L 409.464,-60.6765
 L 410.085,-61.2361 L 410.809,-61.6542 L 411.605,-61.9126 L 412.436,-62 L 492,-62 L 493.236,-61.8042
 L 494,-61.4641 L 494.677,-60.9726 L 495.236,-60.3511 L 495.654,-59.627 L 495.913,-58.8316 L 496,-58
 L 496,-25.3749 L 495.839,-24.2525 L 495.522,-23.4788 L 495.051,-22.788 L 494.446,-22.2102 L 493.735,-21.7707
 L 492.948,-21.4888 L 492.119,-21.3767 z
M 517.052,-21.4888 L 516.265,-21.7707 L 515.554,-22.2102 L 514.949,-22.788 L 514.478,-23.4788 L 514.161,-24.2525
 L 514,-25.3749 L 514,-58 L 514.087,-58.8316 L 514.346,-59.627 L 514.764,-60.3511 L 515.323,-60.9726
 L 516,-61.4641 L 516.764,-61.8042 L 518,-62 L 597.564,-62 L 598.395,-61.9126 L 599.191,-61.6542
 L 599.915,-61.2361 L 600.536,-60.6765 L 601.028,-60 L 601.368,-59.2361 L 601.542,-58.4181 L 601.542,-57.5819
 L 601.368,-56.7639 L 601.028,-56 L 600.536,-55.3235 L 599.915,-54.7639 L 599.081,-54.2991 L 519.518,-21.674
 L 518.715,-21.4393 L 517.881,-21.3767 z
M 682.886,-21.4888 L 682.098,-21.7707 L 681.387,-22.2102 L 680.782,-22.788 L 680.311,-23.4788 L 679.994,-24.2525
 L 679.833,-25.3749 L 679.833,-58 L 679.921,-58.8316 L 680.179,-59.627 L 680.597,-60.3511 L 681.157,-60.9726
 L 681.833,-61.4641 L 682.597,-61.8042 L 683.833,-62 L 763.397,-62 L 764.229,-61.9126 L 765.024,-61.6542
 L 765.748,-61.2361 L 766.37,-60.6765 L 766.861,-60 L 767.201,-59.2361 L 767.375,-58.4181 L 767.375,-57.5819
 L 767.201,-56.7639 L 766.861,-56 L 766.37,-55.3235 L 765.748,-54.7639 L 764.915,-54.2991 L 685.351,-21.674
 L 684.548,-21.4393 L 683.714,-21.3767 z
M 186.333,-18 L 185.097,-18.1958 L 184.333,-18.5359 L 183.657,-19.0274 L 183.097,-19.6489 L 182.679,-20.373
 L 182.421,-21.1684 L 182.333,-22 L 182.333,-54.6251 L 182.494,-55.7475 L 182.811,-56.5212 L 183.282,-57.212
 L 183.887,-57.7898 L 184.598,-58.2293 L 185.386,-58.5112 L 186.214,-58.6233 L 187.048,-58.5607 L 187.851,-58.326
 L 267.415,-25.7009 L 268.248,-25.2361 L 268.87,-24.6765 L 269.361,-24 L 269.701,-23.2361 L 269.875,-22.4181
 L 269.875,-21.5819 L 269.701,-20.7639 L 269.361,-20 L 268.87,-19.3235 L 268.248,-18.7639 L 267.524,-18.3458
 L 266.729,-18.0874 L 265.897,-18 z
M 352.167,-18 L 350.931,-18.1958 L 350.167,-18.5359 L 349.49,-19.0274 L 348.931,-19.6489 L 348.512,-20.373
 L 348.254,-21.1684 L 348.167,-22 L 348.167,-54.6251 L 348.327,-55.7475 L 348.645,-56.5212 L 349.116,-57.212
 L 349.72,-57.7898 L 350.432,-58.2293 L 351.219,-58.5112 L 352.048,-58.6233 L 352.882,-58.5607 L 353.684,-58.326
 L 433.248,-25.7009 L 434.081,-25.2361 L 434.703,-24.6765 L 435.194,-24 L 435.535,-23.2361 L 435.708,-22.4181
 L 435.708,-21.5819 L 435.535,-20.7639 L 435.194,-20 L 434.703,-19.3235 L 434.081,-18.7639 L 433.357,-18.3458
 L 432.562,-18.0874 L 431.73,-18 z
M 578.27,-18 L 577.438,-18.0874 L 576.643,-18.3458 L 575.919,-18.7639 L 575.297,-19.3235 L 574.806,-20
 L 574.465,-20.7639 L 574.292,-21.5819 L 574.292,-22.4181 L 574.465,-23.2361 L 574.806,-24 L 575.297,-24.6765
 L 575.919,-25.2361 L 576.752,-25.7009 L 656.316,-58.326 L 657.118,-58.5607 L 657.952,-58.6233 L 658.781,-58.5112
 L 659.568,-58.2293 L 660.28,-57.7898 L 660.884,-57.212 L 661.355,-56.5212 L 661.673,-55.7475 L 661.833,-54.6251
 L 661.833,-22 L 661.746,-21.1684 L 661.488,-20.373 L 661.069,-19.6489 L 660.51,-19.0274 L 659.833,-18.5359
 L 659.069,-18.1958 L 657.833,-18 z
M 744.103,-18 L 743.271,-18.0874 L 742.476,-18.3458 L 741.752,-18.7639 L 741.13,-19.3235 L 740.639,-20
 L 740.299,-20.7639 L 740.125,-21.5819 L 740.125,-22.4181 L 740.299,-23.2361 L 740.639,-24 L 741.13,-24.6765
 L 741.752,-25.2361 L 742.585,-25.7009 L 822.149,-58.326 L 822.952,-58.5607 L 823.786,-58.6233 L 824.614,-58.5112
 L 825.402,-58.2293 L 826.113,-57.7898 L 826.718,-57.212 L 827.189,-56.5212 L 827.506,-55.7475 L 827.667,-54.6251
 L 827.667,-22 L 827.579,-21.1684 L 827.321,-20.373 L 826.903,-19.6489 L 826.343,-19.0274 L 825.667,-18.5359
 L 824.903,-18.1958 L 823.667,-18 z
M 909.936,-18 L 909.105,-18.0874 L 908.309,-18.3458 L 907.585,-18.7639 L 906.964,-19.3235 L 906.472,-20
 L 906.132,-20.7639 L 905.958,-21.5819 L 905.958,-22.4181 L 906.132,-23.2361 L 906.472,-24 L 906.964,-24.6765
 L 907.585,-25.2361 L 908.419,-25.7009 L 986.482,-57.711 L 987.285,-57.9456 L 988.119,-58.0082 L 988.948,-57.8961
 L 989.735,-57.6142 L 990.446,-57.1747 L 991.051,-56.597 L 991.522,-55.9061 L 991.839,-55.1324 L 992,-54.01
 L 992,-22 L 991.913,-21.1684 L 991.654,-20.373 L 991.236,-19.6489 L 990.677,-19.0274 L 990,-18.5359
 L 989.236,-18.1958 L 988,-18 z
M 22,-18 L 20.7639,-18.1958 L 20,-18.5359 L 19.3235,-19.0274 L 18.7639,-19.6489 L 18.3458,-20.373
 L 18.0874,-21.1684 L 18,-22 L 18,-54.01 L 18.1607,-55.1324 L 18.478,-55.9061 L 18.9492,-56.597
 L 19.5537,-57.1747 L 20.2651,-57.6142 L 21.0524,-57.8961 L 21.8811,-58.0082 L 22.7149,-57.9456 L 23.5176,-57.711
 L 101.581,-25.7009 L 102.415,-25.2361 L 103.036,-24.6765 L 103.528,-24 L 103.868,-23.2361 L 104.042,-22.4181
 L 104.042,-21.5819 L 103.868,-20.7639 L 103.528,-20 L 103.036,-19.3235 L 102.415,-18.7639 L 101.691,-18.3458
 L 100.895,-18.0874 L 100.064,-18 z
" stroke="black" fill="lightgray" stroke-width="0.5"/>
</svg>
