<?xml version="1.0" standalone="no"?>
<!DOCTYPE svg PUBLIC "-//W3C//DTD SVG 1.1//EN" "http://www.w3.org/Graphics/SVG/1.1/DTD/svg11.dtd">
<svg width="1384mm" height="80mm" viewBox="0 -80 1384 80" xmlns="http://www.w3.org/2000/svg" version="1.1">
<title>OpenSCAD Model</title>
<path d="
M 1384,-80 L 0,-80 L 0,-0 L 4.95,-0 L 4.95,-6 L 5.00572,-6.53017
 L 5.17046,-7.03717 L 5.437,-7.49884 L 5.79372,-7.895 L 6.22499,-8.20836 L 6.71201,-8.42519 L 7.23344,-8.53603
 L 7.76654,-8.53603 L 8.28798,-8.42519 L 8.77499,-8.20836 L 9.20627,-7.895 L 9.56299,-7.49884 L 9.82953,-7.03717
 L 9.99426,-6.53017 L 10.05,-6 L 10.05,-0 L 200.521,-0 L 200.521,-6 L 200.577,-6.53017
 L 200.742,-7.03717 L 201.008,-7.49884 L 201.365,-7.895 L 201.796,-8.20836 L 202.283,-8.42519 L 202.805,-8.53603
 L 203.338,-8.53603 L 203.859,-8.42519 L 204.346,-8.20836 L 204.778,-7.895 L 205.134,-7.49884 L 205.401,-7.03717
 L 205.566,-6.53017 L 205.621,-6 L 205.621,-0 L 396.093,-0 L 396.093,-6 L 396.149,-6.53017
 L 396.313,-7.03717 L 396.58,-7.49884 L 396.937,-7.895 L 397.368,-8.20836 L 397.855,-8.42519 L 398.376,-8.53603
 L 398.909,-8.53603 L 399.431,-8.42519 L 399.918,-8.20836 L 400.349,-7.895 L 400.706,-7.49884 L 400.972,-7.03717
 L 401.137,-6.53017 L 401.193,-6 L 401.193,-0 L 591.664,-0 L 591.664,-6 L 591.72,-6.53017
 L 591.885,-7.03717 L 592.151,-7.49884 L 592.508,-7.895 L 592.939,-8.20836 L 593.426,-8.42519 L 593.948,-8.53603
 L 594.481,-8.53603 L 595.002,-8.42519 L 595.489,-8.20836 L 595.921,-7.895 L 596.277,-7.49884 L 596.544,-7.03717
 L 596.709,-6.53017 L 596.764,-6 L 596.764,-0 L 787.236,-0 L 787.236,-6 L 787.291,-6.53017
 L 787.456,-7.03717 L 787.723,-7.49884 L 788.079,-7.895 L 788.511,-8.20836 L 788.998,-8.42519 L 789.519,-8.53603
 L 790.052,-8.53603 L 790.574,-8.42519 L 791.061,-8.20836 L 791.492,-7.895 L 791.849,-7.49884 L 792.115,-7.03717
 L 792.28,-6.53017 L 792.336,-6 L 792.336,-0 L 982.807,-0 L 982.807,-6 L 982.863,-6.53017
 L 983.028,-7.03717 L 983.294,-7.49884 L 983.651,-7.895 L 984.082,-8.20836 L 984.569,-8.42519 L 985.091,-8.53603
 L 985.624,-8.53603 L 986.145,-8.42519 L 986.632,-8.20836 L 987.063,-7.895 L 987.42,-7.49884 L 987.687,-7.03717
 L 987.851,-6.53017 L 987.907,-6 L 987.907,-0 L 1178.38,-0 L 1178.38,-6 L 1178.43,-6.53017
 L 1178.6,-7.03717 L 1178.87,-7.49884 L 1179.22,-7.895 L 1179.65,-8.20836 L 1180.14,-8.42519 L 1180.66,-8.53603
 L 1181.2,-8.53603 L 1181.72,-8.42519 L 1182.2,-8.20836 L 1182.63,-7.895 L 1182.99,-7.49884 L 1183.26,-7.03717
 L 1183.42,-6.53017 L 1183.48,-6 L 1183.48,-0 L 1373.95,-0 L 1373.95,-6 L 1374.01,-6.53017
 L 1374.17,-7.03717 L 1374.44,-7.49884 L 1374.79,-7.895 L 1375.22,-8.20836 L 1375.71,-8.42519 L 1376.23,-8.53603
 L 1376.77,-8.53603 L 1377.29,-8.42519 L 1377.77,-8.20836 L 1378.21,-7.895 L 1378.56,-7.49884 L 1378.83,-7.03717
 L 1378.99,-6.53017 L 1379.05,-6 L 1379.05,-0 L 1384,-0 z
M 6.98573,-55.607 L 6.47708,-55.6875 L 5.97964,-55.8208 L 5.49887,-56.0054 L 5.04001,-56.2392 L 4.60811,-56.5196
 L 4.20789,-56.8437 L 3.84373,-57.2079 L 3.51964,-57.6081 L 3.23917,-58.04 L 3.00537,-58.4989 L 2.82082,-58.9796
 L 2.68752,-59.4771 L 2.60696,-59.9857 L 2.58,-60.5 L 2.60696,-61.0143 L 2.68752,-61.5229 L 2.82082,-62.0204
 L 3.00537,-62.5011 L 3.23917,-62.96 L 3.51964,-63.3919 L 3.84373,-63.7921 L 4.20789,-64.1563 L 4.60811,-64.4804
 L 4.95001,-64.7024 L 4.95001,-74 L 5.00574,-74.5302 L 5.17047,-75.0372 L 5.43701,-75.4988 L 5.79373,-75.895
 L 6.22501,-76.2084 L 6.71202,-76.4252 L 7.23346,-76.536 L 7.76654,-76.536 L 8.28798,-76.4252 L 8.77499,-76.2084
 L 9.20627,-75.895 L 9.56299,-75.4988 L 9.82953,-75.0372 L 9.99426,-74.5302 L 10.05,-74 L 10.05,-64.7024
 L 10.3919,-64.4804 L 10.7921,-64.1563 L 11.1563,-63.7921 L 11.4804,-63.3919 L 11.7608,-62.96 L 11.9946,-62.5011
 L 12.1792,-62.0204 L 12.3125,-61.5229 L 12.393,-61.0143 L 12.42,-60.5 L 12.393,-59.9857 L 12.3125,-59.4771
 L 12.1792,-58.9796 L 11.9946,-58.4989 L 11.7608,-58.04 L 11.4804,-57.6081 L 11.1563,-57.2079 L 10.7921,-56.8437
 L 10.3919,-56.5196 L 9.95999,-56.2392 L 9.50113,-56.0054 L 9.02036,-55.8208 L 8.52292,-55.6875 L 8.01427,-55.607
 L 7.5,-55.58 z
M 202.557,-55.607 L 202.049,-55.6875 L 201.551,-55.8208 L 201.07,-56.0054 L 200.611,-56.2392 L 200.18,-56.5196
 L 199.779,-56.8437 L 199.415,-57.2079 L 199.091,-57.6081 L 198.811,-58.04 L 198.577,-58.4989 L 198.392,-58.9796
 L 198.259,-59.4771 L 198.178,-59.9857 L 198.151,-60.5 L 198.178,-61.0143 L 198.259,-61.5229 L 198.392,-62.0204
 L 198.577,-62.5011 L 198.811,-62.96 L 199.091,-63.3919 L 199.415,-63.7921 L 199.779,-64.1563 L 200.18,-64.4804
 L 200.521,-64.7024 L 200.521,-74 L 200.577,-74.5302 L 200.742,-75.0372 L 201.008,-75.4988 L 201.365,-75.895
 L 201.796,-76.2084 L 202.283,-76.4252 L 202.805,-76.536 L 203.338,-76.536 L 203.859,-76.4252 L 204.346,-76.2084
 L 204.778,-75.895 L 205.134,-75.4988 L 205.401,-75.0372 L 205.566,-74.5302 L 205.621,-74 L 205.621,-64.7024
 L 205.963,-64.4804 L 206.364,-64.1563 L 206.728,-63.7921 L 207.052,-63.3919 L 207.332,-62.96 L 207.566,-62.5011
 L 207.751,-62.0204 L 207.884,-61.5229 L 207.964,-61.0143 L 207.991,-60.5 L 207.964,-59.9857 L 207.884,-59.4771
 L 207.751,-58.9796 L 207.566,-58.4989 L 207.332,-58.04 L 207.052,-57.6081 L 206.728,-57.2079 L 206.364,-56.8437
 L 205.963,-56.5196 L 205.531,-56.2392 L 205.073,-56.0054 L 204.592,-55.8208 L 204.094,-55.6875 L 203.586,-55.607
 L 203.071,-55.58 z
M 398.129,-55.607 L 397.62,-55.6875 L 397.122,-55.8208 L 396.642,-56.0054 L 396.183,-56.2392 L 395.751,-56.5196
 L 395.351,-56.8437 L 394.987,-57.2079 L 394.662,-57.6081 L 394.382,-58.04 L 394.148,-58.4989 L 393.964,-58.9796
 L 393.83,-59.4771 L 393.75,-59.9857 L 393.723,-60.5 L 393.75,-61.0143 L 393.83,-61.5229 L 393.964,-62.0204
 L 394.148,-62.5011 L 394.382,-62.96 L 394.662,-63.3919 L 394.987,-63.7921 L 395.351,-64.1563 L 395.751,-64.4804
 L 396.093,-64.7024 L 396.093,-74 L 396.149,-74.5302 L 396.313,-75.0372 L 396.58,-75.4988 L 396.937,-75.895
 L 397.368,-76.2084 L 397.855,-76.4252 L 398.376,-76.536 L 398.909,-76.536 L 399.431,-76.4252 L 399.918,-76.2084
 L 400.349,-75.895 L 400.706,-75.4988 L 400.972,-75.0372 L 401.137,-74.5302 L 401.193,-74 L 401.193,-64.7024
 L 401.535,-64.4804 L 401.935,-64.1563 L 402.299,-63.7921 L 402.623,-63.3919 L 402.904,-62.96 L 403.137,-62.5011
 L 403.322,-62.0204 L 403.455,-61.5229 L 403.536,-61.0143 L 403.563,-60.5 L 403.536,-59.9857 L 403.455,-59.4771
 L 403.322,-58.9796 L 403.137,-58.4989 L 402.904,-58.04 L 402.623,-57.6081 L 402.299,-57.2079 L 401.935,-56.8437
 L 401.535,-56.5196 L 401.103,-56.2392 L 400.644,-56.0054 L 400.163,-55.8208 L 399.666,-55.6875 L 399.157,-55.607
 L 398.643,-55.58 z
M 593.7,-55.607 L 593.191,-55.6875 L 592.694,-55.8208 L 592.213,-56.0054 L 591.754,-56.2392 L 591.322,-56.5196
 L 590.922,-56.8437 L 590.558,-57.2079 L 590.234,-57.6081 L 589.953,-58.04 L 589.72,-58.4989 L 589.535,-58.9796
 L 589.402,-59.4771 L 589.321,-59.9857 L 589.294,-60.5 L 589.321,-61.0143 L 589.402,-61.5229 L 589.535,-62.0204
 L 589.72,-62.5011 L 589.953,-62.96 L 590.234,-63.3919 L 590.558,-63.7921 L 590.922,-64.1563 L 591.322,-64.4804
 L 591.664,-64.7024 L 591.664,-74 L 591.72,-74.5302 L 591.885,-75.0372 L 592.151,-75.4988 L 592.508,-75.895
 L 592.939,-76.2084 L 593.426,-76.4252 L 593.948,-76.536 L 594.481,-76.536 L 595.002,-76.4252 L 595.489,-76.2084
 L 595.921,-75.895 L 596.277,-75.4988 L 596.544,-75.0372 L 596.709,-74.5302 L 596.764,-74 L 596.764,-64.7024
 L 597.106,-64.4804 L 597.506,-64.1563 L 597.871,-63.7921 L 598.195,-63.3919 L 598.475,-62.96 L 598.709,-62.5011
 L 598.893,-62.0204 L 599.027,-61.5229 L 599.107,-61.0143 L 599.134,-60.5 L 599.107,-59.9857 L 599.027,-59.4771
 L 598.893,-58.9796 L 598.709,-58.4989 L 598.475,-58.04 L 598.195,-57.6081 L 597.871,-57.2079 L 597.506,-56.8437
 L 597.106,-56.5196 L 596.674,-56.2392 L 596.215,-56.0054 L 595.735,-55.8208 L 595.237,-55.6875 L 594.729,-55.607
 L 594.214,-55.58 z
M 789.271,-55.607 L 788.763,-55.6875 L 788.265,-55.8208 L 787.785,-56.0054 L 787.326,-56.2392 L 786.894,-56.5196
 L 786.494,-56.8437 L 786.129,-57.2079 L 785.805,-57.6081 L 785.525,-58.04 L 785.291,-58.4989 L 785.107,-58.9796
 L 784.973,-59.4771 L 784.893,-59.9857 L 784.866,-60.5 L 784.893,-61.0143 L 784.973,-61.5229 L 785.107,-62.0204
 L 785.291,-62.5011 L 785.525,-62.96 L 785.805,-63.3919 L 786.129,-63.7921 L 786.494,-64.1563 L 786.894,-64.4804
 L 787.236,-64.7024 L 787.236,-74 L 787.291,-74.5302 L 787.456,-75.0372 L 787.723,-75.4988 L 788.079,-75.895
 L 788.511,-76.2084 L 788.998,-76.4252 L 789.519,-76.536 L 790.052,-76.536 L 790.574,-76.4252 L 791.061,-76.2084
 L 791.492,-75.895 L 791.849,-75.4988 L 792.115,-75.0372 L 792.28,-74.5302 L 792.336,-74 L 792.336,-64.7024
 L 792.678,-64.4804 L 793.078,-64.1563 L 793.442,-63.7921 L 793.766,-63.3919 L 794.047,-62.96 L 794.28,-62.5011
 L 794.465,-62.0204 L 794.598,-61.5229 L 794.679,-61.0143 L 794.706,-60.5 L 794.679,-59.9857 L 794.598,-59.4771
 L 794.465,-58.9796 L 794.28,-58.4989 L 794.047,-58.04 L 793.766,-57.6081 L 793.442,-57.2079 L 793.078,-56.8437
 L 792.678,-56.5196 L 792.246,-56.2392 L 791.787,-56.0054 L 791.306,-55.8208 L 790.809,-55.6875 L 790.3,-55.607
 L 789.786,-55.58 z
M 984.843,-55.607 L 984.334,-55.6875 L 983.837,-55.8208 L 983.356,-56.0054 L 982.897,-56.2392 L 982.465,-56.5196
 L 982.065,-56.8437 L 981.701,-57.2079 L 981.377,-57.6081 L 981.096,-58.04 L 980.863,-58.4989 L 980.678,-58.9796
 L 980.545,-59.4771 L 980.464,-59.9857 L 980.437,-60.5 L 980.464,-61.0143 L 980.545,-61.5229 L 980.678,-62.0204
 L 980.863,-62.5011 L 981.096,-62.96 L 981.377,-63.3919 L 981.701,-63.7921 L 982.065,-64.1563 L 982.465,-64.4804
 L 982.807,-64.7024 L 982.807,-74 L 982.863,-74.5302 L 983.028,-75.0372 L 983.294,-75.4988 L 983.651,-75.895
 L 984.082,-76.2084 L 984.569,-76.4252 L 985.091,-76.536 L 985.624,-76.536 L 986.145,-76.4252 L 986.632,-76.2084
 L 987.063,-75.895 L 987.42,-75.4988 L 987.687,-75.0372 L 987.851,-74.5302 L 987.907,-74 L 987.907,-64.7024
 L 988.249,-64.4804 L 988.649,-64.1563 L 989.013,-63.7921 L 989.337,-63.3919 L 989.618,-62.96 L 989.852,-62.5011
 L 990.036,-62.0204 L 990.17,-61.5229 L 990.25,-61.0143 L 990.277,-60.5 L 990.25,-59.9857 L 990.17,-59.4771
 L 990.036,-58.9796 L 989.852,-58.4989 L 989.618,-58.04 L 989.337,-57.6081 L 989.013,-57.2079 L 988.649,-56.8437
 L 988.249,-56.5196 L 987.817,-56.2392 L 987.358,-56.0054 L 986.877,-55.8208 L 986.38,-55.6875 L 985.871,-55.607
 L 985.357,-55.58 z
M 1180.41,-55.607 L 1179.91,-55.6875 L 1179.41,-55.8208 L 1178.93,-56.0054 L 1178.47,-56.2392 L 1178.04,-56.5196
 L 1177.64,-56.8437 L 1177.27,-57.2079 L 1176.95,-57.6081 L 1176.67,-58.04 L 1176.43,-58.4989 L 1176.25,-58.9796
 L 1176.12,-59.4771 L 1176.04,-59.9857 L 1176.01,-60.5 L 1176.04,-61.0143 L 1176.12,-61.5229 L 1176.25,-62.0204
 L 1176.43,-62.5011 L 1176.67,-62.96 L 1176.95,-63.3919 L 1177.27,-63.7921 L 1177.64,-64.1563 L 1178.04,-64.4804
 L 1178.38,-64.7024 L 1178.38,-74 L 1178.43,-74.5302 L 1178.6,-75.0372 L 1178.87,-75.4988 L 1179.22,-75.895
 L 1179.65,-76.2084 L 1180.14,-76.4252 L 1180.66,-76.536 L 1181.2,-76.536 L 1181.72,-76.4252 L 1182.2,-76.2084
 L 1182.63,-75.895 L 1182.99,-75.4988 L 1183.26,-75.0372 L 1183.42,-74.5302 L 1183.48,-74 L 1183.48,-64.7024
 L 1183.82,-64.4804 L 1184.22,-64.1563 L 1184.58,-63.7921 L 1184.91,-63.3919 L 1185.19,-62.96 L 1185.42,-62.5011
 L 1185.61,-62.0204 L 1185.74,-61.5229 L 1185.82,-61.0143 L 1185.85,-60.5 L 1185.82,-59.9857 L 1185.74,-59.4771
 L 1185.61,-58.9796 L 1185.42,-58.4989 L 1185.19,-58.04 L 1184.91,-57.6081 L 1184.58,-57.2079 L 1184.22,-56.8437
 L 1183.82,-56.5196 L 1183.39,-56.2392 L 1182.93,-56.0054 L 1182.45,-55.8208 L 1181.95,-55.6875 L 1181.44,-55.607
 L 1180.93,-55.58 z
M 1375.99,-55.607 L 1375.48,-55.6875 L 1374.98,-55.8208 L 1374.5,-56.0054 L 1374.04,-56.2392 L 1373.61,-56.5196
 L 1373.21,-56.8437 L 1372.84,-57.2079 L 1372.52,-57.6081 L 1372.24,-58.04 L 1372.01,-58.4989 L 1371.82,-58.9796
 L 1371.69,-59.4771 L 1371.61,-59.9857 L 1371.58,-60.5 L 1371.61,-61.0143 L 1371.69,-61.5229 L 1371.82,-62.0204
 L 1372.01,-62.5011 L 1372.24,-62.96 L 1372.52,-63.3919 L 1372.84,-63.7921 L 1373.21,-64.1563 L 1373.61,-64.4804
 L 1373.95,-64.7024 L 1373.95,-74 L 1374.01,-74.5302 L 1374.17,-75.0372 L 1374.44,-75.4988 L 1374.79,-75.895
 L 1375.23,-76.2084 L 1375.71,-76.4252 L 1376.23,-76.536 L 1376.77,-76.536 L 1377.29,-76.4252 L 1377.77,-76.2084
 L 1378.21,-75.895 L 1378.56,-75.4988 L 1378.83,-75.0372 L 1378.99,-74.5302 L 1379.05,-74 L 1379.05,-64.7024
 L 1379.39,-64.4804 L 1379.79,-64.1563 L 1380.16,-63.7921 L 1380.48,-63.3919 L 1380.76,-62.96 L 1380.99,-62.5011
 L 1381.18,-62.0204 L 1381.31,-61.5229 L 1381.39,-61.0143 L 1381.42,-60.5 L 1381.39,-59.9857 L 1381.31,-59.4771
 L 1381.18,-58.9796 L 1380.99,-58.4989 L 1380.76,-58.04 L 1380.48,-57.6081 L 1380.16,-57.2079 L 1379.79,-56.8437
 L 1379.39,-56.5196 L 1378.96,-56.2392 L 1378.5,-56.0054 L 1378.02,-55.8208 L 1377.52,-55.6875 L 1377.01,-55.607
 L 1376.5,-55.58 z
M 801.628,-20.4519 L 800.857,-20.7763 L 800.171,-21.2539 L 799.598,-21.8637 L 799.166,-22.5792 L 798.891,-23.3691
 L 798.786,-24.2806 L 798.786,-58 L 798.873,-58.8316 L 799.132,-59.627 L 799.55,-60.3511 L 800.109,-60.9726
 L 800.786,-61.4641 L 801.55,-61.8042 L 802.786,-62 L 899.764,-62 L 900.596,-61.9126 L 901.391,-61.6542
 L 902.116,-61.2361 L 902.737,-60.6765 L 903.229,-60 L 903.569,-59.2361 L 903.743,-58.4181 L 903.743,-57.5819
 L 903.569,-56.7639 L 903.229,-56 L 902.737,-55.3235 L 902.116,-54.7639 L 901.078,-54.2219 L 804.099,-20.5025
 L 803.285,-20.3119 L 802.449,-20.2948 z
M 691.501,-47.6748 L 690.686,-47.8654 L 672.405,-54.2219 L 671.367,-54.7639 L 670.746,-55.3235 L 670.254,-56
 L 669.914,-56.7639 L 669.74,-57.5819 L 669.74,-58.4181 L 669.914,-59.2361 L 670.254,-60 L 670.746,-60.6765
 L 671.367,-61.2361 L 672.091,-61.6542 L 672.887,-61.9126 L 673.718,-62 L 710.282,-62 L 711.44,-61.8287
 L 712.21,-61.5043 L 712.897,-61.0267 L 713.469,-60.4169 L 713.902,-59.7014 L 714.176,-58.9115 L 714.281,-58.0818
 L 714.21,-57.2486 L 713.968,-56.4482 L 713.565,-55.7156 L 713.018,-55.0828 L 712.352,-54.5775 L 711.595,-54.2219
 L 693.314,-47.8654 L 692.337,-47.6577 z
M 580.715,-20.3119 L 579.901,-20.5025 L 482.922,-54.2219 L 481.884,-54.7639 L 481.263,-55.3235 L 480.771,-56
 L 480.431,-56.7639 L 480.257,-57.5819 L 480.257,-58.4181 L 480.431,-59.2361 L 480.771,-60 L 481.263,-60.6765
 L 481.884,-61.2361 L 482.609,-61.6542 L 483.404,-61.9126 L 484.236,-62 L 581.214,-62 L 582.45,-61.8042
 L 583.214,-61.4641 L 583.891,-60.9726 L 584.45,-60.3511 L 584.868,-59.627 L 585.127,-58.8316 L 585.214,-58
 L 585.214,-24.2806 L 585.109,-23.3691 L 584.834,-22.5792 L 584.402,-21.8637 L 583.829,-21.2539 L 583.143,-20.7763
 L 582.372,-20.4519 L 581.551,-20.2948 z
M 385.143,-20.3119 L 384.329,-20.5025 L 287.35,-54.2219 L 286.313,-54.7639 L 285.692,-55.3235 L 285.2,-56
 L 284.86,-56.7639 L 284.686,-57.5819 L 284.686,-58.4181 L 284.86,-59.2361 L 285.2,-60 L 285.692,-60.6765
 L 286.313,-61.2361 L 287.037,-61.6542 L 287.832,-61.9126 L 288.664,-62 L 385.643,-62 L 386.879,-61.8042
 L 387.643,-61.4641 L 388.319,-60.9726 L 388.879,-60.3511 L 389.297,-59.627 L 389.555,-58.8316 L 389.643,-58
 L 389.643,-24.2806 L 389.538,-23.3691 L 389.263,-22.5792 L 388.83,-21.8637 L 388.258,-21.2539 L 387.572,-20.7763
 L 386.801,-20.4519 L 385.979,-20.2948 z
M 1192.77,-20.4519 L 1192,-20.7763 L 1191.31,-21.2539 L 1190.74,-21.8637 L 1190.31,-22.5792 L 1190.03,-23.3691
 L 1189.93,-24.2806 L 1189.93,-58 L 1190.02,-58.8316 L 1190.27,-59.627 L 1190.69,-60.3511 L 1191.25,-60.9726
 L 1191.93,-61.4641 L 1192.69,-61.8042 L 1193.93,-62 L 1290.91,-62 L 1291.74,-61.9126 L 1292.53,-61.6542
 L 1293.26,-61.2361 L 1293.88,-60.6765 L 1294.37,-60 L 1294.71,-59.2361 L 1294.89,-58.4181 L 1294.89,-57.5819
 L 1294.71,-56.7639 L 1294.37,-56 L 1293.88,-55.3235 L 1293.26,-54.7639 L 1292.22,-54.2219 L 1195.24,-20.5025
 L 1194.43,-20.3119 L 1193.59,-20.2948 z
M 189.572,-20.3119 L 188.758,-20.5025 L 91.7791,-54.2219 L 90.7416,-54.7639 L 90.1201,-55.3235 L 89.6286,-56
 L 89.2885,-56.7639 L 89.1146,-57.5819 L 89.1146,-58.4181 L 89.2885,-59.2361 L 89.6286,-60 L 90.1201,-60.6765
 L 90.7416,-61.2361 L 91.4658,-61.6542 L 92.2611,-61.9126 L 93.0927,-62 L 190.071,-62 L 191.307,-61.8042
 L 192.071,-61.4641 L 192.748,-60.9726 L 193.307,-60.3511 L 193.726,-59.627 L 193.984,-58.8316 L 194.071,-58
 L 194.071,-24.2806 L 193.966,-23.3691 L 193.692,-22.5792 L 193.259,-21.8637 L 192.687,-21.2539 L 192,-20.7763
 L 191.229,-20.4519 L 190.408,-20.2948 z
M 997.199,-20.4519 L 996.428,-20.7763 L 995.742,-21.2539 L 995.17,-21.8637 L 994.737,-22.5792 L 994.462,-23.3691
 L 994.357,-24.2806 L 994.357,-58 L 994.445,-58.8316 L 994.703,-59.627 L 995.121,-60.3511 L 995.681,-60.9726
 L 996.357,-61.4641 L 997.121,-61.8042 L 998.357,-62 L 1095.34,-62 L 1096.17,-61.9126 L 1096.96,-61.6542
 L 1097.69,-61.2361 L 1098.31,-60.6765 L 1098.8,-60 L 1099.14,-59.2361 L 1099.31,-58.4181 L 1099.31,-57.5819
 L 1099.14,-56.7639 L 1098.8,-56 L 1098.31,-55.3235 L 1097.69,-54.7639 L 1096.65,-54.2219 L 999.671,-20.5025
 L 998.857,-20.3119 L 998.021,-20.2948 z
M 606.796,-18.1855 L 605.978,-18.3594 L 605.214,-18.6995 L 604.538,-19.191 L 603.978,-19.8125 L 603.56,-20.5367
 L 603.302,-21.332 L 603.214,-22.1636 L 603.214,-57.8364 L 603.32,-58.7479 L 603.594,-59.5378 L 604.027,-60.2533
 L 604.599,-60.8631 L 605.286,-61.3407 L 606.056,-61.6651 L 606.878,-61.8222 L 607.714,-61.8051 L 608.528,-61.6145
 L 659.826,-43.7781 L 660.441,-43.5043 L 661.128,-43.0267 L 661.7,-42.4169 L 662.133,-41.7014 L 662.407,-40.9115
 L 662.512,-40.0818 L 662.441,-39.2486 L 662.199,-38.4482 L 661.796,-37.7156 L 661.249,-37.0828 L 660.583,-36.5775
 L 659.826,-36.2219 L 608.528,-18.3855 L 607.632,-18.1855 z
M 776.286,-18.1949 L 775.472,-18.3855 L 724.174,-36.2219 L 723.559,-36.4957 L 722.872,-36.9733 L 722.3,-37.5831
 L 721.867,-38.2986 L 721.593,-39.0885 L 721.488,-39.9182 L 721.559,-40.7514 L 721.801,-41.5518 L 722.204,-42.2844
 L 722.751,-42.9172 L 723.417,-43.4225 L 724.174,-43.7781 L 775.472,-61.6145 L 776.368,-61.8145 L 777.204,-61.8145
 L 778.022,-61.6406 L 778.786,-61.3005 L 779.462,-60.809 L 780.022,-60.1875 L 780.44,-59.4634 L 780.698,-58.6681
 L 780.786,-57.8364 L 780.786,-22.1636 L 780.68,-21.2521 L 780.406,-20.4622 L 779.973,-19.7467 L 779.401,-19.1369
 L 778.714,-18.6593 L 777.944,-18.3349 L 777.122,-18.1778 z
M 216.071,-18 L 214.835,-18.1958 L 214.071,-18.5359 L 213.395,-19.0274 L 212.835,-19.6489 L 212.417,-20.373
 L 212.159,-21.1684 L 212.071,-22 L 212.071,-55.7194 L 212.177,-56.6309 L 212.451,-57.4208 L 212.884,-58.1363
 L 213.456,-58.7461 L 214.143,-59.2237 L 214.913,-59.5481 L 215.735,-59.7052 L 216.571,-59.6881 L 217.385,-59.4975
 L 314.364,-25.7781 L 315.401,-25.2361 L 316.023,-24.6765 L 316.514,-24 L 316.854,-23.2361 L 317.028,-22.4181
 L 317.028,-21.5819 L 316.854,-20.7639 L 316.514,-20 L 316.023,-19.3235 L 315.401,-18.7639 L 314.677,-18.3458
 L 313.882,-18.0874 L 313.05,-18 z
M 411.643,-18 L 410.407,-18.1958 L 409.643,-18.5359 L 408.966,-19.0274 L 408.407,-19.6489 L 407.989,-20.373
 L 407.73,-21.1684 L 407.643,-22 L 407.643,-55.7194 L 407.748,-56.6309 L 408.023,-57.4208 L 408.456,-58.1363
 L 409.028,-58.7461 L 409.714,-59.2237 L 410.485,-59.5481 L 411.306,-59.7052 L 412.142,-59.6881 L 412.957,-59.4975
 L 509.935,-25.7781 L 510.973,-25.2361 L 511.594,-24.6765 L 512.086,-24 L 512.426,-23.2361 L 512.6,-22.4181
 L 512.6,-21.5819 L 512.426,-20.7639 L 512.086,-20 L 511.594,-19.3235 L 510.973,-18.7639 L 510.248,-18.3458
 L 509.453,-18.0874 L 508.622,-18 z
M 875.378,-18 L 874.547,-18.0874 L 873.751,-18.3458 L 873.027,-18.7639 L 872.406,-19.3235 L 871.914,-20
 L 871.574,-20.7639 L 871.4,-21.5819 L 871.4,-22.4181 L 871.574,-23.2361 L 871.914,-24 L 872.406,-24.6765
 L 873.027,-25.2361 L 874.065,-25.7781 L 971.043,-59.4975 L 971.858,-59.6881 L 972.694,-59.7052 L 973.515,-59.5481
 L 974.286,-59.2237 L 974.972,-58.7461 L 975.544,-58.1363 L 975.977,-57.4208 L 976.252,-56.6309 L 976.357,-55.7194
 L 976.357,-22 L 976.27,-21.1684 L 976.011,-20.373 L 975.593,-19.6489 L 975.034,-19.0274 L 974.357,-18.5359
 L 973.593,-18.1958 L 972.357,-18 z
M 1070.95,-18 L 1070.12,-18.0874 L 1069.32,-18.3458 L 1068.6,-18.7639 L 1067.98,-19.3235 L 1067.49,-20
 L 1067.15,-20.7639 L 1066.97,-21.5819 L 1066.97,-22.4181 L 1067.15,-23.2361 L 1067.49,-24 L 1067.98,-24.6765
 L 1068.6,-25.2361 L 1069.64,-25.7781 L 1166.61,-59.4975 L 1167.43,-59.6881 L 1168.27,-59.7052 L 1169.09,-59.5481
 L 1169.86,-59.2237 L 1170.54,-58.7461 L 1171.12,-58.1363 L 1171.55,-57.4208 L 1171.82,-56.6309 L 1171.93,-55.7194
 L 1171.93,-22 L 1171.84,-21.1684 L 1171.58,-20.373 L 1171.16,-19.6489 L 1170.61,-19.0274 L 1169.93,-18.5359
 L 1169.16,-18.1958 L 1167.93,-18 z
M 22,-18 L 20.7639,-18.1958 L 20,-18.5359 L 19.3235,-19.0274 L 18.7639,-19.6489 L 18.3458,-20.373
 L 18.0874,-21.1684 L 18,-22 L 18,-55.1978 L 18.1052,-56.1094 L 18.3799,-56.8992 L 18.8127,-57.6147
 L 19.3849,-58.2246 L 20.0713,-58.7021 L 20.842,-59.0266 L 21.6634,-59.1837 L 22.4994,-59.1665 L 23.3137,-58.976
 L 118.792,-25.7781 L 119.83,-25.2361 L 120.451,-24.6765 L 120.943,-24 L 121.283,-23.2361 L 121.457,-22.4181
 L 121.457,-21.5819 L 121.283,-20.7639 L 120.943,-20 L 120.451,-19.3235 L 119.83,-18.7639 L 119.106,-18.3458
 L 118.31,-18.0874 L 117.479,-18 z
M 1266.52,-18 L 1265.69,-18.0874 L 1264.89,-18.3458 L 1264.17,-18.7639 L 1263.55,-19.3235 L 1263.06,-20
 L 1262.72,-20.7639 L 1262.54,-21.5819 L 1262.54,-22.4181 L 1262.72,-23.2361 L 1263.06,-24 L 1263.55,-24.6765
 L 1264.17,-25.2361 L 1265.21,-25.7781 L 1360.69,-58.976 L 1361.5,-59.1665 L 1362.34,-59.1837 L 1363.16,-59.0266
 L 1363.93,-58.7021 L 1364.62,-58.2246 L 1365.19,-57.6147 L 1365.62,-56.8992 L 1365.89,-56.1094 L 1366,-55.1978
 L 1366,-22 L 1365.91,-21.1684 L 1365.65,-20.373 L 1365.24,-19.6489 L 1364.68,-19.0274 L 1364,-18.5359
 L 1363.24,-18.1958 L 1362,-18 z
M 673.718,-18 L 672.56,-18.1713 L 671.79,-18.4957 L 671.103,-18.9733 L 670.531,-19.5831 L 670.098,-20.2986
 L 669.824,-21.0885 L 669.719,-21.9182 L 669.79,-22.7514 L 670.032,-23.5518 L 670.435,-24.2844 L 670.982,-24.9172
 L 671.648,-25.4225 L 672.405,-25.7781 L 690.686,-32.1346 L 691.663,-32.3423 L 692.499,-32.3252 L 693.314,-32.1346
 L 711.595,-25.7781 L 712.633,-25.2361 L 713.254,-24.6765 L 713.746,-24 L 714.086,-23.2361 L 714.26,-22.4181
 L 714.26,-21.5819 L 714.086,-20.7639 L 713.746,-20 L 713.254,-19.3235 L 712.633,-18.7639 L 711.909,-18.3458
 L 711.113,-18.0874 L 710.282,-18 z
" stroke="black" fill="lightgray" stroke-width="0.5"/>
</svg>
