<?xml version="1.0" standalone="no"?>
<!DOCTYPE svg PUBLIC "-//W3C//DTD SVG 1.1//EN" "http://www.w3.org/Graphics/SVG/1.1/DTD/svg11.dtd">
<svg width="1306mm" height="80mm" viewBox="0 -80 1306 80" xmlns="http://www.w3.org/2000/svg" version="1.1">
<title>OpenSCAD Model</title>
<path d="
M 1306,-80 L 0,-80 L 0,-0 L 4.95,-0 L 4.95,-6 L 5.00572,-6.53017
 L 5.17046,-7.03717 L 5.437,-7.49884 L 5.79372,-7.895 L 6.22499,-8.20836 L 6.71201,-8.42519 L 7.23344,-8.53603
 L 7.76654,-8.53603 L 8.28798,-8.42519 L 8.77499,-8.20836 L 9.20627,-7.895 L 9.56299,-7.49884 L 9.82953,-7.03717
 L 9.99426,-6.53017 L 10.05,-6 L 10.05,-0 L 189.379,-0 L 189.379,-6 L 189.434,-6.53017
 L 189.599,-7.03717 L 189.866,-7.49884 L 190.222,-7.895 L 190.654,-8.20836 L 191.141,-8.42519 L 191.662,-8.53603
 L 192.195,-8.53603 L 192.717,-8.42519 L 193.204,-8.20836 L 193.635,-7.895 L 193.992,-7.49884 L 194.258,-7.03717
 L 194.423,-6.53017 L 194.479,-6 L 194.479,-0 L 373.807,-0 L 373.807,-6 L 373.863,-6.53017
 L 374.028,-7.03717 L 374.294,-7.49884 L 374.651,-7.895 L 375.082,-8.20836 L 375.569,-8.42519 L 376.091,-8.53603
 L 376.624,-8.53603 L 377.145,-8.42519 L 377.632,-8.20836 L 378.063,-7.895 L 378.42,-7.49884 L 378.687,-7.03717
 L 378.851,-6.53017 L 378.907,-6 L 378.907,-0 L 558.236,-0 L 558.236,-6 L 558.291,-6.53017
 L 558.456,-7.03717 L 558.723,-7.49884 L 559.079,-7.895 L 559.511,-8.20836 L 559.998,-8.42519 L 560.519,-8.53603
 L 561.052,-8.53603 L 561.574,-8.42519 L 562.061,-8.20836 L 562.492,-7.895 L 562.849,-7.49884 L 563.115,-7.03717
 L 563.28,-6.53017 L 563.336,-6 L 563.336,-0 L 742.664,-0 L 742.664,-6 L 742.72,-6.53017
 L 742.885,-7.03717 L 743.151,-7.49884 L 743.508,-7.895 L 743.939,-8.20836 L 744.426,-8.42519 L 744.948,-8.53603
 L 745.481,-8.53603 L 746.002,-8.42519 L 746.489,-8.20836 L 746.921,-7.895 L 747.277,-7.49884 L 747.544,-7.03717
 L 747.709,-6.53017 L 747.764,-6 L 747.764,-0 L 927.093,-0 L 927.093,-6 L 927.149,-6.53017
 L 927.313,-7.03717 L 927.58,-7.49884 L 927.937,-7.895 L 928.368,-8.20836 L 928.855,-8.42519 L 929.376,-8.53603
 L 929.909,-8.53603 L 930.431,-8.42519 L 930.918,-8.20836 L 931.349,-7.895 L 931.706,-7.49884 L 931.972,-7.03717
 L 932.137,-6.53017 L 932.193,-6 L 932.193,-0 L 1111.52,-0 L 1111.52,-6 L 1111.58,-6.53017
 L 1111.74,-7.03717 L 1112.01,-7.49884 L 1112.37,-7.895 L 1112.8,-8.20836 L 1113.28,-8.42519 L 1113.8,-8.53603
 L 1114.34,-8.53603 L 1114.86,-8.42519 L 1115.35,-8.20836 L 1115.78,-7.895 L 1116.13,-7.49884 L 1116.4,-7.03717
 L 1116.57,-6.53017 L 1116.62,-6 L 1116.62,-0 L 1295.95,-0 L 1295.95,-6 L 1296.01,-6.53017
 L 1296.17,-7.03717 L 1296.44,-7.49884 L 1296.79,-7.895 L 1297.22,-8.20836 L 1297.71,-8.42519 L 1298.23,-8.53603
 L 1298.77,-8.53603 L 1299.29,-8.42519 L 1299.77,-8.20836 L 1300.21,-7.895 L 1300.56,-7.49884 L 1300.83,-7.03717
 L 1300.99,-6.53017 L 1301.05,-6 L 1301.05,-0 L 1306,-0 z
M 6.98573,-55.607 L 6.47708,-55.6875 L 5.97964,-55.8208 L 5.49887,-56.0054 L 5.04001,-56.2392 L 4.60811,-56.5196
 L 4.20789,-56.8437 L 3.84373,-57.2079 L 3.51964,-57.6081 L 3.23917,-58.04 L 3.00537,-58.4989 L 2.82082,-58.9796
 L 2.68752,-59.4771 L 2.60696,-59.9857 L 2.58,-60.5 L 2.60696,-61.0143 L 2.68752,-61.5229 L 2.82082,-62.0204
 L 3.00537,-62.5011 L 3.23917,-62.96 L 3.51964,-63.3919 L 3.84373,-63.7921 L 4.20789,-64.1563 L 4.60811,-64.4804
 L 4.95001,-64.7024 L 4.95001,-74 L 5.00574,-74.5302 L 5.17047,-75.0372 L 5.43701,-75.4988 L 5.79373,-75.895
 L 6.22501,-76.2084 L 6.71202,-76.4252 L 7.23346,-76.536 L 7.76654,-76.536 L 8.28798,-76.4252 L 8.77499,-76.2084
 L 9.20627,-75.895 L 9.56299,-75.4988 L 9.82953,-75.0372 L 9.99426,-74.5302 L 10.05,-74 L 10.05,-64.7024
 L 10.3919,-64.4804 L 10.7921,-64.1563 L 11.1563,-63.7921 L 11.4804,-63.3919 L 11.7608,-62.96 L 11.9946,-62.5011
 L 12.1792,-62.0204 L 12.3125,-61.5229 L 12.393,-61.0143 L 12.42,-60.5 L 12.393,-59.9857 L 12.3125,-59.4771
 L 12.1792,-58.9796 L 11.9946,-58.4989 L 11.7608,-58.04 L 11.4804,-57.6081 L 11.1563,-57.2079 L 10.7921,-56.8437
 L 10.3919,-56.5196 L 9.95999,-56.2392 L 9.50113,-56.0054 L 9.02036,-55.8208 L 8.52292,-55.6875 L 8.01427,-55.607
 L 7.5,-55.58 z
M 191.414,-55.607 L 190.906,-55.6875 L 190.408,-55.8208 L 189.927,-56.0054 L 189.469,-56.2392 L 189.037,-56.5196
 L 188.636,-56.8437 L 188.272,-57.2079 L 187.948,-57.6081 L 187.668,-58.04 L 187.434,-58.4989 L 187.249,-58.9796
 L 187.116,-59.4771 L 187.036,-59.9857 L 187.009,-60.5 L 187.036,-61.0143 L 187.116,-61.5229 L 187.249,-62.0204
 L 187.434,-62.5011 L 187.668,-62.96 L 187.948,-63.3919 L 188.272,-63.7921 L 188.636,-64.1563 L 189.037,-64.4804
 L 189.379,-64.7024 L 189.379,-74 L 189.434,-74.5302 L 189.599,-75.0372 L 189.866,-75.4988 L 190.222,-75.895
 L 190.654,-76.2084 L 191.141,-76.4252 L 191.662,-76.536 L 192.195,-76.536 L 192.717,-76.4252 L 193.204,-76.2084
 L 193.635,-75.895 L 193.992,-75.4988 L 194.258,-75.0372 L 194.423,-74.5302 L 194.479,-74 L 194.479,-64.7024
 L 194.82,-64.4804 L 195.221,-64.1563 L 195.585,-63.7921 L 195.909,-63.3919 L 196.189,-62.96 L 196.423,-62.5011
 L 196.608,-62.0204 L 196.741,-61.5229 L 196.822,-61.0143 L 196.849,-60.5 L 196.822,-59.9857 L 196.741,-59.4771
 L 196.608,-58.9796 L 196.423,-58.4989 L 196.189,-58.04 L 195.909,-57.6081 L 195.585,-57.2079 L 195.221,-56.8437
 L 194.82,-56.5196 L 194.389,-56.2392 L 193.93,-56.0054 L 193.449,-55.8208 L 192.951,-55.6875 L 192.443,-55.607
 L 191.929,-55.58 z
M 375.843,-55.607 L 375.334,-55.6875 L 374.837,-55.8208 L 374.356,-56.0054 L 373.897,-56.2392 L 373.465,-56.5196
 L 373.065,-56.8437 L 372.701,-57.2079 L 372.377,-57.6081 L 372.096,-58.04 L 371.863,-58.4989 L 371.678,-58.9796
 L 371.545,-59.4771 L 371.464,-59.9857 L 371.437,-60.5 L 371.464,-61.0143 L 371.545,-61.5229 L 371.678,-62.0204
 L 371.863,-62.5011 L 372.096,-62.96 L 372.377,-63.3919 L 372.701,-63.7921 L 373.065,-64.1563 L 373.465,-64.4804
 L 373.807,-64.7024 L 373.807,-74 L 373.863,-74.5302 L 374.028,-75.0372 L 374.294,-75.4988 L 374.651,-75.895
 L 375.082,-76.2084 L 375.569,-76.4252 L 376.091,-76.536 L 376.624,-76.536 L 377.145,-76.4252 L 377.632,-76.2084
 L 378.063,-75.895 L 378.42,-75.4988 L 378.687,-75.0372 L 378.851,-74.5302 L 378.907,-74 L 378.907,-64.7024
 L 379.249,-64.4804 L 379.649,-64.1563 L 380.013,-63.7921 L 380.337,-63.3919 L 380.618,-62.96 L 380.852,-62.5011
 L 381.036,-62.0204 L 381.17,-61.5229 L 381.25,-61.0143 L 381.277,-60.5 L 381.25,-59.9857 L 381.17,-59.4771
 L 381.036,-58.9796 L 380.852,-58.4989 L 380.618,-58.04 L 380.337,-57.6081 L 380.013,-57.2079 L 379.649,-56.8437
 L 379.249,-56.5196 L 378.817,-56.2392 L 378.358,-56.0054 L 377.877,-55.8208 L 377.38,-55.6875 L 376.871,-55.607
 L 376.357,-55.58 z
M 560.271,-55.607 L 559.763,-55.6875 L 559.265,-55.8208 L 558.785,-56.0054 L 558.326,-56.2392 L 557.894,-56.5196
 L 557.494,-56.8437 L 557.129,-57.2079 L 556.805,-57.6081 L 556.525,-58.04 L 556.291,-58.4989 L 556.107,-58.9796
 L 555.973,-59.4771 L 555.893,-59.9857 L 555.866,-60.5 L 555.893,-61.0143 L 555.973,-61.5229 L 556.107,-62.0204
 L 556.291,-62.5011 L 556.525,-62.96 L 556.805,-63.3919 L 557.129,-63.7921 L 557.494,-64.1563 L 557.894,-64.4804
 L 558.236,-64.7024 L 558.236,-74 L 558.291,-74.5302 L 558.456,-75.0372 L 558.723,-75.4988 L 559.079,-75.895
 L 559.511,-76.2084 L 559.998,-76.4252 L 560.519,-76.536 L 561.052,-76.536 L 561.574,-76.4252 L 562.061,-76.2084
 L 562.492,-75.895 L 562.849,-75.4988 L 563.115,-75.0372 L 563.28,-74.5302 L 563.336,-74 L 563.336,-64.7024
 L 563.678,-64.4804 L 564.078,-64.1563 L 564.442,-63.7921 L 564.766,-63.3919 L 565.047,-62.96 L 565.28,-62.5011
 L 565.465,-62.0204 L 565.598,-61.5229 L 565.679,-61.0143 L 565.706,-60.5 L 565.679,-59.9857 L 565.598,-59.4771
 L 565.465,-58.9796 L 565.28,-58.4989 L 565.047,-58.04 L 564.766,-57.6081 L 564.442,-57.2079 L 564.078,-56.8437
 L 563.678,-56.5196 L 563.246,-56.2392 L 562.787,-56.0054 L 562.306,-55.8208 L 561.809,-55.6875 L 561.3,-55.607
 L 560.786,-55.58 z
M 744.7,-55.607 L 744.191,-55.6875 L 743.694,-55.8208 L 743.213,-56.0054 L 742.754,-56.2392 L 742.322,-56.5196
 L 741.922,-56.8437 L 741.558,-57.2079 L 741.234,-57.6081 L 740.953,-58.04 L 740.72,-58.4989 L 740.535,-58.9796
 L 740.402,-59.4771 L 740.321,-59.9857 L 740.294,-60.5 L 740.321,-61.0143 L 740.402,-61.5229 L 740.535,-62.0204
 L 740.72,-62.5011 L 740.953,-62.96 L 741.234,-63.3919 L 741.558,-63.7921 L 741.922,-64.1563 L 742.322,-64.4804
 L 742.664,-64.7024 L 742.664,-74 L 742.72,-74.5302 L 742.885,-75.0372 L 743.151,-75.4988 L 743.508,-75.895
 L 743.939,-76.2084 L 744.426,-76.4252 L 744.948,-76.536 L 745.481,-76.536 L 746.002,-76.4252 L 746.489,-76.2084
 L 746.921,-75.895 L 747.277,-75.4988 L 747.544,-75.0372 L 747.709,-74.5302 L 747.764,-74 L 747.764,-64.7024
 L 748.106,-64.4804 L 748.506,-64.1563 L 748.871,-63.7921 L 749.195,-63.3919 L 749.475,-62.96 L 749.709,-62.5011
 L 749.893,-62.0204 L 750.027,-61.5229 L 750.107,-61.0143 L 750.134,-60.5 L 750.107,-59.9857 L 750.027,-59.4771
 L 749.893,-58.9796 L 749.709,-58.4989 L 749.475,-58.04 L 749.195,-57.6081 L 748.871,-57.2079 L 748.506,-56.8437
 L 748.106,-56.5196 L 747.674,-56.2392 L 747.215,-56.0054 L 746.735,-55.8208 L 746.237,-55.6875 L 745.729,-55.607
 L 745.214,-55.58 z
M 929.129,-55.607 L 928.62,-55.6875 L 928.122,-55.8208 L 927.642,-56.0054 L 927.183,-56.2392 L 926.751,-56.5196
 L 926.351,-56.8437 L 925.987,-57.2079 L 925.662,-57.6081 L 925.382,-58.04 L 925.148,-58.4989 L 924.964,-58.9796
 L 924.83,-59.4771 L 924.75,-59.9857 L 924.723,-60.5 L 924.75,-61.0143 L 924.83,-61.5229 L 924.964,-62.0204
 L 925.148,-62.5011 L 925.382,-62.96 L 925.662,-63.3919 L 925.987,-63.7921 L 926.351,-64.1563 L 926.751,-64.4804
 L 927.093,-64.7024 L 927.093,-74 L 927.149,-74.5302 L 927.313,-75.0372 L 927.58,-75.4988 L 927.937,-75.895
 L 928.368,-76.2084 L 928.855,-76.4252 L 929.376,-76.536 L 929.909,-76.536 L 930.431,-76.4252 L 930.918,-76.2084
 L 931.349,-75.895 L 931.706,-75.4988 L 931.972,-75.0372 L 932.137,-74.5302 L 932.193,-74 L 932.193,-64.7024
 L 932.535,-64.4804 L 932.935,-64.1563 L 933.299,-63.7921 L 933.623,-63.3919 L 933.904,-62.96 L 934.137,-62.5011
 L 934.322,-62.0204 L 934.455,-61.5229 L 934.536,-61.0143 L 934.563,-60.5 L 934.536,-59.9857 L 934.455,-59.4771
 L 934.322,-58.9796 L 934.137,-58.4989 L 933.904,-58.04 L 933.623,-57.6081 L 933.299,-57.2079 L 932.935,-56.8437
 L 932.535,-56.5196 L 932.103,-56.2392 L 931.644,-56.0054 L 931.163,-55.8208 L 930.666,-55.6875 L 930.157,-55.607
 L 929.643,-55.58 z
M 1113.56,-55.607 L 1113.05,-55.6875 L 1112.55,-55.8208 L 1112.07,-56.0054 L 1111.61,-56.2392 L 1111.18,-56.5196
 L 1110.78,-56.8437 L 1110.42,-57.2079 L 1110.09,-57.6081 L 1109.81,-58.04 L 1109.58,-58.4989 L 1109.39,-58.9796
 L 1109.26,-59.4771 L 1109.18,-59.9857 L 1109.15,-60.5 L 1109.18,-61.0143 L 1109.26,-61.5229 L 1109.39,-62.0204
 L 1109.58,-62.5011 L 1109.81,-62.96 L 1110.09,-63.3919 L 1110.42,-63.7921 L 1110.78,-64.1563 L 1111.18,-64.4804
 L 1111.52,-64.7024 L 1111.52,-74 L 1111.58,-74.5302 L 1111.74,-75.0372 L 1112.01,-75.4988 L 1112.37,-75.895
 L 1112.8,-76.2084 L 1113.28,-76.4252 L 1113.8,-76.536 L 1114.34,-76.536 L 1114.86,-76.4252 L 1115.35,-76.2084
 L 1115.78,-75.895 L 1116.13,-75.4988 L 1116.4,-75.0372 L 1116.57,-74.5302 L 1116.62,-74 L 1116.62,-64.7024
 L 1116.96,-64.4804 L 1117.36,-64.1563 L 1117.73,-63.7921 L 1118.05,-63.3919 L 1118.33,-62.96 L 1118.57,-62.5011
 L 1118.75,-62.0204 L 1118.88,-61.5229 L 1118.96,-61.0143 L 1118.99,-60.5 L 1118.96,-59.9857 L 1118.88,-59.4771
 L 1118.75,-58.9796 L 1118.57,-58.4989 L 1118.33,-58.04 L 1118.05,-57.6081 L 1117.73,-57.2079 L 1117.36,-56.8437
 L 1116.96,-56.5196 L 1116.53,-56.2392 L 1116.07,-56.0054 L 1115.59,-55.8208 L 1115.09,-55.6875 L 1114.59,-55.607
 L 1114.07,-55.58 z
M 1297.99,-55.607 L 1297.48,-55.6875 L 1296.98,-55.8208 L 1296.5,-56.0054 L 1296.04,-56.2392 L 1295.61,-56.5196
 L 1295.21,-56.8437 L 1294.84,-57.2079 L 1294.52,-57.6081 L 1294.24,-58.04 L 1294.01,-58.4989 L 1293.82,-58.9796
 L 1293.69,-59.4771 L 1293.61,-59.9857 L 1293.58,-60.5 L 1293.61,-61.0143 L 1293.69,-61.5229 L 1293.82,-62.0204
 L 1294.01,-62.5011 L 1294.24,-62.96 L 1294.52,-63.3919 L 1294.84,-63.7921 L 1295.21,-64.1563 L 1295.61,-64.4804
 L 1295.95,-64.7024 L 1295.95,-74 L 1296.01,-74.5302 L 1296.17,-75.0372 L 1296.44,-75.4988 L 1296.79,-75.895
 L 1297.23,-76.2084 L 1297.71,-76.4252 L 1298.23,-76.536 L 1298.77,-76.536 L 1299.29,-76.4252 L 1299.77,-76.2084
 L 1300.21,-75.895 L 1300.56,-75.4988 L 1300.83,-75.0372 L 1300.99,-74.5302 L 1301.05,-74 L 1301.05,-64.7024
 L 1301.39,-64.4804 L 1301.79,-64.1563 L 1302.16,-63.7921 L 1302.48,-63.3919 L 1302.76,-62.96 L 1302.99,-62.5011
 L 1303.18,-62.0204 L 1303.31,-61.5229 L 1303.39,-61.0143 L 1303.42,-60.5 L 1303.39,-59.9857 L 1303.31,-59.4771
 L 1303.18,-58.9796 L 1302.99,-58.4989 L 1302.76,-58.04 L 1302.48,-57.6081 L 1302.16,-57.2079 L 1301.79,-56.8437
 L 1301.39,-56.5196 L 1300.96,-56.2392 L 1300.5,-56.0054 L 1300.02,-55.8208 L 1299.52,-55.6875 L 1299.01,-55.607
 L 1298.5,-55.58 z
M 757.128,-20.7885 L 756.351,-21.0985 L 755.656,-21.5632 L 755.073,-22.1623 L 754.626,-22.8696 L 754.337,-23.6542
 L 754.214,-24.6381 L 754.214,-58 L 754.302,-58.8316 L 754.56,-59.627 L 754.978,-60.3511 L 755.538,-60.9726
 L 756.214,-61.4641 L 756.978,-61.8042 L 758.214,-62 L 848.698,-62 L 849.53,-61.9126 L 850.325,-61.6542
 L 851.049,-61.2361 L 851.671,-60.6765 L 852.162,-60 L 852.502,-59.2361 L 852.676,-58.4181 L 852.676,-57.5819
 L 852.502,-56.7639 L 852.162,-56 L 851.671,-55.3235 L 851.049,-54.7639 L 850.082,-54.247 L 759.598,-20.8851
 L 758.788,-20.6794 L 757.952,-20.6467 z
M 652.427,-47.7562 L 651.616,-47.9619 L 634.57,-54.247 L 633.603,-54.7639 L 632.981,-55.3235 L 632.49,-56
 L 632.149,-56.7639 L 631.976,-57.5819 L 631.976,-58.4181 L 632.149,-59.2361 L 632.49,-60 L 632.981,-60.6765
 L 633.603,-61.2361 L 634.327,-61.6542 L 635.122,-61.9126 L 635.954,-62 L 670.046,-62 L 671.133,-61.8496
 L 671.909,-61.5396 L 672.605,-61.0749 L 673.188,-60.4758 L 673.634,-59.7685 L 673.923,-58.9839 L 674.043,-58.1563
 L 673.988,-57.3219 L 673.761,-56.5171 L 673.372,-55.7771 L 672.837,-55.1343 L 672.18,-54.6167 L 671.43,-54.247
 L 654.384,-47.9619 L 653.262,-47.7235 z
M 547.212,-20.6794 L 546.402,-20.8851 L 455.918,-54.247 L 454.951,-54.7639 L 454.329,-55.3235 L 453.838,-56
 L 453.498,-56.7639 L 453.324,-57.5819 L 453.324,-58.4181 L 453.498,-59.2361 L 453.838,-60 L 454.329,-60.6765
 L 454.951,-61.2361 L 455.675,-61.6542 L 456.47,-61.9126 L 457.302,-62 L 547.786,-62 L 549.022,-61.8042
 L 549.786,-61.4641 L 550.462,-60.9726 L 551.022,-60.3511 L 551.44,-59.627 L 551.698,-58.8316 L 551.786,-58
 L 551.786,-24.6381 L 551.663,-23.6542 L 551.374,-22.8696 L 550.927,-22.1623 L 550.344,-21.5632 L 549.649,-21.0985
 L 548.872,-20.7885 L 548.048,-20.6467 z
M 362.784,-20.6794 L 361.973,-20.8851 L 271.49,-54.247 L 270.522,-54.7639 L 269.901,-55.3235 L 269.409,-56
 L 269.069,-56.7639 L 268.895,-57.5819 L 268.895,-58.4181 L 269.069,-59.2361 L 269.409,-60 L 269.901,-60.6765
 L 270.522,-61.2361 L 271.246,-61.6542 L 272.042,-61.9126 L 272.873,-62 L 363.357,-62 L 364.593,-61.8042
 L 365.357,-61.4641 L 366.034,-60.9726 L 366.593,-60.3511 L 367.011,-59.627 L 367.27,-58.8316 L 367.357,-58
 L 367.357,-24.6381 L 367.234,-23.6542 L 366.945,-22.8696 L 366.499,-22.1623 L 365.915,-21.5632 L 365.22,-21.0985
 L 364.444,-20.7885 L 363.619,-20.6467 z
M 1125.98,-20.7885 L 1125.21,-21.0985 L 1124.51,-21.5632 L 1123.93,-22.1623 L 1123.48,-22.8696 L 1123.19,-23.6542
 L 1123.07,-24.6381 L 1123.07,-58 L 1123.16,-58.8316 L 1123.42,-59.627 L 1123.84,-60.3511 L 1124.39,-60.9726
 L 1125.07,-61.4641 L 1125.84,-61.8042 L 1127.07,-62 L 1217.56,-62 L 1218.39,-61.9126 L 1219.18,-61.6542
 L 1219.91,-61.2361 L 1220.53,-60.6765 L 1221.02,-60 L 1221.36,-59.2361 L 1221.53,-58.4181 L 1221.53,-57.5819
 L 1221.36,-56.7639 L 1221.02,-56 L 1220.53,-55.3235 L 1219.91,-54.7639 L 1218.94,-54.247 L 1128.46,-20.8851
 L 1127.64,-20.6794 L 1126.81,-20.6467 z
M 178.355,-20.6794 L 177.545,-20.8851 L 87.0611,-54.247 L 86.0937,-54.7639 L 85.4723,-55.3235 L 84.9808,-56
 L 84.6406,-56.7639 L 84.4668,-57.5819 L 84.4668,-58.4181 L 84.6406,-59.2361 L 84.9808,-60 L 85.4723,-60.6765
 L 86.0937,-61.2361 L 86.8179,-61.6542 L 87.6132,-61.9126 L 88.4449,-62 L 178.929,-62 L 180.165,-61.8042
 L 180.929,-61.4641 L 181.605,-60.9726 L 182.165,-60.3511 L 182.583,-59.627 L 182.841,-58.8316 L 182.929,-58
 L 182.929,-24.6381 L 182.806,-23.6542 L 182.516,-22.8696 L 182.07,-22.1623 L 181.487,-21.5632 L 180.792,-21.0985
 L 180.015,-20.7885 L 179.191,-20.6467 z
M 941.556,-20.7885 L 940.78,-21.0985 L 940.085,-21.5632 L 939.501,-22.1623 L 939.055,-22.8696 L 938.766,-23.6542
 L 938.643,-24.6381 L 938.643,-58 L 938.73,-58.8316 L 938.989,-59.627 L 939.407,-60.3511 L 939.966,-60.9726
 L 940.643,-61.4641 L 941.407,-61.8042 L 942.643,-62 L 1033.13,-62 L 1033.96,-61.9126 L 1034.75,-61.6542
 L 1035.48,-61.2361 L 1036.1,-60.6765 L 1036.59,-60 L 1036.93,-59.2361 L 1037.1,-58.4181 L 1037.1,-57.5819
 L 1036.93,-56.7639 L 1036.59,-56 L 1036.1,-55.3235 L 1035.48,-54.7639 L 1034.51,-54.247 L 944.027,-20.8851
 L 943.216,-20.6794 L 942.381,-20.6467 z
M 573.368,-18.53 L 572.55,-18.7039 L 571.786,-19.044 L 571.109,-19.5355 L 570.55,-20.157 L 570.132,-20.8811
 L 569.873,-21.6765 L 569.786,-22.5081 L 569.786,-57.4919 L 569.909,-58.4758 L 570.198,-59.2604 L 570.644,-59.9677
 L 571.227,-60.5668 L 571.923,-61.0315 L 572.699,-61.3415 L 573.523,-61.4833 L 574.359,-61.4506 L 575.169,-61.2449
 L 622.611,-43.753 L 623.09,-43.5396 L 623.785,-43.0749 L 624.369,-42.4758 L 624.815,-41.7685 L 625.104,-40.9839
 L 625.224,-40.1563 L 625.169,-39.3219 L 624.942,-38.5171 L 624.552,-37.7771 L 624.018,-37.1343 L 623.361,-36.6167
 L 622.611,-36.247 L 575.169,-18.7551 L 574.204,-18.53 z
M 731.641,-18.5494 L 730.831,-18.7551 L 683.389,-36.247 L 682.91,-36.4604 L 682.215,-36.9251 L 681.631,-37.5242
 L 681.185,-38.2315 L 680.896,-39.0161 L 680.776,-39.8437 L 680.831,-40.6781 L 681.058,-41.4829 L 681.448,-42.2229
 L 681.982,-42.8657 L 682.639,-43.3833 L 683.389,-43.753 L 730.831,-61.2449 L 731.796,-61.47 L 732.632,-61.47
 L 733.45,-61.2961 L 734.214,-60.956 L 734.891,-60.4645 L 735.45,-59.843 L 735.868,-59.1189 L 736.127,-58.3236
 L 736.214,-57.4919 L 736.214,-22.5081 L 736.091,-21.5242 L 735.802,-20.7396 L 735.356,-20.0323 L 734.773,-19.4332
 L 734.077,-18.9685 L 733.301,-18.6585 L 732.477,-18.5167 z
M 204.929,-18 L 203.692,-18.1958 L 202.929,-18.5359 L 202.252,-19.0274 L 201.692,-19.6489 L 201.274,-20.373
 L 201.016,-21.1684 L 200.929,-22 L 200.929,-55.3619 L 201.051,-56.3458 L 201.341,-57.1304 L 201.787,-57.8377
 L 202.37,-58.4368 L 203.065,-58.9015 L 203.842,-59.2115 L 204.666,-59.3533 L 205.502,-59.3206 L 206.312,-59.1149
 L 296.796,-25.753 L 297.763,-25.2361 L 298.385,-24.6765 L 298.876,-24 L 299.216,-23.2361 L 299.39,-22.4181
 L 299.39,-21.5819 L 299.216,-20.7639 L 298.876,-20 L 298.385,-19.3235 L 297.763,-18.7639 L 297.039,-18.3458
 L 296.244,-18.0874 L 295.412,-18 z
M 389.357,-18 L 388.121,-18.1958 L 387.357,-18.5359 L 386.681,-19.0274 L 386.121,-19.6489 L 385.703,-20.373
 L 385.445,-21.1684 L 385.357,-22 L 385.357,-55.3619 L 385.48,-56.3458 L 385.769,-57.1304 L 386.215,-57.8377
 L 386.799,-58.4368 L 387.494,-58.9015 L 388.271,-59.2115 L 389.095,-59.3533 L 389.93,-59.3206 L 390.741,-59.1149
 L 481.225,-25.753 L 482.192,-25.2361 L 482.813,-24.6765 L 483.305,-24 L 483.645,-23.2361 L 483.819,-22.4181
 L 483.819,-21.5819 L 483.645,-20.7639 L 483.305,-20 L 482.813,-19.3235 L 482.192,-18.7639 L 481.468,-18.3458
 L 480.672,-18.0874 L 479.841,-18 z
M 826.159,-18 L 825.328,-18.0874 L 824.532,-18.3458 L 823.808,-18.7639 L 823.187,-19.3235 L 822.695,-20
 L 822.355,-20.7639 L 822.181,-21.5819 L 822.181,-22.4181 L 822.355,-23.2361 L 822.695,-24 L 823.187,-24.6765
 L 823.808,-25.2361 L 824.775,-25.753 L 915.259,-59.1149 L 916.07,-59.3206 L 916.905,-59.3533 L 917.729,-59.2115
 L 918.506,-58.9015 L 919.201,-58.4368 L 919.785,-57.8377 L 920.231,-57.1304 L 920.52,-56.3458 L 920.643,-55.3619
 L 920.643,-22 L 920.555,-21.1684 L 920.297,-20.373 L 919.879,-19.6489 L 919.319,-19.0274 L 918.643,-18.5359
 L 917.879,-18.1958 L 916.643,-18 z
M 1010.59,-18 L 1009.76,-18.0874 L 1008.96,-18.3458 L 1008.24,-18.7639 L 1007.62,-19.3235 L 1007.12,-20
 L 1006.78,-20.7639 L 1006.61,-21.5819 L 1006.61,-22.4181 L 1006.78,-23.2361 L 1007.12,-24 L 1007.62,-24.6765
 L 1008.24,-25.2361 L 1009.2,-25.753 L 1099.69,-59.1149 L 1100.5,-59.3206 L 1101.33,-59.3533 L 1102.16,-59.2115
 L 1102.93,-58.9015 L 1103.63,-58.4368 L 1104.21,-57.8377 L 1104.66,-57.1304 L 1104.95,-56.3458 L 1105.07,-55.3619
 L 1105.07,-22 L 1104.98,-21.1684 L 1104.73,-20.373 L 1104.31,-19.6489 L 1103.75,-19.0274 L 1103.07,-18.5359
 L 1102.31,-18.1958 L 1101.07,-18 z
M 22,-18 L 20.7639,-18.1958 L 20,-18.5359 L 19.3235,-19.0274 L 18.7639,-19.6489 L 18.3458,-20.373
 L 18.0874,-21.1684 L 18,-22 L 18,-54.8089 L 18.1229,-55.7927 L 18.4122,-56.5773 L 18.8583,-57.2846
 L 19.4417,-57.8837 L 20.1369,-58.3484 L 20.9135,-58.6585 L 21.7376,-58.8002 L 22.5732,-58.7676 L 23.3838,-58.5619
 L 112.367,-25.753 L 113.335,-25.2361 L 113.956,-24.6765 L 114.448,-24 L 114.788,-23.2361 L 114.962,-22.4181
 L 114.962,-21.5819 L 114.788,-20.7639 L 114.448,-20 L 113.956,-19.3235 L 113.335,-18.7639 L 112.611,-18.3458
 L 111.815,-18.0874 L 110.984,-18 z
M 1195.02,-18 L 1194.18,-18.0874 L 1193.39,-18.3458 L 1192.67,-18.7639 L 1192.04,-19.3235 L 1191.55,-20
 L 1191.21,-20.7639 L 1191.04,-21.5819 L 1191.04,-22.4181 L 1191.21,-23.2361 L 1191.55,-24 L 1192.04,-24.6765
 L 1192.67,-25.2361 L 1193.63,-25.753 L 1282.62,-58.5619 L 1283.43,-58.7676 L 1284.26,-58.8002 L 1285.09,-58.6585
 L 1285.86,-58.3484 L 1286.56,-57.8837 L 1287.14,-57.2846 L 1287.59,-56.5773 L 1287.88,-55.7927 L 1288,-54.8089
 L 1288,-22 L 1287.91,-21.1684 L 1287.65,-20.373 L 1287.24,-19.6489 L 1286.68,-19.0274 L 1286,-18.5359
 L 1285.24,-18.1958 L 1284,-18 z
M 635.954,-18 L 634.867,-18.1504 L 634.091,-18.4604 L 633.395,-18.9251 L 632.812,-19.5242 L 632.366,-20.2315
 L 632.077,-21.0161 L 631.957,-21.8437 L 632.012,-22.6781 L 632.239,-23.4829 L 632.628,-24.2229 L 633.163,-24.8657
 L 633.82,-25.3833 L 634.57,-25.753 L 651.616,-32.0381 L 652.738,-32.2765 L 653.573,-32.2438 L 654.384,-32.0381
 L 671.43,-25.753 L 672.397,-25.2361 L 673.019,-24.6765 L 673.51,-24 L 673.851,-23.2361 L 674.024,-22.4181
 L 674.024,-21.5819 L 673.851,-20.7639 L 673.51,-20 L 673.019,-19.3235 L 672.397,-18.7639 L 671.673,-18.3458
 L 670.878,-18.0874 L 670.046,-18 z
" stroke="black" fill="lightgray" stroke-width="0.5"/>
</svg>
