<?xml version="1.0" standalone="no"?>
<!DOCTYPE svg PUBLIC "-//W3C//DTD SVG 1.1//EN" "http://www.w3.org/Graphics/SVG/1.1/DTD/svg11.dtd">
<svg width="1503mm" height="80mm" viewBox="0 -80 1503 80" xmlns="http://www.w3.org/2000/svg" version="1.1">
<title>OpenSCAD Model</title>
<path d="
M 1503,-80 L 0,-80 L 0,-0 L 4.95,-0 L 4.95,-6 L 5.00572,-6.53017
 L 5.17046,-7.03717 L 5.437,-7.49884 L 5.79372,-7.895 L 6.22499,-8.20836 L 6.71201,-8.42519 L 7.23344,-8.53603
 L 7.76654,-8.53603 L 8.28798,-8.42519 L 8.77499,-8.20836 L 9.20627,-7.895 L 9.56299,-7.49884 L 9.82953,-7.03717
 L 9.99426,-6.53017 L 10.05,-6 L 10.05,-0 L 190.95,-0 L 190.95,-6 L 191.006,-6.53017
 L 191.17,-7.03717 L 191.437,-7.49884 L 191.794,-7.895 L 192.225,-8.20836 L 192.712,-8.42519 L 193.233,-8.53603
 L 193.767,-8.53603 L 194.288,-8.42519 L 194.775,-8.20836 L 195.206,-7.895 L 195.563,-7.49884 L 195.83,-7.03717
 L 195.994,-6.53017 L 196.05,-6 L 196.05,-0 L 376.95,-0 L 376.95,-6 L 377.006,-6.53017
 L 377.17,-7.03717 L 377.437,-7.49884 L 377.794,-7.895 L 378.225,-8.20836 L 378.712,-8.42519 L 379.233,-8.53603
 L 379.767,-8.53603 L 380.288,-8.42519 L 380.775,-8.20836 L 381.206,-7.895 L 381.563,-7.49884 L 381.83,-7.03717
 L 381.994,-6.53017 L 382.05,-6 L 382.05,-0 L 562.95,-0 L 562.95,-6 L 563.006,-6.53017
 L 563.17,-7.03717 L 563.437,-7.49884 L 563.794,-7.895 L 564.225,-8.20836 L 564.712,-8.42519 L 565.233,-8.53603
 L 565.767,-8.53603 L 566.288,-8.42519 L 566.775,-8.20836 L 567.206,-7.895 L 567.563,-7.49884 L 567.83,-7.03717
 L 567.994,-6.53017 L 568.05,-6 L 568.05,-0 L 748.95,-0 L 748.95,-6 L 749.006,-6.53017
 L 749.17,-7.03717 L 749.437,-7.49884 L 749.794,-7.895 L 750.225,-8.20836 L 750.712,-8.42519 L 751.233,-8.53603
 L 751.767,-8.53603 L 752.288,-8.42519 L 752.775,-8.20836 L 753.206,-7.895 L 753.563,-7.49884 L 753.83,-7.03717
 L 753.994,-6.53017 L 754.05,-6 L 754.05,-0 L 934.95,-0 L 934.95,-6 L 935.006,-6.53017
 L 935.17,-7.03717 L 935.437,-7.49884 L 935.794,-7.895 L 936.225,-8.20836 L 936.712,-8.42519 L 937.233,-8.53603
 L 937.767,-8.53603 L 938.288,-8.42519 L 938.775,-8.20836 L 939.206,-7.895 L 939.563,-7.49884 L 939.83,-7.03717
 L 939.994,-6.53017 L 940.05,-6 L 940.05,-0 L 1120.95,-0 L 1120.95,-6 L 1121.01,-6.53017
 L 1121.17,-7.03717 L 1121.44,-7.49884 L 1121.79,-7.895 L 1122.22,-8.20836 L 1122.71,-8.42519 L 1123.23,-8.53603
 L 1123.77,-8.53603 L 1124.29,-8.42519 L 1124.77,-8.20836 L 1125.21,-7.895 L 1125.56,-7.49884 L 1125.83,-7.03717
 L 1125.99,-6.53017 L 1126.05,-6 L 1126.05,-0 L 1306.95,-0 L 1306.95,-6 L 1307.01,-6.53017
 L 1307.17,-7.03717 L 1307.44,-7.49884 L 1307.79,-7.895 L 1308.22,-8.20836 L 1308.71,-8.42519 L 1309.23,-8.53603
 L 1309.77,-8.53603 L 1310.29,-8.42519 L 1310.77,-8.20836 L 1311.21,-7.895 L 1311.56,-7.49884 L 1311.83,-7.03717
 L 1311.99,-6.53017 L 1312.05,-6 L 1312.05,-0 L 1492.95,-0 L 1492.95,-6 L 1493.01,-6.53017
 L 1493.17,-7.03717 L 1493.44,-7.49884 L 1493.79,-7.895 L 1494.22,-8.20836 L 1494.71,-8.42519 L 1495.23,-8.53603
 L 1495.77,-8.53603 L 1496.29,-8.42519 L 1496.77,-8.20836 L 1497.21,-7.895 L 1497.56,-7.49884 L 1497.83,-7.03717
 L 1497.99,-6.53017 L 1498.05,-6 L 1498.05,-0 L 1503,-0 z
M 192.986,-55.607 L 192.477,-55.6875 L 191.98,-55.8208 L 191.499,-56.0054 L 191.04,-56.2392 L 190.608,-56.5196
 L 190.208,-56.8437 L 189.844,-57.2079 L 189.52,-57.6081 L 189.239,-58.04 L 189.005,-58.4989 L 188.821,-58.9796
 L 188.688,-59.4771 L 188.607,-59.9857 L 188.58,-60.5 L 188.607,-61.0143 L 188.688,-61.5229 L 188.821,-62.0204
 L 189.005,-62.5011 L 189.239,-62.96 L 189.52,-63.3919 L 189.844,-63.7921 L 190.208,-64.1563 L 190.608,-64.4804
 L 190.95,-64.7024 L 190.95,-74 L 191.006,-74.5302 L 191.17,-75.0372 L 191.437,-75.4988 L 191.794,-75.895
 L 192.225,-76.2084 L 192.712,-76.4252 L 193.233,-76.536 L 193.767,-76.536 L 194.288,-76.4252 L 194.775,-76.2084
 L 195.206,-75.895 L 195.563,-75.4988 L 195.83,-75.0372 L 195.994,-74.5302 L 196.05,-74 L 196.05,-64.7024
 L 196.392,-64.4804 L 196.792,-64.1563 L 197.156,-63.7921 L 197.48,-63.3919 L 197.761,-62.96 L 197.995,-62.5011
 L 198.179,-62.0204 L 198.312,-61.5229 L 198.393,-61.0143 L 198.42,-60.5 L 198.393,-59.9857 L 198.312,-59.4771
 L 198.179,-58.9796 L 197.995,-58.4989 L 197.761,-58.04 L 197.48,-57.6081 L 197.156,-57.2079 L 196.792,-56.8437
 L 196.392,-56.5196 L 195.96,-56.2392 L 195.501,-56.0054 L 195.02,-55.8208 L 194.523,-55.6875 L 194.014,-55.607
 L 193.5,-55.58 z
M 1122.99,-55.607 L 1122.48,-55.6875 L 1121.98,-55.8208 L 1121.5,-56.0054 L 1121.04,-56.2392 L 1120.61,-56.5196
 L 1120.21,-56.8437 L 1119.84,-57.2079 L 1119.52,-57.6081 L 1119.24,-58.04 L 1119.01,-58.4989 L 1118.82,-58.9796
 L 1118.69,-59.4771 L 1118.61,-59.9857 L 1118.58,-60.5 L 1118.61,-61.0143 L 1118.69,-61.5229 L 1118.82,-62.0204
 L 1119.01,-62.5011 L 1119.24,-62.96 L 1119.52,-63.3919 L 1119.84,-63.7921 L 1120.21,-64.1563 L 1120.61,-64.4804
 L 1120.95,-64.7024 L 1120.95,-74 L 1121.01,-74.5302 L 1121.17,-75.0372 L 1121.44,-75.4988 L 1121.79,-75.895
 L 1122.23,-76.2084 L 1122.71,-76.4252 L 1123.23,-76.536 L 1123.77,-76.536 L 1124.29,-76.4252 L 1124.77,-76.2084
 L 1125.21,-75.895 L 1125.56,-75.4988 L 1125.83,-75.0372 L 1125.99,-74.5302 L 1126.05,-74 L 1126.05,-64.7024
 L 1126.39,-64.4804 L 1126.79,-64.1563 L 1127.16,-63.7921 L 1127.48,-63.3919 L 1127.76,-62.96 L 1127.99,-62.5011
 L 1128.18,-62.0204 L 1128.31,-61.5229 L 1128.39,-61.0143 L 1128.42,-60.5 L 1128.39,-59.9857 L 1128.31,-59.4771
 L 1128.18,-58.9796 L 1127.99,-58.4989 L 1127.76,-58.04 L 1127.48,-57.6081 L 1127.16,-57.2079 L 1126.79,-56.8437
 L 1126.39,-56.5196 L 1125.96,-56.2392 L 1125.5,-56.0054 L 1125.02,-55.8208 L 1124.52,-55.6875 L 1124.01,-55.607
 L 1123.5,-55.58 z
M 936.986,-55.607 L 936.477,-55.6875 L 935.98,-55.8208 L 935.499,-56.0054 L 935.04,-56.2392 L 934.608,-56.5196
 L 934.208,-56.8437 L 933.844,-57.2079 L 933.52,-57.6081 L 933.239,-58.04 L 933.005,-58.4989 L 932.821,-58.9796
 L 932.688,-59.4771 L 932.607,-59.9857 L 932.58,-60.5 L 932.607,-61.0143 L 932.688,-61.5229 L 932.821,-62.0204
 L 933.005,-62.5011 L 933.239,-62.96 L 933.52,-63.3919 L 933.844,-63.7921 L 934.208,-64.1563 L 934.608,-64.4804
 L 934.95,-64.7024 L 934.95,-74 L 935.006,-74.5302 L 935.17,-75.0372 L 935.437,-75.4988 L 935.794,-75.895
 L 936.225,-76.2084 L 936.712,-76.4252 L 937.233,-76.536 L 937.767,-76.536 L 938.288,-76.4252 L 938.775,-76.2084
 L 939.206,-75.895 L 939.563,-75.4988 L 939.83,-75.0372 L 939.994,-74.5302 L 940.05,-74 L 940.05,-64.7024
 L 940.392,-64.4804 L 940.792,-64.1563 L 941.156,-63.7921 L 941.48,-63.3919 L 941.761,-62.96 L 941.995,-62.5011
 L 942.179,-62.0204 L 942.312,-61.5229 L 942.393,-61.0143 L 942.42,-60.5 L 942.393,-59.9857 L 942.312,-59.4771
 L 942.179,-58.9796 L 941.995,-58.4989 L 941.761,-58.04 L 941.48,-57.6081 L 941.156,-57.2079 L 940.792,-56.8437
 L 940.392,-56.5196 L 939.96,-56.2392 L 939.501,-56.0054 L 939.02,-55.8208 L 938.523,-55.6875 L 938.014,-55.607
 L 937.5,-55.58 z
M 6.98573,-55.607 L 6.47708,-55.6875 L 5.97964,-55.8208 L 5.49887,-56.0054 L 5.04001,-56.2392 L 4.60811,-56.5196
 L 4.20789,-56.8437 L 3.84373,-57.2079 L 3.51964,-57.6081 L 3.23917,-58.04 L 3.00537,-58.4989 L 2.82082,-58.9796
 L 2.68752,-59.4771 L 2.60696,-59.9857 L 2.58,-60.5 L 2.60696,-61.0143 L 2.68752,-61.5229 L 2.82082,-62.0204
 L 3.00537,-62.5011 L 3.23917,-62.96 L 3.51964,-63.3919 L 3.84373,-63.7921 L 4.20789,-64.1563 L 4.60811,-64.4804
 L 4.95001,-64.7024 L 4.95001,-74 L 5.00574,-74.5302 L 5.17047,-75.0372 L 5.43701,-75.4988 L 5.79373,-75.895
 L 6.22501,-76.2084 L 6.71202,-76.4252 L 7.23346,-76.536 L 7.76654,-76.536 L 8.28798,-76.4252 L 8.77499,-76.2084
 L 9.20627,-75.895 L 9.56299,-75.4988 L 9.82953,-75.0372 L 9.99426,-74.5302 L 10.05,-74 L 10.05,-64.7024
 L 10.3919,-64.4804 L 10.7921,-64.1563 L 11.1563,-63.7921 L 11.4804,-63.3919 L 11.7608,-62.96 L 11.9946,-62.5011
 L 12.1792,-62.0204 L 12.3125,-61.5229 L 12.393,-61.0143 L 12.42,-60.5 L 12.393,-59.9857 L 12.3125,-59.4771
 L 12.1792,-58.9796 L 11.9946,-58.4989 L 11.7608,-58.04 L 11.4804,-57.6081 L 11.1563,-57.2079 L 10.7921,-56.8437
 L 10.3919,-56.5196 L 9.95999,-56.2392 L 9.50113,-56.0054 L 9.02036,-55.8208 L 8.52292,-55.6875 L 8.01427,-55.607
 L 7.5,-55.58 z
M 750.986,-55.607 L 750.477,-55.6875 L 749.98,-55.8208 L 749.499,-56.0054 L 749.04,-56.2392 L 748.608,-56.5196
 L 748.208,-56.8437 L 747.844,-57.2079 L 747.52,-57.6081 L 747.239,-58.04 L 747.005,-58.4989 L 746.821,-58.9796
 L 746.688,-59.4771 L 746.607,-59.9857 L 746.58,-60.5 L 746.607,-61.0143 L 746.688,-61.5229 L 746.821,-62.0204
 L 747.005,-62.5011 L 747.239,-62.96 L 747.52,-63.3919 L 747.844,-63.7921 L 748.208,-64.1563 L 748.608,-64.4804
 L 748.95,-64.7024 L 748.95,-74 L 749.006,-74.5302 L 749.17,-75.0372 L 749.437,-75.4988 L 749.794,-75.895
 L 750.225,-76.2084 L 750.712,-76.4252 L 751.233,-76.536 L 751.767,-76.536 L 752.288,-76.4252 L 752.775,-76.2084
 L 753.206,-75.895 L 753.563,-75.4988 L 753.83,-75.0372 L 753.994,-74.5302 L 754.05,-74 L 754.05,-64.7024
 L 754.392,-64.4804 L 754.792,-64.1563 L 755.156,-63.7921 L 755.48,-63.3919 L 755.761,-62.96 L 755.995,-62.5011
 L 756.179,-62.0204 L 756.312,-61.5229 L 756.393,-61.0143 L 756.42,-60.5 L 756.393,-59.9857 L 756.312,-59.4771
 L 756.179,-58.9796 L 755.995,-58.4989 L 755.761,-58.04 L 755.48,-57.6081 L 755.156,-57.2079 L 754.792,-56.8437
 L 754.392,-56.5196 L 753.96,-56.2392 L 753.501,-56.0054 L 753.02,-55.8208 L 752.523,-55.6875 L 752.014,-55.607
 L 751.5,-55.58 z
M 1308.99,-55.607 L 1308.48,-55.6875 L 1307.98,-55.8208 L 1307.5,-56.0054 L 1307.04,-56.2392 L 1306.61,-56.5196
 L 1306.21,-56.8437 L 1305.84,-57.2079 L 1305.52,-57.6081 L 1305.24,-58.04 L 1305.01,-58.4989 L 1304.82,-58.9796
 L 1304.69,-59.4771 L 1304.61,-59.9857 L 1304.58,-60.5 L 1304.61,-61.0143 L 1304.69,-61.5229 L 1304.82,-62.0204
 L 1305.01,-62.5011 L 1305.24,-62.96 L 1305.52,-63.3919 L 1305.84,-63.7921 L 1306.21,-64.1563 L 1306.61,-64.4804
 L 1306.95,-64.7024 L 1306.95,-74 L 1307.01,-74.5302 L 1307.17,-75.0372 L 1307.44,-75.4988 L 1307.79,-75.895
 L 1308.23,-76.2084 L 1308.71,-76.4252 L 1309.23,-76.536 L 1309.77,-76.536 L 1310.29,-76.4252 L 1310.77,-76.2084
 L 1311.21,-75.895 L 1311.56,-75.4988 L 1311.83,-75.0372 L 1311.99,-74.5302 L 1312.05,-74 L 1312.05,-64.7024
 L 1312.39,-64.4804 L 1312.79,-64.1563 L 1313.16,-63.7921 L 1313.48,-63.3919 L 1313.76,-62.96 L 1313.99,-62.5011
 L 1314.18,-62.0204 L 1314.31,-61.5229 L 1314.39,-61.0143 L 1314.42,-60.5 L 1314.39,-59.9857 L 1314.31,-59.4771
 L 1314.18,-58.9796 L 1313.99,-58.4989 L 1313.76,-58.04 L 1313.48,-57.6081 L 1313.16,-57.2079 L 1312.79,-56.8437
 L 1312.39,-56.5196 L 1311.96,-56.2392 L 1311.5,-56.0054 L 1311.02,-55.8208 L 1310.52,-55.6875 L 1310.01,-55.607
 L 1309.5,-55.58 z
M 564.986,-55.607 L 564.477,-55.6875 L 563.98,-55.8208 L 563.499,-56.0054 L 563.04,-56.2392 L 562.608,-56.5196
 L 562.208,-56.8437 L 561.844,-57.2079 L 561.52,-57.6081 L 561.239,-58.04 L 561.005,-58.4989 L 560.821,-58.9796
 L 560.688,-59.4771 L 560.607,-59.9857 L 560.58,-60.5 L 560.607,-61.0143 L 560.688,-61.5229 L 560.821,-62.0204
 L 561.005,-62.5011 L 561.239,-62.96 L 561.52,-63.3919 L 561.844,-63.7921 L 562.208,-64.1563 L 562.608,-64.4804
 L 562.95,-64.7024 L 562.95,-74 L 563.006,-74.5302 L 563.17,-75.0372 L 563.437,-75.4988 L 563.794,-75.895
 L 564.225,-76.2084 L 564.712,-76.4252 L 565.233,-76.536 L 565.767,-76.536 L 566.288,-76.4252 L 566.775,-76.2084
 L 567.206,-75.895 L 567.563,-75.4988 L 567.83,-75.0372 L 567.994,-74.5302 L 568.05,-74 L 568.05,-64.7024
 L 568.392,-64.4804 L 568.792,-64.1563 L 569.156,-63.7921 L 569.48,-63.3919 L 569.761,-62.96 L 569.995,-62.5011
 L 570.179,-62.0204 L 570.312,-61.5229 L 570.393,-61.0143 L 570.42,-60.5 L 570.393,-59.9857 L 570.312,-59.4771
 L 570.179,-58.9796 L 569.995,-58.4989 L 569.761,-58.04 L 569.48,-57.6081 L 569.156,-57.2079 L 568.792,-56.8437
 L 568.392,-56.5196 L 567.96,-56.2392 L 567.501,-56.0054 L 567.02,-55.8208 L 566.523,-55.6875 L 566.014,-55.607
 L 565.5,-55.58 z
M 378.986,-55.607 L 378.477,-55.6875 L 377.98,-55.8208 L 377.499,-56.0054 L 377.04,-56.2392 L 376.608,-56.5196
 L 376.208,-56.8437 L 375.844,-57.2079 L 375.52,-57.6081 L 375.239,-58.04 L 375.005,-58.4989 L 374.821,-58.9796
 L 374.688,-59.4771 L 374.607,-59.9857 L 374.58,-60.5 L 374.607,-61.0143 L 374.688,-61.5229 L 374.821,-62.0204
 L 375.005,-62.5011 L 375.239,-62.96 L 375.52,-63.3919 L 375.844,-63.7921 L 376.208,-64.1563 L 376.608,-64.4804
 L 376.95,-64.7024 L 376.95,-74 L 377.006,-74.5302 L 377.17,-75.0372 L 377.437,-75.4988 L 377.794,-75.895
 L 378.225,-76.2084 L 378.712,-76.4252 L 379.233,-76.536 L 379.767,-76.536 L 380.288,-76.4252 L 380.775,-76.2084
 L 381.206,-75.895 L 381.563,-75.4988 L 381.83,-75.0372 L 381.994,-74.5302 L 382.05,-74 L 382.05,-64.7024
 L 382.392,-64.4804 L 382.792,-64.1563 L 383.156,-63.7921 L 383.48,-63.3919 L 383.761,-62.96 L 383.995,-62.5011
 L 384.179,-62.0204 L 384.312,-61.5229 L 384.393,-61.0143 L 384.42,-60.5 L 384.393,-59.9857 L 384.312,-59.4771
 L 384.179,-58.9796 L 383.995,-58.4989 L 383.761,-58.04 L 383.48,-57.6081 L 383.156,-57.2079 L 382.792,-56.8437
 L 382.392,-56.5196 L 381.96,-56.2392 L 381.501,-56.0054 L 381.02,-55.8208 L 380.523,-55.6875 L 380.014,-55.607
 L 379.5,-55.58 z
M 1494.99,-55.607 L 1494.48,-55.6875 L 1493.98,-55.8208 L 1493.5,-56.0054 L 1493.04,-56.2392 L 1492.61,-56.5196
 L 1492.21,-56.8437 L 1491.84,-57.2079 L 1491.52,-57.6081 L 1491.24,-58.04 L 1491.01,-58.4989 L 1490.82,-58.9796
 L 1490.69,-59.4771 L 1490.61,-59.9857 L 1490.58,-60.5 L 1490.61,-61.0143 L 1490.69,-61.5229 L 1490.82,-62.0204
 L 1491.01,-62.5011 L 1491.24,-62.96 L 1491.52,-63.3919 L 1491.84,-63.7921 L 1492.21,-64.1563 L 1492.61,-64.4804
 L 1492.95,-64.7024 L 1492.95,-74 L 1493.01,-74.5302 L 1493.17,-75.0372 L 1493.44,-75.4988 L 1493.79,-75.895
 L 1494.23,-76.2084 L 1494.71,-76.4252 L 1495.23,-76.536 L 1495.77,-76.536 L 1496.29,-76.4252 L 1496.77,-76.2084
 L 1497.21,-75.895 L 1497.56,-75.4988 L 1497.83,-75.0372 L 1497.99,-74.5302 L 1498.05,-74 L 1498.05,-64.7024
 L 1498.39,-64.4804 L 1498.79,-64.1563 L 1499.16,-63.7921 L 1499.48,-63.3919 L 1499.76,-62.96 L 1499.99,-62.5011
 L 1500.18,-62.0204 L 1500.31,-61.5229 L 1500.39,-61.0143 L 1500.42,-60.5 L 1500.39,-59.9857 L 1500.31,-59.4771
 L 1500.18,-58.9796 L 1499.99,-58.4989 L 1499.76,-58.04 L 1499.48,-57.6081 L 1499.16,-57.2079 L 1498.79,-56.8437
 L 1498.39,-56.5196 L 1497.96,-56.2392 L 1497.5,-56.0054 L 1497.02,-55.8208 L 1496.52,-55.6875 L 1496.01,-55.607
 L 1495.5,-55.58 z
M 365.938,-20.6248 L 365.127,-20.8283 L 273.727,-54.2432 L 272.749,-54.7639 L 272.128,-55.3235 L 271.636,-56
 L 271.296,-56.7639 L 271.122,-57.5819 L 271.122,-58.4181 L 271.296,-59.2361 L 271.636,-60 L 272.128,-60.6765
 L 272.749,-61.2361 L 273.473,-61.6542 L 274.269,-61.9126 L 275.1,-62 L 366.5,-62 L 367.736,-61.8042
 L 368.5,-61.4641 L 369.177,-60.9726 L 369.736,-60.3511 L 370.154,-59.627 L 370.413,-58.8316 L 370.5,-58
 L 370.5,-24.5851 L 370.38,-23.6118 L 370.093,-22.8264 L 369.649,-22.1179 L 369.067,-21.5172 L 368.373,-21.0506
 L 367.597,-20.7384 L 366.773,-20.5944 z
M 551.938,-20.6248 L 551.127,-20.8283 L 459.727,-54.2432 L 458.749,-54.7639 L 458.128,-55.3235 L 457.636,-56
 L 457.296,-56.7639 L 457.122,-57.5819 L 457.122,-58.4181 L 457.296,-59.2361 L 457.636,-60 L 458.128,-60.6765
 L 458.749,-61.2361 L 459.473,-61.6542 L 460.269,-61.9126 L 461.1,-62 L 552.5,-62 L 553.736,-61.8042
 L 554.5,-61.4641 L 555.177,-60.9726 L 555.736,-60.3511 L 556.154,-59.627 L 556.413,-58.8316 L 556.5,-58
 L 556.5,-24.5851 L 556.38,-23.6118 L 556.093,-22.8264 L 555.649,-22.1179 L 555.067,-21.5172 L 554.373,-21.0506
 L 553.597,-20.7384 L 552.773,-20.5944 z
M 1321.4,-20.7384 L 1320.63,-21.0506 L 1319.93,-21.5172 L 1319.35,-22.1179 L 1318.91,-22.8264 L 1318.62,-23.6118
 L 1318.5,-24.5851 L 1318.5,-58 L 1318.59,-58.8316 L 1318.85,-59.627 L 1319.26,-60.3511 L 1319.82,-60.9726
 L 1320.5,-61.4641 L 1321.26,-61.8042 L 1322.5,-62 L 1413.9,-62 L 1414.73,-61.9126 L 1415.53,-61.6542
 L 1416.25,-61.2361 L 1416.87,-60.6765 L 1417.36,-60 L 1417.7,-59.2361 L 1417.88,-58.4181 L 1417.88,-57.5819
 L 1417.7,-56.7639 L 1417.36,-56 L 1416.87,-55.3235 L 1416.25,-54.7639 L 1415.27,-54.2432 L 1323.87,-20.8283
 L 1323.06,-20.6248 L 1322.23,-20.5944 z
M 737.938,-20.6248 L 737.127,-20.8283 L 645.727,-54.2432 L 644.749,-54.7639 L 644.128,-55.3235 L 643.636,-56
 L 643.296,-56.7639 L 643.122,-57.5819 L 643.122,-58.4181 L 643.296,-59.2361 L 643.636,-60 L 644.128,-60.6765
 L 644.749,-61.2361 L 645.473,-61.6542 L 646.269,-61.9126 L 647.1,-62 L 738.5,-62 L 739.736,-61.8042
 L 740.5,-61.4641 L 741.177,-60.9726 L 741.736,-60.3511 L 742.154,-59.627 L 742.413,-58.8316 L 742.5,-58
 L 742.5,-24.5851 L 742.38,-23.6118 L 742.093,-22.8264 L 741.649,-22.1179 L 741.067,-21.5172 L 740.373,-21.0506
 L 739.597,-20.7384 L 738.773,-20.5944 z
M 179.938,-20.6248 L 179.127,-20.8283 L 87.7269,-54.2432 L 86.7492,-54.7639 L 86.1278,-55.3235 L 85.6362,-56
 L 85.2961,-56.7639 L 85.1223,-57.5819 L 85.1223,-58.4181 L 85.2961,-59.2361 L 85.6362,-60 L 86.1278,-60.6765
 L 86.7492,-61.2361 L 87.4734,-61.6542 L 88.2687,-61.9126 L 89.1003,-62 L 180.5,-62 L 181.736,-61.8042
 L 182.5,-61.4641 L 183.177,-60.9726 L 183.736,-60.3511 L 184.154,-59.627 L 184.413,-58.8316 L 184.5,-58
 L 184.5,-24.5851 L 184.38,-23.6118 L 184.093,-22.8264 L 183.649,-22.1179 L 183.067,-21.5172 L 182.373,-21.0506
 L 181.597,-20.7384 L 180.773,-20.5944 z
M 763.403,-20.7384 L 762.627,-21.0506 L 761.933,-21.5172 L 761.351,-22.1179 L 760.907,-22.8264 L 760.62,-23.6118
 L 760.5,-24.5851 L 760.5,-58 L 760.587,-58.8316 L 760.846,-59.627 L 761.264,-60.3511 L 761.823,-60.9726
 L 762.5,-61.4641 L 763.264,-61.8042 L 764.5,-62 L 855.9,-62 L 856.731,-61.9126 L 857.527,-61.6542
 L 858.251,-61.2361 L 858.872,-60.6765 L 859.364,-60 L 859.704,-59.2361 L 859.878,-58.4181 L 859.878,-57.5819
 L 859.704,-56.7639 L 859.364,-56 L 858.872,-55.3235 L 858.251,-54.7639 L 857.273,-54.2432 L 765.873,-20.8283
 L 765.062,-20.6248 L 764.227,-20.5944 z
M 949.403,-20.7384 L 948.627,-21.0506 L 947.933,-21.5172 L 947.351,-22.1179 L 946.907,-22.8264 L 946.62,-23.6118
 L 946.5,-24.5851 L 946.5,-58 L 946.587,-58.8316 L 946.846,-59.627 L 947.264,-60.3511 L 947.823,-60.9726
 L 948.5,-61.4641 L 949.264,-61.8042 L 950.5,-62 L 1041.9,-62 L 1042.73,-61.9126 L 1043.53,-61.6542
 L 1044.25,-61.2361 L 1044.87,-60.6765 L 1045.36,-60 L 1045.7,-59.2361 L 1045.88,-58.4181 L 1045.88,-57.5819
 L 1045.7,-56.7639 L 1045.36,-56 L 1044.87,-55.3235 L 1044.25,-54.7639 L 1043.27,-54.2432 L 951.873,-20.8283
 L 951.062,-20.6248 L 950.227,-20.5944 z
M 1135.4,-20.7384 L 1134.63,-21.0506 L 1133.93,-21.5172 L 1133.35,-22.1179 L 1132.91,-22.8264 L 1132.62,-23.6118
 L 1132.5,-24.5851 L 1132.5,-58 L 1132.59,-58.8316 L 1132.85,-59.627 L 1133.26,-60.3511 L 1133.82,-60.9726
 L 1134.5,-61.4641 L 1135.26,-61.8042 L 1136.5,-62 L 1227.9,-62 L 1228.73,-61.9126 L 1229.53,-61.6542
 L 1230.25,-61.2361 L 1230.87,-60.6765 L 1231.36,-60 L 1231.7,-59.2361 L 1231.88,-58.4181 L 1231.88,-57.5819
 L 1231.7,-56.7639 L 1231.36,-56 L 1230.87,-55.3235 L 1230.25,-54.7639 L 1229.27,-54.2432 L 1137.87,-20.8283
 L 1137.06,-20.6248 L 1136.23,-20.5944 z
M 206.5,-18 L 205.264,-18.1958 L 204.5,-18.5359 L 203.823,-19.0274 L 203.264,-19.6489 L 202.846,-20.373
 L 202.587,-21.1684 L 202.5,-22 L 202.5,-55.4149 L 202.62,-56.3882 L 202.907,-57.1735 L 203.351,-57.8821
 L 203.933,-58.4828 L 204.627,-58.9494 L 205.403,-59.2615 L 206.227,-59.4056 L 207.062,-59.3752 L 207.873,-59.1717
 L 299.273,-25.7568 L 300.251,-25.2361 L 300.872,-24.6765 L 301.364,-24 L 301.704,-23.2361 L 301.878,-22.4181
 L 301.878,-21.5819 L 301.704,-20.7639 L 301.364,-20 L 300.872,-19.3235 L 300.251,-18.7639 L 299.527,-18.3458
 L 298.731,-18.0874 L 297.9,-18 z
M 392.5,-18 L 391.264,-18.1958 L 390.5,-18.5359 L 389.823,-19.0274 L 389.264,-19.6489 L 388.846,-20.373
 L 388.587,-21.1684 L 388.5,-22 L 388.5,-55.4149 L 388.62,-56.3882 L 388.907,-57.1735 L 389.351,-57.8821
 L 389.933,-58.4828 L 390.627,-58.9494 L 391.403,-59.2615 L 392.227,-59.4056 L 393.062,-59.3752 L 393.873,-59.1717
 L 485.273,-25.7568 L 486.251,-25.2361 L 486.872,-24.6765 L 487.364,-24 L 487.704,-23.2361 L 487.878,-22.4181
 L 487.878,-21.5819 L 487.704,-20.7639 L 487.364,-20 L 486.872,-19.3235 L 486.251,-18.7639 L 485.527,-18.3458
 L 484.731,-18.0874 L 483.9,-18 z
M 578.5,-18 L 577.264,-18.1958 L 576.5,-18.5359 L 575.823,-19.0274 L 575.264,-19.6489 L 574.846,-20.373
 L 574.587,-21.1684 L 574.5,-22 L 574.5,-55.4149 L 574.62,-56.3882 L 574.907,-57.1735 L 575.351,-57.8821
 L 575.933,-58.4828 L 576.627,-58.9494 L 577.403,-59.2615 L 578.227,-59.4056 L 579.062,-59.3752 L 579.873,-59.1717
 L 671.273,-25.7568 L 672.251,-25.2361 L 672.872,-24.6765 L 673.364,-24 L 673.704,-23.2361 L 673.878,-22.4181
 L 673.878,-21.5819 L 673.704,-20.7639 L 673.364,-20 L 672.872,-19.3235 L 672.251,-18.7639 L 671.527,-18.3458
 L 670.731,-18.0874 L 669.9,-18 z
M 833.1,-18 L 832.269,-18.0874 L 831.473,-18.3458 L 830.749,-18.7639 L 830.128,-19.3235 L 829.636,-20
 L 829.296,-20.7639 L 829.122,-21.5819 L 829.122,-22.4181 L 829.296,-23.2361 L 829.636,-24 L 830.128,-24.6765
 L 830.749,-25.2361 L 831.727,-25.7568 L 923.127,-59.1717 L 923.938,-59.3752 L 924.773,-59.4056 L 925.597,-59.2615
 L 926.373,-58.9494 L 927.067,-58.4828 L 927.649,-57.8821 L 928.093,-57.1735 L 928.38,-56.3882 L 928.5,-55.4149
 L 928.5,-22 L 928.413,-21.1684 L 928.154,-20.373 L 927.736,-19.6489 L 927.177,-19.0274 L 926.5,-18.5359
 L 925.736,-18.1958 L 924.5,-18 z
M 1019.1,-18 L 1018.27,-18.0874 L 1017.47,-18.3458 L 1016.75,-18.7639 L 1016.13,-19.3235 L 1015.64,-20
 L 1015.3,-20.7639 L 1015.12,-21.5819 L 1015.12,-22.4181 L 1015.3,-23.2361 L 1015.64,-24 L 1016.13,-24.6765
 L 1016.75,-25.2361 L 1017.73,-25.7568 L 1109.13,-59.1717 L 1109.94,-59.3752 L 1110.77,-59.4056 L 1111.6,-59.2615
 L 1112.37,-58.9494 L 1113.07,-58.4828 L 1113.65,-57.8821 L 1114.09,-57.1735 L 1114.38,-56.3882 L 1114.5,-55.4149
 L 1114.5,-22 L 1114.41,-21.1684 L 1114.15,-20.373 L 1113.74,-19.6489 L 1113.18,-19.0274 L 1112.5,-18.5359
 L 1111.74,-18.1958 L 1110.5,-18 z
M 1205.1,-18 L 1204.27,-18.0874 L 1203.47,-18.3458 L 1202.75,-18.7639 L 1202.13,-19.3235 L 1201.64,-20
 L 1201.3,-20.7639 L 1201.12,-21.5819 L 1201.12,-22.4181 L 1201.3,-23.2361 L 1201.64,-24 L 1202.13,-24.6765
 L 1202.75,-25.2361 L 1203.73,-25.7568 L 1295.13,-59.1717 L 1295.94,-59.3752 L 1296.77,-59.4056 L 1297.6,-59.2615
 L 1298.37,-58.9494 L 1299.07,-58.4828 L 1299.65,-57.8821 L 1300.09,-57.1735 L 1300.38,-56.3882 L 1300.5,-55.4149
 L 1300.5,-22 L 1300.41,-21.1684 L 1300.15,-20.373 L 1299.74,-19.6489 L 1299.18,-19.0274 L 1298.5,-18.5359
 L 1297.74,-18.1958 L 1296.5,-18 z
M 1391.1,-18 L 1390.27,-18.0874 L 1389.47,-18.3458 L 1388.75,-18.7639 L 1388.13,-19.3235 L 1387.64,-20
 L 1387.3,-20.7639 L 1387.12,-21.5819 L 1387.12,-22.4181 L 1387.3,-23.2361 L 1387.64,-24 L 1388.13,-24.6765
 L 1388.75,-25.2361 L 1389.73,-25.7568 L 1479.63,-58.6233 L 1480.44,-58.8268 L 1481.27,-58.8572 L 1482.1,-58.7132
 L 1482.87,-58.401 L 1483.57,-57.9344 L 1484.15,-57.3337 L 1484.59,-56.6252 L 1484.88,-55.8398 L 1485,-54.8665
 L 1485,-22 L 1484.91,-21.1684 L 1484.65,-20.373 L 1484.24,-19.6489 L 1483.68,-19.0274 L 1483,-18.5359
 L 1482.24,-18.1958 L 1481,-18 z
M 22,-18 L 20.7639,-18.1958 L 20,-18.5359 L 19.3235,-19.0274 L 18.7639,-19.6489 L 18.3458,-20.373
 L 18.0874,-21.1684 L 18,-22 L 18,-54.8665 L 18.1202,-55.8398 L 18.4073,-56.6252 L 18.8515,-57.3337
 L 19.4332,-57.9344 L 20.1272,-58.401 L 20.903,-58.7132 L 21.7267,-58.8572 L 22.5624,-58.8268 L 23.3735,-58.6233
 L 113.273,-25.7568 L 114.251,-25.2361 L 114.872,-24.6765 L 115.364,-24 L 115.704,-23.2361 L 115.878,-22.4181
 L 115.878,-21.5819 L 115.704,-20.7639 L 115.364,-20 L 114.872,-19.3235 L 114.251,-18.7639 L 113.527,-18.3458
 L 112.731,-18.0874 L 111.9,-18 z
" stroke="black" fill="lightgray" stroke-width="0.5"/>
</svg>
