<?xml version="1.0" standalone="no"?>
<!DOCTYPE svg PUBLIC "-//W3C//DTD SVG 1.1//EN" "http://www.w3.org/Graphics/SVG/1.1/DTD/svg11.dtd">
<svg width="1383mm" height="80mm" viewBox="0 -80 1383 80" xmlns="http://www.w3.org/2000/svg" version="1.1">
<title>OpenSCAD Model</title>
<path d="
M 1383,-80 L 0,-80 L 0,-0 L 4.95,-0 L 4.95,-6 L 5.00572,-6.53017
 L 5.17046,-7.03717 L 5.437,-7.49884 L 5.79372,-7.895 L 6.22499,-8.20836 L 6.71201,-8.42519 L 7.23344,-8.53603
 L 7.76654,-8.53603 L 8.28798,-8.42519 L 8.77499,-8.20836 L 9.20627,-7.895 L 9.56299,-7.49884 L 9.82953,-7.03717
 L 9.99426,-6.53017 L 10.05,-6 L 10.05,-0 L 200.379,-0 L 200.379,-6 L 200.434,-6.53017
 L 200.599,-7.03717 L 200.866,-7.49884 L 201.222,-7.895 L 201.654,-8.20836 L 202.141,-8.42519 L 202.662,-8.53603
 L 203.195,-8.53603 L 203.717,-8.42519 L 204.204,-8.20836 L 204.635,-7.895 L 204.992,-7.49884 L 205.258,-7.03717
 L 205.423,-6.53017 L 205.479,-6 L 205.479,-0 L 395.807,-0 L 395.807,-6 L 395.863,-6.53017
 L 396.028,-7.03717 L 396.294,-7.49884 L 396.651,-7.895 L 397.082,-8.20836 L 397.569,-8.42519 L 398.091,-8.53603
 L 398.624,-8.53603 L 399.145,-8.42519 L 399.632,-8.20836 L 400.063,-7.895 L 400.42,-7.49884 L 400.687,-7.03717
 L 400.851,-6.53017 L 400.907,-6 L 400.907,-0 L 591.236,-0 L 591.236,-6 L 591.291,-6.53017
 L 591.456,-7.03717 L 591.723,-7.49884 L 592.079,-7.895 L 592.511,-8.20836 L 592.998,-8.42519 L 593.519,-8.53603
 L 594.052,-8.53603 L 594.574,-8.42519 L 595.061,-8.20836 L 595.492,-7.895 L 595.849,-7.49884 L 596.115,-7.03717
 L 596.28,-6.53017 L 596.336,-6 L 596.336,-0 L 786.664,-0 L 786.664,-6 L 786.72,-6.53017
 L 786.885,-7.03717 L 787.151,-7.49884 L 787.508,-7.895 L 787.939,-8.20836 L 788.426,-8.42519 L 788.948,-8.53603
 L 789.481,-8.53603 L 790.002,-8.42519 L 790.489,-8.20836 L 790.921,-7.895 L 791.277,-7.49884 L 791.544,-7.03717
 L 791.709,-6.53017 L 791.764,-6 L 791.764,-0 L 982.093,-0 L 982.093,-6 L 982.149,-6.53017
 L 982.313,-7.03717 L 982.58,-7.49884 L 982.937,-7.895 L 983.368,-8.20836 L 983.855,-8.42519 L 984.376,-8.53603
 L 984.909,-8.53603 L 985.431,-8.42519 L 985.918,-8.20836 L 986.349,-7.895 L 986.706,-7.49884 L 986.972,-7.03717
 L 987.137,-6.53017 L 987.193,-6 L 987.193,-0 L 1177.52,-0 L 1177.52,-6 L 1177.58,-6.53017
 L 1177.74,-7.03717 L 1178.01,-7.49884 L 1178.37,-7.895 L 1178.8,-8.20836 L 1179.28,-8.42519 L 1179.8,-8.53603
 L 1180.34,-8.53603 L 1180.86,-8.42519 L 1181.35,-8.20836 L 1181.78,-7.895 L 1182.13,-7.49884 L 1182.4,-7.03717
 L 1182.57,-6.53017 L 1182.62,-6 L 1182.62,-0 L 1372.95,-0 L 1372.95,-6 L 1373.01,-6.53017
 L 1373.17,-7.03717 L 1373.44,-7.49884 L 1373.79,-7.895 L 1374.22,-8.20836 L 1374.71,-8.42519 L 1375.23,-8.53603
 L 1375.77,-8.53603 L 1376.29,-8.42519 L 1376.77,-8.20836 L 1377.21,-7.895 L 1377.56,-7.49884 L 1377.83,-7.03717
 L 1377.99,-6.53017 L 1378.05,-6 L 1378.05,-0 L 1383,-0 z
M 6.98573,-55.607 L 6.47708,-55.6875 L 5.97964,-55.8208 L 5.49887,-56.0054 L 5.04001,-56.2392 L 4.60811,-56.5196
 L 4.20789,-56.8437 L 3.84373,-57.2079 L 3.51964,-57.6081 L 3.23917,-58.04 L 3.00537,-58.4989 L 2.82082,-58.9796
 L 2.68752,-59.4771 L 2.60696,-59.9857 L 2.58,-60.5 L 2.60696,-61.0143 L 2.68752,-61.5229 L 2.82082,-62.0204
 L 3.00537,-62.5011 L 3.23917,-62.96 L 3.51964,-63.3919 L 3.84373,-63.7921 L 4.20789,-64.1563 L 4.60811,-64.4804
 L 4.95001,-64.7024 L 4.95001,-74 L 5.00574,-74.5302 L 5.17047,-75.0372 L 5.43701,-75.4988 L 5.79373,-75.895
 L 6.22501,-76.2084 L 6.71202,-76.4252 L 7.23346,-76.536 L 7.76654,-76.536 L 8.28798,-76.4252 L 8.77499,-76.2084
 L 9.20627,-75.895 L 9.56299,-75.4988 L 9.82953,-75.0372 L 9.99426,-74.5302 L 10.05,-74 L 10.05,-64.7024
 L 10.3919,-64.4804 L 10.7921,-64.1563 L 11.1563,-63.7921 L 11.4804,-63.3919 L 11.7608,-62.96 L 11.9946,-62.5011
 L 12.1792,-62.0204 L 12.3125,-61.5229 L 12.393,-61.0143 L 12.42,-60.5 L 12.393,-59.9857 L 12.3125,-59.4771
 L 12.1792,-58.9796 L 11.9946,-58.4989 L 11.7608,-58.04 L 11.4804,-57.6081 L 11.1563,-57.2079 L 10.7921,-56.8437
 L 10.3919,-56.5196 L 9.95999,-56.2392 L 9.50113,-56.0054 L 9.02036,-55.8208 L 8.52292,-55.6875 L 8.01427,-55.607
 L 7.5,-55.58 z
M 202.414,-55.607 L 201.906,-55.6875 L 201.408,-55.8208 L 200.927,-56.0054 L 200.469,-56.2392 L 200.037,-56.5196
 L 199.636,-56.8437 L 199.272,-57.2079 L 198.948,-57.6081 L 198.668,-58.04 L 198.434,-58.4989 L 198.249,-58.9796
 L 198.116,-59.4771 L 198.036,-59.9857 L 198.009,-60.5 L 198.036,-61.0143 L 198.116,-61.5229 L 198.249,-62.0204
 L 198.434,-62.5011 L 198.668,-62.96 L 198.948,-63.3919 L 199.272,-63.7921 L 199.636,-64.1563 L 200.037,-64.4804
 L 200.379,-64.7024 L 200.379,-74 L 200.434,-74.5302 L 200.599,-75.0372 L 200.866,-75.4988 L 201.222,-75.895
 L 201.654,-76.2084 L 202.141,-76.4252 L 202.662,-76.536 L 203.195,-76.536 L 203.717,-76.4252 L 204.204,-76.2084
 L 204.635,-75.895 L 204.992,-75.4988 L 205.258,-75.0372 L 205.423,-74.5302 L 205.479,-74 L 205.479,-64.7024
 L 205.82,-64.4804 L 206.221,-64.1563 L 206.585,-63.7921 L 206.909,-63.3919 L 207.189,-62.96 L 207.423,-62.5011
 L 207.608,-62.0204 L 207.741,-61.5229 L 207.822,-61.0143 L 207.849,-60.5 L 207.822,-59.9857 L 207.741,-59.4771
 L 207.608,-58.9796 L 207.423,-58.4989 L 207.189,-58.04 L 206.909,-57.6081 L 206.585,-57.2079 L 206.221,-56.8437
 L 205.82,-56.5196 L 205.389,-56.2392 L 204.93,-56.0054 L 204.449,-55.8208 L 203.951,-55.6875 L 203.443,-55.607
 L 202.929,-55.58 z
M 397.843,-55.607 L 397.334,-55.6875 L 396.837,-55.8208 L 396.356,-56.0054 L 395.897,-56.2392 L 395.465,-56.5196
 L 395.065,-56.8437 L 394.701,-57.2079 L 394.377,-57.6081 L 394.096,-58.04 L 393.863,-58.4989 L 393.678,-58.9796
 L 393.545,-59.4771 L 393.464,-59.9857 L 393.437,-60.5 L 393.464,-61.0143 L 393.545,-61.5229 L 393.678,-62.0204
 L 393.863,-62.5011 L 394.096,-62.96 L 394.377,-63.3919 L 394.701,-63.7921 L 395.065,-64.1563 L 395.465,-64.4804
 L 395.807,-64.7024 L 395.807,-74 L 395.863,-74.5302 L 396.028,-75.0372 L 396.294,-75.4988 L 396.651,-75.895
 L 397.082,-76.2084 L 397.569,-76.4252 L 398.091,-76.536 L 398.624,-76.536 L 399.145,-76.4252 L 399.632,-76.2084
 L 400.063,-75.895 L 400.42,-75.4988 L 400.687,-75.0372 L 400.851,-74.5302 L 400.907,-74 L 400.907,-64.7024
 L 401.249,-64.4804 L 401.649,-64.1563 L 402.013,-63.7921 L 402.337,-63.3919 L 402.618,-62.96 L 402.852,-62.5011
 L 403.036,-62.0204 L 403.17,-61.5229 L 403.25,-61.0143 L 403.277,-60.5 L 403.25,-59.9857 L 403.17,-59.4771
 L 403.036,-58.9796 L 402.852,-58.4989 L 402.618,-58.04 L 402.337,-57.6081 L 402.013,-57.2079 L 401.649,-56.8437
 L 401.249,-56.5196 L 400.817,-56.2392 L 400.358,-56.0054 L 399.877,-55.8208 L 399.38,-55.6875 L 398.871,-55.607
 L 398.357,-55.58 z
M 593.271,-55.607 L 592.763,-55.6875 L 592.265,-55.8208 L 591.785,-56.0054 L 591.326,-56.2392 L 590.894,-56.5196
 L 590.494,-56.8437 L 590.129,-57.2079 L 589.805,-57.6081 L 589.525,-58.04 L 589.291,-58.4989 L 589.107,-58.9796
 L 588.973,-59.4771 L 588.893,-59.9857 L 588.866,-60.5 L 588.893,-61.0143 L 588.973,-61.5229 L 589.107,-62.0204
 L 589.291,-62.5011 L 589.525,-62.96 L 589.805,-63.3919 L 590.129,-63.7921 L 590.494,-64.1563 L 590.894,-64.4804
 L 591.236,-64.7024 L 591.236,-74 L 591.291,-74.5302 L 591.456,-75.0372 L 591.723,-75.4988 L 592.079,-75.895
 L 592.511,-76.2084 L 592.998,-76.4252 L 593.519,-76.536 L 594.052,-76.536 L 594.574,-76.4252 L 595.061,-76.2084
 L 595.492,-75.895 L 595.849,-75.4988 L 596.115,-75.0372 L 596.28,-74.5302 L 596.336,-74 L 596.336,-64.7024
 L 596.678,-64.4804 L 597.078,-64.1563 L 597.442,-63.7921 L 597.766,-63.3919 L 598.047,-62.96 L 598.28,-62.5011
 L 598.465,-62.0204 L 598.598,-61.5229 L 598.679,-61.0143 L 598.706,-60.5 L 598.679,-59.9857 L 598.598,-59.4771
 L 598.465,-58.9796 L 598.28,-58.4989 L 598.047,-58.04 L 597.766,-57.6081 L 597.442,-57.2079 L 597.078,-56.8437
 L 596.678,-56.5196 L 596.246,-56.2392 L 595.787,-56.0054 L 595.306,-55.8208 L 594.809,-55.6875 L 594.3,-55.607
 L 593.786,-55.58 z
M 788.7,-55.607 L 788.191,-55.6875 L 787.694,-55.8208 L 787.213,-56.0054 L 786.754,-56.2392 L 786.322,-56.5196
 L 785.922,-56.8437 L 785.558,-57.2079 L 785.234,-57.6081 L 784.953,-58.04 L 784.72,-58.4989 L 784.535,-58.9796
 L 784.402,-59.4771 L 784.321,-59.9857 L 784.294,-60.5 L 784.321,-61.0143 L 784.402,-61.5229 L 784.535,-62.0204
 L 784.72,-62.5011 L 784.953,-62.96 L 785.234,-63.3919 L 785.558,-63.7921 L 785.922,-64.1563 L 786.322,-64.4804
 L 786.664,-64.7024 L 786.664,-74 L 786.72,-74.5302 L 786.885,-75.0372 L 787.151,-75.4988 L 787.508,-75.895
 L 787.939,-76.2084 L 788.426,-76.4252 L 788.948,-76.536 L 789.481,-76.536 L 790.002,-76.4252 L 790.489,-76.2084
 L 790.921,-75.895 L 791.277,-75.4988 L 791.544,-75.0372 L 791.709,-74.5302 L 791.764,-74 L 791.764,-64.7024
 L 792.106,-64.4804 L 792.506,-64.1563 L 792.871,-63.7921 L 793.195,-63.3919 L 793.475,-62.96 L 793.709,-62.5011
 L 793.893,-62.0204 L 794.027,-61.5229 L 794.107,-61.0143 L 794.134,-60.5 L 794.107,-59.9857 L 794.027,-59.4771
 L 793.893,-58.9796 L 793.709,-58.4989 L 793.475,-58.04 L 793.195,-57.6081 L 792.871,-57.2079 L 792.506,-56.8437
 L 792.106,-56.5196 L 791.674,-56.2392 L 791.215,-56.0054 L 790.735,-55.8208 L 790.237,-55.6875 L 789.729,-55.607
 L 789.214,-55.58 z
M 984.129,-55.607 L 983.62,-55.6875 L 983.122,-55.8208 L 982.642,-56.0054 L 982.183,-56.2392 L 981.751,-56.5196
 L 981.351,-56.8437 L 980.987,-57.2079 L 980.662,-57.6081 L 980.382,-58.04 L 980.148,-58.4989 L 979.964,-58.9796
 L 979.83,-59.4771 L 979.75,-59.9857 L 979.723,-60.5 L 979.75,-61.0143 L 979.83,-61.5229 L 979.964,-62.0204
 L 980.148,-62.5011 L 980.382,-62.96 L 980.662,-63.3919 L 980.987,-63.7921 L 981.351,-64.1563 L 981.751,-64.4804
 L 982.093,-64.7024 L 982.093,-74 L 982.149,-74.5302 L 982.313,-75.0372 L 982.58,-75.4988 L 982.937,-75.895
 L 983.368,-76.2084 L 983.855,-76.4252 L 984.376,-76.536 L 984.909,-76.536 L 985.431,-76.4252 L 985.918,-76.2084
 L 986.349,-75.895 L 986.706,-75.4988 L 986.972,-75.0372 L 987.137,-74.5302 L 987.193,-74 L 987.193,-64.7024
 L 987.535,-64.4804 L 987.935,-64.1563 L 988.299,-63.7921 L 988.623,-63.3919 L 988.904,-62.96 L 989.137,-62.5011
 L 989.322,-62.0204 L 989.455,-61.5229 L 989.536,-61.0143 L 989.563,-60.5 L 989.536,-59.9857 L 989.455,-59.4771
 L 989.322,-58.9796 L 989.137,-58.4989 L 988.904,-58.04 L 988.623,-57.6081 L 988.299,-57.2079 L 987.935,-56.8437
 L 987.535,-56.5196 L 987.103,-56.2392 L 986.644,-56.0054 L 986.163,-55.8208 L 985.666,-55.6875 L 985.157,-55.607
 L 984.643,-55.58 z
M 1179.56,-55.607 L 1179.05,-55.6875 L 1178.55,-55.8208 L 1178.07,-56.0054 L 1177.61,-56.2392 L 1177.18,-56.5196
 L 1176.78,-56.8437 L 1176.42,-57.2079 L 1176.09,-57.6081 L 1175.81,-58.04 L 1175.58,-58.4989 L 1175.39,-58.9796
 L 1175.26,-59.4771 L 1175.18,-59.9857 L 1175.15,-60.5 L 1175.18,-61.0143 L 1175.26,-61.5229 L 1175.39,-62.0204
 L 1175.58,-62.5011 L 1175.81,-62.96 L 1176.09,-63.3919 L 1176.42,-63.7921 L 1176.78,-64.1563 L 1177.18,-64.4804
 L 1177.52,-64.7024 L 1177.52,-74 L 1177.58,-74.5302 L 1177.74,-75.0372 L 1178.01,-75.4988 L 1178.37,-75.895
 L 1178.8,-76.2084 L 1179.28,-76.4252 L 1179.8,-76.536 L 1180.34,-76.536 L 1180.86,-76.4252 L 1181.35,-76.2084
 L 1181.78,-75.895 L 1182.13,-75.4988 L 1182.4,-75.0372 L 1182.57,-74.5302 L 1182.62,-74 L 1182.62,-64.7024
 L 1182.96,-64.4804 L 1183.36,-64.1563 L 1183.73,-63.7921 L 1184.05,-63.3919 L 1184.33,-62.96 L 1184.57,-62.5011
 L 1184.75,-62.0204 L 1184.88,-61.5229 L 1184.96,-61.0143 L 1184.99,-60.5 L 1184.96,-59.9857 L 1184.88,-59.4771
 L 1184.75,-58.9796 L 1184.57,-58.4989 L 1184.33,-58.04 L 1184.05,-57.6081 L 1183.73,-57.2079 L 1183.36,-56.8437
 L 1182.96,-56.5196 L 1182.53,-56.2392 L 1182.07,-56.0054 L 1181.59,-55.8208 L 1181.09,-55.6875 L 1180.59,-55.607
 L 1180.07,-55.58 z
M 1374.99,-55.607 L 1374.48,-55.6875 L 1373.98,-55.8208 L 1373.5,-56.0054 L 1373.04,-56.2392 L 1372.61,-56.5196
 L 1372.21,-56.8437 L 1371.84,-57.2079 L 1371.52,-57.6081 L 1371.24,-58.04 L 1371.01,-58.4989 L 1370.82,-58.9796
 L 1370.69,-59.4771 L 1370.61,-59.9857 L 1370.58,-60.5 L 1370.61,-61.0143 L 1370.69,-61.5229 L 1370.82,-62.0204
 L 1371.01,-62.5011 L 1371.24,-62.96 L 1371.52,-63.3919 L 1371.84,-63.7921 L 1372.21,-64.1563 L 1372.61,-64.4804
 L 1372.95,-64.7024 L 1372.95,-74 L 1373.01,-74.5302 L 1373.17,-75.0372 L 1373.44,-75.4988 L 1373.79,-75.895
 L 1374.23,-76.2084 L 1374.71,-76.4252 L 1375.23,-76.536 L 1375.77,-76.536 L 1376.29,-76.4252 L 1376.77,-76.2084
 L 1377.21,-75.895 L 1377.56,-75.4988 L 1377.83,-75.0372 L 1377.99,-74.5302 L 1378.05,-74 L 1378.05,-64.7024
 L 1378.39,-64.4804 L 1378.79,-64.1563 L 1379.16,-63.7921 L 1379.48,-63.3919 L 1379.76,-62.96 L 1379.99,-62.5011
 L 1380.18,-62.0204 L 1380.31,-61.5229 L 1380.39,-61.0143 L 1380.42,-60.5 L 1380.39,-59.9857 L 1380.31,-59.4771
 L 1380.18,-58.9796 L 1379.99,-58.4989 L 1379.76,-58.04 L 1379.48,-57.6081 L 1379.16,-57.2079 L 1378.79,-56.8437
 L 1378.39,-56.5196 L 1377.96,-56.2392 L 1377.5,-56.0054 L 1377.02,-55.8208 L 1376.52,-55.6875 L 1376.01,-55.607
 L 1375.5,-55.58 z
M 801.057,-20.4559 L 800.286,-20.7802 L 799.6,-21.2576 L 799.028,-21.8673 L 798.595,-22.5827 L 798.32,-23.3725
 L 798.214,-24.2849 L 798.214,-58 L 798.302,-58.8316 L 798.56,-59.627 L 798.978,-60.3511 L 799.538,-60.9726
 L 800.214,-61.4641 L 800.978,-61.8042 L 802.214,-62 L 899.11,-62 L 899.941,-61.9126 L 900.737,-61.6542
 L 901.461,-61.2361 L 902.082,-60.6765 L 902.574,-60 L 902.914,-59.2361 L 903.088,-58.4181 L 903.088,-57.5819
 L 902.914,-56.7639 L 902.574,-56 L 902.082,-55.3235 L 901.461,-54.7639 L 900.424,-54.2222 L 803.529,-20.5071
 L 802.715,-20.3163 L 801.879,-20.299 z
M 691,-47.6758 L 690.185,-47.8665 L 671.92,-54.2222 L 670.883,-54.7639 L 670.262,-55.3235 L 669.77,-56
 L 669.43,-56.7639 L 669.256,-57.5819 L 669.256,-58.4181 L 669.43,-59.2361 L 669.77,-60 L 670.262,-60.6765
 L 670.883,-61.2361 L 671.607,-61.6542 L 672.403,-61.9126 L 673.234,-62 L 709.766,-62 L 710.923,-61.829
 L 711.694,-61.5047 L 712.38,-61.0273 L 712.952,-60.4176 L 713.385,-59.7022 L 713.66,-58.9124 L 713.765,-58.0828
 L 713.695,-57.2495 L 713.453,-56.449 L 713.05,-55.7163 L 712.503,-55.0834 L 711.837,-54.578 L 711.08,-54.2222
 L 692.814,-47.8665 L 691.836,-47.6585 z
M 580.285,-20.3163 L 579.471,-20.5071 L 482.576,-54.2222 L 481.539,-54.7639 L 480.918,-55.3235 L 480.426,-56
 L 480.086,-56.7639 L 479.912,-57.5819 L 479.912,-58.4181 L 480.086,-59.2361 L 480.426,-60 L 480.918,-60.6765
 L 481.539,-61.2361 L 482.263,-61.6542 L 483.059,-61.9126 L 483.89,-62 L 580.786,-62 L 582.022,-61.8042
 L 582.786,-61.4641 L 583.462,-60.9726 L 584.022,-60.3511 L 584.44,-59.627 L 584.698,-58.8316 L 584.786,-58
 L 584.786,-24.2849 L 584.68,-23.3725 L 584.405,-22.5827 L 583.972,-21.8673 L 583.4,-21.2576 L 582.714,-20.7802
 L 581.943,-20.4559 L 581.121,-20.299 z
M 384.857,-20.3163 L 384.043,-20.5071 L 287.147,-54.2222 L 286.111,-54.7639 L 285.489,-55.3235 L 284.998,-56
 L 284.657,-56.7639 L 284.484,-57.5819 L 284.484,-58.4181 L 284.657,-59.2361 L 284.998,-60 L 285.489,-60.6765
 L 286.111,-61.2361 L 286.835,-61.6542 L 287.63,-61.9126 L 288.462,-62 L 385.357,-62 L 386.593,-61.8042
 L 387.357,-61.4641 L 388.034,-60.9726 L 388.593,-60.3511 L 389.011,-59.627 L 389.27,-58.8316 L 389.357,-58
 L 389.357,-24.2849 L 389.252,-23.3725 L 388.977,-22.5827 L 388.544,-21.8673 L 387.972,-21.2576 L 387.285,-20.7802
 L 386.514,-20.4559 L 385.693,-20.299 z
M 1191.91,-20.4559 L 1191.14,-20.7802 L 1190.46,-21.2576 L 1189.88,-21.8673 L 1189.45,-22.5827 L 1189.18,-23.3725
 L 1189.07,-24.2849 L 1189.07,-58 L 1189.16,-58.8316 L 1189.42,-59.627 L 1189.84,-60.3511 L 1190.39,-60.9726
 L 1191.07,-61.4641 L 1191.84,-61.8042 L 1193.07,-62 L 1289.97,-62 L 1290.8,-61.9126 L 1291.59,-61.6542
 L 1292.32,-61.2361 L 1292.94,-60.6765 L 1293.43,-60 L 1293.77,-59.2361 L 1293.94,-58.4181 L 1293.94,-57.5819
 L 1293.77,-56.7639 L 1293.43,-56 L 1292.94,-55.3235 L 1292.32,-54.7639 L 1291.28,-54.2222 L 1194.39,-20.5071
 L 1193.57,-20.3163 L 1192.74,-20.299 z
M 189.428,-20.3163 L 188.614,-20.5071 L 91.7186,-54.2222 L 90.682,-54.7639 L 90.0605,-55.3235 L 89.569,-56
 L 89.2289,-56.7639 L 89.055,-57.5819 L 89.055,-58.4181 L 89.2289,-59.2361 L 89.569,-60 L 90.0605,-60.6765
 L 90.682,-61.2361 L 91.4062,-61.6542 L 92.2015,-61.9126 L 93.0331,-62 L 189.929,-62 L 191.165,-61.8042
 L 191.929,-61.4641 L 192.605,-60.9726 L 193.165,-60.3511 L 193.583,-59.627 L 193.841,-58.8316 L 193.929,-58
 L 193.929,-24.2849 L 193.823,-23.3725 L 193.548,-22.5827 L 193.115,-21.8673 L 192.543,-21.2576 L 191.856,-20.7802
 L 191.086,-20.4559 L 190.264,-20.299 z
M 996.486,-20.4559 L 995.715,-20.7802 L 995.028,-21.2576 L 994.456,-21.8673 L 994.023,-22.5827 L 993.748,-23.3725
 L 993.643,-24.2849 L 993.643,-58 L 993.73,-58.8316 L 993.989,-59.627 L 994.407,-60.3511 L 994.966,-60.9726
 L 995.643,-61.4641 L 996.407,-61.8042 L 997.643,-62 L 1094.54,-62 L 1095.37,-61.9126 L 1096.17,-61.6542
 L 1096.89,-61.2361 L 1097.51,-60.6765 L 1098,-60 L 1098.34,-59.2361 L 1098.52,-58.4181 L 1098.52,-57.5819
 L 1098.34,-56.7639 L 1098,-56 L 1097.51,-55.3235 L 1096.89,-54.7639 L 1095.85,-54.2222 L 998.957,-20.5071
 L 998.143,-20.3163 L 997.307,-20.299 z
M 606.368,-18.1897 L 605.55,-18.3635 L 604.786,-18.7037 L 604.109,-19.1952 L 603.55,-19.8166 L 603.132,-20.5408
 L 602.873,-21.3361 L 602.786,-22.1678 L 602.786,-57.8322 L 602.891,-58.7446 L 603.166,-59.5344 L 603.599,-60.2498
 L 604.171,-60.8595 L 604.858,-61.337 L 605.629,-61.6612 L 606.45,-61.8181 L 607.286,-61.8008 L 608.1,-61.6101
 L 659.349,-43.7778 L 659.963,-43.5047 L 660.649,-43.0273 L 661.221,-42.4176 L 661.654,-41.7022 L 661.929,-40.9124
 L 662.034,-40.0828 L 661.964,-39.2495 L 661.722,-38.449 L 661.319,-37.7163 L 660.772,-37.0834 L 660.106,-36.578
 L 659.349,-36.2222 L 608.1,-18.3899 L 607.204,-18.1897 z
M 775.714,-18.1992 L 774.9,-18.3899 L 723.651,-36.2222 L 723.037,-36.4953 L 722.351,-36.9727 L 721.779,-37.5824
 L 721.346,-38.2978 L 721.071,-39.0876 L 720.966,-39.9172 L 721.036,-40.7505 L 721.278,-41.551 L 721.681,-42.2837
 L 722.228,-42.9166 L 722.894,-43.422 L 723.651,-43.7778 L 774.9,-61.6101 L 775.796,-61.8103 L 776.632,-61.8103
 L 777.45,-61.6365 L 778.214,-61.2963 L 778.891,-60.8048 L 779.45,-60.1834 L 779.868,-59.4592 L 780.127,-58.6639
 L 780.214,-57.8322 L 780.214,-22.1678 L 780.109,-21.2553 L 779.834,-20.4656 L 779.401,-19.7502 L 778.829,-19.1404
 L 778.142,-18.663 L 777.371,-18.3388 L 776.55,-18.1819 z
M 215.929,-18 L 214.692,-18.1958 L 213.929,-18.5359 L 213.252,-19.0274 L 212.692,-19.6489 L 212.274,-20.373
 L 212.016,-21.1684 L 211.929,-22 L 211.929,-55.7151 L 212.034,-56.6275 L 212.309,-57.4173 L 212.742,-58.1327
 L 213.314,-58.7424 L 214.001,-59.2198 L 214.771,-59.5441 L 215.593,-59.701 L 216.429,-59.6837 L 217.243,-59.4929
 L 314.138,-25.7778 L 315.175,-25.2361 L 315.797,-24.6765 L 316.288,-24 L 316.628,-23.2361 L 316.802,-22.4181
 L 316.802,-21.5819 L 316.628,-20.7639 L 316.288,-20 L 315.797,-19.3235 L 315.175,-18.7639 L 314.451,-18.3458
 L 313.656,-18.0874 L 312.824,-18 z
M 411.357,-18 L 410.121,-18.1958 L 409.357,-18.5359 L 408.681,-19.0274 L 408.121,-19.6489 L 407.703,-20.373
 L 407.445,-21.1684 L 407.357,-22 L 407.357,-55.7151 L 407.463,-56.6275 L 407.737,-57.4173 L 408.17,-58.1327
 L 408.743,-58.7424 L 409.429,-59.2198 L 410.2,-59.5441 L 411.021,-59.701 L 411.857,-59.6837 L 412.672,-59.4929
 L 509.567,-25.7778 L 510.604,-25.2361 L 511.225,-24.6765 L 511.717,-24 L 512.057,-23.2361 L 512.231,-22.4181
 L 512.231,-21.5819 L 512.057,-20.7639 L 511.717,-20 L 511.225,-19.3235 L 510.604,-18.7639 L 509.88,-18.3458
 L 509.084,-18.0874 L 508.253,-18 z
M 874.747,-18 L 873.916,-18.0874 L 873.12,-18.3458 L 872.396,-18.7639 L 871.775,-19.3235 L 871.283,-20
 L 870.943,-20.7639 L 870.769,-21.5819 L 870.769,-22.4181 L 870.943,-23.2361 L 871.283,-24 L 871.775,-24.6765
 L 872.396,-25.2361 L 873.433,-25.7778 L 970.328,-59.4929 L 971.143,-59.6837 L 971.979,-59.701 L 972.8,-59.5441
 L 973.571,-59.2198 L 974.257,-58.7424 L 974.83,-58.1327 L 975.263,-57.4173 L 975.537,-56.6275 L 975.643,-55.7151
 L 975.643,-22 L 975.555,-21.1684 L 975.297,-20.373 L 974.879,-19.6489 L 974.319,-19.0274 L 973.643,-18.5359
 L 972.879,-18.1958 L 971.643,-18 z
M 1070.18,-18 L 1069.34,-18.0874 L 1068.55,-18.3458 L 1067.82,-18.7639 L 1067.2,-19.3235 L 1066.71,-20
 L 1066.37,-20.7639 L 1066.2,-21.5819 L 1066.2,-22.4181 L 1066.37,-23.2361 L 1066.71,-24 L 1067.2,-24.6765
 L 1067.82,-25.2361 L 1068.86,-25.7778 L 1165.76,-59.4929 L 1166.57,-59.6837 L 1167.41,-59.701 L 1168.23,-59.5441
 L 1169,-59.2198 L 1169.69,-58.7424 L 1170.26,-58.1327 L 1170.69,-57.4173 L 1170.97,-56.6275 L 1171.07,-55.7151
 L 1171.07,-22 L 1170.98,-21.1684 L 1170.73,-20.373 L 1170.31,-19.6489 L 1169.75,-19.0274 L 1169.07,-18.5359
 L 1168.31,-18.1958 L 1167.07,-18 z
M 22,-18 L 20.7639,-18.1958 L 20,-18.5359 L 19.3235,-19.0274 L 18.7639,-19.6489 L 18.3458,-20.373
 L 18.0874,-21.1684 L 18,-22 L 18,-55.1931 L 18.1055,-56.1056 L 18.3803,-56.8953 L 18.8133,-57.6107
 L 19.3856,-58.2205 L 20.0721,-58.6979 L 20.8429,-59.0221 L 21.6643,-59.179 L 22.5003,-59.1617 L 23.3145,-58.971
 L 118.71,-25.7778 L 119.747,-25.2361 L 120.368,-24.6765 L 120.86,-24 L 121.2,-23.2361 L 121.374,-22.4181
 L 121.374,-21.5819 L 121.2,-20.7639 L 120.86,-20 L 120.368,-19.3235 L 119.747,-18.7639 L 119.022,-18.3458
 L 118.227,-18.0874 L 117.395,-18 z
M 1265.6,-18 L 1264.77,-18.0874 L 1263.98,-18.3458 L 1263.25,-18.7639 L 1262.63,-19.3235 L 1262.14,-20
 L 1261.8,-20.7639 L 1261.63,-21.5819 L 1261.63,-22.4181 L 1261.8,-23.2361 L 1262.14,-24 L 1262.63,-24.6765
 L 1263.25,-25.2361 L 1264.29,-25.7778 L 1359.69,-58.971 L 1360.5,-59.1617 L 1361.34,-59.179 L 1362.16,-59.0221
 L 1362.93,-58.6979 L 1363.61,-58.2205 L 1364.19,-57.6107 L 1364.62,-56.8953 L 1364.89,-56.1056 L 1365,-55.1931
 L 1365,-22 L 1364.91,-21.1684 L 1364.65,-20.373 L 1364.24,-19.6489 L 1363.68,-19.0274 L 1363,-18.5359
 L 1362.24,-18.1958 L 1361,-18 z
M 673.234,-18 L 672.077,-18.171 L 671.306,-18.4953 L 670.62,-18.9727 L 670.047,-19.5824 L 669.614,-20.2978
 L 669.34,-21.0876 L 669.235,-21.9172 L 669.305,-22.7505 L 669.547,-23.551 L 669.95,-24.2837 L 670.497,-24.9166
 L 671.163,-25.422 L 671.92,-25.7778 L 690.185,-32.1335 L 691.164,-32.3415 L 692,-32.3242 L 692.814,-32.1335
 L 711.08,-25.7778 L 712.117,-25.2361 L 712.738,-24.6765 L 713.23,-24 L 713.57,-23.2361 L 713.744,-22.4181
 L 713.744,-21.5819 L 713.57,-20.7639 L 713.23,-20 L 712.738,-19.3235 L 712.117,-18.7639 L 711.393,-18.3458
 L 710.597,-18.0874 L 709.766,-18 z
" stroke="black" fill="lightgray" stroke-width="0.5"/>
</svg>
