<?xml version="1.0" standalone="no"?>
<!DOCTYPE svg PUBLIC "-//W3C//DTD SVG 1.1//EN" "http://www.w3.org/Graphics/SVG/1.1/DTD/svg11.dtd">
<svg width="1667mm" height="80mm" viewBox="0 -80 1667 80" xmlns="http://www.w3.org/2000/svg" version="1.1">
<title>OpenSCAD Model</title>
<path d="
M 1667,-80 L 0,-80 L 0,-0 L 4.95,-0 L 4.95,-6 L 5.00572,-6.53017
 L 5.17046,-7.03717 L 5.437,-7.49884 L 5.79372,-7.895 L 6.22499,-8.20836 L 6.71201,-8.42519 L 7.23344,-8.53603
 L 7.76654,-8.53603 L 8.28798,-8.42519 L 8.77499,-8.20836 L 9.20627,-7.895 L 9.56299,-7.49884 L 9.82953,-7.03717
 L 9.99426,-6.53017 L 10.05,-6 L 10.05,-0 L 188.506,-0 L 188.506,-6 L 188.561,-6.53017
 L 188.726,-7.03717 L 188.993,-7.49884 L 189.349,-7.895 L 189.781,-8.20836 L 190.268,-8.42519 L 190.789,-8.53603
 L 191.322,-8.53603 L 191.844,-8.42519 L 192.331,-8.20836 L 192.762,-7.895 L 193.119,-7.49884 L 193.385,-7.03717
 L 193.55,-6.53017 L 193.606,-6 L 193.606,-0 L 372.061,-0 L 372.061,-6 L 372.117,-6.53017
 L 372.282,-7.03717 L 372.548,-7.49884 L 372.905,-7.895 L 373.336,-8.20836 L 373.823,-8.42519 L 374.345,-8.53603
 L 374.878,-8.53603 L 375.399,-8.42519 L 375.886,-8.20836 L 376.317,-7.895 L 376.674,-7.49884 L 376.941,-7.03717
 L 377.105,-6.53017 L 377.161,-6 L 377.161,-0 L 555.617,-0 L 555.617,-6 L 555.672,-6.53017
 L 555.837,-7.03717 L 556.104,-7.49884 L 556.46,-7.895 L 556.892,-8.20836 L 557.379,-8.42519 L 557.9,-8.53603
 L 558.433,-8.53603 L 558.955,-8.42519 L 559.442,-8.20836 L 559.873,-7.895 L 560.23,-7.49884 L 560.496,-7.03717
 L 560.661,-6.53017 L 560.717,-6 L 560.717,-0 L 739.172,-0 L 739.172,-6 L 739.228,-6.53017
 L 739.393,-7.03717 L 739.659,-7.49884 L 740.016,-7.895 L 740.447,-8.20836 L 740.934,-8.42519 L 741.456,-8.53603
 L 741.989,-8.53603 L 742.51,-8.42519 L 742.997,-8.20836 L 743.428,-7.895 L 743.785,-7.49884 L 744.052,-7.03717
 L 744.216,-6.53017 L 744.272,-6 L 744.272,-0 L 922.728,-0 L 922.728,-6 L 922.783,-6.53017
 L 922.948,-7.03717 L 923.215,-7.49884 L 923.571,-7.895 L 924.003,-8.20836 L 924.49,-8.42519 L 925.011,-8.53603
 L 925.544,-8.53603 L 926.066,-8.42519 L 926.553,-8.20836 L 926.984,-7.895 L 927.341,-7.49884 L 927.607,-7.03717
 L 927.772,-6.53017 L 927.828,-6 L 927.828,-0 L 1106.28,-0 L 1106.28,-6 L 1106.34,-6.53017
 L 1106.5,-7.03717 L 1106.77,-7.49884 L 1107.13,-7.895 L 1107.56,-8.20836 L 1108.05,-8.42519 L 1108.57,-8.53603
 L 1109.1,-8.53603 L 1109.62,-8.42519 L 1110.11,-8.20836 L 1110.54,-7.895 L 1110.9,-7.49884 L 1111.16,-7.03717
 L 1111.33,-6.53017 L 1111.38,-6 L 1111.38,-0 L 1289.84,-0 L 1289.84,-6 L 1289.89,-6.53017
 L 1290.06,-7.03717 L 1290.33,-7.49884 L 1290.68,-7.895 L 1291.11,-8.20836 L 1291.6,-8.42519 L 1292.12,-8.53603
 L 1292.66,-8.53603 L 1293.18,-8.42519 L 1293.66,-8.20836 L 1294.1,-7.895 L 1294.45,-7.49884 L 1294.72,-7.03717
 L 1294.88,-6.53017 L 1294.94,-6 L 1294.94,-0 L 1473.39,-0 L 1473.39,-6 L 1473.45,-6.53017
 L 1473.61,-7.03717 L 1473.88,-7.49884 L 1474.24,-7.895 L 1474.67,-8.20836 L 1475.16,-8.42519 L 1475.68,-8.53603
 L 1476.21,-8.53603 L 1476.73,-8.42519 L 1477.22,-8.20836 L 1477.65,-7.895 L 1478.01,-7.49884 L 1478.27,-7.03717
 L 1478.44,-6.53017 L 1478.49,-6 L 1478.49,-0 L 1656.95,-0 L 1656.95,-6 L 1657.01,-6.53017
 L 1657.17,-7.03717 L 1657.44,-7.49884 L 1657.79,-7.895 L 1658.22,-8.20836 L 1658.71,-8.42519 L 1659.23,-8.53603
 L 1659.77,-8.53603 L 1660.29,-8.42519 L 1660.77,-8.20836 L 1661.21,-7.895 L 1661.56,-7.49884 L 1661.83,-7.03717
 L 1661.99,-6.53017 L 1662.05,-6 L 1662.05,-0 L 1667,-0 z
M 6.98573,-55.607 L 6.47708,-55.6875 L 5.97964,-55.8208 L 5.49887,-56.0054 L 5.04001,-56.2392 L 4.60811,-56.5196
 L 4.20789,-56.8437 L 3.84373,-57.2079 L 3.51964,-57.6081 L 3.23917,-58.04 L 3.00537,-58.4989 L 2.82082,-58.9796
 L 2.68752,-59.4771 L 2.60696,-59.9857 L 2.58,-60.5 L 2.60696,-61.0143 L 2.68752,-61.5229 L 2.82082,-62.0204
 L 3.00537,-62.5011 L 3.23917,-62.96 L 3.51964,-63.3919 L 3.84373,-63.7921 L 4.20789,-64.1563 L 4.60811,-64.4804
 L 4.95001,-64.7024 L 4.95001,-74 L 5.00574,-74.5302 L 5.17047,-75.0372 L 5.43701,-75.4988 L 5.79373,-75.895
 L 6.22501,-76.2084 L 6.71202,-76.4252 L 7.23346,-76.536 L 7.76654,-76.536 L 8.28798,-76.4252 L 8.77499,-76.2084
 L 9.20627,-75.895 L 9.56299,-75.4988 L 9.82953,-75.0372 L 9.99426,-74.5302 L 10.05,-74 L 10.05,-64.7024
 L 10.3919,-64.4804 L 10.7921,-64.1563 L 11.1563,-63.7921 L 11.4804,-63.3919 L 11.7608,-62.96 L 11.9946,-62.5011
 L 12.1792,-62.0204 L 12.3125,-61.5229 L 12.393,-61.0143 L 12.42,-60.5 L 12.393,-59.9857 L 12.3125,-59.4771
 L 12.1792,-58.9796 L 11.9946,-58.4989 L 11.7608,-58.04 L 11.4804,-57.6081 L 11.1563,-57.2079 L 10.7921,-56.8437
 L 10.3919,-56.5196 L 9.95999,-56.2392 L 9.50113,-56.0054 L 9.02036,-55.8208 L 8.52292,-55.6875 L 8.01427,-55.607
 L 7.5,-55.58 z
M 1108.32,-55.607 L 1107.81,-55.6875 L 1107.31,-55.8208 L 1106.83,-56.0054 L 1106.37,-56.2392 L 1105.94,-56.5196
 L 1105.54,-56.8437 L 1105.18,-57.2079 L 1104.85,-57.6081 L 1104.57,-58.04 L 1104.34,-58.4989 L 1104.15,-58.9796
 L 1104.02,-59.4771 L 1103.94,-59.9857 L 1103.91,-60.5 L 1103.94,-61.0143 L 1104.02,-61.5229 L 1104.15,-62.0204
 L 1104.34,-62.5011 L 1104.57,-62.96 L 1104.85,-63.3919 L 1105.18,-63.7921 L 1105.54,-64.1563 L 1105.94,-64.4804
 L 1106.28,-64.7024 L 1106.28,-74 L 1106.34,-74.5302 L 1106.5,-75.0372 L 1106.77,-75.4988 L 1107.13,-75.895
 L 1107.56,-76.2084 L 1108.05,-76.4252 L 1108.57,-76.536 L 1109.1,-76.536 L 1109.62,-76.4252 L 1110.11,-76.2084
 L 1110.54,-75.895 L 1110.9,-75.4988 L 1111.16,-75.0372 L 1111.33,-74.5302 L 1111.38,-74 L 1111.38,-64.7024
 L 1111.73,-64.4804 L 1112.13,-64.1563 L 1112.49,-63.7921 L 1112.81,-63.3919 L 1113.09,-62.96 L 1113.33,-62.5011
 L 1113.51,-62.0204 L 1113.65,-61.5229 L 1113.73,-61.0143 L 1113.75,-60.5 L 1113.73,-59.9857 L 1113.65,-59.4771
 L 1113.51,-58.9796 L 1113.33,-58.4989 L 1113.09,-58.04 L 1112.81,-57.6081 L 1112.49,-57.2079 L 1112.13,-56.8437
 L 1111.73,-56.5196 L 1111.29,-56.2392 L 1110.83,-56.0054 L 1110.35,-55.8208 L 1109.86,-55.6875 L 1109.35,-55.607
 L 1108.83,-55.58 z
M 1291.87,-55.607 L 1291.37,-55.6875 L 1290.87,-55.8208 L 1290.39,-56.0054 L 1289.93,-56.2392 L 1289.5,-56.5196
 L 1289.1,-56.8437 L 1288.73,-57.2079 L 1288.41,-57.6081 L 1288.13,-58.04 L 1287.89,-58.4989 L 1287.71,-58.9796
 L 1287.58,-59.4771 L 1287.5,-59.9857 L 1287.47,-60.5 L 1287.5,-61.0143 L 1287.58,-61.5229 L 1287.71,-62.0204
 L 1287.89,-62.5011 L 1288.13,-62.96 L 1288.41,-63.3919 L 1288.73,-63.7921 L 1289.1,-64.1563 L 1289.5,-64.4804
 L 1289.84,-64.7024 L 1289.84,-74 L 1289.89,-74.5302 L 1290.06,-75.0372 L 1290.33,-75.4988 L 1290.68,-75.895
 L 1291.11,-76.2084 L 1291.6,-76.4252 L 1292.12,-76.536 L 1292.66,-76.536 L 1293.18,-76.4252 L 1293.66,-76.2084
 L 1294.1,-75.895 L 1294.45,-75.4988 L 1294.72,-75.0372 L 1294.88,-74.5302 L 1294.94,-74 L 1294.94,-64.7024
 L 1295.28,-64.4804 L 1295.68,-64.1563 L 1296.05,-63.7921 L 1296.37,-63.3919 L 1296.65,-62.96 L 1296.88,-62.5011
 L 1297.07,-62.0204 L 1297.2,-61.5229 L 1297.28,-61.0143 L 1297.31,-60.5 L 1297.28,-59.9857 L 1297.2,-59.4771
 L 1297.07,-58.9796 L 1296.88,-58.4989 L 1296.65,-58.04 L 1296.37,-57.6081 L 1296.05,-57.2079 L 1295.68,-56.8437
 L 1295.28,-56.5196 L 1294.85,-56.2392 L 1294.39,-56.0054 L 1293.91,-55.8208 L 1293.41,-55.6875 L 1292.9,-55.607
 L 1292.39,-55.58 z
M 924.764,-55.607 L 924.255,-55.6875 L 923.757,-55.8208 L 923.277,-56.0054 L 922.818,-56.2392 L 922.386,-56.5196
 L 921.986,-56.8437 L 921.622,-57.2079 L 921.297,-57.6081 L 921.017,-58.04 L 920.783,-58.4989 L 920.599,-58.9796
 L 920.465,-59.4771 L 920.385,-59.9857 L 920.358,-60.5 L 920.385,-61.0143 L 920.465,-61.5229 L 920.599,-62.0204
 L 920.783,-62.5011 L 921.017,-62.96 L 921.297,-63.3919 L 921.622,-63.7921 L 921.986,-64.1563 L 922.386,-64.4804
 L 922.728,-64.7024 L 922.728,-74 L 922.784,-74.5302 L 922.948,-75.0372 L 923.215,-75.4988 L 923.572,-75.895
 L 924.003,-76.2084 L 924.49,-76.4252 L 925.011,-76.536 L 925.544,-76.536 L 926.066,-76.4252 L 926.553,-76.2084
 L 926.984,-75.895 L 927.341,-75.4988 L 927.607,-75.0372 L 927.772,-74.5302 L 927.828,-74 L 927.828,-64.7024
 L 928.17,-64.4804 L 928.57,-64.1563 L 928.934,-63.7921 L 929.258,-63.3919 L 929.539,-62.96 L 929.772,-62.5011
 L 929.957,-62.0204 L 930.09,-61.5229 L 930.171,-61.0143 L 930.198,-60.5 L 930.171,-59.9857 L 930.09,-59.4771
 L 929.957,-58.9796 L 929.772,-58.4989 L 929.539,-58.04 L 929.258,-57.6081 L 928.934,-57.2079 L 928.57,-56.8437
 L 928.17,-56.5196 L 927.738,-56.2392 L 927.279,-56.0054 L 926.798,-55.8208 L 926.301,-55.6875 L 925.792,-55.607
 L 925.278,-55.58 z
M 741.208,-55.607 L 740.699,-55.6875 L 740.202,-55.8208 L 739.721,-56.0054 L 739.262,-56.2392 L 738.83,-56.5196
 L 738.43,-56.8437 L 738.066,-57.2079 L 737.742,-57.6081 L 737.461,-58.04 L 737.228,-58.4989 L 737.043,-58.9796
 L 736.91,-59.4771 L 736.829,-59.9857 L 736.802,-60.5 L 736.829,-61.0143 L 736.91,-61.5229 L 737.043,-62.0204
 L 737.228,-62.5011 L 737.461,-62.96 L 737.742,-63.3919 L 738.066,-63.7921 L 738.43,-64.1563 L 738.83,-64.4804
 L 739.172,-64.7024 L 739.172,-74 L 739.228,-74.5302 L 739.393,-75.0372 L 739.659,-75.4988 L 740.016,-75.895
 L 740.447,-76.2084 L 740.934,-76.4252 L 741.456,-76.536 L 741.989,-76.536 L 742.51,-76.4252 L 742.997,-76.2084
 L 743.428,-75.895 L 743.785,-75.4988 L 744.052,-75.0372 L 744.216,-74.5302 L 744.272,-74 L 744.272,-64.7024
 L 744.614,-64.4804 L 745.014,-64.1563 L 745.378,-63.7921 L 745.703,-63.3919 L 745.983,-62.96 L 746.217,-62.5011
 L 746.401,-62.0204 L 746.535,-61.5229 L 746.615,-61.0143 L 746.642,-60.5 L 746.615,-59.9857 L 746.535,-59.4771
 L 746.401,-58.9796 L 746.217,-58.4989 L 745.983,-58.04 L 745.703,-57.6081 L 745.378,-57.2079 L 745.014,-56.8437
 L 744.614,-56.5196 L 744.182,-56.2392 L 743.723,-56.0054 L 743.243,-55.8208 L 742.745,-55.6875 L 742.236,-55.607
 L 741.722,-55.58 z
M 1475.43,-55.607 L 1474.92,-55.6875 L 1474.42,-55.8208 L 1473.94,-56.0054 L 1473.48,-56.2392 L 1473.05,-56.5196
 L 1472.65,-56.8437 L 1472.29,-57.2079 L 1471.96,-57.6081 L 1471.68,-58.04 L 1471.45,-58.4989 L 1471.27,-58.9796
 L 1471.13,-59.4771 L 1471.05,-59.9857 L 1471.02,-60.5 L 1471.05,-61.0143 L 1471.13,-61.5229 L 1471.27,-62.0204
 L 1471.45,-62.5011 L 1471.68,-62.96 L 1471.96,-63.3919 L 1472.29,-63.7921 L 1472.65,-64.1563 L 1473.05,-64.4804
 L 1473.39,-64.7024 L 1473.39,-74 L 1473.45,-74.5302 L 1473.61,-75.0372 L 1473.88,-75.4988 L 1474.24,-75.895
 L 1474.67,-76.2084 L 1475.16,-76.4252 L 1475.68,-76.536 L 1476.21,-76.536 L 1476.73,-76.4252 L 1477.22,-76.2084
 L 1477.65,-75.895 L 1478.01,-75.4988 L 1478.27,-75.0372 L 1478.44,-74.5302 L 1478.49,-74 L 1478.49,-64.7024
 L 1478.84,-64.4804 L 1479.24,-64.1563 L 1479.6,-63.7921 L 1479.92,-63.3919 L 1480.21,-62.96 L 1480.44,-62.5011
 L 1480.62,-62.0204 L 1480.76,-61.5229 L 1480.84,-61.0143 L 1480.86,-60.5 L 1480.84,-59.9857 L 1480.76,-59.4771
 L 1480.62,-58.9796 L 1480.44,-58.4989 L 1480.21,-58.04 L 1479.92,-57.6081 L 1479.6,-57.2079 L 1479.24,-56.8437
 L 1478.84,-56.5196 L 1478.4,-56.2392 L 1477.95,-56.0054 L 1477.46,-55.8208 L 1476.97,-55.6875 L 1476.46,-55.607
 L 1475.94,-55.58 z
M 557.652,-55.607 L 557.144,-55.6875 L 556.646,-55.8208 L 556.166,-56.0054 L 555.707,-56.2392 L 555.275,-56.5196
 L 554.875,-56.8437 L 554.51,-57.2079 L 554.186,-57.6081 L 553.906,-58.04 L 553.672,-58.4989 L 553.487,-58.9796
 L 553.354,-59.4771 L 553.274,-59.9857 L 553.247,-60.5 L 553.274,-61.0143 L 553.354,-61.5229 L 553.487,-62.0204
 L 553.672,-62.5011 L 553.906,-62.96 L 554.186,-63.3919 L 554.51,-63.7921 L 554.875,-64.1563 L 555.275,-64.4804
 L 555.617,-64.7024 L 555.617,-74 L 555.672,-74.5302 L 555.837,-75.0372 L 556.104,-75.4988 L 556.46,-75.895
 L 556.892,-76.2084 L 557.379,-76.4252 L 557.9,-76.536 L 558.433,-76.536 L 558.955,-76.4252 L 559.442,-76.2084
 L 559.873,-75.895 L 560.23,-75.4988 L 560.496,-75.0372 L 560.661,-74.5302 L 560.717,-74 L 560.717,-64.7024
 L 561.059,-64.4804 L 561.459,-64.1563 L 561.823,-63.7921 L 562.147,-63.3919 L 562.427,-62.96 L 562.661,-62.5011
 L 562.846,-62.0204 L 562.979,-61.5229 L 563.06,-61.0143 L 563.087,-60.5 L 563.06,-59.9857 L 562.979,-59.4771
 L 562.846,-58.9796 L 562.661,-58.4989 L 562.427,-58.04 L 562.147,-57.6081 L 561.823,-57.2079 L 561.459,-56.8437
 L 561.059,-56.5196 L 560.627,-56.2392 L 560.168,-56.0054 L 559.687,-55.8208 L 559.19,-55.6875 L 558.681,-55.607
 L 558.167,-55.58 z
M 374.097,-55.607 L 373.588,-55.6875 L 373.091,-55.8208 L 372.61,-56.0054 L 372.151,-56.2392 L 371.719,-56.5196
 L 371.319,-56.8437 L 370.955,-57.2079 L 370.631,-57.6081 L 370.35,-58.04 L 370.116,-58.4989 L 369.932,-58.9796
 L 369.799,-59.4771 L 369.718,-59.9857 L 369.691,-60.5 L 369.718,-61.0143 L 369.799,-61.5229 L 369.932,-62.0204
 L 370.116,-62.5011 L 370.35,-62.96 L 370.631,-63.3919 L 370.955,-63.7921 L 371.319,-64.1563 L 371.719,-64.4804
 L 372.061,-64.7024 L 372.061,-74 L 372.117,-74.5302 L 372.282,-75.0372 L 372.548,-75.4988 L 372.905,-75.895
 L 373.336,-76.2084 L 373.823,-76.4252 L 374.345,-76.536 L 374.878,-76.536 L 375.399,-76.4252 L 375.886,-76.2084
 L 376.317,-75.895 L 376.674,-75.4988 L 376.941,-75.0372 L 377.105,-74.5302 L 377.161,-74 L 377.161,-64.7024
 L 377.503,-64.4804 L 377.903,-64.1563 L 378.267,-63.7921 L 378.591,-63.3919 L 378.872,-62.96 L 379.106,-62.5011
 L 379.29,-62.0204 L 379.424,-61.5229 L 379.504,-61.0143 L 379.531,-60.5 L 379.504,-59.9857 L 379.424,-59.4771
 L 379.29,-58.9796 L 379.106,-58.4989 L 378.872,-58.04 L 378.591,-57.6081 L 378.267,-57.2079 L 377.903,-56.8437
 L 377.503,-56.5196 L 377.071,-56.2392 L 376.612,-56.0054 L 376.131,-55.8208 L 375.634,-55.6875 L 375.125,-55.607
 L 374.611,-55.58 z
M 1658.99,-55.607 L 1658.48,-55.6875 L 1657.98,-55.8208 L 1657.5,-56.0054 L 1657.04,-56.2392 L 1656.61,-56.5196
 L 1656.21,-56.8437 L 1655.84,-57.2079 L 1655.52,-57.6081 L 1655.24,-58.04 L 1655.01,-58.4989 L 1654.82,-58.9796
 L 1654.69,-59.4771 L 1654.61,-59.9857 L 1654.58,-60.5 L 1654.61,-61.0143 L 1654.69,-61.5229 L 1654.82,-62.0204
 L 1655.01,-62.5011 L 1655.24,-62.96 L 1655.52,-63.3919 L 1655.84,-63.7921 L 1656.21,-64.1563 L 1656.61,-64.4804
 L 1656.95,-64.7024 L 1656.95,-74 L 1657.01,-74.5302 L 1657.17,-75.0372 L 1657.44,-75.4988 L 1657.79,-75.895
 L 1658.23,-76.2084 L 1658.71,-76.4252 L 1659.23,-76.536 L 1659.77,-76.536 L 1660.29,-76.4252 L 1660.77,-76.2084
 L 1661.21,-75.895 L 1661.56,-75.4988 L 1661.83,-75.0372 L 1661.99,-74.5302 L 1662.05,-74 L 1662.05,-64.7024
 L 1662.39,-64.4804 L 1662.79,-64.1563 L 1663.16,-63.7921 L 1663.48,-63.3919 L 1663.76,-62.96 L 1663.99,-62.5011
 L 1664.18,-62.0204 L 1664.31,-61.5229 L 1664.39,-61.0143 L 1664.42,-60.5 L 1664.39,-59.9857 L 1664.31,-59.4771
 L 1664.18,-58.9796 L 1663.99,-58.4989 L 1663.76,-58.04 L 1663.48,-57.6081 L 1663.16,-57.2079 L 1662.79,-56.8437
 L 1662.39,-56.5196 L 1661.96,-56.2392 L 1661.5,-56.0054 L 1661.02,-55.8208 L 1660.52,-55.6875 L 1660.01,-55.607
 L 1659.5,-55.58 z
M 190.541,-55.607 L 190.033,-55.6875 L 189.535,-55.8208 L 189.054,-56.0054 L 188.596,-56.2392 L 188.164,-56.5196
 L 187.763,-56.8437 L 187.399,-57.2079 L 187.075,-57.6081 L 186.795,-58.04 L 186.561,-58.4989 L 186.376,-58.9796
 L 186.243,-59.4771 L 186.163,-59.9857 L 186.136,-60.5 L 186.163,-61.0143 L 186.243,-61.5229 L 186.376,-62.0204
 L 186.561,-62.5011 L 186.795,-62.96 L 187.075,-63.3919 L 187.399,-63.7921 L 187.763,-64.1563 L 188.164,-64.4804
 L 188.506,-64.7024 L 188.506,-74 L 188.561,-74.5302 L 188.726,-75.0372 L 188.993,-75.4988 L 189.349,-75.895
 L 189.781,-76.2084 L 190.268,-76.4252 L 190.789,-76.536 L 191.322,-76.536 L 191.844,-76.4252 L 192.331,-76.2084
 L 192.762,-75.895 L 193.119,-75.4988 L 193.385,-75.0372 L 193.55,-74.5302 L 193.606,-74 L 193.606,-64.7024
 L 193.947,-64.4804 L 194.348,-64.1563 L 194.712,-63.7921 L 195.036,-63.3919 L 195.316,-62.96 L 195.55,-62.5011
 L 195.735,-62.0204 L 195.868,-61.5229 L 195.949,-61.0143 L 195.976,-60.5 L 195.949,-59.9857 L 195.868,-59.4771
 L 195.735,-58.9796 L 195.55,-58.4989 L 195.316,-58.04 L 195.036,-57.6081 L 194.712,-57.2079 L 194.348,-56.8437
 L 193.947,-56.5196 L 193.516,-56.2392 L 193.057,-56.0054 L 192.576,-55.8208 L 192.078,-55.6875 L 191.57,-55.607
 L 191.056,-55.58 z
M 1120.75,-20.8166 L 1119.98,-21.1255 L 1119.28,-21.5891 L 1118.7,-22.1873 L 1118.25,-22.8939 L 1117.96,-23.6781
 L 1117.83,-24.6679 L 1117.83,-58 L 1117.92,-58.8316 L 1118.18,-59.627 L 1118.6,-60.3511 L 1119.16,-60.9726
 L 1119.83,-61.4641 L 1120.6,-61.8042 L 1121.83,-62 L 1211.81,-62 L 1212.64,-61.9126 L 1213.44,-61.6542
 L 1214.16,-61.2361 L 1214.78,-60.6765 L 1215.27,-60 L 1215.61,-59.2361 L 1215.79,-58.4181 L 1215.79,-57.5819
 L 1215.61,-56.7639 L 1215.27,-56 L 1214.78,-55.3235 L 1214.16,-54.7639 L 1213.2,-54.2491 L 1123.22,-20.917
 L 1122.41,-20.7101 L 1121.58,-20.6761 z
M 937.197,-20.8166 L 936.42,-21.1255 L 935.724,-21.5891 L 935.14,-22.1873 L 934.693,-22.8939 L 934.402,-23.6781
 L 934.278,-24.6679 L 934.278,-58 L 934.365,-58.8316 L 934.624,-59.627 L 935.042,-60.3511 L 935.601,-60.9726
 L 936.278,-61.4641 L 937.042,-61.8042 L 938.278,-62 L 1028.25,-62 L 1029.08,-61.9126 L 1029.88,-61.6542
 L 1030.6,-61.2361 L 1031.23,-60.6765 L 1031.72,-60 L 1032.06,-59.2361 L 1032.23,-58.4181 L 1032.23,-57.5819
 L 1032.06,-56.7639 L 1031.72,-56 L 1031.23,-55.3235 L 1030.6,-54.7639 L 1029.64,-54.2491 L 939.667,-20.917
 L 938.857,-20.7101 L 938.022,-20.6761 z
M 832.921,-47.763 L 832.11,-47.97 L 815.161,-54.2491 L 814.199,-54.7639 L 813.578,-55.3235 L 813.086,-56
 L 812.746,-56.7639 L 812.572,-57.5819 L 812.572,-58.4181 L 812.746,-59.2361 L 813.086,-60 L 813.578,-60.6765
 L 814.199,-61.2361 L 814.923,-61.6542 L 815.719,-61.9126 L 816.55,-62 L 850.45,-62 L 851.53,-61.8513
 L 852.307,-61.5425 L 853.003,-61.0788 L 853.587,-60.4806 L 854.035,-59.774 L 854.325,-58.9899 L 854.446,-58.1625
 L 854.393,-57.3279 L 854.167,-56.5228 L 853.778,-55.7822 L 853.245,-55.1386 L 852.589,-54.62 L 851.839,-54.2491
 L 834.89,-47.97 L 833.756,-47.7291 z
M 728.143,-20.7101 L 727.333,-20.917 L 637.358,-54.2491 L 636.396,-54.7639 L 635.775,-55.3235 L 635.283,-56
 L 634.943,-56.7639 L 634.769,-57.5819 L 634.769,-58.4181 L 634.943,-59.2361 L 635.283,-60 L 635.775,-60.6765
 L 636.396,-61.2361 L 637.12,-61.6542 L 637.916,-61.9126 L 638.747,-62 L 728.722,-62 L 729.958,-61.8042
 L 730.722,-61.4641 L 731.399,-60.9726 L 731.958,-60.3511 L 732.376,-59.627 L 732.635,-58.8316 L 732.722,-58
 L 732.722,-24.6679 L 732.598,-23.6781 L 732.307,-22.8939 L 731.86,-22.1873 L 731.276,-21.5891 L 730.58,-21.1255
 L 729.803,-20.8166 L 728.978,-20.6761 z
M 544.587,-20.7101 L 543.777,-20.917 L 453.802,-54.2491 L 452.841,-54.7639 L 452.219,-55.3235 L 451.728,-56
 L 451.388,-56.7639 L 451.214,-57.5819 L 451.214,-58.4181 L 451.388,-59.2361 L 451.728,-60 L 452.219,-60.6765
 L 452.841,-61.2361 L 453.565,-61.6542 L 454.36,-61.9126 L 455.192,-62 L 545.167,-62 L 546.403,-61.8042
 L 547.167,-61.4641 L 547.843,-60.9726 L 548.403,-60.3511 L 548.821,-59.627 L 549.079,-58.8316 L 549.167,-58
 L 549.167,-24.6679 L 549.042,-23.6781 L 548.752,-22.8939 L 548.305,-22.1873 L 547.72,-21.5891 L 547.024,-21.1255
 L 546.247,-20.8166 L 545.423,-20.6761 z
M 361.032,-20.7101 L 360.222,-20.917 L 270.247,-54.2491 L 269.285,-54.7639 L 268.664,-55.3235 L 268.172,-56
 L 267.832,-56.7639 L 267.658,-57.5819 L 267.658,-58.4181 L 267.832,-59.2361 L 268.172,-60 L 268.664,-60.6765
 L 269.285,-61.2361 L 270.009,-61.6542 L 270.805,-61.9126 L 271.636,-62 L 361.611,-62 L 362.847,-61.8042
 L 363.611,-61.4641 L 364.288,-60.9726 L 364.847,-60.3511 L 365.265,-59.627 L 365.524,-58.8316 L 365.611,-58
 L 365.611,-24.6679 L 365.487,-23.6781 L 365.196,-22.8939 L 364.749,-22.1873 L 364.165,-21.5891 L 363.469,-21.1255
 L 362.692,-20.8166 L 361.867,-20.6761 z
M 1487.86,-20.8166 L 1487.09,-21.1255 L 1486.39,-21.5891 L 1485.81,-22.1873 L 1485.36,-22.8939 L 1485.07,-23.6781
 L 1484.94,-24.6679 L 1484.94,-58 L 1485.03,-58.8316 L 1485.29,-59.627 L 1485.71,-60.3511 L 1486.27,-60.9726
 L 1486.94,-61.4641 L 1487.71,-61.8042 L 1488.94,-62 L 1578.92,-62 L 1579.75,-61.9126 L 1580.55,-61.6542
 L 1581.27,-61.2361 L 1581.89,-60.6765 L 1582.38,-60 L 1582.72,-59.2361 L 1582.9,-58.4181 L 1582.9,-57.5819
 L 1582.72,-56.7639 L 1582.38,-56 L 1581.89,-55.3235 L 1581.27,-54.7639 L 1580.31,-54.2491 L 1490.33,-20.917
 L 1489.52,-20.7101 L 1488.69,-20.6761 z
M 177.476,-20.7101 L 176.666,-20.917 L 86.6912,-54.2491 L 85.7296,-54.7639 L 85.1082,-55.3235 L 84.6166,-56
 L 84.2765,-56.7639 L 84.1026,-57.5819 L 84.1026,-58.4181 L 84.2765,-59.2361 L 84.6166,-60 L 85.1082,-60.6765
 L 85.7296,-61.2361 L 86.4538,-61.6542 L 87.2491,-61.9126 L 88.0807,-62 L 178.056,-62 L 179.292,-61.8042
 L 180.056,-61.4641 L 180.732,-60.9726 L 181.292,-60.3511 L 181.71,-59.627 L 181.968,-58.8316 L 182.056,-58
 L 182.056,-24.6679 L 181.931,-23.6781 L 181.641,-22.8939 L 181.193,-22.1873 L 180.609,-21.5891 L 179.913,-21.1255
 L 179.136,-20.8166 L 178.312,-20.6761 z
M 1304.31,-20.8166 L 1303.53,-21.1255 L 1302.84,-21.5891 L 1302.25,-22.1873 L 1301.8,-22.8939 L 1301.51,-23.6781
 L 1301.39,-24.6679 L 1301.39,-58 L 1301.48,-58.8316 L 1301.73,-59.627 L 1302.15,-60.3511 L 1302.71,-60.9726
 L 1303.39,-61.4641 L 1304.15,-61.8042 L 1305.39,-62 L 1395.36,-62 L 1396.2,-61.9126 L 1396.99,-61.6542
 L 1397.71,-61.2361 L 1398.34,-60.6765 L 1398.83,-60 L 1399.17,-59.2361 L 1399.34,-58.4181 L 1399.34,-57.5819
 L 1399.17,-56.7639 L 1398.83,-56 L 1398.34,-55.3235 L 1397.71,-54.7639 L 1396.75,-54.2491 L 1306.78,-20.917
 L 1305.97,-20.7101 L 1305.13,-20.6761 z
M 754.304,-18.5588 L 753.486,-18.7326 L 752.722,-19.0728 L 752.046,-19.5643 L 751.486,-20.1857 L 751.068,-20.9099
 L 750.81,-21.7052 L 750.722,-22.5369 L 750.722,-57.4631 L 750.847,-58.453 L 751.137,-59.2372 L 751.584,-59.9438
 L 752.169,-60.542 L 752.865,-61.0056 L 753.642,-61.3144 L 754.466,-61.4549 L 755.302,-61.421 L 756.112,-61.214
 L 803.251,-43.7509 L 803.719,-43.5425 L 804.415,-43.0788 L 804.999,-42.4806 L 805.446,-41.774 L 805.737,-40.9899
 L 805.858,-40.1625 L 805.804,-39.3279 L 805.579,-38.5228 L 805.19,-37.7822 L 804.656,-37.1386 L 804,-36.62
 L 803.251,-36.2491 L 756.112,-18.786 L 755.14,-18.5588 z
M 911.698,-18.579 L 910.888,-18.786 L 863.749,-36.2491 L 863.281,-36.4575 L 862.585,-36.9212 L 862.001,-37.5194
 L 861.554,-38.226 L 861.263,-39.0101 L 861.142,-39.8375 L 861.196,-40.6721 L 861.421,-41.4772 L 861.81,-42.2178
 L 862.344,-42.8614 L 863,-43.38 L 863.749,-43.7509 L 910.888,-61.214 L 911.86,-61.4412 L 912.696,-61.4412
 L 913.514,-61.2674 L 914.278,-60.9272 L 914.954,-60.4357 L 915.514,-59.8143 L 915.932,-59.0901 L 916.19,-58.2948
 L 916.278,-57.4632 L 916.278,-22.5368 L 916.153,-21.547 L 915.863,-20.7628 L 915.416,-20.0562 L 914.831,-19.458
 L 914.135,-18.9944 L 913.358,-18.6856 L 912.534,-18.5451 z
M 204.056,-18 L 202.819,-18.1958 L 202.056,-18.5359 L 201.379,-19.0274 L 200.819,-19.6489 L 200.401,-20.373
 L 200.143,-21.1684 L 200.056,-22 L 200.056,-55.3321 L 200.18,-56.3219 L 200.47,-57.1061 L 200.918,-57.8127
 L 201.502,-58.4109 L 202.198,-58.8745 L 202.975,-59.1833 L 203.799,-59.3239 L 204.635,-59.2899 L 205.445,-59.0829
 L 295.42,-25.7509 L 296.381,-25.2361 L 297.003,-24.6765 L 297.494,-24 L 297.835,-23.2361 L 298.008,-22.4181
 L 298.008,-21.5819 L 297.835,-20.7639 L 297.494,-20 L 297.003,-19.3235 L 296.381,-18.7639 L 295.657,-18.3458
 L 294.862,-18.0874 L 294.03,-18 z
M 387.611,-18 L 386.375,-18.1958 L 385.611,-18.5359 L 384.935,-19.0274 L 384.375,-19.6489 L 383.957,-20.373
 L 383.699,-21.1684 L 383.611,-22 L 383.611,-55.3321 L 383.736,-56.3219 L 384.026,-57.1061 L 384.473,-57.8127
 L 385.058,-58.4109 L 385.753,-58.8745 L 386.531,-59.1833 L 387.355,-59.3239 L 388.19,-59.2899 L 389.001,-59.0829
 L 478.975,-25.7509 L 479.937,-25.2361 L 480.558,-24.6765 L 481.05,-24 L 481.39,-23.2361 L 481.564,-22.4181
 L 481.564,-21.5819 L 481.39,-20.7639 L 481.05,-20 L 480.558,-19.3235 L 479.937,-18.7639 L 479.213,-18.3458
 L 478.418,-18.0874 L 477.586,-18 z
M 571.167,-18 L 569.931,-18.1958 L 569.167,-18.5359 L 568.49,-19.0274 L 567.931,-19.6489 L 567.512,-20.373
 L 567.254,-21.1684 L 567.167,-22 L 567.167,-55.3321 L 567.291,-56.3219 L 567.582,-57.1061 L 568.029,-57.8127
 L 568.613,-58.4109 L 569.309,-58.8745 L 570.086,-59.1833 L 570.91,-59.3239 L 571.746,-59.2899 L 572.556,-59.0829
 L 662.531,-25.7509 L 663.493,-25.2361 L 664.114,-24.6765 L 664.606,-24 L 664.946,-23.2361 L 665.12,-22.4181
 L 665.12,-21.5819 L 664.946,-20.7639 L 664.606,-20 L 664.114,-19.3235 L 663.493,-18.7639 L 662.768,-18.3458
 L 661.973,-18.0874 L 661.141,-18 z
M 1005.86,-18 L 1005.03,-18.0874 L 1004.23,-18.3458 L 1003.51,-18.7639 L 1002.89,-19.3235 L 1002.39,-20
 L 1002.05,-20.7639 L 1001.88,-21.5819 L 1001.88,-22.4181 L 1002.05,-23.2361 L 1002.39,-24 L 1002.89,-24.6765
 L 1003.51,-25.2361 L 1004.47,-25.7509 L 1094.44,-59.0829 L 1095.25,-59.2899 L 1096.09,-59.3239 L 1096.91,-59.1833
 L 1097.69,-58.8745 L 1098.39,-58.4109 L 1098.97,-57.8127 L 1099.42,-57.1061 L 1099.71,-56.3219 L 1099.83,-55.3321
 L 1099.83,-22 L 1099.75,-21.1684 L 1099.49,-20.373 L 1099.07,-19.6489 L 1098.51,-19.0274 L 1097.83,-18.5359
 L 1097.07,-18.1958 L 1095.83,-18 z
M 1189.41,-18 L 1188.58,-18.0874 L 1187.79,-18.3458 L 1187.06,-18.7639 L 1186.44,-19.3235 L 1185.95,-20
 L 1185.61,-20.7639 L 1185.44,-21.5819 L 1185.44,-22.4181 L 1185.61,-23.2361 L 1185.95,-24 L 1186.44,-24.6765
 L 1187.06,-25.2361 L 1188.02,-25.7509 L 1278,-59.0829 L 1278.81,-59.2899 L 1279.65,-59.3239 L 1280.47,-59.1833
 L 1281.25,-58.8745 L 1281.94,-58.4109 L 1282.53,-57.8127 L 1282.97,-57.1061 L 1283.26,-56.3219 L 1283.39,-55.3321
 L 1283.39,-22 L 1283.3,-21.1684 L 1283.04,-20.373 L 1282.62,-19.6489 L 1282.07,-19.0274 L 1281.39,-18.5359
 L 1280.62,-18.1958 L 1279.39,-18 z
M 1372.97,-18 L 1372.14,-18.0874 L 1371.34,-18.3458 L 1370.62,-18.7639 L 1370,-19.3235 L 1369.51,-20
 L 1369.17,-20.7639 L 1368.99,-21.5819 L 1368.99,-22.4181 L 1369.17,-23.2361 L 1369.51,-24 L 1370,-24.6765
 L 1370.62,-25.2361 L 1371.58,-25.7509 L 1461.55,-59.0829 L 1462.37,-59.2899 L 1463.2,-59.3239 L 1464.02,-59.1833
 L 1464.8,-58.8745 L 1465.5,-58.4109 L 1466.08,-57.8127 L 1466.53,-57.1061 L 1466.82,-56.3219 L 1466.94,-55.3321
 L 1466.94,-22 L 1466.86,-21.1684 L 1466.6,-20.373 L 1466.18,-19.6489 L 1465.62,-19.0274 L 1464.94,-18.5359
 L 1464.18,-18.1958 L 1462.94,-18 z
M 22,-18 L 20.7639,-18.1958 L 20,-18.5359 L 19.3235,-19.0274 L 18.7639,-19.6489 L 18.3458,-20.373
 L 18.0874,-21.1684 L 18,-22 L 18,-54.7764 L 18.1244,-55.7662 L 18.4149,-56.5504 L 18.8621,-57.257
 L 19.4464,-57.8552 L 20.1423,-58.3188 L 20.9194,-58.6277 L 21.7438,-58.7682 L 22.5793,-58.7342 L 23.3896,-58.5273
 L 111.864,-25.7509 L 112.826,-25.2361 L 113.447,-24.6765 L 113.939,-24 L 114.279,-23.2361 L 114.453,-22.4181
 L 114.453,-21.5819 L 114.279,-20.7639 L 113.939,-20 L 113.447,-19.3235 L 112.826,-18.7639 L 112.102,-18.3458
 L 111.306,-18.0874 L 110.475,-18 z
M 1556.53,-18 L 1555.69,-18.0874 L 1554.9,-18.3458 L 1554.17,-18.7639 L 1553.55,-19.3235 L 1553.06,-20
 L 1552.72,-20.7639 L 1552.55,-21.5819 L 1552.55,-22.4181 L 1552.72,-23.2361 L 1553.06,-24 L 1553.55,-24.6765
 L 1554.17,-25.2361 L 1555.14,-25.7509 L 1643.61,-58.5273 L 1644.42,-58.7342 L 1645.26,-58.7682 L 1646.08,-58.6277
 L 1646.86,-58.3188 L 1647.55,-57.8552 L 1648.14,-57.257 L 1648.59,-56.5504 L 1648.88,-55.7662 L 1649,-54.7764
 L 1649,-22 L 1648.91,-21.1684 L 1648.65,-20.373 L 1648.24,-19.6489 L 1647.68,-19.0274 L 1647,-18.5359
 L 1646.24,-18.1958 L 1645,-18 z
M 816.55,-18 L 815.47,-18.1487 L 814.693,-18.4575 L 813.997,-18.9212 L 813.413,-19.5194 L 812.965,-20.226
 L 812.675,-21.0101 L 812.554,-21.8375 L 812.607,-22.6721 L 812.833,-23.4772 L 813.222,-24.2178 L 813.755,-24.8614
 L 814.411,-25.38 L 815.161,-25.7509 L 832.11,-32.03 L 833.244,-32.2709 L 834.079,-32.237 L 834.89,-32.03
 L 851.839,-25.7509 L 852.801,-25.2361 L 853.422,-24.6765 L 853.914,-24 L 854.254,-23.2361 L 854.428,-22.4181
 L 854.428,-21.5819 L 854.254,-20.7639 L 853.914,-20 L 853.422,-19.3235 L 852.801,-18.7639 L 852.076,-18.3458
 L 851.281,-18.0874 L 850.45,-18 z
" stroke="black" fill="lightgray" stroke-width="0.5"/>
</svg>
