<?xml version="1.0" standalone="no"?>
<!DOCTYPE svg PUBLIC "-//W3C//DTD SVG 1.1//EN" "http://www.w3.org/Graphics/SVG/1.1/DTD/svg11.dtd">
<svg width="1116mm" height="80mm" viewBox="0 -80 1116 80" xmlns="http://www.w3.org/2000/svg" version="1.1">
<title>OpenSCAD Model</title>
<path d="
M 1116,-80 L 0,-80 L 0,-0 L 4.95,-0 L 4.95,-6 L 5.00572,-6.53017
 L 5.17046,-7.03717 L 5.437,-7.49884 L 5.79372,-7.895 L 6.22499,-8.20836 L 6.71201,-8.42519 L 7.23344,-8.53603
 L 7.76654,-8.53603 L 8.28798,-8.42519 L 8.77499,-8.20836 L 9.20627,-7.895 L 9.56299,-7.49884 L 9.82953,-7.03717
 L 9.99426,-6.53017 L 10.05,-6 L 10.05,-0 L 188.45,-0 L 188.45,-6 L 188.506,-6.53017
 L 188.67,-7.03717 L 188.937,-7.49884 L 189.294,-7.895 L 189.725,-8.20836 L 190.212,-8.42519 L 190.733,-8.53603
 L 191.267,-8.53603 L 191.788,-8.42519 L 192.275,-8.20836 L 192.706,-7.895 L 193.063,-7.49884 L 193.33,-7.03717
 L 193.494,-6.53017 L 193.55,-6 L 193.55,-0 L 371.95,-0 L 371.95,-6 L 372.006,-6.53017
 L 372.17,-7.03717 L 372.437,-7.49884 L 372.794,-7.895 L 373.225,-8.20836 L 373.712,-8.42519 L 374.233,-8.53603
 L 374.767,-8.53603 L 375.288,-8.42519 L 375.775,-8.20836 L 376.206,-7.895 L 376.563,-7.49884 L 376.83,-7.03717
 L 376.994,-6.53017 L 377.05,-6 L 377.05,-0 L 555.45,-0 L 555.45,-6 L 555.506,-6.53017
 L 555.67,-7.03717 L 555.937,-7.49884 L 556.294,-7.895 L 556.725,-8.20836 L 557.212,-8.42519 L 557.733,-8.53603
 L 558.267,-8.53603 L 558.788,-8.42519 L 559.275,-8.20836 L 559.706,-7.895 L 560.063,-7.49884 L 560.33,-7.03717
 L 560.494,-6.53017 L 560.55,-6 L 560.55,-0 L 738.95,-0 L 738.95,-6 L 739.006,-6.53017
 L 739.17,-7.03717 L 739.437,-7.49884 L 739.794,-7.895 L 740.225,-8.20836 L 740.712,-8.42519 L 741.233,-8.53603
 L 741.767,-8.53603 L 742.288,-8.42519 L 742.775,-8.20836 L 743.206,-7.895 L 743.563,-7.49884 L 743.83,-7.03717
 L 743.994,-6.53017 L 744.05,-6 L 744.05,-0 L 922.45,-0 L 922.45,-6 L 922.506,-6.53017
 L 922.67,-7.03717 L 922.937,-7.49884 L 923.294,-7.895 L 923.725,-8.20836 L 924.212,-8.42519 L 924.733,-8.53603
 L 925.267,-8.53603 L 925.788,-8.42519 L 926.275,-8.20836 L 926.706,-7.895 L 927.063,-7.49884 L 927.33,-7.03717
 L 927.494,-6.53017 L 927.55,-6 L 927.55,-0 L 1105.95,-0 L 1105.95,-6 L 1106.01,-6.53017
 L 1106.17,-7.03717 L 1106.44,-7.49884 L 1106.79,-7.895 L 1107.22,-8.20836 L 1107.71,-8.42519 L 1108.23,-8.53603
 L 1108.77,-8.53603 L 1109.29,-8.42519 L 1109.77,-8.20836 L 1110.21,-7.895 L 1110.56,-7.49884 L 1110.83,-7.03717
 L 1110.99,-6.53017 L 1111.05,-6 L 1111.05,-0 L 1116,-0 z
M 6.98573,-55.607 L 6.47708,-55.6875 L 5.97964,-55.8208 L 5.49887,-56.0054 L 5.04001,-56.2392 L 4.60811,-56.5196
 L 4.20789,-56.8437 L 3.84373,-57.2079 L 3.51964,-57.6081 L 3.23917,-58.04 L 3.00537,-58.4989 L 2.82082,-58.9796
 L 2.68752,-59.4771 L 2.60696,-59.9857 L 2.58,-60.5 L 2.60696,-61.0143 L 2.68752,-61.5229 L 2.82082,-62.0204
 L 3.00537,-62.5011 L 3.23917,-62.96 L 3.51964,-63.3919 L 3.84373,-63.7921 L 4.20789,-64.1563 L 4.60811,-64.4804
 L 4.95001,-64.7024 L 4.95001,-74 L 5.00574,-74.5302 L 5.17047,-75.0372 L 5.43701,-75.4988 L 5.79373,-75.895
 L 6.22501,-76.2084 L 6.71202,-76.4252 L 7.23346,-76.536 L 7.76654,-76.536 L 8.28798,-76.4252 L 8.77499,-76.2084
 L 9.20627,-75.895 L 9.56299,-75.4988 L 9.82953,-75.0372 L 9.99426,-74.5302 L 10.05,-74 L 10.05,-64.7024
 L 10.3919,-64.4804 L 10.7921,-64.1563 L 11.1563,-63.7921 L 11.4804,-63.3919 L 11.7608,-62.96 L 11.9946,-62.5011
 L 12.1792,-62.0204 L 12.3125,-61.5229 L 12.393,-61.0143 L 12.42,-60.5 L 12.393,-59.9857 L 12.3125,-59.4771
 L 12.1792,-58.9796 L 11.9946,-58.4989 L 11.7608,-58.04 L 11.4804,-57.6081 L 11.1563,-57.2079 L 10.7921,-56.8437
 L 10.3919,-56.5196 L 9.95999,-56.2392 L 9.50113,-56.0054 L 9.02036,-55.8208 L 8.52292,-55.6875 L 8.01427,-55.607
 L 7.5,-55.58 z
M 190.486,-55.607 L 189.977,-55.6875 L 189.48,-55.8208 L 188.999,-56.0054 L 188.54,-56.2392 L 188.108,-56.5196
 L 187.708,-56.8437 L 187.344,-57.2079 L 187.02,-57.6081 L 186.739,-58.04 L 186.505,-58.4989 L 186.321,-58.9796
 L 186.188,-59.4771 L 186.107,-59.9857 L 186.08,-60.5 L 186.107,-61.0143 L 186.188,-61.5229 L 186.321,-62.0204
 L 186.505,-62.5011 L 186.739,-62.96 L 187.02,-63.3919 L 187.344,-63.7921 L 187.708,-64.1563 L 188.108,-64.4804
 L 188.45,-64.7024 L 188.45,-74 L 188.506,-74.5302 L 188.67,-75.0372 L 188.937,-75.4988 L 189.294,-75.895
 L 189.725,-76.2084 L 190.212,-76.4252 L 190.733,-76.536 L 191.267,-76.536 L 191.788,-76.4252 L 192.275,-76.2084
 L 192.706,-75.895 L 193.063,-75.4988 L 193.33,-75.0372 L 193.494,-74.5302 L 193.55,-74 L 193.55,-64.7024
 L 193.892,-64.4804 L 194.292,-64.1563 L 194.656,-63.7921 L 194.98,-63.3919 L 195.261,-62.96 L 195.495,-62.5011
 L 195.679,-62.0204 L 195.812,-61.5229 L 195.893,-61.0143 L 195.92,-60.5 L 195.893,-59.9857 L 195.812,-59.4771
 L 195.679,-58.9796 L 195.495,-58.4989 L 195.261,-58.04 L 194.98,-57.6081 L 194.656,-57.2079 L 194.292,-56.8437
 L 193.892,-56.5196 L 193.46,-56.2392 L 193.001,-56.0054 L 192.52,-55.8208 L 192.023,-55.6875 L 191.514,-55.607
 L 191,-55.58 z
M 373.986,-55.607 L 373.477,-55.6875 L 372.98,-55.8208 L 372.499,-56.0054 L 372.04,-56.2392 L 371.608,-56.5196
 L 371.208,-56.8437 L 370.844,-57.2079 L 370.52,-57.6081 L 370.239,-58.04 L 370.005,-58.4989 L 369.821,-58.9796
 L 369.688,-59.4771 L 369.607,-59.9857 L 369.58,-60.5 L 369.607,-61.0143 L 369.688,-61.5229 L 369.821,-62.0204
 L 370.005,-62.5011 L 370.239,-62.96 L 370.52,-63.3919 L 370.844,-63.7921 L 371.208,-64.1563 L 371.608,-64.4804
 L 371.95,-64.7024 L 371.95,-74 L 372.006,-74.5302 L 372.17,-75.0372 L 372.437,-75.4988 L 372.794,-75.895
 L 373.225,-76.2084 L 373.712,-76.4252 L 374.233,-76.536 L 374.767,-76.536 L 375.288,-76.4252 L 375.775,-76.2084
 L 376.206,-75.895 L 376.563,-75.4988 L 376.83,-75.0372 L 376.994,-74.5302 L 377.05,-74 L 377.05,-64.7024
 L 377.392,-64.4804 L 377.792,-64.1563 L 378.156,-63.7921 L 378.48,-63.3919 L 378.761,-62.96 L 378.995,-62.5011
 L 379.179,-62.0204 L 379.312,-61.5229 L 379.393,-61.0143 L 379.42,-60.5 L 379.393,-59.9857 L 379.312,-59.4771
 L 379.179,-58.9796 L 378.995,-58.4989 L 378.761,-58.04 L 378.48,-57.6081 L 378.156,-57.2079 L 377.792,-56.8437
 L 377.392,-56.5196 L 376.96,-56.2392 L 376.501,-56.0054 L 376.02,-55.8208 L 375.523,-55.6875 L 375.014,-55.607
 L 374.5,-55.58 z
M 557.486,-55.607 L 556.977,-55.6875 L 556.48,-55.8208 L 555.999,-56.0054 L 555.54,-56.2392 L 555.108,-56.5196
 L 554.708,-56.8437 L 554.344,-57.2079 L 554.02,-57.6081 L 553.739,-58.04 L 553.505,-58.4989 L 553.321,-58.9796
 L 553.188,-59.4771 L 553.107,-59.9857 L 553.08,-60.5 L 553.107,-61.0143 L 553.188,-61.5229 L 553.321,-62.0204
 L 553.505,-62.5011 L 553.739,-62.96 L 554.02,-63.3919 L 554.344,-63.7921 L 554.708,-64.1563 L 555.108,-64.4804
 L 555.45,-64.7024 L 555.45,-74 L 555.506,-74.5302 L 555.67,-75.0372 L 555.937,-75.4988 L 556.294,-75.895
 L 556.725,-76.2084 L 557.212,-76.4252 L 557.733,-76.536 L 558.267,-76.536 L 558.788,-76.4252 L 559.275,-76.2084
 L 559.706,-75.895 L 560.063,-75.4988 L 560.33,-75.0372 L 560.494,-74.5302 L 560.55,-74 L 560.55,-64.7024
 L 560.892,-64.4804 L 561.292,-64.1563 L 561.656,-63.7921 L 561.98,-63.3919 L 562.261,-62.96 L 562.495,-62.5011
 L 562.679,-62.0204 L 562.812,-61.5229 L 562.893,-61.0143 L 562.92,-60.5 L 562.893,-59.9857 L 562.812,-59.4771
 L 562.679,-58.9796 L 562.495,-58.4989 L 562.261,-58.04 L 561.98,-57.6081 L 561.656,-57.2079 L 561.292,-56.8437
 L 560.892,-56.5196 L 560.46,-56.2392 L 560.001,-56.0054 L 559.52,-55.8208 L 559.023,-55.6875 L 558.514,-55.607
 L 558,-55.58 z
M 740.986,-55.607 L 740.477,-55.6875 L 739.98,-55.8208 L 739.499,-56.0054 L 739.04,-56.2392 L 738.608,-56.5196
 L 738.208,-56.8437 L 737.844,-57.2079 L 737.52,-57.6081 L 737.239,-58.04 L 737.005,-58.4989 L 736.821,-58.9796
 L 736.688,-59.4771 L 736.607,-59.9857 L 736.58,-60.5 L 736.607,-61.0143 L 736.688,-61.5229 L 736.821,-62.0204
 L 737.005,-62.5011 L 737.239,-62.96 L 737.52,-63.3919 L 737.844,-63.7921 L 738.208,-64.1563 L 738.608,-64.4804
 L 738.95,-64.7024 L 738.95,-74 L 739.006,-74.5302 L 739.17,-75.0372 L 739.437,-75.4988 L 739.794,-75.895
 L 740.225,-76.2084 L 740.712,-76.4252 L 741.233,-76.536 L 741.767,-76.536 L 742.288,-76.4252 L 742.775,-76.2084
 L 743.206,-75.895 L 743.563,-75.4988 L 743.83,-75.0372 L 743.994,-74.5302 L 744.05,-74 L 744.05,-64.7024
 L 744.392,-64.4804 L 744.792,-64.1563 L 745.156,-63.7921 L 745.48,-63.3919 L 745.761,-62.96 L 745.995,-62.5011
 L 746.179,-62.0204 L 746.312,-61.5229 L 746.393,-61.0143 L 746.42,-60.5 L 746.393,-59.9857 L 746.312,-59.4771
 L 746.179,-58.9796 L 745.995,-58.4989 L 745.761,-58.04 L 745.48,-57.6081 L 745.156,-57.2079 L 744.792,-56.8437
 L 744.392,-56.5196 L 743.96,-56.2392 L 743.501,-56.0054 L 743.02,-55.8208 L 742.523,-55.6875 L 742.014,-55.607
 L 741.5,-55.58 z
M 924.486,-55.607 L 923.977,-55.6875 L 923.48,-55.8208 L 922.999,-56.0054 L 922.54,-56.2392 L 922.108,-56.5196
 L 921.708,-56.8437 L 921.344,-57.2079 L 921.02,-57.6081 L 920.739,-58.04 L 920.505,-58.4989 L 920.321,-58.9796
 L 920.188,-59.4771 L 920.107,-59.9857 L 920.08,-60.5 L 920.107,-61.0143 L 920.188,-61.5229 L 920.321,-62.0204
 L 920.505,-62.5011 L 920.739,-62.96 L 921.02,-63.3919 L 921.344,-63.7921 L 921.708,-64.1563 L 922.108,-64.4804
 L 922.45,-64.7024 L 922.45,-74 L 922.506,-74.5302 L 922.67,-75.0372 L 922.937,-75.4988 L 923.294,-75.895
 L 923.725,-76.2084 L 924.212,-76.4252 L 924.733,-76.536 L 925.267,-76.536 L 925.788,-76.4252 L 926.275,-76.2084
 L 926.706,-75.895 L 927.063,-75.4988 L 927.33,-75.0372 L 927.494,-74.5302 L 927.55,-74 L 927.55,-64.7024
 L 927.892,-64.4804 L 928.292,-64.1563 L 928.656,-63.7921 L 928.98,-63.3919 L 929.261,-62.96 L 929.495,-62.5011
 L 929.679,-62.0204 L 929.812,-61.5229 L 929.893,-61.0143 L 929.92,-60.5 L 929.893,-59.9857 L 929.812,-59.4771
 L 929.679,-58.9796 L 929.495,-58.4989 L 929.261,-58.04 L 928.98,-57.6081 L 928.656,-57.2079 L 928.292,-56.8437
 L 927.892,-56.5196 L 927.46,-56.2392 L 927.001,-56.0054 L 926.52,-55.8208 L 926.023,-55.6875 L 925.514,-55.607
 L 925,-55.58 z
M 1107.99,-55.607 L 1107.48,-55.6875 L 1106.98,-55.8208 L 1106.5,-56.0054 L 1106.04,-56.2392 L 1105.61,-56.5196
 L 1105.21,-56.8437 L 1104.84,-57.2079 L 1104.52,-57.6081 L 1104.24,-58.04 L 1104.01,-58.4989 L 1103.82,-58.9796
 L 1103.69,-59.4771 L 1103.61,-59.9857 L 1103.58,-60.5 L 1103.61,-61.0143 L 1103.69,-61.5229 L 1103.82,-62.0204
 L 1104.01,-62.5011 L 1104.24,-62.96 L 1104.52,-63.3919 L 1104.84,-63.7921 L 1105.21,-64.1563 L 1105.61,-64.4804
 L 1105.95,-64.7024 L 1105.95,-74 L 1106.01,-74.5302 L 1106.17,-75.0372 L 1106.44,-75.4988 L 1106.79,-75.895
 L 1107.23,-76.2084 L 1107.71,-76.4252 L 1108.23,-76.536 L 1108.77,-76.536 L 1109.29,-76.4252 L 1109.77,-76.2084
 L 1110.21,-75.895 L 1110.56,-75.4988 L 1110.83,-75.0372 L 1110.99,-74.5302 L 1111.05,-74 L 1111.05,-64.7024
 L 1111.39,-64.4804 L 1111.79,-64.1563 L 1112.16,-63.7921 L 1112.48,-63.3919 L 1112.76,-62.96 L 1112.99,-62.5011
 L 1113.18,-62.0204 L 1113.31,-61.5229 L 1113.39,-61.0143 L 1113.42,-60.5 L 1113.39,-59.9857 L 1113.31,-59.4771
 L 1113.18,-58.9796 L 1112.99,-58.4989 L 1112.76,-58.04 L 1112.48,-57.6081 L 1112.16,-57.2079 L 1111.79,-56.8437
 L 1111.39,-56.5196 L 1110.96,-56.2392 L 1110.5,-56.0054 L 1110.02,-55.8208 L 1109.52,-55.6875 L 1109.01,-55.607
 L 1108.5,-55.58 z
M 936.92,-20.8184 L 936.143,-21.1272 L 935.447,-21.5907 L 934.862,-22.1889 L 934.415,-22.8955 L 934.125,-23.6796
 L 934,-24.6698 L 934,-58 L 934.087,-58.8316 L 934.346,-59.627 L 934.764,-60.3511 L 935.323,-60.9726
 L 936,-61.4641 L 936.764,-61.8042 L 938,-62 L 1027.94,-62 L 1028.77,-61.9126 L 1029.57,-61.6542
 L 1030.29,-61.2361 L 1030.92,-60.6765 L 1031.41,-60 L 1031.75,-59.2361 L 1031.92,-58.4181 L 1031.92,-57.5819
 L 1031.75,-56.7639 L 1031.41,-56 L 1030.92,-55.3235 L 1030.29,-54.7639 L 1029.33,-54.2493 L 939.39,-20.9191
 L 938.58,-20.7121 L 937.744,-20.678 z
M 360.92,-20.7121 L 360.11,-20.9191 L 270.168,-54.2493 L 269.206,-54.7639 L 268.585,-55.3235 L 268.093,-56
 L 267.753,-56.7639 L 267.579,-57.5819 L 267.579,-58.4181 L 267.753,-59.2361 L 268.093,-60 L 268.585,-60.6765
 L 269.206,-61.2361 L 269.931,-61.6542 L 270.726,-61.9126 L 271.558,-62 L 361.5,-62 L 362.736,-61.8042
 L 363.5,-61.4641 L 364.177,-60.9726 L 364.736,-60.3511 L 365.154,-59.627 L 365.413,-58.8316 L 365.5,-58
 L 365.5,-24.6698 L 365.375,-23.6796 L 365.085,-22.8955 L 364.638,-22.1889 L 364.053,-21.5907 L 363.357,-21.1272
 L 362.58,-20.8184 L 361.756,-20.678 z
M 177.42,-20.7121 L 176.61,-20.9191 L 86.6676,-54.2493 L 85.7064,-54.7639 L 85.085,-55.3235 L 84.5935,-56
 L 84.2533,-56.7639 L 84.0795,-57.5819 L 84.0795,-58.4181 L 84.2533,-59.2361 L 84.5935,-60 L 85.085,-60.6765
 L 85.7064,-61.2361 L 86.4306,-61.6542 L 87.2259,-61.9126 L 88.0576,-62 L 178,-62 L 179.236,-61.8042
 L 180,-61.4641 L 180.677,-60.9726 L 181.236,-60.3511 L 181.654,-59.627 L 181.913,-58.8316 L 182,-58
 L 182,-24.6698 L 181.875,-23.6796 L 181.585,-22.8955 L 181.138,-22.1889 L 180.553,-21.5907 L 179.857,-21.1272
 L 179.08,-20.8184 L 178.256,-20.678 z
M 544.42,-20.7121 L 543.61,-20.9191 L 453.668,-54.2493 L 452.706,-54.7639 L 452.085,-55.3235 L 451.593,-56
 L 451.253,-56.7639 L 451.079,-57.5819 L 451.079,-58.4181 L 451.253,-59.2361 L 451.593,-60 L 452.085,-60.6765
 L 452.706,-61.2361 L 453.431,-61.6542 L 454.226,-61.9126 L 455.058,-62 L 545,-62 L 546.236,-61.8042
 L 547,-61.4641 L 547.677,-60.9726 L 548.236,-60.3511 L 548.654,-59.627 L 548.913,-58.8316 L 549,-58
 L 549,-24.6698 L 548.875,-23.6796 L 548.585,-22.8955 L 548.138,-22.1889 L 547.553,-21.5907 L 546.857,-21.1272
 L 546.08,-20.8184 L 545.256,-20.678 z
M 569.92,-20.8184 L 569.143,-21.1272 L 568.447,-21.5907 L 567.862,-22.1889 L 567.415,-22.8955 L 567.125,-23.6796
 L 567,-24.6698 L 567,-58 L 567.087,-58.8316 L 567.346,-59.627 L 567.764,-60.3511 L 568.323,-60.9726
 L 569,-61.4641 L 569.764,-61.8042 L 571,-62 L 660.942,-62 L 661.774,-61.9126 L 662.569,-61.6542
 L 663.294,-61.2361 L 663.915,-60.6765 L 664.407,-60 L 664.747,-59.2361 L 664.921,-58.4181 L 664.921,-57.5819
 L 664.747,-56.7639 L 664.407,-56 L 663.915,-55.3235 L 663.294,-54.7639 L 662.332,-54.2493 L 572.39,-20.9191
 L 571.58,-20.7121 L 570.744,-20.678 z
M 753.42,-20.8184 L 752.643,-21.1272 L 751.947,-21.5907 L 751.362,-22.1889 L 750.915,-22.8955 L 750.625,-23.6796
 L 750.5,-24.6698 L 750.5,-58 L 750.587,-58.8316 L 750.846,-59.627 L 751.264,-60.3511 L 751.823,-60.9726
 L 752.5,-61.4641 L 753.264,-61.8042 L 754.5,-62 L 844.442,-62 L 845.274,-61.9126 L 846.069,-61.6542
 L 846.794,-61.2361 L 847.415,-60.6765 L 847.907,-60 L 848.247,-59.2361 L 848.421,-58.4181 L 848.421,-57.5819
 L 848.247,-56.7639 L 847.907,-56 L 847.415,-55.3235 L 846.794,-54.7639 L 845.832,-54.2493 L 755.89,-20.9191
 L 755.08,-20.7121 L 754.244,-20.678 z
M 204,-18 L 202.764,-18.1958 L 202,-18.5359 L 201.323,-19.0274 L 200.764,-19.6489 L 200.346,-20.373
 L 200.087,-21.1684 L 200,-22 L 200,-55.3302 L 200.125,-56.3204 L 200.415,-57.1045 L 200.862,-57.8111
 L 201.447,-58.4092 L 202.143,-58.8728 L 202.92,-59.1815 L 203.744,-59.322 L 204.58,-59.2879 L 205.39,-59.0809
 L 295.332,-25.7507 L 296.294,-25.2361 L 296.915,-24.6765 L 297.407,-24 L 297.747,-23.2361 L 297.921,-22.4181
 L 297.921,-21.5819 L 297.747,-20.7639 L 297.407,-20 L 296.915,-19.3235 L 296.294,-18.7639 L 295.569,-18.3458
 L 294.774,-18.0874 L 293.942,-18 z
M 387.5,-18 L 386.264,-18.1958 L 385.5,-18.5359 L 384.823,-19.0274 L 384.264,-19.6489 L 383.846,-20.373
 L 383.587,-21.1684 L 383.5,-22 L 383.5,-55.3302 L 383.625,-56.3204 L 383.915,-57.1045 L 384.362,-57.8111
 L 384.947,-58.4092 L 385.643,-58.8728 L 386.42,-59.1815 L 387.244,-59.322 L 388.08,-59.2879 L 388.89,-59.0809
 L 478.832,-25.7507 L 479.794,-25.2361 L 480.415,-24.6765 L 480.907,-24 L 481.247,-23.2361 L 481.421,-22.4181
 L 481.421,-21.5819 L 481.247,-20.7639 L 480.907,-20 L 480.415,-19.3235 L 479.794,-18.7639 L 479.069,-18.3458
 L 478.274,-18.0874 L 477.442,-18 z
M 638.558,-18 L 637.726,-18.0874 L 636.931,-18.3458 L 636.206,-18.7639 L 635.585,-19.3235 L 635.093,-20
 L 634.753,-20.7639 L 634.579,-21.5819 L 634.579,-22.4181 L 634.753,-23.2361 L 635.093,-24 L 635.585,-24.6765
 L 636.206,-25.2361 L 637.168,-25.7507 L 727.11,-59.0809 L 727.92,-59.2879 L 728.756,-59.322 L 729.58,-59.1815
 L 730.357,-58.8728 L 731.053,-58.4092 L 731.638,-57.8111 L 732.085,-57.1045 L 732.375,-56.3204 L 732.5,-55.3302
 L 732.5,-22 L 732.413,-21.1684 L 732.154,-20.373 L 731.736,-19.6489 L 731.177,-19.0274 L 730.5,-18.5359
 L 729.736,-18.1958 L 728.5,-18 z
M 822.058,-18 L 821.226,-18.0874 L 820.431,-18.3458 L 819.706,-18.7639 L 819.085,-19.3235 L 818.593,-20
 L 818.253,-20.7639 L 818.079,-21.5819 L 818.079,-22.4181 L 818.253,-23.2361 L 818.593,-24 L 819.085,-24.6765
 L 819.706,-25.2361 L 820.668,-25.7507 L 910.61,-59.0809 L 911.42,-59.2879 L 912.256,-59.322 L 913.08,-59.1815
 L 913.857,-58.8728 L 914.553,-58.4092 L 915.138,-57.8111 L 915.585,-57.1045 L 915.875,-56.3204 L 916,-55.3302
 L 916,-22 L 915.913,-21.1684 L 915.654,-20.373 L 915.236,-19.6489 L 914.677,-19.0274 L 914,-18.5359
 L 913.236,-18.1958 L 912,-18 z
M 1005.56,-18 L 1004.73,-18.0874 L 1003.93,-18.3458 L 1003.21,-18.7639 L 1002.59,-19.3235 L 1002.09,-20
 L 1001.75,-20.7639 L 1001.58,-21.5819 L 1001.58,-22.4181 L 1001.75,-23.2361 L 1002.09,-24 L 1002.59,-24.6765
 L 1003.21,-25.2361 L 1004.17,-25.7507 L 1092.61,-58.525 L 1093.42,-58.7321 L 1094.26,-58.7661 L 1095.08,-58.6257
 L 1095.86,-58.3169 L 1096.55,-57.8534 L 1097.14,-57.2552 L 1097.58,-56.5487 L 1097.88,-55.7645 L 1098,-54.7743
 L 1098,-22 L 1097.91,-21.1684 L 1097.65,-20.373 L 1097.24,-19.6489 L 1096.68,-19.0274 L 1096,-18.5359
 L 1095.24,-18.1958 L 1094,-18 z
M 22,-18 L 20.7639,-18.1958 L 20,-18.5359 L 19.3235,-19.0274 L 18.7639,-19.6489 L 18.3458,-20.373
 L 18.0874,-21.1684 L 18,-22 L 18,-54.7743 L 18.1245,-55.7645 L 18.4151,-56.5487 L 18.8623,-57.2552
 L 19.4467,-57.8534 L 20.1427,-58.3169 L 20.9198,-58.6257 L 21.7442,-58.7661 L 22.5797,-58.7321 L 23.3899,-58.525
 L 111.832,-25.7507 L 112.794,-25.2361 L 113.415,-24.6765 L 113.907,-24 L 114.247,-23.2361 L 114.421,-22.4181
 L 114.421,-21.5819 L 114.247,-20.7639 L 113.907,-20 L 113.415,-19.3235 L 112.794,-18.7639 L 112.069,-18.3458
 L 111.274,-18.0874 L 110.442,-18 z
" stroke="black" fill="lightgray" stroke-width="0.5"/>
</svg>
