<?xml version="1.0" standalone="no"?>
<!DOCTYPE svg PUBLIC "-//W3C//DTD SVG 1.1//EN" "http://www.w3.org/Graphics/SVG/1.1/DTD/svg11.dtd">
<svg width="1670mm" height="80mm" viewBox="0 -80 1670 80" xmlns="http://www.w3.org/2000/svg" version="1.1">
<title>OpenSCAD Model</title>
<path d="
M 1670,-80 L 0,-80 L 0,-0 L 4.95,-0 L 4.95,-6 L 5.00572,-6.53017
 L 5.17046,-7.03717 L 5.437,-7.49884 L 5.79372,-7.895 L 6.22499,-8.20836 L 6.71201,-8.42519 L 7.23344,-8.53603
 L 7.76654,-8.53603 L 8.28798,-8.42519 L 8.77499,-8.20836 L 9.20627,-7.895 L 9.56299,-7.49884 L 9.82953,-7.03717
 L 9.99426,-6.53017 L 10.05,-6 L 10.05,-0 L 188.839,-0 L 188.839,-6 L 188.895,-6.53017
 L 189.059,-7.03717 L 189.326,-7.49884 L 189.683,-7.895 L 190.114,-8.20836 L 190.601,-8.42519 L 191.122,-8.53603
 L 191.655,-8.53603 L 192.177,-8.42519 L 192.664,-8.20836 L 193.095,-7.895 L 193.452,-7.49884 L 193.718,-7.03717
 L 193.883,-6.53017 L 193.939,-6 L 193.939,-0 L 372.728,-0 L 372.728,-6 L 372.783,-6.53017
 L 372.948,-7.03717 L 373.215,-7.49884 L 373.571,-7.895 L 374.003,-8.20836 L 374.49,-8.42519 L 375.011,-8.53603
 L 375.544,-8.53603 L 376.066,-8.42519 L 376.553,-8.20836 L 376.984,-7.895 L 377.341,-7.49884 L 377.607,-7.03717
 L 377.772,-6.53017 L 377.828,-6 L 377.828,-0 L 556.617,-0 L 556.617,-6 L 556.672,-6.53017
 L 556.837,-7.03717 L 557.104,-7.49884 L 557.46,-7.895 L 557.892,-8.20836 L 558.379,-8.42519 L 558.9,-8.53603
 L 559.433,-8.53603 L 559.955,-8.42519 L 560.442,-8.20836 L 560.873,-7.895 L 561.23,-7.49884 L 561.496,-7.03717
 L 561.661,-6.53017 L 561.717,-6 L 561.717,-0 L 740.506,-0 L 740.506,-6 L 740.561,-6.53017
 L 740.726,-7.03717 L 740.993,-7.49884 L 741.349,-7.895 L 741.781,-8.20836 L 742.268,-8.42519 L 742.789,-8.53603
 L 743.322,-8.53603 L 743.844,-8.42519 L 744.331,-8.20836 L 744.762,-7.895 L 745.119,-7.49884 L 745.385,-7.03717
 L 745.55,-6.53017 L 745.606,-6 L 745.606,-0 L 924.394,-0 L 924.394,-6 L 924.45,-6.53017
 L 924.615,-7.03717 L 924.881,-7.49884 L 925.238,-7.895 L 925.669,-8.20836 L 926.156,-8.42519 L 926.678,-8.53603
 L 927.211,-8.53603 L 927.732,-8.42519 L 928.219,-8.20836 L 928.651,-7.895 L 929.007,-7.49884 L 929.274,-7.03717
 L 929.439,-6.53017 L 929.494,-6 L 929.494,-0 L 1108.28,-0 L 1108.28,-6 L 1108.34,-6.53017
 L 1108.5,-7.03717 L 1108.77,-7.49884 L 1109.13,-7.895 L 1109.56,-8.20836 L 1110.05,-8.42519 L 1110.57,-8.53603
 L 1111.1,-8.53603 L 1111.62,-8.42519 L 1112.11,-8.20836 L 1112.54,-7.895 L 1112.9,-7.49884 L 1113.16,-7.03717
 L 1113.33,-6.53017 L 1113.38,-6 L 1113.38,-0 L 1292.17,-0 L 1292.17,-6 L 1292.23,-6.53017
 L 1292.39,-7.03717 L 1292.66,-7.49884 L 1293.02,-7.895 L 1293.45,-8.20836 L 1293.93,-8.42519 L 1294.46,-8.53603
 L 1294.99,-8.53603 L 1295.51,-8.42519 L 1296,-8.20836 L 1296.43,-7.895 L 1296.79,-7.49884 L 1297.05,-7.03717
 L 1297.22,-6.53017 L 1297.27,-6 L 1297.27,-0 L 1476.06,-0 L 1476.06,-6 L 1476.12,-6.53017
 L 1476.28,-7.03717 L 1476.55,-7.49884 L 1476.9,-7.895 L 1477.34,-8.20836 L 1477.82,-8.42519 L 1478.34,-8.53603
 L 1478.88,-8.53603 L 1479.4,-8.42519 L 1479.89,-8.20836 L 1480.32,-7.895 L 1480.67,-7.49884 L 1480.94,-7.03717
 L 1481.11,-6.53017 L 1481.16,-6 L 1481.16,-0 L 1659.95,-0 L 1659.95,-6 L 1660.01,-6.53017
 L 1660.17,-7.03717 L 1660.44,-7.49884 L 1660.79,-7.895 L 1661.22,-8.20836 L 1661.71,-8.42519 L 1662.23,-8.53603
 L 1662.77,-8.53603 L 1663.29,-8.42519 L 1663.77,-8.20836 L 1664.21,-7.895 L 1664.56,-7.49884 L 1664.83,-7.03717
 L 1664.99,-6.53017 L 1665.05,-6 L 1665.05,-0 L 1670,-0 z
M 6.98573,-55.607 L 6.47708,-55.6875 L 5.97964,-55.8208 L 5.49887,-56.0054 L 5.04001,-56.2392 L 4.60811,-56.5196
 L 4.20789,-56.8437 L 3.84373,-57.2079 L 3.51964,-57.6081 L 3.23917,-58.04 L 3.00537,-58.4989 L 2.82082,-58.9796
 L 2.68752,-59.4771 L 2.60696,-59.9857 L 2.58,-60.5 L 2.60696,-61.0143 L 2.68752,-61.5229 L 2.82082,-62.0204
 L 3.00537,-62.5011 L 3.23917,-62.96 L 3.51964,-63.3919 L 3.84373,-63.7921 L 4.20789,-64.1563 L 4.60811,-64.4804
 L 4.95001,-64.7024 L 4.95001,-74 L 5.00574,-74.5302 L 5.17047,-75.0372 L 5.43701,-75.4988 L 5.79373,-75.895
 L 6.22501,-76.2084 L 6.71202,-76.4252 L 7.23346,-76.536 L 7.76654,-76.536 L 8.28798,-76.4252 L 8.77499,-76.2084
 L 9.20627,-75.895 L 9.56299,-75.4988 L 9.82953,-75.0372 L 9.99426,-74.5302 L 10.05,-74 L 10.05,-64.7024
 L 10.3919,-64.4804 L 10.7921,-64.1563 L 11.1563,-63.7921 L 11.4804,-63.3919 L 11.7608,-62.96 L 11.9946,-62.5011
 L 12.1792,-62.0204 L 12.3125,-61.5229 L 12.393,-61.0143 L 12.42,-60.5 L 12.393,-59.9857 L 12.3125,-59.4771
 L 12.1792,-58.9796 L 11.9946,-58.4989 L 11.7608,-58.04 L 11.4804,-57.6081 L 11.1563,-57.2079 L 10.7921,-56.8437
 L 10.3919,-56.5196 L 9.95999,-56.2392 L 9.50113,-56.0054 L 9.02036,-55.8208 L 8.52292,-55.6875 L 8.01427,-55.607
 L 7.5,-55.58 z
M 1110.32,-55.607 L 1109.81,-55.6875 L 1109.31,-55.8208 L 1108.83,-56.0054 L 1108.37,-56.2392 L 1107.94,-56.5196
 L 1107.54,-56.8437 L 1107.18,-57.2079 L 1106.85,-57.6081 L 1106.57,-58.04 L 1106.34,-58.4989 L 1106.15,-58.9796
 L 1106.02,-59.4771 L 1105.94,-59.9857 L 1105.91,-60.5 L 1105.94,-61.0143 L 1106.02,-61.5229 L 1106.15,-62.0204
 L 1106.34,-62.5011 L 1106.57,-62.96 L 1106.85,-63.3919 L 1107.18,-63.7921 L 1107.54,-64.1563 L 1107.94,-64.4804
 L 1108.28,-64.7024 L 1108.28,-74 L 1108.34,-74.5302 L 1108.5,-75.0372 L 1108.77,-75.4988 L 1109.13,-75.895
 L 1109.56,-76.2084 L 1110.05,-76.4252 L 1110.57,-76.536 L 1111.1,-76.536 L 1111.62,-76.4252 L 1112.11,-76.2084
 L 1112.54,-75.895 L 1112.9,-75.4988 L 1113.16,-75.0372 L 1113.33,-74.5302 L 1113.38,-74 L 1113.38,-64.7024
 L 1113.73,-64.4804 L 1114.13,-64.1563 L 1114.49,-63.7921 L 1114.81,-63.3919 L 1115.09,-62.96 L 1115.33,-62.5011
 L 1115.51,-62.0204 L 1115.65,-61.5229 L 1115.73,-61.0143 L 1115.75,-60.5 L 1115.73,-59.9857 L 1115.65,-59.4771
 L 1115.51,-58.9796 L 1115.33,-58.4989 L 1115.09,-58.04 L 1114.81,-57.6081 L 1114.49,-57.2079 L 1114.13,-56.8437
 L 1113.73,-56.5196 L 1113.29,-56.2392 L 1112.83,-56.0054 L 1112.35,-55.8208 L 1111.86,-55.6875 L 1111.35,-55.607
 L 1110.83,-55.58 z
M 1294.21,-55.607 L 1293.7,-55.6875 L 1293.2,-55.8208 L 1292.72,-56.0054 L 1292.26,-56.2392 L 1291.83,-56.5196
 L 1291.43,-56.8437 L 1291.07,-57.2079 L 1290.74,-57.6081 L 1290.46,-58.04 L 1290.23,-58.4989 L 1290.04,-58.9796
 L 1289.91,-59.4771 L 1289.83,-59.9857 L 1289.8,-60.5 L 1289.83,-61.0143 L 1289.91,-61.5229 L 1290.04,-62.0204
 L 1290.23,-62.5011 L 1290.46,-62.96 L 1290.74,-63.3919 L 1291.07,-63.7921 L 1291.43,-64.1563 L 1291.83,-64.4804
 L 1292.17,-64.7024 L 1292.17,-74 L 1292.23,-74.5302 L 1292.39,-75.0372 L 1292.66,-75.4988 L 1293.02,-75.895
 L 1293.45,-76.2084 L 1293.93,-76.4252 L 1294.46,-76.536 L 1294.99,-76.536 L 1295.51,-76.4252 L 1296,-76.2084
 L 1296.43,-75.895 L 1296.79,-75.4988 L 1297.05,-75.0372 L 1297.22,-74.5302 L 1297.27,-74 L 1297.27,-64.7024
 L 1297.61,-64.4804 L 1298.01,-64.1563 L 1298.38,-63.7921 L 1298.7,-63.3919 L 1298.98,-62.96 L 1299.22,-62.5011
 L 1299.4,-62.0204 L 1299.53,-61.5229 L 1299.62,-61.0143 L 1299.64,-60.5 L 1299.62,-59.9857 L 1299.53,-59.4771
 L 1299.4,-58.9796 L 1299.22,-58.4989 L 1298.98,-58.04 L 1298.7,-57.6081 L 1298.38,-57.2079 L 1298.01,-56.8437
 L 1297.61,-56.5196 L 1297.18,-56.2392 L 1296.72,-56.0054 L 1296.24,-55.8208 L 1295.75,-55.6875 L 1295.24,-55.607
 L 1294.72,-55.58 z
M 926.43,-55.607 L 925.922,-55.6875 L 925.424,-55.8208 L 924.943,-56.0054 L 924.484,-56.2392 L 924.053,-56.5196
 L 923.652,-56.8437 L 923.288,-57.2079 L 922.964,-57.6081 L 922.684,-58.04 L 922.45,-58.4989 L 922.265,-58.9796
 L 922.132,-59.4771 L 922.051,-59.9857 L 922.024,-60.5 L 922.051,-61.0143 L 922.132,-61.5229 L 922.265,-62.0204
 L 922.45,-62.5011 L 922.684,-62.96 L 922.964,-63.3919 L 923.288,-63.7921 L 923.652,-64.1563 L 924.053,-64.4804
 L 924.394,-64.7024 L 924.394,-74 L 924.45,-74.5302 L 924.615,-75.0372 L 924.881,-75.4988 L 925.238,-75.895
 L 925.669,-76.2084 L 926.156,-76.4252 L 926.678,-76.536 L 927.211,-76.536 L 927.732,-76.4252 L 928.219,-76.2084
 L 928.651,-75.895 L 929.007,-75.4988 L 929.274,-75.0372 L 929.439,-74.5302 L 929.494,-74 L 929.494,-64.7024
 L 929.836,-64.4804 L 930.237,-64.1563 L 930.601,-63.7921 L 930.925,-63.3919 L 931.205,-62.96 L 931.439,-62.5011
 L 931.624,-62.0204 L 931.757,-61.5229 L 931.837,-61.0143 L 931.864,-60.5 L 931.837,-59.9857 L 931.757,-59.4771
 L 931.624,-58.9796 L 931.439,-58.4989 L 931.205,-58.04 L 930.925,-57.6081 L 930.601,-57.2079 L 930.237,-56.8437
 L 929.836,-56.5196 L 929.404,-56.2392 L 928.946,-56.0054 L 928.465,-55.8208 L 927.967,-55.6875 L 927.459,-55.607
 L 926.944,-55.58 z
M 742.541,-55.607 L 742.033,-55.6875 L 741.535,-55.8208 L 741.054,-56.0054 L 740.596,-56.2392 L 740.164,-56.5196
 L 739.763,-56.8437 L 739.399,-57.2079 L 739.075,-57.6081 L 738.795,-58.04 L 738.561,-58.4989 L 738.376,-58.9796
 L 738.243,-59.4771 L 738.163,-59.9857 L 738.136,-60.5 L 738.163,-61.0143 L 738.243,-61.5229 L 738.376,-62.0204
 L 738.561,-62.5011 L 738.795,-62.96 L 739.075,-63.3919 L 739.399,-63.7921 L 739.763,-64.1563 L 740.164,-64.4804
 L 740.506,-64.7024 L 740.506,-74 L 740.561,-74.5302 L 740.726,-75.0372 L 740.993,-75.4988 L 741.349,-75.895
 L 741.781,-76.2084 L 742.268,-76.4252 L 742.789,-76.536 L 743.322,-76.536 L 743.844,-76.4252 L 744.331,-76.2084
 L 744.762,-75.895 L 745.119,-75.4988 L 745.385,-75.0372 L 745.55,-74.5302 L 745.606,-74 L 745.606,-64.7024
 L 745.947,-64.4804 L 746.348,-64.1563 L 746.712,-63.7921 L 747.036,-63.3919 L 747.316,-62.96 L 747.55,-62.5011
 L 747.735,-62.0204 L 747.868,-61.5229 L 747.949,-61.0143 L 747.976,-60.5 L 747.949,-59.9857 L 747.868,-59.4771
 L 747.735,-58.9796 L 747.55,-58.4989 L 747.316,-58.04 L 747.036,-57.6081 L 746.712,-57.2079 L 746.348,-56.8437
 L 745.947,-56.5196 L 745.516,-56.2392 L 745.057,-56.0054 L 744.576,-55.8208 L 744.078,-55.6875 L 743.57,-55.607
 L 743.056,-55.58 z
M 1478.1,-55.607 L 1477.59,-55.6875 L 1477.09,-55.8208 L 1476.61,-56.0054 L 1476.15,-56.2392 L 1475.72,-56.5196
 L 1475.32,-56.8437 L 1474.95,-57.2079 L 1474.63,-57.6081 L 1474.35,-58.04 L 1474.12,-58.4989 L 1473.93,-58.9796
 L 1473.8,-59.4771 L 1473.72,-59.9857 L 1473.69,-60.5 L 1473.72,-61.0143 L 1473.8,-61.5229 L 1473.93,-62.0204
 L 1474.12,-62.5011 L 1474.35,-62.96 L 1474.63,-63.3919 L 1474.95,-63.7921 L 1475.32,-64.1563 L 1475.72,-64.4804
 L 1476.06,-64.7024 L 1476.06,-74 L 1476.12,-74.5302 L 1476.28,-75.0372 L 1476.55,-75.4988 L 1476.9,-75.895
 L 1477.34,-76.2084 L 1477.82,-76.4252 L 1478.34,-76.536 L 1478.88,-76.536 L 1479.4,-76.4252 L 1479.89,-76.2084
 L 1480.32,-75.895 L 1480.67,-75.4988 L 1480.94,-75.0372 L 1481.11,-74.5302 L 1481.16,-74 L 1481.16,-64.7024
 L 1481.5,-64.4804 L 1481.9,-64.1563 L 1482.27,-63.7921 L 1482.59,-63.3919 L 1482.87,-62.96 L 1483.11,-62.5011
 L 1483.29,-62.0204 L 1483.42,-61.5229 L 1483.5,-61.0143 L 1483.53,-60.5 L 1483.5,-59.9857 L 1483.42,-59.4771
 L 1483.29,-58.9796 L 1483.11,-58.4989 L 1482.87,-58.04 L 1482.59,-57.6081 L 1482.27,-57.2079 L 1481.9,-56.8437
 L 1481.5,-56.5196 L 1481.07,-56.2392 L 1480.61,-56.0054 L 1480.13,-55.8208 L 1479.63,-55.6875 L 1479.13,-55.607
 L 1478.61,-55.58 z
M 558.652,-55.607 L 558.144,-55.6875 L 557.646,-55.8208 L 557.166,-56.0054 L 556.707,-56.2392 L 556.275,-56.5196
 L 555.875,-56.8437 L 555.51,-57.2079 L 555.186,-57.6081 L 554.906,-58.04 L 554.672,-58.4989 L 554.487,-58.9796
 L 554.354,-59.4771 L 554.274,-59.9857 L 554.247,-60.5 L 554.274,-61.0143 L 554.354,-61.5229 L 554.487,-62.0204
 L 554.672,-62.5011 L 554.906,-62.96 L 555.186,-63.3919 L 555.51,-63.7921 L 555.875,-64.1563 L 556.275,-64.4804
 L 556.617,-64.7024 L 556.617,-74 L 556.672,-74.5302 L 556.837,-75.0372 L 557.104,-75.4988 L 557.46,-75.895
 L 557.892,-76.2084 L 558.379,-76.4252 L 558.9,-76.536 L 559.433,-76.536 L 559.955,-76.4252 L 560.442,-76.2084
 L 560.873,-75.895 L 561.23,-75.4988 L 561.496,-75.0372 L 561.661,-74.5302 L 561.717,-74 L 561.717,-64.7024
 L 562.059,-64.4804 L 562.459,-64.1563 L 562.823,-63.7921 L 563.147,-63.3919 L 563.427,-62.96 L 563.661,-62.5011
 L 563.846,-62.0204 L 563.979,-61.5229 L 564.06,-61.0143 L 564.087,-60.5 L 564.06,-59.9857 L 563.979,-59.4771
 L 563.846,-58.9796 L 563.661,-58.4989 L 563.427,-58.04 L 563.147,-57.6081 L 562.823,-57.2079 L 562.459,-56.8437
 L 562.059,-56.5196 L 561.627,-56.2392 L 561.168,-56.0054 L 560.687,-55.8208 L 560.19,-55.6875 L 559.681,-55.607
 L 559.167,-55.58 z
M 374.764,-55.607 L 374.255,-55.6875 L 373.757,-55.8208 L 373.277,-56.0054 L 372.818,-56.2392 L 372.386,-56.5196
 L 371.986,-56.8437 L 371.622,-57.2079 L 371.297,-57.6081 L 371.017,-58.04 L 370.783,-58.4989 L 370.599,-58.9796
 L 370.465,-59.4771 L 370.385,-59.9857 L 370.358,-60.5 L 370.385,-61.0143 L 370.465,-61.5229 L 370.599,-62.0204
 L 370.783,-62.5011 L 371.017,-62.96 L 371.297,-63.3919 L 371.622,-63.7921 L 371.986,-64.1563 L 372.386,-64.4804
 L 372.728,-64.7024 L 372.728,-74 L 372.784,-74.5302 L 372.948,-75.0372 L 373.215,-75.4988 L 373.572,-75.895
 L 374.003,-76.2084 L 374.49,-76.4252 L 375.011,-76.536 L 375.544,-76.536 L 376.066,-76.4252 L 376.553,-76.2084
 L 376.984,-75.895 L 377.341,-75.4988 L 377.607,-75.0372 L 377.772,-74.5302 L 377.828,-74 L 377.828,-64.7024
 L 378.17,-64.4804 L 378.57,-64.1563 L 378.934,-63.7921 L 379.258,-63.3919 L 379.539,-62.96 L 379.772,-62.5011
 L 379.957,-62.0204 L 380.09,-61.5229 L 380.171,-61.0143 L 380.198,-60.5 L 380.171,-59.9857 L 380.09,-59.4771
 L 379.957,-58.9796 L 379.772,-58.4989 L 379.539,-58.04 L 379.258,-57.6081 L 378.934,-57.2079 L 378.57,-56.8437
 L 378.17,-56.5196 L 377.738,-56.2392 L 377.279,-56.0054 L 376.798,-55.8208 L 376.301,-55.6875 L 375.792,-55.607
 L 375.278,-55.58 z
M 1661.99,-55.607 L 1661.48,-55.6875 L 1660.98,-55.8208 L 1660.5,-56.0054 L 1660.04,-56.2392 L 1659.61,-56.5196
 L 1659.21,-56.8437 L 1658.84,-57.2079 L 1658.52,-57.6081 L 1658.24,-58.04 L 1658.01,-58.4989 L 1657.82,-58.9796
 L 1657.69,-59.4771 L 1657.61,-59.9857 L 1657.58,-60.5 L 1657.61,-61.0143 L 1657.69,-61.5229 L 1657.82,-62.0204
 L 1658.01,-62.5011 L 1658.24,-62.96 L 1658.52,-63.3919 L 1658.84,-63.7921 L 1659.21,-64.1563 L 1659.61,-64.4804
 L 1659.95,-64.7024 L 1659.95,-74 L 1660.01,-74.5302 L 1660.17,-75.0372 L 1660.44,-75.4988 L 1660.79,-75.895
 L 1661.23,-76.2084 L 1661.71,-76.4252 L 1662.23,-76.536 L 1662.77,-76.536 L 1663.29,-76.4252 L 1663.77,-76.2084
 L 1664.21,-75.895 L 1664.56,-75.4988 L 1664.83,-75.0372 L 1664.99,-74.5302 L 1665.05,-74 L 1665.05,-64.7024
 L 1665.39,-64.4804 L 1665.79,-64.1563 L 1666.16,-63.7921 L 1666.48,-63.3919 L 1666.76,-62.96 L 1666.99,-62.5011
 L 1667.18,-62.0204 L 1667.31,-61.5229 L 1667.39,-61.0143 L 1667.42,-60.5 L 1667.39,-59.9857 L 1667.31,-59.4771
 L 1667.18,-58.9796 L 1666.99,-58.4989 L 1666.76,-58.04 L 1666.48,-57.6081 L 1666.16,-57.2079 L 1665.79,-56.8437
 L 1665.39,-56.5196 L 1664.96,-56.2392 L 1664.5,-56.0054 L 1664.02,-55.8208 L 1663.52,-55.6875 L 1663.01,-55.607
 L 1662.5,-55.58 z
M 190.875,-55.607 L 190.366,-55.6875 L 189.869,-55.8208 L 189.388,-56.0054 L 188.929,-56.2392 L 188.497,-56.5196
 L 188.097,-56.8437 L 187.733,-57.2079 L 187.409,-57.6081 L 187.128,-58.04 L 186.894,-58.4989 L 186.71,-58.9796
 L 186.576,-59.4771 L 186.496,-59.9857 L 186.469,-60.5 L 186.496,-61.0143 L 186.576,-61.5229 L 186.71,-62.0204
 L 186.894,-62.5011 L 187.128,-62.96 L 187.409,-63.3919 L 187.733,-63.7921 L 188.097,-64.1563 L 188.497,-64.4804
 L 188.839,-64.7024 L 188.839,-74 L 188.895,-74.5302 L 189.059,-75.0372 L 189.326,-75.4988 L 189.683,-75.895
 L 190.114,-76.2084 L 190.601,-76.4252 L 191.122,-76.536 L 191.655,-76.536 L 192.177,-76.4252 L 192.664,-76.2084
 L 193.095,-75.895 L 193.452,-75.4988 L 193.718,-75.0372 L 193.883,-74.5302 L 193.939,-74 L 193.939,-64.7024
 L 194.281,-64.4804 L 194.681,-64.1563 L 195.045,-63.7921 L 195.369,-63.3919 L 195.65,-62.96 L 195.884,-62.5011
 L 196.068,-62.0204 L 196.201,-61.5229 L 196.282,-61.0143 L 196.309,-60.5 L 196.282,-59.9857 L 196.201,-59.4771
 L 196.068,-58.9796 L 195.884,-58.4989 L 195.65,-58.04 L 195.369,-57.6081 L 195.045,-57.2079 L 194.681,-56.8437
 L 194.281,-56.5196 L 193.849,-56.2392 L 193.39,-56.0054 L 192.909,-55.8208 L 192.412,-55.6875 L 191.903,-55.607
 L 191.389,-55.58 z
M 1122.75,-20.8058 L 1121.97,-21.1151 L 1121.28,-21.5792 L 1120.69,-22.1777 L 1120.25,-22.8846 L 1119.96,-23.6689
 L 1119.83,-24.6565 L 1119.83,-58 L 1119.92,-58.8316 L 1120.18,-59.627 L 1120.6,-60.3511 L 1121.16,-60.9726
 L 1121.83,-61.4641 L 1122.6,-61.8042 L 1123.83,-62 L 1214,-62 L 1214.83,-61.9126 L 1215.63,-61.6542
 L 1216.35,-61.2361 L 1216.98,-60.6765 L 1217.47,-60 L 1217.81,-59.2361 L 1217.98,-58.4181 L 1217.98,-57.5819
 L 1217.81,-56.7639 L 1217.47,-56 L 1216.98,-55.3235 L 1216.35,-54.7639 L 1215.39,-54.2483 L 1125.22,-20.9048
 L 1124.41,-20.6983 L 1123.57,-20.6649 z
M 938.862,-20.8058 L 938.085,-21.1151 L 937.389,-21.5792 L 936.805,-22.1777 L 936.358,-22.8846 L 936.068,-23.6689
 L 935.944,-24.6565 L 935.944,-58 L 936.032,-58.8316 L 936.29,-59.627 L 936.708,-60.3511 L 937.268,-60.9726
 L 937.944,-61.4641 L 938.708,-61.8042 L 939.944,-62 L 1030.11,-62 L 1030.95,-61.9126 L 1031.74,-61.6542
 L 1032.46,-61.2361 L 1033.09,-60.6765 L 1033.58,-60 L 1033.92,-59.2361 L 1034.09,-58.4181 L 1034.09,-57.5819
 L 1033.92,-56.7639 L 1033.58,-56 L 1033.09,-55.3235 L 1032.46,-54.7639 L 1031.5,-54.2483 L 941.332,-20.9048
 L 940.521,-20.6983 L 939.686,-20.6649 z
M 834.423,-47.7604 L 833.613,-47.9669 L 816.626,-54.2483 L 815.662,-54.7639 L 815.041,-55.3235 L 814.549,-56
 L 814.209,-56.7639 L 814.035,-57.5819 L 814.035,-58.4181 L 814.209,-59.2361 L 814.549,-60 L 815.041,-60.6765
 L 815.662,-61.2361 L 816.387,-61.6542 L 817.182,-61.9126 L 818.013,-62 L 851.986,-62 L 853.069,-61.8506
 L 853.846,-61.5414 L 854.542,-61.0773 L 855.126,-60.4788 L 855.573,-59.7719 L 855.863,-58.9876 L 855.983,-58.1601
 L 855.929,-57.3256 L 855.703,-56.5206 L 855.314,-55.7803 L 854.78,-55.1369 L 854.124,-54.6187 L 853.374,-54.2483
 L 836.387,-47.9669 L 835.259,-47.727 z
M 729.479,-20.6983 L 728.668,-20.9048 L 638.499,-54.2483 L 637.535,-54.7639 L 636.914,-55.3235 L 636.422,-56
 L 636.082,-56.7639 L 635.908,-57.5819 L 635.908,-58.4181 L 636.082,-59.2361 L 636.422,-60 L 636.914,-60.6765
 L 637.535,-61.2361 L 638.259,-61.6542 L 639.055,-61.9126 L 639.886,-62 L 730.056,-62 L 731.292,-61.8042
 L 732.056,-61.4641 L 732.732,-60.9726 L 733.292,-60.3511 L 733.71,-59.627 L 733.968,-58.8316 L 734.056,-58
 L 734.056,-24.6565 L 733.932,-23.6689 L 733.642,-22.8846 L 733.195,-22.1777 L 732.611,-21.5792 L 731.915,-21.1151
 L 731.138,-20.8058 L 730.314,-20.6649 z
M 545.59,-20.6983 L 544.779,-20.9048 L 454.61,-54.2483 L 453.646,-54.7639 L 453.025,-55.3235 L 452.533,-56
 L 452.193,-56.7639 L 452.019,-57.5819 L 452.019,-58.4181 L 452.193,-59.2361 L 452.533,-60 L 453.025,-60.6765
 L 453.646,-61.2361 L 454.371,-61.6542 L 455.166,-61.9126 L 455.998,-62 L 546.167,-62 L 547.403,-61.8042
 L 548.167,-61.4641 L 548.843,-60.9726 L 549.403,-60.3511 L 549.821,-59.627 L 550.079,-58.8316 L 550.167,-58
 L 550.167,-24.6565 L 550.043,-23.6689 L 549.753,-22.8846 L 549.306,-22.1777 L 548.722,-21.5792 L 548.026,-21.1151
 L 547.249,-20.8058 L 546.425,-20.6649 z
M 361.701,-20.6983 L 360.89,-20.9048 L 270.721,-54.2483 L 269.758,-54.7639 L 269.136,-55.3235 L 268.645,-56
 L 268.304,-56.7639 L 268.131,-57.5819 L 268.131,-58.4181 L 268.304,-59.2361 L 268.645,-60 L 269.136,-60.6765
 L 269.758,-61.2361 L 270.482,-61.6542 L 271.277,-61.9126 L 272.109,-62 L 362.278,-62 L 363.514,-61.8042
 L 364.278,-61.4641 L 364.954,-60.9726 L 365.514,-60.3511 L 365.932,-59.627 L 366.19,-58.8316 L 366.278,-58
 L 366.278,-24.6565 L 366.154,-23.6689 L 365.864,-22.8846 L 365.417,-22.1777 L 364.833,-21.5792 L 364.138,-21.1151
 L 363.361,-20.8058 L 362.536,-20.6649 z
M 1490.53,-20.8058 L 1489.75,-21.1151 L 1489.06,-21.5792 L 1488.47,-22.1777 L 1488.02,-22.8846 L 1487.73,-23.6689
 L 1487.61,-24.6565 L 1487.61,-58 L 1487.7,-58.8316 L 1487.96,-59.627 L 1488.38,-60.3511 L 1488.93,-60.9726
 L 1489.61,-61.4641 L 1490.38,-61.8042 L 1491.61,-62 L 1581.78,-62 L 1582.61,-61.9126 L 1583.41,-61.6542
 L 1584.13,-61.2361 L 1584.75,-60.6765 L 1585.24,-60 L 1585.58,-59.2361 L 1585.76,-58.4181 L 1585.76,-57.5819
 L 1585.58,-56.7639 L 1585.24,-56 L 1584.75,-55.3235 L 1584.13,-54.7639 L 1583.17,-54.2483 L 1493,-20.9048
 L 1492.19,-20.6983 L 1491.35,-20.6649 z
M 177.812,-20.6983 L 177.002,-20.9048 L 86.8324,-54.2483 L 85.8686,-54.7639 L 85.2472,-55.3235 L 84.7557,-56
 L 84.4155,-56.7639 L 84.2417,-57.5819 L 84.2417,-58.4181 L 84.4155,-59.2361 L 84.7557,-60 L 85.2472,-60.6765
 L 85.8686,-61.2361 L 86.5928,-61.6542 L 87.3881,-61.9126 L 88.2198,-62 L 178.389,-62 L 179.625,-61.8042
 L 180.389,-61.4641 L 181.065,-60.9726 L 181.625,-60.3511 L 182.043,-59.627 L 182.301,-58.8316 L 182.389,-58
 L 182.389,-24.6565 L 182.265,-23.6689 L 181.975,-22.8846 L 181.528,-22.1777 L 180.944,-21.5792 L 180.249,-21.1151
 L 179.472,-20.8058 L 178.647,-20.6649 z
M 1306.64,-20.8058 L 1305.86,-21.1151 L 1305.17,-21.5792 L 1304.58,-22.1777 L 1304.14,-22.8846 L 1303.85,-23.6689
 L 1303.72,-24.6565 L 1303.72,-58 L 1303.81,-58.8316 L 1304.07,-59.627 L 1304.49,-60.3511 L 1305.05,-60.9726
 L 1305.72,-61.4641 L 1306.49,-61.8042 L 1307.72,-62 L 1397.89,-62 L 1398.72,-61.9126 L 1399.52,-61.6542
 L 1400.24,-61.2361 L 1400.86,-60.6765 L 1401.36,-60 L 1401.7,-59.2361 L 1401.87,-58.4181 L 1401.87,-57.5819
 L 1401.7,-56.7639 L 1401.36,-56 L 1400.86,-55.3235 L 1400.24,-54.7639 L 1399.28,-54.2483 L 1309.11,-20.9048
 L 1308.3,-20.6983 L 1307.46,-20.6649 z
M 755.637,-18.5478 L 754.819,-18.7216 L 754.056,-19.0618 L 753.379,-19.5533 L 752.819,-20.1747 L 752.401,-20.8989
 L 752.143,-21.6942 L 752.056,-22.5258 L 752.056,-57.4742 L 752.179,-58.4617 L 752.469,-59.246 L 752.916,-59.9529
 L 753.5,-60.5515 L 754.196,-61.0155 L 754.973,-61.3248 L 755.797,-61.4658 L 756.633,-61.4323 L 757.443,-61.2259
 L 804.697,-43.7517 L 805.17,-43.5414 L 805.865,-43.0773 L 806.449,-42.4788 L 806.896,-41.7719 L 807.186,-40.9876
 L 807.307,-40.1601 L 807.253,-39.3256 L 807.026,-38.5206 L 806.638,-37.7803 L 806.103,-37.1369 L 805.447,-36.6187
 L 804.697,-36.2483 L 757.443,-18.7741 L 756.474,-18.5478 z
M 913.367,-18.5677 L 912.557,-18.7741 L 865.303,-36.2483 L 864.83,-36.4586 L 864.135,-36.9227 L 863.551,-37.5212
 L 863.104,-38.2281 L 862.814,-39.0124 L 862.693,-39.8399 L 862.747,-40.6744 L 862.974,-41.4794 L 863.362,-42.2197
 L 863.897,-42.8631 L 864.553,-43.3813 L 865.303,-43.7517 L 912.557,-61.2259 L 913.526,-61.4523 L 914.363,-61.4523
 L 915.18,-61.2784 L 915.944,-60.9383 L 916.621,-60.4467 L 917.18,-59.8253 L 917.599,-59.1011 L 917.857,-58.3058
 L 917.944,-57.4742 L 917.944,-22.5258 L 917.821,-21.5383 L 917.531,-20.7539 L 917.084,-20.0471 L 916.5,-19.4485
 L 915.804,-18.9845 L 915.027,-18.6752 L 914.203,-18.5342 z
M 204.389,-18 L 203.153,-18.1958 L 202.389,-18.5359 L 201.712,-19.0274 L 201.153,-19.6489 L 200.735,-20.373
 L 200.476,-21.1684 L 200.389,-22 L 200.389,-55.3435 L 200.513,-56.3311 L 200.803,-57.1154 L 201.25,-57.8223
 L 201.833,-58.4208 L 202.529,-58.8849 L 203.306,-59.1941 L 204.13,-59.3351 L 204.966,-59.3017 L 205.776,-59.0952
 L 295.945,-25.7517 L 296.909,-25.2361 L 297.531,-24.6765 L 298.022,-24 L 298.362,-23.2361 L 298.536,-22.4181
 L 298.536,-21.5819 L 298.362,-20.7639 L 298.022,-20 L 297.531,-19.3235 L 296.909,-18.7639 L 296.185,-18.3458
 L 295.39,-18.0874 L 294.558,-18 z
M 388.278,-18 L 387.042,-18.1958 L 386.278,-18.5359 L 385.601,-19.0274 L 385.042,-19.6489 L 384.624,-20.373
 L 384.365,-21.1684 L 384.278,-22 L 384.278,-55.3435 L 384.402,-56.3311 L 384.692,-57.1154 L 385.138,-57.8223
 L 385.722,-58.4208 L 386.418,-58.8849 L 387.195,-59.1941 L 388.019,-59.3351 L 388.855,-59.3017 L 389.665,-59.0952
 L 479.834,-25.7517 L 480.798,-25.2361 L 481.419,-24.6765 L 481.911,-24 L 482.251,-23.2361 L 482.425,-22.4181
 L 482.425,-21.5819 L 482.251,-20.7639 L 481.911,-20 L 481.419,-19.3235 L 480.798,-18.7639 L 480.074,-18.3458
 L 479.279,-18.0874 L 478.447,-18 z
M 572.167,-18 L 570.931,-18.1958 L 570.167,-18.5359 L 569.49,-19.0274 L 568.931,-19.6489 L 568.512,-20.373
 L 568.254,-21.1684 L 568.167,-22 L 568.167,-55.3435 L 568.29,-56.3311 L 568.581,-57.1154 L 569.027,-57.8223
 L 569.611,-58.4208 L 570.307,-58.8849 L 571.084,-59.1941 L 571.908,-59.3351 L 572.744,-59.3017 L 573.554,-59.0952
 L 663.723,-25.7517 L 664.687,-25.2361 L 665.308,-24.6765 L 665.8,-24 L 666.14,-23.2361 L 666.314,-22.4181
 L 666.314,-21.5819 L 666.14,-20.7639 L 665.8,-20 L 665.308,-19.3235 L 664.687,-18.7639 L 663.963,-18.3458
 L 663.167,-18.0874 L 662.336,-18 z
M 1007.66,-18 L 1006.83,-18.0874 L 1006.04,-18.3458 L 1005.31,-18.7639 L 1004.69,-19.3235 L 1004.2,-20
 L 1003.86,-20.7639 L 1003.69,-21.5819 L 1003.69,-22.4181 L 1003.86,-23.2361 L 1004.2,-24 L 1004.69,-24.6765
 L 1005.31,-25.2361 L 1006.28,-25.7517 L 1096.45,-59.0952 L 1097.26,-59.3017 L 1098.09,-59.3351 L 1098.92,-59.1941
 L 1099.69,-58.8849 L 1100.39,-58.4208 L 1100.97,-57.8223 L 1101.42,-57.1154 L 1101.71,-56.3311 L 1101.83,-55.3435
 L 1101.83,-22 L 1101.75,-21.1684 L 1101.49,-20.373 L 1101.07,-19.6489 L 1100.51,-19.0274 L 1099.83,-18.5359
 L 1099.07,-18.1958 L 1097.83,-18 z
M 1191.55,-18 L 1190.72,-18.0874 L 1189.93,-18.3458 L 1189.2,-18.7639 L 1188.58,-19.3235 L 1188.09,-20
 L 1187.75,-20.7639 L 1187.58,-21.5819 L 1187.58,-22.4181 L 1187.75,-23.2361 L 1188.09,-24 L 1188.58,-24.6765
 L 1189.2,-25.2361 L 1190.17,-25.7517 L 1280.33,-59.0952 L 1281.15,-59.3017 L 1281.98,-59.3351 L 1282.81,-59.1941
 L 1283.58,-58.8849 L 1284.28,-58.4208 L 1284.86,-57.8223 L 1285.31,-57.1154 L 1285.6,-56.3311 L 1285.72,-55.3435
 L 1285.72,-22 L 1285.63,-21.1684 L 1285.38,-20.373 L 1284.96,-19.6489 L 1284.4,-19.0274 L 1283.72,-18.5359
 L 1282.96,-18.1958 L 1281.72,-18 z
M 1375.44,-18 L 1374.61,-18.0874 L 1373.82,-18.3458 L 1373.09,-18.7639 L 1372.47,-19.3235 L 1371.98,-20
 L 1371.64,-20.7639 L 1371.46,-21.5819 L 1371.46,-22.4181 L 1371.64,-23.2361 L 1371.98,-24 L 1372.47,-24.6765
 L 1373.09,-25.2361 L 1374.05,-25.7517 L 1464.22,-59.0952 L 1465.03,-59.3017 L 1465.87,-59.3351 L 1466.69,-59.1941
 L 1467.47,-58.8849 L 1468.17,-58.4208 L 1468.75,-57.8223 L 1469.2,-57.1154 L 1469.49,-56.3311 L 1469.61,-55.3435
 L 1469.61,-22 L 1469.52,-21.1684 L 1469.27,-20.373 L 1468.85,-19.6489 L 1468.29,-19.0274 L 1467.61,-18.5359
 L 1466.85,-18.1958 L 1465.61,-18 z
M 22,-18 L 20.7639,-18.1958 L 20,-18.5359 L 19.3235,-19.0274 L 18.7639,-19.6489 L 18.3458,-20.373
 L 18.0874,-21.1684 L 18,-22 L 18,-54.7888 L 18.1238,-55.7764 L 18.4139,-56.5607 L 18.8606,-57.2676
 L 19.4446,-57.8661 L 20.1402,-58.3302 L 20.9172,-58.6395 L 21.7414,-58.7804 L 22.577,-58.747 L 23.3873,-58.5405
 L 112.056,-25.7517 L 113.02,-25.2361 L 113.642,-24.6765 L 114.133,-24 L 114.473,-23.2361 L 114.647,-22.4181
 L 114.647,-21.5819 L 114.473,-20.7639 L 114.133,-20 L 113.642,-19.3235 L 113.02,-18.7639 L 112.296,-18.3458
 L 111.501,-18.0874 L 110.669,-18 z
M 1559.33,-18 L 1558.5,-18.0874 L 1557.7,-18.3458 L 1556.98,-18.7639 L 1556.36,-19.3235 L 1555.87,-20
 L 1555.53,-20.7639 L 1555.35,-21.5819 L 1555.35,-22.4181 L 1555.53,-23.2361 L 1555.87,-24 L 1556.36,-24.6765
 L 1556.98,-25.2361 L 1557.94,-25.7517 L 1646.61,-58.5405 L 1647.42,-58.747 L 1648.26,-58.7804 L 1649.08,-58.6395
 L 1649.86,-58.3302 L 1650.56,-57.8661 L 1651.14,-57.2676 L 1651.59,-56.5607 L 1651.88,-55.7764 L 1652,-54.7888
 L 1652,-22 L 1651.91,-21.1684 L 1651.65,-20.373 L 1651.24,-19.6489 L 1650.68,-19.0274 L 1650,-18.5359
 L 1649.24,-18.1958 L 1648,-18 z
M 818.013,-18 L 816.931,-18.1494 L 816.154,-18.4586 L 815.458,-18.9227 L 814.874,-19.5212 L 814.427,-20.2281
 L 814.137,-21.0124 L 814.017,-21.8399 L 814.071,-22.6744 L 814.297,-23.4794 L 814.686,-24.2197 L 815.22,-24.8631
 L 815.876,-25.3813 L 816.626,-25.7517 L 833.613,-32.0331 L 834.741,-32.273 L 835.577,-32.2396 L 836.387,-32.0331
 L 853.374,-25.7517 L 854.338,-25.2361 L 854.959,-24.6765 L 855.451,-24 L 855.791,-23.2361 L 855.965,-22.4181
 L 855.965,-21.5819 L 855.791,-20.7639 L 855.451,-20 L 854.959,-19.3235 L 854.338,-18.7639 L 853.613,-18.3458
 L 852.818,-18.0874 L 851.986,-18 z
" stroke="black" fill="lightgray" stroke-width="0.5"/>
</svg>
