<?xml version="1.0" standalone="no"?>
<!DOCTYPE svg PUBLIC "-//W3C//DTD SVG 1.1//EN" "http://www.w3.org/Graphics/SVG/1.1/DTD/svg11.dtd">
<svg width="1646mm" height="80mm" viewBox="0 -80 1646 80" xmlns="http://www.w3.org/2000/svg" version="1.1">
<title>OpenSCAD Model</title>
<path d="
M 1646,-80 L 0,-80 L 0,-0 L 4.95,-0 L 4.95,-6 L 5.00572,-6.53017
 L 5.17046,-7.03717 L 5.437,-7.49884 L 5.79372,-7.895 L 6.22499,-8.20836 L 6.71201,-8.42519 L 7.23344,-8.53603
 L 7.76654,-8.53603 L 8.28798,-8.42519 L 8.77499,-8.20836 L 9.20627,-7.895 L 9.56299,-7.49884 L 9.82953,-7.03717
 L 9.99426,-6.53017 L 10.05,-6 L 10.05,-0 L 186.172,-0 L 186.172,-6 L 186.228,-6.53017
 L 186.393,-7.03717 L 186.659,-7.49884 L 187.016,-7.895 L 187.447,-8.20836 L 187.934,-8.42519 L 188.456,-8.53603
 L 188.989,-8.53603 L 189.51,-8.42519 L 189.997,-8.20836 L 190.428,-7.895 L 190.785,-7.49884 L 191.052,-7.03717
 L 191.216,-6.53017 L 191.272,-6 L 191.272,-0 L 367.394,-0 L 367.394,-6 L 367.45,-6.53017
 L 367.615,-7.03717 L 367.881,-7.49884 L 368.238,-7.895 L 368.669,-8.20836 L 369.156,-8.42519 L 369.678,-8.53603
 L 370.211,-8.53603 L 370.732,-8.42519 L 371.219,-8.20836 L 371.651,-7.895 L 372.007,-7.49884 L 372.274,-7.03717
 L 372.439,-6.53017 L 372.494,-6 L 372.494,-0 L 548.617,-0 L 548.617,-6 L 548.672,-6.53017
 L 548.837,-7.03717 L 549.104,-7.49884 L 549.46,-7.895 L 549.892,-8.20836 L 550.379,-8.42519 L 550.9,-8.53603
 L 551.433,-8.53603 L 551.955,-8.42519 L 552.442,-8.20836 L 552.873,-7.895 L 553.23,-7.49884 L 553.496,-7.03717
 L 553.661,-6.53017 L 553.717,-6 L 553.717,-0 L 729.839,-0 L 729.839,-6 L 729.895,-6.53017
 L 730.059,-7.03717 L 730.326,-7.49884 L 730.683,-7.895 L 731.114,-8.20836 L 731.601,-8.42519 L 732.122,-8.53603
 L 732.655,-8.53603 L 733.177,-8.42519 L 733.664,-8.20836 L 734.095,-7.895 L 734.452,-7.49884 L 734.718,-7.03717
 L 734.883,-6.53017 L 734.939,-6 L 734.939,-0 L 911.061,-0 L 911.061,-6 L 911.117,-6.53017
 L 911.282,-7.03717 L 911.548,-7.49884 L 911.905,-7.895 L 912.336,-8.20836 L 912.823,-8.42519 L 913.345,-8.53603
 L 913.878,-8.53603 L 914.399,-8.42519 L 914.886,-8.20836 L 915.317,-7.895 L 915.674,-7.49884 L 915.941,-7.03717
 L 916.105,-6.53017 L 916.161,-6 L 916.161,-0 L 1092.28,-0 L 1092.28,-6 L 1092.34,-6.53017
 L 1092.5,-7.03717 L 1092.77,-7.49884 L 1093.13,-7.895 L 1093.56,-8.20836 L 1094.05,-8.42519 L 1094.57,-8.53603
 L 1095.1,-8.53603 L 1095.62,-8.42519 L 1096.11,-8.20836 L 1096.54,-7.895 L 1096.9,-7.49884 L 1097.16,-7.03717
 L 1097.33,-6.53017 L 1097.38,-6 L 1097.38,-0 L 1273.51,-0 L 1273.51,-6 L 1273.56,-6.53017
 L 1273.73,-7.03717 L 1273.99,-7.49884 L 1274.35,-7.895 L 1274.78,-8.20836 L 1275.27,-8.42519 L 1275.79,-8.53603
 L 1276.32,-8.53603 L 1276.84,-8.42519 L 1277.33,-8.20836 L 1277.76,-7.895 L 1278.12,-7.49884 L 1278.39,-7.03717
 L 1278.55,-6.53017 L 1278.61,-6 L 1278.61,-0 L 1454.73,-0 L 1454.73,-6 L 1454.78,-6.53017
 L 1454.95,-7.03717 L 1455.21,-7.49884 L 1455.57,-7.895 L 1456,-8.20836 L 1456.49,-8.42519 L 1457.01,-8.53603
 L 1457.54,-8.53603 L 1458.07,-8.42519 L 1458.55,-8.20836 L 1458.98,-7.895 L 1459.34,-7.49884 L 1459.61,-7.03717
 L 1459.77,-6.53017 L 1459.83,-6 L 1459.83,-0 L 1635.95,-0 L 1635.95,-6 L 1636.01,-6.53017
 L 1636.17,-7.03717 L 1636.44,-7.49884 L 1636.79,-7.895 L 1637.22,-8.20836 L 1637.71,-8.42519 L 1638.23,-8.53603
 L 1638.77,-8.53603 L 1639.29,-8.42519 L 1639.77,-8.20836 L 1640.21,-7.895 L 1640.56,-7.49884 L 1640.83,-7.03717
 L 1640.99,-6.53017 L 1641.05,-6 L 1641.05,-0 L 1646,-0 z
M 6.98573,-55.607 L 6.47708,-55.6875 L 5.97964,-55.8208 L 5.49887,-56.0054 L 5.04001,-56.2392 L 4.60811,-56.5196
 L 4.20789,-56.8437 L 3.84373,-57.2079 L 3.51964,-57.6081 L 3.23917,-58.04 L 3.00537,-58.4989 L 2.82082,-58.9796
 L 2.68752,-59.4771 L 2.60696,-59.9857 L 2.58,-60.5 L 2.60696,-61.0143 L 2.68752,-61.5229 L 2.82082,-62.0204
 L 3.00537,-62.5011 L 3.23917,-62.96 L 3.51964,-63.3919 L 3.84373,-63.7921 L 4.20789,-64.1563 L 4.60811,-64.4804
 L 4.95001,-64.7024 L 4.95001,-74 L 5.00574,-74.5302 L 5.17047,-75.0372 L 5.43701,-75.4988 L 5.79373,-75.895
 L 6.22501,-76.2084 L 6.71202,-76.4252 L 7.23346,-76.536 L 7.76654,-76.536 L 8.28798,-76.4252 L 8.77499,-76.2084
 L 9.20627,-75.895 L 9.56299,-75.4988 L 9.82953,-75.0372 L 9.99426,-74.5302 L 10.05,-74 L 10.05,-64.7024
 L 10.3919,-64.4804 L 10.7921,-64.1563 L 11.1563,-63.7921 L 11.4804,-63.3919 L 11.7608,-62.96 L 11.9946,-62.5011
 L 12.1792,-62.0204 L 12.3125,-61.5229 L 12.393,-61.0143 L 12.42,-60.5 L 12.393,-59.9857 L 12.3125,-59.4771
 L 12.1792,-58.9796 L 11.9946,-58.4989 L 11.7608,-58.04 L 11.4804,-57.6081 L 11.1563,-57.2079 L 10.7921,-56.8437
 L 10.3919,-56.5196 L 9.95999,-56.2392 L 9.50113,-56.0054 L 9.02036,-55.8208 L 8.52292,-55.6875 L 8.01427,-55.607
 L 7.5,-55.58 z
M 1094.32,-55.607 L 1093.81,-55.6875 L 1093.31,-55.8208 L 1092.83,-56.0054 L 1092.37,-56.2392 L 1091.94,-56.5196
 L 1091.54,-56.8437 L 1091.18,-57.2079 L 1090.85,-57.6081 L 1090.57,-58.04 L 1090.34,-58.4989 L 1090.15,-58.9796
 L 1090.02,-59.4771 L 1089.94,-59.9857 L 1089.91,-60.5 L 1089.94,-61.0143 L 1090.02,-61.5229 L 1090.15,-62.0204
 L 1090.34,-62.5011 L 1090.57,-62.96 L 1090.85,-63.3919 L 1091.18,-63.7921 L 1091.54,-64.1563 L 1091.94,-64.4804
 L 1092.28,-64.7024 L 1092.28,-74 L 1092.34,-74.5302 L 1092.5,-75.0372 L 1092.77,-75.4988 L 1093.13,-75.895
 L 1093.56,-76.2084 L 1094.05,-76.4252 L 1094.57,-76.536 L 1095.1,-76.536 L 1095.62,-76.4252 L 1096.11,-76.2084
 L 1096.54,-75.895 L 1096.9,-75.4988 L 1097.16,-75.0372 L 1097.33,-74.5302 L 1097.38,-74 L 1097.38,-64.7024
 L 1097.73,-64.4804 L 1098.13,-64.1563 L 1098.49,-63.7921 L 1098.81,-63.3919 L 1099.09,-62.96 L 1099.33,-62.5011
 L 1099.51,-62.0204 L 1099.65,-61.5229 L 1099.73,-61.0143 L 1099.75,-60.5 L 1099.73,-59.9857 L 1099.65,-59.4771
 L 1099.51,-58.9796 L 1099.33,-58.4989 L 1099.09,-58.04 L 1098.81,-57.6081 L 1098.49,-57.2079 L 1098.13,-56.8437
 L 1097.73,-56.5196 L 1097.29,-56.2392 L 1096.83,-56.0054 L 1096.35,-55.8208 L 1095.86,-55.6875 L 1095.35,-55.607
 L 1094.83,-55.58 z
M 1275.54,-55.607 L 1275.03,-55.6875 L 1274.54,-55.8208 L 1274.05,-56.0054 L 1273.6,-56.2392 L 1273.16,-56.5196
 L 1272.76,-56.8437 L 1272.4,-57.2079 L 1272.08,-57.6081 L 1271.79,-58.04 L 1271.56,-58.4989 L 1271.38,-58.9796
 L 1271.24,-59.4771 L 1271.16,-59.9857 L 1271.14,-60.5 L 1271.16,-61.0143 L 1271.24,-61.5229 L 1271.38,-62.0204
 L 1271.56,-62.5011 L 1271.79,-62.96 L 1272.08,-63.3919 L 1272.4,-63.7921 L 1272.76,-64.1563 L 1273.16,-64.4804
 L 1273.51,-64.7024 L 1273.51,-74 L 1273.56,-74.5302 L 1273.73,-75.0372 L 1273.99,-75.4988 L 1274.35,-75.895
 L 1274.78,-76.2084 L 1275.27,-76.4252 L 1275.79,-76.536 L 1276.32,-76.536 L 1276.84,-76.4252 L 1277.33,-76.2084
 L 1277.76,-75.895 L 1278.12,-75.4988 L 1278.39,-75.0372 L 1278.55,-74.5302 L 1278.61,-74 L 1278.61,-64.7024
 L 1278.95,-64.4804 L 1279.35,-64.1563 L 1279.71,-63.7921 L 1280.04,-63.3919 L 1280.32,-62.96 L 1280.55,-62.5011
 L 1280.73,-62.0204 L 1280.87,-61.5229 L 1280.95,-61.0143 L 1280.98,-60.5 L 1280.95,-59.9857 L 1280.87,-59.4771
 L 1280.73,-58.9796 L 1280.55,-58.4989 L 1280.32,-58.04 L 1280.04,-57.6081 L 1279.71,-57.2079 L 1279.35,-56.8437
 L 1278.95,-56.5196 L 1278.52,-56.2392 L 1278.06,-56.0054 L 1277.58,-55.8208 L 1277.08,-55.6875 L 1276.57,-55.607
 L 1276.06,-55.58 z
M 913.097,-55.607 L 912.588,-55.6875 L 912.091,-55.8208 L 911.61,-56.0054 L 911.151,-56.2392 L 910.719,-56.5196
 L 910.319,-56.8437 L 909.955,-57.2079 L 909.631,-57.6081 L 909.35,-58.04 L 909.116,-58.4989 L 908.932,-58.9796
 L 908.799,-59.4771 L 908.718,-59.9857 L 908.691,-60.5 L 908.718,-61.0143 L 908.799,-61.5229 L 908.932,-62.0204
 L 909.116,-62.5011 L 909.35,-62.96 L 909.631,-63.3919 L 909.955,-63.7921 L 910.319,-64.1563 L 910.719,-64.4804
 L 911.061,-64.7024 L 911.061,-74 L 911.117,-74.5302 L 911.282,-75.0372 L 911.548,-75.4988 L 911.905,-75.895
 L 912.336,-76.2084 L 912.823,-76.4252 L 913.345,-76.536 L 913.878,-76.536 L 914.399,-76.4252 L 914.886,-76.2084
 L 915.317,-75.895 L 915.674,-75.4988 L 915.941,-75.0372 L 916.105,-74.5302 L 916.161,-74 L 916.161,-64.7024
 L 916.503,-64.4804 L 916.903,-64.1563 L 917.267,-63.7921 L 917.591,-63.3919 L 917.872,-62.96 L 918.106,-62.5011
 L 918.29,-62.0204 L 918.424,-61.5229 L 918.504,-61.0143 L 918.531,-60.5 L 918.504,-59.9857 L 918.424,-59.4771
 L 918.29,-58.9796 L 918.106,-58.4989 L 917.872,-58.04 L 917.591,-57.6081 L 917.267,-57.2079 L 916.903,-56.8437
 L 916.503,-56.5196 L 916.071,-56.2392 L 915.612,-56.0054 L 915.131,-55.8208 L 914.634,-55.6875 L 914.125,-55.607
 L 913.611,-55.58 z
M 731.875,-55.607 L 731.366,-55.6875 L 730.869,-55.8208 L 730.388,-56.0054 L 729.929,-56.2392 L 729.497,-56.5196
 L 729.097,-56.8437 L 728.733,-57.2079 L 728.409,-57.6081 L 728.128,-58.04 L 727.894,-58.4989 L 727.71,-58.9796
 L 727.576,-59.4771 L 727.496,-59.9857 L 727.469,-60.5 L 727.496,-61.0143 L 727.576,-61.5229 L 727.71,-62.0204
 L 727.894,-62.5011 L 728.128,-62.96 L 728.409,-63.3919 L 728.733,-63.7921 L 729.097,-64.1563 L 729.497,-64.4804
 L 729.839,-64.7024 L 729.839,-74 L 729.895,-74.5302 L 730.059,-75.0372 L 730.326,-75.4988 L 730.683,-75.895
 L 731.114,-76.2084 L 731.601,-76.4252 L 732.122,-76.536 L 732.655,-76.536 L 733.177,-76.4252 L 733.664,-76.2084
 L 734.095,-75.895 L 734.452,-75.4988 L 734.718,-75.0372 L 734.883,-74.5302 L 734.939,-74 L 734.939,-64.7024
 L 735.281,-64.4804 L 735.681,-64.1563 L 736.045,-63.7921 L 736.369,-63.3919 L 736.65,-62.96 L 736.884,-62.5011
 L 737.068,-62.0204 L 737.201,-61.5229 L 737.282,-61.0143 L 737.309,-60.5 L 737.282,-59.9857 L 737.201,-59.4771
 L 737.068,-58.9796 L 736.884,-58.4989 L 736.65,-58.04 L 736.369,-57.6081 L 736.045,-57.2079 L 735.681,-56.8437
 L 735.281,-56.5196 L 734.849,-56.2392 L 734.39,-56.0054 L 733.909,-55.8208 L 733.412,-55.6875 L 732.903,-55.607
 L 732.389,-55.58 z
M 1456.76,-55.607 L 1456.25,-55.6875 L 1455.76,-55.8208 L 1455.28,-56.0054 L 1454.82,-56.2392 L 1454.39,-56.5196
 L 1453.99,-56.8437 L 1453.62,-57.2079 L 1453.3,-57.6081 L 1453.02,-58.04 L 1452.78,-58.4989 L 1452.6,-58.9796
 L 1452.47,-59.4771 L 1452.38,-59.9857 L 1452.36,-60.5 L 1452.38,-61.0143 L 1452.47,-61.5229 L 1452.6,-62.0204
 L 1452.78,-62.5011 L 1453.02,-62.96 L 1453.3,-63.3919 L 1453.62,-63.7921 L 1453.99,-64.1563 L 1454.39,-64.4804
 L 1454.73,-64.7024 L 1454.73,-74 L 1454.78,-74.5302 L 1454.95,-75.0372 L 1455.21,-75.4988 L 1455.57,-75.895
 L 1456,-76.2084 L 1456.49,-76.4252 L 1457.01,-76.536 L 1457.54,-76.536 L 1458.07,-76.4252 L 1458.55,-76.2084
 L 1458.98,-75.895 L 1459.34,-75.4988 L 1459.61,-75.0372 L 1459.77,-74.5302 L 1459.83,-74 L 1459.83,-64.7024
 L 1460.17,-64.4804 L 1460.57,-64.1563 L 1460.93,-63.7921 L 1461.26,-63.3919 L 1461.54,-62.96 L 1461.77,-62.5011
 L 1461.96,-62.0204 L 1462.09,-61.5229 L 1462.17,-61.0143 L 1462.2,-60.5 L 1462.17,-59.9857 L 1462.09,-59.4771
 L 1461.96,-58.9796 L 1461.77,-58.4989 L 1461.54,-58.04 L 1461.26,-57.6081 L 1460.93,-57.2079 L 1460.57,-56.8437
 L 1460.17,-56.5196 L 1459.74,-56.2392 L 1459.28,-56.0054 L 1458.8,-55.8208 L 1458.3,-55.6875 L 1457.79,-55.607
 L 1457.28,-55.58 z
M 550.652,-55.607 L 550.144,-55.6875 L 549.646,-55.8208 L 549.166,-56.0054 L 548.707,-56.2392 L 548.275,-56.5196
 L 547.875,-56.8437 L 547.51,-57.2079 L 547.186,-57.6081 L 546.906,-58.04 L 546.672,-58.4989 L 546.487,-58.9796
 L 546.354,-59.4771 L 546.274,-59.9857 L 546.247,-60.5 L 546.274,-61.0143 L 546.354,-61.5229 L 546.487,-62.0204
 L 546.672,-62.5011 L 546.906,-62.96 L 547.186,-63.3919 L 547.51,-63.7921 L 547.875,-64.1563 L 548.275,-64.4804
 L 548.617,-64.7024 L 548.617,-74 L 548.672,-74.5302 L 548.837,-75.0372 L 549.104,-75.4988 L 549.46,-75.895
 L 549.892,-76.2084 L 550.379,-76.4252 L 550.9,-76.536 L 551.433,-76.536 L 551.955,-76.4252 L 552.442,-76.2084
 L 552.873,-75.895 L 553.23,-75.4988 L 553.496,-75.0372 L 553.661,-74.5302 L 553.717,-74 L 553.717,-64.7024
 L 554.059,-64.4804 L 554.459,-64.1563 L 554.823,-63.7921 L 555.147,-63.3919 L 555.427,-62.96 L 555.661,-62.5011
 L 555.846,-62.0204 L 555.979,-61.5229 L 556.06,-61.0143 L 556.087,-60.5 L 556.06,-59.9857 L 555.979,-59.4771
 L 555.846,-58.9796 L 555.661,-58.4989 L 555.427,-58.04 L 555.147,-57.6081 L 554.823,-57.2079 L 554.459,-56.8437
 L 554.059,-56.5196 L 553.627,-56.2392 L 553.168,-56.0054 L 552.687,-55.8208 L 552.19,-55.6875 L 551.681,-55.607
 L 551.167,-55.58 z
M 369.43,-55.607 L 368.922,-55.6875 L 368.424,-55.8208 L 367.943,-56.0054 L 367.484,-56.2392 L 367.053,-56.5196
 L 366.652,-56.8437 L 366.288,-57.2079 L 365.964,-57.6081 L 365.684,-58.04 L 365.45,-58.4989 L 365.265,-58.9796
 L 365.132,-59.4771 L 365.051,-59.9857 L 365.024,-60.5 L 365.051,-61.0143 L 365.132,-61.5229 L 365.265,-62.0204
 L 365.45,-62.5011 L 365.684,-62.96 L 365.964,-63.3919 L 366.288,-63.7921 L 366.652,-64.1563 L 367.053,-64.4804
 L 367.394,-64.7024 L 367.394,-74 L 367.45,-74.5302 L 367.615,-75.0372 L 367.881,-75.4988 L 368.238,-75.895
 L 368.669,-76.2084 L 369.156,-76.4252 L 369.678,-76.536 L 370.211,-76.536 L 370.732,-76.4252 L 371.219,-76.2084
 L 371.651,-75.895 L 372.007,-75.4988 L 372.274,-75.0372 L 372.439,-74.5302 L 372.494,-74 L 372.494,-64.7024
 L 372.836,-64.4804 L 373.237,-64.1563 L 373.601,-63.7921 L 373.925,-63.3919 L 374.205,-62.96 L 374.439,-62.5011
 L 374.624,-62.0204 L 374.757,-61.5229 L 374.837,-61.0143 L 374.864,-60.5 L 374.837,-59.9857 L 374.757,-59.4771
 L 374.624,-58.9796 L 374.439,-58.4989 L 374.205,-58.04 L 373.925,-57.6081 L 373.601,-57.2079 L 373.237,-56.8437
 L 372.836,-56.5196 L 372.404,-56.2392 L 371.946,-56.0054 L 371.465,-55.8208 L 370.967,-55.6875 L 370.459,-55.607
 L 369.944,-55.58 z
M 1637.99,-55.607 L 1637.48,-55.6875 L 1636.98,-55.8208 L 1636.5,-56.0054 L 1636.04,-56.2392 L 1635.61,-56.5196
 L 1635.21,-56.8437 L 1634.84,-57.2079 L 1634.52,-57.6081 L 1634.24,-58.04 L 1634.01,-58.4989 L 1633.82,-58.9796
 L 1633.69,-59.4771 L 1633.61,-59.9857 L 1633.58,-60.5 L 1633.61,-61.0143 L 1633.69,-61.5229 L 1633.82,-62.0204
 L 1634.01,-62.5011 L 1634.24,-62.96 L 1634.52,-63.3919 L 1634.84,-63.7921 L 1635.21,-64.1563 L 1635.61,-64.4804
 L 1635.95,-64.7024 L 1635.95,-74 L 1636.01,-74.5302 L 1636.17,-75.0372 L 1636.44,-75.4988 L 1636.79,-75.895
 L 1637.23,-76.2084 L 1637.71,-76.4252 L 1638.23,-76.536 L 1638.77,-76.536 L 1639.29,-76.4252 L 1639.77,-76.2084
 L 1640.21,-75.895 L 1640.56,-75.4988 L 1640.83,-75.0372 L 1640.99,-74.5302 L 1641.05,-74 L 1641.05,-64.7024
 L 1641.39,-64.4804 L 1641.79,-64.1563 L 1642.16,-63.7921 L 1642.48,-63.3919 L 1642.76,-62.96 L 1642.99,-62.5011
 L 1643.18,-62.0204 L 1643.31,-61.5229 L 1643.39,-61.0143 L 1643.42,-60.5 L 1643.39,-59.9857 L 1643.31,-59.4771
 L 1643.18,-58.9796 L 1642.99,-58.4989 L 1642.76,-58.04 L 1642.48,-57.6081 L 1642.16,-57.2079 L 1641.79,-56.8437
 L 1641.39,-56.5196 L 1640.96,-56.2392 L 1640.5,-56.0054 L 1640.02,-55.8208 L 1639.52,-55.6875 L 1639.01,-55.607
 L 1638.5,-55.58 z
M 188.208,-55.607 L 187.699,-55.6875 L 187.202,-55.8208 L 186.721,-56.0054 L 186.262,-56.2392 L 185.83,-56.5196
 L 185.43,-56.8437 L 185.066,-57.2079 L 184.742,-57.6081 L 184.461,-58.04 L 184.228,-58.4989 L 184.043,-58.9796
 L 183.91,-59.4771 L 183.829,-59.9857 L 183.802,-60.5 L 183.829,-61.0143 L 183.91,-61.5229 L 184.043,-62.0204
 L 184.228,-62.5011 L 184.461,-62.96 L 184.742,-63.3919 L 185.066,-63.7921 L 185.43,-64.1563 L 185.83,-64.4804
 L 186.172,-64.7024 L 186.172,-74 L 186.228,-74.5302 L 186.393,-75.0372 L 186.659,-75.4988 L 187.016,-75.895
 L 187.447,-76.2084 L 187.934,-76.4252 L 188.456,-76.536 L 188.989,-76.536 L 189.51,-76.4252 L 189.997,-76.2084
 L 190.428,-75.895 L 190.785,-75.4988 L 191.052,-75.0372 L 191.216,-74.5302 L 191.272,-74 L 191.272,-64.7024
 L 191.614,-64.4804 L 192.014,-64.1563 L 192.378,-63.7921 L 192.703,-63.3919 L 192.983,-62.96 L 193.217,-62.5011
 L 193.401,-62.0204 L 193.535,-61.5229 L 193.615,-61.0143 L 193.642,-60.5 L 193.615,-59.9857 L 193.535,-59.4771
 L 193.401,-58.9796 L 193.217,-58.4989 L 192.983,-58.04 L 192.703,-57.6081 L 192.378,-57.2079 L 192.014,-56.8437
 L 191.614,-56.5196 L 191.182,-56.2392 L 190.723,-56.0054 L 190.243,-55.8208 L 189.745,-55.6875 L 189.236,-55.607
 L 188.722,-55.58 z
M 1106.77,-20.8933 L 1105.99,-21.1989 L 1105.29,-21.6596 L 1104.71,-22.2554 L 1104.26,-22.9601 L 1103.96,-23.743
 L 1103.83,-24.7491 L 1103.83,-58 L 1103.92,-58.8316 L 1104.18,-59.627 L 1104.6,-60.3511 L 1105.16,-60.9726
 L 1105.83,-61.4641 L 1106.6,-61.8042 L 1107.83,-62 L 1196.45,-62 L 1197.28,-61.9126 L 1198.08,-61.6542
 L 1198.8,-61.2361 L 1199.42,-60.6765 L 1199.91,-60 L 1200.25,-59.2361 L 1200.43,-58.4181 L 1200.43,-57.5819
 L 1200.25,-56.7639 L 1199.91,-56 L 1199.42,-55.3235 L 1198.8,-54.7639 L 1197.85,-54.255 L 1109.24,-21.0041
 L 1108.43,-20.7937 L 1107.59,-20.7563 z
M 925.547,-20.8933 L 924.768,-21.1989 L 924.07,-21.6596 L 923.484,-22.2554 L 923.033,-22.9601 L 922.74,-23.743
 L 922.611,-24.7491 L 922.611,-58 L 922.699,-58.8316 L 922.957,-59.627 L 923.375,-60.3511 L 923.935,-60.9726
 L 924.611,-61.4641 L 925.375,-61.8042 L 926.611,-62 L 1015.23,-62 L 1016.06,-61.9126 L 1016.85,-61.6542
 L 1017.58,-61.2361 L 1018.2,-60.6765 L 1018.69,-60 L 1019.03,-59.2361 L 1019.2,-58.4181 L 1019.2,-57.5819
 L 1019.03,-56.7639 L 1018.69,-56 L 1018.2,-55.3235 L 1017.58,-54.7639 L 1016.63,-54.255 L 928.016,-21.0041
 L 927.207,-20.7937 L 926.372,-20.7563 z
M 822.404,-47.7817 L 821.595,-47.9921 L 804.904,-54.255 L 803.958,-54.7639 L 803.337,-55.3235 L 802.845,-56
 L 802.505,-56.7639 L 802.331,-57.5819 L 802.331,-58.4181 L 802.505,-59.2361 L 802.845,-60 L 803.337,-60.6765
 L 803.958,-61.2361 L 804.682,-61.6542 L 805.477,-61.9126 L 806.309,-62 L 839.691,-62 L 840.755,-61.8558
 L 841.534,-61.5502 L 842.232,-61.0895 L 842.818,-60.4937 L 843.268,-59.789 L 843.562,-59.0061 L 843.687,-58.1792
 L 843.637,-57.3445 L 843.414,-56.5384 L 843.029,-55.7962 L 842.498,-55.1503 L 841.844,-54.629 L 841.096,-54.255
 L 824.405,-47.9921 L 823.239,-47.7443 z
M 718.793,-20.7937 L 717.984,-21.0041 L 629.369,-54.255 L 628.423,-54.7639 L 627.802,-55.3235 L 627.31,-56
 L 626.97,-56.7639 L 626.796,-57.5819 L 626.796,-58.4181 L 626.97,-59.2361 L 627.31,-60 L 627.802,-60.6765
 L 628.423,-61.2361 L 629.147,-61.6542 L 629.942,-61.9126 L 630.774,-62 L 719.389,-62 L 720.625,-61.8042
 L 721.389,-61.4641 L 722.065,-60.9726 L 722.625,-60.3511 L 723.043,-59.627 L 723.301,-58.8316 L 723.389,-58
 L 723.389,-24.7491 L 723.26,-23.743 L 722.967,-22.9601 L 722.516,-22.2554 L 721.93,-21.6596 L 721.232,-21.1989
 L 720.453,-20.8933 L 719.628,-20.7563 z
M 537.571,-20.7937 L 536.761,-21.0041 L 448.147,-54.255 L 447.201,-54.7639 L 446.579,-55.3235 L 446.088,-56
 L 445.748,-56.7639 L 445.574,-57.5819 L 445.574,-58.4181 L 445.748,-59.2361 L 446.088,-60 L 446.579,-60.6765
 L 447.201,-61.2361 L 447.925,-61.6542 L 448.72,-61.9126 L 449.552,-62 L 538.167,-62 L 539.403,-61.8042
 L 540.167,-61.4641 L 540.843,-60.9726 L 541.403,-60.3511 L 541.821,-59.627 L 542.079,-58.8316 L 542.167,-58
 L 542.167,-24.7491 L 542.038,-23.743 L 541.744,-22.9601 L 541.294,-22.2554 L 540.707,-21.6596 L 540.009,-21.1989
 L 539.231,-20.8933 L 538.406,-20.7563 z
M 356.349,-20.7937 L 355.539,-21.0041 L 266.924,-54.255 L 265.979,-54.7639 L 265.357,-55.3235 L 264.866,-56
 L 264.525,-56.7639 L 264.352,-57.5819 L 264.352,-58.4181 L 264.525,-59.2361 L 264.866,-60 L 265.357,-60.6765
 L 265.979,-61.2361 L 266.703,-61.6542 L 267.498,-61.9126 L 268.33,-62 L 356.944,-62 L 358.18,-61.8042
 L 358.944,-61.4641 L 359.621,-60.9726 L 360.18,-60.3511 L 360.599,-59.627 L 360.857,-58.8316 L 360.944,-58
 L 360.944,-24.7491 L 360.816,-23.743 L 360.522,-22.9601 L 360.072,-22.2554 L 359.485,-21.6596 L 358.787,-21.1989
 L 358.009,-20.8933 L 357.184,-20.7563 z
M 1469.21,-20.8933 L 1468.43,-21.1989 L 1467.74,-21.6596 L 1467.15,-22.2554 L 1466.7,-22.9601 L 1466.41,-23.743
 L 1466.28,-24.7491 L 1466.28,-58 L 1466.37,-58.8316 L 1466.62,-59.627 L 1467.04,-60.3511 L 1467.6,-60.9726
 L 1468.28,-61.4641 L 1469.04,-61.8042 L 1470.28,-62 L 1558.89,-62 L 1559.72,-61.9126 L 1560.52,-61.6542
 L 1561.24,-61.2361 L 1561.87,-60.6765 L 1562.36,-60 L 1562.7,-59.2361 L 1562.87,-58.4181 L 1562.87,-57.5819
 L 1562.7,-56.7639 L 1562.36,-56 L 1561.87,-55.3235 L 1561.24,-54.7639 L 1560.3,-54.255 L 1471.68,-21.0041
 L 1470.87,-20.7937 L 1470.04,-20.7563 z
M 175.126,-20.7937 L 174.317,-21.0041 L 85.7022,-54.255 L 84.7563,-54.7639 L 84.1349,-55.3235 L 83.6434,-56
 L 83.3032,-56.7639 L 83.1294,-57.5819 L 83.1294,-58.4181 L 83.3032,-59.2361 L 83.6434,-60 L 84.1349,-60.6765
 L 84.7563,-61.2361 L 85.4805,-61.6542 L 86.2758,-61.9126 L 87.1075,-62 L 175.722,-62 L 176.958,-61.8042
 L 177.722,-61.4641 L 178.399,-60.9726 L 178.958,-60.3511 L 179.376,-59.627 L 179.635,-58.8316 L 179.722,-58
 L 179.722,-24.7491 L 179.594,-23.743 L 179.3,-22.9601 L 178.85,-22.2554 L 178.263,-21.6596 L 177.565,-21.1989
 L 176.787,-20.8933 L 175.962,-20.7563 z
M 1287.99,-20.8933 L 1287.21,-21.1989 L 1286.51,-21.6596 L 1285.93,-22.2554 L 1285.48,-22.9601 L 1285.18,-23.743
 L 1285.06,-24.7491 L 1285.06,-58 L 1285.14,-58.8316 L 1285.4,-59.627 L 1285.82,-60.3511 L 1286.38,-60.9726
 L 1287.06,-61.4641 L 1287.82,-61.8042 L 1289.06,-62 L 1377.67,-62 L 1378.5,-61.9126 L 1379.3,-61.6542
 L 1380.02,-61.2361 L 1380.64,-60.6765 L 1381.13,-60 L 1381.47,-59.2361 L 1381.65,-58.4181 L 1381.65,-57.5819
 L 1381.47,-56.7639 L 1381.13,-56 L 1380.64,-55.3235 L 1380.02,-54.7639 L 1379.08,-54.255 L 1290.46,-21.0041
 L 1289.65,-20.7937 L 1288.82,-20.7563 z
M 744.971,-18.637 L 744.153,-18.8109 L 743.389,-19.151 L 742.712,-19.6425 L 742.153,-20.2639 L 741.735,-20.9881
 L 741.476,-21.7834 L 741.389,-22.6151 L 741.389,-57.3849 L 741.517,-58.391 L 741.811,-59.1739 L 742.261,-59.8787
 L 742.848,-60.4744 L 743.546,-60.9351 L 744.324,-61.2407 L 745.149,-61.3777 L 745.985,-61.3403 L 746.794,-61.13
 L 793.126,-43.745 L 793.563,-43.5502 L 794.261,-43.0895 L 794.848,-42.4937 L 795.298,-41.789 L 795.592,-41.0061
 L 795.716,-40.1792 L 795.666,-39.3445 L 795.444,-38.5384 L 795.058,-37.7962 L 794.527,-37.1503 L 793.873,-36.629
 L 793.126,-36.255 L 746.794,-18.87 L 745.807,-18.637 z
M 900.015,-18.6597 L 899.206,-18.87 L 852.874,-36.255 L 852.437,-36.4498 L 851.739,-36.9105 L 851.152,-37.5063
 L 850.702,-38.211 L 850.408,-38.9939 L 850.284,-39.8208 L 850.334,-40.6555 L 850.556,-41.4616 L 850.942,-42.2038
 L 851.473,-42.8497 L 852.127,-43.371 L 852.874,-43.745 L 899.206,-61.13 L 900.193,-61.363 L 901.029,-61.363
 L 901.847,-61.1892 L 902.611,-60.849 L 903.288,-60.3575 L 903.847,-59.7361 L 904.265,-59.0119 L 904.524,-58.2166
 L 904.611,-57.3849 L 904.611,-22.6151 L 904.482,-21.609 L 904.189,-20.826 L 903.739,-20.1213 L 903.152,-19.5256
 L 902.454,-19.0648 L 901.676,-18.7593 L 900.851,-18.6222 z
M 201.722,-18 L 200.486,-18.1958 L 199.722,-18.5359 L 199.046,-19.0274 L 198.486,-19.6489 L 198.068,-20.373
 L 197.81,-21.1684 L 197.722,-22 L 197.722,-55.2509 L 197.851,-56.257 L 198.145,-57.0399 L 198.595,-57.7446
 L 199.182,-58.3404 L 199.879,-58.8011 L 200.658,-59.1067 L 201.483,-59.2437 L 202.318,-59.2063 L 203.127,-58.9959
 L 291.742,-25.745 L 292.688,-25.2361 L 293.31,-24.6765 L 293.801,-24 L 294.141,-23.2361 L 294.315,-22.4181
 L 294.315,-21.5819 L 294.141,-20.7639 L 293.801,-20 L 293.31,-19.3235 L 292.688,-18.7639 L 291.964,-18.3458
 L 291.169,-18.0874 L 290.337,-18 z
M 382.944,-18 L 381.708,-18.1958 L 380.944,-18.5359 L 380.268,-19.0274 L 379.708,-19.6489 L 379.29,-20.373
 L 379.032,-21.1684 L 378.944,-22 L 378.944,-55.2509 L 379.073,-56.257 L 379.367,-57.0399 L 379.817,-57.7446
 L 380.404,-58.3404 L 381.102,-58.8011 L 381.88,-59.1067 L 382.705,-59.2437 L 383.54,-59.2063 L 384.35,-58.9959
 L 472.964,-25.745 L 473.91,-25.2361 L 474.532,-24.6765 L 475.023,-24 L 475.363,-23.2361 L 475.537,-22.4181
 L 475.537,-21.5819 L 475.363,-20.7639 L 475.023,-20 L 474.532,-19.3235 L 473.91,-18.7639 L 473.186,-18.3458
 L 472.391,-18.0874 L 471.559,-18 z
M 564.167,-18 L 562.931,-18.1958 L 562.167,-18.5359 L 561.49,-19.0274 L 560.931,-19.6489 L 560.512,-20.373
 L 560.254,-21.1684 L 560.167,-22 L 560.167,-55.2509 L 560.295,-56.257 L 560.589,-57.0399 L 561.039,-57.7446
 L 561.626,-58.3404 L 562.324,-58.8011 L 563.102,-59.1067 L 563.927,-59.2437 L 564.763,-59.2063 L 565.572,-58.9959
 L 654.187,-25.745 L 655.133,-25.2361 L 655.754,-24.6765 L 656.245,-24 L 656.586,-23.2361 L 656.759,-22.4181
 L 656.759,-21.5819 L 656.586,-20.7639 L 656.245,-20 L 655.754,-19.3235 L 655.133,-18.7639 L 654.408,-18.3458
 L 653.613,-18.0874 L 652.781,-18 z
M 993.219,-18 L 992.387,-18.0874 L 991.592,-18.3458 L 990.867,-18.7639 L 990.246,-19.3235 L 989.755,-20
 L 989.414,-20.7639 L 989.241,-21.5819 L 989.241,-22.4181 L 989.414,-23.2361 L 989.755,-24 L 990.246,-24.6765
 L 990.867,-25.2361 L 991.813,-25.745 L 1080.43,-58.9959 L 1081.24,-59.2063 L 1082.07,-59.2437 L 1082.9,-59.1067
 L 1083.68,-58.8011 L 1084.37,-58.3404 L 1084.96,-57.7446 L 1085.41,-57.0399 L 1085.7,-56.257 L 1085.83,-55.2509
 L 1085.83,-22 L 1085.75,-21.1684 L 1085.49,-20.373 L 1085.07,-19.6489 L 1084.51,-19.0274 L 1083.83,-18.5359
 L 1083.07,-18.1958 L 1081.83,-18 z
M 1174.44,-18 L 1173.61,-18.0874 L 1172.81,-18.3458 L 1172.09,-18.7639 L 1171.47,-19.3235 L 1170.98,-20
 L 1170.64,-20.7639 L 1170.46,-21.5819 L 1170.46,-22.4181 L 1170.64,-23.2361 L 1170.98,-24 L 1171.47,-24.6765
 L 1172.09,-25.2361 L 1173.04,-25.745 L 1261.65,-58.9959 L 1262.46,-59.2063 L 1263.3,-59.2437 L 1264.12,-59.1067
 L 1264.9,-58.8011 L 1265.6,-58.3404 L 1266.18,-57.7446 L 1266.63,-57.0399 L 1266.93,-56.257 L 1267.06,-55.2509
 L 1267.06,-22 L 1266.97,-21.1684 L 1266.71,-20.373 L 1266.29,-19.6489 L 1265.73,-19.0274 L 1265.06,-18.5359
 L 1264.29,-18.1958 L 1263.06,-18 z
M 1355.66,-18 L 1354.83,-18.0874 L 1354.04,-18.3458 L 1353.31,-18.7639 L 1352.69,-19.3235 L 1352.2,-20
 L 1351.86,-20.7639 L 1351.68,-21.5819 L 1351.68,-22.4181 L 1351.86,-23.2361 L 1352.2,-24 L 1352.69,-24.6765
 L 1353.31,-25.2361 L 1354.26,-25.745 L 1442.87,-58.9959 L 1443.68,-59.2063 L 1444.52,-59.2437 L 1445.34,-59.1067
 L 1446.12,-58.8011 L 1446.82,-58.3404 L 1447.41,-57.7446 L 1447.86,-57.0399 L 1448.15,-56.257 L 1448.28,-55.2509
 L 1448.28,-22 L 1448.19,-21.1684 L 1447.93,-20.373 L 1447.51,-19.6489 L 1446.95,-19.0274 L 1446.28,-18.5359
 L 1445.51,-18.1958 L 1444.28,-18 z
M 22,-18 L 20.7639,-18.1958 L 20,-18.5359 L 19.3235,-19.0274 L 18.7639,-19.6489 L 18.3458,-20.373
 L 18.0874,-21.1684 L 18,-22 L 18,-54.688 L 18.1286,-55.6941 L 18.4224,-56.4771 L 18.8725,-57.1818
 L 19.4593,-57.7775 L 20.1572,-58.2383 L 20.9356,-58.5438 L 21.7605,-58.6809 L 22.5959,-58.6434 L 23.4052,-58.4331
 L 110.52,-25.745 L 111.466,-25.2361 L 112.087,-24.6765 L 112.579,-24 L 112.919,-23.2361 L 113.093,-22.4181
 L 113.093,-21.5819 L 112.919,-20.7639 L 112.579,-20 L 112.087,-19.3235 L 111.466,-18.7639 L 110.742,-18.3458
 L 109.946,-18.0874 L 109.115,-18 z
M 1536.89,-18 L 1536.05,-18.0874 L 1535.26,-18.3458 L 1534.53,-18.7639 L 1533.91,-19.3235 L 1533.42,-20
 L 1533.08,-20.7639 L 1532.91,-21.5819 L 1532.91,-22.4181 L 1533.08,-23.2361 L 1533.42,-24 L 1533.91,-24.6765
 L 1534.53,-25.2361 L 1535.48,-25.745 L 1622.59,-58.4331 L 1623.4,-58.6434 L 1624.24,-58.6809 L 1625.06,-58.5438
 L 1625.84,-58.2383 L 1626.54,-57.7775 L 1627.13,-57.1818 L 1627.58,-56.4771 L 1627.87,-55.6941 L 1628,-54.688
 L 1628,-22 L 1627.91,-21.1684 L 1627.65,-20.373 L 1627.24,-19.6489 L 1626.68,-19.0274 L 1626,-18.5359
 L 1625.24,-18.1958 L 1624,-18 z
M 806.309,-18 L 805.245,-18.1442 L 804.466,-18.4498 L 803.768,-18.9105 L 803.182,-19.5063 L 802.731,-20.211
 L 802.438,-20.9939 L 802.313,-21.8208 L 802.363,-22.6555 L 802.586,-23.4616 L 802.971,-24.2038 L 803.502,-24.8497
 L 804.156,-25.371 L 804.904,-25.745 L 821.595,-32.0079 L 822.76,-32.2557 L 823.596,-32.2183 L 824.405,-32.0079
 L 841.096,-25.745 L 842.042,-25.2361 L 842.663,-24.6765 L 843.155,-24 L 843.495,-23.2361 L 843.669,-22.4181
 L 843.669,-21.5819 L 843.495,-20.7639 L 843.155,-20 L 842.663,-19.3235 L 842.042,-18.7639 L 841.318,-18.3458
 L 840.522,-18.0874 L 839.691,-18 z
" stroke="black" fill="lightgray" stroke-width="0.5"/>
</svg>
