<?xml version="1.0" standalone="no"?>
<!DOCTYPE svg PUBLIC "-//W3C//DTD SVG 1.1//EN" "http://www.w3.org/Graphics/SVG/1.1/DTD/svg11.dtd">
<svg width="1198mm" height="80mm" viewBox="0 -80 1198 80" xmlns="http://www.w3.org/2000/svg" version="1.1">
<title>OpenSCAD Model</title>
<path d="
M 1198,-80 L 0,-80 L 0,-0 L 4.95,-0 L 4.95,-6 L 5.00572,-6.53017
 L 5.17046,-7.03717 L 5.437,-7.49884 L 5.79372,-7.895 L 6.22499,-8.20836 L 6.71201,-8.42519 L 7.23344,-8.53603
 L 7.76654,-8.53603 L 8.28798,-8.42519 L 8.77499,-8.20836 L 9.20627,-7.895 L 9.56299,-7.49884 L 9.82953,-7.03717
 L 9.99426,-6.53017 L 10.05,-6 L 10.05,-0 L 202.117,-0 L 202.117,-6 L 202.172,-6.53017
 L 202.337,-7.03717 L 202.604,-7.49884 L 202.96,-7.895 L 203.392,-8.20836 L 203.879,-8.42519 L 204.4,-8.53603
 L 204.933,-8.53603 L 205.455,-8.42519 L 205.942,-8.20836 L 206.373,-7.895 L 206.73,-7.49884 L 206.996,-7.03717
 L 207.161,-6.53017 L 207.217,-6 L 207.217,-0 L 399.283,-0 L 399.283,-6 L 399.339,-6.53017
 L 399.504,-7.03717 L 399.77,-7.49884 L 400.127,-7.895 L 400.558,-8.20836 L 401.045,-8.42519 L 401.567,-8.53603
 L 402.1,-8.53603 L 402.621,-8.42519 L 403.108,-8.20836 L 403.54,-7.895 L 403.896,-7.49884 L 404.163,-7.03717
 L 404.328,-6.53017 L 404.383,-6 L 404.383,-0 L 596.45,-0 L 596.45,-6 L 596.506,-6.53017
 L 596.67,-7.03717 L 596.937,-7.49884 L 597.294,-7.895 L 597.725,-8.20836 L 598.212,-8.42519 L 598.733,-8.53603
 L 599.267,-8.53603 L 599.788,-8.42519 L 600.275,-8.20836 L 600.706,-7.895 L 601.063,-7.49884 L 601.33,-7.03717
 L 601.494,-6.53017 L 601.55,-6 L 601.55,-0 L 793.617,-0 L 793.617,-6 L 793.672,-6.53017
 L 793.837,-7.03717 L 794.104,-7.49884 L 794.46,-7.895 L 794.892,-8.20836 L 795.379,-8.42519 L 795.9,-8.53603
 L 796.433,-8.53603 L 796.955,-8.42519 L 797.442,-8.20836 L 797.873,-7.895 L 798.23,-7.49884 L 798.496,-7.03717
 L 798.661,-6.53017 L 798.717,-6 L 798.717,-0 L 990.783,-0 L 990.783,-6 L 990.839,-6.53017
 L 991.004,-7.03717 L 991.27,-7.49884 L 991.627,-7.895 L 992.058,-8.20836 L 992.545,-8.42519 L 993.067,-8.53603
 L 993.6,-8.53603 L 994.121,-8.42519 L 994.608,-8.20836 L 995.04,-7.895 L 995.396,-7.49884 L 995.663,-7.03717
 L 995.828,-6.53017 L 995.883,-6 L 995.883,-0 L 1187.95,-0 L 1187.95,-6 L 1188.01,-6.53017
 L 1188.17,-7.03717 L 1188.44,-7.49884 L 1188.79,-7.895 L 1189.22,-8.20836 L 1189.71,-8.42519 L 1190.23,-8.53603
 L 1190.77,-8.53603 L 1191.29,-8.42519 L 1191.77,-8.20836 L 1192.21,-7.895 L 1192.56,-7.49884 L 1192.83,-7.03717
 L 1192.99,-6.53017 L 1193.05,-6 L 1193.05,-0 L 1198,-0 z
M 6.98573,-55.607 L 6.47708,-55.6875 L 5.97964,-55.8208 L 5.49887,-56.0054 L 5.04001,-56.2392 L 4.60811,-56.5196
 L 4.20789,-56.8437 L 3.84373,-57.2079 L 3.51964,-57.6081 L 3.23917,-58.04 L 3.00537,-58.4989 L 2.82082,-58.9796
 L 2.68752,-59.4771 L 2.60696,-59.9857 L 2.58,-60.5 L 2.60696,-61.0143 L 2.68752,-61.5229 L 2.82082,-62.0204
 L 3.00537,-62.5011 L 3.23917,-62.96 L 3.51964,-63.3919 L 3.84373,-63.7921 L 4.20789,-64.1563 L 4.60811,-64.4804
 L 4.95001,-64.7024 L 4.95001,-74 L 5.00574,-74.5302 L 5.17047,-75.0372 L 5.43701,-75.4988 L 5.79373,-75.895
 L 6.22501,-76.2084 L 6.71202,-76.4252 L 7.23346,-76.536 L 7.76654,-76.536 L 8.28798,-76.4252 L 8.77499,-76.2084
 L 9.20627,-75.895 L 9.56299,-75.4988 L 9.82953,-75.0372 L 9.99426,-74.5302 L 10.05,-74 L 10.05,-64.7024
 L 10.3919,-64.4804 L 10.7921,-64.1563 L 11.1563,-63.7921 L 11.4804,-63.3919 L 11.7608,-62.96 L 11.9946,-62.5011
 L 12.1792,-62.0204 L 12.3125,-61.5229 L 12.393,-61.0143 L 12.42,-60.5 L 12.393,-59.9857 L 12.3125,-59.4771
 L 12.1792,-58.9796 L 11.9946,-58.4989 L 11.7608,-58.04 L 11.4804,-57.6081 L 11.1563,-57.2079 L 10.7921,-56.8437
 L 10.3919,-56.5196 L 9.95999,-56.2392 L 9.50113,-56.0054 L 9.02036,-55.8208 L 8.52292,-55.6875 L 8.01427,-55.607
 L 7.5,-55.58 z
M 204.152,-55.607 L 203.644,-55.6875 L 203.146,-55.8208 L 202.666,-56.0054 L 202.207,-56.2392 L 201.775,-56.5196
 L 201.375,-56.8437 L 201.01,-57.2079 L 200.686,-57.6081 L 200.406,-58.04 L 200.172,-58.4989 L 199.987,-58.9796
 L 199.854,-59.4771 L 199.774,-59.9857 L 199.747,-60.5 L 199.774,-61.0143 L 199.854,-61.5229 L 199.987,-62.0204
 L 200.172,-62.5011 L 200.406,-62.96 L 200.686,-63.3919 L 201.01,-63.7921 L 201.375,-64.1563 L 201.775,-64.4804
 L 202.117,-64.7024 L 202.117,-74 L 202.172,-74.5302 L 202.337,-75.0372 L 202.604,-75.4988 L 202.96,-75.895
 L 203.392,-76.2084 L 203.879,-76.4252 L 204.4,-76.536 L 204.933,-76.536 L 205.455,-76.4252 L 205.942,-76.2084
 L 206.373,-75.895 L 206.73,-75.4988 L 206.996,-75.0372 L 207.161,-74.5302 L 207.217,-74 L 207.217,-64.7024
 L 207.559,-64.4804 L 207.959,-64.1563 L 208.323,-63.7921 L 208.647,-63.3919 L 208.927,-62.96 L 209.161,-62.5011
 L 209.346,-62.0204 L 209.479,-61.5229 L 209.56,-61.0143 L 209.587,-60.5 L 209.56,-59.9857 L 209.479,-59.4771
 L 209.346,-58.9796 L 209.161,-58.4989 L 208.927,-58.04 L 208.647,-57.6081 L 208.323,-57.2079 L 207.959,-56.8437
 L 207.559,-56.5196 L 207.127,-56.2392 L 206.668,-56.0054 L 206.187,-55.8208 L 205.69,-55.6875 L 205.181,-55.607
 L 204.667,-55.58 z
M 401.319,-55.607 L 400.81,-55.6875 L 400.313,-55.8208 L 399.832,-56.0054 L 399.373,-56.2392 L 398.941,-56.5196
 L 398.541,-56.8437 L 398.177,-57.2079 L 397.853,-57.6081 L 397.572,-58.04 L 397.339,-58.4989 L 397.154,-58.9796
 L 397.021,-59.4771 L 396.94,-59.9857 L 396.913,-60.5 L 396.94,-61.0143 L 397.021,-61.5229 L 397.154,-62.0204
 L 397.339,-62.5011 L 397.572,-62.96 L 397.853,-63.3919 L 398.177,-63.7921 L 398.541,-64.1563 L 398.941,-64.4804
 L 399.283,-64.7024 L 399.283,-74 L 399.339,-74.5302 L 399.504,-75.0372 L 399.77,-75.4988 L 400.127,-75.895
 L 400.558,-76.2084 L 401.045,-76.4252 L 401.567,-76.536 L 402.1,-76.536 L 402.621,-76.4252 L 403.108,-76.2084
 L 403.54,-75.895 L 403.896,-75.4988 L 404.163,-75.0372 L 404.328,-74.5302 L 404.383,-74 L 404.383,-64.7024
 L 404.725,-64.4804 L 405.125,-64.1563 L 405.49,-63.7921 L 405.814,-63.3919 L 406.094,-62.96 L 406.328,-62.5011
 L 406.513,-62.0204 L 406.646,-61.5229 L 406.726,-61.0143 L 406.753,-60.5 L 406.726,-59.9857 L 406.646,-59.4771
 L 406.513,-58.9796 L 406.328,-58.4989 L 406.094,-58.04 L 405.814,-57.6081 L 405.49,-57.2079 L 405.125,-56.8437
 L 404.725,-56.5196 L 404.293,-56.2392 L 403.834,-56.0054 L 403.354,-55.8208 L 402.856,-55.6875 L 402.348,-55.607
 L 401.833,-55.58 z
M 598.486,-55.607 L 597.977,-55.6875 L 597.48,-55.8208 L 596.999,-56.0054 L 596.54,-56.2392 L 596.108,-56.5196
 L 595.708,-56.8437 L 595.344,-57.2079 L 595.02,-57.6081 L 594.739,-58.04 L 594.505,-58.4989 L 594.321,-58.9796
 L 594.188,-59.4771 L 594.107,-59.9857 L 594.08,-60.5 L 594.107,-61.0143 L 594.188,-61.5229 L 594.321,-62.0204
 L 594.505,-62.5011 L 594.739,-62.96 L 595.02,-63.3919 L 595.344,-63.7921 L 595.708,-64.1563 L 596.108,-64.4804
 L 596.45,-64.7024 L 596.45,-74 L 596.506,-74.5302 L 596.67,-75.0372 L 596.937,-75.4988 L 597.294,-75.895
 L 597.725,-76.2084 L 598.212,-76.4252 L 598.733,-76.536 L 599.267,-76.536 L 599.788,-76.4252 L 600.275,-76.2084
 L 600.706,-75.895 L 601.063,-75.4988 L 601.33,-75.0372 L 601.494,-74.5302 L 601.55,-74 L 601.55,-64.7024
 L 601.892,-64.4804 L 602.292,-64.1563 L 602.656,-63.7921 L 602.98,-63.3919 L 603.261,-62.96 L 603.495,-62.5011
 L 603.679,-62.0204 L 603.812,-61.5229 L 603.893,-61.0143 L 603.92,-60.5 L 603.893,-59.9857 L 603.812,-59.4771
 L 603.679,-58.9796 L 603.495,-58.4989 L 603.261,-58.04 L 602.98,-57.6081 L 602.656,-57.2079 L 602.292,-56.8437
 L 601.892,-56.5196 L 601.46,-56.2392 L 601.001,-56.0054 L 600.52,-55.8208 L 600.023,-55.6875 L 599.514,-55.607
 L 599,-55.58 z
M 795.652,-55.607 L 795.144,-55.6875 L 794.646,-55.8208 L 794.166,-56.0054 L 793.707,-56.2392 L 793.275,-56.5196
 L 792.875,-56.8437 L 792.51,-57.2079 L 792.186,-57.6081 L 791.906,-58.04 L 791.672,-58.4989 L 791.487,-58.9796
 L 791.354,-59.4771 L 791.274,-59.9857 L 791.247,-60.5 L 791.274,-61.0143 L 791.354,-61.5229 L 791.487,-62.0204
 L 791.672,-62.5011 L 791.906,-62.96 L 792.186,-63.3919 L 792.51,-63.7921 L 792.875,-64.1563 L 793.275,-64.4804
 L 793.617,-64.7024 L 793.617,-74 L 793.672,-74.5302 L 793.837,-75.0372 L 794.104,-75.4988 L 794.46,-75.895
 L 794.892,-76.2084 L 795.379,-76.4252 L 795.9,-76.536 L 796.433,-76.536 L 796.955,-76.4252 L 797.442,-76.2084
 L 797.873,-75.895 L 798.23,-75.4988 L 798.496,-75.0372 L 798.661,-74.5302 L 798.717,-74 L 798.717,-64.7024
 L 799.059,-64.4804 L 799.459,-64.1563 L 799.823,-63.7921 L 800.147,-63.3919 L 800.427,-62.96 L 800.661,-62.5011
 L 800.846,-62.0204 L 800.979,-61.5229 L 801.06,-61.0143 L 801.087,-60.5 L 801.06,-59.9857 L 800.979,-59.4771
 L 800.846,-58.9796 L 800.661,-58.4989 L 800.427,-58.04 L 800.147,-57.6081 L 799.823,-57.2079 L 799.459,-56.8437
 L 799.059,-56.5196 L 798.627,-56.2392 L 798.168,-56.0054 L 797.687,-55.8208 L 797.19,-55.6875 L 796.681,-55.607
 L 796.167,-55.58 z
M 992.819,-55.607 L 992.31,-55.6875 L 991.813,-55.8208 L 991.332,-56.0054 L 990.873,-56.2392 L 990.441,-56.5196
 L 990.041,-56.8437 L 989.677,-57.2079 L 989.353,-57.6081 L 989.072,-58.04 L 988.839,-58.4989 L 988.654,-58.9796
 L 988.521,-59.4771 L 988.44,-59.9857 L 988.413,-60.5 L 988.44,-61.0143 L 988.521,-61.5229 L 988.654,-62.0204
 L 988.839,-62.5011 L 989.072,-62.96 L 989.353,-63.3919 L 989.677,-63.7921 L 990.041,-64.1563 L 990.441,-64.4804
 L 990.783,-64.7024 L 990.783,-74 L 990.839,-74.5302 L 991.004,-75.0372 L 991.27,-75.4988 L 991.627,-75.895
 L 992.058,-76.2084 L 992.545,-76.4252 L 993.067,-76.536 L 993.6,-76.536 L 994.121,-76.4252 L 994.608,-76.2084
 L 995.04,-75.895 L 995.396,-75.4988 L 995.663,-75.0372 L 995.828,-74.5302 L 995.883,-74 L 995.883,-64.7024
 L 996.225,-64.4804 L 996.625,-64.1563 L 996.99,-63.7921 L 997.314,-63.3919 L 997.594,-62.96 L 997.828,-62.5011
 L 998.013,-62.0204 L 998.146,-61.5229 L 998.226,-61.0143 L 998.253,-60.5 L 998.226,-59.9857 L 998.146,-59.4771
 L 998.013,-58.9796 L 997.828,-58.4989 L 997.594,-58.04 L 997.314,-57.6081 L 996.99,-57.2079 L 996.625,-56.8437
 L 996.225,-56.5196 L 995.793,-56.2392 L 995.334,-56.0054 L 994.854,-55.8208 L 994.356,-55.6875 L 993.848,-55.607
 L 993.333,-55.58 z
M 1189.99,-55.607 L 1189.48,-55.6875 L 1188.98,-55.8208 L 1188.5,-56.0054 L 1188.04,-56.2392 L 1187.61,-56.5196
 L 1187.21,-56.8437 L 1186.84,-57.2079 L 1186.52,-57.6081 L 1186.24,-58.04 L 1186.01,-58.4989 L 1185.82,-58.9796
 L 1185.69,-59.4771 L 1185.61,-59.9857 L 1185.58,-60.5 L 1185.61,-61.0143 L 1185.69,-61.5229 L 1185.82,-62.0204
 L 1186.01,-62.5011 L 1186.24,-62.96 L 1186.52,-63.3919 L 1186.84,-63.7921 L 1187.21,-64.1563 L 1187.61,-64.4804
 L 1187.95,-64.7024 L 1187.95,-74 L 1188.01,-74.5302 L 1188.17,-75.0372 L 1188.44,-75.4988 L 1188.79,-75.895
 L 1189.23,-76.2084 L 1189.71,-76.4252 L 1190.23,-76.536 L 1190.77,-76.536 L 1191.29,-76.4252 L 1191.77,-76.2084
 L 1192.21,-75.895 L 1192.56,-75.4988 L 1192.83,-75.0372 L 1192.99,-74.5302 L 1193.05,-74 L 1193.05,-64.7024
 L 1193.39,-64.4804 L 1193.79,-64.1563 L 1194.16,-63.7921 L 1194.48,-63.3919 L 1194.76,-62.96 L 1194.99,-62.5011
 L 1195.18,-62.0204 L 1195.31,-61.5229 L 1195.39,-61.0143 L 1195.42,-60.5 L 1195.39,-59.9857 L 1195.31,-59.4771
 L 1195.18,-58.9796 L 1194.99,-58.4989 L 1194.76,-58.04 L 1194.48,-57.6081 L 1194.16,-57.2079 L 1193.79,-56.8437
 L 1193.39,-56.5196 L 1192.96,-56.2392 L 1192.5,-56.0054 L 1192.02,-55.8208 L 1191.52,-55.6875 L 1191.01,-55.607
 L 1190.5,-55.58 z
M 1005.17,-20.4069 L 1004.4,-20.7333 L 1003.71,-21.2126 L 1003.14,-21.8239 L 1002.71,-22.5405 L 1002.44,-23.331
 L 1002.33,-24.2327 L 1002.33,-58 L 1002.42,-58.8316 L 1002.68,-59.627 L 1003.1,-60.3511 L 1003.66,-60.9726
 L 1004.33,-61.4641 L 1005.1,-61.8042 L 1006.33,-62 L 1104.24,-62 L 1105.07,-61.9126 L 1105.87,-61.6542
 L 1106.59,-61.2361 L 1107.21,-60.6765 L 1107.71,-60 L 1108.05,-59.2361 L 1108.22,-58.4181 L 1108.22,-57.5819
 L 1108.05,-56.7639 L 1107.71,-56 L 1107.21,-55.3235 L 1106.59,-54.7639 L 1105.55,-54.2186 L 1007.64,-20.4513
 L 1006.82,-20.2628 L 1005.99,-20.2478 z
M 388.344,-20.2628 L 387.529,-20.4513 L 289.621,-54.2186 L 288.574,-54.7639 L 287.952,-55.3235 L 287.461,-56
 L 287.121,-56.7639 L 286.947,-57.5819 L 286.947,-58.4181 L 287.121,-59.2361 L 287.461,-60 L 287.952,-60.6765
 L 288.574,-61.2361 L 289.298,-61.6542 L 290.093,-61.9126 L 290.925,-62 L 388.833,-62 L 390.069,-61.8042
 L 390.833,-61.4641 L 391.51,-60.9726 L 392.069,-60.3511 L 392.487,-59.627 L 392.746,-58.8316 L 392.833,-58
 L 392.833,-24.2327 L 392.73,-23.331 L 392.458,-22.5405 L 392.027,-21.8239 L 391.456,-21.2126 L 390.771,-20.7333
 L 390.001,-20.4069 L 389.18,-20.2478 z
M 191.177,-20.2628 L 190.363,-20.4513 L 92.4539,-54.2186 L 91.407,-54.7639 L 90.7855,-55.3235 L 90.294,-56
 L 89.9539,-56.7639 L 89.78,-57.5819 L 89.78,-58.4181 L 89.9539,-59.2361 L 90.294,-60 L 90.7855,-60.6765
 L 91.407,-61.2361 L 92.1311,-61.6542 L 92.9265,-61.9126 L 93.7581,-62 L 191.667,-62 L 192.903,-61.8042
 L 193.667,-61.4641 L 194.343,-60.9726 L 194.903,-60.3511 L 195.321,-59.627 L 195.579,-58.8316 L 195.667,-58
 L 195.667,-24.2327 L 195.564,-23.331 L 195.291,-22.5405 L 194.86,-21.8239 L 194.289,-21.2126 L 193.604,-20.7333
 L 192.834,-20.4069 L 192.013,-20.2478 z
M 585.511,-20.2628 L 584.696,-20.4513 L 486.787,-54.2186 L 485.74,-54.7639 L 485.119,-55.3235 L 484.627,-56
 L 484.287,-56.7639 L 484.113,-57.5819 L 484.113,-58.4181 L 484.287,-59.2361 L 484.627,-60 L 485.119,-60.6765
 L 485.74,-61.2361 L 486.464,-61.6542 L 487.26,-61.9126 L 488.091,-62 L 586,-62 L 587.236,-61.8042
 L 588,-61.4641 L 588.677,-60.9726 L 589.236,-60.3511 L 589.654,-59.627 L 589.913,-58.8316 L 590,-58
 L 590,-24.2327 L 589.897,-23.331 L 589.624,-22.5405 L 589.193,-21.8239 L 588.623,-21.2126 L 587.937,-20.7333
 L 587.168,-20.4069 L 586.347,-20.2478 z
M 610.832,-20.4069 L 610.062,-20.7333 L 609.377,-21.2126 L 608.807,-21.8239 L 608.376,-22.5405 L 608.103,-23.331
 L 608,-24.2327 L 608,-58 L 608.087,-58.8316 L 608.346,-59.627 L 608.764,-60.3511 L 609.323,-60.9726
 L 610,-61.4641 L 610.764,-61.8042 L 612,-62 L 709.909,-62 L 710.74,-61.9126 L 711.536,-61.6542
 L 712.26,-61.2361 L 712.881,-60.6765 L 713.373,-60 L 713.713,-59.2361 L 713.887,-58.4181 L 713.887,-57.5819
 L 713.713,-56.7639 L 713.373,-56 L 712.881,-55.3235 L 712.26,-54.7639 L 711.213,-54.2186 L 613.304,-20.4513
 L 612.489,-20.2628 L 611.653,-20.2478 z
M 807.999,-20.4069 L 807.229,-20.7333 L 806.544,-21.2126 L 805.973,-21.8239 L 805.542,-22.5405 L 805.27,-23.331
 L 805.167,-24.2327 L 805.167,-58 L 805.254,-58.8316 L 805.512,-59.627 L 805.931,-60.3511 L 806.49,-60.9726
 L 807.167,-61.4641 L 807.931,-61.8042 L 809.167,-62 L 907.075,-62 L 907.907,-61.9126 L 908.702,-61.6542
 L 909.426,-61.2361 L 910.048,-60.6765 L 910.539,-60 L 910.879,-59.2361 L 911.053,-58.4181 L 911.053,-57.5819
 L 910.879,-56.7639 L 910.539,-56 L 910.048,-55.3235 L 909.426,-54.7639 L 908.379,-54.2186 L 810.471,-20.4513
 L 809.656,-20.2628 L 808.82,-20.2478 z
M 217.667,-18 L 216.431,-18.1958 L 215.667,-18.5359 L 214.99,-19.0274 L 214.431,-19.6489 L 214.012,-20.373
 L 213.754,-21.1684 L 213.667,-22 L 213.667,-55.7673 L 213.77,-56.669 L 214.042,-57.4595 L 214.473,-58.1761
 L 215.044,-58.7874 L 215.729,-59.2667 L 216.499,-59.5931 L 217.32,-59.7522 L 218.156,-59.7372 L 218.971,-59.5487
 L 316.879,-25.7814 L 317.926,-25.2361 L 318.548,-24.6765 L 319.039,-24 L 319.379,-23.2361 L 319.553,-22.4181
 L 319.553,-21.5819 L 319.379,-20.7639 L 319.039,-20 L 318.548,-19.3235 L 317.926,-18.7639 L 317.202,-18.3458
 L 316.407,-18.0874 L 315.575,-18 z
M 414.833,-18 L 413.597,-18.1958 L 412.833,-18.5359 L 412.157,-19.0274 L 411.597,-19.6489 L 411.179,-20.373
 L 410.921,-21.1684 L 410.833,-22 L 410.833,-55.7673 L 410.936,-56.669 L 411.209,-57.4595 L 411.64,-58.1761
 L 412.211,-58.7874 L 412.896,-59.2667 L 413.666,-59.5931 L 414.487,-59.7522 L 415.323,-59.7372 L 416.137,-59.5487
 L 514.046,-25.7814 L 515.093,-25.2361 L 515.714,-24.6765 L 516.206,-24 L 516.546,-23.2361 L 516.72,-22.4181
 L 516.72,-21.5819 L 516.546,-20.7639 L 516.206,-20 L 515.714,-19.3235 L 515.093,-18.7639 L 514.369,-18.3458
 L 513.574,-18.0874 L 512.742,-18 z
M 685.258,-18 L 684.426,-18.0874 L 683.631,-18.3458 L 682.907,-18.7639 L 682.286,-19.3235 L 681.794,-20
 L 681.454,-20.7639 L 681.28,-21.5819 L 681.28,-22.4181 L 681.454,-23.2361 L 681.794,-24 L 682.286,-24.6765
 L 682.907,-25.2361 L 683.954,-25.7814 L 781.863,-59.5487 L 782.677,-59.7372 L 783.513,-59.7522 L 784.334,-59.5931
 L 785.104,-59.2667 L 785.789,-58.7874 L 786.36,-58.1761 L 786.791,-57.4595 L 787.064,-56.669 L 787.167,-55.7673
 L 787.167,-22 L 787.079,-21.1684 L 786.821,-20.373 L 786.403,-19.6489 L 785.843,-19.0274 L 785.167,-18.5359
 L 784.403,-18.1958 L 783.167,-18 z
M 882.425,-18 L 881.593,-18.0874 L 880.798,-18.3458 L 880.074,-18.7639 L 879.452,-19.3235 L 878.961,-20
 L 878.621,-20.7639 L 878.447,-21.5819 L 878.447,-22.4181 L 878.621,-23.2361 L 878.961,-24 L 879.452,-24.6765
 L 880.074,-25.2361 L 881.121,-25.7814 L 979.029,-59.5487 L 979.844,-59.7372 L 980.68,-59.7522 L 981.501,-59.5931
 L 982.271,-59.2667 L 982.956,-58.7874 L 983.527,-58.1761 L 983.958,-57.4595 L 984.23,-56.669 L 984.333,-55.7673
 L 984.333,-22 L 984.246,-21.1684 L 983.988,-20.373 L 983.569,-19.6489 L 983.01,-19.0274 L 982.333,-18.5359
 L 981.569,-18.1958 L 980.333,-18 z
M 1079.59,-18 L 1078.76,-18.0874 L 1077.96,-18.3458 L 1077.24,-18.7639 L 1076.62,-19.3235 L 1076.13,-20
 L 1075.79,-20.7639 L 1075.61,-21.5819 L 1075.61,-22.4181 L 1075.79,-23.2361 L 1076.13,-24 L 1076.62,-24.6765
 L 1077.24,-25.2361 L 1078.29,-25.7814 L 1174.7,-59.0314 L 1175.51,-59.2199 L 1176.35,-59.2349 L 1177.17,-59.0757
 L 1177.94,-58.7494 L 1178.62,-58.2701 L 1179.19,-57.6588 L 1179.62,-56.9422 L 1179.9,-56.1517 L 1180,-55.2499
 L 1180,-22 L 1179.91,-21.1684 L 1179.65,-20.373 L 1179.24,-19.6489 L 1178.68,-19.0274 L 1178,-18.5359
 L 1177.24,-18.1958 L 1176,-18 z
M 22,-18 L 20.7639,-18.1958 L 20,-18.5359 L 19.3235,-19.0274 L 18.7639,-19.6489 L 18.3458,-20.373
 L 18.0874,-21.1684 L 18,-22 L 18,-55.2499 L 18.103,-56.1517 L 18.3756,-56.9422 L 18.8067,-57.6588
 L 19.3773,-58.2701 L 20.0625,-58.7494 L 20.8324,-59.0757 L 21.6534,-59.2349 L 22.4895,-59.2199 L 23.3042,-59.0314
 L 119.713,-25.7814 L 120.76,-25.2361 L 121.381,-24.6765 L 121.873,-24 L 122.213,-23.2361 L 122.387,-22.4181
 L 122.387,-21.5819 L 122.213,-20.7639 L 121.873,-20 L 121.381,-19.3235 L 120.76,-18.7639 L 120.035,-18.3458
 L 119.24,-18.0874 L 118.409,-18 z
" stroke="black" fill="lightgray" stroke-width="0.5"/>
</svg>
