<?xml version="1.0" standalone="no"?>
<!DOCTYPE svg PUBLIC "-//W3C//DTD SVG 1.1//EN" "http://www.w3.org/Graphics/SVG/1.1/DTD/svg11.dtd">
<svg width="1636mm" height="80mm" viewBox="0 -80 1636 80" xmlns="http://www.w3.org/2000/svg" version="1.1">
<title>OpenSCAD Model</title>
<path d="
M 1636,-80 L 0,-80 L 0,-0 L 4.95,-0 L 4.95,-6 L 5.00572,-6.53017
 L 5.17046,-7.03717 L 5.437,-7.49884 L 5.79372,-7.895 L 6.22499,-8.20836 L 6.71201,-8.42519 L 7.23344,-8.53603
 L 7.76654,-8.53603 L 8.28798,-8.42519 L 8.77499,-8.20836 L 9.20627,-7.895 L 9.56299,-7.49884 L 9.82953,-7.03717
 L 9.99426,-6.53017 L 10.05,-6 L 10.05,-0 L 185.061,-0 L 185.061,-6 L 185.117,-6.53017
 L 185.282,-7.03717 L 185.548,-7.49884 L 185.905,-7.895 L 186.336,-8.20836 L 186.823,-8.42519 L 187.345,-8.53603
 L 187.878,-8.53603 L 188.399,-8.42519 L 188.886,-8.20836 L 189.317,-7.895 L 189.674,-7.49884 L 189.941,-7.03717
 L 190.105,-6.53017 L 190.161,-6 L 190.161,-0 L 365.172,-0 L 365.172,-6 L 365.228,-6.53017
 L 365.393,-7.03717 L 365.659,-7.49884 L 366.016,-7.895 L 366.447,-8.20836 L 366.934,-8.42519 L 367.456,-8.53603
 L 367.989,-8.53603 L 368.51,-8.42519 L 368.997,-8.20836 L 369.428,-7.895 L 369.785,-7.49884 L 370.052,-7.03717
 L 370.216,-6.53017 L 370.272,-6 L 370.272,-0 L 545.283,-0 L 545.283,-6 L 545.339,-6.53017
 L 545.504,-7.03717 L 545.77,-7.49884 L 546.127,-7.895 L 546.558,-8.20836 L 547.045,-8.42519 L 547.567,-8.53603
 L 548.1,-8.53603 L 548.621,-8.42519 L 549.108,-8.20836 L 549.54,-7.895 L 549.896,-7.49884 L 550.163,-7.03717
 L 550.328,-6.53017 L 550.383,-6 L 550.383,-0 L 725.394,-0 L 725.394,-6 L 725.45,-6.53017
 L 725.615,-7.03717 L 725.881,-7.49884 L 726.238,-7.895 L 726.669,-8.20836 L 727.156,-8.42519 L 727.678,-8.53603
 L 728.211,-8.53603 L 728.732,-8.42519 L 729.219,-8.20836 L 729.651,-7.895 L 730.007,-7.49884 L 730.274,-7.03717
 L 730.439,-6.53017 L 730.494,-6 L 730.494,-0 L 905.506,-0 L 905.506,-6 L 905.561,-6.53017
 L 905.726,-7.03717 L 905.993,-7.49884 L 906.349,-7.895 L 906.781,-8.20836 L 907.268,-8.42519 L 907.789,-8.53603
 L 908.322,-8.53603 L 908.844,-8.42519 L 909.331,-8.20836 L 909.762,-7.895 L 910.119,-7.49884 L 910.385,-7.03717
 L 910.55,-6.53017 L 910.606,-6 L 910.606,-0 L 1085.62,-0 L 1085.62,-6 L 1085.67,-6.53017
 L 1085.84,-7.03717 L 1086.1,-7.49884 L 1086.46,-7.895 L 1086.89,-8.20836 L 1087.38,-8.42519 L 1087.9,-8.53603
 L 1088.43,-8.53603 L 1088.95,-8.42519 L 1089.44,-8.20836 L 1089.87,-7.895 L 1090.23,-7.49884 L 1090.5,-7.03717
 L 1090.66,-6.53017 L 1090.72,-6 L 1090.72,-0 L 1265.73,-0 L 1265.73,-6 L 1265.78,-6.53017
 L 1265.95,-7.03717 L 1266.21,-7.49884 L 1266.57,-7.895 L 1267,-8.20836 L 1267.49,-8.42519 L 1268.01,-8.53603
 L 1268.54,-8.53603 L 1269.07,-8.42519 L 1269.55,-8.20836 L 1269.98,-7.895 L 1270.34,-7.49884 L 1270.61,-7.03717
 L 1270.77,-6.53017 L 1270.83,-6 L 1270.83,-0 L 1445.84,-0 L 1445.84,-6 L 1445.89,-6.53017
 L 1446.06,-7.03717 L 1446.33,-7.49884 L 1446.68,-7.895 L 1447.11,-8.20836 L 1447.6,-8.42519 L 1448.12,-8.53603
 L 1448.66,-8.53603 L 1449.18,-8.42519 L 1449.66,-8.20836 L 1450.1,-7.895 L 1450.45,-7.49884 L 1450.72,-7.03717
 L 1450.88,-6.53017 L 1450.94,-6 L 1450.94,-0 L 1625.95,-0 L 1625.95,-6 L 1626.01,-6.53017
 L 1626.17,-7.03717 L 1626.44,-7.49884 L 1626.79,-7.895 L 1627.22,-8.20836 L 1627.71,-8.42519 L 1628.23,-8.53603
 L 1628.77,-8.53603 L 1629.29,-8.42519 L 1629.77,-8.20836 L 1630.21,-7.895 L 1630.56,-7.49884 L 1630.83,-7.03717
 L 1630.99,-6.53017 L 1631.05,-6 L 1631.05,-0 L 1636,-0 z
M 6.98573,-55.607 L 6.47708,-55.6875 L 5.97964,-55.8208 L 5.49887,-56.0054 L 5.04001,-56.2392 L 4.60811,-56.5196
 L 4.20789,-56.8437 L 3.84373,-57.2079 L 3.51964,-57.6081 L 3.23917,-58.04 L 3.00537,-58.4989 L 2.82082,-58.9796
 L 2.68752,-59.4771 L 2.60696,-59.9857 L 2.58,-60.5 L 2.60696,-61.0143 L 2.68752,-61.5229 L 2.82082,-62.0204
 L 3.00537,-62.5011 L 3.23917,-62.96 L 3.51964,-63.3919 L 3.84373,-63.7921 L 4.20789,-64.1563 L 4.60811,-64.4804
 L 4.95001,-64.7024 L 4.95001,-74 L 5.00574,-74.5302 L 5.17047,-75.0372 L 5.43701,-75.4988 L 5.79373,-75.895
 L 6.22501,-76.2084 L 6.71202,-76.4252 L 7.23346,-76.536 L 7.76654,-76.536 L 8.28798,-76.4252 L 8.77499,-76.2084
 L 9.20627,-75.895 L 9.56299,-75.4988 L 9.82953,-75.0372 L 9.99426,-74.5302 L 10.05,-74 L 10.05,-64.7024
 L 10.3919,-64.4804 L 10.7921,-64.1563 L 11.1563,-63.7921 L 11.4804,-63.3919 L 11.7608,-62.96 L 11.9946,-62.5011
 L 12.1792,-62.0204 L 12.3125,-61.5229 L 12.393,-61.0143 L 12.42,-60.5 L 12.393,-59.9857 L 12.3125,-59.4771
 L 12.1792,-58.9796 L 11.9946,-58.4989 L 11.7608,-58.04 L 11.4804,-57.6081 L 11.1563,-57.2079 L 10.7921,-56.8437
 L 10.3919,-56.5196 L 9.95999,-56.2392 L 9.50113,-56.0054 L 9.02036,-55.8208 L 8.52292,-55.6875 L 8.01427,-55.607
 L 7.5,-55.58 z
M 1087.65,-55.607 L 1087.14,-55.6875 L 1086.65,-55.8208 L 1086.17,-56.0054 L 1085.71,-56.2392 L 1085.27,-56.5196
 L 1084.87,-56.8437 L 1084.51,-57.2079 L 1084.19,-57.6081 L 1083.91,-58.04 L 1083.67,-58.4989 L 1083.49,-58.9796
 L 1083.35,-59.4771 L 1083.27,-59.9857 L 1083.25,-60.5 L 1083.27,-61.0143 L 1083.35,-61.5229 L 1083.49,-62.0204
 L 1083.67,-62.5011 L 1083.91,-62.96 L 1084.19,-63.3919 L 1084.51,-63.7921 L 1084.87,-64.1563 L 1085.27,-64.4804
 L 1085.62,-64.7024 L 1085.62,-74 L 1085.67,-74.5302 L 1085.84,-75.0372 L 1086.1,-75.4988 L 1086.46,-75.895
 L 1086.89,-76.2084 L 1087.38,-76.4252 L 1087.9,-76.536 L 1088.43,-76.536 L 1088.95,-76.4252 L 1089.44,-76.2084
 L 1089.87,-75.895 L 1090.23,-75.4988 L 1090.5,-75.0372 L 1090.66,-74.5302 L 1090.72,-74 L 1090.72,-64.7024
 L 1091.06,-64.4804 L 1091.46,-64.1563 L 1091.82,-63.7921 L 1092.15,-63.3919 L 1092.43,-62.96 L 1092.66,-62.5011
 L 1092.85,-62.0204 L 1092.98,-61.5229 L 1093.06,-61.0143 L 1093.09,-60.5 L 1093.06,-59.9857 L 1092.98,-59.4771
 L 1092.85,-58.9796 L 1092.66,-58.4989 L 1092.43,-58.04 L 1092.15,-57.6081 L 1091.82,-57.2079 L 1091.46,-56.8437
 L 1091.06,-56.5196 L 1090.63,-56.2392 L 1090.17,-56.0054 L 1089.69,-55.8208 L 1089.19,-55.6875 L 1088.68,-55.607
 L 1088.17,-55.58 z
M 1267.76,-55.607 L 1267.25,-55.6875 L 1266.76,-55.8208 L 1266.28,-56.0054 L 1265.82,-56.2392 L 1265.39,-56.5196
 L 1264.99,-56.8437 L 1264.62,-57.2079 L 1264.3,-57.6081 L 1264.02,-58.04 L 1263.78,-58.4989 L 1263.6,-58.9796
 L 1263.47,-59.4771 L 1263.38,-59.9857 L 1263.36,-60.5 L 1263.38,-61.0143 L 1263.47,-61.5229 L 1263.6,-62.0204
 L 1263.78,-62.5011 L 1264.02,-62.96 L 1264.3,-63.3919 L 1264.62,-63.7921 L 1264.99,-64.1563 L 1265.39,-64.4804
 L 1265.73,-64.7024 L 1265.73,-74 L 1265.78,-74.5302 L 1265.95,-75.0372 L 1266.21,-75.4988 L 1266.57,-75.895
 L 1267,-76.2084 L 1267.49,-76.4252 L 1268.01,-76.536 L 1268.54,-76.536 L 1269.07,-76.4252 L 1269.55,-76.2084
 L 1269.98,-75.895 L 1270.34,-75.4988 L 1270.61,-75.0372 L 1270.77,-74.5302 L 1270.83,-74 L 1270.83,-64.7024
 L 1271.17,-64.4804 L 1271.57,-64.1563 L 1271.93,-63.7921 L 1272.26,-63.3919 L 1272.54,-62.96 L 1272.77,-62.5011
 L 1272.96,-62.0204 L 1273.09,-61.5229 L 1273.17,-61.0143 L 1273.2,-60.5 L 1273.17,-59.9857 L 1273.09,-59.4771
 L 1272.96,-58.9796 L 1272.77,-58.4989 L 1272.54,-58.04 L 1272.26,-57.6081 L 1271.93,-57.2079 L 1271.57,-56.8437
 L 1271.17,-56.5196 L 1270.74,-56.2392 L 1270.28,-56.0054 L 1269.8,-55.8208 L 1269.3,-55.6875 L 1268.79,-55.607
 L 1268.28,-55.58 z
M 907.541,-55.607 L 907.033,-55.6875 L 906.535,-55.8208 L 906.054,-56.0054 L 905.596,-56.2392 L 905.164,-56.5196
 L 904.763,-56.8437 L 904.399,-57.2079 L 904.075,-57.6081 L 903.795,-58.04 L 903.561,-58.4989 L 903.376,-58.9796
 L 903.243,-59.4771 L 903.163,-59.9857 L 903.136,-60.5 L 903.163,-61.0143 L 903.243,-61.5229 L 903.376,-62.0204
 L 903.561,-62.5011 L 903.795,-62.96 L 904.075,-63.3919 L 904.399,-63.7921 L 904.763,-64.1563 L 905.164,-64.4804
 L 905.506,-64.7024 L 905.506,-74 L 905.561,-74.5302 L 905.726,-75.0372 L 905.993,-75.4988 L 906.349,-75.895
 L 906.781,-76.2084 L 907.268,-76.4252 L 907.789,-76.536 L 908.322,-76.536 L 908.844,-76.4252 L 909.331,-76.2084
 L 909.762,-75.895 L 910.119,-75.4988 L 910.385,-75.0372 L 910.55,-74.5302 L 910.606,-74 L 910.606,-64.7024
 L 910.947,-64.4804 L 911.348,-64.1563 L 911.712,-63.7921 L 912.036,-63.3919 L 912.316,-62.96 L 912.55,-62.5011
 L 912.735,-62.0204 L 912.868,-61.5229 L 912.949,-61.0143 L 912.976,-60.5 L 912.949,-59.9857 L 912.868,-59.4771
 L 912.735,-58.9796 L 912.55,-58.4989 L 912.316,-58.04 L 912.036,-57.6081 L 911.712,-57.2079 L 911.348,-56.8437
 L 910.947,-56.5196 L 910.516,-56.2392 L 910.057,-56.0054 L 909.576,-55.8208 L 909.078,-55.6875 L 908.57,-55.607
 L 908.056,-55.58 z
M 727.43,-55.607 L 726.922,-55.6875 L 726.424,-55.8208 L 725.943,-56.0054 L 725.484,-56.2392 L 725.053,-56.5196
 L 724.652,-56.8437 L 724.288,-57.2079 L 723.964,-57.6081 L 723.684,-58.04 L 723.45,-58.4989 L 723.265,-58.9796
 L 723.132,-59.4771 L 723.051,-59.9857 L 723.024,-60.5 L 723.051,-61.0143 L 723.132,-61.5229 L 723.265,-62.0204
 L 723.45,-62.5011 L 723.684,-62.96 L 723.964,-63.3919 L 724.288,-63.7921 L 724.652,-64.1563 L 725.053,-64.4804
 L 725.394,-64.7024 L 725.394,-74 L 725.45,-74.5302 L 725.615,-75.0372 L 725.881,-75.4988 L 726.238,-75.895
 L 726.669,-76.2084 L 727.156,-76.4252 L 727.678,-76.536 L 728.211,-76.536 L 728.732,-76.4252 L 729.219,-76.2084
 L 729.651,-75.895 L 730.007,-75.4988 L 730.274,-75.0372 L 730.439,-74.5302 L 730.494,-74 L 730.494,-64.7024
 L 730.836,-64.4804 L 731.237,-64.1563 L 731.601,-63.7921 L 731.925,-63.3919 L 732.205,-62.96 L 732.439,-62.5011
 L 732.624,-62.0204 L 732.757,-61.5229 L 732.837,-61.0143 L 732.864,-60.5 L 732.837,-59.9857 L 732.757,-59.4771
 L 732.624,-58.9796 L 732.439,-58.4989 L 732.205,-58.04 L 731.925,-57.6081 L 731.601,-57.2079 L 731.237,-56.8437
 L 730.836,-56.5196 L 730.404,-56.2392 L 729.946,-56.0054 L 729.465,-55.8208 L 728.967,-55.6875 L 728.459,-55.607
 L 727.944,-55.58 z
M 1447.87,-55.607 L 1447.37,-55.6875 L 1446.87,-55.8208 L 1446.39,-56.0054 L 1445.93,-56.2392 L 1445.5,-56.5196
 L 1445.1,-56.8437 L 1444.73,-57.2079 L 1444.41,-57.6081 L 1444.13,-58.04 L 1443.89,-58.4989 L 1443.71,-58.9796
 L 1443.58,-59.4771 L 1443.5,-59.9857 L 1443.47,-60.5 L 1443.5,-61.0143 L 1443.58,-61.5229 L 1443.71,-62.0204
 L 1443.89,-62.5011 L 1444.13,-62.96 L 1444.41,-63.3919 L 1444.73,-63.7921 L 1445.1,-64.1563 L 1445.5,-64.4804
 L 1445.84,-64.7024 L 1445.84,-74 L 1445.89,-74.5302 L 1446.06,-75.0372 L 1446.33,-75.4988 L 1446.68,-75.895
 L 1447.11,-76.2084 L 1447.6,-76.4252 L 1448.12,-76.536 L 1448.66,-76.536 L 1449.18,-76.4252 L 1449.66,-76.2084
 L 1450.1,-75.895 L 1450.45,-75.4988 L 1450.72,-75.0372 L 1450.88,-74.5302 L 1450.94,-74 L 1450.94,-64.7024
 L 1451.28,-64.4804 L 1451.68,-64.1563 L 1452.05,-63.7921 L 1452.37,-63.3919 L 1452.65,-62.96 L 1452.88,-62.5011
 L 1453.07,-62.0204 L 1453.2,-61.5229 L 1453.28,-61.0143 L 1453.31,-60.5 L 1453.28,-59.9857 L 1453.2,-59.4771
 L 1453.07,-58.9796 L 1452.88,-58.4989 L 1452.65,-58.04 L 1452.37,-57.6081 L 1452.05,-57.2079 L 1451.68,-56.8437
 L 1451.28,-56.5196 L 1450.85,-56.2392 L 1450.39,-56.0054 L 1449.91,-55.8208 L 1449.41,-55.6875 L 1448.9,-55.607
 L 1448.39,-55.58 z
M 547.319,-55.607 L 546.81,-55.6875 L 546.313,-55.8208 L 545.832,-56.0054 L 545.373,-56.2392 L 544.941,-56.5196
 L 544.541,-56.8437 L 544.177,-57.2079 L 543.853,-57.6081 L 543.572,-58.04 L 543.339,-58.4989 L 543.154,-58.9796
 L 543.021,-59.4771 L 542.94,-59.9857 L 542.913,-60.5 L 542.94,-61.0143 L 543.021,-61.5229 L 543.154,-62.0204
 L 543.339,-62.5011 L 543.572,-62.96 L 543.853,-63.3919 L 544.177,-63.7921 L 544.541,-64.1563 L 544.941,-64.4804
 L 545.283,-64.7024 L 545.283,-74 L 545.339,-74.5302 L 545.504,-75.0372 L 545.77,-75.4988 L 546.127,-75.895
 L 546.558,-76.2084 L 547.045,-76.4252 L 547.567,-76.536 L 548.1,-76.536 L 548.621,-76.4252 L 549.108,-76.2084
 L 549.54,-75.895 L 549.896,-75.4988 L 550.163,-75.0372 L 550.328,-74.5302 L 550.383,-74 L 550.383,-64.7024
 L 550.725,-64.4804 L 551.125,-64.1563 L 551.49,-63.7921 L 551.814,-63.3919 L 552.094,-62.96 L 552.328,-62.5011
 L 552.513,-62.0204 L 552.646,-61.5229 L 552.726,-61.0143 L 552.753,-60.5 L 552.726,-59.9857 L 552.646,-59.4771
 L 552.513,-58.9796 L 552.328,-58.4989 L 552.094,-58.04 L 551.814,-57.6081 L 551.49,-57.2079 L 551.125,-56.8437
 L 550.725,-56.5196 L 550.293,-56.2392 L 549.834,-56.0054 L 549.354,-55.8208 L 548.856,-55.6875 L 548.348,-55.607
 L 547.833,-55.58 z
M 367.208,-55.607 L 366.699,-55.6875 L 366.202,-55.8208 L 365.721,-56.0054 L 365.262,-56.2392 L 364.83,-56.5196
 L 364.43,-56.8437 L 364.066,-57.2079 L 363.742,-57.6081 L 363.461,-58.04 L 363.228,-58.4989 L 363.043,-58.9796
 L 362.91,-59.4771 L 362.829,-59.9857 L 362.802,-60.5 L 362.829,-61.0143 L 362.91,-61.5229 L 363.043,-62.0204
 L 363.228,-62.5011 L 363.461,-62.96 L 363.742,-63.3919 L 364.066,-63.7921 L 364.43,-64.1563 L 364.83,-64.4804
 L 365.172,-64.7024 L 365.172,-74 L 365.228,-74.5302 L 365.393,-75.0372 L 365.659,-75.4988 L 366.016,-75.895
 L 366.447,-76.2084 L 366.934,-76.4252 L 367.456,-76.536 L 367.989,-76.536 L 368.51,-76.4252 L 368.997,-76.2084
 L 369.428,-75.895 L 369.785,-75.4988 L 370.052,-75.0372 L 370.216,-74.5302 L 370.272,-74 L 370.272,-64.7024
 L 370.614,-64.4804 L 371.014,-64.1563 L 371.378,-63.7921 L 371.703,-63.3919 L 371.983,-62.96 L 372.217,-62.5011
 L 372.401,-62.0204 L 372.535,-61.5229 L 372.615,-61.0143 L 372.642,-60.5 L 372.615,-59.9857 L 372.535,-59.4771
 L 372.401,-58.9796 L 372.217,-58.4989 L 371.983,-58.04 L 371.703,-57.6081 L 371.378,-57.2079 L 371.014,-56.8437
 L 370.614,-56.5196 L 370.182,-56.2392 L 369.723,-56.0054 L 369.243,-55.8208 L 368.745,-55.6875 L 368.236,-55.607
 L 367.722,-55.58 z
M 1627.99,-55.607 L 1627.48,-55.6875 L 1626.98,-55.8208 L 1626.5,-56.0054 L 1626.04,-56.2392 L 1625.61,-56.5196
 L 1625.21,-56.8437 L 1624.84,-57.2079 L 1624.52,-57.6081 L 1624.24,-58.04 L 1624.01,-58.4989 L 1623.82,-58.9796
 L 1623.69,-59.4771 L 1623.61,-59.9857 L 1623.58,-60.5 L 1623.61,-61.0143 L 1623.69,-61.5229 L 1623.82,-62.0204
 L 1624.01,-62.5011 L 1624.24,-62.96 L 1624.52,-63.3919 L 1624.84,-63.7921 L 1625.21,-64.1563 L 1625.61,-64.4804
 L 1625.95,-64.7024 L 1625.95,-74 L 1626.01,-74.5302 L 1626.17,-75.0372 L 1626.44,-75.4988 L 1626.79,-75.895
 L 1627.23,-76.2084 L 1627.71,-76.4252 L 1628.23,-76.536 L 1628.77,-76.536 L 1629.29,-76.4252 L 1629.77,-76.2084
 L 1630.21,-75.895 L 1630.56,-75.4988 L 1630.83,-75.0372 L 1630.99,-74.5302 L 1631.05,-74 L 1631.05,-64.7024
 L 1631.39,-64.4804 L 1631.79,-64.1563 L 1632.16,-63.7921 L 1632.48,-63.3919 L 1632.76,-62.96 L 1632.99,-62.5011
 L 1633.18,-62.0204 L 1633.31,-61.5229 L 1633.39,-61.0143 L 1633.42,-60.5 L 1633.39,-59.9857 L 1633.31,-59.4771
 L 1633.18,-58.9796 L 1632.99,-58.4989 L 1632.76,-58.04 L 1632.48,-57.6081 L 1632.16,-57.2079 L 1631.79,-56.8437
 L 1631.39,-56.5196 L 1630.96,-56.2392 L 1630.5,-56.0054 L 1630.02,-55.8208 L 1629.52,-55.6875 L 1629.01,-55.607
 L 1628.5,-55.58 z
M 187.097,-55.607 L 186.588,-55.6875 L 186.091,-55.8208 L 185.61,-56.0054 L 185.151,-56.2392 L 184.719,-56.5196
 L 184.319,-56.8437 L 183.955,-57.2079 L 183.631,-57.6081 L 183.35,-58.04 L 183.116,-58.4989 L 182.932,-58.9796
 L 182.799,-59.4771 L 182.718,-59.9857 L 182.691,-60.5 L 182.718,-61.0143 L 182.799,-61.5229 L 182.932,-62.0204
 L 183.116,-62.5011 L 183.35,-62.96 L 183.631,-63.3919 L 183.955,-63.7921 L 184.319,-64.1563 L 184.719,-64.4804
 L 185.061,-64.7024 L 185.061,-74 L 185.117,-74.5302 L 185.282,-75.0372 L 185.548,-75.4988 L 185.905,-75.895
 L 186.336,-76.2084 L 186.823,-76.4252 L 187.345,-76.536 L 187.878,-76.536 L 188.399,-76.4252 L 188.886,-76.2084
 L 189.317,-75.895 L 189.674,-75.4988 L 189.941,-75.0372 L 190.105,-74.5302 L 190.161,-74 L 190.161,-64.7024
 L 190.503,-64.4804 L 190.903,-64.1563 L 191.267,-63.7921 L 191.591,-63.3919 L 191.872,-62.96 L 192.106,-62.5011
 L 192.29,-62.0204 L 192.424,-61.5229 L 192.504,-61.0143 L 192.531,-60.5 L 192.504,-59.9857 L 192.424,-59.4771
 L 192.29,-58.9796 L 192.106,-58.4989 L 191.872,-58.04 L 191.591,-57.6081 L 191.267,-57.2079 L 190.903,-56.8437
 L 190.503,-56.5196 L 190.071,-56.2392 L 189.612,-56.0054 L 189.131,-55.8208 L 188.634,-55.6875 L 188.125,-55.607
 L 187.611,-55.58 z
M 1100.11,-20.9306 L 1099.33,-21.2345 L 1098.63,-21.6938 L 1098.04,-22.2884 L 1097.59,-22.9922 L 1097.3,-23.7746
 L 1097.17,-24.7885 L 1097.17,-58 L 1097.25,-58.8316 L 1097.51,-59.627 L 1097.93,-60.3511 L 1098.49,-60.9726
 L 1099.17,-61.4641 L 1099.93,-61.8042 L 1101.17,-62 L 1189.13,-62 L 1189.97,-61.9126 L 1190.76,-61.6542
 L 1191.48,-61.2361 L 1192.11,-60.6765 L 1192.6,-60 L 1192.94,-59.2361 L 1193.11,-58.4181 L 1193.11,-57.5819
 L 1192.94,-56.7639 L 1192.6,-56 L 1192.11,-55.3235 L 1191.48,-54.7639 L 1190.55,-54.2578 L 1102.58,-21.0463
 L 1101.77,-20.8343 L 1100.94,-20.7952 z
M 919.999,-20.9306 L 919.22,-21.2345 L 918.521,-21.6938 L 917.933,-22.2884 L 917.482,-22.9922 L 917.186,-23.7746
 L 917.056,-24.7885 L 917.056,-58 L 917.143,-58.8316 L 917.401,-59.627 L 917.819,-60.3511 L 918.379,-60.9726
 L 919.056,-61.4641 L 919.819,-61.8042 L 921.056,-62 L 1009.02,-62 L 1009.85,-61.9126 L 1010.65,-61.6542
 L 1011.37,-61.2361 L 1012,-60.6765 L 1012.49,-60 L 1012.83,-59.2361 L 1013,-58.4181 L 1013,-57.5819
 L 1012.83,-56.7639 L 1012.49,-56 L 1012,-55.3235 L 1011.37,-54.7639 L 1010.44,-54.2578 L 922.468,-21.0463
 L 921.659,-20.8343 L 920.824,-20.7952 z
M 817.396,-47.7908 L 816.587,-48.0028 L 800.019,-54.2578 L 799.081,-54.7639 L 798.46,-55.3235 L 797.968,-56
 L 797.628,-56.7639 L 797.454,-57.5819 L 797.454,-58.4181 L 797.628,-59.2361 L 797.968,-60 L 798.46,-60.6765
 L 799.081,-61.2361 L 799.805,-61.6542 L 800.601,-61.9126 L 801.432,-62 L 834.568,-62 L 835.624,-61.8579
 L 836.403,-61.554 L 837.102,-61.0947 L 837.69,-60.5001 L 838.142,-59.7963 L 838.437,-59.0139 L 838.563,-58.1873
 L 838.515,-57.3525 L 838.294,-56.5459 L 837.91,-55.803 L 837.38,-55.156 L 836.728,-54.6333 L 835.981,-54.2578
 L 819.413,-48.0028 L 818.231,-47.7516 z
M 714.34,-20.8343 L 713.532,-21.0463 L 625.564,-54.2578 L 624.626,-54.7639 L 624.005,-55.3235 L 623.513,-56
 L 623.173,-56.7639 L 622.999,-57.5819 L 622.999,-58.4181 L 623.173,-59.2361 L 623.513,-60 L 624.005,-60.6765
 L 624.626,-61.2361 L 625.35,-61.6542 L 626.146,-61.9126 L 626.977,-62 L 714.944,-62 L 716.18,-61.8042
 L 716.944,-61.4641 L 717.621,-60.9726 L 718.18,-60.3511 L 718.599,-59.627 L 718.857,-58.8316 L 718.944,-58
 L 718.944,-24.7885 L 718.814,-23.7746 L 718.518,-22.9922 L 718.067,-22.2884 L 717.479,-21.6938 L 716.78,-21.2345
 L 716.001,-20.9306 L 715.176,-20.7952 z
M 534.229,-20.8343 L 533.42,-21.0463 L 445.453,-54.2578 L 444.515,-54.7639 L 443.894,-55.3235 L 443.402,-56
 L 443.062,-56.7639 L 442.888,-57.5819 L 442.888,-58.4181 L 443.062,-59.2361 L 443.402,-60 L 443.894,-60.6765
 L 444.515,-61.2361 L 445.239,-61.6542 L 446.035,-61.9126 L 446.866,-62 L 534.833,-62 L 536.069,-61.8042
 L 536.833,-61.4641 L 537.51,-60.9726 L 538.069,-60.3511 L 538.487,-59.627 L 538.746,-58.8316 L 538.833,-58
 L 538.833,-24.7885 L 538.703,-23.7746 L 538.407,-22.9922 L 537.956,-22.2884 L 537.368,-21.6938 L 536.669,-21.2345
 L 535.89,-20.9306 L 535.065,-20.7952 z
M 354.118,-20.8343 L 353.309,-21.0463 L 265.342,-54.2578 L 264.404,-54.7639 L 263.783,-55.3235 L 263.291,-56
 L 262.951,-56.7639 L 262.777,-57.5819 L 262.777,-58.4181 L 262.951,-59.2361 L 263.291,-60 L 263.783,-60.6765
 L 264.404,-61.2361 L 265.128,-61.6542 L 265.923,-61.9126 L 266.755,-62 L 354.722,-62 L 355.958,-61.8042
 L 356.722,-61.4641 L 357.399,-60.9726 L 357.958,-60.3511 L 358.376,-59.627 L 358.635,-58.8316 L 358.722,-58
 L 358.722,-24.7885 L 358.592,-23.7746 L 358.296,-22.9922 L 357.845,-22.2884 L 357.257,-21.6938 L 356.558,-21.2345
 L 355.779,-20.9306 L 354.954,-20.7952 z
M 1460.33,-20.9306 L 1459.55,-21.2345 L 1458.85,-21.6938 L 1458.27,-22.2884 L 1457.81,-22.9922 L 1457.52,-23.7746
 L 1457.39,-24.7885 L 1457.39,-58 L 1457.48,-58.8316 L 1457.73,-59.627 L 1458.15,-60.3511 L 1458.71,-60.9726
 L 1459.39,-61.4641 L 1460.15,-61.8042 L 1461.39,-62 L 1549.36,-62 L 1550.19,-61.9126 L 1550.98,-61.6542
 L 1551.71,-61.2361 L 1552.33,-60.6765 L 1552.82,-60 L 1553.16,-59.2361 L 1553.33,-58.4181 L 1553.33,-57.5819
 L 1553.16,-56.7639 L 1552.82,-56 L 1552.33,-55.3235 L 1551.71,-54.7639 L 1550.77,-54.2578 L 1462.8,-21.0463
 L 1461.99,-20.8343 L 1461.16,-20.7952 z
M 174.007,-20.8343 L 173.198,-21.0463 L 85.2312,-54.2578 L 84.2929,-54.7639 L 83.6714,-55.3235 L 83.1799,-56
 L 82.8398,-56.7639 L 82.6659,-57.5819 L 82.6659,-58.4181 L 82.8398,-59.2361 L 83.1799,-60 L 83.6714,-60.6765
 L 84.2929,-61.2361 L 85.017,-61.6542 L 85.8123,-61.9126 L 86.644,-62 L 174.611,-62 L 175.847,-61.8042
 L 176.611,-61.4641 L 177.288,-60.9726 L 177.847,-60.3511 L 178.265,-59.627 L 178.524,-58.8316 L 178.611,-58
 L 178.611,-24.7885 L 178.48,-23.7746 L 178.185,-22.9922 L 177.734,-22.2884 L 177.145,-21.6938 L 176.447,-21.2345
 L 175.668,-20.9306 L 174.842,-20.7952 z
M 1280.22,-20.9306 L 1279.44,-21.2345 L 1278.74,-21.6938 L 1278.16,-22.2884 L 1277.7,-22.9922 L 1277.41,-23.7746
 L 1277.28,-24.7885 L 1277.28,-58 L 1277.37,-58.8316 L 1277.62,-59.627 L 1278.04,-60.3511 L 1278.6,-60.9726
 L 1279.28,-61.4641 L 1280.04,-61.8042 L 1281.28,-62 L 1369.24,-62 L 1370.08,-61.9126 L 1370.87,-61.6542
 L 1371.6,-61.2361 L 1372.22,-60.6765 L 1372.71,-60 L 1373.05,-59.2361 L 1373.22,-58.4181 L 1373.22,-57.5819
 L 1373.05,-56.7639 L 1372.71,-56 L 1372.22,-55.3235 L 1371.6,-54.7639 L 1370.66,-54.2578 L 1282.69,-21.0463
 L 1281.88,-20.8343 L 1281.05,-20.7952 z
M 740.526,-18.675 L 739.708,-18.8488 L 738.944,-19.1889 L 738.268,-19.6805 L 737.708,-20.3019 L 737.29,-21.0261
 L 737.032,-21.8214 L 736.944,-22.653 L 736.944,-57.347 L 737.075,-58.3609 L 737.37,-59.1432 L 737.822,-59.847
 L 738.41,-60.4416 L 739.109,-60.9009 L 739.888,-61.2049 L 740.713,-61.3403 L 741.548,-61.3011 L 742.357,-61.0891
 L 788.304,-43.7422 L 788.727,-43.554 L 789.426,-43.0947 L 790.014,-42.5001 L 790.465,-41.7963 L 790.761,-41.0139
 L 790.887,-40.1873 L 790.838,-39.3525 L 790.618,-38.5459 L 790.234,-37.803 L 789.704,-37.156 L 789.051,-36.6333
 L 788.304,-36.2578 L 742.357,-18.9109 L 741.363,-18.675 z
M 894.452,-18.6989 L 893.643,-18.9109 L 847.696,-36.2578 L 847.273,-36.446 L 846.574,-36.9053 L 845.986,-37.4999
 L 845.535,-38.2037 L 845.239,-38.9861 L 845.113,-39.8127 L 845.162,-40.6475 L 845.382,-41.4541 L 845.766,-42.197
 L 846.296,-42.844 L 846.949,-43.3667 L 847.696,-43.7422 L 893.643,-61.0891 L 894.637,-61.3251 L 895.474,-61.3251
 L 896.292,-61.1512 L 897.056,-60.8111 L 897.732,-60.3195 L 898.292,-59.6981 L 898.71,-58.9739 L 898.968,-58.1786
 L 899.056,-57.347 L 899.056,-22.653 L 898.925,-21.6391 L 898.63,-20.8568 L 898.178,-20.1529 L 897.59,-19.5584
 L 896.891,-19.0991 L 896.112,-18.7951 L 895.287,-18.6597 z
M 200.611,-18 L 199.375,-18.1958 L 198.611,-18.5359 L 197.935,-19.0274 L 197.375,-19.6489 L 196.957,-20.373
 L 196.699,-21.1684 L 196.611,-22 L 196.611,-55.2115 L 196.742,-56.2254 L 197.037,-57.0078 L 197.489,-57.7116
 L 198.077,-58.3061 L 198.775,-58.7655 L 199.555,-59.0694 L 200.38,-59.2048 L 201.215,-59.1656 L 202.024,-58.9537
 L 289.991,-25.7422 L 290.929,-25.2361 L 291.551,-24.6765 L 292.042,-24 L 292.382,-23.2361 L 292.556,-22.4181
 L 292.556,-21.5819 L 292.382,-20.7639 L 292.042,-20 L 291.551,-19.3235 L 290.929,-18.7639 L 290.205,-18.3458
 L 289.41,-18.0874 L 288.578,-18 z
M 380.722,-18 L 379.486,-18.1958 L 378.722,-18.5359 L 378.046,-19.0274 L 377.486,-19.6489 L 377.068,-20.373
 L 376.81,-21.1684 L 376.722,-22 L 376.722,-55.2115 L 376.853,-56.2254 L 377.148,-57.0078 L 377.6,-57.7116
 L 378.188,-58.3061 L 378.887,-58.7655 L 379.666,-59.0694 L 380.491,-59.2048 L 381.326,-59.1656 L 382.135,-58.9537
 L 470.102,-25.7422 L 471.04,-25.2361 L 471.662,-24.6765 L 472.153,-24 L 472.494,-23.2361 L 472.667,-22.4181
 L 472.667,-21.5819 L 472.494,-20.7639 L 472.153,-20 L 471.662,-19.3235 L 471.04,-18.7639 L 470.316,-18.3458
 L 469.521,-18.0874 L 468.689,-18 z
M 560.833,-18 L 559.597,-18.1958 L 558.833,-18.5359 L 558.157,-19.0274 L 557.597,-19.6489 L 557.179,-20.373
 L 556.921,-21.1684 L 556.833,-22 L 556.833,-55.2115 L 556.964,-56.2254 L 557.259,-57.0078 L 557.711,-57.7116
 L 558.299,-58.3061 L 558.998,-58.7655 L 559.777,-59.0694 L 560.602,-59.2048 L 561.437,-59.1656 L 562.246,-58.9537
 L 650.213,-25.7422 L 651.152,-25.2361 L 651.773,-24.6765 L 652.265,-24 L 652.605,-23.2361 L 652.779,-22.4181
 L 652.779,-21.5819 L 652.605,-20.7639 L 652.265,-20 L 651.773,-19.3235 L 651.152,-18.7639 L 650.427,-18.3458
 L 649.632,-18.0874 L 648.8,-18 z
M 987.2,-18 L 986.368,-18.0874 L 985.573,-18.3458 L 984.848,-18.7639 L 984.227,-19.3235 L 983.735,-20
 L 983.395,-20.7639 L 983.221,-21.5819 L 983.221,-22.4181 L 983.395,-23.2361 L 983.735,-24 L 984.227,-24.6765
 L 984.848,-25.2361 L 985.787,-25.7422 L 1073.75,-58.9537 L 1074.56,-59.1656 L 1075.4,-59.2048 L 1076.22,-59.0694
 L 1077,-58.7655 L 1077.7,-58.3061 L 1078.29,-57.7116 L 1078.74,-57.0078 L 1079.04,-56.2254 L 1079.17,-55.2115
 L 1079.17,-22 L 1079.08,-21.1684 L 1078.82,-20.373 L 1078.4,-19.6489 L 1077.84,-19.0274 L 1077.17,-18.5359
 L 1076.4,-18.1958 L 1075.17,-18 z
M 1167.31,-18 L 1166.48,-18.0874 L 1165.68,-18.3458 L 1164.96,-18.7639 L 1164.34,-19.3235 L 1163.85,-20
 L 1163.51,-20.7639 L 1163.33,-21.5819 L 1163.33,-22.4181 L 1163.51,-23.2361 L 1163.85,-24 L 1164.34,-24.6765
 L 1164.96,-25.2361 L 1165.9,-25.7422 L 1253.86,-58.9537 L 1254.67,-59.1656 L 1255.51,-59.2048 L 1256.33,-59.0694
 L 1257.11,-58.7655 L 1257.81,-58.3061 L 1258.4,-57.7116 L 1258.85,-57.0078 L 1259.15,-56.2254 L 1259.28,-55.2115
 L 1259.28,-22 L 1259.19,-21.1684 L 1258.93,-20.373 L 1258.51,-19.6489 L 1257.95,-19.0274 L 1257.28,-18.5359
 L 1256.51,-18.1958 L 1255.28,-18 z
M 1347.42,-18 L 1346.59,-18.0874 L 1345.79,-18.3458 L 1345.07,-18.7639 L 1344.45,-19.3235 L 1343.96,-20
 L 1343.62,-20.7639 L 1343.44,-21.5819 L 1343.44,-22.4181 L 1343.62,-23.2361 L 1343.96,-24 L 1344.45,-24.6765
 L 1345.07,-25.2361 L 1346.01,-25.7422 L 1433.98,-58.9537 L 1434.78,-59.1656 L 1435.62,-59.2048 L 1436.45,-59.0694
 L 1437.22,-58.7655 L 1437.92,-58.3061 L 1438.51,-57.7116 L 1438.96,-57.0078 L 1439.26,-56.2254 L 1439.39,-55.2115
 L 1439.39,-22 L 1439.3,-21.1684 L 1439.04,-20.373 L 1438.62,-19.6489 L 1438.07,-19.0274 L 1437.39,-18.5359
 L 1436.62,-18.1958 L 1435.39,-18 z
M 22,-18 L 20.7639,-18.1958 L 20,-18.5359 L 19.3235,-19.0274 L 18.7639,-19.6489 L 18.3458,-20.373
 L 18.0874,-21.1684 L 18,-22 L 18,-54.6452 L 18.1306,-55.6591 L 18.426,-56.4415 L 18.8776,-57.1453
 L 19.4656,-57.7398 L 20.1644,-58.1991 L 20.9434,-58.5031 L 21.7686,-58.6385 L 22.6039,-58.5993 L 23.4128,-58.3874
 L 109.88,-25.7422 L 110.818,-25.2361 L 111.44,-24.6765 L 111.931,-24 L 112.271,-23.2361 L 112.445,-22.4181
 L 112.445,-21.5819 L 112.271,-20.7639 L 111.931,-20 L 111.44,-19.3235 L 110.818,-18.7639 L 110.094,-18.3458
 L 109.299,-18.0874 L 108.467,-18 z
M 1527.53,-18 L 1526.7,-18.0874 L 1525.91,-18.3458 L 1525.18,-18.7639 L 1524.56,-19.3235 L 1524.07,-20
 L 1523.73,-20.7639 L 1523.55,-21.5819 L 1523.55,-22.4181 L 1523.73,-23.2361 L 1524.07,-24 L 1524.56,-24.6765
 L 1525.18,-25.2361 L 1526.12,-25.7422 L 1612.59,-58.3874 L 1613.4,-58.5993 L 1614.23,-58.6385 L 1615.06,-58.5031
 L 1615.84,-58.1991 L 1616.53,-57.7398 L 1617.12,-57.1453 L 1617.57,-56.4415 L 1617.87,-55.6591 L 1618,-54.6452
 L 1618,-22 L 1617.91,-21.1684 L 1617.65,-20.373 L 1617.24,-19.6489 L 1616.68,-19.0274 L 1616,-18.5359
 L 1615.24,-18.1958 L 1614,-18 z
M 801.432,-18 L 800.376,-18.1421 L 799.597,-18.446 L 798.898,-18.9053 L 798.31,-19.4999 L 797.858,-20.2037
 L 797.563,-20.9861 L 797.437,-21.8127 L 797.485,-22.6475 L 797.706,-23.4541 L 798.09,-24.197 L 798.62,-24.844
 L 799.272,-25.3667 L 800.019,-25.7422 L 816.587,-31.9972 L 817.769,-32.2484 L 818.604,-32.2092 L 819.413,-31.9972
 L 835.981,-25.7422 L 836.919,-25.2361 L 837.54,-24.6765 L 838.032,-24 L 838.372,-23.2361 L 838.546,-22.4181
 L 838.546,-21.5819 L 838.372,-20.7639 L 838.032,-20 L 837.54,-19.3235 L 836.919,-18.7639 L 836.195,-18.3458
 L 835.399,-18.0874 L 834.568,-18 z
" stroke="black" fill="lightgray" stroke-width="0.5"/>
</svg>
