<?xml version="1.0" standalone="no"?>
<!DOCTYPE svg PUBLIC "-//W3C//DTD SVG 1.1//EN" "http://www.w3.org/Graphics/SVG/1.1/DTD/svg11.dtd">
<svg width="1658mm" height="80mm" viewBox="0 -80 1658 80" xmlns="http://www.w3.org/2000/svg" version="1.1">
<title>OpenSCAD Model</title>
<path d="
M 1658,-80 L 0,-80 L 0,-0 L 4.95,-0 L 4.95,-6 L 5.00572,-6.53017
 L 5.17046,-7.03717 L 5.437,-7.49884 L 5.79372,-7.895 L 6.22499,-8.20836 L 6.71201,-8.42519 L 7.23344,-8.53603
 L 7.76654,-8.53603 L 8.28798,-8.42519 L 8.77499,-8.20836 L 9.20627,-7.895 L 9.56299,-7.49884 L 9.82953,-7.03717
 L 9.99426,-6.53017 L 10.05,-6 L 10.05,-0 L 187.506,-0 L 187.506,-6 L 187.561,-6.53017
 L 187.726,-7.03717 L 187.993,-7.49884 L 188.349,-7.895 L 188.781,-8.20836 L 189.268,-8.42519 L 189.789,-8.53603
 L 190.322,-8.53603 L 190.844,-8.42519 L 191.331,-8.20836 L 191.762,-7.895 L 192.119,-7.49884 L 192.385,-7.03717
 L 192.55,-6.53017 L 192.606,-6 L 192.606,-0 L 370.061,-0 L 370.061,-6 L 370.117,-6.53017
 L 370.282,-7.03717 L 370.548,-7.49884 L 370.905,-7.895 L 371.336,-8.20836 L 371.823,-8.42519 L 372.345,-8.53603
 L 372.878,-8.53603 L 373.399,-8.42519 L 373.886,-8.20836 L 374.317,-7.895 L 374.674,-7.49884 L 374.941,-7.03717
 L 375.105,-6.53017 L 375.161,-6 L 375.161,-0 L 552.617,-0 L 552.617,-6 L 552.672,-6.53017
 L 552.837,-7.03717 L 553.104,-7.49884 L 553.46,-7.895 L 553.892,-8.20836 L 554.379,-8.42519 L 554.9,-8.53603
 L 555.433,-8.53603 L 555.955,-8.42519 L 556.442,-8.20836 L 556.873,-7.895 L 557.23,-7.49884 L 557.496,-7.03717
 L 557.661,-6.53017 L 557.717,-6 L 557.717,-0 L 735.172,-0 L 735.172,-6 L 735.228,-6.53017
 L 735.393,-7.03717 L 735.659,-7.49884 L 736.016,-7.895 L 736.447,-8.20836 L 736.934,-8.42519 L 737.456,-8.53603
 L 737.989,-8.53603 L 738.51,-8.42519 L 738.997,-8.20836 L 739.428,-7.895 L 739.785,-7.49884 L 740.052,-7.03717
 L 740.216,-6.53017 L 740.272,-6 L 740.272,-0 L 917.728,-0 L 917.728,-6 L 917.783,-6.53017
 L 917.948,-7.03717 L 918.215,-7.49884 L 918.571,-7.895 L 919.003,-8.20836 L 919.49,-8.42519 L 920.011,-8.53603
 L 920.544,-8.53603 L 921.066,-8.42519 L 921.553,-8.20836 L 921.984,-7.895 L 922.341,-7.49884 L 922.607,-7.03717
 L 922.772,-6.53017 L 922.828,-6 L 922.828,-0 L 1100.28,-0 L 1100.28,-6 L 1100.34,-6.53017
 L 1100.5,-7.03717 L 1100.77,-7.49884 L 1101.13,-7.895 L 1101.56,-8.20836 L 1102.05,-8.42519 L 1102.57,-8.53603
 L 1103.1,-8.53603 L 1103.62,-8.42519 L 1104.11,-8.20836 L 1104.54,-7.895 L 1104.9,-7.49884 L 1105.16,-7.03717
 L 1105.33,-6.53017 L 1105.38,-6 L 1105.38,-0 L 1282.84,-0 L 1282.84,-6 L 1282.89,-6.53017
 L 1283.06,-7.03717 L 1283.33,-7.49884 L 1283.68,-7.895 L 1284.11,-8.20836 L 1284.6,-8.42519 L 1285.12,-8.53603
 L 1285.66,-8.53603 L 1286.18,-8.42519 L 1286.66,-8.20836 L 1287.1,-7.895 L 1287.45,-7.49884 L 1287.72,-7.03717
 L 1287.88,-6.53017 L 1287.94,-6 L 1287.94,-0 L 1465.39,-0 L 1465.39,-6 L 1465.45,-6.53017
 L 1465.61,-7.03717 L 1465.88,-7.49884 L 1466.24,-7.895 L 1466.67,-8.20836 L 1467.16,-8.42519 L 1467.68,-8.53603
 L 1468.21,-8.53603 L 1468.73,-8.42519 L 1469.22,-8.20836 L 1469.65,-7.895 L 1470.01,-7.49884 L 1470.27,-7.03717
 L 1470.44,-6.53017 L 1470.49,-6 L 1470.49,-0 L 1647.95,-0 L 1647.95,-6 L 1648.01,-6.53017
 L 1648.17,-7.03717 L 1648.44,-7.49884 L 1648.79,-7.895 L 1649.22,-8.20836 L 1649.71,-8.42519 L 1650.23,-8.53603
 L 1650.77,-8.53603 L 1651.29,-8.42519 L 1651.77,-8.20836 L 1652.21,-7.895 L 1652.56,-7.49884 L 1652.83,-7.03717
 L 1652.99,-6.53017 L 1653.05,-6 L 1653.05,-0 L 1658,-0 z
M 6.98573,-55.607 L 6.47708,-55.6875 L 5.97964,-55.8208 L 5.49887,-56.0054 L 5.04001,-56.2392 L 4.60811,-56.5196
 L 4.20789,-56.8437 L 3.84373,-57.2079 L 3.51964,-57.6081 L 3.23917,-58.04 L 3.00537,-58.4989 L 2.82082,-58.9796
 L 2.68752,-59.4771 L 2.60696,-59.9857 L 2.58,-60.5 L 2.60696,-61.0143 L 2.68752,-61.5229 L 2.82082,-62.0204
 L 3.00537,-62.5011 L 3.23917,-62.96 L 3.51964,-63.3919 L 3.84373,-63.7921 L 4.20789,-64.1563 L 4.60811,-64.4804
 L 4.95001,-64.7024 L 4.95001,-74 L 5.00574,-74.5302 L 5.17047,-75.0372 L 5.43701,-75.4988 L 5.79373,-75.895
 L 6.22501,-76.2084 L 6.71202,-76.4252 L 7.23346,-76.536 L 7.76654,-76.536 L 8.28798,-76.4252 L 8.77499,-76.2084
 L 9.20627,-75.895 L 9.56299,-75.4988 L 9.82953,-75.0372 L 9.99426,-74.5302 L 10.05,-74 L 10.05,-64.7024
 L 10.3919,-64.4804 L 10.7921,-64.1563 L 11.1563,-63.7921 L 11.4804,-63.3919 L 11.7608,-62.96 L 11.9946,-62.5011
 L 12.1792,-62.0204 L 12.3125,-61.5229 L 12.393,-61.0143 L 12.42,-60.5 L 12.393,-59.9857 L 12.3125,-59.4771
 L 12.1792,-58.9796 L 11.9946,-58.4989 L 11.7608,-58.04 L 11.4804,-57.6081 L 11.1563,-57.2079 L 10.7921,-56.8437
 L 10.3919,-56.5196 L 9.95999,-56.2392 L 9.50113,-56.0054 L 9.02036,-55.8208 L 8.52292,-55.6875 L 8.01427,-55.607
 L 7.5,-55.58 z
M 1102.32,-55.607 L 1101.81,-55.6875 L 1101.31,-55.8208 L 1100.83,-56.0054 L 1100.37,-56.2392 L 1099.94,-56.5196
 L 1099.54,-56.8437 L 1099.18,-57.2079 L 1098.85,-57.6081 L 1098.57,-58.04 L 1098.34,-58.4989 L 1098.15,-58.9796
 L 1098.02,-59.4771 L 1097.94,-59.9857 L 1097.91,-60.5 L 1097.94,-61.0143 L 1098.02,-61.5229 L 1098.15,-62.0204
 L 1098.34,-62.5011 L 1098.57,-62.96 L 1098.85,-63.3919 L 1099.18,-63.7921 L 1099.54,-64.1563 L 1099.94,-64.4804
 L 1100.28,-64.7024 L 1100.28,-74 L 1100.34,-74.5302 L 1100.5,-75.0372 L 1100.77,-75.4988 L 1101.13,-75.895
 L 1101.56,-76.2084 L 1102.05,-76.4252 L 1102.57,-76.536 L 1103.1,-76.536 L 1103.62,-76.4252 L 1104.11,-76.2084
 L 1104.54,-75.895 L 1104.9,-75.4988 L 1105.16,-75.0372 L 1105.33,-74.5302 L 1105.38,-74 L 1105.38,-64.7024
 L 1105.73,-64.4804 L 1106.13,-64.1563 L 1106.49,-63.7921 L 1106.81,-63.3919 L 1107.09,-62.96 L 1107.33,-62.5011
 L 1107.51,-62.0204 L 1107.65,-61.5229 L 1107.73,-61.0143 L 1107.75,-60.5 L 1107.73,-59.9857 L 1107.65,-59.4771
 L 1107.51,-58.9796 L 1107.33,-58.4989 L 1107.09,-58.04 L 1106.81,-57.6081 L 1106.49,-57.2079 L 1106.13,-56.8437
 L 1105.73,-56.5196 L 1105.29,-56.2392 L 1104.83,-56.0054 L 1104.35,-55.8208 L 1103.86,-55.6875 L 1103.35,-55.607
 L 1102.83,-55.58 z
M 1284.87,-55.607 L 1284.37,-55.6875 L 1283.87,-55.8208 L 1283.39,-56.0054 L 1282.93,-56.2392 L 1282.5,-56.5196
 L 1282.1,-56.8437 L 1281.73,-57.2079 L 1281.41,-57.6081 L 1281.13,-58.04 L 1280.89,-58.4989 L 1280.71,-58.9796
 L 1280.58,-59.4771 L 1280.5,-59.9857 L 1280.47,-60.5 L 1280.5,-61.0143 L 1280.58,-61.5229 L 1280.71,-62.0204
 L 1280.89,-62.5011 L 1281.13,-62.96 L 1281.41,-63.3919 L 1281.73,-63.7921 L 1282.1,-64.1563 L 1282.5,-64.4804
 L 1282.84,-64.7024 L 1282.84,-74 L 1282.89,-74.5302 L 1283.06,-75.0372 L 1283.33,-75.4988 L 1283.68,-75.895
 L 1284.11,-76.2084 L 1284.6,-76.4252 L 1285.12,-76.536 L 1285.66,-76.536 L 1286.18,-76.4252 L 1286.66,-76.2084
 L 1287.1,-75.895 L 1287.45,-75.4988 L 1287.72,-75.0372 L 1287.88,-74.5302 L 1287.94,-74 L 1287.94,-64.7024
 L 1288.28,-64.4804 L 1288.68,-64.1563 L 1289.05,-63.7921 L 1289.37,-63.3919 L 1289.65,-62.96 L 1289.88,-62.5011
 L 1290.07,-62.0204 L 1290.2,-61.5229 L 1290.28,-61.0143 L 1290.31,-60.5 L 1290.28,-59.9857 L 1290.2,-59.4771
 L 1290.07,-58.9796 L 1289.88,-58.4989 L 1289.65,-58.04 L 1289.37,-57.6081 L 1289.05,-57.2079 L 1288.68,-56.8437
 L 1288.28,-56.5196 L 1287.85,-56.2392 L 1287.39,-56.0054 L 1286.91,-55.8208 L 1286.41,-55.6875 L 1285.9,-55.607
 L 1285.39,-55.58 z
M 919.764,-55.607 L 919.255,-55.6875 L 918.757,-55.8208 L 918.277,-56.0054 L 917.818,-56.2392 L 917.386,-56.5196
 L 916.986,-56.8437 L 916.622,-57.2079 L 916.297,-57.6081 L 916.017,-58.04 L 915.783,-58.4989 L 915.599,-58.9796
 L 915.465,-59.4771 L 915.385,-59.9857 L 915.358,-60.5 L 915.385,-61.0143 L 915.465,-61.5229 L 915.599,-62.0204
 L 915.783,-62.5011 L 916.017,-62.96 L 916.297,-63.3919 L 916.622,-63.7921 L 916.986,-64.1563 L 917.386,-64.4804
 L 917.728,-64.7024 L 917.728,-74 L 917.784,-74.5302 L 917.948,-75.0372 L 918.215,-75.4988 L 918.572,-75.895
 L 919.003,-76.2084 L 919.49,-76.4252 L 920.011,-76.536 L 920.544,-76.536 L 921.066,-76.4252 L 921.553,-76.2084
 L 921.984,-75.895 L 922.341,-75.4988 L 922.607,-75.0372 L 922.772,-74.5302 L 922.828,-74 L 922.828,-64.7024
 L 923.17,-64.4804 L 923.57,-64.1563 L 923.934,-63.7921 L 924.258,-63.3919 L 924.539,-62.96 L 924.772,-62.5011
 L 924.957,-62.0204 L 925.09,-61.5229 L 925.171,-61.0143 L 925.198,-60.5 L 925.171,-59.9857 L 925.09,-59.4771
 L 924.957,-58.9796 L 924.772,-58.4989 L 924.539,-58.04 L 924.258,-57.6081 L 923.934,-57.2079 L 923.57,-56.8437
 L 923.17,-56.5196 L 922.738,-56.2392 L 922.279,-56.0054 L 921.798,-55.8208 L 921.301,-55.6875 L 920.792,-55.607
 L 920.278,-55.58 z
M 737.208,-55.607 L 736.699,-55.6875 L 736.202,-55.8208 L 735.721,-56.0054 L 735.262,-56.2392 L 734.83,-56.5196
 L 734.43,-56.8437 L 734.066,-57.2079 L 733.742,-57.6081 L 733.461,-58.04 L 733.228,-58.4989 L 733.043,-58.9796
 L 732.91,-59.4771 L 732.829,-59.9857 L 732.802,-60.5 L 732.829,-61.0143 L 732.91,-61.5229 L 733.043,-62.0204
 L 733.228,-62.5011 L 733.461,-62.96 L 733.742,-63.3919 L 734.066,-63.7921 L 734.43,-64.1563 L 734.83,-64.4804
 L 735.172,-64.7024 L 735.172,-74 L 735.228,-74.5302 L 735.393,-75.0372 L 735.659,-75.4988 L 736.016,-75.895
 L 736.447,-76.2084 L 736.934,-76.4252 L 737.456,-76.536 L 737.989,-76.536 L 738.51,-76.4252 L 738.997,-76.2084
 L 739.428,-75.895 L 739.785,-75.4988 L 740.052,-75.0372 L 740.216,-74.5302 L 740.272,-74 L 740.272,-64.7024
 L 740.614,-64.4804 L 741.014,-64.1563 L 741.378,-63.7921 L 741.703,-63.3919 L 741.983,-62.96 L 742.217,-62.5011
 L 742.401,-62.0204 L 742.535,-61.5229 L 742.615,-61.0143 L 742.642,-60.5 L 742.615,-59.9857 L 742.535,-59.4771
 L 742.401,-58.9796 L 742.217,-58.4989 L 741.983,-58.04 L 741.703,-57.6081 L 741.378,-57.2079 L 741.014,-56.8437
 L 740.614,-56.5196 L 740.182,-56.2392 L 739.723,-56.0054 L 739.243,-55.8208 L 738.745,-55.6875 L 738.236,-55.607
 L 737.722,-55.58 z
M 1467.43,-55.607 L 1466.92,-55.6875 L 1466.42,-55.8208 L 1465.94,-56.0054 L 1465.48,-56.2392 L 1465.05,-56.5196
 L 1464.65,-56.8437 L 1464.29,-57.2079 L 1463.96,-57.6081 L 1463.68,-58.04 L 1463.45,-58.4989 L 1463.27,-58.9796
 L 1463.13,-59.4771 L 1463.05,-59.9857 L 1463.02,-60.5 L 1463.05,-61.0143 L 1463.13,-61.5229 L 1463.27,-62.0204
 L 1463.45,-62.5011 L 1463.68,-62.96 L 1463.96,-63.3919 L 1464.29,-63.7921 L 1464.65,-64.1563 L 1465.05,-64.4804
 L 1465.39,-64.7024 L 1465.39,-74 L 1465.45,-74.5302 L 1465.61,-75.0372 L 1465.88,-75.4988 L 1466.24,-75.895
 L 1466.67,-76.2084 L 1467.16,-76.4252 L 1467.68,-76.536 L 1468.21,-76.536 L 1468.73,-76.4252 L 1469.22,-76.2084
 L 1469.65,-75.895 L 1470.01,-75.4988 L 1470.27,-75.0372 L 1470.44,-74.5302 L 1470.49,-74 L 1470.49,-64.7024
 L 1470.84,-64.4804 L 1471.24,-64.1563 L 1471.6,-63.7921 L 1471.92,-63.3919 L 1472.21,-62.96 L 1472.44,-62.5011
 L 1472.62,-62.0204 L 1472.76,-61.5229 L 1472.84,-61.0143 L 1472.86,-60.5 L 1472.84,-59.9857 L 1472.76,-59.4771
 L 1472.62,-58.9796 L 1472.44,-58.4989 L 1472.21,-58.04 L 1471.92,-57.6081 L 1471.6,-57.2079 L 1471.24,-56.8437
 L 1470.84,-56.5196 L 1470.4,-56.2392 L 1469.95,-56.0054 L 1469.46,-55.8208 L 1468.97,-55.6875 L 1468.46,-55.607
 L 1467.94,-55.58 z
M 554.652,-55.607 L 554.144,-55.6875 L 553.646,-55.8208 L 553.166,-56.0054 L 552.707,-56.2392 L 552.275,-56.5196
 L 551.875,-56.8437 L 551.51,-57.2079 L 551.186,-57.6081 L 550.906,-58.04 L 550.672,-58.4989 L 550.487,-58.9796
 L 550.354,-59.4771 L 550.274,-59.9857 L 550.247,-60.5 L 550.274,-61.0143 L 550.354,-61.5229 L 550.487,-62.0204
 L 550.672,-62.5011 L 550.906,-62.96 L 551.186,-63.3919 L 551.51,-63.7921 L 551.875,-64.1563 L 552.275,-64.4804
 L 552.617,-64.7024 L 552.617,-74 L 552.672,-74.5302 L 552.837,-75.0372 L 553.104,-75.4988 L 553.46,-75.895
 L 553.892,-76.2084 L 554.379,-76.4252 L 554.9,-76.536 L 555.433,-76.536 L 555.955,-76.4252 L 556.442,-76.2084
 L 556.873,-75.895 L 557.23,-75.4988 L 557.496,-75.0372 L 557.661,-74.5302 L 557.717,-74 L 557.717,-64.7024
 L 558.059,-64.4804 L 558.459,-64.1563 L 558.823,-63.7921 L 559.147,-63.3919 L 559.427,-62.96 L 559.661,-62.5011
 L 559.846,-62.0204 L 559.979,-61.5229 L 560.06,-61.0143 L 560.087,-60.5 L 560.06,-59.9857 L 559.979,-59.4771
 L 559.846,-58.9796 L 559.661,-58.4989 L 559.427,-58.04 L 559.147,-57.6081 L 558.823,-57.2079 L 558.459,-56.8437
 L 558.059,-56.5196 L 557.627,-56.2392 L 557.168,-56.0054 L 556.687,-55.8208 L 556.19,-55.6875 L 555.681,-55.607
 L 555.167,-55.58 z
M 372.097,-55.607 L 371.588,-55.6875 L 371.091,-55.8208 L 370.61,-56.0054 L 370.151,-56.2392 L 369.719,-56.5196
 L 369.319,-56.8437 L 368.955,-57.2079 L 368.631,-57.6081 L 368.35,-58.04 L 368.116,-58.4989 L 367.932,-58.9796
 L 367.799,-59.4771 L 367.718,-59.9857 L 367.691,-60.5 L 367.718,-61.0143 L 367.799,-61.5229 L 367.932,-62.0204
 L 368.116,-62.5011 L 368.35,-62.96 L 368.631,-63.3919 L 368.955,-63.7921 L 369.319,-64.1563 L 369.719,-64.4804
 L 370.061,-64.7024 L 370.061,-74 L 370.117,-74.5302 L 370.282,-75.0372 L 370.548,-75.4988 L 370.905,-75.895
 L 371.336,-76.2084 L 371.823,-76.4252 L 372.345,-76.536 L 372.878,-76.536 L 373.399,-76.4252 L 373.886,-76.2084
 L 374.317,-75.895 L 374.674,-75.4988 L 374.941,-75.0372 L 375.105,-74.5302 L 375.161,-74 L 375.161,-64.7024
 L 375.503,-64.4804 L 375.903,-64.1563 L 376.267,-63.7921 L 376.591,-63.3919 L 376.872,-62.96 L 377.106,-62.5011
 L 377.29,-62.0204 L 377.424,-61.5229 L 377.504,-61.0143 L 377.531,-60.5 L 377.504,-59.9857 L 377.424,-59.4771
 L 377.29,-58.9796 L 377.106,-58.4989 L 376.872,-58.04 L 376.591,-57.6081 L 376.267,-57.2079 L 375.903,-56.8437
 L 375.503,-56.5196 L 375.071,-56.2392 L 374.612,-56.0054 L 374.131,-55.8208 L 373.634,-55.6875 L 373.125,-55.607
 L 372.611,-55.58 z
M 1649.99,-55.607 L 1649.48,-55.6875 L 1648.98,-55.8208 L 1648.5,-56.0054 L 1648.04,-56.2392 L 1647.61,-56.5196
 L 1647.21,-56.8437 L 1646.84,-57.2079 L 1646.52,-57.6081 L 1646.24,-58.04 L 1646.01,-58.4989 L 1645.82,-58.9796
 L 1645.69,-59.4771 L 1645.61,-59.9857 L 1645.58,-60.5 L 1645.61,-61.0143 L 1645.69,-61.5229 L 1645.82,-62.0204
 L 1646.01,-62.5011 L 1646.24,-62.96 L 1646.52,-63.3919 L 1646.84,-63.7921 L 1647.21,-64.1563 L 1647.61,-64.4804
 L 1647.95,-64.7024 L 1647.95,-74 L 1648.01,-74.5302 L 1648.17,-75.0372 L 1648.44,-75.4988 L 1648.79,-75.895
 L 1649.23,-76.2084 L 1649.71,-76.4252 L 1650.23,-76.536 L 1650.77,-76.536 L 1651.29,-76.4252 L 1651.77,-76.2084
 L 1652.21,-75.895 L 1652.56,-75.4988 L 1652.83,-75.0372 L 1652.99,-74.5302 L 1653.05,-74 L 1653.05,-64.7024
 L 1653.39,-64.4804 L 1653.79,-64.1563 L 1654.16,-63.7921 L 1654.48,-63.3919 L 1654.76,-62.96 L 1654.99,-62.5011
 L 1655.18,-62.0204 L 1655.31,-61.5229 L 1655.39,-61.0143 L 1655.42,-60.5 L 1655.39,-59.9857 L 1655.31,-59.4771
 L 1655.18,-58.9796 L 1654.99,-58.4989 L 1654.76,-58.04 L 1654.48,-57.6081 L 1654.16,-57.2079 L 1653.79,-56.8437
 L 1653.39,-56.5196 L 1652.96,-56.2392 L 1652.5,-56.0054 L 1652.02,-55.8208 L 1651.52,-55.6875 L 1651.01,-55.607
 L 1650.5,-55.58 z
M 189.541,-55.607 L 189.033,-55.6875 L 188.535,-55.8208 L 188.054,-56.0054 L 187.596,-56.2392 L 187.164,-56.5196
 L 186.763,-56.8437 L 186.399,-57.2079 L 186.075,-57.6081 L 185.795,-58.04 L 185.561,-58.4989 L 185.376,-58.9796
 L 185.243,-59.4771 L 185.163,-59.9857 L 185.136,-60.5 L 185.163,-61.0143 L 185.243,-61.5229 L 185.376,-62.0204
 L 185.561,-62.5011 L 185.795,-62.96 L 186.075,-63.3919 L 186.399,-63.7921 L 186.763,-64.1563 L 187.164,-64.4804
 L 187.506,-64.7024 L 187.506,-74 L 187.561,-74.5302 L 187.726,-75.0372 L 187.993,-75.4988 L 188.349,-75.895
 L 188.781,-76.2084 L 189.268,-76.4252 L 189.789,-76.536 L 190.322,-76.536 L 190.844,-76.4252 L 191.331,-76.2084
 L 191.762,-75.895 L 192.119,-75.4988 L 192.385,-75.0372 L 192.55,-74.5302 L 192.606,-74 L 192.606,-64.7024
 L 192.947,-64.4804 L 193.348,-64.1563 L 193.712,-63.7921 L 194.036,-63.3919 L 194.316,-62.96 L 194.55,-62.5011
 L 194.735,-62.0204 L 194.868,-61.5229 L 194.949,-61.0143 L 194.976,-60.5 L 194.949,-59.9857 L 194.868,-59.4771
 L 194.735,-58.9796 L 194.55,-58.4989 L 194.316,-58.04 L 194.036,-57.6081 L 193.712,-57.2079 L 193.348,-56.8437
 L 192.947,-56.5196 L 192.516,-56.2392 L 192.057,-56.0054 L 191.576,-55.8208 L 191.078,-55.6875 L 190.57,-55.607
 L 190.056,-55.58 z
M 1114.76,-20.8492 L 1113.98,-21.1567 L 1113.29,-21.6191 L 1112.7,-22.2162 L 1112.25,-22.922 L 1111.96,-23.7057
 L 1111.83,-24.7025 L 1111.83,-58 L 1111.92,-58.8316 L 1112.18,-59.627 L 1112.6,-60.3511 L 1113.16,-60.9726
 L 1113.83,-61.4641 L 1114.6,-61.8042 L 1115.83,-62 L 1205.23,-62 L 1206.06,-61.9126 L 1206.85,-61.6542
 L 1207.58,-61.2361 L 1208.2,-60.6765 L 1208.69,-60 L 1209.03,-59.2361 L 1209.2,-58.4181 L 1209.2,-57.5819
 L 1209.03,-56.7639 L 1208.69,-56 L 1208.2,-55.3235 L 1207.58,-54.7639 L 1206.62,-54.2516 L 1117.23,-20.9541
 L 1116.42,-20.7457 L 1115.58,-20.7102 z
M 932.204,-20.8492 L 931.426,-21.1567 L 930.73,-21.6191 L 930.144,-22.2162 L 929.696,-22.922 L 929.404,-23.7057
 L 929.278,-24.7025 L 929.278,-58 L 929.365,-58.8316 L 929.624,-59.627 L 930.042,-60.3511 L 930.601,-60.9726
 L 931.278,-61.4641 L 932.042,-61.8042 L 933.278,-62 L 1022.67,-62 L 1023.5,-61.9126 L 1024.3,-61.6542
 L 1025.02,-61.2361 L 1025.64,-60.6765 L 1026.13,-60 L 1026.47,-59.2361 L 1026.65,-58.4181 L 1026.65,-57.5819
 L 1026.47,-56.7639 L 1026.13,-56 L 1025.64,-55.3235 L 1025.02,-54.7639 L 1024.07,-54.2516 L 934.674,-20.9541
 L 933.864,-20.7457 L 933.029,-20.7102 z
M 828.414,-47.771 L 827.604,-47.9794 L 810.765,-54.2516 L 809.81,-54.7639 L 809.189,-55.3235 L 808.697,-56
 L 808.357,-56.7639 L 808.183,-57.5819 L 808.183,-58.4181 L 808.357,-59.2361 L 808.697,-60 L 809.189,-60.6765
 L 809.81,-61.2361 L 810.534,-61.6542 L 811.33,-61.9126 L 812.161,-62 L 845.839,-62 L 846.912,-61.8532
 L 847.69,-61.5458 L 848.387,-61.0834 L 848.972,-60.4862 L 849.421,-59.7804 L 849.712,-58.9968 L 849.835,-58.1696
 L 849.783,-57.335 L 849.559,-56.5294 L 849.171,-55.7882 L 848.639,-55.1436 L 847.984,-54.6238 L 847.235,-54.2516
 L 830.396,-47.9794 L 829.249,-47.7355 z
M 724.136,-20.7457 L 723.326,-20.9541 L 633.934,-54.2516 L 632.979,-54.7639 L 632.358,-55.3235 L 631.866,-56
 L 631.526,-56.7639 L 631.352,-57.5819 L 631.352,-58.4181 L 631.526,-59.2361 L 631.866,-60 L 632.358,-60.6765
 L 632.979,-61.2361 L 633.703,-61.6542 L 634.499,-61.9126 L 635.33,-62 L 724.722,-62 L 725.958,-61.8042
 L 726.722,-61.4641 L 727.399,-60.9726 L 727.958,-60.3511 L 728.376,-59.627 L 728.635,-58.8316 L 728.722,-58
 L 728.722,-24.7025 L 728.596,-23.7057 L 728.304,-22.922 L 727.856,-22.2162 L 727.27,-21.6191 L 726.574,-21.1567
 L 725.796,-20.8492 L 724.971,-20.7102 z
M 541.58,-20.7457 L 540.77,-20.9541 L 451.378,-54.2516 L 450.424,-54.7639 L 449.802,-55.3235 L 449.311,-56
 L 448.97,-56.7639 L 448.797,-57.5819 L 448.797,-58.4181 L 448.97,-59.2361 L 449.311,-60 L 449.802,-60.6765
 L 450.424,-61.2361 L 451.148,-61.6542 L 451.943,-61.9126 L 452.775,-62 L 542.167,-62 L 543.403,-61.8042
 L 544.167,-61.4641 L 544.843,-60.9726 L 545.403,-60.3511 L 545.821,-59.627 L 546.079,-58.8316 L 546.167,-58
 L 546.167,-24.7025 L 546.04,-23.7057 L 545.749,-22.922 L 545.3,-22.2162 L 544.715,-21.6191 L 544.018,-21.1567
 L 543.24,-20.8492 L 542.416,-20.7102 z
M 359.025,-20.7457 L 358.215,-20.9541 L 268.823,-54.2516 L 267.868,-54.7639 L 267.247,-55.3235 L 266.755,-56
 L 266.415,-56.7639 L 266.241,-57.5819 L 266.241,-58.4181 L 266.415,-59.2361 L 266.755,-60 L 267.247,-60.6765
 L 267.868,-61.2361 L 268.592,-61.6542 L 269.388,-61.9126 L 270.219,-62 L 359.611,-62 L 360.847,-61.8042
 L 361.611,-61.4641 L 362.288,-60.9726 L 362.847,-60.3511 L 363.265,-59.627 L 363.524,-58.8316 L 363.611,-58
 L 363.611,-24.7025 L 363.485,-23.7057 L 363.193,-22.922 L 362.745,-22.2162 L 362.159,-21.6191 L 361.462,-21.1567
 L 360.685,-20.8492 L 359.86,-20.7102 z
M 1479.87,-20.8492 L 1479.09,-21.1567 L 1478.4,-21.6191 L 1477.81,-22.2162 L 1477.36,-22.922 L 1477.07,-23.7057
 L 1476.94,-24.7025 L 1476.94,-58 L 1477.03,-58.8316 L 1477.29,-59.627 L 1477.71,-60.3511 L 1478.27,-60.9726
 L 1478.94,-61.4641 L 1479.71,-61.8042 L 1480.94,-62 L 1570.34,-62 L 1571.17,-61.9126 L 1571.96,-61.6542
 L 1572.69,-61.2361 L 1573.31,-60.6765 L 1573.8,-60 L 1574.14,-59.2361 L 1574.31,-58.4181 L 1574.31,-57.5819
 L 1574.14,-56.7639 L 1573.8,-56 L 1573.31,-55.3235 L 1572.69,-54.7639 L 1571.73,-54.2516 L 1482.34,-20.9541
 L 1481.53,-20.7457 L 1480.7,-20.7102 z
M 176.469,-20.7457 L 175.659,-20.9541 L 86.2674,-54.2516 L 85.3125,-54.7639 L 84.691,-55.3235 L 84.1995,-56
 L 83.8594,-56.7639 L 83.6855,-57.5819 L 83.6855,-58.4181 L 83.8594,-59.2361 L 84.1995,-60 L 84.691,-60.6765
 L 85.3125,-61.2361 L 86.0367,-61.6542 L 86.832,-61.9126 L 87.6636,-62 L 177.056,-62 L 178.292,-61.8042
 L 179.056,-61.4641 L 179.732,-60.9726 L 180.292,-60.3511 L 180.71,-59.627 L 180.968,-58.8316 L 181.056,-58
 L 181.056,-24.7025 L 180.929,-23.7057 L 180.637,-22.922 L 180.189,-22.2162 L 179.604,-21.6191 L 178.907,-21.1567
 L 178.129,-20.8492 L 177.305,-20.7102 z
M 1297.32,-20.8492 L 1296.54,-21.1567 L 1295.84,-21.6191 L 1295.26,-22.2162 L 1294.81,-22.922 L 1294.52,-23.7057
 L 1294.39,-24.7025 L 1294.39,-58 L 1294.48,-58.8316 L 1294.73,-59.627 L 1295.15,-60.3511 L 1295.71,-60.9726
 L 1296.39,-61.4641 L 1297.15,-61.8042 L 1298.39,-62 L 1387.78,-62 L 1388.61,-61.9126 L 1389.41,-61.6542
 L 1390.13,-61.2361 L 1390.75,-60.6765 L 1391.24,-60 L 1391.59,-59.2361 L 1391.76,-58.4181 L 1391.76,-57.5819
 L 1391.59,-56.7639 L 1391.24,-56 L 1390.75,-55.3235 L 1390.13,-54.7639 L 1389.18,-54.2516 L 1299.79,-20.9541
 L 1298.98,-20.7457 L 1298.14,-20.7102 z
M 750.304,-18.5921 L 749.486,-18.7659 L 748.722,-19.106 L 748.046,-19.5976 L 747.486,-20.219 L 747.068,-20.9432
 L 746.81,-21.7385 L 746.722,-22.5701 L 746.722,-57.4299 L 746.848,-58.4266 L 747.14,-59.2103 L 747.589,-59.9161
 L 748.174,-60.5132 L 748.871,-60.9756 L 749.649,-61.2831 L 750.473,-61.4221 L 751.309,-61.3866 L 752.118,-61.1783
 L 798.911,-43.7484 L 799.366,-43.5458 L 800.063,-43.0834 L 800.649,-42.4862 L 801.097,-41.7804 L 801.389,-40.9968
 L 801.512,-40.1696 L 801.459,-39.335 L 801.235,-38.5294 L 800.848,-37.7882 L 800.315,-37.1436 L 799.66,-36.6238
 L 798.911,-36.2516 L 752.118,-18.8217 L 751.14,-18.5921 z
M 906.691,-18.6133 L 905.882,-18.8217 L 859.089,-36.2516 L 858.633,-36.4542 L 857.937,-36.9166 L 857.351,-37.5138
 L 856.903,-38.2196 L 856.611,-39.0032 L 856.488,-39.8304 L 856.54,-40.665 L 856.765,-41.4706 L 857.152,-42.2118
 L 857.685,-42.8564 L 858.34,-43.3762 L 859.089,-43.7484 L 905.882,-61.1783 L 906.86,-61.408 L 907.696,-61.408
 L 908.514,-61.2341 L 909.278,-60.894 L 909.954,-60.4025 L 910.514,-59.781 L 910.932,-59.0568 L 911.19,-58.2615
 L 911.278,-57.4299 L 911.278,-22.5701 L 911.152,-21.5733 L 910.86,-20.7897 L 910.411,-20.0839 L 909.826,-19.4868
 L 909.129,-19.0244 L 908.351,-18.7169 L 907.527,-18.5779 z
M 203.056,-18 L 201.819,-18.1958 L 201.056,-18.5359 L 200.379,-19.0274 L 199.819,-19.6489 L 199.401,-20.373
 L 199.143,-21.1684 L 199.056,-22 L 199.056,-55.2975 L 199.182,-56.2943 L 199.474,-57.0779 L 199.922,-57.7838
 L 200.507,-58.3809 L 201.204,-58.8433 L 201.982,-59.1507 L 202.806,-59.2898 L 203.642,-59.2543 L 204.452,-59.0459
 L 293.844,-25.7484 L 294.799,-25.2361 L 295.42,-24.6765 L 295.912,-24 L 296.252,-23.2361 L 296.426,-22.4181
 L 296.426,-21.5819 L 296.252,-20.7639 L 295.912,-20 L 295.42,-19.3235 L 294.799,-18.7639 L 294.074,-18.3458
 L 293.279,-18.0874 L 292.447,-18 z
M 385.611,-18 L 384.375,-18.1958 L 383.611,-18.5359 L 382.935,-19.0274 L 382.375,-19.6489 L 381.957,-20.373
 L 381.699,-21.1684 L 381.611,-22 L 381.611,-55.2975 L 381.737,-56.2943 L 382.029,-57.0779 L 382.478,-57.7838
 L 383.063,-58.3809 L 383.76,-58.8433 L 384.537,-59.1507 L 385.362,-59.2898 L 386.197,-59.2543 L 387.007,-59.0459
 L 476.399,-25.7484 L 477.354,-25.2361 L 477.976,-24.6765 L 478.467,-24 L 478.807,-23.2361 L 478.981,-22.4181
 L 478.981,-21.5819 L 478.807,-20.7639 L 478.467,-20 L 477.976,-19.3235 L 477.354,-18.7639 L 476.63,-18.3458
 L 475.835,-18.0874 L 475.003,-18 z
M 568.167,-18 L 566.931,-18.1958 L 566.167,-18.5359 L 565.49,-19.0274 L 564.931,-19.6489 L 564.512,-20.373
 L 564.254,-21.1684 L 564.167,-22 L 564.167,-55.2975 L 564.293,-56.2943 L 564.585,-57.0779 L 565.033,-57.7838
 L 565.619,-58.3809 L 566.315,-58.8433 L 567.093,-59.1507 L 567.918,-59.2898 L 568.753,-59.2543 L 569.563,-59.0459
 L 658.955,-25.7484 L 659.91,-25.2361 L 660.531,-24.6765 L 661.023,-24 L 661.363,-23.2361 L 661.537,-22.4181
 L 661.537,-21.5819 L 661.363,-20.7639 L 661.023,-20 L 660.531,-19.3235 L 659.91,-18.7639 L 659.186,-18.3458
 L 658.39,-18.0874 L 657.559,-18 z
M 1000.44,-18 L 999.61,-18.0874 L 998.814,-18.3458 L 998.09,-18.7639 L 997.469,-19.3235 L 996.977,-20
 L 996.637,-20.7639 L 996.463,-21.5819 L 996.463,-22.4181 L 996.637,-23.2361 L 996.977,-24 L 997.469,-24.6765
 L 998.09,-25.2361 L 999.045,-25.7484 L 1088.44,-59.0459 L 1089.25,-59.2543 L 1090.08,-59.2898 L 1090.91,-59.1507
 L 1091.68,-58.8433 L 1092.38,-58.3809 L 1092.97,-57.7838 L 1093.42,-57.0779 L 1093.71,-56.2943 L 1093.83,-55.2975
 L 1093.83,-22 L 1093.75,-21.1684 L 1093.49,-20.373 L 1093.07,-19.6489 L 1092.51,-19.0274 L 1091.83,-18.5359
 L 1091.07,-18.1958 L 1089.83,-18 z
M 1183,-18 L 1182.17,-18.0874 L 1181.37,-18.3458 L 1180.65,-18.7639 L 1180.02,-19.3235 L 1179.53,-20
 L 1179.19,-20.7639 L 1179.02,-21.5819 L 1179.02,-22.4181 L 1179.19,-23.2361 L 1179.53,-24 L 1180.02,-24.6765
 L 1180.65,-25.2361 L 1181.6,-25.7484 L 1270.99,-59.0459 L 1271.8,-59.2543 L 1272.64,-59.2898 L 1273.46,-59.1507
 L 1274.24,-58.8433 L 1274.94,-58.3809 L 1275.52,-57.7838 L 1275.97,-57.0779 L 1276.26,-56.2943 L 1276.39,-55.2975
 L 1276.39,-22 L 1276.3,-21.1684 L 1276.04,-20.373 L 1275.62,-19.6489 L 1275.07,-19.0274 L 1274.39,-18.5359
 L 1273.62,-18.1958 L 1272.39,-18 z
M 1365.55,-18 L 1364.72,-18.0874 L 1363.93,-18.3458 L 1363.2,-18.7639 L 1362.58,-19.3235 L 1362.09,-20
 L 1361.75,-20.7639 L 1361.57,-21.5819 L 1361.57,-22.4181 L 1361.75,-23.2361 L 1362.09,-24 L 1362.58,-24.6765
 L 1363.2,-25.2361 L 1364.16,-25.7484 L 1453.55,-59.0459 L 1454.36,-59.2543 L 1455.19,-59.2898 L 1456.02,-59.1507
 L 1456.8,-58.8433 L 1457.49,-58.3809 L 1458.08,-57.7838 L 1458.53,-57.0779 L 1458.82,-56.2943 L 1458.94,-55.2975
 L 1458.94,-22 L 1458.86,-21.1684 L 1458.6,-20.373 L 1458.18,-19.6489 L 1457.62,-19.0274 L 1456.94,-18.5359
 L 1456.18,-18.1958 L 1454.94,-18 z
M 22,-18 L 20.7639,-18.1958 L 20,-18.5359 L 19.3235,-19.0274 L 18.7639,-19.6489 L 18.3458,-20.373
 L 18.0874,-21.1684 L 18,-22 L 18,-54.7388 L 18.1262,-55.7356 L 18.4181,-56.5192 L 18.8665,-57.225
 L 19.4519,-57.8222 L 20.1487,-58.2846 L 20.9263,-58.592 L 21.7509,-58.731 L 22.5864,-58.6956 L 23.3962,-58.4872
 L 111.288,-25.7484 L 112.243,-25.2361 L 112.865,-24.6765 L 113.356,-24 L 113.696,-23.2361 L 113.87,-22.4181
 L 113.87,-21.5819 L 113.696,-20.7639 L 113.356,-20 L 112.865,-19.3235 L 112.243,-18.7639 L 111.519,-18.3458
 L 110.724,-18.0874 L 109.892,-18 z
M 1548.11,-18 L 1547.28,-18.0874 L 1546.48,-18.3458 L 1545.76,-18.7639 L 1545.14,-19.3235 L 1544.64,-20
 L 1544.3,-20.7639 L 1544.13,-21.5819 L 1544.13,-22.4181 L 1544.3,-23.2361 L 1544.64,-24 L 1545.14,-24.6765
 L 1545.76,-25.2361 L 1546.71,-25.7484 L 1634.6,-58.4872 L 1635.41,-58.6956 L 1636.25,-58.731 L 1637.07,-58.592
 L 1637.85,-58.2846 L 1638.55,-57.8222 L 1639.13,-57.225 L 1639.58,-56.5192 L 1639.87,-55.7356 L 1640,-54.7388
 L 1640,-22 L 1639.91,-21.1684 L 1639.65,-20.373 L 1639.24,-19.6489 L 1638.68,-19.0274 L 1638,-18.5359
 L 1637.24,-18.1958 L 1636,-18 z
M 812.161,-18 L 811.088,-18.1468 L 810.31,-18.4542 L 809.613,-18.9166 L 809.028,-19.5138 L 808.579,-20.2196
 L 808.287,-21.0032 L 808.165,-21.8304 L 808.217,-22.665 L 808.441,-23.4706 L 808.828,-24.2118 L 809.361,-24.8564
 L 810.016,-25.3762 L 810.765,-25.7484 L 827.604,-32.0206 L 828.751,-32.2645 L 829.586,-32.229 L 830.396,-32.0206
 L 847.235,-25.7484 L 848.19,-25.2361 L 848.811,-24.6765 L 849.303,-24 L 849.643,-23.2361 L 849.817,-22.4181
 L 849.817,-21.5819 L 849.643,-20.7639 L 849.303,-20 L 848.811,-19.3235 L 848.19,-18.7639 L 847.466,-18.3458
 L 846.67,-18.0874 L 845.839,-18 z
" stroke="black" fill="lightgray" stroke-width="0.5"/>
</svg>
