<?xml version="1.0" standalone="no"?>
<!DOCTYPE svg PUBLIC "-//W3C//DTD SVG 1.1//EN" "http://www.w3.org/Graphics/SVG/1.1/DTD/svg11.dtd">
<svg width="1235mm" height="80mm" viewBox="0 -80 1235 80" xmlns="http://www.w3.org/2000/svg" version="1.1">
<title>OpenSCAD Model</title>
<path d="
M 1235,-80 L 0,-80 L 0,-0 L 4.95,-0 L 4.95,-6 L 5.00572,-6.53017
 L 5.17046,-7.03717 L 5.437,-7.49884 L 5.79372,-7.895 L 6.22499,-8.20836 L 6.71201,-8.42519 L 7.23344,-8.53603
 L 7.76654,-8.53603 L 8.28798,-8.42519 L 8.77499,-8.20836 L 9.20627,-7.895 L 9.56299,-7.49884 L 9.82953,-7.03717
 L 9.99426,-6.53017 L 10.05,-6 L 10.05,-0 L 179.236,-0 L 179.236,-6 L 179.291,-6.53017
 L 179.456,-7.03717 L 179.723,-7.49884 L 180.079,-7.895 L 180.511,-8.20836 L 180.998,-8.42519 L 181.519,-8.53603
 L 182.052,-8.53603 L 182.574,-8.42519 L 183.061,-8.20836 L 183.492,-7.895 L 183.849,-7.49884 L 184.115,-7.03717
 L 184.28,-6.53017 L 184.336,-6 L 184.336,-0 L 353.521,-0 L 353.521,-6 L 353.577,-6.53017
 L 353.742,-7.03717 L 354.008,-7.49884 L 354.365,-7.895 L 354.796,-8.20836 L 355.283,-8.42519 L 355.805,-8.53603
 L 356.338,-8.53603 L 356.859,-8.42519 L 357.346,-8.20836 L 357.778,-7.895 L 358.134,-7.49884 L 358.401,-7.03717
 L 358.566,-6.53017 L 358.621,-6 L 358.621,-0 L 527.807,-0 L 527.807,-6 L 527.863,-6.53017
 L 528.028,-7.03717 L 528.294,-7.49884 L 528.651,-7.895 L 529.082,-8.20836 L 529.569,-8.42519 L 530.091,-8.53603
 L 530.624,-8.53603 L 531.145,-8.42519 L 531.632,-8.20836 L 532.063,-7.895 L 532.42,-7.49884 L 532.687,-7.03717
 L 532.851,-6.53017 L 532.907,-6 L 532.907,-0 L 702.093,-0 L 702.093,-6 L 702.149,-6.53017
 L 702.313,-7.03717 L 702.58,-7.49884 L 702.937,-7.895 L 703.368,-8.20836 L 703.855,-8.42519 L 704.376,-8.53603
 L 704.909,-8.53603 L 705.431,-8.42519 L 705.918,-8.20836 L 706.349,-7.895 L 706.706,-7.49884 L 706.972,-7.03717
 L 707.137,-6.53017 L 707.193,-6 L 707.193,-0 L 876.379,-0 L 876.379,-6 L 876.434,-6.53017
 L 876.599,-7.03717 L 876.866,-7.49884 L 877.222,-7.895 L 877.654,-8.20836 L 878.141,-8.42519 L 878.662,-8.53603
 L 879.195,-8.53603 L 879.717,-8.42519 L 880.204,-8.20836 L 880.635,-7.895 L 880.992,-7.49884 L 881.258,-7.03717
 L 881.423,-6.53017 L 881.479,-6 L 881.479,-0 L 1050.66,-0 L 1050.66,-6 L 1050.72,-6.53017
 L 1050.88,-7.03717 L 1051.15,-7.49884 L 1051.51,-7.895 L 1051.94,-8.20836 L 1052.43,-8.42519 L 1052.95,-8.53603
 L 1053.48,-8.53603 L 1054,-8.42519 L 1054.49,-8.20836 L 1054.92,-7.895 L 1055.28,-7.49884 L 1055.54,-7.03717
 L 1055.71,-6.53017 L 1055.76,-6 L 1055.76,-0 L 1224.95,-0 L 1224.95,-6 L 1225.01,-6.53017
 L 1225.17,-7.03717 L 1225.44,-7.49884 L 1225.79,-7.895 L 1226.22,-8.20836 L 1226.71,-8.42519 L 1227.23,-8.53603
 L 1227.77,-8.53603 L 1228.29,-8.42519 L 1228.77,-8.20836 L 1229.21,-7.895 L 1229.56,-7.49884 L 1229.83,-7.03717
 L 1229.99,-6.53017 L 1230.05,-6 L 1230.05,-0 L 1235,-0 z
M 6.98573,-55.607 L 6.47708,-55.6875 L 5.97964,-55.8208 L 5.49887,-56.0054 L 5.04001,-56.2392 L 4.60811,-56.5196
 L 4.20789,-56.8437 L 3.84373,-57.2079 L 3.51964,-57.6081 L 3.23917,-58.04 L 3.00537,-58.4989 L 2.82082,-58.9796
 L 2.68752,-59.4771 L 2.60696,-59.9857 L 2.58,-60.5 L 2.60696,-61.0143 L 2.68752,-61.5229 L 2.82082,-62.0204
 L 3.00537,-62.5011 L 3.23917,-62.96 L 3.51964,-63.3919 L 3.84373,-63.7921 L 4.20789,-64.1563 L 4.60811,-64.4804
 L 4.95001,-64.7024 L 4.95001,-74 L 5.00574,-74.5302 L 5.17047,-75.0372 L 5.43701,-75.4988 L 5.79373,-75.895
 L 6.22501,-76.2084 L 6.71202,-76.4252 L 7.23346,-76.536 L 7.76654,-76.536 L 8.28798,-76.4252 L 8.77499,-76.2084
 L 9.20627,-75.895 L 9.56299,-75.4988 L 9.82953,-75.0372 L 9.99426,-74.5302 L 10.05,-74 L 10.05,-64.7024
 L 10.3919,-64.4804 L 10.7921,-64.1563 L 11.1563,-63.7921 L 11.4804,-63.3919 L 11.7608,-62.96 L 11.9946,-62.5011
 L 12.1792,-62.0204 L 12.3125,-61.5229 L 12.393,-61.0143 L 12.42,-60.5 L 12.393,-59.9857 L 12.3125,-59.4771
 L 12.1792,-58.9796 L 11.9946,-58.4989 L 11.7608,-58.04 L 11.4804,-57.6081 L 11.1563,-57.2079 L 10.7921,-56.8437
 L 10.3919,-56.5196 L 9.95999,-56.2392 L 9.50113,-56.0054 L 9.02036,-55.8208 L 8.52292,-55.6875 L 8.01427,-55.607
 L 7.5,-55.58 z
M 181.271,-55.607 L 180.763,-55.6875 L 180.265,-55.8208 L 179.785,-56.0054 L 179.326,-56.2392 L 178.894,-56.5196
 L 178.494,-56.8437 L 178.129,-57.2079 L 177.805,-57.6081 L 177.525,-58.04 L 177.291,-58.4989 L 177.107,-58.9796
 L 176.973,-59.4771 L 176.893,-59.9857 L 176.866,-60.5 L 176.893,-61.0143 L 176.973,-61.5229 L 177.107,-62.0204
 L 177.291,-62.5011 L 177.525,-62.96 L 177.805,-63.3919 L 178.129,-63.7921 L 178.494,-64.1563 L 178.894,-64.4804
 L 179.236,-64.7024 L 179.236,-74 L 179.291,-74.5302 L 179.456,-75.0372 L 179.723,-75.4988 L 180.079,-75.895
 L 180.511,-76.2084 L 180.998,-76.4252 L 181.519,-76.536 L 182.052,-76.536 L 182.574,-76.4252 L 183.061,-76.2084
 L 183.492,-75.895 L 183.849,-75.4988 L 184.115,-75.0372 L 184.28,-74.5302 L 184.336,-74 L 184.336,-64.7024
 L 184.678,-64.4804 L 185.078,-64.1563 L 185.442,-63.7921 L 185.766,-63.3919 L 186.047,-62.96 L 186.28,-62.5011
 L 186.465,-62.0204 L 186.598,-61.5229 L 186.679,-61.0143 L 186.706,-60.5 L 186.679,-59.9857 L 186.598,-59.4771
 L 186.465,-58.9796 L 186.28,-58.4989 L 186.047,-58.04 L 185.766,-57.6081 L 185.442,-57.2079 L 185.078,-56.8437
 L 184.678,-56.5196 L 184.246,-56.2392 L 183.787,-56.0054 L 183.306,-55.8208 L 182.809,-55.6875 L 182.3,-55.607
 L 181.786,-55.58 z
M 355.557,-55.607 L 355.049,-55.6875 L 354.551,-55.8208 L 354.07,-56.0054 L 353.611,-56.2392 L 353.18,-56.5196
 L 352.779,-56.8437 L 352.415,-57.2079 L 352.091,-57.6081 L 351.811,-58.04 L 351.577,-58.4989 L 351.392,-58.9796
 L 351.259,-59.4771 L 351.178,-59.9857 L 351.151,-60.5 L 351.178,-61.0143 L 351.259,-61.5229 L 351.392,-62.0204
 L 351.577,-62.5011 L 351.811,-62.96 L 352.091,-63.3919 L 352.415,-63.7921 L 352.779,-64.1563 L 353.18,-64.4804
 L 353.521,-64.7024 L 353.521,-74 L 353.577,-74.5302 L 353.742,-75.0372 L 354.008,-75.4988 L 354.365,-75.895
 L 354.796,-76.2084 L 355.283,-76.4252 L 355.805,-76.536 L 356.338,-76.536 L 356.859,-76.4252 L 357.346,-76.2084
 L 357.778,-75.895 L 358.134,-75.4988 L 358.401,-75.0372 L 358.566,-74.5302 L 358.621,-74 L 358.621,-64.7024
 L 358.963,-64.4804 L 359.364,-64.1563 L 359.728,-63.7921 L 360.052,-63.3919 L 360.332,-62.96 L 360.566,-62.5011
 L 360.751,-62.0204 L 360.884,-61.5229 L 360.964,-61.0143 L 360.991,-60.5 L 360.964,-59.9857 L 360.884,-59.4771
 L 360.751,-58.9796 L 360.566,-58.4989 L 360.332,-58.04 L 360.052,-57.6081 L 359.728,-57.2079 L 359.364,-56.8437
 L 358.963,-56.5196 L 358.531,-56.2392 L 358.073,-56.0054 L 357.592,-55.8208 L 357.094,-55.6875 L 356.586,-55.607
 L 356.071,-55.58 z
M 529.843,-55.607 L 529.334,-55.6875 L 528.837,-55.8208 L 528.356,-56.0054 L 527.897,-56.2392 L 527.465,-56.5196
 L 527.065,-56.8437 L 526.701,-57.2079 L 526.377,-57.6081 L 526.096,-58.04 L 525.863,-58.4989 L 525.678,-58.9796
 L 525.545,-59.4771 L 525.464,-59.9857 L 525.437,-60.5 L 525.464,-61.0143 L 525.545,-61.5229 L 525.678,-62.0204
 L 525.863,-62.5011 L 526.096,-62.96 L 526.377,-63.3919 L 526.701,-63.7921 L 527.065,-64.1563 L 527.465,-64.4804
 L 527.807,-64.7024 L 527.807,-74 L 527.863,-74.5302 L 528.028,-75.0372 L 528.294,-75.4988 L 528.651,-75.895
 L 529.082,-76.2084 L 529.569,-76.4252 L 530.091,-76.536 L 530.624,-76.536 L 531.145,-76.4252 L 531.632,-76.2084
 L 532.063,-75.895 L 532.42,-75.4988 L 532.687,-75.0372 L 532.851,-74.5302 L 532.907,-74 L 532.907,-64.7024
 L 533.249,-64.4804 L 533.649,-64.1563 L 534.013,-63.7921 L 534.337,-63.3919 L 534.618,-62.96 L 534.852,-62.5011
 L 535.036,-62.0204 L 535.17,-61.5229 L 535.25,-61.0143 L 535.277,-60.5 L 535.25,-59.9857 L 535.17,-59.4771
 L 535.036,-58.9796 L 534.852,-58.4989 L 534.618,-58.04 L 534.337,-57.6081 L 534.013,-57.2079 L 533.649,-56.8437
 L 533.249,-56.5196 L 532.817,-56.2392 L 532.358,-56.0054 L 531.877,-55.8208 L 531.38,-55.6875 L 530.871,-55.607
 L 530.357,-55.58 z
M 704.129,-55.607 L 703.62,-55.6875 L 703.122,-55.8208 L 702.642,-56.0054 L 702.183,-56.2392 L 701.751,-56.5196
 L 701.351,-56.8437 L 700.987,-57.2079 L 700.662,-57.6081 L 700.382,-58.04 L 700.148,-58.4989 L 699.964,-58.9796
 L 699.83,-59.4771 L 699.75,-59.9857 L 699.723,-60.5 L 699.75,-61.0143 L 699.83,-61.5229 L 699.964,-62.0204
 L 700.148,-62.5011 L 700.382,-62.96 L 700.662,-63.3919 L 700.987,-63.7921 L 701.351,-64.1563 L 701.751,-64.4804
 L 702.093,-64.7024 L 702.093,-74 L 702.149,-74.5302 L 702.313,-75.0372 L 702.58,-75.4988 L 702.937,-75.895
 L 703.368,-76.2084 L 703.855,-76.4252 L 704.376,-76.536 L 704.909,-76.536 L 705.431,-76.4252 L 705.918,-76.2084
 L 706.349,-75.895 L 706.706,-75.4988 L 706.972,-75.0372 L 707.137,-74.5302 L 707.193,-74 L 707.193,-64.7024
 L 707.535,-64.4804 L 707.935,-64.1563 L 708.299,-63.7921 L 708.623,-63.3919 L 708.904,-62.96 L 709.137,-62.5011
 L 709.322,-62.0204 L 709.455,-61.5229 L 709.536,-61.0143 L 709.563,-60.5 L 709.536,-59.9857 L 709.455,-59.4771
 L 709.322,-58.9796 L 709.137,-58.4989 L 708.904,-58.04 L 708.623,-57.6081 L 708.299,-57.2079 L 707.935,-56.8437
 L 707.535,-56.5196 L 707.103,-56.2392 L 706.644,-56.0054 L 706.163,-55.8208 L 705.666,-55.6875 L 705.157,-55.607
 L 704.643,-55.58 z
M 878.414,-55.607 L 877.906,-55.6875 L 877.408,-55.8208 L 876.927,-56.0054 L 876.469,-56.2392 L 876.037,-56.5196
 L 875.636,-56.8437 L 875.272,-57.2079 L 874.948,-57.6081 L 874.668,-58.04 L 874.434,-58.4989 L 874.249,-58.9796
 L 874.116,-59.4771 L 874.036,-59.9857 L 874.009,-60.5 L 874.036,-61.0143 L 874.116,-61.5229 L 874.249,-62.0204
 L 874.434,-62.5011 L 874.668,-62.96 L 874.948,-63.3919 L 875.272,-63.7921 L 875.636,-64.1563 L 876.037,-64.4804
 L 876.379,-64.7024 L 876.379,-74 L 876.434,-74.5302 L 876.599,-75.0372 L 876.866,-75.4988 L 877.222,-75.895
 L 877.654,-76.2084 L 878.141,-76.4252 L 878.662,-76.536 L 879.195,-76.536 L 879.717,-76.4252 L 880.204,-76.2084
 L 880.635,-75.895 L 880.992,-75.4988 L 881.258,-75.0372 L 881.423,-74.5302 L 881.479,-74 L 881.479,-64.7024
 L 881.82,-64.4804 L 882.221,-64.1563 L 882.585,-63.7921 L 882.909,-63.3919 L 883.189,-62.96 L 883.423,-62.5011
 L 883.608,-62.0204 L 883.741,-61.5229 L 883.822,-61.0143 L 883.849,-60.5 L 883.822,-59.9857 L 883.741,-59.4771
 L 883.608,-58.9796 L 883.423,-58.4989 L 883.189,-58.04 L 882.909,-57.6081 L 882.585,-57.2079 L 882.221,-56.8437
 L 881.82,-56.5196 L 881.389,-56.2392 L 880.93,-56.0054 L 880.449,-55.8208 L 879.951,-55.6875 L 879.443,-55.607
 L 878.929,-55.58 z
M 1052.7,-55.607 L 1052.19,-55.6875 L 1051.69,-55.8208 L 1051.21,-56.0054 L 1050.75,-56.2392 L 1050.32,-56.5196
 L 1049.92,-56.8437 L 1049.56,-57.2079 L 1049.23,-57.6081 L 1048.95,-58.04 L 1048.72,-58.4989 L 1048.54,-58.9796
 L 1048.4,-59.4771 L 1048.32,-59.9857 L 1048.29,-60.5 L 1048.32,-61.0143 L 1048.4,-61.5229 L 1048.54,-62.0204
 L 1048.72,-62.5011 L 1048.95,-62.96 L 1049.23,-63.3919 L 1049.56,-63.7921 L 1049.92,-64.1563 L 1050.32,-64.4804
 L 1050.66,-64.7024 L 1050.66,-74 L 1050.72,-74.5302 L 1050.88,-75.0372 L 1051.15,-75.4988 L 1051.51,-75.895
 L 1051.94,-76.2084 L 1052.43,-76.4252 L 1052.95,-76.536 L 1053.48,-76.536 L 1054,-76.4252 L 1054.49,-76.2084
 L 1054.92,-75.895 L 1055.28,-75.4988 L 1055.54,-75.0372 L 1055.71,-74.5302 L 1055.76,-74 L 1055.76,-64.7024
 L 1056.11,-64.4804 L 1056.51,-64.1563 L 1056.87,-63.7921 L 1057.19,-63.3919 L 1057.48,-62.96 L 1057.71,-62.5011
 L 1057.89,-62.0204 L 1058.03,-61.5229 L 1058.11,-61.0143 L 1058.13,-60.5 L 1058.11,-59.9857 L 1058.03,-59.4771
 L 1057.89,-58.9796 L 1057.71,-58.4989 L 1057.48,-58.04 L 1057.19,-57.6081 L 1056.87,-57.2079 L 1056.51,-56.8437
 L 1056.11,-56.5196 L 1055.67,-56.2392 L 1055.22,-56.0054 L 1054.73,-55.8208 L 1054.24,-55.6875 L 1053.73,-55.607
 L 1053.21,-55.58 z
M 1226.99,-55.607 L 1226.48,-55.6875 L 1225.98,-55.8208 L 1225.5,-56.0054 L 1225.04,-56.2392 L 1224.61,-56.5196
 L 1224.21,-56.8437 L 1223.84,-57.2079 L 1223.52,-57.6081 L 1223.24,-58.04 L 1223.01,-58.4989 L 1222.82,-58.9796
 L 1222.69,-59.4771 L 1222.61,-59.9857 L 1222.58,-60.5 L 1222.61,-61.0143 L 1222.69,-61.5229 L 1222.82,-62.0204
 L 1223.01,-62.5011 L 1223.24,-62.96 L 1223.52,-63.3919 L 1223.84,-63.7921 L 1224.21,-64.1563 L 1224.61,-64.4804
 L 1224.95,-64.7024 L 1224.95,-74 L 1225.01,-74.5302 L 1225.17,-75.0372 L 1225.44,-75.4988 L 1225.79,-75.895
 L 1226.23,-76.2084 L 1226.71,-76.4252 L 1227.23,-76.536 L 1227.77,-76.536 L 1228.29,-76.4252 L 1228.77,-76.2084
 L 1229.21,-75.895 L 1229.56,-75.4988 L 1229.83,-75.0372 L 1229.99,-74.5302 L 1230.05,-74 L 1230.05,-64.7024
 L 1230.39,-64.4804 L 1230.79,-64.1563 L 1231.16,-63.7921 L 1231.48,-63.3919 L 1231.76,-62.96 L 1231.99,-62.5011
 L 1232.18,-62.0204 L 1232.31,-61.5229 L 1232.39,-61.0143 L 1232.42,-60.5 L 1232.39,-59.9857 L 1232.31,-59.4771
 L 1232.18,-58.9796 L 1231.99,-58.4989 L 1231.76,-58.04 L 1231.48,-57.6081 L 1231.16,-57.2079 L 1230.79,-56.8437
 L 1230.39,-56.5196 L 1229.96,-56.2392 L 1229.5,-56.0054 L 1229.02,-55.8208 L 1228.52,-55.6875 L 1228.01,-55.607
 L 1227.5,-55.58 z
M 716.629,-21.1419 L 715.846,-21.4373 L 715.143,-21.8889 L 714.548,-22.477 L 714.089,-23.1758 L 713.785,-23.9548
 L 713.643,-25.0112 L 713.643,-58 L 713.73,-58.8316 L 713.989,-59.627 L 714.407,-60.3511 L 714.966,-60.9726
 L 715.643,-61.4641 L 716.407,-61.8042 L 717.643,-62 L 802.194,-62 L 803.026,-61.9126 L 803.821,-61.6542
 L 804.545,-61.2361 L 805.166,-60.6765 L 805.658,-60 L 805.998,-59.2361 L 806.172,-58.4181 L 806.172,-57.5819
 L 805.998,-56.7639 L 805.658,-56 L 805.166,-55.3235 L 804.545,-54.7639 L 803.648,-54.2736 L 719.097,-21.2848
 L 718.29,-21.064 L 717.455,-21.0156 z
M 616.853,-47.8474 L 616.046,-48.0682 L 600.142,-54.2736 L 599.244,-54.7639 L 598.623,-55.3235 L 598.131,-56
 L 597.791,-56.7639 L 597.617,-57.5819 L 597.617,-58.4181 L 597.791,-59.2361 L 598.131,-60 L 598.623,-60.6765
 L 599.244,-61.2361 L 599.969,-61.6542 L 600.764,-61.9126 L 601.595,-62 L 633.404,-62 L 634.419,-61.8693
 L 635.201,-61.5739 L 635.905,-61.1223 L 636.499,-60.5343 L 636.959,-59.8355 L 637.262,-59.0564 L 637.398,-58.2312
 L 637.359,-57.3959 L 637.147,-56.587 L 636.771,-55.8399 L 636.248,-55.1871 L 635.601,-54.6573 L 634.858,-54.2736
 L 618.954,-48.0682 L 618.514,-47.9253 L 617.687,-47.799 z
M 516.71,-21.064 L 515.903,-21.2848 L 431.352,-54.2736 L 430.455,-54.7639 L 429.834,-55.3235 L 429.342,-56
 L 429.002,-56.7639 L 428.828,-57.5819 L 428.828,-58.4181 L 429.002,-59.2361 L 429.342,-60 L 429.834,-60.6765
 L 430.455,-61.2361 L 431.179,-61.6542 L 431.974,-61.9126 L 432.806,-62 L 517.357,-62 L 518.593,-61.8042
 L 519.357,-61.4641 L 520.034,-60.9726 L 520.593,-60.3511 L 521.011,-59.627 L 521.27,-58.8316 L 521.357,-58
 L 521.357,-25.0112 L 521.215,-23.9548 L 520.911,-23.1758 L 520.452,-22.477 L 519.857,-21.8889 L 519.154,-21.4373
 L 518.371,-21.1419 L 517.545,-21.0156 z
M 342.424,-21.064 L 341.617,-21.2848 L 257.066,-54.2736 L 256.169,-54.7639 L 255.548,-55.3235 L 255.056,-56
 L 254.716,-56.7639 L 254.542,-57.5819 L 254.542,-58.4181 L 254.716,-59.2361 L 255.056,-60 L 255.548,-60.6765
 L 256.169,-61.2361 L 256.893,-61.6542 L 257.689,-61.9126 L 258.52,-62 L 343.071,-62 L 344.307,-61.8042
 L 345.071,-61.4641 L 345.748,-60.9726 L 346.307,-60.3511 L 346.726,-59.627 L 346.984,-58.8316 L 347.071,-58
 L 347.071,-25.0112 L 346.929,-23.9548 L 346.625,-23.1758 L 346.166,-22.477 L 345.572,-21.8889 L 344.868,-21.4373
 L 344.085,-21.1419 L 343.259,-21.0156 z
M 1065.2,-21.1419 L 1064.42,-21.4373 L 1063.71,-21.8889 L 1063.12,-22.477 L 1062.66,-23.1758 L 1062.36,-23.9548
 L 1062.21,-25.0112 L 1062.21,-58 L 1062.3,-58.8316 L 1062.56,-59.627 L 1062.98,-60.3511 L 1063.54,-60.9726
 L 1064.21,-61.4641 L 1064.98,-61.8042 L 1066.21,-62 L 1150.77,-62 L 1151.6,-61.9126 L 1152.39,-61.6542
 L 1153.12,-61.2361 L 1153.74,-60.6765 L 1154.23,-60 L 1154.57,-59.2361 L 1154.74,-58.4181 L 1154.74,-57.5819
 L 1154.57,-56.7639 L 1154.23,-56 L 1153.74,-55.3235 L 1153.12,-54.7639 L 1152.22,-54.2736 L 1067.67,-21.2848
 L 1066.86,-21.064 L 1066.03,-21.0156 z
M 168.138,-21.064 L 167.332,-21.2848 L 82.7808,-54.2736 L 81.8835,-54.7639 L 81.2621,-55.3235 L 80.7706,-56
 L 80.4305,-56.7639 L 80.2566,-57.5819 L 80.2566,-58.4181 L 80.4305,-59.2361 L 80.7706,-60 L 81.2621,-60.6765
 L 81.8835,-61.2361 L 82.6077,-61.6542 L 83.403,-61.9126 L 84.2347,-62 L 168.786,-62 L 170.022,-61.8042
 L 170.786,-61.4641 L 171.462,-60.9726 L 172.022,-60.3511 L 172.44,-59.627 L 172.698,-58.8316 L 172.786,-58
 L 172.786,-25.0112 L 172.644,-23.9548 L 172.34,-23.1758 L 171.88,-22.477 L 171.286,-21.8889 L 170.582,-21.4373
 L 169.8,-21.1419 L 168.973,-21.0156 z
M 890.914,-21.1419 L 890.132,-21.4373 L 889.428,-21.8889 L 888.834,-22.477 L 888.375,-23.1758 L 888.071,-23.9548
 L 887.929,-25.0112 L 887.929,-58 L 888.016,-58.8316 L 888.274,-59.627 L 888.693,-60.3511 L 889.252,-60.9726
 L 889.929,-61.4641 L 890.693,-61.8042 L 891.929,-62 L 976.48,-62 L 977.311,-61.9126 L 978.107,-61.6542
 L 978.831,-61.2361 L 979.452,-60.6765 L 979.944,-60 L 980.284,-59.2361 L 980.458,-58.4181 L 980.458,-57.5819
 L 980.284,-56.7639 L 979.944,-56 L 979.452,-55.3235 L 978.831,-54.7639 L 977.934,-54.2736 L 893.382,-21.2848
 L 892.576,-21.064 L 891.741,-21.0156 z
M 542.939,-18.8887 L 542.121,-19.0625 L 541.357,-19.4027 L 540.681,-19.8942 L 540.121,-20.5156 L 539.703,-21.2398
 L 539.445,-22.0351 L 539.357,-22.8668 L 539.357,-57.1332 L 539.499,-58.1897 L 539.803,-58.9687 L 540.262,-59.6675
 L 540.857,-60.2556 L 541.561,-60.7072 L 542.343,-61.0025 L 543.17,-61.1288 L 544.005,-61.0805 L 544.811,-60.8596
 L 588.724,-43.7264 L 589.77,-43.1223 L 590.365,-42.5343 L 590.824,-41.8355 L 591.128,-41.0564 L 591.263,-40.2312
 L 591.224,-39.3959 L 591.012,-38.587 L 590.637,-37.8399 L 590.114,-37.1871 L 589.467,-36.6573 L 588.724,-36.2736
 L 544.811,-19.1404 L 543.775,-18.8887 z
M 690.995,-18.9195 L 690.189,-19.1404 L 646.276,-36.2736 L 645.23,-36.8777 L 644.635,-37.4657 L 644.176,-38.1645
 L 643.872,-38.9436 L 643.737,-39.7688 L 643.776,-40.6041 L 643.988,-41.413 L 644.363,-42.1601 L 644.886,-42.8129
 L 645.533,-43.3427 L 646.276,-43.7264 L 690.189,-60.8596 L 691.225,-61.1113 L 692.061,-61.1113 L 692.879,-60.9375
 L 693.643,-60.5973 L 694.319,-60.1058 L 694.879,-59.4844 L 695.297,-58.7602 L 695.555,-57.9649 L 695.643,-57.1332
 L 695.643,-22.8668 L 695.501,-21.8103 L 695.197,-21.0313 L 694.738,-20.3325 L 694.143,-19.7444 L 693.439,-19.2928
 L 692.657,-18.9974 L 691.83,-18.8712 z
M 194.786,-18 L 193.55,-18.1958 L 192.786,-18.5359 L 192.109,-19.0274 L 191.55,-19.6489 L 191.132,-20.373
 L 190.873,-21.1684 L 190.786,-22 L 190.786,-54.9888 L 190.928,-56.0452 L 191.232,-56.8242 L 191.691,-57.523
 L 192.285,-58.1111 L 192.989,-58.5627 L 193.772,-58.8581 L 194.598,-58.9844 L 195.433,-58.936 L 196.24,-58.7152
 L 280.791,-25.7264 L 281.688,-25.2361 L 282.309,-24.6765 L 282.801,-24 L 283.141,-23.2361 L 283.315,-22.4181
 L 283.315,-21.5819 L 283.141,-20.7639 L 282.801,-20 L 282.309,-19.3235 L 281.688,-18.7639 L 280.964,-18.3458
 L 280.168,-18.0874 L 279.337,-18 z
M 369.071,-18 L 367.835,-18.1958 L 367.071,-18.5359 L 366.395,-19.0274 L 365.835,-19.6489 L 365.417,-20.373
 L 365.159,-21.1684 L 365.071,-22 L 365.071,-54.9888 L 365.213,-56.0452 L 365.517,-56.8242 L 365.977,-57.523
 L 366.571,-58.1111 L 367.275,-58.5627 L 368.057,-58.8581 L 368.884,-58.9844 L 369.719,-58.936 L 370.525,-58.7152
 L 455.076,-25.7264 L 455.974,-25.2361 L 456.595,-24.6765 L 457.087,-24 L 457.427,-23.2361 L 457.601,-22.4181
 L 457.601,-21.5819 L 457.427,-20.7639 L 457.087,-20 L 456.595,-19.3235 L 455.974,-18.7639 L 455.249,-18.3458
 L 454.454,-18.0874 L 453.622,-18 z
M 781.378,-18 L 780.546,-18.0874 L 779.751,-18.3458 L 779.026,-18.7639 L 778.405,-19.3235 L 777.913,-20
 L 777.573,-20.7639 L 777.399,-21.5819 L 777.399,-22.4181 L 777.573,-23.2361 L 777.913,-24 L 778.405,-24.6765
 L 779.026,-25.2361 L 779.924,-25.7264 L 864.475,-58.7152 L 865.281,-58.936 L 866.116,-58.9844 L 866.943,-58.8581
 L 867.725,-58.5627 L 868.429,-58.1111 L 869.023,-57.523 L 869.483,-56.8242 L 869.787,-56.0452 L 869.929,-54.9888
 L 869.929,-22 L 869.841,-21.1684 L 869.583,-20.373 L 869.165,-19.6489 L 868.605,-19.0274 L 867.929,-18.5359
 L 867.165,-18.1958 L 865.929,-18 z
M 955.663,-18 L 954.832,-18.0874 L 954.036,-18.3458 L 953.312,-18.7639 L 952.691,-19.3235 L 952.199,-20
 L 951.859,-20.7639 L 951.685,-21.5819 L 951.685,-22.4181 L 951.859,-23.2361 L 952.199,-24 L 952.691,-24.6765
 L 953.312,-25.2361 L 954.209,-25.7264 L 1038.76,-58.7152 L 1039.57,-58.936 L 1040.4,-58.9844 L 1041.23,-58.8581
 L 1042.01,-58.5627 L 1042.71,-58.1111 L 1043.31,-57.523 L 1043.77,-56.8242 L 1044.07,-56.0452 L 1044.21,-54.9888
 L 1044.21,-22 L 1044.13,-21.1684 L 1043.87,-20.373 L 1043.45,-19.6489 L 1042.89,-19.0274 L 1042.21,-18.5359
 L 1041.45,-18.1958 L 1040.21,-18 z
M 22,-18 L 20.7639,-18.1958 L 20,-18.5359 L 19.3235,-19.0274 L 18.7639,-19.6489 L 18.3458,-20.373
 L 18.0874,-21.1684 L 18,-22 L 18,-54.4035 L 18.142,-55.4599 L 18.446,-56.239 L 18.9053,-56.9378
 L 19.4998,-57.5258 L 20.2036,-57.9774 L 20.9859,-58.2728 L 21.8125,-58.3991 L 22.6474,-58.3508 L 23.4539,-58.1299
 L 106.505,-25.7264 L 107.402,-25.2361 L 108.024,-24.6765 L 108.515,-24 L 108.855,-23.2361 L 109.029,-22.4181
 L 109.029,-21.5819 L 108.855,-20.7639 L 108.515,-20 L 108.024,-19.3235 L 107.402,-18.7639 L 106.678,-18.3458
 L 105.883,-18.0874 L 105.051,-18 z
M 1129.95,-18 L 1129.12,-18.0874 L 1128.32,-18.3458 L 1127.6,-18.7639 L 1126.98,-19.3235 L 1126.48,-20
 L 1126.14,-20.7639 L 1125.97,-21.5819 L 1125.97,-22.4181 L 1126.14,-23.2361 L 1126.48,-24 L 1126.98,-24.6765
 L 1127.6,-25.2361 L 1128.5,-25.7264 L 1211.55,-58.1299 L 1212.35,-58.3508 L 1213.19,-58.3991 L 1214.01,-58.2728
 L 1214.8,-57.9774 L 1215.5,-57.5258 L 1216.09,-56.9378 L 1216.55,-56.239 L 1216.86,-55.4599 L 1217,-54.4035
 L 1217,-22 L 1216.91,-21.1684 L 1216.65,-20.373 L 1216.24,-19.6489 L 1215.68,-19.0274 L 1215,-18.5359
 L 1214.24,-18.1958 L 1213,-18 z
M 601.595,-18 L 600.581,-18.1307 L 599.799,-18.4261 L 599.095,-18.8777 L 598.501,-19.4657 L 598.041,-20.1645
 L 597.737,-20.9436 L 597.602,-21.7688 L 597.641,-22.6041 L 597.853,-23.413 L 598.229,-24.1601 L 598.752,-24.8129
 L 599.399,-25.3427 L 600.142,-25.7264 L 616.046,-31.9318 L 616.486,-32.0747 L 617.313,-32.201 L 618.147,-32.1526
 L 618.954,-31.9318 L 634.858,-25.7264 L 635.756,-25.2361 L 636.377,-24.6765 L 636.869,-24 L 637.209,-23.2361
 L 637.383,-22.4181 L 637.383,-21.5819 L 637.209,-20.7639 L 636.869,-20 L 636.377,-19.3235 L 635.756,-18.7639
 L 635.031,-18.3458 L 634.236,-18.0874 L 633.404,-18 z
" stroke="black" fill="lightgray" stroke-width="0.5"/>
</svg>
