<?xml version="1.0" standalone="no"?>
<!DOCTYPE svg PUBLIC "-//W3C//DTD SVG 1.1//EN" "http://www.w3.org/Graphics/SVG/1.1/DTD/svg11.dtd">
<svg width="1080mm" height="80mm" viewBox="0 -80 1080 80" xmlns="http://www.w3.org/2000/svg" version="1.1">
<title>OpenSCAD Model</title>
<path d="
M 1080,-80 L 0,-80 L 0,-0 L 4.95,-0 L 4.95,-6 L 5.00572,-6.53017
 L 5.17046,-7.03717 L 5.437,-7.49884 L 5.79372,-7.895 L 6.22499,-8.20836 L 6.71201,-8.42519 L 7.23344,-8.53603
 L 7.76654,-8.53603 L 8.28798,-8.42519 L 8.77499,-8.20836 L 9.20627,-7.895 L 9.56299,-7.49884 L 9.82953,-7.03717
 L 9.99426,-6.53017 L 10.05,-6 L 10.05,-0 L 182.45,-0 L 182.45,-6 L 182.506,-6.53017
 L 182.67,-7.03717 L 182.937,-7.49884 L 183.294,-7.895 L 183.725,-8.20836 L 184.212,-8.42519 L 184.733,-8.53603
 L 185.267,-8.53603 L 185.788,-8.42519 L 186.275,-8.20836 L 186.706,-7.895 L 187.063,-7.49884 L 187.33,-7.03717
 L 187.494,-6.53017 L 187.55,-6 L 187.55,-0 L 359.95,-0 L 359.95,-6 L 360.006,-6.53017
 L 360.17,-7.03717 L 360.437,-7.49884 L 360.794,-7.895 L 361.225,-8.20836 L 361.712,-8.42519 L 362.233,-8.53603
 L 362.767,-8.53603 L 363.288,-8.42519 L 363.775,-8.20836 L 364.206,-7.895 L 364.563,-7.49884 L 364.83,-7.03717
 L 364.994,-6.53017 L 365.05,-6 L 365.05,-0 L 537.45,-0 L 537.45,-6 L 537.506,-6.53017
 L 537.67,-7.03717 L 537.937,-7.49884 L 538.294,-7.895 L 538.725,-8.20836 L 539.212,-8.42519 L 539.733,-8.53603
 L 540.267,-8.53603 L 540.788,-8.42519 L 541.275,-8.20836 L 541.706,-7.895 L 542.063,-7.49884 L 542.33,-7.03717
 L 542.494,-6.53017 L 542.55,-6 L 542.55,-0 L 714.95,-0 L 714.95,-6 L 715.006,-6.53017
 L 715.17,-7.03717 L 715.437,-7.49884 L 715.794,-7.895 L 716.225,-8.20836 L 716.712,-8.42519 L 717.233,-8.53603
 L 717.767,-8.53603 L 718.288,-8.42519 L 718.775,-8.20836 L 719.206,-7.895 L 719.563,-7.49884 L 719.83,-7.03717
 L 719.994,-6.53017 L 720.05,-6 L 720.05,-0 L 892.45,-0 L 892.45,-6 L 892.506,-6.53017
 L 892.67,-7.03717 L 892.937,-7.49884 L 893.294,-7.895 L 893.725,-8.20836 L 894.212,-8.42519 L 894.733,-8.53603
 L 895.267,-8.53603 L 895.788,-8.42519 L 896.275,-8.20836 L 896.706,-7.895 L 897.063,-7.49884 L 897.33,-7.03717
 L 897.494,-6.53017 L 897.55,-6 L 897.55,-0 L 1069.95,-0 L 1069.95,-6 L 1070.01,-6.53017
 L 1070.17,-7.03717 L 1070.44,-7.49884 L 1070.79,-7.895 L 1071.22,-8.20836 L 1071.71,-8.42519 L 1072.23,-8.53603
 L 1072.77,-8.53603 L 1073.29,-8.42519 L 1073.77,-8.20836 L 1074.21,-7.895 L 1074.56,-7.49884 L 1074.83,-7.03717
 L 1074.99,-6.53017 L 1075.05,-6 L 1075.05,-0 L 1080,-0 z
M 6.98573,-55.607 L 6.47708,-55.6875 L 5.97964,-55.8208 L 5.49887,-56.0054 L 5.04001,-56.2392 L 4.60811,-56.5196
 L 4.20789,-56.8437 L 3.84373,-57.2079 L 3.51964,-57.6081 L 3.23917,-58.04 L 3.00537,-58.4989 L 2.82082,-58.9796
 L 2.68752,-59.4771 L 2.60696,-59.9857 L 2.58,-60.5 L 2.60696,-61.0143 L 2.68752,-61.5229 L 2.82082,-62.0204
 L 3.00537,-62.5011 L 3.23917,-62.96 L 3.51964,-63.3919 L 3.84373,-63.7921 L 4.20789,-64.1563 L 4.60811,-64.4804
 L 4.95001,-64.7024 L 4.95001,-74 L 5.00574,-74.5302 L 5.17047,-75.0372 L 5.43701,-75.4988 L 5.79373,-75.895
 L 6.22501,-76.2084 L 6.71202,-76.4252 L 7.23346,-76.536 L 7.76654,-76.536 L 8.28798,-76.4252 L 8.77499,-76.2084
 L 9.20627,-75.895 L 9.56299,-75.4988 L 9.82953,-75.0372 L 9.99426,-74.5302 L 10.05,-74 L 10.05,-64.7024
 L 10.3919,-64.4804 L 10.7921,-64.1563 L 11.1563,-63.7921 L 11.4804,-63.3919 L 11.7608,-62.96 L 11.9946,-62.5011
 L 12.1792,-62.0204 L 12.3125,-61.5229 L 12.393,-61.0143 L 12.42,-60.5 L 12.393,-59.9857 L 12.3125,-59.4771
 L 12.1792,-58.9796 L 11.9946,-58.4989 L 11.7608,-58.04 L 11.4804,-57.6081 L 11.1563,-57.2079 L 10.7921,-56.8437
 L 10.3919,-56.5196 L 9.95999,-56.2392 L 9.50113,-56.0054 L 9.02036,-55.8208 L 8.52292,-55.6875 L 8.01427,-55.607
 L 7.5,-55.58 z
M 184.486,-55.607 L 183.977,-55.6875 L 183.48,-55.8208 L 182.999,-56.0054 L 182.54,-56.2392 L 182.108,-56.5196
 L 181.708,-56.8437 L 181.344,-57.2079 L 181.02,-57.6081 L 180.739,-58.04 L 180.505,-58.4989 L 180.321,-58.9796
 L 180.188,-59.4771 L 180.107,-59.9857 L 180.08,-60.5 L 180.107,-61.0143 L 180.188,-61.5229 L 180.321,-62.0204
 L 180.505,-62.5011 L 180.739,-62.96 L 181.02,-63.3919 L 181.344,-63.7921 L 181.708,-64.1563 L 182.108,-64.4804
 L 182.45,-64.7024 L 182.45,-74 L 182.506,-74.5302 L 182.67,-75.0372 L 182.937,-75.4988 L 183.294,-75.895
 L 183.725,-76.2084 L 184.212,-76.4252 L 184.733,-76.536 L 185.267,-76.536 L 185.788,-76.4252 L 186.275,-76.2084
 L 186.706,-75.895 L 187.063,-75.4988 L 187.33,-75.0372 L 187.494,-74.5302 L 187.55,-74 L 187.55,-64.7024
 L 187.892,-64.4804 L 188.292,-64.1563 L 188.656,-63.7921 L 188.98,-63.3919 L 189.261,-62.96 L 189.495,-62.5011
 L 189.679,-62.0204 L 189.812,-61.5229 L 189.893,-61.0143 L 189.92,-60.5 L 189.893,-59.9857 L 189.812,-59.4771
 L 189.679,-58.9796 L 189.495,-58.4989 L 189.261,-58.04 L 188.98,-57.6081 L 188.656,-57.2079 L 188.292,-56.8437
 L 187.892,-56.5196 L 187.46,-56.2392 L 187.001,-56.0054 L 186.52,-55.8208 L 186.023,-55.6875 L 185.514,-55.607
 L 185,-55.58 z
M 361.986,-55.607 L 361.477,-55.6875 L 360.98,-55.8208 L 360.499,-56.0054 L 360.04,-56.2392 L 359.608,-56.5196
 L 359.208,-56.8437 L 358.844,-57.2079 L 358.52,-57.6081 L 358.239,-58.04 L 358.005,-58.4989 L 357.821,-58.9796
 L 357.688,-59.4771 L 357.607,-59.9857 L 357.58,-60.5 L 357.607,-61.0143 L 357.688,-61.5229 L 357.821,-62.0204
 L 358.005,-62.5011 L 358.239,-62.96 L 358.52,-63.3919 L 358.844,-63.7921 L 359.208,-64.1563 L 359.608,-64.4804
 L 359.95,-64.7024 L 359.95,-74 L 360.006,-74.5302 L 360.17,-75.0372 L 360.437,-75.4988 L 360.794,-75.895
 L 361.225,-76.2084 L 361.712,-76.4252 L 362.233,-76.536 L 362.767,-76.536 L 363.288,-76.4252 L 363.775,-76.2084
 L 364.206,-75.895 L 364.563,-75.4988 L 364.83,-75.0372 L 364.994,-74.5302 L 365.05,-74 L 365.05,-64.7024
 L 365.392,-64.4804 L 365.792,-64.1563 L 366.156,-63.7921 L 366.48,-63.3919 L 366.761,-62.96 L 366.995,-62.5011
 L 367.179,-62.0204 L 367.312,-61.5229 L 367.393,-61.0143 L 367.42,-60.5 L 367.393,-59.9857 L 367.312,-59.4771
 L 367.179,-58.9796 L 366.995,-58.4989 L 366.761,-58.04 L 366.48,-57.6081 L 366.156,-57.2079 L 365.792,-56.8437
 L 365.392,-56.5196 L 364.96,-56.2392 L 364.501,-56.0054 L 364.02,-55.8208 L 363.523,-55.6875 L 363.014,-55.607
 L 362.5,-55.58 z
M 539.486,-55.607 L 538.977,-55.6875 L 538.48,-55.8208 L 537.999,-56.0054 L 537.54,-56.2392 L 537.108,-56.5196
 L 536.708,-56.8437 L 536.344,-57.2079 L 536.02,-57.6081 L 535.739,-58.04 L 535.505,-58.4989 L 535.321,-58.9796
 L 535.188,-59.4771 L 535.107,-59.9857 L 535.08,-60.5 L 535.107,-61.0143 L 535.188,-61.5229 L 535.321,-62.0204
 L 535.505,-62.5011 L 535.739,-62.96 L 536.02,-63.3919 L 536.344,-63.7921 L 536.708,-64.1563 L 537.108,-64.4804
 L 537.45,-64.7024 L 537.45,-74 L 537.506,-74.5302 L 537.67,-75.0372 L 537.937,-75.4988 L 538.294,-75.895
 L 538.725,-76.2084 L 539.212,-76.4252 L 539.733,-76.536 L 540.267,-76.536 L 540.788,-76.4252 L 541.275,-76.2084
 L 541.706,-75.895 L 542.063,-75.4988 L 542.33,-75.0372 L 542.494,-74.5302 L 542.55,-74 L 542.55,-64.7024
 L 542.892,-64.4804 L 543.292,-64.1563 L 543.656,-63.7921 L 543.98,-63.3919 L 544.261,-62.96 L 544.495,-62.5011
 L 544.679,-62.0204 L 544.812,-61.5229 L 544.893,-61.0143 L 544.92,-60.5 L 544.893,-59.9857 L 544.812,-59.4771
 L 544.679,-58.9796 L 544.495,-58.4989 L 544.261,-58.04 L 543.98,-57.6081 L 543.656,-57.2079 L 543.292,-56.8437
 L 542.892,-56.5196 L 542.46,-56.2392 L 542.001,-56.0054 L 541.52,-55.8208 L 541.023,-55.6875 L 540.514,-55.607
 L 540,-55.58 z
M 716.986,-55.607 L 716.477,-55.6875 L 715.98,-55.8208 L 715.499,-56.0054 L 715.04,-56.2392 L 714.608,-56.5196
 L 714.208,-56.8437 L 713.844,-57.2079 L 713.52,-57.6081 L 713.239,-58.04 L 713.005,-58.4989 L 712.821,-58.9796
 L 712.688,-59.4771 L 712.607,-59.9857 L 712.58,-60.5 L 712.607,-61.0143 L 712.688,-61.5229 L 712.821,-62.0204
 L 713.005,-62.5011 L 713.239,-62.96 L 713.52,-63.3919 L 713.844,-63.7921 L 714.208,-64.1563 L 714.608,-64.4804
 L 714.95,-64.7024 L 714.95,-74 L 715.006,-74.5302 L 715.17,-75.0372 L 715.437,-75.4988 L 715.794,-75.895
 L 716.225,-76.2084 L 716.712,-76.4252 L 717.233,-76.536 L 717.767,-76.536 L 718.288,-76.4252 L 718.775,-76.2084
 L 719.206,-75.895 L 719.563,-75.4988 L 719.83,-75.0372 L 719.994,-74.5302 L 720.05,-74 L 720.05,-64.7024
 L 720.392,-64.4804 L 720.792,-64.1563 L 721.156,-63.7921 L 721.48,-63.3919 L 721.761,-62.96 L 721.995,-62.5011
 L 722.179,-62.0204 L 722.312,-61.5229 L 722.393,-61.0143 L 722.42,-60.5 L 722.393,-59.9857 L 722.312,-59.4771
 L 722.179,-58.9796 L 721.995,-58.4989 L 721.761,-58.04 L 721.48,-57.6081 L 721.156,-57.2079 L 720.792,-56.8437
 L 720.392,-56.5196 L 719.96,-56.2392 L 719.501,-56.0054 L 719.02,-55.8208 L 718.523,-55.6875 L 718.014,-55.607
 L 717.5,-55.58 z
M 894.486,-55.607 L 893.977,-55.6875 L 893.48,-55.8208 L 892.999,-56.0054 L 892.54,-56.2392 L 892.108,-56.5196
 L 891.708,-56.8437 L 891.344,-57.2079 L 891.02,-57.6081 L 890.739,-58.04 L 890.505,-58.4989 L 890.321,-58.9796
 L 890.188,-59.4771 L 890.107,-59.9857 L 890.08,-60.5 L 890.107,-61.0143 L 890.188,-61.5229 L 890.321,-62.0204
 L 890.505,-62.5011 L 890.739,-62.96 L 891.02,-63.3919 L 891.344,-63.7921 L 891.708,-64.1563 L 892.108,-64.4804
 L 892.45,-64.7024 L 892.45,-74 L 892.506,-74.5302 L 892.67,-75.0372 L 892.937,-75.4988 L 893.294,-75.895
 L 893.725,-76.2084 L 894.212,-76.4252 L 894.733,-76.536 L 895.267,-76.536 L 895.788,-76.4252 L 896.275,-76.2084
 L 896.706,-75.895 L 897.063,-75.4988 L 897.33,-75.0372 L 897.494,-74.5302 L 897.55,-74 L 897.55,-64.7024
 L 897.892,-64.4804 L 898.292,-64.1563 L 898.656,-63.7921 L 898.98,-63.3919 L 899.261,-62.96 L 899.495,-62.5011
 L 899.679,-62.0204 L 899.812,-61.5229 L 899.893,-61.0143 L 899.92,-60.5 L 899.893,-59.9857 L 899.812,-59.4771
 L 899.679,-58.9796 L 899.495,-58.4989 L 899.261,-58.04 L 898.98,-57.6081 L 898.656,-57.2079 L 898.292,-56.8437
 L 897.892,-56.5196 L 897.46,-56.2392 L 897.001,-56.0054 L 896.52,-55.8208 L 896.023,-55.6875 L 895.514,-55.607
 L 895,-55.58 z
M 1071.99,-55.607 L 1071.48,-55.6875 L 1070.98,-55.8208 L 1070.5,-56.0054 L 1070.04,-56.2392 L 1069.61,-56.5196
 L 1069.21,-56.8437 L 1068.84,-57.2079 L 1068.52,-57.6081 L 1068.24,-58.04 L 1068.01,-58.4989 L 1067.82,-58.9796
 L 1067.69,-59.4771 L 1067.61,-59.9857 L 1067.58,-60.5 L 1067.61,-61.0143 L 1067.69,-61.5229 L 1067.82,-62.0204
 L 1068.01,-62.5011 L 1068.24,-62.96 L 1068.52,-63.3919 L 1068.84,-63.7921 L 1069.21,-64.1563 L 1069.61,-64.4804
 L 1069.95,-64.7024 L 1069.95,-74 L 1070.01,-74.5302 L 1070.17,-75.0372 L 1070.44,-75.4988 L 1070.79,-75.895
 L 1071.23,-76.2084 L 1071.71,-76.4252 L 1072.23,-76.536 L 1072.77,-76.536 L 1073.29,-76.4252 L 1073.77,-76.2084
 L 1074.21,-75.895 L 1074.56,-75.4988 L 1074.83,-75.0372 L 1074.99,-74.5302 L 1075.05,-74 L 1075.05,-64.7024
 L 1075.39,-64.4804 L 1075.79,-64.1563 L 1076.16,-63.7921 L 1076.48,-63.3919 L 1076.76,-62.96 L 1076.99,-62.5011
 L 1077.18,-62.0204 L 1077.31,-61.5229 L 1077.39,-61.0143 L 1077.42,-60.5 L 1077.39,-59.9857 L 1077.31,-59.4771
 L 1077.18,-58.9796 L 1076.99,-58.4989 L 1076.76,-58.04 L 1076.48,-57.6081 L 1076.16,-57.2079 L 1075.79,-56.8437
 L 1075.39,-56.5196 L 1074.96,-56.2392 L 1074.5,-56.0054 L 1074.02,-55.8208 L 1073.52,-55.6875 L 1073.01,-55.607
 L 1072.5,-55.58 z
M 906.962,-21.02 L 906.182,-21.3202 L 905.481,-21.7761 L 904.89,-22.3678 L 904.435,-23.0694 L 904.136,-23.8503
 L 904,-24.883 L 904,-58 L 904.087,-58.8316 L 904.346,-59.627 L 904.764,-60.3511 L 905.323,-60.9726
 L 906,-61.4641 L 906.764,-61.8042 L 908,-62 L 994.445,-62 L 995.277,-61.9126 L 996.072,-61.6542
 L 996.796,-61.2361 L 997.418,-60.6765 L 997.909,-60 L 998.249,-59.2361 L 998.423,-58.4181 L 998.423,-57.5819
 L 998.249,-56.7639 L 997.909,-56 L 997.418,-55.3235 L 996.796,-54.7639 L 995.876,-54.2647 L 909.431,-21.1477
 L 908.623,-20.9318 L 907.788,-20.8886 z
M 348.877,-20.9318 L 348.069,-21.1477 L 261.624,-54.2647 L 260.704,-54.7639 L 260.082,-55.3235 L 259.591,-56
 L 259.251,-56.7639 L 259.077,-57.5819 L 259.077,-58.4181 L 259.251,-59.2361 L 259.591,-60 L 260.082,-60.6765
 L 260.704,-61.2361 L 261.428,-61.6542 L 262.223,-61.9126 L 263.055,-62 L 349.5,-62 L 350.736,-61.8042
 L 351.5,-61.4641 L 352.177,-60.9726 L 352.736,-60.3511 L 353.154,-59.627 L 353.413,-58.8316 L 353.5,-58
 L 353.5,-24.883 L 353.364,-23.8503 L 353.065,-23.0694 L 352.61,-22.3678 L 352.019,-21.7761 L 351.318,-21.3202
 L 350.538,-21.02 L 349.712,-20.8886 z
M 171.377,-20.9318 L 170.569,-21.1477 L 84.1239,-54.2647 L 83.2037,-54.7639 L 82.5823,-55.3235 L 82.0908,-56
 L 81.7506,-56.7639 L 81.5768,-57.5819 L 81.5768,-58.4181 L 81.7506,-59.2361 L 82.0908,-60 L 82.5823,-60.6765
 L 83.2037,-61.2361 L 83.9279,-61.6542 L 84.7232,-61.9126 L 85.5549,-62 L 172,-62 L 173.236,-61.8042
 L 174,-61.4641 L 174.677,-60.9726 L 175.236,-60.3511 L 175.654,-59.627 L 175.913,-58.8316 L 176,-58
 L 176,-24.883 L 175.864,-23.8503 L 175.565,-23.0694 L 175.11,-22.3678 L 174.519,-21.7761 L 173.818,-21.3202
 L 173.038,-21.02 L 172.212,-20.8886 z
M 526.377,-20.9318 L 525.569,-21.1477 L 439.124,-54.2647 L 438.204,-54.7639 L 437.582,-55.3235 L 437.091,-56
 L 436.751,-56.7639 L 436.577,-57.5819 L 436.577,-58.4181 L 436.751,-59.2361 L 437.091,-60 L 437.582,-60.6765
 L 438.204,-61.2361 L 438.928,-61.6542 L 439.723,-61.9126 L 440.555,-62 L 527,-62 L 528.236,-61.8042
 L 529,-61.4641 L 529.677,-60.9726 L 530.236,-60.3511 L 530.654,-59.627 L 530.913,-58.8316 L 531,-58
 L 531,-24.883 L 530.864,-23.8503 L 530.565,-23.0694 L 530.11,-22.3678 L 529.519,-21.7761 L 528.818,-21.3202
 L 528.038,-21.02 L 527.212,-20.8886 z
M 551.962,-21.02 L 551.182,-21.3202 L 550.481,-21.7761 L 549.89,-22.3678 L 549.435,-23.0694 L 549.136,-23.8503
 L 549,-24.883 L 549,-58 L 549.087,-58.8316 L 549.346,-59.627 L 549.764,-60.3511 L 550.323,-60.9726
 L 551,-61.4641 L 551.764,-61.8042 L 553,-62 L 639.445,-62 L 640.277,-61.9126 L 641.072,-61.6542
 L 641.796,-61.2361 L 642.418,-60.6765 L 642.909,-60 L 643.249,-59.2361 L 643.423,-58.4181 L 643.423,-57.5819
 L 643.249,-56.7639 L 642.909,-56 L 642.418,-55.3235 L 641.796,-54.7639 L 640.876,-54.2647 L 554.431,-21.1477
 L 553.623,-20.9318 L 552.788,-20.8886 z
M 729.462,-21.02 L 728.682,-21.3202 L 727.981,-21.7761 L 727.39,-22.3678 L 726.935,-23.0694 L 726.636,-23.8503
 L 726.5,-24.883 L 726.5,-58 L 726.587,-58.8316 L 726.846,-59.627 L 727.264,-60.3511 L 727.823,-60.9726
 L 728.5,-61.4641 L 729.264,-61.8042 L 730.5,-62 L 816.945,-62 L 817.777,-61.9126 L 818.572,-61.6542
 L 819.296,-61.2361 L 819.918,-60.6765 L 820.409,-60 L 820.749,-59.2361 L 820.923,-58.4181 L 820.923,-57.5819
 L 820.749,-56.7639 L 820.409,-56 L 819.918,-55.3235 L 819.296,-54.7639 L 818.376,-54.2647 L 731.931,-21.1477
 L 731.123,-20.9318 L 730.288,-20.8886 z
M 198,-18 L 196.764,-18.1958 L 196,-18.5359 L 195.323,-19.0274 L 194.764,-19.6489 L 194.346,-20.373
 L 194.087,-21.1684 L 194,-22 L 194,-55.117 L 194.136,-56.1497 L 194.435,-56.9306 L 194.89,-57.6322
 L 195.481,-58.2239 L 196.182,-58.6798 L 196.962,-58.98 L 197.788,-59.1114 L 198.623,-59.0682 L 199.431,-58.8523
 L 285.876,-25.7353 L 286.796,-25.2361 L 287.418,-24.6765 L 287.909,-24 L 288.249,-23.2361 L 288.423,-22.4181
 L 288.423,-21.5819 L 288.249,-20.7639 L 287.909,-20 L 287.418,-19.3235 L 286.796,-18.7639 L 286.072,-18.3458
 L 285.277,-18.0874 L 284.445,-18 z
M 375.5,-18 L 374.264,-18.1958 L 373.5,-18.5359 L 372.823,-19.0274 L 372.264,-19.6489 L 371.846,-20.373
 L 371.587,-21.1684 L 371.5,-22 L 371.5,-55.117 L 371.636,-56.1497 L 371.935,-56.9306 L 372.39,-57.6322
 L 372.981,-58.2239 L 373.682,-58.6798 L 374.462,-58.98 L 375.288,-59.1114 L 376.123,-59.0682 L 376.931,-58.8523
 L 463.376,-25.7353 L 464.296,-25.2361 L 464.918,-24.6765 L 465.409,-24 L 465.749,-23.2361 L 465.923,-22.4181
 L 465.923,-21.5819 L 465.749,-20.7639 L 465.409,-20 L 464.918,-19.3235 L 464.296,-18.7639 L 463.572,-18.3458
 L 462.777,-18.0874 L 461.945,-18 z
M 618.055,-18 L 617.223,-18.0874 L 616.428,-18.3458 L 615.704,-18.7639 L 615.082,-19.3235 L 614.591,-20
 L 614.251,-20.7639 L 614.077,-21.5819 L 614.077,-22.4181 L 614.251,-23.2361 L 614.591,-24 L 615.082,-24.6765
 L 615.704,-25.2361 L 616.624,-25.7353 L 703.069,-58.8523 L 703.877,-59.0682 L 704.712,-59.1114 L 705.538,-58.98
 L 706.318,-58.6798 L 707.019,-58.2239 L 707.61,-57.6322 L 708.065,-56.9306 L 708.364,-56.1497 L 708.5,-55.117
 L 708.5,-22 L 708.413,-21.1684 L 708.154,-20.373 L 707.736,-19.6489 L 707.177,-19.0274 L 706.5,-18.5359
 L 705.736,-18.1958 L 704.5,-18 z
M 795.555,-18 L 794.723,-18.0874 L 793.928,-18.3458 L 793.204,-18.7639 L 792.582,-19.3235 L 792.091,-20
 L 791.751,-20.7639 L 791.577,-21.5819 L 791.577,-22.4181 L 791.751,-23.2361 L 792.091,-24 L 792.582,-24.6765
 L 793.204,-25.2361 L 794.124,-25.7353 L 880.569,-58.8523 L 881.377,-59.0682 L 882.212,-59.1114 L 883.038,-58.98
 L 883.818,-58.6798 L 884.519,-58.2239 L 885.11,-57.6322 L 885.565,-56.9306 L 885.864,-56.1497 L 886,-55.117
 L 886,-22 L 885.913,-21.1684 L 885.654,-20.373 L 885.236,-19.6489 L 884.677,-19.0274 L 884,-18.5359
 L 883.236,-18.1958 L 882,-18 z
M 973.055,-18 L 972.223,-18.0874 L 971.428,-18.3458 L 970.704,-18.7639 L 970.082,-19.3235 L 969.591,-20
 L 969.251,-20.7639 L 969.077,-21.5819 L 969.077,-22.4181 L 969.251,-23.2361 L 969.591,-24 L 970.082,-24.6765
 L 970.704,-25.2361 L 971.624,-25.7353 L 1056.57,-58.2776 L 1057.38,-58.4935 L 1058.21,-58.5367 L 1059.04,-58.4053
 L 1059.82,-58.1052 L 1060.52,-57.6492 L 1061.11,-57.0576 L 1061.57,-56.3559 L 1061.86,-55.575 L 1062,-54.5423
 L 1062,-22 L 1061.91,-21.1684 L 1061.65,-20.373 L 1061.24,-19.6489 L 1060.68,-19.0274 L 1060,-18.5359
 L 1059.24,-18.1958 L 1058,-18 z
M 22,-18 L 20.7639,-18.1958 L 20,-18.5359 L 19.3235,-19.0274 L 18.7639,-19.6489 L 18.3458,-20.373
 L 18.0874,-21.1684 L 18,-22 L 18,-54.5423 L 18.1356,-55.575 L 18.4348,-56.3559 L 18.8897,-57.0576
 L 19.4807,-57.6492 L 20.1817,-58.1052 L 20.9621,-58.4053 L 21.788,-58.5367 L 22.6231,-58.4935 L 23.431,-58.2776
 L 108.376,-25.7353 L 109.296,-25.2361 L 109.918,-24.6765 L 110.409,-24 L 110.749,-23.2361 L 110.923,-22.4181
 L 110.923,-21.5819 L 110.749,-20.7639 L 110.409,-20 L 109.918,-19.3235 L 109.296,-18.7639 L 108.572,-18.3458
 L 107.777,-18.0874 L 106.945,-18 z
" stroke="black" fill="lightgray" stroke-width="0.5"/>
</svg>
