<?xml version="1.0" standalone="no"?>
<!DOCTYPE svg PUBLIC "-//W3C//DTD SVG 1.1//EN" "http://www.w3.org/Graphics/SVG/1.1/DTD/svg11.dtd">
<svg width="1288mm" height="80mm" viewBox="0 -80 1288 80" xmlns="http://www.w3.org/2000/svg" version="1.1">
<title>OpenSCAD Model</title>
<path d="
M 1288,-80 L 0,-80 L 0,-0 L 4.95,-0 L 4.95,-6 L 5.00572,-6.53017
 L 5.17046,-7.03717 L 5.437,-7.49884 L 5.79372,-7.895 L 6.22499,-8.20836 L 6.71201,-8.42519 L 7.23344,-8.53603
 L 7.76654,-8.53603 L 8.28798,-8.42519 L 8.77499,-8.20836 L 9.20627,-7.895 L 9.56299,-7.49884 L 9.82953,-7.03717
 L 9.99426,-6.53017 L 10.05,-6 L 10.05,-0 L 186.807,-0 L 186.807,-6 L 186.863,-6.53017
 L 187.028,-7.03717 L 187.294,-7.49884 L 187.651,-7.895 L 188.082,-8.20836 L 188.569,-8.42519 L 189.091,-8.53603
 L 189.624,-8.53603 L 190.145,-8.42519 L 190.632,-8.20836 L 191.063,-7.895 L 191.42,-7.49884 L 191.687,-7.03717
 L 191.851,-6.53017 L 191.907,-6 L 191.907,-0 L 368.664,-0 L 368.664,-6 L 368.72,-6.53017
 L 368.885,-7.03717 L 369.151,-7.49884 L 369.508,-7.895 L 369.939,-8.20836 L 370.426,-8.42519 L 370.948,-8.53603
 L 371.481,-8.53603 L 372.002,-8.42519 L 372.489,-8.20836 L 372.921,-7.895 L 373.277,-7.49884 L 373.544,-7.03717
 L 373.709,-6.53017 L 373.764,-6 L 373.764,-0 L 550.521,-0 L 550.521,-6 L 550.577,-6.53017
 L 550.742,-7.03717 L 551.008,-7.49884 L 551.365,-7.895 L 551.796,-8.20836 L 552.283,-8.42519 L 552.805,-8.53603
 L 553.338,-8.53603 L 553.859,-8.42519 L 554.346,-8.20836 L 554.778,-7.895 L 555.134,-7.49884 L 555.401,-7.03717
 L 555.566,-6.53017 L 555.621,-6 L 555.621,-0 L 732.379,-0 L 732.379,-6 L 732.434,-6.53017
 L 732.599,-7.03717 L 732.866,-7.49884 L 733.222,-7.895 L 733.654,-8.20836 L 734.141,-8.42519 L 734.662,-8.53603
 L 735.195,-8.53603 L 735.717,-8.42519 L 736.204,-8.20836 L 736.635,-7.895 L 736.992,-7.49884 L 737.258,-7.03717
 L 737.423,-6.53017 L 737.479,-6 L 737.479,-0 L 914.236,-0 L 914.236,-6 L 914.291,-6.53017
 L 914.456,-7.03717 L 914.723,-7.49884 L 915.079,-7.895 L 915.511,-8.20836 L 915.998,-8.42519 L 916.519,-8.53603
 L 917.052,-8.53603 L 917.574,-8.42519 L 918.061,-8.20836 L 918.492,-7.895 L 918.849,-7.49884 L 919.115,-7.03717
 L 919.28,-6.53017 L 919.336,-6 L 919.336,-0 L 1096.09,-0 L 1096.09,-6 L 1096.15,-6.53017
 L 1096.31,-7.03717 L 1096.58,-7.49884 L 1096.94,-7.895 L 1097.37,-8.20836 L 1097.85,-8.42519 L 1098.38,-8.53603
 L 1098.91,-8.53603 L 1099.43,-8.42519 L 1099.92,-8.20836 L 1100.35,-7.895 L 1100.71,-7.49884 L 1100.97,-7.03717
 L 1101.14,-6.53017 L 1101.19,-6 L 1101.19,-0 L 1277.95,-0 L 1277.95,-6 L 1278.01,-6.53017
 L 1278.17,-7.03717 L 1278.44,-7.49884 L 1278.79,-7.895 L 1279.22,-8.20836 L 1279.71,-8.42519 L 1280.23,-8.53603
 L 1280.77,-8.53603 L 1281.29,-8.42519 L 1281.77,-8.20836 L 1282.21,-7.895 L 1282.56,-7.49884 L 1282.83,-7.03717
 L 1282.99,-6.53017 L 1283.05,-6 L 1283.05,-0 L 1288,-0 z
M 6.98573,-55.607 L 6.47708,-55.6875 L 5.97964,-55.8208 L 5.49887,-56.0054 L 5.04001,-56.2392 L 4.60811,-56.5196
 L 4.20789,-56.8437 L 3.84373,-57.2079 L 3.51964,-57.6081 L 3.23917,-58.04 L 3.00537,-58.4989 L 2.82082,-58.9796
 L 2.68752,-59.4771 L 2.60696,-59.9857 L 2.58,-60.5 L 2.60696,-61.0143 L 2.68752,-61.5229 L 2.82082,-62.0204
 L 3.00537,-62.5011 L 3.23917,-62.96 L 3.51964,-63.3919 L 3.84373,-63.7921 L 4.20789,-64.1563 L 4.60811,-64.4804
 L 4.95001,-64.7024 L 4.95001,-74 L 5.00574,-74.5302 L 5.17047,-75.0372 L 5.43701,-75.4988 L 5.79373,-75.895
 L 6.22501,-76.2084 L 6.71202,-76.4252 L 7.23346,-76.536 L 7.76654,-76.536 L 8.28798,-76.4252 L 8.77499,-76.2084
 L 9.20627,-75.895 L 9.56299,-75.4988 L 9.82953,-75.0372 L 9.99426,-74.5302 L 10.05,-74 L 10.05,-64.7024
 L 10.3919,-64.4804 L 10.7921,-64.1563 L 11.1563,-63.7921 L 11.4804,-63.3919 L 11.7608,-62.96 L 11.9946,-62.5011
 L 12.1792,-62.0204 L 12.3125,-61.5229 L 12.393,-61.0143 L 12.42,-60.5 L 12.393,-59.9857 L 12.3125,-59.4771
 L 12.1792,-58.9796 L 11.9946,-58.4989 L 11.7608,-58.04 L 11.4804,-57.6081 L 11.1563,-57.2079 L 10.7921,-56.8437
 L 10.3919,-56.5196 L 9.95999,-56.2392 L 9.50113,-56.0054 L 9.02036,-55.8208 L 8.52292,-55.6875 L 8.01427,-55.607
 L 7.5,-55.58 z
M 188.843,-55.607 L 188.334,-55.6875 L 187.837,-55.8208 L 187.356,-56.0054 L 186.897,-56.2392 L 186.465,-56.5196
 L 186.065,-56.8437 L 185.701,-57.2079 L 185.377,-57.6081 L 185.096,-58.04 L 184.863,-58.4989 L 184.678,-58.9796
 L 184.545,-59.4771 L 184.464,-59.9857 L 184.437,-60.5 L 184.464,-61.0143 L 184.545,-61.5229 L 184.678,-62.0204
 L 184.863,-62.5011 L 185.096,-62.96 L 185.377,-63.3919 L 185.701,-63.7921 L 186.065,-64.1563 L 186.465,-64.4804
 L 186.807,-64.7024 L 186.807,-74 L 186.863,-74.5302 L 187.028,-75.0372 L 187.294,-75.4988 L 187.651,-75.895
 L 188.082,-76.2084 L 188.569,-76.4252 L 189.091,-76.536 L 189.624,-76.536 L 190.145,-76.4252 L 190.632,-76.2084
 L 191.063,-75.895 L 191.42,-75.4988 L 191.687,-75.0372 L 191.851,-74.5302 L 191.907,-74 L 191.907,-64.7024
 L 192.249,-64.4804 L 192.649,-64.1563 L 193.013,-63.7921 L 193.337,-63.3919 L 193.618,-62.96 L 193.852,-62.5011
 L 194.036,-62.0204 L 194.17,-61.5229 L 194.25,-61.0143 L 194.277,-60.5 L 194.25,-59.9857 L 194.17,-59.4771
 L 194.036,-58.9796 L 193.852,-58.4989 L 193.618,-58.04 L 193.337,-57.6081 L 193.013,-57.2079 L 192.649,-56.8437
 L 192.249,-56.5196 L 191.817,-56.2392 L 191.358,-56.0054 L 190.877,-55.8208 L 190.38,-55.6875 L 189.871,-55.607
 L 189.357,-55.58 z
M 370.7,-55.607 L 370.191,-55.6875 L 369.694,-55.8208 L 369.213,-56.0054 L 368.754,-56.2392 L 368.322,-56.5196
 L 367.922,-56.8437 L 367.558,-57.2079 L 367.234,-57.6081 L 366.953,-58.04 L 366.72,-58.4989 L 366.535,-58.9796
 L 366.402,-59.4771 L 366.321,-59.9857 L 366.294,-60.5 L 366.321,-61.0143 L 366.402,-61.5229 L 366.535,-62.0204
 L 366.72,-62.5011 L 366.953,-62.96 L 367.234,-63.3919 L 367.558,-63.7921 L 367.922,-64.1563 L 368.322,-64.4804
 L 368.664,-64.7024 L 368.664,-74 L 368.72,-74.5302 L 368.885,-75.0372 L 369.151,-75.4988 L 369.508,-75.895
 L 369.939,-76.2084 L 370.426,-76.4252 L 370.948,-76.536 L 371.481,-76.536 L 372.002,-76.4252 L 372.489,-76.2084
 L 372.921,-75.895 L 373.277,-75.4988 L 373.544,-75.0372 L 373.709,-74.5302 L 373.764,-74 L 373.764,-64.7024
 L 374.106,-64.4804 L 374.506,-64.1563 L 374.871,-63.7921 L 375.195,-63.3919 L 375.475,-62.96 L 375.709,-62.5011
 L 375.893,-62.0204 L 376.027,-61.5229 L 376.107,-61.0143 L 376.134,-60.5 L 376.107,-59.9857 L 376.027,-59.4771
 L 375.893,-58.9796 L 375.709,-58.4989 L 375.475,-58.04 L 375.195,-57.6081 L 374.871,-57.2079 L 374.506,-56.8437
 L 374.106,-56.5196 L 373.674,-56.2392 L 373.215,-56.0054 L 372.735,-55.8208 L 372.237,-55.6875 L 371.729,-55.607
 L 371.214,-55.58 z
M 552.557,-55.607 L 552.049,-55.6875 L 551.551,-55.8208 L 551.07,-56.0054 L 550.611,-56.2392 L 550.18,-56.5196
 L 549.779,-56.8437 L 549.415,-57.2079 L 549.091,-57.6081 L 548.811,-58.04 L 548.577,-58.4989 L 548.392,-58.9796
 L 548.259,-59.4771 L 548.178,-59.9857 L 548.151,-60.5 L 548.178,-61.0143 L 548.259,-61.5229 L 548.392,-62.0204
 L 548.577,-62.5011 L 548.811,-62.96 L 549.091,-63.3919 L 549.415,-63.7921 L 549.779,-64.1563 L 550.18,-64.4804
 L 550.521,-64.7024 L 550.521,-74 L 550.577,-74.5302 L 550.742,-75.0372 L 551.008,-75.4988 L 551.365,-75.895
 L 551.796,-76.2084 L 552.283,-76.4252 L 552.805,-76.536 L 553.338,-76.536 L 553.859,-76.4252 L 554.346,-76.2084
 L 554.778,-75.895 L 555.134,-75.4988 L 555.401,-75.0372 L 555.566,-74.5302 L 555.621,-74 L 555.621,-64.7024
 L 555.963,-64.4804 L 556.364,-64.1563 L 556.728,-63.7921 L 557.052,-63.3919 L 557.332,-62.96 L 557.566,-62.5011
 L 557.751,-62.0204 L 557.884,-61.5229 L 557.964,-61.0143 L 557.991,-60.5 L 557.964,-59.9857 L 557.884,-59.4771
 L 557.751,-58.9796 L 557.566,-58.4989 L 557.332,-58.04 L 557.052,-57.6081 L 556.728,-57.2079 L 556.364,-56.8437
 L 555.963,-56.5196 L 555.531,-56.2392 L 555.073,-56.0054 L 554.592,-55.8208 L 554.094,-55.6875 L 553.586,-55.607
 L 553.071,-55.58 z
M 734.414,-55.607 L 733.906,-55.6875 L 733.408,-55.8208 L 732.927,-56.0054 L 732.469,-56.2392 L 732.037,-56.5196
 L 731.636,-56.8437 L 731.272,-57.2079 L 730.948,-57.6081 L 730.668,-58.04 L 730.434,-58.4989 L 730.249,-58.9796
 L 730.116,-59.4771 L 730.036,-59.9857 L 730.009,-60.5 L 730.036,-61.0143 L 730.116,-61.5229 L 730.249,-62.0204
 L 730.434,-62.5011 L 730.668,-62.96 L 730.948,-63.3919 L 731.272,-63.7921 L 731.636,-64.1563 L 732.037,-64.4804
 L 732.379,-64.7024 L 732.379,-74 L 732.434,-74.5302 L 732.599,-75.0372 L 732.866,-75.4988 L 733.222,-75.895
 L 733.654,-76.2084 L 734.141,-76.4252 L 734.662,-76.536 L 735.195,-76.536 L 735.717,-76.4252 L 736.204,-76.2084
 L 736.635,-75.895 L 736.992,-75.4988 L 737.258,-75.0372 L 737.423,-74.5302 L 737.479,-74 L 737.479,-64.7024
 L 737.82,-64.4804 L 738.221,-64.1563 L 738.585,-63.7921 L 738.909,-63.3919 L 739.189,-62.96 L 739.423,-62.5011
 L 739.608,-62.0204 L 739.741,-61.5229 L 739.822,-61.0143 L 739.849,-60.5 L 739.822,-59.9857 L 739.741,-59.4771
 L 739.608,-58.9796 L 739.423,-58.4989 L 739.189,-58.04 L 738.909,-57.6081 L 738.585,-57.2079 L 738.221,-56.8437
 L 737.82,-56.5196 L 737.389,-56.2392 L 736.93,-56.0054 L 736.449,-55.8208 L 735.951,-55.6875 L 735.443,-55.607
 L 734.929,-55.58 z
M 916.271,-55.607 L 915.763,-55.6875 L 915.265,-55.8208 L 914.785,-56.0054 L 914.326,-56.2392 L 913.894,-56.5196
 L 913.494,-56.8437 L 913.129,-57.2079 L 912.805,-57.6081 L 912.525,-58.04 L 912.291,-58.4989 L 912.107,-58.9796
 L 911.973,-59.4771 L 911.893,-59.9857 L 911.866,-60.5 L 911.893,-61.0143 L 911.973,-61.5229 L 912.107,-62.0204
 L 912.291,-62.5011 L 912.525,-62.96 L 912.805,-63.3919 L 913.129,-63.7921 L 913.494,-64.1563 L 913.894,-64.4804
 L 914.236,-64.7024 L 914.236,-74 L 914.291,-74.5302 L 914.456,-75.0372 L 914.723,-75.4988 L 915.079,-75.895
 L 915.511,-76.2084 L 915.998,-76.4252 L 916.519,-76.536 L 917.052,-76.536 L 917.574,-76.4252 L 918.061,-76.2084
 L 918.492,-75.895 L 918.849,-75.4988 L 919.115,-75.0372 L 919.28,-74.5302 L 919.336,-74 L 919.336,-64.7024
 L 919.678,-64.4804 L 920.078,-64.1563 L 920.442,-63.7921 L 920.766,-63.3919 L 921.047,-62.96 L 921.28,-62.5011
 L 921.465,-62.0204 L 921.598,-61.5229 L 921.679,-61.0143 L 921.706,-60.5 L 921.679,-59.9857 L 921.598,-59.4771
 L 921.465,-58.9796 L 921.28,-58.4989 L 921.047,-58.04 L 920.766,-57.6081 L 920.442,-57.2079 L 920.078,-56.8437
 L 919.678,-56.5196 L 919.246,-56.2392 L 918.787,-56.0054 L 918.306,-55.8208 L 917.809,-55.6875 L 917.3,-55.607
 L 916.786,-55.58 z
M 1098.13,-55.607 L 1097.62,-55.6875 L 1097.12,-55.8208 L 1096.64,-56.0054 L 1096.18,-56.2392 L 1095.75,-56.5196
 L 1095.35,-56.8437 L 1094.99,-57.2079 L 1094.66,-57.6081 L 1094.38,-58.04 L 1094.15,-58.4989 L 1093.96,-58.9796
 L 1093.83,-59.4771 L 1093.75,-59.9857 L 1093.72,-60.5 L 1093.75,-61.0143 L 1093.83,-61.5229 L 1093.96,-62.0204
 L 1094.15,-62.5011 L 1094.38,-62.96 L 1094.66,-63.3919 L 1094.99,-63.7921 L 1095.35,-64.1563 L 1095.75,-64.4804
 L 1096.09,-64.7024 L 1096.09,-74 L 1096.15,-74.5302 L 1096.31,-75.0372 L 1096.58,-75.4988 L 1096.94,-75.895
 L 1097.37,-76.2084 L 1097.85,-76.4252 L 1098.38,-76.536 L 1098.91,-76.536 L 1099.43,-76.4252 L 1099.92,-76.2084
 L 1100.35,-75.895 L 1100.71,-75.4988 L 1100.97,-75.0372 L 1101.14,-74.5302 L 1101.19,-74 L 1101.19,-64.7024
 L 1101.53,-64.4804 L 1101.93,-64.1563 L 1102.3,-63.7921 L 1102.62,-63.3919 L 1102.9,-62.96 L 1103.14,-62.5011
 L 1103.32,-62.0204 L 1103.46,-61.5229 L 1103.54,-61.0143 L 1103.56,-60.5 L 1103.54,-59.9857 L 1103.46,-59.4771
 L 1103.32,-58.9796 L 1103.14,-58.4989 L 1102.9,-58.04 L 1102.62,-57.6081 L 1102.3,-57.2079 L 1101.93,-56.8437
 L 1101.53,-56.5196 L 1101.1,-56.2392 L 1100.64,-56.0054 L 1100.16,-55.8208 L 1099.67,-55.6875 L 1099.16,-55.607
 L 1098.64,-55.58 z
M 1279.99,-55.607 L 1279.48,-55.6875 L 1278.98,-55.8208 L 1278.5,-56.0054 L 1278.04,-56.2392 L 1277.61,-56.5196
 L 1277.21,-56.8437 L 1276.84,-57.2079 L 1276.52,-57.6081 L 1276.24,-58.04 L 1276.01,-58.4989 L 1275.82,-58.9796
 L 1275.69,-59.4771 L 1275.61,-59.9857 L 1275.58,-60.5 L 1275.61,-61.0143 L 1275.69,-61.5229 L 1275.82,-62.0204
 L 1276.01,-62.5011 L 1276.24,-62.96 L 1276.52,-63.3919 L 1276.84,-63.7921 L 1277.21,-64.1563 L 1277.61,-64.4804
 L 1277.95,-64.7024 L 1277.95,-74 L 1278.01,-74.5302 L 1278.17,-75.0372 L 1278.44,-75.4988 L 1278.79,-75.895
 L 1279.23,-76.2084 L 1279.71,-76.4252 L 1280.23,-76.536 L 1280.77,-76.536 L 1281.29,-76.4252 L 1281.77,-76.2084
 L 1282.21,-75.895 L 1282.56,-75.4988 L 1282.83,-75.0372 L 1282.99,-74.5302 L 1283.05,-74 L 1283.05,-64.7024
 L 1283.39,-64.4804 L 1283.79,-64.1563 L 1284.16,-63.7921 L 1284.48,-63.3919 L 1284.76,-62.96 L 1284.99,-62.5011
 L 1285.18,-62.0204 L 1285.31,-61.5229 L 1285.39,-61.0143 L 1285.42,-60.5 L 1285.39,-59.9857 L 1285.31,-59.4771
 L 1285.18,-58.9796 L 1284.99,-58.4989 L 1284.76,-58.04 L 1284.48,-57.6081 L 1284.16,-57.2079 L 1283.79,-56.8437
 L 1283.39,-56.5196 L 1282.96,-56.2392 L 1282.5,-56.0054 L 1282.02,-55.8208 L 1281.52,-55.6875 L 1281.01,-55.607
 L 1280.5,-55.58 z
M 746.86,-20.8723 L 746.082,-21.1787 L 745.384,-21.6402 L 744.798,-22.2366 L 744.349,-22.9419 L 744.056,-23.7252
 L 743.929,-24.7268 L 743.929,-58 L 744.016,-58.8316 L 744.274,-59.627 L 744.693,-60.3511 L 745.252,-60.9726
 L 745.929,-61.4641 L 746.693,-61.8042 L 747.929,-62 L 836.913,-62 L 837.745,-61.9126 L 838.54,-61.6542
 L 839.265,-61.2361 L 839.886,-60.6765 L 840.378,-60 L 840.718,-59.2361 L 840.891,-58.4181 L 840.891,-57.5819
 L 840.718,-56.7639 L 840.378,-56 L 839.886,-55.3235 L 839.265,-54.7639 L 838.314,-54.2534 L 749.33,-20.9802
 L 748.52,-20.7708 L 747.685,-20.7343 z
M 643.409,-47.7766 L 642.599,-47.986 L 625.838,-54.2534 L 624.888,-54.7639 L 624.266,-55.3235 L 623.775,-56
 L 623.435,-56.7639 L 623.261,-57.5819 L 623.261,-58.4181 L 623.435,-59.2361 L 623.775,-60 L 624.266,-60.6765
 L 624.888,-61.2361 L 625.612,-61.6542 L 626.407,-61.9126 L 627.239,-62 L 660.761,-62 L 661.83,-61.8546
 L 662.608,-61.5481 L 663.305,-61.0866 L 663.892,-60.4902 L 664.341,-59.7849 L 664.634,-59.0016 L 664.757,-58.1746
 L 664.706,-57.3399 L 664.483,-56.5341 L 664.097,-55.7924 L 663.565,-55.1471 L 662.911,-54.6265 L 662.162,-54.2534
 L 645.401,-47.986 L 644.244,-47.7401 z
M 539.48,-20.7708 L 538.67,-20.9802 L 449.686,-54.2534 L 448.735,-54.7639 L 448.114,-55.3235 L 447.622,-56
 L 447.282,-56.7639 L 447.108,-57.5819 L 447.108,-58.4181 L 447.282,-59.2361 L 447.622,-60 L 448.114,-60.6765
 L 448.735,-61.2361 L 449.46,-61.6542 L 450.255,-61.9126 L 451.087,-62 L 540.071,-62 L 541.307,-61.8042
 L 542.071,-61.4641 L 542.748,-60.9726 L 543.307,-60.3511 L 543.726,-59.627 L 543.984,-58.8316 L 544.071,-58
 L 544.071,-24.7268 L 543.944,-23.7252 L 543.651,-22.9419 L 543.202,-22.2366 L 542.616,-21.6402 L 541.918,-21.1787
 L 541.14,-20.8723 L 540.315,-20.7343 z
M 357.623,-20.7708 L 356.813,-20.9802 L 267.828,-54.2534 L 266.878,-54.7639 L 266.257,-55.3235 L 265.765,-56
 L 265.425,-56.7639 L 265.251,-57.5819 L 265.251,-58.4181 L 265.425,-59.2361 L 265.765,-60 L 266.257,-60.6765
 L 266.878,-61.2361 L 267.602,-61.6542 L 268.398,-61.9126 L 269.229,-62 L 358.214,-62 L 359.45,-61.8042
 L 360.214,-61.4641 L 360.891,-60.9726 L 361.45,-60.3511 L 361.868,-59.627 L 362.127,-58.8316 L 362.214,-58
 L 362.214,-24.7268 L 362.087,-23.7252 L 361.794,-22.9419 L 361.345,-22.2366 L 360.758,-21.6402 L 360.061,-21.1787
 L 359.283,-20.8723 L 358.458,-20.7343 z
M 1110.57,-20.8723 L 1109.8,-21.1787 L 1109.1,-21.6402 L 1108.51,-22.2366 L 1108.06,-22.9419 L 1107.77,-23.7252
 L 1107.64,-24.7268 L 1107.64,-58 L 1107.73,-58.8316 L 1107.99,-59.627 L 1108.41,-60.3511 L 1108.97,-60.9726
 L 1109.64,-61.4641 L 1110.41,-61.8042 L 1111.64,-62 L 1200.63,-62 L 1201.46,-61.9126 L 1202.25,-61.6542
 L 1202.98,-61.2361 L 1203.6,-60.6765 L 1204.09,-60 L 1204.43,-59.2361 L 1204.61,-58.4181 L 1204.61,-57.5819
 L 1204.43,-56.7639 L 1204.09,-56 L 1203.6,-55.3235 L 1202.98,-54.7639 L 1202.03,-54.2534 L 1113.04,-20.9802
 L 1112.23,-20.7708 L 1111.4,-20.7343 z
M 175.766,-20.7708 L 174.956,-20.9802 L 85.9714,-54.2534 L 85.0212,-54.7639 L 84.3997,-55.3235 L 83.9082,-56
 L 83.5681,-56.7639 L 83.3942,-57.5819 L 83.3942,-58.4181 L 83.5681,-59.2361 L 83.9082,-60 L 84.3997,-60.6765
 L 85.0212,-61.2361 L 85.7453,-61.6542 L 86.5406,-61.9126 L 87.3723,-62 L 176.357,-62 L 177.593,-61.8042
 L 178.357,-61.4641 L 179.034,-60.9726 L 179.593,-60.3511 L 180.011,-59.627 L 180.27,-58.8316 L 180.357,-58
 L 180.357,-24.7268 L 180.23,-23.7252 L 179.937,-22.9419 L 179.487,-22.2366 L 178.901,-21.6402 L 178.204,-21.1787
 L 177.426,-20.8723 L 176.601,-20.7343 z
M 928.717,-20.8723 L 927.939,-21.1787 L 927.242,-21.6402 L 926.655,-22.2366 L 926.206,-22.9419 L 925.913,-23.7252
 L 925.786,-24.7268 L 925.786,-58 L 925.873,-58.8316 L 926.132,-59.627 L 926.55,-60.3511 L 927.109,-60.9726
 L 927.786,-61.4641 L 928.55,-61.8042 L 929.786,-62 L 1018.77,-62 L 1019.6,-61.9126 L 1020.4,-61.6542
 L 1021.12,-61.2361 L 1021.74,-60.6765 L 1022.23,-60 L 1022.57,-59.2361 L 1022.75,-58.4181 L 1022.75,-57.5819
 L 1022.57,-56.7639 L 1022.23,-56 L 1021.74,-55.3235 L 1021.12,-54.7639 L 1020.17,-54.2534 L 931.187,-20.9802
 L 930.377,-20.7708 L 929.542,-20.7343 z
M 565.653,-18.6155 L 564.835,-18.7894 L 564.071,-19.1295 L 563.395,-19.621 L 562.835,-20.2425 L 562.417,-20.9666
 L 562.159,-21.7619 L 562.071,-22.5936 L 562.071,-57.4064 L 562.199,-58.408 L 562.492,-59.1913 L 562.941,-59.8966
 L 563.527,-60.493 L 564.225,-60.9545 L 565.003,-61.261 L 565.827,-61.399 L 566.663,-61.3624 L 567.472,-61.153
 L 614.024,-43.7466 L 614.469,-43.5481 L 615.167,-43.0866 L 615.753,-42.4902 L 616.202,-41.7849 L 616.495,-41.0016
 L 616.619,-40.1746 L 616.568,-39.3399 L 616.344,-38.5341 L 615.958,-37.7924 L 615.426,-37.1471 L 614.772,-36.6265
 L 614.024,-36.2534 L 567.472,-18.847 L 566.49,-18.6155 z
M 721.337,-18.6376 L 720.528,-18.847 L 673.976,-36.2534 L 673.531,-36.4519 L 672.833,-36.9134 L 672.247,-37.5098
 L 671.798,-38.2151 L 671.505,-38.9984 L 671.381,-39.8254 L 671.432,-40.6601 L 671.656,-41.4659 L 672.042,-42.2076
 L 672.574,-42.8529 L 673.228,-43.3735 L 673.976,-43.7466 L 720.528,-61.153 L 721.51,-61.3845 L 722.347,-61.3845
 L 723.165,-61.2106 L 723.929,-60.8705 L 724.605,-60.379 L 725.165,-59.7575 L 725.583,-59.0334 L 725.841,-58.2381
 L 725.929,-57.4064 L 725.929,-22.5936 L 725.801,-21.592 L 725.508,-20.8087 L 725.059,-20.1034 L 724.473,-19.507
 L 723.775,-19.0455 L 722.997,-18.739 L 722.173,-18.601 z
M 202.357,-18 L 201.121,-18.1958 L 200.357,-18.5359 L 199.681,-19.0274 L 199.121,-19.6489 L 198.703,-20.373
 L 198.445,-21.1684 L 198.357,-22 L 198.357,-55.2732 L 198.485,-56.2748 L 198.777,-57.0581 L 199.227,-57.7634
 L 199.813,-58.3598 L 200.51,-58.8213 L 201.288,-59.1277 L 202.113,-59.2657 L 202.948,-59.2292 L 203.758,-59.0198
 L 292.743,-25.7466 L 293.693,-25.2361 L 294.315,-24.6765 L 294.806,-24 L 295.146,-23.2361 L 295.32,-22.4181
 L 295.32,-21.5819 L 295.146,-20.7639 L 294.806,-20 L 294.315,-19.3235 L 293.693,-18.7639 L 292.969,-18.3458
 L 292.174,-18.0874 L 291.342,-18 z
M 384.214,-18 L 382.978,-18.1958 L 382.214,-18.5359 L 381.538,-19.0274 L 380.978,-19.6489 L 380.56,-20.373
 L 380.302,-21.1684 L 380.214,-22 L 380.214,-55.2732 L 380.342,-56.2748 L 380.635,-57.0581 L 381.084,-57.7634
 L 381.67,-58.3598 L 382.367,-58.8213 L 383.145,-59.1277 L 383.97,-59.2657 L 384.806,-59.2292 L 385.615,-59.0198
 L 474.6,-25.7466 L 475.55,-25.2361 L 476.172,-24.6765 L 476.663,-24 L 477.003,-23.2361 L 477.177,-22.4181
 L 477.177,-21.5819 L 477.003,-20.7639 L 476.663,-20 L 476.172,-19.3235 L 475.55,-18.7639 L 474.826,-18.3458
 L 474.031,-18.0874 L 473.199,-18 z
M 814.801,-18 L 813.969,-18.0874 L 813.174,-18.3458 L 812.45,-18.7639 L 811.828,-19.3235 L 811.337,-20
 L 810.997,-20.7639 L 810.823,-21.5819 L 810.823,-22.4181 L 810.997,-23.2361 L 811.337,-24 L 811.828,-24.6765
 L 812.45,-25.2361 L 813.4,-25.7466 L 902.385,-59.0198 L 903.194,-59.2292 L 904.03,-59.2657 L 904.855,-59.1277
 L 905.633,-58.8213 L 906.33,-58.3598 L 906.916,-57.7634 L 907.365,-57.0581 L 907.658,-56.2748 L 907.786,-55.2732
 L 907.786,-22 L 907.698,-21.1684 L 907.44,-20.373 L 907.022,-19.6489 L 906.462,-19.0274 L 905.786,-18.5359
 L 905.022,-18.1958 L 903.786,-18 z
M 996.658,-18 L 995.826,-18.0874 L 995.031,-18.3458 L 994.307,-18.7639 L 993.685,-19.3235 L 993.194,-20
 L 992.854,-20.7639 L 992.68,-21.5819 L 992.68,-22.4181 L 992.854,-23.2361 L 993.194,-24 L 993.685,-24.6765
 L 994.307,-25.2361 L 995.257,-25.7466 L 1084.24,-59.0198 L 1085.05,-59.2292 L 1085.89,-59.2657 L 1086.71,-59.1277
 L 1087.49,-58.8213 L 1088.19,-58.3598 L 1088.77,-57.7634 L 1089.22,-57.0581 L 1089.52,-56.2748 L 1089.64,-55.2732
 L 1089.64,-22 L 1089.56,-21.1684 L 1089.3,-20.373 L 1088.88,-19.6489 L 1088.32,-19.0274 L 1087.64,-18.5359
 L 1086.88,-18.1958 L 1085.64,-18 z
M 22,-18 L 20.7639,-18.1958 L 20,-18.5359 L 19.3235,-19.0274 L 18.7639,-19.6489 L 18.3458,-20.373
 L 18.0874,-21.1684 L 18,-22 L 18,-54.7123 L 18.1274,-55.7139 L 18.4203,-56.4972 L 18.8696,-57.2025
 L 19.4558,-57.7989 L 20.1531,-58.2604 L 20.9312,-58.5669 L 21.7559,-58.7049 L 22.5914,-58.6684 L 23.4009,-58.459
 L 110.886,-25.7466 L 111.836,-25.2361 L 112.457,-24.6765 L 112.949,-24 L 113.289,-23.2361 L 113.463,-22.4181
 L 113.463,-21.5819 L 113.289,-20.7639 L 112.949,-20 L 112.457,-19.3235 L 111.836,-18.7639 L 111.112,-18.3458
 L 110.316,-18.0874 L 109.485,-18 z
M 1178.52,-18 L 1177.68,-18.0874 L 1176.89,-18.3458 L 1176.16,-18.7639 L 1175.54,-19.3235 L 1175.05,-20
 L 1174.71,-20.7639 L 1174.54,-21.5819 L 1174.54,-22.4181 L 1174.71,-23.2361 L 1175.05,-24 L 1175.54,-24.6765
 L 1176.16,-25.2361 L 1177.11,-25.7466 L 1264.6,-58.459 L 1265.41,-58.6684 L 1266.24,-58.7049 L 1267.07,-58.5669
 L 1267.85,-58.2604 L 1268.54,-57.7989 L 1269.13,-57.2025 L 1269.58,-56.4972 L 1269.87,-55.7139 L 1270,-54.7123
 L 1270,-22 L 1269.91,-21.1684 L 1269.65,-20.373 L 1269.24,-19.6489 L 1268.68,-19.0274 L 1268,-18.5359
 L 1267.24,-18.1958 L 1266,-18 z
M 627.239,-18 L 626.17,-18.1454 L 625.392,-18.4519 L 624.695,-18.9134 L 624.108,-19.5098 L 623.659,-20.2151
 L 623.366,-20.9984 L 623.243,-21.8254 L 623.294,-22.6601 L 623.517,-23.4659 L 623.903,-24.2076 L 624.435,-24.8529
 L 625.089,-25.3735 L 625.838,-25.7466 L 642.599,-32.014 L 643.756,-32.2599 L 644.591,-32.2234 L 645.401,-32.014
 L 662.162,-25.7466 L 663.112,-25.2361 L 663.734,-24.6765 L 664.225,-24 L 664.565,-23.2361 L 664.739,-22.4181
 L 664.739,-21.5819 L 664.565,-20.7639 L 664.225,-20 L 663.734,-19.3235 L 663.112,-18.7639 L 662.388,-18.3458
 L 661.593,-18.0874 L 660.761,-18 z
" stroke="black" fill="lightgray" stroke-width="0.5"/>
</svg>
