<?xml version="1.0" standalone="no"?>
<!DOCTYPE svg PUBLIC "-//W3C//DTD SVG 1.1//EN" "http://www.w3.org/Graphics/SVG/1.1/DTD/svg11.dtd">
<svg width="1508mm" height="80mm" viewBox="0 -80 1508 80" xmlns="http://www.w3.org/2000/svg" version="1.1">
<title>OpenSCAD Model</title>
<path d="
M 1508,-80 L 0,-80 L 0,-0 L 4.95,-0 L 4.95,-6 L 5.00572,-6.53017
 L 5.17046,-7.03717 L 5.437,-7.49884 L 5.79372,-7.895 L 6.22499,-8.20836 L 6.71201,-8.42519 L 7.23344,-8.53603
 L 7.76654,-8.53603 L 8.28798,-8.42519 L 8.77499,-8.20836 L 9.20627,-7.895 L 9.56299,-7.49884 L 9.82953,-7.03717
 L 9.99426,-6.53017 L 10.05,-6 L 10.05,-0 L 191.575,-0 L 191.575,-6 L 191.631,-6.53017
 L 191.795,-7.03717 L 192.062,-7.49884 L 192.419,-7.895 L 192.85,-8.20836 L 193.337,-8.42519 L 193.858,-8.53603
 L 194.392,-8.53603 L 194.913,-8.42519 L 195.4,-8.20836 L 195.831,-7.895 L 196.188,-7.49884 L 196.455,-7.03717
 L 196.619,-6.53017 L 196.675,-6 L 196.675,-0 L 378.2,-0 L 378.2,-6 L 378.256,-6.53017
 L 378.42,-7.03717 L 378.687,-7.49884 L 379.044,-7.895 L 379.475,-8.20836 L 379.962,-8.42519 L 380.483,-8.53603
 L 381.017,-8.53603 L 381.538,-8.42519 L 382.025,-8.20836 L 382.456,-7.895 L 382.813,-7.49884 L 383.08,-7.03717
 L 383.244,-6.53017 L 383.3,-6 L 383.3,-0 L 564.825,-0 L 564.825,-6 L 564.881,-6.53017
 L 565.045,-7.03717 L 565.312,-7.49884 L 565.669,-7.895 L 566.1,-8.20836 L 566.587,-8.42519 L 567.108,-8.53603
 L 567.642,-8.53603 L 568.163,-8.42519 L 568.65,-8.20836 L 569.081,-7.895 L 569.438,-7.49884 L 569.705,-7.03717
 L 569.869,-6.53017 L 569.925,-6 L 569.925,-0 L 751.45,-0 L 751.45,-6 L 751.506,-6.53017
 L 751.67,-7.03717 L 751.937,-7.49884 L 752.294,-7.895 L 752.725,-8.20836 L 753.212,-8.42519 L 753.733,-8.53603
 L 754.267,-8.53603 L 754.788,-8.42519 L 755.275,-8.20836 L 755.706,-7.895 L 756.063,-7.49884 L 756.33,-7.03717
 L 756.494,-6.53017 L 756.55,-6 L 756.55,-0 L 938.075,-0 L 938.075,-6 L 938.131,-6.53017
 L 938.295,-7.03717 L 938.562,-7.49884 L 938.919,-7.895 L 939.35,-8.20836 L 939.837,-8.42519 L 940.358,-8.53603
 L 940.892,-8.53603 L 941.413,-8.42519 L 941.9,-8.20836 L 942.331,-7.895 L 942.688,-7.49884 L 942.955,-7.03717
 L 943.119,-6.53017 L 943.175,-6 L 943.175,-0 L 1124.7,-0 L 1124.7,-6 L 1124.76,-6.53017
 L 1124.92,-7.03717 L 1125.19,-7.49884 L 1125.54,-7.895 L 1125.97,-8.20836 L 1126.46,-8.42519 L 1126.98,-8.53603
 L 1127.52,-8.53603 L 1128.04,-8.42519 L 1128.52,-8.20836 L 1128.96,-7.895 L 1129.31,-7.49884 L 1129.58,-7.03717
 L 1129.74,-6.53017 L 1129.8,-6 L 1129.8,-0 L 1311.32,-0 L 1311.32,-6 L 1311.38,-6.53017
 L 1311.55,-7.03717 L 1311.81,-7.49884 L 1312.17,-7.895 L 1312.6,-8.20836 L 1313.09,-8.42519 L 1313.61,-8.53603
 L 1314.14,-8.53603 L 1314.66,-8.42519 L 1315.15,-8.20836 L 1315.58,-7.895 L 1315.94,-7.49884 L 1316.2,-7.03717
 L 1316.37,-6.53017 L 1316.42,-6 L 1316.42,-0 L 1497.95,-0 L 1497.95,-6 L 1498.01,-6.53017
 L 1498.17,-7.03717 L 1498.44,-7.49884 L 1498.79,-7.895 L 1499.22,-8.20836 L 1499.71,-8.42519 L 1500.23,-8.53603
 L 1500.77,-8.53603 L 1501.29,-8.42519 L 1501.77,-8.20836 L 1502.21,-7.895 L 1502.56,-7.49884 L 1502.83,-7.03717
 L 1502.99,-6.53017 L 1503.05,-6 L 1503.05,-0 L 1508,-0 z
M 193.611,-55.607 L 193.102,-55.6875 L 192.605,-55.8208 L 192.124,-56.0054 L 191.665,-56.2392 L 191.233,-56.5196
 L 190.833,-56.8437 L 190.469,-57.2079 L 190.145,-57.6081 L 189.864,-58.04 L 189.63,-58.4989 L 189.446,-58.9796
 L 189.313,-59.4771 L 189.232,-59.9857 L 189.205,-60.5 L 189.232,-61.0143 L 189.313,-61.5229 L 189.446,-62.0204
 L 189.63,-62.5011 L 189.864,-62.96 L 190.145,-63.3919 L 190.469,-63.7921 L 190.833,-64.1563 L 191.233,-64.4804
 L 191.575,-64.7024 L 191.575,-74 L 191.631,-74.5302 L 191.795,-75.0372 L 192.062,-75.4988 L 192.419,-75.895
 L 192.85,-76.2084 L 193.337,-76.4252 L 193.858,-76.536 L 194.392,-76.536 L 194.913,-76.4252 L 195.4,-76.2084
 L 195.831,-75.895 L 196.188,-75.4988 L 196.455,-75.0372 L 196.619,-74.5302 L 196.675,-74 L 196.675,-64.7024
 L 197.017,-64.4804 L 197.417,-64.1563 L 197.781,-63.7921 L 198.105,-63.3919 L 198.386,-62.96 L 198.62,-62.5011
 L 198.804,-62.0204 L 198.937,-61.5229 L 199.018,-61.0143 L 199.045,-60.5 L 199.018,-59.9857 L 198.937,-59.4771
 L 198.804,-58.9796 L 198.62,-58.4989 L 198.386,-58.04 L 198.105,-57.6081 L 197.781,-57.2079 L 197.417,-56.8437
 L 197.017,-56.5196 L 196.585,-56.2392 L 196.126,-56.0054 L 195.645,-55.8208 L 195.148,-55.6875 L 194.639,-55.607
 L 194.125,-55.58 z
M 1126.74,-55.607 L 1126.23,-55.6875 L 1125.73,-55.8208 L 1125.25,-56.0054 L 1124.79,-56.2392 L 1124.36,-56.5196
 L 1123.96,-56.8437 L 1123.59,-57.2079 L 1123.27,-57.6081 L 1122.99,-58.04 L 1122.76,-58.4989 L 1122.57,-58.9796
 L 1122.44,-59.4771 L 1122.36,-59.9857 L 1122.33,-60.5 L 1122.36,-61.0143 L 1122.44,-61.5229 L 1122.57,-62.0204
 L 1122.76,-62.5011 L 1122.99,-62.96 L 1123.27,-63.3919 L 1123.59,-63.7921 L 1123.96,-64.1563 L 1124.36,-64.4804
 L 1124.7,-64.7024 L 1124.7,-74 L 1124.76,-74.5302 L 1124.92,-75.0372 L 1125.19,-75.4988 L 1125.54,-75.895
 L 1125.98,-76.2084 L 1126.46,-76.4252 L 1126.98,-76.536 L 1127.52,-76.536 L 1128.04,-76.4252 L 1128.52,-76.2084
 L 1128.96,-75.895 L 1129.31,-75.4988 L 1129.58,-75.0372 L 1129.74,-74.5302 L 1129.8,-74 L 1129.8,-64.7024
 L 1130.14,-64.4804 L 1130.54,-64.1563 L 1130.91,-63.7921 L 1131.23,-63.3919 L 1131.51,-62.96 L 1131.74,-62.5011
 L 1131.93,-62.0204 L 1132.06,-61.5229 L 1132.14,-61.0143 L 1132.17,-60.5 L 1132.14,-59.9857 L 1132.06,-59.4771
 L 1131.93,-58.9796 L 1131.74,-58.4989 L 1131.51,-58.04 L 1131.23,-57.6081 L 1130.91,-57.2079 L 1130.54,-56.8437
 L 1130.14,-56.5196 L 1129.71,-56.2392 L 1129.25,-56.0054 L 1128.77,-55.8208 L 1128.27,-55.6875 L 1127.76,-55.607
 L 1127.25,-55.58 z
M 940.111,-55.607 L 939.602,-55.6875 L 939.105,-55.8208 L 938.624,-56.0054 L 938.165,-56.2392 L 937.733,-56.5196
 L 937.333,-56.8437 L 936.969,-57.2079 L 936.645,-57.6081 L 936.364,-58.04 L 936.13,-58.4989 L 935.946,-58.9796
 L 935.813,-59.4771 L 935.732,-59.9857 L 935.705,-60.5 L 935.732,-61.0143 L 935.813,-61.5229 L 935.946,-62.0204
 L 936.13,-62.5011 L 936.364,-62.96 L 936.645,-63.3919 L 936.969,-63.7921 L 937.333,-64.1563 L 937.733,-64.4804
 L 938.075,-64.7024 L 938.075,-74 L 938.131,-74.5302 L 938.295,-75.0372 L 938.562,-75.4988 L 938.919,-75.895
 L 939.35,-76.2084 L 939.837,-76.4252 L 940.358,-76.536 L 940.892,-76.536 L 941.413,-76.4252 L 941.9,-76.2084
 L 942.331,-75.895 L 942.688,-75.4988 L 942.955,-75.0372 L 943.119,-74.5302 L 943.175,-74 L 943.175,-64.7024
 L 943.517,-64.4804 L 943.917,-64.1563 L 944.281,-63.7921 L 944.605,-63.3919 L 944.886,-62.96 L 945.12,-62.5011
 L 945.304,-62.0204 L 945.437,-61.5229 L 945.518,-61.0143 L 945.545,-60.5 L 945.518,-59.9857 L 945.437,-59.4771
 L 945.304,-58.9796 L 945.12,-58.4989 L 944.886,-58.04 L 944.605,-57.6081 L 944.281,-57.2079 L 943.917,-56.8437
 L 943.517,-56.5196 L 943.085,-56.2392 L 942.626,-56.0054 L 942.145,-55.8208 L 941.648,-55.6875 L 941.139,-55.607
 L 940.625,-55.58 z
M 6.98573,-55.607 L 6.47708,-55.6875 L 5.97964,-55.8208 L 5.49887,-56.0054 L 5.04001,-56.2392 L 4.60811,-56.5196
 L 4.20789,-56.8437 L 3.84373,-57.2079 L 3.51964,-57.6081 L 3.23917,-58.04 L 3.00537,-58.4989 L 2.82082,-58.9796
 L 2.68752,-59.4771 L 2.60696,-59.9857 L 2.58,-60.5 L 2.60696,-61.0143 L 2.68752,-61.5229 L 2.82082,-62.0204
 L 3.00537,-62.5011 L 3.23917,-62.96 L 3.51964,-63.3919 L 3.84373,-63.7921 L 4.20789,-64.1563 L 4.60811,-64.4804
 L 4.95001,-64.7024 L 4.95001,-74 L 5.00574,-74.5302 L 5.17047,-75.0372 L 5.43701,-75.4988 L 5.79373,-75.895
 L 6.22501,-76.2084 L 6.71202,-76.4252 L 7.23346,-76.536 L 7.76654,-76.536 L 8.28798,-76.4252 L 8.77499,-76.2084
 L 9.20627,-75.895 L 9.56299,-75.4988 L 9.82953,-75.0372 L 9.99426,-74.5302 L 10.05,-74 L 10.05,-64.7024
 L 10.3919,-64.4804 L 10.7921,-64.1563 L 11.1563,-63.7921 L 11.4804,-63.3919 L 11.7608,-62.96 L 11.9946,-62.5011
 L 12.1792,-62.0204 L 12.3125,-61.5229 L 12.393,-61.0143 L 12.42,-60.5 L 12.393,-59.9857 L 12.3125,-59.4771
 L 12.1792,-58.9796 L 11.9946,-58.4989 L 11.7608,-58.04 L 11.4804,-57.6081 L 11.1563,-57.2079 L 10.7921,-56.8437
 L 10.3919,-56.5196 L 9.95999,-56.2392 L 9.50113,-56.0054 L 9.02036,-55.8208 L 8.52292,-55.6875 L 8.01427,-55.607
 L 7.5,-55.58 z
M 753.486,-55.607 L 752.977,-55.6875 L 752.48,-55.8208 L 751.999,-56.0054 L 751.54,-56.2392 L 751.108,-56.5196
 L 750.708,-56.8437 L 750.344,-57.2079 L 750.02,-57.6081 L 749.739,-58.04 L 749.505,-58.4989 L 749.321,-58.9796
 L 749.188,-59.4771 L 749.107,-59.9857 L 749.08,-60.5 L 749.107,-61.0143 L 749.188,-61.5229 L 749.321,-62.0204
 L 749.505,-62.5011 L 749.739,-62.96 L 750.02,-63.3919 L 750.344,-63.7921 L 750.708,-64.1563 L 751.108,-64.4804
 L 751.45,-64.7024 L 751.45,-74 L 751.506,-74.5302 L 751.67,-75.0372 L 751.937,-75.4988 L 752.294,-75.895
 L 752.725,-76.2084 L 753.212,-76.4252 L 753.733,-76.536 L 754.267,-76.536 L 754.788,-76.4252 L 755.275,-76.2084
 L 755.706,-75.895 L 756.063,-75.4988 L 756.33,-75.0372 L 756.494,-74.5302 L 756.55,-74 L 756.55,-64.7024
 L 756.892,-64.4804 L 757.292,-64.1563 L 757.656,-63.7921 L 757.98,-63.3919 L 758.261,-62.96 L 758.495,-62.5011
 L 758.679,-62.0204 L 758.812,-61.5229 L 758.893,-61.0143 L 758.92,-60.5 L 758.893,-59.9857 L 758.812,-59.4771
 L 758.679,-58.9796 L 758.495,-58.4989 L 758.261,-58.04 L 757.98,-57.6081 L 757.656,-57.2079 L 757.292,-56.8437
 L 756.892,-56.5196 L 756.46,-56.2392 L 756.001,-56.0054 L 755.52,-55.8208 L 755.023,-55.6875 L 754.514,-55.607
 L 754,-55.58 z
M 1313.36,-55.607 L 1312.85,-55.6875 L 1312.35,-55.8208 L 1311.87,-56.0054 L 1311.42,-56.2392 L 1310.98,-56.5196
 L 1310.58,-56.8437 L 1310.22,-57.2079 L 1309.89,-57.6081 L 1309.61,-58.04 L 1309.38,-58.4989 L 1309.2,-58.9796
 L 1309.06,-59.4771 L 1308.98,-59.9857 L 1308.96,-60.5 L 1308.98,-61.0143 L 1309.06,-61.5229 L 1309.2,-62.0204
 L 1309.38,-62.5011 L 1309.61,-62.96 L 1309.89,-63.3919 L 1310.22,-63.7921 L 1310.58,-64.1563 L 1310.98,-64.4804
 L 1311.33,-64.7024 L 1311.33,-74 L 1311.38,-74.5302 L 1311.55,-75.0372 L 1311.81,-75.4988 L 1312.17,-75.895
 L 1312.6,-76.2084 L 1313.09,-76.4252 L 1313.61,-76.536 L 1314.14,-76.536 L 1314.66,-76.4252 L 1315.15,-76.2084
 L 1315.58,-75.895 L 1315.94,-75.4988 L 1316.2,-75.0372 L 1316.37,-74.5302 L 1316.42,-74 L 1316.42,-64.7024
 L 1316.77,-64.4804 L 1317.17,-64.1563 L 1317.53,-63.7921 L 1317.86,-63.3919 L 1318.14,-62.96 L 1318.37,-62.5011
 L 1318.55,-62.0204 L 1318.69,-61.5229 L 1318.77,-61.0143 L 1318.79,-60.5 L 1318.77,-59.9857 L 1318.69,-59.4771
 L 1318.55,-58.9796 L 1318.37,-58.4989 L 1318.14,-58.04 L 1317.86,-57.6081 L 1317.53,-57.2079 L 1317.17,-56.8437
 L 1316.77,-56.5196 L 1316.33,-56.2392 L 1315.88,-56.0054 L 1315.4,-55.8208 L 1314.9,-55.6875 L 1314.39,-55.607
 L 1313.88,-55.58 z
M 566.861,-55.607 L 566.352,-55.6875 L 565.855,-55.8208 L 565.374,-56.0054 L 564.915,-56.2392 L 564.483,-56.5196
 L 564.083,-56.8437 L 563.719,-57.2079 L 563.395,-57.6081 L 563.114,-58.04 L 562.88,-58.4989 L 562.696,-58.9796
 L 562.563,-59.4771 L 562.482,-59.9857 L 562.455,-60.5 L 562.482,-61.0143 L 562.563,-61.5229 L 562.696,-62.0204
 L 562.88,-62.5011 L 563.114,-62.96 L 563.395,-63.3919 L 563.719,-63.7921 L 564.083,-64.1563 L 564.483,-64.4804
 L 564.825,-64.7024 L 564.825,-74 L 564.881,-74.5302 L 565.045,-75.0372 L 565.312,-75.4988 L 565.669,-75.895
 L 566.1,-76.2084 L 566.587,-76.4252 L 567.108,-76.536 L 567.642,-76.536 L 568.163,-76.4252 L 568.65,-76.2084
 L 569.081,-75.895 L 569.438,-75.4988 L 569.705,-75.0372 L 569.869,-74.5302 L 569.925,-74 L 569.925,-64.7024
 L 570.267,-64.4804 L 570.667,-64.1563 L 571.031,-63.7921 L 571.355,-63.3919 L 571.636,-62.96 L 571.87,-62.5011
 L 572.054,-62.0204 L 572.187,-61.5229 L 572.268,-61.0143 L 572.295,-60.5 L 572.268,-59.9857 L 572.187,-59.4771
 L 572.054,-58.9796 L 571.87,-58.4989 L 571.636,-58.04 L 571.355,-57.6081 L 571.031,-57.2079 L 570.667,-56.8437
 L 570.267,-56.5196 L 569.835,-56.2392 L 569.376,-56.0054 L 568.895,-55.8208 L 568.398,-55.6875 L 567.889,-55.607
 L 567.375,-55.58 z
M 380.236,-55.607 L 379.727,-55.6875 L 379.23,-55.8208 L 378.749,-56.0054 L 378.29,-56.2392 L 377.858,-56.5196
 L 377.458,-56.8437 L 377.094,-57.2079 L 376.77,-57.6081 L 376.489,-58.04 L 376.255,-58.4989 L 376.071,-58.9796
 L 375.938,-59.4771 L 375.857,-59.9857 L 375.83,-60.5 L 375.857,-61.0143 L 375.938,-61.5229 L 376.071,-62.0204
 L 376.255,-62.5011 L 376.489,-62.96 L 376.77,-63.3919 L 377.094,-63.7921 L 377.458,-64.1563 L 377.858,-64.4804
 L 378.2,-64.7024 L 378.2,-74 L 378.256,-74.5302 L 378.42,-75.0372 L 378.687,-75.4988 L 379.044,-75.895
 L 379.475,-76.2084 L 379.962,-76.4252 L 380.483,-76.536 L 381.017,-76.536 L 381.538,-76.4252 L 382.025,-76.2084
 L 382.456,-75.895 L 382.813,-75.4988 L 383.08,-75.0372 L 383.244,-74.5302 L 383.3,-74 L 383.3,-64.7024
 L 383.642,-64.4804 L 384.042,-64.1563 L 384.406,-63.7921 L 384.73,-63.3919 L 385.011,-62.96 L 385.245,-62.5011
 L 385.429,-62.0204 L 385.562,-61.5229 L 385.643,-61.0143 L 385.67,-60.5 L 385.643,-59.9857 L 385.562,-59.4771
 L 385.429,-58.9796 L 385.245,-58.4989 L 385.011,-58.04 L 384.73,-57.6081 L 384.406,-57.2079 L 384.042,-56.8437
 L 383.642,-56.5196 L 383.21,-56.2392 L 382.751,-56.0054 L 382.27,-55.8208 L 381.773,-55.6875 L 381.264,-55.607
 L 380.75,-55.58 z
M 1499.99,-55.607 L 1499.48,-55.6875 L 1498.98,-55.8208 L 1498.5,-56.0054 L 1498.04,-56.2392 L 1497.61,-56.5196
 L 1497.21,-56.8437 L 1496.84,-57.2079 L 1496.52,-57.6081 L 1496.24,-58.04 L 1496.01,-58.4989 L 1495.82,-58.9796
 L 1495.69,-59.4771 L 1495.61,-59.9857 L 1495.58,-60.5 L 1495.61,-61.0143 L 1495.69,-61.5229 L 1495.82,-62.0204
 L 1496.01,-62.5011 L 1496.24,-62.96 L 1496.52,-63.3919 L 1496.84,-63.7921 L 1497.21,-64.1563 L 1497.61,-64.4804
 L 1497.95,-64.7024 L 1497.95,-74 L 1498.01,-74.5302 L 1498.17,-75.0372 L 1498.44,-75.4988 L 1498.79,-75.895
 L 1499.23,-76.2084 L 1499.71,-76.4252 L 1500.23,-76.536 L 1500.77,-76.536 L 1501.29,-76.4252 L 1501.77,-76.2084
 L 1502.21,-75.895 L 1502.56,-75.4988 L 1502.83,-75.0372 L 1502.99,-74.5302 L 1503.05,-74 L 1503.05,-64.7024
 L 1503.39,-64.4804 L 1503.79,-64.1563 L 1504.16,-63.7921 L 1504.48,-63.3919 L 1504.76,-62.96 L 1504.99,-62.5011
 L 1505.18,-62.0204 L 1505.31,-61.5229 L 1505.39,-61.0143 L 1505.42,-60.5 L 1505.39,-59.9857 L 1505.31,-59.4771
 L 1505.18,-58.9796 L 1504.99,-58.4989 L 1504.76,-58.04 L 1504.48,-57.6081 L 1504.16,-57.2079 L 1503.79,-56.8437
 L 1503.39,-56.5196 L 1502.96,-56.2392 L 1502.5,-56.0054 L 1502.02,-55.8208 L 1501.52,-55.6875 L 1501.01,-55.607
 L 1500.5,-55.58 z
M 367.192,-20.6034 L 366.381,-20.806 L 274.617,-54.2417 L 273.635,-54.7639 L 273.013,-55.3235 L 272.522,-56
 L 272.182,-56.7639 L 272.008,-57.5819 L 272.008,-58.4181 L 272.182,-59.2361 L 272.522,-60 L 273.013,-60.6765
 L 273.635,-61.2361 L 274.359,-61.6542 L 275.154,-61.9126 L 275.986,-62 L 367.75,-62 L 368.986,-61.8042
 L 369.75,-61.4641 L 370.427,-60.9726 L 370.986,-60.3511 L 371.404,-59.627 L 371.663,-58.8316 L 371.75,-58
 L 371.75,-24.5642 L 371.631,-23.5952 L 371.345,-22.8095 L 370.901,-22.1005 L 370.32,-21.4992 L 369.627,-21.0318
 L 368.851,-20.7188 L 368.028,-20.5739 z
M 553.817,-20.6034 L 553.006,-20.806 L 461.242,-54.2417 L 460.26,-54.7639 L 459.638,-55.3235 L 459.147,-56
 L 458.807,-56.7639 L 458.633,-57.5819 L 458.633,-58.4181 L 458.807,-59.2361 L 459.147,-60 L 459.638,-60.6765
 L 460.26,-61.2361 L 460.984,-61.6542 L 461.779,-61.9126 L 462.611,-62 L 554.375,-62 L 555.611,-61.8042
 L 556.375,-61.4641 L 557.052,-60.9726 L 557.611,-60.3511 L 558.029,-59.627 L 558.288,-58.8316 L 558.375,-58
 L 558.375,-24.5642 L 558.256,-23.5952 L 557.97,-22.8095 L 557.526,-22.1005 L 556.945,-21.4992 L 556.252,-21.0318
 L 555.476,-20.7188 L 554.653,-20.5739 z
M 1325.77,-20.7188 L 1325,-21.0318 L 1324.3,-21.4992 L 1323.72,-22.1005 L 1323.28,-22.8095 L 1322.99,-23.5952
 L 1322.88,-24.5642 L 1322.88,-58 L 1322.96,-58.8316 L 1323.22,-59.627 L 1323.64,-60.3511 L 1324.2,-60.9726
 L 1324.88,-61.4641 L 1325.64,-61.8042 L 1326.88,-62 L 1418.64,-62 L 1419.47,-61.9126 L 1420.27,-61.6542
 L 1420.99,-61.2361 L 1421.61,-60.6765 L 1422.1,-60 L 1422.44,-59.2361 L 1422.62,-58.4181 L 1422.62,-57.5819
 L 1422.44,-56.7639 L 1422.1,-56 L 1421.61,-55.3235 L 1420.99,-54.7639 L 1420.01,-54.2417 L 1328.24,-20.806
 L 1327.43,-20.6034 L 1326.6,-20.5739 z
M 740.442,-20.6034 L 739.631,-20.806 L 647.867,-54.2417 L 646.885,-54.7639 L 646.263,-55.3235 L 645.772,-56
 L 645.432,-56.7639 L 645.258,-57.5819 L 645.258,-58.4181 L 645.432,-59.2361 L 645.772,-60 L 646.263,-60.6765
 L 646.885,-61.2361 L 647.609,-61.6542 L 648.404,-61.9126 L 649.236,-62 L 741,-62 L 742.236,-61.8042
 L 743,-61.4641 L 743.677,-60.9726 L 744.236,-60.3511 L 744.654,-59.627 L 744.913,-58.8316 L 745,-58
 L 745,-24.5642 L 744.881,-23.5952 L 744.595,-22.8095 L 744.151,-22.1005 L 743.57,-21.4992 L 742.877,-21.0318
 L 742.101,-20.7188 L 741.278,-20.5739 z
M 180.567,-20.6034 L 179.756,-20.806 L 87.9916,-54.2417 L 87.0099,-54.7639 L 86.3885,-55.3235 L 85.8969,-56
 L 85.5568,-56.7639 L 85.3829,-57.5819 L 85.3829,-58.4181 L 85.5568,-59.2361 L 85.8969,-60 L 86.3885,-60.6765
 L 87.0099,-61.2361 L 87.7341,-61.6542 L 88.5294,-61.9126 L 89.361,-62 L 181.125,-62 L 182.361,-61.8042
 L 183.125,-61.4641 L 183.802,-60.9726 L 184.361,-60.3511 L 184.779,-59.627 L 185.038,-58.8316 L 185.125,-58
 L 185.125,-24.5642 L 185.006,-23.5952 L 184.72,-22.8095 L 184.276,-22.1005 L 183.695,-21.4992 L 183.002,-21.0318
 L 182.226,-20.7188 L 181.403,-20.5739 z
M 765.899,-20.7188 L 765.123,-21.0318 L 764.43,-21.4992 L 763.849,-22.1005 L 763.405,-22.8095 L 763.119,-23.5952
 L 763,-24.5642 L 763,-58 L 763.087,-58.8316 L 763.346,-59.627 L 763.764,-60.3511 L 764.323,-60.9726
 L 765,-61.4641 L 765.764,-61.8042 L 767,-62 L 858.764,-62 L 859.596,-61.9126 L 860.391,-61.6542
 L 861.115,-61.2361 L 861.737,-60.6765 L 862.228,-60 L 862.568,-59.2361 L 862.742,-58.4181 L 862.742,-57.5819
 L 862.568,-56.7639 L 862.228,-56 L 861.737,-55.3235 L 861.115,-54.7639 L 860.133,-54.2417 L 768.369,-20.806
 L 767.558,-20.6034 L 766.722,-20.5739 z
M 952.524,-20.7188 L 951.748,-21.0318 L 951.055,-21.4992 L 950.474,-22.1005 L 950.03,-22.8095 L 949.744,-23.5952
 L 949.625,-24.5642 L 949.625,-58 L 949.712,-58.8316 L 949.971,-59.627 L 950.389,-60.3511 L 950.948,-60.9726
 L 951.625,-61.4641 L 952.389,-61.8042 L 953.625,-62 L 1045.39,-62 L 1046.22,-61.9126 L 1047.02,-61.6542
 L 1047.74,-61.2361 L 1048.36,-60.6765 L 1048.85,-60 L 1049.19,-59.2361 L 1049.37,-58.4181 L 1049.37,-57.5819
 L 1049.19,-56.7639 L 1048.85,-56 L 1048.36,-55.3235 L 1047.74,-54.7639 L 1046.76,-54.2417 L 954.994,-20.806
 L 954.183,-20.6034 L 953.347,-20.5739 z
M 1139.15,-20.7188 L 1138.37,-21.0318 L 1137.68,-21.4992 L 1137.1,-22.1005 L 1136.66,-22.8095 L 1136.37,-23.5952
 L 1136.25,-24.5642 L 1136.25,-58 L 1136.34,-58.8316 L 1136.6,-59.627 L 1137.01,-60.3511 L 1137.57,-60.9726
 L 1138.25,-61.4641 L 1139.01,-61.8042 L 1140.25,-62 L 1232.01,-62 L 1232.85,-61.9126 L 1233.64,-61.6542
 L 1234.37,-61.2361 L 1234.99,-60.6765 L 1235.48,-60 L 1235.82,-59.2361 L 1235.99,-58.4181 L 1235.99,-57.5819
 L 1235.82,-56.7639 L 1235.48,-56 L 1234.99,-55.3235 L 1234.37,-54.7639 L 1233.38,-54.2417 L 1141.62,-20.806
 L 1140.81,-20.6034 L 1139.97,-20.5739 z
M 207.125,-18 L 205.889,-18.1958 L 205.125,-18.5359 L 204.448,-19.0274 L 203.889,-19.6489 L 203.471,-20.373
 L 203.212,-21.1684 L 203.125,-22 L 203.125,-55.4357 L 203.244,-56.4048 L 203.53,-57.1905 L 203.974,-57.8995
 L 204.555,-58.5008 L 205.248,-58.9682 L 206.024,-59.2812 L 206.847,-59.4261 L 207.683,-59.3966 L 208.494,-59.194
 L 300.258,-25.7583 L 301.24,-25.2361 L 301.862,-24.6765 L 302.353,-24 L 302.693,-23.2361 L 302.867,-22.4181
 L 302.867,-21.5819 L 302.693,-20.7639 L 302.353,-20 L 301.862,-19.3235 L 301.24,-18.7639 L 300.516,-18.3458
 L 299.721,-18.0874 L 298.889,-18 z
M 393.75,-18 L 392.514,-18.1958 L 391.75,-18.5359 L 391.073,-19.0274 L 390.514,-19.6489 L 390.096,-20.373
 L 389.837,-21.1684 L 389.75,-22 L 389.75,-55.4357 L 389.869,-56.4048 L 390.155,-57.1905 L 390.599,-57.8995
 L 391.18,-58.5008 L 391.873,-58.9682 L 392.649,-59.2812 L 393.472,-59.4261 L 394.308,-59.3966 L 395.119,-59.194
 L 486.883,-25.7583 L 487.865,-25.2361 L 488.487,-24.6765 L 488.978,-24 L 489.318,-23.2361 L 489.492,-22.4181
 L 489.492,-21.5819 L 489.318,-20.7639 L 488.978,-20 L 488.487,-19.3235 L 487.865,-18.7639 L 487.141,-18.3458
 L 486.346,-18.0874 L 485.514,-18 z
M 580.375,-18 L 579.139,-18.1958 L 578.375,-18.5359 L 577.698,-19.0274 L 577.139,-19.6489 L 576.721,-20.373
 L 576.462,-21.1684 L 576.375,-22 L 576.375,-55.4357 L 576.494,-56.4048 L 576.78,-57.1905 L 577.224,-57.8995
 L 577.805,-58.5008 L 578.498,-58.9682 L 579.274,-59.2812 L 580.097,-59.4261 L 580.933,-59.3966 L 581.744,-59.194
 L 673.508,-25.7583 L 674.49,-25.2361 L 675.112,-24.6765 L 675.603,-24 L 675.943,-23.2361 L 676.117,-22.4181
 L 676.117,-21.5819 L 675.943,-20.7639 L 675.603,-20 L 675.112,-19.3235 L 674.49,-18.7639 L 673.766,-18.3458
 L 672.971,-18.0874 L 672.139,-18 z
M 835.861,-18 L 835.029,-18.0874 L 834.234,-18.3458 L 833.51,-18.7639 L 832.888,-19.3235 L 832.397,-20
 L 832.057,-20.7639 L 831.883,-21.5819 L 831.883,-22.4181 L 832.057,-23.2361 L 832.397,-24 L 832.888,-24.6765
 L 833.51,-25.2361 L 834.492,-25.7583 L 926.256,-59.194 L 927.067,-59.3966 L 927.903,-59.4261 L 928.726,-59.2812
 L 929.502,-58.9682 L 930.195,-58.5008 L 930.776,-57.8995 L 931.22,-57.1905 L 931.506,-56.4048 L 931.625,-55.4357
 L 931.625,-22 L 931.538,-21.1684 L 931.279,-20.373 L 930.861,-19.6489 L 930.302,-19.0274 L 929.625,-18.5359
 L 928.861,-18.1958 L 927.625,-18 z
M 1022.49,-18 L 1021.65,-18.0874 L 1020.86,-18.3458 L 1020.13,-18.7639 L 1019.51,-19.3235 L 1019.02,-20
 L 1018.68,-20.7639 L 1018.51,-21.5819 L 1018.51,-22.4181 L 1018.68,-23.2361 L 1019.02,-24 L 1019.51,-24.6765
 L 1020.13,-25.2361 L 1021.12,-25.7583 L 1112.88,-59.194 L 1113.69,-59.3966 L 1114.53,-59.4261 L 1115.35,-59.2812
 L 1116.13,-58.9682 L 1116.82,-58.5008 L 1117.4,-57.8995 L 1117.84,-57.1905 L 1118.13,-56.4048 L 1118.25,-55.4357
 L 1118.25,-22 L 1118.16,-21.1684 L 1117.9,-20.373 L 1117.49,-19.6489 L 1116.93,-19.0274 L 1116.25,-18.5359
 L 1115.49,-18.1958 L 1114.25,-18 z
M 1209.11,-18 L 1208.28,-18.0874 L 1207.48,-18.3458 L 1206.76,-18.7639 L 1206.14,-19.3235 L 1205.65,-20
 L 1205.31,-20.7639 L 1205.13,-21.5819 L 1205.13,-22.4181 L 1205.31,-23.2361 L 1205.65,-24 L 1206.14,-24.6765
 L 1206.76,-25.2361 L 1207.74,-25.7583 L 1299.51,-59.194 L 1300.32,-59.3966 L 1301.15,-59.4261 L 1301.98,-59.2812
 L 1302.75,-58.9682 L 1303.45,-58.5008 L 1304.03,-57.8995 L 1304.47,-57.1905 L 1304.76,-56.4048 L 1304.88,-55.4357
 L 1304.88,-22 L 1304.79,-21.1684 L 1304.53,-20.373 L 1304.11,-19.6489 L 1303.55,-19.0274 L 1302.88,-18.5359
 L 1302.11,-18.1958 L 1300.88,-18 z
M 1395.74,-18 L 1394.9,-18.0874 L 1394.11,-18.3458 L 1393.38,-18.7639 L 1392.76,-19.3235 L 1392.27,-20
 L 1391.93,-20.7639 L 1391.76,-21.5819 L 1391.76,-22.4181 L 1391.93,-23.2361 L 1392.27,-24 L 1392.76,-24.6765
 L 1393.38,-25.2361 L 1394.37,-25.7583 L 1484.63,-58.6475 L 1485.44,-58.8501 L 1486.28,-58.8796 L 1487.1,-58.7346
 L 1487.88,-58.4217 L 1488.57,-57.9543 L 1489.15,-57.353 L 1489.59,-56.644 L 1489.88,-55.8582 L 1490,-54.8892
 L 1490,-22 L 1489.91,-21.1684 L 1489.65,-20.373 L 1489.24,-19.6489 L 1488.68,-19.0274 L 1488,-18.5359
 L 1487.24,-18.1958 L 1486,-18 z
M 22,-18 L 20.7639,-18.1958 L 20,-18.5359 L 19.3235,-19.0274 L 18.7639,-19.6489 L 18.3458,-20.373
 L 18.0874,-21.1684 L 18,-22 L 18,-54.8892 L 18.1192,-55.8582 L 18.4054,-56.644 L 18.8488,-57.353
 L 19.4299,-57.9543 L 20.1234,-58.4217 L 20.8988,-58.7346 L 21.7224,-58.8796 L 22.5581,-58.8501 L 23.3694,-58.6475
 L 113.633,-25.7583 L 114.615,-25.2361 L 115.237,-24.6765 L 115.728,-24 L 116.068,-23.2361 L 116.242,-22.4181
 L 116.242,-21.5819 L 116.068,-20.7639 L 115.728,-20 L 115.237,-19.3235 L 114.615,-18.7639 L 113.891,-18.3458
 L 113.096,-18.0874 L 112.264,-18 z
" stroke="black" fill="lightgray" stroke-width="0.5"/>
</svg>
