<?xml version="1.0" standalone="no"?>
<!DOCTYPE svg PUBLIC "-//W3C//DTD SVG 1.1//EN" "http://www.w3.org/Graphics/SVG/1.1/DTD/svg11.dtd">
<svg width="1082mm" height="80mm" viewBox="0 -80 1082 80" xmlns="http://www.w3.org/2000/svg" version="1.1">
<title>OpenSCAD Model</title>
<path d="
M 1082,-80 L 0,-80 L 0,-0 L 4.95,-0 L 4.95,-6 L 5.00572,-6.53017
 L 5.17046,-7.03717 L 5.437,-7.49884 L 5.79372,-7.895 L 6.22499,-8.20836 L 6.71201,-8.42519 L 7.23344,-8.53603
 L 7.76654,-8.53603 L 8.28798,-8.42519 L 8.77499,-8.20836 L 9.20627,-7.895 L 9.56299,-7.49884 L 9.82953,-7.03717
 L 9.99426,-6.53017 L 10.05,-6 L 10.05,-0 L 182.783,-0 L 182.783,-6 L 182.839,-6.53017
 L 183.004,-7.03717 L 183.27,-7.49884 L 183.627,-7.895 L 184.058,-8.20836 L 184.545,-8.42519 L 185.067,-8.53603
 L 185.6,-8.53603 L 186.121,-8.42519 L 186.608,-8.20836 L 187.04,-7.895 L 187.396,-7.49884 L 187.663,-7.03717
 L 187.828,-6.53017 L 187.883,-6 L 187.883,-0 L 360.617,-0 L 360.617,-6 L 360.672,-6.53017
 L 360.837,-7.03717 L 361.104,-7.49884 L 361.46,-7.895 L 361.892,-8.20836 L 362.379,-8.42519 L 362.9,-8.53603
 L 363.433,-8.53603 L 363.955,-8.42519 L 364.442,-8.20836 L 364.873,-7.895 L 365.23,-7.49884 L 365.496,-7.03717
 L 365.661,-6.53017 L 365.717,-6 L 365.717,-0 L 538.45,-0 L 538.45,-6 L 538.506,-6.53017
 L 538.67,-7.03717 L 538.937,-7.49884 L 539.294,-7.895 L 539.725,-8.20836 L 540.212,-8.42519 L 540.733,-8.53603
 L 541.267,-8.53603 L 541.788,-8.42519 L 542.275,-8.20836 L 542.706,-7.895 L 543.063,-7.49884 L 543.33,-7.03717
 L 543.494,-6.53017 L 543.55,-6 L 543.55,-0 L 716.283,-0 L 716.283,-6 L 716.339,-6.53017
 L 716.504,-7.03717 L 716.77,-7.49884 L 717.127,-7.895 L 717.558,-8.20836 L 718.045,-8.42519 L 718.567,-8.53603
 L 719.1,-8.53603 L 719.621,-8.42519 L 720.108,-8.20836 L 720.54,-7.895 L 720.896,-7.49884 L 721.163,-7.03717
 L 721.328,-6.53017 L 721.383,-6 L 721.383,-0 L 894.117,-0 L 894.117,-6 L 894.172,-6.53017
 L 894.337,-7.03717 L 894.604,-7.49884 L 894.96,-7.895 L 895.392,-8.20836 L 895.879,-8.42519 L 896.4,-8.53603
 L 896.933,-8.53603 L 897.455,-8.42519 L 897.942,-8.20836 L 898.373,-7.895 L 898.73,-7.49884 L 898.996,-7.03717
 L 899.161,-6.53017 L 899.217,-6 L 899.217,-0 L 1071.95,-0 L 1071.95,-6 L 1072.01,-6.53017
 L 1072.17,-7.03717 L 1072.44,-7.49884 L 1072.79,-7.895 L 1073.22,-8.20836 L 1073.71,-8.42519 L 1074.23,-8.53603
 L 1074.77,-8.53603 L 1075.29,-8.42519 L 1075.77,-8.20836 L 1076.21,-7.895 L 1076.56,-7.49884 L 1076.83,-7.03717
 L 1076.99,-6.53017 L 1077.05,-6 L 1077.05,-0 L 1082,-0 z
M 6.98573,-55.607 L 6.47708,-55.6875 L 5.97964,-55.8208 L 5.49887,-56.0054 L 5.04001,-56.2392 L 4.60811,-56.5196
 L 4.20789,-56.8437 L 3.84373,-57.2079 L 3.51964,-57.6081 L 3.23917,-58.04 L 3.00537,-58.4989 L 2.82082,-58.9796
 L 2.68752,-59.4771 L 2.60696,-59.9857 L 2.58,-60.5 L 2.60696,-61.0143 L 2.68752,-61.5229 L 2.82082,-62.0204
 L 3.00537,-62.5011 L 3.23917,-62.96 L 3.51964,-63.3919 L 3.84373,-63.7921 L 4.20789,-64.1563 L 4.60811,-64.4804
 L 4.95001,-64.7024 L 4.95001,-74 L 5.00574,-74.5302 L 5.17047,-75.0372 L 5.43701,-75.4988 L 5.79373,-75.895
 L 6.22501,-76.2084 L 6.71202,-76.4252 L 7.23346,-76.536 L 7.76654,-76.536 L 8.28798,-76.4252 L 8.77499,-76.2084
 L 9.20627,-75.895 L 9.56299,-75.4988 L 9.82953,-75.0372 L 9.99426,-74.5302 L 10.05,-74 L 10.05,-64.7024
 L 10.3919,-64.4804 L 10.7921,-64.1563 L 11.1563,-63.7921 L 11.4804,-63.3919 L 11.7608,-62.96 L 11.9946,-62.5011
 L 12.1792,-62.0204 L 12.3125,-61.5229 L 12.393,-61.0143 L 12.42,-60.5 L 12.393,-59.9857 L 12.3125,-59.4771
 L 12.1792,-58.9796 L 11.9946,-58.4989 L 11.7608,-58.04 L 11.4804,-57.6081 L 11.1563,-57.2079 L 10.7921,-56.8437
 L 10.3919,-56.5196 L 9.95999,-56.2392 L 9.50113,-56.0054 L 9.02036,-55.8208 L 8.52292,-55.6875 L 8.01427,-55.607
 L 7.5,-55.58 z
M 184.819,-55.607 L 184.31,-55.6875 L 183.813,-55.8208 L 183.332,-56.0054 L 182.873,-56.2392 L 182.441,-56.5196
 L 182.041,-56.8437 L 181.677,-57.2079 L 181.353,-57.6081 L 181.072,-58.04 L 180.839,-58.4989 L 180.654,-58.9796
 L 180.521,-59.4771 L 180.44,-59.9857 L 180.413,-60.5 L 180.44,-61.0143 L 180.521,-61.5229 L 180.654,-62.0204
 L 180.839,-62.5011 L 181.072,-62.96 L 181.353,-63.3919 L 181.677,-63.7921 L 182.041,-64.1563 L 182.441,-64.4804
 L 182.783,-64.7024 L 182.783,-74 L 182.839,-74.5302 L 183.004,-75.0372 L 183.27,-75.4988 L 183.627,-75.895
 L 184.058,-76.2084 L 184.545,-76.4252 L 185.067,-76.536 L 185.6,-76.536 L 186.121,-76.4252 L 186.608,-76.2084
 L 187.04,-75.895 L 187.396,-75.4988 L 187.663,-75.0372 L 187.828,-74.5302 L 187.883,-74 L 187.883,-64.7024
 L 188.225,-64.4804 L 188.625,-64.1563 L 188.99,-63.7921 L 189.314,-63.3919 L 189.594,-62.96 L 189.828,-62.5011
 L 190.013,-62.0204 L 190.146,-61.5229 L 190.226,-61.0143 L 190.253,-60.5 L 190.226,-59.9857 L 190.146,-59.4771
 L 190.013,-58.9796 L 189.828,-58.4989 L 189.594,-58.04 L 189.314,-57.6081 L 188.99,-57.2079 L 188.625,-56.8437
 L 188.225,-56.5196 L 187.793,-56.2392 L 187.334,-56.0054 L 186.854,-55.8208 L 186.356,-55.6875 L 185.848,-55.607
 L 185.333,-55.58 z
M 362.652,-55.607 L 362.144,-55.6875 L 361.646,-55.8208 L 361.166,-56.0054 L 360.707,-56.2392 L 360.275,-56.5196
 L 359.875,-56.8437 L 359.51,-57.2079 L 359.186,-57.6081 L 358.906,-58.04 L 358.672,-58.4989 L 358.487,-58.9796
 L 358.354,-59.4771 L 358.274,-59.9857 L 358.247,-60.5 L 358.274,-61.0143 L 358.354,-61.5229 L 358.487,-62.0204
 L 358.672,-62.5011 L 358.906,-62.96 L 359.186,-63.3919 L 359.51,-63.7921 L 359.875,-64.1563 L 360.275,-64.4804
 L 360.617,-64.7024 L 360.617,-74 L 360.672,-74.5302 L 360.837,-75.0372 L 361.104,-75.4988 L 361.46,-75.895
 L 361.892,-76.2084 L 362.379,-76.4252 L 362.9,-76.536 L 363.433,-76.536 L 363.955,-76.4252 L 364.442,-76.2084
 L 364.873,-75.895 L 365.23,-75.4988 L 365.496,-75.0372 L 365.661,-74.5302 L 365.717,-74 L 365.717,-64.7024
 L 366.059,-64.4804 L 366.459,-64.1563 L 366.823,-63.7921 L 367.147,-63.3919 L 367.427,-62.96 L 367.661,-62.5011
 L 367.846,-62.0204 L 367.979,-61.5229 L 368.06,-61.0143 L 368.087,-60.5 L 368.06,-59.9857 L 367.979,-59.4771
 L 367.846,-58.9796 L 367.661,-58.4989 L 367.427,-58.04 L 367.147,-57.6081 L 366.823,-57.2079 L 366.459,-56.8437
 L 366.059,-56.5196 L 365.627,-56.2392 L 365.168,-56.0054 L 364.687,-55.8208 L 364.19,-55.6875 L 363.681,-55.607
 L 363.167,-55.58 z
M 540.486,-55.607 L 539.977,-55.6875 L 539.48,-55.8208 L 538.999,-56.0054 L 538.54,-56.2392 L 538.108,-56.5196
 L 537.708,-56.8437 L 537.344,-57.2079 L 537.02,-57.6081 L 536.739,-58.04 L 536.505,-58.4989 L 536.321,-58.9796
 L 536.188,-59.4771 L 536.107,-59.9857 L 536.08,-60.5 L 536.107,-61.0143 L 536.188,-61.5229 L 536.321,-62.0204
 L 536.505,-62.5011 L 536.739,-62.96 L 537.02,-63.3919 L 537.344,-63.7921 L 537.708,-64.1563 L 538.108,-64.4804
 L 538.45,-64.7024 L 538.45,-74 L 538.506,-74.5302 L 538.67,-75.0372 L 538.937,-75.4988 L 539.294,-75.895
 L 539.725,-76.2084 L 540.212,-76.4252 L 540.733,-76.536 L 541.267,-76.536 L 541.788,-76.4252 L 542.275,-76.2084
 L 542.706,-75.895 L 543.063,-75.4988 L 543.33,-75.0372 L 543.494,-74.5302 L 543.55,-74 L 543.55,-64.7024
 L 543.892,-64.4804 L 544.292,-64.1563 L 544.656,-63.7921 L 544.98,-63.3919 L 545.261,-62.96 L 545.495,-62.5011
 L 545.679,-62.0204 L 545.812,-61.5229 L 545.893,-61.0143 L 545.92,-60.5 L 545.893,-59.9857 L 545.812,-59.4771
 L 545.679,-58.9796 L 545.495,-58.4989 L 545.261,-58.04 L 544.98,-57.6081 L 544.656,-57.2079 L 544.292,-56.8437
 L 543.892,-56.5196 L 543.46,-56.2392 L 543.001,-56.0054 L 542.52,-55.8208 L 542.023,-55.6875 L 541.514,-55.607
 L 541,-55.58 z
M 718.319,-55.607 L 717.81,-55.6875 L 717.313,-55.8208 L 716.832,-56.0054 L 716.373,-56.2392 L 715.941,-56.5196
 L 715.541,-56.8437 L 715.177,-57.2079 L 714.853,-57.6081 L 714.572,-58.04 L 714.339,-58.4989 L 714.154,-58.9796
 L 714.021,-59.4771 L 713.94,-59.9857 L 713.913,-60.5 L 713.94,-61.0143 L 714.021,-61.5229 L 714.154,-62.0204
 L 714.339,-62.5011 L 714.572,-62.96 L 714.853,-63.3919 L 715.177,-63.7921 L 715.541,-64.1563 L 715.941,-64.4804
 L 716.283,-64.7024 L 716.283,-74 L 716.339,-74.5302 L 716.504,-75.0372 L 716.77,-75.4988 L 717.127,-75.895
 L 717.558,-76.2084 L 718.045,-76.4252 L 718.567,-76.536 L 719.1,-76.536 L 719.621,-76.4252 L 720.108,-76.2084
 L 720.54,-75.895 L 720.896,-75.4988 L 721.163,-75.0372 L 721.328,-74.5302 L 721.383,-74 L 721.383,-64.7024
 L 721.725,-64.4804 L 722.125,-64.1563 L 722.49,-63.7921 L 722.814,-63.3919 L 723.094,-62.96 L 723.328,-62.5011
 L 723.513,-62.0204 L 723.646,-61.5229 L 723.726,-61.0143 L 723.753,-60.5 L 723.726,-59.9857 L 723.646,-59.4771
 L 723.513,-58.9796 L 723.328,-58.4989 L 723.094,-58.04 L 722.814,-57.6081 L 722.49,-57.2079 L 722.125,-56.8437
 L 721.725,-56.5196 L 721.293,-56.2392 L 720.834,-56.0054 L 720.354,-55.8208 L 719.856,-55.6875 L 719.348,-55.607
 L 718.833,-55.58 z
M 896.152,-55.607 L 895.644,-55.6875 L 895.146,-55.8208 L 894.666,-56.0054 L 894.207,-56.2392 L 893.775,-56.5196
 L 893.375,-56.8437 L 893.01,-57.2079 L 892.686,-57.6081 L 892.406,-58.04 L 892.172,-58.4989 L 891.987,-58.9796
 L 891.854,-59.4771 L 891.774,-59.9857 L 891.747,-60.5 L 891.774,-61.0143 L 891.854,-61.5229 L 891.987,-62.0204
 L 892.172,-62.5011 L 892.406,-62.96 L 892.686,-63.3919 L 893.01,-63.7921 L 893.375,-64.1563 L 893.775,-64.4804
 L 894.117,-64.7024 L 894.117,-74 L 894.172,-74.5302 L 894.337,-75.0372 L 894.604,-75.4988 L 894.96,-75.895
 L 895.392,-76.2084 L 895.879,-76.4252 L 896.4,-76.536 L 896.933,-76.536 L 897.455,-76.4252 L 897.942,-76.2084
 L 898.373,-75.895 L 898.73,-75.4988 L 898.996,-75.0372 L 899.161,-74.5302 L 899.217,-74 L 899.217,-64.7024
 L 899.559,-64.4804 L 899.959,-64.1563 L 900.323,-63.7921 L 900.647,-63.3919 L 900.927,-62.96 L 901.161,-62.5011
 L 901.346,-62.0204 L 901.479,-61.5229 L 901.56,-61.0143 L 901.587,-60.5 L 901.56,-59.9857 L 901.479,-59.4771
 L 901.346,-58.9796 L 901.161,-58.4989 L 900.927,-58.04 L 900.647,-57.6081 L 900.323,-57.2079 L 899.959,-56.8437
 L 899.559,-56.5196 L 899.127,-56.2392 L 898.668,-56.0054 L 898.187,-55.8208 L 897.69,-55.6875 L 897.181,-55.607
 L 896.667,-55.58 z
M 1073.99,-55.607 L 1073.48,-55.6875 L 1072.98,-55.8208 L 1072.5,-56.0054 L 1072.04,-56.2392 L 1071.61,-56.5196
 L 1071.21,-56.8437 L 1070.84,-57.2079 L 1070.52,-57.6081 L 1070.24,-58.04 L 1070.01,-58.4989 L 1069.82,-58.9796
 L 1069.69,-59.4771 L 1069.61,-59.9857 L 1069.58,-60.5 L 1069.61,-61.0143 L 1069.69,-61.5229 L 1069.82,-62.0204
 L 1070.01,-62.5011 L 1070.24,-62.96 L 1070.52,-63.3919 L 1070.84,-63.7921 L 1071.21,-64.1563 L 1071.61,-64.4804
 L 1071.95,-64.7024 L 1071.95,-74 L 1072.01,-74.5302 L 1072.17,-75.0372 L 1072.44,-75.4988 L 1072.79,-75.895
 L 1073.23,-76.2084 L 1073.71,-76.4252 L 1074.23,-76.536 L 1074.77,-76.536 L 1075.29,-76.4252 L 1075.77,-76.2084
 L 1076.21,-75.895 L 1076.56,-75.4988 L 1076.83,-75.0372 L 1076.99,-74.5302 L 1077.05,-74 L 1077.05,-64.7024
 L 1077.39,-64.4804 L 1077.79,-64.1563 L 1078.16,-63.7921 L 1078.48,-63.3919 L 1078.76,-62.96 L 1078.99,-62.5011
 L 1079.18,-62.0204 L 1079.31,-61.5229 L 1079.39,-61.0143 L 1079.42,-60.5 L 1079.39,-59.9857 L 1079.31,-59.4771
 L 1079.18,-58.9796 L 1078.99,-58.4989 L 1078.76,-58.04 L 1078.48,-57.6081 L 1078.16,-57.2079 L 1077.79,-56.8437
 L 1077.39,-56.5196 L 1076.96,-56.2392 L 1076.5,-56.0054 L 1076.02,-55.8208 L 1075.52,-55.6875 L 1075.01,-55.607
 L 1074.5,-55.58 z
M 908.626,-21.0084 L 907.846,-21.3091 L 907.145,-21.7654 L 906.555,-22.3575 L 906.1,-23.0594 L 905.802,-23.8405
 L 905.667,-24.8708 L 905.667,-58 L 905.754,-58.8316 L 906.012,-59.627 L 906.431,-60.3511 L 906.99,-60.9726
 L 907.667,-61.4641 L 908.431,-61.8042 L 909.667,-62 L 996.306,-62 L 997.138,-61.9126 L 997.933,-61.6542
 L 998.657,-61.2361 L 999.279,-60.6765 L 999.77,-60 L 1000.11,-59.2361 L 1000.28,-58.4181 L 1000.28,-57.5819
 L 1000.11,-56.7639 L 999.77,-56 L 999.279,-55.3235 L 998.657,-54.7639 L 997.735,-54.2638 L 911.095,-21.1346
 L 910.287,-20.9192 L 909.452,-20.8765 z
M 349.546,-20.9192 L 348.738,-21.1346 L 262.099,-54.2638 L 261.176,-54.7639 L 260.555,-55.3235 L 260.063,-56
 L 259.723,-56.7639 L 259.549,-57.5819 L 259.549,-58.4181 L 259.723,-59.2361 L 260.063,-60 L 260.555,-60.6765
 L 261.176,-61.2361 L 261.9,-61.6542 L 262.696,-61.9126 L 263.527,-62 L 350.167,-62 L 351.403,-61.8042
 L 352.167,-61.4641 L 352.843,-60.9726 L 353.403,-60.3511 L 353.821,-59.627 L 354.079,-58.8316 L 354.167,-58
 L 354.167,-24.8708 L 354.032,-23.8405 L 353.733,-23.0594 L 353.278,-22.3575 L 352.688,-21.7654 L 351.987,-21.3091
 L 351.207,-21.0084 L 350.381,-20.8765 z
M 171.713,-20.9192 L 170.905,-21.1346 L 84.2653,-54.2638 L 83.3428,-54.7639 L 82.7213,-55.3235 L 82.2298,-56
 L 81.8897,-56.7639 L 81.7158,-57.5819 L 81.7158,-58.4181 L 81.8897,-59.2361 L 82.2298,-60 L 82.7213,-60.6765
 L 83.3428,-61.2361 L 84.067,-61.6542 L 84.8623,-61.9126 L 85.6939,-62 L 172.333,-62 L 173.569,-61.8042
 L 174.333,-61.4641 L 175.01,-60.9726 L 175.569,-60.3511 L 175.988,-59.627 L 176.246,-58.8316 L 176.333,-58
 L 176.333,-24.8708 L 176.198,-23.8405 L 175.9,-23.0594 L 175.445,-22.3575 L 174.855,-21.7654 L 174.154,-21.3091
 L 173.374,-21.0084 L 172.548,-20.8765 z
M 527.379,-20.9192 L 526.571,-21.1346 L 439.932,-54.2638 L 439.009,-54.7639 L 438.388,-55.3235 L 437.896,-56
 L 437.556,-56.7639 L 437.382,-57.5819 L 437.382,-58.4181 L 437.556,-59.2361 L 437.896,-60 L 438.388,-60.6765
 L 439.009,-61.2361 L 439.734,-61.6542 L 440.529,-61.9126 L 441.361,-62 L 528,-62 L 529.236,-61.8042
 L 530,-61.4641 L 530.677,-60.9726 L 531.236,-60.3511 L 531.654,-59.627 L 531.913,-58.8316 L 532,-58
 L 532,-24.8708 L 531.865,-23.8405 L 531.566,-23.0594 L 531.112,-22.3575 L 530.521,-21.7654 L 529.821,-21.3091
 L 529.04,-21.0084 L 528.214,-20.8765 z
M 552.96,-21.0084 L 552.179,-21.3091 L 551.479,-21.7654 L 550.888,-22.3575 L 550.434,-23.0594 L 550.135,-23.8405
 L 550,-24.8708 L 550,-58 L 550.087,-58.8316 L 550.346,-59.627 L 550.764,-60.3511 L 551.323,-60.9726
 L 552,-61.4641 L 552.764,-61.8042 L 554,-62 L 640.639,-62 L 641.471,-61.9126 L 642.266,-61.6542
 L 642.991,-61.2361 L 643.612,-60.6765 L 644.104,-60 L 644.444,-59.2361 L 644.618,-58.4181 L 644.618,-57.5819
 L 644.444,-56.7639 L 644.104,-56 L 643.612,-55.3235 L 642.991,-54.7639 L 642.068,-54.2638 L 555.429,-21.1346
 L 554.621,-20.9192 L 553.785,-20.8765 z
M 730.793,-21.0084 L 730.013,-21.3091 L 729.312,-21.7654 L 728.721,-22.3575 L 728.267,-23.0594 L 727.968,-23.8405
 L 727.833,-24.8708 L 727.833,-58 L 727.921,-58.8316 L 728.179,-59.627 L 728.597,-60.3511 L 729.157,-60.9726
 L 729.833,-61.4641 L 730.597,-61.8042 L 731.833,-62 L 818.473,-62 L 819.304,-61.9126 L 820.1,-61.6542
 L 820.824,-61.2361 L 821.445,-60.6765 L 821.937,-60 L 822.277,-59.2361 L 822.451,-58.4181 L 822.451,-57.5819
 L 822.277,-56.7639 L 821.937,-56 L 821.445,-55.3235 L 820.824,-54.7639 L 819.901,-54.2638 L 733.262,-21.1346
 L 732.454,-20.9192 L 731.619,-20.8765 z
M 198.333,-18 L 197.097,-18.1958 L 196.333,-18.5359 L 195.657,-19.0274 L 195.097,-19.6489 L 194.679,-20.373
 L 194.421,-21.1684 L 194.333,-22 L 194.333,-55.1292 L 194.468,-56.1595 L 194.767,-56.9406 L 195.221,-57.6425
 L 195.812,-58.2345 L 196.513,-58.6909 L 197.293,-58.9916 L 198.119,-59.1235 L 198.954,-59.0808 L 199.762,-58.8654
 L 286.401,-25.7362 L 287.324,-25.2361 L 287.945,-24.6765 L 288.437,-24 L 288.777,-23.2361 L 288.951,-22.4181
 L 288.951,-21.5819 L 288.777,-20.7639 L 288.437,-20 L 287.945,-19.3235 L 287.324,-18.7639 L 286.6,-18.3458
 L 285.804,-18.0874 L 284.973,-18 z
M 376.167,-18 L 374.931,-18.1958 L 374.167,-18.5359 L 373.49,-19.0274 L 372.931,-19.6489 L 372.512,-20.373
 L 372.254,-21.1684 L 372.167,-22 L 372.167,-55.1292 L 372.302,-56.1595 L 372.6,-56.9406 L 373.055,-57.6425
 L 373.645,-58.2345 L 374.346,-58.6909 L 375.126,-58.9916 L 375.952,-59.1235 L 376.787,-59.0808 L 377.595,-58.8654
 L 464.235,-25.7362 L 465.157,-25.2361 L 465.779,-24.6765 L 466.27,-24 L 466.61,-23.2361 L 466.784,-22.4181
 L 466.784,-21.5819 L 466.61,-20.7639 L 466.27,-20 L 465.779,-19.3235 L 465.157,-18.7639 L 464.433,-18.3458
 L 463.638,-18.0874 L 462.806,-18 z
M 619.194,-18 L 618.362,-18.0874 L 617.567,-18.3458 L 616.843,-18.7639 L 616.221,-19.3235 L 615.73,-20
 L 615.39,-20.7639 L 615.216,-21.5819 L 615.216,-22.4181 L 615.39,-23.2361 L 615.73,-24 L 616.221,-24.6765
 L 616.843,-25.2361 L 617.765,-25.7362 L 704.405,-58.8654 L 705.213,-59.0808 L 706.048,-59.1235 L 706.874,-58.9916
 L 707.654,-58.6909 L 708.355,-58.2345 L 708.945,-57.6425 L 709.4,-56.9406 L 709.698,-56.1595 L 709.833,-55.1292
 L 709.833,-22 L 709.746,-21.1684 L 709.488,-20.373 L 709.069,-19.6489 L 708.51,-19.0274 L 707.833,-18.5359
 L 707.069,-18.1958 L 705.833,-18 z
M 797.027,-18 L 796.196,-18.0874 L 795.4,-18.3458 L 794.676,-18.7639 L 794.055,-19.3235 L 793.563,-20
 L 793.223,-20.7639 L 793.049,-21.5819 L 793.049,-22.4181 L 793.223,-23.2361 L 793.563,-24 L 794.055,-24.6765
 L 794.676,-25.2361 L 795.599,-25.7362 L 882.238,-58.8654 L 883.046,-59.0808 L 883.881,-59.1235 L 884.707,-58.9916
 L 885.487,-58.6909 L 886.188,-58.2345 L 886.778,-57.6425 L 887.233,-56.9406 L 887.532,-56.1595 L 887.667,-55.1292
 L 887.667,-22 L 887.579,-21.1684 L 887.321,-20.373 L 886.903,-19.6489 L 886.343,-19.0274 L 885.667,-18.5359
 L 884.903,-18.1958 L 883.667,-18 z
M 974.861,-18 L 974.029,-18.0874 L 973.234,-18.3458 L 972.509,-18.7639 L 971.888,-19.3235 L 971.397,-20
 L 971.056,-20.7639 L 970.883,-21.5819 L 970.883,-22.4181 L 971.056,-23.2361 L 971.397,-24 L 971.888,-24.6765
 L 972.509,-25.2361 L 973.432,-25.7362 L 1058.57,-58.2918 L 1059.38,-58.5072 L 1060.21,-58.5499 L 1061.04,-58.418
 L 1061.82,-58.1173 L 1062.52,-57.661 L 1063.11,-57.0689 L 1063.57,-56.367 L 1063.87,-55.5859 L 1064,-54.5556
 L 1064,-22 L 1063.91,-21.1684 L 1063.65,-20.373 L 1063.24,-19.6489 L 1062.68,-19.0274 L 1062,-18.5359
 L 1061.24,-18.1958 L 1060,-18 z
M 22,-18 L 20.7639,-18.1958 L 20,-18.5359 L 19.3235,-19.0274 L 18.7639,-19.6489 L 18.3458,-20.373
 L 18.0874,-21.1684 L 18,-22 L 18,-54.5556 L 18.135,-55.5859 L 18.4336,-56.367 L 18.8882,-57.0689
 L 19.4787,-57.661 L 20.1794,-58.1173 L 20.9597,-58.418 L 21.7855,-58.5499 L 22.6206,-58.5072 L 23.4286,-58.2918
 L 108.568,-25.7362 L 109.491,-25.2361 L 110.112,-24.6765 L 110.603,-24 L 110.944,-23.2361 L 111.117,-22.4181
 L 111.117,-21.5819 L 110.944,-20.7639 L 110.603,-20 L 110.112,-19.3235 L 109.491,-18.7639 L 108.766,-18.3458
 L 107.971,-18.0874 L 107.139,-18 z
" stroke="black" fill="lightgray" stroke-width="0.5"/>
</svg>
