<?xml version="1.0" standalone="no"?>
<!DOCTYPE svg PUBLIC "-//W3C//DTD SVG 1.1//EN" "http://www.w3.org/Graphics/SVG/1.1/DTD/svg11.dtd">
<svg width="1472mm" height="80mm" viewBox="0 -80 1472 80" xmlns="http://www.w3.org/2000/svg" version="1.1">
<title>OpenSCAD Model</title>
<path d="
M 1472,-80 L 0,-80 L 0,-0 L 4.95,-0 L 4.95,-6 L 5.00572,-6.53017
 L 5.17046,-7.03717 L 5.437,-7.49884 L 5.79372,-7.895 L 6.22499,-8.20836 L 6.71201,-8.42519 L 7.23344,-8.53603
 L 7.76654,-8.53603 L 8.28798,-8.42519 L 8.77499,-8.20836 L 9.20627,-7.895 L 9.56299,-7.49884 L 9.82953,-7.03717
 L 9.99426,-6.53017 L 10.05,-6 L 10.05,-0 L 187.075,-0 L 187.075,-6 L 187.131,-6.53017
 L 187.295,-7.03717 L 187.562,-7.49884 L 187.919,-7.895 L 188.35,-8.20836 L 188.837,-8.42519 L 189.358,-8.53603
 L 189.892,-8.53603 L 190.413,-8.42519 L 190.9,-8.20836 L 191.331,-7.895 L 191.688,-7.49884 L 191.955,-7.03717
 L 192.119,-6.53017 L 192.175,-6 L 192.175,-0 L 369.2,-0 L 369.2,-6 L 369.256,-6.53017
 L 369.42,-7.03717 L 369.687,-7.49884 L 370.044,-7.895 L 370.475,-8.20836 L 370.962,-8.42519 L 371.483,-8.53603
 L 372.017,-8.53603 L 372.538,-8.42519 L 373.025,-8.20836 L 373.456,-7.895 L 373.813,-7.49884 L 374.08,-7.03717
 L 374.244,-6.53017 L 374.3,-6 L 374.3,-0 L 551.325,-0 L 551.325,-6 L 551.381,-6.53017
 L 551.545,-7.03717 L 551.812,-7.49884 L 552.169,-7.895 L 552.6,-8.20836 L 553.087,-8.42519 L 553.608,-8.53603
 L 554.142,-8.53603 L 554.663,-8.42519 L 555.15,-8.20836 L 555.581,-7.895 L 555.938,-7.49884 L 556.205,-7.03717
 L 556.369,-6.53017 L 556.425,-6 L 556.425,-0 L 733.45,-0 L 733.45,-6 L 733.506,-6.53017
 L 733.67,-7.03717 L 733.937,-7.49884 L 734.294,-7.895 L 734.725,-8.20836 L 735.212,-8.42519 L 735.733,-8.53603
 L 736.267,-8.53603 L 736.788,-8.42519 L 737.275,-8.20836 L 737.706,-7.895 L 738.063,-7.49884 L 738.33,-7.03717
 L 738.494,-6.53017 L 738.55,-6 L 738.55,-0 L 915.575,-0 L 915.575,-6 L 915.631,-6.53017
 L 915.795,-7.03717 L 916.062,-7.49884 L 916.419,-7.895 L 916.85,-8.20836 L 917.337,-8.42519 L 917.858,-8.53603
 L 918.392,-8.53603 L 918.913,-8.42519 L 919.4,-8.20836 L 919.831,-7.895 L 920.188,-7.49884 L 920.455,-7.03717
 L 920.619,-6.53017 L 920.675,-6 L 920.675,-0 L 1097.7,-0 L 1097.7,-6 L 1097.76,-6.53017
 L 1097.92,-7.03717 L 1098.19,-7.49884 L 1098.54,-7.895 L 1098.97,-8.20836 L 1099.46,-8.42519 L 1099.98,-8.53603
 L 1100.52,-8.53603 L 1101.04,-8.42519 L 1101.52,-8.20836 L 1101.96,-7.895 L 1102.31,-7.49884 L 1102.58,-7.03717
 L 1102.74,-6.53017 L 1102.8,-6 L 1102.8,-0 L 1279.82,-0 L 1279.82,-6 L 1279.88,-6.53017
 L 1280.05,-7.03717 L 1280.31,-7.49884 L 1280.67,-7.895 L 1281.1,-8.20836 L 1281.59,-8.42519 L 1282.11,-8.53603
 L 1282.64,-8.53603 L 1283.16,-8.42519 L 1283.65,-8.20836 L 1284.08,-7.895 L 1284.44,-7.49884 L 1284.7,-7.03717
 L 1284.87,-6.53017 L 1284.92,-6 L 1284.92,-0 L 1461.95,-0 L 1461.95,-6 L 1462.01,-6.53017
 L 1462.17,-7.03717 L 1462.44,-7.49884 L 1462.79,-7.895 L 1463.22,-8.20836 L 1463.71,-8.42519 L 1464.23,-8.53603
 L 1464.77,-8.53603 L 1465.29,-8.42519 L 1465.77,-8.20836 L 1466.21,-7.895 L 1466.56,-7.49884 L 1466.83,-7.03717
 L 1466.99,-6.53017 L 1467.05,-6 L 1467.05,-0 L 1472,-0 z
M 189.111,-55.607 L 188.602,-55.6875 L 188.105,-55.8208 L 187.624,-56.0054 L 187.165,-56.2392 L 186.733,-56.5196
 L 186.333,-56.8437 L 185.969,-57.2079 L 185.645,-57.6081 L 185.364,-58.04 L 185.13,-58.4989 L 184.946,-58.9796
 L 184.813,-59.4771 L 184.732,-59.9857 L 184.705,-60.5 L 184.732,-61.0143 L 184.813,-61.5229 L 184.946,-62.0204
 L 185.13,-62.5011 L 185.364,-62.96 L 185.645,-63.3919 L 185.969,-63.7921 L 186.333,-64.1563 L 186.733,-64.4804
 L 187.075,-64.7024 L 187.075,-74 L 187.131,-74.5302 L 187.295,-75.0372 L 187.562,-75.4988 L 187.919,-75.895
 L 188.35,-76.2084 L 188.837,-76.4252 L 189.358,-76.536 L 189.892,-76.536 L 190.413,-76.4252 L 190.9,-76.2084
 L 191.331,-75.895 L 191.688,-75.4988 L 191.955,-75.0372 L 192.119,-74.5302 L 192.175,-74 L 192.175,-64.7024
 L 192.517,-64.4804 L 192.917,-64.1563 L 193.281,-63.7921 L 193.605,-63.3919 L 193.886,-62.96 L 194.12,-62.5011
 L 194.304,-62.0204 L 194.437,-61.5229 L 194.518,-61.0143 L 194.545,-60.5 L 194.518,-59.9857 L 194.437,-59.4771
 L 194.304,-58.9796 L 194.12,-58.4989 L 193.886,-58.04 L 193.605,-57.6081 L 193.281,-57.2079 L 192.917,-56.8437
 L 192.517,-56.5196 L 192.085,-56.2392 L 191.626,-56.0054 L 191.145,-55.8208 L 190.648,-55.6875 L 190.139,-55.607
 L 189.625,-55.58 z
M 1099.74,-55.607 L 1099.23,-55.6875 L 1098.73,-55.8208 L 1098.25,-56.0054 L 1097.79,-56.2392 L 1097.36,-56.5196
 L 1096.96,-56.8437 L 1096.59,-57.2079 L 1096.27,-57.6081 L 1095.99,-58.04 L 1095.76,-58.4989 L 1095.57,-58.9796
 L 1095.44,-59.4771 L 1095.36,-59.9857 L 1095.33,-60.5 L 1095.36,-61.0143 L 1095.44,-61.5229 L 1095.57,-62.0204
 L 1095.76,-62.5011 L 1095.99,-62.96 L 1096.27,-63.3919 L 1096.59,-63.7921 L 1096.96,-64.1563 L 1097.36,-64.4804
 L 1097.7,-64.7024 L 1097.7,-74 L 1097.76,-74.5302 L 1097.92,-75.0372 L 1098.19,-75.4988 L 1098.54,-75.895
 L 1098.98,-76.2084 L 1099.46,-76.4252 L 1099.98,-76.536 L 1100.52,-76.536 L 1101.04,-76.4252 L 1101.52,-76.2084
 L 1101.96,-75.895 L 1102.31,-75.4988 L 1102.58,-75.0372 L 1102.74,-74.5302 L 1102.8,-74 L 1102.8,-64.7024
 L 1103.14,-64.4804 L 1103.54,-64.1563 L 1103.91,-63.7921 L 1104.23,-63.3919 L 1104.51,-62.96 L 1104.74,-62.5011
 L 1104.93,-62.0204 L 1105.06,-61.5229 L 1105.14,-61.0143 L 1105.17,-60.5 L 1105.14,-59.9857 L 1105.06,-59.4771
 L 1104.93,-58.9796 L 1104.74,-58.4989 L 1104.51,-58.04 L 1104.23,-57.6081 L 1103.91,-57.2079 L 1103.54,-56.8437
 L 1103.14,-56.5196 L 1102.71,-56.2392 L 1102.25,-56.0054 L 1101.77,-55.8208 L 1101.27,-55.6875 L 1100.76,-55.607
 L 1100.25,-55.58 z
M 917.611,-55.607 L 917.102,-55.6875 L 916.605,-55.8208 L 916.124,-56.0054 L 915.665,-56.2392 L 915.233,-56.5196
 L 914.833,-56.8437 L 914.469,-57.2079 L 914.145,-57.6081 L 913.864,-58.04 L 913.63,-58.4989 L 913.446,-58.9796
 L 913.313,-59.4771 L 913.232,-59.9857 L 913.205,-60.5 L 913.232,-61.0143 L 913.313,-61.5229 L 913.446,-62.0204
 L 913.63,-62.5011 L 913.864,-62.96 L 914.145,-63.3919 L 914.469,-63.7921 L 914.833,-64.1563 L 915.233,-64.4804
 L 915.575,-64.7024 L 915.575,-74 L 915.631,-74.5302 L 915.795,-75.0372 L 916.062,-75.4988 L 916.419,-75.895
 L 916.85,-76.2084 L 917.337,-76.4252 L 917.858,-76.536 L 918.392,-76.536 L 918.913,-76.4252 L 919.4,-76.2084
 L 919.831,-75.895 L 920.188,-75.4988 L 920.455,-75.0372 L 920.619,-74.5302 L 920.675,-74 L 920.675,-64.7024
 L 921.017,-64.4804 L 921.417,-64.1563 L 921.781,-63.7921 L 922.105,-63.3919 L 922.386,-62.96 L 922.62,-62.5011
 L 922.804,-62.0204 L 922.937,-61.5229 L 923.018,-61.0143 L 923.045,-60.5 L 923.018,-59.9857 L 922.937,-59.4771
 L 922.804,-58.9796 L 922.62,-58.4989 L 922.386,-58.04 L 922.105,-57.6081 L 921.781,-57.2079 L 921.417,-56.8437
 L 921.017,-56.5196 L 920.585,-56.2392 L 920.126,-56.0054 L 919.645,-55.8208 L 919.148,-55.6875 L 918.639,-55.607
 L 918.125,-55.58 z
M 6.98573,-55.607 L 6.47708,-55.6875 L 5.97964,-55.8208 L 5.49887,-56.0054 L 5.04001,-56.2392 L 4.60811,-56.5196
 L 4.20789,-56.8437 L 3.84373,-57.2079 L 3.51964,-57.6081 L 3.23917,-58.04 L 3.00537,-58.4989 L 2.82082,-58.9796
 L 2.68752,-59.4771 L 2.60696,-59.9857 L 2.58,-60.5 L 2.60696,-61.0143 L 2.68752,-61.5229 L 2.82082,-62.0204
 L 3.00537,-62.5011 L 3.23917,-62.96 L 3.51964,-63.3919 L 3.84373,-63.7921 L 4.20789,-64.1563 L 4.60811,-64.4804
 L 4.95001,-64.7024 L 4.95001,-74 L 5.00574,-74.5302 L 5.17047,-75.0372 L 5.43701,-75.4988 L 5.79373,-75.895
 L 6.22501,-76.2084 L 6.71202,-76.4252 L 7.23346,-76.536 L 7.76654,-76.536 L 8.28798,-76.4252 L 8.77499,-76.2084
 L 9.20627,-75.895 L 9.56299,-75.4988 L 9.82953,-75.0372 L 9.99426,-74.5302 L 10.05,-74 L 10.05,-64.7024
 L 10.3919,-64.4804 L 10.7921,-64.1563 L 11.1563,-63.7921 L 11.4804,-63.3919 L 11.7608,-62.96 L 11.9946,-62.5011
 L 12.1792,-62.0204 L 12.3125,-61.5229 L 12.393,-61.0143 L 12.42,-60.5 L 12.393,-59.9857 L 12.3125,-59.4771
 L 12.1792,-58.9796 L 11.9946,-58.4989 L 11.7608,-58.04 L 11.4804,-57.6081 L 11.1563,-57.2079 L 10.7921,-56.8437
 L 10.3919,-56.5196 L 9.95999,-56.2392 L 9.50113,-56.0054 L 9.02036,-55.8208 L 8.52292,-55.6875 L 8.01427,-55.607
 L 7.5,-55.58 z
M 735.486,-55.607 L 734.977,-55.6875 L 734.48,-55.8208 L 733.999,-56.0054 L 733.54,-56.2392 L 733.108,-56.5196
 L 732.708,-56.8437 L 732.344,-57.2079 L 732.02,-57.6081 L 731.739,-58.04 L 731.505,-58.4989 L 731.321,-58.9796
 L 731.188,-59.4771 L 731.107,-59.9857 L 731.08,-60.5 L 731.107,-61.0143 L 731.188,-61.5229 L 731.321,-62.0204
 L 731.505,-62.5011 L 731.739,-62.96 L 732.02,-63.3919 L 732.344,-63.7921 L 732.708,-64.1563 L 733.108,-64.4804
 L 733.45,-64.7024 L 733.45,-74 L 733.506,-74.5302 L 733.67,-75.0372 L 733.937,-75.4988 L 734.294,-75.895
 L 734.725,-76.2084 L 735.212,-76.4252 L 735.733,-76.536 L 736.267,-76.536 L 736.788,-76.4252 L 737.275,-76.2084
 L 737.706,-75.895 L 738.063,-75.4988 L 738.33,-75.0372 L 738.494,-74.5302 L 738.55,-74 L 738.55,-64.7024
 L 738.892,-64.4804 L 739.292,-64.1563 L 739.656,-63.7921 L 739.98,-63.3919 L 740.261,-62.96 L 740.495,-62.5011
 L 740.679,-62.0204 L 740.812,-61.5229 L 740.893,-61.0143 L 740.92,-60.5 L 740.893,-59.9857 L 740.812,-59.4771
 L 740.679,-58.9796 L 740.495,-58.4989 L 740.261,-58.04 L 739.98,-57.6081 L 739.656,-57.2079 L 739.292,-56.8437
 L 738.892,-56.5196 L 738.46,-56.2392 L 738.001,-56.0054 L 737.52,-55.8208 L 737.023,-55.6875 L 736.514,-55.607
 L 736,-55.58 z
M 1281.86,-55.607 L 1281.35,-55.6875 L 1280.85,-55.8208 L 1280.37,-56.0054 L 1279.92,-56.2392 L 1279.48,-56.5196
 L 1279.08,-56.8437 L 1278.72,-57.2079 L 1278.39,-57.6081 L 1278.11,-58.04 L 1277.88,-58.4989 L 1277.7,-58.9796
 L 1277.56,-59.4771 L 1277.48,-59.9857 L 1277.46,-60.5 L 1277.48,-61.0143 L 1277.56,-61.5229 L 1277.7,-62.0204
 L 1277.88,-62.5011 L 1278.11,-62.96 L 1278.39,-63.3919 L 1278.72,-63.7921 L 1279.08,-64.1563 L 1279.48,-64.4804
 L 1279.83,-64.7024 L 1279.83,-74 L 1279.88,-74.5302 L 1280.05,-75.0372 L 1280.31,-75.4988 L 1280.67,-75.895
 L 1281.1,-76.2084 L 1281.59,-76.4252 L 1282.11,-76.536 L 1282.64,-76.536 L 1283.16,-76.4252 L 1283.65,-76.2084
 L 1284.08,-75.895 L 1284.44,-75.4988 L 1284.7,-75.0372 L 1284.87,-74.5302 L 1284.92,-74 L 1284.92,-64.7024
 L 1285.27,-64.4804 L 1285.67,-64.1563 L 1286.03,-63.7921 L 1286.36,-63.3919 L 1286.64,-62.96 L 1286.87,-62.5011
 L 1287.05,-62.0204 L 1287.19,-61.5229 L 1287.27,-61.0143 L 1287.29,-60.5 L 1287.27,-59.9857 L 1287.19,-59.4771
 L 1287.05,-58.9796 L 1286.87,-58.4989 L 1286.64,-58.04 L 1286.36,-57.6081 L 1286.03,-57.2079 L 1285.67,-56.8437
 L 1285.27,-56.5196 L 1284.83,-56.2392 L 1284.38,-56.0054 L 1283.9,-55.8208 L 1283.4,-55.6875 L 1282.89,-55.607
 L 1282.38,-55.58 z
M 553.361,-55.607 L 552.852,-55.6875 L 552.355,-55.8208 L 551.874,-56.0054 L 551.415,-56.2392 L 550.983,-56.5196
 L 550.583,-56.8437 L 550.219,-57.2079 L 549.895,-57.6081 L 549.614,-58.04 L 549.38,-58.4989 L 549.196,-58.9796
 L 549.063,-59.4771 L 548.982,-59.9857 L 548.955,-60.5 L 548.982,-61.0143 L 549.063,-61.5229 L 549.196,-62.0204
 L 549.38,-62.5011 L 549.614,-62.96 L 549.895,-63.3919 L 550.219,-63.7921 L 550.583,-64.1563 L 550.983,-64.4804
 L 551.325,-64.7024 L 551.325,-74 L 551.381,-74.5302 L 551.545,-75.0372 L 551.812,-75.4988 L 552.169,-75.895
 L 552.6,-76.2084 L 553.087,-76.4252 L 553.608,-76.536 L 554.142,-76.536 L 554.663,-76.4252 L 555.15,-76.2084
 L 555.581,-75.895 L 555.938,-75.4988 L 556.205,-75.0372 L 556.369,-74.5302 L 556.425,-74 L 556.425,-64.7024
 L 556.767,-64.4804 L 557.167,-64.1563 L 557.531,-63.7921 L 557.855,-63.3919 L 558.136,-62.96 L 558.37,-62.5011
 L 558.554,-62.0204 L 558.687,-61.5229 L 558.768,-61.0143 L 558.795,-60.5 L 558.768,-59.9857 L 558.687,-59.4771
 L 558.554,-58.9796 L 558.37,-58.4989 L 558.136,-58.04 L 557.855,-57.6081 L 557.531,-57.2079 L 557.167,-56.8437
 L 556.767,-56.5196 L 556.335,-56.2392 L 555.876,-56.0054 L 555.395,-55.8208 L 554.898,-55.6875 L 554.389,-55.607
 L 553.875,-55.58 z
M 371.236,-55.607 L 370.727,-55.6875 L 370.23,-55.8208 L 369.749,-56.0054 L 369.29,-56.2392 L 368.858,-56.5196
 L 368.458,-56.8437 L 368.094,-57.2079 L 367.77,-57.6081 L 367.489,-58.04 L 367.255,-58.4989 L 367.071,-58.9796
 L 366.938,-59.4771 L 366.857,-59.9857 L 366.83,-60.5 L 366.857,-61.0143 L 366.938,-61.5229 L 367.071,-62.0204
 L 367.255,-62.5011 L 367.489,-62.96 L 367.77,-63.3919 L 368.094,-63.7921 L 368.458,-64.1563 L 368.858,-64.4804
 L 369.2,-64.7024 L 369.2,-74 L 369.256,-74.5302 L 369.42,-75.0372 L 369.687,-75.4988 L 370.044,-75.895
 L 370.475,-76.2084 L 370.962,-76.4252 L 371.483,-76.536 L 372.017,-76.536 L 372.538,-76.4252 L 373.025,-76.2084
 L 373.456,-75.895 L 373.813,-75.4988 L 374.08,-75.0372 L 374.244,-74.5302 L 374.3,-74 L 374.3,-64.7024
 L 374.642,-64.4804 L 375.042,-64.1563 L 375.406,-63.7921 L 375.73,-63.3919 L 376.011,-62.96 L 376.245,-62.5011
 L 376.429,-62.0204 L 376.562,-61.5229 L 376.643,-61.0143 L 376.67,-60.5 L 376.643,-59.9857 L 376.562,-59.4771
 L 376.429,-58.9796 L 376.245,-58.4989 L 376.011,-58.04 L 375.73,-57.6081 L 375.406,-57.2079 L 375.042,-56.8437
 L 374.642,-56.5196 L 374.21,-56.2392 L 373.751,-56.0054 L 373.27,-55.8208 L 372.773,-55.6875 L 372.264,-55.607
 L 371.75,-55.58 z
M 1463.99,-55.607 L 1463.48,-55.6875 L 1462.98,-55.8208 L 1462.5,-56.0054 L 1462.04,-56.2392 L 1461.61,-56.5196
 L 1461.21,-56.8437 L 1460.84,-57.2079 L 1460.52,-57.6081 L 1460.24,-58.04 L 1460.01,-58.4989 L 1459.82,-58.9796
 L 1459.69,-59.4771 L 1459.61,-59.9857 L 1459.58,-60.5 L 1459.61,-61.0143 L 1459.69,-61.5229 L 1459.82,-62.0204
 L 1460.01,-62.5011 L 1460.24,-62.96 L 1460.52,-63.3919 L 1460.84,-63.7921 L 1461.21,-64.1563 L 1461.61,-64.4804
 L 1461.95,-64.7024 L 1461.95,-74 L 1462.01,-74.5302 L 1462.17,-75.0372 L 1462.44,-75.4988 L 1462.79,-75.895
 L 1463.23,-76.2084 L 1463.71,-76.4252 L 1464.23,-76.536 L 1464.77,-76.536 L 1465.29,-76.4252 L 1465.77,-76.2084
 L 1466.21,-75.895 L 1466.56,-75.4988 L 1466.83,-75.0372 L 1466.99,-74.5302 L 1467.05,-74 L 1467.05,-64.7024
 L 1467.39,-64.4804 L 1467.79,-64.1563 L 1468.16,-63.7921 L 1468.48,-63.3919 L 1468.76,-62.96 L 1468.99,-62.5011
 L 1469.18,-62.0204 L 1469.31,-61.5229 L 1469.39,-61.0143 L 1469.42,-60.5 L 1469.39,-59.9857 L 1469.31,-59.4771
 L 1469.18,-58.9796 L 1468.99,-58.4989 L 1468.76,-58.04 L 1468.48,-57.6081 L 1468.16,-57.2079 L 1467.79,-56.8437
 L 1467.39,-56.5196 L 1466.96,-56.2392 L 1466.5,-56.0054 L 1466.02,-55.8208 L 1465.52,-55.6875 L 1465.01,-55.607
 L 1464.5,-55.58 z
M 358.161,-20.7611 L 357.351,-20.9701 L 268.21,-54.2527 L 267.258,-54.7639 L 266.636,-55.3235 L 266.145,-56
 L 265.805,-56.7639 L 265.631,-57.5819 L 265.631,-58.4181 L 265.805,-59.2361 L 266.145,-60 L 266.636,-60.6765
 L 267.258,-61.2361 L 267.982,-61.6542 L 268.777,-61.9126 L 269.609,-62 L 358.75,-62 L 359.986,-61.8042
 L 360.75,-61.4641 L 361.427,-60.9726 L 361.986,-60.3511 L 362.404,-59.627 L 362.663,-58.8316 L 362.75,-58
 L 362.75,-24.7174 L 362.623,-23.7177 L 362.331,-22.9343 L 361.882,-22.2288 L 361.296,-21.6321 L 360.599,-21.1702
 L 359.821,-20.8634 L 358.996,-20.725 z
M 540.286,-20.7611 L 539.476,-20.9701 L 450.335,-54.2527 L 449.383,-54.7639 L 448.761,-55.3235 L 448.27,-56
 L 447.93,-56.7639 L 447.756,-57.5819 L 447.756,-58.4181 L 447.93,-59.2361 L 448.27,-60 L 448.761,-60.6765
 L 449.383,-61.2361 L 450.107,-61.6542 L 450.902,-61.9126 L 451.734,-62 L 540.875,-62 L 542.111,-61.8042
 L 542.875,-61.4641 L 543.552,-60.9726 L 544.111,-60.3511 L 544.529,-59.627 L 544.788,-58.8316 L 544.875,-58
 L 544.875,-24.7174 L 544.748,-23.7177 L 544.456,-22.9343 L 544.007,-22.2288 L 543.421,-21.6321 L 542.724,-21.1702
 L 541.946,-20.8634 L 541.121,-20.725 z
M 1294.3,-20.8634 L 1293.53,-21.1702 L 1292.83,-21.6321 L 1292.24,-22.2288 L 1291.79,-22.9343 L 1291.5,-23.7177
 L 1291.38,-24.7174 L 1291.38,-58 L 1291.46,-58.8316 L 1291.72,-59.627 L 1292.14,-60.3511 L 1292.7,-60.9726
 L 1293.38,-61.4641 L 1294.14,-61.8042 L 1295.38,-62 L 1384.52,-62 L 1385.35,-61.9126 L 1386.14,-61.6542
 L 1386.87,-61.2361 L 1387.49,-60.6765 L 1387.98,-60 L 1388.32,-59.2361 L 1388.49,-58.4181 L 1388.49,-57.5819
 L 1388.32,-56.7639 L 1387.98,-56 L 1387.49,-55.3235 L 1386.87,-54.7639 L 1385.92,-54.2527 L 1296.77,-20.9701
 L 1295.96,-20.7611 L 1295.13,-20.725 z
M 722.411,-20.7611 L 721.601,-20.9701 L 632.46,-54.2527 L 631.508,-54.7639 L 630.886,-55.3235 L 630.395,-56
 L 630.055,-56.7639 L 629.881,-57.5819 L 629.881,-58.4181 L 630.055,-59.2361 L 630.395,-60 L 630.886,-60.6765
 L 631.508,-61.2361 L 632.232,-61.6542 L 633.027,-61.9126 L 633.859,-62 L 723,-62 L 724.236,-61.8042
 L 725,-61.4641 L 725.677,-60.9726 L 726.236,-60.3511 L 726.654,-59.627 L 726.913,-58.8316 L 727,-58
 L 727,-24.7174 L 726.873,-23.7177 L 726.581,-22.9343 L 726.132,-22.2288 L 725.546,-21.6321 L 724.849,-21.1702
 L 724.071,-20.8634 L 723.246,-20.725 z
M 176.036,-20.7611 L 175.226,-20.9701 L 86.0849,-54.2527 L 85.1329,-54.7639 L 84.5114,-55.3235 L 84.0199,-56
 L 83.6798,-56.7639 L 83.5059,-57.5819 L 83.5059,-58.4181 L 83.6798,-59.2361 L 84.0199,-60 L 84.5114,-60.6765
 L 85.1329,-61.2361 L 85.8571,-61.6542 L 86.6524,-61.9126 L 87.484,-62 L 176.625,-62 L 177.861,-61.8042
 L 178.625,-61.4641 L 179.302,-60.9726 L 179.861,-60.3511 L 180.279,-59.627 L 180.538,-58.8316 L 180.625,-58
 L 180.625,-24.7174 L 180.498,-23.7177 L 180.206,-22.9343 L 179.757,-22.2288 L 179.171,-21.6321 L 178.474,-21.1702
 L 177.696,-20.8634 L 176.871,-20.725 z
M 747.929,-20.8634 L 747.151,-21.1702 L 746.454,-21.6321 L 745.868,-22.2288 L 745.419,-22.9343 L 745.127,-23.7177
 L 745,-24.7174 L 745,-58 L 745.087,-58.8316 L 745.346,-59.627 L 745.764,-60.3511 L 746.323,-60.9726
 L 747,-61.4641 L 747.764,-61.8042 L 749,-62 L 838.141,-62 L 838.973,-61.9126 L 839.768,-61.6542
 L 840.492,-61.2361 L 841.114,-60.6765 L 841.605,-60 L 841.945,-59.2361 L 842.119,-58.4181 L 842.119,-57.5819
 L 841.945,-56.7639 L 841.605,-56 L 841.114,-55.3235 L 840.492,-54.7639 L 839.54,-54.2527 L 750.399,-20.9701
 L 749.589,-20.7611 L 748.754,-20.725 z
M 930.054,-20.8634 L 929.276,-21.1702 L 928.579,-21.6321 L 927.993,-22.2288 L 927.544,-22.9343 L 927.252,-23.7177
 L 927.125,-24.7174 L 927.125,-58 L 927.212,-58.8316 L 927.471,-59.627 L 927.889,-60.3511 L 928.448,-60.9726
 L 929.125,-61.4641 L 929.889,-61.8042 L 931.125,-62 L 1020.27,-62 L 1021.1,-61.9126 L 1021.89,-61.6542
 L 1022.62,-61.2361 L 1023.24,-60.6765 L 1023.73,-60 L 1024.07,-59.2361 L 1024.24,-58.4181 L 1024.24,-57.5819
 L 1024.07,-56.7639 L 1023.73,-56 L 1023.24,-55.3235 L 1022.62,-54.7639 L 1021.67,-54.2527 L 932.524,-20.9701
 L 931.714,-20.7611 L 930.879,-20.725 z
M 1112.18,-20.8634 L 1111.4,-21.1702 L 1110.7,-21.6321 L 1110.12,-22.2288 L 1109.67,-22.9343 L 1109.38,-23.7177
 L 1109.25,-24.7174 L 1109.25,-58 L 1109.34,-58.8316 L 1109.6,-59.627 L 1110.01,-60.3511 L 1110.57,-60.9726
 L 1111.25,-61.4641 L 1112.01,-61.8042 L 1113.25,-62 L 1202.39,-62 L 1203.22,-61.9126 L 1204.02,-61.6542
 L 1204.74,-61.2361 L 1205.36,-60.6765 L 1205.86,-60 L 1206.2,-59.2361 L 1206.37,-58.4181 L 1206.37,-57.5819
 L 1206.2,-56.7639 L 1205.86,-56 L 1205.36,-55.3235 L 1204.74,-54.7639 L 1203.79,-54.2527 L 1114.65,-20.9701
 L 1113.84,-20.7611 L 1113,-20.725 z
M 202.625,-18 L 201.389,-18.1958 L 200.625,-18.5359 L 199.948,-19.0274 L 199.389,-19.6489 L 198.971,-20.373
 L 198.712,-21.1684 L 198.625,-22 L 198.625,-55.2825 L 198.752,-56.2823 L 199.044,-57.0657 L 199.493,-57.7712
 L 200.079,-58.3679 L 200.776,-58.8298 L 201.554,-59.1366 L 202.379,-59.275 L 203.214,-59.2389 L 204.024,-59.0299
 L 293.165,-25.7473 L 294.117,-25.2361 L 294.739,-24.6765 L 295.23,-24 L 295.57,-23.2361 L 295.744,-22.4181
 L 295.744,-21.5819 L 295.57,-20.7639 L 295.23,-20 L 294.739,-19.3235 L 294.117,-18.7639 L 293.393,-18.3458
 L 292.598,-18.0874 L 291.766,-18 z
M 384.75,-18 L 383.514,-18.1958 L 382.75,-18.5359 L 382.073,-19.0274 L 381.514,-19.6489 L 381.096,-20.373
 L 380.837,-21.1684 L 380.75,-22 L 380.75,-55.2825 L 380.877,-56.2823 L 381.169,-57.0657 L 381.618,-57.7712
 L 382.204,-58.3679 L 382.901,-58.8298 L 383.679,-59.1366 L 384.504,-59.275 L 385.339,-59.2389 L 386.149,-59.0299
 L 475.29,-25.7473 L 476.242,-25.2361 L 476.864,-24.6765 L 477.355,-24 L 477.695,-23.2361 L 477.869,-22.4181
 L 477.869,-21.5819 L 477.695,-20.7639 L 477.355,-20 L 476.864,-19.3235 L 476.242,-18.7639 L 475.518,-18.3458
 L 474.723,-18.0874 L 473.891,-18 z
M 566.875,-18 L 565.639,-18.1958 L 564.875,-18.5359 L 564.198,-19.0274 L 563.639,-19.6489 L 563.221,-20.373
 L 562.962,-21.1684 L 562.875,-22 L 562.875,-55.2825 L 563.002,-56.2823 L 563.294,-57.0657 L 563.743,-57.7712
 L 564.329,-58.3679 L 565.026,-58.8298 L 565.804,-59.1366 L 566.629,-59.275 L 567.464,-59.2389 L 568.274,-59.0299
 L 657.415,-25.7473 L 658.367,-25.2361 L 658.989,-24.6765 L 659.48,-24 L 659.82,-23.2361 L 659.994,-22.4181
 L 659.994,-21.5819 L 659.82,-20.7639 L 659.48,-20 L 658.989,-19.3235 L 658.367,-18.7639 L 657.643,-18.3458
 L 656.848,-18.0874 L 656.016,-18 z
M 815.984,-18 L 815.152,-18.0874 L 814.357,-18.3458 L 813.633,-18.7639 L 813.011,-19.3235 L 812.52,-20
 L 812.18,-20.7639 L 812.006,-21.5819 L 812.006,-22.4181 L 812.18,-23.2361 L 812.52,-24 L 813.011,-24.6765
 L 813.633,-25.2361 L 814.585,-25.7473 L 903.726,-59.0299 L 904.536,-59.2389 L 905.371,-59.275 L 906.196,-59.1366
 L 906.974,-58.8298 L 907.671,-58.3679 L 908.257,-57.7712 L 908.706,-57.0657 L 908.998,-56.2823 L 909.125,-55.2825
 L 909.125,-22 L 909.038,-21.1684 L 908.779,-20.373 L 908.361,-19.6489 L 907.802,-19.0274 L 907.125,-18.5359
 L 906.361,-18.1958 L 905.125,-18 z
M 998.109,-18 L 997.277,-18.0874 L 996.482,-18.3458 L 995.758,-18.7639 L 995.136,-19.3235 L 994.645,-20
 L 994.305,-20.7639 L 994.131,-21.5819 L 994.131,-22.4181 L 994.305,-23.2361 L 994.645,-24 L 995.136,-24.6765
 L 995.758,-25.2361 L 996.71,-25.7473 L 1085.85,-59.0299 L 1086.66,-59.2389 L 1087.5,-59.275 L 1088.32,-59.1366
 L 1089.1,-58.8298 L 1089.8,-58.3679 L 1090.38,-57.7712 L 1090.83,-57.0657 L 1091.12,-56.2823 L 1091.25,-55.2825
 L 1091.25,-22 L 1091.16,-21.1684 L 1090.9,-20.373 L 1090.49,-19.6489 L 1089.93,-19.0274 L 1089.25,-18.5359
 L 1088.49,-18.1958 L 1087.25,-18 z
M 1180.23,-18 L 1179.4,-18.0874 L 1178.61,-18.3458 L 1177.88,-18.7639 L 1177.26,-19.3235 L 1176.77,-20
 L 1176.43,-20.7639 L 1176.26,-21.5819 L 1176.26,-22.4181 L 1176.43,-23.2361 L 1176.77,-24 L 1177.26,-24.6765
 L 1177.88,-25.2361 L 1178.83,-25.7473 L 1267.98,-59.0299 L 1268.79,-59.2389 L 1269.62,-59.275 L 1270.45,-59.1366
 L 1271.22,-58.8298 L 1271.92,-58.3679 L 1272.51,-57.7712 L 1272.96,-57.0657 L 1273.25,-56.2823 L 1273.38,-55.2825
 L 1273.38,-22 L 1273.29,-21.1684 L 1273.03,-20.373 L 1272.61,-19.6489 L 1272.05,-19.0274 L 1271.38,-18.5359
 L 1270.61,-18.1958 L 1269.38,-18 z
M 1362.36,-18 L 1361.53,-18.0874 L 1360.73,-18.3458 L 1360.01,-18.7639 L 1359.39,-19.3235 L 1358.89,-20
 L 1358.55,-20.7639 L 1358.38,-21.5819 L 1358.38,-22.4181 L 1358.55,-23.2361 L 1358.89,-24 L 1359.39,-24.6765
 L 1360.01,-25.2361 L 1360.96,-25.7473 L 1448.6,-58.4698 L 1449.41,-58.6788 L 1450.25,-58.7149 L 1451.07,-58.5765
 L 1451.85,-58.2697 L 1452.55,-57.8078 L 1453.13,-57.2111 L 1453.58,-56.5057 L 1453.87,-55.7223 L 1454,-54.7225
 L 1454,-22 L 1453.91,-21.1684 L 1453.65,-20.373 L 1453.24,-19.6489 L 1452.68,-19.0274 L 1452,-18.5359
 L 1451.24,-18.1958 L 1450,-18 z
M 22,-18 L 20.7639,-18.1958 L 20,-18.5359 L 19.3235,-19.0274 L 18.7639,-19.6489 L 18.3458,-20.373
 L 18.0874,-21.1684 L 18,-22 L 18,-54.7225 L 18.127,-55.7223 L 18.4195,-56.5057 L 18.8684,-57.2111
 L 19.4543,-57.8078 L 20.1514,-58.2697 L 20.9293,-58.5765 L 21.754,-58.7149 L 22.5894,-58.6788 L 23.3991,-58.4698
 L 111.04,-25.7473 L 111.992,-25.2361 L 112.614,-24.6765 L 113.105,-24 L 113.445,-23.2361 L 113.619,-22.4181
 L 113.619,-21.5819 L 113.445,-20.7639 L 113.105,-20 L 112.614,-19.3235 L 111.992,-18.7639 L 111.268,-18.3458
 L 110.473,-18.0874 L 109.641,-18 z
" stroke="black" fill="lightgray" stroke-width="0.5"/>
</svg>
