<?xml version="1.0" standalone="no"?>
<!DOCTYPE svg PUBLIC "-//W3C//DTD SVG 1.1//EN" "http://www.w3.org/Graphics/SVG/1.1/DTD/svg11.dtd">
<svg width="1459mm" height="80mm" viewBox="0 -80 1459 80" xmlns="http://www.w3.org/2000/svg" version="1.1">
<title>OpenSCAD Model</title>
<path d="
M 1459,-80 L 0,-80 L 0,-0 L 4.95,-0 L 4.95,-6 L 5.00572,-6.53017
 L 5.17046,-7.03717 L 5.437,-7.49884 L 5.79372,-7.895 L 6.22499,-8.20836 L 6.71201,-8.42519 L 7.23344,-8.53603
 L 7.76654,-8.53603 L 8.28798,-8.42519 L 8.77499,-8.20836 L 9.20627,-7.895 L 9.56299,-7.49884 L 9.82953,-7.03717
 L 9.99426,-6.53017 L 10.05,-6 L 10.05,-0 L 185.45,-0 L 185.45,-6 L 185.506,-6.53017
 L 185.67,-7.03717 L 185.937,-7.49884 L 186.294,-7.895 L 186.725,-8.20836 L 187.212,-8.42519 L 187.733,-8.53603
 L 188.267,-8.53603 L 188.788,-8.42519 L 189.275,-8.20836 L 189.706,-7.895 L 190.063,-7.49884 L 190.33,-7.03717
 L 190.494,-6.53017 L 190.55,-6 L 190.55,-0 L 365.95,-0 L 365.95,-6 L 366.006,-6.53017
 L 366.17,-7.03717 L 366.437,-7.49884 L 366.794,-7.895 L 367.225,-8.20836 L 367.712,-8.42519 L 368.233,-8.53603
 L 368.767,-8.53603 L 369.288,-8.42519 L 369.775,-8.20836 L 370.206,-7.895 L 370.563,-7.49884 L 370.83,-7.03717
 L 370.994,-6.53017 L 371.05,-6 L 371.05,-0 L 546.45,-0 L 546.45,-6 L 546.506,-6.53017
 L 546.67,-7.03717 L 546.937,-7.49884 L 547.294,-7.895 L 547.725,-8.20836 L 548.212,-8.42519 L 548.733,-8.53603
 L 549.267,-8.53603 L 549.788,-8.42519 L 550.275,-8.20836 L 550.706,-7.895 L 551.063,-7.49884 L 551.33,-7.03717
 L 551.494,-6.53017 L 551.55,-6 L 551.55,-0 L 726.95,-0 L 726.95,-6 L 727.006,-6.53017
 L 727.17,-7.03717 L 727.437,-7.49884 L 727.794,-7.895 L 728.225,-8.20836 L 728.712,-8.42519 L 729.233,-8.53603
 L 729.767,-8.53603 L 730.288,-8.42519 L 730.775,-8.20836 L 731.206,-7.895 L 731.563,-7.49884 L 731.83,-7.03717
 L 731.994,-6.53017 L 732.05,-6 L 732.05,-0 L 907.45,-0 L 907.45,-6 L 907.506,-6.53017
 L 907.67,-7.03717 L 907.937,-7.49884 L 908.294,-7.895 L 908.725,-8.20836 L 909.212,-8.42519 L 909.733,-8.53603
 L 910.267,-8.53603 L 910.788,-8.42519 L 911.275,-8.20836 L 911.706,-7.895 L 912.063,-7.49884 L 912.33,-7.03717
 L 912.494,-6.53017 L 912.55,-6 L 912.55,-0 L 1087.95,-0 L 1087.95,-6 L 1088.01,-6.53017
 L 1088.17,-7.03717 L 1088.44,-7.49884 L 1088.79,-7.895 L 1089.22,-8.20836 L 1089.71,-8.42519 L 1090.23,-8.53603
 L 1090.77,-8.53603 L 1091.29,-8.42519 L 1091.77,-8.20836 L 1092.21,-7.895 L 1092.56,-7.49884 L 1092.83,-7.03717
 L 1092.99,-6.53017 L 1093.05,-6 L 1093.05,-0 L 1268.45,-0 L 1268.45,-6 L 1268.51,-6.53017
 L 1268.67,-7.03717 L 1268.94,-7.49884 L 1269.29,-7.895 L 1269.72,-8.20836 L 1270.21,-8.42519 L 1270.73,-8.53603
 L 1271.27,-8.53603 L 1271.79,-8.42519 L 1272.27,-8.20836 L 1272.71,-7.895 L 1273.06,-7.49884 L 1273.33,-7.03717
 L 1273.49,-6.53017 L 1273.55,-6 L 1273.55,-0 L 1448.95,-0 L 1448.95,-6 L 1449.01,-6.53017
 L 1449.17,-7.03717 L 1449.44,-7.49884 L 1449.79,-7.895 L 1450.22,-8.20836 L 1450.71,-8.42519 L 1451.23,-8.53603
 L 1451.77,-8.53603 L 1452.29,-8.42519 L 1452.77,-8.20836 L 1453.21,-7.895 L 1453.56,-7.49884 L 1453.83,-7.03717
 L 1453.99,-6.53017 L 1454.05,-6 L 1454.05,-0 L 1459,-0 z
M 187.486,-55.607 L 186.977,-55.6875 L 186.48,-55.8208 L 185.999,-56.0054 L 185.54,-56.2392 L 185.108,-56.5196
 L 184.708,-56.8437 L 184.344,-57.2079 L 184.02,-57.6081 L 183.739,-58.04 L 183.505,-58.4989 L 183.321,-58.9796
 L 183.188,-59.4771 L 183.107,-59.9857 L 183.08,-60.5 L 183.107,-61.0143 L 183.188,-61.5229 L 183.321,-62.0204
 L 183.505,-62.5011 L 183.739,-62.96 L 184.02,-63.3919 L 184.344,-63.7921 L 184.708,-64.1563 L 185.108,-64.4804
 L 185.45,-64.7024 L 185.45,-74 L 185.506,-74.5302 L 185.67,-75.0372 L 185.937,-75.4988 L 186.294,-75.895
 L 186.725,-76.2084 L 187.212,-76.4252 L 187.733,-76.536 L 188.267,-76.536 L 188.788,-76.4252 L 189.275,-76.2084
 L 189.706,-75.895 L 190.063,-75.4988 L 190.33,-75.0372 L 190.494,-74.5302 L 190.55,-74 L 190.55,-64.7024
 L 190.892,-64.4804 L 191.292,-64.1563 L 191.656,-63.7921 L 191.98,-63.3919 L 192.261,-62.96 L 192.495,-62.5011
 L 192.679,-62.0204 L 192.812,-61.5229 L 192.893,-61.0143 L 192.92,-60.5 L 192.893,-59.9857 L 192.812,-59.4771
 L 192.679,-58.9796 L 192.495,-58.4989 L 192.261,-58.04 L 191.98,-57.6081 L 191.656,-57.2079 L 191.292,-56.8437
 L 190.892,-56.5196 L 190.46,-56.2392 L 190.001,-56.0054 L 189.52,-55.8208 L 189.023,-55.6875 L 188.514,-55.607
 L 188,-55.58 z
M 1089.99,-55.607 L 1089.48,-55.6875 L 1088.98,-55.8208 L 1088.5,-56.0054 L 1088.04,-56.2392 L 1087.61,-56.5196
 L 1087.21,-56.8437 L 1086.84,-57.2079 L 1086.52,-57.6081 L 1086.24,-58.04 L 1086.01,-58.4989 L 1085.82,-58.9796
 L 1085.69,-59.4771 L 1085.61,-59.9857 L 1085.58,-60.5 L 1085.61,-61.0143 L 1085.69,-61.5229 L 1085.82,-62.0204
 L 1086.01,-62.5011 L 1086.24,-62.96 L 1086.52,-63.3919 L 1086.84,-63.7921 L 1087.21,-64.1563 L 1087.61,-64.4804
 L 1087.95,-64.7024 L 1087.95,-74 L 1088.01,-74.5302 L 1088.17,-75.0372 L 1088.44,-75.4988 L 1088.79,-75.895
 L 1089.23,-76.2084 L 1089.71,-76.4252 L 1090.23,-76.536 L 1090.77,-76.536 L 1091.29,-76.4252 L 1091.77,-76.2084
 L 1092.21,-75.895 L 1092.56,-75.4988 L 1092.83,-75.0372 L 1092.99,-74.5302 L 1093.05,-74 L 1093.05,-64.7024
 L 1093.39,-64.4804 L 1093.79,-64.1563 L 1094.16,-63.7921 L 1094.48,-63.3919 L 1094.76,-62.96 L 1094.99,-62.5011
 L 1095.18,-62.0204 L 1095.31,-61.5229 L 1095.39,-61.0143 L 1095.42,-60.5 L 1095.39,-59.9857 L 1095.31,-59.4771
 L 1095.18,-58.9796 L 1094.99,-58.4989 L 1094.76,-58.04 L 1094.48,-57.6081 L 1094.16,-57.2079 L 1093.79,-56.8437
 L 1093.39,-56.5196 L 1092.96,-56.2392 L 1092.5,-56.0054 L 1092.02,-55.8208 L 1091.52,-55.6875 L 1091.01,-55.607
 L 1090.5,-55.58 z
M 909.486,-55.607 L 908.977,-55.6875 L 908.48,-55.8208 L 907.999,-56.0054 L 907.54,-56.2392 L 907.108,-56.5196
 L 906.708,-56.8437 L 906.344,-57.2079 L 906.02,-57.6081 L 905.739,-58.04 L 905.505,-58.4989 L 905.321,-58.9796
 L 905.188,-59.4771 L 905.107,-59.9857 L 905.08,-60.5 L 905.107,-61.0143 L 905.188,-61.5229 L 905.321,-62.0204
 L 905.505,-62.5011 L 905.739,-62.96 L 906.02,-63.3919 L 906.344,-63.7921 L 906.708,-64.1563 L 907.108,-64.4804
 L 907.45,-64.7024 L 907.45,-74 L 907.506,-74.5302 L 907.67,-75.0372 L 907.937,-75.4988 L 908.294,-75.895
 L 908.725,-76.2084 L 909.212,-76.4252 L 909.733,-76.536 L 910.267,-76.536 L 910.788,-76.4252 L 911.275,-76.2084
 L 911.706,-75.895 L 912.063,-75.4988 L 912.33,-75.0372 L 912.494,-74.5302 L 912.55,-74 L 912.55,-64.7024
 L 912.892,-64.4804 L 913.292,-64.1563 L 913.656,-63.7921 L 913.98,-63.3919 L 914.261,-62.96 L 914.495,-62.5011
 L 914.679,-62.0204 L 914.812,-61.5229 L 914.893,-61.0143 L 914.92,-60.5 L 914.893,-59.9857 L 914.812,-59.4771
 L 914.679,-58.9796 L 914.495,-58.4989 L 914.261,-58.04 L 913.98,-57.6081 L 913.656,-57.2079 L 913.292,-56.8437
 L 912.892,-56.5196 L 912.46,-56.2392 L 912.001,-56.0054 L 911.52,-55.8208 L 911.023,-55.6875 L 910.514,-55.607
 L 910,-55.58 z
M 6.98573,-55.607 L 6.47708,-55.6875 L 5.97964,-55.8208 L 5.49887,-56.0054 L 5.04001,-56.2392 L 4.60811,-56.5196
 L 4.20789,-56.8437 L 3.84373,-57.2079 L 3.51964,-57.6081 L 3.23917,-58.04 L 3.00537,-58.4989 L 2.82082,-58.9796
 L 2.68752,-59.4771 L 2.60696,-59.9857 L 2.58,-60.5 L 2.60696,-61.0143 L 2.68752,-61.5229 L 2.82082,-62.0204
 L 3.00537,-62.5011 L 3.23917,-62.96 L 3.51964,-63.3919 L 3.84373,-63.7921 L 4.20789,-64.1563 L 4.60811,-64.4804
 L 4.95001,-64.7024 L 4.95001,-74 L 5.00574,-74.5302 L 5.17047,-75.0372 L 5.43701,-75.4988 L 5.79373,-75.895
 L 6.22501,-76.2084 L 6.71202,-76.4252 L 7.23346,-76.536 L 7.76654,-76.536 L 8.28798,-76.4252 L 8.77499,-76.2084
 L 9.20627,-75.895 L 9.56299,-75.4988 L 9.82953,-75.0372 L 9.99426,-74.5302 L 10.05,-74 L 10.05,-64.7024
 L 10.3919,-64.4804 L 10.7921,-64.1563 L 11.1563,-63.7921 L 11.4804,-63.3919 L 11.7608,-62.96 L 11.9946,-62.5011
 L 12.1792,-62.0204 L 12.3125,-61.5229 L 12.393,-61.0143 L 12.42,-60.5 L 12.393,-59.9857 L 12.3125,-59.4771
 L 12.1792,-58.9796 L 11.9946,-58.4989 L 11.7608,-58.04 L 11.4804,-57.6081 L 11.1563,-57.2079 L 10.7921,-56.8437
 L 10.3919,-56.5196 L 9.95999,-56.2392 L 9.50113,-56.0054 L 9.02036,-55.8208 L 8.52292,-55.6875 L 8.01427,-55.607
 L 7.5,-55.58 z
M 728.986,-55.607 L 728.477,-55.6875 L 727.98,-55.8208 L 727.499,-56.0054 L 727.04,-56.2392 L 726.608,-56.5196
 L 726.208,-56.8437 L 725.844,-57.2079 L 725.52,-57.6081 L 725.239,-58.04 L 725.005,-58.4989 L 724.821,-58.9796
 L 724.688,-59.4771 L 724.607,-59.9857 L 724.58,-60.5 L 724.607,-61.0143 L 724.688,-61.5229 L 724.821,-62.0204
 L 725.005,-62.5011 L 725.239,-62.96 L 725.52,-63.3919 L 725.844,-63.7921 L 726.208,-64.1563 L 726.608,-64.4804
 L 726.95,-64.7024 L 726.95,-74 L 727.006,-74.5302 L 727.17,-75.0372 L 727.437,-75.4988 L 727.794,-75.895
 L 728.225,-76.2084 L 728.712,-76.4252 L 729.233,-76.536 L 729.767,-76.536 L 730.288,-76.4252 L 730.775,-76.2084
 L 731.206,-75.895 L 731.563,-75.4988 L 731.83,-75.0372 L 731.994,-74.5302 L 732.05,-74 L 732.05,-64.7024
 L 732.392,-64.4804 L 732.792,-64.1563 L 733.156,-63.7921 L 733.48,-63.3919 L 733.761,-62.96 L 733.995,-62.5011
 L 734.179,-62.0204 L 734.312,-61.5229 L 734.393,-61.0143 L 734.42,-60.5 L 734.393,-59.9857 L 734.312,-59.4771
 L 734.179,-58.9796 L 733.995,-58.4989 L 733.761,-58.04 L 733.48,-57.6081 L 733.156,-57.2079 L 732.792,-56.8437
 L 732.392,-56.5196 L 731.96,-56.2392 L 731.501,-56.0054 L 731.02,-55.8208 L 730.523,-55.6875 L 730.014,-55.607
 L 729.5,-55.58 z
M 1270.49,-55.607 L 1269.98,-55.6875 L 1269.48,-55.8208 L 1269,-56.0054 L 1268.54,-56.2392 L 1268.11,-56.5196
 L 1267.71,-56.8437 L 1267.34,-57.2079 L 1267.02,-57.6081 L 1266.74,-58.04 L 1266.51,-58.4989 L 1266.32,-58.9796
 L 1266.19,-59.4771 L 1266.11,-59.9857 L 1266.08,-60.5 L 1266.11,-61.0143 L 1266.19,-61.5229 L 1266.32,-62.0204
 L 1266.51,-62.5011 L 1266.74,-62.96 L 1267.02,-63.3919 L 1267.34,-63.7921 L 1267.71,-64.1563 L 1268.11,-64.4804
 L 1268.45,-64.7024 L 1268.45,-74 L 1268.51,-74.5302 L 1268.67,-75.0372 L 1268.94,-75.4988 L 1269.29,-75.895
 L 1269.73,-76.2084 L 1270.21,-76.4252 L 1270.73,-76.536 L 1271.27,-76.536 L 1271.79,-76.4252 L 1272.27,-76.2084
 L 1272.71,-75.895 L 1273.06,-75.4988 L 1273.33,-75.0372 L 1273.49,-74.5302 L 1273.55,-74 L 1273.55,-64.7024
 L 1273.89,-64.4804 L 1274.29,-64.1563 L 1274.66,-63.7921 L 1274.98,-63.3919 L 1275.26,-62.96 L 1275.49,-62.5011
 L 1275.68,-62.0204 L 1275.81,-61.5229 L 1275.89,-61.0143 L 1275.92,-60.5 L 1275.89,-59.9857 L 1275.81,-59.4771
 L 1275.68,-58.9796 L 1275.49,-58.4989 L 1275.26,-58.04 L 1274.98,-57.6081 L 1274.66,-57.2079 L 1274.29,-56.8437
 L 1273.89,-56.5196 L 1273.46,-56.2392 L 1273,-56.0054 L 1272.52,-55.8208 L 1272.02,-55.6875 L 1271.51,-55.607
 L 1271,-55.58 z
M 548.486,-55.607 L 547.977,-55.6875 L 547.48,-55.8208 L 546.999,-56.0054 L 546.54,-56.2392 L 546.108,-56.5196
 L 545.708,-56.8437 L 545.344,-57.2079 L 545.02,-57.6081 L 544.739,-58.04 L 544.505,-58.4989 L 544.321,-58.9796
 L 544.188,-59.4771 L 544.107,-59.9857 L 544.08,-60.5 L 544.107,-61.0143 L 544.188,-61.5229 L 544.321,-62.0204
 L 544.505,-62.5011 L 544.739,-62.96 L 545.02,-63.3919 L 545.344,-63.7921 L 545.708,-64.1563 L 546.108,-64.4804
 L 546.45,-64.7024 L 546.45,-74 L 546.506,-74.5302 L 546.67,-75.0372 L 546.937,-75.4988 L 547.294,-75.895
 L 547.725,-76.2084 L 548.212,-76.4252 L 548.733,-76.536 L 549.267,-76.536 L 549.788,-76.4252 L 550.275,-76.2084
 L 550.706,-75.895 L 551.063,-75.4988 L 551.33,-75.0372 L 551.494,-74.5302 L 551.55,-74 L 551.55,-64.7024
 L 551.892,-64.4804 L 552.292,-64.1563 L 552.656,-63.7921 L 552.98,-63.3919 L 553.261,-62.96 L 553.495,-62.5011
 L 553.679,-62.0204 L 553.812,-61.5229 L 553.893,-61.0143 L 553.92,-60.5 L 553.893,-59.9857 L 553.812,-59.4771
 L 553.679,-58.9796 L 553.495,-58.4989 L 553.261,-58.04 L 552.98,-57.6081 L 552.656,-57.2079 L 552.292,-56.8437
 L 551.892,-56.5196 L 551.46,-56.2392 L 551.001,-56.0054 L 550.52,-55.8208 L 550.023,-55.6875 L 549.514,-55.607
 L 549,-55.58 z
M 367.986,-55.607 L 367.477,-55.6875 L 366.98,-55.8208 L 366.499,-56.0054 L 366.04,-56.2392 L 365.608,-56.5196
 L 365.208,-56.8437 L 364.844,-57.2079 L 364.52,-57.6081 L 364.239,-58.04 L 364.005,-58.4989 L 363.821,-58.9796
 L 363.688,-59.4771 L 363.607,-59.9857 L 363.58,-60.5 L 363.607,-61.0143 L 363.688,-61.5229 L 363.821,-62.0204
 L 364.005,-62.5011 L 364.239,-62.96 L 364.52,-63.3919 L 364.844,-63.7921 L 365.208,-64.1563 L 365.608,-64.4804
 L 365.95,-64.7024 L 365.95,-74 L 366.006,-74.5302 L 366.17,-75.0372 L 366.437,-75.4988 L 366.794,-75.895
 L 367.225,-76.2084 L 367.712,-76.4252 L 368.233,-76.536 L 368.767,-76.536 L 369.288,-76.4252 L 369.775,-76.2084
 L 370.206,-75.895 L 370.563,-75.4988 L 370.83,-75.0372 L 370.994,-74.5302 L 371.05,-74 L 371.05,-64.7024
 L 371.392,-64.4804 L 371.792,-64.1563 L 372.156,-63.7921 L 372.48,-63.3919 L 372.761,-62.96 L 372.995,-62.5011
 L 373.179,-62.0204 L 373.312,-61.5229 L 373.393,-61.0143 L 373.42,-60.5 L 373.393,-59.9857 L 373.312,-59.4771
 L 373.179,-58.9796 L 372.995,-58.4989 L 372.761,-58.04 L 372.48,-57.6081 L 372.156,-57.2079 L 371.792,-56.8437
 L 371.392,-56.5196 L 370.96,-56.2392 L 370.501,-56.0054 L 370.02,-55.8208 L 369.523,-55.6875 L 369.014,-55.607
 L 368.5,-55.58 z
M 1450.99,-55.607 L 1450.48,-55.6875 L 1449.98,-55.8208 L 1449.5,-56.0054 L 1449.04,-56.2392 L 1448.61,-56.5196
 L 1448.21,-56.8437 L 1447.84,-57.2079 L 1447.52,-57.6081 L 1447.24,-58.04 L 1447.01,-58.4989 L 1446.82,-58.9796
 L 1446.69,-59.4771 L 1446.61,-59.9857 L 1446.58,-60.5 L 1446.61,-61.0143 L 1446.69,-61.5229 L 1446.82,-62.0204
 L 1447.01,-62.5011 L 1447.24,-62.96 L 1447.52,-63.3919 L 1447.84,-63.7921 L 1448.21,-64.1563 L 1448.61,-64.4804
 L 1448.95,-64.7024 L 1448.95,-74 L 1449.01,-74.5302 L 1449.17,-75.0372 L 1449.44,-75.4988 L 1449.79,-75.895
 L 1450.23,-76.2084 L 1450.71,-76.4252 L 1451.23,-76.536 L 1451.77,-76.536 L 1452.29,-76.4252 L 1452.77,-76.2084
 L 1453.21,-75.895 L 1453.56,-75.4988 L 1453.83,-75.0372 L 1453.99,-74.5302 L 1454.05,-74 L 1454.05,-64.7024
 L 1454.39,-64.4804 L 1454.79,-64.1563 L 1455.16,-63.7921 L 1455.48,-63.3919 L 1455.76,-62.96 L 1455.99,-62.5011
 L 1456.18,-62.0204 L 1456.31,-61.5229 L 1456.39,-61.0143 L 1456.42,-60.5 L 1456.39,-59.9857 L 1456.31,-59.4771
 L 1456.18,-58.9796 L 1455.99,-58.4989 L 1455.76,-58.04 L 1455.48,-57.6081 L 1455.16,-57.2079 L 1454.79,-56.8437
 L 1454.39,-56.5196 L 1453.96,-56.2392 L 1453.5,-56.0054 L 1453.02,-55.8208 L 1452.52,-55.6875 L 1452.01,-55.607
 L 1451.5,-55.58 z
M 354.899,-20.8201 L 354.09,-21.0315 L 265.896,-54.2568 L 264.955,-54.7639 L 264.334,-55.3235 L 263.842,-56
 L 263.502,-56.7639 L 263.328,-57.5819 L 263.328,-58.4181 L 263.502,-59.2361 L 263.842,-60 L 264.334,-60.6765
 L 264.955,-61.2361 L 265.679,-61.6542 L 266.475,-61.9126 L 267.306,-62 L 355.5,-62 L 356.736,-61.8042
 L 357.5,-61.4641 L 358.177,-60.9726 L 358.736,-60.3511 L 359.154,-59.627 L 359.413,-58.8316 L 359.5,-58
 L 359.5,-24.7746 L 359.37,-23.7635 L 359.075,-22.9809 L 358.624,-22.2768 L 358.037,-21.6818 L 357.338,-21.222
 L 356.559,-20.9175 L 355.734,-20.7815 z
M 535.399,-20.8201 L 534.59,-21.0315 L 446.396,-54.2568 L 445.455,-54.7639 L 444.834,-55.3235 L 444.342,-56
 L 444.002,-56.7639 L 443.828,-57.5819 L 443.828,-58.4181 L 444.002,-59.2361 L 444.342,-60 L 444.834,-60.6765
 L 445.455,-61.2361 L 446.179,-61.6542 L 446.975,-61.9126 L 447.806,-62 L 536,-62 L 537.236,-61.8042
 L 538,-61.4641 L 538.677,-60.9726 L 539.236,-60.3511 L 539.654,-59.627 L 539.913,-58.8316 L 540,-58
 L 540,-24.7746 L 539.87,-23.7635 L 539.575,-22.9809 L 539.124,-22.2768 L 538.537,-21.6818 L 537.838,-21.222
 L 537.059,-20.9175 L 536.234,-20.7815 z
M 1282.94,-20.9175 L 1282.16,-21.222 L 1281.46,-21.6818 L 1280.88,-22.2768 L 1280.42,-22.9809 L 1280.13,-23.7635
 L 1280,-24.7746 L 1280,-58 L 1280.09,-58.8316 L 1280.35,-59.627 L 1280.76,-60.3511 L 1281.32,-60.9726
 L 1282,-61.4641 L 1282.76,-61.8042 L 1284,-62 L 1372.19,-62 L 1373.03,-61.9126 L 1373.82,-61.6542
 L 1374.54,-61.2361 L 1375.17,-60.6765 L 1375.66,-60 L 1376,-59.2361 L 1376.17,-58.4181 L 1376.17,-57.5819
 L 1376,-56.7639 L 1375.66,-56 L 1375.17,-55.3235 L 1374.54,-54.7639 L 1373.6,-54.2568 L 1285.41,-21.0315
 L 1284.6,-20.8201 L 1283.77,-20.7815 z
M 715.899,-20.8201 L 715.09,-21.0315 L 626.896,-54.2568 L 625.955,-54.7639 L 625.334,-55.3235 L 624.842,-56
 L 624.502,-56.7639 L 624.328,-57.5819 L 624.328,-58.4181 L 624.502,-59.2361 L 624.842,-60 L 625.334,-60.6765
 L 625.955,-61.2361 L 626.679,-61.6542 L 627.475,-61.9126 L 628.306,-62 L 716.5,-62 L 717.736,-61.8042
 L 718.5,-61.4641 L 719.177,-60.9726 L 719.736,-60.3511 L 720.154,-59.627 L 720.413,-58.8316 L 720.5,-58
 L 720.5,-24.7746 L 720.37,-23.7635 L 720.075,-22.9809 L 719.624,-22.2768 L 719.037,-21.6818 L 718.338,-21.222
 L 717.559,-20.9175 L 716.734,-20.7815 z
M 174.399,-20.8201 L 173.59,-21.0315 L 85.396,-54.2568 L 84.4551,-54.7639 L 83.8336,-55.3235 L 83.3421,-56
 L 83.002,-56.7639 L 82.8281,-57.5819 L 82.8281,-58.4181 L 83.002,-59.2361 L 83.3421,-60 L 83.8336,-60.6765
 L 84.4551,-61.2361 L 85.1793,-61.6542 L 85.9746,-61.9126 L 86.8062,-62 L 175,-62 L 176.236,-61.8042
 L 177,-61.4641 L 177.677,-60.9726 L 178.236,-60.3511 L 178.654,-59.627 L 178.913,-58.8316 L 179,-58
 L 179,-24.7746 L 178.87,-23.7635 L 178.575,-22.9809 L 178.124,-22.2768 L 177.537,-21.6818 L 176.838,-21.222
 L 176.059,-20.9175 L 175.234,-20.7815 z
M 741.441,-20.9175 L 740.662,-21.222 L 739.963,-21.6818 L 739.376,-22.2768 L 738.925,-22.9809 L 738.63,-23.7635
 L 738.5,-24.7746 L 738.5,-58 L 738.587,-58.8316 L 738.846,-59.627 L 739.264,-60.3511 L 739.823,-60.9726
 L 740.5,-61.4641 L 741.264,-61.8042 L 742.5,-62 L 830.694,-62 L 831.525,-61.9126 L 832.321,-61.6542
 L 833.045,-61.2361 L 833.666,-60.6765 L 834.158,-60 L 834.498,-59.2361 L 834.672,-58.4181 L 834.672,-57.5819
 L 834.498,-56.7639 L 834.158,-56 L 833.666,-55.3235 L 833.045,-54.7639 L 832.104,-54.2568 L 743.91,-21.0315
 L 743.101,-20.8201 L 742.266,-20.7815 z
M 921.941,-20.9175 L 921.162,-21.222 L 920.463,-21.6818 L 919.876,-22.2768 L 919.425,-22.9809 L 919.13,-23.7635
 L 919,-24.7746 L 919,-58 L 919.087,-58.8316 L 919.346,-59.627 L 919.764,-60.3511 L 920.323,-60.9726
 L 921,-61.4641 L 921.764,-61.8042 L 923,-62 L 1011.19,-62 L 1012.03,-61.9126 L 1012.82,-61.6542
 L 1013.54,-61.2361 L 1014.17,-60.6765 L 1014.66,-60 L 1015,-59.2361 L 1015.17,-58.4181 L 1015.17,-57.5819
 L 1015,-56.7639 L 1014.66,-56 L 1014.17,-55.3235 L 1013.54,-54.7639 L 1012.6,-54.2568 L 924.41,-21.0315
 L 923.601,-20.8201 L 922.766,-20.7815 z
M 1102.44,-20.9175 L 1101.66,-21.222 L 1100.96,-21.6818 L 1100.38,-22.2768 L 1099.92,-22.9809 L 1099.63,-23.7635
 L 1099.5,-24.7746 L 1099.5,-58 L 1099.59,-58.8316 L 1099.85,-59.627 L 1100.26,-60.3511 L 1100.82,-60.9726
 L 1101.5,-61.4641 L 1102.26,-61.8042 L 1103.5,-62 L 1191.69,-62 L 1192.53,-61.9126 L 1193.32,-61.6542
 L 1194.04,-61.2361 L 1194.67,-60.6765 L 1195.16,-60 L 1195.5,-59.2361 L 1195.67,-58.4181 L 1195.67,-57.5819
 L 1195.5,-56.7639 L 1195.16,-56 L 1194.67,-55.3235 L 1194.04,-54.7639 L 1193.1,-54.2568 L 1104.91,-21.0315
 L 1104.1,-20.8201 L 1103.27,-20.7815 z
M 201,-18 L 199.764,-18.1958 L 199,-18.5359 L 198.323,-19.0274 L 197.764,-19.6489 L 197.346,-20.373
 L 197.087,-21.1684 L 197,-22 L 197,-55.2253 L 197.13,-56.2365 L 197.425,-57.0191 L 197.876,-57.7232
 L 198.463,-58.3182 L 199.162,-58.778 L 199.941,-59.0825 L 200.766,-59.2185 L 201.601,-59.1799 L 202.41,-58.9685
 L 290.604,-25.7432 L 291.545,-25.2361 L 292.166,-24.6765 L 292.658,-24 L 292.998,-23.2361 L 293.172,-22.4181
 L 293.172,-21.5819 L 292.998,-20.7639 L 292.658,-20 L 292.166,-19.3235 L 291.545,-18.7639 L 290.821,-18.3458
 L 290.025,-18.0874 L 289.194,-18 z
M 381.5,-18 L 380.264,-18.1958 L 379.5,-18.5359 L 378.823,-19.0274 L 378.264,-19.6489 L 377.846,-20.373
 L 377.587,-21.1684 L 377.5,-22 L 377.5,-55.2253 L 377.63,-56.2365 L 377.925,-57.0191 L 378.376,-57.7232
 L 378.963,-58.3182 L 379.662,-58.778 L 380.441,-59.0825 L 381.266,-59.2185 L 382.101,-59.1799 L 382.91,-58.9685
 L 471.104,-25.7432 L 472.045,-25.2361 L 472.666,-24.6765 L 473.158,-24 L 473.498,-23.2361 L 473.672,-22.4181
 L 473.672,-21.5819 L 473.498,-20.7639 L 473.158,-20 L 472.666,-19.3235 L 472.045,-18.7639 L 471.321,-18.3458
 L 470.525,-18.0874 L 469.694,-18 z
M 562,-18 L 560.764,-18.1958 L 560,-18.5359 L 559.323,-19.0274 L 558.764,-19.6489 L 558.346,-20.373
 L 558.087,-21.1684 L 558,-22 L 558,-55.2253 L 558.13,-56.2365 L 558.425,-57.0191 L 558.876,-57.7232
 L 559.463,-58.3182 L 560.162,-58.778 L 560.941,-59.0825 L 561.766,-59.2185 L 562.601,-59.1799 L 563.41,-58.9685
 L 651.604,-25.7432 L 652.545,-25.2361 L 653.166,-24.6765 L 653.658,-24 L 653.998,-23.2361 L 654.172,-22.4181
 L 654.172,-21.5819 L 653.998,-20.7639 L 653.658,-20 L 653.166,-19.3235 L 652.545,-18.7639 L 651.821,-18.3458
 L 651.025,-18.0874 L 650.194,-18 z
M 808.806,-18 L 807.975,-18.0874 L 807.179,-18.3458 L 806.455,-18.7639 L 805.834,-19.3235 L 805.342,-20
 L 805.002,-20.7639 L 804.828,-21.5819 L 804.828,-22.4181 L 805.002,-23.2361 L 805.342,-24 L 805.834,-24.6765
 L 806.455,-25.2361 L 807.396,-25.7432 L 895.59,-58.9685 L 896.399,-59.1799 L 897.234,-59.2185 L 898.059,-59.0825
 L 898.838,-58.778 L 899.537,-58.3182 L 900.124,-57.7232 L 900.575,-57.0191 L 900.87,-56.2365 L 901,-55.2253
 L 901,-22 L 900.913,-21.1684 L 900.654,-20.373 L 900.236,-19.6489 L 899.677,-19.0274 L 899,-18.5359
 L 898.236,-18.1958 L 897,-18 z
M 989.306,-18 L 988.475,-18.0874 L 987.679,-18.3458 L 986.955,-18.7639 L 986.334,-19.3235 L 985.842,-20
 L 985.502,-20.7639 L 985.328,-21.5819 L 985.328,-22.4181 L 985.502,-23.2361 L 985.842,-24 L 986.334,-24.6765
 L 986.955,-25.2361 L 987.896,-25.7432 L 1076.09,-58.9685 L 1076.9,-59.1799 L 1077.73,-59.2185 L 1078.56,-59.0825
 L 1079.34,-58.778 L 1080.04,-58.3182 L 1080.62,-57.7232 L 1081.08,-57.0191 L 1081.37,-56.2365 L 1081.5,-55.2253
 L 1081.5,-22 L 1081.41,-21.1684 L 1081.15,-20.373 L 1080.74,-19.6489 L 1080.18,-19.0274 L 1079.5,-18.5359
 L 1078.74,-18.1958 L 1077.5,-18 z
M 1169.81,-18 L 1168.97,-18.0874 L 1168.18,-18.3458 L 1167.46,-18.7639 L 1166.83,-19.3235 L 1166.34,-20
 L 1166,-20.7639 L 1165.83,-21.5819 L 1165.83,-22.4181 L 1166,-23.2361 L 1166.34,-24 L 1166.83,-24.6765
 L 1167.46,-25.2361 L 1168.4,-25.7432 L 1256.59,-58.9685 L 1257.4,-59.1799 L 1258.23,-59.2185 L 1259.06,-59.0825
 L 1259.84,-58.778 L 1260.54,-58.3182 L 1261.12,-57.7232 L 1261.58,-57.0191 L 1261.87,-56.2365 L 1262,-55.2253
 L 1262,-22 L 1261.91,-21.1684 L 1261.65,-20.373 L 1261.24,-19.6489 L 1260.68,-19.0274 L 1260,-18.5359
 L 1259.24,-18.1958 L 1258,-18 z
M 1350.31,-18 L 1349.47,-18.0874 L 1348.68,-18.3458 L 1347.96,-18.7639 L 1347.33,-19.3235 L 1346.84,-20
 L 1346.5,-20.7639 L 1346.33,-21.5819 L 1346.33,-22.4181 L 1346.5,-23.2361 L 1346.84,-24 L 1347.33,-24.6765
 L 1347.96,-25.2361 L 1348.9,-25.7432 L 1435.59,-58.4034 L 1436.4,-58.6148 L 1437.23,-58.6534 L 1438.06,-58.5174
 L 1438.84,-58.2129 L 1439.54,-57.7531 L 1440.12,-57.1581 L 1440.58,-56.454 L 1440.87,-55.6714 L 1441,-54.6602
 L 1441,-22 L 1440.91,-21.1684 L 1440.65,-20.373 L 1440.24,-19.6489 L 1439.68,-19.0274 L 1439,-18.5359
 L 1438.24,-18.1958 L 1437,-18 z
M 22,-18 L 20.7639,-18.1958 L 20,-18.5359 L 19.3235,-19.0274 L 18.7639,-19.6489 L 18.3458,-20.373
 L 18.0874,-21.1684 L 18,-22 L 18,-54.6602 L 18.1299,-55.6714 L 18.4247,-56.454 L 18.8758,-57.1581
 L 19.4634,-57.7531 L 20.1619,-58.2129 L 20.9407,-58.5174 L 21.7658,-58.6534 L 22.6011,-58.6148 L 23.4102,-58.4034
 L 110.104,-25.7432 L 111.045,-25.2361 L 111.666,-24.6765 L 112.158,-24 L 112.498,-23.2361 L 112.672,-22.4181
 L 112.672,-21.5819 L 112.498,-20.7639 L 112.158,-20 L 111.666,-19.3235 L 111.045,-18.7639 L 110.321,-18.3458
 L 109.525,-18.0874 L 108.694,-18 z
" stroke="black" fill="lightgray" stroke-width="0.5"/>
</svg>
