<?xml version="1.0" standalone="no"?>
<!DOCTYPE svg PUBLIC "-//W3C//DTD SVG 1.1//EN" "http://www.w3.org/Graphics/SVG/1.1/DTD/svg11.dtd">
<svg width="1284mm" height="80mm" viewBox="0 -80 1284 80" xmlns="http://www.w3.org/2000/svg" version="1.1">
<title>OpenSCAD Model</title>
<path d="
M 1284,-80 L 0,-80 L 0,-0 L 4.95,-0 L 4.95,-6 L 5.00572,-6.53017
 L 5.17046,-7.03717 L 5.437,-7.49884 L 5.79372,-7.895 L 6.22499,-8.20836 L 6.71201,-8.42519 L 7.23344,-8.53603
 L 7.76654,-8.53603 L 8.28798,-8.42519 L 8.77499,-8.20836 L 9.20627,-7.895 L 9.56299,-7.49884 L 9.82953,-7.03717
 L 9.99426,-6.53017 L 10.05,-6 L 10.05,-0 L 186.236,-0 L 186.236,-6 L 186.291,-6.53017
 L 186.456,-7.03717 L 186.723,-7.49884 L 187.079,-7.895 L 187.511,-8.20836 L 187.998,-8.42519 L 188.519,-8.53603
 L 189.052,-8.53603 L 189.574,-8.42519 L 190.061,-8.20836 L 190.492,-7.895 L 190.849,-7.49884 L 191.115,-7.03717
 L 191.28,-6.53017 L 191.336,-6 L 191.336,-0 L 367.521,-0 L 367.521,-6 L 367.577,-6.53017
 L 367.742,-7.03717 L 368.008,-7.49884 L 368.365,-7.895 L 368.796,-8.20836 L 369.283,-8.42519 L 369.805,-8.53603
 L 370.338,-8.53603 L 370.859,-8.42519 L 371.346,-8.20836 L 371.778,-7.895 L 372.134,-7.49884 L 372.401,-7.03717
 L 372.566,-6.53017 L 372.621,-6 L 372.621,-0 L 548.807,-0 L 548.807,-6 L 548.863,-6.53017
 L 549.028,-7.03717 L 549.294,-7.49884 L 549.651,-7.895 L 550.082,-8.20836 L 550.569,-8.42519 L 551.091,-8.53603
 L 551.624,-8.53603 L 552.145,-8.42519 L 552.632,-8.20836 L 553.063,-7.895 L 553.42,-7.49884 L 553.687,-7.03717
 L 553.851,-6.53017 L 553.907,-6 L 553.907,-0 L 730.093,-0 L 730.093,-6 L 730.149,-6.53017
 L 730.313,-7.03717 L 730.58,-7.49884 L 730.937,-7.895 L 731.368,-8.20836 L 731.855,-8.42519 L 732.376,-8.53603
 L 732.909,-8.53603 L 733.431,-8.42519 L 733.918,-8.20836 L 734.349,-7.895 L 734.706,-7.49884 L 734.972,-7.03717
 L 735.137,-6.53017 L 735.193,-6 L 735.193,-0 L 911.379,-0 L 911.379,-6 L 911.434,-6.53017
 L 911.599,-7.03717 L 911.866,-7.49884 L 912.222,-7.895 L 912.654,-8.20836 L 913.141,-8.42519 L 913.662,-8.53603
 L 914.195,-8.53603 L 914.717,-8.42519 L 915.204,-8.20836 L 915.635,-7.895 L 915.992,-7.49884 L 916.258,-7.03717
 L 916.423,-6.53017 L 916.479,-6 L 916.479,-0 L 1092.66,-0 L 1092.66,-6 L 1092.72,-6.53017
 L 1092.88,-7.03717 L 1093.15,-7.49884 L 1093.51,-7.895 L 1093.94,-8.20836 L 1094.43,-8.42519 L 1094.95,-8.53603
 L 1095.48,-8.53603 L 1096,-8.42519 L 1096.49,-8.20836 L 1096.92,-7.895 L 1097.28,-7.49884 L 1097.54,-7.03717
 L 1097.71,-6.53017 L 1097.76,-6 L 1097.76,-0 L 1273.95,-0 L 1273.95,-6 L 1274.01,-6.53017
 L 1274.17,-7.03717 L 1274.44,-7.49884 L 1274.79,-7.895 L 1275.22,-8.20836 L 1275.71,-8.42519 L 1276.23,-8.53603
 L 1276.77,-8.53603 L 1277.29,-8.42519 L 1277.77,-8.20836 L 1278.21,-7.895 L 1278.56,-7.49884 L 1278.83,-7.03717
 L 1278.99,-6.53017 L 1279.05,-6 L 1279.05,-0 L 1284,-0 z
M 6.98573,-55.607 L 6.47708,-55.6875 L 5.97964,-55.8208 L 5.49887,-56.0054 L 5.04001,-56.2392 L 4.60811,-56.5196
 L 4.20789,-56.8437 L 3.84373,-57.2079 L 3.51964,-57.6081 L 3.23917,-58.04 L 3.00537,-58.4989 L 2.82082,-58.9796
 L 2.68752,-59.4771 L 2.60696,-59.9857 L 2.58,-60.5 L 2.60696,-61.0143 L 2.68752,-61.5229 L 2.82082,-62.0204
 L 3.00537,-62.5011 L 3.23917,-62.96 L 3.51964,-63.3919 L 3.84373,-63.7921 L 4.20789,-64.1563 L 4.60811,-64.4804
 L 4.95001,-64.7024 L 4.95001,-74 L 5.00574,-74.5302 L 5.17047,-75.0372 L 5.43701,-75.4988 L 5.79373,-75.895
 L 6.22501,-76.2084 L 6.71202,-76.4252 L 7.23346,-76.536 L 7.76654,-76.536 L 8.28798,-76.4252 L 8.77499,-76.2084
 L 9.20627,-75.895 L 9.56299,-75.4988 L 9.82953,-75.0372 L 9.99426,-74.5302 L 10.05,-74 L 10.05,-64.7024
 L 10.3919,-64.4804 L 10.7921,-64.1563 L 11.1563,-63.7921 L 11.4804,-63.3919 L 11.7608,-62.96 L 11.9946,-62.5011
 L 12.1792,-62.0204 L 12.3125,-61.5229 L 12.393,-61.0143 L 12.42,-60.5 L 12.393,-59.9857 L 12.3125,-59.4771
 L 12.1792,-58.9796 L 11.9946,-58.4989 L 11.7608,-58.04 L 11.4804,-57.6081 L 11.1563,-57.2079 L 10.7921,-56.8437
 L 10.3919,-56.5196 L 9.95999,-56.2392 L 9.50113,-56.0054 L 9.02036,-55.8208 L 8.52292,-55.6875 L 8.01427,-55.607
 L 7.5,-55.58 z
M 188.271,-55.607 L 187.763,-55.6875 L 187.265,-55.8208 L 186.785,-56.0054 L 186.326,-56.2392 L 185.894,-56.5196
 L 185.494,-56.8437 L 185.129,-57.2079 L 184.805,-57.6081 L 184.525,-58.04 L 184.291,-58.4989 L 184.107,-58.9796
 L 183.973,-59.4771 L 183.893,-59.9857 L 183.866,-60.5 L 183.893,-61.0143 L 183.973,-61.5229 L 184.107,-62.0204
 L 184.291,-62.5011 L 184.525,-62.96 L 184.805,-63.3919 L 185.129,-63.7921 L 185.494,-64.1563 L 185.894,-64.4804
 L 186.236,-64.7024 L 186.236,-74 L 186.291,-74.5302 L 186.456,-75.0372 L 186.723,-75.4988 L 187.079,-75.895
 L 187.511,-76.2084 L 187.998,-76.4252 L 188.519,-76.536 L 189.052,-76.536 L 189.574,-76.4252 L 190.061,-76.2084
 L 190.492,-75.895 L 190.849,-75.4988 L 191.115,-75.0372 L 191.28,-74.5302 L 191.336,-74 L 191.336,-64.7024
 L 191.678,-64.4804 L 192.078,-64.1563 L 192.442,-63.7921 L 192.766,-63.3919 L 193.047,-62.96 L 193.28,-62.5011
 L 193.465,-62.0204 L 193.598,-61.5229 L 193.679,-61.0143 L 193.706,-60.5 L 193.679,-59.9857 L 193.598,-59.4771
 L 193.465,-58.9796 L 193.28,-58.4989 L 193.047,-58.04 L 192.766,-57.6081 L 192.442,-57.2079 L 192.078,-56.8437
 L 191.678,-56.5196 L 191.246,-56.2392 L 190.787,-56.0054 L 190.306,-55.8208 L 189.809,-55.6875 L 189.3,-55.607
 L 188.786,-55.58 z
M 369.557,-55.607 L 369.049,-55.6875 L 368.551,-55.8208 L 368.07,-56.0054 L 367.611,-56.2392 L 367.18,-56.5196
 L 366.779,-56.8437 L 366.415,-57.2079 L 366.091,-57.6081 L 365.811,-58.04 L 365.577,-58.4989 L 365.392,-58.9796
 L 365.259,-59.4771 L 365.178,-59.9857 L 365.151,-60.5 L 365.178,-61.0143 L 365.259,-61.5229 L 365.392,-62.0204
 L 365.577,-62.5011 L 365.811,-62.96 L 366.091,-63.3919 L 366.415,-63.7921 L 366.779,-64.1563 L 367.18,-64.4804
 L 367.521,-64.7024 L 367.521,-74 L 367.577,-74.5302 L 367.742,-75.0372 L 368.008,-75.4988 L 368.365,-75.895
 L 368.796,-76.2084 L 369.283,-76.4252 L 369.805,-76.536 L 370.338,-76.536 L 370.859,-76.4252 L 371.346,-76.2084
 L 371.778,-75.895 L 372.134,-75.4988 L 372.401,-75.0372 L 372.566,-74.5302 L 372.621,-74 L 372.621,-64.7024
 L 372.963,-64.4804 L 373.364,-64.1563 L 373.728,-63.7921 L 374.052,-63.3919 L 374.332,-62.96 L 374.566,-62.5011
 L 374.751,-62.0204 L 374.884,-61.5229 L 374.964,-61.0143 L 374.991,-60.5 L 374.964,-59.9857 L 374.884,-59.4771
 L 374.751,-58.9796 L 374.566,-58.4989 L 374.332,-58.04 L 374.052,-57.6081 L 373.728,-57.2079 L 373.364,-56.8437
 L 372.963,-56.5196 L 372.531,-56.2392 L 372.073,-56.0054 L 371.592,-55.8208 L 371.094,-55.6875 L 370.586,-55.607
 L 370.071,-55.58 z
M 550.843,-55.607 L 550.334,-55.6875 L 549.837,-55.8208 L 549.356,-56.0054 L 548.897,-56.2392 L 548.465,-56.5196
 L 548.065,-56.8437 L 547.701,-57.2079 L 547.377,-57.6081 L 547.096,-58.04 L 546.863,-58.4989 L 546.678,-58.9796
 L 546.545,-59.4771 L 546.464,-59.9857 L 546.437,-60.5 L 546.464,-61.0143 L 546.545,-61.5229 L 546.678,-62.0204
 L 546.863,-62.5011 L 547.096,-62.96 L 547.377,-63.3919 L 547.701,-63.7921 L 548.065,-64.1563 L 548.465,-64.4804
 L 548.807,-64.7024 L 548.807,-74 L 548.863,-74.5302 L 549.028,-75.0372 L 549.294,-75.4988 L 549.651,-75.895
 L 550.082,-76.2084 L 550.569,-76.4252 L 551.091,-76.536 L 551.624,-76.536 L 552.145,-76.4252 L 552.632,-76.2084
 L 553.063,-75.895 L 553.42,-75.4988 L 553.687,-75.0372 L 553.851,-74.5302 L 553.907,-74 L 553.907,-64.7024
 L 554.249,-64.4804 L 554.649,-64.1563 L 555.013,-63.7921 L 555.337,-63.3919 L 555.618,-62.96 L 555.852,-62.5011
 L 556.036,-62.0204 L 556.17,-61.5229 L 556.25,-61.0143 L 556.277,-60.5 L 556.25,-59.9857 L 556.17,-59.4771
 L 556.036,-58.9796 L 555.852,-58.4989 L 555.618,-58.04 L 555.337,-57.6081 L 555.013,-57.2079 L 554.649,-56.8437
 L 554.249,-56.5196 L 553.817,-56.2392 L 553.358,-56.0054 L 552.877,-55.8208 L 552.38,-55.6875 L 551.871,-55.607
 L 551.357,-55.58 z
M 732.129,-55.607 L 731.62,-55.6875 L 731.122,-55.8208 L 730.642,-56.0054 L 730.183,-56.2392 L 729.751,-56.5196
 L 729.351,-56.8437 L 728.987,-57.2079 L 728.662,-57.6081 L 728.382,-58.04 L 728.148,-58.4989 L 727.964,-58.9796
 L 727.83,-59.4771 L 727.75,-59.9857 L 727.723,-60.5 L 727.75,-61.0143 L 727.83,-61.5229 L 727.964,-62.0204
 L 728.148,-62.5011 L 728.382,-62.96 L 728.662,-63.3919 L 728.987,-63.7921 L 729.351,-64.1563 L 729.751,-64.4804
 L 730.093,-64.7024 L 730.093,-74 L 730.149,-74.5302 L 730.313,-75.0372 L 730.58,-75.4988 L 730.937,-75.895
 L 731.368,-76.2084 L 731.855,-76.4252 L 732.376,-76.536 L 732.909,-76.536 L 733.431,-76.4252 L 733.918,-76.2084
 L 734.349,-75.895 L 734.706,-75.4988 L 734.972,-75.0372 L 735.137,-74.5302 L 735.193,-74 L 735.193,-64.7024
 L 735.535,-64.4804 L 735.935,-64.1563 L 736.299,-63.7921 L 736.623,-63.3919 L 736.904,-62.96 L 737.137,-62.5011
 L 737.322,-62.0204 L 737.455,-61.5229 L 737.536,-61.0143 L 737.563,-60.5 L 737.536,-59.9857 L 737.455,-59.4771
 L 737.322,-58.9796 L 737.137,-58.4989 L 736.904,-58.04 L 736.623,-57.6081 L 736.299,-57.2079 L 735.935,-56.8437
 L 735.535,-56.5196 L 735.103,-56.2392 L 734.644,-56.0054 L 734.163,-55.8208 L 733.666,-55.6875 L 733.157,-55.607
 L 732.643,-55.58 z
M 913.414,-55.607 L 912.906,-55.6875 L 912.408,-55.8208 L 911.927,-56.0054 L 911.469,-56.2392 L 911.037,-56.5196
 L 910.636,-56.8437 L 910.272,-57.2079 L 909.948,-57.6081 L 909.668,-58.04 L 909.434,-58.4989 L 909.249,-58.9796
 L 909.116,-59.4771 L 909.036,-59.9857 L 909.009,-60.5 L 909.036,-61.0143 L 909.116,-61.5229 L 909.249,-62.0204
 L 909.434,-62.5011 L 909.668,-62.96 L 909.948,-63.3919 L 910.272,-63.7921 L 910.636,-64.1563 L 911.037,-64.4804
 L 911.379,-64.7024 L 911.379,-74 L 911.434,-74.5302 L 911.599,-75.0372 L 911.866,-75.4988 L 912.222,-75.895
 L 912.654,-76.2084 L 913.141,-76.4252 L 913.662,-76.536 L 914.195,-76.536 L 914.717,-76.4252 L 915.204,-76.2084
 L 915.635,-75.895 L 915.992,-75.4988 L 916.258,-75.0372 L 916.423,-74.5302 L 916.479,-74 L 916.479,-64.7024
 L 916.82,-64.4804 L 917.221,-64.1563 L 917.585,-63.7921 L 917.909,-63.3919 L 918.189,-62.96 L 918.423,-62.5011
 L 918.608,-62.0204 L 918.741,-61.5229 L 918.822,-61.0143 L 918.849,-60.5 L 918.822,-59.9857 L 918.741,-59.4771
 L 918.608,-58.9796 L 918.423,-58.4989 L 918.189,-58.04 L 917.909,-57.6081 L 917.585,-57.2079 L 917.221,-56.8437
 L 916.82,-56.5196 L 916.389,-56.2392 L 915.93,-56.0054 L 915.449,-55.8208 L 914.951,-55.6875 L 914.443,-55.607
 L 913.929,-55.58 z
M 1094.7,-55.607 L 1094.19,-55.6875 L 1093.69,-55.8208 L 1093.21,-56.0054 L 1092.75,-56.2392 L 1092.32,-56.5196
 L 1091.92,-56.8437 L 1091.56,-57.2079 L 1091.23,-57.6081 L 1090.95,-58.04 L 1090.72,-58.4989 L 1090.54,-58.9796
 L 1090.4,-59.4771 L 1090.32,-59.9857 L 1090.29,-60.5 L 1090.32,-61.0143 L 1090.4,-61.5229 L 1090.54,-62.0204
 L 1090.72,-62.5011 L 1090.95,-62.96 L 1091.23,-63.3919 L 1091.56,-63.7921 L 1091.92,-64.1563 L 1092.32,-64.4804
 L 1092.66,-64.7024 L 1092.66,-74 L 1092.72,-74.5302 L 1092.88,-75.0372 L 1093.15,-75.4988 L 1093.51,-75.895
 L 1093.94,-76.2084 L 1094.43,-76.4252 L 1094.95,-76.536 L 1095.48,-76.536 L 1096,-76.4252 L 1096.49,-76.2084
 L 1096.92,-75.895 L 1097.28,-75.4988 L 1097.54,-75.0372 L 1097.71,-74.5302 L 1097.76,-74 L 1097.76,-64.7024
 L 1098.11,-64.4804 L 1098.51,-64.1563 L 1098.87,-63.7921 L 1099.19,-63.3919 L 1099.48,-62.96 L 1099.71,-62.5011
 L 1099.89,-62.0204 L 1100.03,-61.5229 L 1100.11,-61.0143 L 1100.13,-60.5 L 1100.11,-59.9857 L 1100.03,-59.4771
 L 1099.89,-58.9796 L 1099.71,-58.4989 L 1099.48,-58.04 L 1099.19,-57.6081 L 1098.87,-57.2079 L 1098.51,-56.8437
 L 1098.11,-56.5196 L 1097.67,-56.2392 L 1097.22,-56.0054 L 1096.73,-55.8208 L 1096.24,-55.6875 L 1095.73,-55.607
 L 1095.21,-55.58 z
M 1275.99,-55.607 L 1275.48,-55.6875 L 1274.98,-55.8208 L 1274.5,-56.0054 L 1274.04,-56.2392 L 1273.61,-56.5196
 L 1273.21,-56.8437 L 1272.84,-57.2079 L 1272.52,-57.6081 L 1272.24,-58.04 L 1272.01,-58.4989 L 1271.82,-58.9796
 L 1271.69,-59.4771 L 1271.61,-59.9857 L 1271.58,-60.5 L 1271.61,-61.0143 L 1271.69,-61.5229 L 1271.82,-62.0204
 L 1272.01,-62.5011 L 1272.24,-62.96 L 1272.52,-63.3919 L 1272.84,-63.7921 L 1273.21,-64.1563 L 1273.61,-64.4804
 L 1273.95,-64.7024 L 1273.95,-74 L 1274.01,-74.5302 L 1274.17,-75.0372 L 1274.44,-75.4988 L 1274.79,-75.895
 L 1275.23,-76.2084 L 1275.71,-76.4252 L 1276.23,-76.536 L 1276.77,-76.536 L 1277.29,-76.4252 L 1277.77,-76.2084
 L 1278.21,-75.895 L 1278.56,-75.4988 L 1278.83,-75.0372 L 1278.99,-74.5302 L 1279.05,-74 L 1279.05,-64.7024
 L 1279.39,-64.4804 L 1279.79,-64.1563 L 1280.16,-63.7921 L 1280.48,-63.3919 L 1280.76,-62.96 L 1280.99,-62.5011
 L 1281.18,-62.0204 L 1281.31,-61.5229 L 1281.39,-61.0143 L 1281.42,-60.5 L 1281.39,-59.9857 L 1281.31,-59.4771
 L 1281.18,-58.9796 L 1280.99,-58.4989 L 1280.76,-58.04 L 1280.48,-57.6081 L 1280.16,-57.2079 L 1279.79,-56.8437
 L 1279.39,-56.5196 L 1278.96,-56.2392 L 1278.5,-56.0054 L 1278.02,-55.8208 L 1277.52,-55.6875 L 1277.01,-55.607
 L 1276.5,-55.58 z
M 744.578,-20.8912 L 743.8,-21.1969 L 743.102,-21.6577 L 742.515,-22.2535 L 742.065,-22.9583 L 741.771,-23.7412
 L 741.643,-24.7469 L 741.643,-58 L 741.73,-58.8316 L 741.989,-59.627 L 742.407,-60.3511 L 742.966,-60.9726
 L 743.643,-61.4641 L 744.407,-61.8042 L 745.643,-62 L 834.295,-62 L 835.126,-61.9126 L 835.922,-61.6542
 L 836.646,-61.2361 L 837.267,-60.6765 L 837.759,-60 L 838.099,-59.2361 L 838.273,-58.4181 L 838.273,-57.5819
 L 838.099,-56.7639 L 837.759,-56 L 837.267,-55.3235 L 836.646,-54.7639 L 835.699,-54.2548 L 747.048,-21.0017
 L 746.238,-20.7914 L 745.403,-20.7541 z
M 641.405,-47.7812 L 640.595,-47.9915 L 623.897,-54.2548 L 622.951,-54.7639 L 622.329,-55.3235 L 621.838,-56
 L 621.498,-56.7639 L 621.324,-57.5819 L 621.324,-58.4181 L 621.498,-59.2361 L 621.838,-60 L 622.329,-60.6765
 L 622.951,-61.2361 L 623.675,-61.6542 L 624.47,-61.9126 L 625.302,-62 L 658.698,-62 L 659.763,-61.8557
 L 660.541,-61.55 L 661.239,-61.0892 L 661.826,-60.4934 L 662.276,-59.7886 L 662.569,-59.0056 L 662.694,-58.1787
 L 662.644,-57.344 L 662.421,-56.5379 L 662.036,-55.7958 L 661.505,-55.15 L 660.851,-54.6287 L 660.103,-54.2548
 L 643.405,-47.9915 L 642.24,-47.7439 z
M 537.762,-20.7914 L 536.952,-21.0017 L 448.301,-54.2548 L 447.354,-54.7639 L 446.733,-55.3235 L 446.241,-56
 L 445.901,-56.7639 L 445.727,-57.5819 L 445.727,-58.4181 L 445.901,-59.2361 L 446.241,-60 L 446.733,-60.6765
 L 447.354,-61.2361 L 448.078,-61.6542 L 448.874,-61.9126 L 449.705,-62 L 538.357,-62 L 539.593,-61.8042
 L 540.357,-61.4641 L 541.034,-60.9726 L 541.593,-60.3511 L 542.011,-59.627 L 542.27,-58.8316 L 542.357,-58
 L 542.357,-24.7469 L 542.229,-23.7412 L 541.935,-22.9583 L 541.485,-22.2535 L 540.898,-21.6577 L 540.2,-21.1969
 L 539.422,-20.8912 L 538.597,-20.7541 z
M 356.476,-20.7914 L 355.667,-21.0017 L 267.015,-54.2548 L 266.069,-54.7639 L 265.447,-55.3235 L 264.956,-56
 L 264.615,-56.7639 L 264.442,-57.5819 L 264.442,-58.4181 L 264.615,-59.2361 L 264.956,-60 L 265.447,-60.6765
 L 266.069,-61.2361 L 266.793,-61.6542 L 267.588,-61.9126 L 268.42,-62 L 357.071,-62 L 358.307,-61.8042
 L 359.071,-61.4641 L 359.748,-60.9726 L 360.307,-60.3511 L 360.726,-59.627 L 360.984,-58.8316 L 361.071,-58
 L 361.071,-24.7469 L 360.943,-23.7412 L 360.649,-22.9583 L 360.199,-22.2535 L 359.612,-21.6577 L 358.915,-21.1969
 L 358.136,-20.8912 L 357.311,-20.7541 z
M 1107.15,-20.8912 L 1106.37,-21.1969 L 1105.67,-21.6577 L 1105.09,-22.2535 L 1104.64,-22.9583 L 1104.34,-23.7412
 L 1104.21,-24.7469 L 1104.21,-58 L 1104.3,-58.8316 L 1104.56,-59.627 L 1104.98,-60.3511 L 1105.54,-60.9726
 L 1106.21,-61.4641 L 1106.98,-61.8042 L 1108.21,-62 L 1196.87,-62 L 1197.7,-61.9126 L 1198.49,-61.6542
 L 1199.22,-61.2361 L 1199.84,-60.6765 L 1200.33,-60 L 1200.67,-59.2361 L 1200.84,-58.4181 L 1200.84,-57.5819
 L 1200.67,-56.7639 L 1200.33,-56 L 1199.84,-55.3235 L 1199.22,-54.7639 L 1198.27,-54.2548 L 1109.62,-21.0017
 L 1108.81,-20.7914 L 1107.97,-20.7541 z
M 175.19,-20.7914 L 174.381,-21.0017 L 85.7291,-54.2548 L 84.7828,-54.7639 L 84.1614,-55.3235 L 83.6698,-56
 L 83.3297,-56.7639 L 83.1559,-57.5819 L 83.1559,-58.4181 L 83.3297,-59.2361 L 83.6698,-60 L 84.1614,-60.6765
 L 84.7828,-61.2361 L 85.507,-61.6542 L 86.3023,-61.9126 L 87.1339,-62 L 175.786,-62 L 177.022,-61.8042
 L 177.786,-61.4641 L 178.462,-60.9726 L 179.022,-60.3511 L 179.44,-59.627 L 179.698,-58.8316 L 179.786,-58
 L 179.786,-24.7469 L 179.657,-23.7412 L 179.364,-22.9583 L 178.913,-22.2535 L 178.327,-21.6577 L 177.629,-21.1969
 L 176.851,-20.8912 L 176.026,-20.7541 z
M 925.864,-20.8912 L 925.085,-21.1969 L 924.388,-21.6577 L 923.801,-22.2535 L 923.351,-22.9583 L 923.057,-23.7412
 L 922.929,-24.7469 L 922.929,-58 L 923.016,-58.8316 L 923.274,-59.627 L 923.693,-60.3511 L 924.252,-60.9726
 L 924.929,-61.4641 L 925.693,-61.8042 L 926.929,-62 L 1015.58,-62 L 1016.41,-61.9126 L 1017.21,-61.6542
 L 1017.93,-61.2361 L 1018.55,-60.6765 L 1019.04,-60 L 1019.38,-59.2361 L 1019.56,-58.4181 L 1019.56,-57.5819
 L 1019.38,-56.7639 L 1019.04,-56 L 1018.55,-55.3235 L 1017.93,-54.7639 L 1016.99,-54.2548 L 928.333,-21.0017
 L 927.524,-20.7914 L 926.689,-20.7541 z
M 563.939,-18.6348 L 563.121,-18.8087 L 562.357,-19.1488 L 561.681,-19.6404 L 561.121,-20.2618 L 560.703,-20.986
 L 560.445,-21.7813 L 560.357,-22.6129 L 560.357,-57.3871 L 560.486,-58.3927 L 560.779,-59.1757 L 561.229,-59.8805
 L 561.816,-60.4763 L 562.514,-60.9371 L 563.292,-61.2427 L 564.117,-61.3799 L 564.953,-61.3425 L 565.762,-61.1323
 L 612.115,-43.7452 L 612.554,-43.55 L 613.252,-43.0892 L 613.838,-42.4934 L 614.288,-41.7886 L 614.582,-41.0056
 L 614.706,-40.1787 L 614.656,-39.344 L 614.434,-38.538 L 614.048,-37.7958 L 613.517,-37.15 L 612.863,-36.6287
 L 612.115,-36.2548 L 565.762,-18.8677 L 564.775,-18.6348 z
M 719.047,-18.6575 L 718.238,-18.8677 L 671.885,-36.2548 L 671.446,-36.45 L 670.748,-36.9108 L 670.162,-37.5066
 L 669.712,-38.2114 L 669.418,-38.9944 L 669.293,-39.8213 L 669.344,-40.656 L 669.566,-41.462 L 669.952,-42.2042
 L 670.483,-42.85 L 671.137,-43.3713 L 671.885,-43.7452 L 718.238,-61.1323 L 719.225,-61.3652 L 720.061,-61.3652
 L 720.879,-61.1913 L 721.643,-60.8512 L 722.319,-60.3597 L 722.879,-59.7382 L 723.297,-59.014 L 723.555,-58.2187
 L 723.643,-57.3871 L 723.643,-22.6129 L 723.514,-21.6073 L 723.221,-20.8243 L 722.771,-20.1195 L 722.184,-19.5237
 L 721.486,-19.0629 L 720.708,-18.7573 L 719.883,-18.6201 z
M 201.786,-18 L 200.55,-18.1958 L 199.786,-18.5359 L 199.109,-19.0274 L 198.55,-19.6489 L 198.132,-20.373
 L 197.873,-21.1684 L 197.786,-22 L 197.786,-55.2531 L 197.914,-56.2588 L 198.208,-57.0417 L 198.658,-57.7465
 L 199.245,-58.3423 L 199.942,-58.8031 L 200.721,-59.1088 L 201.546,-59.2459 L 202.381,-59.2086 L 203.191,-58.9983
 L 291.842,-25.7452 L 292.789,-25.2361 L 293.41,-24.6765 L 293.902,-24 L 294.242,-23.2361 L 294.416,-22.4181
 L 294.416,-21.5819 L 294.242,-20.7639 L 293.902,-20 L 293.41,-19.3235 L 292.789,-18.7639 L 292.064,-18.3458
 L 291.269,-18.0874 L 290.437,-18 z
M 383.071,-18 L 381.835,-18.1958 L 381.071,-18.5359 L 380.395,-19.0274 L 379.835,-19.6489 L 379.417,-20.373
 L 379.159,-21.1684 L 379.071,-22 L 379.071,-55.2531 L 379.2,-56.2588 L 379.494,-57.0417 L 379.944,-57.7465
 L 380.53,-58.3423 L 381.228,-58.8031 L 382.007,-59.1088 L 382.831,-59.2459 L 383.667,-59.2086 L 384.476,-58.9983
 L 473.128,-25.7452 L 474.074,-25.2361 L 474.696,-24.6765 L 475.187,-24 L 475.527,-23.2361 L 475.701,-22.4181
 L 475.701,-21.5819 L 475.527,-20.7639 L 475.187,-20 L 474.696,-19.3235 L 474.074,-18.7639 L 473.35,-18.3458
 L 472.555,-18.0874 L 471.723,-18 z
M 812.277,-18 L 811.445,-18.0874 L 810.65,-18.3458 L 809.926,-18.7639 L 809.304,-19.3235 L 808.813,-20
 L 808.473,-20.7639 L 808.299,-21.5819 L 808.299,-22.4181 L 808.473,-23.2361 L 808.813,-24 L 809.304,-24.6765
 L 809.926,-25.2361 L 810.872,-25.7452 L 899.524,-58.9983 L 900.333,-59.2086 L 901.169,-59.2459 L 901.993,-59.1088
 L 902.772,-58.8031 L 903.47,-58.3423 L 904.056,-57.7465 L 904.506,-57.0417 L 904.8,-56.2588 L 904.929,-55.2531
 L 904.929,-22 L 904.841,-21.1684 L 904.583,-20.373 L 904.165,-19.6489 L 903.605,-19.0274 L 902.929,-18.5359
 L 902.165,-18.1958 L 900.929,-18 z
M 993.563,-18 L 992.731,-18.0874 L 991.936,-18.3458 L 991.211,-18.7639 L 990.59,-19.3235 L 990.098,-20
 L 989.758,-20.7639 L 989.584,-21.5819 L 989.584,-22.4181 L 989.758,-23.2361 L 990.098,-24 L 990.59,-24.6765
 L 991.211,-25.2361 L 992.158,-25.7452 L 1080.81,-58.9983 L 1081.62,-59.2086 L 1082.45,-59.2459 L 1083.28,-59.1088
 L 1084.06,-58.8031 L 1084.76,-58.3423 L 1085.34,-57.7465 L 1085.79,-57.0417 L 1086.09,-56.2588 L 1086.21,-55.2531
 L 1086.21,-22 L 1086.13,-21.1684 L 1085.87,-20.373 L 1085.45,-19.6489 L 1084.89,-19.0274 L 1084.21,-18.5359
 L 1083.45,-18.1958 L 1082.21,-18 z
M 22,-18 L 20.7639,-18.1958 L 20,-18.5359 L 19.3235,-19.0274 L 18.7639,-19.6489 L 18.3458,-20.373
 L 18.0874,-21.1684 L 18,-22 L 18,-54.6905 L 18.1285,-55.6961 L 18.4222,-56.4791 L 18.8722,-57.1839
 L 19.459,-57.7797 L 20.1568,-58.2405 L 20.9352,-58.5461 L 21.7601,-58.6833 L 22.5954,-58.6459 L 23.4048,-58.4357
 L 110.557,-25.7452 L 111.503,-25.2361 L 112.124,-24.6765 L 112.616,-24 L 112.956,-23.2361 L 113.13,-22.4181
 L 113.13,-21.5819 L 112.956,-20.7639 L 112.616,-20 L 112.124,-19.3235 L 111.503,-18.7639 L 110.779,-18.3458
 L 109.983,-18.0874 L 109.152,-18 z
M 1174.85,-18 L 1174.02,-18.0874 L 1173.22,-18.3458 L 1172.5,-18.7639 L 1171.88,-19.3235 L 1171.38,-20
 L 1171.04,-20.7639 L 1170.87,-21.5819 L 1170.87,-22.4181 L 1171.04,-23.2361 L 1171.38,-24 L 1171.88,-24.6765
 L 1172.5,-25.2361 L 1173.44,-25.7452 L 1260.6,-58.4357 L 1261.4,-58.6459 L 1262.24,-58.6833 L 1263.06,-58.5461
 L 1263.84,-58.2405 L 1264.54,-57.7797 L 1265.13,-57.1839 L 1265.58,-56.4791 L 1265.87,-55.6961 L 1266,-54.6905
 L 1266,-22 L 1265.91,-21.1684 L 1265.65,-20.373 L 1265.24,-19.6489 L 1264.68,-19.0274 L 1264,-18.5359
 L 1263.24,-18.1958 L 1262,-18 z
M 625.302,-18 L 624.237,-18.1443 L 623.459,-18.45 L 622.761,-18.9108 L 622.174,-19.5066 L 621.724,-20.2114
 L 621.431,-20.9944 L 621.306,-21.8213 L 621.356,-22.656 L 621.579,-23.462 L 621.964,-24.2042 L 622.495,-24.85
 L 623.149,-25.3713 L 623.897,-25.7452 L 640.595,-32.0085 L 641.76,-32.2561 L 642.595,-32.2188 L 643.405,-32.0085
 L 660.103,-25.7452 L 661.049,-25.2361 L 661.67,-24.6765 L 662.162,-24 L 662.502,-23.2361 L 662.676,-22.4181
 L 662.676,-21.5819 L 662.502,-20.7639 L 662.162,-20 L 661.67,-19.3235 L 661.049,-18.7639 L 660.325,-18.3458
 L 659.53,-18.0874 L 658.698,-18 z
" stroke="black" fill="lightgray" stroke-width="0.5"/>
</svg>
