<?xml version="1.0" standalone="no"?>
<!DOCTYPE svg PUBLIC "-//W3C//DTD SVG 1.1//EN" "http://www.w3.org/Graphics/SVG/1.1/DTD/svg11.dtd">
<svg width="1700mm" height="80mm" viewBox="0 -80 1700 80" xmlns="http://www.w3.org/2000/svg" version="1.1">
<title>OpenSCAD Model</title>
<path d="
M 1700,-80 L 0,-80 L 0,-0 L 4.95,-0 L 4.95,-6 L 5.00572,-6.53017
 L 5.17046,-7.03717 L 5.437,-7.49884 L 5.79372,-7.895 L 6.22499,-8.20836 L 6.71201,-8.42519 L 7.23344,-8.53603
 L 7.76654,-8.53603 L 8.28798,-8.42519 L 8.77499,-8.20836 L 9.20627,-7.895 L 9.56299,-7.49884 L 9.82953,-7.03717
 L 9.99426,-6.53017 L 10.05,-6 L 10.05,-0 L 192.172,-0 L 192.172,-6 L 192.228,-6.53017
 L 192.393,-7.03717 L 192.659,-7.49884 L 193.016,-7.895 L 193.447,-8.20836 L 193.934,-8.42519 L 194.456,-8.53603
 L 194.989,-8.53603 L 195.51,-8.42519 L 195.997,-8.20836 L 196.428,-7.895 L 196.785,-7.49884 L 197.052,-7.03717
 L 197.216,-6.53017 L 197.272,-6 L 197.272,-0 L 379.394,-0 L 379.394,-6 L 379.45,-6.53017
 L 379.615,-7.03717 L 379.881,-7.49884 L 380.238,-7.895 L 380.669,-8.20836 L 381.156,-8.42519 L 381.678,-8.53603
 L 382.211,-8.53603 L 382.732,-8.42519 L 383.219,-8.20836 L 383.651,-7.895 L 384.007,-7.49884 L 384.274,-7.03717
 L 384.439,-6.53017 L 384.494,-6 L 384.494,-0 L 566.617,-0 L 566.617,-6 L 566.672,-6.53017
 L 566.837,-7.03717 L 567.104,-7.49884 L 567.46,-7.895 L 567.892,-8.20836 L 568.379,-8.42519 L 568.9,-8.53603
 L 569.433,-8.53603 L 569.955,-8.42519 L 570.442,-8.20836 L 570.873,-7.895 L 571.23,-7.49884 L 571.496,-7.03717
 L 571.661,-6.53017 L 571.717,-6 L 571.717,-0 L 753.839,-0 L 753.839,-6 L 753.895,-6.53017
 L 754.059,-7.03717 L 754.326,-7.49884 L 754.683,-7.895 L 755.114,-8.20836 L 755.601,-8.42519 L 756.122,-8.53603
 L 756.655,-8.53603 L 757.177,-8.42519 L 757.664,-8.20836 L 758.095,-7.895 L 758.452,-7.49884 L 758.718,-7.03717
 L 758.883,-6.53017 L 758.939,-6 L 758.939,-0 L 941.061,-0 L 941.061,-6 L 941.117,-6.53017
 L 941.282,-7.03717 L 941.548,-7.49884 L 941.905,-7.895 L 942.336,-8.20836 L 942.823,-8.42519 L 943.345,-8.53603
 L 943.878,-8.53603 L 944.399,-8.42519 L 944.886,-8.20836 L 945.317,-7.895 L 945.674,-7.49884 L 945.941,-7.03717
 L 946.105,-6.53017 L 946.161,-6 L 946.161,-0 L 1128.28,-0 L 1128.28,-6 L 1128.34,-6.53017
 L 1128.5,-7.03717 L 1128.77,-7.49884 L 1129.13,-7.895 L 1129.56,-8.20836 L 1130.05,-8.42519 L 1130.57,-8.53603
 L 1131.1,-8.53603 L 1131.62,-8.42519 L 1132.11,-8.20836 L 1132.54,-7.895 L 1132.9,-7.49884 L 1133.16,-7.03717
 L 1133.33,-6.53017 L 1133.38,-6 L 1133.38,-0 L 1315.51,-0 L 1315.51,-6 L 1315.56,-6.53017
 L 1315.73,-7.03717 L 1315.99,-7.49884 L 1316.35,-7.895 L 1316.78,-8.20836 L 1317.27,-8.42519 L 1317.79,-8.53603
 L 1318.32,-8.53603 L 1318.84,-8.42519 L 1319.33,-8.20836 L 1319.76,-7.895 L 1320.12,-7.49884 L 1320.39,-7.03717
 L 1320.55,-6.53017 L 1320.61,-6 L 1320.61,-0 L 1502.73,-0 L 1502.73,-6 L 1502.78,-6.53017
 L 1502.95,-7.03717 L 1503.21,-7.49884 L 1503.57,-7.895 L 1504,-8.20836 L 1504.49,-8.42519 L 1505.01,-8.53603
 L 1505.54,-8.53603 L 1506.07,-8.42519 L 1506.55,-8.20836 L 1506.98,-7.895 L 1507.34,-7.49884 L 1507.61,-7.03717
 L 1507.77,-6.53017 L 1507.83,-6 L 1507.83,-0 L 1689.95,-0 L 1689.95,-6 L 1690.01,-6.53017
 L 1690.17,-7.03717 L 1690.44,-7.49884 L 1690.79,-7.895 L 1691.22,-8.20836 L 1691.71,-8.42519 L 1692.23,-8.53603
 L 1692.77,-8.53603 L 1693.29,-8.42519 L 1693.77,-8.20836 L 1694.21,-7.895 L 1694.56,-7.49884 L 1694.83,-7.03717
 L 1694.99,-6.53017 L 1695.05,-6 L 1695.05,-0 L 1700,-0 z
M 6.98573,-55.607 L 6.47708,-55.6875 L 5.97964,-55.8208 L 5.49887,-56.0054 L 5.04001,-56.2392 L 4.60811,-56.5196
 L 4.20789,-56.8437 L 3.84373,-57.2079 L 3.51964,-57.6081 L 3.23917,-58.04 L 3.00537,-58.4989 L 2.82082,-58.9796
 L 2.68752,-59.4771 L 2.60696,-59.9857 L 2.58,-60.5 L 2.60696,-61.0143 L 2.68752,-61.5229 L 2.82082,-62.0204
 L 3.00537,-62.5011 L 3.23917,-62.96 L 3.51964,-63.3919 L 3.84373,-63.7921 L 4.20789,-64.1563 L 4.60811,-64.4804
 L 4.95001,-64.7024 L 4.95001,-74 L 5.00574,-74.5302 L 5.17047,-75.0372 L 5.43701,-75.4988 L 5.79373,-75.895
 L 6.22501,-76.2084 L 6.71202,-76.4252 L 7.23346,-76.536 L 7.76654,-76.536 L 8.28798,-76.4252 L 8.77499,-76.2084
 L 9.20627,-75.895 L 9.56299,-75.4988 L 9.82953,-75.0372 L 9.99426,-74.5302 L 10.05,-74 L 10.05,-64.7024
 L 10.3919,-64.4804 L 10.7921,-64.1563 L 11.1563,-63.7921 L 11.4804,-63.3919 L 11.7608,-62.96 L 11.9946,-62.5011
 L 12.1792,-62.0204 L 12.3125,-61.5229 L 12.393,-61.0143 L 12.42,-60.5 L 12.393,-59.9857 L 12.3125,-59.4771
 L 12.1792,-58.9796 L 11.9946,-58.4989 L 11.7608,-58.04 L 11.4804,-57.6081 L 11.1563,-57.2079 L 10.7921,-56.8437
 L 10.3919,-56.5196 L 9.95999,-56.2392 L 9.50113,-56.0054 L 9.02036,-55.8208 L 8.52292,-55.6875 L 8.01427,-55.607
 L 7.5,-55.58 z
M 1130.32,-55.607 L 1129.81,-55.6875 L 1129.31,-55.8208 L 1128.83,-56.0054 L 1128.37,-56.2392 L 1127.94,-56.5196
 L 1127.54,-56.8437 L 1127.18,-57.2079 L 1126.85,-57.6081 L 1126.57,-58.04 L 1126.34,-58.4989 L 1126.15,-58.9796
 L 1126.02,-59.4771 L 1125.94,-59.9857 L 1125.91,-60.5 L 1125.94,-61.0143 L 1126.02,-61.5229 L 1126.15,-62.0204
 L 1126.34,-62.5011 L 1126.57,-62.96 L 1126.85,-63.3919 L 1127.18,-63.7921 L 1127.54,-64.1563 L 1127.94,-64.4804
 L 1128.28,-64.7024 L 1128.28,-74 L 1128.34,-74.5302 L 1128.5,-75.0372 L 1128.77,-75.4988 L 1129.13,-75.895
 L 1129.56,-76.2084 L 1130.05,-76.4252 L 1130.57,-76.536 L 1131.1,-76.536 L 1131.62,-76.4252 L 1132.11,-76.2084
 L 1132.54,-75.895 L 1132.9,-75.4988 L 1133.16,-75.0372 L 1133.33,-74.5302 L 1133.38,-74 L 1133.38,-64.7024
 L 1133.73,-64.4804 L 1134.13,-64.1563 L 1134.49,-63.7921 L 1134.81,-63.3919 L 1135.09,-62.96 L 1135.33,-62.5011
 L 1135.51,-62.0204 L 1135.65,-61.5229 L 1135.73,-61.0143 L 1135.75,-60.5 L 1135.73,-59.9857 L 1135.65,-59.4771
 L 1135.51,-58.9796 L 1135.33,-58.4989 L 1135.09,-58.04 L 1134.81,-57.6081 L 1134.49,-57.2079 L 1134.13,-56.8437
 L 1133.73,-56.5196 L 1133.29,-56.2392 L 1132.83,-56.0054 L 1132.35,-55.8208 L 1131.86,-55.6875 L 1131.35,-55.607
 L 1130.83,-55.58 z
M 1317.54,-55.607 L 1317.03,-55.6875 L 1316.54,-55.8208 L 1316.05,-56.0054 L 1315.6,-56.2392 L 1315.16,-56.5196
 L 1314.76,-56.8437 L 1314.4,-57.2079 L 1314.08,-57.6081 L 1313.79,-58.04 L 1313.56,-58.4989 L 1313.38,-58.9796
 L 1313.24,-59.4771 L 1313.16,-59.9857 L 1313.14,-60.5 L 1313.16,-61.0143 L 1313.24,-61.5229 L 1313.38,-62.0204
 L 1313.56,-62.5011 L 1313.79,-62.96 L 1314.08,-63.3919 L 1314.4,-63.7921 L 1314.76,-64.1563 L 1315.16,-64.4804
 L 1315.51,-64.7024 L 1315.51,-74 L 1315.56,-74.5302 L 1315.73,-75.0372 L 1315.99,-75.4988 L 1316.35,-75.895
 L 1316.78,-76.2084 L 1317.27,-76.4252 L 1317.79,-76.536 L 1318.32,-76.536 L 1318.84,-76.4252 L 1319.33,-76.2084
 L 1319.76,-75.895 L 1320.12,-75.4988 L 1320.39,-75.0372 L 1320.55,-74.5302 L 1320.61,-74 L 1320.61,-64.7024
 L 1320.95,-64.4804 L 1321.35,-64.1563 L 1321.71,-63.7921 L 1322.04,-63.3919 L 1322.32,-62.96 L 1322.55,-62.5011
 L 1322.73,-62.0204 L 1322.87,-61.5229 L 1322.95,-61.0143 L 1322.98,-60.5 L 1322.95,-59.9857 L 1322.87,-59.4771
 L 1322.73,-58.9796 L 1322.55,-58.4989 L 1322.32,-58.04 L 1322.04,-57.6081 L 1321.71,-57.2079 L 1321.35,-56.8437
 L 1320.95,-56.5196 L 1320.52,-56.2392 L 1320.06,-56.0054 L 1319.58,-55.8208 L 1319.08,-55.6875 L 1318.57,-55.607
 L 1318.06,-55.58 z
M 943.097,-55.607 L 942.588,-55.6875 L 942.091,-55.8208 L 941.61,-56.0054 L 941.151,-56.2392 L 940.719,-56.5196
 L 940.319,-56.8437 L 939.955,-57.2079 L 939.631,-57.6081 L 939.35,-58.04 L 939.116,-58.4989 L 938.932,-58.9796
 L 938.799,-59.4771 L 938.718,-59.9857 L 938.691,-60.5 L 938.718,-61.0143 L 938.799,-61.5229 L 938.932,-62.0204
 L 939.116,-62.5011 L 939.35,-62.96 L 939.631,-63.3919 L 939.955,-63.7921 L 940.319,-64.1563 L 940.719,-64.4804
 L 941.061,-64.7024 L 941.061,-74 L 941.117,-74.5302 L 941.282,-75.0372 L 941.548,-75.4988 L 941.905,-75.895
 L 942.336,-76.2084 L 942.823,-76.4252 L 943.345,-76.536 L 943.878,-76.536 L 944.399,-76.4252 L 944.886,-76.2084
 L 945.317,-75.895 L 945.674,-75.4988 L 945.941,-75.0372 L 946.105,-74.5302 L 946.161,-74 L 946.161,-64.7024
 L 946.503,-64.4804 L 946.903,-64.1563 L 947.267,-63.7921 L 947.591,-63.3919 L 947.872,-62.96 L 948.106,-62.5011
 L 948.29,-62.0204 L 948.424,-61.5229 L 948.504,-61.0143 L 948.531,-60.5 L 948.504,-59.9857 L 948.424,-59.4771
 L 948.29,-58.9796 L 948.106,-58.4989 L 947.872,-58.04 L 947.591,-57.6081 L 947.267,-57.2079 L 946.903,-56.8437
 L 946.503,-56.5196 L 946.071,-56.2392 L 945.612,-56.0054 L 945.131,-55.8208 L 944.634,-55.6875 L 944.125,-55.607
 L 943.611,-55.58 z
M 755.875,-55.607 L 755.366,-55.6875 L 754.869,-55.8208 L 754.388,-56.0054 L 753.929,-56.2392 L 753.497,-56.5196
 L 753.097,-56.8437 L 752.733,-57.2079 L 752.409,-57.6081 L 752.128,-58.04 L 751.894,-58.4989 L 751.71,-58.9796
 L 751.576,-59.4771 L 751.496,-59.9857 L 751.469,-60.5 L 751.496,-61.0143 L 751.576,-61.5229 L 751.71,-62.0204
 L 751.894,-62.5011 L 752.128,-62.96 L 752.409,-63.3919 L 752.733,-63.7921 L 753.097,-64.1563 L 753.497,-64.4804
 L 753.839,-64.7024 L 753.839,-74 L 753.895,-74.5302 L 754.059,-75.0372 L 754.326,-75.4988 L 754.683,-75.895
 L 755.114,-76.2084 L 755.601,-76.4252 L 756.122,-76.536 L 756.655,-76.536 L 757.177,-76.4252 L 757.664,-76.2084
 L 758.095,-75.895 L 758.452,-75.4988 L 758.718,-75.0372 L 758.883,-74.5302 L 758.939,-74 L 758.939,-64.7024
 L 759.281,-64.4804 L 759.681,-64.1563 L 760.045,-63.7921 L 760.369,-63.3919 L 760.65,-62.96 L 760.884,-62.5011
 L 761.068,-62.0204 L 761.201,-61.5229 L 761.282,-61.0143 L 761.309,-60.5 L 761.282,-59.9857 L 761.201,-59.4771
 L 761.068,-58.9796 L 760.884,-58.4989 L 760.65,-58.04 L 760.369,-57.6081 L 760.045,-57.2079 L 759.681,-56.8437
 L 759.281,-56.5196 L 758.849,-56.2392 L 758.39,-56.0054 L 757.909,-55.8208 L 757.412,-55.6875 L 756.903,-55.607
 L 756.389,-55.58 z
M 1504.76,-55.607 L 1504.25,-55.6875 L 1503.76,-55.8208 L 1503.28,-56.0054 L 1502.82,-56.2392 L 1502.39,-56.5196
 L 1501.99,-56.8437 L 1501.62,-57.2079 L 1501.3,-57.6081 L 1501.02,-58.04 L 1500.78,-58.4989 L 1500.6,-58.9796
 L 1500.47,-59.4771 L 1500.38,-59.9857 L 1500.36,-60.5 L 1500.38,-61.0143 L 1500.47,-61.5229 L 1500.6,-62.0204
 L 1500.78,-62.5011 L 1501.02,-62.96 L 1501.3,-63.3919 L 1501.62,-63.7921 L 1501.99,-64.1563 L 1502.39,-64.4804
 L 1502.73,-64.7024 L 1502.73,-74 L 1502.78,-74.5302 L 1502.95,-75.0372 L 1503.21,-75.4988 L 1503.57,-75.895
 L 1504,-76.2084 L 1504.49,-76.4252 L 1505.01,-76.536 L 1505.54,-76.536 L 1506.07,-76.4252 L 1506.55,-76.2084
 L 1506.98,-75.895 L 1507.34,-75.4988 L 1507.61,-75.0372 L 1507.77,-74.5302 L 1507.83,-74 L 1507.83,-64.7024
 L 1508.17,-64.4804 L 1508.57,-64.1563 L 1508.93,-63.7921 L 1509.26,-63.3919 L 1509.54,-62.96 L 1509.77,-62.5011
 L 1509.96,-62.0204 L 1510.09,-61.5229 L 1510.17,-61.0143 L 1510.2,-60.5 L 1510.17,-59.9857 L 1510.09,-59.4771
 L 1509.96,-58.9796 L 1509.77,-58.4989 L 1509.54,-58.04 L 1509.26,-57.6081 L 1508.93,-57.2079 L 1508.57,-56.8437
 L 1508.17,-56.5196 L 1507.74,-56.2392 L 1507.28,-56.0054 L 1506.8,-55.8208 L 1506.3,-55.6875 L 1505.79,-55.607
 L 1505.28,-55.58 z
M 568.652,-55.607 L 568.144,-55.6875 L 567.646,-55.8208 L 567.166,-56.0054 L 566.707,-56.2392 L 566.275,-56.5196
 L 565.875,-56.8437 L 565.51,-57.2079 L 565.186,-57.6081 L 564.906,-58.04 L 564.672,-58.4989 L 564.487,-58.9796
 L 564.354,-59.4771 L 564.274,-59.9857 L 564.247,-60.5 L 564.274,-61.0143 L 564.354,-61.5229 L 564.487,-62.0204
 L 564.672,-62.5011 L 564.906,-62.96 L 565.186,-63.3919 L 565.51,-63.7921 L 565.875,-64.1563 L 566.275,-64.4804
 L 566.617,-64.7024 L 566.617,-74 L 566.672,-74.5302 L 566.837,-75.0372 L 567.104,-75.4988 L 567.46,-75.895
 L 567.892,-76.2084 L 568.379,-76.4252 L 568.9,-76.536 L 569.433,-76.536 L 569.955,-76.4252 L 570.442,-76.2084
 L 570.873,-75.895 L 571.23,-75.4988 L 571.496,-75.0372 L 571.661,-74.5302 L 571.717,-74 L 571.717,-64.7024
 L 572.059,-64.4804 L 572.459,-64.1563 L 572.823,-63.7921 L 573.147,-63.3919 L 573.427,-62.96 L 573.661,-62.5011
 L 573.846,-62.0204 L 573.979,-61.5229 L 574.06,-61.0143 L 574.087,-60.5 L 574.06,-59.9857 L 573.979,-59.4771
 L 573.846,-58.9796 L 573.661,-58.4989 L 573.427,-58.04 L 573.147,-57.6081 L 572.823,-57.2079 L 572.459,-56.8437
 L 572.059,-56.5196 L 571.627,-56.2392 L 571.168,-56.0054 L 570.687,-55.8208 L 570.19,-55.6875 L 569.681,-55.607
 L 569.167,-55.58 z
M 381.43,-55.607 L 380.922,-55.6875 L 380.424,-55.8208 L 379.943,-56.0054 L 379.484,-56.2392 L 379.053,-56.5196
 L 378.652,-56.8437 L 378.288,-57.2079 L 377.964,-57.6081 L 377.684,-58.04 L 377.45,-58.4989 L 377.265,-58.9796
 L 377.132,-59.4771 L 377.051,-59.9857 L 377.024,-60.5 L 377.051,-61.0143 L 377.132,-61.5229 L 377.265,-62.0204
 L 377.45,-62.5011 L 377.684,-62.96 L 377.964,-63.3919 L 378.288,-63.7921 L 378.652,-64.1563 L 379.053,-64.4804
 L 379.394,-64.7024 L 379.394,-74 L 379.45,-74.5302 L 379.615,-75.0372 L 379.881,-75.4988 L 380.238,-75.895
 L 380.669,-76.2084 L 381.156,-76.4252 L 381.678,-76.536 L 382.211,-76.536 L 382.732,-76.4252 L 383.219,-76.2084
 L 383.651,-75.895 L 384.007,-75.4988 L 384.274,-75.0372 L 384.439,-74.5302 L 384.494,-74 L 384.494,-64.7024
 L 384.836,-64.4804 L 385.237,-64.1563 L 385.601,-63.7921 L 385.925,-63.3919 L 386.205,-62.96 L 386.439,-62.5011
 L 386.624,-62.0204 L 386.757,-61.5229 L 386.837,-61.0143 L 386.864,-60.5 L 386.837,-59.9857 L 386.757,-59.4771
 L 386.624,-58.9796 L 386.439,-58.4989 L 386.205,-58.04 L 385.925,-57.6081 L 385.601,-57.2079 L 385.237,-56.8437
 L 384.836,-56.5196 L 384.404,-56.2392 L 383.946,-56.0054 L 383.465,-55.8208 L 382.967,-55.6875 L 382.459,-55.607
 L 381.944,-55.58 z
M 1691.99,-55.607 L 1691.48,-55.6875 L 1690.98,-55.8208 L 1690.5,-56.0054 L 1690.04,-56.2392 L 1689.61,-56.5196
 L 1689.21,-56.8437 L 1688.84,-57.2079 L 1688.52,-57.6081 L 1688.24,-58.04 L 1688.01,-58.4989 L 1687.82,-58.9796
 L 1687.69,-59.4771 L 1687.61,-59.9857 L 1687.58,-60.5 L 1687.61,-61.0143 L 1687.69,-61.5229 L 1687.82,-62.0204
 L 1688.01,-62.5011 L 1688.24,-62.96 L 1688.52,-63.3919 L 1688.84,-63.7921 L 1689.21,-64.1563 L 1689.61,-64.4804
 L 1689.95,-64.7024 L 1689.95,-74 L 1690.01,-74.5302 L 1690.17,-75.0372 L 1690.44,-75.4988 L 1690.79,-75.895
 L 1691.23,-76.2084 L 1691.71,-76.4252 L 1692.23,-76.536 L 1692.77,-76.536 L 1693.29,-76.4252 L 1693.77,-76.2084
 L 1694.21,-75.895 L 1694.56,-75.4988 L 1694.83,-75.0372 L 1694.99,-74.5302 L 1695.05,-74 L 1695.05,-64.7024
 L 1695.39,-64.4804 L 1695.79,-64.1563 L 1696.16,-63.7921 L 1696.48,-63.3919 L 1696.76,-62.96 L 1696.99,-62.5011
 L 1697.18,-62.0204 L 1697.31,-61.5229 L 1697.39,-61.0143 L 1697.42,-60.5 L 1697.39,-59.9857 L 1697.31,-59.4771
 L 1697.18,-58.9796 L 1696.99,-58.4989 L 1696.76,-58.04 L 1696.48,-57.6081 L 1696.16,-57.2079 L 1695.79,-56.8437
 L 1695.39,-56.5196 L 1694.96,-56.2392 L 1694.5,-56.0054 L 1694.02,-55.8208 L 1693.52,-55.6875 L 1693.01,-55.607
 L 1692.5,-55.58 z
M 194.208,-55.607 L 193.699,-55.6875 L 193.202,-55.8208 L 192.721,-56.0054 L 192.262,-56.2392 L 191.83,-56.5196
 L 191.43,-56.8437 L 191.066,-57.2079 L 190.742,-57.6081 L 190.461,-58.04 L 190.228,-58.4989 L 190.043,-58.9796
 L 189.91,-59.4771 L 189.829,-59.9857 L 189.802,-60.5 L 189.829,-61.0143 L 189.91,-61.5229 L 190.043,-62.0204
 L 190.228,-62.5011 L 190.461,-62.96 L 190.742,-63.3919 L 191.066,-63.7921 L 191.43,-64.1563 L 191.83,-64.4804
 L 192.172,-64.7024 L 192.172,-74 L 192.228,-74.5302 L 192.393,-75.0372 L 192.659,-75.4988 L 193.016,-75.895
 L 193.447,-76.2084 L 193.934,-76.4252 L 194.456,-76.536 L 194.989,-76.536 L 195.51,-76.4252 L 195.997,-76.2084
 L 196.428,-75.895 L 196.785,-75.4988 L 197.052,-75.0372 L 197.216,-74.5302 L 197.272,-74 L 197.272,-64.7024
 L 197.614,-64.4804 L 198.014,-64.1563 L 198.378,-63.7921 L 198.703,-63.3919 L 198.983,-62.96 L 199.217,-62.5011
 L 199.401,-62.0204 L 199.535,-61.5229 L 199.615,-61.0143 L 199.642,-60.5 L 199.615,-59.9857 L 199.535,-59.4771
 L 199.401,-58.9796 L 199.217,-58.4989 L 198.983,-58.04 L 198.703,-57.6081 L 198.378,-57.2079 L 198.014,-56.8437
 L 197.614,-56.5196 L 197.182,-56.2392 L 196.723,-56.0054 L 196.243,-55.8208 L 195.745,-55.6875 L 195.236,-55.607
 L 194.722,-55.58 z
M 1142.73,-20.7002 L 1141.95,-21.0139 L 1141.26,-21.482 L 1140.68,-22.084 L 1140.24,-22.7934 L 1139.95,-23.5794
 L 1139.83,-24.5445 L 1139.83,-58 L 1139.92,-58.8316 L 1140.18,-59.627 L 1140.6,-60.3511 L 1141.16,-60.9726
 L 1141.83,-61.4641 L 1142.6,-61.8042 L 1143.83,-62 L 1235.95,-62 L 1236.78,-61.9126 L 1237.57,-61.6542
 L 1238.3,-61.2361 L 1238.92,-60.6765 L 1239.41,-60 L 1239.75,-59.2361 L 1239.92,-58.4181 L 1239.92,-57.5819
 L 1239.75,-56.7639 L 1239.41,-56 L 1238.92,-55.3235 L 1238.3,-54.7639 L 1237.31,-54.2403 L 1145.2,-20.7848
 L 1144.39,-20.583 L 1143.55,-20.5544 z
M 955.506,-20.7002 L 954.731,-21.0139 L 954.038,-21.482 L 953.457,-22.084 L 953.015,-22.7934 L 952.729,-23.5794
 L 952.611,-24.5445 L 952.611,-58 L 952.699,-58.8316 L 952.957,-59.627 L 953.375,-60.3511 L 953.935,-60.9726
 L 954.611,-61.4641 L 955.375,-61.8042 L 956.611,-62 L 1048.72,-62 L 1049.55,-61.9126 L 1050.35,-61.6542
 L 1051.07,-61.2361 L 1051.7,-60.6765 L 1052.19,-60 L 1052.53,-59.2361 L 1052.7,-58.4181 L 1052.7,-57.5819
 L 1052.53,-56.7639 L 1052.19,-56 L 1051.7,-55.3235 L 1051.07,-54.7639 L 1050.09,-54.2403 L 957.977,-20.7848
 L 957.165,-20.583 L 956.329,-20.5544 z
M 849.446,-47.7348 L 848.634,-47.9365 L 831.278,-54.2403 L 830.293,-54.7639 L 829.671,-55.3235 L 829.18,-56
 L 828.84,-56.7639 L 828.666,-57.5819 L 828.666,-58.4181 L 828.84,-59.2361 L 829.18,-60 L 829.671,-60.6765
 L 830.293,-61.2361 L 831.017,-61.6542 L 831.812,-61.9126 L 832.644,-62 L 867.356,-62 L 868.461,-61.8443
 L 869.236,-61.5305 L 869.929,-61.0624 L 870.51,-60.4605 L 870.952,-59.7511 L 871.238,-58.9651 L 871.354,-58.1369
 L 871.295,-57.3027 L 871.064,-56.4991 L 870.671,-55.761 L 870.133,-55.1208 L 869.473,-54.6064 L 868.722,-54.2403
 L 851.366,-47.9365 L 850.282,-47.7061 z
M 742.835,-20.583 L 742.023,-20.7848 L 649.911,-54.2403 L 648.926,-54.7639 L 648.304,-55.3235 L 647.813,-56
 L 647.473,-56.7639 L 647.299,-57.5819 L 647.299,-58.4181 L 647.473,-59.2361 L 647.813,-60 L 648.304,-60.6765
 L 648.926,-61.2361 L 649.65,-61.6542 L 650.445,-61.9126 L 651.277,-62 L 743.389,-62 L 744.625,-61.8042
 L 745.389,-61.4641 L 746.065,-60.9726 L 746.625,-60.3511 L 747.043,-59.627 L 747.301,-58.8316 L 747.389,-58
 L 747.389,-24.5445 L 747.271,-23.5794 L 746.985,-22.7934 L 746.543,-22.084 L 745.962,-21.482 L 745.269,-21.0139
 L 744.494,-20.7002 L 743.671,-20.5544 z
M 555.613,-20.583 L 554.801,-20.7848 L 462.689,-54.2403 L 461.703,-54.7639 L 461.082,-55.3235 L 460.59,-56
 L 460.25,-56.7639 L 460.077,-57.5819 L 460.077,-58.4181 L 460.25,-59.2361 L 460.59,-60 L 461.082,-60.6765
 L 461.703,-61.2361 L 462.428,-61.6542 L 463.223,-61.9126 L 464.055,-62 L 556.167,-62 L 557.403,-61.8042
 L 558.167,-61.4641 L 558.843,-60.9726 L 559.403,-60.3511 L 559.821,-59.627 L 560.079,-58.8316 L 560.167,-58
 L 560.167,-24.5445 L 560.048,-23.5794 L 559.763,-22.7934 L 559.32,-22.084 L 558.74,-21.482 L 558.047,-21.0139
 L 557.272,-20.7002 L 556.448,-20.5544 z
M 368.39,-20.583 L 367.579,-20.7848 L 275.467,-54.2403 L 274.481,-54.7639 L 273.86,-55.3235 L 273.368,-56
 L 273.028,-56.7639 L 272.854,-57.5819 L 272.854,-58.4181 L 273.028,-59.2361 L 273.368,-60 L 273.86,-60.6765
 L 274.481,-61.2361 L 275.205,-61.6542 L 276.001,-61.9126 L 276.832,-62 L 368.944,-62 L 370.18,-61.8042
 L 370.944,-61.4641 L 371.621,-60.9726 L 372.18,-60.3511 L 372.599,-59.627 L 372.857,-58.8316 L 372.944,-58
 L 372.944,-24.5445 L 372.826,-23.5794 L 372.541,-22.7934 L 372.098,-22.084 L 371.518,-21.482 L 370.825,-21.0139
 L 370.05,-20.7002 L 369.226,-20.5544 z
M 1517.17,-20.7002 L 1516.4,-21.0139 L 1515.7,-21.482 L 1515.12,-22.084 L 1514.68,-22.7934 L 1514.4,-23.5794
 L 1514.28,-24.5445 L 1514.28,-58 L 1514.37,-58.8316 L 1514.62,-59.627 L 1515.04,-60.3511 L 1515.6,-60.9726
 L 1516.28,-61.4641 L 1517.04,-61.8042 L 1518.28,-62 L 1610.39,-62 L 1611.22,-61.9126 L 1612.02,-61.6542
 L 1612.74,-61.2361 L 1613.36,-60.6765 L 1613.85,-60 L 1614.19,-59.2361 L 1614.37,-58.4181 L 1614.37,-57.5819
 L 1614.19,-56.7639 L 1613.85,-56 L 1613.36,-55.3235 L 1612.74,-54.7639 L 1611.76,-54.2403 L 1519.64,-20.7848
 L 1518.83,-20.583 L 1518,-20.5544 z
M 181.168,-20.583 L 180.357,-20.7848 L 88.2446,-54.2403 L 87.259,-54.7639 L 86.6376,-55.3235 L 86.1461,-56
 L 85.8059,-56.7639 L 85.6321,-57.5819 L 85.6321,-58.4181 L 85.8059,-59.2361 L 86.1461,-60 L 86.6376,-60.6765
 L 87.259,-61.2361 L 87.9832,-61.6542 L 88.7785,-61.9126 L 89.6102,-62 L 181.722,-62 L 182.958,-61.8042
 L 183.722,-61.4641 L 184.399,-60.9726 L 184.958,-60.3511 L 185.376,-59.627 L 185.635,-58.8316 L 185.722,-58
 L 185.722,-24.5445 L 185.604,-23.5794 L 185.319,-22.7934 L 184.876,-22.084 L 184.295,-21.482 L 183.602,-21.0139
 L 182.827,-20.7002 L 182.004,-20.5544 z
M 1329.95,-20.7002 L 1329.18,-21.0139 L 1328.48,-21.482 L 1327.9,-22.084 L 1327.46,-22.7934 L 1327.17,-23.5794
 L 1327.06,-24.5445 L 1327.06,-58 L 1327.14,-58.8316 L 1327.4,-59.627 L 1327.82,-60.3511 L 1328.38,-60.9726
 L 1329.06,-61.4641 L 1329.82,-61.8042 L 1331.06,-62 L 1423.17,-62 L 1424,-61.9126 L 1424.79,-61.6542
 L 1425.52,-61.2361 L 1426.14,-60.6765 L 1426.63,-60 L 1426.97,-59.2361 L 1427.15,-58.4181 L 1427.15,-57.5819
 L 1426.97,-56.7639 L 1426.63,-56 L 1426.14,-55.3235 L 1425.52,-54.7639 L 1424.53,-54.2403 L 1332.42,-20.7848
 L 1331.61,-20.583 L 1330.77,-20.5544 z
M 768.971,-18.4398 L 768.153,-18.6137 L 767.389,-18.9538 L 766.712,-19.4453 L 766.153,-20.0668 L 765.735,-20.7909
 L 765.476,-21.5862 L 765.389,-22.4179 L 765.389,-57.5821 L 765.507,-58.5472 L 765.793,-59.3332 L 766.235,-60.0426
 L 766.816,-60.6445 L 767.509,-61.1126 L 768.284,-61.4264 L 769.107,-61.5722 L 769.943,-61.5435 L 770.754,-61.3418
 L 819.163,-43.7597 L 819.677,-43.5305 L 820.37,-43.0624 L 820.951,-42.4605 L 821.394,-41.7511 L 821.679,-40.9651
 L 821.795,-40.1369 L 821.736,-39.3027 L 821.505,-38.4991 L 821.112,-37.761 L 820.574,-37.1208 L 819.915,-36.6064
 L 819.163,-36.2403 L 770.754,-18.6582 L 769.807,-18.4398 z
M 930.057,-18.4564 L 929.246,-18.6582 L 880.837,-36.2403 L 880.323,-36.4695 L 879.63,-36.9376 L 879.049,-37.5395
 L 878.606,-38.2489 L 878.321,-39.0349 L 878.205,-39.8631 L 878.264,-40.6973 L 878.495,-41.5009 L 878.888,-42.239
 L 879.426,-42.8792 L 880.085,-43.3936 L 880.837,-43.7597 L 929.246,-61.3418 L 930.193,-61.5602 L 931.029,-61.5602
 L 931.847,-61.3864 L 932.611,-61.0462 L 933.288,-60.5547 L 933.847,-59.9333 L 934.265,-59.2091 L 934.524,-58.4138
 L 934.611,-57.5821 L 934.611,-22.4179 L 934.493,-21.4528 L 934.207,-20.6668 L 933.765,-19.9574 L 933.184,-19.3554
 L 932.491,-18.8874 L 931.716,-18.5736 L 930.893,-18.4278 z
M 207.722,-18 L 206.486,-18.1958 L 205.722,-18.5359 L 205.046,-19.0274 L 204.486,-19.6489 L 204.068,-20.373
 L 203.81,-21.1684 L 203.722,-22 L 203.722,-55.4555 L 203.84,-56.4206 L 204.126,-57.2066 L 204.569,-57.916
 L 205.149,-58.518 L 205.842,-58.9861 L 206.617,-59.2998 L 207.44,-59.4456 L 208.276,-59.417 L 209.088,-59.2152
 L 301.2,-25.7597 L 302.185,-25.2361 L 302.807,-24.6765 L 303.298,-24 L 303.638,-23.2361 L 303.812,-22.4181
 L 303.812,-21.5819 L 303.638,-20.7639 L 303.298,-20 L 302.807,-19.3235 L 302.185,-18.7639 L 301.461,-18.3458
 L 300.666,-18.0874 L 299.834,-18 z
M 394.944,-18 L 393.708,-18.1958 L 392.944,-18.5359 L 392.268,-19.0274 L 391.708,-19.6489 L 391.29,-20.373
 L 391.032,-21.1684 L 390.944,-22 L 390.944,-55.4555 L 391.063,-56.4206 L 391.348,-57.2066 L 391.791,-57.916
 L 392.371,-58.518 L 393.064,-58.9861 L 393.839,-59.2998 L 394.663,-59.4456 L 395.498,-59.417 L 396.31,-59.2152
 L 488.422,-25.7597 L 489.408,-25.2361 L 490.029,-24.6765 L 490.521,-24 L 490.861,-23.2361 L 491.035,-22.4181
 L 491.035,-21.5819 L 490.861,-20.7639 L 490.521,-20 L 490.029,-19.3235 L 489.408,-18.7639 L 488.683,-18.3458
 L 487.888,-18.0874 L 487.056,-18 z
M 582.167,-18 L 580.931,-18.1958 L 580.167,-18.5359 L 579.49,-19.0274 L 578.931,-19.6489 L 578.512,-20.373
 L 578.254,-21.1684 L 578.167,-22 L 578.167,-55.4555 L 578.285,-56.4206 L 578.57,-57.2066 L 579.013,-57.916
 L 579.593,-58.518 L 580.286,-58.9861 L 581.062,-59.2998 L 581.885,-59.4456 L 582.721,-59.417 L 583.532,-59.2152
 L 675.644,-25.7597 L 676.63,-25.2361 L 677.251,-24.6765 L 677.743,-24 L 678.083,-23.2361 L 678.257,-22.4181
 L 678.257,-21.5819 L 678.083,-20.7639 L 677.743,-20 L 677.251,-19.3235 L 676.63,-18.7639 L 675.906,-18.3458
 L 675.11,-18.0874 L 674.279,-18 z
M 1025.72,-18 L 1024.89,-18.0874 L 1024.09,-18.3458 L 1023.37,-18.7639 L 1022.75,-19.3235 L 1022.26,-20
 L 1021.92,-20.7639 L 1021.74,-21.5819 L 1021.74,-22.4181 L 1021.92,-23.2361 L 1022.26,-24 L 1022.75,-24.6765
 L 1023.37,-25.2361 L 1024.36,-25.7597 L 1116.47,-59.2152 L 1117.28,-59.417 L 1118.12,-59.4456 L 1118.94,-59.2998
 L 1119.71,-58.9861 L 1120.41,-58.518 L 1120.99,-57.916 L 1121.43,-57.2066 L 1121.72,-56.4206 L 1121.83,-55.4555
 L 1121.83,-22 L 1121.75,-21.1684 L 1121.49,-20.373 L 1121.07,-19.6489 L 1120.51,-19.0274 L 1119.83,-18.5359
 L 1119.07,-18.1958 L 1117.83,-18 z
M 1212.94,-18 L 1212.11,-18.0874 L 1211.32,-18.3458 L 1210.59,-18.7639 L 1209.97,-19.3235 L 1209.48,-20
 L 1209.14,-20.7639 L 1208.97,-21.5819 L 1208.97,-22.4181 L 1209.14,-23.2361 L 1209.48,-24 L 1209.97,-24.6765
 L 1210.59,-25.2361 L 1211.58,-25.7597 L 1303.69,-59.2152 L 1304.5,-59.417 L 1305.34,-59.4456 L 1306.16,-59.2998
 L 1306.94,-58.9861 L 1307.63,-58.518 L 1308.21,-57.916 L 1308.65,-57.2066 L 1308.94,-56.4206 L 1309.06,-55.4555
 L 1309.06,-22 L 1308.97,-21.1684 L 1308.71,-20.373 L 1308.29,-19.6489 L 1307.73,-19.0274 L 1307.06,-18.5359
 L 1306.29,-18.1958 L 1305.06,-18 z
M 1400.17,-18 L 1399.33,-18.0874 L 1398.54,-18.3458 L 1397.81,-18.7639 L 1397.19,-19.3235 L 1396.7,-20
 L 1396.36,-20.7639 L 1396.19,-21.5819 L 1396.19,-22.4181 L 1396.36,-23.2361 L 1396.7,-24 L 1397.19,-24.6765
 L 1397.81,-25.2361 L 1398.8,-25.7597 L 1490.91,-59.2152 L 1491.72,-59.417 L 1492.56,-59.4456 L 1493.38,-59.2998
 L 1494.16,-58.9861 L 1494.85,-58.518 L 1495.43,-57.916 L 1495.87,-57.2066 L 1496.16,-56.4206 L 1496.28,-55.4555
 L 1496.28,-22 L 1496.19,-21.1684 L 1495.93,-20.373 L 1495.51,-19.6489 L 1494.95,-19.0274 L 1494.28,-18.5359
 L 1493.51,-18.1958 L 1492.28,-18 z
M 22,-18 L 20.7639,-18.1958 L 20,-18.5359 L 19.3235,-19.0274 L 18.7639,-19.6489 L 18.3458,-20.373
 L 18.0874,-21.1684 L 18,-22 L 18,-54.9107 L 18.1182,-55.8758 L 18.4036,-56.6618 L 18.8463,-57.3712
 L 19.4268,-57.9732 L 20.1197,-58.4412 L 20.8949,-58.755 L 21.7183,-58.9008 L 22.554,-58.8722 L 23.3655,-58.6704
 L 113.978,-25.7597 L 114.963,-25.2361 L 115.585,-24.6765 L 116.076,-24 L 116.416,-23.2361 L 116.59,-22.4181
 L 116.59,-21.5819 L 116.416,-20.7639 L 116.076,-20 L 115.585,-19.3235 L 114.963,-18.7639 L 114.239,-18.3458
 L 113.444,-18.0874 L 112.612,-18 z
M 1587.39,-18 L 1586.56,-18.0874 L 1585.76,-18.3458 L 1585.04,-18.7639 L 1584.42,-19.3235 L 1583.92,-20
 L 1583.58,-20.7639 L 1583.41,-21.5819 L 1583.41,-22.4181 L 1583.58,-23.2361 L 1583.92,-24 L 1584.42,-24.6765
 L 1585.04,-25.2361 L 1586.02,-25.7597 L 1676.63,-58.6704 L 1677.45,-58.8722 L 1678.28,-58.9008 L 1679.11,-58.755
 L 1679.88,-58.4412 L 1680.57,-57.9732 L 1681.15,-57.3712 L 1681.6,-56.6618 L 1681.88,-55.8758 L 1682,-54.9107
 L 1682,-22 L 1681.91,-21.1684 L 1681.65,-20.373 L 1681.24,-19.6489 L 1680.68,-19.0274 L 1680,-18.5359
 L 1679.24,-18.1958 L 1678,-18 z
M 832.644,-18 L 831.539,-18.1557 L 830.764,-18.4695 L 830.071,-18.9376 L 829.49,-19.5395 L 829.048,-20.2489
 L 828.762,-21.0349 L 828.646,-21.8631 L 828.705,-22.6973 L 828.936,-23.5009 L 829.329,-24.239 L 829.867,-24.8792
 L 830.527,-25.3936 L 831.278,-25.7597 L 848.634,-32.0635 L 849.718,-32.2939 L 850.554,-32.2652 L 851.366,-32.0635
 L 868.722,-25.7597 L 869.707,-25.2361 L 870.329,-24.6765 L 870.82,-24 L 871.16,-23.2361 L 871.334,-22.4181
 L 871.334,-21.5819 L 871.16,-20.7639 L 870.82,-20 L 870.329,-19.3235 L 869.707,-18.7639 L 868.983,-18.3458
 L 868.188,-18.0874 L 867.356,-18 z
" stroke="black" fill="lightgray" stroke-width="0.5"/>
</svg>
