<?xml version="1.0" standalone="no"?>
<!DOCTYPE svg PUBLIC "-//W3C//DTD SVG 1.1//EN" "http://www.w3.org/Graphics/SVG/1.1/DTD/svg11.dtd">
<svg width="1408mm" height="80mm" viewBox="0 -80 1408 80" xmlns="http://www.w3.org/2000/svg" version="1.1">
<title>OpenSCAD Model</title>
<path d="
M 1408,-80 L 0,-80 L 0,-0 L 4.95,-0 L 4.95,-6 L 5.00572,-6.53017
 L 5.17046,-7.03717 L 5.437,-7.49884 L 5.79372,-7.895 L 6.22499,-8.20836 L 6.71201,-8.42519 L 7.23344,-8.53603
 L 7.76654,-8.53603 L 8.28798,-8.42519 L 8.77499,-8.20836 L 9.20627,-7.895 L 9.56299,-7.49884 L 9.82953,-7.03717
 L 9.99426,-6.53017 L 10.05,-6 L 10.05,-0 L 179.075,-0 L 179.075,-6 L 179.131,-6.53017
 L 179.295,-7.03717 L 179.562,-7.49884 L 179.919,-7.895 L 180.35,-8.20836 L 180.837,-8.42519 L 181.358,-8.53603
 L 181.892,-8.53603 L 182.413,-8.42519 L 182.9,-8.20836 L 183.331,-7.895 L 183.688,-7.49884 L 183.955,-7.03717
 L 184.119,-6.53017 L 184.175,-6 L 184.175,-0 L 353.2,-0 L 353.2,-6 L 353.256,-6.53017
 L 353.42,-7.03717 L 353.687,-7.49884 L 354.044,-7.895 L 354.475,-8.20836 L 354.962,-8.42519 L 355.483,-8.53603
 L 356.017,-8.53603 L 356.538,-8.42519 L 357.025,-8.20836 L 357.456,-7.895 L 357.813,-7.49884 L 358.08,-7.03717
 L 358.244,-6.53017 L 358.3,-6 L 358.3,-0 L 527.325,-0 L 527.325,-6 L 527.381,-6.53017
 L 527.545,-7.03717 L 527.812,-7.49884 L 528.169,-7.895 L 528.6,-8.20836 L 529.087,-8.42519 L 529.608,-8.53603
 L 530.142,-8.53603 L 530.663,-8.42519 L 531.15,-8.20836 L 531.581,-7.895 L 531.938,-7.49884 L 532.205,-7.03717
 L 532.369,-6.53017 L 532.425,-6 L 532.425,-0 L 701.45,-0 L 701.45,-6 L 701.506,-6.53017
 L 701.67,-7.03717 L 701.937,-7.49884 L 702.294,-7.895 L 702.725,-8.20836 L 703.212,-8.42519 L 703.733,-8.53603
 L 704.267,-8.53603 L 704.788,-8.42519 L 705.275,-8.20836 L 705.706,-7.895 L 706.063,-7.49884 L 706.33,-7.03717
 L 706.494,-6.53017 L 706.55,-6 L 706.55,-0 L 875.575,-0 L 875.575,-6 L 875.631,-6.53017
 L 875.795,-7.03717 L 876.062,-7.49884 L 876.419,-7.895 L 876.85,-8.20836 L 877.337,-8.42519 L 877.858,-8.53603
 L 878.392,-8.53603 L 878.913,-8.42519 L 879.4,-8.20836 L 879.831,-7.895 L 880.188,-7.49884 L 880.455,-7.03717
 L 880.619,-6.53017 L 880.675,-6 L 880.675,-0 L 1049.7,-0 L 1049.7,-6 L 1049.76,-6.53017
 L 1049.92,-7.03717 L 1050.19,-7.49884 L 1050.54,-7.895 L 1050.97,-8.20836 L 1051.46,-8.42519 L 1051.98,-8.53603
 L 1052.52,-8.53603 L 1053.04,-8.42519 L 1053.52,-8.20836 L 1053.96,-7.895 L 1054.31,-7.49884 L 1054.58,-7.03717
 L 1054.74,-6.53017 L 1054.8,-6 L 1054.8,-0 L 1223.82,-0 L 1223.82,-6 L 1223.88,-6.53017
 L 1224.05,-7.03717 L 1224.31,-7.49884 L 1224.67,-7.895 L 1225.1,-8.20836 L 1225.59,-8.42519 L 1226.11,-8.53603
 L 1226.64,-8.53603 L 1227.16,-8.42519 L 1227.65,-8.20836 L 1228.08,-7.895 L 1228.44,-7.49884 L 1228.7,-7.03717
 L 1228.87,-6.53017 L 1228.92,-6 L 1228.92,-0 L 1397.95,-0 L 1397.95,-6 L 1398.01,-6.53017
 L 1398.17,-7.03717 L 1398.44,-7.49884 L 1398.79,-7.895 L 1399.22,-8.20836 L 1399.71,-8.42519 L 1400.23,-8.53603
 L 1400.77,-8.53603 L 1401.29,-8.42519 L 1401.77,-8.20836 L 1402.21,-7.895 L 1402.56,-7.49884 L 1402.83,-7.03717
 L 1402.99,-6.53017 L 1403.05,-6 L 1403.05,-0 L 1408,-0 z
M 181.111,-55.607 L 180.602,-55.6875 L 180.105,-55.8208 L 179.624,-56.0054 L 179.165,-56.2392 L 178.733,-56.5196
 L 178.333,-56.8437 L 177.969,-57.2079 L 177.645,-57.6081 L 177.364,-58.04 L 177.13,-58.4989 L 176.946,-58.9796
 L 176.813,-59.4771 L 176.732,-59.9857 L 176.705,-60.5 L 176.732,-61.0143 L 176.813,-61.5229 L 176.946,-62.0204
 L 177.13,-62.5011 L 177.364,-62.96 L 177.645,-63.3919 L 177.969,-63.7921 L 178.333,-64.1563 L 178.733,-64.4804
 L 179.075,-64.7024 L 179.075,-74 L 179.131,-74.5302 L 179.295,-75.0372 L 179.562,-75.4988 L 179.919,-75.895
 L 180.35,-76.2084 L 180.837,-76.4252 L 181.358,-76.536 L 181.892,-76.536 L 182.413,-76.4252 L 182.9,-76.2084
 L 183.331,-75.895 L 183.688,-75.4988 L 183.955,-75.0372 L 184.119,-74.5302 L 184.175,-74 L 184.175,-64.7024
 L 184.517,-64.4804 L 184.917,-64.1563 L 185.281,-63.7921 L 185.605,-63.3919 L 185.886,-62.96 L 186.12,-62.5011
 L 186.304,-62.0204 L 186.437,-61.5229 L 186.518,-61.0143 L 186.545,-60.5 L 186.518,-59.9857 L 186.437,-59.4771
 L 186.304,-58.9796 L 186.12,-58.4989 L 185.886,-58.04 L 185.605,-57.6081 L 185.281,-57.2079 L 184.917,-56.8437
 L 184.517,-56.5196 L 184.085,-56.2392 L 183.626,-56.0054 L 183.145,-55.8208 L 182.648,-55.6875 L 182.139,-55.607
 L 181.625,-55.58 z
M 1051.74,-55.607 L 1051.23,-55.6875 L 1050.73,-55.8208 L 1050.25,-56.0054 L 1049.79,-56.2392 L 1049.36,-56.5196
 L 1048.96,-56.8437 L 1048.59,-57.2079 L 1048.27,-57.6081 L 1047.99,-58.04 L 1047.76,-58.4989 L 1047.57,-58.9796
 L 1047.44,-59.4771 L 1047.36,-59.9857 L 1047.33,-60.5 L 1047.36,-61.0143 L 1047.44,-61.5229 L 1047.57,-62.0204
 L 1047.76,-62.5011 L 1047.99,-62.96 L 1048.27,-63.3919 L 1048.59,-63.7921 L 1048.96,-64.1563 L 1049.36,-64.4804
 L 1049.7,-64.7024 L 1049.7,-74 L 1049.76,-74.5302 L 1049.92,-75.0372 L 1050.19,-75.4988 L 1050.54,-75.895
 L 1050.98,-76.2084 L 1051.46,-76.4252 L 1051.98,-76.536 L 1052.52,-76.536 L 1053.04,-76.4252 L 1053.52,-76.2084
 L 1053.96,-75.895 L 1054.31,-75.4988 L 1054.58,-75.0372 L 1054.74,-74.5302 L 1054.8,-74 L 1054.8,-64.7024
 L 1055.14,-64.4804 L 1055.54,-64.1563 L 1055.91,-63.7921 L 1056.23,-63.3919 L 1056.51,-62.96 L 1056.74,-62.5011
 L 1056.93,-62.0204 L 1057.06,-61.5229 L 1057.14,-61.0143 L 1057.17,-60.5 L 1057.14,-59.9857 L 1057.06,-59.4771
 L 1056.93,-58.9796 L 1056.74,-58.4989 L 1056.51,-58.04 L 1056.23,-57.6081 L 1055.91,-57.2079 L 1055.54,-56.8437
 L 1055.14,-56.5196 L 1054.71,-56.2392 L 1054.25,-56.0054 L 1053.77,-55.8208 L 1053.27,-55.6875 L 1052.76,-55.607
 L 1052.25,-55.58 z
M 877.611,-55.607 L 877.102,-55.6875 L 876.605,-55.8208 L 876.124,-56.0054 L 875.665,-56.2392 L 875.233,-56.5196
 L 874.833,-56.8437 L 874.469,-57.2079 L 874.145,-57.6081 L 873.864,-58.04 L 873.63,-58.4989 L 873.446,-58.9796
 L 873.313,-59.4771 L 873.232,-59.9857 L 873.205,-60.5 L 873.232,-61.0143 L 873.313,-61.5229 L 873.446,-62.0204
 L 873.63,-62.5011 L 873.864,-62.96 L 874.145,-63.3919 L 874.469,-63.7921 L 874.833,-64.1563 L 875.233,-64.4804
 L 875.575,-64.7024 L 875.575,-74 L 875.631,-74.5302 L 875.795,-75.0372 L 876.062,-75.4988 L 876.419,-75.895
 L 876.85,-76.2084 L 877.337,-76.4252 L 877.858,-76.536 L 878.392,-76.536 L 878.913,-76.4252 L 879.4,-76.2084
 L 879.831,-75.895 L 880.188,-75.4988 L 880.455,-75.0372 L 880.619,-74.5302 L 880.675,-74 L 880.675,-64.7024
 L 881.017,-64.4804 L 881.417,-64.1563 L 881.781,-63.7921 L 882.105,-63.3919 L 882.386,-62.96 L 882.62,-62.5011
 L 882.804,-62.0204 L 882.937,-61.5229 L 883.018,-61.0143 L 883.045,-60.5 L 883.018,-59.9857 L 882.937,-59.4771
 L 882.804,-58.9796 L 882.62,-58.4989 L 882.386,-58.04 L 882.105,-57.6081 L 881.781,-57.2079 L 881.417,-56.8437
 L 881.017,-56.5196 L 880.585,-56.2392 L 880.126,-56.0054 L 879.645,-55.8208 L 879.148,-55.6875 L 878.639,-55.607
 L 878.125,-55.58 z
M 6.98573,-55.607 L 6.47708,-55.6875 L 5.97964,-55.8208 L 5.49887,-56.0054 L 5.04001,-56.2392 L 4.60811,-56.5196
 L 4.20789,-56.8437 L 3.84373,-57.2079 L 3.51964,-57.6081 L 3.23917,-58.04 L 3.00537,-58.4989 L 2.82082,-58.9796
 L 2.68752,-59.4771 L 2.60696,-59.9857 L 2.58,-60.5 L 2.60696,-61.0143 L 2.68752,-61.5229 L 2.82082,-62.0204
 L 3.00537,-62.5011 L 3.23917,-62.96 L 3.51964,-63.3919 L 3.84373,-63.7921 L 4.20789,-64.1563 L 4.60811,-64.4804
 L 4.95001,-64.7024 L 4.95001,-74 L 5.00574,-74.5302 L 5.17047,-75.0372 L 5.43701,-75.4988 L 5.79373,-75.895
 L 6.22501,-76.2084 L 6.71202,-76.4252 L 7.23346,-76.536 L 7.76654,-76.536 L 8.28798,-76.4252 L 8.77499,-76.2084
 L 9.20627,-75.895 L 9.56299,-75.4988 L 9.82953,-75.0372 L 9.99426,-74.5302 L 10.05,-74 L 10.05,-64.7024
 L 10.3919,-64.4804 L 10.7921,-64.1563 L 11.1563,-63.7921 L 11.4804,-63.3919 L 11.7608,-62.96 L 11.9946,-62.5011
 L 12.1792,-62.0204 L 12.3125,-61.5229 L 12.393,-61.0143 L 12.42,-60.5 L 12.393,-59.9857 L 12.3125,-59.4771
 L 12.1792,-58.9796 L 11.9946,-58.4989 L 11.7608,-58.04 L 11.4804,-57.6081 L 11.1563,-57.2079 L 10.7921,-56.8437
 L 10.3919,-56.5196 L 9.95999,-56.2392 L 9.50113,-56.0054 L 9.02036,-55.8208 L 8.52292,-55.6875 L 8.01427,-55.607
 L 7.5,-55.58 z
M 703.486,-55.607 L 702.977,-55.6875 L 702.48,-55.8208 L 701.999,-56.0054 L 701.54,-56.2392 L 701.108,-56.5196
 L 700.708,-56.8437 L 700.344,-57.2079 L 700.02,-57.6081 L 699.739,-58.04 L 699.505,-58.4989 L 699.321,-58.9796
 L 699.188,-59.4771 L 699.107,-59.9857 L 699.08,-60.5 L 699.107,-61.0143 L 699.188,-61.5229 L 699.321,-62.0204
 L 699.505,-62.5011 L 699.739,-62.96 L 700.02,-63.3919 L 700.344,-63.7921 L 700.708,-64.1563 L 701.108,-64.4804
 L 701.45,-64.7024 L 701.45,-74 L 701.506,-74.5302 L 701.67,-75.0372 L 701.937,-75.4988 L 702.294,-75.895
 L 702.725,-76.2084 L 703.212,-76.4252 L 703.733,-76.536 L 704.267,-76.536 L 704.788,-76.4252 L 705.275,-76.2084
 L 705.706,-75.895 L 706.063,-75.4988 L 706.33,-75.0372 L 706.494,-74.5302 L 706.55,-74 L 706.55,-64.7024
 L 706.892,-64.4804 L 707.292,-64.1563 L 707.656,-63.7921 L 707.98,-63.3919 L 708.261,-62.96 L 708.495,-62.5011
 L 708.679,-62.0204 L 708.812,-61.5229 L 708.893,-61.0143 L 708.92,-60.5 L 708.893,-59.9857 L 708.812,-59.4771
 L 708.679,-58.9796 L 708.495,-58.4989 L 708.261,-58.04 L 707.98,-57.6081 L 707.656,-57.2079 L 707.292,-56.8437
 L 706.892,-56.5196 L 706.46,-56.2392 L 706.001,-56.0054 L 705.52,-55.8208 L 705.023,-55.6875 L 704.514,-55.607
 L 704,-55.58 z
M 1225.86,-55.607 L 1225.35,-55.6875 L 1224.85,-55.8208 L 1224.37,-56.0054 L 1223.92,-56.2392 L 1223.48,-56.5196
 L 1223.08,-56.8437 L 1222.72,-57.2079 L 1222.39,-57.6081 L 1222.11,-58.04 L 1221.88,-58.4989 L 1221.7,-58.9796
 L 1221.56,-59.4771 L 1221.48,-59.9857 L 1221.46,-60.5 L 1221.48,-61.0143 L 1221.56,-61.5229 L 1221.7,-62.0204
 L 1221.88,-62.5011 L 1222.11,-62.96 L 1222.39,-63.3919 L 1222.72,-63.7921 L 1223.08,-64.1563 L 1223.48,-64.4804
 L 1223.83,-64.7024 L 1223.83,-74 L 1223.88,-74.5302 L 1224.05,-75.0372 L 1224.31,-75.4988 L 1224.67,-75.895
 L 1225.1,-76.2084 L 1225.59,-76.4252 L 1226.11,-76.536 L 1226.64,-76.536 L 1227.16,-76.4252 L 1227.65,-76.2084
 L 1228.08,-75.895 L 1228.44,-75.4988 L 1228.7,-75.0372 L 1228.87,-74.5302 L 1228.92,-74 L 1228.92,-64.7024
 L 1229.27,-64.4804 L 1229.67,-64.1563 L 1230.03,-63.7921 L 1230.36,-63.3919 L 1230.64,-62.96 L 1230.87,-62.5011
 L 1231.05,-62.0204 L 1231.19,-61.5229 L 1231.27,-61.0143 L 1231.29,-60.5 L 1231.27,-59.9857 L 1231.19,-59.4771
 L 1231.05,-58.9796 L 1230.87,-58.4989 L 1230.64,-58.04 L 1230.36,-57.6081 L 1230.03,-57.2079 L 1229.67,-56.8437
 L 1229.27,-56.5196 L 1228.83,-56.2392 L 1228.38,-56.0054 L 1227.9,-55.8208 L 1227.4,-55.6875 L 1226.89,-55.607
 L 1226.38,-55.58 z
M 529.361,-55.607 L 528.852,-55.6875 L 528.355,-55.8208 L 527.874,-56.0054 L 527.415,-56.2392 L 526.983,-56.5196
 L 526.583,-56.8437 L 526.219,-57.2079 L 525.895,-57.6081 L 525.614,-58.04 L 525.38,-58.4989 L 525.196,-58.9796
 L 525.063,-59.4771 L 524.982,-59.9857 L 524.955,-60.5 L 524.982,-61.0143 L 525.063,-61.5229 L 525.196,-62.0204
 L 525.38,-62.5011 L 525.614,-62.96 L 525.895,-63.3919 L 526.219,-63.7921 L 526.583,-64.1563 L 526.983,-64.4804
 L 527.325,-64.7024 L 527.325,-74 L 527.381,-74.5302 L 527.545,-75.0372 L 527.812,-75.4988 L 528.169,-75.895
 L 528.6,-76.2084 L 529.087,-76.4252 L 529.608,-76.536 L 530.142,-76.536 L 530.663,-76.4252 L 531.15,-76.2084
 L 531.581,-75.895 L 531.938,-75.4988 L 532.205,-75.0372 L 532.369,-74.5302 L 532.425,-74 L 532.425,-64.7024
 L 532.767,-64.4804 L 533.167,-64.1563 L 533.531,-63.7921 L 533.855,-63.3919 L 534.136,-62.96 L 534.37,-62.5011
 L 534.554,-62.0204 L 534.687,-61.5229 L 534.768,-61.0143 L 534.795,-60.5 L 534.768,-59.9857 L 534.687,-59.4771
 L 534.554,-58.9796 L 534.37,-58.4989 L 534.136,-58.04 L 533.855,-57.6081 L 533.531,-57.2079 L 533.167,-56.8437
 L 532.767,-56.5196 L 532.335,-56.2392 L 531.876,-56.0054 L 531.395,-55.8208 L 530.898,-55.6875 L 530.389,-55.607
 L 529.875,-55.58 z
M 355.236,-55.607 L 354.727,-55.6875 L 354.23,-55.8208 L 353.749,-56.0054 L 353.29,-56.2392 L 352.858,-56.5196
 L 352.458,-56.8437 L 352.094,-57.2079 L 351.77,-57.6081 L 351.489,-58.04 L 351.255,-58.4989 L 351.071,-58.9796
 L 350.938,-59.4771 L 350.857,-59.9857 L 350.83,-60.5 L 350.857,-61.0143 L 350.938,-61.5229 L 351.071,-62.0204
 L 351.255,-62.5011 L 351.489,-62.96 L 351.77,-63.3919 L 352.094,-63.7921 L 352.458,-64.1563 L 352.858,-64.4804
 L 353.2,-64.7024 L 353.2,-74 L 353.256,-74.5302 L 353.42,-75.0372 L 353.687,-75.4988 L 354.044,-75.895
 L 354.475,-76.2084 L 354.962,-76.4252 L 355.483,-76.536 L 356.017,-76.536 L 356.538,-76.4252 L 357.025,-76.2084
 L 357.456,-75.895 L 357.813,-75.4988 L 358.08,-75.0372 L 358.244,-74.5302 L 358.3,-74 L 358.3,-64.7024
 L 358.642,-64.4804 L 359.042,-64.1563 L 359.406,-63.7921 L 359.73,-63.3919 L 360.011,-62.96 L 360.245,-62.5011
 L 360.429,-62.0204 L 360.562,-61.5229 L 360.643,-61.0143 L 360.67,-60.5 L 360.643,-59.9857 L 360.562,-59.4771
 L 360.429,-58.9796 L 360.245,-58.4989 L 360.011,-58.04 L 359.73,-57.6081 L 359.406,-57.2079 L 359.042,-56.8437
 L 358.642,-56.5196 L 358.21,-56.2392 L 357.751,-56.0054 L 357.27,-55.8208 L 356.773,-55.6875 L 356.264,-55.607
 L 355.75,-55.58 z
M 1399.99,-55.607 L 1399.48,-55.6875 L 1398.98,-55.8208 L 1398.5,-56.0054 L 1398.04,-56.2392 L 1397.61,-56.5196
 L 1397.21,-56.8437 L 1396.84,-57.2079 L 1396.52,-57.6081 L 1396.24,-58.04 L 1396.01,-58.4989 L 1395.82,-58.9796
 L 1395.69,-59.4771 L 1395.61,-59.9857 L 1395.58,-60.5 L 1395.61,-61.0143 L 1395.69,-61.5229 L 1395.82,-62.0204
 L 1396.01,-62.5011 L 1396.24,-62.96 L 1396.52,-63.3919 L 1396.84,-63.7921 L 1397.21,-64.1563 L 1397.61,-64.4804
 L 1397.95,-64.7024 L 1397.95,-74 L 1398.01,-74.5302 L 1398.17,-75.0372 L 1398.44,-75.4988 L 1398.79,-75.895
 L 1399.23,-76.2084 L 1399.71,-76.4252 L 1400.23,-76.536 L 1400.77,-76.536 L 1401.29,-76.4252 L 1401.77,-76.2084
 L 1402.21,-75.895 L 1402.56,-75.4988 L 1402.83,-75.0372 L 1402.99,-74.5302 L 1403.05,-74 L 1403.05,-64.7024
 L 1403.39,-64.4804 L 1403.79,-64.1563 L 1404.16,-63.7921 L 1404.48,-63.3919 L 1404.76,-62.96 L 1404.99,-62.5011
 L 1405.18,-62.0204 L 1405.31,-61.5229 L 1405.39,-61.0143 L 1405.42,-60.5 L 1405.39,-59.9857 L 1405.31,-59.4771
 L 1405.18,-58.9796 L 1404.99,-58.4989 L 1404.76,-58.04 L 1404.48,-57.6081 L 1404.16,-57.2079 L 1403.79,-56.8437
 L 1403.39,-56.5196 L 1402.96,-56.2392 L 1402.5,-56.0054 L 1402.02,-55.8208 L 1401.52,-55.6875 L 1401.01,-55.607
 L 1400.5,-55.58 z
M 342.101,-21.0708 L 341.295,-21.2919 L 256.839,-54.274 L 255.943,-54.7639 L 255.321,-55.3235 L 254.83,-56
 L 254.49,-56.7639 L 254.316,-57.5819 L 254.316,-58.4181 L 254.49,-59.2361 L 254.83,-60 L 255.321,-60.6765
 L 255.943,-61.2361 L 256.667,-61.6542 L 257.462,-61.9126 L 258.294,-62 L 342.75,-62 L 343.986,-61.8042
 L 344.75,-61.4641 L 345.427,-60.9726 L 345.986,-60.3511 L 346.404,-59.627 L 346.663,-58.8316 L 346.75,-58
 L 346.75,-25.0178 L 346.608,-23.9602 L 346.303,-23.1812 L 345.844,-22.4826 L 345.249,-21.8947 L 344.545,-21.4433
 L 343.763,-21.1482 L 342.936,-21.0222 z
M 516.226,-21.0708 L 515.42,-21.2919 L 430.964,-54.274 L 430.068,-54.7639 L 429.446,-55.3235 L 428.955,-56
 L 428.615,-56.7639 L 428.441,-57.5819 L 428.441,-58.4181 L 428.615,-59.2361 L 428.955,-60 L 429.446,-60.6765
 L 430.068,-61.2361 L 430.792,-61.6542 L 431.587,-61.9126 L 432.419,-62 L 516.875,-62 L 518.111,-61.8042
 L 518.875,-61.4641 L 519.552,-60.9726 L 520.111,-60.3511 L 520.529,-59.627 L 520.788,-58.8316 L 520.875,-58
 L 520.875,-25.0178 L 520.733,-23.9602 L 520.428,-23.1812 L 519.969,-22.4826 L 519.374,-21.8947 L 518.67,-21.4433
 L 517.888,-21.1482 L 517.061,-21.0222 z
M 1238.36,-21.1482 L 1237.58,-21.4433 L 1236.88,-21.8947 L 1236.28,-22.4826 L 1235.82,-23.1812 L 1235.52,-23.9602
 L 1235.38,-25.0178 L 1235.38,-58 L 1235.46,-58.8316 L 1235.72,-59.627 L 1236.14,-60.3511 L 1236.7,-60.9726
 L 1237.38,-61.4641 L 1238.14,-61.8042 L 1239.38,-62 L 1323.83,-62 L 1324.66,-61.9126 L 1325.46,-61.6542
 L 1326.18,-61.2361 L 1326.8,-60.6765 L 1327.3,-60 L 1327.64,-59.2361 L 1327.81,-58.4181 L 1327.81,-57.5819
 L 1327.64,-56.7639 L 1327.3,-56 L 1326.8,-55.3235 L 1326.18,-54.7639 L 1325.29,-54.274 L 1240.83,-21.2919
 L 1240.02,-21.0708 L 1239.19,-21.0222 z
M 690.351,-21.0708 L 689.545,-21.2919 L 605.089,-54.274 L 604.193,-54.7639 L 603.571,-55.3235 L 603.08,-56
 L 602.74,-56.7639 L 602.566,-57.5819 L 602.566,-58.4181 L 602.74,-59.2361 L 603.08,-60 L 603.571,-60.6765
 L 604.193,-61.2361 L 604.917,-61.6542 L 605.712,-61.9126 L 606.544,-62 L 691,-62 L 692.236,-61.8042
 L 693,-61.4641 L 693.677,-60.9726 L 694.236,-60.3511 L 694.654,-59.627 L 694.913,-58.8316 L 695,-58
 L 695,-25.0178 L 694.858,-23.9602 L 694.553,-23.1812 L 694.094,-22.4826 L 693.499,-21.8947 L 692.795,-21.4433
 L 692.013,-21.1482 L 691.186,-21.0222 z
M 167.976,-21.0708 L 167.17,-21.2919 L 82.7137,-54.274 L 81.8177,-54.7639 L 81.1962,-55.3235 L 80.7047,-56
 L 80.3646,-56.7639 L 80.1907,-57.5819 L 80.1907,-58.4181 L 80.3646,-59.2361 L 80.7047,-60 L 81.1962,-60.6765
 L 81.8177,-61.2361 L 82.5418,-61.6542 L 83.3371,-61.9126 L 84.1688,-62 L 168.625,-62 L 169.861,-61.8042
 L 170.625,-61.4641 L 171.302,-60.9726 L 171.861,-60.3511 L 172.279,-59.627 L 172.538,-58.8316 L 172.625,-58
 L 172.625,-25.0178 L 172.483,-23.9602 L 172.178,-23.1812 L 171.719,-22.4826 L 171.124,-21.8947 L 170.42,-21.4433
 L 169.638,-21.1482 L 168.811,-21.0222 z
M 715.987,-21.1482 L 715.205,-21.4433 L 714.501,-21.8947 L 713.906,-22.4826 L 713.447,-23.1812 L 713.142,-23.9602
 L 713,-25.0178 L 713,-58 L 713.087,-58.8316 L 713.346,-59.627 L 713.764,-60.3511 L 714.323,-60.9726
 L 715,-61.4641 L 715.764,-61.8042 L 717,-62 L 801.456,-62 L 802.288,-61.9126 L 803.083,-61.6542
 L 803.807,-61.2361 L 804.429,-60.6765 L 804.92,-60 L 805.26,-59.2361 L 805.434,-58.4181 L 805.434,-57.5819
 L 805.26,-56.7639 L 804.92,-56 L 804.429,-55.3235 L 803.807,-54.7639 L 802.911,-54.274 L 718.455,-21.2919
 L 717.649,-21.0708 L 716.814,-21.0222 z
M 890.112,-21.1482 L 889.33,-21.4433 L 888.626,-21.8947 L 888.031,-22.4826 L 887.572,-23.1812 L 887.267,-23.9602
 L 887.125,-25.0178 L 887.125,-58 L 887.212,-58.8316 L 887.471,-59.627 L 887.889,-60.3511 L 888.448,-60.9726
 L 889.125,-61.4641 L 889.889,-61.8042 L 891.125,-62 L 975.581,-62 L 976.413,-61.9126 L 977.208,-61.6542
 L 977.932,-61.2361 L 978.554,-60.6765 L 979.045,-60 L 979.385,-59.2361 L 979.559,-58.4181 L 979.559,-57.5819
 L 979.385,-56.7639 L 979.045,-56 L 978.554,-55.3235 L 977.932,-54.7639 L 977.036,-54.274 L 892.58,-21.2919
 L 891.774,-21.0708 L 890.939,-21.0222 z
M 1064.24,-21.1482 L 1063.45,-21.4433 L 1062.75,-21.8947 L 1062.16,-22.4826 L 1061.7,-23.1812 L 1061.39,-23.9602
 L 1061.25,-25.0178 L 1061.25,-58 L 1061.34,-58.8316 L 1061.6,-59.627 L 1062.01,-60.3511 L 1062.57,-60.9726
 L 1063.25,-61.4641 L 1064.01,-61.8042 L 1065.25,-62 L 1149.71,-62 L 1150.54,-61.9126 L 1151.33,-61.6542
 L 1152.06,-61.2361 L 1152.68,-60.6765 L 1153.17,-60 L 1153.51,-59.2361 L 1153.68,-58.4181 L 1153.68,-57.5819
 L 1153.51,-56.7639 L 1153.17,-56 L 1152.68,-55.3235 L 1152.06,-54.7639 L 1151.16,-54.274 L 1066.71,-21.2919
 L 1065.9,-21.0708 L 1065.06,-21.0222 z
M 194.625,-18 L 193.389,-18.1958 L 192.625,-18.5359 L 191.948,-19.0274 L 191.389,-19.6489 L 190.971,-20.373
 L 190.712,-21.1684 L 190.625,-22 L 190.625,-54.9822 L 190.767,-56.0398 L 191.072,-56.8187 L 191.531,-57.5174
 L 192.126,-58.1053 L 192.83,-58.5566 L 193.612,-58.8518 L 194.439,-58.9778 L 195.274,-58.9292 L 196.08,-58.7081
 L 280.536,-25.726 L 281.432,-25.2361 L 282.054,-24.6765 L 282.545,-24 L 282.885,-23.2361 L 283.059,-22.4181
 L 283.059,-21.5819 L 282.885,-20.7639 L 282.545,-20 L 282.054,-19.3235 L 281.432,-18.7639 L 280.708,-18.3458
 L 279.913,-18.0874 L 279.081,-18 z
M 368.75,-18 L 367.514,-18.1958 L 366.75,-18.5359 L 366.073,-19.0274 L 365.514,-19.6489 L 365.096,-20.373
 L 364.837,-21.1684 L 364.75,-22 L 364.75,-54.9822 L 364.892,-56.0398 L 365.197,-56.8187 L 365.656,-57.5174
 L 366.251,-58.1053 L 366.955,-58.5566 L 367.737,-58.8518 L 368.564,-58.9778 L 369.399,-58.9292 L 370.205,-58.7081
 L 454.661,-25.726 L 455.557,-25.2361 L 456.179,-24.6765 L 456.67,-24 L 457.01,-23.2361 L 457.184,-22.4181
 L 457.184,-21.5819 L 457.01,-20.7639 L 456.67,-20 L 456.179,-19.3235 L 455.557,-18.7639 L 454.833,-18.3458
 L 454.038,-18.0874 L 453.206,-18 z
M 542.875,-18 L 541.639,-18.1958 L 540.875,-18.5359 L 540.198,-19.0274 L 539.639,-19.6489 L 539.221,-20.373
 L 538.962,-21.1684 L 538.875,-22 L 538.875,-54.9822 L 539.017,-56.0398 L 539.322,-56.8187 L 539.781,-57.5174
 L 540.376,-58.1053 L 541.08,-58.5566 L 541.862,-58.8518 L 542.689,-58.9778 L 543.524,-58.9292 L 544.33,-58.7081
 L 628.786,-25.726 L 629.682,-25.2361 L 630.304,-24.6765 L 630.795,-24 L 631.135,-23.2361 L 631.309,-22.4181
 L 631.309,-21.5819 L 631.135,-20.7639 L 630.795,-20 L 630.304,-19.3235 L 629.682,-18.7639 L 628.958,-18.3458
 L 628.163,-18.0874 L 627.331,-18 z
M 780.669,-18 L 779.837,-18.0874 L 779.042,-18.3458 L 778.318,-18.7639 L 777.696,-19.3235 L 777.205,-20
 L 776.865,-20.7639 L 776.691,-21.5819 L 776.691,-22.4181 L 776.865,-23.2361 L 777.205,-24 L 777.696,-24.6765
 L 778.318,-25.2361 L 779.214,-25.726 L 863.67,-58.7081 L 864.476,-58.9292 L 865.311,-58.9778 L 866.138,-58.8518
 L 866.92,-58.5566 L 867.624,-58.1053 L 868.219,-57.5174 L 868.678,-56.8187 L 868.983,-56.0398 L 869.125,-54.9822
 L 869.125,-22 L 869.038,-21.1684 L 868.779,-20.373 L 868.361,-19.6489 L 867.802,-19.0274 L 867.125,-18.5359
 L 866.361,-18.1958 L 865.125,-18 z
M 954.794,-18 L 953.962,-18.0874 L 953.167,-18.3458 L 952.443,-18.7639 L 951.821,-19.3235 L 951.33,-20
 L 950.99,-20.7639 L 950.816,-21.5819 L 950.816,-22.4181 L 950.99,-23.2361 L 951.33,-24 L 951.821,-24.6765
 L 952.443,-25.2361 L 953.339,-25.726 L 1037.79,-58.7081 L 1038.6,-58.9292 L 1039.44,-58.9778 L 1040.26,-58.8518
 L 1041.05,-58.5566 L 1041.75,-58.1053 L 1042.34,-57.5174 L 1042.8,-56.8187 L 1043.11,-56.0398 L 1043.25,-54.9822
 L 1043.25,-22 L 1043.16,-21.1684 L 1042.9,-20.373 L 1042.49,-19.6489 L 1041.93,-19.0274 L 1041.25,-18.5359
 L 1040.49,-18.1958 L 1039.25,-18 z
M 1128.92,-18 L 1128.09,-18.0874 L 1127.29,-18.3458 L 1126.57,-18.7639 L 1125.95,-19.3235 L 1125.45,-20
 L 1125.11,-20.7639 L 1124.94,-21.5819 L 1124.94,-22.4181 L 1125.11,-23.2361 L 1125.45,-24 L 1125.95,-24.6765
 L 1126.57,-25.2361 L 1127.46,-25.726 L 1211.92,-58.7081 L 1212.73,-58.9292 L 1213.56,-58.9778 L 1214.39,-58.8518
 L 1215.17,-58.5566 L 1215.87,-58.1053 L 1216.47,-57.5174 L 1216.93,-56.8187 L 1217.23,-56.0398 L 1217.38,-54.9822
 L 1217.38,-22 L 1217.29,-21.1684 L 1217.03,-20.373 L 1216.61,-19.6489 L 1216.05,-19.0274 L 1215.38,-18.5359
 L 1214.61,-18.1958 L 1213.38,-18 z
M 1303.04,-18 L 1302.21,-18.0874 L 1301.42,-18.3458 L 1300.69,-18.7639 L 1300.07,-19.3235 L 1299.58,-20
 L 1299.24,-20.7639 L 1299.07,-21.5819 L 1299.07,-22.4181 L 1299.24,-23.2361 L 1299.58,-24 L 1300.07,-24.6765
 L 1300.69,-25.2361 L 1301.59,-25.726 L 1384.54,-58.1223 L 1385.35,-58.3434 L 1386.19,-58.392 L 1387.01,-58.266
 L 1387.8,-57.9709 L 1388.5,-57.5195 L 1389.09,-56.9316 L 1389.55,-56.233 L 1389.86,-55.454 L 1390,-54.3964
 L 1390,-22 L 1389.91,-21.1684 L 1389.65,-20.373 L 1389.24,-19.6489 L 1388.68,-19.0274 L 1388,-18.5359
 L 1387.24,-18.1958 L 1386,-18 z
M 22,-18 L 20.7639,-18.1958 L 20,-18.5359 L 19.3235,-19.0274 L 18.7639,-19.6489 L 18.3458,-20.373
 L 18.0874,-21.1684 L 18,-22 L 18,-54.3964 L 18.1424,-55.454 L 18.4465,-56.233 L 18.9061,-56.9316
 L 19.5008,-57.5195 L 20.2047,-57.9709 L 20.9871,-58.266 L 21.8138,-58.392 L 22.6486,-58.3434 L 23.4551,-58.1223
 L 106.411,-25.726 L 107.307,-25.2361 L 107.929,-24.6765 L 108.42,-24 L 108.76,-23.2361 L 108.934,-22.4181
 L 108.934,-21.5819 L 108.76,-20.7639 L 108.42,-20 L 107.929,-19.3235 L 107.307,-18.7639 L 106.583,-18.3458
 L 105.788,-18.0874 L 104.956,-18 z
" stroke="black" fill="lightgray" stroke-width="0.5"/>
</svg>
