<?xml version="1.0" standalone="no"?>
<!DOCTYPE svg PUBLIC "-//W3C//DTD SVG 1.1//EN" "http://www.w3.org/Graphics/SVG/1.1/DTD/svg11.dtd">
<svg width="1327mm" height="80mm" viewBox="0 -80 1327 80" xmlns="http://www.w3.org/2000/svg" version="1.1">
<title>OpenSCAD Model</title>
<path d="
M 1327,-80 L 0,-80 L 0,-0 L 4.95,-0 L 4.95,-6 L 5.00572,-6.53017
 L 5.17046,-7.03717 L 5.437,-7.49884 L 5.79372,-7.895 L 6.22499,-8.20836 L 6.71201,-8.42519 L 7.23344,-8.53603
 L 7.76654,-8.53603 L 8.28798,-8.42519 L 8.77499,-8.20836 L 9.20627,-7.895 L 9.56299,-7.49884 L 9.82953,-7.03717
 L 9.99426,-6.53017 L 10.05,-6 L 10.05,-0 L 192.379,-0 L 192.379,-6 L 192.434,-6.53017
 L 192.599,-7.03717 L 192.866,-7.49884 L 193.222,-7.895 L 193.654,-8.20836 L 194.141,-8.42519 L 194.662,-8.53603
 L 195.195,-8.53603 L 195.717,-8.42519 L 196.204,-8.20836 L 196.635,-7.895 L 196.992,-7.49884 L 197.258,-7.03717
 L 197.423,-6.53017 L 197.479,-6 L 197.479,-0 L 379.807,-0 L 379.807,-6 L 379.863,-6.53017
 L 380.028,-7.03717 L 380.294,-7.49884 L 380.651,-7.895 L 381.082,-8.20836 L 381.569,-8.42519 L 382.091,-8.53603
 L 382.624,-8.53603 L 383.145,-8.42519 L 383.632,-8.20836 L 384.063,-7.895 L 384.42,-7.49884 L 384.687,-7.03717
 L 384.851,-6.53017 L 384.907,-6 L 384.907,-0 L 567.236,-0 L 567.236,-6 L 567.291,-6.53017
 L 567.456,-7.03717 L 567.723,-7.49884 L 568.079,-7.895 L 568.511,-8.20836 L 568.998,-8.42519 L 569.519,-8.53603
 L 570.052,-8.53603 L 570.574,-8.42519 L 571.061,-8.20836 L 571.492,-7.895 L 571.849,-7.49884 L 572.115,-7.03717
 L 572.28,-6.53017 L 572.336,-6 L 572.336,-0 L 754.664,-0 L 754.664,-6 L 754.72,-6.53017
 L 754.885,-7.03717 L 755.151,-7.49884 L 755.508,-7.895 L 755.939,-8.20836 L 756.426,-8.42519 L 756.948,-8.53603
 L 757.481,-8.53603 L 758.002,-8.42519 L 758.489,-8.20836 L 758.921,-7.895 L 759.277,-7.49884 L 759.544,-7.03717
 L 759.709,-6.53017 L 759.764,-6 L 759.764,-0 L 942.093,-0 L 942.093,-6 L 942.149,-6.53017
 L 942.313,-7.03717 L 942.58,-7.49884 L 942.937,-7.895 L 943.368,-8.20836 L 943.855,-8.42519 L 944.376,-8.53603
 L 944.909,-8.53603 L 945.431,-8.42519 L 945.918,-8.20836 L 946.349,-7.895 L 946.706,-7.49884 L 946.972,-7.03717
 L 947.137,-6.53017 L 947.193,-6 L 947.193,-0 L 1129.52,-0 L 1129.52,-6 L 1129.58,-6.53017
 L 1129.74,-7.03717 L 1130.01,-7.49884 L 1130.37,-7.895 L 1130.8,-8.20836 L 1131.28,-8.42519 L 1131.8,-8.53603
 L 1132.34,-8.53603 L 1132.86,-8.42519 L 1133.35,-8.20836 L 1133.78,-7.895 L 1134.13,-7.49884 L 1134.4,-7.03717
 L 1134.57,-6.53017 L 1134.62,-6 L 1134.62,-0 L 1316.95,-0 L 1316.95,-6 L 1317.01,-6.53017
 L 1317.17,-7.03717 L 1317.44,-7.49884 L 1317.79,-7.895 L 1318.22,-8.20836 L 1318.71,-8.42519 L 1319.23,-8.53603
 L 1319.77,-8.53603 L 1320.29,-8.42519 L 1320.77,-8.20836 L 1321.21,-7.895 L 1321.56,-7.49884 L 1321.83,-7.03717
 L 1321.99,-6.53017 L 1322.05,-6 L 1322.05,-0 L 1327,-0 z
M 6.98573,-55.607 L 6.47708,-55.6875 L 5.97964,-55.8208 L 5.49887,-56.0054 L 5.04001,-56.2392 L 4.60811,-56.5196
 L 4.20789,-56.8437 L 3.84373,-57.2079 L 3.51964,-57.6081 L 3.23917,-58.04 L 3.00537,-58.4989 L 2.82082,-58.9796
 L 2.68752,-59.4771 L 2.60696,-59.9857 L 2.58,-60.5 L 2.60696,-61.0143 L 2.68752,-61.5229 L 2.82082,-62.0204
 L 3.00537,-62.5011 L 3.23917,-62.96 L 3.51964,-63.3919 L 3.84373,-63.7921 L 4.20789,-64.1563 L 4.60811,-64.4804
 L 4.95001,-64.7024 L 4.95001,-74 L 5.00574,-74.5302 L 5.17047,-75.0372 L 5.43701,-75.4988 L 5.79373,-75.895
 L 6.22501,-76.2084 L 6.71202,-76.4252 L 7.23346,-76.536 L 7.76654,-76.536 L 8.28798,-76.4252 L 8.77499,-76.2084
 L 9.20627,-75.895 L 9.56299,-75.4988 L 9.82953,-75.0372 L 9.99426,-74.5302 L 10.05,-74 L 10.05,-64.7024
 L 10.3919,-64.4804 L 10.7921,-64.1563 L 11.1563,-63.7921 L 11.4804,-63.3919 L 11.7608,-62.96 L 11.9946,-62.5011
 L 12.1792,-62.0204 L 12.3125,-61.5229 L 12.393,-61.0143 L 12.42,-60.5 L 12.393,-59.9857 L 12.3125,-59.4771
 L 12.1792,-58.9796 L 11.9946,-58.4989 L 11.7608,-58.04 L 11.4804,-57.6081 L 11.1563,-57.2079 L 10.7921,-56.8437
 L 10.3919,-56.5196 L 9.95999,-56.2392 L 9.50113,-56.0054 L 9.02036,-55.8208 L 8.52292,-55.6875 L 8.01427,-55.607
 L 7.5,-55.58 z
M 194.414,-55.607 L 193.906,-55.6875 L 193.408,-55.8208 L 192.927,-56.0054 L 192.469,-56.2392 L 192.037,-56.5196
 L 191.636,-56.8437 L 191.272,-57.2079 L 190.948,-57.6081 L 190.668,-58.04 L 190.434,-58.4989 L 190.249,-58.9796
 L 190.116,-59.4771 L 190.036,-59.9857 L 190.009,-60.5 L 190.036,-61.0143 L 190.116,-61.5229 L 190.249,-62.0204
 L 190.434,-62.5011 L 190.668,-62.96 L 190.948,-63.3919 L 191.272,-63.7921 L 191.636,-64.1563 L 192.037,-64.4804
 L 192.379,-64.7024 L 192.379,-74 L 192.434,-74.5302 L 192.599,-75.0372 L 192.866,-75.4988 L 193.222,-75.895
 L 193.654,-76.2084 L 194.141,-76.4252 L 194.662,-76.536 L 195.195,-76.536 L 195.717,-76.4252 L 196.204,-76.2084
 L 196.635,-75.895 L 196.992,-75.4988 L 197.258,-75.0372 L 197.423,-74.5302 L 197.479,-74 L 197.479,-64.7024
 L 197.82,-64.4804 L 198.221,-64.1563 L 198.585,-63.7921 L 198.909,-63.3919 L 199.189,-62.96 L 199.423,-62.5011
 L 199.608,-62.0204 L 199.741,-61.5229 L 199.822,-61.0143 L 199.849,-60.5 L 199.822,-59.9857 L 199.741,-59.4771
 L 199.608,-58.9796 L 199.423,-58.4989 L 199.189,-58.04 L 198.909,-57.6081 L 198.585,-57.2079 L 198.221,-56.8437
 L 197.82,-56.5196 L 197.389,-56.2392 L 196.93,-56.0054 L 196.449,-55.8208 L 195.951,-55.6875 L 195.443,-55.607
 L 194.929,-55.58 z
M 381.843,-55.607 L 381.334,-55.6875 L 380.837,-55.8208 L 380.356,-56.0054 L 379.897,-56.2392 L 379.465,-56.5196
 L 379.065,-56.8437 L 378.701,-57.2079 L 378.377,-57.6081 L 378.096,-58.04 L 377.863,-58.4989 L 377.678,-58.9796
 L 377.545,-59.4771 L 377.464,-59.9857 L 377.437,-60.5 L 377.464,-61.0143 L 377.545,-61.5229 L 377.678,-62.0204
 L 377.863,-62.5011 L 378.096,-62.96 L 378.377,-63.3919 L 378.701,-63.7921 L 379.065,-64.1563 L 379.465,-64.4804
 L 379.807,-64.7024 L 379.807,-74 L 379.863,-74.5302 L 380.028,-75.0372 L 380.294,-75.4988 L 380.651,-75.895
 L 381.082,-76.2084 L 381.569,-76.4252 L 382.091,-76.536 L 382.624,-76.536 L 383.145,-76.4252 L 383.632,-76.2084
 L 384.063,-75.895 L 384.42,-75.4988 L 384.687,-75.0372 L 384.851,-74.5302 L 384.907,-74 L 384.907,-64.7024
 L 385.249,-64.4804 L 385.649,-64.1563 L 386.013,-63.7921 L 386.337,-63.3919 L 386.618,-62.96 L 386.852,-62.5011
 L 387.036,-62.0204 L 387.17,-61.5229 L 387.25,-61.0143 L 387.277,-60.5 L 387.25,-59.9857 L 387.17,-59.4771
 L 387.036,-58.9796 L 386.852,-58.4989 L 386.618,-58.04 L 386.337,-57.6081 L 386.013,-57.2079 L 385.649,-56.8437
 L 385.249,-56.5196 L 384.817,-56.2392 L 384.358,-56.0054 L 383.877,-55.8208 L 383.38,-55.6875 L 382.871,-55.607
 L 382.357,-55.58 z
M 569.271,-55.607 L 568.763,-55.6875 L 568.265,-55.8208 L 567.785,-56.0054 L 567.326,-56.2392 L 566.894,-56.5196
 L 566.494,-56.8437 L 566.129,-57.2079 L 565.805,-57.6081 L 565.525,-58.04 L 565.291,-58.4989 L 565.107,-58.9796
 L 564.973,-59.4771 L 564.893,-59.9857 L 564.866,-60.5 L 564.893,-61.0143 L 564.973,-61.5229 L 565.107,-62.0204
 L 565.291,-62.5011 L 565.525,-62.96 L 565.805,-63.3919 L 566.129,-63.7921 L 566.494,-64.1563 L 566.894,-64.4804
 L 567.236,-64.7024 L 567.236,-74 L 567.291,-74.5302 L 567.456,-75.0372 L 567.723,-75.4988 L 568.079,-75.895
 L 568.511,-76.2084 L 568.998,-76.4252 L 569.519,-76.536 L 570.052,-76.536 L 570.574,-76.4252 L 571.061,-76.2084
 L 571.492,-75.895 L 571.849,-75.4988 L 572.115,-75.0372 L 572.28,-74.5302 L 572.336,-74 L 572.336,-64.7024
 L 572.678,-64.4804 L 573.078,-64.1563 L 573.442,-63.7921 L 573.766,-63.3919 L 574.047,-62.96 L 574.28,-62.5011
 L 574.465,-62.0204 L 574.598,-61.5229 L 574.679,-61.0143 L 574.706,-60.5 L 574.679,-59.9857 L 574.598,-59.4771
 L 574.465,-58.9796 L 574.28,-58.4989 L 574.047,-58.04 L 573.766,-57.6081 L 573.442,-57.2079 L 573.078,-56.8437
 L 572.678,-56.5196 L 572.246,-56.2392 L 571.787,-56.0054 L 571.306,-55.8208 L 570.809,-55.6875 L 570.3,-55.607
 L 569.786,-55.58 z
M 756.7,-55.607 L 756.191,-55.6875 L 755.694,-55.8208 L 755.213,-56.0054 L 754.754,-56.2392 L 754.322,-56.5196
 L 753.922,-56.8437 L 753.558,-57.2079 L 753.234,-57.6081 L 752.953,-58.04 L 752.72,-58.4989 L 752.535,-58.9796
 L 752.402,-59.4771 L 752.321,-59.9857 L 752.294,-60.5 L 752.321,-61.0143 L 752.402,-61.5229 L 752.535,-62.0204
 L 752.72,-62.5011 L 752.953,-62.96 L 753.234,-63.3919 L 753.558,-63.7921 L 753.922,-64.1563 L 754.322,-64.4804
 L 754.664,-64.7024 L 754.664,-74 L 754.72,-74.5302 L 754.885,-75.0372 L 755.151,-75.4988 L 755.508,-75.895
 L 755.939,-76.2084 L 756.426,-76.4252 L 756.948,-76.536 L 757.481,-76.536 L 758.002,-76.4252 L 758.489,-76.2084
 L 758.921,-75.895 L 759.277,-75.4988 L 759.544,-75.0372 L 759.709,-74.5302 L 759.764,-74 L 759.764,-64.7024
 L 760.106,-64.4804 L 760.506,-64.1563 L 760.871,-63.7921 L 761.195,-63.3919 L 761.475,-62.96 L 761.709,-62.5011
 L 761.893,-62.0204 L 762.027,-61.5229 L 762.107,-61.0143 L 762.134,-60.5 L 762.107,-59.9857 L 762.027,-59.4771
 L 761.893,-58.9796 L 761.709,-58.4989 L 761.475,-58.04 L 761.195,-57.6081 L 760.871,-57.2079 L 760.506,-56.8437
 L 760.106,-56.5196 L 759.674,-56.2392 L 759.215,-56.0054 L 758.735,-55.8208 L 758.237,-55.6875 L 757.729,-55.607
 L 757.214,-55.58 z
M 944.129,-55.607 L 943.62,-55.6875 L 943.122,-55.8208 L 942.642,-56.0054 L 942.183,-56.2392 L 941.751,-56.5196
 L 941.351,-56.8437 L 940.987,-57.2079 L 940.662,-57.6081 L 940.382,-58.04 L 940.148,-58.4989 L 939.964,-58.9796
 L 939.83,-59.4771 L 939.75,-59.9857 L 939.723,-60.5 L 939.75,-61.0143 L 939.83,-61.5229 L 939.964,-62.0204
 L 940.148,-62.5011 L 940.382,-62.96 L 940.662,-63.3919 L 940.987,-63.7921 L 941.351,-64.1563 L 941.751,-64.4804
 L 942.093,-64.7024 L 942.093,-74 L 942.149,-74.5302 L 942.313,-75.0372 L 942.58,-75.4988 L 942.937,-75.895
 L 943.368,-76.2084 L 943.855,-76.4252 L 944.376,-76.536 L 944.909,-76.536 L 945.431,-76.4252 L 945.918,-76.2084
 L 946.349,-75.895 L 946.706,-75.4988 L 946.972,-75.0372 L 947.137,-74.5302 L 947.193,-74 L 947.193,-64.7024
 L 947.535,-64.4804 L 947.935,-64.1563 L 948.299,-63.7921 L 948.623,-63.3919 L 948.904,-62.96 L 949.137,-62.5011
 L 949.322,-62.0204 L 949.455,-61.5229 L 949.536,-61.0143 L 949.563,-60.5 L 949.536,-59.9857 L 949.455,-59.4771
 L 949.322,-58.9796 L 949.137,-58.4989 L 948.904,-58.04 L 948.623,-57.6081 L 948.299,-57.2079 L 947.935,-56.8437
 L 947.535,-56.5196 L 947.103,-56.2392 L 946.644,-56.0054 L 946.163,-55.8208 L 945.666,-55.6875 L 945.157,-55.607
 L 944.643,-55.58 z
M 1131.56,-55.607 L 1131.05,-55.6875 L 1130.55,-55.8208 L 1130.07,-56.0054 L 1129.61,-56.2392 L 1129.18,-56.5196
 L 1128.78,-56.8437 L 1128.42,-57.2079 L 1128.09,-57.6081 L 1127.81,-58.04 L 1127.58,-58.4989 L 1127.39,-58.9796
 L 1127.26,-59.4771 L 1127.18,-59.9857 L 1127.15,-60.5 L 1127.18,-61.0143 L 1127.26,-61.5229 L 1127.39,-62.0204
 L 1127.58,-62.5011 L 1127.81,-62.96 L 1128.09,-63.3919 L 1128.42,-63.7921 L 1128.78,-64.1563 L 1129.18,-64.4804
 L 1129.52,-64.7024 L 1129.52,-74 L 1129.58,-74.5302 L 1129.74,-75.0372 L 1130.01,-75.4988 L 1130.37,-75.895
 L 1130.8,-76.2084 L 1131.28,-76.4252 L 1131.8,-76.536 L 1132.34,-76.536 L 1132.86,-76.4252 L 1133.35,-76.2084
 L 1133.78,-75.895 L 1134.13,-75.4988 L 1134.4,-75.0372 L 1134.57,-74.5302 L 1134.62,-74 L 1134.62,-64.7024
 L 1134.96,-64.4804 L 1135.36,-64.1563 L 1135.73,-63.7921 L 1136.05,-63.3919 L 1136.33,-62.96 L 1136.57,-62.5011
 L 1136.75,-62.0204 L 1136.88,-61.5229 L 1136.96,-61.0143 L 1136.99,-60.5 L 1136.96,-59.9857 L 1136.88,-59.4771
 L 1136.75,-58.9796 L 1136.57,-58.4989 L 1136.33,-58.04 L 1136.05,-57.6081 L 1135.73,-57.2079 L 1135.36,-56.8437
 L 1134.96,-56.5196 L 1134.53,-56.2392 L 1134.07,-56.0054 L 1133.59,-55.8208 L 1133.09,-55.6875 L 1132.59,-55.607
 L 1132.07,-55.58 z
M 1318.99,-55.607 L 1318.48,-55.6875 L 1317.98,-55.8208 L 1317.5,-56.0054 L 1317.04,-56.2392 L 1316.61,-56.5196
 L 1316.21,-56.8437 L 1315.84,-57.2079 L 1315.52,-57.6081 L 1315.24,-58.04 L 1315.01,-58.4989 L 1314.82,-58.9796
 L 1314.69,-59.4771 L 1314.61,-59.9857 L 1314.58,-60.5 L 1314.61,-61.0143 L 1314.69,-61.5229 L 1314.82,-62.0204
 L 1315.01,-62.5011 L 1315.24,-62.96 L 1315.52,-63.3919 L 1315.84,-63.7921 L 1316.21,-64.1563 L 1316.61,-64.4804
 L 1316.95,-64.7024 L 1316.95,-74 L 1317.01,-74.5302 L 1317.17,-75.0372 L 1317.44,-75.4988 L 1317.79,-75.895
 L 1318.23,-76.2084 L 1318.71,-76.4252 L 1319.23,-76.536 L 1319.77,-76.536 L 1320.29,-76.4252 L 1320.77,-76.2084
 L 1321.21,-75.895 L 1321.56,-75.4988 L 1321.83,-75.0372 L 1321.99,-74.5302 L 1322.05,-74 L 1322.05,-64.7024
 L 1322.39,-64.4804 L 1322.79,-64.1563 L 1323.16,-63.7921 L 1323.48,-63.3919 L 1323.76,-62.96 L 1323.99,-62.5011
 L 1324.18,-62.0204 L 1324.31,-61.5229 L 1324.39,-61.0143 L 1324.42,-60.5 L 1324.39,-59.9857 L 1324.31,-59.4771
 L 1324.18,-58.9796 L 1323.99,-58.4989 L 1323.76,-58.04 L 1323.48,-57.6081 L 1323.16,-57.2079 L 1322.79,-56.8437
 L 1322.39,-56.5196 L 1321.96,-56.2392 L 1321.5,-56.0054 L 1321.02,-55.8208 L 1320.52,-55.6875 L 1320.01,-55.607
 L 1319.5,-55.58 z
M 769.108,-20.6938 L 768.333,-21.0078 L 767.64,-21.4761 L 767.06,-22.0783 L 766.617,-22.7879 L 766.332,-23.574
 L 766.214,-24.5377 L 766.214,-58 L 766.302,-58.8316 L 766.56,-59.627 L 766.978,-60.3511 L 767.538,-60.9726
 L 768.214,-61.4641 L 768.978,-61.8042 L 770.214,-62 L 862.447,-62 L 863.278,-61.9126 L 864.074,-61.6542
 L 864.798,-61.2361 L 865.419,-60.6765 L 865.911,-60 L 866.251,-59.2361 L 866.425,-58.4181 L 866.425,-57.5819
 L 866.251,-56.7639 L 865.911,-56 L 865.419,-55.3235 L 864.798,-54.7639 L 863.811,-54.2398 L 771.579,-20.7775
 L 770.767,-20.576 L 769.931,-20.5477 z
M 662.947,-47.7332 L 662.136,-47.9347 L 644.757,-54.2398 L 643.77,-54.7639 L 643.148,-55.3235 L 642.657,-56
 L 642.317,-56.7639 L 642.143,-57.5819 L 642.143,-58.4181 L 642.317,-59.2361 L 642.657,-60 L 643.148,-60.6765
 L 643.77,-61.2361 L 644.494,-61.6542 L 645.289,-61.9126 L 646.121,-62 L 680.879,-62 L 681.985,-61.8439
 L 682.76,-61.5299 L 683.453,-61.0615 L 684.033,-60.4594 L 684.476,-59.7498 L 684.761,-58.9637 L 684.877,-58.1355
 L 684.817,-57.3013 L 684.586,-56.4978 L 684.193,-55.7598 L 683.655,-55.1198 L 682.995,-54.6056 L 682.243,-54.2398
 L 664.864,-47.9347 L 663.783,-47.7049 z
M 556.233,-20.576 L 555.421,-20.7775 L 463.189,-54.2398 L 462.202,-54.7639 L 461.581,-55.3235 L 461.089,-56
 L 460.749,-56.7639 L 460.575,-57.5819 L 460.575,-58.4181 L 460.749,-59.2361 L 461.089,-60 L 461.581,-60.6765
 L 462.202,-61.2361 L 462.926,-61.6542 L 463.722,-61.9126 L 464.553,-62 L 556.786,-62 L 558.022,-61.8042
 L 558.786,-61.4641 L 559.462,-60.9726 L 560.022,-60.3511 L 560.44,-59.627 L 560.698,-58.8316 L 560.786,-58
 L 560.786,-24.5377 L 560.668,-23.574 L 560.383,-22.7879 L 559.94,-22.0783 L 559.36,-21.4761 L 558.667,-21.0078
 L 557.892,-20.6938 L 557.069,-20.5477 z
M 368.805,-20.576 L 367.993,-20.7775 L 275.761,-54.2398 L 274.774,-54.7639 L 274.152,-55.3235 L 273.661,-56
 L 273.321,-56.7639 L 273.147,-57.5819 L 273.147,-58.4181 L 273.321,-59.2361 L 273.661,-60 L 274.152,-60.6765
 L 274.774,-61.2361 L 275.498,-61.6542 L 276.293,-61.9126 L 277.125,-62 L 369.357,-62 L 370.593,-61.8042
 L 371.357,-61.4641 L 372.034,-60.9726 L 372.593,-60.3511 L 373.011,-59.627 L 373.27,-58.8316 L 373.357,-58
 L 373.357,-24.5377 L 373.239,-23.574 L 372.954,-22.7879 L 372.512,-22.0783 L 371.931,-21.4761 L 371.239,-21.0078
 L 370.464,-20.6938 L 369.64,-20.5477 z
M 1143.96,-20.6938 L 1143.19,-21.0078 L 1142.5,-21.4761 L 1141.92,-22.0783 L 1141.47,-22.7879 L 1141.19,-23.574
 L 1141.07,-24.5377 L 1141.07,-58 L 1141.16,-58.8316 L 1141.42,-59.627 L 1141.84,-60.3511 L 1142.39,-60.9726
 L 1143.07,-61.4641 L 1143.84,-61.8042 L 1145.07,-62 L 1237.3,-62 L 1238.14,-61.9126 L 1238.93,-61.6542
 L 1239.65,-61.2361 L 1240.28,-60.6765 L 1240.77,-60 L 1241.11,-59.2361 L 1241.28,-58.4181 L 1241.28,-57.5819
 L 1241.11,-56.7639 L 1240.77,-56 L 1240.28,-55.3235 L 1239.65,-54.7639 L 1238.67,-54.2398 L 1146.44,-20.7775
 L 1145.62,-20.576 L 1144.79,-20.5477 z
M 181.376,-20.576 L 180.564,-20.7775 L 88.332,-54.2398 L 87.3451,-54.7639 L 86.7236,-55.3235 L 86.2321,-56
 L 85.892,-56.7639 L 85.7181,-57.5819 L 85.7181,-58.4181 L 85.892,-59.2361 L 86.2321,-60 L 86.7236,-60.6765
 L 87.3451,-61.2361 L 88.0693,-61.6542 L 88.8646,-61.9126 L 89.6962,-62 L 181.929,-62 L 183.165,-61.8042
 L 183.929,-61.4641 L 184.605,-60.9726 L 185.165,-60.3511 L 185.583,-59.627 L 185.841,-58.8316 L 185.929,-58
 L 185.929,-24.5377 L 185.811,-23.574 L 185.526,-22.7879 L 185.083,-22.0783 L 184.503,-21.4761 L 183.81,-21.0078
 L 183.035,-20.6938 L 182.212,-20.5477 z
M 956.536,-20.6938 L 955.761,-21.0078 L 955.069,-21.4761 L 954.488,-22.0783 L 954.046,-22.7879 L 953.761,-23.574
 L 953.643,-24.5377 L 953.643,-58 L 953.73,-58.8316 L 953.989,-59.627 L 954.407,-60.3511 L 954.966,-60.9726
 L 955.643,-61.4641 L 956.407,-61.8042 L 957.643,-62 L 1049.88,-62 L 1050.71,-61.9126 L 1051.5,-61.6542
 L 1052.23,-61.2361 L 1052.85,-60.6765 L 1053.34,-60 L 1053.68,-59.2361 L 1053.85,-58.4181 L 1053.85,-57.5819
 L 1053.68,-56.7639 L 1053.34,-56 L 1052.85,-55.3235 L 1052.23,-54.7639 L 1051.24,-54.2398 L 959.007,-20.7775
 L 958.195,-20.576 L 957.36,-20.5477 z
M 582.368,-18.4332 L 581.55,-18.6071 L 580.786,-18.9472 L 580.109,-19.4388 L 579.55,-20.0602 L 579.132,-20.7844
 L 578.873,-21.5797 L 578.786,-22.4113 L 578.786,-57.5887 L 578.904,-58.5524 L 579.189,-59.3385 L 579.631,-60.0481
 L 580.211,-60.6502 L 580.904,-61.1185 L 581.679,-61.4326 L 582.503,-61.5786 L 583.338,-61.5503 L 584.15,-61.3488
 L 632.63,-43.7602 L 633.147,-43.5299 L 633.84,-43.0615 L 634.42,-42.4594 L 634.862,-41.7498 L 635.148,-40.9637
 L 635.263,-40.1355 L 635.204,-39.3013 L 634.973,-38.4978 L 634.579,-37.7598 L 634.041,-37.1198 L 633.382,-36.6056
 L 632.63,-36.2398 L 584.15,-18.6512 L 583.204,-18.4332 z
M 743.662,-18.4497 L 742.85,-18.6511 L 694.37,-36.2398 L 693.853,-36.4701 L 693.16,-36.9385 L 692.58,-37.5406
 L 692.138,-38.2502 L 691.852,-39.0363 L 691.737,-39.8645 L 691.796,-40.6987 L 692.027,-41.5022 L 692.421,-42.2402
 L 692.959,-42.8802 L 693.618,-43.3944 L 694.37,-43.7602 L 742.85,-61.3489 L 743.796,-61.5668 L 744.632,-61.5668
 L 745.45,-61.3929 L 746.214,-61.0528 L 746.891,-60.5613 L 747.45,-59.9398 L 747.868,-59.2156 L 748.127,-58.4203
 L 748.214,-57.5887 L 748.214,-22.4113 L 748.096,-21.4476 L 747.811,-20.6615 L 747.369,-19.9519 L 746.789,-19.3498
 L 746.096,-18.8815 L 745.321,-18.5674 L 744.497,-18.4214 z
M 207.929,-18 L 206.692,-18.1958 L 205.929,-18.5359 L 205.252,-19.0274 L 204.692,-19.6489 L 204.274,-20.373
 L 204.016,-21.1684 L 203.929,-22 L 203.929,-55.4623 L 204.046,-56.426 L 204.332,-57.2121 L 204.774,-57.9217
 L 205.354,-58.5239 L 206.047,-58.9922 L 206.822,-59.3062 L 207.645,-59.4523 L 208.481,-59.424 L 209.293,-59.2225
 L 301.525,-25.7602 L 302.512,-25.2361 L 303.133,-24.6765 L 303.625,-24 L 303.965,-23.2361 L 304.139,-22.4181
 L 304.139,-21.5819 L 303.965,-20.7639 L 303.625,-20 L 303.133,-19.3235 L 302.512,-18.7639 L 301.788,-18.3458
 L 300.993,-18.0874 L 300.161,-18 z
M 395.357,-18 L 394.121,-18.1958 L 393.357,-18.5359 L 392.681,-19.0274 L 392.121,-19.6489 L 391.703,-20.373
 L 391.445,-21.1684 L 391.357,-22 L 391.357,-55.4623 L 391.475,-56.426 L 391.76,-57.2121 L 392.203,-57.9217
 L 392.783,-58.5239 L 393.476,-58.9922 L 394.251,-59.3062 L 395.074,-59.4523 L 395.91,-59.424 L 396.721,-59.2225
 L 488.954,-25.7602 L 489.941,-25.2361 L 490.562,-24.6765 L 491.054,-24 L 491.394,-23.2361 L 491.568,-22.4181
 L 491.568,-21.5819 L 491.394,-20.7639 L 491.054,-20 L 490.562,-19.3235 L 489.941,-18.7639 L 489.216,-18.3458
 L 488.421,-18.0874 L 487.589,-18 z
M 839.411,-18 L 838.579,-18.0874 L 837.784,-18.3458 L 837.059,-18.7639 L 836.438,-19.3235 L 835.946,-20
 L 835.606,-20.7639 L 835.432,-21.5819 L 835.432,-22.4181 L 835.606,-23.2361 L 835.946,-24 L 836.438,-24.6765
 L 837.059,-25.2361 L 838.046,-25.7602 L 930.279,-59.2225 L 931.09,-59.424 L 931.926,-59.4523 L 932.749,-59.3062
 L 933.524,-58.9922 L 934.217,-58.5239 L 934.797,-57.9217 L 935.24,-57.2121 L 935.525,-56.426 L 935.643,-55.4623
 L 935.643,-22 L 935.555,-21.1684 L 935.297,-20.373 L 934.879,-19.6489 L 934.319,-19.0274 L 933.643,-18.5359
 L 932.879,-18.1958 L 931.643,-18 z
M 1026.84,-18 L 1026.01,-18.0874 L 1025.21,-18.3458 L 1024.49,-18.7639 L 1023.87,-19.3235 L 1023.38,-20
 L 1023.03,-20.7639 L 1022.86,-21.5819 L 1022.86,-22.4181 L 1023.03,-23.2361 L 1023.38,-24 L 1023.87,-24.6765
 L 1024.49,-25.2361 L 1025.47,-25.7602 L 1117.71,-59.2225 L 1118.52,-59.424 L 1119.35,-59.4523 L 1120.18,-59.3062
 L 1120.95,-58.9922 L 1121.65,-58.5239 L 1122.23,-57.9217 L 1122.67,-57.2121 L 1122.95,-56.426 L 1123.07,-55.4623
 L 1123.07,-22 L 1122.98,-21.1684 L 1122.73,-20.373 L 1122.31,-19.6489 L 1121.75,-19.0274 L 1121.07,-18.5359
 L 1120.31,-18.1958 L 1119.07,-18 z
M 22,-18 L 20.7639,-18.1958 L 20,-18.5359 L 19.3235,-19.0274 L 18.7639,-19.6489 L 18.3458,-20.373
 L 18.0874,-21.1684 L 18,-22 L 18,-54.9181 L 18.1178,-55.8818 L 18.403,-56.6679 L 18.8454,-57.3775
 L 19.4257,-57.9796 L 20.1185,-58.448 L 20.8935,-58.762 L 21.7169,-58.9081 L 22.5526,-58.8798 L 23.3642,-58.6783
 L 114.097,-25.7602 L 115.083,-25.2361 L 115.705,-24.6765 L 116.196,-24 L 116.537,-23.2361 L 116.71,-22.4181
 L 116.71,-21.5819 L 116.537,-20.7639 L 116.196,-20 L 115.705,-19.3235 L 115.083,-18.7639 L 114.359,-18.3458
 L 113.564,-18.0874 L 112.732,-18 z
M 1214.27,-18 L 1213.44,-18.0874 L 1212.64,-18.3458 L 1211.92,-18.7639 L 1211.3,-19.3235 L 1210.8,-20
 L 1210.46,-20.7639 L 1210.29,-21.5819 L 1210.29,-22.4181 L 1210.46,-23.2361 L 1210.8,-24 L 1211.3,-24.6765
 L 1211.92,-25.2361 L 1212.9,-25.7602 L 1303.64,-58.6783 L 1304.45,-58.8798 L 1305.28,-58.9081 L 1306.11,-58.762
 L 1306.88,-58.448 L 1307.57,-57.9796 L 1308.15,-57.3775 L 1308.6,-56.6679 L 1308.88,-55.8818 L 1309,-54.9181
 L 1309,-22 L 1308.91,-21.1684 L 1308.65,-20.373 L 1308.24,-19.6489 L 1307.68,-19.0274 L 1307,-18.5359
 L 1306.24,-18.1958 L 1305,-18 z
M 646.121,-18 L 645.015,-18.1561 L 644.24,-18.4701 L 643.547,-18.9385 L 642.967,-19.5406 L 642.524,-20.2502
 L 642.239,-21.0363 L 642.123,-21.8645 L 642.183,-22.6987 L 642.414,-23.5022 L 642.807,-24.2402 L 643.345,-24.8802
 L 644.005,-25.3944 L 644.757,-25.7602 L 662.136,-32.0653 L 663.217,-32.2951 L 664.053,-32.2668 L 664.864,-32.0653
 L 682.243,-25.7602 L 683.23,-25.2361 L 683.851,-24.6765 L 684.343,-24 L 684.683,-23.2361 L 684.857,-22.4181
 L 684.857,-21.5819 L 684.683,-20.7639 L 684.343,-20 L 683.851,-19.3235 L 683.23,-18.7639 L 682.506,-18.3458
 L 681.711,-18.0874 L 680.879,-18 z
" stroke="black" fill="lightgray" stroke-width="0.5"/>
</svg>
