<?xml version="1.0" standalone="no"?>
<!DOCTYPE svg PUBLIC "-//W3C//DTD SVG 1.1//EN" "http://www.w3.org/Graphics/SVG/1.1/DTD/svg11.dtd">
<svg width="1014mm" height="80mm" viewBox="0 -80 1014 80" xmlns="http://www.w3.org/2000/svg" version="1.1">
<title>OpenSCAD Model</title>
<path d="
M 1014,-80 L 0,-80 L 0,-0 L 4.95,-0 L 4.95,-6 L 5.00572,-6.53017
 L 5.17046,-7.03717 L 5.437,-7.49884 L 5.79372,-7.895 L 6.22499,-8.20836 L 6.71201,-8.42519 L 7.23344,-8.53603
 L 7.76654,-8.53603 L 8.28798,-8.42519 L 8.77499,-8.20836 L 9.20627,-7.895 L 9.56299,-7.49884 L 9.82953,-7.03717
 L 9.99426,-6.53017 L 10.05,-6 L 10.05,-0 L 171.45,-0 L 171.45,-6 L 171.506,-6.53017
 L 171.67,-7.03717 L 171.937,-7.49884 L 172.294,-7.895 L 172.725,-8.20836 L 173.212,-8.42519 L 173.733,-8.53603
 L 174.267,-8.53603 L 174.788,-8.42519 L 175.275,-8.20836 L 175.706,-7.895 L 176.063,-7.49884 L 176.33,-7.03717
 L 176.494,-6.53017 L 176.55,-6 L 176.55,-0 L 337.95,-0 L 337.95,-6 L 338.006,-6.53017
 L 338.17,-7.03717 L 338.437,-7.49884 L 338.794,-7.895 L 339.225,-8.20836 L 339.712,-8.42519 L 340.233,-8.53603
 L 340.767,-8.53603 L 341.288,-8.42519 L 341.775,-8.20836 L 342.206,-7.895 L 342.563,-7.49884 L 342.83,-7.03717
 L 342.994,-6.53017 L 343.05,-6 L 343.05,-0 L 504.45,-0 L 504.45,-6 L 504.506,-6.53017
 L 504.67,-7.03717 L 504.937,-7.49884 L 505.294,-7.895 L 505.725,-8.20836 L 506.212,-8.42519 L 506.733,-8.53603
 L 507.267,-8.53603 L 507.788,-8.42519 L 508.275,-8.20836 L 508.706,-7.895 L 509.063,-7.49884 L 509.33,-7.03717
 L 509.494,-6.53017 L 509.55,-6 L 509.55,-0 L 670.95,-0 L 670.95,-6 L 671.006,-6.53017
 L 671.17,-7.03717 L 671.437,-7.49884 L 671.794,-7.895 L 672.225,-8.20836 L 672.712,-8.42519 L 673.233,-8.53603
 L 673.767,-8.53603 L 674.288,-8.42519 L 674.775,-8.20836 L 675.206,-7.895 L 675.563,-7.49884 L 675.83,-7.03717
 L 675.994,-6.53017 L 676.05,-6 L 676.05,-0 L 837.45,-0 L 837.45,-6 L 837.506,-6.53017
 L 837.67,-7.03717 L 837.937,-7.49884 L 838.294,-7.895 L 838.725,-8.20836 L 839.212,-8.42519 L 839.733,-8.53603
 L 840.267,-8.53603 L 840.788,-8.42519 L 841.275,-8.20836 L 841.706,-7.895 L 842.063,-7.49884 L 842.33,-7.03717
 L 842.494,-6.53017 L 842.55,-6 L 842.55,-0 L 1003.95,-0 L 1003.95,-6 L 1004.01,-6.53017
 L 1004.17,-7.03717 L 1004.44,-7.49884 L 1004.79,-7.895 L 1005.22,-8.20836 L 1005.71,-8.42519 L 1006.23,-8.53603
 L 1006.77,-8.53603 L 1007.29,-8.42519 L 1007.77,-8.20836 L 1008.21,-7.895 L 1008.56,-7.49884 L 1008.83,-7.03717
 L 1008.99,-6.53017 L 1009.05,-6 L 1009.05,-0 L 1014,-0 z
M 6.98573,-55.607 L 6.47708,-55.6875 L 5.97964,-55.8208 L 5.49887,-56.0054 L 5.04001,-56.2392 L 4.60811,-56.5196
 L 4.20789,-56.8437 L 3.84373,-57.2079 L 3.51964,-57.6081 L 3.23917,-58.04 L 3.00537,-58.4989 L 2.82082,-58.9796
 L 2.68752,-59.4771 L 2.60696,-59.9857 L 2.58,-60.5 L 2.60696,-61.0143 L 2.68752,-61.5229 L 2.82082,-62.0204
 L 3.00537,-62.5011 L 3.23917,-62.96 L 3.51964,-63.3919 L 3.84373,-63.7921 L 4.20789,-64.1563 L 4.60811,-64.4804
 L 4.95001,-64.7024 L 4.95001,-74 L 5.00574,-74.5302 L 5.17047,-75.0372 L 5.43701,-75.4988 L 5.79373,-75.895
 L 6.22501,-76.2084 L 6.71202,-76.4252 L 7.23346,-76.536 L 7.76654,-76.536 L 8.28798,-76.4252 L 8.77499,-76.2084
 L 9.20627,-75.895 L 9.56299,-75.4988 L 9.82953,-75.0372 L 9.99426,-74.5302 L 10.05,-74 L 10.05,-64.7024
 L 10.3919,-64.4804 L 10.7921,-64.1563 L 11.1563,-63.7921 L 11.4804,-63.3919 L 11.7608,-62.96 L 11.9946,-62.5011
 L 12.1792,-62.0204 L 12.3125,-61.5229 L 12.393,-61.0143 L 12.42,-60.5 L 12.393,-59.9857 L 12.3125,-59.4771
 L 12.1792,-58.9796 L 11.9946,-58.4989 L 11.7608,-58.04 L 11.4804,-57.6081 L 11.1563,-57.2079 L 10.7921,-56.8437
 L 10.3919,-56.5196 L 9.95999,-56.2392 L 9.50113,-56.0054 L 9.02036,-55.8208 L 8.52292,-55.6875 L 8.01427,-55.607
 L 7.5,-55.58 z
M 173.486,-55.607 L 172.977,-55.6875 L 172.48,-55.8208 L 171.999,-56.0054 L 171.54,-56.2392 L 171.108,-56.5196
 L 170.708,-56.8437 L 170.344,-57.2079 L 170.02,-57.6081 L 169.739,-58.04 L 169.505,-58.4989 L 169.321,-58.9796
 L 169.188,-59.4771 L 169.107,-59.9857 L 169.08,-60.5 L 169.107,-61.0143 L 169.188,-61.5229 L 169.321,-62.0204
 L 169.505,-62.5011 L 169.739,-62.96 L 170.02,-63.3919 L 170.344,-63.7921 L 170.708,-64.1563 L 171.108,-64.4804
 L 171.45,-64.7024 L 171.45,-74 L 171.506,-74.5302 L 171.67,-75.0372 L 171.937,-75.4988 L 172.294,-75.895
 L 172.725,-76.2084 L 173.212,-76.4252 L 173.733,-76.536 L 174.267,-76.536 L 174.788,-76.4252 L 175.275,-76.2084
 L 175.706,-75.895 L 176.063,-75.4988 L 176.33,-75.0372 L 176.494,-74.5302 L 176.55,-74 L 176.55,-64.7024
 L 176.892,-64.4804 L 177.292,-64.1563 L 177.656,-63.7921 L 177.98,-63.3919 L 178.261,-62.96 L 178.495,-62.5011
 L 178.679,-62.0204 L 178.812,-61.5229 L 178.893,-61.0143 L 178.92,-60.5 L 178.893,-59.9857 L 178.812,-59.4771
 L 178.679,-58.9796 L 178.495,-58.4989 L 178.261,-58.04 L 177.98,-57.6081 L 177.656,-57.2079 L 177.292,-56.8437
 L 176.892,-56.5196 L 176.46,-56.2392 L 176.001,-56.0054 L 175.52,-55.8208 L 175.023,-55.6875 L 174.514,-55.607
 L 174,-55.58 z
M 339.986,-55.607 L 339.477,-55.6875 L 338.98,-55.8208 L 338.499,-56.0054 L 338.04,-56.2392 L 337.608,-56.5196
 L 337.208,-56.8437 L 336.844,-57.2079 L 336.52,-57.6081 L 336.239,-58.04 L 336.005,-58.4989 L 335.821,-58.9796
 L 335.688,-59.4771 L 335.607,-59.9857 L 335.58,-60.5 L 335.607,-61.0143 L 335.688,-61.5229 L 335.821,-62.0204
 L 336.005,-62.5011 L 336.239,-62.96 L 336.52,-63.3919 L 336.844,-63.7921 L 337.208,-64.1563 L 337.608,-64.4804
 L 337.95,-64.7024 L 337.95,-74 L 338.006,-74.5302 L 338.17,-75.0372 L 338.437,-75.4988 L 338.794,-75.895
 L 339.225,-76.2084 L 339.712,-76.4252 L 340.233,-76.536 L 340.767,-76.536 L 341.288,-76.4252 L 341.775,-76.2084
 L 342.206,-75.895 L 342.563,-75.4988 L 342.83,-75.0372 L 342.994,-74.5302 L 343.05,-74 L 343.05,-64.7024
 L 343.392,-64.4804 L 343.792,-64.1563 L 344.156,-63.7921 L 344.48,-63.3919 L 344.761,-62.96 L 344.995,-62.5011
 L 345.179,-62.0204 L 345.312,-61.5229 L 345.393,-61.0143 L 345.42,-60.5 L 345.393,-59.9857 L 345.312,-59.4771
 L 345.179,-58.9796 L 344.995,-58.4989 L 344.761,-58.04 L 344.48,-57.6081 L 344.156,-57.2079 L 343.792,-56.8437
 L 343.392,-56.5196 L 342.96,-56.2392 L 342.501,-56.0054 L 342.02,-55.8208 L 341.523,-55.6875 L 341.014,-55.607
 L 340.5,-55.58 z
M 506.486,-55.607 L 505.977,-55.6875 L 505.48,-55.8208 L 504.999,-56.0054 L 504.54,-56.2392 L 504.108,-56.5196
 L 503.708,-56.8437 L 503.344,-57.2079 L 503.02,-57.6081 L 502.739,-58.04 L 502.505,-58.4989 L 502.321,-58.9796
 L 502.188,-59.4771 L 502.107,-59.9857 L 502.08,-60.5 L 502.107,-61.0143 L 502.188,-61.5229 L 502.321,-62.0204
 L 502.505,-62.5011 L 502.739,-62.96 L 503.02,-63.3919 L 503.344,-63.7921 L 503.708,-64.1563 L 504.108,-64.4804
 L 504.45,-64.7024 L 504.45,-74 L 504.506,-74.5302 L 504.67,-75.0372 L 504.937,-75.4988 L 505.294,-75.895
 L 505.725,-76.2084 L 506.212,-76.4252 L 506.733,-76.536 L 507.267,-76.536 L 507.788,-76.4252 L 508.275,-76.2084
 L 508.706,-75.895 L 509.063,-75.4988 L 509.33,-75.0372 L 509.494,-74.5302 L 509.55,-74 L 509.55,-64.7024
 L 509.892,-64.4804 L 510.292,-64.1563 L 510.656,-63.7921 L 510.98,-63.3919 L 511.261,-62.96 L 511.495,-62.5011
 L 511.679,-62.0204 L 511.812,-61.5229 L 511.893,-61.0143 L 511.92,-60.5 L 511.893,-59.9857 L 511.812,-59.4771
 L 511.679,-58.9796 L 511.495,-58.4989 L 511.261,-58.04 L 510.98,-57.6081 L 510.656,-57.2079 L 510.292,-56.8437
 L 509.892,-56.5196 L 509.46,-56.2392 L 509.001,-56.0054 L 508.52,-55.8208 L 508.023,-55.6875 L 507.514,-55.607
 L 507,-55.58 z
M 672.986,-55.607 L 672.477,-55.6875 L 671.98,-55.8208 L 671.499,-56.0054 L 671.04,-56.2392 L 670.608,-56.5196
 L 670.208,-56.8437 L 669.844,-57.2079 L 669.52,-57.6081 L 669.239,-58.04 L 669.005,-58.4989 L 668.821,-58.9796
 L 668.688,-59.4771 L 668.607,-59.9857 L 668.58,-60.5 L 668.607,-61.0143 L 668.688,-61.5229 L 668.821,-62.0204
 L 669.005,-62.5011 L 669.239,-62.96 L 669.52,-63.3919 L 669.844,-63.7921 L 670.208,-64.1563 L 670.608,-64.4804
 L 670.95,-64.7024 L 670.95,-74 L 671.006,-74.5302 L 671.17,-75.0372 L 671.437,-75.4988 L 671.794,-75.895
 L 672.225,-76.2084 L 672.712,-76.4252 L 673.233,-76.536 L 673.767,-76.536 L 674.288,-76.4252 L 674.775,-76.2084
 L 675.206,-75.895 L 675.563,-75.4988 L 675.83,-75.0372 L 675.994,-74.5302 L 676.05,-74 L 676.05,-64.7024
 L 676.392,-64.4804 L 676.792,-64.1563 L 677.156,-63.7921 L 677.48,-63.3919 L 677.761,-62.96 L 677.995,-62.5011
 L 678.179,-62.0204 L 678.312,-61.5229 L 678.393,-61.0143 L 678.42,-60.5 L 678.393,-59.9857 L 678.312,-59.4771
 L 678.179,-58.9796 L 677.995,-58.4989 L 677.761,-58.04 L 677.48,-57.6081 L 677.156,-57.2079 L 676.792,-56.8437
 L 676.392,-56.5196 L 675.96,-56.2392 L 675.501,-56.0054 L 675.02,-55.8208 L 674.523,-55.6875 L 674.014,-55.607
 L 673.5,-55.58 z
M 839.486,-55.607 L 838.977,-55.6875 L 838.48,-55.8208 L 837.999,-56.0054 L 837.54,-56.2392 L 837.108,-56.5196
 L 836.708,-56.8437 L 836.344,-57.2079 L 836.02,-57.6081 L 835.739,-58.04 L 835.505,-58.4989 L 835.321,-58.9796
 L 835.188,-59.4771 L 835.107,-59.9857 L 835.08,-60.5 L 835.107,-61.0143 L 835.188,-61.5229 L 835.321,-62.0204
 L 835.505,-62.5011 L 835.739,-62.96 L 836.02,-63.3919 L 836.344,-63.7921 L 836.708,-64.1563 L 837.108,-64.4804
 L 837.45,-64.7024 L 837.45,-74 L 837.506,-74.5302 L 837.67,-75.0372 L 837.937,-75.4988 L 838.294,-75.895
 L 838.725,-76.2084 L 839.212,-76.4252 L 839.733,-76.536 L 840.267,-76.536 L 840.788,-76.4252 L 841.275,-76.2084
 L 841.706,-75.895 L 842.063,-75.4988 L 842.33,-75.0372 L 842.494,-74.5302 L 842.55,-74 L 842.55,-64.7024
 L 842.892,-64.4804 L 843.292,-64.1563 L 843.656,-63.7921 L 843.98,-63.3919 L 844.261,-62.96 L 844.495,-62.5011
 L 844.679,-62.0204 L 844.812,-61.5229 L 844.893,-61.0143 L 844.92,-60.5 L 844.893,-59.9857 L 844.812,-59.4771
 L 844.679,-58.9796 L 844.495,-58.4989 L 844.261,-58.04 L 843.98,-57.6081 L 843.656,-57.2079 L 843.292,-56.8437
 L 842.892,-56.5196 L 842.46,-56.2392 L 842.001,-56.0054 L 841.52,-55.8208 L 841.023,-55.6875 L 840.514,-55.607
 L 840,-55.58 z
M 1005.99,-55.607 L 1005.48,-55.6875 L 1004.98,-55.8208 L 1004.5,-56.0054 L 1004.04,-56.2392 L 1003.61,-56.5196
 L 1003.21,-56.8437 L 1002.84,-57.2079 L 1002.52,-57.6081 L 1002.24,-58.04 L 1002.01,-58.4989 L 1001.82,-58.9796
 L 1001.69,-59.4771 L 1001.61,-59.9857 L 1001.58,-60.5 L 1001.61,-61.0143 L 1001.69,-61.5229 L 1001.82,-62.0204
 L 1002.01,-62.5011 L 1002.24,-62.96 L 1002.52,-63.3919 L 1002.84,-63.7921 L 1003.21,-64.1563 L 1003.61,-64.4804
 L 1003.95,-64.7024 L 1003.95,-74 L 1004.01,-74.5302 L 1004.17,-75.0372 L 1004.44,-75.4988 L 1004.79,-75.895
 L 1005.23,-76.2084 L 1005.71,-76.4252 L 1006.23,-76.536 L 1006.77,-76.536 L 1007.29,-76.4252 L 1007.77,-76.2084
 L 1008.21,-75.895 L 1008.56,-75.4988 L 1008.83,-75.0372 L 1008.99,-74.5302 L 1009.05,-74 L 1009.05,-64.7024
 L 1009.39,-64.4804 L 1009.79,-64.1563 L 1010.16,-63.7921 L 1010.48,-63.3919 L 1010.76,-62.96 L 1010.99,-62.5011
 L 1011.18,-62.0204 L 1011.31,-61.5229 L 1011.39,-61.0143 L 1011.42,-60.5 L 1011.39,-59.9857 L 1011.31,-59.4771
 L 1011.18,-58.9796 L 1010.99,-58.4989 L 1010.76,-58.04 L 1010.48,-57.6081 L 1010.16,-57.2079 L 1009.79,-56.8437
 L 1009.39,-56.5196 L 1008.96,-56.2392 L 1008.5,-56.0054 L 1008.02,-55.8208 L 1007.52,-55.6875 L 1007.01,-55.607
 L 1006.5,-55.58 z
M 852.047,-21.4601 L 851.26,-21.7431 L 850.549,-22.1836 L 849.946,-22.7622 L 849.475,-23.4537 L 849.159,-24.2279
 L 849,-25.3449 L 849,-58 L 849.087,-58.8316 L 849.346,-59.627 L 849.764,-60.3511 L 850.323,-60.9726
 L 851,-61.4641 L 851.764,-61.8042 L 853,-62 L 932.957,-62 L 933.789,-61.9126 L 934.584,-61.6542
 L 935.308,-61.2361 L 935.93,-60.6765 L 936.421,-60 L 936.761,-59.2361 L 936.935,-58.4181 L 936.935,-57.5819
 L 936.761,-56.7639 L 936.421,-56 L 935.93,-55.3235 L 935.308,-54.7639 L 934.469,-54.2969 L 854.512,-21.6418
 L 853.709,-21.4083 L 852.875,-21.3468 z
M 326.791,-21.4083 L 325.988,-21.6418 L 246.031,-54.2969 L 245.192,-54.7639 L 244.57,-55.3235 L 244.079,-56
 L 243.739,-56.7639 L 243.565,-57.5819 L 243.565,-58.4181 L 243.739,-59.2361 L 244.079,-60 L 244.57,-60.6765
 L 245.192,-61.2361 L 245.916,-61.6542 L 246.711,-61.9126 L 247.543,-62 L 327.5,-62 L 328.736,-61.8042
 L 329.5,-61.4641 L 330.177,-60.9726 L 330.736,-60.3511 L 331.154,-59.627 L 331.413,-58.8316 L 331.5,-58
 L 331.5,-25.3449 L 331.341,-24.2279 L 331.025,-23.4537 L 330.554,-22.7622 L 329.951,-22.1836 L 329.24,-21.7431
 L 328.453,-21.4601 L 327.625,-21.3468 z
M 160.291,-21.4083 L 159.488,-21.6418 L 79.5306,-54.2969 L 78.6918,-54.7639 L 78.0704,-55.3235 L 77.5789,-56
 L 77.2388,-56.7639 L 77.0649,-57.5819 L 77.0649,-58.4181 L 77.2388,-59.2361 L 77.5789,-60 L 78.0704,-60.6765
 L 78.6918,-61.2361 L 79.416,-61.6542 L 80.2113,-61.9126 L 81.043,-62 L 161,-62 L 162.236,-61.8042
 L 163,-61.4641 L 163.677,-60.9726 L 164.236,-60.3511 L 164.654,-59.627 L 164.913,-58.8316 L 165,-58
 L 165,-25.3449 L 164.841,-24.2279 L 164.525,-23.4537 L 164.054,-22.7622 L 163.451,-22.1836 L 162.74,-21.7431
 L 161.953,-21.4601 L 161.125,-21.3468 z
M 493.291,-21.4083 L 492.488,-21.6418 L 412.531,-54.2969 L 411.692,-54.7639 L 411.07,-55.3235 L 410.579,-56
 L 410.239,-56.7639 L 410.065,-57.5819 L 410.065,-58.4181 L 410.239,-59.2361 L 410.579,-60 L 411.07,-60.6765
 L 411.692,-61.2361 L 412.416,-61.6542 L 413.211,-61.9126 L 414.043,-62 L 494,-62 L 495.236,-61.8042
 L 496,-61.4641 L 496.677,-60.9726 L 497.236,-60.3511 L 497.654,-59.627 L 497.913,-58.8316 L 498,-58
 L 498,-25.3449 L 497.841,-24.2279 L 497.525,-23.4537 L 497.054,-22.7622 L 496.451,-22.1836 L 495.74,-21.7431
 L 494.953,-21.4601 L 494.125,-21.3468 z
M 519.047,-21.4601 L 518.26,-21.7431 L 517.549,-22.1836 L 516.946,-22.7622 L 516.475,-23.4537 L 516.159,-24.2279
 L 516,-25.3449 L 516,-58 L 516.087,-58.8316 L 516.346,-59.627 L 516.764,-60.3511 L 517.323,-60.9726
 L 518,-61.4641 L 518.764,-61.8042 L 520,-62 L 599.957,-62 L 600.789,-61.9126 L 601.584,-61.6542
 L 602.308,-61.2361 L 602.93,-60.6765 L 603.421,-60 L 603.761,-59.2361 L 603.935,-58.4181 L 603.935,-57.5819
 L 603.761,-56.7639 L 603.421,-56 L 602.93,-55.3235 L 602.308,-54.7639 L 601.469,-54.2969 L 521.512,-21.6418
 L 520.709,-21.4083 L 519.875,-21.3468 z
M 685.547,-21.4601 L 684.76,-21.7431 L 684.049,-22.1836 L 683.446,-22.7622 L 682.975,-23.4537 L 682.659,-24.2279
 L 682.5,-25.3449 L 682.5,-58 L 682.587,-58.8316 L 682.846,-59.627 L 683.264,-60.3511 L 683.823,-60.9726
 L 684.5,-61.4641 L 685.264,-61.8042 L 686.5,-62 L 766.457,-62 L 767.289,-61.9126 L 768.084,-61.6542
 L 768.808,-61.2361 L 769.43,-60.6765 L 769.921,-60 L 770.261,-59.2361 L 770.435,-58.4181 L 770.435,-57.5819
 L 770.261,-56.7639 L 769.921,-56 L 769.43,-55.3235 L 768.808,-54.7639 L 767.969,-54.2969 L 688.012,-21.6418
 L 687.209,-21.4083 L 686.375,-21.3468 z
M 187,-18 L 185.764,-18.1958 L 185,-18.5359 L 184.323,-19.0274 L 183.764,-19.6489 L 183.346,-20.373
 L 183.087,-21.1684 L 183,-22 L 183,-54.6551 L 183.159,-55.7721 L 183.475,-56.5463 L 183.946,-57.2378
 L 184.549,-57.8164 L 185.26,-58.2569 L 186.047,-58.5399 L 186.875,-58.6532 L 187.709,-58.5917 L 188.512,-58.3582
 L 268.469,-25.7031 L 269.308,-25.2361 L 269.93,-24.6765 L 270.421,-24 L 270.761,-23.2361 L 270.935,-22.4181
 L 270.935,-21.5819 L 270.761,-20.7639 L 270.421,-20 L 269.93,-19.3235 L 269.308,-18.7639 L 268.584,-18.3458
 L 267.789,-18.0874 L 266.957,-18 z
M 353.5,-18 L 352.264,-18.1958 L 351.5,-18.5359 L 350.823,-19.0274 L 350.264,-19.6489 L 349.846,-20.373
 L 349.587,-21.1684 L 349.5,-22 L 349.5,-54.6551 L 349.659,-55.7721 L 349.975,-56.5463 L 350.446,-57.2378
 L 351.049,-57.8164 L 351.76,-58.2569 L 352.547,-58.5399 L 353.375,-58.6532 L 354.209,-58.5917 L 355.012,-58.3582
 L 434.969,-25.7031 L 435.808,-25.2361 L 436.43,-24.6765 L 436.921,-24 L 437.261,-23.2361 L 437.435,-22.4181
 L 437.435,-21.5819 L 437.261,-20.7639 L 436.921,-20 L 436.43,-19.3235 L 435.808,-18.7639 L 435.084,-18.3458
 L 434.289,-18.0874 L 433.457,-18 z
M 580.543,-18 L 579.711,-18.0874 L 578.916,-18.3458 L 578.192,-18.7639 L 577.57,-19.3235 L 577.079,-20
 L 576.739,-20.7639 L 576.565,-21.5819 L 576.565,-22.4181 L 576.739,-23.2361 L 577.079,-24 L 577.57,-24.6765
 L 578.192,-25.2361 L 579.031,-25.7031 L 658.988,-58.3582 L 659.791,-58.5917 L 660.625,-58.6532 L 661.453,-58.5399
 L 662.24,-58.2569 L 662.951,-57.8164 L 663.554,-57.2378 L 664.025,-56.5463 L 664.341,-55.7721 L 664.5,-54.6551
 L 664.5,-22 L 664.413,-21.1684 L 664.154,-20.373 L 663.736,-19.6489 L 663.177,-19.0274 L 662.5,-18.5359
 L 661.736,-18.1958 L 660.5,-18 z
M 747.043,-18 L 746.211,-18.0874 L 745.416,-18.3458 L 744.692,-18.7639 L 744.07,-19.3235 L 743.579,-20
 L 743.239,-20.7639 L 743.065,-21.5819 L 743.065,-22.4181 L 743.239,-23.2361 L 743.579,-24 L 744.07,-24.6765
 L 744.692,-25.2361 L 745.531,-25.7031 L 825.488,-58.3582 L 826.291,-58.5917 L 827.125,-58.6532 L 827.953,-58.5399
 L 828.74,-58.2569 L 829.451,-57.8164 L 830.054,-57.2378 L 830.525,-56.5463 L 830.841,-55.7721 L 831,-54.6551
 L 831,-22 L 830.913,-21.1684 L 830.654,-20.373 L 830.236,-19.6489 L 829.677,-19.0274 L 829,-18.5359
 L 828.236,-18.1958 L 827,-18 z
M 913.543,-18 L 912.711,-18.0874 L 911.916,-18.3458 L 911.192,-18.7639 L 910.57,-19.3235 L 910.079,-20
 L 909.739,-20.7639 L 909.565,-21.5819 L 909.565,-22.4181 L 909.739,-23.2361 L 910.079,-24 L 910.57,-24.6765
 L 911.192,-25.2361 L 912.031,-25.7031 L 990.488,-57.7456 L 991.291,-57.9791 L 992.125,-58.0406 L 992.953,-57.9273
 L 993.74,-57.6442 L 994.451,-57.2038 L 995.054,-56.6252 L 995.525,-55.9337 L 995.841,-55.1595 L 996,-54.0425
 L 996,-22 L 995.913,-21.1684 L 995.654,-20.373 L 995.236,-19.6489 L 994.677,-19.0274 L 994,-18.5359
 L 993.236,-18.1958 L 992,-18 z
M 22,-18 L 20.7639,-18.1958 L 20,-18.5359 L 19.3235,-19.0274 L 18.7639,-19.6489 L 18.3458,-20.373
 L 18.0874,-21.1684 L 18,-22 L 18,-54.0425 L 18.1591,-55.1595 L 18.4753,-55.9337 L 18.9455,-56.6252
 L 19.5492,-57.2038 L 20.2601,-57.6442 L 21.0469,-57.9273 L 21.8754,-58.0406 L 22.7094,-57.9791 L 23.5124,-57.7456
 L 101.969,-25.7031 L 102.808,-25.2361 L 103.43,-24.6765 L 103.921,-24 L 104.261,-23.2361 L 104.435,-22.4181
 L 104.435,-21.5819 L 104.261,-20.7639 L 103.921,-20 L 103.43,-19.3235 L 102.808,-18.7639 L 102.084,-18.3458
 L 101.289,-18.0874 L 100.457,-18 z
" stroke="black" fill="lightgray" stroke-width="0.5"/>
</svg>
