<?xml version="1.0" standalone="no"?>
<!DOCTYPE svg PUBLIC "-//W3C//DTD SVG 1.1//EN" "http://www.w3.org/Graphics/SVG/1.1/DTD/svg11.dtd">
<svg width="1257mm" height="80mm" viewBox="0 -80 1257 80" xmlns="http://www.w3.org/2000/svg" version="1.1">
<title>OpenSCAD Model</title>
<path d="
M 1257,-80 L 0,-80 L 0,-0 L 4.95,-0 L 4.95,-6 L 5.00572,-6.53017
 L 5.17046,-7.03717 L 5.437,-7.49884 L 5.79372,-7.895 L 6.22499,-8.20836 L 6.71201,-8.42519 L 7.23344,-8.53603
 L 7.76654,-8.53603 L 8.28798,-8.42519 L 8.77499,-8.20836 L 9.20627,-7.895 L 9.56299,-7.49884 L 9.82953,-7.03717
 L 9.99426,-6.53017 L 10.05,-6 L 10.05,-0 L 182.379,-0 L 182.379,-6 L 182.434,-6.53017
 L 182.599,-7.03717 L 182.866,-7.49884 L 183.222,-7.895 L 183.654,-8.20836 L 184.141,-8.42519 L 184.662,-8.53603
 L 185.195,-8.53603 L 185.717,-8.42519 L 186.204,-8.20836 L 186.635,-7.895 L 186.992,-7.49884 L 187.258,-7.03717
 L 187.423,-6.53017 L 187.479,-6 L 187.479,-0 L 359.807,-0 L 359.807,-6 L 359.863,-6.53017
 L 360.028,-7.03717 L 360.294,-7.49884 L 360.651,-7.895 L 361.082,-8.20836 L 361.569,-8.42519 L 362.091,-8.53603
 L 362.624,-8.53603 L 363.145,-8.42519 L 363.632,-8.20836 L 364.063,-7.895 L 364.42,-7.49884 L 364.687,-7.03717
 L 364.851,-6.53017 L 364.907,-6 L 364.907,-0 L 537.236,-0 L 537.236,-6 L 537.291,-6.53017
 L 537.456,-7.03717 L 537.723,-7.49884 L 538.079,-7.895 L 538.511,-8.20836 L 538.998,-8.42519 L 539.519,-8.53603
 L 540.052,-8.53603 L 540.574,-8.42519 L 541.061,-8.20836 L 541.492,-7.895 L 541.849,-7.49884 L 542.115,-7.03717
 L 542.28,-6.53017 L 542.336,-6 L 542.336,-0 L 714.664,-0 L 714.664,-6 L 714.72,-6.53017
 L 714.885,-7.03717 L 715.151,-7.49884 L 715.508,-7.895 L 715.939,-8.20836 L 716.426,-8.42519 L 716.948,-8.53603
 L 717.481,-8.53603 L 718.002,-8.42519 L 718.489,-8.20836 L 718.921,-7.895 L 719.277,-7.49884 L 719.544,-7.03717
 L 719.709,-6.53017 L 719.764,-6 L 719.764,-0 L 892.093,-0 L 892.093,-6 L 892.149,-6.53017
 L 892.313,-7.03717 L 892.58,-7.49884 L 892.937,-7.895 L 893.368,-8.20836 L 893.855,-8.42519 L 894.376,-8.53603
 L 894.909,-8.53603 L 895.431,-8.42519 L 895.918,-8.20836 L 896.349,-7.895 L 896.706,-7.49884 L 896.972,-7.03717
 L 897.137,-6.53017 L 897.193,-6 L 897.193,-0 L 1069.52,-0 L 1069.52,-6 L 1069.58,-6.53017
 L 1069.74,-7.03717 L 1070.01,-7.49884 L 1070.37,-7.895 L 1070.8,-8.20836 L 1071.28,-8.42519 L 1071.8,-8.53603
 L 1072.34,-8.53603 L 1072.86,-8.42519 L 1073.35,-8.20836 L 1073.78,-7.895 L 1074.13,-7.49884 L 1074.4,-7.03717
 L 1074.57,-6.53017 L 1074.62,-6 L 1074.62,-0 L 1246.95,-0 L 1246.95,-6 L 1247.01,-6.53017
 L 1247.17,-7.03717 L 1247.44,-7.49884 L 1247.79,-7.895 L 1248.22,-8.20836 L 1248.71,-8.42519 L 1249.23,-8.53603
 L 1249.77,-8.53603 L 1250.29,-8.42519 L 1250.77,-8.20836 L 1251.21,-7.895 L 1251.56,-7.49884 L 1251.83,-7.03717
 L 1251.99,-6.53017 L 1252.05,-6 L 1252.05,-0 L 1257,-0 z
M 6.98573,-55.607 L 6.47708,-55.6875 L 5.97964,-55.8208 L 5.49887,-56.0054 L 5.04001,-56.2392 L 4.60811,-56.5196
 L 4.20789,-56.8437 L 3.84373,-57.2079 L 3.51964,-57.6081 L 3.23917,-58.04 L 3.00537,-58.4989 L 2.82082,-58.9796
 L 2.68752,-59.4771 L 2.60696,-59.9857 L 2.58,-60.5 L 2.60696,-61.0143 L 2.68752,-61.5229 L 2.82082,-62.0204
 L 3.00537,-62.5011 L 3.23917,-62.96 L 3.51964,-63.3919 L 3.84373,-63.7921 L 4.20789,-64.1563 L 4.60811,-64.4804
 L 4.95001,-64.7024 L 4.95001,-74 L 5.00574,-74.5302 L 5.17047,-75.0372 L 5.43701,-75.4988 L 5.79373,-75.895
 L 6.22501,-76.2084 L 6.71202,-76.4252 L 7.23346,-76.536 L 7.76654,-76.536 L 8.28798,-76.4252 L 8.77499,-76.2084
 L 9.20627,-75.895 L 9.56299,-75.4988 L 9.82953,-75.0372 L 9.99426,-74.5302 L 10.05,-74 L 10.05,-64.7024
 L 10.3919,-64.4804 L 10.7921,-64.1563 L 11.1563,-63.7921 L 11.4804,-63.3919 L 11.7608,-62.96 L 11.9946,-62.5011
 L 12.1792,-62.0204 L 12.3125,-61.5229 L 12.393,-61.0143 L 12.42,-60.5 L 12.393,-59.9857 L 12.3125,-59.4771
 L 12.1792,-58.9796 L 11.9946,-58.4989 L 11.7608,-58.04 L 11.4804,-57.6081 L 11.1563,-57.2079 L 10.7921,-56.8437
 L 10.3919,-56.5196 L 9.95999,-56.2392 L 9.50113,-56.0054 L 9.02036,-55.8208 L 8.52292,-55.6875 L 8.01427,-55.607
 L 7.5,-55.58 z
M 184.414,-55.607 L 183.906,-55.6875 L 183.408,-55.8208 L 182.927,-56.0054 L 182.469,-56.2392 L 182.037,-56.5196
 L 181.636,-56.8437 L 181.272,-57.2079 L 180.948,-57.6081 L 180.668,-58.04 L 180.434,-58.4989 L 180.249,-58.9796
 L 180.116,-59.4771 L 180.036,-59.9857 L 180.009,-60.5 L 180.036,-61.0143 L 180.116,-61.5229 L 180.249,-62.0204
 L 180.434,-62.5011 L 180.668,-62.96 L 180.948,-63.3919 L 181.272,-63.7921 L 181.636,-64.1563 L 182.037,-64.4804
 L 182.379,-64.7024 L 182.379,-74 L 182.434,-74.5302 L 182.599,-75.0372 L 182.866,-75.4988 L 183.222,-75.895
 L 183.654,-76.2084 L 184.141,-76.4252 L 184.662,-76.536 L 185.195,-76.536 L 185.717,-76.4252 L 186.204,-76.2084
 L 186.635,-75.895 L 186.992,-75.4988 L 187.258,-75.0372 L 187.423,-74.5302 L 187.479,-74 L 187.479,-64.7024
 L 187.82,-64.4804 L 188.221,-64.1563 L 188.585,-63.7921 L 188.909,-63.3919 L 189.189,-62.96 L 189.423,-62.5011
 L 189.608,-62.0204 L 189.741,-61.5229 L 189.822,-61.0143 L 189.849,-60.5 L 189.822,-59.9857 L 189.741,-59.4771
 L 189.608,-58.9796 L 189.423,-58.4989 L 189.189,-58.04 L 188.909,-57.6081 L 188.585,-57.2079 L 188.221,-56.8437
 L 187.82,-56.5196 L 187.389,-56.2392 L 186.93,-56.0054 L 186.449,-55.8208 L 185.951,-55.6875 L 185.443,-55.607
 L 184.929,-55.58 z
M 361.843,-55.607 L 361.334,-55.6875 L 360.837,-55.8208 L 360.356,-56.0054 L 359.897,-56.2392 L 359.465,-56.5196
 L 359.065,-56.8437 L 358.701,-57.2079 L 358.377,-57.6081 L 358.096,-58.04 L 357.863,-58.4989 L 357.678,-58.9796
 L 357.545,-59.4771 L 357.464,-59.9857 L 357.437,-60.5 L 357.464,-61.0143 L 357.545,-61.5229 L 357.678,-62.0204
 L 357.863,-62.5011 L 358.096,-62.96 L 358.377,-63.3919 L 358.701,-63.7921 L 359.065,-64.1563 L 359.465,-64.4804
 L 359.807,-64.7024 L 359.807,-74 L 359.863,-74.5302 L 360.028,-75.0372 L 360.294,-75.4988 L 360.651,-75.895
 L 361.082,-76.2084 L 361.569,-76.4252 L 362.091,-76.536 L 362.624,-76.536 L 363.145,-76.4252 L 363.632,-76.2084
 L 364.063,-75.895 L 364.42,-75.4988 L 364.687,-75.0372 L 364.851,-74.5302 L 364.907,-74 L 364.907,-64.7024
 L 365.249,-64.4804 L 365.649,-64.1563 L 366.013,-63.7921 L 366.337,-63.3919 L 366.618,-62.96 L 366.852,-62.5011
 L 367.036,-62.0204 L 367.17,-61.5229 L 367.25,-61.0143 L 367.277,-60.5 L 367.25,-59.9857 L 367.17,-59.4771
 L 367.036,-58.9796 L 366.852,-58.4989 L 366.618,-58.04 L 366.337,-57.6081 L 366.013,-57.2079 L 365.649,-56.8437
 L 365.249,-56.5196 L 364.817,-56.2392 L 364.358,-56.0054 L 363.877,-55.8208 L 363.38,-55.6875 L 362.871,-55.607
 L 362.357,-55.58 z
M 539.271,-55.607 L 538.763,-55.6875 L 538.265,-55.8208 L 537.785,-56.0054 L 537.326,-56.2392 L 536.894,-56.5196
 L 536.494,-56.8437 L 536.129,-57.2079 L 535.805,-57.6081 L 535.525,-58.04 L 535.291,-58.4989 L 535.107,-58.9796
 L 534.973,-59.4771 L 534.893,-59.9857 L 534.866,-60.5 L 534.893,-61.0143 L 534.973,-61.5229 L 535.107,-62.0204
 L 535.291,-62.5011 L 535.525,-62.96 L 535.805,-63.3919 L 536.129,-63.7921 L 536.494,-64.1563 L 536.894,-64.4804
 L 537.236,-64.7024 L 537.236,-74 L 537.291,-74.5302 L 537.456,-75.0372 L 537.723,-75.4988 L 538.079,-75.895
 L 538.511,-76.2084 L 538.998,-76.4252 L 539.519,-76.536 L 540.052,-76.536 L 540.574,-76.4252 L 541.061,-76.2084
 L 541.492,-75.895 L 541.849,-75.4988 L 542.115,-75.0372 L 542.28,-74.5302 L 542.336,-74 L 542.336,-64.7024
 L 542.678,-64.4804 L 543.078,-64.1563 L 543.442,-63.7921 L 543.766,-63.3919 L 544.047,-62.96 L 544.28,-62.5011
 L 544.465,-62.0204 L 544.598,-61.5229 L 544.679,-61.0143 L 544.706,-60.5 L 544.679,-59.9857 L 544.598,-59.4771
 L 544.465,-58.9796 L 544.28,-58.4989 L 544.047,-58.04 L 543.766,-57.6081 L 543.442,-57.2079 L 543.078,-56.8437
 L 542.678,-56.5196 L 542.246,-56.2392 L 541.787,-56.0054 L 541.306,-55.8208 L 540.809,-55.6875 L 540.3,-55.607
 L 539.786,-55.58 z
M 716.7,-55.607 L 716.191,-55.6875 L 715.694,-55.8208 L 715.213,-56.0054 L 714.754,-56.2392 L 714.322,-56.5196
 L 713.922,-56.8437 L 713.558,-57.2079 L 713.234,-57.6081 L 712.953,-58.04 L 712.72,-58.4989 L 712.535,-58.9796
 L 712.402,-59.4771 L 712.321,-59.9857 L 712.294,-60.5 L 712.321,-61.0143 L 712.402,-61.5229 L 712.535,-62.0204
 L 712.72,-62.5011 L 712.953,-62.96 L 713.234,-63.3919 L 713.558,-63.7921 L 713.922,-64.1563 L 714.322,-64.4804
 L 714.664,-64.7024 L 714.664,-74 L 714.72,-74.5302 L 714.885,-75.0372 L 715.151,-75.4988 L 715.508,-75.895
 L 715.939,-76.2084 L 716.426,-76.4252 L 716.948,-76.536 L 717.481,-76.536 L 718.002,-76.4252 L 718.489,-76.2084
 L 718.921,-75.895 L 719.277,-75.4988 L 719.544,-75.0372 L 719.709,-74.5302 L 719.764,-74 L 719.764,-64.7024
 L 720.106,-64.4804 L 720.506,-64.1563 L 720.871,-63.7921 L 721.195,-63.3919 L 721.475,-62.96 L 721.709,-62.5011
 L 721.893,-62.0204 L 722.027,-61.5229 L 722.107,-61.0143 L 722.134,-60.5 L 722.107,-59.9857 L 722.027,-59.4771
 L 721.893,-58.9796 L 721.709,-58.4989 L 721.475,-58.04 L 721.195,-57.6081 L 720.871,-57.2079 L 720.506,-56.8437
 L 720.106,-56.5196 L 719.674,-56.2392 L 719.215,-56.0054 L 718.735,-55.8208 L 718.237,-55.6875 L 717.729,-55.607
 L 717.214,-55.58 z
M 894.129,-55.607 L 893.62,-55.6875 L 893.122,-55.8208 L 892.642,-56.0054 L 892.183,-56.2392 L 891.751,-56.5196
 L 891.351,-56.8437 L 890.987,-57.2079 L 890.662,-57.6081 L 890.382,-58.04 L 890.148,-58.4989 L 889.964,-58.9796
 L 889.83,-59.4771 L 889.75,-59.9857 L 889.723,-60.5 L 889.75,-61.0143 L 889.83,-61.5229 L 889.964,-62.0204
 L 890.148,-62.5011 L 890.382,-62.96 L 890.662,-63.3919 L 890.987,-63.7921 L 891.351,-64.1563 L 891.751,-64.4804
 L 892.093,-64.7024 L 892.093,-74 L 892.149,-74.5302 L 892.313,-75.0372 L 892.58,-75.4988 L 892.937,-75.895
 L 893.368,-76.2084 L 893.855,-76.4252 L 894.376,-76.536 L 894.909,-76.536 L 895.431,-76.4252 L 895.918,-76.2084
 L 896.349,-75.895 L 896.706,-75.4988 L 896.972,-75.0372 L 897.137,-74.5302 L 897.193,-74 L 897.193,-64.7024
 L 897.535,-64.4804 L 897.935,-64.1563 L 898.299,-63.7921 L 898.623,-63.3919 L 898.904,-62.96 L 899.137,-62.5011
 L 899.322,-62.0204 L 899.455,-61.5229 L 899.536,-61.0143 L 899.563,-60.5 L 899.536,-59.9857 L 899.455,-59.4771
 L 899.322,-58.9796 L 899.137,-58.4989 L 898.904,-58.04 L 898.623,-57.6081 L 898.299,-57.2079 L 897.935,-56.8437
 L 897.535,-56.5196 L 897.103,-56.2392 L 896.644,-56.0054 L 896.163,-55.8208 L 895.666,-55.6875 L 895.157,-55.607
 L 894.643,-55.58 z
M 1071.56,-55.607 L 1071.05,-55.6875 L 1070.55,-55.8208 L 1070.07,-56.0054 L 1069.61,-56.2392 L 1069.18,-56.5196
 L 1068.78,-56.8437 L 1068.42,-57.2079 L 1068.09,-57.6081 L 1067.81,-58.04 L 1067.58,-58.4989 L 1067.39,-58.9796
 L 1067.26,-59.4771 L 1067.18,-59.9857 L 1067.15,-60.5 L 1067.18,-61.0143 L 1067.26,-61.5229 L 1067.39,-62.0204
 L 1067.58,-62.5011 L 1067.81,-62.96 L 1068.09,-63.3919 L 1068.42,-63.7921 L 1068.78,-64.1563 L 1069.18,-64.4804
 L 1069.52,-64.7024 L 1069.52,-74 L 1069.58,-74.5302 L 1069.74,-75.0372 L 1070.01,-75.4988 L 1070.37,-75.895
 L 1070.8,-76.2084 L 1071.28,-76.4252 L 1071.8,-76.536 L 1072.34,-76.536 L 1072.86,-76.4252 L 1073.35,-76.2084
 L 1073.78,-75.895 L 1074.13,-75.4988 L 1074.4,-75.0372 L 1074.57,-74.5302 L 1074.62,-74 L 1074.62,-64.7024
 L 1074.96,-64.4804 L 1075.36,-64.1563 L 1075.73,-63.7921 L 1076.05,-63.3919 L 1076.33,-62.96 L 1076.57,-62.5011
 L 1076.75,-62.0204 L 1076.88,-61.5229 L 1076.96,-61.0143 L 1076.99,-60.5 L 1076.96,-59.9857 L 1076.88,-59.4771
 L 1076.75,-58.9796 L 1076.57,-58.4989 L 1076.33,-58.04 L 1076.05,-57.6081 L 1075.73,-57.2079 L 1075.36,-56.8437
 L 1074.96,-56.5196 L 1074.53,-56.2392 L 1074.07,-56.0054 L 1073.59,-55.8208 L 1073.09,-55.6875 L 1072.59,-55.607
 L 1072.07,-55.58 z
M 1248.99,-55.607 L 1248.48,-55.6875 L 1247.98,-55.8208 L 1247.5,-56.0054 L 1247.04,-56.2392 L 1246.61,-56.5196
 L 1246.21,-56.8437 L 1245.84,-57.2079 L 1245.52,-57.6081 L 1245.24,-58.04 L 1245.01,-58.4989 L 1244.82,-58.9796
 L 1244.69,-59.4771 L 1244.61,-59.9857 L 1244.58,-60.5 L 1244.61,-61.0143 L 1244.69,-61.5229 L 1244.82,-62.0204
 L 1245.01,-62.5011 L 1245.24,-62.96 L 1245.52,-63.3919 L 1245.84,-63.7921 L 1246.21,-64.1563 L 1246.61,-64.4804
 L 1246.95,-64.7024 L 1246.95,-74 L 1247.01,-74.5302 L 1247.17,-75.0372 L 1247.44,-75.4988 L 1247.79,-75.895
 L 1248.23,-76.2084 L 1248.71,-76.4252 L 1249.23,-76.536 L 1249.77,-76.536 L 1250.29,-76.4252 L 1250.77,-76.2084
 L 1251.21,-75.895 L 1251.56,-75.4988 L 1251.83,-75.0372 L 1251.99,-74.5302 L 1252.05,-74 L 1252.05,-64.7024
 L 1252.39,-64.4804 L 1252.79,-64.1563 L 1253.16,-63.7921 L 1253.48,-63.3919 L 1253.76,-62.96 L 1253.99,-62.5011
 L 1254.18,-62.0204 L 1254.31,-61.5229 L 1254.39,-61.0143 L 1254.42,-60.5 L 1254.39,-59.9857 L 1254.31,-59.4771
 L 1254.18,-58.9796 L 1253.99,-58.4989 L 1253.76,-58.04 L 1253.48,-57.6081 L 1253.16,-57.2079 L 1252.79,-56.8437
 L 1252.39,-56.5196 L 1251.96,-56.2392 L 1251.5,-56.0054 L 1251.02,-55.8208 L 1250.52,-55.6875 L 1250.01,-55.607
 L 1249.5,-55.58 z
M 729.177,-21.0225 L 728.396,-21.3226 L 727.695,-21.7784 L 727.104,-22.37 L 726.649,-23.0716 L 726.35,-23.8524
 L 726.214,-24.8856 L 726.214,-58 L 726.302,-58.8316 L 726.56,-59.627 L 726.978,-60.3511 L 727.538,-60.9726
 L 728.214,-61.4641 L 728.978,-61.8042 L 730.214,-62 L 816.618,-62 L 817.449,-61.9126 L 818.245,-61.6542
 L 818.969,-61.2361 L 819.59,-60.6765 L 820.082,-60 L 820.422,-59.2361 L 820.596,-58.4181 L 820.596,-57.5819
 L 820.422,-56.7639 L 820.082,-56 L 819.59,-55.3235 L 818.969,-54.7639 L 818.049,-54.2649 L 731.646,-21.1505
 L 730.838,-20.9345 L 730.003,-20.8912 z
M 627.876,-47.8133 L 627.068,-48.0293 L 610.798,-54.2649 L 609.879,-54.7639 L 609.257,-55.3235 L 608.766,-56
 L 608.425,-56.7639 L 608.252,-57.5819 L 608.252,-58.4181 L 608.425,-59.2361 L 608.766,-60 L 609.257,-60.6765
 L 609.879,-61.2361 L 610.603,-61.6542 L 611.398,-61.9126 L 612.23,-62 L 644.77,-62 L 645.808,-61.8631
 L 646.588,-61.5631 L 647.289,-61.1072 L 647.88,-60.5156 L 648.335,-59.8141 L 648.635,-59.0332 L 648.765,-58.2072
 L 648.721,-57.3722 L 648.504,-56.5645 L 648.124,-55.8197 L 647.597,-55.1701 L 646.947,-54.6441 L 646.202,-54.2649
 L 629.931,-48.0293 L 628.711,-47.77 z
M 526.162,-20.9345 L 525.354,-21.1505 L 438.951,-54.2649 L 438.031,-54.7639 L 437.41,-55.3235 L 436.918,-56
 L 436.578,-56.7639 L 436.404,-57.5819 L 436.404,-58.4181 L 436.578,-59.2361 L 436.918,-60 L 437.41,-60.6765
 L 438.031,-61.2361 L 438.755,-61.6542 L 439.551,-61.9126 L 440.382,-62 L 526.786,-62 L 528.022,-61.8042
 L 528.786,-61.4641 L 529.462,-60.9726 L 530.022,-60.3511 L 530.44,-59.627 L 530.698,-58.8316 L 530.786,-58
 L 530.786,-24.8856 L 530.65,-23.8524 L 530.351,-23.0716 L 529.896,-22.37 L 529.305,-21.7784 L 528.604,-21.3226
 L 527.823,-21.0225 L 526.997,-20.8912 z
M 348.733,-20.9345 L 347.926,-21.1505 L 261.522,-54.2649 L 260.603,-54.7639 L 259.981,-55.3235 L 259.49,-56
 L 259.149,-56.7639 L 258.976,-57.5819 L 258.976,-58.4181 L 259.149,-59.2361 L 259.49,-60 L 259.981,-60.6765
 L 260.603,-61.2361 L 261.327,-61.6542 L 262.122,-61.9126 L 262.954,-62 L 349.357,-62 L 350.593,-61.8042
 L 351.357,-61.4641 L 352.034,-60.9726 L 352.593,-60.3511 L 353.011,-59.627 L 353.27,-58.8316 L 353.357,-58
 L 353.357,-24.8856 L 353.221,-23.8524 L 352.922,-23.0716 L 352.467,-22.37 L 351.876,-21.7784 L 351.175,-21.3226
 L 350.394,-21.0225 L 349.569,-20.8912 z
M 1084.03,-21.0225 L 1083.25,-21.3226 L 1082.55,-21.7784 L 1081.96,-22.37 L 1081.51,-23.0716 L 1081.21,-23.8524
 L 1081.07,-24.8856 L 1081.07,-58 L 1081.16,-58.8316 L 1081.42,-59.627 L 1081.84,-60.3511 L 1082.39,-60.9726
 L 1083.07,-61.4641 L 1083.84,-61.8042 L 1085.07,-62 L 1171.47,-62 L 1172.31,-61.9126 L 1173.1,-61.6542
 L 1173.83,-61.2361 L 1174.45,-60.6765 L 1174.94,-60 L 1175.28,-59.2361 L 1175.45,-58.4181 L 1175.45,-57.5819
 L 1175.28,-56.7639 L 1174.94,-56 L 1174.45,-55.3235 L 1173.83,-54.7639 L 1172.91,-54.2649 L 1086.5,-21.1505
 L 1085.7,-20.9345 L 1084.86,-20.8912 z
M 171.305,-20.9345 L 170.497,-21.1505 L 84.0936,-54.2649 L 83.174,-54.7639 L 82.5525,-55.3235 L 82.061,-56
 L 81.7209,-56.7639 L 81.547,-57.5819 L 81.547,-58.4181 L 81.7209,-59.2361 L 82.061,-60 L 82.5525,-60.6765
 L 83.174,-61.2361 L 83.8981,-61.6542 L 84.6934,-61.9126 L 85.5251,-62 L 171.929,-62 L 173.165,-61.8042
 L 173.929,-61.4641 L 174.605,-60.9726 L 175.165,-60.3511 L 175.583,-59.627 L 175.841,-58.8316 L 175.929,-58
 L 175.929,-24.8856 L 175.793,-23.8524 L 175.494,-23.0716 L 175.038,-22.37 L 174.447,-21.7784 L 173.746,-21.3226
 L 172.966,-21.0225 L 172.14,-20.8912 z
M 906.606,-21.0225 L 905.825,-21.3226 L 905.124,-21.7784 L 904.533,-22.37 L 904.078,-23.0716 L 903.779,-23.8524
 L 903.643,-24.8856 L 903.643,-58 L 903.73,-58.8316 L 903.989,-59.627 L 904.407,-60.3511 L 904.966,-60.9726
 L 905.643,-61.4641 L 906.407,-61.8042 L 907.643,-62 L 994.046,-62 L 994.878,-61.9126 L 995.673,-61.6542
 L 996.397,-61.2361 L 997.019,-60.6765 L 997.51,-60 L 997.851,-59.2361 L 998.024,-58.4181 L 998.024,-57.5819
 L 997.851,-56.7639 L 997.51,-56 L 997.019,-55.3235 L 996.397,-54.7639 L 995.478,-54.2649 L 909.074,-21.1505
 L 908.266,-20.9345 L 907.431,-20.8912 z
M 552.368,-18.7686 L 551.55,-18.9424 L 550.786,-19.2826 L 550.109,-19.7741 L 549.55,-20.3955 L 549.132,-21.1197
 L 548.873,-21.915 L 548.786,-22.7467 L 548.786,-57.2533 L 548.921,-58.2866 L 549.221,-59.0674 L 549.676,-59.769
 L 550.267,-60.3606 L 550.968,-60.8164 L 551.748,-61.1165 L 552.574,-61.2477 L 553.409,-61.2044 L 554.217,-60.9884
 L 599.235,-43.7351 L 599.622,-43.5631 L 600.323,-43.1072 L 600.914,-42.5156 L 601.369,-41.8141 L 601.668,-41.0332
 L 601.799,-40.2072 L 601.754,-39.3722 L 601.537,-38.5645 L 601.157,-37.8197 L 600.631,-37.1701 L 599.981,-36.6441
 L 599.235,-36.2649 L 554.217,-19.0116 L 553.204,-18.7686 z
M 703.591,-18.7956 L 702.783,-19.0116 L 657.765,-36.2649 L 657.378,-36.4369 L 656.677,-36.8928 L 656.086,-37.4844
 L 655.631,-38.1859 L 655.332,-38.9668 L 655.201,-39.7928 L 655.246,-40.6278 L 655.463,-41.4355 L 655.843,-42.1803
 L 656.369,-42.8299 L 657.019,-43.3558 L 657.765,-43.7351 L 702.783,-60.9884 L 703.796,-61.2314 L 704.632,-61.2314
 L 705.45,-61.0576 L 706.214,-60.7175 L 706.891,-60.2259 L 707.45,-59.6045 L 707.868,-58.8803 L 708.127,-58.085
 L 708.214,-57.2534 L 708.214,-22.7466 L 708.079,-21.7134 L 707.779,-20.9326 L 707.324,-20.231 L 706.733,-19.6394
 L 706.032,-19.1836 L 705.252,-18.8835 L 704.426,-18.7522 z
M 197.929,-18 L 196.692,-18.1958 L 195.929,-18.5359 L 195.252,-19.0274 L 194.692,-19.6489 L 194.274,-20.373
 L 194.016,-21.1684 L 193.929,-22 L 193.929,-55.1144 L 194.064,-56.1476 L 194.364,-56.9284 L 194.819,-57.63
 L 195.41,-58.2216 L 196.111,-58.6774 L 196.891,-58.9775 L 197.717,-59.1088 L 198.552,-59.0654 L 199.36,-58.8495
 L 285.764,-25.7351 L 286.683,-25.2361 L 287.305,-24.6765 L 287.796,-24 L 288.136,-23.2361 L 288.31,-22.4181
 L 288.31,-21.5819 L 288.136,-20.7639 L 287.796,-20 L 287.305,-19.3235 L 286.683,-18.7639 L 285.959,-18.3458
 L 285.164,-18.0874 L 284.332,-18 z
M 375.357,-18 L 374.121,-18.1958 L 373.357,-18.5359 L 372.681,-19.0274 L 372.121,-19.6489 L 371.703,-20.373
 L 371.445,-21.1684 L 371.357,-22 L 371.357,-55.1144 L 371.493,-56.1476 L 371.792,-56.9284 L 372.247,-57.63
 L 372.838,-58.2216 L 373.539,-58.6774 L 374.32,-58.9775 L 375.146,-59.1088 L 375.981,-59.0654 L 376.789,-58.8495
 L 463.192,-25.7351 L 464.112,-25.2361 L 464.733,-24.6765 L 465.225,-24 L 465.565,-23.2361 L 465.739,-22.4181
 L 465.739,-21.5819 L 465.565,-20.7639 L 465.225,-20 L 464.733,-19.3235 L 464.112,-18.7639 L 463.388,-18.3458
 L 462.592,-18.0874 L 461.761,-18 z
M 795.239,-18 L 794.408,-18.0874 L 793.612,-18.3458 L 792.888,-18.7639 L 792.267,-19.3235 L 791.775,-20
 L 791.435,-20.7639 L 791.261,-21.5819 L 791.261,-22.4181 L 791.435,-23.2361 L 791.775,-24 L 792.267,-24.6765
 L 792.888,-25.2361 L 793.808,-25.7351 L 880.211,-58.8495 L 881.019,-59.0654 L 881.854,-59.1088 L 882.68,-58.9775
 L 883.461,-58.6774 L 884.162,-58.2216 L 884.753,-57.63 L 885.208,-56.9284 L 885.507,-56.1476 L 885.643,-55.1144
 L 885.643,-22 L 885.555,-21.1684 L 885.297,-20.373 L 884.879,-19.6489 L 884.319,-19.0274 L 883.643,-18.5359
 L 882.879,-18.1958 L 881.643,-18 z
M 972.668,-18 L 971.836,-18.0874 L 971.041,-18.3458 L 970.317,-18.7639 L 969.695,-19.3235 L 969.204,-20
 L 968.864,-20.7639 L 968.69,-21.5819 L 968.69,-22.4181 L 968.864,-23.2361 L 969.204,-24 L 969.695,-24.6765
 L 970.317,-25.2361 L 971.236,-25.7351 L 1057.64,-58.8495 L 1058.45,-59.0654 L 1059.28,-59.1088 L 1060.11,-58.9775
 L 1060.89,-58.6774 L 1061.59,-58.2216 L 1062.18,-57.63 L 1062.64,-56.9284 L 1062.94,-56.1476 L 1063.07,-55.1144
 L 1063.07,-22 L 1062.98,-21.1684 L 1062.73,-20.373 L 1062.31,-19.6489 L 1061.75,-19.0274 L 1061.07,-18.5359
 L 1060.31,-18.1958 L 1059.07,-18 z
M 22,-18 L 20.7639,-18.1958 L 20,-18.5359 L 19.3235,-19.0274 L 18.7639,-19.6489 L 18.3458,-20.373
 L 18.0874,-21.1684 L 18,-22 L 18,-54.5395 L 18.1357,-55.5727 L 18.435,-56.3535 L 18.8901,-57.0551
 L 19.4811,-57.6467 L 20.1821,-58.1026 L 20.9627,-58.4026 L 21.7885,-58.5339 L 22.6236,-58.4906 L 23.4315,-58.2746
 L 108.335,-25.7351 L 109.255,-25.2361 L 109.876,-24.6765 L 110.368,-24 L 110.708,-23.2361 L 110.882,-22.4181
 L 110.882,-21.5819 L 110.708,-20.7639 L 110.368,-20 L 109.876,-19.3235 L 109.255,-18.7639 L 108.53,-18.3458
 L 107.735,-18.0874 L 106.903,-18 z
M 1150.1,-18 L 1149.26,-18.0874 L 1148.47,-18.3458 L 1147.75,-18.7639 L 1147.12,-19.3235 L 1146.63,-20
 L 1146.29,-20.7639 L 1146.12,-21.5819 L 1146.12,-22.4181 L 1146.29,-23.2361 L 1146.63,-24 L 1147.12,-24.6765
 L 1147.75,-25.2361 L 1148.67,-25.7351 L 1233.57,-58.2746 L 1234.38,-58.4906 L 1235.21,-58.5339 L 1236.04,-58.4026
 L 1236.82,-58.1026 L 1237.52,-57.6467 L 1238.11,-57.0551 L 1238.56,-56.3535 L 1238.86,-55.5727 L 1239,-54.5395
 L 1239,-22 L 1238.91,-21.1684 L 1238.65,-20.373 L 1238.24,-19.6489 L 1237.68,-19.0274 L 1237,-18.5359
 L 1236.24,-18.1958 L 1235,-18 z
M 612.23,-18 L 611.192,-18.1369 L 610.412,-18.4369 L 609.711,-18.8928 L 609.12,-19.4844 L 608.665,-20.1859
 L 608.365,-20.9668 L 608.235,-21.7928 L 608.279,-22.6278 L 608.496,-23.4355 L 608.876,-24.1803 L 609.403,-24.8299
 L 610.053,-25.3558 L 610.798,-25.7351 L 627.068,-31.9707 L 628.288,-32.23 L 629.124,-32.1867 L 629.931,-31.9707
 L 646.202,-25.7351 L 647.121,-25.2361 L 647.743,-24.6765 L 648.234,-24 L 648.575,-23.2361 L 648.748,-22.4181
 L 648.748,-21.5819 L 648.575,-20.7639 L 648.234,-20 L 647.743,-19.3235 L 647.121,-18.7639 L 646.397,-18.3458
 L 645.602,-18.0874 L 644.77,-18 z
" stroke="black" fill="lightgray" stroke-width="0.5"/>
</svg>
