<?xml version="1.0" standalone="no"?>
<!DOCTYPE svg PUBLIC "-//W3C//DTD SVG 1.1//EN" "http://www.w3.org/Graphics/SVG/1.1/DTD/svg11.dtd">
<svg width="1013mm" height="80mm" viewBox="0 -80 1013 80" xmlns="http://www.w3.org/2000/svg" version="1.1">
<title>OpenSCAD Model</title>
<path d="
M 1013,-80 L 0,-80 L 0,-0 L 4.95,-0 L 4.95,-6 L 5.00572,-6.53017
 L 5.17046,-7.03717 L 5.437,-7.49884 L 5.79372,-7.895 L 6.22499,-8.20836 L 6.71201,-8.42519 L 7.23344,-8.53603
 L 7.76654,-8.53603 L 8.28798,-8.42519 L 8.77499,-8.20836 L 9.20627,-7.895 L 9.56299,-7.49884 L 9.82953,-7.03717
 L 9.99426,-6.53017 L 10.05,-6 L 10.05,-0 L 171.283,-0 L 171.283,-6 L 171.339,-6.53017
 L 171.504,-7.03717 L 171.77,-7.49884 L 172.127,-7.895 L 172.558,-8.20836 L 173.045,-8.42519 L 173.567,-8.53603
 L 174.1,-8.53603 L 174.621,-8.42519 L 175.108,-8.20836 L 175.54,-7.895 L 175.896,-7.49884 L 176.163,-7.03717
 L 176.328,-6.53017 L 176.383,-6 L 176.383,-0 L 337.617,-0 L 337.617,-6 L 337.672,-6.53017
 L 337.837,-7.03717 L 338.104,-7.49884 L 338.46,-7.895 L 338.892,-8.20836 L 339.379,-8.42519 L 339.9,-8.53603
 L 340.433,-8.53603 L 340.955,-8.42519 L 341.442,-8.20836 L 341.873,-7.895 L 342.23,-7.49884 L 342.496,-7.03717
 L 342.661,-6.53017 L 342.717,-6 L 342.717,-0 L 503.95,-0 L 503.95,-6 L 504.006,-6.53017
 L 504.17,-7.03717 L 504.437,-7.49884 L 504.794,-7.895 L 505.225,-8.20836 L 505.712,-8.42519 L 506.233,-8.53603
 L 506.767,-8.53603 L 507.288,-8.42519 L 507.775,-8.20836 L 508.206,-7.895 L 508.563,-7.49884 L 508.83,-7.03717
 L 508.994,-6.53017 L 509.05,-6 L 509.05,-0 L 670.283,-0 L 670.283,-6 L 670.339,-6.53017
 L 670.504,-7.03717 L 670.77,-7.49884 L 671.127,-7.895 L 671.558,-8.20836 L 672.045,-8.42519 L 672.567,-8.53603
 L 673.1,-8.53603 L 673.621,-8.42519 L 674.108,-8.20836 L 674.54,-7.895 L 674.896,-7.49884 L 675.163,-7.03717
 L 675.328,-6.53017 L 675.383,-6 L 675.383,-0 L 836.617,-0 L 836.617,-6 L 836.672,-6.53017
 L 836.837,-7.03717 L 837.104,-7.49884 L 837.46,-7.895 L 837.892,-8.20836 L 838.379,-8.42519 L 838.9,-8.53603
 L 839.433,-8.53603 L 839.955,-8.42519 L 840.442,-8.20836 L 840.873,-7.895 L 841.23,-7.49884 L 841.496,-7.03717
 L 841.661,-6.53017 L 841.717,-6 L 841.717,-0 L 1002.95,-0 L 1002.95,-6 L 1003.01,-6.53017
 L 1003.17,-7.03717 L 1003.44,-7.49884 L 1003.79,-7.895 L 1004.22,-8.20836 L 1004.71,-8.42519 L 1005.23,-8.53603
 L 1005.77,-8.53603 L 1006.29,-8.42519 L 1006.77,-8.20836 L 1007.21,-7.895 L 1007.56,-7.49884 L 1007.83,-7.03717
 L 1007.99,-6.53017 L 1008.05,-6 L 1008.05,-0 L 1013,-0 z
M 6.98573,-55.607 L 6.47708,-55.6875 L 5.97964,-55.8208 L 5.49887,-56.0054 L 5.04001,-56.2392 L 4.60811,-56.5196
 L 4.20789,-56.8437 L 3.84373,-57.2079 L 3.51964,-57.6081 L 3.23917,-58.04 L 3.00537,-58.4989 L 2.82082,-58.9796
 L 2.68752,-59.4771 L 2.60696,-59.9857 L 2.58,-60.5 L 2.60696,-61.0143 L 2.68752,-61.5229 L 2.82082,-62.0204
 L 3.00537,-62.5011 L 3.23917,-62.96 L 3.51964,-63.3919 L 3.84373,-63.7921 L 4.20789,-64.1563 L 4.60811,-64.4804
 L 4.95001,-64.7024 L 4.95001,-74 L 5.00574,-74.5302 L 5.17047,-75.0372 L 5.43701,-75.4988 L 5.79373,-75.895
 L 6.22501,-76.2084 L 6.71202,-76.4252 L 7.23346,-76.536 L 7.76654,-76.536 L 8.28798,-76.4252 L 8.77499,-76.2084
 L 9.20627,-75.895 L 9.56299,-75.4988 L 9.82953,-75.0372 L 9.99426,-74.5302 L 10.05,-74 L 10.05,-64.7024
 L 10.3919,-64.4804 L 10.7921,-64.1563 L 11.1563,-63.7921 L 11.4804,-63.3919 L 11.7608,-62.96 L 11.9946,-62.5011
 L 12.1792,-62.0204 L 12.3125,-61.5229 L 12.393,-61.0143 L 12.42,-60.5 L 12.393,-59.9857 L 12.3125,-59.4771
 L 12.1792,-58.9796 L 11.9946,-58.4989 L 11.7608,-58.04 L 11.4804,-57.6081 L 11.1563,-57.2079 L 10.7921,-56.8437
 L 10.3919,-56.5196 L 9.95999,-56.2392 L 9.50113,-56.0054 L 9.02036,-55.8208 L 8.52292,-55.6875 L 8.01427,-55.607
 L 7.5,-55.58 z
M 173.319,-55.607 L 172.81,-55.6875 L 172.313,-55.8208 L 171.832,-56.0054 L 171.373,-56.2392 L 170.941,-56.5196
 L 170.541,-56.8437 L 170.177,-57.2079 L 169.853,-57.6081 L 169.572,-58.04 L 169.339,-58.4989 L 169.154,-58.9796
 L 169.021,-59.4771 L 168.94,-59.9857 L 168.913,-60.5 L 168.94,-61.0143 L 169.021,-61.5229 L 169.154,-62.0204
 L 169.339,-62.5011 L 169.572,-62.96 L 169.853,-63.3919 L 170.177,-63.7921 L 170.541,-64.1563 L 170.941,-64.4804
 L 171.283,-64.7024 L 171.283,-74 L 171.339,-74.5302 L 171.504,-75.0372 L 171.77,-75.4988 L 172.127,-75.895
 L 172.558,-76.2084 L 173.045,-76.4252 L 173.567,-76.536 L 174.1,-76.536 L 174.621,-76.4252 L 175.108,-76.2084
 L 175.54,-75.895 L 175.896,-75.4988 L 176.163,-75.0372 L 176.328,-74.5302 L 176.383,-74 L 176.383,-64.7024
 L 176.725,-64.4804 L 177.125,-64.1563 L 177.49,-63.7921 L 177.814,-63.3919 L 178.094,-62.96 L 178.328,-62.5011
 L 178.513,-62.0204 L 178.646,-61.5229 L 178.726,-61.0143 L 178.753,-60.5 L 178.726,-59.9857 L 178.646,-59.4771
 L 178.513,-58.9796 L 178.328,-58.4989 L 178.094,-58.04 L 177.814,-57.6081 L 177.49,-57.2079 L 177.125,-56.8437
 L 176.725,-56.5196 L 176.293,-56.2392 L 175.834,-56.0054 L 175.354,-55.8208 L 174.856,-55.6875 L 174.348,-55.607
 L 173.833,-55.58 z
M 339.652,-55.607 L 339.144,-55.6875 L 338.646,-55.8208 L 338.166,-56.0054 L 337.707,-56.2392 L 337.275,-56.5196
 L 336.875,-56.8437 L 336.51,-57.2079 L 336.186,-57.6081 L 335.906,-58.04 L 335.672,-58.4989 L 335.487,-58.9796
 L 335.354,-59.4771 L 335.274,-59.9857 L 335.247,-60.5 L 335.274,-61.0143 L 335.354,-61.5229 L 335.487,-62.0204
 L 335.672,-62.5011 L 335.906,-62.96 L 336.186,-63.3919 L 336.51,-63.7921 L 336.875,-64.1563 L 337.275,-64.4804
 L 337.617,-64.7024 L 337.617,-74 L 337.672,-74.5302 L 337.837,-75.0372 L 338.104,-75.4988 L 338.46,-75.895
 L 338.892,-76.2084 L 339.379,-76.4252 L 339.9,-76.536 L 340.433,-76.536 L 340.955,-76.4252 L 341.442,-76.2084
 L 341.873,-75.895 L 342.23,-75.4988 L 342.496,-75.0372 L 342.661,-74.5302 L 342.717,-74 L 342.717,-64.7024
 L 343.059,-64.4804 L 343.459,-64.1563 L 343.823,-63.7921 L 344.147,-63.3919 L 344.427,-62.96 L 344.661,-62.5011
 L 344.846,-62.0204 L 344.979,-61.5229 L 345.06,-61.0143 L 345.087,-60.5 L 345.06,-59.9857 L 344.979,-59.4771
 L 344.846,-58.9796 L 344.661,-58.4989 L 344.427,-58.04 L 344.147,-57.6081 L 343.823,-57.2079 L 343.459,-56.8437
 L 343.059,-56.5196 L 342.627,-56.2392 L 342.168,-56.0054 L 341.687,-55.8208 L 341.19,-55.6875 L 340.681,-55.607
 L 340.167,-55.58 z
M 505.986,-55.607 L 505.477,-55.6875 L 504.98,-55.8208 L 504.499,-56.0054 L 504.04,-56.2392 L 503.608,-56.5196
 L 503.208,-56.8437 L 502.844,-57.2079 L 502.52,-57.6081 L 502.239,-58.04 L 502.005,-58.4989 L 501.821,-58.9796
 L 501.688,-59.4771 L 501.607,-59.9857 L 501.58,-60.5 L 501.607,-61.0143 L 501.688,-61.5229 L 501.821,-62.0204
 L 502.005,-62.5011 L 502.239,-62.96 L 502.52,-63.3919 L 502.844,-63.7921 L 503.208,-64.1563 L 503.608,-64.4804
 L 503.95,-64.7024 L 503.95,-74 L 504.006,-74.5302 L 504.17,-75.0372 L 504.437,-75.4988 L 504.794,-75.895
 L 505.225,-76.2084 L 505.712,-76.4252 L 506.233,-76.536 L 506.767,-76.536 L 507.288,-76.4252 L 507.775,-76.2084
 L 508.206,-75.895 L 508.563,-75.4988 L 508.83,-75.0372 L 508.994,-74.5302 L 509.05,-74 L 509.05,-64.7024
 L 509.392,-64.4804 L 509.792,-64.1563 L 510.156,-63.7921 L 510.48,-63.3919 L 510.761,-62.96 L 510.995,-62.5011
 L 511.179,-62.0204 L 511.312,-61.5229 L 511.393,-61.0143 L 511.42,-60.5 L 511.393,-59.9857 L 511.312,-59.4771
 L 511.179,-58.9796 L 510.995,-58.4989 L 510.761,-58.04 L 510.48,-57.6081 L 510.156,-57.2079 L 509.792,-56.8437
 L 509.392,-56.5196 L 508.96,-56.2392 L 508.501,-56.0054 L 508.02,-55.8208 L 507.523,-55.6875 L 507.014,-55.607
 L 506.5,-55.58 z
M 672.319,-55.607 L 671.81,-55.6875 L 671.313,-55.8208 L 670.832,-56.0054 L 670.373,-56.2392 L 669.941,-56.5196
 L 669.541,-56.8437 L 669.177,-57.2079 L 668.853,-57.6081 L 668.572,-58.04 L 668.339,-58.4989 L 668.154,-58.9796
 L 668.021,-59.4771 L 667.94,-59.9857 L 667.913,-60.5 L 667.94,-61.0143 L 668.021,-61.5229 L 668.154,-62.0204
 L 668.339,-62.5011 L 668.572,-62.96 L 668.853,-63.3919 L 669.177,-63.7921 L 669.541,-64.1563 L 669.941,-64.4804
 L 670.283,-64.7024 L 670.283,-74 L 670.339,-74.5302 L 670.504,-75.0372 L 670.77,-75.4988 L 671.127,-75.895
 L 671.558,-76.2084 L 672.045,-76.4252 L 672.567,-76.536 L 673.1,-76.536 L 673.621,-76.4252 L 674.108,-76.2084
 L 674.54,-75.895 L 674.896,-75.4988 L 675.163,-75.0372 L 675.328,-74.5302 L 675.383,-74 L 675.383,-64.7024
 L 675.725,-64.4804 L 676.125,-64.1563 L 676.49,-63.7921 L 676.814,-63.3919 L 677.094,-62.96 L 677.328,-62.5011
 L 677.513,-62.0204 L 677.646,-61.5229 L 677.726,-61.0143 L 677.753,-60.5 L 677.726,-59.9857 L 677.646,-59.4771
 L 677.513,-58.9796 L 677.328,-58.4989 L 677.094,-58.04 L 676.814,-57.6081 L 676.49,-57.2079 L 676.125,-56.8437
 L 675.725,-56.5196 L 675.293,-56.2392 L 674.834,-56.0054 L 674.354,-55.8208 L 673.856,-55.6875 L 673.348,-55.607
 L 672.833,-55.58 z
M 838.652,-55.607 L 838.144,-55.6875 L 837.646,-55.8208 L 837.166,-56.0054 L 836.707,-56.2392 L 836.275,-56.5196
 L 835.875,-56.8437 L 835.51,-57.2079 L 835.186,-57.6081 L 834.906,-58.04 L 834.672,-58.4989 L 834.487,-58.9796
 L 834.354,-59.4771 L 834.274,-59.9857 L 834.247,-60.5 L 834.274,-61.0143 L 834.354,-61.5229 L 834.487,-62.0204
 L 834.672,-62.5011 L 834.906,-62.96 L 835.186,-63.3919 L 835.51,-63.7921 L 835.875,-64.1563 L 836.275,-64.4804
 L 836.617,-64.7024 L 836.617,-74 L 836.672,-74.5302 L 836.837,-75.0372 L 837.104,-75.4988 L 837.46,-75.895
 L 837.892,-76.2084 L 838.379,-76.4252 L 838.9,-76.536 L 839.433,-76.536 L 839.955,-76.4252 L 840.442,-76.2084
 L 840.873,-75.895 L 841.23,-75.4988 L 841.496,-75.0372 L 841.661,-74.5302 L 841.717,-74 L 841.717,-64.7024
 L 842.059,-64.4804 L 842.459,-64.1563 L 842.823,-63.7921 L 843.147,-63.3919 L 843.427,-62.96 L 843.661,-62.5011
 L 843.846,-62.0204 L 843.979,-61.5229 L 844.06,-61.0143 L 844.087,-60.5 L 844.06,-59.9857 L 843.979,-59.4771
 L 843.846,-58.9796 L 843.661,-58.4989 L 843.427,-58.04 L 843.147,-57.6081 L 842.823,-57.2079 L 842.459,-56.8437
 L 842.059,-56.5196 L 841.627,-56.2392 L 841.168,-56.0054 L 840.687,-55.8208 L 840.19,-55.6875 L 839.681,-55.607
 L 839.167,-55.58 z
M 1004.99,-55.607 L 1004.48,-55.6875 L 1003.98,-55.8208 L 1003.5,-56.0054 L 1003.04,-56.2392 L 1002.61,-56.5196
 L 1002.21,-56.8437 L 1001.84,-57.2079 L 1001.52,-57.6081 L 1001.24,-58.04 L 1001.01,-58.4989 L 1000.82,-58.9796
 L 1000.69,-59.4771 L 1000.61,-59.9857 L 1000.58,-60.5 L 1000.61,-61.0143 L 1000.69,-61.5229 L 1000.82,-62.0204
 L 1001.01,-62.5011 L 1001.24,-62.96 L 1001.52,-63.3919 L 1001.84,-63.7921 L 1002.21,-64.1563 L 1002.61,-64.4804
 L 1002.95,-64.7024 L 1002.95,-74 L 1003.01,-74.5302 L 1003.17,-75.0372 L 1003.44,-75.4988 L 1003.79,-75.895
 L 1004.23,-76.2084 L 1004.71,-76.4252 L 1005.23,-76.536 L 1005.77,-76.536 L 1006.29,-76.4252 L 1006.77,-76.2084
 L 1007.21,-75.895 L 1007.56,-75.4988 L 1007.83,-75.0372 L 1007.99,-74.5302 L 1008.05,-74 L 1008.05,-64.7024
 L 1008.39,-64.4804 L 1008.79,-64.1563 L 1009.16,-63.7921 L 1009.48,-63.3919 L 1009.76,-62.96 L 1009.99,-62.5011
 L 1010.18,-62.0204 L 1010.31,-61.5229 L 1010.39,-61.0143 L 1010.42,-60.5 L 1010.39,-59.9857 L 1010.31,-59.4771
 L 1010.18,-58.9796 L 1009.99,-58.4989 L 1009.76,-58.04 L 1009.48,-57.6081 L 1009.16,-57.2079 L 1008.79,-56.8437
 L 1008.39,-56.5196 L 1007.96,-56.2392 L 1007.5,-56.0054 L 1007.02,-55.8208 L 1006.52,-55.6875 L 1006.01,-55.607
 L 1005.5,-55.58 z
M 851.215,-21.4672 L 850.428,-21.75 L 849.717,-22.1902 L 849.113,-22.7686 L 848.643,-23.46 L 848.326,-24.234
 L 848.167,-25.3524 L 848.167,-58 L 848.254,-58.8316 L 848.512,-59.627 L 848.931,-60.3511 L 849.49,-60.9726
 L 850.167,-61.4641 L 850.931,-61.8042 L 852.167,-62 L 932.025,-62 L 932.857,-61.9126 L 933.652,-61.6542
 L 934.376,-61.2361 L 934.998,-60.6765 L 935.489,-60 L 935.83,-59.2361 L 936.003,-58.4181 L 936.003,-57.5819
 L 935.83,-56.7639 L 935.489,-56 L 934.998,-55.3235 L 934.376,-54.7639 L 933.539,-54.2975 L 853.68,-21.6498
 L 852.877,-21.416 L 852.044,-21.3542 z
M 326.456,-21.416 L 325.653,-21.6498 L 245.794,-54.2975 L 244.957,-54.7639 L 244.335,-55.3235 L 243.844,-56
 L 243.504,-56.7639 L 243.33,-57.5819 L 243.33,-58.4181 L 243.504,-59.2361 L 243.844,-60 L 244.335,-60.6765
 L 244.957,-61.2361 L 245.681,-61.6542 L 246.476,-61.9126 L 247.308,-62 L 327.167,-62 L 328.403,-61.8042
 L 329.167,-61.4641 L 329.843,-60.9726 L 330.403,-60.3511 L 330.821,-59.627 L 331.079,-58.8316 L 331.167,-58
 L 331.167,-25.3524 L 331.007,-24.234 L 330.691,-23.46 L 330.22,-22.7686 L 329.616,-22.1902 L 328.905,-21.75
 L 328.118,-21.4672 L 327.29,-21.3542 z
M 160.123,-21.416 L 159.32,-21.6498 L 79.461,-54.2975 L 78.6235,-54.7639 L 78.0021,-55.3235 L 77.5106,-56
 L 77.1704,-56.7639 L 76.9966,-57.5819 L 76.9966,-58.4181 L 77.1704,-59.2361 L 77.5106,-60 L 78.0021,-60.6765
 L 78.6235,-61.2361 L 79.3477,-61.6542 L 80.143,-61.9126 L 80.9747,-62 L 160.833,-62 L 162.069,-61.8042
 L 162.833,-61.4641 L 163.51,-60.9726 L 164.069,-60.3511 L 164.488,-59.627 L 164.746,-58.8316 L 164.833,-58
 L 164.833,-25.3524 L 164.674,-24.234 L 164.357,-23.46 L 163.887,-22.7686 L 163.283,-22.1902 L 162.572,-21.75
 L 161.785,-21.4672 L 160.956,-21.3542 z
M 492.789,-21.416 L 491.986,-21.6498 L 412.128,-54.2975 L 411.29,-54.7639 L 410.669,-55.3235 L 410.177,-56
 L 409.837,-56.7639 L 409.663,-57.5819 L 409.663,-58.4181 L 409.837,-59.2361 L 410.177,-60 L 410.669,-60.6765
 L 411.29,-61.2361 L 412.014,-61.6542 L 412.81,-61.9126 L 413.641,-62 L 493.5,-62 L 494.736,-61.8042
 L 495.5,-61.4641 L 496.177,-60.9726 L 496.736,-60.3511 L 497.154,-59.627 L 497.413,-58.8316 L 497.5,-58
 L 497.5,-25.3524 L 497.34,-24.234 L 497.024,-23.46 L 496.554,-22.7686 L 495.95,-22.1902 L 495.239,-21.75
 L 494.452,-21.4672 L 493.623,-21.3542 z
M 518.548,-21.4672 L 517.761,-21.75 L 517.05,-22.1902 L 516.446,-22.7686 L 515.976,-23.46 L 515.66,-24.234
 L 515.5,-25.3524 L 515.5,-58 L 515.587,-58.8316 L 515.846,-59.627 L 516.264,-60.3511 L 516.823,-60.9726
 L 517.5,-61.4641 L 518.264,-61.8042 L 519.5,-62 L 599.359,-62 L 600.19,-61.9126 L 600.986,-61.6542
 L 601.71,-61.2361 L 602.331,-60.6765 L 602.823,-60 L 603.163,-59.2361 L 603.337,-58.4181 L 603.337,-57.5819
 L 603.163,-56.7639 L 602.823,-56 L 602.331,-55.3235 L 601.71,-54.7639 L 600.872,-54.2975 L 521.014,-21.6498
 L 520.211,-21.416 L 519.377,-21.3542 z
M 684.882,-21.4672 L 684.095,-21.75 L 683.384,-22.1902 L 682.78,-22.7686 L 682.309,-23.46 L 681.993,-24.234
 L 681.833,-25.3524 L 681.833,-58 L 681.921,-58.8316 L 682.179,-59.627 L 682.597,-60.3511 L 683.157,-60.9726
 L 683.833,-61.4641 L 684.597,-61.8042 L 685.833,-62 L 765.692,-62 L 766.524,-61.9126 L 767.319,-61.6542
 L 768.043,-61.2361 L 768.665,-60.6765 L 769.156,-60 L 769.496,-59.2361 L 769.67,-58.4181 L 769.67,-57.5819
 L 769.496,-56.7639 L 769.156,-56 L 768.665,-55.3235 L 768.043,-54.7639 L 767.206,-54.2975 L 687.347,-21.6498
 L 686.544,-21.416 L 685.71,-21.3542 z
M 186.833,-18 L 185.597,-18.1958 L 184.833,-18.5359 L 184.157,-19.0274 L 183.597,-19.6489 L 183.179,-20.373
 L 182.921,-21.1684 L 182.833,-22 L 182.833,-54.6476 L 182.993,-55.766 L 183.309,-56.54 L 183.78,-57.2314
 L 184.384,-57.8098 L 185.095,-58.25 L 185.882,-58.5328 L 186.71,-58.6457 L 187.544,-58.584 L 188.347,-58.3502
 L 268.206,-25.7025 L 269.043,-25.2361 L 269.665,-24.6765 L 270.156,-24 L 270.496,-23.2361 L 270.67,-22.4181
 L 270.67,-21.5819 L 270.496,-20.7639 L 270.156,-20 L 269.665,-19.3235 L 269.043,-18.7639 L 268.319,-18.3458
 L 267.524,-18.0874 L 266.692,-18 z
M 353.167,-18 L 351.931,-18.1958 L 351.167,-18.5359 L 350.49,-19.0274 L 349.931,-19.6489 L 349.512,-20.373
 L 349.254,-21.1684 L 349.167,-22 L 349.167,-54.6476 L 349.326,-55.766 L 349.643,-56.54 L 350.113,-57.2314
 L 350.717,-57.8098 L 351.428,-58.25 L 352.215,-58.5328 L 353.044,-58.6457 L 353.877,-58.584 L 354.68,-58.3502
 L 434.539,-25.7025 L 435.376,-25.2361 L 435.998,-24.6765 L 436.489,-24 L 436.83,-23.2361 L 437.003,-22.4181
 L 437.003,-21.5819 L 436.83,-20.7639 L 436.489,-20 L 435.998,-19.3235 L 435.376,-18.7639 L 434.652,-18.3458
 L 433.857,-18.0874 L 433.025,-18 z
M 579.975,-18 L 579.143,-18.0874 L 578.348,-18.3458 L 577.624,-18.7639 L 577.002,-19.3235 L 576.511,-20
 L 576.17,-20.7639 L 575.997,-21.5819 L 575.997,-22.4181 L 576.17,-23.2361 L 576.511,-24 L 577.002,-24.6765
 L 577.624,-25.2361 L 578.461,-25.7025 L 658.32,-58.3502 L 659.123,-58.584 L 659.956,-58.6457 L 660.785,-58.5328
 L 661.572,-58.25 L 662.283,-57.8098 L 662.887,-57.2314 L 663.357,-56.54 L 663.674,-55.766 L 663.833,-54.6476
 L 663.833,-22 L 663.746,-21.1684 L 663.488,-20.373 L 663.069,-19.6489 L 662.51,-19.0274 L 661.833,-18.5359
 L 661.069,-18.1958 L 659.833,-18 z
M 746.308,-18 L 745.476,-18.0874 L 744.681,-18.3458 L 743.957,-18.7639 L 743.335,-19.3235 L 742.844,-20
 L 742.504,-20.7639 L 742.33,-21.5819 L 742.33,-22.4181 L 742.504,-23.2361 L 742.844,-24 L 743.335,-24.6765
 L 743.957,-25.2361 L 744.794,-25.7025 L 824.653,-58.3502 L 825.456,-58.584 L 826.29,-58.6457 L 827.118,-58.5328
 L 827.905,-58.25 L 828.616,-57.8098 L 829.22,-57.2314 L 829.691,-56.54 L 830.007,-55.766 L 830.167,-54.6476
 L 830.167,-22 L 830.079,-21.1684 L 829.821,-20.373 L 829.403,-19.6489 L 828.843,-19.0274 L 828.167,-18.5359
 L 827.403,-18.1958 L 826.167,-18 z
M 912.641,-18 L 911.81,-18.0874 L 911.014,-18.3458 L 910.29,-18.7639 L 909.669,-19.3235 L 909.177,-20
 L 908.837,-20.7639 L 908.663,-21.5819 L 908.663,-22.4181 L 908.837,-23.2361 L 909.177,-24 L 909.669,-24.6765
 L 910.29,-25.2361 L 911.128,-25.7025 L 989.486,-57.7369 L 990.289,-57.9707 L 991.123,-58.0325 L 991.952,-57.9195
 L 992.739,-57.6367 L 993.45,-57.1965 L 994.054,-56.6181 L 994.524,-55.9268 L 994.84,-55.1527 L 995,-54.0344
 L 995,-22 L 994.913,-21.1684 L 994.654,-20.373 L 994.236,-19.6489 L 993.677,-19.0274 L 993,-18.5359
 L 992.236,-18.1958 L 991,-18 z
M 22,-18 L 20.7639,-18.1958 L 20,-18.5359 L 19.3235,-19.0274 L 18.7639,-19.6489 L 18.3458,-20.373
 L 18.0874,-21.1684 L 18,-22 L 18,-54.0344 L 18.1595,-55.1527 L 18.476,-55.9268 L 18.9464,-56.6181
 L 19.5503,-57.1965 L 20.2613,-57.6367 L 21.0483,-57.9195 L 21.8768,-58.0325 L 22.7108,-57.9707 L 23.5137,-57.7369
 L 101.872,-25.7025 L 102.71,-25.2361 L 103.331,-24.6765 L 103.823,-24 L 104.163,-23.2361 L 104.337,-22.4181
 L 104.337,-21.5819 L 104.163,-20.7639 L 103.823,-20 L 103.331,-19.3235 L 102.71,-18.7639 L 101.986,-18.3458
 L 101.19,-18.0874 L 100.359,-18 z
" stroke="black" fill="lightgray" stroke-width="0.5"/>
</svg>
