<?xml version="1.0" standalone="no"?>
<!DOCTYPE svg PUBLIC "-//W3C//DTD SVG 1.1//EN" "http://www.w3.org/Graphics/SVG/1.1/DTD/svg11.dtd">
<svg width="1380mm" height="80mm" viewBox="0 -80 1380 80" xmlns="http://www.w3.org/2000/svg" version="1.1">
<title>OpenSCAD Model</title>
<path d="
M 1380,-80 L 0,-80 L 0,-0 L 4.95,-0 L 4.95,-6 L 5.00572,-6.53017
 L 5.17046,-7.03717 L 5.437,-7.49884 L 5.79372,-7.895 L 6.22499,-8.20836 L 6.71201,-8.42519 L 7.23344,-8.53603
 L 7.76654,-8.53603 L 8.28798,-8.42519 L 8.77499,-8.20836 L 9.20627,-7.895 L 9.56299,-7.49884 L 9.82953,-7.03717
 L 9.99426,-6.53017 L 10.05,-6 L 10.05,-0 L 199.95,-0 L 199.95,-6 L 200.006,-6.53017
 L 200.17,-7.03717 L 200.437,-7.49884 L 200.794,-7.895 L 201.225,-8.20836 L 201.712,-8.42519 L 202.233,-8.53603
 L 202.767,-8.53603 L 203.288,-8.42519 L 203.775,-8.20836 L 204.206,-7.895 L 204.563,-7.49884 L 204.83,-7.03717
 L 204.994,-6.53017 L 205.05,-6 L 205.05,-0 L 394.95,-0 L 394.95,-6 L 395.006,-6.53017
 L 395.17,-7.03717 L 395.437,-7.49884 L 395.794,-7.895 L 396.225,-8.20836 L 396.712,-8.42519 L 397.233,-8.53603
 L 397.767,-8.53603 L 398.288,-8.42519 L 398.775,-8.20836 L 399.206,-7.895 L 399.563,-7.49884 L 399.83,-7.03717
 L 399.994,-6.53017 L 400.05,-6 L 400.05,-0 L 589.95,-0 L 589.95,-6 L 590.006,-6.53017
 L 590.17,-7.03717 L 590.437,-7.49884 L 590.794,-7.895 L 591.225,-8.20836 L 591.712,-8.42519 L 592.233,-8.53603
 L 592.767,-8.53603 L 593.288,-8.42519 L 593.775,-8.20836 L 594.206,-7.895 L 594.563,-7.49884 L 594.83,-7.03717
 L 594.994,-6.53017 L 595.05,-6 L 595.05,-0 L 784.95,-0 L 784.95,-6 L 785.006,-6.53017
 L 785.17,-7.03717 L 785.437,-7.49884 L 785.794,-7.895 L 786.225,-8.20836 L 786.712,-8.42519 L 787.233,-8.53603
 L 787.767,-8.53603 L 788.288,-8.42519 L 788.775,-8.20836 L 789.206,-7.895 L 789.563,-7.49884 L 789.83,-7.03717
 L 789.994,-6.53017 L 790.05,-6 L 790.05,-0 L 979.95,-0 L 979.95,-6 L 980.006,-6.53017
 L 980.17,-7.03717 L 980.437,-7.49884 L 980.794,-7.895 L 981.225,-8.20836 L 981.712,-8.42519 L 982.233,-8.53603
 L 982.767,-8.53603 L 983.288,-8.42519 L 983.775,-8.20836 L 984.206,-7.895 L 984.563,-7.49884 L 984.83,-7.03717
 L 984.994,-6.53017 L 985.05,-6 L 985.05,-0 L 1174.95,-0 L 1174.95,-6 L 1175.01,-6.53017
 L 1175.17,-7.03717 L 1175.44,-7.49884 L 1175.79,-7.895 L 1176.22,-8.20836 L 1176.71,-8.42519 L 1177.23,-8.53603
 L 1177.77,-8.53603 L 1178.29,-8.42519 L 1178.77,-8.20836 L 1179.21,-7.895 L 1179.56,-7.49884 L 1179.83,-7.03717
 L 1179.99,-6.53017 L 1180.05,-6 L 1180.05,-0 L 1369.95,-0 L 1369.95,-6 L 1370.01,-6.53017
 L 1370.17,-7.03717 L 1370.44,-7.49884 L 1370.79,-7.895 L 1371.22,-8.20836 L 1371.71,-8.42519 L 1372.23,-8.53603
 L 1372.77,-8.53603 L 1373.29,-8.42519 L 1373.77,-8.20836 L 1374.21,-7.895 L 1374.56,-7.49884 L 1374.83,-7.03717
 L 1374.99,-6.53017 L 1375.05,-6 L 1375.05,-0 L 1380,-0 z
M 6.98573,-55.607 L 6.47708,-55.6875 L 5.97964,-55.8208 L 5.49887,-56.0054 L 5.04001,-56.2392 L 4.60811,-56.5196
 L 4.20789,-56.8437 L 3.84373,-57.2079 L 3.51964,-57.6081 L 3.23917,-58.04 L 3.00537,-58.4989 L 2.82082,-58.9796
 L 2.68752,-59.4771 L 2.60696,-59.9857 L 2.58,-60.5 L 2.60696,-61.0143 L 2.68752,-61.5229 L 2.82082,-62.0204
 L 3.00537,-62.5011 L 3.23917,-62.96 L 3.51964,-63.3919 L 3.84373,-63.7921 L 4.20789,-64.1563 L 4.60811,-64.4804
 L 4.95001,-64.7024 L 4.95001,-74 L 5.00574,-74.5302 L 5.17047,-75.0372 L 5.43701,-75.4988 L 5.79373,-75.895
 L 6.22501,-76.2084 L 6.71202,-76.4252 L 7.23346,-76.536 L 7.76654,-76.536 L 8.28798,-76.4252 L 8.77499,-76.2084
 L 9.20627,-75.895 L 9.56299,-75.4988 L 9.82953,-75.0372 L 9.99426,-74.5302 L 10.05,-74 L 10.05,-64.7024
 L 10.3919,-64.4804 L 10.7921,-64.1563 L 11.1563,-63.7921 L 11.4804,-63.3919 L 11.7608,-62.96 L 11.9946,-62.5011
 L 12.1792,-62.0204 L 12.3125,-61.5229 L 12.393,-61.0143 L 12.42,-60.5 L 12.393,-59.9857 L 12.3125,-59.4771
 L 12.1792,-58.9796 L 11.9946,-58.4989 L 11.7608,-58.04 L 11.4804,-57.6081 L 11.1563,-57.2079 L 10.7921,-56.8437
 L 10.3919,-56.5196 L 9.95999,-56.2392 L 9.50113,-56.0054 L 9.02036,-55.8208 L 8.52292,-55.6875 L 8.01427,-55.607
 L 7.5,-55.58 z
M 201.986,-55.607 L 201.477,-55.6875 L 200.98,-55.8208 L 200.499,-56.0054 L 200.04,-56.2392 L 199.608,-56.5196
 L 199.208,-56.8437 L 198.844,-57.2079 L 198.52,-57.6081 L 198.239,-58.04 L 198.005,-58.4989 L 197.821,-58.9796
 L 197.688,-59.4771 L 197.607,-59.9857 L 197.58,-60.5 L 197.607,-61.0143 L 197.688,-61.5229 L 197.821,-62.0204
 L 198.005,-62.5011 L 198.239,-62.96 L 198.52,-63.3919 L 198.844,-63.7921 L 199.208,-64.1563 L 199.608,-64.4804
 L 199.95,-64.7024 L 199.95,-74 L 200.006,-74.5302 L 200.17,-75.0372 L 200.437,-75.4988 L 200.794,-75.895
 L 201.225,-76.2084 L 201.712,-76.4252 L 202.233,-76.536 L 202.767,-76.536 L 203.288,-76.4252 L 203.775,-76.2084
 L 204.206,-75.895 L 204.563,-75.4988 L 204.83,-75.0372 L 204.994,-74.5302 L 205.05,-74 L 205.05,-64.7024
 L 205.392,-64.4804 L 205.792,-64.1563 L 206.156,-63.7921 L 206.48,-63.3919 L 206.761,-62.96 L 206.995,-62.5011
 L 207.179,-62.0204 L 207.312,-61.5229 L 207.393,-61.0143 L 207.42,-60.5 L 207.393,-59.9857 L 207.312,-59.4771
 L 207.179,-58.9796 L 206.995,-58.4989 L 206.761,-58.04 L 206.48,-57.6081 L 206.156,-57.2079 L 205.792,-56.8437
 L 205.392,-56.5196 L 204.96,-56.2392 L 204.501,-56.0054 L 204.02,-55.8208 L 203.523,-55.6875 L 203.014,-55.607
 L 202.5,-55.58 z
M 396.986,-55.607 L 396.477,-55.6875 L 395.98,-55.8208 L 395.499,-56.0054 L 395.04,-56.2392 L 394.608,-56.5196
 L 394.208,-56.8437 L 393.844,-57.2079 L 393.52,-57.6081 L 393.239,-58.04 L 393.005,-58.4989 L 392.821,-58.9796
 L 392.688,-59.4771 L 392.607,-59.9857 L 392.58,-60.5 L 392.607,-61.0143 L 392.688,-61.5229 L 392.821,-62.0204
 L 393.005,-62.5011 L 393.239,-62.96 L 393.52,-63.3919 L 393.844,-63.7921 L 394.208,-64.1563 L 394.608,-64.4804
 L 394.95,-64.7024 L 394.95,-74 L 395.006,-74.5302 L 395.17,-75.0372 L 395.437,-75.4988 L 395.794,-75.895
 L 396.225,-76.2084 L 396.712,-76.4252 L 397.233,-76.536 L 397.767,-76.536 L 398.288,-76.4252 L 398.775,-76.2084
 L 399.206,-75.895 L 399.563,-75.4988 L 399.83,-75.0372 L 399.994,-74.5302 L 400.05,-74 L 400.05,-64.7024
 L 400.392,-64.4804 L 400.792,-64.1563 L 401.156,-63.7921 L 401.48,-63.3919 L 401.761,-62.96 L 401.995,-62.5011
 L 402.179,-62.0204 L 402.312,-61.5229 L 402.393,-61.0143 L 402.42,-60.5 L 402.393,-59.9857 L 402.312,-59.4771
 L 402.179,-58.9796 L 401.995,-58.4989 L 401.761,-58.04 L 401.48,-57.6081 L 401.156,-57.2079 L 400.792,-56.8437
 L 400.392,-56.5196 L 399.96,-56.2392 L 399.501,-56.0054 L 399.02,-55.8208 L 398.523,-55.6875 L 398.014,-55.607
 L 397.5,-55.58 z
M 591.986,-55.607 L 591.477,-55.6875 L 590.98,-55.8208 L 590.499,-56.0054 L 590.04,-56.2392 L 589.608,-56.5196
 L 589.208,-56.8437 L 588.844,-57.2079 L 588.52,-57.6081 L 588.239,-58.04 L 588.005,-58.4989 L 587.821,-58.9796
 L 587.688,-59.4771 L 587.607,-59.9857 L 587.58,-60.5 L 587.607,-61.0143 L 587.688,-61.5229 L 587.821,-62.0204
 L 588.005,-62.5011 L 588.239,-62.96 L 588.52,-63.3919 L 588.844,-63.7921 L 589.208,-64.1563 L 589.608,-64.4804
 L 589.95,-64.7024 L 589.95,-74 L 590.006,-74.5302 L 590.17,-75.0372 L 590.437,-75.4988 L 590.794,-75.895
 L 591.225,-76.2084 L 591.712,-76.4252 L 592.233,-76.536 L 592.767,-76.536 L 593.288,-76.4252 L 593.775,-76.2084
 L 594.206,-75.895 L 594.563,-75.4988 L 594.83,-75.0372 L 594.994,-74.5302 L 595.05,-74 L 595.05,-64.7024
 L 595.392,-64.4804 L 595.792,-64.1563 L 596.156,-63.7921 L 596.48,-63.3919 L 596.761,-62.96 L 596.995,-62.5011
 L 597.179,-62.0204 L 597.312,-61.5229 L 597.393,-61.0143 L 597.42,-60.5 L 597.393,-59.9857 L 597.312,-59.4771
 L 597.179,-58.9796 L 596.995,-58.4989 L 596.761,-58.04 L 596.48,-57.6081 L 596.156,-57.2079 L 595.792,-56.8437
 L 595.392,-56.5196 L 594.96,-56.2392 L 594.501,-56.0054 L 594.02,-55.8208 L 593.523,-55.6875 L 593.014,-55.607
 L 592.5,-55.58 z
M 786.986,-55.607 L 786.477,-55.6875 L 785.98,-55.8208 L 785.499,-56.0054 L 785.04,-56.2392 L 784.608,-56.5196
 L 784.208,-56.8437 L 783.844,-57.2079 L 783.52,-57.6081 L 783.239,-58.04 L 783.005,-58.4989 L 782.821,-58.9796
 L 782.688,-59.4771 L 782.607,-59.9857 L 782.58,-60.5 L 782.607,-61.0143 L 782.688,-61.5229 L 782.821,-62.0204
 L 783.005,-62.5011 L 783.239,-62.96 L 783.52,-63.3919 L 783.844,-63.7921 L 784.208,-64.1563 L 784.608,-64.4804
 L 784.95,-64.7024 L 784.95,-74 L 785.006,-74.5302 L 785.17,-75.0372 L 785.437,-75.4988 L 785.794,-75.895
 L 786.225,-76.2084 L 786.712,-76.4252 L 787.233,-76.536 L 787.767,-76.536 L 788.288,-76.4252 L 788.775,-76.2084
 L 789.206,-75.895 L 789.563,-75.4988 L 789.83,-75.0372 L 789.994,-74.5302 L 790.05,-74 L 790.05,-64.7024
 L 790.392,-64.4804 L 790.792,-64.1563 L 791.156,-63.7921 L 791.48,-63.3919 L 791.761,-62.96 L 791.995,-62.5011
 L 792.179,-62.0204 L 792.312,-61.5229 L 792.393,-61.0143 L 792.42,-60.5 L 792.393,-59.9857 L 792.312,-59.4771
 L 792.179,-58.9796 L 791.995,-58.4989 L 791.761,-58.04 L 791.48,-57.6081 L 791.156,-57.2079 L 790.792,-56.8437
 L 790.392,-56.5196 L 789.96,-56.2392 L 789.501,-56.0054 L 789.02,-55.8208 L 788.523,-55.6875 L 788.014,-55.607
 L 787.5,-55.58 z
M 981.986,-55.607 L 981.477,-55.6875 L 980.98,-55.8208 L 980.499,-56.0054 L 980.04,-56.2392 L 979.608,-56.5196
 L 979.208,-56.8437 L 978.844,-57.2079 L 978.52,-57.6081 L 978.239,-58.04 L 978.005,-58.4989 L 977.821,-58.9796
 L 977.688,-59.4771 L 977.607,-59.9857 L 977.58,-60.5 L 977.607,-61.0143 L 977.688,-61.5229 L 977.821,-62.0204
 L 978.005,-62.5011 L 978.239,-62.96 L 978.52,-63.3919 L 978.844,-63.7921 L 979.208,-64.1563 L 979.608,-64.4804
 L 979.95,-64.7024 L 979.95,-74 L 980.006,-74.5302 L 980.17,-75.0372 L 980.437,-75.4988 L 980.794,-75.895
 L 981.225,-76.2084 L 981.712,-76.4252 L 982.233,-76.536 L 982.767,-76.536 L 983.288,-76.4252 L 983.775,-76.2084
 L 984.206,-75.895 L 984.563,-75.4988 L 984.83,-75.0372 L 984.994,-74.5302 L 985.05,-74 L 985.05,-64.7024
 L 985.392,-64.4804 L 985.792,-64.1563 L 986.156,-63.7921 L 986.48,-63.3919 L 986.761,-62.96 L 986.995,-62.5011
 L 987.179,-62.0204 L 987.312,-61.5229 L 987.393,-61.0143 L 987.42,-60.5 L 987.393,-59.9857 L 987.312,-59.4771
 L 987.179,-58.9796 L 986.995,-58.4989 L 986.761,-58.04 L 986.48,-57.6081 L 986.156,-57.2079 L 985.792,-56.8437
 L 985.392,-56.5196 L 984.96,-56.2392 L 984.501,-56.0054 L 984.02,-55.8208 L 983.523,-55.6875 L 983.014,-55.607
 L 982.5,-55.58 z
M 1176.99,-55.607 L 1176.48,-55.6875 L 1175.98,-55.8208 L 1175.5,-56.0054 L 1175.04,-56.2392 L 1174.61,-56.5196
 L 1174.21,-56.8437 L 1173.84,-57.2079 L 1173.52,-57.6081 L 1173.24,-58.04 L 1173.01,-58.4989 L 1172.82,-58.9796
 L 1172.69,-59.4771 L 1172.61,-59.9857 L 1172.58,-60.5 L 1172.61,-61.0143 L 1172.69,-61.5229 L 1172.82,-62.0204
 L 1173.01,-62.5011 L 1173.24,-62.96 L 1173.52,-63.3919 L 1173.84,-63.7921 L 1174.21,-64.1563 L 1174.61,-64.4804
 L 1174.95,-64.7024 L 1174.95,-74 L 1175.01,-74.5302 L 1175.17,-75.0372 L 1175.44,-75.4988 L 1175.79,-75.895
 L 1176.23,-76.2084 L 1176.71,-76.4252 L 1177.23,-76.536 L 1177.77,-76.536 L 1178.29,-76.4252 L 1178.77,-76.2084
 L 1179.21,-75.895 L 1179.56,-75.4988 L 1179.83,-75.0372 L 1179.99,-74.5302 L 1180.05,-74 L 1180.05,-64.7024
 L 1180.39,-64.4804 L 1180.79,-64.1563 L 1181.16,-63.7921 L 1181.48,-63.3919 L 1181.76,-62.96 L 1181.99,-62.5011
 L 1182.18,-62.0204 L 1182.31,-61.5229 L 1182.39,-61.0143 L 1182.42,-60.5 L 1182.39,-59.9857 L 1182.31,-59.4771
 L 1182.18,-58.9796 L 1181.99,-58.4989 L 1181.76,-58.04 L 1181.48,-57.6081 L 1181.16,-57.2079 L 1180.79,-56.8437
 L 1180.39,-56.5196 L 1179.96,-56.2392 L 1179.5,-56.0054 L 1179.02,-55.8208 L 1178.52,-55.6875 L 1178.01,-55.607
 L 1177.5,-55.58 z
M 1371.99,-55.607 L 1371.48,-55.6875 L 1370.98,-55.8208 L 1370.5,-56.0054 L 1370.04,-56.2392 L 1369.61,-56.5196
 L 1369.21,-56.8437 L 1368.84,-57.2079 L 1368.52,-57.6081 L 1368.24,-58.04 L 1368.01,-58.4989 L 1367.82,-58.9796
 L 1367.69,-59.4771 L 1367.61,-59.9857 L 1367.58,-60.5 L 1367.61,-61.0143 L 1367.69,-61.5229 L 1367.82,-62.0204
 L 1368.01,-62.5011 L 1368.24,-62.96 L 1368.52,-63.3919 L 1368.84,-63.7921 L 1369.21,-64.1563 L 1369.61,-64.4804
 L 1369.95,-64.7024 L 1369.95,-74 L 1370.01,-74.5302 L 1370.17,-75.0372 L 1370.44,-75.4988 L 1370.79,-75.895
 L 1371.23,-76.2084 L 1371.71,-76.4252 L 1372.23,-76.536 L 1372.77,-76.536 L 1373.29,-76.4252 L 1373.77,-76.2084
 L 1374.21,-75.895 L 1374.56,-75.4988 L 1374.83,-75.0372 L 1374.99,-74.5302 L 1375.05,-74 L 1375.05,-64.7024
 L 1375.39,-64.4804 L 1375.79,-64.1563 L 1376.16,-63.7921 L 1376.48,-63.3919 L 1376.76,-62.96 L 1376.99,-62.5011
 L 1377.18,-62.0204 L 1377.31,-61.5229 L 1377.39,-61.0143 L 1377.42,-60.5 L 1377.39,-59.9857 L 1377.31,-59.4771
 L 1377.18,-58.9796 L 1376.99,-58.4989 L 1376.76,-58.04 L 1376.48,-57.6081 L 1376.16,-57.2079 L 1375.79,-56.8437
 L 1375.39,-56.5196 L 1374.96,-56.2392 L 1374.5,-56.0054 L 1374.02,-55.8208 L 1373.52,-55.6875 L 1373.01,-55.607
 L 1372.5,-55.58 z
M 799.346,-20.4682 L 798.574,-20.7919 L 797.888,-21.2688 L 797.315,-21.8782 L 796.881,-22.5933 L 796.606,-23.3829
 L 796.5,-24.2979 L 796.5,-58 L 796.587,-58.8316 L 796.846,-59.627 L 797.264,-60.3511 L 797.823,-60.9726
 L 798.5,-61.4641 L 799.264,-61.8042 L 800.5,-62 L 897.146,-62 L 897.977,-61.9126 L 898.773,-61.6542
 L 899.497,-61.2361 L 900.118,-60.6765 L 900.61,-60 L 900.95,-59.2361 L 901.124,-58.4181 L 901.124,-57.5819
 L 900.95,-56.7639 L 900.61,-56 L 900.118,-55.3235 L 899.497,-54.7639 L 898.463,-54.2231 L 801.817,-20.521
 L 801.003,-20.3297 L 800.167,-20.3118 z
M 689.497,-47.6787 L 688.683,-47.87 L 670.465,-54.2231 L 669.431,-54.7639 L 668.809,-55.3235 L 668.318,-56
 L 667.978,-56.7639 L 667.804,-57.5819 L 667.804,-58.4181 L 667.978,-59.2361 L 668.318,-60 L 668.809,-60.6765
 L 669.431,-61.2361 L 670.155,-61.6542 L 670.95,-61.9126 L 671.782,-62 L 708.218,-62 L 709.373,-61.8298
 L 710.144,-61.5061 L 710.831,-61.0291 L 711.403,-60.4198 L 711.837,-59.7047 L 712.112,-58.9151 L 712.217,-58.0855
 L 712.148,-57.2522 L 711.906,-56.4515 L 711.504,-55.7186 L 710.958,-55.0853 L 710.292,-54.5794 L 709.535,-54.2231
 L 691.317,-47.87 L 690.333,-47.6609 z
M 578.997,-20.3297 L 578.183,-20.521 L 481.537,-54.2231 L 480.503,-54.7639 L 479.882,-55.3235 L 479.39,-56
 L 479.05,-56.7639 L 478.876,-57.5819 L 478.876,-58.4181 L 479.05,-59.2361 L 479.39,-60 L 479.882,-60.6765
 L 480.503,-61.2361 L 481.227,-61.6542 L 482.023,-61.9126 L 482.854,-62 L 579.5,-62 L 580.736,-61.8042
 L 581.5,-61.4641 L 582.177,-60.9726 L 582.736,-60.3511 L 583.154,-59.627 L 583.413,-58.8316 L 583.5,-58
 L 583.5,-24.2979 L 583.394,-23.3829 L 583.119,-22.5933 L 582.685,-21.8782 L 582.112,-21.2688 L 581.426,-20.7919
 L 580.654,-20.4682 L 579.833,-20.3118 z
M 383.997,-20.3297 L 383.183,-20.521 L 286.537,-54.2231 L 285.503,-54.7639 L 284.882,-55.3235 L 284.39,-56
 L 284.05,-56.7639 L 283.876,-57.5819 L 283.876,-58.4181 L 284.05,-59.2361 L 284.39,-60 L 284.882,-60.6765
 L 285.503,-61.2361 L 286.227,-61.6542 L 287.023,-61.9126 L 287.854,-62 L 384.5,-62 L 385.736,-61.8042
 L 386.5,-61.4641 L 387.177,-60.9726 L 387.736,-60.3511 L 388.154,-59.627 L 388.413,-58.8316 L 388.5,-58
 L 388.5,-24.2979 L 388.394,-23.3829 L 388.119,-22.5933 L 387.685,-21.8782 L 387.112,-21.2688 L 386.426,-20.7919
 L 385.654,-20.4682 L 384.833,-20.3118 z
M 1189.35,-20.4682 L 1188.57,-20.7919 L 1187.89,-21.2688 L 1187.31,-21.8782 L 1186.88,-22.5933 L 1186.61,-23.3829
 L 1186.5,-24.2979 L 1186.5,-58 L 1186.59,-58.8316 L 1186.85,-59.627 L 1187.26,-60.3511 L 1187.82,-60.9726
 L 1188.5,-61.4641 L 1189.26,-61.8042 L 1190.5,-62 L 1287.15,-62 L 1287.98,-61.9126 L 1288.77,-61.6542
 L 1289.5,-61.2361 L 1290.12,-60.6765 L 1290.61,-60 L 1290.95,-59.2361 L 1291.12,-58.4181 L 1291.12,-57.5819
 L 1290.95,-56.7639 L 1290.61,-56 L 1290.12,-55.3235 L 1289.5,-54.7639 L 1288.46,-54.2231 L 1191.82,-20.521
 L 1191,-20.3297 L 1190.17,-20.3118 z
M 188.997,-20.3297 L 188.183,-20.521 L 91.5373,-54.2231 L 90.5032,-54.7639 L 89.8818,-55.3235 L 89.3903,-56
 L 89.0501,-56.7639 L 88.8763,-57.5819 L 88.8763,-58.4181 L 89.0501,-59.2361 L 89.3903,-60 L 89.8818,-60.6765
 L 90.5032,-61.2361 L 91.2274,-61.6542 L 92.0227,-61.9126 L 92.8544,-62 L 189.5,-62 L 190.736,-61.8042
 L 191.5,-61.4641 L 192.177,-60.9726 L 192.736,-60.3511 L 193.154,-59.627 L 193.413,-58.8316 L 193.5,-58
 L 193.5,-24.2979 L 193.394,-23.3829 L 193.119,-22.5933 L 192.685,-21.8782 L 192.112,-21.2688 L 191.426,-20.7919
 L 190.654,-20.4682 L 189.833,-20.3118 z
M 994.346,-20.4682 L 993.574,-20.7919 L 992.888,-21.2688 L 992.315,-21.8782 L 991.881,-22.5933 L 991.606,-23.3829
 L 991.5,-24.2979 L 991.5,-58 L 991.587,-58.8316 L 991.846,-59.627 L 992.264,-60.3511 L 992.823,-60.9726
 L 993.5,-61.4641 L 994.264,-61.8042 L 995.5,-62 L 1092.15,-62 L 1092.98,-61.9126 L 1093.77,-61.6542
 L 1094.5,-61.2361 L 1095.12,-60.6765 L 1095.61,-60 L 1095.95,-59.2361 L 1096.12,-58.4181 L 1096.12,-57.5819
 L 1095.95,-56.7639 L 1095.61,-56 L 1095.12,-55.3235 L 1094.5,-54.7639 L 1093.46,-54.2231 L 996.817,-20.521
 L 996.003,-20.3297 L 995.167,-20.3118 z
M 605.082,-18.2022 L 604.264,-18.3761 L 603.5,-18.7162 L 602.823,-19.2077 L 602.264,-19.8292 L 601.846,-20.5534
 L 601.587,-21.3487 L 601.5,-22.1803 L 601.5,-57.8197 L 601.606,-58.7348 L 601.881,-59.5244 L 602.315,-60.2395
 L 602.888,-60.8488 L 603.574,-61.3257 L 604.346,-61.6495 L 605.167,-61.8058 L 606.003,-61.7879 L 606.817,-61.5966
 L 657.918,-43.7769 L 658.526,-43.5061 L 659.213,-43.0291 L 659.786,-42.4198 L 660.219,-41.7047 L 660.495,-40.9151
 L 660.6,-40.0855 L 660.53,-39.2522 L 660.289,-38.4515 L 659.886,-37.7186 L 659.34,-37.0853 L 658.674,-36.5794
 L 657.918,-36.2231 L 606.817,-18.4034 L 605.918,-18.2022 z
M 773.997,-18.2121 L 773.183,-18.4034 L 722.082,-36.2231 L 721.474,-36.4939 L 720.787,-36.9709 L 720.214,-37.5802
 L 719.781,-38.2953 L 719.505,-39.0849 L 719.4,-39.9145 L 719.47,-40.7478 L 719.711,-41.5485 L 720.114,-42.2814
 L 720.66,-42.9147 L 721.326,-43.4206 L 722.082,-43.7769 L 773.183,-61.5966 L 774.082,-61.7978 L 774.918,-61.7978
 L 775.736,-61.6239 L 776.5,-61.2838 L 777.177,-60.7923 L 777.736,-60.1708 L 778.154,-59.4467 L 778.413,-58.6514
 L 778.5,-57.8197 L 778.5,-22.1803 L 778.394,-21.2652 L 778.119,-20.4756 L 777.685,-19.7605 L 777.112,-19.1512
 L 776.426,-18.6742 L 775.654,-18.3505 L 774.833,-18.1942 z
M 215.5,-18 L 214.264,-18.1958 L 213.5,-18.5359 L 212.823,-19.0274 L 212.264,-19.6489 L 211.846,-20.373
 L 211.587,-21.1684 L 211.5,-22 L 211.5,-55.7021 L 211.606,-56.6171 L 211.881,-57.4067 L 212.315,-58.1218
 L 212.888,-58.7312 L 213.574,-59.2081 L 214.346,-59.5318 L 215.167,-59.6882 L 216.003,-59.6703 L 216.817,-59.479
 L 313.463,-25.7769 L 314.497,-25.2361 L 315.118,-24.6765 L 315.61,-24 L 315.95,-23.2361 L 316.124,-22.4181
 L 316.124,-21.5819 L 315.95,-20.7639 L 315.61,-20 L 315.118,-19.3235 L 314.497,-18.7639 L 313.773,-18.3458
 L 312.977,-18.0874 L 312.146,-18 z
M 410.5,-18 L 409.264,-18.1958 L 408.5,-18.5359 L 407.823,-19.0274 L 407.264,-19.6489 L 406.846,-20.373
 L 406.587,-21.1684 L 406.5,-22 L 406.5,-55.7021 L 406.606,-56.6171 L 406.881,-57.4067 L 407.315,-58.1218
 L 407.888,-58.7312 L 408.574,-59.2081 L 409.346,-59.5318 L 410.167,-59.6882 L 411.003,-59.6703 L 411.817,-59.479
 L 508.463,-25.7769 L 509.497,-25.2361 L 510.118,-24.6765 L 510.61,-24 L 510.95,-23.2361 L 511.124,-22.4181
 L 511.124,-21.5819 L 510.95,-20.7639 L 510.61,-20 L 510.118,-19.3235 L 509.497,-18.7639 L 508.773,-18.3458
 L 507.977,-18.0874 L 507.146,-18 z
M 872.854,-18 L 872.023,-18.0874 L 871.227,-18.3458 L 870.503,-18.7639 L 869.882,-19.3235 L 869.39,-20
 L 869.05,-20.7639 L 868.876,-21.5819 L 868.876,-22.4181 L 869.05,-23.2361 L 869.39,-24 L 869.882,-24.6765
 L 870.503,-25.2361 L 871.537,-25.7769 L 968.183,-59.479 L 968.997,-59.6703 L 969.833,-59.6882 L 970.654,-59.5318
 L 971.426,-59.2081 L 972.112,-58.7312 L 972.685,-58.1218 L 973.119,-57.4067 L 973.394,-56.6171 L 973.5,-55.7021
 L 973.5,-22 L 973.413,-21.1684 L 973.154,-20.373 L 972.736,-19.6489 L 972.177,-19.0274 L 971.5,-18.5359
 L 970.736,-18.1958 L 969.5,-18 z
M 1067.85,-18 L 1067.02,-18.0874 L 1066.23,-18.3458 L 1065.5,-18.7639 L 1064.88,-19.3235 L 1064.39,-20
 L 1064.05,-20.7639 L 1063.88,-21.5819 L 1063.88,-22.4181 L 1064.05,-23.2361 L 1064.39,-24 L 1064.88,-24.6765
 L 1065.5,-25.2361 L 1066.54,-25.7769 L 1163.18,-59.479 L 1164,-59.6703 L 1164.83,-59.6882 L 1165.65,-59.5318
 L 1166.43,-59.2081 L 1167.11,-58.7312 L 1167.69,-58.1218 L 1168.12,-57.4067 L 1168.39,-56.6171 L 1168.5,-55.7021
 L 1168.5,-22 L 1168.41,-21.1684 L 1168.15,-20.373 L 1167.74,-19.6489 L 1167.18,-19.0274 L 1166.5,-18.5359
 L 1165.74,-18.1958 L 1164.5,-18 z
M 22,-18 L 20.7639,-18.1958 L 20,-18.5359 L 19.3235,-19.0274 L 18.7639,-19.6489 L 18.3458,-20.373
 L 18.0874,-21.1684 L 18,-22 L 18,-55.179 L 18.1061,-56.094 L 18.3814,-56.8836 L 18.8149,-57.5987
 L 19.3876,-58.2081 L 20.0745,-58.685 L 20.8455,-59.0087 L 21.667,-59.1651 L 22.503,-59.1472 L 23.3171,-58.9559
 L 118.463,-25.7769 L 119.497,-25.2361 L 120.118,-24.6765 L 120.61,-24 L 120.95,-23.2361 L 121.124,-22.4181
 L 121.124,-21.5819 L 120.95,-20.7639 L 120.61,-20 L 120.118,-19.3235 L 119.497,-18.7639 L 118.773,-18.3458
 L 117.977,-18.0874 L 117.146,-18 z
M 1262.85,-18 L 1262.02,-18.0874 L 1261.23,-18.3458 L 1260.5,-18.7639 L 1259.88,-19.3235 L 1259.39,-20
 L 1259.05,-20.7639 L 1258.88,-21.5819 L 1258.88,-22.4181 L 1259.05,-23.2361 L 1259.39,-24 L 1259.88,-24.6765
 L 1260.5,-25.2361 L 1261.54,-25.7769 L 1356.68,-58.9559 L 1357.5,-59.1472 L 1358.33,-59.1651 L 1359.15,-59.0087
 L 1359.93,-58.685 L 1360.61,-58.2081 L 1361.19,-57.5987 L 1361.62,-56.8836 L 1361.89,-56.094 L 1362,-55.179
 L 1362,-22 L 1361.91,-21.1684 L 1361.65,-20.373 L 1361.24,-19.6489 L 1360.68,-19.0274 L 1360,-18.5359
 L 1359.24,-18.1958 L 1358,-18 z
M 671.782,-18 L 670.627,-18.1702 L 669.856,-18.4939 L 669.169,-18.9709 L 668.597,-19.5802 L 668.163,-20.2953
 L 667.888,-21.0849 L 667.783,-21.9145 L 667.852,-22.7478 L 668.094,-23.5485 L 668.496,-24.2814 L 669.042,-24.9147
 L 669.708,-25.4206 L 670.465,-25.7769 L 688.683,-32.13 L 689.667,-32.3391 L 690.503,-32.3213 L 691.317,-32.13
 L 709.535,-25.7769 L 710.569,-25.2361 L 711.191,-24.6765 L 711.682,-24 L 712.022,-23.2361 L 712.196,-22.4181
 L 712.196,-21.5819 L 712.022,-20.7639 L 711.682,-20 L 711.191,-19.3235 L 710.569,-18.7639 L 709.845,-18.3458
 L 709.05,-18.0874 L 708.218,-18 z
" stroke="black" fill="lightgray" stroke-width="0.5"/>
</svg>
