<?xml version="1.0" standalone="no"?>
<!DOCTYPE svg PUBLIC "-//W3C//DTD SVG 1.1//EN" "http://www.w3.org/Graphics/SVG/1.1/DTD/svg11.dtd">
<svg width="1585mm" height="80mm" viewBox="0 -80 1585 80" xmlns="http://www.w3.org/2000/svg" version="1.1">
<title>OpenSCAD Model</title>
<path d="
M 1585,-80 L 0,-80 L 0,-0 L 4.95,-0 L 4.95,-6 L 5.00572,-6.53017
 L 5.17046,-7.03717 L 5.437,-7.49884 L 5.79372,-7.895 L 6.22499,-8.20836 L 6.71201,-8.42519 L 7.23344,-8.53603
 L 7.76654,-8.53603 L 8.28798,-8.42519 L 8.77499,-8.20836 L 9.20627,-7.895 L 9.56299,-7.49884 L 9.82953,-7.03717
 L 9.99426,-6.53017 L 10.05,-6 L 10.05,-0 L 201.2,-0 L 201.2,-6 L 201.256,-6.53017
 L 201.42,-7.03717 L 201.687,-7.49884 L 202.044,-7.895 L 202.475,-8.20836 L 202.962,-8.42519 L 203.483,-8.53603
 L 204.017,-8.53603 L 204.538,-8.42519 L 205.025,-8.20836 L 205.456,-7.895 L 205.813,-7.49884 L 206.08,-7.03717
 L 206.244,-6.53017 L 206.3,-6 L 206.3,-0 L 397.45,-0 L 397.45,-6 L 397.506,-6.53017
 L 397.67,-7.03717 L 397.937,-7.49884 L 398.294,-7.895 L 398.725,-8.20836 L 399.212,-8.42519 L 399.733,-8.53603
 L 400.267,-8.53603 L 400.788,-8.42519 L 401.275,-8.20836 L 401.706,-7.895 L 402.063,-7.49884 L 402.33,-7.03717
 L 402.494,-6.53017 L 402.55,-6 L 402.55,-0 L 593.7,-0 L 593.7,-6 L 593.756,-6.53017
 L 593.92,-7.03717 L 594.187,-7.49884 L 594.544,-7.895 L 594.975,-8.20836 L 595.462,-8.42519 L 595.983,-8.53603
 L 596.517,-8.53603 L 597.038,-8.42519 L 597.525,-8.20836 L 597.956,-7.895 L 598.313,-7.49884 L 598.58,-7.03717
 L 598.744,-6.53017 L 598.8,-6 L 598.8,-0 L 789.95,-0 L 789.95,-6 L 790.006,-6.53017
 L 790.17,-7.03717 L 790.437,-7.49884 L 790.794,-7.895 L 791.225,-8.20836 L 791.712,-8.42519 L 792.233,-8.53603
 L 792.767,-8.53603 L 793.288,-8.42519 L 793.775,-8.20836 L 794.206,-7.895 L 794.563,-7.49884 L 794.83,-7.03717
 L 794.994,-6.53017 L 795.05,-6 L 795.05,-0 L 986.2,-0 L 986.2,-6 L 986.256,-6.53017
 L 986.42,-7.03717 L 986.687,-7.49884 L 987.044,-7.895 L 987.475,-8.20836 L 987.962,-8.42519 L 988.483,-8.53603
 L 989.017,-8.53603 L 989.538,-8.42519 L 990.025,-8.20836 L 990.456,-7.895 L 990.813,-7.49884 L 991.08,-7.03717
 L 991.244,-6.53017 L 991.3,-6 L 991.3,-0 L 1182.45,-0 L 1182.45,-6 L 1182.51,-6.53017
 L 1182.67,-7.03717 L 1182.94,-7.49884 L 1183.29,-7.895 L 1183.72,-8.20836 L 1184.21,-8.42519 L 1184.73,-8.53603
 L 1185.27,-8.53603 L 1185.79,-8.42519 L 1186.27,-8.20836 L 1186.71,-7.895 L 1187.06,-7.49884 L 1187.33,-7.03717
 L 1187.49,-6.53017 L 1187.55,-6 L 1187.55,-0 L 1378.7,-0 L 1378.7,-6 L 1378.76,-6.53017
 L 1378.92,-7.03717 L 1379.19,-7.49884 L 1379.54,-7.895 L 1379.97,-8.20836 L 1380.46,-8.42519 L 1380.98,-8.53603
 L 1381.52,-8.53603 L 1382.04,-8.42519 L 1382.52,-8.20836 L 1382.96,-7.895 L 1383.31,-7.49884 L 1383.58,-7.03717
 L 1383.74,-6.53017 L 1383.8,-6 L 1383.8,-0 L 1574.95,-0 L 1574.95,-6 L 1575.01,-6.53017
 L 1575.17,-7.03717 L 1575.44,-7.49884 L 1575.79,-7.895 L 1576.22,-8.20836 L 1576.71,-8.42519 L 1577.23,-8.53603
 L 1577.77,-8.53603 L 1578.29,-8.42519 L 1578.77,-8.20836 L 1579.21,-7.895 L 1579.56,-7.49884 L 1579.83,-7.03717
 L 1579.99,-6.53017 L 1580.05,-6 L 1580.05,-0 L 1585,-0 z
M 203.236,-55.607 L 202.727,-55.6875 L 202.23,-55.8208 L 201.749,-56.0054 L 201.29,-56.2392 L 200.858,-56.5196
 L 200.458,-56.8437 L 200.094,-57.2079 L 199.77,-57.6081 L 199.489,-58.04 L 199.255,-58.4989 L 199.071,-58.9796
 L 198.938,-59.4771 L 198.857,-59.9857 L 198.83,-60.5 L 198.857,-61.0143 L 198.938,-61.5229 L 199.071,-62.0204
 L 199.255,-62.5011 L 199.489,-62.96 L 199.77,-63.3919 L 200.094,-63.7921 L 200.458,-64.1563 L 200.858,-64.4804
 L 201.2,-64.7024 L 201.2,-74 L 201.256,-74.5302 L 201.42,-75.0372 L 201.687,-75.4988 L 202.044,-75.895
 L 202.475,-76.2084 L 202.962,-76.4252 L 203.483,-76.536 L 204.017,-76.536 L 204.538,-76.4252 L 205.025,-76.2084
 L 205.456,-75.895 L 205.813,-75.4988 L 206.08,-75.0372 L 206.244,-74.5302 L 206.3,-74 L 206.3,-64.7024
 L 206.642,-64.4804 L 207.042,-64.1563 L 207.406,-63.7921 L 207.73,-63.3919 L 208.011,-62.96 L 208.245,-62.5011
 L 208.429,-62.0204 L 208.562,-61.5229 L 208.643,-61.0143 L 208.67,-60.5 L 208.643,-59.9857 L 208.562,-59.4771
 L 208.429,-58.9796 L 208.245,-58.4989 L 208.011,-58.04 L 207.73,-57.6081 L 207.406,-57.2079 L 207.042,-56.8437
 L 206.642,-56.5196 L 206.21,-56.2392 L 205.751,-56.0054 L 205.27,-55.8208 L 204.773,-55.6875 L 204.264,-55.607
 L 203.75,-55.58 z
M 1184.49,-55.607 L 1183.98,-55.6875 L 1183.48,-55.8208 L 1183,-56.0054 L 1182.54,-56.2392 L 1182.11,-56.5196
 L 1181.71,-56.8437 L 1181.34,-57.2079 L 1181.02,-57.6081 L 1180.74,-58.04 L 1180.51,-58.4989 L 1180.32,-58.9796
 L 1180.19,-59.4771 L 1180.11,-59.9857 L 1180.08,-60.5 L 1180.11,-61.0143 L 1180.19,-61.5229 L 1180.32,-62.0204
 L 1180.51,-62.5011 L 1180.74,-62.96 L 1181.02,-63.3919 L 1181.34,-63.7921 L 1181.71,-64.1563 L 1182.11,-64.4804
 L 1182.45,-64.7024 L 1182.45,-74 L 1182.51,-74.5302 L 1182.67,-75.0372 L 1182.94,-75.4988 L 1183.29,-75.895
 L 1183.73,-76.2084 L 1184.21,-76.4252 L 1184.73,-76.536 L 1185.27,-76.536 L 1185.79,-76.4252 L 1186.27,-76.2084
 L 1186.71,-75.895 L 1187.06,-75.4988 L 1187.33,-75.0372 L 1187.49,-74.5302 L 1187.55,-74 L 1187.55,-64.7024
 L 1187.89,-64.4804 L 1188.29,-64.1563 L 1188.66,-63.7921 L 1188.98,-63.3919 L 1189.26,-62.96 L 1189.49,-62.5011
 L 1189.68,-62.0204 L 1189.81,-61.5229 L 1189.89,-61.0143 L 1189.92,-60.5 L 1189.89,-59.9857 L 1189.81,-59.4771
 L 1189.68,-58.9796 L 1189.49,-58.4989 L 1189.26,-58.04 L 1188.98,-57.6081 L 1188.66,-57.2079 L 1188.29,-56.8437
 L 1187.89,-56.5196 L 1187.46,-56.2392 L 1187,-56.0054 L 1186.52,-55.8208 L 1186.02,-55.6875 L 1185.51,-55.607
 L 1185,-55.58 z
M 988.236,-55.607 L 987.727,-55.6875 L 987.23,-55.8208 L 986.749,-56.0054 L 986.29,-56.2392 L 985.858,-56.5196
 L 985.458,-56.8437 L 985.094,-57.2079 L 984.77,-57.6081 L 984.489,-58.04 L 984.255,-58.4989 L 984.071,-58.9796
 L 983.938,-59.4771 L 983.857,-59.9857 L 983.83,-60.5 L 983.857,-61.0143 L 983.938,-61.5229 L 984.071,-62.0204
 L 984.255,-62.5011 L 984.489,-62.96 L 984.77,-63.3919 L 985.094,-63.7921 L 985.458,-64.1563 L 985.858,-64.4804
 L 986.2,-64.7024 L 986.2,-74 L 986.256,-74.5302 L 986.42,-75.0372 L 986.687,-75.4988 L 987.044,-75.895
 L 987.475,-76.2084 L 987.962,-76.4252 L 988.483,-76.536 L 989.017,-76.536 L 989.538,-76.4252 L 990.025,-76.2084
 L 990.456,-75.895 L 990.813,-75.4988 L 991.08,-75.0372 L 991.244,-74.5302 L 991.3,-74 L 991.3,-64.7024
 L 991.642,-64.4804 L 992.042,-64.1563 L 992.406,-63.7921 L 992.73,-63.3919 L 993.011,-62.96 L 993.245,-62.5011
 L 993.429,-62.0204 L 993.562,-61.5229 L 993.643,-61.0143 L 993.67,-60.5 L 993.643,-59.9857 L 993.562,-59.4771
 L 993.429,-58.9796 L 993.245,-58.4989 L 993.011,-58.04 L 992.73,-57.6081 L 992.406,-57.2079 L 992.042,-56.8437
 L 991.642,-56.5196 L 991.21,-56.2392 L 990.751,-56.0054 L 990.27,-55.8208 L 989.773,-55.6875 L 989.264,-55.607
 L 988.75,-55.58 z
M 6.98573,-55.607 L 6.47708,-55.6875 L 5.97964,-55.8208 L 5.49887,-56.0054 L 5.04001,-56.2392 L 4.60811,-56.5196
 L 4.20789,-56.8437 L 3.84373,-57.2079 L 3.51964,-57.6081 L 3.23917,-58.04 L 3.00537,-58.4989 L 2.82082,-58.9796
 L 2.68752,-59.4771 L 2.60696,-59.9857 L 2.58,-60.5 L 2.60696,-61.0143 L 2.68752,-61.5229 L 2.82082,-62.0204
 L 3.00537,-62.5011 L 3.23917,-62.96 L 3.51964,-63.3919 L 3.84373,-63.7921 L 4.20789,-64.1563 L 4.60811,-64.4804
 L 4.95001,-64.7024 L 4.95001,-74 L 5.00574,-74.5302 L 5.17047,-75.0372 L 5.43701,-75.4988 L 5.79373,-75.895
 L 6.22501,-76.2084 L 6.71202,-76.4252 L 7.23346,-76.536 L 7.76654,-76.536 L 8.28798,-76.4252 L 8.77499,-76.2084
 L 9.20627,-75.895 L 9.56299,-75.4988 L 9.82953,-75.0372 L 9.99426,-74.5302 L 10.05,-74 L 10.05,-64.7024
 L 10.3919,-64.4804 L 10.7921,-64.1563 L 11.1563,-63.7921 L 11.4804,-63.3919 L 11.7608,-62.96 L 11.9946,-62.5011
 L 12.1792,-62.0204 L 12.3125,-61.5229 L 12.393,-61.0143 L 12.42,-60.5 L 12.393,-59.9857 L 12.3125,-59.4771
 L 12.1792,-58.9796 L 11.9946,-58.4989 L 11.7608,-58.04 L 11.4804,-57.6081 L 11.1563,-57.2079 L 10.7921,-56.8437
 L 10.3919,-56.5196 L 9.95999,-56.2392 L 9.50113,-56.0054 L 9.02036,-55.8208 L 8.52292,-55.6875 L 8.01427,-55.607
 L 7.5,-55.58 z
M 791.986,-55.607 L 791.477,-55.6875 L 790.98,-55.8208 L 790.499,-56.0054 L 790.04,-56.2392 L 789.608,-56.5196
 L 789.208,-56.8437 L 788.844,-57.2079 L 788.52,-57.6081 L 788.239,-58.04 L 788.005,-58.4989 L 787.821,-58.9796
 L 787.688,-59.4771 L 787.607,-59.9857 L 787.58,-60.5 L 787.607,-61.0143 L 787.688,-61.5229 L 787.821,-62.0204
 L 788.005,-62.5011 L 788.239,-62.96 L 788.52,-63.3919 L 788.844,-63.7921 L 789.208,-64.1563 L 789.608,-64.4804
 L 789.95,-64.7024 L 789.95,-74 L 790.006,-74.5302 L 790.17,-75.0372 L 790.437,-75.4988 L 790.794,-75.895
 L 791.225,-76.2084 L 791.712,-76.4252 L 792.233,-76.536 L 792.767,-76.536 L 793.288,-76.4252 L 793.775,-76.2084
 L 794.206,-75.895 L 794.563,-75.4988 L 794.83,-75.0372 L 794.994,-74.5302 L 795.05,-74 L 795.05,-64.7024
 L 795.392,-64.4804 L 795.792,-64.1563 L 796.156,-63.7921 L 796.48,-63.3919 L 796.761,-62.96 L 796.995,-62.5011
 L 797.179,-62.0204 L 797.312,-61.5229 L 797.393,-61.0143 L 797.42,-60.5 L 797.393,-59.9857 L 797.312,-59.4771
 L 797.179,-58.9796 L 796.995,-58.4989 L 796.761,-58.04 L 796.48,-57.6081 L 796.156,-57.2079 L 795.792,-56.8437
 L 795.392,-56.5196 L 794.96,-56.2392 L 794.501,-56.0054 L 794.02,-55.8208 L 793.523,-55.6875 L 793.014,-55.607
 L 792.5,-55.58 z
M 1380.74,-55.607 L 1380.23,-55.6875 L 1379.73,-55.8208 L 1379.25,-56.0054 L 1378.79,-56.2392 L 1378.36,-56.5196
 L 1377.96,-56.8437 L 1377.59,-57.2079 L 1377.27,-57.6081 L 1376.99,-58.04 L 1376.76,-58.4989 L 1376.57,-58.9796
 L 1376.44,-59.4771 L 1376.36,-59.9857 L 1376.33,-60.5 L 1376.36,-61.0143 L 1376.44,-61.5229 L 1376.57,-62.0204
 L 1376.76,-62.5011 L 1376.99,-62.96 L 1377.27,-63.3919 L 1377.59,-63.7921 L 1377.96,-64.1563 L 1378.36,-64.4804
 L 1378.7,-64.7024 L 1378.7,-74 L 1378.76,-74.5302 L 1378.92,-75.0372 L 1379.19,-75.4988 L 1379.54,-75.895
 L 1379.98,-76.2084 L 1380.46,-76.4252 L 1380.98,-76.536 L 1381.52,-76.536 L 1382.04,-76.4252 L 1382.52,-76.2084
 L 1382.96,-75.895 L 1383.31,-75.4988 L 1383.58,-75.0372 L 1383.74,-74.5302 L 1383.8,-74 L 1383.8,-64.7024
 L 1384.14,-64.4804 L 1384.54,-64.1563 L 1384.91,-63.7921 L 1385.23,-63.3919 L 1385.51,-62.96 L 1385.74,-62.5011
 L 1385.93,-62.0204 L 1386.06,-61.5229 L 1386.14,-61.0143 L 1386.17,-60.5 L 1386.14,-59.9857 L 1386.06,-59.4771
 L 1385.93,-58.9796 L 1385.74,-58.4989 L 1385.51,-58.04 L 1385.23,-57.6081 L 1384.91,-57.2079 L 1384.54,-56.8437
 L 1384.14,-56.5196 L 1383.71,-56.2392 L 1383.25,-56.0054 L 1382.77,-55.8208 L 1382.27,-55.6875 L 1381.76,-55.607
 L 1381.25,-55.58 z
M 595.736,-55.607 L 595.227,-55.6875 L 594.73,-55.8208 L 594.249,-56.0054 L 593.79,-56.2392 L 593.358,-56.5196
 L 592.958,-56.8437 L 592.594,-57.2079 L 592.27,-57.6081 L 591.989,-58.04 L 591.755,-58.4989 L 591.571,-58.9796
 L 591.438,-59.4771 L 591.357,-59.9857 L 591.33,-60.5 L 591.357,-61.0143 L 591.438,-61.5229 L 591.571,-62.0204
 L 591.755,-62.5011 L 591.989,-62.96 L 592.27,-63.3919 L 592.594,-63.7921 L 592.958,-64.1563 L 593.358,-64.4804
 L 593.7,-64.7024 L 593.7,-74 L 593.756,-74.5302 L 593.92,-75.0372 L 594.187,-75.4988 L 594.544,-75.895
 L 594.975,-76.2084 L 595.462,-76.4252 L 595.983,-76.536 L 596.517,-76.536 L 597.038,-76.4252 L 597.525,-76.2084
 L 597.956,-75.895 L 598.313,-75.4988 L 598.58,-75.0372 L 598.744,-74.5302 L 598.8,-74 L 598.8,-64.7024
 L 599.142,-64.4804 L 599.542,-64.1563 L 599.906,-63.7921 L 600.23,-63.3919 L 600.511,-62.96 L 600.745,-62.5011
 L 600.929,-62.0204 L 601.062,-61.5229 L 601.143,-61.0143 L 601.17,-60.5 L 601.143,-59.9857 L 601.062,-59.4771
 L 600.929,-58.9796 L 600.745,-58.4989 L 600.511,-58.04 L 600.23,-57.6081 L 599.906,-57.2079 L 599.542,-56.8437
 L 599.142,-56.5196 L 598.71,-56.2392 L 598.251,-56.0054 L 597.77,-55.8208 L 597.273,-55.6875 L 596.764,-55.607
 L 596.25,-55.58 z
M 399.486,-55.607 L 398.977,-55.6875 L 398.48,-55.8208 L 397.999,-56.0054 L 397.54,-56.2392 L 397.108,-56.5196
 L 396.708,-56.8437 L 396.344,-57.2079 L 396.02,-57.6081 L 395.739,-58.04 L 395.505,-58.4989 L 395.321,-58.9796
 L 395.188,-59.4771 L 395.107,-59.9857 L 395.08,-60.5 L 395.107,-61.0143 L 395.188,-61.5229 L 395.321,-62.0204
 L 395.505,-62.5011 L 395.739,-62.96 L 396.02,-63.3919 L 396.344,-63.7921 L 396.708,-64.1563 L 397.108,-64.4804
 L 397.45,-64.7024 L 397.45,-74 L 397.506,-74.5302 L 397.67,-75.0372 L 397.937,-75.4988 L 398.294,-75.895
 L 398.725,-76.2084 L 399.212,-76.4252 L 399.733,-76.536 L 400.267,-76.536 L 400.788,-76.4252 L 401.275,-76.2084
 L 401.706,-75.895 L 402.063,-75.4988 L 402.33,-75.0372 L 402.494,-74.5302 L 402.55,-74 L 402.55,-64.7024
 L 402.892,-64.4804 L 403.292,-64.1563 L 403.656,-63.7921 L 403.98,-63.3919 L 404.261,-62.96 L 404.495,-62.5011
 L 404.679,-62.0204 L 404.812,-61.5229 L 404.893,-61.0143 L 404.92,-60.5 L 404.893,-59.9857 L 404.812,-59.4771
 L 404.679,-58.9796 L 404.495,-58.4989 L 404.261,-58.04 L 403.98,-57.6081 L 403.656,-57.2079 L 403.292,-56.8437
 L 402.892,-56.5196 L 402.46,-56.2392 L 402.001,-56.0054 L 401.52,-55.8208 L 401.023,-55.6875 L 400.514,-55.607
 L 400,-55.58 z
M 1576.99,-55.607 L 1576.48,-55.6875 L 1575.98,-55.8208 L 1575.5,-56.0054 L 1575.04,-56.2392 L 1574.61,-56.5196
 L 1574.21,-56.8437 L 1573.84,-57.2079 L 1573.52,-57.6081 L 1573.24,-58.04 L 1573.01,-58.4989 L 1572.82,-58.9796
 L 1572.69,-59.4771 L 1572.61,-59.9857 L 1572.58,-60.5 L 1572.61,-61.0143 L 1572.69,-61.5229 L 1572.82,-62.0204
 L 1573.01,-62.5011 L 1573.24,-62.96 L 1573.52,-63.3919 L 1573.84,-63.7921 L 1574.21,-64.1563 L 1574.61,-64.4804
 L 1574.95,-64.7024 L 1574.95,-74 L 1575.01,-74.5302 L 1575.17,-75.0372 L 1575.44,-75.4988 L 1575.79,-75.895
 L 1576.23,-76.2084 L 1576.71,-76.4252 L 1577.23,-76.536 L 1577.77,-76.536 L 1578.29,-76.4252 L 1578.77,-76.2084
 L 1579.21,-75.895 L 1579.56,-75.4988 L 1579.83,-75.0372 L 1579.99,-74.5302 L 1580.05,-74 L 1580.05,-64.7024
 L 1580.39,-64.4804 L 1580.79,-64.1563 L 1581.16,-63.7921 L 1581.48,-63.3919 L 1581.76,-62.96 L 1581.99,-62.5011
 L 1582.18,-62.0204 L 1582.31,-61.5229 L 1582.39,-61.0143 L 1582.42,-60.5 L 1582.39,-59.9857 L 1582.31,-59.4771
 L 1582.18,-58.9796 L 1581.99,-58.4989 L 1581.76,-58.04 L 1581.48,-57.6081 L 1581.16,-57.2079 L 1580.79,-56.8437
 L 1580.39,-56.5196 L 1579.96,-56.2392 L 1579.5,-56.0054 L 1579.02,-55.8208 L 1578.52,-55.6875 L 1578.01,-55.607
 L 1577.5,-55.58 z
M 386.505,-20.2909 L 385.69,-20.4806 L 288.316,-54.2205 L 287.275,-54.7639 L 286.653,-55.3235 L 286.162,-56
 L 285.822,-56.7639 L 285.648,-57.5819 L 285.648,-58.4181 L 285.822,-59.2361 L 286.162,-60 L 286.653,-60.6765
 L 287.275,-61.2361 L 287.999,-61.6542 L 288.794,-61.9126 L 289.626,-62 L 387,-62 L 388.236,-61.8042
 L 389,-61.4641 L 389.677,-60.9726 L 390.236,-60.3511 L 390.654,-59.627 L 390.913,-58.8316 L 391,-58
 L 391,-24.2601 L 390.896,-23.3528 L 390.622,-22.5626 L 390.19,-21.8467 L 389.618,-21.2362 L 388.932,-20.7579
 L 388.162,-20.4326 L 387.341,-20.2747 z
M 582.755,-20.2909 L 581.94,-20.4806 L 484.566,-54.2205 L 483.525,-54.7639 L 482.903,-55.3235 L 482.412,-56
 L 482.072,-56.7639 L 481.898,-57.5819 L 481.898,-58.4181 L 482.072,-59.2361 L 482.412,-60 L 482.903,-60.6765
 L 483.525,-61.2361 L 484.249,-61.6542 L 485.044,-61.9126 L 485.876,-62 L 583.25,-62 L 584.486,-61.8042
 L 585.25,-61.4641 L 585.927,-60.9726 L 586.486,-60.3511 L 586.904,-59.627 L 587.163,-58.8316 L 587.25,-58
 L 587.25,-24.2601 L 587.146,-23.3528 L 586.872,-22.5626 L 586.44,-21.8467 L 585.868,-21.2362 L 585.182,-20.7579
 L 584.412,-20.4326 L 583.591,-20.2747 z
M 1393.09,-20.4326 L 1392.32,-20.7579 L 1391.63,-21.2362 L 1391.06,-21.8467 L 1390.63,-22.5626 L 1390.35,-23.3528
 L 1390.25,-24.2601 L 1390.25,-58 L 1390.34,-58.8316 L 1390.6,-59.627 L 1391.01,-60.3511 L 1391.57,-60.9726
 L 1392.25,-61.4641 L 1393.01,-61.8042 L 1394.25,-62 L 1491.62,-62 L 1492.46,-61.9126 L 1493.25,-61.6542
 L 1493.98,-61.2361 L 1494.6,-60.6765 L 1495.09,-60 L 1495.43,-59.2361 L 1495.6,-58.4181 L 1495.6,-57.5819
 L 1495.43,-56.7639 L 1495.09,-56 L 1494.6,-55.3235 L 1493.98,-54.7639 L 1492.93,-54.2205 L 1395.56,-20.4806
 L 1394.75,-20.2909 L 1393.91,-20.2747 z
M 779.005,-20.2909 L 778.19,-20.4806 L 680.816,-54.2205 L 679.775,-54.7639 L 679.153,-55.3235 L 678.662,-56
 L 678.322,-56.7639 L 678.148,-57.5819 L 678.148,-58.4181 L 678.322,-59.2361 L 678.662,-60 L 679.153,-60.6765
 L 679.775,-61.2361 L 680.499,-61.6542 L 681.294,-61.9126 L 682.126,-62 L 779.5,-62 L 780.736,-61.8042
 L 781.5,-61.4641 L 782.177,-60.9726 L 782.736,-60.3511 L 783.154,-59.627 L 783.413,-58.8316 L 783.5,-58
 L 783.5,-24.2601 L 783.396,-23.3528 L 783.122,-22.5626 L 782.69,-21.8467 L 782.118,-21.2362 L 781.432,-20.7579
 L 780.662,-20.4326 L 779.841,-20.2747 z
M 190.255,-20.2909 L 189.44,-20.4806 L 92.0661,-54.2205 L 91.0246,-54.7639 L 90.4032,-55.3235 L 89.9117,-56
 L 89.5715,-56.7639 L 89.3977,-57.5819 L 89.3977,-58.4181 L 89.5715,-59.2361 L 89.9117,-60 L 90.4032,-60.6765
 L 91.0246,-61.2361 L 91.7488,-61.6542 L 92.5441,-61.9126 L 93.3757,-62 L 190.75,-62 L 191.986,-61.8042
 L 192.75,-61.4641 L 193.427,-60.9726 L 193.986,-60.3511 L 194.404,-59.627 L 194.663,-58.8316 L 194.75,-58
 L 194.75,-24.2601 L 194.646,-23.3528 L 194.372,-22.5626 L 193.94,-21.8467 L 193.368,-21.2362 L 192.682,-20.7579
 L 191.912,-20.4326 L 191.091,-20.2747 z
M 804.338,-20.4326 L 803.568,-20.7579 L 802.882,-21.2362 L 802.31,-21.8467 L 801.878,-22.5626 L 801.604,-23.3528
 L 801.5,-24.2601 L 801.5,-58 L 801.587,-58.8316 L 801.846,-59.627 L 802.264,-60.3511 L 802.823,-60.9726
 L 803.5,-61.4641 L 804.264,-61.8042 L 805.5,-62 L 902.874,-62 L 903.706,-61.9126 L 904.501,-61.6542
 L 905.225,-61.2361 L 905.847,-60.6765 L 906.338,-60 L 906.678,-59.2361 L 906.852,-58.4181 L 906.852,-57.5819
 L 906.678,-56.7639 L 906.338,-56 L 905.847,-55.3235 L 905.225,-54.7639 L 904.184,-54.2205 L 806.81,-20.4806
 L 805.995,-20.2909 L 805.159,-20.2747 z
M 1000.59,-20.4326 L 999.818,-20.7579 L 999.132,-21.2362 L 998.56,-21.8467 L 998.128,-22.5626 L 997.854,-23.3528
 L 997.75,-24.2601 L 997.75,-58 L 997.837,-58.8316 L 998.096,-59.627 L 998.514,-60.3511 L 999.073,-60.9726
 L 999.75,-61.4641 L 1000.51,-61.8042 L 1001.75,-62 L 1099.12,-62 L 1099.96,-61.9126 L 1100.75,-61.6542
 L 1101.48,-61.2361 L 1102.1,-60.6765 L 1102.59,-60 L 1102.93,-59.2361 L 1103.1,-58.4181 L 1103.1,-57.5819
 L 1102.93,-56.7639 L 1102.59,-56 L 1102.1,-55.3235 L 1101.48,-54.7639 L 1100.43,-54.2205 L 1003.06,-20.4806
 L 1002.25,-20.2909 L 1001.41,-20.2747 z
M 1196.84,-20.4326 L 1196.07,-20.7579 L 1195.38,-21.2362 L 1194.81,-21.8467 L 1194.38,-22.5626 L 1194.1,-23.3528
 L 1194,-24.2601 L 1194,-58 L 1194.09,-58.8316 L 1194.35,-59.627 L 1194.76,-60.3511 L 1195.32,-60.9726
 L 1196,-61.4641 L 1196.76,-61.8042 L 1198,-62 L 1295.37,-62 L 1296.21,-61.9126 L 1297,-61.6542
 L 1297.73,-61.2361 L 1298.35,-60.6765 L 1298.84,-60 L 1299.18,-59.2361 L 1299.35,-58.4181 L 1299.35,-57.5819
 L 1299.18,-56.7639 L 1298.84,-56 L 1298.35,-55.3235 L 1297.73,-54.7639 L 1296.68,-54.2205 L 1199.31,-20.4806
 L 1198.5,-20.2909 L 1197.66,-20.2747 z
M 216.75,-18 L 215.514,-18.1958 L 214.75,-18.5359 L 214.073,-19.0274 L 213.514,-19.6489 L 213.096,-20.373
 L 212.837,-21.1684 L 212.75,-22 L 212.75,-55.7399 L 212.854,-56.6472 L 213.128,-57.4373 L 213.56,-58.1533
 L 214.132,-58.7638 L 214.818,-59.2421 L 215.588,-59.5673 L 216.409,-59.7253 L 217.245,-59.7091 L 218.06,-59.5194
 L 315.434,-25.7795 L 316.475,-25.2361 L 317.097,-24.6765 L 317.588,-24 L 317.928,-23.2361 L 318.102,-22.4181
 L 318.102,-21.5819 L 317.928,-20.7639 L 317.588,-20 L 317.097,-19.3235 L 316.475,-18.7639 L 315.751,-18.3458
 L 314.956,-18.0874 L 314.124,-18 z
M 413,-18 L 411.764,-18.1958 L 411,-18.5359 L 410.323,-19.0274 L 409.764,-19.6489 L 409.346,-20.373
 L 409.087,-21.1684 L 409,-22 L 409,-55.7399 L 409.104,-56.6472 L 409.378,-57.4373 L 409.81,-58.1533
 L 410.382,-58.7638 L 411.068,-59.2421 L 411.838,-59.5673 L 412.659,-59.7253 L 413.495,-59.7091 L 414.31,-59.5194
 L 511.684,-25.7795 L 512.725,-25.2361 L 513.347,-24.6765 L 513.838,-24 L 514.178,-23.2361 L 514.352,-22.4181
 L 514.352,-21.5819 L 514.178,-20.7639 L 513.838,-20 L 513.347,-19.3235 L 512.725,-18.7639 L 512.001,-18.3458
 L 511.206,-18.0874 L 510.374,-18 z
M 609.25,-18 L 608.014,-18.1958 L 607.25,-18.5359 L 606.573,-19.0274 L 606.014,-19.6489 L 605.596,-20.373
 L 605.337,-21.1684 L 605.25,-22 L 605.25,-55.7399 L 605.354,-56.6472 L 605.628,-57.4373 L 606.06,-58.1533
 L 606.632,-58.7638 L 607.318,-59.2421 L 608.088,-59.5673 L 608.909,-59.7253 L 609.745,-59.7091 L 610.56,-59.5194
 L 707.934,-25.7795 L 708.975,-25.2361 L 709.597,-24.6765 L 710.088,-24 L 710.428,-23.2361 L 710.602,-22.4181
 L 710.602,-21.5819 L 710.428,-20.7639 L 710.088,-20 L 709.597,-19.3235 L 708.975,-18.7639 L 708.251,-18.3458
 L 707.456,-18.0874 L 706.624,-18 z
M 878.376,-18 L 877.544,-18.0874 L 876.749,-18.3458 L 876.025,-18.7639 L 875.403,-19.3235 L 874.912,-20
 L 874.572,-20.7639 L 874.398,-21.5819 L 874.398,-22.4181 L 874.572,-23.2361 L 874.912,-24 L 875.403,-24.6765
 L 876.025,-25.2361 L 877.066,-25.7795 L 974.44,-59.5194 L 975.255,-59.7091 L 976.091,-59.7253 L 976.912,-59.5673
 L 977.682,-59.2421 L 978.368,-58.7638 L 978.94,-58.1533 L 979.372,-57.4373 L 979.646,-56.6472 L 979.75,-55.7399
 L 979.75,-22 L 979.663,-21.1684 L 979.404,-20.373 L 978.986,-19.6489 L 978.427,-19.0274 L 977.75,-18.5359
 L 976.986,-18.1958 L 975.75,-18 z
M 1074.63,-18 L 1073.79,-18.0874 L 1073,-18.3458 L 1072.27,-18.7639 L 1071.65,-19.3235 L 1071.16,-20
 L 1070.82,-20.7639 L 1070.65,-21.5819 L 1070.65,-22.4181 L 1070.82,-23.2361 L 1071.16,-24 L 1071.65,-24.6765
 L 1072.27,-25.2361 L 1073.32,-25.7795 L 1170.69,-59.5194 L 1171.5,-59.7091 L 1172.34,-59.7253 L 1173.16,-59.5673
 L 1173.93,-59.2421 L 1174.62,-58.7638 L 1175.19,-58.1533 L 1175.62,-57.4373 L 1175.9,-56.6472 L 1176,-55.7399
 L 1176,-22 L 1175.91,-21.1684 L 1175.65,-20.373 L 1175.24,-19.6489 L 1174.68,-19.0274 L 1174,-18.5359
 L 1173.24,-18.1958 L 1172,-18 z
M 1270.88,-18 L 1270.04,-18.0874 L 1269.25,-18.3458 L 1268.52,-18.7639 L 1267.9,-19.3235 L 1267.41,-20
 L 1267.07,-20.7639 L 1266.9,-21.5819 L 1266.9,-22.4181 L 1267.07,-23.2361 L 1267.41,-24 L 1267.9,-24.6765
 L 1268.52,-25.2361 L 1269.57,-25.7795 L 1366.94,-59.5194 L 1367.75,-59.7091 L 1368.59,-59.7253 L 1369.41,-59.5673
 L 1370.18,-59.2421 L 1370.87,-58.7638 L 1371.44,-58.1533 L 1371.87,-57.4373 L 1372.15,-56.6472 L 1372.25,-55.7399
 L 1372.25,-22 L 1372.16,-21.1684 L 1371.9,-20.373 L 1371.49,-19.6489 L 1370.93,-19.0274 L 1370.25,-18.5359
 L 1369.49,-18.1958 L 1368.25,-18 z
M 1467.13,-18 L 1466.29,-18.0874 L 1465.5,-18.3458 L 1464.77,-18.7639 L 1464.15,-19.3235 L 1463.66,-20
 L 1463.32,-20.7639 L 1463.15,-21.5819 L 1463.15,-22.4181 L 1463.32,-23.2361 L 1463.66,-24 L 1464.15,-24.6765
 L 1464.77,-25.2361 L 1465.82,-25.7795 L 1561.69,-58.9996 L 1562.5,-59.1893 L 1563.34,-59.2056 L 1564.16,-59.0476
 L 1564.93,-58.7223 L 1565.62,-58.244 L 1566.19,-57.6336 L 1566.62,-56.9176 L 1566.9,-56.1275 L 1567,-55.2201
 L 1567,-22 L 1566.91,-21.1684 L 1566.65,-20.373 L 1566.24,-19.6489 L 1565.68,-19.0274 L 1565,-18.5359
 L 1564.24,-18.1958 L 1563,-18 z
M 22,-18 L 20.7639,-18.1958 L 20,-18.5359 L 19.3235,-19.0274 L 18.7639,-19.6489 L 18.3458,-20.373
 L 18.0874,-21.1684 L 18,-22 L 18,-55.2201 L 18.1043,-56.1275 L 18.3781,-56.9176 L 18.8101,-57.6336
 L 19.3816,-58.244 L 20.0676,-58.7223 L 20.8379,-59.0476 L 21.6591,-59.2056 L 22.4952,-59.1893 L 23.3096,-58.9996
 L 119.184,-25.7795 L 120.225,-25.2361 L 120.847,-24.6765 L 121.338,-24 L 121.678,-23.2361 L 121.852,-22.4181
 L 121.852,-21.5819 L 121.678,-20.7639 L 121.338,-20 L 120.847,-19.3235 L 120.225,-18.7639 L 119.501,-18.3458
 L 118.706,-18.0874 L 117.874,-18 z
" stroke="black" fill="lightgray" stroke-width="0.5"/>
</svg>
