<?xml version="1.0" standalone="no"?>
<!DOCTYPE svg PUBLIC "-//W3C//DTD SVG 1.1//EN" "http://www.w3.org/Graphics/SVG/1.1/DTD/svg11.dtd">
<svg width="1291mm" height="80mm" viewBox="0 -80 1291 80" xmlns="http://www.w3.org/2000/svg" version="1.1">
<title>OpenSCAD Model</title>
<path d="
M 1291,-80 L 0,-80 L 0,-0 L 4.95,-0 L 4.95,-6 L 5.00572,-6.53017
 L 5.17046,-7.03717 L 5.437,-7.49884 L 5.79372,-7.895 L 6.22499,-8.20836 L 6.71201,-8.42519 L 7.23344,-8.53603
 L 7.76654,-8.53603 L 8.28798,-8.42519 L 8.77499,-8.20836 L 9.20627,-7.895 L 9.56299,-7.49884 L 9.82953,-7.03717
 L 9.99426,-6.53017 L 10.05,-6 L 10.05,-0 L 187.236,-0 L 187.236,-6 L 187.291,-6.53017
 L 187.456,-7.03717 L 187.723,-7.49884 L 188.079,-7.895 L 188.511,-8.20836 L 188.998,-8.42519 L 189.519,-8.53603
 L 190.052,-8.53603 L 190.574,-8.42519 L 191.061,-8.20836 L 191.492,-7.895 L 191.849,-7.49884 L 192.115,-7.03717
 L 192.28,-6.53017 L 192.336,-6 L 192.336,-0 L 369.521,-0 L 369.521,-6 L 369.577,-6.53017
 L 369.742,-7.03717 L 370.008,-7.49884 L 370.365,-7.895 L 370.796,-8.20836 L 371.283,-8.42519 L 371.805,-8.53603
 L 372.338,-8.53603 L 372.859,-8.42519 L 373.346,-8.20836 L 373.778,-7.895 L 374.134,-7.49884 L 374.401,-7.03717
 L 374.566,-6.53017 L 374.621,-6 L 374.621,-0 L 551.807,-0 L 551.807,-6 L 551.863,-6.53017
 L 552.028,-7.03717 L 552.294,-7.49884 L 552.651,-7.895 L 553.082,-8.20836 L 553.569,-8.42519 L 554.091,-8.53603
 L 554.624,-8.53603 L 555.145,-8.42519 L 555.632,-8.20836 L 556.063,-7.895 L 556.42,-7.49884 L 556.687,-7.03717
 L 556.851,-6.53017 L 556.907,-6 L 556.907,-0 L 734.093,-0 L 734.093,-6 L 734.149,-6.53017
 L 734.313,-7.03717 L 734.58,-7.49884 L 734.937,-7.895 L 735.368,-8.20836 L 735.855,-8.42519 L 736.376,-8.53603
 L 736.909,-8.53603 L 737.431,-8.42519 L 737.918,-8.20836 L 738.349,-7.895 L 738.706,-7.49884 L 738.972,-7.03717
 L 739.137,-6.53017 L 739.193,-6 L 739.193,-0 L 916.379,-0 L 916.379,-6 L 916.434,-6.53017
 L 916.599,-7.03717 L 916.866,-7.49884 L 917.222,-7.895 L 917.654,-8.20836 L 918.141,-8.42519 L 918.662,-8.53603
 L 919.195,-8.53603 L 919.717,-8.42519 L 920.204,-8.20836 L 920.635,-7.895 L 920.992,-7.49884 L 921.258,-7.03717
 L 921.423,-6.53017 L 921.479,-6 L 921.479,-0 L 1098.66,-0 L 1098.66,-6 L 1098.72,-6.53017
 L 1098.88,-7.03717 L 1099.15,-7.49884 L 1099.51,-7.895 L 1099.94,-8.20836 L 1100.43,-8.42519 L 1100.95,-8.53603
 L 1101.48,-8.53603 L 1102,-8.42519 L 1102.49,-8.20836 L 1102.92,-7.895 L 1103.28,-7.49884 L 1103.54,-7.03717
 L 1103.71,-6.53017 L 1103.76,-6 L 1103.76,-0 L 1280.95,-0 L 1280.95,-6 L 1281.01,-6.53017
 L 1281.17,-7.03717 L 1281.44,-7.49884 L 1281.79,-7.895 L 1282.22,-8.20836 L 1282.71,-8.42519 L 1283.23,-8.53603
 L 1283.77,-8.53603 L 1284.29,-8.42519 L 1284.77,-8.20836 L 1285.21,-7.895 L 1285.56,-7.49884 L 1285.83,-7.03717
 L 1285.99,-6.53017 L 1286.05,-6 L 1286.05,-0 L 1291,-0 z
M 6.98573,-55.607 L 6.47708,-55.6875 L 5.97964,-55.8208 L 5.49887,-56.0054 L 5.04001,-56.2392 L 4.60811,-56.5196
 L 4.20789,-56.8437 L 3.84373,-57.2079 L 3.51964,-57.6081 L 3.23917,-58.04 L 3.00537,-58.4989 L 2.82082,-58.9796
 L 2.68752,-59.4771 L 2.60696,-59.9857 L 2.58,-60.5 L 2.60696,-61.0143 L 2.68752,-61.5229 L 2.82082,-62.0204
 L 3.00537,-62.5011 L 3.23917,-62.96 L 3.51964,-63.3919 L 3.84373,-63.7921 L 4.20789,-64.1563 L 4.60811,-64.4804
 L 4.95001,-64.7024 L 4.95001,-74 L 5.00574,-74.5302 L 5.17047,-75.0372 L 5.43701,-75.4988 L 5.79373,-75.895
 L 6.22501,-76.2084 L 6.71202,-76.4252 L 7.23346,-76.536 L 7.76654,-76.536 L 8.28798,-76.4252 L 8.77499,-76.2084
 L 9.20627,-75.895 L 9.56299,-75.4988 L 9.82953,-75.0372 L 9.99426,-74.5302 L 10.05,-74 L 10.05,-64.7024
 L 10.3919,-64.4804 L 10.7921,-64.1563 L 11.1563,-63.7921 L 11.4804,-63.3919 L 11.7608,-62.96 L 11.9946,-62.5011
 L 12.1792,-62.0204 L 12.3125,-61.5229 L 12.393,-61.0143 L 12.42,-60.5 L 12.393,-59.9857 L 12.3125,-59.4771
 L 12.1792,-58.9796 L 11.9946,-58.4989 L 11.7608,-58.04 L 11.4804,-57.6081 L 11.1563,-57.2079 L 10.7921,-56.8437
 L 10.3919,-56.5196 L 9.95999,-56.2392 L 9.50113,-56.0054 L 9.02036,-55.8208 L 8.52292,-55.6875 L 8.01427,-55.607
 L 7.5,-55.58 z
M 189.271,-55.607 L 188.763,-55.6875 L 188.265,-55.8208 L 187.785,-56.0054 L 187.326,-56.2392 L 186.894,-56.5196
 L 186.494,-56.8437 L 186.129,-57.2079 L 185.805,-57.6081 L 185.525,-58.04 L 185.291,-58.4989 L 185.107,-58.9796
 L 184.973,-59.4771 L 184.893,-59.9857 L 184.866,-60.5 L 184.893,-61.0143 L 184.973,-61.5229 L 185.107,-62.0204
 L 185.291,-62.5011 L 185.525,-62.96 L 185.805,-63.3919 L 186.129,-63.7921 L 186.494,-64.1563 L 186.894,-64.4804
 L 187.236,-64.7024 L 187.236,-74 L 187.291,-74.5302 L 187.456,-75.0372 L 187.723,-75.4988 L 188.079,-75.895
 L 188.511,-76.2084 L 188.998,-76.4252 L 189.519,-76.536 L 190.052,-76.536 L 190.574,-76.4252 L 191.061,-76.2084
 L 191.492,-75.895 L 191.849,-75.4988 L 192.115,-75.0372 L 192.28,-74.5302 L 192.336,-74 L 192.336,-64.7024
 L 192.678,-64.4804 L 193.078,-64.1563 L 193.442,-63.7921 L 193.766,-63.3919 L 194.047,-62.96 L 194.28,-62.5011
 L 194.465,-62.0204 L 194.598,-61.5229 L 194.679,-61.0143 L 194.706,-60.5 L 194.679,-59.9857 L 194.598,-59.4771
 L 194.465,-58.9796 L 194.28,-58.4989 L 194.047,-58.04 L 193.766,-57.6081 L 193.442,-57.2079 L 193.078,-56.8437
 L 192.678,-56.5196 L 192.246,-56.2392 L 191.787,-56.0054 L 191.306,-55.8208 L 190.809,-55.6875 L 190.3,-55.607
 L 189.786,-55.58 z
M 371.557,-55.607 L 371.049,-55.6875 L 370.551,-55.8208 L 370.07,-56.0054 L 369.611,-56.2392 L 369.18,-56.5196
 L 368.779,-56.8437 L 368.415,-57.2079 L 368.091,-57.6081 L 367.811,-58.04 L 367.577,-58.4989 L 367.392,-58.9796
 L 367.259,-59.4771 L 367.178,-59.9857 L 367.151,-60.5 L 367.178,-61.0143 L 367.259,-61.5229 L 367.392,-62.0204
 L 367.577,-62.5011 L 367.811,-62.96 L 368.091,-63.3919 L 368.415,-63.7921 L 368.779,-64.1563 L 369.18,-64.4804
 L 369.521,-64.7024 L 369.521,-74 L 369.577,-74.5302 L 369.742,-75.0372 L 370.008,-75.4988 L 370.365,-75.895
 L 370.796,-76.2084 L 371.283,-76.4252 L 371.805,-76.536 L 372.338,-76.536 L 372.859,-76.4252 L 373.346,-76.2084
 L 373.778,-75.895 L 374.134,-75.4988 L 374.401,-75.0372 L 374.566,-74.5302 L 374.621,-74 L 374.621,-64.7024
 L 374.963,-64.4804 L 375.364,-64.1563 L 375.728,-63.7921 L 376.052,-63.3919 L 376.332,-62.96 L 376.566,-62.5011
 L 376.751,-62.0204 L 376.884,-61.5229 L 376.964,-61.0143 L 376.991,-60.5 L 376.964,-59.9857 L 376.884,-59.4771
 L 376.751,-58.9796 L 376.566,-58.4989 L 376.332,-58.04 L 376.052,-57.6081 L 375.728,-57.2079 L 375.364,-56.8437
 L 374.963,-56.5196 L 374.531,-56.2392 L 374.073,-56.0054 L 373.592,-55.8208 L 373.094,-55.6875 L 372.586,-55.607
 L 372.071,-55.58 z
M 553.843,-55.607 L 553.334,-55.6875 L 552.837,-55.8208 L 552.356,-56.0054 L 551.897,-56.2392 L 551.465,-56.5196
 L 551.065,-56.8437 L 550.701,-57.2079 L 550.377,-57.6081 L 550.096,-58.04 L 549.863,-58.4989 L 549.678,-58.9796
 L 549.545,-59.4771 L 549.464,-59.9857 L 549.437,-60.5 L 549.464,-61.0143 L 549.545,-61.5229 L 549.678,-62.0204
 L 549.863,-62.5011 L 550.096,-62.96 L 550.377,-63.3919 L 550.701,-63.7921 L 551.065,-64.1563 L 551.465,-64.4804
 L 551.807,-64.7024 L 551.807,-74 L 551.863,-74.5302 L 552.028,-75.0372 L 552.294,-75.4988 L 552.651,-75.895
 L 553.082,-76.2084 L 553.569,-76.4252 L 554.091,-76.536 L 554.624,-76.536 L 555.145,-76.4252 L 555.632,-76.2084
 L 556.063,-75.895 L 556.42,-75.4988 L 556.687,-75.0372 L 556.851,-74.5302 L 556.907,-74 L 556.907,-64.7024
 L 557.249,-64.4804 L 557.649,-64.1563 L 558.013,-63.7921 L 558.337,-63.3919 L 558.618,-62.96 L 558.852,-62.5011
 L 559.036,-62.0204 L 559.17,-61.5229 L 559.25,-61.0143 L 559.277,-60.5 L 559.25,-59.9857 L 559.17,-59.4771
 L 559.036,-58.9796 L 558.852,-58.4989 L 558.618,-58.04 L 558.337,-57.6081 L 558.013,-57.2079 L 557.649,-56.8437
 L 557.249,-56.5196 L 556.817,-56.2392 L 556.358,-56.0054 L 555.877,-55.8208 L 555.38,-55.6875 L 554.871,-55.607
 L 554.357,-55.58 z
M 736.129,-55.607 L 735.62,-55.6875 L 735.122,-55.8208 L 734.642,-56.0054 L 734.183,-56.2392 L 733.751,-56.5196
 L 733.351,-56.8437 L 732.987,-57.2079 L 732.662,-57.6081 L 732.382,-58.04 L 732.148,-58.4989 L 731.964,-58.9796
 L 731.83,-59.4771 L 731.75,-59.9857 L 731.723,-60.5 L 731.75,-61.0143 L 731.83,-61.5229 L 731.964,-62.0204
 L 732.148,-62.5011 L 732.382,-62.96 L 732.662,-63.3919 L 732.987,-63.7921 L 733.351,-64.1563 L 733.751,-64.4804
 L 734.093,-64.7024 L 734.093,-74 L 734.149,-74.5302 L 734.313,-75.0372 L 734.58,-75.4988 L 734.937,-75.895
 L 735.368,-76.2084 L 735.855,-76.4252 L 736.376,-76.536 L 736.909,-76.536 L 737.431,-76.4252 L 737.918,-76.2084
 L 738.349,-75.895 L 738.706,-75.4988 L 738.972,-75.0372 L 739.137,-74.5302 L 739.193,-74 L 739.193,-64.7024
 L 739.535,-64.4804 L 739.935,-64.1563 L 740.299,-63.7921 L 740.623,-63.3919 L 740.904,-62.96 L 741.137,-62.5011
 L 741.322,-62.0204 L 741.455,-61.5229 L 741.536,-61.0143 L 741.563,-60.5 L 741.536,-59.9857 L 741.455,-59.4771
 L 741.322,-58.9796 L 741.137,-58.4989 L 740.904,-58.04 L 740.623,-57.6081 L 740.299,-57.2079 L 739.935,-56.8437
 L 739.535,-56.5196 L 739.103,-56.2392 L 738.644,-56.0054 L 738.163,-55.8208 L 737.666,-55.6875 L 737.157,-55.607
 L 736.643,-55.58 z
M 918.414,-55.607 L 917.906,-55.6875 L 917.408,-55.8208 L 916.927,-56.0054 L 916.469,-56.2392 L 916.037,-56.5196
 L 915.636,-56.8437 L 915.272,-57.2079 L 914.948,-57.6081 L 914.668,-58.04 L 914.434,-58.4989 L 914.249,-58.9796
 L 914.116,-59.4771 L 914.036,-59.9857 L 914.009,-60.5 L 914.036,-61.0143 L 914.116,-61.5229 L 914.249,-62.0204
 L 914.434,-62.5011 L 914.668,-62.96 L 914.948,-63.3919 L 915.272,-63.7921 L 915.636,-64.1563 L 916.037,-64.4804
 L 916.379,-64.7024 L 916.379,-74 L 916.434,-74.5302 L 916.599,-75.0372 L 916.866,-75.4988 L 917.222,-75.895
 L 917.654,-76.2084 L 918.141,-76.4252 L 918.662,-76.536 L 919.195,-76.536 L 919.717,-76.4252 L 920.204,-76.2084
 L 920.635,-75.895 L 920.992,-75.4988 L 921.258,-75.0372 L 921.423,-74.5302 L 921.479,-74 L 921.479,-64.7024
 L 921.82,-64.4804 L 922.221,-64.1563 L 922.585,-63.7921 L 922.909,-63.3919 L 923.189,-62.96 L 923.423,-62.5011
 L 923.608,-62.0204 L 923.741,-61.5229 L 923.822,-61.0143 L 923.849,-60.5 L 923.822,-59.9857 L 923.741,-59.4771
 L 923.608,-58.9796 L 923.423,-58.4989 L 923.189,-58.04 L 922.909,-57.6081 L 922.585,-57.2079 L 922.221,-56.8437
 L 921.82,-56.5196 L 921.389,-56.2392 L 920.93,-56.0054 L 920.449,-55.8208 L 919.951,-55.6875 L 919.443,-55.607
 L 918.929,-55.58 z
M 1100.7,-55.607 L 1100.19,-55.6875 L 1099.69,-55.8208 L 1099.21,-56.0054 L 1098.75,-56.2392 L 1098.32,-56.5196
 L 1097.92,-56.8437 L 1097.56,-57.2079 L 1097.23,-57.6081 L 1096.95,-58.04 L 1096.72,-58.4989 L 1096.54,-58.9796
 L 1096.4,-59.4771 L 1096.32,-59.9857 L 1096.29,-60.5 L 1096.32,-61.0143 L 1096.4,-61.5229 L 1096.54,-62.0204
 L 1096.72,-62.5011 L 1096.95,-62.96 L 1097.23,-63.3919 L 1097.56,-63.7921 L 1097.92,-64.1563 L 1098.32,-64.4804
 L 1098.66,-64.7024 L 1098.66,-74 L 1098.72,-74.5302 L 1098.88,-75.0372 L 1099.15,-75.4988 L 1099.51,-75.895
 L 1099.94,-76.2084 L 1100.43,-76.4252 L 1100.95,-76.536 L 1101.48,-76.536 L 1102,-76.4252 L 1102.49,-76.2084
 L 1102.92,-75.895 L 1103.28,-75.4988 L 1103.54,-75.0372 L 1103.71,-74.5302 L 1103.76,-74 L 1103.76,-64.7024
 L 1104.11,-64.4804 L 1104.51,-64.1563 L 1104.87,-63.7921 L 1105.19,-63.3919 L 1105.48,-62.96 L 1105.71,-62.5011
 L 1105.89,-62.0204 L 1106.03,-61.5229 L 1106.11,-61.0143 L 1106.13,-60.5 L 1106.11,-59.9857 L 1106.03,-59.4771
 L 1105.89,-58.9796 L 1105.71,-58.4989 L 1105.48,-58.04 L 1105.19,-57.6081 L 1104.87,-57.2079 L 1104.51,-56.8437
 L 1104.11,-56.5196 L 1103.67,-56.2392 L 1103.22,-56.0054 L 1102.73,-55.8208 L 1102.24,-55.6875 L 1101.73,-55.607
 L 1101.21,-55.58 z
M 1282.99,-55.607 L 1282.48,-55.6875 L 1281.98,-55.8208 L 1281.5,-56.0054 L 1281.04,-56.2392 L 1280.61,-56.5196
 L 1280.21,-56.8437 L 1279.84,-57.2079 L 1279.52,-57.6081 L 1279.24,-58.04 L 1279.01,-58.4989 L 1278.82,-58.9796
 L 1278.69,-59.4771 L 1278.61,-59.9857 L 1278.58,-60.5 L 1278.61,-61.0143 L 1278.69,-61.5229 L 1278.82,-62.0204
 L 1279.01,-62.5011 L 1279.24,-62.96 L 1279.52,-63.3919 L 1279.84,-63.7921 L 1280.21,-64.1563 L 1280.61,-64.4804
 L 1280.95,-64.7024 L 1280.95,-74 L 1281.01,-74.5302 L 1281.17,-75.0372 L 1281.44,-75.4988 L 1281.79,-75.895
 L 1282.23,-76.2084 L 1282.71,-76.4252 L 1283.23,-76.536 L 1283.77,-76.536 L 1284.29,-76.4252 L 1284.77,-76.2084
 L 1285.21,-75.895 L 1285.56,-75.4988 L 1285.83,-75.0372 L 1285.99,-74.5302 L 1286.05,-74 L 1286.05,-64.7024
 L 1286.39,-64.4804 L 1286.79,-64.1563 L 1287.16,-63.7921 L 1287.48,-63.3919 L 1287.76,-62.96 L 1287.99,-62.5011
 L 1288.18,-62.0204 L 1288.31,-61.5229 L 1288.39,-61.0143 L 1288.42,-60.5 L 1288.39,-59.9857 L 1288.31,-59.4771
 L 1288.18,-58.9796 L 1287.99,-58.4989 L 1287.76,-58.04 L 1287.48,-57.6081 L 1287.16,-57.2079 L 1286.79,-56.8437
 L 1286.39,-56.5196 L 1285.96,-56.2392 L 1285.5,-56.0054 L 1285.02,-55.8208 L 1284.52,-55.6875 L 1284.01,-55.607
 L 1283.5,-55.58 z
M 748.571,-20.8581 L 747.793,-21.1652 L 747.096,-21.6272 L 746.511,-22.2241 L 746.062,-22.9297 L 745.77,-23.7132
 L 745.643,-24.7118 L 745.643,-58 L 745.73,-58.8316 L 745.989,-59.627 L 746.407,-60.3511 L 746.966,-60.9726
 L 747.643,-61.4641 L 748.407,-61.8042 L 749.643,-62 L 838.878,-62 L 839.709,-61.9126 L 840.504,-61.6542
 L 841.229,-61.2361 L 841.85,-60.6765 L 842.342,-60 L 842.682,-59.2361 L 842.856,-58.4181 L 842.856,-57.5819
 L 842.682,-56.7639 L 842.342,-56 L 841.85,-55.3235 L 841.229,-54.7639 L 840.276,-54.2523 L 751.041,-20.9641
 L 750.231,-20.7553 L 749.396,-20.7195 z
M 644.912,-47.7731 L 644.102,-47.9819 L 627.293,-54.2523 L 626.34,-54.7639 L 625.719,-55.3235 L 625.227,-56
 L 624.887,-56.7639 L 624.713,-57.5819 L 624.713,-58.4181 L 624.887,-59.2361 L 625.227,-60 L 625.719,-60.6765
 L 626.34,-61.2361 L 627.064,-61.6542 L 627.86,-61.9126 L 628.691,-62 L 662.309,-62 L 663.381,-61.8537
 L 664.158,-61.5467 L 664.855,-61.0846 L 665.441,-60.4877 L 665.89,-59.7821 L 666.182,-58.9987 L 666.305,-58.1715
 L 666.253,-57.3369 L 666.029,-56.5312 L 665.643,-55.7898 L 665.11,-55.1449 L 664.455,-54.6248 L 663.707,-54.2523
 L 646.898,-47.9819 L 645.747,-47.7373 z
M 540.769,-20.7553 L 539.959,-20.9641 L 450.724,-54.2523 L 449.771,-54.7639 L 449.15,-55.3235 L 448.658,-56
 L 448.318,-56.7639 L 448.144,-57.5819 L 448.144,-58.4181 L 448.318,-59.2361 L 448.658,-60 L 449.15,-60.6765
 L 449.771,-61.2361 L 450.496,-61.6542 L 451.291,-61.9126 L 452.122,-62 L 541.357,-62 L 542.593,-61.8042
 L 543.357,-61.4641 L 544.034,-60.9726 L 544.593,-60.3511 L 545.011,-59.627 L 545.27,-58.8316 L 545.357,-58
 L 545.357,-24.7118 L 545.23,-23.7132 L 544.938,-22.9297 L 544.489,-22.2241 L 543.904,-21.6272 L 543.207,-21.1652
 L 542.429,-20.8581 L 541.604,-20.7195 z
M 358.483,-20.7553 L 357.673,-20.9641 L 268.439,-54.2523 L 267.486,-54.7639 L 266.864,-55.3235 L 266.373,-56
 L 266.033,-56.7639 L 265.859,-57.5819 L 265.859,-58.4181 L 266.033,-59.2361 L 266.373,-60 L 266.864,-60.6765
 L 267.486,-61.2361 L 268.21,-61.6542 L 269.005,-61.9126 L 269.837,-62 L 359.071,-62 L 360.307,-61.8042
 L 361.071,-61.4641 L 361.748,-60.9726 L 362.307,-60.3511 L 362.726,-59.627 L 362.984,-58.8316 L 363.071,-58
 L 363.071,-24.7118 L 362.945,-23.7132 L 362.652,-22.9297 L 362.204,-22.2241 L 361.618,-21.6272 L 360.921,-21.1652
 L 360.143,-20.8581 L 359.319,-20.7195 z
M 1113.14,-20.8581 L 1112.36,-21.1652 L 1111.67,-21.6272 L 1111.08,-22.2241 L 1110.63,-22.9297 L 1110.34,-23.7132
 L 1110.21,-24.7118 L 1110.21,-58 L 1110.3,-58.8316 L 1110.56,-59.627 L 1110.98,-60.3511 L 1111.54,-60.9726
 L 1112.21,-61.4641 L 1112.98,-61.8042 L 1114.21,-62 L 1203.45,-62 L 1204.28,-61.9126 L 1205.08,-61.6542
 L 1205.8,-61.2361 L 1206.42,-60.6765 L 1206.91,-60 L 1207.25,-59.2361 L 1207.43,-58.4181 L 1207.43,-57.5819
 L 1207.25,-56.7639 L 1206.91,-56 L 1206.42,-55.3235 L 1205.8,-54.7639 L 1204.85,-54.2523 L 1115.61,-20.9641
 L 1114.8,-20.7553 L 1113.97,-20.7195 z
M 176.197,-20.7553 L 175.388,-20.9641 L 86.153,-54.2523 L 85.1999,-54.7639 L 84.5785,-55.3235 L 84.087,-56
 L 83.7468,-56.7639 L 83.573,-57.5819 L 83.573,-58.4181 L 83.7468,-59.2361 L 84.087,-60 L 84.5785,-60.6765
 L 85.1999,-61.2361 L 85.9241,-61.6542 L 86.7194,-61.9126 L 87.5511,-62 L 176.786,-62 L 178.022,-61.8042
 L 178.786,-61.4641 L 179.462,-60.9726 L 180.022,-60.3511 L 180.44,-59.627 L 180.698,-58.8316 L 180.786,-58
 L 180.786,-24.7118 L 180.659,-23.7132 L 180.367,-22.9297 L 179.918,-22.2241 L 179.332,-21.6272 L 178.635,-21.1652
 L 177.858,-20.8581 L 177.033,-20.7195 z
M 930.857,-20.8581 L 930.079,-21.1652 L 929.382,-21.6272 L 928.796,-22.2241 L 928.348,-22.9297 L 928.055,-23.7132
 L 927.929,-24.7118 L 927.929,-58 L 928.016,-58.8316 L 928.274,-59.627 L 928.693,-60.3511 L 929.252,-60.9726
 L 929.929,-61.4641 L 930.693,-61.8042 L 931.929,-62 L 1021.16,-62 L 1021.99,-61.9126 L 1022.79,-61.6542
 L 1023.51,-61.2361 L 1024.14,-60.6765 L 1024.63,-60 L 1024.97,-59.2361 L 1025.14,-58.4181 L 1025.14,-57.5819
 L 1024.97,-56.7639 L 1024.63,-56 L 1024.14,-55.3235 L 1023.51,-54.7639 L 1022.56,-54.2523 L 933.327,-20.9641
 L 932.517,-20.7553 L 931.681,-20.7195 z
M 566.939,-18.6011 L 566.121,-18.775 L 565.357,-19.1151 L 564.681,-19.6066 L 564.121,-20.2281 L 563.703,-20.9522
 L 563.445,-21.7475 L 563.357,-22.5792 L 563.357,-57.4208 L 563.484,-58.4195 L 563.776,-59.2029 L 564.225,-59.9085
 L 564.811,-60.5054 L 565.508,-60.9675 L 566.285,-61.2745 L 567.11,-61.4132 L 567.945,-61.3773 L 568.755,-61.1685
 L 615.455,-43.7477 L 615.906,-43.5467 L 616.603,-43.0846 L 617.189,-42.4877 L 617.638,-41.7821 L 617.93,-40.9987
 L 618.053,-40.1715 L 618.001,-39.3369 L 617.777,-38.5312 L 617.391,-37.7898 L 616.858,-37.1449 L 616.203,-36.6248
 L 615.455,-36.2523 L 568.755,-18.8315 L 567.775,-18.6011 z
M 723.055,-18.6227 L 722.245,-18.8315 L 675.545,-36.2523 L 675.094,-36.4533 L 674.397,-36.9154 L 673.811,-37.5123
 L 673.362,-38.2179 L 673.07,-39.0013 L 672.947,-39.8285 L 672.999,-40.6631 L 673.223,-41.4688 L 673.609,-42.2102
 L 674.142,-42.8551 L 674.797,-43.3752 L 675.545,-43.7477 L 722.245,-61.1685 L 723.225,-61.3989 L 724.061,-61.3989
 L 724.879,-61.2251 L 725.643,-60.8849 L 726.319,-60.3934 L 726.879,-59.772 L 727.297,-59.0478 L 727.555,-58.2525
 L 727.643,-57.4208 L 727.643,-22.5792 L 727.516,-21.5805 L 727.224,-20.797 L 726.775,-20.0914 L 726.189,-19.4946
 L 725.492,-19.0325 L 724.715,-18.7254 L 723.89,-18.5868 z
M 202.786,-18 L 201.55,-18.1958 L 200.786,-18.5359 L 200.109,-19.0274 L 199.55,-19.6489 L 199.132,-20.373
 L 198.873,-21.1684 L 198.786,-22 L 198.786,-55.2881 L 198.912,-56.2868 L 199.205,-57.0703 L 199.653,-57.7759
 L 200.239,-58.3728 L 200.936,-58.8348 L 201.714,-59.1419 L 202.539,-59.2805 L 203.374,-59.2446 L 204.184,-59.0359
 L 293.418,-25.7477 L 294.371,-25.2361 L 294.993,-24.6765 L 295.484,-24 L 295.825,-23.2361 L 295.998,-22.4181
 L 295.998,-21.5819 L 295.825,-20.7639 L 295.484,-20 L 294.993,-19.3235 L 294.371,-18.7639 L 293.647,-18.3458
 L 292.852,-18.0874 L 292.02,-18 z
M 385.071,-18 L 383.835,-18.1958 L 383.071,-18.5359 L 382.395,-19.0274 L 381.835,-19.6489 L 381.417,-20.373
 L 381.159,-21.1684 L 381.071,-22 L 381.071,-55.2881 L 381.198,-56.2868 L 381.49,-57.0703 L 381.939,-57.7759
 L 382.525,-58.3728 L 383.222,-58.8348 L 384,-59.1419 L 384.824,-59.2805 L 385.66,-59.2446 L 386.469,-59.0359
 L 475.704,-25.7477 L 476.657,-25.2361 L 477.279,-24.6765 L 477.77,-24 L 478.11,-23.2361 L 478.284,-22.4181
 L 478.284,-21.5819 L 478.11,-20.7639 L 477.77,-20 L 477.279,-19.3235 L 476.657,-18.7639 L 475.933,-18.3458
 L 475.138,-18.0874 L 474.306,-18 z
M 816.694,-18 L 815.862,-18.0874 L 815.067,-18.3458 L 814.343,-18.7639 L 813.721,-19.3235 L 813.23,-20
 L 812.89,-20.7639 L 812.716,-21.5819 L 812.716,-22.4181 L 812.89,-23.2361 L 813.23,-24 L 813.721,-24.6765
 L 814.343,-25.2361 L 815.296,-25.7477 L 904.531,-59.0359 L 905.34,-59.2446 L 906.176,-59.2805 L 907,-59.1419
 L 907.778,-58.8348 L 908.475,-58.3728 L 909.061,-57.7759 L 909.51,-57.0703 L 909.802,-56.2868 L 909.929,-55.2881
 L 909.929,-22 L 909.841,-21.1684 L 909.583,-20.373 L 909.165,-19.6489 L 908.605,-19.0274 L 907.929,-18.5359
 L 907.165,-18.1958 L 905.929,-18 z
M 998.98,-18 L 998.148,-18.0874 L 997.353,-18.3458 L 996.629,-18.7639 L 996.007,-19.3235 L 995.516,-20
 L 995.175,-20.7639 L 995.002,-21.5819 L 995.002,-22.4181 L 995.175,-23.2361 L 995.516,-24 L 996.007,-24.6765
 L 996.629,-25.2361 L 997.582,-25.7477 L 1086.82,-59.0359 L 1087.63,-59.2446 L 1088.46,-59.2805 L 1089.29,-59.1419
 L 1090.06,-58.8348 L 1090.76,-58.3728 L 1091.35,-57.7759 L 1091.8,-57.0703 L 1092.09,-56.2868 L 1092.21,-55.2881
 L 1092.21,-22 L 1092.13,-21.1684 L 1091.87,-20.373 L 1091.45,-19.6489 L 1090.89,-19.0274 L 1090.21,-18.5359
 L 1089.45,-18.1958 L 1088.21,-18 z
M 22,-18 L 20.7639,-18.1958 L 20,-18.5359 L 19.3235,-19.0274 L 18.7639,-19.6489 L 18.3458,-20.373
 L 18.0874,-21.1684 L 18,-22 L 18,-54.7286 L 18.1267,-55.7272 L 18.4189,-56.5107 L 18.8677,-57.2163
 L 19.4534,-57.8132 L 20.1504,-58.2753 L 20.9282,-58.5823 L 21.7529,-58.7209 L 22.5883,-58.6851 L 23.3981,-58.4763
 L 111.133,-25.7477 L 112.086,-25.2361 L 112.707,-24.6765 L 113.199,-24 L 113.539,-23.2361 L 113.713,-22.4181
 L 113.713,-21.5819 L 113.539,-20.7639 L 113.199,-20 L 112.707,-19.3235 L 112.086,-18.7639 L 111.362,-18.3458
 L 110.566,-18.0874 L 109.735,-18 z
M 1181.27,-18 L 1180.43,-18.0874 L 1179.64,-18.3458 L 1178.91,-18.7639 L 1178.29,-19.3235 L 1177.8,-20
 L 1177.46,-20.7639 L 1177.29,-21.5819 L 1177.29,-22.4181 L 1177.46,-23.2361 L 1177.8,-24 L 1178.29,-24.6765
 L 1178.91,-25.2361 L 1179.87,-25.7477 L 1267.6,-58.4763 L 1268.41,-58.6851 L 1269.25,-58.7209 L 1270.07,-58.5823
 L 1270.85,-58.2753 L 1271.55,-57.8132 L 1272.13,-57.2163 L 1272.58,-56.5107 L 1272.87,-55.7272 L 1273,-54.7286
 L 1273,-22 L 1272.91,-21.1684 L 1272.65,-20.373 L 1272.24,-19.6489 L 1271.68,-19.0274 L 1271,-18.5359
 L 1270.24,-18.1958 L 1269,-18 z
M 628.691,-18 L 627.619,-18.1463 L 626.842,-18.4533 L 626.145,-18.9154 L 625.559,-19.5123 L 625.11,-20.2179
 L 624.818,-21.0013 L 624.695,-21.8285 L 624.747,-22.6631 L 624.971,-23.4688 L 625.357,-24.2102 L 625.89,-24.8551
 L 626.545,-25.3752 L 627.293,-25.7477 L 644.102,-32.0181 L 645.253,-32.2627 L 646.088,-32.2269 L 646.898,-32.0181
 L 663.707,-25.7477 L 664.66,-25.2361 L 665.281,-24.6765 L 665.773,-24 L 666.113,-23.2361 L 666.287,-22.4181
 L 666.287,-21.5819 L 666.113,-20.7639 L 665.773,-20 L 665.281,-19.3235 L 664.66,-18.7639 L 663.936,-18.3458
 L 663.14,-18.0874 L 662.309,-18 z
" stroke="black" fill="lightgray" stroke-width="0.5"/>
</svg>
