<?xml version="1.0" standalone="no"?>
<!DOCTYPE svg PUBLIC "-//W3C//DTD SVG 1.1//EN" "http://www.w3.org/Graphics/SVG/1.1/DTD/svg11.dtd">
<svg width="1125mm" height="80mm" viewBox="0 -80 1125 80" xmlns="http://www.w3.org/2000/svg" version="1.1">
<title>OpenSCAD Model</title>
<path d="
M 1125,-80 L 0,-80 L 0,-0 L 4.95,-0 L 4.95,-6 L 5.00572,-6.53017
 L 5.17046,-7.03717 L 5.437,-7.49884 L 5.79372,-7.895 L 6.22499,-8.20836 L 6.71201,-8.42519 L 7.23344,-8.53603
 L 7.76654,-8.53603 L 8.28798,-8.42519 L 8.77499,-8.20836 L 9.20627,-7.895 L 9.56299,-7.49884 L 9.82953,-7.03717
 L 9.99426,-6.53017 L 10.05,-6 L 10.05,-0 L 189.95,-0 L 189.95,-6 L 190.006,-6.53017
 L 190.17,-7.03717 L 190.437,-7.49884 L 190.794,-7.895 L 191.225,-8.20836 L 191.712,-8.42519 L 192.233,-8.53603
 L 192.767,-8.53603 L 193.288,-8.42519 L 193.775,-8.20836 L 194.206,-7.895 L 194.563,-7.49884 L 194.83,-7.03717
 L 194.994,-6.53017 L 195.05,-6 L 195.05,-0 L 374.95,-0 L 374.95,-6 L 375.006,-6.53017
 L 375.17,-7.03717 L 375.437,-7.49884 L 375.794,-7.895 L 376.225,-8.20836 L 376.712,-8.42519 L 377.233,-8.53603
 L 377.767,-8.53603 L 378.288,-8.42519 L 378.775,-8.20836 L 379.206,-7.895 L 379.563,-7.49884 L 379.83,-7.03717
 L 379.994,-6.53017 L 380.05,-6 L 380.05,-0 L 559.95,-0 L 559.95,-6 L 560.006,-6.53017
 L 560.17,-7.03717 L 560.437,-7.49884 L 560.794,-7.895 L 561.225,-8.20836 L 561.712,-8.42519 L 562.233,-8.53603
 L 562.767,-8.53603 L 563.288,-8.42519 L 563.775,-8.20836 L 564.206,-7.895 L 564.563,-7.49884 L 564.83,-7.03717
 L 564.994,-6.53017 L 565.05,-6 L 565.05,-0 L 744.95,-0 L 744.95,-6 L 745.006,-6.53017
 L 745.17,-7.03717 L 745.437,-7.49884 L 745.794,-7.895 L 746.225,-8.20836 L 746.712,-8.42519 L 747.233,-8.53603
 L 747.767,-8.53603 L 748.288,-8.42519 L 748.775,-8.20836 L 749.206,-7.895 L 749.563,-7.49884 L 749.83,-7.03717
 L 749.994,-6.53017 L 750.05,-6 L 750.05,-0 L 929.95,-0 L 929.95,-6 L 930.006,-6.53017
 L 930.17,-7.03717 L 930.437,-7.49884 L 930.794,-7.895 L 931.225,-8.20836 L 931.712,-8.42519 L 932.233,-8.53603
 L 932.767,-8.53603 L 933.288,-8.42519 L 933.775,-8.20836 L 934.206,-7.895 L 934.563,-7.49884 L 934.83,-7.03717
 L 934.994,-6.53017 L 935.05,-6 L 935.05,-0 L 1114.95,-0 L 1114.95,-6 L 1115.01,-6.53017
 L 1115.17,-7.03717 L 1115.44,-7.49884 L 1115.79,-7.895 L 1116.22,-8.20836 L 1116.71,-8.42519 L 1117.23,-8.53603
 L 1117.77,-8.53603 L 1118.29,-8.42519 L 1118.77,-8.20836 L 1119.21,-7.895 L 1119.56,-7.49884 L 1119.83,-7.03717
 L 1119.99,-6.53017 L 1120.05,-6 L 1120.05,-0 L 1125,-0 z
M 6.98573,-55.607 L 6.47708,-55.6875 L 5.97964,-55.8208 L 5.49887,-56.0054 L 5.04001,-56.2392 L 4.60811,-56.5196
 L 4.20789,-56.8437 L 3.84373,-57.2079 L 3.51964,-57.6081 L 3.23917,-58.04 L 3.00537,-58.4989 L 2.82082,-58.9796
 L 2.68752,-59.4771 L 2.60696,-59.9857 L 2.58,-60.5 L 2.60696,-61.0143 L 2.68752,-61.5229 L 2.82082,-62.0204
 L 3.00537,-62.5011 L 3.23917,-62.96 L 3.51964,-63.3919 L 3.84373,-63.7921 L 4.20789,-64.1563 L 4.60811,-64.4804
 L 4.95001,-64.7024 L 4.95001,-74 L 5.00574,-74.5302 L 5.17047,-75.0372 L 5.43701,-75.4988 L 5.79373,-75.895
 L 6.22501,-76.2084 L 6.71202,-76.4252 L 7.23346,-76.536 L 7.76654,-76.536 L 8.28798,-76.4252 L 8.77499,-76.2084
 L 9.20627,-75.895 L 9.56299,-75.4988 L 9.82953,-75.0372 L 9.99426,-74.5302 L 10.05,-74 L 10.05,-64.7024
 L 10.3919,-64.4804 L 10.7921,-64.1563 L 11.1563,-63.7921 L 11.4804,-63.3919 L 11.7608,-62.96 L 11.9946,-62.5011
 L 12.1792,-62.0204 L 12.3125,-61.5229 L 12.393,-61.0143 L 12.42,-60.5 L 12.393,-59.9857 L 12.3125,-59.4771
 L 12.1792,-58.9796 L 11.9946,-58.4989 L 11.7608,-58.04 L 11.4804,-57.6081 L 11.1563,-57.2079 L 10.7921,-56.8437
 L 10.3919,-56.5196 L 9.95999,-56.2392 L 9.50113,-56.0054 L 9.02036,-55.8208 L 8.52292,-55.6875 L 8.01427,-55.607
 L 7.5,-55.58 z
M 191.986,-55.607 L 191.477,-55.6875 L 190.98,-55.8208 L 190.499,-56.0054 L 190.04,-56.2392 L 189.608,-56.5196
 L 189.208,-56.8437 L 188.844,-57.2079 L 188.52,-57.6081 L 188.239,-58.04 L 188.005,-58.4989 L 187.821,-58.9796
 L 187.688,-59.4771 L 187.607,-59.9857 L 187.58,-60.5 L 187.607,-61.0143 L 187.688,-61.5229 L 187.821,-62.0204
 L 188.005,-62.5011 L 188.239,-62.96 L 188.52,-63.3919 L 188.844,-63.7921 L 189.208,-64.1563 L 189.608,-64.4804
 L 189.95,-64.7024 L 189.95,-74 L 190.006,-74.5302 L 190.17,-75.0372 L 190.437,-75.4988 L 190.794,-75.895
 L 191.225,-76.2084 L 191.712,-76.4252 L 192.233,-76.536 L 192.767,-76.536 L 193.288,-76.4252 L 193.775,-76.2084
 L 194.206,-75.895 L 194.563,-75.4988 L 194.83,-75.0372 L 194.994,-74.5302 L 195.05,-74 L 195.05,-64.7024
 L 195.392,-64.4804 L 195.792,-64.1563 L 196.156,-63.7921 L 196.48,-63.3919 L 196.761,-62.96 L 196.995,-62.5011
 L 197.179,-62.0204 L 197.312,-61.5229 L 197.393,-61.0143 L 197.42,-60.5 L 197.393,-59.9857 L 197.312,-59.4771
 L 197.179,-58.9796 L 196.995,-58.4989 L 196.761,-58.04 L 196.48,-57.6081 L 196.156,-57.2079 L 195.792,-56.8437
 L 195.392,-56.5196 L 194.96,-56.2392 L 194.501,-56.0054 L 194.02,-55.8208 L 193.523,-55.6875 L 193.014,-55.607
 L 192.5,-55.58 z
M 376.986,-55.607 L 376.477,-55.6875 L 375.98,-55.8208 L 375.499,-56.0054 L 375.04,-56.2392 L 374.608,-56.5196
 L 374.208,-56.8437 L 373.844,-57.2079 L 373.52,-57.6081 L 373.239,-58.04 L 373.005,-58.4989 L 372.821,-58.9796
 L 372.688,-59.4771 L 372.607,-59.9857 L 372.58,-60.5 L 372.607,-61.0143 L 372.688,-61.5229 L 372.821,-62.0204
 L 373.005,-62.5011 L 373.239,-62.96 L 373.52,-63.3919 L 373.844,-63.7921 L 374.208,-64.1563 L 374.608,-64.4804
 L 374.95,-64.7024 L 374.95,-74 L 375.006,-74.5302 L 375.17,-75.0372 L 375.437,-75.4988 L 375.794,-75.895
 L 376.225,-76.2084 L 376.712,-76.4252 L 377.233,-76.536 L 377.767,-76.536 L 378.288,-76.4252 L 378.775,-76.2084
 L 379.206,-75.895 L 379.563,-75.4988 L 379.83,-75.0372 L 379.994,-74.5302 L 380.05,-74 L 380.05,-64.7024
 L 380.392,-64.4804 L 380.792,-64.1563 L 381.156,-63.7921 L 381.48,-63.3919 L 381.761,-62.96 L 381.995,-62.5011
 L 382.179,-62.0204 L 382.312,-61.5229 L 382.393,-61.0143 L 382.42,-60.5 L 382.393,-59.9857 L 382.312,-59.4771
 L 382.179,-58.9796 L 381.995,-58.4989 L 381.761,-58.04 L 381.48,-57.6081 L 381.156,-57.2079 L 380.792,-56.8437
 L 380.392,-56.5196 L 379.96,-56.2392 L 379.501,-56.0054 L 379.02,-55.8208 L 378.523,-55.6875 L 378.014,-55.607
 L 377.5,-55.58 z
M 561.986,-55.607 L 561.477,-55.6875 L 560.98,-55.8208 L 560.499,-56.0054 L 560.04,-56.2392 L 559.608,-56.5196
 L 559.208,-56.8437 L 558.844,-57.2079 L 558.52,-57.6081 L 558.239,-58.04 L 558.005,-58.4989 L 557.821,-58.9796
 L 557.688,-59.4771 L 557.607,-59.9857 L 557.58,-60.5 L 557.607,-61.0143 L 557.688,-61.5229 L 557.821,-62.0204
 L 558.005,-62.5011 L 558.239,-62.96 L 558.52,-63.3919 L 558.844,-63.7921 L 559.208,-64.1563 L 559.608,-64.4804
 L 559.95,-64.7024 L 559.95,-74 L 560.006,-74.5302 L 560.17,-75.0372 L 560.437,-75.4988 L 560.794,-75.895
 L 561.225,-76.2084 L 561.712,-76.4252 L 562.233,-76.536 L 562.767,-76.536 L 563.288,-76.4252 L 563.775,-76.2084
 L 564.206,-75.895 L 564.563,-75.4988 L 564.83,-75.0372 L 564.994,-74.5302 L 565.05,-74 L 565.05,-64.7024
 L 565.392,-64.4804 L 565.792,-64.1563 L 566.156,-63.7921 L 566.48,-63.3919 L 566.761,-62.96 L 566.995,-62.5011
 L 567.179,-62.0204 L 567.312,-61.5229 L 567.393,-61.0143 L 567.42,-60.5 L 567.393,-59.9857 L 567.312,-59.4771
 L 567.179,-58.9796 L 566.995,-58.4989 L 566.761,-58.04 L 566.48,-57.6081 L 566.156,-57.2079 L 565.792,-56.8437
 L 565.392,-56.5196 L 564.96,-56.2392 L 564.501,-56.0054 L 564.02,-55.8208 L 563.523,-55.6875 L 563.014,-55.607
 L 562.5,-55.58 z
M 746.986,-55.607 L 746.477,-55.6875 L 745.98,-55.8208 L 745.499,-56.0054 L 745.04,-56.2392 L 744.608,-56.5196
 L 744.208,-56.8437 L 743.844,-57.2079 L 743.52,-57.6081 L 743.239,-58.04 L 743.005,-58.4989 L 742.821,-58.9796
 L 742.688,-59.4771 L 742.607,-59.9857 L 742.58,-60.5 L 742.607,-61.0143 L 742.688,-61.5229 L 742.821,-62.0204
 L 743.005,-62.5011 L 743.239,-62.96 L 743.52,-63.3919 L 743.844,-63.7921 L 744.208,-64.1563 L 744.608,-64.4804
 L 744.95,-64.7024 L 744.95,-74 L 745.006,-74.5302 L 745.17,-75.0372 L 745.437,-75.4988 L 745.794,-75.895
 L 746.225,-76.2084 L 746.712,-76.4252 L 747.233,-76.536 L 747.767,-76.536 L 748.288,-76.4252 L 748.775,-76.2084
 L 749.206,-75.895 L 749.563,-75.4988 L 749.83,-75.0372 L 749.994,-74.5302 L 750.05,-74 L 750.05,-64.7024
 L 750.392,-64.4804 L 750.792,-64.1563 L 751.156,-63.7921 L 751.48,-63.3919 L 751.761,-62.96 L 751.995,-62.5011
 L 752.179,-62.0204 L 752.312,-61.5229 L 752.393,-61.0143 L 752.42,-60.5 L 752.393,-59.9857 L 752.312,-59.4771
 L 752.179,-58.9796 L 751.995,-58.4989 L 751.761,-58.04 L 751.48,-57.6081 L 751.156,-57.2079 L 750.792,-56.8437
 L 750.392,-56.5196 L 749.96,-56.2392 L 749.501,-56.0054 L 749.02,-55.8208 L 748.523,-55.6875 L 748.014,-55.607
 L 747.5,-55.58 z
M 931.986,-55.607 L 931.477,-55.6875 L 930.98,-55.8208 L 930.499,-56.0054 L 930.04,-56.2392 L 929.608,-56.5196
 L 929.208,-56.8437 L 928.844,-57.2079 L 928.52,-57.6081 L 928.239,-58.04 L 928.005,-58.4989 L 927.821,-58.9796
 L 927.688,-59.4771 L 927.607,-59.9857 L 927.58,-60.5 L 927.607,-61.0143 L 927.688,-61.5229 L 927.821,-62.0204
 L 928.005,-62.5011 L 928.239,-62.96 L 928.52,-63.3919 L 928.844,-63.7921 L 929.208,-64.1563 L 929.608,-64.4804
 L 929.95,-64.7024 L 929.95,-74 L 930.006,-74.5302 L 930.17,-75.0372 L 930.437,-75.4988 L 930.794,-75.895
 L 931.225,-76.2084 L 931.712,-76.4252 L 932.233,-76.536 L 932.767,-76.536 L 933.288,-76.4252 L 933.775,-76.2084
 L 934.206,-75.895 L 934.563,-75.4988 L 934.83,-75.0372 L 934.994,-74.5302 L 935.05,-74 L 935.05,-64.7024
 L 935.392,-64.4804 L 935.792,-64.1563 L 936.156,-63.7921 L 936.48,-63.3919 L 936.761,-62.96 L 936.995,-62.5011
 L 937.179,-62.0204 L 937.312,-61.5229 L 937.393,-61.0143 L 937.42,-60.5 L 937.393,-59.9857 L 937.312,-59.4771
 L 937.179,-58.9796 L 936.995,-58.4989 L 936.761,-58.04 L 936.48,-57.6081 L 936.156,-57.2079 L 935.792,-56.8437
 L 935.392,-56.5196 L 934.96,-56.2392 L 934.501,-56.0054 L 934.02,-55.8208 L 933.523,-55.6875 L 933.014,-55.607
 L 932.5,-55.58 z
M 1116.99,-55.607 L 1116.48,-55.6875 L 1115.98,-55.8208 L 1115.5,-56.0054 L 1115.04,-56.2392 L 1114.61,-56.5196
 L 1114.21,-56.8437 L 1113.84,-57.2079 L 1113.52,-57.6081 L 1113.24,-58.04 L 1113.01,-58.4989 L 1112.82,-58.9796
 L 1112.69,-59.4771 L 1112.61,-59.9857 L 1112.58,-60.5 L 1112.61,-61.0143 L 1112.69,-61.5229 L 1112.82,-62.0204
 L 1113.01,-62.5011 L 1113.24,-62.96 L 1113.52,-63.3919 L 1113.84,-63.7921 L 1114.21,-64.1563 L 1114.61,-64.4804
 L 1114.95,-64.7024 L 1114.95,-74 L 1115.01,-74.5302 L 1115.17,-75.0372 L 1115.44,-75.4988 L 1115.79,-75.895
 L 1116.23,-76.2084 L 1116.71,-76.4252 L 1117.23,-76.536 L 1117.77,-76.536 L 1118.29,-76.4252 L 1118.77,-76.2084
 L 1119.21,-75.895 L 1119.56,-75.4988 L 1119.83,-75.0372 L 1119.99,-74.5302 L 1120.05,-74 L 1120.05,-64.7024
 L 1120.39,-64.4804 L 1120.79,-64.1563 L 1121.16,-63.7921 L 1121.48,-63.3919 L 1121.76,-62.96 L 1121.99,-62.5011
 L 1122.18,-62.0204 L 1122.31,-61.5229 L 1122.39,-61.0143 L 1122.42,-60.5 L 1122.39,-59.9857 L 1122.31,-59.4771
 L 1122.18,-58.9796 L 1121.99,-58.4989 L 1121.76,-58.04 L 1121.48,-57.6081 L 1121.16,-57.2079 L 1120.79,-56.8437
 L 1120.39,-56.5196 L 1119.96,-56.2392 L 1119.5,-56.0054 L 1119.02,-55.8208 L 1118.52,-55.6875 L 1118.01,-55.607
 L 1117.5,-55.58 z
M 944.41,-20.7702 L 943.633,-21.081 L 942.939,-21.5464 L 942.356,-22.1461 L 941.91,-22.8538 L 941.622,-23.6387
 L 941.5,-24.6187 L 941.5,-58 L 941.587,-58.8316 L 941.846,-59.627 L 942.264,-60.3511 L 942.823,-60.9726
 L 943.5,-61.4641 L 944.264,-61.8042 L 945.5,-62 L 1036.32,-62 L 1037.15,-61.9126 L 1037.94,-61.6542
 L 1038.67,-61.2361 L 1039.29,-60.6765 L 1039.78,-60 L 1040.12,-59.2361 L 1040.29,-58.4181 L 1040.29,-57.5819
 L 1040.12,-56.7639 L 1039.78,-56 L 1039.29,-55.3235 L 1038.67,-54.7639 L 1037.7,-54.2456 L 946.88,-20.8643
 L 946.069,-20.6594 L 945.234,-20.6276 z
M 363.931,-20.6594 L 363.12,-20.8643 L 272.303,-54.2456 L 271.332,-54.7639 L 270.711,-55.3235 L 270.219,-56
 L 269.879,-56.7639 L 269.705,-57.5819 L 269.705,-58.4181 L 269.879,-59.2361 L 270.219,-60 L 270.711,-60.6765
 L 271.332,-61.2361 L 272.056,-61.6542 L 272.852,-61.9126 L 273.683,-62 L 364.5,-62 L 365.736,-61.8042
 L 366.5,-61.4641 L 367.177,-60.9726 L 367.736,-60.3511 L 368.154,-59.627 L 368.413,-58.8316 L 368.5,-58
 L 368.5,-24.6187 L 368.378,-23.6387 L 368.09,-22.8538 L 367.644,-22.1461 L 367.061,-21.5464 L 366.367,-21.081
 L 365.59,-20.7702 L 364.766,-20.6276 z
M 178.931,-20.6594 L 178.12,-20.8643 L 87.3032,-54.2456 L 86.3321,-54.7639 L 85.7106,-55.3235 L 85.2191,-56
 L 84.879,-56.7639 L 84.7051,-57.5819 L 84.7051,-58.4181 L 84.879,-59.2361 L 85.2191,-60 L 85.7106,-60.6765
 L 86.3321,-61.2361 L 87.0563,-61.6542 L 87.8516,-61.9126 L 88.6832,-62 L 179.5,-62 L 180.736,-61.8042
 L 181.5,-61.4641 L 182.177,-60.9726 L 182.736,-60.3511 L 183.154,-59.627 L 183.413,-58.8316 L 183.5,-58
 L 183.5,-24.6187 L 183.378,-23.6387 L 183.09,-22.8538 L 182.644,-22.1461 L 182.061,-21.5464 L 181.367,-21.081
 L 180.59,-20.7702 L 179.766,-20.6276 z
M 548.931,-20.6594 L 548.12,-20.8643 L 457.303,-54.2456 L 456.332,-54.7639 L 455.711,-55.3235 L 455.219,-56
 L 454.879,-56.7639 L 454.705,-57.5819 L 454.705,-58.4181 L 454.879,-59.2361 L 455.219,-60 L 455.711,-60.6765
 L 456.332,-61.2361 L 457.056,-61.6542 L 457.852,-61.9126 L 458.683,-62 L 549.5,-62 L 550.736,-61.8042
 L 551.5,-61.4641 L 552.177,-60.9726 L 552.736,-60.3511 L 553.154,-59.627 L 553.413,-58.8316 L 553.5,-58
 L 553.5,-24.6187 L 553.378,-23.6387 L 553.09,-22.8538 L 552.644,-22.1461 L 552.061,-21.5464 L 551.367,-21.081
 L 550.59,-20.7702 L 549.766,-20.6276 z
M 574.41,-20.7702 L 573.633,-21.081 L 572.939,-21.5464 L 572.356,-22.1461 L 571.91,-22.8538 L 571.622,-23.6387
 L 571.5,-24.6187 L 571.5,-58 L 571.587,-58.8316 L 571.846,-59.627 L 572.264,-60.3511 L 572.823,-60.9726
 L 573.5,-61.4641 L 574.264,-61.8042 L 575.5,-62 L 666.317,-62 L 667.148,-61.9126 L 667.944,-61.6542
 L 668.668,-61.2361 L 669.289,-60.6765 L 669.781,-60 L 670.121,-59.2361 L 670.295,-58.4181 L 670.295,-57.5819
 L 670.121,-56.7639 L 669.781,-56 L 669.289,-55.3235 L 668.668,-54.7639 L 667.697,-54.2456 L 576.88,-20.8643
 L 576.069,-20.6594 L 575.234,-20.6276 z
M 759.41,-20.7702 L 758.633,-21.081 L 757.939,-21.5464 L 757.356,-22.1461 L 756.91,-22.8538 L 756.622,-23.6387
 L 756.5,-24.6187 L 756.5,-58 L 756.587,-58.8316 L 756.846,-59.627 L 757.264,-60.3511 L 757.823,-60.9726
 L 758.5,-61.4641 L 759.264,-61.8042 L 760.5,-62 L 851.317,-62 L 852.148,-61.9126 L 852.944,-61.6542
 L 853.668,-61.2361 L 854.289,-60.6765 L 854.781,-60 L 855.121,-59.2361 L 855.295,-58.4181 L 855.295,-57.5819
 L 855.121,-56.7639 L 854.781,-56 L 854.289,-55.3235 L 853.668,-54.7639 L 852.697,-54.2456 L 761.88,-20.8643
 L 761.069,-20.6594 L 760.234,-20.6276 z
M 205.5,-18 L 204.264,-18.1958 L 203.5,-18.5359 L 202.823,-19.0274 L 202.264,-19.6489 L 201.846,-20.373
 L 201.587,-21.1684 L 201.5,-22 L 201.5,-55.3813 L 201.622,-56.3613 L 201.91,-57.1462 L 202.356,-57.8539
 L 202.939,-58.4536 L 203.633,-58.919 L 204.41,-59.2298 L 205.234,-59.3724 L 206.069,-59.3406 L 206.88,-59.1357
 L 297.697,-25.7544 L 298.668,-25.2361 L 299.289,-24.6765 L 299.781,-24 L 300.121,-23.2361 L 300.295,-22.4181
 L 300.295,-21.5819 L 300.121,-20.7639 L 299.781,-20 L 299.289,-19.3235 L 298.668,-18.7639 L 297.944,-18.3458
 L 297.148,-18.0874 L 296.317,-18 z
M 390.5,-18 L 389.264,-18.1958 L 388.5,-18.5359 L 387.823,-19.0274 L 387.264,-19.6489 L 386.846,-20.373
 L 386.587,-21.1684 L 386.5,-22 L 386.5,-55.3813 L 386.622,-56.3613 L 386.91,-57.1462 L 387.356,-57.8539
 L 387.939,-58.4536 L 388.633,-58.919 L 389.41,-59.2298 L 390.234,-59.3724 L 391.069,-59.3406 L 391.88,-59.1357
 L 482.697,-25.7544 L 483.668,-25.2361 L 484.289,-24.6765 L 484.781,-24 L 485.121,-23.2361 L 485.295,-22.4181
 L 485.295,-21.5819 L 485.121,-20.7639 L 484.781,-20 L 484.289,-19.3235 L 483.668,-18.7639 L 482.944,-18.3458
 L 482.148,-18.0874 L 481.317,-18 z
M 643.683,-18 L 642.852,-18.0874 L 642.056,-18.3458 L 641.332,-18.7639 L 640.711,-19.3235 L 640.219,-20
 L 639.879,-20.7639 L 639.705,-21.5819 L 639.705,-22.4181 L 639.879,-23.2361 L 640.219,-24 L 640.711,-24.6765
 L 641.332,-25.2361 L 642.303,-25.7544 L 733.12,-59.1357 L 733.931,-59.3406 L 734.766,-59.3724 L 735.59,-59.2298
 L 736.367,-58.919 L 737.061,-58.4536 L 737.644,-57.8539 L 738.09,-57.1462 L 738.378,-56.3613 L 738.5,-55.3813
 L 738.5,-22 L 738.413,-21.1684 L 738.154,-20.373 L 737.736,-19.6489 L 737.177,-19.0274 L 736.5,-18.5359
 L 735.736,-18.1958 L 734.5,-18 z
M 828.683,-18 L 827.852,-18.0874 L 827.056,-18.3458 L 826.332,-18.7639 L 825.711,-19.3235 L 825.219,-20
 L 824.879,-20.7639 L 824.705,-21.5819 L 824.705,-22.4181 L 824.879,-23.2361 L 825.219,-24 L 825.711,-24.6765
 L 826.332,-25.2361 L 827.303,-25.7544 L 918.12,-59.1357 L 918.931,-59.3406 L 919.766,-59.3724 L 920.59,-59.2298
 L 921.367,-58.919 L 922.061,-58.4536 L 922.644,-57.8539 L 923.09,-57.1462 L 923.378,-56.3613 L 923.5,-55.3813
 L 923.5,-22 L 923.413,-21.1684 L 923.154,-20.373 L 922.736,-19.6489 L 922.177,-19.0274 L 921.5,-18.5359
 L 920.736,-18.1958 L 919.5,-18 z
M 1013.68,-18 L 1012.85,-18.0874 L 1012.06,-18.3458 L 1011.33,-18.7639 L 1010.71,-19.3235 L 1010.22,-20
 L 1009.88,-20.7639 L 1009.71,-21.5819 L 1009.71,-22.4181 L 1009.88,-23.2361 L 1010.22,-24 L 1010.71,-24.6765
 L 1011.33,-25.2361 L 1012.3,-25.7544 L 1101.62,-58.5844 L 1102.43,-58.7892 L 1103.27,-58.8211 L 1104.09,-58.6785
 L 1104.87,-58.3677 L 1105.56,-57.9023 L 1106.14,-57.3026 L 1106.59,-56.5948 L 1106.88,-55.8099 L 1107,-54.8299
 L 1107,-22 L 1106.91,-21.1684 L 1106.65,-20.373 L 1106.24,-19.6489 L 1105.68,-19.0274 L 1105,-18.5359
 L 1104.24,-18.1958 L 1103,-18 z
M 22,-18 L 20.7639,-18.1958 L 20,-18.5359 L 19.3235,-19.0274 L 18.7639,-19.6489 L 18.3458,-20.373
 L 18.0874,-21.1684 L 18,-22 L 18,-54.8299 L 18.1219,-55.8099 L 18.4104,-56.5948 L 18.8558,-57.3026
 L 19.4386,-57.9023 L 20.1333,-58.3677 L 20.9097,-58.6785 L 21.7336,-58.8211 L 22.5693,-58.7892 L 23.38,-58.5844
 L 112.697,-25.7544 L 113.668,-25.2361 L 114.289,-24.6765 L 114.781,-24 L 115.121,-23.2361 L 115.295,-22.4181
 L 115.295,-21.5819 L 115.121,-20.7639 L 114.781,-20 L 114.289,-19.3235 L 113.668,-18.7639 L 112.944,-18.3458
 L 112.148,-18.0874 L 111.317,-18 z
" stroke="black" fill="lightgray" stroke-width="0.5"/>
</svg>
