<?xml version="1.0" standalone="no"?>
<!DOCTYPE svg PUBLIC "-//W3C//DTD SVG 1.1//EN" "http://www.w3.org/Graphics/SVG/1.1/DTD/svg11.dtd">
<svg width="1514mm" height="80mm" viewBox="0 -80 1514 80" xmlns="http://www.w3.org/2000/svg" version="1.1">
<title>OpenSCAD Model</title>
<path d="
M 1514,-80 L 0,-80 L 0,-0 L 4.95,-0 L 4.95,-6 L 5.00572,-6.53017
 L 5.17046,-7.03717 L 5.437,-7.49884 L 5.79372,-7.895 L 6.22499,-8.20836 L 6.71201,-8.42519 L 7.23344,-8.53603
 L 7.76654,-8.53603 L 8.28798,-8.42519 L 8.77499,-8.20836 L 9.20627,-7.895 L 9.56299,-7.49884 L 9.82953,-7.03717
 L 9.99426,-6.53017 L 10.05,-6 L 10.05,-0 L 192.325,-0 L 192.325,-6 L 192.381,-6.53017
 L 192.545,-7.03717 L 192.812,-7.49884 L 193.169,-7.895 L 193.6,-8.20836 L 194.087,-8.42519 L 194.608,-8.53603
 L 195.142,-8.53603 L 195.663,-8.42519 L 196.15,-8.20836 L 196.581,-7.895 L 196.938,-7.49884 L 197.205,-7.03717
 L 197.369,-6.53017 L 197.425,-6 L 197.425,-0 L 379.7,-0 L 379.7,-6 L 379.756,-6.53017
 L 379.92,-7.03717 L 380.187,-7.49884 L 380.544,-7.895 L 380.975,-8.20836 L 381.462,-8.42519 L 381.983,-8.53603
 L 382.517,-8.53603 L 383.038,-8.42519 L 383.525,-8.20836 L 383.956,-7.895 L 384.313,-7.49884 L 384.58,-7.03717
 L 384.744,-6.53017 L 384.8,-6 L 384.8,-0 L 567.075,-0 L 567.075,-6 L 567.131,-6.53017
 L 567.295,-7.03717 L 567.562,-7.49884 L 567.919,-7.895 L 568.35,-8.20836 L 568.837,-8.42519 L 569.358,-8.53603
 L 569.892,-8.53603 L 570.413,-8.42519 L 570.9,-8.20836 L 571.331,-7.895 L 571.688,-7.49884 L 571.955,-7.03717
 L 572.119,-6.53017 L 572.175,-6 L 572.175,-0 L 754.45,-0 L 754.45,-6 L 754.506,-6.53017
 L 754.67,-7.03717 L 754.937,-7.49884 L 755.294,-7.895 L 755.725,-8.20836 L 756.212,-8.42519 L 756.733,-8.53603
 L 757.267,-8.53603 L 757.788,-8.42519 L 758.275,-8.20836 L 758.706,-7.895 L 759.063,-7.49884 L 759.33,-7.03717
 L 759.494,-6.53017 L 759.55,-6 L 759.55,-0 L 941.825,-0 L 941.825,-6 L 941.881,-6.53017
 L 942.045,-7.03717 L 942.312,-7.49884 L 942.669,-7.895 L 943.1,-8.20836 L 943.587,-8.42519 L 944.108,-8.53603
 L 944.642,-8.53603 L 945.163,-8.42519 L 945.65,-8.20836 L 946.081,-7.895 L 946.438,-7.49884 L 946.705,-7.03717
 L 946.869,-6.53017 L 946.925,-6 L 946.925,-0 L 1129.2,-0 L 1129.2,-6 L 1129.26,-6.53017
 L 1129.42,-7.03717 L 1129.69,-7.49884 L 1130.04,-7.895 L 1130.47,-8.20836 L 1130.96,-8.42519 L 1131.48,-8.53603
 L 1132.02,-8.53603 L 1132.54,-8.42519 L 1133.02,-8.20836 L 1133.46,-7.895 L 1133.81,-7.49884 L 1134.08,-7.03717
 L 1134.24,-6.53017 L 1134.3,-6 L 1134.3,-0 L 1316.57,-0 L 1316.57,-6 L 1316.63,-6.53017
 L 1316.8,-7.03717 L 1317.06,-7.49884 L 1317.42,-7.895 L 1317.85,-8.20836 L 1318.34,-8.42519 L 1318.86,-8.53603
 L 1319.39,-8.53603 L 1319.91,-8.42519 L 1320.4,-8.20836 L 1320.83,-7.895 L 1321.19,-7.49884 L 1321.45,-7.03717
 L 1321.62,-6.53017 L 1321.67,-6 L 1321.67,-0 L 1503.95,-0 L 1503.95,-6 L 1504.01,-6.53017
 L 1504.17,-7.03717 L 1504.44,-7.49884 L 1504.79,-7.895 L 1505.22,-8.20836 L 1505.71,-8.42519 L 1506.23,-8.53603
 L 1506.77,-8.53603 L 1507.29,-8.42519 L 1507.77,-8.20836 L 1508.21,-7.895 L 1508.56,-7.49884 L 1508.83,-7.03717
 L 1508.99,-6.53017 L 1509.05,-6 L 1509.05,-0 L 1514,-0 z
M 194.361,-55.607 L 193.852,-55.6875 L 193.355,-55.8208 L 192.874,-56.0054 L 192.415,-56.2392 L 191.983,-56.5196
 L 191.583,-56.8437 L 191.219,-57.2079 L 190.895,-57.6081 L 190.614,-58.04 L 190.38,-58.4989 L 190.196,-58.9796
 L 190.063,-59.4771 L 189.982,-59.9857 L 189.955,-60.5 L 189.982,-61.0143 L 190.063,-61.5229 L 190.196,-62.0204
 L 190.38,-62.5011 L 190.614,-62.96 L 190.895,-63.3919 L 191.219,-63.7921 L 191.583,-64.1563 L 191.983,-64.4804
 L 192.325,-64.7024 L 192.325,-74 L 192.381,-74.5302 L 192.545,-75.0372 L 192.812,-75.4988 L 193.169,-75.895
 L 193.6,-76.2084 L 194.087,-76.4252 L 194.608,-76.536 L 195.142,-76.536 L 195.663,-76.4252 L 196.15,-76.2084
 L 196.581,-75.895 L 196.938,-75.4988 L 197.205,-75.0372 L 197.369,-74.5302 L 197.425,-74 L 197.425,-64.7024
 L 197.767,-64.4804 L 198.167,-64.1563 L 198.531,-63.7921 L 198.855,-63.3919 L 199.136,-62.96 L 199.37,-62.5011
 L 199.554,-62.0204 L 199.687,-61.5229 L 199.768,-61.0143 L 199.795,-60.5 L 199.768,-59.9857 L 199.687,-59.4771
 L 199.554,-58.9796 L 199.37,-58.4989 L 199.136,-58.04 L 198.855,-57.6081 L 198.531,-57.2079 L 198.167,-56.8437
 L 197.767,-56.5196 L 197.335,-56.2392 L 196.876,-56.0054 L 196.395,-55.8208 L 195.898,-55.6875 L 195.389,-55.607
 L 194.875,-55.58 z
M 1131.24,-55.607 L 1130.73,-55.6875 L 1130.23,-55.8208 L 1129.75,-56.0054 L 1129.29,-56.2392 L 1128.86,-56.5196
 L 1128.46,-56.8437 L 1128.09,-57.2079 L 1127.77,-57.6081 L 1127.49,-58.04 L 1127.26,-58.4989 L 1127.07,-58.9796
 L 1126.94,-59.4771 L 1126.86,-59.9857 L 1126.83,-60.5 L 1126.86,-61.0143 L 1126.94,-61.5229 L 1127.07,-62.0204
 L 1127.26,-62.5011 L 1127.49,-62.96 L 1127.77,-63.3919 L 1128.09,-63.7921 L 1128.46,-64.1563 L 1128.86,-64.4804
 L 1129.2,-64.7024 L 1129.2,-74 L 1129.26,-74.5302 L 1129.42,-75.0372 L 1129.69,-75.4988 L 1130.04,-75.895
 L 1130.48,-76.2084 L 1130.96,-76.4252 L 1131.48,-76.536 L 1132.02,-76.536 L 1132.54,-76.4252 L 1133.02,-76.2084
 L 1133.46,-75.895 L 1133.81,-75.4988 L 1134.08,-75.0372 L 1134.24,-74.5302 L 1134.3,-74 L 1134.3,-64.7024
 L 1134.64,-64.4804 L 1135.04,-64.1563 L 1135.41,-63.7921 L 1135.73,-63.3919 L 1136.01,-62.96 L 1136.24,-62.5011
 L 1136.43,-62.0204 L 1136.56,-61.5229 L 1136.64,-61.0143 L 1136.67,-60.5 L 1136.64,-59.9857 L 1136.56,-59.4771
 L 1136.43,-58.9796 L 1136.24,-58.4989 L 1136.01,-58.04 L 1135.73,-57.6081 L 1135.41,-57.2079 L 1135.04,-56.8437
 L 1134.64,-56.5196 L 1134.21,-56.2392 L 1133.75,-56.0054 L 1133.27,-55.8208 L 1132.77,-55.6875 L 1132.26,-55.607
 L 1131.75,-55.58 z
M 943.861,-55.607 L 943.352,-55.6875 L 942.855,-55.8208 L 942.374,-56.0054 L 941.915,-56.2392 L 941.483,-56.5196
 L 941.083,-56.8437 L 940.719,-57.2079 L 940.395,-57.6081 L 940.114,-58.04 L 939.88,-58.4989 L 939.696,-58.9796
 L 939.563,-59.4771 L 939.482,-59.9857 L 939.455,-60.5 L 939.482,-61.0143 L 939.563,-61.5229 L 939.696,-62.0204
 L 939.88,-62.5011 L 940.114,-62.96 L 940.395,-63.3919 L 940.719,-63.7921 L 941.083,-64.1563 L 941.483,-64.4804
 L 941.825,-64.7024 L 941.825,-74 L 941.881,-74.5302 L 942.045,-75.0372 L 942.312,-75.4988 L 942.669,-75.895
 L 943.1,-76.2084 L 943.587,-76.4252 L 944.108,-76.536 L 944.642,-76.536 L 945.163,-76.4252 L 945.65,-76.2084
 L 946.081,-75.895 L 946.438,-75.4988 L 946.705,-75.0372 L 946.869,-74.5302 L 946.925,-74 L 946.925,-64.7024
 L 947.267,-64.4804 L 947.667,-64.1563 L 948.031,-63.7921 L 948.355,-63.3919 L 948.636,-62.96 L 948.87,-62.5011
 L 949.054,-62.0204 L 949.187,-61.5229 L 949.268,-61.0143 L 949.295,-60.5 L 949.268,-59.9857 L 949.187,-59.4771
 L 949.054,-58.9796 L 948.87,-58.4989 L 948.636,-58.04 L 948.355,-57.6081 L 948.031,-57.2079 L 947.667,-56.8437
 L 947.267,-56.5196 L 946.835,-56.2392 L 946.376,-56.0054 L 945.895,-55.8208 L 945.398,-55.6875 L 944.889,-55.607
 L 944.375,-55.58 z
M 6.98573,-55.607 L 6.47708,-55.6875 L 5.97964,-55.8208 L 5.49887,-56.0054 L 5.04001,-56.2392 L 4.60811,-56.5196
 L 4.20789,-56.8437 L 3.84373,-57.2079 L 3.51964,-57.6081 L 3.23917,-58.04 L 3.00537,-58.4989 L 2.82082,-58.9796
 L 2.68752,-59.4771 L 2.60696,-59.9857 L 2.58,-60.5 L 2.60696,-61.0143 L 2.68752,-61.5229 L 2.82082,-62.0204
 L 3.00537,-62.5011 L 3.23917,-62.96 L 3.51964,-63.3919 L 3.84373,-63.7921 L 4.20789,-64.1563 L 4.60811,-64.4804
 L 4.95001,-64.7024 L 4.95001,-74 L 5.00574,-74.5302 L 5.17047,-75.0372 L 5.43701,-75.4988 L 5.79373,-75.895
 L 6.22501,-76.2084 L 6.71202,-76.4252 L 7.23346,-76.536 L 7.76654,-76.536 L 8.28798,-76.4252 L 8.77499,-76.2084
 L 9.20627,-75.895 L 9.56299,-75.4988 L 9.82953,-75.0372 L 9.99426,-74.5302 L 10.05,-74 L 10.05,-64.7024
 L 10.3919,-64.4804 L 10.7921,-64.1563 L 11.1563,-63.7921 L 11.4804,-63.3919 L 11.7608,-62.96 L 11.9946,-62.5011
 L 12.1792,-62.0204 L 12.3125,-61.5229 L 12.393,-61.0143 L 12.42,-60.5 L 12.393,-59.9857 L 12.3125,-59.4771
 L 12.1792,-58.9796 L 11.9946,-58.4989 L 11.7608,-58.04 L 11.4804,-57.6081 L 11.1563,-57.2079 L 10.7921,-56.8437
 L 10.3919,-56.5196 L 9.95999,-56.2392 L 9.50113,-56.0054 L 9.02036,-55.8208 L 8.52292,-55.6875 L 8.01427,-55.607
 L 7.5,-55.58 z
M 756.486,-55.607 L 755.977,-55.6875 L 755.48,-55.8208 L 754.999,-56.0054 L 754.54,-56.2392 L 754.108,-56.5196
 L 753.708,-56.8437 L 753.344,-57.2079 L 753.02,-57.6081 L 752.739,-58.04 L 752.505,-58.4989 L 752.321,-58.9796
 L 752.188,-59.4771 L 752.107,-59.9857 L 752.08,-60.5 L 752.107,-61.0143 L 752.188,-61.5229 L 752.321,-62.0204
 L 752.505,-62.5011 L 752.739,-62.96 L 753.02,-63.3919 L 753.344,-63.7921 L 753.708,-64.1563 L 754.108,-64.4804
 L 754.45,-64.7024 L 754.45,-74 L 754.506,-74.5302 L 754.67,-75.0372 L 754.937,-75.4988 L 755.294,-75.895
 L 755.725,-76.2084 L 756.212,-76.4252 L 756.733,-76.536 L 757.267,-76.536 L 757.788,-76.4252 L 758.275,-76.2084
 L 758.706,-75.895 L 759.063,-75.4988 L 759.33,-75.0372 L 759.494,-74.5302 L 759.55,-74 L 759.55,-64.7024
 L 759.892,-64.4804 L 760.292,-64.1563 L 760.656,-63.7921 L 760.98,-63.3919 L 761.261,-62.96 L 761.495,-62.5011
 L 761.679,-62.0204 L 761.812,-61.5229 L 761.893,-61.0143 L 761.92,-60.5 L 761.893,-59.9857 L 761.812,-59.4771
 L 761.679,-58.9796 L 761.495,-58.4989 L 761.261,-58.04 L 760.98,-57.6081 L 760.656,-57.2079 L 760.292,-56.8437
 L 759.892,-56.5196 L 759.46,-56.2392 L 759.001,-56.0054 L 758.52,-55.8208 L 758.023,-55.6875 L 757.514,-55.607
 L 757,-55.58 z
M 1318.61,-55.607 L 1318.1,-55.6875 L 1317.6,-55.8208 L 1317.12,-56.0054 L 1316.67,-56.2392 L 1316.23,-56.5196
 L 1315.83,-56.8437 L 1315.47,-57.2079 L 1315.14,-57.6081 L 1314.86,-58.04 L 1314.63,-58.4989 L 1314.45,-58.9796
 L 1314.31,-59.4771 L 1314.23,-59.9857 L 1314.21,-60.5 L 1314.23,-61.0143 L 1314.31,-61.5229 L 1314.45,-62.0204
 L 1314.63,-62.5011 L 1314.86,-62.96 L 1315.14,-63.3919 L 1315.47,-63.7921 L 1315.83,-64.1563 L 1316.23,-64.4804
 L 1316.58,-64.7024 L 1316.58,-74 L 1316.63,-74.5302 L 1316.8,-75.0372 L 1317.06,-75.4988 L 1317.42,-75.895
 L 1317.85,-76.2084 L 1318.34,-76.4252 L 1318.86,-76.536 L 1319.39,-76.536 L 1319.91,-76.4252 L 1320.4,-76.2084
 L 1320.83,-75.895 L 1321.19,-75.4988 L 1321.45,-75.0372 L 1321.62,-74.5302 L 1321.67,-74 L 1321.67,-64.7024
 L 1322.02,-64.4804 L 1322.42,-64.1563 L 1322.78,-63.7921 L 1323.11,-63.3919 L 1323.39,-62.96 L 1323.62,-62.5011
 L 1323.8,-62.0204 L 1323.94,-61.5229 L 1324.02,-61.0143 L 1324.04,-60.5 L 1324.02,-59.9857 L 1323.94,-59.4771
 L 1323.8,-58.9796 L 1323.62,-58.4989 L 1323.39,-58.04 L 1323.11,-57.6081 L 1322.78,-57.2079 L 1322.42,-56.8437
 L 1322.02,-56.5196 L 1321.58,-56.2392 L 1321.13,-56.0054 L 1320.65,-55.8208 L 1320.15,-55.6875 L 1319.64,-55.607
 L 1319.12,-55.58 z
M 569.111,-55.607 L 568.602,-55.6875 L 568.105,-55.8208 L 567.624,-56.0054 L 567.165,-56.2392 L 566.733,-56.5196
 L 566.333,-56.8437 L 565.969,-57.2079 L 565.645,-57.6081 L 565.364,-58.04 L 565.13,-58.4989 L 564.946,-58.9796
 L 564.813,-59.4771 L 564.732,-59.9857 L 564.705,-60.5 L 564.732,-61.0143 L 564.813,-61.5229 L 564.946,-62.0204
 L 565.13,-62.5011 L 565.364,-62.96 L 565.645,-63.3919 L 565.969,-63.7921 L 566.333,-64.1563 L 566.733,-64.4804
 L 567.075,-64.7024 L 567.075,-74 L 567.131,-74.5302 L 567.295,-75.0372 L 567.562,-75.4988 L 567.919,-75.895
 L 568.35,-76.2084 L 568.837,-76.4252 L 569.358,-76.536 L 569.892,-76.536 L 570.413,-76.4252 L 570.9,-76.2084
 L 571.331,-75.895 L 571.688,-75.4988 L 571.955,-75.0372 L 572.119,-74.5302 L 572.175,-74 L 572.175,-64.7024
 L 572.517,-64.4804 L 572.917,-64.1563 L 573.281,-63.7921 L 573.605,-63.3919 L 573.886,-62.96 L 574.12,-62.5011
 L 574.304,-62.0204 L 574.437,-61.5229 L 574.518,-61.0143 L 574.545,-60.5 L 574.518,-59.9857 L 574.437,-59.4771
 L 574.304,-58.9796 L 574.12,-58.4989 L 573.886,-58.04 L 573.605,-57.6081 L 573.281,-57.2079 L 572.917,-56.8437
 L 572.517,-56.5196 L 572.085,-56.2392 L 571.626,-56.0054 L 571.145,-55.8208 L 570.648,-55.6875 L 570.139,-55.607
 L 569.625,-55.58 z
M 381.736,-55.607 L 381.227,-55.6875 L 380.73,-55.8208 L 380.249,-56.0054 L 379.79,-56.2392 L 379.358,-56.5196
 L 378.958,-56.8437 L 378.594,-57.2079 L 378.27,-57.6081 L 377.989,-58.04 L 377.755,-58.4989 L 377.571,-58.9796
 L 377.438,-59.4771 L 377.357,-59.9857 L 377.33,-60.5 L 377.357,-61.0143 L 377.438,-61.5229 L 377.571,-62.0204
 L 377.755,-62.5011 L 377.989,-62.96 L 378.27,-63.3919 L 378.594,-63.7921 L 378.958,-64.1563 L 379.358,-64.4804
 L 379.7,-64.7024 L 379.7,-74 L 379.756,-74.5302 L 379.92,-75.0372 L 380.187,-75.4988 L 380.544,-75.895
 L 380.975,-76.2084 L 381.462,-76.4252 L 381.983,-76.536 L 382.517,-76.536 L 383.038,-76.4252 L 383.525,-76.2084
 L 383.956,-75.895 L 384.313,-75.4988 L 384.58,-75.0372 L 384.744,-74.5302 L 384.8,-74 L 384.8,-64.7024
 L 385.142,-64.4804 L 385.542,-64.1563 L 385.906,-63.7921 L 386.23,-63.3919 L 386.511,-62.96 L 386.745,-62.5011
 L 386.929,-62.0204 L 387.062,-61.5229 L 387.143,-61.0143 L 387.17,-60.5 L 387.143,-59.9857 L 387.062,-59.4771
 L 386.929,-58.9796 L 386.745,-58.4989 L 386.511,-58.04 L 386.23,-57.6081 L 385.906,-57.2079 L 385.542,-56.8437
 L 385.142,-56.5196 L 384.71,-56.2392 L 384.251,-56.0054 L 383.77,-55.8208 L 383.273,-55.6875 L 382.764,-55.607
 L 382.25,-55.58 z
M 1505.99,-55.607 L 1505.48,-55.6875 L 1504.98,-55.8208 L 1504.5,-56.0054 L 1504.04,-56.2392 L 1503.61,-56.5196
 L 1503.21,-56.8437 L 1502.84,-57.2079 L 1502.52,-57.6081 L 1502.24,-58.04 L 1502.01,-58.4989 L 1501.82,-58.9796
 L 1501.69,-59.4771 L 1501.61,-59.9857 L 1501.58,-60.5 L 1501.61,-61.0143 L 1501.69,-61.5229 L 1501.82,-62.0204
 L 1502.01,-62.5011 L 1502.24,-62.96 L 1502.52,-63.3919 L 1502.84,-63.7921 L 1503.21,-64.1563 L 1503.61,-64.4804
 L 1503.95,-64.7024 L 1503.95,-74 L 1504.01,-74.5302 L 1504.17,-75.0372 L 1504.44,-75.4988 L 1504.79,-75.895
 L 1505.23,-76.2084 L 1505.71,-76.4252 L 1506.23,-76.536 L 1506.77,-76.536 L 1507.29,-76.4252 L 1507.77,-76.2084
 L 1508.21,-75.895 L 1508.56,-75.4988 L 1508.83,-75.0372 L 1508.99,-74.5302 L 1509.05,-74 L 1509.05,-64.7024
 L 1509.39,-64.4804 L 1509.79,-64.1563 L 1510.16,-63.7921 L 1510.48,-63.3919 L 1510.76,-62.96 L 1510.99,-62.5011
 L 1511.18,-62.0204 L 1511.31,-61.5229 L 1511.39,-61.0143 L 1511.42,-60.5 L 1511.39,-59.9857 L 1511.31,-59.4771
 L 1511.18,-58.9796 L 1510.99,-58.4989 L 1510.76,-58.04 L 1510.48,-57.6081 L 1510.16,-57.2079 L 1509.79,-56.8437
 L 1509.39,-56.5196 L 1508.96,-56.2392 L 1508.5,-56.0054 L 1508.02,-55.8208 L 1507.52,-55.6875 L 1507.01,-55.607
 L 1506.5,-55.58 z
M 368.697,-20.5778 L 367.885,-20.7794 L 275.684,-54.2399 L 274.698,-54.7639 L 274.076,-55.3235 L 273.585,-56
 L 273.245,-56.7639 L 273.071,-57.5819 L 273.071,-58.4181 L 273.245,-59.2361 L 273.585,-60 L 274.076,-60.6765
 L 274.698,-61.2361 L 275.422,-61.6542 L 276.217,-61.9126 L 277.049,-62 L 369.25,-62 L 370.486,-61.8042
 L 371.25,-61.4641 L 371.927,-60.9726 L 372.486,-60.3511 L 372.904,-59.627 L 373.163,-58.8316 L 373.25,-58
 L 373.25,-24.5394 L 373.132,-23.5754 L 372.847,-22.7893 L 372.404,-22.0797 L 371.824,-21.4776 L 371.131,-21.0094
 L 370.356,-20.6954 L 369.533,-20.5494 z
M 556.072,-20.5778 L 555.26,-20.7794 L 463.059,-54.2399 L 462.073,-54.7639 L 461.451,-55.3235 L 460.96,-56
 L 460.62,-56.7639 L 460.446,-57.5819 L 460.446,-58.4181 L 460.62,-59.2361 L 460.96,-60 L 461.451,-60.6765
 L 462.073,-61.2361 L 462.797,-61.6542 L 463.592,-61.9126 L 464.424,-62 L 556.625,-62 L 557.861,-61.8042
 L 558.625,-61.4641 L 559.302,-60.9726 L 559.861,-60.3511 L 560.279,-59.627 L 560.538,-58.8316 L 560.625,-58
 L 560.625,-24.5394 L 560.507,-23.5754 L 560.222,-22.7893 L 559.779,-22.0797 L 559.199,-21.4776 L 558.506,-21.0094
 L 557.731,-20.6954 L 556.908,-20.5494 z
M 1331.02,-20.6954 L 1330.24,-21.0094 L 1329.55,-21.4776 L 1328.97,-22.0797 L 1328.53,-22.7893 L 1328.24,-23.5754
 L 1328.12,-24.5394 L 1328.12,-58 L 1328.21,-58.8316 L 1328.47,-59.627 L 1328.89,-60.3511 L 1329.45,-60.9726
 L 1330.12,-61.4641 L 1330.89,-61.8042 L 1332.12,-62 L 1424.33,-62 L 1425.16,-61.9126 L 1425.95,-61.6542
 L 1426.68,-61.2361 L 1427.3,-60.6765 L 1427.79,-60 L 1428.13,-59.2361 L 1428.3,-58.4181 L 1428.3,-57.5819
 L 1428.13,-56.7639 L 1427.79,-56 L 1427.3,-55.3235 L 1426.68,-54.7639 L 1425.69,-54.2399 L 1333.49,-20.7794
 L 1332.68,-20.5778 L 1331.84,-20.5494 z
M 743.447,-20.5778 L 742.635,-20.7794 L 650.434,-54.2399 L 649.448,-54.7639 L 648.826,-55.3235 L 648.335,-56
 L 647.995,-56.7639 L 647.821,-57.5819 L 647.821,-58.4181 L 647.995,-59.2361 L 648.335,-60 L 648.826,-60.6765
 L 649.448,-61.2361 L 650.172,-61.6542 L 650.967,-61.9126 L 651.799,-62 L 744,-62 L 745.236,-61.8042
 L 746,-61.4641 L 746.677,-60.9726 L 747.236,-60.3511 L 747.654,-59.627 L 747.913,-58.8316 L 748,-58
 L 748,-24.5394 L 747.882,-23.5754 L 747.597,-22.7893 L 747.154,-22.0797 L 746.574,-21.4776 L 745.881,-21.0094
 L 745.106,-20.6954 L 744.283,-20.5494 z
M 181.322,-20.5778 L 180.51,-20.7794 L 88.3093,-54.2399 L 87.3227,-54.7639 L 86.7013,-55.3235 L 86.2098,-56
 L 85.8696,-56.7639 L 85.6958,-57.5819 L 85.6958,-58.4181 L 85.8696,-59.2361 L 86.2098,-60 L 86.7013,-60.6765
 L 87.3227,-61.2361 L 88.0469,-61.6542 L 88.8422,-61.9126 L 89.6739,-62 L 181.875,-62 L 183.111,-61.8042
 L 183.875,-61.4641 L 184.552,-60.9726 L 185.111,-60.3511 L 185.529,-59.627 L 185.788,-58.8316 L 185.875,-58
 L 185.875,-24.5394 L 185.757,-23.5754 L 185.472,-22.7893 L 185.029,-22.0797 L 184.449,-21.4776 L 183.756,-21.0094
 L 182.981,-20.6954 L 182.158,-20.5494 z
M 768.894,-20.6954 L 768.119,-21.0094 L 767.426,-21.4776 L 766.846,-22.0797 L 766.403,-22.7893 L 766.118,-23.5754
 L 766,-24.5394 L 766,-58 L 766.087,-58.8316 L 766.346,-59.627 L 766.764,-60.3511 L 767.323,-60.9726
 L 768,-61.4641 L 768.764,-61.8042 L 770,-62 L 862.201,-62 L 863.033,-61.9126 L 863.828,-61.6542
 L 864.552,-61.2361 L 865.174,-60.6765 L 865.665,-60 L 866.005,-59.2361 L 866.179,-58.4181 L 866.179,-57.5819
 L 866.005,-56.7639 L 865.665,-56 L 865.174,-55.3235 L 864.552,-54.7639 L 863.566,-54.2399 L 771.365,-20.7794
 L 770.553,-20.5778 L 769.717,-20.5494 z
M 956.269,-20.6954 L 955.494,-21.0094 L 954.801,-21.4776 L 954.221,-22.0797 L 953.778,-22.7893 L 953.493,-23.5754
 L 953.375,-24.5394 L 953.375,-58 L 953.462,-58.8316 L 953.721,-59.627 L 954.139,-60.3511 L 954.698,-60.9726
 L 955.375,-61.4641 L 956.139,-61.8042 L 957.375,-62 L 1049.58,-62 L 1050.41,-61.9126 L 1051.2,-61.6542
 L 1051.93,-61.2361 L 1052.55,-60.6765 L 1053.04,-60 L 1053.38,-59.2361 L 1053.55,-58.4181 L 1053.55,-57.5819
 L 1053.38,-56.7639 L 1053.04,-56 L 1052.55,-55.3235 L 1051.93,-54.7639 L 1050.94,-54.2399 L 958.74,-20.7794
 L 957.928,-20.5778 L 957.092,-20.5494 z
M 1143.64,-20.6954 L 1142.87,-21.0094 L 1142.18,-21.4776 L 1141.6,-22.0797 L 1141.15,-22.7893 L 1140.87,-23.5754
 L 1140.75,-24.5394 L 1140.75,-58 L 1140.84,-58.8316 L 1141.1,-59.627 L 1141.51,-60.3511 L 1142.07,-60.9726
 L 1142.75,-61.4641 L 1143.51,-61.8042 L 1144.75,-62 L 1236.95,-62 L 1237.78,-61.9126 L 1238.58,-61.6542
 L 1239.3,-61.2361 L 1239.92,-60.6765 L 1240.42,-60 L 1240.76,-59.2361 L 1240.93,-58.4181 L 1240.93,-57.5819
 L 1240.76,-56.7639 L 1240.42,-56 L 1239.92,-55.3235 L 1239.3,-54.7639 L 1238.32,-54.2399 L 1146.11,-20.7794
 L 1145.3,-20.5778 L 1144.47,-20.5494 z
M 207.875,-18 L 206.639,-18.1958 L 205.875,-18.5359 L 205.198,-19.0274 L 204.639,-19.6489 L 204.221,-20.373
 L 203.962,-21.1684 L 203.875,-22 L 203.875,-55.4606 L 203.993,-56.4246 L 204.278,-57.2107 L 204.721,-57.9203
 L 205.301,-58.5223 L 205.994,-58.9906 L 206.769,-59.3046 L 207.592,-59.4506 L 208.428,-59.4222 L 209.24,-59.2206
 L 301.441,-25.7601 L 302.427,-25.2361 L 303.049,-24.6765 L 303.54,-24 L 303.88,-23.2361 L 304.054,-22.4181
 L 304.054,-21.5819 L 303.88,-20.7639 L 303.54,-20 L 303.049,-19.3235 L 302.427,-18.7639 L 301.703,-18.3458
 L 300.908,-18.0874 L 300.076,-18 z
M 395.25,-18 L 394.014,-18.1958 L 393.25,-18.5359 L 392.573,-19.0274 L 392.014,-19.6489 L 391.596,-20.373
 L 391.337,-21.1684 L 391.25,-22 L 391.25,-55.4606 L 391.368,-56.4246 L 391.653,-57.2107 L 392.096,-57.9203
 L 392.676,-58.5223 L 393.369,-58.9906 L 394.144,-59.3046 L 394.967,-59.4506 L 395.803,-59.4222 L 396.615,-59.2206
 L 488.816,-25.7601 L 489.802,-25.2361 L 490.424,-24.6765 L 490.915,-24 L 491.255,-23.2361 L 491.429,-22.4181
 L 491.429,-21.5819 L 491.255,-20.7639 L 490.915,-20 L 490.424,-19.3235 L 489.802,-18.7639 L 489.078,-18.3458
 L 488.283,-18.0874 L 487.451,-18 z
M 582.625,-18 L 581.389,-18.1958 L 580.625,-18.5359 L 579.948,-19.0274 L 579.389,-19.6489 L 578.971,-20.373
 L 578.712,-21.1684 L 578.625,-22 L 578.625,-55.4606 L 578.743,-56.4246 L 579.028,-57.2107 L 579.471,-57.9203
 L 580.051,-58.5223 L 580.744,-58.9906 L 581.519,-59.3046 L 582.342,-59.4506 L 583.178,-59.4222 L 583.99,-59.2206
 L 676.191,-25.7601 L 677.177,-25.2361 L 677.799,-24.6765 L 678.29,-24 L 678.63,-23.2361 L 678.804,-22.4181
 L 678.804,-21.5819 L 678.63,-20.7639 L 678.29,-20 L 677.799,-19.3235 L 677.177,-18.7639 L 676.453,-18.3458
 L 675.658,-18.0874 L 674.826,-18 z
M 839.174,-18 L 838.342,-18.0874 L 837.547,-18.3458 L 836.823,-18.7639 L 836.201,-19.3235 L 835.71,-20
 L 835.37,-20.7639 L 835.196,-21.5819 L 835.196,-22.4181 L 835.37,-23.2361 L 835.71,-24 L 836.201,-24.6765
 L 836.823,-25.2361 L 837.809,-25.7601 L 930.01,-59.2206 L 930.822,-59.4222 L 931.658,-59.4506 L 932.481,-59.3046
 L 933.256,-58.9906 L 933.949,-58.5223 L 934.529,-57.9203 L 934.972,-57.2107 L 935.257,-56.4246 L 935.375,-55.4606
 L 935.375,-22 L 935.288,-21.1684 L 935.029,-20.373 L 934.611,-19.6489 L 934.052,-19.0274 L 933.375,-18.5359
 L 932.611,-18.1958 L 931.375,-18 z
M 1026.55,-18 L 1025.72,-18.0874 L 1024.92,-18.3458 L 1024.2,-18.7639 L 1023.58,-19.3235 L 1023.08,-20
 L 1022.74,-20.7639 L 1022.57,-21.5819 L 1022.57,-22.4181 L 1022.74,-23.2361 L 1023.08,-24 L 1023.58,-24.6765
 L 1024.2,-25.2361 L 1025.18,-25.7601 L 1117.39,-59.2206 L 1118.2,-59.4222 L 1119.03,-59.4506 L 1119.86,-59.3046
 L 1120.63,-58.9906 L 1121.32,-58.5223 L 1121.9,-57.9203 L 1122.35,-57.2107 L 1122.63,-56.4246 L 1122.75,-55.4606
 L 1122.75,-22 L 1122.66,-21.1684 L 1122.4,-20.373 L 1121.99,-19.6489 L 1121.43,-19.0274 L 1120.75,-18.5359
 L 1119.99,-18.1958 L 1118.75,-18 z
M 1213.92,-18 L 1213.09,-18.0874 L 1212.3,-18.3458 L 1211.57,-18.7639 L 1210.95,-19.3235 L 1210.46,-20
 L 1210.12,-20.7639 L 1209.95,-21.5819 L 1209.95,-22.4181 L 1210.12,-23.2361 L 1210.46,-24 L 1210.95,-24.6765
 L 1211.57,-25.2361 L 1212.56,-25.7601 L 1304.76,-59.2206 L 1305.57,-59.4222 L 1306.41,-59.4506 L 1307.23,-59.3046
 L 1308.01,-58.9906 L 1308.7,-58.5223 L 1309.28,-57.9203 L 1309.72,-57.2107 L 1310.01,-56.4246 L 1310.12,-55.4606
 L 1310.12,-22 L 1310.04,-21.1684 L 1309.78,-20.373 L 1309.36,-19.6489 L 1308.8,-19.0274 L 1308.12,-18.5359
 L 1307.36,-18.1958 L 1306.12,-18 z
M 1401.3,-18 L 1400.47,-18.0874 L 1399.67,-18.3458 L 1398.95,-18.7639 L 1398.33,-19.3235 L 1397.83,-20
 L 1397.49,-20.7639 L 1397.32,-21.5819 L 1397.32,-22.4181 L 1397.49,-23.2361 L 1397.83,-24 L 1398.33,-24.6765
 L 1398.95,-25.2361 L 1399.93,-25.7601 L 1490.64,-58.6763 L 1491.45,-58.8778 L 1492.28,-58.9062 L 1493.11,-58.7602
 L 1493.88,-58.4462 L 1494.57,-57.978 L 1495.15,-57.3759 L 1495.6,-56.6663 L 1495.88,-55.8803 L 1496,-54.9162
 L 1496,-22 L 1495.91,-21.1684 L 1495.65,-20.373 L 1495.24,-19.6489 L 1494.68,-19.0274 L 1494,-18.5359
 L 1493.24,-18.1958 L 1492,-18 z
M 22,-18 L 20.7639,-18.1958 L 20,-18.5359 L 19.3235,-19.0274 L 18.7639,-19.6489 L 18.3458,-20.373
 L 18.0874,-21.1684 L 18,-22 L 18,-54.9162 L 18.1179,-55.8803 L 18.4032,-56.6663 L 18.8456,-57.3759
 L 19.426,-57.978 L 20.1188,-58.4462 L 20.8938,-58.7602 L 21.7172,-58.9062 L 22.553,-58.8778 L 23.3645,-58.6763
 L 114.066,-25.7601 L 115.052,-25.2361 L 115.674,-24.6765 L 116.165,-24 L 116.505,-23.2361 L 116.679,-22.4181
 L 116.679,-21.5819 L 116.505,-20.7639 L 116.165,-20 L 115.674,-19.3235 L 115.052,-18.7639 L 114.328,-18.3458
 L 113.533,-18.0874 L 112.701,-18 z
" stroke="black" fill="lightgray" stroke-width="0.5"/>
</svg>
