<?xml version="1.0" standalone="no"?>
<!DOCTYPE svg PUBLIC "-//W3C//DTD SVG 1.1//EN" "http://www.w3.org/Graphics/SVG/1.1/DTD/svg11.dtd">
<svg width="1513mm" height="80mm" viewBox="0 -80 1513 80" xmlns="http://www.w3.org/2000/svg" version="1.1">
<title>OpenSCAD Model</title>
<path d="
M 1513,-80 L 0,-80 L 0,-0 L 4.95,-0 L 4.95,-6 L 5.00572,-6.53017
 L 5.17046,-7.03717 L 5.437,-7.49884 L 5.79372,-7.895 L 6.22499,-8.20836 L 6.71201,-8.42519 L 7.23344,-8.53603
 L 7.76654,-8.53603 L 8.28798,-8.42519 L 8.77499,-8.20836 L 9.20627,-7.895 L 9.56299,-7.49884 L 9.82953,-7.03717
 L 9.99426,-6.53017 L 10.05,-6 L 10.05,-0 L 192.2,-0 L 192.2,-6 L 192.256,-6.53017
 L 192.42,-7.03717 L 192.687,-7.49884 L 193.044,-7.895 L 193.475,-8.20836 L 193.962,-8.42519 L 194.483,-8.53603
 L 195.017,-8.53603 L 195.538,-8.42519 L 196.025,-8.20836 L 196.456,-7.895 L 196.813,-7.49884 L 197.08,-7.03717
 L 197.244,-6.53017 L 197.3,-6 L 197.3,-0 L 379.45,-0 L 379.45,-6 L 379.506,-6.53017
 L 379.67,-7.03717 L 379.937,-7.49884 L 380.294,-7.895 L 380.725,-8.20836 L 381.212,-8.42519 L 381.733,-8.53603
 L 382.267,-8.53603 L 382.788,-8.42519 L 383.275,-8.20836 L 383.706,-7.895 L 384.063,-7.49884 L 384.33,-7.03717
 L 384.494,-6.53017 L 384.55,-6 L 384.55,-0 L 566.7,-0 L 566.7,-6 L 566.756,-6.53017
 L 566.92,-7.03717 L 567.187,-7.49884 L 567.544,-7.895 L 567.975,-8.20836 L 568.462,-8.42519 L 568.983,-8.53603
 L 569.517,-8.53603 L 570.038,-8.42519 L 570.525,-8.20836 L 570.956,-7.895 L 571.313,-7.49884 L 571.58,-7.03717
 L 571.744,-6.53017 L 571.8,-6 L 571.8,-0 L 753.95,-0 L 753.95,-6 L 754.006,-6.53017
 L 754.17,-7.03717 L 754.437,-7.49884 L 754.794,-7.895 L 755.225,-8.20836 L 755.712,-8.42519 L 756.233,-8.53603
 L 756.767,-8.53603 L 757.288,-8.42519 L 757.775,-8.20836 L 758.206,-7.895 L 758.563,-7.49884 L 758.83,-7.03717
 L 758.994,-6.53017 L 759.05,-6 L 759.05,-0 L 941.2,-0 L 941.2,-6 L 941.256,-6.53017
 L 941.42,-7.03717 L 941.687,-7.49884 L 942.044,-7.895 L 942.475,-8.20836 L 942.962,-8.42519 L 943.483,-8.53603
 L 944.017,-8.53603 L 944.538,-8.42519 L 945.025,-8.20836 L 945.456,-7.895 L 945.813,-7.49884 L 946.08,-7.03717
 L 946.244,-6.53017 L 946.3,-6 L 946.3,-0 L 1128.45,-0 L 1128.45,-6 L 1128.51,-6.53017
 L 1128.67,-7.03717 L 1128.94,-7.49884 L 1129.29,-7.895 L 1129.72,-8.20836 L 1130.21,-8.42519 L 1130.73,-8.53603
 L 1131.27,-8.53603 L 1131.79,-8.42519 L 1132.27,-8.20836 L 1132.71,-7.895 L 1133.06,-7.49884 L 1133.33,-7.03717
 L 1133.49,-6.53017 L 1133.55,-6 L 1133.55,-0 L 1315.7,-0 L 1315.7,-6 L 1315.76,-6.53017
 L 1315.92,-7.03717 L 1316.19,-7.49884 L 1316.54,-7.895 L 1316.97,-8.20836 L 1317.46,-8.42519 L 1317.98,-8.53603
 L 1318.52,-8.53603 L 1319.04,-8.42519 L 1319.52,-8.20836 L 1319.96,-7.895 L 1320.31,-7.49884 L 1320.58,-7.03717
 L 1320.74,-6.53017 L 1320.8,-6 L 1320.8,-0 L 1502.95,-0 L 1502.95,-6 L 1503.01,-6.53017
 L 1503.17,-7.03717 L 1503.44,-7.49884 L 1503.79,-7.895 L 1504.22,-8.20836 L 1504.71,-8.42519 L 1505.23,-8.53603
 L 1505.77,-8.53603 L 1506.29,-8.42519 L 1506.77,-8.20836 L 1507.21,-7.895 L 1507.56,-7.49884 L 1507.83,-7.03717
 L 1507.99,-6.53017 L 1508.05,-6 L 1508.05,-0 L 1513,-0 z
M 194.236,-55.607 L 193.727,-55.6875 L 193.23,-55.8208 L 192.749,-56.0054 L 192.29,-56.2392 L 191.858,-56.5196
 L 191.458,-56.8437 L 191.094,-57.2079 L 190.77,-57.6081 L 190.489,-58.04 L 190.255,-58.4989 L 190.071,-58.9796
 L 189.938,-59.4771 L 189.857,-59.9857 L 189.83,-60.5 L 189.857,-61.0143 L 189.938,-61.5229 L 190.071,-62.0204
 L 190.255,-62.5011 L 190.489,-62.96 L 190.77,-63.3919 L 191.094,-63.7921 L 191.458,-64.1563 L 191.858,-64.4804
 L 192.2,-64.7024 L 192.2,-74 L 192.256,-74.5302 L 192.42,-75.0372 L 192.687,-75.4988 L 193.044,-75.895
 L 193.475,-76.2084 L 193.962,-76.4252 L 194.483,-76.536 L 195.017,-76.536 L 195.538,-76.4252 L 196.025,-76.2084
 L 196.456,-75.895 L 196.813,-75.4988 L 197.08,-75.0372 L 197.244,-74.5302 L 197.3,-74 L 197.3,-64.7024
 L 197.642,-64.4804 L 198.042,-64.1563 L 198.406,-63.7921 L 198.73,-63.3919 L 199.011,-62.96 L 199.245,-62.5011
 L 199.429,-62.0204 L 199.562,-61.5229 L 199.643,-61.0143 L 199.67,-60.5 L 199.643,-59.9857 L 199.562,-59.4771
 L 199.429,-58.9796 L 199.245,-58.4989 L 199.011,-58.04 L 198.73,-57.6081 L 198.406,-57.2079 L 198.042,-56.8437
 L 197.642,-56.5196 L 197.21,-56.2392 L 196.751,-56.0054 L 196.27,-55.8208 L 195.773,-55.6875 L 195.264,-55.607
 L 194.75,-55.58 z
M 1130.49,-55.607 L 1129.98,-55.6875 L 1129.48,-55.8208 L 1129,-56.0054 L 1128.54,-56.2392 L 1128.11,-56.5196
 L 1127.71,-56.8437 L 1127.34,-57.2079 L 1127.02,-57.6081 L 1126.74,-58.04 L 1126.51,-58.4989 L 1126.32,-58.9796
 L 1126.19,-59.4771 L 1126.11,-59.9857 L 1126.08,-60.5 L 1126.11,-61.0143 L 1126.19,-61.5229 L 1126.32,-62.0204
 L 1126.51,-62.5011 L 1126.74,-62.96 L 1127.02,-63.3919 L 1127.34,-63.7921 L 1127.71,-64.1563 L 1128.11,-64.4804
 L 1128.45,-64.7024 L 1128.45,-74 L 1128.51,-74.5302 L 1128.67,-75.0372 L 1128.94,-75.4988 L 1129.29,-75.895
 L 1129.73,-76.2084 L 1130.21,-76.4252 L 1130.73,-76.536 L 1131.27,-76.536 L 1131.79,-76.4252 L 1132.27,-76.2084
 L 1132.71,-75.895 L 1133.06,-75.4988 L 1133.33,-75.0372 L 1133.49,-74.5302 L 1133.55,-74 L 1133.55,-64.7024
 L 1133.89,-64.4804 L 1134.29,-64.1563 L 1134.66,-63.7921 L 1134.98,-63.3919 L 1135.26,-62.96 L 1135.49,-62.5011
 L 1135.68,-62.0204 L 1135.81,-61.5229 L 1135.89,-61.0143 L 1135.92,-60.5 L 1135.89,-59.9857 L 1135.81,-59.4771
 L 1135.68,-58.9796 L 1135.49,-58.4989 L 1135.26,-58.04 L 1134.98,-57.6081 L 1134.66,-57.2079 L 1134.29,-56.8437
 L 1133.89,-56.5196 L 1133.46,-56.2392 L 1133,-56.0054 L 1132.52,-55.8208 L 1132.02,-55.6875 L 1131.51,-55.607
 L 1131,-55.58 z
M 943.236,-55.607 L 942.727,-55.6875 L 942.23,-55.8208 L 941.749,-56.0054 L 941.29,-56.2392 L 940.858,-56.5196
 L 940.458,-56.8437 L 940.094,-57.2079 L 939.77,-57.6081 L 939.489,-58.04 L 939.255,-58.4989 L 939.071,-58.9796
 L 938.938,-59.4771 L 938.857,-59.9857 L 938.83,-60.5 L 938.857,-61.0143 L 938.938,-61.5229 L 939.071,-62.0204
 L 939.255,-62.5011 L 939.489,-62.96 L 939.77,-63.3919 L 940.094,-63.7921 L 940.458,-64.1563 L 940.858,-64.4804
 L 941.2,-64.7024 L 941.2,-74 L 941.256,-74.5302 L 941.42,-75.0372 L 941.687,-75.4988 L 942.044,-75.895
 L 942.475,-76.2084 L 942.962,-76.4252 L 943.483,-76.536 L 944.017,-76.536 L 944.538,-76.4252 L 945.025,-76.2084
 L 945.456,-75.895 L 945.813,-75.4988 L 946.08,-75.0372 L 946.244,-74.5302 L 946.3,-74 L 946.3,-64.7024
 L 946.642,-64.4804 L 947.042,-64.1563 L 947.406,-63.7921 L 947.73,-63.3919 L 948.011,-62.96 L 948.245,-62.5011
 L 948.429,-62.0204 L 948.562,-61.5229 L 948.643,-61.0143 L 948.67,-60.5 L 948.643,-59.9857 L 948.562,-59.4771
 L 948.429,-58.9796 L 948.245,-58.4989 L 948.011,-58.04 L 947.73,-57.6081 L 947.406,-57.2079 L 947.042,-56.8437
 L 946.642,-56.5196 L 946.21,-56.2392 L 945.751,-56.0054 L 945.27,-55.8208 L 944.773,-55.6875 L 944.264,-55.607
 L 943.75,-55.58 z
M 6.98573,-55.607 L 6.47708,-55.6875 L 5.97964,-55.8208 L 5.49887,-56.0054 L 5.04001,-56.2392 L 4.60811,-56.5196
 L 4.20789,-56.8437 L 3.84373,-57.2079 L 3.51964,-57.6081 L 3.23917,-58.04 L 3.00537,-58.4989 L 2.82082,-58.9796
 L 2.68752,-59.4771 L 2.60696,-59.9857 L 2.58,-60.5 L 2.60696,-61.0143 L 2.68752,-61.5229 L 2.82082,-62.0204
 L 3.00537,-62.5011 L 3.23917,-62.96 L 3.51964,-63.3919 L 3.84373,-63.7921 L 4.20789,-64.1563 L 4.60811,-64.4804
 L 4.95001,-64.7024 L 4.95001,-74 L 5.00574,-74.5302 L 5.17047,-75.0372 L 5.43701,-75.4988 L 5.79373,-75.895
 L 6.22501,-76.2084 L 6.71202,-76.4252 L 7.23346,-76.536 L 7.76654,-76.536 L 8.28798,-76.4252 L 8.77499,-76.2084
 L 9.20627,-75.895 L 9.56299,-75.4988 L 9.82953,-75.0372 L 9.99426,-74.5302 L 10.05,-74 L 10.05,-64.7024
 L 10.3919,-64.4804 L 10.7921,-64.1563 L 11.1563,-63.7921 L 11.4804,-63.3919 L 11.7608,-62.96 L 11.9946,-62.5011
 L 12.1792,-62.0204 L 12.3125,-61.5229 L 12.393,-61.0143 L 12.42,-60.5 L 12.393,-59.9857 L 12.3125,-59.4771
 L 12.1792,-58.9796 L 11.9946,-58.4989 L 11.7608,-58.04 L 11.4804,-57.6081 L 11.1563,-57.2079 L 10.7921,-56.8437
 L 10.3919,-56.5196 L 9.95999,-56.2392 L 9.50113,-56.0054 L 9.02036,-55.8208 L 8.52292,-55.6875 L 8.01427,-55.607
 L 7.5,-55.58 z
M 755.986,-55.607 L 755.477,-55.6875 L 754.98,-55.8208 L 754.499,-56.0054 L 754.04,-56.2392 L 753.608,-56.5196
 L 753.208,-56.8437 L 752.844,-57.2079 L 752.52,-57.6081 L 752.239,-58.04 L 752.005,-58.4989 L 751.821,-58.9796
 L 751.688,-59.4771 L 751.607,-59.9857 L 751.58,-60.5 L 751.607,-61.0143 L 751.688,-61.5229 L 751.821,-62.0204
 L 752.005,-62.5011 L 752.239,-62.96 L 752.52,-63.3919 L 752.844,-63.7921 L 753.208,-64.1563 L 753.608,-64.4804
 L 753.95,-64.7024 L 753.95,-74 L 754.006,-74.5302 L 754.17,-75.0372 L 754.437,-75.4988 L 754.794,-75.895
 L 755.225,-76.2084 L 755.712,-76.4252 L 756.233,-76.536 L 756.767,-76.536 L 757.288,-76.4252 L 757.775,-76.2084
 L 758.206,-75.895 L 758.563,-75.4988 L 758.83,-75.0372 L 758.994,-74.5302 L 759.05,-74 L 759.05,-64.7024
 L 759.392,-64.4804 L 759.792,-64.1563 L 760.156,-63.7921 L 760.48,-63.3919 L 760.761,-62.96 L 760.995,-62.5011
 L 761.179,-62.0204 L 761.312,-61.5229 L 761.393,-61.0143 L 761.42,-60.5 L 761.393,-59.9857 L 761.312,-59.4771
 L 761.179,-58.9796 L 760.995,-58.4989 L 760.761,-58.04 L 760.48,-57.6081 L 760.156,-57.2079 L 759.792,-56.8437
 L 759.392,-56.5196 L 758.96,-56.2392 L 758.501,-56.0054 L 758.02,-55.8208 L 757.523,-55.6875 L 757.014,-55.607
 L 756.5,-55.58 z
M 1317.74,-55.607 L 1317.23,-55.6875 L 1316.73,-55.8208 L 1316.25,-56.0054 L 1315.79,-56.2392 L 1315.36,-56.5196
 L 1314.96,-56.8437 L 1314.59,-57.2079 L 1314.27,-57.6081 L 1313.99,-58.04 L 1313.76,-58.4989 L 1313.57,-58.9796
 L 1313.44,-59.4771 L 1313.36,-59.9857 L 1313.33,-60.5 L 1313.36,-61.0143 L 1313.44,-61.5229 L 1313.57,-62.0204
 L 1313.76,-62.5011 L 1313.99,-62.96 L 1314.27,-63.3919 L 1314.59,-63.7921 L 1314.96,-64.1563 L 1315.36,-64.4804
 L 1315.7,-64.7024 L 1315.7,-74 L 1315.76,-74.5302 L 1315.92,-75.0372 L 1316.19,-75.4988 L 1316.54,-75.895
 L 1316.98,-76.2084 L 1317.46,-76.4252 L 1317.98,-76.536 L 1318.52,-76.536 L 1319.04,-76.4252 L 1319.52,-76.2084
 L 1319.96,-75.895 L 1320.31,-75.4988 L 1320.58,-75.0372 L 1320.74,-74.5302 L 1320.8,-74 L 1320.8,-64.7024
 L 1321.14,-64.4804 L 1321.54,-64.1563 L 1321.91,-63.7921 L 1322.23,-63.3919 L 1322.51,-62.96 L 1322.74,-62.5011
 L 1322.93,-62.0204 L 1323.06,-61.5229 L 1323.14,-61.0143 L 1323.17,-60.5 L 1323.14,-59.9857 L 1323.06,-59.4771
 L 1322.93,-58.9796 L 1322.74,-58.4989 L 1322.51,-58.04 L 1322.23,-57.6081 L 1321.91,-57.2079 L 1321.54,-56.8437
 L 1321.14,-56.5196 L 1320.71,-56.2392 L 1320.25,-56.0054 L 1319.77,-55.8208 L 1319.27,-55.6875 L 1318.76,-55.607
 L 1318.25,-55.58 z
M 568.736,-55.607 L 568.227,-55.6875 L 567.73,-55.8208 L 567.249,-56.0054 L 566.79,-56.2392 L 566.358,-56.5196
 L 565.958,-56.8437 L 565.594,-57.2079 L 565.27,-57.6081 L 564.989,-58.04 L 564.755,-58.4989 L 564.571,-58.9796
 L 564.438,-59.4771 L 564.357,-59.9857 L 564.33,-60.5 L 564.357,-61.0143 L 564.438,-61.5229 L 564.571,-62.0204
 L 564.755,-62.5011 L 564.989,-62.96 L 565.27,-63.3919 L 565.594,-63.7921 L 565.958,-64.1563 L 566.358,-64.4804
 L 566.7,-64.7024 L 566.7,-74 L 566.756,-74.5302 L 566.92,-75.0372 L 567.187,-75.4988 L 567.544,-75.895
 L 567.975,-76.2084 L 568.462,-76.4252 L 568.983,-76.536 L 569.517,-76.536 L 570.038,-76.4252 L 570.525,-76.2084
 L 570.956,-75.895 L 571.313,-75.4988 L 571.58,-75.0372 L 571.744,-74.5302 L 571.8,-74 L 571.8,-64.7024
 L 572.142,-64.4804 L 572.542,-64.1563 L 572.906,-63.7921 L 573.23,-63.3919 L 573.511,-62.96 L 573.745,-62.5011
 L 573.929,-62.0204 L 574.062,-61.5229 L 574.143,-61.0143 L 574.17,-60.5 L 574.143,-59.9857 L 574.062,-59.4771
 L 573.929,-58.9796 L 573.745,-58.4989 L 573.511,-58.04 L 573.23,-57.6081 L 572.906,-57.2079 L 572.542,-56.8437
 L 572.142,-56.5196 L 571.71,-56.2392 L 571.251,-56.0054 L 570.77,-55.8208 L 570.273,-55.6875 L 569.764,-55.607
 L 569.25,-55.58 z
M 381.486,-55.607 L 380.977,-55.6875 L 380.48,-55.8208 L 379.999,-56.0054 L 379.54,-56.2392 L 379.108,-56.5196
 L 378.708,-56.8437 L 378.344,-57.2079 L 378.02,-57.6081 L 377.739,-58.04 L 377.505,-58.4989 L 377.321,-58.9796
 L 377.188,-59.4771 L 377.107,-59.9857 L 377.08,-60.5 L 377.107,-61.0143 L 377.188,-61.5229 L 377.321,-62.0204
 L 377.505,-62.5011 L 377.739,-62.96 L 378.02,-63.3919 L 378.344,-63.7921 L 378.708,-64.1563 L 379.108,-64.4804
 L 379.45,-64.7024 L 379.45,-74 L 379.506,-74.5302 L 379.67,-75.0372 L 379.937,-75.4988 L 380.294,-75.895
 L 380.725,-76.2084 L 381.212,-76.4252 L 381.733,-76.536 L 382.267,-76.536 L 382.788,-76.4252 L 383.275,-76.2084
 L 383.706,-75.895 L 384.063,-75.4988 L 384.33,-75.0372 L 384.494,-74.5302 L 384.55,-74 L 384.55,-64.7024
 L 384.892,-64.4804 L 385.292,-64.1563 L 385.656,-63.7921 L 385.98,-63.3919 L 386.261,-62.96 L 386.495,-62.5011
 L 386.679,-62.0204 L 386.812,-61.5229 L 386.893,-61.0143 L 386.92,-60.5 L 386.893,-59.9857 L 386.812,-59.4771
 L 386.679,-58.9796 L 386.495,-58.4989 L 386.261,-58.04 L 385.98,-57.6081 L 385.656,-57.2079 L 385.292,-56.8437
 L 384.892,-56.5196 L 384.46,-56.2392 L 384.001,-56.0054 L 383.52,-55.8208 L 383.023,-55.6875 L 382.514,-55.607
 L 382,-55.58 z
M 1504.99,-55.607 L 1504.48,-55.6875 L 1503.98,-55.8208 L 1503.5,-56.0054 L 1503.04,-56.2392 L 1502.61,-56.5196
 L 1502.21,-56.8437 L 1501.84,-57.2079 L 1501.52,-57.6081 L 1501.24,-58.04 L 1501.01,-58.4989 L 1500.82,-58.9796
 L 1500.69,-59.4771 L 1500.61,-59.9857 L 1500.58,-60.5 L 1500.61,-61.0143 L 1500.69,-61.5229 L 1500.82,-62.0204
 L 1501.01,-62.5011 L 1501.24,-62.96 L 1501.52,-63.3919 L 1501.84,-63.7921 L 1502.21,-64.1563 L 1502.61,-64.4804
 L 1502.95,-64.7024 L 1502.95,-74 L 1503.01,-74.5302 L 1503.17,-75.0372 L 1503.44,-75.4988 L 1503.79,-75.895
 L 1504.23,-76.2084 L 1504.71,-76.4252 L 1505.23,-76.536 L 1505.77,-76.536 L 1506.29,-76.4252 L 1506.77,-76.2084
 L 1507.21,-75.895 L 1507.56,-75.4988 L 1507.83,-75.0372 L 1507.99,-74.5302 L 1508.05,-74 L 1508.05,-64.7024
 L 1508.39,-64.4804 L 1508.79,-64.1563 L 1509.16,-63.7921 L 1509.48,-63.3919 L 1509.76,-62.96 L 1509.99,-62.5011
 L 1510.18,-62.0204 L 1510.31,-61.5229 L 1510.39,-61.0143 L 1510.42,-60.5 L 1510.39,-59.9857 L 1510.31,-59.4771
 L 1510.18,-58.9796 L 1509.99,-58.4989 L 1509.76,-58.04 L 1509.48,-57.6081 L 1509.16,-57.2079 L 1508.79,-56.8437
 L 1508.39,-56.5196 L 1507.96,-56.2392 L 1507.5,-56.0054 L 1507.02,-55.8208 L 1506.52,-55.6875 L 1506.01,-55.607
 L 1505.5,-55.58 z
M 368.446,-20.5821 L 367.635,-20.7838 L 275.506,-54.2402 L 274.521,-54.7639 L 273.899,-55.3235 L 273.408,-56
 L 273.068,-56.7639 L 272.894,-57.5819 L 272.894,-58.4181 L 273.068,-59.2361 L 273.408,-60 L 273.899,-60.6765
 L 274.521,-61.2361 L 275.245,-61.6542 L 276.04,-61.9126 L 276.872,-62 L 369,-62 L 370.236,-61.8042
 L 371,-61.4641 L 371.677,-60.9726 L 372.236,-60.3511 L 372.654,-59.627 L 372.913,-58.8316 L 373,-58
 L 373,-24.5435 L 372.882,-23.5787 L 372.596,-22.7926 L 372.154,-22.0832 L 371.573,-21.4812 L 370.88,-21.0131
 L 370.105,-20.6993 L 369.282,-20.5535 z
M 555.696,-20.5821 L 554.885,-20.7838 L 462.756,-54.2402 L 461.771,-54.7639 L 461.149,-55.3235 L 460.658,-56
 L 460.318,-56.7639 L 460.144,-57.5819 L 460.144,-58.4181 L 460.318,-59.2361 L 460.658,-60 L 461.149,-60.6765
 L 461.771,-61.2361 L 462.495,-61.6542 L 463.29,-61.9126 L 464.122,-62 L 556.25,-62 L 557.486,-61.8042
 L 558.25,-61.4641 L 558.927,-60.9726 L 559.486,-60.3511 L 559.904,-59.627 L 560.163,-58.8316 L 560.25,-58
 L 560.25,-24.5435 L 560.132,-23.5787 L 559.846,-22.7926 L 559.404,-22.0832 L 558.823,-21.4812 L 558.13,-21.0131
 L 557.355,-20.6993 L 556.532,-20.5535 z
M 1330.14,-20.6993 L 1329.37,-21.0131 L 1328.68,-21.4812 L 1328.1,-22.0832 L 1327.65,-22.7926 L 1327.37,-23.5787
 L 1327.25,-24.5435 L 1327.25,-58 L 1327.34,-58.8316 L 1327.6,-59.627 L 1328.01,-60.3511 L 1328.57,-60.9726
 L 1329.25,-61.4641 L 1330.01,-61.8042 L 1331.25,-62 L 1423.38,-62 L 1424.21,-61.9126 L 1425.01,-61.6542
 L 1425.73,-61.2361 L 1426.35,-60.6765 L 1426.84,-60 L 1427.18,-59.2361 L 1427.36,-58.4181 L 1427.36,-57.5819
 L 1427.18,-56.7639 L 1426.84,-56 L 1426.35,-55.3235 L 1425.73,-54.7639 L 1424.74,-54.2402 L 1332.62,-20.7838
 L 1331.8,-20.5821 L 1330.97,-20.5535 z
M 742.946,-20.5821 L 742.135,-20.7838 L 650.006,-54.2402 L 649.021,-54.7639 L 648.399,-55.3235 L 647.908,-56
 L 647.568,-56.7639 L 647.394,-57.5819 L 647.394,-58.4181 L 647.568,-59.2361 L 647.908,-60 L 648.399,-60.6765
 L 649.021,-61.2361 L 649.745,-61.6542 L 650.54,-61.9126 L 651.372,-62 L 743.5,-62 L 744.736,-61.8042
 L 745.5,-61.4641 L 746.177,-60.9726 L 746.736,-60.3511 L 747.154,-59.627 L 747.413,-58.8316 L 747.5,-58
 L 747.5,-24.5435 L 747.382,-23.5787 L 747.096,-22.7926 L 746.654,-22.0832 L 746.073,-21.4812 L 745.38,-21.0131
 L 744.605,-20.6993 L 743.782,-20.5535 z
M 181.196,-20.5821 L 180.385,-20.7838 L 88.2564,-54.2402 L 87.2706,-54.7639 L 86.6492,-55.3235 L 86.1576,-56
 L 85.8175,-56.7639 L 85.6436,-57.5819 L 85.6436,-58.4181 L 85.8175,-59.2361 L 86.1576,-60 L 86.6492,-60.6765
 L 87.2706,-61.2361 L 87.9948,-61.6542 L 88.7901,-61.9126 L 89.6217,-62 L 181.75,-62 L 182.986,-61.8042
 L 183.75,-61.4641 L 184.427,-60.9726 L 184.986,-60.3511 L 185.404,-59.627 L 185.663,-58.8316 L 185.75,-58
 L 185.75,-24.5435 L 185.632,-23.5787 L 185.346,-22.7926 L 184.904,-22.0832 L 184.323,-21.4812 L 183.63,-21.0131
 L 182.855,-20.6993 L 182.032,-20.5535 z
M 768.395,-20.6993 L 767.62,-21.0131 L 766.927,-21.4812 L 766.346,-22.0832 L 765.904,-22.7926 L 765.618,-23.5787
 L 765.5,-24.5435 L 765.5,-58 L 765.587,-58.8316 L 765.846,-59.627 L 766.264,-60.3511 L 766.823,-60.9726
 L 767.5,-61.4641 L 768.264,-61.8042 L 769.5,-62 L 861.628,-62 L 862.46,-61.9126 L 863.255,-61.6542
 L 863.979,-61.2361 L 864.601,-60.6765 L 865.092,-60 L 865.432,-59.2361 L 865.606,-58.4181 L 865.606,-57.5819
 L 865.432,-56.7639 L 865.092,-56 L 864.601,-55.3235 L 863.979,-54.7639 L 862.994,-54.2402 L 770.865,-20.7838
 L 770.054,-20.5821 L 769.218,-20.5535 z
M 955.645,-20.6993 L 954.87,-21.0131 L 954.177,-21.4812 L 953.596,-22.0832 L 953.154,-22.7926 L 952.868,-23.5787
 L 952.75,-24.5435 L 952.75,-58 L 952.837,-58.8316 L 953.096,-59.627 L 953.514,-60.3511 L 954.073,-60.9726
 L 954.75,-61.4641 L 955.514,-61.8042 L 956.75,-62 L 1048.88,-62 L 1049.71,-61.9126 L 1050.51,-61.6542
 L 1051.23,-61.2361 L 1051.85,-60.6765 L 1052.34,-60 L 1052.68,-59.2361 L 1052.86,-58.4181 L 1052.86,-57.5819
 L 1052.68,-56.7639 L 1052.34,-56 L 1051.85,-55.3235 L 1051.23,-54.7639 L 1050.24,-54.2402 L 958.115,-20.7838
 L 957.304,-20.5821 L 956.468,-20.5535 z
M 1142.89,-20.6993 L 1142.12,-21.0131 L 1141.43,-21.4812 L 1140.85,-22.0832 L 1140.4,-22.7926 L 1140.12,-23.5787
 L 1140,-24.5435 L 1140,-58 L 1140.09,-58.8316 L 1140.35,-59.627 L 1140.76,-60.3511 L 1141.32,-60.9726
 L 1142,-61.4641 L 1142.76,-61.8042 L 1144,-62 L 1236.13,-62 L 1236.96,-61.9126 L 1237.76,-61.6542
 L 1238.48,-61.2361 L 1239.1,-60.6765 L 1239.59,-60 L 1239.93,-59.2361 L 1240.11,-58.4181 L 1240.11,-57.5819
 L 1239.93,-56.7639 L 1239.59,-56 L 1239.1,-55.3235 L 1238.48,-54.7639 L 1237.49,-54.2402 L 1145.37,-20.7838
 L 1144.55,-20.5821 L 1143.72,-20.5535 z
M 207.75,-18 L 206.514,-18.1958 L 205.75,-18.5359 L 205.073,-19.0274 L 204.514,-19.6489 L 204.096,-20.373
 L 203.837,-21.1684 L 203.75,-22 L 203.75,-55.4565 L 203.868,-56.4213 L 204.154,-57.2073 L 204.596,-57.9168
 L 205.177,-58.5188 L 205.87,-58.9869 L 206.645,-59.3007 L 207.468,-59.4465 L 208.304,-59.4179 L 209.115,-59.2162
 L 301.244,-25.7598 L 302.229,-25.2361 L 302.851,-24.6765 L 303.342,-24 L 303.682,-23.2361 L 303.856,-22.4181
 L 303.856,-21.5819 L 303.682,-20.7639 L 303.342,-20 L 302.851,-19.3235 L 302.229,-18.7639 L 301.505,-18.3458
 L 300.71,-18.0874 L 299.878,-18 z
M 395,-18 L 393.764,-18.1958 L 393,-18.5359 L 392.323,-19.0274 L 391.764,-19.6489 L 391.346,-20.373
 L 391.087,-21.1684 L 391,-22 L 391,-55.4565 L 391.118,-56.4213 L 391.404,-57.2073 L 391.846,-57.9168
 L 392.427,-58.5188 L 393.12,-58.9869 L 393.895,-59.3007 L 394.718,-59.4465 L 395.554,-59.4179 L 396.365,-59.2162
 L 488.494,-25.7598 L 489.479,-25.2361 L 490.101,-24.6765 L 490.592,-24 L 490.932,-23.2361 L 491.106,-22.4181
 L 491.106,-21.5819 L 490.932,-20.7639 L 490.592,-20 L 490.101,-19.3235 L 489.479,-18.7639 L 488.755,-18.3458
 L 487.96,-18.0874 L 487.128,-18 z
M 582.25,-18 L 581.014,-18.1958 L 580.25,-18.5359 L 579.573,-19.0274 L 579.014,-19.6489 L 578.596,-20.373
 L 578.337,-21.1684 L 578.25,-22 L 578.25,-55.4565 L 578.368,-56.4213 L 578.654,-57.2073 L 579.096,-57.9168
 L 579.677,-58.5188 L 580.37,-58.9869 L 581.145,-59.3007 L 581.968,-59.4465 L 582.804,-59.4179 L 583.615,-59.2162
 L 675.744,-25.7598 L 676.729,-25.2361 L 677.351,-24.6765 L 677.842,-24 L 678.182,-23.2361 L 678.356,-22.4181
 L 678.356,-21.5819 L 678.182,-20.7639 L 677.842,-20 L 677.351,-19.3235 L 676.729,-18.7639 L 676.005,-18.3458
 L 675.21,-18.0874 L 674.378,-18 z
M 838.622,-18 L 837.79,-18.0874 L 836.995,-18.3458 L 836.271,-18.7639 L 835.649,-19.3235 L 835.158,-20
 L 834.818,-20.7639 L 834.644,-21.5819 L 834.644,-22.4181 L 834.818,-23.2361 L 835.158,-24 L 835.649,-24.6765
 L 836.271,-25.2361 L 837.256,-25.7598 L 929.385,-59.2162 L 930.196,-59.4179 L 931.032,-59.4465 L 931.855,-59.3007
 L 932.63,-58.9869 L 933.323,-58.5188 L 933.904,-57.9168 L 934.346,-57.2073 L 934.632,-56.4213 L 934.75,-55.4565
 L 934.75,-22 L 934.663,-21.1684 L 934.404,-20.373 L 933.986,-19.6489 L 933.427,-19.0274 L 932.75,-18.5359
 L 931.986,-18.1958 L 930.75,-18 z
M 1025.87,-18 L 1025.04,-18.0874 L 1024.24,-18.3458 L 1023.52,-18.7639 L 1022.9,-19.3235 L 1022.41,-20
 L 1022.07,-20.7639 L 1021.89,-21.5819 L 1021.89,-22.4181 L 1022.07,-23.2361 L 1022.41,-24 L 1022.9,-24.6765
 L 1023.52,-25.2361 L 1024.51,-25.7598 L 1116.63,-59.2162 L 1117.45,-59.4179 L 1118.28,-59.4465 L 1119.11,-59.3007
 L 1119.88,-58.9869 L 1120.57,-58.5188 L 1121.15,-57.9168 L 1121.6,-57.2073 L 1121.88,-56.4213 L 1122,-55.4565
 L 1122,-22 L 1121.91,-21.1684 L 1121.65,-20.373 L 1121.24,-19.6489 L 1120.68,-19.0274 L 1120,-18.5359
 L 1119.24,-18.1958 L 1118,-18 z
M 1213.12,-18 L 1212.29,-18.0874 L 1211.49,-18.3458 L 1210.77,-18.7639 L 1210.15,-19.3235 L 1209.66,-20
 L 1209.32,-20.7639 L 1209.14,-21.5819 L 1209.14,-22.4181 L 1209.32,-23.2361 L 1209.66,-24 L 1210.15,-24.6765
 L 1210.77,-25.2361 L 1211.76,-25.7598 L 1303.88,-59.2162 L 1304.7,-59.4179 L 1305.53,-59.4465 L 1306.36,-59.3007
 L 1307.13,-58.9869 L 1307.82,-58.5188 L 1308.4,-57.9168 L 1308.85,-57.2073 L 1309.13,-56.4213 L 1309.25,-55.4565
 L 1309.25,-22 L 1309.16,-21.1684 L 1308.9,-20.373 L 1308.49,-19.6489 L 1307.93,-19.0274 L 1307.25,-18.5359
 L 1306.49,-18.1958 L 1305.25,-18 z
M 1400.37,-18 L 1399.54,-18.0874 L 1398.74,-18.3458 L 1398.02,-18.7639 L 1397.4,-19.3235 L 1396.91,-20
 L 1396.57,-20.7639 L 1396.39,-21.5819 L 1396.39,-22.4181 L 1396.57,-23.2361 L 1396.91,-24 L 1397.4,-24.6765
 L 1398.02,-25.2361 L 1399.01,-25.7598 L 1489.63,-58.6715 L 1490.45,-58.8732 L 1491.28,-58.9018 L 1492.11,-58.756
 L 1492.88,-58.4422 L 1493.57,-57.974 L 1494.15,-57.3721 L 1494.6,-56.6626 L 1494.88,-55.8766 L 1495,-54.9117
 L 1495,-22 L 1494.91,-21.1684 L 1494.65,-20.373 L 1494.24,-19.6489 L 1493.68,-19.0274 L 1493,-18.5359
 L 1492.24,-18.1958 L 1491,-18 z
M 22,-18 L 20.7639,-18.1958 L 20,-18.5359 L 19.3235,-19.0274 L 18.7639,-19.6489 L 18.3458,-20.373
 L 18.0874,-21.1684 L 18,-22 L 18,-54.9117 L 18.1181,-55.8766 L 18.4035,-56.6626 L 18.8462,-57.3721
 L 19.4266,-57.974 L 20.1196,-58.4422 L 20.8947,-58.756 L 21.7181,-58.9018 L 22.5538,-58.8732 L 23.3654,-58.6715
 L 113.994,-25.7598 L 114.979,-25.2361 L 115.601,-24.6765 L 116.092,-24 L 116.432,-23.2361 L 116.606,-22.4181
 L 116.606,-21.5819 L 116.432,-20.7639 L 116.092,-20 L 115.601,-19.3235 L 114.979,-18.7639 L 114.255,-18.3458
 L 113.46,-18.0874 L 112.628,-18 z
" stroke="black" fill="lightgray" stroke-width="0.5"/>
</svg>
