<?xml version="1.0" standalone="no"?>
<!DOCTYPE svg PUBLIC "-//W3C//DTD SVG 1.1//EN" "http://www.w3.org/Graphics/SVG/1.1/DTD/svg11.dtd">
<svg width="1228mm" height="80mm" viewBox="0 -80 1228 80" xmlns="http://www.w3.org/2000/svg" version="1.1">
<title>OpenSCAD Model</title>
<path d="
M 1228,-80 L 0,-80 L 0,-0 L 4.95,-0 L 4.95,-6 L 5.00572,-6.53017
 L 5.17046,-7.03717 L 5.437,-7.49884 L 5.79372,-7.895 L 6.22499,-8.20836 L 6.71201,-8.42519 L 7.23344,-8.53603
 L 7.76654,-8.53603 L 8.28798,-8.42519 L 8.77499,-8.20836 L 9.20627,-7.895 L 9.56299,-7.49884 L 9.82953,-7.03717
 L 9.99426,-6.53017 L 10.05,-6 L 10.05,-0 L 178.236,-0 L 178.236,-6 L 178.291,-6.53017
 L 178.456,-7.03717 L 178.723,-7.49884 L 179.079,-7.895 L 179.511,-8.20836 L 179.998,-8.42519 L 180.519,-8.53603
 L 181.052,-8.53603 L 181.574,-8.42519 L 182.061,-8.20836 L 182.492,-7.895 L 182.849,-7.49884 L 183.115,-7.03717
 L 183.28,-6.53017 L 183.336,-6 L 183.336,-0 L 351.521,-0 L 351.521,-6 L 351.577,-6.53017
 L 351.742,-7.03717 L 352.008,-7.49884 L 352.365,-7.895 L 352.796,-8.20836 L 353.283,-8.42519 L 353.805,-8.53603
 L 354.338,-8.53603 L 354.859,-8.42519 L 355.346,-8.20836 L 355.778,-7.895 L 356.134,-7.49884 L 356.401,-7.03717
 L 356.566,-6.53017 L 356.621,-6 L 356.621,-0 L 524.807,-0 L 524.807,-6 L 524.863,-6.53017
 L 525.028,-7.03717 L 525.294,-7.49884 L 525.651,-7.895 L 526.082,-8.20836 L 526.569,-8.42519 L 527.091,-8.53603
 L 527.624,-8.53603 L 528.145,-8.42519 L 528.632,-8.20836 L 529.063,-7.895 L 529.42,-7.49884 L 529.687,-7.03717
 L 529.851,-6.53017 L 529.907,-6 L 529.907,-0 L 698.093,-0 L 698.093,-6 L 698.149,-6.53017
 L 698.313,-7.03717 L 698.58,-7.49884 L 698.937,-7.895 L 699.368,-8.20836 L 699.855,-8.42519 L 700.376,-8.53603
 L 700.909,-8.53603 L 701.431,-8.42519 L 701.918,-8.20836 L 702.349,-7.895 L 702.706,-7.49884 L 702.972,-7.03717
 L 703.137,-6.53017 L 703.193,-6 L 703.193,-0 L 871.379,-0 L 871.379,-6 L 871.434,-6.53017
 L 871.599,-7.03717 L 871.866,-7.49884 L 872.222,-7.895 L 872.654,-8.20836 L 873.141,-8.42519 L 873.662,-8.53603
 L 874.195,-8.53603 L 874.717,-8.42519 L 875.204,-8.20836 L 875.635,-7.895 L 875.992,-7.49884 L 876.258,-7.03717
 L 876.423,-6.53017 L 876.479,-6 L 876.479,-0 L 1044.66,-0 L 1044.66,-6 L 1044.72,-6.53017
 L 1044.88,-7.03717 L 1045.15,-7.49884 L 1045.51,-7.895 L 1045.94,-8.20836 L 1046.43,-8.42519 L 1046.95,-8.53603
 L 1047.48,-8.53603 L 1048,-8.42519 L 1048.49,-8.20836 L 1048.92,-7.895 L 1049.28,-7.49884 L 1049.54,-7.03717
 L 1049.71,-6.53017 L 1049.76,-6 L 1049.76,-0 L 1217.95,-0 L 1217.95,-6 L 1218.01,-6.53017
 L 1218.17,-7.03717 L 1218.44,-7.49884 L 1218.79,-7.895 L 1219.22,-8.20836 L 1219.71,-8.42519 L 1220.23,-8.53603
 L 1220.77,-8.53603 L 1221.29,-8.42519 L 1221.77,-8.20836 L 1222.21,-7.895 L 1222.56,-7.49884 L 1222.83,-7.03717
 L 1222.99,-6.53017 L 1223.05,-6 L 1223.05,-0 L 1228,-0 z
M 6.98573,-55.607 L 6.47708,-55.6875 L 5.97964,-55.8208 L 5.49887,-56.0054 L 5.04001,-56.2392 L 4.60811,-56.5196
 L 4.20789,-56.8437 L 3.84373,-57.2079 L 3.51964,-57.6081 L 3.23917,-58.04 L 3.00537,-58.4989 L 2.82082,-58.9796
 L 2.68752,-59.4771 L 2.60696,-59.9857 L 2.58,-60.5 L 2.60696,-61.0143 L 2.68752,-61.5229 L 2.82082,-62.0204
 L 3.00537,-62.5011 L 3.23917,-62.96 L 3.51964,-63.3919 L 3.84373,-63.7921 L 4.20789,-64.1563 L 4.60811,-64.4804
 L 4.95001,-64.7024 L 4.95001,-74 L 5.00574,-74.5302 L 5.17047,-75.0372 L 5.43701,-75.4988 L 5.79373,-75.895
 L 6.22501,-76.2084 L 6.71202,-76.4252 L 7.23346,-76.536 L 7.76654,-76.536 L 8.28798,-76.4252 L 8.77499,-76.2084
 L 9.20627,-75.895 L 9.56299,-75.4988 L 9.82953,-75.0372 L 9.99426,-74.5302 L 10.05,-74 L 10.05,-64.7024
 L 10.3919,-64.4804 L 10.7921,-64.1563 L 11.1563,-63.7921 L 11.4804,-63.3919 L 11.7608,-62.96 L 11.9946,-62.5011
 L 12.1792,-62.0204 L 12.3125,-61.5229 L 12.393,-61.0143 L 12.42,-60.5 L 12.393,-59.9857 L 12.3125,-59.4771
 L 12.1792,-58.9796 L 11.9946,-58.4989 L 11.7608,-58.04 L 11.4804,-57.6081 L 11.1563,-57.2079 L 10.7921,-56.8437
 L 10.3919,-56.5196 L 9.95999,-56.2392 L 9.50113,-56.0054 L 9.02036,-55.8208 L 8.52292,-55.6875 L 8.01427,-55.607
 L 7.5,-55.58 z
M 180.271,-55.607 L 179.763,-55.6875 L 179.265,-55.8208 L 178.785,-56.0054 L 178.326,-56.2392 L 177.894,-56.5196
 L 177.494,-56.8437 L 177.129,-57.2079 L 176.805,-57.6081 L 176.525,-58.04 L 176.291,-58.4989 L 176.107,-58.9796
 L 175.973,-59.4771 L 175.893,-59.9857 L 175.866,-60.5 L 175.893,-61.0143 L 175.973,-61.5229 L 176.107,-62.0204
 L 176.291,-62.5011 L 176.525,-62.96 L 176.805,-63.3919 L 177.129,-63.7921 L 177.494,-64.1563 L 177.894,-64.4804
 L 178.236,-64.7024 L 178.236,-74 L 178.291,-74.5302 L 178.456,-75.0372 L 178.723,-75.4988 L 179.079,-75.895
 L 179.511,-76.2084 L 179.998,-76.4252 L 180.519,-76.536 L 181.052,-76.536 L 181.574,-76.4252 L 182.061,-76.2084
 L 182.492,-75.895 L 182.849,-75.4988 L 183.115,-75.0372 L 183.28,-74.5302 L 183.336,-74 L 183.336,-64.7024
 L 183.678,-64.4804 L 184.078,-64.1563 L 184.442,-63.7921 L 184.766,-63.3919 L 185.047,-62.96 L 185.28,-62.5011
 L 185.465,-62.0204 L 185.598,-61.5229 L 185.679,-61.0143 L 185.706,-60.5 L 185.679,-59.9857 L 185.598,-59.4771
 L 185.465,-58.9796 L 185.28,-58.4989 L 185.047,-58.04 L 184.766,-57.6081 L 184.442,-57.2079 L 184.078,-56.8437
 L 183.678,-56.5196 L 183.246,-56.2392 L 182.787,-56.0054 L 182.306,-55.8208 L 181.809,-55.6875 L 181.3,-55.607
 L 180.786,-55.58 z
M 353.557,-55.607 L 353.049,-55.6875 L 352.551,-55.8208 L 352.07,-56.0054 L 351.611,-56.2392 L 351.18,-56.5196
 L 350.779,-56.8437 L 350.415,-57.2079 L 350.091,-57.6081 L 349.811,-58.04 L 349.577,-58.4989 L 349.392,-58.9796
 L 349.259,-59.4771 L 349.178,-59.9857 L 349.151,-60.5 L 349.178,-61.0143 L 349.259,-61.5229 L 349.392,-62.0204
 L 349.577,-62.5011 L 349.811,-62.96 L 350.091,-63.3919 L 350.415,-63.7921 L 350.779,-64.1563 L 351.18,-64.4804
 L 351.521,-64.7024 L 351.521,-74 L 351.577,-74.5302 L 351.742,-75.0372 L 352.008,-75.4988 L 352.365,-75.895
 L 352.796,-76.2084 L 353.283,-76.4252 L 353.805,-76.536 L 354.338,-76.536 L 354.859,-76.4252 L 355.346,-76.2084
 L 355.778,-75.895 L 356.134,-75.4988 L 356.401,-75.0372 L 356.566,-74.5302 L 356.621,-74 L 356.621,-64.7024
 L 356.963,-64.4804 L 357.364,-64.1563 L 357.728,-63.7921 L 358.052,-63.3919 L 358.332,-62.96 L 358.566,-62.5011
 L 358.751,-62.0204 L 358.884,-61.5229 L 358.964,-61.0143 L 358.991,-60.5 L 358.964,-59.9857 L 358.884,-59.4771
 L 358.751,-58.9796 L 358.566,-58.4989 L 358.332,-58.04 L 358.052,-57.6081 L 357.728,-57.2079 L 357.364,-56.8437
 L 356.963,-56.5196 L 356.531,-56.2392 L 356.073,-56.0054 L 355.592,-55.8208 L 355.094,-55.6875 L 354.586,-55.607
 L 354.071,-55.58 z
M 526.843,-55.607 L 526.334,-55.6875 L 525.837,-55.8208 L 525.356,-56.0054 L 524.897,-56.2392 L 524.465,-56.5196
 L 524.065,-56.8437 L 523.701,-57.2079 L 523.377,-57.6081 L 523.096,-58.04 L 522.863,-58.4989 L 522.678,-58.9796
 L 522.545,-59.4771 L 522.464,-59.9857 L 522.437,-60.5 L 522.464,-61.0143 L 522.545,-61.5229 L 522.678,-62.0204
 L 522.863,-62.5011 L 523.096,-62.96 L 523.377,-63.3919 L 523.701,-63.7921 L 524.065,-64.1563 L 524.465,-64.4804
 L 524.807,-64.7024 L 524.807,-74 L 524.863,-74.5302 L 525.028,-75.0372 L 525.294,-75.4988 L 525.651,-75.895
 L 526.082,-76.2084 L 526.569,-76.4252 L 527.091,-76.536 L 527.624,-76.536 L 528.145,-76.4252 L 528.632,-76.2084
 L 529.063,-75.895 L 529.42,-75.4988 L 529.687,-75.0372 L 529.851,-74.5302 L 529.907,-74 L 529.907,-64.7024
 L 530.249,-64.4804 L 530.649,-64.1563 L 531.013,-63.7921 L 531.337,-63.3919 L 531.618,-62.96 L 531.852,-62.5011
 L 532.036,-62.0204 L 532.17,-61.5229 L 532.25,-61.0143 L 532.277,-60.5 L 532.25,-59.9857 L 532.17,-59.4771
 L 532.036,-58.9796 L 531.852,-58.4989 L 531.618,-58.04 L 531.337,-57.6081 L 531.013,-57.2079 L 530.649,-56.8437
 L 530.249,-56.5196 L 529.817,-56.2392 L 529.358,-56.0054 L 528.877,-55.8208 L 528.38,-55.6875 L 527.871,-55.607
 L 527.357,-55.58 z
M 700.129,-55.607 L 699.62,-55.6875 L 699.122,-55.8208 L 698.642,-56.0054 L 698.183,-56.2392 L 697.751,-56.5196
 L 697.351,-56.8437 L 696.987,-57.2079 L 696.662,-57.6081 L 696.382,-58.04 L 696.148,-58.4989 L 695.964,-58.9796
 L 695.83,-59.4771 L 695.75,-59.9857 L 695.723,-60.5 L 695.75,-61.0143 L 695.83,-61.5229 L 695.964,-62.0204
 L 696.148,-62.5011 L 696.382,-62.96 L 696.662,-63.3919 L 696.987,-63.7921 L 697.351,-64.1563 L 697.751,-64.4804
 L 698.093,-64.7024 L 698.093,-74 L 698.149,-74.5302 L 698.313,-75.0372 L 698.58,-75.4988 L 698.937,-75.895
 L 699.368,-76.2084 L 699.855,-76.4252 L 700.376,-76.536 L 700.909,-76.536 L 701.431,-76.4252 L 701.918,-76.2084
 L 702.349,-75.895 L 702.706,-75.4988 L 702.972,-75.0372 L 703.137,-74.5302 L 703.193,-74 L 703.193,-64.7024
 L 703.535,-64.4804 L 703.935,-64.1563 L 704.299,-63.7921 L 704.623,-63.3919 L 704.904,-62.96 L 705.137,-62.5011
 L 705.322,-62.0204 L 705.455,-61.5229 L 705.536,-61.0143 L 705.563,-60.5 L 705.536,-59.9857 L 705.455,-59.4771
 L 705.322,-58.9796 L 705.137,-58.4989 L 704.904,-58.04 L 704.623,-57.6081 L 704.299,-57.2079 L 703.935,-56.8437
 L 703.535,-56.5196 L 703.103,-56.2392 L 702.644,-56.0054 L 702.163,-55.8208 L 701.666,-55.6875 L 701.157,-55.607
 L 700.643,-55.58 z
M 873.414,-55.607 L 872.906,-55.6875 L 872.408,-55.8208 L 871.927,-56.0054 L 871.469,-56.2392 L 871.037,-56.5196
 L 870.636,-56.8437 L 870.272,-57.2079 L 869.948,-57.6081 L 869.668,-58.04 L 869.434,-58.4989 L 869.249,-58.9796
 L 869.116,-59.4771 L 869.036,-59.9857 L 869.009,-60.5 L 869.036,-61.0143 L 869.116,-61.5229 L 869.249,-62.0204
 L 869.434,-62.5011 L 869.668,-62.96 L 869.948,-63.3919 L 870.272,-63.7921 L 870.636,-64.1563 L 871.037,-64.4804
 L 871.379,-64.7024 L 871.379,-74 L 871.434,-74.5302 L 871.599,-75.0372 L 871.866,-75.4988 L 872.222,-75.895
 L 872.654,-76.2084 L 873.141,-76.4252 L 873.662,-76.536 L 874.195,-76.536 L 874.717,-76.4252 L 875.204,-76.2084
 L 875.635,-75.895 L 875.992,-75.4988 L 876.258,-75.0372 L 876.423,-74.5302 L 876.479,-74 L 876.479,-64.7024
 L 876.82,-64.4804 L 877.221,-64.1563 L 877.585,-63.7921 L 877.909,-63.3919 L 878.189,-62.96 L 878.423,-62.5011
 L 878.608,-62.0204 L 878.741,-61.5229 L 878.822,-61.0143 L 878.849,-60.5 L 878.822,-59.9857 L 878.741,-59.4771
 L 878.608,-58.9796 L 878.423,-58.4989 L 878.189,-58.04 L 877.909,-57.6081 L 877.585,-57.2079 L 877.221,-56.8437
 L 876.82,-56.5196 L 876.389,-56.2392 L 875.93,-56.0054 L 875.449,-55.8208 L 874.951,-55.6875 L 874.443,-55.607
 L 873.929,-55.58 z
M 1046.7,-55.607 L 1046.19,-55.6875 L 1045.69,-55.8208 L 1045.21,-56.0054 L 1044.75,-56.2392 L 1044.32,-56.5196
 L 1043.92,-56.8437 L 1043.56,-57.2079 L 1043.23,-57.6081 L 1042.95,-58.04 L 1042.72,-58.4989 L 1042.54,-58.9796
 L 1042.4,-59.4771 L 1042.32,-59.9857 L 1042.29,-60.5 L 1042.32,-61.0143 L 1042.4,-61.5229 L 1042.54,-62.0204
 L 1042.72,-62.5011 L 1042.95,-62.96 L 1043.23,-63.3919 L 1043.56,-63.7921 L 1043.92,-64.1563 L 1044.32,-64.4804
 L 1044.66,-64.7024 L 1044.66,-74 L 1044.72,-74.5302 L 1044.88,-75.0372 L 1045.15,-75.4988 L 1045.51,-75.895
 L 1045.94,-76.2084 L 1046.43,-76.4252 L 1046.95,-76.536 L 1047.48,-76.536 L 1048,-76.4252 L 1048.49,-76.2084
 L 1048.92,-75.895 L 1049.28,-75.4988 L 1049.54,-75.0372 L 1049.71,-74.5302 L 1049.76,-74 L 1049.76,-64.7024
 L 1050.11,-64.4804 L 1050.51,-64.1563 L 1050.87,-63.7921 L 1051.19,-63.3919 L 1051.48,-62.96 L 1051.71,-62.5011
 L 1051.89,-62.0204 L 1052.03,-61.5229 L 1052.11,-61.0143 L 1052.13,-60.5 L 1052.11,-59.9857 L 1052.03,-59.4771
 L 1051.89,-58.9796 L 1051.71,-58.4989 L 1051.48,-58.04 L 1051.19,-57.6081 L 1050.87,-57.2079 L 1050.51,-56.8437
 L 1050.11,-56.5196 L 1049.67,-56.2392 L 1049.22,-56.0054 L 1048.73,-55.8208 L 1048.24,-55.6875 L 1047.73,-55.607
 L 1047.21,-55.58 z
M 1219.99,-55.607 L 1219.48,-55.6875 L 1218.98,-55.8208 L 1218.5,-56.0054 L 1218.04,-56.2392 L 1217.61,-56.5196
 L 1217.21,-56.8437 L 1216.84,-57.2079 L 1216.52,-57.6081 L 1216.24,-58.04 L 1216.01,-58.4989 L 1215.82,-58.9796
 L 1215.69,-59.4771 L 1215.61,-59.9857 L 1215.58,-60.5 L 1215.61,-61.0143 L 1215.69,-61.5229 L 1215.82,-62.0204
 L 1216.01,-62.5011 L 1216.24,-62.96 L 1216.52,-63.3919 L 1216.84,-63.7921 L 1217.21,-64.1563 L 1217.61,-64.4804
 L 1217.95,-64.7024 L 1217.95,-74 L 1218.01,-74.5302 L 1218.17,-75.0372 L 1218.44,-75.4988 L 1218.79,-75.895
 L 1219.23,-76.2084 L 1219.71,-76.4252 L 1220.23,-76.536 L 1220.77,-76.536 L 1221.29,-76.4252 L 1221.77,-76.2084
 L 1222.21,-75.895 L 1222.56,-75.4988 L 1222.83,-75.0372 L 1222.99,-74.5302 L 1223.05,-74 L 1223.05,-64.7024
 L 1223.39,-64.4804 L 1223.79,-64.1563 L 1224.16,-63.7921 L 1224.48,-63.3919 L 1224.76,-62.96 L 1224.99,-62.5011
 L 1225.18,-62.0204 L 1225.31,-61.5229 L 1225.39,-61.0143 L 1225.42,-60.5 L 1225.39,-59.9857 L 1225.31,-59.4771
 L 1225.18,-58.9796 L 1224.99,-58.4989 L 1224.76,-58.04 L 1224.48,-57.6081 L 1224.16,-57.2079 L 1223.79,-56.8437
 L 1223.39,-56.5196 L 1222.96,-56.2392 L 1222.5,-56.0054 L 1222.02,-55.8208 L 1221.52,-55.6875 L 1221.01,-55.607
 L 1220.5,-55.58 z
M 712.636,-21.1811 L 711.853,-21.475 L 711.149,-21.9252 L 710.553,-22.5121 L 710.092,-23.21 L 709.787,-23.9884
 L 709.643,-25.0524 L 709.643,-58 L 709.73,-58.8316 L 709.989,-59.627 L 710.407,-60.3511 L 710.966,-60.9726
 L 711.643,-61.4641 L 712.407,-61.8042 L 713.643,-62 L 797.604,-62 L 798.435,-61.9126 L 799.231,-61.6542
 L 799.955,-61.2361 L 800.576,-60.6765 L 801.068,-60 L 801.408,-59.2361 L 801.582,-58.4181 L 801.582,-57.5819
 L 801.408,-56.7639 L 801.068,-56 L 800.576,-55.3235 L 799.955,-54.7639 L 799.065,-54.2764 L 715.104,-21.3288
 L 714.298,-21.1064 L 713.463,-21.0565 z
M 613.345,-47.8587 L 612.539,-48.0811 L 596.751,-54.2764 L 595.861,-54.7639 L 595.24,-55.3235 L 594.748,-56
 L 594.408,-56.7639 L 594.234,-57.5819 L 594.234,-58.4181 L 594.408,-59.2361 L 594.748,-60 L 595.24,-60.6765
 L 595.861,-61.2361 L 596.585,-61.6542 L 597.381,-61.9126 L 598.212,-62 L 629.788,-62 L 630.794,-61.8713
 L 631.577,-61.5774 L 632.282,-61.1272 L 632.877,-60.5403 L 633.338,-59.8424 L 633.643,-59.064 L 633.78,-58.239
 L 633.743,-57.4036 L 633.532,-56.5943 L 633.158,-55.8464 L 632.637,-55.1927 L 631.991,-54.6616 L 631.249,-54.2764
 L 615.461,-48.0811 L 615.007,-47.9334 L 614.18,-47.8087 z
M 513.702,-21.1064 L 512.896,-21.3288 L 428.935,-54.2764 L 428.045,-54.7639 L 427.424,-55.3235 L 426.932,-56
 L 426.592,-56.7639 L 426.418,-57.5819 L 426.418,-58.4181 L 426.592,-59.2361 L 426.932,-60 L 427.424,-60.6765
 L 428.045,-61.2361 L 428.769,-61.6542 L 429.565,-61.9126 L 430.396,-62 L 514.357,-62 L 515.593,-61.8042
 L 516.357,-61.4641 L 517.034,-60.9726 L 517.593,-60.3511 L 518.011,-59.627 L 518.27,-58.8316 L 518.357,-58
 L 518.357,-25.0524 L 518.213,-23.9884 L 517.908,-23.21 L 517.447,-22.5121 L 516.851,-21.9252 L 516.147,-21.475
 L 515.364,-21.1811 L 514.537,-21.0565 z
M 340.416,-21.1064 L 339.61,-21.3288 L 255.649,-54.2764 L 254.759,-54.7639 L 254.138,-55.3235 L 253.646,-56
 L 253.306,-56.7639 L 253.132,-57.5819 L 253.132,-58.4181 L 253.306,-59.2361 L 253.646,-60 L 254.138,-60.6765
 L 254.759,-61.2361 L 255.483,-61.6542 L 256.279,-61.9126 L 257.11,-62 L 341.071,-62 L 342.307,-61.8042
 L 343.071,-61.4641 L 343.748,-60.9726 L 344.307,-60.3511 L 344.726,-59.627 L 344.984,-58.8316 L 345.071,-58
 L 345.071,-25.0524 L 344.927,-23.9884 L 344.622,-23.21 L 344.161,-22.5121 L 343.566,-21.9252 L 342.861,-21.475
 L 342.078,-21.1811 L 341.251,-21.0565 z
M 1059.21,-21.1811 L 1058.42,-21.475 L 1057.72,-21.9252 L 1057.12,-22.5121 L 1056.66,-23.21 L 1056.36,-23.9884
 L 1056.21,-25.0524 L 1056.21,-58 L 1056.3,-58.8316 L 1056.56,-59.627 L 1056.98,-60.3511 L 1057.54,-60.9726
 L 1058.21,-61.4641 L 1058.98,-61.8042 L 1060.21,-62 L 1144.18,-62 L 1145.01,-61.9126 L 1145.8,-61.6542
 L 1146.53,-61.2361 L 1147.15,-60.6765 L 1147.64,-60 L 1147.98,-59.2361 L 1148.15,-58.4181 L 1148.15,-57.5819
 L 1147.98,-56.7639 L 1147.64,-56 L 1147.15,-55.3235 L 1146.53,-54.7639 L 1145.64,-54.2764 L 1061.68,-21.3288
 L 1060.87,-21.1064 L 1060.03,-21.0565 z
M 167.131,-21.1064 L 166.325,-21.3288 L 82.3636,-54.2764 L 81.4736,-54.7639 L 80.8522,-55.3235 L 80.3606,-56
 L 80.0205,-56.7639 L 79.8466,-57.5819 L 79.8466,-58.4181 L 80.0205,-59.2361 L 80.3606,-60 L 80.8522,-60.6765
 L 81.4736,-61.2361 L 82.1978,-61.6542 L 82.9931,-61.9126 L 83.8247,-62 L 167.786,-62 L 169.022,-61.8042
 L 169.786,-61.4641 L 170.462,-60.9726 L 171.022,-60.3511 L 171.44,-59.627 L 171.698,-58.8316 L 171.786,-58
 L 171.786,-25.0524 L 171.642,-23.9884 L 171.336,-23.21 L 170.875,-22.5121 L 170.28,-21.9252 L 169.575,-21.475
 L 168.792,-21.1811 L 167.965,-21.0565 z
M 885.922,-21.1811 L 885.139,-21.475 L 884.434,-21.9252 L 883.839,-22.5121 L 883.378,-23.21 L 883.073,-23.9884
 L 882.929,-25.0524 L 882.929,-58 L 883.016,-58.8316 L 883.274,-59.627 L 883.693,-60.3511 L 884.252,-60.9726
 L 884.929,-61.4641 L 885.693,-61.8042 L 886.929,-62 L 970.89,-62 L 971.721,-61.9126 L 972.516,-61.6542
 L 973.241,-61.2361 L 973.862,-60.6765 L 974.354,-60 L 974.694,-59.2361 L 974.868,-58.4181 L 974.868,-57.5819
 L 974.694,-56.7639 L 974.354,-56 L 973.862,-55.3235 L 973.241,-54.7639 L 972.351,-54.2764 L 888.39,-21.3288
 L 887.584,-21.1064 L 886.749,-21.0565 z
M 539.939,-18.928 L 539.121,-19.1019 L 538.357,-19.442 L 537.681,-19.9335 L 537.121,-20.555 L 536.703,-21.2792
 L 536.445,-22.0745 L 536.357,-22.9061 L 536.357,-57.0939 L 536.501,-58.1579 L 536.807,-58.9363 L 537.267,-59.6342
 L 537.863,-60.2211 L 538.568,-60.6713 L 539.351,-60.9652 L 540.177,-61.0898 L 541.012,-61.0399 L 541.818,-60.8175
 L 585.379,-43.7236 L 586.412,-43.1272 L 587.008,-42.5403 L 587.468,-41.8424 L 587.774,-41.064 L 587.911,-40.239
 L 587.873,-39.4036 L 587.663,-38.5943 L 587.289,-37.8464 L 586.767,-37.1927 L 586.121,-36.6616 L 585.379,-36.2764
 L 541.818,-19.1825 L 540.775,-18.928 z
M 686.988,-18.9601 L 686.182,-19.1825 L 642.621,-36.2764 L 641.588,-36.8728 L 640.992,-37.4597 L 640.532,-38.1576
 L 640.226,-38.936 L 640.089,-39.761 L 640.127,-40.5964 L 640.337,-41.4057 L 640.711,-42.1536 L 641.233,-42.8073
 L 641.879,-43.3384 L 642.621,-43.7236 L 686.182,-60.8175 L 687.225,-61.072 L 688.061,-61.072 L 688.879,-60.8981
 L 689.643,-60.558 L 690.319,-60.0665 L 690.879,-59.445 L 691.297,-58.7208 L 691.555,-57.9255 L 691.643,-57.0939
 L 691.643,-22.9061 L 691.499,-21.8421 L 691.193,-21.0637 L 690.733,-20.3658 L 690.137,-19.7789 L 689.432,-19.3287
 L 688.649,-19.0348 L 687.822,-18.9102 z
M 193.786,-18 L 192.55,-18.1958 L 191.786,-18.5359 L 191.109,-19.0274 L 190.55,-19.6489 L 190.132,-20.373
 L 189.873,-21.1684 L 189.786,-22 L 189.786,-54.9476 L 189.93,-56.0115 L 190.235,-56.79 L 190.696,-57.4879
 L 191.292,-58.0748 L 191.996,-58.525 L 192.779,-58.8189 L 193.606,-58.9435 L 194.441,-58.8936 L 195.247,-58.6711
 L 279.208,-25.7236 L 280.098,-25.2361 L 280.719,-24.6765 L 281.211,-24 L 281.551,-23.2361 L 281.725,-22.4181
 L 281.725,-21.5819 L 281.551,-20.7639 L 281.211,-20 L 280.719,-19.3235 L 280.098,-18.7639 L 279.374,-18.3458
 L 278.578,-18.0874 L 277.747,-18 z
M 367.071,-18 L 365.835,-18.1958 L 365.071,-18.5359 L 364.395,-19.0274 L 363.835,-19.6489 L 363.417,-20.373
 L 363.159,-21.1684 L 363.071,-22 L 363.071,-54.9476 L 363.216,-56.0115 L 363.521,-56.79 L 363.982,-57.4879
 L 364.577,-58.0748 L 365.282,-58.525 L 366.065,-58.8189 L 366.892,-58.9435 L 367.727,-58.8936 L 368.533,-58.6711
 L 452.494,-25.7236 L 453.384,-25.2361 L 454.005,-24.6765 L 454.496,-24 L 454.837,-23.2361 L 455.01,-22.4181
 L 455.01,-21.5819 L 454.837,-20.7639 L 454.496,-20 L 454.005,-19.3235 L 453.384,-18.7639 L 452.659,-18.3458
 L 451.864,-18.0874 L 451.032,-18 z
M 776.968,-18 L 776.136,-18.0874 L 775.341,-18.3458 L 774.616,-18.7639 L 773.995,-19.3235 L 773.504,-20
 L 773.163,-20.7639 L 772.99,-21.5819 L 772.99,-22.4181 L 773.163,-23.2361 L 773.504,-24 L 773.995,-24.6765
 L 774.616,-25.2361 L 775.506,-25.7236 L 859.467,-58.6711 L 860.273,-58.8936 L 861.108,-58.9435 L 861.935,-58.8189
 L 862.718,-58.525 L 863.423,-58.0748 L 864.018,-57.4879 L 864.479,-56.79 L 864.784,-56.0115 L 864.929,-54.9476
 L 864.929,-22 L 864.841,-21.1684 L 864.583,-20.373 L 864.165,-19.6489 L 863.605,-19.0274 L 862.929,-18.5359
 L 862.165,-18.1958 L 860.929,-18 z
M 950.253,-18 L 949.422,-18.0874 L 948.626,-18.3458 L 947.902,-18.7639 L 947.281,-19.3235 L 946.789,-20
 L 946.449,-20.7639 L 946.275,-21.5819 L 946.275,-22.4181 L 946.449,-23.2361 L 946.789,-24 L 947.281,-24.6765
 L 947.902,-25.2361 L 948.792,-25.7236 L 1032.75,-58.6711 L 1033.56,-58.8936 L 1034.39,-58.9435 L 1035.22,-58.8189
 L 1036,-58.525 L 1036.71,-58.0748 L 1037.3,-57.4879 L 1037.76,-56.79 L 1038.07,-56.0115 L 1038.21,-54.9476
 L 1038.21,-22 L 1038.13,-21.1684 L 1037.87,-20.373 L 1037.45,-19.6489 L 1036.89,-19.0274 L 1036.21,-18.5359
 L 1035.45,-18.1958 L 1034.21,-18 z
M 22,-18 L 20.7639,-18.1958 L 20,-18.5359 L 19.3235,-19.0274 L 18.7639,-19.6489 L 18.3458,-20.373
 L 18.0874,-21.1684 L 18,-22 L 18,-54.3589 L 18.1441,-55.4229 L 18.4496,-56.2013 L 18.9102,-56.8993
 L 19.5059,-57.4862 L 20.2106,-57.9364 L 20.9935,-58.2302 L 21.8203,-58.3549 L 22.6551,-58.3049 L 23.4612,-58.0825
 L 105.922,-25.7236 L 106.812,-25.2361 L 107.434,-24.6765 L 107.925,-24 L 108.265,-23.2361 L 108.439,-22.4181
 L 108.439,-21.5819 L 108.265,-20.7639 L 107.925,-20 L 107.434,-19.3235 L 106.812,-18.7639 L 106.088,-18.3458
 L 105.293,-18.0874 L 104.461,-18 z
M 1123.54,-18 L 1122.71,-18.0874 L 1121.91,-18.3458 L 1121.19,-18.7639 L 1120.57,-19.3235 L 1120.07,-20
 L 1119.73,-20.7639 L 1119.56,-21.5819 L 1119.56,-22.4181 L 1119.73,-23.2361 L 1120.07,-24 L 1120.57,-24.6765
 L 1121.19,-25.2361 L 1122.08,-25.7236 L 1204.54,-58.0825 L 1205.34,-58.3049 L 1206.18,-58.3549 L 1207.01,-58.2302
 L 1207.79,-57.9364 L 1208.49,-57.4862 L 1209.09,-56.8993 L 1209.55,-56.2013 L 1209.86,-55.4229 L 1210,-54.3589
 L 1210,-22 L 1209.91,-21.1684 L 1209.65,-20.373 L 1209.24,-19.6489 L 1208.68,-19.0274 L 1208,-18.5359
 L 1207.24,-18.1958 L 1206,-18 z
M 598.212,-18 L 597.206,-18.1287 L 596.423,-18.4226 L 595.718,-18.8728 L 595.123,-19.4597 L 594.662,-20.1576
 L 594.356,-20.936 L 594.22,-21.761 L 594.257,-22.5964 L 594.468,-23.4057 L 594.842,-24.1536 L 595.363,-24.8073
 L 596.009,-25.3384 L 596.751,-25.7236 L 612.539,-31.9189 L 612.993,-32.0666 L 613.82,-32.1913 L 614.655,-32.1413
 L 615.461,-31.9189 L 631.249,-25.7236 L 632.139,-25.2361 L 632.76,-24.6765 L 633.252,-24 L 633.592,-23.2361
 L 633.766,-22.4181 L 633.766,-21.5819 L 633.592,-20.7639 L 633.252,-20 L 632.76,-19.3235 L 632.139,-18.7639
 L 631.415,-18.3458 L 630.619,-18.0874 L 629.788,-18 z
" stroke="black" fill="lightgray" stroke-width="0.5"/>
</svg>
