<?xml version="1.0" standalone="no"?>
<!DOCTYPE svg PUBLIC "-//W3C//DTD SVG 1.1//EN" "http://www.w3.org/Graphics/SVG/1.1/DTD/svg11.dtd">
<svg width="1433mm" height="80mm" viewBox="0 -80 1433 80" xmlns="http://www.w3.org/2000/svg" version="1.1">
<title>OpenSCAD Model</title>
<path d="
M 1433,-80 L 0,-80 L 0,-0 L 4.95,-0 L 4.95,-6 L 5.00572,-6.53017
 L 5.17046,-7.03717 L 5.437,-7.49884 L 5.79372,-7.895 L 6.22499,-8.20836 L 6.71201,-8.42519 L 7.23344,-8.53603
 L 7.76654,-8.53603 L 8.28798,-8.42519 L 8.77499,-8.20836 L 9.20627,-7.895 L 9.56299,-7.49884 L 9.82953,-7.03717
 L 9.99426,-6.53017 L 10.05,-6 L 10.05,-0 L 182.2,-0 L 182.2,-6 L 182.256,-6.53017
 L 182.42,-7.03717 L 182.687,-7.49884 L 183.044,-7.895 L 183.475,-8.20836 L 183.962,-8.42519 L 184.483,-8.53603
 L 185.017,-8.53603 L 185.538,-8.42519 L 186.025,-8.20836 L 186.456,-7.895 L 186.813,-7.49884 L 187.08,-7.03717
 L 187.244,-6.53017 L 187.3,-6 L 187.3,-0 L 359.45,-0 L 359.45,-6 L 359.506,-6.53017
 L 359.67,-7.03717 L 359.937,-7.49884 L 360.294,-7.895 L 360.725,-8.20836 L 361.212,-8.42519 L 361.733,-8.53603
 L 362.267,-8.53603 L 362.788,-8.42519 L 363.275,-8.20836 L 363.706,-7.895 L 364.063,-7.49884 L 364.33,-7.03717
 L 364.494,-6.53017 L 364.55,-6 L 364.55,-0 L 536.7,-0 L 536.7,-6 L 536.756,-6.53017
 L 536.92,-7.03717 L 537.187,-7.49884 L 537.544,-7.895 L 537.975,-8.20836 L 538.462,-8.42519 L 538.983,-8.53603
 L 539.517,-8.53603 L 540.038,-8.42519 L 540.525,-8.20836 L 540.956,-7.895 L 541.313,-7.49884 L 541.58,-7.03717
 L 541.744,-6.53017 L 541.8,-6 L 541.8,-0 L 713.95,-0 L 713.95,-6 L 714.006,-6.53017
 L 714.17,-7.03717 L 714.437,-7.49884 L 714.794,-7.895 L 715.225,-8.20836 L 715.712,-8.42519 L 716.233,-8.53603
 L 716.767,-8.53603 L 717.288,-8.42519 L 717.775,-8.20836 L 718.206,-7.895 L 718.563,-7.49884 L 718.83,-7.03717
 L 718.994,-6.53017 L 719.05,-6 L 719.05,-0 L 891.2,-0 L 891.2,-6 L 891.256,-6.53017
 L 891.42,-7.03717 L 891.687,-7.49884 L 892.044,-7.895 L 892.475,-8.20836 L 892.962,-8.42519 L 893.483,-8.53603
 L 894.017,-8.53603 L 894.538,-8.42519 L 895.025,-8.20836 L 895.456,-7.895 L 895.813,-7.49884 L 896.08,-7.03717
 L 896.244,-6.53017 L 896.3,-6 L 896.3,-0 L 1068.45,-0 L 1068.45,-6 L 1068.51,-6.53017
 L 1068.67,-7.03717 L 1068.94,-7.49884 L 1069.29,-7.895 L 1069.72,-8.20836 L 1070.21,-8.42519 L 1070.73,-8.53603
 L 1071.27,-8.53603 L 1071.79,-8.42519 L 1072.27,-8.20836 L 1072.71,-7.895 L 1073.06,-7.49884 L 1073.33,-7.03717
 L 1073.49,-6.53017 L 1073.55,-6 L 1073.55,-0 L 1245.7,-0 L 1245.7,-6 L 1245.76,-6.53017
 L 1245.92,-7.03717 L 1246.19,-7.49884 L 1246.54,-7.895 L 1246.97,-8.20836 L 1247.46,-8.42519 L 1247.98,-8.53603
 L 1248.52,-8.53603 L 1249.04,-8.42519 L 1249.52,-8.20836 L 1249.96,-7.895 L 1250.31,-7.49884 L 1250.58,-7.03717
 L 1250.74,-6.53017 L 1250.8,-6 L 1250.8,-0 L 1422.95,-0 L 1422.95,-6 L 1423.01,-6.53017
 L 1423.17,-7.03717 L 1423.44,-7.49884 L 1423.79,-7.895 L 1424.22,-8.20836 L 1424.71,-8.42519 L 1425.23,-8.53603
 L 1425.77,-8.53603 L 1426.29,-8.42519 L 1426.77,-8.20836 L 1427.21,-7.895 L 1427.56,-7.49884 L 1427.83,-7.03717
 L 1427.99,-6.53017 L 1428.05,-6 L 1428.05,-0 L 1433,-0 z
M 184.236,-55.607 L 183.727,-55.6875 L 183.23,-55.8208 L 182.749,-56.0054 L 182.29,-56.2392 L 181.858,-56.5196
 L 181.458,-56.8437 L 181.094,-57.2079 L 180.77,-57.6081 L 180.489,-58.04 L 180.255,-58.4989 L 180.071,-58.9796
 L 179.938,-59.4771 L 179.857,-59.9857 L 179.83,-60.5 L 179.857,-61.0143 L 179.938,-61.5229 L 180.071,-62.0204
 L 180.255,-62.5011 L 180.489,-62.96 L 180.77,-63.3919 L 181.094,-63.7921 L 181.458,-64.1563 L 181.858,-64.4804
 L 182.2,-64.7024 L 182.2,-74 L 182.256,-74.5302 L 182.42,-75.0372 L 182.687,-75.4988 L 183.044,-75.895
 L 183.475,-76.2084 L 183.962,-76.4252 L 184.483,-76.536 L 185.017,-76.536 L 185.538,-76.4252 L 186.025,-76.2084
 L 186.456,-75.895 L 186.813,-75.4988 L 187.08,-75.0372 L 187.244,-74.5302 L 187.3,-74 L 187.3,-64.7024
 L 187.642,-64.4804 L 188.042,-64.1563 L 188.406,-63.7921 L 188.73,-63.3919 L 189.011,-62.96 L 189.245,-62.5011
 L 189.429,-62.0204 L 189.562,-61.5229 L 189.643,-61.0143 L 189.67,-60.5 L 189.643,-59.9857 L 189.562,-59.4771
 L 189.429,-58.9796 L 189.245,-58.4989 L 189.011,-58.04 L 188.73,-57.6081 L 188.406,-57.2079 L 188.042,-56.8437
 L 187.642,-56.5196 L 187.21,-56.2392 L 186.751,-56.0054 L 186.27,-55.8208 L 185.773,-55.6875 L 185.264,-55.607
 L 184.75,-55.58 z
M 1070.49,-55.607 L 1069.98,-55.6875 L 1069.48,-55.8208 L 1069,-56.0054 L 1068.54,-56.2392 L 1068.11,-56.5196
 L 1067.71,-56.8437 L 1067.34,-57.2079 L 1067.02,-57.6081 L 1066.74,-58.04 L 1066.51,-58.4989 L 1066.32,-58.9796
 L 1066.19,-59.4771 L 1066.11,-59.9857 L 1066.08,-60.5 L 1066.11,-61.0143 L 1066.19,-61.5229 L 1066.32,-62.0204
 L 1066.51,-62.5011 L 1066.74,-62.96 L 1067.02,-63.3919 L 1067.34,-63.7921 L 1067.71,-64.1563 L 1068.11,-64.4804
 L 1068.45,-64.7024 L 1068.45,-74 L 1068.51,-74.5302 L 1068.67,-75.0372 L 1068.94,-75.4988 L 1069.29,-75.895
 L 1069.73,-76.2084 L 1070.21,-76.4252 L 1070.73,-76.536 L 1071.27,-76.536 L 1071.79,-76.4252 L 1072.27,-76.2084
 L 1072.71,-75.895 L 1073.06,-75.4988 L 1073.33,-75.0372 L 1073.49,-74.5302 L 1073.55,-74 L 1073.55,-64.7024
 L 1073.89,-64.4804 L 1074.29,-64.1563 L 1074.66,-63.7921 L 1074.98,-63.3919 L 1075.26,-62.96 L 1075.49,-62.5011
 L 1075.68,-62.0204 L 1075.81,-61.5229 L 1075.89,-61.0143 L 1075.92,-60.5 L 1075.89,-59.9857 L 1075.81,-59.4771
 L 1075.68,-58.9796 L 1075.49,-58.4989 L 1075.26,-58.04 L 1074.98,-57.6081 L 1074.66,-57.2079 L 1074.29,-56.8437
 L 1073.89,-56.5196 L 1073.46,-56.2392 L 1073,-56.0054 L 1072.52,-55.8208 L 1072.02,-55.6875 L 1071.51,-55.607
 L 1071,-55.58 z
M 893.236,-55.607 L 892.727,-55.6875 L 892.23,-55.8208 L 891.749,-56.0054 L 891.29,-56.2392 L 890.858,-56.5196
 L 890.458,-56.8437 L 890.094,-57.2079 L 889.77,-57.6081 L 889.489,-58.04 L 889.255,-58.4989 L 889.071,-58.9796
 L 888.938,-59.4771 L 888.857,-59.9857 L 888.83,-60.5 L 888.857,-61.0143 L 888.938,-61.5229 L 889.071,-62.0204
 L 889.255,-62.5011 L 889.489,-62.96 L 889.77,-63.3919 L 890.094,-63.7921 L 890.458,-64.1563 L 890.858,-64.4804
 L 891.2,-64.7024 L 891.2,-74 L 891.256,-74.5302 L 891.42,-75.0372 L 891.687,-75.4988 L 892.044,-75.895
 L 892.475,-76.2084 L 892.962,-76.4252 L 893.483,-76.536 L 894.017,-76.536 L 894.538,-76.4252 L 895.025,-76.2084
 L 895.456,-75.895 L 895.813,-75.4988 L 896.08,-75.0372 L 896.244,-74.5302 L 896.3,-74 L 896.3,-64.7024
 L 896.642,-64.4804 L 897.042,-64.1563 L 897.406,-63.7921 L 897.73,-63.3919 L 898.011,-62.96 L 898.245,-62.5011
 L 898.429,-62.0204 L 898.562,-61.5229 L 898.643,-61.0143 L 898.67,-60.5 L 898.643,-59.9857 L 898.562,-59.4771
 L 898.429,-58.9796 L 898.245,-58.4989 L 898.011,-58.04 L 897.73,-57.6081 L 897.406,-57.2079 L 897.042,-56.8437
 L 896.642,-56.5196 L 896.21,-56.2392 L 895.751,-56.0054 L 895.27,-55.8208 L 894.773,-55.6875 L 894.264,-55.607
 L 893.75,-55.58 z
M 6.98573,-55.607 L 6.47708,-55.6875 L 5.97964,-55.8208 L 5.49887,-56.0054 L 5.04001,-56.2392 L 4.60811,-56.5196
 L 4.20789,-56.8437 L 3.84373,-57.2079 L 3.51964,-57.6081 L 3.23917,-58.04 L 3.00537,-58.4989 L 2.82082,-58.9796
 L 2.68752,-59.4771 L 2.60696,-59.9857 L 2.58,-60.5 L 2.60696,-61.0143 L 2.68752,-61.5229 L 2.82082,-62.0204
 L 3.00537,-62.5011 L 3.23917,-62.96 L 3.51964,-63.3919 L 3.84373,-63.7921 L 4.20789,-64.1563 L 4.60811,-64.4804
 L 4.95001,-64.7024 L 4.95001,-74 L 5.00574,-74.5302 L 5.17047,-75.0372 L 5.43701,-75.4988 L 5.79373,-75.895
 L 6.22501,-76.2084 L 6.71202,-76.4252 L 7.23346,-76.536 L 7.76654,-76.536 L 8.28798,-76.4252 L 8.77499,-76.2084
 L 9.20627,-75.895 L 9.56299,-75.4988 L 9.82953,-75.0372 L 9.99426,-74.5302 L 10.05,-74 L 10.05,-64.7024
 L 10.3919,-64.4804 L 10.7921,-64.1563 L 11.1563,-63.7921 L 11.4804,-63.3919 L 11.7608,-62.96 L 11.9946,-62.5011
 L 12.1792,-62.0204 L 12.3125,-61.5229 L 12.393,-61.0143 L 12.42,-60.5 L 12.393,-59.9857 L 12.3125,-59.4771
 L 12.1792,-58.9796 L 11.9946,-58.4989 L 11.7608,-58.04 L 11.4804,-57.6081 L 11.1563,-57.2079 L 10.7921,-56.8437
 L 10.3919,-56.5196 L 9.95999,-56.2392 L 9.50113,-56.0054 L 9.02036,-55.8208 L 8.52292,-55.6875 L 8.01427,-55.607
 L 7.5,-55.58 z
M 715.986,-55.607 L 715.477,-55.6875 L 714.98,-55.8208 L 714.499,-56.0054 L 714.04,-56.2392 L 713.608,-56.5196
 L 713.208,-56.8437 L 712.844,-57.2079 L 712.52,-57.6081 L 712.239,-58.04 L 712.005,-58.4989 L 711.821,-58.9796
 L 711.688,-59.4771 L 711.607,-59.9857 L 711.58,-60.5 L 711.607,-61.0143 L 711.688,-61.5229 L 711.821,-62.0204
 L 712.005,-62.5011 L 712.239,-62.96 L 712.52,-63.3919 L 712.844,-63.7921 L 713.208,-64.1563 L 713.608,-64.4804
 L 713.95,-64.7024 L 713.95,-74 L 714.006,-74.5302 L 714.17,-75.0372 L 714.437,-75.4988 L 714.794,-75.895
 L 715.225,-76.2084 L 715.712,-76.4252 L 716.233,-76.536 L 716.767,-76.536 L 717.288,-76.4252 L 717.775,-76.2084
 L 718.206,-75.895 L 718.563,-75.4988 L 718.83,-75.0372 L 718.994,-74.5302 L 719.05,-74 L 719.05,-64.7024
 L 719.392,-64.4804 L 719.792,-64.1563 L 720.156,-63.7921 L 720.48,-63.3919 L 720.761,-62.96 L 720.995,-62.5011
 L 721.179,-62.0204 L 721.312,-61.5229 L 721.393,-61.0143 L 721.42,-60.5 L 721.393,-59.9857 L 721.312,-59.4771
 L 721.179,-58.9796 L 720.995,-58.4989 L 720.761,-58.04 L 720.48,-57.6081 L 720.156,-57.2079 L 719.792,-56.8437
 L 719.392,-56.5196 L 718.96,-56.2392 L 718.501,-56.0054 L 718.02,-55.8208 L 717.523,-55.6875 L 717.014,-55.607
 L 716.5,-55.58 z
M 1247.74,-55.607 L 1247.23,-55.6875 L 1246.73,-55.8208 L 1246.25,-56.0054 L 1245.79,-56.2392 L 1245.36,-56.5196
 L 1244.96,-56.8437 L 1244.59,-57.2079 L 1244.27,-57.6081 L 1243.99,-58.04 L 1243.76,-58.4989 L 1243.57,-58.9796
 L 1243.44,-59.4771 L 1243.36,-59.9857 L 1243.33,-60.5 L 1243.36,-61.0143 L 1243.44,-61.5229 L 1243.57,-62.0204
 L 1243.76,-62.5011 L 1243.99,-62.96 L 1244.27,-63.3919 L 1244.59,-63.7921 L 1244.96,-64.1563 L 1245.36,-64.4804
 L 1245.7,-64.7024 L 1245.7,-74 L 1245.76,-74.5302 L 1245.92,-75.0372 L 1246.19,-75.4988 L 1246.54,-75.895
 L 1246.98,-76.2084 L 1247.46,-76.4252 L 1247.98,-76.536 L 1248.52,-76.536 L 1249.04,-76.4252 L 1249.52,-76.2084
 L 1249.96,-75.895 L 1250.31,-75.4988 L 1250.58,-75.0372 L 1250.74,-74.5302 L 1250.8,-74 L 1250.8,-64.7024
 L 1251.14,-64.4804 L 1251.54,-64.1563 L 1251.91,-63.7921 L 1252.23,-63.3919 L 1252.51,-62.96 L 1252.74,-62.5011
 L 1252.93,-62.0204 L 1253.06,-61.5229 L 1253.14,-61.0143 L 1253.17,-60.5 L 1253.14,-59.9857 L 1253.06,-59.4771
 L 1252.93,-58.9796 L 1252.74,-58.4989 L 1252.51,-58.04 L 1252.23,-57.6081 L 1251.91,-57.2079 L 1251.54,-56.8437
 L 1251.14,-56.5196 L 1250.71,-56.2392 L 1250.25,-56.0054 L 1249.77,-55.8208 L 1249.27,-55.6875 L 1248.76,-55.607
 L 1248.25,-55.58 z
M 538.736,-55.607 L 538.227,-55.6875 L 537.73,-55.8208 L 537.249,-56.0054 L 536.79,-56.2392 L 536.358,-56.5196
 L 535.958,-56.8437 L 535.594,-57.2079 L 535.27,-57.6081 L 534.989,-58.04 L 534.755,-58.4989 L 534.571,-58.9796
 L 534.438,-59.4771 L 534.357,-59.9857 L 534.33,-60.5 L 534.357,-61.0143 L 534.438,-61.5229 L 534.571,-62.0204
 L 534.755,-62.5011 L 534.989,-62.96 L 535.27,-63.3919 L 535.594,-63.7921 L 535.958,-64.1563 L 536.358,-64.4804
 L 536.7,-64.7024 L 536.7,-74 L 536.756,-74.5302 L 536.92,-75.0372 L 537.187,-75.4988 L 537.544,-75.895
 L 537.975,-76.2084 L 538.462,-76.4252 L 538.983,-76.536 L 539.517,-76.536 L 540.038,-76.4252 L 540.525,-76.2084
 L 540.956,-75.895 L 541.313,-75.4988 L 541.58,-75.0372 L 541.744,-74.5302 L 541.8,-74 L 541.8,-64.7024
 L 542.142,-64.4804 L 542.542,-64.1563 L 542.906,-63.7921 L 543.23,-63.3919 L 543.511,-62.96 L 543.745,-62.5011
 L 543.929,-62.0204 L 544.062,-61.5229 L 544.143,-61.0143 L 544.17,-60.5 L 544.143,-59.9857 L 544.062,-59.4771
 L 543.929,-58.9796 L 543.745,-58.4989 L 543.511,-58.04 L 543.23,-57.6081 L 542.906,-57.2079 L 542.542,-56.8437
 L 542.142,-56.5196 L 541.71,-56.2392 L 541.251,-56.0054 L 540.77,-55.8208 L 540.273,-55.6875 L 539.764,-55.607
 L 539.25,-55.58 z
M 361.486,-55.607 L 360.977,-55.6875 L 360.48,-55.8208 L 359.999,-56.0054 L 359.54,-56.2392 L 359.108,-56.5196
 L 358.708,-56.8437 L 358.344,-57.2079 L 358.02,-57.6081 L 357.739,-58.04 L 357.505,-58.4989 L 357.321,-58.9796
 L 357.188,-59.4771 L 357.107,-59.9857 L 357.08,-60.5 L 357.107,-61.0143 L 357.188,-61.5229 L 357.321,-62.0204
 L 357.505,-62.5011 L 357.739,-62.96 L 358.02,-63.3919 L 358.344,-63.7921 L 358.708,-64.1563 L 359.108,-64.4804
 L 359.45,-64.7024 L 359.45,-74 L 359.506,-74.5302 L 359.67,-75.0372 L 359.937,-75.4988 L 360.294,-75.895
 L 360.725,-76.2084 L 361.212,-76.4252 L 361.733,-76.536 L 362.267,-76.536 L 362.788,-76.4252 L 363.275,-76.2084
 L 363.706,-75.895 L 364.063,-75.4988 L 364.33,-75.0372 L 364.494,-74.5302 L 364.55,-74 L 364.55,-64.7024
 L 364.892,-64.4804 L 365.292,-64.1563 L 365.656,-63.7921 L 365.98,-63.3919 L 366.261,-62.96 L 366.495,-62.5011
 L 366.679,-62.0204 L 366.812,-61.5229 L 366.893,-61.0143 L 366.92,-60.5 L 366.893,-59.9857 L 366.812,-59.4771
 L 366.679,-58.9796 L 366.495,-58.4989 L 366.261,-58.04 L 365.98,-57.6081 L 365.656,-57.2079 L 365.292,-56.8437
 L 364.892,-56.5196 L 364.46,-56.2392 L 364.001,-56.0054 L 363.52,-55.8208 L 363.023,-55.6875 L 362.514,-55.607
 L 362,-55.58 z
M 1424.99,-55.607 L 1424.48,-55.6875 L 1423.98,-55.8208 L 1423.5,-56.0054 L 1423.04,-56.2392 L 1422.61,-56.5196
 L 1422.21,-56.8437 L 1421.84,-57.2079 L 1421.52,-57.6081 L 1421.24,-58.04 L 1421.01,-58.4989 L 1420.82,-58.9796
 L 1420.69,-59.4771 L 1420.61,-59.9857 L 1420.58,-60.5 L 1420.61,-61.0143 L 1420.69,-61.5229 L 1420.82,-62.0204
 L 1421.01,-62.5011 L 1421.24,-62.96 L 1421.52,-63.3919 L 1421.84,-63.7921 L 1422.21,-64.1563 L 1422.61,-64.4804
 L 1422.95,-64.7024 L 1422.95,-74 L 1423.01,-74.5302 L 1423.17,-75.0372 L 1423.44,-75.4988 L 1423.79,-75.895
 L 1424.23,-76.2084 L 1424.71,-76.4252 L 1425.23,-76.536 L 1425.77,-76.536 L 1426.29,-76.4252 L 1426.77,-76.2084
 L 1427.21,-75.895 L 1427.56,-75.4988 L 1427.83,-75.0372 L 1427.99,-74.5302 L 1428.05,-74 L 1428.05,-64.7024
 L 1428.39,-64.4804 L 1428.79,-64.1563 L 1429.16,-63.7921 L 1429.48,-63.3919 L 1429.76,-62.96 L 1429.99,-62.5011
 L 1430.18,-62.0204 L 1430.31,-61.5229 L 1430.39,-61.0143 L 1430.42,-60.5 L 1430.39,-59.9857 L 1430.31,-59.4771
 L 1430.18,-58.9796 L 1429.99,-58.4989 L 1429.76,-58.04 L 1429.48,-57.6081 L 1429.16,-57.2079 L 1428.79,-56.8437
 L 1428.39,-56.5196 L 1427.96,-56.2392 L 1427.5,-56.0054 L 1427.02,-55.8208 L 1426.52,-55.6875 L 1426.01,-55.607
 L 1425.5,-55.58 z
M 348.375,-20.9413 L 347.567,-21.1576 L 261.268,-54.2654 L 260.349,-54.7639 L 259.728,-55.3235 L 259.236,-56
 L 258.896,-56.7639 L 258.723,-57.5819 L 258.723,-58.4181 L 258.896,-59.2361 L 259.236,-60 L 259.728,-60.6765
 L 260.349,-61.2361 L 261.074,-61.6542 L 261.869,-61.9126 L 262.701,-62 L 349,-62 L 350.236,-61.8042
 L 351,-61.4641 L 351.677,-60.9726 L 352.236,-60.3511 L 352.654,-59.627 L 352.913,-58.8316 L 353,-58
 L 353,-24.8922 L 352.864,-23.8577 L 352.564,-23.0769 L 352.109,-22.3755 L 351.518,-21.7841 L 350.817,-21.3285
 L 350.036,-21.0287 L 349.21,-20.8977 z
M 525.625,-20.9413 L 524.817,-21.1576 L 438.518,-54.2654 L 437.599,-54.7639 L 436.978,-55.3235 L 436.486,-56
 L 436.146,-56.7639 L 435.973,-57.5819 L 435.973,-58.4181 L 436.146,-59.2361 L 436.486,-60 L 436.978,-60.6765
 L 437.599,-61.2361 L 438.324,-61.6542 L 439.119,-61.9126 L 439.951,-62 L 526.25,-62 L 527.486,-61.8042
 L 528.25,-61.4641 L 528.927,-60.9726 L 529.486,-60.3511 L 529.904,-59.627 L 530.163,-58.8316 L 530.25,-58
 L 530.25,-24.8922 L 530.114,-23.8577 L 529.814,-23.0769 L 529.359,-22.3755 L 528.768,-21.7841 L 528.067,-21.3285
 L 527.286,-21.0287 L 526.46,-20.8977 z
M 1260.21,-21.0287 L 1259.43,-21.3285 L 1258.73,-21.7841 L 1258.14,-22.3755 L 1257.69,-23.0769 L 1257.39,-23.8577
 L 1257.25,-24.8922 L 1257.25,-58 L 1257.34,-58.8316 L 1257.6,-59.627 L 1258.01,-60.3511 L 1258.57,-60.9726
 L 1259.25,-61.4641 L 1260.01,-61.8042 L 1261.25,-62 L 1347.55,-62 L 1348.38,-61.9126 L 1349.18,-61.6542
 L 1349.9,-61.2361 L 1350.52,-60.6765 L 1351.01,-60 L 1351.35,-59.2361 L 1351.53,-58.4181 L 1351.53,-57.5819
 L 1351.35,-56.7639 L 1351.01,-56 L 1350.52,-55.3235 L 1349.9,-54.7639 L 1348.98,-54.2654 L 1262.68,-21.1576
 L 1261.87,-20.9413 L 1261.04,-20.8977 z
M 702.875,-20.9413 L 702.067,-21.1576 L 615.768,-54.2654 L 614.849,-54.7639 L 614.228,-55.3235 L 613.736,-56
 L 613.396,-56.7639 L 613.223,-57.5819 L 613.223,-58.4181 L 613.396,-59.2361 L 613.736,-60 L 614.228,-60.6765
 L 614.849,-61.2361 L 615.574,-61.6542 L 616.369,-61.9126 L 617.201,-62 L 703.5,-62 L 704.736,-61.8042
 L 705.5,-61.4641 L 706.177,-60.9726 L 706.736,-60.3511 L 707.154,-59.627 L 707.413,-58.8316 L 707.5,-58
 L 707.5,-24.8922 L 707.364,-23.8577 L 707.064,-23.0769 L 706.609,-22.3755 L 706.018,-21.7841 L 705.317,-21.3285
 L 704.536,-21.0287 L 703.71,-20.8977 z
M 171.125,-20.9413 L 170.317,-21.1576 L 84.0179,-54.2654 L 83.0995,-54.7639 L 82.478,-55.3235 L 81.9865,-56
 L 81.6464,-56.7639 L 81.4725,-57.5819 L 81.4725,-58.4181 L 81.6464,-59.2361 L 81.9865,-60 L 82.478,-60.6765
 L 83.0995,-61.2361 L 83.8236,-61.6542 L 84.6189,-61.9126 L 85.4506,-62 L 171.75,-62 L 172.986,-61.8042
 L 173.75,-61.4641 L 174.427,-60.9726 L 174.986,-60.3511 L 175.404,-59.627 L 175.663,-58.8316 L 175.75,-58
 L 175.75,-24.8922 L 175.614,-23.8577 L 175.314,-23.0769 L 174.859,-22.3755 L 174.268,-21.7841 L 173.567,-21.3285
 L 172.786,-21.0287 L 171.96,-20.8977 z
M 728.464,-21.0287 L 727.683,-21.3285 L 726.982,-21.7841 L 726.391,-22.3755 L 725.936,-23.0769 L 725.636,-23.8577
 L 725.5,-24.8922 L 725.5,-58 L 725.587,-58.8316 L 725.846,-59.627 L 726.264,-60.3511 L 726.823,-60.9726
 L 727.5,-61.4641 L 728.264,-61.8042 L 729.5,-62 L 815.799,-62 L 816.631,-61.9126 L 817.426,-61.6542
 L 818.151,-61.2361 L 818.772,-60.6765 L 819.264,-60 L 819.604,-59.2361 L 819.777,-58.4181 L 819.777,-57.5819
 L 819.604,-56.7639 L 819.264,-56 L 818.772,-55.3235 L 818.151,-54.7639 L 817.232,-54.2654 L 730.933,-21.1576
 L 730.125,-20.9413 L 729.29,-20.8977 z
M 905.714,-21.0287 L 904.933,-21.3285 L 904.232,-21.7841 L 903.641,-22.3755 L 903.186,-23.0769 L 902.886,-23.8577
 L 902.75,-24.8922 L 902.75,-58 L 902.837,-58.8316 L 903.096,-59.627 L 903.514,-60.3511 L 904.073,-60.9726
 L 904.75,-61.4641 L 905.514,-61.8042 L 906.75,-62 L 993.049,-62 L 993.881,-61.9126 L 994.676,-61.6542
 L 995.401,-61.2361 L 996.022,-60.6765 L 996.514,-60 L 996.854,-59.2361 L 997.027,-58.4181 L 997.027,-57.5819
 L 996.854,-56.7639 L 996.514,-56 L 996.022,-55.3235 L 995.401,-54.7639 L 994.482,-54.2654 L 908.183,-21.1576
 L 907.375,-20.9413 L 906.54,-20.8977 z
M 1082.96,-21.0287 L 1082.18,-21.3285 L 1081.48,-21.7841 L 1080.89,-22.3755 L 1080.44,-23.0769 L 1080.14,-23.8577
 L 1080,-24.8922 L 1080,-58 L 1080.09,-58.8316 L 1080.35,-59.627 L 1080.76,-60.3511 L 1081.32,-60.9726
 L 1082,-61.4641 L 1082.76,-61.8042 L 1084,-62 L 1170.3,-62 L 1171.13,-61.9126 L 1171.93,-61.6542
 L 1172.65,-61.2361 L 1173.27,-60.6765 L 1173.76,-60 L 1174.1,-59.2361 L 1174.28,-58.4181 L 1174.28,-57.5819
 L 1174.1,-56.7639 L 1173.76,-56 L 1173.27,-55.3235 L 1172.65,-54.7639 L 1171.73,-54.2654 L 1085.43,-21.1576
 L 1084.62,-20.9413 L 1083.79,-20.8977 z
M 197.75,-18 L 196.514,-18.1958 L 195.75,-18.5359 L 195.073,-19.0274 L 194.514,-19.6489 L 194.096,-20.373
 L 193.837,-21.1684 L 193.75,-22 L 193.75,-55.1078 L 193.886,-56.1423 L 194.186,-56.9231 L 194.641,-57.6245
 L 195.232,-58.2159 L 195.933,-58.6715 L 196.714,-58.9713 L 197.54,-59.1023 L 198.375,-59.0587 L 199.183,-58.8424
 L 285.482,-25.7346 L 286.401,-25.2361 L 287.022,-24.6765 L 287.513,-24 L 287.854,-23.2361 L 288.027,-22.4181
 L 288.027,-21.5819 L 287.854,-20.7639 L 287.513,-20 L 287.022,-19.3235 L 286.401,-18.7639 L 285.676,-18.3458
 L 284.881,-18.0874 L 284.049,-18 z
M 375,-18 L 373.764,-18.1958 L 373,-18.5359 L 372.323,-19.0274 L 371.764,-19.6489 L 371.346,-20.373
 L 371.087,-21.1684 L 371,-22 L 371,-55.1078 L 371.136,-56.1423 L 371.436,-56.9231 L 371.891,-57.6245
 L 372.482,-58.2159 L 373.183,-58.6715 L 373.964,-58.9713 L 374.79,-59.1023 L 375.625,-59.0587 L 376.433,-58.8424
 L 462.732,-25.7346 L 463.651,-25.2361 L 464.272,-24.6765 L 464.763,-24 L 465.104,-23.2361 L 465.277,-22.4181
 L 465.277,-21.5819 L 465.104,-20.7639 L 464.763,-20 L 464.272,-19.3235 L 463.651,-18.7639 L 462.926,-18.3458
 L 462.131,-18.0874 L 461.299,-18 z
M 552.25,-18 L 551.014,-18.1958 L 550.25,-18.5359 L 549.573,-19.0274 L 549.014,-19.6489 L 548.596,-20.373
 L 548.337,-21.1684 L 548.25,-22 L 548.25,-55.1078 L 548.386,-56.1423 L 548.686,-56.9231 L 549.141,-57.6245
 L 549.732,-58.2159 L 550.433,-58.6715 L 551.214,-58.9713 L 552.04,-59.1023 L 552.875,-59.0587 L 553.683,-58.8424
 L 639.982,-25.7346 L 640.901,-25.2361 L 641.522,-24.6765 L 642.013,-24 L 642.354,-23.2361 L 642.527,-22.4181
 L 642.527,-21.5819 L 642.354,-20.7639 L 642.013,-20 L 641.522,-19.3235 L 640.901,-18.7639 L 640.176,-18.3458
 L 639.381,-18.0874 L 638.549,-18 z
M 794.451,-18 L 793.619,-18.0874 L 792.824,-18.3458 L 792.099,-18.7639 L 791.478,-19.3235 L 790.987,-20
 L 790.646,-20.7639 L 790.473,-21.5819 L 790.473,-22.4181 L 790.646,-23.2361 L 790.987,-24 L 791.478,-24.6765
 L 792.099,-25.2361 L 793.018,-25.7346 L 879.317,-58.8424 L 880.125,-59.0587 L 880.96,-59.1023 L 881.786,-58.9713
 L 882.567,-58.6715 L 883.268,-58.2159 L 883.859,-57.6245 L 884.314,-56.9231 L 884.614,-56.1423 L 884.75,-55.1078
 L 884.75,-22 L 884.663,-21.1684 L 884.404,-20.373 L 883.986,-19.6489 L 883.427,-19.0274 L 882.75,-18.5359
 L 881.986,-18.1958 L 880.75,-18 z
M 971.701,-18 L 970.869,-18.0874 L 970.074,-18.3458 L 969.349,-18.7639 L 968.728,-19.3235 L 968.237,-20
 L 967.896,-20.7639 L 967.723,-21.5819 L 967.723,-22.4181 L 967.896,-23.2361 L 968.237,-24 L 968.728,-24.6765
 L 969.349,-25.2361 L 970.268,-25.7346 L 1056.57,-58.8424 L 1057.38,-59.0587 L 1058.21,-59.1023 L 1059.04,-58.9713
 L 1059.82,-58.6715 L 1060.52,-58.2159 L 1061.11,-57.6245 L 1061.56,-56.9231 L 1061.86,-56.1423 L 1062,-55.1078
 L 1062,-22 L 1061.91,-21.1684 L 1061.65,-20.373 L 1061.24,-19.6489 L 1060.68,-19.0274 L 1060,-18.5359
 L 1059.24,-18.1958 L 1058,-18 z
M 1148.95,-18 L 1148.12,-18.0874 L 1147.32,-18.3458 L 1146.6,-18.7639 L 1145.98,-19.3235 L 1145.49,-20
 L 1145.15,-20.7639 L 1144.97,-21.5819 L 1144.97,-22.4181 L 1145.15,-23.2361 L 1145.49,-24 L 1145.98,-24.6765
 L 1146.6,-25.2361 L 1147.52,-25.7346 L 1233.82,-58.8424 L 1234.63,-59.0587 L 1235.46,-59.1023 L 1236.29,-58.9713
 L 1237.07,-58.6715 L 1237.77,-58.2159 L 1238.36,-57.6245 L 1238.81,-56.9231 L 1239.11,-56.1423 L 1239.25,-55.1078
 L 1239.25,-22 L 1239.16,-21.1684 L 1238.9,-20.373 L 1238.49,-19.6489 L 1237.93,-19.0274 L 1237.25,-18.5359
 L 1236.49,-18.1958 L 1235.25,-18 z
M 1326.2,-18 L 1325.37,-18.0874 L 1324.57,-18.3458 L 1323.85,-18.7639 L 1323.23,-19.3235 L 1322.74,-20
 L 1322.4,-20.7639 L 1322.22,-21.5819 L 1322.22,-22.4181 L 1322.4,-23.2361 L 1322.74,-24 L 1323.23,-24.6765
 L 1323.85,-25.2361 L 1324.77,-25.7346 L 1409.57,-58.2669 L 1410.38,-58.4832 L 1411.21,-58.5268 L 1412.04,-58.3958
 L 1412.82,-58.096 L 1413.52,-57.6404 L 1414.11,-57.049 L 1414.56,-56.3476 L 1414.86,-55.5668 L 1415,-54.5323
 L 1415,-22 L 1414.91,-21.1684 L 1414.65,-20.373 L 1414.24,-19.6489 L 1413.68,-19.0274 L 1413,-18.5359
 L 1412.24,-18.1958 L 1411,-18 z
M 22,-18 L 20.7639,-18.1958 L 20,-18.5359 L 19.3235,-19.0274 L 18.7639,-19.6489 L 18.3458,-20.373
 L 18.0874,-21.1684 L 18,-22 L 18,-54.5323 L 18.1361,-55.5668 L 18.4356,-56.3476 L 18.8909,-57.049
 L 19.4821,-57.6404 L 20.1833,-58.096 L 20.964,-58.3958 L 21.7899,-58.5268 L 22.625,-58.4832 L 23.4327,-58.2669
 L 108.232,-25.7346 L 109.151,-25.2361 L 109.772,-24.6765 L 110.263,-24 L 110.604,-23.2361 L 110.777,-22.4181
 L 110.777,-21.5819 L 110.604,-20.7639 L 110.263,-20 L 109.772,-19.3235 L 109.151,-18.7639 L 108.426,-18.3458
 L 107.631,-18.0874 L 106.799,-18 z
" stroke="black" fill="lightgray" stroke-width="0.5"/>
</svg>
