<?xml version="1.0" standalone="no"?>
<!DOCTYPE svg PUBLIC "-//W3C//DTD SVG 1.1//EN" "http://www.w3.org/Graphics/SVG/1.1/DTD/svg11.dtd">
<svg width="1354mm" height="80mm" viewBox="0 -80 1354 80" xmlns="http://www.w3.org/2000/svg" version="1.1">
<title>OpenSCAD Model</title>
<path d="
M 1354,-80 L 0,-80 L 0,-0 L 4.95,-0 L 4.95,-6 L 5.00572,-6.53017
 L 5.17046,-7.03717 L 5.437,-7.49884 L 5.79372,-7.895 L 6.22499,-8.20836 L 6.71201,-8.42519 L 7.23344,-8.53603
 L 7.76654,-8.53603 L 8.28798,-8.42519 L 8.77499,-8.20836 L 9.20627,-7.895 L 9.56299,-7.49884 L 9.82953,-7.03717
 L 9.99426,-6.53017 L 10.05,-6 L 10.05,-0 L 196.236,-0 L 196.236,-6 L 196.291,-6.53017
 L 196.456,-7.03717 L 196.723,-7.49884 L 197.079,-7.895 L 197.511,-8.20836 L 197.998,-8.42519 L 198.519,-8.53603
 L 199.052,-8.53603 L 199.574,-8.42519 L 200.061,-8.20836 L 200.492,-7.895 L 200.849,-7.49884 L 201.115,-7.03717
 L 201.28,-6.53017 L 201.336,-6 L 201.336,-0 L 387.521,-0 L 387.521,-6 L 387.577,-6.53017
 L 387.742,-7.03717 L 388.008,-7.49884 L 388.365,-7.895 L 388.796,-8.20836 L 389.283,-8.42519 L 389.805,-8.53603
 L 390.338,-8.53603 L 390.859,-8.42519 L 391.346,-8.20836 L 391.778,-7.895 L 392.134,-7.49884 L 392.401,-7.03717
 L 392.566,-6.53017 L 392.621,-6 L 392.621,-0 L 578.807,-0 L 578.807,-6 L 578.863,-6.53017
 L 579.028,-7.03717 L 579.294,-7.49884 L 579.651,-7.895 L 580.082,-8.20836 L 580.569,-8.42519 L 581.091,-8.53603
 L 581.624,-8.53603 L 582.145,-8.42519 L 582.632,-8.20836 L 583.063,-7.895 L 583.42,-7.49884 L 583.687,-7.03717
 L 583.851,-6.53017 L 583.907,-6 L 583.907,-0 L 770.093,-0 L 770.093,-6 L 770.149,-6.53017
 L 770.313,-7.03717 L 770.58,-7.49884 L 770.937,-7.895 L 771.368,-8.20836 L 771.855,-8.42519 L 772.376,-8.53603
 L 772.909,-8.53603 L 773.431,-8.42519 L 773.918,-8.20836 L 774.349,-7.895 L 774.706,-7.49884 L 774.972,-7.03717
 L 775.137,-6.53017 L 775.193,-6 L 775.193,-0 L 961.379,-0 L 961.379,-6 L 961.434,-6.53017
 L 961.599,-7.03717 L 961.866,-7.49884 L 962.222,-7.895 L 962.654,-8.20836 L 963.141,-8.42519 L 963.662,-8.53603
 L 964.195,-8.53603 L 964.717,-8.42519 L 965.204,-8.20836 L 965.635,-7.895 L 965.992,-7.49884 L 966.258,-7.03717
 L 966.423,-6.53017 L 966.479,-6 L 966.479,-0 L 1152.66,-0 L 1152.66,-6 L 1152.72,-6.53017
 L 1152.88,-7.03717 L 1153.15,-7.49884 L 1153.51,-7.895 L 1153.94,-8.20836 L 1154.43,-8.42519 L 1154.95,-8.53603
 L 1155.48,-8.53603 L 1156,-8.42519 L 1156.49,-8.20836 L 1156.92,-7.895 L 1157.28,-7.49884 L 1157.54,-7.03717
 L 1157.71,-6.53017 L 1157.76,-6 L 1157.76,-0 L 1343.95,-0 L 1343.95,-6 L 1344.01,-6.53017
 L 1344.17,-7.03717 L 1344.44,-7.49884 L 1344.79,-7.895 L 1345.22,-8.20836 L 1345.71,-8.42519 L 1346.23,-8.53603
 L 1346.77,-8.53603 L 1347.29,-8.42519 L 1347.77,-8.20836 L 1348.21,-7.895 L 1348.56,-7.49884 L 1348.83,-7.03717
 L 1348.99,-6.53017 L 1349.05,-6 L 1349.05,-0 L 1354,-0 z
M 6.98573,-55.607 L 6.47708,-55.6875 L 5.97964,-55.8208 L 5.49887,-56.0054 L 5.04001,-56.2392 L 4.60811,-56.5196
 L 4.20789,-56.8437 L 3.84373,-57.2079 L 3.51964,-57.6081 L 3.23917,-58.04 L 3.00537,-58.4989 L 2.82082,-58.9796
 L 2.68752,-59.4771 L 2.60696,-59.9857 L 2.58,-60.5 L 2.60696,-61.0143 L 2.68752,-61.5229 L 2.82082,-62.0204
 L 3.00537,-62.5011 L 3.23917,-62.96 L 3.51964,-63.3919 L 3.84373,-63.7921 L 4.20789,-64.1563 L 4.60811,-64.4804
 L 4.95001,-64.7024 L 4.95001,-74 L 5.00574,-74.5302 L 5.17047,-75.0372 L 5.43701,-75.4988 L 5.79373,-75.895
 L 6.22501,-76.2084 L 6.71202,-76.4252 L 7.23346,-76.536 L 7.76654,-76.536 L 8.28798,-76.4252 L 8.77499,-76.2084
 L 9.20627,-75.895 L 9.56299,-75.4988 L 9.82953,-75.0372 L 9.99426,-74.5302 L 10.05,-74 L 10.05,-64.7024
 L 10.3919,-64.4804 L 10.7921,-64.1563 L 11.1563,-63.7921 L 11.4804,-63.3919 L 11.7608,-62.96 L 11.9946,-62.5011
 L 12.1792,-62.0204 L 12.3125,-61.5229 L 12.393,-61.0143 L 12.42,-60.5 L 12.393,-59.9857 L 12.3125,-59.4771
 L 12.1792,-58.9796 L 11.9946,-58.4989 L 11.7608,-58.04 L 11.4804,-57.6081 L 11.1563,-57.2079 L 10.7921,-56.8437
 L 10.3919,-56.5196 L 9.95999,-56.2392 L 9.50113,-56.0054 L 9.02036,-55.8208 L 8.52292,-55.6875 L 8.01427,-55.607
 L 7.5,-55.58 z
M 198.271,-55.607 L 197.763,-55.6875 L 197.265,-55.8208 L 196.785,-56.0054 L 196.326,-56.2392 L 195.894,-56.5196
 L 195.494,-56.8437 L 195.129,-57.2079 L 194.805,-57.6081 L 194.525,-58.04 L 194.291,-58.4989 L 194.107,-58.9796
 L 193.973,-59.4771 L 193.893,-59.9857 L 193.866,-60.5 L 193.893,-61.0143 L 193.973,-61.5229 L 194.107,-62.0204
 L 194.291,-62.5011 L 194.525,-62.96 L 194.805,-63.3919 L 195.129,-63.7921 L 195.494,-64.1563 L 195.894,-64.4804
 L 196.236,-64.7024 L 196.236,-74 L 196.291,-74.5302 L 196.456,-75.0372 L 196.723,-75.4988 L 197.079,-75.895
 L 197.511,-76.2084 L 197.998,-76.4252 L 198.519,-76.536 L 199.052,-76.536 L 199.574,-76.4252 L 200.061,-76.2084
 L 200.492,-75.895 L 200.849,-75.4988 L 201.115,-75.0372 L 201.28,-74.5302 L 201.336,-74 L 201.336,-64.7024
 L 201.678,-64.4804 L 202.078,-64.1563 L 202.442,-63.7921 L 202.766,-63.3919 L 203.047,-62.96 L 203.28,-62.5011
 L 203.465,-62.0204 L 203.598,-61.5229 L 203.679,-61.0143 L 203.706,-60.5 L 203.679,-59.9857 L 203.598,-59.4771
 L 203.465,-58.9796 L 203.28,-58.4989 L 203.047,-58.04 L 202.766,-57.6081 L 202.442,-57.2079 L 202.078,-56.8437
 L 201.678,-56.5196 L 201.246,-56.2392 L 200.787,-56.0054 L 200.306,-55.8208 L 199.809,-55.6875 L 199.3,-55.607
 L 198.786,-55.58 z
M 389.557,-55.607 L 389.049,-55.6875 L 388.551,-55.8208 L 388.07,-56.0054 L 387.611,-56.2392 L 387.18,-56.5196
 L 386.779,-56.8437 L 386.415,-57.2079 L 386.091,-57.6081 L 385.811,-58.04 L 385.577,-58.4989 L 385.392,-58.9796
 L 385.259,-59.4771 L 385.178,-59.9857 L 385.151,-60.5 L 385.178,-61.0143 L 385.259,-61.5229 L 385.392,-62.0204
 L 385.577,-62.5011 L 385.811,-62.96 L 386.091,-63.3919 L 386.415,-63.7921 L 386.779,-64.1563 L 387.18,-64.4804
 L 387.521,-64.7024 L 387.521,-74 L 387.577,-74.5302 L 387.742,-75.0372 L 388.008,-75.4988 L 388.365,-75.895
 L 388.796,-76.2084 L 389.283,-76.4252 L 389.805,-76.536 L 390.338,-76.536 L 390.859,-76.4252 L 391.346,-76.2084
 L 391.778,-75.895 L 392.134,-75.4988 L 392.401,-75.0372 L 392.566,-74.5302 L 392.621,-74 L 392.621,-64.7024
 L 392.963,-64.4804 L 393.364,-64.1563 L 393.728,-63.7921 L 394.052,-63.3919 L 394.332,-62.96 L 394.566,-62.5011
 L 394.751,-62.0204 L 394.884,-61.5229 L 394.964,-61.0143 L 394.991,-60.5 L 394.964,-59.9857 L 394.884,-59.4771
 L 394.751,-58.9796 L 394.566,-58.4989 L 394.332,-58.04 L 394.052,-57.6081 L 393.728,-57.2079 L 393.364,-56.8437
 L 392.963,-56.5196 L 392.531,-56.2392 L 392.073,-56.0054 L 391.592,-55.8208 L 391.094,-55.6875 L 390.586,-55.607
 L 390.071,-55.58 z
M 580.843,-55.607 L 580.334,-55.6875 L 579.837,-55.8208 L 579.356,-56.0054 L 578.897,-56.2392 L 578.465,-56.5196
 L 578.065,-56.8437 L 577.701,-57.2079 L 577.377,-57.6081 L 577.096,-58.04 L 576.863,-58.4989 L 576.678,-58.9796
 L 576.545,-59.4771 L 576.464,-59.9857 L 576.437,-60.5 L 576.464,-61.0143 L 576.545,-61.5229 L 576.678,-62.0204
 L 576.863,-62.5011 L 577.096,-62.96 L 577.377,-63.3919 L 577.701,-63.7921 L 578.065,-64.1563 L 578.465,-64.4804
 L 578.807,-64.7024 L 578.807,-74 L 578.863,-74.5302 L 579.028,-75.0372 L 579.294,-75.4988 L 579.651,-75.895
 L 580.082,-76.2084 L 580.569,-76.4252 L 581.091,-76.536 L 581.624,-76.536 L 582.145,-76.4252 L 582.632,-76.2084
 L 583.063,-75.895 L 583.42,-75.4988 L 583.687,-75.0372 L 583.851,-74.5302 L 583.907,-74 L 583.907,-64.7024
 L 584.249,-64.4804 L 584.649,-64.1563 L 585.013,-63.7921 L 585.337,-63.3919 L 585.618,-62.96 L 585.852,-62.5011
 L 586.036,-62.0204 L 586.17,-61.5229 L 586.25,-61.0143 L 586.277,-60.5 L 586.25,-59.9857 L 586.17,-59.4771
 L 586.036,-58.9796 L 585.852,-58.4989 L 585.618,-58.04 L 585.337,-57.6081 L 585.013,-57.2079 L 584.649,-56.8437
 L 584.249,-56.5196 L 583.817,-56.2392 L 583.358,-56.0054 L 582.877,-55.8208 L 582.38,-55.6875 L 581.871,-55.607
 L 581.357,-55.58 z
M 772.129,-55.607 L 771.62,-55.6875 L 771.122,-55.8208 L 770.642,-56.0054 L 770.183,-56.2392 L 769.751,-56.5196
 L 769.351,-56.8437 L 768.987,-57.2079 L 768.662,-57.6081 L 768.382,-58.04 L 768.148,-58.4989 L 767.964,-58.9796
 L 767.83,-59.4771 L 767.75,-59.9857 L 767.723,-60.5 L 767.75,-61.0143 L 767.83,-61.5229 L 767.964,-62.0204
 L 768.148,-62.5011 L 768.382,-62.96 L 768.662,-63.3919 L 768.987,-63.7921 L 769.351,-64.1563 L 769.751,-64.4804
 L 770.093,-64.7024 L 770.093,-74 L 770.149,-74.5302 L 770.313,-75.0372 L 770.58,-75.4988 L 770.937,-75.895
 L 771.368,-76.2084 L 771.855,-76.4252 L 772.376,-76.536 L 772.909,-76.536 L 773.431,-76.4252 L 773.918,-76.2084
 L 774.349,-75.895 L 774.706,-75.4988 L 774.972,-75.0372 L 775.137,-74.5302 L 775.193,-74 L 775.193,-64.7024
 L 775.535,-64.4804 L 775.935,-64.1563 L 776.299,-63.7921 L 776.623,-63.3919 L 776.904,-62.96 L 777.137,-62.5011
 L 777.322,-62.0204 L 777.455,-61.5229 L 777.536,-61.0143 L 777.563,-60.5 L 777.536,-59.9857 L 777.455,-59.4771
 L 777.322,-58.9796 L 777.137,-58.4989 L 776.904,-58.04 L 776.623,-57.6081 L 776.299,-57.2079 L 775.935,-56.8437
 L 775.535,-56.5196 L 775.103,-56.2392 L 774.644,-56.0054 L 774.163,-55.8208 L 773.666,-55.6875 L 773.157,-55.607
 L 772.643,-55.58 z
M 963.414,-55.607 L 962.906,-55.6875 L 962.408,-55.8208 L 961.927,-56.0054 L 961.469,-56.2392 L 961.037,-56.5196
 L 960.636,-56.8437 L 960.272,-57.2079 L 959.948,-57.6081 L 959.668,-58.04 L 959.434,-58.4989 L 959.249,-58.9796
 L 959.116,-59.4771 L 959.036,-59.9857 L 959.009,-60.5 L 959.036,-61.0143 L 959.116,-61.5229 L 959.249,-62.0204
 L 959.434,-62.5011 L 959.668,-62.96 L 959.948,-63.3919 L 960.272,-63.7921 L 960.636,-64.1563 L 961.037,-64.4804
 L 961.379,-64.7024 L 961.379,-74 L 961.434,-74.5302 L 961.599,-75.0372 L 961.866,-75.4988 L 962.222,-75.895
 L 962.654,-76.2084 L 963.141,-76.4252 L 963.662,-76.536 L 964.195,-76.536 L 964.717,-76.4252 L 965.204,-76.2084
 L 965.635,-75.895 L 965.992,-75.4988 L 966.258,-75.0372 L 966.423,-74.5302 L 966.479,-74 L 966.479,-64.7024
 L 966.82,-64.4804 L 967.221,-64.1563 L 967.585,-63.7921 L 967.909,-63.3919 L 968.189,-62.96 L 968.423,-62.5011
 L 968.608,-62.0204 L 968.741,-61.5229 L 968.822,-61.0143 L 968.849,-60.5 L 968.822,-59.9857 L 968.741,-59.4771
 L 968.608,-58.9796 L 968.423,-58.4989 L 968.189,-58.04 L 967.909,-57.6081 L 967.585,-57.2079 L 967.221,-56.8437
 L 966.82,-56.5196 L 966.389,-56.2392 L 965.93,-56.0054 L 965.449,-55.8208 L 964.951,-55.6875 L 964.443,-55.607
 L 963.929,-55.58 z
M 1154.7,-55.607 L 1154.19,-55.6875 L 1153.69,-55.8208 L 1153.21,-56.0054 L 1152.75,-56.2392 L 1152.32,-56.5196
 L 1151.92,-56.8437 L 1151.56,-57.2079 L 1151.23,-57.6081 L 1150.95,-58.04 L 1150.72,-58.4989 L 1150.54,-58.9796
 L 1150.4,-59.4771 L 1150.32,-59.9857 L 1150.29,-60.5 L 1150.32,-61.0143 L 1150.4,-61.5229 L 1150.54,-62.0204
 L 1150.72,-62.5011 L 1150.95,-62.96 L 1151.23,-63.3919 L 1151.56,-63.7921 L 1151.92,-64.1563 L 1152.32,-64.4804
 L 1152.66,-64.7024 L 1152.66,-74 L 1152.72,-74.5302 L 1152.88,-75.0372 L 1153.15,-75.4988 L 1153.51,-75.895
 L 1153.94,-76.2084 L 1154.43,-76.4252 L 1154.95,-76.536 L 1155.48,-76.536 L 1156,-76.4252 L 1156.49,-76.2084
 L 1156.92,-75.895 L 1157.28,-75.4988 L 1157.54,-75.0372 L 1157.71,-74.5302 L 1157.76,-74 L 1157.76,-64.7024
 L 1158.11,-64.4804 L 1158.51,-64.1563 L 1158.87,-63.7921 L 1159.19,-63.3919 L 1159.48,-62.96 L 1159.71,-62.5011
 L 1159.89,-62.0204 L 1160.03,-61.5229 L 1160.11,-61.0143 L 1160.13,-60.5 L 1160.11,-59.9857 L 1160.03,-59.4771
 L 1159.89,-58.9796 L 1159.71,-58.4989 L 1159.48,-58.04 L 1159.19,-57.6081 L 1158.87,-57.2079 L 1158.51,-56.8437
 L 1158.11,-56.5196 L 1157.67,-56.2392 L 1157.22,-56.0054 L 1156.73,-55.8208 L 1156.24,-55.6875 L 1155.73,-55.607
 L 1155.21,-55.58 z
M 1345.99,-55.607 L 1345.48,-55.6875 L 1344.98,-55.8208 L 1344.5,-56.0054 L 1344.04,-56.2392 L 1343.61,-56.5196
 L 1343.21,-56.8437 L 1342.84,-57.2079 L 1342.52,-57.6081 L 1342.24,-58.04 L 1342.01,-58.4989 L 1341.82,-58.9796
 L 1341.69,-59.4771 L 1341.61,-59.9857 L 1341.58,-60.5 L 1341.61,-61.0143 L 1341.69,-61.5229 L 1341.82,-62.0204
 L 1342.01,-62.5011 L 1342.24,-62.96 L 1342.52,-63.3919 L 1342.84,-63.7921 L 1343.21,-64.1563 L 1343.61,-64.4804
 L 1343.95,-64.7024 L 1343.95,-74 L 1344.01,-74.5302 L 1344.17,-75.0372 L 1344.44,-75.4988 L 1344.79,-75.895
 L 1345.23,-76.2084 L 1345.71,-76.4252 L 1346.23,-76.536 L 1346.77,-76.536 L 1347.29,-76.4252 L 1347.77,-76.2084
 L 1348.21,-75.895 L 1348.56,-75.4988 L 1348.83,-75.0372 L 1348.99,-74.5302 L 1349.05,-74 L 1349.05,-64.7024
 L 1349.39,-64.4804 L 1349.79,-64.1563 L 1350.16,-63.7921 L 1350.48,-63.3919 L 1350.76,-62.96 L 1350.99,-62.5011
 L 1351.18,-62.0204 L 1351.31,-61.5229 L 1351.39,-61.0143 L 1351.42,-60.5 L 1351.39,-59.9857 L 1351.31,-59.4771
 L 1351.18,-58.9796 L 1350.99,-58.4989 L 1350.76,-58.04 L 1350.48,-57.6081 L 1350.16,-57.2079 L 1349.79,-56.8437
 L 1349.39,-56.5196 L 1348.96,-56.2392 L 1348.5,-56.0054 L 1348.02,-55.8208 L 1347.52,-55.6875 L 1347.01,-55.607
 L 1346.5,-55.58 z
M 784.511,-20.5765 L 783.738,-20.8956 L 783.049,-21.3684 L 782.472,-21.9743 L 782.035,-22.6867 L 781.755,-23.4746
 L 781.643,-24.4132 L 781.643,-58 L 781.73,-58.8316 L 781.989,-59.627 L 782.407,-60.3511 L 782.966,-60.9726
 L 783.643,-61.4641 L 784.407,-61.8042 L 785.643,-62 L 880.123,-62 L 880.955,-61.9126 L 881.75,-61.6542
 L 882.475,-61.2361 L 883.096,-60.6765 L 883.588,-60 L 883.928,-59.2361 L 884.102,-58.4181 L 884.102,-57.5819
 L 883.928,-56.7639 L 883.588,-56 L 883.096,-55.3235 L 882.475,-54.7639 L 881.463,-54.2311 L 786.983,-20.6442
 L 786.17,-20.448 L 785.334,-20.4251 z
M 676.473,-47.7048 L 675.66,-47.901 L 657.854,-54.2311 L 656.842,-54.7639 L 656.221,-55.3235 L 655.729,-56
 L 655.389,-56.7639 L 655.215,-57.5819 L 655.215,-58.4181 L 655.389,-59.2361 L 655.729,-60 L 656.221,-60.6765
 L 656.842,-61.2361 L 657.567,-61.6542 L 658.362,-61.9126 L 659.193,-62 L 694.806,-62 L 695.938,-61.8367
 L 696.711,-61.5176 L 697.401,-61.0448 L 697.977,-60.4389 L 698.415,-59.7264 L 698.695,-58.9385 L 698.805,-58.1096
 L 698.74,-57.2758 L 698.504,-56.4738 L 698.106,-55.7384 L 697.563,-55.1019 L 696.901,-54.592 L 696.146,-54.2311
 L 678.34,-47.901 L 677.309,-47.6819 z
M 567.83,-20.448 L 567.017,-20.6442 L 472.537,-54.2311 L 471.525,-54.7639 L 470.904,-55.3235 L 470.412,-56
 L 470.072,-56.7639 L 469.898,-57.5819 L 469.898,-58.4181 L 470.072,-59.2361 L 470.412,-60 L 470.904,-60.6765
 L 471.525,-61.2361 L 472.25,-61.6542 L 473.045,-61.9126 L 473.877,-62 L 568.357,-62 L 569.593,-61.8042
 L 570.357,-61.4641 L 571.034,-60.9726 L 571.593,-60.3511 L 572.011,-59.627 L 572.27,-58.8316 L 572.357,-58
 L 572.357,-24.4132 L 572.245,-23.4746 L 571.965,-22.6867 L 571.528,-21.9743 L 570.951,-21.3684 L 570.261,-20.8956
 L 569.489,-20.5765 L 568.666,-20.4251 z
M 376.544,-20.448 L 375.732,-20.6442 L 281.251,-54.2311 L 280.24,-54.7639 L 279.618,-55.3235 L 279.127,-56
 L 278.787,-56.7639 L 278.613,-57.5819 L 278.613,-58.4181 L 278.787,-59.2361 L 279.127,-60 L 279.618,-60.6765
 L 280.24,-61.2361 L 280.964,-61.6542 L 281.759,-61.9126 L 282.591,-62 L 377.071,-62 L 378.307,-61.8042
 L 379.071,-61.4641 L 379.748,-60.9726 L 380.307,-60.3511 L 380.726,-59.627 L 380.984,-58.8316 L 381.071,-58
 L 381.071,-24.4132 L 380.96,-23.4746 L 380.68,-22.6867 L 380.242,-21.9743 L 379.665,-21.3684 L 378.976,-20.8956
 L 378.203,-20.5765 L 377.38,-20.4251 z
M 1167.08,-20.5765 L 1166.31,-20.8956 L 1165.62,-21.3684 L 1165.04,-21.9743 L 1164.61,-22.6867 L 1164.33,-23.4746
 L 1164.21,-24.4132 L 1164.21,-58 L 1164.3,-58.8316 L 1164.56,-59.627 L 1164.98,-60.3511 L 1165.54,-60.9726
 L 1166.21,-61.4641 L 1166.98,-61.8042 L 1168.21,-62 L 1262.69,-62 L 1263.53,-61.9126 L 1264.32,-61.6542
 L 1265.05,-61.2361 L 1265.67,-60.6765 L 1266.16,-60 L 1266.5,-59.2361 L 1266.67,-58.4181 L 1266.67,-57.5819
 L 1266.5,-56.7639 L 1266.16,-56 L 1265.67,-55.3235 L 1265.05,-54.7639 L 1264.03,-54.2311 L 1169.55,-20.6442
 L 1168.74,-20.448 L 1167.91,-20.4251 z
M 185.259,-20.448 L 184.446,-20.6442 L 89.9653,-54.2311 L 88.9539,-54.7639 L 88.3325,-55.3235 L 87.841,-56
 L 87.5009,-56.7639 L 87.327,-57.5819 L 87.327,-58.4181 L 87.5009,-59.2361 L 87.841,-60 L 88.3325,-60.6765
 L 88.9539,-61.2361 L 89.6781,-61.6542 L 90.4734,-61.9126 L 91.3051,-62 L 185.786,-62 L 187.022,-61.8042
 L 187.786,-61.4641 L 188.462,-60.9726 L 189.022,-60.3511 L 189.44,-59.627 L 189.698,-58.8316 L 189.786,-58
 L 189.786,-24.4132 L 189.674,-23.4746 L 189.394,-22.6867 L 188.956,-21.9743 L 188.38,-21.3684 L 187.69,-20.8956
 L 186.917,-20.5765 L 186.095,-20.4251 z
M 975.797,-20.5765 L 975.024,-20.8956 L 974.334,-21.3684 L 973.758,-21.9743 L 973.32,-22.6867 L 973.04,-23.4746
 L 972.929,-24.4132 L 972.929,-58 L 973.016,-58.8316 L 973.274,-59.627 L 973.693,-60.3511 L 974.252,-60.9726
 L 974.929,-61.4641 L 975.693,-61.8042 L 976.929,-62 L 1071.41,-62 L 1072.24,-61.9126 L 1073.04,-61.6542
 L 1073.76,-61.2361 L 1074.38,-60.6765 L 1074.87,-60 L 1075.21,-59.2361 L 1075.39,-58.4181 L 1075.39,-57.5819
 L 1075.21,-56.7639 L 1074.87,-56 L 1074.38,-55.3235 L 1073.76,-54.7639 L 1072.75,-54.2311 L 978.268,-20.6442
 L 977.456,-20.448 L 976.62,-20.4251 z
M 593.939,-18.3133 L 593.121,-18.4871 L 592.357,-18.8273 L 591.681,-19.3188 L 591.121,-19.9402 L 590.703,-20.6644
 L 590.445,-21.4597 L 590.357,-22.2914 L 590.357,-57.7086 L 590.469,-58.6472 L 590.749,-59.4351 L 591.187,-60.1476
 L 591.763,-60.7534 L 592.453,-61.2262 L 593.226,-61.5453 L 594.048,-61.6967 L 594.884,-61.6738 L 595.697,-61.4776
 L 645.512,-43.7689 L 646.076,-43.5176 L 646.766,-43.0448 L 647.342,-42.4389 L 647.78,-41.7264 L 648.06,-40.9385
 L 648.171,-40.1096 L 648.106,-39.2758 L 647.869,-38.4738 L 647.471,-37.7384 L 646.929,-37.1019 L 646.266,-36.592
 L 645.512,-36.2311 L 595.697,-18.5224 L 594.775,-18.3133 z
M 759.116,-18.3262 L 758.303,-18.5224 L 708.488,-36.2311 L 707.924,-36.4824 L 707.234,-36.9552 L 706.657,-37.5611
 L 706.22,-38.2736 L 705.94,-39.0615 L 705.829,-39.8904 L 705.894,-40.7242 L 706.131,-41.5262 L 706.529,-42.2616
 L 707.071,-42.8981 L 707.734,-43.408 L 708.488,-43.7689 L 758.303,-61.4776 L 759.225,-61.6868 L 760.061,-61.6868
 L 760.879,-61.5129 L 761.643,-61.1728 L 762.319,-60.6812 L 762.879,-60.0598 L 763.297,-59.3356 L 763.555,-58.5403
 L 763.643,-57.7087 L 763.643,-22.2913 L 763.531,-21.3528 L 763.251,-20.5649 L 762.813,-19.8524 L 762.237,-19.2466
 L 761.547,-18.7737 L 760.774,-18.4547 L 759.952,-18.3033 z
M 211.786,-18 L 210.55,-18.1958 L 209.786,-18.5359 L 209.109,-19.0274 L 208.55,-19.6489 L 208.132,-20.373
 L 207.873,-21.1684 L 207.786,-22 L 207.786,-55.5868 L 207.897,-56.5253 L 208.177,-57.3133 L 208.615,-58.0257
 L 209.192,-58.6316 L 209.881,-59.1044 L 210.654,-59.4235 L 211.477,-59.5749 L 212.313,-59.552 L 213.126,-59.3558
 L 307.606,-25.7689 L 308.617,-25.2361 L 309.239,-24.6765 L 309.73,-24 L 310.071,-23.2361 L 310.244,-22.4181
 L 310.244,-21.5819 L 310.071,-20.7639 L 309.73,-20 L 309.239,-19.3235 L 308.617,-18.7639 L 307.893,-18.3458
 L 307.098,-18.0874 L 306.266,-18 z
M 403.071,-18 L 401.835,-18.1958 L 401.071,-18.5359 L 400.395,-19.0274 L 399.835,-19.6489 L 399.417,-20.373
 L 399.159,-21.1684 L 399.071,-22 L 399.071,-55.5868 L 399.183,-56.5253 L 399.463,-57.3133 L 399.901,-58.0257
 L 400.477,-58.6316 L 401.167,-59.1044 L 401.94,-59.4235 L 402.762,-59.5749 L 403.598,-59.552 L 404.411,-59.3558
 L 498.892,-25.7689 L 499.903,-25.2361 L 500.525,-24.6765 L 501.016,-24 L 501.356,-23.2361 L 501.53,-22.4181
 L 501.53,-21.5819 L 501.356,-20.7639 L 501.016,-20 L 500.525,-19.3235 L 499.903,-18.7639 L 499.179,-18.3458
 L 498.384,-18.0874 L 497.552,-18 z
M 856.448,-18 L 855.616,-18.0874 L 854.821,-18.3458 L 854.097,-18.7639 L 853.475,-19.3235 L 852.984,-20
 L 852.644,-20.7639 L 852.47,-21.5819 L 852.47,-22.4181 L 852.644,-23.2361 L 852.984,-24 L 853.475,-24.6765
 L 854.097,-25.2361 L 855.108,-25.7689 L 949.589,-59.3558 L 950.402,-59.552 L 951.238,-59.5749 L 952.06,-59.4235
 L 952.833,-59.1044 L 953.523,-58.6316 L 954.099,-58.0257 L 954.537,-57.3133 L 954.817,-56.5253 L 954.929,-55.5868
 L 954.929,-22 L 954.841,-21.1684 L 954.583,-20.373 L 954.165,-19.6489 L 953.605,-19.0274 L 952.929,-18.5359
 L 952.165,-18.1958 L 950.929,-18 z
M 1047.73,-18 L 1046.9,-18.0874 L 1046.11,-18.3458 L 1045.38,-18.7639 L 1044.76,-19.3235 L 1044.27,-20
 L 1043.93,-20.7639 L 1043.76,-21.5819 L 1043.76,-22.4181 L 1043.93,-23.2361 L 1044.27,-24 L 1044.76,-24.6765
 L 1045.38,-25.2361 L 1046.39,-25.7689 L 1140.87,-59.3558 L 1141.69,-59.552 L 1142.52,-59.5749 L 1143.35,-59.4235
 L 1144.12,-59.1044 L 1144.81,-58.6316 L 1145.38,-58.0257 L 1145.82,-57.3133 L 1146.1,-56.5253 L 1146.21,-55.5868
 L 1146.21,-22 L 1146.13,-21.1684 L 1145.87,-20.373 L 1145.45,-19.6489 L 1144.89,-19.0274 L 1144.21,-18.5359
 L 1143.45,-18.1958 L 1142.21,-18 z
M 22,-18 L 20.7639,-18.1958 L 20,-18.5359 L 19.3235,-19.0274 L 18.7639,-19.6489 L 18.3458,-20.373
 L 18.0874,-21.1684 L 18,-22 L 18,-55.0536 L 18.1117,-55.9921 L 18.3918,-56.78 L 18.8296,-57.4925
 L 19.4059,-58.0984 L 20.0956,-58.5712 L 20.8686,-58.8902 L 21.691,-59.0416 L 22.5269,-59.0187 L 23.3398,-58.8225
 L 116.32,-25.7689 L 117.332,-25.2361 L 117.953,-24.6765 L 118.445,-24 L 118.785,-23.2361 L 118.959,-22.4181
 L 118.959,-21.5819 L 118.785,-20.7639 L 118.445,-20 L 117.953,-19.3235 L 117.332,-18.7639 L 116.608,-18.3458
 L 115.812,-18.0874 L 114.981,-18 z
M 1239.02,-18 L 1238.19,-18.0874 L 1237.39,-18.3458 L 1236.67,-18.7639 L 1236.05,-19.3235 L 1235.56,-20
 L 1235.22,-20.7639 L 1235.04,-21.5819 L 1235.04,-22.4181 L 1235.22,-23.2361 L 1235.56,-24 L 1236.05,-24.6765
 L 1236.67,-25.2361 L 1237.68,-25.7689 L 1330.66,-58.8225 L 1331.47,-59.0187 L 1332.31,-59.0416 L 1333.13,-58.8902
 L 1333.9,-58.5712 L 1334.59,-58.0984 L 1335.17,-57.4925 L 1335.61,-56.78 L 1335.89,-55.9921 L 1336,-55.0536
 L 1336,-22 L 1335.91,-21.1684 L 1335.65,-20.373 L 1335.24,-19.6489 L 1334.68,-19.0274 L 1334,-18.5359
 L 1333.24,-18.1958 L 1332,-18 z
M 659.193,-18 L 658.062,-18.1633 L 657.289,-18.4824 L 656.599,-18.9552 L 656.023,-19.5611 L 655.585,-20.2736
 L 655.305,-21.0615 L 655.195,-21.8904 L 655.26,-22.7242 L 655.496,-23.5262 L 655.894,-24.2616 L 656.437,-24.8981
 L 657.099,-25.408 L 657.854,-25.7689 L 675.66,-32.099 L 676.691,-32.3181 L 677.527,-32.2952 L 678.34,-32.099
 L 696.146,-25.7689 L 697.158,-25.2361 L 697.779,-24.6765 L 698.271,-24 L 698.611,-23.2361 L 698.785,-22.4181
 L 698.785,-21.5819 L 698.611,-20.7639 L 698.271,-20 L 697.779,-19.3235 L 697.158,-18.7639 L 696.433,-18.3458
 L 695.638,-18.0874 L 694.806,-18 z
" stroke="black" fill="lightgray" stroke-width="0.5"/>
</svg>
