<?xml version="1.0" standalone="no"?>
<!DOCTYPE svg PUBLIC "-//W3C//DTD SVG 1.1//EN" "http://www.w3.org/Graphics/SVG/1.1/DTD/svg11.dtd">
<svg width="1697mm" height="80mm" viewBox="0 -80 1697 80" xmlns="http://www.w3.org/2000/svg" version="1.1">
<title>OpenSCAD Model</title>
<path d="
M 1697,-80 L 0,-80 L 0,-0 L 4.95,-0 L 4.95,-6 L 5.00572,-6.53017
 L 5.17046,-7.03717 L 5.437,-7.49884 L 5.79372,-7.895 L 6.22499,-8.20836 L 6.71201,-8.42519 L 7.23344,-8.53603
 L 7.76654,-8.53603 L 8.28798,-8.42519 L 8.77499,-8.20836 L 9.20627,-7.895 L 9.56299,-7.49884 L 9.82953,-7.03717
 L 9.99426,-6.53017 L 10.05,-6 L 10.05,-0 L 191.839,-0 L 191.839,-6 L 191.895,-6.53017
 L 192.059,-7.03717 L 192.326,-7.49884 L 192.683,-7.895 L 193.114,-8.20836 L 193.601,-8.42519 L 194.122,-8.53603
 L 194.655,-8.53603 L 195.177,-8.42519 L 195.664,-8.20836 L 196.095,-7.895 L 196.452,-7.49884 L 196.718,-7.03717
 L 196.883,-6.53017 L 196.939,-6 L 196.939,-0 L 378.728,-0 L 378.728,-6 L 378.783,-6.53017
 L 378.948,-7.03717 L 379.215,-7.49884 L 379.571,-7.895 L 380.003,-8.20836 L 380.49,-8.42519 L 381.011,-8.53603
 L 381.544,-8.53603 L 382.066,-8.42519 L 382.553,-8.20836 L 382.984,-7.895 L 383.341,-7.49884 L 383.607,-7.03717
 L 383.772,-6.53017 L 383.828,-6 L 383.828,-0 L 565.617,-0 L 565.617,-6 L 565.672,-6.53017
 L 565.837,-7.03717 L 566.104,-7.49884 L 566.46,-7.895 L 566.892,-8.20836 L 567.379,-8.42519 L 567.9,-8.53603
 L 568.433,-8.53603 L 568.955,-8.42519 L 569.442,-8.20836 L 569.873,-7.895 L 570.23,-7.49884 L 570.496,-7.03717
 L 570.661,-6.53017 L 570.717,-6 L 570.717,-0 L 752.506,-0 L 752.506,-6 L 752.561,-6.53017
 L 752.726,-7.03717 L 752.993,-7.49884 L 753.349,-7.895 L 753.781,-8.20836 L 754.268,-8.42519 L 754.789,-8.53603
 L 755.322,-8.53603 L 755.844,-8.42519 L 756.331,-8.20836 L 756.762,-7.895 L 757.119,-7.49884 L 757.385,-7.03717
 L 757.55,-6.53017 L 757.606,-6 L 757.606,-0 L 939.394,-0 L 939.394,-6 L 939.45,-6.53017
 L 939.615,-7.03717 L 939.881,-7.49884 L 940.238,-7.895 L 940.669,-8.20836 L 941.156,-8.42519 L 941.678,-8.53603
 L 942.211,-8.53603 L 942.732,-8.42519 L 943.219,-8.20836 L 943.651,-7.895 L 944.007,-7.49884 L 944.274,-7.03717
 L 944.439,-6.53017 L 944.494,-6 L 944.494,-0 L 1126.28,-0 L 1126.28,-6 L 1126.34,-6.53017
 L 1126.5,-7.03717 L 1126.77,-7.49884 L 1127.13,-7.895 L 1127.56,-8.20836 L 1128.05,-8.42519 L 1128.57,-8.53603
 L 1129.1,-8.53603 L 1129.62,-8.42519 L 1130.11,-8.20836 L 1130.54,-7.895 L 1130.9,-7.49884 L 1131.16,-7.03717
 L 1131.33,-6.53017 L 1131.38,-6 L 1131.38,-0 L 1313.17,-0 L 1313.17,-6 L 1313.23,-6.53017
 L 1313.39,-7.03717 L 1313.66,-7.49884 L 1314.02,-7.895 L 1314.45,-8.20836 L 1314.93,-8.42519 L 1315.46,-8.53603
 L 1315.99,-8.53603 L 1316.51,-8.42519 L 1317,-8.20836 L 1317.43,-7.895 L 1317.79,-7.49884 L 1318.05,-7.03717
 L 1318.22,-6.53017 L 1318.27,-6 L 1318.27,-0 L 1500.06,-0 L 1500.06,-6 L 1500.12,-6.53017
 L 1500.28,-7.03717 L 1500.55,-7.49884 L 1500.9,-7.895 L 1501.34,-8.20836 L 1501.82,-8.42519 L 1502.34,-8.53603
 L 1502.88,-8.53603 L 1503.4,-8.42519 L 1503.89,-8.20836 L 1504.32,-7.895 L 1504.67,-7.49884 L 1504.94,-7.03717
 L 1505.11,-6.53017 L 1505.16,-6 L 1505.16,-0 L 1686.95,-0 L 1686.95,-6 L 1687.01,-6.53017
 L 1687.17,-7.03717 L 1687.44,-7.49884 L 1687.79,-7.895 L 1688.22,-8.20836 L 1688.71,-8.42519 L 1689.23,-8.53603
 L 1689.77,-8.53603 L 1690.29,-8.42519 L 1690.77,-8.20836 L 1691.21,-7.895 L 1691.56,-7.49884 L 1691.83,-7.03717
 L 1691.99,-6.53017 L 1692.05,-6 L 1692.05,-0 L 1697,-0 z
M 6.98573,-55.607 L 6.47708,-55.6875 L 5.97964,-55.8208 L 5.49887,-56.0054 L 5.04001,-56.2392 L 4.60811,-56.5196
 L 4.20789,-56.8437 L 3.84373,-57.2079 L 3.51964,-57.6081 L 3.23917,-58.04 L 3.00537,-58.4989 L 2.82082,-58.9796
 L 2.68752,-59.4771 L 2.60696,-59.9857 L 2.58,-60.5 L 2.60696,-61.0143 L 2.68752,-61.5229 L 2.82082,-62.0204
 L 3.00537,-62.5011 L 3.23917,-62.96 L 3.51964,-63.3919 L 3.84373,-63.7921 L 4.20789,-64.1563 L 4.60811,-64.4804
 L 4.95001,-64.7024 L 4.95001,-74 L 5.00574,-74.5302 L 5.17047,-75.0372 L 5.43701,-75.4988 L 5.79373,-75.895
 L 6.22501,-76.2084 L 6.71202,-76.4252 L 7.23346,-76.536 L 7.76654,-76.536 L 8.28798,-76.4252 L 8.77499,-76.2084
 L 9.20627,-75.895 L 9.56299,-75.4988 L 9.82953,-75.0372 L 9.99426,-74.5302 L 10.05,-74 L 10.05,-64.7024
 L 10.3919,-64.4804 L 10.7921,-64.1563 L 11.1563,-63.7921 L 11.4804,-63.3919 L 11.7608,-62.96 L 11.9946,-62.5011
 L 12.1792,-62.0204 L 12.3125,-61.5229 L 12.393,-61.0143 L 12.42,-60.5 L 12.393,-59.9857 L 12.3125,-59.4771
 L 12.1792,-58.9796 L 11.9946,-58.4989 L 11.7608,-58.04 L 11.4804,-57.6081 L 11.1563,-57.2079 L 10.7921,-56.8437
 L 10.3919,-56.5196 L 9.95999,-56.2392 L 9.50113,-56.0054 L 9.02036,-55.8208 L 8.52292,-55.6875 L 8.01427,-55.607
 L 7.5,-55.58 z
M 1128.32,-55.607 L 1127.81,-55.6875 L 1127.31,-55.8208 L 1126.83,-56.0054 L 1126.37,-56.2392 L 1125.94,-56.5196
 L 1125.54,-56.8437 L 1125.18,-57.2079 L 1124.85,-57.6081 L 1124.57,-58.04 L 1124.34,-58.4989 L 1124.15,-58.9796
 L 1124.02,-59.4771 L 1123.94,-59.9857 L 1123.91,-60.5 L 1123.94,-61.0143 L 1124.02,-61.5229 L 1124.15,-62.0204
 L 1124.34,-62.5011 L 1124.57,-62.96 L 1124.85,-63.3919 L 1125.18,-63.7921 L 1125.54,-64.1563 L 1125.94,-64.4804
 L 1126.28,-64.7024 L 1126.28,-74 L 1126.34,-74.5302 L 1126.5,-75.0372 L 1126.77,-75.4988 L 1127.13,-75.895
 L 1127.56,-76.2084 L 1128.05,-76.4252 L 1128.57,-76.536 L 1129.1,-76.536 L 1129.62,-76.4252 L 1130.11,-76.2084
 L 1130.54,-75.895 L 1130.9,-75.4988 L 1131.16,-75.0372 L 1131.33,-74.5302 L 1131.38,-74 L 1131.38,-64.7024
 L 1131.73,-64.4804 L 1132.13,-64.1563 L 1132.49,-63.7921 L 1132.81,-63.3919 L 1133.09,-62.96 L 1133.33,-62.5011
 L 1133.51,-62.0204 L 1133.65,-61.5229 L 1133.73,-61.0143 L 1133.75,-60.5 L 1133.73,-59.9857 L 1133.65,-59.4771
 L 1133.51,-58.9796 L 1133.33,-58.4989 L 1133.09,-58.04 L 1132.81,-57.6081 L 1132.49,-57.2079 L 1132.13,-56.8437
 L 1131.73,-56.5196 L 1131.29,-56.2392 L 1130.83,-56.0054 L 1130.35,-55.8208 L 1129.86,-55.6875 L 1129.35,-55.607
 L 1128.83,-55.58 z
M 1315.21,-55.607 L 1314.7,-55.6875 L 1314.2,-55.8208 L 1313.72,-56.0054 L 1313.26,-56.2392 L 1312.83,-56.5196
 L 1312.43,-56.8437 L 1312.07,-57.2079 L 1311.74,-57.6081 L 1311.46,-58.04 L 1311.23,-58.4989 L 1311.04,-58.9796
 L 1310.91,-59.4771 L 1310.83,-59.9857 L 1310.8,-60.5 L 1310.83,-61.0143 L 1310.91,-61.5229 L 1311.04,-62.0204
 L 1311.23,-62.5011 L 1311.46,-62.96 L 1311.74,-63.3919 L 1312.07,-63.7921 L 1312.43,-64.1563 L 1312.83,-64.4804
 L 1313.17,-64.7024 L 1313.17,-74 L 1313.23,-74.5302 L 1313.39,-75.0372 L 1313.66,-75.4988 L 1314.02,-75.895
 L 1314.45,-76.2084 L 1314.93,-76.4252 L 1315.46,-76.536 L 1315.99,-76.536 L 1316.51,-76.4252 L 1317,-76.2084
 L 1317.43,-75.895 L 1317.79,-75.4988 L 1318.05,-75.0372 L 1318.22,-74.5302 L 1318.27,-74 L 1318.27,-64.7024
 L 1318.61,-64.4804 L 1319.01,-64.1563 L 1319.38,-63.7921 L 1319.7,-63.3919 L 1319.98,-62.96 L 1320.22,-62.5011
 L 1320.4,-62.0204 L 1320.53,-61.5229 L 1320.62,-61.0143 L 1320.64,-60.5 L 1320.62,-59.9857 L 1320.53,-59.4771
 L 1320.4,-58.9796 L 1320.22,-58.4989 L 1319.98,-58.04 L 1319.7,-57.6081 L 1319.38,-57.2079 L 1319.01,-56.8437
 L 1318.61,-56.5196 L 1318.18,-56.2392 L 1317.72,-56.0054 L 1317.24,-55.8208 L 1316.75,-55.6875 L 1316.24,-55.607
 L 1315.72,-55.58 z
M 941.43,-55.607 L 940.922,-55.6875 L 940.424,-55.8208 L 939.943,-56.0054 L 939.484,-56.2392 L 939.053,-56.5196
 L 938.652,-56.8437 L 938.288,-57.2079 L 937.964,-57.6081 L 937.684,-58.04 L 937.45,-58.4989 L 937.265,-58.9796
 L 937.132,-59.4771 L 937.051,-59.9857 L 937.024,-60.5 L 937.051,-61.0143 L 937.132,-61.5229 L 937.265,-62.0204
 L 937.45,-62.5011 L 937.684,-62.96 L 937.964,-63.3919 L 938.288,-63.7921 L 938.652,-64.1563 L 939.053,-64.4804
 L 939.394,-64.7024 L 939.394,-74 L 939.45,-74.5302 L 939.615,-75.0372 L 939.881,-75.4988 L 940.238,-75.895
 L 940.669,-76.2084 L 941.156,-76.4252 L 941.678,-76.536 L 942.211,-76.536 L 942.732,-76.4252 L 943.219,-76.2084
 L 943.651,-75.895 L 944.007,-75.4988 L 944.274,-75.0372 L 944.439,-74.5302 L 944.494,-74 L 944.494,-64.7024
 L 944.836,-64.4804 L 945.237,-64.1563 L 945.601,-63.7921 L 945.925,-63.3919 L 946.205,-62.96 L 946.439,-62.5011
 L 946.624,-62.0204 L 946.757,-61.5229 L 946.837,-61.0143 L 946.864,-60.5 L 946.837,-59.9857 L 946.757,-59.4771
 L 946.624,-58.9796 L 946.439,-58.4989 L 946.205,-58.04 L 945.925,-57.6081 L 945.601,-57.2079 L 945.237,-56.8437
 L 944.836,-56.5196 L 944.404,-56.2392 L 943.946,-56.0054 L 943.465,-55.8208 L 942.967,-55.6875 L 942.459,-55.607
 L 941.944,-55.58 z
M 754.541,-55.607 L 754.033,-55.6875 L 753.535,-55.8208 L 753.054,-56.0054 L 752.596,-56.2392 L 752.164,-56.5196
 L 751.763,-56.8437 L 751.399,-57.2079 L 751.075,-57.6081 L 750.795,-58.04 L 750.561,-58.4989 L 750.376,-58.9796
 L 750.243,-59.4771 L 750.163,-59.9857 L 750.136,-60.5 L 750.163,-61.0143 L 750.243,-61.5229 L 750.376,-62.0204
 L 750.561,-62.5011 L 750.795,-62.96 L 751.075,-63.3919 L 751.399,-63.7921 L 751.763,-64.1563 L 752.164,-64.4804
 L 752.506,-64.7024 L 752.506,-74 L 752.561,-74.5302 L 752.726,-75.0372 L 752.993,-75.4988 L 753.349,-75.895
 L 753.781,-76.2084 L 754.268,-76.4252 L 754.789,-76.536 L 755.322,-76.536 L 755.844,-76.4252 L 756.331,-76.2084
 L 756.762,-75.895 L 757.119,-75.4988 L 757.385,-75.0372 L 757.55,-74.5302 L 757.606,-74 L 757.606,-64.7024
 L 757.947,-64.4804 L 758.348,-64.1563 L 758.712,-63.7921 L 759.036,-63.3919 L 759.316,-62.96 L 759.55,-62.5011
 L 759.735,-62.0204 L 759.868,-61.5229 L 759.949,-61.0143 L 759.976,-60.5 L 759.949,-59.9857 L 759.868,-59.4771
 L 759.735,-58.9796 L 759.55,-58.4989 L 759.316,-58.04 L 759.036,-57.6081 L 758.712,-57.2079 L 758.348,-56.8437
 L 757.947,-56.5196 L 757.516,-56.2392 L 757.057,-56.0054 L 756.576,-55.8208 L 756.078,-55.6875 L 755.57,-55.607
 L 755.056,-55.58 z
M 1502.1,-55.607 L 1501.59,-55.6875 L 1501.09,-55.8208 L 1500.61,-56.0054 L 1500.15,-56.2392 L 1499.72,-56.5196
 L 1499.32,-56.8437 L 1498.95,-57.2079 L 1498.63,-57.6081 L 1498.35,-58.04 L 1498.12,-58.4989 L 1497.93,-58.9796
 L 1497.8,-59.4771 L 1497.72,-59.9857 L 1497.69,-60.5 L 1497.72,-61.0143 L 1497.8,-61.5229 L 1497.93,-62.0204
 L 1498.12,-62.5011 L 1498.35,-62.96 L 1498.63,-63.3919 L 1498.95,-63.7921 L 1499.32,-64.1563 L 1499.72,-64.4804
 L 1500.06,-64.7024 L 1500.06,-74 L 1500.12,-74.5302 L 1500.28,-75.0372 L 1500.55,-75.4988 L 1500.9,-75.895
 L 1501.34,-76.2084 L 1501.82,-76.4252 L 1502.34,-76.536 L 1502.88,-76.536 L 1503.4,-76.4252 L 1503.89,-76.2084
 L 1504.32,-75.895 L 1504.67,-75.4988 L 1504.94,-75.0372 L 1505.11,-74.5302 L 1505.16,-74 L 1505.16,-64.7024
 L 1505.5,-64.4804 L 1505.9,-64.1563 L 1506.27,-63.7921 L 1506.59,-63.3919 L 1506.87,-62.96 L 1507.11,-62.5011
 L 1507.29,-62.0204 L 1507.42,-61.5229 L 1507.5,-61.0143 L 1507.53,-60.5 L 1507.5,-59.9857 L 1507.42,-59.4771
 L 1507.29,-58.9796 L 1507.11,-58.4989 L 1506.87,-58.04 L 1506.59,-57.6081 L 1506.27,-57.2079 L 1505.9,-56.8437
 L 1505.5,-56.5196 L 1505.07,-56.2392 L 1504.61,-56.0054 L 1504.13,-55.8208 L 1503.63,-55.6875 L 1503.13,-55.607
 L 1502.61,-55.58 z
M 567.652,-55.607 L 567.144,-55.6875 L 566.646,-55.8208 L 566.166,-56.0054 L 565.707,-56.2392 L 565.275,-56.5196
 L 564.875,-56.8437 L 564.51,-57.2079 L 564.186,-57.6081 L 563.906,-58.04 L 563.672,-58.4989 L 563.487,-58.9796
 L 563.354,-59.4771 L 563.274,-59.9857 L 563.247,-60.5 L 563.274,-61.0143 L 563.354,-61.5229 L 563.487,-62.0204
 L 563.672,-62.5011 L 563.906,-62.96 L 564.186,-63.3919 L 564.51,-63.7921 L 564.875,-64.1563 L 565.275,-64.4804
 L 565.617,-64.7024 L 565.617,-74 L 565.672,-74.5302 L 565.837,-75.0372 L 566.104,-75.4988 L 566.46,-75.895
 L 566.892,-76.2084 L 567.379,-76.4252 L 567.9,-76.536 L 568.433,-76.536 L 568.955,-76.4252 L 569.442,-76.2084
 L 569.873,-75.895 L 570.23,-75.4988 L 570.496,-75.0372 L 570.661,-74.5302 L 570.717,-74 L 570.717,-64.7024
 L 571.059,-64.4804 L 571.459,-64.1563 L 571.823,-63.7921 L 572.147,-63.3919 L 572.427,-62.96 L 572.661,-62.5011
 L 572.846,-62.0204 L 572.979,-61.5229 L 573.06,-61.0143 L 573.087,-60.5 L 573.06,-59.9857 L 572.979,-59.4771
 L 572.846,-58.9796 L 572.661,-58.4989 L 572.427,-58.04 L 572.147,-57.6081 L 571.823,-57.2079 L 571.459,-56.8437
 L 571.059,-56.5196 L 570.627,-56.2392 L 570.168,-56.0054 L 569.687,-55.8208 L 569.19,-55.6875 L 568.681,-55.607
 L 568.167,-55.58 z
M 380.764,-55.607 L 380.255,-55.6875 L 379.757,-55.8208 L 379.277,-56.0054 L 378.818,-56.2392 L 378.386,-56.5196
 L 377.986,-56.8437 L 377.622,-57.2079 L 377.297,-57.6081 L 377.017,-58.04 L 376.783,-58.4989 L 376.599,-58.9796
 L 376.465,-59.4771 L 376.385,-59.9857 L 376.358,-60.5 L 376.385,-61.0143 L 376.465,-61.5229 L 376.599,-62.0204
 L 376.783,-62.5011 L 377.017,-62.96 L 377.297,-63.3919 L 377.622,-63.7921 L 377.986,-64.1563 L 378.386,-64.4804
 L 378.728,-64.7024 L 378.728,-74 L 378.784,-74.5302 L 378.948,-75.0372 L 379.215,-75.4988 L 379.572,-75.895
 L 380.003,-76.2084 L 380.49,-76.4252 L 381.011,-76.536 L 381.544,-76.536 L 382.066,-76.4252 L 382.553,-76.2084
 L 382.984,-75.895 L 383.341,-75.4988 L 383.607,-75.0372 L 383.772,-74.5302 L 383.828,-74 L 383.828,-64.7024
 L 384.17,-64.4804 L 384.57,-64.1563 L 384.934,-63.7921 L 385.258,-63.3919 L 385.539,-62.96 L 385.772,-62.5011
 L 385.957,-62.0204 L 386.09,-61.5229 L 386.171,-61.0143 L 386.198,-60.5 L 386.171,-59.9857 L 386.09,-59.4771
 L 385.957,-58.9796 L 385.772,-58.4989 L 385.539,-58.04 L 385.258,-57.6081 L 384.934,-57.2079 L 384.57,-56.8437
 L 384.17,-56.5196 L 383.738,-56.2392 L 383.279,-56.0054 L 382.798,-55.8208 L 382.301,-55.6875 L 381.792,-55.607
 L 381.278,-55.58 z
M 1688.99,-55.607 L 1688.48,-55.6875 L 1687.98,-55.8208 L 1687.5,-56.0054 L 1687.04,-56.2392 L 1686.61,-56.5196
 L 1686.21,-56.8437 L 1685.84,-57.2079 L 1685.52,-57.6081 L 1685.24,-58.04 L 1685.01,-58.4989 L 1684.82,-58.9796
 L 1684.69,-59.4771 L 1684.61,-59.9857 L 1684.58,-60.5 L 1684.61,-61.0143 L 1684.69,-61.5229 L 1684.82,-62.0204
 L 1685.01,-62.5011 L 1685.24,-62.96 L 1685.52,-63.3919 L 1685.84,-63.7921 L 1686.21,-64.1563 L 1686.61,-64.4804
 L 1686.95,-64.7024 L 1686.95,-74 L 1687.01,-74.5302 L 1687.17,-75.0372 L 1687.44,-75.4988 L 1687.79,-75.895
 L 1688.23,-76.2084 L 1688.71,-76.4252 L 1689.23,-76.536 L 1689.77,-76.536 L 1690.29,-76.4252 L 1690.77,-76.2084
 L 1691.21,-75.895 L 1691.56,-75.4988 L 1691.83,-75.0372 L 1691.99,-74.5302 L 1692.05,-74 L 1692.05,-64.7024
 L 1692.39,-64.4804 L 1692.79,-64.1563 L 1693.16,-63.7921 L 1693.48,-63.3919 L 1693.76,-62.96 L 1693.99,-62.5011
 L 1694.18,-62.0204 L 1694.31,-61.5229 L 1694.39,-61.0143 L 1694.42,-60.5 L 1694.39,-59.9857 L 1694.31,-59.4771
 L 1694.18,-58.9796 L 1693.99,-58.4989 L 1693.76,-58.04 L 1693.48,-57.6081 L 1693.16,-57.2079 L 1692.79,-56.8437
 L 1692.39,-56.5196 L 1691.96,-56.2392 L 1691.5,-56.0054 L 1691.02,-55.8208 L 1690.52,-55.6875 L 1690.01,-55.607
 L 1689.5,-55.58 z
M 193.875,-55.607 L 193.366,-55.6875 L 192.869,-55.8208 L 192.388,-56.0054 L 191.929,-56.2392 L 191.497,-56.5196
 L 191.097,-56.8437 L 190.733,-57.2079 L 190.409,-57.6081 L 190.128,-58.04 L 189.894,-58.4989 L 189.71,-58.9796
 L 189.576,-59.4771 L 189.496,-59.9857 L 189.469,-60.5 L 189.496,-61.0143 L 189.576,-61.5229 L 189.71,-62.0204
 L 189.894,-62.5011 L 190.128,-62.96 L 190.409,-63.3919 L 190.733,-63.7921 L 191.097,-64.1563 L 191.497,-64.4804
 L 191.839,-64.7024 L 191.839,-74 L 191.895,-74.5302 L 192.059,-75.0372 L 192.326,-75.4988 L 192.683,-75.895
 L 193.114,-76.2084 L 193.601,-76.4252 L 194.122,-76.536 L 194.655,-76.536 L 195.177,-76.4252 L 195.664,-76.2084
 L 196.095,-75.895 L 196.452,-75.4988 L 196.718,-75.0372 L 196.883,-74.5302 L 196.939,-74 L 196.939,-64.7024
 L 197.281,-64.4804 L 197.681,-64.1563 L 198.045,-63.7921 L 198.369,-63.3919 L 198.65,-62.96 L 198.884,-62.5011
 L 199.068,-62.0204 L 199.201,-61.5229 L 199.282,-61.0143 L 199.309,-60.5 L 199.282,-59.9857 L 199.201,-59.4771
 L 199.068,-58.9796 L 198.884,-58.4989 L 198.65,-58.04 L 198.369,-57.6081 L 198.045,-57.2079 L 197.681,-56.8437
 L 197.281,-56.5196 L 196.849,-56.2392 L 196.39,-56.0054 L 195.909,-55.8208 L 195.412,-55.6875 L 194.903,-55.607
 L 194.389,-55.58 z
M 1140.73,-20.7106 L 1139.96,-21.0239 L 1139.26,-21.4916 L 1138.68,-22.0932 L 1138.24,-22.8024 L 1137.95,-23.5882
 L 1137.83,-24.5555 L 1137.83,-58 L 1137.92,-58.8316 L 1138.18,-59.627 L 1138.6,-60.3511 L 1139.16,-60.9726
 L 1139.83,-61.4641 L 1140.6,-61.8042 L 1141.83,-62 L 1233.75,-62 L 1234.58,-61.9126 L 1235.38,-61.6542
 L 1236.1,-61.2361 L 1236.72,-60.6765 L 1237.22,-60 L 1237.56,-59.2361 L 1237.73,-58.4181 L 1237.73,-57.5819
 L 1237.56,-56.7639 L 1237.22,-56 L 1236.72,-55.3235 L 1236.1,-54.7639 L 1235.12,-54.2411 L 1143.2,-20.7966
 L 1142.39,-20.5943 L 1141.55,-20.5652 z
M 953.841,-20.7106 L 953.066,-21.0239 L 952.373,-21.4916 L 951.792,-22.0932 L 951.349,-22.8024 L 951.063,-23.5882
 L 950.944,-24.5555 L 950.944,-58 L 951.032,-58.8316 L 951.29,-59.627 L 951.708,-60.3511 L 952.268,-60.9726
 L 952.944,-61.4641 L 953.708,-61.8042 L 954.944,-62 L 1046.86,-62 L 1047.69,-61.9126 L 1048.49,-61.6542
 L 1049.21,-61.2361 L 1049.83,-60.6765 L 1050.33,-60 L 1050.67,-59.2361 L 1050.84,-58.4181 L 1050.84,-57.5819
 L 1050.67,-56.7639 L 1050.33,-56 L 1049.83,-55.3235 L 1049.21,-54.7639 L 1048.23,-54.2411 L 956.312,-20.7966
 L 955.501,-20.5943 L 954.665,-20.5652 z
M 847.944,-47.7373 L 847.132,-47.9395 L 829.813,-54.2411 L 828.83,-54.7639 L 828.208,-55.3235 L 827.717,-56
 L 827.377,-56.7639 L 827.203,-57.5819 L 827.203,-58.4181 L 827.377,-59.2361 L 827.717,-60 L 828.208,-60.6765
 L 828.83,-61.2361 L 829.554,-61.6542 L 830.349,-61.9126 L 831.181,-62 L 865.819,-62 L 866.922,-61.8449
 L 867.697,-61.5316 L 868.391,-61.0639 L 868.971,-60.4623 L 869.414,-59.7531 L 869.7,-58.9673 L 869.817,-58.1392
 L 869.758,-57.305 L 869.528,-56.5012 L 869.135,-55.7629 L 868.597,-55.1223 L 867.938,-54.6076 L 867.187,-54.2411
 L 849.868,-47.9395 L 848.779,-47.7082 z
M 741.499,-20.5943 L 740.688,-20.7966 L 648.77,-54.2411 L 647.787,-54.7639 L 647.165,-55.3235 L 646.674,-56
 L 646.334,-56.7639 L 646.16,-57.5819 L 646.16,-58.4181 L 646.334,-59.2361 L 646.674,-60 L 647.165,-60.6765
 L 647.787,-61.2361 L 648.511,-61.6542 L 649.306,-61.9126 L 650.138,-62 L 742.056,-62 L 743.292,-61.8042
 L 744.056,-61.4641 L 744.732,-60.9726 L 745.292,-60.3511 L 745.71,-59.627 L 745.968,-58.8316 L 746.056,-58
 L 746.056,-24.5555 L 745.937,-23.5882 L 745.651,-22.8024 L 745.208,-22.0932 L 744.627,-21.4916 L 743.934,-21.0239
 L 743.158,-20.7106 L 742.335,-20.5652 z
M 554.61,-20.5943 L 553.799,-20.7966 L 461.881,-54.2411 L 460.898,-54.7639 L 460.276,-55.3235 L 459.785,-56
 L 459.445,-56.7639 L 459.271,-57.5819 L 459.271,-58.4181 L 459.445,-59.2361 L 459.785,-60 L 460.276,-60.6765
 L 460.898,-61.2361 L 461.622,-61.6542 L 462.417,-61.9126 L 463.249,-62 L 555.167,-62 L 556.403,-61.8042
 L 557.167,-61.4641 L 557.843,-60.9726 L 558.403,-60.3511 L 558.821,-59.627 L 559.079,-58.8316 L 559.167,-58
 L 559.167,-24.5555 L 559.048,-23.5882 L 558.762,-22.8024 L 558.319,-22.0932 L 557.738,-21.4916 L 557.045,-21.0239
 L 556.27,-20.7106 L 555.446,-20.5652 z
M 367.721,-20.5943 L 366.91,-20.7966 L 274.992,-54.2411 L 274.009,-54.7639 L 273.387,-55.3235 L 272.896,-56
 L 272.556,-56.7639 L 272.382,-57.5819 L 272.382,-58.4181 L 272.556,-59.2361 L 272.896,-60 L 273.387,-60.6765
 L 274.009,-61.2361 L 274.733,-61.6542 L 275.528,-61.9126 L 276.36,-62 L 368.278,-62 L 369.514,-61.8042
 L 370.278,-61.4641 L 370.954,-60.9726 L 371.514,-60.3511 L 371.932,-59.627 L 372.19,-58.8316 L 372.278,-58
 L 372.278,-24.5555 L 372.159,-23.5882 L 371.873,-22.8024 L 371.43,-22.0932 L 370.849,-21.4916 L 370.156,-21.0239
 L 369.381,-20.7106 L 368.557,-20.5652 z
M 1514.51,-20.7106 L 1513.73,-21.0239 L 1513.04,-21.4916 L 1512.46,-22.0932 L 1512.02,-22.8024 L 1511.73,-23.5882
 L 1511.61,-24.5555 L 1511.61,-58 L 1511.7,-58.8316 L 1511.96,-59.627 L 1512.38,-60.3511 L 1512.93,-60.9726
 L 1513.61,-61.4641 L 1514.38,-61.8042 L 1515.61,-62 L 1607.53,-62 L 1608.36,-61.9126 L 1609.16,-61.6542
 L 1609.88,-61.2361 L 1610.5,-60.6765 L 1610.99,-60 L 1611.33,-59.2361 L 1611.51,-58.4181 L 1611.51,-57.5819
 L 1611.33,-56.7639 L 1610.99,-56 L 1610.5,-55.3235 L 1609.88,-54.7639 L 1608.9,-54.2411 L 1516.98,-20.7966
 L 1516.17,-20.5943 L 1515.33,-20.5652 z
M 180.833,-20.5943 L 180.021,-20.7966 L 88.1034,-54.2411 L 87.12,-54.7639 L 86.4985,-55.3235 L 86.007,-56
 L 85.6669,-56.7639 L 85.493,-57.5819 L 85.493,-58.4181 L 85.6669,-59.2361 L 86.007,-60 L 86.4985,-60.6765
 L 87.12,-61.2361 L 87.8441,-61.6542 L 88.6395,-61.9126 L 89.4711,-62 L 181.389,-62 L 182.625,-61.8042
 L 183.389,-61.4641 L 184.065,-60.9726 L 184.625,-60.3511 L 185.043,-59.627 L 185.301,-58.8316 L 185.389,-58
 L 185.389,-24.5555 L 185.27,-23.5882 L 184.984,-22.8024 L 184.541,-22.0932 L 183.96,-21.4916 L 183.267,-21.0239
 L 182.492,-20.7106 L 181.668,-20.5652 z
M 1327.62,-20.7106 L 1326.84,-21.0239 L 1326.15,-21.4916 L 1325.57,-22.0932 L 1325.13,-22.8024 L 1324.84,-23.5882
 L 1324.72,-24.5555 L 1324.72,-58 L 1324.81,-58.8316 L 1325.07,-59.627 L 1325.49,-60.3511 L 1326.05,-60.9726
 L 1326.72,-61.4641 L 1327.49,-61.8042 L 1328.72,-62 L 1420.64,-62 L 1421.47,-61.9126 L 1422.27,-61.6542
 L 1422.99,-61.2361 L 1423.61,-60.6765 L 1424.1,-60 L 1424.44,-59.2361 L 1424.62,-58.4181 L 1424.62,-57.5819
 L 1424.44,-56.7639 L 1424.1,-56 L 1423.61,-55.3235 L 1422.99,-54.7639 L 1422.01,-54.2411 L 1330.09,-20.7966
 L 1329.28,-20.5943 L 1328.44,-20.5652 z
M 767.637,-18.4504 L 766.819,-18.6243 L 766.056,-18.9644 L 765.379,-19.4559 L 764.819,-20.0774 L 764.401,-20.8016
 L 764.143,-21.5969 L 764.056,-22.4285 L 764.056,-57.5715 L 764.174,-58.5388 L 764.46,-59.3246 L 764.903,-60.0338
 L 765.484,-60.6354 L 766.177,-61.1031 L 766.953,-61.4164 L 767.776,-61.5617 L 768.612,-61.5326 L 769.423,-61.3304
 L 817.716,-43.7589 L 818.227,-43.5316 L 818.92,-43.0639 L 819.501,-42.4623 L 819.944,-41.7531 L 820.23,-40.9673
 L 820.346,-40.1392 L 820.288,-39.305 L 820.057,-38.5012 L 819.664,-37.7629 L 819.127,-37.1223 L 818.468,-36.6076
 L 817.716,-36.2411 L 769.423,-18.6696 L 768.474,-18.4504 z
M 928.388,-18.4674 L 927.577,-18.6696 L 879.284,-36.2411 L 878.773,-36.4684 L 878.08,-36.9361 L 877.499,-37.5377
 L 877.056,-38.2469 L 876.77,-39.0327 L 876.654,-39.8608 L 876.712,-40.695 L 876.943,-41.4988 L 877.336,-42.2371
 L 877.873,-42.8777 L 878.532,-43.3924 L 879.284,-43.7589 L 927.577,-61.3304 L 928.526,-61.5496 L 929.363,-61.5496
 L 930.18,-61.3757 L 930.944,-61.0356 L 931.621,-60.5441 L 932.18,-59.9226 L 932.599,-59.1985 L 932.857,-58.4032
 L 932.944,-57.5715 L 932.944,-22.4285 L 932.826,-21.4612 L 932.54,-20.6754 L 932.097,-19.9662 L 931.516,-19.3646
 L 930.823,-18.8969 L 930.047,-18.5836 L 929.224,-18.4383 z
M 207.389,-18 L 206.153,-18.1958 L 205.389,-18.5359 L 204.712,-19.0274 L 204.153,-19.6489 L 203.735,-20.373
 L 203.476,-21.1684 L 203.389,-22 L 203.389,-55.4445 L 203.508,-56.4118 L 203.794,-57.1976 L 204.237,-57.9068
 L 204.817,-58.5084 L 205.511,-58.9761 L 206.286,-59.2894 L 207.109,-59.4347 L 207.945,-59.4056 L 208.757,-59.2034
 L 300.674,-25.7589 L 301.658,-25.2361 L 302.279,-24.6765 L 302.771,-24 L 303.111,-23.2361 L 303.285,-22.4181
 L 303.285,-21.5819 L 303.111,-20.7639 L 302.771,-20 L 302.279,-19.3235 L 301.658,-18.7639 L 300.934,-18.3458
 L 300.138,-18.0874 L 299.307,-18 z
M 394.278,-18 L 393.042,-18.1958 L 392.278,-18.5359 L 391.601,-19.0274 L 391.042,-19.6489 L 390.624,-20.373
 L 390.365,-21.1684 L 390.278,-22 L 390.278,-55.4445 L 390.396,-56.4118 L 390.682,-57.1976 L 391.125,-57.9068
 L 391.706,-58.5084 L 392.4,-58.9761 L 393.175,-59.2894 L 393.998,-59.4347 L 394.834,-59.4056 L 395.645,-59.2034
 L 487.563,-25.7589 L 488.547,-25.2361 L 489.168,-24.6765 L 489.66,-24 L 490,-23.2361 L 490.174,-22.4181
 L 490.174,-21.5819 L 490,-20.7639 L 489.66,-20 L 489.168,-19.3235 L 488.547,-18.7639 L 487.822,-18.3458
 L 487.027,-18.0874 L 486.196,-18 z
M 581.167,-18 L 579.931,-18.1958 L 579.167,-18.5359 L 578.49,-19.0274 L 577.931,-19.6489 L 577.512,-20.373
 L 577.254,-21.1684 L 577.167,-22 L 577.167,-55.4445 L 577.285,-56.4118 L 577.571,-57.1976 L 578.014,-57.9068
 L 578.595,-58.5084 L 579.288,-58.9761 L 580.064,-59.2894 L 580.887,-59.4347 L 581.723,-59.4056 L 582.534,-59.2034
 L 674.452,-25.7589 L 675.436,-25.2361 L 676.057,-24.6765 L 676.549,-24 L 676.889,-23.2361 L 677.062,-22.4181
 L 677.062,-21.5819 L 676.889,-20.7639 L 676.549,-20 L 676.057,-19.3235 L 675.436,-18.7639 L 674.711,-18.3458
 L 673.916,-18.0874 L 673.084,-18 z
M 1023.92,-18 L 1023.08,-18.0874 L 1022.29,-18.3458 L 1021.56,-18.7639 L 1020.94,-19.3235 L 1020.45,-20
 L 1020.11,-20.7639 L 1019.94,-21.5819 L 1019.94,-22.4181 L 1020.11,-23.2361 L 1020.45,-24 L 1020.94,-24.6765
 L 1021.56,-25.2361 L 1022.55,-25.7589 L 1114.47,-59.2034 L 1115.28,-59.4056 L 1116.11,-59.4347 L 1116.94,-59.2894
 L 1117.71,-58.9761 L 1118.4,-58.5084 L 1118.99,-57.9068 L 1119.43,-57.1976 L 1119.71,-56.4118 L 1119.83,-55.4445
 L 1119.83,-22 L 1119.75,-21.1684 L 1119.49,-20.373 L 1119.07,-19.6489 L 1118.51,-19.0274 L 1117.83,-18.5359
 L 1117.07,-18.1958 L 1115.83,-18 z
M 1210.8,-18 L 1209.97,-18.0874 L 1209.18,-18.3458 L 1208.45,-18.7639 L 1207.83,-19.3235 L 1207.34,-20
 L 1207,-20.7639 L 1206.83,-21.5819 L 1206.83,-22.4181 L 1207,-23.2361 L 1207.34,-24 L 1207.83,-24.6765
 L 1208.45,-25.2361 L 1209.44,-25.7589 L 1301.35,-59.2034 L 1302.17,-59.4056 L 1303,-59.4347 L 1303.83,-59.2894
 L 1304.6,-58.9761 L 1305.29,-58.5084 L 1305.87,-57.9068 L 1306.32,-57.1976 L 1306.6,-56.4118 L 1306.72,-55.4445
 L 1306.72,-22 L 1306.63,-21.1684 L 1306.38,-20.373 L 1305.96,-19.6489 L 1305.4,-19.0274 L 1304.72,-18.5359
 L 1303.96,-18.1958 L 1302.72,-18 z
M 1397.69,-18 L 1396.86,-18.0874 L 1396.07,-18.3458 L 1395.34,-18.7639 L 1394.72,-19.3235 L 1394.23,-20
 L 1393.89,-20.7639 L 1393.72,-21.5819 L 1393.72,-22.4181 L 1393.89,-23.2361 L 1394.23,-24 L 1394.72,-24.6765
 L 1395.34,-25.2361 L 1396.33,-25.7589 L 1488.24,-59.2034 L 1489.05,-59.4056 L 1489.89,-59.4347 L 1490.71,-59.2894
 L 1491.49,-58.9761 L 1492.18,-58.5084 L 1492.76,-57.9068 L 1493.21,-57.1976 L 1493.49,-56.4118 L 1493.61,-55.4445
 L 1493.61,-22 L 1493.52,-21.1684 L 1493.27,-20.373 L 1492.85,-19.6489 L 1492.29,-19.0274 L 1491.61,-18.5359
 L 1490.85,-18.1958 L 1489.61,-18 z
M 22,-18 L 20.7639,-18.1958 L 20,-18.5359 L 19.3235,-19.0274 L 18.7639,-19.6489 L 18.3458,-20.373
 L 18.0874,-21.1684 L 18,-22 L 18,-54.8987 L 18.1187,-55.866 L 18.4046,-56.6518 L 18.8477,-57.361
 L 19.4285,-57.9626 L 20.1217,-58.4303 L 20.897,-58.7437 L 21.7206,-58.889 L 22.5563,-58.8599 L 23.3677,-58.6576
 L 113.785,-25.7589 L 114.769,-25.2361 L 115.39,-24.6765 L 115.882,-24 L 116.222,-23.2361 L 116.396,-22.4181
 L 116.396,-21.5819 L 116.222,-20.7639 L 115.882,-20 L 115.39,-19.3235 L 114.769,-18.7639 L 114.045,-18.3458
 L 113.249,-18.0874 L 112.418,-18 z
M 1584.58,-18 L 1583.75,-18.0874 L 1582.96,-18.3458 L 1582.23,-18.7639 L 1581.61,-19.3235 L 1581.12,-20
 L 1580.78,-20.7639 L 1580.6,-21.5819 L 1580.6,-22.4181 L 1580.78,-23.2361 L 1581.12,-24 L 1581.61,-24.6765
 L 1582.23,-25.2361 L 1583.21,-25.7589 L 1673.63,-58.6576 L 1674.44,-58.8599 L 1675.28,-58.889 L 1676.1,-58.7437
 L 1676.88,-58.4303 L 1677.57,-57.9626 L 1678.15,-57.361 L 1678.6,-56.6518 L 1678.88,-55.866 L 1679,-54.8987
 L 1679,-22 L 1678.91,-21.1684 L 1678.65,-20.373 L 1678.24,-19.6489 L 1677.68,-19.0274 L 1677,-18.5359
 L 1676.24,-18.1958 L 1675,-18 z
M 831.181,-18 L 830.078,-18.1551 L 829.303,-18.4684 L 828.609,-18.9361 L 828.029,-19.5377 L 827.586,-20.2469
 L 827.3,-21.0327 L 827.183,-21.8608 L 827.242,-22.695 L 827.472,-23.4988 L 827.865,-24.2371 L 828.403,-24.8776
 L 829.062,-25.3924 L 829.813,-25.7589 L 847.132,-32.0605 L 848.221,-32.2918 L 849.056,-32.2627 L 849.868,-32.0605
 L 867.187,-25.7589 L 868.17,-25.2361 L 868.792,-24.6765 L 869.283,-24 L 869.623,-23.2361 L 869.797,-22.4181
 L 869.797,-21.5819 L 869.623,-20.7639 L 869.283,-20 L 868.792,-19.3235 L 868.17,-18.7639 L 867.446,-18.3458
 L 866.651,-18.0874 L 865.819,-18 z
" stroke="black" fill="lightgray" stroke-width="0.5"/>
</svg>
