<?xml version="1.0" standalone="no"?>
<!DOCTYPE svg PUBLIC "-//W3C//DTD SVG 1.1//EN" "http://www.w3.org/Graphics/SVG/1.1/DTD/svg11.dtd">
<svg width="1361mm" height="80mm" viewBox="0 -80 1361 80" xmlns="http://www.w3.org/2000/svg" version="1.1">
<title>OpenSCAD Model</title>
<path d="
M 1361,-80 L 0,-80 L 0,-0 L 4.95,-0 L 4.95,-6 L 5.00572,-6.53017
 L 5.17046,-7.03717 L 5.437,-7.49884 L 5.79372,-7.895 L 6.22499,-8.20836 L 6.71201,-8.42519 L 7.23344,-8.53603
 L 7.76654,-8.53603 L 8.28798,-8.42519 L 8.77499,-8.20836 L 9.20627,-7.895 L 9.56299,-7.49884 L 9.82953,-7.03717
 L 9.99426,-6.53017 L 10.05,-6 L 10.05,-0 L 197.236,-0 L 197.236,-6 L 197.291,-6.53017
 L 197.456,-7.03717 L 197.723,-7.49884 L 198.079,-7.895 L 198.511,-8.20836 L 198.998,-8.42519 L 199.519,-8.53603
 L 200.052,-8.53603 L 200.574,-8.42519 L 201.061,-8.20836 L 201.492,-7.895 L 201.849,-7.49884 L 202.115,-7.03717
 L 202.28,-6.53017 L 202.336,-6 L 202.336,-0 L 389.521,-0 L 389.521,-6 L 389.577,-6.53017
 L 389.742,-7.03717 L 390.008,-7.49884 L 390.365,-7.895 L 390.796,-8.20836 L 391.283,-8.42519 L 391.805,-8.53603
 L 392.338,-8.53603 L 392.859,-8.42519 L 393.346,-8.20836 L 393.778,-7.895 L 394.134,-7.49884 L 394.401,-7.03717
 L 394.566,-6.53017 L 394.621,-6 L 394.621,-0 L 581.807,-0 L 581.807,-6 L 581.863,-6.53017
 L 582.028,-7.03717 L 582.294,-7.49884 L 582.651,-7.895 L 583.082,-8.20836 L 583.569,-8.42519 L 584.091,-8.53603
 L 584.624,-8.53603 L 585.145,-8.42519 L 585.632,-8.20836 L 586.063,-7.895 L 586.42,-7.49884 L 586.687,-7.03717
 L 586.851,-6.53017 L 586.907,-6 L 586.907,-0 L 774.093,-0 L 774.093,-6 L 774.149,-6.53017
 L 774.313,-7.03717 L 774.58,-7.49884 L 774.937,-7.895 L 775.368,-8.20836 L 775.855,-8.42519 L 776.376,-8.53603
 L 776.909,-8.53603 L 777.431,-8.42519 L 777.918,-8.20836 L 778.349,-7.895 L 778.706,-7.49884 L 778.972,-7.03717
 L 779.137,-6.53017 L 779.193,-6 L 779.193,-0 L 966.379,-0 L 966.379,-6 L 966.434,-6.53017
 L 966.599,-7.03717 L 966.866,-7.49884 L 967.222,-7.895 L 967.654,-8.20836 L 968.141,-8.42519 L 968.662,-8.53603
 L 969.195,-8.53603 L 969.717,-8.42519 L 970.204,-8.20836 L 970.635,-7.895 L 970.992,-7.49884 L 971.258,-7.03717
 L 971.423,-6.53017 L 971.479,-6 L 971.479,-0 L 1158.66,-0 L 1158.66,-6 L 1158.72,-6.53017
 L 1158.88,-7.03717 L 1159.15,-7.49884 L 1159.51,-7.895 L 1159.94,-8.20836 L 1160.43,-8.42519 L 1160.95,-8.53603
 L 1161.48,-8.53603 L 1162,-8.42519 L 1162.49,-8.20836 L 1162.92,-7.895 L 1163.28,-7.49884 L 1163.54,-7.03717
 L 1163.71,-6.53017 L 1163.76,-6 L 1163.76,-0 L 1350.95,-0 L 1350.95,-6 L 1351.01,-6.53017
 L 1351.17,-7.03717 L 1351.44,-7.49884 L 1351.79,-7.895 L 1352.22,-8.20836 L 1352.71,-8.42519 L 1353.23,-8.53603
 L 1353.77,-8.53603 L 1354.29,-8.42519 L 1354.77,-8.20836 L 1355.21,-7.895 L 1355.56,-7.49884 L 1355.83,-7.03717
 L 1355.99,-6.53017 L 1356.05,-6 L 1356.05,-0 L 1361,-0 z
M 6.98573,-55.607 L 6.47708,-55.6875 L 5.97964,-55.8208 L 5.49887,-56.0054 L 5.04001,-56.2392 L 4.60811,-56.5196
 L 4.20789,-56.8437 L 3.84373,-57.2079 L 3.51964,-57.6081 L 3.23917,-58.04 L 3.00537,-58.4989 L 2.82082,-58.9796
 L 2.68752,-59.4771 L 2.60696,-59.9857 L 2.58,-60.5 L 2.60696,-61.0143 L 2.68752,-61.5229 L 2.82082,-62.0204
 L 3.00537,-62.5011 L 3.23917,-62.96 L 3.51964,-63.3919 L 3.84373,-63.7921 L 4.20789,-64.1563 L 4.60811,-64.4804
 L 4.95001,-64.7024 L 4.95001,-74 L 5.00574,-74.5302 L 5.17047,-75.0372 L 5.43701,-75.4988 L 5.79373,-75.895
 L 6.22501,-76.2084 L 6.71202,-76.4252 L 7.23346,-76.536 L 7.76654,-76.536 L 8.28798,-76.4252 L 8.77499,-76.2084
 L 9.20627,-75.895 L 9.56299,-75.4988 L 9.82953,-75.0372 L 9.99426,-74.5302 L 10.05,-74 L 10.05,-64.7024
 L 10.3919,-64.4804 L 10.7921,-64.1563 L 11.1563,-63.7921 L 11.4804,-63.3919 L 11.7608,-62.96 L 11.9946,-62.5011
 L 12.1792,-62.0204 L 12.3125,-61.5229 L 12.393,-61.0143 L 12.42,-60.5 L 12.393,-59.9857 L 12.3125,-59.4771
 L 12.1792,-58.9796 L 11.9946,-58.4989 L 11.7608,-58.04 L 11.4804,-57.6081 L 11.1563,-57.2079 L 10.7921,-56.8437
 L 10.3919,-56.5196 L 9.95999,-56.2392 L 9.50113,-56.0054 L 9.02036,-55.8208 L 8.52292,-55.6875 L 8.01427,-55.607
 L 7.5,-55.58 z
M 199.271,-55.607 L 198.763,-55.6875 L 198.265,-55.8208 L 197.785,-56.0054 L 197.326,-56.2392 L 196.894,-56.5196
 L 196.494,-56.8437 L 196.129,-57.2079 L 195.805,-57.6081 L 195.525,-58.04 L 195.291,-58.4989 L 195.107,-58.9796
 L 194.973,-59.4771 L 194.893,-59.9857 L 194.866,-60.5 L 194.893,-61.0143 L 194.973,-61.5229 L 195.107,-62.0204
 L 195.291,-62.5011 L 195.525,-62.96 L 195.805,-63.3919 L 196.129,-63.7921 L 196.494,-64.1563 L 196.894,-64.4804
 L 197.236,-64.7024 L 197.236,-74 L 197.291,-74.5302 L 197.456,-75.0372 L 197.723,-75.4988 L 198.079,-75.895
 L 198.511,-76.2084 L 198.998,-76.4252 L 199.519,-76.536 L 200.052,-76.536 L 200.574,-76.4252 L 201.061,-76.2084
 L 201.492,-75.895 L 201.849,-75.4988 L 202.115,-75.0372 L 202.28,-74.5302 L 202.336,-74 L 202.336,-64.7024
 L 202.678,-64.4804 L 203.078,-64.1563 L 203.442,-63.7921 L 203.766,-63.3919 L 204.047,-62.96 L 204.28,-62.5011
 L 204.465,-62.0204 L 204.598,-61.5229 L 204.679,-61.0143 L 204.706,-60.5 L 204.679,-59.9857 L 204.598,-59.4771
 L 204.465,-58.9796 L 204.28,-58.4989 L 204.047,-58.04 L 203.766,-57.6081 L 203.442,-57.2079 L 203.078,-56.8437
 L 202.678,-56.5196 L 202.246,-56.2392 L 201.787,-56.0054 L 201.306,-55.8208 L 200.809,-55.6875 L 200.3,-55.607
 L 199.786,-55.58 z
M 391.557,-55.607 L 391.049,-55.6875 L 390.551,-55.8208 L 390.07,-56.0054 L 389.611,-56.2392 L 389.18,-56.5196
 L 388.779,-56.8437 L 388.415,-57.2079 L 388.091,-57.6081 L 387.811,-58.04 L 387.577,-58.4989 L 387.392,-58.9796
 L 387.259,-59.4771 L 387.178,-59.9857 L 387.151,-60.5 L 387.178,-61.0143 L 387.259,-61.5229 L 387.392,-62.0204
 L 387.577,-62.5011 L 387.811,-62.96 L 388.091,-63.3919 L 388.415,-63.7921 L 388.779,-64.1563 L 389.18,-64.4804
 L 389.521,-64.7024 L 389.521,-74 L 389.577,-74.5302 L 389.742,-75.0372 L 390.008,-75.4988 L 390.365,-75.895
 L 390.796,-76.2084 L 391.283,-76.4252 L 391.805,-76.536 L 392.338,-76.536 L 392.859,-76.4252 L 393.346,-76.2084
 L 393.778,-75.895 L 394.134,-75.4988 L 394.401,-75.0372 L 394.566,-74.5302 L 394.621,-74 L 394.621,-64.7024
 L 394.963,-64.4804 L 395.364,-64.1563 L 395.728,-63.7921 L 396.052,-63.3919 L 396.332,-62.96 L 396.566,-62.5011
 L 396.751,-62.0204 L 396.884,-61.5229 L 396.964,-61.0143 L 396.991,-60.5 L 396.964,-59.9857 L 396.884,-59.4771
 L 396.751,-58.9796 L 396.566,-58.4989 L 396.332,-58.04 L 396.052,-57.6081 L 395.728,-57.2079 L 395.364,-56.8437
 L 394.963,-56.5196 L 394.531,-56.2392 L 394.073,-56.0054 L 393.592,-55.8208 L 393.094,-55.6875 L 392.586,-55.607
 L 392.071,-55.58 z
M 583.843,-55.607 L 583.334,-55.6875 L 582.837,-55.8208 L 582.356,-56.0054 L 581.897,-56.2392 L 581.465,-56.5196
 L 581.065,-56.8437 L 580.701,-57.2079 L 580.377,-57.6081 L 580.096,-58.04 L 579.863,-58.4989 L 579.678,-58.9796
 L 579.545,-59.4771 L 579.464,-59.9857 L 579.437,-60.5 L 579.464,-61.0143 L 579.545,-61.5229 L 579.678,-62.0204
 L 579.863,-62.5011 L 580.096,-62.96 L 580.377,-63.3919 L 580.701,-63.7921 L 581.065,-64.1563 L 581.465,-64.4804
 L 581.807,-64.7024 L 581.807,-74 L 581.863,-74.5302 L 582.028,-75.0372 L 582.294,-75.4988 L 582.651,-75.895
 L 583.082,-76.2084 L 583.569,-76.4252 L 584.091,-76.536 L 584.624,-76.536 L 585.145,-76.4252 L 585.632,-76.2084
 L 586.063,-75.895 L 586.42,-75.4988 L 586.687,-75.0372 L 586.851,-74.5302 L 586.907,-74 L 586.907,-64.7024
 L 587.249,-64.4804 L 587.649,-64.1563 L 588.013,-63.7921 L 588.337,-63.3919 L 588.618,-62.96 L 588.852,-62.5011
 L 589.036,-62.0204 L 589.17,-61.5229 L 589.25,-61.0143 L 589.277,-60.5 L 589.25,-59.9857 L 589.17,-59.4771
 L 589.036,-58.9796 L 588.852,-58.4989 L 588.618,-58.04 L 588.337,-57.6081 L 588.013,-57.2079 L 587.649,-56.8437
 L 587.249,-56.5196 L 586.817,-56.2392 L 586.358,-56.0054 L 585.877,-55.8208 L 585.38,-55.6875 L 584.871,-55.607
 L 584.357,-55.58 z
M 776.129,-55.607 L 775.62,-55.6875 L 775.122,-55.8208 L 774.642,-56.0054 L 774.183,-56.2392 L 773.751,-56.5196
 L 773.351,-56.8437 L 772.987,-57.2079 L 772.662,-57.6081 L 772.382,-58.04 L 772.148,-58.4989 L 771.964,-58.9796
 L 771.83,-59.4771 L 771.75,-59.9857 L 771.723,-60.5 L 771.75,-61.0143 L 771.83,-61.5229 L 771.964,-62.0204
 L 772.148,-62.5011 L 772.382,-62.96 L 772.662,-63.3919 L 772.987,-63.7921 L 773.351,-64.1563 L 773.751,-64.4804
 L 774.093,-64.7024 L 774.093,-74 L 774.149,-74.5302 L 774.313,-75.0372 L 774.58,-75.4988 L 774.937,-75.895
 L 775.368,-76.2084 L 775.855,-76.4252 L 776.376,-76.536 L 776.909,-76.536 L 777.431,-76.4252 L 777.918,-76.2084
 L 778.349,-75.895 L 778.706,-75.4988 L 778.972,-75.0372 L 779.137,-74.5302 L 779.193,-74 L 779.193,-64.7024
 L 779.535,-64.4804 L 779.935,-64.1563 L 780.299,-63.7921 L 780.623,-63.3919 L 780.904,-62.96 L 781.137,-62.5011
 L 781.322,-62.0204 L 781.455,-61.5229 L 781.536,-61.0143 L 781.563,-60.5 L 781.536,-59.9857 L 781.455,-59.4771
 L 781.322,-58.9796 L 781.137,-58.4989 L 780.904,-58.04 L 780.623,-57.6081 L 780.299,-57.2079 L 779.935,-56.8437
 L 779.535,-56.5196 L 779.103,-56.2392 L 778.644,-56.0054 L 778.163,-55.8208 L 777.666,-55.6875 L 777.157,-55.607
 L 776.643,-55.58 z
M 968.414,-55.607 L 967.906,-55.6875 L 967.408,-55.8208 L 966.927,-56.0054 L 966.469,-56.2392 L 966.037,-56.5196
 L 965.636,-56.8437 L 965.272,-57.2079 L 964.948,-57.6081 L 964.668,-58.04 L 964.434,-58.4989 L 964.249,-58.9796
 L 964.116,-59.4771 L 964.036,-59.9857 L 964.009,-60.5 L 964.036,-61.0143 L 964.116,-61.5229 L 964.249,-62.0204
 L 964.434,-62.5011 L 964.668,-62.96 L 964.948,-63.3919 L 965.272,-63.7921 L 965.636,-64.1563 L 966.037,-64.4804
 L 966.379,-64.7024 L 966.379,-74 L 966.434,-74.5302 L 966.599,-75.0372 L 966.866,-75.4988 L 967.222,-75.895
 L 967.654,-76.2084 L 968.141,-76.4252 L 968.662,-76.536 L 969.195,-76.536 L 969.717,-76.4252 L 970.204,-76.2084
 L 970.635,-75.895 L 970.992,-75.4988 L 971.258,-75.0372 L 971.423,-74.5302 L 971.479,-74 L 971.479,-64.7024
 L 971.82,-64.4804 L 972.221,-64.1563 L 972.585,-63.7921 L 972.909,-63.3919 L 973.189,-62.96 L 973.423,-62.5011
 L 973.608,-62.0204 L 973.741,-61.5229 L 973.822,-61.0143 L 973.849,-60.5 L 973.822,-59.9857 L 973.741,-59.4771
 L 973.608,-58.9796 L 973.423,-58.4989 L 973.189,-58.04 L 972.909,-57.6081 L 972.585,-57.2079 L 972.221,-56.8437
 L 971.82,-56.5196 L 971.389,-56.2392 L 970.93,-56.0054 L 970.449,-55.8208 L 969.951,-55.6875 L 969.443,-55.607
 L 968.929,-55.58 z
M 1160.7,-55.607 L 1160.19,-55.6875 L 1159.69,-55.8208 L 1159.21,-56.0054 L 1158.75,-56.2392 L 1158.32,-56.5196
 L 1157.92,-56.8437 L 1157.56,-57.2079 L 1157.23,-57.6081 L 1156.95,-58.04 L 1156.72,-58.4989 L 1156.54,-58.9796
 L 1156.4,-59.4771 L 1156.32,-59.9857 L 1156.29,-60.5 L 1156.32,-61.0143 L 1156.4,-61.5229 L 1156.54,-62.0204
 L 1156.72,-62.5011 L 1156.95,-62.96 L 1157.23,-63.3919 L 1157.56,-63.7921 L 1157.92,-64.1563 L 1158.32,-64.4804
 L 1158.66,-64.7024 L 1158.66,-74 L 1158.72,-74.5302 L 1158.88,-75.0372 L 1159.15,-75.4988 L 1159.51,-75.895
 L 1159.94,-76.2084 L 1160.43,-76.4252 L 1160.95,-76.536 L 1161.48,-76.536 L 1162,-76.4252 L 1162.49,-76.2084
 L 1162.92,-75.895 L 1163.28,-75.4988 L 1163.54,-75.0372 L 1163.71,-74.5302 L 1163.76,-74 L 1163.76,-64.7024
 L 1164.11,-64.4804 L 1164.51,-64.1563 L 1164.87,-63.7921 L 1165.19,-63.3919 L 1165.48,-62.96 L 1165.71,-62.5011
 L 1165.89,-62.0204 L 1166.03,-61.5229 L 1166.11,-61.0143 L 1166.13,-60.5 L 1166.11,-59.9857 L 1166.03,-59.4771
 L 1165.89,-58.9796 L 1165.71,-58.4989 L 1165.48,-58.04 L 1165.19,-57.6081 L 1164.87,-57.2079 L 1164.51,-56.8437
 L 1164.11,-56.5196 L 1163.67,-56.2392 L 1163.22,-56.0054 L 1162.73,-55.8208 L 1162.24,-55.6875 L 1161.73,-55.607
 L 1161.21,-55.58 z
M 1352.99,-55.607 L 1352.48,-55.6875 L 1351.98,-55.8208 L 1351.5,-56.0054 L 1351.04,-56.2392 L 1350.61,-56.5196
 L 1350.21,-56.8437 L 1349.84,-57.2079 L 1349.52,-57.6081 L 1349.24,-58.04 L 1349.01,-58.4989 L 1348.82,-58.9796
 L 1348.69,-59.4771 L 1348.61,-59.9857 L 1348.58,-60.5 L 1348.61,-61.0143 L 1348.69,-61.5229 L 1348.82,-62.0204
 L 1349.01,-62.5011 L 1349.24,-62.96 L 1349.52,-63.3919 L 1349.84,-63.7921 L 1350.21,-64.1563 L 1350.61,-64.4804
 L 1350.95,-64.7024 L 1350.95,-74 L 1351.01,-74.5302 L 1351.17,-75.0372 L 1351.44,-75.4988 L 1351.79,-75.895
 L 1352.23,-76.2084 L 1352.71,-76.4252 L 1353.23,-76.536 L 1353.77,-76.536 L 1354.29,-76.4252 L 1354.77,-76.2084
 L 1355.21,-75.895 L 1355.56,-75.4988 L 1355.83,-75.0372 L 1355.99,-74.5302 L 1356.05,-74 L 1356.05,-64.7024
 L 1356.39,-64.4804 L 1356.79,-64.1563 L 1357.16,-63.7921 L 1357.48,-63.3919 L 1357.76,-62.96 L 1357.99,-62.5011
 L 1358.18,-62.0204 L 1358.31,-61.5229 L 1358.39,-61.0143 L 1358.42,-60.5 L 1358.39,-59.9857 L 1358.31,-59.4771
 L 1358.18,-58.9796 L 1357.99,-58.4989 L 1357.76,-58.04 L 1357.48,-57.6081 L 1357.16,-57.2079 L 1356.79,-56.8437
 L 1356.39,-56.5196 L 1355.96,-56.2392 L 1355.5,-56.0054 L 1355.02,-55.8208 L 1354.52,-55.6875 L 1354.01,-55.607
 L 1353.5,-55.58 z
M 788.505,-20.5469 L 787.733,-20.8672 L 787.044,-21.3412 L 786.468,-21.948 L 786.032,-22.6612 L 785.753,-23.4496
 L 785.643,-24.3817 L 785.643,-58 L 785.73,-58.8316 L 785.989,-59.627 L 786.407,-60.3511 L 786.966,-60.9726
 L 787.643,-61.4641 L 788.407,-61.8042 L 789.643,-62 L 884.706,-62 L 885.538,-61.9126 L 886.333,-61.6542
 L 887.057,-61.2361 L 887.679,-60.6765 L 888.17,-60 L 888.511,-59.2361 L 888.684,-58.4181 L 888.684,-57.5819
 L 888.511,-56.7639 L 888.17,-56 L 887.679,-55.3235 L 887.057,-54.7639 L 886.04,-54.2289 L 790.976,-20.6106
 L 790.163,-20.4157 L 789.327,-20.3942 z
M 679.98,-47.6977 L 679.166,-47.8926 L 661.249,-54.2289 L 660.231,-54.7639 L 659.61,-55.3235 L 659.119,-56
 L 658.778,-56.7639 L 658.605,-57.5819 L 658.605,-58.4181 L 658.778,-59.2361 L 659.119,-60 L 659.61,-60.6765
 L 660.231,-61.2361 L 660.956,-61.6542 L 661.751,-61.9126 L 662.583,-62 L 698.417,-62 L 699.555,-61.8348
 L 700.327,-61.5145 L 701.016,-61.0405 L 701.592,-60.4337 L 702.028,-59.7205 L 702.307,-58.9321 L 702.416,-58.103
 L 702.35,-57.2694 L 702.112,-56.4677 L 701.713,-55.733 L 701.17,-55.0973 L 700.506,-54.5885 L 699.751,-54.2289
 L 681.834,-47.8926 L 680.816,-47.6762 z
M 570.837,-20.4157 L 570.024,-20.6106 L 474.96,-54.2289 L 473.942,-54.7639 L 473.321,-55.3235 L 472.83,-56
 L 472.489,-56.7639 L 472.316,-57.5819 L 472.316,-58.4181 L 472.489,-59.2361 L 472.83,-60 L 473.321,-60.6765
 L 473.942,-61.2361 L 474.667,-61.6542 L 475.462,-61.9126 L 476.294,-62 L 571.357,-62 L 572.593,-61.8042
 L 573.357,-61.4641 L 574.034,-60.9726 L 574.593,-60.3511 L 575.011,-59.627 L 575.27,-58.8316 L 575.357,-58
 L 575.357,-24.3817 L 575.247,-23.4496 L 574.968,-22.6612 L 574.532,-21.948 L 573.956,-21.3412 L 573.267,-20.8672
 L 572.495,-20.5469 L 571.673,-20.3942 z
M 378.551,-20.4157 L 377.738,-20.6106 L 282.674,-54.2289 L 281.657,-54.7639 L 281.035,-55.3235 L 280.544,-56
 L 280.204,-56.7639 L 280.03,-57.5819 L 280.03,-58.4181 L 280.204,-59.2361 L 280.544,-60 L 281.035,-60.6765
 L 281.657,-61.2361 L 282.381,-61.6542 L 283.176,-61.9126 L 284.008,-62 L 379.071,-62 L 380.307,-61.8042
 L 381.071,-61.4641 L 381.748,-60.9726 L 382.307,-60.3511 L 382.726,-59.627 L 382.984,-58.8316 L 383.071,-58
 L 383.071,-24.3817 L 382.961,-23.4496 L 382.682,-22.6612 L 382.246,-21.948 L 381.671,-21.3412 L 380.982,-20.8672
 L 380.209,-20.5469 L 379.387,-20.3942 z
M 1173.08,-20.5469 L 1172.3,-20.8672 L 1171.62,-21.3412 L 1171.04,-21.948 L 1170.6,-22.6612 L 1170.32,-23.4496
 L 1170.21,-24.3817 L 1170.21,-58 L 1170.3,-58.8316 L 1170.56,-59.627 L 1170.98,-60.3511 L 1171.54,-60.9726
 L 1172.21,-61.4641 L 1172.98,-61.8042 L 1174.21,-62 L 1269.28,-62 L 1270.11,-61.9126 L 1270.9,-61.6542
 L 1271.63,-61.2361 L 1272.25,-60.6765 L 1272.74,-60 L 1273.08,-59.2361 L 1273.26,-58.4181 L 1273.26,-57.5819
 L 1273.08,-56.7639 L 1272.74,-56 L 1272.25,-55.3235 L 1271.63,-54.7639 L 1270.61,-54.2289 L 1175.55,-20.6106
 L 1174.73,-20.4157 L 1173.9,-20.3942 z
M 186.265,-20.4157 L 185.452,-20.6106 L 90.3886,-54.2289 L 89.3711,-54.7639 L 88.7496,-55.3235 L 88.2581,-56
 L 87.918,-56.7639 L 87.7441,-57.5819 L 87.7441,-58.4181 L 87.918,-59.2361 L 88.2581,-60 L 88.7496,-60.6765
 L 89.3711,-61.2361 L 90.0952,-61.6542 L 90.8905,-61.9126 L 91.7222,-62 L 186.786,-62 L 188.022,-61.8042
 L 188.786,-61.4641 L 189.462,-60.9726 L 190.022,-60.3511 L 190.44,-59.627 L 190.698,-58.8316 L 190.786,-58
 L 190.786,-24.3817 L 190.676,-23.4496 L 190.397,-22.6612 L 189.96,-21.948 L 189.385,-21.3412 L 188.696,-20.8672
 L 187.923,-20.5469 L 187.101,-20.3942 z
M 980.791,-20.5469 L 980.018,-20.8672 L 979.329,-21.3412 L 978.754,-21.948 L 978.318,-22.6612 L 978.039,-23.4496
 L 977.929,-24.3817 L 977.929,-58 L 978.016,-58.8316 L 978.274,-59.627 L 978.693,-60.3511 L 979.252,-60.9726
 L 979.929,-61.4641 L 980.693,-61.8042 L 981.929,-62 L 1076.99,-62 L 1077.82,-61.9126 L 1078.62,-61.6542
 L 1079.34,-61.2361 L 1079.96,-60.6765 L 1080.46,-60 L 1080.8,-59.2361 L 1080.97,-58.4181 L 1080.97,-57.5819
 L 1080.8,-56.7639 L 1080.46,-56 L 1079.96,-55.3235 L 1079.34,-54.7639 L 1078.33,-54.2289 L 983.262,-20.6106
 L 982.449,-20.4157 L 981.613,-20.3942 z
M 596.939,-18.2829 L 596.121,-18.4568 L 595.357,-18.7969 L 594.681,-19.2885 L 594.121,-19.9099 L 593.703,-20.6341
 L 593.445,-21.4294 L 593.357,-22.261 L 593.357,-57.739 L 593.467,-58.6711 L 593.746,-59.4595 L 594.183,-60.1727
 L 594.758,-60.7795 L 595.447,-61.2534 L 596.219,-61.5738 L 597.042,-61.7265 L 597.878,-61.705 L 598.691,-61.5101
 L 648.852,-43.7711 L 649.428,-43.5145 L 650.117,-43.0405 L 650.693,-42.4337 L 651.129,-41.7205 L 651.408,-40.9321
 L 651.517,-40.103 L 651.451,-39.2694 L 651.213,-38.4677 L 650.814,-37.733 L 650.27,-37.0973 L 649.607,-36.5885
 L 648.852,-36.2289 L 598.691,-18.4899 L 597.775,-18.2829 z
M 763.122,-18.295 L 762.309,-18.4899 L 712.148,-36.2289 L 711.572,-36.4855 L 710.883,-36.9595 L 710.307,-37.5663
 L 709.871,-38.2795 L 709.592,-39.0679 L 709.483,-39.897 L 709.549,-40.7306 L 709.787,-41.5323 L 710.186,-42.267
 L 710.73,-42.9027 L 711.393,-43.4115 L 712.148,-43.7711 L 762.309,-61.5101 L 763.225,-61.7171 L 764.061,-61.7171
 L 764.879,-61.5432 L 765.643,-61.2031 L 766.319,-60.7116 L 766.879,-60.0901 L 767.297,-59.3659 L 767.555,-58.5706
 L 767.643,-57.739 L 767.643,-22.261 L 767.533,-21.3289 L 767.254,-20.5405 L 766.817,-19.8273 L 766.242,-19.2205
 L 765.553,-18.7466 L 764.781,-18.4262 L 763.958,-18.2735 z
M 212.786,-18 L 211.55,-18.1958 L 210.786,-18.5359 L 210.109,-19.0274 L 209.55,-19.6489 L 209.132,-20.373
 L 208.873,-21.1684 L 208.786,-22 L 208.786,-55.6183 L 208.896,-56.5504 L 209.175,-57.3388 L 209.611,-58.052
 L 210.187,-58.6588 L 210.876,-59.1327 L 211.648,-59.4531 L 212.47,-59.6058 L 213.306,-59.5843 L 214.119,-59.3894
 L 309.183,-25.7711 L 310.2,-25.2361 L 310.822,-24.6765 L 311.313,-24 L 311.653,-23.2361 L 311.827,-22.4181
 L 311.827,-21.5819 L 311.653,-20.7639 L 311.313,-20 L 310.822,-19.3235 L 310.2,-18.7639 L 309.476,-18.3458
 L 308.681,-18.0874 L 307.849,-18 z
M 405.071,-18 L 403.835,-18.1958 L 403.071,-18.5359 L 402.395,-19.0274 L 401.835,-19.6489 L 401.417,-20.373
 L 401.159,-21.1684 L 401.071,-22 L 401.071,-55.6183 L 401.182,-56.5504 L 401.46,-57.3388 L 401.897,-58.052
 L 402.472,-58.6588 L 403.161,-59.1327 L 403.934,-59.4531 L 404.756,-59.6058 L 405.592,-59.5843 L 406.405,-59.3894
 L 501.469,-25.7711 L 502.486,-25.2361 L 503.107,-24.6765 L 503.599,-24 L 503.939,-23.2361 L 504.113,-22.4181
 L 504.113,-21.5819 L 503.939,-20.7639 L 503.599,-20 L 503.107,-19.3235 L 502.486,-18.7639 L 501.762,-18.3458
 L 500.967,-18.0874 L 500.135,-18 z
M 860.865,-18 L 860.033,-18.0874 L 859.238,-18.3458 L 858.514,-18.7639 L 857.892,-19.3235 L 857.401,-20
 L 857.061,-20.7639 L 856.887,-21.5819 L 856.887,-22.4181 L 857.061,-23.2361 L 857.401,-24 L 857.892,-24.6765
 L 858.514,-25.2361 L 859.531,-25.7711 L 954.595,-59.3894 L 955.408,-59.5843 L 956.244,-59.6058 L 957.066,-59.4531
 L 957.839,-59.1327 L 958.528,-58.6588 L 959.103,-58.052 L 959.54,-57.3388 L 959.818,-56.5504 L 959.929,-55.6183
 L 959.929,-22 L 959.841,-21.1684 L 959.583,-20.373 L 959.165,-19.6489 L 958.605,-19.0274 L 957.929,-18.5359
 L 957.165,-18.1958 L 955.929,-18 z
M 1053.15,-18 L 1052.32,-18.0874 L 1051.52,-18.3458 L 1050.8,-18.7639 L 1050.18,-19.3235 L 1049.69,-20
 L 1049.35,-20.7639 L 1049.17,-21.5819 L 1049.17,-22.4181 L 1049.35,-23.2361 L 1049.69,-24 L 1050.18,-24.6765
 L 1050.8,-25.2361 L 1051.82,-25.7711 L 1146.88,-59.3894 L 1147.69,-59.5843 L 1148.53,-59.6058 L 1149.35,-59.4531
 L 1150.12,-59.1327 L 1150.81,-58.6588 L 1151.39,-58.052 L 1151.83,-57.3388 L 1152.1,-56.5504 L 1152.21,-55.6183
 L 1152.21,-22 L 1152.13,-21.1684 L 1151.87,-20.373 L 1151.45,-19.6489 L 1150.89,-19.0274 L 1150.21,-18.5359
 L 1149.45,-18.1958 L 1148.21,-18 z
M 22,-18 L 20.7639,-18.1958 L 20,-18.5359 L 19.3235,-19.0274 L 18.7639,-19.6489 L 18.3458,-20.373
 L 18.0874,-21.1684 L 18,-22 L 18,-55.0878 L 18.1101,-56.02 L 18.3889,-56.8083 L 18.8255,-57.5215
 L 19.4009,-58.1283 L 20.0899,-58.6023 L 20.8623,-58.9226 L 21.6845,-59.0754 L 22.5204,-59.0538 L 23.3336,-58.859
 L 116.897,-25.7711 L 117.915,-25.2361 L 118.536,-24.6765 L 119.028,-24 L 119.368,-23.2361 L 119.542,-22.4181
 L 119.542,-21.5819 L 119.368,-20.7639 L 119.028,-20 L 118.536,-19.3235 L 117.915,-18.7639 L 117.19,-18.3458
 L 116.395,-18.0874 L 115.563,-18 z
M 1245.44,-18 L 1244.6,-18.0874 L 1243.81,-18.3458 L 1243.09,-18.7639 L 1242.46,-19.3235 L 1241.97,-20
 L 1241.63,-20.7639 L 1241.46,-21.5819 L 1241.46,-22.4181 L 1241.63,-23.2361 L 1241.97,-24 L 1242.46,-24.6765
 L 1243.09,-25.2361 L 1244.1,-25.7711 L 1337.67,-58.859 L 1338.48,-59.0538 L 1339.32,-59.0754 L 1340.14,-58.9226
 L 1340.91,-58.6023 L 1341.6,-58.1283 L 1342.17,-57.5215 L 1342.61,-56.8083 L 1342.89,-56.02 L 1343,-55.0878
 L 1343,-22 L 1342.91,-21.1684 L 1342.65,-20.373 L 1342.24,-19.6489 L 1341.68,-19.0274 L 1341,-18.5359
 L 1340.24,-18.1958 L 1339,-18 z
M 662.583,-18 L 661.445,-18.1652 L 660.673,-18.4855 L 659.984,-18.9595 L 659.408,-19.5663 L 658.972,-20.2795
 L 658.693,-21.0679 L 658.584,-21.897 L 658.65,-22.7306 L 658.888,-23.5323 L 659.287,-24.267 L 659.83,-24.9027
 L 660.494,-25.4115 L 661.249,-25.7711 L 679.166,-32.1074 L 680.184,-32.3238 L 681.02,-32.3023 L 681.834,-32.1074
 L 699.751,-25.7711 L 700.768,-25.2361 L 701.39,-24.6765 L 701.881,-24 L 702.222,-23.2361 L 702.395,-22.4181
 L 702.395,-21.5819 L 702.222,-20.7639 L 701.881,-20 L 701.39,-19.3235 L 700.768,-18.7639 L 700.044,-18.3458
 L 699.249,-18.0874 L 698.417,-18 z
" stroke="black" fill="lightgray" stroke-width="0.5"/>
</svg>
