<?xml version="1.0" standalone="no"?>
<!DOCTYPE svg PUBLIC "-//W3C//DTD SVG 1.1//EN" "http://www.w3.org/Graphics/SVG/1.1/DTD/svg11.dtd">
<svg width="1192mm" height="80mm" viewBox="0 -80 1192 80" xmlns="http://www.w3.org/2000/svg" version="1.1">
<title>OpenSCAD Model</title>
<path d="
M 1192,-80 L 0,-80 L 0,-0 L 4.95,-0 L 4.95,-6 L 5.00572,-6.53017
 L 5.17046,-7.03717 L 5.437,-7.49884 L 5.79372,-7.895 L 6.22499,-8.20836 L 6.71201,-8.42519 L 7.23344,-8.53603
 L 7.76654,-8.53603 L 8.28798,-8.42519 L 8.77499,-8.20836 L 9.20627,-7.895 L 9.56299,-7.49884 L 9.82953,-7.03717
 L 9.99426,-6.53017 L 10.05,-6 L 10.05,-0 L 201.117,-0 L 201.117,-6 L 201.172,-6.53017
 L 201.337,-7.03717 L 201.604,-7.49884 L 201.96,-7.895 L 202.392,-8.20836 L 202.879,-8.42519 L 203.4,-8.53603
 L 203.933,-8.53603 L 204.455,-8.42519 L 204.942,-8.20836 L 205.373,-7.895 L 205.73,-7.49884 L 205.996,-7.03717
 L 206.161,-6.53017 L 206.217,-6 L 206.217,-0 L 397.283,-0 L 397.283,-6 L 397.339,-6.53017
 L 397.504,-7.03717 L 397.77,-7.49884 L 398.127,-7.895 L 398.558,-8.20836 L 399.045,-8.42519 L 399.567,-8.53603
 L 400.1,-8.53603 L 400.621,-8.42519 L 401.108,-8.20836 L 401.54,-7.895 L 401.896,-7.49884 L 402.163,-7.03717
 L 402.328,-6.53017 L 402.383,-6 L 402.383,-0 L 593.45,-0 L 593.45,-6 L 593.506,-6.53017
 L 593.67,-7.03717 L 593.937,-7.49884 L 594.294,-7.895 L 594.725,-8.20836 L 595.212,-8.42519 L 595.733,-8.53603
 L 596.267,-8.53603 L 596.788,-8.42519 L 597.275,-8.20836 L 597.706,-7.895 L 598.063,-7.49884 L 598.33,-7.03717
 L 598.494,-6.53017 L 598.55,-6 L 598.55,-0 L 789.617,-0 L 789.617,-6 L 789.672,-6.53017
 L 789.837,-7.03717 L 790.104,-7.49884 L 790.46,-7.895 L 790.892,-8.20836 L 791.379,-8.42519 L 791.9,-8.53603
 L 792.433,-8.53603 L 792.955,-8.42519 L 793.442,-8.20836 L 793.873,-7.895 L 794.23,-7.49884 L 794.496,-7.03717
 L 794.661,-6.53017 L 794.717,-6 L 794.717,-0 L 985.783,-0 L 985.783,-6 L 985.839,-6.53017
 L 986.004,-7.03717 L 986.27,-7.49884 L 986.627,-7.895 L 987.058,-8.20836 L 987.545,-8.42519 L 988.067,-8.53603
 L 988.6,-8.53603 L 989.121,-8.42519 L 989.608,-8.20836 L 990.04,-7.895 L 990.396,-7.49884 L 990.663,-7.03717
 L 990.828,-6.53017 L 990.883,-6 L 990.883,-0 L 1181.95,-0 L 1181.95,-6 L 1182.01,-6.53017
 L 1182.17,-7.03717 L 1182.44,-7.49884 L 1182.79,-7.895 L 1183.22,-8.20836 L 1183.71,-8.42519 L 1184.23,-8.53603
 L 1184.77,-8.53603 L 1185.29,-8.42519 L 1185.77,-8.20836 L 1186.21,-7.895 L 1186.56,-7.49884 L 1186.83,-7.03717
 L 1186.99,-6.53017 L 1187.05,-6 L 1187.05,-0 L 1192,-0 z
M 6.98573,-55.607 L 6.47708,-55.6875 L 5.97964,-55.8208 L 5.49887,-56.0054 L 5.04001,-56.2392 L 4.60811,-56.5196
 L 4.20789,-56.8437 L 3.84373,-57.2079 L 3.51964,-57.6081 L 3.23917,-58.04 L 3.00537,-58.4989 L 2.82082,-58.9796
 L 2.68752,-59.4771 L 2.60696,-59.9857 L 2.58,-60.5 L 2.60696,-61.0143 L 2.68752,-61.5229 L 2.82082,-62.0204
 L 3.00537,-62.5011 L 3.23917,-62.96 L 3.51964,-63.3919 L 3.84373,-63.7921 L 4.20789,-64.1563 L 4.60811,-64.4804
 L 4.95001,-64.7024 L 4.95001,-74 L 5.00574,-74.5302 L 5.17047,-75.0372 L 5.43701,-75.4988 L 5.79373,-75.895
 L 6.22501,-76.2084 L 6.71202,-76.4252 L 7.23346,-76.536 L 7.76654,-76.536 L 8.28798,-76.4252 L 8.77499,-76.2084
 L 9.20627,-75.895 L 9.56299,-75.4988 L 9.82953,-75.0372 L 9.99426,-74.5302 L 10.05,-74 L 10.05,-64.7024
 L 10.3919,-64.4804 L 10.7921,-64.1563 L 11.1563,-63.7921 L 11.4804,-63.3919 L 11.7608,-62.96 L 11.9946,-62.5011
 L 12.1792,-62.0204 L 12.3125,-61.5229 L 12.393,-61.0143 L 12.42,-60.5 L 12.393,-59.9857 L 12.3125,-59.4771
 L 12.1792,-58.9796 L 11.9946,-58.4989 L 11.7608,-58.04 L 11.4804,-57.6081 L 11.1563,-57.2079 L 10.7921,-56.8437
 L 10.3919,-56.5196 L 9.95999,-56.2392 L 9.50113,-56.0054 L 9.02036,-55.8208 L 8.52292,-55.6875 L 8.01427,-55.607
 L 7.5,-55.58 z
M 203.152,-55.607 L 202.644,-55.6875 L 202.146,-55.8208 L 201.666,-56.0054 L 201.207,-56.2392 L 200.775,-56.5196
 L 200.375,-56.8437 L 200.01,-57.2079 L 199.686,-57.6081 L 199.406,-58.04 L 199.172,-58.4989 L 198.987,-58.9796
 L 198.854,-59.4771 L 198.774,-59.9857 L 198.747,-60.5 L 198.774,-61.0143 L 198.854,-61.5229 L 198.987,-62.0204
 L 199.172,-62.5011 L 199.406,-62.96 L 199.686,-63.3919 L 200.01,-63.7921 L 200.375,-64.1563 L 200.775,-64.4804
 L 201.117,-64.7024 L 201.117,-74 L 201.172,-74.5302 L 201.337,-75.0372 L 201.604,-75.4988 L 201.96,-75.895
 L 202.392,-76.2084 L 202.879,-76.4252 L 203.4,-76.536 L 203.933,-76.536 L 204.455,-76.4252 L 204.942,-76.2084
 L 205.373,-75.895 L 205.73,-75.4988 L 205.996,-75.0372 L 206.161,-74.5302 L 206.217,-74 L 206.217,-64.7024
 L 206.559,-64.4804 L 206.959,-64.1563 L 207.323,-63.7921 L 207.647,-63.3919 L 207.927,-62.96 L 208.161,-62.5011
 L 208.346,-62.0204 L 208.479,-61.5229 L 208.56,-61.0143 L 208.587,-60.5 L 208.56,-59.9857 L 208.479,-59.4771
 L 208.346,-58.9796 L 208.161,-58.4989 L 207.927,-58.04 L 207.647,-57.6081 L 207.323,-57.2079 L 206.959,-56.8437
 L 206.559,-56.5196 L 206.127,-56.2392 L 205.668,-56.0054 L 205.187,-55.8208 L 204.69,-55.6875 L 204.181,-55.607
 L 203.667,-55.58 z
M 399.319,-55.607 L 398.81,-55.6875 L 398.313,-55.8208 L 397.832,-56.0054 L 397.373,-56.2392 L 396.941,-56.5196
 L 396.541,-56.8437 L 396.177,-57.2079 L 395.853,-57.6081 L 395.572,-58.04 L 395.339,-58.4989 L 395.154,-58.9796
 L 395.021,-59.4771 L 394.94,-59.9857 L 394.913,-60.5 L 394.94,-61.0143 L 395.021,-61.5229 L 395.154,-62.0204
 L 395.339,-62.5011 L 395.572,-62.96 L 395.853,-63.3919 L 396.177,-63.7921 L 396.541,-64.1563 L 396.941,-64.4804
 L 397.283,-64.7024 L 397.283,-74 L 397.339,-74.5302 L 397.504,-75.0372 L 397.77,-75.4988 L 398.127,-75.895
 L 398.558,-76.2084 L 399.045,-76.4252 L 399.567,-76.536 L 400.1,-76.536 L 400.621,-76.4252 L 401.108,-76.2084
 L 401.54,-75.895 L 401.896,-75.4988 L 402.163,-75.0372 L 402.328,-74.5302 L 402.383,-74 L 402.383,-64.7024
 L 402.725,-64.4804 L 403.125,-64.1563 L 403.49,-63.7921 L 403.814,-63.3919 L 404.094,-62.96 L 404.328,-62.5011
 L 404.513,-62.0204 L 404.646,-61.5229 L 404.726,-61.0143 L 404.753,-60.5 L 404.726,-59.9857 L 404.646,-59.4771
 L 404.513,-58.9796 L 404.328,-58.4989 L 404.094,-58.04 L 403.814,-57.6081 L 403.49,-57.2079 L 403.125,-56.8437
 L 402.725,-56.5196 L 402.293,-56.2392 L 401.834,-56.0054 L 401.354,-55.8208 L 400.856,-55.6875 L 400.348,-55.607
 L 399.833,-55.58 z
M 595.486,-55.607 L 594.977,-55.6875 L 594.48,-55.8208 L 593.999,-56.0054 L 593.54,-56.2392 L 593.108,-56.5196
 L 592.708,-56.8437 L 592.344,-57.2079 L 592.02,-57.6081 L 591.739,-58.04 L 591.505,-58.4989 L 591.321,-58.9796
 L 591.188,-59.4771 L 591.107,-59.9857 L 591.08,-60.5 L 591.107,-61.0143 L 591.188,-61.5229 L 591.321,-62.0204
 L 591.505,-62.5011 L 591.739,-62.96 L 592.02,-63.3919 L 592.344,-63.7921 L 592.708,-64.1563 L 593.108,-64.4804
 L 593.45,-64.7024 L 593.45,-74 L 593.506,-74.5302 L 593.67,-75.0372 L 593.937,-75.4988 L 594.294,-75.895
 L 594.725,-76.2084 L 595.212,-76.4252 L 595.733,-76.536 L 596.267,-76.536 L 596.788,-76.4252 L 597.275,-76.2084
 L 597.706,-75.895 L 598.063,-75.4988 L 598.33,-75.0372 L 598.494,-74.5302 L 598.55,-74 L 598.55,-64.7024
 L 598.892,-64.4804 L 599.292,-64.1563 L 599.656,-63.7921 L 599.98,-63.3919 L 600.261,-62.96 L 600.495,-62.5011
 L 600.679,-62.0204 L 600.812,-61.5229 L 600.893,-61.0143 L 600.92,-60.5 L 600.893,-59.9857 L 600.812,-59.4771
 L 600.679,-58.9796 L 600.495,-58.4989 L 600.261,-58.04 L 599.98,-57.6081 L 599.656,-57.2079 L 599.292,-56.8437
 L 598.892,-56.5196 L 598.46,-56.2392 L 598.001,-56.0054 L 597.52,-55.8208 L 597.023,-55.6875 L 596.514,-55.607
 L 596,-55.58 z
M 791.652,-55.607 L 791.144,-55.6875 L 790.646,-55.8208 L 790.166,-56.0054 L 789.707,-56.2392 L 789.275,-56.5196
 L 788.875,-56.8437 L 788.51,-57.2079 L 788.186,-57.6081 L 787.906,-58.04 L 787.672,-58.4989 L 787.487,-58.9796
 L 787.354,-59.4771 L 787.274,-59.9857 L 787.247,-60.5 L 787.274,-61.0143 L 787.354,-61.5229 L 787.487,-62.0204
 L 787.672,-62.5011 L 787.906,-62.96 L 788.186,-63.3919 L 788.51,-63.7921 L 788.875,-64.1563 L 789.275,-64.4804
 L 789.617,-64.7024 L 789.617,-74 L 789.672,-74.5302 L 789.837,-75.0372 L 790.104,-75.4988 L 790.46,-75.895
 L 790.892,-76.2084 L 791.379,-76.4252 L 791.9,-76.536 L 792.433,-76.536 L 792.955,-76.4252 L 793.442,-76.2084
 L 793.873,-75.895 L 794.23,-75.4988 L 794.496,-75.0372 L 794.661,-74.5302 L 794.717,-74 L 794.717,-64.7024
 L 795.059,-64.4804 L 795.459,-64.1563 L 795.823,-63.7921 L 796.147,-63.3919 L 796.427,-62.96 L 796.661,-62.5011
 L 796.846,-62.0204 L 796.979,-61.5229 L 797.06,-61.0143 L 797.087,-60.5 L 797.06,-59.9857 L 796.979,-59.4771
 L 796.846,-58.9796 L 796.661,-58.4989 L 796.427,-58.04 L 796.147,-57.6081 L 795.823,-57.2079 L 795.459,-56.8437
 L 795.059,-56.5196 L 794.627,-56.2392 L 794.168,-56.0054 L 793.687,-55.8208 L 793.19,-55.6875 L 792.681,-55.607
 L 792.167,-55.58 z
M 987.819,-55.607 L 987.31,-55.6875 L 986.813,-55.8208 L 986.332,-56.0054 L 985.873,-56.2392 L 985.441,-56.5196
 L 985.041,-56.8437 L 984.677,-57.2079 L 984.353,-57.6081 L 984.072,-58.04 L 983.839,-58.4989 L 983.654,-58.9796
 L 983.521,-59.4771 L 983.44,-59.9857 L 983.413,-60.5 L 983.44,-61.0143 L 983.521,-61.5229 L 983.654,-62.0204
 L 983.839,-62.5011 L 984.072,-62.96 L 984.353,-63.3919 L 984.677,-63.7921 L 985.041,-64.1563 L 985.441,-64.4804
 L 985.783,-64.7024 L 985.783,-74 L 985.839,-74.5302 L 986.004,-75.0372 L 986.27,-75.4988 L 986.627,-75.895
 L 987.058,-76.2084 L 987.545,-76.4252 L 988.067,-76.536 L 988.6,-76.536 L 989.121,-76.4252 L 989.608,-76.2084
 L 990.04,-75.895 L 990.396,-75.4988 L 990.663,-75.0372 L 990.828,-74.5302 L 990.883,-74 L 990.883,-64.7024
 L 991.225,-64.4804 L 991.625,-64.1563 L 991.99,-63.7921 L 992.314,-63.3919 L 992.594,-62.96 L 992.828,-62.5011
 L 993.013,-62.0204 L 993.146,-61.5229 L 993.226,-61.0143 L 993.253,-60.5 L 993.226,-59.9857 L 993.146,-59.4771
 L 993.013,-58.9796 L 992.828,-58.4989 L 992.594,-58.04 L 992.314,-57.6081 L 991.99,-57.2079 L 991.625,-56.8437
 L 991.225,-56.5196 L 990.793,-56.2392 L 990.334,-56.0054 L 989.854,-55.8208 L 989.356,-55.6875 L 988.848,-55.607
 L 988.333,-55.58 z
M 1183.99,-55.607 L 1183.48,-55.6875 L 1182.98,-55.8208 L 1182.5,-56.0054 L 1182.04,-56.2392 L 1181.61,-56.5196
 L 1181.21,-56.8437 L 1180.84,-57.2079 L 1180.52,-57.6081 L 1180.24,-58.04 L 1180.01,-58.4989 L 1179.82,-58.9796
 L 1179.69,-59.4771 L 1179.61,-59.9857 L 1179.58,-60.5 L 1179.61,-61.0143 L 1179.69,-61.5229 L 1179.82,-62.0204
 L 1180.01,-62.5011 L 1180.24,-62.96 L 1180.52,-63.3919 L 1180.84,-63.7921 L 1181.21,-64.1563 L 1181.61,-64.4804
 L 1181.95,-64.7024 L 1181.95,-74 L 1182.01,-74.5302 L 1182.17,-75.0372 L 1182.44,-75.4988 L 1182.79,-75.895
 L 1183.23,-76.2084 L 1183.71,-76.4252 L 1184.23,-76.536 L 1184.77,-76.536 L 1185.29,-76.4252 L 1185.77,-76.2084
 L 1186.21,-75.895 L 1186.56,-75.4988 L 1186.83,-75.0372 L 1186.99,-74.5302 L 1187.05,-74 L 1187.05,-64.7024
 L 1187.39,-64.4804 L 1187.79,-64.1563 L 1188.16,-63.7921 L 1188.48,-63.3919 L 1188.76,-62.96 L 1188.99,-62.5011
 L 1189.18,-62.0204 L 1189.31,-61.5229 L 1189.39,-61.0143 L 1189.42,-60.5 L 1189.39,-59.9857 L 1189.31,-59.4771
 L 1189.18,-58.9796 L 1188.99,-58.4989 L 1188.76,-58.04 L 1188.48,-57.6081 L 1188.16,-57.2079 L 1187.79,-56.8437
 L 1187.39,-56.5196 L 1186.96,-56.2392 L 1186.5,-56.0054 L 1186.02,-55.8208 L 1185.52,-55.6875 L 1185.01,-55.607
 L 1184.5,-55.58 z
M 1000.17,-20.435 L 999.401,-20.7602 L 998.715,-21.2384 L 998.144,-21.8488 L 997.712,-22.5647 L 997.438,-23.3548
 L 997.333,-24.2626 L 997.333,-58 L 997.421,-58.8316 L 997.679,-59.627 L 998.097,-60.3511 L 998.657,-60.9726
 L 999.333,-61.4641 L 1000.1,-61.8042 L 1001.33,-62 L 1098.66,-62 L 1099.49,-61.9126 L 1100.29,-61.6542
 L 1101.01,-61.2361 L 1101.63,-60.6765 L 1102.12,-60 L 1102.46,-59.2361 L 1102.64,-58.4181 L 1102.64,-57.5819
 L 1102.46,-56.7639 L 1102.12,-56 L 1101.63,-55.3235 L 1101.01,-54.7639 L 1099.97,-54.2206 L 1002.64,-20.4833
 L 1001.83,-20.2935 L 1000.99,-20.2772 z
M 386.338,-20.2935 L 385.523,-20.4833 L 288.198,-54.2206 L 287.157,-54.7639 L 286.535,-55.3235 L 286.044,-56
 L 285.703,-56.7639 L 285.53,-57.5819 L 285.53,-58.4181 L 285.703,-59.2361 L 286.044,-60 L 286.535,-60.6765
 L 287.157,-61.2361 L 287.881,-61.6542 L 288.676,-61.9126 L 289.508,-62 L 386.833,-62 L 388.069,-61.8042
 L 388.833,-61.4641 L 389.51,-60.9726 L 390.069,-60.3511 L 390.487,-59.627 L 390.746,-58.8316 L 390.833,-58
 L 390.833,-24.2626 L 390.729,-23.3548 L 390.455,-22.5647 L 390.023,-21.8488 L 389.451,-21.2384 L 388.765,-20.7602
 L 387.995,-20.435 L 387.174,-20.2772 z
M 190.171,-20.2935 L 189.357,-20.4833 L 92.0309,-54.2206 L 90.9899,-54.7639 L 90.3684,-55.3235 L 89.8769,-56
 L 89.5368,-56.7639 L 89.3629,-57.5819 L 89.3629,-58.4181 L 89.5368,-59.2361 L 89.8769,-60 L 90.3684,-60.6765
 L 90.9899,-61.2361 L 91.714,-61.6542 L 92.5093,-61.9126 L 93.341,-62 L 190.667,-62 L 191.903,-61.8042
 L 192.667,-61.4641 L 193.343,-60.9726 L 193.903,-60.3511 L 194.321,-59.627 L 194.579,-58.8316 L 194.667,-58
 L 194.667,-24.2626 L 194.562,-23.3548 L 194.288,-22.5647 L 193.856,-21.8488 L 193.285,-21.2384 L 192.599,-20.7602
 L 191.828,-20.435 L 191.007,-20.2772 z
M 582.504,-20.2935 L 581.69,-20.4833 L 484.364,-54.2206 L 483.323,-54.7639 L 482.702,-55.3235 L 482.21,-56
 L 481.87,-56.7639 L 481.696,-57.5819 L 481.696,-58.4181 L 481.87,-59.2361 L 482.21,-60 L 482.702,-60.6765
 L 483.323,-61.2361 L 484.047,-61.6542 L 484.843,-61.9126 L 485.674,-62 L 583,-62 L 584.236,-61.8042
 L 585,-61.4641 L 585.677,-60.9726 L 586.236,-60.3511 L 586.654,-59.627 L 586.913,-58.8316 L 587,-58
 L 587,-24.2626 L 586.896,-23.3548 L 586.622,-22.5647 L 586.19,-21.8488 L 585.618,-21.2384 L 584.932,-20.7602
 L 584.162,-20.435 L 583.34,-20.2772 z
M 607.838,-20.435 L 607.068,-20.7602 L 606.382,-21.2384 L 605.81,-21.8488 L 605.378,-22.5647 L 605.104,-23.3548
 L 605,-24.2626 L 605,-58 L 605.087,-58.8316 L 605.346,-59.627 L 605.764,-60.3511 L 606.323,-60.9726
 L 607,-61.4641 L 607.764,-61.8042 L 609,-62 L 706.326,-62 L 707.157,-61.9126 L 707.953,-61.6542
 L 708.677,-61.2361 L 709.298,-60.6765 L 709.79,-60 L 710.13,-59.2361 L 710.304,-58.4181 L 710.304,-57.5819
 L 710.13,-56.7639 L 709.79,-56 L 709.298,-55.3235 L 708.677,-54.7639 L 707.636,-54.2206 L 610.31,-20.4833
 L 609.496,-20.2935 L 608.66,-20.2772 z
M 804.005,-20.435 L 803.235,-20.7602 L 802.549,-21.2384 L 801.977,-21.8488 L 801.545,-22.5647 L 801.271,-23.3548
 L 801.167,-24.2626 L 801.167,-58 L 801.254,-58.8316 L 801.512,-59.627 L 801.931,-60.3511 L 802.49,-60.9726
 L 803.167,-61.4641 L 803.931,-61.8042 L 805.167,-62 L 902.492,-62 L 903.324,-61.9126 L 904.119,-61.6542
 L 904.843,-61.2361 L 905.465,-60.6765 L 905.956,-60 L 906.297,-59.2361 L 906.47,-58.4181 L 906.47,-57.5819
 L 906.297,-56.7639 L 905.956,-56 L 905.465,-55.3235 L 904.843,-54.7639 L 903.802,-54.2206 L 806.477,-20.4833
 L 805.662,-20.2935 L 804.826,-20.2772 z
M 216.667,-18 L 215.431,-18.1958 L 214.667,-18.5359 L 213.99,-19.0274 L 213.431,-19.6489 L 213.012,-20.373
 L 212.754,-21.1684 L 212.667,-22 L 212.667,-55.7374 L 212.771,-56.6452 L 213.045,-57.4353 L 213.477,-58.1512
 L 214.049,-58.7616 L 214.735,-59.2398 L 215.505,-59.565 L 216.326,-59.7228 L 217.162,-59.7065 L 217.977,-59.5167
 L 315.302,-25.7794 L 316.343,-25.2361 L 316.965,-24.6765 L 317.456,-24 L 317.797,-23.2361 L 317.97,-22.4181
 L 317.97,-21.5819 L 317.797,-20.7639 L 317.456,-20 L 316.965,-19.3235 L 316.343,-18.7639 L 315.619,-18.3458
 L 314.824,-18.0874 L 313.992,-18 z
M 412.833,-18 L 411.597,-18.1958 L 410.833,-18.5359 L 410.157,-19.0274 L 409.597,-19.6489 L 409.179,-20.373
 L 408.921,-21.1684 L 408.833,-22 L 408.833,-55.7374 L 408.938,-56.6452 L 409.212,-57.4353 L 409.644,-58.1512
 L 410.215,-58.7616 L 410.901,-59.2398 L 411.672,-59.565 L 412.493,-59.7228 L 413.329,-59.7065 L 414.143,-59.5167
 L 511.469,-25.7794 L 512.51,-25.2361 L 513.132,-24.6765 L 513.623,-24 L 513.963,-23.2361 L 514.137,-22.4181
 L 514.137,-21.5819 L 513.963,-20.7639 L 513.623,-20 L 513.132,-19.3235 L 512.51,-18.7639 L 511.786,-18.3458
 L 510.991,-18.0874 L 510.159,-18 z
M 681.841,-18 L 681.009,-18.0874 L 680.214,-18.3458 L 679.49,-18.7639 L 678.868,-19.3235 L 678.377,-20
 L 678.037,-20.7639 L 677.863,-21.5819 L 677.863,-22.4181 L 678.037,-23.2361 L 678.377,-24 L 678.868,-24.6765
 L 679.49,-25.2361 L 680.531,-25.7794 L 777.857,-59.5167 L 778.671,-59.7065 L 779.507,-59.7228 L 780.328,-59.565
 L 781.099,-59.2398 L 781.785,-58.7616 L 782.356,-58.1512 L 782.788,-57.4353 L 783.062,-56.6452 L 783.167,-55.7374
 L 783.167,-22 L 783.079,-21.1684 L 782.821,-20.373 L 782.403,-19.6489 L 781.843,-19.0274 L 781.167,-18.5359
 L 780.403,-18.1958 L 779.167,-18 z
M 878.008,-18 L 877.176,-18.0874 L 876.381,-18.3458 L 875.657,-18.7639 L 875.035,-19.3235 L 874.544,-20
 L 874.203,-20.7639 L 874.03,-21.5819 L 874.03,-22.4181 L 874.203,-23.2361 L 874.544,-24 L 875.035,-24.6765
 L 875.657,-25.2361 L 876.698,-25.7794 L 974.023,-59.5167 L 974.838,-59.7065 L 975.674,-59.7228 L 976.495,-59.565
 L 977.265,-59.2398 L 977.951,-58.7616 L 978.523,-58.1512 L 978.955,-57.4353 L 979.229,-56.6452 L 979.333,-55.7374
 L 979.333,-22 L 979.246,-21.1684 L 978.988,-20.373 L 978.569,-19.6489 L 978.01,-19.0274 L 977.333,-18.5359
 L 976.569,-18.1958 L 975.333,-18 z
M 1074.17,-18 L 1073.34,-18.0874 L 1072.55,-18.3458 L 1071.82,-18.7639 L 1071.2,-19.3235 L 1070.71,-20
 L 1070.37,-20.7639 L 1070.2,-21.5819 L 1070.2,-22.4181 L 1070.37,-23.2361 L 1070.71,-24 L 1071.2,-24.6765
 L 1071.82,-25.2361 L 1072.86,-25.7794 L 1168.69,-58.9967 L 1169.5,-59.1865 L 1170.34,-59.2029 L 1171.16,-59.045
 L 1171.93,-58.7199 L 1172.62,-58.2416 L 1173.19,-57.6312 L 1173.62,-56.9153 L 1173.9,-56.1252 L 1174,-55.2174
 L 1174,-22 L 1173.91,-21.1684 L 1173.65,-20.373 L 1173.24,-19.6489 L 1172.68,-19.0274 L 1172,-18.5359
 L 1171.24,-18.1958 L 1170,-18 z
M 22,-18 L 20.7639,-18.1958 L 20,-18.5359 L 19.3235,-19.0274 L 18.7639,-19.6489 L 18.3458,-20.373
 L 18.0874,-21.1684 L 18,-22 L 18,-55.2174 L 18.1044,-56.1252 L 18.3783,-56.9153 L 18.8104,-57.6312
 L 19.382,-58.2416 L 20.068,-58.7199 L 20.8384,-59.045 L 21.6596,-59.2029 L 22.4957,-59.1865 L 23.3101,-58.9967
 L 119.136,-25.7794 L 120.177,-25.2361 L 120.798,-24.6765 L 121.29,-24 L 121.63,-23.2361 L 121.804,-22.4181
 L 121.804,-21.5819 L 121.63,-20.7639 L 121.29,-20 L 120.798,-19.3235 L 120.177,-18.7639 L 119.453,-18.3458
 L 118.657,-18.0874 L 117.826,-18 z
" stroke="black" fill="lightgray" stroke-width="0.5"/>
</svg>
