<?xml version="1.0" standalone="no"?>
<!DOCTYPE svg PUBLIC "-//W3C//DTD SVG 1.1//EN" "http://www.w3.org/Graphics/SVG/1.1/DTD/svg11.dtd">
<svg width="1326mm" height="80mm" viewBox="0 -80 1326 80" xmlns="http://www.w3.org/2000/svg" version="1.1">
<title>OpenSCAD Model</title>
<path d="
M 1326,-80 L 0,-80 L 0,-0 L 4.95,-0 L 4.95,-6 L 5.00572,-6.53017
 L 5.17046,-7.03717 L 5.437,-7.49884 L 5.79372,-7.895 L 6.22499,-8.20836 L 6.71201,-8.42519 L 7.23344,-8.53603
 L 7.76654,-8.53603 L 8.28798,-8.42519 L 8.77499,-8.20836 L 9.20627,-7.895 L 9.56299,-7.49884 L 9.82953,-7.03717
 L 9.99426,-6.53017 L 10.05,-6 L 10.05,-0 L 192.236,-0 L 192.236,-6 L 192.291,-6.53017
 L 192.456,-7.03717 L 192.723,-7.49884 L 193.079,-7.895 L 193.511,-8.20836 L 193.998,-8.42519 L 194.519,-8.53603
 L 195.052,-8.53603 L 195.574,-8.42519 L 196.061,-8.20836 L 196.492,-7.895 L 196.849,-7.49884 L 197.115,-7.03717
 L 197.28,-6.53017 L 197.336,-6 L 197.336,-0 L 379.521,-0 L 379.521,-6 L 379.577,-6.53017
 L 379.742,-7.03717 L 380.008,-7.49884 L 380.365,-7.895 L 380.796,-8.20836 L 381.283,-8.42519 L 381.805,-8.53603
 L 382.338,-8.53603 L 382.859,-8.42519 L 383.346,-8.20836 L 383.778,-7.895 L 384.134,-7.49884 L 384.401,-7.03717
 L 384.566,-6.53017 L 384.621,-6 L 384.621,-0 L 566.807,-0 L 566.807,-6 L 566.863,-6.53017
 L 567.028,-7.03717 L 567.294,-7.49884 L 567.651,-7.895 L 568.082,-8.20836 L 568.569,-8.42519 L 569.091,-8.53603
 L 569.624,-8.53603 L 570.145,-8.42519 L 570.632,-8.20836 L 571.063,-7.895 L 571.42,-7.49884 L 571.687,-7.03717
 L 571.851,-6.53017 L 571.907,-6 L 571.907,-0 L 754.093,-0 L 754.093,-6 L 754.149,-6.53017
 L 754.313,-7.03717 L 754.58,-7.49884 L 754.937,-7.895 L 755.368,-8.20836 L 755.855,-8.42519 L 756.376,-8.53603
 L 756.909,-8.53603 L 757.431,-8.42519 L 757.918,-8.20836 L 758.349,-7.895 L 758.706,-7.49884 L 758.972,-7.03717
 L 759.137,-6.53017 L 759.193,-6 L 759.193,-0 L 941.379,-0 L 941.379,-6 L 941.434,-6.53017
 L 941.599,-7.03717 L 941.866,-7.49884 L 942.222,-7.895 L 942.654,-8.20836 L 943.141,-8.42519 L 943.662,-8.53603
 L 944.195,-8.53603 L 944.717,-8.42519 L 945.204,-8.20836 L 945.635,-7.895 L 945.992,-7.49884 L 946.258,-7.03717
 L 946.423,-6.53017 L 946.479,-6 L 946.479,-0 L 1128.66,-0 L 1128.66,-6 L 1128.72,-6.53017
 L 1128.88,-7.03717 L 1129.15,-7.49884 L 1129.51,-7.895 L 1129.94,-8.20836 L 1130.43,-8.42519 L 1130.95,-8.53603
 L 1131.48,-8.53603 L 1132,-8.42519 L 1132.49,-8.20836 L 1132.92,-7.895 L 1133.28,-7.49884 L 1133.54,-7.03717
 L 1133.71,-6.53017 L 1133.76,-6 L 1133.76,-0 L 1315.95,-0 L 1315.95,-6 L 1316.01,-6.53017
 L 1316.17,-7.03717 L 1316.44,-7.49884 L 1316.79,-7.895 L 1317.22,-8.20836 L 1317.71,-8.42519 L 1318.23,-8.53603
 L 1318.77,-8.53603 L 1319.29,-8.42519 L 1319.77,-8.20836 L 1320.21,-7.895 L 1320.56,-7.49884 L 1320.83,-7.03717
 L 1320.99,-6.53017 L 1321.05,-6 L 1321.05,-0 L 1326,-0 z
M 6.98573,-55.607 L 6.47708,-55.6875 L 5.97964,-55.8208 L 5.49887,-56.0054 L 5.04001,-56.2392 L 4.60811,-56.5196
 L 4.20789,-56.8437 L 3.84373,-57.2079 L 3.51964,-57.6081 L 3.23917,-58.04 L 3.00537,-58.4989 L 2.82082,-58.9796
 L 2.68752,-59.4771 L 2.60696,-59.9857 L 2.58,-60.5 L 2.60696,-61.0143 L 2.68752,-61.5229 L 2.82082,-62.0204
 L 3.00537,-62.5011 L 3.23917,-62.96 L 3.51964,-63.3919 L 3.84373,-63.7921 L 4.20789,-64.1563 L 4.60811,-64.4804
 L 4.95001,-64.7024 L 4.95001,-74 L 5.00574,-74.5302 L 5.17047,-75.0372 L 5.43701,-75.4988 L 5.79373,-75.895
 L 6.22501,-76.2084 L 6.71202,-76.4252 L 7.23346,-76.536 L 7.76654,-76.536 L 8.28798,-76.4252 L 8.77499,-76.2084
 L 9.20627,-75.895 L 9.56299,-75.4988 L 9.82953,-75.0372 L 9.99426,-74.5302 L 10.05,-74 L 10.05,-64.7024
 L 10.3919,-64.4804 L 10.7921,-64.1563 L 11.1563,-63.7921 L 11.4804,-63.3919 L 11.7608,-62.96 L 11.9946,-62.5011
 L 12.1792,-62.0204 L 12.3125,-61.5229 L 12.393,-61.0143 L 12.42,-60.5 L 12.393,-59.9857 L 12.3125,-59.4771
 L 12.1792,-58.9796 L 11.9946,-58.4989 L 11.7608,-58.04 L 11.4804,-57.6081 L 11.1563,-57.2079 L 10.7921,-56.8437
 L 10.3919,-56.5196 L 9.95999,-56.2392 L 9.50113,-56.0054 L 9.02036,-55.8208 L 8.52292,-55.6875 L 8.01427,-55.607
 L 7.5,-55.58 z
M 194.271,-55.607 L 193.763,-55.6875 L 193.265,-55.8208 L 192.785,-56.0054 L 192.326,-56.2392 L 191.894,-56.5196
 L 191.494,-56.8437 L 191.129,-57.2079 L 190.805,-57.6081 L 190.525,-58.04 L 190.291,-58.4989 L 190.107,-58.9796
 L 189.973,-59.4771 L 189.893,-59.9857 L 189.866,-60.5 L 189.893,-61.0143 L 189.973,-61.5229 L 190.107,-62.0204
 L 190.291,-62.5011 L 190.525,-62.96 L 190.805,-63.3919 L 191.129,-63.7921 L 191.494,-64.1563 L 191.894,-64.4804
 L 192.236,-64.7024 L 192.236,-74 L 192.291,-74.5302 L 192.456,-75.0372 L 192.723,-75.4988 L 193.079,-75.895
 L 193.511,-76.2084 L 193.998,-76.4252 L 194.519,-76.536 L 195.052,-76.536 L 195.574,-76.4252 L 196.061,-76.2084
 L 196.492,-75.895 L 196.849,-75.4988 L 197.115,-75.0372 L 197.28,-74.5302 L 197.336,-74 L 197.336,-64.7024
 L 197.678,-64.4804 L 198.078,-64.1563 L 198.442,-63.7921 L 198.766,-63.3919 L 199.047,-62.96 L 199.28,-62.5011
 L 199.465,-62.0204 L 199.598,-61.5229 L 199.679,-61.0143 L 199.706,-60.5 L 199.679,-59.9857 L 199.598,-59.4771
 L 199.465,-58.9796 L 199.28,-58.4989 L 199.047,-58.04 L 198.766,-57.6081 L 198.442,-57.2079 L 198.078,-56.8437
 L 197.678,-56.5196 L 197.246,-56.2392 L 196.787,-56.0054 L 196.306,-55.8208 L 195.809,-55.6875 L 195.3,-55.607
 L 194.786,-55.58 z
M 381.557,-55.607 L 381.049,-55.6875 L 380.551,-55.8208 L 380.07,-56.0054 L 379.611,-56.2392 L 379.18,-56.5196
 L 378.779,-56.8437 L 378.415,-57.2079 L 378.091,-57.6081 L 377.811,-58.04 L 377.577,-58.4989 L 377.392,-58.9796
 L 377.259,-59.4771 L 377.178,-59.9857 L 377.151,-60.5 L 377.178,-61.0143 L 377.259,-61.5229 L 377.392,-62.0204
 L 377.577,-62.5011 L 377.811,-62.96 L 378.091,-63.3919 L 378.415,-63.7921 L 378.779,-64.1563 L 379.18,-64.4804
 L 379.521,-64.7024 L 379.521,-74 L 379.577,-74.5302 L 379.742,-75.0372 L 380.008,-75.4988 L 380.365,-75.895
 L 380.796,-76.2084 L 381.283,-76.4252 L 381.805,-76.536 L 382.338,-76.536 L 382.859,-76.4252 L 383.346,-76.2084
 L 383.778,-75.895 L 384.134,-75.4988 L 384.401,-75.0372 L 384.566,-74.5302 L 384.621,-74 L 384.621,-64.7024
 L 384.963,-64.4804 L 385.364,-64.1563 L 385.728,-63.7921 L 386.052,-63.3919 L 386.332,-62.96 L 386.566,-62.5011
 L 386.751,-62.0204 L 386.884,-61.5229 L 386.964,-61.0143 L 386.991,-60.5 L 386.964,-59.9857 L 386.884,-59.4771
 L 386.751,-58.9796 L 386.566,-58.4989 L 386.332,-58.04 L 386.052,-57.6081 L 385.728,-57.2079 L 385.364,-56.8437
 L 384.963,-56.5196 L 384.531,-56.2392 L 384.073,-56.0054 L 383.592,-55.8208 L 383.094,-55.6875 L 382.586,-55.607
 L 382.071,-55.58 z
M 568.843,-55.607 L 568.334,-55.6875 L 567.837,-55.8208 L 567.356,-56.0054 L 566.897,-56.2392 L 566.465,-56.5196
 L 566.065,-56.8437 L 565.701,-57.2079 L 565.377,-57.6081 L 565.096,-58.04 L 564.863,-58.4989 L 564.678,-58.9796
 L 564.545,-59.4771 L 564.464,-59.9857 L 564.437,-60.5 L 564.464,-61.0143 L 564.545,-61.5229 L 564.678,-62.0204
 L 564.863,-62.5011 L 565.096,-62.96 L 565.377,-63.3919 L 565.701,-63.7921 L 566.065,-64.1563 L 566.465,-64.4804
 L 566.807,-64.7024 L 566.807,-74 L 566.863,-74.5302 L 567.028,-75.0372 L 567.294,-75.4988 L 567.651,-75.895
 L 568.082,-76.2084 L 568.569,-76.4252 L 569.091,-76.536 L 569.624,-76.536 L 570.145,-76.4252 L 570.632,-76.2084
 L 571.063,-75.895 L 571.42,-75.4988 L 571.687,-75.0372 L 571.851,-74.5302 L 571.907,-74 L 571.907,-64.7024
 L 572.249,-64.4804 L 572.649,-64.1563 L 573.013,-63.7921 L 573.337,-63.3919 L 573.618,-62.96 L 573.852,-62.5011
 L 574.036,-62.0204 L 574.17,-61.5229 L 574.25,-61.0143 L 574.277,-60.5 L 574.25,-59.9857 L 574.17,-59.4771
 L 574.036,-58.9796 L 573.852,-58.4989 L 573.618,-58.04 L 573.337,-57.6081 L 573.013,-57.2079 L 572.649,-56.8437
 L 572.249,-56.5196 L 571.817,-56.2392 L 571.358,-56.0054 L 570.877,-55.8208 L 570.38,-55.6875 L 569.871,-55.607
 L 569.357,-55.58 z
M 756.129,-55.607 L 755.62,-55.6875 L 755.122,-55.8208 L 754.642,-56.0054 L 754.183,-56.2392 L 753.751,-56.5196
 L 753.351,-56.8437 L 752.987,-57.2079 L 752.662,-57.6081 L 752.382,-58.04 L 752.148,-58.4989 L 751.964,-58.9796
 L 751.83,-59.4771 L 751.75,-59.9857 L 751.723,-60.5 L 751.75,-61.0143 L 751.83,-61.5229 L 751.964,-62.0204
 L 752.148,-62.5011 L 752.382,-62.96 L 752.662,-63.3919 L 752.987,-63.7921 L 753.351,-64.1563 L 753.751,-64.4804
 L 754.093,-64.7024 L 754.093,-74 L 754.149,-74.5302 L 754.313,-75.0372 L 754.58,-75.4988 L 754.937,-75.895
 L 755.368,-76.2084 L 755.855,-76.4252 L 756.376,-76.536 L 756.909,-76.536 L 757.431,-76.4252 L 757.918,-76.2084
 L 758.349,-75.895 L 758.706,-75.4988 L 758.972,-75.0372 L 759.137,-74.5302 L 759.193,-74 L 759.193,-64.7024
 L 759.535,-64.4804 L 759.935,-64.1563 L 760.299,-63.7921 L 760.623,-63.3919 L 760.904,-62.96 L 761.137,-62.5011
 L 761.322,-62.0204 L 761.455,-61.5229 L 761.536,-61.0143 L 761.563,-60.5 L 761.536,-59.9857 L 761.455,-59.4771
 L 761.322,-58.9796 L 761.137,-58.4989 L 760.904,-58.04 L 760.623,-57.6081 L 760.299,-57.2079 L 759.935,-56.8437
 L 759.535,-56.5196 L 759.103,-56.2392 L 758.644,-56.0054 L 758.163,-55.8208 L 757.666,-55.6875 L 757.157,-55.607
 L 756.643,-55.58 z
M 943.414,-55.607 L 942.906,-55.6875 L 942.408,-55.8208 L 941.927,-56.0054 L 941.469,-56.2392 L 941.037,-56.5196
 L 940.636,-56.8437 L 940.272,-57.2079 L 939.948,-57.6081 L 939.668,-58.04 L 939.434,-58.4989 L 939.249,-58.9796
 L 939.116,-59.4771 L 939.036,-59.9857 L 939.009,-60.5 L 939.036,-61.0143 L 939.116,-61.5229 L 939.249,-62.0204
 L 939.434,-62.5011 L 939.668,-62.96 L 939.948,-63.3919 L 940.272,-63.7921 L 940.636,-64.1563 L 941.037,-64.4804
 L 941.379,-64.7024 L 941.379,-74 L 941.434,-74.5302 L 941.599,-75.0372 L 941.866,-75.4988 L 942.222,-75.895
 L 942.654,-76.2084 L 943.141,-76.4252 L 943.662,-76.536 L 944.195,-76.536 L 944.717,-76.4252 L 945.204,-76.2084
 L 945.635,-75.895 L 945.992,-75.4988 L 946.258,-75.0372 L 946.423,-74.5302 L 946.479,-74 L 946.479,-64.7024
 L 946.82,-64.4804 L 947.221,-64.1563 L 947.585,-63.7921 L 947.909,-63.3919 L 948.189,-62.96 L 948.423,-62.5011
 L 948.608,-62.0204 L 948.741,-61.5229 L 948.822,-61.0143 L 948.849,-60.5 L 948.822,-59.9857 L 948.741,-59.4771
 L 948.608,-58.9796 L 948.423,-58.4989 L 948.189,-58.04 L 947.909,-57.6081 L 947.585,-57.2079 L 947.221,-56.8437
 L 946.82,-56.5196 L 946.389,-56.2392 L 945.93,-56.0054 L 945.449,-55.8208 L 944.951,-55.6875 L 944.443,-55.607
 L 943.929,-55.58 z
M 1130.7,-55.607 L 1130.19,-55.6875 L 1129.69,-55.8208 L 1129.21,-56.0054 L 1128.75,-56.2392 L 1128.32,-56.5196
 L 1127.92,-56.8437 L 1127.56,-57.2079 L 1127.23,-57.6081 L 1126.95,-58.04 L 1126.72,-58.4989 L 1126.54,-58.9796
 L 1126.4,-59.4771 L 1126.32,-59.9857 L 1126.29,-60.5 L 1126.32,-61.0143 L 1126.4,-61.5229 L 1126.54,-62.0204
 L 1126.72,-62.5011 L 1126.95,-62.96 L 1127.23,-63.3919 L 1127.56,-63.7921 L 1127.92,-64.1563 L 1128.32,-64.4804
 L 1128.66,-64.7024 L 1128.66,-74 L 1128.72,-74.5302 L 1128.88,-75.0372 L 1129.15,-75.4988 L 1129.51,-75.895
 L 1129.94,-76.2084 L 1130.43,-76.4252 L 1130.95,-76.536 L 1131.48,-76.536 L 1132,-76.4252 L 1132.49,-76.2084
 L 1132.92,-75.895 L 1133.28,-75.4988 L 1133.54,-75.0372 L 1133.71,-74.5302 L 1133.76,-74 L 1133.76,-64.7024
 L 1134.11,-64.4804 L 1134.51,-64.1563 L 1134.87,-63.7921 L 1135.19,-63.3919 L 1135.48,-62.96 L 1135.71,-62.5011
 L 1135.89,-62.0204 L 1136.03,-61.5229 L 1136.11,-61.0143 L 1136.13,-60.5 L 1136.11,-59.9857 L 1136.03,-59.4771
 L 1135.89,-58.9796 L 1135.71,-58.4989 L 1135.48,-58.04 L 1135.19,-57.6081 L 1134.87,-57.2079 L 1134.51,-56.8437
 L 1134.11,-56.5196 L 1133.67,-56.2392 L 1133.22,-56.0054 L 1132.73,-55.8208 L 1132.24,-55.6875 L 1131.73,-55.607
 L 1131.21,-55.58 z
M 1317.99,-55.607 L 1317.48,-55.6875 L 1316.98,-55.8208 L 1316.5,-56.0054 L 1316.04,-56.2392 L 1315.61,-56.5196
 L 1315.21,-56.8437 L 1314.84,-57.2079 L 1314.52,-57.6081 L 1314.24,-58.04 L 1314.01,-58.4989 L 1313.82,-58.9796
 L 1313.69,-59.4771 L 1313.61,-59.9857 L 1313.58,-60.5 L 1313.61,-61.0143 L 1313.69,-61.5229 L 1313.82,-62.0204
 L 1314.01,-62.5011 L 1314.24,-62.96 L 1314.52,-63.3919 L 1314.84,-63.7921 L 1315.21,-64.1563 L 1315.61,-64.4804
 L 1315.95,-64.7024 L 1315.95,-74 L 1316.01,-74.5302 L 1316.17,-75.0372 L 1316.44,-75.4988 L 1316.79,-75.895
 L 1317.23,-76.2084 L 1317.71,-76.4252 L 1318.23,-76.536 L 1318.77,-76.536 L 1319.29,-76.4252 L 1319.77,-76.2084
 L 1320.21,-75.895 L 1320.56,-75.4988 L 1320.83,-75.0372 L 1320.99,-74.5302 L 1321.05,-74 L 1321.05,-64.7024
 L 1321.39,-64.4804 L 1321.79,-64.1563 L 1322.16,-63.7921 L 1322.48,-63.3919 L 1322.76,-62.96 L 1322.99,-62.5011
 L 1323.18,-62.0204 L 1323.31,-61.5229 L 1323.39,-61.0143 L 1323.42,-60.5 L 1323.39,-59.9857 L 1323.31,-59.4771
 L 1323.18,-58.9796 L 1322.99,-58.4989 L 1322.76,-58.04 L 1322.48,-57.6081 L 1322.16,-57.2079 L 1321.79,-56.8437
 L 1321.39,-56.5196 L 1320.96,-56.2392 L 1320.5,-56.0054 L 1320.02,-55.8208 L 1319.52,-55.6875 L 1319.01,-55.607
 L 1318.5,-55.58 z
M 768.537,-20.6982 L 767.762,-21.012 L 767.069,-21.4802 L 766.489,-22.0822 L 766.046,-22.7917 L 765.761,-23.5777
 L 765.643,-24.5424 L 765.643,-58 L 765.73,-58.8316 L 765.989,-59.627 L 766.407,-60.3511 L 766.966,-60.9726
 L 767.643,-61.4641 L 768.407,-61.8042 L 769.643,-62 L 861.792,-62 L 862.624,-61.9126 L 863.419,-61.6542
 L 864.143,-61.2361 L 864.765,-60.6765 L 865.256,-60 L 865.596,-59.2361 L 865.77,-58.4181 L 865.77,-57.5819
 L 865.596,-56.7639 L 865.256,-56 L 864.765,-55.3235 L 864.143,-54.7639 L 863.157,-54.2402 L 771.008,-20.7825
 L 770.196,-20.5809 L 769.361,-20.5523 z
M 662.446,-47.7343 L 661.635,-47.9359 L 644.272,-54.2402 L 643.286,-54.7639 L 642.664,-55.3235 L 642.173,-56
 L 641.833,-56.7639 L 641.659,-57.5819 L 641.659,-58.4181 L 641.833,-59.2361 L 642.173,-60 L 642.664,-60.6765
 L 643.286,-61.2361 L 644.01,-61.6542 L 644.805,-61.9126 L 645.637,-62 L 680.363,-62 L 681.469,-61.8442
 L 682.244,-61.5303 L 682.937,-61.0622 L 683.517,-60.4602 L 683.96,-59.7507 L 684.245,-58.9646 L 684.361,-58.1365
 L 684.302,-57.3023 L 684.071,-56.4987 L 683.677,-55.7606 L 683.139,-55.1205 L 682.48,-54.6061 L 681.728,-54.2402
 L 664.365,-47.9359 L 663.282,-47.7057 z
M 555.804,-20.5809 L 554.992,-20.7825 L 462.843,-54.2402 L 461.857,-54.7639 L 461.235,-55.3235 L 460.744,-56
 L 460.404,-56.7639 L 460.23,-57.5819 L 460.23,-58.4181 L 460.404,-59.2361 L 460.744,-60 L 461.235,-60.6765
 L 461.857,-61.2361 L 462.581,-61.6542 L 463.376,-61.9126 L 464.208,-62 L 556.357,-62 L 557.593,-61.8042
 L 558.357,-61.4641 L 559.034,-60.9726 L 559.593,-60.3511 L 560.011,-59.627 L 560.27,-58.8316 L 560.357,-58
 L 560.357,-24.5424 L 560.239,-23.5777 L 559.954,-22.7917 L 559.511,-22.0822 L 558.931,-21.4802 L 558.238,-21.012
 L 557.463,-20.6982 L 556.639,-20.5523 z
M 368.518,-20.5809 L 367.706,-20.7825 L 275.557,-54.2402 L 274.571,-54.7639 L 273.95,-55.3235 L 273.458,-56
 L 273.118,-56.7639 L 272.944,-57.5819 L 272.944,-58.4181 L 273.118,-59.2361 L 273.458,-60 L 273.95,-60.6765
 L 274.571,-61.2361 L 275.295,-61.6542 L 276.091,-61.9126 L 276.922,-62 L 369.071,-62 L 370.307,-61.8042
 L 371.071,-61.4641 L 371.748,-60.9726 L 372.307,-60.3511 L 372.726,-59.627 L 372.984,-58.8316 L 373.071,-58
 L 373.071,-24.5424 L 372.953,-23.5777 L 372.668,-22.7917 L 372.225,-22.0822 L 371.645,-21.4802 L 370.952,-21.012
 L 370.177,-20.6982 L 369.354,-20.5523 z
M 1143.11,-20.6982 L 1142.33,-21.012 L 1141.64,-21.4802 L 1141.06,-22.0822 L 1140.62,-22.7917 L 1140.33,-23.5777
 L 1140.21,-24.5424 L 1140.21,-58 L 1140.3,-58.8316 L 1140.56,-59.627 L 1140.98,-60.3511 L 1141.54,-60.9726
 L 1142.21,-61.4641 L 1142.98,-61.8042 L 1144.21,-62 L 1236.36,-62 L 1237.2,-61.9126 L 1237.99,-61.6542
 L 1238.71,-61.2361 L 1239.34,-60.6765 L 1239.83,-60 L 1240.17,-59.2361 L 1240.34,-58.4181 L 1240.34,-57.5819
 L 1240.17,-56.7639 L 1239.83,-56 L 1239.34,-55.3235 L 1238.71,-54.7639 L 1237.73,-54.2402 L 1145.58,-20.7825
 L 1144.77,-20.5809 L 1143.93,-20.5523 z
M 181.232,-20.5809 L 180.421,-20.7825 L 88.2715,-54.2402 L 87.2855,-54.7639 L 86.664,-55.3235 L 86.1725,-56
 L 85.8324,-56.7639 L 85.6585,-57.5819 L 85.6585,-58.4181 L 85.8324,-59.2361 L 86.1725,-60 L 86.664,-60.6765
 L 87.2855,-61.2361 L 88.0097,-61.6542 L 88.805,-61.9126 L 89.6366,-62 L 181.786,-62 L 183.022,-61.8042
 L 183.786,-61.4641 L 184.462,-60.9726 L 185.022,-60.3511 L 185.44,-59.627 L 185.698,-58.8316 L 185.786,-58
 L 185.786,-24.5424 L 185.668,-23.5777 L 185.382,-22.7917 L 184.94,-22.0822 L 184.359,-21.4802 L 183.666,-21.012
 L 182.891,-20.6982 L 182.068,-20.5523 z
M 955.823,-20.6982 L 955.048,-21.012 L 954.355,-21.4802 L 953.775,-22.0822 L 953.332,-22.7917 L 953.047,-23.5777
 L 952.929,-24.5424 L 952.929,-58 L 953.016,-58.8316 L 953.274,-59.627 L 953.693,-60.3511 L 954.252,-60.9726
 L 954.929,-61.4641 L 955.693,-61.8042 L 956.929,-62 L 1049.08,-62 L 1049.91,-61.9126 L 1050.7,-61.6542
 L 1051.43,-61.2361 L 1052.05,-60.6765 L 1052.54,-60 L 1052.88,-59.2361 L 1053.06,-58.4181 L 1053.06,-57.5819
 L 1052.88,-56.7639 L 1052.54,-56 L 1052.05,-55.3235 L 1051.43,-54.7639 L 1050.44,-54.2402 L 958.294,-20.7825
 L 957.482,-20.5809 L 956.646,-20.5523 z
M 581.939,-18.4378 L 581.121,-18.6116 L 580.357,-18.9518 L 579.681,-19.4433 L 579.121,-20.0647 L 578.703,-20.7889
 L 578.445,-21.5842 L 578.357,-22.4159 L 578.357,-57.5841 L 578.475,-58.5488 L 578.761,-59.3348 L 579.203,-60.0443
 L 579.784,-60.6463 L 580.476,-61.1145 L 581.252,-61.4283 L 582.075,-61.5742 L 582.911,-61.5456 L 583.722,-61.344
 L 632.153,-43.7598 L 632.668,-43.5303 L 633.361,-43.0622 L 633.941,-42.4602 L 634.384,-41.7507 L 634.669,-40.9646
 L 634.785,-40.1365 L 634.726,-39.3023 L 634.495,-38.4987 L 634.102,-37.7606 L 633.564,-37.1205 L 632.904,-36.6061
 L 632.153,-36.2402 L 583.722,-18.656 L 582.775,-18.4378 z
M 743.089,-18.4543 L 742.278,-18.656 L 693.847,-36.2402 L 693.332,-36.4697 L 692.639,-36.9378 L 692.059,-37.5398
 L 691.616,-38.2493 L 691.331,-39.0354 L 691.215,-39.8635 L 691.274,-40.6977 L 691.505,-41.5013 L 691.898,-42.2394
 L 692.436,-42.8795 L 693.096,-43.3939 L 693.847,-43.7598 L 742.278,-61.344 L 743.225,-61.5622 L 744.061,-61.5622
 L 744.879,-61.3884 L 745.643,-61.0482 L 746.319,-60.5567 L 746.879,-59.9353 L 747.297,-59.2111 L 747.555,-58.4158
 L 747.643,-57.5842 L 747.643,-22.4158 L 747.525,-21.4512 L 747.239,-20.6652 L 746.797,-19.9557 L 746.216,-19.3537
 L 745.523,-18.8855 L 744.748,-18.5717 L 743.925,-18.4258 z
M 207.786,-18 L 206.55,-18.1958 L 205.786,-18.5359 L 205.109,-19.0274 L 204.55,-19.6489 L 204.132,-20.373
 L 203.873,-21.1684 L 203.786,-22 L 203.786,-55.4576 L 203.904,-56.4223 L 204.189,-57.2083 L 204.632,-57.9178
 L 205.212,-58.5198 L 205.905,-58.9879 L 206.68,-59.3018 L 207.504,-59.4477 L 208.339,-59.4191 L 209.151,-59.2175
 L 301.3,-25.7598 L 302.286,-25.2361 L 302.907,-24.6765 L 303.399,-24 L 303.739,-23.2361 L 303.913,-22.4181
 L 303.913,-21.5819 L 303.739,-20.7639 L 303.399,-20 L 302.907,-19.3235 L 302.286,-18.7639 L 301.562,-18.3458
 L 300.766,-18.0874 L 299.935,-18 z
M 395.071,-18 L 393.835,-18.1958 L 393.071,-18.5359 L 392.395,-19.0274 L 391.835,-19.6489 L 391.417,-20.373
 L 391.159,-21.1684 L 391.071,-22 L 391.071,-55.4576 L 391.189,-56.4223 L 391.475,-57.2083 L 391.917,-57.9178
 L 392.498,-58.5198 L 393.191,-58.9879 L 393.966,-59.3018 L 394.789,-59.4477 L 395.625,-59.4191 L 396.437,-59.2175
 L 488.586,-25.7598 L 489.572,-25.2361 L 490.193,-24.6765 L 490.685,-24 L 491.025,-23.2361 L 491.199,-22.4181
 L 491.199,-21.5819 L 491.025,-20.7639 L 490.685,-20 L 490.193,-19.3235 L 489.572,-18.7639 L 488.847,-18.3458
 L 488.052,-18.0874 L 487.22,-18 z
M 838.78,-18 L 837.948,-18.0874 L 837.153,-18.3458 L 836.428,-18.7639 L 835.807,-19.3235 L 835.315,-20
 L 834.975,-20.7639 L 834.801,-21.5819 L 834.801,-22.4181 L 834.975,-23.2361 L 835.315,-24 L 835.807,-24.6765
 L 836.428,-25.2361 L 837.414,-25.7598 L 929.563,-59.2175 L 930.375,-59.4191 L 931.211,-59.4477 L 932.034,-59.3018
 L 932.809,-58.9879 L 933.502,-58.5198 L 934.083,-57.9178 L 934.525,-57.2083 L 934.811,-56.4223 L 934.929,-55.4576
 L 934.929,-22 L 934.841,-21.1684 L 934.583,-20.373 L 934.165,-19.6489 L 933.605,-19.0274 L 932.929,-18.5359
 L 932.165,-18.1958 L 930.929,-18 z
M 1026.07,-18 L 1025.23,-18.0874 L 1024.44,-18.3458 L 1023.71,-18.7639 L 1023.09,-19.3235 L 1022.6,-20
 L 1022.26,-20.7639 L 1022.09,-21.5819 L 1022.09,-22.4181 L 1022.26,-23.2361 L 1022.6,-24 L 1023.09,-24.6765
 L 1023.71,-25.2361 L 1024.7,-25.7598 L 1116.85,-59.2175 L 1117.66,-59.4191 L 1118.5,-59.4477 L 1119.32,-59.3018
 L 1120.09,-58.9879 L 1120.79,-58.5198 L 1121.37,-57.9178 L 1121.81,-57.2083 L 1122.1,-56.4223 L 1122.21,-55.4576
 L 1122.21,-22 L 1122.13,-21.1684 L 1121.87,-20.373 L 1121.45,-19.6489 L 1120.89,-19.0274 L 1120.21,-18.5359
 L 1119.45,-18.1958 L 1118.21,-18 z
M 22,-18 L 20.7639,-18.1958 L 20,-18.5359 L 19.3235,-19.0274 L 18.7639,-19.6489 L 18.3458,-20.373
 L 18.0874,-21.1684 L 18,-22 L 18,-54.913 L 18.1181,-55.8777 L 18.4034,-56.6637 L 18.846,-57.3732
 L 19.4265,-57.9752 L 20.1193,-58.4433 L 20.8944,-58.7572 L 21.7178,-58.903 L 22.5536,-58.8745 L 23.3651,-58.6729
 L 114.014,-25.7598 L 115,-25.2361 L 115.622,-24.6765 L 116.113,-24 L 116.453,-23.2361 L 116.627,-22.4181
 L 116.627,-21.5819 L 116.453,-20.7639 L 116.113,-20 L 115.622,-19.3235 L 115,-18.7639 L 114.276,-18.3458
 L 113.481,-18.0874 L 112.649,-18 z
M 1213.35,-18 L 1212.52,-18.0874 L 1211.72,-18.3458 L 1211,-18.7639 L 1210.38,-19.3235 L 1209.89,-20
 L 1209.55,-20.7639 L 1209.37,-21.5819 L 1209.37,-22.4181 L 1209.55,-23.2361 L 1209.89,-24 L 1210.38,-24.6765
 L 1211,-25.2361 L 1211.99,-25.7598 L 1302.63,-58.6729 L 1303.45,-58.8745 L 1304.28,-58.903 L 1305.11,-58.7572
 L 1305.88,-58.4433 L 1306.57,-57.9752 L 1307.15,-57.3732 L 1307.6,-56.6637 L 1307.88,-55.8777 L 1308,-54.913
 L 1308,-22 L 1307.91,-21.1684 L 1307.65,-20.373 L 1307.24,-19.6489 L 1306.68,-19.0274 L 1306,-18.5359
 L 1305.24,-18.1958 L 1304,-18 z
M 645.637,-18 L 644.531,-18.1558 L 643.756,-18.4697 L 643.063,-18.9378 L 642.483,-19.5398 L 642.04,-20.2493
 L 641.755,-21.0354 L 641.639,-21.8635 L 641.698,-22.6977 L 641.929,-23.5013 L 642.323,-24.2394 L 642.861,-24.8795
 L 643.52,-25.3939 L 644.272,-25.7598 L 661.635,-32.0641 L 662.718,-32.2943 L 663.554,-32.2657 L 664.365,-32.0641
 L 681.728,-25.7598 L 682.714,-25.2361 L 683.336,-24.6765 L 683.827,-24 L 684.167,-23.2361 L 684.341,-22.4181
 L 684.341,-21.5819 L 684.167,-20.7639 L 683.827,-20 L 683.336,-19.3235 L 682.714,-18.7639 L 681.99,-18.3458
 L 681.195,-18.0874 L 680.363,-18 z
" stroke="black" fill="lightgray" stroke-width="0.5"/>
</svg>
