<?xml version="1.0" standalone="no"?>
<!DOCTYPE svg PUBLIC "-//W3C//DTD SVG 1.1//EN" "http://www.w3.org/Graphics/SVG/1.1/DTD/svg11.dtd">
<svg width="1070mm" height="80mm" viewBox="0 -80 1070 80" xmlns="http://www.w3.org/2000/svg" version="1.1">
<title>OpenSCAD Model</title>
<path d="
M 1070,-80 L 0,-80 L 0,-0 L 4.95,-0 L 4.95,-6 L 5.00572,-6.53017
 L 5.17046,-7.03717 L 5.437,-7.49884 L 5.79372,-7.895 L 6.22499,-8.20836 L 6.71201,-8.42519 L 7.23344,-8.53603
 L 7.76654,-8.53603 L 8.28798,-8.42519 L 8.77499,-8.20836 L 9.20627,-7.895 L 9.56299,-7.49884 L 9.82953,-7.03717
 L 9.99426,-6.53017 L 10.05,-6 L 10.05,-0 L 180.783,-0 L 180.783,-6 L 180.839,-6.53017
 L 181.004,-7.03717 L 181.27,-7.49884 L 181.627,-7.895 L 182.058,-8.20836 L 182.545,-8.42519 L 183.067,-8.53603
 L 183.6,-8.53603 L 184.121,-8.42519 L 184.608,-8.20836 L 185.04,-7.895 L 185.396,-7.49884 L 185.663,-7.03717
 L 185.828,-6.53017 L 185.883,-6 L 185.883,-0 L 356.617,-0 L 356.617,-6 L 356.672,-6.53017
 L 356.837,-7.03717 L 357.104,-7.49884 L 357.46,-7.895 L 357.892,-8.20836 L 358.379,-8.42519 L 358.9,-8.53603
 L 359.433,-8.53603 L 359.955,-8.42519 L 360.442,-8.20836 L 360.873,-7.895 L 361.23,-7.49884 L 361.496,-7.03717
 L 361.661,-6.53017 L 361.717,-6 L 361.717,-0 L 532.45,-0 L 532.45,-6 L 532.506,-6.53017
 L 532.67,-7.03717 L 532.937,-7.49884 L 533.294,-7.895 L 533.725,-8.20836 L 534.212,-8.42519 L 534.733,-8.53603
 L 535.267,-8.53603 L 535.788,-8.42519 L 536.275,-8.20836 L 536.706,-7.895 L 537.063,-7.49884 L 537.33,-7.03717
 L 537.494,-6.53017 L 537.55,-6 L 537.55,-0 L 708.283,-0 L 708.283,-6 L 708.339,-6.53017
 L 708.504,-7.03717 L 708.77,-7.49884 L 709.127,-7.895 L 709.558,-8.20836 L 710.045,-8.42519 L 710.567,-8.53603
 L 711.1,-8.53603 L 711.621,-8.42519 L 712.108,-8.20836 L 712.54,-7.895 L 712.896,-7.49884 L 713.163,-7.03717
 L 713.328,-6.53017 L 713.383,-6 L 713.383,-0 L 884.117,-0 L 884.117,-6 L 884.172,-6.53017
 L 884.337,-7.03717 L 884.604,-7.49884 L 884.96,-7.895 L 885.392,-8.20836 L 885.879,-8.42519 L 886.4,-8.53603
 L 886.933,-8.53603 L 887.455,-8.42519 L 887.942,-8.20836 L 888.373,-7.895 L 888.73,-7.49884 L 888.996,-7.03717
 L 889.161,-6.53017 L 889.217,-6 L 889.217,-0 L 1059.95,-0 L 1059.95,-6 L 1060.01,-6.53017
 L 1060.17,-7.03717 L 1060.44,-7.49884 L 1060.79,-7.895 L 1061.22,-8.20836 L 1061.71,-8.42519 L 1062.23,-8.53603
 L 1062.77,-8.53603 L 1063.29,-8.42519 L 1063.77,-8.20836 L 1064.21,-7.895 L 1064.56,-7.49884 L 1064.83,-7.03717
 L 1064.99,-6.53017 L 1065.05,-6 L 1065.05,-0 L 1070,-0 z
M 6.98573,-55.607 L 6.47708,-55.6875 L 5.97964,-55.8208 L 5.49887,-56.0054 L 5.04001,-56.2392 L 4.60811,-56.5196
 L 4.20789,-56.8437 L 3.84373,-57.2079 L 3.51964,-57.6081 L 3.23917,-58.04 L 3.00537,-58.4989 L 2.82082,-58.9796
 L 2.68752,-59.4771 L 2.60696,-59.9857 L 2.58,-60.5 L 2.60696,-61.0143 L 2.68752,-61.5229 L 2.82082,-62.0204
 L 3.00537,-62.5011 L 3.23917,-62.96 L 3.51964,-63.3919 L 3.84373,-63.7921 L 4.20789,-64.1563 L 4.60811,-64.4804
 L 4.95001,-64.7024 L 4.95001,-74 L 5.00574,-74.5302 L 5.17047,-75.0372 L 5.43701,-75.4988 L 5.79373,-75.895
 L 6.22501,-76.2084 L 6.71202,-76.4252 L 7.23346,-76.536 L 7.76654,-76.536 L 8.28798,-76.4252 L 8.77499,-76.2084
 L 9.20627,-75.895 L 9.56299,-75.4988 L 9.82953,-75.0372 L 9.99426,-74.5302 L 10.05,-74 L 10.05,-64.7024
 L 10.3919,-64.4804 L 10.7921,-64.1563 L 11.1563,-63.7921 L 11.4804,-63.3919 L 11.7608,-62.96 L 11.9946,-62.5011
 L 12.1792,-62.0204 L 12.3125,-61.5229 L 12.393,-61.0143 L 12.42,-60.5 L 12.393,-59.9857 L 12.3125,-59.4771
 L 12.1792,-58.9796 L 11.9946,-58.4989 L 11.7608,-58.04 L 11.4804,-57.6081 L 11.1563,-57.2079 L 10.7921,-56.8437
 L 10.3919,-56.5196 L 9.95999,-56.2392 L 9.50113,-56.0054 L 9.02036,-55.8208 L 8.52292,-55.6875 L 8.01427,-55.607
 L 7.5,-55.58 z
M 182.819,-55.607 L 182.31,-55.6875 L 181.813,-55.8208 L 181.332,-56.0054 L 180.873,-56.2392 L 180.441,-56.5196
 L 180.041,-56.8437 L 179.677,-57.2079 L 179.353,-57.6081 L 179.072,-58.04 L 178.839,-58.4989 L 178.654,-58.9796
 L 178.521,-59.4771 L 178.44,-59.9857 L 178.413,-60.5 L 178.44,-61.0143 L 178.521,-61.5229 L 178.654,-62.0204
 L 178.839,-62.5011 L 179.072,-62.96 L 179.353,-63.3919 L 179.677,-63.7921 L 180.041,-64.1563 L 180.441,-64.4804
 L 180.783,-64.7024 L 180.783,-74 L 180.839,-74.5302 L 181.004,-75.0372 L 181.27,-75.4988 L 181.627,-75.895
 L 182.058,-76.2084 L 182.545,-76.4252 L 183.067,-76.536 L 183.6,-76.536 L 184.121,-76.4252 L 184.608,-76.2084
 L 185.04,-75.895 L 185.396,-75.4988 L 185.663,-75.0372 L 185.828,-74.5302 L 185.883,-74 L 185.883,-64.7024
 L 186.225,-64.4804 L 186.625,-64.1563 L 186.99,-63.7921 L 187.314,-63.3919 L 187.594,-62.96 L 187.828,-62.5011
 L 188.013,-62.0204 L 188.146,-61.5229 L 188.226,-61.0143 L 188.253,-60.5 L 188.226,-59.9857 L 188.146,-59.4771
 L 188.013,-58.9796 L 187.828,-58.4989 L 187.594,-58.04 L 187.314,-57.6081 L 186.99,-57.2079 L 186.625,-56.8437
 L 186.225,-56.5196 L 185.793,-56.2392 L 185.334,-56.0054 L 184.854,-55.8208 L 184.356,-55.6875 L 183.848,-55.607
 L 183.333,-55.58 z
M 358.652,-55.607 L 358.144,-55.6875 L 357.646,-55.8208 L 357.166,-56.0054 L 356.707,-56.2392 L 356.275,-56.5196
 L 355.875,-56.8437 L 355.51,-57.2079 L 355.186,-57.6081 L 354.906,-58.04 L 354.672,-58.4989 L 354.487,-58.9796
 L 354.354,-59.4771 L 354.274,-59.9857 L 354.247,-60.5 L 354.274,-61.0143 L 354.354,-61.5229 L 354.487,-62.0204
 L 354.672,-62.5011 L 354.906,-62.96 L 355.186,-63.3919 L 355.51,-63.7921 L 355.875,-64.1563 L 356.275,-64.4804
 L 356.617,-64.7024 L 356.617,-74 L 356.672,-74.5302 L 356.837,-75.0372 L 357.104,-75.4988 L 357.46,-75.895
 L 357.892,-76.2084 L 358.379,-76.4252 L 358.9,-76.536 L 359.433,-76.536 L 359.955,-76.4252 L 360.442,-76.2084
 L 360.873,-75.895 L 361.23,-75.4988 L 361.496,-75.0372 L 361.661,-74.5302 L 361.717,-74 L 361.717,-64.7024
 L 362.059,-64.4804 L 362.459,-64.1563 L 362.823,-63.7921 L 363.147,-63.3919 L 363.427,-62.96 L 363.661,-62.5011
 L 363.846,-62.0204 L 363.979,-61.5229 L 364.06,-61.0143 L 364.087,-60.5 L 364.06,-59.9857 L 363.979,-59.4771
 L 363.846,-58.9796 L 363.661,-58.4989 L 363.427,-58.04 L 363.147,-57.6081 L 362.823,-57.2079 L 362.459,-56.8437
 L 362.059,-56.5196 L 361.627,-56.2392 L 361.168,-56.0054 L 360.687,-55.8208 L 360.19,-55.6875 L 359.681,-55.607
 L 359.167,-55.58 z
M 534.486,-55.607 L 533.977,-55.6875 L 533.48,-55.8208 L 532.999,-56.0054 L 532.54,-56.2392 L 532.108,-56.5196
 L 531.708,-56.8437 L 531.344,-57.2079 L 531.02,-57.6081 L 530.739,-58.04 L 530.505,-58.4989 L 530.321,-58.9796
 L 530.188,-59.4771 L 530.107,-59.9857 L 530.08,-60.5 L 530.107,-61.0143 L 530.188,-61.5229 L 530.321,-62.0204
 L 530.505,-62.5011 L 530.739,-62.96 L 531.02,-63.3919 L 531.344,-63.7921 L 531.708,-64.1563 L 532.108,-64.4804
 L 532.45,-64.7024 L 532.45,-74 L 532.506,-74.5302 L 532.67,-75.0372 L 532.937,-75.4988 L 533.294,-75.895
 L 533.725,-76.2084 L 534.212,-76.4252 L 534.733,-76.536 L 535.267,-76.536 L 535.788,-76.4252 L 536.275,-76.2084
 L 536.706,-75.895 L 537.063,-75.4988 L 537.33,-75.0372 L 537.494,-74.5302 L 537.55,-74 L 537.55,-64.7024
 L 537.892,-64.4804 L 538.292,-64.1563 L 538.656,-63.7921 L 538.98,-63.3919 L 539.261,-62.96 L 539.495,-62.5011
 L 539.679,-62.0204 L 539.812,-61.5229 L 539.893,-61.0143 L 539.92,-60.5 L 539.893,-59.9857 L 539.812,-59.4771
 L 539.679,-58.9796 L 539.495,-58.4989 L 539.261,-58.04 L 538.98,-57.6081 L 538.656,-57.2079 L 538.292,-56.8437
 L 537.892,-56.5196 L 537.46,-56.2392 L 537.001,-56.0054 L 536.52,-55.8208 L 536.023,-55.6875 L 535.514,-55.607
 L 535,-55.58 z
M 710.319,-55.607 L 709.81,-55.6875 L 709.313,-55.8208 L 708.832,-56.0054 L 708.373,-56.2392 L 707.941,-56.5196
 L 707.541,-56.8437 L 707.177,-57.2079 L 706.853,-57.6081 L 706.572,-58.04 L 706.339,-58.4989 L 706.154,-58.9796
 L 706.021,-59.4771 L 705.94,-59.9857 L 705.913,-60.5 L 705.94,-61.0143 L 706.021,-61.5229 L 706.154,-62.0204
 L 706.339,-62.5011 L 706.572,-62.96 L 706.853,-63.3919 L 707.177,-63.7921 L 707.541,-64.1563 L 707.941,-64.4804
 L 708.283,-64.7024 L 708.283,-74 L 708.339,-74.5302 L 708.504,-75.0372 L 708.77,-75.4988 L 709.127,-75.895
 L 709.558,-76.2084 L 710.045,-76.4252 L 710.567,-76.536 L 711.1,-76.536 L 711.621,-76.4252 L 712.108,-76.2084
 L 712.54,-75.895 L 712.896,-75.4988 L 713.163,-75.0372 L 713.328,-74.5302 L 713.383,-74 L 713.383,-64.7024
 L 713.725,-64.4804 L 714.125,-64.1563 L 714.49,-63.7921 L 714.814,-63.3919 L 715.094,-62.96 L 715.328,-62.5011
 L 715.513,-62.0204 L 715.646,-61.5229 L 715.726,-61.0143 L 715.753,-60.5 L 715.726,-59.9857 L 715.646,-59.4771
 L 715.513,-58.9796 L 715.328,-58.4989 L 715.094,-58.04 L 714.814,-57.6081 L 714.49,-57.2079 L 714.125,-56.8437
 L 713.725,-56.5196 L 713.293,-56.2392 L 712.834,-56.0054 L 712.354,-55.8208 L 711.856,-55.6875 L 711.348,-55.607
 L 710.833,-55.58 z
M 886.152,-55.607 L 885.644,-55.6875 L 885.146,-55.8208 L 884.666,-56.0054 L 884.207,-56.2392 L 883.775,-56.5196
 L 883.375,-56.8437 L 883.01,-57.2079 L 882.686,-57.6081 L 882.406,-58.04 L 882.172,-58.4989 L 881.987,-58.9796
 L 881.854,-59.4771 L 881.774,-59.9857 L 881.747,-60.5 L 881.774,-61.0143 L 881.854,-61.5229 L 881.987,-62.0204
 L 882.172,-62.5011 L 882.406,-62.96 L 882.686,-63.3919 L 883.01,-63.7921 L 883.375,-64.1563 L 883.775,-64.4804
 L 884.117,-64.7024 L 884.117,-74 L 884.172,-74.5302 L 884.337,-75.0372 L 884.604,-75.4988 L 884.96,-75.895
 L 885.392,-76.2084 L 885.879,-76.4252 L 886.4,-76.536 L 886.933,-76.536 L 887.455,-76.4252 L 887.942,-76.2084
 L 888.373,-75.895 L 888.73,-75.4988 L 888.996,-75.0372 L 889.161,-74.5302 L 889.217,-74 L 889.217,-64.7024
 L 889.559,-64.4804 L 889.959,-64.1563 L 890.323,-63.7921 L 890.647,-63.3919 L 890.927,-62.96 L 891.161,-62.5011
 L 891.346,-62.0204 L 891.479,-61.5229 L 891.56,-61.0143 L 891.587,-60.5 L 891.56,-59.9857 L 891.479,-59.4771
 L 891.346,-58.9796 L 891.161,-58.4989 L 890.927,-58.04 L 890.647,-57.6081 L 890.323,-57.2079 L 889.959,-56.8437
 L 889.559,-56.5196 L 889.127,-56.2392 L 888.668,-56.0054 L 888.187,-55.8208 L 887.69,-55.6875 L 887.181,-55.607
 L 886.667,-55.58 z
M 1061.99,-55.607 L 1061.48,-55.6875 L 1060.98,-55.8208 L 1060.5,-56.0054 L 1060.04,-56.2392 L 1059.61,-56.5196
 L 1059.21,-56.8437 L 1058.84,-57.2079 L 1058.52,-57.6081 L 1058.24,-58.04 L 1058.01,-58.4989 L 1057.82,-58.9796
 L 1057.69,-59.4771 L 1057.61,-59.9857 L 1057.58,-60.5 L 1057.61,-61.0143 L 1057.69,-61.5229 L 1057.82,-62.0204
 L 1058.01,-62.5011 L 1058.24,-62.96 L 1058.52,-63.3919 L 1058.84,-63.7921 L 1059.21,-64.1563 L 1059.61,-64.4804
 L 1059.95,-64.7024 L 1059.95,-74 L 1060.01,-74.5302 L 1060.17,-75.0372 L 1060.44,-75.4988 L 1060.79,-75.895
 L 1061.23,-76.2084 L 1061.71,-76.4252 L 1062.23,-76.536 L 1062.77,-76.536 L 1063.29,-76.4252 L 1063.77,-76.2084
 L 1064.21,-75.895 L 1064.56,-75.4988 L 1064.83,-75.0372 L 1064.99,-74.5302 L 1065.05,-74 L 1065.05,-64.7024
 L 1065.39,-64.4804 L 1065.79,-64.1563 L 1066.16,-63.7921 L 1066.48,-63.3919 L 1066.76,-62.96 L 1066.99,-62.5011
 L 1067.18,-62.0204 L 1067.31,-61.5229 L 1067.39,-61.0143 L 1067.42,-60.5 L 1067.39,-59.9857 L 1067.31,-59.4771
 L 1067.18,-58.9796 L 1066.99,-58.4989 L 1066.76,-58.04 L 1066.48,-57.6081 L 1066.16,-57.2079 L 1065.79,-56.8437
 L 1065.39,-56.5196 L 1064.96,-56.2392 L 1064.5,-56.0054 L 1064.02,-55.8208 L 1063.52,-55.6875 L 1063.01,-55.607
 L 1062.5,-55.58 z
M 898.641,-21.0822 L 897.86,-21.3799 L 897.157,-21.8336 L 896.564,-22.4234 L 896.107,-23.1236 L 895.806,-23.9035
 L 895.667,-24.9484 L 895.667,-58 L 895.754,-58.8316 L 896.012,-59.627 L 896.431,-60.3511 L 896.99,-60.9726
 L 897.667,-61.4641 L 898.431,-61.8042 L 899.667,-62 L 985.131,-62 L 985.963,-61.9126 L 986.758,-61.6542
 L 987.482,-61.2361 L 988.103,-60.6765 L 988.595,-60 L 988.935,-59.2361 L 989.109,-58.4181 L 989.109,-57.5819
 L 988.935,-56.7639 L 988.595,-56 L 988.103,-55.3235 L 987.482,-54.7639 L 986.574,-54.2693 L 901.109,-21.2177
 L 900.302,-20.9993 L 899.467,-20.9534 z
M 345.531,-20.9993 L 344.724,-21.2177 L 259.26,-54.2693 L 258.351,-54.7639 L 257.73,-55.3235 L 257.238,-56
 L 256.898,-56.7639 L 256.724,-57.5819 L 256.724,-58.4181 L 256.898,-59.2361 L 257.238,-60 L 257.73,-60.6765
 L 258.351,-61.2361 L 259.075,-61.6542 L 259.871,-61.9126 L 260.702,-62 L 346.167,-62 L 347.403,-61.8042
 L 348.167,-61.4641 L 348.843,-60.9726 L 349.403,-60.3511 L 349.821,-59.627 L 350.079,-58.8316 L 350.167,-58
 L 350.167,-24.9484 L 350.028,-23.9035 L 349.726,-23.1236 L 349.269,-22.4234 L 348.676,-21.8336 L 347.974,-21.3799
 L 347.192,-21.0822 L 346.366,-20.9534 z
M 169.698,-20.9993 L 168.891,-21.2177 L 83.4263,-54.2693 L 82.518,-54.7639 L 81.8965,-55.3235 L 81.405,-56
 L 81.0649,-56.7639 L 80.891,-57.5819 L 80.891,-58.4181 L 81.0649,-59.2361 L 81.405,-60 L 81.8965,-60.6765
 L 82.518,-61.2361 L 83.2422,-61.6542 L 84.0375,-61.9126 L 84.8691,-62 L 170.333,-62 L 171.569,-61.8042
 L 172.333,-61.4641 L 173.01,-60.9726 L 173.569,-60.3511 L 173.988,-59.627 L 174.246,-58.8316 L 174.333,-58
 L 174.333,-24.9484 L 174.194,-23.9035 L 173.893,-23.1236 L 173.436,-22.4234 L 172.843,-21.8336 L 172.14,-21.3799
 L 171.359,-21.0822 L 170.533,-20.9534 z
M 521.364,-20.9993 L 520.557,-21.2177 L 435.093,-54.2693 L 434.185,-54.7639 L 433.563,-55.3235 L 433.072,-56
 L 432.732,-56.7639 L 432.558,-57.5819 L 432.558,-58.4181 L 432.732,-59.2361 L 433.072,-60 L 433.563,-60.6765
 L 434.185,-61.2361 L 434.909,-61.6542 L 435.704,-61.9126 L 436.536,-62 L 522,-62 L 523.236,-61.8042
 L 524,-61.4641 L 524.677,-60.9726 L 525.236,-60.3511 L 525.654,-59.627 L 525.913,-58.8316 L 526,-58
 L 526,-24.9484 L 525.861,-23.9035 L 525.559,-23.1236 L 525.102,-22.4234 L 524.51,-21.8336 L 523.807,-21.3799
 L 523.026,-21.0822 L 522.199,-20.9534 z
M 546.974,-21.0822 L 546.193,-21.3799 L 545.49,-21.8336 L 544.898,-22.4234 L 544.441,-23.1236 L 544.139,-23.9035
 L 544,-24.9484 L 544,-58 L 544.087,-58.8316 L 544.346,-59.627 L 544.764,-60.3511 L 545.323,-60.9726
 L 546,-61.4641 L 546.764,-61.8042 L 548,-62 L 633.464,-62 L 634.296,-61.9126 L 635.091,-61.6542
 L 635.815,-61.2361 L 636.437,-60.6765 L 636.928,-60 L 637.268,-59.2361 L 637.442,-58.4181 L 637.442,-57.5819
 L 637.268,-56.7639 L 636.928,-56 L 636.437,-55.3235 L 635.815,-54.7639 L 634.907,-54.2693 L 549.443,-21.2177
 L 548.636,-20.9993 L 547.801,-20.9534 z
M 722.808,-21.0822 L 722.026,-21.3799 L 721.324,-21.8336 L 720.731,-22.4234 L 720.274,-23.1236 L 719.972,-23.9035
 L 719.833,-24.9484 L 719.833,-58 L 719.921,-58.8316 L 720.179,-59.627 L 720.597,-60.3511 L 721.157,-60.9726
 L 721.833,-61.4641 L 722.597,-61.8042 L 723.833,-62 L 809.298,-62 L 810.129,-61.9126 L 810.924,-61.6542
 L 811.649,-61.2361 L 812.27,-60.6765 L 812.762,-60 L 813.102,-59.2361 L 813.276,-58.4181 L 813.276,-57.5819
 L 813.102,-56.7639 L 812.762,-56 L 812.27,-55.3235 L 811.649,-54.7639 L 810.74,-54.2693 L 725.276,-21.2177
 L 724.469,-20.9993 L 723.634,-20.9534 z
M 196.333,-18 L 195.097,-18.1958 L 194.333,-18.5359 L 193.657,-19.0274 L 193.097,-19.6489 L 192.679,-20.373
 L 192.421,-21.1684 L 192.333,-22 L 192.333,-55.0516 L 192.472,-56.0965 L 192.774,-56.8764 L 193.231,-57.5766
 L 193.824,-58.1664 L 194.526,-58.6201 L 195.308,-58.9178 L 196.134,-59.0466 L 196.969,-59.0007 L 197.776,-58.7823
 L 283.24,-25.7307 L 284.149,-25.2361 L 284.77,-24.6765 L 285.262,-24 L 285.602,-23.2361 L 285.776,-22.4181
 L 285.776,-21.5819 L 285.602,-20.7639 L 285.262,-20 L 284.77,-19.3235 L 284.149,-18.7639 L 283.424,-18.3458
 L 282.629,-18.0874 L 281.798,-18 z
M 372.167,-18 L 370.931,-18.1958 L 370.167,-18.5359 L 369.49,-19.0274 L 368.931,-19.6489 L 368.512,-20.373
 L 368.254,-21.1684 L 368.167,-22 L 368.167,-55.0516 L 368.306,-56.0965 L 368.607,-56.8764 L 369.064,-57.5766
 L 369.657,-58.1664 L 370.36,-58.6201 L 371.141,-58.9178 L 371.967,-59.0466 L 372.802,-59.0007 L 373.609,-58.7823
 L 459.074,-25.7307 L 459.982,-25.2361 L 460.603,-24.6765 L 461.095,-24 L 461.435,-23.2361 L 461.609,-22.4181
 L 461.609,-21.5819 L 461.435,-20.7639 L 461.095,-20 L 460.603,-19.3235 L 459.982,-18.7639 L 459.258,-18.3458
 L 458.463,-18.0874 L 457.631,-18 z
M 612.369,-18 L 611.537,-18.0874 L 610.742,-18.3458 L 610.018,-18.7639 L 609.397,-19.3235 L 608.905,-20
 L 608.565,-20.7639 L 608.391,-21.5819 L 608.391,-22.4181 L 608.565,-23.2361 L 608.905,-24 L 609.397,-24.6765
 L 610.018,-25.2361 L 610.926,-25.7307 L 696.391,-58.7823 L 697.198,-59.0007 L 698.033,-59.0466 L 698.859,-58.9178
 L 699.64,-58.6201 L 700.343,-58.1664 L 700.936,-57.5766 L 701.393,-56.8764 L 701.694,-56.0965 L 701.833,-55.0516
 L 701.833,-22 L 701.746,-21.1684 L 701.488,-20.373 L 701.069,-19.6489 L 700.51,-19.0274 L 699.833,-18.5359
 L 699.069,-18.1958 L 697.833,-18 z
M 788.202,-18 L 787.371,-18.0874 L 786.576,-18.3458 L 785.851,-18.7639 L 785.23,-19.3235 L 784.738,-20
 L 784.398,-20.7639 L 784.224,-21.5819 L 784.224,-22.4181 L 784.398,-23.2361 L 784.738,-24 L 785.23,-24.6765
 L 785.851,-25.2361 L 786.76,-25.7307 L 872.224,-58.7823 L 873.031,-59.0007 L 873.866,-59.0466 L 874.692,-58.9178
 L 875.474,-58.6201 L 876.176,-58.1664 L 876.769,-57.5766 L 877.226,-56.8764 L 877.528,-56.0965 L 877.667,-55.0516
 L 877.667,-22 L 877.579,-21.1684 L 877.321,-20.373 L 876.903,-19.6489 L 876.343,-19.0274 L 875.667,-18.5359
 L 874.903,-18.1958 L 873.667,-18 z
M 964.036,-18 L 963.204,-18.0874 L 962.409,-18.3458 L 961.685,-18.7639 L 961.063,-19.3235 L 960.572,-20
 L 960.232,-20.7639 L 960.058,-21.5819 L 960.058,-22.4181 L 960.232,-23.2361 L 960.572,-24 L 961.063,-24.6765
 L 961.685,-25.2361 L 962.593,-25.7307 L 1046.56,-58.2022 L 1047.36,-58.4206 L 1048.2,-58.4665 L 1049.03,-58.3377
 L 1049.81,-58.04 L 1050.51,-57.5863 L 1051.1,-56.9965 L 1051.56,-56.2963 L 1051.86,-55.5164 L 1052,-54.4715
 L 1052,-22 L 1051.91,-21.1684 L 1051.65,-20.373 L 1051.24,-19.6489 L 1050.68,-19.0274 L 1050,-18.5359
 L 1049.24,-18.1958 L 1048,-18 z
M 22,-18 L 20.7639,-18.1958 L 20,-18.5359 L 19.3235,-19.0274 L 18.7639,-19.6489 L 18.3458,-20.373
 L 18.0874,-21.1684 L 18,-22 L 18,-54.4715 L 18.1389,-55.5164 L 18.4405,-56.2963 L 18.8977,-56.9965
 L 19.4905,-57.5863 L 20.1929,-58.04 L 20.9744,-58.3377 L 21.8006,-58.4665 L 22.6356,-58.4206 L 23.4428,-58.2022
 L 107.407,-25.7307 L 108.315,-25.2361 L 108.937,-24.6765 L 109.428,-24 L 109.768,-23.2361 L 109.942,-22.4181
 L 109.942,-21.5819 L 109.768,-20.7639 L 109.428,-20 L 108.937,-19.3235 L 108.315,-18.7639 L 107.591,-18.3458
 L 106.796,-18.0874 L 105.964,-18 z
" stroke="black" fill="lightgray" stroke-width="0.5"/>
</svg>
