<?xml version="1.0" standalone="no"?>
<!DOCTYPE svg PUBLIC "-//W3C//DTD SVG 1.1//EN" "http://www.w3.org/Graphics/SVG/1.1/DTD/svg11.dtd">
<svg width="1178mm" height="80mm" viewBox="0 -80 1178 80" xmlns="http://www.w3.org/2000/svg" version="1.1">
<title>OpenSCAD Model</title>
<path d="
M 1178,-80 L 0,-80 L 0,-0 L 4.95,-0 L 4.95,-6 L 5.00572,-6.53017
 L 5.17046,-7.03717 L 5.437,-7.49884 L 5.79372,-7.895 L 6.22499,-8.20836 L 6.71201,-8.42519 L 7.23344,-8.53603
 L 7.76654,-8.53603 L 8.28798,-8.42519 L 8.77499,-8.20836 L 9.20627,-7.895 L 9.56299,-7.49884 L 9.82953,-7.03717
 L 9.99426,-6.53017 L 10.05,-6 L 10.05,-0 L 198.783,-0 L 198.783,-6 L 198.839,-6.53017
 L 199.004,-7.03717 L 199.27,-7.49884 L 199.627,-7.895 L 200.058,-8.20836 L 200.545,-8.42519 L 201.067,-8.53603
 L 201.6,-8.53603 L 202.121,-8.42519 L 202.608,-8.20836 L 203.04,-7.895 L 203.396,-7.49884 L 203.663,-7.03717
 L 203.828,-6.53017 L 203.883,-6 L 203.883,-0 L 392.617,-0 L 392.617,-6 L 392.672,-6.53017
 L 392.837,-7.03717 L 393.104,-7.49884 L 393.46,-7.895 L 393.892,-8.20836 L 394.379,-8.42519 L 394.9,-8.53603
 L 395.433,-8.53603 L 395.955,-8.42519 L 396.442,-8.20836 L 396.873,-7.895 L 397.23,-7.49884 L 397.496,-7.03717
 L 397.661,-6.53017 L 397.717,-6 L 397.717,-0 L 586.45,-0 L 586.45,-6 L 586.506,-6.53017
 L 586.67,-7.03717 L 586.937,-7.49884 L 587.294,-7.895 L 587.725,-8.20836 L 588.212,-8.42519 L 588.733,-8.53603
 L 589.267,-8.53603 L 589.788,-8.42519 L 590.275,-8.20836 L 590.706,-7.895 L 591.063,-7.49884 L 591.33,-7.03717
 L 591.494,-6.53017 L 591.55,-6 L 591.55,-0 L 780.283,-0 L 780.283,-6 L 780.339,-6.53017
 L 780.504,-7.03717 L 780.77,-7.49884 L 781.127,-7.895 L 781.558,-8.20836 L 782.045,-8.42519 L 782.567,-8.53603
 L 783.1,-8.53603 L 783.621,-8.42519 L 784.108,-8.20836 L 784.54,-7.895 L 784.896,-7.49884 L 785.163,-7.03717
 L 785.328,-6.53017 L 785.383,-6 L 785.383,-0 L 974.117,-0 L 974.117,-6 L 974.172,-6.53017
 L 974.337,-7.03717 L 974.604,-7.49884 L 974.96,-7.895 L 975.392,-8.20836 L 975.879,-8.42519 L 976.4,-8.53603
 L 976.933,-8.53603 L 977.455,-8.42519 L 977.942,-8.20836 L 978.373,-7.895 L 978.73,-7.49884 L 978.996,-7.03717
 L 979.161,-6.53017 L 979.217,-6 L 979.217,-0 L 1167.95,-0 L 1167.95,-6 L 1168.01,-6.53017
 L 1168.17,-7.03717 L 1168.44,-7.49884 L 1168.79,-7.895 L 1169.22,-8.20836 L 1169.71,-8.42519 L 1170.23,-8.53603
 L 1170.77,-8.53603 L 1171.29,-8.42519 L 1171.77,-8.20836 L 1172.21,-7.895 L 1172.56,-7.49884 L 1172.83,-7.03717
 L 1172.99,-6.53017 L 1173.05,-6 L 1173.05,-0 L 1178,-0 z
M 6.98573,-55.607 L 6.47708,-55.6875 L 5.97964,-55.8208 L 5.49887,-56.0054 L 5.04001,-56.2392 L 4.60811,-56.5196
 L 4.20789,-56.8437 L 3.84373,-57.2079 L 3.51964,-57.6081 L 3.23917,-58.04 L 3.00537,-58.4989 L 2.82082,-58.9796
 L 2.68752,-59.4771 L 2.60696,-59.9857 L 2.58,-60.5 L 2.60696,-61.0143 L 2.68752,-61.5229 L 2.82082,-62.0204
 L 3.00537,-62.5011 L 3.23917,-62.96 L 3.51964,-63.3919 L 3.84373,-63.7921 L 4.20789,-64.1563 L 4.60811,-64.4804
 L 4.95001,-64.7024 L 4.95001,-74 L 5.00574,-74.5302 L 5.17047,-75.0372 L 5.43701,-75.4988 L 5.79373,-75.895
 L 6.22501,-76.2084 L 6.71202,-76.4252 L 7.23346,-76.536 L 7.76654,-76.536 L 8.28798,-76.4252 L 8.77499,-76.2084
 L 9.20627,-75.895 L 9.56299,-75.4988 L 9.82953,-75.0372 L 9.99426,-74.5302 L 10.05,-74 L 10.05,-64.7024
 L 10.3919,-64.4804 L 10.7921,-64.1563 L 11.1563,-63.7921 L 11.4804,-63.3919 L 11.7608,-62.96 L 11.9946,-62.5011
 L 12.1792,-62.0204 L 12.3125,-61.5229 L 12.393,-61.0143 L 12.42,-60.5 L 12.393,-59.9857 L 12.3125,-59.4771
 L 12.1792,-58.9796 L 11.9946,-58.4989 L 11.7608,-58.04 L 11.4804,-57.6081 L 11.1563,-57.2079 L 10.7921,-56.8437
 L 10.3919,-56.5196 L 9.95999,-56.2392 L 9.50113,-56.0054 L 9.02036,-55.8208 L 8.52292,-55.6875 L 8.01427,-55.607
 L 7.5,-55.58 z
M 200.819,-55.607 L 200.31,-55.6875 L 199.813,-55.8208 L 199.332,-56.0054 L 198.873,-56.2392 L 198.441,-56.5196
 L 198.041,-56.8437 L 197.677,-57.2079 L 197.353,-57.6081 L 197.072,-58.04 L 196.839,-58.4989 L 196.654,-58.9796
 L 196.521,-59.4771 L 196.44,-59.9857 L 196.413,-60.5 L 196.44,-61.0143 L 196.521,-61.5229 L 196.654,-62.0204
 L 196.839,-62.5011 L 197.072,-62.96 L 197.353,-63.3919 L 197.677,-63.7921 L 198.041,-64.1563 L 198.441,-64.4804
 L 198.783,-64.7024 L 198.783,-74 L 198.839,-74.5302 L 199.004,-75.0372 L 199.27,-75.4988 L 199.627,-75.895
 L 200.058,-76.2084 L 200.545,-76.4252 L 201.067,-76.536 L 201.6,-76.536 L 202.121,-76.4252 L 202.608,-76.2084
 L 203.04,-75.895 L 203.396,-75.4988 L 203.663,-75.0372 L 203.828,-74.5302 L 203.883,-74 L 203.883,-64.7024
 L 204.225,-64.4804 L 204.625,-64.1563 L 204.99,-63.7921 L 205.314,-63.3919 L 205.594,-62.96 L 205.828,-62.5011
 L 206.013,-62.0204 L 206.146,-61.5229 L 206.226,-61.0143 L 206.253,-60.5 L 206.226,-59.9857 L 206.146,-59.4771
 L 206.013,-58.9796 L 205.828,-58.4989 L 205.594,-58.04 L 205.314,-57.6081 L 204.99,-57.2079 L 204.625,-56.8437
 L 204.225,-56.5196 L 203.793,-56.2392 L 203.334,-56.0054 L 202.854,-55.8208 L 202.356,-55.6875 L 201.848,-55.607
 L 201.333,-55.58 z
M 394.652,-55.607 L 394.144,-55.6875 L 393.646,-55.8208 L 393.166,-56.0054 L 392.707,-56.2392 L 392.275,-56.5196
 L 391.875,-56.8437 L 391.51,-57.2079 L 391.186,-57.6081 L 390.906,-58.04 L 390.672,-58.4989 L 390.487,-58.9796
 L 390.354,-59.4771 L 390.274,-59.9857 L 390.247,-60.5 L 390.274,-61.0143 L 390.354,-61.5229 L 390.487,-62.0204
 L 390.672,-62.5011 L 390.906,-62.96 L 391.186,-63.3919 L 391.51,-63.7921 L 391.875,-64.1563 L 392.275,-64.4804
 L 392.617,-64.7024 L 392.617,-74 L 392.672,-74.5302 L 392.837,-75.0372 L 393.104,-75.4988 L 393.46,-75.895
 L 393.892,-76.2084 L 394.379,-76.4252 L 394.9,-76.536 L 395.433,-76.536 L 395.955,-76.4252 L 396.442,-76.2084
 L 396.873,-75.895 L 397.23,-75.4988 L 397.496,-75.0372 L 397.661,-74.5302 L 397.717,-74 L 397.717,-64.7024
 L 398.059,-64.4804 L 398.459,-64.1563 L 398.823,-63.7921 L 399.147,-63.3919 L 399.427,-62.96 L 399.661,-62.5011
 L 399.846,-62.0204 L 399.979,-61.5229 L 400.06,-61.0143 L 400.087,-60.5 L 400.06,-59.9857 L 399.979,-59.4771
 L 399.846,-58.9796 L 399.661,-58.4989 L 399.427,-58.04 L 399.147,-57.6081 L 398.823,-57.2079 L 398.459,-56.8437
 L 398.059,-56.5196 L 397.627,-56.2392 L 397.168,-56.0054 L 396.687,-55.8208 L 396.19,-55.6875 L 395.681,-55.607
 L 395.167,-55.58 z
M 588.486,-55.607 L 587.977,-55.6875 L 587.48,-55.8208 L 586.999,-56.0054 L 586.54,-56.2392 L 586.108,-56.5196
 L 585.708,-56.8437 L 585.344,-57.2079 L 585.02,-57.6081 L 584.739,-58.04 L 584.505,-58.4989 L 584.321,-58.9796
 L 584.188,-59.4771 L 584.107,-59.9857 L 584.08,-60.5 L 584.107,-61.0143 L 584.188,-61.5229 L 584.321,-62.0204
 L 584.505,-62.5011 L 584.739,-62.96 L 585.02,-63.3919 L 585.344,-63.7921 L 585.708,-64.1563 L 586.108,-64.4804
 L 586.45,-64.7024 L 586.45,-74 L 586.506,-74.5302 L 586.67,-75.0372 L 586.937,-75.4988 L 587.294,-75.895
 L 587.725,-76.2084 L 588.212,-76.4252 L 588.733,-76.536 L 589.267,-76.536 L 589.788,-76.4252 L 590.275,-76.2084
 L 590.706,-75.895 L 591.063,-75.4988 L 591.33,-75.0372 L 591.494,-74.5302 L 591.55,-74 L 591.55,-64.7024
 L 591.892,-64.4804 L 592.292,-64.1563 L 592.656,-63.7921 L 592.98,-63.3919 L 593.261,-62.96 L 593.495,-62.5011
 L 593.679,-62.0204 L 593.812,-61.5229 L 593.893,-61.0143 L 593.92,-60.5 L 593.893,-59.9857 L 593.812,-59.4771
 L 593.679,-58.9796 L 593.495,-58.4989 L 593.261,-58.04 L 592.98,-57.6081 L 592.656,-57.2079 L 592.292,-56.8437
 L 591.892,-56.5196 L 591.46,-56.2392 L 591.001,-56.0054 L 590.52,-55.8208 L 590.023,-55.6875 L 589.514,-55.607
 L 589,-55.58 z
M 782.319,-55.607 L 781.81,-55.6875 L 781.313,-55.8208 L 780.832,-56.0054 L 780.373,-56.2392 L 779.941,-56.5196
 L 779.541,-56.8437 L 779.177,-57.2079 L 778.853,-57.6081 L 778.572,-58.04 L 778.339,-58.4989 L 778.154,-58.9796
 L 778.021,-59.4771 L 777.94,-59.9857 L 777.913,-60.5 L 777.94,-61.0143 L 778.021,-61.5229 L 778.154,-62.0204
 L 778.339,-62.5011 L 778.572,-62.96 L 778.853,-63.3919 L 779.177,-63.7921 L 779.541,-64.1563 L 779.941,-64.4804
 L 780.283,-64.7024 L 780.283,-74 L 780.339,-74.5302 L 780.504,-75.0372 L 780.77,-75.4988 L 781.127,-75.895
 L 781.558,-76.2084 L 782.045,-76.4252 L 782.567,-76.536 L 783.1,-76.536 L 783.621,-76.4252 L 784.108,-76.2084
 L 784.54,-75.895 L 784.896,-75.4988 L 785.163,-75.0372 L 785.328,-74.5302 L 785.383,-74 L 785.383,-64.7024
 L 785.725,-64.4804 L 786.125,-64.1563 L 786.49,-63.7921 L 786.814,-63.3919 L 787.094,-62.96 L 787.328,-62.5011
 L 787.513,-62.0204 L 787.646,-61.5229 L 787.726,-61.0143 L 787.753,-60.5 L 787.726,-59.9857 L 787.646,-59.4771
 L 787.513,-58.9796 L 787.328,-58.4989 L 787.094,-58.04 L 786.814,-57.6081 L 786.49,-57.2079 L 786.125,-56.8437
 L 785.725,-56.5196 L 785.293,-56.2392 L 784.834,-56.0054 L 784.354,-55.8208 L 783.856,-55.6875 L 783.348,-55.607
 L 782.833,-55.58 z
M 976.152,-55.607 L 975.644,-55.6875 L 975.146,-55.8208 L 974.666,-56.0054 L 974.207,-56.2392 L 973.775,-56.5196
 L 973.375,-56.8437 L 973.01,-57.2079 L 972.686,-57.6081 L 972.406,-58.04 L 972.172,-58.4989 L 971.987,-58.9796
 L 971.854,-59.4771 L 971.774,-59.9857 L 971.747,-60.5 L 971.774,-61.0143 L 971.854,-61.5229 L 971.987,-62.0204
 L 972.172,-62.5011 L 972.406,-62.96 L 972.686,-63.3919 L 973.01,-63.7921 L 973.375,-64.1563 L 973.775,-64.4804
 L 974.117,-64.7024 L 974.117,-74 L 974.172,-74.5302 L 974.337,-75.0372 L 974.604,-75.4988 L 974.96,-75.895
 L 975.392,-76.2084 L 975.879,-76.4252 L 976.4,-76.536 L 976.933,-76.536 L 977.455,-76.4252 L 977.942,-76.2084
 L 978.373,-75.895 L 978.73,-75.4988 L 978.996,-75.0372 L 979.161,-74.5302 L 979.217,-74 L 979.217,-64.7024
 L 979.559,-64.4804 L 979.959,-64.1563 L 980.323,-63.7921 L 980.647,-63.3919 L 980.927,-62.96 L 981.161,-62.5011
 L 981.346,-62.0204 L 981.479,-61.5229 L 981.56,-61.0143 L 981.587,-60.5 L 981.56,-59.9857 L 981.479,-59.4771
 L 981.346,-58.9796 L 981.161,-58.4989 L 980.927,-58.04 L 980.647,-57.6081 L 980.323,-57.2079 L 979.959,-56.8437
 L 979.559,-56.5196 L 979.127,-56.2392 L 978.668,-56.0054 L 978.187,-55.8208 L 977.69,-55.6875 L 977.181,-55.607
 L 976.667,-55.58 z
M 1169.99,-55.607 L 1169.48,-55.6875 L 1168.98,-55.8208 L 1168.5,-56.0054 L 1168.04,-56.2392 L 1167.61,-56.5196
 L 1167.21,-56.8437 L 1166.84,-57.2079 L 1166.52,-57.6081 L 1166.24,-58.04 L 1166.01,-58.4989 L 1165.82,-58.9796
 L 1165.69,-59.4771 L 1165.61,-59.9857 L 1165.58,-60.5 L 1165.61,-61.0143 L 1165.69,-61.5229 L 1165.82,-62.0204
 L 1166.01,-62.5011 L 1166.24,-62.96 L 1166.52,-63.3919 L 1166.84,-63.7921 L 1167.21,-64.1563 L 1167.61,-64.4804
 L 1167.95,-64.7024 L 1167.95,-74 L 1168.01,-74.5302 L 1168.17,-75.0372 L 1168.44,-75.4988 L 1168.79,-75.895
 L 1169.23,-76.2084 L 1169.71,-76.4252 L 1170.23,-76.536 L 1170.77,-76.536 L 1171.29,-76.4252 L 1171.77,-76.2084
 L 1172.21,-75.895 L 1172.56,-75.4988 L 1172.83,-75.0372 L 1172.99,-74.5302 L 1173.05,-74 L 1173.05,-64.7024
 L 1173.39,-64.4804 L 1173.79,-64.1563 L 1174.16,-63.7921 L 1174.48,-63.3919 L 1174.76,-62.96 L 1174.99,-62.5011
 L 1175.18,-62.0204 L 1175.31,-61.5229 L 1175.39,-61.0143 L 1175.42,-60.5 L 1175.39,-59.9857 L 1175.31,-59.4771
 L 1175.18,-58.9796 L 1174.99,-58.4989 L 1174.76,-58.04 L 1174.48,-57.6081 L 1174.16,-57.2079 L 1173.79,-56.8437
 L 1173.39,-56.5196 L 1172.96,-56.2392 L 1172.5,-56.0054 L 1172.02,-55.8208 L 1171.52,-55.6875 L 1171.01,-55.607
 L 1170.5,-55.58 z
M 988.519,-20.5017 L 987.748,-20.824 L 987.06,-21.2997 L 986.486,-21.9079 L 986.051,-22.6222 L 985.774,-23.4113
 L 985.667,-24.3336 L 985.667,-58 L 985.754,-58.8316 L 986.012,-59.627 L 986.431,-60.3511 L 986.99,-60.9726
 L 987.667,-61.4641 L 988.431,-61.8042 L 989.667,-62 L 1085.63,-62 L 1086.46,-61.9126 L 1087.26,-61.6542
 L 1087.98,-61.2361 L 1088.6,-60.6765 L 1089.1,-60 L 1089.44,-59.2361 L 1089.61,-58.4181 L 1089.61,-57.5819
 L 1089.44,-56.7639 L 1089.1,-56 L 1088.6,-55.3235 L 1087.98,-54.7639 L 1086.96,-54.2255 L 990.991,-20.5592
 L 990.177,-20.3663 L 989.341,-20.3469 z
M 381.656,-20.3663 L 380.843,-20.5592 L 284.877,-54.2255 L 283.85,-54.7639 L 283.228,-55.3235 L 282.737,-56
 L 282.397,-56.7639 L 282.223,-57.5819 L 282.223,-58.4181 L 282.397,-59.2361 L 282.737,-60 L 283.228,-60.6765
 L 283.85,-61.2361 L 284.574,-61.6542 L 285.369,-61.9126 L 286.201,-62 L 382.167,-62 L 383.403,-61.8042
 L 384.167,-61.4641 L 384.843,-60.9726 L 385.403,-60.3511 L 385.821,-59.627 L 386.079,-58.8316 L 386.167,-58
 L 386.167,-24.3336 L 386.059,-23.4113 L 385.782,-22.6222 L 385.347,-21.9079 L 384.773,-21.2997 L 384.086,-20.824
 L 383.314,-20.5017 L 382.492,-20.3469 z
M 187.823,-20.3663 L 187.009,-20.5592 L 91.0436,-54.2255 L 90.0166,-54.7639 L 89.3951,-55.3235 L 88.9036,-56
 L 88.5635,-56.7639 L 88.3896,-57.5819 L 88.3896,-58.4181 L 88.5635,-59.2361 L 88.9036,-60 L 89.3951,-60.6765
 L 90.0166,-61.2361 L 90.7408,-61.6542 L 91.5361,-61.9126 L 92.3677,-62 L 188.333,-62 L 189.569,-61.8042
 L 190.333,-61.4641 L 191.01,-60.9726 L 191.569,-60.3511 L 191.988,-59.627 L 192.246,-58.8316 L 192.333,-58
 L 192.333,-24.3336 L 192.226,-23.4113 L 191.949,-22.6222 L 191.514,-21.9079 L 190.94,-21.2997 L 190.252,-20.824
 L 189.481,-20.5017 L 188.659,-20.3469 z
M 575.49,-20.3663 L 574.676,-20.5592 L 478.71,-54.2255 L 477.683,-54.7639 L 477.062,-55.3235 L 476.57,-56
 L 476.23,-56.7639 L 476.056,-57.5819 L 476.056,-58.4181 L 476.23,-59.2361 L 476.57,-60 L 477.062,-60.6765
 L 477.683,-61.2361 L 478.407,-61.6542 L 479.203,-61.9126 L 480.034,-62 L 576,-62 L 577.236,-61.8042
 L 578,-61.4641 L 578.677,-60.9726 L 579.236,-60.3511 L 579.654,-59.627 L 579.913,-58.8316 L 580,-58
 L 580,-24.3336 L 579.892,-23.4113 L 579.615,-22.6222 L 579.181,-21.9079 L 578.607,-21.2997 L 577.919,-20.824
 L 577.147,-20.5017 L 576.326,-20.3469 z
M 600.853,-20.5017 L 600.081,-20.824 L 599.393,-21.2997 L 598.819,-21.9079 L 598.385,-22.6222 L 598.108,-23.4113
 L 598,-24.3336 L 598,-58 L 598.087,-58.8316 L 598.346,-59.627 L 598.764,-60.3511 L 599.323,-60.9726
 L 600,-61.4641 L 600.764,-61.8042 L 602,-62 L 697.966,-62 L 698.797,-61.9126 L 699.593,-61.6542
 L 700.317,-61.2361 L 700.938,-60.6765 L 701.43,-60 L 701.77,-59.2361 L 701.944,-58.4181 L 701.944,-57.5819
 L 701.77,-56.7639 L 701.43,-56 L 700.938,-55.3235 L 700.317,-54.7639 L 699.29,-54.2255 L 603.324,-20.5592
 L 602.51,-20.3663 L 601.674,-20.3469 z
M 794.686,-20.5017 L 793.914,-20.824 L 793.227,-21.2997 L 792.653,-21.9079 L 792.218,-22.6222 L 791.941,-23.4113
 L 791.833,-24.3336 L 791.833,-58 L 791.921,-58.8316 L 792.179,-59.627 L 792.597,-60.3511 L 793.157,-60.9726
 L 793.833,-61.4641 L 794.597,-61.8042 L 795.833,-62 L 891.799,-62 L 892.631,-61.9126 L 893.426,-61.6542
 L 894.15,-61.2361 L 894.772,-60.6765 L 895.263,-60 L 895.603,-59.2361 L 895.777,-58.4181 L 895.777,-57.5819
 L 895.603,-56.7639 L 895.263,-56 L 894.772,-55.3235 L 894.15,-54.7639 L 893.123,-54.2255 L 797.157,-20.5592
 L 796.344,-20.3663 L 795.508,-20.3469 z
M 214.333,-18 L 213.097,-18.1958 L 212.333,-18.5359 L 211.657,-19.0274 L 211.097,-19.6489 L 210.679,-20.373
 L 210.421,-21.1684 L 210.333,-22 L 210.333,-55.6663 L 210.441,-56.5887 L 210.718,-57.3778 L 211.153,-58.0921
 L 211.727,-58.7003 L 212.414,-59.176 L 213.186,-59.4983 L 214.008,-59.6531 L 214.844,-59.6336 L 215.657,-59.4408
 L 311.623,-25.7745 L 312.65,-25.2361 L 313.271,-24.6765 L 313.763,-24 L 314.103,-23.2361 L 314.277,-22.4181
 L 314.277,-21.5819 L 314.103,-20.7639 L 313.763,-20 L 313.271,-19.3235 L 312.65,-18.7639 L 311.926,-18.3458
 L 311.131,-18.0874 L 310.299,-18 z
M 408.167,-18 L 406.931,-18.1958 L 406.167,-18.5359 L 405.49,-19.0274 L 404.931,-19.6489 L 404.512,-20.373
 L 404.254,-21.1684 L 404.167,-22 L 404.167,-55.6663 L 404.274,-56.5887 L 404.551,-57.3778 L 404.986,-58.0921
 L 405.56,-58.7003 L 406.248,-59.176 L 407.019,-59.4983 L 407.841,-59.6531 L 408.677,-59.6336 L 409.491,-59.4408
 L 505.456,-25.7745 L 506.483,-25.2361 L 507.105,-24.6765 L 507.596,-24 L 507.936,-23.2361 L 508.11,-22.4181
 L 508.11,-21.5819 L 507.936,-20.7639 L 507.596,-20 L 507.105,-19.3235 L 506.483,-18.7639 L 505.759,-18.3458
 L 504.964,-18.0874 L 504.132,-18 z
M 673.868,-18 L 673.036,-18.0874 L 672.241,-18.3458 L 671.517,-18.7639 L 670.895,-19.3235 L 670.404,-20
 L 670.064,-20.7639 L 669.89,-21.5819 L 669.89,-22.4181 L 670.064,-23.2361 L 670.404,-24 L 670.895,-24.6765
 L 671.517,-25.2361 L 672.544,-25.7745 L 768.509,-59.4408 L 769.323,-59.6336 L 770.159,-59.6531 L 770.981,-59.4983
 L 771.752,-59.176 L 772.44,-58.7003 L 773.014,-58.0921 L 773.449,-57.3778 L 773.726,-56.5887 L 773.833,-55.6663
 L 773.833,-22 L 773.746,-21.1684 L 773.488,-20.373 L 773.069,-19.6489 L 772.51,-19.0274 L 771.833,-18.5359
 L 771.069,-18.1958 L 769.833,-18 z
M 867.701,-18 L 866.869,-18.0874 L 866.074,-18.3458 L 865.35,-18.7639 L 864.729,-19.3235 L 864.237,-20
 L 863.897,-20.7639 L 863.723,-21.5819 L 863.723,-22.4181 L 863.897,-23.2361 L 864.237,-24 L 864.729,-24.6765
 L 865.35,-25.2361 L 866.377,-25.7745 L 962.343,-59.4408 L 963.156,-59.6336 L 963.992,-59.6531 L 964.814,-59.4983
 L 965.586,-59.176 L 966.273,-58.7003 L 966.847,-58.0921 L 967.282,-57.3778 L 967.559,-56.5887 L 967.667,-55.6663
 L 967.667,-22 L 967.579,-21.1684 L 967.321,-20.373 L 966.903,-19.6489 L 966.343,-19.0274 L 965.667,-18.5359
 L 964.903,-18.1958 L 963.667,-18 z
M 1061.53,-18 L 1060.7,-18.0874 L 1059.91,-18.3458 L 1059.18,-18.7639 L 1058.56,-19.3235 L 1058.07,-20
 L 1057.73,-20.7639 L 1057.56,-21.5819 L 1057.56,-22.4181 L 1057.73,-23.2361 L 1058.07,-24 L 1058.56,-24.6765
 L 1059.18,-25.2361 L 1060.21,-25.7745 L 1154.68,-58.9146 L 1155.49,-59.1074 L 1156.33,-59.1268 L 1157.15,-58.972
 L 1157.92,-58.6497 L 1158.61,-58.1741 L 1159.18,-57.5658 L 1159.62,-56.8515 L 1159.89,-56.0625 L 1160,-55.1401
 L 1160,-22 L 1159.91,-21.1684 L 1159.65,-20.373 L 1159.24,-19.6489 L 1158.68,-19.0274 L 1158,-18.5359
 L 1157.24,-18.1958 L 1156,-18 z
M 22,-18 L 20.7639,-18.1958 L 20,-18.5359 L 19.3235,-19.0274 L 18.7639,-19.6489 L 18.3458,-20.373
 L 18.0874,-21.1684 L 18,-22 L 18,-55.1401 L 18.1078,-56.0625 L 18.3846,-56.8515 L 18.8194,-57.5658
 L 19.3933,-58.1741 L 20.0811,-58.6497 L 20.8527,-58.972 L 21.6745,-59.1268 L 22.5105,-59.1074 L 23.3241,-58.9146
 L 117.79,-25.7745 L 118.817,-25.2361 L 119.438,-24.6765 L 119.93,-24 L 120.27,-23.2361 L 120.444,-22.4181
 L 120.444,-21.5819 L 120.27,-20.7639 L 119.93,-20 L 119.438,-19.3235 L 118.817,-18.7639 L 118.093,-18.3458
 L 117.297,-18.0874 L 116.466,-18 z
" stroke="black" fill="lightgray" stroke-width="0.5"/>
</svg>
