<?xml version="1.0" standalone="no"?>
<!DOCTYPE svg PUBLIC "-//W3C//DTD SVG 1.1//EN" "http://www.w3.org/Graphics/SVG/1.1/DTD/svg11.dtd">
<svg width="1243mm" height="80mm" viewBox="0 -80 1243 80" xmlns="http://www.w3.org/2000/svg" version="1.1">
<title>OpenSCAD Model</title>
<path d="
M 1243,-80 L 0,-80 L 0,-0 L 4.95,-0 L 4.95,-6 L 5.00572,-6.53017
 L 5.17046,-7.03717 L 5.437,-7.49884 L 5.79372,-7.895 L 6.22499,-8.20836 L 6.71201,-8.42519 L 7.23344,-8.53603
 L 7.76654,-8.53603 L 8.28798,-8.42519 L 8.77499,-8.20836 L 9.20627,-7.895 L 9.56299,-7.49884 L 9.82953,-7.03717
 L 9.99426,-6.53017 L 10.05,-6 L 10.05,-0 L 180.379,-0 L 180.379,-6 L 180.434,-6.53017
 L 180.599,-7.03717 L 180.866,-7.49884 L 181.222,-7.895 L 181.654,-8.20836 L 182.141,-8.42519 L 182.662,-8.53603
 L 183.195,-8.53603 L 183.717,-8.42519 L 184.204,-8.20836 L 184.635,-7.895 L 184.992,-7.49884 L 185.258,-7.03717
 L 185.423,-6.53017 L 185.479,-6 L 185.479,-0 L 355.807,-0 L 355.807,-6 L 355.863,-6.53017
 L 356.028,-7.03717 L 356.294,-7.49884 L 356.651,-7.895 L 357.082,-8.20836 L 357.569,-8.42519 L 358.091,-8.53603
 L 358.624,-8.53603 L 359.145,-8.42519 L 359.632,-8.20836 L 360.063,-7.895 L 360.42,-7.49884 L 360.687,-7.03717
 L 360.851,-6.53017 L 360.907,-6 L 360.907,-0 L 531.236,-0 L 531.236,-6 L 531.291,-6.53017
 L 531.456,-7.03717 L 531.723,-7.49884 L 532.079,-7.895 L 532.511,-8.20836 L 532.998,-8.42519 L 533.519,-8.53603
 L 534.052,-8.53603 L 534.574,-8.42519 L 535.061,-8.20836 L 535.492,-7.895 L 535.849,-7.49884 L 536.115,-7.03717
 L 536.28,-6.53017 L 536.336,-6 L 536.336,-0 L 706.664,-0 L 706.664,-6 L 706.72,-6.53017
 L 706.885,-7.03717 L 707.151,-7.49884 L 707.508,-7.895 L 707.939,-8.20836 L 708.426,-8.42519 L 708.948,-8.53603
 L 709.481,-8.53603 L 710.002,-8.42519 L 710.489,-8.20836 L 710.921,-7.895 L 711.277,-7.49884 L 711.544,-7.03717
 L 711.709,-6.53017 L 711.764,-6 L 711.764,-0 L 882.093,-0 L 882.093,-6 L 882.149,-6.53017
 L 882.313,-7.03717 L 882.58,-7.49884 L 882.937,-7.895 L 883.368,-8.20836 L 883.855,-8.42519 L 884.376,-8.53603
 L 884.909,-8.53603 L 885.431,-8.42519 L 885.918,-8.20836 L 886.349,-7.895 L 886.706,-7.49884 L 886.972,-7.03717
 L 887.137,-6.53017 L 887.193,-6 L 887.193,-0 L 1057.52,-0 L 1057.52,-6 L 1057.58,-6.53017
 L 1057.74,-7.03717 L 1058.01,-7.49884 L 1058.37,-7.895 L 1058.8,-8.20836 L 1059.28,-8.42519 L 1059.8,-8.53603
 L 1060.34,-8.53603 L 1060.86,-8.42519 L 1061.35,-8.20836 L 1061.78,-7.895 L 1062.13,-7.49884 L 1062.4,-7.03717
 L 1062.57,-6.53017 L 1062.62,-6 L 1062.62,-0 L 1232.95,-0 L 1232.95,-6 L 1233.01,-6.53017
 L 1233.17,-7.03717 L 1233.44,-7.49884 L 1233.79,-7.895 L 1234.22,-8.20836 L 1234.71,-8.42519 L 1235.23,-8.53603
 L 1235.77,-8.53603 L 1236.29,-8.42519 L 1236.77,-8.20836 L 1237.21,-7.895 L 1237.56,-7.49884 L 1237.83,-7.03717
 L 1237.99,-6.53017 L 1238.05,-6 L 1238.05,-0 L 1243,-0 z
M 6.98573,-55.607 L 6.47708,-55.6875 L 5.97964,-55.8208 L 5.49887,-56.0054 L 5.04001,-56.2392 L 4.60811,-56.5196
 L 4.20789,-56.8437 L 3.84373,-57.2079 L 3.51964,-57.6081 L 3.23917,-58.04 L 3.00537,-58.4989 L 2.82082,-58.9796
 L 2.68752,-59.4771 L 2.60696,-59.9857 L 2.58,-60.5 L 2.60696,-61.0143 L 2.68752,-61.5229 L 2.82082,-62.0204
 L 3.00537,-62.5011 L 3.23917,-62.96 L 3.51964,-63.3919 L 3.84373,-63.7921 L 4.20789,-64.1563 L 4.60811,-64.4804
 L 4.95001,-64.7024 L 4.95001,-74 L 5.00574,-74.5302 L 5.17047,-75.0372 L 5.43701,-75.4988 L 5.79373,-75.895
 L 6.22501,-76.2084 L 6.71202,-76.4252 L 7.23346,-76.536 L 7.76654,-76.536 L 8.28798,-76.4252 L 8.77499,-76.2084
 L 9.20627,-75.895 L 9.56299,-75.4988 L 9.82953,-75.0372 L 9.99426,-74.5302 L 10.05,-74 L 10.05,-64.7024
 L 10.3919,-64.4804 L 10.7921,-64.1563 L 11.1563,-63.7921 L 11.4804,-63.3919 L 11.7608,-62.96 L 11.9946,-62.5011
 L 12.1792,-62.0204 L 12.3125,-61.5229 L 12.393,-61.0143 L 12.42,-60.5 L 12.393,-59.9857 L 12.3125,-59.4771
 L 12.1792,-58.9796 L 11.9946,-58.4989 L 11.7608,-58.04 L 11.4804,-57.6081 L 11.1563,-57.2079 L 10.7921,-56.8437
 L 10.3919,-56.5196 L 9.95999,-56.2392 L 9.50113,-56.0054 L 9.02036,-55.8208 L 8.52292,-55.6875 L 8.01427,-55.607
 L 7.5,-55.58 z
M 182.414,-55.607 L 181.906,-55.6875 L 181.408,-55.8208 L 180.927,-56.0054 L 180.469,-56.2392 L 180.037,-56.5196
 L 179.636,-56.8437 L 179.272,-57.2079 L 178.948,-57.6081 L 178.668,-58.04 L 178.434,-58.4989 L 178.249,-58.9796
 L 178.116,-59.4771 L 178.036,-59.9857 L 178.009,-60.5 L 178.036,-61.0143 L 178.116,-61.5229 L 178.249,-62.0204
 L 178.434,-62.5011 L 178.668,-62.96 L 178.948,-63.3919 L 179.272,-63.7921 L 179.636,-64.1563 L 180.037,-64.4804
 L 180.379,-64.7024 L 180.379,-74 L 180.434,-74.5302 L 180.599,-75.0372 L 180.866,-75.4988 L 181.222,-75.895
 L 181.654,-76.2084 L 182.141,-76.4252 L 182.662,-76.536 L 183.195,-76.536 L 183.717,-76.4252 L 184.204,-76.2084
 L 184.635,-75.895 L 184.992,-75.4988 L 185.258,-75.0372 L 185.423,-74.5302 L 185.479,-74 L 185.479,-64.7024
 L 185.82,-64.4804 L 186.221,-64.1563 L 186.585,-63.7921 L 186.909,-63.3919 L 187.189,-62.96 L 187.423,-62.5011
 L 187.608,-62.0204 L 187.741,-61.5229 L 187.822,-61.0143 L 187.849,-60.5 L 187.822,-59.9857 L 187.741,-59.4771
 L 187.608,-58.9796 L 187.423,-58.4989 L 187.189,-58.04 L 186.909,-57.6081 L 186.585,-57.2079 L 186.221,-56.8437
 L 185.82,-56.5196 L 185.389,-56.2392 L 184.93,-56.0054 L 184.449,-55.8208 L 183.951,-55.6875 L 183.443,-55.607
 L 182.929,-55.58 z
M 357.843,-55.607 L 357.334,-55.6875 L 356.837,-55.8208 L 356.356,-56.0054 L 355.897,-56.2392 L 355.465,-56.5196
 L 355.065,-56.8437 L 354.701,-57.2079 L 354.377,-57.6081 L 354.096,-58.04 L 353.863,-58.4989 L 353.678,-58.9796
 L 353.545,-59.4771 L 353.464,-59.9857 L 353.437,-60.5 L 353.464,-61.0143 L 353.545,-61.5229 L 353.678,-62.0204
 L 353.863,-62.5011 L 354.096,-62.96 L 354.377,-63.3919 L 354.701,-63.7921 L 355.065,-64.1563 L 355.465,-64.4804
 L 355.807,-64.7024 L 355.807,-74 L 355.863,-74.5302 L 356.028,-75.0372 L 356.294,-75.4988 L 356.651,-75.895
 L 357.082,-76.2084 L 357.569,-76.4252 L 358.091,-76.536 L 358.624,-76.536 L 359.145,-76.4252 L 359.632,-76.2084
 L 360.063,-75.895 L 360.42,-75.4988 L 360.687,-75.0372 L 360.851,-74.5302 L 360.907,-74 L 360.907,-64.7024
 L 361.249,-64.4804 L 361.649,-64.1563 L 362.013,-63.7921 L 362.337,-63.3919 L 362.618,-62.96 L 362.852,-62.5011
 L 363.036,-62.0204 L 363.17,-61.5229 L 363.25,-61.0143 L 363.277,-60.5 L 363.25,-59.9857 L 363.17,-59.4771
 L 363.036,-58.9796 L 362.852,-58.4989 L 362.618,-58.04 L 362.337,-57.6081 L 362.013,-57.2079 L 361.649,-56.8437
 L 361.249,-56.5196 L 360.817,-56.2392 L 360.358,-56.0054 L 359.877,-55.8208 L 359.38,-55.6875 L 358.871,-55.607
 L 358.357,-55.58 z
M 533.271,-55.607 L 532.763,-55.6875 L 532.265,-55.8208 L 531.785,-56.0054 L 531.326,-56.2392 L 530.894,-56.5196
 L 530.494,-56.8437 L 530.129,-57.2079 L 529.805,-57.6081 L 529.525,-58.04 L 529.291,-58.4989 L 529.107,-58.9796
 L 528.973,-59.4771 L 528.893,-59.9857 L 528.866,-60.5 L 528.893,-61.0143 L 528.973,-61.5229 L 529.107,-62.0204
 L 529.291,-62.5011 L 529.525,-62.96 L 529.805,-63.3919 L 530.129,-63.7921 L 530.494,-64.1563 L 530.894,-64.4804
 L 531.236,-64.7024 L 531.236,-74 L 531.291,-74.5302 L 531.456,-75.0372 L 531.723,-75.4988 L 532.079,-75.895
 L 532.511,-76.2084 L 532.998,-76.4252 L 533.519,-76.536 L 534.052,-76.536 L 534.574,-76.4252 L 535.061,-76.2084
 L 535.492,-75.895 L 535.849,-75.4988 L 536.115,-75.0372 L 536.28,-74.5302 L 536.336,-74 L 536.336,-64.7024
 L 536.678,-64.4804 L 537.078,-64.1563 L 537.442,-63.7921 L 537.766,-63.3919 L 538.047,-62.96 L 538.28,-62.5011
 L 538.465,-62.0204 L 538.598,-61.5229 L 538.679,-61.0143 L 538.706,-60.5 L 538.679,-59.9857 L 538.598,-59.4771
 L 538.465,-58.9796 L 538.28,-58.4989 L 538.047,-58.04 L 537.766,-57.6081 L 537.442,-57.2079 L 537.078,-56.8437
 L 536.678,-56.5196 L 536.246,-56.2392 L 535.787,-56.0054 L 535.306,-55.8208 L 534.809,-55.6875 L 534.3,-55.607
 L 533.786,-55.58 z
M 708.7,-55.607 L 708.191,-55.6875 L 707.694,-55.8208 L 707.213,-56.0054 L 706.754,-56.2392 L 706.322,-56.5196
 L 705.922,-56.8437 L 705.558,-57.2079 L 705.234,-57.6081 L 704.953,-58.04 L 704.72,-58.4989 L 704.535,-58.9796
 L 704.402,-59.4771 L 704.321,-59.9857 L 704.294,-60.5 L 704.321,-61.0143 L 704.402,-61.5229 L 704.535,-62.0204
 L 704.72,-62.5011 L 704.953,-62.96 L 705.234,-63.3919 L 705.558,-63.7921 L 705.922,-64.1563 L 706.322,-64.4804
 L 706.664,-64.7024 L 706.664,-74 L 706.72,-74.5302 L 706.885,-75.0372 L 707.151,-75.4988 L 707.508,-75.895
 L 707.939,-76.2084 L 708.426,-76.4252 L 708.948,-76.536 L 709.481,-76.536 L 710.002,-76.4252 L 710.489,-76.2084
 L 710.921,-75.895 L 711.277,-75.4988 L 711.544,-75.0372 L 711.709,-74.5302 L 711.764,-74 L 711.764,-64.7024
 L 712.106,-64.4804 L 712.506,-64.1563 L 712.871,-63.7921 L 713.195,-63.3919 L 713.475,-62.96 L 713.709,-62.5011
 L 713.893,-62.0204 L 714.027,-61.5229 L 714.107,-61.0143 L 714.134,-60.5 L 714.107,-59.9857 L 714.027,-59.4771
 L 713.893,-58.9796 L 713.709,-58.4989 L 713.475,-58.04 L 713.195,-57.6081 L 712.871,-57.2079 L 712.506,-56.8437
 L 712.106,-56.5196 L 711.674,-56.2392 L 711.215,-56.0054 L 710.735,-55.8208 L 710.237,-55.6875 L 709.729,-55.607
 L 709.214,-55.58 z
M 884.129,-55.607 L 883.62,-55.6875 L 883.122,-55.8208 L 882.642,-56.0054 L 882.183,-56.2392 L 881.751,-56.5196
 L 881.351,-56.8437 L 880.987,-57.2079 L 880.662,-57.6081 L 880.382,-58.04 L 880.148,-58.4989 L 879.964,-58.9796
 L 879.83,-59.4771 L 879.75,-59.9857 L 879.723,-60.5 L 879.75,-61.0143 L 879.83,-61.5229 L 879.964,-62.0204
 L 880.148,-62.5011 L 880.382,-62.96 L 880.662,-63.3919 L 880.987,-63.7921 L 881.351,-64.1563 L 881.751,-64.4804
 L 882.093,-64.7024 L 882.093,-74 L 882.149,-74.5302 L 882.313,-75.0372 L 882.58,-75.4988 L 882.937,-75.895
 L 883.368,-76.2084 L 883.855,-76.4252 L 884.376,-76.536 L 884.909,-76.536 L 885.431,-76.4252 L 885.918,-76.2084
 L 886.349,-75.895 L 886.706,-75.4988 L 886.972,-75.0372 L 887.137,-74.5302 L 887.193,-74 L 887.193,-64.7024
 L 887.535,-64.4804 L 887.935,-64.1563 L 888.299,-63.7921 L 888.623,-63.3919 L 888.904,-62.96 L 889.137,-62.5011
 L 889.322,-62.0204 L 889.455,-61.5229 L 889.536,-61.0143 L 889.563,-60.5 L 889.536,-59.9857 L 889.455,-59.4771
 L 889.322,-58.9796 L 889.137,-58.4989 L 888.904,-58.04 L 888.623,-57.6081 L 888.299,-57.2079 L 887.935,-56.8437
 L 887.535,-56.5196 L 887.103,-56.2392 L 886.644,-56.0054 L 886.163,-55.8208 L 885.666,-55.6875 L 885.157,-55.607
 L 884.643,-55.58 z
M 1059.56,-55.607 L 1059.05,-55.6875 L 1058.55,-55.8208 L 1058.07,-56.0054 L 1057.61,-56.2392 L 1057.18,-56.5196
 L 1056.78,-56.8437 L 1056.42,-57.2079 L 1056.09,-57.6081 L 1055.81,-58.04 L 1055.58,-58.4989 L 1055.39,-58.9796
 L 1055.26,-59.4771 L 1055.18,-59.9857 L 1055.15,-60.5 L 1055.18,-61.0143 L 1055.26,-61.5229 L 1055.39,-62.0204
 L 1055.58,-62.5011 L 1055.81,-62.96 L 1056.09,-63.3919 L 1056.42,-63.7921 L 1056.78,-64.1563 L 1057.18,-64.4804
 L 1057.52,-64.7024 L 1057.52,-74 L 1057.58,-74.5302 L 1057.74,-75.0372 L 1058.01,-75.4988 L 1058.37,-75.895
 L 1058.8,-76.2084 L 1059.28,-76.4252 L 1059.8,-76.536 L 1060.34,-76.536 L 1060.86,-76.4252 L 1061.35,-76.2084
 L 1061.78,-75.895 L 1062.13,-75.4988 L 1062.4,-75.0372 L 1062.57,-74.5302 L 1062.62,-74 L 1062.62,-64.7024
 L 1062.96,-64.4804 L 1063.36,-64.1563 L 1063.73,-63.7921 L 1064.05,-63.3919 L 1064.33,-62.96 L 1064.57,-62.5011
 L 1064.75,-62.0204 L 1064.88,-61.5229 L 1064.96,-61.0143 L 1064.99,-60.5 L 1064.96,-59.9857 L 1064.88,-59.4771
 L 1064.75,-58.9796 L 1064.57,-58.4989 L 1064.33,-58.04 L 1064.05,-57.6081 L 1063.73,-57.2079 L 1063.36,-56.8437
 L 1062.96,-56.5196 L 1062.53,-56.2392 L 1062.07,-56.0054 L 1061.59,-55.8208 L 1061.09,-55.6875 L 1060.59,-55.607
 L 1060.07,-55.58 z
M 1234.99,-55.607 L 1234.48,-55.6875 L 1233.98,-55.8208 L 1233.5,-56.0054 L 1233.04,-56.2392 L 1232.61,-56.5196
 L 1232.21,-56.8437 L 1231.84,-57.2079 L 1231.52,-57.6081 L 1231.24,-58.04 L 1231.01,-58.4989 L 1230.82,-58.9796
 L 1230.69,-59.4771 L 1230.61,-59.9857 L 1230.58,-60.5 L 1230.61,-61.0143 L 1230.69,-61.5229 L 1230.82,-62.0204
 L 1231.01,-62.5011 L 1231.24,-62.96 L 1231.52,-63.3919 L 1231.84,-63.7921 L 1232.21,-64.1563 L 1232.61,-64.4804
 L 1232.95,-64.7024 L 1232.95,-74 L 1233.01,-74.5302 L 1233.17,-75.0372 L 1233.44,-75.4988 L 1233.79,-75.895
 L 1234.23,-76.2084 L 1234.71,-76.4252 L 1235.23,-76.536 L 1235.77,-76.536 L 1236.29,-76.4252 L 1236.77,-76.2084
 L 1237.21,-75.895 L 1237.56,-75.4988 L 1237.83,-75.0372 L 1237.99,-74.5302 L 1238.05,-74 L 1238.05,-64.7024
 L 1238.39,-64.4804 L 1238.79,-64.1563 L 1239.16,-63.7921 L 1239.48,-63.3919 L 1239.76,-62.96 L 1239.99,-62.5011
 L 1240.18,-62.0204 L 1240.31,-61.5229 L 1240.39,-61.0143 L 1240.42,-60.5 L 1240.39,-59.9857 L 1240.31,-59.4771
 L 1240.18,-58.9796 L 1239.99,-58.4989 L 1239.76,-58.04 L 1239.48,-57.6081 L 1239.16,-57.2079 L 1238.79,-56.8437
 L 1238.39,-56.5196 L 1237.96,-56.2392 L 1237.5,-56.0054 L 1237.02,-55.8208 L 1236.52,-55.6875 L 1236.01,-55.607
 L 1235.5,-55.58 z
M 721.192,-21.0977 L 720.41,-21.3948 L 719.707,-21.8479 L 719.114,-22.4373 L 718.656,-23.1371 L 718.354,-23.9168
 L 718.214,-24.9648 L 718.214,-58 L 718.302,-58.8316 L 718.56,-59.627 L 718.978,-60.3511 L 719.538,-60.9726
 L 720.214,-61.4641 L 720.978,-61.8042 L 722.214,-62 L 807.44,-62 L 808.271,-61.9126 L 809.067,-61.6542
 L 809.791,-61.2361 L 810.412,-60.6765 L 810.904,-60 L 811.244,-59.2361 L 811.418,-58.4181 L 811.418,-57.5819
 L 811.244,-56.7639 L 810.904,-56 L 810.412,-55.3235 L 809.791,-54.7639 L 808.885,-54.2704 L 723.66,-21.2351
 L 722.853,-21.0161 L 722.018,-20.9696 z
M 620.861,-47.8346 L 620.054,-48.0536 L 604.016,-54.2704 L 603.111,-54.7639 L 602.489,-55.3235 L 601.998,-56
 L 601.658,-56.7639 L 601.484,-57.5819 L 601.484,-58.4181 L 601.658,-59.2361 L 601.998,-60 L 602.489,-60.6765
 L 603.111,-61.2361 L 603.835,-61.6542 L 604.63,-61.9126 L 605.462,-62 L 637.538,-62 L 638.561,-61.8671
 L 639.342,-61.5699 L 640.045,-61.1168 L 640.638,-60.5274 L 641.096,-59.8276 L 641.398,-59.0479 L 641.532,-58.2224
 L 641.491,-57.3872 L 641.277,-56.5788 L 640.9,-55.8324 L 640.376,-55.1808 L 639.728,-54.6525 L 638.984,-54.2704
 L 622.946,-48.0536 L 622.523,-47.9162 L 621.696,-47.7881 z
M 520.147,-21.0161 L 519.34,-21.2351 L 434.115,-54.2704 L 433.209,-54.7639 L 432.588,-55.3235 L 432.096,-56
 L 431.756,-56.7639 L 431.582,-57.5819 L 431.582,-58.4181 L 431.756,-59.2361 L 432.096,-60 L 432.588,-60.6765
 L 433.209,-61.2361 L 433.933,-61.6542 L 434.729,-61.9126 L 435.56,-62 L 520.786,-62 L 522.022,-61.8042
 L 522.786,-61.4641 L 523.462,-60.9726 L 524.022,-60.3511 L 524.44,-59.627 L 524.698,-58.8316 L 524.786,-58
 L 524.786,-24.9648 L 524.646,-23.9168 L 524.344,-23.1371 L 523.886,-22.4373 L 523.293,-21.8479 L 522.59,-21.3948
 L 521.808,-21.0977 L 520.982,-20.9696 z
M 344.718,-21.0161 L 343.911,-21.2351 L 258.686,-54.2704 L 257.781,-54.7639 L 257.159,-55.3235 L 256.668,-56
 L 256.327,-56.7639 L 256.154,-57.5819 L 256.154,-58.4181 L 256.327,-59.2361 L 256.668,-60 L 257.159,-60.6765
 L 257.781,-61.2361 L 258.505,-61.6542 L 259.3,-61.9126 L 260.132,-62 L 345.357,-62 L 346.593,-61.8042
 L 347.357,-61.4641 L 348.034,-60.9726 L 348.593,-60.3511 L 349.011,-59.627 L 349.27,-58.8316 L 349.357,-58
 L 349.357,-24.9648 L 349.217,-23.9168 L 348.915,-23.1371 L 348.457,-22.4373 L 347.864,-21.8479 L 347.161,-21.3948
 L 346.38,-21.0977 L 345.553,-20.9696 z
M 1072.05,-21.0977 L 1071.27,-21.3948 L 1070.56,-21.8479 L 1069.97,-22.4373 L 1069.51,-23.1371 L 1069.21,-23.9168
 L 1069.07,-24.9648 L 1069.07,-58 L 1069.16,-58.8316 L 1069.42,-59.627 L 1069.84,-60.3511 L 1070.39,-60.9726
 L 1071.07,-61.4641 L 1071.84,-61.8042 L 1073.07,-62 L 1158.3,-62 L 1159.13,-61.9126 L 1159.92,-61.6542
 L 1160.65,-61.2361 L 1161.27,-60.6765 L 1161.76,-60 L 1162.1,-59.2361 L 1162.27,-58.4181 L 1162.27,-57.5819
 L 1162.1,-56.7639 L 1161.76,-56 L 1161.27,-55.3235 L 1160.65,-54.7639 L 1159.74,-54.2704 L 1074.52,-21.2351
 L 1073.71,-21.0161 L 1072.88,-20.9696 z
M 169.29,-21.0161 L 168.483,-21.2351 L 83.2575,-54.2704 L 82.352,-54.7639 L 81.7306,-55.3235 L 81.2391,-56
 L 80.8989,-56.7639 L 80.7251,-57.5819 L 80.7251,-58.4181 L 80.8989,-59.2361 L 81.2391,-60 L 81.7306,-60.6765
 L 82.352,-61.2361 L 83.0762,-61.6542 L 83.8715,-61.9126 L 84.7032,-62 L 169.929,-62 L 171.165,-61.8042
 L 171.929,-61.4641 L 172.605,-60.9726 L 173.165,-60.3511 L 173.583,-59.627 L 173.841,-58.8316 L 173.929,-58
 L 173.929,-24.9648 L 173.789,-23.9168 L 173.487,-23.1371 L 173.029,-22.4373 L 172.436,-21.8479 L 171.733,-21.3948
 L 170.951,-21.0977 L 170.125,-20.9696 z
M 896.62,-21.0977 L 895.839,-21.3948 L 895.136,-21.8479 L 894.543,-22.4373 L 894.085,-23.1371 L 893.783,-23.9168
 L 893.643,-24.9648 L 893.643,-58 L 893.73,-58.8316 L 893.989,-59.627 L 894.407,-60.3511 L 894.966,-60.9726
 L 895.643,-61.4641 L 896.407,-61.8042 L 897.643,-62 L 982.868,-62 L 983.7,-61.9126 L 984.495,-61.6542
 L 985.219,-61.2361 L 985.841,-60.6765 L 986.332,-60 L 986.672,-59.2361 L 986.846,-58.4181 L 986.846,-57.5819
 L 986.672,-56.7639 L 986.332,-56 L 985.841,-55.3235 L 985.219,-54.7639 L 984.314,-54.2704 L 899.089,-21.2351
 L 898.282,-21.0161 L 897.447,-20.9696 z
M 546.368,-18.8443 L 545.55,-19.0181 L 544.786,-19.3583 L 544.109,-19.8498 L 543.55,-20.4712 L 543.132,-21.1954
 L 542.873,-21.9907 L 542.786,-22.8224 L 542.786,-57.1776 L 542.925,-58.2256 L 543.228,-59.0052 L 543.685,-59.7051
 L 544.279,-60.2944 L 544.981,-60.7476 L 545.763,-61.0447 L 546.589,-61.1728 L 547.424,-61.1263 L 548.231,-60.9073
 L 592.547,-43.7296 L 593.608,-43.1168 L 594.201,-42.5274 L 594.659,-41.8276 L 594.961,-41.0479 L 595.095,-40.2224
 L 595.054,-39.3872 L 594.84,-38.5788 L 594.463,-37.8324 L 593.939,-37.1808 L 593.291,-36.6525 L 592.547,-36.2704
 L 548.231,-19.0927 L 547.204,-18.8443 z
M 695.576,-18.8737 L 694.769,-19.0927 L 650.453,-36.2704 L 649.392,-36.8832 L 648.798,-37.4726 L 648.341,-38.1724
 L 648.038,-38.9521 L 647.905,-39.7776 L 647.946,-40.6128 L 648.16,-41.4212 L 648.537,-42.1676 L 649.061,-42.8192
 L 649.709,-43.3475 L 650.453,-43.7296 L 694.769,-60.9073 L 695.796,-61.1557 L 696.632,-61.1557 L 697.45,-60.9819
 L 698.214,-60.6418 L 698.891,-60.1502 L 699.45,-59.5288 L 699.868,-58.8046 L 700.127,-58.0093 L 700.214,-57.1777
 L 700.214,-22.8223 L 700.075,-21.7744 L 699.772,-20.9947 L 699.315,-20.2949 L 698.721,-19.7055 L 698.019,-19.2524
 L 697.237,-18.9553 L 696.411,-18.8272 z
M 195.929,-18 L 194.692,-18.1958 L 193.929,-18.5359 L 193.252,-19.0274 L 192.692,-19.6489 L 192.274,-20.373
 L 192.016,-21.1684 L 191.929,-22 L 191.929,-55.0352 L 192.068,-56.0831 L 192.37,-56.8628 L 192.828,-57.5627
 L 193.421,-58.152 L 194.124,-58.6052 L 194.906,-58.9023 L 195.732,-59.0304 L 196.567,-58.9839 L 197.374,-58.7648
 L 282.6,-25.7296 L 283.505,-25.2361 L 284.127,-24.6765 L 284.618,-24 L 284.958,-23.2361 L 285.132,-22.4181
 L 285.132,-21.5819 L 284.958,-20.7639 L 284.618,-20 L 284.127,-19.3235 L 283.505,-18.7639 L 282.781,-18.3458
 L 281.986,-18.0874 L 281.154,-18 z
M 371.357,-18 L 370.121,-18.1958 L 369.357,-18.5359 L 368.681,-19.0274 L 368.121,-19.6489 L 367.703,-20.373
 L 367.445,-21.1684 L 367.357,-22 L 367.357,-55.0352 L 367.497,-56.0831 L 367.799,-56.8628 L 368.257,-57.5627
 L 368.85,-58.152 L 369.553,-58.6052 L 370.335,-58.9023 L 371.161,-59.0304 L 371.996,-58.9839 L 372.803,-58.7648
 L 458.028,-25.7296 L 458.934,-25.2361 L 459.555,-24.6765 L 460.047,-24 L 460.387,-23.2361 L 460.561,-22.4181
 L 460.561,-21.5819 L 460.387,-20.7639 L 460.047,-20 L 459.555,-19.3235 L 458.934,-18.7639 L 458.209,-18.3458
 L 457.414,-18.0874 L 456.583,-18 z
M 786.417,-18 L 785.586,-18.0874 L 784.791,-18.3458 L 784.066,-18.7639 L 783.445,-19.3235 L 782.953,-20
 L 782.613,-20.7639 L 782.439,-21.5819 L 782.439,-22.4181 L 782.613,-23.2361 L 782.953,-24 L 783.445,-24.6765
 L 784.066,-25.2361 L 784.972,-25.7296 L 870.197,-58.7648 L 871.004,-58.9839 L 871.839,-59.0304 L 872.665,-58.9023
 L 873.447,-58.6052 L 874.15,-58.152 L 874.743,-57.5627 L 875.201,-56.8628 L 875.503,-56.0831 L 875.643,-55.0352
 L 875.643,-22 L 875.555,-21.1684 L 875.297,-20.373 L 874.879,-19.6489 L 874.319,-19.0274 L 873.643,-18.5359
 L 872.879,-18.1958 L 871.643,-18 z
M 961.846,-18 L 961.014,-18.0874 L 960.219,-18.3458 L 959.495,-18.7639 L 958.873,-19.3235 L 958.382,-20
 L 958.042,-20.7639 L 957.868,-21.5819 L 957.868,-22.4181 L 958.042,-23.2361 L 958.382,-24 L 958.873,-24.6765
 L 959.495,-25.2361 L 960.4,-25.7296 L 1045.63,-58.7648 L 1046.43,-58.9839 L 1047.27,-59.0304 L 1048.09,-58.9023
 L 1048.88,-58.6052 L 1049.58,-58.152 L 1050.17,-57.5627 L 1050.63,-56.8628 L 1050.93,-56.0831 L 1051.07,-55.0352
 L 1051.07,-22 L 1050.98,-21.1684 L 1050.73,-20.373 L 1050.31,-19.6489 L 1049.75,-19.0274 L 1049.07,-18.5359
 L 1048.31,-18.1958 L 1047.07,-18 z
M 22,-18 L 20.7639,-18.1958 L 20,-18.5359 L 19.3235,-19.0274 L 18.7639,-19.6489 L 18.3458,-20.373
 L 18.0874,-21.1684 L 18,-22 L 18,-54.4538 L 18.1397,-55.5017 L 18.4419,-56.2814 L 18.8997,-56.9812
 L 19.4929,-57.5706 L 20.1957,-58.0237 L 20.9774,-58.3209 L 21.8037,-58.449 L 22.6387,-58.4025 L 23.4457,-58.1834
 L 107.171,-25.7296 L 108.077,-25.2361 L 108.698,-24.6765 L 109.189,-24 L 109.53,-23.2361 L 109.703,-22.4181
 L 109.703,-21.5819 L 109.53,-20.7639 L 109.189,-20 L 108.698,-19.3235 L 108.077,-18.7639 L 107.352,-18.3458
 L 106.557,-18.0874 L 105.725,-18 z
M 1137.27,-18 L 1136.44,-18.0874 L 1135.65,-18.3458 L 1134.92,-18.7639 L 1134.3,-19.3235 L 1133.81,-20
 L 1133.47,-20.7639 L 1133.3,-21.5819 L 1133.3,-22.4181 L 1133.47,-23.2361 L 1133.81,-24 L 1134.3,-24.6765
 L 1134.92,-25.2361 L 1135.83,-25.7296 L 1219.55,-58.1834 L 1220.36,-58.4025 L 1221.2,-58.449 L 1222.02,-58.3209
 L 1222.8,-58.0237 L 1223.51,-57.5706 L 1224.1,-56.9812 L 1224.56,-56.2814 L 1224.86,-55.5017 L 1225,-54.4538
 L 1225,-22 L 1224.91,-21.1684 L 1224.65,-20.373 L 1224.24,-19.6489 L 1223.68,-19.0274 L 1223,-18.5359
 L 1222.24,-18.1958 L 1221,-18 z
M 605.462,-18 L 604.439,-18.1329 L 603.658,-18.4301 L 602.955,-18.8832 L 602.361,-19.4726 L 601.904,-20.1724
 L 601.602,-20.9521 L 601.468,-21.7776 L 601.509,-22.6128 L 601.723,-23.4212 L 602.1,-24.1676 L 602.624,-24.8192
 L 603.272,-25.3475 L 604.016,-25.7296 L 620.054,-31.9464 L 620.477,-32.0838 L 621.304,-32.2119 L 622.139,-32.1654
 L 622.946,-31.9464 L 638.984,-25.7296 L 639.889,-25.2361 L 640.511,-24.6765 L 641.002,-24 L 641.342,-23.2361
 L 641.516,-22.4181 L 641.516,-21.5819 L 641.342,-20.7639 L 641.002,-20 L 640.511,-19.3235 L 639.889,-18.7639
 L 639.165,-18.3458 L 638.37,-18.0874 L 637.538,-18 z
" stroke="black" fill="lightgray" stroke-width="0.5"/>
</svg>
