<?xml version="1.0" standalone="no"?>
<!DOCTYPE svg PUBLIC "-//W3C//DTD SVG 1.1//EN" "http://www.w3.org/Graphics/SVG/1.1/DTD/svg11.dtd">
<svg width="1258mm" height="80mm" viewBox="0 -80 1258 80" xmlns="http://www.w3.org/2000/svg" version="1.1">
<title>OpenSCAD Model</title>
<path d="
M 1258,-80 L 0,-80 L 0,-0 L 4.95,-0 L 4.95,-6 L 5.00572,-6.53017
 L 5.17046,-7.03717 L 5.437,-7.49884 L 5.79372,-7.895 L 6.22499,-8.20836 L 6.71201,-8.42519 L 7.23344,-8.53603
 L 7.76654,-8.53603 L 8.28798,-8.42519 L 8.77499,-8.20836 L 9.20627,-7.895 L 9.56299,-7.49884 L 9.82953,-7.03717
 L 9.99426,-6.53017 L 10.05,-6 L 10.05,-0 L 182.521,-0 L 182.521,-6 L 182.577,-6.53017
 L 182.742,-7.03717 L 183.008,-7.49884 L 183.365,-7.895 L 183.796,-8.20836 L 184.283,-8.42519 L 184.805,-8.53603
 L 185.338,-8.53603 L 185.859,-8.42519 L 186.346,-8.20836 L 186.778,-7.895 L 187.134,-7.49884 L 187.401,-7.03717
 L 187.566,-6.53017 L 187.621,-6 L 187.621,-0 L 360.093,-0 L 360.093,-6 L 360.149,-6.53017
 L 360.313,-7.03717 L 360.58,-7.49884 L 360.937,-7.895 L 361.368,-8.20836 L 361.855,-8.42519 L 362.376,-8.53603
 L 362.909,-8.53603 L 363.431,-8.42519 L 363.918,-8.20836 L 364.349,-7.895 L 364.706,-7.49884 L 364.972,-7.03717
 L 365.137,-6.53017 L 365.193,-6 L 365.193,-0 L 537.664,-0 L 537.664,-6 L 537.72,-6.53017
 L 537.885,-7.03717 L 538.151,-7.49884 L 538.508,-7.895 L 538.939,-8.20836 L 539.426,-8.42519 L 539.948,-8.53603
 L 540.481,-8.53603 L 541.002,-8.42519 L 541.489,-8.20836 L 541.921,-7.895 L 542.277,-7.49884 L 542.544,-7.03717
 L 542.709,-6.53017 L 542.764,-6 L 542.764,-0 L 715.236,-0 L 715.236,-6 L 715.291,-6.53017
 L 715.456,-7.03717 L 715.723,-7.49884 L 716.079,-7.895 L 716.511,-8.20836 L 716.998,-8.42519 L 717.519,-8.53603
 L 718.052,-8.53603 L 718.574,-8.42519 L 719.061,-8.20836 L 719.492,-7.895 L 719.849,-7.49884 L 720.115,-7.03717
 L 720.28,-6.53017 L 720.336,-6 L 720.336,-0 L 892.807,-0 L 892.807,-6 L 892.863,-6.53017
 L 893.028,-7.03717 L 893.294,-7.49884 L 893.651,-7.895 L 894.082,-8.20836 L 894.569,-8.42519 L 895.091,-8.53603
 L 895.624,-8.53603 L 896.145,-8.42519 L 896.632,-8.20836 L 897.063,-7.895 L 897.42,-7.49884 L 897.687,-7.03717
 L 897.851,-6.53017 L 897.907,-6 L 897.907,-0 L 1070.38,-0 L 1070.38,-6 L 1070.43,-6.53017
 L 1070.6,-7.03717 L 1070.87,-7.49884 L 1071.22,-7.895 L 1071.65,-8.20836 L 1072.14,-8.42519 L 1072.66,-8.53603
 L 1073.2,-8.53603 L 1073.72,-8.42519 L 1074.2,-8.20836 L 1074.63,-7.895 L 1074.99,-7.49884 L 1075.26,-7.03717
 L 1075.42,-6.53017 L 1075.48,-6 L 1075.48,-0 L 1247.95,-0 L 1247.95,-6 L 1248.01,-6.53017
 L 1248.17,-7.03717 L 1248.44,-7.49884 L 1248.79,-7.895 L 1249.22,-8.20836 L 1249.71,-8.42519 L 1250.23,-8.53603
 L 1250.77,-8.53603 L 1251.29,-8.42519 L 1251.77,-8.20836 L 1252.21,-7.895 L 1252.56,-7.49884 L 1252.83,-7.03717
 L 1252.99,-6.53017 L 1253.05,-6 L 1253.05,-0 L 1258,-0 z
M 6.98573,-55.607 L 6.47708,-55.6875 L 5.97964,-55.8208 L 5.49887,-56.0054 L 5.04001,-56.2392 L 4.60811,-56.5196
 L 4.20789,-56.8437 L 3.84373,-57.2079 L 3.51964,-57.6081 L 3.23917,-58.04 L 3.00537,-58.4989 L 2.82082,-58.9796
 L 2.68752,-59.4771 L 2.60696,-59.9857 L 2.58,-60.5 L 2.60696,-61.0143 L 2.68752,-61.5229 L 2.82082,-62.0204
 L 3.00537,-62.5011 L 3.23917,-62.96 L 3.51964,-63.3919 L 3.84373,-63.7921 L 4.20789,-64.1563 L 4.60811,-64.4804
 L 4.95001,-64.7024 L 4.95001,-74 L 5.00574,-74.5302 L 5.17047,-75.0372 L 5.43701,-75.4988 L 5.79373,-75.895
 L 6.22501,-76.2084 L 6.71202,-76.4252 L 7.23346,-76.536 L 7.76654,-76.536 L 8.28798,-76.4252 L 8.77499,-76.2084
 L 9.20627,-75.895 L 9.56299,-75.4988 L 9.82953,-75.0372 L 9.99426,-74.5302 L 10.05,-74 L 10.05,-64.7024
 L 10.3919,-64.4804 L 10.7921,-64.1563 L 11.1563,-63.7921 L 11.4804,-63.3919 L 11.7608,-62.96 L 11.9946,-62.5011
 L 12.1792,-62.0204 L 12.3125,-61.5229 L 12.393,-61.0143 L 12.42,-60.5 L 12.393,-59.9857 L 12.3125,-59.4771
 L 12.1792,-58.9796 L 11.9946,-58.4989 L 11.7608,-58.04 L 11.4804,-57.6081 L 11.1563,-57.2079 L 10.7921,-56.8437
 L 10.3919,-56.5196 L 9.95999,-56.2392 L 9.50113,-56.0054 L 9.02036,-55.8208 L 8.52292,-55.6875 L 8.01427,-55.607
 L 7.5,-55.58 z
M 184.557,-55.607 L 184.049,-55.6875 L 183.551,-55.8208 L 183.07,-56.0054 L 182.611,-56.2392 L 182.18,-56.5196
 L 181.779,-56.8437 L 181.415,-57.2079 L 181.091,-57.6081 L 180.811,-58.04 L 180.577,-58.4989 L 180.392,-58.9796
 L 180.259,-59.4771 L 180.178,-59.9857 L 180.151,-60.5 L 180.178,-61.0143 L 180.259,-61.5229 L 180.392,-62.0204
 L 180.577,-62.5011 L 180.811,-62.96 L 181.091,-63.3919 L 181.415,-63.7921 L 181.779,-64.1563 L 182.18,-64.4804
 L 182.521,-64.7024 L 182.521,-74 L 182.577,-74.5302 L 182.742,-75.0372 L 183.008,-75.4988 L 183.365,-75.895
 L 183.796,-76.2084 L 184.283,-76.4252 L 184.805,-76.536 L 185.338,-76.536 L 185.859,-76.4252 L 186.346,-76.2084
 L 186.778,-75.895 L 187.134,-75.4988 L 187.401,-75.0372 L 187.566,-74.5302 L 187.621,-74 L 187.621,-64.7024
 L 187.963,-64.4804 L 188.364,-64.1563 L 188.728,-63.7921 L 189.052,-63.3919 L 189.332,-62.96 L 189.566,-62.5011
 L 189.751,-62.0204 L 189.884,-61.5229 L 189.964,-61.0143 L 189.991,-60.5 L 189.964,-59.9857 L 189.884,-59.4771
 L 189.751,-58.9796 L 189.566,-58.4989 L 189.332,-58.04 L 189.052,-57.6081 L 188.728,-57.2079 L 188.364,-56.8437
 L 187.963,-56.5196 L 187.531,-56.2392 L 187.073,-56.0054 L 186.592,-55.8208 L 186.094,-55.6875 L 185.586,-55.607
 L 185.071,-55.58 z
M 362.129,-55.607 L 361.62,-55.6875 L 361.122,-55.8208 L 360.642,-56.0054 L 360.183,-56.2392 L 359.751,-56.5196
 L 359.351,-56.8437 L 358.987,-57.2079 L 358.662,-57.6081 L 358.382,-58.04 L 358.148,-58.4989 L 357.964,-58.9796
 L 357.83,-59.4771 L 357.75,-59.9857 L 357.723,-60.5 L 357.75,-61.0143 L 357.83,-61.5229 L 357.964,-62.0204
 L 358.148,-62.5011 L 358.382,-62.96 L 358.662,-63.3919 L 358.987,-63.7921 L 359.351,-64.1563 L 359.751,-64.4804
 L 360.093,-64.7024 L 360.093,-74 L 360.149,-74.5302 L 360.313,-75.0372 L 360.58,-75.4988 L 360.937,-75.895
 L 361.368,-76.2084 L 361.855,-76.4252 L 362.376,-76.536 L 362.909,-76.536 L 363.431,-76.4252 L 363.918,-76.2084
 L 364.349,-75.895 L 364.706,-75.4988 L 364.972,-75.0372 L 365.137,-74.5302 L 365.193,-74 L 365.193,-64.7024
 L 365.535,-64.4804 L 365.935,-64.1563 L 366.299,-63.7921 L 366.623,-63.3919 L 366.904,-62.96 L 367.137,-62.5011
 L 367.322,-62.0204 L 367.455,-61.5229 L 367.536,-61.0143 L 367.563,-60.5 L 367.536,-59.9857 L 367.455,-59.4771
 L 367.322,-58.9796 L 367.137,-58.4989 L 366.904,-58.04 L 366.623,-57.6081 L 366.299,-57.2079 L 365.935,-56.8437
 L 365.535,-56.5196 L 365.103,-56.2392 L 364.644,-56.0054 L 364.163,-55.8208 L 363.666,-55.6875 L 363.157,-55.607
 L 362.643,-55.58 z
M 539.7,-55.607 L 539.191,-55.6875 L 538.694,-55.8208 L 538.213,-56.0054 L 537.754,-56.2392 L 537.322,-56.5196
 L 536.922,-56.8437 L 536.558,-57.2079 L 536.234,-57.6081 L 535.953,-58.04 L 535.72,-58.4989 L 535.535,-58.9796
 L 535.402,-59.4771 L 535.321,-59.9857 L 535.294,-60.5 L 535.321,-61.0143 L 535.402,-61.5229 L 535.535,-62.0204
 L 535.72,-62.5011 L 535.953,-62.96 L 536.234,-63.3919 L 536.558,-63.7921 L 536.922,-64.1563 L 537.322,-64.4804
 L 537.664,-64.7024 L 537.664,-74 L 537.72,-74.5302 L 537.885,-75.0372 L 538.151,-75.4988 L 538.508,-75.895
 L 538.939,-76.2084 L 539.426,-76.4252 L 539.948,-76.536 L 540.481,-76.536 L 541.002,-76.4252 L 541.489,-76.2084
 L 541.921,-75.895 L 542.277,-75.4988 L 542.544,-75.0372 L 542.709,-74.5302 L 542.764,-74 L 542.764,-64.7024
 L 543.106,-64.4804 L 543.506,-64.1563 L 543.871,-63.7921 L 544.195,-63.3919 L 544.475,-62.96 L 544.709,-62.5011
 L 544.893,-62.0204 L 545.027,-61.5229 L 545.107,-61.0143 L 545.134,-60.5 L 545.107,-59.9857 L 545.027,-59.4771
 L 544.893,-58.9796 L 544.709,-58.4989 L 544.475,-58.04 L 544.195,-57.6081 L 543.871,-57.2079 L 543.506,-56.8437
 L 543.106,-56.5196 L 542.674,-56.2392 L 542.215,-56.0054 L 541.735,-55.8208 L 541.237,-55.6875 L 540.729,-55.607
 L 540.214,-55.58 z
M 717.271,-55.607 L 716.763,-55.6875 L 716.265,-55.8208 L 715.785,-56.0054 L 715.326,-56.2392 L 714.894,-56.5196
 L 714.494,-56.8437 L 714.129,-57.2079 L 713.805,-57.6081 L 713.525,-58.04 L 713.291,-58.4989 L 713.107,-58.9796
 L 712.973,-59.4771 L 712.893,-59.9857 L 712.866,-60.5 L 712.893,-61.0143 L 712.973,-61.5229 L 713.107,-62.0204
 L 713.291,-62.5011 L 713.525,-62.96 L 713.805,-63.3919 L 714.129,-63.7921 L 714.494,-64.1563 L 714.894,-64.4804
 L 715.236,-64.7024 L 715.236,-74 L 715.291,-74.5302 L 715.456,-75.0372 L 715.723,-75.4988 L 716.079,-75.895
 L 716.511,-76.2084 L 716.998,-76.4252 L 717.519,-76.536 L 718.052,-76.536 L 718.574,-76.4252 L 719.061,-76.2084
 L 719.492,-75.895 L 719.849,-75.4988 L 720.115,-75.0372 L 720.28,-74.5302 L 720.336,-74 L 720.336,-64.7024
 L 720.678,-64.4804 L 721.078,-64.1563 L 721.442,-63.7921 L 721.766,-63.3919 L 722.047,-62.96 L 722.28,-62.5011
 L 722.465,-62.0204 L 722.598,-61.5229 L 722.679,-61.0143 L 722.706,-60.5 L 722.679,-59.9857 L 722.598,-59.4771
 L 722.465,-58.9796 L 722.28,-58.4989 L 722.047,-58.04 L 721.766,-57.6081 L 721.442,-57.2079 L 721.078,-56.8437
 L 720.678,-56.5196 L 720.246,-56.2392 L 719.787,-56.0054 L 719.306,-55.8208 L 718.809,-55.6875 L 718.3,-55.607
 L 717.786,-55.58 z
M 894.843,-55.607 L 894.334,-55.6875 L 893.837,-55.8208 L 893.356,-56.0054 L 892.897,-56.2392 L 892.465,-56.5196
 L 892.065,-56.8437 L 891.701,-57.2079 L 891.377,-57.6081 L 891.096,-58.04 L 890.863,-58.4989 L 890.678,-58.9796
 L 890.545,-59.4771 L 890.464,-59.9857 L 890.437,-60.5 L 890.464,-61.0143 L 890.545,-61.5229 L 890.678,-62.0204
 L 890.863,-62.5011 L 891.096,-62.96 L 891.377,-63.3919 L 891.701,-63.7921 L 892.065,-64.1563 L 892.465,-64.4804
 L 892.807,-64.7024 L 892.807,-74 L 892.863,-74.5302 L 893.028,-75.0372 L 893.294,-75.4988 L 893.651,-75.895
 L 894.082,-76.2084 L 894.569,-76.4252 L 895.091,-76.536 L 895.624,-76.536 L 896.145,-76.4252 L 896.632,-76.2084
 L 897.063,-75.895 L 897.42,-75.4988 L 897.687,-75.0372 L 897.851,-74.5302 L 897.907,-74 L 897.907,-64.7024
 L 898.249,-64.4804 L 898.649,-64.1563 L 899.013,-63.7921 L 899.337,-63.3919 L 899.618,-62.96 L 899.852,-62.5011
 L 900.036,-62.0204 L 900.17,-61.5229 L 900.25,-61.0143 L 900.277,-60.5 L 900.25,-59.9857 L 900.17,-59.4771
 L 900.036,-58.9796 L 899.852,-58.4989 L 899.618,-58.04 L 899.337,-57.6081 L 899.013,-57.2079 L 898.649,-56.8437
 L 898.249,-56.5196 L 897.817,-56.2392 L 897.358,-56.0054 L 896.877,-55.8208 L 896.38,-55.6875 L 895.871,-55.607
 L 895.357,-55.58 z
M 1072.41,-55.607 L 1071.91,-55.6875 L 1071.41,-55.8208 L 1070.93,-56.0054 L 1070.47,-56.2392 L 1070.04,-56.5196
 L 1069.64,-56.8437 L 1069.27,-57.2079 L 1068.95,-57.6081 L 1068.67,-58.04 L 1068.43,-58.4989 L 1068.25,-58.9796
 L 1068.12,-59.4771 L 1068.04,-59.9857 L 1068.01,-60.5 L 1068.04,-61.0143 L 1068.12,-61.5229 L 1068.25,-62.0204
 L 1068.43,-62.5011 L 1068.67,-62.96 L 1068.95,-63.3919 L 1069.27,-63.7921 L 1069.64,-64.1563 L 1070.04,-64.4804
 L 1070.38,-64.7024 L 1070.38,-74 L 1070.43,-74.5302 L 1070.6,-75.0372 L 1070.87,-75.4988 L 1071.22,-75.895
 L 1071.65,-76.2084 L 1072.14,-76.4252 L 1072.66,-76.536 L 1073.2,-76.536 L 1073.72,-76.4252 L 1074.2,-76.2084
 L 1074.63,-75.895 L 1074.99,-75.4988 L 1075.26,-75.0372 L 1075.42,-74.5302 L 1075.48,-74 L 1075.48,-64.7024
 L 1075.82,-64.4804 L 1076.22,-64.1563 L 1076.58,-63.7921 L 1076.91,-63.3919 L 1077.19,-62.96 L 1077.42,-62.5011
 L 1077.61,-62.0204 L 1077.74,-61.5229 L 1077.82,-61.0143 L 1077.85,-60.5 L 1077.82,-59.9857 L 1077.74,-59.4771
 L 1077.61,-58.9796 L 1077.42,-58.4989 L 1077.19,-58.04 L 1076.91,-57.6081 L 1076.58,-57.2079 L 1076.22,-56.8437
 L 1075.82,-56.5196 L 1075.39,-56.2392 L 1074.93,-56.0054 L 1074.45,-55.8208 L 1073.95,-55.6875 L 1073.44,-55.607
 L 1072.93,-55.58 z
M 1249.99,-55.607 L 1249.48,-55.6875 L 1248.98,-55.8208 L 1248.5,-56.0054 L 1248.04,-56.2392 L 1247.61,-56.5196
 L 1247.21,-56.8437 L 1246.84,-57.2079 L 1246.52,-57.6081 L 1246.24,-58.04 L 1246.01,-58.4989 L 1245.82,-58.9796
 L 1245.69,-59.4771 L 1245.61,-59.9857 L 1245.58,-60.5 L 1245.61,-61.0143 L 1245.69,-61.5229 L 1245.82,-62.0204
 L 1246.01,-62.5011 L 1246.24,-62.96 L 1246.52,-63.3919 L 1246.84,-63.7921 L 1247.21,-64.1563 L 1247.61,-64.4804
 L 1247.95,-64.7024 L 1247.95,-74 L 1248.01,-74.5302 L 1248.17,-75.0372 L 1248.44,-75.4988 L 1248.79,-75.895
 L 1249.23,-76.2084 L 1249.71,-76.4252 L 1250.23,-76.536 L 1250.77,-76.536 L 1251.29,-76.4252 L 1251.77,-76.2084
 L 1252.21,-75.895 L 1252.56,-75.4988 L 1252.83,-75.0372 L 1252.99,-74.5302 L 1253.05,-74 L 1253.05,-64.7024
 L 1253.39,-64.4804 L 1253.79,-64.1563 L 1254.16,-63.7921 L 1254.48,-63.3919 L 1254.76,-62.96 L 1254.99,-62.5011
 L 1255.18,-62.0204 L 1255.31,-61.5229 L 1255.39,-61.0143 L 1255.42,-60.5 L 1255.39,-59.9857 L 1255.31,-59.4771
 L 1255.18,-58.9796 L 1254.99,-58.4989 L 1254.76,-58.04 L 1254.48,-57.6081 L 1254.16,-57.2079 L 1253.79,-56.8437
 L 1253.39,-56.5196 L 1252.96,-56.2392 L 1252.5,-56.0054 L 1252.02,-55.8208 L 1251.52,-55.6875 L 1251.01,-55.607
 L 1250.5,-55.58 z
M 729.747,-21.0175 L 728.967,-21.3178 L 728.266,-21.7738 L 727.675,-22.3656 L 727.22,-23.0673 L 726.921,-23.8482
 L 726.786,-24.8804 L 726.786,-58 L 726.873,-58.8316 L 727.132,-59.627 L 727.55,-60.3511 L 728.109,-60.9726
 L 728.786,-61.4641 L 729.55,-61.8042 L 730.786,-62 L 817.272,-62 L 818.104,-61.9126 L 818.899,-61.6542
 L 819.624,-61.2361 L 820.245,-60.6765 L 820.737,-60 L 821.077,-59.2361 L 821.251,-58.4181 L 821.251,-57.5819
 L 821.077,-56.7639 L 820.737,-56 L 820.245,-55.3235 L 819.624,-54.7639 L 818.703,-54.2645 L 732.216,-21.1449
 L 731.408,-20.9291 L 730.573,-20.886 z
M 628.377,-47.8121 L 627.57,-48.0278 L 611.283,-54.2645 L 610.363,-54.7639 L 609.741,-55.3235 L 609.25,-56
 L 608.91,-56.7639 L 608.736,-57.5819 L 608.736,-58.4181 L 608.91,-59.2361 L 609.25,-60 L 609.741,-60.6765
 L 610.363,-61.2361 L 611.087,-61.6542 L 611.882,-61.9126 L 612.714,-62 L 645.286,-62 L 646.325,-61.8629
 L 647.105,-61.5626 L 647.806,-61.1066 L 648.397,-60.5148 L 648.852,-59.8131 L 649.151,-59.0322 L 649.281,-58.2061
 L 649.236,-57.3711 L 649.019,-56.5635 L 648.639,-55.8188 L 648.112,-55.1693 L 647.462,-54.6436 L 646.717,-54.2645
 L 630.43,-48.0278 L 629.213,-47.769 z
M 526.592,-20.9291 L 525.784,-21.1449 L 439.297,-54.2645 L 438.376,-54.7639 L 437.755,-55.3235 L 437.263,-56
 L 436.923,-56.7639 L 436.749,-57.5819 L 436.749,-58.4181 L 436.923,-59.2361 L 437.263,-60 L 437.755,-60.6765
 L 438.376,-61.2361 L 439.101,-61.6542 L 439.896,-61.9126 L 440.728,-62 L 527.214,-62 L 528.45,-61.8042
 L 529.214,-61.4641 L 529.891,-60.9726 L 530.45,-60.3511 L 530.868,-59.627 L 531.127,-58.8316 L 531.214,-58
 L 531.214,-24.8804 L 531.079,-23.8482 L 530.78,-23.0673 L 530.325,-22.3656 L 529.734,-21.7738 L 529.033,-21.3178
 L 528.253,-21.0175 L 527.427,-20.886 z
M 349.02,-20.9291 L 348.212,-21.1449 L 261.726,-54.2645 L 260.805,-54.7639 L 260.184,-55.3235 L 259.692,-56
 L 259.352,-56.7639 L 259.178,-57.5819 L 259.178,-58.4181 L 259.352,-59.2361 L 259.692,-60 L 260.184,-60.6765
 L 260.805,-61.2361 L 261.529,-61.6542 L 262.324,-61.9126 L 263.156,-62 L 349.643,-62 L 350.879,-61.8042
 L 351.643,-61.4641 L 352.319,-60.9726 L 352.879,-60.3511 L 353.297,-59.627 L 353.555,-58.8316 L 353.643,-58
 L 353.643,-24.8804 L 353.507,-23.8482 L 353.208,-23.0673 L 352.753,-22.3656 L 352.163,-21.7738 L 351.462,-21.3178
 L 350.681,-21.0175 L 349.855,-20.886 z
M 1084.89,-21.0175 L 1084.11,-21.3178 L 1083.41,-21.7738 L 1082.82,-22.3656 L 1082.36,-23.0673 L 1082.06,-23.8482
 L 1081.93,-24.8804 L 1081.93,-58 L 1082.02,-58.8316 L 1082.27,-59.627 L 1082.69,-60.3511 L 1083.25,-60.9726
 L 1083.93,-61.4641 L 1084.69,-61.8042 L 1085.93,-62 L 1172.42,-62 L 1173.25,-61.9126 L 1174.04,-61.6542
 L 1174.77,-61.2361 L 1175.39,-60.6765 L 1175.88,-60 L 1176.22,-59.2361 L 1176.39,-58.4181 L 1176.39,-57.5819
 L 1176.22,-56.7639 L 1175.88,-56 L 1175.39,-55.3235 L 1174.77,-54.7639 L 1173.85,-54.2645 L 1087.36,-21.1449
 L 1086.55,-20.9291 L 1085.72,-20.886 z
M 171.449,-20.9291 L 170.641,-21.1449 L 84.1542,-54.2645 L 83.2335,-54.7639 L 82.6121,-55.3235 L 82.1206,-56
 L 81.7804,-56.7639 L 81.6066,-57.5819 L 81.6066,-58.4181 L 81.7804,-59.2361 L 82.1206,-60 L 82.6121,-60.6765
 L 83.2335,-61.2361 L 83.9577,-61.6542 L 84.753,-61.9126 L 85.5847,-62 L 172.071,-62 L 173.307,-61.8042
 L 174.071,-61.4641 L 174.748,-60.9726 L 175.307,-60.3511 L 175.726,-59.627 L 175.984,-58.8316 L 176.071,-58
 L 176.071,-24.8804 L 175.936,-23.8482 L 175.637,-23.0673 L 175.182,-22.3656 L 174.591,-21.7738 L 173.89,-21.3178
 L 173.11,-21.0175 L 172.284,-20.886 z
M 907.319,-21.0175 L 906.538,-21.3178 L 905.837,-21.7738 L 905.247,-22.3656 L 904.792,-23.0673 L 904.493,-23.8482
 L 904.357,-24.8804 L 904.357,-58 L 904.445,-58.8316 L 904.703,-59.627 L 905.121,-60.3511 L 905.681,-60.9726
 L 906.357,-61.4641 L 907.121,-61.8042 L 908.357,-62 L 994.844,-62 L 995.676,-61.9126 L 996.471,-61.6542
 L 997.195,-61.2361 L 997.816,-60.6765 L 998.308,-60 L 998.648,-59.2361 L 998.822,-58.4181 L 998.822,-57.5819
 L 998.648,-56.7639 L 998.308,-56 L 997.816,-55.3235 L 997.195,-54.7639 L 996.274,-54.2645 L 909.788,-21.1449
 L 908.98,-20.9291 L 908.145,-20.886 z
M 552.796,-18.7635 L 551.978,-18.9374 L 551.214,-19.2775 L 550.538,-19.769 L 549.978,-20.3905 L 549.56,-21.1147
 L 549.302,-21.91 L 549.214,-22.7416 L 549.214,-57.2584 L 549.35,-58.2906 L 549.649,-59.0715 L 550.104,-59.7732
 L 550.695,-60.365 L 551.395,-60.821 L 552.176,-61.1213 L 553.002,-61.2527 L 553.837,-61.2096 L 554.645,-60.9939
 L 599.712,-43.7355 L 600.101,-43.5626 L 600.802,-43.1066 L 601.393,-42.5148 L 601.847,-41.8131 L 602.146,-41.0322
 L 602.277,-40.2061 L 602.232,-39.3711 L 602.015,-38.5635 L 601.635,-37.8188 L 601.108,-37.1693 L 600.458,-36.6436
 L 599.712,-36.2645 L 554.645,-19.0061 L 553.632,-18.7635 z
M 704.163,-18.7903 L 703.355,-19.0061 L 658.288,-36.2645 L 657.899,-36.4374 L 657.198,-36.8934 L 656.607,-37.4852
 L 656.153,-38.1869 L 655.854,-38.9678 L 655.723,-39.7939 L 655.768,-40.6289 L 655.985,-41.4365 L 656.365,-42.1812
 L 656.892,-42.8307 L 657.542,-43.3564 L 658.288,-43.7355 L 703.355,-60.9939 L 704.368,-61.2365 L 705.204,-61.2365
 L 706.022,-61.0626 L 706.786,-60.7225 L 707.462,-60.231 L 708.022,-59.6095 L 708.44,-58.8854 L 708.698,-58.0901
 L 708.786,-57.2584 L 708.786,-22.7416 L 708.65,-21.7094 L 708.351,-20.9285 L 707.896,-20.2268 L 707.305,-19.635
 L 706.605,-19.179 L 705.824,-18.8787 L 704.998,-18.7472 z
M 198.071,-18 L 196.835,-18.1958 L 196.071,-18.5359 L 195.395,-19.0274 L 194.835,-19.6489 L 194.417,-20.373
 L 194.159,-21.1684 L 194.071,-22 L 194.071,-55.1196 L 194.207,-56.1518 L 194.506,-56.9327 L 194.961,-57.6344
 L 195.552,-58.2262 L 196.253,-58.6822 L 197.033,-58.9825 L 197.859,-59.114 L 198.694,-59.0709 L 199.502,-58.8551
 L 285.989,-25.7355 L 286.909,-25.2361 L 287.531,-24.6765 L 288.022,-24 L 288.362,-23.2361 L 288.536,-22.4181
 L 288.536,-21.5819 L 288.362,-20.7639 L 288.022,-20 L 287.531,-19.3235 L 286.909,-18.7639 L 286.185,-18.3458
 L 285.39,-18.0874 L 284.558,-18 z
M 375.643,-18 L 374.407,-18.1958 L 373.643,-18.5359 L 372.966,-19.0274 L 372.407,-19.6489 L 371.989,-20.373
 L 371.73,-21.1684 L 371.643,-22 L 371.643,-55.1196 L 371.778,-56.1518 L 372.077,-56.9327 L 372.532,-57.6344
 L 373.123,-58.2262 L 373.824,-58.6822 L 374.604,-58.9825 L 375.43,-59.114 L 376.265,-59.0709 L 377.073,-58.8551
 L 463.56,-25.7355 L 464.481,-25.2361 L 465.102,-24.6765 L 465.594,-24 L 465.934,-23.2361 L 466.108,-22.4181
 L 466.108,-21.5819 L 465.934,-20.7639 L 465.594,-20 L 465.102,-19.3235 L 464.481,-18.7639 L 463.757,-18.3458
 L 462.961,-18.0874 L 462.13,-18 z
M 795.87,-18 L 795.039,-18.0874 L 794.243,-18.3458 L 793.519,-18.7639 L 792.898,-19.3235 L 792.406,-20
 L 792.066,-20.7639 L 791.892,-21.5819 L 791.892,-22.4181 L 792.066,-23.2361 L 792.406,-24 L 792.898,-24.6765
 L 793.519,-25.2361 L 794.44,-25.7355 L 880.927,-58.8551 L 881.735,-59.0709 L 882.57,-59.114 L 883.396,-58.9825
 L 884.176,-58.6822 L 884.877,-58.2262 L 885.468,-57.6344 L 885.923,-56.9327 L 886.222,-56.1518 L 886.357,-55.1196
 L 886.357,-22 L 886.27,-21.1684 L 886.011,-20.373 L 885.593,-19.6489 L 885.034,-19.0274 L 884.357,-18.5359
 L 883.593,-18.1958 L 882.357,-18 z
M 973.442,-18 L 972.61,-18.0874 L 971.815,-18.3458 L 971.091,-18.7639 L 970.469,-19.3235 L 969.978,-20
 L 969.638,-20.7639 L 969.464,-21.5819 L 969.464,-22.4181 L 969.638,-23.2361 L 969.978,-24 L 970.469,-24.6765
 L 971.091,-25.2361 L 972.011,-25.7355 L 1058.5,-58.8551 L 1059.31,-59.0709 L 1060.14,-59.114 L 1060.97,-58.9825
 L 1061.75,-58.6822 L 1062.45,-58.2262 L 1063.04,-57.6344 L 1063.49,-56.9327 L 1063.79,-56.1518 L 1063.93,-55.1196
 L 1063.93,-22 L 1063.84,-21.1684 L 1063.58,-20.373 L 1063.16,-19.6489 L 1062.61,-19.0274 L 1061.93,-18.5359
 L 1061.16,-18.1958 L 1059.93,-18 z
M 22,-18 L 20.7639,-18.1958 L 20,-18.5359 L 19.3235,-19.0274 L 18.7639,-19.6489 L 18.3458,-20.373
 L 18.0874,-21.1684 L 18,-22 L 18,-54.5452 L 18.1355,-55.5774 L 18.4345,-56.3583 L 18.8894,-57.06
 L 19.4802,-57.6518 L 20.1812,-58.1078 L 20.9616,-58.4081 L 21.7875,-58.5396 L 22.6226,-58.4964 L 23.4305,-58.2807
 L 108.417,-25.7355 L 109.338,-25.2361 L 109.959,-24.6765 L 110.451,-24 L 110.791,-23.2361 L 110.965,-22.4181
 L 110.965,-21.5819 L 110.791,-20.7639 L 110.451,-20 L 109.959,-19.3235 L 109.338,-18.7639 L 108.614,-18.3458
 L 107.818,-18.0874 L 106.987,-18 z
M 1151.01,-18 L 1150.18,-18.0874 L 1149.39,-18.3458 L 1148.66,-18.7639 L 1148.04,-19.3235 L 1147.55,-20
 L 1147.21,-20.7639 L 1147.04,-21.5819 L 1147.04,-22.4181 L 1147.21,-23.2361 L 1147.55,-24 L 1148.04,-24.6765
 L 1148.66,-25.2361 L 1149.58,-25.7355 L 1234.57,-58.2807 L 1235.38,-58.4964 L 1236.21,-58.5396 L 1237.04,-58.4081
 L 1237.82,-58.1078 L 1238.52,-57.6518 L 1239.11,-57.06 L 1239.57,-56.3583 L 1239.86,-55.5774 L 1240,-54.5452
 L 1240,-22 L 1239.91,-21.1684 L 1239.65,-20.373 L 1239.24,-19.6489 L 1238.68,-19.0274 L 1238,-18.5359
 L 1237.24,-18.1958 L 1236,-18 z
M 612.714,-18 L 611.675,-18.1371 L 610.895,-18.4374 L 610.194,-18.8934 L 609.603,-19.4852 L 609.148,-20.1869
 L 608.849,-20.9678 L 608.719,-21.7939 L 608.764,-22.6289 L 608.981,-23.4365 L 609.361,-24.1812 L 609.888,-24.8307
 L 610.538,-25.3564 L 611.283,-25.7355 L 627.57,-31.9722 L 628.787,-32.231 L 629.623,-32.1879 L 630.43,-31.9722
 L 646.717,-25.7355 L 647.637,-25.2361 L 648.259,-24.6765 L 648.75,-24 L 649.09,-23.2361 L 649.264,-22.4181
 L 649.264,-21.5819 L 649.09,-20.7639 L 648.75,-20 L 648.259,-19.3235 L 647.637,-18.7639 L 646.913,-18.3458
 L 646.118,-18.0874 L 645.286,-18 z
" stroke="black" fill="lightgray" stroke-width="0.5"/>
</svg>
