<?xml version="1.0" standalone="no"?>
<!DOCTYPE svg PUBLIC "-//W3C//DTD SVG 1.1//EN" "http://www.w3.org/Graphics/SVG/1.1/DTD/svg11.dtd">
<svg width="1399mm" height="80mm" viewBox="0 -80 1399 80" xmlns="http://www.w3.org/2000/svg" version="1.1">
<title>OpenSCAD Model</title>
<path d="
M 1399,-80 L 0,-80 L 0,-0 L 4.95,-0 L 4.95,-6 L 5.00572,-6.53017
 L 5.17046,-7.03717 L 5.437,-7.49884 L 5.79372,-7.895 L 6.22499,-8.20836 L 6.71201,-8.42519 L 7.23344,-8.53603
 L 7.76654,-8.53603 L 8.28798,-8.42519 L 8.77499,-8.20836 L 9.20627,-7.895 L 9.56299,-7.49884 L 9.82953,-7.03717
 L 9.99426,-6.53017 L 10.05,-6 L 10.05,-0 L 202.664,-0 L 202.664,-6 L 202.72,-6.53017
 L 202.885,-7.03717 L 203.151,-7.49884 L 203.508,-7.895 L 203.939,-8.20836 L 204.426,-8.42519 L 204.948,-8.53603
 L 205.481,-8.53603 L 206.002,-8.42519 L 206.489,-8.20836 L 206.921,-7.895 L 207.277,-7.49884 L 207.544,-7.03717
 L 207.709,-6.53017 L 207.764,-6 L 207.764,-0 L 400.379,-0 L 400.379,-6 L 400.434,-6.53017
 L 400.599,-7.03717 L 400.866,-7.49884 L 401.222,-7.895 L 401.654,-8.20836 L 402.141,-8.42519 L 402.662,-8.53603
 L 403.195,-8.53603 L 403.717,-8.42519 L 404.204,-8.20836 L 404.635,-7.895 L 404.992,-7.49884 L 405.258,-7.03717
 L 405.423,-6.53017 L 405.479,-6 L 405.479,-0 L 598.093,-0 L 598.093,-6 L 598.149,-6.53017
 L 598.313,-7.03717 L 598.58,-7.49884 L 598.937,-7.895 L 599.368,-8.20836 L 599.855,-8.42519 L 600.376,-8.53603
 L 600.909,-8.53603 L 601.431,-8.42519 L 601.918,-8.20836 L 602.349,-7.895 L 602.706,-7.49884 L 602.972,-7.03717
 L 603.137,-6.53017 L 603.193,-6 L 603.193,-0 L 795.807,-0 L 795.807,-6 L 795.863,-6.53017
 L 796.028,-7.03717 L 796.294,-7.49884 L 796.651,-7.895 L 797.082,-8.20836 L 797.569,-8.42519 L 798.091,-8.53603
 L 798.624,-8.53603 L 799.145,-8.42519 L 799.632,-8.20836 L 800.063,-7.895 L 800.42,-7.49884 L 800.687,-7.03717
 L 800.851,-6.53017 L 800.907,-6 L 800.907,-0 L 993.521,-0 L 993.521,-6 L 993.577,-6.53017
 L 993.742,-7.03717 L 994.008,-7.49884 L 994.365,-7.895 L 994.796,-8.20836 L 995.283,-8.42519 L 995.805,-8.53603
 L 996.338,-8.53603 L 996.859,-8.42519 L 997.346,-8.20836 L 997.778,-7.895 L 998.134,-7.49884 L 998.401,-7.03717
 L 998.566,-6.53017 L 998.621,-6 L 998.621,-0 L 1191.24,-0 L 1191.24,-6 L 1191.29,-6.53017
 L 1191.46,-7.03717 L 1191.72,-7.49884 L 1192.08,-7.895 L 1192.51,-8.20836 L 1193,-8.42519 L 1193.52,-8.53603
 L 1194.05,-8.53603 L 1194.57,-8.42519 L 1195.06,-8.20836 L 1195.49,-7.895 L 1195.85,-7.49884 L 1196.12,-7.03717
 L 1196.28,-6.53017 L 1196.34,-6 L 1196.34,-0 L 1388.95,-0 L 1388.95,-6 L 1389.01,-6.53017
 L 1389.17,-7.03717 L 1389.44,-7.49884 L 1389.79,-7.895 L 1390.22,-8.20836 L 1390.71,-8.42519 L 1391.23,-8.53603
 L 1391.77,-8.53603 L 1392.29,-8.42519 L 1392.77,-8.20836 L 1393.21,-7.895 L 1393.56,-7.49884 L 1393.83,-7.03717
 L 1393.99,-6.53017 L 1394.05,-6 L 1394.05,-0 L 1399,-0 z
M 6.98573,-55.607 L 6.47708,-55.6875 L 5.97964,-55.8208 L 5.49887,-56.0054 L 5.04001,-56.2392 L 4.60811,-56.5196
 L 4.20789,-56.8437 L 3.84373,-57.2079 L 3.51964,-57.6081 L 3.23917,-58.04 L 3.00537,-58.4989 L 2.82082,-58.9796
 L 2.68752,-59.4771 L 2.60696,-59.9857 L 2.58,-60.5 L 2.60696,-61.0143 L 2.68752,-61.5229 L 2.82082,-62.0204
 L 3.00537,-62.5011 L 3.23917,-62.96 L 3.51964,-63.3919 L 3.84373,-63.7921 L 4.20789,-64.1563 L 4.60811,-64.4804
 L 4.95001,-64.7024 L 4.95001,-74 L 5.00574,-74.5302 L 5.17047,-75.0372 L 5.43701,-75.4988 L 5.79373,-75.895
 L 6.22501,-76.2084 L 6.71202,-76.4252 L 7.23346,-76.536 L 7.76654,-76.536 L 8.28798,-76.4252 L 8.77499,-76.2084
 L 9.20627,-75.895 L 9.56299,-75.4988 L 9.82953,-75.0372 L 9.99426,-74.5302 L 10.05,-74 L 10.05,-64.7024
 L 10.3919,-64.4804 L 10.7921,-64.1563 L 11.1563,-63.7921 L 11.4804,-63.3919 L 11.7608,-62.96 L 11.9946,-62.5011
 L 12.1792,-62.0204 L 12.3125,-61.5229 L 12.393,-61.0143 L 12.42,-60.5 L 12.393,-59.9857 L 12.3125,-59.4771
 L 12.1792,-58.9796 L 11.9946,-58.4989 L 11.7608,-58.04 L 11.4804,-57.6081 L 11.1563,-57.2079 L 10.7921,-56.8437
 L 10.3919,-56.5196 L 9.95999,-56.2392 L 9.50113,-56.0054 L 9.02036,-55.8208 L 8.52292,-55.6875 L 8.01427,-55.607
 L 7.5,-55.58 z
M 204.7,-55.607 L 204.191,-55.6875 L 203.694,-55.8208 L 203.213,-56.0054 L 202.754,-56.2392 L 202.322,-56.5196
 L 201.922,-56.8437 L 201.558,-57.2079 L 201.234,-57.6081 L 200.953,-58.04 L 200.72,-58.4989 L 200.535,-58.9796
 L 200.402,-59.4771 L 200.321,-59.9857 L 200.294,-60.5 L 200.321,-61.0143 L 200.402,-61.5229 L 200.535,-62.0204
 L 200.72,-62.5011 L 200.953,-62.96 L 201.234,-63.3919 L 201.558,-63.7921 L 201.922,-64.1563 L 202.322,-64.4804
 L 202.664,-64.7024 L 202.664,-74 L 202.72,-74.5302 L 202.885,-75.0372 L 203.151,-75.4988 L 203.508,-75.895
 L 203.939,-76.2084 L 204.426,-76.4252 L 204.948,-76.536 L 205.481,-76.536 L 206.002,-76.4252 L 206.489,-76.2084
 L 206.921,-75.895 L 207.277,-75.4988 L 207.544,-75.0372 L 207.709,-74.5302 L 207.764,-74 L 207.764,-64.7024
 L 208.106,-64.4804 L 208.506,-64.1563 L 208.871,-63.7921 L 209.195,-63.3919 L 209.475,-62.96 L 209.709,-62.5011
 L 209.893,-62.0204 L 210.027,-61.5229 L 210.107,-61.0143 L 210.134,-60.5 L 210.107,-59.9857 L 210.027,-59.4771
 L 209.893,-58.9796 L 209.709,-58.4989 L 209.475,-58.04 L 209.195,-57.6081 L 208.871,-57.2079 L 208.506,-56.8437
 L 208.106,-56.5196 L 207.674,-56.2392 L 207.215,-56.0054 L 206.735,-55.8208 L 206.237,-55.6875 L 205.729,-55.607
 L 205.214,-55.58 z
M 402.414,-55.607 L 401.906,-55.6875 L 401.408,-55.8208 L 400.927,-56.0054 L 400.469,-56.2392 L 400.037,-56.5196
 L 399.636,-56.8437 L 399.272,-57.2079 L 398.948,-57.6081 L 398.668,-58.04 L 398.434,-58.4989 L 398.249,-58.9796
 L 398.116,-59.4771 L 398.036,-59.9857 L 398.009,-60.5 L 398.036,-61.0143 L 398.116,-61.5229 L 398.249,-62.0204
 L 398.434,-62.5011 L 398.668,-62.96 L 398.948,-63.3919 L 399.272,-63.7921 L 399.636,-64.1563 L 400.037,-64.4804
 L 400.379,-64.7024 L 400.379,-74 L 400.434,-74.5302 L 400.599,-75.0372 L 400.866,-75.4988 L 401.222,-75.895
 L 401.654,-76.2084 L 402.141,-76.4252 L 402.662,-76.536 L 403.195,-76.536 L 403.717,-76.4252 L 404.204,-76.2084
 L 404.635,-75.895 L 404.992,-75.4988 L 405.258,-75.0372 L 405.423,-74.5302 L 405.479,-74 L 405.479,-64.7024
 L 405.82,-64.4804 L 406.221,-64.1563 L 406.585,-63.7921 L 406.909,-63.3919 L 407.189,-62.96 L 407.423,-62.5011
 L 407.608,-62.0204 L 407.741,-61.5229 L 407.822,-61.0143 L 407.849,-60.5 L 407.822,-59.9857 L 407.741,-59.4771
 L 407.608,-58.9796 L 407.423,-58.4989 L 407.189,-58.04 L 406.909,-57.6081 L 406.585,-57.2079 L 406.221,-56.8437
 L 405.82,-56.5196 L 405.389,-56.2392 L 404.93,-56.0054 L 404.449,-55.8208 L 403.951,-55.6875 L 403.443,-55.607
 L 402.929,-55.58 z
M 600.129,-55.607 L 599.62,-55.6875 L 599.122,-55.8208 L 598.642,-56.0054 L 598.183,-56.2392 L 597.751,-56.5196
 L 597.351,-56.8437 L 596.987,-57.2079 L 596.662,-57.6081 L 596.382,-58.04 L 596.148,-58.4989 L 595.964,-58.9796
 L 595.83,-59.4771 L 595.75,-59.9857 L 595.723,-60.5 L 595.75,-61.0143 L 595.83,-61.5229 L 595.964,-62.0204
 L 596.148,-62.5011 L 596.382,-62.96 L 596.662,-63.3919 L 596.987,-63.7921 L 597.351,-64.1563 L 597.751,-64.4804
 L 598.093,-64.7024 L 598.093,-74 L 598.149,-74.5302 L 598.313,-75.0372 L 598.58,-75.4988 L 598.937,-75.895
 L 599.368,-76.2084 L 599.855,-76.4252 L 600.376,-76.536 L 600.909,-76.536 L 601.431,-76.4252 L 601.918,-76.2084
 L 602.349,-75.895 L 602.706,-75.4988 L 602.972,-75.0372 L 603.137,-74.5302 L 603.193,-74 L 603.193,-64.7024
 L 603.535,-64.4804 L 603.935,-64.1563 L 604.299,-63.7921 L 604.623,-63.3919 L 604.904,-62.96 L 605.137,-62.5011
 L 605.322,-62.0204 L 605.455,-61.5229 L 605.536,-61.0143 L 605.563,-60.5 L 605.536,-59.9857 L 605.455,-59.4771
 L 605.322,-58.9796 L 605.137,-58.4989 L 604.904,-58.04 L 604.623,-57.6081 L 604.299,-57.2079 L 603.935,-56.8437
 L 603.535,-56.5196 L 603.103,-56.2392 L 602.644,-56.0054 L 602.163,-55.8208 L 601.666,-55.6875 L 601.157,-55.607
 L 600.643,-55.58 z
M 797.843,-55.607 L 797.334,-55.6875 L 796.837,-55.8208 L 796.356,-56.0054 L 795.897,-56.2392 L 795.465,-56.5196
 L 795.065,-56.8437 L 794.701,-57.2079 L 794.377,-57.6081 L 794.096,-58.04 L 793.863,-58.4989 L 793.678,-58.9796
 L 793.545,-59.4771 L 793.464,-59.9857 L 793.437,-60.5 L 793.464,-61.0143 L 793.545,-61.5229 L 793.678,-62.0204
 L 793.863,-62.5011 L 794.096,-62.96 L 794.377,-63.3919 L 794.701,-63.7921 L 795.065,-64.1563 L 795.465,-64.4804
 L 795.807,-64.7024 L 795.807,-74 L 795.863,-74.5302 L 796.028,-75.0372 L 796.294,-75.4988 L 796.651,-75.895
 L 797.082,-76.2084 L 797.569,-76.4252 L 798.091,-76.536 L 798.624,-76.536 L 799.145,-76.4252 L 799.632,-76.2084
 L 800.063,-75.895 L 800.42,-75.4988 L 800.687,-75.0372 L 800.851,-74.5302 L 800.907,-74 L 800.907,-64.7024
 L 801.249,-64.4804 L 801.649,-64.1563 L 802.013,-63.7921 L 802.337,-63.3919 L 802.618,-62.96 L 802.852,-62.5011
 L 803.036,-62.0204 L 803.17,-61.5229 L 803.25,-61.0143 L 803.277,-60.5 L 803.25,-59.9857 L 803.17,-59.4771
 L 803.036,-58.9796 L 802.852,-58.4989 L 802.618,-58.04 L 802.337,-57.6081 L 802.013,-57.2079 L 801.649,-56.8437
 L 801.249,-56.5196 L 800.817,-56.2392 L 800.358,-56.0054 L 799.877,-55.8208 L 799.38,-55.6875 L 798.871,-55.607
 L 798.357,-55.58 z
M 995.557,-55.607 L 995.049,-55.6875 L 994.551,-55.8208 L 994.07,-56.0054 L 993.611,-56.2392 L 993.18,-56.5196
 L 992.779,-56.8437 L 992.415,-57.2079 L 992.091,-57.6081 L 991.811,-58.04 L 991.577,-58.4989 L 991.392,-58.9796
 L 991.259,-59.4771 L 991.178,-59.9857 L 991.151,-60.5 L 991.178,-61.0143 L 991.259,-61.5229 L 991.392,-62.0204
 L 991.577,-62.5011 L 991.811,-62.96 L 992.091,-63.3919 L 992.415,-63.7921 L 992.779,-64.1563 L 993.18,-64.4804
 L 993.521,-64.7024 L 993.521,-74 L 993.577,-74.5302 L 993.742,-75.0372 L 994.008,-75.4988 L 994.365,-75.895
 L 994.796,-76.2084 L 995.283,-76.4252 L 995.805,-76.536 L 996.338,-76.536 L 996.859,-76.4252 L 997.346,-76.2084
 L 997.778,-75.895 L 998.134,-75.4988 L 998.401,-75.0372 L 998.566,-74.5302 L 998.621,-74 L 998.621,-64.7024
 L 998.963,-64.4804 L 999.364,-64.1563 L 999.728,-63.7921 L 1000.05,-63.3919 L 1000.33,-62.96 L 1000.57,-62.5011
 L 1000.75,-62.0204 L 1000.88,-61.5229 L 1000.96,-61.0143 L 1000.99,-60.5 L 1000.96,-59.9857 L 1000.88,-59.4771
 L 1000.75,-58.9796 L 1000.57,-58.4989 L 1000.33,-58.04 L 1000.05,-57.6081 L 999.728,-57.2079 L 999.364,-56.8437
 L 998.963,-56.5196 L 998.531,-56.2392 L 998.073,-56.0054 L 997.592,-55.8208 L 997.094,-55.6875 L 996.586,-55.607
 L 996.071,-55.58 z
M 1193.27,-55.607 L 1192.76,-55.6875 L 1192.27,-55.8208 L 1191.78,-56.0054 L 1191.33,-56.2392 L 1190.89,-56.5196
 L 1190.49,-56.8437 L 1190.13,-57.2079 L 1189.81,-57.6081 L 1189.52,-58.04 L 1189.29,-58.4989 L 1189.11,-58.9796
 L 1188.97,-59.4771 L 1188.89,-59.9857 L 1188.87,-60.5 L 1188.89,-61.0143 L 1188.97,-61.5229 L 1189.11,-62.0204
 L 1189.29,-62.5011 L 1189.52,-62.96 L 1189.81,-63.3919 L 1190.13,-63.7921 L 1190.49,-64.1563 L 1190.89,-64.4804
 L 1191.24,-64.7024 L 1191.24,-74 L 1191.29,-74.5302 L 1191.46,-75.0372 L 1191.72,-75.4988 L 1192.08,-75.895
 L 1192.51,-76.2084 L 1193,-76.4252 L 1193.52,-76.536 L 1194.05,-76.536 L 1194.57,-76.4252 L 1195.06,-76.2084
 L 1195.49,-75.895 L 1195.85,-75.4988 L 1196.12,-75.0372 L 1196.28,-74.5302 L 1196.34,-74 L 1196.34,-64.7024
 L 1196.68,-64.4804 L 1197.08,-64.1563 L 1197.44,-63.7921 L 1197.77,-63.3919 L 1198.05,-62.96 L 1198.28,-62.5011
 L 1198.46,-62.0204 L 1198.6,-61.5229 L 1198.68,-61.0143 L 1198.71,-60.5 L 1198.68,-59.9857 L 1198.6,-59.4771
 L 1198.46,-58.9796 L 1198.28,-58.4989 L 1198.05,-58.04 L 1197.77,-57.6081 L 1197.44,-57.2079 L 1197.08,-56.8437
 L 1196.68,-56.5196 L 1196.25,-56.2392 L 1195.79,-56.0054 L 1195.31,-55.8208 L 1194.81,-55.6875 L 1194.3,-55.607
 L 1193.79,-55.58 z
M 1390.99,-55.607 L 1390.48,-55.6875 L 1389.98,-55.8208 L 1389.5,-56.0054 L 1389.04,-56.2392 L 1388.61,-56.5196
 L 1388.21,-56.8437 L 1387.84,-57.2079 L 1387.52,-57.6081 L 1387.24,-58.04 L 1387.01,-58.4989 L 1386.82,-58.9796
 L 1386.69,-59.4771 L 1386.61,-59.9857 L 1386.58,-60.5 L 1386.61,-61.0143 L 1386.69,-61.5229 L 1386.82,-62.0204
 L 1387.01,-62.5011 L 1387.24,-62.96 L 1387.52,-63.3919 L 1387.84,-63.7921 L 1388.21,-64.1563 L 1388.61,-64.4804
 L 1388.95,-64.7024 L 1388.95,-74 L 1389.01,-74.5302 L 1389.17,-75.0372 L 1389.44,-75.4988 L 1389.79,-75.895
 L 1390.23,-76.2084 L 1390.71,-76.4252 L 1391.23,-76.536 L 1391.77,-76.536 L 1392.29,-76.4252 L 1392.77,-76.2084
 L 1393.21,-75.895 L 1393.56,-75.4988 L 1393.83,-75.0372 L 1393.99,-74.5302 L 1394.05,-74 L 1394.05,-64.7024
 L 1394.39,-64.4804 L 1394.79,-64.1563 L 1395.16,-63.7921 L 1395.48,-63.3919 L 1395.76,-62.96 L 1395.99,-62.5011
 L 1396.18,-62.0204 L 1396.31,-61.5229 L 1396.39,-61.0143 L 1396.42,-60.5 L 1396.39,-59.9857 L 1396.31,-59.4771
 L 1396.18,-58.9796 L 1395.99,-58.4989 L 1395.76,-58.04 L 1395.48,-57.6081 L 1395.16,-57.2079 L 1394.79,-56.8437
 L 1394.39,-56.5196 L 1393.96,-56.2392 L 1393.5,-56.0054 L 1393.02,-55.8208 L 1392.52,-55.6875 L 1392.01,-55.607
 L 1391.5,-55.58 z
M 810.186,-20.3917 L 809.417,-20.7187 L 808.732,-21.1986 L 808.162,-21.8103 L 807.731,-22.5273 L 807.459,-23.3181
 L 807.357,-24.2165 L 807.357,-58 L 807.445,-58.8316 L 807.703,-59.627 L 808.121,-60.3511 L 808.681,-60.9726
 L 809.357,-61.4641 L 810.121,-61.8042 L 811.357,-62 L 909.585,-62 L 910.417,-61.9126 L 911.212,-61.6542
 L 911.936,-61.2361 L 912.557,-60.6765 L 913.049,-60 L 913.389,-59.2361 L 913.563,-58.4181 L 913.563,-57.5819
 L 913.389,-56.7639 L 913.049,-56 L 912.557,-55.3235 L 911.936,-54.7639 L 910.886,-54.2175 L 812.658,-20.4339
 L 811.843,-20.2461 L 811.007,-20.2318 z
M 699.014,-47.6603 L 698.199,-47.8482 L 679.68,-54.2175 L 678.63,-54.7639 L 678.008,-55.3235 L 677.517,-56
 L 677.177,-56.7639 L 677.003,-57.5819 L 677.003,-58.4181 L 677.177,-59.2361 L 677.517,-60 L 678.008,-60.6765
 L 678.63,-61.2361 L 679.354,-61.6542 L 680.149,-61.9126 L 680.981,-62 L 718.019,-62 L 719.19,-61.8248
 L 719.96,-61.4978 L 720.644,-61.0179 L 721.215,-60.4061 L 721.645,-59.6892 L 721.917,-58.8984 L 722.019,-58.0684
 L 721.945,-57.2354 L 721.701,-56.4358 L 721.295,-55.7045 L 720.746,-55.0736 L 720.078,-54.5706 L 719.32,-54.2175
 L 700.801,-47.8482 L 699.85,-47.646 z
M 587.157,-20.2461 L 586.342,-20.4339 L 488.114,-54.2175 L 487.064,-54.7639 L 486.443,-55.3235 L 485.951,-56
 L 485.611,-56.7639 L 485.437,-57.5819 L 485.437,-58.4181 L 485.611,-59.2361 L 485.951,-60 L 486.443,-60.6765
 L 487.064,-61.2361 L 487.788,-61.6542 L 488.583,-61.9126 L 489.415,-62 L 587.643,-62 L 588.879,-61.8042
 L 589.643,-61.4641 L 590.319,-60.9726 L 590.879,-60.3511 L 591.297,-59.627 L 591.555,-58.8316 L 591.643,-58
 L 591.643,-24.2165 L 591.541,-23.3181 L 591.269,-22.5273 L 590.838,-21.8103 L 590.268,-21.1986 L 589.583,-20.7187
 L 588.814,-20.3917 L 587.993,-20.2318 z
M 389.442,-20.2461 L 388.628,-20.4339 L 290.4,-54.2175 L 289.35,-54.7639 L 288.728,-55.3235 L 288.237,-56
 L 287.897,-56.7639 L 287.723,-57.5819 L 287.723,-58.4181 L 287.897,-59.2361 L 288.237,-60 L 288.728,-60.6765
 L 289.35,-61.2361 L 290.074,-61.6542 L 290.869,-61.9126 L 291.701,-62 L 389.929,-62 L 391.165,-61.8042
 L 391.929,-61.4641 L 392.605,-60.9726 L 393.165,-60.3511 L 393.583,-59.627 L 393.841,-58.8316 L 393.929,-58
 L 393.929,-24.2165 L 393.826,-23.3181 L 393.554,-22.5273 L 393.124,-21.8103 L 392.554,-21.1986 L 391.869,-20.7187
 L 391.099,-20.3917 L 390.279,-20.2318 z
M 1205.61,-20.3917 L 1204.85,-20.7187 L 1204.16,-21.1986 L 1203.59,-21.8103 L 1203.16,-22.5273 L 1202.89,-23.3181
 L 1202.79,-24.2165 L 1202.79,-58 L 1202.87,-58.8316 L 1203.13,-59.627 L 1203.55,-60.3511 L 1204.11,-60.9726
 L 1204.79,-61.4641 L 1205.55,-61.8042 L 1206.79,-62 L 1305.01,-62 L 1305.85,-61.9126 L 1306.64,-61.6542
 L 1307.36,-61.2361 L 1307.99,-60.6765 L 1308.48,-60 L 1308.82,-59.2361 L 1308.99,-58.4181 L 1308.99,-57.5819
 L 1308.82,-56.7639 L 1308.48,-56 L 1307.99,-55.3235 L 1307.36,-54.7639 L 1306.31,-54.2175 L 1208.09,-20.4339
 L 1207.27,-20.2461 L 1206.44,-20.2318 z
M 191.728,-20.2461 L 190.913,-20.4339 L 92.6856,-54.2175 L 91.6354,-54.7639 L 91.0139,-55.3235 L 90.5224,-56
 L 90.1823,-56.7639 L 90.0084,-57.5819 L 90.0084,-58.4181 L 90.1823,-59.2361 L 90.5224,-60 L 91.0139,-60.6765
 L 91.6354,-61.2361 L 92.3596,-61.6542 L 93.1549,-61.9126 L 93.9865,-62 L 192.214,-62 L 193.45,-61.8042
 L 194.214,-61.4641 L 194.891,-60.9726 L 195.45,-60.3511 L 195.868,-59.627 L 196.127,-58.8316 L 196.214,-58
 L 196.214,-24.2165 L 196.112,-23.3181 L 195.84,-22.5273 L 195.41,-21.8103 L 194.84,-21.1986 L 194.155,-20.7187
 L 193.385,-20.3917 L 192.564,-20.2318 z
M 1007.9,-20.3917 L 1007.13,-20.7187 L 1006.45,-21.1986 L 1005.88,-21.8103 L 1005.45,-22.5273 L 1005.17,-23.3181
 L 1005.07,-24.2165 L 1005.07,-58 L 1005.16,-58.8316 L 1005.42,-59.627 L 1005.84,-60.3511 L 1006.39,-60.9726
 L 1007.07,-61.4641 L 1007.84,-61.8042 L 1009.07,-62 L 1107.3,-62 L 1108.13,-61.9126 L 1108.93,-61.6542
 L 1109.65,-61.2361 L 1110.27,-60.6765 L 1110.76,-60 L 1111.1,-59.2361 L 1111.28,-58.4181 L 1111.28,-57.5819
 L 1111.1,-56.7639 L 1110.76,-56 L 1110.27,-55.3235 L 1109.65,-54.7639 L 1108.6,-54.2175 L 1010.37,-20.4339
 L 1009.56,-20.2461 L 1008.72,-20.2318 z
M 613.225,-18.1237 L 612.407,-18.2976 L 611.643,-18.6377 L 610.966,-19.1292 L 610.407,-19.7507 L 609.989,-20.4749
 L 609.73,-21.2702 L 609.643,-22.1018 L 609.643,-57.8982 L 609.745,-58.7966 L 610.017,-59.5874 L 610.447,-60.3043
 L 611.018,-60.9161 L 611.702,-61.396 L 612.472,-61.723 L 613.293,-61.8828 L 614.129,-61.8685 L 614.944,-61.6807
 L 666.984,-43.7825 L 667.623,-43.4978 L 668.308,-43.0179 L 668.878,-42.4061 L 669.309,-41.6892 L 669.581,-40.8984
 L 669.682,-40.0684 L 669.609,-39.2354 L 669.364,-38.4358 L 668.959,-37.7045 L 668.41,-37.0736 L 667.742,-36.5706
 L 666.984,-36.2175 L 614.944,-18.3193 L 614.061,-18.1237 z
M 784.871,-18.1314 L 784.056,-18.3193 L 732.016,-36.2175 L 731.376,-36.5022 L 730.692,-36.9821 L 730.122,-37.5939
 L 729.691,-38.3108 L 729.419,-39.1016 L 729.318,-39.9316 L 729.391,-40.7646 L 729.636,-41.5642 L 730.041,-42.2955
 L 730.59,-42.9264 L 731.258,-43.4294 L 732.016,-43.7825 L 784.056,-61.6807 L 784.939,-61.8763 L 785.775,-61.8763
 L 786.593,-61.7024 L 787.357,-61.3623 L 788.034,-60.8708 L 788.593,-60.2493 L 789.011,-59.5252 L 789.27,-58.7299
 L 789.357,-57.8982 L 789.357,-22.1018 L 789.255,-21.2034 L 788.983,-20.4126 L 788.553,-19.6957 L 787.982,-19.0839
 L 787.298,-18.604 L 786.528,-18.277 L 785.707,-18.1171 z
M 218.214,-18 L 216.978,-18.1958 L 216.214,-18.5359 L 215.538,-19.0274 L 214.978,-19.6489 L 214.56,-20.373
 L 214.302,-21.1684 L 214.214,-22 L 214.214,-55.7835 L 214.316,-56.6819 L 214.588,-57.4727 L 215.019,-58.1897
 L 215.589,-58.8014 L 216.274,-59.2813 L 217.043,-59.6083 L 217.864,-59.7682 L 218.7,-59.7539 L 219.515,-59.5661
 L 317.743,-25.7825 L 318.793,-25.2361 L 319.415,-24.6765 L 319.906,-24 L 320.246,-23.2361 L 320.42,-22.4181
 L 320.42,-21.5819 L 320.246,-20.7639 L 319.906,-20 L 319.415,-19.3235 L 318.793,-18.7639 L 318.069,-18.3458
 L 317.274,-18.0874 L 316.442,-18 z
M 415.929,-18 L 414.692,-18.1958 L 413.929,-18.5359 L 413.252,-19.0274 L 412.692,-19.6489 L 412.274,-20.373
 L 412.016,-21.1684 L 411.929,-22 L 411.929,-55.7835 L 412.031,-56.6819 L 412.303,-57.4727 L 412.733,-58.1897
 L 413.303,-58.8014 L 413.988,-59.2813 L 414.758,-59.6083 L 415.579,-59.7682 L 416.415,-59.7539 L 417.229,-59.5661
 L 515.457,-25.7825 L 516.507,-25.2361 L 517.129,-24.6765 L 517.62,-24 L 517.961,-23.2361 L 518.134,-22.4181
 L 518.134,-21.5819 L 517.961,-20.7639 L 517.62,-20 L 517.129,-19.3235 L 516.507,-18.7639 L 515.783,-18.3458
 L 514.988,-18.0874 L 514.156,-18 z
M 884.844,-18 L 884.012,-18.0874 L 883.217,-18.3458 L 882.493,-18.7639 L 881.871,-19.3235 L 881.38,-20
 L 881.039,-20.7639 L 880.866,-21.5819 L 880.866,-22.4181 L 881.039,-23.2361 L 881.38,-24 L 881.871,-24.6765
 L 882.493,-25.2361 L 883.543,-25.7825 L 981.77,-59.5661 L 982.585,-59.7539 L 983.421,-59.7682 L 984.242,-59.6083
 L 985.012,-59.2813 L 985.697,-58.8014 L 986.267,-58.1897 L 986.697,-57.4727 L 986.969,-56.6819 L 987.071,-55.7835
 L 987.071,-22 L 986.984,-21.1684 L 986.726,-20.373 L 986.307,-19.6489 L 985.748,-19.0274 L 985.071,-18.5359
 L 984.307,-18.1958 L 983.071,-18 z
M 1082.56,-18 L 1081.73,-18.0874 L 1080.93,-18.3458 L 1080.21,-18.7639 L 1079.59,-19.3235 L 1079.09,-20
 L 1078.75,-20.7639 L 1078.58,-21.5819 L 1078.58,-22.4181 L 1078.75,-23.2361 L 1079.09,-24 L 1079.59,-24.6765
 L 1080.21,-25.2361 L 1081.26,-25.7825 L 1179.48,-59.5661 L 1180.3,-59.7539 L 1181.14,-59.7682 L 1181.96,-59.6083
 L 1182.73,-59.2813 L 1183.41,-58.8014 L 1183.98,-58.1897 L 1184.41,-57.4727 L 1184.68,-56.6819 L 1184.79,-55.7835
 L 1184.79,-22 L 1184.7,-21.1684 L 1184.44,-20.373 L 1184.02,-19.6489 L 1183.46,-19.0274 L 1182.79,-18.5359
 L 1182.02,-18.1958 L 1180.79,-18 z
M 22,-18 L 20.7639,-18.1958 L 20,-18.5359 L 19.3235,-19.0274 L 18.7639,-19.6489 L 18.3458,-20.373
 L 18.0874,-21.1684 L 18,-22 L 18,-55.2676 L 18.1022,-56.166 L 18.3742,-56.9568 L 18.8046,-57.6738
 L 19.3747,-58.2855 L 20.0595,-58.7654 L 20.8292,-59.0924 L 21.65,-59.2523 L 22.4861,-59.238 L 23.3009,-59.0502
 L 120.029,-25.7825 L 121.079,-25.2361 L 121.7,-24.6765 L 122.192,-24 L 122.532,-23.2361 L 122.706,-22.4181
 L 122.706,-21.5819 L 122.532,-20.7639 L 122.192,-20 L 121.7,-19.3235 L 121.079,-18.7639 L 120.355,-18.3458
 L 119.559,-18.0874 L 118.728,-18 z
M 1280.27,-18 L 1279.44,-18.0874 L 1278.65,-18.3458 L 1277.92,-18.7639 L 1277.3,-19.3235 L 1276.81,-20
 L 1276.47,-20.7639 L 1276.29,-21.5819 L 1276.29,-22.4181 L 1276.47,-23.2361 L 1276.81,-24 L 1277.3,-24.6765
 L 1277.92,-25.2361 L 1278.97,-25.7825 L 1375.7,-59.0502 L 1376.51,-59.238 L 1377.35,-59.2523 L 1378.17,-59.0924
 L 1378.94,-58.7654 L 1379.63,-58.2855 L 1380.2,-57.6738 L 1380.63,-56.9568 L 1380.9,-56.166 L 1381,-55.2676
 L 1381,-22 L 1380.91,-21.1684 L 1380.65,-20.373 L 1380.24,-19.6489 L 1379.68,-19.0274 L 1379,-18.5359
 L 1378.24,-18.1958 L 1377,-18 z
M 680.981,-18 L 679.81,-18.1752 L 679.04,-18.5022 L 678.356,-18.9821 L 677.785,-19.5939 L 677.355,-20.3108
 L 677.083,-21.1016 L 676.981,-21.9316 L 677.055,-22.7646 L 677.299,-23.5642 L 677.705,-24.2955 L 678.254,-24.9264
 L 678.922,-25.4294 L 679.68,-25.7825 L 698.199,-32.1518 L 699.15,-32.354 L 699.986,-32.3397 L 700.801,-32.1518
 L 719.32,-25.7825 L 720.37,-25.2361 L 720.992,-24.6765 L 721.483,-24 L 721.823,-23.2361 L 721.997,-22.4181
 L 721.997,-21.5819 L 721.823,-20.7639 L 721.483,-20 L 720.992,-19.3235 L 720.37,-18.7639 L 719.646,-18.3458
 L 718.851,-18.0874 L 718.019,-18 z
" stroke="black" fill="lightgray" stroke-width="0.5"/>
</svg>
