<?xml version="1.0" standalone="no"?>
<!DOCTYPE svg PUBLIC "-//W3C//DTD SVG 1.1//EN" "http://www.w3.org/Graphics/SVG/1.1/DTD/svg11.dtd">
<svg width="1397mm" height="80mm" viewBox="0 -80 1397 80" xmlns="http://www.w3.org/2000/svg" version="1.1">
<title>OpenSCAD Model</title>
<path d="
M 1397,-80 L 0,-80 L 0,-0 L 4.95,-0 L 4.95,-6 L 5.00572,-6.53017
 L 5.17046,-7.03717 L 5.437,-7.49884 L 5.79372,-7.895 L 6.22499,-8.20836 L 6.71201,-8.42519 L 7.23344,-8.53603
 L 7.76654,-8.53603 L 8.28798,-8.42519 L 8.77499,-8.20836 L 9.20627,-7.895 L 9.56299,-7.49884 L 9.82953,-7.03717
 L 9.99426,-6.53017 L 10.05,-6 L 10.05,-0 L 202.379,-0 L 202.379,-6 L 202.434,-6.53017
 L 202.599,-7.03717 L 202.866,-7.49884 L 203.222,-7.895 L 203.654,-8.20836 L 204.141,-8.42519 L 204.662,-8.53603
 L 205.195,-8.53603 L 205.717,-8.42519 L 206.204,-8.20836 L 206.635,-7.895 L 206.992,-7.49884 L 207.258,-7.03717
 L 207.423,-6.53017 L 207.479,-6 L 207.479,-0 L 399.807,-0 L 399.807,-6 L 399.863,-6.53017
 L 400.028,-7.03717 L 400.294,-7.49884 L 400.651,-7.895 L 401.082,-8.20836 L 401.569,-8.42519 L 402.091,-8.53603
 L 402.624,-8.53603 L 403.145,-8.42519 L 403.632,-8.20836 L 404.063,-7.895 L 404.42,-7.49884 L 404.687,-7.03717
 L 404.851,-6.53017 L 404.907,-6 L 404.907,-0 L 597.236,-0 L 597.236,-6 L 597.291,-6.53017
 L 597.456,-7.03717 L 597.723,-7.49884 L 598.079,-7.895 L 598.511,-8.20836 L 598.998,-8.42519 L 599.519,-8.53603
 L 600.052,-8.53603 L 600.574,-8.42519 L 601.061,-8.20836 L 601.492,-7.895 L 601.849,-7.49884 L 602.115,-7.03717
 L 602.28,-6.53017 L 602.336,-6 L 602.336,-0 L 794.664,-0 L 794.664,-6 L 794.72,-6.53017
 L 794.885,-7.03717 L 795.151,-7.49884 L 795.508,-7.895 L 795.939,-8.20836 L 796.426,-8.42519 L 796.948,-8.53603
 L 797.481,-8.53603 L 798.002,-8.42519 L 798.489,-8.20836 L 798.921,-7.895 L 799.277,-7.49884 L 799.544,-7.03717
 L 799.709,-6.53017 L 799.764,-6 L 799.764,-0 L 992.093,-0 L 992.093,-6 L 992.149,-6.53017
 L 992.313,-7.03717 L 992.58,-7.49884 L 992.937,-7.895 L 993.368,-8.20836 L 993.855,-8.42519 L 994.376,-8.53603
 L 994.909,-8.53603 L 995.431,-8.42519 L 995.918,-8.20836 L 996.349,-7.895 L 996.706,-7.49884 L 996.972,-7.03717
 L 997.137,-6.53017 L 997.193,-6 L 997.193,-0 L 1189.52,-0 L 1189.52,-6 L 1189.58,-6.53017
 L 1189.74,-7.03717 L 1190.01,-7.49884 L 1190.37,-7.895 L 1190.8,-8.20836 L 1191.28,-8.42519 L 1191.8,-8.53603
 L 1192.34,-8.53603 L 1192.86,-8.42519 L 1193.35,-8.20836 L 1193.78,-7.895 L 1194.13,-7.49884 L 1194.4,-7.03717
 L 1194.57,-6.53017 L 1194.62,-6 L 1194.62,-0 L 1386.95,-0 L 1386.95,-6 L 1387.01,-6.53017
 L 1387.17,-7.03717 L 1387.44,-7.49884 L 1387.79,-7.895 L 1388.22,-8.20836 L 1388.71,-8.42519 L 1389.23,-8.53603
 L 1389.77,-8.53603 L 1390.29,-8.42519 L 1390.77,-8.20836 L 1391.21,-7.895 L 1391.56,-7.49884 L 1391.83,-7.03717
 L 1391.99,-6.53017 L 1392.05,-6 L 1392.05,-0 L 1397,-0 z
M 6.98573,-55.607 L 6.47708,-55.6875 L 5.97964,-55.8208 L 5.49887,-56.0054 L 5.04001,-56.2392 L 4.60811,-56.5196
 L 4.20789,-56.8437 L 3.84373,-57.2079 L 3.51964,-57.6081 L 3.23917,-58.04 L 3.00537,-58.4989 L 2.82082,-58.9796
 L 2.68752,-59.4771 L 2.60696,-59.9857 L 2.58,-60.5 L 2.60696,-61.0143 L 2.68752,-61.5229 L 2.82082,-62.0204
 L 3.00537,-62.5011 L 3.23917,-62.96 L 3.51964,-63.3919 L 3.84373,-63.7921 L 4.20789,-64.1563 L 4.60811,-64.4804
 L 4.95001,-64.7024 L 4.95001,-74 L 5.00574,-74.5302 L 5.17047,-75.0372 L 5.43701,-75.4988 L 5.79373,-75.895
 L 6.22501,-76.2084 L 6.71202,-76.4252 L 7.23346,-76.536 L 7.76654,-76.536 L 8.28798,-76.4252 L 8.77499,-76.2084
 L 9.20627,-75.895 L 9.56299,-75.4988 L 9.82953,-75.0372 L 9.99426,-74.5302 L 10.05,-74 L 10.05,-64.7024
 L 10.3919,-64.4804 L 10.7921,-64.1563 L 11.1563,-63.7921 L 11.4804,-63.3919 L 11.7608,-62.96 L 11.9946,-62.5011
 L 12.1792,-62.0204 L 12.3125,-61.5229 L 12.393,-61.0143 L 12.42,-60.5 L 12.393,-59.9857 L 12.3125,-59.4771
 L 12.1792,-58.9796 L 11.9946,-58.4989 L 11.7608,-58.04 L 11.4804,-57.6081 L 11.1563,-57.2079 L 10.7921,-56.8437
 L 10.3919,-56.5196 L 9.95999,-56.2392 L 9.50113,-56.0054 L 9.02036,-55.8208 L 8.52292,-55.6875 L 8.01427,-55.607
 L 7.5,-55.58 z
M 204.414,-55.607 L 203.906,-55.6875 L 203.408,-55.8208 L 202.927,-56.0054 L 202.469,-56.2392 L 202.037,-56.5196
 L 201.636,-56.8437 L 201.272,-57.2079 L 200.948,-57.6081 L 200.668,-58.04 L 200.434,-58.4989 L 200.249,-58.9796
 L 200.116,-59.4771 L 200.036,-59.9857 L 200.009,-60.5 L 200.036,-61.0143 L 200.116,-61.5229 L 200.249,-62.0204
 L 200.434,-62.5011 L 200.668,-62.96 L 200.948,-63.3919 L 201.272,-63.7921 L 201.636,-64.1563 L 202.037,-64.4804
 L 202.379,-64.7024 L 202.379,-74 L 202.434,-74.5302 L 202.599,-75.0372 L 202.866,-75.4988 L 203.222,-75.895
 L 203.654,-76.2084 L 204.141,-76.4252 L 204.662,-76.536 L 205.195,-76.536 L 205.717,-76.4252 L 206.204,-76.2084
 L 206.635,-75.895 L 206.992,-75.4988 L 207.258,-75.0372 L 207.423,-74.5302 L 207.479,-74 L 207.479,-64.7024
 L 207.82,-64.4804 L 208.221,-64.1563 L 208.585,-63.7921 L 208.909,-63.3919 L 209.189,-62.96 L 209.423,-62.5011
 L 209.608,-62.0204 L 209.741,-61.5229 L 209.822,-61.0143 L 209.849,-60.5 L 209.822,-59.9857 L 209.741,-59.4771
 L 209.608,-58.9796 L 209.423,-58.4989 L 209.189,-58.04 L 208.909,-57.6081 L 208.585,-57.2079 L 208.221,-56.8437
 L 207.82,-56.5196 L 207.389,-56.2392 L 206.93,-56.0054 L 206.449,-55.8208 L 205.951,-55.6875 L 205.443,-55.607
 L 204.929,-55.58 z
M 401.843,-55.607 L 401.334,-55.6875 L 400.837,-55.8208 L 400.356,-56.0054 L 399.897,-56.2392 L 399.465,-56.5196
 L 399.065,-56.8437 L 398.701,-57.2079 L 398.377,-57.6081 L 398.096,-58.04 L 397.863,-58.4989 L 397.678,-58.9796
 L 397.545,-59.4771 L 397.464,-59.9857 L 397.437,-60.5 L 397.464,-61.0143 L 397.545,-61.5229 L 397.678,-62.0204
 L 397.863,-62.5011 L 398.096,-62.96 L 398.377,-63.3919 L 398.701,-63.7921 L 399.065,-64.1563 L 399.465,-64.4804
 L 399.807,-64.7024 L 399.807,-74 L 399.863,-74.5302 L 400.028,-75.0372 L 400.294,-75.4988 L 400.651,-75.895
 L 401.082,-76.2084 L 401.569,-76.4252 L 402.091,-76.536 L 402.624,-76.536 L 403.145,-76.4252 L 403.632,-76.2084
 L 404.063,-75.895 L 404.42,-75.4988 L 404.687,-75.0372 L 404.851,-74.5302 L 404.907,-74 L 404.907,-64.7024
 L 405.249,-64.4804 L 405.649,-64.1563 L 406.013,-63.7921 L 406.337,-63.3919 L 406.618,-62.96 L 406.852,-62.5011
 L 407.036,-62.0204 L 407.17,-61.5229 L 407.25,-61.0143 L 407.277,-60.5 L 407.25,-59.9857 L 407.17,-59.4771
 L 407.036,-58.9796 L 406.852,-58.4989 L 406.618,-58.04 L 406.337,-57.6081 L 406.013,-57.2079 L 405.649,-56.8437
 L 405.249,-56.5196 L 404.817,-56.2392 L 404.358,-56.0054 L 403.877,-55.8208 L 403.38,-55.6875 L 402.871,-55.607
 L 402.357,-55.58 z
M 599.271,-55.607 L 598.763,-55.6875 L 598.265,-55.8208 L 597.785,-56.0054 L 597.326,-56.2392 L 596.894,-56.5196
 L 596.494,-56.8437 L 596.129,-57.2079 L 595.805,-57.6081 L 595.525,-58.04 L 595.291,-58.4989 L 595.107,-58.9796
 L 594.973,-59.4771 L 594.893,-59.9857 L 594.866,-60.5 L 594.893,-61.0143 L 594.973,-61.5229 L 595.107,-62.0204
 L 595.291,-62.5011 L 595.525,-62.96 L 595.805,-63.3919 L 596.129,-63.7921 L 596.494,-64.1563 L 596.894,-64.4804
 L 597.236,-64.7024 L 597.236,-74 L 597.291,-74.5302 L 597.456,-75.0372 L 597.723,-75.4988 L 598.079,-75.895
 L 598.511,-76.2084 L 598.998,-76.4252 L 599.519,-76.536 L 600.052,-76.536 L 600.574,-76.4252 L 601.061,-76.2084
 L 601.492,-75.895 L 601.849,-75.4988 L 602.115,-75.0372 L 602.28,-74.5302 L 602.336,-74 L 602.336,-64.7024
 L 602.678,-64.4804 L 603.078,-64.1563 L 603.442,-63.7921 L 603.766,-63.3919 L 604.047,-62.96 L 604.28,-62.5011
 L 604.465,-62.0204 L 604.598,-61.5229 L 604.679,-61.0143 L 604.706,-60.5 L 604.679,-59.9857 L 604.598,-59.4771
 L 604.465,-58.9796 L 604.28,-58.4989 L 604.047,-58.04 L 603.766,-57.6081 L 603.442,-57.2079 L 603.078,-56.8437
 L 602.678,-56.5196 L 602.246,-56.2392 L 601.787,-56.0054 L 601.306,-55.8208 L 600.809,-55.6875 L 600.3,-55.607
 L 599.786,-55.58 z
M 796.7,-55.607 L 796.191,-55.6875 L 795.694,-55.8208 L 795.213,-56.0054 L 794.754,-56.2392 L 794.322,-56.5196
 L 793.922,-56.8437 L 793.558,-57.2079 L 793.234,-57.6081 L 792.953,-58.04 L 792.72,-58.4989 L 792.535,-58.9796
 L 792.402,-59.4771 L 792.321,-59.9857 L 792.294,-60.5 L 792.321,-61.0143 L 792.402,-61.5229 L 792.535,-62.0204
 L 792.72,-62.5011 L 792.953,-62.96 L 793.234,-63.3919 L 793.558,-63.7921 L 793.922,-64.1563 L 794.322,-64.4804
 L 794.664,-64.7024 L 794.664,-74 L 794.72,-74.5302 L 794.885,-75.0372 L 795.151,-75.4988 L 795.508,-75.895
 L 795.939,-76.2084 L 796.426,-76.4252 L 796.948,-76.536 L 797.481,-76.536 L 798.002,-76.4252 L 798.489,-76.2084
 L 798.921,-75.895 L 799.277,-75.4988 L 799.544,-75.0372 L 799.709,-74.5302 L 799.764,-74 L 799.764,-64.7024
 L 800.106,-64.4804 L 800.506,-64.1563 L 800.871,-63.7921 L 801.195,-63.3919 L 801.475,-62.96 L 801.709,-62.5011
 L 801.893,-62.0204 L 802.027,-61.5229 L 802.107,-61.0143 L 802.134,-60.5 L 802.107,-59.9857 L 802.027,-59.4771
 L 801.893,-58.9796 L 801.709,-58.4989 L 801.475,-58.04 L 801.195,-57.6081 L 800.871,-57.2079 L 800.506,-56.8437
 L 800.106,-56.5196 L 799.674,-56.2392 L 799.215,-56.0054 L 798.735,-55.8208 L 798.237,-55.6875 L 797.729,-55.607
 L 797.214,-55.58 z
M 994.129,-55.607 L 993.62,-55.6875 L 993.122,-55.8208 L 992.642,-56.0054 L 992.183,-56.2392 L 991.751,-56.5196
 L 991.351,-56.8437 L 990.987,-57.2079 L 990.662,-57.6081 L 990.382,-58.04 L 990.148,-58.4989 L 989.964,-58.9796
 L 989.83,-59.4771 L 989.75,-59.9857 L 989.723,-60.5 L 989.75,-61.0143 L 989.83,-61.5229 L 989.964,-62.0204
 L 990.148,-62.5011 L 990.382,-62.96 L 990.662,-63.3919 L 990.987,-63.7921 L 991.351,-64.1563 L 991.751,-64.4804
 L 992.093,-64.7024 L 992.093,-74 L 992.149,-74.5302 L 992.313,-75.0372 L 992.58,-75.4988 L 992.937,-75.895
 L 993.368,-76.2084 L 993.855,-76.4252 L 994.376,-76.536 L 994.909,-76.536 L 995.431,-76.4252 L 995.918,-76.2084
 L 996.349,-75.895 L 996.706,-75.4988 L 996.972,-75.0372 L 997.137,-74.5302 L 997.193,-74 L 997.193,-64.7024
 L 997.535,-64.4804 L 997.935,-64.1563 L 998.299,-63.7921 L 998.623,-63.3919 L 998.904,-62.96 L 999.137,-62.5011
 L 999.322,-62.0204 L 999.455,-61.5229 L 999.536,-61.0143 L 999.563,-60.5 L 999.536,-59.9857 L 999.455,-59.4771
 L 999.322,-58.9796 L 999.137,-58.4989 L 998.904,-58.04 L 998.623,-57.6081 L 998.299,-57.2079 L 997.935,-56.8437
 L 997.535,-56.5196 L 997.103,-56.2392 L 996.644,-56.0054 L 996.163,-55.8208 L 995.666,-55.6875 L 995.157,-55.607
 L 994.643,-55.58 z
M 1191.56,-55.607 L 1191.05,-55.6875 L 1190.55,-55.8208 L 1190.07,-56.0054 L 1189.61,-56.2392 L 1189.18,-56.5196
 L 1188.78,-56.8437 L 1188.42,-57.2079 L 1188.09,-57.6081 L 1187.81,-58.04 L 1187.58,-58.4989 L 1187.39,-58.9796
 L 1187.26,-59.4771 L 1187.18,-59.9857 L 1187.15,-60.5 L 1187.18,-61.0143 L 1187.26,-61.5229 L 1187.39,-62.0204
 L 1187.58,-62.5011 L 1187.81,-62.96 L 1188.09,-63.3919 L 1188.42,-63.7921 L 1188.78,-64.1563 L 1189.18,-64.4804
 L 1189.52,-64.7024 L 1189.52,-74 L 1189.58,-74.5302 L 1189.74,-75.0372 L 1190.01,-75.4988 L 1190.37,-75.895
 L 1190.8,-76.2084 L 1191.28,-76.4252 L 1191.8,-76.536 L 1192.34,-76.536 L 1192.86,-76.4252 L 1193.35,-76.2084
 L 1193.78,-75.895 L 1194.13,-75.4988 L 1194.4,-75.0372 L 1194.57,-74.5302 L 1194.62,-74 L 1194.62,-64.7024
 L 1194.96,-64.4804 L 1195.36,-64.1563 L 1195.73,-63.7921 L 1196.05,-63.3919 L 1196.33,-62.96 L 1196.57,-62.5011
 L 1196.75,-62.0204 L 1196.88,-61.5229 L 1196.96,-61.0143 L 1196.99,-60.5 L 1196.96,-59.9857 L 1196.88,-59.4771
 L 1196.75,-58.9796 L 1196.57,-58.4989 L 1196.33,-58.04 L 1196.05,-57.6081 L 1195.73,-57.2079 L 1195.36,-56.8437
 L 1194.96,-56.5196 L 1194.53,-56.2392 L 1194.07,-56.0054 L 1193.59,-55.8208 L 1193.09,-55.6875 L 1192.59,-55.607
 L 1192.07,-55.58 z
M 1388.99,-55.607 L 1388.48,-55.6875 L 1387.98,-55.8208 L 1387.5,-56.0054 L 1387.04,-56.2392 L 1386.61,-56.5196
 L 1386.21,-56.8437 L 1385.84,-57.2079 L 1385.52,-57.6081 L 1385.24,-58.04 L 1385.01,-58.4989 L 1384.82,-58.9796
 L 1384.69,-59.4771 L 1384.61,-59.9857 L 1384.58,-60.5 L 1384.61,-61.0143 L 1384.69,-61.5229 L 1384.82,-62.0204
 L 1385.01,-62.5011 L 1385.24,-62.96 L 1385.52,-63.3919 L 1385.84,-63.7921 L 1386.21,-64.1563 L 1386.61,-64.4804
 L 1386.95,-64.7024 L 1386.95,-74 L 1387.01,-74.5302 L 1387.17,-75.0372 L 1387.44,-75.4988 L 1387.79,-75.895
 L 1388.23,-76.2084 L 1388.71,-76.4252 L 1389.23,-76.536 L 1389.77,-76.536 L 1390.29,-76.4252 L 1390.77,-76.2084
 L 1391.21,-75.895 L 1391.56,-75.4988 L 1391.83,-75.0372 L 1391.99,-74.5302 L 1392.05,-74 L 1392.05,-64.7024
 L 1392.39,-64.4804 L 1392.79,-64.1563 L 1393.16,-63.7921 L 1393.48,-63.3919 L 1393.76,-62.96 L 1393.99,-62.5011
 L 1394.18,-62.0204 L 1394.31,-61.5229 L 1394.39,-61.0143 L 1394.42,-60.5 L 1394.39,-59.9857 L 1394.31,-59.4771
 L 1394.18,-58.9796 L 1393.99,-58.4989 L 1393.76,-58.04 L 1393.48,-57.6081 L 1393.16,-57.2079 L 1392.79,-56.8437
 L 1392.39,-56.5196 L 1391.96,-56.2392 L 1391.5,-56.0054 L 1391.02,-55.8208 L 1390.52,-55.6875 L 1390.01,-55.607
 L 1389.5,-55.58 z
M 809.045,-20.3996 L 808.275,-20.7263 L 807.59,-21.2059 L 807.02,-21.8174 L 806.589,-22.5341 L 806.317,-23.3248
 L 806.214,-24.2249 L 806.214,-58 L 806.302,-58.8316 L 806.56,-59.627 L 806.978,-60.3511 L 807.538,-60.9726
 L 808.214,-61.4641 L 808.978,-61.8042 L 810.214,-62 L 908.275,-62 L 909.107,-61.9126 L 909.902,-61.6542
 L 910.627,-61.2361 L 911.248,-60.6765 L 911.74,-60 L 912.08,-59.2361 L 912.254,-58.4181 L 912.254,-57.5819
 L 912.08,-56.7639 L 911.74,-56 L 911.248,-55.3235 L 910.627,-54.7639 L 909.578,-54.218 L 811.517,-20.443
 L 810.702,-20.2548 L 809.866,-20.2401 z
M 698.012,-47.6622 L 697.197,-47.8504 L 678.71,-54.218 L 677.661,-54.7639 L 677.04,-55.3235 L 676.548,-56
 L 676.208,-56.7639 L 676.034,-57.5819 L 676.034,-58.4181 L 676.208,-59.2361 L 676.548,-60 L 677.04,-60.6765
 L 677.661,-61.2361 L 678.386,-61.6542 L 679.181,-61.9126 L 680.012,-62 L 716.987,-62 L 718.157,-61.8253
 L 718.926,-61.4987 L 719.611,-61.0191 L 720.182,-60.4075 L 720.613,-59.6908 L 720.885,-58.9002 L 720.987,-58.0702
 L 720.914,-57.2371 L 720.67,-56.4374 L 720.264,-55.706 L 719.716,-55.0748 L 719.048,-54.5715 L 718.29,-54.218
 L 699.803,-47.8504 L 698.848,-47.6476 z
M 586.298,-20.2548 L 585.483,-20.443 L 487.422,-54.218 L 486.373,-54.7639 L 485.752,-55.3235 L 485.26,-56
 L 484.92,-56.7639 L 484.746,-57.5819 L 484.746,-58.4181 L 484.92,-59.2361 L 485.26,-60 L 485.752,-60.6765
 L 486.373,-61.2361 L 487.098,-61.6542 L 487.893,-61.9126 L 488.724,-62 L 586.786,-62 L 588.022,-61.8042
 L 588.786,-61.4641 L 589.462,-60.9726 L 590.022,-60.3511 L 590.44,-59.627 L 590.698,-58.8316 L 590.786,-58
 L 590.786,-24.2249 L 590.683,-23.3248 L 590.411,-22.5341 L 589.98,-21.8174 L 589.41,-21.2059 L 588.725,-20.7263
 L 587.955,-20.3996 L 587.134,-20.2401 z
M 388.869,-20.2548 L 388.055,-20.443 L 289.993,-54.218 L 288.945,-54.7639 L 288.323,-55.3235 L 287.832,-56
 L 287.492,-56.7639 L 287.318,-57.5819 L 287.318,-58.4181 L 287.492,-59.2361 L 287.832,-60 L 288.323,-60.6765
 L 288.945,-61.2361 L 289.669,-61.6542 L 290.464,-61.9126 L 291.296,-62 L 389.357,-62 L 390.593,-61.8042
 L 391.357,-61.4641 L 392.034,-60.9726 L 392.593,-60.3511 L 393.011,-59.627 L 393.27,-58.8316 L 393.357,-58
 L 393.357,-24.2249 L 393.255,-23.3248 L 392.982,-22.5341 L 392.551,-21.8174 L 391.981,-21.2059 L 391.296,-20.7263
 L 390.526,-20.3996 L 389.705,-20.2401 z
M 1203.9,-20.3996 L 1203.13,-20.7263 L 1202.45,-21.2059 L 1201.88,-21.8174 L 1201.45,-22.5341 L 1201.17,-23.3248
 L 1201.07,-24.2249 L 1201.07,-58 L 1201.16,-58.8316 L 1201.42,-59.627 L 1201.84,-60.3511 L 1202.39,-60.9726
 L 1203.07,-61.4641 L 1203.84,-61.8042 L 1205.07,-62 L 1303.13,-62 L 1303.96,-61.9126 L 1304.76,-61.6542
 L 1305.48,-61.2361 L 1306.11,-60.6765 L 1306.6,-60 L 1306.94,-59.2361 L 1307.11,-58.4181 L 1307.11,-57.5819
 L 1306.94,-56.7639 L 1306.6,-56 L 1306.11,-55.3235 L 1305.48,-54.7639 L 1304.44,-54.218 L 1206.37,-20.443
 L 1205.56,-20.2548 L 1204.72,-20.2401 z
M 191.441,-20.2548 L 190.626,-20.443 L 92.5647,-54.218 L 91.5162,-54.7639 L 90.8948,-55.3235 L 90.4033,-56
 L 90.0631,-56.7639 L 89.8893,-57.5819 L 89.8893,-58.4181 L 90.0631,-59.2361 L 90.4033,-60 L 90.8948,-60.6765
 L 91.5162,-61.2361 L 92.2404,-61.6542 L 93.0357,-61.9126 L 93.8674,-62 L 191.929,-62 L 193.165,-61.8042
 L 193.929,-61.4641 L 194.605,-60.9726 L 195.165,-60.3511 L 195.583,-59.627 L 195.841,-58.8316 L 195.929,-58
 L 195.929,-24.2249 L 195.826,-23.3248 L 195.554,-22.5341 L 195.123,-21.8174 L 194.553,-21.2059 L 193.867,-20.7263
 L 193.098,-20.3996 L 192.277,-20.2401 z
M 1006.47,-20.3996 L 1005.7,-20.7263 L 1005.02,-21.2059 L 1004.45,-21.8174 L 1004.02,-22.5341 L 1003.75,-23.3248
 L 1003.64,-24.2249 L 1003.64,-58 L 1003.73,-58.8316 L 1003.99,-59.627 L 1004.41,-60.3511 L 1004.97,-60.9726
 L 1005.64,-61.4641 L 1006.41,-61.8042 L 1007.64,-62 L 1105.7,-62 L 1106.54,-61.9126 L 1107.33,-61.6542
 L 1108.06,-61.2361 L 1108.68,-60.6765 L 1109.17,-60 L 1109.51,-59.2361 L 1109.68,-58.4181 L 1109.68,-57.5819
 L 1109.51,-56.7639 L 1109.17,-56 L 1108.68,-55.3235 L 1108.06,-54.7639 L 1107.01,-54.218 L 1008.95,-20.443
 L 1008.13,-20.2548 L 1007.29,-20.2401 z
M 612.368,-18.1319 L 611.55,-18.3057 L 610.786,-18.6459 L 610.109,-19.1374 L 609.55,-19.7588 L 609.132,-20.483
 L 608.873,-21.2783 L 608.786,-22.11 L 608.786,-57.89 L 608.888,-58.7902 L 609.161,-59.5808 L 609.591,-60.2976
 L 610.162,-60.9091 L 610.847,-61.3887 L 611.617,-61.7153 L 612.437,-61.8748 L 613.274,-61.8602 L 614.088,-61.672
 L 666.03,-43.782 L 666.666,-43.4987 L 667.351,-43.0191 L 667.921,-42.4075 L 668.352,-41.6908 L 668.624,-40.9002
 L 668.726,-40.0702 L 668.654,-39.2371 L 668.409,-38.4374 L 668.004,-37.706 L 667.455,-37.0748 L 666.787,-36.5715
 L 666.03,-36.218 L 614.088,-18.328 L 613.204,-18.1319 z
M 783.726,-18.1398 L 782.912,-18.328 L 730.97,-36.218 L 730.334,-36.5013 L 729.649,-36.9809 L 729.079,-37.5925
 L 728.648,-38.3092 L 728.376,-39.0998 L 728.274,-39.9298 L 728.346,-40.7629 L 728.591,-41.5626 L 728.996,-42.294
 L 729.545,-42.9252 L 730.213,-43.4285 L 730.97,-43.782 L 782.912,-61.672 L 783.796,-61.8681 L 784.632,-61.8681
 L 785.45,-61.6943 L 786.214,-61.3541 L 786.891,-60.8626 L 787.45,-60.2412 L 787.868,-59.517 L 788.127,-58.7217
 L 788.214,-57.89 L 788.214,-22.11 L 788.112,-21.2098 L 787.839,-20.4192 L 787.409,-19.7024 L 786.838,-19.0909
 L 786.153,-18.6113 L 785.383,-18.2846 L 784.563,-18.1251 z
M 217.929,-18 L 216.692,-18.1958 L 215.929,-18.5359 L 215.252,-19.0274 L 214.692,-19.6489 L 214.274,-20.373
 L 214.016,-21.1684 L 213.929,-22 L 213.929,-55.7751 L 214.031,-56.6752 L 214.303,-57.4659 L 214.734,-58.1826
 L 215.305,-58.7941 L 215.99,-59.2737 L 216.759,-59.6004 L 217.58,-59.7599 L 218.416,-59.7452 L 219.231,-59.557
 L 317.292,-25.782 L 318.341,-25.2361 L 318.962,-24.6765 L 319.454,-24 L 319.794,-23.2361 L 319.968,-22.4181
 L 319.968,-21.5819 L 319.794,-20.7639 L 319.454,-20 L 318.962,-19.3235 L 318.341,-18.7639 L 317.617,-18.3458
 L 316.821,-18.0874 L 315.99,-18 z
M 415.357,-18 L 414.121,-18.1958 L 413.357,-18.5359 L 412.681,-19.0274 L 412.121,-19.6489 L 411.703,-20.373
 L 411.445,-21.1684 L 411.357,-22 L 411.357,-55.7751 L 411.46,-56.6752 L 411.732,-57.4659 L 412.163,-58.1826
 L 412.733,-58.7941 L 413.418,-59.2737 L 414.188,-59.6004 L 415.009,-59.7599 L 415.845,-59.7452 L 416.66,-59.557
 L 514.721,-25.782 L 515.769,-25.2361 L 516.391,-24.6765 L 516.882,-24 L 517.223,-23.2361 L 517.396,-22.4181
 L 517.396,-21.5819 L 517.223,-20.7639 L 516.882,-20 L 516.391,-19.3235 L 515.769,-18.7639 L 515.045,-18.3458
 L 514.25,-18.0874 L 513.418,-18 z
M 883.582,-18 L 882.75,-18.0874 L 881.955,-18.3458 L 881.231,-18.7639 L 880.609,-19.3235 L 880.118,-20
 L 879.777,-20.7639 L 879.604,-21.5819 L 879.604,-22.4181 L 879.777,-23.2361 L 880.118,-24 L 880.609,-24.6765
 L 881.231,-25.2361 L 882.279,-25.782 L 980.34,-59.557 L 981.155,-59.7452 L 981.991,-59.7599 L 982.812,-59.6004
 L 983.582,-59.2737 L 984.267,-58.7941 L 984.837,-58.1826 L 985.268,-57.4659 L 985.54,-56.6752 L 985.643,-55.7751
 L 985.643,-22 L 985.555,-21.1684 L 985.297,-20.373 L 984.879,-19.6489 L 984.319,-19.0274 L 983.643,-18.5359
 L 982.879,-18.1958 L 981.643,-18 z
M 1081.01,-18 L 1080.18,-18.0874 L 1079.38,-18.3458 L 1078.66,-18.7639 L 1078.04,-19.3235 L 1077.55,-20
 L 1077.21,-20.7639 L 1077.03,-21.5819 L 1077.03,-22.4181 L 1077.21,-23.2361 L 1077.55,-24 L 1078.04,-24.6765
 L 1078.66,-25.2361 L 1079.71,-25.782 L 1177.77,-59.557 L 1178.58,-59.7452 L 1179.42,-59.7599 L 1180.24,-59.6004
 L 1181.01,-59.2737 L 1181.7,-58.7941 L 1182.27,-58.1826 L 1182.7,-57.4659 L 1182.97,-56.6752 L 1183.07,-55.7751
 L 1183.07,-22 L 1182.98,-21.1684 L 1182.73,-20.373 L 1182.31,-19.6489 L 1181.75,-19.0274 L 1181.07,-18.5359
 L 1180.31,-18.1958 L 1179.07,-18 z
M 22,-18 L 20.7639,-18.1958 L 20,-18.5359 L 19.3235,-19.0274 L 18.7639,-19.6489 L 18.3458,-20.373
 L 18.0874,-21.1684 L 18,-22 L 18,-55.2584 L 18.1026,-56.1586 L 18.3749,-56.9492 L 18.8057,-57.666
 L 19.376,-58.2775 L 20.0611,-58.7571 L 20.8309,-59.0837 L 21.6517,-59.2432 L 22.4878,-59.2285 L 23.3026,-59.0404
 L 119.864,-25.782 L 120.912,-25.2361 L 121.534,-24.6765 L 122.025,-24 L 122.365,-23.2361 L 122.539,-22.4181
 L 122.539,-21.5819 L 122.365,-20.7639 L 122.025,-20 L 121.534,-19.3235 L 120.912,-18.7639 L 120.188,-18.3458
 L 119.393,-18.0874 L 118.561,-18 z
M 1278.44,-18 L 1277.61,-18.0874 L 1276.81,-18.3458 L 1276.09,-18.7639 L 1275.47,-19.3235 L 1274.97,-20
 L 1274.63,-20.7639 L 1274.46,-21.5819 L 1274.46,-22.4181 L 1274.63,-23.2361 L 1274.97,-24 L 1275.47,-24.6765
 L 1276.09,-25.2361 L 1277.14,-25.782 L 1373.7,-59.0404 L 1374.51,-59.2285 L 1375.35,-59.2432 L 1376.17,-59.0837
 L 1376.94,-58.7571 L 1377.62,-58.2775 L 1378.19,-57.666 L 1378.63,-56.9492 L 1378.9,-56.1586 L 1379,-55.2584
 L 1379,-22 L 1378.91,-21.1684 L 1378.65,-20.373 L 1378.24,-19.6489 L 1377.68,-19.0274 L 1377,-18.5359
 L 1376.24,-18.1958 L 1375,-18 z
M 680.012,-18 L 678.843,-18.1747 L 678.074,-18.5013 L 677.389,-18.9809 L 676.818,-19.5925 L 676.387,-20.3092
 L 676.115,-21.0998 L 676.013,-21.9298 L 676.086,-22.7629 L 676.33,-23.5626 L 676.736,-24.294 L 677.284,-24.9252
 L 677.952,-25.4285 L 678.71,-25.782 L 697.197,-32.1496 L 698.152,-32.3524 L 698.988,-32.3378 L 699.803,-32.1496
 L 718.29,-25.782 L 719.339,-25.2361 L 719.96,-24.6765 L 720.452,-24 L 720.792,-23.2361 L 720.966,-22.4181
 L 720.966,-21.5819 L 720.792,-20.7639 L 720.452,-20 L 719.96,-19.3235 L 719.339,-18.7639 L 718.614,-18.3458
 L 717.819,-18.0874 L 716.987,-18 z
" stroke="black" fill="lightgray" stroke-width="0.5"/>
</svg>
