<?xml version="1.0" standalone="no"?>
<!DOCTYPE svg PUBLIC "-//W3C//DTD SVG 1.1//EN" "http://www.w3.org/Graphics/SVG/1.1/DTD/svg11.dtd">
<svg width="1573mm" height="80mm" viewBox="0 -80 1573 80" xmlns="http://www.w3.org/2000/svg" version="1.1">
<title>OpenSCAD Model</title>
<path d="
M 1573,-80 L 0,-80 L 0,-0 L 4.95,-0 L 4.95,-6 L 5.00572,-6.53017
 L 5.17046,-7.03717 L 5.437,-7.49884 L 5.79372,-7.895 L 6.22499,-8.20836 L 6.71201,-8.42519 L 7.23344,-8.53603
 L 7.76654,-8.53603 L 8.28798,-8.42519 L 8.77499,-8.20836 L 9.20627,-7.895 L 9.56299,-7.49884 L 9.82953,-7.03717
 L 9.99426,-6.53017 L 10.05,-6 L 10.05,-0 L 199.7,-0 L 199.7,-6 L 199.756,-6.53017
 L 199.92,-7.03717 L 200.187,-7.49884 L 200.544,-7.895 L 200.975,-8.20836 L 201.462,-8.42519 L 201.983,-8.53603
 L 202.517,-8.53603 L 203.038,-8.42519 L 203.525,-8.20836 L 203.956,-7.895 L 204.313,-7.49884 L 204.58,-7.03717
 L 204.744,-6.53017 L 204.8,-6 L 204.8,-0 L 394.45,-0 L 394.45,-6 L 394.506,-6.53017
 L 394.67,-7.03717 L 394.937,-7.49884 L 395.294,-7.895 L 395.725,-8.20836 L 396.212,-8.42519 L 396.733,-8.53603
 L 397.267,-8.53603 L 397.788,-8.42519 L 398.275,-8.20836 L 398.706,-7.895 L 399.063,-7.49884 L 399.33,-7.03717
 L 399.494,-6.53017 L 399.55,-6 L 399.55,-0 L 589.2,-0 L 589.2,-6 L 589.256,-6.53017
 L 589.42,-7.03717 L 589.687,-7.49884 L 590.044,-7.895 L 590.475,-8.20836 L 590.962,-8.42519 L 591.483,-8.53603
 L 592.017,-8.53603 L 592.538,-8.42519 L 593.025,-8.20836 L 593.456,-7.895 L 593.813,-7.49884 L 594.08,-7.03717
 L 594.244,-6.53017 L 594.3,-6 L 594.3,-0 L 783.95,-0 L 783.95,-6 L 784.006,-6.53017
 L 784.17,-7.03717 L 784.437,-7.49884 L 784.794,-7.895 L 785.225,-8.20836 L 785.712,-8.42519 L 786.233,-8.53603
 L 786.767,-8.53603 L 787.288,-8.42519 L 787.775,-8.20836 L 788.206,-7.895 L 788.563,-7.49884 L 788.83,-7.03717
 L 788.994,-6.53017 L 789.05,-6 L 789.05,-0 L 978.7,-0 L 978.7,-6 L 978.756,-6.53017
 L 978.92,-7.03717 L 979.187,-7.49884 L 979.544,-7.895 L 979.975,-8.20836 L 980.462,-8.42519 L 980.983,-8.53603
 L 981.517,-8.53603 L 982.038,-8.42519 L 982.525,-8.20836 L 982.956,-7.895 L 983.313,-7.49884 L 983.58,-7.03717
 L 983.744,-6.53017 L 983.8,-6 L 983.8,-0 L 1173.45,-0 L 1173.45,-6 L 1173.51,-6.53017
 L 1173.67,-7.03717 L 1173.94,-7.49884 L 1174.29,-7.895 L 1174.72,-8.20836 L 1175.21,-8.42519 L 1175.73,-8.53603
 L 1176.27,-8.53603 L 1176.79,-8.42519 L 1177.27,-8.20836 L 1177.71,-7.895 L 1178.06,-7.49884 L 1178.33,-7.03717
 L 1178.49,-6.53017 L 1178.55,-6 L 1178.55,-0 L 1368.2,-0 L 1368.2,-6 L 1368.26,-6.53017
 L 1368.42,-7.03717 L 1368.69,-7.49884 L 1369.04,-7.895 L 1369.47,-8.20836 L 1369.96,-8.42519 L 1370.48,-8.53603
 L 1371.02,-8.53603 L 1371.54,-8.42519 L 1372.02,-8.20836 L 1372.46,-7.895 L 1372.81,-7.49884 L 1373.08,-7.03717
 L 1373.24,-6.53017 L 1373.3,-6 L 1373.3,-0 L 1562.95,-0 L 1562.95,-6 L 1563.01,-6.53017
 L 1563.17,-7.03717 L 1563.44,-7.49884 L 1563.79,-7.895 L 1564.22,-8.20836 L 1564.71,-8.42519 L 1565.23,-8.53603
 L 1565.77,-8.53603 L 1566.29,-8.42519 L 1566.77,-8.20836 L 1567.21,-7.895 L 1567.56,-7.49884 L 1567.83,-7.03717
 L 1567.99,-6.53017 L 1568.05,-6 L 1568.05,-0 L 1573,-0 z
M 201.736,-55.607 L 201.227,-55.6875 L 200.73,-55.8208 L 200.249,-56.0054 L 199.79,-56.2392 L 199.358,-56.5196
 L 198.958,-56.8437 L 198.594,-57.2079 L 198.27,-57.6081 L 197.989,-58.04 L 197.755,-58.4989 L 197.571,-58.9796
 L 197.438,-59.4771 L 197.357,-59.9857 L 197.33,-60.5 L 197.357,-61.0143 L 197.438,-61.5229 L 197.571,-62.0204
 L 197.755,-62.5011 L 197.989,-62.96 L 198.27,-63.3919 L 198.594,-63.7921 L 198.958,-64.1563 L 199.358,-64.4804
 L 199.7,-64.7024 L 199.7,-74 L 199.756,-74.5302 L 199.92,-75.0372 L 200.187,-75.4988 L 200.544,-75.895
 L 200.975,-76.2084 L 201.462,-76.4252 L 201.983,-76.536 L 202.517,-76.536 L 203.038,-76.4252 L 203.525,-76.2084
 L 203.956,-75.895 L 204.313,-75.4988 L 204.58,-75.0372 L 204.744,-74.5302 L 204.8,-74 L 204.8,-64.7024
 L 205.142,-64.4804 L 205.542,-64.1563 L 205.906,-63.7921 L 206.23,-63.3919 L 206.511,-62.96 L 206.745,-62.5011
 L 206.929,-62.0204 L 207.062,-61.5229 L 207.143,-61.0143 L 207.17,-60.5 L 207.143,-59.9857 L 207.062,-59.4771
 L 206.929,-58.9796 L 206.745,-58.4989 L 206.511,-58.04 L 206.23,-57.6081 L 205.906,-57.2079 L 205.542,-56.8437
 L 205.142,-56.5196 L 204.71,-56.2392 L 204.251,-56.0054 L 203.77,-55.8208 L 203.273,-55.6875 L 202.764,-55.607
 L 202.25,-55.58 z
M 1175.49,-55.607 L 1174.98,-55.6875 L 1174.48,-55.8208 L 1174,-56.0054 L 1173.54,-56.2392 L 1173.11,-56.5196
 L 1172.71,-56.8437 L 1172.34,-57.2079 L 1172.02,-57.6081 L 1171.74,-58.04 L 1171.51,-58.4989 L 1171.32,-58.9796
 L 1171.19,-59.4771 L 1171.11,-59.9857 L 1171.08,-60.5 L 1171.11,-61.0143 L 1171.19,-61.5229 L 1171.32,-62.0204
 L 1171.51,-62.5011 L 1171.74,-62.96 L 1172.02,-63.3919 L 1172.34,-63.7921 L 1172.71,-64.1563 L 1173.11,-64.4804
 L 1173.45,-64.7024 L 1173.45,-74 L 1173.51,-74.5302 L 1173.67,-75.0372 L 1173.94,-75.4988 L 1174.29,-75.895
 L 1174.73,-76.2084 L 1175.21,-76.4252 L 1175.73,-76.536 L 1176.27,-76.536 L 1176.79,-76.4252 L 1177.27,-76.2084
 L 1177.71,-75.895 L 1178.06,-75.4988 L 1178.33,-75.0372 L 1178.49,-74.5302 L 1178.55,-74 L 1178.55,-64.7024
 L 1178.89,-64.4804 L 1179.29,-64.1563 L 1179.66,-63.7921 L 1179.98,-63.3919 L 1180.26,-62.96 L 1180.49,-62.5011
 L 1180.68,-62.0204 L 1180.81,-61.5229 L 1180.89,-61.0143 L 1180.92,-60.5 L 1180.89,-59.9857 L 1180.81,-59.4771
 L 1180.68,-58.9796 L 1180.49,-58.4989 L 1180.26,-58.04 L 1179.98,-57.6081 L 1179.66,-57.2079 L 1179.29,-56.8437
 L 1178.89,-56.5196 L 1178.46,-56.2392 L 1178,-56.0054 L 1177.52,-55.8208 L 1177.02,-55.6875 L 1176.51,-55.607
 L 1176,-55.58 z
M 980.736,-55.607 L 980.227,-55.6875 L 979.73,-55.8208 L 979.249,-56.0054 L 978.79,-56.2392 L 978.358,-56.5196
 L 977.958,-56.8437 L 977.594,-57.2079 L 977.27,-57.6081 L 976.989,-58.04 L 976.755,-58.4989 L 976.571,-58.9796
 L 976.438,-59.4771 L 976.357,-59.9857 L 976.33,-60.5 L 976.357,-61.0143 L 976.438,-61.5229 L 976.571,-62.0204
 L 976.755,-62.5011 L 976.989,-62.96 L 977.27,-63.3919 L 977.594,-63.7921 L 977.958,-64.1563 L 978.358,-64.4804
 L 978.7,-64.7024 L 978.7,-74 L 978.756,-74.5302 L 978.92,-75.0372 L 979.187,-75.4988 L 979.544,-75.895
 L 979.975,-76.2084 L 980.462,-76.4252 L 980.983,-76.536 L 981.517,-76.536 L 982.038,-76.4252 L 982.525,-76.2084
 L 982.956,-75.895 L 983.313,-75.4988 L 983.58,-75.0372 L 983.744,-74.5302 L 983.8,-74 L 983.8,-64.7024
 L 984.142,-64.4804 L 984.542,-64.1563 L 984.906,-63.7921 L 985.23,-63.3919 L 985.511,-62.96 L 985.745,-62.5011
 L 985.929,-62.0204 L 986.062,-61.5229 L 986.143,-61.0143 L 986.17,-60.5 L 986.143,-59.9857 L 986.062,-59.4771
 L 985.929,-58.9796 L 985.745,-58.4989 L 985.511,-58.04 L 985.23,-57.6081 L 984.906,-57.2079 L 984.542,-56.8437
 L 984.142,-56.5196 L 983.71,-56.2392 L 983.251,-56.0054 L 982.77,-55.8208 L 982.273,-55.6875 L 981.764,-55.607
 L 981.25,-55.58 z
M 6.98573,-55.607 L 6.47708,-55.6875 L 5.97964,-55.8208 L 5.49887,-56.0054 L 5.04001,-56.2392 L 4.60811,-56.5196
 L 4.20789,-56.8437 L 3.84373,-57.2079 L 3.51964,-57.6081 L 3.23917,-58.04 L 3.00537,-58.4989 L 2.82082,-58.9796
 L 2.68752,-59.4771 L 2.60696,-59.9857 L 2.58,-60.5 L 2.60696,-61.0143 L 2.68752,-61.5229 L 2.82082,-62.0204
 L 3.00537,-62.5011 L 3.23917,-62.96 L 3.51964,-63.3919 L 3.84373,-63.7921 L 4.20789,-64.1563 L 4.60811,-64.4804
 L 4.95001,-64.7024 L 4.95001,-74 L 5.00574,-74.5302 L 5.17047,-75.0372 L 5.43701,-75.4988 L 5.79373,-75.895
 L 6.22501,-76.2084 L 6.71202,-76.4252 L 7.23346,-76.536 L 7.76654,-76.536 L 8.28798,-76.4252 L 8.77499,-76.2084
 L 9.20627,-75.895 L 9.56299,-75.4988 L 9.82953,-75.0372 L 9.99426,-74.5302 L 10.05,-74 L 10.05,-64.7024
 L 10.3919,-64.4804 L 10.7921,-64.1563 L 11.1563,-63.7921 L 11.4804,-63.3919 L 11.7608,-62.96 L 11.9946,-62.5011
 L 12.1792,-62.0204 L 12.3125,-61.5229 L 12.393,-61.0143 L 12.42,-60.5 L 12.393,-59.9857 L 12.3125,-59.4771
 L 12.1792,-58.9796 L 11.9946,-58.4989 L 11.7608,-58.04 L 11.4804,-57.6081 L 11.1563,-57.2079 L 10.7921,-56.8437
 L 10.3919,-56.5196 L 9.95999,-56.2392 L 9.50113,-56.0054 L 9.02036,-55.8208 L 8.52292,-55.6875 L 8.01427,-55.607
 L 7.5,-55.58 z
M 785.986,-55.607 L 785.477,-55.6875 L 784.98,-55.8208 L 784.499,-56.0054 L 784.04,-56.2392 L 783.608,-56.5196
 L 783.208,-56.8437 L 782.844,-57.2079 L 782.52,-57.6081 L 782.239,-58.04 L 782.005,-58.4989 L 781.821,-58.9796
 L 781.688,-59.4771 L 781.607,-59.9857 L 781.58,-60.5 L 781.607,-61.0143 L 781.688,-61.5229 L 781.821,-62.0204
 L 782.005,-62.5011 L 782.239,-62.96 L 782.52,-63.3919 L 782.844,-63.7921 L 783.208,-64.1563 L 783.608,-64.4804
 L 783.95,-64.7024 L 783.95,-74 L 784.006,-74.5302 L 784.17,-75.0372 L 784.437,-75.4988 L 784.794,-75.895
 L 785.225,-76.2084 L 785.712,-76.4252 L 786.233,-76.536 L 786.767,-76.536 L 787.288,-76.4252 L 787.775,-76.2084
 L 788.206,-75.895 L 788.563,-75.4988 L 788.83,-75.0372 L 788.994,-74.5302 L 789.05,-74 L 789.05,-64.7024
 L 789.392,-64.4804 L 789.792,-64.1563 L 790.156,-63.7921 L 790.48,-63.3919 L 790.761,-62.96 L 790.995,-62.5011
 L 791.179,-62.0204 L 791.312,-61.5229 L 791.393,-61.0143 L 791.42,-60.5 L 791.393,-59.9857 L 791.312,-59.4771
 L 791.179,-58.9796 L 790.995,-58.4989 L 790.761,-58.04 L 790.48,-57.6081 L 790.156,-57.2079 L 789.792,-56.8437
 L 789.392,-56.5196 L 788.96,-56.2392 L 788.501,-56.0054 L 788.02,-55.8208 L 787.523,-55.6875 L 787.014,-55.607
 L 786.5,-55.58 z
M 1370.24,-55.607 L 1369.73,-55.6875 L 1369.23,-55.8208 L 1368.75,-56.0054 L 1368.29,-56.2392 L 1367.86,-56.5196
 L 1367.46,-56.8437 L 1367.09,-57.2079 L 1366.77,-57.6081 L 1366.49,-58.04 L 1366.26,-58.4989 L 1366.07,-58.9796
 L 1365.94,-59.4771 L 1365.86,-59.9857 L 1365.83,-60.5 L 1365.86,-61.0143 L 1365.94,-61.5229 L 1366.07,-62.0204
 L 1366.26,-62.5011 L 1366.49,-62.96 L 1366.77,-63.3919 L 1367.09,-63.7921 L 1367.46,-64.1563 L 1367.86,-64.4804
 L 1368.2,-64.7024 L 1368.2,-74 L 1368.26,-74.5302 L 1368.42,-75.0372 L 1368.69,-75.4988 L 1369.04,-75.895
 L 1369.48,-76.2084 L 1369.96,-76.4252 L 1370.48,-76.536 L 1371.02,-76.536 L 1371.54,-76.4252 L 1372.02,-76.2084
 L 1372.46,-75.895 L 1372.81,-75.4988 L 1373.08,-75.0372 L 1373.24,-74.5302 L 1373.3,-74 L 1373.3,-64.7024
 L 1373.64,-64.4804 L 1374.04,-64.1563 L 1374.41,-63.7921 L 1374.73,-63.3919 L 1375.01,-62.96 L 1375.24,-62.5011
 L 1375.43,-62.0204 L 1375.56,-61.5229 L 1375.64,-61.0143 L 1375.67,-60.5 L 1375.64,-59.9857 L 1375.56,-59.4771
 L 1375.43,-58.9796 L 1375.24,-58.4989 L 1375.01,-58.04 L 1374.73,-57.6081 L 1374.41,-57.2079 L 1374.04,-56.8437
 L 1373.64,-56.5196 L 1373.21,-56.2392 L 1372.75,-56.0054 L 1372.27,-55.8208 L 1371.77,-55.6875 L 1371.26,-55.607
 L 1370.75,-55.58 z
M 591.236,-55.607 L 590.727,-55.6875 L 590.23,-55.8208 L 589.749,-56.0054 L 589.29,-56.2392 L 588.858,-56.5196
 L 588.458,-56.8437 L 588.094,-57.2079 L 587.77,-57.6081 L 587.489,-58.04 L 587.255,-58.4989 L 587.071,-58.9796
 L 586.938,-59.4771 L 586.857,-59.9857 L 586.83,-60.5 L 586.857,-61.0143 L 586.938,-61.5229 L 587.071,-62.0204
 L 587.255,-62.5011 L 587.489,-62.96 L 587.77,-63.3919 L 588.094,-63.7921 L 588.458,-64.1563 L 588.858,-64.4804
 L 589.2,-64.7024 L 589.2,-74 L 589.256,-74.5302 L 589.42,-75.0372 L 589.687,-75.4988 L 590.044,-75.895
 L 590.475,-76.2084 L 590.962,-76.4252 L 591.483,-76.536 L 592.017,-76.536 L 592.538,-76.4252 L 593.025,-76.2084
 L 593.456,-75.895 L 593.813,-75.4988 L 594.08,-75.0372 L 594.244,-74.5302 L 594.3,-74 L 594.3,-64.7024
 L 594.642,-64.4804 L 595.042,-64.1563 L 595.406,-63.7921 L 595.73,-63.3919 L 596.011,-62.96 L 596.245,-62.5011
 L 596.429,-62.0204 L 596.562,-61.5229 L 596.643,-61.0143 L 596.67,-60.5 L 596.643,-59.9857 L 596.562,-59.4771
 L 596.429,-58.9796 L 596.245,-58.4989 L 596.011,-58.04 L 595.73,-57.6081 L 595.406,-57.2079 L 595.042,-56.8437
 L 594.642,-56.5196 L 594.21,-56.2392 L 593.751,-56.0054 L 593.27,-55.8208 L 592.773,-55.6875 L 592.264,-55.607
 L 591.75,-55.58 z
M 396.486,-55.607 L 395.977,-55.6875 L 395.48,-55.8208 L 394.999,-56.0054 L 394.54,-56.2392 L 394.108,-56.5196
 L 393.708,-56.8437 L 393.344,-57.2079 L 393.02,-57.6081 L 392.739,-58.04 L 392.505,-58.4989 L 392.321,-58.9796
 L 392.188,-59.4771 L 392.107,-59.9857 L 392.08,-60.5 L 392.107,-61.0143 L 392.188,-61.5229 L 392.321,-62.0204
 L 392.505,-62.5011 L 392.739,-62.96 L 393.02,-63.3919 L 393.344,-63.7921 L 393.708,-64.1563 L 394.108,-64.4804
 L 394.45,-64.7024 L 394.45,-74 L 394.506,-74.5302 L 394.67,-75.0372 L 394.937,-75.4988 L 395.294,-75.895
 L 395.725,-76.2084 L 396.212,-76.4252 L 396.733,-76.536 L 397.267,-76.536 L 397.788,-76.4252 L 398.275,-76.2084
 L 398.706,-75.895 L 399.063,-75.4988 L 399.33,-75.0372 L 399.494,-74.5302 L 399.55,-74 L 399.55,-64.7024
 L 399.892,-64.4804 L 400.292,-64.1563 L 400.656,-63.7921 L 400.98,-63.3919 L 401.261,-62.96 L 401.495,-62.5011
 L 401.679,-62.0204 L 401.812,-61.5229 L 401.893,-61.0143 L 401.92,-60.5 L 401.893,-59.9857 L 401.812,-59.4771
 L 401.679,-58.9796 L 401.495,-58.4989 L 401.261,-58.04 L 400.98,-57.6081 L 400.656,-57.2079 L 400.292,-56.8437
 L 399.892,-56.5196 L 399.46,-56.2392 L 399.001,-56.0054 L 398.52,-55.8208 L 398.023,-55.6875 L 397.514,-55.607
 L 397,-55.58 z
M 1564.99,-55.607 L 1564.48,-55.6875 L 1563.98,-55.8208 L 1563.5,-56.0054 L 1563.04,-56.2392 L 1562.61,-56.5196
 L 1562.21,-56.8437 L 1561.84,-57.2079 L 1561.52,-57.6081 L 1561.24,-58.04 L 1561.01,-58.4989 L 1560.82,-58.9796
 L 1560.69,-59.4771 L 1560.61,-59.9857 L 1560.58,-60.5 L 1560.61,-61.0143 L 1560.69,-61.5229 L 1560.82,-62.0204
 L 1561.01,-62.5011 L 1561.24,-62.96 L 1561.52,-63.3919 L 1561.84,-63.7921 L 1562.21,-64.1563 L 1562.61,-64.4804
 L 1562.95,-64.7024 L 1562.95,-74 L 1563.01,-74.5302 L 1563.17,-75.0372 L 1563.44,-75.4988 L 1563.79,-75.895
 L 1564.23,-76.2084 L 1564.71,-76.4252 L 1565.23,-76.536 L 1565.77,-76.536 L 1566.29,-76.4252 L 1566.77,-76.2084
 L 1567.21,-75.895 L 1567.56,-75.4988 L 1567.83,-75.0372 L 1567.99,-74.5302 L 1568.05,-74 L 1568.05,-64.7024
 L 1568.39,-64.4804 L 1568.79,-64.1563 L 1569.16,-63.7921 L 1569.48,-63.3919 L 1569.76,-62.96 L 1569.99,-62.5011
 L 1570.18,-62.0204 L 1570.31,-61.5229 L 1570.39,-61.0143 L 1570.42,-60.5 L 1570.39,-59.9857 L 1570.31,-59.4771
 L 1570.18,-58.9796 L 1569.99,-58.4989 L 1569.76,-58.04 L 1569.48,-57.6081 L 1569.16,-57.2079 L 1568.79,-56.8437
 L 1568.39,-56.5196 L 1567.96,-56.2392 L 1567.5,-56.0054 L 1567.02,-55.8208 L 1566.52,-55.6875 L 1566.01,-55.607
 L 1565.5,-55.58 z
M 383.495,-20.3375 L 382.681,-20.5291 L 286.181,-54.2236 L 285.149,-54.7639 L 284.527,-55.3235 L 284.036,-56
 L 283.696,-56.7639 L 283.522,-57.5819 L 283.522,-58.4181 L 283.696,-59.2361 L 284.036,-60 L 284.527,-60.6765
 L 285.149,-61.2361 L 285.873,-61.6542 L 286.668,-61.9126 L 287.5,-62 L 384,-62 L 385.236,-61.8042
 L 386,-61.4641 L 386.677,-60.9726 L 387.236,-60.3511 L 387.654,-59.627 L 387.913,-58.8316 L 388,-58
 L 388,-24.3055 L 387.894,-23.3889 L 387.618,-22.5994 L 387.184,-21.8845 L 386.611,-21.2754 L 385.924,-20.7987
 L 385.153,-20.4753 L 384.331,-20.3193 z
M 578.245,-20.3375 L 577.431,-20.5291 L 480.931,-54.2236 L 479.899,-54.7639 L 479.277,-55.3235 L 478.786,-56
 L 478.446,-56.7639 L 478.272,-57.5819 L 478.272,-58.4181 L 478.446,-59.2361 L 478.786,-60 L 479.277,-60.6765
 L 479.899,-61.2361 L 480.623,-61.6542 L 481.418,-61.9126 L 482.25,-62 L 578.75,-62 L 579.986,-61.8042
 L 580.75,-61.4641 L 581.427,-60.9726 L 581.986,-60.3511 L 582.404,-59.627 L 582.663,-58.8316 L 582.75,-58
 L 582.75,-24.3055 L 582.644,-23.3889 L 582.368,-22.5994 L 581.934,-21.8845 L 581.361,-21.2754 L 580.674,-20.7987
 L 579.903,-20.4753 L 579.081,-20.3193 z
M 1382.6,-20.4753 L 1381.83,-20.7987 L 1381.14,-21.2754 L 1380.57,-21.8845 L 1380.13,-22.5994 L 1379.86,-23.3889
 L 1379.75,-24.3055 L 1379.75,-58 L 1379.84,-58.8316 L 1380.1,-59.627 L 1380.51,-60.3511 L 1381.07,-60.9726
 L 1381.75,-61.4641 L 1382.51,-61.8042 L 1383.75,-62 L 1480.25,-62 L 1481.08,-61.9126 L 1481.88,-61.6542
 L 1482.6,-61.2361 L 1483.22,-60.6765 L 1483.71,-60 L 1484.05,-59.2361 L 1484.23,-58.4181 L 1484.23,-57.5819
 L 1484.05,-56.7639 L 1483.71,-56 L 1483.22,-55.3235 L 1482.6,-54.7639 L 1481.57,-54.2236 L 1385.07,-20.5291
 L 1384.25,-20.3375 L 1383.42,-20.3193 z
M 772.995,-20.3375 L 772.181,-20.5291 L 675.681,-54.2236 L 674.649,-54.7639 L 674.027,-55.3235 L 673.536,-56
 L 673.196,-56.7639 L 673.022,-57.5819 L 673.022,-58.4181 L 673.196,-59.2361 L 673.536,-60 L 674.027,-60.6765
 L 674.649,-61.2361 L 675.373,-61.6542 L 676.168,-61.9126 L 677,-62 L 773.5,-62 L 774.736,-61.8042
 L 775.5,-61.4641 L 776.177,-60.9726 L 776.736,-60.3511 L 777.154,-59.627 L 777.413,-58.8316 L 777.5,-58
 L 777.5,-24.3055 L 777.394,-23.3889 L 777.118,-22.5994 L 776.684,-21.8845 L 776.111,-21.2754 L 775.424,-20.7987
 L 774.653,-20.4753 L 773.831,-20.3193 z
M 188.745,-20.3375 L 187.931,-20.5291 L 91.4315,-54.2236 L 90.3989,-54.7639 L 89.7775,-55.3235 L 89.286,-56
 L 88.9458,-56.7639 L 88.772,-57.5819 L 88.772,-58.4181 L 88.9458,-59.2361 L 89.286,-60 L 89.7775,-60.6765
 L 90.3989,-61.2361 L 91.1231,-61.6542 L 91.9184,-61.9126 L 92.7501,-62 L 189.25,-62 L 190.486,-61.8042
 L 191.25,-61.4641 L 191.927,-60.9726 L 192.486,-60.3511 L 192.904,-59.627 L 193.163,-58.8316 L 193.25,-58
 L 193.25,-24.3055 L 193.144,-23.3889 L 192.868,-22.5994 L 192.434,-21.8845 L 191.861,-21.2754 L 191.174,-20.7987
 L 190.403,-20.4753 L 189.581,-20.3193 z
M 798.347,-20.4753 L 797.576,-20.7987 L 796.889,-21.2754 L 796.316,-21.8845 L 795.882,-22.5994 L 795.606,-23.3889
 L 795.5,-24.3055 L 795.5,-58 L 795.587,-58.8316 L 795.846,-59.627 L 796.264,-60.3511 L 796.823,-60.9726
 L 797.5,-61.4641 L 798.264,-61.8042 L 799.5,-62 L 896,-62 L 896.832,-61.9126 L 897.627,-61.6542
 L 898.351,-61.2361 L 898.973,-60.6765 L 899.464,-60 L 899.804,-59.2361 L 899.978,-58.4181 L 899.978,-57.5819
 L 899.804,-56.7639 L 899.464,-56 L 898.973,-55.3235 L 898.351,-54.7639 L 897.319,-54.2236 L 800.819,-20.5291
 L 800.005,-20.3375 L 799.169,-20.3193 z
M 993.097,-20.4753 L 992.326,-20.7987 L 991.639,-21.2754 L 991.066,-21.8845 L 990.632,-22.5994 L 990.356,-23.3889
 L 990.25,-24.3055 L 990.25,-58 L 990.337,-58.8316 L 990.596,-59.627 L 991.014,-60.3511 L 991.573,-60.9726
 L 992.25,-61.4641 L 993.014,-61.8042 L 994.25,-62 L 1090.75,-62 L 1091.58,-61.9126 L 1092.38,-61.6542
 L 1093.1,-61.2361 L 1093.72,-60.6765 L 1094.21,-60 L 1094.55,-59.2361 L 1094.73,-58.4181 L 1094.73,-57.5819
 L 1094.55,-56.7639 L 1094.21,-56 L 1093.72,-55.3235 L 1093.1,-54.7639 L 1092.07,-54.2236 L 995.569,-20.5291
 L 994.755,-20.3375 L 993.919,-20.3193 z
M 1187.85,-20.4753 L 1187.08,-20.7987 L 1186.39,-21.2754 L 1185.82,-21.8845 L 1185.38,-22.5994 L 1185.11,-23.3889
 L 1185,-24.3055 L 1185,-58 L 1185.09,-58.8316 L 1185.35,-59.627 L 1185.76,-60.3511 L 1186.32,-60.9726
 L 1187,-61.4641 L 1187.76,-61.8042 L 1189,-62 L 1285.5,-62 L 1286.33,-61.9126 L 1287.13,-61.6542
 L 1287.85,-61.2361 L 1288.47,-60.6765 L 1288.96,-60 L 1289.3,-59.2361 L 1289.48,-58.4181 L 1289.48,-57.5819
 L 1289.3,-56.7639 L 1288.96,-56 L 1288.47,-55.3235 L 1287.85,-54.7639 L 1286.82,-54.2236 L 1190.32,-20.5291
 L 1189.5,-20.3375 L 1188.67,-20.3193 z
M 215.25,-18 L 214.014,-18.1958 L 213.25,-18.5359 L 212.573,-19.0274 L 212.014,-19.6489 L 211.596,-20.373
 L 211.337,-21.1684 L 211.25,-22 L 211.25,-55.6944 L 211.356,-56.6111 L 211.632,-57.4006 L 212.066,-58.1155
 L 212.639,-58.7246 L 213.326,-59.2013 L 214.097,-59.5247 L 214.919,-59.6807 L 215.755,-59.6625 L 216.569,-59.4709
 L 313.068,-25.7764 L 314.101,-25.2361 L 314.722,-24.6765 L 315.214,-24 L 315.554,-23.2361 L 315.728,-22.4181
 L 315.728,-21.5819 L 315.554,-20.7639 L 315.214,-20 L 314.722,-19.3235 L 314.101,-18.7639 L 313.377,-18.3458
 L 312.582,-18.0874 L 311.75,-18 z
M 410,-18 L 408.764,-18.1958 L 408,-18.5359 L 407.323,-19.0274 L 406.764,-19.6489 L 406.346,-20.373
 L 406.087,-21.1684 L 406,-22 L 406,-55.6944 L 406.106,-56.6111 L 406.382,-57.4006 L 406.816,-58.1155
 L 407.389,-58.7246 L 408.076,-59.2013 L 408.847,-59.5247 L 409.669,-59.6807 L 410.505,-59.6625 L 411.319,-59.4709
 L 507.818,-25.7764 L 508.851,-25.2361 L 509.472,-24.6765 L 509.964,-24 L 510.304,-23.2361 L 510.478,-22.4181
 L 510.478,-21.5819 L 510.304,-20.7639 L 509.964,-20 L 509.472,-19.3235 L 508.851,-18.7639 L 508.127,-18.3458
 L 507.332,-18.0874 L 506.5,-18 z
M 604.75,-18 L 603.514,-18.1958 L 602.75,-18.5359 L 602.073,-19.0274 L 601.514,-19.6489 L 601.096,-20.373
 L 600.837,-21.1684 L 600.75,-22 L 600.75,-55.6944 L 600.856,-56.6111 L 601.132,-57.4006 L 601.566,-58.1155
 L 602.139,-58.7246 L 602.826,-59.2013 L 603.597,-59.5247 L 604.419,-59.6807 L 605.255,-59.6625 L 606.069,-59.4709
 L 702.568,-25.7764 L 703.601,-25.2361 L 704.222,-24.6765 L 704.714,-24 L 705.054,-23.2361 L 705.228,-22.4181
 L 705.228,-21.5819 L 705.054,-20.7639 L 704.714,-20 L 704.222,-19.3235 L 703.601,-18.7639 L 702.877,-18.3458
 L 702.082,-18.0874 L 701.25,-18 z
M 871.75,-18 L 870.918,-18.0874 L 870.123,-18.3458 L 869.399,-18.7639 L 868.778,-19.3235 L 868.286,-20
 L 867.946,-20.7639 L 867.772,-21.5819 L 867.772,-22.4181 L 867.946,-23.2361 L 868.286,-24 L 868.778,-24.6765
 L 869.399,-25.2361 L 870.432,-25.7764 L 966.931,-59.4709 L 967.745,-59.6625 L 968.581,-59.6807 L 969.403,-59.5247
 L 970.174,-59.2013 L 970.861,-58.7246 L 971.434,-58.1155 L 971.868,-57.4006 L 972.144,-56.6111 L 972.25,-55.6944
 L 972.25,-22 L 972.163,-21.1684 L 971.904,-20.373 L 971.486,-19.6489 L 970.927,-19.0274 L 970.25,-18.5359
 L 969.486,-18.1958 L 968.25,-18 z
M 1066.5,-18 L 1065.67,-18.0874 L 1064.87,-18.3458 L 1064.15,-18.7639 L 1063.53,-19.3235 L 1063.04,-20
 L 1062.7,-20.7639 L 1062.52,-21.5819 L 1062.52,-22.4181 L 1062.7,-23.2361 L 1063.04,-24 L 1063.53,-24.6765
 L 1064.15,-25.2361 L 1065.18,-25.7764 L 1161.68,-59.4709 L 1162.5,-59.6625 L 1163.33,-59.6807 L 1164.15,-59.5247
 L 1164.92,-59.2013 L 1165.61,-58.7246 L 1166.18,-58.1155 L 1166.62,-57.4006 L 1166.89,-56.6111 L 1167,-55.6944
 L 1167,-22 L 1166.91,-21.1684 L 1166.65,-20.373 L 1166.24,-19.6489 L 1165.68,-19.0274 L 1165,-18.5359
 L 1164.24,-18.1958 L 1163,-18 z
M 1261.25,-18 L 1260.42,-18.0874 L 1259.62,-18.3458 L 1258.9,-18.7639 L 1258.28,-19.3235 L 1257.79,-20
 L 1257.45,-20.7639 L 1257.27,-21.5819 L 1257.27,-22.4181 L 1257.45,-23.2361 L 1257.79,-24 L 1258.28,-24.6765
 L 1258.9,-25.2361 L 1259.93,-25.7764 L 1356.43,-59.4709 L 1357.25,-59.6625 L 1358.08,-59.6807 L 1358.9,-59.5247
 L 1359.67,-59.2013 L 1360.36,-58.7246 L 1360.93,-58.1155 L 1361.37,-57.4006 L 1361.64,-56.6111 L 1361.75,-55.6944
 L 1361.75,-22 L 1361.66,-21.1684 L 1361.4,-20.373 L 1360.99,-19.6489 L 1360.43,-19.0274 L 1359.75,-18.5359
 L 1358.99,-18.1958 L 1357.75,-18 z
M 1456,-18 L 1455.17,-18.0874 L 1454.37,-18.3458 L 1453.65,-18.7639 L 1453.03,-19.3235 L 1452.54,-20
 L 1452.2,-20.7639 L 1452.02,-21.5819 L 1452.02,-22.4181 L 1452.2,-23.2361 L 1452.54,-24 L 1453.03,-24.6765
 L 1453.65,-25.2361 L 1454.68,-25.7764 L 1549.68,-58.9471 L 1550.5,-59.1387 L 1551.33,-59.1569 L 1552.15,-59.0009
 L 1552.92,-58.6775 L 1553.61,-58.2008 L 1554.18,-57.5917 L 1554.62,-56.8768 L 1554.89,-56.0873 L 1555,-55.1707
 L 1555,-22 L 1554.91,-21.1684 L 1554.65,-20.373 L 1554.24,-19.6489 L 1553.68,-19.0274 L 1553,-18.5359
 L 1552.24,-18.1958 L 1551,-18 z
M 22,-18 L 20.7639,-18.1958 L 20,-18.5359 L 19.3235,-19.0274 L 18.7639,-19.6489 L 18.3458,-20.373
 L 18.0874,-21.1684 L 18,-22 L 18,-55.1707 L 18.1064,-56.0873 L 18.3821,-56.8768 L 18.8159,-57.5917
 L 19.3888,-58.2008 L 20.0759,-58.6775 L 20.847,-59.0009 L 21.6686,-59.1569 L 22.5046,-59.1387 L 23.3186,-58.9471
 L 118.318,-25.7764 L 119.351,-25.2361 L 119.972,-24.6765 L 120.464,-24 L 120.804,-23.2361 L 120.978,-22.4181
 L 120.978,-21.5819 L 120.804,-20.7639 L 120.464,-20 L 119.972,-19.3235 L 119.351,-18.7639 L 118.627,-18.3458
 L 117.832,-18.0874 L 117,-18 z
" stroke="black" fill="lightgray" stroke-width="0.5"/>
</svg>
