<?xml version="1.0" standalone="no"?>
<!DOCTYPE svg PUBLIC "-//W3C//DTD SVG 1.1//EN" "http://www.w3.org/Graphics/SVG/1.1/DTD/svg11.dtd">
<svg width="1614mm" height="80mm" viewBox="0 -80 1614 80" xmlns="http://www.w3.org/2000/svg" version="1.1">
<title>OpenSCAD Model</title>
<path d="
M 1614,-80 L 0,-80 L 0,-0 L 4.95,-0 L 4.95,-6 L 5.00572,-6.53017
 L 5.17046,-7.03717 L 5.437,-7.49884 L 5.79372,-7.895 L 6.22499,-8.20836 L 6.71201,-8.42519 L 7.23344,-8.53603
 L 7.76654,-8.53603 L 8.28798,-8.42519 L 8.77499,-8.20836 L 9.20627,-7.895 L 9.56299,-7.49884 L 9.82953,-7.03717
 L 9.99426,-6.53017 L 10.05,-6 L 10.05,-0 L 182.617,-0 L 182.617,-6 L 182.672,-6.53017
 L 182.837,-7.03717 L 183.104,-7.49884 L 183.46,-7.895 L 183.892,-8.20836 L 184.379,-8.42519 L 184.9,-8.53603
 L 185.433,-8.53603 L 185.955,-8.42519 L 186.442,-8.20836 L 186.873,-7.895 L 187.23,-7.49884 L 187.496,-7.03717
 L 187.661,-6.53017 L 187.717,-6 L 187.717,-0 L 360.283,-0 L 360.283,-6 L 360.339,-6.53017
 L 360.504,-7.03717 L 360.77,-7.49884 L 361.127,-7.895 L 361.558,-8.20836 L 362.045,-8.42519 L 362.567,-8.53603
 L 363.1,-8.53603 L 363.621,-8.42519 L 364.108,-8.20836 L 364.54,-7.895 L 364.896,-7.49884 L 365.163,-7.03717
 L 365.328,-6.53017 L 365.383,-6 L 365.383,-0 L 537.95,-0 L 537.95,-6 L 538.006,-6.53017
 L 538.17,-7.03717 L 538.437,-7.49884 L 538.794,-7.895 L 539.225,-8.20836 L 539.712,-8.42519 L 540.233,-8.53603
 L 540.767,-8.53603 L 541.288,-8.42519 L 541.775,-8.20836 L 542.206,-7.895 L 542.563,-7.49884 L 542.83,-7.03717
 L 542.994,-6.53017 L 543.05,-6 L 543.05,-0 L 715.617,-0 L 715.617,-6 L 715.672,-6.53017
 L 715.837,-7.03717 L 716.104,-7.49884 L 716.46,-7.895 L 716.892,-8.20836 L 717.379,-8.42519 L 717.9,-8.53603
 L 718.433,-8.53603 L 718.955,-8.42519 L 719.442,-8.20836 L 719.873,-7.895 L 720.23,-7.49884 L 720.496,-7.03717
 L 720.661,-6.53017 L 720.717,-6 L 720.717,-0 L 893.283,-0 L 893.283,-6 L 893.339,-6.53017
 L 893.504,-7.03717 L 893.77,-7.49884 L 894.127,-7.895 L 894.558,-8.20836 L 895.045,-8.42519 L 895.567,-8.53603
 L 896.1,-8.53603 L 896.621,-8.42519 L 897.108,-8.20836 L 897.54,-7.895 L 897.896,-7.49884 L 898.163,-7.03717
 L 898.328,-6.53017 L 898.383,-6 L 898.383,-0 L 1070.95,-0 L 1070.95,-6 L 1071.01,-6.53017
 L 1071.17,-7.03717 L 1071.44,-7.49884 L 1071.79,-7.895 L 1072.22,-8.20836 L 1072.71,-8.42519 L 1073.23,-8.53603
 L 1073.77,-8.53603 L 1074.29,-8.42519 L 1074.77,-8.20836 L 1075.21,-7.895 L 1075.56,-7.49884 L 1075.83,-7.03717
 L 1075.99,-6.53017 L 1076.05,-6 L 1076.05,-0 L 1248.62,-0 L 1248.62,-6 L 1248.67,-6.53017
 L 1248.84,-7.03717 L 1249.1,-7.49884 L 1249.46,-7.895 L 1249.89,-8.20836 L 1250.38,-8.42519 L 1250.9,-8.53603
 L 1251.43,-8.53603 L 1251.95,-8.42519 L 1252.44,-8.20836 L 1252.87,-7.895 L 1253.23,-7.49884 L 1253.5,-7.03717
 L 1253.66,-6.53017 L 1253.72,-6 L 1253.72,-0 L 1426.28,-0 L 1426.28,-6 L 1426.34,-6.53017
 L 1426.5,-7.03717 L 1426.77,-7.49884 L 1427.13,-7.895 L 1427.56,-8.20836 L 1428.05,-8.42519 L 1428.57,-8.53603
 L 1429.1,-8.53603 L 1429.62,-8.42519 L 1430.11,-8.20836 L 1430.54,-7.895 L 1430.9,-7.49884 L 1431.16,-7.03717
 L 1431.33,-6.53017 L 1431.38,-6 L 1431.38,-0 L 1603.95,-0 L 1603.95,-6 L 1604.01,-6.53017
 L 1604.17,-7.03717 L 1604.44,-7.49884 L 1604.79,-7.895 L 1605.22,-8.20836 L 1605.71,-8.42519 L 1606.23,-8.53603
 L 1606.77,-8.53603 L 1607.29,-8.42519 L 1607.77,-8.20836 L 1608.21,-7.895 L 1608.56,-7.49884 L 1608.83,-7.03717
 L 1608.99,-6.53017 L 1609.05,-6 L 1609.05,-0 L 1614,-0 z
M 6.98573,-55.607 L 6.47708,-55.6875 L 5.97964,-55.8208 L 5.49887,-56.0054 L 5.04001,-56.2392 L 4.60811,-56.5196
 L 4.20789,-56.8437 L 3.84373,-57.2079 L 3.51964,-57.6081 L 3.23917,-58.04 L 3.00537,-58.4989 L 2.82082,-58.9796
 L 2.68752,-59.4771 L 2.60696,-59.9857 L 2.58,-60.5 L 2.60696,-61.0143 L 2.68752,-61.5229 L 2.82082,-62.0204
 L 3.00537,-62.5011 L 3.23917,-62.96 L 3.51964,-63.3919 L 3.84373,-63.7921 L 4.20789,-64.1563 L 4.60811,-64.4804
 L 4.95001,-64.7024 L 4.95001,-74 L 5.00574,-74.5302 L 5.17047,-75.0372 L 5.43701,-75.4988 L 5.79373,-75.895
 L 6.22501,-76.2084 L 6.71202,-76.4252 L 7.23346,-76.536 L 7.76654,-76.536 L 8.28798,-76.4252 L 8.77499,-76.2084
 L 9.20627,-75.895 L 9.56299,-75.4988 L 9.82953,-75.0372 L 9.99426,-74.5302 L 10.05,-74 L 10.05,-64.7024
 L 10.3919,-64.4804 L 10.7921,-64.1563 L 11.1563,-63.7921 L 11.4804,-63.3919 L 11.7608,-62.96 L 11.9946,-62.5011
 L 12.1792,-62.0204 L 12.3125,-61.5229 L 12.393,-61.0143 L 12.42,-60.5 L 12.393,-59.9857 L 12.3125,-59.4771
 L 12.1792,-58.9796 L 11.9946,-58.4989 L 11.7608,-58.04 L 11.4804,-57.6081 L 11.1563,-57.2079 L 10.7921,-56.8437
 L 10.3919,-56.5196 L 9.95999,-56.2392 L 9.50113,-56.0054 L 9.02036,-55.8208 L 8.52292,-55.6875 L 8.01427,-55.607
 L 7.5,-55.58 z
M 1072.99,-55.607 L 1072.48,-55.6875 L 1071.98,-55.8208 L 1071.5,-56.0054 L 1071.04,-56.2392 L 1070.61,-56.5196
 L 1070.21,-56.8437 L 1069.84,-57.2079 L 1069.52,-57.6081 L 1069.24,-58.04 L 1069.01,-58.4989 L 1068.82,-58.9796
 L 1068.69,-59.4771 L 1068.61,-59.9857 L 1068.58,-60.5 L 1068.61,-61.0143 L 1068.69,-61.5229 L 1068.82,-62.0204
 L 1069.01,-62.5011 L 1069.24,-62.96 L 1069.52,-63.3919 L 1069.84,-63.7921 L 1070.21,-64.1563 L 1070.61,-64.4804
 L 1070.95,-64.7024 L 1070.95,-74 L 1071.01,-74.5302 L 1071.17,-75.0372 L 1071.44,-75.4988 L 1071.79,-75.895
 L 1072.23,-76.2084 L 1072.71,-76.4252 L 1073.23,-76.536 L 1073.77,-76.536 L 1074.29,-76.4252 L 1074.77,-76.2084
 L 1075.21,-75.895 L 1075.56,-75.4988 L 1075.83,-75.0372 L 1075.99,-74.5302 L 1076.05,-74 L 1076.05,-64.7024
 L 1076.39,-64.4804 L 1076.79,-64.1563 L 1077.16,-63.7921 L 1077.48,-63.3919 L 1077.76,-62.96 L 1077.99,-62.5011
 L 1078.18,-62.0204 L 1078.31,-61.5229 L 1078.39,-61.0143 L 1078.42,-60.5 L 1078.39,-59.9857 L 1078.31,-59.4771
 L 1078.18,-58.9796 L 1077.99,-58.4989 L 1077.76,-58.04 L 1077.48,-57.6081 L 1077.16,-57.2079 L 1076.79,-56.8437
 L 1076.39,-56.5196 L 1075.96,-56.2392 L 1075.5,-56.0054 L 1075.02,-55.8208 L 1074.52,-55.6875 L 1074.01,-55.607
 L 1073.5,-55.58 z
M 1250.65,-55.607 L 1250.14,-55.6875 L 1249.65,-55.8208 L 1249.17,-56.0054 L 1248.71,-56.2392 L 1248.27,-56.5196
 L 1247.87,-56.8437 L 1247.51,-57.2079 L 1247.19,-57.6081 L 1246.91,-58.04 L 1246.67,-58.4989 L 1246.49,-58.9796
 L 1246.35,-59.4771 L 1246.27,-59.9857 L 1246.25,-60.5 L 1246.27,-61.0143 L 1246.35,-61.5229 L 1246.49,-62.0204
 L 1246.67,-62.5011 L 1246.91,-62.96 L 1247.19,-63.3919 L 1247.51,-63.7921 L 1247.87,-64.1563 L 1248.27,-64.4804
 L 1248.62,-64.7024 L 1248.62,-74 L 1248.67,-74.5302 L 1248.84,-75.0372 L 1249.1,-75.4988 L 1249.46,-75.895
 L 1249.89,-76.2084 L 1250.38,-76.4252 L 1250.9,-76.536 L 1251.43,-76.536 L 1251.95,-76.4252 L 1252.44,-76.2084
 L 1252.87,-75.895 L 1253.23,-75.4988 L 1253.5,-75.0372 L 1253.66,-74.5302 L 1253.72,-74 L 1253.72,-64.7024
 L 1254.06,-64.4804 L 1254.46,-64.1563 L 1254.82,-63.7921 L 1255.15,-63.3919 L 1255.43,-62.96 L 1255.66,-62.5011
 L 1255.85,-62.0204 L 1255.98,-61.5229 L 1256.06,-61.0143 L 1256.09,-60.5 L 1256.06,-59.9857 L 1255.98,-59.4771
 L 1255.85,-58.9796 L 1255.66,-58.4989 L 1255.43,-58.04 L 1255.15,-57.6081 L 1254.82,-57.2079 L 1254.46,-56.8437
 L 1254.06,-56.5196 L 1253.63,-56.2392 L 1253.17,-56.0054 L 1252.69,-55.8208 L 1252.19,-55.6875 L 1251.68,-55.607
 L 1251.17,-55.58 z
M 895.319,-55.607 L 894.81,-55.6875 L 894.313,-55.8208 L 893.832,-56.0054 L 893.373,-56.2392 L 892.941,-56.5196
 L 892.541,-56.8437 L 892.177,-57.2079 L 891.853,-57.6081 L 891.572,-58.04 L 891.339,-58.4989 L 891.154,-58.9796
 L 891.021,-59.4771 L 890.94,-59.9857 L 890.913,-60.5 L 890.94,-61.0143 L 891.021,-61.5229 L 891.154,-62.0204
 L 891.339,-62.5011 L 891.572,-62.96 L 891.853,-63.3919 L 892.177,-63.7921 L 892.541,-64.1563 L 892.941,-64.4804
 L 893.283,-64.7024 L 893.283,-74 L 893.339,-74.5302 L 893.504,-75.0372 L 893.77,-75.4988 L 894.127,-75.895
 L 894.558,-76.2084 L 895.045,-76.4252 L 895.567,-76.536 L 896.1,-76.536 L 896.621,-76.4252 L 897.108,-76.2084
 L 897.54,-75.895 L 897.896,-75.4988 L 898.163,-75.0372 L 898.328,-74.5302 L 898.383,-74 L 898.383,-64.7024
 L 898.725,-64.4804 L 899.125,-64.1563 L 899.49,-63.7921 L 899.814,-63.3919 L 900.094,-62.96 L 900.328,-62.5011
 L 900.513,-62.0204 L 900.646,-61.5229 L 900.726,-61.0143 L 900.753,-60.5 L 900.726,-59.9857 L 900.646,-59.4771
 L 900.513,-58.9796 L 900.328,-58.4989 L 900.094,-58.04 L 899.814,-57.6081 L 899.49,-57.2079 L 899.125,-56.8437
 L 898.725,-56.5196 L 898.293,-56.2392 L 897.834,-56.0054 L 897.354,-55.8208 L 896.856,-55.6875 L 896.348,-55.607
 L 895.833,-55.58 z
M 717.652,-55.607 L 717.144,-55.6875 L 716.646,-55.8208 L 716.166,-56.0054 L 715.707,-56.2392 L 715.275,-56.5196
 L 714.875,-56.8437 L 714.51,-57.2079 L 714.186,-57.6081 L 713.906,-58.04 L 713.672,-58.4989 L 713.487,-58.9796
 L 713.354,-59.4771 L 713.274,-59.9857 L 713.247,-60.5 L 713.274,-61.0143 L 713.354,-61.5229 L 713.487,-62.0204
 L 713.672,-62.5011 L 713.906,-62.96 L 714.186,-63.3919 L 714.51,-63.7921 L 714.875,-64.1563 L 715.275,-64.4804
 L 715.617,-64.7024 L 715.617,-74 L 715.672,-74.5302 L 715.837,-75.0372 L 716.104,-75.4988 L 716.46,-75.895
 L 716.892,-76.2084 L 717.379,-76.4252 L 717.9,-76.536 L 718.433,-76.536 L 718.955,-76.4252 L 719.442,-76.2084
 L 719.873,-75.895 L 720.23,-75.4988 L 720.496,-75.0372 L 720.661,-74.5302 L 720.717,-74 L 720.717,-64.7024
 L 721.059,-64.4804 L 721.459,-64.1563 L 721.823,-63.7921 L 722.147,-63.3919 L 722.427,-62.96 L 722.661,-62.5011
 L 722.846,-62.0204 L 722.979,-61.5229 L 723.06,-61.0143 L 723.087,-60.5 L 723.06,-59.9857 L 722.979,-59.4771
 L 722.846,-58.9796 L 722.661,-58.4989 L 722.427,-58.04 L 722.147,-57.6081 L 721.823,-57.2079 L 721.459,-56.8437
 L 721.059,-56.5196 L 720.627,-56.2392 L 720.168,-56.0054 L 719.687,-55.8208 L 719.19,-55.6875 L 718.681,-55.607
 L 718.167,-55.58 z
M 1428.32,-55.607 L 1427.81,-55.6875 L 1427.31,-55.8208 L 1426.83,-56.0054 L 1426.37,-56.2392 L 1425.94,-56.5196
 L 1425.54,-56.8437 L 1425.18,-57.2079 L 1424.85,-57.6081 L 1424.57,-58.04 L 1424.34,-58.4989 L 1424.15,-58.9796
 L 1424.02,-59.4771 L 1423.94,-59.9857 L 1423.91,-60.5 L 1423.94,-61.0143 L 1424.02,-61.5229 L 1424.15,-62.0204
 L 1424.34,-62.5011 L 1424.57,-62.96 L 1424.85,-63.3919 L 1425.18,-63.7921 L 1425.54,-64.1563 L 1425.94,-64.4804
 L 1426.28,-64.7024 L 1426.28,-74 L 1426.34,-74.5302 L 1426.5,-75.0372 L 1426.77,-75.4988 L 1427.13,-75.895
 L 1427.56,-76.2084 L 1428.05,-76.4252 L 1428.57,-76.536 L 1429.1,-76.536 L 1429.62,-76.4252 L 1430.11,-76.2084
 L 1430.54,-75.895 L 1430.9,-75.4988 L 1431.16,-75.0372 L 1431.33,-74.5302 L 1431.38,-74 L 1431.38,-64.7024
 L 1431.73,-64.4804 L 1432.13,-64.1563 L 1432.49,-63.7921 L 1432.81,-63.3919 L 1433.09,-62.96 L 1433.33,-62.5011
 L 1433.51,-62.0204 L 1433.65,-61.5229 L 1433.73,-61.0143 L 1433.75,-60.5 L 1433.73,-59.9857 L 1433.65,-59.4771
 L 1433.51,-58.9796 L 1433.33,-58.4989 L 1433.09,-58.04 L 1432.81,-57.6081 L 1432.49,-57.2079 L 1432.13,-56.8437
 L 1431.73,-56.5196 L 1431.29,-56.2392 L 1430.83,-56.0054 L 1430.35,-55.8208 L 1429.86,-55.6875 L 1429.35,-55.607
 L 1428.83,-55.58 z
M 539.986,-55.607 L 539.477,-55.6875 L 538.98,-55.8208 L 538.499,-56.0054 L 538.04,-56.2392 L 537.608,-56.5196
 L 537.208,-56.8437 L 536.844,-57.2079 L 536.52,-57.6081 L 536.239,-58.04 L 536.005,-58.4989 L 535.821,-58.9796
 L 535.688,-59.4771 L 535.607,-59.9857 L 535.58,-60.5 L 535.607,-61.0143 L 535.688,-61.5229 L 535.821,-62.0204
 L 536.005,-62.5011 L 536.239,-62.96 L 536.52,-63.3919 L 536.844,-63.7921 L 537.208,-64.1563 L 537.608,-64.4804
 L 537.95,-64.7024 L 537.95,-74 L 538.006,-74.5302 L 538.17,-75.0372 L 538.437,-75.4988 L 538.794,-75.895
 L 539.225,-76.2084 L 539.712,-76.4252 L 540.233,-76.536 L 540.767,-76.536 L 541.288,-76.4252 L 541.775,-76.2084
 L 542.206,-75.895 L 542.563,-75.4988 L 542.83,-75.0372 L 542.994,-74.5302 L 543.05,-74 L 543.05,-64.7024
 L 543.392,-64.4804 L 543.792,-64.1563 L 544.156,-63.7921 L 544.48,-63.3919 L 544.761,-62.96 L 544.995,-62.5011
 L 545.179,-62.0204 L 545.312,-61.5229 L 545.393,-61.0143 L 545.42,-60.5 L 545.393,-59.9857 L 545.312,-59.4771
 L 545.179,-58.9796 L 544.995,-58.4989 L 544.761,-58.04 L 544.48,-57.6081 L 544.156,-57.2079 L 543.792,-56.8437
 L 543.392,-56.5196 L 542.96,-56.2392 L 542.501,-56.0054 L 542.02,-55.8208 L 541.523,-55.6875 L 541.014,-55.607
 L 540.5,-55.58 z
M 362.319,-55.607 L 361.81,-55.6875 L 361.313,-55.8208 L 360.832,-56.0054 L 360.373,-56.2392 L 359.941,-56.5196
 L 359.541,-56.8437 L 359.177,-57.2079 L 358.853,-57.6081 L 358.572,-58.04 L 358.339,-58.4989 L 358.154,-58.9796
 L 358.021,-59.4771 L 357.94,-59.9857 L 357.913,-60.5 L 357.94,-61.0143 L 358.021,-61.5229 L 358.154,-62.0204
 L 358.339,-62.5011 L 358.572,-62.96 L 358.853,-63.3919 L 359.177,-63.7921 L 359.541,-64.1563 L 359.941,-64.4804
 L 360.283,-64.7024 L 360.283,-74 L 360.339,-74.5302 L 360.504,-75.0372 L 360.77,-75.4988 L 361.127,-75.895
 L 361.558,-76.2084 L 362.045,-76.4252 L 362.567,-76.536 L 363.1,-76.536 L 363.621,-76.4252 L 364.108,-76.2084
 L 364.54,-75.895 L 364.896,-75.4988 L 365.163,-75.0372 L 365.328,-74.5302 L 365.383,-74 L 365.383,-64.7024
 L 365.725,-64.4804 L 366.125,-64.1563 L 366.49,-63.7921 L 366.814,-63.3919 L 367.094,-62.96 L 367.328,-62.5011
 L 367.513,-62.0204 L 367.646,-61.5229 L 367.726,-61.0143 L 367.753,-60.5 L 367.726,-59.9857 L 367.646,-59.4771
 L 367.513,-58.9796 L 367.328,-58.4989 L 367.094,-58.04 L 366.814,-57.6081 L 366.49,-57.2079 L 366.125,-56.8437
 L 365.725,-56.5196 L 365.293,-56.2392 L 364.834,-56.0054 L 364.354,-55.8208 L 363.856,-55.6875 L 363.348,-55.607
 L 362.833,-55.58 z
M 1605.99,-55.607 L 1605.48,-55.6875 L 1604.98,-55.8208 L 1604.5,-56.0054 L 1604.04,-56.2392 L 1603.61,-56.5196
 L 1603.21,-56.8437 L 1602.84,-57.2079 L 1602.52,-57.6081 L 1602.24,-58.04 L 1602.01,-58.4989 L 1601.82,-58.9796
 L 1601.69,-59.4771 L 1601.61,-59.9857 L 1601.58,-60.5 L 1601.61,-61.0143 L 1601.69,-61.5229 L 1601.82,-62.0204
 L 1602.01,-62.5011 L 1602.24,-62.96 L 1602.52,-63.3919 L 1602.84,-63.7921 L 1603.21,-64.1563 L 1603.61,-64.4804
 L 1603.95,-64.7024 L 1603.95,-74 L 1604.01,-74.5302 L 1604.17,-75.0372 L 1604.44,-75.4988 L 1604.79,-75.895
 L 1605.23,-76.2084 L 1605.71,-76.4252 L 1606.23,-76.536 L 1606.77,-76.536 L 1607.29,-76.4252 L 1607.77,-76.2084
 L 1608.21,-75.895 L 1608.56,-75.4988 L 1608.83,-75.0372 L 1608.99,-74.5302 L 1609.05,-74 L 1609.05,-64.7024
 L 1609.39,-64.4804 L 1609.79,-64.1563 L 1610.16,-63.7921 L 1610.48,-63.3919 L 1610.76,-62.96 L 1610.99,-62.5011
 L 1611.18,-62.0204 L 1611.31,-61.5229 L 1611.39,-61.0143 L 1611.42,-60.5 L 1611.39,-59.9857 L 1611.31,-59.4771
 L 1611.18,-58.9796 L 1610.99,-58.4989 L 1610.76,-58.04 L 1610.48,-57.6081 L 1610.16,-57.2079 L 1609.79,-56.8437
 L 1609.39,-56.5196 L 1608.96,-56.2392 L 1608.5,-56.0054 L 1608.02,-55.8208 L 1607.52,-55.6875 L 1607.01,-55.607
 L 1606.5,-55.58 z
M 184.652,-55.607 L 184.144,-55.6875 L 183.646,-55.8208 L 183.166,-56.0054 L 182.707,-56.2392 L 182.275,-56.5196
 L 181.875,-56.8437 L 181.51,-57.2079 L 181.186,-57.6081 L 180.906,-58.04 L 180.672,-58.4989 L 180.487,-58.9796
 L 180.354,-59.4771 L 180.274,-59.9857 L 180.247,-60.5 L 180.274,-61.0143 L 180.354,-61.5229 L 180.487,-62.0204
 L 180.672,-62.5011 L 180.906,-62.96 L 181.186,-63.3919 L 181.51,-63.7921 L 181.875,-64.1563 L 182.275,-64.4804
 L 182.617,-64.7024 L 182.617,-74 L 182.672,-74.5302 L 182.837,-75.0372 L 183.104,-75.4988 L 183.46,-75.895
 L 183.892,-76.2084 L 184.379,-76.4252 L 184.9,-76.536 L 185.433,-76.536 L 185.955,-76.4252 L 186.442,-76.2084
 L 186.873,-75.895 L 187.23,-75.4988 L 187.496,-75.0372 L 187.661,-74.5302 L 187.717,-74 L 187.717,-64.7024
 L 188.059,-64.4804 L 188.459,-64.1563 L 188.823,-63.7921 L 189.147,-63.3919 L 189.427,-62.96 L 189.661,-62.5011
 L 189.846,-62.0204 L 189.979,-61.5229 L 190.06,-61.0143 L 190.087,-60.5 L 190.06,-59.9857 L 189.979,-59.4771
 L 189.846,-58.9796 L 189.661,-58.4989 L 189.427,-58.04 L 189.147,-57.6081 L 188.823,-57.2079 L 188.459,-56.8437
 L 188.059,-56.5196 L 187.627,-56.2392 L 187.168,-56.0054 L 186.687,-55.8208 L 186.19,-55.6875 L 185.681,-55.607
 L 185.167,-55.58 z
M 1085.46,-21.0142 L 1084.68,-21.3146 L 1083.98,-21.7708 L 1083.39,-22.3626 L 1082.93,-23.0644 L 1082.64,-23.8454
 L 1082.5,-24.8769 L 1082.5,-58 L 1082.59,-58.8316 L 1082.85,-59.627 L 1083.26,-60.3511 L 1083.82,-60.9726
 L 1084.5,-61.4641 L 1085.26,-61.8042 L 1086.5,-62 L 1173.04,-62 L 1173.87,-61.9126 L 1174.67,-61.6542
 L 1175.39,-61.2361 L 1176.01,-60.6765 L 1176.51,-60 L 1176.85,-59.2361 L 1177.02,-58.4181 L 1177.02,-57.5819
 L 1176.85,-56.7639 L 1176.51,-56 L 1176.01,-55.3235 L 1175.39,-54.7639 L 1174.47,-54.2643 L 1087.93,-21.1411
 L 1087.12,-20.9255 L 1086.29,-20.8826 z
M 907.794,-21.0142 L 907.014,-21.3146 L 906.313,-21.7708 L 905.722,-22.3626 L 905.268,-23.0644 L 904.969,-23.8454
 L 904.833,-24.8769 L 904.833,-58 L 904.921,-58.8316 L 905.179,-59.627 L 905.597,-60.3511 L 906.157,-60.9726
 L 906.833,-61.4641 L 907.597,-61.8042 L 908.833,-62 L 995.376,-62 L 996.207,-61.9126 L 997.003,-61.6542
 L 997.727,-61.2361 L 998.348,-60.6765 L 998.84,-60 L 999.18,-59.2361 L 999.354,-58.4181 L 999.354,-57.5819
 L 999.18,-56.7639 L 998.84,-56 L 998.348,-55.3235 L 997.727,-54.7639 L 996.805,-54.2643 L 910.263,-21.1411
 L 909.455,-20.9255 L 908.62,-20.8826 z
M 806.378,-47.8112 L 805.57,-48.0269 L 789.273,-54.2643 L 788.352,-54.7639 L 787.731,-55.3235 L 787.239,-56
 L 786.899,-56.7639 L 786.725,-57.5819 L 786.725,-58.4181 L 786.899,-59.2361 L 787.239,-60 L 787.731,-60.6765
 L 788.352,-61.2361 L 789.076,-61.6542 L 789.872,-61.9126 L 790.703,-62 L 823.297,-62 L 824.336,-61.8627
 L 825.116,-61.5622 L 825.817,-61.1061 L 826.408,-60.5142 L 826.862,-59.8125 L 827.161,-59.0315 L 827.291,-58.2054
 L 827.247,-57.3704 L 827.03,-56.5629 L 826.649,-55.8182 L 826.122,-55.1688 L 825.472,-54.6432 L 824.726,-54.2643
 L 808.43,-48.0269 L 807.213,-47.7683 z
M 704.545,-20.9255 L 703.737,-21.1411 L 617.195,-54.2643 L 616.273,-54.7639 L 615.652,-55.3235 L 615.16,-56
 L 614.82,-56.7639 L 614.646,-57.5819 L 614.646,-58.4181 L 614.82,-59.2361 L 615.16,-60 L 615.652,-60.6765
 L 616.273,-61.2361 L 616.997,-61.6542 L 617.793,-61.9126 L 618.624,-62 L 705.167,-62 L 706.403,-61.8042
 L 707.167,-61.4641 L 707.843,-60.9726 L 708.403,-60.3511 L 708.821,-59.627 L 709.079,-58.8316 L 709.167,-58
 L 709.167,-24.8769 L 709.031,-23.8454 L 708.732,-23.0644 L 708.278,-22.3626 L 707.687,-21.7708 L 706.986,-21.3146
 L 706.206,-21.0142 L 705.38,-20.8826 z
M 526.878,-20.9255 L 526.07,-21.1411 L 439.528,-54.2643 L 438.607,-54.7639 L 437.985,-55.3235 L 437.494,-56
 L 437.153,-56.7639 L 436.98,-57.5819 L 436.98,-58.4181 L 437.153,-59.2361 L 437.494,-60 L 437.985,-60.6765
 L 438.607,-61.2361 L 439.331,-61.6542 L 440.126,-61.9126 L 440.958,-62 L 527.5,-62 L 528.736,-61.8042
 L 529.5,-61.4641 L 530.177,-60.9726 L 530.736,-60.3511 L 531.154,-59.627 L 531.413,-58.8316 L 531.5,-58
 L 531.5,-24.8769 L 531.365,-23.8454 L 531.066,-23.0644 L 530.611,-22.3626 L 530.02,-21.7708 L 529.319,-21.3146
 L 528.539,-21.0142 L 527.713,-20.8826 z
M 349.211,-20.9255 L 348.404,-21.1411 L 261.861,-54.2643 L 260.94,-54.7639 L 260.318,-55.3235 L 259.827,-56
 L 259.487,-56.7639 L 259.313,-57.5819 L 259.313,-58.4181 L 259.487,-59.2361 L 259.827,-60 L 260.318,-60.6765
 L 260.94,-61.2361 L 261.664,-61.6542 L 262.459,-61.9126 L 263.291,-62 L 349.833,-62 L 351.069,-61.8042
 L 351.833,-61.4641 L 352.51,-60.9726 L 353.069,-60.3511 L 353.487,-59.627 L 353.746,-58.8316 L 353.833,-58
 L 353.833,-24.8769 L 353.698,-23.8454 L 353.399,-23.0644 L 352.944,-22.3626 L 352.354,-21.7708 L 351.653,-21.3146
 L 350.872,-21.0142 L 350.047,-20.8826 z
M 1440.79,-21.0142 L 1440.01,-21.3146 L 1439.31,-21.7708 L 1438.72,-22.3626 L 1438.27,-23.0644 L 1437.97,-23.8454
 L 1437.83,-24.8769 L 1437.83,-58 L 1437.92,-58.8316 L 1438.18,-59.627 L 1438.6,-60.3511 L 1439.16,-60.9726
 L 1439.83,-61.4641 L 1440.6,-61.8042 L 1441.83,-62 L 1528.38,-62 L 1529.21,-61.9126 L 1530,-61.6542
 L 1530.73,-61.2361 L 1531.35,-60.6765 L 1531.84,-60 L 1532.18,-59.2361 L 1532.35,-58.4181 L 1532.35,-57.5819
 L 1532.18,-56.7639 L 1531.84,-56 L 1531.35,-55.3235 L 1530.73,-54.7639 L 1529.81,-54.2643 L 1443.26,-21.1411
 L 1442.46,-20.9255 L 1441.62,-20.8826 z
M 171.545,-20.9255 L 170.737,-21.1411 L 84.1946,-54.2643 L 83.2733,-54.7639 L 82.6518,-55.3235 L 82.1603,-56
 L 81.8202,-56.7639 L 81.6463,-57.5819 L 81.6463,-58.4181 L 81.8202,-59.2361 L 82.1603,-60 L 82.6518,-60.6765
 L 83.2733,-61.2361 L 83.9974,-61.6542 L 84.7927,-61.9126 L 85.6244,-62 L 172.167,-62 L 173.403,-61.8042
 L 174.167,-61.4641 L 174.843,-60.9726 L 175.403,-60.3511 L 175.821,-59.627 L 176.079,-58.8316 L 176.167,-58
 L 176.167,-24.8769 L 176.031,-23.8454 L 175.732,-23.0644 L 175.278,-22.3626 L 174.687,-21.7708 L 173.986,-21.3146
 L 173.206,-21.0142 L 172.38,-20.8826 z
M 1263.13,-21.0142 L 1262.35,-21.3146 L 1261.65,-21.7708 L 1261.06,-22.3626 L 1260.6,-23.0644 L 1260.3,-23.8454
 L 1260.17,-24.8769 L 1260.17,-58 L 1260.25,-58.8316 L 1260.51,-59.627 L 1260.93,-60.3511 L 1261.49,-60.9726
 L 1262.17,-61.4641 L 1262.93,-61.8042 L 1264.17,-62 L 1350.71,-62 L 1351.54,-61.9126 L 1352.34,-61.6542
 L 1353.06,-61.2361 L 1353.68,-60.6765 L 1354.17,-60 L 1354.51,-59.2361 L 1354.69,-58.4181 L 1354.69,-57.5819
 L 1354.51,-56.7639 L 1354.17,-56 L 1353.68,-55.3235 L 1353.06,-54.7639 L 1352.14,-54.2643 L 1265.6,-21.1411
 L 1264.79,-20.9255 L 1263.95,-20.8826 z
M 730.749,-18.7601 L 729.931,-18.934 L 729.167,-19.2741 L 728.49,-19.7657 L 727.931,-20.3871 L 727.512,-21.1113
 L 727.254,-21.9066 L 727.167,-22.7382 L 727.167,-57.2618 L 727.302,-58.2932 L 727.601,-59.0742 L 728.056,-59.776
 L 728.646,-60.3679 L 729.347,-60.824 L 730.128,-61.1245 L 730.953,-61.2561 L 731.789,-61.2131 L 732.596,-60.9975
 L 777.697,-43.7357 L 778.087,-43.5622 L 778.788,-43.1061 L 779.378,-42.5142 L 779.833,-41.8125 L 780.132,-41.0315
 L 780.262,-40.2054 L 780.217,-39.3704 L 780,-38.5629 L 779.62,-37.8182 L 779.093,-37.1688 L 778.443,-36.6432
 L 777.697,-36.2643 L 732.596,-19.0025 L 731.585,-18.7601 z
M 882.211,-18.7868 L 881.404,-19.0025 L 836.303,-36.2643 L 835.913,-36.4378 L 835.212,-36.8939 L 834.622,-37.4858
 L 834.167,-38.1875 L 833.868,-38.9685 L 833.738,-39.7946 L 833.783,-40.6296 L 834,-41.4371 L 834.38,-42.1818
 L 834.907,-42.8312 L 835.557,-43.3568 L 836.303,-43.7357 L 881.404,-60.9975 L 882.415,-61.2399 L 883.251,-61.2399
 L 884.069,-61.066 L 884.833,-60.7259 L 885.51,-60.2344 L 886.069,-59.6129 L 886.487,-58.8887 L 886.746,-58.0934
 L 886.833,-57.2618 L 886.833,-22.7382 L 886.698,-21.7067 L 886.399,-20.9258 L 885.944,-20.224 L 885.354,-19.6321
 L 884.653,-19.176 L 883.872,-18.8755 L 883.047,-18.7439 z
M 198.167,-18 L 196.931,-18.1958 L 196.167,-18.5359 L 195.49,-19.0274 L 194.931,-19.6489 L 194.512,-20.373
 L 194.254,-21.1684 L 194.167,-22 L 194.167,-55.1231 L 194.302,-56.1546 L 194.601,-56.9356 L 195.056,-57.6373
 L 195.646,-58.2292 L 196.347,-58.6853 L 197.128,-58.9858 L 197.953,-59.1174 L 198.789,-59.0745 L 199.596,-58.8588
 L 286.139,-25.7357 L 287.06,-25.2361 L 287.681,-24.6765 L 288.173,-24 L 288.513,-23.2361 L 288.687,-22.4181
 L 288.687,-21.5819 L 288.513,-20.7639 L 288.173,-20 L 287.681,-19.3235 L 287.06,-18.7639 L 286.336,-18.3458
 L 285.541,-18.0874 L 284.709,-18 z
M 375.833,-18 L 374.597,-18.1958 L 373.833,-18.5359 L 373.157,-19.0274 L 372.597,-19.6489 L 372.179,-20.373
 L 371.921,-21.1684 L 371.833,-22 L 371.833,-55.1231 L 371.969,-56.1546 L 372.268,-56.9356 L 372.722,-57.6373
 L 373.313,-58.2292 L 374.014,-58.6853 L 374.794,-58.9858 L 375.62,-59.1174 L 376.455,-59.0745 L 377.263,-58.8588
 L 463.805,-25.7357 L 464.727,-25.2361 L 465.348,-24.6765 L 465.84,-24 L 466.18,-23.2361 L 466.354,-22.4181
 L 466.354,-21.5819 L 466.18,-20.7639 L 465.84,-20 L 465.348,-19.3235 L 464.727,-18.7639 L 464.003,-18.3458
 L 463.207,-18.0874 L 462.376,-18 z
M 553.5,-18 L 552.264,-18.1958 L 551.5,-18.5359 L 550.823,-19.0274 L 550.264,-19.6489 L 549.846,-20.373
 L 549.587,-21.1684 L 549.5,-22 L 549.5,-55.1231 L 549.635,-56.1546 L 549.934,-56.9356 L 550.389,-57.6373
 L 550.98,-58.2292 L 551.681,-58.6853 L 552.461,-58.9858 L 553.287,-59.1174 L 554.122,-59.0745 L 554.93,-58.8588
 L 641.472,-25.7357 L 642.393,-25.2361 L 643.015,-24.6765 L 643.506,-24 L 643.846,-23.2361 L 644.02,-22.4181
 L 644.02,-21.5819 L 643.846,-20.7639 L 643.506,-20 L 643.015,-19.3235 L 642.393,-18.7639 L 641.669,-18.3458
 L 640.874,-18.0874 L 640.042,-18 z
M 973.958,-18 L 973.126,-18.0874 L 972.331,-18.3458 L 971.607,-18.7639 L 970.985,-19.3235 L 970.494,-20
 L 970.154,-20.7639 L 969.98,-21.5819 L 969.98,-22.4181 L 970.154,-23.2361 L 970.494,-24 L 970.985,-24.6765
 L 971.607,-25.2361 L 972.528,-25.7357 L 1059.07,-58.8588 L 1059.88,-59.0745 L 1060.71,-59.1174 L 1061.54,-58.9858
 L 1062.32,-58.6853 L 1063.02,-58.2292 L 1063.61,-57.6373 L 1064.07,-56.9356 L 1064.36,-56.1546 L 1064.5,-55.1231
 L 1064.5,-22 L 1064.41,-21.1684 L 1064.15,-20.373 L 1063.74,-19.6489 L 1063.18,-19.0274 L 1062.5,-18.5359
 L 1061.74,-18.1958 L 1060.5,-18 z
M 1151.62,-18 L 1150.79,-18.0874 L 1150,-18.3458 L 1149.27,-18.7639 L 1148.65,-19.3235 L 1148.16,-20
 L 1147.82,-20.7639 L 1147.65,-21.5819 L 1147.65,-22.4181 L 1147.82,-23.2361 L 1148.16,-24 L 1148.65,-24.6765
 L 1149.27,-25.2361 L 1150.19,-25.7357 L 1236.74,-58.8588 L 1237.54,-59.0745 L 1238.38,-59.1174 L 1239.21,-58.9858
 L 1239.99,-58.6853 L 1240.69,-58.2292 L 1241.28,-57.6373 L 1241.73,-56.9356 L 1242.03,-56.1546 L 1242.17,-55.1231
 L 1242.17,-22 L 1242.08,-21.1684 L 1241.82,-20.373 L 1241.4,-19.6489 L 1240.84,-19.0274 L 1240.17,-18.5359
 L 1239.4,-18.1958 L 1238.17,-18 z
M 1329.29,-18 L 1328.46,-18.0874 L 1327.66,-18.3458 L 1326.94,-18.7639 L 1326.32,-19.3235 L 1325.83,-20
 L 1325.49,-20.7639 L 1325.31,-21.5819 L 1325.31,-22.4181 L 1325.49,-23.2361 L 1325.83,-24 L 1326.32,-24.6765
 L 1326.94,-25.2361 L 1327.86,-25.7357 L 1414.4,-58.8588 L 1415.21,-59.0745 L 1416.05,-59.1174 L 1416.87,-58.9858
 L 1417.65,-58.6853 L 1418.35,-58.2292 L 1418.94,-57.6373 L 1419.4,-56.9356 L 1419.7,-56.1546 L 1419.83,-55.1231
 L 1419.83,-22 L 1419.75,-21.1684 L 1419.49,-20.373 L 1419.07,-19.6489 L 1418.51,-19.0274 L 1417.83,-18.5359
 L 1417.07,-18.1958 L 1415.83,-18 z
M 22,-18 L 20.7639,-18.1958 L 20,-18.5359 L 19.3235,-19.0274 L 18.7639,-19.6489 L 18.3458,-20.373
 L 18.0874,-21.1684 L 18,-22 L 18,-54.549 L 18.1353,-55.5805 L 18.4342,-56.3615 L 18.8889,-57.0632
 L 19.4797,-57.6551 L 20.1805,-58.1112 L 20.9609,-58.4117 L 21.7867,-58.5433 L 22.6219,-58.5004 L 23.4298,-58.2847
 L 108.472,-25.7357 L 109.393,-25.2361 L 110.015,-24.6765 L 110.506,-24 L 110.846,-23.2361 L 111.02,-22.4181
 L 111.02,-21.5819 L 110.846,-20.7639 L 110.506,-20 L 110.015,-19.3235 L 109.393,-18.7639 L 108.669,-18.3458
 L 107.874,-18.0874 L 107.042,-18 z
M 1506.96,-18 L 1506.13,-18.0874 L 1505.33,-18.3458 L 1504.61,-18.7639 L 1503.99,-19.3235 L 1503.49,-20
 L 1503.15,-20.7639 L 1502.98,-21.5819 L 1502.98,-22.4181 L 1503.15,-23.2361 L 1503.49,-24 L 1503.99,-24.6765
 L 1504.61,-25.2361 L 1505.53,-25.7357 L 1590.57,-58.2847 L 1591.38,-58.5004 L 1592.21,-58.5433 L 1593.04,-58.4117
 L 1593.82,-58.1112 L 1594.52,-57.6551 L 1595.11,-57.0632 L 1595.57,-56.3615 L 1595.86,-55.5805 L 1596,-54.549
 L 1596,-22 L 1595.91,-21.1684 L 1595.65,-20.373 L 1595.24,-19.6489 L 1594.68,-19.0274 L 1594,-18.5359
 L 1593.24,-18.1958 L 1592,-18 z
M 790.703,-18 L 789.664,-18.1373 L 788.884,-18.4378 L 788.183,-18.8939 L 787.592,-19.4858 L 787.137,-20.1875
 L 786.839,-20.9685 L 786.709,-21.7946 L 786.753,-22.6296 L 786.97,-23.4371 L 787.351,-24.1818 L 787.878,-24.8312
 L 788.528,-25.3568 L 789.273,-25.7357 L 805.57,-31.9731 L 806.787,-32.2317 L 807.622,-32.1888 L 808.43,-31.9731
 L 824.726,-25.7357 L 825.648,-25.2361 L 826.269,-24.6765 L 826.761,-24 L 827.101,-23.2361 L 827.275,-22.4181
 L 827.275,-21.5819 L 827.101,-20.7639 L 826.761,-20 L 826.269,-19.3235 L 825.648,-18.7639 L 824.924,-18.3458
 L 824.128,-18.0874 L 823.297,-18 z
" stroke="black" fill="lightgray" stroke-width="0.5"/>
</svg>
