<?xml version="1.0" standalone="no"?>
<!DOCTYPE svg PUBLIC "-//W3C//DTD SVG 1.1//EN" "http://www.w3.org/Graphics/SVG/1.1/DTD/svg11.dtd">
<svg width="1349mm" height="80mm" viewBox="0 -80 1349 80" xmlns="http://www.w3.org/2000/svg" version="1.1">
<title>OpenSCAD Model</title>
<path d="
M 1349,-80 L 0,-80 L 0,-0 L 4.95,-0 L 4.95,-6 L 5.00572,-6.53017
 L 5.17046,-7.03717 L 5.437,-7.49884 L 5.79372,-7.895 L 6.22499,-8.20836 L 6.71201,-8.42519 L 7.23344,-8.53603
 L 7.76654,-8.53603 L 8.28798,-8.42519 L 8.77499,-8.20836 L 9.20627,-7.895 L 9.56299,-7.49884 L 9.82953,-7.03717
 L 9.99426,-6.53017 L 10.05,-6 L 10.05,-0 L 195.521,-0 L 195.521,-6 L 195.577,-6.53017
 L 195.742,-7.03717 L 196.008,-7.49884 L 196.365,-7.895 L 196.796,-8.20836 L 197.283,-8.42519 L 197.805,-8.53603
 L 198.338,-8.53603 L 198.859,-8.42519 L 199.346,-8.20836 L 199.778,-7.895 L 200.134,-7.49884 L 200.401,-7.03717
 L 200.566,-6.53017 L 200.621,-6 L 200.621,-0 L 386.093,-0 L 386.093,-6 L 386.149,-6.53017
 L 386.313,-7.03717 L 386.58,-7.49884 L 386.937,-7.895 L 387.368,-8.20836 L 387.855,-8.42519 L 388.376,-8.53603
 L 388.909,-8.53603 L 389.431,-8.42519 L 389.918,-8.20836 L 390.349,-7.895 L 390.706,-7.49884 L 390.972,-7.03717
 L 391.137,-6.53017 L 391.193,-6 L 391.193,-0 L 576.664,-0 L 576.664,-6 L 576.72,-6.53017
 L 576.885,-7.03717 L 577.151,-7.49884 L 577.508,-7.895 L 577.939,-8.20836 L 578.426,-8.42519 L 578.948,-8.53603
 L 579.481,-8.53603 L 580.002,-8.42519 L 580.489,-8.20836 L 580.921,-7.895 L 581.277,-7.49884 L 581.544,-7.03717
 L 581.709,-6.53017 L 581.764,-6 L 581.764,-0 L 767.236,-0 L 767.236,-6 L 767.291,-6.53017
 L 767.456,-7.03717 L 767.723,-7.49884 L 768.079,-7.895 L 768.511,-8.20836 L 768.998,-8.42519 L 769.519,-8.53603
 L 770.052,-8.53603 L 770.574,-8.42519 L 771.061,-8.20836 L 771.492,-7.895 L 771.849,-7.49884 L 772.115,-7.03717
 L 772.28,-6.53017 L 772.336,-6 L 772.336,-0 L 957.807,-0 L 957.807,-6 L 957.863,-6.53017
 L 958.028,-7.03717 L 958.294,-7.49884 L 958.651,-7.895 L 959.082,-8.20836 L 959.569,-8.42519 L 960.091,-8.53603
 L 960.624,-8.53603 L 961.145,-8.42519 L 961.632,-8.20836 L 962.063,-7.895 L 962.42,-7.49884 L 962.687,-7.03717
 L 962.851,-6.53017 L 962.907,-6 L 962.907,-0 L 1148.38,-0 L 1148.38,-6 L 1148.43,-6.53017
 L 1148.6,-7.03717 L 1148.87,-7.49884 L 1149.22,-7.895 L 1149.65,-8.20836 L 1150.14,-8.42519 L 1150.66,-8.53603
 L 1151.2,-8.53603 L 1151.72,-8.42519 L 1152.2,-8.20836 L 1152.63,-7.895 L 1152.99,-7.49884 L 1153.26,-7.03717
 L 1153.42,-6.53017 L 1153.48,-6 L 1153.48,-0 L 1338.95,-0 L 1338.95,-6 L 1339.01,-6.53017
 L 1339.17,-7.03717 L 1339.44,-7.49884 L 1339.79,-7.895 L 1340.22,-8.20836 L 1340.71,-8.42519 L 1341.23,-8.53603
 L 1341.77,-8.53603 L 1342.29,-8.42519 L 1342.77,-8.20836 L 1343.21,-7.895 L 1343.56,-7.49884 L 1343.83,-7.03717
 L 1343.99,-6.53017 L 1344.05,-6 L 1344.05,-0 L 1349,-0 z
M 6.98573,-55.607 L 6.47708,-55.6875 L 5.97964,-55.8208 L 5.49887,-56.0054 L 5.04001,-56.2392 L 4.60811,-56.5196
 L 4.20789,-56.8437 L 3.84373,-57.2079 L 3.51964,-57.6081 L 3.23917,-58.04 L 3.00537,-58.4989 L 2.82082,-58.9796
 L 2.68752,-59.4771 L 2.60696,-59.9857 L 2.58,-60.5 L 2.60696,-61.0143 L 2.68752,-61.5229 L 2.82082,-62.0204
 L 3.00537,-62.5011 L 3.23917,-62.96 L 3.51964,-63.3919 L 3.84373,-63.7921 L 4.20789,-64.1563 L 4.60811,-64.4804
 L 4.95001,-64.7024 L 4.95001,-74 L 5.00574,-74.5302 L 5.17047,-75.0372 L 5.43701,-75.4988 L 5.79373,-75.895
 L 6.22501,-76.2084 L 6.71202,-76.4252 L 7.23346,-76.536 L 7.76654,-76.536 L 8.28798,-76.4252 L 8.77499,-76.2084
 L 9.20627,-75.895 L 9.56299,-75.4988 L 9.82953,-75.0372 L 9.99426,-74.5302 L 10.05,-74 L 10.05,-64.7024
 L 10.3919,-64.4804 L 10.7921,-64.1563 L 11.1563,-63.7921 L 11.4804,-63.3919 L 11.7608,-62.96 L 11.9946,-62.5011
 L 12.1792,-62.0204 L 12.3125,-61.5229 L 12.393,-61.0143 L 12.42,-60.5 L 12.393,-59.9857 L 12.3125,-59.4771
 L 12.1792,-58.9796 L 11.9946,-58.4989 L 11.7608,-58.04 L 11.4804,-57.6081 L 11.1563,-57.2079 L 10.7921,-56.8437
 L 10.3919,-56.5196 L 9.95999,-56.2392 L 9.50113,-56.0054 L 9.02036,-55.8208 L 8.52292,-55.6875 L 8.01427,-55.607
 L 7.5,-55.58 z
M 197.557,-55.607 L 197.049,-55.6875 L 196.551,-55.8208 L 196.07,-56.0054 L 195.611,-56.2392 L 195.18,-56.5196
 L 194.779,-56.8437 L 194.415,-57.2079 L 194.091,-57.6081 L 193.811,-58.04 L 193.577,-58.4989 L 193.392,-58.9796
 L 193.259,-59.4771 L 193.178,-59.9857 L 193.151,-60.5 L 193.178,-61.0143 L 193.259,-61.5229 L 193.392,-62.0204
 L 193.577,-62.5011 L 193.811,-62.96 L 194.091,-63.3919 L 194.415,-63.7921 L 194.779,-64.1563 L 195.18,-64.4804
 L 195.521,-64.7024 L 195.521,-74 L 195.577,-74.5302 L 195.742,-75.0372 L 196.008,-75.4988 L 196.365,-75.895
 L 196.796,-76.2084 L 197.283,-76.4252 L 197.805,-76.536 L 198.338,-76.536 L 198.859,-76.4252 L 199.346,-76.2084
 L 199.778,-75.895 L 200.134,-75.4988 L 200.401,-75.0372 L 200.566,-74.5302 L 200.621,-74 L 200.621,-64.7024
 L 200.963,-64.4804 L 201.364,-64.1563 L 201.728,-63.7921 L 202.052,-63.3919 L 202.332,-62.96 L 202.566,-62.5011
 L 202.751,-62.0204 L 202.884,-61.5229 L 202.964,-61.0143 L 202.991,-60.5 L 202.964,-59.9857 L 202.884,-59.4771
 L 202.751,-58.9796 L 202.566,-58.4989 L 202.332,-58.04 L 202.052,-57.6081 L 201.728,-57.2079 L 201.364,-56.8437
 L 200.963,-56.5196 L 200.531,-56.2392 L 200.073,-56.0054 L 199.592,-55.8208 L 199.094,-55.6875 L 198.586,-55.607
 L 198.071,-55.58 z
M 388.129,-55.607 L 387.62,-55.6875 L 387.122,-55.8208 L 386.642,-56.0054 L 386.183,-56.2392 L 385.751,-56.5196
 L 385.351,-56.8437 L 384.987,-57.2079 L 384.662,-57.6081 L 384.382,-58.04 L 384.148,-58.4989 L 383.964,-58.9796
 L 383.83,-59.4771 L 383.75,-59.9857 L 383.723,-60.5 L 383.75,-61.0143 L 383.83,-61.5229 L 383.964,-62.0204
 L 384.148,-62.5011 L 384.382,-62.96 L 384.662,-63.3919 L 384.987,-63.7921 L 385.351,-64.1563 L 385.751,-64.4804
 L 386.093,-64.7024 L 386.093,-74 L 386.149,-74.5302 L 386.313,-75.0372 L 386.58,-75.4988 L 386.937,-75.895
 L 387.368,-76.2084 L 387.855,-76.4252 L 388.376,-76.536 L 388.909,-76.536 L 389.431,-76.4252 L 389.918,-76.2084
 L 390.349,-75.895 L 390.706,-75.4988 L 390.972,-75.0372 L 391.137,-74.5302 L 391.193,-74 L 391.193,-64.7024
 L 391.535,-64.4804 L 391.935,-64.1563 L 392.299,-63.7921 L 392.623,-63.3919 L 392.904,-62.96 L 393.137,-62.5011
 L 393.322,-62.0204 L 393.455,-61.5229 L 393.536,-61.0143 L 393.563,-60.5 L 393.536,-59.9857 L 393.455,-59.4771
 L 393.322,-58.9796 L 393.137,-58.4989 L 392.904,-58.04 L 392.623,-57.6081 L 392.299,-57.2079 L 391.935,-56.8437
 L 391.535,-56.5196 L 391.103,-56.2392 L 390.644,-56.0054 L 390.163,-55.8208 L 389.666,-55.6875 L 389.157,-55.607
 L 388.643,-55.58 z
M 578.7,-55.607 L 578.191,-55.6875 L 577.694,-55.8208 L 577.213,-56.0054 L 576.754,-56.2392 L 576.322,-56.5196
 L 575.922,-56.8437 L 575.558,-57.2079 L 575.234,-57.6081 L 574.953,-58.04 L 574.72,-58.4989 L 574.535,-58.9796
 L 574.402,-59.4771 L 574.321,-59.9857 L 574.294,-60.5 L 574.321,-61.0143 L 574.402,-61.5229 L 574.535,-62.0204
 L 574.72,-62.5011 L 574.953,-62.96 L 575.234,-63.3919 L 575.558,-63.7921 L 575.922,-64.1563 L 576.322,-64.4804
 L 576.664,-64.7024 L 576.664,-74 L 576.72,-74.5302 L 576.885,-75.0372 L 577.151,-75.4988 L 577.508,-75.895
 L 577.939,-76.2084 L 578.426,-76.4252 L 578.948,-76.536 L 579.481,-76.536 L 580.002,-76.4252 L 580.489,-76.2084
 L 580.921,-75.895 L 581.277,-75.4988 L 581.544,-75.0372 L 581.709,-74.5302 L 581.764,-74 L 581.764,-64.7024
 L 582.106,-64.4804 L 582.506,-64.1563 L 582.871,-63.7921 L 583.195,-63.3919 L 583.475,-62.96 L 583.709,-62.5011
 L 583.893,-62.0204 L 584.027,-61.5229 L 584.107,-61.0143 L 584.134,-60.5 L 584.107,-59.9857 L 584.027,-59.4771
 L 583.893,-58.9796 L 583.709,-58.4989 L 583.475,-58.04 L 583.195,-57.6081 L 582.871,-57.2079 L 582.506,-56.8437
 L 582.106,-56.5196 L 581.674,-56.2392 L 581.215,-56.0054 L 580.735,-55.8208 L 580.237,-55.6875 L 579.729,-55.607
 L 579.214,-55.58 z
M 769.271,-55.607 L 768.763,-55.6875 L 768.265,-55.8208 L 767.785,-56.0054 L 767.326,-56.2392 L 766.894,-56.5196
 L 766.494,-56.8437 L 766.129,-57.2079 L 765.805,-57.6081 L 765.525,-58.04 L 765.291,-58.4989 L 765.107,-58.9796
 L 764.973,-59.4771 L 764.893,-59.9857 L 764.866,-60.5 L 764.893,-61.0143 L 764.973,-61.5229 L 765.107,-62.0204
 L 765.291,-62.5011 L 765.525,-62.96 L 765.805,-63.3919 L 766.129,-63.7921 L 766.494,-64.1563 L 766.894,-64.4804
 L 767.236,-64.7024 L 767.236,-74 L 767.291,-74.5302 L 767.456,-75.0372 L 767.723,-75.4988 L 768.079,-75.895
 L 768.511,-76.2084 L 768.998,-76.4252 L 769.519,-76.536 L 770.052,-76.536 L 770.574,-76.4252 L 771.061,-76.2084
 L 771.492,-75.895 L 771.849,-75.4988 L 772.115,-75.0372 L 772.28,-74.5302 L 772.336,-74 L 772.336,-64.7024
 L 772.678,-64.4804 L 773.078,-64.1563 L 773.442,-63.7921 L 773.766,-63.3919 L 774.047,-62.96 L 774.28,-62.5011
 L 774.465,-62.0204 L 774.598,-61.5229 L 774.679,-61.0143 L 774.706,-60.5 L 774.679,-59.9857 L 774.598,-59.4771
 L 774.465,-58.9796 L 774.28,-58.4989 L 774.047,-58.04 L 773.766,-57.6081 L 773.442,-57.2079 L 773.078,-56.8437
 L 772.678,-56.5196 L 772.246,-56.2392 L 771.787,-56.0054 L 771.306,-55.8208 L 770.809,-55.6875 L 770.3,-55.607
 L 769.786,-55.58 z
M 959.843,-55.607 L 959.334,-55.6875 L 958.837,-55.8208 L 958.356,-56.0054 L 957.897,-56.2392 L 957.465,-56.5196
 L 957.065,-56.8437 L 956.701,-57.2079 L 956.377,-57.6081 L 956.096,-58.04 L 955.863,-58.4989 L 955.678,-58.9796
 L 955.545,-59.4771 L 955.464,-59.9857 L 955.437,-60.5 L 955.464,-61.0143 L 955.545,-61.5229 L 955.678,-62.0204
 L 955.863,-62.5011 L 956.096,-62.96 L 956.377,-63.3919 L 956.701,-63.7921 L 957.065,-64.1563 L 957.465,-64.4804
 L 957.807,-64.7024 L 957.807,-74 L 957.863,-74.5302 L 958.028,-75.0372 L 958.294,-75.4988 L 958.651,-75.895
 L 959.082,-76.2084 L 959.569,-76.4252 L 960.091,-76.536 L 960.624,-76.536 L 961.145,-76.4252 L 961.632,-76.2084
 L 962.063,-75.895 L 962.42,-75.4988 L 962.687,-75.0372 L 962.851,-74.5302 L 962.907,-74 L 962.907,-64.7024
 L 963.249,-64.4804 L 963.649,-64.1563 L 964.013,-63.7921 L 964.337,-63.3919 L 964.618,-62.96 L 964.852,-62.5011
 L 965.036,-62.0204 L 965.17,-61.5229 L 965.25,-61.0143 L 965.277,-60.5 L 965.25,-59.9857 L 965.17,-59.4771
 L 965.036,-58.9796 L 964.852,-58.4989 L 964.618,-58.04 L 964.337,-57.6081 L 964.013,-57.2079 L 963.649,-56.8437
 L 963.249,-56.5196 L 962.817,-56.2392 L 962.358,-56.0054 L 961.877,-55.8208 L 961.38,-55.6875 L 960.871,-55.607
 L 960.357,-55.58 z
M 1150.41,-55.607 L 1149.91,-55.6875 L 1149.41,-55.8208 L 1148.93,-56.0054 L 1148.47,-56.2392 L 1148.04,-56.5196
 L 1147.64,-56.8437 L 1147.27,-57.2079 L 1146.95,-57.6081 L 1146.67,-58.04 L 1146.43,-58.4989 L 1146.25,-58.9796
 L 1146.12,-59.4771 L 1146.04,-59.9857 L 1146.01,-60.5 L 1146.04,-61.0143 L 1146.12,-61.5229 L 1146.25,-62.0204
 L 1146.43,-62.5011 L 1146.67,-62.96 L 1146.95,-63.3919 L 1147.27,-63.7921 L 1147.64,-64.1563 L 1148.04,-64.4804
 L 1148.38,-64.7024 L 1148.38,-74 L 1148.43,-74.5302 L 1148.6,-75.0372 L 1148.87,-75.4988 L 1149.22,-75.895
 L 1149.65,-76.2084 L 1150.14,-76.4252 L 1150.66,-76.536 L 1151.2,-76.536 L 1151.72,-76.4252 L 1152.2,-76.2084
 L 1152.63,-75.895 L 1152.99,-75.4988 L 1153.26,-75.0372 L 1153.42,-74.5302 L 1153.48,-74 L 1153.48,-64.7024
 L 1153.82,-64.4804 L 1154.22,-64.1563 L 1154.58,-63.7921 L 1154.91,-63.3919 L 1155.19,-62.96 L 1155.42,-62.5011
 L 1155.61,-62.0204 L 1155.74,-61.5229 L 1155.82,-61.0143 L 1155.85,-60.5 L 1155.82,-59.9857 L 1155.74,-59.4771
 L 1155.61,-58.9796 L 1155.42,-58.4989 L 1155.19,-58.04 L 1154.91,-57.6081 L 1154.58,-57.2079 L 1154.22,-56.8437
 L 1153.82,-56.5196 L 1153.39,-56.2392 L 1152.93,-56.0054 L 1152.45,-55.8208 L 1151.95,-55.6875 L 1151.44,-55.607
 L 1150.93,-55.58 z
M 1340.99,-55.607 L 1340.48,-55.6875 L 1339.98,-55.8208 L 1339.5,-56.0054 L 1339.04,-56.2392 L 1338.61,-56.5196
 L 1338.21,-56.8437 L 1337.84,-57.2079 L 1337.52,-57.6081 L 1337.24,-58.04 L 1337.01,-58.4989 L 1336.82,-58.9796
 L 1336.69,-59.4771 L 1336.61,-59.9857 L 1336.58,-60.5 L 1336.61,-61.0143 L 1336.69,-61.5229 L 1336.82,-62.0204
 L 1337.01,-62.5011 L 1337.24,-62.96 L 1337.52,-63.3919 L 1337.84,-63.7921 L 1338.21,-64.1563 L 1338.61,-64.4804
 L 1338.95,-64.7024 L 1338.95,-74 L 1339.01,-74.5302 L 1339.17,-75.0372 L 1339.44,-75.4988 L 1339.79,-75.895
 L 1340.23,-76.2084 L 1340.71,-76.4252 L 1341.23,-76.536 L 1341.77,-76.536 L 1342.29,-76.4252 L 1342.77,-76.2084
 L 1343.21,-75.895 L 1343.56,-75.4988 L 1343.83,-75.0372 L 1343.99,-74.5302 L 1344.05,-74 L 1344.05,-64.7024
 L 1344.39,-64.4804 L 1344.79,-64.1563 L 1345.16,-63.7921 L 1345.48,-63.3919 L 1345.76,-62.96 L 1345.99,-62.5011
 L 1346.18,-62.0204 L 1346.31,-61.5229 L 1346.39,-61.0143 L 1346.42,-60.5 L 1346.39,-59.9857 L 1346.31,-59.4771
 L 1346.18,-58.9796 L 1345.99,-58.4989 L 1345.76,-58.04 L 1345.48,-57.6081 L 1345.16,-57.2079 L 1344.79,-56.8437
 L 1344.39,-56.5196 L 1343.96,-56.2392 L 1343.5,-56.0054 L 1343.02,-55.8208 L 1342.52,-55.6875 L 1342.01,-55.607
 L 1341.5,-55.58 z
M 781.659,-20.5978 L 780.886,-20.916 L 780.195,-21.388 L 779.618,-21.9932 L 779.18,-22.7051 L 778.898,-23.4927
 L 778.786,-24.4358 L 778.786,-58 L 778.873,-58.8316 L 779.132,-59.627 L 779.55,-60.3511 L 780.109,-60.9726
 L 780.786,-61.4641 L 781.55,-61.8042 L 782.786,-62 L 876.85,-62 L 877.682,-61.9126 L 878.477,-61.6542
 L 879.201,-61.2361 L 879.823,-60.6765 L 880.314,-60 L 880.654,-59.2361 L 880.828,-58.4181 L 880.828,-57.5819
 L 880.654,-56.7639 L 880.314,-56 L 879.823,-55.3235 L 879.201,-54.7639 L 878.194,-54.2327 L 784.13,-20.6685
 L 783.317,-20.4713 L 782.481,-20.4474 z
M 673.968,-47.71 L 673.156,-47.9072 L 655.428,-54.2327 L 654.422,-54.7639 L 653.8,-55.3235 L 653.309,-56
 L 652.968,-56.7639 L 652.795,-57.5819 L 652.795,-58.4181 L 652.968,-59.2361 L 653.309,-60 L 653.8,-60.6765
 L 654.422,-61.2361 L 655.146,-61.6542 L 655.941,-61.9126 L 656.773,-62 L 692.227,-62 L 693.354,-61.838
 L 694.127,-61.5198 L 694.818,-61.0479 L 695.395,-60.4427 L 695.833,-59.7307 L 696.115,-58.9431 L 696.226,-58.1143
 L 696.162,-57.2805 L 695.926,-56.4781 L 695.529,-55.7423 L 694.988,-55.1051 L 694.325,-54.5945 L 693.572,-54.2327
 L 675.844,-47.9072 L 674.804,-47.6861 z
M 565.683,-20.4713 L 564.87,-20.6685 L 470.806,-54.2327 L 469.799,-54.7639 L 469.177,-55.3235 L 468.686,-56
 L 468.346,-56.7639 L 468.172,-57.5819 L 468.172,-58.4181 L 468.346,-59.2361 L 468.686,-60 L 469.177,-60.6765
 L 469.799,-61.2361 L 470.523,-61.6542 L 471.318,-61.9126 L 472.15,-62 L 566.214,-62 L 567.45,-61.8042
 L 568.214,-61.4641 L 568.891,-60.9726 L 569.45,-60.3511 L 569.868,-59.627 L 570.127,-58.8316 L 570.214,-58
 L 570.214,-24.4358 L 570.102,-23.4927 L 569.82,-22.7051 L 569.382,-21.9932 L 568.805,-21.388 L 568.114,-20.916
 L 567.341,-20.5978 L 566.519,-20.4474 z
M 375.111,-20.4713 L 374.299,-20.6685 L 280.234,-54.2327 L 279.227,-54.7639 L 278.606,-55.3235 L 278.114,-56
 L 277.774,-56.7639 L 277.6,-57.5819 L 277.6,-58.4181 L 277.774,-59.2361 L 278.114,-60 L 278.606,-60.6765
 L 279.227,-61.2361 L 279.952,-61.6542 L 280.747,-61.9126 L 281.579,-62 L 375.643,-62 L 376.879,-61.8042
 L 377.643,-61.4641 L 378.319,-60.9726 L 378.879,-60.3511 L 379.297,-59.627 L 379.555,-58.8316 L 379.643,-58
 L 379.643,-24.4358 L 379.53,-23.4927 L 379.249,-22.7051 L 378.81,-21.9932 L 378.233,-21.388 L 377.543,-20.916
 L 376.77,-20.5978 L 375.947,-20.4474 z
M 1162.8,-20.5978 L 1162.03,-20.916 L 1161.34,-21.388 L 1160.76,-21.9932 L 1160.32,-22.7051 L 1160.04,-23.4927
 L 1159.93,-24.4358 L 1159.93,-58 L 1160.02,-58.8316 L 1160.27,-59.627 L 1160.69,-60.3511 L 1161.25,-60.9726
 L 1161.93,-61.4641 L 1162.69,-61.8042 L 1163.93,-62 L 1257.99,-62 L 1258.82,-61.9126 L 1259.62,-61.6542
 L 1260.34,-61.2361 L 1260.97,-60.6765 L 1261.46,-60 L 1261.8,-59.2361 L 1261.97,-58.4181 L 1261.97,-57.5819
 L 1261.8,-56.7639 L 1261.46,-56 L 1260.97,-55.3235 L 1260.34,-54.7639 L 1259.34,-54.2327 L 1165.27,-20.6685
 L 1164.46,-20.4713 L 1163.62,-20.4474 z
M 184.54,-20.4713 L 183.727,-20.6685 L 89.6629,-54.2327 L 88.656,-54.7639 L 88.0346,-55.3235 L 87.543,-56
 L 87.2029,-56.7639 L 87.0291,-57.5819 L 87.0291,-58.4181 L 87.2029,-59.2361 L 87.543,-60 L 88.0346,-60.6765
 L 88.656,-61.2361 L 89.3802,-61.6542 L 90.1755,-61.9126 L 91.0071,-62 L 185.071,-62 L 186.307,-61.8042
 L 187.071,-61.4641 L 187.748,-60.9726 L 188.307,-60.3511 L 188.726,-59.627 L 188.984,-58.8316 L 189.071,-58
 L 189.071,-24.4358 L 188.959,-23.4927 L 188.678,-22.7051 L 188.239,-21.9932 L 187.662,-21.388 L 186.972,-20.916
 L 186.198,-20.5978 L 185.376,-20.4474 z
M 972.23,-20.5978 L 971.457,-20.916 L 970.767,-21.388 L 970.19,-21.9932 L 969.751,-22.7051 L 969.47,-23.4927
 L 969.357,-24.4358 L 969.357,-58 L 969.445,-58.8316 L 969.703,-59.627 L 970.121,-60.3511 L 970.681,-60.9726
 L 971.357,-61.4641 L 972.121,-61.8042 L 973.357,-62 L 1067.42,-62 L 1068.25,-61.9126 L 1069.05,-61.6542
 L 1069.77,-61.2361 L 1070.39,-60.6765 L 1070.89,-60 L 1071.23,-59.2361 L 1071.4,-58.4181 L 1071.4,-57.5819
 L 1071.23,-56.7639 L 1070.89,-56 L 1070.39,-55.3235 L 1069.77,-54.7639 L 1068.77,-54.2327 L 974.701,-20.6685
 L 973.889,-20.4713 L 973.053,-20.4474 z
M 591.796,-18.3351 L 590.978,-18.509 L 590.214,-18.8491 L 589.538,-19.3406 L 588.978,-19.9621 L 588.56,-20.6862
 L 588.302,-21.4816 L 588.214,-22.3132 L 588.214,-57.6868 L 588.327,-58.6299 L 588.608,-59.4175 L 589.047,-60.1295
 L 589.624,-60.7346 L 590.314,-61.2066 L 591.087,-61.5248 L 591.91,-61.6752 L 592.746,-61.6513 L 593.559,-61.4541
 L 643.126,-43.7673 L 643.682,-43.5198 L 644.372,-43.0479 L 644.949,-42.4427 L 645.388,-41.7307 L 645.669,-40.9431
 L 645.78,-40.1143 L 645.717,-39.2805 L 645.481,-38.4781 L 645.084,-37.7423 L 644.542,-37.1051 L 643.88,-36.5945
 L 643.126,-36.2327 L 593.559,-18.5459 L 592.632,-18.3351 z
M 756.254,-18.3487 L 755.441,-18.5458 L 705.874,-36.2327 L 705.318,-36.4802 L 704.628,-36.9521 L 704.05,-37.5573
 L 703.612,-38.2693 L 703.331,-39.0569 L 703.22,-39.8857 L 703.283,-40.7195 L 703.519,-41.5219 L 703.916,-42.2577
 L 704.458,-42.8949 L 705.12,-43.4055 L 705.874,-43.7673 L 755.441,-61.4542 L 756.368,-61.6649 L 757.204,-61.6649
 L 758.022,-61.491 L 758.786,-61.1509 L 759.462,-60.6594 L 760.022,-60.0379 L 760.44,-59.3138 L 760.698,-58.5185
 L 760.786,-57.6868 L 760.786,-22.3132 L 760.673,-21.3701 L 760.392,-20.5825 L 759.953,-19.8705 L 759.376,-19.2653
 L 758.686,-18.7934 L 757.913,-18.4752 L 757.09,-18.3248 z
M 211.071,-18 L 209.835,-18.1958 L 209.071,-18.5359 L 208.395,-19.0274 L 207.835,-19.6489 L 207.417,-20.373
 L 207.159,-21.1684 L 207.071,-22 L 207.071,-55.5641 L 207.184,-56.5073 L 207.465,-57.2948 L 207.904,-58.0068
 L 208.481,-58.612 L 209.171,-59.084 L 209.945,-59.4021 L 210.767,-59.5526 L 211.603,-59.5287 L 212.416,-59.3315
 L 306.48,-25.7673 L 307.487,-25.2361 L 308.108,-24.6765 L 308.6,-24 L 308.94,-23.2361 L 309.114,-22.4181
 L 309.114,-21.5819 L 308.94,-20.7639 L 308.6,-20 L 308.108,-19.3235 L 307.487,-18.7639 L 306.763,-18.3458
 L 305.967,-18.0874 L 305.136,-18 z
M 401.643,-18 L 400.407,-18.1958 L 399.643,-18.5359 L 398.966,-19.0274 L 398.407,-19.6489 L 397.989,-20.373
 L 397.73,-21.1684 L 397.643,-22 L 397.643,-55.5641 L 397.756,-56.5073 L 398.037,-57.2948 L 398.475,-58.0068
 L 399.052,-58.612 L 399.743,-59.084 L 400.516,-59.4021 L 401.339,-59.5526 L 402.174,-59.5287 L 402.987,-59.3315
 L 497.051,-25.7673 L 498.058,-25.2361 L 498.68,-24.6765 L 499.171,-24 L 499.511,-23.2361 L 499.685,-22.4181
 L 499.685,-21.5819 L 499.511,-20.7639 L 499.171,-20 L 498.68,-19.3235 L 498.058,-18.7639 L 497.334,-18.3458
 L 496.539,-18.0874 L 495.707,-18 z
M 853.293,-18 L 852.461,-18.0874 L 851.666,-18.3458 L 850.942,-18.7639 L 850.32,-19.3235 L 849.829,-20
 L 849.489,-20.7639 L 849.315,-21.5819 L 849.315,-22.4181 L 849.489,-23.2361 L 849.829,-24 L 850.32,-24.6765
 L 850.942,-25.2361 L 851.949,-25.7673 L 946.013,-59.3315 L 946.826,-59.5287 L 947.661,-59.5526 L 948.484,-59.4021
 L 949.257,-59.084 L 949.948,-58.612 L 950.525,-58.0068 L 950.963,-57.2948 L 951.244,-56.5073 L 951.357,-55.5641
 L 951.357,-22 L 951.27,-21.1684 L 951.011,-20.373 L 950.593,-19.6489 L 950.034,-19.0274 L 949.357,-18.5359
 L 948.593,-18.1958 L 947.357,-18 z
M 1043.86,-18 L 1043.03,-18.0874 L 1042.24,-18.3458 L 1041.51,-18.7639 L 1040.89,-19.3235 L 1040.4,-20
 L 1040.06,-20.7639 L 1039.89,-21.5819 L 1039.89,-22.4181 L 1040.06,-23.2361 L 1040.4,-24 L 1040.89,-24.6765
 L 1041.51,-25.2361 L 1042.52,-25.7673 L 1136.58,-59.3315 L 1137.4,-59.5287 L 1138.23,-59.5526 L 1139.06,-59.4021
 L 1139.83,-59.084 L 1140.52,-58.612 L 1141.1,-58.0068 L 1141.53,-57.2948 L 1141.82,-56.5073 L 1141.93,-55.5641
 L 1141.93,-22 L 1141.84,-21.1684 L 1141.58,-20.373 L 1141.16,-19.6489 L 1140.61,-19.0274 L 1139.93,-18.5359
 L 1139.16,-18.1958 L 1137.93,-18 z
M 22,-18 L 20.7639,-18.1958 L 20,-18.5359 L 19.3235,-19.0274 L 18.7639,-19.6489 L 18.3458,-20.373
 L 18.0874,-21.1684 L 18,-22 L 18,-55.0289 L 18.1128,-55.972 L 18.3938,-56.7596 L 18.8324,-57.4716
 L 19.4095,-58.0768 L 20.0998,-58.5488 L 20.8731,-58.8669 L 21.6957,-59.0173 L 22.5316,-58.9934 L 23.3443,-58.7963
 L 115.909,-25.7673 L 116.915,-25.2361 L 117.537,-24.6765 L 118.028,-24 L 118.368,-23.2361 L 118.542,-22.4181
 L 118.542,-21.5819 L 118.368,-20.7639 L 118.028,-20 L 117.537,-19.3235 L 116.915,-18.7639 L 116.191,-18.3458
 L 115.396,-18.0874 L 114.564,-18 z
M 1234.44,-18 L 1233.6,-18.0874 L 1232.81,-18.3458 L 1232.08,-18.7639 L 1231.46,-19.3235 L 1230.97,-20
 L 1230.63,-20.7639 L 1230.46,-21.5819 L 1230.46,-22.4181 L 1230.63,-23.2361 L 1230.97,-24 L 1231.46,-24.6765
 L 1232.08,-25.2361 L 1233.09,-25.7673 L 1325.66,-58.7963 L 1326.47,-58.9934 L 1327.3,-59.0173 L 1328.13,-58.8669
 L 1328.9,-58.5488 L 1329.59,-58.0768 L 1330.17,-57.4716 L 1330.61,-56.7596 L 1330.89,-55.972 L 1331,-55.0289
 L 1331,-22 L 1330.91,-21.1684 L 1330.65,-20.373 L 1330.24,-19.6489 L 1329.68,-19.0274 L 1329,-18.5359
 L 1328.24,-18.1958 L 1327,-18 z
M 656.773,-18 L 655.646,-18.162 L 654.872,-18.4802 L 654.182,-18.9521 L 653.605,-19.5573 L 653.166,-20.2693
 L 652.885,-21.0569 L 652.774,-21.8857 L 652.838,-22.7195 L 653.073,-23.5219 L 653.471,-24.2577 L 654.012,-24.8949
 L 654.674,-25.4055 L 655.428,-25.7673 L 673.156,-32.0928 L 674.196,-32.3139 L 675.032,-32.29 L 675.844,-32.0928
 L 693.572,-25.7673 L 694.578,-25.2361 L 695.2,-24.6765 L 695.691,-24 L 696.032,-23.2361 L 696.205,-22.4181
 L 696.205,-21.5819 L 696.032,-20.7639 L 695.691,-20 L 695.2,-19.3235 L 694.578,-18.7639 L 693.854,-18.3458
 L 693.059,-18.0874 L 692.227,-18 z
" stroke="black" fill="lightgray" stroke-width="0.5"/>
</svg>
