<?xml version="1.0" standalone="no"?>
<!DOCTYPE svg PUBLIC "-//W3C//DTD SVG 1.1//EN" "http://www.w3.org/Graphics/SVG/1.1/DTD/svg11.dtd">
<svg width="1057mm" height="80mm" viewBox="0 -80 1057 80" xmlns="http://www.w3.org/2000/svg" version="1.1">
<title>OpenSCAD Model</title>
<path d="
M 1057,-80 L 0,-80 L 0,-0 L 4.95,-0 L 4.95,-6 L 5.00572,-6.53017
 L 5.17046,-7.03717 L 5.437,-7.49884 L 5.79372,-7.895 L 6.22499,-8.20836 L 6.71201,-8.42519 L 7.23344,-8.53603
 L 7.76654,-8.53603 L 8.28798,-8.42519 L 8.77499,-8.20836 L 9.20627,-7.895 L 9.56299,-7.49884 L 9.82953,-7.03717
 L 9.99426,-6.53017 L 10.05,-6 L 10.05,-0 L 178.617,-0 L 178.617,-6 L 178.672,-6.53017
 L 178.837,-7.03717 L 179.104,-7.49884 L 179.46,-7.895 L 179.892,-8.20836 L 180.379,-8.42519 L 180.9,-8.53603
 L 181.433,-8.53603 L 181.955,-8.42519 L 182.442,-8.20836 L 182.873,-7.895 L 183.23,-7.49884 L 183.496,-7.03717
 L 183.661,-6.53017 L 183.717,-6 L 183.717,-0 L 352.283,-0 L 352.283,-6 L 352.339,-6.53017
 L 352.504,-7.03717 L 352.77,-7.49884 L 353.127,-7.895 L 353.558,-8.20836 L 354.045,-8.42519 L 354.567,-8.53603
 L 355.1,-8.53603 L 355.621,-8.42519 L 356.108,-8.20836 L 356.54,-7.895 L 356.896,-7.49884 L 357.163,-7.03717
 L 357.328,-6.53017 L 357.383,-6 L 357.383,-0 L 525.95,-0 L 525.95,-6 L 526.006,-6.53017
 L 526.17,-7.03717 L 526.437,-7.49884 L 526.794,-7.895 L 527.225,-8.20836 L 527.712,-8.42519 L 528.233,-8.53603
 L 528.767,-8.53603 L 529.288,-8.42519 L 529.775,-8.20836 L 530.206,-7.895 L 530.563,-7.49884 L 530.83,-7.03717
 L 530.994,-6.53017 L 531.05,-6 L 531.05,-0 L 699.617,-0 L 699.617,-6 L 699.672,-6.53017
 L 699.837,-7.03717 L 700.104,-7.49884 L 700.46,-7.895 L 700.892,-8.20836 L 701.379,-8.42519 L 701.9,-8.53603
 L 702.433,-8.53603 L 702.955,-8.42519 L 703.442,-8.20836 L 703.873,-7.895 L 704.23,-7.49884 L 704.496,-7.03717
 L 704.661,-6.53017 L 704.717,-6 L 704.717,-0 L 873.283,-0 L 873.283,-6 L 873.339,-6.53017
 L 873.504,-7.03717 L 873.77,-7.49884 L 874.127,-7.895 L 874.558,-8.20836 L 875.045,-8.42519 L 875.567,-8.53603
 L 876.1,-8.53603 L 876.621,-8.42519 L 877.108,-8.20836 L 877.54,-7.895 L 877.896,-7.49884 L 878.163,-7.03717
 L 878.328,-6.53017 L 878.383,-6 L 878.383,-0 L 1046.95,-0 L 1046.95,-6 L 1047.01,-6.53017
 L 1047.17,-7.03717 L 1047.44,-7.49884 L 1047.79,-7.895 L 1048.22,-8.20836 L 1048.71,-8.42519 L 1049.23,-8.53603
 L 1049.77,-8.53603 L 1050.29,-8.42519 L 1050.77,-8.20836 L 1051.21,-7.895 L 1051.56,-7.49884 L 1051.83,-7.03717
 L 1051.99,-6.53017 L 1052.05,-6 L 1052.05,-0 L 1057,-0 z
M 6.98573,-55.607 L 6.47708,-55.6875 L 5.97964,-55.8208 L 5.49887,-56.0054 L 5.04001,-56.2392 L 4.60811,-56.5196
 L 4.20789,-56.8437 L 3.84373,-57.2079 L 3.51964,-57.6081 L 3.23917,-58.04 L 3.00537,-58.4989 L 2.82082,-58.9796
 L 2.68752,-59.4771 L 2.60696,-59.9857 L 2.58,-60.5 L 2.60696,-61.0143 L 2.68752,-61.5229 L 2.82082,-62.0204
 L 3.00537,-62.5011 L 3.23917,-62.96 L 3.51964,-63.3919 L 3.84373,-63.7921 L 4.20789,-64.1563 L 4.60811,-64.4804
 L 4.95001,-64.7024 L 4.95001,-74 L 5.00574,-74.5302 L 5.17047,-75.0372 L 5.43701,-75.4988 L 5.79373,-75.895
 L 6.22501,-76.2084 L 6.71202,-76.4252 L 7.23346,-76.536 L 7.76654,-76.536 L 8.28798,-76.4252 L 8.77499,-76.2084
 L 9.20627,-75.895 L 9.56299,-75.4988 L 9.82953,-75.0372 L 9.99426,-74.5302 L 10.05,-74 L 10.05,-64.7024
 L 10.3919,-64.4804 L 10.7921,-64.1563 L 11.1563,-63.7921 L 11.4804,-63.3919 L 11.7608,-62.96 L 11.9946,-62.5011
 L 12.1792,-62.0204 L 12.3125,-61.5229 L 12.393,-61.0143 L 12.42,-60.5 L 12.393,-59.9857 L 12.3125,-59.4771
 L 12.1792,-58.9796 L 11.9946,-58.4989 L 11.7608,-58.04 L 11.4804,-57.6081 L 11.1563,-57.2079 L 10.7921,-56.8437
 L 10.3919,-56.5196 L 9.95999,-56.2392 L 9.50113,-56.0054 L 9.02036,-55.8208 L 8.52292,-55.6875 L 8.01427,-55.607
 L 7.5,-55.58 z
M 180.652,-55.607 L 180.144,-55.6875 L 179.646,-55.8208 L 179.166,-56.0054 L 178.707,-56.2392 L 178.275,-56.5196
 L 177.875,-56.8437 L 177.51,-57.2079 L 177.186,-57.6081 L 176.906,-58.04 L 176.672,-58.4989 L 176.487,-58.9796
 L 176.354,-59.4771 L 176.274,-59.9857 L 176.247,-60.5 L 176.274,-61.0143 L 176.354,-61.5229 L 176.487,-62.0204
 L 176.672,-62.5011 L 176.906,-62.96 L 177.186,-63.3919 L 177.51,-63.7921 L 177.875,-64.1563 L 178.275,-64.4804
 L 178.617,-64.7024 L 178.617,-74 L 178.672,-74.5302 L 178.837,-75.0372 L 179.104,-75.4988 L 179.46,-75.895
 L 179.892,-76.2084 L 180.379,-76.4252 L 180.9,-76.536 L 181.433,-76.536 L 181.955,-76.4252 L 182.442,-76.2084
 L 182.873,-75.895 L 183.23,-75.4988 L 183.496,-75.0372 L 183.661,-74.5302 L 183.717,-74 L 183.717,-64.7024
 L 184.059,-64.4804 L 184.459,-64.1563 L 184.823,-63.7921 L 185.147,-63.3919 L 185.427,-62.96 L 185.661,-62.5011
 L 185.846,-62.0204 L 185.979,-61.5229 L 186.06,-61.0143 L 186.087,-60.5 L 186.06,-59.9857 L 185.979,-59.4771
 L 185.846,-58.9796 L 185.661,-58.4989 L 185.427,-58.04 L 185.147,-57.6081 L 184.823,-57.2079 L 184.459,-56.8437
 L 184.059,-56.5196 L 183.627,-56.2392 L 183.168,-56.0054 L 182.687,-55.8208 L 182.19,-55.6875 L 181.681,-55.607
 L 181.167,-55.58 z
M 354.319,-55.607 L 353.81,-55.6875 L 353.313,-55.8208 L 352.832,-56.0054 L 352.373,-56.2392 L 351.941,-56.5196
 L 351.541,-56.8437 L 351.177,-57.2079 L 350.853,-57.6081 L 350.572,-58.04 L 350.339,-58.4989 L 350.154,-58.9796
 L 350.021,-59.4771 L 349.94,-59.9857 L 349.913,-60.5 L 349.94,-61.0143 L 350.021,-61.5229 L 350.154,-62.0204
 L 350.339,-62.5011 L 350.572,-62.96 L 350.853,-63.3919 L 351.177,-63.7921 L 351.541,-64.1563 L 351.941,-64.4804
 L 352.283,-64.7024 L 352.283,-74 L 352.339,-74.5302 L 352.504,-75.0372 L 352.77,-75.4988 L 353.127,-75.895
 L 353.558,-76.2084 L 354.045,-76.4252 L 354.567,-76.536 L 355.1,-76.536 L 355.621,-76.4252 L 356.108,-76.2084
 L 356.54,-75.895 L 356.896,-75.4988 L 357.163,-75.0372 L 357.328,-74.5302 L 357.383,-74 L 357.383,-64.7024
 L 357.725,-64.4804 L 358.125,-64.1563 L 358.49,-63.7921 L 358.814,-63.3919 L 359.094,-62.96 L 359.328,-62.5011
 L 359.513,-62.0204 L 359.646,-61.5229 L 359.726,-61.0143 L 359.753,-60.5 L 359.726,-59.9857 L 359.646,-59.4771
 L 359.513,-58.9796 L 359.328,-58.4989 L 359.094,-58.04 L 358.814,-57.6081 L 358.49,-57.2079 L 358.125,-56.8437
 L 357.725,-56.5196 L 357.293,-56.2392 L 356.834,-56.0054 L 356.354,-55.8208 L 355.856,-55.6875 L 355.348,-55.607
 L 354.833,-55.58 z
M 527.986,-55.607 L 527.477,-55.6875 L 526.98,-55.8208 L 526.499,-56.0054 L 526.04,-56.2392 L 525.608,-56.5196
 L 525.208,-56.8437 L 524.844,-57.2079 L 524.52,-57.6081 L 524.239,-58.04 L 524.005,-58.4989 L 523.821,-58.9796
 L 523.688,-59.4771 L 523.607,-59.9857 L 523.58,-60.5 L 523.607,-61.0143 L 523.688,-61.5229 L 523.821,-62.0204
 L 524.005,-62.5011 L 524.239,-62.96 L 524.52,-63.3919 L 524.844,-63.7921 L 525.208,-64.1563 L 525.608,-64.4804
 L 525.95,-64.7024 L 525.95,-74 L 526.006,-74.5302 L 526.17,-75.0372 L 526.437,-75.4988 L 526.794,-75.895
 L 527.225,-76.2084 L 527.712,-76.4252 L 528.233,-76.536 L 528.767,-76.536 L 529.288,-76.4252 L 529.775,-76.2084
 L 530.206,-75.895 L 530.563,-75.4988 L 530.83,-75.0372 L 530.994,-74.5302 L 531.05,-74 L 531.05,-64.7024
 L 531.392,-64.4804 L 531.792,-64.1563 L 532.156,-63.7921 L 532.48,-63.3919 L 532.761,-62.96 L 532.995,-62.5011
 L 533.179,-62.0204 L 533.312,-61.5229 L 533.393,-61.0143 L 533.42,-60.5 L 533.393,-59.9857 L 533.312,-59.4771
 L 533.179,-58.9796 L 532.995,-58.4989 L 532.761,-58.04 L 532.48,-57.6081 L 532.156,-57.2079 L 531.792,-56.8437
 L 531.392,-56.5196 L 530.96,-56.2392 L 530.501,-56.0054 L 530.02,-55.8208 L 529.523,-55.6875 L 529.014,-55.607
 L 528.5,-55.58 z
M 701.652,-55.607 L 701.144,-55.6875 L 700.646,-55.8208 L 700.166,-56.0054 L 699.707,-56.2392 L 699.275,-56.5196
 L 698.875,-56.8437 L 698.51,-57.2079 L 698.186,-57.6081 L 697.906,-58.04 L 697.672,-58.4989 L 697.487,-58.9796
 L 697.354,-59.4771 L 697.274,-59.9857 L 697.247,-60.5 L 697.274,-61.0143 L 697.354,-61.5229 L 697.487,-62.0204
 L 697.672,-62.5011 L 697.906,-62.96 L 698.186,-63.3919 L 698.51,-63.7921 L 698.875,-64.1563 L 699.275,-64.4804
 L 699.617,-64.7024 L 699.617,-74 L 699.672,-74.5302 L 699.837,-75.0372 L 700.104,-75.4988 L 700.46,-75.895
 L 700.892,-76.2084 L 701.379,-76.4252 L 701.9,-76.536 L 702.433,-76.536 L 702.955,-76.4252 L 703.442,-76.2084
 L 703.873,-75.895 L 704.23,-75.4988 L 704.496,-75.0372 L 704.661,-74.5302 L 704.717,-74 L 704.717,-64.7024
 L 705.059,-64.4804 L 705.459,-64.1563 L 705.823,-63.7921 L 706.147,-63.3919 L 706.427,-62.96 L 706.661,-62.5011
 L 706.846,-62.0204 L 706.979,-61.5229 L 707.06,-61.0143 L 707.087,-60.5 L 707.06,-59.9857 L 706.979,-59.4771
 L 706.846,-58.9796 L 706.661,-58.4989 L 706.427,-58.04 L 706.147,-57.6081 L 705.823,-57.2079 L 705.459,-56.8437
 L 705.059,-56.5196 L 704.627,-56.2392 L 704.168,-56.0054 L 703.687,-55.8208 L 703.19,-55.6875 L 702.681,-55.607
 L 702.167,-55.58 z
M 875.319,-55.607 L 874.81,-55.6875 L 874.313,-55.8208 L 873.832,-56.0054 L 873.373,-56.2392 L 872.941,-56.5196
 L 872.541,-56.8437 L 872.177,-57.2079 L 871.853,-57.6081 L 871.572,-58.04 L 871.339,-58.4989 L 871.154,-58.9796
 L 871.021,-59.4771 L 870.94,-59.9857 L 870.913,-60.5 L 870.94,-61.0143 L 871.021,-61.5229 L 871.154,-62.0204
 L 871.339,-62.5011 L 871.572,-62.96 L 871.853,-63.3919 L 872.177,-63.7921 L 872.541,-64.1563 L 872.941,-64.4804
 L 873.283,-64.7024 L 873.283,-74 L 873.339,-74.5302 L 873.504,-75.0372 L 873.77,-75.4988 L 874.127,-75.895
 L 874.558,-76.2084 L 875.045,-76.4252 L 875.567,-76.536 L 876.1,-76.536 L 876.621,-76.4252 L 877.108,-76.2084
 L 877.54,-75.895 L 877.896,-75.4988 L 878.163,-75.0372 L 878.328,-74.5302 L 878.383,-74 L 878.383,-64.7024
 L 878.725,-64.4804 L 879.125,-64.1563 L 879.49,-63.7921 L 879.814,-63.3919 L 880.094,-62.96 L 880.328,-62.5011
 L 880.513,-62.0204 L 880.646,-61.5229 L 880.726,-61.0143 L 880.753,-60.5 L 880.726,-59.9857 L 880.646,-59.4771
 L 880.513,-58.9796 L 880.328,-58.4989 L 880.094,-58.04 L 879.814,-57.6081 L 879.49,-57.2079 L 879.125,-56.8437
 L 878.725,-56.5196 L 878.293,-56.2392 L 877.834,-56.0054 L 877.354,-55.8208 L 876.856,-55.6875 L 876.348,-55.607
 L 875.833,-55.58 z
M 1048.99,-55.607 L 1048.48,-55.6875 L 1047.98,-55.8208 L 1047.5,-56.0054 L 1047.04,-56.2392 L 1046.61,-56.5196
 L 1046.21,-56.8437 L 1045.84,-57.2079 L 1045.52,-57.6081 L 1045.24,-58.04 L 1045.01,-58.4989 L 1044.82,-58.9796
 L 1044.69,-59.4771 L 1044.61,-59.9857 L 1044.58,-60.5 L 1044.61,-61.0143 L 1044.69,-61.5229 L 1044.82,-62.0204
 L 1045.01,-62.5011 L 1045.24,-62.96 L 1045.52,-63.3919 L 1045.84,-63.7921 L 1046.21,-64.1563 L 1046.61,-64.4804
 L 1046.95,-64.7024 L 1046.95,-74 L 1047.01,-74.5302 L 1047.17,-75.0372 L 1047.44,-75.4988 L 1047.79,-75.895
 L 1048.23,-76.2084 L 1048.71,-76.4252 L 1049.23,-76.536 L 1049.77,-76.536 L 1050.29,-76.4252 L 1050.77,-76.2084
 L 1051.21,-75.895 L 1051.56,-75.4988 L 1051.83,-75.0372 L 1051.99,-74.5302 L 1052.05,-74 L 1052.05,-64.7024
 L 1052.39,-64.4804 L 1052.79,-64.1563 L 1053.16,-63.7921 L 1053.48,-63.3919 L 1053.76,-62.96 L 1053.99,-62.5011
 L 1054.18,-62.0204 L 1054.31,-61.5229 L 1054.39,-61.0143 L 1054.42,-60.5 L 1054.39,-59.9857 L 1054.31,-59.4771
 L 1054.18,-58.9796 L 1053.99,-58.4989 L 1053.76,-58.04 L 1053.48,-57.6081 L 1053.16,-57.2079 L 1052.79,-56.8437
 L 1052.39,-56.5196 L 1051.96,-56.2392 L 1051.5,-56.0054 L 1051.02,-55.8208 L 1050.52,-55.6875 L 1050.01,-55.607
 L 1049.5,-55.58 z
M 887.824,-21.1661 L 887.041,-21.4606 L 886.337,-21.9113 L 885.742,-22.4987 L 885.282,-23.1969 L 884.977,-23.9756
 L 884.833,-25.0367 L 884.833,-58 L 884.921,-58.8316 L 885.179,-59.627 L 885.597,-60.3511 L 886.157,-60.9726
 L 886.833,-61.4641 L 887.597,-61.8042 L 888.833,-62 L 973.019,-62 L 973.851,-61.9126 L 974.646,-61.6542
 L 975.37,-61.2361 L 975.992,-60.6765 L 976.483,-60 L 976.823,-59.2361 L 976.997,-58.4181 L 976.997,-57.5819
 L 976.823,-56.7639 L 976.483,-56 L 975.992,-55.3235 L 975.37,-54.7639 L 974.477,-54.2753 L 890.292,-21.312
 L 889.485,-21.0902 L 888.651,-21.0408 z
M 341.181,-21.0902 L 340.375,-21.312 L 256.189,-54.2753 L 255.296,-54.7639 L 254.675,-55.3235 L 254.183,-56
 L 253.843,-56.7639 L 253.669,-57.5819 L 253.669,-58.4181 L 253.843,-59.2361 L 254.183,-60 L 254.675,-60.6765
 L 255.296,-61.2361 L 256.021,-61.6542 L 256.816,-61.9126 L 257.648,-62 L 341.833,-62 L 343.069,-61.8042
 L 343.833,-61.4641 L 344.51,-60.9726 L 345.069,-60.3511 L 345.487,-59.627 L 345.746,-58.8316 L 345.833,-58
 L 345.833,-25.0367 L 345.69,-23.9756 L 345.385,-23.1969 L 344.925,-22.4987 L 344.33,-21.9113 L 343.625,-21.4606
 L 342.843,-21.1661 L 342.016,-21.0408 z
M 167.515,-21.0902 L 166.708,-21.312 L 82.5225,-54.2753 L 81.6298,-54.7639 L 81.0083,-55.3235 L 80.5168,-56
 L 80.1767,-56.7639 L 80.0028,-57.5819 L 80.0028,-58.4181 L 80.1767,-59.2361 L 80.5168,-60 L 81.0083,-60.6765
 L 81.6298,-61.2361 L 82.3539,-61.6542 L 83.1492,-61.9126 L 83.9809,-62 L 168.167,-62 L 169.403,-61.8042
 L 170.167,-61.4641 L 170.843,-60.9726 L 171.403,-60.3511 L 171.821,-59.627 L 172.079,-58.8316 L 172.167,-58
 L 172.167,-25.0367 L 172.023,-23.9756 L 171.718,-23.1969 L 171.258,-22.4987 L 170.663,-21.9113 L 169.959,-21.4606
 L 169.176,-21.1661 L 168.349,-21.0408 z
M 514.848,-21.0902 L 514.042,-21.312 L 429.856,-54.2753 L 428.963,-54.7639 L 428.342,-55.3235 L 427.85,-56
 L 427.51,-56.7639 L 427.336,-57.5819 L 427.336,-58.4181 L 427.51,-59.2361 L 427.85,-60 L 428.342,-60.6765
 L 428.963,-61.2361 L 429.687,-61.6542 L 430.483,-61.9126 L 431.314,-62 L 515.5,-62 L 516.736,-61.8042
 L 517.5,-61.4641 L 518.177,-60.9726 L 518.736,-60.3511 L 519.154,-59.627 L 519.413,-58.8316 L 519.5,-58
 L 519.5,-25.0367 L 519.357,-23.9756 L 519.052,-23.1969 L 518.592,-22.4987 L 517.996,-21.9113 L 517.292,-21.4606
 L 516.509,-21.1661 L 515.683,-21.0408 z
M 540.491,-21.1661 L 539.708,-21.4606 L 539.004,-21.9113 L 538.408,-22.4987 L 537.948,-23.1969 L 537.643,-23.9756
 L 537.5,-25.0367 L 537.5,-58 L 537.587,-58.8316 L 537.846,-59.627 L 538.264,-60.3511 L 538.823,-60.9726
 L 539.5,-61.4641 L 540.264,-61.8042 L 541.5,-62 L 625.686,-62 L 626.517,-61.9126 L 627.313,-61.6542
 L 628.037,-61.2361 L 628.658,-60.6765 L 629.15,-60 L 629.49,-59.2361 L 629.664,-58.4181 L 629.664,-57.5819
 L 629.49,-56.7639 L 629.15,-56 L 628.658,-55.3235 L 628.037,-54.7639 L 627.144,-54.2753 L 542.958,-21.312
 L 542.152,-21.0902 L 541.317,-21.0408 z
M 714.157,-21.1661 L 713.375,-21.4606 L 712.67,-21.9113 L 712.075,-22.4987 L 711.615,-23.1969 L 711.31,-23.9756
 L 711.167,-25.0367 L 711.167,-58 L 711.254,-58.8316 L 711.512,-59.627 L 711.931,-60.3511 L 712.49,-60.9726
 L 713.167,-61.4641 L 713.931,-61.8042 L 715.167,-62 L 799.352,-62 L 800.184,-61.9126 L 800.979,-61.6542
 L 801.704,-61.2361 L 802.325,-60.6765 L 802.817,-60 L 803.157,-59.2361 L 803.331,-58.4181 L 803.331,-57.5819
 L 803.157,-56.7639 L 802.817,-56 L 802.325,-55.3235 L 801.704,-54.7639 L 800.811,-54.2753 L 716.625,-21.312
 L 715.819,-21.0902 L 714.984,-21.0408 z
M 194.167,-18 L 192.931,-18.1958 L 192.167,-18.5359 L 191.49,-19.0274 L 190.931,-19.6489 L 190.512,-20.373
 L 190.254,-21.1684 L 190.167,-22 L 190.167,-54.9633 L 190.31,-56.0244 L 190.615,-56.8031 L 191.075,-57.5013
 L 191.67,-58.0887 L 192.375,-58.5394 L 193.157,-58.8339 L 193.984,-58.9592 L 194.819,-58.9098 L 195.625,-58.688
 L 279.811,-25.7247 L 280.704,-25.2361 L 281.325,-24.6765 L 281.816,-24 L 282.157,-23.2361 L 282.33,-22.4181
 L 282.33,-21.5819 L 282.157,-20.7639 L 281.816,-20 L 281.325,-19.3235 L 280.704,-18.7639 L 279.979,-18.3458
 L 279.184,-18.0874 L 278.352,-18 z
M 367.833,-18 L 366.597,-18.1958 L 365.833,-18.5359 L 365.157,-19.0274 L 364.597,-19.6489 L 364.179,-20.373
 L 363.921,-21.1684 L 363.833,-22 L 363.833,-54.9633 L 363.977,-56.0244 L 364.282,-56.8031 L 364.742,-57.5013
 L 365.337,-58.0887 L 366.041,-58.5394 L 366.824,-58.8339 L 367.651,-58.9592 L 368.485,-58.9098 L 369.292,-58.688
 L 453.477,-25.7247 L 454.37,-25.2361 L 454.992,-24.6765 L 455.483,-24 L 455.823,-23.2361 L 455.997,-22.4181
 L 455.997,-21.5819 L 455.823,-20.7639 L 455.483,-20 L 454.992,-19.3235 L 454.37,-18.7639 L 453.646,-18.3458
 L 452.851,-18.0874 L 452.019,-18 z
M 604.981,-18 L 604.149,-18.0874 L 603.354,-18.3458 L 602.63,-18.7639 L 602.008,-19.3235 L 601.517,-20
 L 601.177,-20.7639 L 601.003,-21.5819 L 601.003,-22.4181 L 601.177,-23.2361 L 601.517,-24 L 602.008,-24.6765
 L 602.63,-25.2361 L 603.523,-25.7247 L 687.708,-58.688 L 688.515,-58.9098 L 689.349,-58.9592 L 690.176,-58.8339
 L 690.959,-58.5394 L 691.663,-58.0887 L 692.258,-57.5013 L 692.718,-56.8031 L 693.023,-56.0244 L 693.167,-54.9633
 L 693.167,-22 L 693.079,-21.1684 L 692.821,-20.373 L 692.403,-19.6489 L 691.843,-19.0274 L 691.167,-18.5359
 L 690.403,-18.1958 L 689.167,-18 z
M 778.648,-18 L 777.816,-18.0874 L 777.021,-18.3458 L 776.296,-18.7639 L 775.675,-19.3235 L 775.183,-20
 L 774.843,-20.7639 L 774.669,-21.5819 L 774.669,-22.4181 L 774.843,-23.2361 L 775.183,-24 L 775.675,-24.6765
 L 776.296,-25.2361 L 777.189,-25.7247 L 861.375,-58.688 L 862.181,-58.9098 L 863.016,-58.9592 L 863.843,-58.8339
 L 864.625,-58.5394 L 865.33,-58.0887 L 865.925,-57.5013 L 866.385,-56.8031 L 866.69,-56.0244 L 866.833,-54.9633
 L 866.833,-22 L 866.746,-21.1684 L 866.488,-20.373 L 866.069,-19.6489 L 865.51,-19.0274 L 864.833,-18.5359
 L 864.069,-18.1958 L 862.833,-18 z
M 952.314,-18 L 951.483,-18.0874 L 950.687,-18.3458 L 949.963,-18.7639 L 949.342,-19.3235 L 948.85,-20
 L 948.51,-20.7639 L 948.336,-21.5819 L 948.336,-22.4181 L 948.51,-23.2361 L 948.85,-24 L 949.342,-24.6765
 L 949.963,-25.2361 L 950.856,-25.7247 L 1033.54,-58.1006 L 1034.35,-58.3225 L 1035.18,-58.3718 L 1036.01,-58.2465
 L 1036.79,-57.9521 L 1037.5,-57.5013 L 1038.09,-56.914 L 1038.55,-56.2157 L 1038.86,-55.4371 L 1039,-54.376
 L 1039,-22 L 1038.91,-21.1684 L 1038.65,-20.373 L 1038.24,-19.6489 L 1037.68,-19.0274 L 1037,-18.5359
 L 1036.24,-18.1958 L 1035,-18 z
M 22,-18 L 20.7639,-18.1958 L 20,-18.5359 L 19.3235,-19.0274 L 18.7639,-19.6489 L 18.3458,-20.373
 L 18.0874,-21.1684 L 18,-22 L 18,-54.376 L 18.1433,-55.4371 L 18.4482,-56.2157 L 18.9083,-56.914
 L 19.5036,-57.5013 L 20.2079,-57.9521 L 20.9906,-58.2465 L 21.8174,-58.3718 L 22.6521,-58.3225 L 23.4584,-58.1006
 L 106.144,-25.7247 L 107.037,-25.2361 L 107.658,-24.6765 L 108.15,-24 L 108.49,-23.2361 L 108.664,-22.4181
 L 108.664,-21.5819 L 108.49,-20.7639 L 108.15,-20 L 107.658,-19.3235 L 107.037,-18.7639 L 106.313,-18.3458
 L 105.517,-18.0874 L 104.686,-18 z
" stroke="black" fill="lightgray" stroke-width="0.5"/>
</svg>
