<?xml version="1.0" standalone="no"?>
<!DOCTYPE svg PUBLIC "-//W3C//DTD SVG 1.1//EN" "http://www.w3.org/Graphics/SVG/1.1/DTD/svg11.dtd">
<svg width="1259mm" height="80mm" viewBox="0 -80 1259 80" xmlns="http://www.w3.org/2000/svg" version="1.1">
<title>OpenSCAD Model</title>
<path d="
M 1259,-80 L 0,-80 L 0,-0 L 4.95,-0 L 4.95,-6 L 5.00572,-6.53017
 L 5.17046,-7.03717 L 5.437,-7.49884 L 5.79372,-7.895 L 6.22499,-8.20836 L 6.71201,-8.42519 L 7.23344,-8.53603
 L 7.76654,-8.53603 L 8.28798,-8.42519 L 8.77499,-8.20836 L 9.20627,-7.895 L 9.56299,-7.49884 L 9.82953,-7.03717
 L 9.99426,-6.53017 L 10.05,-6 L 10.05,-0 L 182.664,-0 L 182.664,-6 L 182.72,-6.53017
 L 182.885,-7.03717 L 183.151,-7.49884 L 183.508,-7.895 L 183.939,-8.20836 L 184.426,-8.42519 L 184.948,-8.53603
 L 185.481,-8.53603 L 186.002,-8.42519 L 186.489,-8.20836 L 186.921,-7.895 L 187.277,-7.49884 L 187.544,-7.03717
 L 187.709,-6.53017 L 187.764,-6 L 187.764,-0 L 360.379,-0 L 360.379,-6 L 360.434,-6.53017
 L 360.599,-7.03717 L 360.866,-7.49884 L 361.222,-7.895 L 361.654,-8.20836 L 362.141,-8.42519 L 362.662,-8.53603
 L 363.195,-8.53603 L 363.717,-8.42519 L 364.204,-8.20836 L 364.635,-7.895 L 364.992,-7.49884 L 365.258,-7.03717
 L 365.423,-6.53017 L 365.479,-6 L 365.479,-0 L 538.093,-0 L 538.093,-6 L 538.149,-6.53017
 L 538.313,-7.03717 L 538.58,-7.49884 L 538.937,-7.895 L 539.368,-8.20836 L 539.855,-8.42519 L 540.376,-8.53603
 L 540.909,-8.53603 L 541.431,-8.42519 L 541.918,-8.20836 L 542.349,-7.895 L 542.706,-7.49884 L 542.972,-7.03717
 L 543.137,-6.53017 L 543.193,-6 L 543.193,-0 L 715.807,-0 L 715.807,-6 L 715.863,-6.53017
 L 716.028,-7.03717 L 716.294,-7.49884 L 716.651,-7.895 L 717.082,-8.20836 L 717.569,-8.42519 L 718.091,-8.53603
 L 718.624,-8.53603 L 719.145,-8.42519 L 719.632,-8.20836 L 720.063,-7.895 L 720.42,-7.49884 L 720.687,-7.03717
 L 720.851,-6.53017 L 720.907,-6 L 720.907,-0 L 893.521,-0 L 893.521,-6 L 893.577,-6.53017
 L 893.742,-7.03717 L 894.008,-7.49884 L 894.365,-7.895 L 894.796,-8.20836 L 895.283,-8.42519 L 895.805,-8.53603
 L 896.338,-8.53603 L 896.859,-8.42519 L 897.346,-8.20836 L 897.778,-7.895 L 898.134,-7.49884 L 898.401,-7.03717
 L 898.566,-6.53017 L 898.621,-6 L 898.621,-0 L 1071.24,-0 L 1071.24,-6 L 1071.29,-6.53017
 L 1071.46,-7.03717 L 1071.72,-7.49884 L 1072.08,-7.895 L 1072.51,-8.20836 L 1073,-8.42519 L 1073.52,-8.53603
 L 1074.05,-8.53603 L 1074.57,-8.42519 L 1075.06,-8.20836 L 1075.49,-7.895 L 1075.85,-7.49884 L 1076.12,-7.03717
 L 1076.28,-6.53017 L 1076.34,-6 L 1076.34,-0 L 1248.95,-0 L 1248.95,-6 L 1249.01,-6.53017
 L 1249.17,-7.03717 L 1249.44,-7.49884 L 1249.79,-7.895 L 1250.22,-8.20836 L 1250.71,-8.42519 L 1251.23,-8.53603
 L 1251.77,-8.53603 L 1252.29,-8.42519 L 1252.77,-8.20836 L 1253.21,-7.895 L 1253.56,-7.49884 L 1253.83,-7.03717
 L 1253.99,-6.53017 L 1254.05,-6 L 1254.05,-0 L 1259,-0 z
M 6.98573,-55.607 L 6.47708,-55.6875 L 5.97964,-55.8208 L 5.49887,-56.0054 L 5.04001,-56.2392 L 4.60811,-56.5196
 L 4.20789,-56.8437 L 3.84373,-57.2079 L 3.51964,-57.6081 L 3.23917,-58.04 L 3.00537,-58.4989 L 2.82082,-58.9796
 L 2.68752,-59.4771 L 2.60696,-59.9857 L 2.58,-60.5 L 2.60696,-61.0143 L 2.68752,-61.5229 L 2.82082,-62.0204
 L 3.00537,-62.5011 L 3.23917,-62.96 L 3.51964,-63.3919 L 3.84373,-63.7921 L 4.20789,-64.1563 L 4.60811,-64.4804
 L 4.95001,-64.7024 L 4.95001,-74 L 5.00574,-74.5302 L 5.17047,-75.0372 L 5.43701,-75.4988 L 5.79373,-75.895
 L 6.22501,-76.2084 L 6.71202,-76.4252 L 7.23346,-76.536 L 7.76654,-76.536 L 8.28798,-76.4252 L 8.77499,-76.2084
 L 9.20627,-75.895 L 9.56299,-75.4988 L 9.82953,-75.0372 L 9.99426,-74.5302 L 10.05,-74 L 10.05,-64.7024
 L 10.3919,-64.4804 L 10.7921,-64.1563 L 11.1563,-63.7921 L 11.4804,-63.3919 L 11.7608,-62.96 L 11.9946,-62.5011
 L 12.1792,-62.0204 L 12.3125,-61.5229 L 12.393,-61.0143 L 12.42,-60.5 L 12.393,-59.9857 L 12.3125,-59.4771
 L 12.1792,-58.9796 L 11.9946,-58.4989 L 11.7608,-58.04 L 11.4804,-57.6081 L 11.1563,-57.2079 L 10.7921,-56.8437
 L 10.3919,-56.5196 L 9.95999,-56.2392 L 9.50113,-56.0054 L 9.02036,-55.8208 L 8.52292,-55.6875 L 8.01427,-55.607
 L 7.5,-55.58 z
M 184.7,-55.607 L 184.191,-55.6875 L 183.694,-55.8208 L 183.213,-56.0054 L 182.754,-56.2392 L 182.322,-56.5196
 L 181.922,-56.8437 L 181.558,-57.2079 L 181.234,-57.6081 L 180.953,-58.04 L 180.72,-58.4989 L 180.535,-58.9796
 L 180.402,-59.4771 L 180.321,-59.9857 L 180.294,-60.5 L 180.321,-61.0143 L 180.402,-61.5229 L 180.535,-62.0204
 L 180.72,-62.5011 L 180.953,-62.96 L 181.234,-63.3919 L 181.558,-63.7921 L 181.922,-64.1563 L 182.322,-64.4804
 L 182.664,-64.7024 L 182.664,-74 L 182.72,-74.5302 L 182.885,-75.0372 L 183.151,-75.4988 L 183.508,-75.895
 L 183.939,-76.2084 L 184.426,-76.4252 L 184.948,-76.536 L 185.481,-76.536 L 186.002,-76.4252 L 186.489,-76.2084
 L 186.921,-75.895 L 187.277,-75.4988 L 187.544,-75.0372 L 187.709,-74.5302 L 187.764,-74 L 187.764,-64.7024
 L 188.106,-64.4804 L 188.506,-64.1563 L 188.871,-63.7921 L 189.195,-63.3919 L 189.475,-62.96 L 189.709,-62.5011
 L 189.893,-62.0204 L 190.027,-61.5229 L 190.107,-61.0143 L 190.134,-60.5 L 190.107,-59.9857 L 190.027,-59.4771
 L 189.893,-58.9796 L 189.709,-58.4989 L 189.475,-58.04 L 189.195,-57.6081 L 188.871,-57.2079 L 188.506,-56.8437
 L 188.106,-56.5196 L 187.674,-56.2392 L 187.215,-56.0054 L 186.735,-55.8208 L 186.237,-55.6875 L 185.729,-55.607
 L 185.214,-55.58 z
M 362.414,-55.607 L 361.906,-55.6875 L 361.408,-55.8208 L 360.927,-56.0054 L 360.469,-56.2392 L 360.037,-56.5196
 L 359.636,-56.8437 L 359.272,-57.2079 L 358.948,-57.6081 L 358.668,-58.04 L 358.434,-58.4989 L 358.249,-58.9796
 L 358.116,-59.4771 L 358.036,-59.9857 L 358.009,-60.5 L 358.036,-61.0143 L 358.116,-61.5229 L 358.249,-62.0204
 L 358.434,-62.5011 L 358.668,-62.96 L 358.948,-63.3919 L 359.272,-63.7921 L 359.636,-64.1563 L 360.037,-64.4804
 L 360.379,-64.7024 L 360.379,-74 L 360.434,-74.5302 L 360.599,-75.0372 L 360.866,-75.4988 L 361.222,-75.895
 L 361.654,-76.2084 L 362.141,-76.4252 L 362.662,-76.536 L 363.195,-76.536 L 363.717,-76.4252 L 364.204,-76.2084
 L 364.635,-75.895 L 364.992,-75.4988 L 365.258,-75.0372 L 365.423,-74.5302 L 365.479,-74 L 365.479,-64.7024
 L 365.82,-64.4804 L 366.221,-64.1563 L 366.585,-63.7921 L 366.909,-63.3919 L 367.189,-62.96 L 367.423,-62.5011
 L 367.608,-62.0204 L 367.741,-61.5229 L 367.822,-61.0143 L 367.849,-60.5 L 367.822,-59.9857 L 367.741,-59.4771
 L 367.608,-58.9796 L 367.423,-58.4989 L 367.189,-58.04 L 366.909,-57.6081 L 366.585,-57.2079 L 366.221,-56.8437
 L 365.82,-56.5196 L 365.389,-56.2392 L 364.93,-56.0054 L 364.449,-55.8208 L 363.951,-55.6875 L 363.443,-55.607
 L 362.929,-55.58 z
M 540.129,-55.607 L 539.62,-55.6875 L 539.122,-55.8208 L 538.642,-56.0054 L 538.183,-56.2392 L 537.751,-56.5196
 L 537.351,-56.8437 L 536.987,-57.2079 L 536.662,-57.6081 L 536.382,-58.04 L 536.148,-58.4989 L 535.964,-58.9796
 L 535.83,-59.4771 L 535.75,-59.9857 L 535.723,-60.5 L 535.75,-61.0143 L 535.83,-61.5229 L 535.964,-62.0204
 L 536.148,-62.5011 L 536.382,-62.96 L 536.662,-63.3919 L 536.987,-63.7921 L 537.351,-64.1563 L 537.751,-64.4804
 L 538.093,-64.7024 L 538.093,-74 L 538.149,-74.5302 L 538.313,-75.0372 L 538.58,-75.4988 L 538.937,-75.895
 L 539.368,-76.2084 L 539.855,-76.4252 L 540.376,-76.536 L 540.909,-76.536 L 541.431,-76.4252 L 541.918,-76.2084
 L 542.349,-75.895 L 542.706,-75.4988 L 542.972,-75.0372 L 543.137,-74.5302 L 543.193,-74 L 543.193,-64.7024
 L 543.535,-64.4804 L 543.935,-64.1563 L 544.299,-63.7921 L 544.623,-63.3919 L 544.904,-62.96 L 545.137,-62.5011
 L 545.322,-62.0204 L 545.455,-61.5229 L 545.536,-61.0143 L 545.563,-60.5 L 545.536,-59.9857 L 545.455,-59.4771
 L 545.322,-58.9796 L 545.137,-58.4989 L 544.904,-58.04 L 544.623,-57.6081 L 544.299,-57.2079 L 543.935,-56.8437
 L 543.535,-56.5196 L 543.103,-56.2392 L 542.644,-56.0054 L 542.163,-55.8208 L 541.666,-55.6875 L 541.157,-55.607
 L 540.643,-55.58 z
M 717.843,-55.607 L 717.334,-55.6875 L 716.837,-55.8208 L 716.356,-56.0054 L 715.897,-56.2392 L 715.465,-56.5196
 L 715.065,-56.8437 L 714.701,-57.2079 L 714.377,-57.6081 L 714.096,-58.04 L 713.863,-58.4989 L 713.678,-58.9796
 L 713.545,-59.4771 L 713.464,-59.9857 L 713.437,-60.5 L 713.464,-61.0143 L 713.545,-61.5229 L 713.678,-62.0204
 L 713.863,-62.5011 L 714.096,-62.96 L 714.377,-63.3919 L 714.701,-63.7921 L 715.065,-64.1563 L 715.465,-64.4804
 L 715.807,-64.7024 L 715.807,-74 L 715.863,-74.5302 L 716.028,-75.0372 L 716.294,-75.4988 L 716.651,-75.895
 L 717.082,-76.2084 L 717.569,-76.4252 L 718.091,-76.536 L 718.624,-76.536 L 719.145,-76.4252 L 719.632,-76.2084
 L 720.063,-75.895 L 720.42,-75.4988 L 720.687,-75.0372 L 720.851,-74.5302 L 720.907,-74 L 720.907,-64.7024
 L 721.249,-64.4804 L 721.649,-64.1563 L 722.013,-63.7921 L 722.337,-63.3919 L 722.618,-62.96 L 722.852,-62.5011
 L 723.036,-62.0204 L 723.17,-61.5229 L 723.25,-61.0143 L 723.277,-60.5 L 723.25,-59.9857 L 723.17,-59.4771
 L 723.036,-58.9796 L 722.852,-58.4989 L 722.618,-58.04 L 722.337,-57.6081 L 722.013,-57.2079 L 721.649,-56.8437
 L 721.249,-56.5196 L 720.817,-56.2392 L 720.358,-56.0054 L 719.877,-55.8208 L 719.38,-55.6875 L 718.871,-55.607
 L 718.357,-55.58 z
M 895.557,-55.607 L 895.049,-55.6875 L 894.551,-55.8208 L 894.07,-56.0054 L 893.611,-56.2392 L 893.18,-56.5196
 L 892.779,-56.8437 L 892.415,-57.2079 L 892.091,-57.6081 L 891.811,-58.04 L 891.577,-58.4989 L 891.392,-58.9796
 L 891.259,-59.4771 L 891.178,-59.9857 L 891.151,-60.5 L 891.178,-61.0143 L 891.259,-61.5229 L 891.392,-62.0204
 L 891.577,-62.5011 L 891.811,-62.96 L 892.091,-63.3919 L 892.415,-63.7921 L 892.779,-64.1563 L 893.18,-64.4804
 L 893.521,-64.7024 L 893.521,-74 L 893.577,-74.5302 L 893.742,-75.0372 L 894.008,-75.4988 L 894.365,-75.895
 L 894.796,-76.2084 L 895.283,-76.4252 L 895.805,-76.536 L 896.338,-76.536 L 896.859,-76.4252 L 897.346,-76.2084
 L 897.778,-75.895 L 898.134,-75.4988 L 898.401,-75.0372 L 898.566,-74.5302 L 898.621,-74 L 898.621,-64.7024
 L 898.963,-64.4804 L 899.364,-64.1563 L 899.728,-63.7921 L 900.052,-63.3919 L 900.332,-62.96 L 900.566,-62.5011
 L 900.751,-62.0204 L 900.884,-61.5229 L 900.964,-61.0143 L 900.991,-60.5 L 900.964,-59.9857 L 900.884,-59.4771
 L 900.751,-58.9796 L 900.566,-58.4989 L 900.332,-58.04 L 900.052,-57.6081 L 899.728,-57.2079 L 899.364,-56.8437
 L 898.963,-56.5196 L 898.531,-56.2392 L 898.073,-56.0054 L 897.592,-55.8208 L 897.094,-55.6875 L 896.586,-55.607
 L 896.071,-55.58 z
M 1073.27,-55.607 L 1072.76,-55.6875 L 1072.27,-55.8208 L 1071.78,-56.0054 L 1071.33,-56.2392 L 1070.89,-56.5196
 L 1070.49,-56.8437 L 1070.13,-57.2079 L 1069.81,-57.6081 L 1069.52,-58.04 L 1069.29,-58.4989 L 1069.11,-58.9796
 L 1068.97,-59.4771 L 1068.89,-59.9857 L 1068.87,-60.5 L 1068.89,-61.0143 L 1068.97,-61.5229 L 1069.11,-62.0204
 L 1069.29,-62.5011 L 1069.52,-62.96 L 1069.81,-63.3919 L 1070.13,-63.7921 L 1070.49,-64.1563 L 1070.89,-64.4804
 L 1071.24,-64.7024 L 1071.24,-74 L 1071.29,-74.5302 L 1071.46,-75.0372 L 1071.72,-75.4988 L 1072.08,-75.895
 L 1072.51,-76.2084 L 1073,-76.4252 L 1073.52,-76.536 L 1074.05,-76.536 L 1074.57,-76.4252 L 1075.06,-76.2084
 L 1075.49,-75.895 L 1075.85,-75.4988 L 1076.12,-75.0372 L 1076.28,-74.5302 L 1076.34,-74 L 1076.34,-64.7024
 L 1076.68,-64.4804 L 1077.08,-64.1563 L 1077.44,-63.7921 L 1077.77,-63.3919 L 1078.05,-62.96 L 1078.28,-62.5011
 L 1078.46,-62.0204 L 1078.6,-61.5229 L 1078.68,-61.0143 L 1078.71,-60.5 L 1078.68,-59.9857 L 1078.6,-59.4771
 L 1078.46,-58.9796 L 1078.28,-58.4989 L 1078.05,-58.04 L 1077.77,-57.6081 L 1077.44,-57.2079 L 1077.08,-56.8437
 L 1076.68,-56.5196 L 1076.25,-56.2392 L 1075.79,-56.0054 L 1075.31,-55.8208 L 1074.81,-55.6875 L 1074.3,-55.607
 L 1073.79,-55.58 z
M 1250.99,-55.607 L 1250.48,-55.6875 L 1249.98,-55.8208 L 1249.5,-56.0054 L 1249.04,-56.2392 L 1248.61,-56.5196
 L 1248.21,-56.8437 L 1247.84,-57.2079 L 1247.52,-57.6081 L 1247.24,-58.04 L 1247.01,-58.4989 L 1246.82,-58.9796
 L 1246.69,-59.4771 L 1246.61,-59.9857 L 1246.58,-60.5 L 1246.61,-61.0143 L 1246.69,-61.5229 L 1246.82,-62.0204
 L 1247.01,-62.5011 L 1247.24,-62.96 L 1247.52,-63.3919 L 1247.84,-63.7921 L 1248.21,-64.1563 L 1248.61,-64.4804
 L 1248.95,-64.7024 L 1248.95,-74 L 1249.01,-74.5302 L 1249.17,-75.0372 L 1249.44,-75.4988 L 1249.79,-75.895
 L 1250.23,-76.2084 L 1250.71,-76.4252 L 1251.23,-76.536 L 1251.77,-76.536 L 1252.29,-76.4252 L 1252.77,-76.2084
 L 1253.21,-75.895 L 1253.56,-75.4988 L 1253.83,-75.0372 L 1253.99,-74.5302 L 1254.05,-74 L 1254.05,-64.7024
 L 1254.39,-64.4804 L 1254.79,-64.1563 L 1255.16,-63.7921 L 1255.48,-63.3919 L 1255.76,-62.96 L 1255.99,-62.5011
 L 1256.18,-62.0204 L 1256.31,-61.5229 L 1256.39,-61.0143 L 1256.42,-60.5 L 1256.39,-59.9857 L 1256.31,-59.4771
 L 1256.18,-58.9796 L 1255.99,-58.4989 L 1255.76,-58.04 L 1255.48,-57.6081 L 1255.16,-57.2079 L 1254.79,-56.8437
 L 1254.39,-56.5196 L 1253.96,-56.2392 L 1253.5,-56.0054 L 1253.02,-55.8208 L 1252.52,-55.6875 L 1252.01,-55.607
 L 1251.5,-55.58 z
M 730.318,-21.0125 L 729.537,-21.313 L 728.837,-21.7693 L 728.246,-22.3612 L 727.791,-23.063 L 727.492,-23.844
 L 727.357,-24.8751 L 727.357,-58 L 727.445,-58.8316 L 727.703,-59.627 L 728.121,-60.3511 L 728.681,-60.9726
 L 729.357,-61.4641 L 730.121,-61.8042 L 731.357,-62 L 817.927,-62 L 818.759,-61.9126 L 819.554,-61.6542
 L 820.278,-61.2361 L 820.9,-60.6765 L 821.391,-60 L 821.731,-59.2361 L 821.905,-58.4181 L 821.905,-57.5819
 L 821.731,-56.7639 L 821.391,-56 L 820.9,-55.3235 L 820.278,-54.7639 L 819.357,-54.2641 L 732.787,-21.1393
 L 731.979,-20.9237 L 731.144,-20.8808 z
M 628.878,-47.8109 L 628.071,-48.0264 L 611.769,-54.2641 L 610.847,-54.7639 L 610.225,-55.3235 L 609.734,-56
 L 609.394,-56.7639 L 609.22,-57.5819 L 609.22,-58.4181 L 609.394,-59.2361 L 609.734,-60 L 610.225,-60.6765
 L 610.847,-61.2361 L 611.571,-61.6542 L 612.366,-61.9126 L 613.198,-62 L 645.802,-62 L 646.841,-61.8626
 L 647.622,-61.5621 L 648.323,-61.1059 L 648.913,-60.5139 L 649.368,-59.8121 L 649.667,-59.0311 L 649.797,-58.2051
 L 649.752,-57.37 L 649.535,-56.5625 L 649.154,-55.8179 L 648.627,-55.1685 L 647.977,-54.643 L 647.231,-54.2641
 L 630.929,-48.0264 L 629.714,-47.768 z
M 527.021,-20.9237 L 526.213,-21.1393 L 439.643,-54.2641 L 438.722,-54.7639 L 438.1,-55.3235 L 437.609,-56
 L 437.269,-56.7639 L 437.095,-57.5819 L 437.095,-58.4181 L 437.269,-59.2361 L 437.609,-60 L 438.1,-60.6765
 L 438.722,-61.2361 L 439.446,-61.6542 L 440.241,-61.9126 L 441.073,-62 L 527.643,-62 L 528.879,-61.8042
 L 529.643,-61.4641 L 530.319,-60.9726 L 530.879,-60.3511 L 531.297,-59.627 L 531.555,-58.8316 L 531.643,-58
 L 531.643,-24.8751 L 531.508,-23.844 L 531.209,-23.063 L 530.754,-22.3612 L 530.163,-21.7693 L 529.463,-21.313
 L 528.682,-21.0125 L 527.856,-20.8808 z
M 349.307,-20.9237 L 348.499,-21.1393 L 261.929,-54.2641 L 261.007,-54.7639 L 260.386,-55.3235 L 259.894,-56
 L 259.554,-56.7639 L 259.38,-57.5819 L 259.38,-58.4181 L 259.554,-59.2361 L 259.894,-60 L 260.386,-60.6765
 L 261.007,-61.2361 L 261.732,-61.6542 L 262.527,-61.9126 L 263.359,-62 L 349.929,-62 L 351.165,-61.8042
 L 351.929,-61.4641 L 352.605,-60.9726 L 353.165,-60.3511 L 353.583,-59.627 L 353.841,-58.8316 L 353.929,-58
 L 353.929,-24.8751 L 353.793,-23.844 L 353.495,-23.063 L 353.04,-22.3612 L 352.449,-21.7693 L 351.748,-21.313
 L 350.968,-21.0125 L 350.142,-20.8808 z
M 1085.75,-21.0125 L 1084.97,-21.313 L 1084.27,-21.7693 L 1083.67,-22.3612 L 1083.22,-23.063 L 1082.92,-23.844
 L 1082.79,-24.8751 L 1082.79,-58 L 1082.87,-58.8316 L 1083.13,-59.627 L 1083.55,-60.3511 L 1084.11,-60.9726
 L 1084.79,-61.4641 L 1085.55,-61.8042 L 1086.79,-62 L 1173.36,-62 L 1174.19,-61.9126 L 1174.98,-61.6542
 L 1175.71,-61.2361 L 1176.33,-60.6765 L 1176.82,-60 L 1177.16,-59.2361 L 1177.33,-58.4181 L 1177.33,-57.5819
 L 1177.16,-56.7639 L 1176.82,-56 L 1176.33,-55.3235 L 1175.71,-54.7639 L 1174.79,-54.2641 L 1088.22,-21.1393
 L 1087.41,-20.9237 L 1086.57,-20.8808 z
M 171.593,-20.9237 L 170.785,-21.1393 L 84.2148,-54.2641 L 83.2931,-54.7639 L 82.6717,-55.3235 L 82.1802,-56
 L 81.84,-56.7639 L 81.6662,-57.5819 L 81.6662,-58.4181 L 81.84,-59.2361 L 82.1802,-60 L 82.6717,-60.6765
 L 83.2931,-61.2361 L 84.0173,-61.6542 L 84.8126,-61.9126 L 85.6443,-62 L 172.214,-62 L 173.45,-61.8042
 L 174.214,-61.4641 L 174.891,-60.9726 L 175.45,-60.3511 L 175.868,-59.627 L 176.127,-58.8316 L 176.214,-58
 L 176.214,-24.8751 L 176.079,-23.844 L 175.78,-23.063 L 175.326,-22.3612 L 174.735,-21.7693 L 174.034,-21.313
 L 173.254,-21.0125 L 172.428,-20.8808 z
M 908.032,-21.0125 L 907.252,-21.313 L 906.551,-21.7693 L 905.96,-22.3612 L 905.505,-23.063 L 905.207,-23.844
 L 905.071,-24.8751 L 905.071,-58 L 905.159,-58.8316 L 905.417,-59.627 L 905.835,-60.3511 L 906.395,-60.9726
 L 907.071,-61.4641 L 907.835,-61.8042 L 909.071,-62 L 995.641,-62 L 996.473,-61.9126 L 997.268,-61.6542
 L 997.993,-61.2361 L 998.614,-60.6765 L 999.106,-60 L 999.446,-59.2361 L 999.62,-58.4181 L 999.62,-57.5819
 L 999.446,-56.7639 L 999.106,-56 L 998.614,-55.3235 L 997.993,-54.7639 L 997.071,-54.2641 L 910.501,-21.1393
 L 909.693,-20.9237 L 908.858,-20.8808 z
M 553.225,-18.7585 L 552.407,-18.9323 L 551.643,-19.2725 L 550.966,-19.764 L 550.407,-20.3854 L 549.989,-21.1096
 L 549.73,-21.9049 L 549.643,-22.7366 L 549.643,-57.2634 L 549.778,-58.2946 L 550.077,-59.0756 L 550.532,-59.7774
 L 551.122,-60.3693 L 551.823,-60.8255 L 552.603,-61.126 L 553.429,-61.2577 L 554.264,-61.2149 L 555.072,-60.9993
 L 600.189,-43.7359 L 600.58,-43.5621 L 601.281,-43.1059 L 601.871,-42.5139 L 602.326,-41.8121 L 602.625,-41.0311
 L 602.755,-40.2051 L 602.71,-39.37 L 602.493,-38.5625 L 602.112,-37.8179 L 601.585,-37.1685 L 600.935,-36.643
 L 600.189,-36.2641 L 555.072,-19.0007 L 554.061,-18.7585 z
M 704.736,-18.7851 L 703.928,-19.0007 L 658.811,-36.2641 L 658.42,-36.4379 L 657.719,-36.8941 L 657.129,-37.4861
 L 656.674,-38.1879 L 656.375,-38.9689 L 656.245,-39.7949 L 656.29,-40.63 L 656.507,-41.4375 L 656.888,-42.1821
 L 657.415,-42.8315 L 658.065,-43.357 L 658.811,-43.7359 L 703.928,-60.9993 L 704.939,-61.2415 L 705.775,-61.2415
 L 706.593,-61.0677 L 707.357,-60.7276 L 708.034,-60.236 L 708.593,-59.6146 L 709.011,-58.8904 L 709.27,-58.0951
 L 709.357,-57.2635 L 709.357,-22.7365 L 709.222,-21.7054 L 708.923,-20.9244 L 708.468,-20.2226 L 707.878,-19.6307
 L 707.177,-19.1745 L 706.397,-18.8739 L 705.571,-18.7422 z
M 198.214,-18 L 196.978,-18.1958 L 196.214,-18.5359 L 195.538,-19.0274 L 194.978,-19.6489 L 194.56,-20.373
 L 194.302,-21.1684 L 194.214,-22 L 194.214,-55.1248 L 194.349,-56.156 L 194.648,-56.937 L 195.103,-57.6388
 L 195.694,-58.2307 L 196.395,-58.6869 L 197.175,-58.9874 L 198.001,-59.1191 L 198.836,-59.0763 L 199.644,-58.8607
 L 286.214,-25.7359 L 287.135,-25.2361 L 287.757,-24.6765 L 288.248,-24 L 288.589,-23.2361 L 288.762,-22.4181
 L 288.762,-21.5819 L 288.589,-20.7639 L 288.248,-20 L 287.757,-19.3235 L 287.135,-18.7639 L 286.411,-18.3458
 L 285.616,-18.0874 L 284.784,-18 z
M 375.929,-18 L 374.692,-18.1958 L 373.929,-18.5359 L 373.252,-19.0274 L 372.692,-19.6489 L 372.274,-20.373
 L 372.016,-21.1684 L 371.929,-22 L 371.929,-55.1248 L 372.064,-56.156 L 372.363,-56.937 L 372.817,-57.6388
 L 373.408,-58.2307 L 374.109,-58.6869 L 374.889,-58.9874 L 375.715,-59.1191 L 376.55,-59.0763 L 377.358,-58.8607
 L 463.928,-25.7359 L 464.85,-25.2361 L 465.471,-24.6765 L 465.963,-24 L 466.303,-23.2361 L 466.477,-22.4181
 L 466.477,-21.5819 L 466.303,-20.7639 L 465.963,-20 L 465.471,-19.3235 L 464.85,-18.7639 L 464.126,-18.3458
 L 463.33,-18.0874 L 462.499,-18 z
M 796.501,-18 L 795.67,-18.0874 L 794.874,-18.3458 L 794.15,-18.7639 L 793.529,-19.3235 L 793.037,-20
 L 792.697,-20.7639 L 792.523,-21.5819 L 792.523,-22.4181 L 792.697,-23.2361 L 793.037,-24 L 793.529,-24.6765
 L 794.15,-25.2361 L 795.072,-25.7359 L 881.642,-58.8607 L 882.45,-59.0763 L 883.285,-59.1191 L 884.111,-58.9874
 L 884.891,-58.6869 L 885.592,-58.2307 L 886.183,-57.6388 L 886.637,-56.937 L 886.936,-56.156 L 887.071,-55.1248
 L 887.071,-22 L 886.984,-21.1684 L 886.726,-20.373 L 886.307,-19.6489 L 885.748,-19.0274 L 885.071,-18.5359
 L 884.307,-18.1958 L 883.071,-18 z
M 974.216,-18 L 973.384,-18.0874 L 972.589,-18.3458 L 971.865,-18.7639 L 971.243,-19.3235 L 970.752,-20
 L 970.411,-20.7639 L 970.238,-21.5819 L 970.238,-22.4181 L 970.411,-23.2361 L 970.752,-24 L 971.243,-24.6765
 L 971.865,-25.2361 L 972.786,-25.7359 L 1059.36,-58.8607 L 1060.16,-59.0763 L 1061,-59.1191 L 1061.83,-58.9874
 L 1062.61,-58.6869 L 1063.31,-58.2307 L 1063.9,-57.6388 L 1064.35,-56.937 L 1064.65,-56.156 L 1064.79,-55.1248
 L 1064.79,-22 L 1064.7,-21.1684 L 1064.44,-20.373 L 1064.02,-19.6489 L 1063.46,-19.0274 L 1062.79,-18.5359
 L 1062.02,-18.1958 L 1060.79,-18 z
M 22,-18 L 20.7639,-18.1958 L 20,-18.5359 L 19.3235,-19.0274 L 18.7639,-19.6489 L 18.3458,-20.373
 L 18.0874,-21.1684 L 18,-22 L 18,-54.5509 L 18.1352,-55.582 L 18.434,-56.3631 L 18.8887,-57.0648
 L 19.4794,-57.6568 L 20.1802,-58.113 L 20.9606,-58.4135 L 21.7864,-58.5452 L 22.6215,-58.5023 L 23.4295,-58.2868
 L 108.499,-25.7359 L 109.421,-25.2361 L 110.043,-24.6765 L 110.534,-24 L 110.874,-23.2361 L 111.048,-22.4181
 L 111.048,-21.5819 L 110.874,-20.7639 L 110.534,-20 L 110.043,-19.3235 L 109.421,-18.7639 L 108.697,-18.3458
 L 107.902,-18.0874 L 107.07,-18 z
M 1151.93,-18 L 1151.1,-18.0874 L 1150.3,-18.3458 L 1149.58,-18.7639 L 1148.96,-19.3235 L 1148.47,-20
 L 1148.13,-20.7639 L 1147.95,-21.5819 L 1147.95,-22.4181 L 1148.13,-23.2361 L 1148.47,-24 L 1148.96,-24.6765
 L 1149.58,-25.2361 L 1150.5,-25.7359 L 1235.57,-58.2868 L 1236.38,-58.5023 L 1237.21,-58.5452 L 1238.04,-58.4135
 L 1238.82,-58.113 L 1239.52,-57.6568 L 1240.11,-57.0648 L 1240.57,-56.3631 L 1240.86,-55.582 L 1241,-54.5509
 L 1241,-22 L 1240.91,-21.1684 L 1240.65,-20.373 L 1240.24,-19.6489 L 1239.68,-19.0274 L 1239,-18.5359
 L 1238.24,-18.1958 L 1237,-18 z
M 613.198,-18 L 612.159,-18.1374 L 611.378,-18.4379 L 610.677,-18.8941 L 610.087,-19.4861 L 609.632,-20.1879
 L 609.333,-20.9689 L 609.203,-21.7949 L 609.248,-22.63 L 609.465,-23.4375 L 609.846,-24.1821 L 610.373,-24.8315
 L 611.023,-25.357 L 611.769,-25.7359 L 628.071,-31.9736 L 629.286,-32.232 L 630.121,-32.1891 L 630.929,-31.9736
 L 647.231,-25.7359 L 648.153,-25.2361 L 648.775,-24.6765 L 649.266,-24 L 649.606,-23.2361 L 649.78,-22.4181
 L 649.78,-21.5819 L 649.606,-20.7639 L 649.266,-20 L 648.775,-19.3235 L 648.153,-18.7639 L 647.429,-18.3458
 L 646.634,-18.0874 L 645.802,-18 z
" stroke="black" fill="lightgray" stroke-width="0.5"/>
</svg>
