<?xml version="1.0" standalone="no"?>
<!DOCTYPE svg PUBLIC "-//W3C//DTD SVG 1.1//EN" "http://www.w3.org/Graphics/SVG/1.1/DTD/svg11.dtd">
<svg width="1619mm" height="80mm" viewBox="0 -80 1619 80" xmlns="http://www.w3.org/2000/svg" version="1.1">
<title>OpenSCAD Model</title>
<path d="
M 1619,-80 L 0,-80 L 0,-0 L 4.95,-0 L 4.95,-6 L 5.00572,-6.53017
 L 5.17046,-7.03717 L 5.437,-7.49884 L 5.79372,-7.895 L 6.22499,-8.20836 L 6.71201,-8.42519 L 7.23344,-8.53603
 L 7.76654,-8.53603 L 8.28798,-8.42519 L 8.77499,-8.20836 L 9.20627,-7.895 L 9.56299,-7.49884 L 9.82953,-7.03717
 L 9.99426,-6.53017 L 10.05,-6 L 10.05,-0 L 183.172,-0 L 183.172,-6 L 183.228,-6.53017
 L 183.393,-7.03717 L 183.659,-7.49884 L 184.016,-7.895 L 184.447,-8.20836 L 184.934,-8.42519 L 185.456,-8.53603
 L 185.989,-8.53603 L 186.51,-8.42519 L 186.997,-8.20836 L 187.428,-7.895 L 187.785,-7.49884 L 188.052,-7.03717
 L 188.216,-6.53017 L 188.272,-6 L 188.272,-0 L 361.394,-0 L 361.394,-6 L 361.45,-6.53017
 L 361.615,-7.03717 L 361.881,-7.49884 L 362.238,-7.895 L 362.669,-8.20836 L 363.156,-8.42519 L 363.678,-8.53603
 L 364.211,-8.53603 L 364.732,-8.42519 L 365.219,-8.20836 L 365.651,-7.895 L 366.007,-7.49884 L 366.274,-7.03717
 L 366.439,-6.53017 L 366.494,-6 L 366.494,-0 L 539.617,-0 L 539.617,-6 L 539.672,-6.53017
 L 539.837,-7.03717 L 540.104,-7.49884 L 540.46,-7.895 L 540.892,-8.20836 L 541.379,-8.42519 L 541.9,-8.53603
 L 542.433,-8.53603 L 542.955,-8.42519 L 543.442,-8.20836 L 543.873,-7.895 L 544.23,-7.49884 L 544.496,-7.03717
 L 544.661,-6.53017 L 544.717,-6 L 544.717,-0 L 717.839,-0 L 717.839,-6 L 717.895,-6.53017
 L 718.059,-7.03717 L 718.326,-7.49884 L 718.683,-7.895 L 719.114,-8.20836 L 719.601,-8.42519 L 720.122,-8.53603
 L 720.655,-8.53603 L 721.177,-8.42519 L 721.664,-8.20836 L 722.095,-7.895 L 722.452,-7.49884 L 722.718,-7.03717
 L 722.883,-6.53017 L 722.939,-6 L 722.939,-0 L 896.061,-0 L 896.061,-6 L 896.117,-6.53017
 L 896.282,-7.03717 L 896.548,-7.49884 L 896.905,-7.895 L 897.336,-8.20836 L 897.823,-8.42519 L 898.345,-8.53603
 L 898.878,-8.53603 L 899.399,-8.42519 L 899.886,-8.20836 L 900.317,-7.895 L 900.674,-7.49884 L 900.941,-7.03717
 L 901.105,-6.53017 L 901.161,-6 L 901.161,-0 L 1074.28,-0 L 1074.28,-6 L 1074.34,-6.53017
 L 1074.5,-7.03717 L 1074.77,-7.49884 L 1075.13,-7.895 L 1075.56,-8.20836 L 1076.05,-8.42519 L 1076.57,-8.53603
 L 1077.1,-8.53603 L 1077.62,-8.42519 L 1078.11,-8.20836 L 1078.54,-7.895 L 1078.9,-7.49884 L 1079.16,-7.03717
 L 1079.33,-6.53017 L 1079.38,-6 L 1079.38,-0 L 1252.51,-0 L 1252.51,-6 L 1252.56,-6.53017
 L 1252.73,-7.03717 L 1252.99,-7.49884 L 1253.35,-7.895 L 1253.78,-8.20836 L 1254.27,-8.42519 L 1254.79,-8.53603
 L 1255.32,-8.53603 L 1255.84,-8.42519 L 1256.33,-8.20836 L 1256.76,-7.895 L 1257.12,-7.49884 L 1257.39,-7.03717
 L 1257.55,-6.53017 L 1257.61,-6 L 1257.61,-0 L 1430.73,-0 L 1430.73,-6 L 1430.78,-6.53017
 L 1430.95,-7.03717 L 1431.21,-7.49884 L 1431.57,-7.895 L 1432,-8.20836 L 1432.49,-8.42519 L 1433.01,-8.53603
 L 1433.54,-8.53603 L 1434.07,-8.42519 L 1434.55,-8.20836 L 1434.98,-7.895 L 1435.34,-7.49884 L 1435.61,-7.03717
 L 1435.77,-6.53017 L 1435.83,-6 L 1435.83,-0 L 1608.95,-0 L 1608.95,-6 L 1609.01,-6.53017
 L 1609.17,-7.03717 L 1609.44,-7.49884 L 1609.79,-7.895 L 1610.22,-8.20836 L 1610.71,-8.42519 L 1611.23,-8.53603
 L 1611.77,-8.53603 L 1612.29,-8.42519 L 1612.77,-8.20836 L 1613.21,-7.895 L 1613.56,-7.49884 L 1613.83,-7.03717
 L 1613.99,-6.53017 L 1614.05,-6 L 1614.05,-0 L 1619,-0 z
M 6.98573,-55.607 L 6.47708,-55.6875 L 5.97964,-55.8208 L 5.49887,-56.0054 L 5.04001,-56.2392 L 4.60811,-56.5196
 L 4.20789,-56.8437 L 3.84373,-57.2079 L 3.51964,-57.6081 L 3.23917,-58.04 L 3.00537,-58.4989 L 2.82082,-58.9796
 L 2.68752,-59.4771 L 2.60696,-59.9857 L 2.58,-60.5 L 2.60696,-61.0143 L 2.68752,-61.5229 L 2.82082,-62.0204
 L 3.00537,-62.5011 L 3.23917,-62.96 L 3.51964,-63.3919 L 3.84373,-63.7921 L 4.20789,-64.1563 L 4.60811,-64.4804
 L 4.95001,-64.7024 L 4.95001,-74 L 5.00574,-74.5302 L 5.17047,-75.0372 L 5.43701,-75.4988 L 5.79373,-75.895
 L 6.22501,-76.2084 L 6.71202,-76.4252 L 7.23346,-76.536 L 7.76654,-76.536 L 8.28798,-76.4252 L 8.77499,-76.2084
 L 9.20627,-75.895 L 9.56299,-75.4988 L 9.82953,-75.0372 L 9.99426,-74.5302 L 10.05,-74 L 10.05,-64.7024
 L 10.3919,-64.4804 L 10.7921,-64.1563 L 11.1563,-63.7921 L 11.4804,-63.3919 L 11.7608,-62.96 L 11.9946,-62.5011
 L 12.1792,-62.0204 L 12.3125,-61.5229 L 12.393,-61.0143 L 12.42,-60.5 L 12.393,-59.9857 L 12.3125,-59.4771
 L 12.1792,-58.9796 L 11.9946,-58.4989 L 11.7608,-58.04 L 11.4804,-57.6081 L 11.1563,-57.2079 L 10.7921,-56.8437
 L 10.3919,-56.5196 L 9.95999,-56.2392 L 9.50113,-56.0054 L 9.02036,-55.8208 L 8.52292,-55.6875 L 8.01427,-55.607
 L 7.5,-55.58 z
M 1076.32,-55.607 L 1075.81,-55.6875 L 1075.31,-55.8208 L 1074.83,-56.0054 L 1074.37,-56.2392 L 1073.94,-56.5196
 L 1073.54,-56.8437 L 1073.18,-57.2079 L 1072.85,-57.6081 L 1072.57,-58.04 L 1072.34,-58.4989 L 1072.15,-58.9796
 L 1072.02,-59.4771 L 1071.94,-59.9857 L 1071.91,-60.5 L 1071.94,-61.0143 L 1072.02,-61.5229 L 1072.15,-62.0204
 L 1072.34,-62.5011 L 1072.57,-62.96 L 1072.85,-63.3919 L 1073.18,-63.7921 L 1073.54,-64.1563 L 1073.94,-64.4804
 L 1074.28,-64.7024 L 1074.28,-74 L 1074.34,-74.5302 L 1074.5,-75.0372 L 1074.77,-75.4988 L 1075.13,-75.895
 L 1075.56,-76.2084 L 1076.05,-76.4252 L 1076.57,-76.536 L 1077.1,-76.536 L 1077.62,-76.4252 L 1078.11,-76.2084
 L 1078.54,-75.895 L 1078.9,-75.4988 L 1079.16,-75.0372 L 1079.33,-74.5302 L 1079.38,-74 L 1079.38,-64.7024
 L 1079.73,-64.4804 L 1080.13,-64.1563 L 1080.49,-63.7921 L 1080.81,-63.3919 L 1081.09,-62.96 L 1081.33,-62.5011
 L 1081.51,-62.0204 L 1081.65,-61.5229 L 1081.73,-61.0143 L 1081.75,-60.5 L 1081.73,-59.9857 L 1081.65,-59.4771
 L 1081.51,-58.9796 L 1081.33,-58.4989 L 1081.09,-58.04 L 1080.81,-57.6081 L 1080.49,-57.2079 L 1080.13,-56.8437
 L 1079.73,-56.5196 L 1079.29,-56.2392 L 1078.83,-56.0054 L 1078.35,-55.8208 L 1077.86,-55.6875 L 1077.35,-55.607
 L 1076.83,-55.58 z
M 1254.54,-55.607 L 1254.03,-55.6875 L 1253.54,-55.8208 L 1253.05,-56.0054 L 1252.6,-56.2392 L 1252.16,-56.5196
 L 1251.76,-56.8437 L 1251.4,-57.2079 L 1251.08,-57.6081 L 1250.79,-58.04 L 1250.56,-58.4989 L 1250.38,-58.9796
 L 1250.24,-59.4771 L 1250.16,-59.9857 L 1250.14,-60.5 L 1250.16,-61.0143 L 1250.24,-61.5229 L 1250.38,-62.0204
 L 1250.56,-62.5011 L 1250.79,-62.96 L 1251.08,-63.3919 L 1251.4,-63.7921 L 1251.76,-64.1563 L 1252.16,-64.4804
 L 1252.51,-64.7024 L 1252.51,-74 L 1252.56,-74.5302 L 1252.73,-75.0372 L 1252.99,-75.4988 L 1253.35,-75.895
 L 1253.78,-76.2084 L 1254.27,-76.4252 L 1254.79,-76.536 L 1255.32,-76.536 L 1255.84,-76.4252 L 1256.33,-76.2084
 L 1256.76,-75.895 L 1257.12,-75.4988 L 1257.39,-75.0372 L 1257.55,-74.5302 L 1257.61,-74 L 1257.61,-64.7024
 L 1257.95,-64.4804 L 1258.35,-64.1563 L 1258.71,-63.7921 L 1259.04,-63.3919 L 1259.32,-62.96 L 1259.55,-62.5011
 L 1259.73,-62.0204 L 1259.87,-61.5229 L 1259.95,-61.0143 L 1259.98,-60.5 L 1259.95,-59.9857 L 1259.87,-59.4771
 L 1259.73,-58.9796 L 1259.55,-58.4989 L 1259.32,-58.04 L 1259.04,-57.6081 L 1258.71,-57.2079 L 1258.35,-56.8437
 L 1257.95,-56.5196 L 1257.52,-56.2392 L 1257.06,-56.0054 L 1256.58,-55.8208 L 1256.08,-55.6875 L 1255.57,-55.607
 L 1255.06,-55.58 z
M 898.097,-55.607 L 897.588,-55.6875 L 897.091,-55.8208 L 896.61,-56.0054 L 896.151,-56.2392 L 895.719,-56.5196
 L 895.319,-56.8437 L 894.955,-57.2079 L 894.631,-57.6081 L 894.35,-58.04 L 894.116,-58.4989 L 893.932,-58.9796
 L 893.799,-59.4771 L 893.718,-59.9857 L 893.691,-60.5 L 893.718,-61.0143 L 893.799,-61.5229 L 893.932,-62.0204
 L 894.116,-62.5011 L 894.35,-62.96 L 894.631,-63.3919 L 894.955,-63.7921 L 895.319,-64.1563 L 895.719,-64.4804
 L 896.061,-64.7024 L 896.061,-74 L 896.117,-74.5302 L 896.282,-75.0372 L 896.548,-75.4988 L 896.905,-75.895
 L 897.336,-76.2084 L 897.823,-76.4252 L 898.345,-76.536 L 898.878,-76.536 L 899.399,-76.4252 L 899.886,-76.2084
 L 900.317,-75.895 L 900.674,-75.4988 L 900.941,-75.0372 L 901.105,-74.5302 L 901.161,-74 L 901.161,-64.7024
 L 901.503,-64.4804 L 901.903,-64.1563 L 902.267,-63.7921 L 902.591,-63.3919 L 902.872,-62.96 L 903.106,-62.5011
 L 903.29,-62.0204 L 903.424,-61.5229 L 903.504,-61.0143 L 903.531,-60.5 L 903.504,-59.9857 L 903.424,-59.4771
 L 903.29,-58.9796 L 903.106,-58.4989 L 902.872,-58.04 L 902.591,-57.6081 L 902.267,-57.2079 L 901.903,-56.8437
 L 901.503,-56.5196 L 901.071,-56.2392 L 900.612,-56.0054 L 900.131,-55.8208 L 899.634,-55.6875 L 899.125,-55.607
 L 898.611,-55.58 z
M 719.875,-55.607 L 719.366,-55.6875 L 718.869,-55.8208 L 718.388,-56.0054 L 717.929,-56.2392 L 717.497,-56.5196
 L 717.097,-56.8437 L 716.733,-57.2079 L 716.409,-57.6081 L 716.128,-58.04 L 715.894,-58.4989 L 715.71,-58.9796
 L 715.576,-59.4771 L 715.496,-59.9857 L 715.469,-60.5 L 715.496,-61.0143 L 715.576,-61.5229 L 715.71,-62.0204
 L 715.894,-62.5011 L 716.128,-62.96 L 716.409,-63.3919 L 716.733,-63.7921 L 717.097,-64.1563 L 717.497,-64.4804
 L 717.839,-64.7024 L 717.839,-74 L 717.895,-74.5302 L 718.059,-75.0372 L 718.326,-75.4988 L 718.683,-75.895
 L 719.114,-76.2084 L 719.601,-76.4252 L 720.122,-76.536 L 720.655,-76.536 L 721.177,-76.4252 L 721.664,-76.2084
 L 722.095,-75.895 L 722.452,-75.4988 L 722.718,-75.0372 L 722.883,-74.5302 L 722.939,-74 L 722.939,-64.7024
 L 723.281,-64.4804 L 723.681,-64.1563 L 724.045,-63.7921 L 724.369,-63.3919 L 724.65,-62.96 L 724.884,-62.5011
 L 725.068,-62.0204 L 725.201,-61.5229 L 725.282,-61.0143 L 725.309,-60.5 L 725.282,-59.9857 L 725.201,-59.4771
 L 725.068,-58.9796 L 724.884,-58.4989 L 724.65,-58.04 L 724.369,-57.6081 L 724.045,-57.2079 L 723.681,-56.8437
 L 723.281,-56.5196 L 722.849,-56.2392 L 722.39,-56.0054 L 721.909,-55.8208 L 721.412,-55.6875 L 720.903,-55.607
 L 720.389,-55.58 z
M 1432.76,-55.607 L 1432.25,-55.6875 L 1431.76,-55.8208 L 1431.28,-56.0054 L 1430.82,-56.2392 L 1430.39,-56.5196
 L 1429.99,-56.8437 L 1429.62,-57.2079 L 1429.3,-57.6081 L 1429.02,-58.04 L 1428.78,-58.4989 L 1428.6,-58.9796
 L 1428.47,-59.4771 L 1428.38,-59.9857 L 1428.36,-60.5 L 1428.38,-61.0143 L 1428.47,-61.5229 L 1428.6,-62.0204
 L 1428.78,-62.5011 L 1429.02,-62.96 L 1429.3,-63.3919 L 1429.62,-63.7921 L 1429.99,-64.1563 L 1430.39,-64.4804
 L 1430.73,-64.7024 L 1430.73,-74 L 1430.78,-74.5302 L 1430.95,-75.0372 L 1431.21,-75.4988 L 1431.57,-75.895
 L 1432,-76.2084 L 1432.49,-76.4252 L 1433.01,-76.536 L 1433.54,-76.536 L 1434.07,-76.4252 L 1434.55,-76.2084
 L 1434.98,-75.895 L 1435.34,-75.4988 L 1435.61,-75.0372 L 1435.77,-74.5302 L 1435.83,-74 L 1435.83,-64.7024
 L 1436.17,-64.4804 L 1436.57,-64.1563 L 1436.93,-63.7921 L 1437.26,-63.3919 L 1437.54,-62.96 L 1437.77,-62.5011
 L 1437.96,-62.0204 L 1438.09,-61.5229 L 1438.17,-61.0143 L 1438.2,-60.5 L 1438.17,-59.9857 L 1438.09,-59.4771
 L 1437.96,-58.9796 L 1437.77,-58.4989 L 1437.54,-58.04 L 1437.26,-57.6081 L 1436.93,-57.2079 L 1436.57,-56.8437
 L 1436.17,-56.5196 L 1435.74,-56.2392 L 1435.28,-56.0054 L 1434.8,-55.8208 L 1434.3,-55.6875 L 1433.79,-55.607
 L 1433.28,-55.58 z
M 541.652,-55.607 L 541.144,-55.6875 L 540.646,-55.8208 L 540.166,-56.0054 L 539.707,-56.2392 L 539.275,-56.5196
 L 538.875,-56.8437 L 538.51,-57.2079 L 538.186,-57.6081 L 537.906,-58.04 L 537.672,-58.4989 L 537.487,-58.9796
 L 537.354,-59.4771 L 537.274,-59.9857 L 537.247,-60.5 L 537.274,-61.0143 L 537.354,-61.5229 L 537.487,-62.0204
 L 537.672,-62.5011 L 537.906,-62.96 L 538.186,-63.3919 L 538.51,-63.7921 L 538.875,-64.1563 L 539.275,-64.4804
 L 539.617,-64.7024 L 539.617,-74 L 539.672,-74.5302 L 539.837,-75.0372 L 540.104,-75.4988 L 540.46,-75.895
 L 540.892,-76.2084 L 541.379,-76.4252 L 541.9,-76.536 L 542.433,-76.536 L 542.955,-76.4252 L 543.442,-76.2084
 L 543.873,-75.895 L 544.23,-75.4988 L 544.496,-75.0372 L 544.661,-74.5302 L 544.717,-74 L 544.717,-64.7024
 L 545.059,-64.4804 L 545.459,-64.1563 L 545.823,-63.7921 L 546.147,-63.3919 L 546.427,-62.96 L 546.661,-62.5011
 L 546.846,-62.0204 L 546.979,-61.5229 L 547.06,-61.0143 L 547.087,-60.5 L 547.06,-59.9857 L 546.979,-59.4771
 L 546.846,-58.9796 L 546.661,-58.4989 L 546.427,-58.04 L 546.147,-57.6081 L 545.823,-57.2079 L 545.459,-56.8437
 L 545.059,-56.5196 L 544.627,-56.2392 L 544.168,-56.0054 L 543.687,-55.8208 L 543.19,-55.6875 L 542.681,-55.607
 L 542.167,-55.58 z
M 363.43,-55.607 L 362.922,-55.6875 L 362.424,-55.8208 L 361.943,-56.0054 L 361.484,-56.2392 L 361.053,-56.5196
 L 360.652,-56.8437 L 360.288,-57.2079 L 359.964,-57.6081 L 359.684,-58.04 L 359.45,-58.4989 L 359.265,-58.9796
 L 359.132,-59.4771 L 359.051,-59.9857 L 359.024,-60.5 L 359.051,-61.0143 L 359.132,-61.5229 L 359.265,-62.0204
 L 359.45,-62.5011 L 359.684,-62.96 L 359.964,-63.3919 L 360.288,-63.7921 L 360.652,-64.1563 L 361.053,-64.4804
 L 361.394,-64.7024 L 361.394,-74 L 361.45,-74.5302 L 361.615,-75.0372 L 361.881,-75.4988 L 362.238,-75.895
 L 362.669,-76.2084 L 363.156,-76.4252 L 363.678,-76.536 L 364.211,-76.536 L 364.732,-76.4252 L 365.219,-76.2084
 L 365.651,-75.895 L 366.007,-75.4988 L 366.274,-75.0372 L 366.439,-74.5302 L 366.494,-74 L 366.494,-64.7024
 L 366.836,-64.4804 L 367.237,-64.1563 L 367.601,-63.7921 L 367.925,-63.3919 L 368.205,-62.96 L 368.439,-62.5011
 L 368.624,-62.0204 L 368.757,-61.5229 L 368.837,-61.0143 L 368.864,-60.5 L 368.837,-59.9857 L 368.757,-59.4771
 L 368.624,-58.9796 L 368.439,-58.4989 L 368.205,-58.04 L 367.925,-57.6081 L 367.601,-57.2079 L 367.237,-56.8437
 L 366.836,-56.5196 L 366.404,-56.2392 L 365.946,-56.0054 L 365.465,-55.8208 L 364.967,-55.6875 L 364.459,-55.607
 L 363.944,-55.58 z
M 1610.99,-55.607 L 1610.48,-55.6875 L 1609.98,-55.8208 L 1609.5,-56.0054 L 1609.04,-56.2392 L 1608.61,-56.5196
 L 1608.21,-56.8437 L 1607.84,-57.2079 L 1607.52,-57.6081 L 1607.24,-58.04 L 1607.01,-58.4989 L 1606.82,-58.9796
 L 1606.69,-59.4771 L 1606.61,-59.9857 L 1606.58,-60.5 L 1606.61,-61.0143 L 1606.69,-61.5229 L 1606.82,-62.0204
 L 1607.01,-62.5011 L 1607.24,-62.96 L 1607.52,-63.3919 L 1607.84,-63.7921 L 1608.21,-64.1563 L 1608.61,-64.4804
 L 1608.95,-64.7024 L 1608.95,-74 L 1609.01,-74.5302 L 1609.17,-75.0372 L 1609.44,-75.4988 L 1609.79,-75.895
 L 1610.23,-76.2084 L 1610.71,-76.4252 L 1611.23,-76.536 L 1611.77,-76.536 L 1612.29,-76.4252 L 1612.77,-76.2084
 L 1613.21,-75.895 L 1613.56,-75.4988 L 1613.83,-75.0372 L 1613.99,-74.5302 L 1614.05,-74 L 1614.05,-64.7024
 L 1614.39,-64.4804 L 1614.79,-64.1563 L 1615.16,-63.7921 L 1615.48,-63.3919 L 1615.76,-62.96 L 1615.99,-62.5011
 L 1616.18,-62.0204 L 1616.31,-61.5229 L 1616.39,-61.0143 L 1616.42,-60.5 L 1616.39,-59.9857 L 1616.31,-59.4771
 L 1616.18,-58.9796 L 1615.99,-58.4989 L 1615.76,-58.04 L 1615.48,-57.6081 L 1615.16,-57.2079 L 1614.79,-56.8437
 L 1614.39,-56.5196 L 1613.96,-56.2392 L 1613.5,-56.0054 L 1613.02,-55.8208 L 1612.52,-55.6875 L 1612.01,-55.607
 L 1611.5,-55.58 z
M 185.208,-55.607 L 184.699,-55.6875 L 184.202,-55.8208 L 183.721,-56.0054 L 183.262,-56.2392 L 182.83,-56.5196
 L 182.43,-56.8437 L 182.066,-57.2079 L 181.742,-57.6081 L 181.461,-58.04 L 181.228,-58.4989 L 181.043,-58.9796
 L 180.91,-59.4771 L 180.829,-59.9857 L 180.802,-60.5 L 180.829,-61.0143 L 180.91,-61.5229 L 181.043,-62.0204
 L 181.228,-62.5011 L 181.461,-62.96 L 181.742,-63.3919 L 182.066,-63.7921 L 182.43,-64.1563 L 182.83,-64.4804
 L 183.172,-64.7024 L 183.172,-74 L 183.228,-74.5302 L 183.393,-75.0372 L 183.659,-75.4988 L 184.016,-75.895
 L 184.447,-76.2084 L 184.934,-76.4252 L 185.456,-76.536 L 185.989,-76.536 L 186.51,-76.4252 L 186.997,-76.2084
 L 187.428,-75.895 L 187.785,-75.4988 L 188.052,-75.0372 L 188.216,-74.5302 L 188.272,-74 L 188.272,-64.7024
 L 188.614,-64.4804 L 189.014,-64.1563 L 189.378,-63.7921 L 189.703,-63.3919 L 189.983,-62.96 L 190.217,-62.5011
 L 190.401,-62.0204 L 190.535,-61.5229 L 190.615,-61.0143 L 190.642,-60.5 L 190.615,-59.9857 L 190.535,-59.4771
 L 190.401,-58.9796 L 190.217,-58.4989 L 189.983,-58.04 L 189.703,-57.6081 L 189.378,-57.2079 L 189.014,-56.8437
 L 188.614,-56.5196 L 188.182,-56.2392 L 187.723,-56.0054 L 187.243,-55.8208 L 186.745,-55.6875 L 186.236,-55.607
 L 185.722,-55.58 z
M 1088.79,-20.995 L 1088.01,-21.2962 L 1087.31,-21.7531 L 1086.72,-22.3456 L 1086.27,-23.0478 L 1085.97,-23.8291
 L 1085.83,-24.8566 L 1085.83,-58 L 1085.92,-58.8316 L 1086.18,-59.627 L 1086.6,-60.3511 L 1087.16,-60.9726
 L 1087.83,-61.4641 L 1088.6,-61.8042 L 1089.83,-62 L 1176.7,-62 L 1177.53,-61.9126 L 1178.33,-61.6542
 L 1179.05,-61.2361 L 1179.67,-60.6765 L 1180.16,-60 L 1180.5,-59.2361 L 1180.68,-58.4181 L 1180.68,-57.5819
 L 1180.5,-56.7639 L 1180.16,-56 L 1179.67,-55.3235 L 1179.05,-54.7639 L 1178.13,-54.2628 L 1091.26,-21.1194
 L 1090.45,-20.9046 L 1089.62,-20.8625 z
M 910.568,-20.995 L 909.788,-21.2962 L 909.088,-21.7531 L 908.497,-22.3456 L 908.043,-23.0478 L 907.745,-23.8291
 L 907.611,-24.8566 L 907.611,-58 L 907.699,-58.8316 L 907.957,-59.627 L 908.375,-60.3511 L 908.935,-60.9726
 L 909.611,-61.4641 L 910.375,-61.8042 L 911.611,-62 L 998.477,-62 L 999.309,-61.9126 L 1000.1,-61.6542
 L 1000.83,-61.2361 L 1001.45,-60.6765 L 1001.94,-60 L 1002.28,-59.2361 L 1002.46,-58.4181 L 1002.46,-57.5819
 L 1002.28,-56.7639 L 1001.94,-56 L 1001.45,-55.3235 L 1000.83,-54.7639 L 999.903,-54.2628 L 913.037,-21.1194
 L 912.229,-20.9046 L 911.394,-20.8625 z
M 808.882,-47.8065 L 808.074,-48.0213 L 791.716,-54.2628 L 790.791,-54.7639 L 790.169,-55.3235 L 789.678,-56
 L 789.337,-56.7639 L 789.164,-57.5819 L 789.164,-58.4181 L 789.337,-59.2361 L 789.678,-60 L 790.169,-60.6765
 L 790.791,-61.2361 L 791.515,-61.6542 L 792.31,-61.9126 L 793.142,-62 L 825.858,-62 L 826.901,-61.8616
 L 827.681,-61.5603 L 828.382,-61.1035 L 828.972,-60.511 L 829.426,-59.8087 L 829.724,-59.0275 L 829.853,-58.2013
 L 829.808,-57.3663 L 829.59,-56.559 L 829.209,-55.8147 L 828.681,-55.1659 L 828.03,-54.6409 L 827.284,-54.2628
 L 810.926,-48.0213 L 809.717,-47.7645 z
M 706.771,-20.9046 L 705.963,-21.1194 L 619.097,-54.2628 L 618.172,-54.7639 L 617.55,-55.3235 L 617.059,-56
 L 616.719,-56.7639 L 616.545,-57.5819 L 616.545,-58.4181 L 616.719,-59.2361 L 617.059,-60 L 617.55,-60.6765
 L 618.172,-61.2361 L 618.896,-61.6542 L 619.691,-61.9126 L 620.523,-62 L 707.389,-62 L 708.625,-61.8042
 L 709.389,-61.4641 L 710.065,-60.9726 L 710.625,-60.3511 L 711.043,-59.627 L 711.301,-58.8316 L 711.389,-58
 L 711.389,-24.8566 L 711.255,-23.8291 L 710.957,-23.0478 L 710.503,-22.3456 L 709.912,-21.7531 L 709.212,-21.2962
 L 708.432,-20.995 L 707.606,-20.8625 z
M 528.549,-20.9046 L 527.741,-21.1194 L 440.875,-54.2628 L 439.949,-54.7639 L 439.328,-55.3235 L 438.836,-56
 L 438.496,-56.7639 L 438.322,-57.5819 L 438.322,-58.4181 L 438.496,-59.2361 L 438.836,-60 L 439.328,-60.6765
 L 439.949,-61.2361 L 440.674,-61.6542 L 441.469,-61.9126 L 442.301,-62 L 529.167,-62 L 530.403,-61.8042
 L 531.167,-61.4641 L 531.843,-60.9726 L 532.403,-60.3511 L 532.821,-59.627 L 533.079,-58.8316 L 533.167,-58
 L 533.167,-24.8566 L 533.032,-23.8291 L 532.734,-23.0478 L 532.28,-22.3456 L 531.69,-21.7531 L 530.99,-21.2962
 L 530.21,-20.995 L 529.384,-20.8625 z
M 350.327,-20.9046 L 349.519,-21.1194 L 262.652,-54.2628 L 261.727,-54.7639 L 261.106,-55.3235 L 260.614,-56
 L 260.274,-56.7639 L 260.1,-57.5819 L 260.1,-58.4181 L 260.274,-59.2361 L 260.614,-60 L 261.106,-60.6765
 L 261.727,-61.2361 L 262.451,-61.6542 L 263.247,-61.9126 L 264.078,-62 L 350.944,-62 L 352.18,-61.8042
 L 352.944,-61.4641 L 353.621,-60.9726 L 354.18,-60.3511 L 354.599,-59.627 L 354.857,-58.8316 L 354.944,-58
 L 354.944,-24.8566 L 354.81,-23.8291 L 354.512,-23.0478 L 354.058,-22.3456 L 353.468,-21.7531 L 352.768,-21.2962
 L 351.988,-20.995 L 351.162,-20.8625 z
M 1445.23,-20.995 L 1444.45,-21.2962 L 1443.75,-21.7531 L 1443.16,-22.3456 L 1442.71,-23.0478 L 1442.41,-23.8291
 L 1442.28,-24.8566 L 1442.28,-58 L 1442.37,-58.8316 L 1442.62,-59.627 L 1443.04,-60.3511 L 1443.6,-60.9726
 L 1444.28,-61.4641 L 1445.04,-61.8042 L 1446.28,-62 L 1533.14,-62 L 1533.98,-61.9126 L 1534.77,-61.6542
 L 1535.5,-61.2361 L 1536.12,-60.6765 L 1536.61,-60 L 1536.95,-59.2361 L 1537.12,-58.4181 L 1537.12,-57.5819
 L 1536.95,-56.7639 L 1536.61,-56 L 1536.12,-55.3235 L 1535.5,-54.7639 L 1534.57,-54.2628 L 1447.7,-21.1194
 L 1446.9,-20.9046 L 1446.06,-20.8625 z
M 172.104,-20.9046 L 171.296,-21.1194 L 84.4302,-54.2628 L 83.505,-54.7639 L 82.8835,-55.3235 L 82.392,-56
 L 82.0519,-56.7639 L 81.878,-57.5819 L 81.878,-58.4181 L 82.0519,-59.2361 L 82.392,-60 L 82.8835,-60.6765
 L 83.505,-61.2361 L 84.2292,-61.6542 L 85.0245,-61.9126 L 85.8561,-62 L 172.722,-62 L 173.958,-61.8042
 L 174.722,-61.4641 L 175.399,-60.9726 L 175.958,-60.3511 L 176.376,-59.627 L 176.635,-58.8316 L 176.722,-58
 L 176.722,-24.8566 L 176.588,-23.8291 L 176.29,-23.0478 L 175.836,-22.3456 L 175.246,-21.7531 L 174.545,-21.2962
 L 173.765,-20.995 L 172.94,-20.8625 z
M 1267.01,-20.995 L 1266.23,-21.2962 L 1265.53,-21.7531 L 1264.94,-22.3456 L 1264.49,-23.0478 L 1264.19,-23.8291
 L 1264.06,-24.8566 L 1264.06,-58 L 1264.14,-58.8316 L 1264.4,-59.627 L 1264.82,-60.3511 L 1265.38,-60.9726
 L 1266.06,-61.4641 L 1266.82,-61.8042 L 1268.06,-62 L 1354.92,-62 L 1355.75,-61.9126 L 1356.55,-61.6542
 L 1357.27,-61.2361 L 1357.89,-60.6765 L 1358.39,-60 L 1358.73,-59.2361 L 1358.9,-58.4181 L 1358.9,-57.5819
 L 1358.73,-56.7639 L 1358.39,-56 L 1357.89,-55.3235 L 1357.27,-54.7639 L 1356.35,-54.2628 L 1269.48,-21.1194
 L 1268.67,-20.9046 L 1267.84,-20.8625 z
M 732.971,-18.7406 L 732.153,-18.9144 L 731.389,-19.2546 L 730.712,-19.7461 L 730.153,-20.3675 L 729.735,-21.0917
 L 729.476,-21.887 L 729.389,-22.7187 L 729.389,-57.2813 L 729.523,-58.3088 L 729.821,-59.0901 L 730.275,-59.7923
 L 730.865,-60.3848 L 731.566,-60.8417 L 732.346,-61.1429 L 733.171,-61.2754 L 734.007,-61.2333 L 734.815,-61.0185
 L 780.108,-43.7372 L 780.505,-43.5603 L 781.205,-43.1035 L 781.795,-42.511 L 782.249,-41.8087 L 782.548,-41.0275
 L 782.677,-40.2013 L 782.631,-39.3663 L 782.413,-38.559 L 782.032,-37.8147 L 781.505,-37.1659 L 780.854,-36.6409
 L 780.108,-36.2628 L 734.815,-18.9815 L 733.807,-18.7406 z
M 884.993,-18.7666 L 884.185,-18.9814 L 838.892,-36.2628 L 838.495,-36.4397 L 837.795,-36.8965 L 837.204,-37.489
 L 836.75,-38.1913 L 836.452,-38.9725 L 836.323,-39.7987 L 836.369,-40.6337 L 836.587,-41.441 L 836.968,-42.1853
 L 837.495,-42.8341 L 838.146,-43.3591 L 838.892,-43.7372 L 884.185,-61.0186 L 885.193,-61.2594 L 886.029,-61.2594
 L 886.847,-61.0856 L 887.611,-60.7454 L 888.288,-60.2539 L 888.847,-59.6325 L 889.265,-58.9083 L 889.524,-58.113
 L 889.611,-57.2813 L 889.611,-22.7187 L 889.477,-21.6912 L 889.179,-20.9099 L 888.725,-20.2077 L 888.135,-19.6152
 L 887.434,-19.1583 L 886.654,-18.8571 L 885.829,-18.7246 z
M 198.722,-18 L 197.486,-18.1958 L 196.722,-18.5359 L 196.046,-19.0274 L 195.486,-19.6489 L 195.068,-20.373
 L 194.81,-21.1684 L 194.722,-22 L 194.722,-55.1434 L 194.856,-56.1709 L 195.155,-56.9522 L 195.609,-57.6544
 L 196.199,-58.2469 L 196.899,-58.7038 L 197.679,-59.005 L 198.505,-59.1375 L 199.34,-59.0954 L 200.148,-58.8806
 L 287.014,-25.7372 L 287.939,-25.2361 L 288.561,-24.6765 L 289.052,-24 L 289.393,-23.2361 L 289.566,-22.4181
 L 289.566,-21.5819 L 289.393,-20.7639 L 289.052,-20 L 288.561,-19.3235 L 287.939,-18.7639 L 287.215,-18.3458
 L 286.42,-18.0874 L 285.588,-18 z
M 376.944,-18 L 375.708,-18.1958 L 374.944,-18.5359 L 374.268,-19.0274 L 373.708,-19.6489 L 373.29,-20.373
 L 373.032,-21.1684 L 372.944,-22 L 372.944,-55.1434 L 373.079,-56.1709 L 373.377,-56.9522 L 373.831,-57.6544
 L 374.421,-58.2469 L 375.121,-58.7038 L 375.901,-59.005 L 376.727,-59.1375 L 377.562,-59.0954 L 378.37,-58.8806
 L 465.236,-25.7372 L 466.162,-25.2361 L 466.783,-24.6765 L 467.275,-24 L 467.615,-23.2361 L 467.789,-22.4181
 L 467.789,-21.5819 L 467.615,-20.7639 L 467.275,-20 L 466.783,-19.3235 L 466.162,-18.7639 L 465.437,-18.3458
 L 464.642,-18.0874 L 463.811,-18 z
M 555.167,-18 L 553.931,-18.1958 L 553.167,-18.5359 L 552.49,-19.0274 L 551.931,-19.6489 L 551.512,-20.373
 L 551.254,-21.1684 L 551.167,-22 L 551.167,-55.1434 L 551.301,-56.1709 L 551.599,-56.9522 L 552.053,-57.6544
 L 552.643,-58.2469 L 553.343,-58.7038 L 554.124,-59.005 L 554.949,-59.1375 L 555.784,-59.0954 L 556.593,-58.8806
 L 643.459,-25.7372 L 644.384,-25.2361 L 645.005,-24.6765 L 645.497,-24 L 645.837,-23.2361 L 646.011,-22.4181
 L 646.011,-21.5819 L 645.837,-20.7639 L 645.497,-20 L 645.005,-19.3235 L 644.384,-18.7639 L 643.66,-18.3458
 L 642.864,-18.0874 L 642.033,-18 z
M 976.967,-18 L 976.136,-18.0874 L 975.34,-18.3458 L 974.616,-18.7639 L 973.995,-19.3235 L 973.503,-20
 L 973.163,-20.7639 L 972.989,-21.5819 L 972.989,-22.4181 L 973.163,-23.2361 L 973.503,-24 L 973.995,-24.6765
 L 974.616,-25.2361 L 975.541,-25.7372 L 1062.41,-58.8806 L 1063.22,-59.0954 L 1064.05,-59.1375 L 1064.88,-59.005
 L 1065.66,-58.7038 L 1066.36,-58.2469 L 1066.95,-57.6544 L 1067.4,-56.9522 L 1067.7,-56.1709 L 1067.83,-55.1434
 L 1067.83,-22 L 1067.75,-21.1684 L 1067.49,-20.373 L 1067.07,-19.6489 L 1066.51,-19.0274 L 1065.83,-18.5359
 L 1065.07,-18.1958 L 1063.83,-18 z
M 1155.19,-18 L 1154.36,-18.0874 L 1153.56,-18.3458 L 1152.84,-18.7639 L 1152.22,-19.3235 L 1151.73,-20
 L 1151.39,-20.7639 L 1151.21,-21.5819 L 1151.21,-22.4181 L 1151.39,-23.2361 L 1151.73,-24 L 1152.22,-24.6765
 L 1152.84,-25.2361 L 1153.76,-25.7372 L 1240.63,-58.8806 L 1241.44,-59.0954 L 1242.27,-59.1375 L 1243.1,-59.005
 L 1243.88,-58.7038 L 1244.58,-58.2469 L 1245.17,-57.6544 L 1245.62,-56.9522 L 1245.92,-56.1709 L 1246.06,-55.1434
 L 1246.06,-22 L 1245.97,-21.1684 L 1245.71,-20.373 L 1245.29,-19.6489 L 1244.73,-19.0274 L 1244.06,-18.5359
 L 1243.29,-18.1958 L 1242.06,-18 z
M 1333.41,-18 L 1332.58,-18.0874 L 1331.78,-18.3458 L 1331.06,-18.7639 L 1330.44,-19.3235 L 1329.95,-20
 L 1329.61,-20.7639 L 1329.43,-21.5819 L 1329.43,-22.4181 L 1329.61,-23.2361 L 1329.95,-24 L 1330.44,-24.6765
 L 1331.06,-25.2361 L 1331.99,-25.7372 L 1418.85,-58.8806 L 1419.66,-59.0954 L 1420.5,-59.1375 L 1421.32,-59.005
 L 1422.1,-58.7038 L 1422.8,-58.2469 L 1423.39,-57.6544 L 1423.85,-56.9522 L 1424.14,-56.1709 L 1424.28,-55.1434
 L 1424.28,-22 L 1424.19,-21.1684 L 1423.93,-20.373 L 1423.51,-19.6489 L 1422.95,-19.0274 L 1422.28,-18.5359
 L 1421.51,-18.1958 L 1420.28,-18 z
M 22,-18 L 20.7639,-18.1958 L 20,-18.5359 L 19.3235,-19.0274 L 18.7639,-19.6489 L 18.3458,-20.373
 L 18.0874,-21.1684 L 18,-22 L 18,-54.5711 L 18.1342,-55.5986 L 18.4323,-56.3798 L 18.8863,-57.0821
 L 19.4764,-57.6746 L 20.1768,-58.1314 L 20.9569,-58.4327 L 21.7826,-58.5652 L 22.6178,-58.5231 L 23.4259,-58.3083
 L 108.792,-25.7372 L 109.717,-25.2361 L 110.339,-24.6765 L 110.83,-24 L 111.17,-23.2361 L 111.344,-22.4181
 L 111.344,-21.5819 L 111.17,-20.7639 L 110.83,-20 L 110.339,-19.3235 L 109.717,-18.7639 L 108.993,-18.3458
 L 108.198,-18.0874 L 107.366,-18 z
M 1511.63,-18 L 1510.8,-18.0874 L 1510.01,-18.3458 L 1509.28,-18.7639 L 1508.66,-19.3235 L 1508.17,-20
 L 1507.83,-20.7639 L 1507.66,-21.5819 L 1507.66,-22.4181 L 1507.83,-23.2361 L 1508.17,-24 L 1508.66,-24.6765
 L 1509.28,-25.2361 L 1510.21,-25.7372 L 1595.57,-58.3083 L 1596.38,-58.5231 L 1597.22,-58.5652 L 1598.04,-58.4327
 L 1598.82,-58.1314 L 1599.52,-57.6746 L 1600.11,-57.0821 L 1600.57,-56.3798 L 1600.87,-55.5986 L 1601,-54.5711
 L 1601,-22 L 1600.91,-21.1684 L 1600.65,-20.373 L 1600.24,-19.6489 L 1599.68,-19.0274 L 1599,-18.5359
 L 1598.24,-18.1958 L 1597,-18 z
M 793.142,-18 L 792.099,-18.1384 L 791.319,-18.4397 L 790.618,-18.8965 L 790.028,-19.489 L 789.574,-20.1913
 L 789.276,-20.9725 L 789.147,-21.7987 L 789.192,-22.6337 L 789.41,-23.441 L 789.791,-24.1853 L 790.319,-24.8341
 L 790.97,-25.3591 L 791.716,-25.7372 L 808.074,-31.9787 L 809.283,-32.2355 L 810.118,-32.1935 L 810.926,-31.9787
 L 827.284,-25.7372 L 828.209,-25.2361 L 828.831,-24.6765 L 829.322,-24 L 829.663,-23.2361 L 829.836,-22.4181
 L 829.836,-21.5819 L 829.663,-20.7639 L 829.322,-20 L 828.831,-19.3235 L 828.209,-18.7639 L 827.485,-18.3458
 L 826.69,-18.0874 L 825.858,-18 z
" stroke="black" fill="lightgray" stroke-width="0.5"/>
</svg>
