<?xml version="1.0" standalone="no"?>
<!DOCTYPE svg PUBLIC "-//W3C//DTD SVG 1.1//EN" "http://www.w3.org/Graphics/SVG/1.1/DTD/svg11.dtd">
<svg width="1643mm" height="80mm" viewBox="0 -80 1643 80" xmlns="http://www.w3.org/2000/svg" version="1.1">
<title>OpenSCAD Model</title>
<path d="
M 1643,-80 L 0,-80 L 0,-0 L 4.95,-0 L 4.95,-6 L 5.00572,-6.53017
 L 5.17046,-7.03717 L 5.437,-7.49884 L 5.79372,-7.895 L 6.22499,-8.20836 L 6.71201,-8.42519 L 7.23344,-8.53603
 L 7.76654,-8.53603 L 8.28798,-8.42519 L 8.77499,-8.20836 L 9.20627,-7.895 L 9.56299,-7.49884 L 9.82953,-7.03717
 L 9.99426,-6.53017 L 10.05,-6 L 10.05,-0 L 185.839,-0 L 185.839,-6 L 185.895,-6.53017
 L 186.059,-7.03717 L 186.326,-7.49884 L 186.683,-7.895 L 187.114,-8.20836 L 187.601,-8.42519 L 188.122,-8.53603
 L 188.655,-8.53603 L 189.177,-8.42519 L 189.664,-8.20836 L 190.095,-7.895 L 190.452,-7.49884 L 190.718,-7.03717
 L 190.883,-6.53017 L 190.939,-6 L 190.939,-0 L 366.728,-0 L 366.728,-6 L 366.783,-6.53017
 L 366.948,-7.03717 L 367.215,-7.49884 L 367.571,-7.895 L 368.003,-8.20836 L 368.49,-8.42519 L 369.011,-8.53603
 L 369.544,-8.53603 L 370.066,-8.42519 L 370.553,-8.20836 L 370.984,-7.895 L 371.341,-7.49884 L 371.607,-7.03717
 L 371.772,-6.53017 L 371.828,-6 L 371.828,-0 L 547.617,-0 L 547.617,-6 L 547.672,-6.53017
 L 547.837,-7.03717 L 548.104,-7.49884 L 548.46,-7.895 L 548.892,-8.20836 L 549.379,-8.42519 L 549.9,-8.53603
 L 550.433,-8.53603 L 550.955,-8.42519 L 551.442,-8.20836 L 551.873,-7.895 L 552.23,-7.49884 L 552.496,-7.03717
 L 552.661,-6.53017 L 552.717,-6 L 552.717,-0 L 728.506,-0 L 728.506,-6 L 728.561,-6.53017
 L 728.726,-7.03717 L 728.993,-7.49884 L 729.349,-7.895 L 729.781,-8.20836 L 730.268,-8.42519 L 730.789,-8.53603
 L 731.322,-8.53603 L 731.844,-8.42519 L 732.331,-8.20836 L 732.762,-7.895 L 733.119,-7.49884 L 733.385,-7.03717
 L 733.55,-6.53017 L 733.606,-6 L 733.606,-0 L 909.394,-0 L 909.394,-6 L 909.45,-6.53017
 L 909.615,-7.03717 L 909.881,-7.49884 L 910.238,-7.895 L 910.669,-8.20836 L 911.156,-8.42519 L 911.678,-8.53603
 L 912.211,-8.53603 L 912.732,-8.42519 L 913.219,-8.20836 L 913.651,-7.895 L 914.007,-7.49884 L 914.274,-7.03717
 L 914.439,-6.53017 L 914.494,-6 L 914.494,-0 L 1090.28,-0 L 1090.28,-6 L 1090.34,-6.53017
 L 1090.5,-7.03717 L 1090.77,-7.49884 L 1091.13,-7.895 L 1091.56,-8.20836 L 1092.05,-8.42519 L 1092.57,-8.53603
 L 1093.1,-8.53603 L 1093.62,-8.42519 L 1094.11,-8.20836 L 1094.54,-7.895 L 1094.9,-7.49884 L 1095.16,-7.03717
 L 1095.33,-6.53017 L 1095.38,-6 L 1095.38,-0 L 1271.17,-0 L 1271.17,-6 L 1271.23,-6.53017
 L 1271.39,-7.03717 L 1271.66,-7.49884 L 1272.02,-7.895 L 1272.45,-8.20836 L 1272.93,-8.42519 L 1273.46,-8.53603
 L 1273.99,-8.53603 L 1274.51,-8.42519 L 1275,-8.20836 L 1275.43,-7.895 L 1275.79,-7.49884 L 1276.05,-7.03717
 L 1276.22,-6.53017 L 1276.27,-6 L 1276.27,-0 L 1452.06,-0 L 1452.06,-6 L 1452.12,-6.53017
 L 1452.28,-7.03717 L 1452.55,-7.49884 L 1452.9,-7.895 L 1453.34,-8.20836 L 1453.82,-8.42519 L 1454.34,-8.53603
 L 1454.88,-8.53603 L 1455.4,-8.42519 L 1455.89,-8.20836 L 1456.32,-7.895 L 1456.67,-7.49884 L 1456.94,-7.03717
 L 1457.11,-6.53017 L 1457.16,-6 L 1457.16,-0 L 1632.95,-0 L 1632.95,-6 L 1633.01,-6.53017
 L 1633.17,-7.03717 L 1633.44,-7.49884 L 1633.79,-7.895 L 1634.22,-8.20836 L 1634.71,-8.42519 L 1635.23,-8.53603
 L 1635.77,-8.53603 L 1636.29,-8.42519 L 1636.77,-8.20836 L 1637.21,-7.895 L 1637.56,-7.49884 L 1637.83,-7.03717
 L 1637.99,-6.53017 L 1638.05,-6 L 1638.05,-0 L 1643,-0 z
M 6.98573,-55.607 L 6.47708,-55.6875 L 5.97964,-55.8208 L 5.49887,-56.0054 L 5.04001,-56.2392 L 4.60811,-56.5196
 L 4.20789,-56.8437 L 3.84373,-57.2079 L 3.51964,-57.6081 L 3.23917,-58.04 L 3.00537,-58.4989 L 2.82082,-58.9796
 L 2.68752,-59.4771 L 2.60696,-59.9857 L 2.58,-60.5 L 2.60696,-61.0143 L 2.68752,-61.5229 L 2.82082,-62.0204
 L 3.00537,-62.5011 L 3.23917,-62.96 L 3.51964,-63.3919 L 3.84373,-63.7921 L 4.20789,-64.1563 L 4.60811,-64.4804
 L 4.95001,-64.7024 L 4.95001,-74 L 5.00574,-74.5302 L 5.17047,-75.0372 L 5.43701,-75.4988 L 5.79373,-75.895
 L 6.22501,-76.2084 L 6.71202,-76.4252 L 7.23346,-76.536 L 7.76654,-76.536 L 8.28798,-76.4252 L 8.77499,-76.2084
 L 9.20627,-75.895 L 9.56299,-75.4988 L 9.82953,-75.0372 L 9.99426,-74.5302 L 10.05,-74 L 10.05,-64.7024
 L 10.3919,-64.4804 L 10.7921,-64.1563 L 11.1563,-63.7921 L 11.4804,-63.3919 L 11.7608,-62.96 L 11.9946,-62.5011
 L 12.1792,-62.0204 L 12.3125,-61.5229 L 12.393,-61.0143 L 12.42,-60.5 L 12.393,-59.9857 L 12.3125,-59.4771
 L 12.1792,-58.9796 L 11.9946,-58.4989 L 11.7608,-58.04 L 11.4804,-57.6081 L 11.1563,-57.2079 L 10.7921,-56.8437
 L 10.3919,-56.5196 L 9.95999,-56.2392 L 9.50113,-56.0054 L 9.02036,-55.8208 L 8.52292,-55.6875 L 8.01427,-55.607
 L 7.5,-55.58 z
M 1092.32,-55.607 L 1091.81,-55.6875 L 1091.31,-55.8208 L 1090.83,-56.0054 L 1090.37,-56.2392 L 1089.94,-56.5196
 L 1089.54,-56.8437 L 1089.18,-57.2079 L 1088.85,-57.6081 L 1088.57,-58.04 L 1088.34,-58.4989 L 1088.15,-58.9796
 L 1088.02,-59.4771 L 1087.94,-59.9857 L 1087.91,-60.5 L 1087.94,-61.0143 L 1088.02,-61.5229 L 1088.15,-62.0204
 L 1088.34,-62.5011 L 1088.57,-62.96 L 1088.85,-63.3919 L 1089.18,-63.7921 L 1089.54,-64.1563 L 1089.94,-64.4804
 L 1090.28,-64.7024 L 1090.28,-74 L 1090.34,-74.5302 L 1090.5,-75.0372 L 1090.77,-75.4988 L 1091.13,-75.895
 L 1091.56,-76.2084 L 1092.05,-76.4252 L 1092.57,-76.536 L 1093.1,-76.536 L 1093.62,-76.4252 L 1094.11,-76.2084
 L 1094.54,-75.895 L 1094.9,-75.4988 L 1095.16,-75.0372 L 1095.33,-74.5302 L 1095.38,-74 L 1095.38,-64.7024
 L 1095.73,-64.4804 L 1096.13,-64.1563 L 1096.49,-63.7921 L 1096.81,-63.3919 L 1097.09,-62.96 L 1097.33,-62.5011
 L 1097.51,-62.0204 L 1097.65,-61.5229 L 1097.73,-61.0143 L 1097.75,-60.5 L 1097.73,-59.9857 L 1097.65,-59.4771
 L 1097.51,-58.9796 L 1097.33,-58.4989 L 1097.09,-58.04 L 1096.81,-57.6081 L 1096.49,-57.2079 L 1096.13,-56.8437
 L 1095.73,-56.5196 L 1095.29,-56.2392 L 1094.83,-56.0054 L 1094.35,-55.8208 L 1093.86,-55.6875 L 1093.35,-55.607
 L 1092.83,-55.58 z
M 1273.21,-55.607 L 1272.7,-55.6875 L 1272.2,-55.8208 L 1271.72,-56.0054 L 1271.26,-56.2392 L 1270.83,-56.5196
 L 1270.43,-56.8437 L 1270.07,-57.2079 L 1269.74,-57.6081 L 1269.46,-58.04 L 1269.23,-58.4989 L 1269.04,-58.9796
 L 1268.91,-59.4771 L 1268.83,-59.9857 L 1268.8,-60.5 L 1268.83,-61.0143 L 1268.91,-61.5229 L 1269.04,-62.0204
 L 1269.23,-62.5011 L 1269.46,-62.96 L 1269.74,-63.3919 L 1270.07,-63.7921 L 1270.43,-64.1563 L 1270.83,-64.4804
 L 1271.17,-64.7024 L 1271.17,-74 L 1271.23,-74.5302 L 1271.39,-75.0372 L 1271.66,-75.4988 L 1272.02,-75.895
 L 1272.45,-76.2084 L 1272.93,-76.4252 L 1273.46,-76.536 L 1273.99,-76.536 L 1274.51,-76.4252 L 1275,-76.2084
 L 1275.43,-75.895 L 1275.79,-75.4988 L 1276.05,-75.0372 L 1276.22,-74.5302 L 1276.27,-74 L 1276.27,-64.7024
 L 1276.61,-64.4804 L 1277.01,-64.1563 L 1277.38,-63.7921 L 1277.7,-63.3919 L 1277.98,-62.96 L 1278.22,-62.5011
 L 1278.4,-62.0204 L 1278.53,-61.5229 L 1278.62,-61.0143 L 1278.64,-60.5 L 1278.62,-59.9857 L 1278.53,-59.4771
 L 1278.4,-58.9796 L 1278.22,-58.4989 L 1277.98,-58.04 L 1277.7,-57.6081 L 1277.38,-57.2079 L 1277.01,-56.8437
 L 1276.61,-56.5196 L 1276.18,-56.2392 L 1275.72,-56.0054 L 1275.24,-55.8208 L 1274.75,-55.6875 L 1274.24,-55.607
 L 1273.72,-55.58 z
M 911.43,-55.607 L 910.922,-55.6875 L 910.424,-55.8208 L 909.943,-56.0054 L 909.484,-56.2392 L 909.053,-56.5196
 L 908.652,-56.8437 L 908.288,-57.2079 L 907.964,-57.6081 L 907.684,-58.04 L 907.45,-58.4989 L 907.265,-58.9796
 L 907.132,-59.4771 L 907.051,-59.9857 L 907.024,-60.5 L 907.051,-61.0143 L 907.132,-61.5229 L 907.265,-62.0204
 L 907.45,-62.5011 L 907.684,-62.96 L 907.964,-63.3919 L 908.288,-63.7921 L 908.652,-64.1563 L 909.053,-64.4804
 L 909.394,-64.7024 L 909.394,-74 L 909.45,-74.5302 L 909.615,-75.0372 L 909.881,-75.4988 L 910.238,-75.895
 L 910.669,-76.2084 L 911.156,-76.4252 L 911.678,-76.536 L 912.211,-76.536 L 912.732,-76.4252 L 913.219,-76.2084
 L 913.651,-75.895 L 914.007,-75.4988 L 914.274,-75.0372 L 914.439,-74.5302 L 914.494,-74 L 914.494,-64.7024
 L 914.836,-64.4804 L 915.237,-64.1563 L 915.601,-63.7921 L 915.925,-63.3919 L 916.205,-62.96 L 916.439,-62.5011
 L 916.624,-62.0204 L 916.757,-61.5229 L 916.837,-61.0143 L 916.864,-60.5 L 916.837,-59.9857 L 916.757,-59.4771
 L 916.624,-58.9796 L 916.439,-58.4989 L 916.205,-58.04 L 915.925,-57.6081 L 915.601,-57.2079 L 915.237,-56.8437
 L 914.836,-56.5196 L 914.404,-56.2392 L 913.946,-56.0054 L 913.465,-55.8208 L 912.967,-55.6875 L 912.459,-55.607
 L 911.944,-55.58 z
M 730.541,-55.607 L 730.033,-55.6875 L 729.535,-55.8208 L 729.054,-56.0054 L 728.596,-56.2392 L 728.164,-56.5196
 L 727.763,-56.8437 L 727.399,-57.2079 L 727.075,-57.6081 L 726.795,-58.04 L 726.561,-58.4989 L 726.376,-58.9796
 L 726.243,-59.4771 L 726.163,-59.9857 L 726.136,-60.5 L 726.163,-61.0143 L 726.243,-61.5229 L 726.376,-62.0204
 L 726.561,-62.5011 L 726.795,-62.96 L 727.075,-63.3919 L 727.399,-63.7921 L 727.763,-64.1563 L 728.164,-64.4804
 L 728.506,-64.7024 L 728.506,-74 L 728.561,-74.5302 L 728.726,-75.0372 L 728.993,-75.4988 L 729.349,-75.895
 L 729.781,-76.2084 L 730.268,-76.4252 L 730.789,-76.536 L 731.322,-76.536 L 731.844,-76.4252 L 732.331,-76.2084
 L 732.762,-75.895 L 733.119,-75.4988 L 733.385,-75.0372 L 733.55,-74.5302 L 733.606,-74 L 733.606,-64.7024
 L 733.947,-64.4804 L 734.348,-64.1563 L 734.712,-63.7921 L 735.036,-63.3919 L 735.316,-62.96 L 735.55,-62.5011
 L 735.735,-62.0204 L 735.868,-61.5229 L 735.949,-61.0143 L 735.976,-60.5 L 735.949,-59.9857 L 735.868,-59.4771
 L 735.735,-58.9796 L 735.55,-58.4989 L 735.316,-58.04 L 735.036,-57.6081 L 734.712,-57.2079 L 734.348,-56.8437
 L 733.947,-56.5196 L 733.516,-56.2392 L 733.057,-56.0054 L 732.576,-55.8208 L 732.078,-55.6875 L 731.57,-55.607
 L 731.056,-55.58 z
M 1454.1,-55.607 L 1453.59,-55.6875 L 1453.09,-55.8208 L 1452.61,-56.0054 L 1452.15,-56.2392 L 1451.72,-56.5196
 L 1451.32,-56.8437 L 1450.95,-57.2079 L 1450.63,-57.6081 L 1450.35,-58.04 L 1450.12,-58.4989 L 1449.93,-58.9796
 L 1449.8,-59.4771 L 1449.72,-59.9857 L 1449.69,-60.5 L 1449.72,-61.0143 L 1449.8,-61.5229 L 1449.93,-62.0204
 L 1450.12,-62.5011 L 1450.35,-62.96 L 1450.63,-63.3919 L 1450.95,-63.7921 L 1451.32,-64.1563 L 1451.72,-64.4804
 L 1452.06,-64.7024 L 1452.06,-74 L 1452.12,-74.5302 L 1452.28,-75.0372 L 1452.55,-75.4988 L 1452.9,-75.895
 L 1453.34,-76.2084 L 1453.82,-76.4252 L 1454.34,-76.536 L 1454.88,-76.536 L 1455.4,-76.4252 L 1455.89,-76.2084
 L 1456.32,-75.895 L 1456.67,-75.4988 L 1456.94,-75.0372 L 1457.11,-74.5302 L 1457.16,-74 L 1457.16,-64.7024
 L 1457.5,-64.4804 L 1457.9,-64.1563 L 1458.27,-63.7921 L 1458.59,-63.3919 L 1458.87,-62.96 L 1459.11,-62.5011
 L 1459.29,-62.0204 L 1459.42,-61.5229 L 1459.5,-61.0143 L 1459.53,-60.5 L 1459.5,-59.9857 L 1459.42,-59.4771
 L 1459.29,-58.9796 L 1459.11,-58.4989 L 1458.87,-58.04 L 1458.59,-57.6081 L 1458.27,-57.2079 L 1457.9,-56.8437
 L 1457.5,-56.5196 L 1457.07,-56.2392 L 1456.61,-56.0054 L 1456.13,-55.8208 L 1455.63,-55.6875 L 1455.13,-55.607
 L 1454.61,-55.58 z
M 549.652,-55.607 L 549.144,-55.6875 L 548.646,-55.8208 L 548.166,-56.0054 L 547.707,-56.2392 L 547.275,-56.5196
 L 546.875,-56.8437 L 546.51,-57.2079 L 546.186,-57.6081 L 545.906,-58.04 L 545.672,-58.4989 L 545.487,-58.9796
 L 545.354,-59.4771 L 545.274,-59.9857 L 545.247,-60.5 L 545.274,-61.0143 L 545.354,-61.5229 L 545.487,-62.0204
 L 545.672,-62.5011 L 545.906,-62.96 L 546.186,-63.3919 L 546.51,-63.7921 L 546.875,-64.1563 L 547.275,-64.4804
 L 547.617,-64.7024 L 547.617,-74 L 547.672,-74.5302 L 547.837,-75.0372 L 548.104,-75.4988 L 548.46,-75.895
 L 548.892,-76.2084 L 549.379,-76.4252 L 549.9,-76.536 L 550.433,-76.536 L 550.955,-76.4252 L 551.442,-76.2084
 L 551.873,-75.895 L 552.23,-75.4988 L 552.496,-75.0372 L 552.661,-74.5302 L 552.717,-74 L 552.717,-64.7024
 L 553.059,-64.4804 L 553.459,-64.1563 L 553.823,-63.7921 L 554.147,-63.3919 L 554.427,-62.96 L 554.661,-62.5011
 L 554.846,-62.0204 L 554.979,-61.5229 L 555.06,-61.0143 L 555.087,-60.5 L 555.06,-59.9857 L 554.979,-59.4771
 L 554.846,-58.9796 L 554.661,-58.4989 L 554.427,-58.04 L 554.147,-57.6081 L 553.823,-57.2079 L 553.459,-56.8437
 L 553.059,-56.5196 L 552.627,-56.2392 L 552.168,-56.0054 L 551.687,-55.8208 L 551.19,-55.6875 L 550.681,-55.607
 L 550.167,-55.58 z
M 368.764,-55.607 L 368.255,-55.6875 L 367.757,-55.8208 L 367.277,-56.0054 L 366.818,-56.2392 L 366.386,-56.5196
 L 365.986,-56.8437 L 365.622,-57.2079 L 365.297,-57.6081 L 365.017,-58.04 L 364.783,-58.4989 L 364.599,-58.9796
 L 364.465,-59.4771 L 364.385,-59.9857 L 364.358,-60.5 L 364.385,-61.0143 L 364.465,-61.5229 L 364.599,-62.0204
 L 364.783,-62.5011 L 365.017,-62.96 L 365.297,-63.3919 L 365.622,-63.7921 L 365.986,-64.1563 L 366.386,-64.4804
 L 366.728,-64.7024 L 366.728,-74 L 366.784,-74.5302 L 366.948,-75.0372 L 367.215,-75.4988 L 367.572,-75.895
 L 368.003,-76.2084 L 368.49,-76.4252 L 369.011,-76.536 L 369.544,-76.536 L 370.066,-76.4252 L 370.553,-76.2084
 L 370.984,-75.895 L 371.341,-75.4988 L 371.607,-75.0372 L 371.772,-74.5302 L 371.828,-74 L 371.828,-64.7024
 L 372.17,-64.4804 L 372.57,-64.1563 L 372.934,-63.7921 L 373.258,-63.3919 L 373.539,-62.96 L 373.772,-62.5011
 L 373.957,-62.0204 L 374.09,-61.5229 L 374.171,-61.0143 L 374.198,-60.5 L 374.171,-59.9857 L 374.09,-59.4771
 L 373.957,-58.9796 L 373.772,-58.4989 L 373.539,-58.04 L 373.258,-57.6081 L 372.934,-57.2079 L 372.57,-56.8437
 L 372.17,-56.5196 L 371.738,-56.2392 L 371.279,-56.0054 L 370.798,-55.8208 L 370.301,-55.6875 L 369.792,-55.607
 L 369.278,-55.58 z
M 1634.99,-55.607 L 1634.48,-55.6875 L 1633.98,-55.8208 L 1633.5,-56.0054 L 1633.04,-56.2392 L 1632.61,-56.5196
 L 1632.21,-56.8437 L 1631.84,-57.2079 L 1631.52,-57.6081 L 1631.24,-58.04 L 1631.01,-58.4989 L 1630.82,-58.9796
 L 1630.69,-59.4771 L 1630.61,-59.9857 L 1630.58,-60.5 L 1630.61,-61.0143 L 1630.69,-61.5229 L 1630.82,-62.0204
 L 1631.01,-62.5011 L 1631.24,-62.96 L 1631.52,-63.3919 L 1631.84,-63.7921 L 1632.21,-64.1563 L 1632.61,-64.4804
 L 1632.95,-64.7024 L 1632.95,-74 L 1633.01,-74.5302 L 1633.17,-75.0372 L 1633.44,-75.4988 L 1633.79,-75.895
 L 1634.23,-76.2084 L 1634.71,-76.4252 L 1635.23,-76.536 L 1635.77,-76.536 L 1636.29,-76.4252 L 1636.77,-76.2084
 L 1637.21,-75.895 L 1637.56,-75.4988 L 1637.83,-75.0372 L 1637.99,-74.5302 L 1638.05,-74 L 1638.05,-64.7024
 L 1638.39,-64.4804 L 1638.79,-64.1563 L 1639.16,-63.7921 L 1639.48,-63.3919 L 1639.76,-62.96 L 1639.99,-62.5011
 L 1640.18,-62.0204 L 1640.31,-61.5229 L 1640.39,-61.0143 L 1640.42,-60.5 L 1640.39,-59.9857 L 1640.31,-59.4771
 L 1640.18,-58.9796 L 1639.99,-58.4989 L 1639.76,-58.04 L 1639.48,-57.6081 L 1639.16,-57.2079 L 1638.79,-56.8437
 L 1638.39,-56.5196 L 1637.96,-56.2392 L 1637.5,-56.0054 L 1637.02,-55.8208 L 1636.52,-55.6875 L 1636.01,-55.607
 L 1635.5,-55.58 z
M 187.875,-55.607 L 187.366,-55.6875 L 186.869,-55.8208 L 186.388,-56.0054 L 185.929,-56.2392 L 185.497,-56.5196
 L 185.097,-56.8437 L 184.733,-57.2079 L 184.409,-57.6081 L 184.128,-58.04 L 183.894,-58.4989 L 183.71,-58.9796
 L 183.576,-59.4771 L 183.496,-59.9857 L 183.469,-60.5 L 183.496,-61.0143 L 183.576,-61.5229 L 183.71,-62.0204
 L 183.894,-62.5011 L 184.128,-62.96 L 184.409,-63.3919 L 184.733,-63.7921 L 185.097,-64.1563 L 185.497,-64.4804
 L 185.839,-64.7024 L 185.839,-74 L 185.895,-74.5302 L 186.059,-75.0372 L 186.326,-75.4988 L 186.683,-75.895
 L 187.114,-76.2084 L 187.601,-76.4252 L 188.122,-76.536 L 188.655,-76.536 L 189.177,-76.4252 L 189.664,-76.2084
 L 190.095,-75.895 L 190.452,-75.4988 L 190.718,-75.0372 L 190.883,-74.5302 L 190.939,-74 L 190.939,-64.7024
 L 191.281,-64.4804 L 191.681,-64.1563 L 192.045,-63.7921 L 192.369,-63.3919 L 192.65,-62.96 L 192.884,-62.5011
 L 193.068,-62.0204 L 193.201,-61.5229 L 193.282,-61.0143 L 193.309,-60.5 L 193.282,-59.9857 L 193.201,-59.4771
 L 193.068,-58.9796 L 192.884,-58.4989 L 192.65,-58.04 L 192.369,-57.6081 L 192.045,-57.2079 L 191.681,-56.8437
 L 191.281,-56.5196 L 190.849,-56.2392 L 190.39,-56.0054 L 189.909,-55.8208 L 189.412,-55.6875 L 188.903,-55.607
 L 188.389,-55.58 z
M 1104.77,-20.9044 L 1103.99,-21.2095 L 1103.29,-21.6698 L 1102.71,-22.2652 L 1102.26,-22.9697 L 1101.96,-23.7524
 L 1101.83,-24.7609 L 1101.83,-58 L 1101.92,-58.8316 L 1102.18,-59.627 L 1102.6,-60.3511 L 1103.16,-60.9726
 L 1103.83,-61.4641 L 1104.6,-61.8042 L 1105.83,-62 L 1194.25,-62 L 1195.09,-61.9126 L 1195.88,-61.6542
 L 1196.6,-61.2361 L 1197.23,-60.6765 L 1197.72,-60 L 1198.06,-59.2361 L 1198.23,-58.4181 L 1198.23,-57.5819
 L 1198.06,-56.7639 L 1197.72,-56 L 1197.23,-55.3235 L 1196.6,-54.7639 L 1195.66,-54.2558 L 1107.24,-21.0167
 L 1106.43,-20.8059 L 1105.6,-20.7679 z
M 923.882,-20.9044 L 923.104,-21.2095 L 922.406,-21.6698 L 921.818,-22.2652 L 921.368,-22.9697 L 921.074,-23.7524
 L 920.944,-24.7609 L 920.944,-58 L 921.032,-58.8316 L 921.29,-59.627 L 921.708,-60.3511 L 922.268,-60.9726
 L 922.944,-61.4641 L 923.708,-61.8042 L 924.944,-62 L 1013.36,-62 L 1014.2,-61.9126 L 1014.99,-61.6542
 L 1015.72,-61.2361 L 1016.34,-60.6765 L 1016.83,-60 L 1017.17,-59.2361 L 1017.34,-58.4181 L 1017.34,-57.5819
 L 1017.17,-56.7639 L 1016.83,-56 L 1016.34,-55.3235 L 1015.72,-54.7639 L 1014.77,-54.2558 L 926.352,-21.0167
 L 925.543,-20.8059 L 924.707,-20.7679 z
M 820.902,-47.7844 L 820.092,-47.9953 L 803.439,-54.2558 L 802.495,-54.7639 L 801.873,-55.3235 L 801.382,-56
 L 801.042,-56.7639 L 800.868,-57.5819 L 800.868,-58.4181 L 801.042,-59.2361 L 801.382,-60 L 801.873,-60.6765
 L 802.495,-61.2361 L 803.219,-61.6542 L 804.014,-61.9126 L 804.846,-62 L 838.154,-62 L 839.216,-61.8564
 L 839.995,-61.5513 L 840.693,-61.091 L 841.28,-60.4957 L 841.73,-59.7912 L 842.025,-59.0084 L 842.15,-58.1816
 L 842.1,-57.3468 L 841.878,-56.5406 L 841.493,-55.7982 L 840.963,-55.152 L 840.309,-54.6303 L 839.561,-54.2558
 L 822.907,-47.9953 L 821.737,-47.7465 z
M 717.457,-20.8059 L 716.648,-21.0167 L 628.228,-54.2558 L 627.284,-54.7639 L 626.663,-55.3235 L 626.171,-56
 L 625.831,-56.7639 L 625.657,-57.5819 L 625.657,-58.4181 L 625.831,-59.2361 L 626.171,-60 L 626.663,-60.6765
 L 627.284,-61.2361 L 628.008,-61.6542 L 628.803,-61.9126 L 629.635,-62 L 718.056,-62 L 719.292,-61.8042
 L 720.056,-61.4641 L 720.732,-60.9726 L 721.292,-60.3511 L 721.71,-59.627 L 721.968,-58.8316 L 722.056,-58
 L 722.056,-24.7609 L 721.926,-23.7524 L 721.632,-22.9697 L 721.182,-22.2652 L 720.594,-21.6698 L 719.896,-21.2095
 L 719.118,-20.9044 L 718.293,-20.7679 z
M 536.568,-20.8059 L 535.759,-21.0167 L 447.339,-54.2558 L 446.395,-54.7639 L 445.774,-55.3235 L 445.282,-56
 L 444.942,-56.7639 L 444.768,-57.5819 L 444.768,-58.4181 L 444.942,-59.2361 L 445.282,-60 L 445.774,-60.6765
 L 446.395,-61.2361 L 447.119,-61.6542 L 447.915,-61.9126 L 448.746,-62 L 537.167,-62 L 538.403,-61.8042
 L 539.167,-61.4641 L 539.843,-60.9726 L 540.403,-60.3511 L 540.821,-59.627 L 541.079,-58.8316 L 541.167,-58
 L 541.167,-24.7609 L 541.037,-23.7524 L 540.743,-22.9697 L 540.293,-22.2652 L 539.705,-21.6698 L 539.007,-21.2095
 L 538.229,-20.9044 L 537.404,-20.7679 z
M 355.679,-20.8059 L 354.87,-21.0167 L 266.45,-54.2558 L 265.506,-54.7639 L 264.885,-55.3235 L 264.393,-56
 L 264.053,-56.7639 L 263.879,-57.5819 L 263.879,-58.4181 L 264.053,-59.2361 L 264.393,-60 L 264.885,-60.6765
 L 265.506,-61.2361 L 266.23,-61.6542 L 267.026,-61.9126 L 267.857,-62 L 356.278,-62 L 357.514,-61.8042
 L 358.278,-61.4641 L 358.954,-60.9726 L 359.514,-60.3511 L 359.932,-59.627 L 360.19,-58.8316 L 360.278,-58
 L 360.278,-24.7609 L 360.149,-23.7524 L 359.854,-22.9697 L 359.404,-22.2652 L 358.817,-21.6698 L 358.118,-21.2095
 L 357.34,-20.9044 L 356.515,-20.7679 z
M 1466.55,-20.9044 L 1465.77,-21.2095 L 1465.07,-21.6698 L 1464.49,-22.2652 L 1464.03,-22.9697 L 1463.74,-23.7524
 L 1463.61,-24.7609 L 1463.61,-58 L 1463.7,-58.8316 L 1463.96,-59.627 L 1464.38,-60.3511 L 1464.93,-60.9726
 L 1465.61,-61.4641 L 1466.38,-61.8042 L 1467.61,-62 L 1556.03,-62 L 1556.86,-61.9126 L 1557.66,-61.6542
 L 1558.38,-61.2361 L 1559,-60.6765 L 1559.5,-60 L 1559.84,-59.2361 L 1560.01,-58.4181 L 1560.01,-57.5819
 L 1559.84,-56.7639 L 1559.5,-56 L 1559,-55.3235 L 1558.38,-54.7639 L 1557.44,-54.2558 L 1469.02,-21.0167
 L 1468.21,-20.8059 L 1467.37,-20.7679 z
M 174.791,-20.8059 L 173.981,-21.0167 L 85.5609,-54.2558 L 84.6173,-54.7639 L 83.9958,-55.3235 L 83.5043,-56
 L 83.1642,-56.7639 L 82.9903,-57.5819 L 82.9903,-58.4181 L 83.1642,-59.2361 L 83.5043,-60 L 83.9958,-60.6765
 L 84.6173,-61.2361 L 85.3415,-61.6542 L 86.1368,-61.9126 L 86.9684,-62 L 175.389,-62 L 176.625,-61.8042
 L 177.389,-61.4641 L 178.065,-60.9726 L 178.625,-60.3511 L 179.043,-59.627 L 179.301,-58.8316 L 179.389,-58
 L 179.389,-24.7609 L 179.26,-23.7524 L 178.965,-22.9697 L 178.515,-22.2652 L 177.928,-21.6698 L 177.23,-21.2095
 L 176.451,-20.9044 L 175.626,-20.7679 z
M 1285.66,-20.9044 L 1284.88,-21.2095 L 1284.18,-21.6698 L 1283.6,-22.2652 L 1283.15,-22.9697 L 1282.85,-23.7524
 L 1282.72,-24.7609 L 1282.72,-58 L 1282.81,-58.8316 L 1283.07,-59.627 L 1283.49,-60.3511 L 1284.05,-60.9726
 L 1284.72,-61.4641 L 1285.49,-61.8042 L 1286.72,-62 L 1375.14,-62 L 1375.97,-61.9126 L 1376.77,-61.6542
 L 1377.49,-61.2361 L 1378.12,-60.6765 L 1378.61,-60 L 1378.95,-59.2361 L 1379.12,-58.4181 L 1379.12,-57.5819
 L 1378.95,-56.7639 L 1378.61,-56 L 1378.12,-55.3235 L 1377.49,-54.7639 L 1376.55,-54.2558 L 1288.13,-21.0167
 L 1287.32,-20.8059 L 1286.49,-20.7679 z
M 743.637,-18.6483 L 742.819,-18.8222 L 742.056,-19.1623 L 741.379,-19.6539 L 740.819,-20.2753 L 740.401,-20.9995
 L 740.143,-21.7948 L 740.056,-22.6264 L 740.056,-57.3736 L 740.185,-58.382 L 740.479,-59.1647 L 740.93,-59.8692
 L 741.517,-60.4646 L 742.215,-60.9249 L 742.993,-61.23 L 743.818,-61.3665 L 744.654,-61.3286 L 745.463,-61.1178
 L 791.679,-43.7442 L 792.112,-43.5513 L 792.81,-43.091 L 793.397,-42.4957 L 793.848,-41.7912 L 794.142,-41.0084
 L 794.267,-40.1816 L 794.218,-39.3468 L 793.996,-38.5406 L 793.611,-37.7982 L 793.08,-37.152 L 792.427,-36.6303
 L 791.679,-36.2558 L 745.463,-18.8822 L 744.474,-18.6483 z
M 898.346,-18.6714 L 897.537,-18.8822 L 851.321,-36.2558 L 850.888,-36.4487 L 850.19,-36.909 L 849.602,-37.5043
 L 849.152,-38.2088 L 848.858,-38.9916 L 848.733,-39.8184 L 848.782,-40.6531 L 849.004,-41.4594 L 849.389,-42.2018
 L 849.92,-42.848 L 850.573,-43.3697 L 851.321,-43.7442 L 897.537,-61.1178 L 898.526,-61.3517 L 899.363,-61.3517
 L 900.18,-61.1778 L 900.944,-60.8377 L 901.621,-60.3462 L 902.18,-59.7247 L 902.599,-59.0005 L 902.857,-58.2052
 L 902.944,-57.3736 L 902.944,-22.6264 L 902.815,-21.618 L 902.521,-20.8352 L 902.07,-20.1308 L 901.483,-19.5354
 L 900.785,-19.0751 L 900.007,-18.77 L 899.181,-18.6335 z
M 201.389,-18 L 200.153,-18.1958 L 199.389,-18.5359 L 198.712,-19.0274 L 198.153,-19.6489 L 197.735,-20.373
 L 197.476,-21.1684 L 197.389,-22 L 197.389,-55.2391 L 197.518,-56.2476 L 197.812,-57.0303 L 198.263,-57.7348
 L 198.85,-58.3302 L 199.548,-58.7905 L 200.327,-59.0956 L 201.152,-59.2321 L 201.987,-59.1941 L 202.796,-58.9833
 L 291.217,-25.7442 L 292.16,-25.2361 L 292.782,-24.6765 L 293.273,-24 L 293.614,-23.2361 L 293.787,-22.4181
 L 293.787,-21.5819 L 293.614,-20.7639 L 293.273,-20 L 292.782,-19.3235 L 292.16,-18.7639 L 291.436,-18.3458
 L 290.641,-18.0874 L 289.809,-18 z
M 382.278,-18 L 381.042,-18.1958 L 380.278,-18.5359 L 379.601,-19.0274 L 379.042,-19.6489 L 378.624,-20.373
 L 378.365,-21.1684 L 378.278,-22 L 378.278,-55.2391 L 378.407,-56.2476 L 378.701,-57.0303 L 379.152,-57.7348
 L 379.739,-58.3302 L 380.437,-58.7905 L 381.216,-59.0956 L 382.041,-59.2321 L 382.876,-59.1941 L 383.685,-58.9833
 L 472.106,-25.7442 L 473.049,-25.2361 L 473.671,-24.6765 L 474.162,-24 L 474.502,-23.2361 L 474.676,-22.4181
 L 474.676,-21.5819 L 474.502,-20.7639 L 474.162,-20 L 473.671,-19.3235 L 473.049,-18.7639 L 472.325,-18.3458
 L 471.53,-18.0874 L 470.698,-18 z
M 563.167,-18 L 561.931,-18.1958 L 561.167,-18.5359 L 560.49,-19.0274 L 559.931,-19.6489 L 559.512,-20.373
 L 559.254,-21.1684 L 559.167,-22 L 559.167,-55.2391 L 559.296,-56.2476 L 559.59,-57.0303 L 560.041,-57.7348
 L 560.628,-58.3302 L 561.326,-58.7905 L 562.105,-59.0956 L 562.93,-59.2321 L 563.765,-59.1941 L 564.574,-58.9833
 L 652.995,-25.7442 L 653.938,-25.2361 L 654.56,-24.6765 L 655.051,-24 L 655.391,-23.2361 L 655.565,-22.4181
 L 655.565,-21.5819 L 655.391,-20.7639 L 655.051,-20 L 654.56,-19.3235 L 653.938,-18.7639 L 653.214,-18.3458
 L 652.419,-18.0874 L 651.587,-18 z
M 991.413,-18 L 990.581,-18.0874 L 989.786,-18.3458 L 989.062,-18.7639 L 988.44,-19.3235 L 987.949,-20
 L 987.609,-20.7639 L 987.435,-21.5819 L 987.435,-22.4181 L 987.609,-23.2361 L 987.949,-24 L 988.44,-24.6765
 L 989.062,-25.2361 L 990.005,-25.7442 L 1078.43,-58.9833 L 1079.24,-59.1941 L 1080.07,-59.2321 L 1080.9,-59.0956
 L 1081.67,-58.7905 L 1082.37,-58.3302 L 1082.96,-57.7348 L 1083.41,-57.0303 L 1083.7,-56.2476 L 1083.83,-55.2391
 L 1083.83,-22 L 1083.75,-21.1684 L 1083.49,-20.373 L 1083.07,-19.6489 L 1082.51,-19.0274 L 1081.83,-18.5359
 L 1081.07,-18.1958 L 1079.83,-18 z
M 1172.3,-18 L 1171.47,-18.0874 L 1170.67,-18.3458 L 1169.95,-18.7639 L 1169.33,-19.3235 L 1168.84,-20
 L 1168.5,-20.7639 L 1168.32,-21.5819 L 1168.32,-22.4181 L 1168.5,-23.2361 L 1168.84,-24 L 1169.33,-24.6765
 L 1169.95,-25.2361 L 1170.89,-25.7442 L 1259.31,-58.9833 L 1260.12,-59.1941 L 1260.96,-59.2321 L 1261.78,-59.0956
 L 1262.56,-58.7905 L 1263.26,-58.3302 L 1263.85,-57.7348 L 1264.3,-57.0303 L 1264.59,-56.2476 L 1264.72,-55.2391
 L 1264.72,-22 L 1264.63,-21.1684 L 1264.38,-20.373 L 1263.96,-19.6489 L 1263.4,-19.0274 L 1262.72,-18.5359
 L 1261.96,-18.1958 L 1260.72,-18 z
M 1353.19,-18 L 1352.36,-18.0874 L 1351.56,-18.3458 L 1350.84,-18.7639 L 1350.22,-19.3235 L 1349.73,-20
 L 1349.39,-20.7639 L 1349.21,-21.5819 L 1349.21,-22.4181 L 1349.39,-23.2361 L 1349.73,-24 L 1350.22,-24.6765
 L 1350.84,-25.2361 L 1351.78,-25.7442 L 1440.2,-58.9833 L 1441.01,-59.1941 L 1441.85,-59.2321 L 1442.67,-59.0956
 L 1443.45,-58.7905 L 1444.15,-58.3302 L 1444.74,-57.7348 L 1445.19,-57.0303 L 1445.48,-56.2476 L 1445.61,-55.2391
 L 1445.61,-22 L 1445.52,-21.1684 L 1445.27,-20.373 L 1444.85,-19.6489 L 1444.29,-19.0274 L 1443.61,-18.5359
 L 1442.85,-18.1958 L 1441.61,-18 z
M 22,-18 L 20.7639,-18.1958 L 20,-18.5359 L 19.3235,-19.0274 L 18.7639,-19.6489 L 18.3458,-20.373
 L 18.0874,-21.1684 L 18,-22 L 18,-54.6752 L 18.1292,-55.6837 L 18.4235,-56.4664 L 18.874,-57.1709
 L 19.4612,-57.7663 L 20.1593,-58.2266 L 20.9379,-58.5317 L 21.7629,-58.6682 L 22.5983,-58.6302 L 23.4075,-58.4194
 L 110.328,-25.7442 L 111.272,-25.2361 L 111.893,-24.6765 L 112.385,-24 L 112.725,-23.2361 L 112.899,-22.4181
 L 112.899,-21.5819 L 112.725,-20.7639 L 112.385,-20 L 111.893,-19.3235 L 111.272,-18.7639 L 110.547,-18.3458
 L 109.752,-18.0874 L 108.92,-18 z
M 1534.08,-18 L 1533.25,-18.0874 L 1532.45,-18.3458 L 1531.73,-18.7639 L 1531.11,-19.3235 L 1530.62,-20
 L 1530.28,-20.7639 L 1530.1,-21.5819 L 1530.1,-22.4181 L 1530.28,-23.2361 L 1530.62,-24 L 1531.11,-24.6765
 L 1531.73,-25.2361 L 1532.67,-25.7442 L 1619.59,-58.4194 L 1620.4,-58.6302 L 1621.24,-58.6682 L 1622.06,-58.5317
 L 1622.84,-58.2266 L 1623.54,-57.7663 L 1624.13,-57.1709 L 1624.58,-56.4664 L 1624.87,-55.6837 L 1625,-54.6752
 L 1625,-22 L 1624.91,-21.1684 L 1624.65,-20.373 L 1624.24,-19.6489 L 1623.68,-19.0274 L 1623,-18.5359
 L 1622.24,-18.1958 L 1621,-18 z
M 804.846,-18 L 803.784,-18.1436 L 803.005,-18.4487 L 802.307,-18.909 L 801.72,-19.5043 L 801.27,-20.2088
 L 800.975,-20.9916 L 800.85,-21.8184 L 800.9,-22.6531 L 801.122,-23.4594 L 801.507,-24.2018 L 802.037,-24.848
 L 802.691,-25.3697 L 803.439,-25.7442 L 820.092,-32.0047 L 821.263,-32.2535 L 822.098,-32.2156 L 822.907,-32.0047
 L 839.561,-25.7442 L 840.505,-25.2361 L 841.126,-24.6765 L 841.618,-24 L 841.958,-23.2361 L 842.132,-22.4181
 L 842.132,-21.5819 L 841.958,-20.7639 L 841.618,-20 L 841.126,-19.3235 L 840.505,-18.7639 L 839.781,-18.3458
 L 838.986,-18.0874 L 838.154,-18 z
" stroke="black" fill="lightgray" stroke-width="0.5"/>
</svg>
