<?xml version="1.0" standalone="no"?>
<!DOCTYPE svg PUBLIC "-//W3C//DTD SVG 1.1//EN" "http://www.w3.org/Graphics/SVG/1.1/DTD/svg11.dtd">
<svg width="1469mm" height="80mm" viewBox="0 -80 1469 80" xmlns="http://www.w3.org/2000/svg" version="1.1">
<title>OpenSCAD Model</title>
<path d="
M 1469,-80 L 0,-80 L 0,-0 L 4.95,-0 L 4.95,-6 L 5.00572,-6.53017
 L 5.17046,-7.03717 L 5.437,-7.49884 L 5.79372,-7.895 L 6.22499,-8.20836 L 6.71201,-8.42519 L 7.23344,-8.53603
 L 7.76654,-8.53603 L 8.28798,-8.42519 L 8.77499,-8.20836 L 9.20627,-7.895 L 9.56299,-7.49884 L 9.82953,-7.03717
 L 9.99426,-6.53017 L 10.05,-6 L 10.05,-0 L 186.7,-0 L 186.7,-6 L 186.756,-6.53017
 L 186.92,-7.03717 L 187.187,-7.49884 L 187.544,-7.895 L 187.975,-8.20836 L 188.462,-8.42519 L 188.983,-8.53603
 L 189.517,-8.53603 L 190.038,-8.42519 L 190.525,-8.20836 L 190.956,-7.895 L 191.313,-7.49884 L 191.58,-7.03717
 L 191.744,-6.53017 L 191.8,-6 L 191.8,-0 L 368.45,-0 L 368.45,-6 L 368.506,-6.53017
 L 368.67,-7.03717 L 368.937,-7.49884 L 369.294,-7.895 L 369.725,-8.20836 L 370.212,-8.42519 L 370.733,-8.53603
 L 371.267,-8.53603 L 371.788,-8.42519 L 372.275,-8.20836 L 372.706,-7.895 L 373.063,-7.49884 L 373.33,-7.03717
 L 373.494,-6.53017 L 373.55,-6 L 373.55,-0 L 550.2,-0 L 550.2,-6 L 550.256,-6.53017
 L 550.42,-7.03717 L 550.687,-7.49884 L 551.044,-7.895 L 551.475,-8.20836 L 551.962,-8.42519 L 552.483,-8.53603
 L 553.017,-8.53603 L 553.538,-8.42519 L 554.025,-8.20836 L 554.456,-7.895 L 554.813,-7.49884 L 555.08,-7.03717
 L 555.244,-6.53017 L 555.3,-6 L 555.3,-0 L 731.95,-0 L 731.95,-6 L 732.006,-6.53017
 L 732.17,-7.03717 L 732.437,-7.49884 L 732.794,-7.895 L 733.225,-8.20836 L 733.712,-8.42519 L 734.233,-8.53603
 L 734.767,-8.53603 L 735.288,-8.42519 L 735.775,-8.20836 L 736.206,-7.895 L 736.563,-7.49884 L 736.83,-7.03717
 L 736.994,-6.53017 L 737.05,-6 L 737.05,-0 L 913.7,-0 L 913.7,-6 L 913.756,-6.53017
 L 913.92,-7.03717 L 914.187,-7.49884 L 914.544,-7.895 L 914.975,-8.20836 L 915.462,-8.42519 L 915.983,-8.53603
 L 916.517,-8.53603 L 917.038,-8.42519 L 917.525,-8.20836 L 917.956,-7.895 L 918.313,-7.49884 L 918.58,-7.03717
 L 918.744,-6.53017 L 918.8,-6 L 918.8,-0 L 1095.45,-0 L 1095.45,-6 L 1095.51,-6.53017
 L 1095.67,-7.03717 L 1095.94,-7.49884 L 1096.29,-7.895 L 1096.72,-8.20836 L 1097.21,-8.42519 L 1097.73,-8.53603
 L 1098.27,-8.53603 L 1098.79,-8.42519 L 1099.27,-8.20836 L 1099.71,-7.895 L 1100.06,-7.49884 L 1100.33,-7.03717
 L 1100.49,-6.53017 L 1100.55,-6 L 1100.55,-0 L 1277.2,-0 L 1277.2,-6 L 1277.26,-6.53017
 L 1277.42,-7.03717 L 1277.69,-7.49884 L 1278.04,-7.895 L 1278.47,-8.20836 L 1278.96,-8.42519 L 1279.48,-8.53603
 L 1280.02,-8.53603 L 1280.54,-8.42519 L 1281.02,-8.20836 L 1281.46,-7.895 L 1281.81,-7.49884 L 1282.08,-7.03717
 L 1282.24,-6.53017 L 1282.3,-6 L 1282.3,-0 L 1458.95,-0 L 1458.95,-6 L 1459.01,-6.53017
 L 1459.17,-7.03717 L 1459.44,-7.49884 L 1459.79,-7.895 L 1460.22,-8.20836 L 1460.71,-8.42519 L 1461.23,-8.53603
 L 1461.77,-8.53603 L 1462.29,-8.42519 L 1462.77,-8.20836 L 1463.21,-7.895 L 1463.56,-7.49884 L 1463.83,-7.03717
 L 1463.99,-6.53017 L 1464.05,-6 L 1464.05,-0 L 1469,-0 z
M 188.736,-55.607 L 188.227,-55.6875 L 187.73,-55.8208 L 187.249,-56.0054 L 186.79,-56.2392 L 186.358,-56.5196
 L 185.958,-56.8437 L 185.594,-57.2079 L 185.27,-57.6081 L 184.989,-58.04 L 184.755,-58.4989 L 184.571,-58.9796
 L 184.438,-59.4771 L 184.357,-59.9857 L 184.33,-60.5 L 184.357,-61.0143 L 184.438,-61.5229 L 184.571,-62.0204
 L 184.755,-62.5011 L 184.989,-62.96 L 185.27,-63.3919 L 185.594,-63.7921 L 185.958,-64.1563 L 186.358,-64.4804
 L 186.7,-64.7024 L 186.7,-74 L 186.756,-74.5302 L 186.92,-75.0372 L 187.187,-75.4988 L 187.544,-75.895
 L 187.975,-76.2084 L 188.462,-76.4252 L 188.983,-76.536 L 189.517,-76.536 L 190.038,-76.4252 L 190.525,-76.2084
 L 190.956,-75.895 L 191.313,-75.4988 L 191.58,-75.0372 L 191.744,-74.5302 L 191.8,-74 L 191.8,-64.7024
 L 192.142,-64.4804 L 192.542,-64.1563 L 192.906,-63.7921 L 193.23,-63.3919 L 193.511,-62.96 L 193.745,-62.5011
 L 193.929,-62.0204 L 194.062,-61.5229 L 194.143,-61.0143 L 194.17,-60.5 L 194.143,-59.9857 L 194.062,-59.4771
 L 193.929,-58.9796 L 193.745,-58.4989 L 193.511,-58.04 L 193.23,-57.6081 L 192.906,-57.2079 L 192.542,-56.8437
 L 192.142,-56.5196 L 191.71,-56.2392 L 191.251,-56.0054 L 190.77,-55.8208 L 190.273,-55.6875 L 189.764,-55.607
 L 189.25,-55.58 z
M 1097.49,-55.607 L 1096.98,-55.6875 L 1096.48,-55.8208 L 1096,-56.0054 L 1095.54,-56.2392 L 1095.11,-56.5196
 L 1094.71,-56.8437 L 1094.34,-57.2079 L 1094.02,-57.6081 L 1093.74,-58.04 L 1093.51,-58.4989 L 1093.32,-58.9796
 L 1093.19,-59.4771 L 1093.11,-59.9857 L 1093.08,-60.5 L 1093.11,-61.0143 L 1093.19,-61.5229 L 1093.32,-62.0204
 L 1093.51,-62.5011 L 1093.74,-62.96 L 1094.02,-63.3919 L 1094.34,-63.7921 L 1094.71,-64.1563 L 1095.11,-64.4804
 L 1095.45,-64.7024 L 1095.45,-74 L 1095.51,-74.5302 L 1095.67,-75.0372 L 1095.94,-75.4988 L 1096.29,-75.895
 L 1096.73,-76.2084 L 1097.21,-76.4252 L 1097.73,-76.536 L 1098.27,-76.536 L 1098.79,-76.4252 L 1099.27,-76.2084
 L 1099.71,-75.895 L 1100.06,-75.4988 L 1100.33,-75.0372 L 1100.49,-74.5302 L 1100.55,-74 L 1100.55,-64.7024
 L 1100.89,-64.4804 L 1101.29,-64.1563 L 1101.66,-63.7921 L 1101.98,-63.3919 L 1102.26,-62.96 L 1102.49,-62.5011
 L 1102.68,-62.0204 L 1102.81,-61.5229 L 1102.89,-61.0143 L 1102.92,-60.5 L 1102.89,-59.9857 L 1102.81,-59.4771
 L 1102.68,-58.9796 L 1102.49,-58.4989 L 1102.26,-58.04 L 1101.98,-57.6081 L 1101.66,-57.2079 L 1101.29,-56.8437
 L 1100.89,-56.5196 L 1100.46,-56.2392 L 1100,-56.0054 L 1099.52,-55.8208 L 1099.02,-55.6875 L 1098.51,-55.607
 L 1098,-55.58 z
M 915.736,-55.607 L 915.227,-55.6875 L 914.73,-55.8208 L 914.249,-56.0054 L 913.79,-56.2392 L 913.358,-56.5196
 L 912.958,-56.8437 L 912.594,-57.2079 L 912.27,-57.6081 L 911.989,-58.04 L 911.755,-58.4989 L 911.571,-58.9796
 L 911.438,-59.4771 L 911.357,-59.9857 L 911.33,-60.5 L 911.357,-61.0143 L 911.438,-61.5229 L 911.571,-62.0204
 L 911.755,-62.5011 L 911.989,-62.96 L 912.27,-63.3919 L 912.594,-63.7921 L 912.958,-64.1563 L 913.358,-64.4804
 L 913.7,-64.7024 L 913.7,-74 L 913.756,-74.5302 L 913.92,-75.0372 L 914.187,-75.4988 L 914.544,-75.895
 L 914.975,-76.2084 L 915.462,-76.4252 L 915.983,-76.536 L 916.517,-76.536 L 917.038,-76.4252 L 917.525,-76.2084
 L 917.956,-75.895 L 918.313,-75.4988 L 918.58,-75.0372 L 918.744,-74.5302 L 918.8,-74 L 918.8,-64.7024
 L 919.142,-64.4804 L 919.542,-64.1563 L 919.906,-63.7921 L 920.23,-63.3919 L 920.511,-62.96 L 920.745,-62.5011
 L 920.929,-62.0204 L 921.062,-61.5229 L 921.143,-61.0143 L 921.17,-60.5 L 921.143,-59.9857 L 921.062,-59.4771
 L 920.929,-58.9796 L 920.745,-58.4989 L 920.511,-58.04 L 920.23,-57.6081 L 919.906,-57.2079 L 919.542,-56.8437
 L 919.142,-56.5196 L 918.71,-56.2392 L 918.251,-56.0054 L 917.77,-55.8208 L 917.273,-55.6875 L 916.764,-55.607
 L 916.25,-55.58 z
M 6.98573,-55.607 L 6.47708,-55.6875 L 5.97964,-55.8208 L 5.49887,-56.0054 L 5.04001,-56.2392 L 4.60811,-56.5196
 L 4.20789,-56.8437 L 3.84373,-57.2079 L 3.51964,-57.6081 L 3.23917,-58.04 L 3.00537,-58.4989 L 2.82082,-58.9796
 L 2.68752,-59.4771 L 2.60696,-59.9857 L 2.58,-60.5 L 2.60696,-61.0143 L 2.68752,-61.5229 L 2.82082,-62.0204
 L 3.00537,-62.5011 L 3.23917,-62.96 L 3.51964,-63.3919 L 3.84373,-63.7921 L 4.20789,-64.1563 L 4.60811,-64.4804
 L 4.95001,-64.7024 L 4.95001,-74 L 5.00574,-74.5302 L 5.17047,-75.0372 L 5.43701,-75.4988 L 5.79373,-75.895
 L 6.22501,-76.2084 L 6.71202,-76.4252 L 7.23346,-76.536 L 7.76654,-76.536 L 8.28798,-76.4252 L 8.77499,-76.2084
 L 9.20627,-75.895 L 9.56299,-75.4988 L 9.82953,-75.0372 L 9.99426,-74.5302 L 10.05,-74 L 10.05,-64.7024
 L 10.3919,-64.4804 L 10.7921,-64.1563 L 11.1563,-63.7921 L 11.4804,-63.3919 L 11.7608,-62.96 L 11.9946,-62.5011
 L 12.1792,-62.0204 L 12.3125,-61.5229 L 12.393,-61.0143 L 12.42,-60.5 L 12.393,-59.9857 L 12.3125,-59.4771
 L 12.1792,-58.9796 L 11.9946,-58.4989 L 11.7608,-58.04 L 11.4804,-57.6081 L 11.1563,-57.2079 L 10.7921,-56.8437
 L 10.3919,-56.5196 L 9.95999,-56.2392 L 9.50113,-56.0054 L 9.02036,-55.8208 L 8.52292,-55.6875 L 8.01427,-55.607
 L 7.5,-55.58 z
M 733.986,-55.607 L 733.477,-55.6875 L 732.98,-55.8208 L 732.499,-56.0054 L 732.04,-56.2392 L 731.608,-56.5196
 L 731.208,-56.8437 L 730.844,-57.2079 L 730.52,-57.6081 L 730.239,-58.04 L 730.005,-58.4989 L 729.821,-58.9796
 L 729.688,-59.4771 L 729.607,-59.9857 L 729.58,-60.5 L 729.607,-61.0143 L 729.688,-61.5229 L 729.821,-62.0204
 L 730.005,-62.5011 L 730.239,-62.96 L 730.52,-63.3919 L 730.844,-63.7921 L 731.208,-64.1563 L 731.608,-64.4804
 L 731.95,-64.7024 L 731.95,-74 L 732.006,-74.5302 L 732.17,-75.0372 L 732.437,-75.4988 L 732.794,-75.895
 L 733.225,-76.2084 L 733.712,-76.4252 L 734.233,-76.536 L 734.767,-76.536 L 735.288,-76.4252 L 735.775,-76.2084
 L 736.206,-75.895 L 736.563,-75.4988 L 736.83,-75.0372 L 736.994,-74.5302 L 737.05,-74 L 737.05,-64.7024
 L 737.392,-64.4804 L 737.792,-64.1563 L 738.156,-63.7921 L 738.48,-63.3919 L 738.761,-62.96 L 738.995,-62.5011
 L 739.179,-62.0204 L 739.312,-61.5229 L 739.393,-61.0143 L 739.42,-60.5 L 739.393,-59.9857 L 739.312,-59.4771
 L 739.179,-58.9796 L 738.995,-58.4989 L 738.761,-58.04 L 738.48,-57.6081 L 738.156,-57.2079 L 737.792,-56.8437
 L 737.392,-56.5196 L 736.96,-56.2392 L 736.501,-56.0054 L 736.02,-55.8208 L 735.523,-55.6875 L 735.014,-55.607
 L 734.5,-55.58 z
M 1279.24,-55.607 L 1278.73,-55.6875 L 1278.23,-55.8208 L 1277.75,-56.0054 L 1277.29,-56.2392 L 1276.86,-56.5196
 L 1276.46,-56.8437 L 1276.09,-57.2079 L 1275.77,-57.6081 L 1275.49,-58.04 L 1275.26,-58.4989 L 1275.07,-58.9796
 L 1274.94,-59.4771 L 1274.86,-59.9857 L 1274.83,-60.5 L 1274.86,-61.0143 L 1274.94,-61.5229 L 1275.07,-62.0204
 L 1275.26,-62.5011 L 1275.49,-62.96 L 1275.77,-63.3919 L 1276.09,-63.7921 L 1276.46,-64.1563 L 1276.86,-64.4804
 L 1277.2,-64.7024 L 1277.2,-74 L 1277.26,-74.5302 L 1277.42,-75.0372 L 1277.69,-75.4988 L 1278.04,-75.895
 L 1278.48,-76.2084 L 1278.96,-76.4252 L 1279.48,-76.536 L 1280.02,-76.536 L 1280.54,-76.4252 L 1281.02,-76.2084
 L 1281.46,-75.895 L 1281.81,-75.4988 L 1282.08,-75.0372 L 1282.24,-74.5302 L 1282.3,-74 L 1282.3,-64.7024
 L 1282.64,-64.4804 L 1283.04,-64.1563 L 1283.41,-63.7921 L 1283.73,-63.3919 L 1284.01,-62.96 L 1284.24,-62.5011
 L 1284.43,-62.0204 L 1284.56,-61.5229 L 1284.64,-61.0143 L 1284.67,-60.5 L 1284.64,-59.9857 L 1284.56,-59.4771
 L 1284.43,-58.9796 L 1284.24,-58.4989 L 1284.01,-58.04 L 1283.73,-57.6081 L 1283.41,-57.2079 L 1283.04,-56.8437
 L 1282.64,-56.5196 L 1282.21,-56.2392 L 1281.75,-56.0054 L 1281.27,-55.8208 L 1280.77,-55.6875 L 1280.26,-55.607
 L 1279.75,-55.58 z
M 552.236,-55.607 L 551.727,-55.6875 L 551.23,-55.8208 L 550.749,-56.0054 L 550.29,-56.2392 L 549.858,-56.5196
 L 549.458,-56.8437 L 549.094,-57.2079 L 548.77,-57.6081 L 548.489,-58.04 L 548.255,-58.4989 L 548.071,-58.9796
 L 547.938,-59.4771 L 547.857,-59.9857 L 547.83,-60.5 L 547.857,-61.0143 L 547.938,-61.5229 L 548.071,-62.0204
 L 548.255,-62.5011 L 548.489,-62.96 L 548.77,-63.3919 L 549.094,-63.7921 L 549.458,-64.1563 L 549.858,-64.4804
 L 550.2,-64.7024 L 550.2,-74 L 550.256,-74.5302 L 550.42,-75.0372 L 550.687,-75.4988 L 551.044,-75.895
 L 551.475,-76.2084 L 551.962,-76.4252 L 552.483,-76.536 L 553.017,-76.536 L 553.538,-76.4252 L 554.025,-76.2084
 L 554.456,-75.895 L 554.813,-75.4988 L 555.08,-75.0372 L 555.244,-74.5302 L 555.3,-74 L 555.3,-64.7024
 L 555.642,-64.4804 L 556.042,-64.1563 L 556.406,-63.7921 L 556.73,-63.3919 L 557.011,-62.96 L 557.245,-62.5011
 L 557.429,-62.0204 L 557.562,-61.5229 L 557.643,-61.0143 L 557.67,-60.5 L 557.643,-59.9857 L 557.562,-59.4771
 L 557.429,-58.9796 L 557.245,-58.4989 L 557.011,-58.04 L 556.73,-57.6081 L 556.406,-57.2079 L 556.042,-56.8437
 L 555.642,-56.5196 L 555.21,-56.2392 L 554.751,-56.0054 L 554.27,-55.8208 L 553.773,-55.6875 L 553.264,-55.607
 L 552.75,-55.58 z
M 370.486,-55.607 L 369.977,-55.6875 L 369.48,-55.8208 L 368.999,-56.0054 L 368.54,-56.2392 L 368.108,-56.5196
 L 367.708,-56.8437 L 367.344,-57.2079 L 367.02,-57.6081 L 366.739,-58.04 L 366.505,-58.4989 L 366.321,-58.9796
 L 366.188,-59.4771 L 366.107,-59.9857 L 366.08,-60.5 L 366.107,-61.0143 L 366.188,-61.5229 L 366.321,-62.0204
 L 366.505,-62.5011 L 366.739,-62.96 L 367.02,-63.3919 L 367.344,-63.7921 L 367.708,-64.1563 L 368.108,-64.4804
 L 368.45,-64.7024 L 368.45,-74 L 368.506,-74.5302 L 368.67,-75.0372 L 368.937,-75.4988 L 369.294,-75.895
 L 369.725,-76.2084 L 370.212,-76.4252 L 370.733,-76.536 L 371.267,-76.536 L 371.788,-76.4252 L 372.275,-76.2084
 L 372.706,-75.895 L 373.063,-75.4988 L 373.33,-75.0372 L 373.494,-74.5302 L 373.55,-74 L 373.55,-64.7024
 L 373.892,-64.4804 L 374.292,-64.1563 L 374.656,-63.7921 L 374.98,-63.3919 L 375.261,-62.96 L 375.495,-62.5011
 L 375.679,-62.0204 L 375.812,-61.5229 L 375.893,-61.0143 L 375.92,-60.5 L 375.893,-59.9857 L 375.812,-59.4771
 L 375.679,-58.9796 L 375.495,-58.4989 L 375.261,-58.04 L 374.98,-57.6081 L 374.656,-57.2079 L 374.292,-56.8437
 L 373.892,-56.5196 L 373.46,-56.2392 L 373.001,-56.0054 L 372.52,-55.8208 L 372.023,-55.6875 L 371.514,-55.607
 L 371,-55.58 z
M 1460.99,-55.607 L 1460.48,-55.6875 L 1459.98,-55.8208 L 1459.5,-56.0054 L 1459.04,-56.2392 L 1458.61,-56.5196
 L 1458.21,-56.8437 L 1457.84,-57.2079 L 1457.52,-57.6081 L 1457.24,-58.04 L 1457.01,-58.4989 L 1456.82,-58.9796
 L 1456.69,-59.4771 L 1456.61,-59.9857 L 1456.58,-60.5 L 1456.61,-61.0143 L 1456.69,-61.5229 L 1456.82,-62.0204
 L 1457.01,-62.5011 L 1457.24,-62.96 L 1457.52,-63.3919 L 1457.84,-63.7921 L 1458.21,-64.1563 L 1458.61,-64.4804
 L 1458.95,-64.7024 L 1458.95,-74 L 1459.01,-74.5302 L 1459.17,-75.0372 L 1459.44,-75.4988 L 1459.79,-75.895
 L 1460.23,-76.2084 L 1460.71,-76.4252 L 1461.23,-76.536 L 1461.77,-76.536 L 1462.29,-76.4252 L 1462.77,-76.2084
 L 1463.21,-75.895 L 1463.56,-75.4988 L 1463.83,-75.0372 L 1463.99,-74.5302 L 1464.05,-74 L 1464.05,-64.7024
 L 1464.39,-64.4804 L 1464.79,-64.1563 L 1465.16,-63.7921 L 1465.48,-63.3919 L 1465.76,-62.96 L 1465.99,-62.5011
 L 1466.18,-62.0204 L 1466.31,-61.5229 L 1466.39,-61.0143 L 1466.42,-60.5 L 1466.39,-59.9857 L 1466.31,-59.4771
 L 1466.18,-58.9796 L 1465.99,-58.4989 L 1465.76,-58.04 L 1465.48,-57.6081 L 1465.16,-57.2079 L 1464.79,-56.8437
 L 1464.39,-56.5196 L 1463.96,-56.2392 L 1463.5,-56.0054 L 1463.02,-55.8208 L 1462.52,-55.6875 L 1462.01,-55.607
 L 1461.5,-55.58 z
M 357.408,-20.7746 L 356.598,-20.9842 L 267.676,-54.2536 L 266.726,-54.7639 L 266.105,-55.3235 L 265.614,-56
 L 265.273,-56.7639 L 265.1,-57.5819 L 265.1,-58.4181 L 265.273,-59.2361 L 265.614,-60 L 266.105,-60.6765
 L 266.726,-61.2361 L 267.451,-61.6542 L 268.246,-61.9126 L 269.078,-62 L 358,-62 L 359.236,-61.8042
 L 360,-61.4641 L 360.677,-60.9726 L 361.236,-60.3511 L 361.654,-59.627 L 361.913,-58.8316 L 362,-58
 L 362,-24.7305 L 361.872,-23.7281 L 361.579,-22.9449 L 361.13,-22.2398 L 360.544,-21.6435 L 359.846,-21.1821
 L 359.068,-20.8758 L 358.243,-20.7379 z
M 539.158,-20.7746 L 538.348,-20.9842 L 449.426,-54.2536 L 448.476,-54.7639 L 447.855,-55.3235 L 447.364,-56
 L 447.023,-56.7639 L 446.85,-57.5819 L 446.85,-58.4181 L 447.023,-59.2361 L 447.364,-60 L 447.855,-60.6765
 L 448.476,-61.2361 L 449.201,-61.6542 L 449.996,-61.9126 L 450.828,-62 L 539.75,-62 L 540.986,-61.8042
 L 541.75,-61.4641 L 542.427,-60.9726 L 542.986,-60.3511 L 543.404,-59.627 L 543.663,-58.8316 L 543.75,-58
 L 543.75,-24.7305 L 543.622,-23.7281 L 543.329,-22.9449 L 542.88,-22.2398 L 542.294,-21.6435 L 541.596,-21.1821
 L 540.818,-20.8758 L 539.993,-20.7379 z
M 1291.68,-20.8758 L 1290.9,-21.1821 L 1290.21,-21.6435 L 1289.62,-22.2398 L 1289.17,-22.9449 L 1288.88,-23.7281
 L 1288.75,-24.7305 L 1288.75,-58 L 1288.84,-58.8316 L 1289.1,-59.627 L 1289.51,-60.3511 L 1290.07,-60.9726
 L 1290.75,-61.4641 L 1291.51,-61.8042 L 1292.75,-62 L 1381.67,-62 L 1382.5,-61.9126 L 1383.3,-61.6542
 L 1384.02,-61.2361 L 1384.64,-60.6765 L 1385.14,-60 L 1385.48,-59.2361 L 1385.65,-58.4181 L 1385.65,-57.5819
 L 1385.48,-56.7639 L 1385.14,-56 L 1384.64,-55.3235 L 1384.02,-54.7639 L 1383.07,-54.2536 L 1294.15,-20.9842
 L 1293.34,-20.7746 L 1292.51,-20.7379 z
M 720.908,-20.7746 L 720.098,-20.9842 L 631.176,-54.2536 L 630.226,-54.7639 L 629.605,-55.3235 L 629.114,-56
 L 628.773,-56.7639 L 628.6,-57.5819 L 628.6,-58.4181 L 628.773,-59.2361 L 629.114,-60 L 629.605,-60.6765
 L 630.226,-61.2361 L 630.951,-61.6542 L 631.746,-61.9126 L 632.578,-62 L 721.5,-62 L 722.736,-61.8042
 L 723.5,-61.4641 L 724.177,-60.9726 L 724.736,-60.3511 L 725.154,-59.627 L 725.413,-58.8316 L 725.5,-58
 L 725.5,-24.7305 L 725.372,-23.7281 L 725.079,-22.9449 L 724.63,-22.2398 L 724.044,-21.6435 L 723.346,-21.1821
 L 722.568,-20.8758 L 721.743,-20.7379 z
M 175.658,-20.7746 L 174.848,-20.9842 L 85.9259,-54.2536 L 84.9765,-54.7639 L 84.355,-55.3235 L 83.8635,-56
 L 83.5234,-56.7639 L 83.3495,-57.5819 L 83.3495,-58.4181 L 83.5234,-59.2361 L 83.8635,-60 L 84.355,-60.6765
 L 84.9765,-61.2361 L 85.7007,-61.6542 L 86.496,-61.9126 L 87.3276,-62 L 176.25,-62 L 177.486,-61.8042
 L 178.25,-61.4641 L 178.927,-60.9726 L 179.486,-60.3511 L 179.904,-59.627 L 180.163,-58.8316 L 180.25,-58
 L 180.25,-24.7305 L 180.122,-23.7281 L 179.829,-22.9449 L 179.38,-22.2398 L 178.794,-21.6435 L 178.096,-21.1821
 L 177.318,-20.8758 L 176.493,-20.7379 z
M 746.432,-20.8758 L 745.654,-21.1821 L 744.956,-21.6435 L 744.37,-22.2398 L 743.921,-22.9449 L 743.628,-23.7281
 L 743.5,-24.7305 L 743.5,-58 L 743.587,-58.8316 L 743.846,-59.627 L 744.264,-60.3511 L 744.823,-60.9726
 L 745.5,-61.4641 L 746.264,-61.8042 L 747.5,-62 L 836.422,-62 L 837.254,-61.9126 L 838.049,-61.6542
 L 838.774,-61.2361 L 839.395,-60.6765 L 839.886,-60 L 840.227,-59.2361 L 840.4,-58.4181 L 840.4,-57.5819
 L 840.227,-56.7639 L 839.886,-56 L 839.395,-55.3235 L 838.774,-54.7639 L 837.824,-54.2536 L 748.902,-20.9842
 L 748.092,-20.7746 L 747.257,-20.7379 z
M 928.182,-20.8758 L 927.404,-21.1821 L 926.706,-21.6435 L 926.12,-22.2398 L 925.671,-22.9449 L 925.378,-23.7281
 L 925.25,-24.7305 L 925.25,-58 L 925.337,-58.8316 L 925.596,-59.627 L 926.014,-60.3511 L 926.573,-60.9726
 L 927.25,-61.4641 L 928.014,-61.8042 L 929.25,-62 L 1018.17,-62 L 1019,-61.9126 L 1019.8,-61.6542
 L 1020.52,-61.2361 L 1021.14,-60.6765 L 1021.64,-60 L 1021.98,-59.2361 L 1022.15,-58.4181 L 1022.15,-57.5819
 L 1021.98,-56.7639 L 1021.64,-56 L 1021.14,-55.3235 L 1020.52,-54.7639 L 1019.57,-54.2536 L 930.652,-20.9842
 L 929.842,-20.7746 L 929.007,-20.7379 z
M 1109.93,-20.8758 L 1109.15,-21.1821 L 1108.46,-21.6435 L 1107.87,-22.2398 L 1107.42,-22.9449 L 1107.13,-23.7281
 L 1107,-24.7305 L 1107,-58 L 1107.09,-58.8316 L 1107.35,-59.627 L 1107.76,-60.3511 L 1108.32,-60.9726
 L 1109,-61.4641 L 1109.76,-61.8042 L 1111,-62 L 1199.92,-62 L 1200.75,-61.9126 L 1201.55,-61.6542
 L 1202.27,-61.2361 L 1202.89,-60.6765 L 1203.39,-60 L 1203.73,-59.2361 L 1203.9,-58.4181 L 1203.9,-57.5819
 L 1203.73,-56.7639 L 1203.39,-56 L 1202.89,-55.3235 L 1202.27,-54.7639 L 1201.32,-54.2536 L 1112.4,-20.9842
 L 1111.59,-20.7746 L 1110.76,-20.7379 z
M 202.25,-18 L 201.014,-18.1958 L 200.25,-18.5359 L 199.573,-19.0274 L 199.014,-19.6489 L 198.596,-20.373
 L 198.337,-21.1684 L 198.25,-22 L 198.25,-55.2694 L 198.378,-56.2718 L 198.671,-57.055 L 199.12,-57.7602
 L 199.706,-58.3565 L 200.404,-58.8179 L 201.182,-59.1242 L 202.007,-59.262 L 202.842,-59.2254 L 203.652,-59.0158
 L 292.574,-25.7464 L 293.523,-25.2361 L 294.145,-24.6765 L 294.636,-24 L 294.977,-23.2361 L 295.15,-22.4181
 L 295.15,-21.5819 L 294.977,-20.7639 L 294.636,-20 L 294.145,-19.3235 L 293.523,-18.7639 L 292.799,-18.3458
 L 292.004,-18.0874 L 291.172,-18 z
M 384,-18 L 382.764,-18.1958 L 382,-18.5359 L 381.323,-19.0274 L 380.764,-19.6489 L 380.346,-20.373
 L 380.087,-21.1684 L 380,-22 L 380,-55.2694 L 380.128,-56.2718 L 380.421,-57.055 L 380.87,-57.7602
 L 381.456,-58.3565 L 382.154,-58.8179 L 382.932,-59.1242 L 383.757,-59.262 L 384.592,-59.2254 L 385.402,-59.0158
 L 474.324,-25.7464 L 475.273,-25.2361 L 475.895,-24.6765 L 476.386,-24 L 476.727,-23.2361 L 476.9,-22.4181
 L 476.9,-21.5819 L 476.727,-20.7639 L 476.386,-20 L 475.895,-19.3235 L 475.273,-18.7639 L 474.549,-18.3458
 L 473.754,-18.0874 L 472.922,-18 z
M 565.75,-18 L 564.514,-18.1958 L 563.75,-18.5359 L 563.073,-19.0274 L 562.514,-19.6489 L 562.096,-20.373
 L 561.837,-21.1684 L 561.75,-22 L 561.75,-55.2694 L 561.878,-56.2718 L 562.171,-57.055 L 562.62,-57.7602
 L 563.206,-58.3565 L 563.904,-58.8179 L 564.682,-59.1242 L 565.507,-59.262 L 566.342,-59.2254 L 567.152,-59.0158
 L 656.074,-25.7464 L 657.023,-25.2361 L 657.645,-24.6765 L 658.136,-24 L 658.477,-23.2361 L 658.65,-22.4181
 L 658.65,-21.5819 L 658.477,-20.7639 L 658.136,-20 L 657.645,-19.3235 L 657.023,-18.7639 L 656.299,-18.3458
 L 655.504,-18.0874 L 654.672,-18 z
M 814.328,-18 L 813.496,-18.0874 L 812.701,-18.3458 L 811.977,-18.7639 L 811.355,-19.3235 L 810.864,-20
 L 810.523,-20.7639 L 810.35,-21.5819 L 810.35,-22.4181 L 810.523,-23.2361 L 810.864,-24 L 811.355,-24.6765
 L 811.977,-25.2361 L 812.926,-25.7464 L 901.848,-59.0158 L 902.658,-59.2254 L 903.493,-59.262 L 904.318,-59.1242
 L 905.096,-58.8179 L 905.794,-58.3565 L 906.38,-57.7602 L 906.829,-57.055 L 907.122,-56.2718 L 907.25,-55.2694
 L 907.25,-22 L 907.163,-21.1684 L 906.904,-20.373 L 906.486,-19.6489 L 905.927,-19.0274 L 905.25,-18.5359
 L 904.486,-18.1958 L 903.25,-18 z
M 996.078,-18 L 995.246,-18.0874 L 994.451,-18.3458 L 993.727,-18.7639 L 993.105,-19.3235 L 992.614,-20
 L 992.273,-20.7639 L 992.1,-21.5819 L 992.1,-22.4181 L 992.273,-23.2361 L 992.614,-24 L 993.105,-24.6765
 L 993.727,-25.2361 L 994.676,-25.7464 L 1083.6,-59.0158 L 1084.41,-59.2254 L 1085.24,-59.262 L 1086.07,-59.1242
 L 1086.85,-58.8179 L 1087.54,-58.3565 L 1088.13,-57.7602 L 1088.58,-57.055 L 1088.87,-56.2718 L 1089,-55.2694
 L 1089,-22 L 1088.91,-21.1684 L 1088.65,-20.373 L 1088.24,-19.6489 L 1087.68,-19.0274 L 1087,-18.5359
 L 1086.24,-18.1958 L 1085,-18 z
M 1177.83,-18 L 1177,-18.0874 L 1176.2,-18.3458 L 1175.48,-18.7639 L 1174.86,-19.3235 L 1174.36,-20
 L 1174.02,-20.7639 L 1173.85,-21.5819 L 1173.85,-22.4181 L 1174.02,-23.2361 L 1174.36,-24 L 1174.86,-24.6765
 L 1175.48,-25.2361 L 1176.43,-25.7464 L 1265.35,-59.0158 L 1266.16,-59.2254 L 1266.99,-59.262 L 1267.82,-59.1242
 L 1268.6,-58.8179 L 1269.29,-58.3565 L 1269.88,-57.7602 L 1270.33,-57.055 L 1270.62,-56.2718 L 1270.75,-55.2694
 L 1270.75,-22 L 1270.66,-21.1684 L 1270.4,-20.373 L 1269.99,-19.6489 L 1269.43,-19.0274 L 1268.75,-18.5359
 L 1267.99,-18.1958 L 1266.75,-18 z
M 1359.58,-18 L 1358.75,-18.0874 L 1357.95,-18.3458 L 1357.23,-18.7639 L 1356.61,-19.3235 L 1356.11,-20
 L 1355.77,-20.7639 L 1355.6,-21.5819 L 1355.6,-22.4181 L 1355.77,-23.2361 L 1356.11,-24 L 1356.61,-24.6765
 L 1357.23,-25.2361 L 1358.18,-25.7464 L 1445.6,-58.4546 L 1446.41,-58.6642 L 1447.24,-58.7008 L 1448.07,-58.563
 L 1448.85,-58.2567 L 1449.54,-57.7953 L 1450.13,-57.199 L 1450.58,-56.4938 L 1450.87,-55.7106 L 1451,-54.7082
 L 1451,-22 L 1450.91,-21.1684 L 1450.65,-20.373 L 1450.24,-19.6489 L 1449.68,-19.0274 L 1449,-18.5359
 L 1448.24,-18.1958 L 1447,-18 z
M 22,-18 L 20.7639,-18.1958 L 20,-18.5359 L 19.3235,-19.0274 L 18.7639,-19.6489 L 18.3458,-20.373
 L 18.0874,-21.1684 L 18,-22 L 18,-54.7082 L 18.1276,-55.7106 L 18.4207,-56.4938 L 18.8701,-57.199
 L 19.4564,-57.7953 L 20.1538,-58.2567 L 20.9319,-58.563 L 21.7567,-58.7008 L 22.5921,-58.6642 L 23.4017,-58.4546
 L 110.824,-25.7464 L 111.773,-25.2361 L 112.395,-24.6765 L 112.886,-24 L 113.227,-23.2361 L 113.4,-22.4181
 L 113.4,-21.5819 L 113.227,-20.7639 L 112.886,-20 L 112.395,-19.3235 L 111.773,-18.7639 L 111.049,-18.3458
 L 110.254,-18.0874 L 109.422,-18 z
" stroke="black" fill="lightgray" stroke-width="0.5"/>
</svg>
