<?xml version="1.0" standalone="no"?>
<!DOCTYPE svg PUBLIC "-//W3C//DTD SVG 1.1//EN" "http://www.w3.org/Graphics/SVG/1.1/DTD/svg11.dtd">
<svg width="1444mm" height="80mm" viewBox="0 -80 1444 80" xmlns="http://www.w3.org/2000/svg" version="1.1">
<title>OpenSCAD Model</title>
<path d="
M 1444,-80 L 0,-80 L 0,-0 L 4.95,-0 L 4.95,-6 L 5.00572,-6.53017
 L 5.17046,-7.03717 L 5.437,-7.49884 L 5.79372,-7.895 L 6.22499,-8.20836 L 6.71201,-8.42519 L 7.23344,-8.53603
 L 7.76654,-8.53603 L 8.28798,-8.42519 L 8.77499,-8.20836 L 9.20627,-7.895 L 9.56299,-7.49884 L 9.82953,-7.03717
 L 9.99426,-6.53017 L 10.05,-6 L 10.05,-0 L 183.575,-0 L 183.575,-6 L 183.631,-6.53017
 L 183.795,-7.03717 L 184.062,-7.49884 L 184.419,-7.895 L 184.85,-8.20836 L 185.337,-8.42519 L 185.858,-8.53603
 L 186.392,-8.53603 L 186.913,-8.42519 L 187.4,-8.20836 L 187.831,-7.895 L 188.188,-7.49884 L 188.455,-7.03717
 L 188.619,-6.53017 L 188.675,-6 L 188.675,-0 L 362.2,-0 L 362.2,-6 L 362.256,-6.53017
 L 362.42,-7.03717 L 362.687,-7.49884 L 363.044,-7.895 L 363.475,-8.20836 L 363.962,-8.42519 L 364.483,-8.53603
 L 365.017,-8.53603 L 365.538,-8.42519 L 366.025,-8.20836 L 366.456,-7.895 L 366.813,-7.49884 L 367.08,-7.03717
 L 367.244,-6.53017 L 367.3,-6 L 367.3,-0 L 540.825,-0 L 540.825,-6 L 540.881,-6.53017
 L 541.045,-7.03717 L 541.312,-7.49884 L 541.669,-7.895 L 542.1,-8.20836 L 542.587,-8.42519 L 543.108,-8.53603
 L 543.642,-8.53603 L 544.163,-8.42519 L 544.65,-8.20836 L 545.081,-7.895 L 545.438,-7.49884 L 545.705,-7.03717
 L 545.869,-6.53017 L 545.925,-6 L 545.925,-0 L 719.45,-0 L 719.45,-6 L 719.506,-6.53017
 L 719.67,-7.03717 L 719.937,-7.49884 L 720.294,-7.895 L 720.725,-8.20836 L 721.212,-8.42519 L 721.733,-8.53603
 L 722.267,-8.53603 L 722.788,-8.42519 L 723.275,-8.20836 L 723.706,-7.895 L 724.063,-7.49884 L 724.33,-7.03717
 L 724.494,-6.53017 L 724.55,-6 L 724.55,-0 L 898.075,-0 L 898.075,-6 L 898.131,-6.53017
 L 898.295,-7.03717 L 898.562,-7.49884 L 898.919,-7.895 L 899.35,-8.20836 L 899.837,-8.42519 L 900.358,-8.53603
 L 900.892,-8.53603 L 901.413,-8.42519 L 901.9,-8.20836 L 902.331,-7.895 L 902.688,-7.49884 L 902.955,-7.03717
 L 903.119,-6.53017 L 903.175,-6 L 903.175,-0 L 1076.7,-0 L 1076.7,-6 L 1076.76,-6.53017
 L 1076.92,-7.03717 L 1077.19,-7.49884 L 1077.54,-7.895 L 1077.97,-8.20836 L 1078.46,-8.42519 L 1078.98,-8.53603
 L 1079.52,-8.53603 L 1080.04,-8.42519 L 1080.52,-8.20836 L 1080.96,-7.895 L 1081.31,-7.49884 L 1081.58,-7.03717
 L 1081.74,-6.53017 L 1081.8,-6 L 1081.8,-0 L 1255.32,-0 L 1255.32,-6 L 1255.38,-6.53017
 L 1255.55,-7.03717 L 1255.81,-7.49884 L 1256.17,-7.895 L 1256.6,-8.20836 L 1257.09,-8.42519 L 1257.61,-8.53603
 L 1258.14,-8.53603 L 1258.66,-8.42519 L 1259.15,-8.20836 L 1259.58,-7.895 L 1259.94,-7.49884 L 1260.2,-7.03717
 L 1260.37,-6.53017 L 1260.42,-6 L 1260.42,-0 L 1433.95,-0 L 1433.95,-6 L 1434.01,-6.53017
 L 1434.17,-7.03717 L 1434.44,-7.49884 L 1434.79,-7.895 L 1435.22,-8.20836 L 1435.71,-8.42519 L 1436.23,-8.53603
 L 1436.77,-8.53603 L 1437.29,-8.42519 L 1437.77,-8.20836 L 1438.21,-7.895 L 1438.56,-7.49884 L 1438.83,-7.03717
 L 1438.99,-6.53017 L 1439.05,-6 L 1439.05,-0 L 1444,-0 z
M 185.611,-55.607 L 185.102,-55.6875 L 184.605,-55.8208 L 184.124,-56.0054 L 183.665,-56.2392 L 183.233,-56.5196
 L 182.833,-56.8437 L 182.469,-57.2079 L 182.145,-57.6081 L 181.864,-58.04 L 181.63,-58.4989 L 181.446,-58.9796
 L 181.313,-59.4771 L 181.232,-59.9857 L 181.205,-60.5 L 181.232,-61.0143 L 181.313,-61.5229 L 181.446,-62.0204
 L 181.63,-62.5011 L 181.864,-62.96 L 182.145,-63.3919 L 182.469,-63.7921 L 182.833,-64.1563 L 183.233,-64.4804
 L 183.575,-64.7024 L 183.575,-74 L 183.631,-74.5302 L 183.795,-75.0372 L 184.062,-75.4988 L 184.419,-75.895
 L 184.85,-76.2084 L 185.337,-76.4252 L 185.858,-76.536 L 186.392,-76.536 L 186.913,-76.4252 L 187.4,-76.2084
 L 187.831,-75.895 L 188.188,-75.4988 L 188.455,-75.0372 L 188.619,-74.5302 L 188.675,-74 L 188.675,-64.7024
 L 189.017,-64.4804 L 189.417,-64.1563 L 189.781,-63.7921 L 190.105,-63.3919 L 190.386,-62.96 L 190.62,-62.5011
 L 190.804,-62.0204 L 190.937,-61.5229 L 191.018,-61.0143 L 191.045,-60.5 L 191.018,-59.9857 L 190.937,-59.4771
 L 190.804,-58.9796 L 190.62,-58.4989 L 190.386,-58.04 L 190.105,-57.6081 L 189.781,-57.2079 L 189.417,-56.8437
 L 189.017,-56.5196 L 188.585,-56.2392 L 188.126,-56.0054 L 187.645,-55.8208 L 187.148,-55.6875 L 186.639,-55.607
 L 186.125,-55.58 z
M 1078.74,-55.607 L 1078.23,-55.6875 L 1077.73,-55.8208 L 1077.25,-56.0054 L 1076.79,-56.2392 L 1076.36,-56.5196
 L 1075.96,-56.8437 L 1075.59,-57.2079 L 1075.27,-57.6081 L 1074.99,-58.04 L 1074.76,-58.4989 L 1074.57,-58.9796
 L 1074.44,-59.4771 L 1074.36,-59.9857 L 1074.33,-60.5 L 1074.36,-61.0143 L 1074.44,-61.5229 L 1074.57,-62.0204
 L 1074.76,-62.5011 L 1074.99,-62.96 L 1075.27,-63.3919 L 1075.59,-63.7921 L 1075.96,-64.1563 L 1076.36,-64.4804
 L 1076.7,-64.7024 L 1076.7,-74 L 1076.76,-74.5302 L 1076.92,-75.0372 L 1077.19,-75.4988 L 1077.54,-75.895
 L 1077.98,-76.2084 L 1078.46,-76.4252 L 1078.98,-76.536 L 1079.52,-76.536 L 1080.04,-76.4252 L 1080.52,-76.2084
 L 1080.96,-75.895 L 1081.31,-75.4988 L 1081.58,-75.0372 L 1081.74,-74.5302 L 1081.8,-74 L 1081.8,-64.7024
 L 1082.14,-64.4804 L 1082.54,-64.1563 L 1082.91,-63.7921 L 1083.23,-63.3919 L 1083.51,-62.96 L 1083.74,-62.5011
 L 1083.93,-62.0204 L 1084.06,-61.5229 L 1084.14,-61.0143 L 1084.17,-60.5 L 1084.14,-59.9857 L 1084.06,-59.4771
 L 1083.93,-58.9796 L 1083.74,-58.4989 L 1083.51,-58.04 L 1083.23,-57.6081 L 1082.91,-57.2079 L 1082.54,-56.8437
 L 1082.14,-56.5196 L 1081.71,-56.2392 L 1081.25,-56.0054 L 1080.77,-55.8208 L 1080.27,-55.6875 L 1079.76,-55.607
 L 1079.25,-55.58 z
M 900.111,-55.607 L 899.602,-55.6875 L 899.105,-55.8208 L 898.624,-56.0054 L 898.165,-56.2392 L 897.733,-56.5196
 L 897.333,-56.8437 L 896.969,-57.2079 L 896.645,-57.6081 L 896.364,-58.04 L 896.13,-58.4989 L 895.946,-58.9796
 L 895.813,-59.4771 L 895.732,-59.9857 L 895.705,-60.5 L 895.732,-61.0143 L 895.813,-61.5229 L 895.946,-62.0204
 L 896.13,-62.5011 L 896.364,-62.96 L 896.645,-63.3919 L 896.969,-63.7921 L 897.333,-64.1563 L 897.733,-64.4804
 L 898.075,-64.7024 L 898.075,-74 L 898.131,-74.5302 L 898.295,-75.0372 L 898.562,-75.4988 L 898.919,-75.895
 L 899.35,-76.2084 L 899.837,-76.4252 L 900.358,-76.536 L 900.892,-76.536 L 901.413,-76.4252 L 901.9,-76.2084
 L 902.331,-75.895 L 902.688,-75.4988 L 902.955,-75.0372 L 903.119,-74.5302 L 903.175,-74 L 903.175,-64.7024
 L 903.517,-64.4804 L 903.917,-64.1563 L 904.281,-63.7921 L 904.605,-63.3919 L 904.886,-62.96 L 905.12,-62.5011
 L 905.304,-62.0204 L 905.437,-61.5229 L 905.518,-61.0143 L 905.545,-60.5 L 905.518,-59.9857 L 905.437,-59.4771
 L 905.304,-58.9796 L 905.12,-58.4989 L 904.886,-58.04 L 904.605,-57.6081 L 904.281,-57.2079 L 903.917,-56.8437
 L 903.517,-56.5196 L 903.085,-56.2392 L 902.626,-56.0054 L 902.145,-55.8208 L 901.648,-55.6875 L 901.139,-55.607
 L 900.625,-55.58 z
M 6.98573,-55.607 L 6.47708,-55.6875 L 5.97964,-55.8208 L 5.49887,-56.0054 L 5.04001,-56.2392 L 4.60811,-56.5196
 L 4.20789,-56.8437 L 3.84373,-57.2079 L 3.51964,-57.6081 L 3.23917,-58.04 L 3.00537,-58.4989 L 2.82082,-58.9796
 L 2.68752,-59.4771 L 2.60696,-59.9857 L 2.58,-60.5 L 2.60696,-61.0143 L 2.68752,-61.5229 L 2.82082,-62.0204
 L 3.00537,-62.5011 L 3.23917,-62.96 L 3.51964,-63.3919 L 3.84373,-63.7921 L 4.20789,-64.1563 L 4.60811,-64.4804
 L 4.95001,-64.7024 L 4.95001,-74 L 5.00574,-74.5302 L 5.17047,-75.0372 L 5.43701,-75.4988 L 5.79373,-75.895
 L 6.22501,-76.2084 L 6.71202,-76.4252 L 7.23346,-76.536 L 7.76654,-76.536 L 8.28798,-76.4252 L 8.77499,-76.2084
 L 9.20627,-75.895 L 9.56299,-75.4988 L 9.82953,-75.0372 L 9.99426,-74.5302 L 10.05,-74 L 10.05,-64.7024
 L 10.3919,-64.4804 L 10.7921,-64.1563 L 11.1563,-63.7921 L 11.4804,-63.3919 L 11.7608,-62.96 L 11.9946,-62.5011
 L 12.1792,-62.0204 L 12.3125,-61.5229 L 12.393,-61.0143 L 12.42,-60.5 L 12.393,-59.9857 L 12.3125,-59.4771
 L 12.1792,-58.9796 L 11.9946,-58.4989 L 11.7608,-58.04 L 11.4804,-57.6081 L 11.1563,-57.2079 L 10.7921,-56.8437
 L 10.3919,-56.5196 L 9.95999,-56.2392 L 9.50113,-56.0054 L 9.02036,-55.8208 L 8.52292,-55.6875 L 8.01427,-55.607
 L 7.5,-55.58 z
M 721.486,-55.607 L 720.977,-55.6875 L 720.48,-55.8208 L 719.999,-56.0054 L 719.54,-56.2392 L 719.108,-56.5196
 L 718.708,-56.8437 L 718.344,-57.2079 L 718.02,-57.6081 L 717.739,-58.04 L 717.505,-58.4989 L 717.321,-58.9796
 L 717.188,-59.4771 L 717.107,-59.9857 L 717.08,-60.5 L 717.107,-61.0143 L 717.188,-61.5229 L 717.321,-62.0204
 L 717.505,-62.5011 L 717.739,-62.96 L 718.02,-63.3919 L 718.344,-63.7921 L 718.708,-64.1563 L 719.108,-64.4804
 L 719.45,-64.7024 L 719.45,-74 L 719.506,-74.5302 L 719.67,-75.0372 L 719.937,-75.4988 L 720.294,-75.895
 L 720.725,-76.2084 L 721.212,-76.4252 L 721.733,-76.536 L 722.267,-76.536 L 722.788,-76.4252 L 723.275,-76.2084
 L 723.706,-75.895 L 724.063,-75.4988 L 724.33,-75.0372 L 724.494,-74.5302 L 724.55,-74 L 724.55,-64.7024
 L 724.892,-64.4804 L 725.292,-64.1563 L 725.656,-63.7921 L 725.98,-63.3919 L 726.261,-62.96 L 726.495,-62.5011
 L 726.679,-62.0204 L 726.812,-61.5229 L 726.893,-61.0143 L 726.92,-60.5 L 726.893,-59.9857 L 726.812,-59.4771
 L 726.679,-58.9796 L 726.495,-58.4989 L 726.261,-58.04 L 725.98,-57.6081 L 725.656,-57.2079 L 725.292,-56.8437
 L 724.892,-56.5196 L 724.46,-56.2392 L 724.001,-56.0054 L 723.52,-55.8208 L 723.023,-55.6875 L 722.514,-55.607
 L 722,-55.58 z
M 1257.36,-55.607 L 1256.85,-55.6875 L 1256.35,-55.8208 L 1255.87,-56.0054 L 1255.42,-56.2392 L 1254.98,-56.5196
 L 1254.58,-56.8437 L 1254.22,-57.2079 L 1253.89,-57.6081 L 1253.61,-58.04 L 1253.38,-58.4989 L 1253.2,-58.9796
 L 1253.06,-59.4771 L 1252.98,-59.9857 L 1252.96,-60.5 L 1252.98,-61.0143 L 1253.06,-61.5229 L 1253.2,-62.0204
 L 1253.38,-62.5011 L 1253.61,-62.96 L 1253.89,-63.3919 L 1254.22,-63.7921 L 1254.58,-64.1563 L 1254.98,-64.4804
 L 1255.33,-64.7024 L 1255.33,-74 L 1255.38,-74.5302 L 1255.55,-75.0372 L 1255.81,-75.4988 L 1256.17,-75.895
 L 1256.6,-76.2084 L 1257.09,-76.4252 L 1257.61,-76.536 L 1258.14,-76.536 L 1258.66,-76.4252 L 1259.15,-76.2084
 L 1259.58,-75.895 L 1259.94,-75.4988 L 1260.2,-75.0372 L 1260.37,-74.5302 L 1260.42,-74 L 1260.42,-64.7024
 L 1260.77,-64.4804 L 1261.17,-64.1563 L 1261.53,-63.7921 L 1261.86,-63.3919 L 1262.14,-62.96 L 1262.37,-62.5011
 L 1262.55,-62.0204 L 1262.69,-61.5229 L 1262.77,-61.0143 L 1262.79,-60.5 L 1262.77,-59.9857 L 1262.69,-59.4771
 L 1262.55,-58.9796 L 1262.37,-58.4989 L 1262.14,-58.04 L 1261.86,-57.6081 L 1261.53,-57.2079 L 1261.17,-56.8437
 L 1260.77,-56.5196 L 1260.33,-56.2392 L 1259.88,-56.0054 L 1259.4,-55.8208 L 1258.9,-55.6875 L 1258.39,-55.607
 L 1257.88,-55.58 z
M 542.861,-55.607 L 542.352,-55.6875 L 541.855,-55.8208 L 541.374,-56.0054 L 540.915,-56.2392 L 540.483,-56.5196
 L 540.083,-56.8437 L 539.719,-57.2079 L 539.395,-57.6081 L 539.114,-58.04 L 538.88,-58.4989 L 538.696,-58.9796
 L 538.563,-59.4771 L 538.482,-59.9857 L 538.455,-60.5 L 538.482,-61.0143 L 538.563,-61.5229 L 538.696,-62.0204
 L 538.88,-62.5011 L 539.114,-62.96 L 539.395,-63.3919 L 539.719,-63.7921 L 540.083,-64.1563 L 540.483,-64.4804
 L 540.825,-64.7024 L 540.825,-74 L 540.881,-74.5302 L 541.045,-75.0372 L 541.312,-75.4988 L 541.669,-75.895
 L 542.1,-76.2084 L 542.587,-76.4252 L 543.108,-76.536 L 543.642,-76.536 L 544.163,-76.4252 L 544.65,-76.2084
 L 545.081,-75.895 L 545.438,-75.4988 L 545.705,-75.0372 L 545.869,-74.5302 L 545.925,-74 L 545.925,-64.7024
 L 546.267,-64.4804 L 546.667,-64.1563 L 547.031,-63.7921 L 547.355,-63.3919 L 547.636,-62.96 L 547.87,-62.5011
 L 548.054,-62.0204 L 548.187,-61.5229 L 548.268,-61.0143 L 548.295,-60.5 L 548.268,-59.9857 L 548.187,-59.4771
 L 548.054,-58.9796 L 547.87,-58.4989 L 547.636,-58.04 L 547.355,-57.6081 L 547.031,-57.2079 L 546.667,-56.8437
 L 546.267,-56.5196 L 545.835,-56.2392 L 545.376,-56.0054 L 544.895,-55.8208 L 544.398,-55.6875 L 543.889,-55.607
 L 543.375,-55.58 z
M 364.236,-55.607 L 363.727,-55.6875 L 363.23,-55.8208 L 362.749,-56.0054 L 362.29,-56.2392 L 361.858,-56.5196
 L 361.458,-56.8437 L 361.094,-57.2079 L 360.77,-57.6081 L 360.489,-58.04 L 360.255,-58.4989 L 360.071,-58.9796
 L 359.938,-59.4771 L 359.857,-59.9857 L 359.83,-60.5 L 359.857,-61.0143 L 359.938,-61.5229 L 360.071,-62.0204
 L 360.255,-62.5011 L 360.489,-62.96 L 360.77,-63.3919 L 361.094,-63.7921 L 361.458,-64.1563 L 361.858,-64.4804
 L 362.2,-64.7024 L 362.2,-74 L 362.256,-74.5302 L 362.42,-75.0372 L 362.687,-75.4988 L 363.044,-75.895
 L 363.475,-76.2084 L 363.962,-76.4252 L 364.483,-76.536 L 365.017,-76.536 L 365.538,-76.4252 L 366.025,-76.2084
 L 366.456,-75.895 L 366.813,-75.4988 L 367.08,-75.0372 L 367.244,-74.5302 L 367.3,-74 L 367.3,-64.7024
 L 367.642,-64.4804 L 368.042,-64.1563 L 368.406,-63.7921 L 368.73,-63.3919 L 369.011,-62.96 L 369.245,-62.5011
 L 369.429,-62.0204 L 369.562,-61.5229 L 369.643,-61.0143 L 369.67,-60.5 L 369.643,-59.9857 L 369.562,-59.4771
 L 369.429,-58.9796 L 369.245,-58.4989 L 369.011,-58.04 L 368.73,-57.6081 L 368.406,-57.2079 L 368.042,-56.8437
 L 367.642,-56.5196 L 367.21,-56.2392 L 366.751,-56.0054 L 366.27,-55.8208 L 365.773,-55.6875 L 365.264,-55.607
 L 364.75,-55.58 z
M 1435.99,-55.607 L 1435.48,-55.6875 L 1434.98,-55.8208 L 1434.5,-56.0054 L 1434.04,-56.2392 L 1433.61,-56.5196
 L 1433.21,-56.8437 L 1432.84,-57.2079 L 1432.52,-57.6081 L 1432.24,-58.04 L 1432.01,-58.4989 L 1431.82,-58.9796
 L 1431.69,-59.4771 L 1431.61,-59.9857 L 1431.58,-60.5 L 1431.61,-61.0143 L 1431.69,-61.5229 L 1431.82,-62.0204
 L 1432.01,-62.5011 L 1432.24,-62.96 L 1432.52,-63.3919 L 1432.84,-63.7921 L 1433.21,-64.1563 L 1433.61,-64.4804
 L 1433.95,-64.7024 L 1433.95,-74 L 1434.01,-74.5302 L 1434.17,-75.0372 L 1434.44,-75.4988 L 1434.79,-75.895
 L 1435.23,-76.2084 L 1435.71,-76.4252 L 1436.23,-76.536 L 1436.77,-76.536 L 1437.29,-76.4252 L 1437.77,-76.2084
 L 1438.21,-75.895 L 1438.56,-75.4988 L 1438.83,-75.0372 L 1438.99,-74.5302 L 1439.05,-74 L 1439.05,-64.7024
 L 1439.39,-64.4804 L 1439.79,-64.1563 L 1440.16,-63.7921 L 1440.48,-63.3919 L 1440.76,-62.96 L 1440.99,-62.5011
 L 1441.18,-62.0204 L 1441.31,-61.5229 L 1441.39,-61.0143 L 1441.42,-60.5 L 1441.39,-59.9857 L 1441.31,-59.4771
 L 1441.18,-58.9796 L 1440.99,-58.4989 L 1440.76,-58.04 L 1440.48,-57.6081 L 1440.16,-57.2079 L 1439.79,-56.8437
 L 1439.39,-56.5196 L 1438.96,-56.2392 L 1438.5,-56.0054 L 1438.02,-55.8208 L 1437.52,-55.6875 L 1437.01,-55.607
 L 1436.5,-55.58 z
M 351.135,-20.8895 L 350.327,-21.1037 L 263.226,-54.2617 L 262.298,-54.7639 L 261.677,-55.3235 L 261.185,-56
 L 260.845,-56.7639 L 260.671,-57.5819 L 260.671,-58.4181 L 260.845,-59.2361 L 261.185,-60 L 261.677,-60.6765
 L 262.298,-61.2361 L 263.022,-61.6542 L 263.817,-61.9126 L 264.649,-62 L 351.75,-62 L 352.986,-61.8042
 L 353.75,-61.4641 L 354.427,-60.9726 L 354.986,-60.3511 L 355.404,-59.627 L 355.663,-58.8316 L 355.75,-58
 L 355.75,-24.8419 L 355.617,-23.8174 L 355.319,-23.0359 L 354.866,-22.3333 L 354.276,-21.7403 L 353.576,-21.283
 L 352.796,-20.9811 L 351.97,-20.848 z
M 529.76,-20.8895 L 528.952,-21.1037 L 441.851,-54.2617 L 440.923,-54.7639 L 440.302,-55.3235 L 439.81,-56
 L 439.47,-56.7639 L 439.296,-57.5819 L 439.296,-58.4181 L 439.47,-59.2361 L 439.81,-60 L 440.302,-60.6765
 L 440.923,-61.2361 L 441.647,-61.6542 L 442.442,-61.9126 L 443.274,-62 L 530.375,-62 L 531.611,-61.8042
 L 532.375,-61.4641 L 533.052,-60.9726 L 533.611,-60.3511 L 534.029,-59.627 L 534.288,-58.8316 L 534.375,-58
 L 534.375,-24.8419 L 534.242,-23.8174 L 533.944,-23.0359 L 533.491,-22.3333 L 532.901,-21.7403 L 532.201,-21.283
 L 531.421,-20.9811 L 530.595,-20.848 z
M 1269.83,-20.9811 L 1269.05,-21.283 L 1268.35,-21.7403 L 1267.76,-22.3333 L 1267.31,-23.0359 L 1267.01,-23.8174
 L 1266.88,-24.8419 L 1266.88,-58 L 1266.96,-58.8316 L 1267.22,-59.627 L 1267.64,-60.3511 L 1268.2,-60.9726
 L 1268.88,-61.4641 L 1269.64,-61.8042 L 1270.88,-62 L 1357.98,-62 L 1358.81,-61.9126 L 1359.6,-61.6542
 L 1360.33,-61.2361 L 1360.95,-60.6765 L 1361.44,-60 L 1361.78,-59.2361 L 1361.95,-58.4181 L 1361.95,-57.5819
 L 1361.78,-56.7639 L 1361.44,-56 L 1360.95,-55.3235 L 1360.33,-54.7639 L 1359.4,-54.2617 L 1272.3,-21.1037
 L 1271.49,-20.8895 L 1270.65,-20.848 z
M 708.385,-20.8895 L 707.577,-21.1037 L 620.476,-54.2617 L 619.548,-54.7639 L 618.927,-55.3235 L 618.435,-56
 L 618.095,-56.7639 L 617.921,-57.5819 L 617.921,-58.4181 L 618.095,-59.2361 L 618.435,-60 L 618.927,-60.6765
 L 619.548,-61.2361 L 620.272,-61.6542 L 621.067,-61.9126 L 621.899,-62 L 709,-62 L 710.236,-61.8042
 L 711,-61.4641 L 711.677,-60.9726 L 712.236,-60.3511 L 712.654,-59.627 L 712.913,-58.8316 L 713,-58
 L 713,-24.8419 L 712.867,-23.8174 L 712.569,-23.0359 L 712.116,-22.3333 L 711.526,-21.7403 L 710.826,-21.283
 L 710.046,-20.9811 L 709.22,-20.848 z
M 172.51,-20.8895 L 171.702,-21.1037 L 84.601,-54.2617 L 83.673,-54.7639 L 83.0515,-55.3235 L 82.56,-56
 L 82.2199,-56.7639 L 82.046,-57.5819 L 82.046,-58.4181 L 82.2199,-59.2361 L 82.56,-60 L 83.0515,-60.6765
 L 83.673,-61.2361 L 84.3972,-61.6542 L 85.1925,-61.9126 L 86.0241,-62 L 173.125,-62 L 174.361,-61.8042
 L 175.125,-61.4641 L 175.802,-60.9726 L 176.361,-60.3511 L 176.779,-59.627 L 177.038,-58.8316 L 177.125,-58
 L 177.125,-24.8419 L 176.992,-23.8174 L 176.694,-23.0359 L 176.241,-22.3333 L 175.651,-21.7403 L 174.951,-21.283
 L 174.171,-20.9811 L 173.345,-20.848 z
M 733.954,-20.9811 L 733.174,-21.283 L 732.474,-21.7403 L 731.884,-22.3333 L 731.431,-23.0359 L 731.133,-23.8174
 L 731,-24.8419 L 731,-58 L 731.087,-58.8316 L 731.346,-59.627 L 731.764,-60.3511 L 732.323,-60.9726
 L 733,-61.4641 L 733.764,-61.8042 L 735,-62 L 822.101,-62 L 822.933,-61.9126 L 823.728,-61.6542
 L 824.452,-61.2361 L 825.073,-60.6765 L 825.565,-60 L 825.905,-59.2361 L 826.079,-58.4181 L 826.079,-57.5819
 L 825.905,-56.7639 L 825.565,-56 L 825.073,-55.3235 L 824.452,-54.7639 L 823.524,-54.2617 L 736.423,-21.1037
 L 735.615,-20.8895 L 734.78,-20.848 z
M 912.579,-20.9811 L 911.799,-21.283 L 911.099,-21.7403 L 910.509,-22.3333 L 910.056,-23.0359 L 909.758,-23.8174
 L 909.625,-24.8419 L 909.625,-58 L 909.712,-58.8316 L 909.971,-59.627 L 910.389,-60.3511 L 910.948,-60.9726
 L 911.625,-61.4641 L 912.389,-61.8042 L 913.625,-62 L 1000.73,-62 L 1001.56,-61.9126 L 1002.35,-61.6542
 L 1003.08,-61.2361 L 1003.7,-60.6765 L 1004.19,-60 L 1004.53,-59.2361 L 1004.7,-58.4181 L 1004.7,-57.5819
 L 1004.53,-56.7639 L 1004.19,-56 L 1003.7,-55.3235 L 1003.08,-54.7639 L 1002.15,-54.2617 L 915.048,-21.1037
 L 914.24,-20.8895 L 913.405,-20.848 z
M 1091.2,-20.9811 L 1090.42,-21.283 L 1089.72,-21.7403 L 1089.13,-22.3333 L 1088.68,-23.0359 L 1088.38,-23.8174
 L 1088.25,-24.8419 L 1088.25,-58 L 1088.34,-58.8316 L 1088.6,-59.627 L 1089.01,-60.3511 L 1089.57,-60.9726
 L 1090.25,-61.4641 L 1091.01,-61.8042 L 1092.25,-62 L 1179.35,-62 L 1180.18,-61.9126 L 1180.98,-61.6542
 L 1181.7,-61.2361 L 1182.32,-60.6765 L 1182.81,-60 L 1183.16,-59.2361 L 1183.33,-58.4181 L 1183.33,-57.5819
 L 1183.16,-56.7639 L 1182.81,-56 L 1182.32,-55.3235 L 1181.7,-54.7639 L 1180.77,-54.2617 L 1093.67,-21.1037
 L 1092.86,-20.8895 L 1092.03,-20.848 z
M 199.125,-18 L 197.889,-18.1958 L 197.125,-18.5359 L 196.448,-19.0274 L 195.889,-19.6489 L 195.471,-20.373
 L 195.212,-21.1684 L 195.125,-22 L 195.125,-55.1581 L 195.258,-56.1826 L 195.556,-56.9641 L 196.009,-57.6667
 L 196.599,-58.2596 L 197.299,-58.717 L 198.079,-59.0189 L 198.905,-59.152 L 199.74,-59.1105 L 200.548,-58.8963
 L 287.649,-25.7383 L 288.577,-25.2361 L 289.198,-24.6765 L 289.69,-24 L 290.03,-23.2361 L 290.204,-22.4181
 L 290.204,-21.5819 L 290.03,-20.7639 L 289.69,-20 L 289.198,-19.3235 L 288.577,-18.7639 L 287.853,-18.3458
 L 287.057,-18.0874 L 286.226,-18 z
M 377.75,-18 L 376.514,-18.1958 L 375.75,-18.5359 L 375.073,-19.0274 L 374.514,-19.6489 L 374.096,-20.373
 L 373.837,-21.1684 L 373.75,-22 L 373.75,-55.1581 L 373.883,-56.1826 L 374.181,-56.9641 L 374.634,-57.6667
 L 375.224,-58.2596 L 375.924,-58.717 L 376.704,-59.0189 L 377.53,-59.152 L 378.365,-59.1105 L 379.173,-58.8963
 L 466.274,-25.7383 L 467.202,-25.2361 L 467.823,-24.6765 L 468.315,-24 L 468.655,-23.2361 L 468.829,-22.4181
 L 468.829,-21.5819 L 468.655,-20.7639 L 468.315,-20 L 467.823,-19.3235 L 467.202,-18.7639 L 466.478,-18.3458
 L 465.682,-18.0874 L 464.851,-18 z
M 556.375,-18 L 555.139,-18.1958 L 554.375,-18.5359 L 553.698,-19.0274 L 553.139,-19.6489 L 552.721,-20.373
 L 552.462,-21.1684 L 552.375,-22 L 552.375,-55.1581 L 552.508,-56.1826 L 552.806,-56.9641 L 553.259,-57.6667
 L 553.849,-58.2596 L 554.549,-58.717 L 555.329,-59.0189 L 556.155,-59.152 L 556.99,-59.1105 L 557.798,-58.8963
 L 644.899,-25.7383 L 645.827,-25.2361 L 646.448,-24.6765 L 646.94,-24 L 647.28,-23.2361 L 647.454,-22.4181
 L 647.454,-21.5819 L 647.28,-20.7639 L 646.94,-20 L 646.448,-19.3235 L 645.827,-18.7639 L 645.103,-18.3458
 L 644.307,-18.0874 L 643.476,-18 z
M 800.524,-18 L 799.693,-18.0874 L 798.897,-18.3458 L 798.173,-18.7639 L 797.552,-19.3235 L 797.06,-20
 L 796.72,-20.7639 L 796.546,-21.5819 L 796.546,-22.4181 L 796.72,-23.2361 L 797.06,-24 L 797.552,-24.6765
 L 798.173,-25.2361 L 799.101,-25.7383 L 886.202,-58.8963 L 887.01,-59.1105 L 887.845,-59.152 L 888.671,-59.0189
 L 889.451,-58.717 L 890.151,-58.2596 L 890.741,-57.6667 L 891.194,-56.9641 L 891.492,-56.1826 L 891.625,-55.1581
 L 891.625,-22 L 891.538,-21.1684 L 891.279,-20.373 L 890.861,-19.6489 L 890.302,-19.0274 L 889.625,-18.5359
 L 888.861,-18.1958 L 887.625,-18 z
M 979.149,-18 L 978.318,-18.0874 L 977.522,-18.3458 L 976.798,-18.7639 L 976.177,-19.3235 L 975.685,-20
 L 975.345,-20.7639 L 975.171,-21.5819 L 975.171,-22.4181 L 975.345,-23.2361 L 975.685,-24 L 976.177,-24.6765
 L 976.798,-25.2361 L 977.726,-25.7383 L 1064.83,-58.8963 L 1065.64,-59.1105 L 1066.47,-59.152 L 1067.3,-59.0189
 L 1068.08,-58.717 L 1068.78,-58.2596 L 1069.37,-57.6667 L 1069.82,-56.9641 L 1070.12,-56.1826 L 1070.25,-55.1581
 L 1070.25,-22 L 1070.16,-21.1684 L 1069.9,-20.373 L 1069.49,-19.6489 L 1068.93,-19.0274 L 1068.25,-18.5359
 L 1067.49,-18.1958 L 1066.25,-18 z
M 1157.77,-18 L 1156.94,-18.0874 L 1156.15,-18.3458 L 1155.42,-18.7639 L 1154.8,-19.3235 L 1154.31,-20
 L 1153.97,-20.7639 L 1153.8,-21.5819 L 1153.8,-22.4181 L 1153.97,-23.2361 L 1154.31,-24 L 1154.8,-24.6765
 L 1155.42,-25.2361 L 1156.35,-25.7383 L 1243.45,-58.8963 L 1244.26,-59.1105 L 1245.1,-59.152 L 1245.92,-59.0189
 L 1246.7,-58.717 L 1247.4,-58.2596 L 1247.99,-57.6667 L 1248.44,-56.9641 L 1248.74,-56.1826 L 1248.88,-55.1581
 L 1248.88,-22 L 1248.79,-21.1684 L 1248.53,-20.373 L 1248.11,-19.6489 L 1247.55,-19.0274 L 1246.88,-18.5359
 L 1246.11,-18.1958 L 1244.88,-18 z
M 1336.4,-18 L 1335.57,-18.0874 L 1334.77,-18.3458 L 1334.05,-18.7639 L 1333.43,-19.3235 L 1332.94,-20
 L 1332.59,-20.7639 L 1332.42,-21.5819 L 1332.42,-22.4181 L 1332.59,-23.2361 L 1332.94,-24 L 1333.43,-24.6765
 L 1334.05,-25.2361 L 1334.98,-25.7383 L 1420.58,-58.3253 L 1421.39,-58.5395 L 1422.22,-58.5809 L 1423.05,-58.4478
 L 1423.83,-58.146 L 1424.53,-57.6886 L 1425.12,-57.0957 L 1425.57,-56.3931 L 1425.87,-55.6116 L 1426,-54.587
 L 1426,-22 L 1425.91,-21.1684 L 1425.65,-20.373 L 1425.24,-19.6489 L 1424.68,-19.0274 L 1424,-18.5359
 L 1423.24,-18.1958 L 1422,-18 z
M 22,-18 L 20.7639,-18.1958 L 20,-18.5359 L 19.3235,-19.0274 L 18.7639,-19.6489 L 18.3458,-20.373
 L 18.0874,-21.1684 L 18,-22 L 18,-54.587 L 18.1334,-55.6116 L 18.431,-56.3931 L 18.8844,-57.0957
 L 19.4741,-57.6886 L 20.1742,-58.146 L 20.954,-58.4478 L 21.7796,-58.5809 L 22.6148,-58.5395 L 23.4231,-58.3253
 L 109.024,-25.7383 L 109.952,-25.2361 L 110.573,-24.6765 L 111.065,-24 L 111.405,-23.2361 L 111.579,-22.4181
 L 111.579,-21.5819 L 111.405,-20.7639 L 111.065,-20 L 110.573,-19.3235 L 109.952,-18.7639 L 109.228,-18.3458
 L 108.432,-18.0874 L 107.601,-18 z
" stroke="black" fill="lightgray" stroke-width="0.5"/>
</svg>
