<?xml version="1.0" standalone="no"?>
<!DOCTYPE svg PUBLIC "-//W3C//DTD SVG 1.1//EN" "http://www.w3.org/Graphics/SVG/1.1/DTD/svg11.dtd">
<svg width="1693mm" height="80mm" viewBox="0 -80 1693 80" xmlns="http://www.w3.org/2000/svg" version="1.1">
<title>OpenSCAD Model</title>
<path d="
M 1693,-80 L 0,-80 L 0,-0 L 4.95,-0 L 4.95,-6 L 5.00572,-6.53017
 L 5.17046,-7.03717 L 5.437,-7.49884 L 5.79372,-7.895 L 6.22499,-8.20836 L 6.71201,-8.42519 L 7.23344,-8.53603
 L 7.76654,-8.53603 L 8.28798,-8.42519 L 8.77499,-8.20836 L 9.20627,-7.895 L 9.56299,-7.49884 L 9.82953,-7.03717
 L 9.99426,-6.53017 L 10.05,-6 L 10.05,-0 L 191.394,-0 L 191.394,-6 L 191.45,-6.53017
 L 191.615,-7.03717 L 191.881,-7.49884 L 192.238,-7.895 L 192.669,-8.20836 L 193.156,-8.42519 L 193.678,-8.53603
 L 194.211,-8.53603 L 194.732,-8.42519 L 195.219,-8.20836 L 195.651,-7.895 L 196.007,-7.49884 L 196.274,-7.03717
 L 196.439,-6.53017 L 196.494,-6 L 196.494,-0 L 377.839,-0 L 377.839,-6 L 377.895,-6.53017
 L 378.059,-7.03717 L 378.326,-7.49884 L 378.683,-7.895 L 379.114,-8.20836 L 379.601,-8.42519 L 380.122,-8.53603
 L 380.655,-8.53603 L 381.177,-8.42519 L 381.664,-8.20836 L 382.095,-7.895 L 382.452,-7.49884 L 382.718,-7.03717
 L 382.883,-6.53017 L 382.939,-6 L 382.939,-0 L 564.283,-0 L 564.283,-6 L 564.339,-6.53017
 L 564.504,-7.03717 L 564.77,-7.49884 L 565.127,-7.895 L 565.558,-8.20836 L 566.045,-8.42519 L 566.567,-8.53603
 L 567.1,-8.53603 L 567.621,-8.42519 L 568.108,-8.20836 L 568.54,-7.895 L 568.896,-7.49884 L 569.163,-7.03717
 L 569.328,-6.53017 L 569.383,-6 L 569.383,-0 L 750.728,-0 L 750.728,-6 L 750.783,-6.53017
 L 750.948,-7.03717 L 751.215,-7.49884 L 751.571,-7.895 L 752.003,-8.20836 L 752.49,-8.42519 L 753.011,-8.53603
 L 753.544,-8.53603 L 754.066,-8.42519 L 754.553,-8.20836 L 754.984,-7.895 L 755.341,-7.49884 L 755.607,-7.03717
 L 755.772,-6.53017 L 755.828,-6 L 755.828,-0 L 937.172,-0 L 937.172,-6 L 937.228,-6.53017
 L 937.393,-7.03717 L 937.659,-7.49884 L 938.016,-7.895 L 938.447,-8.20836 L 938.934,-8.42519 L 939.456,-8.53603
 L 939.989,-8.53603 L 940.51,-8.42519 L 940.997,-8.20836 L 941.428,-7.895 L 941.785,-7.49884 L 942.052,-7.03717
 L 942.216,-6.53017 L 942.272,-6 L 942.272,-0 L 1123.62,-0 L 1123.62,-6 L 1123.67,-6.53017
 L 1123.84,-7.03717 L 1124.1,-7.49884 L 1124.46,-7.895 L 1124.89,-8.20836 L 1125.38,-8.42519 L 1125.9,-8.53603
 L 1126.43,-8.53603 L 1126.95,-8.42519 L 1127.44,-8.20836 L 1127.87,-7.895 L 1128.23,-7.49884 L 1128.5,-7.03717
 L 1128.66,-6.53017 L 1128.72,-6 L 1128.72,-0 L 1310.06,-0 L 1310.06,-6 L 1310.12,-6.53017
 L 1310.28,-7.03717 L 1310.55,-7.49884 L 1310.9,-7.895 L 1311.34,-8.20836 L 1311.82,-8.42519 L 1312.34,-8.53603
 L 1312.88,-8.53603 L 1313.4,-8.42519 L 1313.89,-8.20836 L 1314.32,-7.895 L 1314.67,-7.49884 L 1314.94,-7.03717
 L 1315.11,-6.53017 L 1315.16,-6 L 1315.16,-0 L 1496.51,-0 L 1496.51,-6 L 1496.56,-6.53017
 L 1496.73,-7.03717 L 1496.99,-7.49884 L 1497.35,-7.895 L 1497.78,-8.20836 L 1498.27,-8.42519 L 1498.79,-8.53603
 L 1499.32,-8.53603 L 1499.84,-8.42519 L 1500.33,-8.20836 L 1500.76,-7.895 L 1501.12,-7.49884 L 1501.39,-7.03717
 L 1501.55,-6.53017 L 1501.61,-6 L 1501.61,-0 L 1682.95,-0 L 1682.95,-6 L 1683.01,-6.53017
 L 1683.17,-7.03717 L 1683.44,-7.49884 L 1683.79,-7.895 L 1684.22,-8.20836 L 1684.71,-8.42519 L 1685.23,-8.53603
 L 1685.77,-8.53603 L 1686.29,-8.42519 L 1686.77,-8.20836 L 1687.21,-7.895 L 1687.56,-7.49884 L 1687.83,-7.03717
 L 1687.99,-6.53017 L 1688.05,-6 L 1688.05,-0 L 1693,-0 z
M 6.98573,-55.607 L 6.47708,-55.6875 L 5.97964,-55.8208 L 5.49887,-56.0054 L 5.04001,-56.2392 L 4.60811,-56.5196
 L 4.20789,-56.8437 L 3.84373,-57.2079 L 3.51964,-57.6081 L 3.23917,-58.04 L 3.00537,-58.4989 L 2.82082,-58.9796
 L 2.68752,-59.4771 L 2.60696,-59.9857 L 2.58,-60.5 L 2.60696,-61.0143 L 2.68752,-61.5229 L 2.82082,-62.0204
 L 3.00537,-62.5011 L 3.23917,-62.96 L 3.51964,-63.3919 L 3.84373,-63.7921 L 4.20789,-64.1563 L 4.60811,-64.4804
 L 4.95001,-64.7024 L 4.95001,-74 L 5.00574,-74.5302 L 5.17047,-75.0372 L 5.43701,-75.4988 L 5.79373,-75.895
 L 6.22501,-76.2084 L 6.71202,-76.4252 L 7.23346,-76.536 L 7.76654,-76.536 L 8.28798,-76.4252 L 8.77499,-76.2084
 L 9.20627,-75.895 L 9.56299,-75.4988 L 9.82953,-75.0372 L 9.99426,-74.5302 L 10.05,-74 L 10.05,-64.7024
 L 10.3919,-64.4804 L 10.7921,-64.1563 L 11.1563,-63.7921 L 11.4804,-63.3919 L 11.7608,-62.96 L 11.9946,-62.5011
 L 12.1792,-62.0204 L 12.3125,-61.5229 L 12.393,-61.0143 L 12.42,-60.5 L 12.393,-59.9857 L 12.3125,-59.4771
 L 12.1792,-58.9796 L 11.9946,-58.4989 L 11.7608,-58.04 L 11.4804,-57.6081 L 11.1563,-57.2079 L 10.7921,-56.8437
 L 10.3919,-56.5196 L 9.95999,-56.2392 L 9.50113,-56.0054 L 9.02036,-55.8208 L 8.52292,-55.6875 L 8.01427,-55.607
 L 7.5,-55.58 z
M 1125.65,-55.607 L 1125.14,-55.6875 L 1124.65,-55.8208 L 1124.17,-56.0054 L 1123.71,-56.2392 L 1123.27,-56.5196
 L 1122.87,-56.8437 L 1122.51,-57.2079 L 1122.19,-57.6081 L 1121.91,-58.04 L 1121.67,-58.4989 L 1121.49,-58.9796
 L 1121.35,-59.4771 L 1121.27,-59.9857 L 1121.25,-60.5 L 1121.27,-61.0143 L 1121.35,-61.5229 L 1121.49,-62.0204
 L 1121.67,-62.5011 L 1121.91,-62.96 L 1122.19,-63.3919 L 1122.51,-63.7921 L 1122.87,-64.1563 L 1123.27,-64.4804
 L 1123.62,-64.7024 L 1123.62,-74 L 1123.67,-74.5302 L 1123.84,-75.0372 L 1124.1,-75.4988 L 1124.46,-75.895
 L 1124.89,-76.2084 L 1125.38,-76.4252 L 1125.9,-76.536 L 1126.43,-76.536 L 1126.95,-76.4252 L 1127.44,-76.2084
 L 1127.87,-75.895 L 1128.23,-75.4988 L 1128.5,-75.0372 L 1128.66,-74.5302 L 1128.72,-74 L 1128.72,-64.7024
 L 1129.06,-64.4804 L 1129.46,-64.1563 L 1129.82,-63.7921 L 1130.15,-63.3919 L 1130.43,-62.96 L 1130.66,-62.5011
 L 1130.85,-62.0204 L 1130.98,-61.5229 L 1131.06,-61.0143 L 1131.09,-60.5 L 1131.06,-59.9857 L 1130.98,-59.4771
 L 1130.85,-58.9796 L 1130.66,-58.4989 L 1130.43,-58.04 L 1130.15,-57.6081 L 1129.82,-57.2079 L 1129.46,-56.8437
 L 1129.06,-56.5196 L 1128.63,-56.2392 L 1128.17,-56.0054 L 1127.69,-55.8208 L 1127.19,-55.6875 L 1126.68,-55.607
 L 1126.17,-55.58 z
M 1312.1,-55.607 L 1311.59,-55.6875 L 1311.09,-55.8208 L 1310.61,-56.0054 L 1310.15,-56.2392 L 1309.72,-56.5196
 L 1309.32,-56.8437 L 1308.95,-57.2079 L 1308.63,-57.6081 L 1308.35,-58.04 L 1308.12,-58.4989 L 1307.93,-58.9796
 L 1307.8,-59.4771 L 1307.72,-59.9857 L 1307.69,-60.5 L 1307.72,-61.0143 L 1307.8,-61.5229 L 1307.93,-62.0204
 L 1308.12,-62.5011 L 1308.35,-62.96 L 1308.63,-63.3919 L 1308.95,-63.7921 L 1309.32,-64.1563 L 1309.72,-64.4804
 L 1310.06,-64.7024 L 1310.06,-74 L 1310.12,-74.5302 L 1310.28,-75.0372 L 1310.55,-75.4988 L 1310.9,-75.895
 L 1311.34,-76.2084 L 1311.82,-76.4252 L 1312.34,-76.536 L 1312.88,-76.536 L 1313.4,-76.4252 L 1313.89,-76.2084
 L 1314.32,-75.895 L 1314.67,-75.4988 L 1314.94,-75.0372 L 1315.11,-74.5302 L 1315.16,-74 L 1315.16,-64.7024
 L 1315.5,-64.4804 L 1315.9,-64.1563 L 1316.27,-63.7921 L 1316.59,-63.3919 L 1316.87,-62.96 L 1317.11,-62.5011
 L 1317.29,-62.0204 L 1317.42,-61.5229 L 1317.5,-61.0143 L 1317.53,-60.5 L 1317.5,-59.9857 L 1317.42,-59.4771
 L 1317.29,-58.9796 L 1317.11,-58.4989 L 1316.87,-58.04 L 1316.59,-57.6081 L 1316.27,-57.2079 L 1315.9,-56.8437
 L 1315.5,-56.5196 L 1315.07,-56.2392 L 1314.61,-56.0054 L 1314.13,-55.8208 L 1313.63,-55.6875 L 1313.13,-55.607
 L 1312.61,-55.58 z
M 939.208,-55.607 L 938.699,-55.6875 L 938.202,-55.8208 L 937.721,-56.0054 L 937.262,-56.2392 L 936.83,-56.5196
 L 936.43,-56.8437 L 936.066,-57.2079 L 935.742,-57.6081 L 935.461,-58.04 L 935.228,-58.4989 L 935.043,-58.9796
 L 934.91,-59.4771 L 934.829,-59.9857 L 934.802,-60.5 L 934.829,-61.0143 L 934.91,-61.5229 L 935.043,-62.0204
 L 935.228,-62.5011 L 935.461,-62.96 L 935.742,-63.3919 L 936.066,-63.7921 L 936.43,-64.1563 L 936.83,-64.4804
 L 937.172,-64.7024 L 937.172,-74 L 937.228,-74.5302 L 937.393,-75.0372 L 937.659,-75.4988 L 938.016,-75.895
 L 938.447,-76.2084 L 938.934,-76.4252 L 939.456,-76.536 L 939.989,-76.536 L 940.51,-76.4252 L 940.997,-76.2084
 L 941.428,-75.895 L 941.785,-75.4988 L 942.052,-75.0372 L 942.216,-74.5302 L 942.272,-74 L 942.272,-64.7024
 L 942.614,-64.4804 L 943.014,-64.1563 L 943.378,-63.7921 L 943.703,-63.3919 L 943.983,-62.96 L 944.217,-62.5011
 L 944.401,-62.0204 L 944.535,-61.5229 L 944.615,-61.0143 L 944.642,-60.5 L 944.615,-59.9857 L 944.535,-59.4771
 L 944.401,-58.9796 L 944.217,-58.4989 L 943.983,-58.04 L 943.703,-57.6081 L 943.378,-57.2079 L 943.014,-56.8437
 L 942.614,-56.5196 L 942.182,-56.2392 L 941.723,-56.0054 L 941.243,-55.8208 L 940.745,-55.6875 L 940.236,-55.607
 L 939.722,-55.58 z
M 752.764,-55.607 L 752.255,-55.6875 L 751.757,-55.8208 L 751.277,-56.0054 L 750.818,-56.2392 L 750.386,-56.5196
 L 749.986,-56.8437 L 749.622,-57.2079 L 749.297,-57.6081 L 749.017,-58.04 L 748.783,-58.4989 L 748.599,-58.9796
 L 748.465,-59.4771 L 748.385,-59.9857 L 748.358,-60.5 L 748.385,-61.0143 L 748.465,-61.5229 L 748.599,-62.0204
 L 748.783,-62.5011 L 749.017,-62.96 L 749.297,-63.3919 L 749.622,-63.7921 L 749.986,-64.1563 L 750.386,-64.4804
 L 750.728,-64.7024 L 750.728,-74 L 750.784,-74.5302 L 750.948,-75.0372 L 751.215,-75.4988 L 751.572,-75.895
 L 752.003,-76.2084 L 752.49,-76.4252 L 753.011,-76.536 L 753.544,-76.536 L 754.066,-76.4252 L 754.553,-76.2084
 L 754.984,-75.895 L 755.341,-75.4988 L 755.607,-75.0372 L 755.772,-74.5302 L 755.828,-74 L 755.828,-64.7024
 L 756.17,-64.4804 L 756.57,-64.1563 L 756.934,-63.7921 L 757.258,-63.3919 L 757.539,-62.96 L 757.772,-62.5011
 L 757.957,-62.0204 L 758.09,-61.5229 L 758.171,-61.0143 L 758.198,-60.5 L 758.171,-59.9857 L 758.09,-59.4771
 L 757.957,-58.9796 L 757.772,-58.4989 L 757.539,-58.04 L 757.258,-57.6081 L 756.934,-57.2079 L 756.57,-56.8437
 L 756.17,-56.5196 L 755.738,-56.2392 L 755.279,-56.0054 L 754.798,-55.8208 L 754.301,-55.6875 L 753.792,-55.607
 L 753.278,-55.58 z
M 1498.54,-55.607 L 1498.03,-55.6875 L 1497.54,-55.8208 L 1497.05,-56.0054 L 1496.6,-56.2392 L 1496.16,-56.5196
 L 1495.76,-56.8437 L 1495.4,-57.2079 L 1495.08,-57.6081 L 1494.79,-58.04 L 1494.56,-58.4989 L 1494.38,-58.9796
 L 1494.24,-59.4771 L 1494.16,-59.9857 L 1494.14,-60.5 L 1494.16,-61.0143 L 1494.24,-61.5229 L 1494.38,-62.0204
 L 1494.56,-62.5011 L 1494.79,-62.96 L 1495.08,-63.3919 L 1495.4,-63.7921 L 1495.76,-64.1563 L 1496.16,-64.4804
 L 1496.51,-64.7024 L 1496.51,-74 L 1496.56,-74.5302 L 1496.73,-75.0372 L 1496.99,-75.4988 L 1497.35,-75.895
 L 1497.78,-76.2084 L 1498.27,-76.4252 L 1498.79,-76.536 L 1499.32,-76.536 L 1499.84,-76.4252 L 1500.33,-76.2084
 L 1500.76,-75.895 L 1501.12,-75.4988 L 1501.39,-75.0372 L 1501.55,-74.5302 L 1501.61,-74 L 1501.61,-64.7024
 L 1501.95,-64.4804 L 1502.35,-64.1563 L 1502.71,-63.7921 L 1503.04,-63.3919 L 1503.32,-62.96 L 1503.55,-62.5011
 L 1503.73,-62.0204 L 1503.87,-61.5229 L 1503.95,-61.0143 L 1503.98,-60.5 L 1503.95,-59.9857 L 1503.87,-59.4771
 L 1503.73,-58.9796 L 1503.55,-58.4989 L 1503.32,-58.04 L 1503.04,-57.6081 L 1502.71,-57.2079 L 1502.35,-56.8437
 L 1501.95,-56.5196 L 1501.52,-56.2392 L 1501.06,-56.0054 L 1500.58,-55.8208 L 1500.08,-55.6875 L 1499.57,-55.607
 L 1499.06,-55.58 z
M 566.319,-55.607 L 565.81,-55.6875 L 565.313,-55.8208 L 564.832,-56.0054 L 564.373,-56.2392 L 563.941,-56.5196
 L 563.541,-56.8437 L 563.177,-57.2079 L 562.853,-57.6081 L 562.572,-58.04 L 562.339,-58.4989 L 562.154,-58.9796
 L 562.021,-59.4771 L 561.94,-59.9857 L 561.913,-60.5 L 561.94,-61.0143 L 562.021,-61.5229 L 562.154,-62.0204
 L 562.339,-62.5011 L 562.572,-62.96 L 562.853,-63.3919 L 563.177,-63.7921 L 563.541,-64.1563 L 563.941,-64.4804
 L 564.283,-64.7024 L 564.283,-74 L 564.339,-74.5302 L 564.504,-75.0372 L 564.77,-75.4988 L 565.127,-75.895
 L 565.558,-76.2084 L 566.045,-76.4252 L 566.567,-76.536 L 567.1,-76.536 L 567.621,-76.4252 L 568.108,-76.2084
 L 568.54,-75.895 L 568.896,-75.4988 L 569.163,-75.0372 L 569.328,-74.5302 L 569.383,-74 L 569.383,-64.7024
 L 569.725,-64.4804 L 570.125,-64.1563 L 570.49,-63.7921 L 570.814,-63.3919 L 571.094,-62.96 L 571.328,-62.5011
 L 571.513,-62.0204 L 571.646,-61.5229 L 571.726,-61.0143 L 571.753,-60.5 L 571.726,-59.9857 L 571.646,-59.4771
 L 571.513,-58.9796 L 571.328,-58.4989 L 571.094,-58.04 L 570.814,-57.6081 L 570.49,-57.2079 L 570.125,-56.8437
 L 569.725,-56.5196 L 569.293,-56.2392 L 568.834,-56.0054 L 568.354,-55.8208 L 567.856,-55.6875 L 567.348,-55.607
 L 566.833,-55.58 z
M 379.875,-55.607 L 379.366,-55.6875 L 378.869,-55.8208 L 378.388,-56.0054 L 377.929,-56.2392 L 377.497,-56.5196
 L 377.097,-56.8437 L 376.733,-57.2079 L 376.409,-57.6081 L 376.128,-58.04 L 375.894,-58.4989 L 375.71,-58.9796
 L 375.576,-59.4771 L 375.496,-59.9857 L 375.469,-60.5 L 375.496,-61.0143 L 375.576,-61.5229 L 375.71,-62.0204
 L 375.894,-62.5011 L 376.128,-62.96 L 376.409,-63.3919 L 376.733,-63.7921 L 377.097,-64.1563 L 377.497,-64.4804
 L 377.839,-64.7024 L 377.839,-74 L 377.895,-74.5302 L 378.059,-75.0372 L 378.326,-75.4988 L 378.683,-75.895
 L 379.114,-76.2084 L 379.601,-76.4252 L 380.122,-76.536 L 380.655,-76.536 L 381.177,-76.4252 L 381.664,-76.2084
 L 382.095,-75.895 L 382.452,-75.4988 L 382.718,-75.0372 L 382.883,-74.5302 L 382.939,-74 L 382.939,-64.7024
 L 383.281,-64.4804 L 383.681,-64.1563 L 384.045,-63.7921 L 384.369,-63.3919 L 384.65,-62.96 L 384.884,-62.5011
 L 385.068,-62.0204 L 385.201,-61.5229 L 385.282,-61.0143 L 385.309,-60.5 L 385.282,-59.9857 L 385.201,-59.4771
 L 385.068,-58.9796 L 384.884,-58.4989 L 384.65,-58.04 L 384.369,-57.6081 L 384.045,-57.2079 L 383.681,-56.8437
 L 383.281,-56.5196 L 382.849,-56.2392 L 382.39,-56.0054 L 381.909,-55.8208 L 381.412,-55.6875 L 380.903,-55.607
 L 380.389,-55.58 z
M 1684.99,-55.607 L 1684.48,-55.6875 L 1683.98,-55.8208 L 1683.5,-56.0054 L 1683.04,-56.2392 L 1682.61,-56.5196
 L 1682.21,-56.8437 L 1681.84,-57.2079 L 1681.52,-57.6081 L 1681.24,-58.04 L 1681.01,-58.4989 L 1680.82,-58.9796
 L 1680.69,-59.4771 L 1680.61,-59.9857 L 1680.58,-60.5 L 1680.61,-61.0143 L 1680.69,-61.5229 L 1680.82,-62.0204
 L 1681.01,-62.5011 L 1681.24,-62.96 L 1681.52,-63.3919 L 1681.84,-63.7921 L 1682.21,-64.1563 L 1682.61,-64.4804
 L 1682.95,-64.7024 L 1682.95,-74 L 1683.01,-74.5302 L 1683.17,-75.0372 L 1683.44,-75.4988 L 1683.79,-75.895
 L 1684.23,-76.2084 L 1684.71,-76.4252 L 1685.23,-76.536 L 1685.77,-76.536 L 1686.29,-76.4252 L 1686.77,-76.2084
 L 1687.21,-75.895 L 1687.56,-75.4988 L 1687.83,-75.0372 L 1687.99,-74.5302 L 1688.05,-74 L 1688.05,-64.7024
 L 1688.39,-64.4804 L 1688.79,-64.1563 L 1689.16,-63.7921 L 1689.48,-63.3919 L 1689.76,-62.96 L 1689.99,-62.5011
 L 1690.18,-62.0204 L 1690.31,-61.5229 L 1690.39,-61.0143 L 1690.42,-60.5 L 1690.39,-59.9857 L 1690.31,-59.4771
 L 1690.18,-58.9796 L 1689.99,-58.4989 L 1689.76,-58.04 L 1689.48,-57.6081 L 1689.16,-57.2079 L 1688.79,-56.8437
 L 1688.39,-56.5196 L 1687.96,-56.2392 L 1687.5,-56.0054 L 1687.02,-55.8208 L 1686.52,-55.6875 L 1686.01,-55.607
 L 1685.5,-55.58 z
M 193.43,-55.607 L 192.922,-55.6875 L 192.424,-55.8208 L 191.943,-56.0054 L 191.484,-56.2392 L 191.053,-56.5196
 L 190.652,-56.8437 L 190.288,-57.2079 L 189.964,-57.6081 L 189.684,-58.04 L 189.45,-58.4989 L 189.265,-58.9796
 L 189.132,-59.4771 L 189.051,-59.9857 L 189.024,-60.5 L 189.051,-61.0143 L 189.132,-61.5229 L 189.265,-62.0204
 L 189.45,-62.5011 L 189.684,-62.96 L 189.964,-63.3919 L 190.288,-63.7921 L 190.652,-64.1563 L 191.053,-64.4804
 L 191.394,-64.7024 L 191.394,-74 L 191.45,-74.5302 L 191.615,-75.0372 L 191.881,-75.4988 L 192.238,-75.895
 L 192.669,-76.2084 L 193.156,-76.4252 L 193.678,-76.536 L 194.211,-76.536 L 194.732,-76.4252 L 195.219,-76.2084
 L 195.651,-75.895 L 196.007,-75.4988 L 196.274,-75.0372 L 196.439,-74.5302 L 196.494,-74 L 196.494,-64.7024
 L 196.836,-64.4804 L 197.237,-64.1563 L 197.601,-63.7921 L 197.925,-63.3919 L 198.205,-62.96 L 198.439,-62.5011
 L 198.624,-62.0204 L 198.757,-61.5229 L 198.837,-61.0143 L 198.864,-60.5 L 198.837,-59.9857 L 198.757,-59.4771
 L 198.624,-58.9796 L 198.439,-58.4989 L 198.205,-58.04 L 197.925,-57.6081 L 197.601,-57.2079 L 197.237,-56.8437
 L 196.836,-56.5196 L 196.404,-56.2392 L 195.946,-56.0054 L 195.465,-55.8208 L 194.967,-55.6875 L 194.459,-55.607
 L 193.944,-55.58 z
M 1138.07,-20.7245 L 1137.29,-21.0372 L 1136.6,-21.5044 L 1136.02,-22.1055 L 1135.57,-22.8144 L 1135.29,-23.6
 L 1135.17,-24.5702 L 1135.17,-58 L 1135.25,-58.8316 L 1135.51,-59.627 L 1135.93,-60.3511 L 1136.49,-60.9726
 L 1137.17,-61.4641 L 1137.93,-61.8042 L 1139.17,-62 L 1230.83,-62 L 1231.66,-61.9126 L 1232.45,-61.6542
 L 1233.18,-61.2361 L 1233.8,-60.6765 L 1234.29,-60 L 1234.63,-59.2361 L 1234.8,-58.4181 L 1234.8,-57.5819
 L 1234.63,-56.7639 L 1234.29,-56 L 1233.8,-55.3235 L 1233.18,-54.7639 L 1232.2,-54.2421 L 1140.54,-20.8124
 L 1139.73,-20.6095 L 1138.89,-20.5798 z
M 951.622,-20.7245 L 950.847,-21.0372 L 950.153,-21.5044 L 949.572,-22.1055 L 949.128,-22.8144 L 948.842,-23.6
 L 948.722,-24.5702 L 948.722,-58 L 948.81,-58.8316 L 949.068,-59.627 L 949.486,-60.3511 L 950.046,-60.9726
 L 950.722,-61.4641 L 951.486,-61.8042 L 952.722,-62 L 1044.38,-62 L 1045.21,-61.9126 L 1046.01,-61.6542
 L 1046.73,-61.2361 L 1047.35,-60.6765 L 1047.85,-60 L 1048.19,-59.2361 L 1048.36,-58.4181 L 1048.36,-57.5819
 L 1048.19,-56.7639 L 1047.85,-56 L 1047.35,-55.3235 L 1046.73,-54.7639 L 1045.75,-54.2421 L 954.093,-20.8124
 L 953.282,-20.6095 L 952.446,-20.5798 z
M 845.941,-47.7407 L 845.129,-47.9435 L 827.86,-54.2421 L 826.879,-54.7639 L 826.258,-55.3235 L 825.766,-56
 L 825.426,-56.7639 L 825.252,-57.5819 L 825.252,-58.4181 L 825.426,-59.2361 L 825.766,-60 L 826.258,-60.6765
 L 826.879,-61.2361 L 827.603,-61.6542 L 828.399,-61.9126 L 829.23,-62 L 863.77,-62 L 864.87,-61.8458
 L 865.645,-61.533 L 866.339,-61.0659 L 866.92,-60.4647 L 867.364,-59.7559 L 867.65,-58.9703 L 867.767,-58.1422
 L 867.709,-57.308 L 867.48,-56.504 L 867.087,-55.7654 L 866.55,-55.1245 L 865.892,-54.6092 L 865.14,-54.2421
 L 847.871,-47.9435 L 846.776,-47.7109 z
M 739.718,-20.6095 L 738.907,-20.8124 L 647.248,-54.2421 L 646.268,-54.7639 L 645.646,-55.3235 L 645.155,-56
 L 644.815,-56.7639 L 644.641,-57.5819 L 644.641,-58.4181 L 644.815,-59.2361 L 645.155,-60 L 645.646,-60.6765
 L 646.268,-61.2361 L 646.992,-61.6542 L 647.787,-61.9126 L 648.619,-62 L 740.278,-62 L 741.514,-61.8042
 L 742.278,-61.4641 L 742.954,-60.9726 L 743.514,-60.3511 L 743.932,-59.627 L 744.19,-58.8316 L 744.278,-58
 L 744.278,-24.5702 L 744.158,-23.6 L 743.872,-22.8144 L 743.428,-22.1055 L 742.847,-21.5044 L 742.153,-21.0372
 L 741.378,-20.7245 L 740.554,-20.5798 z
M 553.274,-20.6095 L 552.463,-20.8124 L 460.804,-54.2421 L 459.823,-54.7639 L 459.202,-55.3235 L 458.711,-56
 L 458.37,-56.7639 L 458.197,-57.5819 L 458.197,-58.4181 L 458.37,-59.2361 L 458.711,-60 L 459.202,-60.6765
 L 459.823,-61.2361 L 460.548,-61.6542 L 461.343,-61.9126 L 462.175,-62 L 553.833,-62 L 555.069,-61.8042
 L 555.833,-61.4641 L 556.51,-60.9726 L 557.069,-60.3511 L 557.488,-59.627 L 557.746,-58.8316 L 557.833,-58
 L 557.833,-24.5702 L 557.714,-23.6 L 557.427,-22.8144 L 556.984,-22.1055 L 556.402,-21.5044 L 555.709,-21.0372
 L 554.933,-20.7245 L 554.11,-20.5798 z
M 366.83,-20.6095 L 366.018,-20.8124 L 274.36,-54.2421 L 273.379,-54.7639 L 272.758,-55.3235 L 272.266,-56
 L 271.926,-56.7639 L 271.752,-57.5819 L 271.752,-58.4181 L 271.926,-59.2361 L 272.266,-60 L 272.758,-60.6765
 L 273.379,-61.2361 L 274.103,-61.6542 L 274.899,-61.9126 L 275.73,-62 L 367.389,-62 L 368.625,-61.8042
 L 369.389,-61.4641 L 370.065,-60.9726 L 370.625,-60.3511 L 371.043,-59.627 L 371.301,-58.8316 L 371.389,-58
 L 371.389,-24.5702 L 371.269,-23.6 L 370.983,-22.8144 L 370.539,-22.1055 L 369.958,-21.5044 L 369.264,-21.0372
 L 368.489,-20.7245 L 367.665,-20.5798 z
M 1510.96,-20.7245 L 1510.18,-21.0372 L 1509.49,-21.5044 L 1508.91,-22.1055 L 1508.46,-22.8144 L 1508.18,-23.6
 L 1508.06,-24.5702 L 1508.06,-58 L 1508.14,-58.8316 L 1508.4,-59.627 L 1508.82,-60.3511 L 1509.38,-60.9726
 L 1510.06,-61.4641 L 1510.82,-61.8042 L 1512.06,-62 L 1603.71,-62 L 1604.55,-61.9126 L 1605.34,-61.6542
 L 1606.07,-61.2361 L 1606.69,-60.6765 L 1607.18,-60 L 1607.52,-59.2361 L 1607.69,-58.4181 L 1607.69,-57.5819
 L 1607.52,-56.7639 L 1607.18,-56 L 1606.69,-55.3235 L 1606.07,-54.7639 L 1605.08,-54.2421 L 1513.43,-20.8124
 L 1512.61,-20.6095 L 1511.78,-20.5798 z
M 180.385,-20.6095 L 179.574,-20.8124 L 87.9151,-54.2421 L 86.9346,-54.7639 L 86.3131,-55.3235 L 85.8216,-56
 L 85.4815,-56.7639 L 85.3076,-57.5819 L 85.3076,-58.4181 L 85.4815,-59.2361 L 85.8216,-60 L 86.3131,-60.6765
 L 86.9346,-61.2361 L 87.6588,-61.6542 L 88.4541,-61.9126 L 89.2857,-62 L 180.944,-62 L 182.181,-61.8042
 L 182.944,-61.4641 L 183.621,-60.9726 L 184.181,-60.3511 L 184.599,-59.627 L 184.857,-58.8316 L 184.944,-58
 L 184.944,-24.5702 L 184.825,-23.6 L 184.538,-22.8144 L 184.095,-22.1055 L 183.514,-21.5044 L 182.82,-21.0372
 L 182.044,-20.7245 L 181.221,-20.5798 z
M 1324.51,-20.7245 L 1323.74,-21.0372 L 1323.04,-21.5044 L 1322.46,-22.1055 L 1322.02,-22.8144 L 1321.73,-23.6
 L 1321.61,-24.5702 L 1321.61,-58 L 1321.7,-58.8316 L 1321.96,-59.627 L 1322.38,-60.3511 L 1322.93,-60.9726
 L 1323.61,-61.4641 L 1324.38,-61.8042 L 1325.61,-62 L 1417.27,-62 L 1418.1,-61.9126 L 1418.9,-61.6542
 L 1419.62,-61.2361 L 1420.24,-60.6765 L 1420.73,-60 L 1421.07,-59.2361 L 1421.25,-58.4181 L 1421.25,-57.5819
 L 1421.07,-56.7639 L 1420.73,-56 L 1420.24,-55.3235 L 1419.62,-54.7639 L 1418.64,-54.2421 L 1326.98,-20.8124
 L 1326.17,-20.6095 L 1325.33,-20.5798 z
M 765.86,-18.4646 L 765.042,-18.6385 L 764.278,-18.9786 L 763.601,-19.4702 L 763.042,-20.0916 L 762.624,-20.8158
 L 762.365,-21.6111 L 762.278,-22.4427 L 762.278,-57.5573 L 762.397,-58.5275 L 762.684,-59.3131 L 763.127,-60.022
 L 763.709,-60.6231 L 764.402,-61.0903 L 765.178,-61.403 L 766.001,-61.5477 L 766.837,-61.518 L 767.648,-61.3151
 L 815.787,-43.7579 L 816.292,-43.533 L 816.986,-43.0659 L 817.567,-42.4647 L 818.011,-41.7559 L 818.297,-40.9703
 L 818.414,-40.1422 L 818.357,-39.308 L 818.127,-38.504 L 817.734,-37.7654 L 817.197,-37.1245 L 816.539,-36.6092
 L 815.787,-36.2421 L 767.648,-18.6849 L 766.696,-18.4646 z
M 926.163,-18.482 L 925.352,-18.6849 L 877.213,-36.2421 L 876.708,-36.467 L 876.014,-36.9341 L 875.433,-37.5353
 L 874.989,-38.2441 L 874.703,-39.0297 L 874.586,-39.8578 L 874.643,-40.692 L 874.873,-41.496 L 875.266,-42.2346
 L 875.803,-42.8755 L 876.461,-43.3908 L 877.213,-43.7579 L 925.352,-61.3151 L 926.304,-61.5354 L 927.14,-61.5354
 L 927.958,-61.3615 L 928.722,-61.0214 L 929.399,-60.5299 L 929.958,-59.9084 L 930.376,-59.1842 L 930.635,-58.3889
 L 930.722,-57.5573 L 930.722,-22.4427 L 930.603,-21.4725 L 930.316,-20.6869 L 929.873,-19.978 L 929.291,-19.3768
 L 928.598,-18.9097 L 927.822,-18.5969 L 926.999,-18.4523 z
M 206.944,-18 L 205.708,-18.1958 L 204.944,-18.5359 L 204.268,-19.0274 L 203.708,-19.6489 L 203.29,-20.373
 L 203.032,-21.1684 L 202.944,-22 L 202.944,-55.4297 L 203.064,-56.4 L 203.35,-57.1856 L 203.794,-57.8945
 L 204.375,-58.4956 L 205.069,-58.9628 L 205.844,-59.2755 L 206.668,-59.4202 L 207.504,-59.3905 L 208.315,-59.1876
 L 299.974,-25.7579 L 300.954,-25.2361 L 301.576,-24.6765 L 302.067,-24 L 302.407,-23.2361 L 302.581,-22.4181
 L 302.581,-21.5819 L 302.407,-20.7639 L 302.067,-20 L 301.576,-19.3235 L 300.954,-18.7639 L 300.23,-18.3458
 L 299.435,-18.0874 L 298.603,-18 z
M 393.389,-18 L 392.153,-18.1958 L 391.389,-18.5359 L 390.712,-19.0274 L 390.153,-19.6489 L 389.735,-20.373
 L 389.476,-21.1684 L 389.389,-22 L 389.389,-55.4297 L 389.508,-56.4 L 389.795,-57.1856 L 390.238,-57.8945
 L 390.82,-58.4956 L 391.513,-58.9628 L 392.289,-59.2755 L 393.113,-59.4202 L 393.948,-59.3905 L 394.759,-59.1876
 L 486.418,-25.7579 L 487.399,-25.2361 L 488.02,-24.6765 L 488.512,-24 L 488.852,-23.2361 L 489.026,-22.4181
 L 489.026,-21.5819 L 488.852,-20.7639 L 488.512,-20 L 488.02,-19.3235 L 487.399,-18.7639 L 486.675,-18.3458
 L 485.879,-18.0874 L 485.048,-18 z
M 579.833,-18 L 578.597,-18.1958 L 577.833,-18.5359 L 577.157,-19.0274 L 576.597,-19.6489 L 576.179,-20.373
 L 575.921,-21.1684 L 575.833,-22 L 575.833,-55.4297 L 575.953,-56.4 L 576.239,-57.1856 L 576.683,-57.8945
 L 577.264,-58.4956 L 577.958,-58.9628 L 578.733,-59.2755 L 579.557,-59.4202 L 580.393,-59.3905 L 581.204,-59.1876
 L 672.863,-25.7579 L 673.843,-25.2361 L 674.465,-24.6765 L 674.956,-24 L 675.296,-23.2361 L 675.47,-22.4181
 L 675.47,-21.5819 L 675.296,-20.7639 L 674.956,-20 L 674.465,-19.3235 L 673.843,-18.7639 L 673.119,-18.3458
 L 672.324,-18.0874 L 671.492,-18 z
M 1021.51,-18 L 1020.68,-18.0874 L 1019.88,-18.3458 L 1019.16,-18.7639 L 1018.54,-19.3235 L 1018.04,-20
 L 1017.7,-20.7639 L 1017.53,-21.5819 L 1017.53,-22.4181 L 1017.7,-23.2361 L 1018.04,-24 L 1018.54,-24.6765
 L 1019.16,-25.2361 L 1020.14,-25.7579 L 1111.8,-59.1876 L 1112.61,-59.3905 L 1113.44,-59.4202 L 1114.27,-59.2755
 L 1115.04,-58.9628 L 1115.74,-58.4956 L 1116.32,-57.8945 L 1116.76,-57.1856 L 1117.05,-56.4 L 1117.17,-55.4297
 L 1117.17,-22 L 1117.08,-21.1684 L 1116.82,-20.373 L 1116.4,-19.6489 L 1115.84,-19.0274 L 1115.17,-18.5359
 L 1114.4,-18.1958 L 1113.17,-18 z
M 1207.95,-18 L 1207.12,-18.0874 L 1206.33,-18.3458 L 1205.6,-18.7639 L 1204.98,-19.3235 L 1204.49,-20
 L 1204.15,-20.7639 L 1203.97,-21.5819 L 1203.97,-22.4181 L 1204.15,-23.2361 L 1204.49,-24 L 1204.98,-24.6765
 L 1205.6,-25.2361 L 1206.58,-25.7579 L 1298.24,-59.1876 L 1299.05,-59.3905 L 1299.89,-59.4202 L 1300.71,-59.2755
 L 1301.49,-58.9628 L 1302.18,-58.4956 L 1302.76,-57.8945 L 1303.21,-57.1856 L 1303.49,-56.4 L 1303.61,-55.4297
 L 1303.61,-22 L 1303.52,-21.1684 L 1303.27,-20.373 L 1302.85,-19.6489 L 1302.29,-19.0274 L 1301.61,-18.5359
 L 1300.85,-18.1958 L 1299.61,-18 z
M 1394.4,-18 L 1393.57,-18.0874 L 1392.77,-18.3458 L 1392.05,-18.7639 L 1391.42,-19.3235 L 1390.93,-20
 L 1390.59,-20.7639 L 1390.42,-21.5819 L 1390.42,-22.4181 L 1390.59,-23.2361 L 1390.93,-24 L 1391.42,-24.6765
 L 1392.05,-25.2361 L 1393.03,-25.7579 L 1484.68,-59.1876 L 1485.5,-59.3905 L 1486.33,-59.4202 L 1487.16,-59.2755
 L 1487.93,-58.9628 L 1488.62,-58.4956 L 1489.21,-57.8945 L 1489.65,-57.1856 L 1489.94,-56.4 L 1490.06,-55.4297
 L 1490.06,-22 L 1489.97,-21.1684 L 1489.71,-20.373 L 1489.29,-19.6489 L 1488.73,-19.0274 L 1488.06,-18.5359
 L 1487.29,-18.1958 L 1486.06,-18 z
M 22,-18 L 20.7639,-18.1958 L 20,-18.5359 L 19.3235,-19.0274 L 18.7639,-19.6489 L 18.3458,-20.373
 L 18.0874,-21.1684 L 18,-22 L 18,-54.8827 L 18.1195,-55.8529 L 18.406,-56.6385 L 18.8496,-57.3474
 L 19.4309,-57.9485 L 20.1245,-58.4157 L 20.9,-58.7284 L 21.7236,-58.8731 L 22.5593,-58.8434 L 23.3706,-58.6405
 L 113.529,-25.7579 L 114.51,-25.2361 L 115.131,-24.6765 L 115.623,-24 L 115.963,-23.2361 L 116.137,-22.4181
 L 116.137,-21.5819 L 115.963,-20.7639 L 115.623,-20 L 115.131,-19.3235 L 114.51,-18.7639 L 113.786,-18.3458
 L 112.99,-18.0874 L 112.159,-18 z
M 1580.84,-18 L 1580.01,-18.0874 L 1579.21,-18.3458 L 1578.49,-18.7639 L 1577.87,-19.3235 L 1577.38,-20
 L 1577.04,-20.7639 L 1576.86,-21.5819 L 1576.86,-22.4181 L 1577.04,-23.2361 L 1577.38,-24 L 1577.87,-24.6765
 L 1578.49,-25.2361 L 1579.47,-25.7579 L 1669.63,-58.6405 L 1670.44,-58.8434 L 1671.28,-58.8731 L 1672.1,-58.7284
 L 1672.88,-58.4157 L 1673.57,-57.9485 L 1674.15,-57.3474 L 1674.59,-56.6385 L 1674.88,-55.8529 L 1675,-54.8827
 L 1675,-22 L 1674.91,-21.1684 L 1674.65,-20.373 L 1674.24,-19.6489 L 1673.68,-19.0274 L 1673,-18.5359
 L 1672.24,-18.1958 L 1671,-18 z
M 829.23,-18 L 828.13,-18.1542 L 827.355,-18.467 L 826.661,-18.9341 L 826.08,-19.5353 L 825.636,-20.2441
 L 825.35,-21.0297 L 825.233,-21.8578 L 825.291,-22.692 L 825.52,-23.496 L 825.913,-24.2346 L 826.45,-24.8755
 L 827.108,-25.3908 L 827.86,-25.7579 L 845.129,-32.0565 L 846.224,-32.2891 L 847.059,-32.2593 L 847.871,-32.0565
 L 865.14,-25.7579 L 866.121,-25.2361 L 866.742,-24.6765 L 867.234,-24 L 867.574,-23.2361 L 867.748,-22.4181
 L 867.748,-21.5819 L 867.574,-20.7639 L 867.234,-20 L 866.742,-19.3235 L 866.121,-18.7639 L 865.397,-18.3458
 L 864.601,-18.0874 L 863.77,-18 z
" stroke="black" fill="lightgray" stroke-width="0.5"/>
</svg>
