<?xml version="1.0" standalone="no"?>
<!DOCTYPE svg PUBLIC "-//W3C//DTD SVG 1.1//EN" "http://www.w3.org/Graphics/SVG/1.1/DTD/svg11.dtd">
<svg width="1215mm" height="80mm" viewBox="0 -80 1215 80" xmlns="http://www.w3.org/2000/svg" version="1.1">
<title>OpenSCAD Model</title>
<path d="
M 1215,-80 L 0,-80 L 0,-0 L 4.95,-0 L 4.95,-6 L 5.00572,-6.53017
 L 5.17046,-7.03717 L 5.437,-7.49884 L 5.79372,-7.895 L 6.22499,-8.20836 L 6.71201,-8.42519 L 7.23344,-8.53603
 L 7.76654,-8.53603 L 8.28798,-8.42519 L 8.77499,-8.20836 L 9.20627,-7.895 L 9.56299,-7.49884 L 9.82953,-7.03717
 L 9.99426,-6.53017 L 10.05,-6 L 10.05,-0 L 176.379,-0 L 176.379,-6 L 176.434,-6.53017
 L 176.599,-7.03717 L 176.866,-7.49884 L 177.222,-7.895 L 177.654,-8.20836 L 178.141,-8.42519 L 178.662,-8.53603
 L 179.195,-8.53603 L 179.717,-8.42519 L 180.204,-8.20836 L 180.635,-7.895 L 180.992,-7.49884 L 181.258,-7.03717
 L 181.423,-6.53017 L 181.479,-6 L 181.479,-0 L 347.807,-0 L 347.807,-6 L 347.863,-6.53017
 L 348.028,-7.03717 L 348.294,-7.49884 L 348.651,-7.895 L 349.082,-8.20836 L 349.569,-8.42519 L 350.091,-8.53603
 L 350.624,-8.53603 L 351.145,-8.42519 L 351.632,-8.20836 L 352.063,-7.895 L 352.42,-7.49884 L 352.687,-7.03717
 L 352.851,-6.53017 L 352.907,-6 L 352.907,-0 L 519.236,-0 L 519.236,-6 L 519.291,-6.53017
 L 519.456,-7.03717 L 519.723,-7.49884 L 520.079,-7.895 L 520.511,-8.20836 L 520.998,-8.42519 L 521.519,-8.53603
 L 522.052,-8.53603 L 522.574,-8.42519 L 523.061,-8.20836 L 523.492,-7.895 L 523.849,-7.49884 L 524.115,-7.03717
 L 524.28,-6.53017 L 524.336,-6 L 524.336,-0 L 690.664,-0 L 690.664,-6 L 690.72,-6.53017
 L 690.885,-7.03717 L 691.151,-7.49884 L 691.508,-7.895 L 691.939,-8.20836 L 692.426,-8.42519 L 692.948,-8.53603
 L 693.481,-8.53603 L 694.002,-8.42519 L 694.489,-8.20836 L 694.921,-7.895 L 695.277,-7.49884 L 695.544,-7.03717
 L 695.709,-6.53017 L 695.764,-6 L 695.764,-0 L 862.093,-0 L 862.093,-6 L 862.149,-6.53017
 L 862.313,-7.03717 L 862.58,-7.49884 L 862.937,-7.895 L 863.368,-8.20836 L 863.855,-8.42519 L 864.376,-8.53603
 L 864.909,-8.53603 L 865.431,-8.42519 L 865.918,-8.20836 L 866.349,-7.895 L 866.706,-7.49884 L 866.972,-7.03717
 L 867.137,-6.53017 L 867.193,-6 L 867.193,-0 L 1033.52,-0 L 1033.52,-6 L 1033.58,-6.53017
 L 1033.74,-7.03717 L 1034.01,-7.49884 L 1034.37,-7.895 L 1034.8,-8.20836 L 1035.28,-8.42519 L 1035.8,-8.53603
 L 1036.34,-8.53603 L 1036.86,-8.42519 L 1037.35,-8.20836 L 1037.78,-7.895 L 1038.13,-7.49884 L 1038.4,-7.03717
 L 1038.57,-6.53017 L 1038.62,-6 L 1038.62,-0 L 1204.95,-0 L 1204.95,-6 L 1205.01,-6.53017
 L 1205.17,-7.03717 L 1205.44,-7.49884 L 1205.79,-7.895 L 1206.22,-8.20836 L 1206.71,-8.42519 L 1207.23,-8.53603
 L 1207.77,-8.53603 L 1208.29,-8.42519 L 1208.77,-8.20836 L 1209.21,-7.895 L 1209.56,-7.49884 L 1209.83,-7.03717
 L 1209.99,-6.53017 L 1210.05,-6 L 1210.05,-0 L 1215,-0 z
M 6.98573,-55.607 L 6.47708,-55.6875 L 5.97964,-55.8208 L 5.49887,-56.0054 L 5.04001,-56.2392 L 4.60811,-56.5196
 L 4.20789,-56.8437 L 3.84373,-57.2079 L 3.51964,-57.6081 L 3.23917,-58.04 L 3.00537,-58.4989 L 2.82082,-58.9796
 L 2.68752,-59.4771 L 2.60696,-59.9857 L 2.58,-60.5 L 2.60696,-61.0143 L 2.68752,-61.5229 L 2.82082,-62.0204
 L 3.00537,-62.5011 L 3.23917,-62.96 L 3.51964,-63.3919 L 3.84373,-63.7921 L 4.20789,-64.1563 L 4.60811,-64.4804
 L 4.95001,-64.7024 L 4.95001,-74 L 5.00574,-74.5302 L 5.17047,-75.0372 L 5.43701,-75.4988 L 5.79373,-75.895
 L 6.22501,-76.2084 L 6.71202,-76.4252 L 7.23346,-76.536 L 7.76654,-76.536 L 8.28798,-76.4252 L 8.77499,-76.2084
 L 9.20627,-75.895 L 9.56299,-75.4988 L 9.82953,-75.0372 L 9.99426,-74.5302 L 10.05,-74 L 10.05,-64.7024
 L 10.3919,-64.4804 L 10.7921,-64.1563 L 11.1563,-63.7921 L 11.4804,-63.3919 L 11.7608,-62.96 L 11.9946,-62.5011
 L 12.1792,-62.0204 L 12.3125,-61.5229 L 12.393,-61.0143 L 12.42,-60.5 L 12.393,-59.9857 L 12.3125,-59.4771
 L 12.1792,-58.9796 L 11.9946,-58.4989 L 11.7608,-58.04 L 11.4804,-57.6081 L 11.1563,-57.2079 L 10.7921,-56.8437
 L 10.3919,-56.5196 L 9.95999,-56.2392 L 9.50113,-56.0054 L 9.02036,-55.8208 L 8.52292,-55.6875 L 8.01427,-55.607
 L 7.5,-55.58 z
M 178.414,-55.607 L 177.906,-55.6875 L 177.408,-55.8208 L 176.927,-56.0054 L 176.469,-56.2392 L 176.037,-56.5196
 L 175.636,-56.8437 L 175.272,-57.2079 L 174.948,-57.6081 L 174.668,-58.04 L 174.434,-58.4989 L 174.249,-58.9796
 L 174.116,-59.4771 L 174.036,-59.9857 L 174.009,-60.5 L 174.036,-61.0143 L 174.116,-61.5229 L 174.249,-62.0204
 L 174.434,-62.5011 L 174.668,-62.96 L 174.948,-63.3919 L 175.272,-63.7921 L 175.636,-64.1563 L 176.037,-64.4804
 L 176.379,-64.7024 L 176.379,-74 L 176.434,-74.5302 L 176.599,-75.0372 L 176.866,-75.4988 L 177.222,-75.895
 L 177.654,-76.2084 L 178.141,-76.4252 L 178.662,-76.536 L 179.195,-76.536 L 179.717,-76.4252 L 180.204,-76.2084
 L 180.635,-75.895 L 180.992,-75.4988 L 181.258,-75.0372 L 181.423,-74.5302 L 181.479,-74 L 181.479,-64.7024
 L 181.82,-64.4804 L 182.221,-64.1563 L 182.585,-63.7921 L 182.909,-63.3919 L 183.189,-62.96 L 183.423,-62.5011
 L 183.608,-62.0204 L 183.741,-61.5229 L 183.822,-61.0143 L 183.849,-60.5 L 183.822,-59.9857 L 183.741,-59.4771
 L 183.608,-58.9796 L 183.423,-58.4989 L 183.189,-58.04 L 182.909,-57.6081 L 182.585,-57.2079 L 182.221,-56.8437
 L 181.82,-56.5196 L 181.389,-56.2392 L 180.93,-56.0054 L 180.449,-55.8208 L 179.951,-55.6875 L 179.443,-55.607
 L 178.929,-55.58 z
M 349.843,-55.607 L 349.334,-55.6875 L 348.837,-55.8208 L 348.356,-56.0054 L 347.897,-56.2392 L 347.465,-56.5196
 L 347.065,-56.8437 L 346.701,-57.2079 L 346.377,-57.6081 L 346.096,-58.04 L 345.863,-58.4989 L 345.678,-58.9796
 L 345.545,-59.4771 L 345.464,-59.9857 L 345.437,-60.5 L 345.464,-61.0143 L 345.545,-61.5229 L 345.678,-62.0204
 L 345.863,-62.5011 L 346.096,-62.96 L 346.377,-63.3919 L 346.701,-63.7921 L 347.065,-64.1563 L 347.465,-64.4804
 L 347.807,-64.7024 L 347.807,-74 L 347.863,-74.5302 L 348.028,-75.0372 L 348.294,-75.4988 L 348.651,-75.895
 L 349.082,-76.2084 L 349.569,-76.4252 L 350.091,-76.536 L 350.624,-76.536 L 351.145,-76.4252 L 351.632,-76.2084
 L 352.063,-75.895 L 352.42,-75.4988 L 352.687,-75.0372 L 352.851,-74.5302 L 352.907,-74 L 352.907,-64.7024
 L 353.249,-64.4804 L 353.649,-64.1563 L 354.013,-63.7921 L 354.337,-63.3919 L 354.618,-62.96 L 354.852,-62.5011
 L 355.036,-62.0204 L 355.17,-61.5229 L 355.25,-61.0143 L 355.277,-60.5 L 355.25,-59.9857 L 355.17,-59.4771
 L 355.036,-58.9796 L 354.852,-58.4989 L 354.618,-58.04 L 354.337,-57.6081 L 354.013,-57.2079 L 353.649,-56.8437
 L 353.249,-56.5196 L 352.817,-56.2392 L 352.358,-56.0054 L 351.877,-55.8208 L 351.38,-55.6875 L 350.871,-55.607
 L 350.357,-55.58 z
M 521.271,-55.607 L 520.763,-55.6875 L 520.265,-55.8208 L 519.785,-56.0054 L 519.326,-56.2392 L 518.894,-56.5196
 L 518.494,-56.8437 L 518.129,-57.2079 L 517.805,-57.6081 L 517.525,-58.04 L 517.291,-58.4989 L 517.107,-58.9796
 L 516.973,-59.4771 L 516.893,-59.9857 L 516.866,-60.5 L 516.893,-61.0143 L 516.973,-61.5229 L 517.107,-62.0204
 L 517.291,-62.5011 L 517.525,-62.96 L 517.805,-63.3919 L 518.129,-63.7921 L 518.494,-64.1563 L 518.894,-64.4804
 L 519.236,-64.7024 L 519.236,-74 L 519.291,-74.5302 L 519.456,-75.0372 L 519.723,-75.4988 L 520.079,-75.895
 L 520.511,-76.2084 L 520.998,-76.4252 L 521.519,-76.536 L 522.052,-76.536 L 522.574,-76.4252 L 523.061,-76.2084
 L 523.492,-75.895 L 523.849,-75.4988 L 524.115,-75.0372 L 524.28,-74.5302 L 524.336,-74 L 524.336,-64.7024
 L 524.678,-64.4804 L 525.078,-64.1563 L 525.442,-63.7921 L 525.766,-63.3919 L 526.047,-62.96 L 526.28,-62.5011
 L 526.465,-62.0204 L 526.598,-61.5229 L 526.679,-61.0143 L 526.706,-60.5 L 526.679,-59.9857 L 526.598,-59.4771
 L 526.465,-58.9796 L 526.28,-58.4989 L 526.047,-58.04 L 525.766,-57.6081 L 525.442,-57.2079 L 525.078,-56.8437
 L 524.678,-56.5196 L 524.246,-56.2392 L 523.787,-56.0054 L 523.306,-55.8208 L 522.809,-55.6875 L 522.3,-55.607
 L 521.786,-55.58 z
M 692.7,-55.607 L 692.191,-55.6875 L 691.694,-55.8208 L 691.213,-56.0054 L 690.754,-56.2392 L 690.322,-56.5196
 L 689.922,-56.8437 L 689.558,-57.2079 L 689.234,-57.6081 L 688.953,-58.04 L 688.72,-58.4989 L 688.535,-58.9796
 L 688.402,-59.4771 L 688.321,-59.9857 L 688.294,-60.5 L 688.321,-61.0143 L 688.402,-61.5229 L 688.535,-62.0204
 L 688.72,-62.5011 L 688.953,-62.96 L 689.234,-63.3919 L 689.558,-63.7921 L 689.922,-64.1563 L 690.322,-64.4804
 L 690.664,-64.7024 L 690.664,-74 L 690.72,-74.5302 L 690.885,-75.0372 L 691.151,-75.4988 L 691.508,-75.895
 L 691.939,-76.2084 L 692.426,-76.4252 L 692.948,-76.536 L 693.481,-76.536 L 694.002,-76.4252 L 694.489,-76.2084
 L 694.921,-75.895 L 695.277,-75.4988 L 695.544,-75.0372 L 695.709,-74.5302 L 695.764,-74 L 695.764,-64.7024
 L 696.106,-64.4804 L 696.506,-64.1563 L 696.871,-63.7921 L 697.195,-63.3919 L 697.475,-62.96 L 697.709,-62.5011
 L 697.893,-62.0204 L 698.027,-61.5229 L 698.107,-61.0143 L 698.134,-60.5 L 698.107,-59.9857 L 698.027,-59.4771
 L 697.893,-58.9796 L 697.709,-58.4989 L 697.475,-58.04 L 697.195,-57.6081 L 696.871,-57.2079 L 696.506,-56.8437
 L 696.106,-56.5196 L 695.674,-56.2392 L 695.215,-56.0054 L 694.735,-55.8208 L 694.237,-55.6875 L 693.729,-55.607
 L 693.214,-55.58 z
M 864.129,-55.607 L 863.62,-55.6875 L 863.122,-55.8208 L 862.642,-56.0054 L 862.183,-56.2392 L 861.751,-56.5196
 L 861.351,-56.8437 L 860.987,-57.2079 L 860.662,-57.6081 L 860.382,-58.04 L 860.148,-58.4989 L 859.964,-58.9796
 L 859.83,-59.4771 L 859.75,-59.9857 L 859.723,-60.5 L 859.75,-61.0143 L 859.83,-61.5229 L 859.964,-62.0204
 L 860.148,-62.5011 L 860.382,-62.96 L 860.662,-63.3919 L 860.987,-63.7921 L 861.351,-64.1563 L 861.751,-64.4804
 L 862.093,-64.7024 L 862.093,-74 L 862.149,-74.5302 L 862.313,-75.0372 L 862.58,-75.4988 L 862.937,-75.895
 L 863.368,-76.2084 L 863.855,-76.4252 L 864.376,-76.536 L 864.909,-76.536 L 865.431,-76.4252 L 865.918,-76.2084
 L 866.349,-75.895 L 866.706,-75.4988 L 866.972,-75.0372 L 867.137,-74.5302 L 867.193,-74 L 867.193,-64.7024
 L 867.535,-64.4804 L 867.935,-64.1563 L 868.299,-63.7921 L 868.623,-63.3919 L 868.904,-62.96 L 869.137,-62.5011
 L 869.322,-62.0204 L 869.455,-61.5229 L 869.536,-61.0143 L 869.563,-60.5 L 869.536,-59.9857 L 869.455,-59.4771
 L 869.322,-58.9796 L 869.137,-58.4989 L 868.904,-58.04 L 868.623,-57.6081 L 868.299,-57.2079 L 867.935,-56.8437
 L 867.535,-56.5196 L 867.103,-56.2392 L 866.644,-56.0054 L 866.163,-55.8208 L 865.666,-55.6875 L 865.157,-55.607
 L 864.643,-55.58 z
M 1035.56,-55.607 L 1035.05,-55.6875 L 1034.55,-55.8208 L 1034.07,-56.0054 L 1033.61,-56.2392 L 1033.18,-56.5196
 L 1032.78,-56.8437 L 1032.42,-57.2079 L 1032.09,-57.6081 L 1031.81,-58.04 L 1031.58,-58.4989 L 1031.39,-58.9796
 L 1031.26,-59.4771 L 1031.18,-59.9857 L 1031.15,-60.5 L 1031.18,-61.0143 L 1031.26,-61.5229 L 1031.39,-62.0204
 L 1031.58,-62.5011 L 1031.81,-62.96 L 1032.09,-63.3919 L 1032.42,-63.7921 L 1032.78,-64.1563 L 1033.18,-64.4804
 L 1033.52,-64.7024 L 1033.52,-74 L 1033.58,-74.5302 L 1033.74,-75.0372 L 1034.01,-75.4988 L 1034.37,-75.895
 L 1034.8,-76.2084 L 1035.28,-76.4252 L 1035.8,-76.536 L 1036.34,-76.536 L 1036.86,-76.4252 L 1037.35,-76.2084
 L 1037.78,-75.895 L 1038.13,-75.4988 L 1038.4,-75.0372 L 1038.57,-74.5302 L 1038.62,-74 L 1038.62,-64.7024
 L 1038.96,-64.4804 L 1039.36,-64.1563 L 1039.73,-63.7921 L 1040.05,-63.3919 L 1040.33,-62.96 L 1040.57,-62.5011
 L 1040.75,-62.0204 L 1040.88,-61.5229 L 1040.96,-61.0143 L 1040.99,-60.5 L 1040.96,-59.9857 L 1040.88,-59.4771
 L 1040.75,-58.9796 L 1040.57,-58.4989 L 1040.33,-58.04 L 1040.05,-57.6081 L 1039.73,-57.2079 L 1039.36,-56.8437
 L 1038.96,-56.5196 L 1038.53,-56.2392 L 1038.07,-56.0054 L 1037.59,-55.8208 L 1037.09,-55.6875 L 1036.59,-55.607
 L 1036.07,-55.58 z
M 1206.99,-55.607 L 1206.48,-55.6875 L 1205.98,-55.8208 L 1205.5,-56.0054 L 1205.04,-56.2392 L 1204.61,-56.5196
 L 1204.21,-56.8437 L 1203.84,-57.2079 L 1203.52,-57.6081 L 1203.24,-58.04 L 1203.01,-58.4989 L 1202.82,-58.9796
 L 1202.69,-59.4771 L 1202.61,-59.9857 L 1202.58,-60.5 L 1202.61,-61.0143 L 1202.69,-61.5229 L 1202.82,-62.0204
 L 1203.01,-62.5011 L 1203.24,-62.96 L 1203.52,-63.3919 L 1203.84,-63.7921 L 1204.21,-64.1563 L 1204.61,-64.4804
 L 1204.95,-64.7024 L 1204.95,-74 L 1205.01,-74.5302 L 1205.17,-75.0372 L 1205.44,-75.4988 L 1205.79,-75.895
 L 1206.23,-76.2084 L 1206.71,-76.4252 L 1207.23,-76.536 L 1207.77,-76.536 L 1208.29,-76.4252 L 1208.77,-76.2084
 L 1209.21,-75.895 L 1209.56,-75.4988 L 1209.83,-75.0372 L 1209.99,-74.5302 L 1210.05,-74 L 1210.05,-64.7024
 L 1210.39,-64.4804 L 1210.79,-64.1563 L 1211.16,-63.7921 L 1211.48,-63.3919 L 1211.76,-62.96 L 1211.99,-62.5011
 L 1212.18,-62.0204 L 1212.31,-61.5229 L 1212.39,-61.0143 L 1212.42,-60.5 L 1212.39,-59.9857 L 1212.31,-59.4771
 L 1212.18,-58.9796 L 1211.99,-58.4989 L 1211.76,-58.04 L 1211.48,-57.6081 L 1211.16,-57.2079 L 1210.79,-56.8437
 L 1210.39,-56.5196 L 1209.96,-56.2392 L 1209.5,-56.0054 L 1209.02,-55.8208 L 1208.52,-55.6875 L 1208.01,-55.607
 L 1207.5,-55.58 z
M 705.222,-21.2552 L 704.438,-21.5462 L 703.732,-21.9938 L 703.134,-22.5785 L 702.671,-23.2747 L 702.362,-24.052
 L 702.214,-25.1302 L 702.214,-58 L 702.302,-58.8316 L 702.56,-59.627 L 702.978,-60.3511 L 703.538,-60.9726
 L 704.214,-61.4641 L 704.978,-61.8042 L 706.214,-62 L 789.079,-62 L 789.911,-61.9126 L 790.706,-61.6542
 L 791.431,-61.2361 L 792.052,-60.6765 L 792.544,-60 L 792.884,-59.2361 L 793.058,-58.4181 L 793.058,-57.5819
 L 792.884,-56.7639 L 792.544,-56 L 792.052,-55.3235 L 791.431,-54.7639 L 790.554,-54.2818 L 707.689,-21.412
 L 706.884,-21.1866 L 706.049,-21.1336 z
M 606.83,-47.8802 L 606.025,-48.1056 L 590.455,-54.2818 L 589.578,-54.7639 L 588.957,-55.3235 L 588.465,-56
 L 588.125,-56.7639 L 587.951,-57.5819 L 587.951,-58.4181 L 588.125,-59.2361 L 588.465,-60 L 588.957,-60.6765
 L 589.578,-61.2361 L 590.303,-61.6542 L 591.098,-61.9126 L 591.93,-62 L 623.07,-62 L 624.063,-61.875
 L 624.847,-61.584 L 625.553,-61.1364 L 626.151,-60.5517 L 626.614,-59.8555 L 626.922,-59.0781 L 627.062,-58.2537
 L 627.028,-57.4182 L 626.82,-56.6081 L 626.449,-55.8589 L 625.93,-55.2032 L 625.286,-54.6697 L 624.545,-54.2818
 L 608.975,-48.1056 L 608.492,-47.9488 L 607.665,-47.8271 z
M 508.116,-21.1866 L 507.311,-21.412 L 424.446,-54.2818 L 423.569,-54.7639 L 422.948,-55.3235 L 422.456,-56
 L 422.116,-56.7639 L 421.942,-57.5819 L 421.942,-58.4181 L 422.116,-59.2361 L 422.456,-60 L 422.948,-60.6765
 L 423.569,-61.2361 L 424.294,-61.6542 L 425.089,-61.9126 L 425.921,-62 L 508.786,-62 L 510.022,-61.8042
 L 510.786,-61.4641 L 511.462,-60.9726 L 512.022,-60.3511 L 512.44,-59.627 L 512.698,-58.8316 L 512.786,-58
 L 512.786,-25.1302 L 512.638,-24.052 L 512.329,-23.2747 L 511.866,-22.5785 L 511.268,-21.9938 L 510.562,-21.5462
 L 509.778,-21.2552 L 508.951,-21.1336 z
M 336.688,-21.1866 L 335.882,-21.412 L 253.017,-54.2818 L 252.141,-54.7639 L 251.519,-55.3235 L 251.028,-56
 L 250.688,-56.7639 L 250.514,-57.5819 L 250.514,-58.4181 L 250.688,-59.2361 L 251.028,-60 L 251.519,-60.6765
 L 252.141,-61.2361 L 252.865,-61.6542 L 253.66,-61.9126 L 254.492,-62 L 337.357,-62 L 338.593,-61.8042
 L 339.357,-61.4641 L 340.034,-60.9726 L 340.593,-60.3511 L 341.011,-59.627 L 341.27,-58.8316 L 341.357,-58
 L 341.357,-25.1302 L 341.209,-24.052 L 340.901,-23.2747 L 340.438,-22.5785 L 339.84,-21.9938 L 339.133,-21.5462
 L 338.349,-21.2552 L 337.522,-21.1336 z
M 1048.08,-21.2552 L 1047.3,-21.5462 L 1046.59,-21.9938 L 1045.99,-22.5785 L 1045.53,-23.2747 L 1045.22,-24.052
 L 1045.07,-25.1302 L 1045.07,-58 L 1045.16,-58.8316 L 1045.42,-59.627 L 1045.84,-60.3511 L 1046.39,-60.9726
 L 1047.07,-61.4641 L 1047.84,-61.8042 L 1049.07,-62 L 1131.94,-62 L 1132.77,-61.9126 L 1133.56,-61.6542
 L 1134.29,-61.2361 L 1134.91,-60.6765 L 1135.4,-60 L 1135.74,-59.2361 L 1135.91,-58.4181 L 1135.91,-57.5819
 L 1135.74,-56.7639 L 1135.4,-56 L 1134.91,-55.3235 L 1134.29,-54.7639 L 1133.41,-54.2818 L 1050.55,-21.412
 L 1049.74,-21.1866 L 1048.91,-21.1336 z
M 165.259,-21.1866 L 164.454,-21.412 L 81.5885,-54.2818 L 80.7123,-54.7639 L 80.0908,-55.3235 L 79.5993,-56
 L 79.2592,-56.7639 L 79.0853,-57.5819 L 79.0853,-58.4181 L 79.2592,-59.2361 L 79.5993,-60 L 80.0908,-60.6765
 L 80.7123,-61.2361 L 81.4365,-61.6542 L 82.2318,-61.9126 L 83.0634,-62 L 165.929,-62 L 167.165,-61.8042
 L 167.929,-61.4641 L 168.605,-60.9726 L 169.165,-60.3511 L 169.583,-59.627 L 169.841,-58.8316 L 169.929,-58
 L 169.929,-25.1302 L 169.781,-24.052 L 169.472,-23.2747 L 169.009,-22.5785 L 168.411,-21.9938 L 167.705,-21.5462
 L 166.921,-21.2552 L 166.094,-21.1336 z
M 876.651,-21.2552 L 875.867,-21.5462 L 875.16,-21.9938 L 874.562,-22.5785 L 874.099,-23.2747 L 873.791,-24.052
 L 873.643,-25.1302 L 873.643,-58 L 873.73,-58.8316 L 873.989,-59.627 L 874.407,-60.3511 L 874.966,-60.9726
 L 875.643,-61.4641 L 876.407,-61.8042 L 877.643,-62 L 960.508,-62 L 961.34,-61.9126 L 962.135,-61.6542
 L 962.859,-61.2361 L 963.481,-60.6765 L 963.972,-60 L 964.312,-59.2361 L 964.486,-58.4181 L 964.486,-57.5819
 L 964.312,-56.7639 L 963.972,-56 L 963.481,-55.3235 L 962.859,-54.7639 L 961.983,-54.2818 L 879.118,-21.412
 L 878.312,-21.1866 L 877.478,-21.1336 z
M 534.368,-19.0023 L 533.55,-19.1762 L 532.786,-19.5163 L 532.109,-20.0078 L 531.55,-20.6293 L 531.132,-21.3534
 L 530.873,-22.1487 L 530.786,-22.9804 L 530.786,-57.0196 L 530.934,-58.0977 L 531.242,-58.8751 L 531.705,-59.5713
 L 532.303,-60.156 L 533.009,-60.6036 L 533.793,-60.8946 L 534.621,-61.0162 L 535.455,-60.9632 L 536.261,-60.7378
 L 579.167,-43.7182 L 580.175,-43.1364 L 580.773,-42.5517 L 581.236,-41.8555 L 581.544,-41.0781 L 581.684,-40.2537
 L 581.65,-39.4182 L 581.442,-38.6081 L 581.071,-37.8589 L 580.552,-37.2032 L 579.908,-36.6697 L 579.167,-36.2818
 L 536.261,-19.2622 L 535.204,-19.0023 z
M 679.545,-19.0368 L 678.739,-19.2622 L 635.833,-36.2818 L 634.825,-36.8636 L 634.227,-37.4483 L 633.764,-38.1445
 L 633.456,-38.9219 L 633.316,-39.7463 L 633.35,-40.5818 L 633.558,-41.3919 L 633.929,-42.1411 L 634.448,-42.7968
 L 635.092,-43.3303 L 635.833,-43.7182 L 678.739,-60.7378 L 679.796,-60.9977 L 680.632,-60.9977 L 681.45,-60.8238
 L 682.214,-60.4837 L 682.891,-59.9922 L 683.45,-59.3707 L 683.868,-58.6466 L 684.127,-57.8513 L 684.214,-57.0196
 L 684.214,-22.9804 L 684.066,-21.9023 L 683.758,-21.1249 L 683.295,-20.4287 L 682.697,-19.844 L 681.991,-19.3964
 L 681.207,-19.1054 L 680.379,-18.9838 z
M 191.929,-18 L 190.692,-18.1958 L 189.929,-18.5359 L 189.252,-19.0274 L 188.692,-19.6489 L 188.274,-20.373
 L 188.016,-21.1684 L 187.929,-22 L 187.929,-54.8698 L 188.077,-55.948 L 188.385,-56.7253 L 188.848,-57.4215
 L 189.446,-58.0062 L 190.152,-58.4538 L 190.936,-58.7448 L 191.764,-58.8664 L 192.598,-58.8134 L 193.403,-58.588
 L 276.269,-25.7182 L 277.145,-25.2361 L 277.766,-24.6765 L 278.258,-24 L 278.598,-23.2361 L 278.772,-22.4181
 L 278.772,-21.5819 L 278.598,-20.7639 L 278.258,-20 L 277.766,-19.3235 L 277.145,-18.7639 L 276.421,-18.3458
 L 275.625,-18.0874 L 274.794,-18 z
M 363.357,-18 L 362.121,-18.1958 L 361.357,-18.5359 L 360.681,-19.0274 L 360.121,-19.6489 L 359.703,-20.373
 L 359.445,-21.1684 L 359.357,-22 L 359.357,-54.8698 L 359.505,-55.948 L 359.814,-56.7253 L 360.277,-57.4215
 L 360.875,-58.0062 L 361.581,-58.4538 L 362.365,-58.7448 L 363.192,-58.8664 L 364.027,-58.8134 L 364.832,-58.588
 L 447.697,-25.7182 L 448.573,-25.2361 L 449.195,-24.6765 L 449.686,-24 L 450.027,-23.2361 L 450.2,-22.4181
 L 450.2,-21.5819 L 450.027,-20.7639 L 449.686,-20 L 449.195,-19.3235 L 448.573,-18.7639 L 447.849,-18.3458
 L 447.054,-18.0874 L 446.222,-18 z
M 768.778,-18 L 767.946,-18.0874 L 767.151,-18.3458 L 766.427,-18.7639 L 765.805,-19.3235 L 765.314,-20
 L 764.973,-20.7639 L 764.8,-21.5819 L 764.8,-22.4181 L 764.973,-23.2361 L 765.314,-24 L 765.805,-24.6765
 L 766.427,-25.2361 L 767.303,-25.7182 L 850.168,-58.588 L 850.973,-58.8134 L 851.808,-58.8664 L 852.635,-58.7448
 L 853.419,-58.4538 L 854.125,-58.0062 L 854.723,-57.4215 L 855.186,-56.7253 L 855.495,-55.948 L 855.643,-54.8698
 L 855.643,-22 L 855.555,-21.1684 L 855.297,-20.373 L 854.879,-19.6489 L 854.319,-19.0274 L 853.643,-18.5359
 L 852.879,-18.1958 L 851.643,-18 z
M 940.206,-18 L 939.375,-18.0874 L 938.579,-18.3458 L 937.855,-18.7639 L 937.234,-19.3235 L 936.742,-20
 L 936.402,-20.7639 L 936.228,-21.5819 L 936.228,-22.4181 L 936.402,-23.2361 L 936.742,-24 L 937.234,-24.6765
 L 937.855,-25.2361 L 938.731,-25.7182 L 1021.6,-58.588 L 1022.4,-58.8134 L 1023.24,-58.8664 L 1024.06,-58.7448
 L 1024.85,-58.4538 L 1025.55,-58.0062 L 1026.15,-57.4215 L 1026.62,-56.7253 L 1026.92,-55.948 L 1027.07,-54.8698
 L 1027.07,-22 L 1026.98,-21.1684 L 1026.73,-20.373 L 1026.31,-19.6489 L 1025.75,-19.0274 L 1025.07,-18.5359
 L 1024.31,-18.1958 L 1023.07,-18 z
M 22,-18 L 20.7639,-18.1958 L 20,-18.5359 L 19.3235,-19.0274 L 18.7639,-19.6489 L 18.3458,-20.373
 L 18.0874,-21.1684 L 18,-22 L 18,-54.2748 L 18.148,-55.353 L 18.4564,-56.1303 L 18.9196,-56.8265
 L 19.5174,-57.4112 L 20.2237,-57.8588 L 21.0077,-58.1498 L 21.8351,-58.2714 L 22.6696,-58.2184 L 23.4749,-57.993
 L 104.84,-25.7182 L 105.716,-25.2361 L 106.338,-24.6765 L 106.829,-24 L 107.169,-23.2361 L 107.343,-22.4181
 L 107.343,-21.5819 L 107.169,-20.7639 L 106.829,-20 L 106.338,-19.3235 L 105.716,-18.7639 L 104.992,-18.3458
 L 104.197,-18.0874 L 103.365,-18 z
M 1111.63,-18 L 1110.8,-18.0874 L 1110.01,-18.3458 L 1109.28,-18.7639 L 1108.66,-19.3235 L 1108.17,-20
 L 1107.83,-20.7639 L 1107.66,-21.5819 L 1107.66,-22.4181 L 1107.83,-23.2361 L 1108.17,-24 L 1108.66,-24.6765
 L 1109.28,-25.2361 L 1110.16,-25.7182 L 1191.53,-57.993 L 1192.33,-58.2184 L 1193.16,-58.2714 L 1193.99,-58.1498
 L 1194.78,-57.8588 L 1195.48,-57.4112 L 1196.08,-56.8265 L 1196.54,-56.1303 L 1196.85,-55.353 L 1197,-54.2748
 L 1197,-22 L 1196.91,-21.1684 L 1196.65,-20.373 L 1196.24,-19.6489 L 1195.68,-19.0274 L 1195,-18.5359
 L 1194.24,-18.1958 L 1193,-18 z
M 591.93,-18 L 590.937,-18.125 L 590.153,-18.416 L 589.447,-18.8636 L 588.849,-19.4483 L 588.386,-20.1446
 L 588.078,-20.9219 L 587.938,-21.7463 L 587.972,-22.5818 L 588.18,-23.3919 L 588.551,-24.1412 L 589.07,-24.7968
 L 589.714,-25.3303 L 590.455,-25.7182 L 606.025,-31.8944 L 606.508,-32.0512 L 607.335,-32.1729 L 608.17,-32.1198
 L 608.975,-31.8944 L 624.545,-25.7182 L 625.422,-25.2361 L 626.043,-24.6765 L 626.535,-24 L 626.875,-23.2361
 L 627.049,-22.4181 L 627.049,-21.5819 L 626.875,-20.7639 L 626.535,-20 L 626.043,-19.3235 L 625.422,-18.7639
 L 624.697,-18.3458 L 623.902,-18.0874 L 623.07,-18 z
" stroke="black" fill="lightgray" stroke-width="0.5"/>
</svg>
