<?xml version="1.0" standalone="no"?>
<!DOCTYPE svg PUBLIC "-//W3C//DTD SVG 1.1//EN" "http://www.w3.org/Graphics/SVG/1.1/DTD/svg11.dtd">
<svg width="1068mm" height="80mm" viewBox="0 -80 1068 80" xmlns="http://www.w3.org/2000/svg" version="1.1">
<title>OpenSCAD Model</title>
<path d="
M 1068,-80 L 0,-80 L 0,-0 L 4.95,-0 L 4.95,-6 L 5.00572,-6.53017
 L 5.17046,-7.03717 L 5.437,-7.49884 L 5.79372,-7.895 L 6.22499,-8.20836 L 6.71201,-8.42519 L 7.23344,-8.53603
 L 7.76654,-8.53603 L 8.28798,-8.42519 L 8.77499,-8.20836 L 9.20627,-7.895 L 9.56299,-7.49884 L 9.82953,-7.03717
 L 9.99426,-6.53017 L 10.05,-6 L 10.05,-0 L 180.45,-0 L 180.45,-6 L 180.506,-6.53017
 L 180.67,-7.03717 L 180.937,-7.49884 L 181.294,-7.895 L 181.725,-8.20836 L 182.212,-8.42519 L 182.733,-8.53603
 L 183.267,-8.53603 L 183.788,-8.42519 L 184.275,-8.20836 L 184.706,-7.895 L 185.063,-7.49884 L 185.33,-7.03717
 L 185.494,-6.53017 L 185.55,-6 L 185.55,-0 L 355.95,-0 L 355.95,-6 L 356.006,-6.53017
 L 356.17,-7.03717 L 356.437,-7.49884 L 356.794,-7.895 L 357.225,-8.20836 L 357.712,-8.42519 L 358.233,-8.53603
 L 358.767,-8.53603 L 359.288,-8.42519 L 359.775,-8.20836 L 360.206,-7.895 L 360.563,-7.49884 L 360.83,-7.03717
 L 360.994,-6.53017 L 361.05,-6 L 361.05,-0 L 531.45,-0 L 531.45,-6 L 531.506,-6.53017
 L 531.67,-7.03717 L 531.937,-7.49884 L 532.294,-7.895 L 532.725,-8.20836 L 533.212,-8.42519 L 533.733,-8.53603
 L 534.267,-8.53603 L 534.788,-8.42519 L 535.275,-8.20836 L 535.706,-7.895 L 536.063,-7.49884 L 536.33,-7.03717
 L 536.494,-6.53017 L 536.55,-6 L 536.55,-0 L 706.95,-0 L 706.95,-6 L 707.006,-6.53017
 L 707.17,-7.03717 L 707.437,-7.49884 L 707.794,-7.895 L 708.225,-8.20836 L 708.712,-8.42519 L 709.233,-8.53603
 L 709.767,-8.53603 L 710.288,-8.42519 L 710.775,-8.20836 L 711.206,-7.895 L 711.563,-7.49884 L 711.83,-7.03717
 L 711.994,-6.53017 L 712.05,-6 L 712.05,-0 L 882.45,-0 L 882.45,-6 L 882.506,-6.53017
 L 882.67,-7.03717 L 882.937,-7.49884 L 883.294,-7.895 L 883.725,-8.20836 L 884.212,-8.42519 L 884.733,-8.53603
 L 885.267,-8.53603 L 885.788,-8.42519 L 886.275,-8.20836 L 886.706,-7.895 L 887.063,-7.49884 L 887.33,-7.03717
 L 887.494,-6.53017 L 887.55,-6 L 887.55,-0 L 1057.95,-0 L 1057.95,-6 L 1058.01,-6.53017
 L 1058.17,-7.03717 L 1058.44,-7.49884 L 1058.79,-7.895 L 1059.22,-8.20836 L 1059.71,-8.42519 L 1060.23,-8.53603
 L 1060.77,-8.53603 L 1061.29,-8.42519 L 1061.77,-8.20836 L 1062.21,-7.895 L 1062.56,-7.49884 L 1062.83,-7.03717
 L 1062.99,-6.53017 L 1063.05,-6 L 1063.05,-0 L 1068,-0 z
M 6.98573,-55.607 L 6.47708,-55.6875 L 5.97964,-55.8208 L 5.49887,-56.0054 L 5.04001,-56.2392 L 4.60811,-56.5196
 L 4.20789,-56.8437 L 3.84373,-57.2079 L 3.51964,-57.6081 L 3.23917,-58.04 L 3.00537,-58.4989 L 2.82082,-58.9796
 L 2.68752,-59.4771 L 2.60696,-59.9857 L 2.58,-60.5 L 2.60696,-61.0143 L 2.68752,-61.5229 L 2.82082,-62.0204
 L 3.00537,-62.5011 L 3.23917,-62.96 L 3.51964,-63.3919 L 3.84373,-63.7921 L 4.20789,-64.1563 L 4.60811,-64.4804
 L 4.95001,-64.7024 L 4.95001,-74 L 5.00574,-74.5302 L 5.17047,-75.0372 L 5.43701,-75.4988 L 5.79373,-75.895
 L 6.22501,-76.2084 L 6.71202,-76.4252 L 7.23346,-76.536 L 7.76654,-76.536 L 8.28798,-76.4252 L 8.77499,-76.2084
 L 9.20627,-75.895 L 9.56299,-75.4988 L 9.82953,-75.0372 L 9.99426,-74.5302 L 10.05,-74 L 10.05,-64.7024
 L 10.3919,-64.4804 L 10.7921,-64.1563 L 11.1563,-63.7921 L 11.4804,-63.3919 L 11.7608,-62.96 L 11.9946,-62.5011
 L 12.1792,-62.0204 L 12.3125,-61.5229 L 12.393,-61.0143 L 12.42,-60.5 L 12.393,-59.9857 L 12.3125,-59.4771
 L 12.1792,-58.9796 L 11.9946,-58.4989 L 11.7608,-58.04 L 11.4804,-57.6081 L 11.1563,-57.2079 L 10.7921,-56.8437
 L 10.3919,-56.5196 L 9.95999,-56.2392 L 9.50113,-56.0054 L 9.02036,-55.8208 L 8.52292,-55.6875 L 8.01427,-55.607
 L 7.5,-55.58 z
M 182.486,-55.607 L 181.977,-55.6875 L 181.48,-55.8208 L 180.999,-56.0054 L 180.54,-56.2392 L 180.108,-56.5196
 L 179.708,-56.8437 L 179.344,-57.2079 L 179.02,-57.6081 L 178.739,-58.04 L 178.505,-58.4989 L 178.321,-58.9796
 L 178.188,-59.4771 L 178.107,-59.9857 L 178.08,-60.5 L 178.107,-61.0143 L 178.188,-61.5229 L 178.321,-62.0204
 L 178.505,-62.5011 L 178.739,-62.96 L 179.02,-63.3919 L 179.344,-63.7921 L 179.708,-64.1563 L 180.108,-64.4804
 L 180.45,-64.7024 L 180.45,-74 L 180.506,-74.5302 L 180.67,-75.0372 L 180.937,-75.4988 L 181.294,-75.895
 L 181.725,-76.2084 L 182.212,-76.4252 L 182.733,-76.536 L 183.267,-76.536 L 183.788,-76.4252 L 184.275,-76.2084
 L 184.706,-75.895 L 185.063,-75.4988 L 185.33,-75.0372 L 185.494,-74.5302 L 185.55,-74 L 185.55,-64.7024
 L 185.892,-64.4804 L 186.292,-64.1563 L 186.656,-63.7921 L 186.98,-63.3919 L 187.261,-62.96 L 187.495,-62.5011
 L 187.679,-62.0204 L 187.812,-61.5229 L 187.893,-61.0143 L 187.92,-60.5 L 187.893,-59.9857 L 187.812,-59.4771
 L 187.679,-58.9796 L 187.495,-58.4989 L 187.261,-58.04 L 186.98,-57.6081 L 186.656,-57.2079 L 186.292,-56.8437
 L 185.892,-56.5196 L 185.46,-56.2392 L 185.001,-56.0054 L 184.52,-55.8208 L 184.023,-55.6875 L 183.514,-55.607
 L 183,-55.58 z
M 357.986,-55.607 L 357.477,-55.6875 L 356.98,-55.8208 L 356.499,-56.0054 L 356.04,-56.2392 L 355.608,-56.5196
 L 355.208,-56.8437 L 354.844,-57.2079 L 354.52,-57.6081 L 354.239,-58.04 L 354.005,-58.4989 L 353.821,-58.9796
 L 353.688,-59.4771 L 353.607,-59.9857 L 353.58,-60.5 L 353.607,-61.0143 L 353.688,-61.5229 L 353.821,-62.0204
 L 354.005,-62.5011 L 354.239,-62.96 L 354.52,-63.3919 L 354.844,-63.7921 L 355.208,-64.1563 L 355.608,-64.4804
 L 355.95,-64.7024 L 355.95,-74 L 356.006,-74.5302 L 356.17,-75.0372 L 356.437,-75.4988 L 356.794,-75.895
 L 357.225,-76.2084 L 357.712,-76.4252 L 358.233,-76.536 L 358.767,-76.536 L 359.288,-76.4252 L 359.775,-76.2084
 L 360.206,-75.895 L 360.563,-75.4988 L 360.83,-75.0372 L 360.994,-74.5302 L 361.05,-74 L 361.05,-64.7024
 L 361.392,-64.4804 L 361.792,-64.1563 L 362.156,-63.7921 L 362.48,-63.3919 L 362.761,-62.96 L 362.995,-62.5011
 L 363.179,-62.0204 L 363.312,-61.5229 L 363.393,-61.0143 L 363.42,-60.5 L 363.393,-59.9857 L 363.312,-59.4771
 L 363.179,-58.9796 L 362.995,-58.4989 L 362.761,-58.04 L 362.48,-57.6081 L 362.156,-57.2079 L 361.792,-56.8437
 L 361.392,-56.5196 L 360.96,-56.2392 L 360.501,-56.0054 L 360.02,-55.8208 L 359.523,-55.6875 L 359.014,-55.607
 L 358.5,-55.58 z
M 533.486,-55.607 L 532.977,-55.6875 L 532.48,-55.8208 L 531.999,-56.0054 L 531.54,-56.2392 L 531.108,-56.5196
 L 530.708,-56.8437 L 530.344,-57.2079 L 530.02,-57.6081 L 529.739,-58.04 L 529.505,-58.4989 L 529.321,-58.9796
 L 529.188,-59.4771 L 529.107,-59.9857 L 529.08,-60.5 L 529.107,-61.0143 L 529.188,-61.5229 L 529.321,-62.0204
 L 529.505,-62.5011 L 529.739,-62.96 L 530.02,-63.3919 L 530.344,-63.7921 L 530.708,-64.1563 L 531.108,-64.4804
 L 531.45,-64.7024 L 531.45,-74 L 531.506,-74.5302 L 531.67,-75.0372 L 531.937,-75.4988 L 532.294,-75.895
 L 532.725,-76.2084 L 533.212,-76.4252 L 533.733,-76.536 L 534.267,-76.536 L 534.788,-76.4252 L 535.275,-76.2084
 L 535.706,-75.895 L 536.063,-75.4988 L 536.33,-75.0372 L 536.494,-74.5302 L 536.55,-74 L 536.55,-64.7024
 L 536.892,-64.4804 L 537.292,-64.1563 L 537.656,-63.7921 L 537.98,-63.3919 L 538.261,-62.96 L 538.495,-62.5011
 L 538.679,-62.0204 L 538.812,-61.5229 L 538.893,-61.0143 L 538.92,-60.5 L 538.893,-59.9857 L 538.812,-59.4771
 L 538.679,-58.9796 L 538.495,-58.4989 L 538.261,-58.04 L 537.98,-57.6081 L 537.656,-57.2079 L 537.292,-56.8437
 L 536.892,-56.5196 L 536.46,-56.2392 L 536.001,-56.0054 L 535.52,-55.8208 L 535.023,-55.6875 L 534.514,-55.607
 L 534,-55.58 z
M 708.986,-55.607 L 708.477,-55.6875 L 707.98,-55.8208 L 707.499,-56.0054 L 707.04,-56.2392 L 706.608,-56.5196
 L 706.208,-56.8437 L 705.844,-57.2079 L 705.52,-57.6081 L 705.239,-58.04 L 705.005,-58.4989 L 704.821,-58.9796
 L 704.688,-59.4771 L 704.607,-59.9857 L 704.58,-60.5 L 704.607,-61.0143 L 704.688,-61.5229 L 704.821,-62.0204
 L 705.005,-62.5011 L 705.239,-62.96 L 705.52,-63.3919 L 705.844,-63.7921 L 706.208,-64.1563 L 706.608,-64.4804
 L 706.95,-64.7024 L 706.95,-74 L 707.006,-74.5302 L 707.17,-75.0372 L 707.437,-75.4988 L 707.794,-75.895
 L 708.225,-76.2084 L 708.712,-76.4252 L 709.233,-76.536 L 709.767,-76.536 L 710.288,-76.4252 L 710.775,-76.2084
 L 711.206,-75.895 L 711.563,-75.4988 L 711.83,-75.0372 L 711.994,-74.5302 L 712.05,-74 L 712.05,-64.7024
 L 712.392,-64.4804 L 712.792,-64.1563 L 713.156,-63.7921 L 713.48,-63.3919 L 713.761,-62.96 L 713.995,-62.5011
 L 714.179,-62.0204 L 714.312,-61.5229 L 714.393,-61.0143 L 714.42,-60.5 L 714.393,-59.9857 L 714.312,-59.4771
 L 714.179,-58.9796 L 713.995,-58.4989 L 713.761,-58.04 L 713.48,-57.6081 L 713.156,-57.2079 L 712.792,-56.8437
 L 712.392,-56.5196 L 711.96,-56.2392 L 711.501,-56.0054 L 711.02,-55.8208 L 710.523,-55.6875 L 710.014,-55.607
 L 709.5,-55.58 z
M 884.486,-55.607 L 883.977,-55.6875 L 883.48,-55.8208 L 882.999,-56.0054 L 882.54,-56.2392 L 882.108,-56.5196
 L 881.708,-56.8437 L 881.344,-57.2079 L 881.02,-57.6081 L 880.739,-58.04 L 880.505,-58.4989 L 880.321,-58.9796
 L 880.188,-59.4771 L 880.107,-59.9857 L 880.08,-60.5 L 880.107,-61.0143 L 880.188,-61.5229 L 880.321,-62.0204
 L 880.505,-62.5011 L 880.739,-62.96 L 881.02,-63.3919 L 881.344,-63.7921 L 881.708,-64.1563 L 882.108,-64.4804
 L 882.45,-64.7024 L 882.45,-74 L 882.506,-74.5302 L 882.67,-75.0372 L 882.937,-75.4988 L 883.294,-75.895
 L 883.725,-76.2084 L 884.212,-76.4252 L 884.733,-76.536 L 885.267,-76.536 L 885.788,-76.4252 L 886.275,-76.2084
 L 886.706,-75.895 L 887.063,-75.4988 L 887.33,-75.0372 L 887.494,-74.5302 L 887.55,-74 L 887.55,-64.7024
 L 887.892,-64.4804 L 888.292,-64.1563 L 888.656,-63.7921 L 888.98,-63.3919 L 889.261,-62.96 L 889.495,-62.5011
 L 889.679,-62.0204 L 889.812,-61.5229 L 889.893,-61.0143 L 889.92,-60.5 L 889.893,-59.9857 L 889.812,-59.4771
 L 889.679,-58.9796 L 889.495,-58.4989 L 889.261,-58.04 L 888.98,-57.6081 L 888.656,-57.2079 L 888.292,-56.8437
 L 887.892,-56.5196 L 887.46,-56.2392 L 887.001,-56.0054 L 886.52,-55.8208 L 886.023,-55.6875 L 885.514,-55.607
 L 885,-55.58 z
M 1059.99,-55.607 L 1059.48,-55.6875 L 1058.98,-55.8208 L 1058.5,-56.0054 L 1058.04,-56.2392 L 1057.61,-56.5196
 L 1057.21,-56.8437 L 1056.84,-57.2079 L 1056.52,-57.6081 L 1056.24,-58.04 L 1056.01,-58.4989 L 1055.82,-58.9796
 L 1055.69,-59.4771 L 1055.61,-59.9857 L 1055.58,-60.5 L 1055.61,-61.0143 L 1055.69,-61.5229 L 1055.82,-62.0204
 L 1056.01,-62.5011 L 1056.24,-62.96 L 1056.52,-63.3919 L 1056.84,-63.7921 L 1057.21,-64.1563 L 1057.61,-64.4804
 L 1057.95,-64.7024 L 1057.95,-74 L 1058.01,-74.5302 L 1058.17,-75.0372 L 1058.44,-75.4988 L 1058.79,-75.895
 L 1059.23,-76.2084 L 1059.71,-76.4252 L 1060.23,-76.536 L 1060.77,-76.536 L 1061.29,-76.4252 L 1061.77,-76.2084
 L 1062.21,-75.895 L 1062.56,-75.4988 L 1062.83,-75.0372 L 1062.99,-74.5302 L 1063.05,-74 L 1063.05,-64.7024
 L 1063.39,-64.4804 L 1063.79,-64.1563 L 1064.16,-63.7921 L 1064.48,-63.3919 L 1064.76,-62.96 L 1064.99,-62.5011
 L 1065.18,-62.0204 L 1065.31,-61.5229 L 1065.39,-61.0143 L 1065.42,-60.5 L 1065.39,-59.9857 L 1065.31,-59.4771
 L 1065.18,-58.9796 L 1064.99,-58.4989 L 1064.76,-58.04 L 1064.48,-57.6081 L 1064.16,-57.2079 L 1063.79,-56.8437
 L 1063.39,-56.5196 L 1062.96,-56.2392 L 1062.5,-56.0054 L 1062.02,-55.8208 L 1061.52,-55.6875 L 1061.01,-55.607
 L 1060.5,-55.58 z
M 896.977,-21.0949 L 896.195,-21.3922 L 895.492,-21.8454 L 894.899,-22.4349 L 894.442,-23.1348 L 894.14,-23.9145
 L 894,-24.9619 L 894,-58 L 894.087,-58.8316 L 894.346,-59.627 L 894.764,-60.3511 L 895.323,-60.9726
 L 896,-61.4641 L 896.764,-61.8042 L 898,-62 L 983.268,-62 L 984.099,-61.9126 L 984.895,-61.6542
 L 985.619,-61.2361 L 986.24,-60.6765 L 986.732,-60 L 987.072,-59.2361 L 987.246,-58.4181 L 987.246,-57.5819
 L 987.072,-56.7639 L 986.732,-56 L 986.24,-55.3235 L 985.619,-54.7639 L 984.713,-54.2702 L 899.445,-21.2321
 L 898.638,-21.0131 L 897.803,-20.9667 z
M 344.862,-21.0131 L 344.055,-21.2321 L 258.787,-54.2702 L 257.881,-54.7639 L 257.26,-55.3235 L 256.768,-56
 L 256.428,-56.7639 L 256.254,-57.5819 L 256.254,-58.4181 L 256.428,-59.2361 L 256.768,-60 L 257.26,-60.6765
 L 257.881,-61.2361 L 258.605,-61.6542 L 259.401,-61.9126 L 260.232,-62 L 345.5,-62 L 346.736,-61.8042
 L 347.5,-61.4641 L 348.177,-60.9726 L 348.736,-60.3511 L 349.154,-59.627 L 349.413,-58.8316 L 349.5,-58
 L 349.5,-24.9619 L 349.36,-23.9145 L 349.058,-23.1348 L 348.601,-22.4349 L 348.008,-21.8454 L 347.305,-21.3922
 L 346.523,-21.0949 L 345.697,-20.9667 z
M 169.362,-21.0131 L 168.555,-21.2321 L 83.2873,-54.2702 L 82.3813,-54.7639 L 81.7599,-55.3235 L 81.2684,-56
 L 80.9282,-56.7639 L 80.7544,-57.5819 L 80.7544,-58.4181 L 80.9282,-59.2361 L 81.2684,-60 L 81.7599,-60.6765
 L 82.3813,-61.2361 L 83.1055,-61.6542 L 83.9008,-61.9126 L 84.7325,-62 L 170,-62 L 171.236,-61.8042
 L 172,-61.4641 L 172.677,-60.9726 L 173.236,-60.3511 L 173.654,-59.627 L 173.913,-58.8316 L 174,-58
 L 174,-24.9619 L 173.86,-23.9145 L 173.558,-23.1348 L 173.101,-22.4349 L 172.508,-21.8454 L 171.805,-21.3922
 L 171.023,-21.0949 L 170.197,-20.9667 z
M 520.362,-21.0131 L 519.555,-21.2321 L 434.287,-54.2702 L 433.381,-54.7639 L 432.76,-55.3235 L 432.268,-56
 L 431.928,-56.7639 L 431.754,-57.5819 L 431.754,-58.4181 L 431.928,-59.2361 L 432.268,-60 L 432.76,-60.6765
 L 433.381,-61.2361 L 434.105,-61.6542 L 434.901,-61.9126 L 435.732,-62 L 521,-62 L 522.236,-61.8042
 L 523,-61.4641 L 523.677,-60.9726 L 524.236,-60.3511 L 524.654,-59.627 L 524.913,-58.8316 L 525,-58
 L 525,-24.9619 L 524.86,-23.9145 L 524.558,-23.1348 L 524.101,-22.4349 L 523.508,-21.8454 L 522.805,-21.3922
 L 522.023,-21.0949 L 521.197,-20.9667 z
M 545.977,-21.0949 L 545.195,-21.3922 L 544.492,-21.8454 L 543.899,-22.4349 L 543.442,-23.1348 L 543.14,-23.9145
 L 543,-24.9619 L 543,-58 L 543.087,-58.8316 L 543.346,-59.627 L 543.764,-60.3511 L 544.323,-60.9726
 L 545,-61.4641 L 545.764,-61.8042 L 547,-62 L 632.268,-62 L 633.099,-61.9126 L 633.895,-61.6542
 L 634.619,-61.2361 L 635.24,-60.6765 L 635.732,-60 L 636.072,-59.2361 L 636.246,-58.4181 L 636.246,-57.5819
 L 636.072,-56.7639 L 635.732,-56 L 635.24,-55.3235 L 634.619,-54.7639 L 633.713,-54.2702 L 548.445,-21.2321
 L 547.638,-21.0131 L 546.803,-20.9667 z
M 721.477,-21.0949 L 720.695,-21.3922 L 719.992,-21.8454 L 719.399,-22.4349 L 718.942,-23.1348 L 718.64,-23.9145
 L 718.5,-24.9619 L 718.5,-58 L 718.587,-58.8316 L 718.846,-59.627 L 719.264,-60.3511 L 719.823,-60.9726
 L 720.5,-61.4641 L 721.264,-61.8042 L 722.5,-62 L 807.768,-62 L 808.599,-61.9126 L 809.395,-61.6542
 L 810.119,-61.2361 L 810.74,-60.6765 L 811.232,-60 L 811.572,-59.2361 L 811.746,-58.4181 L 811.746,-57.5819
 L 811.572,-56.7639 L 811.232,-56 L 810.74,-55.3235 L 810.119,-54.7639 L 809.213,-54.2702 L 723.945,-21.2321
 L 723.138,-21.0131 L 722.303,-20.9667 z
M 196,-18 L 194.764,-18.1958 L 194,-18.5359 L 193.323,-19.0274 L 192.764,-19.6489 L 192.346,-20.373
 L 192.087,-21.1684 L 192,-22 L 192,-55.0381 L 192.14,-56.0855 L 192.442,-56.8652 L 192.899,-57.5651
 L 193.492,-58.1546 L 194.195,-58.6078 L 194.977,-58.905 L 195.803,-59.0333 L 196.638,-58.9869 L 197.445,-58.7679
 L 282.713,-25.7298 L 283.619,-25.2361 L 284.24,-24.6765 L 284.732,-24 L 285.072,-23.2361 L 285.246,-22.4181
 L 285.246,-21.5819 L 285.072,-20.7639 L 284.732,-20 L 284.24,-19.3235 L 283.619,-18.7639 L 282.894,-18.3458
 L 282.099,-18.0874 L 281.268,-18 z
M 371.5,-18 L 370.264,-18.1958 L 369.5,-18.5359 L 368.823,-19.0274 L 368.264,-19.6489 L 367.846,-20.373
 L 367.587,-21.1684 L 367.5,-22 L 367.5,-55.0381 L 367.64,-56.0855 L 367.942,-56.8652 L 368.399,-57.5651
 L 368.992,-58.1546 L 369.695,-58.6078 L 370.477,-58.905 L 371.303,-59.0333 L 372.138,-58.9869 L 372.945,-58.7679
 L 458.213,-25.7298 L 459.119,-25.2361 L 459.74,-24.6765 L 460.232,-24 L 460.572,-23.2361 L 460.746,-22.4181
 L 460.746,-21.5819 L 460.572,-20.7639 L 460.232,-20 L 459.74,-19.3235 L 459.119,-18.7639 L 458.394,-18.3458
 L 457.599,-18.0874 L 456.768,-18 z
M 611.232,-18 L 610.401,-18.0874 L 609.606,-18.3458 L 608.881,-18.7639 L 608.26,-19.3235 L 607.768,-20
 L 607.428,-20.7639 L 607.254,-21.5819 L 607.254,-22.4181 L 607.428,-23.2361 L 607.768,-24 L 608.26,-24.6765
 L 608.881,-25.2361 L 609.787,-25.7298 L 695.055,-58.7679 L 695.862,-58.9869 L 696.697,-59.0333 L 697.523,-58.905
 L 698.305,-58.6078 L 699.008,-58.1546 L 699.601,-57.5651 L 700.058,-56.8652 L 700.36,-56.0855 L 700.5,-55.0381
 L 700.5,-22 L 700.413,-21.1684 L 700.154,-20.373 L 699.736,-19.6489 L 699.177,-19.0274 L 698.5,-18.5359
 L 697.736,-18.1958 L 696.5,-18 z
M 786.732,-18 L 785.901,-18.0874 L 785.106,-18.3458 L 784.381,-18.7639 L 783.76,-19.3235 L 783.268,-20
 L 782.928,-20.7639 L 782.754,-21.5819 L 782.754,-22.4181 L 782.928,-23.2361 L 783.268,-24 L 783.76,-24.6765
 L 784.381,-25.2361 L 785.287,-25.7298 L 870.555,-58.7679 L 871.362,-58.9869 L 872.197,-59.0333 L 873.023,-58.905
 L 873.805,-58.6078 L 874.508,-58.1546 L 875.101,-57.5651 L 875.558,-56.8652 L 875.86,-56.0855 L 876,-55.0381
 L 876,-22 L 875.913,-21.1684 L 875.654,-20.373 L 875.236,-19.6489 L 874.677,-19.0274 L 874,-18.5359
 L 873.236,-18.1958 L 872,-18 z
M 962.232,-18 L 961.401,-18.0874 L 960.606,-18.3458 L 959.881,-18.7639 L 959.26,-19.3235 L 958.768,-20
 L 958.428,-20.7639 L 958.254,-21.5819 L 958.254,-22.4181 L 958.428,-23.2361 L 958.768,-24 L 959.26,-24.6765
 L 959.881,-25.2361 L 960.787,-25.7298 L 1044.55,-58.1867 L 1045.36,-58.4057 L 1046.2,-58.4521 L 1047.02,-58.3239
 L 1047.8,-58.0266 L 1048.51,-57.5734 L 1049.1,-56.9839 L 1049.56,-56.284 L 1049.86,-55.5043 L 1050,-54.4569
 L 1050,-22 L 1049.91,-21.1684 L 1049.65,-20.373 L 1049.24,-19.6489 L 1048.68,-19.0274 L 1048,-18.5359
 L 1047.24,-18.1958 L 1046,-18 z
M 22,-18 L 20.7639,-18.1958 L 20,-18.5359 L 19.3235,-19.0274 L 18.7639,-19.6489 L 18.3458,-20.373
 L 18.0874,-21.1684 L 18,-22 L 18,-54.4569 L 18.1396,-55.5043 L 18.4417,-56.284 L 18.8993,-56.9839
 L 19.4925,-57.5734 L 20.1952,-58.0266 L 20.9768,-58.3239 L 21.8032,-58.4521 L 22.6381,-58.4057 L 23.4452,-58.1867
 L 107.213,-25.7298 L 108.119,-25.2361 L 108.74,-24.6765 L 109.232,-24 L 109.572,-23.2361 L 109.746,-22.4181
 L 109.746,-21.5819 L 109.572,-20.7639 L 109.232,-20 L 108.74,-19.3235 L 108.119,-18.7639 L 107.394,-18.3458
 L 106.599,-18.0874 L 105.768,-18 z
" stroke="black" fill="lightgray" stroke-width="0.5"/>
</svg>
