<?xml version="1.0" standalone="no"?>
<!DOCTYPE svg PUBLIC "-//W3C//DTD SVG 1.1//EN" "http://www.w3.org/Graphics/SVG/1.1/DTD/svg11.dtd">
<svg width="1267mm" height="80mm" viewBox="0 -80 1267 80" xmlns="http://www.w3.org/2000/svg" version="1.1">
<title>OpenSCAD Model</title>
<path d="
M 1267,-80 L 0,-80 L 0,-0 L 4.95,-0 L 4.95,-6 L 5.00572,-6.53017
 L 5.17046,-7.03717 L 5.437,-7.49884 L 5.79372,-7.895 L 6.22499,-8.20836 L 6.71201,-8.42519 L 7.23344,-8.53603
 L 7.76654,-8.53603 L 8.28798,-8.42519 L 8.77499,-8.20836 L 9.20627,-7.895 L 9.56299,-7.49884 L 9.82953,-7.03717
 L 9.99426,-6.53017 L 10.05,-6 L 10.05,-0 L 183.807,-0 L 183.807,-6 L 183.863,-6.53017
 L 184.028,-7.03717 L 184.294,-7.49884 L 184.651,-7.895 L 185.082,-8.20836 L 185.569,-8.42519 L 186.091,-8.53603
 L 186.624,-8.53603 L 187.145,-8.42519 L 187.632,-8.20836 L 188.063,-7.895 L 188.42,-7.49884 L 188.687,-7.03717
 L 188.851,-6.53017 L 188.907,-6 L 188.907,-0 L 362.664,-0 L 362.664,-6 L 362.72,-6.53017
 L 362.885,-7.03717 L 363.151,-7.49884 L 363.508,-7.895 L 363.939,-8.20836 L 364.426,-8.42519 L 364.948,-8.53603
 L 365.481,-8.53603 L 366.002,-8.42519 L 366.489,-8.20836 L 366.921,-7.895 L 367.277,-7.49884 L 367.544,-7.03717
 L 367.709,-6.53017 L 367.764,-6 L 367.764,-0 L 541.521,-0 L 541.521,-6 L 541.577,-6.53017
 L 541.742,-7.03717 L 542.008,-7.49884 L 542.365,-7.895 L 542.796,-8.20836 L 543.283,-8.42519 L 543.805,-8.53603
 L 544.338,-8.53603 L 544.859,-8.42519 L 545.346,-8.20836 L 545.778,-7.895 L 546.134,-7.49884 L 546.401,-7.03717
 L 546.566,-6.53017 L 546.621,-6 L 546.621,-0 L 720.379,-0 L 720.379,-6 L 720.434,-6.53017
 L 720.599,-7.03717 L 720.866,-7.49884 L 721.222,-7.895 L 721.654,-8.20836 L 722.141,-8.42519 L 722.662,-8.53603
 L 723.195,-8.53603 L 723.717,-8.42519 L 724.204,-8.20836 L 724.635,-7.895 L 724.992,-7.49884 L 725.258,-7.03717
 L 725.423,-6.53017 L 725.479,-6 L 725.479,-0 L 899.236,-0 L 899.236,-6 L 899.291,-6.53017
 L 899.456,-7.03717 L 899.723,-7.49884 L 900.079,-7.895 L 900.511,-8.20836 L 900.998,-8.42519 L 901.519,-8.53603
 L 902.052,-8.53603 L 902.574,-8.42519 L 903.061,-8.20836 L 903.492,-7.895 L 903.849,-7.49884 L 904.115,-7.03717
 L 904.28,-6.53017 L 904.336,-6 L 904.336,-0 L 1078.09,-0 L 1078.09,-6 L 1078.15,-6.53017
 L 1078.31,-7.03717 L 1078.58,-7.49884 L 1078.94,-7.895 L 1079.37,-8.20836 L 1079.85,-8.42519 L 1080.38,-8.53603
 L 1080.91,-8.53603 L 1081.43,-8.42519 L 1081.92,-8.20836 L 1082.35,-7.895 L 1082.71,-7.49884 L 1082.97,-7.03717
 L 1083.14,-6.53017 L 1083.19,-6 L 1083.19,-0 L 1256.95,-0 L 1256.95,-6 L 1257.01,-6.53017
 L 1257.17,-7.03717 L 1257.44,-7.49884 L 1257.79,-7.895 L 1258.22,-8.20836 L 1258.71,-8.42519 L 1259.23,-8.53603
 L 1259.77,-8.53603 L 1260.29,-8.42519 L 1260.77,-8.20836 L 1261.21,-7.895 L 1261.56,-7.49884 L 1261.83,-7.03717
 L 1261.99,-6.53017 L 1262.05,-6 L 1262.05,-0 L 1267,-0 z
M 6.98573,-55.607 L 6.47708,-55.6875 L 5.97964,-55.8208 L 5.49887,-56.0054 L 5.04001,-56.2392 L 4.60811,-56.5196
 L 4.20789,-56.8437 L 3.84373,-57.2079 L 3.51964,-57.6081 L 3.23917,-58.04 L 3.00537,-58.4989 L 2.82082,-58.9796
 L 2.68752,-59.4771 L 2.60696,-59.9857 L 2.58,-60.5 L 2.60696,-61.0143 L 2.68752,-61.5229 L 2.82082,-62.0204
 L 3.00537,-62.5011 L 3.23917,-62.96 L 3.51964,-63.3919 L 3.84373,-63.7921 L 4.20789,-64.1563 L 4.60811,-64.4804
 L 4.95001,-64.7024 L 4.95001,-74 L 5.00574,-74.5302 L 5.17047,-75.0372 L 5.43701,-75.4988 L 5.79373,-75.895
 L 6.22501,-76.2084 L 6.71202,-76.4252 L 7.23346,-76.536 L 7.76654,-76.536 L 8.28798,-76.4252 L 8.77499,-76.2084
 L 9.20627,-75.895 L 9.56299,-75.4988 L 9.82953,-75.0372 L 9.99426,-74.5302 L 10.05,-74 L 10.05,-64.7024
 L 10.3919,-64.4804 L 10.7921,-64.1563 L 11.1563,-63.7921 L 11.4804,-63.3919 L 11.7608,-62.96 L 11.9946,-62.5011
 L 12.1792,-62.0204 L 12.3125,-61.5229 L 12.393,-61.0143 L 12.42,-60.5 L 12.393,-59.9857 L 12.3125,-59.4771
 L 12.1792,-58.9796 L 11.9946,-58.4989 L 11.7608,-58.04 L 11.4804,-57.6081 L 11.1563,-57.2079 L 10.7921,-56.8437
 L 10.3919,-56.5196 L 9.95999,-56.2392 L 9.50113,-56.0054 L 9.02036,-55.8208 L 8.52292,-55.6875 L 8.01427,-55.607
 L 7.5,-55.58 z
M 185.843,-55.607 L 185.334,-55.6875 L 184.837,-55.8208 L 184.356,-56.0054 L 183.897,-56.2392 L 183.465,-56.5196
 L 183.065,-56.8437 L 182.701,-57.2079 L 182.377,-57.6081 L 182.096,-58.04 L 181.863,-58.4989 L 181.678,-58.9796
 L 181.545,-59.4771 L 181.464,-59.9857 L 181.437,-60.5 L 181.464,-61.0143 L 181.545,-61.5229 L 181.678,-62.0204
 L 181.863,-62.5011 L 182.096,-62.96 L 182.377,-63.3919 L 182.701,-63.7921 L 183.065,-64.1563 L 183.465,-64.4804
 L 183.807,-64.7024 L 183.807,-74 L 183.863,-74.5302 L 184.028,-75.0372 L 184.294,-75.4988 L 184.651,-75.895
 L 185.082,-76.2084 L 185.569,-76.4252 L 186.091,-76.536 L 186.624,-76.536 L 187.145,-76.4252 L 187.632,-76.2084
 L 188.063,-75.895 L 188.42,-75.4988 L 188.687,-75.0372 L 188.851,-74.5302 L 188.907,-74 L 188.907,-64.7024
 L 189.249,-64.4804 L 189.649,-64.1563 L 190.013,-63.7921 L 190.337,-63.3919 L 190.618,-62.96 L 190.852,-62.5011
 L 191.036,-62.0204 L 191.17,-61.5229 L 191.25,-61.0143 L 191.277,-60.5 L 191.25,-59.9857 L 191.17,-59.4771
 L 191.036,-58.9796 L 190.852,-58.4989 L 190.618,-58.04 L 190.337,-57.6081 L 190.013,-57.2079 L 189.649,-56.8437
 L 189.249,-56.5196 L 188.817,-56.2392 L 188.358,-56.0054 L 187.877,-55.8208 L 187.38,-55.6875 L 186.871,-55.607
 L 186.357,-55.58 z
M 364.7,-55.607 L 364.191,-55.6875 L 363.694,-55.8208 L 363.213,-56.0054 L 362.754,-56.2392 L 362.322,-56.5196
 L 361.922,-56.8437 L 361.558,-57.2079 L 361.234,-57.6081 L 360.953,-58.04 L 360.72,-58.4989 L 360.535,-58.9796
 L 360.402,-59.4771 L 360.321,-59.9857 L 360.294,-60.5 L 360.321,-61.0143 L 360.402,-61.5229 L 360.535,-62.0204
 L 360.72,-62.5011 L 360.953,-62.96 L 361.234,-63.3919 L 361.558,-63.7921 L 361.922,-64.1563 L 362.322,-64.4804
 L 362.664,-64.7024 L 362.664,-74 L 362.72,-74.5302 L 362.885,-75.0372 L 363.151,-75.4988 L 363.508,-75.895
 L 363.939,-76.2084 L 364.426,-76.4252 L 364.948,-76.536 L 365.481,-76.536 L 366.002,-76.4252 L 366.489,-76.2084
 L 366.921,-75.895 L 367.277,-75.4988 L 367.544,-75.0372 L 367.709,-74.5302 L 367.764,-74 L 367.764,-64.7024
 L 368.106,-64.4804 L 368.506,-64.1563 L 368.871,-63.7921 L 369.195,-63.3919 L 369.475,-62.96 L 369.709,-62.5011
 L 369.893,-62.0204 L 370.027,-61.5229 L 370.107,-61.0143 L 370.134,-60.5 L 370.107,-59.9857 L 370.027,-59.4771
 L 369.893,-58.9796 L 369.709,-58.4989 L 369.475,-58.04 L 369.195,-57.6081 L 368.871,-57.2079 L 368.506,-56.8437
 L 368.106,-56.5196 L 367.674,-56.2392 L 367.215,-56.0054 L 366.735,-55.8208 L 366.237,-55.6875 L 365.729,-55.607
 L 365.214,-55.58 z
M 543.557,-55.607 L 543.049,-55.6875 L 542.551,-55.8208 L 542.07,-56.0054 L 541.611,-56.2392 L 541.18,-56.5196
 L 540.779,-56.8437 L 540.415,-57.2079 L 540.091,-57.6081 L 539.811,-58.04 L 539.577,-58.4989 L 539.392,-58.9796
 L 539.259,-59.4771 L 539.178,-59.9857 L 539.151,-60.5 L 539.178,-61.0143 L 539.259,-61.5229 L 539.392,-62.0204
 L 539.577,-62.5011 L 539.811,-62.96 L 540.091,-63.3919 L 540.415,-63.7921 L 540.779,-64.1563 L 541.18,-64.4804
 L 541.521,-64.7024 L 541.521,-74 L 541.577,-74.5302 L 541.742,-75.0372 L 542.008,-75.4988 L 542.365,-75.895
 L 542.796,-76.2084 L 543.283,-76.4252 L 543.805,-76.536 L 544.338,-76.536 L 544.859,-76.4252 L 545.346,-76.2084
 L 545.778,-75.895 L 546.134,-75.4988 L 546.401,-75.0372 L 546.566,-74.5302 L 546.621,-74 L 546.621,-64.7024
 L 546.963,-64.4804 L 547.364,-64.1563 L 547.728,-63.7921 L 548.052,-63.3919 L 548.332,-62.96 L 548.566,-62.5011
 L 548.751,-62.0204 L 548.884,-61.5229 L 548.964,-61.0143 L 548.991,-60.5 L 548.964,-59.9857 L 548.884,-59.4771
 L 548.751,-58.9796 L 548.566,-58.4989 L 548.332,-58.04 L 548.052,-57.6081 L 547.728,-57.2079 L 547.364,-56.8437
 L 546.963,-56.5196 L 546.531,-56.2392 L 546.073,-56.0054 L 545.592,-55.8208 L 545.094,-55.6875 L 544.586,-55.607
 L 544.071,-55.58 z
M 722.414,-55.607 L 721.906,-55.6875 L 721.408,-55.8208 L 720.927,-56.0054 L 720.469,-56.2392 L 720.037,-56.5196
 L 719.636,-56.8437 L 719.272,-57.2079 L 718.948,-57.6081 L 718.668,-58.04 L 718.434,-58.4989 L 718.249,-58.9796
 L 718.116,-59.4771 L 718.036,-59.9857 L 718.009,-60.5 L 718.036,-61.0143 L 718.116,-61.5229 L 718.249,-62.0204
 L 718.434,-62.5011 L 718.668,-62.96 L 718.948,-63.3919 L 719.272,-63.7921 L 719.636,-64.1563 L 720.037,-64.4804
 L 720.379,-64.7024 L 720.379,-74 L 720.434,-74.5302 L 720.599,-75.0372 L 720.866,-75.4988 L 721.222,-75.895
 L 721.654,-76.2084 L 722.141,-76.4252 L 722.662,-76.536 L 723.195,-76.536 L 723.717,-76.4252 L 724.204,-76.2084
 L 724.635,-75.895 L 724.992,-75.4988 L 725.258,-75.0372 L 725.423,-74.5302 L 725.479,-74 L 725.479,-64.7024
 L 725.82,-64.4804 L 726.221,-64.1563 L 726.585,-63.7921 L 726.909,-63.3919 L 727.189,-62.96 L 727.423,-62.5011
 L 727.608,-62.0204 L 727.741,-61.5229 L 727.822,-61.0143 L 727.849,-60.5 L 727.822,-59.9857 L 727.741,-59.4771
 L 727.608,-58.9796 L 727.423,-58.4989 L 727.189,-58.04 L 726.909,-57.6081 L 726.585,-57.2079 L 726.221,-56.8437
 L 725.82,-56.5196 L 725.389,-56.2392 L 724.93,-56.0054 L 724.449,-55.8208 L 723.951,-55.6875 L 723.443,-55.607
 L 722.929,-55.58 z
M 901.271,-55.607 L 900.763,-55.6875 L 900.265,-55.8208 L 899.785,-56.0054 L 899.326,-56.2392 L 898.894,-56.5196
 L 898.494,-56.8437 L 898.129,-57.2079 L 897.805,-57.6081 L 897.525,-58.04 L 897.291,-58.4989 L 897.107,-58.9796
 L 896.973,-59.4771 L 896.893,-59.9857 L 896.866,-60.5 L 896.893,-61.0143 L 896.973,-61.5229 L 897.107,-62.0204
 L 897.291,-62.5011 L 897.525,-62.96 L 897.805,-63.3919 L 898.129,-63.7921 L 898.494,-64.1563 L 898.894,-64.4804
 L 899.236,-64.7024 L 899.236,-74 L 899.291,-74.5302 L 899.456,-75.0372 L 899.723,-75.4988 L 900.079,-75.895
 L 900.511,-76.2084 L 900.998,-76.4252 L 901.519,-76.536 L 902.052,-76.536 L 902.574,-76.4252 L 903.061,-76.2084
 L 903.492,-75.895 L 903.849,-75.4988 L 904.115,-75.0372 L 904.28,-74.5302 L 904.336,-74 L 904.336,-64.7024
 L 904.678,-64.4804 L 905.078,-64.1563 L 905.442,-63.7921 L 905.766,-63.3919 L 906.047,-62.96 L 906.28,-62.5011
 L 906.465,-62.0204 L 906.598,-61.5229 L 906.679,-61.0143 L 906.706,-60.5 L 906.679,-59.9857 L 906.598,-59.4771
 L 906.465,-58.9796 L 906.28,-58.4989 L 906.047,-58.04 L 905.766,-57.6081 L 905.442,-57.2079 L 905.078,-56.8437
 L 904.678,-56.5196 L 904.246,-56.2392 L 903.787,-56.0054 L 903.306,-55.8208 L 902.809,-55.6875 L 902.3,-55.607
 L 901.786,-55.58 z
M 1080.13,-55.607 L 1079.62,-55.6875 L 1079.12,-55.8208 L 1078.64,-56.0054 L 1078.18,-56.2392 L 1077.75,-56.5196
 L 1077.35,-56.8437 L 1076.99,-57.2079 L 1076.66,-57.6081 L 1076.38,-58.04 L 1076.15,-58.4989 L 1075.96,-58.9796
 L 1075.83,-59.4771 L 1075.75,-59.9857 L 1075.72,-60.5 L 1075.75,-61.0143 L 1075.83,-61.5229 L 1075.96,-62.0204
 L 1076.15,-62.5011 L 1076.38,-62.96 L 1076.66,-63.3919 L 1076.99,-63.7921 L 1077.35,-64.1563 L 1077.75,-64.4804
 L 1078.09,-64.7024 L 1078.09,-74 L 1078.15,-74.5302 L 1078.31,-75.0372 L 1078.58,-75.4988 L 1078.94,-75.895
 L 1079.37,-76.2084 L 1079.85,-76.4252 L 1080.38,-76.536 L 1080.91,-76.536 L 1081.43,-76.4252 L 1081.92,-76.2084
 L 1082.35,-75.895 L 1082.71,-75.4988 L 1082.97,-75.0372 L 1083.14,-74.5302 L 1083.19,-74 L 1083.19,-64.7024
 L 1083.53,-64.4804 L 1083.93,-64.1563 L 1084.3,-63.7921 L 1084.62,-63.3919 L 1084.9,-62.96 L 1085.14,-62.5011
 L 1085.32,-62.0204 L 1085.46,-61.5229 L 1085.54,-61.0143 L 1085.56,-60.5 L 1085.54,-59.9857 L 1085.46,-59.4771
 L 1085.32,-58.9796 L 1085.14,-58.4989 L 1084.9,-58.04 L 1084.62,-57.6081 L 1084.3,-57.2079 L 1083.93,-56.8437
 L 1083.53,-56.5196 L 1083.1,-56.2392 L 1082.64,-56.0054 L 1082.16,-55.8208 L 1081.67,-55.6875 L 1081.16,-55.607
 L 1080.64,-55.58 z
M 1258.99,-55.607 L 1258.48,-55.6875 L 1257.98,-55.8208 L 1257.5,-56.0054 L 1257.04,-56.2392 L 1256.61,-56.5196
 L 1256.21,-56.8437 L 1255.84,-57.2079 L 1255.52,-57.6081 L 1255.24,-58.04 L 1255.01,-58.4989 L 1254.82,-58.9796
 L 1254.69,-59.4771 L 1254.61,-59.9857 L 1254.58,-60.5 L 1254.61,-61.0143 L 1254.69,-61.5229 L 1254.82,-62.0204
 L 1255.01,-62.5011 L 1255.24,-62.96 L 1255.52,-63.3919 L 1255.84,-63.7921 L 1256.21,-64.1563 L 1256.61,-64.4804
 L 1256.95,-64.7024 L 1256.95,-74 L 1257.01,-74.5302 L 1257.17,-75.0372 L 1257.44,-75.4988 L 1257.79,-75.895
 L 1258.23,-76.2084 L 1258.71,-76.4252 L 1259.23,-76.536 L 1259.77,-76.536 L 1260.29,-76.4252 L 1260.77,-76.2084
 L 1261.21,-75.895 L 1261.56,-75.4988 L 1261.83,-75.0372 L 1261.99,-74.5302 L 1262.05,-74 L 1262.05,-64.7024
 L 1262.39,-64.4804 L 1262.79,-64.1563 L 1263.16,-63.7921 L 1263.48,-63.3919 L 1263.76,-62.96 L 1263.99,-62.5011
 L 1264.18,-62.0204 L 1264.31,-61.5229 L 1264.39,-61.0143 L 1264.42,-60.5 L 1264.39,-59.9857 L 1264.31,-59.4771
 L 1264.18,-58.9796 L 1263.99,-58.4989 L 1263.76,-58.04 L 1263.48,-57.6081 L 1263.16,-57.2079 L 1262.79,-56.8437
 L 1262.39,-56.5196 L 1261.96,-56.2392 L 1261.5,-56.0054 L 1261.02,-55.8208 L 1260.52,-55.6875 L 1260.01,-55.607
 L 1259.5,-55.58 z
M 734.881,-20.9732 L 734.101,-21.2753 L 733.401,-21.733 L 732.812,-22.3262 L 732.359,-23.029 L 732.062,-23.8106
 L 731.929,-24.8335 L 731.929,-58 L 732.016,-58.8316 L 732.274,-59.627 L 732.693,-60.3511 L 733.252,-60.9726
 L 733.929,-61.4641 L 734.693,-61.8042 L 735.929,-62 L 823.165,-62 L 823.996,-61.9126 L 824.792,-61.6542
 L 825.516,-61.2361 L 826.137,-60.6765 L 826.629,-60 L 826.969,-59.2361 L 827.143,-58.4181 L 827.143,-57.5819
 L 826.969,-56.7639 L 826.629,-56 L 826.137,-55.3235 L 825.516,-54.7639 L 824.586,-54.2611 L 737.35,-21.0946
 L 736.542,-20.8808 L 735.706,-20.8397 z
M 632.887,-47.8012 L 632.078,-48.0151 L 615.65,-54.2611 L 614.72,-54.7639 L 614.099,-55.3235 L 613.607,-56
 L 613.267,-56.7639 L 613.093,-57.5819 L 613.093,-58.4181 L 613.267,-59.2361 L 613.607,-60 L 614.099,-60.6765
 L 614.72,-61.2361 L 615.444,-61.6542 L 616.24,-61.9126 L 617.071,-62 L 649.929,-62 L 650.976,-61.8604
 L 651.756,-61.5582 L 652.456,-61.1005 L 653.045,-60.5073 L 653.498,-59.8045 L 653.796,-59.0229 L 653.924,-58.1965
 L 653.877,-57.3616 L 653.658,-56.5546 L 653.276,-55.8107 L 652.748,-55.1625 L 652.096,-54.6384 L 651.35,-54.2611
 L 634.921,-48.0151 L 633.722,-47.7601 z
M 530.458,-20.8808 L 529.65,-21.0946 L 442.414,-54.2611 L 441.484,-54.7639 L 440.863,-55.3235 L 440.371,-56
 L 440.031,-56.7639 L 439.857,-57.5819 L 439.857,-58.4181 L 440.031,-59.2361 L 440.371,-60 L 440.863,-60.6765
 L 441.484,-61.2361 L 442.208,-61.6542 L 443.004,-61.9126 L 443.835,-62 L 531.071,-62 L 532.307,-61.8042
 L 533.071,-61.4641 L 533.748,-60.9726 L 534.307,-60.3511 L 534.726,-59.627 L 534.984,-58.8316 L 535.071,-58
 L 535.071,-24.8335 L 534.938,-23.8106 L 534.641,-23.029 L 534.188,-22.3262 L 533.599,-21.733 L 532.899,-21.2753
 L 532.119,-20.9732 L 531.294,-20.8397 z
M 351.601,-20.8808 L 350.793,-21.0946 L 263.557,-54.2611 L 262.627,-54.7639 L 262.006,-55.3235 L 261.514,-56
 L 261.174,-56.7639 L 261,-57.5819 L 261,-58.4181 L 261.174,-59.2361 L 261.514,-60 L 262.006,-60.6765
 L 262.627,-61.2361 L 263.351,-61.6542 L 264.146,-61.9126 L 264.978,-62 L 352.214,-62 L 353.45,-61.8042
 L 354.214,-61.4641 L 354.891,-60.9726 L 355.45,-60.3511 L 355.868,-59.627 L 356.127,-58.8316 L 356.214,-58
 L 356.214,-24.8335 L 356.081,-23.8106 L 355.784,-23.029 L 355.331,-22.3262 L 354.742,-21.733 L 354.042,-21.2753
 L 353.262,-20.9732 L 352.436,-20.8397 z
M 1092.6,-20.9732 L 1091.82,-21.2753 L 1091.12,-21.733 L 1090.53,-22.3262 L 1090.07,-23.029 L 1089.78,-23.8106
 L 1089.64,-24.8335 L 1089.64,-58 L 1089.73,-58.8316 L 1089.99,-59.627 L 1090.41,-60.3511 L 1090.97,-60.9726
 L 1091.64,-61.4641 L 1092.41,-61.8042 L 1093.64,-62 L 1180.88,-62 L 1181.71,-61.9126 L 1182.51,-61.6542
 L 1183.23,-61.2361 L 1183.85,-60.6765 L 1184.34,-60 L 1184.68,-59.2361 L 1184.86,-58.4181 L 1184.86,-57.5819
 L 1184.68,-56.7639 L 1184.34,-56 L 1183.85,-55.3235 L 1183.23,-54.7639 L 1182.3,-54.2611 L 1095.06,-21.0946
 L 1094.26,-20.8808 L 1093.42,-20.8397 z
M 172.744,-20.8808 L 171.936,-21.0946 L 84.6995,-54.2611 L 83.7698,-54.7639 L 83.1484,-55.3235 L 82.6569,-56
 L 82.3167,-56.7639 L 82.1429,-57.5819 L 82.1429,-58.4181 L 82.3167,-59.2361 L 82.6569,-60 L 83.1484,-60.6765
 L 83.7698,-61.2361 L 84.494,-61.6542 L 85.2893,-61.9126 L 86.121,-62 L 173.357,-62 L 174.593,-61.8042
 L 175.357,-61.4641 L 176.034,-60.9726 L 176.593,-60.3511 L 177.011,-59.627 L 177.27,-58.8316 L 177.357,-58
 L 177.357,-24.8335 L 177.224,-23.8106 L 176.927,-23.029 L 176.474,-22.3262 L 175.884,-21.733 L 175.185,-21.2753
 L 174.405,-20.9732 L 173.579,-20.8397 z
M 913.738,-20.9732 L 912.958,-21.2753 L 912.258,-21.733 L 911.669,-22.3262 L 911.216,-23.029 L 910.919,-23.8106
 L 910.786,-24.8335 L 910.786,-58 L 910.873,-58.8316 L 911.132,-59.627 L 911.55,-60.3511 L 912.109,-60.9726
 L 912.786,-61.4641 L 913.55,-61.8042 L 914.786,-62 L 1002.02,-62 L 1002.85,-61.9126 L 1003.65,-61.6542
 L 1004.37,-61.2361 L 1004.99,-60.6765 L 1005.49,-60 L 1005.83,-59.2361 L 1006,-58.4181 L 1006,-57.5819
 L 1005.83,-56.7639 L 1005.49,-56 L 1004.99,-55.3235 L 1004.37,-54.7639 L 1003.44,-54.2611 L 916.207,-21.0946
 L 915.399,-20.8808 L 914.564,-20.8397 z
M 556.653,-18.7184 L 555.835,-18.8922 L 555.071,-19.2324 L 554.395,-19.7239 L 553.835,-20.3453 L 553.417,-21.0695
 L 553.159,-21.8648 L 553.071,-22.6965 L 553.071,-57.3035 L 553.204,-58.3264 L 553.502,-59.1081 L 553.955,-59.8109
 L 554.544,-60.404 L 555.244,-60.8617 L 556.024,-61.1639 L 556.849,-61.2974 L 557.684,-61.2563 L 558.493,-61.0424
 L 604.006,-43.7389 L 604.411,-43.5582 L 605.111,-43.1005 L 605.701,-42.5073 L 606.154,-41.8045 L 606.451,-41.0229
 L 606.579,-40.1965 L 606.533,-39.3616 L 606.314,-38.5546 L 605.932,-37.8107 L 605.403,-37.1625 L 604.752,-36.6384
 L 604.006,-36.2611 L 558.493,-18.9576 L 557.49,-18.7184 z
M 709.315,-18.7437 L 708.507,-18.9576 L 662.994,-36.2611 L 662.588,-36.4418 L 661.889,-36.8995 L 661.299,-37.4927
 L 660.846,-38.1955 L 660.549,-38.9771 L 660.421,-39.8035 L 660.467,-40.6384 L 660.686,-41.4454 L 661.068,-42.1893
 L 661.596,-42.8375 L 662.248,-43.3616 L 662.994,-43.7389 L 708.507,-61.0424 L 709.51,-61.2816 L 710.347,-61.2816
 L 711.165,-61.1078 L 711.929,-60.7677 L 712.605,-60.2761 L 713.165,-59.6547 L 713.583,-58.9305 L 713.841,-58.1352
 L 713.929,-57.3036 L 713.929,-22.6964 L 713.796,-21.6736 L 713.498,-20.8919 L 713.045,-20.1891 L 712.456,-19.5959
 L 711.756,-19.1383 L 710.976,-18.8361 L 710.151,-18.7026 z
M 199.357,-18 L 198.121,-18.1958 L 197.357,-18.5359 L 196.681,-19.0274 L 196.121,-19.6489 L 195.703,-20.373
 L 195.445,-21.1684 L 195.357,-22 L 195.357,-55.1665 L 195.49,-56.1893 L 195.787,-56.971 L 196.24,-57.6738
 L 196.83,-58.267 L 197.53,-58.7246 L 198.309,-59.0268 L 199.135,-59.1603 L 199.97,-59.1192 L 200.779,-58.9053
 L 288.015,-25.7389 L 288.944,-25.2361 L 289.566,-24.6765 L 290.057,-24 L 290.398,-23.2361 L 290.571,-22.4181
 L 290.571,-21.5819 L 290.398,-20.7639 L 290.057,-20 L 289.566,-19.3235 L 288.944,-18.7639 L 288.22,-18.3458
 L 287.425,-18.0874 L 286.593,-18 z
M 378.214,-18 L 376.978,-18.1958 L 376.214,-18.5359 L 375.538,-19.0274 L 374.978,-19.6489 L 374.56,-20.373
 L 374.302,-21.1684 L 374.214,-22 L 374.214,-55.1665 L 374.347,-56.1893 L 374.644,-56.971 L 375.098,-57.6738
 L 375.687,-58.267 L 376.387,-58.7246 L 377.167,-59.0268 L 377.992,-59.1603 L 378.827,-59.1192 L 379.636,-58.9053
 L 466.872,-25.7389 L 467.802,-25.2361 L 468.423,-24.6765 L 468.915,-24 L 469.255,-23.2361 L 469.429,-22.4181
 L 469.429,-21.5819 L 469.255,-20.7639 L 468.915,-20 L 468.423,-19.3235 L 467.802,-18.7639 L 467.077,-18.3458
 L 466.282,-18.0874 L 465.45,-18 z
M 801.55,-18 L 800.718,-18.0874 L 799.923,-18.3458 L 799.198,-18.7639 L 798.577,-19.3235 L 798.085,-20
 L 797.745,-20.7639 L 797.571,-21.5819 L 797.571,-22.4181 L 797.745,-23.2361 L 798.085,-24 L 798.577,-24.6765
 L 799.198,-25.2361 L 800.128,-25.7389 L 887.364,-58.9053 L 888.173,-59.1192 L 889.008,-59.1603 L 889.833,-59.0268
 L 890.613,-58.7246 L 891.313,-58.267 L 891.902,-57.6738 L 892.356,-56.971 L 892.653,-56.1893 L 892.786,-55.1665
 L 892.786,-22 L 892.698,-21.1684 L 892.44,-20.373 L 892.022,-19.6489 L 891.462,-19.0274 L 890.786,-18.5359
 L 890.022,-18.1958 L 888.786,-18 z
M 980.407,-18 L 979.575,-18.0874 L 978.78,-18.3458 L 978.056,-18.7639 L 977.434,-19.3235 L 976.943,-20
 L 976.602,-20.7639 L 976.429,-21.5819 L 976.429,-22.4181 L 976.602,-23.2361 L 976.943,-24 L 977.434,-24.6765
 L 978.056,-25.2361 L 978.985,-25.7389 L 1066.22,-58.9053 L 1067.03,-59.1192 L 1067.86,-59.1603 L 1068.69,-59.0268
 L 1069.47,-58.7246 L 1070.17,-58.267 L 1070.76,-57.6738 L 1071.21,-56.971 L 1071.51,-56.1893 L 1071.64,-55.1665
 L 1071.64,-22 L 1071.56,-21.1684 L 1071.3,-20.373 L 1070.88,-19.6489 L 1070.32,-19.0274 L 1069.64,-18.5359
 L 1068.88,-18.1958 L 1067.64,-18 z
M 22,-18 L 20.7639,-18.1958 L 20,-18.5359 L 19.3235,-19.0274 L 18.7639,-19.6489 L 18.3458,-20.373
 L 18.0874,-21.1684 L 18,-22 L 18,-54.5962 L 18.133,-55.6191 L 18.4302,-56.4007 L 18.8834,-57.1035
 L 19.4728,-57.6967 L 20.1726,-58.1544 L 20.9523,-58.4565 L 21.7779,-58.59 L 22.6131,-58.5489 L 23.4215,-58.3351
 L 109.158,-25.7389 L 110.087,-25.2361 L 110.709,-24.6765 L 111.2,-24 L 111.54,-23.2361 L 111.714,-22.4181
 L 111.714,-21.5819 L 111.54,-20.7639 L 111.2,-20 L 110.709,-19.3235 L 110.087,-18.7639 L 109.363,-18.3458
 L 108.568,-18.0874 L 107.736,-18 z
M 1159.26,-18 L 1158.43,-18.0874 L 1157.64,-18.3458 L 1156.91,-18.7639 L 1156.29,-19.3235 L 1155.8,-20
 L 1155.46,-20.7639 L 1155.29,-21.5819 L 1155.29,-22.4181 L 1155.46,-23.2361 L 1155.8,-24 L 1156.29,-24.6765
 L 1156.91,-25.2361 L 1157.84,-25.7389 L 1243.58,-58.3351 L 1244.39,-58.5489 L 1245.22,-58.59 L 1246.05,-58.4565
 L 1246.83,-58.1544 L 1247.53,-57.6967 L 1248.12,-57.1035 L 1248.57,-56.4007 L 1248.87,-55.6191 L 1249,-54.5962
 L 1249,-22 L 1248.91,-21.1684 L 1248.65,-20.373 L 1248.24,-19.6489 L 1247.68,-19.0274 L 1247,-18.5359
 L 1246.24,-18.1958 L 1245,-18 z
M 617.071,-18 L 616.024,-18.1396 L 615.244,-18.4418 L 614.544,-18.8995 L 613.955,-19.4927 L 613.501,-20.1955
 L 613.204,-20.9771 L 613.076,-21.8035 L 613.123,-22.6384 L 613.342,-23.4454 L 613.724,-24.1893 L 614.252,-24.8375
 L 614.904,-25.3616 L 615.65,-25.7389 L 632.078,-31.9849 L 633.278,-32.2399 L 634.113,-32.1988 L 634.921,-31.9849
 L 651.35,-25.7389 L 652.28,-25.2361 L 652.901,-24.6765 L 653.393,-24 L 653.733,-23.2361 L 653.907,-22.4181
 L 653.907,-21.5819 L 653.733,-20.7639 L 653.393,-20 L 652.901,-19.3235 L 652.28,-18.7639 L 651.556,-18.3458
 L 650.76,-18.0874 L 649.929,-18 z
" stroke="black" fill="lightgray" stroke-width="0.5"/>
</svg>
