<?xml version="1.0" standalone="no"?>
<!DOCTYPE svg PUBLIC "-//W3C//DTD SVG 1.1//EN" "http://www.w3.org/Graphics/SVG/1.1/DTD/svg11.dtd">
<svg width="1000mm" height="80mm" viewBox="0 -80 1000 80" xmlns="http://www.w3.org/2000/svg" version="1.1">
<title>OpenSCAD Model</title>
<path d="
M 1000,-80 L 0,-80 L 0,-0 L 4.95,-0 L 4.95,-6 L 5.00572,-6.53017
 L 5.17046,-7.03717 L 5.437,-7.49884 L 5.79372,-7.895 L 6.22499,-8.20836 L 6.71201,-8.42519 L 7.23344,-8.53603
 L 7.76654,-8.53603 L 8.28798,-8.42519 L 8.77499,-8.20836 L 9.20627,-7.895 L 9.56299,-7.49884 L 9.82953,-7.03717
 L 9.99426,-6.53017 L 10.05,-6 L 10.05,-0 L 201.95,-0 L 201.95,-6 L 202.006,-6.53017
 L 202.17,-7.03717 L 202.437,-7.49884 L 202.794,-7.895 L 203.225,-8.20836 L 203.712,-8.42519 L 204.233,-8.53603
 L 204.767,-8.53603 L 205.288,-8.42519 L 205.775,-8.20836 L 206.206,-7.895 L 206.563,-7.49884 L 206.83,-7.03717
 L 206.994,-6.53017 L 207.05,-6 L 207.05,-0 L 398.95,-0 L 398.95,-6 L 399.006,-6.53017
 L 399.17,-7.03717 L 399.437,-7.49884 L 399.794,-7.895 L 400.225,-8.20836 L 400.712,-8.42519 L 401.233,-8.53603
 L 401.767,-8.53603 L 402.288,-8.42519 L 402.775,-8.20836 L 403.206,-7.895 L 403.563,-7.49884 L 403.83,-7.03717
 L 403.994,-6.53017 L 404.05,-6 L 404.05,-0 L 595.95,-0 L 595.95,-6 L 596.006,-6.53017
 L 596.17,-7.03717 L 596.437,-7.49884 L 596.794,-7.895 L 597.225,-8.20836 L 597.712,-8.42519 L 598.233,-8.53603
 L 598.767,-8.53603 L 599.288,-8.42519 L 599.775,-8.20836 L 600.206,-7.895 L 600.563,-7.49884 L 600.83,-7.03717
 L 600.994,-6.53017 L 601.05,-6 L 601.05,-0 L 792.95,-0 L 792.95,-6 L 793.006,-6.53017
 L 793.17,-7.03717 L 793.437,-7.49884 L 793.794,-7.895 L 794.225,-8.20836 L 794.712,-8.42519 L 795.233,-8.53603
 L 795.767,-8.53603 L 796.288,-8.42519 L 796.775,-8.20836 L 797.206,-7.895 L 797.563,-7.49884 L 797.83,-7.03717
 L 797.994,-6.53017 L 798.05,-6 L 798.05,-0 L 989.95,-0 L 989.95,-6 L 990.006,-6.53017
 L 990.17,-7.03717 L 990.437,-7.49884 L 990.794,-7.895 L 991.225,-8.20836 L 991.712,-8.42519 L 992.233,-8.53603
 L 992.767,-8.53603 L 993.288,-8.42519 L 993.775,-8.20836 L 994.206,-7.895 L 994.563,-7.49884 L 994.83,-7.03717
 L 994.994,-6.53017 L 995.05,-6 L 995.05,-0 L 1000,-0 z
M 6.98573,-55.607 L 6.47708,-55.6875 L 5.97964,-55.8208 L 5.49887,-56.0054 L 5.04001,-56.2392 L 4.60811,-56.5196
 L 4.20789,-56.8437 L 3.84373,-57.2079 L 3.51964,-57.6081 L 3.23917,-58.04 L 3.00537,-58.4989 L 2.82082,-58.9796
 L 2.68752,-59.4771 L 2.60696,-59.9857 L 2.58,-60.5 L 2.60696,-61.0143 L 2.68752,-61.5229 L 2.82082,-62.0204
 L 3.00537,-62.5011 L 3.23917,-62.96 L 3.51964,-63.3919 L 3.84373,-63.7921 L 4.20789,-64.1563 L 4.60811,-64.4804
 L 4.95001,-64.7024 L 4.95001,-74 L 5.00574,-74.5302 L 5.17047,-75.0372 L 5.43701,-75.4988 L 5.79373,-75.895
 L 6.22501,-76.2084 L 6.71202,-76.4252 L 7.23346,-76.536 L 7.76654,-76.536 L 8.28798,-76.4252 L 8.77499,-76.2084
 L 9.20627,-75.895 L 9.56299,-75.4988 L 9.82953,-75.0372 L 9.99426,-74.5302 L 10.05,-74 L 10.05,-64.7024
 L 10.3919,-64.4804 L 10.7921,-64.1563 L 11.1563,-63.7921 L 11.4804,-63.3919 L 11.7608,-62.96 L 11.9946,-62.5011
 L 12.1792,-62.0204 L 12.3125,-61.5229 L 12.393,-61.0143 L 12.42,-60.5 L 12.393,-59.9857 L 12.3125,-59.4771
 L 12.1792,-58.9796 L 11.9946,-58.4989 L 11.7608,-58.04 L 11.4804,-57.6081 L 11.1563,-57.2079 L 10.7921,-56.8437
 L 10.3919,-56.5196 L 9.95999,-56.2392 L 9.50113,-56.0054 L 9.02036,-55.8208 L 8.52292,-55.6875 L 8.01427,-55.607
 L 7.5,-55.58 z
M 203.986,-55.607 L 203.477,-55.6875 L 202.98,-55.8208 L 202.499,-56.0054 L 202.04,-56.2392 L 201.608,-56.5196
 L 201.208,-56.8437 L 200.844,-57.2079 L 200.52,-57.6081 L 200.239,-58.04 L 200.005,-58.4989 L 199.821,-58.9796
 L 199.688,-59.4771 L 199.607,-59.9857 L 199.58,-60.5 L 199.607,-61.0143 L 199.688,-61.5229 L 199.821,-62.0204
 L 200.005,-62.5011 L 200.239,-62.96 L 200.52,-63.3919 L 200.844,-63.7921 L 201.208,-64.1563 L 201.608,-64.4804
 L 201.95,-64.7024 L 201.95,-74 L 202.006,-74.5302 L 202.17,-75.0372 L 202.437,-75.4988 L 202.794,-75.895
 L 203.225,-76.2084 L 203.712,-76.4252 L 204.233,-76.536 L 204.767,-76.536 L 205.288,-76.4252 L 205.775,-76.2084
 L 206.206,-75.895 L 206.563,-75.4988 L 206.83,-75.0372 L 206.994,-74.5302 L 207.05,-74 L 207.05,-64.7024
 L 207.392,-64.4804 L 207.792,-64.1563 L 208.156,-63.7921 L 208.48,-63.3919 L 208.761,-62.96 L 208.995,-62.5011
 L 209.179,-62.0204 L 209.312,-61.5229 L 209.393,-61.0143 L 209.42,-60.5 L 209.393,-59.9857 L 209.312,-59.4771
 L 209.179,-58.9796 L 208.995,-58.4989 L 208.761,-58.04 L 208.48,-57.6081 L 208.156,-57.2079 L 207.792,-56.8437
 L 207.392,-56.5196 L 206.96,-56.2392 L 206.501,-56.0054 L 206.02,-55.8208 L 205.523,-55.6875 L 205.014,-55.607
 L 204.5,-55.58 z
M 400.986,-55.607 L 400.477,-55.6875 L 399.98,-55.8208 L 399.499,-56.0054 L 399.04,-56.2392 L 398.608,-56.5196
 L 398.208,-56.8437 L 397.844,-57.2079 L 397.52,-57.6081 L 397.239,-58.04 L 397.005,-58.4989 L 396.821,-58.9796
 L 396.688,-59.4771 L 396.607,-59.9857 L 396.58,-60.5 L 396.607,-61.0143 L 396.688,-61.5229 L 396.821,-62.0204
 L 397.005,-62.5011 L 397.239,-62.96 L 397.52,-63.3919 L 397.844,-63.7921 L 398.208,-64.1563 L 398.608,-64.4804
 L 398.95,-64.7024 L 398.95,-74 L 399.006,-74.5302 L 399.17,-75.0372 L 399.437,-75.4988 L 399.794,-75.895
 L 400.225,-76.2084 L 400.712,-76.4252 L 401.233,-76.536 L 401.767,-76.536 L 402.288,-76.4252 L 402.775,-76.2084
 L 403.206,-75.895 L 403.563,-75.4988 L 403.83,-75.0372 L 403.994,-74.5302 L 404.05,-74 L 404.05,-64.7024
 L 404.392,-64.4804 L 404.792,-64.1563 L 405.156,-63.7921 L 405.48,-63.3919 L 405.761,-62.96 L 405.995,-62.5011
 L 406.179,-62.0204 L 406.312,-61.5229 L 406.393,-61.0143 L 406.42,-60.5 L 406.393,-59.9857 L 406.312,-59.4771
 L 406.179,-58.9796 L 405.995,-58.4989 L 405.761,-58.04 L 405.48,-57.6081 L 405.156,-57.2079 L 404.792,-56.8437
 L 404.392,-56.5196 L 403.96,-56.2392 L 403.501,-56.0054 L 403.02,-55.8208 L 402.523,-55.6875 L 402.014,-55.607
 L 401.5,-55.58 z
M 597.986,-55.607 L 597.477,-55.6875 L 596.98,-55.8208 L 596.499,-56.0054 L 596.04,-56.2392 L 595.608,-56.5196
 L 595.208,-56.8437 L 594.844,-57.2079 L 594.52,-57.6081 L 594.239,-58.04 L 594.005,-58.4989 L 593.821,-58.9796
 L 593.688,-59.4771 L 593.607,-59.9857 L 593.58,-60.5 L 593.607,-61.0143 L 593.688,-61.5229 L 593.821,-62.0204
 L 594.005,-62.5011 L 594.239,-62.96 L 594.52,-63.3919 L 594.844,-63.7921 L 595.208,-64.1563 L 595.608,-64.4804
 L 595.95,-64.7024 L 595.95,-74 L 596.006,-74.5302 L 596.17,-75.0372 L 596.437,-75.4988 L 596.794,-75.895
 L 597.225,-76.2084 L 597.712,-76.4252 L 598.233,-76.536 L 598.767,-76.536 L 599.288,-76.4252 L 599.775,-76.2084
 L 600.206,-75.895 L 600.563,-75.4988 L 600.83,-75.0372 L 600.994,-74.5302 L 601.05,-74 L 601.05,-64.7024
 L 601.392,-64.4804 L 601.792,-64.1563 L 602.156,-63.7921 L 602.48,-63.3919 L 602.761,-62.96 L 602.995,-62.5011
 L 603.179,-62.0204 L 603.312,-61.5229 L 603.393,-61.0143 L 603.42,-60.5 L 603.393,-59.9857 L 603.312,-59.4771
 L 603.179,-58.9796 L 602.995,-58.4989 L 602.761,-58.04 L 602.48,-57.6081 L 602.156,-57.2079 L 601.792,-56.8437
 L 601.392,-56.5196 L 600.96,-56.2392 L 600.501,-56.0054 L 600.02,-55.8208 L 599.523,-55.6875 L 599.014,-55.607
 L 598.5,-55.58 z
M 794.986,-55.607 L 794.477,-55.6875 L 793.98,-55.8208 L 793.499,-56.0054 L 793.04,-56.2392 L 792.608,-56.5196
 L 792.208,-56.8437 L 791.844,-57.2079 L 791.52,-57.6081 L 791.239,-58.04 L 791.005,-58.4989 L 790.821,-58.9796
 L 790.688,-59.4771 L 790.607,-59.9857 L 790.58,-60.5 L 790.607,-61.0143 L 790.688,-61.5229 L 790.821,-62.0204
 L 791.005,-62.5011 L 791.239,-62.96 L 791.52,-63.3919 L 791.844,-63.7921 L 792.208,-64.1563 L 792.608,-64.4804
 L 792.95,-64.7024 L 792.95,-74 L 793.006,-74.5302 L 793.17,-75.0372 L 793.437,-75.4988 L 793.794,-75.895
 L 794.225,-76.2084 L 794.712,-76.4252 L 795.233,-76.536 L 795.767,-76.536 L 796.288,-76.4252 L 796.775,-76.2084
 L 797.206,-75.895 L 797.563,-75.4988 L 797.83,-75.0372 L 797.994,-74.5302 L 798.05,-74 L 798.05,-64.7024
 L 798.392,-64.4804 L 798.792,-64.1563 L 799.156,-63.7921 L 799.48,-63.3919 L 799.761,-62.96 L 799.995,-62.5011
 L 800.179,-62.0204 L 800.312,-61.5229 L 800.393,-61.0143 L 800.42,-60.5 L 800.393,-59.9857 L 800.312,-59.4771
 L 800.179,-58.9796 L 799.995,-58.4989 L 799.761,-58.04 L 799.48,-57.6081 L 799.156,-57.2079 L 798.792,-56.8437
 L 798.392,-56.5196 L 797.96,-56.2392 L 797.501,-56.0054 L 797.02,-55.8208 L 796.523,-55.6875 L 796.014,-55.607
 L 795.5,-55.58 z
M 991.986,-55.607 L 991.477,-55.6875 L 990.98,-55.8208 L 990.499,-56.0054 L 990.04,-56.2392 L 989.608,-56.5196
 L 989.208,-56.8437 L 988.844,-57.2079 L 988.52,-57.6081 L 988.239,-58.04 L 988.005,-58.4989 L 987.821,-58.9796
 L 987.688,-59.4771 L 987.607,-59.9857 L 987.58,-60.5 L 987.607,-61.0143 L 987.688,-61.5229 L 987.821,-62.0204
 L 988.005,-62.5011 L 988.239,-62.96 L 988.52,-63.3919 L 988.844,-63.7921 L 989.208,-64.1563 L 989.608,-64.4804
 L 989.95,-64.7024 L 989.95,-74 L 990.006,-74.5302 L 990.17,-75.0372 L 990.437,-75.4988 L 990.794,-75.895
 L 991.225,-76.2084 L 991.712,-76.4252 L 992.233,-76.536 L 992.767,-76.536 L 993.288,-76.4252 L 993.775,-76.2084
 L 994.206,-75.895 L 994.563,-75.4988 L 994.83,-75.0372 L 994.994,-74.5302 L 995.05,-74 L 995.05,-64.7024
 L 995.392,-64.4804 L 995.792,-64.1563 L 996.156,-63.7921 L 996.48,-63.3919 L 996.761,-62.96 L 996.995,-62.5011
 L 997.179,-62.0204 L 997.312,-61.5229 L 997.393,-61.0143 L 997.42,-60.5 L 997.393,-59.9857 L 997.312,-59.4771
 L 997.179,-58.9796 L 996.995,-58.4989 L 996.761,-58.04 L 996.48,-57.6081 L 996.156,-57.2079 L 995.792,-56.8437
 L 995.392,-56.5196 L 994.96,-56.2392 L 994.501,-56.0054 L 994.02,-55.8208 L 993.523,-55.6875 L 993.014,-55.607
 L 992.5,-55.58 z
M 499.509,-47.6651 L 498.695,-47.8539 L 480.255,-54.2189 L 479.209,-54.7639 L 478.587,-55.3235 L 478.096,-56
 L 477.756,-56.7639 L 477.582,-57.5819 L 477.582,-58.4181 L 477.756,-59.2361 L 478.096,-60 L 478.587,-60.6765
 L 479.209,-61.2361 L 479.933,-61.6542 L 480.728,-61.9126 L 481.56,-62 L 518.44,-62 L 519.607,-61.8261
 L 520.377,-61.5 L 521.062,-61.0208 L 521.633,-60.4097 L 522.064,-59.6932 L 522.337,-58.9028 L 522.439,-58.0728
 L 522.367,-57.2397 L 522.123,-56.4399 L 521.718,-55.7082 L 521.17,-55.0767 L 520.503,-54.5729 L 519.745,-54.2189
 L 501.305,-47.8539 L 500.346,-47.6499 z
M 388.01,-20.2679 L 387.195,-20.4566 L 289.383,-54.2189 L 288.337,-54.7639 L 287.716,-55.3235 L 287.224,-56
 L 286.884,-56.7639 L 286.71,-57.5819 L 286.71,-58.4181 L 286.884,-59.2361 L 287.224,-60 L 287.716,-60.6765
 L 288.337,-61.2361 L 289.062,-61.6542 L 289.857,-61.9126 L 290.689,-62 L 388.5,-62 L 389.736,-61.8042
 L 390.5,-61.4641 L 391.177,-60.9726 L 391.736,-60.3511 L 392.154,-59.627 L 392.413,-58.8316 L 392.5,-58
 L 392.5,-24.2377 L 392.397,-23.3349 L 392.124,-22.5445 L 391.693,-21.828 L 391.122,-21.2169 L 390.437,-20.7377
 L 389.667,-20.4116 L 388.846,-20.2526 z
M 807.333,-20.4116 L 806.563,-20.7377 L 805.878,-21.2169 L 805.307,-21.828 L 804.876,-22.5445 L 804.603,-23.3349
 L 804.5,-24.2377 L 804.5,-58 L 804.587,-58.8316 L 804.846,-59.627 L 805.264,-60.3511 L 805.823,-60.9726
 L 806.5,-61.4641 L 807.264,-61.8042 L 808.5,-62 L 906.311,-62 L 907.143,-61.9126 L 907.938,-61.6542
 L 908.663,-61.2361 L 909.284,-60.6765 L 909.776,-60 L 910.116,-59.2361 L 910.29,-58.4181 L 910.29,-57.5819
 L 910.116,-56.7639 L 909.776,-56 L 909.284,-55.3235 L 908.663,-54.7639 L 907.617,-54.2189 L 809.805,-20.4566
 L 808.99,-20.2679 L 808.154,-20.2526 z
M 191.01,-20.2679 L 190.195,-20.4566 L 92.3834,-54.2189 L 91.3374,-54.7639 L 90.716,-55.3235 L 90.2245,-56
 L 89.8844,-56.7639 L 89.7105,-57.5819 L 89.7105,-58.4181 L 89.8844,-59.2361 L 90.2245,-60 L 90.716,-60.6765
 L 91.3374,-61.2361 L 92.0616,-61.6542 L 92.8569,-61.9126 L 93.6886,-62 L 191.5,-62 L 192.736,-61.8042
 L 193.5,-61.4641 L 194.177,-60.9726 L 194.736,-60.3511 L 195.154,-59.627 L 195.413,-58.8316 L 195.5,-58
 L 195.5,-24.2377 L 195.397,-23.3349 L 195.124,-22.5445 L 194.693,-21.828 L 194.122,-21.2169 L 193.437,-20.7377
 L 192.667,-20.4116 L 191.846,-20.2526 z
M 610.333,-20.4116 L 609.563,-20.7377 L 608.878,-21.2169 L 608.307,-21.828 L 607.876,-22.5445 L 607.603,-23.3349
 L 607.5,-24.2377 L 607.5,-58 L 607.587,-58.8316 L 607.846,-59.627 L 608.264,-60.3511 L 608.823,-60.9726
 L 609.5,-61.4641 L 610.264,-61.8042 L 611.5,-62 L 709.311,-62 L 710.143,-61.9126 L 710.938,-61.6542
 L 711.663,-61.2361 L 712.284,-60.6765 L 712.776,-60 L 713.116,-59.2361 L 713.29,-58.4181 L 713.29,-57.5819
 L 713.116,-56.7639 L 712.776,-56 L 712.284,-55.3235 L 711.663,-54.7639 L 710.617,-54.2189 L 612.805,-20.4566
 L 611.99,-20.2679 L 611.154,-20.2526 z
M 414.082,-18.1442 L 413.264,-18.318 L 412.5,-18.6582 L 411.823,-19.1497 L 411.264,-19.7711 L 410.846,-20.4953
 L 410.587,-21.2906 L 410.5,-22.1223 L 410.5,-57.8777 L 410.603,-58.7805 L 410.876,-59.571 L 411.307,-60.2874
 L 411.878,-60.8986 L 412.563,-61.3777 L 413.333,-61.7039 L 414.154,-61.8628 L 414.99,-61.8476 L 415.805,-61.6588
 L 467.598,-43.7811 L 468.229,-43.5 L 468.915,-43.0208 L 469.486,-42.4097 L 469.917,-41.6932 L 470.19,-40.9028
 L 470.292,-40.0728 L 470.22,-39.2397 L 469.976,-38.4399 L 469.571,-37.7082 L 469.023,-37.0767 L 468.356,-36.5729
 L 467.598,-36.2189 L 415.805,-18.3412 L 414.918,-18.1442 z
M 585.01,-18.1524 L 584.195,-18.3412 L 532.402,-36.2189 L 531.77,-36.5 L 531.085,-36.9792 L 530.514,-37.5903
 L 530.083,-38.3068 L 529.81,-39.0972 L 529.708,-39.9272 L 529.78,-40.7603 L 530.024,-41.5601 L 530.429,-42.2918
 L 530.977,-42.9233 L 531.644,-43.4271 L 532.402,-43.7811 L 584.195,-61.6588 L 585.082,-61.8559 L 585.918,-61.8559
 L 586.736,-61.682 L 587.5,-61.3419 L 588.177,-60.8503 L 588.736,-60.2289 L 589.154,-59.5047 L 589.413,-58.7094
 L 589.5,-57.8778 L 589.5,-22.1222 L 589.397,-21.2195 L 589.124,-20.429 L 588.693,-19.7126 L 588.122,-19.1014
 L 587.437,-18.6223 L 586.667,-18.2961 L 585.846,-18.1372 z
M 217.5,-18 L 216.264,-18.1958 L 215.5,-18.5359 L 214.823,-19.0274 L 214.264,-19.6489 L 213.846,-20.373
 L 213.587,-21.1684 L 213.5,-22 L 213.5,-55.7623 L 213.603,-56.6651 L 213.876,-57.4555 L 214.307,-58.172
 L 214.878,-58.7831 L 215.563,-59.2623 L 216.333,-59.5884 L 217.154,-59.7473 L 217.99,-59.7321 L 218.805,-59.5434
 L 316.617,-25.7811 L 317.663,-25.2361 L 318.284,-24.6765 L 318.775,-24 L 319.116,-23.2361 L 319.289,-22.4181
 L 319.289,-21.5819 L 319.116,-20.7639 L 318.775,-20 L 318.284,-19.3235 L 317.663,-18.7639 L 316.938,-18.3458
 L 316.143,-18.0874 L 315.311,-18 z
M 684.689,-18 L 683.857,-18.0874 L 683.062,-18.3458 L 682.337,-18.7639 L 681.716,-19.3235 L 681.225,-20
 L 680.884,-20.7639 L 680.711,-21.5819 L 680.711,-22.4181 L 680.884,-23.2361 L 681.225,-24 L 681.716,-24.6765
 L 682.337,-25.2361 L 683.383,-25.7811 L 781.195,-59.5434 L 782.01,-59.7321 L 782.846,-59.7473 L 783.667,-59.5884
 L 784.437,-59.2623 L 785.122,-58.7831 L 785.693,-58.172 L 786.124,-57.4555 L 786.397,-56.6651 L 786.5,-55.7623
 L 786.5,-22 L 786.413,-21.1684 L 786.154,-20.373 L 785.736,-19.6489 L 785.177,-19.0274 L 784.5,-18.5359
 L 783.736,-18.1958 L 782.5,-18 z
M 22,-18 L 20.7639,-18.1958 L 20,-18.5359 L 19.3235,-19.0274 L 18.7639,-19.6489 L 18.3458,-20.373
 L 18.0874,-21.1684 L 18,-22 L 18,-55.2445 L 18.1032,-56.1473 L 18.3761,-56.9378 L 18.8073,-57.6542
 L 19.3781,-58.2654 L 20.0634,-58.7445 L 20.8334,-59.0706 L 21.6544,-59.2296 L 22.4905,-59.2144 L 23.3051,-59.0256
 L 119.617,-25.7811 L 120.663,-25.2361 L 121.284,-24.6765 L 121.775,-24 L 122.116,-23.2361 L 122.289,-22.4181
 L 122.289,-21.5819 L 122.116,-20.7639 L 121.775,-20 L 121.284,-19.3235 L 120.663,-18.7639 L 119.938,-18.3458
 L 119.143,-18.0874 L 118.311,-18 z
M 881.689,-18 L 880.857,-18.0874 L 880.062,-18.3458 L 879.337,-18.7639 L 878.716,-19.3235 L 878.225,-20
 L 877.884,-20.7639 L 877.711,-21.5819 L 877.711,-22.4181 L 877.884,-23.2361 L 878.225,-24 L 878.716,-24.6765
 L 879.337,-25.2361 L 880.383,-25.7811 L 976.695,-59.0256 L 977.51,-59.2144 L 978.346,-59.2296 L 979.167,-59.0706
 L 979.937,-58.7445 L 980.622,-58.2654 L 981.193,-57.6542 L 981.624,-56.9378 L 981.897,-56.1473 L 982,-55.2445
 L 982,-22 L 981.913,-21.1684 L 981.654,-20.373 L 981.236,-19.6489 L 980.677,-19.0274 L 980,-18.5359
 L 979.236,-18.1958 L 978,-18 z
M 481.56,-18 L 480.393,-18.1739 L 479.623,-18.5 L 478.938,-18.9792 L 478.367,-19.5903 L 477.936,-20.3068
 L 477.663,-21.0972 L 477.561,-21.9272 L 477.633,-22.7603 L 477.877,-23.5601 L 478.282,-24.2918 L 478.83,-24.9233
 L 479.497,-25.4271 L 480.255,-25.7811 L 498.695,-32.1461 L 499.654,-32.3501 L 500.49,-32.3349 L 501.305,-32.1461
 L 519.745,-25.7811 L 520.791,-25.2361 L 521.413,-24.6765 L 521.904,-24 L 522.244,-23.2361 L 522.418,-22.4181
 L 522.418,-21.5819 L 522.244,-20.7639 L 521.904,-20 L 521.413,-19.3235 L 520.791,-18.7639 L 520.067,-18.3458
 L 519.272,-18.0874 L 518.44,-18 z
" stroke="black" fill="lightgray" stroke-width="0.5"/>
</svg>
