<?xml version="1.0" standalone="no"?>
<!DOCTYPE svg PUBLIC "-//W3C//DTD SVG 1.1//EN" "http://www.w3.org/Graphics/SVG/1.1/DTD/svg11.dtd">
<svg width="1218mm" height="80mm" viewBox="0 -80 1218 80" xmlns="http://www.w3.org/2000/svg" version="1.1">
<title>OpenSCAD Model</title>
<path d="
M 1218,-80 L 0,-80 L 0,-0 L 4.95,-0 L 4.95,-6 L 5.00572,-6.53017
 L 5.17046,-7.03717 L 5.437,-7.49884 L 5.79372,-7.895 L 6.22499,-8.20836 L 6.71201,-8.42519 L 7.23344,-8.53603
 L 7.76654,-8.53603 L 8.28798,-8.42519 L 8.77499,-8.20836 L 9.20627,-7.895 L 9.56299,-7.49884 L 9.82953,-7.03717
 L 9.99426,-6.53017 L 10.05,-6 L 10.05,-0 L 176.807,-0 L 176.807,-6 L 176.863,-6.53017
 L 177.028,-7.03717 L 177.294,-7.49884 L 177.651,-7.895 L 178.082,-8.20836 L 178.569,-8.42519 L 179.091,-8.53603
 L 179.624,-8.53603 L 180.145,-8.42519 L 180.632,-8.20836 L 181.063,-7.895 L 181.42,-7.49884 L 181.687,-7.03717
 L 181.851,-6.53017 L 181.907,-6 L 181.907,-0 L 348.664,-0 L 348.664,-6 L 348.72,-6.53017
 L 348.885,-7.03717 L 349.151,-7.49884 L 349.508,-7.895 L 349.939,-8.20836 L 350.426,-8.42519 L 350.948,-8.53603
 L 351.481,-8.53603 L 352.002,-8.42519 L 352.489,-8.20836 L 352.921,-7.895 L 353.277,-7.49884 L 353.544,-7.03717
 L 353.709,-6.53017 L 353.764,-6 L 353.764,-0 L 520.521,-0 L 520.521,-6 L 520.577,-6.53017
 L 520.742,-7.03717 L 521.008,-7.49884 L 521.365,-7.895 L 521.796,-8.20836 L 522.283,-8.42519 L 522.805,-8.53603
 L 523.338,-8.53603 L 523.859,-8.42519 L 524.346,-8.20836 L 524.778,-7.895 L 525.134,-7.49884 L 525.401,-7.03717
 L 525.566,-6.53017 L 525.621,-6 L 525.621,-0 L 692.379,-0 L 692.379,-6 L 692.434,-6.53017
 L 692.599,-7.03717 L 692.866,-7.49884 L 693.222,-7.895 L 693.654,-8.20836 L 694.141,-8.42519 L 694.662,-8.53603
 L 695.195,-8.53603 L 695.717,-8.42519 L 696.204,-8.20836 L 696.635,-7.895 L 696.992,-7.49884 L 697.258,-7.03717
 L 697.423,-6.53017 L 697.479,-6 L 697.479,-0 L 864.236,-0 L 864.236,-6 L 864.291,-6.53017
 L 864.456,-7.03717 L 864.723,-7.49884 L 865.079,-7.895 L 865.511,-8.20836 L 865.998,-8.42519 L 866.519,-8.53603
 L 867.052,-8.53603 L 867.574,-8.42519 L 868.061,-8.20836 L 868.492,-7.895 L 868.849,-7.49884 L 869.115,-7.03717
 L 869.28,-6.53017 L 869.336,-6 L 869.336,-0 L 1036.09,-0 L 1036.09,-6 L 1036.15,-6.53017
 L 1036.31,-7.03717 L 1036.58,-7.49884 L 1036.94,-7.895 L 1037.37,-8.20836 L 1037.85,-8.42519 L 1038.38,-8.53603
 L 1038.91,-8.53603 L 1039.43,-8.42519 L 1039.92,-8.20836 L 1040.35,-7.895 L 1040.71,-7.49884 L 1040.97,-7.03717
 L 1041.14,-6.53017 L 1041.19,-6 L 1041.19,-0 L 1207.95,-0 L 1207.95,-6 L 1208.01,-6.53017
 L 1208.17,-7.03717 L 1208.44,-7.49884 L 1208.79,-7.895 L 1209.22,-8.20836 L 1209.71,-8.42519 L 1210.23,-8.53603
 L 1210.77,-8.53603 L 1211.29,-8.42519 L 1211.77,-8.20836 L 1212.21,-7.895 L 1212.56,-7.49884 L 1212.83,-7.03717
 L 1212.99,-6.53017 L 1213.05,-6 L 1213.05,-0 L 1218,-0 z
M 6.98573,-55.607 L 6.47708,-55.6875 L 5.97964,-55.8208 L 5.49887,-56.0054 L 5.04001,-56.2392 L 4.60811,-56.5196
 L 4.20789,-56.8437 L 3.84373,-57.2079 L 3.51964,-57.6081 L 3.23917,-58.04 L 3.00537,-58.4989 L 2.82082,-58.9796
 L 2.68752,-59.4771 L 2.60696,-59.9857 L 2.58,-60.5 L 2.60696,-61.0143 L 2.68752,-61.5229 L 2.82082,-62.0204
 L 3.00537,-62.5011 L 3.23917,-62.96 L 3.51964,-63.3919 L 3.84373,-63.7921 L 4.20789,-64.1563 L 4.60811,-64.4804
 L 4.95001,-64.7024 L 4.95001,-74 L 5.00574,-74.5302 L 5.17047,-75.0372 L 5.43701,-75.4988 L 5.79373,-75.895
 L 6.22501,-76.2084 L 6.71202,-76.4252 L 7.23346,-76.536 L 7.76654,-76.536 L 8.28798,-76.4252 L 8.77499,-76.2084
 L 9.20627,-75.895 L 9.56299,-75.4988 L 9.82953,-75.0372 L 9.99426,-74.5302 L 10.05,-74 L 10.05,-64.7024
 L 10.3919,-64.4804 L 10.7921,-64.1563 L 11.1563,-63.7921 L 11.4804,-63.3919 L 11.7608,-62.96 L 11.9946,-62.5011
 L 12.1792,-62.0204 L 12.3125,-61.5229 L 12.393,-61.0143 L 12.42,-60.5 L 12.393,-59.9857 L 12.3125,-59.4771
 L 12.1792,-58.9796 L 11.9946,-58.4989 L 11.7608,-58.04 L 11.4804,-57.6081 L 11.1563,-57.2079 L 10.7921,-56.8437
 L 10.3919,-56.5196 L 9.95999,-56.2392 L 9.50113,-56.0054 L 9.02036,-55.8208 L 8.52292,-55.6875 L 8.01427,-55.607
 L 7.5,-55.58 z
M 178.843,-55.607 L 178.334,-55.6875 L 177.837,-55.8208 L 177.356,-56.0054 L 176.897,-56.2392 L 176.465,-56.5196
 L 176.065,-56.8437 L 175.701,-57.2079 L 175.377,-57.6081 L 175.096,-58.04 L 174.863,-58.4989 L 174.678,-58.9796
 L 174.545,-59.4771 L 174.464,-59.9857 L 174.437,-60.5 L 174.464,-61.0143 L 174.545,-61.5229 L 174.678,-62.0204
 L 174.863,-62.5011 L 175.096,-62.96 L 175.377,-63.3919 L 175.701,-63.7921 L 176.065,-64.1563 L 176.465,-64.4804
 L 176.807,-64.7024 L 176.807,-74 L 176.863,-74.5302 L 177.028,-75.0372 L 177.294,-75.4988 L 177.651,-75.895
 L 178.082,-76.2084 L 178.569,-76.4252 L 179.091,-76.536 L 179.624,-76.536 L 180.145,-76.4252 L 180.632,-76.2084
 L 181.063,-75.895 L 181.42,-75.4988 L 181.687,-75.0372 L 181.851,-74.5302 L 181.907,-74 L 181.907,-64.7024
 L 182.249,-64.4804 L 182.649,-64.1563 L 183.013,-63.7921 L 183.337,-63.3919 L 183.618,-62.96 L 183.852,-62.5011
 L 184.036,-62.0204 L 184.17,-61.5229 L 184.25,-61.0143 L 184.277,-60.5 L 184.25,-59.9857 L 184.17,-59.4771
 L 184.036,-58.9796 L 183.852,-58.4989 L 183.618,-58.04 L 183.337,-57.6081 L 183.013,-57.2079 L 182.649,-56.8437
 L 182.249,-56.5196 L 181.817,-56.2392 L 181.358,-56.0054 L 180.877,-55.8208 L 180.38,-55.6875 L 179.871,-55.607
 L 179.357,-55.58 z
M 350.7,-55.607 L 350.191,-55.6875 L 349.694,-55.8208 L 349.213,-56.0054 L 348.754,-56.2392 L 348.322,-56.5196
 L 347.922,-56.8437 L 347.558,-57.2079 L 347.234,-57.6081 L 346.953,-58.04 L 346.72,-58.4989 L 346.535,-58.9796
 L 346.402,-59.4771 L 346.321,-59.9857 L 346.294,-60.5 L 346.321,-61.0143 L 346.402,-61.5229 L 346.535,-62.0204
 L 346.72,-62.5011 L 346.953,-62.96 L 347.234,-63.3919 L 347.558,-63.7921 L 347.922,-64.1563 L 348.322,-64.4804
 L 348.664,-64.7024 L 348.664,-74 L 348.72,-74.5302 L 348.885,-75.0372 L 349.151,-75.4988 L 349.508,-75.895
 L 349.939,-76.2084 L 350.426,-76.4252 L 350.948,-76.536 L 351.481,-76.536 L 352.002,-76.4252 L 352.489,-76.2084
 L 352.921,-75.895 L 353.277,-75.4988 L 353.544,-75.0372 L 353.709,-74.5302 L 353.764,-74 L 353.764,-64.7024
 L 354.106,-64.4804 L 354.506,-64.1563 L 354.871,-63.7921 L 355.195,-63.3919 L 355.475,-62.96 L 355.709,-62.5011
 L 355.893,-62.0204 L 356.027,-61.5229 L 356.107,-61.0143 L 356.134,-60.5 L 356.107,-59.9857 L 356.027,-59.4771
 L 355.893,-58.9796 L 355.709,-58.4989 L 355.475,-58.04 L 355.195,-57.6081 L 354.871,-57.2079 L 354.506,-56.8437
 L 354.106,-56.5196 L 353.674,-56.2392 L 353.215,-56.0054 L 352.735,-55.8208 L 352.237,-55.6875 L 351.729,-55.607
 L 351.214,-55.58 z
M 522.557,-55.607 L 522.049,-55.6875 L 521.551,-55.8208 L 521.07,-56.0054 L 520.611,-56.2392 L 520.18,-56.5196
 L 519.779,-56.8437 L 519.415,-57.2079 L 519.091,-57.6081 L 518.811,-58.04 L 518.577,-58.4989 L 518.392,-58.9796
 L 518.259,-59.4771 L 518.178,-59.9857 L 518.151,-60.5 L 518.178,-61.0143 L 518.259,-61.5229 L 518.392,-62.0204
 L 518.577,-62.5011 L 518.811,-62.96 L 519.091,-63.3919 L 519.415,-63.7921 L 519.779,-64.1563 L 520.18,-64.4804
 L 520.521,-64.7024 L 520.521,-74 L 520.577,-74.5302 L 520.742,-75.0372 L 521.008,-75.4988 L 521.365,-75.895
 L 521.796,-76.2084 L 522.283,-76.4252 L 522.805,-76.536 L 523.338,-76.536 L 523.859,-76.4252 L 524.346,-76.2084
 L 524.778,-75.895 L 525.134,-75.4988 L 525.401,-75.0372 L 525.566,-74.5302 L 525.621,-74 L 525.621,-64.7024
 L 525.963,-64.4804 L 526.364,-64.1563 L 526.728,-63.7921 L 527.052,-63.3919 L 527.332,-62.96 L 527.566,-62.5011
 L 527.751,-62.0204 L 527.884,-61.5229 L 527.964,-61.0143 L 527.991,-60.5 L 527.964,-59.9857 L 527.884,-59.4771
 L 527.751,-58.9796 L 527.566,-58.4989 L 527.332,-58.04 L 527.052,-57.6081 L 526.728,-57.2079 L 526.364,-56.8437
 L 525.963,-56.5196 L 525.531,-56.2392 L 525.073,-56.0054 L 524.592,-55.8208 L 524.094,-55.6875 L 523.586,-55.607
 L 523.071,-55.58 z
M 694.414,-55.607 L 693.906,-55.6875 L 693.408,-55.8208 L 692.927,-56.0054 L 692.469,-56.2392 L 692.037,-56.5196
 L 691.636,-56.8437 L 691.272,-57.2079 L 690.948,-57.6081 L 690.668,-58.04 L 690.434,-58.4989 L 690.249,-58.9796
 L 690.116,-59.4771 L 690.036,-59.9857 L 690.009,-60.5 L 690.036,-61.0143 L 690.116,-61.5229 L 690.249,-62.0204
 L 690.434,-62.5011 L 690.668,-62.96 L 690.948,-63.3919 L 691.272,-63.7921 L 691.636,-64.1563 L 692.037,-64.4804
 L 692.379,-64.7024 L 692.379,-74 L 692.434,-74.5302 L 692.599,-75.0372 L 692.866,-75.4988 L 693.222,-75.895
 L 693.654,-76.2084 L 694.141,-76.4252 L 694.662,-76.536 L 695.195,-76.536 L 695.717,-76.4252 L 696.204,-76.2084
 L 696.635,-75.895 L 696.992,-75.4988 L 697.258,-75.0372 L 697.423,-74.5302 L 697.479,-74 L 697.479,-64.7024
 L 697.82,-64.4804 L 698.221,-64.1563 L 698.585,-63.7921 L 698.909,-63.3919 L 699.189,-62.96 L 699.423,-62.5011
 L 699.608,-62.0204 L 699.741,-61.5229 L 699.822,-61.0143 L 699.849,-60.5 L 699.822,-59.9857 L 699.741,-59.4771
 L 699.608,-58.9796 L 699.423,-58.4989 L 699.189,-58.04 L 698.909,-57.6081 L 698.585,-57.2079 L 698.221,-56.8437
 L 697.82,-56.5196 L 697.389,-56.2392 L 696.93,-56.0054 L 696.449,-55.8208 L 695.951,-55.6875 L 695.443,-55.607
 L 694.929,-55.58 z
M 866.271,-55.607 L 865.763,-55.6875 L 865.265,-55.8208 L 864.785,-56.0054 L 864.326,-56.2392 L 863.894,-56.5196
 L 863.494,-56.8437 L 863.129,-57.2079 L 862.805,-57.6081 L 862.525,-58.04 L 862.291,-58.4989 L 862.107,-58.9796
 L 861.973,-59.4771 L 861.893,-59.9857 L 861.866,-60.5 L 861.893,-61.0143 L 861.973,-61.5229 L 862.107,-62.0204
 L 862.291,-62.5011 L 862.525,-62.96 L 862.805,-63.3919 L 863.129,-63.7921 L 863.494,-64.1563 L 863.894,-64.4804
 L 864.236,-64.7024 L 864.236,-74 L 864.291,-74.5302 L 864.456,-75.0372 L 864.723,-75.4988 L 865.079,-75.895
 L 865.511,-76.2084 L 865.998,-76.4252 L 866.519,-76.536 L 867.052,-76.536 L 867.574,-76.4252 L 868.061,-76.2084
 L 868.492,-75.895 L 868.849,-75.4988 L 869.115,-75.0372 L 869.28,-74.5302 L 869.336,-74 L 869.336,-64.7024
 L 869.678,-64.4804 L 870.078,-64.1563 L 870.442,-63.7921 L 870.766,-63.3919 L 871.047,-62.96 L 871.28,-62.5011
 L 871.465,-62.0204 L 871.598,-61.5229 L 871.679,-61.0143 L 871.706,-60.5 L 871.679,-59.9857 L 871.598,-59.4771
 L 871.465,-58.9796 L 871.28,-58.4989 L 871.047,-58.04 L 870.766,-57.6081 L 870.442,-57.2079 L 870.078,-56.8437
 L 869.678,-56.5196 L 869.246,-56.2392 L 868.787,-56.0054 L 868.306,-55.8208 L 867.809,-55.6875 L 867.3,-55.607
 L 866.786,-55.58 z
M 1038.13,-55.607 L 1037.62,-55.6875 L 1037.12,-55.8208 L 1036.64,-56.0054 L 1036.18,-56.2392 L 1035.75,-56.5196
 L 1035.35,-56.8437 L 1034.99,-57.2079 L 1034.66,-57.6081 L 1034.38,-58.04 L 1034.15,-58.4989 L 1033.96,-58.9796
 L 1033.83,-59.4771 L 1033.75,-59.9857 L 1033.72,-60.5 L 1033.75,-61.0143 L 1033.83,-61.5229 L 1033.96,-62.0204
 L 1034.15,-62.5011 L 1034.38,-62.96 L 1034.66,-63.3919 L 1034.99,-63.7921 L 1035.35,-64.1563 L 1035.75,-64.4804
 L 1036.09,-64.7024 L 1036.09,-74 L 1036.15,-74.5302 L 1036.31,-75.0372 L 1036.58,-75.4988 L 1036.94,-75.895
 L 1037.37,-76.2084 L 1037.85,-76.4252 L 1038.38,-76.536 L 1038.91,-76.536 L 1039.43,-76.4252 L 1039.92,-76.2084
 L 1040.35,-75.895 L 1040.71,-75.4988 L 1040.97,-75.0372 L 1041.14,-74.5302 L 1041.19,-74 L 1041.19,-64.7024
 L 1041.53,-64.4804 L 1041.93,-64.1563 L 1042.3,-63.7921 L 1042.62,-63.3919 L 1042.9,-62.96 L 1043.14,-62.5011
 L 1043.32,-62.0204 L 1043.46,-61.5229 L 1043.54,-61.0143 L 1043.56,-60.5 L 1043.54,-59.9857 L 1043.46,-59.4771
 L 1043.32,-58.9796 L 1043.14,-58.4989 L 1042.9,-58.04 L 1042.62,-57.6081 L 1042.3,-57.2079 L 1041.93,-56.8437
 L 1041.53,-56.5196 L 1041.1,-56.2392 L 1040.64,-56.0054 L 1040.16,-55.8208 L 1039.67,-55.6875 L 1039.16,-55.607
 L 1038.64,-55.58 z
M 1209.99,-55.607 L 1209.48,-55.6875 L 1208.98,-55.8208 L 1208.5,-56.0054 L 1208.04,-56.2392 L 1207.61,-56.5196
 L 1207.21,-56.8437 L 1206.84,-57.2079 L 1206.52,-57.6081 L 1206.24,-58.04 L 1206.01,-58.4989 L 1205.82,-58.9796
 L 1205.69,-59.4771 L 1205.61,-59.9857 L 1205.58,-60.5 L 1205.61,-61.0143 L 1205.69,-61.5229 L 1205.82,-62.0204
 L 1206.01,-62.5011 L 1206.24,-62.96 L 1206.52,-63.3919 L 1206.84,-63.7921 L 1207.21,-64.1563 L 1207.61,-64.4804
 L 1207.95,-64.7024 L 1207.95,-74 L 1208.01,-74.5302 L 1208.17,-75.0372 L 1208.44,-75.4988 L 1208.79,-75.895
 L 1209.23,-76.2084 L 1209.71,-76.4252 L 1210.23,-76.536 L 1210.77,-76.536 L 1211.29,-76.4252 L 1211.77,-76.2084
 L 1212.21,-75.895 L 1212.56,-75.4988 L 1212.83,-75.0372 L 1212.99,-74.5302 L 1213.05,-74 L 1213.05,-64.7024
 L 1213.39,-64.4804 L 1213.79,-64.1563 L 1214.16,-63.7921 L 1214.48,-63.3919 L 1214.76,-62.96 L 1214.99,-62.5011
 L 1215.18,-62.0204 L 1215.31,-61.5229 L 1215.39,-61.0143 L 1215.42,-60.5 L 1215.39,-59.9857 L 1215.31,-59.4771
 L 1215.18,-58.9796 L 1214.99,-58.4989 L 1214.76,-58.04 L 1214.48,-57.6081 L 1214.16,-57.2079 L 1213.79,-56.8437
 L 1213.39,-56.5196 L 1212.96,-56.2392 L 1212.5,-56.0054 L 1212.02,-55.8208 L 1211.52,-55.6875 L 1211.01,-55.607
 L 1210.5,-55.58 z
M 706.933,-21.2379 L 706.149,-21.5296 L 705.443,-21.9778 L 704.846,-22.563 L 704.383,-23.2596 L 704.076,-24.0372
 L 703.929,-25.1121 L 703.929,-58 L 704.016,-58.8316 L 704.274,-59.627 L 704.693,-60.3511 L 705.252,-60.9726
 L 705.929,-61.4641 L 706.693,-61.8042 L 707.929,-62 L 791.047,-62 L 791.878,-61.9126 L 792.674,-61.6542
 L 793.398,-61.2361 L 794.019,-60.6765 L 794.511,-60 L 794.851,-59.2361 L 795.025,-58.4181 L 795.025,-57.5819
 L 794.851,-56.7639 L 794.511,-56 L 794.019,-55.3235 L 793.398,-54.7639 L 792.518,-54.2806 L 709.4,-21.3926
 L 708.595,-21.1679 L 707.76,-21.1156 z
M 608.334,-47.8752 L 607.528,-48.0999 L 591.908,-54.2806 L 591.028,-54.7639 L 590.407,-55.3235 L 589.915,-56
 L 589.575,-56.7639 L 589.401,-57.5819 L 589.401,-58.4181 L 589.575,-59.2361 L 589.915,-60 L 590.407,-60.6765
 L 591.028,-61.2361 L 591.752,-61.6542 L 592.548,-61.9126 L 593.379,-62 L 624.621,-62 L 625.616,-61.8741
 L 626.4,-61.5825 L 627.106,-61.1342 L 627.703,-60.549 L 628.166,-59.8524 L 628.473,-59.0748 L 628.613,-58.2503
 L 628.577,-57.4148 L 628.369,-56.6049 L 627.997,-55.856 L 627.478,-55.2007 L 626.833,-54.6678 L 626.092,-54.2806
 L 610.472,-48.0999 L 609.996,-47.9452 L 609.168,-47.8228 z
M 509.405,-21.1679 L 508.6,-21.3926 L 425.482,-54.2806 L 424.602,-54.7639 L 423.981,-55.3235 L 423.489,-56
 L 423.149,-56.7639 L 422.975,-57.5819 L 422.975,-58.4181 L 423.149,-59.2361 L 423.489,-60 L 423.981,-60.6765
 L 424.602,-61.2361 L 425.326,-61.6542 L 426.122,-61.9126 L 426.953,-62 L 510.071,-62 L 511.307,-61.8042
 L 512.071,-61.4641 L 512.748,-60.9726 L 513.307,-60.3511 L 513.726,-59.627 L 513.984,-58.8316 L 514.071,-58
 L 514.071,-25.1121 L 513.924,-24.0372 L 513.617,-23.2596 L 513.154,-22.563 L 512.557,-21.9778 L 511.851,-21.5296
 L 511.067,-21.2379 L 510.24,-21.1156 z
M 337.548,-21.1679 L 336.743,-21.3926 L 253.625,-54.2806 L 252.745,-54.7639 L 252.124,-55.3235 L 251.632,-56
 L 251.292,-56.7639 L 251.118,-57.5819 L 251.118,-58.4181 L 251.292,-59.2361 L 251.632,-60 L 252.124,-60.6765
 L 252.745,-61.2361 L 253.469,-61.6542 L 254.265,-61.9126 L 255.096,-62 L 338.214,-62 L 339.45,-61.8042
 L 340.214,-61.4641 L 340.891,-60.9726 L 341.45,-60.3511 L 341.868,-59.627 L 342.127,-58.8316 L 342.214,-58
 L 342.214,-25.1121 L 342.067,-24.0372 L 341.759,-23.2596 L 341.297,-22.563 L 340.7,-21.9778 L 339.994,-21.5296
 L 339.21,-21.2379 L 338.383,-21.1156 z
M 1050.65,-21.2379 L 1049.86,-21.5296 L 1049.16,-21.9778 L 1048.56,-22.563 L 1048.1,-23.2596 L 1047.79,-24.0372
 L 1047.64,-25.1121 L 1047.64,-58 L 1047.73,-58.8316 L 1047.99,-59.627 L 1048.41,-60.3511 L 1048.97,-60.9726
 L 1049.64,-61.4641 L 1050.41,-61.8042 L 1051.64,-62 L 1134.76,-62 L 1135.59,-61.9126 L 1136.39,-61.6542
 L 1137.11,-61.2361 L 1137.73,-60.6765 L 1138.22,-60 L 1138.57,-59.2361 L 1138.74,-58.4181 L 1138.74,-57.5819
 L 1138.57,-56.7639 L 1138.22,-56 L 1137.73,-55.3235 L 1137.11,-54.7639 L 1136.23,-54.2806 L 1053.11,-21.3926
 L 1052.31,-21.1679 L 1051.47,-21.1156 z
M 165.691,-21.1679 L 164.885,-21.3926 L 81.7674,-54.2806 L 80.888,-54.7639 L 80.2665,-55.3235 L 79.775,-56
 L 79.4349,-56.7639 L 79.261,-57.5819 L 79.261,-58.4181 L 79.4349,-59.2361 L 79.775,-60 L 80.2665,-60.6765
 L 80.888,-61.2361 L 81.6122,-61.6542 L 82.4075,-61.9126 L 83.2391,-62 L 166.357,-62 L 167.593,-61.8042
 L 168.357,-61.4641 L 169.034,-60.9726 L 169.593,-60.3511 L 170.011,-59.627 L 170.27,-58.8316 L 170.357,-58
 L 170.357,-25.1121 L 170.21,-24.0372 L 169.902,-23.2596 L 169.44,-22.563 L 168.842,-21.9778 L 168.136,-21.5296
 L 167.353,-21.2379 L 166.525,-21.1156 z
M 878.79,-21.2379 L 878.006,-21.5296 L 877.3,-21.9778 L 876.703,-22.563 L 876.241,-23.2596 L 875.933,-24.0372
 L 875.786,-25.1121 L 875.786,-58 L 875.873,-58.8316 L 876.132,-59.627 L 876.55,-60.3511 L 877.109,-60.9726
 L 877.786,-61.4641 L 878.55,-61.8042 L 879.786,-62 L 962.904,-62 L 963.735,-61.9126 L 964.531,-61.6542
 L 965.255,-61.2361 L 965.876,-60.6765 L 966.368,-60 L 966.708,-59.2361 L 966.882,-58.4181 L 966.882,-57.5819
 L 966.708,-56.7639 L 966.368,-56 L 965.876,-55.3235 L 965.255,-54.7639 L 964.375,-54.2806 L 881.257,-21.3926
 L 880.452,-21.1679 L 879.617,-21.1156 z
M 535.653,-18.985 L 534.835,-19.1589 L 534.071,-19.499 L 533.395,-19.9905 L 532.835,-20.612 L 532.417,-21.3362
 L 532.159,-22.1315 L 532.071,-22.9631 L 532.071,-57.0369 L 532.219,-58.1117 L 532.526,-58.8893 L 532.989,-59.5859
 L 533.586,-60.1711 L 534.292,-60.6193 L 535.076,-60.911 L 535.903,-61.0333 L 536.738,-60.981 L 537.543,-60.7563
 L 580.601,-43.7194 L 581.614,-43.1342 L 582.212,-42.549 L 582.674,-41.8524 L 582.982,-41.0748 L 583.121,-40.2503
 L 583.086,-39.4148 L 582.878,-38.6049 L 582.506,-37.856 L 581.986,-37.2007 L 581.342,-36.6678 L 580.601,-36.2806
 L 537.543,-19.2437 L 536.49,-18.985 z
M 681.262,-19.019 L 680.457,-19.2437 L 637.399,-36.2806 L 636.386,-36.8658 L 635.788,-37.451 L 635.326,-38.1476
 L 635.018,-38.9252 L 634.879,-39.7497 L 634.914,-40.5852 L 635.122,-41.3951 L 635.494,-42.144 L 636.014,-42.7993
 L 636.658,-43.3322 L 637.399,-43.7194 L 680.457,-60.7563 L 681.51,-61.015 L 682.347,-61.015 L 683.165,-60.8411
 L 683.929,-60.501 L 684.605,-60.0095 L 685.165,-59.388 L 685.583,-58.6638 L 685.841,-57.8685 L 685.929,-57.0369
 L 685.929,-22.9631 L 685.781,-21.8883 L 685.474,-21.1107 L 685.011,-20.4141 L 684.414,-19.8289 L 683.708,-19.3806
 L 682.924,-19.089 L 682.097,-18.9666 z
M 192.357,-18 L 191.121,-18.1958 L 190.357,-18.5359 L 189.681,-19.0274 L 189.121,-19.6489 L 188.703,-20.373
 L 188.445,-21.1684 L 188.357,-22 L 188.357,-54.8879 L 188.504,-55.9628 L 188.812,-56.7403 L 189.275,-57.437
 L 189.872,-58.0222 L 190.578,-58.4704 L 191.362,-58.762 L 192.189,-58.8844 L 193.023,-58.832 L 193.829,-58.6073
 L 276.947,-25.7194 L 277.826,-25.2361 L 278.448,-24.6765 L 278.939,-24 L 279.279,-23.2361 L 279.453,-22.4181
 L 279.453,-21.5819 L 279.279,-20.7639 L 278.939,-20 L 278.448,-19.3235 L 277.826,-18.7639 L 277.102,-18.3458
 L 276.307,-18.0874 L 275.475,-18 z
M 364.214,-18 L 362.978,-18.1958 L 362.214,-18.5359 L 361.538,-19.0274 L 360.978,-19.6489 L 360.56,-20.373
 L 360.302,-21.1684 L 360.214,-22 L 360.214,-54.8879 L 360.361,-55.9628 L 360.669,-56.7403 L 361.132,-57.437
 L 361.729,-58.0222 L 362.435,-58.4704 L 363.219,-58.762 L 364.046,-58.8844 L 364.88,-58.832 L 365.686,-58.6073
 L 448.804,-25.7194 L 449.683,-25.2361 L 450.305,-24.6765 L 450.796,-24 L 451.137,-23.2361 L 451.31,-22.4181
 L 451.31,-21.5819 L 451.137,-20.7639 L 450.796,-20 L 450.305,-19.3235 L 449.683,-18.7639 L 448.959,-18.3458
 L 448.164,-18.0874 L 447.332,-18 z
M 770.668,-18 L 769.836,-18.0874 L 769.041,-18.3458 L 768.317,-18.7639 L 767.695,-19.3235 L 767.204,-20
 L 766.863,-20.7639 L 766.69,-21.5819 L 766.69,-22.4181 L 766.863,-23.2361 L 767.204,-24 L 767.695,-24.6765
 L 768.317,-25.2361 L 769.196,-25.7194 L 852.314,-58.6073 L 853.119,-58.832 L 853.954,-58.8844 L 854.781,-58.762
 L 855.565,-58.4704 L 856.271,-58.0222 L 856.868,-57.437 L 857.331,-56.7403 L 857.639,-55.9628 L 857.786,-54.8879
 L 857.786,-22 L 857.698,-21.1684 L 857.44,-20.373 L 857.022,-19.6489 L 856.462,-19.0274 L 855.786,-18.5359
 L 855.022,-18.1958 L 853.786,-18 z
M 942.525,-18 L 941.693,-18.0874 L 940.898,-18.3458 L 940.174,-18.7639 L 939.552,-19.3235 L 939.061,-20
 L 938.721,-20.7639 L 938.547,-21.5819 L 938.547,-22.4181 L 938.721,-23.2361 L 939.061,-24 L 939.552,-24.6765
 L 940.174,-25.2361 L 941.053,-25.7194 L 1024.17,-58.6073 L 1024.98,-58.832 L 1025.81,-58.8844 L 1026.64,-58.762
 L 1027.42,-58.4704 L 1028.13,-58.0222 L 1028.73,-57.437 L 1029.19,-56.7403 L 1029.5,-55.9628 L 1029.64,-54.8879
 L 1029.64,-22 L 1029.56,-21.1684 L 1029.3,-20.373 L 1028.88,-19.6489 L 1028.32,-19.0274 L 1027.64,-18.5359
 L 1026.88,-18.1958 L 1025.64,-18 z
M 22,-18 L 20.7639,-18.1958 L 20,-18.5359 L 19.3235,-19.0274 L 18.7639,-19.6489 L 18.3458,-20.373
 L 18.0874,-21.1684 L 18,-22 L 18,-54.2944 L 18.1471,-55.3692 L 18.4548,-56.1468 L 18.9174,-56.8434
 L 19.5147,-57.4286 L 20.2207,-57.8769 L 21.0044,-58.1685 L 21.8316,-58.2909 L 22.6662,-58.2385 L 23.4717,-58.0138
 L 105.09,-25.7194 L 105.969,-25.2361 L 106.591,-24.6765 L 107.082,-24 L 107.422,-23.2361 L 107.596,-22.4181
 L 107.596,-21.5819 L 107.422,-20.7639 L 107.082,-20 L 106.591,-19.3235 L 105.969,-18.7639 L 105.245,-18.3458
 L 104.45,-18.0874 L 103.618,-18 z
M 1114.38,-18 L 1113.55,-18.0874 L 1112.76,-18.3458 L 1112.03,-18.7639 L 1111.41,-19.3235 L 1110.92,-20
 L 1110.58,-20.7639 L 1110.4,-21.5819 L 1110.4,-22.4181 L 1110.58,-23.2361 L 1110.92,-24 L 1111.41,-24.6765
 L 1112.03,-25.2361 L 1112.91,-25.7194 L 1194.53,-58.0138 L 1195.33,-58.2385 L 1196.17,-58.2909 L 1197,-58.1685
 L 1197.78,-57.8769 L 1198.49,-57.4286 L 1199.08,-56.8434 L 1199.55,-56.1468 L 1199.85,-55.3692 L 1200,-54.2944
 L 1200,-22 L 1199.91,-21.1684 L 1199.65,-20.373 L 1199.24,-19.6489 L 1198.68,-19.0274 L 1198,-18.5359
 L 1197.24,-18.1958 L 1196,-18 z
M 593.379,-18 L 592.384,-18.1259 L 591.6,-18.4175 L 590.894,-18.8658 L 590.297,-19.451 L 589.834,-20.1476
 L 589.527,-20.9252 L 589.387,-21.7497 L 589.422,-22.5852 L 589.631,-23.3951 L 590.003,-24.144 L 590.522,-24.7993
 L 591.167,-25.3322 L 591.908,-25.7194 L 607.528,-31.9001 L 608.004,-32.0548 L 608.832,-32.1772 L 609.666,-32.1248
 L 610.472,-31.9001 L 626.092,-25.7194 L 626.972,-25.2361 L 627.593,-24.6765 L 628.085,-24 L 628.425,-23.2361
 L 628.599,-22.4181 L 628.599,-21.5819 L 628.425,-20.7639 L 628.085,-20 L 627.593,-19.3235 L 626.972,-18.7639
 L 626.247,-18.3458 L 625.452,-18.0874 L 624.621,-18 z
" stroke="black" fill="lightgray" stroke-width="0.5"/>
</svg>
