<?xml version="1.0" standalone="no"?>
<!DOCTYPE svg PUBLIC "-//W3C//DTD SVG 1.1//EN" "http://www.w3.org/Graphics/SVG/1.1/DTD/svg11.dtd">
<svg width="1277mm" height="80mm" viewBox="0 -80 1277 80" xmlns="http://www.w3.org/2000/svg" version="1.1">
<title>OpenSCAD Model</title>
<path d="
M 1277,-80 L 0,-80 L 0,-0 L 4.95,-0 L 4.95,-6 L 5.00572,-6.53017
 L 5.17046,-7.03717 L 5.437,-7.49884 L 5.79372,-7.895 L 6.22499,-8.20836 L 6.71201,-8.42519 L 7.23344,-8.53603
 L 7.76654,-8.53603 L 8.28798,-8.42519 L 8.77499,-8.20836 L 9.20627,-7.895 L 9.56299,-7.49884 L 9.82953,-7.03717
 L 9.99426,-6.53017 L 10.05,-6 L 10.05,-0 L 185.236,-0 L 185.236,-6 L 185.291,-6.53017
 L 185.456,-7.03717 L 185.723,-7.49884 L 186.079,-7.895 L 186.511,-8.20836 L 186.998,-8.42519 L 187.519,-8.53603
 L 188.052,-8.53603 L 188.574,-8.42519 L 189.061,-8.20836 L 189.492,-7.895 L 189.849,-7.49884 L 190.115,-7.03717
 L 190.28,-6.53017 L 190.336,-6 L 190.336,-0 L 365.521,-0 L 365.521,-6 L 365.577,-6.53017
 L 365.742,-7.03717 L 366.008,-7.49884 L 366.365,-7.895 L 366.796,-8.20836 L 367.283,-8.42519 L 367.805,-8.53603
 L 368.338,-8.53603 L 368.859,-8.42519 L 369.346,-8.20836 L 369.778,-7.895 L 370.134,-7.49884 L 370.401,-7.03717
 L 370.566,-6.53017 L 370.621,-6 L 370.621,-0 L 545.807,-0 L 545.807,-6 L 545.863,-6.53017
 L 546.028,-7.03717 L 546.294,-7.49884 L 546.651,-7.895 L 547.082,-8.20836 L 547.569,-8.42519 L 548.091,-8.53603
 L 548.624,-8.53603 L 549.145,-8.42519 L 549.632,-8.20836 L 550.063,-7.895 L 550.42,-7.49884 L 550.687,-7.03717
 L 550.851,-6.53017 L 550.907,-6 L 550.907,-0 L 726.093,-0 L 726.093,-6 L 726.149,-6.53017
 L 726.313,-7.03717 L 726.58,-7.49884 L 726.937,-7.895 L 727.368,-8.20836 L 727.855,-8.42519 L 728.376,-8.53603
 L 728.909,-8.53603 L 729.431,-8.42519 L 729.918,-8.20836 L 730.349,-7.895 L 730.706,-7.49884 L 730.972,-7.03717
 L 731.137,-6.53017 L 731.193,-6 L 731.193,-0 L 906.379,-0 L 906.379,-6 L 906.434,-6.53017
 L 906.599,-7.03717 L 906.866,-7.49884 L 907.222,-7.895 L 907.654,-8.20836 L 908.141,-8.42519 L 908.662,-8.53603
 L 909.195,-8.53603 L 909.717,-8.42519 L 910.204,-8.20836 L 910.635,-7.895 L 910.992,-7.49884 L 911.258,-7.03717
 L 911.423,-6.53017 L 911.479,-6 L 911.479,-0 L 1086.66,-0 L 1086.66,-6 L 1086.72,-6.53017
 L 1086.88,-7.03717 L 1087.15,-7.49884 L 1087.51,-7.895 L 1087.94,-8.20836 L 1088.43,-8.42519 L 1088.95,-8.53603
 L 1089.48,-8.53603 L 1090,-8.42519 L 1090.49,-8.20836 L 1090.92,-7.895 L 1091.28,-7.49884 L 1091.54,-7.03717
 L 1091.71,-6.53017 L 1091.76,-6 L 1091.76,-0 L 1266.95,-0 L 1266.95,-6 L 1267.01,-6.53017
 L 1267.17,-7.03717 L 1267.44,-7.49884 L 1267.79,-7.895 L 1268.22,-8.20836 L 1268.71,-8.42519 L 1269.23,-8.53603
 L 1269.77,-8.53603 L 1270.29,-8.42519 L 1270.77,-8.20836 L 1271.21,-7.895 L 1271.56,-7.49884 L 1271.83,-7.03717
 L 1271.99,-6.53017 L 1272.05,-6 L 1272.05,-0 L 1277,-0 z
M 6.98573,-55.607 L 6.47708,-55.6875 L 5.97964,-55.8208 L 5.49887,-56.0054 L 5.04001,-56.2392 L 4.60811,-56.5196
 L 4.20789,-56.8437 L 3.84373,-57.2079 L 3.51964,-57.6081 L 3.23917,-58.04 L 3.00537,-58.4989 L 2.82082,-58.9796
 L 2.68752,-59.4771 L 2.60696,-59.9857 L 2.58,-60.5 L 2.60696,-61.0143 L 2.68752,-61.5229 L 2.82082,-62.0204
 L 3.00537,-62.5011 L 3.23917,-62.96 L 3.51964,-63.3919 L 3.84373,-63.7921 L 4.20789,-64.1563 L 4.60811,-64.4804
 L 4.95001,-64.7024 L 4.95001,-74 L 5.00574,-74.5302 L 5.17047,-75.0372 L 5.43701,-75.4988 L 5.79373,-75.895
 L 6.22501,-76.2084 L 6.71202,-76.4252 L 7.23346,-76.536 L 7.76654,-76.536 L 8.28798,-76.4252 L 8.77499,-76.2084
 L 9.20627,-75.895 L 9.56299,-75.4988 L 9.82953,-75.0372 L 9.99426,-74.5302 L 10.05,-74 L 10.05,-64.7024
 L 10.3919,-64.4804 L 10.7921,-64.1563 L 11.1563,-63.7921 L 11.4804,-63.3919 L 11.7608,-62.96 L 11.9946,-62.5011
 L 12.1792,-62.0204 L 12.3125,-61.5229 L 12.393,-61.0143 L 12.42,-60.5 L 12.393,-59.9857 L 12.3125,-59.4771
 L 12.1792,-58.9796 L 11.9946,-58.4989 L 11.7608,-58.04 L 11.4804,-57.6081 L 11.1563,-57.2079 L 10.7921,-56.8437
 L 10.3919,-56.5196 L 9.95999,-56.2392 L 9.50113,-56.0054 L 9.02036,-55.8208 L 8.52292,-55.6875 L 8.01427,-55.607
 L 7.5,-55.58 z
M 187.271,-55.607 L 186.763,-55.6875 L 186.265,-55.8208 L 185.785,-56.0054 L 185.326,-56.2392 L 184.894,-56.5196
 L 184.494,-56.8437 L 184.129,-57.2079 L 183.805,-57.6081 L 183.525,-58.04 L 183.291,-58.4989 L 183.107,-58.9796
 L 182.973,-59.4771 L 182.893,-59.9857 L 182.866,-60.5 L 182.893,-61.0143 L 182.973,-61.5229 L 183.107,-62.0204
 L 183.291,-62.5011 L 183.525,-62.96 L 183.805,-63.3919 L 184.129,-63.7921 L 184.494,-64.1563 L 184.894,-64.4804
 L 185.236,-64.7024 L 185.236,-74 L 185.291,-74.5302 L 185.456,-75.0372 L 185.723,-75.4988 L 186.079,-75.895
 L 186.511,-76.2084 L 186.998,-76.4252 L 187.519,-76.536 L 188.052,-76.536 L 188.574,-76.4252 L 189.061,-76.2084
 L 189.492,-75.895 L 189.849,-75.4988 L 190.115,-75.0372 L 190.28,-74.5302 L 190.336,-74 L 190.336,-64.7024
 L 190.678,-64.4804 L 191.078,-64.1563 L 191.442,-63.7921 L 191.766,-63.3919 L 192.047,-62.96 L 192.28,-62.5011
 L 192.465,-62.0204 L 192.598,-61.5229 L 192.679,-61.0143 L 192.706,-60.5 L 192.679,-59.9857 L 192.598,-59.4771
 L 192.465,-58.9796 L 192.28,-58.4989 L 192.047,-58.04 L 191.766,-57.6081 L 191.442,-57.2079 L 191.078,-56.8437
 L 190.678,-56.5196 L 190.246,-56.2392 L 189.787,-56.0054 L 189.306,-55.8208 L 188.809,-55.6875 L 188.3,-55.607
 L 187.786,-55.58 z
M 367.557,-55.607 L 367.049,-55.6875 L 366.551,-55.8208 L 366.07,-56.0054 L 365.611,-56.2392 L 365.18,-56.5196
 L 364.779,-56.8437 L 364.415,-57.2079 L 364.091,-57.6081 L 363.811,-58.04 L 363.577,-58.4989 L 363.392,-58.9796
 L 363.259,-59.4771 L 363.178,-59.9857 L 363.151,-60.5 L 363.178,-61.0143 L 363.259,-61.5229 L 363.392,-62.0204
 L 363.577,-62.5011 L 363.811,-62.96 L 364.091,-63.3919 L 364.415,-63.7921 L 364.779,-64.1563 L 365.18,-64.4804
 L 365.521,-64.7024 L 365.521,-74 L 365.577,-74.5302 L 365.742,-75.0372 L 366.008,-75.4988 L 366.365,-75.895
 L 366.796,-76.2084 L 367.283,-76.4252 L 367.805,-76.536 L 368.338,-76.536 L 368.859,-76.4252 L 369.346,-76.2084
 L 369.778,-75.895 L 370.134,-75.4988 L 370.401,-75.0372 L 370.566,-74.5302 L 370.621,-74 L 370.621,-64.7024
 L 370.963,-64.4804 L 371.364,-64.1563 L 371.728,-63.7921 L 372.052,-63.3919 L 372.332,-62.96 L 372.566,-62.5011
 L 372.751,-62.0204 L 372.884,-61.5229 L 372.964,-61.0143 L 372.991,-60.5 L 372.964,-59.9857 L 372.884,-59.4771
 L 372.751,-58.9796 L 372.566,-58.4989 L 372.332,-58.04 L 372.052,-57.6081 L 371.728,-57.2079 L 371.364,-56.8437
 L 370.963,-56.5196 L 370.531,-56.2392 L 370.073,-56.0054 L 369.592,-55.8208 L 369.094,-55.6875 L 368.586,-55.607
 L 368.071,-55.58 z
M 547.843,-55.607 L 547.334,-55.6875 L 546.837,-55.8208 L 546.356,-56.0054 L 545.897,-56.2392 L 545.465,-56.5196
 L 545.065,-56.8437 L 544.701,-57.2079 L 544.377,-57.6081 L 544.096,-58.04 L 543.863,-58.4989 L 543.678,-58.9796
 L 543.545,-59.4771 L 543.464,-59.9857 L 543.437,-60.5 L 543.464,-61.0143 L 543.545,-61.5229 L 543.678,-62.0204
 L 543.863,-62.5011 L 544.096,-62.96 L 544.377,-63.3919 L 544.701,-63.7921 L 545.065,-64.1563 L 545.465,-64.4804
 L 545.807,-64.7024 L 545.807,-74 L 545.863,-74.5302 L 546.028,-75.0372 L 546.294,-75.4988 L 546.651,-75.895
 L 547.082,-76.2084 L 547.569,-76.4252 L 548.091,-76.536 L 548.624,-76.536 L 549.145,-76.4252 L 549.632,-76.2084
 L 550.063,-75.895 L 550.42,-75.4988 L 550.687,-75.0372 L 550.851,-74.5302 L 550.907,-74 L 550.907,-64.7024
 L 551.249,-64.4804 L 551.649,-64.1563 L 552.013,-63.7921 L 552.337,-63.3919 L 552.618,-62.96 L 552.852,-62.5011
 L 553.036,-62.0204 L 553.17,-61.5229 L 553.25,-61.0143 L 553.277,-60.5 L 553.25,-59.9857 L 553.17,-59.4771
 L 553.036,-58.9796 L 552.852,-58.4989 L 552.618,-58.04 L 552.337,-57.6081 L 552.013,-57.2079 L 551.649,-56.8437
 L 551.249,-56.5196 L 550.817,-56.2392 L 550.358,-56.0054 L 549.877,-55.8208 L 549.38,-55.6875 L 548.871,-55.607
 L 548.357,-55.58 z
M 728.129,-55.607 L 727.62,-55.6875 L 727.122,-55.8208 L 726.642,-56.0054 L 726.183,-56.2392 L 725.751,-56.5196
 L 725.351,-56.8437 L 724.987,-57.2079 L 724.662,-57.6081 L 724.382,-58.04 L 724.148,-58.4989 L 723.964,-58.9796
 L 723.83,-59.4771 L 723.75,-59.9857 L 723.723,-60.5 L 723.75,-61.0143 L 723.83,-61.5229 L 723.964,-62.0204
 L 724.148,-62.5011 L 724.382,-62.96 L 724.662,-63.3919 L 724.987,-63.7921 L 725.351,-64.1563 L 725.751,-64.4804
 L 726.093,-64.7024 L 726.093,-74 L 726.149,-74.5302 L 726.313,-75.0372 L 726.58,-75.4988 L 726.937,-75.895
 L 727.368,-76.2084 L 727.855,-76.4252 L 728.376,-76.536 L 728.909,-76.536 L 729.431,-76.4252 L 729.918,-76.2084
 L 730.349,-75.895 L 730.706,-75.4988 L 730.972,-75.0372 L 731.137,-74.5302 L 731.193,-74 L 731.193,-64.7024
 L 731.535,-64.4804 L 731.935,-64.1563 L 732.299,-63.7921 L 732.623,-63.3919 L 732.904,-62.96 L 733.137,-62.5011
 L 733.322,-62.0204 L 733.455,-61.5229 L 733.536,-61.0143 L 733.563,-60.5 L 733.536,-59.9857 L 733.455,-59.4771
 L 733.322,-58.9796 L 733.137,-58.4989 L 732.904,-58.04 L 732.623,-57.6081 L 732.299,-57.2079 L 731.935,-56.8437
 L 731.535,-56.5196 L 731.103,-56.2392 L 730.644,-56.0054 L 730.163,-55.8208 L 729.666,-55.6875 L 729.157,-55.607
 L 728.643,-55.58 z
M 908.414,-55.607 L 907.906,-55.6875 L 907.408,-55.8208 L 906.927,-56.0054 L 906.469,-56.2392 L 906.037,-56.5196
 L 905.636,-56.8437 L 905.272,-57.2079 L 904.948,-57.6081 L 904.668,-58.04 L 904.434,-58.4989 L 904.249,-58.9796
 L 904.116,-59.4771 L 904.036,-59.9857 L 904.009,-60.5 L 904.036,-61.0143 L 904.116,-61.5229 L 904.249,-62.0204
 L 904.434,-62.5011 L 904.668,-62.96 L 904.948,-63.3919 L 905.272,-63.7921 L 905.636,-64.1563 L 906.037,-64.4804
 L 906.379,-64.7024 L 906.379,-74 L 906.434,-74.5302 L 906.599,-75.0372 L 906.866,-75.4988 L 907.222,-75.895
 L 907.654,-76.2084 L 908.141,-76.4252 L 908.662,-76.536 L 909.195,-76.536 L 909.717,-76.4252 L 910.204,-76.2084
 L 910.635,-75.895 L 910.992,-75.4988 L 911.258,-75.0372 L 911.423,-74.5302 L 911.479,-74 L 911.479,-64.7024
 L 911.82,-64.4804 L 912.221,-64.1563 L 912.585,-63.7921 L 912.909,-63.3919 L 913.189,-62.96 L 913.423,-62.5011
 L 913.608,-62.0204 L 913.741,-61.5229 L 913.822,-61.0143 L 913.849,-60.5 L 913.822,-59.9857 L 913.741,-59.4771
 L 913.608,-58.9796 L 913.423,-58.4989 L 913.189,-58.04 L 912.909,-57.6081 L 912.585,-57.2079 L 912.221,-56.8437
 L 911.82,-56.5196 L 911.389,-56.2392 L 910.93,-56.0054 L 910.449,-55.8208 L 909.951,-55.6875 L 909.443,-55.607
 L 908.929,-55.58 z
M 1088.7,-55.607 L 1088.19,-55.6875 L 1087.69,-55.8208 L 1087.21,-56.0054 L 1086.75,-56.2392 L 1086.32,-56.5196
 L 1085.92,-56.8437 L 1085.56,-57.2079 L 1085.23,-57.6081 L 1084.95,-58.04 L 1084.72,-58.4989 L 1084.54,-58.9796
 L 1084.4,-59.4771 L 1084.32,-59.9857 L 1084.29,-60.5 L 1084.32,-61.0143 L 1084.4,-61.5229 L 1084.54,-62.0204
 L 1084.72,-62.5011 L 1084.95,-62.96 L 1085.23,-63.3919 L 1085.56,-63.7921 L 1085.92,-64.1563 L 1086.32,-64.4804
 L 1086.66,-64.7024 L 1086.66,-74 L 1086.72,-74.5302 L 1086.88,-75.0372 L 1087.15,-75.4988 L 1087.51,-75.895
 L 1087.94,-76.2084 L 1088.43,-76.4252 L 1088.95,-76.536 L 1089.48,-76.536 L 1090,-76.4252 L 1090.49,-76.2084
 L 1090.92,-75.895 L 1091.28,-75.4988 L 1091.54,-75.0372 L 1091.71,-74.5302 L 1091.76,-74 L 1091.76,-64.7024
 L 1092.11,-64.4804 L 1092.51,-64.1563 L 1092.87,-63.7921 L 1093.19,-63.3919 L 1093.48,-62.96 L 1093.71,-62.5011
 L 1093.89,-62.0204 L 1094.03,-61.5229 L 1094.11,-61.0143 L 1094.13,-60.5 L 1094.11,-59.9857 L 1094.03,-59.4771
 L 1093.89,-58.9796 L 1093.71,-58.4989 L 1093.48,-58.04 L 1093.19,-57.6081 L 1092.87,-57.2079 L 1092.51,-56.8437
 L 1092.11,-56.5196 L 1091.67,-56.2392 L 1091.22,-56.0054 L 1090.73,-55.8208 L 1090.24,-55.6875 L 1089.73,-55.607
 L 1089.21,-55.58 z
M 1268.99,-55.607 L 1268.48,-55.6875 L 1267.98,-55.8208 L 1267.5,-56.0054 L 1267.04,-56.2392 L 1266.61,-56.5196
 L 1266.21,-56.8437 L 1265.84,-57.2079 L 1265.52,-57.6081 L 1265.24,-58.04 L 1265.01,-58.4989 L 1264.82,-58.9796
 L 1264.69,-59.4771 L 1264.61,-59.9857 L 1264.58,-60.5 L 1264.61,-61.0143 L 1264.69,-61.5229 L 1264.82,-62.0204
 L 1265.01,-62.5011 L 1265.24,-62.96 L 1265.52,-63.3919 L 1265.84,-63.7921 L 1266.21,-64.1563 L 1266.61,-64.4804
 L 1266.95,-64.7024 L 1266.95,-74 L 1267.01,-74.5302 L 1267.17,-75.0372 L 1267.44,-75.4988 L 1267.79,-75.895
 L 1268.23,-76.2084 L 1268.71,-76.4252 L 1269.23,-76.536 L 1269.77,-76.536 L 1270.29,-76.4252 L 1270.77,-76.2084
 L 1271.21,-75.895 L 1271.56,-75.4988 L 1271.83,-75.0372 L 1271.99,-74.5302 L 1272.05,-74 L 1272.05,-64.7024
 L 1272.39,-64.4804 L 1272.79,-64.1563 L 1273.16,-63.7921 L 1273.48,-63.3919 L 1273.76,-62.96 L 1273.99,-62.5011
 L 1274.18,-62.0204 L 1274.31,-61.5229 L 1274.39,-61.0143 L 1274.42,-60.5 L 1274.39,-59.9857 L 1274.31,-59.4771
 L 1274.18,-58.9796 L 1273.99,-58.4989 L 1273.76,-58.04 L 1273.48,-57.6081 L 1273.16,-57.2079 L 1272.79,-56.8437
 L 1272.39,-56.5196 L 1271.96,-56.2392 L 1271.5,-56.0054 L 1271.02,-55.8208 L 1270.52,-55.6875 L 1270.01,-55.607
 L 1269.5,-55.58 z
M 740.585,-20.9247 L 739.806,-21.2289 L 739.107,-21.6884 L 738.52,-22.2832 L 738.068,-22.9872 L 737.773,-23.7696
 L 737.643,-24.7823 L 737.643,-58 L 737.73,-58.8316 L 737.989,-59.627 L 738.407,-60.3511 L 738.966,-60.9726
 L 739.643,-61.4641 L 740.407,-61.8042 L 741.643,-62 L 829.712,-62 L 830.543,-61.9126 L 831.339,-61.6542
 L 832.063,-61.2361 L 832.684,-60.6765 L 833.176,-60 L 833.516,-59.2361 L 833.69,-58.4181 L 833.69,-57.5819
 L 833.516,-56.7639 L 833.176,-56 L 832.684,-55.3235 L 832.063,-54.7639 L 831.123,-54.2574 L 743.054,-21.0396
 L 742.246,-20.8279 L 741.41,-20.789 z
M 637.897,-47.7894 L 637.088,-48.0011 L 620.501,-54.2574 L 619.562,-54.7639 L 618.94,-55.3235 L 618.449,-56
 L 618.109,-56.7639 L 617.935,-57.5819 L 617.935,-58.4181 L 618.109,-59.2361 L 618.449,-60 L 618.94,-60.6765
 L 619.562,-61.2361 L 620.286,-61.6542 L 621.081,-61.9126 L 621.913,-62 L 655.087,-62 L 656.145,-61.8576
 L 656.924,-61.5534 L 657.622,-61.0938 L 658.21,-60.4991 L 658.662,-59.7951 L 658.957,-59.0127 L 659.083,-58.186
 L 659.034,-57.3512 L 658.813,-56.5447 L 658.429,-55.8019 L 657.899,-55.1551 L 657.246,-54.6327 L 656.499,-54.2574
 L 639.912,-48.0011 L 638.733,-47.7505 z
M 534.754,-20.8279 L 533.945,-21.0396 L 445.877,-54.2574 L 444.937,-54.7639 L 444.316,-55.3235 L 443.824,-56
 L 443.484,-56.7639 L 443.31,-57.5819 L 443.31,-58.4181 L 443.484,-59.2361 L 443.824,-60 L 444.316,-60.6765
 L 444.937,-61.2361 L 445.661,-61.6542 L 446.457,-61.9126 L 447.288,-62 L 535.357,-62 L 536.593,-61.8042
 L 537.357,-61.4641 L 538.034,-60.9726 L 538.593,-60.3511 L 539.011,-59.627 L 539.27,-58.8316 L 539.357,-58
 L 539.357,-24.7823 L 539.227,-23.7696 L 538.932,-22.9872 L 538.48,-22.2832 L 537.893,-21.6884 L 537.194,-21.2289
 L 536.415,-20.9247 L 535.59,-20.789 z
M 354.469,-20.8279 L 353.66,-21.0396 L 265.591,-54.2574 L 264.651,-54.7639 L 264.03,-55.3235 L 263.538,-56
 L 263.198,-56.7639 L 263.024,-57.5819 L 263.024,-58.4181 L 263.198,-59.2361 L 263.538,-60 L 264.03,-60.6765
 L 264.651,-61.2361 L 265.376,-61.6542 L 266.171,-61.9126 L 267.003,-62 L 355.071,-62 L 356.307,-61.8042
 L 357.071,-61.4641 L 357.748,-60.9726 L 358.307,-60.3511 L 358.726,-59.627 L 358.984,-58.8316 L 359.071,-58
 L 359.071,-24.7823 L 358.941,-23.7696 L 358.646,-22.9872 L 358.195,-22.2832 L 357.607,-21.6884 L 356.908,-21.2289
 L 356.129,-20.9247 L 355.304,-20.789 z
M 1101.16,-20.9247 L 1100.38,-21.2289 L 1099.68,-21.6884 L 1099.09,-22.2832 L 1098.64,-22.9872 L 1098.34,-23.7696
 L 1098.21,-24.7823 L 1098.21,-58 L 1098.3,-58.8316 L 1098.56,-59.627 L 1098.98,-60.3511 L 1099.54,-60.9726
 L 1100.21,-61.4641 L 1100.98,-61.8042 L 1102.21,-62 L 1190.28,-62 L 1191.11,-61.9126 L 1191.91,-61.6542
 L 1192.63,-61.2361 L 1193.26,-60.6765 L 1193.75,-60 L 1194.09,-59.2361 L 1194.26,-58.4181 L 1194.26,-57.5819
 L 1194.09,-56.7639 L 1193.75,-56 L 1193.26,-55.3235 L 1192.63,-54.7639 L 1191.69,-54.2574 L 1103.63,-21.0396
 L 1102.82,-20.8279 L 1101.98,-20.789 z
M 174.183,-20.8279 L 173.374,-21.0396 L 85.3052,-54.2574 L 84.3657,-54.7639 L 83.7443,-55.3235 L 83.2527,-56
 L 82.9126,-56.7639 L 82.7388,-57.5819 L 82.7388,-58.4181 L 82.9126,-59.2361 L 83.2527,-60 L 83.7443,-60.6765
 L 84.3657,-61.2361 L 85.0899,-61.6542 L 85.8852,-61.9126 L 86.7168,-62 L 174.786,-62 L 176.022,-61.8042
 L 176.786,-61.4641 L 177.462,-60.9726 L 178.022,-60.3511 L 178.44,-59.627 L 178.698,-58.8316 L 178.786,-58
 L 178.786,-24.7823 L 178.655,-23.7696 L 178.36,-22.9872 L 177.909,-22.2832 L 177.321,-21.6884 L 176.622,-21.2289
 L 175.844,-20.9247 L 175.018,-20.789 z
M 920.871,-20.9247 L 920.092,-21.2289 L 919.393,-21.6884 L 918.805,-22.2832 L 918.354,-22.9872 L 918.059,-23.7696
 L 917.929,-24.7823 L 917.929,-58 L 918.016,-58.8316 L 918.274,-59.627 L 918.693,-60.3511 L 919.252,-60.9726
 L 919.929,-61.4641 L 920.693,-61.8042 L 921.929,-62 L 1010,-62 L 1010.83,-61.9126 L 1011.62,-61.6542
 L 1012.35,-61.2361 L 1012.97,-60.6765 L 1013.46,-60 L 1013.8,-59.2361 L 1013.98,-58.4181 L 1013.98,-57.5819
 L 1013.8,-56.7639 L 1013.46,-56 L 1012.97,-55.3235 L 1012.35,-54.7639 L 1011.41,-54.2574 L 923.34,-21.0396
 L 922.531,-20.8279 L 921.696,-20.789 z
M 560.939,-18.669 L 560.121,-18.8428 L 559.357,-19.183 L 558.681,-19.6745 L 558.121,-20.2959 L 557.703,-21.0201
 L 557.445,-21.8154 L 557.357,-22.647 L 557.357,-57.353 L 557.487,-58.3656 L 557.783,-59.1481 L 558.234,-59.852
 L 558.822,-60.4468 L 559.52,-60.9063 L 560.299,-61.2105 L 561.124,-61.3462 L 561.96,-61.3073 L 562.769,-61.0956
 L 608.776,-43.7426 L 609.201,-43.5534 L 609.9,-43.0938 L 610.488,-42.4991 L 610.939,-41.7951 L 611.234,-41.0127
 L 611.36,-40.186 L 611.311,-39.3512 L 611.09,-38.5447 L 610.706,-37.8019 L 610.176,-37.1551 L 609.523,-36.6327
 L 608.776,-36.2574 L 562.769,-18.9044 L 561.775,-18.669 z
M 715.04,-18.6927 L 714.231,-18.9044 L 668.224,-36.2574 L 667.799,-36.4466 L 667.1,-36.9062 L 666.512,-37.5009
 L 666.061,-38.2049 L 665.766,-38.9873 L 665.64,-39.814 L 665.689,-40.6488 L 665.91,-41.4552 L 666.294,-42.1981
 L 666.824,-42.8449 L 667.477,-43.3673 L 668.224,-43.7426 L 714.231,-61.0956 L 715.225,-61.3311 L 716.061,-61.3311
 L 716.879,-61.1572 L 717.643,-60.8171 L 718.319,-60.3255 L 718.879,-59.7041 L 719.297,-58.9799 L 719.555,-58.1846
 L 719.643,-57.353 L 719.643,-22.647 L 719.513,-21.6343 L 719.217,-20.8519 L 718.766,-20.1479 L 718.178,-19.5532
 L 717.48,-19.0937 L 716.701,-18.7894 L 715.876,-18.6538 z
M 200.786,-18 L 199.55,-18.1958 L 198.786,-18.5359 L 198.109,-19.0274 L 197.55,-19.6489 L 197.132,-20.373
 L 196.873,-21.1684 L 196.786,-22 L 196.786,-55.2177 L 196.916,-56.2304 L 197.211,-57.0128 L 197.662,-57.7168
 L 198.25,-58.3116 L 198.949,-58.7711 L 199.728,-59.0753 L 200.553,-59.211 L 201.388,-59.1721 L 202.197,-58.9604
 L 290.266,-25.7426 L 291.206,-25.2361 L 291.827,-24.6765 L 292.319,-24 L 292.659,-23.2361 L 292.833,-22.4181
 L 292.833,-21.5819 L 292.659,-20.7639 L 292.319,-20 L 291.827,-19.3235 L 291.206,-18.7639 L 290.482,-18.3458
 L 289.686,-18.0874 L 288.855,-18 z
M 381.071,-18 L 379.835,-18.1958 L 379.071,-18.5359 L 378.395,-19.0274 L 377.835,-19.6489 L 377.417,-20.373
 L 377.159,-21.1684 L 377.071,-22 L 377.071,-55.2177 L 377.202,-56.2304 L 377.497,-57.0128 L 377.948,-57.7168
 L 378.536,-58.3116 L 379.235,-58.7711 L 380.014,-59.0753 L 380.839,-59.211 L 381.674,-59.1721 L 382.483,-58.9604
 L 470.552,-25.7426 L 471.491,-25.2361 L 472.113,-24.6765 L 472.604,-24 L 472.945,-23.2361 L 473.118,-22.4181
 L 473.118,-21.5819 L 472.945,-20.7639 L 472.604,-20 L 472.113,-19.3235 L 471.491,-18.7639 L 470.767,-18.3458
 L 469.972,-18.0874 L 469.14,-18 z
M 807.86,-18 L 807.028,-18.0874 L 806.233,-18.3458 L 805.509,-18.7639 L 804.887,-19.3235 L 804.396,-20
 L 804.055,-20.7639 L 803.882,-21.5819 L 803.882,-22.4181 L 804.055,-23.2361 L 804.396,-24 L 804.887,-24.6765
 L 805.509,-25.2361 L 806.448,-25.7426 L 894.517,-58.9604 L 895.326,-59.1721 L 896.161,-59.211 L 896.986,-59.0753
 L 897.765,-58.7711 L 898.464,-58.3116 L 899.052,-57.7168 L 899.503,-57.0128 L 899.798,-56.2304 L 899.929,-55.2177
 L 899.929,-22 L 899.841,-21.1684 L 899.583,-20.373 L 899.165,-19.6489 L 898.605,-19.0274 L 897.929,-18.5359
 L 897.165,-18.1958 L 895.929,-18 z
M 988.145,-18 L 987.314,-18.0874 L 986.518,-18.3458 L 985.794,-18.7639 L 985.173,-19.3235 L 984.681,-20
 L 984.341,-20.7639 L 984.167,-21.5819 L 984.167,-22.4181 L 984.341,-23.2361 L 984.681,-24 L 985.173,-24.6765
 L 985.794,-25.2361 L 986.734,-25.7426 L 1074.8,-58.9604 L 1075.61,-59.1721 L 1076.45,-59.211 L 1077.27,-59.0753
 L 1078.05,-58.7711 L 1078.75,-58.3116 L 1079.34,-57.7168 L 1079.79,-57.0128 L 1080.08,-56.2304 L 1080.21,-55.2177
 L 1080.21,-22 L 1080.13,-21.1684 L 1079.87,-20.373 L 1079.45,-19.6489 L 1078.89,-19.0274 L 1078.21,-18.5359
 L 1077.45,-18.1958 L 1076.21,-18 z
M 22,-18 L 20.7639,-18.1958 L 20,-18.5359 L 19.3235,-19.0274 L 18.7639,-19.6489 L 18.3458,-20.373
 L 18.0874,-21.1684 L 18,-22 L 18,-54.652 L 18.1303,-55.6647 L 18.4254,-56.4471 L 18.8768,-57.151
 L 19.4646,-57.7458 L 20.1633,-58.2053 L 20.9422,-58.5096 L 21.7673,-58.6452 L 22.6027,-58.6063 L 23.4116,-58.3946
 L 109.98,-25.7426 L 110.92,-25.2361 L 111.541,-24.6765 L 112.033,-24 L 112.373,-23.2361 L 112.547,-22.4181
 L 112.547,-21.5819 L 112.373,-20.7639 L 112.033,-20 L 111.541,-19.3235 L 110.92,-18.7639 L 110.196,-18.3458
 L 109.4,-18.0874 L 108.569,-18 z
M 1168.43,-18 L 1167.6,-18.0874 L 1166.8,-18.3458 L 1166.08,-18.7639 L 1165.46,-19.3235 L 1164.97,-20
 L 1164.63,-20.7639 L 1164.45,-21.5819 L 1164.45,-22.4181 L 1164.63,-23.2361 L 1164.97,-24 L 1165.46,-24.6765
 L 1166.08,-25.2361 L 1167.02,-25.7426 L 1253.59,-58.3946 L 1254.4,-58.6063 L 1255.23,-58.6452 L 1256.06,-58.5096
 L 1256.84,-58.2053 L 1257.54,-57.7458 L 1258.12,-57.151 L 1258.57,-56.4471 L 1258.87,-55.6647 L 1259,-54.652
 L 1259,-22 L 1258.91,-21.1684 L 1258.65,-20.373 L 1258.24,-19.6489 L 1257.68,-19.0274 L 1257,-18.5359
 L 1256.24,-18.1958 L 1255,-18 z
M 621.913,-18 L 620.855,-18.1424 L 620.076,-18.4466 L 619.378,-18.9062 L 618.79,-19.5009 L 618.338,-20.2049
 L 618.043,-20.9873 L 617.917,-21.814 L 617.966,-22.6488 L 618.187,-23.4552 L 618.571,-24.1981 L 619.101,-24.8449
 L 619.754,-25.3673 L 620.501,-25.7426 L 637.088,-31.9989 L 638.267,-32.2495 L 639.103,-32.2106 L 639.912,-31.9989
 L 656.499,-25.7426 L 657.438,-25.2361 L 658.06,-24.6765 L 658.551,-24 L 658.891,-23.2361 L 659.065,-22.4181
 L 659.065,-21.5819 L 658.891,-20.7639 L 658.551,-20 L 658.06,-19.3235 L 657.438,-18.7639 L 656.714,-18.3458
 L 655.919,-18.0874 L 655.087,-18 z
" stroke="black" fill="lightgray" stroke-width="0.5"/>
</svg>
