<?xml version="1.0" standalone="no"?>
<!DOCTYPE svg PUBLIC "-//W3C//DTD SVG 1.1//EN" "http://www.w3.org/Graphics/SVG/1.1/DTD/svg11.dtd">
<svg width="1468mm" height="80mm" viewBox="0 -80 1468 80" xmlns="http://www.w3.org/2000/svg" version="1.1">
<title>OpenSCAD Model</title>
<path d="
M 1468,-80 L 0,-80 L 0,-0 L 4.95,-0 L 4.95,-6 L 5.00572,-6.53017
 L 5.17046,-7.03717 L 5.437,-7.49884 L 5.79372,-7.895 L 6.22499,-8.20836 L 6.71201,-8.42519 L 7.23344,-8.53603
 L 7.76654,-8.53603 L 8.28798,-8.42519 L 8.77499,-8.20836 L 9.20627,-7.895 L 9.56299,-7.49884 L 9.82953,-7.03717
 L 9.99426,-6.53017 L 10.05,-6 L 10.05,-0 L 186.575,-0 L 186.575,-6 L 186.631,-6.53017
 L 186.795,-7.03717 L 187.062,-7.49884 L 187.419,-7.895 L 187.85,-8.20836 L 188.337,-8.42519 L 188.858,-8.53603
 L 189.392,-8.53603 L 189.913,-8.42519 L 190.4,-8.20836 L 190.831,-7.895 L 191.188,-7.49884 L 191.455,-7.03717
 L 191.619,-6.53017 L 191.675,-6 L 191.675,-0 L 368.2,-0 L 368.2,-6 L 368.256,-6.53017
 L 368.42,-7.03717 L 368.687,-7.49884 L 369.044,-7.895 L 369.475,-8.20836 L 369.962,-8.42519 L 370.483,-8.53603
 L 371.017,-8.53603 L 371.538,-8.42519 L 372.025,-8.20836 L 372.456,-7.895 L 372.813,-7.49884 L 373.08,-7.03717
 L 373.244,-6.53017 L 373.3,-6 L 373.3,-0 L 549.825,-0 L 549.825,-6 L 549.881,-6.53017
 L 550.045,-7.03717 L 550.312,-7.49884 L 550.669,-7.895 L 551.1,-8.20836 L 551.587,-8.42519 L 552.108,-8.53603
 L 552.642,-8.53603 L 553.163,-8.42519 L 553.65,-8.20836 L 554.081,-7.895 L 554.438,-7.49884 L 554.705,-7.03717
 L 554.869,-6.53017 L 554.925,-6 L 554.925,-0 L 731.45,-0 L 731.45,-6 L 731.506,-6.53017
 L 731.67,-7.03717 L 731.937,-7.49884 L 732.294,-7.895 L 732.725,-8.20836 L 733.212,-8.42519 L 733.733,-8.53603
 L 734.267,-8.53603 L 734.788,-8.42519 L 735.275,-8.20836 L 735.706,-7.895 L 736.063,-7.49884 L 736.33,-7.03717
 L 736.494,-6.53017 L 736.55,-6 L 736.55,-0 L 913.075,-0 L 913.075,-6 L 913.131,-6.53017
 L 913.295,-7.03717 L 913.562,-7.49884 L 913.919,-7.895 L 914.35,-8.20836 L 914.837,-8.42519 L 915.358,-8.53603
 L 915.892,-8.53603 L 916.413,-8.42519 L 916.9,-8.20836 L 917.331,-7.895 L 917.688,-7.49884 L 917.955,-7.03717
 L 918.119,-6.53017 L 918.175,-6 L 918.175,-0 L 1094.7,-0 L 1094.7,-6 L 1094.76,-6.53017
 L 1094.92,-7.03717 L 1095.19,-7.49884 L 1095.54,-7.895 L 1095.97,-8.20836 L 1096.46,-8.42519 L 1096.98,-8.53603
 L 1097.52,-8.53603 L 1098.04,-8.42519 L 1098.52,-8.20836 L 1098.96,-7.895 L 1099.31,-7.49884 L 1099.58,-7.03717
 L 1099.74,-6.53017 L 1099.8,-6 L 1099.8,-0 L 1276.32,-0 L 1276.32,-6 L 1276.38,-6.53017
 L 1276.55,-7.03717 L 1276.81,-7.49884 L 1277.17,-7.895 L 1277.6,-8.20836 L 1278.09,-8.42519 L 1278.61,-8.53603
 L 1279.14,-8.53603 L 1279.66,-8.42519 L 1280.15,-8.20836 L 1280.58,-7.895 L 1280.94,-7.49884 L 1281.2,-7.03717
 L 1281.37,-6.53017 L 1281.42,-6 L 1281.42,-0 L 1457.95,-0 L 1457.95,-6 L 1458.01,-6.53017
 L 1458.17,-7.03717 L 1458.44,-7.49884 L 1458.79,-7.895 L 1459.22,-8.20836 L 1459.71,-8.42519 L 1460.23,-8.53603
 L 1460.77,-8.53603 L 1461.29,-8.42519 L 1461.77,-8.20836 L 1462.21,-7.895 L 1462.56,-7.49884 L 1462.83,-7.03717
 L 1462.99,-6.53017 L 1463.05,-6 L 1463.05,-0 L 1468,-0 z
M 188.611,-55.607 L 188.102,-55.6875 L 187.605,-55.8208 L 187.124,-56.0054 L 186.665,-56.2392 L 186.233,-56.5196
 L 185.833,-56.8437 L 185.469,-57.2079 L 185.145,-57.6081 L 184.864,-58.04 L 184.63,-58.4989 L 184.446,-58.9796
 L 184.313,-59.4771 L 184.232,-59.9857 L 184.205,-60.5 L 184.232,-61.0143 L 184.313,-61.5229 L 184.446,-62.0204
 L 184.63,-62.5011 L 184.864,-62.96 L 185.145,-63.3919 L 185.469,-63.7921 L 185.833,-64.1563 L 186.233,-64.4804
 L 186.575,-64.7024 L 186.575,-74 L 186.631,-74.5302 L 186.795,-75.0372 L 187.062,-75.4988 L 187.419,-75.895
 L 187.85,-76.2084 L 188.337,-76.4252 L 188.858,-76.536 L 189.392,-76.536 L 189.913,-76.4252 L 190.4,-76.2084
 L 190.831,-75.895 L 191.188,-75.4988 L 191.455,-75.0372 L 191.619,-74.5302 L 191.675,-74 L 191.675,-64.7024
 L 192.017,-64.4804 L 192.417,-64.1563 L 192.781,-63.7921 L 193.105,-63.3919 L 193.386,-62.96 L 193.62,-62.5011
 L 193.804,-62.0204 L 193.937,-61.5229 L 194.018,-61.0143 L 194.045,-60.5 L 194.018,-59.9857 L 193.937,-59.4771
 L 193.804,-58.9796 L 193.62,-58.4989 L 193.386,-58.04 L 193.105,-57.6081 L 192.781,-57.2079 L 192.417,-56.8437
 L 192.017,-56.5196 L 191.585,-56.2392 L 191.126,-56.0054 L 190.645,-55.8208 L 190.148,-55.6875 L 189.639,-55.607
 L 189.125,-55.58 z
M 1096.74,-55.607 L 1096.23,-55.6875 L 1095.73,-55.8208 L 1095.25,-56.0054 L 1094.79,-56.2392 L 1094.36,-56.5196
 L 1093.96,-56.8437 L 1093.59,-57.2079 L 1093.27,-57.6081 L 1092.99,-58.04 L 1092.76,-58.4989 L 1092.57,-58.9796
 L 1092.44,-59.4771 L 1092.36,-59.9857 L 1092.33,-60.5 L 1092.36,-61.0143 L 1092.44,-61.5229 L 1092.57,-62.0204
 L 1092.76,-62.5011 L 1092.99,-62.96 L 1093.27,-63.3919 L 1093.59,-63.7921 L 1093.96,-64.1563 L 1094.36,-64.4804
 L 1094.7,-64.7024 L 1094.7,-74 L 1094.76,-74.5302 L 1094.92,-75.0372 L 1095.19,-75.4988 L 1095.54,-75.895
 L 1095.98,-76.2084 L 1096.46,-76.4252 L 1096.98,-76.536 L 1097.52,-76.536 L 1098.04,-76.4252 L 1098.52,-76.2084
 L 1098.96,-75.895 L 1099.31,-75.4988 L 1099.58,-75.0372 L 1099.74,-74.5302 L 1099.8,-74 L 1099.8,-64.7024
 L 1100.14,-64.4804 L 1100.54,-64.1563 L 1100.91,-63.7921 L 1101.23,-63.3919 L 1101.51,-62.96 L 1101.74,-62.5011
 L 1101.93,-62.0204 L 1102.06,-61.5229 L 1102.14,-61.0143 L 1102.17,-60.5 L 1102.14,-59.9857 L 1102.06,-59.4771
 L 1101.93,-58.9796 L 1101.74,-58.4989 L 1101.51,-58.04 L 1101.23,-57.6081 L 1100.91,-57.2079 L 1100.54,-56.8437
 L 1100.14,-56.5196 L 1099.71,-56.2392 L 1099.25,-56.0054 L 1098.77,-55.8208 L 1098.27,-55.6875 L 1097.76,-55.607
 L 1097.25,-55.58 z
M 915.111,-55.607 L 914.602,-55.6875 L 914.105,-55.8208 L 913.624,-56.0054 L 913.165,-56.2392 L 912.733,-56.5196
 L 912.333,-56.8437 L 911.969,-57.2079 L 911.645,-57.6081 L 911.364,-58.04 L 911.13,-58.4989 L 910.946,-58.9796
 L 910.813,-59.4771 L 910.732,-59.9857 L 910.705,-60.5 L 910.732,-61.0143 L 910.813,-61.5229 L 910.946,-62.0204
 L 911.13,-62.5011 L 911.364,-62.96 L 911.645,-63.3919 L 911.969,-63.7921 L 912.333,-64.1563 L 912.733,-64.4804
 L 913.075,-64.7024 L 913.075,-74 L 913.131,-74.5302 L 913.295,-75.0372 L 913.562,-75.4988 L 913.919,-75.895
 L 914.35,-76.2084 L 914.837,-76.4252 L 915.358,-76.536 L 915.892,-76.536 L 916.413,-76.4252 L 916.9,-76.2084
 L 917.331,-75.895 L 917.688,-75.4988 L 917.955,-75.0372 L 918.119,-74.5302 L 918.175,-74 L 918.175,-64.7024
 L 918.517,-64.4804 L 918.917,-64.1563 L 919.281,-63.7921 L 919.605,-63.3919 L 919.886,-62.96 L 920.12,-62.5011
 L 920.304,-62.0204 L 920.437,-61.5229 L 920.518,-61.0143 L 920.545,-60.5 L 920.518,-59.9857 L 920.437,-59.4771
 L 920.304,-58.9796 L 920.12,-58.4989 L 919.886,-58.04 L 919.605,-57.6081 L 919.281,-57.2079 L 918.917,-56.8437
 L 918.517,-56.5196 L 918.085,-56.2392 L 917.626,-56.0054 L 917.145,-55.8208 L 916.648,-55.6875 L 916.139,-55.607
 L 915.625,-55.58 z
M 6.98573,-55.607 L 6.47708,-55.6875 L 5.97964,-55.8208 L 5.49887,-56.0054 L 5.04001,-56.2392 L 4.60811,-56.5196
 L 4.20789,-56.8437 L 3.84373,-57.2079 L 3.51964,-57.6081 L 3.23917,-58.04 L 3.00537,-58.4989 L 2.82082,-58.9796
 L 2.68752,-59.4771 L 2.60696,-59.9857 L 2.58,-60.5 L 2.60696,-61.0143 L 2.68752,-61.5229 L 2.82082,-62.0204
 L 3.00537,-62.5011 L 3.23917,-62.96 L 3.51964,-63.3919 L 3.84373,-63.7921 L 4.20789,-64.1563 L 4.60811,-64.4804
 L 4.95001,-64.7024 L 4.95001,-74 L 5.00574,-74.5302 L 5.17047,-75.0372 L 5.43701,-75.4988 L 5.79373,-75.895
 L 6.22501,-76.2084 L 6.71202,-76.4252 L 7.23346,-76.536 L 7.76654,-76.536 L 8.28798,-76.4252 L 8.77499,-76.2084
 L 9.20627,-75.895 L 9.56299,-75.4988 L 9.82953,-75.0372 L 9.99426,-74.5302 L 10.05,-74 L 10.05,-64.7024
 L 10.3919,-64.4804 L 10.7921,-64.1563 L 11.1563,-63.7921 L 11.4804,-63.3919 L 11.7608,-62.96 L 11.9946,-62.5011
 L 12.1792,-62.0204 L 12.3125,-61.5229 L 12.393,-61.0143 L 12.42,-60.5 L 12.393,-59.9857 L 12.3125,-59.4771
 L 12.1792,-58.9796 L 11.9946,-58.4989 L 11.7608,-58.04 L 11.4804,-57.6081 L 11.1563,-57.2079 L 10.7921,-56.8437
 L 10.3919,-56.5196 L 9.95999,-56.2392 L 9.50113,-56.0054 L 9.02036,-55.8208 L 8.52292,-55.6875 L 8.01427,-55.607
 L 7.5,-55.58 z
M 733.486,-55.607 L 732.977,-55.6875 L 732.48,-55.8208 L 731.999,-56.0054 L 731.54,-56.2392 L 731.108,-56.5196
 L 730.708,-56.8437 L 730.344,-57.2079 L 730.02,-57.6081 L 729.739,-58.04 L 729.505,-58.4989 L 729.321,-58.9796
 L 729.188,-59.4771 L 729.107,-59.9857 L 729.08,-60.5 L 729.107,-61.0143 L 729.188,-61.5229 L 729.321,-62.0204
 L 729.505,-62.5011 L 729.739,-62.96 L 730.02,-63.3919 L 730.344,-63.7921 L 730.708,-64.1563 L 731.108,-64.4804
 L 731.45,-64.7024 L 731.45,-74 L 731.506,-74.5302 L 731.67,-75.0372 L 731.937,-75.4988 L 732.294,-75.895
 L 732.725,-76.2084 L 733.212,-76.4252 L 733.733,-76.536 L 734.267,-76.536 L 734.788,-76.4252 L 735.275,-76.2084
 L 735.706,-75.895 L 736.063,-75.4988 L 736.33,-75.0372 L 736.494,-74.5302 L 736.55,-74 L 736.55,-64.7024
 L 736.892,-64.4804 L 737.292,-64.1563 L 737.656,-63.7921 L 737.98,-63.3919 L 738.261,-62.96 L 738.495,-62.5011
 L 738.679,-62.0204 L 738.812,-61.5229 L 738.893,-61.0143 L 738.92,-60.5 L 738.893,-59.9857 L 738.812,-59.4771
 L 738.679,-58.9796 L 738.495,-58.4989 L 738.261,-58.04 L 737.98,-57.6081 L 737.656,-57.2079 L 737.292,-56.8437
 L 736.892,-56.5196 L 736.46,-56.2392 L 736.001,-56.0054 L 735.52,-55.8208 L 735.023,-55.6875 L 734.514,-55.607
 L 734,-55.58 z
M 1278.36,-55.607 L 1277.85,-55.6875 L 1277.35,-55.8208 L 1276.87,-56.0054 L 1276.42,-56.2392 L 1275.98,-56.5196
 L 1275.58,-56.8437 L 1275.22,-57.2079 L 1274.89,-57.6081 L 1274.61,-58.04 L 1274.38,-58.4989 L 1274.2,-58.9796
 L 1274.06,-59.4771 L 1273.98,-59.9857 L 1273.96,-60.5 L 1273.98,-61.0143 L 1274.06,-61.5229 L 1274.2,-62.0204
 L 1274.38,-62.5011 L 1274.61,-62.96 L 1274.89,-63.3919 L 1275.22,-63.7921 L 1275.58,-64.1563 L 1275.98,-64.4804
 L 1276.33,-64.7024 L 1276.33,-74 L 1276.38,-74.5302 L 1276.55,-75.0372 L 1276.81,-75.4988 L 1277.17,-75.895
 L 1277.6,-76.2084 L 1278.09,-76.4252 L 1278.61,-76.536 L 1279.14,-76.536 L 1279.66,-76.4252 L 1280.15,-76.2084
 L 1280.58,-75.895 L 1280.94,-75.4988 L 1281.2,-75.0372 L 1281.37,-74.5302 L 1281.42,-74 L 1281.42,-64.7024
 L 1281.77,-64.4804 L 1282.17,-64.1563 L 1282.53,-63.7921 L 1282.86,-63.3919 L 1283.14,-62.96 L 1283.37,-62.5011
 L 1283.55,-62.0204 L 1283.69,-61.5229 L 1283.77,-61.0143 L 1283.79,-60.5 L 1283.77,-59.9857 L 1283.69,-59.4771
 L 1283.55,-58.9796 L 1283.37,-58.4989 L 1283.14,-58.04 L 1282.86,-57.6081 L 1282.53,-57.2079 L 1282.17,-56.8437
 L 1281.77,-56.5196 L 1281.33,-56.2392 L 1280.88,-56.0054 L 1280.4,-55.8208 L 1279.9,-55.6875 L 1279.39,-55.607
 L 1278.88,-55.58 z
M 551.861,-55.607 L 551.352,-55.6875 L 550.855,-55.8208 L 550.374,-56.0054 L 549.915,-56.2392 L 549.483,-56.5196
 L 549.083,-56.8437 L 548.719,-57.2079 L 548.395,-57.6081 L 548.114,-58.04 L 547.88,-58.4989 L 547.696,-58.9796
 L 547.563,-59.4771 L 547.482,-59.9857 L 547.455,-60.5 L 547.482,-61.0143 L 547.563,-61.5229 L 547.696,-62.0204
 L 547.88,-62.5011 L 548.114,-62.96 L 548.395,-63.3919 L 548.719,-63.7921 L 549.083,-64.1563 L 549.483,-64.4804
 L 549.825,-64.7024 L 549.825,-74 L 549.881,-74.5302 L 550.045,-75.0372 L 550.312,-75.4988 L 550.669,-75.895
 L 551.1,-76.2084 L 551.587,-76.4252 L 552.108,-76.536 L 552.642,-76.536 L 553.163,-76.4252 L 553.65,-76.2084
 L 554.081,-75.895 L 554.438,-75.4988 L 554.705,-75.0372 L 554.869,-74.5302 L 554.925,-74 L 554.925,-64.7024
 L 555.267,-64.4804 L 555.667,-64.1563 L 556.031,-63.7921 L 556.355,-63.3919 L 556.636,-62.96 L 556.87,-62.5011
 L 557.054,-62.0204 L 557.187,-61.5229 L 557.268,-61.0143 L 557.295,-60.5 L 557.268,-59.9857 L 557.187,-59.4771
 L 557.054,-58.9796 L 556.87,-58.4989 L 556.636,-58.04 L 556.355,-57.6081 L 556.031,-57.2079 L 555.667,-56.8437
 L 555.267,-56.5196 L 554.835,-56.2392 L 554.376,-56.0054 L 553.895,-55.8208 L 553.398,-55.6875 L 552.889,-55.607
 L 552.375,-55.58 z
M 370.236,-55.607 L 369.727,-55.6875 L 369.23,-55.8208 L 368.749,-56.0054 L 368.29,-56.2392 L 367.858,-56.5196
 L 367.458,-56.8437 L 367.094,-57.2079 L 366.77,-57.6081 L 366.489,-58.04 L 366.255,-58.4989 L 366.071,-58.9796
 L 365.938,-59.4771 L 365.857,-59.9857 L 365.83,-60.5 L 365.857,-61.0143 L 365.938,-61.5229 L 366.071,-62.0204
 L 366.255,-62.5011 L 366.489,-62.96 L 366.77,-63.3919 L 367.094,-63.7921 L 367.458,-64.1563 L 367.858,-64.4804
 L 368.2,-64.7024 L 368.2,-74 L 368.256,-74.5302 L 368.42,-75.0372 L 368.687,-75.4988 L 369.044,-75.895
 L 369.475,-76.2084 L 369.962,-76.4252 L 370.483,-76.536 L 371.017,-76.536 L 371.538,-76.4252 L 372.025,-76.2084
 L 372.456,-75.895 L 372.813,-75.4988 L 373.08,-75.0372 L 373.244,-74.5302 L 373.3,-74 L 373.3,-64.7024
 L 373.642,-64.4804 L 374.042,-64.1563 L 374.406,-63.7921 L 374.73,-63.3919 L 375.011,-62.96 L 375.245,-62.5011
 L 375.429,-62.0204 L 375.562,-61.5229 L 375.643,-61.0143 L 375.67,-60.5 L 375.643,-59.9857 L 375.562,-59.4771
 L 375.429,-58.9796 L 375.245,-58.4989 L 375.011,-58.04 L 374.73,-57.6081 L 374.406,-57.2079 L 374.042,-56.8437
 L 373.642,-56.5196 L 373.21,-56.2392 L 372.751,-56.0054 L 372.27,-55.8208 L 371.773,-55.6875 L 371.264,-55.607
 L 370.75,-55.58 z
M 1459.99,-55.607 L 1459.48,-55.6875 L 1458.98,-55.8208 L 1458.5,-56.0054 L 1458.04,-56.2392 L 1457.61,-56.5196
 L 1457.21,-56.8437 L 1456.84,-57.2079 L 1456.52,-57.6081 L 1456.24,-58.04 L 1456.01,-58.4989 L 1455.82,-58.9796
 L 1455.69,-59.4771 L 1455.61,-59.9857 L 1455.58,-60.5 L 1455.61,-61.0143 L 1455.69,-61.5229 L 1455.82,-62.0204
 L 1456.01,-62.5011 L 1456.24,-62.96 L 1456.52,-63.3919 L 1456.84,-63.7921 L 1457.21,-64.1563 L 1457.61,-64.4804
 L 1457.95,-64.7024 L 1457.95,-74 L 1458.01,-74.5302 L 1458.17,-75.0372 L 1458.44,-75.4988 L 1458.79,-75.895
 L 1459.23,-76.2084 L 1459.71,-76.4252 L 1460.23,-76.536 L 1460.77,-76.536 L 1461.29,-76.4252 L 1461.77,-76.2084
 L 1462.21,-75.895 L 1462.56,-75.4988 L 1462.83,-75.0372 L 1462.99,-74.5302 L 1463.05,-74 L 1463.05,-64.7024
 L 1463.39,-64.4804 L 1463.79,-64.1563 L 1464.16,-63.7921 L 1464.48,-63.3919 L 1464.76,-62.96 L 1464.99,-62.5011
 L 1465.18,-62.0204 L 1465.31,-61.5229 L 1465.39,-61.0143 L 1465.42,-60.5 L 1465.39,-59.9857 L 1465.31,-59.4771
 L 1465.18,-58.9796 L 1464.99,-58.4989 L 1464.76,-58.04 L 1464.48,-57.6081 L 1464.16,-57.2079 L 1463.79,-56.8437
 L 1463.39,-56.5196 L 1462.96,-56.2392 L 1462.5,-56.0054 L 1462.02,-55.8208 L 1461.52,-55.6875 L 1461.01,-55.607
 L 1460.5,-55.58 z
M 357.157,-20.7791 L 356.347,-20.9889 L 267.498,-54.2539 L 266.549,-54.7639 L 265.928,-55.3235 L 265.436,-56
 L 265.096,-56.7639 L 264.922,-57.5819 L 264.922,-58.4181 L 265.096,-59.2361 L 265.436,-60 L 265.928,-60.6765
 L 266.549,-61.2361 L 267.274,-61.6542 L 268.069,-61.9126 L 268.9,-62 L 357.75,-62 L 358.986,-61.8042
 L 359.75,-61.4641 L 360.427,-60.9726 L 360.986,-60.3511 L 361.404,-59.627 L 361.663,-58.8316 L 361.75,-58
 L 361.75,-24.7349 L 361.622,-23.7317 L 361.329,-22.9485 L 360.879,-22.2435 L 360.293,-21.6473 L 359.595,-21.1861
 L 358.817,-20.8799 L 357.992,-20.7423 z
M 538.782,-20.7791 L 537.972,-20.9889 L 449.123,-54.2539 L 448.174,-54.7639 L 447.553,-55.3235 L 447.061,-56
 L 446.721,-56.7639 L 446.547,-57.5819 L 446.547,-58.4181 L 446.721,-59.2361 L 447.061,-60 L 447.553,-60.6765
 L 448.174,-61.2361 L 448.899,-61.6542 L 449.694,-61.9126 L 450.525,-62 L 539.375,-62 L 540.611,-61.8042
 L 541.375,-61.4641 L 542.052,-60.9726 L 542.611,-60.3511 L 543.029,-59.627 L 543.288,-58.8316 L 543.375,-58
 L 543.375,-24.7349 L 543.247,-23.7317 L 542.954,-22.9485 L 542.504,-22.2435 L 541.918,-21.6473 L 541.22,-21.1861
 L 540.442,-20.8799 L 539.617,-20.7423 z
M 1290.81,-20.8799 L 1290.03,-21.1861 L 1289.33,-21.6473 L 1288.75,-22.2435 L 1288.3,-22.9485 L 1288,-23.7317
 L 1287.88,-24.7349 L 1287.88,-58 L 1287.96,-58.8316 L 1288.22,-59.627 L 1288.64,-60.3511 L 1289.2,-60.9726
 L 1289.88,-61.4641 L 1290.64,-61.8042 L 1291.88,-62 L 1380.72,-62 L 1381.56,-61.9126 L 1382.35,-61.6542
 L 1383.08,-61.2361 L 1383.7,-60.6765 L 1384.19,-60 L 1384.53,-59.2361 L 1384.7,-58.4181 L 1384.7,-57.5819
 L 1384.53,-56.7639 L 1384.19,-56 L 1383.7,-55.3235 L 1383.08,-54.7639 L 1382.13,-54.2539 L 1293.28,-20.9889
 L 1292.47,-20.7791 L 1291.63,-20.7423 z
M 720.407,-20.7791 L 719.597,-20.9889 L 630.748,-54.2539 L 629.799,-54.7639 L 629.178,-55.3235 L 628.686,-56
 L 628.346,-56.7639 L 628.172,-57.5819 L 628.172,-58.4181 L 628.346,-59.2361 L 628.686,-60 L 629.178,-60.6765
 L 629.799,-61.2361 L 630.524,-61.6542 L 631.319,-61.9126 L 632.15,-62 L 721,-62 L 722.236,-61.8042
 L 723,-61.4641 L 723.677,-60.9726 L 724.236,-60.3511 L 724.654,-59.627 L 724.913,-58.8316 L 725,-58
 L 725,-24.7349 L 724.872,-23.7317 L 724.579,-22.9485 L 724.129,-22.2435 L 723.543,-21.6473 L 722.845,-21.1861
 L 722.067,-20.8799 L 721.242,-20.7423 z
M 175.532,-20.7791 L 174.722,-20.9889 L 85.873,-54.2539 L 84.9243,-54.7639 L 84.3029,-55.3235 L 83.8114,-56
 L 83.4712,-56.7639 L 83.2974,-57.5819 L 83.2974,-58.4181 L 83.4712,-59.2361 L 83.8114,-60 L 84.3029,-60.6765
 L 84.9243,-61.2361 L 85.6485,-61.6542 L 86.4438,-61.9126 L 87.2755,-62 L 176.125,-62 L 177.361,-61.8042
 L 178.125,-61.4641 L 178.802,-60.9726 L 179.361,-60.3511 L 179.779,-59.627 L 180.038,-58.8316 L 180.125,-58
 L 180.125,-24.7349 L 179.997,-23.7317 L 179.704,-22.9485 L 179.254,-22.2435 L 178.668,-21.6473 L 177.97,-21.1861
 L 177.192,-20.8799 L 176.367,-20.7423 z
M 745.933,-20.8799 L 745.155,-21.1861 L 744.457,-21.6473 L 743.871,-22.2435 L 743.421,-22.9485 L 743.128,-23.7317
 L 743,-24.7349 L 743,-58 L 743.087,-58.8316 L 743.346,-59.627 L 743.764,-60.3511 L 744.323,-60.9726
 L 745,-61.4641 L 745.764,-61.8042 L 747,-62 L 835.85,-62 L 836.681,-61.9126 L 837.476,-61.6542
 L 838.201,-61.2361 L 838.822,-60.6765 L 839.314,-60 L 839.654,-59.2361 L 839.828,-58.4181 L 839.828,-57.5819
 L 839.654,-56.7639 L 839.314,-56 L 838.822,-55.3235 L 838.201,-54.7639 L 837.252,-54.2539 L 748.403,-20.9889
 L 747.593,-20.7791 L 746.758,-20.7423 z
M 927.558,-20.8799 L 926.78,-21.1861 L 926.082,-21.6473 L 925.496,-22.2435 L 925.046,-22.9485 L 924.753,-23.7317
 L 924.625,-24.7349 L 924.625,-58 L 924.712,-58.8316 L 924.971,-59.627 L 925.389,-60.3511 L 925.948,-60.9726
 L 926.625,-61.4641 L 927.389,-61.8042 L 928.625,-62 L 1017.47,-62 L 1018.31,-61.9126 L 1019.1,-61.6542
 L 1019.83,-61.2361 L 1020.45,-60.6765 L 1020.94,-60 L 1021.28,-59.2361 L 1021.45,-58.4181 L 1021.45,-57.5819
 L 1021.28,-56.7639 L 1020.94,-56 L 1020.45,-55.3235 L 1019.83,-54.7639 L 1018.88,-54.2539 L 930.028,-20.9889
 L 929.218,-20.7791 L 928.383,-20.7423 z
M 1109.18,-20.8799 L 1108.4,-21.1861 L 1107.71,-21.6473 L 1107.12,-22.2435 L 1106.67,-22.9485 L 1106.38,-23.7317
 L 1106.25,-24.7349 L 1106.25,-58 L 1106.34,-58.8316 L 1106.6,-59.627 L 1107.01,-60.3511 L 1107.57,-60.9726
 L 1108.25,-61.4641 L 1109.01,-61.8042 L 1110.25,-62 L 1199.1,-62 L 1199.93,-61.9126 L 1200.73,-61.6542
 L 1201.45,-61.2361 L 1202.07,-60.6765 L 1202.56,-60 L 1202.9,-59.2361 L 1203.08,-58.4181 L 1203.08,-57.5819
 L 1202.9,-56.7639 L 1202.56,-56 L 1202.07,-55.3235 L 1201.45,-54.7639 L 1200.5,-54.2539 L 1111.65,-20.9889
 L 1110.84,-20.7791 L 1110.01,-20.7423 z
M 202.125,-18 L 200.889,-18.1958 L 200.125,-18.5359 L 199.448,-19.0274 L 198.889,-19.6489 L 198.471,-20.373
 L 198.212,-21.1684 L 198.125,-22 L 198.125,-55.2651 L 198.253,-56.2683 L 198.546,-57.0515 L 198.996,-57.7565
 L 199.582,-58.3527 L 200.28,-58.8139 L 201.058,-59.1201 L 201.883,-59.2577 L 202.718,-59.2209 L 203.528,-59.0111
 L 292.377,-25.7461 L 293.326,-25.2361 L 293.947,-24.6765 L 294.439,-24 L 294.779,-23.2361 L 294.953,-22.4181
 L 294.953,-21.5819 L 294.779,-20.7639 L 294.439,-20 L 293.947,-19.3235 L 293.326,-18.7639 L 292.601,-18.3458
 L 291.806,-18.0874 L 290.975,-18 z
M 383.75,-18 L 382.514,-18.1958 L 381.75,-18.5359 L 381.073,-19.0274 L 380.514,-19.6489 L 380.096,-20.373
 L 379.837,-21.1684 L 379.75,-22 L 379.75,-55.2651 L 379.878,-56.2683 L 380.171,-57.0515 L 380.621,-57.7565
 L 381.207,-58.3527 L 381.905,-58.8139 L 382.683,-59.1201 L 383.508,-59.2577 L 384.343,-59.2209 L 385.153,-59.0111
 L 474.002,-25.7461 L 474.951,-25.2361 L 475.572,-24.6765 L 476.064,-24 L 476.404,-23.2361 L 476.578,-22.4181
 L 476.578,-21.5819 L 476.404,-20.7639 L 476.064,-20 L 475.572,-19.3235 L 474.951,-18.7639 L 474.226,-18.3458
 L 473.431,-18.0874 L 472.6,-18 z
M 565.375,-18 L 564.139,-18.1958 L 563.375,-18.5359 L 562.698,-19.0274 L 562.139,-19.6489 L 561.721,-20.373
 L 561.462,-21.1684 L 561.375,-22 L 561.375,-55.2651 L 561.503,-56.2683 L 561.796,-57.0515 L 562.246,-57.7565
 L 562.832,-58.3527 L 563.53,-58.8139 L 564.308,-59.1201 L 565.133,-59.2577 L 565.968,-59.2209 L 566.778,-59.0111
 L 655.627,-25.7461 L 656.576,-25.2361 L 657.197,-24.6765 L 657.689,-24 L 658.029,-23.2361 L 658.203,-22.4181
 L 658.203,-21.5819 L 658.029,-20.7639 L 657.689,-20 L 657.197,-19.3235 L 656.576,-18.7639 L 655.851,-18.3458
 L 655.056,-18.0874 L 654.225,-18 z
M 813.775,-18 L 812.944,-18.0874 L 812.149,-18.3458 L 811.424,-18.7639 L 810.803,-19.3235 L 810.311,-20
 L 809.971,-20.7639 L 809.797,-21.5819 L 809.797,-22.4181 L 809.971,-23.2361 L 810.311,-24 L 810.803,-24.6765
 L 811.424,-25.2361 L 812.373,-25.7461 L 901.222,-59.0111 L 902.032,-59.2209 L 902.867,-59.2577 L 903.692,-59.1201
 L 904.47,-58.8139 L 905.168,-58.3527 L 905.754,-57.7565 L 906.204,-57.0515 L 906.497,-56.2683 L 906.625,-55.2651
 L 906.625,-22 L 906.538,-21.1684 L 906.279,-20.373 L 905.861,-19.6489 L 905.302,-19.0274 L 904.625,-18.5359
 L 903.861,-18.1958 L 902.625,-18 z
M 995.4,-18 L 994.569,-18.0874 L 993.774,-18.3458 L 993.049,-18.7639 L 992.428,-19.3235 L 991.936,-20
 L 991.596,-20.7639 L 991.422,-21.5819 L 991.422,-22.4181 L 991.596,-23.2361 L 991.936,-24 L 992.428,-24.6765
 L 993.049,-25.2361 L 993.998,-25.7461 L 1082.85,-59.0111 L 1083.66,-59.2209 L 1084.49,-59.2577 L 1085.32,-59.1201
 L 1086.1,-58.8139 L 1086.79,-58.3527 L 1087.38,-57.7565 L 1087.83,-57.0515 L 1088.12,-56.2683 L 1088.25,-55.2651
 L 1088.25,-22 L 1088.16,-21.1684 L 1087.9,-20.373 L 1087.49,-19.6489 L 1086.93,-19.0274 L 1086.25,-18.5359
 L 1085.49,-18.1958 L 1084.25,-18 z
M 1177.03,-18 L 1176.19,-18.0874 L 1175.4,-18.3458 L 1174.67,-18.7639 L 1174.05,-19.3235 L 1173.56,-20
 L 1173.22,-20.7639 L 1173.05,-21.5819 L 1173.05,-22.4181 L 1173.22,-23.2361 L 1173.56,-24 L 1174.05,-24.6765
 L 1174.67,-25.2361 L 1175.62,-25.7461 L 1264.47,-59.0111 L 1265.28,-59.2209 L 1266.12,-59.2577 L 1266.94,-59.1201
 L 1267.72,-58.8139 L 1268.42,-58.3527 L 1269,-57.7565 L 1269.45,-57.0515 L 1269.75,-56.2683 L 1269.88,-55.2651
 L 1269.88,-22 L 1269.79,-21.1684 L 1269.53,-20.373 L 1269.11,-19.6489 L 1268.55,-19.0274 L 1267.88,-18.5359
 L 1267.11,-18.1958 L 1265.88,-18 z
M 1358.65,-18 L 1357.82,-18.0874 L 1357.02,-18.3458 L 1356.3,-18.7639 L 1355.68,-19.3235 L 1355.19,-20
 L 1354.85,-20.7639 L 1354.67,-21.5819 L 1354.67,-22.4181 L 1354.85,-23.2361 L 1355.19,-24 L 1355.68,-24.6765
 L 1356.3,-25.2361 L 1357.25,-25.7461 L 1444.6,-58.4495 L 1445.41,-58.6593 L 1446.24,-58.6961 L 1447.07,-58.5585
 L 1447.85,-58.2523 L 1448.54,-57.7911 L 1449.13,-57.1949 L 1449.58,-56.4899 L 1449.87,-55.7067 L 1450,-54.7035
 L 1450,-22 L 1449.91,-21.1684 L 1449.65,-20.373 L 1449.24,-19.6489 L 1448.68,-19.0274 L 1448,-18.5359
 L 1447.24,-18.1958 L 1446,-18 z
M 22,-18 L 20.7639,-18.1958 L 20,-18.5359 L 19.3235,-19.0274 L 18.7639,-19.6489 L 18.3458,-20.373
 L 18.0874,-21.1684 L 18,-22 L 18,-54.7035 L 18.1279,-55.7067 L 18.4211,-56.4899 L 18.8707,-57.1949
 L 19.4571,-57.7911 L 20.1546,-58.2523 L 20.9328,-58.5585 L 21.7576,-58.6961 L 22.593,-58.6593 L 23.4025,-58.4495
 L 110.752,-25.7461 L 111.701,-25.2361 L 112.322,-24.6765 L 112.814,-24 L 113.154,-23.2361 L 113.328,-22.4181
 L 113.328,-21.5819 L 113.154,-20.7639 L 112.814,-20 L 112.322,-19.3235 L 111.701,-18.7639 L 110.976,-18.3458
 L 110.181,-18.0874 L 109.35,-18 z
" stroke="black" fill="lightgray" stroke-width="0.5"/>
</svg>
