<?xml version="1.0" standalone="no"?>
<!DOCTYPE svg PUBLIC "-//W3C//DTD SVG 1.1//EN" "http://www.w3.org/Graphics/SVG/1.1/DTD/svg11.dtd">
<svg width="1604mm" height="80mm" viewBox="0 -80 1604 80" xmlns="http://www.w3.org/2000/svg" version="1.1">
<title>OpenSCAD Model</title>
<path d="
M 1604,-80 L 0,-80 L 0,-0 L 4.95,-0 L 4.95,-6 L 5.00572,-6.53017
 L 5.17046,-7.03717 L 5.437,-7.49884 L 5.79372,-7.895 L 6.22499,-8.20836 L 6.71201,-8.42519 L 7.23344,-8.53603
 L 7.76654,-8.53603 L 8.28798,-8.42519 L 8.77499,-8.20836 L 9.20627,-7.895 L 9.56299,-7.49884 L 9.82953,-7.03717
 L 9.99426,-6.53017 L 10.05,-6 L 10.05,-0 L 181.506,-0 L 181.506,-6 L 181.561,-6.53017
 L 181.726,-7.03717 L 181.993,-7.49884 L 182.349,-7.895 L 182.781,-8.20836 L 183.268,-8.42519 L 183.789,-8.53603
 L 184.322,-8.53603 L 184.844,-8.42519 L 185.331,-8.20836 L 185.762,-7.895 L 186.119,-7.49884 L 186.385,-7.03717
 L 186.55,-6.53017 L 186.606,-6 L 186.606,-0 L 358.061,-0 L 358.061,-6 L 358.117,-6.53017
 L 358.282,-7.03717 L 358.548,-7.49884 L 358.905,-7.895 L 359.336,-8.20836 L 359.823,-8.42519 L 360.345,-8.53603
 L 360.878,-8.53603 L 361.399,-8.42519 L 361.886,-8.20836 L 362.317,-7.895 L 362.674,-7.49884 L 362.941,-7.03717
 L 363.105,-6.53017 L 363.161,-6 L 363.161,-0 L 534.617,-0 L 534.617,-6 L 534.672,-6.53017
 L 534.837,-7.03717 L 535.104,-7.49884 L 535.46,-7.895 L 535.892,-8.20836 L 536.379,-8.42519 L 536.9,-8.53603
 L 537.433,-8.53603 L 537.955,-8.42519 L 538.442,-8.20836 L 538.873,-7.895 L 539.23,-7.49884 L 539.496,-7.03717
 L 539.661,-6.53017 L 539.717,-6 L 539.717,-0 L 711.172,-0 L 711.172,-6 L 711.228,-6.53017
 L 711.393,-7.03717 L 711.659,-7.49884 L 712.016,-7.895 L 712.447,-8.20836 L 712.934,-8.42519 L 713.456,-8.53603
 L 713.989,-8.53603 L 714.51,-8.42519 L 714.997,-8.20836 L 715.428,-7.895 L 715.785,-7.49884 L 716.052,-7.03717
 L 716.216,-6.53017 L 716.272,-6 L 716.272,-0 L 887.728,-0 L 887.728,-6 L 887.783,-6.53017
 L 887.948,-7.03717 L 888.215,-7.49884 L 888.571,-7.895 L 889.003,-8.20836 L 889.49,-8.42519 L 890.011,-8.53603
 L 890.544,-8.53603 L 891.066,-8.42519 L 891.553,-8.20836 L 891.984,-7.895 L 892.341,-7.49884 L 892.607,-7.03717
 L 892.772,-6.53017 L 892.828,-6 L 892.828,-0 L 1064.28,-0 L 1064.28,-6 L 1064.34,-6.53017
 L 1064.5,-7.03717 L 1064.77,-7.49884 L 1065.13,-7.895 L 1065.56,-8.20836 L 1066.05,-8.42519 L 1066.57,-8.53603
 L 1067.1,-8.53603 L 1067.62,-8.42519 L 1068.11,-8.20836 L 1068.54,-7.895 L 1068.9,-7.49884 L 1069.16,-7.03717
 L 1069.33,-6.53017 L 1069.38,-6 L 1069.38,-0 L 1240.84,-0 L 1240.84,-6 L 1240.89,-6.53017
 L 1241.06,-7.03717 L 1241.33,-7.49884 L 1241.68,-7.895 L 1242.11,-8.20836 L 1242.6,-8.42519 L 1243.12,-8.53603
 L 1243.66,-8.53603 L 1244.18,-8.42519 L 1244.66,-8.20836 L 1245.1,-7.895 L 1245.45,-7.49884 L 1245.72,-7.03717
 L 1245.88,-6.53017 L 1245.94,-6 L 1245.94,-0 L 1417.39,-0 L 1417.39,-6 L 1417.45,-6.53017
 L 1417.61,-7.03717 L 1417.88,-7.49884 L 1418.24,-7.895 L 1418.67,-8.20836 L 1419.16,-8.42519 L 1419.68,-8.53603
 L 1420.21,-8.53603 L 1420.73,-8.42519 L 1421.22,-8.20836 L 1421.65,-7.895 L 1422.01,-7.49884 L 1422.27,-7.03717
 L 1422.44,-6.53017 L 1422.49,-6 L 1422.49,-0 L 1593.95,-0 L 1593.95,-6 L 1594.01,-6.53017
 L 1594.17,-7.03717 L 1594.44,-7.49884 L 1594.79,-7.895 L 1595.22,-8.20836 L 1595.71,-8.42519 L 1596.23,-8.53603
 L 1596.77,-8.53603 L 1597.29,-8.42519 L 1597.77,-8.20836 L 1598.21,-7.895 L 1598.56,-7.49884 L 1598.83,-7.03717
 L 1598.99,-6.53017 L 1599.05,-6 L 1599.05,-0 L 1604,-0 z
M 6.98573,-55.607 L 6.47708,-55.6875 L 5.97964,-55.8208 L 5.49887,-56.0054 L 5.04001,-56.2392 L 4.60811,-56.5196
 L 4.20789,-56.8437 L 3.84373,-57.2079 L 3.51964,-57.6081 L 3.23917,-58.04 L 3.00537,-58.4989 L 2.82082,-58.9796
 L 2.68752,-59.4771 L 2.60696,-59.9857 L 2.58,-60.5 L 2.60696,-61.0143 L 2.68752,-61.5229 L 2.82082,-62.0204
 L 3.00537,-62.5011 L 3.23917,-62.96 L 3.51964,-63.3919 L 3.84373,-63.7921 L 4.20789,-64.1563 L 4.60811,-64.4804
 L 4.95001,-64.7024 L 4.95001,-74 L 5.00574,-74.5302 L 5.17047,-75.0372 L 5.43701,-75.4988 L 5.79373,-75.895
 L 6.22501,-76.2084 L 6.71202,-76.4252 L 7.23346,-76.536 L 7.76654,-76.536 L 8.28798,-76.4252 L 8.77499,-76.2084
 L 9.20627,-75.895 L 9.56299,-75.4988 L 9.82953,-75.0372 L 9.99426,-74.5302 L 10.05,-74 L 10.05,-64.7024
 L 10.3919,-64.4804 L 10.7921,-64.1563 L 11.1563,-63.7921 L 11.4804,-63.3919 L 11.7608,-62.96 L 11.9946,-62.5011
 L 12.1792,-62.0204 L 12.3125,-61.5229 L 12.393,-61.0143 L 12.42,-60.5 L 12.393,-59.9857 L 12.3125,-59.4771
 L 12.1792,-58.9796 L 11.9946,-58.4989 L 11.7608,-58.04 L 11.4804,-57.6081 L 11.1563,-57.2079 L 10.7921,-56.8437
 L 10.3919,-56.5196 L 9.95999,-56.2392 L 9.50113,-56.0054 L 9.02036,-55.8208 L 8.52292,-55.6875 L 8.01427,-55.607
 L 7.5,-55.58 z
M 1066.32,-55.607 L 1065.81,-55.6875 L 1065.31,-55.8208 L 1064.83,-56.0054 L 1064.37,-56.2392 L 1063.94,-56.5196
 L 1063.54,-56.8437 L 1063.18,-57.2079 L 1062.85,-57.6081 L 1062.57,-58.04 L 1062.34,-58.4989 L 1062.15,-58.9796
 L 1062.02,-59.4771 L 1061.94,-59.9857 L 1061.91,-60.5 L 1061.94,-61.0143 L 1062.02,-61.5229 L 1062.15,-62.0204
 L 1062.34,-62.5011 L 1062.57,-62.96 L 1062.85,-63.3919 L 1063.18,-63.7921 L 1063.54,-64.1563 L 1063.94,-64.4804
 L 1064.28,-64.7024 L 1064.28,-74 L 1064.34,-74.5302 L 1064.5,-75.0372 L 1064.77,-75.4988 L 1065.13,-75.895
 L 1065.56,-76.2084 L 1066.05,-76.4252 L 1066.57,-76.536 L 1067.1,-76.536 L 1067.62,-76.4252 L 1068.11,-76.2084
 L 1068.54,-75.895 L 1068.9,-75.4988 L 1069.16,-75.0372 L 1069.33,-74.5302 L 1069.38,-74 L 1069.38,-64.7024
 L 1069.73,-64.4804 L 1070.13,-64.1563 L 1070.49,-63.7921 L 1070.81,-63.3919 L 1071.09,-62.96 L 1071.33,-62.5011
 L 1071.51,-62.0204 L 1071.65,-61.5229 L 1071.73,-61.0143 L 1071.75,-60.5 L 1071.73,-59.9857 L 1071.65,-59.4771
 L 1071.51,-58.9796 L 1071.33,-58.4989 L 1071.09,-58.04 L 1070.81,-57.6081 L 1070.49,-57.2079 L 1070.13,-56.8437
 L 1069.73,-56.5196 L 1069.29,-56.2392 L 1068.83,-56.0054 L 1068.35,-55.8208 L 1067.86,-55.6875 L 1067.35,-55.607
 L 1066.83,-55.58 z
M 1242.87,-55.607 L 1242.37,-55.6875 L 1241.87,-55.8208 L 1241.39,-56.0054 L 1240.93,-56.2392 L 1240.5,-56.5196
 L 1240.1,-56.8437 L 1239.73,-57.2079 L 1239.41,-57.6081 L 1239.13,-58.04 L 1238.89,-58.4989 L 1238.71,-58.9796
 L 1238.58,-59.4771 L 1238.5,-59.9857 L 1238.47,-60.5 L 1238.5,-61.0143 L 1238.58,-61.5229 L 1238.71,-62.0204
 L 1238.89,-62.5011 L 1239.13,-62.96 L 1239.41,-63.3919 L 1239.73,-63.7921 L 1240.1,-64.1563 L 1240.5,-64.4804
 L 1240.84,-64.7024 L 1240.84,-74 L 1240.89,-74.5302 L 1241.06,-75.0372 L 1241.33,-75.4988 L 1241.68,-75.895
 L 1242.11,-76.2084 L 1242.6,-76.4252 L 1243.12,-76.536 L 1243.66,-76.536 L 1244.18,-76.4252 L 1244.66,-76.2084
 L 1245.1,-75.895 L 1245.45,-75.4988 L 1245.72,-75.0372 L 1245.88,-74.5302 L 1245.94,-74 L 1245.94,-64.7024
 L 1246.28,-64.4804 L 1246.68,-64.1563 L 1247.05,-63.7921 L 1247.37,-63.3919 L 1247.65,-62.96 L 1247.88,-62.5011
 L 1248.07,-62.0204 L 1248.2,-61.5229 L 1248.28,-61.0143 L 1248.31,-60.5 L 1248.28,-59.9857 L 1248.2,-59.4771
 L 1248.07,-58.9796 L 1247.88,-58.4989 L 1247.65,-58.04 L 1247.37,-57.6081 L 1247.05,-57.2079 L 1246.68,-56.8437
 L 1246.28,-56.5196 L 1245.85,-56.2392 L 1245.39,-56.0054 L 1244.91,-55.8208 L 1244.41,-55.6875 L 1243.9,-55.607
 L 1243.39,-55.58 z
M 889.764,-55.607 L 889.255,-55.6875 L 888.757,-55.8208 L 888.277,-56.0054 L 887.818,-56.2392 L 887.386,-56.5196
 L 886.986,-56.8437 L 886.622,-57.2079 L 886.297,-57.6081 L 886.017,-58.04 L 885.783,-58.4989 L 885.599,-58.9796
 L 885.465,-59.4771 L 885.385,-59.9857 L 885.358,-60.5 L 885.385,-61.0143 L 885.465,-61.5229 L 885.599,-62.0204
 L 885.783,-62.5011 L 886.017,-62.96 L 886.297,-63.3919 L 886.622,-63.7921 L 886.986,-64.1563 L 887.386,-64.4804
 L 887.728,-64.7024 L 887.728,-74 L 887.784,-74.5302 L 887.948,-75.0372 L 888.215,-75.4988 L 888.572,-75.895
 L 889.003,-76.2084 L 889.49,-76.4252 L 890.011,-76.536 L 890.544,-76.536 L 891.066,-76.4252 L 891.553,-76.2084
 L 891.984,-75.895 L 892.341,-75.4988 L 892.607,-75.0372 L 892.772,-74.5302 L 892.828,-74 L 892.828,-64.7024
 L 893.17,-64.4804 L 893.57,-64.1563 L 893.934,-63.7921 L 894.258,-63.3919 L 894.539,-62.96 L 894.772,-62.5011
 L 894.957,-62.0204 L 895.09,-61.5229 L 895.171,-61.0143 L 895.198,-60.5 L 895.171,-59.9857 L 895.09,-59.4771
 L 894.957,-58.9796 L 894.772,-58.4989 L 894.539,-58.04 L 894.258,-57.6081 L 893.934,-57.2079 L 893.57,-56.8437
 L 893.17,-56.5196 L 892.738,-56.2392 L 892.279,-56.0054 L 891.798,-55.8208 L 891.301,-55.6875 L 890.792,-55.607
 L 890.278,-55.58 z
M 713.208,-55.607 L 712.699,-55.6875 L 712.202,-55.8208 L 711.721,-56.0054 L 711.262,-56.2392 L 710.83,-56.5196
 L 710.43,-56.8437 L 710.066,-57.2079 L 709.742,-57.6081 L 709.461,-58.04 L 709.228,-58.4989 L 709.043,-58.9796
 L 708.91,-59.4771 L 708.829,-59.9857 L 708.802,-60.5 L 708.829,-61.0143 L 708.91,-61.5229 L 709.043,-62.0204
 L 709.228,-62.5011 L 709.461,-62.96 L 709.742,-63.3919 L 710.066,-63.7921 L 710.43,-64.1563 L 710.83,-64.4804
 L 711.172,-64.7024 L 711.172,-74 L 711.228,-74.5302 L 711.393,-75.0372 L 711.659,-75.4988 L 712.016,-75.895
 L 712.447,-76.2084 L 712.934,-76.4252 L 713.456,-76.536 L 713.989,-76.536 L 714.51,-76.4252 L 714.997,-76.2084
 L 715.428,-75.895 L 715.785,-75.4988 L 716.052,-75.0372 L 716.216,-74.5302 L 716.272,-74 L 716.272,-64.7024
 L 716.614,-64.4804 L 717.014,-64.1563 L 717.378,-63.7921 L 717.703,-63.3919 L 717.983,-62.96 L 718.217,-62.5011
 L 718.401,-62.0204 L 718.535,-61.5229 L 718.615,-61.0143 L 718.642,-60.5 L 718.615,-59.9857 L 718.535,-59.4771
 L 718.401,-58.9796 L 718.217,-58.4989 L 717.983,-58.04 L 717.703,-57.6081 L 717.378,-57.2079 L 717.014,-56.8437
 L 716.614,-56.5196 L 716.182,-56.2392 L 715.723,-56.0054 L 715.243,-55.8208 L 714.745,-55.6875 L 714.236,-55.607
 L 713.722,-55.58 z
M 1419.43,-55.607 L 1418.92,-55.6875 L 1418.42,-55.8208 L 1417.94,-56.0054 L 1417.48,-56.2392 L 1417.05,-56.5196
 L 1416.65,-56.8437 L 1416.29,-57.2079 L 1415.96,-57.6081 L 1415.68,-58.04 L 1415.45,-58.4989 L 1415.27,-58.9796
 L 1415.13,-59.4771 L 1415.05,-59.9857 L 1415.02,-60.5 L 1415.05,-61.0143 L 1415.13,-61.5229 L 1415.27,-62.0204
 L 1415.45,-62.5011 L 1415.68,-62.96 L 1415.96,-63.3919 L 1416.29,-63.7921 L 1416.65,-64.1563 L 1417.05,-64.4804
 L 1417.39,-64.7024 L 1417.39,-74 L 1417.45,-74.5302 L 1417.61,-75.0372 L 1417.88,-75.4988 L 1418.24,-75.895
 L 1418.67,-76.2084 L 1419.16,-76.4252 L 1419.68,-76.536 L 1420.21,-76.536 L 1420.73,-76.4252 L 1421.22,-76.2084
 L 1421.65,-75.895 L 1422.01,-75.4988 L 1422.27,-75.0372 L 1422.44,-74.5302 L 1422.49,-74 L 1422.49,-64.7024
 L 1422.84,-64.4804 L 1423.24,-64.1563 L 1423.6,-63.7921 L 1423.92,-63.3919 L 1424.21,-62.96 L 1424.44,-62.5011
 L 1424.62,-62.0204 L 1424.76,-61.5229 L 1424.84,-61.0143 L 1424.86,-60.5 L 1424.84,-59.9857 L 1424.76,-59.4771
 L 1424.62,-58.9796 L 1424.44,-58.4989 L 1424.21,-58.04 L 1423.92,-57.6081 L 1423.6,-57.2079 L 1423.24,-56.8437
 L 1422.84,-56.5196 L 1422.4,-56.2392 L 1421.95,-56.0054 L 1421.46,-55.8208 L 1420.97,-55.6875 L 1420.46,-55.607
 L 1419.94,-55.58 z
M 536.652,-55.607 L 536.144,-55.6875 L 535.646,-55.8208 L 535.166,-56.0054 L 534.707,-56.2392 L 534.275,-56.5196
 L 533.875,-56.8437 L 533.51,-57.2079 L 533.186,-57.6081 L 532.906,-58.04 L 532.672,-58.4989 L 532.487,-58.9796
 L 532.354,-59.4771 L 532.274,-59.9857 L 532.247,-60.5 L 532.274,-61.0143 L 532.354,-61.5229 L 532.487,-62.0204
 L 532.672,-62.5011 L 532.906,-62.96 L 533.186,-63.3919 L 533.51,-63.7921 L 533.875,-64.1563 L 534.275,-64.4804
 L 534.617,-64.7024 L 534.617,-74 L 534.672,-74.5302 L 534.837,-75.0372 L 535.104,-75.4988 L 535.46,-75.895
 L 535.892,-76.2084 L 536.379,-76.4252 L 536.9,-76.536 L 537.433,-76.536 L 537.955,-76.4252 L 538.442,-76.2084
 L 538.873,-75.895 L 539.23,-75.4988 L 539.496,-75.0372 L 539.661,-74.5302 L 539.717,-74 L 539.717,-64.7024
 L 540.059,-64.4804 L 540.459,-64.1563 L 540.823,-63.7921 L 541.147,-63.3919 L 541.427,-62.96 L 541.661,-62.5011
 L 541.846,-62.0204 L 541.979,-61.5229 L 542.06,-61.0143 L 542.087,-60.5 L 542.06,-59.9857 L 541.979,-59.4771
 L 541.846,-58.9796 L 541.661,-58.4989 L 541.427,-58.04 L 541.147,-57.6081 L 540.823,-57.2079 L 540.459,-56.8437
 L 540.059,-56.5196 L 539.627,-56.2392 L 539.168,-56.0054 L 538.687,-55.8208 L 538.19,-55.6875 L 537.681,-55.607
 L 537.167,-55.58 z
M 360.097,-55.607 L 359.588,-55.6875 L 359.091,-55.8208 L 358.61,-56.0054 L 358.151,-56.2392 L 357.719,-56.5196
 L 357.319,-56.8437 L 356.955,-57.2079 L 356.631,-57.6081 L 356.35,-58.04 L 356.116,-58.4989 L 355.932,-58.9796
 L 355.799,-59.4771 L 355.718,-59.9857 L 355.691,-60.5 L 355.718,-61.0143 L 355.799,-61.5229 L 355.932,-62.0204
 L 356.116,-62.5011 L 356.35,-62.96 L 356.631,-63.3919 L 356.955,-63.7921 L 357.319,-64.1563 L 357.719,-64.4804
 L 358.061,-64.7024 L 358.061,-74 L 358.117,-74.5302 L 358.282,-75.0372 L 358.548,-75.4988 L 358.905,-75.895
 L 359.336,-76.2084 L 359.823,-76.4252 L 360.345,-76.536 L 360.878,-76.536 L 361.399,-76.4252 L 361.886,-76.2084
 L 362.317,-75.895 L 362.674,-75.4988 L 362.941,-75.0372 L 363.105,-74.5302 L 363.161,-74 L 363.161,-64.7024
 L 363.503,-64.4804 L 363.903,-64.1563 L 364.267,-63.7921 L 364.591,-63.3919 L 364.872,-62.96 L 365.106,-62.5011
 L 365.29,-62.0204 L 365.424,-61.5229 L 365.504,-61.0143 L 365.531,-60.5 L 365.504,-59.9857 L 365.424,-59.4771
 L 365.29,-58.9796 L 365.106,-58.4989 L 364.872,-58.04 L 364.591,-57.6081 L 364.267,-57.2079 L 363.903,-56.8437
 L 363.503,-56.5196 L 363.071,-56.2392 L 362.612,-56.0054 L 362.131,-55.8208 L 361.634,-55.6875 L 361.125,-55.607
 L 360.611,-55.58 z
M 1595.99,-55.607 L 1595.48,-55.6875 L 1594.98,-55.8208 L 1594.5,-56.0054 L 1594.04,-56.2392 L 1593.61,-56.5196
 L 1593.21,-56.8437 L 1592.84,-57.2079 L 1592.52,-57.6081 L 1592.24,-58.04 L 1592.01,-58.4989 L 1591.82,-58.9796
 L 1591.69,-59.4771 L 1591.61,-59.9857 L 1591.58,-60.5 L 1591.61,-61.0143 L 1591.69,-61.5229 L 1591.82,-62.0204
 L 1592.01,-62.5011 L 1592.24,-62.96 L 1592.52,-63.3919 L 1592.84,-63.7921 L 1593.21,-64.1563 L 1593.61,-64.4804
 L 1593.95,-64.7024 L 1593.95,-74 L 1594.01,-74.5302 L 1594.17,-75.0372 L 1594.44,-75.4988 L 1594.79,-75.895
 L 1595.23,-76.2084 L 1595.71,-76.4252 L 1596.23,-76.536 L 1596.77,-76.536 L 1597.29,-76.4252 L 1597.77,-76.2084
 L 1598.21,-75.895 L 1598.56,-75.4988 L 1598.83,-75.0372 L 1598.99,-74.5302 L 1599.05,-74 L 1599.05,-64.7024
 L 1599.39,-64.4804 L 1599.79,-64.1563 L 1600.16,-63.7921 L 1600.48,-63.3919 L 1600.76,-62.96 L 1600.99,-62.5011
 L 1601.18,-62.0204 L 1601.31,-61.5229 L 1601.39,-61.0143 L 1601.42,-60.5 L 1601.39,-59.9857 L 1601.31,-59.4771
 L 1601.18,-58.9796 L 1600.99,-58.4989 L 1600.76,-58.04 L 1600.48,-57.6081 L 1600.16,-57.2079 L 1599.79,-56.8437
 L 1599.39,-56.5196 L 1598.96,-56.2392 L 1598.5,-56.0054 L 1598.02,-55.8208 L 1597.52,-55.6875 L 1597.01,-55.607
 L 1596.5,-55.58 z
M 183.541,-55.607 L 183.033,-55.6875 L 182.535,-55.8208 L 182.054,-56.0054 L 181.596,-56.2392 L 181.164,-56.5196
 L 180.763,-56.8437 L 180.399,-57.2079 L 180.075,-57.6081 L 179.795,-58.04 L 179.561,-58.4989 L 179.376,-58.9796
 L 179.243,-59.4771 L 179.163,-59.9857 L 179.136,-60.5 L 179.163,-61.0143 L 179.243,-61.5229 L 179.376,-62.0204
 L 179.561,-62.5011 L 179.795,-62.96 L 180.075,-63.3919 L 180.399,-63.7921 L 180.763,-64.1563 L 181.164,-64.4804
 L 181.506,-64.7024 L 181.506,-74 L 181.561,-74.5302 L 181.726,-75.0372 L 181.993,-75.4988 L 182.349,-75.895
 L 182.781,-76.2084 L 183.268,-76.4252 L 183.789,-76.536 L 184.322,-76.536 L 184.844,-76.4252 L 185.331,-76.2084
 L 185.762,-75.895 L 186.119,-75.4988 L 186.385,-75.0372 L 186.55,-74.5302 L 186.606,-74 L 186.606,-64.7024
 L 186.947,-64.4804 L 187.348,-64.1563 L 187.712,-63.7921 L 188.036,-63.3919 L 188.316,-62.96 L 188.55,-62.5011
 L 188.735,-62.0204 L 188.868,-61.5229 L 188.949,-61.0143 L 188.976,-60.5 L 188.949,-59.9857 L 188.868,-59.4771
 L 188.735,-58.9796 L 188.55,-58.4989 L 188.316,-58.04 L 188.036,-57.6081 L 187.712,-57.2079 L 187.348,-56.8437
 L 186.947,-56.5196 L 186.516,-56.2392 L 186.057,-56.0054 L 185.576,-55.8208 L 185.078,-55.6875 L 184.57,-55.607
 L 184.056,-55.58 z
M 1078.8,-21.0547 L 1078.02,-21.3535 L 1077.32,-21.8081 L 1076.73,-22.3988 L 1076.27,-23.0996 L 1075.97,-23.8799
 L 1075.83,-24.9195 L 1075.83,-58 L 1075.92,-58.8316 L 1076.18,-59.627 L 1076.6,-60.3511 L 1077.16,-60.9726
 L 1077.83,-61.4641 L 1078.6,-61.8042 L 1079.83,-62 L 1165.72,-62 L 1166.56,-61.9126 L 1167.35,-61.6542
 L 1168.07,-61.2361 L 1168.7,-60.6765 L 1169.19,-60 L 1169.53,-59.2361 L 1169.7,-58.4181 L 1169.7,-57.5819
 L 1169.53,-56.7639 L 1169.19,-56 L 1168.7,-55.3235 L 1168.07,-54.7639 L 1167.16,-54.2673 L 1081.27,-21.1868
 L 1080.46,-20.9695 L 1079.63,-20.9248 z
M 902.247,-21.0547 L 901.466,-21.3535 L 900.764,-21.8081 L 900.172,-22.3988 L 899.716,-23.0996 L 899.415,-23.8799
 L 899.278,-24.9195 L 899.278,-58 L 899.365,-58.8316 L 899.624,-59.627 L 900.042,-60.3511 L 900.601,-60.9726
 L 901.278,-61.4641 L 902.042,-61.8042 L 903.278,-62 L 989.168,-62 L 990,-61.9126 L 990.795,-61.6542
 L 991.519,-61.2361 L 992.141,-60.6765 L 992.632,-60 L 992.972,-59.2361 L 993.146,-58.4181 L 993.146,-57.5819
 L 992.972,-56.7639 L 992.632,-56 L 992.141,-55.3235 L 991.519,-54.7639 L 990.606,-54.2673 L 904.715,-21.1868
 L 903.908,-20.9695 L 903.073,-20.9248 z
M 801.37,-47.8221 L 800.562,-48.0395 L 784.392,-54.2673 L 783.479,-54.7639 L 782.857,-55.3235 L 782.366,-56
 L 782.026,-56.7639 L 781.852,-57.5819 L 781.852,-58.4181 L 782.026,-59.2361 L 782.366,-60 L 782.857,-60.6765
 L 783.479,-61.2361 L 784.203,-61.6542 L 784.998,-61.9126 L 785.83,-62 L 818.17,-62 L 819.201,-61.8649
 L 819.982,-61.5661 L 820.684,-61.1114 L 821.276,-60.5208 L 821.732,-59.8199 L 822.032,-59.0396 L 822.164,-58.2138
 L 822.121,-57.3787 L 821.906,-56.5707 L 821.527,-55.8252 L 821.001,-55.1747 L 820.352,-54.6478 L 819.608,-54.2673
 L 803.438,-48.0395 L 803.031,-47.9073 L 802.205,-47.7774 z
M 700.092,-20.9695 L 699.285,-21.1868 L 613.394,-54.2673 L 612.481,-54.7639 L 611.859,-55.3235 L 611.368,-56
 L 611.028,-56.7639 L 610.854,-57.5819 L 610.854,-58.4181 L 611.028,-59.2361 L 611.368,-60 L 611.859,-60.6765
 L 612.481,-61.2361 L 613.205,-61.6542 L 614,-61.9126 L 614.832,-62 L 700.722,-62 L 701.958,-61.8042
 L 702.722,-61.4641 L 703.399,-60.9726 L 703.958,-60.3511 L 704.376,-59.627 L 704.635,-58.8316 L 704.722,-58
 L 704.722,-24.9195 L 704.585,-23.8799 L 704.284,-23.0996 L 703.828,-22.3988 L 703.236,-21.8081 L 702.534,-21.3535
 L 701.753,-21.0547 L 700.927,-20.9248 z
M 523.536,-20.9695 L 522.729,-21.1868 L 436.839,-54.2673 L 435.925,-54.7639 L 435.304,-55.3235 L 434.812,-56
 L 434.472,-56.7639 L 434.298,-57.5819 L 434.298,-58.4181 L 434.472,-59.2361 L 434.812,-60 L 435.304,-60.6765
 L 435.925,-61.2361 L 436.649,-61.6542 L 437.445,-61.9126 L 438.276,-62 L 524.167,-62 L 525.403,-61.8042
 L 526.167,-61.4641 L 526.843,-60.9726 L 527.403,-60.3511 L 527.821,-59.627 L 528.079,-58.8316 L 528.167,-58
 L 528.167,-24.9195 L 528.029,-23.8799 L 527.729,-23.0996 L 527.272,-22.3988 L 526.68,-21.8081 L 525.979,-21.3535
 L 525.198,-21.0547 L 524.372,-20.9248 z
M 346.981,-20.9695 L 346.173,-21.1868 L 260.283,-54.2673 L 259.37,-54.7639 L 258.748,-55.3235 L 258.257,-56
 L 257.916,-56.7639 L 257.743,-57.5819 L 257.743,-58.4181 L 257.916,-59.2361 L 258.257,-60 L 258.748,-60.6765
 L 259.37,-61.2361 L 260.094,-61.6542 L 260.889,-61.9126 L 261.721,-62 L 347.611,-62 L 348.847,-61.8042
 L 349.611,-61.4641 L 350.288,-60.9726 L 350.847,-60.3511 L 351.265,-59.627 L 351.524,-58.8316 L 351.611,-58
 L 351.611,-24.9195 L 351.474,-23.8799 L 351.173,-23.0996 L 350.717,-22.3988 L 350.125,-21.8081 L 349.423,-21.3535
 L 348.642,-21.0547 L 347.816,-20.9248 z
M 1431.91,-21.0547 L 1431.13,-21.3535 L 1430.43,-21.8081 L 1429.84,-22.3988 L 1429.38,-23.0996 L 1429.08,-23.8799
 L 1428.94,-24.9195 L 1428.94,-58 L 1429.03,-58.8316 L 1429.29,-59.627 L 1429.71,-60.3511 L 1430.27,-60.9726
 L 1430.94,-61.4641 L 1431.71,-61.8042 L 1432.94,-62 L 1518.83,-62 L 1519.67,-61.9126 L 1520.46,-61.6542
 L 1521.19,-61.2361 L 1521.81,-60.6765 L 1522.3,-60 L 1522.64,-59.2361 L 1522.81,-58.4181 L 1522.81,-57.5819
 L 1522.64,-56.7639 L 1522.3,-56 L 1521.81,-55.3235 L 1521.19,-54.7639 L 1520.27,-54.2673 L 1434.38,-21.1868
 L 1433.57,-20.9695 L 1432.74,-20.9248 z
M 170.425,-20.9695 L 169.618,-21.1868 L 83.7275,-54.2673 L 82.814,-54.7639 L 82.1926,-55.3235 L 81.7011,-56
 L 81.3609,-56.7639 L 81.1871,-57.5819 L 81.1871,-58.4181 L 81.3609,-59.2361 L 81.7011,-60 L 82.1926,-60.6765
 L 82.814,-61.2361 L 83.5382,-61.6542 L 84.3335,-61.9126 L 85.1652,-62 L 171.056,-62 L 172.292,-61.8042
 L 173.056,-61.4641 L 173.732,-60.9726 L 174.292,-60.3511 L 174.71,-59.627 L 174.968,-58.8316 L 175.056,-58
 L 175.056,-24.9195 L 174.918,-23.8799 L 174.618,-23.0996 L 174.161,-22.3988 L 173.569,-21.8081 L 172.868,-21.3535
 L 172.087,-21.0547 L 171.26,-20.9248 z
M 1255.36,-21.0547 L 1254.58,-21.3535 L 1253.88,-21.8081 L 1253.28,-22.3988 L 1252.83,-23.0996 L 1252.53,-23.8799
 L 1252.39,-24.9195 L 1252.39,-58 L 1252.48,-58.8316 L 1252.73,-59.627 L 1253.15,-60.3511 L 1253.71,-60.9726
 L 1254.39,-61.4641 L 1255.15,-61.8042 L 1256.39,-62 L 1342.28,-62 L 1343.11,-61.9126 L 1343.91,-61.6542
 L 1344.63,-61.2361 L 1345.25,-60.6765 L 1345.74,-60 L 1346.08,-59.2361 L 1346.26,-58.4181 L 1346.26,-57.5819
 L 1346.08,-56.7639 L 1345.74,-56 L 1345.25,-55.3235 L 1344.63,-54.7639 L 1343.72,-54.2673 L 1257.83,-21.1868
 L 1257.02,-20.9695 L 1256.18,-20.9248 z
M 726.304,-18.801 L 725.486,-18.9749 L 724.722,-19.315 L 724.046,-19.8065 L 723.486,-20.428 L 723.068,-21.1522
 L 722.81,-21.9475 L 722.722,-22.7791 L 722.722,-57.2209 L 722.86,-58.2605 L 723.16,-59.0408 L 723.616,-59.7416
 L 724.208,-60.3323 L 724.91,-60.7869 L 725.691,-61.0857 L 726.517,-61.2156 L 727.352,-61.1709 L 728.16,-60.9536
 L 772.872,-43.7327 L 773.948,-43.1114 L 774.54,-42.5208 L 774.997,-41.8199 L 775.297,-41.0396 L 775.429,-40.2138
 L 775.386,-39.3787 L 775.171,-38.5707 L 774.792,-37.8252 L 774.266,-37.1747 L 773.617,-36.6478 L 772.872,-36.2673
 L 728.16,-19.0464 L 727.14,-18.801 z
M 876.648,-18.8291 L 875.84,-19.0464 L 831.128,-36.2673 L 830.052,-36.8886 L 829.46,-37.4792 L 829.003,-38.1801
 L 828.703,-38.9604 L 828.571,-39.7862 L 828.614,-40.6213 L 828.829,-41.4293 L 829.208,-42.1748 L 829.734,-42.8253
 L 830.383,-43.3522 L 831.128,-43.7327 L 875.84,-60.9536 L 876.86,-61.199 L 877.696,-61.199 L 878.514,-61.0251
 L 879.278,-60.685 L 879.954,-60.1935 L 880.514,-59.572 L 880.932,-58.8478 L 881.19,-58.0525 L 881.278,-57.2209
 L 881.278,-22.7791 L 881.14,-21.7395 L 880.84,-20.9592 L 880.384,-20.2584 L 879.792,-19.6677 L 879.09,-19.2131
 L 878.309,-18.9143 L 877.483,-18.7844 z
M 197.056,-18 L 195.819,-18.1958 L 195.056,-18.5359 L 194.379,-19.0274 L 193.819,-19.6489 L 193.401,-20.373
 L 193.143,-21.1684 L 193.056,-22 L 193.056,-55.0805 L 193.193,-56.1201 L 193.494,-56.9004 L 193.95,-57.6012
 L 194.542,-58.1919 L 195.244,-58.6465 L 196.025,-58.9453 L 196.851,-59.0752 L 197.686,-59.0305 L 198.493,-58.8132
 L 284.384,-25.7327 L 285.297,-25.2361 L 285.918,-24.6765 L 286.41,-24 L 286.75,-23.2361 L 286.924,-22.4181
 L 286.924,-21.5819 L 286.75,-20.7639 L 286.41,-20 L 285.918,-19.3235 L 285.297,-18.7639 L 284.573,-18.3458
 L 283.778,-18.0874 L 282.946,-18 z
M 373.611,-18 L 372.375,-18.1958 L 371.611,-18.5359 L 370.935,-19.0274 L 370.375,-19.6489 L 369.957,-20.373
 L 369.699,-21.1684 L 369.611,-22 L 369.611,-55.0805 L 369.749,-56.1201 L 370.049,-56.9004 L 370.505,-57.6012
 L 371.097,-58.1919 L 371.799,-58.6465 L 372.58,-58.9453 L 373.406,-59.0752 L 374.241,-59.0305 L 375.049,-58.8132
 L 460.939,-25.7327 L 461.853,-25.2361 L 462.474,-24.6765 L 462.966,-24 L 463.306,-23.2361 L 463.48,-22.4181
 L 463.48,-21.5819 L 463.306,-20.7639 L 462.966,-20 L 462.474,-19.3235 L 461.853,-18.7639 L 461.128,-18.3458
 L 460.333,-18.0874 L 459.501,-18 z
M 550.167,-18 L 548.931,-18.1958 L 548.167,-18.5359 L 547.49,-19.0274 L 546.931,-19.6489 L 546.512,-20.373
 L 546.254,-21.1684 L 546.167,-22 L 546.167,-55.0805 L 546.304,-56.1201 L 546.605,-56.9004 L 547.061,-57.6012
 L 547.653,-58.1919 L 548.355,-58.6465 L 549.136,-58.9453 L 549.962,-59.0752 L 550.797,-59.0305 L 551.604,-58.8132
 L 637.495,-25.7327 L 638.408,-25.2361 L 639.03,-24.6765 L 639.521,-24 L 639.861,-23.2361 L 640.035,-22.4181
 L 640.035,-21.5819 L 639.861,-20.7639 L 639.521,-20 L 639.03,-19.3235 L 638.408,-18.7639 L 637.684,-18.3458
 L 636.889,-18.0874 L 636.057,-18 z
M 967.943,-18 L 967.111,-18.0874 L 966.316,-18.3458 L 965.592,-18.7639 L 964.97,-19.3235 L 964.479,-20
 L 964.139,-20.7639 L 963.965,-21.5819 L 963.965,-22.4181 L 964.139,-23.2361 L 964.479,-24 L 964.97,-24.6765
 L 965.592,-25.2361 L 966.505,-25.7327 L 1052.4,-58.8132 L 1053.2,-59.0305 L 1054.04,-59.0752 L 1054.86,-58.9453
 L 1055.65,-58.6465 L 1056.35,-58.1919 L 1056.94,-57.6012 L 1057.4,-56.9004 L 1057.7,-56.1201 L 1057.83,-55.0805
 L 1057.83,-22 L 1057.75,-21.1684 L 1057.49,-20.373 L 1057.07,-19.6489 L 1056.51,-19.0274 L 1055.83,-18.5359
 L 1055.07,-18.1958 L 1053.83,-18 z
M 1144.5,-18 L 1143.67,-18.0874 L 1142.87,-18.3458 L 1142.15,-18.7639 L 1141.53,-19.3235 L 1141.03,-20
 L 1140.69,-20.7639 L 1140.52,-21.5819 L 1140.52,-22.4181 L 1140.69,-23.2361 L 1141.03,-24 L 1141.53,-24.6765
 L 1142.15,-25.2361 L 1143.06,-25.7327 L 1228.95,-58.8132 L 1229.76,-59.0305 L 1230.59,-59.0752 L 1231.42,-58.9453
 L 1232.2,-58.6465 L 1232.9,-58.1919 L 1233.49,-57.6012 L 1233.95,-56.9004 L 1234.25,-56.1201 L 1234.39,-55.0805
 L 1234.39,-22 L 1234.3,-21.1684 L 1234.04,-20.373 L 1233.62,-19.6489 L 1233.07,-19.0274 L 1232.39,-18.5359
 L 1231.62,-18.1958 L 1230.39,-18 z
M 1321.05,-18 L 1320.22,-18.0874 L 1319.43,-18.3458 L 1318.7,-18.7639 L 1318.08,-19.3235 L 1317.59,-20
 L 1317.25,-20.7639 L 1317.08,-21.5819 L 1317.08,-22.4181 L 1317.25,-23.2361 L 1317.59,-24 L 1318.08,-24.6765
 L 1318.7,-25.2361 L 1319.62,-25.7327 L 1405.51,-58.8132 L 1406.31,-59.0305 L 1407.15,-59.0752 L 1407.98,-58.9453
 L 1408.76,-58.6465 L 1409.46,-58.1919 L 1410.05,-57.6012 L 1410.51,-56.9004 L 1410.81,-56.1201 L 1410.94,-55.0805
 L 1410.94,-22 L 1410.86,-21.1684 L 1410.6,-20.373 L 1410.18,-19.6489 L 1409.62,-19.0274 L 1408.94,-18.5359
 L 1408.18,-18.1958 L 1406.94,-18 z
M 22,-18 L 20.7639,-18.1958 L 20,-18.5359 L 19.3235,-19.0274 L 18.7639,-19.6489 L 18.3458,-20.373
 L 18.0874,-21.1684 L 18,-22 L 18,-54.5028 L 18.1375,-55.5424 L 18.438,-56.3227 L 18.8942,-57.0235
 L 19.4862,-57.6142 L 20.188,-58.0688 L 20.969,-58.3676 L 21.7951,-58.4975 L 22.6302,-58.4528 L 23.4377,-58.2355
 L 107.828,-25.7327 L 108.741,-25.2361 L 109.363,-24.6765 L 109.854,-24 L 110.195,-23.2361 L 110.368,-22.4181
 L 110.368,-21.5819 L 110.195,-20.7639 L 109.854,-20 L 109.363,-19.3235 L 108.741,-18.7639 L 108.017,-18.3458
 L 107.222,-18.0874 L 106.39,-18 z
M 1497.61,-18 L 1496.78,-18.0874 L 1495.98,-18.3458 L 1495.26,-18.7639 L 1494.64,-19.3235 L 1494.15,-20
 L 1493.81,-20.7639 L 1493.63,-21.5819 L 1493.63,-22.4181 L 1493.81,-23.2361 L 1494.15,-24 L 1494.64,-24.6765
 L 1495.26,-25.2361 L 1496.17,-25.7327 L 1580.56,-58.2355 L 1581.37,-58.4528 L 1582.2,-58.4975 L 1583.03,-58.3676
 L 1583.81,-58.0688 L 1584.51,-57.6142 L 1585.11,-57.0235 L 1585.56,-56.3227 L 1585.86,-55.5424 L 1586,-54.5028
 L 1586,-22 L 1585.91,-21.1684 L 1585.65,-20.373 L 1585.24,-19.6489 L 1584.68,-19.0274 L 1584,-18.5359
 L 1583.24,-18.1958 L 1582,-18 z
M 785.83,-18 L 784.799,-18.1351 L 784.018,-18.4339 L 783.316,-18.8886 L 782.724,-19.4792 L 782.268,-20.1801
 L 781.967,-20.9604 L 781.836,-21.7862 L 781.879,-22.6213 L 782.094,-23.4293 L 782.473,-24.1748 L 782.998,-24.8253
 L 783.648,-25.3522 L 784.392,-25.7327 L 800.562,-31.9605 L 800.969,-32.0927 L 801.795,-32.2226 L 802.63,-32.1779
 L 803.438,-31.9605 L 819.608,-25.7327 L 820.521,-25.2361 L 821.142,-24.6765 L 821.634,-24 L 821.974,-23.2361
 L 822.148,-22.4181 L 822.148,-21.5819 L 821.974,-20.7639 L 821.634,-20 L 821.142,-19.3235 L 820.521,-18.7639
 L 819.797,-18.3458 L 819.002,-18.0874 L 818.17,-18 z
" stroke="black" fill="lightgray" stroke-width="0.5"/>
</svg>
