<?xml version="1.0" standalone="no"?>
<!DOCTYPE svg PUBLIC "-//W3C//DTD SVG 1.1//EN" "http://www.w3.org/Graphics/SVG/1.1/DTD/svg11.dtd">
<svg width="1156mm" height="80mm" viewBox="0 -80 1156 80" xmlns="http://www.w3.org/2000/svg" version="1.1">
<title>OpenSCAD Model</title>
<path d="
M 1156,-80 L 0,-80 L 0,-0 L 4.95,-0 L 4.95,-6 L 5.00572,-6.53017
 L 5.17046,-7.03717 L 5.437,-7.49884 L 5.79372,-7.895 L 6.22499,-8.20836 L 6.71201,-8.42519 L 7.23344,-8.53603
 L 7.76654,-8.53603 L 8.28798,-8.42519 L 8.77499,-8.20836 L 9.20627,-7.895 L 9.56299,-7.49884 L 9.82953,-7.03717
 L 9.99426,-6.53017 L 10.05,-6 L 10.05,-0 L 195.117,-0 L 195.117,-6 L 195.172,-6.53017
 L 195.337,-7.03717 L 195.604,-7.49884 L 195.96,-7.895 L 196.392,-8.20836 L 196.879,-8.42519 L 197.4,-8.53603
 L 197.933,-8.53603 L 198.455,-8.42519 L 198.942,-8.20836 L 199.373,-7.895 L 199.73,-7.49884 L 199.996,-7.03717
 L 200.161,-6.53017 L 200.217,-6 L 200.217,-0 L 385.283,-0 L 385.283,-6 L 385.339,-6.53017
 L 385.504,-7.03717 L 385.77,-7.49884 L 386.127,-7.895 L 386.558,-8.20836 L 387.045,-8.42519 L 387.567,-8.53603
 L 388.1,-8.53603 L 388.621,-8.42519 L 389.108,-8.20836 L 389.54,-7.895 L 389.896,-7.49884 L 390.163,-7.03717
 L 390.328,-6.53017 L 390.383,-6 L 390.383,-0 L 575.45,-0 L 575.45,-6 L 575.506,-6.53017
 L 575.67,-7.03717 L 575.937,-7.49884 L 576.294,-7.895 L 576.725,-8.20836 L 577.212,-8.42519 L 577.733,-8.53603
 L 578.267,-8.53603 L 578.788,-8.42519 L 579.275,-8.20836 L 579.706,-7.895 L 580.063,-7.49884 L 580.33,-7.03717
 L 580.494,-6.53017 L 580.55,-6 L 580.55,-0 L 765.617,-0 L 765.617,-6 L 765.672,-6.53017
 L 765.837,-7.03717 L 766.104,-7.49884 L 766.46,-7.895 L 766.892,-8.20836 L 767.379,-8.42519 L 767.9,-8.53603
 L 768.433,-8.53603 L 768.955,-8.42519 L 769.442,-8.20836 L 769.873,-7.895 L 770.23,-7.49884 L 770.496,-7.03717
 L 770.661,-6.53017 L 770.717,-6 L 770.717,-0 L 955.783,-0 L 955.783,-6 L 955.839,-6.53017
 L 956.004,-7.03717 L 956.27,-7.49884 L 956.627,-7.895 L 957.058,-8.20836 L 957.545,-8.42519 L 958.067,-8.53603
 L 958.6,-8.53603 L 959.121,-8.42519 L 959.608,-8.20836 L 960.04,-7.895 L 960.396,-7.49884 L 960.663,-7.03717
 L 960.828,-6.53017 L 960.883,-6 L 960.883,-0 L 1145.95,-0 L 1145.95,-6 L 1146.01,-6.53017
 L 1146.17,-7.03717 L 1146.44,-7.49884 L 1146.79,-7.895 L 1147.22,-8.20836 L 1147.71,-8.42519 L 1148.23,-8.53603
 L 1148.77,-8.53603 L 1149.29,-8.42519 L 1149.77,-8.20836 L 1150.21,-7.895 L 1150.56,-7.49884 L 1150.83,-7.03717
 L 1150.99,-6.53017 L 1151.05,-6 L 1151.05,-0 L 1156,-0 z
M 6.98573,-55.607 L 6.47708,-55.6875 L 5.97964,-55.8208 L 5.49887,-56.0054 L 5.04001,-56.2392 L 4.60811,-56.5196
 L 4.20789,-56.8437 L 3.84373,-57.2079 L 3.51964,-57.6081 L 3.23917,-58.04 L 3.00537,-58.4989 L 2.82082,-58.9796
 L 2.68752,-59.4771 L 2.60696,-59.9857 L 2.58,-60.5 L 2.60696,-61.0143 L 2.68752,-61.5229 L 2.82082,-62.0204
 L 3.00537,-62.5011 L 3.23917,-62.96 L 3.51964,-63.3919 L 3.84373,-63.7921 L 4.20789,-64.1563 L 4.60811,-64.4804
 L 4.95001,-64.7024 L 4.95001,-74 L 5.00574,-74.5302 L 5.17047,-75.0372 L 5.43701,-75.4988 L 5.79373,-75.895
 L 6.22501,-76.2084 L 6.71202,-76.4252 L 7.23346,-76.536 L 7.76654,-76.536 L 8.28798,-76.4252 L 8.77499,-76.2084
 L 9.20627,-75.895 L 9.56299,-75.4988 L 9.82953,-75.0372 L 9.99426,-74.5302 L 10.05,-74 L 10.05,-64.7024
 L 10.3919,-64.4804 L 10.7921,-64.1563 L 11.1563,-63.7921 L 11.4804,-63.3919 L 11.7608,-62.96 L 11.9946,-62.5011
 L 12.1792,-62.0204 L 12.3125,-61.5229 L 12.393,-61.0143 L 12.42,-60.5 L 12.393,-59.9857 L 12.3125,-59.4771
 L 12.1792,-58.9796 L 11.9946,-58.4989 L 11.7608,-58.04 L 11.4804,-57.6081 L 11.1563,-57.2079 L 10.7921,-56.8437
 L 10.3919,-56.5196 L 9.95999,-56.2392 L 9.50113,-56.0054 L 9.02036,-55.8208 L 8.52292,-55.6875 L 8.01427,-55.607
 L 7.5,-55.58 z
M 197.152,-55.607 L 196.644,-55.6875 L 196.146,-55.8208 L 195.666,-56.0054 L 195.207,-56.2392 L 194.775,-56.5196
 L 194.375,-56.8437 L 194.01,-57.2079 L 193.686,-57.6081 L 193.406,-58.04 L 193.172,-58.4989 L 192.987,-58.9796
 L 192.854,-59.4771 L 192.774,-59.9857 L 192.747,-60.5 L 192.774,-61.0143 L 192.854,-61.5229 L 192.987,-62.0204
 L 193.172,-62.5011 L 193.406,-62.96 L 193.686,-63.3919 L 194.01,-63.7921 L 194.375,-64.1563 L 194.775,-64.4804
 L 195.117,-64.7024 L 195.117,-74 L 195.172,-74.5302 L 195.337,-75.0372 L 195.604,-75.4988 L 195.96,-75.895
 L 196.392,-76.2084 L 196.879,-76.4252 L 197.4,-76.536 L 197.933,-76.536 L 198.455,-76.4252 L 198.942,-76.2084
 L 199.373,-75.895 L 199.73,-75.4988 L 199.996,-75.0372 L 200.161,-74.5302 L 200.217,-74 L 200.217,-64.7024
 L 200.559,-64.4804 L 200.959,-64.1563 L 201.323,-63.7921 L 201.647,-63.3919 L 201.927,-62.96 L 202.161,-62.5011
 L 202.346,-62.0204 L 202.479,-61.5229 L 202.56,-61.0143 L 202.587,-60.5 L 202.56,-59.9857 L 202.479,-59.4771
 L 202.346,-58.9796 L 202.161,-58.4989 L 201.927,-58.04 L 201.647,-57.6081 L 201.323,-57.2079 L 200.959,-56.8437
 L 200.559,-56.5196 L 200.127,-56.2392 L 199.668,-56.0054 L 199.187,-55.8208 L 198.69,-55.6875 L 198.181,-55.607
 L 197.667,-55.58 z
M 387.319,-55.607 L 386.81,-55.6875 L 386.313,-55.8208 L 385.832,-56.0054 L 385.373,-56.2392 L 384.941,-56.5196
 L 384.541,-56.8437 L 384.177,-57.2079 L 383.853,-57.6081 L 383.572,-58.04 L 383.339,-58.4989 L 383.154,-58.9796
 L 383.021,-59.4771 L 382.94,-59.9857 L 382.913,-60.5 L 382.94,-61.0143 L 383.021,-61.5229 L 383.154,-62.0204
 L 383.339,-62.5011 L 383.572,-62.96 L 383.853,-63.3919 L 384.177,-63.7921 L 384.541,-64.1563 L 384.941,-64.4804
 L 385.283,-64.7024 L 385.283,-74 L 385.339,-74.5302 L 385.504,-75.0372 L 385.77,-75.4988 L 386.127,-75.895
 L 386.558,-76.2084 L 387.045,-76.4252 L 387.567,-76.536 L 388.1,-76.536 L 388.621,-76.4252 L 389.108,-76.2084
 L 389.54,-75.895 L 389.896,-75.4988 L 390.163,-75.0372 L 390.328,-74.5302 L 390.383,-74 L 390.383,-64.7024
 L 390.725,-64.4804 L 391.125,-64.1563 L 391.49,-63.7921 L 391.814,-63.3919 L 392.094,-62.96 L 392.328,-62.5011
 L 392.513,-62.0204 L 392.646,-61.5229 L 392.726,-61.0143 L 392.753,-60.5 L 392.726,-59.9857 L 392.646,-59.4771
 L 392.513,-58.9796 L 392.328,-58.4989 L 392.094,-58.04 L 391.814,-57.6081 L 391.49,-57.2079 L 391.125,-56.8437
 L 390.725,-56.5196 L 390.293,-56.2392 L 389.834,-56.0054 L 389.354,-55.8208 L 388.856,-55.6875 L 388.348,-55.607
 L 387.833,-55.58 z
M 577.486,-55.607 L 576.977,-55.6875 L 576.48,-55.8208 L 575.999,-56.0054 L 575.54,-56.2392 L 575.108,-56.5196
 L 574.708,-56.8437 L 574.344,-57.2079 L 574.02,-57.6081 L 573.739,-58.04 L 573.505,-58.4989 L 573.321,-58.9796
 L 573.188,-59.4771 L 573.107,-59.9857 L 573.08,-60.5 L 573.107,-61.0143 L 573.188,-61.5229 L 573.321,-62.0204
 L 573.505,-62.5011 L 573.739,-62.96 L 574.02,-63.3919 L 574.344,-63.7921 L 574.708,-64.1563 L 575.108,-64.4804
 L 575.45,-64.7024 L 575.45,-74 L 575.506,-74.5302 L 575.67,-75.0372 L 575.937,-75.4988 L 576.294,-75.895
 L 576.725,-76.2084 L 577.212,-76.4252 L 577.733,-76.536 L 578.267,-76.536 L 578.788,-76.4252 L 579.275,-76.2084
 L 579.706,-75.895 L 580.063,-75.4988 L 580.33,-75.0372 L 580.494,-74.5302 L 580.55,-74 L 580.55,-64.7024
 L 580.892,-64.4804 L 581.292,-64.1563 L 581.656,-63.7921 L 581.98,-63.3919 L 582.261,-62.96 L 582.495,-62.5011
 L 582.679,-62.0204 L 582.812,-61.5229 L 582.893,-61.0143 L 582.92,-60.5 L 582.893,-59.9857 L 582.812,-59.4771
 L 582.679,-58.9796 L 582.495,-58.4989 L 582.261,-58.04 L 581.98,-57.6081 L 581.656,-57.2079 L 581.292,-56.8437
 L 580.892,-56.5196 L 580.46,-56.2392 L 580.001,-56.0054 L 579.52,-55.8208 L 579.023,-55.6875 L 578.514,-55.607
 L 578,-55.58 z
M 767.652,-55.607 L 767.144,-55.6875 L 766.646,-55.8208 L 766.166,-56.0054 L 765.707,-56.2392 L 765.275,-56.5196
 L 764.875,-56.8437 L 764.51,-57.2079 L 764.186,-57.6081 L 763.906,-58.04 L 763.672,-58.4989 L 763.487,-58.9796
 L 763.354,-59.4771 L 763.274,-59.9857 L 763.247,-60.5 L 763.274,-61.0143 L 763.354,-61.5229 L 763.487,-62.0204
 L 763.672,-62.5011 L 763.906,-62.96 L 764.186,-63.3919 L 764.51,-63.7921 L 764.875,-64.1563 L 765.275,-64.4804
 L 765.617,-64.7024 L 765.617,-74 L 765.672,-74.5302 L 765.837,-75.0372 L 766.104,-75.4988 L 766.46,-75.895
 L 766.892,-76.2084 L 767.379,-76.4252 L 767.9,-76.536 L 768.433,-76.536 L 768.955,-76.4252 L 769.442,-76.2084
 L 769.873,-75.895 L 770.23,-75.4988 L 770.496,-75.0372 L 770.661,-74.5302 L 770.717,-74 L 770.717,-64.7024
 L 771.059,-64.4804 L 771.459,-64.1563 L 771.823,-63.7921 L 772.147,-63.3919 L 772.427,-62.96 L 772.661,-62.5011
 L 772.846,-62.0204 L 772.979,-61.5229 L 773.06,-61.0143 L 773.087,-60.5 L 773.06,-59.9857 L 772.979,-59.4771
 L 772.846,-58.9796 L 772.661,-58.4989 L 772.427,-58.04 L 772.147,-57.6081 L 771.823,-57.2079 L 771.459,-56.8437
 L 771.059,-56.5196 L 770.627,-56.2392 L 770.168,-56.0054 L 769.687,-55.8208 L 769.19,-55.6875 L 768.681,-55.607
 L 768.167,-55.58 z
M 957.819,-55.607 L 957.31,-55.6875 L 956.813,-55.8208 L 956.332,-56.0054 L 955.873,-56.2392 L 955.441,-56.5196
 L 955.041,-56.8437 L 954.677,-57.2079 L 954.353,-57.6081 L 954.072,-58.04 L 953.839,-58.4989 L 953.654,-58.9796
 L 953.521,-59.4771 L 953.44,-59.9857 L 953.413,-60.5 L 953.44,-61.0143 L 953.521,-61.5229 L 953.654,-62.0204
 L 953.839,-62.5011 L 954.072,-62.96 L 954.353,-63.3919 L 954.677,-63.7921 L 955.041,-64.1563 L 955.441,-64.4804
 L 955.783,-64.7024 L 955.783,-74 L 955.839,-74.5302 L 956.004,-75.0372 L 956.27,-75.4988 L 956.627,-75.895
 L 957.058,-76.2084 L 957.545,-76.4252 L 958.067,-76.536 L 958.6,-76.536 L 959.121,-76.4252 L 959.608,-76.2084
 L 960.04,-75.895 L 960.396,-75.4988 L 960.663,-75.0372 L 960.828,-74.5302 L 960.883,-74 L 960.883,-64.7024
 L 961.225,-64.4804 L 961.625,-64.1563 L 961.99,-63.7921 L 962.314,-63.3919 L 962.594,-62.96 L 962.828,-62.5011
 L 963.013,-62.0204 L 963.146,-61.5229 L 963.226,-61.0143 L 963.253,-60.5 L 963.226,-59.9857 L 963.146,-59.4771
 L 963.013,-58.9796 L 962.828,-58.4989 L 962.594,-58.04 L 962.314,-57.6081 L 961.99,-57.2079 L 961.625,-56.8437
 L 961.225,-56.5196 L 960.793,-56.2392 L 960.334,-56.0054 L 959.854,-55.8208 L 959.356,-55.6875 L 958.848,-55.607
 L 958.333,-55.58 z
M 1147.99,-55.607 L 1147.48,-55.6875 L 1146.98,-55.8208 L 1146.5,-56.0054 L 1146.04,-56.2392 L 1145.61,-56.5196
 L 1145.21,-56.8437 L 1144.84,-57.2079 L 1144.52,-57.6081 L 1144.24,-58.04 L 1144.01,-58.4989 L 1143.82,-58.9796
 L 1143.69,-59.4771 L 1143.61,-59.9857 L 1143.58,-60.5 L 1143.61,-61.0143 L 1143.69,-61.5229 L 1143.82,-62.0204
 L 1144.01,-62.5011 L 1144.24,-62.96 L 1144.52,-63.3919 L 1144.84,-63.7921 L 1145.21,-64.1563 L 1145.61,-64.4804
 L 1145.95,-64.7024 L 1145.95,-74 L 1146.01,-74.5302 L 1146.17,-75.0372 L 1146.44,-75.4988 L 1146.79,-75.895
 L 1147.23,-76.2084 L 1147.71,-76.4252 L 1148.23,-76.536 L 1148.77,-76.536 L 1149.29,-76.4252 L 1149.77,-76.2084
 L 1150.21,-75.895 L 1150.56,-75.4988 L 1150.83,-75.0372 L 1150.99,-74.5302 L 1151.05,-74 L 1151.05,-64.7024
 L 1151.39,-64.4804 L 1151.79,-64.1563 L 1152.16,-63.7921 L 1152.48,-63.3919 L 1152.76,-62.96 L 1152.99,-62.5011
 L 1153.18,-62.0204 L 1153.31,-61.5229 L 1153.39,-61.0143 L 1153.42,-60.5 L 1153.39,-59.9857 L 1153.31,-59.4771
 L 1153.18,-58.9796 L 1152.99,-58.4989 L 1152.76,-58.04 L 1152.48,-57.6081 L 1152.16,-57.2079 L 1151.79,-56.8437
 L 1151.39,-56.5196 L 1150.96,-56.2392 L 1150.5,-56.0054 L 1150.02,-55.8208 L 1149.52,-55.6875 L 1149.01,-55.607
 L 1148.5,-55.58 z
M 970.209,-20.61 L 969.436,-20.9276 L 968.745,-21.3992 L 968.167,-22.004 L 967.728,-22.7156 L 967.447,-23.503
 L 967.333,-24.4488 L 967.333,-58 L 967.421,-58.8316 L 967.679,-59.627 L 968.097,-60.3511 L 968.657,-60.9726
 L 969.333,-61.4641 L 970.097,-61.8042 L 971.333,-62 L 1065.16,-62 L 1065.99,-61.9126 L 1066.79,-61.6542
 L 1067.51,-61.2361 L 1068.13,-60.6765 L 1068.63,-60 L 1068.97,-59.2361 L 1069.14,-58.4181 L 1069.14,-57.5819
 L 1068.97,-56.7639 L 1068.63,-56 L 1068.13,-55.3235 L 1067.51,-54.7639 L 1066.51,-54.2336 L 972.68,-20.6823
 L 971.868,-20.4846 L 971.032,-20.4601 z
M 374.299,-20.4846 L 373.487,-20.6823 L 279.658,-54.2336 L 278.654,-54.7639 L 278.032,-55.3235 L 277.541,-56
 L 277.201,-56.7639 L 277.027,-57.5819 L 277.027,-58.4181 L 277.201,-59.2361 L 277.541,-60 L 278.032,-60.6765
 L 278.654,-61.2361 L 279.378,-61.6542 L 280.173,-61.9126 L 281.005,-62 L 374.833,-62 L 376.069,-61.8042
 L 376.833,-61.4641 L 377.51,-60.9726 L 378.069,-60.3511 L 378.487,-59.627 L 378.746,-58.8316 L 378.833,-58
 L 378.833,-24.4488 L 378.72,-23.503 L 378.438,-22.7156 L 377.999,-22.004 L 377.422,-21.3992 L 376.731,-20.9276
 L 375.958,-20.61 L 375.135,-20.4601 z
M 184.132,-20.4846 L 183.32,-20.6823 L 89.4915,-54.2336 L 88.4872,-54.7639 L 87.8657,-55.3235 L 87.3742,-56
 L 87.0341,-56.7639 L 86.8602,-57.5819 L 86.8602,-58.4181 L 87.0341,-59.2361 L 87.3742,-60 L 87.8657,-60.6765
 L 88.4872,-61.2361 L 89.2114,-61.6542 L 90.0067,-61.9126 L 90.8383,-62 L 184.667,-62 L 185.903,-61.8042
 L 186.667,-61.4641 L 187.343,-60.9726 L 187.903,-60.3511 L 188.321,-59.627 L 188.579,-58.8316 L 188.667,-58
 L 188.667,-24.4488 L 188.553,-23.503 L 188.272,-22.7156 L 187.833,-22.004 L 187.255,-21.3992 L 186.564,-20.9276
 L 185.791,-20.61 L 184.968,-20.4601 z
M 564.466,-20.4846 L 563.653,-20.6823 L 469.825,-54.2336 L 468.821,-54.7639 L 468.199,-55.3235 L 467.708,-56
 L 467.367,-56.7639 L 467.194,-57.5819 L 467.194,-58.4181 L 467.367,-59.2361 L 467.708,-60 L 468.199,-60.6765
 L 468.821,-61.2361 L 469.545,-61.6542 L 470.34,-61.9126 L 471.172,-62 L 565,-62 L 566.236,-61.8042
 L 567,-61.4641 L 567.677,-60.9726 L 568.236,-60.3511 L 568.654,-59.627 L 568.913,-58.8316 L 569,-58
 L 569,-24.4488 L 568.887,-23.503 L 568.605,-22.7156 L 568.166,-22.004 L 567.588,-21.3992 L 566.898,-20.9276
 L 566.124,-20.61 L 565.302,-20.4601 z
M 589.876,-20.61 L 589.102,-20.9276 L 588.412,-21.3992 L 587.834,-22.004 L 587.395,-22.7156 L 587.113,-23.503
 L 587,-24.4488 L 587,-58 L 587.087,-58.8316 L 587.346,-59.627 L 587.764,-60.3511 L 588.323,-60.9726
 L 589,-61.4641 L 589.764,-61.8042 L 591,-62 L 684.828,-62 L 685.66,-61.9126 L 686.455,-61.6542
 L 687.179,-61.2361 L 687.801,-60.6765 L 688.292,-60 L 688.633,-59.2361 L 688.806,-58.4181 L 688.806,-57.5819
 L 688.633,-56.7639 L 688.292,-56 L 687.801,-55.3235 L 687.179,-54.7639 L 686.175,-54.2336 L 592.347,-20.6823
 L 591.534,-20.4846 L 590.698,-20.4601 z
M 780.042,-20.61 L 779.269,-20.9276 L 778.578,-21.3992 L 778.001,-22.004 L 777.562,-22.7156 L 777.28,-23.503
 L 777.167,-24.4488 L 777.167,-58 L 777.254,-58.8316 L 777.512,-59.627 L 777.931,-60.3511 L 778.49,-60.9726
 L 779.167,-61.4641 L 779.931,-61.8042 L 781.167,-62 L 874.995,-62 L 875.827,-61.9126 L 876.622,-61.6542
 L 877.346,-61.2361 L 877.968,-60.6765 L 878.459,-60 L 878.799,-59.2361 L 878.973,-58.4181 L 878.973,-57.5819
 L 878.799,-56.7639 L 878.459,-56 L 877.968,-55.3235 L 877.346,-54.7639 L 876.342,-54.2336 L 782.513,-20.6823
 L 781.701,-20.4846 L 780.865,-20.4601 z
M 210.667,-18 L 209.431,-18.1958 L 208.667,-18.5359 L 207.99,-19.0274 L 207.431,-19.6489 L 207.012,-20.373
 L 206.754,-21.1684 L 206.667,-22 L 206.667,-55.5512 L 206.78,-56.4969 L 207.062,-57.2844 L 207.501,-57.996
 L 208.078,-58.6008 L 208.769,-59.0723 L 209.542,-59.39 L 210.365,-59.5398 L 211.201,-59.5154 L 212.013,-59.3177
 L 305.842,-25.7664 L 306.846,-25.2361 L 307.468,-24.6765 L 307.959,-24 L 308.299,-23.2361 L 308.473,-22.4181
 L 308.473,-21.5819 L 308.299,-20.7639 L 307.959,-20 L 307.468,-19.3235 L 306.846,-18.7639 L 306.122,-18.3458
 L 305.327,-18.0874 L 304.495,-18 z
M 400.833,-18 L 399.597,-18.1958 L 398.833,-18.5359 L 398.157,-19.0274 L 397.597,-19.6489 L 397.179,-20.373
 L 396.921,-21.1684 L 396.833,-22 L 396.833,-55.5512 L 396.947,-56.4969 L 397.228,-57.2844 L 397.667,-57.996
 L 398.245,-58.6008 L 398.936,-59.0723 L 399.709,-59.39 L 400.532,-59.5398 L 401.368,-59.5154 L 402.18,-59.3177
 L 496.008,-25.7664 L 497.013,-25.2361 L 497.634,-24.6765 L 498.126,-24 L 498.466,-23.2361 L 498.64,-22.4181
 L 498.64,-21.5819 L 498.466,-20.7639 L 498.126,-20 L 497.634,-19.3235 L 497.013,-18.7639 L 496.289,-18.3458
 L 495.493,-18.0874 L 494.662,-18 z
M 661.338,-18 L 660.507,-18.0874 L 659.711,-18.3458 L 658.987,-18.7639 L 658.366,-19.3235 L 657.874,-20
 L 657.534,-20.7639 L 657.36,-21.5819 L 657.36,-22.4181 L 657.534,-23.2361 L 657.874,-24 L 658.366,-24.6765
 L 658.987,-25.2361 L 659.992,-25.7664 L 753.82,-59.3177 L 754.632,-59.5154 L 755.468,-59.5398 L 756.291,-59.39
 L 757.064,-59.0723 L 757.755,-58.6008 L 758.333,-57.996 L 758.772,-57.2844 L 759.053,-56.4969 L 759.167,-55.5512
 L 759.167,-22 L 759.079,-21.1684 L 758.821,-20.373 L 758.403,-19.6489 L 757.843,-19.0274 L 757.167,-18.5359
 L 756.403,-18.1958 L 755.167,-18 z
M 851.505,-18 L 850.673,-18.0874 L 849.878,-18.3458 L 849.154,-18.7639 L 848.532,-19.3235 L 848.041,-20
 L 847.701,-20.7639 L 847.527,-21.5819 L 847.527,-22.4181 L 847.701,-23.2361 L 848.041,-24 L 848.532,-24.6765
 L 849.154,-25.2361 L 850.158,-25.7664 L 943.987,-59.3177 L 944.799,-59.5154 L 945.635,-59.5398 L 946.458,-59.39
 L 947.231,-59.0723 L 947.922,-58.6008 L 948.499,-57.996 L 948.938,-57.2844 L 949.22,-56.4969 L 949.333,-55.5512
 L 949.333,-22 L 949.246,-21.1684 L 948.988,-20.373 L 948.569,-19.6489 L 948.01,-19.0274 L 947.333,-18.5359
 L 946.569,-18.1958 L 945.333,-18 z
M 1041.67,-18 L 1040.84,-18.0874 L 1040.04,-18.3458 L 1039.32,-18.7639 L 1038.7,-19.3235 L 1038.21,-20
 L 1037.87,-20.7639 L 1037.69,-21.5819 L 1037.69,-22.4181 L 1037.87,-23.2361 L 1038.21,-24 L 1038.7,-24.6765
 L 1039.32,-25.2361 L 1040.32,-25.7664 L 1132.65,-58.7813 L 1133.47,-58.979 L 1134.3,-59.0035 L 1135.12,-58.8536
 L 1135.9,-58.536 L 1136.59,-58.0645 L 1137.17,-57.4597 L 1137.61,-56.748 L 1137.89,-55.9606 L 1138,-55.0149
 L 1138,-22 L 1137.91,-21.1684 L 1137.65,-20.373 L 1137.24,-19.6489 L 1136.68,-19.0274 L 1136,-18.5359
 L 1135.24,-18.1958 L 1134,-18 z
M 22,-18 L 20.7639,-18.1958 L 20,-18.5359 L 19.3235,-19.0274 L 18.7639,-19.6489 L 18.3458,-20.373
 L 18.0874,-21.1684 L 18,-22 L 18,-55.0149 L 18.1134,-55.9606 L 18.395,-56.748 L 18.8341,-57.4597
 L 19.4116,-58.0645 L 20.1022,-58.536 L 20.8757,-58.8536 L 21.6984,-59.0035 L 22.5343,-58.979 L 23.3468,-58.7813
 L 115.675,-25.7664 L 116.679,-25.2361 L 117.301,-24.6765 L 117.792,-24 L 118.133,-23.2361 L 118.306,-22.4181
 L 118.306,-21.5819 L 118.133,-20.7639 L 117.792,-20 L 117.301,-19.3235 L 116.679,-18.7639 L 115.955,-18.3458
 L 115.16,-18.0874 L 114.328,-18 z
" stroke="black" fill="lightgray" stroke-width="0.5"/>
</svg>
