<?xml version="1.0" standalone="no"?>
<!DOCTYPE svg PUBLIC "-//W3C//DTD SVG 1.1//EN" "http://www.w3.org/Graphics/SVG/1.1/DTD/svg11.dtd">
<svg width="1623mm" height="80mm" viewBox="0 -80 1623 80" xmlns="http://www.w3.org/2000/svg" version="1.1">
<title>OpenSCAD Model</title>
<path d="
M 1623,-80 L 0,-80 L 0,-0 L 4.95,-0 L 4.95,-6 L 5.00572,-6.53017
 L 5.17046,-7.03717 L 5.437,-7.49884 L 5.79372,-7.895 L 6.22499,-8.20836 L 6.71201,-8.42519 L 7.23344,-8.53603
 L 7.76654,-8.53603 L 8.28798,-8.42519 L 8.77499,-8.20836 L 9.20627,-7.895 L 9.56299,-7.49884 L 9.82953,-7.03717
 L 9.99426,-6.53017 L 10.05,-6 L 10.05,-0 L 183.617,-0 L 183.617,-6 L 183.672,-6.53017
 L 183.837,-7.03717 L 184.104,-7.49884 L 184.46,-7.895 L 184.892,-8.20836 L 185.379,-8.42519 L 185.9,-8.53603
 L 186.433,-8.53603 L 186.955,-8.42519 L 187.442,-8.20836 L 187.873,-7.895 L 188.23,-7.49884 L 188.496,-7.03717
 L 188.661,-6.53017 L 188.717,-6 L 188.717,-0 L 362.283,-0 L 362.283,-6 L 362.339,-6.53017
 L 362.504,-7.03717 L 362.77,-7.49884 L 363.127,-7.895 L 363.558,-8.20836 L 364.045,-8.42519 L 364.567,-8.53603
 L 365.1,-8.53603 L 365.621,-8.42519 L 366.108,-8.20836 L 366.54,-7.895 L 366.896,-7.49884 L 367.163,-7.03717
 L 367.328,-6.53017 L 367.383,-6 L 367.383,-0 L 540.95,-0 L 540.95,-6 L 541.006,-6.53017
 L 541.17,-7.03717 L 541.437,-7.49884 L 541.794,-7.895 L 542.225,-8.20836 L 542.712,-8.42519 L 543.233,-8.53603
 L 543.767,-8.53603 L 544.288,-8.42519 L 544.775,-8.20836 L 545.206,-7.895 L 545.563,-7.49884 L 545.83,-7.03717
 L 545.994,-6.53017 L 546.05,-6 L 546.05,-0 L 719.617,-0 L 719.617,-6 L 719.672,-6.53017
 L 719.837,-7.03717 L 720.104,-7.49884 L 720.46,-7.895 L 720.892,-8.20836 L 721.379,-8.42519 L 721.9,-8.53603
 L 722.433,-8.53603 L 722.955,-8.42519 L 723.442,-8.20836 L 723.873,-7.895 L 724.23,-7.49884 L 724.496,-7.03717
 L 724.661,-6.53017 L 724.717,-6 L 724.717,-0 L 898.283,-0 L 898.283,-6 L 898.339,-6.53017
 L 898.504,-7.03717 L 898.77,-7.49884 L 899.127,-7.895 L 899.558,-8.20836 L 900.045,-8.42519 L 900.567,-8.53603
 L 901.1,-8.53603 L 901.621,-8.42519 L 902.108,-8.20836 L 902.54,-7.895 L 902.896,-7.49884 L 903.163,-7.03717
 L 903.328,-6.53017 L 903.383,-6 L 903.383,-0 L 1076.95,-0 L 1076.95,-6 L 1077.01,-6.53017
 L 1077.17,-7.03717 L 1077.44,-7.49884 L 1077.79,-7.895 L 1078.22,-8.20836 L 1078.71,-8.42519 L 1079.23,-8.53603
 L 1079.77,-8.53603 L 1080.29,-8.42519 L 1080.77,-8.20836 L 1081.21,-7.895 L 1081.56,-7.49884 L 1081.83,-7.03717
 L 1081.99,-6.53017 L 1082.05,-6 L 1082.05,-0 L 1255.62,-0 L 1255.62,-6 L 1255.67,-6.53017
 L 1255.84,-7.03717 L 1256.1,-7.49884 L 1256.46,-7.895 L 1256.89,-8.20836 L 1257.38,-8.42519 L 1257.9,-8.53603
 L 1258.43,-8.53603 L 1258.95,-8.42519 L 1259.44,-8.20836 L 1259.87,-7.895 L 1260.23,-7.49884 L 1260.5,-7.03717
 L 1260.66,-6.53017 L 1260.72,-6 L 1260.72,-0 L 1434.28,-0 L 1434.28,-6 L 1434.34,-6.53017
 L 1434.5,-7.03717 L 1434.77,-7.49884 L 1435.13,-7.895 L 1435.56,-8.20836 L 1436.05,-8.42519 L 1436.57,-8.53603
 L 1437.1,-8.53603 L 1437.62,-8.42519 L 1438.11,-8.20836 L 1438.54,-7.895 L 1438.9,-7.49884 L 1439.16,-7.03717
 L 1439.33,-6.53017 L 1439.38,-6 L 1439.38,-0 L 1612.95,-0 L 1612.95,-6 L 1613.01,-6.53017
 L 1613.17,-7.03717 L 1613.44,-7.49884 L 1613.79,-7.895 L 1614.22,-8.20836 L 1614.71,-8.42519 L 1615.23,-8.53603
 L 1615.77,-8.53603 L 1616.29,-8.42519 L 1616.77,-8.20836 L 1617.21,-7.895 L 1617.56,-7.49884 L 1617.83,-7.03717
 L 1617.99,-6.53017 L 1618.05,-6 L 1618.05,-0 L 1623,-0 z
M 6.98573,-55.607 L 6.47708,-55.6875 L 5.97964,-55.8208 L 5.49887,-56.0054 L 5.04001,-56.2392 L 4.60811,-56.5196
 L 4.20789,-56.8437 L 3.84373,-57.2079 L 3.51964,-57.6081 L 3.23917,-58.04 L 3.00537,-58.4989 L 2.82082,-58.9796
 L 2.68752,-59.4771 L 2.60696,-59.9857 L 2.58,-60.5 L 2.60696,-61.0143 L 2.68752,-61.5229 L 2.82082,-62.0204
 L 3.00537,-62.5011 L 3.23917,-62.96 L 3.51964,-63.3919 L 3.84373,-63.7921 L 4.20789,-64.1563 L 4.60811,-64.4804
 L 4.95001,-64.7024 L 4.95001,-74 L 5.00574,-74.5302 L 5.17047,-75.0372 L 5.43701,-75.4988 L 5.79373,-75.895
 L 6.22501,-76.2084 L 6.71202,-76.4252 L 7.23346,-76.536 L 7.76654,-76.536 L 8.28798,-76.4252 L 8.77499,-76.2084
 L 9.20627,-75.895 L 9.56299,-75.4988 L 9.82953,-75.0372 L 9.99426,-74.5302 L 10.05,-74 L 10.05,-64.7024
 L 10.3919,-64.4804 L 10.7921,-64.1563 L 11.1563,-63.7921 L 11.4804,-63.3919 L 11.7608,-62.96 L 11.9946,-62.5011
 L 12.1792,-62.0204 L 12.3125,-61.5229 L 12.393,-61.0143 L 12.42,-60.5 L 12.393,-59.9857 L 12.3125,-59.4771
 L 12.1792,-58.9796 L 11.9946,-58.4989 L 11.7608,-58.04 L 11.4804,-57.6081 L 11.1563,-57.2079 L 10.7921,-56.8437
 L 10.3919,-56.5196 L 9.95999,-56.2392 L 9.50113,-56.0054 L 9.02036,-55.8208 L 8.52292,-55.6875 L 8.01427,-55.607
 L 7.5,-55.58 z
M 1078.99,-55.607 L 1078.48,-55.6875 L 1077.98,-55.8208 L 1077.5,-56.0054 L 1077.04,-56.2392 L 1076.61,-56.5196
 L 1076.21,-56.8437 L 1075.84,-57.2079 L 1075.52,-57.6081 L 1075.24,-58.04 L 1075.01,-58.4989 L 1074.82,-58.9796
 L 1074.69,-59.4771 L 1074.61,-59.9857 L 1074.58,-60.5 L 1074.61,-61.0143 L 1074.69,-61.5229 L 1074.82,-62.0204
 L 1075.01,-62.5011 L 1075.24,-62.96 L 1075.52,-63.3919 L 1075.84,-63.7921 L 1076.21,-64.1563 L 1076.61,-64.4804
 L 1076.95,-64.7024 L 1076.95,-74 L 1077.01,-74.5302 L 1077.17,-75.0372 L 1077.44,-75.4988 L 1077.79,-75.895
 L 1078.23,-76.2084 L 1078.71,-76.4252 L 1079.23,-76.536 L 1079.77,-76.536 L 1080.29,-76.4252 L 1080.77,-76.2084
 L 1081.21,-75.895 L 1081.56,-75.4988 L 1081.83,-75.0372 L 1081.99,-74.5302 L 1082.05,-74 L 1082.05,-64.7024
 L 1082.39,-64.4804 L 1082.79,-64.1563 L 1083.16,-63.7921 L 1083.48,-63.3919 L 1083.76,-62.96 L 1083.99,-62.5011
 L 1084.18,-62.0204 L 1084.31,-61.5229 L 1084.39,-61.0143 L 1084.42,-60.5 L 1084.39,-59.9857 L 1084.31,-59.4771
 L 1084.18,-58.9796 L 1083.99,-58.4989 L 1083.76,-58.04 L 1083.48,-57.6081 L 1083.16,-57.2079 L 1082.79,-56.8437
 L 1082.39,-56.5196 L 1081.96,-56.2392 L 1081.5,-56.0054 L 1081.02,-55.8208 L 1080.52,-55.6875 L 1080.01,-55.607
 L 1079.5,-55.58 z
M 1257.65,-55.607 L 1257.14,-55.6875 L 1256.65,-55.8208 L 1256.17,-56.0054 L 1255.71,-56.2392 L 1255.27,-56.5196
 L 1254.87,-56.8437 L 1254.51,-57.2079 L 1254.19,-57.6081 L 1253.91,-58.04 L 1253.67,-58.4989 L 1253.49,-58.9796
 L 1253.35,-59.4771 L 1253.27,-59.9857 L 1253.25,-60.5 L 1253.27,-61.0143 L 1253.35,-61.5229 L 1253.49,-62.0204
 L 1253.67,-62.5011 L 1253.91,-62.96 L 1254.19,-63.3919 L 1254.51,-63.7921 L 1254.87,-64.1563 L 1255.27,-64.4804
 L 1255.62,-64.7024 L 1255.62,-74 L 1255.67,-74.5302 L 1255.84,-75.0372 L 1256.1,-75.4988 L 1256.46,-75.895
 L 1256.89,-76.2084 L 1257.38,-76.4252 L 1257.9,-76.536 L 1258.43,-76.536 L 1258.95,-76.4252 L 1259.44,-76.2084
 L 1259.87,-75.895 L 1260.23,-75.4988 L 1260.5,-75.0372 L 1260.66,-74.5302 L 1260.72,-74 L 1260.72,-64.7024
 L 1261.06,-64.4804 L 1261.46,-64.1563 L 1261.82,-63.7921 L 1262.15,-63.3919 L 1262.43,-62.96 L 1262.66,-62.5011
 L 1262.85,-62.0204 L 1262.98,-61.5229 L 1263.06,-61.0143 L 1263.09,-60.5 L 1263.06,-59.9857 L 1262.98,-59.4771
 L 1262.85,-58.9796 L 1262.66,-58.4989 L 1262.43,-58.04 L 1262.15,-57.6081 L 1261.82,-57.2079 L 1261.46,-56.8437
 L 1261.06,-56.5196 L 1260.63,-56.2392 L 1260.17,-56.0054 L 1259.69,-55.8208 L 1259.19,-55.6875 L 1258.68,-55.607
 L 1258.17,-55.58 z
M 900.319,-55.607 L 899.81,-55.6875 L 899.313,-55.8208 L 898.832,-56.0054 L 898.373,-56.2392 L 897.941,-56.5196
 L 897.541,-56.8437 L 897.177,-57.2079 L 896.853,-57.6081 L 896.572,-58.04 L 896.339,-58.4989 L 896.154,-58.9796
 L 896.021,-59.4771 L 895.94,-59.9857 L 895.913,-60.5 L 895.94,-61.0143 L 896.021,-61.5229 L 896.154,-62.0204
 L 896.339,-62.5011 L 896.572,-62.96 L 896.853,-63.3919 L 897.177,-63.7921 L 897.541,-64.1563 L 897.941,-64.4804
 L 898.283,-64.7024 L 898.283,-74 L 898.339,-74.5302 L 898.504,-75.0372 L 898.77,-75.4988 L 899.127,-75.895
 L 899.558,-76.2084 L 900.045,-76.4252 L 900.567,-76.536 L 901.1,-76.536 L 901.621,-76.4252 L 902.108,-76.2084
 L 902.54,-75.895 L 902.896,-75.4988 L 903.163,-75.0372 L 903.328,-74.5302 L 903.383,-74 L 903.383,-64.7024
 L 903.725,-64.4804 L 904.125,-64.1563 L 904.49,-63.7921 L 904.814,-63.3919 L 905.094,-62.96 L 905.328,-62.5011
 L 905.513,-62.0204 L 905.646,-61.5229 L 905.726,-61.0143 L 905.753,-60.5 L 905.726,-59.9857 L 905.646,-59.4771
 L 905.513,-58.9796 L 905.328,-58.4989 L 905.094,-58.04 L 904.814,-57.6081 L 904.49,-57.2079 L 904.125,-56.8437
 L 903.725,-56.5196 L 903.293,-56.2392 L 902.834,-56.0054 L 902.354,-55.8208 L 901.856,-55.6875 L 901.348,-55.607
 L 900.833,-55.58 z
M 721.652,-55.607 L 721.144,-55.6875 L 720.646,-55.8208 L 720.166,-56.0054 L 719.707,-56.2392 L 719.275,-56.5196
 L 718.875,-56.8437 L 718.51,-57.2079 L 718.186,-57.6081 L 717.906,-58.04 L 717.672,-58.4989 L 717.487,-58.9796
 L 717.354,-59.4771 L 717.274,-59.9857 L 717.247,-60.5 L 717.274,-61.0143 L 717.354,-61.5229 L 717.487,-62.0204
 L 717.672,-62.5011 L 717.906,-62.96 L 718.186,-63.3919 L 718.51,-63.7921 L 718.875,-64.1563 L 719.275,-64.4804
 L 719.617,-64.7024 L 719.617,-74 L 719.672,-74.5302 L 719.837,-75.0372 L 720.104,-75.4988 L 720.46,-75.895
 L 720.892,-76.2084 L 721.379,-76.4252 L 721.9,-76.536 L 722.433,-76.536 L 722.955,-76.4252 L 723.442,-76.2084
 L 723.873,-75.895 L 724.23,-75.4988 L 724.496,-75.0372 L 724.661,-74.5302 L 724.717,-74 L 724.717,-64.7024
 L 725.059,-64.4804 L 725.459,-64.1563 L 725.823,-63.7921 L 726.147,-63.3919 L 726.427,-62.96 L 726.661,-62.5011
 L 726.846,-62.0204 L 726.979,-61.5229 L 727.06,-61.0143 L 727.087,-60.5 L 727.06,-59.9857 L 726.979,-59.4771
 L 726.846,-58.9796 L 726.661,-58.4989 L 726.427,-58.04 L 726.147,-57.6081 L 725.823,-57.2079 L 725.459,-56.8437
 L 725.059,-56.5196 L 724.627,-56.2392 L 724.168,-56.0054 L 723.687,-55.8208 L 723.19,-55.6875 L 722.681,-55.607
 L 722.167,-55.58 z
M 1436.32,-55.607 L 1435.81,-55.6875 L 1435.31,-55.8208 L 1434.83,-56.0054 L 1434.37,-56.2392 L 1433.94,-56.5196
 L 1433.54,-56.8437 L 1433.18,-57.2079 L 1432.85,-57.6081 L 1432.57,-58.04 L 1432.34,-58.4989 L 1432.15,-58.9796
 L 1432.02,-59.4771 L 1431.94,-59.9857 L 1431.91,-60.5 L 1431.94,-61.0143 L 1432.02,-61.5229 L 1432.15,-62.0204
 L 1432.34,-62.5011 L 1432.57,-62.96 L 1432.85,-63.3919 L 1433.18,-63.7921 L 1433.54,-64.1563 L 1433.94,-64.4804
 L 1434.28,-64.7024 L 1434.28,-74 L 1434.34,-74.5302 L 1434.5,-75.0372 L 1434.77,-75.4988 L 1435.13,-75.895
 L 1435.56,-76.2084 L 1436.05,-76.4252 L 1436.57,-76.536 L 1437.1,-76.536 L 1437.62,-76.4252 L 1438.11,-76.2084
 L 1438.54,-75.895 L 1438.9,-75.4988 L 1439.16,-75.0372 L 1439.33,-74.5302 L 1439.38,-74 L 1439.38,-64.7024
 L 1439.73,-64.4804 L 1440.13,-64.1563 L 1440.49,-63.7921 L 1440.81,-63.3919 L 1441.09,-62.96 L 1441.33,-62.5011
 L 1441.51,-62.0204 L 1441.65,-61.5229 L 1441.73,-61.0143 L 1441.75,-60.5 L 1441.73,-59.9857 L 1441.65,-59.4771
 L 1441.51,-58.9796 L 1441.33,-58.4989 L 1441.09,-58.04 L 1440.81,-57.6081 L 1440.49,-57.2079 L 1440.13,-56.8437
 L 1439.73,-56.5196 L 1439.29,-56.2392 L 1438.83,-56.0054 L 1438.35,-55.8208 L 1437.86,-55.6875 L 1437.35,-55.607
 L 1436.83,-55.58 z
M 542.986,-55.607 L 542.477,-55.6875 L 541.98,-55.8208 L 541.499,-56.0054 L 541.04,-56.2392 L 540.608,-56.5196
 L 540.208,-56.8437 L 539.844,-57.2079 L 539.52,-57.6081 L 539.239,-58.04 L 539.005,-58.4989 L 538.821,-58.9796
 L 538.688,-59.4771 L 538.607,-59.9857 L 538.58,-60.5 L 538.607,-61.0143 L 538.688,-61.5229 L 538.821,-62.0204
 L 539.005,-62.5011 L 539.239,-62.96 L 539.52,-63.3919 L 539.844,-63.7921 L 540.208,-64.1563 L 540.608,-64.4804
 L 540.95,-64.7024 L 540.95,-74 L 541.006,-74.5302 L 541.17,-75.0372 L 541.437,-75.4988 L 541.794,-75.895
 L 542.225,-76.2084 L 542.712,-76.4252 L 543.233,-76.536 L 543.767,-76.536 L 544.288,-76.4252 L 544.775,-76.2084
 L 545.206,-75.895 L 545.563,-75.4988 L 545.83,-75.0372 L 545.994,-74.5302 L 546.05,-74 L 546.05,-64.7024
 L 546.392,-64.4804 L 546.792,-64.1563 L 547.156,-63.7921 L 547.48,-63.3919 L 547.761,-62.96 L 547.995,-62.5011
 L 548.179,-62.0204 L 548.312,-61.5229 L 548.393,-61.0143 L 548.42,-60.5 L 548.393,-59.9857 L 548.312,-59.4771
 L 548.179,-58.9796 L 547.995,-58.4989 L 547.761,-58.04 L 547.48,-57.6081 L 547.156,-57.2079 L 546.792,-56.8437
 L 546.392,-56.5196 L 545.96,-56.2392 L 545.501,-56.0054 L 545.02,-55.8208 L 544.523,-55.6875 L 544.014,-55.607
 L 543.5,-55.58 z
M 364.319,-55.607 L 363.81,-55.6875 L 363.313,-55.8208 L 362.832,-56.0054 L 362.373,-56.2392 L 361.941,-56.5196
 L 361.541,-56.8437 L 361.177,-57.2079 L 360.853,-57.6081 L 360.572,-58.04 L 360.339,-58.4989 L 360.154,-58.9796
 L 360.021,-59.4771 L 359.94,-59.9857 L 359.913,-60.5 L 359.94,-61.0143 L 360.021,-61.5229 L 360.154,-62.0204
 L 360.339,-62.5011 L 360.572,-62.96 L 360.853,-63.3919 L 361.177,-63.7921 L 361.541,-64.1563 L 361.941,-64.4804
 L 362.283,-64.7024 L 362.283,-74 L 362.339,-74.5302 L 362.504,-75.0372 L 362.77,-75.4988 L 363.127,-75.895
 L 363.558,-76.2084 L 364.045,-76.4252 L 364.567,-76.536 L 365.1,-76.536 L 365.621,-76.4252 L 366.108,-76.2084
 L 366.54,-75.895 L 366.896,-75.4988 L 367.163,-75.0372 L 367.328,-74.5302 L 367.383,-74 L 367.383,-64.7024
 L 367.725,-64.4804 L 368.125,-64.1563 L 368.49,-63.7921 L 368.814,-63.3919 L 369.094,-62.96 L 369.328,-62.5011
 L 369.513,-62.0204 L 369.646,-61.5229 L 369.726,-61.0143 L 369.753,-60.5 L 369.726,-59.9857 L 369.646,-59.4771
 L 369.513,-58.9796 L 369.328,-58.4989 L 369.094,-58.04 L 368.814,-57.6081 L 368.49,-57.2079 L 368.125,-56.8437
 L 367.725,-56.5196 L 367.293,-56.2392 L 366.834,-56.0054 L 366.354,-55.8208 L 365.856,-55.6875 L 365.348,-55.607
 L 364.833,-55.58 z
M 1614.99,-55.607 L 1614.48,-55.6875 L 1613.98,-55.8208 L 1613.5,-56.0054 L 1613.04,-56.2392 L 1612.61,-56.5196
 L 1612.21,-56.8437 L 1611.84,-57.2079 L 1611.52,-57.6081 L 1611.24,-58.04 L 1611.01,-58.4989 L 1610.82,-58.9796
 L 1610.69,-59.4771 L 1610.61,-59.9857 L 1610.58,-60.5 L 1610.61,-61.0143 L 1610.69,-61.5229 L 1610.82,-62.0204
 L 1611.01,-62.5011 L 1611.24,-62.96 L 1611.52,-63.3919 L 1611.84,-63.7921 L 1612.21,-64.1563 L 1612.61,-64.4804
 L 1612.95,-64.7024 L 1612.95,-74 L 1613.01,-74.5302 L 1613.17,-75.0372 L 1613.44,-75.4988 L 1613.79,-75.895
 L 1614.23,-76.2084 L 1614.71,-76.4252 L 1615.23,-76.536 L 1615.77,-76.536 L 1616.29,-76.4252 L 1616.77,-76.2084
 L 1617.21,-75.895 L 1617.56,-75.4988 L 1617.83,-75.0372 L 1617.99,-74.5302 L 1618.05,-74 L 1618.05,-64.7024
 L 1618.39,-64.4804 L 1618.79,-64.1563 L 1619.16,-63.7921 L 1619.48,-63.3919 L 1619.76,-62.96 L 1619.99,-62.5011
 L 1620.18,-62.0204 L 1620.31,-61.5229 L 1620.39,-61.0143 L 1620.42,-60.5 L 1620.39,-59.9857 L 1620.31,-59.4771
 L 1620.18,-58.9796 L 1619.99,-58.4989 L 1619.76,-58.04 L 1619.48,-57.6081 L 1619.16,-57.2079 L 1618.79,-56.8437
 L 1618.39,-56.5196 L 1617.96,-56.2392 L 1617.5,-56.0054 L 1617.02,-55.8208 L 1616.52,-55.6875 L 1616.01,-55.607
 L 1615.5,-55.58 z
M 185.652,-55.607 L 185.144,-55.6875 L 184.646,-55.8208 L 184.166,-56.0054 L 183.707,-56.2392 L 183.275,-56.5196
 L 182.875,-56.8437 L 182.51,-57.2079 L 182.186,-57.6081 L 181.906,-58.04 L 181.672,-58.4989 L 181.487,-58.9796
 L 181.354,-59.4771 L 181.274,-59.9857 L 181.247,-60.5 L 181.274,-61.0143 L 181.354,-61.5229 L 181.487,-62.0204
 L 181.672,-62.5011 L 181.906,-62.96 L 182.186,-63.3919 L 182.51,-63.7921 L 182.875,-64.1563 L 183.275,-64.4804
 L 183.617,-64.7024 L 183.617,-74 L 183.672,-74.5302 L 183.837,-75.0372 L 184.104,-75.4988 L 184.46,-75.895
 L 184.892,-76.2084 L 185.379,-76.4252 L 185.9,-76.536 L 186.433,-76.536 L 186.955,-76.4252 L 187.442,-76.2084
 L 187.873,-75.895 L 188.23,-75.4988 L 188.496,-75.0372 L 188.661,-74.5302 L 188.717,-74 L 188.717,-64.7024
 L 189.059,-64.4804 L 189.459,-64.1563 L 189.823,-63.7921 L 190.147,-63.3919 L 190.427,-62.96 L 190.661,-62.5011
 L 190.846,-62.0204 L 190.979,-61.5229 L 191.06,-61.0143 L 191.087,-60.5 L 191.06,-59.9857 L 190.979,-59.4771
 L 190.846,-58.9796 L 190.661,-58.4989 L 190.427,-58.04 L 190.147,-57.6081 L 189.823,-57.2079 L 189.459,-56.8437
 L 189.059,-56.5196 L 188.627,-56.2392 L 188.168,-56.0054 L 187.687,-55.8208 L 187.19,-55.6875 L 186.681,-55.607
 L 186.167,-55.58 z
M 1091.45,-20.9797 L 1090.67,-21.2816 L 1089.97,-21.739 L 1089.38,-22.332 L 1088.93,-23.0346 L 1088.63,-23.8162
 L 1088.5,-24.8404 L 1088.5,-58 L 1088.59,-58.8316 L 1088.85,-59.627 L 1089.26,-60.3511 L 1089.82,-60.9726
 L 1090.5,-61.4641 L 1091.26,-61.8042 L 1092.5,-62 L 1179.63,-62 L 1180.46,-61.9126 L 1181.25,-61.6542
 L 1181.98,-61.2361 L 1182.6,-60.6765 L 1183.09,-60 L 1183.43,-59.2361 L 1183.6,-58.4181 L 1183.6,-57.5819
 L 1183.43,-56.7639 L 1183.09,-56 L 1182.6,-55.3235 L 1181.98,-54.7639 L 1181.05,-54.2616 L 1093.92,-21.102
 L 1093.11,-20.8879 L 1092.28,-20.8465 z
M 912.787,-20.9797 L 912.007,-21.2816 L 911.307,-21.739 L 910.718,-22.332 L 910.264,-23.0346 L 909.967,-23.8162
 L 909.833,-24.8404 L 909.833,-58 L 909.921,-58.8316 L 910.179,-59.627 L 910.597,-60.3511 L 911.157,-60.9726
 L 911.833,-61.4641 L 912.597,-61.8042 L 913.833,-62 L 1000.96,-62 L 1001.79,-61.9126 L 1002.59,-61.6542
 L 1003.31,-61.2361 L 1003.93,-60.6765 L 1004.42,-60 L 1004.76,-59.2361 L 1004.94,-58.4181 L 1004.94,-57.5819
 L 1004.76,-56.7639 L 1004.42,-56 L 1003.93,-55.3235 L 1003.31,-54.7639 L 1002.38,-54.2616 L 915.256,-21.102
 L 914.448,-20.8879 L 913.613,-20.8465 z
M 810.885,-47.8028 L 810.077,-48.017 L 793.67,-54.2616 L 792.741,-54.7639 L 792.12,-55.3235 L 791.628,-56
 L 791.288,-56.7639 L 791.114,-57.5819 L 791.114,-58.4181 L 791.288,-59.2361 L 791.628,-60 L 792.12,-60.6765
 L 792.741,-61.2361 L 793.465,-61.6542 L 794.261,-61.9126 L 795.092,-62 L 827.908,-62 L 828.954,-61.8607
 L 829.734,-61.5588 L 830.434,-61.1014 L 831.023,-60.5084 L 831.477,-59.8058 L 831.774,-59.0243 L 831.903,-58.198
 L 831.856,-57.363 L 831.638,-56.5559 L 831.256,-55.8119 L 830.728,-55.1635 L 830.077,-54.6391 L 829.33,-54.2616
 L 812.923,-48.017 L 811.721,-47.7614 z
M 708.552,-20.8879 L 707.744,-21.102 L 620.619,-54.2616 L 619.69,-54.7639 L 619.069,-55.3235 L 618.577,-56
 L 618.237,-56.7639 L 618.063,-57.5819 L 618.063,-58.4181 L 618.237,-59.2361 L 618.577,-60 L 619.069,-60.6765
 L 619.69,-61.2361 L 620.415,-61.6542 L 621.21,-61.9126 L 622.042,-62 L 709.167,-62 L 710.403,-61.8042
 L 711.167,-61.4641 L 711.843,-60.9726 L 712.403,-60.3511 L 712.821,-59.627 L 713.079,-58.8316 L 713.167,-58
 L 713.167,-24.8404 L 713.033,-23.8162 L 712.736,-23.0346 L 712.282,-22.332 L 711.693,-21.739 L 710.993,-21.2816
 L 710.213,-20.9797 L 709.387,-20.8465 z
M 529.886,-20.8879 L 529.077,-21.102 L 441.952,-54.2616 L 441.024,-54.7639 L 440.402,-55.3235 L 439.911,-56
 L 439.571,-56.7639 L 439.397,-57.5819 L 439.397,-58.4181 L 439.571,-59.2361 L 439.911,-60 L 440.402,-60.6765
 L 441.024,-61.2361 L 441.748,-61.6542 L 442.543,-61.9126 L 443.375,-62 L 530.5,-62 L 531.736,-61.8042
 L 532.5,-61.4641 L 533.177,-60.9726 L 533.736,-60.3511 L 534.154,-59.627 L 534.413,-58.8316 L 534.5,-58
 L 534.5,-24.8404 L 534.367,-23.8162 L 534.069,-23.0346 L 533.616,-22.332 L 533.026,-21.739 L 532.326,-21.2816
 L 531.546,-20.9797 L 530.721,-20.8465 z
M 351.219,-20.8879 L 350.41,-21.102 L 263.285,-54.2616 L 262.357,-54.7639 L 261.736,-55.3235 L 261.244,-56
 L 260.904,-56.7639 L 260.73,-57.5819 L 260.73,-58.4181 L 260.904,-59.2361 L 261.244,-60 L 261.736,-60.6765
 L 262.357,-61.2361 L 263.081,-61.6542 L 263.877,-61.9126 L 264.708,-62 L 351.833,-62 L 353.069,-61.8042
 L 353.833,-61.4641 L 354.51,-60.9726 L 355.069,-60.3511 L 355.487,-59.627 L 355.746,-58.8316 L 355.833,-58
 L 355.833,-24.8404 L 355.7,-23.8162 L 355.402,-23.0346 L 354.949,-22.332 L 354.359,-21.739 L 353.659,-21.2816
 L 352.88,-20.9797 L 352.054,-20.8465 z
M 1448.79,-20.9797 L 1448.01,-21.2816 L 1447.31,-21.739 L 1446.72,-22.332 L 1446.26,-23.0346 L 1445.97,-23.8162
 L 1445.83,-24.8404 L 1445.83,-58 L 1445.92,-58.8316 L 1446.18,-59.627 L 1446.6,-60.3511 L 1447.16,-60.9726
 L 1447.83,-61.4641 L 1448.6,-61.8042 L 1449.83,-62 L 1536.96,-62 L 1537.79,-61.9126 L 1538.59,-61.6542
 L 1539.31,-61.2361 L 1539.93,-60.6765 L 1540.42,-60 L 1540.76,-59.2361 L 1540.94,-58.4181 L 1540.94,-57.5819
 L 1540.76,-56.7639 L 1540.42,-56 L 1539.93,-55.3235 L 1539.31,-54.7639 L 1538.38,-54.2616 L 1451.26,-21.102
 L 1450.45,-20.8879 L 1449.61,-20.8465 z
M 172.552,-20.8879 L 171.744,-21.102 L 84.6187,-54.2616 L 83.6904,-54.7639 L 83.0689,-55.3235 L 82.5774,-56
 L 82.2373,-56.7639 L 82.0634,-57.5819 L 82.0634,-58.4181 L 82.2373,-59.2361 L 82.5774,-60 L 83.0689,-60.6765
 L 83.6904,-61.2361 L 84.4146,-61.6542 L 85.2099,-61.9126 L 86.0415,-62 L 173.167,-62 L 174.403,-61.8042
 L 175.167,-61.4641 L 175.843,-60.9726 L 176.403,-60.3511 L 176.821,-59.627 L 177.079,-58.8316 L 177.167,-58
 L 177.167,-24.8404 L 177.033,-23.8162 L 176.736,-23.0346 L 176.282,-22.332 L 175.693,-21.739 L 174.993,-21.2816
 L 174.213,-20.9797 L 173.387,-20.8465 z
M 1270.12,-20.9797 L 1269.34,-21.2816 L 1268.64,-21.739 L 1268.05,-22.332 L 1267.6,-23.0346 L 1267.3,-23.8162
 L 1267.17,-24.8404 L 1267.17,-58 L 1267.25,-58.8316 L 1267.51,-59.627 L 1267.93,-60.3511 L 1268.49,-60.9726
 L 1269.17,-61.4641 L 1269.93,-61.8042 L 1271.17,-62 L 1358.29,-62 L 1359.12,-61.9126 L 1359.92,-61.6542
 L 1360.64,-61.2361 L 1361.26,-60.6765 L 1361.76,-60 L 1362.1,-59.2361 L 1362.27,-58.4181 L 1362.27,-57.5819
 L 1362.1,-56.7639 L 1361.76,-56 L 1361.26,-55.3235 L 1360.64,-54.7639 L 1359.71,-54.2616 L 1272.59,-21.102
 L 1271.78,-20.8879 L 1270.95,-20.8465 z
M 734.749,-18.725 L 733.931,-18.8989 L 733.167,-19.239 L 732.49,-19.7305 L 731.931,-20.352 L 731.512,-21.0762
 L 731.254,-21.8715 L 731.167,-22.7031 L 731.167,-57.2969 L 731.3,-58.3212 L 731.597,-59.1027 L 732.051,-59.8053
 L 732.641,-60.3983 L 733.341,-60.8557 L 734.12,-61.1576 L 734.946,-61.2908 L 735.781,-61.2494 L 736.589,-61.0353
 L 782.036,-43.7384 L 782.44,-43.5588 L 783.14,-43.1014 L 783.729,-42.5084 L 784.183,-41.8058 L 784.48,-41.0243
 L 784.609,-40.198 L 784.562,-39.363 L 784.344,-38.5559 L 783.962,-37.8119 L 783.434,-37.1635 L 782.782,-36.6391
 L 782.036,-36.2616 L 736.589,-18.9647 L 735.585,-18.725 z
M 887.219,-18.7506 L 886.41,-18.9647 L 840.964,-36.2616 L 840.56,-36.4412 L 839.86,-36.8986 L 839.271,-37.4916
 L 838.817,-38.1942 L 838.52,-38.9757 L 838.391,-39.802 L 838.438,-40.637 L 838.656,-41.4441 L 839.038,-42.1881
 L 839.566,-42.8365 L 840.218,-43.3609 L 840.964,-43.7384 L 886.41,-61.0353 L 887.415,-61.275 L 888.251,-61.275
 L 889.069,-61.1011 L 889.833,-60.761 L 890.51,-60.2695 L 891.069,-59.648 L 891.487,-58.9239 L 891.746,-58.1286
 L 891.833,-57.2969 L 891.833,-22.7031 L 891.7,-21.6788 L 891.402,-20.8973 L 890.949,-20.1947 L 890.359,-19.6017
 L 889.659,-19.1443 L 888.88,-18.8424 L 888.054,-18.7092 z
M 199.167,-18 L 197.931,-18.1958 L 197.167,-18.5359 L 196.49,-19.0274 L 195.931,-19.6489 L 195.512,-20.373
 L 195.254,-21.1684 L 195.167,-22 L 195.167,-55.1596 L 195.3,-56.1838 L 195.597,-56.9654 L 196.051,-57.668
 L 196.641,-58.261 L 197.341,-58.7184 L 198.12,-59.0203 L 198.946,-59.1535 L 199.781,-59.1121 L 200.589,-58.8979
 L 287.715,-25.7384 L 288.643,-25.2361 L 289.264,-24.6765 L 289.756,-24 L 290.096,-23.2361 L 290.27,-22.4181
 L 290.27,-21.5819 L 290.096,-20.7639 L 289.756,-20 L 289.264,-19.3235 L 288.643,-18.7639 L 287.919,-18.3458
 L 287.123,-18.0874 L 286.292,-18 z
M 377.833,-18 L 376.597,-18.1958 L 375.833,-18.5359 L 375.157,-19.0274 L 374.597,-19.6489 L 374.179,-20.373
 L 373.921,-21.1684 L 373.833,-22 L 373.833,-55.1596 L 373.967,-56.1838 L 374.264,-56.9654 L 374.718,-57.668
 L 375.307,-58.261 L 376.007,-58.7184 L 376.787,-59.0203 L 377.613,-59.1535 L 378.448,-59.1121 L 379.256,-58.8979
 L 466.381,-25.7384 L 467.31,-25.2361 L 467.931,-24.6765 L 468.423,-24 L 468.763,-23.2361 L 468.937,-22.4181
 L 468.937,-21.5819 L 468.763,-20.7639 L 468.423,-20 L 467.931,-19.3235 L 467.31,-18.7639 L 466.585,-18.3458
 L 465.79,-18.0874 L 464.958,-18 z
M 556.5,-18 L 555.264,-18.1958 L 554.5,-18.5359 L 553.823,-19.0274 L 553.264,-19.6489 L 552.846,-20.373
 L 552.587,-21.1684 L 552.5,-22 L 552.5,-55.1596 L 552.633,-56.1838 L 552.931,-56.9654 L 553.384,-57.668
 L 553.974,-58.261 L 554.674,-58.7184 L 555.454,-59.0203 L 556.279,-59.1535 L 557.114,-59.1121 L 557.923,-58.8979
 L 645.048,-25.7384 L 645.976,-25.2361 L 646.598,-24.6765 L 647.089,-24 L 647.429,-23.2361 L 647.603,-22.4181
 L 647.603,-21.5819 L 647.429,-20.7639 L 647.089,-20 L 646.598,-19.3235 L 645.976,-18.7639 L 645.252,-18.3458
 L 644.457,-18.0874 L 643.625,-18 z
M 979.375,-18 L 978.543,-18.0874 L 977.748,-18.3458 L 977.024,-18.7639 L 976.402,-19.3235 L 975.911,-20
 L 975.571,-20.7639 L 975.397,-21.5819 L 975.397,-22.4181 L 975.571,-23.2361 L 975.911,-24 L 976.402,-24.6765
 L 977.024,-25.2361 L 977.952,-25.7384 L 1065.08,-58.8979 L 1065.89,-59.1121 L 1066.72,-59.1535 L 1067.55,-59.0203
 L 1068.33,-58.7184 L 1069.03,-58.261 L 1069.62,-57.668 L 1070.07,-56.9654 L 1070.37,-56.1838 L 1070.5,-55.1596
 L 1070.5,-22 L 1070.41,-21.1684 L 1070.15,-20.373 L 1069.74,-19.6489 L 1069.18,-19.0274 L 1068.5,-18.5359
 L 1067.74,-18.1958 L 1066.5,-18 z
M 1158.04,-18 L 1157.21,-18.0874 L 1156.41,-18.3458 L 1155.69,-18.7639 L 1155.07,-19.3235 L 1154.58,-20
 L 1154.24,-20.7639 L 1154.06,-21.5819 L 1154.06,-22.4181 L 1154.24,-23.2361 L 1154.58,-24 L 1155.07,-24.6765
 L 1155.69,-25.2361 L 1156.62,-25.7384 L 1243.74,-58.8979 L 1244.55,-59.1121 L 1245.39,-59.1535 L 1246.21,-59.0203
 L 1246.99,-58.7184 L 1247.69,-58.261 L 1248.28,-57.668 L 1248.74,-56.9654 L 1249.03,-56.1838 L 1249.17,-55.1596
 L 1249.17,-22 L 1249.08,-21.1684 L 1248.82,-20.373 L 1248.4,-19.6489 L 1247.84,-19.0274 L 1247.17,-18.5359
 L 1246.4,-18.1958 L 1245.17,-18 z
M 1336.71,-18 L 1335.88,-18.0874 L 1335.08,-18.3458 L 1334.36,-18.7639 L 1333.74,-19.3235 L 1333.24,-20
 L 1332.9,-20.7639 L 1332.73,-21.5819 L 1332.73,-22.4181 L 1332.9,-23.2361 L 1333.24,-24 L 1333.74,-24.6765
 L 1334.36,-25.2361 L 1335.29,-25.7384 L 1422.41,-58.8979 L 1423.22,-59.1121 L 1424.05,-59.1535 L 1424.88,-59.0203
 L 1425.66,-58.7184 L 1426.36,-58.261 L 1426.95,-57.668 L 1427.4,-56.9654 L 1427.7,-56.1838 L 1427.83,-55.1596
 L 1427.83,-22 L 1427.75,-21.1684 L 1427.49,-20.373 L 1427.07,-19.6489 L 1426.51,-19.0274 L 1425.83,-18.5359
 L 1425.07,-18.1958 L 1423.83,-18 z
M 22,-18 L 20.7639,-18.1958 L 20,-18.5359 L 19.3235,-19.0274 L 18.7639,-19.6489 L 18.3458,-20.373
 L 18.0874,-21.1684 L 18,-22 L 18,-54.5887 L 18.1334,-55.6129 L 18.4308,-56.3945 L 18.8842,-57.0971
 L 19.4739,-57.6901 L 20.1739,-58.1475 L 20.9537,-58.4494 L 21.7793,-58.5826 L 22.6145,-58.5412 L 23.4228,-58.3271
 L 109.048,-25.7384 L 109.976,-25.2361 L 110.598,-24.6765 L 111.089,-24 L 111.429,-23.2361 L 111.603,-22.4181
 L 111.603,-21.5819 L 111.429,-20.7639 L 111.089,-20 L 110.598,-19.3235 L 109.976,-18.7639 L 109.252,-18.3458
 L 108.457,-18.0874 L 107.625,-18 z
M 1515.37,-18 L 1514.54,-18.0874 L 1513.75,-18.3458 L 1513.02,-18.7639 L 1512.4,-19.3235 L 1511.91,-20
 L 1511.57,-20.7639 L 1511.4,-21.5819 L 1511.4,-22.4181 L 1511.57,-23.2361 L 1511.91,-24 L 1512.4,-24.6765
 L 1513.02,-25.2361 L 1513.95,-25.7384 L 1599.58,-58.3271 L 1600.39,-58.5412 L 1601.22,-58.5826 L 1602.05,-58.4494
 L 1602.83,-58.1475 L 1603.53,-57.6901 L 1604.12,-57.0971 L 1604.57,-56.3945 L 1604.87,-55.6129 L 1605,-54.5887
 L 1605,-22 L 1604.91,-21.1684 L 1604.65,-20.373 L 1604.24,-19.6489 L 1603.68,-19.0274 L 1603,-18.5359
 L 1602.24,-18.1958 L 1601,-18 z
M 795.092,-18 L 794.046,-18.1393 L 793.266,-18.4412 L 792.566,-18.8986 L 791.977,-19.4916 L 791.523,-20.1942
 L 791.226,-20.9757 L 791.097,-21.802 L 791.143,-22.637 L 791.362,-23.4441 L 791.744,-24.1881 L 792.272,-24.8365
 L 792.923,-25.3609 L 793.67,-25.7384 L 810.077,-31.983 L 811.279,-32.2386 L 812.114,-32.1972 L 812.923,-31.983
 L 829.33,-25.7384 L 830.259,-25.2361 L 830.88,-24.6765 L 831.372,-24 L 831.712,-23.2361 L 831.886,-22.4181
 L 831.886,-21.5819 L 831.712,-20.7639 L 831.372,-20 L 830.88,-19.3235 L 830.259,-18.7639 L 829.534,-18.3458
 L 828.739,-18.0874 L 827.908,-18 z
" stroke="black" fill="lightgray" stroke-width="0.5"/>
</svg>
