<?xml version="1.0" standalone="no"?>
<!DOCTYPE svg PUBLIC "-//W3C//DTD SVG 1.1//EN" "http://www.w3.org/Graphics/SVG/1.1/DTD/svg11.dtd">
<svg width="1172mm" height="80mm" viewBox="0 -80 1172 80" xmlns="http://www.w3.org/2000/svg" version="1.1">
<title>OpenSCAD Model</title>
<path d="
M 1172,-80 L 0,-80 L 0,-0 L 4.95,-0 L 4.95,-6 L 5.00572,-6.53017
 L 5.17046,-7.03717 L 5.437,-7.49884 L 5.79372,-7.895 L 6.22499,-8.20836 L 6.71201,-8.42519 L 7.23344,-8.53603
 L 7.76654,-8.53603 L 8.28798,-8.42519 L 8.77499,-8.20836 L 9.20627,-7.895 L 9.56299,-7.49884 L 9.82953,-7.03717
 L 9.99426,-6.53017 L 10.05,-6 L 10.05,-0 L 197.783,-0 L 197.783,-6 L 197.839,-6.53017
 L 198.004,-7.03717 L 198.27,-7.49884 L 198.627,-7.895 L 199.058,-8.20836 L 199.545,-8.42519 L 200.067,-8.53603
 L 200.6,-8.53603 L 201.121,-8.42519 L 201.608,-8.20836 L 202.04,-7.895 L 202.396,-7.49884 L 202.663,-7.03717
 L 202.828,-6.53017 L 202.883,-6 L 202.883,-0 L 390.617,-0 L 390.617,-6 L 390.672,-6.53017
 L 390.837,-7.03717 L 391.104,-7.49884 L 391.46,-7.895 L 391.892,-8.20836 L 392.379,-8.42519 L 392.9,-8.53603
 L 393.433,-8.53603 L 393.955,-8.42519 L 394.442,-8.20836 L 394.873,-7.895 L 395.23,-7.49884 L 395.496,-7.03717
 L 395.661,-6.53017 L 395.717,-6 L 395.717,-0 L 583.45,-0 L 583.45,-6 L 583.506,-6.53017
 L 583.67,-7.03717 L 583.937,-7.49884 L 584.294,-7.895 L 584.725,-8.20836 L 585.212,-8.42519 L 585.733,-8.53603
 L 586.267,-8.53603 L 586.788,-8.42519 L 587.275,-8.20836 L 587.706,-7.895 L 588.063,-7.49884 L 588.33,-7.03717
 L 588.494,-6.53017 L 588.55,-6 L 588.55,-0 L 776.283,-0 L 776.283,-6 L 776.339,-6.53017
 L 776.504,-7.03717 L 776.77,-7.49884 L 777.127,-7.895 L 777.558,-8.20836 L 778.045,-8.42519 L 778.567,-8.53603
 L 779.1,-8.53603 L 779.621,-8.42519 L 780.108,-8.20836 L 780.54,-7.895 L 780.896,-7.49884 L 781.163,-7.03717
 L 781.328,-6.53017 L 781.383,-6 L 781.383,-0 L 969.117,-0 L 969.117,-6 L 969.172,-6.53017
 L 969.337,-7.03717 L 969.604,-7.49884 L 969.96,-7.895 L 970.392,-8.20836 L 970.879,-8.42519 L 971.4,-8.53603
 L 971.933,-8.53603 L 972.455,-8.42519 L 972.942,-8.20836 L 973.373,-7.895 L 973.73,-7.49884 L 973.996,-7.03717
 L 974.161,-6.53017 L 974.217,-6 L 974.217,-0 L 1161.95,-0 L 1161.95,-6 L 1162.01,-6.53017
 L 1162.17,-7.03717 L 1162.44,-7.49884 L 1162.79,-7.895 L 1163.22,-8.20836 L 1163.71,-8.42519 L 1164.23,-8.53603
 L 1164.77,-8.53603 L 1165.29,-8.42519 L 1165.77,-8.20836 L 1166.21,-7.895 L 1166.56,-7.49884 L 1166.83,-7.03717
 L 1166.99,-6.53017 L 1167.05,-6 L 1167.05,-0 L 1172,-0 z
M 6.98573,-55.607 L 6.47708,-55.6875 L 5.97964,-55.8208 L 5.49887,-56.0054 L 5.04001,-56.2392 L 4.60811,-56.5196
 L 4.20789,-56.8437 L 3.84373,-57.2079 L 3.51964,-57.6081 L 3.23917,-58.04 L 3.00537,-58.4989 L 2.82082,-58.9796
 L 2.68752,-59.4771 L 2.60696,-59.9857 L 2.58,-60.5 L 2.60696,-61.0143 L 2.68752,-61.5229 L 2.82082,-62.0204
 L 3.00537,-62.5011 L 3.23917,-62.96 L 3.51964,-63.3919 L 3.84373,-63.7921 L 4.20789,-64.1563 L 4.60811,-64.4804
 L 4.95001,-64.7024 L 4.95001,-74 L 5.00574,-74.5302 L 5.17047,-75.0372 L 5.43701,-75.4988 L 5.79373,-75.895
 L 6.22501,-76.2084 L 6.71202,-76.4252 L 7.23346,-76.536 L 7.76654,-76.536 L 8.28798,-76.4252 L 8.77499,-76.2084
 L 9.20627,-75.895 L 9.56299,-75.4988 L 9.82953,-75.0372 L 9.99426,-74.5302 L 10.05,-74 L 10.05,-64.7024
 L 10.3919,-64.4804 L 10.7921,-64.1563 L 11.1563,-63.7921 L 11.4804,-63.3919 L 11.7608,-62.96 L 11.9946,-62.5011
 L 12.1792,-62.0204 L 12.3125,-61.5229 L 12.393,-61.0143 L 12.42,-60.5 L 12.393,-59.9857 L 12.3125,-59.4771
 L 12.1792,-58.9796 L 11.9946,-58.4989 L 11.7608,-58.04 L 11.4804,-57.6081 L 11.1563,-57.2079 L 10.7921,-56.8437
 L 10.3919,-56.5196 L 9.95999,-56.2392 L 9.50113,-56.0054 L 9.02036,-55.8208 L 8.52292,-55.6875 L 8.01427,-55.607
 L 7.5,-55.58 z
M 199.819,-55.607 L 199.31,-55.6875 L 198.813,-55.8208 L 198.332,-56.0054 L 197.873,-56.2392 L 197.441,-56.5196
 L 197.041,-56.8437 L 196.677,-57.2079 L 196.353,-57.6081 L 196.072,-58.04 L 195.839,-58.4989 L 195.654,-58.9796
 L 195.521,-59.4771 L 195.44,-59.9857 L 195.413,-60.5 L 195.44,-61.0143 L 195.521,-61.5229 L 195.654,-62.0204
 L 195.839,-62.5011 L 196.072,-62.96 L 196.353,-63.3919 L 196.677,-63.7921 L 197.041,-64.1563 L 197.441,-64.4804
 L 197.783,-64.7024 L 197.783,-74 L 197.839,-74.5302 L 198.004,-75.0372 L 198.27,-75.4988 L 198.627,-75.895
 L 199.058,-76.2084 L 199.545,-76.4252 L 200.067,-76.536 L 200.6,-76.536 L 201.121,-76.4252 L 201.608,-76.2084
 L 202.04,-75.895 L 202.396,-75.4988 L 202.663,-75.0372 L 202.828,-74.5302 L 202.883,-74 L 202.883,-64.7024
 L 203.225,-64.4804 L 203.625,-64.1563 L 203.99,-63.7921 L 204.314,-63.3919 L 204.594,-62.96 L 204.828,-62.5011
 L 205.013,-62.0204 L 205.146,-61.5229 L 205.226,-61.0143 L 205.253,-60.5 L 205.226,-59.9857 L 205.146,-59.4771
 L 205.013,-58.9796 L 204.828,-58.4989 L 204.594,-58.04 L 204.314,-57.6081 L 203.99,-57.2079 L 203.625,-56.8437
 L 203.225,-56.5196 L 202.793,-56.2392 L 202.334,-56.0054 L 201.854,-55.8208 L 201.356,-55.6875 L 200.848,-55.607
 L 200.333,-55.58 z
M 392.652,-55.607 L 392.144,-55.6875 L 391.646,-55.8208 L 391.166,-56.0054 L 390.707,-56.2392 L 390.275,-56.5196
 L 389.875,-56.8437 L 389.51,-57.2079 L 389.186,-57.6081 L 388.906,-58.04 L 388.672,-58.4989 L 388.487,-58.9796
 L 388.354,-59.4771 L 388.274,-59.9857 L 388.247,-60.5 L 388.274,-61.0143 L 388.354,-61.5229 L 388.487,-62.0204
 L 388.672,-62.5011 L 388.906,-62.96 L 389.186,-63.3919 L 389.51,-63.7921 L 389.875,-64.1563 L 390.275,-64.4804
 L 390.617,-64.7024 L 390.617,-74 L 390.672,-74.5302 L 390.837,-75.0372 L 391.104,-75.4988 L 391.46,-75.895
 L 391.892,-76.2084 L 392.379,-76.4252 L 392.9,-76.536 L 393.433,-76.536 L 393.955,-76.4252 L 394.442,-76.2084
 L 394.873,-75.895 L 395.23,-75.4988 L 395.496,-75.0372 L 395.661,-74.5302 L 395.717,-74 L 395.717,-64.7024
 L 396.059,-64.4804 L 396.459,-64.1563 L 396.823,-63.7921 L 397.147,-63.3919 L 397.427,-62.96 L 397.661,-62.5011
 L 397.846,-62.0204 L 397.979,-61.5229 L 398.06,-61.0143 L 398.087,-60.5 L 398.06,-59.9857 L 397.979,-59.4771
 L 397.846,-58.9796 L 397.661,-58.4989 L 397.427,-58.04 L 397.147,-57.6081 L 396.823,-57.2079 L 396.459,-56.8437
 L 396.059,-56.5196 L 395.627,-56.2392 L 395.168,-56.0054 L 394.687,-55.8208 L 394.19,-55.6875 L 393.681,-55.607
 L 393.167,-55.58 z
M 585.486,-55.607 L 584.977,-55.6875 L 584.48,-55.8208 L 583.999,-56.0054 L 583.54,-56.2392 L 583.108,-56.5196
 L 582.708,-56.8437 L 582.344,-57.2079 L 582.02,-57.6081 L 581.739,-58.04 L 581.505,-58.4989 L 581.321,-58.9796
 L 581.188,-59.4771 L 581.107,-59.9857 L 581.08,-60.5 L 581.107,-61.0143 L 581.188,-61.5229 L 581.321,-62.0204
 L 581.505,-62.5011 L 581.739,-62.96 L 582.02,-63.3919 L 582.344,-63.7921 L 582.708,-64.1563 L 583.108,-64.4804
 L 583.45,-64.7024 L 583.45,-74 L 583.506,-74.5302 L 583.67,-75.0372 L 583.937,-75.4988 L 584.294,-75.895
 L 584.725,-76.2084 L 585.212,-76.4252 L 585.733,-76.536 L 586.267,-76.536 L 586.788,-76.4252 L 587.275,-76.2084
 L 587.706,-75.895 L 588.063,-75.4988 L 588.33,-75.0372 L 588.494,-74.5302 L 588.55,-74 L 588.55,-64.7024
 L 588.892,-64.4804 L 589.292,-64.1563 L 589.656,-63.7921 L 589.98,-63.3919 L 590.261,-62.96 L 590.495,-62.5011
 L 590.679,-62.0204 L 590.812,-61.5229 L 590.893,-61.0143 L 590.92,-60.5 L 590.893,-59.9857 L 590.812,-59.4771
 L 590.679,-58.9796 L 590.495,-58.4989 L 590.261,-58.04 L 589.98,-57.6081 L 589.656,-57.2079 L 589.292,-56.8437
 L 588.892,-56.5196 L 588.46,-56.2392 L 588.001,-56.0054 L 587.52,-55.8208 L 587.023,-55.6875 L 586.514,-55.607
 L 586,-55.58 z
M 778.319,-55.607 L 777.81,-55.6875 L 777.313,-55.8208 L 776.832,-56.0054 L 776.373,-56.2392 L 775.941,-56.5196
 L 775.541,-56.8437 L 775.177,-57.2079 L 774.853,-57.6081 L 774.572,-58.04 L 774.339,-58.4989 L 774.154,-58.9796
 L 774.021,-59.4771 L 773.94,-59.9857 L 773.913,-60.5 L 773.94,-61.0143 L 774.021,-61.5229 L 774.154,-62.0204
 L 774.339,-62.5011 L 774.572,-62.96 L 774.853,-63.3919 L 775.177,-63.7921 L 775.541,-64.1563 L 775.941,-64.4804
 L 776.283,-64.7024 L 776.283,-74 L 776.339,-74.5302 L 776.504,-75.0372 L 776.77,-75.4988 L 777.127,-75.895
 L 777.558,-76.2084 L 778.045,-76.4252 L 778.567,-76.536 L 779.1,-76.536 L 779.621,-76.4252 L 780.108,-76.2084
 L 780.54,-75.895 L 780.896,-75.4988 L 781.163,-75.0372 L 781.328,-74.5302 L 781.383,-74 L 781.383,-64.7024
 L 781.725,-64.4804 L 782.125,-64.1563 L 782.49,-63.7921 L 782.814,-63.3919 L 783.094,-62.96 L 783.328,-62.5011
 L 783.513,-62.0204 L 783.646,-61.5229 L 783.726,-61.0143 L 783.753,-60.5 L 783.726,-59.9857 L 783.646,-59.4771
 L 783.513,-58.9796 L 783.328,-58.4989 L 783.094,-58.04 L 782.814,-57.6081 L 782.49,-57.2079 L 782.125,-56.8437
 L 781.725,-56.5196 L 781.293,-56.2392 L 780.834,-56.0054 L 780.354,-55.8208 L 779.856,-55.6875 L 779.348,-55.607
 L 778.833,-55.58 z
M 971.152,-55.607 L 970.644,-55.6875 L 970.146,-55.8208 L 969.666,-56.0054 L 969.207,-56.2392 L 968.775,-56.5196
 L 968.375,-56.8437 L 968.01,-57.2079 L 967.686,-57.6081 L 967.406,-58.04 L 967.172,-58.4989 L 966.987,-58.9796
 L 966.854,-59.4771 L 966.774,-59.9857 L 966.747,-60.5 L 966.774,-61.0143 L 966.854,-61.5229 L 966.987,-62.0204
 L 967.172,-62.5011 L 967.406,-62.96 L 967.686,-63.3919 L 968.01,-63.7921 L 968.375,-64.1563 L 968.775,-64.4804
 L 969.117,-64.7024 L 969.117,-74 L 969.172,-74.5302 L 969.337,-75.0372 L 969.604,-75.4988 L 969.96,-75.895
 L 970.392,-76.2084 L 970.879,-76.4252 L 971.4,-76.536 L 971.933,-76.536 L 972.455,-76.4252 L 972.942,-76.2084
 L 973.373,-75.895 L 973.73,-75.4988 L 973.996,-75.0372 L 974.161,-74.5302 L 974.217,-74 L 974.217,-64.7024
 L 974.559,-64.4804 L 974.959,-64.1563 L 975.323,-63.7921 L 975.647,-63.3919 L 975.927,-62.96 L 976.161,-62.5011
 L 976.346,-62.0204 L 976.479,-61.5229 L 976.56,-61.0143 L 976.587,-60.5 L 976.56,-59.9857 L 976.479,-59.4771
 L 976.346,-58.9796 L 976.161,-58.4989 L 975.927,-58.04 L 975.647,-57.6081 L 975.323,-57.2079 L 974.959,-56.8437
 L 974.559,-56.5196 L 974.127,-56.2392 L 973.668,-56.0054 L 973.187,-55.8208 L 972.69,-55.6875 L 972.181,-55.607
 L 971.667,-55.58 z
M 1163.99,-55.607 L 1163.48,-55.6875 L 1162.98,-55.8208 L 1162.5,-56.0054 L 1162.04,-56.2392 L 1161.61,-56.5196
 L 1161.21,-56.8437 L 1160.84,-57.2079 L 1160.52,-57.6081 L 1160.24,-58.04 L 1160.01,-58.4989 L 1159.82,-58.9796
 L 1159.69,-59.4771 L 1159.61,-59.9857 L 1159.58,-60.5 L 1159.61,-61.0143 L 1159.69,-61.5229 L 1159.82,-62.0204
 L 1160.01,-62.5011 L 1160.24,-62.96 L 1160.52,-63.3919 L 1160.84,-63.7921 L 1161.21,-64.1563 L 1161.61,-64.4804
 L 1161.95,-64.7024 L 1161.95,-74 L 1162.01,-74.5302 L 1162.17,-75.0372 L 1162.44,-75.4988 L 1162.79,-75.895
 L 1163.23,-76.2084 L 1163.71,-76.4252 L 1164.23,-76.536 L 1164.77,-76.536 L 1165.29,-76.4252 L 1165.77,-76.2084
 L 1166.21,-75.895 L 1166.56,-75.4988 L 1166.83,-75.0372 L 1166.99,-74.5302 L 1167.05,-74 L 1167.05,-64.7024
 L 1167.39,-64.4804 L 1167.79,-64.1563 L 1168.16,-63.7921 L 1168.48,-63.3919 L 1168.76,-62.96 L 1168.99,-62.5011
 L 1169.18,-62.0204 L 1169.31,-61.5229 L 1169.39,-61.0143 L 1169.42,-60.5 L 1169.39,-59.9857 L 1169.31,-59.4771
 L 1169.18,-58.9796 L 1168.99,-58.4989 L 1168.76,-58.04 L 1168.48,-57.6081 L 1168.16,-57.2079 L 1167.79,-56.8437
 L 1167.39,-56.5196 L 1166.96,-56.2392 L 1166.5,-56.0054 L 1166.02,-55.8208 L 1165.52,-55.6875 L 1165.01,-55.607
 L 1164.5,-55.58 z
M 983.526,-20.5308 L 982.753,-20.8519 L 982.065,-21.3264 L 981.49,-21.9337 L 981.054,-22.6473 L 980.776,-23.436
 L 980.667,-24.3646 L 980.667,-58 L 980.754,-58.8316 L 981.012,-59.627 L 981.431,-60.3511 L 981.99,-60.9726
 L 982.667,-61.4641 L 983.431,-61.8042 L 984.667,-62 L 1080.05,-62 L 1080.88,-61.9126 L 1081.68,-61.6542
 L 1082.4,-61.2361 L 1083.02,-60.6765 L 1083.51,-60 L 1083.85,-59.2361 L 1084.03,-58.4181 L 1084.03,-57.5819
 L 1083.85,-56.7639 L 1083.51,-56 L 1083.02,-55.3235 L 1082.4,-54.7639 L 1081.38,-54.2277 L 985.997,-20.5923
 L 985.184,-20.3981 L 984.348,-20.3773 z
M 379.65,-20.3981 L 378.836,-20.5923 L 283.454,-54.2277 L 282.433,-54.7639 L 281.811,-55.3235 L 281.32,-56
 L 280.98,-56.7639 L 280.806,-57.5819 L 280.806,-58.4181 L 280.98,-59.2361 L 281.32,-60 L 281.811,-60.6765
 L 282.433,-61.2361 L 283.157,-61.6542 L 283.952,-61.9126 L 284.784,-62 L 380.167,-62 L 381.403,-61.8042
 L 382.167,-61.4641 L 382.843,-60.9726 L 383.403,-60.3511 L 383.821,-59.627 L 384.079,-58.8316 L 384.167,-58
 L 384.167,-24.3646 L 384.057,-23.436 L 383.779,-22.6473 L 383.343,-21.9337 L 382.768,-21.3264 L 382.08,-20.8519
 L 381.308,-20.5308 L 380.486,-20.3773 z
M 186.816,-20.3981 L 186.003,-20.5923 L 90.6203,-54.2277 L 89.5995,-54.7639 L 88.978,-55.3235 L 88.4865,-56
 L 88.1464,-56.7639 L 87.9725,-57.5819 L 87.9725,-58.4181 L 88.1464,-59.2361 L 88.4865,-60 L 88.978,-60.6765
 L 89.5995,-61.2361 L 90.3237,-61.6542 L 91.119,-61.9126 L 91.9506,-62 L 187.333,-62 L 188.569,-61.8042
 L 189.333,-61.4641 L 190.01,-60.9726 L 190.569,-60.3511 L 190.988,-59.627 L 191.246,-58.8316 L 191.333,-58
 L 191.333,-24.3646 L 191.224,-23.436 L 190.946,-22.6473 L 190.51,-21.9337 L 189.935,-21.3264 L 189.247,-20.8519
 L 188.474,-20.5308 L 187.652,-20.3773 z
M 572.483,-20.3981 L 571.67,-20.5923 L 476.287,-54.2277 L 475.266,-54.7639 L 474.645,-55.3235 L 474.153,-56
 L 473.813,-56.7639 L 473.639,-57.5819 L 473.639,-58.4181 L 473.813,-59.2361 L 474.153,-60 L 474.645,-60.6765
 L 475.266,-61.2361 L 475.99,-61.6542 L 476.786,-61.9126 L 477.617,-62 L 573,-62 L 574.236,-61.8042
 L 575,-61.4641 L 575.677,-60.9726 L 576.236,-60.3511 L 576.654,-59.627 L 576.913,-58.8316 L 577,-58
 L 577,-24.3646 L 576.891,-23.436 L 576.613,-22.6473 L 576.177,-21.9337 L 575.602,-21.3264 L 574.913,-20.8519
 L 574.141,-20.5308 L 573.319,-20.3773 z
M 597.859,-20.5308 L 597.087,-20.8519 L 596.398,-21.3264 L 595.823,-21.9337 L 595.387,-22.6473 L 595.109,-23.436
 L 595,-24.3646 L 595,-58 L 595.087,-58.8316 L 595.346,-59.627 L 595.764,-60.3511 L 596.323,-60.9726
 L 597,-61.4641 L 597.764,-61.8042 L 599,-62 L 694.383,-62 L 695.214,-61.9126 L 696.01,-61.6542
 L 696.734,-61.2361 L 697.355,-60.6765 L 697.847,-60 L 698.187,-59.2361 L 698.361,-58.4181 L 698.361,-57.5819
 L 698.187,-56.7639 L 697.847,-56 L 697.355,-55.3235 L 696.734,-54.7639 L 695.713,-54.2277 L 600.33,-20.5923
 L 599.517,-20.3981 L 598.681,-20.3773 z
M 790.692,-20.5308 L 789.92,-20.8519 L 789.232,-21.3264 L 788.657,-21.9337 L 788.221,-22.6473 L 787.943,-23.436
 L 787.833,-24.3646 L 787.833,-58 L 787.921,-58.8316 L 788.179,-59.627 L 788.597,-60.3511 L 789.157,-60.9726
 L 789.833,-61.4641 L 790.597,-61.8042 L 791.833,-62 L 887.216,-62 L 888.048,-61.9126 L 888.843,-61.6542
 L 889.567,-61.2361 L 890.189,-60.6765 L 890.68,-60 L 891.02,-59.2361 L 891.194,-58.4181 L 891.194,-57.5819
 L 891.02,-56.7639 L 890.68,-56 L 890.189,-55.3235 L 889.567,-54.7639 L 888.546,-54.2277 L 793.164,-20.5923
 L 792.35,-20.3981 L 791.514,-20.3773 z
M 213.333,-18 L 212.097,-18.1958 L 211.333,-18.5359 L 210.657,-19.0274 L 210.097,-19.6489 L 209.679,-20.373
 L 209.421,-21.1684 L 209.333,-22 L 209.333,-55.6354 L 209.443,-56.564 L 209.721,-57.3527 L 210.157,-58.0662
 L 210.732,-58.6736 L 211.42,-59.1481 L 212.192,-59.4691 L 213.014,-59.6226 L 213.85,-59.6018 L 214.664,-59.4077
 L 310.046,-25.7723 L 311.067,-25.2361 L 311.689,-24.6765 L 312.18,-24 L 312.52,-23.2361 L 312.694,-22.4181
 L 312.694,-21.5819 L 312.52,-20.7639 L 312.18,-20 L 311.689,-19.3235 L 311.067,-18.7639 L 310.343,-18.3458
 L 309.548,-18.0874 L 308.716,-18 z
M 406.167,-18 L 404.931,-18.1958 L 404.167,-18.5359 L 403.49,-19.0274 L 402.931,-19.6489 L 402.512,-20.373
 L 402.254,-21.1684 L 402.167,-22 L 402.167,-55.6354 L 402.276,-56.564 L 402.554,-57.3527 L 402.99,-58.0662
 L 403.565,-58.6736 L 404.253,-59.1481 L 405.026,-59.4691 L 405.848,-59.6226 L 406.684,-59.6018 L 407.497,-59.4077
 L 502.88,-25.7723 L 503.9,-25.2361 L 504.522,-24.6765 L 505.013,-24 L 505.354,-23.2361 L 505.527,-22.4181
 L 505.527,-21.5819 L 505.354,-20.7639 L 505.013,-20 L 504.522,-19.3235 L 503.9,-18.7639 L 503.176,-18.3458
 L 502.381,-18.0874 L 501.549,-18 z
M 670.451,-18 L 669.619,-18.0874 L 668.824,-18.3458 L 668.1,-18.7639 L 667.478,-19.3235 L 666.987,-20
 L 666.646,-20.7639 L 666.473,-21.5819 L 666.473,-22.4181 L 666.646,-23.2361 L 666.987,-24 L 667.478,-24.6765
 L 668.1,-25.2361 L 669.12,-25.7723 L 764.503,-59.4077 L 765.316,-59.6018 L 766.152,-59.6226 L 766.974,-59.4691
 L 767.747,-59.1481 L 768.435,-58.6736 L 769.01,-58.0662 L 769.446,-57.3527 L 769.724,-56.564 L 769.833,-55.6354
 L 769.833,-22 L 769.746,-21.1684 L 769.488,-20.373 L 769.069,-19.6489 L 768.51,-19.0274 L 767.833,-18.5359
 L 767.069,-18.1958 L 765.833,-18 z
M 863.284,-18 L 862.452,-18.0874 L 861.657,-18.3458 L 860.933,-18.7639 L 860.311,-19.3235 L 859.82,-20
 L 859.48,-20.7639 L 859.306,-21.5819 L 859.306,-22.4181 L 859.48,-23.2361 L 859.82,-24 L 860.311,-24.6765
 L 860.933,-25.2361 L 861.954,-25.7723 L 957.336,-59.4077 L 958.15,-59.6018 L 958.986,-59.6226 L 959.808,-59.4691
 L 960.58,-59.1481 L 961.268,-58.6736 L 961.843,-58.0662 L 962.279,-57.3527 L 962.557,-56.564 L 962.667,-55.6354
 L 962.667,-22 L 962.579,-21.1684 L 962.321,-20.373 L 961.903,-19.6489 L 961.343,-19.0274 L 960.667,-18.5359
 L 959.903,-18.1958 L 958.667,-18 z
M 1056.12,-18 L 1055.29,-18.0874 L 1054.49,-18.3458 L 1053.77,-18.7639 L 1053.14,-19.3235 L 1052.65,-20
 L 1052.31,-20.7639 L 1052.14,-21.5819 L 1052.14,-22.4181 L 1052.31,-23.2361 L 1052.65,-24 L 1053.14,-24.6765
 L 1053.77,-25.2361 L 1054.79,-25.7723 L 1148.67,-58.8788 L 1149.48,-59.0729 L 1150.32,-59.0937 L 1151.14,-58.9402
 L 1151.91,-58.6192 L 1152.6,-58.1446 L 1153.18,-57.5373 L 1153.61,-56.8237 L 1153.89,-56.0351 L 1154,-55.1064
 L 1154,-22 L 1153.91,-21.1684 L 1153.65,-20.373 L 1153.24,-19.6489 L 1152.68,-19.0274 L 1152,-18.5359
 L 1151.24,-18.1958 L 1150,-18 z
M 22,-18 L 20.7639,-18.1958 L 20,-18.5359 L 19.3235,-19.0274 L 18.7639,-19.6489 L 18.3458,-20.373
 L 18.0874,-21.1684 L 18,-22 L 18,-55.1064 L 18.1093,-56.0351 L 18.3874,-56.8237 L 18.8234,-57.5373
 L 19.3982,-58.1446 L 20.0867,-58.6192 L 20.8589,-58.9402 L 21.6809,-59.0937 L 22.5169,-59.0729 L 23.3303,-58.8788
 L 117.213,-25.7723 L 118.234,-25.2361 L 118.855,-24.6765 L 119.347,-24 L 119.687,-23.2361 L 119.861,-22.4181
 L 119.861,-21.5819 L 119.687,-20.7639 L 119.347,-20 L 118.855,-19.3235 L 118.234,-18.7639 L 117.51,-18.3458
 L 116.714,-18.0874 L 115.883,-18 z
" stroke="black" fill="lightgray" stroke-width="0.5"/>
</svg>
