<?xml version="1.0" standalone="no"?>
<!DOCTYPE svg PUBLIC "-//W3C//DTD SVG 1.1//EN" "http://www.w3.org/Graphics/SVG/1.1/DTD/svg11.dtd">
<svg width="1084mm" height="80mm" viewBox="0 -80 1084 80" xmlns="http://www.w3.org/2000/svg" version="1.1">
<title>OpenSCAD Model</title>
<path d="
M 1084,-80 L 0,-80 L 0,-0 L 4.95,-0 L 4.95,-6 L 5.00572,-6.53017
 L 5.17046,-7.03717 L 5.437,-7.49884 L 5.79372,-7.895 L 6.22499,-8.20836 L 6.71201,-8.42519 L 7.23344,-8.53603
 L 7.76654,-8.53603 L 8.28798,-8.42519 L 8.77499,-8.20836 L 9.20627,-7.895 L 9.56299,-7.49884 L 9.82953,-7.03717
 L 9.99426,-6.53017 L 10.05,-6 L 10.05,-0 L 183.117,-0 L 183.117,-6 L 183.172,-6.53017
 L 183.337,-7.03717 L 183.604,-7.49884 L 183.96,-7.895 L 184.392,-8.20836 L 184.879,-8.42519 L 185.4,-8.53603
 L 185.933,-8.53603 L 186.455,-8.42519 L 186.942,-8.20836 L 187.373,-7.895 L 187.73,-7.49884 L 187.996,-7.03717
 L 188.161,-6.53017 L 188.217,-6 L 188.217,-0 L 361.283,-0 L 361.283,-6 L 361.339,-6.53017
 L 361.504,-7.03717 L 361.77,-7.49884 L 362.127,-7.895 L 362.558,-8.20836 L 363.045,-8.42519 L 363.567,-8.53603
 L 364.1,-8.53603 L 364.621,-8.42519 L 365.108,-8.20836 L 365.54,-7.895 L 365.896,-7.49884 L 366.163,-7.03717
 L 366.328,-6.53017 L 366.383,-6 L 366.383,-0 L 539.45,-0 L 539.45,-6 L 539.506,-6.53017
 L 539.67,-7.03717 L 539.937,-7.49884 L 540.294,-7.895 L 540.725,-8.20836 L 541.212,-8.42519 L 541.733,-8.53603
 L 542.267,-8.53603 L 542.788,-8.42519 L 543.275,-8.20836 L 543.706,-7.895 L 544.063,-7.49884 L 544.33,-7.03717
 L 544.494,-6.53017 L 544.55,-6 L 544.55,-0 L 717.617,-0 L 717.617,-6 L 717.672,-6.53017
 L 717.837,-7.03717 L 718.104,-7.49884 L 718.46,-7.895 L 718.892,-8.20836 L 719.379,-8.42519 L 719.9,-8.53603
 L 720.433,-8.53603 L 720.955,-8.42519 L 721.442,-8.20836 L 721.873,-7.895 L 722.23,-7.49884 L 722.496,-7.03717
 L 722.661,-6.53017 L 722.717,-6 L 722.717,-0 L 895.783,-0 L 895.783,-6 L 895.839,-6.53017
 L 896.004,-7.03717 L 896.27,-7.49884 L 896.627,-7.895 L 897.058,-8.20836 L 897.545,-8.42519 L 898.067,-8.53603
 L 898.6,-8.53603 L 899.121,-8.42519 L 899.608,-8.20836 L 900.04,-7.895 L 900.396,-7.49884 L 900.663,-7.03717
 L 900.828,-6.53017 L 900.883,-6 L 900.883,-0 L 1073.95,-0 L 1073.95,-6 L 1074.01,-6.53017
 L 1074.17,-7.03717 L 1074.44,-7.49884 L 1074.79,-7.895 L 1075.22,-8.20836 L 1075.71,-8.42519 L 1076.23,-8.53603
 L 1076.77,-8.53603 L 1077.29,-8.42519 L 1077.77,-8.20836 L 1078.21,-7.895 L 1078.56,-7.49884 L 1078.83,-7.03717
 L 1078.99,-6.53017 L 1079.05,-6 L 1079.05,-0 L 1084,-0 z
M 6.98573,-55.607 L 6.47708,-55.6875 L 5.97964,-55.8208 L 5.49887,-56.0054 L 5.04001,-56.2392 L 4.60811,-56.5196
 L 4.20789,-56.8437 L 3.84373,-57.2079 L 3.51964,-57.6081 L 3.23917,-58.04 L 3.00537,-58.4989 L 2.82082,-58.9796
 L 2.68752,-59.4771 L 2.60696,-59.9857 L 2.58,-60.5 L 2.60696,-61.0143 L 2.68752,-61.5229 L 2.82082,-62.0204
 L 3.00537,-62.5011 L 3.23917,-62.96 L 3.51964,-63.3919 L 3.84373,-63.7921 L 4.20789,-64.1563 L 4.60811,-64.4804
 L 4.95001,-64.7024 L 4.95001,-74 L 5.00574,-74.5302 L 5.17047,-75.0372 L 5.43701,-75.4988 L 5.79373,-75.895
 L 6.22501,-76.2084 L 6.71202,-76.4252 L 7.23346,-76.536 L 7.76654,-76.536 L 8.28798,-76.4252 L 8.77499,-76.2084
 L 9.20627,-75.895 L 9.56299,-75.4988 L 9.82953,-75.0372 L 9.99426,-74.5302 L 10.05,-74 L 10.05,-64.7024
 L 10.3919,-64.4804 L 10.7921,-64.1563 L 11.1563,-63.7921 L 11.4804,-63.3919 L 11.7608,-62.96 L 11.9946,-62.5011
 L 12.1792,-62.0204 L 12.3125,-61.5229 L 12.393,-61.0143 L 12.42,-60.5 L 12.393,-59.9857 L 12.3125,-59.4771
 L 12.1792,-58.9796 L 11.9946,-58.4989 L 11.7608,-58.04 L 11.4804,-57.6081 L 11.1563,-57.2079 L 10.7921,-56.8437
 L 10.3919,-56.5196 L 9.95999,-56.2392 L 9.50113,-56.0054 L 9.02036,-55.8208 L 8.52292,-55.6875 L 8.01427,-55.607
 L 7.5,-55.58 z
M 185.152,-55.607 L 184.644,-55.6875 L 184.146,-55.8208 L 183.666,-56.0054 L 183.207,-56.2392 L 182.775,-56.5196
 L 182.375,-56.8437 L 182.01,-57.2079 L 181.686,-57.6081 L 181.406,-58.04 L 181.172,-58.4989 L 180.987,-58.9796
 L 180.854,-59.4771 L 180.774,-59.9857 L 180.747,-60.5 L 180.774,-61.0143 L 180.854,-61.5229 L 180.987,-62.0204
 L 181.172,-62.5011 L 181.406,-62.96 L 181.686,-63.3919 L 182.01,-63.7921 L 182.375,-64.1563 L 182.775,-64.4804
 L 183.117,-64.7024 L 183.117,-74 L 183.172,-74.5302 L 183.337,-75.0372 L 183.604,-75.4988 L 183.96,-75.895
 L 184.392,-76.2084 L 184.879,-76.4252 L 185.4,-76.536 L 185.933,-76.536 L 186.455,-76.4252 L 186.942,-76.2084
 L 187.373,-75.895 L 187.73,-75.4988 L 187.996,-75.0372 L 188.161,-74.5302 L 188.217,-74 L 188.217,-64.7024
 L 188.559,-64.4804 L 188.959,-64.1563 L 189.323,-63.7921 L 189.647,-63.3919 L 189.927,-62.96 L 190.161,-62.5011
 L 190.346,-62.0204 L 190.479,-61.5229 L 190.56,-61.0143 L 190.587,-60.5 L 190.56,-59.9857 L 190.479,-59.4771
 L 190.346,-58.9796 L 190.161,-58.4989 L 189.927,-58.04 L 189.647,-57.6081 L 189.323,-57.2079 L 188.959,-56.8437
 L 188.559,-56.5196 L 188.127,-56.2392 L 187.668,-56.0054 L 187.187,-55.8208 L 186.69,-55.6875 L 186.181,-55.607
 L 185.667,-55.58 z
M 363.319,-55.607 L 362.81,-55.6875 L 362.313,-55.8208 L 361.832,-56.0054 L 361.373,-56.2392 L 360.941,-56.5196
 L 360.541,-56.8437 L 360.177,-57.2079 L 359.853,-57.6081 L 359.572,-58.04 L 359.339,-58.4989 L 359.154,-58.9796
 L 359.021,-59.4771 L 358.94,-59.9857 L 358.913,-60.5 L 358.94,-61.0143 L 359.021,-61.5229 L 359.154,-62.0204
 L 359.339,-62.5011 L 359.572,-62.96 L 359.853,-63.3919 L 360.177,-63.7921 L 360.541,-64.1563 L 360.941,-64.4804
 L 361.283,-64.7024 L 361.283,-74 L 361.339,-74.5302 L 361.504,-75.0372 L 361.77,-75.4988 L 362.127,-75.895
 L 362.558,-76.2084 L 363.045,-76.4252 L 363.567,-76.536 L 364.1,-76.536 L 364.621,-76.4252 L 365.108,-76.2084
 L 365.54,-75.895 L 365.896,-75.4988 L 366.163,-75.0372 L 366.328,-74.5302 L 366.383,-74 L 366.383,-64.7024
 L 366.725,-64.4804 L 367.125,-64.1563 L 367.49,-63.7921 L 367.814,-63.3919 L 368.094,-62.96 L 368.328,-62.5011
 L 368.513,-62.0204 L 368.646,-61.5229 L 368.726,-61.0143 L 368.753,-60.5 L 368.726,-59.9857 L 368.646,-59.4771
 L 368.513,-58.9796 L 368.328,-58.4989 L 368.094,-58.04 L 367.814,-57.6081 L 367.49,-57.2079 L 367.125,-56.8437
 L 366.725,-56.5196 L 366.293,-56.2392 L 365.834,-56.0054 L 365.354,-55.8208 L 364.856,-55.6875 L 364.348,-55.607
 L 363.833,-55.58 z
M 541.486,-55.607 L 540.977,-55.6875 L 540.48,-55.8208 L 539.999,-56.0054 L 539.54,-56.2392 L 539.108,-56.5196
 L 538.708,-56.8437 L 538.344,-57.2079 L 538.02,-57.6081 L 537.739,-58.04 L 537.505,-58.4989 L 537.321,-58.9796
 L 537.188,-59.4771 L 537.107,-59.9857 L 537.08,-60.5 L 537.107,-61.0143 L 537.188,-61.5229 L 537.321,-62.0204
 L 537.505,-62.5011 L 537.739,-62.96 L 538.02,-63.3919 L 538.344,-63.7921 L 538.708,-64.1563 L 539.108,-64.4804
 L 539.45,-64.7024 L 539.45,-74 L 539.506,-74.5302 L 539.67,-75.0372 L 539.937,-75.4988 L 540.294,-75.895
 L 540.725,-76.2084 L 541.212,-76.4252 L 541.733,-76.536 L 542.267,-76.536 L 542.788,-76.4252 L 543.275,-76.2084
 L 543.706,-75.895 L 544.063,-75.4988 L 544.33,-75.0372 L 544.494,-74.5302 L 544.55,-74 L 544.55,-64.7024
 L 544.892,-64.4804 L 545.292,-64.1563 L 545.656,-63.7921 L 545.98,-63.3919 L 546.261,-62.96 L 546.495,-62.5011
 L 546.679,-62.0204 L 546.812,-61.5229 L 546.893,-61.0143 L 546.92,-60.5 L 546.893,-59.9857 L 546.812,-59.4771
 L 546.679,-58.9796 L 546.495,-58.4989 L 546.261,-58.04 L 545.98,-57.6081 L 545.656,-57.2079 L 545.292,-56.8437
 L 544.892,-56.5196 L 544.46,-56.2392 L 544.001,-56.0054 L 543.52,-55.8208 L 543.023,-55.6875 L 542.514,-55.607
 L 542,-55.58 z
M 719.652,-55.607 L 719.144,-55.6875 L 718.646,-55.8208 L 718.166,-56.0054 L 717.707,-56.2392 L 717.275,-56.5196
 L 716.875,-56.8437 L 716.51,-57.2079 L 716.186,-57.6081 L 715.906,-58.04 L 715.672,-58.4989 L 715.487,-58.9796
 L 715.354,-59.4771 L 715.274,-59.9857 L 715.247,-60.5 L 715.274,-61.0143 L 715.354,-61.5229 L 715.487,-62.0204
 L 715.672,-62.5011 L 715.906,-62.96 L 716.186,-63.3919 L 716.51,-63.7921 L 716.875,-64.1563 L 717.275,-64.4804
 L 717.617,-64.7024 L 717.617,-74 L 717.672,-74.5302 L 717.837,-75.0372 L 718.104,-75.4988 L 718.46,-75.895
 L 718.892,-76.2084 L 719.379,-76.4252 L 719.9,-76.536 L 720.433,-76.536 L 720.955,-76.4252 L 721.442,-76.2084
 L 721.873,-75.895 L 722.23,-75.4988 L 722.496,-75.0372 L 722.661,-74.5302 L 722.717,-74 L 722.717,-64.7024
 L 723.059,-64.4804 L 723.459,-64.1563 L 723.823,-63.7921 L 724.147,-63.3919 L 724.427,-62.96 L 724.661,-62.5011
 L 724.846,-62.0204 L 724.979,-61.5229 L 725.06,-61.0143 L 725.087,-60.5 L 725.06,-59.9857 L 724.979,-59.4771
 L 724.846,-58.9796 L 724.661,-58.4989 L 724.427,-58.04 L 724.147,-57.6081 L 723.823,-57.2079 L 723.459,-56.8437
 L 723.059,-56.5196 L 722.627,-56.2392 L 722.168,-56.0054 L 721.687,-55.8208 L 721.19,-55.6875 L 720.681,-55.607
 L 720.167,-55.58 z
M 897.819,-55.607 L 897.31,-55.6875 L 896.813,-55.8208 L 896.332,-56.0054 L 895.873,-56.2392 L 895.441,-56.5196
 L 895.041,-56.8437 L 894.677,-57.2079 L 894.353,-57.6081 L 894.072,-58.04 L 893.839,-58.4989 L 893.654,-58.9796
 L 893.521,-59.4771 L 893.44,-59.9857 L 893.413,-60.5 L 893.44,-61.0143 L 893.521,-61.5229 L 893.654,-62.0204
 L 893.839,-62.5011 L 894.072,-62.96 L 894.353,-63.3919 L 894.677,-63.7921 L 895.041,-64.1563 L 895.441,-64.4804
 L 895.783,-64.7024 L 895.783,-74 L 895.839,-74.5302 L 896.004,-75.0372 L 896.27,-75.4988 L 896.627,-75.895
 L 897.058,-76.2084 L 897.545,-76.4252 L 898.067,-76.536 L 898.6,-76.536 L 899.121,-76.4252 L 899.608,-76.2084
 L 900.04,-75.895 L 900.396,-75.4988 L 900.663,-75.0372 L 900.828,-74.5302 L 900.883,-74 L 900.883,-64.7024
 L 901.225,-64.4804 L 901.625,-64.1563 L 901.99,-63.7921 L 902.314,-63.3919 L 902.594,-62.96 L 902.828,-62.5011
 L 903.013,-62.0204 L 903.146,-61.5229 L 903.226,-61.0143 L 903.253,-60.5 L 903.226,-59.9857 L 903.146,-59.4771
 L 903.013,-58.9796 L 902.828,-58.4989 L 902.594,-58.04 L 902.314,-57.6081 L 901.99,-57.2079 L 901.625,-56.8437
 L 901.225,-56.5196 L 900.793,-56.2392 L 900.334,-56.0054 L 899.854,-55.8208 L 899.356,-55.6875 L 898.848,-55.607
 L 898.333,-55.58 z
M 1075.99,-55.607 L 1075.48,-55.6875 L 1074.98,-55.8208 L 1074.5,-56.0054 L 1074.04,-56.2392 L 1073.61,-56.5196
 L 1073.21,-56.8437 L 1072.84,-57.2079 L 1072.52,-57.6081 L 1072.24,-58.04 L 1072.01,-58.4989 L 1071.82,-58.9796
 L 1071.69,-59.4771 L 1071.61,-59.9857 L 1071.58,-60.5 L 1071.61,-61.0143 L 1071.69,-61.5229 L 1071.82,-62.0204
 L 1072.01,-62.5011 L 1072.24,-62.96 L 1072.52,-63.3919 L 1072.84,-63.7921 L 1073.21,-64.1563 L 1073.61,-64.4804
 L 1073.95,-64.7024 L 1073.95,-74 L 1074.01,-74.5302 L 1074.17,-75.0372 L 1074.44,-75.4988 L 1074.79,-75.895
 L 1075.23,-76.2084 L 1075.71,-76.4252 L 1076.23,-76.536 L 1076.77,-76.536 L 1077.29,-76.4252 L 1077.77,-76.2084
 L 1078.21,-75.895 L 1078.56,-75.4988 L 1078.83,-75.0372 L 1078.99,-74.5302 L 1079.05,-74 L 1079.05,-64.7024
 L 1079.39,-64.4804 L 1079.79,-64.1563 L 1080.16,-63.7921 L 1080.48,-63.3919 L 1080.76,-62.96 L 1080.99,-62.5011
 L 1081.18,-62.0204 L 1081.31,-61.5229 L 1081.39,-61.0143 L 1081.42,-60.5 L 1081.39,-59.9857 L 1081.31,-59.4771
 L 1081.18,-58.9796 L 1080.99,-58.4989 L 1080.76,-58.04 L 1080.48,-57.6081 L 1080.16,-57.2079 L 1079.79,-56.8437
 L 1079.39,-56.5196 L 1078.96,-56.2392 L 1078.5,-56.0054 L 1078.02,-55.8208 L 1077.52,-55.6875 L 1077.01,-55.607
 L 1076.5,-55.58 z
M 910.291,-20.9969 L 909.511,-21.2981 L 908.81,-21.7549 L 908.22,-22.3473 L 907.766,-23.0495 L 907.468,-23.8307
 L 907.333,-24.8586 L 907.333,-58 L 907.421,-58.8316 L 907.679,-59.627 L 908.097,-60.3511 L 908.657,-60.9726
 L 909.333,-61.4641 L 910.097,-61.8042 L 911.333,-62 L 998.167,-62 L 998.999,-61.9126 L 999.794,-61.6542
 L 1000.52,-61.2361 L 1001.14,-60.6765 L 1001.63,-60 L 1001.97,-59.2361 L 1002.15,-58.4181 L 1002.15,-57.5819
 L 1001.97,-56.7639 L 1001.63,-56 L 1001.14,-55.3235 L 1000.52,-54.7639 L 999.593,-54.2629 L 912.76,-21.1216
 L 911.951,-20.9067 L 911.116,-20.8645 z
M 350.215,-20.9067 L 349.407,-21.1216 L 262.573,-54.2629 L 261.648,-54.7639 L 261.027,-55.3235 L 260.536,-56
 L 260.195,-56.7639 L 260.022,-57.5819 L 260.022,-58.4181 L 260.195,-59.2361 L 260.536,-60 L 261.027,-60.6765
 L 261.648,-61.2361 L 262.373,-61.6542 L 263.168,-61.9126 L 264,-62 L 350.833,-62 L 352.069,-61.8042
 L 352.833,-61.4641 L 353.51,-60.9726 L 354.069,-60.3511 L 354.487,-59.627 L 354.746,-58.8316 L 354.833,-58
 L 354.833,-24.8586 L 354.699,-23.8307 L 354.401,-23.0495 L 353.947,-22.3473 L 353.357,-21.7549 L 352.656,-21.2981
 L 351.876,-20.9969 L 351.05,-20.8645 z
M 172.048,-20.9067 L 171.24,-21.1216 L 84.4066,-54.2629 L 83.4818,-54.7639 L 82.8604,-55.3235 L 82.3689,-56
 L 82.0287,-56.7639 L 81.8549,-57.5819 L 81.8549,-58.4181 L 82.0287,-59.2361 L 82.3689,-60 L 82.8604,-60.6765
 L 83.4818,-61.2361 L 84.206,-61.6542 L 85.0013,-61.9126 L 85.8329,-62 L 172.667,-62 L 173.903,-61.8042
 L 174.667,-61.4641 L 175.343,-60.9726 L 175.903,-60.3511 L 176.321,-59.627 L 176.579,-58.8316 L 176.667,-58
 L 176.667,-24.8586 L 176.532,-23.8307 L 176.234,-23.0495 L 175.78,-22.3473 L 175.19,-21.7549 L 174.489,-21.2981
 L 173.709,-20.9969 L 172.884,-20.8645 z
M 528.382,-20.9067 L 527.574,-21.1216 L 440.74,-54.2629 L 439.815,-54.7639 L 439.194,-55.3235 L 438.702,-56
 L 438.362,-56.7639 L 438.188,-57.5819 L 438.188,-58.4181 L 438.362,-59.2361 L 438.702,-60 L 439.194,-60.6765
 L 439.815,-61.2361 L 440.539,-61.6542 L 441.335,-61.9126 L 442.166,-62 L 529,-62 L 530.236,-61.8042
 L 531,-61.4641 L 531.677,-60.9726 L 532.236,-60.3511 L 532.654,-59.627 L 532.913,-58.8316 L 533,-58
 L 533,-24.8586 L 532.866,-23.8307 L 532.567,-23.0495 L 532.113,-22.3473 L 531.523,-21.7549 L 530.823,-21.2981
 L 530.043,-20.9969 L 529.217,-20.8645 z
M 553.957,-20.9969 L 553.177,-21.2981 L 552.477,-21.7549 L 551.887,-22.3473 L 551.432,-23.0495 L 551.134,-23.8307
 L 551,-24.8586 L 551,-58 L 551.087,-58.8316 L 551.346,-59.627 L 551.764,-60.3511 L 552.323,-60.9726
 L 553,-61.4641 L 553.764,-61.8042 L 555,-62 L 641.834,-62 L 642.665,-61.9126 L 643.461,-61.6542
 L 644.185,-61.2361 L 644.806,-60.6765 L 645.298,-60 L 645.638,-59.2361 L 645.812,-58.4181 L 645.812,-57.5819
 L 645.638,-56.7639 L 645.298,-56 L 644.806,-55.3235 L 644.185,-54.7639 L 643.26,-54.2629 L 556.426,-21.1216
 L 555.618,-20.9067 L 554.783,-20.8645 z
M 732.124,-20.9969 L 731.344,-21.2981 L 730.643,-21.7549 L 730.053,-22.3473 L 729.599,-23.0495 L 729.301,-23.8307
 L 729.167,-24.8586 L 729.167,-58 L 729.254,-58.8316 L 729.512,-59.627 L 729.931,-60.3511 L 730.49,-60.9726
 L 731.167,-61.4641 L 731.931,-61.8042 L 733.167,-62 L 820,-62 L 820.832,-61.9126 L 821.627,-61.6542
 L 822.352,-61.2361 L 822.973,-60.6765 L 823.464,-60 L 823.805,-59.2361 L 823.978,-58.4181 L 823.978,-57.5819
 L 823.805,-56.7639 L 823.464,-56 L 822.973,-55.3235 L 822.352,-54.7639 L 821.427,-54.2629 L 734.593,-21.1216
 L 733.785,-20.9067 L 732.95,-20.8645 z
M 198.667,-18 L 197.431,-18.1958 L 196.667,-18.5359 L 195.99,-19.0274 L 195.431,-19.6489 L 195.012,-20.373
 L 194.754,-21.1684 L 194.667,-22 L 194.667,-55.1414 L 194.801,-56.1693 L 195.099,-56.9505 L 195.553,-57.6527
 L 196.143,-58.2451 L 196.844,-58.7019 L 197.624,-59.0031 L 198.45,-59.1355 L 199.285,-59.0933 L 200.093,-58.8784
 L 286.927,-25.7371 L 287.851,-25.2361 L 288.473,-24.6765 L 288.964,-24 L 289.305,-23.2361 L 289.478,-22.4181
 L 289.478,-21.5819 L 289.305,-20.7639 L 288.964,-20 L 288.473,-19.3235 L 287.851,-18.7639 L 287.127,-18.3458
 L 286.332,-18.0874 L 285.5,-18 z
M 376.833,-18 L 375.597,-18.1958 L 374.833,-18.5359 L 374.157,-19.0274 L 373.597,-19.6489 L 373.179,-20.373
 L 372.921,-21.1684 L 372.833,-22 L 372.833,-55.1414 L 372.968,-56.1693 L 373.266,-56.9505 L 373.72,-57.6527
 L 374.31,-58.2451 L 375.011,-58.7019 L 375.791,-59.0031 L 376.616,-59.1355 L 377.451,-59.0933 L 378.26,-58.8784
 L 465.093,-25.7371 L 466.018,-25.2361 L 466.64,-24.6765 L 467.131,-24 L 467.471,-23.2361 L 467.645,-22.4181
 L 467.645,-21.5819 L 467.471,-20.7639 L 467.131,-20 L 466.64,-19.3235 L 466.018,-18.7639 L 465.294,-18.3458
 L 464.499,-18.0874 L 463.667,-18 z
M 620.333,-18 L 619.501,-18.0874 L 618.706,-18.3458 L 617.982,-18.7639 L 617.36,-19.3235 L 616.869,-20
 L 616.529,-20.7639 L 616.355,-21.5819 L 616.355,-22.4181 L 616.529,-23.2361 L 616.869,-24 L 617.36,-24.6765
 L 617.982,-25.2361 L 618.907,-25.7371 L 705.74,-58.8784 L 706.548,-59.0933 L 707.384,-59.1355 L 708.209,-59.0031
 L 708.989,-58.7019 L 709.69,-58.2451 L 710.28,-57.6527 L 710.734,-56.9505 L 711.032,-56.1693 L 711.167,-55.1414
 L 711.167,-22 L 711.079,-21.1684 L 710.821,-20.373 L 710.403,-19.6489 L 709.843,-19.0274 L 709.167,-18.5359
 L 708.403,-18.1958 L 707.167,-18 z
M 798.5,-18 L 797.668,-18.0874 L 796.873,-18.3458 L 796.148,-18.7639 L 795.527,-19.3235 L 795.036,-20
 L 794.695,-20.7639 L 794.522,-21.5819 L 794.522,-22.4181 L 794.695,-23.2361 L 795.036,-24 L 795.527,-24.6765
 L 796.148,-25.2361 L 797.073,-25.7371 L 883.907,-58.8784 L 884.715,-59.0933 L 885.55,-59.1355 L 886.376,-59.0031
 L 887.156,-58.7019 L 887.857,-58.2451 L 888.447,-57.6527 L 888.901,-56.9505 L 889.199,-56.1693 L 889.333,-55.1414
 L 889.333,-22 L 889.246,-21.1684 L 888.988,-20.373 L 888.569,-19.6489 L 888.01,-19.0274 L 887.333,-18.5359
 L 886.569,-18.1958 L 885.333,-18 z
M 976.666,-18 L 975.835,-18.0874 L 975.039,-18.3458 L 974.315,-18.7639 L 973.694,-19.3235 L 973.202,-20
 L 972.862,-20.7639 L 972.688,-21.5819 L 972.688,-22.4181 L 972.862,-23.2361 L 973.202,-24 L 973.694,-24.6765
 L 974.315,-25.2361 L 975.24,-25.7371 L 1060.57,-58.306 L 1061.38,-58.5208 L 1062.22,-58.563 L 1063.04,-58.4306
 L 1063.82,-58.1294 L 1064.52,-57.6726 L 1065.11,-57.0802 L 1065.57,-56.378 L 1065.87,-55.5968 L 1066,-54.5689
 L 1066,-22 L 1065.91,-21.1684 L 1065.65,-20.373 L 1065.24,-19.6489 L 1064.68,-19.0274 L 1064,-18.5359
 L 1063.24,-18.1958 L 1062,-18 z
M 22,-18 L 20.7639,-18.1958 L 20,-18.5359 L 19.3235,-19.0274 L 18.7639,-19.6489 L 18.3458,-20.373
 L 18.0874,-21.1684 L 18,-22 L 18,-54.5689 L 18.1343,-55.5968 L 18.4325,-56.378 L 18.8866,-57.0802
 L 19.4768,-57.6726 L 20.1772,-58.1294 L 20.9573,-58.4306 L 21.783,-58.563 L 22.6182,-58.5208 L 23.4263,-58.306
 L 108.76,-25.7371 L 109.685,-25.2361 L 110.306,-24.6765 L 110.798,-24 L 111.138,-23.2361 L 111.312,-22.4181
 L 111.312,-21.5819 L 111.138,-20.7639 L 110.798,-20 L 110.306,-19.3235 L 109.685,-18.7639 L 108.961,-18.3458
 L 108.165,-18.0874 L 107.334,-18 z
" stroke="black" fill="lightgray" stroke-width="0.5"/>
</svg>
