<?xml version="1.0" standalone="no"?>
<!DOCTYPE svg PUBLIC "-//W3C//DTD SVG 1.1//EN" "http://www.w3.org/Graphics/SVG/1.1/DTD/svg11.dtd">
<svg width="1523mm" height="80mm" viewBox="0 -80 1523 80" xmlns="http://www.w3.org/2000/svg" version="1.1">
<title>OpenSCAD Model</title>
<path d="
M 1523,-80 L 0,-80 L 0,-0 L 4.95,-0 L 4.95,-6 L 5.00572,-6.53017
 L 5.17046,-7.03717 L 5.437,-7.49884 L 5.79372,-7.895 L 6.22499,-8.20836 L 6.71201,-8.42519 L 7.23344,-8.53603
 L 7.76654,-8.53603 L 8.28798,-8.42519 L 8.77499,-8.20836 L 9.20627,-7.895 L 9.56299,-7.49884 L 9.82953,-7.03717
 L 9.99426,-6.53017 L 10.05,-6 L 10.05,-0 L 193.45,-0 L 193.45,-6 L 193.506,-6.53017
 L 193.67,-7.03717 L 193.937,-7.49884 L 194.294,-7.895 L 194.725,-8.20836 L 195.212,-8.42519 L 195.733,-8.53603
 L 196.267,-8.53603 L 196.788,-8.42519 L 197.275,-8.20836 L 197.706,-7.895 L 198.063,-7.49884 L 198.33,-7.03717
 L 198.494,-6.53017 L 198.55,-6 L 198.55,-0 L 381.95,-0 L 381.95,-6 L 382.006,-6.53017
 L 382.17,-7.03717 L 382.437,-7.49884 L 382.794,-7.895 L 383.225,-8.20836 L 383.712,-8.42519 L 384.233,-8.53603
 L 384.767,-8.53603 L 385.288,-8.42519 L 385.775,-8.20836 L 386.206,-7.895 L 386.563,-7.49884 L 386.83,-7.03717
 L 386.994,-6.53017 L 387.05,-6 L 387.05,-0 L 570.45,-0 L 570.45,-6 L 570.506,-6.53017
 L 570.67,-7.03717 L 570.937,-7.49884 L 571.294,-7.895 L 571.725,-8.20836 L 572.212,-8.42519 L 572.733,-8.53603
 L 573.267,-8.53603 L 573.788,-8.42519 L 574.275,-8.20836 L 574.706,-7.895 L 575.063,-7.49884 L 575.33,-7.03717
 L 575.494,-6.53017 L 575.55,-6 L 575.55,-0 L 758.95,-0 L 758.95,-6 L 759.006,-6.53017
 L 759.17,-7.03717 L 759.437,-7.49884 L 759.794,-7.895 L 760.225,-8.20836 L 760.712,-8.42519 L 761.233,-8.53603
 L 761.767,-8.53603 L 762.288,-8.42519 L 762.775,-8.20836 L 763.206,-7.895 L 763.563,-7.49884 L 763.83,-7.03717
 L 763.994,-6.53017 L 764.05,-6 L 764.05,-0 L 947.45,-0 L 947.45,-6 L 947.506,-6.53017
 L 947.67,-7.03717 L 947.937,-7.49884 L 948.294,-7.895 L 948.725,-8.20836 L 949.212,-8.42519 L 949.733,-8.53603
 L 950.267,-8.53603 L 950.788,-8.42519 L 951.275,-8.20836 L 951.706,-7.895 L 952.063,-7.49884 L 952.33,-7.03717
 L 952.494,-6.53017 L 952.55,-6 L 952.55,-0 L 1135.95,-0 L 1135.95,-6 L 1136.01,-6.53017
 L 1136.17,-7.03717 L 1136.44,-7.49884 L 1136.79,-7.895 L 1137.22,-8.20836 L 1137.71,-8.42519 L 1138.23,-8.53603
 L 1138.77,-8.53603 L 1139.29,-8.42519 L 1139.77,-8.20836 L 1140.21,-7.895 L 1140.56,-7.49884 L 1140.83,-7.03717
 L 1140.99,-6.53017 L 1141.05,-6 L 1141.05,-0 L 1324.45,-0 L 1324.45,-6 L 1324.51,-6.53017
 L 1324.67,-7.03717 L 1324.94,-7.49884 L 1325.29,-7.895 L 1325.72,-8.20836 L 1326.21,-8.42519 L 1326.73,-8.53603
 L 1327.27,-8.53603 L 1327.79,-8.42519 L 1328.27,-8.20836 L 1328.71,-7.895 L 1329.06,-7.49884 L 1329.33,-7.03717
 L 1329.49,-6.53017 L 1329.55,-6 L 1329.55,-0 L 1512.95,-0 L 1512.95,-6 L 1513.01,-6.53017
 L 1513.17,-7.03717 L 1513.44,-7.49884 L 1513.79,-7.895 L 1514.22,-8.20836 L 1514.71,-8.42519 L 1515.23,-8.53603
 L 1515.77,-8.53603 L 1516.29,-8.42519 L 1516.77,-8.20836 L 1517.21,-7.895 L 1517.56,-7.49884 L 1517.83,-7.03717
 L 1517.99,-6.53017 L 1518.05,-6 L 1518.05,-0 L 1523,-0 z
M 195.486,-55.607 L 194.977,-55.6875 L 194.48,-55.8208 L 193.999,-56.0054 L 193.54,-56.2392 L 193.108,-56.5196
 L 192.708,-56.8437 L 192.344,-57.2079 L 192.02,-57.6081 L 191.739,-58.04 L 191.505,-58.4989 L 191.321,-58.9796
 L 191.188,-59.4771 L 191.107,-59.9857 L 191.08,-60.5 L 191.107,-61.0143 L 191.188,-61.5229 L 191.321,-62.0204
 L 191.505,-62.5011 L 191.739,-62.96 L 192.02,-63.3919 L 192.344,-63.7921 L 192.708,-64.1563 L 193.108,-64.4804
 L 193.45,-64.7024 L 193.45,-74 L 193.506,-74.5302 L 193.67,-75.0372 L 193.937,-75.4988 L 194.294,-75.895
 L 194.725,-76.2084 L 195.212,-76.4252 L 195.733,-76.536 L 196.267,-76.536 L 196.788,-76.4252 L 197.275,-76.2084
 L 197.706,-75.895 L 198.063,-75.4988 L 198.33,-75.0372 L 198.494,-74.5302 L 198.55,-74 L 198.55,-64.7024
 L 198.892,-64.4804 L 199.292,-64.1563 L 199.656,-63.7921 L 199.98,-63.3919 L 200.261,-62.96 L 200.495,-62.5011
 L 200.679,-62.0204 L 200.812,-61.5229 L 200.893,-61.0143 L 200.92,-60.5 L 200.893,-59.9857 L 200.812,-59.4771
 L 200.679,-58.9796 L 200.495,-58.4989 L 200.261,-58.04 L 199.98,-57.6081 L 199.656,-57.2079 L 199.292,-56.8437
 L 198.892,-56.5196 L 198.46,-56.2392 L 198.001,-56.0054 L 197.52,-55.8208 L 197.023,-55.6875 L 196.514,-55.607
 L 196,-55.58 z
M 1137.99,-55.607 L 1137.48,-55.6875 L 1136.98,-55.8208 L 1136.5,-56.0054 L 1136.04,-56.2392 L 1135.61,-56.5196
 L 1135.21,-56.8437 L 1134.84,-57.2079 L 1134.52,-57.6081 L 1134.24,-58.04 L 1134.01,-58.4989 L 1133.82,-58.9796
 L 1133.69,-59.4771 L 1133.61,-59.9857 L 1133.58,-60.5 L 1133.61,-61.0143 L 1133.69,-61.5229 L 1133.82,-62.0204
 L 1134.01,-62.5011 L 1134.24,-62.96 L 1134.52,-63.3919 L 1134.84,-63.7921 L 1135.21,-64.1563 L 1135.61,-64.4804
 L 1135.95,-64.7024 L 1135.95,-74 L 1136.01,-74.5302 L 1136.17,-75.0372 L 1136.44,-75.4988 L 1136.79,-75.895
 L 1137.23,-76.2084 L 1137.71,-76.4252 L 1138.23,-76.536 L 1138.77,-76.536 L 1139.29,-76.4252 L 1139.77,-76.2084
 L 1140.21,-75.895 L 1140.56,-75.4988 L 1140.83,-75.0372 L 1140.99,-74.5302 L 1141.05,-74 L 1141.05,-64.7024
 L 1141.39,-64.4804 L 1141.79,-64.1563 L 1142.16,-63.7921 L 1142.48,-63.3919 L 1142.76,-62.96 L 1142.99,-62.5011
 L 1143.18,-62.0204 L 1143.31,-61.5229 L 1143.39,-61.0143 L 1143.42,-60.5 L 1143.39,-59.9857 L 1143.31,-59.4771
 L 1143.18,-58.9796 L 1142.99,-58.4989 L 1142.76,-58.04 L 1142.48,-57.6081 L 1142.16,-57.2079 L 1141.79,-56.8437
 L 1141.39,-56.5196 L 1140.96,-56.2392 L 1140.5,-56.0054 L 1140.02,-55.8208 L 1139.52,-55.6875 L 1139.01,-55.607
 L 1138.5,-55.58 z
M 949.486,-55.607 L 948.977,-55.6875 L 948.48,-55.8208 L 947.999,-56.0054 L 947.54,-56.2392 L 947.108,-56.5196
 L 946.708,-56.8437 L 946.344,-57.2079 L 946.02,-57.6081 L 945.739,-58.04 L 945.505,-58.4989 L 945.321,-58.9796
 L 945.188,-59.4771 L 945.107,-59.9857 L 945.08,-60.5 L 945.107,-61.0143 L 945.188,-61.5229 L 945.321,-62.0204
 L 945.505,-62.5011 L 945.739,-62.96 L 946.02,-63.3919 L 946.344,-63.7921 L 946.708,-64.1563 L 947.108,-64.4804
 L 947.45,-64.7024 L 947.45,-74 L 947.506,-74.5302 L 947.67,-75.0372 L 947.937,-75.4988 L 948.294,-75.895
 L 948.725,-76.2084 L 949.212,-76.4252 L 949.733,-76.536 L 950.267,-76.536 L 950.788,-76.4252 L 951.275,-76.2084
 L 951.706,-75.895 L 952.063,-75.4988 L 952.33,-75.0372 L 952.494,-74.5302 L 952.55,-74 L 952.55,-64.7024
 L 952.892,-64.4804 L 953.292,-64.1563 L 953.656,-63.7921 L 953.98,-63.3919 L 954.261,-62.96 L 954.495,-62.5011
 L 954.679,-62.0204 L 954.812,-61.5229 L 954.893,-61.0143 L 954.92,-60.5 L 954.893,-59.9857 L 954.812,-59.4771
 L 954.679,-58.9796 L 954.495,-58.4989 L 954.261,-58.04 L 953.98,-57.6081 L 953.656,-57.2079 L 953.292,-56.8437
 L 952.892,-56.5196 L 952.46,-56.2392 L 952.001,-56.0054 L 951.52,-55.8208 L 951.023,-55.6875 L 950.514,-55.607
 L 950,-55.58 z
M 6.98573,-55.607 L 6.47708,-55.6875 L 5.97964,-55.8208 L 5.49887,-56.0054 L 5.04001,-56.2392 L 4.60811,-56.5196
 L 4.20789,-56.8437 L 3.84373,-57.2079 L 3.51964,-57.6081 L 3.23917,-58.04 L 3.00537,-58.4989 L 2.82082,-58.9796
 L 2.68752,-59.4771 L 2.60696,-59.9857 L 2.58,-60.5 L 2.60696,-61.0143 L 2.68752,-61.5229 L 2.82082,-62.0204
 L 3.00537,-62.5011 L 3.23917,-62.96 L 3.51964,-63.3919 L 3.84373,-63.7921 L 4.20789,-64.1563 L 4.60811,-64.4804
 L 4.95001,-64.7024 L 4.95001,-74 L 5.00574,-74.5302 L 5.17047,-75.0372 L 5.43701,-75.4988 L 5.79373,-75.895
 L 6.22501,-76.2084 L 6.71202,-76.4252 L 7.23346,-76.536 L 7.76654,-76.536 L 8.28798,-76.4252 L 8.77499,-76.2084
 L 9.20627,-75.895 L 9.56299,-75.4988 L 9.82953,-75.0372 L 9.99426,-74.5302 L 10.05,-74 L 10.05,-64.7024
 L 10.3919,-64.4804 L 10.7921,-64.1563 L 11.1563,-63.7921 L 11.4804,-63.3919 L 11.7608,-62.96 L 11.9946,-62.5011
 L 12.1792,-62.0204 L 12.3125,-61.5229 L 12.393,-61.0143 L 12.42,-60.5 L 12.393,-59.9857 L 12.3125,-59.4771
 L 12.1792,-58.9796 L 11.9946,-58.4989 L 11.7608,-58.04 L 11.4804,-57.6081 L 11.1563,-57.2079 L 10.7921,-56.8437
 L 10.3919,-56.5196 L 9.95999,-56.2392 L 9.50113,-56.0054 L 9.02036,-55.8208 L 8.52292,-55.6875 L 8.01427,-55.607
 L 7.5,-55.58 z
M 760.986,-55.607 L 760.477,-55.6875 L 759.98,-55.8208 L 759.499,-56.0054 L 759.04,-56.2392 L 758.608,-56.5196
 L 758.208,-56.8437 L 757.844,-57.2079 L 757.52,-57.6081 L 757.239,-58.04 L 757.005,-58.4989 L 756.821,-58.9796
 L 756.688,-59.4771 L 756.607,-59.9857 L 756.58,-60.5 L 756.607,-61.0143 L 756.688,-61.5229 L 756.821,-62.0204
 L 757.005,-62.5011 L 757.239,-62.96 L 757.52,-63.3919 L 757.844,-63.7921 L 758.208,-64.1563 L 758.608,-64.4804
 L 758.95,-64.7024 L 758.95,-74 L 759.006,-74.5302 L 759.17,-75.0372 L 759.437,-75.4988 L 759.794,-75.895
 L 760.225,-76.2084 L 760.712,-76.4252 L 761.233,-76.536 L 761.767,-76.536 L 762.288,-76.4252 L 762.775,-76.2084
 L 763.206,-75.895 L 763.563,-75.4988 L 763.83,-75.0372 L 763.994,-74.5302 L 764.05,-74 L 764.05,-64.7024
 L 764.392,-64.4804 L 764.792,-64.1563 L 765.156,-63.7921 L 765.48,-63.3919 L 765.761,-62.96 L 765.995,-62.5011
 L 766.179,-62.0204 L 766.312,-61.5229 L 766.393,-61.0143 L 766.42,-60.5 L 766.393,-59.9857 L 766.312,-59.4771
 L 766.179,-58.9796 L 765.995,-58.4989 L 765.761,-58.04 L 765.48,-57.6081 L 765.156,-57.2079 L 764.792,-56.8437
 L 764.392,-56.5196 L 763.96,-56.2392 L 763.501,-56.0054 L 763.02,-55.8208 L 762.523,-55.6875 L 762.014,-55.607
 L 761.5,-55.58 z
M 1326.49,-55.607 L 1325.98,-55.6875 L 1325.48,-55.8208 L 1325,-56.0054 L 1324.54,-56.2392 L 1324.11,-56.5196
 L 1323.71,-56.8437 L 1323.34,-57.2079 L 1323.02,-57.6081 L 1322.74,-58.04 L 1322.51,-58.4989 L 1322.32,-58.9796
 L 1322.19,-59.4771 L 1322.11,-59.9857 L 1322.08,-60.5 L 1322.11,-61.0143 L 1322.19,-61.5229 L 1322.32,-62.0204
 L 1322.51,-62.5011 L 1322.74,-62.96 L 1323.02,-63.3919 L 1323.34,-63.7921 L 1323.71,-64.1563 L 1324.11,-64.4804
 L 1324.45,-64.7024 L 1324.45,-74 L 1324.51,-74.5302 L 1324.67,-75.0372 L 1324.94,-75.4988 L 1325.29,-75.895
 L 1325.73,-76.2084 L 1326.21,-76.4252 L 1326.73,-76.536 L 1327.27,-76.536 L 1327.79,-76.4252 L 1328.27,-76.2084
 L 1328.71,-75.895 L 1329.06,-75.4988 L 1329.33,-75.0372 L 1329.49,-74.5302 L 1329.55,-74 L 1329.55,-64.7024
 L 1329.89,-64.4804 L 1330.29,-64.1563 L 1330.66,-63.7921 L 1330.98,-63.3919 L 1331.26,-62.96 L 1331.49,-62.5011
 L 1331.68,-62.0204 L 1331.81,-61.5229 L 1331.89,-61.0143 L 1331.92,-60.5 L 1331.89,-59.9857 L 1331.81,-59.4771
 L 1331.68,-58.9796 L 1331.49,-58.4989 L 1331.26,-58.04 L 1330.98,-57.6081 L 1330.66,-57.2079 L 1330.29,-56.8437
 L 1329.89,-56.5196 L 1329.46,-56.2392 L 1329,-56.0054 L 1328.52,-55.8208 L 1328.02,-55.6875 L 1327.51,-55.607
 L 1327,-55.58 z
M 572.486,-55.607 L 571.977,-55.6875 L 571.48,-55.8208 L 570.999,-56.0054 L 570.54,-56.2392 L 570.108,-56.5196
 L 569.708,-56.8437 L 569.344,-57.2079 L 569.02,-57.6081 L 568.739,-58.04 L 568.505,-58.4989 L 568.321,-58.9796
 L 568.188,-59.4771 L 568.107,-59.9857 L 568.08,-60.5 L 568.107,-61.0143 L 568.188,-61.5229 L 568.321,-62.0204
 L 568.505,-62.5011 L 568.739,-62.96 L 569.02,-63.3919 L 569.344,-63.7921 L 569.708,-64.1563 L 570.108,-64.4804
 L 570.45,-64.7024 L 570.45,-74 L 570.506,-74.5302 L 570.67,-75.0372 L 570.937,-75.4988 L 571.294,-75.895
 L 571.725,-76.2084 L 572.212,-76.4252 L 572.733,-76.536 L 573.267,-76.536 L 573.788,-76.4252 L 574.275,-76.2084
 L 574.706,-75.895 L 575.063,-75.4988 L 575.33,-75.0372 L 575.494,-74.5302 L 575.55,-74 L 575.55,-64.7024
 L 575.892,-64.4804 L 576.292,-64.1563 L 576.656,-63.7921 L 576.98,-63.3919 L 577.261,-62.96 L 577.495,-62.5011
 L 577.679,-62.0204 L 577.812,-61.5229 L 577.893,-61.0143 L 577.92,-60.5 L 577.893,-59.9857 L 577.812,-59.4771
 L 577.679,-58.9796 L 577.495,-58.4989 L 577.261,-58.04 L 576.98,-57.6081 L 576.656,-57.2079 L 576.292,-56.8437
 L 575.892,-56.5196 L 575.46,-56.2392 L 575.001,-56.0054 L 574.52,-55.8208 L 574.023,-55.6875 L 573.514,-55.607
 L 573,-55.58 z
M 383.986,-55.607 L 383.477,-55.6875 L 382.98,-55.8208 L 382.499,-56.0054 L 382.04,-56.2392 L 381.608,-56.5196
 L 381.208,-56.8437 L 380.844,-57.2079 L 380.52,-57.6081 L 380.239,-58.04 L 380.005,-58.4989 L 379.821,-58.9796
 L 379.688,-59.4771 L 379.607,-59.9857 L 379.58,-60.5 L 379.607,-61.0143 L 379.688,-61.5229 L 379.821,-62.0204
 L 380.005,-62.5011 L 380.239,-62.96 L 380.52,-63.3919 L 380.844,-63.7921 L 381.208,-64.1563 L 381.608,-64.4804
 L 381.95,-64.7024 L 381.95,-74 L 382.006,-74.5302 L 382.17,-75.0372 L 382.437,-75.4988 L 382.794,-75.895
 L 383.225,-76.2084 L 383.712,-76.4252 L 384.233,-76.536 L 384.767,-76.536 L 385.288,-76.4252 L 385.775,-76.2084
 L 386.206,-75.895 L 386.563,-75.4988 L 386.83,-75.0372 L 386.994,-74.5302 L 387.05,-74 L 387.05,-64.7024
 L 387.392,-64.4804 L 387.792,-64.1563 L 388.156,-63.7921 L 388.48,-63.3919 L 388.761,-62.96 L 388.995,-62.5011
 L 389.179,-62.0204 L 389.312,-61.5229 L 389.393,-61.0143 L 389.42,-60.5 L 389.393,-59.9857 L 389.312,-59.4771
 L 389.179,-58.9796 L 388.995,-58.4989 L 388.761,-58.04 L 388.48,-57.6081 L 388.156,-57.2079 L 387.792,-56.8437
 L 387.392,-56.5196 L 386.96,-56.2392 L 386.501,-56.0054 L 386.02,-55.8208 L 385.523,-55.6875 L 385.014,-55.607
 L 384.5,-55.58 z
M 1514.99,-55.607 L 1514.48,-55.6875 L 1513.98,-55.8208 L 1513.5,-56.0054 L 1513.04,-56.2392 L 1512.61,-56.5196
 L 1512.21,-56.8437 L 1511.84,-57.2079 L 1511.52,-57.6081 L 1511.24,-58.04 L 1511.01,-58.4989 L 1510.82,-58.9796
 L 1510.69,-59.4771 L 1510.61,-59.9857 L 1510.58,-60.5 L 1510.61,-61.0143 L 1510.69,-61.5229 L 1510.82,-62.0204
 L 1511.01,-62.5011 L 1511.24,-62.96 L 1511.52,-63.3919 L 1511.84,-63.7921 L 1512.21,-64.1563 L 1512.61,-64.4804
 L 1512.95,-64.7024 L 1512.95,-74 L 1513.01,-74.5302 L 1513.17,-75.0372 L 1513.44,-75.4988 L 1513.79,-75.895
 L 1514.23,-76.2084 L 1514.71,-76.4252 L 1515.23,-76.536 L 1515.77,-76.536 L 1516.29,-76.4252 L 1516.77,-76.2084
 L 1517.21,-75.895 L 1517.56,-75.4988 L 1517.83,-75.0372 L 1517.99,-74.5302 L 1518.05,-74 L 1518.05,-64.7024
 L 1518.39,-64.4804 L 1518.79,-64.1563 L 1519.16,-63.7921 L 1519.48,-63.3919 L 1519.76,-62.96 L 1519.99,-62.5011
 L 1520.18,-62.0204 L 1520.31,-61.5229 L 1520.39,-61.0143 L 1520.42,-60.5 L 1520.39,-59.9857 L 1520.31,-59.4771
 L 1520.18,-58.9796 L 1519.99,-58.4989 L 1519.76,-58.04 L 1519.48,-57.6081 L 1519.16,-57.2079 L 1518.79,-56.8437
 L 1518.39,-56.5196 L 1517.96,-56.2392 L 1517.5,-56.0054 L 1517.02,-55.8208 L 1516.52,-55.6875 L 1516.01,-55.607
 L 1515.5,-55.58 z
M 370.955,-20.5399 L 370.143,-20.7399 L 277.286,-54.2373 L 276.292,-54.7639 L 275.671,-55.3235 L 275.179,-56
 L 274.839,-56.7639 L 274.665,-57.5819 L 274.665,-58.4181 L 274.839,-59.2361 L 275.179,-60 L 275.671,-60.6765
 L 276.292,-61.2361 L 277.016,-61.6542 L 277.811,-61.9126 L 278.643,-62 L 371.5,-62 L 372.736,-61.8042
 L 373.5,-61.4641 L 374.177,-60.9726 L 374.736,-60.3511 L 375.154,-59.627 L 375.413,-58.8316 L 375.5,-58
 L 375.5,-24.5026 L 375.384,-23.546 L 375.1,-22.7593 L 374.659,-22.0489 L 374.08,-21.4457 L 373.388,-20.9762
 L 372.614,-20.6607 L 371.79,-20.5131 z
M 559.455,-20.5399 L 558.643,-20.7399 L 465.786,-54.2373 L 464.792,-54.7639 L 464.171,-55.3235 L 463.679,-56
 L 463.339,-56.7639 L 463.165,-57.5819 L 463.165,-58.4181 L 463.339,-59.2361 L 463.679,-60 L 464.171,-60.6765
 L 464.792,-61.2361 L 465.516,-61.6542 L 466.311,-61.9126 L 467.143,-62 L 560,-62 L 561.236,-61.8042
 L 562,-61.4641 L 562.677,-60.9726 L 563.236,-60.3511 L 563.654,-59.627 L 563.913,-58.8316 L 564,-58
 L 564,-24.5026 L 563.884,-23.546 L 563.6,-22.7593 L 563.159,-22.0489 L 562.58,-21.4457 L 561.888,-20.9762
 L 561.114,-20.6607 L 560.29,-20.5131 z
M 1338.89,-20.6607 L 1338.11,-20.9762 L 1337.42,-21.4457 L 1336.84,-22.0489 L 1336.4,-22.7593 L 1336.12,-23.546
 L 1336,-24.5026 L 1336,-58 L 1336.09,-58.8316 L 1336.35,-59.627 L 1336.76,-60.3511 L 1337.32,-60.9726
 L 1338,-61.4641 L 1338.76,-61.8042 L 1340,-62 L 1432.86,-62 L 1433.69,-61.9126 L 1434.48,-61.6542
 L 1435.21,-61.2361 L 1435.83,-60.6765 L 1436.32,-60 L 1436.66,-59.2361 L 1436.83,-58.4181 L 1436.83,-57.5819
 L 1436.66,-56.7639 L 1436.32,-56 L 1435.83,-55.3235 L 1435.21,-54.7639 L 1434.21,-54.2373 L 1341.36,-20.7399
 L 1340.55,-20.5399 L 1339.71,-20.5131 z
M 747.955,-20.5399 L 747.143,-20.7399 L 654.286,-54.2373 L 653.292,-54.7639 L 652.671,-55.3235 L 652.179,-56
 L 651.839,-56.7639 L 651.665,-57.5819 L 651.665,-58.4181 L 651.839,-59.2361 L 652.179,-60 L 652.671,-60.6765
 L 653.292,-61.2361 L 654.016,-61.6542 L 654.811,-61.9126 L 655.643,-62 L 748.5,-62 L 749.736,-61.8042
 L 750.5,-61.4641 L 751.177,-60.9726 L 751.736,-60.3511 L 752.154,-59.627 L 752.413,-58.8316 L 752.5,-58
 L 752.5,-24.5026 L 752.384,-23.546 L 752.1,-22.7593 L 751.659,-22.0489 L 751.08,-21.4457 L 750.388,-20.9762
 L 749.614,-20.6607 L 748.79,-20.5131 z
M 182.455,-20.5399 L 181.643,-20.7399 L 88.7858,-54.2373 L 87.792,-54.7639 L 87.1705,-55.3235 L 86.679,-56
 L 86.3389,-56.7639 L 86.165,-57.5819 L 86.165,-58.4181 L 86.3389,-59.2361 L 86.679,-60 L 87.1705,-60.6765
 L 87.792,-61.2361 L 88.5162,-61.6542 L 89.3115,-61.9126 L 90.1431,-62 L 183,-62 L 184.236,-61.8042
 L 185,-61.4641 L 185.677,-60.9726 L 186.236,-60.3511 L 186.654,-59.627 L 186.913,-58.8316 L 187,-58
 L 187,-24.5026 L 186.884,-23.546 L 186.6,-22.7593 L 186.159,-22.0489 L 185.58,-21.4457 L 184.888,-20.9762
 L 184.114,-20.6607 L 183.29,-20.5131 z
M 773.386,-20.6607 L 772.612,-20.9762 L 771.92,-21.4457 L 771.341,-22.0489 L 770.9,-22.7593 L 770.616,-23.546
 L 770.5,-24.5026 L 770.5,-58 L 770.587,-58.8316 L 770.846,-59.627 L 771.264,-60.3511 L 771.823,-60.9726
 L 772.5,-61.4641 L 773.264,-61.8042 L 774.5,-62 L 867.357,-62 L 868.189,-61.9126 L 868.984,-61.6542
 L 869.708,-61.2361 L 870.329,-60.6765 L 870.821,-60 L 871.161,-59.2361 L 871.335,-58.4181 L 871.335,-57.5819
 L 871.161,-56.7639 L 870.821,-56 L 870.329,-55.3235 L 869.708,-54.7639 L 868.714,-54.2373 L 775.857,-20.7399
 L 775.045,-20.5399 L 774.21,-20.5131 z
M 961.886,-20.6607 L 961.112,-20.9762 L 960.42,-21.4457 L 959.841,-22.0489 L 959.4,-22.7593 L 959.116,-23.546
 L 959,-24.5026 L 959,-58 L 959.087,-58.8316 L 959.346,-59.627 L 959.764,-60.3511 L 960.323,-60.9726
 L 961,-61.4641 L 961.764,-61.8042 L 963,-62 L 1055.86,-62 L 1056.69,-61.9126 L 1057.48,-61.6542
 L 1058.21,-61.2361 L 1058.83,-60.6765 L 1059.32,-60 L 1059.66,-59.2361 L 1059.83,-58.4181 L 1059.83,-57.5819
 L 1059.66,-56.7639 L 1059.32,-56 L 1058.83,-55.3235 L 1058.21,-54.7639 L 1057.21,-54.2373 L 964.357,-20.7399
 L 963.545,-20.5399 L 962.71,-20.5131 z
M 1150.39,-20.6607 L 1149.61,-20.9762 L 1148.92,-21.4457 L 1148.34,-22.0489 L 1147.9,-22.7593 L 1147.62,-23.546
 L 1147.5,-24.5026 L 1147.5,-58 L 1147.59,-58.8316 L 1147.85,-59.627 L 1148.26,-60.3511 L 1148.82,-60.9726
 L 1149.5,-61.4641 L 1150.26,-61.8042 L 1151.5,-62 L 1244.36,-62 L 1245.19,-61.9126 L 1245.98,-61.6542
 L 1246.71,-61.2361 L 1247.33,-60.6765 L 1247.82,-60 L 1248.16,-59.2361 L 1248.33,-58.4181 L 1248.33,-57.5819
 L 1248.16,-56.7639 L 1247.82,-56 L 1247.33,-55.3235 L 1246.71,-54.7639 L 1245.71,-54.2373 L 1152.86,-20.7399
 L 1152.05,-20.5399 L 1151.21,-20.5131 z
M 209,-18 L 207.764,-18.1958 L 207,-18.5359 L 206.323,-19.0274 L 205.764,-19.6489 L 205.346,-20.373
 L 205.087,-21.1684 L 205,-22 L 205,-55.4974 L 205.116,-56.454 L 205.4,-57.2406 L 205.841,-57.9511
 L 206.42,-58.5542 L 207.112,-59.0238 L 207.886,-59.3393 L 208.71,-59.4869 L 209.545,-59.4601 L 210.357,-59.2601
 L 303.214,-25.7627 L 304.208,-25.2361 L 304.829,-24.6765 L 305.321,-24 L 305.661,-23.2361 L 305.835,-22.4181
 L 305.835,-21.5819 L 305.661,-20.7639 L 305.321,-20 L 304.829,-19.3235 L 304.208,-18.7639 L 303.484,-18.3458
 L 302.689,-18.0874 L 301.857,-18 z
M 397.5,-18 L 396.264,-18.1958 L 395.5,-18.5359 L 394.823,-19.0274 L 394.264,-19.6489 L 393.846,-20.373
 L 393.587,-21.1684 L 393.5,-22 L 393.5,-55.4974 L 393.616,-56.454 L 393.9,-57.2406 L 394.341,-57.9511
 L 394.92,-58.5542 L 395.612,-59.0238 L 396.386,-59.3393 L 397.21,-59.4869 L 398.045,-59.4601 L 398.857,-59.2601
 L 491.714,-25.7627 L 492.708,-25.2361 L 493.329,-24.6765 L 493.821,-24 L 494.161,-23.2361 L 494.335,-22.4181
 L 494.335,-21.5819 L 494.161,-20.7639 L 493.821,-20 L 493.329,-19.3235 L 492.708,-18.7639 L 491.984,-18.3458
 L 491.189,-18.0874 L 490.357,-18 z
M 586,-18 L 584.764,-18.1958 L 584,-18.5359 L 583.323,-19.0274 L 582.764,-19.6489 L 582.346,-20.373
 L 582.087,-21.1684 L 582,-22 L 582,-55.4974 L 582.116,-56.454 L 582.4,-57.2406 L 582.841,-57.9511
 L 583.42,-58.5542 L 584.112,-59.0238 L 584.886,-59.3393 L 585.71,-59.4869 L 586.545,-59.4601 L 587.357,-59.2601
 L 680.214,-25.7627 L 681.208,-25.2361 L 681.829,-24.6765 L 682.321,-24 L 682.661,-23.2361 L 682.835,-22.4181
 L 682.835,-21.5819 L 682.661,-20.7639 L 682.321,-20 L 681.829,-19.3235 L 681.208,-18.7639 L 680.484,-18.3458
 L 679.689,-18.0874 L 678.857,-18 z
M 844.143,-18 L 843.311,-18.0874 L 842.516,-18.3458 L 841.792,-18.7639 L 841.171,-19.3235 L 840.679,-20
 L 840.339,-20.7639 L 840.165,-21.5819 L 840.165,-22.4181 L 840.339,-23.2361 L 840.679,-24 L 841.171,-24.6765
 L 841.792,-25.2361 L 842.786,-25.7627 L 935.643,-59.2601 L 936.455,-59.4601 L 937.29,-59.4869 L 938.114,-59.3393
 L 938.888,-59.0238 L 939.58,-58.5542 L 940.159,-57.9511 L 940.6,-57.2406 L 940.884,-56.454 L 941,-55.4974
 L 941,-22 L 940.913,-21.1684 L 940.654,-20.373 L 940.236,-19.6489 L 939.677,-19.0274 L 939,-18.5359
 L 938.236,-18.1958 L 937,-18 z
M 1032.64,-18 L 1031.81,-18.0874 L 1031.02,-18.3458 L 1030.29,-18.7639 L 1029.67,-19.3235 L 1029.18,-20
 L 1028.84,-20.7639 L 1028.67,-21.5819 L 1028.67,-22.4181 L 1028.84,-23.2361 L 1029.18,-24 L 1029.67,-24.6765
 L 1030.29,-25.2361 L 1031.29,-25.7627 L 1124.14,-59.2601 L 1124.95,-59.4601 L 1125.79,-59.4869 L 1126.61,-59.3393
 L 1127.39,-59.0238 L 1128.08,-58.5542 L 1128.66,-57.9511 L 1129.1,-57.2406 L 1129.38,-56.454 L 1129.5,-55.4974
 L 1129.5,-22 L 1129.41,-21.1684 L 1129.15,-20.373 L 1128.74,-19.6489 L 1128.18,-19.0274 L 1127.5,-18.5359
 L 1126.74,-18.1958 L 1125.5,-18 z
M 1221.14,-18 L 1220.31,-18.0874 L 1219.52,-18.3458 L 1218.79,-18.7639 L 1218.17,-19.3235 L 1217.68,-20
 L 1217.34,-20.7639 L 1217.17,-21.5819 L 1217.17,-22.4181 L 1217.34,-23.2361 L 1217.68,-24 L 1218.17,-24.6765
 L 1218.79,-25.2361 L 1219.79,-25.7627 L 1312.64,-59.2601 L 1313.45,-59.4601 L 1314.29,-59.4869 L 1315.11,-59.3393
 L 1315.89,-59.0238 L 1316.58,-58.5542 L 1317.16,-57.9511 L 1317.6,-57.2406 L 1317.88,-56.454 L 1318,-55.4974
 L 1318,-22 L 1317.91,-21.1684 L 1317.65,-20.373 L 1317.24,-19.6489 L 1316.68,-19.0274 L 1316,-18.5359
 L 1315.24,-18.1958 L 1314,-18 z
M 1409.64,-18 L 1408.81,-18.0874 L 1408.02,-18.3458 L 1407.29,-18.7639 L 1406.67,-19.3235 L 1406.18,-20
 L 1405.84,-20.7639 L 1405.67,-21.5819 L 1405.67,-22.4181 L 1405.84,-23.2361 L 1406.18,-24 L 1406.67,-24.6765
 L 1407.29,-25.2361 L 1408.29,-25.7627 L 1499.64,-58.719 L 1500.45,-58.919 L 1501.29,-58.9458 L 1502.11,-58.7982
 L 1502.89,-58.4827 L 1503.58,-58.0131 L 1504.16,-57.41 L 1504.6,-56.6995 L 1504.88,-55.9129 L 1505,-54.9563
 L 1505,-22 L 1504.91,-21.1684 L 1504.65,-20.373 L 1504.24,-19.6489 L 1503.68,-19.0274 L 1503,-18.5359
 L 1502.24,-18.1958 L 1501,-18 z
M 22,-18 L 20.7639,-18.1958 L 20,-18.5359 L 19.3235,-19.0274 L 18.7639,-19.6489 L 18.3458,-20.373
 L 18.0874,-21.1684 L 18,-22 L 18,-54.9563 L 18.1161,-55.9129 L 18.3998,-56.6995 L 18.8409,-57.41
 L 19.4201,-58.0131 L 20.112,-58.4827 L 20.8865,-58.7982 L 21.7096,-58.9458 L 22.5454,-58.919 L 23.3573,-58.719
 L 114.714,-25.7627 L 115.708,-25.2361 L 116.329,-24.6765 L 116.821,-24 L 117.161,-23.2361 L 117.335,-22.4181
 L 117.335,-21.5819 L 117.161,-20.7639 L 116.821,-20 L 116.329,-19.3235 L 115.708,-18.7639 L 114.984,-18.3458
 L 114.189,-18.0874 L 113.357,-18 z
" stroke="black" fill="lightgray" stroke-width="0.5"/>
</svg>
