<?xml version="1.0" standalone="no"?>
<!DOCTYPE svg PUBLIC "-//W3C//DTD SVG 1.1//EN" "http://www.w3.org/Graphics/SVG/1.1/DTD/svg11.dtd">
<svg width="1587mm" height="80mm" viewBox="0 -80 1587 80" xmlns="http://www.w3.org/2000/svg" version="1.1">
<title>OpenSCAD Model</title>
<path d="
M 1587,-80 L 0,-80 L 0,-0 L 4.95,-0 L 4.95,-6 L 5.00572,-6.53017
 L 5.17046,-7.03717 L 5.437,-7.49884 L 5.79372,-7.895 L 6.22499,-8.20836 L 6.71201,-8.42519 L 7.23344,-8.53603
 L 7.76654,-8.53603 L 8.28798,-8.42519 L 8.77499,-8.20836 L 9.20627,-7.895 L 9.56299,-7.49884 L 9.82953,-7.03717
 L 9.99426,-6.53017 L 10.05,-6 L 10.05,-0 L 201.45,-0 L 201.45,-6 L 201.506,-6.53017
 L 201.67,-7.03717 L 201.937,-7.49884 L 202.294,-7.895 L 202.725,-8.20836 L 203.212,-8.42519 L 203.733,-8.53603
 L 204.267,-8.53603 L 204.788,-8.42519 L 205.275,-8.20836 L 205.706,-7.895 L 206.063,-7.49884 L 206.33,-7.03717
 L 206.494,-6.53017 L 206.55,-6 L 206.55,-0 L 397.95,-0 L 397.95,-6 L 398.006,-6.53017
 L 398.17,-7.03717 L 398.437,-7.49884 L 398.794,-7.895 L 399.225,-8.20836 L 399.712,-8.42519 L 400.233,-8.53603
 L 400.767,-8.53603 L 401.288,-8.42519 L 401.775,-8.20836 L 402.206,-7.895 L 402.563,-7.49884 L 402.83,-7.03717
 L 402.994,-6.53017 L 403.05,-6 L 403.05,-0 L 594.45,-0 L 594.45,-6 L 594.506,-6.53017
 L 594.67,-7.03717 L 594.937,-7.49884 L 595.294,-7.895 L 595.725,-8.20836 L 596.212,-8.42519 L 596.733,-8.53603
 L 597.267,-8.53603 L 597.788,-8.42519 L 598.275,-8.20836 L 598.706,-7.895 L 599.063,-7.49884 L 599.33,-7.03717
 L 599.494,-6.53017 L 599.55,-6 L 599.55,-0 L 790.95,-0 L 790.95,-6 L 791.006,-6.53017
 L 791.17,-7.03717 L 791.437,-7.49884 L 791.794,-7.895 L 792.225,-8.20836 L 792.712,-8.42519 L 793.233,-8.53603
 L 793.767,-8.53603 L 794.288,-8.42519 L 794.775,-8.20836 L 795.206,-7.895 L 795.563,-7.49884 L 795.83,-7.03717
 L 795.994,-6.53017 L 796.05,-6 L 796.05,-0 L 987.45,-0 L 987.45,-6 L 987.506,-6.53017
 L 987.67,-7.03717 L 987.937,-7.49884 L 988.294,-7.895 L 988.725,-8.20836 L 989.212,-8.42519 L 989.733,-8.53603
 L 990.267,-8.53603 L 990.788,-8.42519 L 991.275,-8.20836 L 991.706,-7.895 L 992.063,-7.49884 L 992.33,-7.03717
 L 992.494,-6.53017 L 992.55,-6 L 992.55,-0 L 1183.95,-0 L 1183.95,-6 L 1184.01,-6.53017
 L 1184.17,-7.03717 L 1184.44,-7.49884 L 1184.79,-7.895 L 1185.22,-8.20836 L 1185.71,-8.42519 L 1186.23,-8.53603
 L 1186.77,-8.53603 L 1187.29,-8.42519 L 1187.77,-8.20836 L 1188.21,-7.895 L 1188.56,-7.49884 L 1188.83,-7.03717
 L 1188.99,-6.53017 L 1189.05,-6 L 1189.05,-0 L 1380.45,-0 L 1380.45,-6 L 1380.51,-6.53017
 L 1380.67,-7.03717 L 1380.94,-7.49884 L 1381.29,-7.895 L 1381.72,-8.20836 L 1382.21,-8.42519 L 1382.73,-8.53603
 L 1383.27,-8.53603 L 1383.79,-8.42519 L 1384.27,-8.20836 L 1384.71,-7.895 L 1385.06,-7.49884 L 1385.33,-7.03717
 L 1385.49,-6.53017 L 1385.55,-6 L 1385.55,-0 L 1576.95,-0 L 1576.95,-6 L 1577.01,-6.53017
 L 1577.17,-7.03717 L 1577.44,-7.49884 L 1577.79,-7.895 L 1578.22,-8.20836 L 1578.71,-8.42519 L 1579.23,-8.53603
 L 1579.77,-8.53603 L 1580.29,-8.42519 L 1580.77,-8.20836 L 1581.21,-7.895 L 1581.56,-7.49884 L 1581.83,-7.03717
 L 1581.99,-6.53017 L 1582.05,-6 L 1582.05,-0 L 1587,-0 z
M 203.486,-55.607 L 202.977,-55.6875 L 202.48,-55.8208 L 201.999,-56.0054 L 201.54,-56.2392 L 201.108,-56.5196
 L 200.708,-56.8437 L 200.344,-57.2079 L 200.02,-57.6081 L 199.739,-58.04 L 199.505,-58.4989 L 199.321,-58.9796
 L 199.188,-59.4771 L 199.107,-59.9857 L 199.08,-60.5 L 199.107,-61.0143 L 199.188,-61.5229 L 199.321,-62.0204
 L 199.505,-62.5011 L 199.739,-62.96 L 200.02,-63.3919 L 200.344,-63.7921 L 200.708,-64.1563 L 201.108,-64.4804
 L 201.45,-64.7024 L 201.45,-74 L 201.506,-74.5302 L 201.67,-75.0372 L 201.937,-75.4988 L 202.294,-75.895
 L 202.725,-76.2084 L 203.212,-76.4252 L 203.733,-76.536 L 204.267,-76.536 L 204.788,-76.4252 L 205.275,-76.2084
 L 205.706,-75.895 L 206.063,-75.4988 L 206.33,-75.0372 L 206.494,-74.5302 L 206.55,-74 L 206.55,-64.7024
 L 206.892,-64.4804 L 207.292,-64.1563 L 207.656,-63.7921 L 207.98,-63.3919 L 208.261,-62.96 L 208.495,-62.5011
 L 208.679,-62.0204 L 208.812,-61.5229 L 208.893,-61.0143 L 208.92,-60.5 L 208.893,-59.9857 L 208.812,-59.4771
 L 208.679,-58.9796 L 208.495,-58.4989 L 208.261,-58.04 L 207.98,-57.6081 L 207.656,-57.2079 L 207.292,-56.8437
 L 206.892,-56.5196 L 206.46,-56.2392 L 206.001,-56.0054 L 205.52,-55.8208 L 205.023,-55.6875 L 204.514,-55.607
 L 204,-55.58 z
M 1185.99,-55.607 L 1185.48,-55.6875 L 1184.98,-55.8208 L 1184.5,-56.0054 L 1184.04,-56.2392 L 1183.61,-56.5196
 L 1183.21,-56.8437 L 1182.84,-57.2079 L 1182.52,-57.6081 L 1182.24,-58.04 L 1182.01,-58.4989 L 1181.82,-58.9796
 L 1181.69,-59.4771 L 1181.61,-59.9857 L 1181.58,-60.5 L 1181.61,-61.0143 L 1181.69,-61.5229 L 1181.82,-62.0204
 L 1182.01,-62.5011 L 1182.24,-62.96 L 1182.52,-63.3919 L 1182.84,-63.7921 L 1183.21,-64.1563 L 1183.61,-64.4804
 L 1183.95,-64.7024 L 1183.95,-74 L 1184.01,-74.5302 L 1184.17,-75.0372 L 1184.44,-75.4988 L 1184.79,-75.895
 L 1185.23,-76.2084 L 1185.71,-76.4252 L 1186.23,-76.536 L 1186.77,-76.536 L 1187.29,-76.4252 L 1187.77,-76.2084
 L 1188.21,-75.895 L 1188.56,-75.4988 L 1188.83,-75.0372 L 1188.99,-74.5302 L 1189.05,-74 L 1189.05,-64.7024
 L 1189.39,-64.4804 L 1189.79,-64.1563 L 1190.16,-63.7921 L 1190.48,-63.3919 L 1190.76,-62.96 L 1190.99,-62.5011
 L 1191.18,-62.0204 L 1191.31,-61.5229 L 1191.39,-61.0143 L 1191.42,-60.5 L 1191.39,-59.9857 L 1191.31,-59.4771
 L 1191.18,-58.9796 L 1190.99,-58.4989 L 1190.76,-58.04 L 1190.48,-57.6081 L 1190.16,-57.2079 L 1189.79,-56.8437
 L 1189.39,-56.5196 L 1188.96,-56.2392 L 1188.5,-56.0054 L 1188.02,-55.8208 L 1187.52,-55.6875 L 1187.01,-55.607
 L 1186.5,-55.58 z
M 989.486,-55.607 L 988.977,-55.6875 L 988.48,-55.8208 L 987.999,-56.0054 L 987.54,-56.2392 L 987.108,-56.5196
 L 986.708,-56.8437 L 986.344,-57.2079 L 986.02,-57.6081 L 985.739,-58.04 L 985.505,-58.4989 L 985.321,-58.9796
 L 985.188,-59.4771 L 985.107,-59.9857 L 985.08,-60.5 L 985.107,-61.0143 L 985.188,-61.5229 L 985.321,-62.0204
 L 985.505,-62.5011 L 985.739,-62.96 L 986.02,-63.3919 L 986.344,-63.7921 L 986.708,-64.1563 L 987.108,-64.4804
 L 987.45,-64.7024 L 987.45,-74 L 987.506,-74.5302 L 987.67,-75.0372 L 987.937,-75.4988 L 988.294,-75.895
 L 988.725,-76.2084 L 989.212,-76.4252 L 989.733,-76.536 L 990.267,-76.536 L 990.788,-76.4252 L 991.275,-76.2084
 L 991.706,-75.895 L 992.063,-75.4988 L 992.33,-75.0372 L 992.494,-74.5302 L 992.55,-74 L 992.55,-64.7024
 L 992.892,-64.4804 L 993.292,-64.1563 L 993.656,-63.7921 L 993.98,-63.3919 L 994.261,-62.96 L 994.495,-62.5011
 L 994.679,-62.0204 L 994.812,-61.5229 L 994.893,-61.0143 L 994.92,-60.5 L 994.893,-59.9857 L 994.812,-59.4771
 L 994.679,-58.9796 L 994.495,-58.4989 L 994.261,-58.04 L 993.98,-57.6081 L 993.656,-57.2079 L 993.292,-56.8437
 L 992.892,-56.5196 L 992.46,-56.2392 L 992.001,-56.0054 L 991.52,-55.8208 L 991.023,-55.6875 L 990.514,-55.607
 L 990,-55.58 z
M 6.98573,-55.607 L 6.47708,-55.6875 L 5.97964,-55.8208 L 5.49887,-56.0054 L 5.04001,-56.2392 L 4.60811,-56.5196
 L 4.20789,-56.8437 L 3.84373,-57.2079 L 3.51964,-57.6081 L 3.23917,-58.04 L 3.00537,-58.4989 L 2.82082,-58.9796
 L 2.68752,-59.4771 L 2.60696,-59.9857 L 2.58,-60.5 L 2.60696,-61.0143 L 2.68752,-61.5229 L 2.82082,-62.0204
 L 3.00537,-62.5011 L 3.23917,-62.96 L 3.51964,-63.3919 L 3.84373,-63.7921 L 4.20789,-64.1563 L 4.60811,-64.4804
 L 4.95001,-64.7024 L 4.95001,-74 L 5.00574,-74.5302 L 5.17047,-75.0372 L 5.43701,-75.4988 L 5.79373,-75.895
 L 6.22501,-76.2084 L 6.71202,-76.4252 L 7.23346,-76.536 L 7.76654,-76.536 L 8.28798,-76.4252 L 8.77499,-76.2084
 L 9.20627,-75.895 L 9.56299,-75.4988 L 9.82953,-75.0372 L 9.99426,-74.5302 L 10.05,-74 L 10.05,-64.7024
 L 10.3919,-64.4804 L 10.7921,-64.1563 L 11.1563,-63.7921 L 11.4804,-63.3919 L 11.7608,-62.96 L 11.9946,-62.5011
 L 12.1792,-62.0204 L 12.3125,-61.5229 L 12.393,-61.0143 L 12.42,-60.5 L 12.393,-59.9857 L 12.3125,-59.4771
 L 12.1792,-58.9796 L 11.9946,-58.4989 L 11.7608,-58.04 L 11.4804,-57.6081 L 11.1563,-57.2079 L 10.7921,-56.8437
 L 10.3919,-56.5196 L 9.95999,-56.2392 L 9.50113,-56.0054 L 9.02036,-55.8208 L 8.52292,-55.6875 L 8.01427,-55.607
 L 7.5,-55.58 z
M 792.986,-55.607 L 792.477,-55.6875 L 791.98,-55.8208 L 791.499,-56.0054 L 791.04,-56.2392 L 790.608,-56.5196
 L 790.208,-56.8437 L 789.844,-57.2079 L 789.52,-57.6081 L 789.239,-58.04 L 789.005,-58.4989 L 788.821,-58.9796
 L 788.688,-59.4771 L 788.607,-59.9857 L 788.58,-60.5 L 788.607,-61.0143 L 788.688,-61.5229 L 788.821,-62.0204
 L 789.005,-62.5011 L 789.239,-62.96 L 789.52,-63.3919 L 789.844,-63.7921 L 790.208,-64.1563 L 790.608,-64.4804
 L 790.95,-64.7024 L 790.95,-74 L 791.006,-74.5302 L 791.17,-75.0372 L 791.437,-75.4988 L 791.794,-75.895
 L 792.225,-76.2084 L 792.712,-76.4252 L 793.233,-76.536 L 793.767,-76.536 L 794.288,-76.4252 L 794.775,-76.2084
 L 795.206,-75.895 L 795.563,-75.4988 L 795.83,-75.0372 L 795.994,-74.5302 L 796.05,-74 L 796.05,-64.7024
 L 796.392,-64.4804 L 796.792,-64.1563 L 797.156,-63.7921 L 797.48,-63.3919 L 797.761,-62.96 L 797.995,-62.5011
 L 798.179,-62.0204 L 798.312,-61.5229 L 798.393,-61.0143 L 798.42,-60.5 L 798.393,-59.9857 L 798.312,-59.4771
 L 798.179,-58.9796 L 797.995,-58.4989 L 797.761,-58.04 L 797.48,-57.6081 L 797.156,-57.2079 L 796.792,-56.8437
 L 796.392,-56.5196 L 795.96,-56.2392 L 795.501,-56.0054 L 795.02,-55.8208 L 794.523,-55.6875 L 794.014,-55.607
 L 793.5,-55.58 z
M 1382.49,-55.607 L 1381.98,-55.6875 L 1381.48,-55.8208 L 1381,-56.0054 L 1380.54,-56.2392 L 1380.11,-56.5196
 L 1379.71,-56.8437 L 1379.34,-57.2079 L 1379.02,-57.6081 L 1378.74,-58.04 L 1378.51,-58.4989 L 1378.32,-58.9796
 L 1378.19,-59.4771 L 1378.11,-59.9857 L 1378.08,-60.5 L 1378.11,-61.0143 L 1378.19,-61.5229 L 1378.32,-62.0204
 L 1378.51,-62.5011 L 1378.74,-62.96 L 1379.02,-63.3919 L 1379.34,-63.7921 L 1379.71,-64.1563 L 1380.11,-64.4804
 L 1380.45,-64.7024 L 1380.45,-74 L 1380.51,-74.5302 L 1380.67,-75.0372 L 1380.94,-75.4988 L 1381.29,-75.895
 L 1381.73,-76.2084 L 1382.21,-76.4252 L 1382.73,-76.536 L 1383.27,-76.536 L 1383.79,-76.4252 L 1384.27,-76.2084
 L 1384.71,-75.895 L 1385.06,-75.4988 L 1385.33,-75.0372 L 1385.49,-74.5302 L 1385.55,-74 L 1385.55,-64.7024
 L 1385.89,-64.4804 L 1386.29,-64.1563 L 1386.66,-63.7921 L 1386.98,-63.3919 L 1387.26,-62.96 L 1387.49,-62.5011
 L 1387.68,-62.0204 L 1387.81,-61.5229 L 1387.89,-61.0143 L 1387.92,-60.5 L 1387.89,-59.9857 L 1387.81,-59.4771
 L 1387.68,-58.9796 L 1387.49,-58.4989 L 1387.26,-58.04 L 1386.98,-57.6081 L 1386.66,-57.2079 L 1386.29,-56.8437
 L 1385.89,-56.5196 L 1385.46,-56.2392 L 1385,-56.0054 L 1384.52,-55.8208 L 1384.02,-55.6875 L 1383.51,-55.607
 L 1383,-55.58 z
M 596.486,-55.607 L 595.977,-55.6875 L 595.48,-55.8208 L 594.999,-56.0054 L 594.54,-56.2392 L 594.108,-56.5196
 L 593.708,-56.8437 L 593.344,-57.2079 L 593.02,-57.6081 L 592.739,-58.04 L 592.505,-58.4989 L 592.321,-58.9796
 L 592.188,-59.4771 L 592.107,-59.9857 L 592.08,-60.5 L 592.107,-61.0143 L 592.188,-61.5229 L 592.321,-62.0204
 L 592.505,-62.5011 L 592.739,-62.96 L 593.02,-63.3919 L 593.344,-63.7921 L 593.708,-64.1563 L 594.108,-64.4804
 L 594.45,-64.7024 L 594.45,-74 L 594.506,-74.5302 L 594.67,-75.0372 L 594.937,-75.4988 L 595.294,-75.895
 L 595.725,-76.2084 L 596.212,-76.4252 L 596.733,-76.536 L 597.267,-76.536 L 597.788,-76.4252 L 598.275,-76.2084
 L 598.706,-75.895 L 599.063,-75.4988 L 599.33,-75.0372 L 599.494,-74.5302 L 599.55,-74 L 599.55,-64.7024
 L 599.892,-64.4804 L 600.292,-64.1563 L 600.656,-63.7921 L 600.98,-63.3919 L 601.261,-62.96 L 601.495,-62.5011
 L 601.679,-62.0204 L 601.812,-61.5229 L 601.893,-61.0143 L 601.92,-60.5 L 601.893,-59.9857 L 601.812,-59.4771
 L 601.679,-58.9796 L 601.495,-58.4989 L 601.261,-58.04 L 600.98,-57.6081 L 600.656,-57.2079 L 600.292,-56.8437
 L 599.892,-56.5196 L 599.46,-56.2392 L 599.001,-56.0054 L 598.52,-55.8208 L 598.023,-55.6875 L 597.514,-55.607
 L 597,-55.58 z
M 399.986,-55.607 L 399.477,-55.6875 L 398.98,-55.8208 L 398.499,-56.0054 L 398.04,-56.2392 L 397.608,-56.5196
 L 397.208,-56.8437 L 396.844,-57.2079 L 396.52,-57.6081 L 396.239,-58.04 L 396.005,-58.4989 L 395.821,-58.9796
 L 395.688,-59.4771 L 395.607,-59.9857 L 395.58,-60.5 L 395.607,-61.0143 L 395.688,-61.5229 L 395.821,-62.0204
 L 396.005,-62.5011 L 396.239,-62.96 L 396.52,-63.3919 L 396.844,-63.7921 L 397.208,-64.1563 L 397.608,-64.4804
 L 397.95,-64.7024 L 397.95,-74 L 398.006,-74.5302 L 398.17,-75.0372 L 398.437,-75.4988 L 398.794,-75.895
 L 399.225,-76.2084 L 399.712,-76.4252 L 400.233,-76.536 L 400.767,-76.536 L 401.288,-76.4252 L 401.775,-76.2084
 L 402.206,-75.895 L 402.563,-75.4988 L 402.83,-75.0372 L 402.994,-74.5302 L 403.05,-74 L 403.05,-64.7024
 L 403.392,-64.4804 L 403.792,-64.1563 L 404.156,-63.7921 L 404.48,-63.3919 L 404.761,-62.96 L 404.995,-62.5011
 L 405.179,-62.0204 L 405.312,-61.5229 L 405.393,-61.0143 L 405.42,-60.5 L 405.393,-59.9857 L 405.312,-59.4771
 L 405.179,-58.9796 L 404.995,-58.4989 L 404.761,-58.04 L 404.48,-57.6081 L 404.156,-57.2079 L 403.792,-56.8437
 L 403.392,-56.5196 L 402.96,-56.2392 L 402.501,-56.0054 L 402.02,-55.8208 L 401.523,-55.6875 L 401.014,-55.607
 L 400.5,-55.58 z
M 1578.99,-55.607 L 1578.48,-55.6875 L 1577.98,-55.8208 L 1577.5,-56.0054 L 1577.04,-56.2392 L 1576.61,-56.5196
 L 1576.21,-56.8437 L 1575.84,-57.2079 L 1575.52,-57.6081 L 1575.24,-58.04 L 1575.01,-58.4989 L 1574.82,-58.9796
 L 1574.69,-59.4771 L 1574.61,-59.9857 L 1574.58,-60.5 L 1574.61,-61.0143 L 1574.69,-61.5229 L 1574.82,-62.0204
 L 1575.01,-62.5011 L 1575.24,-62.96 L 1575.52,-63.3919 L 1575.84,-63.7921 L 1576.21,-64.1563 L 1576.61,-64.4804
 L 1576.95,-64.7024 L 1576.95,-74 L 1577.01,-74.5302 L 1577.17,-75.0372 L 1577.44,-75.4988 L 1577.79,-75.895
 L 1578.23,-76.2084 L 1578.71,-76.4252 L 1579.23,-76.536 L 1579.77,-76.536 L 1580.29,-76.4252 L 1580.77,-76.2084
 L 1581.21,-75.895 L 1581.56,-75.4988 L 1581.83,-75.0372 L 1581.99,-74.5302 L 1582.05,-74 L 1582.05,-64.7024
 L 1582.39,-64.4804 L 1582.79,-64.1563 L 1583.16,-63.7921 L 1583.48,-63.3919 L 1583.76,-62.96 L 1583.99,-62.5011
 L 1584.18,-62.0204 L 1584.31,-61.5229 L 1584.39,-61.0143 L 1584.42,-60.5 L 1584.39,-59.9857 L 1584.31,-59.4771
 L 1584.18,-58.9796 L 1583.99,-58.4989 L 1583.76,-58.04 L 1583.48,-57.6081 L 1583.16,-57.2079 L 1582.79,-56.8437
 L 1582.39,-56.5196 L 1581.96,-56.2392 L 1581.5,-56.0054 L 1581.02,-55.8208 L 1580.52,-55.6875 L 1580.01,-55.607
 L 1579.5,-55.58 z
M 387.006,-20.2832 L 386.192,-20.4726 L 288.672,-54.2199 L 287.629,-54.7639 L 287.007,-55.3235 L 286.516,-56
 L 286.176,-56.7639 L 286.002,-57.5819 L 286.002,-58.4181 L 286.176,-59.2361 L 286.516,-60 L 287.007,-60.6765
 L 287.629,-61.2361 L 288.353,-61.6542 L 289.148,-61.9126 L 289.98,-62 L 387.5,-62 L 388.736,-61.8042
 L 389.5,-61.4641 L 390.177,-60.9726 L 390.736,-60.3511 L 391.154,-59.627 L 391.413,-58.8316 L 391.5,-58
 L 391.5,-24.2526 L 391.396,-23.3468 L 391.123,-22.5565 L 390.691,-21.8404 L 390.12,-21.2297 L 389.434,-20.7512
 L 388.664,-20.4256 L 387.842,-20.2673 z
M 583.506,-20.2832 L 582.692,-20.4726 L 485.172,-54.2199 L 484.129,-54.7639 L 483.507,-55.3235 L 483.016,-56
 L 482.676,-56.7639 L 482.502,-57.5819 L 482.502,-58.4181 L 482.676,-59.2361 L 483.016,-60 L 483.507,-60.6765
 L 484.129,-61.2361 L 484.853,-61.6542 L 485.648,-61.9126 L 486.48,-62 L 584,-62 L 585.236,-61.8042
 L 586,-61.4641 L 586.677,-60.9726 L 587.236,-60.3511 L 587.654,-59.627 L 587.913,-58.8316 L 588,-58
 L 588,-24.2526 L 587.896,-23.3468 L 587.623,-22.5565 L 587.191,-21.8404 L 586.62,-21.2297 L 585.934,-20.7512
 L 585.164,-20.4256 L 584.342,-20.2673 z
M 1394.84,-20.4256 L 1394.07,-20.7512 L 1393.38,-21.2297 L 1392.81,-21.8404 L 1392.38,-22.5565 L 1392.1,-23.3468
 L 1392,-24.2526 L 1392,-58 L 1392.09,-58.8316 L 1392.35,-59.627 L 1392.76,-60.3511 L 1393.32,-60.9726
 L 1394,-61.4641 L 1394.76,-61.8042 L 1396,-62 L 1493.52,-62 L 1494.35,-61.9126 L 1495.15,-61.6542
 L 1495.87,-61.2361 L 1496.49,-60.6765 L 1496.98,-60 L 1497.32,-59.2361 L 1497.5,-58.4181 L 1497.5,-57.5819
 L 1497.32,-56.7639 L 1496.98,-56 L 1496.49,-55.3235 L 1495.87,-54.7639 L 1494.83,-54.2199 L 1397.31,-20.4726
 L 1396.49,-20.2832 L 1395.66,-20.2673 z
M 780.006,-20.2832 L 779.192,-20.4726 L 681.672,-54.2199 L 680.629,-54.7639 L 680.007,-55.3235 L 679.516,-56
 L 679.176,-56.7639 L 679.002,-57.5819 L 679.002,-58.4181 L 679.176,-59.2361 L 679.516,-60 L 680.007,-60.6765
 L 680.629,-61.2361 L 681.353,-61.6542 L 682.148,-61.9126 L 682.98,-62 L 780.5,-62 L 781.736,-61.8042
 L 782.5,-61.4641 L 783.177,-60.9726 L 783.736,-60.3511 L 784.154,-59.627 L 784.413,-58.8316 L 784.5,-58
 L 784.5,-24.2526 L 784.396,-23.3468 L 784.123,-22.5565 L 783.691,-21.8404 L 783.12,-21.2297 L 782.434,-20.7512
 L 781.664,-20.4256 L 780.842,-20.2673 z
M 190.506,-20.2832 L 189.692,-20.4726 L 92.1719,-54.2199 L 91.1289,-54.7639 L 90.5074,-55.3235 L 90.0159,-56
 L 89.6758,-56.7639 L 89.5019,-57.5819 L 89.5019,-58.4181 L 89.6758,-59.2361 L 90.0159,-60 L 90.5074,-60.6765
 L 91.1289,-61.2361 L 91.8531,-61.6542 L 92.6484,-61.9126 L 93.48,-62 L 191,-62 L 192.236,-61.8042
 L 193,-61.4641 L 193.677,-60.9726 L 194.236,-60.3511 L 194.654,-59.627 L 194.913,-58.8316 L 195,-58
 L 195,-24.2526 L 194.896,-23.3468 L 194.623,-22.5565 L 194.191,-21.8404 L 193.62,-21.2297 L 192.934,-20.7512
 L 192.164,-20.4256 L 191.342,-20.2673 z
M 805.336,-20.4256 L 804.566,-20.7512 L 803.88,-21.2297 L 803.309,-21.8404 L 802.877,-22.5565 L 802.604,-23.3468
 L 802.5,-24.2526 L 802.5,-58 L 802.587,-58.8316 L 802.846,-59.627 L 803.264,-60.3511 L 803.823,-60.9726
 L 804.5,-61.4641 L 805.264,-61.8042 L 806.5,-62 L 904.02,-62 L 904.852,-61.9126 L 905.647,-61.6542
 L 906.371,-61.2361 L 906.993,-60.6765 L 907.484,-60 L 907.824,-59.2361 L 907.998,-58.4181 L 907.998,-57.5819
 L 907.824,-56.7639 L 907.484,-56 L 906.993,-55.3235 L 906.371,-54.7639 L 905.328,-54.2199 L 807.808,-20.4726
 L 806.994,-20.2832 L 806.158,-20.2673 z
M 1001.84,-20.4256 L 1001.07,-20.7512 L 1000.38,-21.2297 L 999.809,-21.8404 L 999.377,-22.5565 L 999.104,-23.3468
 L 999,-24.2526 L 999,-58 L 999.087,-58.8316 L 999.346,-59.627 L 999.764,-60.3511 L 1000.32,-60.9726
 L 1001,-61.4641 L 1001.76,-61.8042 L 1003,-62 L 1100.52,-62 L 1101.35,-61.9126 L 1102.15,-61.6542
 L 1102.87,-61.2361 L 1103.49,-60.6765 L 1103.98,-60 L 1104.32,-59.2361 L 1104.5,-58.4181 L 1104.5,-57.5819
 L 1104.32,-56.7639 L 1103.98,-56 L 1103.49,-55.3235 L 1102.87,-54.7639 L 1101.83,-54.2199 L 1004.31,-20.4726
 L 1003.49,-20.2832 L 1002.66,-20.2673 z
M 1198.34,-20.4256 L 1197.57,-20.7512 L 1196.88,-21.2297 L 1196.31,-21.8404 L 1195.88,-22.5565 L 1195.6,-23.3468
 L 1195.5,-24.2526 L 1195.5,-58 L 1195.59,-58.8316 L 1195.85,-59.627 L 1196.26,-60.3511 L 1196.82,-60.9726
 L 1197.5,-61.4641 L 1198.26,-61.8042 L 1199.5,-62 L 1297.02,-62 L 1297.85,-61.9126 L 1298.65,-61.6542
 L 1299.37,-61.2361 L 1299.99,-60.6765 L 1300.48,-60 L 1300.82,-59.2361 L 1301,-58.4181 L 1301,-57.5819
 L 1300.82,-56.7639 L 1300.48,-56 L 1299.99,-55.3235 L 1299.37,-54.7639 L 1298.33,-54.2199 L 1200.81,-20.4726
 L 1199.99,-20.2832 L 1199.16,-20.2673 z
M 217,-18 L 215.764,-18.1958 L 215,-18.5359 L 214.323,-19.0274 L 213.764,-19.6489 L 213.346,-20.373
 L 213.087,-21.1684 L 213,-22 L 213,-55.7474 L 213.104,-56.6532 L 213.377,-57.4434 L 213.809,-58.1595
 L 214.38,-58.7702 L 215.066,-59.2488 L 215.836,-59.5744 L 216.658,-59.7327 L 217.494,-59.7168 L 218.308,-59.5274
 L 315.828,-25.7801 L 316.871,-25.2361 L 317.493,-24.6765 L 317.984,-24 L 318.324,-23.2361 L 318.498,-22.4181
 L 318.498,-21.5819 L 318.324,-20.7639 L 317.984,-20 L 317.493,-19.3235 L 316.871,-18.7639 L 316.147,-18.3458
 L 315.352,-18.0874 L 314.52,-18 z
M 413.5,-18 L 412.264,-18.1958 L 411.5,-18.5359 L 410.823,-19.0274 L 410.264,-19.6489 L 409.846,-20.373
 L 409.587,-21.1684 L 409.5,-22 L 409.5,-55.7474 L 409.604,-56.6532 L 409.877,-57.4434 L 410.309,-58.1595
 L 410.88,-58.7702 L 411.566,-59.2488 L 412.336,-59.5744 L 413.158,-59.7327 L 413.994,-59.7168 L 414.808,-59.5274
 L 512.328,-25.7801 L 513.371,-25.2361 L 513.993,-24.6765 L 514.484,-24 L 514.824,-23.2361 L 514.998,-22.4181
 L 514.998,-21.5819 L 514.824,-20.7639 L 514.484,-20 L 513.993,-19.3235 L 513.371,-18.7639 L 512.647,-18.3458
 L 511.852,-18.0874 L 511.02,-18 z
M 610,-18 L 608.764,-18.1958 L 608,-18.5359 L 607.323,-19.0274 L 606.764,-19.6489 L 606.346,-20.373
 L 606.087,-21.1684 L 606,-22 L 606,-55.7474 L 606.104,-56.6532 L 606.377,-57.4434 L 606.809,-58.1595
 L 607.38,-58.7702 L 608.066,-59.2488 L 608.836,-59.5744 L 609.658,-59.7327 L 610.494,-59.7168 L 611.308,-59.5274
 L 708.828,-25.7801 L 709.871,-25.2361 L 710.493,-24.6765 L 710.984,-24 L 711.324,-23.2361 L 711.498,-22.4181
 L 711.498,-21.5819 L 711.324,-20.7639 L 710.984,-20 L 710.493,-19.3235 L 709.871,-18.7639 L 709.147,-18.3458
 L 708.352,-18.0874 L 707.52,-18 z
M 879.48,-18 L 878.648,-18.0874 L 877.853,-18.3458 L 877.129,-18.7639 L 876.507,-19.3235 L 876.016,-20
 L 875.676,-20.7639 L 875.502,-21.5819 L 875.502,-22.4181 L 875.676,-23.2361 L 876.016,-24 L 876.507,-24.6765
 L 877.129,-25.2361 L 878.172,-25.7801 L 975.692,-59.5274 L 976.506,-59.7168 L 977.342,-59.7327 L 978.164,-59.5744
 L 978.934,-59.2488 L 979.62,-58.7702 L 980.191,-58.1595 L 980.623,-57.4434 L 980.896,-56.6532 L 981,-55.7474
 L 981,-22 L 980.913,-21.1684 L 980.654,-20.373 L 980.236,-19.6489 L 979.677,-19.0274 L 979,-18.5359
 L 978.236,-18.1958 L 977,-18 z
M 1075.98,-18 L 1075.15,-18.0874 L 1074.35,-18.3458 L 1073.63,-18.7639 L 1073.01,-19.3235 L 1072.52,-20
 L 1072.18,-20.7639 L 1072,-21.5819 L 1072,-22.4181 L 1072.18,-23.2361 L 1072.52,-24 L 1073.01,-24.6765
 L 1073.63,-25.2361 L 1074.67,-25.7801 L 1172.19,-59.5274 L 1173.01,-59.7168 L 1173.84,-59.7327 L 1174.66,-59.5744
 L 1175.43,-59.2488 L 1176.12,-58.7702 L 1176.69,-58.1595 L 1177.12,-57.4434 L 1177.4,-56.6532 L 1177.5,-55.7474
 L 1177.5,-22 L 1177.41,-21.1684 L 1177.15,-20.373 L 1176.74,-19.6489 L 1176.18,-19.0274 L 1175.5,-18.5359
 L 1174.74,-18.1958 L 1173.5,-18 z
M 1272.48,-18 L 1271.65,-18.0874 L 1270.85,-18.3458 L 1270.13,-18.7639 L 1269.51,-19.3235 L 1269.02,-20
 L 1268.68,-20.7639 L 1268.5,-21.5819 L 1268.5,-22.4181 L 1268.68,-23.2361 L 1269.02,-24 L 1269.51,-24.6765
 L 1270.13,-25.2361 L 1271.17,-25.7801 L 1368.69,-59.5274 L 1369.51,-59.7168 L 1370.34,-59.7327 L 1371.16,-59.5744
 L 1371.93,-59.2488 L 1372.62,-58.7702 L 1373.19,-58.1595 L 1373.62,-57.4434 L 1373.9,-56.6532 L 1374,-55.7474
 L 1374,-22 L 1373.91,-21.1684 L 1373.65,-20.373 L 1373.24,-19.6489 L 1372.68,-19.0274 L 1372,-18.5359
 L 1371.24,-18.1958 L 1370,-18 z
M 1468.98,-18 L 1468.15,-18.0874 L 1467.35,-18.3458 L 1466.63,-18.7639 L 1466.01,-19.3235 L 1465.52,-20
 L 1465.18,-20.7639 L 1465,-21.5819 L 1465,-22.4181 L 1465.18,-23.2361 L 1465.52,-24 L 1466.01,-24.6765
 L 1466.63,-25.2361 L 1467.67,-25.7801 L 1563.69,-59.0083 L 1564.51,-59.1977 L 1565.34,-59.2136 L 1566.16,-59.0553
 L 1566.93,-58.7297 L 1567.62,-58.2512 L 1568.19,-57.6405 L 1568.62,-56.9243 L 1568.9,-56.1341 L 1569,-55.2283
 L 1569,-22 L 1568.91,-21.1684 L 1568.65,-20.373 L 1568.24,-19.6489 L 1567.68,-19.0274 L 1567,-18.5359
 L 1566.24,-18.1958 L 1565,-18 z
M 22,-18 L 20.7639,-18.1958 L 20,-18.5359 L 19.3235,-19.0274 L 18.7639,-19.6489 L 18.3458,-20.373
 L 18.0874,-21.1684 L 18,-22 L 18,-55.2283 L 18.1039,-56.1341 L 18.3774,-56.9243 L 18.8092,-57.6405
 L 19.3804,-58.2512 L 20.0662,-58.7297 L 20.8364,-59.0553 L 21.6575,-59.2136 L 22.4936,-59.1977 L 23.3081,-59.0083
 L 119.328,-25.7801 L 120.371,-25.2361 L 120.993,-24.6765 L 121.484,-24 L 121.824,-23.2361 L 121.998,-22.4181
 L 121.998,-21.5819 L 121.824,-20.7639 L 121.484,-20 L 120.993,-19.3235 L 120.371,-18.7639 L 119.647,-18.3458
 L 118.852,-18.0874 L 118.02,-18 z
" stroke="black" fill="lightgray" stroke-width="0.5"/>
</svg>
