<?xml version="1.0" standalone="no"?>
<!DOCTYPE svg PUBLIC "-//W3C//DTD SVG 1.1//EN" "http://www.w3.org/Graphics/SVG/1.1/DTD/svg11.dtd">
<svg width="1357mm" height="80mm" viewBox="0 -80 1357 80" xmlns="http://www.w3.org/2000/svg" version="1.1">
<title>OpenSCAD Model</title>
<path d="
M 1357,-80 L 0,-80 L 0,-0 L 4.95,-0 L 4.95,-6 L 5.00572,-6.53017
 L 5.17046,-7.03717 L 5.437,-7.49884 L 5.79372,-7.895 L 6.22499,-8.20836 L 6.71201,-8.42519 L 7.23344,-8.53603
 L 7.76654,-8.53603 L 8.28798,-8.42519 L 8.77499,-8.20836 L 9.20627,-7.895 L 9.56299,-7.49884 L 9.82953,-7.03717
 L 9.99426,-6.53017 L 10.05,-6 L 10.05,-0 L 196.664,-0 L 196.664,-6 L 196.72,-6.53017
 L 196.885,-7.03717 L 197.151,-7.49884 L 197.508,-7.895 L 197.939,-8.20836 L 198.426,-8.42519 L 198.948,-8.53603
 L 199.481,-8.53603 L 200.002,-8.42519 L 200.489,-8.20836 L 200.921,-7.895 L 201.277,-7.49884 L 201.544,-7.03717
 L 201.709,-6.53017 L 201.764,-6 L 201.764,-0 L 388.379,-0 L 388.379,-6 L 388.434,-6.53017
 L 388.599,-7.03717 L 388.866,-7.49884 L 389.222,-7.895 L 389.654,-8.20836 L 390.141,-8.42519 L 390.662,-8.53603
 L 391.195,-8.53603 L 391.717,-8.42519 L 392.204,-8.20836 L 392.635,-7.895 L 392.992,-7.49884 L 393.258,-7.03717
 L 393.423,-6.53017 L 393.479,-6 L 393.479,-0 L 580.093,-0 L 580.093,-6 L 580.149,-6.53017
 L 580.313,-7.03717 L 580.58,-7.49884 L 580.937,-7.895 L 581.368,-8.20836 L 581.855,-8.42519 L 582.376,-8.53603
 L 582.909,-8.53603 L 583.431,-8.42519 L 583.918,-8.20836 L 584.349,-7.895 L 584.706,-7.49884 L 584.972,-7.03717
 L 585.137,-6.53017 L 585.193,-6 L 585.193,-0 L 771.807,-0 L 771.807,-6 L 771.863,-6.53017
 L 772.028,-7.03717 L 772.294,-7.49884 L 772.651,-7.895 L 773.082,-8.20836 L 773.569,-8.42519 L 774.091,-8.53603
 L 774.624,-8.53603 L 775.145,-8.42519 L 775.632,-8.20836 L 776.063,-7.895 L 776.42,-7.49884 L 776.687,-7.03717
 L 776.851,-6.53017 L 776.907,-6 L 776.907,-0 L 963.521,-0 L 963.521,-6 L 963.577,-6.53017
 L 963.742,-7.03717 L 964.008,-7.49884 L 964.365,-7.895 L 964.796,-8.20836 L 965.283,-8.42519 L 965.805,-8.53603
 L 966.338,-8.53603 L 966.859,-8.42519 L 967.346,-8.20836 L 967.778,-7.895 L 968.134,-7.49884 L 968.401,-7.03717
 L 968.566,-6.53017 L 968.621,-6 L 968.621,-0 L 1155.24,-0 L 1155.24,-6 L 1155.29,-6.53017
 L 1155.46,-7.03717 L 1155.72,-7.49884 L 1156.08,-7.895 L 1156.51,-8.20836 L 1157,-8.42519 L 1157.52,-8.53603
 L 1158.05,-8.53603 L 1158.57,-8.42519 L 1159.06,-8.20836 L 1159.49,-7.895 L 1159.85,-7.49884 L 1160.12,-7.03717
 L 1160.28,-6.53017 L 1160.34,-6 L 1160.34,-0 L 1346.95,-0 L 1346.95,-6 L 1347.01,-6.53017
 L 1347.17,-7.03717 L 1347.44,-7.49884 L 1347.79,-7.895 L 1348.22,-8.20836 L 1348.71,-8.42519 L 1349.23,-8.53603
 L 1349.77,-8.53603 L 1350.29,-8.42519 L 1350.77,-8.20836 L 1351.21,-7.895 L 1351.56,-7.49884 L 1351.83,-7.03717
 L 1351.99,-6.53017 L 1352.05,-6 L 1352.05,-0 L 1357,-0 z
M 6.98573,-55.607 L 6.47708,-55.6875 L 5.97964,-55.8208 L 5.49887,-56.0054 L 5.04001,-56.2392 L 4.60811,-56.5196
 L 4.20789,-56.8437 L 3.84373,-57.2079 L 3.51964,-57.6081 L 3.23917,-58.04 L 3.00537,-58.4989 L 2.82082,-58.9796
 L 2.68752,-59.4771 L 2.60696,-59.9857 L 2.58,-60.5 L 2.60696,-61.0143 L 2.68752,-61.5229 L 2.82082,-62.0204
 L 3.00537,-62.5011 L 3.23917,-62.96 L 3.51964,-63.3919 L 3.84373,-63.7921 L 4.20789,-64.1563 L 4.60811,-64.4804
 L 4.95001,-64.7024 L 4.95001,-74 L 5.00574,-74.5302 L 5.17047,-75.0372 L 5.43701,-75.4988 L 5.79373,-75.895
 L 6.22501,-76.2084 L 6.71202,-76.4252 L 7.23346,-76.536 L 7.76654,-76.536 L 8.28798,-76.4252 L 8.77499,-76.2084
 L 9.20627,-75.895 L 9.56299,-75.4988 L 9.82953,-75.0372 L 9.99426,-74.5302 L 10.05,-74 L 10.05,-64.7024
 L 10.3919,-64.4804 L 10.7921,-64.1563 L 11.1563,-63.7921 L 11.4804,-63.3919 L 11.7608,-62.96 L 11.9946,-62.5011
 L 12.1792,-62.0204 L 12.3125,-61.5229 L 12.393,-61.0143 L 12.42,-60.5 L 12.393,-59.9857 L 12.3125,-59.4771
 L 12.1792,-58.9796 L 11.9946,-58.4989 L 11.7608,-58.04 L 11.4804,-57.6081 L 11.1563,-57.2079 L 10.7921,-56.8437
 L 10.3919,-56.5196 L 9.95999,-56.2392 L 9.50113,-56.0054 L 9.02036,-55.8208 L 8.52292,-55.6875 L 8.01427,-55.607
 L 7.5,-55.58 z
M 198.7,-55.607 L 198.191,-55.6875 L 197.694,-55.8208 L 197.213,-56.0054 L 196.754,-56.2392 L 196.322,-56.5196
 L 195.922,-56.8437 L 195.558,-57.2079 L 195.234,-57.6081 L 194.953,-58.04 L 194.72,-58.4989 L 194.535,-58.9796
 L 194.402,-59.4771 L 194.321,-59.9857 L 194.294,-60.5 L 194.321,-61.0143 L 194.402,-61.5229 L 194.535,-62.0204
 L 194.72,-62.5011 L 194.953,-62.96 L 195.234,-63.3919 L 195.558,-63.7921 L 195.922,-64.1563 L 196.322,-64.4804
 L 196.664,-64.7024 L 196.664,-74 L 196.72,-74.5302 L 196.885,-75.0372 L 197.151,-75.4988 L 197.508,-75.895
 L 197.939,-76.2084 L 198.426,-76.4252 L 198.948,-76.536 L 199.481,-76.536 L 200.002,-76.4252 L 200.489,-76.2084
 L 200.921,-75.895 L 201.277,-75.4988 L 201.544,-75.0372 L 201.709,-74.5302 L 201.764,-74 L 201.764,-64.7024
 L 202.106,-64.4804 L 202.506,-64.1563 L 202.871,-63.7921 L 203.195,-63.3919 L 203.475,-62.96 L 203.709,-62.5011
 L 203.893,-62.0204 L 204.027,-61.5229 L 204.107,-61.0143 L 204.134,-60.5 L 204.107,-59.9857 L 204.027,-59.4771
 L 203.893,-58.9796 L 203.709,-58.4989 L 203.475,-58.04 L 203.195,-57.6081 L 202.871,-57.2079 L 202.506,-56.8437
 L 202.106,-56.5196 L 201.674,-56.2392 L 201.215,-56.0054 L 200.735,-55.8208 L 200.237,-55.6875 L 199.729,-55.607
 L 199.214,-55.58 z
M 390.414,-55.607 L 389.906,-55.6875 L 389.408,-55.8208 L 388.927,-56.0054 L 388.469,-56.2392 L 388.037,-56.5196
 L 387.636,-56.8437 L 387.272,-57.2079 L 386.948,-57.6081 L 386.668,-58.04 L 386.434,-58.4989 L 386.249,-58.9796
 L 386.116,-59.4771 L 386.036,-59.9857 L 386.009,-60.5 L 386.036,-61.0143 L 386.116,-61.5229 L 386.249,-62.0204
 L 386.434,-62.5011 L 386.668,-62.96 L 386.948,-63.3919 L 387.272,-63.7921 L 387.636,-64.1563 L 388.037,-64.4804
 L 388.379,-64.7024 L 388.379,-74 L 388.434,-74.5302 L 388.599,-75.0372 L 388.866,-75.4988 L 389.222,-75.895
 L 389.654,-76.2084 L 390.141,-76.4252 L 390.662,-76.536 L 391.195,-76.536 L 391.717,-76.4252 L 392.204,-76.2084
 L 392.635,-75.895 L 392.992,-75.4988 L 393.258,-75.0372 L 393.423,-74.5302 L 393.479,-74 L 393.479,-64.7024
 L 393.82,-64.4804 L 394.221,-64.1563 L 394.585,-63.7921 L 394.909,-63.3919 L 395.189,-62.96 L 395.423,-62.5011
 L 395.608,-62.0204 L 395.741,-61.5229 L 395.822,-61.0143 L 395.849,-60.5 L 395.822,-59.9857 L 395.741,-59.4771
 L 395.608,-58.9796 L 395.423,-58.4989 L 395.189,-58.04 L 394.909,-57.6081 L 394.585,-57.2079 L 394.221,-56.8437
 L 393.82,-56.5196 L 393.389,-56.2392 L 392.93,-56.0054 L 392.449,-55.8208 L 391.951,-55.6875 L 391.443,-55.607
 L 390.929,-55.58 z
M 582.129,-55.607 L 581.62,-55.6875 L 581.122,-55.8208 L 580.642,-56.0054 L 580.183,-56.2392 L 579.751,-56.5196
 L 579.351,-56.8437 L 578.987,-57.2079 L 578.662,-57.6081 L 578.382,-58.04 L 578.148,-58.4989 L 577.964,-58.9796
 L 577.83,-59.4771 L 577.75,-59.9857 L 577.723,-60.5 L 577.75,-61.0143 L 577.83,-61.5229 L 577.964,-62.0204
 L 578.148,-62.5011 L 578.382,-62.96 L 578.662,-63.3919 L 578.987,-63.7921 L 579.351,-64.1563 L 579.751,-64.4804
 L 580.093,-64.7024 L 580.093,-74 L 580.149,-74.5302 L 580.313,-75.0372 L 580.58,-75.4988 L 580.937,-75.895
 L 581.368,-76.2084 L 581.855,-76.4252 L 582.376,-76.536 L 582.909,-76.536 L 583.431,-76.4252 L 583.918,-76.2084
 L 584.349,-75.895 L 584.706,-75.4988 L 584.972,-75.0372 L 585.137,-74.5302 L 585.193,-74 L 585.193,-64.7024
 L 585.535,-64.4804 L 585.935,-64.1563 L 586.299,-63.7921 L 586.623,-63.3919 L 586.904,-62.96 L 587.137,-62.5011
 L 587.322,-62.0204 L 587.455,-61.5229 L 587.536,-61.0143 L 587.563,-60.5 L 587.536,-59.9857 L 587.455,-59.4771
 L 587.322,-58.9796 L 587.137,-58.4989 L 586.904,-58.04 L 586.623,-57.6081 L 586.299,-57.2079 L 585.935,-56.8437
 L 585.535,-56.5196 L 585.103,-56.2392 L 584.644,-56.0054 L 584.163,-55.8208 L 583.666,-55.6875 L 583.157,-55.607
 L 582.643,-55.58 z
M 773.843,-55.607 L 773.334,-55.6875 L 772.837,-55.8208 L 772.356,-56.0054 L 771.897,-56.2392 L 771.465,-56.5196
 L 771.065,-56.8437 L 770.701,-57.2079 L 770.377,-57.6081 L 770.096,-58.04 L 769.863,-58.4989 L 769.678,-58.9796
 L 769.545,-59.4771 L 769.464,-59.9857 L 769.437,-60.5 L 769.464,-61.0143 L 769.545,-61.5229 L 769.678,-62.0204
 L 769.863,-62.5011 L 770.096,-62.96 L 770.377,-63.3919 L 770.701,-63.7921 L 771.065,-64.1563 L 771.465,-64.4804
 L 771.807,-64.7024 L 771.807,-74 L 771.863,-74.5302 L 772.028,-75.0372 L 772.294,-75.4988 L 772.651,-75.895
 L 773.082,-76.2084 L 773.569,-76.4252 L 774.091,-76.536 L 774.624,-76.536 L 775.145,-76.4252 L 775.632,-76.2084
 L 776.063,-75.895 L 776.42,-75.4988 L 776.687,-75.0372 L 776.851,-74.5302 L 776.907,-74 L 776.907,-64.7024
 L 777.249,-64.4804 L 777.649,-64.1563 L 778.013,-63.7921 L 778.337,-63.3919 L 778.618,-62.96 L 778.852,-62.5011
 L 779.036,-62.0204 L 779.17,-61.5229 L 779.25,-61.0143 L 779.277,-60.5 L 779.25,-59.9857 L 779.17,-59.4771
 L 779.036,-58.9796 L 778.852,-58.4989 L 778.618,-58.04 L 778.337,-57.6081 L 778.013,-57.2079 L 777.649,-56.8437
 L 777.249,-56.5196 L 776.817,-56.2392 L 776.358,-56.0054 L 775.877,-55.8208 L 775.38,-55.6875 L 774.871,-55.607
 L 774.357,-55.58 z
M 965.557,-55.607 L 965.049,-55.6875 L 964.551,-55.8208 L 964.07,-56.0054 L 963.611,-56.2392 L 963.18,-56.5196
 L 962.779,-56.8437 L 962.415,-57.2079 L 962.091,-57.6081 L 961.811,-58.04 L 961.577,-58.4989 L 961.392,-58.9796
 L 961.259,-59.4771 L 961.178,-59.9857 L 961.151,-60.5 L 961.178,-61.0143 L 961.259,-61.5229 L 961.392,-62.0204
 L 961.577,-62.5011 L 961.811,-62.96 L 962.091,-63.3919 L 962.415,-63.7921 L 962.779,-64.1563 L 963.18,-64.4804
 L 963.521,-64.7024 L 963.521,-74 L 963.577,-74.5302 L 963.742,-75.0372 L 964.008,-75.4988 L 964.365,-75.895
 L 964.796,-76.2084 L 965.283,-76.4252 L 965.805,-76.536 L 966.338,-76.536 L 966.859,-76.4252 L 967.346,-76.2084
 L 967.778,-75.895 L 968.134,-75.4988 L 968.401,-75.0372 L 968.566,-74.5302 L 968.621,-74 L 968.621,-64.7024
 L 968.963,-64.4804 L 969.364,-64.1563 L 969.728,-63.7921 L 970.052,-63.3919 L 970.332,-62.96 L 970.566,-62.5011
 L 970.751,-62.0204 L 970.884,-61.5229 L 970.964,-61.0143 L 970.991,-60.5 L 970.964,-59.9857 L 970.884,-59.4771
 L 970.751,-58.9796 L 970.566,-58.4989 L 970.332,-58.04 L 970.052,-57.6081 L 969.728,-57.2079 L 969.364,-56.8437
 L 968.963,-56.5196 L 968.531,-56.2392 L 968.073,-56.0054 L 967.592,-55.8208 L 967.094,-55.6875 L 966.586,-55.607
 L 966.071,-55.58 z
M 1157.27,-55.607 L 1156.76,-55.6875 L 1156.27,-55.8208 L 1155.78,-56.0054 L 1155.33,-56.2392 L 1154.89,-56.5196
 L 1154.49,-56.8437 L 1154.13,-57.2079 L 1153.81,-57.6081 L 1153.52,-58.04 L 1153.29,-58.4989 L 1153.11,-58.9796
 L 1152.97,-59.4771 L 1152.89,-59.9857 L 1152.87,-60.5 L 1152.89,-61.0143 L 1152.97,-61.5229 L 1153.11,-62.0204
 L 1153.29,-62.5011 L 1153.52,-62.96 L 1153.81,-63.3919 L 1154.13,-63.7921 L 1154.49,-64.1563 L 1154.89,-64.4804
 L 1155.24,-64.7024 L 1155.24,-74 L 1155.29,-74.5302 L 1155.46,-75.0372 L 1155.72,-75.4988 L 1156.08,-75.895
 L 1156.51,-76.2084 L 1157,-76.4252 L 1157.52,-76.536 L 1158.05,-76.536 L 1158.57,-76.4252 L 1159.06,-76.2084
 L 1159.49,-75.895 L 1159.85,-75.4988 L 1160.12,-75.0372 L 1160.28,-74.5302 L 1160.34,-74 L 1160.34,-64.7024
 L 1160.68,-64.4804 L 1161.08,-64.1563 L 1161.44,-63.7921 L 1161.77,-63.3919 L 1162.05,-62.96 L 1162.28,-62.5011
 L 1162.46,-62.0204 L 1162.6,-61.5229 L 1162.68,-61.0143 L 1162.71,-60.5 L 1162.68,-59.9857 L 1162.6,-59.4771
 L 1162.46,-58.9796 L 1162.28,-58.4989 L 1162.05,-58.04 L 1161.77,-57.6081 L 1161.44,-57.2079 L 1161.08,-56.8437
 L 1160.68,-56.5196 L 1160.25,-56.2392 L 1159.79,-56.0054 L 1159.31,-55.8208 L 1158.81,-55.6875 L 1158.3,-55.607
 L 1157.79,-55.58 z
M 1348.99,-55.607 L 1348.48,-55.6875 L 1347.98,-55.8208 L 1347.5,-56.0054 L 1347.04,-56.2392 L 1346.61,-56.5196
 L 1346.21,-56.8437 L 1345.84,-57.2079 L 1345.52,-57.6081 L 1345.24,-58.04 L 1345.01,-58.4989 L 1344.82,-58.9796
 L 1344.69,-59.4771 L 1344.61,-59.9857 L 1344.58,-60.5 L 1344.61,-61.0143 L 1344.69,-61.5229 L 1344.82,-62.0204
 L 1345.01,-62.5011 L 1345.24,-62.96 L 1345.52,-63.3919 L 1345.84,-63.7921 L 1346.21,-64.1563 L 1346.61,-64.4804
 L 1346.95,-64.7024 L 1346.95,-74 L 1347.01,-74.5302 L 1347.17,-75.0372 L 1347.44,-75.4988 L 1347.79,-75.895
 L 1348.23,-76.2084 L 1348.71,-76.4252 L 1349.23,-76.536 L 1349.77,-76.536 L 1350.29,-76.4252 L 1350.77,-76.2084
 L 1351.21,-75.895 L 1351.56,-75.4988 L 1351.83,-75.0372 L 1351.99,-74.5302 L 1352.05,-74 L 1352.05,-64.7024
 L 1352.39,-64.4804 L 1352.79,-64.1563 L 1353.16,-63.7921 L 1353.48,-63.3919 L 1353.76,-62.96 L 1353.99,-62.5011
 L 1354.18,-62.0204 L 1354.31,-61.5229 L 1354.39,-61.0143 L 1354.42,-60.5 L 1354.39,-59.9857 L 1354.31,-59.4771
 L 1354.18,-58.9796 L 1353.99,-58.4989 L 1353.76,-58.04 L 1353.48,-57.6081 L 1353.16,-57.2079 L 1352.79,-56.8437
 L 1352.39,-56.5196 L 1351.96,-56.2392 L 1351.5,-56.0054 L 1351.02,-55.8208 L 1350.52,-55.6875 L 1350.01,-55.607
 L 1349.5,-55.58 z
M 786.223,-20.5638 L 785.45,-20.8834 L 784.761,-21.3567 L 784.185,-21.963 L 783.748,-22.6758 L 783.468,-23.4639
 L 783.357,-24.3996 L 783.357,-58 L 783.445,-58.8316 L 783.703,-59.627 L 784.121,-60.3511 L 784.681,-60.9726
 L 785.357,-61.4641 L 786.121,-61.8042 L 787.357,-62 L 882.088,-62 L 882.919,-61.9126 L 883.715,-61.6542
 L 884.439,-61.2361 L 885.06,-60.6765 L 885.552,-60 L 885.892,-59.2361 L 886.066,-58.4181 L 886.066,-57.5819
 L 885.892,-56.7639 L 885.552,-56 L 885.06,-55.3235 L 884.439,-54.7639 L 883.425,-54.2301 L 788.694,-20.6298
 L 787.881,-20.4341 L 787.045,-20.4118 z
M 677.976,-47.7018 L 677.163,-47.8974 L 659.309,-54.2301 L 658.295,-54.7639 L 657.673,-55.3235 L 657.182,-56
 L 656.842,-56.7639 L 656.668,-57.5819 L 656.668,-58.4181 L 656.842,-59.2361 L 657.182,-60 L 657.673,-60.6765
 L 658.295,-61.2361 L 659.019,-61.6542 L 659.814,-61.9126 L 660.646,-62 L 696.354,-62 L 697.488,-61.8359
 L 698.261,-61.5163 L 698.95,-61.043 L 699.526,-60.4367 L 699.963,-59.7239 L 700.243,-58.9358 L 700.353,-58.1068
 L 700.287,-57.2731 L 700.05,-56.4712 L 699.652,-55.7361 L 699.109,-55.0999 L 698.446,-54.5905 L 697.691,-54.2301
 L 679.837,-47.8974 L 678.812,-47.6795 z
M 569.119,-20.4341 L 568.306,-20.6298 L 473.575,-54.2301 L 472.561,-54.7639 L 471.94,-55.3235 L 471.448,-56
 L 471.108,-56.7639 L 470.934,-57.5819 L 470.934,-58.4181 L 471.108,-59.2361 L 471.448,-60 L 471.94,-60.6765
 L 472.561,-61.2361 L 473.285,-61.6542 L 474.081,-61.9126 L 474.912,-62 L 569.643,-62 L 570.879,-61.8042
 L 571.643,-61.4641 L 572.319,-60.9726 L 572.879,-60.3511 L 573.297,-59.627 L 573.555,-58.8316 L 573.643,-58
 L 573.643,-24.3996 L 573.532,-23.4639 L 573.252,-22.6758 L 572.815,-21.963 L 572.239,-21.3567 L 571.55,-20.8834
 L 570.777,-20.5638 L 569.955,-20.4118 z
M 377.404,-20.4341 L 376.591,-20.6298 L 281.861,-54.2301 L 280.847,-54.7639 L 280.226,-55.3235 L 279.734,-56
 L 279.394,-56.7639 L 279.22,-57.5819 L 279.22,-58.4181 L 279.394,-59.2361 L 279.734,-60 L 280.226,-60.6765
 L 280.847,-61.2361 L 281.571,-61.6542 L 282.366,-61.9126 L 283.198,-62 L 377.929,-62 L 379.165,-61.8042
 L 379.929,-61.4641 L 380.605,-60.9726 L 381.165,-60.3511 L 381.583,-59.627 L 381.841,-58.8316 L 381.929,-58
 L 381.929,-24.3996 L 381.818,-23.4639 L 381.538,-22.6758 L 381.101,-21.963 L 380.525,-21.3567 L 379.835,-20.8834
 L 379.063,-20.5638 L 378.24,-20.4118 z
M 1169.65,-20.5638 L 1168.88,-20.8834 L 1168.19,-21.3567 L 1167.61,-21.963 L 1167.18,-22.6758 L 1166.9,-23.4639
 L 1166.79,-24.3996 L 1166.79,-58 L 1166.87,-58.8316 L 1167.13,-59.627 L 1167.55,-60.3511 L 1168.11,-60.9726
 L 1168.79,-61.4641 L 1169.55,-61.8042 L 1170.79,-62 L 1265.52,-62 L 1266.35,-61.9126 L 1267.14,-61.6542
 L 1267.87,-61.2361 L 1268.49,-60.6765 L 1268.98,-60 L 1269.32,-59.2361 L 1269.49,-58.4181 L 1269.49,-57.5819
 L 1269.32,-56.7639 L 1268.98,-56 L 1268.49,-55.3235 L 1267.87,-54.7639 L 1266.85,-54.2301 L 1172.12,-20.6298
 L 1171.31,-20.4341 L 1170.47,-20.4118 z
M 185.69,-20.4341 L 184.877,-20.6298 L 90.1467,-54.2301 L 89.1327,-54.7639 L 88.5113,-55.3235 L 88.0197,-56
 L 87.6796,-56.7639 L 87.5058,-57.5819 L 87.5058,-58.4181 L 87.6796,-59.2361 L 88.0197,-60 L 88.5113,-60.6765
 L 89.1327,-61.2361 L 89.8569,-61.6542 L 90.6522,-61.9126 L 91.4838,-62 L 186.214,-62 L 187.45,-61.8042
 L 188.214,-61.4641 L 188.891,-60.9726 L 189.45,-60.3511 L 189.868,-59.627 L 190.127,-58.8316 L 190.214,-58
 L 190.214,-24.3996 L 190.103,-23.4639 L 189.824,-22.6758 L 189.386,-21.963 L 188.811,-21.3567 L 188.121,-20.8834
 L 187.348,-20.5638 L 186.526,-20.4118 z
M 977.937,-20.5638 L 977.165,-20.8834 L 976.475,-21.3567 L 975.899,-21.963 L 975.462,-22.6758 L 975.182,-23.4639
 L 975.071,-24.3996 L 975.071,-58 L 975.159,-58.8316 L 975.417,-59.627 L 975.835,-60.3511 L 976.395,-60.9726
 L 977.071,-61.4641 L 977.835,-61.8042 L 979.071,-62 L 1073.8,-62 L 1074.63,-61.9126 L 1075.43,-61.6542
 L 1076.15,-61.2361 L 1076.77,-60.6765 L 1077.27,-60 L 1077.61,-59.2361 L 1077.78,-58.4181 L 1077.78,-57.5819
 L 1077.61,-56.7639 L 1077.27,-56 L 1076.77,-55.3235 L 1076.15,-54.7639 L 1075.14,-54.2301 L 980.409,-20.6298
 L 979.596,-20.4341 L 978.76,-20.4118 z
M 595.225,-18.3002 L 594.407,-18.4741 L 593.643,-18.8142 L 592.966,-19.3057 L 592.407,-19.9272 L 591.989,-20.6514
 L 591.73,-21.4467 L 591.643,-22.2783 L 591.643,-57.7217 L 591.754,-58.6575 L 592.033,-59.4456 L 592.471,-60.1584
 L 593.047,-60.7646 L 593.736,-61.2379 L 594.509,-61.5575 L 595.331,-61.7095 L 596.167,-61.6872 L 596.98,-61.4916
 L 646.943,-43.7699 L 647.513,-43.5163 L 648.202,-43.043 L 648.778,-42.4367 L 649.216,-41.7239 L 649.495,-40.9358
 L 649.605,-40.1068 L 649.539,-39.2731 L 649.302,-38.4712 L 648.904,-37.7361 L 648.361,-37.0999 L 647.698,-36.5905
 L 646.943,-36.2301 L 596.98,-18.5084 L 596.061,-18.3002 z
M 760.833,-18.3128 L 760.02,-18.5084 L 710.057,-36.2301 L 709.487,-36.4837 L 708.798,-36.957 L 708.222,-37.5633
 L 707.784,-38.2761 L 707.505,-39.0642 L 707.395,-39.8932 L 707.46,-40.7269 L 707.698,-41.5288 L 708.096,-42.2639
 L 708.639,-42.9001 L 709.302,-43.4095 L 710.057,-43.7699 L 760.02,-61.4916 L 760.939,-61.6998 L 761.775,-61.6998
 L 762.593,-61.5259 L 763.357,-61.1858 L 764.034,-60.6943 L 764.593,-60.0728 L 765.011,-59.3486 L 765.27,-58.5533
 L 765.357,-57.7217 L 765.357,-22.2783 L 765.246,-21.3425 L 764.967,-20.5544 L 764.529,-19.8416 L 763.953,-19.2354
 L 763.264,-18.7621 L 762.491,-18.4424 L 761.669,-18.2905 z
M 212.214,-18 L 210.978,-18.1958 L 210.214,-18.5359 L 209.538,-19.0274 L 208.978,-19.6489 L 208.56,-20.373
 L 208.302,-21.1684 L 208.214,-22 L 208.214,-55.6004 L 208.325,-56.5361 L 208.605,-57.3242 L 209.042,-58.037
 L 209.618,-58.6433 L 210.307,-59.1166 L 211.08,-59.4362 L 211.902,-59.5882 L 212.738,-59.5659 L 213.551,-59.3702
 L 308.282,-25.7699 L 309.296,-25.2361 L 309.917,-24.6765 L 310.409,-24 L 310.749,-23.2361 L 310.923,-22.4181
 L 310.923,-21.5819 L 310.749,-20.7639 L 310.409,-20 L 309.917,-19.3235 L 309.296,-18.7639 L 308.572,-18.3458
 L 307.776,-18.0874 L 306.945,-18 z
M 403.929,-18 L 402.692,-18.1958 L 401.929,-18.5359 L 401.252,-19.0274 L 400.692,-19.6489 L 400.274,-20.373
 L 400.016,-21.1684 L 399.929,-22 L 399.929,-55.6004 L 400.04,-56.5361 L 400.319,-57.3242 L 400.756,-58.037
 L 401.332,-58.6433 L 402.022,-59.1166 L 402.794,-59.4362 L 403.617,-59.5882 L 404.453,-59.5659 L 405.266,-59.3702
 L 499.996,-25.7699 L 501.01,-25.2361 L 501.632,-24.6765 L 502.123,-24 L 502.463,-23.2361 L 502.637,-22.4181
 L 502.637,-21.5819 L 502.463,-20.7639 L 502.123,-20 L 501.632,-19.3235 L 501.01,-18.7639 L 500.286,-18.3458
 L 499.491,-18.0874 L 498.659,-18 z
M 858.341,-18 L 857.509,-18.0874 L 856.714,-18.3458 L 855.99,-18.7639 L 855.368,-19.3235 L 854.877,-20
 L 854.537,-20.7639 L 854.363,-21.5819 L 854.363,-22.4181 L 854.537,-23.2361 L 854.877,-24 L 855.368,-24.6765
 L 855.99,-25.2361 L 857.004,-25.7699 L 951.734,-59.3702 L 952.547,-59.5659 L 953.383,-59.5882 L 954.206,-59.4362
 L 954.978,-59.1166 L 955.668,-58.6433 L 956.244,-58.037 L 956.681,-57.3242 L 956.96,-56.5361 L 957.071,-55.6004
 L 957.071,-22 L 956.984,-21.1684 L 956.726,-20.373 L 956.307,-19.6489 L 955.748,-19.0274 L 955.071,-18.5359
 L 954.307,-18.1958 L 953.071,-18 z
M 1050.06,-18 L 1049.22,-18.0874 L 1048.43,-18.3458 L 1047.7,-18.7639 L 1047.08,-19.3235 L 1046.59,-20
 L 1046.25,-20.7639 L 1046.08,-21.5819 L 1046.08,-22.4181 L 1046.25,-23.2361 L 1046.59,-24 L 1047.08,-24.6765
 L 1047.7,-25.2361 L 1048.72,-25.7699 L 1143.45,-59.3702 L 1144.26,-59.5659 L 1145.1,-59.5882 L 1145.92,-59.4362
 L 1146.69,-59.1166 L 1147.38,-58.6433 L 1147.96,-58.037 L 1148.4,-57.3242 L 1148.67,-56.5361 L 1148.79,-55.6004
 L 1148.79,-22 L 1148.7,-21.1684 L 1148.44,-20.373 L 1148.02,-19.6489 L 1147.46,-19.0274 L 1146.79,-18.5359
 L 1146.02,-18.1958 L 1144.79,-18 z
M 22,-18 L 20.7639,-18.1958 L 20,-18.5359 L 19.3235,-19.0274 L 18.7639,-19.6489 L 18.3458,-20.373
 L 18.0874,-21.1684 L 18,-22 L 18,-55.0683 L 18.111,-56.0041 L 18.3905,-56.7922 L 18.8278,-57.505
 L 19.4038,-58.1113 L 20.0932,-58.5846 L 20.8659,-58.9042 L 21.6882,-59.0561 L 22.5241,-59.0338 L 23.3372,-58.8382
 L 116.568,-25.7699 L 117.582,-25.2361 L 118.203,-24.6765 L 118.695,-24 L 119.035,-23.2361 L 119.208,-22.4181
 L 119.208,-21.5819 L 119.035,-20.7639 L 118.695,-20 L 118.203,-19.3235 L 117.582,-18.7639 L 116.857,-18.3458
 L 116.062,-18.0874 L 115.23,-18 z
M 1241.77,-18 L 1240.94,-18.0874 L 1240.14,-18.3458 L 1239.42,-18.7639 L 1238.8,-19.3235 L 1238.31,-20
 L 1237.97,-20.7639 L 1237.79,-21.5819 L 1237.79,-22.4181 L 1237.97,-23.2361 L 1238.31,-24 L 1238.8,-24.6765
 L 1239.42,-25.2361 L 1240.43,-25.7699 L 1333.66,-58.8382 L 1334.48,-59.0338 L 1335.31,-59.0561 L 1336.13,-58.9042
 L 1336.91,-58.5846 L 1337.6,-58.1113 L 1338.17,-57.505 L 1338.61,-56.7922 L 1338.89,-56.0041 L 1339,-55.0683
 L 1339,-22 L 1338.91,-21.1684 L 1338.65,-20.373 L 1338.24,-19.6489 L 1337.68,-19.0274 L 1337,-18.5359
 L 1336.24,-18.1958 L 1335,-18 z
M 660.646,-18 L 659.512,-18.1641 L 658.739,-18.4837 L 658.05,-18.957 L 657.474,-19.5633 L 657.037,-20.2761
 L 656.757,-21.0642 L 656.647,-21.8932 L 656.713,-22.7269 L 656.95,-23.5288 L 657.348,-24.2639 L 657.891,-24.9001
 L 658.554,-25.4095 L 659.309,-25.7699 L 677.163,-32.1026 L 678.188,-32.3205 L 679.024,-32.2982 L 679.837,-32.1026
 L 697.691,-25.7699 L 698.705,-25.2361 L 699.327,-24.6765 L 699.818,-24 L 700.158,-23.2361 L 700.332,-22.4181
 L 700.332,-21.5819 L 700.158,-20.7639 L 699.818,-20 L 699.327,-19.3235 L 698.705,-18.7639 L 697.981,-18.3458
 L 697.186,-18.0874 L 696.354,-18 z
" stroke="black" fill="lightgray" stroke-width="0.5"/>
</svg>
