<?xml version="1.0" standalone="no"?>
<!DOCTYPE svg PUBLIC "-//W3C//DTD SVG 1.1//EN" "http://www.w3.org/Graphics/SVG/1.1/DTD/svg11.dtd">
<svg width="1607mm" height="80mm" viewBox="0 -80 1607 80" xmlns="http://www.w3.org/2000/svg" version="1.1">
<title>OpenSCAD Model</title>
<path d="
M 1607,-80 L 0,-80 L 0,-0 L 4.95,-0 L 4.95,-6 L 5.00572,-6.53017
 L 5.17046,-7.03717 L 5.437,-7.49884 L 5.79372,-7.895 L 6.22499,-8.20836 L 6.71201,-8.42519 L 7.23344,-8.53603
 L 7.76654,-8.53603 L 8.28798,-8.42519 L 8.77499,-8.20836 L 9.20627,-7.895 L 9.56299,-7.49884 L 9.82953,-7.03717
 L 9.99426,-6.53017 L 10.05,-6 L 10.05,-0 L 181.839,-0 L 181.839,-6 L 181.895,-6.53017
 L 182.059,-7.03717 L 182.326,-7.49884 L 182.683,-7.895 L 183.114,-8.20836 L 183.601,-8.42519 L 184.122,-8.53603
 L 184.655,-8.53603 L 185.177,-8.42519 L 185.664,-8.20836 L 186.095,-7.895 L 186.452,-7.49884 L 186.718,-7.03717
 L 186.883,-6.53017 L 186.939,-6 L 186.939,-0 L 358.728,-0 L 358.728,-6 L 358.783,-6.53017
 L 358.948,-7.03717 L 359.215,-7.49884 L 359.571,-7.895 L 360.003,-8.20836 L 360.49,-8.42519 L 361.011,-8.53603
 L 361.544,-8.53603 L 362.066,-8.42519 L 362.553,-8.20836 L 362.984,-7.895 L 363.341,-7.49884 L 363.607,-7.03717
 L 363.772,-6.53017 L 363.828,-6 L 363.828,-0 L 535.617,-0 L 535.617,-6 L 535.672,-6.53017
 L 535.837,-7.03717 L 536.104,-7.49884 L 536.46,-7.895 L 536.892,-8.20836 L 537.379,-8.42519 L 537.9,-8.53603
 L 538.433,-8.53603 L 538.955,-8.42519 L 539.442,-8.20836 L 539.873,-7.895 L 540.23,-7.49884 L 540.496,-7.03717
 L 540.661,-6.53017 L 540.717,-6 L 540.717,-0 L 712.506,-0 L 712.506,-6 L 712.561,-6.53017
 L 712.726,-7.03717 L 712.993,-7.49884 L 713.349,-7.895 L 713.781,-8.20836 L 714.268,-8.42519 L 714.789,-8.53603
 L 715.322,-8.53603 L 715.844,-8.42519 L 716.331,-8.20836 L 716.762,-7.895 L 717.119,-7.49884 L 717.385,-7.03717
 L 717.55,-6.53017 L 717.606,-6 L 717.606,-0 L 889.394,-0 L 889.394,-6 L 889.45,-6.53017
 L 889.615,-7.03717 L 889.881,-7.49884 L 890.238,-7.895 L 890.669,-8.20836 L 891.156,-8.42519 L 891.678,-8.53603
 L 892.211,-8.53603 L 892.732,-8.42519 L 893.219,-8.20836 L 893.651,-7.895 L 894.007,-7.49884 L 894.274,-7.03717
 L 894.439,-6.53017 L 894.494,-6 L 894.494,-0 L 1066.28,-0 L 1066.28,-6 L 1066.34,-6.53017
 L 1066.5,-7.03717 L 1066.77,-7.49884 L 1067.13,-7.895 L 1067.56,-8.20836 L 1068.05,-8.42519 L 1068.57,-8.53603
 L 1069.1,-8.53603 L 1069.62,-8.42519 L 1070.11,-8.20836 L 1070.54,-7.895 L 1070.9,-7.49884 L 1071.16,-7.03717
 L 1071.33,-6.53017 L 1071.38,-6 L 1071.38,-0 L 1243.17,-0 L 1243.17,-6 L 1243.23,-6.53017
 L 1243.39,-7.03717 L 1243.66,-7.49884 L 1244.02,-7.895 L 1244.45,-8.20836 L 1244.93,-8.42519 L 1245.46,-8.53603
 L 1245.99,-8.53603 L 1246.51,-8.42519 L 1247,-8.20836 L 1247.43,-7.895 L 1247.79,-7.49884 L 1248.05,-7.03717
 L 1248.22,-6.53017 L 1248.27,-6 L 1248.27,-0 L 1420.06,-0 L 1420.06,-6 L 1420.12,-6.53017
 L 1420.28,-7.03717 L 1420.55,-7.49884 L 1420.9,-7.895 L 1421.34,-8.20836 L 1421.82,-8.42519 L 1422.34,-8.53603
 L 1422.88,-8.53603 L 1423.4,-8.42519 L 1423.89,-8.20836 L 1424.32,-7.895 L 1424.67,-7.49884 L 1424.94,-7.03717
 L 1425.11,-6.53017 L 1425.16,-6 L 1425.16,-0 L 1596.95,-0 L 1596.95,-6 L 1597.01,-6.53017
 L 1597.17,-7.03717 L 1597.44,-7.49884 L 1597.79,-7.895 L 1598.22,-8.20836 L 1598.71,-8.42519 L 1599.23,-8.53603
 L 1599.77,-8.53603 L 1600.29,-8.42519 L 1600.77,-8.20836 L 1601.21,-7.895 L 1601.56,-7.49884 L 1601.83,-7.03717
 L 1601.99,-6.53017 L 1602.05,-6 L 1602.05,-0 L 1607,-0 z
M 6.98573,-55.607 L 6.47708,-55.6875 L 5.97964,-55.8208 L 5.49887,-56.0054 L 5.04001,-56.2392 L 4.60811,-56.5196
 L 4.20789,-56.8437 L 3.84373,-57.2079 L 3.51964,-57.6081 L 3.23917,-58.04 L 3.00537,-58.4989 L 2.82082,-58.9796
 L 2.68752,-59.4771 L 2.60696,-59.9857 L 2.58,-60.5 L 2.60696,-61.0143 L 2.68752,-61.5229 L 2.82082,-62.0204
 L 3.00537,-62.5011 L 3.23917,-62.96 L 3.51964,-63.3919 L 3.84373,-63.7921 L 4.20789,-64.1563 L 4.60811,-64.4804
 L 4.95001,-64.7024 L 4.95001,-74 L 5.00574,-74.5302 L 5.17047,-75.0372 L 5.43701,-75.4988 L 5.79373,-75.895
 L 6.22501,-76.2084 L 6.71202,-76.4252 L 7.23346,-76.536 L 7.76654,-76.536 L 8.28798,-76.4252 L 8.77499,-76.2084
 L 9.20627,-75.895 L 9.56299,-75.4988 L 9.82953,-75.0372 L 9.99426,-74.5302 L 10.05,-74 L 10.05,-64.7024
 L 10.3919,-64.4804 L 10.7921,-64.1563 L 11.1563,-63.7921 L 11.4804,-63.3919 L 11.7608,-62.96 L 11.9946,-62.5011
 L 12.1792,-62.0204 L 12.3125,-61.5229 L 12.393,-61.0143 L 12.42,-60.5 L 12.393,-59.9857 L 12.3125,-59.4771
 L 12.1792,-58.9796 L 11.9946,-58.4989 L 11.7608,-58.04 L 11.4804,-57.6081 L 11.1563,-57.2079 L 10.7921,-56.8437
 L 10.3919,-56.5196 L 9.95999,-56.2392 L 9.50113,-56.0054 L 9.02036,-55.8208 L 8.52292,-55.6875 L 8.01427,-55.607
 L 7.5,-55.58 z
M 1068.32,-55.607 L 1067.81,-55.6875 L 1067.31,-55.8208 L 1066.83,-56.0054 L 1066.37,-56.2392 L 1065.94,-56.5196
 L 1065.54,-56.8437 L 1065.18,-57.2079 L 1064.85,-57.6081 L 1064.57,-58.04 L 1064.34,-58.4989 L 1064.15,-58.9796
 L 1064.02,-59.4771 L 1063.94,-59.9857 L 1063.91,-60.5 L 1063.94,-61.0143 L 1064.02,-61.5229 L 1064.15,-62.0204
 L 1064.34,-62.5011 L 1064.57,-62.96 L 1064.85,-63.3919 L 1065.18,-63.7921 L 1065.54,-64.1563 L 1065.94,-64.4804
 L 1066.28,-64.7024 L 1066.28,-74 L 1066.34,-74.5302 L 1066.5,-75.0372 L 1066.77,-75.4988 L 1067.13,-75.895
 L 1067.56,-76.2084 L 1068.05,-76.4252 L 1068.57,-76.536 L 1069.1,-76.536 L 1069.62,-76.4252 L 1070.11,-76.2084
 L 1070.54,-75.895 L 1070.9,-75.4988 L 1071.16,-75.0372 L 1071.33,-74.5302 L 1071.38,-74 L 1071.38,-64.7024
 L 1071.73,-64.4804 L 1072.13,-64.1563 L 1072.49,-63.7921 L 1072.81,-63.3919 L 1073.09,-62.96 L 1073.33,-62.5011
 L 1073.51,-62.0204 L 1073.65,-61.5229 L 1073.73,-61.0143 L 1073.75,-60.5 L 1073.73,-59.9857 L 1073.65,-59.4771
 L 1073.51,-58.9796 L 1073.33,-58.4989 L 1073.09,-58.04 L 1072.81,-57.6081 L 1072.49,-57.2079 L 1072.13,-56.8437
 L 1071.73,-56.5196 L 1071.29,-56.2392 L 1070.83,-56.0054 L 1070.35,-55.8208 L 1069.86,-55.6875 L 1069.35,-55.607
 L 1068.83,-55.58 z
M 1245.21,-55.607 L 1244.7,-55.6875 L 1244.2,-55.8208 L 1243.72,-56.0054 L 1243.26,-56.2392 L 1242.83,-56.5196
 L 1242.43,-56.8437 L 1242.07,-57.2079 L 1241.74,-57.6081 L 1241.46,-58.04 L 1241.23,-58.4989 L 1241.04,-58.9796
 L 1240.91,-59.4771 L 1240.83,-59.9857 L 1240.8,-60.5 L 1240.83,-61.0143 L 1240.91,-61.5229 L 1241.04,-62.0204
 L 1241.23,-62.5011 L 1241.46,-62.96 L 1241.74,-63.3919 L 1242.07,-63.7921 L 1242.43,-64.1563 L 1242.83,-64.4804
 L 1243.17,-64.7024 L 1243.17,-74 L 1243.23,-74.5302 L 1243.39,-75.0372 L 1243.66,-75.4988 L 1244.02,-75.895
 L 1244.45,-76.2084 L 1244.93,-76.4252 L 1245.46,-76.536 L 1245.99,-76.536 L 1246.51,-76.4252 L 1247,-76.2084
 L 1247.43,-75.895 L 1247.79,-75.4988 L 1248.05,-75.0372 L 1248.22,-74.5302 L 1248.27,-74 L 1248.27,-64.7024
 L 1248.61,-64.4804 L 1249.01,-64.1563 L 1249.38,-63.7921 L 1249.7,-63.3919 L 1249.98,-62.96 L 1250.22,-62.5011
 L 1250.4,-62.0204 L 1250.53,-61.5229 L 1250.62,-61.0143 L 1250.64,-60.5 L 1250.62,-59.9857 L 1250.53,-59.4771
 L 1250.4,-58.9796 L 1250.22,-58.4989 L 1249.98,-58.04 L 1249.7,-57.6081 L 1249.38,-57.2079 L 1249.01,-56.8437
 L 1248.61,-56.5196 L 1248.18,-56.2392 L 1247.72,-56.0054 L 1247.24,-55.8208 L 1246.75,-55.6875 L 1246.24,-55.607
 L 1245.72,-55.58 z
M 891.43,-55.607 L 890.922,-55.6875 L 890.424,-55.8208 L 889.943,-56.0054 L 889.484,-56.2392 L 889.053,-56.5196
 L 888.652,-56.8437 L 888.288,-57.2079 L 887.964,-57.6081 L 887.684,-58.04 L 887.45,-58.4989 L 887.265,-58.9796
 L 887.132,-59.4771 L 887.051,-59.9857 L 887.024,-60.5 L 887.051,-61.0143 L 887.132,-61.5229 L 887.265,-62.0204
 L 887.45,-62.5011 L 887.684,-62.96 L 887.964,-63.3919 L 888.288,-63.7921 L 888.652,-64.1563 L 889.053,-64.4804
 L 889.394,-64.7024 L 889.394,-74 L 889.45,-74.5302 L 889.615,-75.0372 L 889.881,-75.4988 L 890.238,-75.895
 L 890.669,-76.2084 L 891.156,-76.4252 L 891.678,-76.536 L 892.211,-76.536 L 892.732,-76.4252 L 893.219,-76.2084
 L 893.651,-75.895 L 894.007,-75.4988 L 894.274,-75.0372 L 894.439,-74.5302 L 894.494,-74 L 894.494,-64.7024
 L 894.836,-64.4804 L 895.237,-64.1563 L 895.601,-63.7921 L 895.925,-63.3919 L 896.205,-62.96 L 896.439,-62.5011
 L 896.624,-62.0204 L 896.757,-61.5229 L 896.837,-61.0143 L 896.864,-60.5 L 896.837,-59.9857 L 896.757,-59.4771
 L 896.624,-58.9796 L 896.439,-58.4989 L 896.205,-58.04 L 895.925,-57.6081 L 895.601,-57.2079 L 895.237,-56.8437
 L 894.836,-56.5196 L 894.404,-56.2392 L 893.946,-56.0054 L 893.465,-55.8208 L 892.967,-55.6875 L 892.459,-55.607
 L 891.944,-55.58 z
M 714.541,-55.607 L 714.033,-55.6875 L 713.535,-55.8208 L 713.054,-56.0054 L 712.596,-56.2392 L 712.164,-56.5196
 L 711.763,-56.8437 L 711.399,-57.2079 L 711.075,-57.6081 L 710.795,-58.04 L 710.561,-58.4989 L 710.376,-58.9796
 L 710.243,-59.4771 L 710.163,-59.9857 L 710.136,-60.5 L 710.163,-61.0143 L 710.243,-61.5229 L 710.376,-62.0204
 L 710.561,-62.5011 L 710.795,-62.96 L 711.075,-63.3919 L 711.399,-63.7921 L 711.763,-64.1563 L 712.164,-64.4804
 L 712.506,-64.7024 L 712.506,-74 L 712.561,-74.5302 L 712.726,-75.0372 L 712.993,-75.4988 L 713.349,-75.895
 L 713.781,-76.2084 L 714.268,-76.4252 L 714.789,-76.536 L 715.322,-76.536 L 715.844,-76.4252 L 716.331,-76.2084
 L 716.762,-75.895 L 717.119,-75.4988 L 717.385,-75.0372 L 717.55,-74.5302 L 717.606,-74 L 717.606,-64.7024
 L 717.947,-64.4804 L 718.348,-64.1563 L 718.712,-63.7921 L 719.036,-63.3919 L 719.316,-62.96 L 719.55,-62.5011
 L 719.735,-62.0204 L 719.868,-61.5229 L 719.949,-61.0143 L 719.976,-60.5 L 719.949,-59.9857 L 719.868,-59.4771
 L 719.735,-58.9796 L 719.55,-58.4989 L 719.316,-58.04 L 719.036,-57.6081 L 718.712,-57.2079 L 718.348,-56.8437
 L 717.947,-56.5196 L 717.516,-56.2392 L 717.057,-56.0054 L 716.576,-55.8208 L 716.078,-55.6875 L 715.57,-55.607
 L 715.056,-55.58 z
M 1422.1,-55.607 L 1421.59,-55.6875 L 1421.09,-55.8208 L 1420.61,-56.0054 L 1420.15,-56.2392 L 1419.72,-56.5196
 L 1419.32,-56.8437 L 1418.95,-57.2079 L 1418.63,-57.6081 L 1418.35,-58.04 L 1418.12,-58.4989 L 1417.93,-58.9796
 L 1417.8,-59.4771 L 1417.72,-59.9857 L 1417.69,-60.5 L 1417.72,-61.0143 L 1417.8,-61.5229 L 1417.93,-62.0204
 L 1418.12,-62.5011 L 1418.35,-62.96 L 1418.63,-63.3919 L 1418.95,-63.7921 L 1419.32,-64.1563 L 1419.72,-64.4804
 L 1420.06,-64.7024 L 1420.06,-74 L 1420.12,-74.5302 L 1420.28,-75.0372 L 1420.55,-75.4988 L 1420.9,-75.895
 L 1421.34,-76.2084 L 1421.82,-76.4252 L 1422.34,-76.536 L 1422.88,-76.536 L 1423.4,-76.4252 L 1423.89,-76.2084
 L 1424.32,-75.895 L 1424.67,-75.4988 L 1424.94,-75.0372 L 1425.11,-74.5302 L 1425.16,-74 L 1425.16,-64.7024
 L 1425.5,-64.4804 L 1425.9,-64.1563 L 1426.27,-63.7921 L 1426.59,-63.3919 L 1426.87,-62.96 L 1427.11,-62.5011
 L 1427.29,-62.0204 L 1427.42,-61.5229 L 1427.5,-61.0143 L 1427.53,-60.5 L 1427.5,-59.9857 L 1427.42,-59.4771
 L 1427.29,-58.9796 L 1427.11,-58.4989 L 1426.87,-58.04 L 1426.59,-57.6081 L 1426.27,-57.2079 L 1425.9,-56.8437
 L 1425.5,-56.5196 L 1425.07,-56.2392 L 1424.61,-56.0054 L 1424.13,-55.8208 L 1423.63,-55.6875 L 1423.13,-55.607
 L 1422.61,-55.58 z
M 537.652,-55.607 L 537.144,-55.6875 L 536.646,-55.8208 L 536.166,-56.0054 L 535.707,-56.2392 L 535.275,-56.5196
 L 534.875,-56.8437 L 534.51,-57.2079 L 534.186,-57.6081 L 533.906,-58.04 L 533.672,-58.4989 L 533.487,-58.9796
 L 533.354,-59.4771 L 533.274,-59.9857 L 533.247,-60.5 L 533.274,-61.0143 L 533.354,-61.5229 L 533.487,-62.0204
 L 533.672,-62.5011 L 533.906,-62.96 L 534.186,-63.3919 L 534.51,-63.7921 L 534.875,-64.1563 L 535.275,-64.4804
 L 535.617,-64.7024 L 535.617,-74 L 535.672,-74.5302 L 535.837,-75.0372 L 536.104,-75.4988 L 536.46,-75.895
 L 536.892,-76.2084 L 537.379,-76.4252 L 537.9,-76.536 L 538.433,-76.536 L 538.955,-76.4252 L 539.442,-76.2084
 L 539.873,-75.895 L 540.23,-75.4988 L 540.496,-75.0372 L 540.661,-74.5302 L 540.717,-74 L 540.717,-64.7024
 L 541.059,-64.4804 L 541.459,-64.1563 L 541.823,-63.7921 L 542.147,-63.3919 L 542.427,-62.96 L 542.661,-62.5011
 L 542.846,-62.0204 L 542.979,-61.5229 L 543.06,-61.0143 L 543.087,-60.5 L 543.06,-59.9857 L 542.979,-59.4771
 L 542.846,-58.9796 L 542.661,-58.4989 L 542.427,-58.04 L 542.147,-57.6081 L 541.823,-57.2079 L 541.459,-56.8437
 L 541.059,-56.5196 L 540.627,-56.2392 L 540.168,-56.0054 L 539.687,-55.8208 L 539.19,-55.6875 L 538.681,-55.607
 L 538.167,-55.58 z
M 360.764,-55.607 L 360.255,-55.6875 L 359.757,-55.8208 L 359.277,-56.0054 L 358.818,-56.2392 L 358.386,-56.5196
 L 357.986,-56.8437 L 357.622,-57.2079 L 357.297,-57.6081 L 357.017,-58.04 L 356.783,-58.4989 L 356.599,-58.9796
 L 356.465,-59.4771 L 356.385,-59.9857 L 356.358,-60.5 L 356.385,-61.0143 L 356.465,-61.5229 L 356.599,-62.0204
 L 356.783,-62.5011 L 357.017,-62.96 L 357.297,-63.3919 L 357.622,-63.7921 L 357.986,-64.1563 L 358.386,-64.4804
 L 358.728,-64.7024 L 358.728,-74 L 358.784,-74.5302 L 358.948,-75.0372 L 359.215,-75.4988 L 359.572,-75.895
 L 360.003,-76.2084 L 360.49,-76.4252 L 361.011,-76.536 L 361.544,-76.536 L 362.066,-76.4252 L 362.553,-76.2084
 L 362.984,-75.895 L 363.341,-75.4988 L 363.607,-75.0372 L 363.772,-74.5302 L 363.828,-74 L 363.828,-64.7024
 L 364.17,-64.4804 L 364.57,-64.1563 L 364.934,-63.7921 L 365.258,-63.3919 L 365.539,-62.96 L 365.772,-62.5011
 L 365.957,-62.0204 L 366.09,-61.5229 L 366.171,-61.0143 L 366.198,-60.5 L 366.171,-59.9857 L 366.09,-59.4771
 L 365.957,-58.9796 L 365.772,-58.4989 L 365.539,-58.04 L 365.258,-57.6081 L 364.934,-57.2079 L 364.57,-56.8437
 L 364.17,-56.5196 L 363.738,-56.2392 L 363.279,-56.0054 L 362.798,-55.8208 L 362.301,-55.6875 L 361.792,-55.607
 L 361.278,-55.58 z
M 1598.99,-55.607 L 1598.48,-55.6875 L 1597.98,-55.8208 L 1597.5,-56.0054 L 1597.04,-56.2392 L 1596.61,-56.5196
 L 1596.21,-56.8437 L 1595.84,-57.2079 L 1595.52,-57.6081 L 1595.24,-58.04 L 1595.01,-58.4989 L 1594.82,-58.9796
 L 1594.69,-59.4771 L 1594.61,-59.9857 L 1594.58,-60.5 L 1594.61,-61.0143 L 1594.69,-61.5229 L 1594.82,-62.0204
 L 1595.01,-62.5011 L 1595.24,-62.96 L 1595.52,-63.3919 L 1595.84,-63.7921 L 1596.21,-64.1563 L 1596.61,-64.4804
 L 1596.95,-64.7024 L 1596.95,-74 L 1597.01,-74.5302 L 1597.17,-75.0372 L 1597.44,-75.4988 L 1597.79,-75.895
 L 1598.23,-76.2084 L 1598.71,-76.4252 L 1599.23,-76.536 L 1599.77,-76.536 L 1600.29,-76.4252 L 1600.77,-76.2084
 L 1601.21,-75.895 L 1601.56,-75.4988 L 1601.83,-75.0372 L 1601.99,-74.5302 L 1602.05,-74 L 1602.05,-64.7024
 L 1602.39,-64.4804 L 1602.79,-64.1563 L 1603.16,-63.7921 L 1603.48,-63.3919 L 1603.76,-62.96 L 1603.99,-62.5011
 L 1604.18,-62.0204 L 1604.31,-61.5229 L 1604.39,-61.0143 L 1604.42,-60.5 L 1604.39,-59.9857 L 1604.31,-59.4771
 L 1604.18,-58.9796 L 1603.99,-58.4989 L 1603.76,-58.04 L 1603.48,-57.6081 L 1603.16,-57.2079 L 1602.79,-56.8437
 L 1602.39,-56.5196 L 1601.96,-56.2392 L 1601.5,-56.0054 L 1601.02,-55.8208 L 1600.52,-55.6875 L 1600.01,-55.607
 L 1599.5,-55.58 z
M 183.875,-55.607 L 183.366,-55.6875 L 182.869,-55.8208 L 182.388,-56.0054 L 181.929,-56.2392 L 181.497,-56.5196
 L 181.097,-56.8437 L 180.733,-57.2079 L 180.409,-57.6081 L 180.128,-58.04 L 179.894,-58.4989 L 179.71,-58.9796
 L 179.576,-59.4771 L 179.496,-59.9857 L 179.469,-60.5 L 179.496,-61.0143 L 179.576,-61.5229 L 179.71,-62.0204
 L 179.894,-62.5011 L 180.128,-62.96 L 180.409,-63.3919 L 180.733,-63.7921 L 181.097,-64.1563 L 181.497,-64.4804
 L 181.839,-64.7024 L 181.839,-74 L 181.895,-74.5302 L 182.059,-75.0372 L 182.326,-75.4988 L 182.683,-75.895
 L 183.114,-76.2084 L 183.601,-76.4252 L 184.122,-76.536 L 184.655,-76.536 L 185.177,-76.4252 L 185.664,-76.2084
 L 186.095,-75.895 L 186.452,-75.4988 L 186.718,-75.0372 L 186.883,-74.5302 L 186.939,-74 L 186.939,-64.7024
 L 187.281,-64.4804 L 187.681,-64.1563 L 188.045,-63.7921 L 188.369,-63.3919 L 188.65,-62.96 L 188.884,-62.5011
 L 189.068,-62.0204 L 189.201,-61.5229 L 189.282,-61.0143 L 189.309,-60.5 L 189.282,-59.9857 L 189.201,-59.4771
 L 189.068,-58.9796 L 188.884,-58.4989 L 188.65,-58.04 L 188.369,-57.6081 L 188.045,-57.2079 L 187.681,-56.8437
 L 187.281,-56.5196 L 186.849,-56.2392 L 186.39,-56.0054 L 185.909,-55.8208 L 185.412,-55.6875 L 184.903,-55.607
 L 184.389,-55.58 z
M 1080.8,-21.042 L 1080.02,-21.3413 L 1079.32,-21.7964 L 1078.73,-22.3874 L 1078.27,-23.0885 L 1077.97,-23.8691
 L 1077.83,-24.9062 L 1077.83,-58 L 1077.92,-58.8316 L 1078.18,-59.627 L 1078.6,-60.3511 L 1079.16,-60.9726
 L 1079.83,-61.4641 L 1080.6,-61.8042 L 1081.83,-62 L 1167.92,-62 L 1168.75,-61.9126 L 1169.55,-61.6542
 L 1170.27,-61.2361 L 1170.89,-60.6765 L 1171.38,-60 L 1171.72,-59.2361 L 1171.9,-58.4181 L 1171.9,-57.5819
 L 1171.72,-56.7639 L 1171.38,-56 L 1170.89,-55.3235 L 1170.27,-54.7639 L 1169.36,-54.2664 L 1083.27,-21.1726
 L 1082.46,-20.9558 L 1081.63,-20.9116 z
M 903.911,-21.042 L 903.13,-21.3413 L 902.429,-21.7964 L 901.837,-22.3874 L 901.381,-23.0885 L 901.081,-23.8691
 L 900.944,-24.9062 L 900.944,-58 L 901.032,-58.8316 L 901.29,-59.627 L 901.708,-60.3511 L 902.268,-60.9726
 L 902.944,-61.4641 L 903.708,-61.8042 L 904.944,-62 L 991.032,-62 L 991.863,-61.9126 L 992.658,-61.6542
 L 993.383,-61.2361 L 994.004,-60.6765 L 994.496,-60 L 994.836,-59.2361 L 995.01,-58.4181 L 995.01,-57.5819
 L 994.836,-56.7639 L 994.496,-56 L 994.004,-55.3235 L 993.383,-54.7639 L 992.467,-54.2664 L 906.38,-21.1726
 L 905.572,-20.9558 L 904.737,-20.9116 z
M 802.872,-47.8185 L 802.065,-48.0353 L 785.856,-54.2664 L 784.94,-54.7639 L 784.318,-55.3235 L 783.827,-56
 L 783.487,-56.7639 L 783.313,-57.5819 L 783.313,-58.4181 L 783.487,-59.2361 L 783.827,-60 L 784.318,-60.6765
 L 784.94,-61.2361 L 785.664,-61.6542 L 786.459,-61.9126 L 787.291,-62 L 819.709,-62 L 820.742,-61.8642
 L 821.523,-61.5649 L 822.225,-61.1098 L 822.816,-60.5188 L 823.272,-59.8177 L 823.572,-59.0372 L 823.703,-58.2113
 L 823.66,-57.3762 L 823.444,-56.5683 L 823.065,-55.8231 L 822.539,-55.1729 L 821.889,-54.6464 L 821.144,-54.2664
 L 804.935,-48.0353 L 804.533,-47.9047 L 803.707,-47.7743 z
M 701.428,-20.9558 L 700.62,-21.1726 L 614.533,-54.2664 L 613.617,-54.7639 L 612.996,-55.3235 L 612.504,-56
 L 612.164,-56.7639 L 611.99,-57.5819 L 611.99,-58.4181 L 612.164,-59.2361 L 612.504,-60 L 612.996,-60.6765
 L 613.617,-61.2361 L 614.342,-61.6542 L 615.137,-61.9126 L 615.968,-62 L 702.056,-62 L 703.292,-61.8042
 L 704.056,-61.4641 L 704.732,-60.9726 L 705.292,-60.3511 L 705.71,-59.627 L 705.968,-58.8316 L 706.056,-58
 L 706.056,-24.9062 L 705.919,-23.8691 L 705.619,-23.0885 L 705.163,-22.3874 L 704.571,-21.7964 L 703.87,-21.3413
 L 703.089,-21.042 L 702.263,-20.9116 z
M 524.539,-20.9558 L 523.731,-21.1726 L 437.644,-54.2664 L 436.728,-54.7639 L 436.107,-55.3235 L 435.615,-56
 L 435.275,-56.7639 L 435.102,-57.5819 L 435.102,-58.4181 L 435.275,-59.2361 L 435.615,-60 L 436.107,-60.6765
 L 436.728,-61.2361 L 437.453,-61.6542 L 438.248,-61.9126 L 439.08,-62 L 525.167,-62 L 526.403,-61.8042
 L 527.167,-61.4641 L 527.843,-60.9726 L 528.403,-60.3511 L 528.821,-59.627 L 529.079,-58.8316 L 529.167,-58
 L 529.167,-24.9062 L 529.03,-23.8691 L 528.73,-23.0885 L 528.274,-22.3874 L 527.682,-21.7964 L 526.981,-21.3413
 L 526.2,-21.042 L 525.374,-20.9116 z
M 347.65,-20.9558 L 346.842,-21.1726 L 260.755,-54.2664 L 259.84,-54.7639 L 259.218,-55.3235 L 258.727,-56
 L 258.386,-56.7639 L 258.213,-57.5819 L 258.213,-58.4181 L 258.386,-59.2361 L 258.727,-60 L 259.218,-60.6765
 L 259.84,-61.2361 L 260.564,-61.6542 L 261.359,-61.9126 L 262.191,-62 L 348.278,-62 L 349.514,-61.8042
 L 350.278,-61.4641 L 350.954,-60.9726 L 351.514,-60.3511 L 351.932,-59.627 L 352.19,-58.8316 L 352.278,-58
 L 352.278,-24.9062 L 352.141,-23.8691 L 351.841,-23.0885 L 351.385,-22.3874 L 350.794,-21.7964 L 350.092,-21.3413
 L 349.311,-21.042 L 348.485,-20.9116 z
M 1434.58,-21.042 L 1433.8,-21.3413 L 1433.1,-21.7964 L 1432.5,-22.3874 L 1432.05,-23.0885 L 1431.75,-23.8691
 L 1431.61,-24.9062 L 1431.61,-58 L 1431.7,-58.8316 L 1431.96,-59.627 L 1432.38,-60.3511 L 1432.93,-60.9726
 L 1433.61,-61.4641 L 1434.38,-61.8042 L 1435.61,-62 L 1521.7,-62 L 1522.53,-61.9126 L 1523.33,-61.6542
 L 1524.05,-61.2361 L 1524.67,-60.6765 L 1525.16,-60 L 1525.5,-59.2361 L 1525.68,-58.4181 L 1525.68,-57.5819
 L 1525.5,-56.7639 L 1525.16,-56 L 1524.67,-55.3235 L 1524.05,-54.7639 L 1523.13,-54.2664 L 1437.05,-21.1726
 L 1436.24,-20.9558 L 1435.4,-20.9116 z
M 170.761,-20.9558 L 169.954,-21.1726 L 83.8665,-54.2664 L 82.9507,-54.7639 L 82.3292,-55.3235 L 81.8377,-56
 L 81.4976,-56.7639 L 81.3237,-57.5819 L 81.3237,-58.4181 L 81.4976,-59.2361 L 81.8377,-60 L 82.3292,-60.6765
 L 82.9507,-61.2361 L 83.6749,-61.6542 L 84.4702,-61.9126 L 85.3018,-62 L 171.389,-62 L 172.625,-61.8042
 L 173.389,-61.4641 L 174.065,-60.9726 L 174.625,-60.3511 L 175.043,-59.627 L 175.301,-58.8316 L 175.389,-58
 L 175.389,-24.9062 L 175.252,-23.8691 L 174.952,-23.0885 L 174.496,-22.3874 L 173.905,-21.7964 L 173.203,-21.3413
 L 172.422,-21.042 L 171.596,-20.9116 z
M 1257.69,-21.042 L 1256.91,-21.3413 L 1256.21,-21.7964 L 1255.61,-22.3874 L 1255.16,-23.0885 L 1254.86,-23.8691
 L 1254.72,-24.9062 L 1254.72,-58 L 1254.81,-58.8316 L 1255.07,-59.627 L 1255.49,-60.3511 L 1256.05,-60.9726
 L 1256.72,-61.4641 L 1257.49,-61.8042 L 1258.72,-62 L 1344.81,-62 L 1345.64,-61.9126 L 1346.44,-61.6542
 L 1347.16,-61.2361 L 1347.78,-60.6765 L 1348.27,-60 L 1348.61,-59.2361 L 1348.79,-58.4181 L 1348.79,-57.5819
 L 1348.61,-56.7639 L 1348.27,-56 L 1347.78,-55.3235 L 1347.16,-54.7639 L 1346.24,-54.2664 L 1260.16,-21.1726
 L 1259.35,-20.9558 L 1258.51,-20.9116 z
M 727.637,-18.7883 L 726.819,-18.9622 L 726.056,-19.3023 L 725.379,-19.7939 L 724.819,-20.4153 L 724.401,-21.1395
 L 724.143,-21.9348 L 724.056,-22.7664 L 724.056,-57.2336 L 724.192,-58.2707 L 724.492,-59.0513 L 724.948,-59.7524
 L 725.54,-60.3434 L 726.241,-60.7985 L 727.022,-61.0978 L 727.848,-61.2282 L 728.683,-61.184 L 729.491,-60.9672
 L 774.321,-43.7336 L 775.401,-43.1098 L 775.993,-42.5188 L 776.448,-41.8177 L 776.749,-41.0372 L 776.88,-40.2113
 L 776.836,-39.3762 L 776.62,-38.5683 L 776.241,-37.8231 L 775.715,-37.1729 L 775.066,-36.6464 L 774.321,-36.2664
 L 729.491,-19.0328 L 728.474,-18.7883 z
M 878.317,-18.816 L 877.509,-19.0328 L 832.679,-36.2664 L 831.599,-36.8902 L 831.007,-37.4812 L 830.551,-38.1823
 L 830.251,-38.9628 L 830.12,-39.7887 L 830.164,-40.6238 L 830.38,-41.4317 L 830.759,-42.1769 L 831.285,-42.8271
 L 831.934,-43.3536 L 832.679,-43.7336 L 877.509,-60.9672 L 878.526,-61.2117 L 879.363,-61.2117 L 880.18,-61.0378
 L 880.944,-60.6977 L 881.621,-60.2061 L 882.18,-59.5847 L 882.599,-58.8605 L 882.857,-58.0652 L 882.944,-57.2336
 L 882.944,-22.7664 L 882.808,-21.7293 L 882.508,-20.9487 L 882.052,-20.2476 L 881.46,-19.6566 L 880.759,-19.2015
 L 879.978,-18.9022 L 879.152,-18.7718 z
M 197.389,-18 L 196.153,-18.1958 L 195.389,-18.5359 L 194.712,-19.0274 L 194.153,-19.6489 L 193.735,-20.373
 L 193.476,-21.1684 L 193.389,-22 L 193.389,-55.0938 L 193.526,-56.1309 L 193.826,-56.9114 L 194.282,-57.6125
 L 194.873,-58.2036 L 195.575,-58.6587 L 196.355,-58.958 L 197.181,-59.0884 L 198.017,-59.0442 L 198.824,-58.8274
 L 284.911,-25.7336 L 285.827,-25.2361 L 286.449,-24.6765 L 286.94,-24 L 287.28,-23.2361 L 287.454,-22.4181
 L 287.454,-21.5819 L 287.28,-20.7639 L 286.94,-20 L 286.449,-19.3235 L 285.827,-18.7639 L 285.103,-18.3458
 L 284.308,-18.0874 L 283.476,-18 z
M 374.278,-18 L 373.042,-18.1958 L 372.278,-18.5359 L 371.601,-19.0274 L 371.042,-19.6489 L 370.624,-20.373
 L 370.365,-21.1684 L 370.278,-22 L 370.278,-55.0938 L 370.415,-56.1309 L 370.715,-56.9114 L 371.17,-57.6125
 L 371.762,-58.2036 L 372.464,-58.6587 L 373.244,-58.958 L 374.07,-59.0884 L 374.905,-59.0442 L 375.713,-58.8274
 L 461.8,-25.7336 L 462.716,-25.2361 L 463.337,-24.6765 L 463.829,-24 L 464.169,-23.2361 L 464.343,-22.4181
 L 464.343,-21.5819 L 464.169,-20.7639 L 463.829,-20 L 463.337,-19.3235 L 462.716,-18.7639 L 461.992,-18.3458
 L 461.196,-18.0874 L 460.365,-18 z
M 551.167,-18 L 549.931,-18.1958 L 549.167,-18.5359 L 548.49,-19.0274 L 547.931,-19.6489 L 547.512,-20.373
 L 547.254,-21.1684 L 547.167,-22 L 547.167,-55.0938 L 547.303,-56.1309 L 547.604,-56.9114 L 548.059,-57.6125
 L 548.651,-58.2036 L 549.352,-58.6587 L 550.133,-58.958 L 550.959,-59.0884 L 551.794,-59.0442 L 552.602,-58.8274
 L 638.689,-25.7336 L 639.605,-25.2361 L 640.226,-24.6765 L 640.718,-24 L 641.058,-23.2361 L 641.232,-22.4181
 L 641.232,-21.5819 L 641.058,-20.7639 L 640.718,-20 L 640.226,-19.3235 L 639.605,-18.7639 L 638.881,-18.3458
 L 638.085,-18.0874 L 637.254,-18 z
M 969.746,-18 L 968.915,-18.0874 L 968.119,-18.3458 L 967.395,-18.7639 L 966.774,-19.3235 L 966.282,-20
 L 965.942,-20.7639 L 965.768,-21.5819 L 965.768,-22.4181 L 965.942,-23.2361 L 966.282,-24 L 966.774,-24.6765
 L 967.395,-25.2361 L 968.311,-25.7336 L 1054.4,-58.8274 L 1055.21,-59.0442 L 1056.04,-59.0884 L 1056.87,-58.958
 L 1057.65,-58.6587 L 1058.35,-58.2036 L 1058.94,-57.6125 L 1059.4,-56.9114 L 1059.7,-56.1309 L 1059.83,-55.0938
 L 1059.83,-22 L 1059.75,-21.1684 L 1059.49,-20.373 L 1059.07,-19.6489 L 1058.51,-19.0274 L 1057.83,-18.5359
 L 1057.07,-18.1958 L 1055.83,-18 z
M 1146.64,-18 L 1145.8,-18.0874 L 1145.01,-18.3458 L 1144.28,-18.7639 L 1143.66,-19.3235 L 1143.17,-20
 L 1142.83,-20.7639 L 1142.66,-21.5819 L 1142.66,-22.4181 L 1142.83,-23.2361 L 1143.17,-24 L 1143.66,-24.6765
 L 1144.28,-25.2361 L 1145.2,-25.7336 L 1231.29,-58.8274 L 1232.09,-59.0442 L 1232.93,-59.0884 L 1233.76,-58.958
 L 1234.54,-58.6587 L 1235.24,-58.2036 L 1235.83,-57.6125 L 1236.29,-56.9114 L 1236.59,-56.1309 L 1236.72,-55.0938
 L 1236.72,-22 L 1236.63,-21.1684 L 1236.38,-20.373 L 1235.96,-19.6489 L 1235.4,-19.0274 L 1234.72,-18.5359
 L 1233.96,-18.1958 L 1232.72,-18 z
M 1323.52,-18 L 1322.69,-18.0874 L 1321.9,-18.3458 L 1321.17,-18.7639 L 1320.55,-19.3235 L 1320.06,-20
 L 1319.72,-20.7639 L 1319.55,-21.5819 L 1319.55,-22.4181 L 1319.72,-23.2361 L 1320.06,-24 L 1320.55,-24.6765
 L 1321.17,-25.2361 L 1322.09,-25.7336 L 1408.18,-58.8274 L 1408.98,-59.0442 L 1409.82,-59.0884 L 1410.64,-58.958
 L 1411.43,-58.6587 L 1412.13,-58.2036 L 1412.72,-57.6125 L 1413.17,-56.9114 L 1413.47,-56.1309 L 1413.61,-55.0938
 L 1413.61,-22 L 1413.52,-21.1684 L 1413.27,-20.373 L 1412.85,-19.6489 L 1412.29,-19.0274 L 1411.61,-18.5359
 L 1410.85,-18.1958 L 1409.61,-18 z
M 22,-18 L 20.7639,-18.1958 L 20,-18.5359 L 19.3235,-19.0274 L 18.7639,-19.6489 L 18.3458,-20.373
 L 18.0874,-21.1684 L 18,-22 L 18,-54.5171 L 18.1368,-55.5543 L 18.4369,-56.3348 L 18.8926,-57.0359
 L 19.4842,-57.6269 L 20.1858,-58.082 L 20.9666,-58.3813 L 21.7926,-58.5117 L 22.6277,-58.4676 L 23.4353,-58.2507
 L 108.022,-25.7336 L 108.938,-25.2361 L 109.56,-24.6765 L 110.051,-24 L 110.391,-23.2361 L 110.565,-22.4181
 L 110.565,-21.5819 L 110.391,-20.7639 L 110.051,-20 L 109.56,-19.3235 L 108.938,-18.7639 L 108.214,-18.3458
 L 107.419,-18.0874 L 106.587,-18 z
M 1500.41,-18 L 1499.58,-18.0874 L 1498.79,-18.3458 L 1498.06,-18.7639 L 1497.44,-19.3235 L 1496.95,-20
 L 1496.61,-20.7639 L 1496.43,-21.5819 L 1496.43,-22.4181 L 1496.61,-23.2361 L 1496.95,-24 L 1497.44,-24.6765
 L 1498.06,-25.2361 L 1498.98,-25.7336 L 1583.56,-58.2507 L 1584.37,-58.4676 L 1585.21,-58.5117 L 1586.03,-58.3813
 L 1586.81,-58.082 L 1587.52,-57.6269 L 1588.11,-57.0359 L 1588.56,-56.3348 L 1588.86,-55.5543 L 1589,-54.5171
 L 1589,-22 L 1588.91,-21.1684 L 1588.65,-20.373 L 1588.24,-19.6489 L 1587.68,-19.0274 L 1587,-18.5359
 L 1586.24,-18.1958 L 1585,-18 z
M 787.291,-18 L 786.258,-18.1358 L 785.477,-18.4351 L 784.775,-18.8902 L 784.184,-19.4812 L 783.728,-20.1823
 L 783.428,-20.9628 L 783.297,-21.7887 L 783.34,-22.6238 L 783.556,-23.4317 L 783.935,-24.1769 L 784.461,-24.8271
 L 785.111,-25.3536 L 785.856,-25.7336 L 802.065,-31.9647 L 802.467,-32.0953 L 803.293,-32.2257 L 804.128,-32.1815
 L 804.935,-31.9647 L 821.144,-25.7336 L 822.06,-25.2361 L 822.681,-24.6765 L 823.173,-24 L 823.513,-23.2361
 L 823.687,-22.4181 L 823.687,-21.5819 L 823.513,-20.7639 L 823.173,-20 L 822.681,-19.3235 L 822.06,-18.7639
 L 821.336,-18.3458 L 820.541,-18.0874 L 819.709,-18 z
" stroke="black" fill="lightgray" stroke-width="0.5"/>
</svg>
