<?xml version="1.0" standalone="no"?>
<!DOCTYPE svg PUBLIC "-//W3C//DTD SVG 1.1//EN" "http://www.w3.org/Graphics/SVG/1.1/DTD/svg11.dtd">
<svg width="1647mm" height="80mm" viewBox="0 -80 1647 80" xmlns="http://www.w3.org/2000/svg" version="1.1">
<title>OpenSCAD Model</title>
<path d="
M 1647,-80 L 0,-80 L 0,-0 L 4.95,-0 L 4.95,-6 L 5.00572,-6.53017
 L 5.17046,-7.03717 L 5.437,-7.49884 L 5.79372,-7.895 L 6.22499,-8.20836 L 6.71201,-8.42519 L 7.23344,-8.53603
 L 7.76654,-8.53603 L 8.28798,-8.42519 L 8.77499,-8.20836 L 9.20627,-7.895 L 9.56299,-7.49884 L 9.82953,-7.03717
 L 9.99426,-6.53017 L 10.05,-6 L 10.05,-0 L 186.283,-0 L 186.283,-6 L 186.339,-6.53017
 L 186.504,-7.03717 L 186.77,-7.49884 L 187.127,-7.895 L 187.558,-8.20836 L 188.045,-8.42519 L 188.567,-8.53603
 L 189.1,-8.53603 L 189.621,-8.42519 L 190.108,-8.20836 L 190.54,-7.895 L 190.896,-7.49884 L 191.163,-7.03717
 L 191.328,-6.53017 L 191.383,-6 L 191.383,-0 L 367.617,-0 L 367.617,-6 L 367.672,-6.53017
 L 367.837,-7.03717 L 368.104,-7.49884 L 368.46,-7.895 L 368.892,-8.20836 L 369.379,-8.42519 L 369.9,-8.53603
 L 370.433,-8.53603 L 370.955,-8.42519 L 371.442,-8.20836 L 371.873,-7.895 L 372.23,-7.49884 L 372.496,-7.03717
 L 372.661,-6.53017 L 372.717,-6 L 372.717,-0 L 548.95,-0 L 548.95,-6 L 549.006,-6.53017
 L 549.17,-7.03717 L 549.437,-7.49884 L 549.794,-7.895 L 550.225,-8.20836 L 550.712,-8.42519 L 551.233,-8.53603
 L 551.767,-8.53603 L 552.288,-8.42519 L 552.775,-8.20836 L 553.206,-7.895 L 553.563,-7.49884 L 553.83,-7.03717
 L 553.994,-6.53017 L 554.05,-6 L 554.05,-0 L 730.283,-0 L 730.283,-6 L 730.339,-6.53017
 L 730.504,-7.03717 L 730.77,-7.49884 L 731.127,-7.895 L 731.558,-8.20836 L 732.045,-8.42519 L 732.567,-8.53603
 L 733.1,-8.53603 L 733.621,-8.42519 L 734.108,-8.20836 L 734.54,-7.895 L 734.896,-7.49884 L 735.163,-7.03717
 L 735.328,-6.53017 L 735.383,-6 L 735.383,-0 L 911.617,-0 L 911.617,-6 L 911.672,-6.53017
 L 911.837,-7.03717 L 912.104,-7.49884 L 912.46,-7.895 L 912.892,-8.20836 L 913.379,-8.42519 L 913.9,-8.53603
 L 914.433,-8.53603 L 914.955,-8.42519 L 915.442,-8.20836 L 915.873,-7.895 L 916.23,-7.49884 L 916.496,-7.03717
 L 916.661,-6.53017 L 916.717,-6 L 916.717,-0 L 1092.95,-0 L 1092.95,-6 L 1093.01,-6.53017
 L 1093.17,-7.03717 L 1093.44,-7.49884 L 1093.79,-7.895 L 1094.22,-8.20836 L 1094.71,-8.42519 L 1095.23,-8.53603
 L 1095.77,-8.53603 L 1096.29,-8.42519 L 1096.77,-8.20836 L 1097.21,-7.895 L 1097.56,-7.49884 L 1097.83,-7.03717
 L 1097.99,-6.53017 L 1098.05,-6 L 1098.05,-0 L 1274.28,-0 L 1274.28,-6 L 1274.34,-6.53017
 L 1274.5,-7.03717 L 1274.77,-7.49884 L 1275.13,-7.895 L 1275.56,-8.20836 L 1276.05,-8.42519 L 1276.57,-8.53603
 L 1277.1,-8.53603 L 1277.62,-8.42519 L 1278.11,-8.20836 L 1278.54,-7.895 L 1278.9,-7.49884 L 1279.16,-7.03717
 L 1279.33,-6.53017 L 1279.38,-6 L 1279.38,-0 L 1455.62,-0 L 1455.62,-6 L 1455.67,-6.53017
 L 1455.84,-7.03717 L 1456.1,-7.49884 L 1456.46,-7.895 L 1456.89,-8.20836 L 1457.38,-8.42519 L 1457.9,-8.53603
 L 1458.43,-8.53603 L 1458.95,-8.42519 L 1459.44,-8.20836 L 1459.87,-7.895 L 1460.23,-7.49884 L 1460.5,-7.03717
 L 1460.66,-6.53017 L 1460.72,-6 L 1460.72,-0 L 1636.95,-0 L 1636.95,-6 L 1637.01,-6.53017
 L 1637.17,-7.03717 L 1637.44,-7.49884 L 1637.79,-7.895 L 1638.22,-8.20836 L 1638.71,-8.42519 L 1639.23,-8.53603
 L 1639.77,-8.53603 L 1640.29,-8.42519 L 1640.77,-8.20836 L 1641.21,-7.895 L 1641.56,-7.49884 L 1641.83,-7.03717
 L 1641.99,-6.53017 L 1642.05,-6 L 1642.05,-0 L 1647,-0 z
M 6.98573,-55.607 L 6.47708,-55.6875 L 5.97964,-55.8208 L 5.49887,-56.0054 L 5.04001,-56.2392 L 4.60811,-56.5196
 L 4.20789,-56.8437 L 3.84373,-57.2079 L 3.51964,-57.6081 L 3.23917,-58.04 L 3.00537,-58.4989 L 2.82082,-58.9796
 L 2.68752,-59.4771 L 2.60696,-59.9857 L 2.58,-60.5 L 2.60696,-61.0143 L 2.68752,-61.5229 L 2.82082,-62.0204
 L 3.00537,-62.5011 L 3.23917,-62.96 L 3.51964,-63.3919 L 3.84373,-63.7921 L 4.20789,-64.1563 L 4.60811,-64.4804
 L 4.95001,-64.7024 L 4.95001,-74 L 5.00574,-74.5302 L 5.17047,-75.0372 L 5.43701,-75.4988 L 5.79373,-75.895
 L 6.22501,-76.2084 L 6.71202,-76.4252 L 7.23346,-76.536 L 7.76654,-76.536 L 8.28798,-76.4252 L 8.77499,-76.2084
 L 9.20627,-75.895 L 9.56299,-75.4988 L 9.82953,-75.0372 L 9.99426,-74.5302 L 10.05,-74 L 10.05,-64.7024
 L 10.3919,-64.4804 L 10.7921,-64.1563 L 11.1563,-63.7921 L 11.4804,-63.3919 L 11.7608,-62.96 L 11.9946,-62.5011
 L 12.1792,-62.0204 L 12.3125,-61.5229 L 12.393,-61.0143 L 12.42,-60.5 L 12.393,-59.9857 L 12.3125,-59.4771
 L 12.1792,-58.9796 L 11.9946,-58.4989 L 11.7608,-58.04 L 11.4804,-57.6081 L 11.1563,-57.2079 L 10.7921,-56.8437
 L 10.3919,-56.5196 L 9.95999,-56.2392 L 9.50113,-56.0054 L 9.02036,-55.8208 L 8.52292,-55.6875 L 8.01427,-55.607
 L 7.5,-55.58 z
M 1094.99,-55.607 L 1094.48,-55.6875 L 1093.98,-55.8208 L 1093.5,-56.0054 L 1093.04,-56.2392 L 1092.61,-56.5196
 L 1092.21,-56.8437 L 1091.84,-57.2079 L 1091.52,-57.6081 L 1091.24,-58.04 L 1091.01,-58.4989 L 1090.82,-58.9796
 L 1090.69,-59.4771 L 1090.61,-59.9857 L 1090.58,-60.5 L 1090.61,-61.0143 L 1090.69,-61.5229 L 1090.82,-62.0204
 L 1091.01,-62.5011 L 1091.24,-62.96 L 1091.52,-63.3919 L 1091.84,-63.7921 L 1092.21,-64.1563 L 1092.61,-64.4804
 L 1092.95,-64.7024 L 1092.95,-74 L 1093.01,-74.5302 L 1093.17,-75.0372 L 1093.44,-75.4988 L 1093.79,-75.895
 L 1094.23,-76.2084 L 1094.71,-76.4252 L 1095.23,-76.536 L 1095.77,-76.536 L 1096.29,-76.4252 L 1096.77,-76.2084
 L 1097.21,-75.895 L 1097.56,-75.4988 L 1097.83,-75.0372 L 1097.99,-74.5302 L 1098.05,-74 L 1098.05,-64.7024
 L 1098.39,-64.4804 L 1098.79,-64.1563 L 1099.16,-63.7921 L 1099.48,-63.3919 L 1099.76,-62.96 L 1099.99,-62.5011
 L 1100.18,-62.0204 L 1100.31,-61.5229 L 1100.39,-61.0143 L 1100.42,-60.5 L 1100.39,-59.9857 L 1100.31,-59.4771
 L 1100.18,-58.9796 L 1099.99,-58.4989 L 1099.76,-58.04 L 1099.48,-57.6081 L 1099.16,-57.2079 L 1098.79,-56.8437
 L 1098.39,-56.5196 L 1097.96,-56.2392 L 1097.5,-56.0054 L 1097.02,-55.8208 L 1096.52,-55.6875 L 1096.01,-55.607
 L 1095.5,-55.58 z
M 1276.32,-55.607 L 1275.81,-55.6875 L 1275.31,-55.8208 L 1274.83,-56.0054 L 1274.37,-56.2392 L 1273.94,-56.5196
 L 1273.54,-56.8437 L 1273.18,-57.2079 L 1272.85,-57.6081 L 1272.57,-58.04 L 1272.34,-58.4989 L 1272.15,-58.9796
 L 1272.02,-59.4771 L 1271.94,-59.9857 L 1271.91,-60.5 L 1271.94,-61.0143 L 1272.02,-61.5229 L 1272.15,-62.0204
 L 1272.34,-62.5011 L 1272.57,-62.96 L 1272.85,-63.3919 L 1273.18,-63.7921 L 1273.54,-64.1563 L 1273.94,-64.4804
 L 1274.28,-64.7024 L 1274.28,-74 L 1274.34,-74.5302 L 1274.5,-75.0372 L 1274.77,-75.4988 L 1275.13,-75.895
 L 1275.56,-76.2084 L 1276.05,-76.4252 L 1276.57,-76.536 L 1277.1,-76.536 L 1277.62,-76.4252 L 1278.11,-76.2084
 L 1278.54,-75.895 L 1278.9,-75.4988 L 1279.16,-75.0372 L 1279.33,-74.5302 L 1279.38,-74 L 1279.38,-64.7024
 L 1279.73,-64.4804 L 1280.13,-64.1563 L 1280.49,-63.7921 L 1280.81,-63.3919 L 1281.09,-62.96 L 1281.33,-62.5011
 L 1281.51,-62.0204 L 1281.65,-61.5229 L 1281.73,-61.0143 L 1281.75,-60.5 L 1281.73,-59.9857 L 1281.65,-59.4771
 L 1281.51,-58.9796 L 1281.33,-58.4989 L 1281.09,-58.04 L 1280.81,-57.6081 L 1280.49,-57.2079 L 1280.13,-56.8437
 L 1279.73,-56.5196 L 1279.29,-56.2392 L 1278.83,-56.0054 L 1278.35,-55.8208 L 1277.86,-55.6875 L 1277.35,-55.607
 L 1276.83,-55.58 z
M 913.652,-55.607 L 913.144,-55.6875 L 912.646,-55.8208 L 912.166,-56.0054 L 911.707,-56.2392 L 911.275,-56.5196
 L 910.875,-56.8437 L 910.51,-57.2079 L 910.186,-57.6081 L 909.906,-58.04 L 909.672,-58.4989 L 909.487,-58.9796
 L 909.354,-59.4771 L 909.274,-59.9857 L 909.247,-60.5 L 909.274,-61.0143 L 909.354,-61.5229 L 909.487,-62.0204
 L 909.672,-62.5011 L 909.906,-62.96 L 910.186,-63.3919 L 910.51,-63.7921 L 910.875,-64.1563 L 911.275,-64.4804
 L 911.617,-64.7024 L 911.617,-74 L 911.672,-74.5302 L 911.837,-75.0372 L 912.104,-75.4988 L 912.46,-75.895
 L 912.892,-76.2084 L 913.379,-76.4252 L 913.9,-76.536 L 914.433,-76.536 L 914.955,-76.4252 L 915.442,-76.2084
 L 915.873,-75.895 L 916.23,-75.4988 L 916.496,-75.0372 L 916.661,-74.5302 L 916.717,-74 L 916.717,-64.7024
 L 917.059,-64.4804 L 917.459,-64.1563 L 917.823,-63.7921 L 918.147,-63.3919 L 918.427,-62.96 L 918.661,-62.5011
 L 918.846,-62.0204 L 918.979,-61.5229 L 919.06,-61.0143 L 919.087,-60.5 L 919.06,-59.9857 L 918.979,-59.4771
 L 918.846,-58.9796 L 918.661,-58.4989 L 918.427,-58.04 L 918.147,-57.6081 L 917.823,-57.2079 L 917.459,-56.8437
 L 917.059,-56.5196 L 916.627,-56.2392 L 916.168,-56.0054 L 915.687,-55.8208 L 915.19,-55.6875 L 914.681,-55.607
 L 914.167,-55.58 z
M 732.319,-55.607 L 731.81,-55.6875 L 731.313,-55.8208 L 730.832,-56.0054 L 730.373,-56.2392 L 729.941,-56.5196
 L 729.541,-56.8437 L 729.177,-57.2079 L 728.853,-57.6081 L 728.572,-58.04 L 728.339,-58.4989 L 728.154,-58.9796
 L 728.021,-59.4771 L 727.94,-59.9857 L 727.913,-60.5 L 727.94,-61.0143 L 728.021,-61.5229 L 728.154,-62.0204
 L 728.339,-62.5011 L 728.572,-62.96 L 728.853,-63.3919 L 729.177,-63.7921 L 729.541,-64.1563 L 729.941,-64.4804
 L 730.283,-64.7024 L 730.283,-74 L 730.339,-74.5302 L 730.504,-75.0372 L 730.77,-75.4988 L 731.127,-75.895
 L 731.558,-76.2084 L 732.045,-76.4252 L 732.567,-76.536 L 733.1,-76.536 L 733.621,-76.4252 L 734.108,-76.2084
 L 734.54,-75.895 L 734.896,-75.4988 L 735.163,-75.0372 L 735.328,-74.5302 L 735.383,-74 L 735.383,-64.7024
 L 735.725,-64.4804 L 736.125,-64.1563 L 736.49,-63.7921 L 736.814,-63.3919 L 737.094,-62.96 L 737.328,-62.5011
 L 737.513,-62.0204 L 737.646,-61.5229 L 737.726,-61.0143 L 737.753,-60.5 L 737.726,-59.9857 L 737.646,-59.4771
 L 737.513,-58.9796 L 737.328,-58.4989 L 737.094,-58.04 L 736.814,-57.6081 L 736.49,-57.2079 L 736.125,-56.8437
 L 735.725,-56.5196 L 735.293,-56.2392 L 734.834,-56.0054 L 734.354,-55.8208 L 733.856,-55.6875 L 733.348,-55.607
 L 732.833,-55.58 z
M 1457.65,-55.607 L 1457.14,-55.6875 L 1456.65,-55.8208 L 1456.17,-56.0054 L 1455.71,-56.2392 L 1455.27,-56.5196
 L 1454.87,-56.8437 L 1454.51,-57.2079 L 1454.19,-57.6081 L 1453.91,-58.04 L 1453.67,-58.4989 L 1453.49,-58.9796
 L 1453.35,-59.4771 L 1453.27,-59.9857 L 1453.25,-60.5 L 1453.27,-61.0143 L 1453.35,-61.5229 L 1453.49,-62.0204
 L 1453.67,-62.5011 L 1453.91,-62.96 L 1454.19,-63.3919 L 1454.51,-63.7921 L 1454.87,-64.1563 L 1455.27,-64.4804
 L 1455.62,-64.7024 L 1455.62,-74 L 1455.67,-74.5302 L 1455.84,-75.0372 L 1456.1,-75.4988 L 1456.46,-75.895
 L 1456.89,-76.2084 L 1457.38,-76.4252 L 1457.9,-76.536 L 1458.43,-76.536 L 1458.95,-76.4252 L 1459.44,-76.2084
 L 1459.87,-75.895 L 1460.23,-75.4988 L 1460.5,-75.0372 L 1460.66,-74.5302 L 1460.72,-74 L 1460.72,-64.7024
 L 1461.06,-64.4804 L 1461.46,-64.1563 L 1461.82,-63.7921 L 1462.15,-63.3919 L 1462.43,-62.96 L 1462.66,-62.5011
 L 1462.85,-62.0204 L 1462.98,-61.5229 L 1463.06,-61.0143 L 1463.09,-60.5 L 1463.06,-59.9857 L 1462.98,-59.4771
 L 1462.85,-58.9796 L 1462.66,-58.4989 L 1462.43,-58.04 L 1462.15,-57.6081 L 1461.82,-57.2079 L 1461.46,-56.8437
 L 1461.06,-56.5196 L 1460.63,-56.2392 L 1460.17,-56.0054 L 1459.69,-55.8208 L 1459.19,-55.6875 L 1458.68,-55.607
 L 1458.17,-55.58 z
M 550.986,-55.607 L 550.477,-55.6875 L 549.98,-55.8208 L 549.499,-56.0054 L 549.04,-56.2392 L 548.608,-56.5196
 L 548.208,-56.8437 L 547.844,-57.2079 L 547.52,-57.6081 L 547.239,-58.04 L 547.005,-58.4989 L 546.821,-58.9796
 L 546.688,-59.4771 L 546.607,-59.9857 L 546.58,-60.5 L 546.607,-61.0143 L 546.688,-61.5229 L 546.821,-62.0204
 L 547.005,-62.5011 L 547.239,-62.96 L 547.52,-63.3919 L 547.844,-63.7921 L 548.208,-64.1563 L 548.608,-64.4804
 L 548.95,-64.7024 L 548.95,-74 L 549.006,-74.5302 L 549.17,-75.0372 L 549.437,-75.4988 L 549.794,-75.895
 L 550.225,-76.2084 L 550.712,-76.4252 L 551.233,-76.536 L 551.767,-76.536 L 552.288,-76.4252 L 552.775,-76.2084
 L 553.206,-75.895 L 553.563,-75.4988 L 553.83,-75.0372 L 553.994,-74.5302 L 554.05,-74 L 554.05,-64.7024
 L 554.392,-64.4804 L 554.792,-64.1563 L 555.156,-63.7921 L 555.48,-63.3919 L 555.761,-62.96 L 555.995,-62.5011
 L 556.179,-62.0204 L 556.312,-61.5229 L 556.393,-61.0143 L 556.42,-60.5 L 556.393,-59.9857 L 556.312,-59.4771
 L 556.179,-58.9796 L 555.995,-58.4989 L 555.761,-58.04 L 555.48,-57.6081 L 555.156,-57.2079 L 554.792,-56.8437
 L 554.392,-56.5196 L 553.96,-56.2392 L 553.501,-56.0054 L 553.02,-55.8208 L 552.523,-55.6875 L 552.014,-55.607
 L 551.5,-55.58 z
M 369.652,-55.607 L 369.144,-55.6875 L 368.646,-55.8208 L 368.166,-56.0054 L 367.707,-56.2392 L 367.275,-56.5196
 L 366.875,-56.8437 L 366.51,-57.2079 L 366.186,-57.6081 L 365.906,-58.04 L 365.672,-58.4989 L 365.487,-58.9796
 L 365.354,-59.4771 L 365.274,-59.9857 L 365.247,-60.5 L 365.274,-61.0143 L 365.354,-61.5229 L 365.487,-62.0204
 L 365.672,-62.5011 L 365.906,-62.96 L 366.186,-63.3919 L 366.51,-63.7921 L 366.875,-64.1563 L 367.275,-64.4804
 L 367.617,-64.7024 L 367.617,-74 L 367.672,-74.5302 L 367.837,-75.0372 L 368.104,-75.4988 L 368.46,-75.895
 L 368.892,-76.2084 L 369.379,-76.4252 L 369.9,-76.536 L 370.433,-76.536 L 370.955,-76.4252 L 371.442,-76.2084
 L 371.873,-75.895 L 372.23,-75.4988 L 372.496,-75.0372 L 372.661,-74.5302 L 372.717,-74 L 372.717,-64.7024
 L 373.059,-64.4804 L 373.459,-64.1563 L 373.823,-63.7921 L 374.147,-63.3919 L 374.427,-62.96 L 374.661,-62.5011
 L 374.846,-62.0204 L 374.979,-61.5229 L 375.06,-61.0143 L 375.087,-60.5 L 375.06,-59.9857 L 374.979,-59.4771
 L 374.846,-58.9796 L 374.661,-58.4989 L 374.427,-58.04 L 374.147,-57.6081 L 373.823,-57.2079 L 373.459,-56.8437
 L 373.059,-56.5196 L 372.627,-56.2392 L 372.168,-56.0054 L 371.687,-55.8208 L 371.19,-55.6875 L 370.681,-55.607
 L 370.167,-55.58 z
M 1638.99,-55.607 L 1638.48,-55.6875 L 1637.98,-55.8208 L 1637.5,-56.0054 L 1637.04,-56.2392 L 1636.61,-56.5196
 L 1636.21,-56.8437 L 1635.84,-57.2079 L 1635.52,-57.6081 L 1635.24,-58.04 L 1635.01,-58.4989 L 1634.82,-58.9796
 L 1634.69,-59.4771 L 1634.61,-59.9857 L 1634.58,-60.5 L 1634.61,-61.0143 L 1634.69,-61.5229 L 1634.82,-62.0204
 L 1635.01,-62.5011 L 1635.24,-62.96 L 1635.52,-63.3919 L 1635.84,-63.7921 L 1636.21,-64.1563 L 1636.61,-64.4804
 L 1636.95,-64.7024 L 1636.95,-74 L 1637.01,-74.5302 L 1637.17,-75.0372 L 1637.44,-75.4988 L 1637.79,-75.895
 L 1638.23,-76.2084 L 1638.71,-76.4252 L 1639.23,-76.536 L 1639.77,-76.536 L 1640.29,-76.4252 L 1640.77,-76.2084
 L 1641.21,-75.895 L 1641.56,-75.4988 L 1641.83,-75.0372 L 1641.99,-74.5302 L 1642.05,-74 L 1642.05,-64.7024
 L 1642.39,-64.4804 L 1642.79,-64.1563 L 1643.16,-63.7921 L 1643.48,-63.3919 L 1643.76,-62.96 L 1643.99,-62.5011
 L 1644.18,-62.0204 L 1644.31,-61.5229 L 1644.39,-61.0143 L 1644.42,-60.5 L 1644.39,-59.9857 L 1644.31,-59.4771
 L 1644.18,-58.9796 L 1643.99,-58.4989 L 1643.76,-58.04 L 1643.48,-57.6081 L 1643.16,-57.2079 L 1642.79,-56.8437
 L 1642.39,-56.5196 L 1641.96,-56.2392 L 1641.5,-56.0054 L 1641.02,-55.8208 L 1640.52,-55.6875 L 1640.01,-55.607
 L 1639.5,-55.58 z
M 188.319,-55.607 L 187.81,-55.6875 L 187.313,-55.8208 L 186.832,-56.0054 L 186.373,-56.2392 L 185.941,-56.5196
 L 185.541,-56.8437 L 185.177,-57.2079 L 184.853,-57.6081 L 184.572,-58.04 L 184.339,-58.4989 L 184.154,-58.9796
 L 184.021,-59.4771 L 183.94,-59.9857 L 183.913,-60.5 L 183.94,-61.0143 L 184.021,-61.5229 L 184.154,-62.0204
 L 184.339,-62.5011 L 184.572,-62.96 L 184.853,-63.3919 L 185.177,-63.7921 L 185.541,-64.1563 L 185.941,-64.4804
 L 186.283,-64.7024 L 186.283,-74 L 186.339,-74.5302 L 186.504,-75.0372 L 186.77,-75.4988 L 187.127,-75.895
 L 187.558,-76.2084 L 188.045,-76.4252 L 188.567,-76.536 L 189.1,-76.536 L 189.621,-76.4252 L 190.108,-76.2084
 L 190.54,-75.895 L 190.896,-75.4988 L 191.163,-75.0372 L 191.328,-74.5302 L 191.383,-74 L 191.383,-64.7024
 L 191.725,-64.4804 L 192.125,-64.1563 L 192.49,-63.7921 L 192.814,-63.3919 L 193.094,-62.96 L 193.328,-62.5011
 L 193.513,-62.0204 L 193.646,-61.5229 L 193.726,-61.0143 L 193.753,-60.5 L 193.726,-59.9857 L 193.646,-59.4771
 L 193.513,-58.9796 L 193.328,-58.4989 L 193.094,-58.04 L 192.814,-57.6081 L 192.49,-57.2079 L 192.125,-56.8437
 L 191.725,-56.5196 L 191.293,-56.2392 L 190.834,-56.0054 L 190.354,-55.8208 L 189.856,-55.6875 L 189.348,-55.607
 L 188.833,-55.58 z
M 1107.43,-20.8896 L 1106.66,-21.1953 L 1105.96,-21.6562 L 1105.37,-22.2521 L 1104.92,-22.9569 L 1104.63,-23.7399
 L 1104.5,-24.7452 L 1104.5,-58 L 1104.59,-58.8316 L 1104.85,-59.627 L 1105.26,-60.3511 L 1105.82,-60.9726
 L 1106.5,-61.4641 L 1107.26,-61.8042 L 1108.5,-62 L 1197.18,-62 L 1198.01,-61.9126 L 1198.81,-61.6542
 L 1199.53,-61.2361 L 1200.15,-60.6765 L 1200.64,-60 L 1200.98,-59.2361 L 1201.16,-58.4181 L 1201.16,-57.5819
 L 1200.98,-56.7639 L 1200.64,-56 L 1200.15,-55.3235 L 1199.53,-54.7639 L 1198.58,-54.2547 L 1109.9,-20.9999
 L 1109.1,-20.7897 L 1108.26,-20.7524 z
M 926.101,-20.8896 L 925.323,-21.1953 L 924.625,-21.6562 L 924.039,-22.2521 L 923.589,-22.9569 L 923.295,-23.7399
 L 923.167,-24.7452 L 923.167,-58 L 923.254,-58.8316 L 923.512,-59.627 L 923.931,-60.3511 L 924.49,-60.9726
 L 925.167,-61.4641 L 925.931,-61.8042 L 927.167,-62 L 1015.85,-62 L 1016.68,-61.9126 L 1017.47,-61.6542
 L 1018.2,-61.2361 L 1018.82,-60.6765 L 1019.31,-60 L 1019.65,-59.2361 L 1019.82,-58.4181 L 1019.82,-57.5819
 L 1019.65,-56.7639 L 1019.31,-56 L 1018.82,-55.3235 L 1018.2,-54.7639 L 1017.25,-54.2547 L 928.571,-20.9999
 L 927.762,-20.7897 L 926.926,-20.7524 z
M 822.905,-47.7808 L 822.095,-47.991 L 805.392,-54.2547 L 804.446,-54.7639 L 803.824,-55.3235 L 803.333,-56
 L 802.993,-56.7639 L 802.819,-57.5819 L 802.819,-58.4181 L 802.993,-59.2361 L 803.333,-60 L 803.824,-60.6765
 L 804.446,-61.2361 L 805.17,-61.6542 L 805.965,-61.9126 L 806.797,-62 L 840.203,-62 L 841.268,-61.8556
 L 842.047,-61.5499 L 842.744,-61.089 L 843.331,-60.4931 L 843.781,-59.7883 L 844.075,-59.0053 L 844.199,-58.1784
 L 844.149,-57.3437 L 843.926,-56.5376 L 843.541,-55.7955 L 843.01,-55.1497 L 842.356,-54.6285 L 841.608,-54.2547
 L 824.904,-47.991 L 823.74,-47.7435 z
M 719.238,-20.7897 L 718.429,-20.9999 L 629.749,-54.2547 L 628.803,-54.7639 L 628.181,-55.3235 L 627.69,-56
 L 627.35,-56.7639 L 627.176,-57.5819 L 627.176,-58.4181 L 627.35,-59.2361 L 627.69,-60 L 628.181,-60.6765
 L 628.803,-61.2361 L 629.527,-61.6542 L 630.322,-61.9126 L 631.154,-62 L 719.833,-62 L 721.069,-61.8042
 L 721.833,-61.4641 L 722.51,-60.9726 L 723.069,-60.3511 L 723.488,-59.627 L 723.746,-58.8316 L 723.833,-58
 L 723.833,-24.7452 L 723.705,-23.7399 L 723.411,-22.9569 L 722.961,-22.2521 L 722.375,-21.6562 L 721.677,-21.1953
 L 720.899,-20.8896 L 720.074,-20.7524 z
M 537.905,-20.7897 L 537.095,-20.9999 L 448.416,-54.2547 L 447.469,-54.7639 L 446.848,-55.3235 L 446.356,-56
 L 446.016,-56.7639 L 445.842,-57.5819 L 445.842,-58.4181 L 446.016,-59.2361 L 446.356,-60 L 446.848,-60.6765
 L 447.469,-61.2361 L 448.194,-61.6542 L 448.989,-61.9126 L 449.82,-62 L 538.5,-62 L 539.736,-61.8042
 L 540.5,-61.4641 L 541.177,-60.9726 L 541.736,-60.3511 L 542.154,-59.627 L 542.413,-58.8316 L 542.5,-58
 L 542.5,-24.7452 L 542.372,-23.7399 L 542.078,-22.9569 L 541.628,-22.2521 L 541.041,-21.6562 L 540.344,-21.1953
 L 539.565,-20.8896 L 538.74,-20.7524 z
M 356.572,-20.7897 L 355.762,-20.9999 L 267.083,-54.2547 L 266.136,-54.7639 L 265.515,-55.3235 L 265.023,-56
 L 264.683,-56.7639 L 264.509,-57.5819 L 264.509,-58.4181 L 264.683,-59.2361 L 265.023,-60 L 265.515,-60.6765
 L 266.136,-61.2361 L 266.86,-61.6542 L 267.655,-61.9126 L 268.487,-62 L 357.167,-62 L 358.403,-61.8042
 L 359.167,-61.4641 L 359.843,-60.9726 L 360.403,-60.3511 L 360.821,-59.627 L 361.079,-58.8316 L 361.167,-58
 L 361.167,-24.7452 L 361.038,-23.7399 L 360.745,-22.9569 L 360.295,-22.2521 L 359.708,-21.6562 L 359.01,-21.1953
 L 358.232,-20.8896 L 357.407,-20.7524 z
M 1470.1,-20.8896 L 1469.32,-21.1953 L 1468.63,-21.6562 L 1468.04,-22.2521 L 1467.59,-22.9569 L 1467.3,-23.7399
 L 1467.17,-24.7452 L 1467.17,-58 L 1467.25,-58.8316 L 1467.51,-59.627 L 1467.93,-60.3511 L 1468.49,-60.9726
 L 1469.17,-61.4641 L 1469.93,-61.8042 L 1471.17,-62 L 1559.85,-62 L 1560.68,-61.9126 L 1561.47,-61.6542
 L 1562.2,-61.2361 L 1562.82,-60.6765 L 1563.31,-60 L 1563.65,-59.2361 L 1563.82,-58.4181 L 1563.82,-57.5819
 L 1563.65,-56.7639 L 1563.31,-56 L 1562.82,-55.3235 L 1562.2,-54.7639 L 1561.25,-54.2547 L 1472.57,-20.9999
 L 1471.76,-20.7897 L 1470.93,-20.7524 z
M 175.238,-20.7897 L 174.429,-20.9999 L 85.7493,-54.2547 L 84.8027,-54.7639 L 84.1812,-55.3235 L 83.6897,-56
 L 83.3496,-56.7639 L 83.1757,-57.5819 L 83.1757,-58.4181 L 83.3496,-59.2361 L 83.6897,-60 L 84.1812,-60.6765
 L 84.8027,-61.2361 L 85.5269,-61.6542 L 86.3222,-61.9126 L 87.1538,-62 L 175.833,-62 L 177.069,-61.8042
 L 177.833,-61.4641 L 178.51,-60.9726 L 179.069,-60.3511 L 179.488,-59.627 L 179.746,-58.8316 L 179.833,-58
 L 179.833,-24.7452 L 179.705,-23.7399 L 179.411,-22.9569 L 178.961,-22.2521 L 178.375,-21.6562 L 177.677,-21.1953
 L 176.899,-20.8896 L 176.074,-20.7524 z
M 1288.77,-20.8896 L 1287.99,-21.1953 L 1287.29,-21.6562 L 1286.71,-22.2521 L 1286.26,-22.9569 L 1285.96,-23.7399
 L 1285.83,-24.7452 L 1285.83,-58 L 1285.92,-58.8316 L 1286.18,-59.627 L 1286.6,-60.3511 L 1287.16,-60.9726
 L 1287.83,-61.4641 L 1288.6,-61.8042 L 1289.83,-62 L 1378.51,-62 L 1379.34,-61.9126 L 1380.14,-61.6542
 L 1380.86,-61.2361 L 1381.49,-60.6765 L 1381.98,-60 L 1382.32,-59.2361 L 1382.49,-58.4181 L 1382.49,-57.5819
 L 1382.32,-56.7639 L 1381.98,-56 L 1381.49,-55.3235 L 1380.86,-54.7639 L 1379.92,-54.2547 L 1291.24,-20.9999
 L 1290.43,-20.7897 L 1289.59,-20.7524 z
M 745.415,-18.6332 L 744.597,-18.8071 L 743.833,-19.1472 L 743.157,-19.6387 L 742.597,-20.2602 L 742.179,-20.9844
 L 741.921,-21.7797 L 741.833,-22.6113 L 741.833,-57.3887 L 741.962,-58.394 L 742.255,-59.177 L 742.705,-59.8818
 L 743.292,-60.4777 L 743.99,-60.9385 L 744.768,-61.2442 L 745.593,-61.3815 L 746.428,-61.3442 L 747.238,-61.134
 L 793.608,-43.7453 L 794.047,-43.5499 L 794.744,-43.089 L 795.331,-42.4931 L 795.781,-41.7883 L 796.075,-41.0053
 L 796.199,-40.1784 L 796.149,-39.3437 L 795.926,-38.5376 L 795.541,-37.7955 L 795.01,-37.1497 L 794.356,-36.6285
 L 793.608,-36.2547 L 747.238,-18.866 L 746.251,-18.6332 z
M 900.572,-18.6558 L 899.762,-18.866 L 853.392,-36.2547 L 852.953,-36.4501 L 852.255,-36.911 L 851.669,-37.5069
 L 851.219,-38.2117 L 850.925,-38.9947 L 850.801,-39.8216 L 850.851,-40.6563 L 851.074,-41.4624 L 851.459,-42.2045
 L 851.99,-42.8503 L 852.644,-43.3715 L 853.392,-43.7453 L 899.762,-61.134 L 900.749,-61.3668 L 901.585,-61.3668
 L 902.403,-61.1929 L 903.167,-60.8528 L 903.843,-60.3613 L 904.403,-59.7398 L 904.821,-59.0157 L 905.079,-58.2204
 L 905.167,-57.3887 L 905.167,-22.6113 L 905.038,-21.606 L 904.745,-20.823 L 904.295,-20.1182 L 903.708,-19.5223
 L 903.01,-19.0614 L 902.232,-18.7557 L 901.407,-18.6185 z
M 201.833,-18 L 200.597,-18.1958 L 199.833,-18.5359 L 199.157,-19.0274 L 198.597,-19.6489 L 198.179,-20.373
 L 197.921,-21.1684 L 197.833,-22 L 197.833,-55.2548 L 197.962,-56.2601 L 198.255,-57.0431 L 198.705,-57.7479
 L 199.292,-58.3438 L 199.99,-58.8047 L 200.768,-59.1104 L 201.593,-59.2476 L 202.428,-59.2103 L 203.238,-59.0001
 L 291.917,-25.7453 L 292.864,-25.2361 L 293.485,-24.6765 L 293.977,-24 L 294.317,-23.2361 L 294.491,-22.4181
 L 294.491,-21.5819 L 294.317,-20.7639 L 293.977,-20 L 293.485,-19.3235 L 292.864,-18.7639 L 292.14,-18.3458
 L 291.344,-18.0874 L 290.513,-18 z
M 383.167,-18 L 381.931,-18.1958 L 381.167,-18.5359 L 380.49,-19.0274 L 379.931,-19.6489 L 379.512,-20.373
 L 379.254,-21.1684 L 379.167,-22 L 379.167,-55.2548 L 379.295,-56.2601 L 379.589,-57.0431 L 380.039,-57.7479
 L 380.625,-58.3438 L 381.323,-58.8047 L 382.101,-59.1104 L 382.926,-59.2476 L 383.762,-59.2103 L 384.571,-59.0001
 L 473.251,-25.7453 L 474.197,-25.2361 L 474.819,-24.6765 L 475.31,-24 L 475.65,-23.2361 L 475.824,-22.4181
 L 475.824,-21.5819 L 475.65,-20.7639 L 475.31,-20 L 474.819,-19.3235 L 474.197,-18.7639 L 473.473,-18.3458
 L 472.678,-18.0874 L 471.846,-18 z
M 564.5,-18 L 563.264,-18.1958 L 562.5,-18.5359 L 561.823,-19.0274 L 561.264,-19.6489 L 560.846,-20.373
 L 560.587,-21.1684 L 560.5,-22 L 560.5,-55.2548 L 560.628,-56.2601 L 560.922,-57.0431 L 561.372,-57.7479
 L 561.959,-58.3438 L 562.656,-58.8047 L 563.435,-59.1104 L 564.26,-59.2476 L 565.095,-59.2103 L 565.904,-59.0001
 L 654.584,-25.7453 L 655.531,-25.2361 L 656.152,-24.6765 L 656.644,-24 L 656.984,-23.2361 L 657.158,-22.4181
 L 657.158,-21.5819 L 656.984,-20.7639 L 656.644,-20 L 656.152,-19.3235 L 655.531,-18.7639 L 654.806,-18.3458
 L 654.011,-18.0874 L 653.179,-18 z
M 993.821,-18 L 992.989,-18.0874 L 992.194,-18.3458 L 991.469,-18.7639 L 990.848,-19.3235 L 990.356,-20
 L 990.016,-20.7639 L 989.842,-21.5819 L 989.842,-22.4181 L 990.016,-23.2361 L 990.356,-24 L 990.848,-24.6765
 L 991.469,-25.2361 L 992.416,-25.7453 L 1081.1,-59.0001 L 1081.9,-59.2103 L 1082.74,-59.2476 L 1083.57,-59.1104
 L 1084.34,-58.8047 L 1085.04,-58.3438 L 1085.63,-57.7479 L 1086.08,-57.0431 L 1086.37,-56.2601 L 1086.5,-55.2548
 L 1086.5,-22 L 1086.41,-21.1684 L 1086.15,-20.373 L 1085.74,-19.6489 L 1085.18,-19.0274 L 1084.5,-18.5359
 L 1083.74,-18.1958 L 1082.5,-18 z
M 1175.15,-18 L 1174.32,-18.0874 L 1173.53,-18.3458 L 1172.8,-18.7639 L 1172.18,-19.3235 L 1171.69,-20
 L 1171.35,-20.7639 L 1171.18,-21.5819 L 1171.18,-22.4181 L 1171.35,-23.2361 L 1171.69,-24 L 1172.18,-24.6765
 L 1172.8,-25.2361 L 1173.75,-25.7453 L 1262.43,-59.0001 L 1263.24,-59.2103 L 1264.07,-59.2476 L 1264.9,-59.1104
 L 1265.68,-58.8047 L 1266.37,-58.3438 L 1266.96,-57.7479 L 1267.41,-57.0431 L 1267.7,-56.2601 L 1267.83,-55.2548
 L 1267.83,-22 L 1267.75,-21.1684 L 1267.49,-20.373 L 1267.07,-19.6489 L 1266.51,-19.0274 L 1265.83,-18.5359
 L 1265.07,-18.1958 L 1263.83,-18 z
M 1356.49,-18 L 1355.66,-18.0874 L 1354.86,-18.3458 L 1354.14,-18.7639 L 1353.51,-19.3235 L 1353.02,-20
 L 1352.68,-20.7639 L 1352.51,-21.5819 L 1352.51,-22.4181 L 1352.68,-23.2361 L 1353.02,-24 L 1353.51,-24.6765
 L 1354.14,-25.2361 L 1355.08,-25.7453 L 1443.76,-59.0001 L 1444.57,-59.2103 L 1445.41,-59.2476 L 1446.23,-59.1104
 L 1447.01,-58.8047 L 1447.71,-58.3438 L 1448.29,-57.7479 L 1448.74,-57.0431 L 1449.04,-56.2601 L 1449.17,-55.2548
 L 1449.17,-22 L 1449.08,-21.1684 L 1448.82,-20.373 L 1448.4,-19.6489 L 1447.84,-19.0274 L 1447.17,-18.5359
 L 1446.4,-18.1958 L 1445.17,-18 z
M 22,-18 L 20.7639,-18.1958 L 20,-18.5359 L 19.3235,-19.0274 L 18.7639,-19.6489 L 18.3458,-20.373
 L 18.0874,-21.1684 L 18,-22 L 18,-54.6923 L 18.1284,-55.6976 L 18.422,-56.4806 L 18.872,-57.1854
 L 19.4587,-57.7813 L 20.1565,-58.2422 L 20.9348,-58.5479 L 21.7597,-58.6851 L 22.5951,-58.6478 L 23.4045,-58.4376
 L 110.584,-25.7453 L 111.531,-25.2361 L 112.152,-24.6765 L 112.644,-24 L 112.984,-23.2361 L 113.158,-22.4181
 L 113.158,-21.5819 L 112.984,-20.7639 L 112.644,-20 L 112.152,-19.3235 L 111.531,-18.7639 L 110.806,-18.3458
 L 110.011,-18.0874 L 109.179,-18 z
M 1537.82,-18 L 1536.99,-18.0874 L 1536.19,-18.3458 L 1535.47,-18.7639 L 1534.85,-19.3235 L 1534.36,-20
 L 1534.02,-20.7639 L 1533.84,-21.5819 L 1533.84,-22.4181 L 1534.02,-23.2361 L 1534.36,-24 L 1534.85,-24.6765
 L 1535.47,-25.2361 L 1536.42,-25.7453 L 1623.6,-58.4376 L 1624.4,-58.6478 L 1625.24,-58.6851 L 1626.07,-58.5479
 L 1626.84,-58.2422 L 1627.54,-57.7813 L 1628.13,-57.1854 L 1628.58,-56.4806 L 1628.87,-55.6976 L 1629,-54.6923
 L 1629,-22 L 1628.91,-21.1684 L 1628.65,-20.373 L 1628.24,-19.6489 L 1627.68,-19.0274 L 1627,-18.5359
 L 1626.24,-18.1958 L 1625,-18 z
M 806.797,-18 L 805.732,-18.1444 L 804.953,-18.4501 L 804.256,-18.911 L 803.669,-19.5069 L 803.219,-20.2117
 L 802.925,-20.9947 L 802.801,-21.8216 L 802.851,-22.6563 L 803.074,-23.4624 L 803.459,-24.2045 L 803.99,-24.8503
 L 804.644,-25.3715 L 805.392,-25.7453 L 822.095,-32.009 L 823.26,-32.2565 L 824.095,-32.2192 L 824.904,-32.009
 L 841.608,-25.7453 L 842.554,-25.2361 L 843.176,-24.6765 L 843.667,-24 L 844.007,-23.2361 L 844.181,-22.4181
 L 844.181,-21.5819 L 844.007,-20.7639 L 843.667,-20 L 843.176,-19.3235 L 842.554,-18.7639 L 841.83,-18.3458
 L 841.035,-18.0874 L 840.203,-18 z
" stroke="black" fill="lightgray" stroke-width="0.5"/>
</svg>
