<?xml version="1.0" standalone="no"?>
<!DOCTYPE svg PUBLIC "-//W3C//DTD SVG 1.1//EN" "http://www.w3.org/Graphics/SVG/1.1/DTD/svg11.dtd">
<svg width="1302mm" height="80mm" viewBox="0 -80 1302 80" xmlns="http://www.w3.org/2000/svg" version="1.1">
<title>OpenSCAD Model</title>
<path d="
M 1302,-80 L 0,-80 L 0,-0 L 4.95,-0 L 4.95,-6 L 5.00572,-6.53017
 L 5.17046,-7.03717 L 5.437,-7.49884 L 5.79372,-7.895 L 6.22499,-8.20836 L 6.71201,-8.42519 L 7.23344,-8.53603
 L 7.76654,-8.53603 L 8.28798,-8.42519 L 8.77499,-8.20836 L 9.20627,-7.895 L 9.56299,-7.49884 L 9.82953,-7.03717
 L 9.99426,-6.53017 L 10.05,-6 L 10.05,-0 L 188.807,-0 L 188.807,-6 L 188.863,-6.53017
 L 189.028,-7.03717 L 189.294,-7.49884 L 189.651,-7.895 L 190.082,-8.20836 L 190.569,-8.42519 L 191.091,-8.53603
 L 191.624,-8.53603 L 192.145,-8.42519 L 192.632,-8.20836 L 193.063,-7.895 L 193.42,-7.49884 L 193.687,-7.03717
 L 193.851,-6.53017 L 193.907,-6 L 193.907,-0 L 372.664,-0 L 372.664,-6 L 372.72,-6.53017
 L 372.885,-7.03717 L 373.151,-7.49884 L 373.508,-7.895 L 373.939,-8.20836 L 374.426,-8.42519 L 374.948,-8.53603
 L 375.481,-8.53603 L 376.002,-8.42519 L 376.489,-8.20836 L 376.921,-7.895 L 377.277,-7.49884 L 377.544,-7.03717
 L 377.709,-6.53017 L 377.764,-6 L 377.764,-0 L 556.521,-0 L 556.521,-6 L 556.577,-6.53017
 L 556.742,-7.03717 L 557.008,-7.49884 L 557.365,-7.895 L 557.796,-8.20836 L 558.283,-8.42519 L 558.805,-8.53603
 L 559.338,-8.53603 L 559.859,-8.42519 L 560.346,-8.20836 L 560.778,-7.895 L 561.134,-7.49884 L 561.401,-7.03717
 L 561.566,-6.53017 L 561.621,-6 L 561.621,-0 L 740.379,-0 L 740.379,-6 L 740.434,-6.53017
 L 740.599,-7.03717 L 740.866,-7.49884 L 741.222,-7.895 L 741.654,-8.20836 L 742.141,-8.42519 L 742.662,-8.53603
 L 743.195,-8.53603 L 743.717,-8.42519 L 744.204,-8.20836 L 744.635,-7.895 L 744.992,-7.49884 L 745.258,-7.03717
 L 745.423,-6.53017 L 745.479,-6 L 745.479,-0 L 924.236,-0 L 924.236,-6 L 924.291,-6.53017
 L 924.456,-7.03717 L 924.723,-7.49884 L 925.079,-7.895 L 925.511,-8.20836 L 925.998,-8.42519 L 926.519,-8.53603
 L 927.052,-8.53603 L 927.574,-8.42519 L 928.061,-8.20836 L 928.492,-7.895 L 928.849,-7.49884 L 929.115,-7.03717
 L 929.28,-6.53017 L 929.336,-6 L 929.336,-0 L 1108.09,-0 L 1108.09,-6 L 1108.15,-6.53017
 L 1108.31,-7.03717 L 1108.58,-7.49884 L 1108.94,-7.895 L 1109.37,-8.20836 L 1109.85,-8.42519 L 1110.38,-8.53603
 L 1110.91,-8.53603 L 1111.43,-8.42519 L 1111.92,-8.20836 L 1112.35,-7.895 L 1112.71,-7.49884 L 1112.97,-7.03717
 L 1113.14,-6.53017 L 1113.19,-6 L 1113.19,-0 L 1291.95,-0 L 1291.95,-6 L 1292.01,-6.53017
 L 1292.17,-7.03717 L 1292.44,-7.49884 L 1292.79,-7.895 L 1293.22,-8.20836 L 1293.71,-8.42519 L 1294.23,-8.53603
 L 1294.77,-8.53603 L 1295.29,-8.42519 L 1295.77,-8.20836 L 1296.21,-7.895 L 1296.56,-7.49884 L 1296.83,-7.03717
 L 1296.99,-6.53017 L 1297.05,-6 L 1297.05,-0 L 1302,-0 z
M 6.98573,-55.607 L 6.47708,-55.6875 L 5.97964,-55.8208 L 5.49887,-56.0054 L 5.04001,-56.2392 L 4.60811,-56.5196
 L 4.20789,-56.8437 L 3.84373,-57.2079 L 3.51964,-57.6081 L 3.23917,-58.04 L 3.00537,-58.4989 L 2.82082,-58.9796
 L 2.68752,-59.4771 L 2.60696,-59.9857 L 2.58,-60.5 L 2.60696,-61.0143 L 2.68752,-61.5229 L 2.82082,-62.0204
 L 3.00537,-62.5011 L 3.23917,-62.96 L 3.51964,-63.3919 L 3.84373,-63.7921 L 4.20789,-64.1563 L 4.60811,-64.4804
 L 4.95001,-64.7024 L 4.95001,-74 L 5.00574,-74.5302 L 5.17047,-75.0372 L 5.43701,-75.4988 L 5.79373,-75.895
 L 6.22501,-76.2084 L 6.71202,-76.4252 L 7.23346,-76.536 L 7.76654,-76.536 L 8.28798,-76.4252 L 8.77499,-76.2084
 L 9.20627,-75.895 L 9.56299,-75.4988 L 9.82953,-75.0372 L 9.99426,-74.5302 L 10.05,-74 L 10.05,-64.7024
 L 10.3919,-64.4804 L 10.7921,-64.1563 L 11.1563,-63.7921 L 11.4804,-63.3919 L 11.7608,-62.96 L 11.9946,-62.5011
 L 12.1792,-62.0204 L 12.3125,-61.5229 L 12.393,-61.0143 L 12.42,-60.5 L 12.393,-59.9857 L 12.3125,-59.4771
 L 12.1792,-58.9796 L 11.9946,-58.4989 L 11.7608,-58.04 L 11.4804,-57.6081 L 11.1563,-57.2079 L 10.7921,-56.8437
 L 10.3919,-56.5196 L 9.95999,-56.2392 L 9.50113,-56.0054 L 9.02036,-55.8208 L 8.52292,-55.6875 L 8.01427,-55.607
 L 7.5,-55.58 z
M 190.843,-55.607 L 190.334,-55.6875 L 189.837,-55.8208 L 189.356,-56.0054 L 188.897,-56.2392 L 188.465,-56.5196
 L 188.065,-56.8437 L 187.701,-57.2079 L 187.377,-57.6081 L 187.096,-58.04 L 186.863,-58.4989 L 186.678,-58.9796
 L 186.545,-59.4771 L 186.464,-59.9857 L 186.437,-60.5 L 186.464,-61.0143 L 186.545,-61.5229 L 186.678,-62.0204
 L 186.863,-62.5011 L 187.096,-62.96 L 187.377,-63.3919 L 187.701,-63.7921 L 188.065,-64.1563 L 188.465,-64.4804
 L 188.807,-64.7024 L 188.807,-74 L 188.863,-74.5302 L 189.028,-75.0372 L 189.294,-75.4988 L 189.651,-75.895
 L 190.082,-76.2084 L 190.569,-76.4252 L 191.091,-76.536 L 191.624,-76.536 L 192.145,-76.4252 L 192.632,-76.2084
 L 193.063,-75.895 L 193.42,-75.4988 L 193.687,-75.0372 L 193.851,-74.5302 L 193.907,-74 L 193.907,-64.7024
 L 194.249,-64.4804 L 194.649,-64.1563 L 195.013,-63.7921 L 195.337,-63.3919 L 195.618,-62.96 L 195.852,-62.5011
 L 196.036,-62.0204 L 196.17,-61.5229 L 196.25,-61.0143 L 196.277,-60.5 L 196.25,-59.9857 L 196.17,-59.4771
 L 196.036,-58.9796 L 195.852,-58.4989 L 195.618,-58.04 L 195.337,-57.6081 L 195.013,-57.2079 L 194.649,-56.8437
 L 194.249,-56.5196 L 193.817,-56.2392 L 193.358,-56.0054 L 192.877,-55.8208 L 192.38,-55.6875 L 191.871,-55.607
 L 191.357,-55.58 z
M 374.7,-55.607 L 374.191,-55.6875 L 373.694,-55.8208 L 373.213,-56.0054 L 372.754,-56.2392 L 372.322,-56.5196
 L 371.922,-56.8437 L 371.558,-57.2079 L 371.234,-57.6081 L 370.953,-58.04 L 370.72,-58.4989 L 370.535,-58.9796
 L 370.402,-59.4771 L 370.321,-59.9857 L 370.294,-60.5 L 370.321,-61.0143 L 370.402,-61.5229 L 370.535,-62.0204
 L 370.72,-62.5011 L 370.953,-62.96 L 371.234,-63.3919 L 371.558,-63.7921 L 371.922,-64.1563 L 372.322,-64.4804
 L 372.664,-64.7024 L 372.664,-74 L 372.72,-74.5302 L 372.885,-75.0372 L 373.151,-75.4988 L 373.508,-75.895
 L 373.939,-76.2084 L 374.426,-76.4252 L 374.948,-76.536 L 375.481,-76.536 L 376.002,-76.4252 L 376.489,-76.2084
 L 376.921,-75.895 L 377.277,-75.4988 L 377.544,-75.0372 L 377.709,-74.5302 L 377.764,-74 L 377.764,-64.7024
 L 378.106,-64.4804 L 378.506,-64.1563 L 378.871,-63.7921 L 379.195,-63.3919 L 379.475,-62.96 L 379.709,-62.5011
 L 379.893,-62.0204 L 380.027,-61.5229 L 380.107,-61.0143 L 380.134,-60.5 L 380.107,-59.9857 L 380.027,-59.4771
 L 379.893,-58.9796 L 379.709,-58.4989 L 379.475,-58.04 L 379.195,-57.6081 L 378.871,-57.2079 L 378.506,-56.8437
 L 378.106,-56.5196 L 377.674,-56.2392 L 377.215,-56.0054 L 376.735,-55.8208 L 376.237,-55.6875 L 375.729,-55.607
 L 375.214,-55.58 z
M 558.557,-55.607 L 558.049,-55.6875 L 557.551,-55.8208 L 557.07,-56.0054 L 556.611,-56.2392 L 556.18,-56.5196
 L 555.779,-56.8437 L 555.415,-57.2079 L 555.091,-57.6081 L 554.811,-58.04 L 554.577,-58.4989 L 554.392,-58.9796
 L 554.259,-59.4771 L 554.178,-59.9857 L 554.151,-60.5 L 554.178,-61.0143 L 554.259,-61.5229 L 554.392,-62.0204
 L 554.577,-62.5011 L 554.811,-62.96 L 555.091,-63.3919 L 555.415,-63.7921 L 555.779,-64.1563 L 556.18,-64.4804
 L 556.521,-64.7024 L 556.521,-74 L 556.577,-74.5302 L 556.742,-75.0372 L 557.008,-75.4988 L 557.365,-75.895
 L 557.796,-76.2084 L 558.283,-76.4252 L 558.805,-76.536 L 559.338,-76.536 L 559.859,-76.4252 L 560.346,-76.2084
 L 560.778,-75.895 L 561.134,-75.4988 L 561.401,-75.0372 L 561.566,-74.5302 L 561.621,-74 L 561.621,-64.7024
 L 561.963,-64.4804 L 562.364,-64.1563 L 562.728,-63.7921 L 563.052,-63.3919 L 563.332,-62.96 L 563.566,-62.5011
 L 563.751,-62.0204 L 563.884,-61.5229 L 563.964,-61.0143 L 563.991,-60.5 L 563.964,-59.9857 L 563.884,-59.4771
 L 563.751,-58.9796 L 563.566,-58.4989 L 563.332,-58.04 L 563.052,-57.6081 L 562.728,-57.2079 L 562.364,-56.8437
 L 561.963,-56.5196 L 561.531,-56.2392 L 561.073,-56.0054 L 560.592,-55.8208 L 560.094,-55.6875 L 559.586,-55.607
 L 559.071,-55.58 z
M 742.414,-55.607 L 741.906,-55.6875 L 741.408,-55.8208 L 740.927,-56.0054 L 740.469,-56.2392 L 740.037,-56.5196
 L 739.636,-56.8437 L 739.272,-57.2079 L 738.948,-57.6081 L 738.668,-58.04 L 738.434,-58.4989 L 738.249,-58.9796
 L 738.116,-59.4771 L 738.036,-59.9857 L 738.009,-60.5 L 738.036,-61.0143 L 738.116,-61.5229 L 738.249,-62.0204
 L 738.434,-62.5011 L 738.668,-62.96 L 738.948,-63.3919 L 739.272,-63.7921 L 739.636,-64.1563 L 740.037,-64.4804
 L 740.379,-64.7024 L 740.379,-74 L 740.434,-74.5302 L 740.599,-75.0372 L 740.866,-75.4988 L 741.222,-75.895
 L 741.654,-76.2084 L 742.141,-76.4252 L 742.662,-76.536 L 743.195,-76.536 L 743.717,-76.4252 L 744.204,-76.2084
 L 744.635,-75.895 L 744.992,-75.4988 L 745.258,-75.0372 L 745.423,-74.5302 L 745.479,-74 L 745.479,-64.7024
 L 745.82,-64.4804 L 746.221,-64.1563 L 746.585,-63.7921 L 746.909,-63.3919 L 747.189,-62.96 L 747.423,-62.5011
 L 747.608,-62.0204 L 747.741,-61.5229 L 747.822,-61.0143 L 747.849,-60.5 L 747.822,-59.9857 L 747.741,-59.4771
 L 747.608,-58.9796 L 747.423,-58.4989 L 747.189,-58.04 L 746.909,-57.6081 L 746.585,-57.2079 L 746.221,-56.8437
 L 745.82,-56.5196 L 745.389,-56.2392 L 744.93,-56.0054 L 744.449,-55.8208 L 743.951,-55.6875 L 743.443,-55.607
 L 742.929,-55.58 z
M 926.271,-55.607 L 925.763,-55.6875 L 925.265,-55.8208 L 924.785,-56.0054 L 924.326,-56.2392 L 923.894,-56.5196
 L 923.494,-56.8437 L 923.129,-57.2079 L 922.805,-57.6081 L 922.525,-58.04 L 922.291,-58.4989 L 922.107,-58.9796
 L 921.973,-59.4771 L 921.893,-59.9857 L 921.866,-60.5 L 921.893,-61.0143 L 921.973,-61.5229 L 922.107,-62.0204
 L 922.291,-62.5011 L 922.525,-62.96 L 922.805,-63.3919 L 923.129,-63.7921 L 923.494,-64.1563 L 923.894,-64.4804
 L 924.236,-64.7024 L 924.236,-74 L 924.291,-74.5302 L 924.456,-75.0372 L 924.723,-75.4988 L 925.079,-75.895
 L 925.511,-76.2084 L 925.998,-76.4252 L 926.519,-76.536 L 927.052,-76.536 L 927.574,-76.4252 L 928.061,-76.2084
 L 928.492,-75.895 L 928.849,-75.4988 L 929.115,-75.0372 L 929.28,-74.5302 L 929.336,-74 L 929.336,-64.7024
 L 929.678,-64.4804 L 930.078,-64.1563 L 930.442,-63.7921 L 930.766,-63.3919 L 931.047,-62.96 L 931.28,-62.5011
 L 931.465,-62.0204 L 931.598,-61.5229 L 931.679,-61.0143 L 931.706,-60.5 L 931.679,-59.9857 L 931.598,-59.4771
 L 931.465,-58.9796 L 931.28,-58.4989 L 931.047,-58.04 L 930.766,-57.6081 L 930.442,-57.2079 L 930.078,-56.8437
 L 929.678,-56.5196 L 929.246,-56.2392 L 928.787,-56.0054 L 928.306,-55.8208 L 927.809,-55.6875 L 927.3,-55.607
 L 926.786,-55.58 z
M 1110.13,-55.607 L 1109.62,-55.6875 L 1109.12,-55.8208 L 1108.64,-56.0054 L 1108.18,-56.2392 L 1107.75,-56.5196
 L 1107.35,-56.8437 L 1106.99,-57.2079 L 1106.66,-57.6081 L 1106.38,-58.04 L 1106.15,-58.4989 L 1105.96,-58.9796
 L 1105.83,-59.4771 L 1105.75,-59.9857 L 1105.72,-60.5 L 1105.75,-61.0143 L 1105.83,-61.5229 L 1105.96,-62.0204
 L 1106.15,-62.5011 L 1106.38,-62.96 L 1106.66,-63.3919 L 1106.99,-63.7921 L 1107.35,-64.1563 L 1107.75,-64.4804
 L 1108.09,-64.7024 L 1108.09,-74 L 1108.15,-74.5302 L 1108.31,-75.0372 L 1108.58,-75.4988 L 1108.94,-75.895
 L 1109.37,-76.2084 L 1109.85,-76.4252 L 1110.38,-76.536 L 1110.91,-76.536 L 1111.43,-76.4252 L 1111.92,-76.2084
 L 1112.35,-75.895 L 1112.71,-75.4988 L 1112.97,-75.0372 L 1113.14,-74.5302 L 1113.19,-74 L 1113.19,-64.7024
 L 1113.53,-64.4804 L 1113.93,-64.1563 L 1114.3,-63.7921 L 1114.62,-63.3919 L 1114.9,-62.96 L 1115.14,-62.5011
 L 1115.32,-62.0204 L 1115.46,-61.5229 L 1115.54,-61.0143 L 1115.56,-60.5 L 1115.54,-59.9857 L 1115.46,-59.4771
 L 1115.32,-58.9796 L 1115.14,-58.4989 L 1114.9,-58.04 L 1114.62,-57.6081 L 1114.3,-57.2079 L 1113.93,-56.8437
 L 1113.53,-56.5196 L 1113.1,-56.2392 L 1112.64,-56.0054 L 1112.16,-55.8208 L 1111.67,-55.6875 L 1111.16,-55.607
 L 1110.64,-55.58 z
M 1293.99,-55.607 L 1293.48,-55.6875 L 1292.98,-55.8208 L 1292.5,-56.0054 L 1292.04,-56.2392 L 1291.61,-56.5196
 L 1291.21,-56.8437 L 1290.84,-57.2079 L 1290.52,-57.6081 L 1290.24,-58.04 L 1290.01,-58.4989 L 1289.82,-58.9796
 L 1289.69,-59.4771 L 1289.61,-59.9857 L 1289.58,-60.5 L 1289.61,-61.0143 L 1289.69,-61.5229 L 1289.82,-62.0204
 L 1290.01,-62.5011 L 1290.24,-62.96 L 1290.52,-63.3919 L 1290.84,-63.7921 L 1291.21,-64.1563 L 1291.61,-64.4804
 L 1291.95,-64.7024 L 1291.95,-74 L 1292.01,-74.5302 L 1292.17,-75.0372 L 1292.44,-75.4988 L 1292.79,-75.895
 L 1293.23,-76.2084 L 1293.71,-76.4252 L 1294.23,-76.536 L 1294.77,-76.536 L 1295.29,-76.4252 L 1295.77,-76.2084
 L 1296.21,-75.895 L 1296.56,-75.4988 L 1296.83,-75.0372 L 1296.99,-74.5302 L 1297.05,-74 L 1297.05,-64.7024
 L 1297.39,-64.4804 L 1297.79,-64.1563 L 1298.16,-63.7921 L 1298.48,-63.3919 L 1298.76,-62.96 L 1298.99,-62.5011
 L 1299.18,-62.0204 L 1299.31,-61.5229 L 1299.39,-61.0143 L 1299.42,-60.5 L 1299.39,-59.9857 L 1299.31,-59.4771
 L 1299.18,-58.9796 L 1298.99,-58.4989 L 1298.76,-58.04 L 1298.48,-57.6081 L 1298.16,-57.2079 L 1297.79,-56.8437
 L 1297.39,-56.5196 L 1296.96,-56.2392 L 1296.5,-56.0054 L 1296.02,-55.8208 L 1295.52,-55.6875 L 1295.01,-55.607
 L 1294.5,-55.58 z
M 754.846,-20.8069 L 754.069,-21.1161 L 753.373,-21.5801 L 752.789,-22.1786 L 752.343,-22.8855 L 752.052,-23.6698
 L 751.929,-24.6576 L 751.929,-58 L 752.016,-58.8316 L 752.274,-59.627 L 752.693,-60.3511 L 753.252,-60.9726
 L 753.929,-61.4641 L 754.693,-61.8042 L 755.929,-62 L 846.079,-62 L 846.911,-61.9126 L 847.706,-61.6542
 L 848.43,-61.2361 L 849.052,-60.6765 L 849.543,-60 L 849.883,-59.2361 L 850.057,-58.4181 L 850.057,-57.5819
 L 849.883,-56.7639 L 849.543,-56 L 849.052,-55.3235 L 848.43,-54.7639 L 847.467,-54.2484 L 757.316,-20.906
 L 756.506,-20.6995 L 755.67,-20.6659 z
M 650.423,-47.7607 L 649.612,-47.9672 L 632.629,-54.2484 L 631.666,-54.7639 L 631.044,-55.3235 L 630.553,-56
 L 630.213,-56.7639 L 630.039,-57.5819 L 630.039,-58.4181 L 630.213,-59.2361 L 630.553,-60 L 631.044,-60.6765
 L 631.666,-61.2361 L 632.39,-61.6542 L 633.185,-61.9126 L 634.017,-62 L 667.983,-62 L 669.066,-61.8507
 L 669.843,-61.5415 L 670.538,-61.0775 L 671.122,-60.479 L 671.569,-59.7721 L 671.859,-58.9878 L 671.98,-58.1603
 L 671.926,-57.3258 L 671.699,-56.5208 L 671.311,-55.7805 L 670.776,-55.1371 L 670.12,-54.6188 L 669.37,-54.2484
 L 652.388,-47.9672 L 651.258,-47.7272 z
M 545.494,-20.6995 L 544.684,-20.906 L 454.533,-54.2484 L 453.57,-54.7639 L 452.948,-55.3235 L 452.457,-56
 L 452.117,-56.7639 L 451.943,-57.5819 L 451.943,-58.4181 L 452.117,-59.2361 L 452.457,-60 L 452.948,-60.6765
 L 453.57,-61.2361 L 454.294,-61.6542 L 455.089,-61.9126 L 455.921,-62 L 546.071,-62 L 547.307,-61.8042
 L 548.071,-61.4641 L 548.748,-60.9726 L 549.307,-60.3511 L 549.726,-59.627 L 549.984,-58.8316 L 550.071,-58
 L 550.071,-24.6576 L 549.948,-23.6698 L 549.657,-22.8855 L 549.211,-22.1786 L 548.627,-21.5801 L 547.931,-21.1161
 L 547.154,-20.8069 L 546.33,-20.6659 z
M 361.637,-20.6995 L 360.827,-20.906 L 270.676,-54.2484 L 269.713,-54.7639 L 269.091,-55.3235 L 268.6,-56
 L 268.259,-56.7639 L 268.086,-57.5819 L 268.086,-58.4181 L 268.259,-59.2361 L 268.6,-60 L 269.091,-60.6765
 L 269.713,-61.2361 L 270.437,-61.6542 L 271.232,-61.9126 L 272.064,-62 L 362.214,-62 L 363.45,-61.8042
 L 364.214,-61.4641 L 364.891,-60.9726 L 365.45,-60.3511 L 365.868,-59.627 L 366.127,-58.8316 L 366.214,-58
 L 366.214,-24.6576 L 366.09,-23.6698 L 365.8,-22.8855 L 365.354,-22.1786 L 364.77,-21.5801 L 364.074,-21.1161
 L 363.297,-20.8069 L 362.473,-20.6659 z
M 1122.56,-20.8069 L 1121.78,-21.1161 L 1121.09,-21.5801 L 1120.5,-22.1786 L 1120.06,-22.8855 L 1119.77,-23.6698
 L 1119.64,-24.6576 L 1119.64,-58 L 1119.73,-58.8316 L 1119.99,-59.627 L 1120.41,-60.3511 L 1120.97,-60.9726
 L 1121.64,-61.4641 L 1122.41,-61.8042 L 1123.64,-62 L 1213.79,-62 L 1214.63,-61.9126 L 1215.42,-61.6542
 L 1216.14,-61.2361 L 1216.77,-60.6765 L 1217.26,-60 L 1217.6,-59.2361 L 1217.77,-58.4181 L 1217.77,-57.5819
 L 1217.6,-56.7639 L 1217.26,-56 L 1216.77,-55.3235 L 1216.14,-54.7639 L 1215.18,-54.2484 L 1125.03,-20.906
 L 1124.22,-20.6995 L 1123.38,-20.6659 z
M 177.78,-20.6995 L 176.97,-20.906 L 86.819,-54.2484 L 85.8554,-54.7639 L 85.2339,-55.3235 L 84.7424,-56
 L 84.4023,-56.7639 L 84.2284,-57.5819 L 84.2284,-58.4181 L 84.4023,-59.2361 L 84.7424,-60 L 85.2339,-60.6765
 L 85.8554,-61.2361 L 86.5796,-61.6542 L 87.3749,-61.9126 L 88.2065,-62 L 178.357,-62 L 179.593,-61.8042
 L 180.357,-61.4641 L 181.034,-60.9726 L 181.593,-60.3511 L 182.011,-59.627 L 182.27,-58.8316 L 182.357,-58
 L 182.357,-24.6576 L 182.233,-23.6698 L 181.943,-22.8855 L 181.496,-22.1786 L 180.912,-21.5801 L 180.217,-21.1161
 L 179.44,-20.8069 L 178.615,-20.6659 z
M 938.703,-20.8069 L 937.926,-21.1161 L 937.23,-21.5801 L 936.646,-22.1786 L 936.2,-22.8855 L 935.91,-23.6698
 L 935.786,-24.6576 L 935.786,-58 L 935.873,-58.8316 L 936.132,-59.627 L 936.55,-60.3511 L 937.109,-60.9726
 L 937.786,-61.4641 L 938.55,-61.8042 L 939.786,-62 L 1029.94,-62 L 1030.77,-61.9126 L 1031.56,-61.6542
 L 1032.29,-61.2361 L 1032.91,-60.6765 L 1033.4,-60 L 1033.74,-59.2361 L 1033.91,-58.4181 L 1033.91,-57.5819
 L 1033.74,-56.7639 L 1033.4,-56 L 1032.91,-55.3235 L 1032.29,-54.7639 L 1031.32,-54.2484 L 941.173,-20.906
 L 940.363,-20.6995 L 939.527,-20.6659 z
M 571.653,-18.5488 L 570.835,-18.7227 L 570.071,-19.0628 L 569.395,-19.5543 L 568.835,-20.1758 L 568.417,-20.8999
 L 568.159,-21.6953 L 568.071,-22.5269 L 568.071,-57.4731 L 568.195,-58.4609 L 568.485,-59.2452 L 568.932,-59.9521
 L 569.516,-60.5506 L 570.212,-61.0146 L 570.989,-61.3238 L 571.813,-61.4648 L 572.649,-61.4312 L 573.459,-61.2247
 L 620.702,-43.7516 L 621.174,-43.5415 L 621.87,-43.0775 L 622.454,-42.479 L 622.901,-41.7721 L 623.191,-40.9878
 L 623.312,-40.1603 L 623.258,-39.3258 L 623.031,-38.5208 L 622.643,-37.7805 L 622.108,-37.1371 L 621.452,-36.6188
 L 620.702,-36.2484 L 573.459,-18.7753 L 572.49,-18.5488 z
M 729.351,-18.5688 L 728.541,-18.7753 L 681.298,-36.2484 L 680.826,-36.4585 L 680.13,-36.9225 L 679.546,-37.521
 L 679.099,-38.2279 L 678.809,-39.0122 L 678.688,-39.8397 L 678.742,-40.6742 L 678.969,-41.4792 L 679.357,-42.2195
 L 679.892,-42.8629 L 680.548,-43.3812 L 681.298,-43.7516 L 728.541,-61.2247 L 729.51,-61.4512 L 730.347,-61.4512
 L 731.165,-61.2773 L 731.929,-60.9372 L 732.605,-60.4457 L 733.165,-59.8242 L 733.583,-59.1001 L 733.841,-58.3048
 L 733.929,-57.4731 L 733.929,-22.5269 L 733.805,-21.5391 L 733.515,-20.7548 L 733.068,-20.0479 L 732.484,-19.4494
 L 731.788,-18.9854 L 731.011,-18.6762 L 730.187,-18.5352 z
M 204.357,-18 L 203.121,-18.1958 L 202.357,-18.5359 L 201.681,-19.0274 L 201.121,-19.6489 L 200.703,-20.373
 L 200.445,-21.1684 L 200.357,-22 L 200.357,-55.3424 L 200.481,-56.3302 L 200.771,-57.1145 L 201.218,-57.8214
 L 201.802,-58.4199 L 202.498,-58.8839 L 203.275,-59.1931 L 204.099,-59.3341 L 204.934,-59.3005 L 205.745,-59.094
 L 295.895,-25.7516 L 296.859,-25.2361 L 297.48,-24.6765 L 297.972,-24 L 298.312,-23.2361 L 298.486,-22.4181
 L 298.486,-21.5819 L 298.312,-20.7639 L 297.972,-20 L 297.48,-19.3235 L 296.859,-18.7639 L 296.135,-18.3458
 L 295.339,-18.0874 L 294.508,-18 z
M 388.214,-18 L 386.978,-18.1958 L 386.214,-18.5359 L 385.538,-19.0274 L 384.978,-19.6489 L 384.56,-20.373
 L 384.302,-21.1684 L 384.214,-22 L 384.214,-55.3424 L 384.338,-56.3302 L 384.628,-57.1145 L 385.075,-57.8214
 L 385.659,-58.4199 L 386.355,-58.8839 L 387.132,-59.1931 L 387.956,-59.3341 L 388.792,-59.3005 L 389.602,-59.094
 L 479.752,-25.7516 L 480.716,-25.2361 L 481.337,-24.6765 L 481.829,-24 L 482.169,-23.2361 L 482.343,-22.4181
 L 482.343,-21.5819 L 482.169,-20.7639 L 481.829,-20 L 481.337,-19.3235 L 480.716,-18.7639 L 479.992,-18.3458
 L 479.197,-18.0874 L 478.365,-18 z
M 823.635,-18 L 822.803,-18.0874 L 822.008,-18.3458 L 821.284,-18.7639 L 820.663,-19.3235 L 820.171,-20
 L 819.831,-20.7639 L 819.657,-21.5819 L 819.657,-22.4181 L 819.831,-23.2361 L 820.171,-24 L 820.663,-24.6765
 L 821.284,-25.2361 L 822.248,-25.7516 L 912.398,-59.094 L 913.208,-59.3005 L 914.044,-59.3341 L 914.868,-59.1931
 L 915.645,-58.8839 L 916.341,-58.4199 L 916.925,-57.8214 L 917.372,-57.1145 L 917.662,-56.3302 L 917.786,-55.3424
 L 917.786,-22 L 917.698,-21.1684 L 917.44,-20.373 L 917.022,-19.6489 L 916.462,-19.0274 L 915.786,-18.5359
 L 915.022,-18.1958 L 913.786,-18 z
M 1007.49,-18 L 1006.66,-18.0874 L 1005.87,-18.3458 L 1005.14,-18.7639 L 1004.52,-19.3235 L 1004.03,-20
 L 1003.69,-20.7639 L 1003.51,-21.5819 L 1003.51,-22.4181 L 1003.69,-23.2361 L 1004.03,-24 L 1004.52,-24.6765
 L 1005.14,-25.2361 L 1006.1,-25.7516 L 1096.26,-59.094 L 1097.07,-59.3005 L 1097.9,-59.3341 L 1098.73,-59.1931
 L 1099.5,-58.8839 L 1100.2,-58.4199 L 1100.78,-57.8214 L 1101.23,-57.1145 L 1101.52,-56.3302 L 1101.64,-55.3424
 L 1101.64,-22 L 1101.56,-21.1684 L 1101.3,-20.373 L 1100.88,-19.6489 L 1100.32,-19.0274 L 1099.64,-18.5359
 L 1098.88,-18.1958 L 1097.64,-18 z
M 22,-18 L 20.7639,-18.1958 L 20,-18.5359 L 19.3235,-19.0274 L 18.7639,-19.6489 L 18.3458,-20.373
 L 18.0874,-21.1684 L 18,-22 L 18,-54.7876 L 18.1239,-55.7754 L 18.414,-56.5597 L 18.8608,-57.2666
 L 19.4448,-57.8651 L 20.1404,-58.3291 L 20.9174,-58.6383 L 21.7417,-58.7793 L 22.5772,-58.7458 L 23.3875,-58.5393
 L 112.038,-25.7516 L 113.002,-25.2361 L 113.623,-24.6765 L 114.115,-24 L 114.455,-23.2361 L 114.629,-22.4181
 L 114.629,-21.5819 L 114.455,-20.7639 L 114.115,-20 L 113.623,-19.3235 L 113.002,-18.7639 L 112.278,-18.3458
 L 111.482,-18.0874 L 110.651,-18 z
M 1191.35,-18 L 1190.52,-18.0874 L 1189.72,-18.3458 L 1189,-18.7639 L 1188.38,-19.3235 L 1187.89,-20
 L 1187.55,-20.7639 L 1187.37,-21.5819 L 1187.37,-22.4181 L 1187.55,-23.2361 L 1187.89,-24 L 1188.38,-24.6765
 L 1189,-25.2361 L 1189.96,-25.7516 L 1278.61,-58.5393 L 1279.42,-58.7458 L 1280.26,-58.7793 L 1281.08,-58.6383
 L 1281.86,-58.3291 L 1282.56,-57.8651 L 1283.14,-57.2666 L 1283.59,-56.5597 L 1283.88,-55.7754 L 1284,-54.7876
 L 1284,-22 L 1283.91,-21.1684 L 1283.65,-20.373 L 1283.24,-19.6489 L 1282.68,-19.0274 L 1282,-18.5359
 L 1281.24,-18.1958 L 1280,-18 z
M 634.017,-18 L 632.934,-18.1493 L 632.157,-18.4585 L 631.462,-18.9225 L 630.878,-19.521 L 630.431,-20.2279
 L 630.141,-21.0122 L 630.02,-21.8397 L 630.074,-22.6742 L 630.301,-23.4792 L 630.689,-24.2195 L 631.223,-24.8629
 L 631.88,-25.3812 L 632.629,-25.7516 L 649.612,-32.0328 L 650.742,-32.2728 L 651.577,-32.2393 L 652.388,-32.0328
 L 669.37,-25.7516 L 670.334,-25.2361 L 670.956,-24.6765 L 671.447,-24 L 671.787,-23.2361 L 671.961,-22.4181
 L 671.961,-21.5819 L 671.787,-20.7639 L 671.447,-20 L 670.956,-19.3235 L 670.334,-18.7639 L 669.61,-18.3458
 L 668.815,-18.0874 L 667.983,-18 z
" stroke="black" fill="lightgray" stroke-width="0.5"/>
</svg>
