<?xml version="1.0" standalone="no"?>
<!DOCTYPE svg PUBLIC "-//W3C//DTD SVG 1.1//EN" "http://www.w3.org/Graphics/SVG/1.1/DTD/svg11.dtd">
<svg width="1225mm" height="80mm" viewBox="0 -80 1225 80" xmlns="http://www.w3.org/2000/svg" version="1.1">
<title>OpenSCAD Model</title>
<path d="
M 1225,-80 L 0,-80 L 0,-0 L 4.95,-0 L 4.95,-6 L 5.00572,-6.53017
 L 5.17046,-7.03717 L 5.437,-7.49884 L 5.79372,-7.895 L 6.22499,-8.20836 L 6.71201,-8.42519 L 7.23344,-8.53603
 L 7.76654,-8.53603 L 8.28798,-8.42519 L 8.77499,-8.20836 L 9.20627,-7.895 L 9.56299,-7.49884 L 9.82953,-7.03717
 L 9.99426,-6.53017 L 10.05,-6 L 10.05,-0 L 177.807,-0 L 177.807,-6 L 177.863,-6.53017
 L 178.028,-7.03717 L 178.294,-7.49884 L 178.651,-7.895 L 179.082,-8.20836 L 179.569,-8.42519 L 180.091,-8.53603
 L 180.624,-8.53603 L 181.145,-8.42519 L 181.632,-8.20836 L 182.063,-7.895 L 182.42,-7.49884 L 182.687,-7.03717
 L 182.851,-6.53017 L 182.907,-6 L 182.907,-0 L 350.664,-0 L 350.664,-6 L 350.72,-6.53017
 L 350.885,-7.03717 L 351.151,-7.49884 L 351.508,-7.895 L 351.939,-8.20836 L 352.426,-8.42519 L 352.948,-8.53603
 L 353.481,-8.53603 L 354.002,-8.42519 L 354.489,-8.20836 L 354.921,-7.895 L 355.277,-7.49884 L 355.544,-7.03717
 L 355.709,-6.53017 L 355.764,-6 L 355.764,-0 L 523.521,-0 L 523.521,-6 L 523.577,-6.53017
 L 523.742,-7.03717 L 524.008,-7.49884 L 524.365,-7.895 L 524.796,-8.20836 L 525.283,-8.42519 L 525.805,-8.53603
 L 526.338,-8.53603 L 526.859,-8.42519 L 527.346,-8.20836 L 527.778,-7.895 L 528.134,-7.49884 L 528.401,-7.03717
 L 528.566,-6.53017 L 528.621,-6 L 528.621,-0 L 696.379,-0 L 696.379,-6 L 696.434,-6.53017
 L 696.599,-7.03717 L 696.866,-7.49884 L 697.222,-7.895 L 697.654,-8.20836 L 698.141,-8.42519 L 698.662,-8.53603
 L 699.195,-8.53603 L 699.717,-8.42519 L 700.204,-8.20836 L 700.635,-7.895 L 700.992,-7.49884 L 701.258,-7.03717
 L 701.423,-6.53017 L 701.479,-6 L 701.479,-0 L 869.236,-0 L 869.236,-6 L 869.291,-6.53017
 L 869.456,-7.03717 L 869.723,-7.49884 L 870.079,-7.895 L 870.511,-8.20836 L 870.998,-8.42519 L 871.519,-8.53603
 L 872.052,-8.53603 L 872.574,-8.42519 L 873.061,-8.20836 L 873.492,-7.895 L 873.849,-7.49884 L 874.115,-7.03717
 L 874.28,-6.53017 L 874.336,-6 L 874.336,-0 L 1042.09,-0 L 1042.09,-6 L 1042.15,-6.53017
 L 1042.31,-7.03717 L 1042.58,-7.49884 L 1042.94,-7.895 L 1043.37,-8.20836 L 1043.85,-8.42519 L 1044.38,-8.53603
 L 1044.91,-8.53603 L 1045.43,-8.42519 L 1045.92,-8.20836 L 1046.35,-7.895 L 1046.71,-7.49884 L 1046.97,-7.03717
 L 1047.14,-6.53017 L 1047.19,-6 L 1047.19,-0 L 1214.95,-0 L 1214.95,-6 L 1215.01,-6.53017
 L 1215.17,-7.03717 L 1215.44,-7.49884 L 1215.79,-7.895 L 1216.22,-8.20836 L 1216.71,-8.42519 L 1217.23,-8.53603
 L 1217.77,-8.53603 L 1218.29,-8.42519 L 1218.77,-8.20836 L 1219.21,-7.895 L 1219.56,-7.49884 L 1219.83,-7.03717
 L 1219.99,-6.53017 L 1220.05,-6 L 1220.05,-0 L 1225,-0 z
M 6.98573,-55.607 L 6.47708,-55.6875 L 5.97964,-55.8208 L 5.49887,-56.0054 L 5.04001,-56.2392 L 4.60811,-56.5196
 L 4.20789,-56.8437 L 3.84373,-57.2079 L 3.51964,-57.6081 L 3.23917,-58.04 L 3.00537,-58.4989 L 2.82082,-58.9796
 L 2.68752,-59.4771 L 2.60696,-59.9857 L 2.58,-60.5 L 2.60696,-61.0143 L 2.68752,-61.5229 L 2.82082,-62.0204
 L 3.00537,-62.5011 L 3.23917,-62.96 L 3.51964,-63.3919 L 3.84373,-63.7921 L 4.20789,-64.1563 L 4.60811,-64.4804
 L 4.95001,-64.7024 L 4.95001,-74 L 5.00574,-74.5302 L 5.17047,-75.0372 L 5.43701,-75.4988 L 5.79373,-75.895
 L 6.22501,-76.2084 L 6.71202,-76.4252 L 7.23346,-76.536 L 7.76654,-76.536 L 8.28798,-76.4252 L 8.77499,-76.2084
 L 9.20627,-75.895 L 9.56299,-75.4988 L 9.82953,-75.0372 L 9.99426,-74.5302 L 10.05,-74 L 10.05,-64.7024
 L 10.3919,-64.4804 L 10.7921,-64.1563 L 11.1563,-63.7921 L 11.4804,-63.3919 L 11.7608,-62.96 L 11.9946,-62.5011
 L 12.1792,-62.0204 L 12.3125,-61.5229 L 12.393,-61.0143 L 12.42,-60.5 L 12.393,-59.9857 L 12.3125,-59.4771
 L 12.1792,-58.9796 L 11.9946,-58.4989 L 11.7608,-58.04 L 11.4804,-57.6081 L 11.1563,-57.2079 L 10.7921,-56.8437
 L 10.3919,-56.5196 L 9.95999,-56.2392 L 9.50113,-56.0054 L 9.02036,-55.8208 L 8.52292,-55.6875 L 8.01427,-55.607
 L 7.5,-55.58 z
M 179.843,-55.607 L 179.334,-55.6875 L 178.837,-55.8208 L 178.356,-56.0054 L 177.897,-56.2392 L 177.465,-56.5196
 L 177.065,-56.8437 L 176.701,-57.2079 L 176.377,-57.6081 L 176.096,-58.04 L 175.863,-58.4989 L 175.678,-58.9796
 L 175.545,-59.4771 L 175.464,-59.9857 L 175.437,-60.5 L 175.464,-61.0143 L 175.545,-61.5229 L 175.678,-62.0204
 L 175.863,-62.5011 L 176.096,-62.96 L 176.377,-63.3919 L 176.701,-63.7921 L 177.065,-64.1563 L 177.465,-64.4804
 L 177.807,-64.7024 L 177.807,-74 L 177.863,-74.5302 L 178.028,-75.0372 L 178.294,-75.4988 L 178.651,-75.895
 L 179.082,-76.2084 L 179.569,-76.4252 L 180.091,-76.536 L 180.624,-76.536 L 181.145,-76.4252 L 181.632,-76.2084
 L 182.063,-75.895 L 182.42,-75.4988 L 182.687,-75.0372 L 182.851,-74.5302 L 182.907,-74 L 182.907,-64.7024
 L 183.249,-64.4804 L 183.649,-64.1563 L 184.013,-63.7921 L 184.337,-63.3919 L 184.618,-62.96 L 184.852,-62.5011
 L 185.036,-62.0204 L 185.17,-61.5229 L 185.25,-61.0143 L 185.277,-60.5 L 185.25,-59.9857 L 185.17,-59.4771
 L 185.036,-58.9796 L 184.852,-58.4989 L 184.618,-58.04 L 184.337,-57.6081 L 184.013,-57.2079 L 183.649,-56.8437
 L 183.249,-56.5196 L 182.817,-56.2392 L 182.358,-56.0054 L 181.877,-55.8208 L 181.38,-55.6875 L 180.871,-55.607
 L 180.357,-55.58 z
M 352.7,-55.607 L 352.191,-55.6875 L 351.694,-55.8208 L 351.213,-56.0054 L 350.754,-56.2392 L 350.322,-56.5196
 L 349.922,-56.8437 L 349.558,-57.2079 L 349.234,-57.6081 L 348.953,-58.04 L 348.72,-58.4989 L 348.535,-58.9796
 L 348.402,-59.4771 L 348.321,-59.9857 L 348.294,-60.5 L 348.321,-61.0143 L 348.402,-61.5229 L 348.535,-62.0204
 L 348.72,-62.5011 L 348.953,-62.96 L 349.234,-63.3919 L 349.558,-63.7921 L 349.922,-64.1563 L 350.322,-64.4804
 L 350.664,-64.7024 L 350.664,-74 L 350.72,-74.5302 L 350.885,-75.0372 L 351.151,-75.4988 L 351.508,-75.895
 L 351.939,-76.2084 L 352.426,-76.4252 L 352.948,-76.536 L 353.481,-76.536 L 354.002,-76.4252 L 354.489,-76.2084
 L 354.921,-75.895 L 355.277,-75.4988 L 355.544,-75.0372 L 355.709,-74.5302 L 355.764,-74 L 355.764,-64.7024
 L 356.106,-64.4804 L 356.506,-64.1563 L 356.871,-63.7921 L 357.195,-63.3919 L 357.475,-62.96 L 357.709,-62.5011
 L 357.893,-62.0204 L 358.027,-61.5229 L 358.107,-61.0143 L 358.134,-60.5 L 358.107,-59.9857 L 358.027,-59.4771
 L 357.893,-58.9796 L 357.709,-58.4989 L 357.475,-58.04 L 357.195,-57.6081 L 356.871,-57.2079 L 356.506,-56.8437
 L 356.106,-56.5196 L 355.674,-56.2392 L 355.215,-56.0054 L 354.735,-55.8208 L 354.237,-55.6875 L 353.729,-55.607
 L 353.214,-55.58 z
M 525.557,-55.607 L 525.049,-55.6875 L 524.551,-55.8208 L 524.07,-56.0054 L 523.611,-56.2392 L 523.18,-56.5196
 L 522.779,-56.8437 L 522.415,-57.2079 L 522.091,-57.6081 L 521.811,-58.04 L 521.577,-58.4989 L 521.392,-58.9796
 L 521.259,-59.4771 L 521.178,-59.9857 L 521.151,-60.5 L 521.178,-61.0143 L 521.259,-61.5229 L 521.392,-62.0204
 L 521.577,-62.5011 L 521.811,-62.96 L 522.091,-63.3919 L 522.415,-63.7921 L 522.779,-64.1563 L 523.18,-64.4804
 L 523.521,-64.7024 L 523.521,-74 L 523.577,-74.5302 L 523.742,-75.0372 L 524.008,-75.4988 L 524.365,-75.895
 L 524.796,-76.2084 L 525.283,-76.4252 L 525.805,-76.536 L 526.338,-76.536 L 526.859,-76.4252 L 527.346,-76.2084
 L 527.778,-75.895 L 528.134,-75.4988 L 528.401,-75.0372 L 528.566,-74.5302 L 528.621,-74 L 528.621,-64.7024
 L 528.963,-64.4804 L 529.364,-64.1563 L 529.728,-63.7921 L 530.052,-63.3919 L 530.332,-62.96 L 530.566,-62.5011
 L 530.751,-62.0204 L 530.884,-61.5229 L 530.964,-61.0143 L 530.991,-60.5 L 530.964,-59.9857 L 530.884,-59.4771
 L 530.751,-58.9796 L 530.566,-58.4989 L 530.332,-58.04 L 530.052,-57.6081 L 529.728,-57.2079 L 529.364,-56.8437
 L 528.963,-56.5196 L 528.531,-56.2392 L 528.073,-56.0054 L 527.592,-55.8208 L 527.094,-55.6875 L 526.586,-55.607
 L 526.071,-55.58 z
M 698.414,-55.607 L 697.906,-55.6875 L 697.408,-55.8208 L 696.927,-56.0054 L 696.469,-56.2392 L 696.037,-56.5196
 L 695.636,-56.8437 L 695.272,-57.2079 L 694.948,-57.6081 L 694.668,-58.04 L 694.434,-58.4989 L 694.249,-58.9796
 L 694.116,-59.4771 L 694.036,-59.9857 L 694.009,-60.5 L 694.036,-61.0143 L 694.116,-61.5229 L 694.249,-62.0204
 L 694.434,-62.5011 L 694.668,-62.96 L 694.948,-63.3919 L 695.272,-63.7921 L 695.636,-64.1563 L 696.037,-64.4804
 L 696.379,-64.7024 L 696.379,-74 L 696.434,-74.5302 L 696.599,-75.0372 L 696.866,-75.4988 L 697.222,-75.895
 L 697.654,-76.2084 L 698.141,-76.4252 L 698.662,-76.536 L 699.195,-76.536 L 699.717,-76.4252 L 700.204,-76.2084
 L 700.635,-75.895 L 700.992,-75.4988 L 701.258,-75.0372 L 701.423,-74.5302 L 701.479,-74 L 701.479,-64.7024
 L 701.82,-64.4804 L 702.221,-64.1563 L 702.585,-63.7921 L 702.909,-63.3919 L 703.189,-62.96 L 703.423,-62.5011
 L 703.608,-62.0204 L 703.741,-61.5229 L 703.822,-61.0143 L 703.849,-60.5 L 703.822,-59.9857 L 703.741,-59.4771
 L 703.608,-58.9796 L 703.423,-58.4989 L 703.189,-58.04 L 702.909,-57.6081 L 702.585,-57.2079 L 702.221,-56.8437
 L 701.82,-56.5196 L 701.389,-56.2392 L 700.93,-56.0054 L 700.449,-55.8208 L 699.951,-55.6875 L 699.443,-55.607
 L 698.929,-55.58 z
M 871.271,-55.607 L 870.763,-55.6875 L 870.265,-55.8208 L 869.785,-56.0054 L 869.326,-56.2392 L 868.894,-56.5196
 L 868.494,-56.8437 L 868.129,-57.2079 L 867.805,-57.6081 L 867.525,-58.04 L 867.291,-58.4989 L 867.107,-58.9796
 L 866.973,-59.4771 L 866.893,-59.9857 L 866.866,-60.5 L 866.893,-61.0143 L 866.973,-61.5229 L 867.107,-62.0204
 L 867.291,-62.5011 L 867.525,-62.96 L 867.805,-63.3919 L 868.129,-63.7921 L 868.494,-64.1563 L 868.894,-64.4804
 L 869.236,-64.7024 L 869.236,-74 L 869.291,-74.5302 L 869.456,-75.0372 L 869.723,-75.4988 L 870.079,-75.895
 L 870.511,-76.2084 L 870.998,-76.4252 L 871.519,-76.536 L 872.052,-76.536 L 872.574,-76.4252 L 873.061,-76.2084
 L 873.492,-75.895 L 873.849,-75.4988 L 874.115,-75.0372 L 874.28,-74.5302 L 874.336,-74 L 874.336,-64.7024
 L 874.678,-64.4804 L 875.078,-64.1563 L 875.442,-63.7921 L 875.766,-63.3919 L 876.047,-62.96 L 876.28,-62.5011
 L 876.465,-62.0204 L 876.598,-61.5229 L 876.679,-61.0143 L 876.706,-60.5 L 876.679,-59.9857 L 876.598,-59.4771
 L 876.465,-58.9796 L 876.28,-58.4989 L 876.047,-58.04 L 875.766,-57.6081 L 875.442,-57.2079 L 875.078,-56.8437
 L 874.678,-56.5196 L 874.246,-56.2392 L 873.787,-56.0054 L 873.306,-55.8208 L 872.809,-55.6875 L 872.3,-55.607
 L 871.786,-55.58 z
M 1044.13,-55.607 L 1043.62,-55.6875 L 1043.12,-55.8208 L 1042.64,-56.0054 L 1042.18,-56.2392 L 1041.75,-56.5196
 L 1041.35,-56.8437 L 1040.99,-57.2079 L 1040.66,-57.6081 L 1040.38,-58.04 L 1040.15,-58.4989 L 1039.96,-58.9796
 L 1039.83,-59.4771 L 1039.75,-59.9857 L 1039.72,-60.5 L 1039.75,-61.0143 L 1039.83,-61.5229 L 1039.96,-62.0204
 L 1040.15,-62.5011 L 1040.38,-62.96 L 1040.66,-63.3919 L 1040.99,-63.7921 L 1041.35,-64.1563 L 1041.75,-64.4804
 L 1042.09,-64.7024 L 1042.09,-74 L 1042.15,-74.5302 L 1042.31,-75.0372 L 1042.58,-75.4988 L 1042.94,-75.895
 L 1043.37,-76.2084 L 1043.85,-76.4252 L 1044.38,-76.536 L 1044.91,-76.536 L 1045.43,-76.4252 L 1045.92,-76.2084
 L 1046.35,-75.895 L 1046.71,-75.4988 L 1046.97,-75.0372 L 1047.14,-74.5302 L 1047.19,-74 L 1047.19,-64.7024
 L 1047.53,-64.4804 L 1047.93,-64.1563 L 1048.3,-63.7921 L 1048.62,-63.3919 L 1048.9,-62.96 L 1049.14,-62.5011
 L 1049.32,-62.0204 L 1049.46,-61.5229 L 1049.54,-61.0143 L 1049.56,-60.5 L 1049.54,-59.9857 L 1049.46,-59.4771
 L 1049.32,-58.9796 L 1049.14,-58.4989 L 1048.9,-58.04 L 1048.62,-57.6081 L 1048.3,-57.2079 L 1047.93,-56.8437
 L 1047.53,-56.5196 L 1047.1,-56.2392 L 1046.64,-56.0054 L 1046.16,-55.8208 L 1045.67,-55.6875 L 1045.16,-55.607
 L 1044.64,-55.58 z
M 1216.99,-55.607 L 1216.48,-55.6875 L 1215.98,-55.8208 L 1215.5,-56.0054 L 1215.04,-56.2392 L 1214.61,-56.5196
 L 1214.21,-56.8437 L 1213.84,-57.2079 L 1213.52,-57.6081 L 1213.24,-58.04 L 1213.01,-58.4989 L 1212.82,-58.9796
 L 1212.69,-59.4771 L 1212.61,-59.9857 L 1212.58,-60.5 L 1212.61,-61.0143 L 1212.69,-61.5229 L 1212.82,-62.0204
 L 1213.01,-62.5011 L 1213.24,-62.96 L 1213.52,-63.3919 L 1213.84,-63.7921 L 1214.21,-64.1563 L 1214.61,-64.4804
 L 1214.95,-64.7024 L 1214.95,-74 L 1215.01,-74.5302 L 1215.17,-75.0372 L 1215.44,-75.4988 L 1215.79,-75.895
 L 1216.23,-76.2084 L 1216.71,-76.4252 L 1217.23,-76.536 L 1217.77,-76.536 L 1218.29,-76.4252 L 1218.77,-76.2084
 L 1219.21,-75.895 L 1219.56,-75.4988 L 1219.83,-75.0372 L 1219.99,-74.5302 L 1220.05,-74 L 1220.05,-64.7024
 L 1220.39,-64.4804 L 1220.79,-64.1563 L 1221.16,-63.7921 L 1221.48,-63.3919 L 1221.76,-62.96 L 1221.99,-62.5011
 L 1222.18,-62.0204 L 1222.31,-61.5229 L 1222.39,-61.0143 L 1222.42,-60.5 L 1222.39,-59.9857 L 1222.31,-59.4771
 L 1222.18,-58.9796 L 1221.99,-58.4989 L 1221.76,-58.04 L 1221.48,-57.6081 L 1221.16,-57.2079 L 1220.79,-56.8437
 L 1220.39,-56.5196 L 1219.96,-56.2392 L 1219.5,-56.0054 L 1219.02,-55.8208 L 1218.52,-55.6875 L 1218.01,-55.607
 L 1217.5,-55.58 z
M 710.925,-21.1981 L 710.142,-21.4913 L 709.437,-21.9409 L 708.841,-22.5273 L 708.38,-23.2248 L 708.074,-24.003
 L 707.929,-25.0702 L 707.929,-58 L 708.016,-58.8316 L 708.274,-59.627 L 708.693,-60.3511 L 709.252,-60.9726
 L 709.929,-61.4641 L 710.693,-61.8042 L 711.929,-62 L 795.637,-62 L 796.468,-61.9126 L 797.264,-61.6542
 L 797.988,-61.2361 L 798.609,-60.6765 L 799.101,-60 L 799.441,-59.2361 L 799.615,-58.4181 L 799.615,-57.5819
 L 799.441,-56.7639 L 799.101,-56 L 798.609,-55.3235 L 797.988,-54.7639 L 797.101,-54.2777 L 713.393,-21.3479
 L 712.587,-21.1248 L 711.752,-21.0741 z
M 611.842,-47.8636 L 611.036,-48.0867 L 595.298,-54.2777 L 594.411,-54.7639 L 593.79,-55.3235 L 593.298,-56
 L 592.958,-56.7639 L 592.784,-57.5819 L 592.784,-58.4181 L 592.958,-59.2361 L 593.298,-60 L 593.79,-60.6765
 L 594.411,-61.2361 L 595.136,-61.6542 L 595.931,-61.9126 L 596.762,-62 L 628.237,-62 L 629.241,-61.8721
 L 630.024,-61.5789 L 630.729,-61.1293 L 631.325,-60.5429 L 631.786,-59.8454 L 632.092,-59.0672 L 632.23,-58.2424
 L 632.193,-57.407 L 631.984,-56.5975 L 631.61,-55.8493 L 631.089,-55.1951 L 630.444,-54.6635 L 629.702,-54.2777
 L 613.964,-48.0867 L 613.503,-47.9369 L 612.676,-47.8129 z
M 512.413,-21.1248 L 511.607,-21.3479 L 427.899,-54.2777 L 427.012,-54.7639 L 426.391,-55.3235 L 425.899,-56
 L 425.559,-56.7639 L 425.385,-57.5819 L 425.385,-58.4181 L 425.559,-59.2361 L 425.899,-60 L 426.391,-60.6765
 L 427.012,-61.2361 L 427.736,-61.6542 L 428.532,-61.9126 L 429.363,-62 L 513.071,-62 L 514.307,-61.8042
 L 515.071,-61.4641 L 515.748,-60.9726 L 516.307,-60.3511 L 516.726,-59.627 L 516.984,-58.8316 L 517.071,-58
 L 517.071,-25.0702 L 516.926,-24.003 L 516.62,-23.2248 L 516.159,-22.5273 L 515.563,-21.9409 L 514.858,-21.4913
 L 514.075,-21.1981 L 513.248,-21.0741 z
M 339.556,-21.1248 L 338.75,-21.3479 L 255.042,-54.2777 L 254.155,-54.7639 L 253.534,-55.3235 L 253.042,-56
 L 252.702,-56.7639 L 252.528,-57.5819 L 252.528,-58.4181 L 252.702,-59.2361 L 253.042,-60 L 253.534,-60.6765
 L 254.155,-61.2361 L 254.879,-61.6542 L 255.675,-61.9126 L 256.506,-62 L 340.214,-62 L 341.45,-61.8042
 L 342.214,-61.4641 L 342.891,-60.9726 L 343.45,-60.3511 L 343.868,-59.627 L 344.127,-58.8316 L 344.214,-58
 L 344.214,-25.0702 L 344.069,-24.003 L 343.763,-23.2248 L 343.302,-22.5273 L 342.706,-21.9409 L 342.001,-21.4913
 L 341.218,-21.1981 L 340.391,-21.0741 z
M 1056.64,-21.1981 L 1055.86,-21.4913 L 1055.15,-21.9409 L 1054.56,-22.5273 L 1054.09,-23.2248 L 1053.79,-24.003
 L 1053.64,-25.0702 L 1053.64,-58 L 1053.73,-58.8316 L 1053.99,-59.627 L 1054.41,-60.3511 L 1054.97,-60.9726
 L 1055.64,-61.4641 L 1056.41,-61.8042 L 1057.64,-62 L 1141.35,-62 L 1142.18,-61.9126 L 1142.98,-61.6542
 L 1143.7,-61.2361 L 1144.32,-60.6765 L 1144.82,-60 L 1145.16,-59.2361 L 1145.33,-58.4181 L 1145.33,-57.5819
 L 1145.16,-56.7639 L 1144.82,-56 L 1144.32,-55.3235 L 1143.7,-54.7639 L 1142.82,-54.2777 L 1059.11,-21.3479
 L 1058.3,-21.1248 L 1057.47,-21.0741 z
M 166.699,-21.1248 L 165.893,-21.3479 L 82.1847,-54.2777 L 81.2979,-54.7639 L 80.6765,-55.3235 L 80.185,-56
 L 79.8448,-56.7639 L 79.671,-57.5819 L 79.671,-58.4181 L 79.8448,-59.2361 L 80.185,-60 L 80.6765,-60.6765
 L 81.2979,-61.2361 L 82.0221,-61.6542 L 82.8174,-61.9126 L 83.649,-62 L 167.357,-62 L 168.593,-61.8042
 L 169.357,-61.4641 L 170.034,-60.9726 L 170.593,-60.3511 L 171.011,-59.627 L 171.27,-58.8316 L 171.357,-58
 L 171.357,-25.0702 L 171.212,-24.003 L 170.906,-23.2248 L 170.445,-22.5273 L 169.849,-21.9409 L 169.144,-21.4913
 L 168.36,-21.1981 L 167.533,-21.0741 z
M 883.782,-21.1981 L 882.999,-21.4913 L 882.294,-21.9409 L 881.698,-22.5273 L 881.237,-23.2248 L 880.931,-24.003
 L 880.786,-25.0702 L 880.786,-58 L 880.873,-58.8316 L 881.132,-59.627 L 881.55,-60.3511 L 882.109,-60.9726
 L 882.786,-61.4641 L 883.55,-61.8042 L 884.786,-62 L 968.494,-62 L 969.325,-61.9126 L 970.121,-61.6542
 L 970.845,-61.2361 L 971.466,-60.6765 L 971.958,-60 L 972.298,-59.2361 L 972.472,-58.4181 L 972.472,-57.5819
 L 972.298,-56.7639 L 971.958,-56 L 971.466,-55.3235 L 970.845,-54.7639 L 969.958,-54.2777 L 886.25,-21.3479
 L 885.444,-21.1248 L 884.609,-21.0741 z
M 538.653,-18.945 L 537.835,-19.1189 L 537.071,-19.459 L 536.395,-19.9505 L 535.835,-20.572 L 535.417,-21.2962
 L 535.159,-22.0915 L 535.071,-22.9231 L 535.071,-57.0769 L 535.216,-58.1441 L 535.523,-58.9223 L 535.984,-59.6198
 L 536.58,-60.2062 L 537.285,-60.6558 L 538.068,-60.949 L 538.895,-61.073 L 539.73,-61.0223 L 540.536,-60.7992
 L 583.945,-43.7223 L 584.973,-43.1293 L 585.569,-42.5429 L 586.03,-41.8454 L 586.336,-41.0672 L 586.474,-40.2424
 L 586.437,-39.407 L 586.227,-38.5975 L 585.854,-37.8493 L 585.333,-37.1951 L 584.687,-36.6635 L 583.945,-36.2777
 L 540.536,-19.2008 L 539.49,-18.945 z
M 685.27,-18.9777 L 684.464,-19.2008 L 641.054,-36.2777 L 640.027,-36.8707 L 639.431,-37.4571 L 638.97,-38.1546
 L 638.664,-38.9328 L 638.526,-39.7576 L 638.563,-40.593 L 638.773,-41.4025 L 639.146,-42.1507 L 639.667,-42.8049
 L 640.313,-43.3365 L 641.054,-43.7223 L 684.464,-60.7992 L 685.51,-61.055 L 686.347,-61.055 L 687.165,-60.8811
 L 687.929,-60.541 L 688.605,-60.0495 L 689.165,-59.428 L 689.583,-58.7038 L 689.841,-57.9085 L 689.929,-57.0769
 L 689.929,-22.9231 L 689.784,-21.8559 L 689.477,-21.0777 L 689.016,-20.3802 L 688.42,-19.7938 L 687.715,-19.3442
 L 686.932,-19.051 L 686.105,-18.927 z
M 193.357,-18 L 192.121,-18.1958 L 191.357,-18.5359 L 190.681,-19.0274 L 190.121,-19.6489 L 189.703,-20.373
 L 189.445,-21.1684 L 189.357,-22 L 189.357,-54.9298 L 189.502,-55.997 L 189.808,-56.7752 L 190.269,-57.4727
 L 190.866,-58.0591 L 191.571,-58.5087 L 192.354,-58.8019 L 193.181,-58.9259 L 194.016,-58.8752 L 194.821,-58.6521
 L 278.53,-25.7223 L 279.416,-25.2361 L 280.038,-24.6765 L 280.529,-24 L 280.869,-23.2361 L 281.043,-22.4181
 L 281.043,-21.5819 L 280.869,-20.7639 L 280.529,-20 L 280.038,-19.3235 L 279.416,-18.7639 L 278.692,-18.3458
 L 277.897,-18.0874 L 277.065,-18 z
M 366.214,-18 L 364.978,-18.1958 L 364.214,-18.5359 L 363.538,-19.0274 L 362.978,-19.6489 L 362.56,-20.373
 L 362.302,-21.1684 L 362.214,-22 L 362.214,-54.9298 L 362.359,-55.997 L 362.665,-56.7752 L 363.127,-57.4727
 L 363.723,-58.0591 L 364.428,-58.5087 L 365.211,-58.8019 L 366.038,-58.9259 L 366.873,-58.8752 L 367.679,-58.6521
 L 451.387,-25.7223 L 452.273,-25.2361 L 452.895,-24.6765 L 453.386,-24 L 453.727,-23.2361 L 453.9,-22.4181
 L 453.9,-21.5819 L 453.727,-20.7639 L 453.386,-20 L 452.895,-19.3235 L 452.273,-18.7639 L 451.549,-18.3458
 L 450.754,-18.0874 L 449.922,-18 z
M 775.078,-18 L 774.246,-18.0874 L 773.451,-18.3458 L 772.726,-18.7639 L 772.105,-19.3235 L 771.614,-20
 L 771.273,-20.7639 L 771.1,-21.5819 L 771.1,-22.4181 L 771.273,-23.2361 L 771.614,-24 L 772.105,-24.6765
 L 772.726,-25.2361 L 773.613,-25.7223 L 857.321,-58.6521 L 858.127,-58.8752 L 858.962,-58.9259 L 859.789,-58.8019
 L 860.572,-58.5087 L 861.277,-58.0591 L 861.873,-57.4727 L 862.335,-56.7752 L 862.641,-55.997 L 862.786,-54.9298
 L 862.786,-22 L 862.698,-21.1684 L 862.44,-20.373 L 862.022,-19.6489 L 861.462,-19.0274 L 860.786,-18.5359
 L 860.022,-18.1958 L 858.786,-18 z
M 947.935,-18 L 947.103,-18.0874 L 946.308,-18.3458 L 945.584,-18.7639 L 944.962,-19.3235 L 944.471,-20
 L 944.131,-20.7639 L 943.957,-21.5819 L 943.957,-22.4181 L 944.131,-23.2361 L 944.471,-24 L 944.962,-24.6765
 L 945.584,-25.2361 L 946.47,-25.7223 L 1030.18,-58.6521 L 1030.98,-58.8752 L 1031.82,-58.9259 L 1032.65,-58.8019
 L 1033.43,-58.5087 L 1034.13,-58.0591 L 1034.73,-57.4727 L 1035.19,-56.7752 L 1035.5,-55.997 L 1035.64,-54.9298
 L 1035.64,-22 L 1035.56,-21.1684 L 1035.3,-20.373 L 1034.88,-19.6489 L 1034.32,-19.0274 L 1033.64,-18.5359
 L 1032.88,-18.1958 L 1031.64,-18 z
M 22,-18 L 20.7639,-18.1958 L 20,-18.5359 L 19.3235,-19.0274 L 18.7639,-19.6489 L 18.3458,-20.373
 L 18.0874,-21.1684 L 18,-22 L 18,-54.3397 L 18.145,-55.4069 L 18.4511,-56.1851 L 18.9124,-56.8826
 L 19.5085,-57.469 L 20.2136,-57.9186 L 20.9967,-58.2118 L 21.8237,-58.3358 L 22.6584,-58.2851 L 23.4643,-58.062
 L 105.672,-25.7223 L 106.559,-25.2361 L 107.181,-24.6765 L 107.672,-24 L 108.012,-23.2361 L 108.186,-22.4181
 L 108.186,-21.5819 L 108.012,-20.7639 L 107.672,-20 L 107.181,-19.3235 L 106.559,-18.7639 L 105.835,-18.3458
 L 105.04,-18.0874 L 104.208,-18 z
M 1120.79,-18 L 1119.96,-18.0874 L 1119.16,-18.3458 L 1118.44,-18.7639 L 1117.82,-19.3235 L 1117.33,-20
 L 1116.99,-20.7639 L 1116.81,-21.5819 L 1116.81,-22.4181 L 1116.99,-23.2361 L 1117.33,-24 L 1117.82,-24.6765
 L 1118.44,-25.2361 L 1119.33,-25.7223 L 1201.54,-58.062 L 1202.34,-58.2851 L 1203.18,-58.3358 L 1204,-58.2118
 L 1204.79,-57.9186 L 1205.49,-57.469 L 1206.09,-56.8826 L 1206.55,-56.1851 L 1206.86,-55.4069 L 1207,-54.3397
 L 1207,-22 L 1206.91,-21.1684 L 1206.65,-20.373 L 1206.24,-19.6489 L 1205.68,-19.0274 L 1205,-18.5359
 L 1204.24,-18.1958 L 1203,-18 z
M 596.762,-18 L 595.759,-18.1279 L 594.976,-18.4211 L 594.271,-18.8707 L 593.675,-19.4571 L 593.214,-20.1546
 L 592.907,-20.9328 L 592.77,-21.7576 L 592.807,-22.593 L 593.016,-23.4025 L 593.39,-24.1507 L 593.911,-24.8049
 L 594.556,-25.3365 L 595.298,-25.7223 L 611.036,-31.9133 L 611.497,-32.0631 L 612.324,-32.1871 L 613.158,-32.1364
 L 613.964,-31.9133 L 629.702,-25.7223 L 630.589,-25.2361 L 631.21,-24.6765 L 631.702,-24 L 632.042,-23.2361
 L 632.216,-22.4181 L 632.216,-21.5819 L 632.042,-20.7639 L 631.702,-20 L 631.21,-19.3235 L 630.589,-18.7639
 L 629.864,-18.3458 L 629.069,-18.0874 L 628.237,-18 z
" stroke="black" fill="lightgray" stroke-width="0.5"/>
</svg>
