<?xml version="1.0" standalone="no"?>
<!DOCTYPE svg PUBLIC "-//W3C//DTD SVG 1.1//EN" "http://www.w3.org/Graphics/SVG/1.1/DTD/svg11.dtd">
<svg width="1659mm" height="80mm" viewBox="0 -80 1659 80" xmlns="http://www.w3.org/2000/svg" version="1.1">
<title>OpenSCAD Model</title>
<path d="
M 1659,-80 L 0,-80 L 0,-0 L 4.95,-0 L 4.95,-6 L 5.00572,-6.53017
 L 5.17046,-7.03717 L 5.437,-7.49884 L 5.79372,-7.895 L 6.22499,-8.20836 L 6.71201,-8.42519 L 7.23344,-8.53603
 L 7.76654,-8.53603 L 8.28798,-8.42519 L 8.77499,-8.20836 L 9.20627,-7.895 L 9.56299,-7.49884 L 9.82953,-7.03717
 L 9.99426,-6.53017 L 10.05,-6 L 10.05,-0 L 187.617,-0 L 187.617,-6 L 187.672,-6.53017
 L 187.837,-7.03717 L 188.104,-7.49884 L 188.46,-7.895 L 188.892,-8.20836 L 189.379,-8.42519 L 189.9,-8.53603
 L 190.433,-8.53603 L 190.955,-8.42519 L 191.442,-8.20836 L 191.873,-7.895 L 192.23,-7.49884 L 192.496,-7.03717
 L 192.661,-6.53017 L 192.717,-6 L 192.717,-0 L 370.283,-0 L 370.283,-6 L 370.339,-6.53017
 L 370.504,-7.03717 L 370.77,-7.49884 L 371.127,-7.895 L 371.558,-8.20836 L 372.045,-8.42519 L 372.567,-8.53603
 L 373.1,-8.53603 L 373.621,-8.42519 L 374.108,-8.20836 L 374.54,-7.895 L 374.896,-7.49884 L 375.163,-7.03717
 L 375.328,-6.53017 L 375.383,-6 L 375.383,-0 L 552.95,-0 L 552.95,-6 L 553.006,-6.53017
 L 553.17,-7.03717 L 553.437,-7.49884 L 553.794,-7.895 L 554.225,-8.20836 L 554.712,-8.42519 L 555.233,-8.53603
 L 555.767,-8.53603 L 556.288,-8.42519 L 556.775,-8.20836 L 557.206,-7.895 L 557.563,-7.49884 L 557.83,-7.03717
 L 557.994,-6.53017 L 558.05,-6 L 558.05,-0 L 735.617,-0 L 735.617,-6 L 735.672,-6.53017
 L 735.837,-7.03717 L 736.104,-7.49884 L 736.46,-7.895 L 736.892,-8.20836 L 737.379,-8.42519 L 737.9,-8.53603
 L 738.433,-8.53603 L 738.955,-8.42519 L 739.442,-8.20836 L 739.873,-7.895 L 740.23,-7.49884 L 740.496,-7.03717
 L 740.661,-6.53017 L 740.717,-6 L 740.717,-0 L 918.283,-0 L 918.283,-6 L 918.339,-6.53017
 L 918.504,-7.03717 L 918.77,-7.49884 L 919.127,-7.895 L 919.558,-8.20836 L 920.045,-8.42519 L 920.567,-8.53603
 L 921.1,-8.53603 L 921.621,-8.42519 L 922.108,-8.20836 L 922.54,-7.895 L 922.896,-7.49884 L 923.163,-7.03717
 L 923.328,-6.53017 L 923.383,-6 L 923.383,-0 L 1100.95,-0 L 1100.95,-6 L 1101.01,-6.53017
 L 1101.17,-7.03717 L 1101.44,-7.49884 L 1101.79,-7.895 L 1102.22,-8.20836 L 1102.71,-8.42519 L 1103.23,-8.53603
 L 1103.77,-8.53603 L 1104.29,-8.42519 L 1104.77,-8.20836 L 1105.21,-7.895 L 1105.56,-7.49884 L 1105.83,-7.03717
 L 1105.99,-6.53017 L 1106.05,-6 L 1106.05,-0 L 1283.62,-0 L 1283.62,-6 L 1283.67,-6.53017
 L 1283.84,-7.03717 L 1284.1,-7.49884 L 1284.46,-7.895 L 1284.89,-8.20836 L 1285.38,-8.42519 L 1285.9,-8.53603
 L 1286.43,-8.53603 L 1286.95,-8.42519 L 1287.44,-8.20836 L 1287.87,-7.895 L 1288.23,-7.49884 L 1288.5,-7.03717
 L 1288.66,-6.53017 L 1288.72,-6 L 1288.72,-0 L 1466.28,-0 L 1466.28,-6 L 1466.34,-6.53017
 L 1466.5,-7.03717 L 1466.77,-7.49884 L 1467.13,-7.895 L 1467.56,-8.20836 L 1468.05,-8.42519 L 1468.57,-8.53603
 L 1469.1,-8.53603 L 1469.62,-8.42519 L 1470.11,-8.20836 L 1470.54,-7.895 L 1470.9,-7.49884 L 1471.16,-7.03717
 L 1471.33,-6.53017 L 1471.38,-6 L 1471.38,-0 L 1648.95,-0 L 1648.95,-6 L 1649.01,-6.53017
 L 1649.17,-7.03717 L 1649.44,-7.49884 L 1649.79,-7.895 L 1650.22,-8.20836 L 1650.71,-8.42519 L 1651.23,-8.53603
 L 1651.77,-8.53603 L 1652.29,-8.42519 L 1652.77,-8.20836 L 1653.21,-7.895 L 1653.56,-7.49884 L 1653.83,-7.03717
 L 1653.99,-6.53017 L 1654.05,-6 L 1654.05,-0 L 1659,-0 z
M 6.98573,-55.607 L 6.47708,-55.6875 L 5.97964,-55.8208 L 5.49887,-56.0054 L 5.04001,-56.2392 L 4.60811,-56.5196
 L 4.20789,-56.8437 L 3.84373,-57.2079 L 3.51964,-57.6081 L 3.23917,-58.04 L 3.00537,-58.4989 L 2.82082,-58.9796
 L 2.68752,-59.4771 L 2.60696,-59.9857 L 2.58,-60.5 L 2.60696,-61.0143 L 2.68752,-61.5229 L 2.82082,-62.0204
 L 3.00537,-62.5011 L 3.23917,-62.96 L 3.51964,-63.3919 L 3.84373,-63.7921 L 4.20789,-64.1563 L 4.60811,-64.4804
 L 4.95001,-64.7024 L 4.95001,-74 L 5.00574,-74.5302 L 5.17047,-75.0372 L 5.43701,-75.4988 L 5.79373,-75.895
 L 6.22501,-76.2084 L 6.71202,-76.4252 L 7.23346,-76.536 L 7.76654,-76.536 L 8.28798,-76.4252 L 8.77499,-76.2084
 L 9.20627,-75.895 L 9.56299,-75.4988 L 9.82953,-75.0372 L 9.99426,-74.5302 L 10.05,-74 L 10.05,-64.7024
 L 10.3919,-64.4804 L 10.7921,-64.1563 L 11.1563,-63.7921 L 11.4804,-63.3919 L 11.7608,-62.96 L 11.9946,-62.5011
 L 12.1792,-62.0204 L 12.3125,-61.5229 L 12.393,-61.0143 L 12.42,-60.5 L 12.393,-59.9857 L 12.3125,-59.4771
 L 12.1792,-58.9796 L 11.9946,-58.4989 L 11.7608,-58.04 L 11.4804,-57.6081 L 11.1563,-57.2079 L 10.7921,-56.8437
 L 10.3919,-56.5196 L 9.95999,-56.2392 L 9.50113,-56.0054 L 9.02036,-55.8208 L 8.52292,-55.6875 L 8.01427,-55.607
 L 7.5,-55.58 z
M 1102.99,-55.607 L 1102.48,-55.6875 L 1101.98,-55.8208 L 1101.5,-56.0054 L 1101.04,-56.2392 L 1100.61,-56.5196
 L 1100.21,-56.8437 L 1099.84,-57.2079 L 1099.52,-57.6081 L 1099.24,-58.04 L 1099.01,-58.4989 L 1098.82,-58.9796
 L 1098.69,-59.4771 L 1098.61,-59.9857 L 1098.58,-60.5 L 1098.61,-61.0143 L 1098.69,-61.5229 L 1098.82,-62.0204
 L 1099.01,-62.5011 L 1099.24,-62.96 L 1099.52,-63.3919 L 1099.84,-63.7921 L 1100.21,-64.1563 L 1100.61,-64.4804
 L 1100.95,-64.7024 L 1100.95,-74 L 1101.01,-74.5302 L 1101.17,-75.0372 L 1101.44,-75.4988 L 1101.79,-75.895
 L 1102.23,-76.2084 L 1102.71,-76.4252 L 1103.23,-76.536 L 1103.77,-76.536 L 1104.29,-76.4252 L 1104.77,-76.2084
 L 1105.21,-75.895 L 1105.56,-75.4988 L 1105.83,-75.0372 L 1105.99,-74.5302 L 1106.05,-74 L 1106.05,-64.7024
 L 1106.39,-64.4804 L 1106.79,-64.1563 L 1107.16,-63.7921 L 1107.48,-63.3919 L 1107.76,-62.96 L 1107.99,-62.5011
 L 1108.18,-62.0204 L 1108.31,-61.5229 L 1108.39,-61.0143 L 1108.42,-60.5 L 1108.39,-59.9857 L 1108.31,-59.4771
 L 1108.18,-58.9796 L 1107.99,-58.4989 L 1107.76,-58.04 L 1107.48,-57.6081 L 1107.16,-57.2079 L 1106.79,-56.8437
 L 1106.39,-56.5196 L 1105.96,-56.2392 L 1105.5,-56.0054 L 1105.02,-55.8208 L 1104.52,-55.6875 L 1104.01,-55.607
 L 1103.5,-55.58 z
M 1285.65,-55.607 L 1285.14,-55.6875 L 1284.65,-55.8208 L 1284.17,-56.0054 L 1283.71,-56.2392 L 1283.27,-56.5196
 L 1282.87,-56.8437 L 1282.51,-57.2079 L 1282.19,-57.6081 L 1281.91,-58.04 L 1281.67,-58.4989 L 1281.49,-58.9796
 L 1281.35,-59.4771 L 1281.27,-59.9857 L 1281.25,-60.5 L 1281.27,-61.0143 L 1281.35,-61.5229 L 1281.49,-62.0204
 L 1281.67,-62.5011 L 1281.91,-62.96 L 1282.19,-63.3919 L 1282.51,-63.7921 L 1282.87,-64.1563 L 1283.27,-64.4804
 L 1283.62,-64.7024 L 1283.62,-74 L 1283.67,-74.5302 L 1283.84,-75.0372 L 1284.1,-75.4988 L 1284.46,-75.895
 L 1284.89,-76.2084 L 1285.38,-76.4252 L 1285.9,-76.536 L 1286.43,-76.536 L 1286.95,-76.4252 L 1287.44,-76.2084
 L 1287.87,-75.895 L 1288.23,-75.4988 L 1288.5,-75.0372 L 1288.66,-74.5302 L 1288.72,-74 L 1288.72,-64.7024
 L 1289.06,-64.4804 L 1289.46,-64.1563 L 1289.82,-63.7921 L 1290.15,-63.3919 L 1290.43,-62.96 L 1290.66,-62.5011
 L 1290.85,-62.0204 L 1290.98,-61.5229 L 1291.06,-61.0143 L 1291.09,-60.5 L 1291.06,-59.9857 L 1290.98,-59.4771
 L 1290.85,-58.9796 L 1290.66,-58.4989 L 1290.43,-58.04 L 1290.15,-57.6081 L 1289.82,-57.2079 L 1289.46,-56.8437
 L 1289.06,-56.5196 L 1288.63,-56.2392 L 1288.17,-56.0054 L 1287.69,-55.8208 L 1287.19,-55.6875 L 1286.68,-55.607
 L 1286.17,-55.58 z
M 920.319,-55.607 L 919.81,-55.6875 L 919.313,-55.8208 L 918.832,-56.0054 L 918.373,-56.2392 L 917.941,-56.5196
 L 917.541,-56.8437 L 917.177,-57.2079 L 916.853,-57.6081 L 916.572,-58.04 L 916.339,-58.4989 L 916.154,-58.9796
 L 916.021,-59.4771 L 915.94,-59.9857 L 915.913,-60.5 L 915.94,-61.0143 L 916.021,-61.5229 L 916.154,-62.0204
 L 916.339,-62.5011 L 916.572,-62.96 L 916.853,-63.3919 L 917.177,-63.7921 L 917.541,-64.1563 L 917.941,-64.4804
 L 918.283,-64.7024 L 918.283,-74 L 918.339,-74.5302 L 918.504,-75.0372 L 918.77,-75.4988 L 919.127,-75.895
 L 919.558,-76.2084 L 920.045,-76.4252 L 920.567,-76.536 L 921.1,-76.536 L 921.621,-76.4252 L 922.108,-76.2084
 L 922.54,-75.895 L 922.896,-75.4988 L 923.163,-75.0372 L 923.328,-74.5302 L 923.383,-74 L 923.383,-64.7024
 L 923.725,-64.4804 L 924.125,-64.1563 L 924.49,-63.7921 L 924.814,-63.3919 L 925.094,-62.96 L 925.328,-62.5011
 L 925.513,-62.0204 L 925.646,-61.5229 L 925.726,-61.0143 L 925.753,-60.5 L 925.726,-59.9857 L 925.646,-59.4771
 L 925.513,-58.9796 L 925.328,-58.4989 L 925.094,-58.04 L 924.814,-57.6081 L 924.49,-57.2079 L 924.125,-56.8437
 L 923.725,-56.5196 L 923.293,-56.2392 L 922.834,-56.0054 L 922.354,-55.8208 L 921.856,-55.6875 L 921.348,-55.607
 L 920.833,-55.58 z
M 737.652,-55.607 L 737.144,-55.6875 L 736.646,-55.8208 L 736.166,-56.0054 L 735.707,-56.2392 L 735.275,-56.5196
 L 734.875,-56.8437 L 734.51,-57.2079 L 734.186,-57.6081 L 733.906,-58.04 L 733.672,-58.4989 L 733.487,-58.9796
 L 733.354,-59.4771 L 733.274,-59.9857 L 733.247,-60.5 L 733.274,-61.0143 L 733.354,-61.5229 L 733.487,-62.0204
 L 733.672,-62.5011 L 733.906,-62.96 L 734.186,-63.3919 L 734.51,-63.7921 L 734.875,-64.1563 L 735.275,-64.4804
 L 735.617,-64.7024 L 735.617,-74 L 735.672,-74.5302 L 735.837,-75.0372 L 736.104,-75.4988 L 736.46,-75.895
 L 736.892,-76.2084 L 737.379,-76.4252 L 737.9,-76.536 L 738.433,-76.536 L 738.955,-76.4252 L 739.442,-76.2084
 L 739.873,-75.895 L 740.23,-75.4988 L 740.496,-75.0372 L 740.661,-74.5302 L 740.717,-74 L 740.717,-64.7024
 L 741.059,-64.4804 L 741.459,-64.1563 L 741.823,-63.7921 L 742.147,-63.3919 L 742.427,-62.96 L 742.661,-62.5011
 L 742.846,-62.0204 L 742.979,-61.5229 L 743.06,-61.0143 L 743.087,-60.5 L 743.06,-59.9857 L 742.979,-59.4771
 L 742.846,-58.9796 L 742.661,-58.4989 L 742.427,-58.04 L 742.147,-57.6081 L 741.823,-57.2079 L 741.459,-56.8437
 L 741.059,-56.5196 L 740.627,-56.2392 L 740.168,-56.0054 L 739.687,-55.8208 L 739.19,-55.6875 L 738.681,-55.607
 L 738.167,-55.58 z
M 1468.32,-55.607 L 1467.81,-55.6875 L 1467.31,-55.8208 L 1466.83,-56.0054 L 1466.37,-56.2392 L 1465.94,-56.5196
 L 1465.54,-56.8437 L 1465.18,-57.2079 L 1464.85,-57.6081 L 1464.57,-58.04 L 1464.34,-58.4989 L 1464.15,-58.9796
 L 1464.02,-59.4771 L 1463.94,-59.9857 L 1463.91,-60.5 L 1463.94,-61.0143 L 1464.02,-61.5229 L 1464.15,-62.0204
 L 1464.34,-62.5011 L 1464.57,-62.96 L 1464.85,-63.3919 L 1465.18,-63.7921 L 1465.54,-64.1563 L 1465.94,-64.4804
 L 1466.28,-64.7024 L 1466.28,-74 L 1466.34,-74.5302 L 1466.5,-75.0372 L 1466.77,-75.4988 L 1467.13,-75.895
 L 1467.56,-76.2084 L 1468.05,-76.4252 L 1468.57,-76.536 L 1469.1,-76.536 L 1469.62,-76.4252 L 1470.11,-76.2084
 L 1470.54,-75.895 L 1470.9,-75.4988 L 1471.16,-75.0372 L 1471.33,-74.5302 L 1471.38,-74 L 1471.38,-64.7024
 L 1471.73,-64.4804 L 1472.13,-64.1563 L 1472.49,-63.7921 L 1472.81,-63.3919 L 1473.09,-62.96 L 1473.33,-62.5011
 L 1473.51,-62.0204 L 1473.65,-61.5229 L 1473.73,-61.0143 L 1473.75,-60.5 L 1473.73,-59.9857 L 1473.65,-59.4771
 L 1473.51,-58.9796 L 1473.33,-58.4989 L 1473.09,-58.04 L 1472.81,-57.6081 L 1472.49,-57.2079 L 1472.13,-56.8437
 L 1471.73,-56.5196 L 1471.29,-56.2392 L 1470.83,-56.0054 L 1470.35,-55.8208 L 1469.86,-55.6875 L 1469.35,-55.607
 L 1468.83,-55.58 z
M 554.986,-55.607 L 554.477,-55.6875 L 553.98,-55.8208 L 553.499,-56.0054 L 553.04,-56.2392 L 552.608,-56.5196
 L 552.208,-56.8437 L 551.844,-57.2079 L 551.52,-57.6081 L 551.239,-58.04 L 551.005,-58.4989 L 550.821,-58.9796
 L 550.688,-59.4771 L 550.607,-59.9857 L 550.58,-60.5 L 550.607,-61.0143 L 550.688,-61.5229 L 550.821,-62.0204
 L 551.005,-62.5011 L 551.239,-62.96 L 551.52,-63.3919 L 551.844,-63.7921 L 552.208,-64.1563 L 552.608,-64.4804
 L 552.95,-64.7024 L 552.95,-74 L 553.006,-74.5302 L 553.17,-75.0372 L 553.437,-75.4988 L 553.794,-75.895
 L 554.225,-76.2084 L 554.712,-76.4252 L 555.233,-76.536 L 555.767,-76.536 L 556.288,-76.4252 L 556.775,-76.2084
 L 557.206,-75.895 L 557.563,-75.4988 L 557.83,-75.0372 L 557.994,-74.5302 L 558.05,-74 L 558.05,-64.7024
 L 558.392,-64.4804 L 558.792,-64.1563 L 559.156,-63.7921 L 559.48,-63.3919 L 559.761,-62.96 L 559.995,-62.5011
 L 560.179,-62.0204 L 560.312,-61.5229 L 560.393,-61.0143 L 560.42,-60.5 L 560.393,-59.9857 L 560.312,-59.4771
 L 560.179,-58.9796 L 559.995,-58.4989 L 559.761,-58.04 L 559.48,-57.6081 L 559.156,-57.2079 L 558.792,-56.8437
 L 558.392,-56.5196 L 557.96,-56.2392 L 557.501,-56.0054 L 557.02,-55.8208 L 556.523,-55.6875 L 556.014,-55.607
 L 555.5,-55.58 z
M 372.319,-55.607 L 371.81,-55.6875 L 371.313,-55.8208 L 370.832,-56.0054 L 370.373,-56.2392 L 369.941,-56.5196
 L 369.541,-56.8437 L 369.177,-57.2079 L 368.853,-57.6081 L 368.572,-58.04 L 368.339,-58.4989 L 368.154,-58.9796
 L 368.021,-59.4771 L 367.94,-59.9857 L 367.913,-60.5 L 367.94,-61.0143 L 368.021,-61.5229 L 368.154,-62.0204
 L 368.339,-62.5011 L 368.572,-62.96 L 368.853,-63.3919 L 369.177,-63.7921 L 369.541,-64.1563 L 369.941,-64.4804
 L 370.283,-64.7024 L 370.283,-74 L 370.339,-74.5302 L 370.504,-75.0372 L 370.77,-75.4988 L 371.127,-75.895
 L 371.558,-76.2084 L 372.045,-76.4252 L 372.567,-76.536 L 373.1,-76.536 L 373.621,-76.4252 L 374.108,-76.2084
 L 374.54,-75.895 L 374.896,-75.4988 L 375.163,-75.0372 L 375.328,-74.5302 L 375.383,-74 L 375.383,-64.7024
 L 375.725,-64.4804 L 376.125,-64.1563 L 376.49,-63.7921 L 376.814,-63.3919 L 377.094,-62.96 L 377.328,-62.5011
 L 377.513,-62.0204 L 377.646,-61.5229 L 377.726,-61.0143 L 377.753,-60.5 L 377.726,-59.9857 L 377.646,-59.4771
 L 377.513,-58.9796 L 377.328,-58.4989 L 377.094,-58.04 L 376.814,-57.6081 L 376.49,-57.2079 L 376.125,-56.8437
 L 375.725,-56.5196 L 375.293,-56.2392 L 374.834,-56.0054 L 374.354,-55.8208 L 373.856,-55.6875 L 373.348,-55.607
 L 372.833,-55.58 z
M 1650.99,-55.607 L 1650.48,-55.6875 L 1649.98,-55.8208 L 1649.5,-56.0054 L 1649.04,-56.2392 L 1648.61,-56.5196
 L 1648.21,-56.8437 L 1647.84,-57.2079 L 1647.52,-57.6081 L 1647.24,-58.04 L 1647.01,-58.4989 L 1646.82,-58.9796
 L 1646.69,-59.4771 L 1646.61,-59.9857 L 1646.58,-60.5 L 1646.61,-61.0143 L 1646.69,-61.5229 L 1646.82,-62.0204
 L 1647.01,-62.5011 L 1647.24,-62.96 L 1647.52,-63.3919 L 1647.84,-63.7921 L 1648.21,-64.1563 L 1648.61,-64.4804
 L 1648.95,-64.7024 L 1648.95,-74 L 1649.01,-74.5302 L 1649.17,-75.0372 L 1649.44,-75.4988 L 1649.79,-75.895
 L 1650.23,-76.2084 L 1650.71,-76.4252 L 1651.23,-76.536 L 1651.77,-76.536 L 1652.29,-76.4252 L 1652.77,-76.2084
 L 1653.21,-75.895 L 1653.56,-75.4988 L 1653.83,-75.0372 L 1653.99,-74.5302 L 1654.05,-74 L 1654.05,-64.7024
 L 1654.39,-64.4804 L 1654.79,-64.1563 L 1655.16,-63.7921 L 1655.48,-63.3919 L 1655.76,-62.96 L 1655.99,-62.5011
 L 1656.18,-62.0204 L 1656.31,-61.5229 L 1656.39,-61.0143 L 1656.42,-60.5 L 1656.39,-59.9857 L 1656.31,-59.4771
 L 1656.18,-58.9796 L 1655.99,-58.4989 L 1655.76,-58.04 L 1655.48,-57.6081 L 1655.16,-57.2079 L 1654.79,-56.8437
 L 1654.39,-56.5196 L 1653.96,-56.2392 L 1653.5,-56.0054 L 1653.02,-55.8208 L 1652.52,-55.6875 L 1652.01,-55.607
 L 1651.5,-55.58 z
M 189.652,-55.607 L 189.144,-55.6875 L 188.646,-55.8208 L 188.166,-56.0054 L 187.707,-56.2392 L 187.275,-56.5196
 L 186.875,-56.8437 L 186.51,-57.2079 L 186.186,-57.6081 L 185.906,-58.04 L 185.672,-58.4989 L 185.487,-58.9796
 L 185.354,-59.4771 L 185.274,-59.9857 L 185.247,-60.5 L 185.274,-61.0143 L 185.354,-61.5229 L 185.487,-62.0204
 L 185.672,-62.5011 L 185.906,-62.96 L 186.186,-63.3919 L 186.51,-63.7921 L 186.875,-64.1563 L 187.275,-64.4804
 L 187.617,-64.7024 L 187.617,-74 L 187.672,-74.5302 L 187.837,-75.0372 L 188.104,-75.4988 L 188.46,-75.895
 L 188.892,-76.2084 L 189.379,-76.4252 L 189.9,-76.536 L 190.433,-76.536 L 190.955,-76.4252 L 191.442,-76.2084
 L 191.873,-75.895 L 192.23,-75.4988 L 192.496,-75.0372 L 192.661,-74.5302 L 192.717,-74 L 192.717,-64.7024
 L 193.059,-64.4804 L 193.459,-64.1563 L 193.823,-63.7921 L 194.147,-63.3919 L 194.427,-62.96 L 194.661,-62.5011
 L 194.846,-62.0204 L 194.979,-61.5229 L 195.06,-61.0143 L 195.087,-60.5 L 195.06,-59.9857 L 194.979,-59.4771
 L 194.846,-58.9796 L 194.661,-58.4989 L 194.427,-58.04 L 194.147,-57.6081 L 193.823,-57.2079 L 193.459,-56.8437
 L 193.059,-56.5196 L 192.627,-56.2392 L 192.168,-56.0054 L 191.687,-55.8208 L 191.19,-55.6875 L 190.681,-55.607
 L 190.167,-55.58 z
M 1115.43,-20.8456 L 1114.65,-21.1532 L 1113.95,-21.6157 L 1113.37,-22.213 L 1112.92,-22.9189 L 1112.63,-23.7026
 L 1112.5,-24.6986 L 1112.5,-58 L 1112.59,-58.8316 L 1112.85,-59.627 L 1113.26,-60.3511 L 1113.82,-60.9726
 L 1114.5,-61.4641 L 1115.26,-61.8042 L 1116.5,-62 L 1205.96,-62 L 1206.79,-61.9126 L 1207.58,-61.6542
 L 1208.31,-61.2361 L 1208.93,-60.6765 L 1209.42,-60 L 1209.76,-59.2361 L 1209.93,-58.4181 L 1209.93,-57.5819
 L 1209.76,-56.7639 L 1209.42,-56 L 1208.93,-55.3235 L 1208.31,-54.7639 L 1207.35,-54.2513 L 1117.9,-20.9499
 L 1117.09,-20.7417 L 1116.25,-20.7064 z
M 932.759,-20.8456 L 931.981,-21.1532 L 931.285,-21.6157 L 930.699,-22.213 L 930.251,-22.9189 L 929.959,-23.7026
 L 929.833,-24.6986 L 929.833,-58 L 929.921,-58.8316 L 930.179,-59.627 L 930.597,-60.3511 L 931.157,-60.9726
 L 931.833,-61.4641 L 932.597,-61.8042 L 933.833,-62 L 1023.29,-62 L 1024.12,-61.9126 L 1024.92,-61.6542
 L 1025.64,-61.2361 L 1026.26,-60.6765 L 1026.75,-60 L 1027.09,-59.2361 L 1027.27,-58.4181 L 1027.27,-57.5819
 L 1027.09,-56.7639 L 1026.75,-56 L 1026.26,-55.3235 L 1025.64,-54.7639 L 1024.69,-54.2513 L 935.229,-20.9499
 L 934.419,-20.7417 L 933.583,-20.7064 z
M 828.914,-47.7701 L 828.104,-47.9783 L 811.253,-54.2513 L 810.298,-54.7639 L 809.676,-55.3235 L 809.185,-56
 L 808.845,-56.7639 L 808.671,-57.5819 L 808.671,-58.4181 L 808.845,-59.2361 L 809.185,-60 L 809.676,-60.6765
 L 810.298,-61.2361 L 811.022,-61.6542 L 811.817,-61.9126 L 812.649,-62 L 846.351,-62 L 847.425,-61.853
 L 848.203,-61.5454 L 848.9,-61.0829 L 849.485,-60.4856 L 849.933,-59.7797 L 850.225,-58.996 L 850.347,-58.1688
 L 850.295,-57.3342 L 850.071,-56.5287 L 849.683,-55.7875 L 849.151,-55.143 L 848.495,-54.6234 L 847.746,-54.2513
 L 830.895,-47.9783 L 829.75,-47.7348 z
M 724.581,-20.7417 L 723.771,-20.9499 L 634.314,-54.2513 L 633.359,-54.7639 L 632.737,-55.3235 L 632.246,-56
 L 631.906,-56.7639 L 631.732,-57.5819 L 631.732,-58.4181 L 631.906,-59.2361 L 632.246,-60 L 632.737,-60.6765
 L 633.359,-61.2361 L 634.083,-61.6542 L 634.878,-61.9126 L 635.71,-62 L 725.167,-62 L 726.403,-61.8042
 L 727.167,-61.4641 L 727.843,-60.9726 L 728.403,-60.3511 L 728.821,-59.627 L 729.079,-58.8316 L 729.167,-58
 L 729.167,-24.6986 L 729.041,-23.7026 L 728.749,-22.9189 L 728.301,-22.213 L 727.715,-21.6157 L 727.019,-21.1532
 L 726.241,-20.8456 L 725.417,-20.7064 z
M 541.914,-20.7417 L 541.104,-20.9499 L 451.648,-54.2513 L 450.692,-54.7639 L 450.071,-55.3235 L 449.579,-56
 L 449.239,-56.7639 L 449.065,-57.5819 L 449.065,-58.4181 L 449.239,-59.2361 L 449.579,-60 L 450.071,-60.6765
 L 450.692,-61.2361 L 451.416,-61.6542 L 452.212,-61.9126 L 453.043,-62 L 542.5,-62 L 543.736,-61.8042
 L 544.5,-61.4641 L 545.177,-60.9726 L 545.736,-60.3511 L 546.154,-59.627 L 546.413,-58.8316 L 546.5,-58
 L 546.5,-24.6986 L 546.374,-23.7026 L 546.082,-22.9189 L 545.634,-22.213 L 545.049,-21.6157 L 544.352,-21.1532
 L 543.574,-20.8456 L 542.75,-20.7064 z
M 359.248,-20.7417 L 358.438,-20.9499 L 268.981,-54.2513 L 268.025,-54.7639 L 267.404,-55.3235 L 266.913,-56
 L 266.572,-56.7639 L 266.399,-57.5819 L 266.399,-58.4181 L 266.572,-59.2361 L 266.913,-60 L 267.404,-60.6765
 L 268.025,-61.2361 L 268.75,-61.6542 L 269.545,-61.9126 L 270.377,-62 L 359.833,-62 L 361.069,-61.8042
 L 361.833,-61.4641 L 362.51,-60.9726 L 363.069,-60.3511 L 363.487,-59.627 L 363.746,-58.8316 L 363.833,-58
 L 363.833,-24.6986 L 363.707,-23.7026 L 363.416,-22.9189 L 362.967,-22.213 L 362.382,-21.6157 L 361.685,-21.1532
 L 360.908,-20.8456 L 360.083,-20.7064 z
M 1480.76,-20.8456 L 1479.98,-21.1532 L 1479.28,-21.6157 L 1478.7,-22.213 L 1478.25,-22.9189 L 1477.96,-23.7026
 L 1477.83,-24.6986 L 1477.83,-58 L 1477.92,-58.8316 L 1478.18,-59.627 L 1478.6,-60.3511 L 1479.16,-60.9726
 L 1479.83,-61.4641 L 1480.6,-61.8042 L 1481.83,-62 L 1571.29,-62 L 1572.12,-61.9126 L 1572.92,-61.6542
 L 1573.64,-61.2361 L 1574.26,-60.6765 L 1574.75,-60 L 1575.09,-59.2361 L 1575.27,-58.4181 L 1575.27,-57.5819
 L 1575.09,-56.7639 L 1574.75,-56 L 1574.26,-55.3235 L 1573.64,-54.7639 L 1572.69,-54.2513 L 1483.23,-20.9499
 L 1482.42,-20.7417 L 1481.58,-20.7064 z
M 176.581,-20.7417 L 175.771,-20.9499 L 86.3145,-54.2513 L 85.3588,-54.7639 L 84.7374,-55.3235 L 84.2459,-56
 L 83.9057,-56.7639 L 83.7319,-57.5819 L 83.7319,-58.4181 L 83.9057,-59.2361 L 84.2459,-60 L 84.7374,-60.6765
 L 85.3588,-61.2361 L 86.083,-61.6542 L 86.8783,-61.9126 L 87.71,-62 L 177.167,-62 L 178.403,-61.8042
 L 179.167,-61.4641 L 179.843,-60.9726 L 180.403,-60.3511 L 180.821,-59.627 L 181.079,-58.8316 L 181.167,-58
 L 181.167,-24.6986 L 181.041,-23.7026 L 180.749,-22.9189 L 180.301,-22.213 L 179.715,-21.6157 L 179.019,-21.1532
 L 178.241,-20.8456 L 177.417,-20.7064 z
M 1298.09,-20.8456 L 1297.31,-21.1532 L 1296.62,-21.6157 L 1296.03,-22.213 L 1295.58,-22.9189 L 1295.29,-23.7026
 L 1295.17,-24.6986 L 1295.17,-58 L 1295.25,-58.8316 L 1295.51,-59.627 L 1295.93,-60.3511 L 1296.49,-60.9726
 L 1297.17,-61.4641 L 1297.93,-61.8042 L 1299.17,-62 L 1388.62,-62 L 1389.46,-61.9126 L 1390.25,-61.6542
 L 1390.97,-61.2361 L 1391.6,-60.6765 L 1392.09,-60 L 1392.43,-59.2361 L 1392.6,-58.4181 L 1392.6,-57.5819
 L 1392.43,-56.7639 L 1392.09,-56 L 1391.6,-55.3235 L 1390.97,-54.7639 L 1390.02,-54.2513 L 1300.56,-20.9499
 L 1299.75,-20.7417 L 1298.92,-20.7064 z
M 750.749,-18.5883 L 749.931,-18.7622 L 749.167,-19.1023 L 748.49,-19.5939 L 747.931,-20.2153 L 747.512,-20.9395
 L 747.254,-21.7348 L 747.167,-22.5664 L 747.167,-57.4336 L 747.293,-58.4296 L 747.584,-59.2133 L 748.033,-59.9192
 L 748.618,-60.5164 L 749.315,-60.979 L 750.092,-61.2866 L 750.917,-61.4258 L 751.752,-61.3905 L 752.562,-61.1822
 L 799.394,-43.7487 L 799.85,-43.5454 L 800.547,-43.0829 L 801.132,-42.4856 L 801.58,-41.7797 L 801.872,-40.996
 L 801.994,-40.1688 L 801.942,-39.3342 L 801.718,-38.5287 L 801.33,-37.7875 L 800.798,-37.143 L 800.142,-36.6234
 L 799.394,-36.2513 L 752.562,-18.8178 L 751.585,-18.5883 z
M 907.248,-18.6095 L 906.438,-18.8177 L 859.606,-36.2513 L 859.15,-36.4546 L 858.453,-36.9171 L 857.868,-37.5144
 L 857.42,-38.2203 L 857.128,-39.004 L 857.005,-39.8312 L 857.058,-40.6658 L 857.282,-41.4713 L 857.67,-42.2125
 L 858.202,-42.857 L 858.858,-43.3766 L 859.606,-43.7487 L 906.438,-61.1823 L 907.415,-61.4117 L 908.251,-61.4117
 L 909.069,-61.2378 L 909.833,-60.8977 L 910.51,-60.4062 L 911.069,-59.7847 L 911.487,-59.0605 L 911.746,-58.2652
 L 911.833,-57.4336 L 911.833,-22.5664 L 911.707,-21.5704 L 911.416,-20.7867 L 910.967,-20.0808 L 910.382,-19.4836
 L 909.685,-19.021 L 908.908,-18.7134 L 908.083,-18.5742 z
M 203.167,-18 L 201.931,-18.1958 L 201.167,-18.5359 L 200.49,-19.0274 L 199.931,-19.6489 L 199.512,-20.373
 L 199.254,-21.1684 L 199.167,-22 L 199.167,-55.3014 L 199.293,-56.2974 L 199.584,-57.0811 L 200.033,-57.787
 L 200.618,-58.3843 L 201.315,-58.8468 L 202.092,-59.1544 L 202.917,-59.2936 L 203.752,-59.2583 L 204.562,-59.0501
 L 294.019,-25.7487 L 294.974,-25.2361 L 295.596,-24.6765 L 296.087,-24 L 296.428,-23.2361 L 296.601,-22.4181
 L 296.601,-21.5819 L 296.428,-20.7639 L 296.087,-20 L 295.596,-19.3235 L 294.974,-18.7639 L 294.25,-18.3458
 L 293.455,-18.0874 L 292.623,-18 z
M 385.833,-18 L 384.597,-18.1958 L 383.833,-18.5359 L 383.157,-19.0274 L 382.597,-19.6489 L 382.179,-20.373
 L 381.921,-21.1684 L 381.833,-22 L 381.833,-55.3014 L 381.959,-56.2974 L 382.251,-57.0811 L 382.699,-57.787
 L 383.285,-58.3843 L 383.981,-58.8468 L 384.759,-59.1544 L 385.583,-59.2936 L 386.419,-59.2583 L 387.229,-59.0501
 L 476.686,-25.7487 L 477.641,-25.2361 L 478.263,-24.6765 L 478.754,-24 L 479.094,-23.2361 L 479.268,-22.4181
 L 479.268,-21.5819 L 479.094,-20.7639 L 478.754,-20 L 478.263,-19.3235 L 477.641,-18.7639 L 476.917,-18.3458
 L 476.122,-18.0874 L 475.29,-18 z
M 568.5,-18 L 567.264,-18.1958 L 566.5,-18.5359 L 565.823,-19.0274 L 565.264,-19.6489 L 564.846,-20.373
 L 564.587,-21.1684 L 564.5,-22 L 564.5,-55.3014 L 564.626,-56.2974 L 564.918,-57.0811 L 565.366,-57.787
 L 565.951,-58.3843 L 566.648,-58.8468 L 567.426,-59.1544 L 568.25,-59.2936 L 569.086,-59.2583 L 569.895,-59.0501
 L 659.352,-25.7487 L 660.308,-25.2361 L 660.929,-24.6765 L 661.421,-24 L 661.761,-23.2361 L 661.935,-22.4181
 L 661.935,-21.5819 L 661.761,-20.7639 L 661.421,-20 L 660.929,-19.3235 L 660.308,-18.7639 L 659.584,-18.3458
 L 658.788,-18.0874 L 657.957,-18 z
M 1001.04,-18 L 1000.21,-18.0874 L 999.416,-18.3458 L 998.692,-18.7639 L 998.071,-19.3235 L 997.579,-20
 L 997.239,-20.7639 L 997.065,-21.5819 L 997.065,-22.4181 L 997.239,-23.2361 L 997.579,-24 L 998.071,-24.6765
 L 998.692,-25.2361 L 999.648,-25.7487 L 1089.1,-59.0501 L 1089.91,-59.2583 L 1090.75,-59.2936 L 1091.57,-59.1544
 L 1092.35,-58.8468 L 1093.05,-58.3843 L 1093.63,-57.787 L 1094.08,-57.0811 L 1094.37,-56.2974 L 1094.5,-55.3014
 L 1094.5,-22 L 1094.41,-21.1684 L 1094.15,-20.373 L 1093.74,-19.6489 L 1093.18,-19.0274 L 1092.5,-18.5359
 L 1091.74,-18.1958 L 1090.5,-18 z
M 1183.71,-18 L 1182.88,-18.0874 L 1182.08,-18.3458 L 1181.36,-18.7639 L 1180.74,-19.3235 L 1180.25,-20
 L 1179.91,-20.7639 L 1179.73,-21.5819 L 1179.73,-22.4181 L 1179.91,-23.2361 L 1180.25,-24 L 1180.74,-24.6765
 L 1181.36,-25.2361 L 1182.31,-25.7487 L 1271.77,-59.0501 L 1272.58,-59.2583 L 1273.42,-59.2936 L 1274.24,-59.1544
 L 1275.02,-58.8468 L 1275.72,-58.3843 L 1276.3,-57.787 L 1276.75,-57.0811 L 1277.04,-56.2974 L 1277.17,-55.3014
 L 1277.17,-22 L 1277.08,-21.1684 L 1276.82,-20.373 L 1276.4,-19.6489 L 1275.84,-19.0274 L 1275.17,-18.5359
 L 1274.4,-18.1958 L 1273.17,-18 z
M 1366.38,-18 L 1365.54,-18.0874 L 1364.75,-18.3458 L 1364.03,-18.7639 L 1363.4,-19.3235 L 1362.91,-20
 L 1362.57,-20.7639 L 1362.4,-21.5819 L 1362.4,-22.4181 L 1362.57,-23.2361 L 1362.91,-24 L 1363.4,-24.6765
 L 1364.03,-25.2361 L 1364.98,-25.7487 L 1454.44,-59.0501 L 1455.25,-59.2583 L 1456.08,-59.2936 L 1456.91,-59.1544
 L 1457.69,-58.8468 L 1458.38,-58.3843 L 1458.97,-57.787 L 1459.42,-57.0811 L 1459.71,-56.2974 L 1459.83,-55.3014
 L 1459.83,-22 L 1459.75,-21.1684 L 1459.49,-20.373 L 1459.07,-19.6489 L 1458.51,-19.0274 L 1457.83,-18.5359
 L 1457.07,-18.1958 L 1455.83,-18 z
M 22,-18 L 20.7639,-18.1958 L 20,-18.5359 L 19.3235,-19.0274 L 18.7639,-19.6489 L 18.3458,-20.373
 L 18.0874,-21.1684 L 18,-22 L 18,-54.743 L 18.126,-55.739 L 18.4177,-56.5227 L 18.866,-57.2286
 L 19.4513,-57.8259 L 20.1479,-58.2884 L 20.9256,-58.596 L 21.7501,-58.7352 L 22.5856,-58.6999 L 23.3955,-58.4917
 L 111.352,-25.7487 L 112.308,-25.2361 L 112.929,-24.6765 L 113.421,-24 L 113.761,-23.2361 L 113.935,-22.4181
 L 113.935,-21.5819 L 113.761,-20.7639 L 113.421,-20 L 112.929,-19.3235 L 112.308,-18.7639 L 111.584,-18.3458
 L 110.788,-18.0874 L 109.957,-18 z
M 1549.04,-18 L 1548.21,-18.0874 L 1547.42,-18.3458 L 1546.69,-18.7639 L 1546.07,-19.3235 L 1545.58,-20
 L 1545.24,-20.7639 L 1545.07,-21.5819 L 1545.07,-22.4181 L 1545.24,-23.2361 L 1545.58,-24 L 1546.07,-24.6765
 L 1546.69,-25.2361 L 1547.65,-25.7487 L 1635.6,-58.4917 L 1636.41,-58.6999 L 1637.25,-58.7352 L 1638.07,-58.596
 L 1638.85,-58.2884 L 1639.55,-57.8259 L 1640.13,-57.2286 L 1640.58,-56.5227 L 1640.87,-55.739 L 1641,-54.743
 L 1641,-22 L 1640.91,-21.1684 L 1640.65,-20.373 L 1640.24,-19.6489 L 1639.68,-19.0274 L 1639,-18.5359
 L 1638.24,-18.1958 L 1637,-18 z
M 812.649,-18 L 811.575,-18.147 L 810.797,-18.4546 L 810.1,-18.9171 L 809.515,-19.5144 L 809.067,-20.2203
 L 808.775,-21.004 L 808.653,-21.8312 L 808.705,-22.6658 L 808.929,-23.4713 L 809.317,-24.2125 L 809.849,-24.857
 L 810.505,-25.3766 L 811.253,-25.7487 L 828.104,-32.0217 L 829.25,-32.2652 L 830.086,-32.2299 L 830.895,-32.0217
 L 847.746,-25.7487 L 848.702,-25.2361 L 849.324,-24.6765 L 849.815,-24 L 850.155,-23.2361 L 850.329,-22.4181
 L 850.329,-21.5819 L 850.155,-20.7639 L 849.815,-20 L 849.324,-19.3235 L 848.702,-18.7639 L 847.978,-18.3458
 L 847.183,-18.0874 L 846.351,-18 z
" stroke="black" fill="lightgray" stroke-width="0.5"/>
</svg>
