<?xml version="1.0" standalone="no"?>
<!DOCTYPE svg PUBLIC "-//W3C//DTD SVG 1.1//EN" "http://www.w3.org/Graphics/SVG/1.1/DTD/svg11.dtd">
<svg width="1497mm" height="80mm" viewBox="0 -80 1497 80" xmlns="http://www.w3.org/2000/svg" version="1.1">
<title>OpenSCAD Model</title>
<path d="
M 1497,-80 L 0,-80 L 0,-0 L 4.95,-0 L 4.95,-6 L 5.00572,-6.53017
 L 5.17046,-7.03717 L 5.437,-7.49884 L 5.79372,-7.895 L 6.22499,-8.20836 L 6.71201,-8.42519 L 7.23344,-8.53603
 L 7.76654,-8.53603 L 8.28798,-8.42519 L 8.77499,-8.20836 L 9.20627,-7.895 L 9.56299,-7.49884 L 9.82953,-7.03717
 L 9.99426,-6.53017 L 10.05,-6 L 10.05,-0 L 190.2,-0 L 190.2,-6 L 190.256,-6.53017
 L 190.42,-7.03717 L 190.687,-7.49884 L 191.044,-7.895 L 191.475,-8.20836 L 191.962,-8.42519 L 192.483,-8.53603
 L 193.017,-8.53603 L 193.538,-8.42519 L 194.025,-8.20836 L 194.456,-7.895 L 194.813,-7.49884 L 195.08,-7.03717
 L 195.244,-6.53017 L 195.3,-6 L 195.3,-0 L 375.45,-0 L 375.45,-6 L 375.506,-6.53017
 L 375.67,-7.03717 L 375.937,-7.49884 L 376.294,-7.895 L 376.725,-8.20836 L 377.212,-8.42519 L 377.733,-8.53603
 L 378.267,-8.53603 L 378.788,-8.42519 L 379.275,-8.20836 L 379.706,-7.895 L 380.063,-7.49884 L 380.33,-7.03717
 L 380.494,-6.53017 L 380.55,-6 L 380.55,-0 L 560.7,-0 L 560.7,-6 L 560.756,-6.53017
 L 560.92,-7.03717 L 561.187,-7.49884 L 561.544,-7.895 L 561.975,-8.20836 L 562.462,-8.42519 L 562.983,-8.53603
 L 563.517,-8.53603 L 564.038,-8.42519 L 564.525,-8.20836 L 564.956,-7.895 L 565.313,-7.49884 L 565.58,-7.03717
 L 565.744,-6.53017 L 565.8,-6 L 565.8,-0 L 745.95,-0 L 745.95,-6 L 746.006,-6.53017
 L 746.17,-7.03717 L 746.437,-7.49884 L 746.794,-7.895 L 747.225,-8.20836 L 747.712,-8.42519 L 748.233,-8.53603
 L 748.767,-8.53603 L 749.288,-8.42519 L 749.775,-8.20836 L 750.206,-7.895 L 750.563,-7.49884 L 750.83,-7.03717
 L 750.994,-6.53017 L 751.05,-6 L 751.05,-0 L 931.2,-0 L 931.2,-6 L 931.256,-6.53017
 L 931.42,-7.03717 L 931.687,-7.49884 L 932.044,-7.895 L 932.475,-8.20836 L 932.962,-8.42519 L 933.483,-8.53603
 L 934.017,-8.53603 L 934.538,-8.42519 L 935.025,-8.20836 L 935.456,-7.895 L 935.813,-7.49884 L 936.08,-7.03717
 L 936.244,-6.53017 L 936.3,-6 L 936.3,-0 L 1116.45,-0 L 1116.45,-6 L 1116.51,-6.53017
 L 1116.67,-7.03717 L 1116.94,-7.49884 L 1117.29,-7.895 L 1117.72,-8.20836 L 1118.21,-8.42519 L 1118.73,-8.53603
 L 1119.27,-8.53603 L 1119.79,-8.42519 L 1120.27,-8.20836 L 1120.71,-7.895 L 1121.06,-7.49884 L 1121.33,-7.03717
 L 1121.49,-6.53017 L 1121.55,-6 L 1121.55,-0 L 1301.7,-0 L 1301.7,-6 L 1301.76,-6.53017
 L 1301.92,-7.03717 L 1302.19,-7.49884 L 1302.54,-7.895 L 1302.97,-8.20836 L 1303.46,-8.42519 L 1303.98,-8.53603
 L 1304.52,-8.53603 L 1305.04,-8.42519 L 1305.52,-8.20836 L 1305.96,-7.895 L 1306.31,-7.49884 L 1306.58,-7.03717
 L 1306.74,-6.53017 L 1306.8,-6 L 1306.8,-0 L 1486.95,-0 L 1486.95,-6 L 1487.01,-6.53017
 L 1487.17,-7.03717 L 1487.44,-7.49884 L 1487.79,-7.895 L 1488.22,-8.20836 L 1488.71,-8.42519 L 1489.23,-8.53603
 L 1489.77,-8.53603 L 1490.29,-8.42519 L 1490.77,-8.20836 L 1491.21,-7.895 L 1491.56,-7.49884 L 1491.83,-7.03717
 L 1491.99,-6.53017 L 1492.05,-6 L 1492.05,-0 L 1497,-0 z
M 192.236,-55.607 L 191.727,-55.6875 L 191.23,-55.8208 L 190.749,-56.0054 L 190.29,-56.2392 L 189.858,-56.5196
 L 189.458,-56.8437 L 189.094,-57.2079 L 188.77,-57.6081 L 188.489,-58.04 L 188.255,-58.4989 L 188.071,-58.9796
 L 187.938,-59.4771 L 187.857,-59.9857 L 187.83,-60.5 L 187.857,-61.0143 L 187.938,-61.5229 L 188.071,-62.0204
 L 188.255,-62.5011 L 188.489,-62.96 L 188.77,-63.3919 L 189.094,-63.7921 L 189.458,-64.1563 L 189.858,-64.4804
 L 190.2,-64.7024 L 190.2,-74 L 190.256,-74.5302 L 190.42,-75.0372 L 190.687,-75.4988 L 191.044,-75.895
 L 191.475,-76.2084 L 191.962,-76.4252 L 192.483,-76.536 L 193.017,-76.536 L 193.538,-76.4252 L 194.025,-76.2084
 L 194.456,-75.895 L 194.813,-75.4988 L 195.08,-75.0372 L 195.244,-74.5302 L 195.3,-74 L 195.3,-64.7024
 L 195.642,-64.4804 L 196.042,-64.1563 L 196.406,-63.7921 L 196.73,-63.3919 L 197.011,-62.96 L 197.245,-62.5011
 L 197.429,-62.0204 L 197.562,-61.5229 L 197.643,-61.0143 L 197.67,-60.5 L 197.643,-59.9857 L 197.562,-59.4771
 L 197.429,-58.9796 L 197.245,-58.4989 L 197.011,-58.04 L 196.73,-57.6081 L 196.406,-57.2079 L 196.042,-56.8437
 L 195.642,-56.5196 L 195.21,-56.2392 L 194.751,-56.0054 L 194.27,-55.8208 L 193.773,-55.6875 L 193.264,-55.607
 L 192.75,-55.58 z
M 1118.49,-55.607 L 1117.98,-55.6875 L 1117.48,-55.8208 L 1117,-56.0054 L 1116.54,-56.2392 L 1116.11,-56.5196
 L 1115.71,-56.8437 L 1115.34,-57.2079 L 1115.02,-57.6081 L 1114.74,-58.04 L 1114.51,-58.4989 L 1114.32,-58.9796
 L 1114.19,-59.4771 L 1114.11,-59.9857 L 1114.08,-60.5 L 1114.11,-61.0143 L 1114.19,-61.5229 L 1114.32,-62.0204
 L 1114.51,-62.5011 L 1114.74,-62.96 L 1115.02,-63.3919 L 1115.34,-63.7921 L 1115.71,-64.1563 L 1116.11,-64.4804
 L 1116.45,-64.7024 L 1116.45,-74 L 1116.51,-74.5302 L 1116.67,-75.0372 L 1116.94,-75.4988 L 1117.29,-75.895
 L 1117.73,-76.2084 L 1118.21,-76.4252 L 1118.73,-76.536 L 1119.27,-76.536 L 1119.79,-76.4252 L 1120.27,-76.2084
 L 1120.71,-75.895 L 1121.06,-75.4988 L 1121.33,-75.0372 L 1121.49,-74.5302 L 1121.55,-74 L 1121.55,-64.7024
 L 1121.89,-64.4804 L 1122.29,-64.1563 L 1122.66,-63.7921 L 1122.98,-63.3919 L 1123.26,-62.96 L 1123.49,-62.5011
 L 1123.68,-62.0204 L 1123.81,-61.5229 L 1123.89,-61.0143 L 1123.92,-60.5 L 1123.89,-59.9857 L 1123.81,-59.4771
 L 1123.68,-58.9796 L 1123.49,-58.4989 L 1123.26,-58.04 L 1122.98,-57.6081 L 1122.66,-57.2079 L 1122.29,-56.8437
 L 1121.89,-56.5196 L 1121.46,-56.2392 L 1121,-56.0054 L 1120.52,-55.8208 L 1120.02,-55.6875 L 1119.51,-55.607
 L 1119,-55.58 z
M 933.236,-55.607 L 932.727,-55.6875 L 932.23,-55.8208 L 931.749,-56.0054 L 931.29,-56.2392 L 930.858,-56.5196
 L 930.458,-56.8437 L 930.094,-57.2079 L 929.77,-57.6081 L 929.489,-58.04 L 929.255,-58.4989 L 929.071,-58.9796
 L 928.938,-59.4771 L 928.857,-59.9857 L 928.83,-60.5 L 928.857,-61.0143 L 928.938,-61.5229 L 929.071,-62.0204
 L 929.255,-62.5011 L 929.489,-62.96 L 929.77,-63.3919 L 930.094,-63.7921 L 930.458,-64.1563 L 930.858,-64.4804
 L 931.2,-64.7024 L 931.2,-74 L 931.256,-74.5302 L 931.42,-75.0372 L 931.687,-75.4988 L 932.044,-75.895
 L 932.475,-76.2084 L 932.962,-76.4252 L 933.483,-76.536 L 934.017,-76.536 L 934.538,-76.4252 L 935.025,-76.2084
 L 935.456,-75.895 L 935.813,-75.4988 L 936.08,-75.0372 L 936.244,-74.5302 L 936.3,-74 L 936.3,-64.7024
 L 936.642,-64.4804 L 937.042,-64.1563 L 937.406,-63.7921 L 937.73,-63.3919 L 938.011,-62.96 L 938.245,-62.5011
 L 938.429,-62.0204 L 938.562,-61.5229 L 938.643,-61.0143 L 938.67,-60.5 L 938.643,-59.9857 L 938.562,-59.4771
 L 938.429,-58.9796 L 938.245,-58.4989 L 938.011,-58.04 L 937.73,-57.6081 L 937.406,-57.2079 L 937.042,-56.8437
 L 936.642,-56.5196 L 936.21,-56.2392 L 935.751,-56.0054 L 935.27,-55.8208 L 934.773,-55.6875 L 934.264,-55.607
 L 933.75,-55.58 z
M 6.98573,-55.607 L 6.47708,-55.6875 L 5.97964,-55.8208 L 5.49887,-56.0054 L 5.04001,-56.2392 L 4.60811,-56.5196
 L 4.20789,-56.8437 L 3.84373,-57.2079 L 3.51964,-57.6081 L 3.23917,-58.04 L 3.00537,-58.4989 L 2.82082,-58.9796
 L 2.68752,-59.4771 L 2.60696,-59.9857 L 2.58,-60.5 L 2.60696,-61.0143 L 2.68752,-61.5229 L 2.82082,-62.0204
 L 3.00537,-62.5011 L 3.23917,-62.96 L 3.51964,-63.3919 L 3.84373,-63.7921 L 4.20789,-64.1563 L 4.60811,-64.4804
 L 4.95001,-64.7024 L 4.95001,-74 L 5.00574,-74.5302 L 5.17047,-75.0372 L 5.43701,-75.4988 L 5.79373,-75.895
 L 6.22501,-76.2084 L 6.71202,-76.4252 L 7.23346,-76.536 L 7.76654,-76.536 L 8.28798,-76.4252 L 8.77499,-76.2084
 L 9.20627,-75.895 L 9.56299,-75.4988 L 9.82953,-75.0372 L 9.99426,-74.5302 L 10.05,-74 L 10.05,-64.7024
 L 10.3919,-64.4804 L 10.7921,-64.1563 L 11.1563,-63.7921 L 11.4804,-63.3919 L 11.7608,-62.96 L 11.9946,-62.5011
 L 12.1792,-62.0204 L 12.3125,-61.5229 L 12.393,-61.0143 L 12.42,-60.5 L 12.393,-59.9857 L 12.3125,-59.4771
 L 12.1792,-58.9796 L 11.9946,-58.4989 L 11.7608,-58.04 L 11.4804,-57.6081 L 11.1563,-57.2079 L 10.7921,-56.8437
 L 10.3919,-56.5196 L 9.95999,-56.2392 L 9.50113,-56.0054 L 9.02036,-55.8208 L 8.52292,-55.6875 L 8.01427,-55.607
 L 7.5,-55.58 z
M 747.986,-55.607 L 747.477,-55.6875 L 746.98,-55.8208 L 746.499,-56.0054 L 746.04,-56.2392 L 745.608,-56.5196
 L 745.208,-56.8437 L 744.844,-57.2079 L 744.52,-57.6081 L 744.239,-58.04 L 744.005,-58.4989 L 743.821,-58.9796
 L 743.688,-59.4771 L 743.607,-59.9857 L 743.58,-60.5 L 743.607,-61.0143 L 743.688,-61.5229 L 743.821,-62.0204
 L 744.005,-62.5011 L 744.239,-62.96 L 744.52,-63.3919 L 744.844,-63.7921 L 745.208,-64.1563 L 745.608,-64.4804
 L 745.95,-64.7024 L 745.95,-74 L 746.006,-74.5302 L 746.17,-75.0372 L 746.437,-75.4988 L 746.794,-75.895
 L 747.225,-76.2084 L 747.712,-76.4252 L 748.233,-76.536 L 748.767,-76.536 L 749.288,-76.4252 L 749.775,-76.2084
 L 750.206,-75.895 L 750.563,-75.4988 L 750.83,-75.0372 L 750.994,-74.5302 L 751.05,-74 L 751.05,-64.7024
 L 751.392,-64.4804 L 751.792,-64.1563 L 752.156,-63.7921 L 752.48,-63.3919 L 752.761,-62.96 L 752.995,-62.5011
 L 753.179,-62.0204 L 753.312,-61.5229 L 753.393,-61.0143 L 753.42,-60.5 L 753.393,-59.9857 L 753.312,-59.4771
 L 753.179,-58.9796 L 752.995,-58.4989 L 752.761,-58.04 L 752.48,-57.6081 L 752.156,-57.2079 L 751.792,-56.8437
 L 751.392,-56.5196 L 750.96,-56.2392 L 750.501,-56.0054 L 750.02,-55.8208 L 749.523,-55.6875 L 749.014,-55.607
 L 748.5,-55.58 z
M 1303.74,-55.607 L 1303.23,-55.6875 L 1302.73,-55.8208 L 1302.25,-56.0054 L 1301.79,-56.2392 L 1301.36,-56.5196
 L 1300.96,-56.8437 L 1300.59,-57.2079 L 1300.27,-57.6081 L 1299.99,-58.04 L 1299.76,-58.4989 L 1299.57,-58.9796
 L 1299.44,-59.4771 L 1299.36,-59.9857 L 1299.33,-60.5 L 1299.36,-61.0143 L 1299.44,-61.5229 L 1299.57,-62.0204
 L 1299.76,-62.5011 L 1299.99,-62.96 L 1300.27,-63.3919 L 1300.59,-63.7921 L 1300.96,-64.1563 L 1301.36,-64.4804
 L 1301.7,-64.7024 L 1301.7,-74 L 1301.76,-74.5302 L 1301.92,-75.0372 L 1302.19,-75.4988 L 1302.54,-75.895
 L 1302.98,-76.2084 L 1303.46,-76.4252 L 1303.98,-76.536 L 1304.52,-76.536 L 1305.04,-76.4252 L 1305.52,-76.2084
 L 1305.96,-75.895 L 1306.31,-75.4988 L 1306.58,-75.0372 L 1306.74,-74.5302 L 1306.8,-74 L 1306.8,-64.7024
 L 1307.14,-64.4804 L 1307.54,-64.1563 L 1307.91,-63.7921 L 1308.23,-63.3919 L 1308.51,-62.96 L 1308.74,-62.5011
 L 1308.93,-62.0204 L 1309.06,-61.5229 L 1309.14,-61.0143 L 1309.17,-60.5 L 1309.14,-59.9857 L 1309.06,-59.4771
 L 1308.93,-58.9796 L 1308.74,-58.4989 L 1308.51,-58.04 L 1308.23,-57.6081 L 1307.91,-57.2079 L 1307.54,-56.8437
 L 1307.14,-56.5196 L 1306.71,-56.2392 L 1306.25,-56.0054 L 1305.77,-55.8208 L 1305.27,-55.6875 L 1304.76,-55.607
 L 1304.25,-55.58 z
M 562.736,-55.607 L 562.227,-55.6875 L 561.73,-55.8208 L 561.249,-56.0054 L 560.79,-56.2392 L 560.358,-56.5196
 L 559.958,-56.8437 L 559.594,-57.2079 L 559.27,-57.6081 L 558.989,-58.04 L 558.755,-58.4989 L 558.571,-58.9796
 L 558.438,-59.4771 L 558.357,-59.9857 L 558.33,-60.5 L 558.357,-61.0143 L 558.438,-61.5229 L 558.571,-62.0204
 L 558.755,-62.5011 L 558.989,-62.96 L 559.27,-63.3919 L 559.594,-63.7921 L 559.958,-64.1563 L 560.358,-64.4804
 L 560.7,-64.7024 L 560.7,-74 L 560.756,-74.5302 L 560.92,-75.0372 L 561.187,-75.4988 L 561.544,-75.895
 L 561.975,-76.2084 L 562.462,-76.4252 L 562.983,-76.536 L 563.517,-76.536 L 564.038,-76.4252 L 564.525,-76.2084
 L 564.956,-75.895 L 565.313,-75.4988 L 565.58,-75.0372 L 565.744,-74.5302 L 565.8,-74 L 565.8,-64.7024
 L 566.142,-64.4804 L 566.542,-64.1563 L 566.906,-63.7921 L 567.23,-63.3919 L 567.511,-62.96 L 567.745,-62.5011
 L 567.929,-62.0204 L 568.062,-61.5229 L 568.143,-61.0143 L 568.17,-60.5 L 568.143,-59.9857 L 568.062,-59.4771
 L 567.929,-58.9796 L 567.745,-58.4989 L 567.511,-58.04 L 567.23,-57.6081 L 566.906,-57.2079 L 566.542,-56.8437
 L 566.142,-56.5196 L 565.71,-56.2392 L 565.251,-56.0054 L 564.77,-55.8208 L 564.273,-55.6875 L 563.764,-55.607
 L 563.25,-55.58 z
M 377.486,-55.607 L 376.977,-55.6875 L 376.48,-55.8208 L 375.999,-56.0054 L 375.54,-56.2392 L 375.108,-56.5196
 L 374.708,-56.8437 L 374.344,-57.2079 L 374.02,-57.6081 L 373.739,-58.04 L 373.505,-58.4989 L 373.321,-58.9796
 L 373.188,-59.4771 L 373.107,-59.9857 L 373.08,-60.5 L 373.107,-61.0143 L 373.188,-61.5229 L 373.321,-62.0204
 L 373.505,-62.5011 L 373.739,-62.96 L 374.02,-63.3919 L 374.344,-63.7921 L 374.708,-64.1563 L 375.108,-64.4804
 L 375.45,-64.7024 L 375.45,-74 L 375.506,-74.5302 L 375.67,-75.0372 L 375.937,-75.4988 L 376.294,-75.895
 L 376.725,-76.2084 L 377.212,-76.4252 L 377.733,-76.536 L 378.267,-76.536 L 378.788,-76.4252 L 379.275,-76.2084
 L 379.706,-75.895 L 380.063,-75.4988 L 380.33,-75.0372 L 380.494,-74.5302 L 380.55,-74 L 380.55,-64.7024
 L 380.892,-64.4804 L 381.292,-64.1563 L 381.656,-63.7921 L 381.98,-63.3919 L 382.261,-62.96 L 382.495,-62.5011
 L 382.679,-62.0204 L 382.812,-61.5229 L 382.893,-61.0143 L 382.92,-60.5 L 382.893,-59.9857 L 382.812,-59.4771
 L 382.679,-58.9796 L 382.495,-58.4989 L 382.261,-58.04 L 381.98,-57.6081 L 381.656,-57.2079 L 381.292,-56.8437
 L 380.892,-56.5196 L 380.46,-56.2392 L 380.001,-56.0054 L 379.52,-55.8208 L 379.023,-55.6875 L 378.514,-55.607
 L 378,-55.58 z
M 1488.99,-55.607 L 1488.48,-55.6875 L 1487.98,-55.8208 L 1487.5,-56.0054 L 1487.04,-56.2392 L 1486.61,-56.5196
 L 1486.21,-56.8437 L 1485.84,-57.2079 L 1485.52,-57.6081 L 1485.24,-58.04 L 1485.01,-58.4989 L 1484.82,-58.9796
 L 1484.69,-59.4771 L 1484.61,-59.9857 L 1484.58,-60.5 L 1484.61,-61.0143 L 1484.69,-61.5229 L 1484.82,-62.0204
 L 1485.01,-62.5011 L 1485.24,-62.96 L 1485.52,-63.3919 L 1485.84,-63.7921 L 1486.21,-64.1563 L 1486.61,-64.4804
 L 1486.95,-64.7024 L 1486.95,-74 L 1487.01,-74.5302 L 1487.17,-75.0372 L 1487.44,-75.4988 L 1487.79,-75.895
 L 1488.23,-76.2084 L 1488.71,-76.4252 L 1489.23,-76.536 L 1489.77,-76.536 L 1490.29,-76.4252 L 1490.77,-76.2084
 L 1491.21,-75.895 L 1491.56,-75.4988 L 1491.83,-75.0372 L 1491.99,-74.5302 L 1492.05,-74 L 1492.05,-64.7024
 L 1492.39,-64.4804 L 1492.79,-64.1563 L 1493.16,-63.7921 L 1493.48,-63.3919 L 1493.76,-62.96 L 1493.99,-62.5011
 L 1494.18,-62.0204 L 1494.31,-61.5229 L 1494.39,-61.0143 L 1494.42,-60.5 L 1494.39,-59.9857 L 1494.31,-59.4771
 L 1494.18,-58.9796 L 1493.99,-58.4989 L 1493.76,-58.04 L 1493.48,-57.6081 L 1493.16,-57.2079 L 1492.79,-56.8437
 L 1492.39,-56.5196 L 1491.96,-56.2392 L 1491.5,-56.0054 L 1491.02,-55.8208 L 1490.52,-55.6875 L 1490.01,-55.607
 L 1489.5,-55.58 z
M 364.432,-20.6507 L 363.622,-20.8552 L 272.659,-54.245 L 271.686,-54.7639 L 271.065,-55.3235 L 270.573,-56
 L 270.233,-56.7639 L 270.059,-57.5819 L 270.059,-58.4181 L 270.233,-59.2361 L 270.573,-60 L 271.065,-60.6765
 L 271.686,-61.2361 L 272.411,-61.6542 L 273.206,-61.9126 L 274.038,-62 L 365,-62 L 366.236,-61.8042
 L 367,-61.4641 L 367.677,-60.9726 L 368.236,-60.3511 L 368.654,-59.627 L 368.913,-58.8316 L 369,-58
 L 369,-24.6103 L 368.879,-23.632 L 368.59,-22.8469 L 368.145,-22.139 L 367.563,-21.5391 L 366.868,-21.0733
 L 366.092,-20.7622 L 365.268,-20.6193 z
M 549.682,-20.6507 L 548.872,-20.8552 L 457.909,-54.245 L 456.936,-54.7639 L 456.315,-55.3235 L 455.823,-56
 L 455.483,-56.7639 L 455.309,-57.5819 L 455.309,-58.4181 L 455.483,-59.2361 L 455.823,-60 L 456.315,-60.6765
 L 456.936,-61.2361 L 457.661,-61.6542 L 458.456,-61.9126 L 459.288,-62 L 550.25,-62 L 551.486,-61.8042
 L 552.25,-61.4641 L 552.927,-60.9726 L 553.486,-60.3511 L 553.904,-59.627 L 554.163,-58.8316 L 554.25,-58
 L 554.25,-24.6103 L 554.129,-23.632 L 553.84,-22.8469 L 553.395,-22.139 L 552.813,-21.5391 L 552.118,-21.0733
 L 551.342,-20.7622 L 550.518,-20.6193 z
M 1316.16,-20.7622 L 1315.38,-21.0733 L 1314.69,-21.5391 L 1314.1,-22.139 L 1313.66,-22.8469 L 1313.37,-23.632
 L 1313.25,-24.6103 L 1313.25,-58 L 1313.34,-58.8316 L 1313.6,-59.627 L 1314.01,-60.3511 L 1314.57,-60.9726
 L 1315.25,-61.4641 L 1316.01,-61.8042 L 1317.25,-62 L 1408.21,-62 L 1409.04,-61.9126 L 1409.84,-61.6542
 L 1410.56,-61.2361 L 1411.19,-60.6765 L 1411.68,-60 L 1412.02,-59.2361 L 1412.19,-58.4181 L 1412.19,-57.5819
 L 1412.02,-56.7639 L 1411.68,-56 L 1411.19,-55.3235 L 1410.56,-54.7639 L 1409.59,-54.245 L 1318.63,-20.8552
 L 1317.82,-20.6507 L 1316.98,-20.6193 z
M 734.932,-20.6507 L 734.122,-20.8552 L 643.159,-54.245 L 642.186,-54.7639 L 641.565,-55.3235 L 641.073,-56
 L 640.733,-56.7639 L 640.559,-57.5819 L 640.559,-58.4181 L 640.733,-59.2361 L 641.073,-60 L 641.565,-60.6765
 L 642.186,-61.2361 L 642.911,-61.6542 L 643.706,-61.9126 L 644.538,-62 L 735.5,-62 L 736.736,-61.8042
 L 737.5,-61.4641 L 738.177,-60.9726 L 738.736,-60.3511 L 739.154,-59.627 L 739.413,-58.8316 L 739.5,-58
 L 739.5,-24.6103 L 739.379,-23.632 L 739.09,-22.8469 L 738.645,-22.139 L 738.063,-21.5391 L 737.368,-21.0733
 L 736.592,-20.7622 L 735.768,-20.6193 z
M 179.182,-20.6507 L 178.372,-20.8552 L 87.4091,-54.245 L 86.4364,-54.7639 L 85.8149,-55.3235 L 85.3234,-56
 L 84.9833,-56.7639 L 84.8094,-57.5819 L 84.8094,-58.4181 L 84.9833,-59.2361 L 85.3234,-60 L 85.8149,-60.6765
 L 86.4364,-61.2361 L 87.1606,-61.6542 L 87.9559,-61.9126 L 88.7875,-62 L 179.75,-62 L 180.986,-61.8042
 L 181.75,-61.4641 L 182.427,-60.9726 L 182.986,-60.3511 L 183.404,-59.627 L 183.663,-58.8316 L 183.75,-58
 L 183.75,-24.6103 L 183.629,-23.632 L 183.34,-22.8469 L 182.895,-22.139 L 182.313,-21.5391 L 181.618,-21.0733
 L 180.842,-20.7622 L 180.018,-20.6193 z
M 760.408,-20.7622 L 759.632,-21.0733 L 758.937,-21.5391 L 758.355,-22.139 L 757.91,-22.8469 L 757.621,-23.632
 L 757.5,-24.6103 L 757.5,-58 L 757.587,-58.8316 L 757.846,-59.627 L 758.264,-60.3511 L 758.823,-60.9726
 L 759.5,-61.4641 L 760.264,-61.8042 L 761.5,-62 L 852.462,-62 L 853.294,-61.9126 L 854.089,-61.6542
 L 854.814,-61.2361 L 855.435,-60.6765 L 855.927,-60 L 856.267,-59.2361 L 856.441,-58.4181 L 856.441,-57.5819
 L 856.267,-56.7639 L 855.927,-56 L 855.435,-55.3235 L 854.814,-54.7639 L 853.841,-54.245 L 762.878,-20.8552
 L 762.068,-20.6507 L 761.232,-20.6193 z
M 945.658,-20.7622 L 944.882,-21.0733 L 944.187,-21.5391 L 943.605,-22.139 L 943.16,-22.8469 L 942.871,-23.632
 L 942.75,-24.6103 L 942.75,-58 L 942.837,-58.8316 L 943.096,-59.627 L 943.514,-60.3511 L 944.073,-60.9726
 L 944.75,-61.4641 L 945.514,-61.8042 L 946.75,-62 L 1037.71,-62 L 1038.54,-61.9126 L 1039.34,-61.6542
 L 1040.06,-61.2361 L 1040.69,-60.6765 L 1041.18,-60 L 1041.52,-59.2361 L 1041.69,-58.4181 L 1041.69,-57.5819
 L 1041.52,-56.7639 L 1041.18,-56 L 1040.69,-55.3235 L 1040.06,-54.7639 L 1039.09,-54.245 L 948.128,-20.8552
 L 947.318,-20.6507 L 946.482,-20.6193 z
M 1130.91,-20.7622 L 1130.13,-21.0733 L 1129.44,-21.5391 L 1128.85,-22.139 L 1128.41,-22.8469 L 1128.12,-23.632
 L 1128,-24.6103 L 1128,-58 L 1128.09,-58.8316 L 1128.35,-59.627 L 1128.76,-60.3511 L 1129.32,-60.9726
 L 1130,-61.4641 L 1130.76,-61.8042 L 1132,-62 L 1222.96,-62 L 1223.79,-61.9126 L 1224.59,-61.6542
 L 1225.31,-61.2361 L 1225.94,-60.6765 L 1226.43,-60 L 1226.77,-59.2361 L 1226.94,-58.4181 L 1226.94,-57.5819
 L 1226.77,-56.7639 L 1226.43,-56 L 1225.94,-55.3235 L 1225.31,-54.7639 L 1224.34,-54.245 L 1133.38,-20.8552
 L 1132.57,-20.6507 L 1131.73,-20.6193 z
M 205.75,-18 L 204.514,-18.1958 L 203.75,-18.5359 L 203.073,-19.0274 L 202.514,-19.6489 L 202.096,-20.373
 L 201.837,-21.1684 L 201.75,-22 L 201.75,-55.3897 L 201.871,-56.368 L 202.16,-57.153 L 202.605,-57.861
 L 203.187,-58.4609 L 203.882,-58.9266 L 204.658,-59.2378 L 205.482,-59.3807 L 206.318,-59.3493 L 207.128,-59.1447
 L 298.091,-25.755 L 299.064,-25.2361 L 299.685,-24.6765 L 300.177,-24 L 300.517,-23.2361 L 300.691,-22.4181
 L 300.691,-21.5819 L 300.517,-20.7639 L 300.177,-20 L 299.685,-19.3235 L 299.064,-18.7639 L 298.339,-18.3458
 L 297.544,-18.0874 L 296.712,-18 z
M 391,-18 L 389.764,-18.1958 L 389,-18.5359 L 388.323,-19.0274 L 387.764,-19.6489 L 387.346,-20.373
 L 387.087,-21.1684 L 387,-22 L 387,-55.3897 L 387.121,-56.368 L 387.41,-57.153 L 387.855,-57.861
 L 388.437,-58.4609 L 389.132,-58.9266 L 389.908,-59.2378 L 390.732,-59.3807 L 391.568,-59.3493 L 392.378,-59.1447
 L 483.341,-25.755 L 484.314,-25.2361 L 484.935,-24.6765 L 485.427,-24 L 485.767,-23.2361 L 485.941,-22.4181
 L 485.941,-21.5819 L 485.767,-20.7639 L 485.427,-20 L 484.935,-19.3235 L 484.314,-18.7639 L 483.589,-18.3458
 L 482.794,-18.0874 L 481.962,-18 z
M 576.25,-18 L 575.014,-18.1958 L 574.25,-18.5359 L 573.573,-19.0274 L 573.014,-19.6489 L 572.596,-20.373
 L 572.337,-21.1684 L 572.25,-22 L 572.25,-55.3897 L 572.371,-56.368 L 572.66,-57.153 L 573.105,-57.861
 L 573.687,-58.4609 L 574.382,-58.9266 L 575.158,-59.2378 L 575.982,-59.3807 L 576.818,-59.3493 L 577.628,-59.1447
 L 668.591,-25.755 L 669.564,-25.2361 L 670.185,-24.6765 L 670.677,-24 L 671.017,-23.2361 L 671.191,-22.4181
 L 671.191,-21.5819 L 671.017,-20.7639 L 670.677,-20 L 670.185,-19.3235 L 669.564,-18.7639 L 668.839,-18.3458
 L 668.044,-18.0874 L 667.212,-18 z
M 829.788,-18 L 828.956,-18.0874 L 828.161,-18.3458 L 827.436,-18.7639 L 826.815,-19.3235 L 826.323,-20
 L 825.983,-20.7639 L 825.809,-21.5819 L 825.809,-22.4181 L 825.983,-23.2361 L 826.323,-24 L 826.815,-24.6765
 L 827.436,-25.2361 L 828.409,-25.755 L 919.372,-59.1447 L 920.182,-59.3493 L 921.018,-59.3807 L 921.842,-59.2378
 L 922.618,-58.9266 L 923.313,-58.4609 L 923.895,-57.861 L 924.34,-57.153 L 924.629,-56.368 L 924.75,-55.3897
 L 924.75,-22 L 924.663,-21.1684 L 924.404,-20.373 L 923.986,-19.6489 L 923.427,-19.0274 L 922.75,-18.5359
 L 921.986,-18.1958 L 920.75,-18 z
M 1015.04,-18 L 1014.21,-18.0874 L 1013.41,-18.3458 L 1012.69,-18.7639 L 1012.06,-19.3235 L 1011.57,-20
 L 1011.23,-20.7639 L 1011.06,-21.5819 L 1011.06,-22.4181 L 1011.23,-23.2361 L 1011.57,-24 L 1012.06,-24.6765
 L 1012.69,-25.2361 L 1013.66,-25.755 L 1104.62,-59.1447 L 1105.43,-59.3493 L 1106.27,-59.3807 L 1107.09,-59.2378
 L 1107.87,-58.9266 L 1108.56,-58.4609 L 1109.15,-57.861 L 1109.59,-57.153 L 1109.88,-56.368 L 1110,-55.3897
 L 1110,-22 L 1109.91,-21.1684 L 1109.65,-20.373 L 1109.24,-19.6489 L 1108.68,-19.0274 L 1108,-18.5359
 L 1107.24,-18.1958 L 1106,-18 z
M 1200.29,-18 L 1199.46,-18.0874 L 1198.66,-18.3458 L 1197.94,-18.7639 L 1197.31,-19.3235 L 1196.82,-20
 L 1196.48,-20.7639 L 1196.31,-21.5819 L 1196.31,-22.4181 L 1196.48,-23.2361 L 1196.82,-24 L 1197.31,-24.6765
 L 1197.94,-25.2361 L 1198.91,-25.755 L 1289.87,-59.1447 L 1290.68,-59.3493 L 1291.52,-59.3807 L 1292.34,-59.2378
 L 1293.12,-58.9266 L 1293.81,-58.4609 L 1294.4,-57.861 L 1294.84,-57.153 L 1295.13,-56.368 L 1295.25,-55.3897
 L 1295.25,-22 L 1295.16,-21.1684 L 1294.9,-20.373 L 1294.49,-19.6489 L 1293.93,-19.0274 L 1293.25,-18.5359
 L 1292.49,-18.1958 L 1291.25,-18 z
M 1385.54,-18 L 1384.71,-18.0874 L 1383.91,-18.3458 L 1383.19,-18.7639 L 1382.56,-19.3235 L 1382.07,-20
 L 1381.73,-20.7639 L 1381.56,-21.5819 L 1381.56,-22.4181 L 1381.73,-23.2361 L 1382.07,-24 L 1382.56,-24.6765
 L 1383.19,-25.2361 L 1384.16,-25.755 L 1473.62,-58.5941 L 1474.43,-58.7987 L 1475.27,-58.8301 L 1476.09,-58.6872
 L 1476.87,-58.376 L 1477.56,-57.9103 L 1478.15,-57.3104 L 1478.59,-56.6024 L 1478.88,-55.8174 L 1479,-54.8391
 L 1479,-22 L 1478.91,-21.1684 L 1478.65,-20.373 L 1478.24,-19.6489 L 1477.68,-19.0274 L 1477,-18.5359
 L 1476.24,-18.1958 L 1475,-18 z
M 22,-18 L 20.7639,-18.1958 L 20,-18.5359 L 19.3235,-19.0274 L 18.7639,-19.6489 L 18.3458,-20.373
 L 18.0874,-21.1684 L 18,-22 L 18,-54.8391 L 18.1215,-55.8174 L 18.4096,-56.6024 L 18.8547,-57.3104
 L 19.4372,-57.9103 L 20.1318,-58.376 L 20.908,-58.6872 L 21.7319,-58.8301 L 22.5675,-58.7987 L 23.3784,-58.5941
 L 112.841,-25.755 L 113.814,-25.2361 L 114.435,-24.6765 L 114.927,-24 L 115.267,-23.2361 L 115.441,-22.4181
 L 115.441,-21.5819 L 115.267,-20.7639 L 114.927,-20 L 114.435,-19.3235 L 113.814,-18.7639 L 113.089,-18.3458
 L 112.294,-18.0874 L 111.462,-18 z
" stroke="black" fill="lightgray" stroke-width="0.5"/>
</svg>
