<?xml version="1.0" standalone="no"?>
<!DOCTYPE svg PUBLIC "-//W3C//DTD SVG 1.1//EN" "http://www.w3.org/Graphics/SVG/1.1/DTD/svg11.dtd">
<svg width="1335mm" height="80mm" viewBox="0 -80 1335 80" xmlns="http://www.w3.org/2000/svg" version="1.1">
<title>OpenSCAD Model</title>
<path d="
M 1335,-80 L 0,-80 L 0,-0 L 4.95,-0 L 4.95,-6 L 5.00572,-6.53017
 L 5.17046,-7.03717 L 5.437,-7.49884 L 5.79372,-7.895 L 6.22499,-8.20836 L 6.71201,-8.42519 L 7.23344,-8.53603
 L 7.76654,-8.53603 L 8.28798,-8.42519 L 8.77499,-8.20836 L 9.20627,-7.895 L 9.56299,-7.49884 L 9.82953,-7.03717
 L 9.99426,-6.53017 L 10.05,-6 L 10.05,-0 L 193.521,-0 L 193.521,-6 L 193.577,-6.53017
 L 193.742,-7.03717 L 194.008,-7.49884 L 194.365,-7.895 L 194.796,-8.20836 L 195.283,-8.42519 L 195.805,-8.53603
 L 196.338,-8.53603 L 196.859,-8.42519 L 197.346,-8.20836 L 197.778,-7.895 L 198.134,-7.49884 L 198.401,-7.03717
 L 198.566,-6.53017 L 198.621,-6 L 198.621,-0 L 382.093,-0 L 382.093,-6 L 382.149,-6.53017
 L 382.313,-7.03717 L 382.58,-7.49884 L 382.937,-7.895 L 383.368,-8.20836 L 383.855,-8.42519 L 384.376,-8.53603
 L 384.909,-8.53603 L 385.431,-8.42519 L 385.918,-8.20836 L 386.349,-7.895 L 386.706,-7.49884 L 386.972,-7.03717
 L 387.137,-6.53017 L 387.193,-6 L 387.193,-0 L 570.664,-0 L 570.664,-6 L 570.72,-6.53017
 L 570.885,-7.03717 L 571.151,-7.49884 L 571.508,-7.895 L 571.939,-8.20836 L 572.426,-8.42519 L 572.948,-8.53603
 L 573.481,-8.53603 L 574.002,-8.42519 L 574.489,-8.20836 L 574.921,-7.895 L 575.277,-7.49884 L 575.544,-7.03717
 L 575.709,-6.53017 L 575.764,-6 L 575.764,-0 L 759.236,-0 L 759.236,-6 L 759.291,-6.53017
 L 759.456,-7.03717 L 759.723,-7.49884 L 760.079,-7.895 L 760.511,-8.20836 L 760.998,-8.42519 L 761.519,-8.53603
 L 762.052,-8.53603 L 762.574,-8.42519 L 763.061,-8.20836 L 763.492,-7.895 L 763.849,-7.49884 L 764.115,-7.03717
 L 764.28,-6.53017 L 764.336,-6 L 764.336,-0 L 947.807,-0 L 947.807,-6 L 947.863,-6.53017
 L 948.028,-7.03717 L 948.294,-7.49884 L 948.651,-7.895 L 949.082,-8.20836 L 949.569,-8.42519 L 950.091,-8.53603
 L 950.624,-8.53603 L 951.145,-8.42519 L 951.632,-8.20836 L 952.063,-7.895 L 952.42,-7.49884 L 952.687,-7.03717
 L 952.851,-6.53017 L 952.907,-6 L 952.907,-0 L 1136.38,-0 L 1136.38,-6 L 1136.43,-6.53017
 L 1136.6,-7.03717 L 1136.87,-7.49884 L 1137.22,-7.895 L 1137.65,-8.20836 L 1138.14,-8.42519 L 1138.66,-8.53603
 L 1139.2,-8.53603 L 1139.72,-8.42519 L 1140.2,-8.20836 L 1140.63,-7.895 L 1140.99,-7.49884 L 1141.26,-7.03717
 L 1141.42,-6.53017 L 1141.48,-6 L 1141.48,-0 L 1324.95,-0 L 1324.95,-6 L 1325.01,-6.53017
 L 1325.17,-7.03717 L 1325.44,-7.49884 L 1325.79,-7.895 L 1326.22,-8.20836 L 1326.71,-8.42519 L 1327.23,-8.53603
 L 1327.77,-8.53603 L 1328.29,-8.42519 L 1328.77,-8.20836 L 1329.21,-7.895 L 1329.56,-7.49884 L 1329.83,-7.03717
 L 1329.99,-6.53017 L 1330.05,-6 L 1330.05,-0 L 1335,-0 z
M 6.98573,-55.607 L 6.47708,-55.6875 L 5.97964,-55.8208 L 5.49887,-56.0054 L 5.04001,-56.2392 L 4.60811,-56.5196
 L 4.20789,-56.8437 L 3.84373,-57.2079 L 3.51964,-57.6081 L 3.23917,-58.04 L 3.00537,-58.4989 L 2.82082,-58.9796
 L 2.68752,-59.4771 L 2.60696,-59.9857 L 2.58,-60.5 L 2.60696,-61.0143 L 2.68752,-61.5229 L 2.82082,-62.0204
 L 3.00537,-62.5011 L 3.23917,-62.96 L 3.51964,-63.3919 L 3.84373,-63.7921 L 4.20789,-64.1563 L 4.60811,-64.4804
 L 4.95001,-64.7024 L 4.95001,-74 L 5.00574,-74.5302 L 5.17047,-75.0372 L 5.43701,-75.4988 L 5.79373,-75.895
 L 6.22501,-76.2084 L 6.71202,-76.4252 L 7.23346,-76.536 L 7.76654,-76.536 L 8.28798,-76.4252 L 8.77499,-76.2084
 L 9.20627,-75.895 L 9.56299,-75.4988 L 9.82953,-75.0372 L 9.99426,-74.5302 L 10.05,-74 L 10.05,-64.7024
 L 10.3919,-64.4804 L 10.7921,-64.1563 L 11.1563,-63.7921 L 11.4804,-63.3919 L 11.7608,-62.96 L 11.9946,-62.5011
 L 12.1792,-62.0204 L 12.3125,-61.5229 L 12.393,-61.0143 L 12.42,-60.5 L 12.393,-59.9857 L 12.3125,-59.4771
 L 12.1792,-58.9796 L 11.9946,-58.4989 L 11.7608,-58.04 L 11.4804,-57.6081 L 11.1563,-57.2079 L 10.7921,-56.8437
 L 10.3919,-56.5196 L 9.95999,-56.2392 L 9.50113,-56.0054 L 9.02036,-55.8208 L 8.52292,-55.6875 L 8.01427,-55.607
 L 7.5,-55.58 z
M 195.557,-55.607 L 195.049,-55.6875 L 194.551,-55.8208 L 194.07,-56.0054 L 193.611,-56.2392 L 193.18,-56.5196
 L 192.779,-56.8437 L 192.415,-57.2079 L 192.091,-57.6081 L 191.811,-58.04 L 191.577,-58.4989 L 191.392,-58.9796
 L 191.259,-59.4771 L 191.178,-59.9857 L 191.151,-60.5 L 191.178,-61.0143 L 191.259,-61.5229 L 191.392,-62.0204
 L 191.577,-62.5011 L 191.811,-62.96 L 192.091,-63.3919 L 192.415,-63.7921 L 192.779,-64.1563 L 193.18,-64.4804
 L 193.521,-64.7024 L 193.521,-74 L 193.577,-74.5302 L 193.742,-75.0372 L 194.008,-75.4988 L 194.365,-75.895
 L 194.796,-76.2084 L 195.283,-76.4252 L 195.805,-76.536 L 196.338,-76.536 L 196.859,-76.4252 L 197.346,-76.2084
 L 197.778,-75.895 L 198.134,-75.4988 L 198.401,-75.0372 L 198.566,-74.5302 L 198.621,-74 L 198.621,-64.7024
 L 198.963,-64.4804 L 199.364,-64.1563 L 199.728,-63.7921 L 200.052,-63.3919 L 200.332,-62.96 L 200.566,-62.5011
 L 200.751,-62.0204 L 200.884,-61.5229 L 200.964,-61.0143 L 200.991,-60.5 L 200.964,-59.9857 L 200.884,-59.4771
 L 200.751,-58.9796 L 200.566,-58.4989 L 200.332,-58.04 L 200.052,-57.6081 L 199.728,-57.2079 L 199.364,-56.8437
 L 198.963,-56.5196 L 198.531,-56.2392 L 198.073,-56.0054 L 197.592,-55.8208 L 197.094,-55.6875 L 196.586,-55.607
 L 196.071,-55.58 z
M 384.129,-55.607 L 383.62,-55.6875 L 383.122,-55.8208 L 382.642,-56.0054 L 382.183,-56.2392 L 381.751,-56.5196
 L 381.351,-56.8437 L 380.987,-57.2079 L 380.662,-57.6081 L 380.382,-58.04 L 380.148,-58.4989 L 379.964,-58.9796
 L 379.83,-59.4771 L 379.75,-59.9857 L 379.723,-60.5 L 379.75,-61.0143 L 379.83,-61.5229 L 379.964,-62.0204
 L 380.148,-62.5011 L 380.382,-62.96 L 380.662,-63.3919 L 380.987,-63.7921 L 381.351,-64.1563 L 381.751,-64.4804
 L 382.093,-64.7024 L 382.093,-74 L 382.149,-74.5302 L 382.313,-75.0372 L 382.58,-75.4988 L 382.937,-75.895
 L 383.368,-76.2084 L 383.855,-76.4252 L 384.376,-76.536 L 384.909,-76.536 L 385.431,-76.4252 L 385.918,-76.2084
 L 386.349,-75.895 L 386.706,-75.4988 L 386.972,-75.0372 L 387.137,-74.5302 L 387.193,-74 L 387.193,-64.7024
 L 387.535,-64.4804 L 387.935,-64.1563 L 388.299,-63.7921 L 388.623,-63.3919 L 388.904,-62.96 L 389.137,-62.5011
 L 389.322,-62.0204 L 389.455,-61.5229 L 389.536,-61.0143 L 389.563,-60.5 L 389.536,-59.9857 L 389.455,-59.4771
 L 389.322,-58.9796 L 389.137,-58.4989 L 388.904,-58.04 L 388.623,-57.6081 L 388.299,-57.2079 L 387.935,-56.8437
 L 387.535,-56.5196 L 387.103,-56.2392 L 386.644,-56.0054 L 386.163,-55.8208 L 385.666,-55.6875 L 385.157,-55.607
 L 384.643,-55.58 z
M 572.7,-55.607 L 572.191,-55.6875 L 571.694,-55.8208 L 571.213,-56.0054 L 570.754,-56.2392 L 570.322,-56.5196
 L 569.922,-56.8437 L 569.558,-57.2079 L 569.234,-57.6081 L 568.953,-58.04 L 568.72,-58.4989 L 568.535,-58.9796
 L 568.402,-59.4771 L 568.321,-59.9857 L 568.294,-60.5 L 568.321,-61.0143 L 568.402,-61.5229 L 568.535,-62.0204
 L 568.72,-62.5011 L 568.953,-62.96 L 569.234,-63.3919 L 569.558,-63.7921 L 569.922,-64.1563 L 570.322,-64.4804
 L 570.664,-64.7024 L 570.664,-74 L 570.72,-74.5302 L 570.885,-75.0372 L 571.151,-75.4988 L 571.508,-75.895
 L 571.939,-76.2084 L 572.426,-76.4252 L 572.948,-76.536 L 573.481,-76.536 L 574.002,-76.4252 L 574.489,-76.2084
 L 574.921,-75.895 L 575.277,-75.4988 L 575.544,-75.0372 L 575.709,-74.5302 L 575.764,-74 L 575.764,-64.7024
 L 576.106,-64.4804 L 576.506,-64.1563 L 576.871,-63.7921 L 577.195,-63.3919 L 577.475,-62.96 L 577.709,-62.5011
 L 577.893,-62.0204 L 578.027,-61.5229 L 578.107,-61.0143 L 578.134,-60.5 L 578.107,-59.9857 L 578.027,-59.4771
 L 577.893,-58.9796 L 577.709,-58.4989 L 577.475,-58.04 L 577.195,-57.6081 L 576.871,-57.2079 L 576.506,-56.8437
 L 576.106,-56.5196 L 575.674,-56.2392 L 575.215,-56.0054 L 574.735,-55.8208 L 574.237,-55.6875 L 573.729,-55.607
 L 573.214,-55.58 z
M 761.271,-55.607 L 760.763,-55.6875 L 760.265,-55.8208 L 759.785,-56.0054 L 759.326,-56.2392 L 758.894,-56.5196
 L 758.494,-56.8437 L 758.129,-57.2079 L 757.805,-57.6081 L 757.525,-58.04 L 757.291,-58.4989 L 757.107,-58.9796
 L 756.973,-59.4771 L 756.893,-59.9857 L 756.866,-60.5 L 756.893,-61.0143 L 756.973,-61.5229 L 757.107,-62.0204
 L 757.291,-62.5011 L 757.525,-62.96 L 757.805,-63.3919 L 758.129,-63.7921 L 758.494,-64.1563 L 758.894,-64.4804
 L 759.236,-64.7024 L 759.236,-74 L 759.291,-74.5302 L 759.456,-75.0372 L 759.723,-75.4988 L 760.079,-75.895
 L 760.511,-76.2084 L 760.998,-76.4252 L 761.519,-76.536 L 762.052,-76.536 L 762.574,-76.4252 L 763.061,-76.2084
 L 763.492,-75.895 L 763.849,-75.4988 L 764.115,-75.0372 L 764.28,-74.5302 L 764.336,-74 L 764.336,-64.7024
 L 764.678,-64.4804 L 765.078,-64.1563 L 765.442,-63.7921 L 765.766,-63.3919 L 766.047,-62.96 L 766.28,-62.5011
 L 766.465,-62.0204 L 766.598,-61.5229 L 766.679,-61.0143 L 766.706,-60.5 L 766.679,-59.9857 L 766.598,-59.4771
 L 766.465,-58.9796 L 766.28,-58.4989 L 766.047,-58.04 L 765.766,-57.6081 L 765.442,-57.2079 L 765.078,-56.8437
 L 764.678,-56.5196 L 764.246,-56.2392 L 763.787,-56.0054 L 763.306,-55.8208 L 762.809,-55.6875 L 762.3,-55.607
 L 761.786,-55.58 z
M 949.843,-55.607 L 949.334,-55.6875 L 948.837,-55.8208 L 948.356,-56.0054 L 947.897,-56.2392 L 947.465,-56.5196
 L 947.065,-56.8437 L 946.701,-57.2079 L 946.377,-57.6081 L 946.096,-58.04 L 945.863,-58.4989 L 945.678,-58.9796
 L 945.545,-59.4771 L 945.464,-59.9857 L 945.437,-60.5 L 945.464,-61.0143 L 945.545,-61.5229 L 945.678,-62.0204
 L 945.863,-62.5011 L 946.096,-62.96 L 946.377,-63.3919 L 946.701,-63.7921 L 947.065,-64.1563 L 947.465,-64.4804
 L 947.807,-64.7024 L 947.807,-74 L 947.863,-74.5302 L 948.028,-75.0372 L 948.294,-75.4988 L 948.651,-75.895
 L 949.082,-76.2084 L 949.569,-76.4252 L 950.091,-76.536 L 950.624,-76.536 L 951.145,-76.4252 L 951.632,-76.2084
 L 952.063,-75.895 L 952.42,-75.4988 L 952.687,-75.0372 L 952.851,-74.5302 L 952.907,-74 L 952.907,-64.7024
 L 953.249,-64.4804 L 953.649,-64.1563 L 954.013,-63.7921 L 954.337,-63.3919 L 954.618,-62.96 L 954.852,-62.5011
 L 955.036,-62.0204 L 955.17,-61.5229 L 955.25,-61.0143 L 955.277,-60.5 L 955.25,-59.9857 L 955.17,-59.4771
 L 955.036,-58.9796 L 954.852,-58.4989 L 954.618,-58.04 L 954.337,-57.6081 L 954.013,-57.2079 L 953.649,-56.8437
 L 953.249,-56.5196 L 952.817,-56.2392 L 952.358,-56.0054 L 951.877,-55.8208 L 951.38,-55.6875 L 950.871,-55.607
 L 950.357,-55.58 z
M 1138.41,-55.607 L 1137.91,-55.6875 L 1137.41,-55.8208 L 1136.93,-56.0054 L 1136.47,-56.2392 L 1136.04,-56.5196
 L 1135.64,-56.8437 L 1135.27,-57.2079 L 1134.95,-57.6081 L 1134.67,-58.04 L 1134.43,-58.4989 L 1134.25,-58.9796
 L 1134.12,-59.4771 L 1134.04,-59.9857 L 1134.01,-60.5 L 1134.04,-61.0143 L 1134.12,-61.5229 L 1134.25,-62.0204
 L 1134.43,-62.5011 L 1134.67,-62.96 L 1134.95,-63.3919 L 1135.27,-63.7921 L 1135.64,-64.1563 L 1136.04,-64.4804
 L 1136.38,-64.7024 L 1136.38,-74 L 1136.43,-74.5302 L 1136.6,-75.0372 L 1136.87,-75.4988 L 1137.22,-75.895
 L 1137.65,-76.2084 L 1138.14,-76.4252 L 1138.66,-76.536 L 1139.2,-76.536 L 1139.72,-76.4252 L 1140.2,-76.2084
 L 1140.63,-75.895 L 1140.99,-75.4988 L 1141.26,-75.0372 L 1141.42,-74.5302 L 1141.48,-74 L 1141.48,-64.7024
 L 1141.82,-64.4804 L 1142.22,-64.1563 L 1142.58,-63.7921 L 1142.91,-63.3919 L 1143.19,-62.96 L 1143.42,-62.5011
 L 1143.61,-62.0204 L 1143.74,-61.5229 L 1143.82,-61.0143 L 1143.85,-60.5 L 1143.82,-59.9857 L 1143.74,-59.4771
 L 1143.61,-58.9796 L 1143.42,-58.4989 L 1143.19,-58.04 L 1142.91,-57.6081 L 1142.58,-57.2079 L 1142.22,-56.8437
 L 1141.82,-56.5196 L 1141.39,-56.2392 L 1140.93,-56.0054 L 1140.45,-55.8208 L 1139.95,-55.6875 L 1139.44,-55.607
 L 1138.93,-55.58 z
M 1326.99,-55.607 L 1326.48,-55.6875 L 1325.98,-55.8208 L 1325.5,-56.0054 L 1325.04,-56.2392 L 1324.61,-56.5196
 L 1324.21,-56.8437 L 1323.84,-57.2079 L 1323.52,-57.6081 L 1323.24,-58.04 L 1323.01,-58.4989 L 1322.82,-58.9796
 L 1322.69,-59.4771 L 1322.61,-59.9857 L 1322.58,-60.5 L 1322.61,-61.0143 L 1322.69,-61.5229 L 1322.82,-62.0204
 L 1323.01,-62.5011 L 1323.24,-62.96 L 1323.52,-63.3919 L 1323.84,-63.7921 L 1324.21,-64.1563 L 1324.61,-64.4804
 L 1324.95,-64.7024 L 1324.95,-74 L 1325.01,-74.5302 L 1325.17,-75.0372 L 1325.44,-75.4988 L 1325.79,-75.895
 L 1326.23,-76.2084 L 1326.71,-76.4252 L 1327.23,-76.536 L 1327.77,-76.536 L 1328.29,-76.4252 L 1328.77,-76.2084
 L 1329.21,-75.895 L 1329.56,-75.4988 L 1329.83,-75.0372 L 1329.99,-74.5302 L 1330.05,-74 L 1330.05,-64.7024
 L 1330.39,-64.4804 L 1330.79,-64.1563 L 1331.16,-63.7921 L 1331.48,-63.3919 L 1331.76,-62.96 L 1331.99,-62.5011
 L 1332.18,-62.0204 L 1332.31,-61.5229 L 1332.39,-61.0143 L 1332.42,-60.5 L 1332.39,-59.9857 L 1332.31,-59.4771
 L 1332.18,-58.9796 L 1331.99,-58.4989 L 1331.76,-58.04 L 1331.48,-57.6081 L 1331.16,-57.2079 L 1330.79,-56.8437
 L 1330.39,-56.5196 L 1329.96,-56.2392 L 1329.5,-56.0054 L 1329.02,-55.8208 L 1328.52,-55.6875 L 1328.01,-55.607
 L 1327.5,-55.58 z
M 773.672,-20.6585 L 772.897,-20.974 L 772.205,-21.4437 L 771.626,-22.047 L 771.185,-22.7574 L 770.902,-23.5441
 L 770.786,-24.5002 L 770.786,-58 L 770.873,-58.8316 L 771.132,-59.627 L 771.55,-60.3511 L 772.109,-60.9726
 L 772.786,-61.4641 L 773.55,-61.8042 L 774.786,-62 L 867.684,-62 L 868.516,-61.9126 L 869.311,-61.6542
 L 870.035,-61.2361 L 870.657,-60.6765 L 871.148,-60 L 871.488,-59.2361 L 871.662,-58.4181 L 871.662,-57.5819
 L 871.488,-56.7639 L 871.148,-56 L 870.657,-55.3235 L 870.035,-54.7639 L 869.041,-54.2372 L 776.143,-20.7374
 L 775.331,-20.5375 L 774.495,-20.5108 z
M 666.955,-47.7247 L 666.143,-47.9246 L 648.637,-54.2372 L 647.643,-54.7639 L 647.022,-55.3235 L 646.53,-56
 L 646.19,-56.7639 L 646.016,-57.5819 L 646.016,-58.4181 L 646.19,-59.2361 L 646.53,-60 L 647.022,-60.6765
 L 647.643,-61.2361 L 648.367,-61.6542 L 649.163,-61.9126 L 649.994,-62 L 685.006,-62 L 686.12,-61.8418
 L 686.894,-61.5262 L 687.586,-61.0565 L 688.165,-60.4533 L 688.606,-59.7428 L 688.89,-58.9561 L 689.004,-58.1277
 L 688.943,-57.2937 L 688.71,-56.4906 L 688.315,-55.7534 L 687.776,-55.1144 L 687.115,-54.6015 L 686.362,-54.2372
 L 668.857,-47.9246 L 667.791,-47.698 z
M 559.669,-20.5375 L 558.857,-20.7374 L 465.959,-54.2372 L 464.965,-54.7639 L 464.343,-55.3235 L 463.852,-56
 L 463.512,-56.7639 L 463.338,-57.5819 L 463.338,-58.4181 L 463.512,-59.2361 L 463.852,-60 L 464.343,-60.6765
 L 464.965,-61.2361 L 465.689,-61.6542 L 466.484,-61.9126 L 467.316,-62 L 560.214,-62 L 561.45,-61.8042
 L 562.214,-61.4641 L 562.891,-60.9726 L 563.45,-60.3511 L 563.868,-59.627 L 564.127,-58.8316 L 564.214,-58
 L 564.214,-24.5002 L 564.098,-23.5441 L 563.815,-22.7574 L 563.374,-22.047 L 562.795,-21.4437 L 562.103,-20.974
 L 561.328,-20.6585 L 560.505,-20.5108 z
M 371.098,-20.5375 L 370.286,-20.7374 L 277.387,-54.2372 L 276.393,-54.7639 L 275.772,-55.3235 L 275.28,-56
 L 274.94,-56.7639 L 274.766,-57.5819 L 274.766,-58.4181 L 274.94,-59.2361 L 275.28,-60 L 275.772,-60.6765
 L 276.393,-61.2361 L 277.117,-61.6542 L 277.913,-61.9126 L 278.744,-62 L 371.643,-62 L 372.879,-61.8042
 L 373.643,-61.4641 L 374.319,-60.9726 L 374.879,-60.3511 L 375.297,-59.627 L 375.555,-58.8316 L 375.643,-58
 L 375.643,-24.5002 L 375.527,-23.5441 L 375.243,-22.7574 L 374.802,-22.047 L 374.223,-21.4437 L 373.531,-20.974
 L 372.757,-20.6585 L 371.934,-20.5108 z
M 1150.81,-20.6585 L 1150.04,-20.974 L 1149.35,-21.4437 L 1148.77,-22.047 L 1148.33,-22.7574 L 1148.04,-23.5441
 L 1147.93,-24.5002 L 1147.93,-58 L 1148.02,-58.8316 L 1148.27,-59.627 L 1148.69,-60.3511 L 1149.25,-60.9726
 L 1149.93,-61.4641 L 1150.69,-61.8042 L 1151.93,-62 L 1244.83,-62 L 1245.66,-61.9126 L 1246.45,-61.6542
 L 1247.18,-61.2361 L 1247.8,-60.6765 L 1248.29,-60 L 1248.63,-59.2361 L 1248.81,-58.4181 L 1248.81,-57.5819
 L 1248.63,-56.7639 L 1248.29,-56 L 1247.8,-55.3235 L 1247.18,-54.7639 L 1246.18,-54.2372 L 1153.29,-20.7374
 L 1152.47,-20.5375 L 1151.64,-20.5108 z
M 182.527,-20.5375 L 181.715,-20.7374 L 88.816,-54.2372 L 87.8218,-54.7639 L 87.2003,-55.3235 L 86.7088,-56
 L 86.3687,-56.7639 L 86.1948,-57.5819 L 86.1948,-58.4181 L 86.3687,-59.2361 L 86.7088,-60 L 87.2003,-60.6765
 L 87.8218,-61.2361 L 88.546,-61.6542 L 89.3413,-61.9126 L 90.1729,-62 L 183.071,-62 L 184.307,-61.8042
 L 185.071,-61.4641 L 185.748,-60.9726 L 186.307,-60.3511 L 186.726,-59.627 L 186.984,-58.8316 L 187.071,-58
 L 187.071,-24.5002 L 186.955,-23.5441 L 186.672,-22.7574 L 186.231,-22.047 L 185.652,-21.4437 L 184.96,-20.974
 L 184.185,-20.6585 L 183.362,-20.5108 z
M 962.243,-20.6585 L 961.469,-20.974 L 960.777,-21.4437 L 960.198,-22.047 L 959.757,-22.7574 L 959.473,-23.5441
 L 959.357,-24.5002 L 959.357,-58 L 959.445,-58.8316 L 959.703,-59.627 L 960.121,-60.3511 L 960.681,-60.9726
 L 961.357,-61.4641 L 962.121,-61.8042 L 963.357,-62 L 1056.26,-62 L 1057.09,-61.9126 L 1057.88,-61.6542
 L 1058.61,-61.2361 L 1059.23,-60.6765 L 1059.72,-60 L 1060.06,-59.2361 L 1060.23,-58.4181 L 1060.23,-57.5819
 L 1060.06,-56.7639 L 1059.72,-56 L 1059.23,-55.3235 L 1058.61,-54.7639 L 1057.61,-54.2372 L 964.714,-20.7374
 L 963.902,-20.5375 L 963.066,-20.5108 z
M 585.796,-18.3972 L 584.978,-18.571 L 584.214,-18.9112 L 583.538,-19.4027 L 582.978,-20.0241 L 582.56,-20.7483
 L 582.302,-21.5436 L 582.214,-22.3753 L 582.214,-57.6247 L 582.33,-58.5809 L 582.614,-59.3675 L 583.055,-60.078
 L 583.634,-60.6812 L 584.326,-61.1509 L 585.1,-61.4665 L 585.923,-61.6141 L 586.759,-61.5874 L 587.571,-61.3875
 L 636.446,-43.7628 L 636.978,-43.5262 L 637.67,-43.0565 L 638.249,-42.4533 L 638.69,-41.7428 L 638.974,-40.9561
 L 639.088,-40.1277 L 639.027,-39.2937 L 638.794,-38.4906 L 638.399,-37.7534 L 637.86,-37.1144 L 637.199,-36.6015
 L 636.446,-36.2372 L 587.571,-18.6125 L 586.632,-18.3972 z
M 748.241,-18.4126 L 747.429,-18.6124 L 698.553,-36.2372 L 698.022,-36.4738 L 697.33,-36.9435 L 696.751,-37.5467
 L 696.31,-38.2572 L 696.026,-39.0439 L 695.912,-39.8723 L 695.973,-40.7063 L 696.206,-41.5094 L 696.601,-42.2466
 L 697.14,-42.8856 L 697.801,-43.3985 L 698.553,-43.7628 L 747.429,-61.3876 L 748.368,-61.6028 L 749.204,-61.6028
 L 750.022,-61.429 L 750.786,-61.0888 L 751.462,-60.5973 L 752.022,-59.9759 L 752.44,-59.2517 L 752.698,-58.4564
 L 752.786,-57.6247 L 752.786,-22.3753 L 752.67,-21.4191 L 752.386,-20.6325 L 751.945,-19.922 L 751.366,-19.3187
 L 750.674,-18.8491 L 749.9,-18.5335 L 749.077,-18.3858 z
M 209.071,-18 L 207.835,-18.1958 L 207.071,-18.5359 L 206.395,-19.0274 L 205.835,-19.6489 L 205.417,-20.373
 L 205.159,-21.1684 L 205.071,-22 L 205.071,-55.4998 L 205.187,-56.4559 L 205.471,-57.2425 L 205.912,-57.953
 L 206.491,-58.5563 L 207.183,-59.0259 L 207.957,-59.3415 L 208.781,-59.4892 L 209.616,-59.4625 L 210.428,-59.2626
 L 303.327,-25.7628 L 304.321,-25.2361 L 304.942,-24.6765 L 305.434,-24 L 305.774,-23.2361 L 305.948,-22.4181
 L 305.948,-21.5819 L 305.774,-20.7639 L 305.434,-20 L 304.942,-19.3235 L 304.321,-18.7639 L 303.597,-18.3458
 L 302.802,-18.0874 L 301.97,-18 z
M 397.643,-18 L 396.407,-18.1958 L 395.643,-18.5359 L 394.966,-19.0274 L 394.407,-19.6489 L 393.989,-20.373
 L 393.73,-21.1684 L 393.643,-22 L 393.643,-55.4998 L 393.759,-56.4559 L 394.042,-57.2425 L 394.484,-57.953
 L 395.063,-58.5563 L 395.754,-59.0259 L 396.529,-59.3415 L 397.352,-59.4892 L 398.188,-59.4625 L 399,-59.2626
 L 491.898,-25.7628 L 492.892,-25.2361 L 493.514,-24.6765 L 494.005,-24 L 494.346,-23.2361 L 494.519,-22.4181
 L 494.519,-21.5819 L 494.346,-20.7639 L 494.005,-20 L 493.514,-19.3235 L 492.892,-18.7639 L 492.168,-18.3458
 L 491.373,-18.0874 L 490.541,-18 z
M 844.459,-18 L 843.627,-18.0874 L 842.832,-18.3458 L 842.108,-18.7639 L 841.486,-19.3235 L 840.995,-20
 L 840.654,-20.7639 L 840.481,-21.5819 L 840.481,-22.4181 L 840.654,-23.2361 L 840.995,-24 L 841.486,-24.6765
 L 842.108,-25.2361 L 843.102,-25.7628 L 936,-59.2626 L 936.812,-59.4625 L 937.648,-59.4892 L 938.471,-59.3415
 L 939.246,-59.0259 L 939.937,-58.5563 L 940.516,-57.953 L 940.958,-57.2425 L 941.241,-56.4559 L 941.357,-55.4998
 L 941.357,-22 L 941.27,-21.1684 L 941.011,-20.373 L 940.593,-19.6489 L 940.034,-19.0274 L 939.357,-18.5359
 L 938.593,-18.1958 L 937.357,-18 z
M 1033.03,-18 L 1032.2,-18.0874 L 1031.4,-18.3458 L 1030.68,-18.7639 L 1030.06,-19.3235 L 1029.57,-20
 L 1029.23,-20.7639 L 1029.05,-21.5819 L 1029.05,-22.4181 L 1029.23,-23.2361 L 1029.57,-24 L 1030.06,-24.6765
 L 1030.68,-25.2361 L 1031.67,-25.7628 L 1124.57,-59.2626 L 1125.38,-59.4625 L 1126.22,-59.4892 L 1127.04,-59.3415
 L 1127.82,-59.0259 L 1128.51,-58.5563 L 1129.09,-57.953 L 1129.53,-57.2425 L 1129.81,-56.4559 L 1129.93,-55.4998
 L 1129.93,-22 L 1129.84,-21.1684 L 1129.58,-20.373 L 1129.16,-19.6489 L 1128.61,-19.0274 L 1127.93,-18.5359
 L 1127.16,-18.1958 L 1125.93,-18 z
M 22,-18 L 20.7639,-18.1958 L 20,-18.5359 L 19.3235,-19.0274 L 18.7639,-19.6489 L 18.3458,-20.373
 L 18.0874,-21.1684 L 18,-22 L 18,-54.9588 L 18.116,-55.915 L 18.3996,-56.7016 L 18.8407,-57.4121
 L 19.4198,-58.0154 L 20.1116,-58.485 L 20.886,-58.8006 L 21.7091,-58.9483 L 22.5449,-58.9216 L 23.3569,-58.7217
 L 114.755,-25.7628 L 115.75,-25.2361 L 116.371,-24.6765 L 116.863,-24 L 117.203,-23.2361 L 117.377,-22.4181
 L 117.377,-21.5819 L 117.203,-20.7639 L 116.863,-20 L 116.371,-19.3235 L 115.75,-18.7639 L 115.025,-18.3458
 L 114.23,-18.0874 L 113.398,-18 z
M 1221.6,-18 L 1220.77,-18.0874 L 1219.97,-18.3458 L 1219.25,-18.7639 L 1218.63,-19.3235 L 1218.14,-20
 L 1217.8,-20.7639 L 1217.62,-21.5819 L 1217.62,-22.4181 L 1217.8,-23.2361 L 1218.14,-24 L 1218.63,-24.6765
 L 1219.25,-25.2361 L 1220.24,-25.7628 L 1311.64,-58.7217 L 1312.46,-58.9216 L 1313.29,-58.9483 L 1314.11,-58.8006
 L 1314.89,-58.485 L 1315.58,-58.0154 L 1316.16,-57.4121 L 1316.6,-56.7016 L 1316.88,-55.915 L 1317,-54.9588
 L 1317,-22 L 1316.91,-21.1684 L 1316.65,-20.373 L 1316.24,-19.6489 L 1315.68,-19.0274 L 1315,-18.5359
 L 1314.24,-18.1958 L 1313,-18 z
M 649.994,-18 L 648.88,-18.1582 L 648.106,-18.4738 L 647.414,-18.9435 L 646.835,-19.5467 L 646.394,-20.2572
 L 646.11,-21.0439 L 645.996,-21.8723 L 646.057,-22.7063 L 646.29,-23.5094 L 646.685,-24.2466 L 647.224,-24.8856
 L 647.885,-25.3985 L 648.637,-25.7628 L 666.143,-32.0754 L 667.209,-32.302 L 668.045,-32.2753 L 668.857,-32.0754
 L 686.362,-25.7628 L 687.357,-25.2361 L 687.978,-24.6765 L 688.47,-24 L 688.81,-23.2361 L 688.984,-22.4181
 L 688.984,-21.5819 L 688.81,-20.7639 L 688.47,-20 L 687.978,-19.3235 L 687.357,-18.7639 L 686.633,-18.3458
 L 685.837,-18.0874 L 685.006,-18 z
" stroke="black" fill="lightgray" stroke-width="0.5"/>
</svg>
