<?xml version="1.0" standalone="no"?>
<!DOCTYPE svg PUBLIC "-//W3C//DTD SVG 1.1//EN" "http://www.w3.org/Graphics/SVG/1.1/DTD/svg11.dtd">
<svg width="1657mm" height="80mm" viewBox="0 -80 1657 80" xmlns="http://www.w3.org/2000/svg" version="1.1">
<title>OpenSCAD Model</title>
<path d="
M 1657,-80 L 0,-80 L 0,-0 L 4.95,-0 L 4.95,-6 L 5.00572,-6.53017
 L 5.17046,-7.03717 L 5.437,-7.49884 L 5.79372,-7.895 L 6.22499,-8.20836 L 6.71201,-8.42519 L 7.23344,-8.53603
 L 7.76654,-8.53603 L 8.28798,-8.42519 L 8.77499,-8.20836 L 9.20627,-7.895 L 9.56299,-7.49884 L 9.82953,-7.03717
 L 9.99426,-6.53017 L 10.05,-6 L 10.05,-0 L 187.394,-0 L 187.394,-6 L 187.45,-6.53017
 L 187.615,-7.03717 L 187.881,-7.49884 L 188.238,-7.895 L 188.669,-8.20836 L 189.156,-8.42519 L 189.678,-8.53603
 L 190.211,-8.53603 L 190.732,-8.42519 L 191.219,-8.20836 L 191.651,-7.895 L 192.007,-7.49884 L 192.274,-7.03717
 L 192.439,-6.53017 L 192.494,-6 L 192.494,-0 L 369.839,-0 L 369.839,-6 L 369.895,-6.53017
 L 370.059,-7.03717 L 370.326,-7.49884 L 370.683,-7.895 L 371.114,-8.20836 L 371.601,-8.42519 L 372.122,-8.53603
 L 372.655,-8.53603 L 373.177,-8.42519 L 373.664,-8.20836 L 374.095,-7.895 L 374.452,-7.49884 L 374.718,-7.03717
 L 374.883,-6.53017 L 374.939,-6 L 374.939,-0 L 552.283,-0 L 552.283,-6 L 552.339,-6.53017
 L 552.504,-7.03717 L 552.77,-7.49884 L 553.127,-7.895 L 553.558,-8.20836 L 554.045,-8.42519 L 554.567,-8.53603
 L 555.1,-8.53603 L 555.621,-8.42519 L 556.108,-8.20836 L 556.54,-7.895 L 556.896,-7.49884 L 557.163,-7.03717
 L 557.328,-6.53017 L 557.383,-6 L 557.383,-0 L 734.728,-0 L 734.728,-6 L 734.783,-6.53017
 L 734.948,-7.03717 L 735.215,-7.49884 L 735.571,-7.895 L 736.003,-8.20836 L 736.49,-8.42519 L 737.011,-8.53603
 L 737.544,-8.53603 L 738.066,-8.42519 L 738.553,-8.20836 L 738.984,-7.895 L 739.341,-7.49884 L 739.607,-7.03717
 L 739.772,-6.53017 L 739.828,-6 L 739.828,-0 L 917.172,-0 L 917.172,-6 L 917.228,-6.53017
 L 917.393,-7.03717 L 917.659,-7.49884 L 918.016,-7.895 L 918.447,-8.20836 L 918.934,-8.42519 L 919.456,-8.53603
 L 919.989,-8.53603 L 920.51,-8.42519 L 920.997,-8.20836 L 921.428,-7.895 L 921.785,-7.49884 L 922.052,-7.03717
 L 922.216,-6.53017 L 922.272,-6 L 922.272,-0 L 1099.62,-0 L 1099.62,-6 L 1099.67,-6.53017
 L 1099.84,-7.03717 L 1100.1,-7.49884 L 1100.46,-7.895 L 1100.89,-8.20836 L 1101.38,-8.42519 L 1101.9,-8.53603
 L 1102.43,-8.53603 L 1102.95,-8.42519 L 1103.44,-8.20836 L 1103.87,-7.895 L 1104.23,-7.49884 L 1104.5,-7.03717
 L 1104.66,-6.53017 L 1104.72,-6 L 1104.72,-0 L 1282.06,-0 L 1282.06,-6 L 1282.12,-6.53017
 L 1282.28,-7.03717 L 1282.55,-7.49884 L 1282.9,-7.895 L 1283.34,-8.20836 L 1283.82,-8.42519 L 1284.34,-8.53603
 L 1284.88,-8.53603 L 1285.4,-8.42519 L 1285.89,-8.20836 L 1286.32,-7.895 L 1286.67,-7.49884 L 1286.94,-7.03717
 L 1287.11,-6.53017 L 1287.16,-6 L 1287.16,-0 L 1464.51,-0 L 1464.51,-6 L 1464.56,-6.53017
 L 1464.73,-7.03717 L 1464.99,-7.49884 L 1465.35,-7.895 L 1465.78,-8.20836 L 1466.27,-8.42519 L 1466.79,-8.53603
 L 1467.32,-8.53603 L 1467.84,-8.42519 L 1468.33,-8.20836 L 1468.76,-7.895 L 1469.12,-7.49884 L 1469.39,-7.03717
 L 1469.55,-6.53017 L 1469.61,-6 L 1469.61,-0 L 1646.95,-0 L 1646.95,-6 L 1647.01,-6.53017
 L 1647.17,-7.03717 L 1647.44,-7.49884 L 1647.79,-7.895 L 1648.22,-8.20836 L 1648.71,-8.42519 L 1649.23,-8.53603
 L 1649.77,-8.53603 L 1650.29,-8.42519 L 1650.77,-8.20836 L 1651.21,-7.895 L 1651.56,-7.49884 L 1651.83,-7.03717
 L 1651.99,-6.53017 L 1652.05,-6 L 1652.05,-0 L 1657,-0 z
M 6.98573,-55.607 L 6.47708,-55.6875 L 5.97964,-55.8208 L 5.49887,-56.0054 L 5.04001,-56.2392 L 4.60811,-56.5196
 L 4.20789,-56.8437 L 3.84373,-57.2079 L 3.51964,-57.6081 L 3.23917,-58.04 L 3.00537,-58.4989 L 2.82082,-58.9796
 L 2.68752,-59.4771 L 2.60696,-59.9857 L 2.58,-60.5 L 2.60696,-61.0143 L 2.68752,-61.5229 L 2.82082,-62.0204
 L 3.00537,-62.5011 L 3.23917,-62.96 L 3.51964,-63.3919 L 3.84373,-63.7921 L 4.20789,-64.1563 L 4.60811,-64.4804
 L 4.95001,-64.7024 L 4.95001,-74 L 5.00574,-74.5302 L 5.17047,-75.0372 L 5.43701,-75.4988 L 5.79373,-75.895
 L 6.22501,-76.2084 L 6.71202,-76.4252 L 7.23346,-76.536 L 7.76654,-76.536 L 8.28798,-76.4252 L 8.77499,-76.2084
 L 9.20627,-75.895 L 9.56299,-75.4988 L 9.82953,-75.0372 L 9.99426,-74.5302 L 10.05,-74 L 10.05,-64.7024
 L 10.3919,-64.4804 L 10.7921,-64.1563 L 11.1563,-63.7921 L 11.4804,-63.3919 L 11.7608,-62.96 L 11.9946,-62.5011
 L 12.1792,-62.0204 L 12.3125,-61.5229 L 12.393,-61.0143 L 12.42,-60.5 L 12.393,-59.9857 L 12.3125,-59.4771
 L 12.1792,-58.9796 L 11.9946,-58.4989 L 11.7608,-58.04 L 11.4804,-57.6081 L 11.1563,-57.2079 L 10.7921,-56.8437
 L 10.3919,-56.5196 L 9.95999,-56.2392 L 9.50113,-56.0054 L 9.02036,-55.8208 L 8.52292,-55.6875 L 8.01427,-55.607
 L 7.5,-55.58 z
M 1101.65,-55.607 L 1101.14,-55.6875 L 1100.65,-55.8208 L 1100.17,-56.0054 L 1099.71,-56.2392 L 1099.27,-56.5196
 L 1098.87,-56.8437 L 1098.51,-57.2079 L 1098.19,-57.6081 L 1097.91,-58.04 L 1097.67,-58.4989 L 1097.49,-58.9796
 L 1097.35,-59.4771 L 1097.27,-59.9857 L 1097.25,-60.5 L 1097.27,-61.0143 L 1097.35,-61.5229 L 1097.49,-62.0204
 L 1097.67,-62.5011 L 1097.91,-62.96 L 1098.19,-63.3919 L 1098.51,-63.7921 L 1098.87,-64.1563 L 1099.27,-64.4804
 L 1099.62,-64.7024 L 1099.62,-74 L 1099.67,-74.5302 L 1099.84,-75.0372 L 1100.1,-75.4988 L 1100.46,-75.895
 L 1100.89,-76.2084 L 1101.38,-76.4252 L 1101.9,-76.536 L 1102.43,-76.536 L 1102.95,-76.4252 L 1103.44,-76.2084
 L 1103.87,-75.895 L 1104.23,-75.4988 L 1104.5,-75.0372 L 1104.66,-74.5302 L 1104.72,-74 L 1104.72,-64.7024
 L 1105.06,-64.4804 L 1105.46,-64.1563 L 1105.82,-63.7921 L 1106.15,-63.3919 L 1106.43,-62.96 L 1106.66,-62.5011
 L 1106.85,-62.0204 L 1106.98,-61.5229 L 1107.06,-61.0143 L 1107.09,-60.5 L 1107.06,-59.9857 L 1106.98,-59.4771
 L 1106.85,-58.9796 L 1106.66,-58.4989 L 1106.43,-58.04 L 1106.15,-57.6081 L 1105.82,-57.2079 L 1105.46,-56.8437
 L 1105.06,-56.5196 L 1104.63,-56.2392 L 1104.17,-56.0054 L 1103.69,-55.8208 L 1103.19,-55.6875 L 1102.68,-55.607
 L 1102.17,-55.58 z
M 1284.1,-55.607 L 1283.59,-55.6875 L 1283.09,-55.8208 L 1282.61,-56.0054 L 1282.15,-56.2392 L 1281.72,-56.5196
 L 1281.32,-56.8437 L 1280.95,-57.2079 L 1280.63,-57.6081 L 1280.35,-58.04 L 1280.12,-58.4989 L 1279.93,-58.9796
 L 1279.8,-59.4771 L 1279.72,-59.9857 L 1279.69,-60.5 L 1279.72,-61.0143 L 1279.8,-61.5229 L 1279.93,-62.0204
 L 1280.12,-62.5011 L 1280.35,-62.96 L 1280.63,-63.3919 L 1280.95,-63.7921 L 1281.32,-64.1563 L 1281.72,-64.4804
 L 1282.06,-64.7024 L 1282.06,-74 L 1282.12,-74.5302 L 1282.28,-75.0372 L 1282.55,-75.4988 L 1282.9,-75.895
 L 1283.34,-76.2084 L 1283.82,-76.4252 L 1284.34,-76.536 L 1284.88,-76.536 L 1285.4,-76.4252 L 1285.89,-76.2084
 L 1286.32,-75.895 L 1286.67,-75.4988 L 1286.94,-75.0372 L 1287.11,-74.5302 L 1287.16,-74 L 1287.16,-64.7024
 L 1287.5,-64.4804 L 1287.9,-64.1563 L 1288.27,-63.7921 L 1288.59,-63.3919 L 1288.87,-62.96 L 1289.11,-62.5011
 L 1289.29,-62.0204 L 1289.42,-61.5229 L 1289.5,-61.0143 L 1289.53,-60.5 L 1289.5,-59.9857 L 1289.42,-59.4771
 L 1289.29,-58.9796 L 1289.11,-58.4989 L 1288.87,-58.04 L 1288.59,-57.6081 L 1288.27,-57.2079 L 1287.9,-56.8437
 L 1287.5,-56.5196 L 1287.07,-56.2392 L 1286.61,-56.0054 L 1286.13,-55.8208 L 1285.63,-55.6875 L 1285.13,-55.607
 L 1284.61,-55.58 z
M 919.208,-55.607 L 918.699,-55.6875 L 918.202,-55.8208 L 917.721,-56.0054 L 917.262,-56.2392 L 916.83,-56.5196
 L 916.43,-56.8437 L 916.066,-57.2079 L 915.742,-57.6081 L 915.461,-58.04 L 915.228,-58.4989 L 915.043,-58.9796
 L 914.91,-59.4771 L 914.829,-59.9857 L 914.802,-60.5 L 914.829,-61.0143 L 914.91,-61.5229 L 915.043,-62.0204
 L 915.228,-62.5011 L 915.461,-62.96 L 915.742,-63.3919 L 916.066,-63.7921 L 916.43,-64.1563 L 916.83,-64.4804
 L 917.172,-64.7024 L 917.172,-74 L 917.228,-74.5302 L 917.393,-75.0372 L 917.659,-75.4988 L 918.016,-75.895
 L 918.447,-76.2084 L 918.934,-76.4252 L 919.456,-76.536 L 919.989,-76.536 L 920.51,-76.4252 L 920.997,-76.2084
 L 921.428,-75.895 L 921.785,-75.4988 L 922.052,-75.0372 L 922.216,-74.5302 L 922.272,-74 L 922.272,-64.7024
 L 922.614,-64.4804 L 923.014,-64.1563 L 923.378,-63.7921 L 923.703,-63.3919 L 923.983,-62.96 L 924.217,-62.5011
 L 924.401,-62.0204 L 924.535,-61.5229 L 924.615,-61.0143 L 924.642,-60.5 L 924.615,-59.9857 L 924.535,-59.4771
 L 924.401,-58.9796 L 924.217,-58.4989 L 923.983,-58.04 L 923.703,-57.6081 L 923.378,-57.2079 L 923.014,-56.8437
 L 922.614,-56.5196 L 922.182,-56.2392 L 921.723,-56.0054 L 921.243,-55.8208 L 920.745,-55.6875 L 920.236,-55.607
 L 919.722,-55.58 z
M 736.764,-55.607 L 736.255,-55.6875 L 735.757,-55.8208 L 735.277,-56.0054 L 734.818,-56.2392 L 734.386,-56.5196
 L 733.986,-56.8437 L 733.622,-57.2079 L 733.297,-57.6081 L 733.017,-58.04 L 732.783,-58.4989 L 732.599,-58.9796
 L 732.465,-59.4771 L 732.385,-59.9857 L 732.358,-60.5 L 732.385,-61.0143 L 732.465,-61.5229 L 732.599,-62.0204
 L 732.783,-62.5011 L 733.017,-62.96 L 733.297,-63.3919 L 733.622,-63.7921 L 733.986,-64.1563 L 734.386,-64.4804
 L 734.728,-64.7024 L 734.728,-74 L 734.784,-74.5302 L 734.948,-75.0372 L 735.215,-75.4988 L 735.572,-75.895
 L 736.003,-76.2084 L 736.49,-76.4252 L 737.011,-76.536 L 737.544,-76.536 L 738.066,-76.4252 L 738.553,-76.2084
 L 738.984,-75.895 L 739.341,-75.4988 L 739.607,-75.0372 L 739.772,-74.5302 L 739.828,-74 L 739.828,-64.7024
 L 740.17,-64.4804 L 740.57,-64.1563 L 740.934,-63.7921 L 741.258,-63.3919 L 741.539,-62.96 L 741.772,-62.5011
 L 741.957,-62.0204 L 742.09,-61.5229 L 742.171,-61.0143 L 742.198,-60.5 L 742.171,-59.9857 L 742.09,-59.4771
 L 741.957,-58.9796 L 741.772,-58.4989 L 741.539,-58.04 L 741.258,-57.6081 L 740.934,-57.2079 L 740.57,-56.8437
 L 740.17,-56.5196 L 739.738,-56.2392 L 739.279,-56.0054 L 738.798,-55.8208 L 738.301,-55.6875 L 737.792,-55.607
 L 737.278,-55.58 z
M 1466.54,-55.607 L 1466.03,-55.6875 L 1465.54,-55.8208 L 1465.05,-56.0054 L 1464.6,-56.2392 L 1464.16,-56.5196
 L 1463.76,-56.8437 L 1463.4,-57.2079 L 1463.08,-57.6081 L 1462.79,-58.04 L 1462.56,-58.4989 L 1462.38,-58.9796
 L 1462.24,-59.4771 L 1462.16,-59.9857 L 1462.14,-60.5 L 1462.16,-61.0143 L 1462.24,-61.5229 L 1462.38,-62.0204
 L 1462.56,-62.5011 L 1462.79,-62.96 L 1463.08,-63.3919 L 1463.4,-63.7921 L 1463.76,-64.1563 L 1464.16,-64.4804
 L 1464.51,-64.7024 L 1464.51,-74 L 1464.56,-74.5302 L 1464.73,-75.0372 L 1464.99,-75.4988 L 1465.35,-75.895
 L 1465.78,-76.2084 L 1466.27,-76.4252 L 1466.79,-76.536 L 1467.32,-76.536 L 1467.84,-76.4252 L 1468.33,-76.2084
 L 1468.76,-75.895 L 1469.12,-75.4988 L 1469.39,-75.0372 L 1469.55,-74.5302 L 1469.61,-74 L 1469.61,-64.7024
 L 1469.95,-64.4804 L 1470.35,-64.1563 L 1470.71,-63.7921 L 1471.04,-63.3919 L 1471.32,-62.96 L 1471.55,-62.5011
 L 1471.73,-62.0204 L 1471.87,-61.5229 L 1471.95,-61.0143 L 1471.98,-60.5 L 1471.95,-59.9857 L 1471.87,-59.4771
 L 1471.73,-58.9796 L 1471.55,-58.4989 L 1471.32,-58.04 L 1471.04,-57.6081 L 1470.71,-57.2079 L 1470.35,-56.8437
 L 1469.95,-56.5196 L 1469.52,-56.2392 L 1469.06,-56.0054 L 1468.58,-55.8208 L 1468.08,-55.6875 L 1467.57,-55.607
 L 1467.06,-55.58 z
M 554.319,-55.607 L 553.81,-55.6875 L 553.313,-55.8208 L 552.832,-56.0054 L 552.373,-56.2392 L 551.941,-56.5196
 L 551.541,-56.8437 L 551.177,-57.2079 L 550.853,-57.6081 L 550.572,-58.04 L 550.339,-58.4989 L 550.154,-58.9796
 L 550.021,-59.4771 L 549.94,-59.9857 L 549.913,-60.5 L 549.94,-61.0143 L 550.021,-61.5229 L 550.154,-62.0204
 L 550.339,-62.5011 L 550.572,-62.96 L 550.853,-63.3919 L 551.177,-63.7921 L 551.541,-64.1563 L 551.941,-64.4804
 L 552.283,-64.7024 L 552.283,-74 L 552.339,-74.5302 L 552.504,-75.0372 L 552.77,-75.4988 L 553.127,-75.895
 L 553.558,-76.2084 L 554.045,-76.4252 L 554.567,-76.536 L 555.1,-76.536 L 555.621,-76.4252 L 556.108,-76.2084
 L 556.54,-75.895 L 556.896,-75.4988 L 557.163,-75.0372 L 557.328,-74.5302 L 557.383,-74 L 557.383,-64.7024
 L 557.725,-64.4804 L 558.125,-64.1563 L 558.49,-63.7921 L 558.814,-63.3919 L 559.094,-62.96 L 559.328,-62.5011
 L 559.513,-62.0204 L 559.646,-61.5229 L 559.726,-61.0143 L 559.753,-60.5 L 559.726,-59.9857 L 559.646,-59.4771
 L 559.513,-58.9796 L 559.328,-58.4989 L 559.094,-58.04 L 558.814,-57.6081 L 558.49,-57.2079 L 558.125,-56.8437
 L 557.725,-56.5196 L 557.293,-56.2392 L 556.834,-56.0054 L 556.354,-55.8208 L 555.856,-55.6875 L 555.348,-55.607
 L 554.833,-55.58 z
M 371.875,-55.607 L 371.366,-55.6875 L 370.869,-55.8208 L 370.388,-56.0054 L 369.929,-56.2392 L 369.497,-56.5196
 L 369.097,-56.8437 L 368.733,-57.2079 L 368.409,-57.6081 L 368.128,-58.04 L 367.894,-58.4989 L 367.71,-58.9796
 L 367.576,-59.4771 L 367.496,-59.9857 L 367.469,-60.5 L 367.496,-61.0143 L 367.576,-61.5229 L 367.71,-62.0204
 L 367.894,-62.5011 L 368.128,-62.96 L 368.409,-63.3919 L 368.733,-63.7921 L 369.097,-64.1563 L 369.497,-64.4804
 L 369.839,-64.7024 L 369.839,-74 L 369.895,-74.5302 L 370.059,-75.0372 L 370.326,-75.4988 L 370.683,-75.895
 L 371.114,-76.2084 L 371.601,-76.4252 L 372.122,-76.536 L 372.655,-76.536 L 373.177,-76.4252 L 373.664,-76.2084
 L 374.095,-75.895 L 374.452,-75.4988 L 374.718,-75.0372 L 374.883,-74.5302 L 374.939,-74 L 374.939,-64.7024
 L 375.281,-64.4804 L 375.681,-64.1563 L 376.045,-63.7921 L 376.369,-63.3919 L 376.65,-62.96 L 376.884,-62.5011
 L 377.068,-62.0204 L 377.201,-61.5229 L 377.282,-61.0143 L 377.309,-60.5 L 377.282,-59.9857 L 377.201,-59.4771
 L 377.068,-58.9796 L 376.884,-58.4989 L 376.65,-58.04 L 376.369,-57.6081 L 376.045,-57.2079 L 375.681,-56.8437
 L 375.281,-56.5196 L 374.849,-56.2392 L 374.39,-56.0054 L 373.909,-55.8208 L 373.412,-55.6875 L 372.903,-55.607
 L 372.389,-55.58 z
M 1648.99,-55.607 L 1648.48,-55.6875 L 1647.98,-55.8208 L 1647.5,-56.0054 L 1647.04,-56.2392 L 1646.61,-56.5196
 L 1646.21,-56.8437 L 1645.84,-57.2079 L 1645.52,-57.6081 L 1645.24,-58.04 L 1645.01,-58.4989 L 1644.82,-58.9796
 L 1644.69,-59.4771 L 1644.61,-59.9857 L 1644.58,-60.5 L 1644.61,-61.0143 L 1644.69,-61.5229 L 1644.82,-62.0204
 L 1645.01,-62.5011 L 1645.24,-62.96 L 1645.52,-63.3919 L 1645.84,-63.7921 L 1646.21,-64.1563 L 1646.61,-64.4804
 L 1646.95,-64.7024 L 1646.95,-74 L 1647.01,-74.5302 L 1647.17,-75.0372 L 1647.44,-75.4988 L 1647.79,-75.895
 L 1648.23,-76.2084 L 1648.71,-76.4252 L 1649.23,-76.536 L 1649.77,-76.536 L 1650.29,-76.4252 L 1650.77,-76.2084
 L 1651.21,-75.895 L 1651.56,-75.4988 L 1651.83,-75.0372 L 1651.99,-74.5302 L 1652.05,-74 L 1652.05,-64.7024
 L 1652.39,-64.4804 L 1652.79,-64.1563 L 1653.16,-63.7921 L 1653.48,-63.3919 L 1653.76,-62.96 L 1653.99,-62.5011
 L 1654.18,-62.0204 L 1654.31,-61.5229 L 1654.39,-61.0143 L 1654.42,-60.5 L 1654.39,-59.9857 L 1654.31,-59.4771
 L 1654.18,-58.9796 L 1653.99,-58.4989 L 1653.76,-58.04 L 1653.48,-57.6081 L 1653.16,-57.2079 L 1652.79,-56.8437
 L 1652.39,-56.5196 L 1651.96,-56.2392 L 1651.5,-56.0054 L 1651.02,-55.8208 L 1650.52,-55.6875 L 1650.01,-55.607
 L 1649.5,-55.58 z
M 189.43,-55.607 L 188.922,-55.6875 L 188.424,-55.8208 L 187.943,-56.0054 L 187.484,-56.2392 L 187.053,-56.5196
 L 186.652,-56.8437 L 186.288,-57.2079 L 185.964,-57.6081 L 185.684,-58.04 L 185.45,-58.4989 L 185.265,-58.9796
 L 185.132,-59.4771 L 185.051,-59.9857 L 185.024,-60.5 L 185.051,-61.0143 L 185.132,-61.5229 L 185.265,-62.0204
 L 185.45,-62.5011 L 185.684,-62.96 L 185.964,-63.3919 L 186.288,-63.7921 L 186.652,-64.1563 L 187.053,-64.4804
 L 187.394,-64.7024 L 187.394,-74 L 187.45,-74.5302 L 187.615,-75.0372 L 187.881,-75.4988 L 188.238,-75.895
 L 188.669,-76.2084 L 189.156,-76.4252 L 189.678,-76.536 L 190.211,-76.536 L 190.732,-76.4252 L 191.219,-76.2084
 L 191.651,-75.895 L 192.007,-75.4988 L 192.274,-75.0372 L 192.439,-74.5302 L 192.494,-74 L 192.494,-64.7024
 L 192.836,-64.4804 L 193.237,-64.1563 L 193.601,-63.7921 L 193.925,-63.3919 L 194.205,-62.96 L 194.439,-62.5011
 L 194.624,-62.0204 L 194.757,-61.5229 L 194.837,-61.0143 L 194.864,-60.5 L 194.837,-59.9857 L 194.757,-59.4771
 L 194.624,-58.9796 L 194.439,-58.4989 L 194.205,-58.04 L 193.925,-57.6081 L 193.601,-57.2079 L 193.237,-56.8437
 L 192.836,-56.5196 L 192.404,-56.2392 L 191.946,-56.0054 L 191.465,-55.8208 L 190.967,-55.6875 L 190.459,-55.607
 L 189.944,-55.58 z
M 1114.09,-20.8529 L 1113.32,-21.1602 L 1112.62,-21.6224 L 1112.03,-22.2195 L 1111.59,-22.9252 L 1111.29,-23.7088
 L 1111.17,-24.7063 L 1111.17,-58 L 1111.25,-58.8316 L 1111.51,-59.627 L 1111.93,-60.3511 L 1112.49,-60.9726
 L 1113.17,-61.4641 L 1113.93,-61.8042 L 1115.17,-62 L 1204.49,-62 L 1205.33,-61.9126 L 1206.12,-61.6542
 L 1206.84,-61.2361 L 1207.47,-60.6765 L 1207.96,-60 L 1208.3,-59.2361 L 1208.47,-58.4181 L 1208.47,-57.5819
 L 1208.3,-56.7639 L 1207.96,-56 L 1207.47,-55.3235 L 1206.84,-54.7639 L 1205.89,-54.2519 L 1116.56,-20.9582
 L 1115.75,-20.7496 L 1114.92,-20.714 z
M 931.649,-20.8529 L 930.872,-21.1602 L 930.175,-21.6224 L 929.589,-22.2195 L 929.141,-22.9252 L 928.849,-23.7088
 L 928.722,-24.7063 L 928.722,-58 L 928.81,-58.8316 L 929.068,-59.627 L 929.486,-60.3511 L 930.046,-60.9726
 L 930.722,-61.4641 L 931.486,-61.8042 L 932.722,-62 L 1022.05,-62 L 1022.88,-61.9126 L 1023.68,-61.6542
 L 1024.4,-61.2361 L 1025.02,-60.6765 L 1025.51,-60 L 1025.85,-59.2361 L 1026.03,-58.4181 L 1026.03,-57.5819
 L 1025.85,-56.7639 L 1025.51,-56 L 1025.02,-55.3235 L 1024.4,-54.7639 L 1023.45,-54.2519 L 934.119,-20.9582
 L 933.309,-20.7496 L 932.474,-20.714 z
M 827.913,-47.7719 L 827.103,-47.9804 L 810.277,-54.2519 L 809.322,-54.7639 L 808.701,-55.3235 L 808.21,-56
 L 807.869,-56.7639 L 807.696,-57.5819 L 807.696,-58.4181 L 807.869,-59.2361 L 808.21,-60 L 808.701,-60.6765
 L 809.322,-61.2361 L 810.047,-61.6542 L 810.842,-61.9126 L 811.674,-62 L 845.326,-62 L 846.399,-61.8534
 L 847.177,-61.5461 L 847.874,-61.0839 L 848.459,-60.4868 L 848.908,-59.7811 L 849.2,-58.9975 L 849.323,-58.1704
 L 849.271,-57.3358 L 849.047,-56.5302 L 848.66,-55.7888 L 848.127,-55.1441 L 847.472,-54.6242 L 846.723,-54.2519
 L 829.897,-47.9804 L 828.748,-47.7363 z
M 723.691,-20.7496 L 722.881,-20.9582 L 633.554,-54.2519 L 632.599,-54.7639 L 631.978,-55.3235 L 631.486,-56
 L 631.146,-56.7639 L 630.973,-57.5819 L 630.973,-58.4181 L 631.146,-59.2361 L 631.486,-60 L 631.978,-60.6765
 L 632.599,-61.2361 L 633.324,-61.6542 L 634.119,-61.9126 L 634.951,-62 L 724.278,-62 L 725.514,-61.8042
 L 726.278,-61.4641 L 726.954,-60.9726 L 727.514,-60.3511 L 727.932,-59.627 L 728.19,-58.8316 L 728.278,-58
 L 728.278,-24.7063 L 728.151,-23.7088 L 727.859,-22.9252 L 727.411,-22.2195 L 726.825,-21.6224 L 726.128,-21.1602
 L 725.351,-20.8529 L 724.526,-20.714 z
M 541.246,-20.7496 L 540.436,-20.9582 L 451.109,-54.2519 L 450.155,-54.7639 L 449.534,-55.3235 L 449.042,-56
 L 448.702,-56.7639 L 448.528,-57.5819 L 448.528,-58.4181 L 448.702,-59.2361 L 449.042,-60 L 449.534,-60.6765
 L 450.155,-61.2361 L 450.879,-61.6542 L 451.674,-61.9126 L 452.506,-62 L 541.833,-62 L 543.069,-61.8042
 L 543.833,-61.4641 L 544.51,-60.9726 L 545.069,-60.3511 L 545.488,-59.627 L 545.746,-58.8316 L 545.833,-58
 L 545.833,-24.7063 L 545.707,-23.7088 L 545.415,-22.9252 L 544.966,-22.2195 L 544.381,-21.6224 L 543.684,-21.1602
 L 542.906,-20.8529 L 542.082,-20.714 z
M 358.802,-20.7496 L 357.992,-20.9582 L 268.665,-54.2519 L 267.711,-54.7639 L 267.089,-55.3235 L 266.598,-56
 L 266.257,-56.7639 L 266.084,-57.5819 L 266.084,-58.4181 L 266.257,-59.2361 L 266.598,-60 L 267.089,-60.6765
 L 267.711,-61.2361 L 268.435,-61.6542 L 269.23,-61.9126 L 270.062,-62 L 359.389,-62 L 360.625,-61.8042
 L 361.389,-61.4641 L 362.065,-60.9726 L 362.625,-60.3511 L 363.043,-59.627 L 363.301,-58.8316 L 363.389,-58
 L 363.389,-24.7063 L 363.262,-23.7088 L 362.97,-22.9252 L 362.522,-22.2195 L 361.936,-21.6224 L 361.24,-21.1602
 L 360.462,-20.8529 L 359.637,-20.714 z
M 1478.98,-20.8529 L 1478.2,-21.1602 L 1477.51,-21.6224 L 1476.92,-22.2195 L 1476.47,-22.9252 L 1476.18,-23.7088
 L 1476.06,-24.7063 L 1476.06,-58 L 1476.14,-58.8316 L 1476.4,-59.627 L 1476.82,-60.3511 L 1477.38,-60.9726
 L 1478.06,-61.4641 L 1478.82,-61.8042 L 1480.06,-62 L 1569.38,-62 L 1570.21,-61.9126 L 1571.01,-61.6542
 L 1571.73,-61.2361 L 1572.36,-60.6765 L 1572.85,-60 L 1573.19,-59.2361 L 1573.36,-58.4181 L 1573.36,-57.5819
 L 1573.19,-56.7639 L 1572.85,-56 L 1572.36,-55.3235 L 1571.73,-54.7639 L 1570.78,-54.2519 L 1481.45,-20.9582
 L 1480.64,-20.7496 L 1479.81,-20.714 z
M 176.357,-20.7496 L 175.547,-20.9582 L 86.2203,-54.2519 L 85.2661,-54.7639 L 84.6447,-55.3235 L 84.1532,-56
 L 83.813,-56.7639 L 83.6392,-57.5819 L 83.6392,-58.4181 L 83.813,-59.2361 L 84.1532,-60 L 84.6447,-60.6765
 L 85.2661,-61.2361 L 85.9903,-61.6542 L 86.7856,-61.9126 L 87.6173,-62 L 176.944,-62 L 178.181,-61.8042
 L 178.944,-61.4641 L 179.621,-60.9726 L 180.181,-60.3511 L 180.599,-59.627 L 180.857,-58.8316 L 180.944,-58
 L 180.944,-24.7063 L 180.818,-23.7088 L 180.526,-22.9252 L 180.077,-22.2195 L 179.492,-21.6224 L 178.795,-21.1602
 L 178.017,-20.8529 L 177.193,-20.714 z
M 1296.54,-20.8529 L 1295.76,-21.1602 L 1295.06,-21.6224 L 1294.48,-22.2195 L 1294.03,-22.9252 L 1293.74,-23.7088
 L 1293.61,-24.7063 L 1293.61,-58 L 1293.7,-58.8316 L 1293.96,-59.627 L 1294.38,-60.3511 L 1294.93,-60.9726
 L 1295.61,-61.4641 L 1296.38,-61.8042 L 1297.61,-62 L 1386.94,-62 L 1387.77,-61.9126 L 1388.57,-61.6542
 L 1389.29,-61.2361 L 1389.91,-60.6765 L 1390.4,-60 L 1390.74,-59.2361 L 1390.92,-58.4181 L 1390.92,-57.5819
 L 1390.74,-56.7639 L 1390.4,-56 L 1389.91,-55.3235 L 1389.29,-54.7639 L 1388.34,-54.2519 L 1299.01,-20.9582
 L 1298.2,-20.7496 L 1297.36,-20.714 z
M 749.86,-18.5958 L 749.042,-18.7696 L 748.278,-19.1098 L 747.601,-19.6013 L 747.042,-20.2227 L 746.624,-20.9469
 L 746.365,-21.7422 L 746.278,-22.5739 L 746.278,-57.4261 L 746.404,-58.4237 L 746.696,-59.2072 L 747.145,-59.913
 L 747.73,-60.51 L 748.427,-60.9723 L 749.205,-61.2796 L 750.029,-61.4184 L 750.865,-61.3828 L 751.675,-61.1743
 L 798.429,-43.7481 L 798.883,-43.5461 L 799.58,-43.0839 L 800.165,-42.4868 L 800.614,-41.7811 L 800.906,-40.9975
 L 801.029,-40.1704 L 800.977,-39.3358 L 800.752,-38.5302 L 800.365,-37.7888 L 799.833,-37.1441 L 799.178,-36.6242
 L 798.429,-36.2519 L 751.675,-18.8257 L 750.696,-18.5958 z
M 906.135,-18.6172 L 905.325,-18.8257 L 858.571,-36.2519 L 858.117,-36.4539 L 857.42,-36.9161 L 856.835,-37.5132
 L 856.386,-38.2189 L 856.094,-39.0025 L 855.971,-39.8296 L 856.023,-40.6642 L 856.248,-41.4698 L 856.634,-42.2112
 L 857.167,-42.8559 L 857.822,-43.3758 L 858.571,-43.7481 L 905.325,-61.1743 L 906.304,-61.4042 L 907.14,-61.4042
 L 907.958,-61.2304 L 908.722,-60.8902 L 909.399,-60.3987 L 909.958,-59.7773 L 910.376,-59.0531 L 910.635,-58.2578
 L 910.722,-57.4261 L 910.722,-22.5739 L 910.596,-21.5763 L 910.304,-20.7927 L 909.855,-20.087 L 909.27,-19.49
 L 908.573,-19.0277 L 907.795,-18.7204 L 906.971,-18.5816 z
M 202.944,-18 L 201.708,-18.1958 L 200.944,-18.5359 L 200.268,-19.0274 L 199.708,-19.6489 L 199.29,-20.373
 L 199.032,-21.1684 L 198.944,-22 L 198.944,-55.2937 L 199.071,-56.2912 L 199.363,-57.0748 L 199.811,-57.7805
 L 200.397,-58.3776 L 201.094,-58.8398 L 201.872,-59.1471 L 202.696,-59.2859 L 203.532,-59.2503 L 204.341,-59.0418
 L 293.669,-25.7481 L 294.623,-25.2361 L 295.244,-24.6765 L 295.736,-24 L 296.076,-23.2361 L 296.25,-22.4181
 L 296.25,-21.5819 L 296.076,-20.7639 L 295.736,-20 L 295.244,-19.3235 L 294.623,-18.7639 L 293.899,-18.3458
 L 293.103,-18.0874 L 292.272,-18 z
M 385.389,-18 L 384.153,-18.1958 L 383.389,-18.5359 L 382.712,-19.0274 L 382.153,-19.6489 L 381.735,-20.373
 L 381.476,-21.1684 L 381.389,-22 L 381.389,-55.2937 L 381.515,-56.2912 L 381.807,-57.0748 L 382.256,-57.7805
 L 382.841,-58.3776 L 383.538,-58.8398 L 384.316,-59.1471 L 385.141,-59.2859 L 385.976,-59.2503 L 386.786,-59.0418
 L 476.113,-25.7481 L 477.067,-25.2361 L 477.689,-24.6765 L 478.18,-24 L 478.52,-23.2361 L 478.694,-22.4181
 L 478.694,-21.5819 L 478.52,-20.7639 L 478.18,-20 L 477.689,-19.3235 L 477.067,-18.7639 L 476.343,-18.3458
 L 475.548,-18.0874 L 474.716,-18 z
M 567.833,-18 L 566.597,-18.1958 L 565.833,-18.5359 L 565.157,-19.0274 L 564.597,-19.6489 L 564.179,-20.373
 L 563.921,-21.1684 L 563.833,-22 L 563.833,-55.2937 L 563.96,-56.2912 L 564.252,-57.0748 L 564.7,-57.7805
 L 565.286,-58.3776 L 565.983,-58.8398 L 566.76,-59.1471 L 567.585,-59.2859 L 568.421,-59.2503 L 569.23,-59.0418
 L 658.557,-25.7481 L 659.512,-25.2361 L 660.133,-24.6765 L 660.625,-24 L 660.965,-23.2361 L 661.139,-22.4181
 L 661.139,-21.5819 L 660.965,-20.7639 L 660.625,-20 L 660.133,-19.3235 L 659.512,-18.7639 L 658.787,-18.3458
 L 657.992,-18.0874 L 657.16,-18 z
M 999.84,-18 L 999.008,-18.0874 L 998.213,-18.3458 L 997.488,-18.7639 L 996.867,-19.3235 L 996.375,-20
 L 996.035,-20.7639 L 995.861,-21.5819 L 995.861,-22.4181 L 996.035,-23.2361 L 996.375,-24 L 996.867,-24.6765
 L 997.488,-25.2361 L 998.443,-25.7481 L 1087.77,-59.0418 L 1088.58,-59.2503 L 1089.41,-59.2859 L 1090.24,-59.1471
 L 1091.02,-58.8398 L 1091.71,-58.3776 L 1092.3,-57.7805 L 1092.75,-57.0748 L 1093.04,-56.2912 L 1093.17,-55.2937
 L 1093.17,-22 L 1093.08,-21.1684 L 1092.82,-20.373 L 1092.4,-19.6489 L 1091.84,-19.0274 L 1091.17,-18.5359
 L 1090.4,-18.1958 L 1089.17,-18 z
M 1182.28,-18 L 1181.45,-18.0874 L 1180.66,-18.3458 L 1179.93,-18.7639 L 1179.31,-19.3235 L 1178.82,-20
 L 1178.48,-20.7639 L 1178.31,-21.5819 L 1178.31,-22.4181 L 1178.48,-23.2361 L 1178.82,-24 L 1179.31,-24.6765
 L 1179.93,-25.2361 L 1180.89,-25.7481 L 1270.21,-59.0418 L 1271.02,-59.2503 L 1271.86,-59.2859 L 1272.68,-59.1471
 L 1273.46,-58.8398 L 1274.16,-58.3776 L 1274.74,-57.7805 L 1275.19,-57.0748 L 1275.48,-56.2912 L 1275.61,-55.2937
 L 1275.61,-22 L 1275.52,-21.1684 L 1275.27,-20.373 L 1274.85,-19.6489 L 1274.29,-19.0274 L 1273.61,-18.5359
 L 1272.85,-18.1958 L 1271.61,-18 z
M 1364.73,-18 L 1363.9,-18.0874 L 1363.1,-18.3458 L 1362.38,-18.7639 L 1361.76,-19.3235 L 1361.26,-20
 L 1360.92,-20.7639 L 1360.75,-21.5819 L 1360.75,-22.4181 L 1360.92,-23.2361 L 1361.26,-24 L 1361.76,-24.6765
 L 1362.38,-25.2361 L 1363.33,-25.7481 L 1452.66,-59.0418 L 1453.47,-59.2503 L 1454.3,-59.2859 L 1455.13,-59.1471
 L 1455.91,-58.8398 L 1456.6,-58.3776 L 1457.19,-57.7805 L 1457.64,-57.0748 L 1457.93,-56.2912 L 1458.06,-55.2937
 L 1458.06,-22 L 1457.97,-21.1684 L 1457.71,-20.373 L 1457.29,-19.6489 L 1456.73,-19.0274 L 1456.06,-18.5359
 L 1455.29,-18.1958 L 1454.06,-18 z
M 22,-18 L 20.7639,-18.1958 L 20,-18.5359 L 19.3235,-19.0274 L 18.7639,-19.6489 L 18.3458,-20.373
 L 18.0874,-21.1684 L 18,-22 L 18,-54.7346 L 18.1264,-55.7321 L 18.4184,-56.5157 L 18.867,-57.2215
 L 19.4525,-57.8185 L 20.1494,-58.2807 L 20.9271,-58.588 L 21.7517,-58.7269 L 22.5872,-58.6913 L 23.397,-58.4827
 L 111.224,-25.7481 L 112.178,-25.2361 L 112.8,-24.6765 L 113.291,-24 L 113.631,-23.2361 L 113.805,-22.4181
 L 113.805,-21.5819 L 113.631,-20.7639 L 113.291,-20 L 112.8,-19.3235 L 112.178,-18.7639 L 111.454,-18.3458
 L 110.659,-18.0874 L 109.827,-18 z
M 1547.17,-18 L 1546.34,-18.0874 L 1545.55,-18.3458 L 1544.82,-18.7639 L 1544.2,-19.3235 L 1543.71,-20
 L 1543.37,-20.7639 L 1543.19,-21.5819 L 1543.19,-22.4181 L 1543.37,-23.2361 L 1543.71,-24 L 1544.2,-24.6765
 L 1544.82,-25.2361 L 1545.78,-25.7481 L 1633.6,-58.4827 L 1634.41,-58.6913 L 1635.25,-58.7269 L 1636.07,-58.588
 L 1636.85,-58.2807 L 1637.55,-57.8185 L 1638.13,-57.2215 L 1638.58,-56.5157 L 1638.87,-55.7321 L 1639,-54.7346
 L 1639,-22 L 1638.91,-21.1684 L 1638.65,-20.373 L 1638.24,-19.6489 L 1637.68,-19.0274 L 1637,-18.5359
 L 1636.24,-18.1958 L 1635,-18 z
M 811.674,-18 L 810.601,-18.1466 L 809.823,-18.4539 L 809.126,-18.9161 L 808.541,-19.5132 L 808.092,-20.2189
 L 807.8,-21.0025 L 807.677,-21.8296 L 807.729,-22.6642 L 807.953,-23.4698 L 808.34,-24.2112 L 808.873,-24.8559
 L 809.528,-25.3758 L 810.277,-25.7481 L 827.103,-32.0196 L 828.252,-32.2637 L 829.087,-32.2281 L 829.897,-32.0196
 L 846.723,-25.7481 L 847.677,-25.2361 L 848.299,-24.6765 L 848.79,-24 L 849.131,-23.2361 L 849.304,-22.4181
 L 849.304,-21.5819 L 849.131,-20.7639 L 848.79,-20 L 848.299,-19.3235 L 847.677,-18.7639 L 846.953,-18.3458
 L 846.158,-18.0874 L 845.326,-18 z
" stroke="black" fill="lightgray" stroke-width="0.5"/>
</svg>
