<?xml version="1.0" standalone="no"?>
<!DOCTYPE svg PUBLIC "-//W3C//DTD SVG 1.1//EN" "http://www.w3.org/Graphics/SVG/1.1/DTD/svg11.dtd">
<svg width="1401mm" height="80mm" viewBox="0 -80 1401 80" xmlns="http://www.w3.org/2000/svg" version="1.1">
<title>OpenSCAD Model</title>
<path d="
M 1401,-80 L 0,-80 L 0,-0 L 4.95,-0 L 4.95,-6 L 5.00572,-6.53017
 L 5.17046,-7.03717 L 5.437,-7.49884 L 5.79372,-7.895 L 6.22499,-8.20836 L 6.71201,-8.42519 L 7.23344,-8.53603
 L 7.76654,-8.53603 L 8.28798,-8.42519 L 8.77499,-8.20836 L 9.20627,-7.895 L 9.56299,-7.49884 L 9.82953,-7.03717
 L 9.99426,-6.53017 L 10.05,-6 L 10.05,-0 L 178.2,-0 L 178.2,-6 L 178.256,-6.53017
 L 178.42,-7.03717 L 178.687,-7.49884 L 179.044,-7.895 L 179.475,-8.20836 L 179.962,-8.42519 L 180.483,-8.53603
 L 181.017,-8.53603 L 181.538,-8.42519 L 182.025,-8.20836 L 182.456,-7.895 L 182.813,-7.49884 L 183.08,-7.03717
 L 183.244,-6.53017 L 183.3,-6 L 183.3,-0 L 351.45,-0 L 351.45,-6 L 351.506,-6.53017
 L 351.67,-7.03717 L 351.937,-7.49884 L 352.294,-7.895 L 352.725,-8.20836 L 353.212,-8.42519 L 353.733,-8.53603
 L 354.267,-8.53603 L 354.788,-8.42519 L 355.275,-8.20836 L 355.706,-7.895 L 356.063,-7.49884 L 356.33,-7.03717
 L 356.494,-6.53017 L 356.55,-6 L 356.55,-0 L 524.7,-0 L 524.7,-6 L 524.756,-6.53017
 L 524.92,-7.03717 L 525.187,-7.49884 L 525.544,-7.895 L 525.975,-8.20836 L 526.462,-8.42519 L 526.983,-8.53603
 L 527.517,-8.53603 L 528.038,-8.42519 L 528.525,-8.20836 L 528.956,-7.895 L 529.313,-7.49884 L 529.58,-7.03717
 L 529.744,-6.53017 L 529.8,-6 L 529.8,-0 L 697.95,-0 L 697.95,-6 L 698.006,-6.53017
 L 698.17,-7.03717 L 698.437,-7.49884 L 698.794,-7.895 L 699.225,-8.20836 L 699.712,-8.42519 L 700.233,-8.53603
 L 700.767,-8.53603 L 701.288,-8.42519 L 701.775,-8.20836 L 702.206,-7.895 L 702.563,-7.49884 L 702.83,-7.03717
 L 702.994,-6.53017 L 703.05,-6 L 703.05,-0 L 871.2,-0 L 871.2,-6 L 871.256,-6.53017
 L 871.42,-7.03717 L 871.687,-7.49884 L 872.044,-7.895 L 872.475,-8.20836 L 872.962,-8.42519 L 873.483,-8.53603
 L 874.017,-8.53603 L 874.538,-8.42519 L 875.025,-8.20836 L 875.456,-7.895 L 875.813,-7.49884 L 876.08,-7.03717
 L 876.244,-6.53017 L 876.3,-6 L 876.3,-0 L 1044.45,-0 L 1044.45,-6 L 1044.51,-6.53017
 L 1044.67,-7.03717 L 1044.94,-7.49884 L 1045.29,-7.895 L 1045.72,-8.20836 L 1046.21,-8.42519 L 1046.73,-8.53603
 L 1047.27,-8.53603 L 1047.79,-8.42519 L 1048.27,-8.20836 L 1048.71,-7.895 L 1049.06,-7.49884 L 1049.33,-7.03717
 L 1049.49,-6.53017 L 1049.55,-6 L 1049.55,-0 L 1217.7,-0 L 1217.7,-6 L 1217.76,-6.53017
 L 1217.92,-7.03717 L 1218.19,-7.49884 L 1218.54,-7.895 L 1218.97,-8.20836 L 1219.46,-8.42519 L 1219.98,-8.53603
 L 1220.52,-8.53603 L 1221.04,-8.42519 L 1221.52,-8.20836 L 1221.96,-7.895 L 1222.31,-7.49884 L 1222.58,-7.03717
 L 1222.74,-6.53017 L 1222.8,-6 L 1222.8,-0 L 1390.95,-0 L 1390.95,-6 L 1391.01,-6.53017
 L 1391.17,-7.03717 L 1391.44,-7.49884 L 1391.79,-7.895 L 1392.22,-8.20836 L 1392.71,-8.42519 L 1393.23,-8.53603
 L 1393.77,-8.53603 L 1394.29,-8.42519 L 1394.77,-8.20836 L 1395.21,-7.895 L 1395.56,-7.49884 L 1395.83,-7.03717
 L 1395.99,-6.53017 L 1396.05,-6 L 1396.05,-0 L 1401,-0 z
M 180.236,-55.607 L 179.727,-55.6875 L 179.23,-55.8208 L 178.749,-56.0054 L 178.29,-56.2392 L 177.858,-56.5196
 L 177.458,-56.8437 L 177.094,-57.2079 L 176.77,-57.6081 L 176.489,-58.04 L 176.255,-58.4989 L 176.071,-58.9796
 L 175.938,-59.4771 L 175.857,-59.9857 L 175.83,-60.5 L 175.857,-61.0143 L 175.938,-61.5229 L 176.071,-62.0204
 L 176.255,-62.5011 L 176.489,-62.96 L 176.77,-63.3919 L 177.094,-63.7921 L 177.458,-64.1563 L 177.858,-64.4804
 L 178.2,-64.7024 L 178.2,-74 L 178.256,-74.5302 L 178.42,-75.0372 L 178.687,-75.4988 L 179.044,-75.895
 L 179.475,-76.2084 L 179.962,-76.4252 L 180.483,-76.536 L 181.017,-76.536 L 181.538,-76.4252 L 182.025,-76.2084
 L 182.456,-75.895 L 182.813,-75.4988 L 183.08,-75.0372 L 183.244,-74.5302 L 183.3,-74 L 183.3,-64.7024
 L 183.642,-64.4804 L 184.042,-64.1563 L 184.406,-63.7921 L 184.73,-63.3919 L 185.011,-62.96 L 185.245,-62.5011
 L 185.429,-62.0204 L 185.562,-61.5229 L 185.643,-61.0143 L 185.67,-60.5 L 185.643,-59.9857 L 185.562,-59.4771
 L 185.429,-58.9796 L 185.245,-58.4989 L 185.011,-58.04 L 184.73,-57.6081 L 184.406,-57.2079 L 184.042,-56.8437
 L 183.642,-56.5196 L 183.21,-56.2392 L 182.751,-56.0054 L 182.27,-55.8208 L 181.773,-55.6875 L 181.264,-55.607
 L 180.75,-55.58 z
M 1046.49,-55.607 L 1045.98,-55.6875 L 1045.48,-55.8208 L 1045,-56.0054 L 1044.54,-56.2392 L 1044.11,-56.5196
 L 1043.71,-56.8437 L 1043.34,-57.2079 L 1043.02,-57.6081 L 1042.74,-58.04 L 1042.51,-58.4989 L 1042.32,-58.9796
 L 1042.19,-59.4771 L 1042.11,-59.9857 L 1042.08,-60.5 L 1042.11,-61.0143 L 1042.19,-61.5229 L 1042.32,-62.0204
 L 1042.51,-62.5011 L 1042.74,-62.96 L 1043.02,-63.3919 L 1043.34,-63.7921 L 1043.71,-64.1563 L 1044.11,-64.4804
 L 1044.45,-64.7024 L 1044.45,-74 L 1044.51,-74.5302 L 1044.67,-75.0372 L 1044.94,-75.4988 L 1045.29,-75.895
 L 1045.73,-76.2084 L 1046.21,-76.4252 L 1046.73,-76.536 L 1047.27,-76.536 L 1047.79,-76.4252 L 1048.27,-76.2084
 L 1048.71,-75.895 L 1049.06,-75.4988 L 1049.33,-75.0372 L 1049.49,-74.5302 L 1049.55,-74 L 1049.55,-64.7024
 L 1049.89,-64.4804 L 1050.29,-64.1563 L 1050.66,-63.7921 L 1050.98,-63.3919 L 1051.26,-62.96 L 1051.49,-62.5011
 L 1051.68,-62.0204 L 1051.81,-61.5229 L 1051.89,-61.0143 L 1051.92,-60.5 L 1051.89,-59.9857 L 1051.81,-59.4771
 L 1051.68,-58.9796 L 1051.49,-58.4989 L 1051.26,-58.04 L 1050.98,-57.6081 L 1050.66,-57.2079 L 1050.29,-56.8437
 L 1049.89,-56.5196 L 1049.46,-56.2392 L 1049,-56.0054 L 1048.52,-55.8208 L 1048.02,-55.6875 L 1047.51,-55.607
 L 1047,-55.58 z
M 873.236,-55.607 L 872.727,-55.6875 L 872.23,-55.8208 L 871.749,-56.0054 L 871.29,-56.2392 L 870.858,-56.5196
 L 870.458,-56.8437 L 870.094,-57.2079 L 869.77,-57.6081 L 869.489,-58.04 L 869.255,-58.4989 L 869.071,-58.9796
 L 868.938,-59.4771 L 868.857,-59.9857 L 868.83,-60.5 L 868.857,-61.0143 L 868.938,-61.5229 L 869.071,-62.0204
 L 869.255,-62.5011 L 869.489,-62.96 L 869.77,-63.3919 L 870.094,-63.7921 L 870.458,-64.1563 L 870.858,-64.4804
 L 871.2,-64.7024 L 871.2,-74 L 871.256,-74.5302 L 871.42,-75.0372 L 871.687,-75.4988 L 872.044,-75.895
 L 872.475,-76.2084 L 872.962,-76.4252 L 873.483,-76.536 L 874.017,-76.536 L 874.538,-76.4252 L 875.025,-76.2084
 L 875.456,-75.895 L 875.813,-75.4988 L 876.08,-75.0372 L 876.244,-74.5302 L 876.3,-74 L 876.3,-64.7024
 L 876.642,-64.4804 L 877.042,-64.1563 L 877.406,-63.7921 L 877.73,-63.3919 L 878.011,-62.96 L 878.245,-62.5011
 L 878.429,-62.0204 L 878.562,-61.5229 L 878.643,-61.0143 L 878.67,-60.5 L 878.643,-59.9857 L 878.562,-59.4771
 L 878.429,-58.9796 L 878.245,-58.4989 L 878.011,-58.04 L 877.73,-57.6081 L 877.406,-57.2079 L 877.042,-56.8437
 L 876.642,-56.5196 L 876.21,-56.2392 L 875.751,-56.0054 L 875.27,-55.8208 L 874.773,-55.6875 L 874.264,-55.607
 L 873.75,-55.58 z
M 6.98573,-55.607 L 6.47708,-55.6875 L 5.97964,-55.8208 L 5.49887,-56.0054 L 5.04001,-56.2392 L 4.60811,-56.5196
 L 4.20789,-56.8437 L 3.84373,-57.2079 L 3.51964,-57.6081 L 3.23917,-58.04 L 3.00537,-58.4989 L 2.82082,-58.9796
 L 2.68752,-59.4771 L 2.60696,-59.9857 L 2.58,-60.5 L 2.60696,-61.0143 L 2.68752,-61.5229 L 2.82082,-62.0204
 L 3.00537,-62.5011 L 3.23917,-62.96 L 3.51964,-63.3919 L 3.84373,-63.7921 L 4.20789,-64.1563 L 4.60811,-64.4804
 L 4.95001,-64.7024 L 4.95001,-74 L 5.00574,-74.5302 L 5.17047,-75.0372 L 5.43701,-75.4988 L 5.79373,-75.895
 L 6.22501,-76.2084 L 6.71202,-76.4252 L 7.23346,-76.536 L 7.76654,-76.536 L 8.28798,-76.4252 L 8.77499,-76.2084
 L 9.20627,-75.895 L 9.56299,-75.4988 L 9.82953,-75.0372 L 9.99426,-74.5302 L 10.05,-74 L 10.05,-64.7024
 L 10.3919,-64.4804 L 10.7921,-64.1563 L 11.1563,-63.7921 L 11.4804,-63.3919 L 11.7608,-62.96 L 11.9946,-62.5011
 L 12.1792,-62.0204 L 12.3125,-61.5229 L 12.393,-61.0143 L 12.42,-60.5 L 12.393,-59.9857 L 12.3125,-59.4771
 L 12.1792,-58.9796 L 11.9946,-58.4989 L 11.7608,-58.04 L 11.4804,-57.6081 L 11.1563,-57.2079 L 10.7921,-56.8437
 L 10.3919,-56.5196 L 9.95999,-56.2392 L 9.50113,-56.0054 L 9.02036,-55.8208 L 8.52292,-55.6875 L 8.01427,-55.607
 L 7.5,-55.58 z
M 699.986,-55.607 L 699.477,-55.6875 L 698.98,-55.8208 L 698.499,-56.0054 L 698.04,-56.2392 L 697.608,-56.5196
 L 697.208,-56.8437 L 696.844,-57.2079 L 696.52,-57.6081 L 696.239,-58.04 L 696.005,-58.4989 L 695.821,-58.9796
 L 695.688,-59.4771 L 695.607,-59.9857 L 695.58,-60.5 L 695.607,-61.0143 L 695.688,-61.5229 L 695.821,-62.0204
 L 696.005,-62.5011 L 696.239,-62.96 L 696.52,-63.3919 L 696.844,-63.7921 L 697.208,-64.1563 L 697.608,-64.4804
 L 697.95,-64.7024 L 697.95,-74 L 698.006,-74.5302 L 698.17,-75.0372 L 698.437,-75.4988 L 698.794,-75.895
 L 699.225,-76.2084 L 699.712,-76.4252 L 700.233,-76.536 L 700.767,-76.536 L 701.288,-76.4252 L 701.775,-76.2084
 L 702.206,-75.895 L 702.563,-75.4988 L 702.83,-75.0372 L 702.994,-74.5302 L 703.05,-74 L 703.05,-64.7024
 L 703.392,-64.4804 L 703.792,-64.1563 L 704.156,-63.7921 L 704.48,-63.3919 L 704.761,-62.96 L 704.995,-62.5011
 L 705.179,-62.0204 L 705.312,-61.5229 L 705.393,-61.0143 L 705.42,-60.5 L 705.393,-59.9857 L 705.312,-59.4771
 L 705.179,-58.9796 L 704.995,-58.4989 L 704.761,-58.04 L 704.48,-57.6081 L 704.156,-57.2079 L 703.792,-56.8437
 L 703.392,-56.5196 L 702.96,-56.2392 L 702.501,-56.0054 L 702.02,-55.8208 L 701.523,-55.6875 L 701.014,-55.607
 L 700.5,-55.58 z
M 1219.74,-55.607 L 1219.23,-55.6875 L 1218.73,-55.8208 L 1218.25,-56.0054 L 1217.79,-56.2392 L 1217.36,-56.5196
 L 1216.96,-56.8437 L 1216.59,-57.2079 L 1216.27,-57.6081 L 1215.99,-58.04 L 1215.76,-58.4989 L 1215.57,-58.9796
 L 1215.44,-59.4771 L 1215.36,-59.9857 L 1215.33,-60.5 L 1215.36,-61.0143 L 1215.44,-61.5229 L 1215.57,-62.0204
 L 1215.76,-62.5011 L 1215.99,-62.96 L 1216.27,-63.3919 L 1216.59,-63.7921 L 1216.96,-64.1563 L 1217.36,-64.4804
 L 1217.7,-64.7024 L 1217.7,-74 L 1217.76,-74.5302 L 1217.92,-75.0372 L 1218.19,-75.4988 L 1218.54,-75.895
 L 1218.98,-76.2084 L 1219.46,-76.4252 L 1219.98,-76.536 L 1220.52,-76.536 L 1221.04,-76.4252 L 1221.52,-76.2084
 L 1221.96,-75.895 L 1222.31,-75.4988 L 1222.58,-75.0372 L 1222.74,-74.5302 L 1222.8,-74 L 1222.8,-64.7024
 L 1223.14,-64.4804 L 1223.54,-64.1563 L 1223.91,-63.7921 L 1224.23,-63.3919 L 1224.51,-62.96 L 1224.74,-62.5011
 L 1224.93,-62.0204 L 1225.06,-61.5229 L 1225.14,-61.0143 L 1225.17,-60.5 L 1225.14,-59.9857 L 1225.06,-59.4771
 L 1224.93,-58.9796 L 1224.74,-58.4989 L 1224.51,-58.04 L 1224.23,-57.6081 L 1223.91,-57.2079 L 1223.54,-56.8437
 L 1223.14,-56.5196 L 1222.71,-56.2392 L 1222.25,-56.0054 L 1221.77,-55.8208 L 1221.27,-55.6875 L 1220.76,-55.607
 L 1220.25,-55.58 z
M 526.736,-55.607 L 526.227,-55.6875 L 525.73,-55.8208 L 525.249,-56.0054 L 524.79,-56.2392 L 524.358,-56.5196
 L 523.958,-56.8437 L 523.594,-57.2079 L 523.27,-57.6081 L 522.989,-58.04 L 522.755,-58.4989 L 522.571,-58.9796
 L 522.438,-59.4771 L 522.357,-59.9857 L 522.33,-60.5 L 522.357,-61.0143 L 522.438,-61.5229 L 522.571,-62.0204
 L 522.755,-62.5011 L 522.989,-62.96 L 523.27,-63.3919 L 523.594,-63.7921 L 523.958,-64.1563 L 524.358,-64.4804
 L 524.7,-64.7024 L 524.7,-74 L 524.756,-74.5302 L 524.92,-75.0372 L 525.187,-75.4988 L 525.544,-75.895
 L 525.975,-76.2084 L 526.462,-76.4252 L 526.983,-76.536 L 527.517,-76.536 L 528.038,-76.4252 L 528.525,-76.2084
 L 528.956,-75.895 L 529.313,-75.4988 L 529.58,-75.0372 L 529.744,-74.5302 L 529.8,-74 L 529.8,-64.7024
 L 530.142,-64.4804 L 530.542,-64.1563 L 530.906,-63.7921 L 531.23,-63.3919 L 531.511,-62.96 L 531.745,-62.5011
 L 531.929,-62.0204 L 532.062,-61.5229 L 532.143,-61.0143 L 532.17,-60.5 L 532.143,-59.9857 L 532.062,-59.4771
 L 531.929,-58.9796 L 531.745,-58.4989 L 531.511,-58.04 L 531.23,-57.6081 L 530.906,-57.2079 L 530.542,-56.8437
 L 530.142,-56.5196 L 529.71,-56.2392 L 529.251,-56.0054 L 528.77,-55.8208 L 528.273,-55.6875 L 527.764,-55.607
 L 527.25,-55.58 z
M 353.486,-55.607 L 352.977,-55.6875 L 352.48,-55.8208 L 351.999,-56.0054 L 351.54,-56.2392 L 351.108,-56.5196
 L 350.708,-56.8437 L 350.344,-57.2079 L 350.02,-57.6081 L 349.739,-58.04 L 349.505,-58.4989 L 349.321,-58.9796
 L 349.188,-59.4771 L 349.107,-59.9857 L 349.08,-60.5 L 349.107,-61.0143 L 349.188,-61.5229 L 349.321,-62.0204
 L 349.505,-62.5011 L 349.739,-62.96 L 350.02,-63.3919 L 350.344,-63.7921 L 350.708,-64.1563 L 351.108,-64.4804
 L 351.45,-64.7024 L 351.45,-74 L 351.506,-74.5302 L 351.67,-75.0372 L 351.937,-75.4988 L 352.294,-75.895
 L 352.725,-76.2084 L 353.212,-76.4252 L 353.733,-76.536 L 354.267,-76.536 L 354.788,-76.4252 L 355.275,-76.2084
 L 355.706,-75.895 L 356.063,-75.4988 L 356.33,-75.0372 L 356.494,-74.5302 L 356.55,-74 L 356.55,-64.7024
 L 356.892,-64.4804 L 357.292,-64.1563 L 357.656,-63.7921 L 357.98,-63.3919 L 358.261,-62.96 L 358.495,-62.5011
 L 358.679,-62.0204 L 358.812,-61.5229 L 358.893,-61.0143 L 358.92,-60.5 L 358.893,-59.9857 L 358.812,-59.4771
 L 358.679,-58.9796 L 358.495,-58.4989 L 358.261,-58.04 L 357.98,-57.6081 L 357.656,-57.2079 L 357.292,-56.8437
 L 356.892,-56.5196 L 356.46,-56.2392 L 356.001,-56.0054 L 355.52,-55.8208 L 355.023,-55.6875 L 354.514,-55.607
 L 354,-55.58 z
M 1392.99,-55.607 L 1392.48,-55.6875 L 1391.98,-55.8208 L 1391.5,-56.0054 L 1391.04,-56.2392 L 1390.61,-56.5196
 L 1390.21,-56.8437 L 1389.84,-57.2079 L 1389.52,-57.6081 L 1389.24,-58.04 L 1389.01,-58.4989 L 1388.82,-58.9796
 L 1388.69,-59.4771 L 1388.61,-59.9857 L 1388.58,-60.5 L 1388.61,-61.0143 L 1388.69,-61.5229 L 1388.82,-62.0204
 L 1389.01,-62.5011 L 1389.24,-62.96 L 1389.52,-63.3919 L 1389.84,-63.7921 L 1390.21,-64.1563 L 1390.61,-64.4804
 L 1390.95,-64.7024 L 1390.95,-74 L 1391.01,-74.5302 L 1391.17,-75.0372 L 1391.44,-75.4988 L 1391.79,-75.895
 L 1392.23,-76.2084 L 1392.71,-76.4252 L 1393.23,-76.536 L 1393.77,-76.536 L 1394.29,-76.4252 L 1394.77,-76.2084
 L 1395.21,-75.895 L 1395.56,-75.4988 L 1395.83,-75.0372 L 1395.99,-74.5302 L 1396.05,-74 L 1396.05,-64.7024
 L 1396.39,-64.4804 L 1396.79,-64.1563 L 1397.16,-63.7921 L 1397.48,-63.3919 L 1397.76,-62.96 L 1397.99,-62.5011
 L 1398.18,-62.0204 L 1398.31,-61.5229 L 1398.39,-61.0143 L 1398.42,-60.5 L 1398.39,-59.9857 L 1398.31,-59.4771
 L 1398.18,-58.9796 L 1397.99,-58.4989 L 1397.76,-58.04 L 1397.48,-57.6081 L 1397.16,-57.2079 L 1396.79,-56.8437
 L 1396.39,-56.5196 L 1395.96,-56.2392 L 1395.5,-56.0054 L 1395.02,-55.8208 L 1394.52,-55.6875 L 1394.01,-55.607
 L 1393.5,-55.58 z
M 340.345,-21.1079 L 339.539,-21.3304 L 255.599,-54.2765 L 254.709,-54.7639 L 254.088,-55.3235 L 253.596,-56
 L 253.256,-56.7639 L 253.082,-57.5819 L 253.082,-58.4181 L 253.256,-59.2361 L 253.596,-60 L 254.088,-60.6765
 L 254.709,-61.2361 L 255.433,-61.6542 L 256.228,-61.9126 L 257.06,-62 L 341,-62 L 342.236,-61.8042
 L 343,-61.4641 L 343.677,-60.9726 L 344.236,-60.3511 L 344.654,-59.627 L 344.913,-58.8316 L 345,-58
 L 345,-25.0539 L 344.856,-23.9897 L 344.55,-23.2112 L 344.09,-22.5134 L 343.494,-21.9265 L 342.789,-21.4763
 L 342.006,-21.1825 L 341.179,-21.0579 z
M 513.595,-21.1079 L 512.789,-21.3304 L 428.849,-54.2765 L 427.959,-54.7639 L 427.338,-55.3235 L 426.846,-56
 L 426.506,-56.7639 L 426.332,-57.5819 L 426.332,-58.4181 L 426.506,-59.2361 L 426.846,-60 L 427.338,-60.6765
 L 427.959,-61.2361 L 428.683,-61.6542 L 429.478,-61.9126 L 430.31,-62 L 514.25,-62 L 515.486,-61.8042
 L 516.25,-61.4641 L 516.927,-60.9726 L 517.486,-60.3511 L 517.904,-59.627 L 518.163,-58.8316 L 518.25,-58
 L 518.25,-25.0539 L 518.106,-23.9897 L 517.8,-23.2112 L 517.34,-22.5134 L 516.744,-21.9265 L 516.039,-21.4763
 L 515.256,-21.1825 L 514.429,-21.0579 z
M 1232.24,-21.1825 L 1231.46,-21.4763 L 1230.76,-21.9265 L 1230.16,-22.5134 L 1229.7,-23.2112 L 1229.39,-23.9897
 L 1229.25,-25.0539 L 1229.25,-58 L 1229.34,-58.8316 L 1229.6,-59.627 L 1230.01,-60.3511 L 1230.57,-60.9726
 L 1231.25,-61.4641 L 1232.01,-61.8042 L 1233.25,-62 L 1317.19,-62 L 1318.02,-61.9126 L 1318.82,-61.6542
 L 1319.54,-61.2361 L 1320.16,-60.6765 L 1320.65,-60 L 1320.99,-59.2361 L 1321.17,-58.4181 L 1321.17,-57.5819
 L 1320.99,-56.7639 L 1320.65,-56 L 1320.16,-55.3235 L 1319.54,-54.7639 L 1318.65,-54.2765 L 1234.71,-21.3304
 L 1233.91,-21.1079 L 1233.07,-21.0579 z
M 686.845,-21.1079 L 686.039,-21.3304 L 602.099,-54.2765 L 601.209,-54.7639 L 600.588,-55.3235 L 600.096,-56
 L 599.756,-56.7639 L 599.582,-57.5819 L 599.582,-58.4181 L 599.756,-59.2361 L 600.096,-60 L 600.588,-60.6765
 L 601.209,-61.2361 L 601.933,-61.6542 L 602.728,-61.9126 L 603.56,-62 L 687.5,-62 L 688.736,-61.8042
 L 689.5,-61.4641 L 690.177,-60.9726 L 690.736,-60.3511 L 691.154,-59.627 L 691.413,-58.8316 L 691.5,-58
 L 691.5,-25.0539 L 691.356,-23.9897 L 691.05,-23.2112 L 690.59,-22.5134 L 689.994,-21.9265 L 689.289,-21.4763
 L 688.506,-21.1825 L 687.679,-21.0579 z
M 167.095,-21.1079 L 166.289,-21.3304 L 82.3486,-54.2765 L 81.459,-54.7639 L 80.8375,-55.3235 L 80.346,-56
 L 80.0059,-56.7639 L 79.832,-57.5819 L 79.832,-58.4181 L 80.0059,-59.2361 L 80.346,-60 L 80.8375,-60.6765
 L 81.459,-61.2361 L 82.1831,-61.6542 L 82.9784,-61.9126 L 83.8101,-62 L 167.75,-62 L 168.986,-61.8042
 L 169.75,-61.4641 L 170.427,-60.9726 L 170.986,-60.3511 L 171.404,-59.627 L 171.663,-58.8316 L 171.75,-58
 L 171.75,-25.0539 L 171.606,-23.9897 L 171.3,-23.2112 L 170.84,-22.5134 L 170.244,-21.9265 L 169.539,-21.4763
 L 168.756,-21.1825 L 167.929,-21.0579 z
M 712.494,-21.1825 L 711.711,-21.4763 L 711.006,-21.9265 L 710.41,-22.5134 L 709.95,-23.2112 L 709.644,-23.9897
 L 709.5,-25.0539 L 709.5,-58 L 709.587,-58.8316 L 709.846,-59.627 L 710.264,-60.3511 L 710.823,-60.9726
 L 711.5,-61.4641 L 712.264,-61.8042 L 713.5,-62 L 797.44,-62 L 798.272,-61.9126 L 799.067,-61.6542
 L 799.791,-61.2361 L 800.412,-60.6765 L 800.904,-60 L 801.244,-59.2361 L 801.418,-58.4181 L 801.418,-57.5819
 L 801.244,-56.7639 L 800.904,-56 L 800.412,-55.3235 L 799.791,-54.7639 L 798.901,-54.2765 L 714.961,-21.3304
 L 714.155,-21.1079 L 713.321,-21.0579 z
M 885.744,-21.1825 L 884.961,-21.4763 L 884.256,-21.9265 L 883.66,-22.5134 L 883.2,-23.2112 L 882.894,-23.9897
 L 882.75,-25.0539 L 882.75,-58 L 882.837,-58.8316 L 883.096,-59.627 L 883.514,-60.3511 L 884.073,-60.9726
 L 884.75,-61.4641 L 885.514,-61.8042 L 886.75,-62 L 970.69,-62 L 971.522,-61.9126 L 972.317,-61.6542
 L 973.041,-61.2361 L 973.662,-60.6765 L 974.154,-60 L 974.494,-59.2361 L 974.668,-58.4181 L 974.668,-57.5819
 L 974.494,-56.7639 L 974.154,-56 L 973.662,-55.3235 L 973.041,-54.7639 L 972.151,-54.2765 L 888.211,-21.3304
 L 887.405,-21.1079 L 886.571,-21.0579 z
M 1058.99,-21.1825 L 1058.21,-21.4763 L 1057.51,-21.9265 L 1056.91,-22.5134 L 1056.45,-23.2112 L 1056.14,-23.9897
 L 1056,-25.0539 L 1056,-58 L 1056.09,-58.8316 L 1056.35,-59.627 L 1056.76,-60.3511 L 1057.32,-60.9726
 L 1058,-61.4641 L 1058.76,-61.8042 L 1060,-62 L 1143.94,-62 L 1144.77,-61.9126 L 1145.57,-61.6542
 L 1146.29,-61.2361 L 1146.91,-60.6765 L 1147.4,-60 L 1147.74,-59.2361 L 1147.92,-58.4181 L 1147.92,-57.5819
 L 1147.74,-56.7639 L 1147.4,-56 L 1146.91,-55.3235 L 1146.29,-54.7639 L 1145.4,-54.2765 L 1061.46,-21.3304
 L 1060.66,-21.1079 L 1059.82,-21.0579 z
M 193.75,-18 L 192.514,-18.1958 L 191.75,-18.5359 L 191.073,-19.0274 L 190.514,-19.6489 L 190.096,-20.373
 L 189.837,-21.1684 L 189.75,-22 L 189.75,-54.9461 L 189.894,-56.0103 L 190.2,-56.7887 L 190.66,-57.4866
 L 191.256,-58.0735 L 191.961,-58.5236 L 192.744,-58.8175 L 193.571,-58.9421 L 194.405,-58.892 L 195.211,-58.6696
 L 279.151,-25.7235 L 280.041,-25.2361 L 280.662,-24.6765 L 281.154,-24 L 281.494,-23.2361 L 281.668,-22.4181
 L 281.668,-21.5819 L 281.494,-20.7639 L 281.154,-20 L 280.662,-19.3235 L 280.041,-18.7639 L 279.317,-18.3458
 L 278.522,-18.0874 L 277.69,-18 z
M 367,-18 L 365.764,-18.1958 L 365,-18.5359 L 364.323,-19.0274 L 363.764,-19.6489 L 363.346,-20.373
 L 363.087,-21.1684 L 363,-22 L 363,-54.9461 L 363.144,-56.0103 L 363.45,-56.7887 L 363.91,-57.4866
 L 364.506,-58.0735 L 365.211,-58.5236 L 365.994,-58.8175 L 366.821,-58.9421 L 367.655,-58.892 L 368.461,-58.6696
 L 452.401,-25.7235 L 453.291,-25.2361 L 453.912,-24.6765 L 454.404,-24 L 454.744,-23.2361 L 454.918,-22.4181
 L 454.918,-21.5819 L 454.744,-20.7639 L 454.404,-20 L 453.912,-19.3235 L 453.291,-18.7639 L 452.567,-18.3458
 L 451.772,-18.0874 L 450.94,-18 z
M 540.25,-18 L 539.014,-18.1958 L 538.25,-18.5359 L 537.573,-19.0274 L 537.014,-19.6489 L 536.596,-20.373
 L 536.337,-21.1684 L 536.25,-22 L 536.25,-54.9461 L 536.394,-56.0103 L 536.7,-56.7887 L 537.16,-57.4866
 L 537.756,-58.0735 L 538.461,-58.5236 L 539.244,-58.8175 L 540.071,-58.9421 L 540.905,-58.892 L 541.711,-58.6696
 L 625.651,-25.7235 L 626.541,-25.2361 L 627.162,-24.6765 L 627.654,-24 L 627.994,-23.2361 L 628.168,-22.4181
 L 628.168,-21.5819 L 627.994,-20.7639 L 627.654,-20 L 627.162,-19.3235 L 626.541,-18.7639 L 625.817,-18.3458
 L 625.022,-18.0874 L 624.19,-18 z
M 776.81,-18 L 775.978,-18.0874 L 775.183,-18.3458 L 774.459,-18.7639 L 773.838,-19.3235 L 773.346,-20
 L 773.006,-20.7639 L 772.832,-21.5819 L 772.832,-22.4181 L 773.006,-23.2361 L 773.346,-24 L 773.838,-24.6765
 L 774.459,-25.2361 L 775.349,-25.7235 L 859.289,-58.6696 L 860.095,-58.892 L 860.929,-58.9421 L 861.756,-58.8175
 L 862.539,-58.5236 L 863.244,-58.0735 L 863.84,-57.4866 L 864.3,-56.7887 L 864.606,-56.0103 L 864.75,-54.9461
 L 864.75,-22 L 864.663,-21.1684 L 864.404,-20.373 L 863.986,-19.6489 L 863.427,-19.0274 L 862.75,-18.5359
 L 861.986,-18.1958 L 860.75,-18 z
M 950.06,-18 L 949.228,-18.0874 L 948.433,-18.3458 L 947.709,-18.7639 L 947.088,-19.3235 L 946.596,-20
 L 946.256,-20.7639 L 946.082,-21.5819 L 946.082,-22.4181 L 946.256,-23.2361 L 946.596,-24 L 947.088,-24.6765
 L 947.709,-25.2361 L 948.599,-25.7235 L 1032.54,-58.6696 L 1033.34,-58.892 L 1034.18,-58.9421 L 1035.01,-58.8175
 L 1035.79,-58.5236 L 1036.49,-58.0735 L 1037.09,-57.4866 L 1037.55,-56.7887 L 1037.86,-56.0103 L 1038,-54.9461
 L 1038,-22 L 1037.91,-21.1684 L 1037.65,-20.373 L 1037.24,-19.6489 L 1036.68,-19.0274 L 1036,-18.5359
 L 1035.24,-18.1958 L 1034,-18 z
M 1123.31,-18 L 1122.48,-18.0874 L 1121.68,-18.3458 L 1120.96,-18.7639 L 1120.34,-19.3235 L 1119.85,-20
 L 1119.51,-20.7639 L 1119.33,-21.5819 L 1119.33,-22.4181 L 1119.51,-23.2361 L 1119.85,-24 L 1120.34,-24.6765
 L 1120.96,-25.2361 L 1121.85,-25.7235 L 1205.79,-58.6696 L 1206.59,-58.892 L 1207.43,-58.9421 L 1208.26,-58.8175
 L 1209.04,-58.5236 L 1209.74,-58.0735 L 1210.34,-57.4866 L 1210.8,-56.7887 L 1211.11,-56.0103 L 1211.25,-54.9461
 L 1211.25,-22 L 1211.16,-21.1684 L 1210.9,-20.373 L 1210.49,-19.6489 L 1209.93,-19.0274 L 1209.25,-18.5359
 L 1208.49,-18.1958 L 1207.25,-18 z
M 1296.56,-18 L 1295.73,-18.0874 L 1294.93,-18.3458 L 1294.21,-18.7639 L 1293.59,-19.3235 L 1293.1,-20
 L 1292.76,-20.7639 L 1292.58,-21.5819 L 1292.58,-22.4181 L 1292.76,-23.2361 L 1293.1,-24 L 1293.59,-24.6765
 L 1294.21,-25.2361 L 1295.1,-25.7235 L 1377.54,-58.0808 L 1378.34,-58.3033 L 1379.18,-58.3533 L 1380.01,-58.2287
 L 1380.79,-57.9349 L 1381.49,-57.4847 L 1382.09,-56.8979 L 1382.55,-56.2 L 1382.86,-55.4216 L 1383,-54.3574
 L 1383,-22 L 1382.91,-21.1684 L 1382.65,-20.373 L 1382.24,-19.6489 L 1381.68,-19.0274 L 1381,-18.5359
 L 1380.24,-18.1958 L 1379,-18 z
M 22,-18 L 20.7639,-18.1958 L 20,-18.5359 L 19.3235,-19.0274 L 18.7639,-19.6489 L 18.3458,-20.373
 L 18.0874,-21.1684 L 18,-22 L 18,-54.3574 L 18.1442,-55.4216 L 18.4497,-56.2 L 18.9104,-56.8979
 L 19.5061,-57.4847 L 20.2108,-57.9349 L 20.9937,-58.2287 L 21.8206,-58.3533 L 22.6554,-58.3033 L 23.4614,-58.0808
 L 105.901,-25.7235 L 106.791,-25.2361 L 107.412,-24.6765 L 107.904,-24 L 108.244,-23.2361 L 108.418,-22.4181
 L 108.418,-21.5819 L 108.244,-20.7639 L 107.904,-20 L 107.412,-19.3235 L 106.791,-18.7639 L 106.067,-18.3458
 L 105.272,-18.0874 L 104.44,-18 z
" stroke="black" fill="lightgray" stroke-width="0.5"/>
</svg>
