<?xml version="1.0" standalone="no"?>
<!DOCTYPE svg PUBLIC "-//W3C//DTD SVG 1.1//EN" "http://www.w3.org/Graphics/SVG/1.1/DTD/svg11.dtd">
<svg width="1006mm" height="80mm" viewBox="0 -80 1006 80" xmlns="http://www.w3.org/2000/svg" version="1.1">
<title>OpenSCAD Model</title>
<path d="
M 1006,-80 L 0,-80 L 0,-0 L 4.95,-0 L 4.95,-6 L 5.00572,-6.53017
 L 5.17046,-7.03717 L 5.437,-7.49884 L 5.79372,-7.895 L 6.22499,-8.20836 L 6.71201,-8.42519 L 7.23344,-8.53603
 L 7.76654,-8.53603 L 8.28798,-8.42519 L 8.77499,-8.20836 L 9.20627,-7.895 L 9.56299,-7.49884 L 9.82953,-7.03717
 L 9.99426,-6.53017 L 10.05,-6 L 10.05,-0 L 170.117,-0 L 170.117,-6 L 170.172,-6.53017
 L 170.337,-7.03717 L 170.604,-7.49884 L 170.96,-7.895 L 171.392,-8.20836 L 171.879,-8.42519 L 172.4,-8.53603
 L 172.933,-8.53603 L 173.455,-8.42519 L 173.942,-8.20836 L 174.373,-7.895 L 174.73,-7.49884 L 174.996,-7.03717
 L 175.161,-6.53017 L 175.217,-6 L 175.217,-0 L 335.283,-0 L 335.283,-6 L 335.339,-6.53017
 L 335.504,-7.03717 L 335.77,-7.49884 L 336.127,-7.895 L 336.558,-8.20836 L 337.045,-8.42519 L 337.567,-8.53603
 L 338.1,-8.53603 L 338.621,-8.42519 L 339.108,-8.20836 L 339.54,-7.895 L 339.896,-7.49884 L 340.163,-7.03717
 L 340.328,-6.53017 L 340.383,-6 L 340.383,-0 L 500.45,-0 L 500.45,-6 L 500.506,-6.53017
 L 500.67,-7.03717 L 500.937,-7.49884 L 501.294,-7.895 L 501.725,-8.20836 L 502.212,-8.42519 L 502.733,-8.53603
 L 503.267,-8.53603 L 503.788,-8.42519 L 504.275,-8.20836 L 504.706,-7.895 L 505.063,-7.49884 L 505.33,-7.03717
 L 505.494,-6.53017 L 505.55,-6 L 505.55,-0 L 665.617,-0 L 665.617,-6 L 665.672,-6.53017
 L 665.837,-7.03717 L 666.104,-7.49884 L 666.46,-7.895 L 666.892,-8.20836 L 667.379,-8.42519 L 667.9,-8.53603
 L 668.433,-8.53603 L 668.955,-8.42519 L 669.442,-8.20836 L 669.873,-7.895 L 670.23,-7.49884 L 670.496,-7.03717
 L 670.661,-6.53017 L 670.717,-6 L 670.717,-0 L 830.783,-0 L 830.783,-6 L 830.839,-6.53017
 L 831.004,-7.03717 L 831.27,-7.49884 L 831.627,-7.895 L 832.058,-8.20836 L 832.545,-8.42519 L 833.067,-8.53603
 L 833.6,-8.53603 L 834.121,-8.42519 L 834.608,-8.20836 L 835.04,-7.895 L 835.396,-7.49884 L 835.663,-7.03717
 L 835.828,-6.53017 L 835.883,-6 L 835.883,-0 L 995.95,-0 L 995.95,-6 L 996.006,-6.53017
 L 996.17,-7.03717 L 996.437,-7.49884 L 996.794,-7.895 L 997.225,-8.20836 L 997.712,-8.42519 L 998.233,-8.53603
 L 998.767,-8.53603 L 999.288,-8.42519 L 999.775,-8.20836 L 1000.21,-7.895 L 1000.56,-7.49884 L 1000.83,-7.03717
 L 1000.99,-6.53017 L 1001.05,-6 L 1001.05,-0 L 1006,-0 z
M 6.98573,-55.607 L 6.47708,-55.6875 L 5.97964,-55.8208 L 5.49887,-56.0054 L 5.04001,-56.2392 L 4.60811,-56.5196
 L 4.20789,-56.8437 L 3.84373,-57.2079 L 3.51964,-57.6081 L 3.23917,-58.04 L 3.00537,-58.4989 L 2.82082,-58.9796
 L 2.68752,-59.4771 L 2.60696,-59.9857 L 2.58,-60.5 L 2.60696,-61.0143 L 2.68752,-61.5229 L 2.82082,-62.0204
 L 3.00537,-62.5011 L 3.23917,-62.96 L 3.51964,-63.3919 L 3.84373,-63.7921 L 4.20789,-64.1563 L 4.60811,-64.4804
 L 4.95001,-64.7024 L 4.95001,-74 L 5.00574,-74.5302 L 5.17047,-75.0372 L 5.43701,-75.4988 L 5.79373,-75.895
 L 6.22501,-76.2084 L 6.71202,-76.4252 L 7.23346,-76.536 L 7.76654,-76.536 L 8.28798,-76.4252 L 8.77499,-76.2084
 L 9.20627,-75.895 L 9.56299,-75.4988 L 9.82953,-75.0372 L 9.99426,-74.5302 L 10.05,-74 L 10.05,-64.7024
 L 10.3919,-64.4804 L 10.7921,-64.1563 L 11.1563,-63.7921 L 11.4804,-63.3919 L 11.7608,-62.96 L 11.9946,-62.5011
 L 12.1792,-62.0204 L 12.3125,-61.5229 L 12.393,-61.0143 L 12.42,-60.5 L 12.393,-59.9857 L 12.3125,-59.4771
 L 12.1792,-58.9796 L 11.9946,-58.4989 L 11.7608,-58.04 L 11.4804,-57.6081 L 11.1563,-57.2079 L 10.7921,-56.8437
 L 10.3919,-56.5196 L 9.95999,-56.2392 L 9.50113,-56.0054 L 9.02036,-55.8208 L 8.52292,-55.6875 L 8.01427,-55.607
 L 7.5,-55.58 z
M 172.152,-55.607 L 171.644,-55.6875 L 171.146,-55.8208 L 170.666,-56.0054 L 170.207,-56.2392 L 169.775,-56.5196
 L 169.375,-56.8437 L 169.01,-57.2079 L 168.686,-57.6081 L 168.406,-58.04 L 168.172,-58.4989 L 167.987,-58.9796
 L 167.854,-59.4771 L 167.774,-59.9857 L 167.747,-60.5 L 167.774,-61.0143 L 167.854,-61.5229 L 167.987,-62.0204
 L 168.172,-62.5011 L 168.406,-62.96 L 168.686,-63.3919 L 169.01,-63.7921 L 169.375,-64.1563 L 169.775,-64.4804
 L 170.117,-64.7024 L 170.117,-74 L 170.172,-74.5302 L 170.337,-75.0372 L 170.604,-75.4988 L 170.96,-75.895
 L 171.392,-76.2084 L 171.879,-76.4252 L 172.4,-76.536 L 172.933,-76.536 L 173.455,-76.4252 L 173.942,-76.2084
 L 174.373,-75.895 L 174.73,-75.4988 L 174.996,-75.0372 L 175.161,-74.5302 L 175.217,-74 L 175.217,-64.7024
 L 175.559,-64.4804 L 175.959,-64.1563 L 176.323,-63.7921 L 176.647,-63.3919 L 176.927,-62.96 L 177.161,-62.5011
 L 177.346,-62.0204 L 177.479,-61.5229 L 177.56,-61.0143 L 177.587,-60.5 L 177.56,-59.9857 L 177.479,-59.4771
 L 177.346,-58.9796 L 177.161,-58.4989 L 176.927,-58.04 L 176.647,-57.6081 L 176.323,-57.2079 L 175.959,-56.8437
 L 175.559,-56.5196 L 175.127,-56.2392 L 174.668,-56.0054 L 174.187,-55.8208 L 173.69,-55.6875 L 173.181,-55.607
 L 172.667,-55.58 z
M 337.319,-55.607 L 336.81,-55.6875 L 336.313,-55.8208 L 335.832,-56.0054 L 335.373,-56.2392 L 334.941,-56.5196
 L 334.541,-56.8437 L 334.177,-57.2079 L 333.853,-57.6081 L 333.572,-58.04 L 333.339,-58.4989 L 333.154,-58.9796
 L 333.021,-59.4771 L 332.94,-59.9857 L 332.913,-60.5 L 332.94,-61.0143 L 333.021,-61.5229 L 333.154,-62.0204
 L 333.339,-62.5011 L 333.572,-62.96 L 333.853,-63.3919 L 334.177,-63.7921 L 334.541,-64.1563 L 334.941,-64.4804
 L 335.283,-64.7024 L 335.283,-74 L 335.339,-74.5302 L 335.504,-75.0372 L 335.77,-75.4988 L 336.127,-75.895
 L 336.558,-76.2084 L 337.045,-76.4252 L 337.567,-76.536 L 338.1,-76.536 L 338.621,-76.4252 L 339.108,-76.2084
 L 339.54,-75.895 L 339.896,-75.4988 L 340.163,-75.0372 L 340.328,-74.5302 L 340.383,-74 L 340.383,-64.7024
 L 340.725,-64.4804 L 341.125,-64.1563 L 341.49,-63.7921 L 341.814,-63.3919 L 342.094,-62.96 L 342.328,-62.5011
 L 342.513,-62.0204 L 342.646,-61.5229 L 342.726,-61.0143 L 342.753,-60.5 L 342.726,-59.9857 L 342.646,-59.4771
 L 342.513,-58.9796 L 342.328,-58.4989 L 342.094,-58.04 L 341.814,-57.6081 L 341.49,-57.2079 L 341.125,-56.8437
 L 340.725,-56.5196 L 340.293,-56.2392 L 339.834,-56.0054 L 339.354,-55.8208 L 338.856,-55.6875 L 338.348,-55.607
 L 337.833,-55.58 z
M 502.486,-55.607 L 501.977,-55.6875 L 501.48,-55.8208 L 500.999,-56.0054 L 500.54,-56.2392 L 500.108,-56.5196
 L 499.708,-56.8437 L 499.344,-57.2079 L 499.02,-57.6081 L 498.739,-58.04 L 498.505,-58.4989 L 498.321,-58.9796
 L 498.188,-59.4771 L 498.107,-59.9857 L 498.08,-60.5 L 498.107,-61.0143 L 498.188,-61.5229 L 498.321,-62.0204
 L 498.505,-62.5011 L 498.739,-62.96 L 499.02,-63.3919 L 499.344,-63.7921 L 499.708,-64.1563 L 500.108,-64.4804
 L 500.45,-64.7024 L 500.45,-74 L 500.506,-74.5302 L 500.67,-75.0372 L 500.937,-75.4988 L 501.294,-75.895
 L 501.725,-76.2084 L 502.212,-76.4252 L 502.733,-76.536 L 503.267,-76.536 L 503.788,-76.4252 L 504.275,-76.2084
 L 504.706,-75.895 L 505.063,-75.4988 L 505.33,-75.0372 L 505.494,-74.5302 L 505.55,-74 L 505.55,-64.7024
 L 505.892,-64.4804 L 506.292,-64.1563 L 506.656,-63.7921 L 506.98,-63.3919 L 507.261,-62.96 L 507.495,-62.5011
 L 507.679,-62.0204 L 507.812,-61.5229 L 507.893,-61.0143 L 507.92,-60.5 L 507.893,-59.9857 L 507.812,-59.4771
 L 507.679,-58.9796 L 507.495,-58.4989 L 507.261,-58.04 L 506.98,-57.6081 L 506.656,-57.2079 L 506.292,-56.8437
 L 505.892,-56.5196 L 505.46,-56.2392 L 505.001,-56.0054 L 504.52,-55.8208 L 504.023,-55.6875 L 503.514,-55.607
 L 503,-55.58 z
M 667.652,-55.607 L 667.144,-55.6875 L 666.646,-55.8208 L 666.166,-56.0054 L 665.707,-56.2392 L 665.275,-56.5196
 L 664.875,-56.8437 L 664.51,-57.2079 L 664.186,-57.6081 L 663.906,-58.04 L 663.672,-58.4989 L 663.487,-58.9796
 L 663.354,-59.4771 L 663.274,-59.9857 L 663.247,-60.5 L 663.274,-61.0143 L 663.354,-61.5229 L 663.487,-62.0204
 L 663.672,-62.5011 L 663.906,-62.96 L 664.186,-63.3919 L 664.51,-63.7921 L 664.875,-64.1563 L 665.275,-64.4804
 L 665.617,-64.7024 L 665.617,-74 L 665.672,-74.5302 L 665.837,-75.0372 L 666.104,-75.4988 L 666.46,-75.895
 L 666.892,-76.2084 L 667.379,-76.4252 L 667.9,-76.536 L 668.433,-76.536 L 668.955,-76.4252 L 669.442,-76.2084
 L 669.873,-75.895 L 670.23,-75.4988 L 670.496,-75.0372 L 670.661,-74.5302 L 670.717,-74 L 670.717,-64.7024
 L 671.059,-64.4804 L 671.459,-64.1563 L 671.823,-63.7921 L 672.147,-63.3919 L 672.427,-62.96 L 672.661,-62.5011
 L 672.846,-62.0204 L 672.979,-61.5229 L 673.06,-61.0143 L 673.087,-60.5 L 673.06,-59.9857 L 672.979,-59.4771
 L 672.846,-58.9796 L 672.661,-58.4989 L 672.427,-58.04 L 672.147,-57.6081 L 671.823,-57.2079 L 671.459,-56.8437
 L 671.059,-56.5196 L 670.627,-56.2392 L 670.168,-56.0054 L 669.687,-55.8208 L 669.19,-55.6875 L 668.681,-55.607
 L 668.167,-55.58 z
M 832.819,-55.607 L 832.31,-55.6875 L 831.813,-55.8208 L 831.332,-56.0054 L 830.873,-56.2392 L 830.441,-56.5196
 L 830.041,-56.8437 L 829.677,-57.2079 L 829.353,-57.6081 L 829.072,-58.04 L 828.839,-58.4989 L 828.654,-58.9796
 L 828.521,-59.4771 L 828.44,-59.9857 L 828.413,-60.5 L 828.44,-61.0143 L 828.521,-61.5229 L 828.654,-62.0204
 L 828.839,-62.5011 L 829.072,-62.96 L 829.353,-63.3919 L 829.677,-63.7921 L 830.041,-64.1563 L 830.441,-64.4804
 L 830.783,-64.7024 L 830.783,-74 L 830.839,-74.5302 L 831.004,-75.0372 L 831.27,-75.4988 L 831.627,-75.895
 L 832.058,-76.2084 L 832.545,-76.4252 L 833.067,-76.536 L 833.6,-76.536 L 834.121,-76.4252 L 834.608,-76.2084
 L 835.04,-75.895 L 835.396,-75.4988 L 835.663,-75.0372 L 835.828,-74.5302 L 835.883,-74 L 835.883,-64.7024
 L 836.225,-64.4804 L 836.625,-64.1563 L 836.99,-63.7921 L 837.314,-63.3919 L 837.594,-62.96 L 837.828,-62.5011
 L 838.013,-62.0204 L 838.146,-61.5229 L 838.226,-61.0143 L 838.253,-60.5 L 838.226,-59.9857 L 838.146,-59.4771
 L 838.013,-58.9796 L 837.828,-58.4989 L 837.594,-58.04 L 837.314,-57.6081 L 836.99,-57.2079 L 836.625,-56.8437
 L 836.225,-56.5196 L 835.793,-56.2392 L 835.334,-56.0054 L 834.854,-55.8208 L 834.356,-55.6875 L 833.848,-55.607
 L 833.333,-55.58 z
M 997.986,-55.607 L 997.477,-55.6875 L 996.98,-55.8208 L 996.499,-56.0054 L 996.04,-56.2392 L 995.608,-56.5196
 L 995.208,-56.8437 L 994.844,-57.2079 L 994.52,-57.6081 L 994.239,-58.04 L 994.005,-58.4989 L 993.821,-58.9796
 L 993.688,-59.4771 L 993.607,-59.9857 L 993.58,-60.5 L 993.607,-61.0143 L 993.688,-61.5229 L 993.821,-62.0204
 L 994.005,-62.5011 L 994.239,-62.96 L 994.52,-63.3919 L 994.844,-63.7921 L 995.208,-64.1563 L 995.608,-64.4804
 L 995.95,-64.7024 L 995.95,-74 L 996.006,-74.5302 L 996.17,-75.0372 L 996.437,-75.4988 L 996.794,-75.895
 L 997.225,-76.2084 L 997.712,-76.4252 L 998.233,-76.536 L 998.767,-76.536 L 999.288,-76.4252 L 999.775,-76.2084
 L 1000.21,-75.895 L 1000.56,-75.4988 L 1000.83,-75.0372 L 1000.99,-74.5302 L 1001.05,-74 L 1001.05,-64.7024
 L 1001.39,-64.4804 L 1001.79,-64.1563 L 1002.16,-63.7921 L 1002.48,-63.3919 L 1002.76,-62.96 L 1002.99,-62.5011
 L 1003.18,-62.0204 L 1003.31,-61.5229 L 1003.39,-61.0143 L 1003.42,-60.5 L 1003.39,-59.9857 L 1003.31,-59.4771
 L 1003.18,-58.9796 L 1002.99,-58.4989 L 1002.76,-58.04 L 1002.48,-57.6081 L 1002.16,-57.2079 L 1001.79,-56.8437
 L 1001.39,-56.5196 L 1000.96,-56.2392 L 1000.5,-56.0054 L 1000.02,-55.8208 L 999.523,-55.6875 L 999.014,-55.607
 L 998.5,-55.58 z
M 845.391,-21.5177 L 844.604,-21.7985 L 843.891,-22.237 L 843.286,-22.8139 L 842.814,-23.5041 L 842.496,-24.2773
 L 842.333,-25.4052 L 842.333,-58 L 842.421,-58.8316 L 842.679,-59.627 L 843.097,-60.3511 L 843.657,-60.9726
 L 844.333,-61.4641 L 845.097,-61.8042 L 846.333,-62 L 925.504,-62 L 926.335,-61.9126 L 927.131,-61.6542
 L 927.855,-61.2361 L 928.476,-60.6765 L 928.968,-60 L 929.308,-59.2361 L 929.482,-58.4181 L 929.482,-57.5819
 L 929.308,-56.7639 L 928.968,-56 L 928.476,-55.3235 L 927.855,-54.7639 L 927.026,-54.3012 L 847.856,-21.7064
 L 847.054,-21.4706 L 846.22,-21.4068 z
M 324.113,-21.4706 L 323.311,-21.7064 L 244.14,-54.3012 L 243.312,-54.7639 L 242.69,-55.3235 L 242.199,-56
 L 241.859,-56.7639 L 241.685,-57.5819 L 241.685,-58.4181 L 241.859,-59.2361 L 242.199,-60 L 242.69,-60.6765
 L 243.312,-61.2361 L 244.036,-61.6542 L 244.831,-61.9126 L 245.663,-62 L 324.833,-62 L 326.069,-61.8042
 L 326.833,-61.4641 L 327.51,-60.9726 L 328.069,-60.3511 L 328.487,-59.627 L 328.746,-58.8316 L 328.833,-58
 L 328.833,-25.4052 L 328.671,-24.2773 L 328.353,-23.5041 L 327.88,-22.8139 L 327.275,-22.237 L 326.563,-21.7985
 L 325.775,-21.5177 L 324.947,-21.4068 z
M 158.946,-21.4706 L 158.144,-21.7064 L 78.9736,-54.3012 L 78.1452,-54.7639 L 77.5238,-55.3235 L 77.0323,-56
 L 76.6922,-56.7639 L 76.5183,-57.5819 L 76.5183,-58.4181 L 76.6922,-59.2361 L 77.0323,-60 L 77.5238,-60.6765
 L 78.1452,-61.2361 L 78.8694,-61.6542 L 79.6647,-61.9126 L 80.4964,-62 L 159.667,-62 L 160.903,-61.8042
 L 161.667,-61.4641 L 162.343,-60.9726 L 162.903,-60.3511 L 163.321,-59.627 L 163.579,-58.8316 L 163.667,-58
 L 163.667,-25.4052 L 163.504,-24.2773 L 163.186,-23.5041 L 162.714,-22.8139 L 162.108,-22.237 L 161.396,-21.7985
 L 160.609,-21.5177 L 159.78,-21.4068 z
M 489.279,-21.4706 L 488.477,-21.7064 L 409.307,-54.3012 L 408.479,-54.7639 L 407.857,-55.3235 L 407.366,-56
 L 407.025,-56.7639 L 406.852,-57.5819 L 406.852,-58.4181 L 407.025,-59.2361 L 407.366,-60 L 407.857,-60.6765
 L 408.479,-61.2361 L 409.203,-61.6542 L 409.998,-61.9126 L 410.83,-62 L 490,-62 L 491.236,-61.8042
 L 492,-61.4641 L 492.677,-60.9726 L 493.236,-60.3511 L 493.654,-59.627 L 493.913,-58.8316 L 494,-58
 L 494,-25.4052 L 493.838,-24.2773 L 493.519,-23.5041 L 493.047,-22.8139 L 492.442,-22.237 L 491.73,-21.7985
 L 490.942,-21.5177 L 490.113,-21.4068 z
M 515.058,-21.5177 L 514.27,-21.7985 L 513.558,-22.237 L 512.953,-22.8139 L 512.481,-23.5041 L 512.162,-24.2773
 L 512,-25.4052 L 512,-58 L 512.087,-58.8316 L 512.346,-59.627 L 512.764,-60.3511 L 513.323,-60.9726
 L 514,-61.4641 L 514.764,-61.8042 L 516,-62 L 595.17,-62 L 596.002,-61.9126 L 596.797,-61.6542
 L 597.521,-61.2361 L 598.143,-60.6765 L 598.634,-60 L 598.975,-59.2361 L 599.148,-58.4181 L 599.148,-57.5819
 L 598.975,-56.7639 L 598.634,-56 L 598.143,-55.3235 L 597.521,-54.7639 L 596.693,-54.3012 L 517.523,-21.7064
 L 516.721,-21.4706 L 515.887,-21.4068 z
M 680.225,-21.5177 L 679.437,-21.7985 L 678.725,-22.237 L 678.119,-22.8139 L 677.647,-23.5041 L 677.329,-24.2773
 L 677.167,-25.4052 L 677.167,-58 L 677.254,-58.8316 L 677.512,-59.627 L 677.931,-60.3511 L 678.49,-60.9726
 L 679.167,-61.4641 L 679.931,-61.8042 L 681.167,-62 L 760.337,-62 L 761.169,-61.9126 L 761.964,-61.6542
 L 762.688,-61.2361 L 763.31,-60.6765 L 763.801,-60 L 764.141,-59.2361 L 764.315,-58.4181 L 764.315,-57.5819
 L 764.141,-56.7639 L 763.801,-56 L 763.31,-55.3235 L 762.688,-54.7639 L 761.86,-54.3012 L 682.689,-21.7064
 L 681.887,-21.4706 L 681.053,-21.4068 z
M 185.667,-18 L 184.431,-18.1958 L 183.667,-18.5359 L 182.99,-19.0274 L 182.431,-19.6489 L 182.012,-20.373
 L 181.754,-21.1684 L 181.667,-22 L 181.667,-54.5948 L 181.829,-55.7227 L 182.147,-56.4959 L 182.619,-57.1861
 L 183.225,-57.763 L 183.937,-58.2015 L 184.725,-58.4823 L 185.553,-58.5932 L 186.387,-58.5294 L 187.189,-58.2936
 L 266.36,-25.6988 L 267.188,-25.2361 L 267.809,-24.6765 L 268.301,-24 L 268.641,-23.2361 L 268.815,-22.4181
 L 268.815,-21.5819 L 268.641,-20.7639 L 268.301,-20 L 267.809,-19.3235 L 267.188,-18.7639 L 266.464,-18.3458
 L 265.669,-18.0874 L 264.837,-18 z
M 350.833,-18 L 349.597,-18.1958 L 348.833,-18.5359 L 348.157,-19.0274 L 347.597,-19.6489 L 347.179,-20.373
 L 346.921,-21.1684 L 346.833,-22 L 346.833,-54.5948 L 346.996,-55.7227 L 347.314,-56.4959 L 347.786,-57.1861
 L 348.391,-57.763 L 349.104,-58.2015 L 349.891,-58.4823 L 350.72,-58.5932 L 351.554,-58.5294 L 352.356,-58.2936
 L 431.526,-25.6988 L 432.355,-25.2361 L 432.976,-24.6765 L 433.468,-24 L 433.808,-23.2361 L 433.982,-22.4181
 L 433.982,-21.5819 L 433.808,-20.7639 L 433.468,-20 L 432.976,-19.3235 L 432.355,-18.7639 L 431.631,-18.3458
 L 430.835,-18.0874 L 430.004,-18 z
M 575.996,-18 L 575.165,-18.0874 L 574.369,-18.3458 L 573.645,-18.7639 L 573.024,-19.3235 L 572.532,-20
 L 572.192,-20.7639 L 572.018,-21.5819 L 572.018,-22.4181 L 572.192,-23.2361 L 572.532,-24 L 573.024,-24.6765
 L 573.645,-25.2361 L 574.474,-25.6988 L 653.644,-58.2936 L 654.446,-58.5294 L 655.28,-58.5932 L 656.109,-58.4823
 L 656.896,-58.2015 L 657.608,-57.763 L 658.214,-57.1861 L 658.686,-56.4959 L 659.004,-55.7227 L 659.167,-54.5948
 L 659.167,-22 L 659.079,-21.1684 L 658.821,-20.373 L 658.403,-19.6489 L 657.843,-19.0274 L 657.167,-18.5359
 L 656.403,-18.1958 L 655.167,-18 z
M 741.163,-18 L 740.331,-18.0874 L 739.536,-18.3458 L 738.812,-18.7639 L 738.19,-19.3235 L 737.699,-20
 L 737.359,-20.7639 L 737.185,-21.5819 L 737.185,-22.4181 L 737.359,-23.2361 L 737.699,-24 L 738.19,-24.6765
 L 738.812,-25.2361 L 739.64,-25.6988 L 818.811,-58.2936 L 819.613,-58.5294 L 820.447,-58.5932 L 821.275,-58.4823
 L 822.063,-58.2015 L 822.775,-57.763 L 823.381,-57.1861 L 823.853,-56.4959 L 824.171,-55.7227 L 824.333,-54.5948
 L 824.333,-22 L 824.246,-21.1684 L 823.988,-20.373 L 823.569,-19.6489 L 823.01,-19.0274 L 822.333,-18.5359
 L 821.569,-18.1958 L 820.333,-18 z
M 906.33,-18 L 905.498,-18.0874 L 904.703,-18.3458 L 903.979,-18.7639 L 903.357,-19.3235 L 902.866,-20
 L 902.525,-20.7639 L 902.352,-21.5819 L 902.352,-22.4181 L 902.525,-23.2361 L 902.866,-24 L 903.357,-24.6765
 L 903.979,-25.2361 L 904.807,-25.6988 L 982.477,-57.676 L 983.279,-57.9118 L 984.113,-57.9756 L 984.942,-57.8647
 L 985.73,-57.5839 L 986.442,-57.1454 L 987.047,-56.5685 L 987.519,-55.8783 L 987.838,-55.1051 L 988,-53.9772
 L 988,-22 L 987.913,-21.1684 L 987.654,-20.373 L 987.236,-19.6489 L 986.677,-19.0274 L 986,-18.5359
 L 985.236,-18.1958 L 984,-18 z
M 22,-18 L 20.7639,-18.1958 L 20,-18.5359 L 19.3235,-19.0274 L 18.7639,-19.6489 L 18.3458,-20.373
 L 18.0874,-21.1684 L 18,-22 L 18,-53.9772 L 18.1623,-55.1051 L 18.4807,-55.8783 L 18.9528,-56.5685
 L 19.5582,-57.1454 L 20.2702,-57.5839 L 21.0579,-57.8647 L 21.8867,-57.9756 L 22.7205,-57.9118 L 23.5228,-57.676
 L 101.193,-25.6988 L 102.021,-25.2361 L 102.643,-24.6765 L 103.134,-24 L 103.474,-23.2361 L 103.648,-22.4181
 L 103.648,-21.5819 L 103.474,-20.7639 L 103.134,-20 L 102.643,-19.3235 L 102.021,-18.7639 L 101.297,-18.3458
 L 100.502,-18.0874 L 99.6703,-18 z
" stroke="black" fill="lightgray" stroke-width="0.5"/>
</svg>
