<?xml version="1.0" standalone="no"?>
<!DOCTYPE svg PUBLIC "-//W3C//DTD SVG 1.1//EN" "http://www.w3.org/Graphics/SVG/1.1/DTD/svg11.dtd">
<svg width="1076mm" height="80mm" viewBox="0 -80 1076 80" xmlns="http://www.w3.org/2000/svg" version="1.1">
<title>OpenSCAD Model</title>
<path d="
M 1076,-80 L 0,-80 L 0,-0 L 4.95,-0 L 4.95,-6 L 5.00572,-6.53017
 L 5.17046,-7.03717 L 5.437,-7.49884 L 5.79372,-7.895 L 6.22499,-8.20836 L 6.71201,-8.42519 L 7.23344,-8.53603
 L 7.76654,-8.53603 L 8.28798,-8.42519 L 8.77499,-8.20836 L 9.20627,-7.895 L 9.56299,-7.49884 L 9.82953,-7.03717
 L 9.99426,-6.53017 L 10.05,-6 L 10.05,-0 L 181.783,-0 L 181.783,-6 L 181.839,-6.53017
 L 182.004,-7.03717 L 182.27,-7.49884 L 182.627,-7.895 L 183.058,-8.20836 L 183.545,-8.42519 L 184.067,-8.53603
 L 184.6,-8.53603 L 185.121,-8.42519 L 185.608,-8.20836 L 186.04,-7.895 L 186.396,-7.49884 L 186.663,-7.03717
 L 186.828,-6.53017 L 186.883,-6 L 186.883,-0 L 358.617,-0 L 358.617,-6 L 358.672,-6.53017
 L 358.837,-7.03717 L 359.104,-7.49884 L 359.46,-7.895 L 359.892,-8.20836 L 360.379,-8.42519 L 360.9,-8.53603
 L 361.433,-8.53603 L 361.955,-8.42519 L 362.442,-8.20836 L 362.873,-7.895 L 363.23,-7.49884 L 363.496,-7.03717
 L 363.661,-6.53017 L 363.717,-6 L 363.717,-0 L 535.45,-0 L 535.45,-6 L 535.506,-6.53017
 L 535.67,-7.03717 L 535.937,-7.49884 L 536.294,-7.895 L 536.725,-8.20836 L 537.212,-8.42519 L 537.733,-8.53603
 L 538.267,-8.53603 L 538.788,-8.42519 L 539.275,-8.20836 L 539.706,-7.895 L 540.063,-7.49884 L 540.33,-7.03717
 L 540.494,-6.53017 L 540.55,-6 L 540.55,-0 L 712.283,-0 L 712.283,-6 L 712.339,-6.53017
 L 712.504,-7.03717 L 712.77,-7.49884 L 713.127,-7.895 L 713.558,-8.20836 L 714.045,-8.42519 L 714.567,-8.53603
 L 715.1,-8.53603 L 715.621,-8.42519 L 716.108,-8.20836 L 716.54,-7.895 L 716.896,-7.49884 L 717.163,-7.03717
 L 717.328,-6.53017 L 717.383,-6 L 717.383,-0 L 889.117,-0 L 889.117,-6 L 889.172,-6.53017
 L 889.337,-7.03717 L 889.604,-7.49884 L 889.96,-7.895 L 890.392,-8.20836 L 890.879,-8.42519 L 891.4,-8.53603
 L 891.933,-8.53603 L 892.455,-8.42519 L 892.942,-8.20836 L 893.373,-7.895 L 893.73,-7.49884 L 893.996,-7.03717
 L 894.161,-6.53017 L 894.217,-6 L 894.217,-0 L 1065.95,-0 L 1065.95,-6 L 1066.01,-6.53017
 L 1066.17,-7.03717 L 1066.44,-7.49884 L 1066.79,-7.895 L 1067.22,-8.20836 L 1067.71,-8.42519 L 1068.23,-8.53603
 L 1068.77,-8.53603 L 1069.29,-8.42519 L 1069.77,-8.20836 L 1070.21,-7.895 L 1070.56,-7.49884 L 1070.83,-7.03717
 L 1070.99,-6.53017 L 1071.05,-6 L 1071.05,-0 L 1076,-0 z
M 6.98573,-55.607 L 6.47708,-55.6875 L 5.97964,-55.8208 L 5.49887,-56.0054 L 5.04001,-56.2392 L 4.60811,-56.5196
 L 4.20789,-56.8437 L 3.84373,-57.2079 L 3.51964,-57.6081 L 3.23917,-58.04 L 3.00537,-58.4989 L 2.82082,-58.9796
 L 2.68752,-59.4771 L 2.60696,-59.9857 L 2.58,-60.5 L 2.60696,-61.0143 L 2.68752,-61.5229 L 2.82082,-62.0204
 L 3.00537,-62.5011 L 3.23917,-62.96 L 3.51964,-63.3919 L 3.84373,-63.7921 L 4.20789,-64.1563 L 4.60811,-64.4804
 L 4.95001,-64.7024 L 4.95001,-74 L 5.00574,-74.5302 L 5.17047,-75.0372 L 5.43701,-75.4988 L 5.79373,-75.895
 L 6.22501,-76.2084 L 6.71202,-76.4252 L 7.23346,-76.536 L 7.76654,-76.536 L 8.28798,-76.4252 L 8.77499,-76.2084
 L 9.20627,-75.895 L 9.56299,-75.4988 L 9.82953,-75.0372 L 9.99426,-74.5302 L 10.05,-74 L 10.05,-64.7024
 L 10.3919,-64.4804 L 10.7921,-64.1563 L 11.1563,-63.7921 L 11.4804,-63.3919 L 11.7608,-62.96 L 11.9946,-62.5011
 L 12.1792,-62.0204 L 12.3125,-61.5229 L 12.393,-61.0143 L 12.42,-60.5 L 12.393,-59.9857 L 12.3125,-59.4771
 L 12.1792,-58.9796 L 11.9946,-58.4989 L 11.7608,-58.04 L 11.4804,-57.6081 L 11.1563,-57.2079 L 10.7921,-56.8437
 L 10.3919,-56.5196 L 9.95999,-56.2392 L 9.50113,-56.0054 L 9.02036,-55.8208 L 8.52292,-55.6875 L 8.01427,-55.607
 L 7.5,-55.58 z
M 183.819,-55.607 L 183.31,-55.6875 L 182.813,-55.8208 L 182.332,-56.0054 L 181.873,-56.2392 L 181.441,-56.5196
 L 181.041,-56.8437 L 180.677,-57.2079 L 180.353,-57.6081 L 180.072,-58.04 L 179.839,-58.4989 L 179.654,-58.9796
 L 179.521,-59.4771 L 179.44,-59.9857 L 179.413,-60.5 L 179.44,-61.0143 L 179.521,-61.5229 L 179.654,-62.0204
 L 179.839,-62.5011 L 180.072,-62.96 L 180.353,-63.3919 L 180.677,-63.7921 L 181.041,-64.1563 L 181.441,-64.4804
 L 181.783,-64.7024 L 181.783,-74 L 181.839,-74.5302 L 182.004,-75.0372 L 182.27,-75.4988 L 182.627,-75.895
 L 183.058,-76.2084 L 183.545,-76.4252 L 184.067,-76.536 L 184.6,-76.536 L 185.121,-76.4252 L 185.608,-76.2084
 L 186.04,-75.895 L 186.396,-75.4988 L 186.663,-75.0372 L 186.828,-74.5302 L 186.883,-74 L 186.883,-64.7024
 L 187.225,-64.4804 L 187.625,-64.1563 L 187.99,-63.7921 L 188.314,-63.3919 L 188.594,-62.96 L 188.828,-62.5011
 L 189.013,-62.0204 L 189.146,-61.5229 L 189.226,-61.0143 L 189.253,-60.5 L 189.226,-59.9857 L 189.146,-59.4771
 L 189.013,-58.9796 L 188.828,-58.4989 L 188.594,-58.04 L 188.314,-57.6081 L 187.99,-57.2079 L 187.625,-56.8437
 L 187.225,-56.5196 L 186.793,-56.2392 L 186.334,-56.0054 L 185.854,-55.8208 L 185.356,-55.6875 L 184.848,-55.607
 L 184.333,-55.58 z
M 360.652,-55.607 L 360.144,-55.6875 L 359.646,-55.8208 L 359.166,-56.0054 L 358.707,-56.2392 L 358.275,-56.5196
 L 357.875,-56.8437 L 357.51,-57.2079 L 357.186,-57.6081 L 356.906,-58.04 L 356.672,-58.4989 L 356.487,-58.9796
 L 356.354,-59.4771 L 356.274,-59.9857 L 356.247,-60.5 L 356.274,-61.0143 L 356.354,-61.5229 L 356.487,-62.0204
 L 356.672,-62.5011 L 356.906,-62.96 L 357.186,-63.3919 L 357.51,-63.7921 L 357.875,-64.1563 L 358.275,-64.4804
 L 358.617,-64.7024 L 358.617,-74 L 358.672,-74.5302 L 358.837,-75.0372 L 359.104,-75.4988 L 359.46,-75.895
 L 359.892,-76.2084 L 360.379,-76.4252 L 360.9,-76.536 L 361.433,-76.536 L 361.955,-76.4252 L 362.442,-76.2084
 L 362.873,-75.895 L 363.23,-75.4988 L 363.496,-75.0372 L 363.661,-74.5302 L 363.717,-74 L 363.717,-64.7024
 L 364.059,-64.4804 L 364.459,-64.1563 L 364.823,-63.7921 L 365.147,-63.3919 L 365.427,-62.96 L 365.661,-62.5011
 L 365.846,-62.0204 L 365.979,-61.5229 L 366.06,-61.0143 L 366.087,-60.5 L 366.06,-59.9857 L 365.979,-59.4771
 L 365.846,-58.9796 L 365.661,-58.4989 L 365.427,-58.04 L 365.147,-57.6081 L 364.823,-57.2079 L 364.459,-56.8437
 L 364.059,-56.5196 L 363.627,-56.2392 L 363.168,-56.0054 L 362.687,-55.8208 L 362.19,-55.6875 L 361.681,-55.607
 L 361.167,-55.58 z
M 537.486,-55.607 L 536.977,-55.6875 L 536.48,-55.8208 L 535.999,-56.0054 L 535.54,-56.2392 L 535.108,-56.5196
 L 534.708,-56.8437 L 534.344,-57.2079 L 534.02,-57.6081 L 533.739,-58.04 L 533.505,-58.4989 L 533.321,-58.9796
 L 533.188,-59.4771 L 533.107,-59.9857 L 533.08,-60.5 L 533.107,-61.0143 L 533.188,-61.5229 L 533.321,-62.0204
 L 533.505,-62.5011 L 533.739,-62.96 L 534.02,-63.3919 L 534.344,-63.7921 L 534.708,-64.1563 L 535.108,-64.4804
 L 535.45,-64.7024 L 535.45,-74 L 535.506,-74.5302 L 535.67,-75.0372 L 535.937,-75.4988 L 536.294,-75.895
 L 536.725,-76.2084 L 537.212,-76.4252 L 537.733,-76.536 L 538.267,-76.536 L 538.788,-76.4252 L 539.275,-76.2084
 L 539.706,-75.895 L 540.063,-75.4988 L 540.33,-75.0372 L 540.494,-74.5302 L 540.55,-74 L 540.55,-64.7024
 L 540.892,-64.4804 L 541.292,-64.1563 L 541.656,-63.7921 L 541.98,-63.3919 L 542.261,-62.96 L 542.495,-62.5011
 L 542.679,-62.0204 L 542.812,-61.5229 L 542.893,-61.0143 L 542.92,-60.5 L 542.893,-59.9857 L 542.812,-59.4771
 L 542.679,-58.9796 L 542.495,-58.4989 L 542.261,-58.04 L 541.98,-57.6081 L 541.656,-57.2079 L 541.292,-56.8437
 L 540.892,-56.5196 L 540.46,-56.2392 L 540.001,-56.0054 L 539.52,-55.8208 L 539.023,-55.6875 L 538.514,-55.607
 L 538,-55.58 z
M 714.319,-55.607 L 713.81,-55.6875 L 713.313,-55.8208 L 712.832,-56.0054 L 712.373,-56.2392 L 711.941,-56.5196
 L 711.541,-56.8437 L 711.177,-57.2079 L 710.853,-57.6081 L 710.572,-58.04 L 710.339,-58.4989 L 710.154,-58.9796
 L 710.021,-59.4771 L 709.94,-59.9857 L 709.913,-60.5 L 709.94,-61.0143 L 710.021,-61.5229 L 710.154,-62.0204
 L 710.339,-62.5011 L 710.572,-62.96 L 710.853,-63.3919 L 711.177,-63.7921 L 711.541,-64.1563 L 711.941,-64.4804
 L 712.283,-64.7024 L 712.283,-74 L 712.339,-74.5302 L 712.504,-75.0372 L 712.77,-75.4988 L 713.127,-75.895
 L 713.558,-76.2084 L 714.045,-76.4252 L 714.567,-76.536 L 715.1,-76.536 L 715.621,-76.4252 L 716.108,-76.2084
 L 716.54,-75.895 L 716.896,-75.4988 L 717.163,-75.0372 L 717.328,-74.5302 L 717.383,-74 L 717.383,-64.7024
 L 717.725,-64.4804 L 718.125,-64.1563 L 718.49,-63.7921 L 718.814,-63.3919 L 719.094,-62.96 L 719.328,-62.5011
 L 719.513,-62.0204 L 719.646,-61.5229 L 719.726,-61.0143 L 719.753,-60.5 L 719.726,-59.9857 L 719.646,-59.4771
 L 719.513,-58.9796 L 719.328,-58.4989 L 719.094,-58.04 L 718.814,-57.6081 L 718.49,-57.2079 L 718.125,-56.8437
 L 717.725,-56.5196 L 717.293,-56.2392 L 716.834,-56.0054 L 716.354,-55.8208 L 715.856,-55.6875 L 715.348,-55.607
 L 714.833,-55.58 z
M 891.152,-55.607 L 890.644,-55.6875 L 890.146,-55.8208 L 889.666,-56.0054 L 889.207,-56.2392 L 888.775,-56.5196
 L 888.375,-56.8437 L 888.01,-57.2079 L 887.686,-57.6081 L 887.406,-58.04 L 887.172,-58.4989 L 886.987,-58.9796
 L 886.854,-59.4771 L 886.774,-59.9857 L 886.747,-60.5 L 886.774,-61.0143 L 886.854,-61.5229 L 886.987,-62.0204
 L 887.172,-62.5011 L 887.406,-62.96 L 887.686,-63.3919 L 888.01,-63.7921 L 888.375,-64.1563 L 888.775,-64.4804
 L 889.117,-64.7024 L 889.117,-74 L 889.172,-74.5302 L 889.337,-75.0372 L 889.604,-75.4988 L 889.96,-75.895
 L 890.392,-76.2084 L 890.879,-76.4252 L 891.4,-76.536 L 891.933,-76.536 L 892.455,-76.4252 L 892.942,-76.2084
 L 893.373,-75.895 L 893.73,-75.4988 L 893.996,-75.0372 L 894.161,-74.5302 L 894.217,-74 L 894.217,-64.7024
 L 894.559,-64.4804 L 894.959,-64.1563 L 895.323,-63.7921 L 895.647,-63.3919 L 895.927,-62.96 L 896.161,-62.5011
 L 896.346,-62.0204 L 896.479,-61.5229 L 896.56,-61.0143 L 896.587,-60.5 L 896.56,-59.9857 L 896.479,-59.4771
 L 896.346,-58.9796 L 896.161,-58.4989 L 895.927,-58.04 L 895.647,-57.6081 L 895.323,-57.2079 L 894.959,-56.8437
 L 894.559,-56.5196 L 894.127,-56.2392 L 893.668,-56.0054 L 893.187,-55.8208 L 892.69,-55.6875 L 892.181,-55.607
 L 891.667,-55.58 z
M 1067.99,-55.607 L 1067.48,-55.6875 L 1066.98,-55.8208 L 1066.5,-56.0054 L 1066.04,-56.2392 L 1065.61,-56.5196
 L 1065.21,-56.8437 L 1064.84,-57.2079 L 1064.52,-57.6081 L 1064.24,-58.04 L 1064.01,-58.4989 L 1063.82,-58.9796
 L 1063.69,-59.4771 L 1063.61,-59.9857 L 1063.58,-60.5 L 1063.61,-61.0143 L 1063.69,-61.5229 L 1063.82,-62.0204
 L 1064.01,-62.5011 L 1064.24,-62.96 L 1064.52,-63.3919 L 1064.84,-63.7921 L 1065.21,-64.1563 L 1065.61,-64.4804
 L 1065.95,-64.7024 L 1065.95,-74 L 1066.01,-74.5302 L 1066.17,-75.0372 L 1066.44,-75.4988 L 1066.79,-75.895
 L 1067.23,-76.2084 L 1067.71,-76.4252 L 1068.23,-76.536 L 1068.77,-76.536 L 1069.29,-76.4252 L 1069.77,-76.2084
 L 1070.21,-75.895 L 1070.56,-75.4988 L 1070.83,-75.0372 L 1070.99,-74.5302 L 1071.05,-74 L 1071.05,-64.7024
 L 1071.39,-64.4804 L 1071.79,-64.1563 L 1072.16,-63.7921 L 1072.48,-63.3919 L 1072.76,-62.96 L 1072.99,-62.5011
 L 1073.18,-62.0204 L 1073.31,-61.5229 L 1073.39,-61.0143 L 1073.42,-60.5 L 1073.39,-59.9857 L 1073.31,-59.4771
 L 1073.18,-58.9796 L 1072.99,-58.4989 L 1072.76,-58.04 L 1072.48,-57.6081 L 1072.16,-57.2079 L 1071.79,-56.8437
 L 1071.39,-56.5196 L 1070.96,-56.2392 L 1070.5,-56.0054 L 1070.02,-55.8208 L 1069.52,-55.6875 L 1069.01,-55.607
 L 1068.5,-55.58 z
M 903.634,-21.0441 L 902.853,-21.3433 L 902.151,-21.7984 L 901.56,-22.3893 L 901.104,-23.0904 L 900.804,-23.8709
 L 900.667,-24.9084 L 900.667,-58 L 900.754,-58.8316 L 901.012,-59.627 L 901.431,-60.3511 L 901.99,-60.9726
 L 902.667,-61.4641 L 903.431,-61.8042 L 904.667,-62 L 990.721,-62 L 991.553,-61.9126 L 992.348,-61.6542
 L 993.072,-61.2361 L 993.694,-60.6765 L 994.185,-60 L 994.525,-59.2361 L 994.699,-58.4181 L 994.699,-57.5819
 L 994.525,-56.7639 L 994.185,-56 L 993.694,-55.3235 L 993.072,-54.7639 L 992.157,-54.2665 L 906.102,-21.175
 L 905.295,-20.9581 L 904.46,-20.9138 z
M 347.539,-20.9581 L 346.731,-21.175 L 260.677,-54.2665 L 259.761,-54.7639 L 259.14,-55.3235 L 258.648,-56
 L 258.308,-56.7639 L 258.134,-57.5819 L 258.134,-58.4181 L 258.308,-59.2361 L 258.648,-60 L 259.14,-60.6765
 L 259.761,-61.2361 L 260.485,-61.6542 L 261.281,-61.9126 L 262.112,-62 L 348.167,-62 L 349.403,-61.8042
 L 350.167,-61.4641 L 350.843,-60.9726 L 351.403,-60.3511 L 351.821,-59.627 L 352.079,-58.8316 L 352.167,-58
 L 352.167,-24.9084 L 352.03,-23.8709 L 351.73,-23.0904 L 351.274,-22.3893 L 350.682,-21.7984 L 349.981,-21.3433
 L 349.2,-21.0441 L 348.374,-20.9138 z
M 170.705,-20.9581 L 169.898,-21.175 L 83.8434,-54.2665 L 82.9279,-54.7639 L 82.3065,-55.3235 L 81.815,-56
 L 81.4748,-56.7639 L 81.301,-57.5819 L 81.301,-58.4181 L 81.4748,-59.2361 L 81.815,-60 L 82.3065,-60.6765
 L 82.9279,-61.2361 L 83.6521,-61.6542 L 84.4474,-61.9126 L 85.2791,-62 L 171.333,-62 L 172.569,-61.8042
 L 173.333,-61.4641 L 174.01,-60.9726 L 174.569,-60.3511 L 174.988,-59.627 L 175.246,-58.8316 L 175.333,-58
 L 175.333,-24.9084 L 175.196,-23.8709 L 174.896,-23.0904 L 174.44,-22.3893 L 173.849,-21.7984 L 173.147,-21.3433
 L 172.366,-21.0441 L 171.54,-20.9138 z
M 524.372,-20.9581 L 523.564,-21.175 L 437.51,-54.2665 L 436.595,-54.7639 L 435.973,-55.3235 L 435.482,-56
 L 435.141,-56.7639 L 434.968,-57.5819 L 434.968,-58.4181 L 435.141,-59.2361 L 435.482,-60 L 435.973,-60.6765
 L 436.595,-61.2361 L 437.319,-61.6542 L 438.114,-61.9126 L 438.946,-62 L 525,-62 L 526.236,-61.8042
 L 527,-61.4641 L 527.677,-60.9726 L 528.236,-60.3511 L 528.654,-59.627 L 528.913,-58.8316 L 529,-58
 L 529,-24.9084 L 528.863,-23.8709 L 528.563,-23.0904 L 528.107,-22.3893 L 527.515,-21.7984 L 526.814,-21.3433
 L 526.033,-21.0441 L 525.207,-20.9138 z
M 549.967,-21.0441 L 549.186,-21.3433 L 548.485,-21.7984 L 547.893,-22.3893 L 547.437,-23.0904 L 547.137,-23.8709
 L 547,-24.9084 L 547,-58 L 547.087,-58.8316 L 547.346,-59.627 L 547.764,-60.3511 L 548.323,-60.9726
 L 549,-61.4641 L 549.764,-61.8042 L 551,-62 L 637.054,-62 L 637.886,-61.9126 L 638.681,-61.6542
 L 639.405,-61.2361 L 640.027,-60.6765 L 640.518,-60 L 640.859,-59.2361 L 641.032,-58.4181 L 641.032,-57.5819
 L 640.859,-56.7639 L 640.518,-56 L 640.027,-55.3235 L 639.405,-54.7639 L 638.49,-54.2665 L 552.436,-21.175
 L 551.628,-20.9581 L 550.793,-20.9138 z
M 726.8,-21.0441 L 726.019,-21.3433 L 725.318,-21.7984 L 724.726,-22.3893 L 724.27,-23.0904 L 723.97,-23.8709
 L 723.833,-24.9084 L 723.833,-58 L 723.921,-58.8316 L 724.179,-59.627 L 724.597,-60.3511 L 725.157,-60.9726
 L 725.833,-61.4641 L 726.597,-61.8042 L 727.833,-62 L 813.888,-62 L 814.719,-61.9126 L 815.515,-61.6542
 L 816.239,-61.2361 L 816.86,-60.6765 L 817.352,-60 L 817.692,-59.2361 L 817.866,-58.4181 L 817.866,-57.5819
 L 817.692,-56.7639 L 817.352,-56 L 816.86,-55.3235 L 816.239,-54.7639 L 815.323,-54.2665 L 729.269,-21.175
 L 728.461,-20.9581 L 727.626,-20.9138 z
M 197.333,-18 L 196.097,-18.1958 L 195.333,-18.5359 L 194.657,-19.0274 L 194.097,-19.6489 L 193.679,-20.373
 L 193.421,-21.1684 L 193.333,-22 L 193.333,-55.0916 L 193.47,-56.1291 L 193.77,-56.9096 L 194.226,-57.6107
 L 194.818,-58.2016 L 195.519,-58.6566 L 196.3,-58.9559 L 197.126,-59.0862 L 197.961,-59.0419 L 198.769,-58.825
 L 284.823,-25.7335 L 285.739,-25.2361 L 286.36,-24.6765 L 286.852,-24 L 287.192,-23.2361 L 287.366,-22.4181
 L 287.366,-21.5819 L 287.192,-20.7639 L 286.852,-20 L 286.36,-19.3235 L 285.739,-18.7639 L 285.015,-18.3458
 L 284.219,-18.0874 L 283.388,-18 z
M 374.167,-18 L 372.931,-18.1958 L 372.167,-18.5359 L 371.49,-19.0274 L 370.931,-19.6489 L 370.512,-20.373
 L 370.254,-21.1684 L 370.167,-22 L 370.167,-55.0916 L 370.304,-56.1291 L 370.604,-56.9096 L 371.06,-57.6107
 L 371.651,-58.2016 L 372.353,-58.6566 L 373.134,-58.9559 L 373.96,-59.0862 L 374.795,-59.0419 L 375.602,-58.825
 L 461.657,-25.7335 L 462.572,-25.2361 L 463.193,-24.6765 L 463.685,-24 L 464.025,-23.2361 L 464.199,-22.4181
 L 464.199,-21.5819 L 464.025,-20.7639 L 463.685,-20 L 463.193,-19.3235 L 462.572,-18.7639 L 461.848,-18.3458
 L 461.053,-18.0874 L 460.221,-18 z
M 615.779,-18 L 614.947,-18.0874 L 614.152,-18.3458 L 613.428,-18.7639 L 612.806,-19.3235 L 612.315,-20
 L 611.975,-20.7639 L 611.801,-21.5819 L 611.801,-22.4181 L 611.975,-23.2361 L 612.315,-24 L 612.806,-24.6765
 L 613.428,-25.2361 L 614.343,-25.7335 L 700.398,-58.825 L 701.205,-59.0419 L 702.04,-59.0862 L 702.866,-58.9559
 L 703.647,-58.6566 L 704.349,-58.2016 L 704.94,-57.6107 L 705.396,-56.9096 L 705.696,-56.1291 L 705.833,-55.0916
 L 705.833,-22 L 705.746,-21.1684 L 705.488,-20.373 L 705.069,-19.6489 L 704.51,-19.0274 L 703.833,-18.5359
 L 703.069,-18.1958 L 701.833,-18 z
M 792.612,-18 L 791.781,-18.0874 L 790.985,-18.3458 L 790.261,-18.7639 L 789.64,-19.3235 L 789.148,-20
 L 788.808,-20.7639 L 788.634,-21.5819 L 788.634,-22.4181 L 788.808,-23.2361 L 789.148,-24 L 789.64,-24.6765
 L 790.261,-25.2361 L 791.177,-25.7335 L 877.231,-58.825 L 878.039,-59.0419 L 878.874,-59.0862 L 879.7,-58.9559
 L 880.481,-58.6566 L 881.182,-58.2016 L 881.774,-57.6107 L 882.23,-56.9096 L 882.53,-56.1291 L 882.667,-55.0916
 L 882.667,-22 L 882.579,-21.1684 L 882.321,-20.373 L 881.903,-19.6489 L 881.343,-19.0274 L 880.667,-18.5359
 L 879.903,-18.1958 L 878.667,-18 z
M 969.446,-18 L 968.614,-18.0874 L 967.819,-18.3458 L 967.095,-18.7639 L 966.473,-19.3235 L 965.982,-20
 L 965.642,-20.7639 L 965.468,-21.5819 L 965.468,-22.4181 L 965.642,-23.2361 L 965.982,-24 L 966.473,-24.6765
 L 967.095,-25.2361 L 968.01,-25.7335 L 1052.56,-58.2482 L 1053.37,-58.4651 L 1054.21,-58.5094 L 1055.03,-58.3791
 L 1055.81,-58.0798 L 1056.52,-57.6248 L 1057.11,-57.0339 L 1057.56,-56.3328 L 1057.86,-55.5523 L 1058,-54.5147
 L 1058,-22 L 1057.91,-21.1684 L 1057.65,-20.373 L 1057.24,-19.6489 L 1056.68,-19.0274 L 1056,-18.5359
 L 1055.24,-18.1958 L 1054,-18 z
M 22,-18 L 20.7639,-18.1958 L 20,-18.5359 L 19.3235,-19.0274 L 18.7639,-19.6489 L 18.3458,-20.373
 L 18.0874,-21.1684 L 18,-22 L 18,-54.5147 L 18.1369,-55.5523 L 18.437,-56.3328 L 18.8929,-57.0339
 L 19.4846,-57.6248 L 20.1861,-58.0798 L 20.967,-58.3791 L 21.793,-58.5094 L 22.6281,-58.4651 L 23.4357,-58.2482
 L 107.99,-25.7335 L 108.905,-25.2361 L 109.527,-24.6765 L 110.018,-24 L 110.358,-23.2361 L 110.532,-22.4181
 L 110.532,-21.5819 L 110.358,-20.7639 L 110.018,-20 L 109.527,-19.3235 L 108.905,-18.7639 L 108.181,-18.3458
 L 107.386,-18.0874 L 106.554,-18 z
" stroke="black" fill="lightgray" stroke-width="0.5"/>
</svg>
