<?xml version="1.0" standalone="no"?>
<!DOCTYPE svg PUBLIC "-//W3C//DTD SVG 1.1//EN" "http://www.w3.org/Graphics/SVG/1.1/DTD/svg11.dtd">
<svg width="1553mm" height="80mm" viewBox="0 -80 1553 80" xmlns="http://www.w3.org/2000/svg" version="1.1">
<title>OpenSCAD Model</title>
<path d="
M 1553,-80 L 0,-80 L 0,-0 L 4.95,-0 L 4.95,-6 L 5.00572,-6.53017
 L 5.17046,-7.03717 L 5.437,-7.49884 L 5.79372,-7.895 L 6.22499,-8.20836 L 6.71201,-8.42519 L 7.23344,-8.53603
 L 7.76654,-8.53603 L 8.28798,-8.42519 L 8.77499,-8.20836 L 9.20627,-7.895 L 9.56299,-7.49884 L 9.82953,-7.03717
 L 9.99426,-6.53017 L 10.05,-6 L 10.05,-0 L 197.2,-0 L 197.2,-6 L 197.256,-6.53017
 L 197.42,-7.03717 L 197.687,-7.49884 L 198.044,-7.895 L 198.475,-8.20836 L 198.962,-8.42519 L 199.483,-8.53603
 L 200.017,-8.53603 L 200.538,-8.42519 L 201.025,-8.20836 L 201.456,-7.895 L 201.813,-7.49884 L 202.08,-7.03717
 L 202.244,-6.53017 L 202.3,-6 L 202.3,-0 L 389.45,-0 L 389.45,-6 L 389.506,-6.53017
 L 389.67,-7.03717 L 389.937,-7.49884 L 390.294,-7.895 L 390.725,-8.20836 L 391.212,-8.42519 L 391.733,-8.53603
 L 392.267,-8.53603 L 392.788,-8.42519 L 393.275,-8.20836 L 393.706,-7.895 L 394.063,-7.49884 L 394.33,-7.03717
 L 394.494,-6.53017 L 394.55,-6 L 394.55,-0 L 581.7,-0 L 581.7,-6 L 581.756,-6.53017
 L 581.92,-7.03717 L 582.187,-7.49884 L 582.544,-7.895 L 582.975,-8.20836 L 583.462,-8.42519 L 583.983,-8.53603
 L 584.517,-8.53603 L 585.038,-8.42519 L 585.525,-8.20836 L 585.956,-7.895 L 586.313,-7.49884 L 586.58,-7.03717
 L 586.744,-6.53017 L 586.8,-6 L 586.8,-0 L 773.95,-0 L 773.95,-6 L 774.006,-6.53017
 L 774.17,-7.03717 L 774.437,-7.49884 L 774.794,-7.895 L 775.225,-8.20836 L 775.712,-8.42519 L 776.233,-8.53603
 L 776.767,-8.53603 L 777.288,-8.42519 L 777.775,-8.20836 L 778.206,-7.895 L 778.563,-7.49884 L 778.83,-7.03717
 L 778.994,-6.53017 L 779.05,-6 L 779.05,-0 L 966.2,-0 L 966.2,-6 L 966.256,-6.53017
 L 966.42,-7.03717 L 966.687,-7.49884 L 967.044,-7.895 L 967.475,-8.20836 L 967.962,-8.42519 L 968.483,-8.53603
 L 969.017,-8.53603 L 969.538,-8.42519 L 970.025,-8.20836 L 970.456,-7.895 L 970.813,-7.49884 L 971.08,-7.03717
 L 971.244,-6.53017 L 971.3,-6 L 971.3,-0 L 1158.45,-0 L 1158.45,-6 L 1158.51,-6.53017
 L 1158.67,-7.03717 L 1158.94,-7.49884 L 1159.29,-7.895 L 1159.72,-8.20836 L 1160.21,-8.42519 L 1160.73,-8.53603
 L 1161.27,-8.53603 L 1161.79,-8.42519 L 1162.27,-8.20836 L 1162.71,-7.895 L 1163.06,-7.49884 L 1163.33,-7.03717
 L 1163.49,-6.53017 L 1163.55,-6 L 1163.55,-0 L 1350.7,-0 L 1350.7,-6 L 1350.76,-6.53017
 L 1350.92,-7.03717 L 1351.19,-7.49884 L 1351.54,-7.895 L 1351.97,-8.20836 L 1352.46,-8.42519 L 1352.98,-8.53603
 L 1353.52,-8.53603 L 1354.04,-8.42519 L 1354.52,-8.20836 L 1354.96,-7.895 L 1355.31,-7.49884 L 1355.58,-7.03717
 L 1355.74,-6.53017 L 1355.8,-6 L 1355.8,-0 L 1542.95,-0 L 1542.95,-6 L 1543.01,-6.53017
 L 1543.17,-7.03717 L 1543.44,-7.49884 L 1543.79,-7.895 L 1544.22,-8.20836 L 1544.71,-8.42519 L 1545.23,-8.53603
 L 1545.77,-8.53603 L 1546.29,-8.42519 L 1546.77,-8.20836 L 1547.21,-7.895 L 1547.56,-7.49884 L 1547.83,-7.03717
 L 1547.99,-6.53017 L 1548.05,-6 L 1548.05,-0 L 1553,-0 z
M 199.236,-55.607 L 198.727,-55.6875 L 198.23,-55.8208 L 197.749,-56.0054 L 197.29,-56.2392 L 196.858,-56.5196
 L 196.458,-56.8437 L 196.094,-57.2079 L 195.77,-57.6081 L 195.489,-58.04 L 195.255,-58.4989 L 195.071,-58.9796
 L 194.938,-59.4771 L 194.857,-59.9857 L 194.83,-60.5 L 194.857,-61.0143 L 194.938,-61.5229 L 195.071,-62.0204
 L 195.255,-62.5011 L 195.489,-62.96 L 195.77,-63.3919 L 196.094,-63.7921 L 196.458,-64.1563 L 196.858,-64.4804
 L 197.2,-64.7024 L 197.2,-74 L 197.256,-74.5302 L 197.42,-75.0372 L 197.687,-75.4988 L 198.044,-75.895
 L 198.475,-76.2084 L 198.962,-76.4252 L 199.483,-76.536 L 200.017,-76.536 L 200.538,-76.4252 L 201.025,-76.2084
 L 201.456,-75.895 L 201.813,-75.4988 L 202.08,-75.0372 L 202.244,-74.5302 L 202.3,-74 L 202.3,-64.7024
 L 202.642,-64.4804 L 203.042,-64.1563 L 203.406,-63.7921 L 203.73,-63.3919 L 204.011,-62.96 L 204.245,-62.5011
 L 204.429,-62.0204 L 204.562,-61.5229 L 204.643,-61.0143 L 204.67,-60.5 L 204.643,-59.9857 L 204.562,-59.4771
 L 204.429,-58.9796 L 204.245,-58.4989 L 204.011,-58.04 L 203.73,-57.6081 L 203.406,-57.2079 L 203.042,-56.8437
 L 202.642,-56.5196 L 202.21,-56.2392 L 201.751,-56.0054 L 201.27,-55.8208 L 200.773,-55.6875 L 200.264,-55.607
 L 199.75,-55.58 z
M 1160.49,-55.607 L 1159.98,-55.6875 L 1159.48,-55.8208 L 1159,-56.0054 L 1158.54,-56.2392 L 1158.11,-56.5196
 L 1157.71,-56.8437 L 1157.34,-57.2079 L 1157.02,-57.6081 L 1156.74,-58.04 L 1156.51,-58.4989 L 1156.32,-58.9796
 L 1156.19,-59.4771 L 1156.11,-59.9857 L 1156.08,-60.5 L 1156.11,-61.0143 L 1156.19,-61.5229 L 1156.32,-62.0204
 L 1156.51,-62.5011 L 1156.74,-62.96 L 1157.02,-63.3919 L 1157.34,-63.7921 L 1157.71,-64.1563 L 1158.11,-64.4804
 L 1158.45,-64.7024 L 1158.45,-74 L 1158.51,-74.5302 L 1158.67,-75.0372 L 1158.94,-75.4988 L 1159.29,-75.895
 L 1159.73,-76.2084 L 1160.21,-76.4252 L 1160.73,-76.536 L 1161.27,-76.536 L 1161.79,-76.4252 L 1162.27,-76.2084
 L 1162.71,-75.895 L 1163.06,-75.4988 L 1163.33,-75.0372 L 1163.49,-74.5302 L 1163.55,-74 L 1163.55,-64.7024
 L 1163.89,-64.4804 L 1164.29,-64.1563 L 1164.66,-63.7921 L 1164.98,-63.3919 L 1165.26,-62.96 L 1165.49,-62.5011
 L 1165.68,-62.0204 L 1165.81,-61.5229 L 1165.89,-61.0143 L 1165.92,-60.5 L 1165.89,-59.9857 L 1165.81,-59.4771
 L 1165.68,-58.9796 L 1165.49,-58.4989 L 1165.26,-58.04 L 1164.98,-57.6081 L 1164.66,-57.2079 L 1164.29,-56.8437
 L 1163.89,-56.5196 L 1163.46,-56.2392 L 1163,-56.0054 L 1162.52,-55.8208 L 1162.02,-55.6875 L 1161.51,-55.607
 L 1161,-55.58 z
M 968.236,-55.607 L 967.727,-55.6875 L 967.23,-55.8208 L 966.749,-56.0054 L 966.29,-56.2392 L 965.858,-56.5196
 L 965.458,-56.8437 L 965.094,-57.2079 L 964.77,-57.6081 L 964.489,-58.04 L 964.255,-58.4989 L 964.071,-58.9796
 L 963.938,-59.4771 L 963.857,-59.9857 L 963.83,-60.5 L 963.857,-61.0143 L 963.938,-61.5229 L 964.071,-62.0204
 L 964.255,-62.5011 L 964.489,-62.96 L 964.77,-63.3919 L 965.094,-63.7921 L 965.458,-64.1563 L 965.858,-64.4804
 L 966.2,-64.7024 L 966.2,-74 L 966.256,-74.5302 L 966.42,-75.0372 L 966.687,-75.4988 L 967.044,-75.895
 L 967.475,-76.2084 L 967.962,-76.4252 L 968.483,-76.536 L 969.017,-76.536 L 969.538,-76.4252 L 970.025,-76.2084
 L 970.456,-75.895 L 970.813,-75.4988 L 971.08,-75.0372 L 971.244,-74.5302 L 971.3,-74 L 971.3,-64.7024
 L 971.642,-64.4804 L 972.042,-64.1563 L 972.406,-63.7921 L 972.73,-63.3919 L 973.011,-62.96 L 973.245,-62.5011
 L 973.429,-62.0204 L 973.562,-61.5229 L 973.643,-61.0143 L 973.67,-60.5 L 973.643,-59.9857 L 973.562,-59.4771
 L 973.429,-58.9796 L 973.245,-58.4989 L 973.011,-58.04 L 972.73,-57.6081 L 972.406,-57.2079 L 972.042,-56.8437
 L 971.642,-56.5196 L 971.21,-56.2392 L 970.751,-56.0054 L 970.27,-55.8208 L 969.773,-55.6875 L 969.264,-55.607
 L 968.75,-55.58 z
M 6.98573,-55.607 L 6.47708,-55.6875 L 5.97964,-55.8208 L 5.49887,-56.0054 L 5.04001,-56.2392 L 4.60811,-56.5196
 L 4.20789,-56.8437 L 3.84373,-57.2079 L 3.51964,-57.6081 L 3.23917,-58.04 L 3.00537,-58.4989 L 2.82082,-58.9796
 L 2.68752,-59.4771 L 2.60696,-59.9857 L 2.58,-60.5 L 2.60696,-61.0143 L 2.68752,-61.5229 L 2.82082,-62.0204
 L 3.00537,-62.5011 L 3.23917,-62.96 L 3.51964,-63.3919 L 3.84373,-63.7921 L 4.20789,-64.1563 L 4.60811,-64.4804
 L 4.95001,-64.7024 L 4.95001,-74 L 5.00574,-74.5302 L 5.17047,-75.0372 L 5.43701,-75.4988 L 5.79373,-75.895
 L 6.22501,-76.2084 L 6.71202,-76.4252 L 7.23346,-76.536 L 7.76654,-76.536 L 8.28798,-76.4252 L 8.77499,-76.2084
 L 9.20627,-75.895 L 9.56299,-75.4988 L 9.82953,-75.0372 L 9.99426,-74.5302 L 10.05,-74 L 10.05,-64.7024
 L 10.3919,-64.4804 L 10.7921,-64.1563 L 11.1563,-63.7921 L 11.4804,-63.3919 L 11.7608,-62.96 L 11.9946,-62.5011
 L 12.1792,-62.0204 L 12.3125,-61.5229 L 12.393,-61.0143 L 12.42,-60.5 L 12.393,-59.9857 L 12.3125,-59.4771
 L 12.1792,-58.9796 L 11.9946,-58.4989 L 11.7608,-58.04 L 11.4804,-57.6081 L 11.1563,-57.2079 L 10.7921,-56.8437
 L 10.3919,-56.5196 L 9.95999,-56.2392 L 9.50113,-56.0054 L 9.02036,-55.8208 L 8.52292,-55.6875 L 8.01427,-55.607
 L 7.5,-55.58 z
M 775.986,-55.607 L 775.477,-55.6875 L 774.98,-55.8208 L 774.499,-56.0054 L 774.04,-56.2392 L 773.608,-56.5196
 L 773.208,-56.8437 L 772.844,-57.2079 L 772.52,-57.6081 L 772.239,-58.04 L 772.005,-58.4989 L 771.821,-58.9796
 L 771.688,-59.4771 L 771.607,-59.9857 L 771.58,-60.5 L 771.607,-61.0143 L 771.688,-61.5229 L 771.821,-62.0204
 L 772.005,-62.5011 L 772.239,-62.96 L 772.52,-63.3919 L 772.844,-63.7921 L 773.208,-64.1563 L 773.608,-64.4804
 L 773.95,-64.7024 L 773.95,-74 L 774.006,-74.5302 L 774.17,-75.0372 L 774.437,-75.4988 L 774.794,-75.895
 L 775.225,-76.2084 L 775.712,-76.4252 L 776.233,-76.536 L 776.767,-76.536 L 777.288,-76.4252 L 777.775,-76.2084
 L 778.206,-75.895 L 778.563,-75.4988 L 778.83,-75.0372 L 778.994,-74.5302 L 779.05,-74 L 779.05,-64.7024
 L 779.392,-64.4804 L 779.792,-64.1563 L 780.156,-63.7921 L 780.48,-63.3919 L 780.761,-62.96 L 780.995,-62.5011
 L 781.179,-62.0204 L 781.312,-61.5229 L 781.393,-61.0143 L 781.42,-60.5 L 781.393,-59.9857 L 781.312,-59.4771
 L 781.179,-58.9796 L 780.995,-58.4989 L 780.761,-58.04 L 780.48,-57.6081 L 780.156,-57.2079 L 779.792,-56.8437
 L 779.392,-56.5196 L 778.96,-56.2392 L 778.501,-56.0054 L 778.02,-55.8208 L 777.523,-55.6875 L 777.014,-55.607
 L 776.5,-55.58 z
M 1352.74,-55.607 L 1352.23,-55.6875 L 1351.73,-55.8208 L 1351.25,-56.0054 L 1350.79,-56.2392 L 1350.36,-56.5196
 L 1349.96,-56.8437 L 1349.59,-57.2079 L 1349.27,-57.6081 L 1348.99,-58.04 L 1348.76,-58.4989 L 1348.57,-58.9796
 L 1348.44,-59.4771 L 1348.36,-59.9857 L 1348.33,-60.5 L 1348.36,-61.0143 L 1348.44,-61.5229 L 1348.57,-62.0204
 L 1348.76,-62.5011 L 1348.99,-62.96 L 1349.27,-63.3919 L 1349.59,-63.7921 L 1349.96,-64.1563 L 1350.36,-64.4804
 L 1350.7,-64.7024 L 1350.7,-74 L 1350.76,-74.5302 L 1350.92,-75.0372 L 1351.19,-75.4988 L 1351.54,-75.895
 L 1351.98,-76.2084 L 1352.46,-76.4252 L 1352.98,-76.536 L 1353.52,-76.536 L 1354.04,-76.4252 L 1354.52,-76.2084
 L 1354.96,-75.895 L 1355.31,-75.4988 L 1355.58,-75.0372 L 1355.74,-74.5302 L 1355.8,-74 L 1355.8,-64.7024
 L 1356.14,-64.4804 L 1356.54,-64.1563 L 1356.91,-63.7921 L 1357.23,-63.3919 L 1357.51,-62.96 L 1357.74,-62.5011
 L 1357.93,-62.0204 L 1358.06,-61.5229 L 1358.14,-61.0143 L 1358.17,-60.5 L 1358.14,-59.9857 L 1358.06,-59.4771
 L 1357.93,-58.9796 L 1357.74,-58.4989 L 1357.51,-58.04 L 1357.23,-57.6081 L 1356.91,-57.2079 L 1356.54,-56.8437
 L 1356.14,-56.5196 L 1355.71,-56.2392 L 1355.25,-56.0054 L 1354.77,-55.8208 L 1354.27,-55.6875 L 1353.76,-55.607
 L 1353.25,-55.58 z
M 583.736,-55.607 L 583.227,-55.6875 L 582.73,-55.8208 L 582.249,-56.0054 L 581.79,-56.2392 L 581.358,-56.5196
 L 580.958,-56.8437 L 580.594,-57.2079 L 580.27,-57.6081 L 579.989,-58.04 L 579.755,-58.4989 L 579.571,-58.9796
 L 579.438,-59.4771 L 579.357,-59.9857 L 579.33,-60.5 L 579.357,-61.0143 L 579.438,-61.5229 L 579.571,-62.0204
 L 579.755,-62.5011 L 579.989,-62.96 L 580.27,-63.3919 L 580.594,-63.7921 L 580.958,-64.1563 L 581.358,-64.4804
 L 581.7,-64.7024 L 581.7,-74 L 581.756,-74.5302 L 581.92,-75.0372 L 582.187,-75.4988 L 582.544,-75.895
 L 582.975,-76.2084 L 583.462,-76.4252 L 583.983,-76.536 L 584.517,-76.536 L 585.038,-76.4252 L 585.525,-76.2084
 L 585.956,-75.895 L 586.313,-75.4988 L 586.58,-75.0372 L 586.744,-74.5302 L 586.8,-74 L 586.8,-64.7024
 L 587.142,-64.4804 L 587.542,-64.1563 L 587.906,-63.7921 L 588.23,-63.3919 L 588.511,-62.96 L 588.745,-62.5011
 L 588.929,-62.0204 L 589.062,-61.5229 L 589.143,-61.0143 L 589.17,-60.5 L 589.143,-59.9857 L 589.062,-59.4771
 L 588.929,-58.9796 L 588.745,-58.4989 L 588.511,-58.04 L 588.23,-57.6081 L 587.906,-57.2079 L 587.542,-56.8437
 L 587.142,-56.5196 L 586.71,-56.2392 L 586.251,-56.0054 L 585.77,-55.8208 L 585.273,-55.6875 L 584.764,-55.607
 L 584.25,-55.58 z
M 391.486,-55.607 L 390.977,-55.6875 L 390.48,-55.8208 L 389.999,-56.0054 L 389.54,-56.2392 L 389.108,-56.5196
 L 388.708,-56.8437 L 388.344,-57.2079 L 388.02,-57.6081 L 387.739,-58.04 L 387.505,-58.4989 L 387.321,-58.9796
 L 387.188,-59.4771 L 387.107,-59.9857 L 387.08,-60.5 L 387.107,-61.0143 L 387.188,-61.5229 L 387.321,-62.0204
 L 387.505,-62.5011 L 387.739,-62.96 L 388.02,-63.3919 L 388.344,-63.7921 L 388.708,-64.1563 L 389.108,-64.4804
 L 389.45,-64.7024 L 389.45,-74 L 389.506,-74.5302 L 389.67,-75.0372 L 389.937,-75.4988 L 390.294,-75.895
 L 390.725,-76.2084 L 391.212,-76.4252 L 391.733,-76.536 L 392.267,-76.536 L 392.788,-76.4252 L 393.275,-76.2084
 L 393.706,-75.895 L 394.063,-75.4988 L 394.33,-75.0372 L 394.494,-74.5302 L 394.55,-74 L 394.55,-64.7024
 L 394.892,-64.4804 L 395.292,-64.1563 L 395.656,-63.7921 L 395.98,-63.3919 L 396.261,-62.96 L 396.495,-62.5011
 L 396.679,-62.0204 L 396.812,-61.5229 L 396.893,-61.0143 L 396.92,-60.5 L 396.893,-59.9857 L 396.812,-59.4771
 L 396.679,-58.9796 L 396.495,-58.4989 L 396.261,-58.04 L 395.98,-57.6081 L 395.656,-57.2079 L 395.292,-56.8437
 L 394.892,-56.5196 L 394.46,-56.2392 L 394.001,-56.0054 L 393.52,-55.8208 L 393.023,-55.6875 L 392.514,-55.607
 L 392,-55.58 z
M 1544.99,-55.607 L 1544.48,-55.6875 L 1543.98,-55.8208 L 1543.5,-56.0054 L 1543.04,-56.2392 L 1542.61,-56.5196
 L 1542.21,-56.8437 L 1541.84,-57.2079 L 1541.52,-57.6081 L 1541.24,-58.04 L 1541.01,-58.4989 L 1540.82,-58.9796
 L 1540.69,-59.4771 L 1540.61,-59.9857 L 1540.58,-60.5 L 1540.61,-61.0143 L 1540.69,-61.5229 L 1540.82,-62.0204
 L 1541.01,-62.5011 L 1541.24,-62.96 L 1541.52,-63.3919 L 1541.84,-63.7921 L 1542.21,-64.1563 L 1542.61,-64.4804
 L 1542.95,-64.7024 L 1542.95,-74 L 1543.01,-74.5302 L 1543.17,-75.0372 L 1543.44,-75.4988 L 1543.79,-75.895
 L 1544.23,-76.2084 L 1544.71,-76.4252 L 1545.23,-76.536 L 1545.77,-76.536 L 1546.29,-76.4252 L 1546.77,-76.2084
 L 1547.21,-75.895 L 1547.56,-75.4988 L 1547.83,-75.0372 L 1547.99,-74.5302 L 1548.05,-74 L 1548.05,-64.7024
 L 1548.39,-64.4804 L 1548.79,-64.1563 L 1549.16,-63.7921 L 1549.48,-63.3919 L 1549.76,-62.96 L 1549.99,-62.5011
 L 1550.18,-62.0204 L 1550.31,-61.5229 L 1550.39,-61.0143 L 1550.42,-60.5 L 1550.39,-59.9857 L 1550.31,-59.4771
 L 1550.18,-58.9796 L 1549.99,-58.4989 L 1549.76,-58.04 L 1549.48,-57.6081 L 1549.16,-57.2079 L 1548.79,-56.8437
 L 1548.39,-56.5196 L 1547.96,-56.2392 L 1547.5,-56.0054 L 1547.02,-55.8208 L 1546.52,-55.6875 L 1546.01,-55.607
 L 1545.5,-55.58 z
M 378.479,-20.4168 L 377.666,-20.6118 L 282.623,-54.2289 L 281.606,-54.7639 L 280.985,-55.3235 L 280.493,-56
 L 280.153,-56.7639 L 279.979,-57.5819 L 279.979,-58.4181 L 280.153,-59.2361 L 280.493,-60 L 280.985,-60.6765
 L 281.606,-61.2361 L 282.33,-61.6542 L 283.126,-61.9126 L 283.957,-62 L 379,-62 L 380.236,-61.8042
 L 381,-61.4641 L 381.677,-60.9726 L 382.236,-60.3511 L 382.654,-59.627 L 382.913,-58.8316 L 383,-58
 L 383,-24.3828 L 382.89,-23.4505 L 382.611,-22.6621 L 382.174,-21.9489 L 381.599,-21.3421 L 380.91,-20.8682
 L 380.137,-20.5479 L 379.315,-20.3953 z
M 570.729,-20.4168 L 569.916,-20.6118 L 474.873,-54.2289 L 473.856,-54.7639 L 473.235,-55.3235 L 472.743,-56
 L 472.403,-56.7639 L 472.229,-57.5819 L 472.229,-58.4181 L 472.403,-59.2361 L 472.743,-60 L 473.235,-60.6765
 L 473.856,-61.2361 L 474.58,-61.6542 L 475.376,-61.9126 L 476.207,-62 L 571.25,-62 L 572.486,-61.8042
 L 573.25,-61.4641 L 573.927,-60.9726 L 574.486,-60.3511 L 574.904,-59.627 L 575.163,-58.8316 L 575.25,-58
 L 575.25,-24.3828 L 575.14,-23.4505 L 574.861,-22.6621 L 574.424,-21.9489 L 573.849,-21.3421 L 573.16,-20.8682
 L 572.387,-20.5479 L 571.565,-20.3953 z
M 1365.11,-20.5479 L 1364.34,-20.8682 L 1363.65,-21.3421 L 1363.08,-21.9489 L 1362.64,-22.6621 L 1362.36,-23.4505
 L 1362.25,-24.3828 L 1362.25,-58 L 1362.34,-58.8316 L 1362.6,-59.627 L 1363.01,-60.3511 L 1363.57,-60.9726
 L 1364.25,-61.4641 L 1365.01,-61.8042 L 1366.25,-62 L 1461.29,-62 L 1462.12,-61.9126 L 1462.92,-61.6542
 L 1463.64,-61.2361 L 1464.27,-60.6765 L 1464.76,-60 L 1465.1,-59.2361 L 1465.27,-58.4181 L 1465.27,-57.5819
 L 1465.1,-56.7639 L 1464.76,-56 L 1464.27,-55.3235 L 1463.64,-54.7639 L 1462.63,-54.2289 L 1367.58,-20.6118
 L 1366.77,-20.4168 L 1365.93,-20.3953 z
M 762.979,-20.4168 L 762.166,-20.6118 L 667.123,-54.2289 L 666.106,-54.7639 L 665.485,-55.3235 L 664.993,-56
 L 664.653,-56.7639 L 664.479,-57.5819 L 664.479,-58.4181 L 664.653,-59.2361 L 664.993,-60 L 665.485,-60.6765
 L 666.106,-61.2361 L 666.83,-61.6542 L 667.626,-61.9126 L 668.457,-62 L 763.5,-62 L 764.736,-61.8042
 L 765.5,-61.4641 L 766.177,-60.9726 L 766.736,-60.3511 L 767.154,-59.627 L 767.413,-58.8316 L 767.5,-58
 L 767.5,-24.3828 L 767.39,-23.4505 L 767.111,-22.6621 L 766.674,-21.9489 L 766.099,-21.3421 L 765.41,-20.8682
 L 764.637,-20.5479 L 763.815,-20.3953 z
M 186.229,-20.4168 L 185.416,-20.6118 L 90.3735,-54.2289 L 89.3562,-54.7639 L 88.7347,-55.3235 L 88.2432,-56
 L 87.9031,-56.7639 L 87.7292,-57.5819 L 87.7292,-58.4181 L 87.9031,-59.2361 L 88.2432,-60 L 88.7347,-60.6765
 L 89.3562,-61.2361 L 90.0804,-61.6542 L 90.8757,-61.9126 L 91.7073,-62 L 186.75,-62 L 187.986,-61.8042
 L 188.75,-61.4641 L 189.427,-60.9726 L 189.986,-60.3511 L 190.404,-59.627 L 190.663,-58.8316 L 190.75,-58
 L 190.75,-24.3828 L 190.64,-23.4505 L 190.361,-22.6621 L 189.924,-21.9489 L 189.349,-21.3421 L 188.66,-20.8682
 L 187.887,-20.5479 L 187.065,-20.3953 z
M 788.363,-20.5479 L 787.59,-20.8682 L 786.901,-21.3421 L 786.326,-21.9489 L 785.889,-22.6621 L 785.61,-23.4505
 L 785.5,-24.3828 L 785.5,-58 L 785.587,-58.8316 L 785.846,-59.627 L 786.264,-60.3511 L 786.823,-60.9726
 L 787.5,-61.4641 L 788.264,-61.8042 L 789.5,-62 L 884.543,-62 L 885.374,-61.9126 L 886.17,-61.6542
 L 886.894,-61.2361 L 887.515,-60.6765 L 888.007,-60 L 888.347,-59.2361 L 888.521,-58.4181 L 888.521,-57.5819
 L 888.347,-56.7639 L 888.007,-56 L 887.515,-55.3235 L 886.894,-54.7639 L 885.877,-54.2289 L 790.834,-20.6118
 L 790.021,-20.4168 L 789.185,-20.3953 z
M 980.613,-20.5479 L 979.84,-20.8682 L 979.151,-21.3421 L 978.576,-21.9489 L 978.139,-22.6621 L 977.86,-23.4505
 L 977.75,-24.3828 L 977.75,-58 L 977.837,-58.8316 L 978.096,-59.627 L 978.514,-60.3511 L 979.073,-60.9726
 L 979.75,-61.4641 L 980.514,-61.8042 L 981.75,-62 L 1076.79,-62 L 1077.62,-61.9126 L 1078.42,-61.6542
 L 1079.14,-61.2361 L 1079.77,-60.6765 L 1080.26,-60 L 1080.6,-59.2361 L 1080.77,-58.4181 L 1080.77,-57.5819
 L 1080.6,-56.7639 L 1080.26,-56 L 1079.77,-55.3235 L 1079.14,-54.7639 L 1078.13,-54.2289 L 983.084,-20.6118
 L 982.271,-20.4168 L 981.435,-20.3953 z
M 1172.86,-20.5479 L 1172.09,-20.8682 L 1171.4,-21.3421 L 1170.83,-21.9489 L 1170.39,-22.6621 L 1170.11,-23.4505
 L 1170,-24.3828 L 1170,-58 L 1170.09,-58.8316 L 1170.35,-59.627 L 1170.76,-60.3511 L 1171.32,-60.9726
 L 1172,-61.4641 L 1172.76,-61.8042 L 1174,-62 L 1269.04,-62 L 1269.87,-61.9126 L 1270.67,-61.6542
 L 1271.39,-61.2361 L 1272.02,-60.6765 L 1272.51,-60 L 1272.85,-59.2361 L 1273.02,-58.4181 L 1273.02,-57.5819
 L 1272.85,-56.7639 L 1272.51,-56 L 1272.02,-55.3235 L 1271.39,-54.7639 L 1270.38,-54.2289 L 1175.33,-20.6118
 L 1174.52,-20.4168 L 1173.68,-20.3953 z
M 212.75,-18 L 211.514,-18.1958 L 210.75,-18.5359 L 210.073,-19.0274 L 209.514,-19.6489 L 209.096,-20.373
 L 208.837,-21.1684 L 208.75,-22 L 208.75,-55.6172 L 208.86,-56.5495 L 209.139,-57.3379 L 209.576,-58.0511
 L 210.151,-58.6578 L 210.84,-59.1317 L 211.613,-59.452 L 212.435,-59.6047 L 213.271,-59.5831 L 214.084,-59.3882
 L 309.127,-25.7711 L 310.144,-25.2361 L 310.765,-24.6765 L 311.257,-24 L 311.597,-23.2361 L 311.771,-22.4181
 L 311.771,-21.5819 L 311.597,-20.7639 L 311.257,-20 L 310.765,-19.3235 L 310.144,-18.7639 L 309.42,-18.3458
 L 308.624,-18.0874 L 307.793,-18 z
M 405,-18 L 403.764,-18.1958 L 403,-18.5359 L 402.323,-19.0274 L 401.764,-19.6489 L 401.346,-20.373
 L 401.087,-21.1684 L 401,-22 L 401,-55.6172 L 401.11,-56.5495 L 401.389,-57.3379 L 401.826,-58.0511
 L 402.401,-58.6578 L 403.09,-59.1317 L 403.863,-59.452 L 404.685,-59.6047 L 405.521,-59.5831 L 406.334,-59.3882
 L 501.377,-25.7711 L 502.394,-25.2361 L 503.015,-24.6765 L 503.507,-24 L 503.847,-23.2361 L 504.021,-22.4181
 L 504.021,-21.5819 L 503.847,-20.7639 L 503.507,-20 L 503.015,-19.3235 L 502.394,-18.7639 L 501.67,-18.3458
 L 500.874,-18.0874 L 500.043,-18 z
M 597.25,-18 L 596.014,-18.1958 L 595.25,-18.5359 L 594.573,-19.0274 L 594.014,-19.6489 L 593.596,-20.373
 L 593.337,-21.1684 L 593.25,-22 L 593.25,-55.6172 L 593.36,-56.5495 L 593.639,-57.3379 L 594.076,-58.0511
 L 594.651,-58.6578 L 595.34,-59.1317 L 596.113,-59.452 L 596.935,-59.6047 L 597.771,-59.5831 L 598.584,-59.3882
 L 693.627,-25.7711 L 694.644,-25.2361 L 695.265,-24.6765 L 695.757,-24 L 696.097,-23.2361 L 696.271,-22.4181
 L 696.271,-21.5819 L 696.097,-20.7639 L 695.757,-20 L 695.265,-19.3235 L 694.644,-18.7639 L 693.92,-18.3458
 L 693.124,-18.0874 L 692.293,-18 z
M 860.707,-18 L 859.876,-18.0874 L 859.08,-18.3458 L 858.356,-18.7639 L 857.735,-19.3235 L 857.243,-20
 L 856.903,-20.7639 L 856.729,-21.5819 L 856.729,-22.4181 L 856.903,-23.2361 L 857.243,-24 L 857.735,-24.6765
 L 858.356,-25.2361 L 859.373,-25.7711 L 954.416,-59.3882 L 955.229,-59.5831 L 956.065,-59.6047 L 956.887,-59.452
 L 957.66,-59.1317 L 958.349,-58.6578 L 958.924,-58.0511 L 959.361,-57.3379 L 959.64,-56.5495 L 959.75,-55.6172
 L 959.75,-22 L 959.663,-21.1684 L 959.404,-20.373 L 958.986,-19.6489 L 958.427,-19.0274 L 957.75,-18.5359
 L 956.986,-18.1958 L 955.75,-18 z
M 1052.96,-18 L 1052.13,-18.0874 L 1051.33,-18.3458 L 1050.61,-18.7639 L 1049.98,-19.3235 L 1049.49,-20
 L 1049.15,-20.7639 L 1048.98,-21.5819 L 1048.98,-22.4181 L 1049.15,-23.2361 L 1049.49,-24 L 1049.98,-24.6765
 L 1050.61,-25.2361 L 1051.62,-25.7711 L 1146.67,-59.3882 L 1147.48,-59.5831 L 1148.32,-59.6047 L 1149.14,-59.452
 L 1149.91,-59.1317 L 1150.6,-58.6578 L 1151.17,-58.0511 L 1151.61,-57.3379 L 1151.89,-56.5495 L 1152,-55.6172
 L 1152,-22 L 1151.91,-21.1684 L 1151.65,-20.373 L 1151.24,-19.6489 L 1150.68,-19.0274 L 1150,-18.5359
 L 1149.24,-18.1958 L 1148,-18 z
M 1245.21,-18 L 1244.38,-18.0874 L 1243.58,-18.3458 L 1242.86,-18.7639 L 1242.23,-19.3235 L 1241.74,-20
 L 1241.4,-20.7639 L 1241.23,-21.5819 L 1241.23,-22.4181 L 1241.4,-23.2361 L 1241.74,-24 L 1242.23,-24.6765
 L 1242.86,-25.2361 L 1243.87,-25.7711 L 1338.92,-59.3882 L 1339.73,-59.5831 L 1340.57,-59.6047 L 1341.39,-59.452
 L 1342.16,-59.1317 L 1342.85,-58.6578 L 1343.42,-58.0511 L 1343.86,-57.3379 L 1344.14,-56.5495 L 1344.25,-55.6172
 L 1344.25,-22 L 1344.16,-21.1684 L 1343.9,-20.373 L 1343.49,-19.6489 L 1342.93,-19.0274 L 1342.25,-18.5359
 L 1341.49,-18.1958 L 1340.25,-18 z
M 1437.46,-18 L 1436.63,-18.0874 L 1435.83,-18.3458 L 1435.11,-18.7639 L 1434.48,-19.3235 L 1433.99,-20
 L 1433.65,-20.7639 L 1433.48,-21.5819 L 1433.48,-22.4181 L 1433.65,-23.2361 L 1433.99,-24 L 1434.48,-24.6765
 L 1435.11,-25.2361 L 1436.12,-25.7711 L 1529.67,-58.8577 L 1530.48,-59.0526 L 1531.32,-59.0742 L 1532.14,-58.9215
 L 1532.91,-58.6012 L 1533.6,-58.1273 L 1534.17,-57.5205 L 1534.61,-56.8073 L 1534.89,-56.019 L 1535,-55.0866
 L 1535,-22 L 1534.91,-21.1684 L 1534.65,-20.373 L 1534.24,-19.6489 L 1533.68,-19.0274 L 1533,-18.5359
 L 1532.24,-18.1958 L 1531,-18 z
M 22,-18 L 20.7639,-18.1958 L 20,-18.5359 L 19.3235,-19.0274 L 18.7639,-19.6489 L 18.3458,-20.373
 L 18.0874,-21.1684 L 18,-22 L 18,-55.0866 L 18.1102,-56.019 L 18.389,-56.8073 L 18.8257,-57.5205
 L 19.4011,-58.1273 L 20.0901,-58.6012 L 20.8625,-58.9215 L 21.6847,-59.0742 L 22.5206,-59.0526 L 23.3338,-58.8577
 L 116.877,-25.7711 L 117.894,-25.2361 L 118.515,-24.6765 L 119.007,-24 L 119.347,-23.2361 L 119.521,-22.4181
 L 119.521,-21.5819 L 119.347,-20.7639 L 119.007,-20 L 118.515,-19.3235 L 117.894,-18.7639 L 117.17,-18.3458
 L 116.374,-18.0874 L 115.543,-18 z
" stroke="black" fill="lightgray" stroke-width="0.5"/>
</svg>
