<?xml version="1.0" standalone="no"?>
<!DOCTYPE svg PUBLIC "-//W3C//DTD SVG 1.1//EN" "http://www.w3.org/Graphics/SVG/1.1/DTD/svg11.dtd">
<svg width="1187mm" height="80mm" viewBox="0 -80 1187 80" xmlns="http://www.w3.org/2000/svg" version="1.1">
<title>OpenSCAD Model</title>
<path d="
M 1187,-80 L 0,-80 L 0,-0 L 4.95,-0 L 4.95,-6 L 5.00572,-6.53017
 L 5.17046,-7.03717 L 5.437,-7.49884 L 5.79372,-7.895 L 6.22499,-8.20836 L 6.71201,-8.42519 L 7.23344,-8.53603
 L 7.76654,-8.53603 L 8.28798,-8.42519 L 8.77499,-8.20836 L 9.20627,-7.895 L 9.56299,-7.49884 L 9.82953,-7.03717
 L 9.99426,-6.53017 L 10.05,-6 L 10.05,-0 L 200.283,-0 L 200.283,-6 L 200.339,-6.53017
 L 200.504,-7.03717 L 200.77,-7.49884 L 201.127,-7.895 L 201.558,-8.20836 L 202.045,-8.42519 L 202.567,-8.53603
 L 203.1,-8.53603 L 203.621,-8.42519 L 204.108,-8.20836 L 204.54,-7.895 L 204.896,-7.49884 L 205.163,-7.03717
 L 205.328,-6.53017 L 205.383,-6 L 205.383,-0 L 395.617,-0 L 395.617,-6 L 395.672,-6.53017
 L 395.837,-7.03717 L 396.104,-7.49884 L 396.46,-7.895 L 396.892,-8.20836 L 397.379,-8.42519 L 397.9,-8.53603
 L 398.433,-8.53603 L 398.955,-8.42519 L 399.442,-8.20836 L 399.873,-7.895 L 400.23,-7.49884 L 400.496,-7.03717
 L 400.661,-6.53017 L 400.717,-6 L 400.717,-0 L 590.95,-0 L 590.95,-6 L 591.006,-6.53017
 L 591.17,-7.03717 L 591.437,-7.49884 L 591.794,-7.895 L 592.225,-8.20836 L 592.712,-8.42519 L 593.233,-8.53603
 L 593.767,-8.53603 L 594.288,-8.42519 L 594.775,-8.20836 L 595.206,-7.895 L 595.563,-7.49884 L 595.83,-7.03717
 L 595.994,-6.53017 L 596.05,-6 L 596.05,-0 L 786.283,-0 L 786.283,-6 L 786.339,-6.53017
 L 786.504,-7.03717 L 786.77,-7.49884 L 787.127,-7.895 L 787.558,-8.20836 L 788.045,-8.42519 L 788.567,-8.53603
 L 789.1,-8.53603 L 789.621,-8.42519 L 790.108,-8.20836 L 790.54,-7.895 L 790.896,-7.49884 L 791.163,-7.03717
 L 791.328,-6.53017 L 791.383,-6 L 791.383,-0 L 981.617,-0 L 981.617,-6 L 981.672,-6.53017
 L 981.837,-7.03717 L 982.104,-7.49884 L 982.46,-7.895 L 982.892,-8.20836 L 983.379,-8.42519 L 983.9,-8.53603
 L 984.433,-8.53603 L 984.955,-8.42519 L 985.442,-8.20836 L 985.873,-7.895 L 986.23,-7.49884 L 986.496,-7.03717
 L 986.661,-6.53017 L 986.717,-6 L 986.717,-0 L 1176.95,-0 L 1176.95,-6 L 1177.01,-6.53017
 L 1177.17,-7.03717 L 1177.44,-7.49884 L 1177.79,-7.895 L 1178.22,-8.20836 L 1178.71,-8.42519 L 1179.23,-8.53603
 L 1179.77,-8.53603 L 1180.29,-8.42519 L 1180.77,-8.20836 L 1181.21,-7.895 L 1181.56,-7.49884 L 1181.83,-7.03717
 L 1181.99,-6.53017 L 1182.05,-6 L 1182.05,-0 L 1187,-0 z
M 6.98573,-55.607 L 6.47708,-55.6875 L 5.97964,-55.8208 L 5.49887,-56.0054 L 5.04001,-56.2392 L 4.60811,-56.5196
 L 4.20789,-56.8437 L 3.84373,-57.2079 L 3.51964,-57.6081 L 3.23917,-58.04 L 3.00537,-58.4989 L 2.82082,-58.9796
 L 2.68752,-59.4771 L 2.60696,-59.9857 L 2.58,-60.5 L 2.60696,-61.0143 L 2.68752,-61.5229 L 2.82082,-62.0204
 L 3.00537,-62.5011 L 3.23917,-62.96 L 3.51964,-63.3919 L 3.84373,-63.7921 L 4.20789,-64.1563 L 4.60811,-64.4804
 L 4.95001,-64.7024 L 4.95001,-74 L 5.00574,-74.5302 L 5.17047,-75.0372 L 5.43701,-75.4988 L 5.79373,-75.895
 L 6.22501,-76.2084 L 6.71202,-76.4252 L 7.23346,-76.536 L 7.76654,-76.536 L 8.28798,-76.4252 L 8.77499,-76.2084
 L 9.20627,-75.895 L 9.56299,-75.4988 L 9.82953,-75.0372 L 9.99426,-74.5302 L 10.05,-74 L 10.05,-64.7024
 L 10.3919,-64.4804 L 10.7921,-64.1563 L 11.1563,-63.7921 L 11.4804,-63.3919 L 11.7608,-62.96 L 11.9946,-62.5011
 L 12.1792,-62.0204 L 12.3125,-61.5229 L 12.393,-61.0143 L 12.42,-60.5 L 12.393,-59.9857 L 12.3125,-59.4771
 L 12.1792,-58.9796 L 11.9946,-58.4989 L 11.7608,-58.04 L 11.4804,-57.6081 L 11.1563,-57.2079 L 10.7921,-56.8437
 L 10.3919,-56.5196 L 9.95999,-56.2392 L 9.50113,-56.0054 L 9.02036,-55.8208 L 8.52292,-55.6875 L 8.01427,-55.607
 L 7.5,-55.58 z
M 202.319,-55.607 L 201.81,-55.6875 L 201.313,-55.8208 L 200.832,-56.0054 L 200.373,-56.2392 L 199.941,-56.5196
 L 199.541,-56.8437 L 199.177,-57.2079 L 198.853,-57.6081 L 198.572,-58.04 L 198.339,-58.4989 L 198.154,-58.9796
 L 198.021,-59.4771 L 197.94,-59.9857 L 197.913,-60.5 L 197.94,-61.0143 L 198.021,-61.5229 L 198.154,-62.0204
 L 198.339,-62.5011 L 198.572,-62.96 L 198.853,-63.3919 L 199.177,-63.7921 L 199.541,-64.1563 L 199.941,-64.4804
 L 200.283,-64.7024 L 200.283,-74 L 200.339,-74.5302 L 200.504,-75.0372 L 200.77,-75.4988 L 201.127,-75.895
 L 201.558,-76.2084 L 202.045,-76.4252 L 202.567,-76.536 L 203.1,-76.536 L 203.621,-76.4252 L 204.108,-76.2084
 L 204.54,-75.895 L 204.896,-75.4988 L 205.163,-75.0372 L 205.328,-74.5302 L 205.383,-74 L 205.383,-64.7024
 L 205.725,-64.4804 L 206.125,-64.1563 L 206.49,-63.7921 L 206.814,-63.3919 L 207.094,-62.96 L 207.328,-62.5011
 L 207.513,-62.0204 L 207.646,-61.5229 L 207.726,-61.0143 L 207.753,-60.5 L 207.726,-59.9857 L 207.646,-59.4771
 L 207.513,-58.9796 L 207.328,-58.4989 L 207.094,-58.04 L 206.814,-57.6081 L 206.49,-57.2079 L 206.125,-56.8437
 L 205.725,-56.5196 L 205.293,-56.2392 L 204.834,-56.0054 L 204.354,-55.8208 L 203.856,-55.6875 L 203.348,-55.607
 L 202.833,-55.58 z
M 397.652,-55.607 L 397.144,-55.6875 L 396.646,-55.8208 L 396.166,-56.0054 L 395.707,-56.2392 L 395.275,-56.5196
 L 394.875,-56.8437 L 394.51,-57.2079 L 394.186,-57.6081 L 393.906,-58.04 L 393.672,-58.4989 L 393.487,-58.9796
 L 393.354,-59.4771 L 393.274,-59.9857 L 393.247,-60.5 L 393.274,-61.0143 L 393.354,-61.5229 L 393.487,-62.0204
 L 393.672,-62.5011 L 393.906,-62.96 L 394.186,-63.3919 L 394.51,-63.7921 L 394.875,-64.1563 L 395.275,-64.4804
 L 395.617,-64.7024 L 395.617,-74 L 395.672,-74.5302 L 395.837,-75.0372 L 396.104,-75.4988 L 396.46,-75.895
 L 396.892,-76.2084 L 397.379,-76.4252 L 397.9,-76.536 L 398.433,-76.536 L 398.955,-76.4252 L 399.442,-76.2084
 L 399.873,-75.895 L 400.23,-75.4988 L 400.496,-75.0372 L 400.661,-74.5302 L 400.717,-74 L 400.717,-64.7024
 L 401.059,-64.4804 L 401.459,-64.1563 L 401.823,-63.7921 L 402.147,-63.3919 L 402.427,-62.96 L 402.661,-62.5011
 L 402.846,-62.0204 L 402.979,-61.5229 L 403.06,-61.0143 L 403.087,-60.5 L 403.06,-59.9857 L 402.979,-59.4771
 L 402.846,-58.9796 L 402.661,-58.4989 L 402.427,-58.04 L 402.147,-57.6081 L 401.823,-57.2079 L 401.459,-56.8437
 L 401.059,-56.5196 L 400.627,-56.2392 L 400.168,-56.0054 L 399.687,-55.8208 L 399.19,-55.6875 L 398.681,-55.607
 L 398.167,-55.58 z
M 592.986,-55.607 L 592.477,-55.6875 L 591.98,-55.8208 L 591.499,-56.0054 L 591.04,-56.2392 L 590.608,-56.5196
 L 590.208,-56.8437 L 589.844,-57.2079 L 589.52,-57.6081 L 589.239,-58.04 L 589.005,-58.4989 L 588.821,-58.9796
 L 588.688,-59.4771 L 588.607,-59.9857 L 588.58,-60.5 L 588.607,-61.0143 L 588.688,-61.5229 L 588.821,-62.0204
 L 589.005,-62.5011 L 589.239,-62.96 L 589.52,-63.3919 L 589.844,-63.7921 L 590.208,-64.1563 L 590.608,-64.4804
 L 590.95,-64.7024 L 590.95,-74 L 591.006,-74.5302 L 591.17,-75.0372 L 591.437,-75.4988 L 591.794,-75.895
 L 592.225,-76.2084 L 592.712,-76.4252 L 593.233,-76.536 L 593.767,-76.536 L 594.288,-76.4252 L 594.775,-76.2084
 L 595.206,-75.895 L 595.563,-75.4988 L 595.83,-75.0372 L 595.994,-74.5302 L 596.05,-74 L 596.05,-64.7024
 L 596.392,-64.4804 L 596.792,-64.1563 L 597.156,-63.7921 L 597.48,-63.3919 L 597.761,-62.96 L 597.995,-62.5011
 L 598.179,-62.0204 L 598.312,-61.5229 L 598.393,-61.0143 L 598.42,-60.5 L 598.393,-59.9857 L 598.312,-59.4771
 L 598.179,-58.9796 L 597.995,-58.4989 L 597.761,-58.04 L 597.48,-57.6081 L 597.156,-57.2079 L 596.792,-56.8437
 L 596.392,-56.5196 L 595.96,-56.2392 L 595.501,-56.0054 L 595.02,-55.8208 L 594.523,-55.6875 L 594.014,-55.607
 L 593.5,-55.58 z
M 788.319,-55.607 L 787.81,-55.6875 L 787.313,-55.8208 L 786.832,-56.0054 L 786.373,-56.2392 L 785.941,-56.5196
 L 785.541,-56.8437 L 785.177,-57.2079 L 784.853,-57.6081 L 784.572,-58.04 L 784.339,-58.4989 L 784.154,-58.9796
 L 784.021,-59.4771 L 783.94,-59.9857 L 783.913,-60.5 L 783.94,-61.0143 L 784.021,-61.5229 L 784.154,-62.0204
 L 784.339,-62.5011 L 784.572,-62.96 L 784.853,-63.3919 L 785.177,-63.7921 L 785.541,-64.1563 L 785.941,-64.4804
 L 786.283,-64.7024 L 786.283,-74 L 786.339,-74.5302 L 786.504,-75.0372 L 786.77,-75.4988 L 787.127,-75.895
 L 787.558,-76.2084 L 788.045,-76.4252 L 788.567,-76.536 L 789.1,-76.536 L 789.621,-76.4252 L 790.108,-76.2084
 L 790.54,-75.895 L 790.896,-75.4988 L 791.163,-75.0372 L 791.328,-74.5302 L 791.383,-74 L 791.383,-64.7024
 L 791.725,-64.4804 L 792.125,-64.1563 L 792.49,-63.7921 L 792.814,-63.3919 L 793.094,-62.96 L 793.328,-62.5011
 L 793.513,-62.0204 L 793.646,-61.5229 L 793.726,-61.0143 L 793.753,-60.5 L 793.726,-59.9857 L 793.646,-59.4771
 L 793.513,-58.9796 L 793.328,-58.4989 L 793.094,-58.04 L 792.814,-57.6081 L 792.49,-57.2079 L 792.125,-56.8437
 L 791.725,-56.5196 L 791.293,-56.2392 L 790.834,-56.0054 L 790.354,-55.8208 L 789.856,-55.6875 L 789.348,-55.607
 L 788.833,-55.58 z
M 983.652,-55.607 L 983.144,-55.6875 L 982.646,-55.8208 L 982.166,-56.0054 L 981.707,-56.2392 L 981.275,-56.5196
 L 980.875,-56.8437 L 980.51,-57.2079 L 980.186,-57.6081 L 979.906,-58.04 L 979.672,-58.4989 L 979.487,-58.9796
 L 979.354,-59.4771 L 979.274,-59.9857 L 979.247,-60.5 L 979.274,-61.0143 L 979.354,-61.5229 L 979.487,-62.0204
 L 979.672,-62.5011 L 979.906,-62.96 L 980.186,-63.3919 L 980.51,-63.7921 L 980.875,-64.1563 L 981.275,-64.4804
 L 981.617,-64.7024 L 981.617,-74 L 981.672,-74.5302 L 981.837,-75.0372 L 982.104,-75.4988 L 982.46,-75.895
 L 982.892,-76.2084 L 983.379,-76.4252 L 983.9,-76.536 L 984.433,-76.536 L 984.955,-76.4252 L 985.442,-76.2084
 L 985.873,-75.895 L 986.23,-75.4988 L 986.496,-75.0372 L 986.661,-74.5302 L 986.717,-74 L 986.717,-64.7024
 L 987.059,-64.4804 L 987.459,-64.1563 L 987.823,-63.7921 L 988.147,-63.3919 L 988.427,-62.96 L 988.661,-62.5011
 L 988.846,-62.0204 L 988.979,-61.5229 L 989.06,-61.0143 L 989.087,-60.5 L 989.06,-59.9857 L 988.979,-59.4771
 L 988.846,-58.9796 L 988.661,-58.4989 L 988.427,-58.04 L 988.147,-57.6081 L 987.823,-57.2079 L 987.459,-56.8437
 L 987.059,-56.5196 L 986.627,-56.2392 L 986.168,-56.0054 L 985.687,-55.8208 L 985.19,-55.6875 L 984.681,-55.607
 L 984.167,-55.58 z
M 1178.99,-55.607 L 1178.48,-55.6875 L 1177.98,-55.8208 L 1177.5,-56.0054 L 1177.04,-56.2392 L 1176.61,-56.5196
 L 1176.21,-56.8437 L 1175.84,-57.2079 L 1175.52,-57.6081 L 1175.24,-58.04 L 1175.01,-58.4989 L 1174.82,-58.9796
 L 1174.69,-59.4771 L 1174.61,-59.9857 L 1174.58,-60.5 L 1174.61,-61.0143 L 1174.69,-61.5229 L 1174.82,-62.0204
 L 1175.01,-62.5011 L 1175.24,-62.96 L 1175.52,-63.3919 L 1175.84,-63.7921 L 1176.21,-64.1563 L 1176.61,-64.4804
 L 1176.95,-64.7024 L 1176.95,-74 L 1177.01,-74.5302 L 1177.17,-75.0372 L 1177.44,-75.4988 L 1177.79,-75.895
 L 1178.23,-76.2084 L 1178.71,-76.4252 L 1179.23,-76.536 L 1179.77,-76.536 L 1180.29,-76.4252 L 1180.77,-76.2084
 L 1181.21,-75.895 L 1181.56,-75.4988 L 1181.83,-75.0372 L 1181.99,-74.5302 L 1182.05,-74 L 1182.05,-64.7024
 L 1182.39,-64.4804 L 1182.79,-64.1563 L 1183.16,-63.7921 L 1183.48,-63.3919 L 1183.76,-62.96 L 1183.99,-62.5011
 L 1184.18,-62.0204 L 1184.31,-61.5229 L 1184.39,-61.0143 L 1184.42,-60.5 L 1184.39,-59.9857 L 1184.31,-59.4771
 L 1184.18,-58.9796 L 1183.99,-58.4989 L 1183.76,-58.04 L 1183.48,-57.6081 L 1183.16,-57.2079 L 1182.79,-56.8437
 L 1182.39,-56.5196 L 1181.96,-56.2392 L 1181.5,-56.0054 L 1181.02,-55.8208 L 1180.52,-55.6875 L 1180.01,-55.607
 L 1179.5,-55.58 z
M 996.01,-20.4586 L 995.239,-20.7828 L 994.553,-21.2601 L 993.98,-21.8697 L 993.547,-22.5851 L 993.272,-23.3748
 L 993.167,-24.2878 L 993.167,-58 L 993.254,-58.8316 L 993.512,-59.627 L 993.931,-60.3511 L 994.49,-60.9726
 L 995.167,-61.4641 L 995.931,-61.8042 L 997.167,-62 L 1094.01,-62 L 1094.84,-61.9126 L 1095.63,-61.6542
 L 1096.36,-61.2361 L 1096.98,-60.6765 L 1097.47,-60 L 1097.81,-59.2361 L 1097.98,-58.4181 L 1097.98,-57.5819
 L 1097.81,-56.7639 L 1097.47,-56 L 1096.98,-55.3235 L 1096.36,-54.7639 L 1095.32,-54.2224 L 998.482,-20.5102
 L 997.668,-20.3193 L 996.832,-20.3019 z
M 384.666,-20.3193 L 383.852,-20.5102 L 287.012,-54.2224 L 285.976,-54.7639 L 285.354,-55.3235 L 284.863,-56
 L 284.522,-56.7639 L 284.349,-57.5819 L 284.349,-58.4181 L 284.522,-59.2361 L 284.863,-60 L 285.354,-60.6765
 L 285.976,-61.2361 L 286.7,-61.6542 L 287.495,-61.9126 L 288.327,-62 L 385.167,-62 L 386.403,-61.8042
 L 387.167,-61.4641 L 387.843,-60.9726 L 388.403,-60.3511 L 388.821,-59.627 L 389.079,-58.8316 L 389.167,-58
 L 389.167,-24.2878 L 389.061,-23.3748 L 388.786,-22.5851 L 388.353,-21.8697 L 387.781,-21.2601 L 387.094,-20.7828
 L 386.323,-20.4586 L 385.502,-20.3019 z
M 189.332,-20.3193 L 188.518,-20.5102 L 91.6783,-54.2224 L 90.6423,-54.7639 L 90.0208,-55.3235 L 89.5293,-56
 L 89.1892,-56.7639 L 89.0153,-57.5819 L 89.0153,-58.4181 L 89.1892,-59.2361 L 89.5293,-60 L 90.0208,-60.6765
 L 90.6423,-61.2361 L 91.3664,-61.6542 L 92.1617,-61.9126 L 92.9934,-62 L 189.833,-62 L 191.069,-61.8042
 L 191.833,-61.4641 L 192.51,-60.9726 L 193.069,-60.3511 L 193.488,-59.627 L 193.746,-58.8316 L 193.833,-58
 L 193.833,-24.2878 L 193.728,-23.3748 L 193.453,-22.5851 L 193.02,-21.8697 L 192.447,-21.2601 L 191.761,-20.7828
 L 190.99,-20.4586 L 190.168,-20.3019 z
M 579.999,-20.3193 L 579.185,-20.5102 L 482.345,-54.2224 L 481.309,-54.7639 L 480.687,-55.3235 L 480.196,-56
 L 479.856,-56.7639 L 479.682,-57.5819 L 479.682,-58.4181 L 479.856,-59.2361 L 480.196,-60 L 480.687,-60.6765
 L 481.309,-61.2361 L 482.033,-61.6542 L 482.828,-61.9126 L 483.66,-62 L 580.5,-62 L 581.736,-61.8042
 L 582.5,-61.4641 L 583.177,-60.9726 L 583.736,-60.3511 L 584.154,-59.627 L 584.413,-58.8316 L 584.5,-58
 L 584.5,-24.2878 L 584.394,-23.3748 L 584.119,-22.5851 L 583.686,-21.8697 L 583.114,-21.2601 L 582.427,-20.7828
 L 581.656,-20.4586 L 580.835,-20.3019 z
M 605.343,-20.4586 L 604.573,-20.7828 L 603.886,-21.2601 L 603.314,-21.8697 L 602.881,-22.5851 L 602.606,-23.3748
 L 602.5,-24.2878 L 602.5,-58 L 602.587,-58.8316 L 602.846,-59.627 L 603.264,-60.3511 L 603.823,-60.9726
 L 604.5,-61.4641 L 605.264,-61.8042 L 606.5,-62 L 703.34,-62 L 704.172,-61.9126 L 704.967,-61.6542
 L 705.691,-61.2361 L 706.313,-60.6765 L 706.804,-60 L 707.144,-59.2361 L 707.318,-58.4181 L 707.318,-57.5819
 L 707.144,-56.7639 L 706.804,-56 L 706.313,-55.3235 L 705.691,-54.7639 L 704.655,-54.2224 L 607.815,-20.5102
 L 607.001,-20.3193 L 606.165,-20.3019 z
M 800.677,-20.4586 L 799.906,-20.7828 L 799.219,-21.2601 L 798.647,-21.8697 L 798.214,-22.5851 L 797.939,-23.3748
 L 797.833,-24.2878 L 797.833,-58 L 797.921,-58.8316 L 798.179,-59.627 L 798.597,-60.3511 L 799.157,-60.9726
 L 799.833,-61.4641 L 800.597,-61.8042 L 801.833,-62 L 898.673,-62 L 899.505,-61.9126 L 900.3,-61.6542
 L 901.024,-61.2361 L 901.646,-60.6765 L 902.137,-60 L 902.477,-59.2361 L 902.651,-58.4181 L 902.651,-57.5819
 L 902.477,-56.7639 L 902.137,-56 L 901.646,-55.3235 L 901.024,-54.7639 L 899.988,-54.2224 L 803.148,-20.5102
 L 802.334,-20.3193 L 801.498,-20.3019 z
M 215.833,-18 L 214.597,-18.1958 L 213.833,-18.5359 L 213.157,-19.0274 L 212.597,-19.6489 L 212.179,-20.373
 L 211.921,-21.1684 L 211.833,-22 L 211.833,-55.7122 L 211.939,-56.6252 L 212.214,-57.4149 L 212.647,-58.1303
 L 213.219,-58.7399 L 213.906,-59.2172 L 214.677,-59.5414 L 215.498,-59.6981 L 216.334,-59.6807 L 217.148,-59.4898
 L 313.988,-25.7776 L 315.024,-25.2361 L 315.646,-24.6765 L 316.137,-24 L 316.477,-23.2361 L 316.651,-22.4181
 L 316.651,-21.5819 L 316.477,-20.7639 L 316.137,-20 L 315.646,-19.3235 L 315.024,-18.7639 L 314.3,-18.3458
 L 313.505,-18.0874 L 312.673,-18 z
M 411.167,-18 L 409.931,-18.1958 L 409.167,-18.5359 L 408.49,-19.0274 L 407.931,-19.6489 L 407.512,-20.373
 L 407.254,-21.1684 L 407.167,-22 L 407.167,-55.7122 L 407.272,-56.6252 L 407.547,-57.4149 L 407.98,-58.1303
 L 408.553,-58.7399 L 409.239,-59.2172 L 410.01,-59.5414 L 410.832,-59.6981 L 411.668,-59.6807 L 412.482,-59.4898
 L 509.322,-25.7776 L 510.358,-25.2361 L 510.979,-24.6765 L 511.471,-24 L 511.811,-23.2361 L 511.985,-22.4181
 L 511.985,-21.5819 L 511.811,-20.7639 L 511.471,-20 L 510.979,-19.3235 L 510.358,-18.7639 L 509.634,-18.3458
 L 508.838,-18.0874 L 508.007,-18 z
M 678.993,-18 L 678.162,-18.0874 L 677.366,-18.3458 L 676.642,-18.7639 L 676.021,-19.3235 L 675.529,-20
 L 675.189,-20.7639 L 675.015,-21.5819 L 675.015,-22.4181 L 675.189,-23.2361 L 675.529,-24 L 676.021,-24.6765
 L 676.642,-25.2361 L 677.678,-25.7776 L 774.518,-59.4898 L 775.332,-59.6807 L 776.168,-59.6981 L 776.99,-59.5414
 L 777.761,-59.2172 L 778.447,-58.7399 L 779.02,-58.1303 L 779.453,-57.4149 L 779.728,-56.6252 L 779.833,-55.7122
 L 779.833,-22 L 779.746,-21.1684 L 779.488,-20.373 L 779.069,-19.6489 L 778.51,-19.0274 L 777.833,-18.5359
 L 777.069,-18.1958 L 775.833,-18 z
M 874.327,-18 L 873.495,-18.0874 L 872.7,-18.3458 L 871.976,-18.7639 L 871.354,-19.3235 L 870.863,-20
 L 870.523,-20.7639 L 870.349,-21.5819 L 870.349,-22.4181 L 870.523,-23.2361 L 870.863,-24 L 871.354,-24.6765
 L 871.976,-25.2361 L 873.012,-25.7776 L 969.852,-59.4898 L 970.666,-59.6807 L 971.502,-59.6981 L 972.323,-59.5414
 L 973.094,-59.2172 L 973.781,-58.7399 L 974.353,-58.1303 L 974.786,-57.4149 L 975.061,-56.6252 L 975.167,-55.7122
 L 975.167,-22 L 975.079,-21.1684 L 974.821,-20.373 L 974.403,-19.6489 L 973.843,-19.0274 L 973.167,-18.5359
 L 972.403,-18.1958 L 971.167,-18 z
M 1069.66,-18 L 1068.83,-18.0874 L 1068.03,-18.3458 L 1067.31,-18.7639 L 1066.69,-19.3235 L 1066.2,-20
 L 1065.86,-20.7639 L 1065.68,-21.5819 L 1065.68,-22.4181 L 1065.86,-23.2361 L 1066.2,-24 L 1066.69,-24.6765
 L 1067.31,-25.2361 L 1068.35,-25.7776 L 1163.68,-58.9676 L 1164.5,-59.1585 L 1165.34,-59.1759 L 1166.16,-59.0192
 L 1166.93,-58.695 L 1167.61,-58.2177 L 1168.19,-57.6081 L 1168.62,-56.8927 L 1168.89,-56.103 L 1169,-55.19
 L 1169,-22 L 1168.91,-21.1684 L 1168.65,-20.373 L 1168.24,-19.6489 L 1167.68,-19.0274 L 1167,-18.5359
 L 1166.24,-18.1958 L 1165,-18 z
M 22,-18 L 20.7639,-18.1958 L 20,-18.5359 L 19.3235,-19.0274 L 18.7639,-19.6489 L 18.3458,-20.373
 L 18.0874,-21.1684 L 18,-22 L 18,-55.19 L 18.1056,-56.103 L 18.3805,-56.8927 L 18.8136,-57.6081
 L 19.386,-58.2177 L 20.0726,-58.695 L 20.8435,-59.0192 L 21.6649,-59.1759 L 22.5009,-59.1585 L 23.3151,-58.9676
 L 118.655,-25.7776 L 119.691,-25.2361 L 120.312,-24.6765 L 120.804,-24 L 121.144,-23.2361 L 121.318,-22.4181
 L 121.318,-21.5819 L 121.144,-20.7639 L 120.804,-20 L 120.312,-19.3235 L 119.691,-18.7639 L 118.967,-18.3458
 L 118.172,-18.0874 L 117.34,-18 z
" stroke="black" fill="lightgray" stroke-width="0.5"/>
</svg>
