<?xml version="1.0" standalone="no"?>
<!DOCTYPE svg PUBLIC "-//W3C//DTD SVG 1.1//EN" "http://www.w3.org/Graphics/SVG/1.1/DTD/svg11.dtd">
<svg width="1534mm" height="80mm" viewBox="0 -80 1534 80" xmlns="http://www.w3.org/2000/svg" version="1.1">
<title>OpenSCAD Model</title>
<path d="
M 1534,-80 L 0,-80 L 0,-0 L 4.95,-0 L 4.95,-6 L 5.00572,-6.53017
 L 5.17046,-7.03717 L 5.437,-7.49884 L 5.79372,-7.895 L 6.22499,-8.20836 L 6.71201,-8.42519 L 7.23344,-8.53603
 L 7.76654,-8.53603 L 8.28798,-8.42519 L 8.77499,-8.20836 L 9.20627,-7.895 L 9.56299,-7.49884 L 9.82953,-7.03717
 L 9.99426,-6.53017 L 10.05,-6 L 10.05,-0 L 194.825,-0 L 194.825,-6 L 194.881,-6.53017
 L 195.045,-7.03717 L 195.312,-7.49884 L 195.669,-7.895 L 196.1,-8.20836 L 196.587,-8.42519 L 197.108,-8.53603
 L 197.642,-8.53603 L 198.163,-8.42519 L 198.65,-8.20836 L 199.081,-7.895 L 199.438,-7.49884 L 199.705,-7.03717
 L 199.869,-6.53017 L 199.925,-6 L 199.925,-0 L 384.7,-0 L 384.7,-6 L 384.756,-6.53017
 L 384.92,-7.03717 L 385.187,-7.49884 L 385.544,-7.895 L 385.975,-8.20836 L 386.462,-8.42519 L 386.983,-8.53603
 L 387.517,-8.53603 L 388.038,-8.42519 L 388.525,-8.20836 L 388.956,-7.895 L 389.313,-7.49884 L 389.58,-7.03717
 L 389.744,-6.53017 L 389.8,-6 L 389.8,-0 L 574.575,-0 L 574.575,-6 L 574.631,-6.53017
 L 574.795,-7.03717 L 575.062,-7.49884 L 575.419,-7.895 L 575.85,-8.20836 L 576.337,-8.42519 L 576.858,-8.53603
 L 577.392,-8.53603 L 577.913,-8.42519 L 578.4,-8.20836 L 578.831,-7.895 L 579.188,-7.49884 L 579.455,-7.03717
 L 579.619,-6.53017 L 579.675,-6 L 579.675,-0 L 764.45,-0 L 764.45,-6 L 764.506,-6.53017
 L 764.67,-7.03717 L 764.937,-7.49884 L 765.294,-7.895 L 765.725,-8.20836 L 766.212,-8.42519 L 766.733,-8.53603
 L 767.267,-8.53603 L 767.788,-8.42519 L 768.275,-8.20836 L 768.706,-7.895 L 769.063,-7.49884 L 769.33,-7.03717
 L 769.494,-6.53017 L 769.55,-6 L 769.55,-0 L 954.325,-0 L 954.325,-6 L 954.381,-6.53017
 L 954.545,-7.03717 L 954.812,-7.49884 L 955.169,-7.895 L 955.6,-8.20836 L 956.087,-8.42519 L 956.608,-8.53603
 L 957.142,-8.53603 L 957.663,-8.42519 L 958.15,-8.20836 L 958.581,-7.895 L 958.938,-7.49884 L 959.205,-7.03717
 L 959.369,-6.53017 L 959.425,-6 L 959.425,-0 L 1144.2,-0 L 1144.2,-6 L 1144.26,-6.53017
 L 1144.42,-7.03717 L 1144.69,-7.49884 L 1145.04,-7.895 L 1145.47,-8.20836 L 1145.96,-8.42519 L 1146.48,-8.53603
 L 1147.02,-8.53603 L 1147.54,-8.42519 L 1148.02,-8.20836 L 1148.46,-7.895 L 1148.81,-7.49884 L 1149.08,-7.03717
 L 1149.24,-6.53017 L 1149.3,-6 L 1149.3,-0 L 1334.07,-0 L 1334.07,-6 L 1334.13,-6.53017
 L 1334.3,-7.03717 L 1334.56,-7.49884 L 1334.92,-7.895 L 1335.35,-8.20836 L 1335.84,-8.42519 L 1336.36,-8.53603
 L 1336.89,-8.53603 L 1337.41,-8.42519 L 1337.9,-8.20836 L 1338.33,-7.895 L 1338.69,-7.49884 L 1338.95,-7.03717
 L 1339.12,-6.53017 L 1339.17,-6 L 1339.17,-0 L 1523.95,-0 L 1523.95,-6 L 1524.01,-6.53017
 L 1524.17,-7.03717 L 1524.44,-7.49884 L 1524.79,-7.895 L 1525.22,-8.20836 L 1525.71,-8.42519 L 1526.23,-8.53603
 L 1526.77,-8.53603 L 1527.29,-8.42519 L 1527.77,-8.20836 L 1528.21,-7.895 L 1528.56,-7.49884 L 1528.83,-7.03717
 L 1528.99,-6.53017 L 1529.05,-6 L 1529.05,-0 L 1534,-0 z
M 196.861,-55.607 L 196.352,-55.6875 L 195.855,-55.8208 L 195.374,-56.0054 L 194.915,-56.2392 L 194.483,-56.5196
 L 194.083,-56.8437 L 193.719,-57.2079 L 193.395,-57.6081 L 193.114,-58.04 L 192.88,-58.4989 L 192.696,-58.9796
 L 192.563,-59.4771 L 192.482,-59.9857 L 192.455,-60.5 L 192.482,-61.0143 L 192.563,-61.5229 L 192.696,-62.0204
 L 192.88,-62.5011 L 193.114,-62.96 L 193.395,-63.3919 L 193.719,-63.7921 L 194.083,-64.1563 L 194.483,-64.4804
 L 194.825,-64.7024 L 194.825,-74 L 194.881,-74.5302 L 195.045,-75.0372 L 195.312,-75.4988 L 195.669,-75.895
 L 196.1,-76.2084 L 196.587,-76.4252 L 197.108,-76.536 L 197.642,-76.536 L 198.163,-76.4252 L 198.65,-76.2084
 L 199.081,-75.895 L 199.438,-75.4988 L 199.705,-75.0372 L 199.869,-74.5302 L 199.925,-74 L 199.925,-64.7024
 L 200.267,-64.4804 L 200.667,-64.1563 L 201.031,-63.7921 L 201.355,-63.3919 L 201.636,-62.96 L 201.87,-62.5011
 L 202.054,-62.0204 L 202.187,-61.5229 L 202.268,-61.0143 L 202.295,-60.5 L 202.268,-59.9857 L 202.187,-59.4771
 L 202.054,-58.9796 L 201.87,-58.4989 L 201.636,-58.04 L 201.355,-57.6081 L 201.031,-57.2079 L 200.667,-56.8437
 L 200.267,-56.5196 L 199.835,-56.2392 L 199.376,-56.0054 L 198.895,-55.8208 L 198.398,-55.6875 L 197.889,-55.607
 L 197.375,-55.58 z
M 1146.24,-55.607 L 1145.73,-55.6875 L 1145.23,-55.8208 L 1144.75,-56.0054 L 1144.29,-56.2392 L 1143.86,-56.5196
 L 1143.46,-56.8437 L 1143.09,-57.2079 L 1142.77,-57.6081 L 1142.49,-58.04 L 1142.26,-58.4989 L 1142.07,-58.9796
 L 1141.94,-59.4771 L 1141.86,-59.9857 L 1141.83,-60.5 L 1141.86,-61.0143 L 1141.94,-61.5229 L 1142.07,-62.0204
 L 1142.26,-62.5011 L 1142.49,-62.96 L 1142.77,-63.3919 L 1143.09,-63.7921 L 1143.46,-64.1563 L 1143.86,-64.4804
 L 1144.2,-64.7024 L 1144.2,-74 L 1144.26,-74.5302 L 1144.42,-75.0372 L 1144.69,-75.4988 L 1145.04,-75.895
 L 1145.48,-76.2084 L 1145.96,-76.4252 L 1146.48,-76.536 L 1147.02,-76.536 L 1147.54,-76.4252 L 1148.02,-76.2084
 L 1148.46,-75.895 L 1148.81,-75.4988 L 1149.08,-75.0372 L 1149.24,-74.5302 L 1149.3,-74 L 1149.3,-64.7024
 L 1149.64,-64.4804 L 1150.04,-64.1563 L 1150.41,-63.7921 L 1150.73,-63.3919 L 1151.01,-62.96 L 1151.24,-62.5011
 L 1151.43,-62.0204 L 1151.56,-61.5229 L 1151.64,-61.0143 L 1151.67,-60.5 L 1151.64,-59.9857 L 1151.56,-59.4771
 L 1151.43,-58.9796 L 1151.24,-58.4989 L 1151.01,-58.04 L 1150.73,-57.6081 L 1150.41,-57.2079 L 1150.04,-56.8437
 L 1149.64,-56.5196 L 1149.21,-56.2392 L 1148.75,-56.0054 L 1148.27,-55.8208 L 1147.77,-55.6875 L 1147.26,-55.607
 L 1146.75,-55.58 z
M 956.361,-55.607 L 955.852,-55.6875 L 955.355,-55.8208 L 954.874,-56.0054 L 954.415,-56.2392 L 953.983,-56.5196
 L 953.583,-56.8437 L 953.219,-57.2079 L 952.895,-57.6081 L 952.614,-58.04 L 952.38,-58.4989 L 952.196,-58.9796
 L 952.063,-59.4771 L 951.982,-59.9857 L 951.955,-60.5 L 951.982,-61.0143 L 952.063,-61.5229 L 952.196,-62.0204
 L 952.38,-62.5011 L 952.614,-62.96 L 952.895,-63.3919 L 953.219,-63.7921 L 953.583,-64.1563 L 953.983,-64.4804
 L 954.325,-64.7024 L 954.325,-74 L 954.381,-74.5302 L 954.545,-75.0372 L 954.812,-75.4988 L 955.169,-75.895
 L 955.6,-76.2084 L 956.087,-76.4252 L 956.608,-76.536 L 957.142,-76.536 L 957.663,-76.4252 L 958.15,-76.2084
 L 958.581,-75.895 L 958.938,-75.4988 L 959.205,-75.0372 L 959.369,-74.5302 L 959.425,-74 L 959.425,-64.7024
 L 959.767,-64.4804 L 960.167,-64.1563 L 960.531,-63.7921 L 960.855,-63.3919 L 961.136,-62.96 L 961.37,-62.5011
 L 961.554,-62.0204 L 961.687,-61.5229 L 961.768,-61.0143 L 961.795,-60.5 L 961.768,-59.9857 L 961.687,-59.4771
 L 961.554,-58.9796 L 961.37,-58.4989 L 961.136,-58.04 L 960.855,-57.6081 L 960.531,-57.2079 L 960.167,-56.8437
 L 959.767,-56.5196 L 959.335,-56.2392 L 958.876,-56.0054 L 958.395,-55.8208 L 957.898,-55.6875 L 957.389,-55.607
 L 956.875,-55.58 z
M 6.98573,-55.607 L 6.47708,-55.6875 L 5.97964,-55.8208 L 5.49887,-56.0054 L 5.04001,-56.2392 L 4.60811,-56.5196
 L 4.20789,-56.8437 L 3.84373,-57.2079 L 3.51964,-57.6081 L 3.23917,-58.04 L 3.00537,-58.4989 L 2.82082,-58.9796
 L 2.68752,-59.4771 L 2.60696,-59.9857 L 2.58,-60.5 L 2.60696,-61.0143 L 2.68752,-61.5229 L 2.82082,-62.0204
 L 3.00537,-62.5011 L 3.23917,-62.96 L 3.51964,-63.3919 L 3.84373,-63.7921 L 4.20789,-64.1563 L 4.60811,-64.4804
 L 4.95001,-64.7024 L 4.95001,-74 L 5.00574,-74.5302 L 5.17047,-75.0372 L 5.43701,-75.4988 L 5.79373,-75.895
 L 6.22501,-76.2084 L 6.71202,-76.4252 L 7.23346,-76.536 L 7.76654,-76.536 L 8.28798,-76.4252 L 8.77499,-76.2084
 L 9.20627,-75.895 L 9.56299,-75.4988 L 9.82953,-75.0372 L 9.99426,-74.5302 L 10.05,-74 L 10.05,-64.7024
 L 10.3919,-64.4804 L 10.7921,-64.1563 L 11.1563,-63.7921 L 11.4804,-63.3919 L 11.7608,-62.96 L 11.9946,-62.5011
 L 12.1792,-62.0204 L 12.3125,-61.5229 L 12.393,-61.0143 L 12.42,-60.5 L 12.393,-59.9857 L 12.3125,-59.4771
 L 12.1792,-58.9796 L 11.9946,-58.4989 L 11.7608,-58.04 L 11.4804,-57.6081 L 11.1563,-57.2079 L 10.7921,-56.8437
 L 10.3919,-56.5196 L 9.95999,-56.2392 L 9.50113,-56.0054 L 9.02036,-55.8208 L 8.52292,-55.6875 L 8.01427,-55.607
 L 7.5,-55.58 z
M 766.486,-55.607 L 765.977,-55.6875 L 765.48,-55.8208 L 764.999,-56.0054 L 764.54,-56.2392 L 764.108,-56.5196
 L 763.708,-56.8437 L 763.344,-57.2079 L 763.02,-57.6081 L 762.739,-58.04 L 762.505,-58.4989 L 762.321,-58.9796
 L 762.188,-59.4771 L 762.107,-59.9857 L 762.08,-60.5 L 762.107,-61.0143 L 762.188,-61.5229 L 762.321,-62.0204
 L 762.505,-62.5011 L 762.739,-62.96 L 763.02,-63.3919 L 763.344,-63.7921 L 763.708,-64.1563 L 764.108,-64.4804
 L 764.45,-64.7024 L 764.45,-74 L 764.506,-74.5302 L 764.67,-75.0372 L 764.937,-75.4988 L 765.294,-75.895
 L 765.725,-76.2084 L 766.212,-76.4252 L 766.733,-76.536 L 767.267,-76.536 L 767.788,-76.4252 L 768.275,-76.2084
 L 768.706,-75.895 L 769.063,-75.4988 L 769.33,-75.0372 L 769.494,-74.5302 L 769.55,-74 L 769.55,-64.7024
 L 769.892,-64.4804 L 770.292,-64.1563 L 770.656,-63.7921 L 770.98,-63.3919 L 771.261,-62.96 L 771.495,-62.5011
 L 771.679,-62.0204 L 771.812,-61.5229 L 771.893,-61.0143 L 771.92,-60.5 L 771.893,-59.9857 L 771.812,-59.4771
 L 771.679,-58.9796 L 771.495,-58.4989 L 771.261,-58.04 L 770.98,-57.6081 L 770.656,-57.2079 L 770.292,-56.8437
 L 769.892,-56.5196 L 769.46,-56.2392 L 769.001,-56.0054 L 768.52,-55.8208 L 768.023,-55.6875 L 767.514,-55.607
 L 767,-55.58 z
M 1336.11,-55.607 L 1335.6,-55.6875 L 1335.1,-55.8208 L 1334.62,-56.0054 L 1334.17,-56.2392 L 1333.73,-56.5196
 L 1333.33,-56.8437 L 1332.97,-57.2079 L 1332.64,-57.6081 L 1332.36,-58.04 L 1332.13,-58.4989 L 1331.95,-58.9796
 L 1331.81,-59.4771 L 1331.73,-59.9857 L 1331.71,-60.5 L 1331.73,-61.0143 L 1331.81,-61.5229 L 1331.95,-62.0204
 L 1332.13,-62.5011 L 1332.36,-62.96 L 1332.64,-63.3919 L 1332.97,-63.7921 L 1333.33,-64.1563 L 1333.73,-64.4804
 L 1334.08,-64.7024 L 1334.08,-74 L 1334.13,-74.5302 L 1334.3,-75.0372 L 1334.56,-75.4988 L 1334.92,-75.895
 L 1335.35,-76.2084 L 1335.84,-76.4252 L 1336.36,-76.536 L 1336.89,-76.536 L 1337.41,-76.4252 L 1337.9,-76.2084
 L 1338.33,-75.895 L 1338.69,-75.4988 L 1338.95,-75.0372 L 1339.12,-74.5302 L 1339.17,-74 L 1339.17,-64.7024
 L 1339.52,-64.4804 L 1339.92,-64.1563 L 1340.28,-63.7921 L 1340.61,-63.3919 L 1340.89,-62.96 L 1341.12,-62.5011
 L 1341.3,-62.0204 L 1341.44,-61.5229 L 1341.52,-61.0143 L 1341.54,-60.5 L 1341.52,-59.9857 L 1341.44,-59.4771
 L 1341.3,-58.9796 L 1341.12,-58.4989 L 1340.89,-58.04 L 1340.61,-57.6081 L 1340.28,-57.2079 L 1339.92,-56.8437
 L 1339.52,-56.5196 L 1339.08,-56.2392 L 1338.63,-56.0054 L 1338.15,-55.8208 L 1337.65,-55.6875 L 1337.14,-55.607
 L 1336.62,-55.58 z
M 576.611,-55.607 L 576.102,-55.6875 L 575.605,-55.8208 L 575.124,-56.0054 L 574.665,-56.2392 L 574.233,-56.5196
 L 573.833,-56.8437 L 573.469,-57.2079 L 573.145,-57.6081 L 572.864,-58.04 L 572.63,-58.4989 L 572.446,-58.9796
 L 572.313,-59.4771 L 572.232,-59.9857 L 572.205,-60.5 L 572.232,-61.0143 L 572.313,-61.5229 L 572.446,-62.0204
 L 572.63,-62.5011 L 572.864,-62.96 L 573.145,-63.3919 L 573.469,-63.7921 L 573.833,-64.1563 L 574.233,-64.4804
 L 574.575,-64.7024 L 574.575,-74 L 574.631,-74.5302 L 574.795,-75.0372 L 575.062,-75.4988 L 575.419,-75.895
 L 575.85,-76.2084 L 576.337,-76.4252 L 576.858,-76.536 L 577.392,-76.536 L 577.913,-76.4252 L 578.4,-76.2084
 L 578.831,-75.895 L 579.188,-75.4988 L 579.455,-75.0372 L 579.619,-74.5302 L 579.675,-74 L 579.675,-64.7024
 L 580.017,-64.4804 L 580.417,-64.1563 L 580.781,-63.7921 L 581.105,-63.3919 L 581.386,-62.96 L 581.62,-62.5011
 L 581.804,-62.0204 L 581.937,-61.5229 L 582.018,-61.0143 L 582.045,-60.5 L 582.018,-59.9857 L 581.937,-59.4771
 L 581.804,-58.9796 L 581.62,-58.4989 L 581.386,-58.04 L 581.105,-57.6081 L 580.781,-57.2079 L 580.417,-56.8437
 L 580.017,-56.5196 L 579.585,-56.2392 L 579.126,-56.0054 L 578.645,-55.8208 L 578.148,-55.6875 L 577.639,-55.607
 L 577.125,-55.58 z
M 386.736,-55.607 L 386.227,-55.6875 L 385.73,-55.8208 L 385.249,-56.0054 L 384.79,-56.2392 L 384.358,-56.5196
 L 383.958,-56.8437 L 383.594,-57.2079 L 383.27,-57.6081 L 382.989,-58.04 L 382.755,-58.4989 L 382.571,-58.9796
 L 382.438,-59.4771 L 382.357,-59.9857 L 382.33,-60.5 L 382.357,-61.0143 L 382.438,-61.5229 L 382.571,-62.0204
 L 382.755,-62.5011 L 382.989,-62.96 L 383.27,-63.3919 L 383.594,-63.7921 L 383.958,-64.1563 L 384.358,-64.4804
 L 384.7,-64.7024 L 384.7,-74 L 384.756,-74.5302 L 384.92,-75.0372 L 385.187,-75.4988 L 385.544,-75.895
 L 385.975,-76.2084 L 386.462,-76.4252 L 386.983,-76.536 L 387.517,-76.536 L 388.038,-76.4252 L 388.525,-76.2084
 L 388.956,-75.895 L 389.313,-75.4988 L 389.58,-75.0372 L 389.744,-74.5302 L 389.8,-74 L 389.8,-64.7024
 L 390.142,-64.4804 L 390.542,-64.1563 L 390.906,-63.7921 L 391.23,-63.3919 L 391.511,-62.96 L 391.745,-62.5011
 L 391.929,-62.0204 L 392.062,-61.5229 L 392.143,-61.0143 L 392.17,-60.5 L 392.143,-59.9857 L 392.062,-59.4771
 L 391.929,-58.9796 L 391.745,-58.4989 L 391.511,-58.04 L 391.23,-57.6081 L 390.906,-57.2079 L 390.542,-56.8437
 L 390.142,-56.5196 L 389.71,-56.2392 L 389.251,-56.0054 L 388.77,-55.8208 L 388.273,-55.6875 L 387.764,-55.607
 L 387.25,-55.58 z
M 1525.99,-55.607 L 1525.48,-55.6875 L 1524.98,-55.8208 L 1524.5,-56.0054 L 1524.04,-56.2392 L 1523.61,-56.5196
 L 1523.21,-56.8437 L 1522.84,-57.2079 L 1522.52,-57.6081 L 1522.24,-58.04 L 1522.01,-58.4989 L 1521.82,-58.9796
 L 1521.69,-59.4771 L 1521.61,-59.9857 L 1521.58,-60.5 L 1521.61,-61.0143 L 1521.69,-61.5229 L 1521.82,-62.0204
 L 1522.01,-62.5011 L 1522.24,-62.96 L 1522.52,-63.3919 L 1522.84,-63.7921 L 1523.21,-64.1563 L 1523.61,-64.4804
 L 1523.95,-64.7024 L 1523.95,-74 L 1524.01,-74.5302 L 1524.17,-75.0372 L 1524.44,-75.4988 L 1524.79,-75.895
 L 1525.23,-76.2084 L 1525.71,-76.4252 L 1526.23,-76.536 L 1526.77,-76.536 L 1527.29,-76.4252 L 1527.77,-76.2084
 L 1528.21,-75.895 L 1528.56,-75.4988 L 1528.83,-75.0372 L 1528.99,-74.5302 L 1529.05,-74 L 1529.05,-64.7024
 L 1529.39,-64.4804 L 1529.79,-64.1563 L 1530.16,-63.7921 L 1530.48,-63.3919 L 1530.76,-62.96 L 1530.99,-62.5011
 L 1531.18,-62.0204 L 1531.31,-61.5229 L 1531.39,-61.0143 L 1531.42,-60.5 L 1531.39,-59.9857 L 1531.31,-59.4771
 L 1531.18,-58.9796 L 1530.99,-58.4989 L 1530.76,-58.04 L 1530.48,-57.6081 L 1530.16,-57.2079 L 1529.79,-56.8437
 L 1529.39,-56.5196 L 1528.96,-56.2392 L 1528.5,-56.0054 L 1528.02,-55.8208 L 1527.52,-55.6875 L 1527.01,-55.607
 L 1526.5,-55.58 z
M 373.714,-20.4942 L 372.901,-20.6923 L 279.243,-54.2342 L 278.241,-54.7639 L 277.619,-55.3235 L 277.128,-56
 L 276.787,-56.7639 L 276.614,-57.5819 L 276.614,-58.4181 L 276.787,-59.2361 L 277.128,-60 L 277.619,-60.6765
 L 278.241,-61.2361 L 278.965,-61.6542 L 279.76,-61.9126 L 280.592,-62 L 374.25,-62 L 375.486,-61.8042
 L 376.25,-61.4641 L 376.927,-60.9726 L 377.486,-60.3511 L 377.904,-59.627 L 378.163,-58.8316 L 378.25,-58
 L 378.25,-24.4581 L 378.136,-23.5105 L 377.854,-22.7232 L 377.415,-22.0118 L 376.837,-21.4072 L 376.146,-20.9361
 L 375.372,-20.6188 L 374.55,-20.4693 z
M 563.589,-20.4942 L 562.776,-20.6923 L 469.118,-54.2342 L 468.116,-54.7639 L 467.494,-55.3235 L 467.003,-56
 L 466.662,-56.7639 L 466.489,-57.5819 L 466.489,-58.4181 L 466.662,-59.2361 L 467.003,-60 L 467.494,-60.6765
 L 468.116,-61.2361 L 468.84,-61.6542 L 469.635,-61.9126 L 470.467,-62 L 564.125,-62 L 565.361,-61.8042
 L 566.125,-61.4641 L 566.802,-60.9726 L 567.361,-60.3511 L 567.779,-59.627 L 568.038,-58.8316 L 568.125,-58
 L 568.125,-24.4581 L 568.011,-23.5105 L 567.729,-22.7232 L 567.29,-22.0118 L 566.712,-21.4072 L 566.021,-20.9361
 L 565.247,-20.6188 L 564.425,-20.4693 z
M 1348.5,-20.6188 L 1347.73,-20.9361 L 1347.04,-21.4072 L 1346.46,-22.0118 L 1346.02,-22.7232 L 1345.74,-23.5105
 L 1345.62,-24.4581 L 1345.62,-58 L 1345.71,-58.8316 L 1345.97,-59.627 L 1346.39,-60.3511 L 1346.95,-60.9726
 L 1347.62,-61.4641 L 1348.39,-61.8042 L 1349.62,-62 L 1443.28,-62 L 1444.11,-61.9126 L 1444.91,-61.6542
 L 1445.63,-61.2361 L 1446.26,-60.6765 L 1446.75,-60 L 1447.09,-59.2361 L 1447.26,-58.4181 L 1447.26,-57.5819
 L 1447.09,-56.7639 L 1446.75,-56 L 1446.26,-55.3235 L 1445.63,-54.7639 L 1444.63,-54.2342 L 1350.97,-20.6923
 L 1350.16,-20.4942 L 1349.33,-20.4693 z
M 753.464,-20.4942 L 752.651,-20.6923 L 658.993,-54.2342 L 657.991,-54.7639 L 657.369,-55.3235 L 656.878,-56
 L 656.537,-56.7639 L 656.364,-57.5819 L 656.364,-58.4181 L 656.537,-59.2361 L 656.878,-60 L 657.369,-60.6765
 L 657.991,-61.2361 L 658.715,-61.6542 L 659.51,-61.9126 L 660.342,-62 L 754,-62 L 755.236,-61.8042
 L 756,-61.4641 L 756.677,-60.9726 L 757.236,-60.3511 L 757.654,-59.627 L 757.913,-58.8316 L 758,-58
 L 758,-24.4581 L 757.886,-23.5105 L 757.604,-22.7232 L 757.165,-22.0118 L 756.587,-21.4072 L 755.896,-20.9361
 L 755.122,-20.6188 L 754.3,-20.4693 z
M 183.839,-20.4942 L 183.026,-20.6923 L 89.368,-54.2342 L 88.3655,-54.7639 L 87.7441,-55.3235 L 87.2526,-56
 L 86.9124,-56.7639 L 86.7386,-57.5819 L 86.7386,-58.4181 L 86.9124,-59.2361 L 87.2526,-60 L 87.7441,-60.6765
 L 88.3655,-61.2361 L 89.0897,-61.6542 L 89.885,-61.9126 L 90.7167,-62 L 184.375,-62 L 185.611,-61.8042
 L 186.375,-61.4641 L 187.052,-60.9726 L 187.611,-60.3511 L 188.029,-59.627 L 188.288,-58.8316 L 188.375,-58
 L 188.375,-24.4581 L 188.261,-23.5105 L 187.979,-22.7232 L 187.54,-22.0118 L 186.962,-21.4072 L 186.271,-20.9361
 L 185.497,-20.6188 L 184.675,-20.4693 z
M 778.878,-20.6188 L 778.104,-20.9361 L 777.413,-21.4072 L 776.835,-22.0118 L 776.396,-22.7232 L 776.114,-23.5105
 L 776,-24.4581 L 776,-58 L 776.087,-58.8316 L 776.346,-59.627 L 776.764,-60.3511 L 777.323,-60.9726
 L 778,-61.4641 L 778.764,-61.8042 L 780,-62 L 873.658,-62 L 874.49,-61.9126 L 875.285,-61.6542
 L 876.009,-61.2361 L 876.631,-60.6765 L 877.122,-60 L 877.463,-59.2361 L 877.636,-58.4181 L 877.636,-57.5819
 L 877.463,-56.7639 L 877.122,-56 L 876.631,-55.3235 L 876.009,-54.7639 L 875.007,-54.2342 L 781.349,-20.6923
 L 780.536,-20.4942 L 779.7,-20.4693 z
M 968.753,-20.6188 L 967.979,-20.9361 L 967.288,-21.4072 L 966.71,-22.0118 L 966.271,-22.7232 L 965.989,-23.5105
 L 965.875,-24.4581 L 965.875,-58 L 965.962,-58.8316 L 966.221,-59.627 L 966.639,-60.3511 L 967.198,-60.9726
 L 967.875,-61.4641 L 968.639,-61.8042 L 969.875,-62 L 1063.53,-62 L 1064.36,-61.9126 L 1065.16,-61.6542
 L 1065.88,-61.2361 L 1066.51,-60.6765 L 1067,-60 L 1067.34,-59.2361 L 1067.51,-58.4181 L 1067.51,-57.5819
 L 1067.34,-56.7639 L 1067,-56 L 1066.51,-55.3235 L 1065.88,-54.7639 L 1064.88,-54.2342 L 971.224,-20.6923
 L 970.411,-20.4942 L 969.575,-20.4693 z
M 1158.63,-20.6188 L 1157.85,-20.9361 L 1157.16,-21.4072 L 1156.59,-22.0118 L 1156.15,-22.7232 L 1155.86,-23.5105
 L 1155.75,-24.4581 L 1155.75,-58 L 1155.84,-58.8316 L 1156.1,-59.627 L 1156.51,-60.3511 L 1157.07,-60.9726
 L 1157.75,-61.4641 L 1158.51,-61.8042 L 1159.75,-62 L 1253.41,-62 L 1254.24,-61.9126 L 1255.04,-61.6542
 L 1255.76,-61.2361 L 1256.38,-60.6765 L 1256.87,-60 L 1257.21,-59.2361 L 1257.39,-58.4181 L 1257.39,-57.5819
 L 1257.21,-56.7639 L 1256.87,-56 L 1256.38,-55.3235 L 1255.76,-54.7639 L 1254.76,-54.2342 L 1161.1,-20.6923
 L 1160.29,-20.4942 L 1159.45,-20.4693 z
M 210.375,-18 L 209.139,-18.1958 L 208.375,-18.5359 L 207.698,-19.0274 L 207.139,-19.6489 L 206.721,-20.373
 L 206.462,-21.1684 L 206.375,-22 L 206.375,-55.5419 L 206.489,-56.4895 L 206.771,-57.2768 L 207.21,-57.9882
 L 207.788,-58.5927 L 208.479,-59.0639 L 209.253,-59.3812 L 210.075,-59.5306 L 210.911,-59.5058 L 211.724,-59.3077
 L 305.382,-25.7658 L 306.384,-25.2361 L 307.006,-24.6765 L 307.497,-24 L 307.838,-23.2361 L 308.011,-22.4181
 L 308.011,-21.5819 L 307.838,-20.7639 L 307.497,-20 L 307.006,-19.3235 L 306.384,-18.7639 L 305.66,-18.3458
 L 304.865,-18.0874 L 304.033,-18 z
M 400.25,-18 L 399.014,-18.1958 L 398.25,-18.5359 L 397.573,-19.0274 L 397.014,-19.6489 L 396.596,-20.373
 L 396.337,-21.1684 L 396.25,-22 L 396.25,-55.5419 L 396.364,-56.4895 L 396.646,-57.2768 L 397.085,-57.9882
 L 397.663,-58.5927 L 398.354,-59.0639 L 399.128,-59.3812 L 399.95,-59.5306 L 400.786,-59.5058 L 401.599,-59.3077
 L 495.257,-25.7658 L 496.259,-25.2361 L 496.881,-24.6765 L 497.372,-24 L 497.713,-23.2361 L 497.886,-22.4181
 L 497.886,-21.5819 L 497.713,-20.7639 L 497.372,-20 L 496.881,-19.3235 L 496.259,-18.7639 L 495.535,-18.3458
 L 494.74,-18.0874 L 493.908,-18 z
M 590.125,-18 L 588.889,-18.1958 L 588.125,-18.5359 L 587.448,-19.0274 L 586.889,-19.6489 L 586.471,-20.373
 L 586.212,-21.1684 L 586.125,-22 L 586.125,-55.5419 L 586.239,-56.4895 L 586.521,-57.2768 L 586.96,-57.9882
 L 587.538,-58.5927 L 588.229,-59.0639 L 589.003,-59.3812 L 589.825,-59.5306 L 590.661,-59.5058 L 591.474,-59.3077
 L 685.132,-25.7658 L 686.134,-25.2361 L 686.756,-24.6765 L 687.247,-24 L 687.588,-23.2361 L 687.761,-22.4181
 L 687.761,-21.5819 L 687.588,-20.7639 L 687.247,-20 L 686.756,-19.3235 L 686.134,-18.7639 L 685.41,-18.3458
 L 684.615,-18.0874 L 683.783,-18 z
M 850.217,-18 L 849.385,-18.0874 L 848.59,-18.3458 L 847.866,-18.7639 L 847.244,-19.3235 L 846.753,-20
 L 846.412,-20.7639 L 846.239,-21.5819 L 846.239,-22.4181 L 846.412,-23.2361 L 846.753,-24 L 847.244,-24.6765
 L 847.866,-25.2361 L 848.868,-25.7658 L 942.526,-59.3077 L 943.339,-59.5058 L 944.175,-59.5306 L 944.997,-59.3812
 L 945.771,-59.0639 L 946.462,-58.5927 L 947.04,-57.9882 L 947.479,-57.2768 L 947.761,-56.4895 L 947.875,-55.5419
 L 947.875,-22 L 947.788,-21.1684 L 947.529,-20.373 L 947.111,-19.6489 L 946.552,-19.0274 L 945.875,-18.5359
 L 945.111,-18.1958 L 943.875,-18 z
M 1040.09,-18 L 1039.26,-18.0874 L 1038.46,-18.3458 L 1037.74,-18.7639 L 1037.12,-19.3235 L 1036.63,-20
 L 1036.29,-20.7639 L 1036.11,-21.5819 L 1036.11,-22.4181 L 1036.29,-23.2361 L 1036.63,-24 L 1037.12,-24.6765
 L 1037.74,-25.2361 L 1038.74,-25.7658 L 1132.4,-59.3077 L 1133.21,-59.5058 L 1134.05,-59.5306 L 1134.87,-59.3812
 L 1135.65,-59.0639 L 1136.34,-58.5927 L 1136.91,-57.9882 L 1137.35,-57.2768 L 1137.64,-56.4895 L 1137.75,-55.5419
 L 1137.75,-22 L 1137.66,-21.1684 L 1137.4,-20.373 L 1136.99,-19.6489 L 1136.43,-19.0274 L 1135.75,-18.5359
 L 1134.99,-18.1958 L 1133.75,-18 z
M 1229.97,-18 L 1229.14,-18.0874 L 1228.34,-18.3458 L 1227.62,-18.7639 L 1226.99,-19.3235 L 1226.5,-20
 L 1226.16,-20.7639 L 1225.99,-21.5819 L 1225.99,-22.4181 L 1226.16,-23.2361 L 1226.5,-24 L 1226.99,-24.6765
 L 1227.62,-25.2361 L 1228.62,-25.7658 L 1322.28,-59.3077 L 1323.09,-59.5058 L 1323.92,-59.5306 L 1324.75,-59.3812
 L 1325.52,-59.0639 L 1326.21,-58.5927 L 1326.79,-57.9882 L 1327.23,-57.2768 L 1327.51,-56.4895 L 1327.62,-55.5419
 L 1327.62,-22 L 1327.54,-21.1684 L 1327.28,-20.373 L 1326.86,-19.6489 L 1326.3,-19.0274 L 1325.62,-18.5359
 L 1324.86,-18.1958 L 1323.62,-18 z
M 1419.84,-18 L 1419.01,-18.0874 L 1418.21,-18.3458 L 1417.49,-18.7639 L 1416.87,-19.3235 L 1416.38,-20
 L 1416.04,-20.7639 L 1415.86,-21.5819 L 1415.86,-22.4181 L 1416.04,-23.2361 L 1416.38,-24 L 1416.87,-24.6765
 L 1417.49,-25.2361 L 1418.49,-25.7658 L 1510.65,-58.7705 L 1511.46,-58.9686 L 1512.3,-58.9934 L 1513.12,-58.844
 L 1513.9,-58.5267 L 1514.59,-58.0555 L 1515.16,-57.451 L 1515.6,-56.7396 L 1515.89,-55.9523 L 1516,-55.0047
 L 1516,-22 L 1515.91,-21.1684 L 1515.65,-20.373 L 1515.24,-19.6489 L 1514.68,-19.0274 L 1514,-18.5359
 L 1513.24,-18.1958 L 1512,-18 z
M 22,-18 L 20.7639,-18.1958 L 20,-18.5359 L 19.3235,-19.0274 L 18.7639,-19.6489 L 18.3458,-20.373
 L 18.0874,-21.1684 L 18,-22 L 18,-55.0047 L 18.1139,-55.9523 L 18.3958,-56.7396 L 18.8353,-57.451
 L 19.4131,-58.0555 L 20.1039,-58.5267 L 20.8776,-58.844 L 21.7004,-58.9934 L 22.5362,-58.9686 L 23.3486,-58.7705
 L 115.507,-25.7658 L 116.509,-25.2361 L 117.131,-24.6765 L 117.622,-24 L 117.963,-23.2361 L 118.136,-22.4181
 L 118.136,-21.5819 L 117.963,-20.7639 L 117.622,-20 L 117.131,-19.3235 L 116.509,-18.7639 L 115.785,-18.3458
 L 114.99,-18.0874 L 114.158,-18 z
" stroke="black" fill="lightgray" stroke-width="0.5"/>
</svg>
