<?xml version="1.0" standalone="no"?>
<!DOCTYPE svg PUBLIC "-//W3C//DTD SVG 1.1//EN" "http://www.w3.org/Graphics/SVG/1.1/DTD/svg11.dtd">
<svg width="768mm" height="80mm" viewBox="0 -80 768 80" xmlns="http://www.w3.org/2000/svg" version="1.1">
<title>OpenSCAD Model</title>
<path d="
M 768,-80 L 0,-80 L 0,-0 L 4.95,-0 L 4.95,-6 L 5.00572,-6.53017
 L 5.17046,-7.03717 L 5.437,-7.49884 L 5.79372,-7.895 L 6.22499,-8.20836 L 6.71201,-8.42519 L 7.23344,-8.53603
 L 7.76654,-8.53603 L 8.28798,-8.42519 L 8.77499,-8.20836 L 9.20627,-7.895 L 9.56299,-7.49884 L 9.82953,-7.03717
 L 9.99426,-6.53017 L 10.05,-6 L 10.05,-0 L 155.55,-0 L 155.55,-6 L 155.606,-6.53017
 L 155.77,-7.03717 L 156.037,-7.49884 L 156.394,-7.895 L 156.825,-8.20836 L 157.312,-8.42519 L 157.833,-8.53603
 L 158.367,-8.53603 L 158.888,-8.42519 L 159.375,-8.20836 L 159.806,-7.895 L 160.163,-7.49884 L 160.43,-7.03717
 L 160.594,-6.53017 L 160.65,-6 L 160.65,-0 L 306.15,-0 L 306.15,-6 L 306.206,-6.53017
 L 306.37,-7.03717 L 306.637,-7.49884 L 306.994,-7.895 L 307.425,-8.20836 L 307.912,-8.42519 L 308.433,-8.53603
 L 308.967,-8.53603 L 309.488,-8.42519 L 309.975,-8.20836 L 310.406,-7.895 L 310.763,-7.49884 L 311.03,-7.03717
 L 311.194,-6.53017 L 311.25,-6 L 311.25,-0 L 456.75,-0 L 456.75,-6 L 456.806,-6.53017
 L 456.97,-7.03717 L 457.237,-7.49884 L 457.594,-7.895 L 458.025,-8.20836 L 458.512,-8.42519 L 459.033,-8.53603
 L 459.567,-8.53603 L 460.088,-8.42519 L 460.575,-8.20836 L 461.006,-7.895 L 461.363,-7.49884 L 461.63,-7.03717
 L 461.794,-6.53017 L 461.85,-6 L 461.85,-0 L 607.35,-0 L 607.35,-6 L 607.406,-6.53017
 L 607.57,-7.03717 L 607.837,-7.49884 L 608.194,-7.895 L 608.625,-8.20836 L 609.112,-8.42519 L 609.633,-8.53603
 L 610.167,-8.53603 L 610.688,-8.42519 L 611.175,-8.20836 L 611.606,-7.895 L 611.963,-7.49884 L 612.23,-7.03717
 L 612.394,-6.53017 L 612.45,-6 L 612.45,-0 L 757.95,-0 L 757.95,-6 L 758.006,-6.53017
 L 758.17,-7.03717 L 758.437,-7.49884 L 758.794,-7.895 L 759.225,-8.20836 L 759.712,-8.42519 L 760.233,-8.53603
 L 760.767,-8.53603 L 761.288,-8.42519 L 761.775,-8.20836 L 762.206,-7.895 L 762.563,-7.49884 L 762.83,-7.03717
 L 762.994,-6.53017 L 763.05,-6 L 763.05,-0 L 768,-0 z
M 6.98573,-55.607 L 6.47708,-55.6875 L 5.97964,-55.8208 L 5.49887,-56.0054 L 5.04001,-56.2392 L 4.60811,-56.5196
 L 4.20789,-56.8437 L 3.84373,-57.2079 L 3.51964,-57.6081 L 3.23917,-58.04 L 3.00537,-58.4989 L 2.82082,-58.9796
 L 2.68752,-59.4771 L 2.60696,-59.9857 L 2.58,-60.5 L 2.60696,-61.0143 L 2.68752,-61.5229 L 2.82082,-62.0204
 L 3.00537,-62.5011 L 3.23917,-62.96 L 3.51964,-63.3919 L 3.84373,-63.7921 L 4.20789,-64.1563 L 4.60811,-64.4804
 L 4.95001,-64.7024 L 4.95001,-74 L 5.00574,-74.5302 L 5.17047,-75.0372 L 5.43701,-75.4988 L 5.79373,-75.895
 L 6.22501,-76.2084 L 6.71202,-76.4252 L 7.23346,-76.536 L 7.76654,-76.536 L 8.28798,-76.4252 L 8.77499,-76.2084
 L 9.20627,-75.895 L 9.56299,-75.4988 L 9.82953,-75.0372 L 9.99426,-74.5302 L 10.05,-74 L 10.05,-64.7024
 L 10.3919,-64.4804 L 10.7921,-64.1563 L 11.1563,-63.7921 L 11.4804,-63.3919 L 11.7608,-62.96 L 11.9946,-62.5011
 L 12.1792,-62.0204 L 12.3125,-61.5229 L 12.393,-61.0143 L 12.42,-60.5 L 12.393,-59.9857 L 12.3125,-59.4771
 L 12.1792,-58.9796 L 11.9946,-58.4989 L 11.7608,-58.04 L 11.4804,-57.6081 L 11.1563,-57.2079 L 10.7921,-56.8437
 L 10.3919,-56.5196 L 9.95999,-56.2392 L 9.50113,-56.0054 L 9.02036,-55.8208 L 8.52292,-55.6875 L 8.01427,-55.607
 L 7.5,-55.58 z
M 157.586,-55.607 L 157.077,-55.6875 L 156.58,-55.8208 L 156.099,-56.0054 L 155.64,-56.2392 L 155.208,-56.5196
 L 154.808,-56.8437 L 154.444,-57.2079 L 154.12,-57.6081 L 153.839,-58.04 L 153.605,-58.4989 L 153.421,-58.9796
 L 153.288,-59.4771 L 153.207,-59.9857 L 153.18,-60.5 L 153.207,-61.0143 L 153.288,-61.5229 L 153.421,-62.0204
 L 153.605,-62.5011 L 153.839,-62.96 L 154.12,-63.3919 L 154.444,-63.7921 L 154.808,-64.1563 L 155.208,-64.4804
 L 155.55,-64.7024 L 155.55,-74 L 155.606,-74.5302 L 155.77,-75.0372 L 156.037,-75.4988 L 156.394,-75.895
 L 156.825,-76.2084 L 157.312,-76.4252 L 157.833,-76.536 L 158.367,-76.536 L 158.888,-76.4252 L 159.375,-76.2084
 L 159.806,-75.895 L 160.163,-75.4988 L 160.43,-75.0372 L 160.594,-74.5302 L 160.65,-74 L 160.65,-64.7024
 L 160.992,-64.4804 L 161.392,-64.1563 L 161.756,-63.7921 L 162.08,-63.3919 L 162.361,-62.96 L 162.595,-62.5011
 L 162.779,-62.0204 L 162.912,-61.5229 L 162.993,-61.0143 L 163.02,-60.5 L 162.993,-59.9857 L 162.912,-59.4771
 L 162.779,-58.9796 L 162.595,-58.4989 L 162.361,-58.04 L 162.08,-57.6081 L 161.756,-57.2079 L 161.392,-56.8437
 L 160.992,-56.5196 L 160.56,-56.2392 L 160.101,-56.0054 L 159.62,-55.8208 L 159.123,-55.6875 L 158.614,-55.607
 L 158.1,-55.58 z
M 308.186,-55.607 L 307.677,-55.6875 L 307.18,-55.8208 L 306.699,-56.0054 L 306.24,-56.2392 L 305.808,-56.5196
 L 305.408,-56.8437 L 305.044,-57.2079 L 304.72,-57.6081 L 304.439,-58.04 L 304.205,-58.4989 L 304.021,-58.9796
 L 303.888,-59.4771 L 303.807,-59.9857 L 303.78,-60.5 L 303.807,-61.0143 L 303.888,-61.5229 L 304.021,-62.0204
 L 304.205,-62.5011 L 304.439,-62.96 L 304.72,-63.3919 L 305.044,-63.7921 L 305.408,-64.1563 L 305.808,-64.4804
 L 306.15,-64.7024 L 306.15,-74 L 306.206,-74.5302 L 306.37,-75.0372 L 306.637,-75.4988 L 306.994,-75.895
 L 307.425,-76.2084 L 307.912,-76.4252 L 308.433,-76.536 L 308.967,-76.536 L 309.488,-76.4252 L 309.975,-76.2084
 L 310.406,-75.895 L 310.763,-75.4988 L 311.03,-75.0372 L 311.194,-74.5302 L 311.25,-74 L 311.25,-64.7024
 L 311.592,-64.4804 L 311.992,-64.1563 L 312.356,-63.7921 L 312.68,-63.3919 L 312.961,-62.96 L 313.195,-62.5011
 L 313.379,-62.0204 L 313.512,-61.5229 L 313.593,-61.0143 L 313.62,-60.5 L 313.593,-59.9857 L 313.512,-59.4771
 L 313.379,-58.9796 L 313.195,-58.4989 L 312.961,-58.04 L 312.68,-57.6081 L 312.356,-57.2079 L 311.992,-56.8437
 L 311.592,-56.5196 L 311.16,-56.2392 L 310.701,-56.0054 L 310.22,-55.8208 L 309.723,-55.6875 L 309.214,-55.607
 L 308.7,-55.58 z
M 458.786,-55.607 L 458.277,-55.6875 L 457.78,-55.8208 L 457.299,-56.0054 L 456.84,-56.2392 L 456.408,-56.5196
 L 456.008,-56.8437 L 455.644,-57.2079 L 455.32,-57.6081 L 455.039,-58.04 L 454.805,-58.4989 L 454.621,-58.9796
 L 454.488,-59.4771 L 454.407,-59.9857 L 454.38,-60.5 L 454.407,-61.0143 L 454.488,-61.5229 L 454.621,-62.0204
 L 454.805,-62.5011 L 455.039,-62.96 L 455.32,-63.3919 L 455.644,-63.7921 L 456.008,-64.1563 L 456.408,-64.4804
 L 456.75,-64.7024 L 456.75,-74 L 456.806,-74.5302 L 456.97,-75.0372 L 457.237,-75.4988 L 457.594,-75.895
 L 458.025,-76.2084 L 458.512,-76.4252 L 459.033,-76.536 L 459.567,-76.536 L 460.088,-76.4252 L 460.575,-76.2084
 L 461.006,-75.895 L 461.363,-75.4988 L 461.63,-75.0372 L 461.794,-74.5302 L 461.85,-74 L 461.85,-64.7024
 L 462.192,-64.4804 L 462.592,-64.1563 L 462.956,-63.7921 L 463.28,-63.3919 L 463.561,-62.96 L 463.795,-62.5011
 L 463.979,-62.0204 L 464.112,-61.5229 L 464.193,-61.0143 L 464.22,-60.5 L 464.193,-59.9857 L 464.112,-59.4771
 L 463.979,-58.9796 L 463.795,-58.4989 L 463.561,-58.04 L 463.28,-57.6081 L 462.956,-57.2079 L 462.592,-56.8437
 L 462.192,-56.5196 L 461.76,-56.2392 L 461.301,-56.0054 L 460.82,-55.8208 L 460.323,-55.6875 L 459.814,-55.607
 L 459.3,-55.58 z
M 609.386,-55.607 L 608.877,-55.6875 L 608.38,-55.8208 L 607.899,-56.0054 L 607.44,-56.2392 L 607.008,-56.5196
 L 606.608,-56.8437 L 606.244,-57.2079 L 605.92,-57.6081 L 605.639,-58.04 L 605.405,-58.4989 L 605.221,-58.9796
 L 605.088,-59.4771 L 605.007,-59.9857 L 604.98,-60.5 L 605.007,-61.0143 L 605.088,-61.5229 L 605.221,-62.0204
 L 605.405,-62.5011 L 605.639,-62.96 L 605.92,-63.3919 L 606.244,-63.7921 L 606.608,-64.1563 L 607.008,-64.4804
 L 607.35,-64.7024 L 607.35,-74 L 607.406,-74.5302 L 607.57,-75.0372 L 607.837,-75.4988 L 608.194,-75.895
 L 608.625,-76.2084 L 609.112,-76.4252 L 609.633,-76.536 L 610.167,-76.536 L 610.688,-76.4252 L 611.175,-76.2084
 L 611.606,-75.895 L 611.963,-75.4988 L 612.23,-75.0372 L 612.394,-74.5302 L 612.45,-74 L 612.45,-64.7024
 L 612.792,-64.4804 L 613.192,-64.1563 L 613.556,-63.7921 L 613.88,-63.3919 L 614.161,-62.96 L 614.395,-62.5011
 L 614.579,-62.0204 L 614.712,-61.5229 L 614.793,-61.0143 L 614.82,-60.5 L 614.793,-59.9857 L 614.712,-59.4771
 L 614.579,-58.9796 L 614.395,-58.4989 L 614.161,-58.04 L 613.88,-57.6081 L 613.556,-57.2079 L 613.192,-56.8437
 L 612.792,-56.5196 L 612.36,-56.2392 L 611.901,-56.0054 L 611.42,-55.8208 L 610.923,-55.6875 L 610.414,-55.607
 L 609.9,-55.58 z
M 759.986,-55.607 L 759.477,-55.6875 L 758.98,-55.8208 L 758.499,-56.0054 L 758.04,-56.2392 L 757.608,-56.5196
 L 757.208,-56.8437 L 756.844,-57.2079 L 756.52,-57.6081 L 756.239,-58.04 L 756.005,-58.4989 L 755.821,-58.9796
 L 755.688,-59.4771 L 755.607,-59.9857 L 755.58,-60.5 L 755.607,-61.0143 L 755.688,-61.5229 L 755.821,-62.0204
 L 756.005,-62.5011 L 756.239,-62.96 L 756.52,-63.3919 L 756.844,-63.7921 L 757.208,-64.1563 L 757.608,-64.4804
 L 757.95,-64.7024 L 757.95,-74 L 758.006,-74.5302 L 758.17,-75.0372 L 758.437,-75.4988 L 758.794,-75.895
 L 759.225,-76.2084 L 759.712,-76.4252 L 760.233,-76.536 L 760.767,-76.536 L 761.288,-76.4252 L 761.775,-76.2084
 L 762.206,-75.895 L 762.563,-75.4988 L 762.83,-75.0372 L 762.994,-74.5302 L 763.05,-74 L 763.05,-64.7024
 L 763.392,-64.4804 L 763.792,-64.1563 L 764.156,-63.7921 L 764.48,-63.3919 L 764.761,-62.96 L 764.995,-62.5011
 L 765.179,-62.0204 L 765.312,-61.5229 L 765.393,-61.0143 L 765.42,-60.5 L 765.393,-59.9857 L 765.312,-59.4771
 L 765.179,-58.9796 L 764.995,-58.4989 L 764.761,-58.04 L 764.48,-57.6081 L 764.156,-57.2079 L 763.792,-56.8437
 L 763.392,-56.5196 L 762.96,-56.2392 L 762.501,-56.0054 L 762.02,-55.8208 L 761.523,-55.6875 L 761.014,-55.607
 L 760.5,-55.58 z
M 383.148,-48.161 L 382.354,-48.4236 L 369.219,-54.3544 L 368.514,-54.7639 L 367.892,-55.3235 L 367.401,-56
 L 367.061,-56.7639 L 366.887,-57.5819 L 366.887,-58.4181 L 367.061,-59.2361 L 367.401,-60 L 367.892,-60.6765
 L 368.514,-61.2361 L 369.238,-61.6542 L 370.033,-61.9126 L 370.865,-62 L 397.135,-62 L 397.946,-61.9169
 L 398.743,-61.6627 L 399.469,-61.2484 L 400.094,-60.6921 L 400.589,-60.0181 L 400.933,-59.256 L 401.111,-58.439
 L 401.115,-57.6028 L 400.946,-56.7839 L 400.61,-56.0182 L 400.122,-55.3391 L 399.503,-54.7763 L 398.781,-54.3544
 L 385.646,-48.4236 L 384.811,-48.1523 L 383.979,-48.0692 z
M 294.848,-22.2253 L 294.054,-22.4878 L 223.479,-54.3544 L 222.774,-54.7639 L 222.152,-55.3235 L 221.661,-56
 L 221.321,-56.7639 L 221.147,-57.5819 L 221.147,-58.4181 L 221.321,-59.2361 L 221.661,-60 L 222.152,-60.6765
 L 222.774,-61.2361 L 223.498,-61.6542 L 224.293,-61.9126 L 225.125,-62 L 295.7,-62 L 296.936,-61.8042
 L 297.7,-61.4641 L 298.377,-60.9726 L 298.936,-60.3511 L 299.354,-59.627 L 299.613,-58.8316 L 299.7,-58
 L 299.7,-26.1334 L 299.676,-25.6945 L 299.498,-24.8774 L 299.154,-24.1153 L 298.658,-23.4413 L 298.034,-22.8851
 L 297.308,-22.4708 L 296.511,-22.2165 L 295.679,-22.1335 z
M 622.089,-22.2165 L 621.292,-22.4708 L 620.566,-22.8851 L 619.942,-23.4413 L 619.446,-24.1153 L 619.102,-24.8774
 L 618.924,-25.6945 L 618.9,-26.1334 L 618.9,-58 L 618.987,-58.8316 L 619.246,-59.627 L 619.664,-60.3511
 L 620.223,-60.9726 L 620.9,-61.4641 L 621.664,-61.8042 L 622.9,-62 L 693.475,-62 L 694.307,-61.9126
 L 695.102,-61.6542 L 695.826,-61.2361 L 696.448,-60.6765 L 696.939,-60 L 697.279,-59.2361 L 697.453,-58.4181
 L 697.453,-57.5819 L 697.279,-56.7639 L 696.939,-56 L 696.448,-55.3235 L 695.826,-54.7639 L 695.121,-54.3544
 L 624.546,-22.4878 L 623.752,-22.2253 L 622.921,-22.1335 z
M 144.248,-22.2253 L 143.454,-22.4878 L 72.8788,-54.3544 L 72.1738,-54.7639 L 71.5523,-55.3235 L 71.0608,-56
 L 70.7207,-56.7639 L 70.5468,-57.5819 L 70.5468,-58.4181 L 70.7207,-59.2361 L 71.0608,-60 L 71.5523,-60.6765
 L 72.1738,-61.2361 L 72.8979,-61.6542 L 73.6933,-61.9126 L 74.5249,-62 L 145.1,-62 L 146.336,-61.8042
 L 147.1,-61.4641 L 147.777,-60.9726 L 148.336,-60.3511 L 148.754,-59.627 L 149.013,-58.8316 L 149.1,-58
 L 149.1,-26.1334 L 149.076,-25.6945 L 148.898,-24.8774 L 148.554,-24.1153 L 148.058,-23.4413 L 147.434,-22.8851
 L 146.708,-22.4708 L 145.911,-22.2165 L 145.079,-22.1335 z
M 471.489,-22.2165 L 470.692,-22.4708 L 469.966,-22.8851 L 469.342,-23.4413 L 468.846,-24.1153 L 468.502,-24.8774
 L 468.324,-25.6945 L 468.3,-26.1334 L 468.3,-58 L 468.387,-58.8316 L 468.646,-59.627 L 469.064,-60.3511
 L 469.623,-60.9726 L 470.3,-61.4641 L 471.064,-61.8042 L 472.3,-62 L 542.875,-62 L 543.707,-61.9126
 L 544.502,-61.6542 L 545.226,-61.2361 L 545.848,-60.6765 L 546.339,-60 L 546.679,-59.2361 L 546.853,-58.4181
 L 546.853,-57.5819 L 546.679,-56.7639 L 546.339,-56 L 545.848,-55.3235 L 545.226,-54.7639 L 544.521,-54.3544
 L 473.946,-22.4878 L 473.152,-22.2253 L 472.321,-22.1335 z
M 321.282,-19.961 L 320.464,-20.1348 L 319.7,-20.4749 L 319.023,-20.9665 L 318.464,-21.5879 L 318.046,-22.3121
 L 317.787,-23.1074 L 317.7,-23.939 L 317.7,-56.061 L 317.724,-56.4999 L 317.902,-57.317 L 318.246,-58.0791
 L 318.742,-58.753 L 319.366,-59.3093 L 320.092,-59.7236 L 320.889,-59.9779 L 321.721,-60.0609 L 322.552,-59.9691
 L 323.346,-59.7066 L 358.916,-43.6456 L 359.604,-43.2484 L 360.229,-42.6921 L 360.724,-42.0181 L 361.068,-41.256
 L 361.246,-40.439 L 361.251,-39.6028 L 361.081,-38.7839 L 360.745,-38.0182 L 360.257,-37.3391 L 359.638,-36.7763
 L 358.916,-36.3544 L 323.346,-20.2934 L 322.936,-20.1348 L 322.118,-19.961 z
M 445.448,-20.0309 L 444.654,-20.2934 L 409.084,-36.3544 L 408.396,-36.7516 L 407.771,-37.3079 L 407.276,-37.9819
 L 406.932,-38.744 L 406.754,-39.561 L 406.749,-40.3972 L 406.919,-41.2161 L 407.255,-41.9818 L 407.743,-42.6609
 L 408.362,-43.2237 L 409.084,-43.6456 L 444.654,-59.7066 L 445.064,-59.8652 L 445.882,-60.0391 L 446.718,-60.0391
 L 447.536,-59.8652 L 448.3,-59.5251 L 448.977,-59.0336 L 449.536,-58.4121 L 449.954,-57.6879 L 450.213,-56.8926
 L 450.3,-56.061 L 450.3,-23.939 L 450.276,-23.5001 L 450.098,-22.683 L 449.754,-21.9209 L 449.258,-21.2469
 L 448.634,-20.6907 L 447.908,-20.2764 L 447.111,-20.0221 L 446.279,-19.9391 z
M 171.1,-18 L 169.864,-18.1958 L 169.1,-18.5359 L 168.423,-19.0274 L 167.864,-19.6489 L 167.446,-20.373
 L 167.187,-21.1684 L 167.1,-22 L 167.1,-53.8666 L 167.124,-54.3055 L 167.302,-55.1226 L 167.646,-55.8847
 L 168.141,-56.5586 L 168.766,-57.1149 L 169.492,-57.5292 L 170.289,-57.7835 L 171.121,-57.8665 L 171.952,-57.7747
 L 172.746,-57.5122 L 243.321,-25.6456 L 244.026,-25.2361 L 244.648,-24.6765 L 245.139,-24 L 245.479,-23.2361
 L 245.653,-22.4181 L 245.653,-21.5819 L 245.479,-20.7639 L 245.139,-20 L 244.648,-19.3235 L 244.026,-18.7639
 L 243.302,-18.3458 L 242.507,-18.0874 L 241.675,-18 z
M 526.325,-18 L 525.493,-18.0874 L 524.698,-18.3458 L 523.974,-18.7639 L 523.352,-19.3235 L 522.861,-20
 L 522.521,-20.7639 L 522.347,-21.5819 L 522.347,-22.4181 L 522.521,-23.2361 L 522.861,-24 L 523.352,-24.6765
 L 523.974,-25.2361 L 524.679,-25.6456 L 595.254,-57.5122 L 596.048,-57.7747 L 596.879,-57.8665 L 597.711,-57.7835
 L 598.508,-57.5292 L 599.234,-57.1149 L 599.858,-56.5586 L 600.354,-55.8847 L 600.698,-55.1226 L 600.876,-54.3055
 L 600.9,-53.8666 L 600.9,-22 L 600.813,-21.1684 L 600.554,-20.373 L 600.136,-19.6489 L 599.577,-19.0274
 L 598.9,-18.5359 L 598.136,-18.1958 L 596.9,-18 z
M 22,-18 L 20.7639,-18.1958 L 20,-18.5359 L 19.3235,-19.0274 L 18.7639,-19.6489 L 18.3458,-20.373
 L 18.0874,-21.1684 L 18,-22 L 18,-53.1893 L 18.0242,-53.6282 L 18.2023,-54.4453 L 18.5464,-55.2074
 L 19.0415,-55.8813 L 19.6659,-56.4376 L 20.3922,-56.8519 L 21.1889,-57.1062 L 22.021,-57.1892 L 22.8522,-57.0974
 L 23.6461,-56.8349 L 92.7212,-25.6456 L 93.4262,-25.2361 L 94.0477,-24.6765 L 94.5392,-24 L 94.8793,-23.2361
 L 95.0532,-22.4181 L 95.0532,-21.5819 L 94.8793,-20.7639 L 94.5392,-20 L 94.0477,-19.3235 L 93.4262,-18.7639
 L 92.702,-18.3458 L 91.9067,-18.0874 L 91.0751,-18 z
M 676.925,-18 L 676.093,-18.0874 L 675.298,-18.3458 L 674.574,-18.7639 L 673.952,-19.3235 L 673.461,-20
 L 673.121,-20.7639 L 672.947,-21.5819 L 672.947,-22.4181 L 673.121,-23.2361 L 673.461,-24 L 673.952,-24.6765
 L 674.574,-25.2361 L 675.279,-25.6456 L 744.354,-56.8349 L 745.148,-57.0974 L 745.979,-57.1892 L 746.811,-57.1062
 L 747.608,-56.8519 L 748.334,-56.4376 L 748.958,-55.8813 L 749.454,-55.2074 L 749.798,-54.4453 L 749.976,-53.6282
 L 750,-53.1893 L 750,-22 L 749.913,-21.1684 L 749.654,-20.373 L 749.236,-19.6489 L 748.677,-19.0274
 L 748,-18.5359 L 747.236,-18.1958 L 746,-18 z
M 370.865,-18 L 370.054,-18.0831 L 369.257,-18.3373 L 368.531,-18.7516 L 367.906,-19.3079 L 367.411,-19.9819
 L 367.067,-20.744 L 366.889,-21.561 L 366.885,-22.3972 L 367.054,-23.2161 L 367.39,-23.9818 L 367.878,-24.6609
 L 368.497,-25.2237 L 369.219,-25.6456 L 382.354,-31.5764 L 383.189,-31.8477 L 384.021,-31.9308 L 384.852,-31.839
 L 385.646,-31.5764 L 398.781,-25.6456 L 399.486,-25.2361 L 400.108,-24.6765 L 400.599,-24 L 400.939,-23.2361
 L 401.113,-22.4181 L 401.113,-21.5819 L 400.939,-20.7639 L 400.599,-20 L 400.108,-19.3235 L 399.486,-18.7639
 L 398.762,-18.3458 L 397.967,-18.0874 L 397.135,-18 z
" stroke="black" fill="lightgray" stroke-width="0.5"/>
</svg>
