<?xml version="1.0" standalone="no"?>
<!DOCTYPE svg PUBLIC "-//W3C//DTD SVG 1.1//EN" "http://www.w3.org/Graphics/SVG/1.1/DTD/svg11.dtd">
<svg width="854mm" height="80mm" viewBox="0 -80 854 80" xmlns="http://www.w3.org/2000/svg" version="1.1">
<title>OpenSCAD Model</title>
<path d="
M 854,-80 L 0,-80 L 0,-0 L 4.95,-0 L 4.95,-6 L 5.00572,-6.53017
 L 5.17046,-7.03717 L 5.437,-7.49884 L 5.79372,-7.895 L 6.22499,-8.20836 L 6.71201,-8.42519 L 7.23344,-8.53603
 L 7.76654,-8.53603 L 8.28798,-8.42519 L 8.77499,-8.20836 L 9.20627,-7.895 L 9.56299,-7.49884 L 9.82953,-7.03717
 L 9.99426,-6.53017 L 10.05,-6 L 10.05,-0 L 172.75,-0 L 172.75,-6 L 172.806,-6.53017
 L 172.97,-7.03717 L 173.237,-7.49884 L 173.594,-7.895 L 174.025,-8.20836 L 174.512,-8.42519 L 175.033,-8.53603
 L 175.567,-8.53603 L 176.088,-8.42519 L 176.575,-8.20836 L 177.006,-7.895 L 177.363,-7.49884 L 177.63,-7.03717
 L 177.794,-6.53017 L 177.85,-6 L 177.85,-0 L 340.55,-0 L 340.55,-6 L 340.606,-6.53017
 L 340.77,-7.03717 L 341.037,-7.49884 L 341.394,-7.895 L 341.825,-8.20836 L 342.312,-8.42519 L 342.833,-8.53603
 L 343.367,-8.53603 L 343.888,-8.42519 L 344.375,-8.20836 L 344.806,-7.895 L 345.163,-7.49884 L 345.43,-7.03717
 L 345.594,-6.53017 L 345.65,-6 L 345.65,-0 L 508.35,-0 L 508.35,-6 L 508.406,-6.53017
 L 508.57,-7.03717 L 508.837,-7.49884 L 509.194,-7.895 L 509.625,-8.20836 L 510.112,-8.42519 L 510.633,-8.53603
 L 511.167,-8.53603 L 511.688,-8.42519 L 512.175,-8.20836 L 512.606,-7.895 L 512.963,-7.49884 L 513.23,-7.03717
 L 513.394,-6.53017 L 513.45,-6 L 513.45,-0 L 676.15,-0 L 676.15,-6 L 676.206,-6.53017
 L 676.37,-7.03717 L 676.637,-7.49884 L 676.994,-7.895 L 677.425,-8.20836 L 677.912,-8.42519 L 678.433,-8.53603
 L 678.967,-8.53603 L 679.488,-8.42519 L 679.975,-8.20836 L 680.406,-7.895 L 680.763,-7.49884 L 681.03,-7.03717
 L 681.194,-6.53017 L 681.25,-6 L 681.25,-0 L 843.95,-0 L 843.95,-6 L 844.006,-6.53017
 L 844.17,-7.03717 L 844.437,-7.49884 L 844.794,-7.895 L 845.225,-8.20836 L 845.712,-8.42519 L 846.233,-8.53603
 L 846.767,-8.53603 L 847.288,-8.42519 L 847.775,-8.20836 L 848.206,-7.895 L 848.563,-7.49884 L 848.83,-7.03717
 L 848.994,-6.53017 L 849.05,-6 L 849.05,-0 L 854,-0 z
M 6.98573,-55.607 L 6.47708,-55.6875 L 5.97964,-55.8208 L 5.49887,-56.0054 L 5.04001,-56.2392 L 4.60811,-56.5196
 L 4.20789,-56.8437 L 3.84373,-57.2079 L 3.51964,-57.6081 L 3.23917,-58.04 L 3.00537,-58.4989 L 2.82082,-58.9796
 L 2.68752,-59.4771 L 2.60696,-59.9857 L 2.58,-60.5 L 2.60696,-61.0143 L 2.68752,-61.5229 L 2.82082,-62.0204
 L 3.00537,-62.5011 L 3.23917,-62.96 L 3.51964,-63.3919 L 3.84373,-63.7921 L 4.20789,-64.1563 L 4.60811,-64.4804
 L 4.95001,-64.7024 L 4.95001,-74 L 5.00574,-74.5302 L 5.17047,-75.0372 L 5.43701,-75.4988 L 5.79373,-75.895
 L 6.22501,-76.2084 L 6.71202,-76.4252 L 7.23346,-76.536 L 7.76654,-76.536 L 8.28798,-76.4252 L 8.77499,-76.2084
 L 9.20627,-75.895 L 9.56299,-75.4988 L 9.82953,-75.0372 L 9.99426,-74.5302 L 10.05,-74 L 10.05,-64.7024
 L 10.3919,-64.4804 L 10.7921,-64.1563 L 11.1563,-63.7921 L 11.4804,-63.3919 L 11.7608,-62.96 L 11.9946,-62.5011
 L 12.1792,-62.0204 L 12.3125,-61.5229 L 12.393,-61.0143 L 12.42,-60.5 L 12.393,-59.9857 L 12.3125,-59.4771
 L 12.1792,-58.9796 L 11.9946,-58.4989 L 11.7608,-58.04 L 11.4804,-57.6081 L 11.1563,-57.2079 L 10.7921,-56.8437
 L 10.3919,-56.5196 L 9.95999,-56.2392 L 9.50113,-56.0054 L 9.02036,-55.8208 L 8.52292,-55.6875 L 8.01427,-55.607
 L 7.5,-55.58 z
M 174.786,-55.607 L 174.277,-55.6875 L 173.78,-55.8208 L 173.299,-56.0054 L 172.84,-56.2392 L 172.408,-56.5196
 L 172.008,-56.8437 L 171.644,-57.2079 L 171.32,-57.6081 L 171.039,-58.04 L 170.805,-58.4989 L 170.621,-58.9796
 L 170.488,-59.4771 L 170.407,-59.9857 L 170.38,-60.5 L 170.407,-61.0143 L 170.488,-61.5229 L 170.621,-62.0204
 L 170.805,-62.5011 L 171.039,-62.96 L 171.32,-63.3919 L 171.644,-63.7921 L 172.008,-64.1563 L 172.408,-64.4804
 L 172.75,-64.7024 L 172.75,-74 L 172.806,-74.5302 L 172.97,-75.0372 L 173.237,-75.4988 L 173.594,-75.895
 L 174.025,-76.2084 L 174.512,-76.4252 L 175.033,-76.536 L 175.567,-76.536 L 176.088,-76.4252 L 176.575,-76.2084
 L 177.006,-75.895 L 177.363,-75.4988 L 177.63,-75.0372 L 177.794,-74.5302 L 177.85,-74 L 177.85,-64.7024
 L 178.192,-64.4804 L 178.592,-64.1563 L 178.956,-63.7921 L 179.28,-63.3919 L 179.561,-62.96 L 179.795,-62.5011
 L 179.979,-62.0204 L 180.112,-61.5229 L 180.193,-61.0143 L 180.22,-60.5 L 180.193,-59.9857 L 180.112,-59.4771
 L 179.979,-58.9796 L 179.795,-58.4989 L 179.561,-58.04 L 179.28,-57.6081 L 178.956,-57.2079 L 178.592,-56.8437
 L 178.192,-56.5196 L 177.76,-56.2392 L 177.301,-56.0054 L 176.82,-55.8208 L 176.323,-55.6875 L 175.814,-55.607
 L 175.3,-55.58 z
M 342.586,-55.607 L 342.077,-55.6875 L 341.58,-55.8208 L 341.099,-56.0054 L 340.64,-56.2392 L 340.208,-56.5196
 L 339.808,-56.8437 L 339.444,-57.2079 L 339.12,-57.6081 L 338.839,-58.04 L 338.605,-58.4989 L 338.421,-58.9796
 L 338.288,-59.4771 L 338.207,-59.9857 L 338.18,-60.5 L 338.207,-61.0143 L 338.288,-61.5229 L 338.421,-62.0204
 L 338.605,-62.5011 L 338.839,-62.96 L 339.12,-63.3919 L 339.444,-63.7921 L 339.808,-64.1563 L 340.208,-64.4804
 L 340.55,-64.7024 L 340.55,-74 L 340.606,-74.5302 L 340.77,-75.0372 L 341.037,-75.4988 L 341.394,-75.895
 L 341.825,-76.2084 L 342.312,-76.4252 L 342.833,-76.536 L 343.367,-76.536 L 343.888,-76.4252 L 344.375,-76.2084
 L 344.806,-75.895 L 345.163,-75.4988 L 345.43,-75.0372 L 345.594,-74.5302 L 345.65,-74 L 345.65,-64.7024
 L 345.992,-64.4804 L 346.392,-64.1563 L 346.756,-63.7921 L 347.08,-63.3919 L 347.361,-62.96 L 347.595,-62.5011
 L 347.779,-62.0204 L 347.912,-61.5229 L 347.993,-61.0143 L 348.02,-60.5 L 347.993,-59.9857 L 347.912,-59.4771
 L 347.779,-58.9796 L 347.595,-58.4989 L 347.361,-58.04 L 347.08,-57.6081 L 346.756,-57.2079 L 346.392,-56.8437
 L 345.992,-56.5196 L 345.56,-56.2392 L 345.101,-56.0054 L 344.62,-55.8208 L 344.123,-55.6875 L 343.614,-55.607
 L 343.1,-55.58 z
M 510.386,-55.607 L 509.877,-55.6875 L 509.38,-55.8208 L 508.899,-56.0054 L 508.44,-56.2392 L 508.008,-56.5196
 L 507.608,-56.8437 L 507.244,-57.2079 L 506.92,-57.6081 L 506.639,-58.04 L 506.405,-58.4989 L 506.221,-58.9796
 L 506.088,-59.4771 L 506.007,-59.9857 L 505.98,-60.5 L 506.007,-61.0143 L 506.088,-61.5229 L 506.221,-62.0204
 L 506.405,-62.5011 L 506.639,-62.96 L 506.92,-63.3919 L 507.244,-63.7921 L 507.608,-64.1563 L 508.008,-64.4804
 L 508.35,-64.7024 L 508.35,-74 L 508.406,-74.5302 L 508.57,-75.0372 L 508.837,-75.4988 L 509.194,-75.895
 L 509.625,-76.2084 L 510.112,-76.4252 L 510.633,-76.536 L 511.167,-76.536 L 511.688,-76.4252 L 512.175,-76.2084
 L 512.606,-75.895 L 512.963,-75.4988 L 513.23,-75.0372 L 513.394,-74.5302 L 513.45,-74 L 513.45,-64.7024
 L 513.792,-64.4804 L 514.192,-64.1563 L 514.556,-63.7921 L 514.88,-63.3919 L 515.161,-62.96 L 515.395,-62.5011
 L 515.579,-62.0204 L 515.712,-61.5229 L 515.793,-61.0143 L 515.82,-60.5 L 515.793,-59.9857 L 515.712,-59.4771
 L 515.579,-58.9796 L 515.395,-58.4989 L 515.161,-58.04 L 514.88,-57.6081 L 514.556,-57.2079 L 514.192,-56.8437
 L 513.792,-56.5196 L 513.36,-56.2392 L 512.901,-56.0054 L 512.42,-55.8208 L 511.923,-55.6875 L 511.414,-55.607
 L 510.9,-55.58 z
M 678.186,-55.607 L 677.677,-55.6875 L 677.18,-55.8208 L 676.699,-56.0054 L 676.24,-56.2392 L 675.808,-56.5196
 L 675.408,-56.8437 L 675.044,-57.2079 L 674.72,-57.6081 L 674.439,-58.04 L 674.205,-58.4989 L 674.021,-58.9796
 L 673.888,-59.4771 L 673.807,-59.9857 L 673.78,-60.5 L 673.807,-61.0143 L 673.888,-61.5229 L 674.021,-62.0204
 L 674.205,-62.5011 L 674.439,-62.96 L 674.72,-63.3919 L 675.044,-63.7921 L 675.408,-64.1563 L 675.808,-64.4804
 L 676.15,-64.7024 L 676.15,-74 L 676.206,-74.5302 L 676.37,-75.0372 L 676.637,-75.4988 L 676.994,-75.895
 L 677.425,-76.2084 L 677.912,-76.4252 L 678.433,-76.536 L 678.967,-76.536 L 679.488,-76.4252 L 679.975,-76.2084
 L 680.406,-75.895 L 680.763,-75.4988 L 681.03,-75.0372 L 681.194,-74.5302 L 681.25,-74 L 681.25,-64.7024
 L 681.592,-64.4804 L 681.992,-64.1563 L 682.356,-63.7921 L 682.68,-63.3919 L 682.961,-62.96 L 683.195,-62.5011
 L 683.379,-62.0204 L 683.512,-61.5229 L 683.593,-61.0143 L 683.62,-60.5 L 683.593,-59.9857 L 683.512,-59.4771
 L 683.379,-58.9796 L 683.195,-58.4989 L 682.961,-58.04 L 682.68,-57.6081 L 682.356,-57.2079 L 681.992,-56.8437
 L 681.592,-56.5196 L 681.16,-56.2392 L 680.701,-56.0054 L 680.22,-55.8208 L 679.723,-55.6875 L 679.214,-55.607
 L 678.7,-55.58 z
M 845.986,-55.607 L 845.477,-55.6875 L 844.98,-55.8208 L 844.499,-56.0054 L 844.04,-56.2392 L 843.608,-56.5196
 L 843.208,-56.8437 L 842.844,-57.2079 L 842.52,-57.6081 L 842.239,-58.04 L 842.005,-58.4989 L 841.821,-58.9796
 L 841.688,-59.4771 L 841.607,-59.9857 L 841.58,-60.5 L 841.607,-61.0143 L 841.688,-61.5229 L 841.821,-62.0204
 L 842.005,-62.5011 L 842.239,-62.96 L 842.52,-63.3919 L 842.844,-63.7921 L 843.208,-64.1563 L 843.608,-64.4804
 L 843.95,-64.7024 L 843.95,-74 L 844.006,-74.5302 L 844.17,-75.0372 L 844.437,-75.4988 L 844.794,-75.895
 L 845.225,-76.2084 L 845.712,-76.4252 L 846.233,-76.536 L 846.767,-76.536 L 847.288,-76.4252 L 847.775,-76.2084
 L 848.206,-75.895 L 848.563,-75.4988 L 848.83,-75.0372 L 848.994,-74.5302 L 849.05,-74 L 849.05,-64.7024
 L 849.392,-64.4804 L 849.792,-64.1563 L 850.156,-63.7921 L 850.48,-63.3919 L 850.761,-62.96 L 850.995,-62.5011
 L 851.179,-62.0204 L 851.312,-61.5229 L 851.393,-61.0143 L 851.42,-60.5 L 851.393,-59.9857 L 851.312,-59.4771
 L 851.179,-58.9796 L 850.995,-58.4989 L 850.761,-58.04 L 850.48,-57.6081 L 850.156,-57.2079 L 849.792,-56.8437
 L 849.392,-56.5196 L 848.96,-56.2392 L 848.501,-56.0054 L 848.02,-55.8208 L 847.523,-55.6875 L 847.014,-55.607
 L 846.5,-55.58 z
M 426.301,-47.9236 L 425.498,-48.1549 L 410.352,-54.2928 L 409.503,-54.7639 L 408.881,-55.3235 L 408.39,-56
 L 408.05,-56.7639 L 407.876,-57.5819 L 407.876,-58.4181 L 408.05,-59.2361 L 408.39,-60 L 408.881,-60.6765
 L 409.503,-61.2361 L 410.227,-61.6542 L 411.022,-61.9126 L 411.854,-62 L 442.146,-62 L 443.11,-61.8822
 L 443.896,-61.597 L 444.605,-61.1546 L 445.208,-60.5744 L 445.676,-59.8816 L 445.99,-59.1066 L 446.136,-58.2832
 L 446.108,-57.4474 L 445.906,-56.6358 L 445.541,-55.8839 L 445.026,-55.2244 L 444.386,-54.6862 L 443.648,-54.2928
 L 428.502,-48.1549 L 427.964,-47.9799 L 427.135,-47.8644 z
M 329.401,-21.3485 L 328.598,-21.5798 L 247.874,-54.2928 L 247.025,-54.7639 L 246.403,-55.3235 L 245.912,-56
 L 245.572,-56.7639 L 245.398,-57.5819 L 245.398,-58.4181 L 245.572,-59.2361 L 245.912,-60 L 246.403,-60.6765
 L 247.025,-61.2361 L 247.749,-61.6542 L 248.544,-61.9126 L 249.376,-62 L 330.1,-62 L 331.336,-61.8042
 L 332.1,-61.4641 L 332.777,-60.9726 L 333.336,-60.3511 L 333.754,-59.627 L 334.013,-58.8316 L 334.1,-58
 L 334.1,-25.287 L 333.944,-24.1805 L 333.63,-23.4054 L 333.161,-22.7127 L 332.559,-22.1324 L 331.85,-21.69
 L 331.064,-21.4048 L 330.235,-21.2893 z
M 690.736,-21.4048 L 689.95,-21.69 L 689.241,-22.1324 L 688.639,-22.7127 L 688.17,-23.4054 L 687.856,-24.1805
 L 687.7,-25.287 L 687.7,-58 L 687.787,-58.8316 L 688.046,-59.627 L 688.464,-60.3511 L 689.023,-60.9726
 L 689.7,-61.4641 L 690.464,-61.8042 L 691.7,-62 L 772.424,-62 L 773.256,-61.9126 L 774.051,-61.6542
 L 774.775,-61.2361 L 775.397,-60.6765 L 775.888,-60 L 776.228,-59.2361 L 776.402,-58.4181 L 776.402,-57.5819
 L 776.228,-56.7639 L 775.888,-56 L 775.397,-55.3235 L 774.775,-54.7639 L 773.926,-54.2928 L 693.202,-21.5798
 L 692.399,-21.3485 L 691.565,-21.2893 z
M 161.601,-21.3485 L 160.798,-21.5798 L 80.0736,-54.2928 L 79.2248,-54.7639 L 78.6033,-55.3235 L 78.1118,-56
 L 77.7717,-56.7639 L 77.5978,-57.5819 L 77.5978,-58.4181 L 77.7717,-59.2361 L 78.1118,-60 L 78.6033,-60.6765
 L 79.2248,-61.2361 L 79.9489,-61.6542 L 80.7442,-61.9126 L 81.5759,-62 L 162.3,-62 L 163.536,-61.8042
 L 164.3,-61.4641 L 164.977,-60.9726 L 165.536,-60.3511 L 165.954,-59.627 L 166.213,-58.8316 L 166.3,-58
 L 166.3,-25.287 L 166.144,-24.1805 L 165.83,-23.4054 L 165.361,-22.7127 L 164.759,-22.1324 L 164.05,-21.69
 L 163.264,-21.4048 L 162.435,-21.2893 z
M 522.936,-21.4048 L 522.15,-21.69 L 521.441,-22.1324 L 520.839,-22.7127 L 520.37,-23.4054 L 520.056,-24.1805
 L 519.9,-25.287 L 519.9,-58 L 519.987,-58.8316 L 520.246,-59.627 L 520.664,-60.3511 L 521.223,-60.9726
 L 521.9,-61.4641 L 522.664,-61.8042 L 523.9,-62 L 604.624,-62 L 605.456,-61.9126 L 606.251,-61.6542
 L 606.975,-61.2361 L 607.597,-60.6765 L 608.088,-60 L 608.428,-59.2361 L 608.602,-58.4181 L 608.602,-57.5819
 L 608.428,-56.7639 L 608.088,-56 L 607.597,-55.3235 L 606.975,-54.7639 L 606.126,-54.2928 L 525.402,-21.5798
 L 524.599,-21.3485 L 523.765,-21.2893 z
M 355.682,-19.1522 L 354.864,-19.326 L 354.1,-19.6662 L 353.423,-20.1577 L 352.864,-20.7791 L 352.446,-21.5033
 L 352.187,-22.2986 L 352.1,-23.1303 L 352.1,-56.8697 L 352.256,-57.9763 L 352.57,-58.7513 L 353.039,-59.4441
 L 353.641,-60.0243 L 354.35,-60.4667 L 355.136,-60.7519 L 355.965,-60.8674 L 356.799,-60.8082 L 357.602,-60.5769
 L 399.231,-43.7072 L 400.188,-43.1546 L 400.79,-42.5744 L 401.258,-41.8816 L 401.572,-41.1066 L 401.718,-40.2832
 L 401.69,-39.4474 L 401.489,-38.6358 L 401.123,-37.8839 L 400.609,-37.2244 L 399.969,-36.6862 L 399.231,-36.2928
 L 357.602,-19.4231 L 356.518,-19.1522 z
M 497.201,-19.1918 L 496.398,-19.4231 L 454.769,-36.2928 L 453.812,-36.8454 L 453.21,-37.4256 L 452.742,-38.1184
 L 452.428,-38.8934 L 452.281,-39.7168 L 452.31,-40.5526 L 452.511,-41.3642 L 452.877,-42.1161 L 453.391,-42.7756
 L 454.031,-43.3138 L 454.769,-43.7072 L 496.398,-60.5769 L 497.482,-60.8478 L 498.318,-60.8478 L 499.136,-60.674
 L 499.9,-60.3338 L 500.577,-59.8423 L 501.136,-59.2209 L 501.554,-58.4967 L 501.813,-57.7014 L 501.9,-56.8697
 L 501.9,-23.1303 L 501.744,-22.0237 L 501.43,-21.2487 L 500.961,-20.5559 L 500.359,-19.9757 L 499.65,-19.5333
 L 498.864,-19.2481 L 498.035,-19.1326 z
M 188.3,-18 L 187.064,-18.1958 L 186.3,-18.5359 L 185.623,-19.0274 L 185.064,-19.6489 L 184.646,-20.373
 L 184.387,-21.1684 L 184.3,-22 L 184.3,-54.713 L 184.456,-55.8195 L 184.77,-56.5945 L 185.239,-57.2873
 L 185.841,-57.8676 L 186.55,-58.31 L 187.336,-58.5952 L 188.165,-58.7107 L 188.999,-58.6515 L 189.802,-58.4201
 L 270.526,-25.7072 L 271.375,-25.2361 L 271.997,-24.6765 L 272.488,-24 L 272.828,-23.2361 L 273.002,-22.4181
 L 273.002,-21.5819 L 272.828,-20.7639 L 272.488,-20 L 271.997,-19.3235 L 271.375,-18.7639 L 270.651,-18.3458
 L 269.856,-18.0874 L 269.024,-18 z
M 584.976,-18 L 584.144,-18.0874 L 583.349,-18.3458 L 582.625,-18.7639 L 582.003,-19.3235 L 581.512,-20
 L 581.172,-20.7639 L 580.998,-21.5819 L 580.998,-22.4181 L 581.172,-23.2361 L 581.512,-24 L 582.003,-24.6765
 L 582.625,-25.2361 L 583.474,-25.7072 L 664.198,-58.4201 L 665.001,-58.6515 L 665.835,-58.7107 L 666.664,-58.5952
 L 667.45,-58.31 L 668.159,-57.8676 L 668.761,-57.2873 L 669.23,-56.5945 L 669.544,-55.8195 L 669.7,-54.713
 L 669.7,-22 L 669.613,-21.1684 L 669.354,-20.373 L 668.936,-19.6489 L 668.377,-19.0274 L 667.7,-18.5359
 L 666.936,-18.1958 L 665.7,-18 z
M 22,-18 L 20.7639,-18.1958 L 20,-18.5359 L 19.3235,-19.0274 L 18.7639,-19.6489 L 18.3458,-20.373
 L 18.0874,-21.1684 L 18,-22 L 18,-54.1051 L 18.1561,-55.2117 L 18.4702,-55.9867 L 18.9385,-56.6795
 L 19.5406,-57.2597 L 20.2503,-57.7021 L 21.0364,-57.9873 L 21.8646,-58.1028 L 22.6987,-58.0436 L 23.5023,-57.8123
 L 102.726,-25.7072 L 103.575,-25.2361 L 104.197,-24.6765 L 104.688,-24 L 105.028,-23.2361 L 105.202,-22.4181
 L 105.202,-21.5819 L 105.028,-20.7639 L 104.688,-20 L 104.197,-19.3235 L 103.575,-18.7639 L 102.851,-18.3458
 L 102.056,-18.0874 L 101.224,-18 z
M 752.776,-18 L 751.944,-18.0874 L 751.149,-18.3458 L 750.425,-18.7639 L 749.803,-19.3235 L 749.312,-20
 L 748.972,-20.7639 L 748.798,-21.5819 L 748.798,-22.4181 L 748.972,-23.2361 L 749.312,-24 L 749.803,-24.6765
 L 750.425,-25.2361 L 751.274,-25.7072 L 830.498,-57.8123 L 831.301,-58.0436 L 832.135,-58.1028 L 832.964,-57.9873
 L 833.75,-57.7021 L 834.459,-57.2597 L 835.061,-56.6795 L 835.53,-55.9867 L 835.844,-55.2117 L 836,-54.1051
 L 836,-22 L 835.913,-21.1684 L 835.654,-20.373 L 835.236,-19.6489 L 834.677,-19.0274 L 834,-18.5359
 L 833.236,-18.1958 L 832,-18 z
M 411.854,-18 L 410.89,-18.1178 L 410.104,-18.403 L 409.394,-18.8454 L 408.792,-19.4256 L 408.324,-20.1184
 L 408.01,-20.8934 L 407.864,-21.7168 L 407.892,-22.5526 L 408.094,-23.3642 L 408.459,-24.1161 L 408.974,-24.7756
 L 409.614,-25.3138 L 410.352,-25.7072 L 425.498,-31.8451 L 426.036,-32.0201 L 426.865,-32.1356 L 427.699,-32.0764
 L 428.502,-31.8451 L 443.648,-25.7072 L 444.497,-25.2361 L 445.119,-24.6765 L 445.61,-24 L 445.95,-23.2361
 L 446.124,-22.4181 L 446.124,-21.5819 L 445.95,-20.7639 L 445.61,-20 L 445.119,-19.3235 L 444.497,-18.7639
 L 443.773,-18.3458 L 442.978,-18.0874 L 442.146,-18 z
" stroke="black" fill="lightgray" stroke-width="0.5"/>
</svg>
