<?xml version="1.0" standalone="no"?>
<!DOCTYPE svg PUBLIC "-//W3C//DTD SVG 1.1//EN" "http://www.w3.org/Graphics/SVG/1.1/DTD/svg11.dtd">
<svg width="567mm" height="80mm" viewBox="0 -80 567 80" xmlns="http://www.w3.org/2000/svg" version="1.1">
<title>OpenSCAD Model</title>
<path d="
M 567,-80 L 0,-80 L 0,-0 L 4.95,-0 L 4.95,-6 L 5.00572,-6.53017
 L 5.17046,-7.03717 L 5.437,-7.49884 L 5.79372,-7.895 L 6.22499,-8.20836 L 6.71201,-8.42519 L 7.23344,-8.53603
 L 7.76654,-8.53603 L 8.28798,-8.42519 L 8.77499,-8.20836 L 9.20627,-7.895 L 9.56299,-7.49884 L 9.82953,-7.03717
 L 9.99426,-6.53017 L 10.05,-6 L 10.05,-0 L 142.95,-0 L 142.95,-6 L 143.006,-6.53017
 L 143.17,-7.03717 L 143.437,-7.49884 L 143.794,-7.895 L 144.225,-8.20836 L 144.712,-8.42519 L 145.233,-8.53603
 L 145.767,-8.53603 L 146.288,-8.42519 L 146.775,-8.20836 L 147.206,-7.895 L 147.563,-7.49884 L 147.83,-7.03717
 L 147.994,-6.53017 L 148.05,-6 L 148.05,-0 L 280.95,-0 L 280.95,-6 L 281.006,-6.53017
 L 281.17,-7.03717 L 281.437,-7.49884 L 281.794,-7.895 L 282.225,-8.20836 L 282.712,-8.42519 L 283.233,-8.53603
 L 283.767,-8.53603 L 284.288,-8.42519 L 284.775,-8.20836 L 285.206,-7.895 L 285.563,-7.49884 L 285.83,-7.03717
 L 285.994,-6.53017 L 286.05,-6 L 286.05,-0 L 418.95,-0 L 418.95,-6 L 419.006,-6.53017
 L 419.17,-7.03717 L 419.437,-7.49884 L 419.794,-7.895 L 420.225,-8.20836 L 420.712,-8.42519 L 421.233,-8.53603
 L 421.767,-8.53603 L 422.288,-8.42519 L 422.775,-8.20836 L 423.206,-7.895 L 423.563,-7.49884 L 423.83,-7.03717
 L 423.994,-6.53017 L 424.05,-6 L 424.05,-0 L 556.95,-0 L 556.95,-6 L 557.006,-6.53017
 L 557.17,-7.03717 L 557.437,-7.49884 L 557.794,-7.895 L 558.225,-8.20836 L 558.712,-8.42519 L 559.233,-8.53603
 L 559.767,-8.53603 L 560.288,-8.42519 L 560.775,-8.20836 L 561.206,-7.895 L 561.563,-7.49884 L 561.83,-7.03717
 L 561.994,-6.53017 L 562.05,-6 L 562.05,-0 L 567,-0 z
M 6.98573,-55.607 L 6.47708,-55.6875 L 5.97964,-55.8208 L 5.49887,-56.0054 L 5.04001,-56.2392 L 4.60811,-56.5196
 L 4.20789,-56.8437 L 3.84373,-57.2079 L 3.51964,-57.6081 L 3.23917,-58.04 L 3.00537,-58.4989 L 2.82082,-58.9796
 L 2.68752,-59.4771 L 2.60696,-59.9857 L 2.58,-60.5 L 2.60696,-61.0143 L 2.68752,-61.5229 L 2.82082,-62.0204
 L 3.00537,-62.5011 L 3.23917,-62.96 L 3.51964,-63.3919 L 3.84373,-63.7921 L 4.20789,-64.1563 L 4.60811,-64.4804
 L 4.95001,-64.7024 L 4.95001,-74 L 5.00574,-74.5302 L 5.17047,-75.0372 L 5.43701,-75.4988 L 5.79373,-75.895
 L 6.22501,-76.2084 L 6.71202,-76.4252 L 7.23346,-76.536 L 7.76654,-76.536 L 8.28798,-76.4252 L 8.77499,-76.2084
 L 9.20627,-75.895 L 9.56299,-75.4988 L 9.82953,-75.0372 L 9.99426,-74.5302 L 10.05,-74 L 10.05,-64.7024
 L 10.3919,-64.4804 L 10.7921,-64.1563 L 11.1563,-63.7921 L 11.4804,-63.3919 L 11.7608,-62.96 L 11.9946,-62.5011
 L 12.1792,-62.0204 L 12.3125,-61.5229 L 12.393,-61.0143 L 12.42,-60.5 L 12.393,-59.9857 L 12.3125,-59.4771
 L 12.1792,-58.9796 L 11.9946,-58.4989 L 11.7608,-58.04 L 11.4804,-57.6081 L 11.1563,-57.2079 L 10.7921,-56.8437
 L 10.3919,-56.5196 L 9.95999,-56.2392 L 9.50113,-56.0054 L 9.02036,-55.8208 L 8.52292,-55.6875 L 8.01427,-55.607
 L 7.5,-55.58 z
M 144.986,-55.607 L 144.477,-55.6875 L 143.98,-55.8208 L 143.499,-56.0054 L 143.04,-56.2392 L 142.608,-56.5196
 L 142.208,-56.8437 L 141.844,-57.2079 L 141.52,-57.6081 L 141.239,-58.04 L 141.005,-58.4989 L 140.821,-58.9796
 L 140.688,-59.4771 L 140.607,-59.9857 L 140.58,-60.5 L 140.607,-61.0143 L 140.688,-61.5229 L 140.821,-62.0204
 L 141.005,-62.5011 L 141.239,-62.96 L 141.52,-63.3919 L 141.844,-63.7921 L 142.208,-64.1563 L 142.608,-64.4804
 L 142.95,-64.7024 L 142.95,-74 L 143.006,-74.5302 L 143.17,-75.0372 L 143.437,-75.4988 L 143.794,-75.895
 L 144.225,-76.2084 L 144.712,-76.4252 L 145.233,-76.536 L 145.767,-76.536 L 146.288,-76.4252 L 146.775,-76.2084
 L 147.206,-75.895 L 147.563,-75.4988 L 147.83,-75.0372 L 147.994,-74.5302 L 148.05,-74 L 148.05,-64.7024
 L 148.392,-64.4804 L 148.792,-64.1563 L 149.156,-63.7921 L 149.48,-63.3919 L 149.761,-62.96 L 149.995,-62.5011
 L 150.179,-62.0204 L 150.312,-61.5229 L 150.393,-61.0143 L 150.42,-60.5 L 150.393,-59.9857 L 150.312,-59.4771
 L 150.179,-58.9796 L 149.995,-58.4989 L 149.761,-58.04 L 149.48,-57.6081 L 149.156,-57.2079 L 148.792,-56.8437
 L 148.392,-56.5196 L 147.96,-56.2392 L 147.501,-56.0054 L 147.02,-55.8208 L 146.523,-55.6875 L 146.014,-55.607
 L 145.5,-55.58 z
M 282.986,-55.607 L 282.477,-55.6875 L 281.98,-55.8208 L 281.499,-56.0054 L 281.04,-56.2392 L 280.608,-56.5196
 L 280.208,-56.8437 L 279.844,-57.2079 L 279.52,-57.6081 L 279.239,-58.04 L 279.005,-58.4989 L 278.821,-58.9796
 L 278.688,-59.4771 L 278.607,-59.9857 L 278.58,-60.5 L 278.607,-61.0143 L 278.688,-61.5229 L 278.821,-62.0204
 L 279.005,-62.5011 L 279.239,-62.96 L 279.52,-63.3919 L 279.844,-63.7921 L 280.208,-64.1563 L 280.608,-64.4804
 L 280.95,-64.7024 L 280.95,-74 L 281.006,-74.5302 L 281.17,-75.0372 L 281.437,-75.4988 L 281.794,-75.895
 L 282.225,-76.2084 L 282.712,-76.4252 L 283.233,-76.536 L 283.767,-76.536 L 284.288,-76.4252 L 284.775,-76.2084
 L 285.206,-75.895 L 285.563,-75.4988 L 285.83,-75.0372 L 285.994,-74.5302 L 286.05,-74 L 286.05,-64.7024
 L 286.392,-64.4804 L 286.792,-64.1563 L 287.156,-63.7921 L 287.48,-63.3919 L 287.761,-62.96 L 287.995,-62.5011
 L 288.179,-62.0204 L 288.312,-61.5229 L 288.393,-61.0143 L 288.42,-60.5 L 288.393,-59.9857 L 288.312,-59.4771
 L 288.179,-58.9796 L 287.995,-58.4989 L 287.761,-58.04 L 287.48,-57.6081 L 287.156,-57.2079 L 286.792,-56.8437
 L 286.392,-56.5196 L 285.96,-56.2392 L 285.501,-56.0054 L 285.02,-55.8208 L 284.523,-55.6875 L 284.014,-55.607
 L 283.5,-55.58 z
M 420.986,-55.607 L 420.477,-55.6875 L 419.98,-55.8208 L 419.499,-56.0054 L 419.04,-56.2392 L 418.608,-56.5196
 L 418.208,-56.8437 L 417.844,-57.2079 L 417.52,-57.6081 L 417.239,-58.04 L 417.005,-58.4989 L 416.821,-58.9796
 L 416.688,-59.4771 L 416.607,-59.9857 L 416.58,-60.5 L 416.607,-61.0143 L 416.688,-61.5229 L 416.821,-62.0204
 L 417.005,-62.5011 L 417.239,-62.96 L 417.52,-63.3919 L 417.844,-63.7921 L 418.208,-64.1563 L 418.608,-64.4804
 L 418.95,-64.7024 L 418.95,-74 L 419.006,-74.5302 L 419.17,-75.0372 L 419.437,-75.4988 L 419.794,-75.895
 L 420.225,-76.2084 L 420.712,-76.4252 L 421.233,-76.536 L 421.767,-76.536 L 422.288,-76.4252 L 422.775,-76.2084
 L 423.206,-75.895 L 423.563,-75.4988 L 423.83,-75.0372 L 423.994,-74.5302 L 424.05,-74 L 424.05,-64.7024
 L 424.392,-64.4804 L 424.792,-64.1563 L 425.156,-63.7921 L 425.48,-63.3919 L 425.761,-62.96 L 425.995,-62.5011
 L 426.179,-62.0204 L 426.312,-61.5229 L 426.393,-61.0143 L 426.42,-60.5 L 426.393,-59.9857 L 426.312,-59.4771
 L 426.179,-58.9796 L 425.995,-58.4989 L 425.761,-58.04 L 425.48,-57.6081 L 425.156,-57.2079 L 424.792,-56.8437
 L 424.392,-56.5196 L 423.96,-56.2392 L 423.501,-56.0054 L 423.02,-55.8208 L 422.523,-55.6875 L 422.014,-55.607
 L 421.5,-55.58 z
M 558.986,-55.607 L 558.477,-55.6875 L 557.98,-55.8208 L 557.499,-56.0054 L 557.04,-56.2392 L 556.608,-56.5196
 L 556.208,-56.8437 L 555.844,-57.2079 L 555.52,-57.6081 L 555.239,-58.04 L 555.005,-58.4989 L 554.821,-58.9796
 L 554.688,-59.4771 L 554.607,-59.9857 L 554.58,-60.5 L 554.607,-61.0143 L 554.688,-61.5229 L 554.821,-62.0204
 L 555.005,-62.5011 L 555.239,-62.96 L 555.52,-63.3919 L 555.844,-63.7921 L 556.208,-64.1563 L 556.608,-64.4804
 L 556.95,-64.7024 L 556.95,-74 L 557.006,-74.5302 L 557.17,-75.0372 L 557.437,-75.4988 L 557.794,-75.895
 L 558.225,-76.2084 L 558.712,-76.4252 L 559.233,-76.536 L 559.767,-76.536 L 560.288,-76.4252 L 560.775,-76.2084
 L 561.206,-75.895 L 561.563,-75.4988 L 561.83,-75.0372 L 561.994,-74.5302 L 562.05,-74 L 562.05,-64.7024
 L 562.392,-64.4804 L 562.792,-64.1563 L 563.156,-63.7921 L 563.48,-63.3919 L 563.761,-62.96 L 563.995,-62.5011
 L 564.179,-62.0204 L 564.312,-61.5229 L 564.393,-61.0143 L 564.42,-60.5 L 564.393,-59.9857 L 564.312,-59.4771
 L 564.179,-58.9796 L 563.995,-58.4989 L 563.761,-58.04 L 563.48,-57.6081 L 563.156,-57.2079 L 562.792,-56.8437
 L 562.392,-56.5196 L 561.96,-56.2392 L 561.501,-56.0054 L 561.02,-55.8208 L 560.523,-55.6875 L 560.014,-55.607
 L 559.5,-55.58 z
M 295.821,-22.9453 L 295.017,-23.1726 L 294.277,-23.5622 L 293.634,-24.0971 L 293.116,-24.754 L 292.747,-25.5041
 L 292.541,-26.3146 L 292.5,-26.8873 L 292.5,-58 L 292.587,-58.8316 L 292.846,-59.627 L 293.264,-60.3511
 L 293.823,-60.9726 L 294.5,-61.4641 L 295.264,-61.8042 L 296.5,-62 L 359.64,-62 L 360.472,-61.9126
 L 361.267,-61.6542 L 361.992,-61.2361 L 362.613,-60.6765 L 363.104,-60 L 363.445,-59.2361 L 363.618,-58.4181
 L 363.618,-57.5819 L 363.445,-56.7639 L 363.104,-56 L 362.613,-55.3235 L 361.992,-54.7639 L 361.408,-54.412
 L 298.268,-23.2993 L 297.483,-23.0101 L 296.656,-22.8904 z
M 269.517,-23.0101 L 268.732,-23.2993 L 205.592,-54.412 L 205.008,-54.7639 L 204.387,-55.3235 L 203.896,-56
 L 203.555,-56.7639 L 203.382,-57.5819 L 203.382,-58.4181 L 203.555,-59.2361 L 203.896,-60 L 204.387,-60.6765
 L 205.008,-61.2361 L 205.733,-61.6542 L 206.528,-61.9126 L 207.36,-62 L 270.5,-62 L 271.736,-61.8042
 L 272.5,-61.4641 L 273.177,-60.9726 L 273.736,-60.3511 L 274.154,-59.627 L 274.413,-58.8316 L 274.5,-58
 L 274.5,-26.8873 L 274.459,-26.3146 L 274.253,-25.5041 L 273.884,-24.754 L 273.366,-24.0971 L 272.723,-23.5622
 L 271.983,-23.1726 L 271.179,-22.9453 L 270.344,-22.8904 z
M 433.821,-22.9453 L 433.017,-23.1726 L 432.277,-23.5622 L 431.634,-24.0971 L 431.116,-24.754 L 430.747,-25.5041
 L 430.541,-26.3146 L 430.5,-26.8873 L 430.5,-58 L 430.587,-58.8316 L 430.846,-59.627 L 431.264,-60.3511
 L 431.823,-60.9726 L 432.5,-61.4641 L 433.264,-61.8042 L 434.5,-62 L 497.64,-62 L 498.472,-61.9126
 L 499.267,-61.6542 L 499.992,-61.2361 L 500.613,-60.6765 L 501.104,-60 L 501.445,-59.2361 L 501.618,-58.4181
 L 501.618,-57.5819 L 501.445,-56.7639 L 501.104,-56 L 500.613,-55.3235 L 499.992,-54.7639 L 499.408,-54.412
 L 436.268,-23.2993 L 435.483,-23.0101 L 434.656,-22.8904 z
M 131.517,-23.0101 L 130.732,-23.2993 L 67.5916,-54.412 L 67.0085,-54.7639 L 66.387,-55.3235 L 65.8955,-56
 L 65.5554,-56.7639 L 65.3815,-57.5819 L 65.3815,-58.4181 L 65.5554,-59.2361 L 65.8955,-60 L 66.387,-60.6765
 L 67.0085,-61.2361 L 67.7327,-61.6542 L 68.528,-61.9126 L 69.3596,-62 L 132.5,-62 L 133.736,-61.8042
 L 134.5,-61.4641 L 135.177,-60.9726 L 135.736,-60.3511 L 136.154,-59.627 L 136.413,-58.8316 L 136.5,-58
 L 136.5,-26.8873 L 136.459,-26.3146 L 136.253,-25.5041 L 135.884,-24.754 L 135.366,-24.0971 L 134.723,-23.5622
 L 133.983,-23.1726 L 133.179,-22.9453 L 132.344,-22.8904 z
M 345.36,-18 L 344.528,-18.0874 L 343.733,-18.3458 L 343.008,-18.7639 L 342.387,-19.3235 L 341.896,-20
 L 341.555,-20.7639 L 341.382,-21.5819 L 341.382,-22.4181 L 341.555,-23.2361 L 341.896,-24 L 342.387,-24.6765
 L 343.008,-25.2361 L 343.592,-25.588 L 406.732,-56.7007 L 407.517,-56.9899 L 408.344,-57.1096 L 409.179,-57.0547
 L 409.983,-56.8274 L 410.723,-56.4378 L 411.366,-55.9029 L 411.884,-55.246 L 412.253,-54.4959 L 412.459,-53.6854
 L 412.5,-53.1126 L 412.5,-22 L 412.413,-21.1684 L 412.154,-20.373 L 411.736,-19.6489 L 411.177,-19.0274
 L 410.5,-18.5359 L 409.736,-18.1958 L 408.5,-18 z
M 158.5,-18 L 157.264,-18.1958 L 156.5,-18.5359 L 155.823,-19.0274 L 155.264,-19.6489 L 154.846,-20.373
 L 154.587,-21.1684 L 154.5,-22 L 154.5,-53.1126 L 154.541,-53.6854 L 154.747,-54.4959 L 155.116,-55.246
 L 155.634,-55.9029 L 156.277,-56.4378 L 157.017,-56.8274 L 157.821,-57.0547 L 158.656,-57.1096 L 159.483,-56.9899
 L 160.268,-56.7007 L 223.408,-25.588 L 223.992,-25.2361 L 224.613,-24.6765 L 225.104,-24 L 225.445,-23.2361
 L 225.618,-22.4181 L 225.618,-21.5819 L 225.445,-20.7639 L 225.104,-20 L 224.613,-19.3235 L 223.992,-18.7639
 L 223.267,-18.3458 L 222.472,-18.0874 L 221.64,-18 z
M 22,-18 L 20.7639,-18.1958 L 20,-18.5359 L 19.3235,-19.0274 L 18.7639,-19.6489 L 18.3458,-20.373
 L 18.0874,-21.1684 L 18,-22 L 18,-52.3735 L 18.0412,-52.9462 L 18.2468,-53.7568 L 18.6164,-54.5069
 L 19.1339,-55.1638 L 19.7767,-55.6987 L 20.5166,-56.0883 L 21.3214,-56.3155 L 22.1558,-56.3705 L 22.9834,-56.2507
 L 23.768,-55.9615 L 85.4084,-25.588 L 85.9915,-25.2361 L 86.6129,-24.6765 L 87.1045,-24 L 87.4446,-23.2361
 L 87.6185,-22.4181 L 87.6185,-21.5819 L 87.4446,-20.7639 L 87.1045,-20 L 86.6129,-19.3235 L 85.9915,-18.7639
 L 85.2673,-18.3458 L 84.472,-18.0874 L 83.6404,-18 z
M 483.36,-18 L 482.528,-18.0874 L 481.733,-18.3458 L 481.008,-18.7639 L 480.387,-19.3235 L 479.896,-20
 L 479.555,-20.7639 L 479.382,-21.5819 L 479.382,-22.4181 L 479.555,-23.2361 L 479.896,-24 L 480.387,-24.6765
 L 481.008,-25.2361 L 481.592,-25.588 L 543.232,-55.9615 L 544.017,-56.2507 L 544.844,-56.3705 L 545.679,-56.3155
 L 546.483,-56.0883 L 547.223,-55.6987 L 547.866,-55.1638 L 548.384,-54.5069 L 548.753,-53.7568 L 548.959,-52.9462
 L 549,-52.3735 L 549,-22 L 548.913,-21.1684 L 548.654,-20.373 L 548.236,-19.6489 L 547.677,-19.0274
 L 547,-18.5359 L 546.236,-18.1958 L 545,-18 z
" stroke="black" fill="lightgray" stroke-width="0.5"/>
</svg>
