<?xml version="1.0" standalone="no"?>
<!DOCTYPE svg PUBLIC "-//W3C//DTD SVG 1.1//EN" "http://www.w3.org/Graphics/SVG/1.1/DTD/svg11.dtd">
<svg width="480mm" height="80mm" viewBox="0 -80 480 80" xmlns="http://www.w3.org/2000/svg" version="1.1">
<title>OpenSCAD Model</title>
<path d="
M 480,-80 L 0,-80 L 0,-0 L 4.95,-0 L 4.95,-6 L 5.00572,-6.53017
 L 5.17046,-7.03717 L 5.437,-7.49884 L 5.79372,-7.895 L 6.22499,-8.20836 L 6.71201,-8.42519 L 7.23344,-8.53603
 L 7.76654,-8.53603 L 8.28798,-8.42519 L 8.77499,-8.20836 L 9.20627,-7.895 L 9.56299,-7.49884 L 9.82953,-7.03717
 L 9.99426,-6.53017 L 10.05,-6 L 10.05,-0 L 121.2,-0 L 121.2,-6 L 121.256,-6.53017
 L 121.42,-7.03717 L 121.687,-7.49884 L 122.044,-7.895 L 122.475,-8.20836 L 122.962,-8.42519 L 123.483,-8.53603
 L 124.017,-8.53603 L 124.538,-8.42519 L 125.025,-8.20836 L 125.456,-7.895 L 125.813,-7.49884 L 126.08,-7.03717
 L 126.244,-6.53017 L 126.3,-6 L 126.3,-0 L 237.45,-0 L 237.45,-6 L 237.506,-6.53017
 L 237.67,-7.03717 L 237.937,-7.49884 L 238.294,-7.895 L 238.725,-8.20836 L 239.212,-8.42519 L 239.733,-8.53603
 L 240.267,-8.53603 L 240.788,-8.42519 L 241.275,-8.20836 L 241.706,-7.895 L 242.063,-7.49884 L 242.33,-7.03717
 L 242.494,-6.53017 L 242.55,-6 L 242.55,-0 L 353.7,-0 L 353.7,-6 L 353.756,-6.53017
 L 353.92,-7.03717 L 354.187,-7.49884 L 354.544,-7.895 L 354.975,-8.20836 L 355.462,-8.42519 L 355.983,-8.53603
 L 356.517,-8.53603 L 357.038,-8.42519 L 357.525,-8.20836 L 357.956,-7.895 L 358.313,-7.49884 L 358.58,-7.03717
 L 358.744,-6.53017 L 358.8,-6 L 358.8,-0 L 469.95,-0 L 469.95,-6 L 470.006,-6.53017
 L 470.17,-7.03717 L 470.437,-7.49884 L 470.794,-7.895 L 471.225,-8.20836 L 471.712,-8.42519 L 472.233,-8.53603
 L 472.767,-8.53603 L 473.288,-8.42519 L 473.775,-8.20836 L 474.206,-7.895 L 474.563,-7.49884 L 474.83,-7.03717
 L 474.994,-6.53017 L 475.05,-6 L 475.05,-0 L 480,-0 z
M 6.98573,-55.607 L 6.47708,-55.6875 L 5.97964,-55.8208 L 5.49887,-56.0054 L 5.04001,-56.2392 L 4.60811,-56.5196
 L 4.20789,-56.8437 L 3.84373,-57.2079 L 3.51964,-57.6081 L 3.23917,-58.04 L 3.00537,-58.4989 L 2.82082,-58.9796
 L 2.68752,-59.4771 L 2.60696,-59.9857 L 2.58,-60.5 L 2.60696,-61.0143 L 2.68752,-61.5229 L 2.82082,-62.0204
 L 3.00537,-62.5011 L 3.23917,-62.96 L 3.51964,-63.3919 L 3.84373,-63.7921 L 4.20789,-64.1563 L 4.60811,-64.4804
 L 4.95001,-64.7024 L 4.95001,-74 L 5.00574,-74.5302 L 5.17047,-75.0372 L 5.43701,-75.4988 L 5.79373,-75.895
 L 6.22501,-76.2084 L 6.71202,-76.4252 L 7.23346,-76.536 L 7.76654,-76.536 L 8.28798,-76.4252 L 8.77499,-76.2084
 L 9.20627,-75.895 L 9.56299,-75.4988 L 9.82953,-75.0372 L 9.99426,-74.5302 L 10.05,-74 L 10.05,-64.7024
 L 10.3919,-64.4804 L 10.7921,-64.1563 L 11.1563,-63.7921 L 11.4804,-63.3919 L 11.7608,-62.96 L 11.9946,-62.5011
 L 12.1792,-62.0204 L 12.3125,-61.5229 L 12.393,-61.0143 L 12.42,-60.5 L 12.393,-59.9857 L 12.3125,-59.4771
 L 12.1792,-58.9796 L 11.9946,-58.4989 L 11.7608,-58.04 L 11.4804,-57.6081 L 11.1563,-57.2079 L 10.7921,-56.8437
 L 10.3919,-56.5196 L 9.95999,-56.2392 L 9.50113,-56.0054 L 9.02036,-55.8208 L 8.52292,-55.6875 L 8.01427,-55.607
 L 7.5,-55.58 z
M 123.236,-55.607 L 122.727,-55.6875 L 122.23,-55.8208 L 121.749,-56.0054 L 121.29,-56.2392 L 120.858,-56.5196
 L 120.458,-56.8437 L 120.094,-57.2079 L 119.77,-57.6081 L 119.489,-58.04 L 119.255,-58.4989 L 119.071,-58.9796
 L 118.938,-59.4771 L 118.857,-59.9857 L 118.83,-60.5 L 118.857,-61.0143 L 118.938,-61.5229 L 119.071,-62.0204
 L 119.255,-62.5011 L 119.489,-62.96 L 119.77,-63.3919 L 120.094,-63.7921 L 120.458,-64.1563 L 120.858,-64.4804
 L 121.2,-64.7024 L 121.2,-74 L 121.256,-74.5302 L 121.42,-75.0372 L 121.687,-75.4988 L 122.044,-75.895
 L 122.475,-76.2084 L 122.962,-76.4252 L 123.483,-76.536 L 124.017,-76.536 L 124.538,-76.4252 L 125.025,-76.2084
 L 125.456,-75.895 L 125.813,-75.4988 L 126.08,-75.0372 L 126.244,-74.5302 L 126.3,-74 L 126.3,-64.7024
 L 126.642,-64.4804 L 127.042,-64.1563 L 127.406,-63.7921 L 127.73,-63.3919 L 128.011,-62.96 L 128.245,-62.5011
 L 128.429,-62.0204 L 128.562,-61.5229 L 128.643,-61.0143 L 128.67,-60.5 L 128.643,-59.9857 L 128.562,-59.4771
 L 128.429,-58.9796 L 128.245,-58.4989 L 128.011,-58.04 L 127.73,-57.6081 L 127.406,-57.2079 L 127.042,-56.8437
 L 126.642,-56.5196 L 126.21,-56.2392 L 125.751,-56.0054 L 125.27,-55.8208 L 124.773,-55.6875 L 124.264,-55.607
 L 123.75,-55.58 z
M 239.486,-55.607 L 238.977,-55.6875 L 238.48,-55.8208 L 237.999,-56.0054 L 237.54,-56.2392 L 237.108,-56.5196
 L 236.708,-56.8437 L 236.344,-57.2079 L 236.02,-57.6081 L 235.739,-58.04 L 235.505,-58.4989 L 235.321,-58.9796
 L 235.188,-59.4771 L 235.107,-59.9857 L 235.08,-60.5 L 235.107,-61.0143 L 235.188,-61.5229 L 235.321,-62.0204
 L 235.505,-62.5011 L 235.739,-62.96 L 236.02,-63.3919 L 236.344,-63.7921 L 236.708,-64.1563 L 237.108,-64.4804
 L 237.45,-64.7024 L 237.45,-74 L 237.506,-74.5302 L 237.67,-75.0372 L 237.937,-75.4988 L 238.294,-75.895
 L 238.725,-76.2084 L 239.212,-76.4252 L 239.733,-76.536 L 240.267,-76.536 L 240.788,-76.4252 L 241.275,-76.2084
 L 241.706,-75.895 L 242.063,-75.4988 L 242.33,-75.0372 L 242.494,-74.5302 L 242.55,-74 L 242.55,-64.7024
 L 242.892,-64.4804 L 243.292,-64.1563 L 243.656,-63.7921 L 243.98,-63.3919 L 244.261,-62.96 L 244.495,-62.5011
 L 244.679,-62.0204 L 244.812,-61.5229 L 244.893,-61.0143 L 244.92,-60.5 L 244.893,-59.9857 L 244.812,-59.4771
 L 244.679,-58.9796 L 244.495,-58.4989 L 244.261,-58.04 L 243.98,-57.6081 L 243.656,-57.2079 L 243.292,-56.8437
 L 242.892,-56.5196 L 242.46,-56.2392 L 242.001,-56.0054 L 241.52,-55.8208 L 241.023,-55.6875 L 240.514,-55.607
 L 240,-55.58 z
M 355.736,-55.607 L 355.227,-55.6875 L 354.73,-55.8208 L 354.249,-56.0054 L 353.79,-56.2392 L 353.358,-56.5196
 L 352.958,-56.8437 L 352.594,-57.2079 L 352.27,-57.6081 L 351.989,-58.04 L 351.755,-58.4989 L 351.571,-58.9796
 L 351.438,-59.4771 L 351.357,-59.9857 L 351.33,-60.5 L 351.357,-61.0143 L 351.438,-61.5229 L 351.571,-62.0204
 L 351.755,-62.5011 L 351.989,-62.96 L 352.27,-63.3919 L 352.594,-63.7921 L 352.958,-64.1563 L 353.358,-64.4804
 L 353.7,-64.7024 L 353.7,-74 L 353.756,-74.5302 L 353.92,-75.0372 L 354.187,-75.4988 L 354.544,-75.895
 L 354.975,-76.2084 L 355.462,-76.4252 L 355.983,-76.536 L 356.517,-76.536 L 357.038,-76.4252 L 357.525,-76.2084
 L 357.956,-75.895 L 358.313,-75.4988 L 358.58,-75.0372 L 358.744,-74.5302 L 358.8,-74 L 358.8,-64.7024
 L 359.142,-64.4804 L 359.542,-64.1563 L 359.906,-63.7921 L 360.23,-63.3919 L 360.511,-62.96 L 360.745,-62.5011
 L 360.929,-62.0204 L 361.062,-61.5229 L 361.143,-61.0143 L 361.17,-60.5 L 361.143,-59.9857 L 361.062,-59.4771
 L 360.929,-58.9796 L 360.745,-58.4989 L 360.511,-58.04 L 360.23,-57.6081 L 359.906,-57.2079 L 359.542,-56.8437
 L 359.142,-56.5196 L 358.71,-56.2392 L 358.251,-56.0054 L 357.77,-55.8208 L 357.273,-55.6875 L 356.764,-55.607
 L 356.25,-55.58 z
M 471.986,-55.607 L 471.477,-55.6875 L 470.98,-55.8208 L 470.499,-56.0054 L 470.04,-56.2392 L 469.608,-56.5196
 L 469.208,-56.8437 L 468.844,-57.2079 L 468.52,-57.6081 L 468.239,-58.04 L 468.005,-58.4989 L 467.821,-58.9796
 L 467.688,-59.4771 L 467.607,-59.9857 L 467.58,-60.5 L 467.607,-61.0143 L 467.688,-61.5229 L 467.821,-62.0204
 L 468.005,-62.5011 L 468.239,-62.96 L 468.52,-63.3919 L 468.844,-63.7921 L 469.208,-64.1563 L 469.608,-64.4804
 L 469.95,-64.7024 L 469.95,-74 L 470.006,-74.5302 L 470.17,-75.0372 L 470.437,-75.4988 L 470.794,-75.895
 L 471.225,-76.2084 L 471.712,-76.4252 L 472.233,-76.536 L 472.767,-76.536 L 473.288,-76.4252 L 473.775,-76.2084
 L 474.206,-75.895 L 474.563,-75.4988 L 474.83,-75.0372 L 474.994,-74.5302 L 475.05,-74 L 475.05,-64.7024
 L 475.392,-64.4804 L 475.792,-64.1563 L 476.156,-63.7921 L 476.48,-63.3919 L 476.761,-62.96 L 476.995,-62.5011
 L 477.179,-62.0204 L 477.312,-61.5229 L 477.393,-61.0143 L 477.42,-60.5 L 477.393,-59.9857 L 477.312,-59.4771
 L 477.179,-58.9796 L 476.995,-58.4989 L 476.761,-58.04 L 476.48,-57.6081 L 476.156,-57.2079 L 475.792,-56.8437
 L 475.392,-56.5196 L 474.96,-56.2392 L 474.501,-56.0054 L 474.02,-55.8208 L 473.523,-55.6875 L 473.014,-55.607
 L 472.5,-55.58 z
M 251.786,-24.8536 L 251.02,-25.1894 L 250.34,-25.677 L 249.777,-26.2953 L 249.355,-27.0171 L 249.092,-27.8109
 L 249,-28.6648 L 249,-58 L 249.087,-58.8316 L 249.346,-59.627 L 249.764,-60.3511 L 250.323,-60.9726
 L 251,-61.4641 L 251.764,-61.8042 L 253,-62 L 303.15,-62 L 303.982,-61.9126 L 304.777,-61.6542
 L 305.501,-61.2361 L 306.123,-60.6765 L 306.614,-60 L 306.955,-59.2361 L 307.128,-58.4181 L 307.128,-57.5819
 L 306.955,-56.7639 L 306.614,-56 L 306.123,-55.3235 L 305.17,-54.5473 L 255.02,-25.2121 L 254.258,-24.8676
 L 253.441,-24.6891 L 252.604,-24.6844 z
M 226.559,-24.6891 L 225.742,-24.8676 L 224.98,-25.2121 L 174.83,-54.5473 L 173.877,-55.3235 L 173.386,-56
 L 173.045,-56.7639 L 172.872,-57.5819 L 172.872,-58.4181 L 173.045,-59.2361 L 173.386,-60 L 173.877,-60.6765
 L 174.499,-61.2361 L 175.223,-61.6542 L 176.018,-61.9126 L 176.85,-62 L 227,-62 L 228.236,-61.8042
 L 229,-61.4641 L 229.677,-60.9726 L 230.236,-60.3511 L 230.654,-59.627 L 230.913,-58.8316 L 231,-58
 L 231,-28.6648 L 230.908,-27.8109 L 230.645,-27.0171 L 230.223,-26.2953 L 229.66,-25.677 L 228.98,-25.1894
 L 228.214,-24.8536 L 227.396,-24.6844 z
M 368.036,-24.8536 L 367.27,-25.1894 L 366.59,-25.677 L 366.027,-26.2953 L 365.605,-27.0171 L 365.342,-27.8109
 L 365.25,-28.6648 L 365.25,-58 L 365.337,-58.8316 L 365.596,-59.627 L 366.014,-60.3511 L 366.573,-60.9726
 L 367.25,-61.4641 L 368.014,-61.8042 L 369.25,-62 L 419.4,-62 L 420.232,-61.9126 L 421.027,-61.6542
 L 421.751,-61.2361 L 422.373,-60.6765 L 422.864,-60 L 423.205,-59.2361 L 423.378,-58.4181 L 423.378,-57.5819
 L 423.205,-56.7639 L 422.864,-56 L 422.373,-55.3235 L 421.42,-54.5473 L 371.27,-25.2121 L 370.508,-24.8676
 L 369.691,-24.6891 L 368.854,-24.6844 z
M 110.309,-24.6891 L 109.492,-24.8676 L 108.73,-25.2121 L 58.5801,-54.5473 L 57.6271,-55.3235 L 57.1356,-56
 L 56.7955,-56.7639 L 56.6216,-57.5819 L 56.6216,-58.4181 L 56.7955,-59.2361 L 57.1356,-60 L 57.6271,-60.6765
 L 58.2486,-61.2361 L 58.9727,-61.6542 L 59.7681,-61.9126 L 60.5997,-62 L 110.75,-62 L 111.986,-61.8042
 L 112.75,-61.4641 L 113.427,-60.9726 L 113.986,-60.3511 L 114.404,-59.627 L 114.663,-58.8316 L 114.75,-58
 L 114.75,-28.6648 L 114.658,-27.8109 L 114.395,-27.0171 L 113.973,-26.2953 L 113.41,-25.677 L 112.73,-25.1894
 L 111.964,-24.8536 L 111.146,-24.6844 z
M 293.1,-18 L 292.268,-18.0874 L 291.473,-18.3458 L 290.749,-18.7639 L 290.127,-19.3235 L 289.636,-20
 L 289.295,-20.7639 L 289.122,-21.5819 L 289.122,-22.4181 L 289.295,-23.2361 L 289.636,-24 L 290.127,-24.6765
 L 291.08,-25.4527 L 341.23,-54.7879 L 341.992,-55.1324 L 342.809,-55.3109 L 343.646,-55.3156 L 344.464,-55.1464
 L 345.23,-54.8106 L 345.91,-54.323 L 346.473,-53.7047 L 346.895,-52.9829 L 347.158,-52.1891 L 347.25,-51.3352
 L 347.25,-22 L 347.163,-21.1684 L 346.904,-20.373 L 346.486,-19.6489 L 345.927,-19.0274 L 345.25,-18.5359
 L 344.486,-18.1958 L 343.25,-18 z
M 136.75,-18 L 135.514,-18.1958 L 134.75,-18.5359 L 134.073,-19.0274 L 133.514,-19.6489 L 133.096,-20.373
 L 132.837,-21.1684 L 132.75,-22 L 132.75,-51.3352 L 132.842,-52.1891 L 133.105,-52.9829 L 133.527,-53.7047
 L 134.09,-54.323 L 134.77,-54.8106 L 135.536,-55.1464 L 136.354,-55.3156 L 137.191,-55.3109 L 138.008,-55.1324
 L 138.77,-54.7879 L 188.92,-25.4527 L 189.873,-24.6765 L 190.364,-24 L 190.705,-23.2361 L 190.878,-22.4181
 L 190.878,-21.5819 L 190.705,-20.7639 L 190.364,-20 L 189.873,-19.3235 L 189.251,-18.7639 L 188.527,-18.3458
 L 187.732,-18.0874 L 186.9,-18 z
M 22,-18 L 20.7639,-18.1958 L 20,-18.5359 L 19.3235,-19.0274 L 18.7639,-19.6489 L 18.3458,-20.373
 L 18.0874,-21.1684 L 18,-22 L 18,-50.4578 L 18.0922,-51.3116 L 18.3551,-52.1055 L 18.7773,-52.8273
 L 19.3404,-53.4455 L 20.0197,-53.9332 L 20.7856,-54.269 L 21.6045,-54.4382 L 22.4407,-54.4334 L 23.2576,-54.2549
 L 24.0196,-53.9105 L 72.6699,-25.4527 L 73.6229,-24.6765 L 74.1144,-24 L 74.4545,-23.2361 L 74.6284,-22.4181
 L 74.6284,-21.5819 L 74.4545,-20.7639 L 74.1144,-20 L 73.6229,-19.3235 L 73.0014,-18.7639 L 72.2773,-18.3458
 L 71.4819,-18.0874 L 70.6503,-18 z
M 409.35,-18 L 408.518,-18.0874 L 407.723,-18.3458 L 406.999,-18.7639 L 406.377,-19.3235 L 405.886,-20
 L 405.545,-20.7639 L 405.372,-21.5819 L 405.372,-22.4181 L 405.545,-23.2361 L 405.886,-24 L 406.377,-24.6765
 L 407.33,-25.4527 L 455.98,-53.9105 L 456.742,-54.2549 L 457.559,-54.4334 L 458.396,-54.4382 L 459.214,-54.269
 L 459.98,-53.9332 L 460.66,-53.4455 L 461.223,-52.8273 L 461.645,-52.1055 L 461.908,-51.3116 L 462,-50.4578
 L 462,-22 L 461.913,-21.1684 L 461.654,-20.373 L 461.236,-19.6489 L 460.677,-19.0274 L 460,-18.5359
 L 459.236,-18.1958 L 458,-18 z
" stroke="black" fill="lightgray" stroke-width="0.5"/>
</svg>
