<?xml version="1.0" standalone="no"?>
<!DOCTYPE svg PUBLIC "-//W3C//DTD SVG 1.1//EN" "http://www.w3.org/Graphics/SVG/1.1/DTD/svg11.dtd">
<svg width="750mm" height="80mm" viewBox="0 -80 750 80" xmlns="http://www.w3.org/2000/svg" version="1.1">
<title>OpenSCAD Model</title>
<path d="
M 750,-80 L 0,-80 L 0,-0 L 4.95,-0 L 4.95,-6 L 5.00572,-6.53017
 L 5.17046,-7.03717 L 5.437,-7.49884 L 5.79372,-7.895 L 6.22499,-8.20836 L 6.71201,-8.42519 L 7.23344,-8.53603
 L 7.76654,-8.53603 L 8.28798,-8.42519 L 8.77499,-8.20836 L 9.20627,-7.895 L 9.56299,-7.49884 L 9.82953,-7.03717
 L 9.99426,-6.53017 L 10.05,-6 L 10.05,-0 L 151.95,-0 L 151.95,-6 L 152.006,-6.53017
 L 152.17,-7.03717 L 152.437,-7.49884 L 152.794,-7.895 L 153.225,-8.20836 L 153.712,-8.42519 L 154.233,-8.53603
 L 154.767,-8.53603 L 155.288,-8.42519 L 155.775,-8.20836 L 156.206,-7.895 L 156.563,-7.49884 L 156.83,-7.03717
 L 156.994,-6.53017 L 157.05,-6 L 157.05,-0 L 298.95,-0 L 298.95,-6 L 299.006,-6.53017
 L 299.17,-7.03717 L 299.437,-7.49884 L 299.794,-7.895 L 300.225,-8.20836 L 300.712,-8.42519 L 301.233,-8.53603
 L 301.767,-8.53603 L 302.288,-8.42519 L 302.775,-8.20836 L 303.206,-7.895 L 303.563,-7.49884 L 303.83,-7.03717
 L 303.994,-6.53017 L 304.05,-6 L 304.05,-0 L 445.95,-0 L 445.95,-6 L 446.006,-6.53017
 L 446.17,-7.03717 L 446.437,-7.49884 L 446.794,-7.895 L 447.225,-8.20836 L 447.712,-8.42519 L 448.233,-8.53603
 L 448.767,-8.53603 L 449.288,-8.42519 L 449.775,-8.20836 L 450.206,-7.895 L 450.563,-7.49884 L 450.83,-7.03717
 L 450.994,-6.53017 L 451.05,-6 L 451.05,-0 L 592.95,-0 L 592.95,-6 L 593.006,-6.53017
 L 593.17,-7.03717 L 593.437,-7.49884 L 593.794,-7.895 L 594.225,-8.20836 L 594.712,-8.42519 L 595.233,-8.53603
 L 595.767,-8.53603 L 596.288,-8.42519 L 596.775,-8.20836 L 597.206,-7.895 L 597.563,-7.49884 L 597.83,-7.03717
 L 597.994,-6.53017 L 598.05,-6 L 598.05,-0 L 739.95,-0 L 739.95,-6 L 740.006,-6.53017
 L 740.17,-7.03717 L 740.437,-7.49884 L 740.794,-7.895 L 741.225,-8.20836 L 741.712,-8.42519 L 742.233,-8.53603
 L 742.767,-8.53603 L 743.288,-8.42519 L 743.775,-8.20836 L 744.206,-7.895 L 744.563,-7.49884 L 744.83,-7.03717
 L 744.994,-6.53017 L 745.05,-6 L 745.05,-0 L 750,-0 z
M 6.98573,-55.607 L 6.47708,-55.6875 L 5.97964,-55.8208 L 5.49887,-56.0054 L 5.04001,-56.2392 L 4.60811,-56.5196
 L 4.20789,-56.8437 L 3.84373,-57.2079 L 3.51964,-57.6081 L 3.23917,-58.04 L 3.00537,-58.4989 L 2.82082,-58.9796
 L 2.68752,-59.4771 L 2.60696,-59.9857 L 2.58,-60.5 L 2.60696,-61.0143 L 2.68752,-61.5229 L 2.82082,-62.0204
 L 3.00537,-62.5011 L 3.23917,-62.96 L 3.51964,-63.3919 L 3.84373,-63.7921 L 4.20789,-64.1563 L 4.60811,-64.4804
 L 4.95001,-64.7024 L 4.95001,-74 L 5.00574,-74.5302 L 5.17047,-75.0372 L 5.43701,-75.4988 L 5.79373,-75.895
 L 6.22501,-76.2084 L 6.71202,-76.4252 L 7.23346,-76.536 L 7.76654,-76.536 L 8.28798,-76.4252 L 8.77499,-76.2084
 L 9.20627,-75.895 L 9.56299,-75.4988 L 9.82953,-75.0372 L 9.99426,-74.5302 L 10.05,-74 L 10.05,-64.7024
 L 10.3919,-64.4804 L 10.7921,-64.1563 L 11.1563,-63.7921 L 11.4804,-63.3919 L 11.7608,-62.96 L 11.9946,-62.5011
 L 12.1792,-62.0204 L 12.3125,-61.5229 L 12.393,-61.0143 L 12.42,-60.5 L 12.393,-59.9857 L 12.3125,-59.4771
 L 12.1792,-58.9796 L 11.9946,-58.4989 L 11.7608,-58.04 L 11.4804,-57.6081 L 11.1563,-57.2079 L 10.7921,-56.8437
 L 10.3919,-56.5196 L 9.95999,-56.2392 L 9.50113,-56.0054 L 9.02036,-55.8208 L 8.52292,-55.6875 L 8.01427,-55.607
 L 7.5,-55.58 z
M 153.986,-55.607 L 153.477,-55.6875 L 152.98,-55.8208 L 152.499,-56.0054 L 152.04,-56.2392 L 151.608,-56.5196
 L 151.208,-56.8437 L 150.844,-57.2079 L 150.52,-57.6081 L 150.239,-58.04 L 150.005,-58.4989 L 149.821,-58.9796
 L 149.688,-59.4771 L 149.607,-59.9857 L 149.58,-60.5 L 149.607,-61.0143 L 149.688,-61.5229 L 149.821,-62.0204
 L 150.005,-62.5011 L 150.239,-62.96 L 150.52,-63.3919 L 150.844,-63.7921 L 151.208,-64.1563 L 151.608,-64.4804
 L 151.95,-64.7024 L 151.95,-74 L 152.006,-74.5302 L 152.17,-75.0372 L 152.437,-75.4988 L 152.794,-75.895
 L 153.225,-76.2084 L 153.712,-76.4252 L 154.233,-76.536 L 154.767,-76.536 L 155.288,-76.4252 L 155.775,-76.2084
 L 156.206,-75.895 L 156.563,-75.4988 L 156.83,-75.0372 L 156.994,-74.5302 L 157.05,-74 L 157.05,-64.7024
 L 157.392,-64.4804 L 157.792,-64.1563 L 158.156,-63.7921 L 158.48,-63.3919 L 158.761,-62.96 L 158.995,-62.5011
 L 159.179,-62.0204 L 159.312,-61.5229 L 159.393,-61.0143 L 159.42,-60.5 L 159.393,-59.9857 L 159.312,-59.4771
 L 159.179,-58.9796 L 158.995,-58.4989 L 158.761,-58.04 L 158.48,-57.6081 L 158.156,-57.2079 L 157.792,-56.8437
 L 157.392,-56.5196 L 156.96,-56.2392 L 156.501,-56.0054 L 156.02,-55.8208 L 155.523,-55.6875 L 155.014,-55.607
 L 154.5,-55.58 z
M 300.986,-55.607 L 300.477,-55.6875 L 299.98,-55.8208 L 299.499,-56.0054 L 299.04,-56.2392 L 298.608,-56.5196
 L 298.208,-56.8437 L 297.844,-57.2079 L 297.52,-57.6081 L 297.239,-58.04 L 297.005,-58.4989 L 296.821,-58.9796
 L 296.688,-59.4771 L 296.607,-59.9857 L 296.58,-60.5 L 296.607,-61.0143 L 296.688,-61.5229 L 296.821,-62.0204
 L 297.005,-62.5011 L 297.239,-62.96 L 297.52,-63.3919 L 297.844,-63.7921 L 298.208,-64.1563 L 298.608,-64.4804
 L 298.95,-64.7024 L 298.95,-74 L 299.006,-74.5302 L 299.17,-75.0372 L 299.437,-75.4988 L 299.794,-75.895
 L 300.225,-76.2084 L 300.712,-76.4252 L 301.233,-76.536 L 301.767,-76.536 L 302.288,-76.4252 L 302.775,-76.2084
 L 303.206,-75.895 L 303.563,-75.4988 L 303.83,-75.0372 L 303.994,-74.5302 L 304.05,-74 L 304.05,-64.7024
 L 304.392,-64.4804 L 304.792,-64.1563 L 305.156,-63.7921 L 305.48,-63.3919 L 305.761,-62.96 L 305.995,-62.5011
 L 306.179,-62.0204 L 306.312,-61.5229 L 306.393,-61.0143 L 306.42,-60.5 L 306.393,-59.9857 L 306.312,-59.4771
 L 306.179,-58.9796 L 305.995,-58.4989 L 305.761,-58.04 L 305.48,-57.6081 L 305.156,-57.2079 L 304.792,-56.8437
 L 304.392,-56.5196 L 303.96,-56.2392 L 303.501,-56.0054 L 303.02,-55.8208 L 302.523,-55.6875 L 302.014,-55.607
 L 301.5,-55.58 z
M 447.986,-55.607 L 447.477,-55.6875 L 446.98,-55.8208 L 446.499,-56.0054 L 446.04,-56.2392 L 445.608,-56.5196
 L 445.208,-56.8437 L 444.844,-57.2079 L 444.52,-57.6081 L 444.239,-58.04 L 444.005,-58.4989 L 443.821,-58.9796
 L 443.688,-59.4771 L 443.607,-59.9857 L 443.58,-60.5 L 443.607,-61.0143 L 443.688,-61.5229 L 443.821,-62.0204
 L 444.005,-62.5011 L 444.239,-62.96 L 444.52,-63.3919 L 444.844,-63.7921 L 445.208,-64.1563 L 445.608,-64.4804
 L 445.95,-64.7024 L 445.95,-74 L 446.006,-74.5302 L 446.17,-75.0372 L 446.437,-75.4988 L 446.794,-75.895
 L 447.225,-76.2084 L 447.712,-76.4252 L 448.233,-76.536 L 448.767,-76.536 L 449.288,-76.4252 L 449.775,-76.2084
 L 450.206,-75.895 L 450.563,-75.4988 L 450.83,-75.0372 L 450.994,-74.5302 L 451.05,-74 L 451.05,-64.7024
 L 451.392,-64.4804 L 451.792,-64.1563 L 452.156,-63.7921 L 452.48,-63.3919 L 452.761,-62.96 L 452.995,-62.5011
 L 453.179,-62.0204 L 453.312,-61.5229 L 453.393,-61.0143 L 453.42,-60.5 L 453.393,-59.9857 L 453.312,-59.4771
 L 453.179,-58.9796 L 452.995,-58.4989 L 452.761,-58.04 L 452.48,-57.6081 L 452.156,-57.2079 L 451.792,-56.8437
 L 451.392,-56.5196 L 450.96,-56.2392 L 450.501,-56.0054 L 450.02,-55.8208 L 449.523,-55.6875 L 449.014,-55.607
 L 448.5,-55.58 z
M 594.986,-55.607 L 594.477,-55.6875 L 593.98,-55.8208 L 593.499,-56.0054 L 593.04,-56.2392 L 592.608,-56.5196
 L 592.208,-56.8437 L 591.844,-57.2079 L 591.52,-57.6081 L 591.239,-58.04 L 591.005,-58.4989 L 590.821,-58.9796
 L 590.688,-59.4771 L 590.607,-59.9857 L 590.58,-60.5 L 590.607,-61.0143 L 590.688,-61.5229 L 590.821,-62.0204
 L 591.005,-62.5011 L 591.239,-62.96 L 591.52,-63.3919 L 591.844,-63.7921 L 592.208,-64.1563 L 592.608,-64.4804
 L 592.95,-64.7024 L 592.95,-74 L 593.006,-74.5302 L 593.17,-75.0372 L 593.437,-75.4988 L 593.794,-75.895
 L 594.225,-76.2084 L 594.712,-76.4252 L 595.233,-76.536 L 595.767,-76.536 L 596.288,-76.4252 L 596.775,-76.2084
 L 597.206,-75.895 L 597.563,-75.4988 L 597.83,-75.0372 L 597.994,-74.5302 L 598.05,-74 L 598.05,-64.7024
 L 598.392,-64.4804 L 598.792,-64.1563 L 599.156,-63.7921 L 599.48,-63.3919 L 599.761,-62.96 L 599.995,-62.5011
 L 600.179,-62.0204 L 600.312,-61.5229 L 600.393,-61.0143 L 600.42,-60.5 L 600.393,-59.9857 L 600.312,-59.4771
 L 600.179,-58.9796 L 599.995,-58.4989 L 599.761,-58.04 L 599.48,-57.6081 L 599.156,-57.2079 L 598.792,-56.8437
 L 598.392,-56.5196 L 597.96,-56.2392 L 597.501,-56.0054 L 597.02,-55.8208 L 596.523,-55.6875 L 596.014,-55.607
 L 595.5,-55.58 z
M 741.986,-55.607 L 741.477,-55.6875 L 740.98,-55.8208 L 740.499,-56.0054 L 740.04,-56.2392 L 739.608,-56.5196
 L 739.208,-56.8437 L 738.844,-57.2079 L 738.52,-57.6081 L 738.239,-58.04 L 738.005,-58.4989 L 737.821,-58.9796
 L 737.688,-59.4771 L 737.607,-59.9857 L 737.58,-60.5 L 737.607,-61.0143 L 737.688,-61.5229 L 737.821,-62.0204
 L 738.005,-62.5011 L 738.239,-62.96 L 738.52,-63.3919 L 738.844,-63.7921 L 739.208,-64.1563 L 739.608,-64.4804
 L 739.95,-64.7024 L 739.95,-74 L 740.006,-74.5302 L 740.17,-75.0372 L 740.437,-75.4988 L 740.794,-75.895
 L 741.225,-76.2084 L 741.712,-76.4252 L 742.233,-76.536 L 742.767,-76.536 L 743.288,-76.4252 L 743.775,-76.2084
 L 744.206,-75.895 L 744.563,-75.4988 L 744.83,-75.0372 L 744.994,-74.5302 L 745.05,-74 L 745.05,-64.7024
 L 745.392,-64.4804 L 745.792,-64.1563 L 746.156,-63.7921 L 746.48,-63.3919 L 746.761,-62.96 L 746.995,-62.5011
 L 747.179,-62.0204 L 747.312,-61.5229 L 747.393,-61.0143 L 747.42,-60.5 L 747.393,-59.9857 L 747.312,-59.4771
 L 747.179,-58.9796 L 746.995,-58.4989 L 746.761,-58.04 L 746.48,-57.6081 L 746.156,-57.2079 L 745.792,-56.8437
 L 745.392,-56.5196 L 744.96,-56.2392 L 744.501,-56.0054 L 744.02,-55.8208 L 743.523,-55.6875 L 743.014,-55.607
 L 742.5,-55.58 z
M 374.112,-48.2184 L 373.321,-48.4883 L 360.607,-54.3696 L 359.935,-54.7639 L 359.313,-55.3235 L 358.822,-56
 L 358.482,-56.7639 L 358.308,-57.5819 L 358.308,-58.4181 L 358.482,-59.2361 L 358.822,-60 L 359.313,-60.6765
 L 359.935,-61.2361 L 360.659,-61.6542 L 361.454,-61.9126 L 362.286,-62 L 387.714,-62 L 388.489,-61.9241
 L 389.288,-61.6772 L 390.018,-61.2696 L 390.648,-60.719 L 391.149,-60.0496 L 391.5,-59.2907 L 391.686,-58.4753
 L 391.698,-57.6392 L 391.536,-56.8188 L 391.207,-56.0501 L 390.725,-55.3665 L 390.112,-54.7981 L 389.393,-54.3696
 L 376.679,-48.4883 L 375.775,-48.1945 L 374.942,-48.1191 z
M 287.612,-22.4354 L 286.821,-22.7052 L 218.37,-54.3696 L 217.698,-54.7639 L 217.077,-55.3235 L 216.585,-56
 L 216.245,-56.7639 L 216.071,-57.5819 L 216.071,-58.4181 L 216.245,-59.2361 L 216.585,-60 L 217.077,-60.6765
 L 217.698,-61.2361 L 218.422,-61.6542 L 219.217,-61.9126 L 220.049,-62 L 288.5,-62 L 289.736,-61.8042
 L 290.5,-61.4641 L 291.177,-60.9726 L 291.736,-60.3511 L 292.154,-59.627 L 292.413,-58.8316 L 292.5,-58
 L 292.5,-26.3356 L 292.472,-25.8603 L 292.286,-25.045 L 291.935,-24.286 L 291.434,-23.6166 L 290.804,-23.0661
 L 290.074,-22.6584 L 289.275,-22.4115 L 288.442,-22.336 z
M 607.725,-22.4115 L 606.926,-22.6584 L 606.196,-23.0661 L 605.566,-23.6166 L 605.065,-24.286 L 604.714,-25.045
 L 604.528,-25.8603 L 604.5,-26.3356 L 604.5,-58 L 604.587,-58.8316 L 604.846,-59.627 L 605.264,-60.3511
 L 605.823,-60.9726 L 606.5,-61.4641 L 607.264,-61.8042 L 608.5,-62 L 676.951,-62 L 677.783,-61.9126
 L 678.578,-61.6542 L 679.302,-61.2361 L 679.923,-60.6765 L 680.415,-60 L 680.755,-59.2361 L 680.929,-58.4181
 L 680.929,-57.5819 L 680.755,-56.7639 L 680.415,-56 L 679.923,-55.3235 L 679.302,-54.7639 L 678.63,-54.3696
 L 610.179,-22.7052 L 609.388,-22.4354 L 608.558,-22.336 z
M 140.612,-22.4354 L 139.821,-22.7052 L 71.3697,-54.3696 L 70.698,-54.7639 L 70.0765,-55.3235 L 69.585,-56
 L 69.2449,-56.7639 L 69.071,-57.5819 L 69.071,-58.4181 L 69.2449,-59.2361 L 69.585,-60 L 70.0765,-60.6765
 L 70.698,-61.2361 L 71.4221,-61.6542 L 72.2175,-61.9126 L 73.0491,-62 L 141.5,-62 L 142.736,-61.8042
 L 143.5,-61.4641 L 144.177,-60.9726 L 144.736,-60.3511 L 145.154,-59.627 L 145.413,-58.8316 L 145.5,-58
 L 145.5,-26.3356 L 145.472,-25.8603 L 145.286,-25.045 L 144.935,-24.286 L 144.434,-23.6166 L 143.804,-23.0661
 L 143.074,-22.6584 L 142.275,-22.4115 L 141.442,-22.336 z
M 460.725,-22.4115 L 459.926,-22.6584 L 459.196,-23.0661 L 458.566,-23.6166 L 458.065,-24.286 L 457.714,-25.045
 L 457.528,-25.8603 L 457.5,-26.3356 L 457.5,-58 L 457.587,-58.8316 L 457.846,-59.627 L 458.264,-60.3511
 L 458.823,-60.9726 L 459.5,-61.4641 L 460.264,-61.8042 L 461.5,-62 L 529.951,-62 L 530.783,-61.9126
 L 531.578,-61.6542 L 532.302,-61.2361 L 532.923,-60.6765 L 533.415,-60 L 533.755,-59.2361 L 533.929,-58.4181
 L 533.929,-57.5819 L 533.755,-56.7639 L 533.415,-56 L 532.923,-55.3235 L 532.302,-54.7639 L 531.63,-54.3696
 L 463.179,-22.7052 L 462.388,-22.4354 L 461.558,-22.336 z
M 314.082,-20.1542 L 313.264,-20.328 L 312.5,-20.6682 L 311.823,-21.1597 L 311.264,-21.7811 L 310.846,-22.5053
 L 310.587,-23.3006 L 310.5,-24.1323 L 310.5,-55.8677 L 310.528,-56.343 L 310.714,-57.1584 L 311.065,-57.9174
 L 311.566,-58.5868 L 312.196,-59.1373 L 312.926,-59.545 L 313.725,-59.7919 L 314.558,-59.8673 L 315.388,-59.768
 L 316.179,-59.4981 L 350.482,-43.6304 L 351.107,-43.2696 L 351.736,-42.719 L 352.237,-42.0496 L 352.588,-41.2907
 L 352.774,-40.4753 L 352.786,-39.6392 L 352.624,-38.8188 L 352.295,-38.0501 L 351.813,-37.3665 L 351.2,-36.7981
 L 350.482,-36.3696 L 316.179,-20.5019 L 315.736,-20.328 L 314.918,-20.1542 z
M 434.612,-20.232 L 433.821,-20.5019 L 399.518,-36.3696 L 398.893,-36.7304 L 398.264,-37.281 L 397.763,-37.9504
 L 397.412,-38.7093 L 397.226,-39.5247 L 397.214,-40.3608 L 397.376,-41.1812 L 397.705,-41.9499 L 398.187,-42.6335
 L 398.8,-43.2019 L 399.518,-43.6304 L 433.821,-59.4981 L 434.264,-59.672 L 435.082,-59.8458 L 435.918,-59.8458
 L 436.736,-59.672 L 437.5,-59.3318 L 438.177,-58.8403 L 438.736,-58.2189 L 439.154,-57.4947 L 439.413,-56.6994
 L 439.5,-55.8678 L 439.5,-24.1322 L 439.472,-23.6569 L 439.286,-22.8416 L 438.935,-22.0826 L 438.434,-21.4132
 L 437.804,-20.8627 L 437.074,-20.455 L 436.275,-20.2081 L 435.442,-20.1327 z
M 167.5,-18 L 166.264,-18.1958 L 165.5,-18.5359 L 164.823,-19.0274 L 164.264,-19.6489 L 163.846,-20.373
 L 163.587,-21.1684 L 163.5,-22 L 163.5,-53.6644 L 163.528,-54.1397 L 163.714,-54.955 L 164.065,-55.714
 L 164.566,-56.3834 L 165.196,-56.9339 L 165.926,-57.3416 L 166.725,-57.5885 L 167.558,-57.6639 L 168.388,-57.5646
 L 169.179,-57.2947 L 237.63,-25.6304 L 238.302,-25.2361 L 238.923,-24.6765 L 239.415,-24 L 239.755,-23.2361
 L 239.929,-22.4181 L 239.929,-21.5819 L 239.755,-20.7639 L 239.415,-20 L 238.923,-19.3235 L 238.302,-18.7639
 L 237.578,-18.3458 L 236.783,-18.0874 L 235.951,-18 z
M 514.049,-18 L 513.217,-18.0874 L 512.422,-18.3458 L 511.698,-18.7639 L 511.077,-19.3235 L 510.585,-20
 L 510.245,-20.7639 L 510.071,-21.5819 L 510.071,-22.4181 L 510.245,-23.2361 L 510.585,-24 L 511.077,-24.6765
 L 511.698,-25.2361 L 512.37,-25.6304 L 580.821,-57.2947 L 581.612,-57.5646 L 582.442,-57.6639 L 583.275,-57.5885
 L 584.074,-57.3416 L 584.804,-56.9339 L 585.434,-56.3834 L 585.935,-55.714 L 586.286,-54.955 L 586.472,-54.1397
 L 586.5,-53.6644 L 586.5,-22 L 586.413,-21.1684 L 586.154,-20.373 L 585.736,-19.6489 L 585.177,-19.0274
 L 584.5,-18.5359 L 583.736,-18.1958 L 582.5,-18 z
M 22,-18 L 20.7639,-18.1958 L 20,-18.5359 L 19.3235,-19.0274 L 18.7639,-19.6489 L 18.3458,-20.373
 L 18.0874,-21.1684 L 18,-22 L 18,-52.9705 L 18.0283,-53.4458 L 18.214,-54.2612 L 18.565,-55.0201
 L 19.0662,-55.6895 L 19.6957,-56.24 L 20.4258,-56.6477 L 21.2247,-56.8946 L 22.0576,-56.9701 L 22.8879,-56.8707
 L 23.6794,-56.6009 L 90.6302,-25.6304 L 91.302,-25.2361 L 91.9235,-24.6765 L 92.415,-24 L 92.7551,-23.2361
 L 92.929,-22.4181 L 92.929,-21.5819 L 92.7551,-20.7639 L 92.415,-20 L 91.9235,-19.3235 L 91.302,-18.7639
 L 90.5778,-18.3458 L 89.7825,-18.0874 L 88.9509,-18 z
M 661.049,-18 L 660.217,-18.0874 L 659.422,-18.3458 L 658.698,-18.7639 L 658.077,-19.3235 L 657.585,-20
 L 657.245,-20.7639 L 657.071,-21.5819 L 657.071,-22.4181 L 657.245,-23.2361 L 657.585,-24 L 658.077,-24.6765
 L 658.698,-25.2361 L 659.37,-25.6304 L 726.321,-56.6009 L 727.112,-56.8707 L 727.942,-56.9701 L 728.775,-56.8946
 L 729.574,-56.6477 L 730.304,-56.24 L 730.934,-55.6895 L 731.435,-55.0201 L 731.786,-54.2612 L 731.972,-53.4458
 L 732,-52.9705 L 732,-22 L 731.913,-21.1684 L 731.654,-20.373 L 731.236,-19.6489 L 730.677,-19.0274
 L 730,-18.5359 L 729.236,-18.1958 L 728,-18 z
M 362.286,-18 L 361.511,-18.0759 L 360.712,-18.3228 L 359.982,-18.7304 L 359.352,-19.281 L 358.851,-19.9504
 L 358.5,-20.7093 L 358.314,-21.5247 L 358.302,-22.3608 L 358.464,-23.1812 L 358.793,-23.9499 L 359.275,-24.6335
 L 359.888,-25.2019 L 360.607,-25.6304 L 373.321,-31.5117 L 374.225,-31.8055 L 375.058,-31.8809 L 375.888,-31.7816
 L 376.679,-31.5117 L 389.393,-25.6304 L 390.065,-25.2361 L 390.687,-24.6765 L 391.178,-24 L 391.518,-23.2361
 L 391.692,-22.4181 L 391.692,-21.5819 L 391.518,-20.7639 L 391.178,-20 L 390.687,-19.3235 L 390.065,-18.7639
 L 389.341,-18.3458 L 388.546,-18.0874 L 387.714,-18 z
" stroke="black" fill="lightgray" stroke-width="0.5"/>
</svg>
