<?xml version="1.0" standalone="no"?>
<!DOCTYPE svg PUBLIC "-//W3C//DTD SVG 1.1//EN" "http://www.w3.org/Graphics/SVG/1.1/DTD/svg11.dtd">
<svg width="601mm" height="80mm" viewBox="0 -80 601 80" xmlns="http://www.w3.org/2000/svg" version="1.1">
<title>OpenSCAD Model</title>
<path d="
M 601,-80 L 0,-80 L 0,-0 L 4.95,-0 L 4.95,-6 L 5.00572,-6.53017
 L 5.17046,-7.03717 L 5.437,-7.49884 L 5.79372,-7.895 L 6.22499,-8.20836 L 6.71201,-8.42519 L 7.23344,-8.53603
 L 7.76654,-8.53603 L 8.28798,-8.42519 L 8.77499,-8.20836 L 9.20627,-7.895 L 9.56299,-7.49884 L 9.82953,-7.03717
 L 9.99426,-6.53017 L 10.05,-6 L 10.05,-0 L 122.15,-0 L 122.15,-6 L 122.206,-6.53017
 L 122.37,-7.03717 L 122.637,-7.49884 L 122.994,-7.895 L 123.425,-8.20836 L 123.912,-8.42519 L 124.433,-8.53603
 L 124.967,-8.53603 L 125.488,-8.42519 L 125.975,-8.20836 L 126.406,-7.895 L 126.763,-7.49884 L 127.03,-7.03717
 L 127.194,-6.53017 L 127.25,-6 L 127.25,-0 L 239.35,-0 L 239.35,-6 L 239.406,-6.53017
 L 239.57,-7.03717 L 239.837,-7.49884 L 240.194,-7.895 L 240.625,-8.20836 L 241.112,-8.42519 L 241.633,-8.53603
 L 242.167,-8.53603 L 242.688,-8.42519 L 243.175,-8.20836 L 243.606,-7.895 L 243.963,-7.49884 L 244.23,-7.03717
 L 244.394,-6.53017 L 244.45,-6 L 244.45,-0 L 356.55,-0 L 356.55,-6 L 356.606,-6.53017
 L 356.77,-7.03717 L 357.037,-7.49884 L 357.394,-7.895 L 357.825,-8.20836 L 358.312,-8.42519 L 358.833,-8.53603
 L 359.367,-8.53603 L 359.888,-8.42519 L 360.375,-8.20836 L 360.806,-7.895 L 361.163,-7.49884 L 361.43,-7.03717
 L 361.594,-6.53017 L 361.65,-6 L 361.65,-0 L 473.75,-0 L 473.75,-6 L 473.806,-6.53017
 L 473.97,-7.03717 L 474.237,-7.49884 L 474.594,-7.895 L 475.025,-8.20836 L 475.512,-8.42519 L 476.033,-8.53603
 L 476.567,-8.53603 L 477.088,-8.42519 L 477.575,-8.20836 L 478.006,-7.895 L 478.363,-7.49884 L 478.63,-7.03717
 L 478.794,-6.53017 L 478.85,-6 L 478.85,-0 L 590.95,-0 L 590.95,-6 L 591.006,-6.53017
 L 591.17,-7.03717 L 591.437,-7.49884 L 591.794,-7.895 L 592.225,-8.20836 L 592.712,-8.42519 L 593.233,-8.53603
 L 593.767,-8.53603 L 594.288,-8.42519 L 594.775,-8.20836 L 595.206,-7.895 L 595.563,-7.49884 L 595.83,-7.03717
 L 595.994,-6.53017 L 596.05,-6 L 596.05,-0 L 601,-0 z
M 6.98573,-55.607 L 6.47708,-55.6875 L 5.97964,-55.8208 L 5.49887,-56.0054 L 5.04001,-56.2392 L 4.60811,-56.5196
 L 4.20789,-56.8437 L 3.84373,-57.2079 L 3.51964,-57.6081 L 3.23917,-58.04 L 3.00537,-58.4989 L 2.82082,-58.9796
 L 2.68752,-59.4771 L 2.60696,-59.9857 L 2.58,-60.5 L 2.60696,-61.0143 L 2.68752,-61.5229 L 2.82082,-62.0204
 L 3.00537,-62.5011 L 3.23917,-62.96 L 3.51964,-63.3919 L 3.84373,-63.7921 L 4.20789,-64.1563 L 4.60811,-64.4804
 L 4.95001,-64.7024 L 4.95001,-74 L 5.00574,-74.5302 L 5.17047,-75.0372 L 5.43701,-75.4988 L 5.79373,-75.895
 L 6.22501,-76.2084 L 6.71202,-76.4252 L 7.23346,-76.536 L 7.76654,-76.536 L 8.28798,-76.4252 L 8.77499,-76.2084
 L 9.20627,-75.895 L 9.56299,-75.4988 L 9.82953,-75.0372 L 9.99426,-74.5302 L 10.05,-74 L 10.05,-64.7024
 L 10.3919,-64.4804 L 10.7921,-64.1563 L 11.1563,-63.7921 L 11.4804,-63.3919 L 11.7608,-62.96 L 11.9946,-62.5011
 L 12.1792,-62.0204 L 12.3125,-61.5229 L 12.393,-61.0143 L 12.42,-60.5 L 12.393,-59.9857 L 12.3125,-59.4771
 L 12.1792,-58.9796 L 11.9946,-58.4989 L 11.7608,-58.04 L 11.4804,-57.6081 L 11.1563,-57.2079 L 10.7921,-56.8437
 L 10.3919,-56.5196 L 9.95999,-56.2392 L 9.50113,-56.0054 L 9.02036,-55.8208 L 8.52292,-55.6875 L 8.01427,-55.607
 L 7.5,-55.58 z
M 124.186,-55.607 L 123.677,-55.6875 L 123.18,-55.8208 L 122.699,-56.0054 L 122.24,-56.2392 L 121.808,-56.5196
 L 121.408,-56.8437 L 121.044,-57.2079 L 120.72,-57.6081 L 120.439,-58.04 L 120.205,-58.4989 L 120.021,-58.9796
 L 119.888,-59.4771 L 119.807,-59.9857 L 119.78,-60.5 L 119.807,-61.0143 L 119.888,-61.5229 L 120.021,-62.0204
 L 120.205,-62.5011 L 120.439,-62.96 L 120.72,-63.3919 L 121.044,-63.7921 L 121.408,-64.1563 L 121.808,-64.4804
 L 122.15,-64.7024 L 122.15,-74 L 122.206,-74.5302 L 122.37,-75.0372 L 122.637,-75.4988 L 122.994,-75.895
 L 123.425,-76.2084 L 123.912,-76.4252 L 124.433,-76.536 L 124.967,-76.536 L 125.488,-76.4252 L 125.975,-76.2084
 L 126.406,-75.895 L 126.763,-75.4988 L 127.03,-75.0372 L 127.194,-74.5302 L 127.25,-74 L 127.25,-64.7024
 L 127.592,-64.4804 L 127.992,-64.1563 L 128.356,-63.7921 L 128.68,-63.3919 L 128.961,-62.96 L 129.195,-62.5011
 L 129.379,-62.0204 L 129.512,-61.5229 L 129.593,-61.0143 L 129.62,-60.5 L 129.593,-59.9857 L 129.512,-59.4771
 L 129.379,-58.9796 L 129.195,-58.4989 L 128.961,-58.04 L 128.68,-57.6081 L 128.356,-57.2079 L 127.992,-56.8437
 L 127.592,-56.5196 L 127.16,-56.2392 L 126.701,-56.0054 L 126.22,-55.8208 L 125.723,-55.6875 L 125.214,-55.607
 L 124.7,-55.58 z
M 241.386,-55.607 L 240.877,-55.6875 L 240.38,-55.8208 L 239.899,-56.0054 L 239.44,-56.2392 L 239.008,-56.5196
 L 238.608,-56.8437 L 238.244,-57.2079 L 237.92,-57.6081 L 237.639,-58.04 L 237.405,-58.4989 L 237.221,-58.9796
 L 237.088,-59.4771 L 237.007,-59.9857 L 236.98,-60.5 L 237.007,-61.0143 L 237.088,-61.5229 L 237.221,-62.0204
 L 237.405,-62.5011 L 237.639,-62.96 L 237.92,-63.3919 L 238.244,-63.7921 L 238.608,-64.1563 L 239.008,-64.4804
 L 239.35,-64.7024 L 239.35,-74 L 239.406,-74.5302 L 239.57,-75.0372 L 239.837,-75.4988 L 240.194,-75.895
 L 240.625,-76.2084 L 241.112,-76.4252 L 241.633,-76.536 L 242.167,-76.536 L 242.688,-76.4252 L 243.175,-76.2084
 L 243.606,-75.895 L 243.963,-75.4988 L 244.23,-75.0372 L 244.394,-74.5302 L 244.45,-74 L 244.45,-64.7024
 L 244.792,-64.4804 L 245.192,-64.1563 L 245.556,-63.7921 L 245.88,-63.3919 L 246.161,-62.96 L 246.395,-62.5011
 L 246.579,-62.0204 L 246.712,-61.5229 L 246.793,-61.0143 L 246.82,-60.5 L 246.793,-59.9857 L 246.712,-59.4771
 L 246.579,-58.9796 L 246.395,-58.4989 L 246.161,-58.04 L 245.88,-57.6081 L 245.556,-57.2079 L 245.192,-56.8437
 L 244.792,-56.5196 L 244.36,-56.2392 L 243.901,-56.0054 L 243.42,-55.8208 L 242.923,-55.6875 L 242.414,-55.607
 L 241.9,-55.58 z
M 358.586,-55.607 L 358.077,-55.6875 L 357.58,-55.8208 L 357.099,-56.0054 L 356.64,-56.2392 L 356.208,-56.5196
 L 355.808,-56.8437 L 355.444,-57.2079 L 355.12,-57.6081 L 354.839,-58.04 L 354.605,-58.4989 L 354.421,-58.9796
 L 354.288,-59.4771 L 354.207,-59.9857 L 354.18,-60.5 L 354.207,-61.0143 L 354.288,-61.5229 L 354.421,-62.0204
 L 354.605,-62.5011 L 354.839,-62.96 L 355.12,-63.3919 L 355.444,-63.7921 L 355.808,-64.1563 L 356.208,-64.4804
 L 356.55,-64.7024 L 356.55,-74 L 356.606,-74.5302 L 356.77,-75.0372 L 357.037,-75.4988 L 357.394,-75.895
 L 357.825,-76.2084 L 358.312,-76.4252 L 358.833,-76.536 L 359.367,-76.536 L 359.888,-76.4252 L 360.375,-76.2084
 L 360.806,-75.895 L 361.163,-75.4988 L 361.43,-75.0372 L 361.594,-74.5302 L 361.65,-74 L 361.65,-64.7024
 L 361.992,-64.4804 L 362.392,-64.1563 L 362.756,-63.7921 L 363.08,-63.3919 L 363.361,-62.96 L 363.595,-62.5011
 L 363.779,-62.0204 L 363.912,-61.5229 L 363.993,-61.0143 L 364.02,-60.5 L 363.993,-59.9857 L 363.912,-59.4771
 L 363.779,-58.9796 L 363.595,-58.4989 L 363.361,-58.04 L 363.08,-57.6081 L 362.756,-57.2079 L 362.392,-56.8437
 L 361.992,-56.5196 L 361.56,-56.2392 L 361.101,-56.0054 L 360.62,-55.8208 L 360.123,-55.6875 L 359.614,-55.607
 L 359.1,-55.58 z
M 475.786,-55.607 L 475.277,-55.6875 L 474.78,-55.8208 L 474.299,-56.0054 L 473.84,-56.2392 L 473.408,-56.5196
 L 473.008,-56.8437 L 472.644,-57.2079 L 472.32,-57.6081 L 472.039,-58.04 L 471.805,-58.4989 L 471.621,-58.9796
 L 471.488,-59.4771 L 471.407,-59.9857 L 471.38,-60.5 L 471.407,-61.0143 L 471.488,-61.5229 L 471.621,-62.0204
 L 471.805,-62.5011 L 472.039,-62.96 L 472.32,-63.3919 L 472.644,-63.7921 L 473.008,-64.1563 L 473.408,-64.4804
 L 473.75,-64.7024 L 473.75,-74 L 473.806,-74.5302 L 473.97,-75.0372 L 474.237,-75.4988 L 474.594,-75.895
 L 475.025,-76.2084 L 475.512,-76.4252 L 476.033,-76.536 L 476.567,-76.536 L 477.088,-76.4252 L 477.575,-76.2084
 L 478.006,-75.895 L 478.363,-75.4988 L 478.63,-75.0372 L 478.794,-74.5302 L 478.85,-74 L 478.85,-64.7024
 L 479.192,-64.4804 L 479.592,-64.1563 L 479.956,-63.7921 L 480.28,-63.3919 L 480.561,-62.96 L 480.795,-62.5011
 L 480.979,-62.0204 L 481.112,-61.5229 L 481.193,-61.0143 L 481.22,-60.5 L 481.193,-59.9857 L 481.112,-59.4771
 L 480.979,-58.9796 L 480.795,-58.4989 L 480.561,-58.04 L 480.28,-57.6081 L 479.956,-57.2079 L 479.592,-56.8437
 L 479.192,-56.5196 L 478.76,-56.2392 L 478.301,-56.0054 L 477.82,-55.8208 L 477.323,-55.6875 L 476.814,-55.607
 L 476.3,-55.58 z
M 592.986,-55.607 L 592.477,-55.6875 L 591.98,-55.8208 L 591.499,-56.0054 L 591.04,-56.2392 L 590.608,-56.5196
 L 590.208,-56.8437 L 589.844,-57.2079 L 589.52,-57.6081 L 589.239,-58.04 L 589.005,-58.4989 L 588.821,-58.9796
 L 588.688,-59.4771 L 588.607,-59.9857 L 588.58,-60.5 L 588.607,-61.0143 L 588.688,-61.5229 L 588.821,-62.0204
 L 589.005,-62.5011 L 589.239,-62.96 L 589.52,-63.3919 L 589.844,-63.7921 L 590.208,-64.1563 L 590.608,-64.4804
 L 590.95,-64.7024 L 590.95,-74 L 591.006,-74.5302 L 591.17,-75.0372 L 591.437,-75.4988 L 591.794,-75.895
 L 592.225,-76.2084 L 592.712,-76.4252 L 593.233,-76.536 L 593.767,-76.536 L 594.288,-76.4252 L 594.775,-76.2084
 L 595.206,-75.895 L 595.563,-75.4988 L 595.83,-75.0372 L 595.994,-74.5302 L 596.05,-74 L 596.05,-64.7024
 L 596.392,-64.4804 L 596.792,-64.1563 L 597.156,-63.7921 L 597.48,-63.3919 L 597.761,-62.96 L 597.995,-62.5011
 L 598.179,-62.0204 L 598.312,-61.5229 L 598.393,-61.0143 L 598.42,-60.5 L 598.393,-59.9857 L 598.312,-59.4771
 L 598.179,-58.9796 L 597.995,-58.4989 L 597.761,-58.04 L 597.48,-57.6081 L 597.156,-57.2079 L 596.792,-56.8437
 L 596.392,-56.5196 L 595.96,-56.2392 L 595.501,-56.0054 L 595.02,-55.8208 L 594.523,-55.6875 L 594.014,-55.607
 L 593.5,-55.58 z
M 300.073,-48.7402 L 299.256,-48.9158 L 298.493,-49.2576 L 289.388,-54.5402 L 288.423,-55.3235 L 287.931,-56
 L 287.591,-56.7639 L 287.417,-57.5819 L 287.417,-58.4181 L 287.591,-59.2361 L 287.931,-60 L 288.423,-60.6765
 L 289.044,-61.2361 L 289.768,-61.6542 L 290.564,-61.9126 L 291.395,-62 L 309.605,-62 L 310.833,-61.8069
 L 311.597,-61.4684 L 312.275,-60.9783 L 312.836,-60.358 L 313.255,-59.6348 L 313.515,-58.84 L 313.605,-58.0086
 L 313.519,-57.1767 L 313.262,-56.3809 L 312.846,-55.6558 L 312.288,-55.0332 L 311.612,-54.5402 L 302.507,-49.2576
 L 301.728,-48.9106 L 300.91,-48.7384 z
M 228.473,-24.5951 L 227.656,-24.7707 L 226.893,-25.1125 L 176.173,-54.5402 L 175.208,-55.3235 L 174.716,-56
 L 174.376,-56.7639 L 174.202,-57.5819 L 174.202,-58.4181 L 174.376,-59.2361 L 174.716,-60 L 175.208,-60.6765
 L 175.829,-61.2361 L 176.554,-61.6542 L 177.349,-61.9126 L 178.181,-62 L 228.9,-62 L 230.136,-61.8042
 L 230.9,-61.4641 L 231.577,-60.9726 L 232.136,-60.3511 L 232.554,-59.627 L 232.813,-58.8316 L 232.9,-58
 L 232.9,-28.5723 L 232.811,-27.7323 L 232.551,-26.9376 L 232.131,-26.2142 L 231.57,-25.594 L 230.893,-25.1039
 L 230.128,-24.7655 L 229.31,-24.5933 z
M 488.072,-24.7655 L 487.307,-25.1039 L 486.63,-25.594 L 486.069,-26.2142 L 485.649,-26.9376 L 485.389,-27.7323
 L 485.3,-28.5723 L 485.3,-58 L 485.387,-58.8316 L 485.646,-59.627 L 486.064,-60.3511 L 486.623,-60.9726
 L 487.3,-61.4641 L 488.064,-61.8042 L 489.3,-62 L 540.019,-62 L 540.851,-61.9126 L 541.646,-61.6542
 L 542.371,-61.2361 L 542.992,-60.6765 L 543.484,-60 L 543.824,-59.2361 L 543.998,-58.4181 L 543.998,-57.5819
 L 543.824,-56.7639 L 543.484,-56 L 542.992,-55.3235 L 542.027,-54.5402 L 491.307,-25.1125 L 490.544,-24.7707
 L 489.727,-24.5951 L 488.89,-24.5933 z
M 111.273,-24.5951 L 110.456,-24.7707 L 109.693,-25.1125 L 58.9731,-54.5402 L 58.0079,-55.3235 L 57.5164,-56
 L 57.1763,-56.7639 L 57.0024,-57.5819 L 57.0024,-58.4181 L 57.1763,-59.2361 L 57.5164,-60 L 58.0079,-60.6765
 L 58.6294,-61.2361 L 59.3536,-61.6542 L 60.1489,-61.9126 L 60.9805,-62 L 111.7,-62 L 112.936,-61.8042
 L 113.7,-61.4641 L 114.377,-60.9726 L 114.936,-60.3511 L 115.354,-59.627 L 115.613,-58.8316 L 115.7,-58
 L 115.7,-28.5723 L 115.611,-27.7323 L 115.351,-26.9376 L 114.931,-26.2142 L 114.37,-25.594 L 113.693,-25.1039
 L 112.928,-24.7655 L 112.11,-24.5933 z
M 370.872,-24.7655 L 370.107,-25.1039 L 369.43,-25.594 L 368.869,-26.2142 L 368.449,-26.9376 L 368.189,-27.7323
 L 368.1,-28.5723 L 368.1,-58 L 368.187,-58.8316 L 368.446,-59.627 L 368.864,-60.3511 L 369.423,-60.9726
 L 370.1,-61.4641 L 370.864,-61.8042 L 372.1,-62 L 422.819,-62 L 423.651,-61.9126 L 424.446,-61.6542
 L 425.171,-61.2361 L 425.792,-60.6765 L 426.284,-60 L 426.624,-59.2361 L 426.798,-58.4181 L 426.798,-57.5819
 L 426.624,-56.7639 L 426.284,-56 L 425.792,-55.3235 L 424.827,-54.5402 L 374.107,-25.1125 L 373.344,-24.7707
 L 372.527,-24.5951 L 371.69,-24.5933 z
M 254.482,-22.282 L 253.664,-22.4558 L 252.9,-22.796 L 252.223,-23.2875 L 251.664,-23.9089 L 251.246,-24.6331
 L 250.987,-25.4284 L 250.9,-26.2601 L 250.9,-53.7399 L 250.989,-54.5799 L 251.249,-55.3747 L 251.669,-56.098
 L 252.23,-56.7182 L 252.907,-57.2083 L 253.672,-57.5468 L 254.49,-57.7189 L 255.327,-57.7171 L 256.144,-57.5415
 L 256.907,-57.1998 L 280.589,-43.4598 L 281.251,-42.9783 L 281.812,-42.3581 L 282.232,-41.6348 L 282.492,-40.84
 L 282.581,-40.0086 L 282.496,-39.1767 L 282.239,-38.3809 L 281.822,-37.6558 L 281.264,-37.0332 L 280.589,-36.5402
 L 256.907,-22.8002 L 256.136,-22.4558 L 255.318,-22.282 z
M 345.673,-22.2829 L 344.856,-22.4585 L 344.093,-22.8002 L 320.411,-36.5402 L 319.749,-37.0217 L 319.188,-37.642
 L 318.768,-38.3652 L 318.508,-39.16 L 318.419,-39.9915 L 318.504,-40.8233 L 318.761,-41.6191 L 319.178,-42.3442
 L 319.736,-42.9668 L 320.411,-43.4598 L 344.093,-57.1998 L 344.864,-57.5442 L 345.682,-57.718 L 346.518,-57.718
 L 347.336,-57.5442 L 348.1,-57.204 L 348.777,-56.7125 L 349.336,-56.0911 L 349.754,-55.3669 L 350.013,-54.5716
 L 350.1,-53.7399 L 350.1,-26.2601 L 350.011,-25.4201 L 349.751,-24.6253 L 349.331,-23.902 L 348.77,-23.2818
 L 348.093,-22.7917 L 347.328,-22.4532 L 346.51,-22.2811 z
M 137.7,-18 L 136.464,-18.1958 L 135.7,-18.5359 L 135.023,-19.0274 L 134.464,-19.6489 L 134.046,-20.373
 L 133.787,-21.1684 L 133.7,-22 L 133.7,-51.4277 L 133.789,-52.2677 L 134.049,-53.0624 L 134.469,-53.7857
 L 135.03,-54.406 L 135.707,-54.896 L 136.472,-55.2345 L 137.29,-55.4066 L 138.127,-55.4049 L 138.944,-55.2292
 L 139.707,-54.8875 L 190.427,-25.4598 L 191.392,-24.6765 L 191.884,-24 L 192.224,-23.2361 L 192.398,-22.4181
 L 192.398,-21.5819 L 192.224,-20.7639 L 191.884,-20 L 191.392,-19.3235 L 190.771,-18.7639 L 190.046,-18.3458
 L 189.251,-18.0874 L 188.419,-18 z
M 412.581,-18 L 411.749,-18.0874 L 410.954,-18.3458 L 410.229,-18.7639 L 409.608,-19.3235 L 409.116,-20
 L 408.776,-20.7639 L 408.602,-21.5819 L 408.602,-22.4181 L 408.776,-23.2361 L 409.116,-24 L 409.608,-24.6765
 L 410.573,-25.4598 L 461.293,-54.8875 L 462.056,-55.2292 L 462.873,-55.4049 L 463.71,-55.4066 L 464.528,-55.2345
 L 465.293,-54.896 L 465.97,-54.406 L 466.531,-53.7857 L 466.951,-53.0624 L 467.211,-52.2677 L 467.3,-51.4277
 L 467.3,-22 L 467.213,-21.1684 L 466.954,-20.373 L 466.536,-19.6489 L 465.977,-19.0274 L 465.3,-18.5359
 L 464.536,-18.1958 L 463.3,-18 z
M 22,-18 L 20.7639,-18.1958 L 20,-18.5359 L 19.3235,-19.0274 L 18.7639,-19.6489 L 18.3458,-20.373
 L 18.0874,-21.1684 L 18,-22 L 18,-50.5574 L 18.0892,-51.3974 L 18.3493,-52.1921 L 18.769,-52.9154
 L 19.3298,-53.5357 L 20.0074,-54.0257 L 20.7721,-54.3642 L 21.5904,-54.5363 L 22.4266,-54.5346 L 23.2442,-54.3589
 L 24.0074,-54.0172 L 73.2269,-25.4598 L 74.1921,-24.6765 L 74.6836,-24 L 75.0237,-23.2361 L 75.1976,-22.4181
 L 75.1976,-21.5819 L 75.0237,-20.7639 L 74.6836,-20 L 74.1921,-19.3235 L 73.5706,-18.7639 L 72.8464,-18.3458
 L 72.0511,-18.0874 L 71.2195,-18 z
M 529.781,-18 L 528.949,-18.0874 L 528.154,-18.3458 L 527.429,-18.7639 L 526.808,-19.3235 L 526.316,-20
 L 525.976,-20.7639 L 525.802,-21.5819 L 525.802,-22.4181 L 525.976,-23.2361 L 526.316,-24 L 526.808,-24.6765
 L 527.773,-25.4598 L 576.993,-54.0172 L 577.756,-54.3589 L 578.573,-54.5346 L 579.41,-54.5363 L 580.228,-54.3642
 L 580.993,-54.0257 L 581.67,-53.5357 L 582.231,-52.9154 L 582.651,-52.1921 L 582.911,-51.3974 L 583,-50.5574
 L 583,-22 L 582.913,-21.1684 L 582.654,-20.373 L 582.236,-19.6489 L 581.677,-19.0274 L 581,-18.5359
 L 580.236,-18.1958 L 579,-18 z
M 291.395,-18 L 290.167,-18.1931 L 289.403,-18.5316 L 288.725,-19.0217 L 288.164,-19.642 L 287.745,-20.3652
 L 287.484,-21.16 L 287.395,-21.9914 L 287.481,-22.8233 L 287.738,-23.6191 L 288.154,-24.3442 L 288.712,-24.9668
 L 289.388,-25.4598 L 298.493,-30.7424 L 299.272,-31.0894 L 300.09,-31.2616 L 300.927,-31.2598 L 301.744,-31.0842
 L 302.507,-30.7424 L 311.612,-25.4598 L 312.577,-24.6765 L 313.069,-24 L 313.409,-23.2361 L 313.583,-22.4181
 L 313.583,-21.5819 L 313.409,-20.7639 L 313.069,-20 L 312.577,-19.3235 L 311.956,-18.7639 L 311.232,-18.3458
 L 310.436,-18.0874 L 309.605,-18 z
" stroke="black" fill="lightgray" stroke-width="0.5"/>
</svg>
