<?xml version="1.0" standalone="no"?>
<!DOCTYPE svg PUBLIC "-//W3C//DTD SVG 1.1//EN" "http://www.w3.org/Graphics/SVG/1.1/DTD/svg11.dtd">
<svg width="983mm" height="80mm" viewBox="0 -80 983 80" xmlns="http://www.w3.org/2000/svg" version="1.1">
<title>OpenSCAD Model</title>
<path d="
M 983,-80 L 0,-80 L 0,-0 L 4.95,-0 L 4.95,-6 L 5.00572,-6.53017
 L 5.17046,-7.03717 L 5.437,-7.49884 L 5.79372,-7.895 L 6.22499,-8.20836 L 6.71201,-8.42519 L 7.23344,-8.53603
 L 7.76654,-8.53603 L 8.28798,-8.42519 L 8.77499,-8.20836 L 9.20627,-7.895 L 9.56299,-7.49884 L 9.82953,-7.03717
 L 9.99426,-6.53017 L 10.05,-6 L 10.05,-0 L 198.55,-0 L 198.55,-6 L 198.606,-6.53017
 L 198.77,-7.03717 L 199.037,-7.49884 L 199.394,-7.895 L 199.825,-8.20836 L 200.312,-8.42519 L 200.833,-8.53603
 L 201.367,-8.53603 L 201.888,-8.42519 L 202.375,-8.20836 L 202.806,-7.895 L 203.163,-7.49884 L 203.43,-7.03717
 L 203.594,-6.53017 L 203.65,-6 L 203.65,-0 L 392.15,-0 L 392.15,-6 L 392.206,-6.53017
 L 392.37,-7.03717 L 392.637,-7.49884 L 392.994,-7.895 L 393.425,-8.20836 L 393.912,-8.42519 L 394.433,-8.53603
 L 394.967,-8.53603 L 395.488,-8.42519 L 395.975,-8.20836 L 396.406,-7.895 L 396.763,-7.49884 L 397.03,-7.03717
 L 397.194,-6.53017 L 397.25,-6 L 397.25,-0 L 585.75,-0 L 585.75,-6 L 585.806,-6.53017
 L 585.97,-7.03717 L 586.237,-7.49884 L 586.594,-7.895 L 587.025,-8.20836 L 587.512,-8.42519 L 588.033,-8.53603
 L 588.567,-8.53603 L 589.088,-8.42519 L 589.575,-8.20836 L 590.006,-7.895 L 590.363,-7.49884 L 590.63,-7.03717
 L 590.794,-6.53017 L 590.85,-6 L 590.85,-0 L 779.35,-0 L 779.35,-6 L 779.406,-6.53017
 L 779.57,-7.03717 L 779.837,-7.49884 L 780.194,-7.895 L 780.625,-8.20836 L 781.112,-8.42519 L 781.633,-8.53603
 L 782.167,-8.53603 L 782.688,-8.42519 L 783.175,-8.20836 L 783.606,-7.895 L 783.963,-7.49884 L 784.23,-7.03717
 L 784.394,-6.53017 L 784.45,-6 L 784.45,-0 L 972.95,-0 L 972.95,-6 L 973.006,-6.53017
 L 973.17,-7.03717 L 973.437,-7.49884 L 973.794,-7.895 L 974.225,-8.20836 L 974.712,-8.42519 L 975.233,-8.53603
 L 975.767,-8.53603 L 976.288,-8.42519 L 976.775,-8.20836 L 977.206,-7.895 L 977.563,-7.49884 L 977.83,-7.03717
 L 977.994,-6.53017 L 978.05,-6 L 978.05,-0 L 983,-0 z
M 6.98573,-55.607 L 6.47708,-55.6875 L 5.97964,-55.8208 L 5.49887,-56.0054 L 5.04001,-56.2392 L 4.60811,-56.5196
 L 4.20789,-56.8437 L 3.84373,-57.2079 L 3.51964,-57.6081 L 3.23917,-58.04 L 3.00537,-58.4989 L 2.82082,-58.9796
 L 2.68752,-59.4771 L 2.60696,-59.9857 L 2.58,-60.5 L 2.60696,-61.0143 L 2.68752,-61.5229 L 2.82082,-62.0204
 L 3.00537,-62.5011 L 3.23917,-62.96 L 3.51964,-63.3919 L 3.84373,-63.7921 L 4.20789,-64.1563 L 4.60811,-64.4804
 L 4.95001,-64.7024 L 4.95001,-74 L 5.00574,-74.5302 L 5.17047,-75.0372 L 5.43701,-75.4988 L 5.79373,-75.895
 L 6.22501,-76.2084 L 6.71202,-76.4252 L 7.23346,-76.536 L 7.76654,-76.536 L 8.28798,-76.4252 L 8.77499,-76.2084
 L 9.20627,-75.895 L 9.56299,-75.4988 L 9.82953,-75.0372 L 9.99426,-74.5302 L 10.05,-74 L 10.05,-64.7024
 L 10.3919,-64.4804 L 10.7921,-64.1563 L 11.1563,-63.7921 L 11.4804,-63.3919 L 11.7608,-62.96 L 11.9946,-62.5011
 L 12.1792,-62.0204 L 12.3125,-61.5229 L 12.393,-61.0143 L 12.42,-60.5 L 12.393,-59.9857 L 12.3125,-59.4771
 L 12.1792,-58.9796 L 11.9946,-58.4989 L 11.7608,-58.04 L 11.4804,-57.6081 L 11.1563,-57.2079 L 10.7921,-56.8437
 L 10.3919,-56.5196 L 9.95999,-56.2392 L 9.50113,-56.0054 L 9.02036,-55.8208 L 8.52292,-55.6875 L 8.01427,-55.607
 L 7.5,-55.58 z
M 200.586,-55.607 L 200.077,-55.6875 L 199.58,-55.8208 L 199.099,-56.0054 L 198.64,-56.2392 L 198.208,-56.5196
 L 197.808,-56.8437 L 197.444,-57.2079 L 197.12,-57.6081 L 196.839,-58.04 L 196.605,-58.4989 L 196.421,-58.9796
 L 196.288,-59.4771 L 196.207,-59.9857 L 196.18,-60.5 L 196.207,-61.0143 L 196.288,-61.5229 L 196.421,-62.0204
 L 196.605,-62.5011 L 196.839,-62.96 L 197.12,-63.3919 L 197.444,-63.7921 L 197.808,-64.1563 L 198.208,-64.4804
 L 198.55,-64.7024 L 198.55,-74 L 198.606,-74.5302 L 198.77,-75.0372 L 199.037,-75.4988 L 199.394,-75.895
 L 199.825,-76.2084 L 200.312,-76.4252 L 200.833,-76.536 L 201.367,-76.536 L 201.888,-76.4252 L 202.375,-76.2084
 L 202.806,-75.895 L 203.163,-75.4988 L 203.43,-75.0372 L 203.594,-74.5302 L 203.65,-74 L 203.65,-64.7024
 L 203.992,-64.4804 L 204.392,-64.1563 L 204.756,-63.7921 L 205.08,-63.3919 L 205.361,-62.96 L 205.595,-62.5011
 L 205.779,-62.0204 L 205.912,-61.5229 L 205.993,-61.0143 L 206.02,-60.5 L 205.993,-59.9857 L 205.912,-59.4771
 L 205.779,-58.9796 L 205.595,-58.4989 L 205.361,-58.04 L 205.08,-57.6081 L 204.756,-57.2079 L 204.392,-56.8437
 L 203.992,-56.5196 L 203.56,-56.2392 L 203.101,-56.0054 L 202.62,-55.8208 L 202.123,-55.6875 L 201.614,-55.607
 L 201.1,-55.58 z
M 394.186,-55.607 L 393.677,-55.6875 L 393.18,-55.8208 L 392.699,-56.0054 L 392.24,-56.2392 L 391.808,-56.5196
 L 391.408,-56.8437 L 391.044,-57.2079 L 390.72,-57.6081 L 390.439,-58.04 L 390.205,-58.4989 L 390.021,-58.9796
 L 389.888,-59.4771 L 389.807,-59.9857 L 389.78,-60.5 L 389.807,-61.0143 L 389.888,-61.5229 L 390.021,-62.0204
 L 390.205,-62.5011 L 390.439,-62.96 L 390.72,-63.3919 L 391.044,-63.7921 L 391.408,-64.1563 L 391.808,-64.4804
 L 392.15,-64.7024 L 392.15,-74 L 392.206,-74.5302 L 392.37,-75.0372 L 392.637,-75.4988 L 392.994,-75.895
 L 393.425,-76.2084 L 393.912,-76.4252 L 394.433,-76.536 L 394.967,-76.536 L 395.488,-76.4252 L 395.975,-76.2084
 L 396.406,-75.895 L 396.763,-75.4988 L 397.03,-75.0372 L 397.194,-74.5302 L 397.25,-74 L 397.25,-64.7024
 L 397.592,-64.4804 L 397.992,-64.1563 L 398.356,-63.7921 L 398.68,-63.3919 L 398.961,-62.96 L 399.195,-62.5011
 L 399.379,-62.0204 L 399.512,-61.5229 L 399.593,-61.0143 L 399.62,-60.5 L 399.593,-59.9857 L 399.512,-59.4771
 L 399.379,-58.9796 L 399.195,-58.4989 L 398.961,-58.04 L 398.68,-57.6081 L 398.356,-57.2079 L 397.992,-56.8437
 L 397.592,-56.5196 L 397.16,-56.2392 L 396.701,-56.0054 L 396.22,-55.8208 L 395.723,-55.6875 L 395.214,-55.607
 L 394.7,-55.58 z
M 587.786,-55.607 L 587.277,-55.6875 L 586.78,-55.8208 L 586.299,-56.0054 L 585.84,-56.2392 L 585.408,-56.5196
 L 585.008,-56.8437 L 584.644,-57.2079 L 584.32,-57.6081 L 584.039,-58.04 L 583.805,-58.4989 L 583.621,-58.9796
 L 583.488,-59.4771 L 583.407,-59.9857 L 583.38,-60.5 L 583.407,-61.0143 L 583.488,-61.5229 L 583.621,-62.0204
 L 583.805,-62.5011 L 584.039,-62.96 L 584.32,-63.3919 L 584.644,-63.7921 L 585.008,-64.1563 L 585.408,-64.4804
 L 585.75,-64.7024 L 585.75,-74 L 585.806,-74.5302 L 585.97,-75.0372 L 586.237,-75.4988 L 586.594,-75.895
 L 587.025,-76.2084 L 587.512,-76.4252 L 588.033,-76.536 L 588.567,-76.536 L 589.088,-76.4252 L 589.575,-76.2084
 L 590.006,-75.895 L 590.363,-75.4988 L 590.63,-75.0372 L 590.794,-74.5302 L 590.85,-74 L 590.85,-64.7024
 L 591.192,-64.4804 L 591.592,-64.1563 L 591.956,-63.7921 L 592.28,-63.3919 L 592.561,-62.96 L 592.795,-62.5011
 L 592.979,-62.0204 L 593.112,-61.5229 L 593.193,-61.0143 L 593.22,-60.5 L 593.193,-59.9857 L 593.112,-59.4771
 L 592.979,-58.9796 L 592.795,-58.4989 L 592.561,-58.04 L 592.28,-57.6081 L 591.956,-57.2079 L 591.592,-56.8437
 L 591.192,-56.5196 L 590.76,-56.2392 L 590.301,-56.0054 L 589.82,-55.8208 L 589.323,-55.6875 L 588.814,-55.607
 L 588.3,-55.58 z
M 781.386,-55.607 L 780.877,-55.6875 L 780.38,-55.8208 L 779.899,-56.0054 L 779.44,-56.2392 L 779.008,-56.5196
 L 778.608,-56.8437 L 778.244,-57.2079 L 777.92,-57.6081 L 777.639,-58.04 L 777.405,-58.4989 L 777.221,-58.9796
 L 777.088,-59.4771 L 777.007,-59.9857 L 776.98,-60.5 L 777.007,-61.0143 L 777.088,-61.5229 L 777.221,-62.0204
 L 777.405,-62.5011 L 777.639,-62.96 L 777.92,-63.3919 L 778.244,-63.7921 L 778.608,-64.1563 L 779.008,-64.4804
 L 779.35,-64.7024 L 779.35,-74 L 779.406,-74.5302 L 779.57,-75.0372 L 779.837,-75.4988 L 780.194,-75.895
 L 780.625,-76.2084 L 781.112,-76.4252 L 781.633,-76.536 L 782.167,-76.536 L 782.688,-76.4252 L 783.175,-76.2084
 L 783.606,-75.895 L 783.963,-75.4988 L 784.23,-75.0372 L 784.394,-74.5302 L 784.45,-74 L 784.45,-64.7024
 L 784.792,-64.4804 L 785.192,-64.1563 L 785.556,-63.7921 L 785.88,-63.3919 L 786.161,-62.96 L 786.395,-62.5011
 L 786.579,-62.0204 L 786.712,-61.5229 L 786.793,-61.0143 L 786.82,-60.5 L 786.793,-59.9857 L 786.712,-59.4771
 L 786.579,-58.9796 L 786.395,-58.4989 L 786.161,-58.04 L 785.88,-57.6081 L 785.556,-57.2079 L 785.192,-56.8437
 L 784.792,-56.5196 L 784.36,-56.2392 L 783.901,-56.0054 L 783.42,-55.8208 L 782.923,-55.6875 L 782.414,-55.607
 L 781.9,-55.58 z
M 974.986,-55.607 L 974.477,-55.6875 L 973.98,-55.8208 L 973.499,-56.0054 L 973.04,-56.2392 L 972.608,-56.5196
 L 972.208,-56.8437 L 971.844,-57.2079 L 971.52,-57.6081 L 971.239,-58.04 L 971.005,-58.4989 L 970.821,-58.9796
 L 970.688,-59.4771 L 970.607,-59.9857 L 970.58,-60.5 L 970.607,-61.0143 L 970.688,-61.5229 L 970.821,-62.0204
 L 971.005,-62.5011 L 971.239,-62.96 L 971.52,-63.3919 L 971.844,-63.7921 L 972.208,-64.1563 L 972.608,-64.4804
 L 972.95,-64.7024 L 972.95,-74 L 973.006,-74.5302 L 973.17,-75.0372 L 973.437,-75.4988 L 973.794,-75.895
 L 974.225,-76.2084 L 974.712,-76.4252 L 975.233,-76.536 L 975.767,-76.536 L 976.288,-76.4252 L 976.775,-76.2084
 L 977.206,-75.895 L 977.563,-75.4988 L 977.83,-75.0372 L 977.994,-74.5302 L 978.05,-74 L 978.05,-64.7024
 L 978.392,-64.4804 L 978.792,-64.1563 L 979.156,-63.7921 L 979.48,-63.3919 L 979.761,-62.96 L 979.995,-62.5011
 L 980.179,-62.0204 L 980.312,-61.5229 L 980.393,-61.0143 L 980.42,-60.5 L 980.393,-59.9857 L 980.312,-59.4771
 L 980.179,-58.9796 L 979.995,-58.4989 L 979.761,-58.04 L 979.48,-57.6081 L 979.156,-57.2079 L 978.792,-56.8437
 L 978.392,-56.5196 L 977.96,-56.2392 L 977.501,-56.0054 L 977.02,-55.8208 L 976.523,-55.6875 L 976.014,-55.607
 L 975.5,-55.58 z
M 490.988,-47.6884 L 490.174,-47.8816 L 472.111,-54.226 L 471.086,-54.7639 L 470.464,-55.3235 L 469.973,-56
 L 469.633,-56.7639 L 469.459,-57.5819 L 469.459,-58.4181 L 469.633,-59.2361 L 469.973,-60 L 470.464,-60.6765
 L 471.086,-61.2361 L 471.81,-61.6542 L 472.605,-61.9126 L 473.437,-62 L 509.563,-62 L 510.709,-61.8324
 L 511.481,-61.5104 L 512.169,-61.035 L 512.743,-60.4269 L 513.178,-59.7128 L 513.455,-58.9238 L 513.562,-58.0945
 L 513.494,-57.261 L 513.255,-56.4598 L 512.854,-55.7259 L 512.309,-55.0915 L 511.644,-54.5841 L 510.889,-54.226
 L 492.826,-47.8816 L 491.824,-47.6687 z
M 381.188,-20.3737 L 380.374,-20.5669 L 284.545,-54.226 L 283.519,-54.7639 L 282.898,-55.3235 L 282.406,-56
 L 282.066,-56.7639 L 281.892,-57.5819 L 281.892,-58.4181 L 282.066,-59.2361 L 282.406,-60 L 282.898,-60.6765
 L 283.519,-61.2361 L 284.243,-61.6542 L 285.039,-61.9126 L 285.87,-62 L 381.7,-62 L 382.936,-61.8042
 L 383.7,-61.4641 L 384.377,-60.9726 L 384.936,-60.3511 L 385.354,-59.627 L 385.613,-58.8316 L 385.7,-58
 L 385.7,-24.3409 L 385.592,-23.417 L 385.315,-22.6281 L 384.88,-21.9139 L 384.306,-21.3059 L 383.618,-20.8305
 L 382.846,-20.5085 L 382.024,-20.354 z
M 793.754,-20.5085 L 792.982,-20.8305 L 792.294,-21.3059 L 791.72,-21.9139 L 791.285,-22.6281 L 791.008,-23.417
 L 790.9,-24.3409 L 790.9,-58 L 790.987,-58.8316 L 791.246,-59.627 L 791.664,-60.3511 L 792.223,-60.9726
 L 792.9,-61.4641 L 793.664,-61.8042 L 794.9,-62 L 890.73,-62 L 891.561,-61.9126 L 892.357,-61.6542
 L 893.081,-61.2361 L 893.702,-60.6765 L 894.194,-60 L 894.534,-59.2361 L 894.708,-58.4181 L 894.708,-57.5819
 L 894.534,-56.7639 L 894.194,-56 L 893.702,-55.3235 L 893.081,-54.7639 L 892.055,-54.226 L 796.226,-20.5669
 L 795.412,-20.3737 L 794.576,-20.354 z
M 187.588,-20.3737 L 186.774,-20.5669 L 90.9448,-54.226 L 89.9193,-54.7639 L 89.2978,-55.3235 L 88.8063,-56
 L 88.4662,-56.7639 L 88.2923,-57.5819 L 88.2923,-58.4181 L 88.4662,-59.2361 L 88.8063,-60 L 89.2978,-60.6765
 L 89.9193,-61.2361 L 90.6434,-61.6542 L 91.4388,-61.9126 L 92.2704,-62 L 188.1,-62 L 189.336,-61.8042
 L 190.1,-61.4641 L 190.777,-60.9726 L 191.336,-60.3511 L 191.754,-59.627 L 192.013,-58.8316 L 192.1,-58
 L 192.1,-24.3409 L 191.992,-23.417 L 191.715,-22.6281 L 191.28,-21.9139 L 190.706,-21.3059 L 190.018,-20.8305
 L 189.246,-20.5085 L 188.424,-20.354 z
M 600.154,-20.5085 L 599.382,-20.8305 L 598.694,-21.3059 L 598.12,-21.9139 L 597.685,-22.6281 L 597.408,-23.417
 L 597.3,-24.3409 L 597.3,-58 L 597.387,-58.8316 L 597.646,-59.627 L 598.064,-60.3511 L 598.623,-60.9726
 L 599.3,-61.4641 L 600.064,-61.8042 L 601.3,-62 L 697.13,-62 L 697.961,-61.9126 L 698.757,-61.6542
 L 699.481,-61.2361 L 700.102,-60.6765 L 700.594,-60 L 700.934,-59.2361 L 701.108,-58.4181 L 701.108,-57.5819
 L 700.934,-56.7639 L 700.594,-56 L 700.102,-55.3235 L 699.481,-54.7639 L 698.455,-54.226 L 602.626,-20.5669
 L 601.812,-20.3737 L 600.976,-20.354 z
M 407.282,-18.2436 L 406.464,-18.4174 L 405.7,-18.7576 L 405.023,-19.2491 L 404.464,-19.8705 L 404.046,-20.5947
 L 403.787,-21.39 L 403.7,-22.2217 L 403.7,-57.7783 L 403.808,-58.7021 L 404.085,-59.4911 L 404.52,-60.2052
 L 405.094,-60.8133 L 405.782,-61.2887 L 406.554,-61.6107 L 407.376,-61.7652 L 408.212,-61.7454 L 409.026,-61.5523
 L 459.642,-43.774 L 460.234,-43.5104 L 460.922,-43.035 L 461.496,-42.4269 L 461.931,-41.7128 L 462.208,-40.9238
 L 462.315,-40.0945 L 462.247,-39.261 L 462.008,-38.4598 L 461.607,-37.7259 L 461.062,-37.0915 L 460.397,-36.5841
 L 459.642,-36.226 L 409.026,-18.4477 L 408.118,-18.2436 z
M 574.788,-18.2545 L 573.974,-18.4477 L 523.358,-36.226 L 522.766,-36.4896 L 522.078,-36.965 L 521.504,-37.5731
 L 521.069,-38.2872 L 520.792,-39.0762 L 520.685,-39.9055 L 520.753,-40.739 L 520.992,-41.5402 L 521.393,-42.2741
 L 521.938,-42.9085 L 522.603,-43.4159 L 523.358,-43.774 L 573.974,-61.5523 L 574.882,-61.7564 L 575.718,-61.7564
 L 576.536,-61.5826 L 577.3,-61.2424 L 577.977,-60.7509 L 578.536,-60.1295 L 578.954,-59.4053 L 579.213,-58.61
 L 579.3,-57.7784 L 579.3,-22.2216 L 579.192,-21.2978 L 578.915,-20.5089 L 578.48,-19.7947 L 577.906,-19.1867
 L 577.218,-18.7113 L 576.446,-18.3893 L 575.624,-18.2348 z
M 214.1,-18 L 212.864,-18.1958 L 212.1,-18.5359 L 211.423,-19.0274 L 210.864,-19.6489 L 210.446,-20.373
 L 210.187,-21.1684 L 210.1,-22 L 210.1,-55.6591 L 210.208,-56.583 L 210.485,-57.3719 L 210.92,-58.0861
 L 211.494,-58.6941 L 212.182,-59.1695 L 212.954,-59.4915 L 213.776,-59.646 L 214.612,-59.6263 L 215.426,-59.4331
 L 311.255,-25.774 L 312.281,-25.2361 L 312.902,-24.6765 L 313.394,-24 L 313.734,-23.2361 L 313.908,-22.4181
 L 313.908,-21.5819 L 313.734,-20.7639 L 313.394,-20 L 312.902,-19.3235 L 312.281,-18.7639 L 311.557,-18.3458
 L 310.761,-18.0874 L 309.93,-18 z
M 673.07,-18 L 672.239,-18.0874 L 671.443,-18.3458 L 670.719,-18.7639 L 670.098,-19.3235 L 669.606,-20
 L 669.266,-20.7639 L 669.092,-21.5819 L 669.092,-22.4181 L 669.266,-23.2361 L 669.606,-24 L 670.098,-24.6765
 L 670.719,-25.2361 L 671.745,-25.774 L 767.574,-59.4331 L 768.388,-59.6263 L 769.224,-59.646 L 770.046,-59.4915
 L 770.818,-59.1695 L 771.506,-58.6941 L 772.08,-58.0861 L 772.515,-57.3719 L 772.792,-56.583 L 772.9,-55.6591
 L 772.9,-22 L 772.813,-21.1684 L 772.554,-20.373 L 772.136,-19.6489 L 771.577,-19.0274 L 770.9,-18.5359
 L 770.136,-18.1958 L 768.9,-18 z
M 22,-18 L 20.7639,-18.1958 L 20,-18.5359 L 19.3235,-19.0274 L 18.7639,-19.6489 L 18.3458,-20.373
 L 18.0874,-21.1684 L 18,-22 L 18,-55.1323 L 18.1081,-56.0561 L 18.3853,-56.8451 L 18.8204,-57.5592
 L 19.3944,-58.1672 L 20.0824,-58.6427 L 20.8541,-58.9646 L 21.6759,-59.1191 L 22.5119,-59.0994 L 23.3256,-58.9062
 L 117.655,-25.774 L 118.681,-25.2361 L 119.302,-24.6765 L 119.794,-24 L 120.134,-23.2361 L 120.308,-22.4181
 L 120.308,-21.5819 L 120.134,-20.7639 L 119.794,-20 L 119.302,-19.3235 L 118.681,-18.7639 L 117.957,-18.3458
 L 117.161,-18.0874 L 116.33,-18 z
M 866.67,-18 L 865.839,-18.0874 L 865.043,-18.3458 L 864.319,-18.7639 L 863.698,-19.3235 L 863.206,-20
 L 862.866,-20.7639 L 862.692,-21.5819 L 862.692,-22.4181 L 862.866,-23.2361 L 863.206,-24 L 863.698,-24.6765
 L 864.319,-25.2361 L 865.345,-25.774 L 959.674,-58.9062 L 960.488,-59.0994 L 961.324,-59.1191 L 962.146,-58.9646
 L 962.918,-58.6427 L 963.606,-58.1672 L 964.18,-57.5592 L 964.615,-56.8451 L 964.892,-56.0561 L 965,-55.1323
 L 965,-22 L 964.913,-21.1684 L 964.654,-20.373 L 964.236,-19.6489 L 963.677,-19.0274 L 963,-18.5359
 L 962.236,-18.1958 L 961,-18 z
M 473.437,-18 L 472.291,-18.1676 L 471.519,-18.4896 L 470.831,-18.965 L 470.257,-19.5731 L 469.822,-20.2872
 L 469.545,-21.0762 L 469.438,-21.9055 L 469.506,-22.739 L 469.745,-23.5402 L 470.146,-24.2741 L 470.691,-24.9085
 L 471.356,-25.4159 L 472.111,-25.774 L 490.174,-32.1184 L 491.176,-32.3313 L 492.012,-32.3116 L 492.826,-32.1184
 L 510.889,-25.774 L 511.914,-25.2361 L 512.536,-24.6765 L 513.027,-24 L 513.367,-23.2361 L 513.541,-22.4181
 L 513.541,-21.5819 L 513.367,-20.7639 L 513.027,-20 L 512.536,-19.3235 L 511.914,-18.7639 L 511.19,-18.3458
 L 510.395,-18.0874 L 509.563,-18 z
" stroke="black" fill="lightgray" stroke-width="0.5"/>
</svg>
