<?xml version="1.0" standalone="no"?>
<!DOCTYPE svg PUBLIC "-//W3C//DTD SVG 1.1//EN" "http://www.w3.org/Graphics/SVG/1.1/DTD/svg11.dtd">
<svg width="879mm" height="80mm" viewBox="0 -80 879 80" xmlns="http://www.w3.org/2000/svg" version="1.1">
<title>OpenSCAD Model</title>
<path d="
M 879,-80 L 0,-80 L 0,-0 L 4.95,-0 L 4.95,-6 L 5.00572,-6.53017
 L 5.17046,-7.03717 L 5.437,-7.49884 L 5.79372,-7.895 L 6.22499,-8.20836 L 6.71201,-8.42519 L 7.23344,-8.53603
 L 7.76654,-8.53603 L 8.28798,-8.42519 L 8.77499,-8.20836 L 9.20627,-7.895 L 9.56299,-7.49884 L 9.82953,-7.03717
 L 9.99426,-6.53017 L 10.05,-6 L 10.05,-0 L 177.75,-0 L 177.75,-6 L 177.806,-6.53017
 L 177.97,-7.03717 L 178.237,-7.49884 L 178.594,-7.895 L 179.025,-8.20836 L 179.512,-8.42519 L 180.033,-8.53603
 L 180.567,-8.53603 L 181.088,-8.42519 L 181.575,-8.20836 L 182.006,-7.895 L 182.363,-7.49884 L 182.63,-7.03717
 L 182.794,-6.53017 L 182.85,-6 L 182.85,-0 L 350.55,-0 L 350.55,-6 L 350.606,-6.53017
 L 350.77,-7.03717 L 351.037,-7.49884 L 351.394,-7.895 L 351.825,-8.20836 L 352.312,-8.42519 L 352.833,-8.53603
 L 353.367,-8.53603 L 353.888,-8.42519 L 354.375,-8.20836 L 354.806,-7.895 L 355.163,-7.49884 L 355.43,-7.03717
 L 355.594,-6.53017 L 355.65,-6 L 355.65,-0 L 523.35,-0 L 523.35,-6 L 523.406,-6.53017
 L 523.57,-7.03717 L 523.837,-7.49884 L 524.194,-7.895 L 524.625,-8.20836 L 525.112,-8.42519 L 525.633,-8.53603
 L 526.167,-8.53603 L 526.688,-8.42519 L 527.175,-8.20836 L 527.606,-7.895 L 527.963,-7.49884 L 528.23,-7.03717
 L 528.394,-6.53017 L 528.45,-6 L 528.45,-0 L 696.15,-0 L 696.15,-6 L 696.206,-6.53017
 L 696.37,-7.03717 L 696.637,-7.49884 L 696.994,-7.895 L 697.425,-8.20836 L 697.912,-8.42519 L 698.433,-8.53603
 L 698.967,-8.53603 L 699.488,-8.42519 L 699.975,-8.20836 L 700.406,-7.895 L 700.763,-7.49884 L 701.03,-7.03717
 L 701.194,-6.53017 L 701.25,-6 L 701.25,-0 L 868.95,-0 L 868.95,-6 L 869.006,-6.53017
 L 869.17,-7.03717 L 869.437,-7.49884 L 869.794,-7.895 L 870.225,-8.20836 L 870.712,-8.42519 L 871.233,-8.53603
 L 871.767,-8.53603 L 872.288,-8.42519 L 872.775,-8.20836 L 873.206,-7.895 L 873.563,-7.49884 L 873.83,-7.03717
 L 873.994,-6.53017 L 874.05,-6 L 874.05,-0 L 879,-0 z
M 6.98573,-55.607 L 6.47708,-55.6875 L 5.97964,-55.8208 L 5.49887,-56.0054 L 5.04001,-56.2392 L 4.60811,-56.5196
 L 4.20789,-56.8437 L 3.84373,-57.2079 L 3.51964,-57.6081 L 3.23917,-58.04 L 3.00537,-58.4989 L 2.82082,-58.9796
 L 2.68752,-59.4771 L 2.60696,-59.9857 L 2.58,-60.5 L 2.60696,-61.0143 L 2.68752,-61.5229 L 2.82082,-62.0204
 L 3.00537,-62.5011 L 3.23917,-62.96 L 3.51964,-63.3919 L 3.84373,-63.7921 L 4.20789,-64.1563 L 4.60811,-64.4804
 L 4.95001,-64.7024 L 4.95001,-74 L 5.00574,-74.5302 L 5.17047,-75.0372 L 5.43701,-75.4988 L 5.79373,-75.895
 L 6.22501,-76.2084 L 6.71202,-76.4252 L 7.23346,-76.536 L 7.76654,-76.536 L 8.28798,-76.4252 L 8.77499,-76.2084
 L 9.20627,-75.895 L 9.56299,-75.4988 L 9.82953,-75.0372 L 9.99426,-74.5302 L 10.05,-74 L 10.05,-64.7024
 L 10.3919,-64.4804 L 10.7921,-64.1563 L 11.1563,-63.7921 L 11.4804,-63.3919 L 11.7608,-62.96 L 11.9946,-62.5011
 L 12.1792,-62.0204 L 12.3125,-61.5229 L 12.393,-61.0143 L 12.42,-60.5 L 12.393,-59.9857 L 12.3125,-59.4771
 L 12.1792,-58.9796 L 11.9946,-58.4989 L 11.7608,-58.04 L 11.4804,-57.6081 L 11.1563,-57.2079 L 10.7921,-56.8437
 L 10.3919,-56.5196 L 9.95999,-56.2392 L 9.50113,-56.0054 L 9.02036,-55.8208 L 8.52292,-55.6875 L 8.01427,-55.607
 L 7.5,-55.58 z
M 179.786,-55.607 L 179.277,-55.6875 L 178.78,-55.8208 L 178.299,-56.0054 L 177.84,-56.2392 L 177.408,-56.5196
 L 177.008,-56.8437 L 176.644,-57.2079 L 176.32,-57.6081 L 176.039,-58.04 L 175.805,-58.4989 L 175.621,-58.9796
 L 175.488,-59.4771 L 175.407,-59.9857 L 175.38,-60.5 L 175.407,-61.0143 L 175.488,-61.5229 L 175.621,-62.0204
 L 175.805,-62.5011 L 176.039,-62.96 L 176.32,-63.3919 L 176.644,-63.7921 L 177.008,-64.1563 L 177.408,-64.4804
 L 177.75,-64.7024 L 177.75,-74 L 177.806,-74.5302 L 177.97,-75.0372 L 178.237,-75.4988 L 178.594,-75.895
 L 179.025,-76.2084 L 179.512,-76.4252 L 180.033,-76.536 L 180.567,-76.536 L 181.088,-76.4252 L 181.575,-76.2084
 L 182.006,-75.895 L 182.363,-75.4988 L 182.63,-75.0372 L 182.794,-74.5302 L 182.85,-74 L 182.85,-64.7024
 L 183.192,-64.4804 L 183.592,-64.1563 L 183.956,-63.7921 L 184.28,-63.3919 L 184.561,-62.96 L 184.795,-62.5011
 L 184.979,-62.0204 L 185.112,-61.5229 L 185.193,-61.0143 L 185.22,-60.5 L 185.193,-59.9857 L 185.112,-59.4771
 L 184.979,-58.9796 L 184.795,-58.4989 L 184.561,-58.04 L 184.28,-57.6081 L 183.956,-57.2079 L 183.592,-56.8437
 L 183.192,-56.5196 L 182.76,-56.2392 L 182.301,-56.0054 L 181.82,-55.8208 L 181.323,-55.6875 L 180.814,-55.607
 L 180.3,-55.58 z
M 352.586,-55.607 L 352.077,-55.6875 L 351.58,-55.8208 L 351.099,-56.0054 L 350.64,-56.2392 L 350.208,-56.5196
 L 349.808,-56.8437 L 349.444,-57.2079 L 349.12,-57.6081 L 348.839,-58.04 L 348.605,-58.4989 L 348.421,-58.9796
 L 348.288,-59.4771 L 348.207,-59.9857 L 348.18,-60.5 L 348.207,-61.0143 L 348.288,-61.5229 L 348.421,-62.0204
 L 348.605,-62.5011 L 348.839,-62.96 L 349.12,-63.3919 L 349.444,-63.7921 L 349.808,-64.1563 L 350.208,-64.4804
 L 350.55,-64.7024 L 350.55,-74 L 350.606,-74.5302 L 350.77,-75.0372 L 351.037,-75.4988 L 351.394,-75.895
 L 351.825,-76.2084 L 352.312,-76.4252 L 352.833,-76.536 L 353.367,-76.536 L 353.888,-76.4252 L 354.375,-76.2084
 L 354.806,-75.895 L 355.163,-75.4988 L 355.43,-75.0372 L 355.594,-74.5302 L 355.65,-74 L 355.65,-64.7024
 L 355.992,-64.4804 L 356.392,-64.1563 L 356.756,-63.7921 L 357.08,-63.3919 L 357.361,-62.96 L 357.595,-62.5011
 L 357.779,-62.0204 L 357.912,-61.5229 L 357.993,-61.0143 L 358.02,-60.5 L 357.993,-59.9857 L 357.912,-59.4771
 L 357.779,-58.9796 L 357.595,-58.4989 L 357.361,-58.04 L 357.08,-57.6081 L 356.756,-57.2079 L 356.392,-56.8437
 L 355.992,-56.5196 L 355.56,-56.2392 L 355.101,-56.0054 L 354.62,-55.8208 L 354.123,-55.6875 L 353.614,-55.607
 L 353.1,-55.58 z
M 525.386,-55.607 L 524.877,-55.6875 L 524.38,-55.8208 L 523.899,-56.0054 L 523.44,-56.2392 L 523.008,-56.5196
 L 522.608,-56.8437 L 522.244,-57.2079 L 521.92,-57.6081 L 521.639,-58.04 L 521.405,-58.4989 L 521.221,-58.9796
 L 521.088,-59.4771 L 521.007,-59.9857 L 520.98,-60.5 L 521.007,-61.0143 L 521.088,-61.5229 L 521.221,-62.0204
 L 521.405,-62.5011 L 521.639,-62.96 L 521.92,-63.3919 L 522.244,-63.7921 L 522.608,-64.1563 L 523.008,-64.4804
 L 523.35,-64.7024 L 523.35,-74 L 523.406,-74.5302 L 523.57,-75.0372 L 523.837,-75.4988 L 524.194,-75.895
 L 524.625,-76.2084 L 525.112,-76.4252 L 525.633,-76.536 L 526.167,-76.536 L 526.688,-76.4252 L 527.175,-76.2084
 L 527.606,-75.895 L 527.963,-75.4988 L 528.23,-75.0372 L 528.394,-74.5302 L 528.45,-74 L 528.45,-64.7024
 L 528.792,-64.4804 L 529.192,-64.1563 L 529.556,-63.7921 L 529.88,-63.3919 L 530.161,-62.96 L 530.395,-62.5011
 L 530.579,-62.0204 L 530.712,-61.5229 L 530.793,-61.0143 L 530.82,-60.5 L 530.793,-59.9857 L 530.712,-59.4771
 L 530.579,-58.9796 L 530.395,-58.4989 L 530.161,-58.04 L 529.88,-57.6081 L 529.556,-57.2079 L 529.192,-56.8437
 L 528.792,-56.5196 L 528.36,-56.2392 L 527.901,-56.0054 L 527.42,-55.8208 L 526.923,-55.6875 L 526.414,-55.607
 L 525.9,-55.58 z
M 698.186,-55.607 L 697.677,-55.6875 L 697.18,-55.8208 L 696.699,-56.0054 L 696.24,-56.2392 L 695.808,-56.5196
 L 695.408,-56.8437 L 695.044,-57.2079 L 694.72,-57.6081 L 694.439,-58.04 L 694.205,-58.4989 L 694.021,-58.9796
 L 693.888,-59.4771 L 693.807,-59.9857 L 693.78,-60.5 L 693.807,-61.0143 L 693.888,-61.5229 L 694.021,-62.0204
 L 694.205,-62.5011 L 694.439,-62.96 L 694.72,-63.3919 L 695.044,-63.7921 L 695.408,-64.1563 L 695.808,-64.4804
 L 696.15,-64.7024 L 696.15,-74 L 696.206,-74.5302 L 696.37,-75.0372 L 696.637,-75.4988 L 696.994,-75.895
 L 697.425,-76.2084 L 697.912,-76.4252 L 698.433,-76.536 L 698.967,-76.536 L 699.488,-76.4252 L 699.975,-76.2084
 L 700.406,-75.895 L 700.763,-75.4988 L 701.03,-75.0372 L 701.194,-74.5302 L 701.25,-74 L 701.25,-64.7024
 L 701.592,-64.4804 L 701.992,-64.1563 L 702.356,-63.7921 L 702.68,-63.3919 L 702.961,-62.96 L 703.195,-62.5011
 L 703.379,-62.0204 L 703.512,-61.5229 L 703.593,-61.0143 L 703.62,-60.5 L 703.593,-59.9857 L 703.512,-59.4771
 L 703.379,-58.9796 L 703.195,-58.4989 L 702.961,-58.04 L 702.68,-57.6081 L 702.356,-57.2079 L 701.992,-56.8437
 L 701.592,-56.5196 L 701.16,-56.2392 L 700.701,-56.0054 L 700.22,-55.8208 L 699.723,-55.6875 L 699.214,-55.607
 L 698.7,-55.58 z
M 870.986,-55.607 L 870.477,-55.6875 L 869.98,-55.8208 L 869.499,-56.0054 L 869.04,-56.2392 L 868.608,-56.5196
 L 868.208,-56.8437 L 867.844,-57.2079 L 867.52,-57.6081 L 867.239,-58.04 L 867.005,-58.4989 L 866.821,-58.9796
 L 866.688,-59.4771 L 866.607,-59.9857 L 866.58,-60.5 L 866.607,-61.0143 L 866.688,-61.5229 L 866.821,-62.0204
 L 867.005,-62.5011 L 867.239,-62.96 L 867.52,-63.3919 L 867.844,-63.7921 L 868.208,-64.1563 L 868.608,-64.4804
 L 868.95,-64.7024 L 868.95,-74 L 869.006,-74.5302 L 869.17,-75.0372 L 869.437,-75.4988 L 869.794,-75.895
 L 870.225,-76.2084 L 870.712,-76.4252 L 871.233,-76.536 L 871.767,-76.536 L 872.288,-76.4252 L 872.775,-76.2084
 L 873.206,-75.895 L 873.563,-75.4988 L 873.83,-75.0372 L 873.994,-74.5302 L 874.05,-74 L 874.05,-64.7024
 L 874.392,-64.4804 L 874.792,-64.1563 L 875.156,-63.7921 L 875.48,-63.3919 L 875.761,-62.96 L 875.995,-62.5011
 L 876.179,-62.0204 L 876.312,-61.5229 L 876.393,-61.0143 L 876.42,-60.5 L 876.393,-59.9857 L 876.312,-59.4771
 L 876.179,-58.9796 L 875.995,-58.4989 L 875.761,-58.04 L 875.48,-57.6081 L 875.156,-57.2079 L 874.792,-56.8437
 L 874.392,-56.5196 L 873.96,-56.2392 L 873.501,-56.0054 L 873.02,-55.8208 L 872.523,-55.6875 L 872.014,-55.607
 L 871.5,-55.58 z
M 438.841,-47.8643 L 438.035,-48.0875 L 422.304,-54.2778 L 421.418,-54.7639 L 420.797,-55.3235 L 420.305,-56
 L 419.965,-56.7639 L 419.791,-57.5819 L 419.791,-58.4181 L 419.965,-59.2361 L 420.305,-60 L 420.797,-60.6765
 L 421.418,-61.2361 L 422.142,-61.6542 L 422.938,-61.9126 L 423.769,-62 L 455.231,-62 L 456.234,-61.8723
 L 457.017,-61.5791 L 457.722,-61.1296 L 458.318,-60.5433 L 458.779,-59.8458 L 459.086,-59.0676 L 459.223,-58.2428
 L 459.187,-57.4074 L 458.977,-56.5979 L 458.604,-55.8497 L 458.083,-55.1954 L 457.437,-54.6637 L 456.696,-54.2778
 L 440.965,-48.0875 L 440.503,-47.9374 L 439.676,-47.8135 z
M 339.441,-21.1272 L 338.635,-21.3504 L 254.961,-54.2778 L 254.074,-54.7639 L 253.453,-55.3235 L 252.962,-56
 L 252.621,-56.7639 L 252.448,-57.5819 L 252.448,-58.4181 L 252.621,-59.2361 L 252.962,-60 L 253.453,-60.6765
 L 254.074,-61.2361 L 254.799,-61.6542 L 255.594,-61.9126 L 256.426,-62 L 340.1,-62 L 341.336,-61.8042
 L 342.1,-61.4641 L 342.777,-60.9726 L 343.336,-60.3511 L 343.754,-59.627 L 344.013,-58.8316 L 344.1,-58
 L 344.1,-25.0726 L 343.955,-24.0049 L 343.649,-23.2268 L 343.187,-22.5293 L 342.591,-21.943 L 341.886,-21.4935
 L 341.103,-21.2003 L 340.276,-21.0764 z
M 710.697,-21.2003 L 709.914,-21.4935 L 709.209,-21.943 L 708.613,-22.5293 L 708.151,-23.2268 L 707.845,-24.0049
 L 707.7,-25.0726 L 707.7,-58 L 707.787,-58.8316 L 708.046,-59.627 L 708.464,-60.3511 L 709.023,-60.9726
 L 709.7,-61.4641 L 710.464,-61.8042 L 711.7,-62 L 795.374,-62 L 796.206,-61.9126 L 797.001,-61.6542
 L 797.726,-61.2361 L 798.347,-60.6765 L 798.838,-60 L 799.179,-59.2361 L 799.352,-58.4181 L 799.352,-57.5819
 L 799.179,-56.7639 L 798.838,-56 L 798.347,-55.3235 L 797.726,-54.7639 L 796.839,-54.2778 L 713.165,-21.3504
 L 712.359,-21.1272 L 711.524,-21.0764 z
M 166.641,-21.1272 L 165.835,-21.3504 L 82.1609,-54.2778 L 81.2745,-54.7639 L 80.653,-55.3235 L 80.1615,-56
 L 79.8214,-56.7639 L 79.6475,-57.5819 L 79.6475,-58.4181 L 79.8214,-59.2361 L 80.1615,-60 L 80.653,-60.6765
 L 81.2745,-61.2361 L 81.9987,-61.6542 L 82.794,-61.9126 L 83.6256,-62 L 167.3,-62 L 168.536,-61.8042
 L 169.3,-61.4641 L 169.977,-60.9726 L 170.536,-60.3511 L 170.954,-59.627 L 171.213,-58.8316 L 171.3,-58
 L 171.3,-25.0726 L 171.155,-24.0049 L 170.849,-23.2268 L 170.387,-22.5293 L 169.791,-21.943 L 169.086,-21.4935
 L 168.303,-21.2003 L 167.476,-21.0764 z
M 537.897,-21.2003 L 537.114,-21.4935 L 536.409,-21.943 L 535.813,-22.5293 L 535.351,-23.2268 L 535.045,-24.0049
 L 534.9,-25.0726 L 534.9,-58 L 534.987,-58.8316 L 535.246,-59.627 L 535.664,-60.3511 L 536.223,-60.9726
 L 536.9,-61.4641 L 537.664,-61.8042 L 538.9,-62 L 622.574,-62 L 623.406,-61.9126 L 624.201,-61.6542
 L 624.926,-61.2361 L 625.547,-60.6765 L 626.038,-60 L 626.379,-59.2361 L 626.552,-58.4181 L 626.552,-57.5819
 L 626.379,-56.7639 L 626.038,-56 L 625.547,-55.3235 L 624.926,-54.7639 L 624.039,-54.2778 L 540.365,-21.3504
 L 539.559,-21.1272 L 538.724,-21.0764 z
M 365.682,-18.9473 L 364.864,-19.1212 L 364.1,-19.4613 L 363.423,-19.9528 L 362.864,-20.5742 L 362.446,-21.2984
 L 362.187,-22.0937 L 362.1,-22.9254 L 362.1,-57.0746 L 362.245,-58.1423 L 362.551,-58.9204 L 363.013,-59.6179
 L 363.609,-60.2042 L 364.314,-60.6537 L 365.097,-60.9469 L 365.924,-61.0708 L 366.759,-61.02 L 367.565,-60.7968
 L 410.954,-43.7222 L 411.981,-43.1296 L 412.577,-42.5433 L 413.038,-41.8458 L 413.344,-41.0676 L 413.482,-40.2428
 L 413.445,-39.4074 L 413.236,-38.5979 L 412.862,-37.8497 L 412.342,-37.1954 L 411.696,-36.6637 L 410.954,-36.2778
 L 367.565,-19.2032 L 366.518,-18.9473 z
M 512.241,-18.98 L 511.435,-19.2032 L 468.046,-36.2778 L 467.019,-36.8704 L 466.423,-37.4567 L 465.962,-38.1542
 L 465.655,-38.9324 L 465.518,-39.7572 L 465.555,-40.5926 L 465.764,-41.4021 L 466.138,-42.1503 L 466.658,-42.8046
 L 467.304,-43.3363 L 468.046,-43.7222 L 511.435,-60.7968 L 512.482,-61.0527 L 513.318,-61.0527 L 514.136,-60.8788
 L 514.9,-60.5387 L 515.577,-60.0472 L 516.136,-59.4258 L 516.554,-58.7016 L 516.813,-57.9063 L 516.9,-57.0746
 L 516.9,-22.9254 L 516.755,-21.8577 L 516.449,-21.0796 L 515.987,-20.3821 L 515.391,-19.7958 L 514.686,-19.3463
 L 513.903,-19.0531 L 513.076,-18.9292 z
M 193.3,-18 L 192.064,-18.1958 L 191.3,-18.5359 L 190.623,-19.0274 L 190.064,-19.6489 L 189.646,-20.373
 L 189.387,-21.1684 L 189.3,-22 L 189.3,-54.9274 L 189.445,-55.995 L 189.751,-56.7732 L 190.213,-57.4707
 L 190.809,-58.057 L 191.514,-58.5065 L 192.297,-58.7997 L 193.124,-58.9235 L 193.959,-58.8728 L 194.765,-58.6496
 L 278.439,-25.7222 L 279.325,-25.2361 L 279.947,-24.6765 L 280.438,-24 L 280.779,-23.2361 L 280.952,-22.4181
 L 280.952,-21.5819 L 280.779,-20.7639 L 280.438,-20 L 279.947,-19.3235 L 279.325,-18.7639 L 278.601,-18.3458
 L 277.806,-18.0874 L 276.974,-18 z
M 602.026,-18 L 601.194,-18.0874 L 600.399,-18.3458 L 599.674,-18.7639 L 599.053,-19.3235 L 598.562,-20
 L 598.221,-20.7639 L 598.048,-21.5819 L 598.048,-22.4181 L 598.221,-23.2361 L 598.562,-24 L 599.053,-24.6765
 L 599.674,-25.2361 L 600.561,-25.7222 L 684.235,-58.6496 L 685.041,-58.8728 L 685.876,-58.9235 L 686.703,-58.7997
 L 687.486,-58.5065 L 688.191,-58.057 L 688.787,-57.4707 L 689.249,-56.7732 L 689.555,-55.995 L 689.7,-54.9274
 L 689.7,-22 L 689.613,-21.1684 L 689.354,-20.373 L 688.936,-19.6489 L 688.377,-19.0274 L 687.7,-18.5359
 L 686.936,-18.1958 L 685.7,-18 z
M 22,-18 L 20.7639,-18.1958 L 20,-18.5359 L 19.3235,-19.0274 L 18.7639,-19.6489 L 18.3458,-20.373
 L 18.0874,-21.1684 L 18,-22 L 18,-54.3371 L 18.1451,-55.4048 L 18.4513,-56.1829 L 18.9126,-56.8804
 L 19.5089,-57.4667 L 20.214,-57.9163 L 20.9972,-58.2094 L 21.8242,-58.3333 L 22.6588,-58.2825 L 23.4647,-58.0593
 L 105.639,-25.7222 L 106.525,-25.2361 L 107.147,-24.6765 L 107.638,-24 L 107.979,-23.2361 L 108.152,-22.4181
 L 108.152,-21.5819 L 107.979,-20.7639 L 107.638,-20 L 107.147,-19.3235 L 106.525,-18.7639 L 105.801,-18.3458
 L 105.006,-18.0874 L 104.174,-18 z
M 774.826,-18 L 773.994,-18.0874 L 773.199,-18.3458 L 772.475,-18.7639 L 771.853,-19.3235 L 771.362,-20
 L 771.021,-20.7639 L 770.848,-21.5819 L 770.848,-22.4181 L 771.021,-23.2361 L 771.362,-24 L 771.853,-24.6765
 L 772.475,-25.2361 L 773.361,-25.7222 L 855.535,-58.0593 L 856.341,-58.2825 L 857.176,-58.3333 L 858.003,-58.2094
 L 858.786,-57.9163 L 859.491,-57.4667 L 860.087,-56.8804 L 860.549,-56.1829 L 860.855,-55.4048 L 861,-54.3371
 L 861,-22 L 860.913,-21.1684 L 860.654,-20.373 L 860.236,-19.6489 L 859.677,-19.0274 L 859,-18.5359
 L 858.236,-18.1958 L 857,-18 z
M 423.769,-18 L 422.766,-18.1277 L 421.983,-18.4209 L 421.278,-18.8704 L 420.682,-19.4567 L 420.221,-20.1542
 L 419.914,-20.9324 L 419.777,-21.7572 L 419.813,-22.5926 L 420.023,-23.4021 L 420.396,-24.1503 L 420.917,-24.8046
 L 421.563,-25.3363 L 422.304,-25.7222 L 438.035,-31.9125 L 438.497,-32.0626 L 439.324,-32.1865 L 440.159,-32.1357
 L 440.965,-31.9125 L 456.696,-25.7222 L 457.582,-25.2361 L 458.203,-24.6765 L 458.695,-24 L 459.035,-23.2361
 L 459.209,-22.4181 L 459.209,-21.5819 L 459.035,-20.7639 L 458.695,-20 L 458.203,-19.3235 L 457.582,-18.7639
 L 456.858,-18.3458 L 456.062,-18.0874 L 455.231,-18 z
" stroke="black" fill="lightgray" stroke-width="0.5"/>
</svg>
