<?xml version="1.0" standalone="no"?>
<!DOCTYPE svg PUBLIC "-//W3C//DTD SVG 1.1//EN" "http://www.w3.org/Graphics/SVG/1.1/DTD/svg11.dtd">
<svg width="947mm" height="80mm" viewBox="0 -80 947 80" xmlns="http://www.w3.org/2000/svg" version="1.1">
<title>OpenSCAD Model</title>
<path d="
M 947,-80 L 0,-80 L 0,-0 L 4.95,-0 L 4.95,-6 L 5.00572,-6.53017
 L 5.17046,-7.03717 L 5.437,-7.49884 L 5.79372,-7.895 L 6.22499,-8.20836 L 6.71201,-8.42519 L 7.23344,-8.53603
 L 7.76654,-8.53603 L 8.28798,-8.42519 L 8.77499,-8.20836 L 9.20627,-7.895 L 9.56299,-7.49884 L 9.82953,-7.03717
 L 9.99426,-6.53017 L 10.05,-6 L 10.05,-0 L 191.35,-0 L 191.35,-6 L 191.406,-6.53017
 L 191.57,-7.03717 L 191.837,-7.49884 L 192.194,-7.895 L 192.625,-8.20836 L 193.112,-8.42519 L 193.633,-8.53603
 L 194.167,-8.53603 L 194.688,-8.42519 L 195.175,-8.20836 L 195.606,-7.895 L 195.963,-7.49884 L 196.23,-7.03717
 L 196.394,-6.53017 L 196.45,-6 L 196.45,-0 L 377.75,-0 L 377.75,-6 L 377.806,-6.53017
 L 377.97,-7.03717 L 378.237,-7.49884 L 378.594,-7.895 L 379.025,-8.20836 L 379.512,-8.42519 L 380.033,-8.53603
 L 380.567,-8.53603 L 381.088,-8.42519 L 381.575,-8.20836 L 382.006,-7.895 L 382.363,-7.49884 L 382.63,-7.03717
 L 382.794,-6.53017 L 382.85,-6 L 382.85,-0 L 564.15,-0 L 564.15,-6 L 564.206,-6.53017
 L 564.37,-7.03717 L 564.637,-7.49884 L 564.994,-7.895 L 565.425,-8.20836 L 565.912,-8.42519 L 566.433,-8.53603
 L 566.967,-8.53603 L 567.488,-8.42519 L 567.975,-8.20836 L 568.406,-7.895 L 568.763,-7.49884 L 569.03,-7.03717
 L 569.194,-6.53017 L 569.25,-6 L 569.25,-0 L 750.55,-0 L 750.55,-6 L 750.606,-6.53017
 L 750.77,-7.03717 L 751.037,-7.49884 L 751.394,-7.895 L 751.825,-8.20836 L 752.312,-8.42519 L 752.833,-8.53603
 L 753.367,-8.53603 L 753.888,-8.42519 L 754.375,-8.20836 L 754.806,-7.895 L 755.163,-7.49884 L 755.43,-7.03717
 L 755.594,-6.53017 L 755.65,-6 L 755.65,-0 L 936.95,-0 L 936.95,-6 L 937.006,-6.53017
 L 937.17,-7.03717 L 937.437,-7.49884 L 937.794,-7.895 L 938.225,-8.20836 L 938.712,-8.42519 L 939.233,-8.53603
 L 939.767,-8.53603 L 940.288,-8.42519 L 940.775,-8.20836 L 941.206,-7.895 L 941.563,-7.49884 L 941.83,-7.03717
 L 941.994,-6.53017 L 942.05,-6 L 942.05,-0 L 947,-0 z
M 6.98573,-55.607 L 6.47708,-55.6875 L 5.97964,-55.8208 L 5.49887,-56.0054 L 5.04001,-56.2392 L 4.60811,-56.5196
 L 4.20789,-56.8437 L 3.84373,-57.2079 L 3.51964,-57.6081 L 3.23917,-58.04 L 3.00537,-58.4989 L 2.82082,-58.9796
 L 2.68752,-59.4771 L 2.60696,-59.9857 L 2.58,-60.5 L 2.60696,-61.0143 L 2.68752,-61.5229 L 2.82082,-62.0204
 L 3.00537,-62.5011 L 3.23917,-62.96 L 3.51964,-63.3919 L 3.84373,-63.7921 L 4.20789,-64.1563 L 4.60811,-64.4804
 L 4.95001,-64.7024 L 4.95001,-74 L 5.00574,-74.5302 L 5.17047,-75.0372 L 5.43701,-75.4988 L 5.79373,-75.895
 L 6.22501,-76.2084 L 6.71202,-76.4252 L 7.23346,-76.536 L 7.76654,-76.536 L 8.28798,-76.4252 L 8.77499,-76.2084
 L 9.20627,-75.895 L 9.56299,-75.4988 L 9.82953,-75.0372 L 9.99426,-74.5302 L 10.05,-74 L 10.05,-64.7024
 L 10.3919,-64.4804 L 10.7921,-64.1563 L 11.1563,-63.7921 L 11.4804,-63.3919 L 11.7608,-62.96 L 11.9946,-62.5011
 L 12.1792,-62.0204 L 12.3125,-61.5229 L 12.393,-61.0143 L 12.42,-60.5 L 12.393,-59.9857 L 12.3125,-59.4771
 L 12.1792,-58.9796 L 11.9946,-58.4989 L 11.7608,-58.04 L 11.4804,-57.6081 L 11.1563,-57.2079 L 10.7921,-56.8437
 L 10.3919,-56.5196 L 9.95999,-56.2392 L 9.50113,-56.0054 L 9.02036,-55.8208 L 8.52292,-55.6875 L 8.01427,-55.607
 L 7.5,-55.58 z
M 193.386,-55.607 L 192.877,-55.6875 L 192.38,-55.8208 L 191.899,-56.0054 L 191.44,-56.2392 L 191.008,-56.5196
 L 190.608,-56.8437 L 190.244,-57.2079 L 189.92,-57.6081 L 189.639,-58.04 L 189.405,-58.4989 L 189.221,-58.9796
 L 189.088,-59.4771 L 189.007,-59.9857 L 188.98,-60.5 L 189.007,-61.0143 L 189.088,-61.5229 L 189.221,-62.0204
 L 189.405,-62.5011 L 189.639,-62.96 L 189.92,-63.3919 L 190.244,-63.7921 L 190.608,-64.1563 L 191.008,-64.4804
 L 191.35,-64.7024 L 191.35,-74 L 191.406,-74.5302 L 191.57,-75.0372 L 191.837,-75.4988 L 192.194,-75.895
 L 192.625,-76.2084 L 193.112,-76.4252 L 193.633,-76.536 L 194.167,-76.536 L 194.688,-76.4252 L 195.175,-76.2084
 L 195.606,-75.895 L 195.963,-75.4988 L 196.23,-75.0372 L 196.394,-74.5302 L 196.45,-74 L 196.45,-64.7024
 L 196.792,-64.4804 L 197.192,-64.1563 L 197.556,-63.7921 L 197.88,-63.3919 L 198.161,-62.96 L 198.395,-62.5011
 L 198.579,-62.0204 L 198.712,-61.5229 L 198.793,-61.0143 L 198.82,-60.5 L 198.793,-59.9857 L 198.712,-59.4771
 L 198.579,-58.9796 L 198.395,-58.4989 L 198.161,-58.04 L 197.88,-57.6081 L 197.556,-57.2079 L 197.192,-56.8437
 L 196.792,-56.5196 L 196.36,-56.2392 L 195.901,-56.0054 L 195.42,-55.8208 L 194.923,-55.6875 L 194.414,-55.607
 L 193.9,-55.58 z
M 379.786,-55.607 L 379.277,-55.6875 L 378.78,-55.8208 L 378.299,-56.0054 L 377.84,-56.2392 L 377.408,-56.5196
 L 377.008,-56.8437 L 376.644,-57.2079 L 376.32,-57.6081 L 376.039,-58.04 L 375.805,-58.4989 L 375.621,-58.9796
 L 375.488,-59.4771 L 375.407,-59.9857 L 375.38,-60.5 L 375.407,-61.0143 L 375.488,-61.5229 L 375.621,-62.0204
 L 375.805,-62.5011 L 376.039,-62.96 L 376.32,-63.3919 L 376.644,-63.7921 L 377.008,-64.1563 L 377.408,-64.4804
 L 377.75,-64.7024 L 377.75,-74 L 377.806,-74.5302 L 377.97,-75.0372 L 378.237,-75.4988 L 378.594,-75.895
 L 379.025,-76.2084 L 379.512,-76.4252 L 380.033,-76.536 L 380.567,-76.536 L 381.088,-76.4252 L 381.575,-76.2084
 L 382.006,-75.895 L 382.363,-75.4988 L 382.63,-75.0372 L 382.794,-74.5302 L 382.85,-74 L 382.85,-64.7024
 L 383.192,-64.4804 L 383.592,-64.1563 L 383.956,-63.7921 L 384.28,-63.3919 L 384.561,-62.96 L 384.795,-62.5011
 L 384.979,-62.0204 L 385.112,-61.5229 L 385.193,-61.0143 L 385.22,-60.5 L 385.193,-59.9857 L 385.112,-59.4771
 L 384.979,-58.9796 L 384.795,-58.4989 L 384.561,-58.04 L 384.28,-57.6081 L 383.956,-57.2079 L 383.592,-56.8437
 L 383.192,-56.5196 L 382.76,-56.2392 L 382.301,-56.0054 L 381.82,-55.8208 L 381.323,-55.6875 L 380.814,-55.607
 L 380.3,-55.58 z
M 566.186,-55.607 L 565.677,-55.6875 L 565.18,-55.8208 L 564.699,-56.0054 L 564.24,-56.2392 L 563.808,-56.5196
 L 563.408,-56.8437 L 563.044,-57.2079 L 562.72,-57.6081 L 562.439,-58.04 L 562.205,-58.4989 L 562.021,-58.9796
 L 561.888,-59.4771 L 561.807,-59.9857 L 561.78,-60.5 L 561.807,-61.0143 L 561.888,-61.5229 L 562.021,-62.0204
 L 562.205,-62.5011 L 562.439,-62.96 L 562.72,-63.3919 L 563.044,-63.7921 L 563.408,-64.1563 L 563.808,-64.4804
 L 564.15,-64.7024 L 564.15,-74 L 564.206,-74.5302 L 564.37,-75.0372 L 564.637,-75.4988 L 564.994,-75.895
 L 565.425,-76.2084 L 565.912,-76.4252 L 566.433,-76.536 L 566.967,-76.536 L 567.488,-76.4252 L 567.975,-76.2084
 L 568.406,-75.895 L 568.763,-75.4988 L 569.03,-75.0372 L 569.194,-74.5302 L 569.25,-74 L 569.25,-64.7024
 L 569.592,-64.4804 L 569.992,-64.1563 L 570.356,-63.7921 L 570.68,-63.3919 L 570.961,-62.96 L 571.195,-62.5011
 L 571.379,-62.0204 L 571.512,-61.5229 L 571.593,-61.0143 L 571.62,-60.5 L 571.593,-59.9857 L 571.512,-59.4771
 L 571.379,-58.9796 L 571.195,-58.4989 L 570.961,-58.04 L 570.68,-57.6081 L 570.356,-57.2079 L 569.992,-56.8437
 L 569.592,-56.5196 L 569.16,-56.2392 L 568.701,-56.0054 L 568.22,-55.8208 L 567.723,-55.6875 L 567.214,-55.607
 L 566.7,-55.58 z
M 752.586,-55.607 L 752.077,-55.6875 L 751.58,-55.8208 L 751.099,-56.0054 L 750.64,-56.2392 L 750.208,-56.5196
 L 749.808,-56.8437 L 749.444,-57.2079 L 749.12,-57.6081 L 748.839,-58.04 L 748.605,-58.4989 L 748.421,-58.9796
 L 748.288,-59.4771 L 748.207,-59.9857 L 748.18,-60.5 L 748.207,-61.0143 L 748.288,-61.5229 L 748.421,-62.0204
 L 748.605,-62.5011 L 748.839,-62.96 L 749.12,-63.3919 L 749.444,-63.7921 L 749.808,-64.1563 L 750.208,-64.4804
 L 750.55,-64.7024 L 750.55,-74 L 750.606,-74.5302 L 750.77,-75.0372 L 751.037,-75.4988 L 751.394,-75.895
 L 751.825,-76.2084 L 752.312,-76.4252 L 752.833,-76.536 L 753.367,-76.536 L 753.888,-76.4252 L 754.375,-76.2084
 L 754.806,-75.895 L 755.163,-75.4988 L 755.43,-75.0372 L 755.594,-74.5302 L 755.65,-74 L 755.65,-64.7024
 L 755.992,-64.4804 L 756.392,-64.1563 L 756.756,-63.7921 L 757.08,-63.3919 L 757.361,-62.96 L 757.595,-62.5011
 L 757.779,-62.0204 L 757.912,-61.5229 L 757.993,-61.0143 L 758.02,-60.5 L 757.993,-59.9857 L 757.912,-59.4771
 L 757.779,-58.9796 L 757.595,-58.4989 L 757.361,-58.04 L 757.08,-57.6081 L 756.756,-57.2079 L 756.392,-56.8437
 L 755.992,-56.5196 L 755.56,-56.2392 L 755.101,-56.0054 L 754.62,-55.8208 L 754.123,-55.6875 L 753.614,-55.607
 L 753.1,-55.58 z
M 938.986,-55.607 L 938.477,-55.6875 L 937.98,-55.8208 L 937.499,-56.0054 L 937.04,-56.2392 L 936.608,-56.5196
 L 936.208,-56.8437 L 935.844,-57.2079 L 935.52,-57.6081 L 935.239,-58.04 L 935.005,-58.4989 L 934.821,-58.9796
 L 934.688,-59.4771 L 934.607,-59.9857 L 934.58,-60.5 L 934.607,-61.0143 L 934.688,-61.5229 L 934.821,-62.0204
 L 935.005,-62.5011 L 935.239,-62.96 L 935.52,-63.3919 L 935.844,-63.7921 L 936.208,-64.1563 L 936.608,-64.4804
 L 936.95,-64.7024 L 936.95,-74 L 937.006,-74.5302 L 937.17,-75.0372 L 937.437,-75.4988 L 937.794,-75.895
 L 938.225,-76.2084 L 938.712,-76.4252 L 939.233,-76.536 L 939.767,-76.536 L 940.288,-76.4252 L 940.775,-76.2084
 L 941.206,-75.895 L 941.563,-75.4988 L 941.83,-75.0372 L 941.994,-74.5302 L 942.05,-74 L 942.05,-64.7024
 L 942.392,-64.4804 L 942.792,-64.1563 L 943.156,-63.7921 L 943.48,-63.3919 L 943.761,-62.96 L 943.995,-62.5011
 L 944.179,-62.0204 L 944.312,-61.5229 L 944.393,-61.0143 L 944.42,-60.5 L 944.393,-59.9857 L 944.312,-59.4771
 L 944.179,-58.9796 L 943.995,-58.4989 L 943.761,-58.04 L 943.48,-57.6081 L 943.156,-57.2079 L 942.792,-56.8437
 L 942.392,-56.5196 L 941.96,-56.2392 L 941.501,-56.0054 L 941.02,-55.8208 L 940.523,-55.6875 L 940.014,-55.607
 L 939.5,-55.58 z
M 472.94,-47.741 L 472.129,-47.9439 L 454.864,-54.2422 L 453.884,-54.7639 L 453.263,-55.3235 L 452.771,-56
 L 452.431,-56.7639 L 452.257,-57.5819 L 452.257,-58.4181 L 452.431,-59.2361 L 452.771,-60 L 453.263,-60.6765
 L 453.884,-61.2361 L 454.608,-61.6542 L 455.403,-61.9126 L 456.235,-62 L 490.765,-62 L 491.865,-61.8459
 L 492.64,-61.5332 L 493.334,-61.0661 L 493.915,-60.465 L 494.359,-59.7561 L 494.645,-58.9706 L 494.762,-58.1425
 L 494.705,-57.3083 L 494.475,-56.5043 L 494.083,-55.7657 L 493.546,-55.1247 L 492.887,-54.6094 L 492.136,-54.2422
 L 474.871,-47.9439 L 473.776,-47.7112 z
M 366.74,-20.6111 L 365.929,-20.814 L 274.296,-54.2422 L 273.316,-54.7639 L 272.695,-55.3235 L 272.203,-56
 L 271.863,-56.7639 L 271.689,-57.5819 L 271.689,-58.4181 L 271.863,-59.2361 L 272.203,-60 L 272.695,-60.6765
 L 273.316,-61.2361 L 274.04,-61.6542 L 274.836,-61.9126 L 275.667,-62 L 367.3,-62 L 368.536,-61.8042
 L 369.3,-61.4641 L 369.977,-60.9726 L 370.536,-60.3511 L 370.954,-59.627 L 371.213,-58.8316 L 371.3,-58
 L 371.3,-24.5717 L 371.18,-23.6012 L 370.894,-22.8156 L 370.45,-22.1068 L 369.869,-21.5056 L 369.175,-21.0385
 L 368.4,-20.7259 L 367.576,-20.5813 z
M 765,-20.7259 L 764.225,-21.0385 L 763.531,-21.5056 L 762.95,-22.1068 L 762.506,-22.8156 L 762.22,-23.6012
 L 762.1,-24.5717 L 762.1,-58 L 762.187,-58.8316 L 762.446,-59.627 L 762.864,-60.3511 L 763.423,-60.9726
 L 764.1,-61.4641 L 764.864,-61.8042 L 766.1,-62 L 857.733,-62 L 858.564,-61.9126 L 859.36,-61.6542
 L 860.084,-61.2361 L 860.705,-60.6765 L 861.197,-60 L 861.537,-59.2361 L 861.711,-58.4181 L 861.711,-57.5819
 L 861.537,-56.7639 L 861.197,-56 L 860.705,-55.3235 L 860.084,-54.7639 L 859.104,-54.2422 L 767.471,-20.814
 L 766.66,-20.6111 L 765.824,-20.5813 z
M 180.34,-20.6111 L 179.529,-20.814 L 87.8963,-54.2422 L 86.916,-54.7639 L 86.2946,-55.3235 L 85.8031,-56
 L 85.463,-56.7639 L 85.2891,-57.5819 L 85.2891,-58.4181 L 85.463,-59.2361 L 85.8031,-60 L 86.2946,-60.6765
 L 86.916,-61.2361 L 87.6402,-61.6542 L 88.4355,-61.9126 L 89.2672,-62 L 180.9,-62 L 182.136,-61.8042
 L 182.9,-61.4641 L 183.577,-60.9726 L 184.136,-60.3511 L 184.554,-59.627 L 184.813,-58.8316 L 184.9,-58
 L 184.9,-24.5717 L 184.78,-23.6012 L 184.494,-22.8156 L 184.05,-22.1068 L 183.469,-21.5056 L 182.775,-21.0385
 L 182,-20.7259 L 181.176,-20.5813 z
M 578.6,-20.7259 L 577.825,-21.0385 L 577.131,-21.5056 L 576.55,-22.1068 L 576.106,-22.8156 L 575.82,-23.6012
 L 575.7,-24.5717 L 575.7,-58 L 575.787,-58.8316 L 576.046,-59.627 L 576.464,-60.3511 L 577.023,-60.9726
 L 577.7,-61.4641 L 578.464,-61.8042 L 579.7,-62 L 671.333,-62 L 672.164,-61.9126 L 672.96,-61.6542
 L 673.684,-61.2361 L 674.305,-60.6765 L 674.797,-60 L 675.137,-59.2361 L 675.311,-58.4181 L 675.311,-57.5819
 L 675.137,-56.7639 L 674.797,-56 L 674.305,-55.3235 L 673.684,-54.7639 L 672.704,-54.2422 L 581.071,-20.814
 L 580.26,-20.6111 L 579.424,-20.5813 z
M 392.882,-18.4661 L 392.064,-18.6399 L 391.3,-18.9801 L 390.623,-19.4716 L 390.064,-20.093 L 389.646,-20.8172
 L 389.387,-21.6125 L 389.3,-22.4442 L 389.3,-57.5558 L 389.42,-58.5264 L 389.706,-59.312 L 390.15,-60.0208
 L 390.731,-60.6219 L 391.425,-61.089 L 392.2,-61.4017 L 393.024,-61.5463 L 393.86,-61.5165 L 394.671,-61.3136
 L 442.795,-43.7578 L 443.299,-43.5332 L 443.993,-43.0661 L 444.574,-42.465 L 445.018,-41.7561 L 445.304,-40.9706
 L 445.421,-40.1425 L 445.363,-39.3083 L 445.133,-38.5043 L 444.741,-37.7657 L 444.204,-37.1247 L 443.546,-36.6094
 L 442.795,-36.2422 L 394.671,-18.6864 L 393.718,-18.4661 z
M 553.14,-18.4835 L 552.329,-18.6864 L 504.205,-36.2422 L 503.701,-36.4668 L 503.007,-36.9339 L 502.426,-37.535
 L 501.982,-38.2439 L 501.696,-39.0294 L 501.579,-39.8575 L 501.637,-40.6917 L 501.866,-41.4957 L 502.258,-42.2343
 L 502.796,-42.8753 L 503.454,-43.3906 L 504.205,-43.7578 L 552.329,-61.3136 L 553.282,-61.534 L 554.118,-61.534
 L 554.936,-61.3601 L 555.7,-61.02 L 556.377,-60.5284 L 556.936,-59.907 L 557.354,-59.1828 L 557.613,-58.3875
 L 557.7,-57.5559 L 557.7,-22.4441 L 557.58,-21.4736 L 557.294,-20.688 L 556.85,-19.9792 L 556.269,-19.3781
 L 555.575,-18.911 L 554.8,-18.5983 L 553.976,-18.4537 z
M 206.9,-18 L 205.664,-18.1958 L 204.9,-18.5359 L 204.223,-19.0274 L 203.664,-19.6489 L 203.246,-20.373
 L 202.987,-21.1684 L 202.9,-22 L 202.9,-55.4283 L 203.02,-56.3988 L 203.306,-57.1844 L 203.75,-57.8932
 L 204.331,-58.4943 L 205.025,-58.9614 L 205.8,-59.2741 L 206.624,-59.4187 L 207.46,-59.3889 L 208.271,-59.186
 L 299.904,-25.7578 L 300.884,-25.2361 L 301.505,-24.6765 L 301.997,-24 L 302.337,-23.2361 L 302.511,-22.4181
 L 302.511,-21.5819 L 302.337,-20.7639 L 301.997,-20 L 301.505,-19.3235 L 300.884,-18.7639 L 300.16,-18.3458
 L 299.364,-18.0874 L 298.533,-18 z
M 648.467,-18 L 647.636,-18.0874 L 646.84,-18.3458 L 646.116,-18.7639 L 645.495,-19.3235 L 645.003,-20
 L 644.663,-20.7639 L 644.489,-21.5819 L 644.489,-22.4181 L 644.663,-23.2361 L 645.003,-24 L 645.495,-24.6765
 L 646.116,-25.2361 L 647.096,-25.7578 L 738.729,-59.186 L 739.54,-59.3889 L 740.376,-59.4187 L 741.2,-59.2741
 L 741.975,-58.9614 L 742.669,-58.4943 L 743.25,-57.8932 L 743.694,-57.1844 L 743.98,-56.3988 L 744.1,-55.4283
 L 744.1,-22 L 744.013,-21.1684 L 743.754,-20.373 L 743.336,-19.6489 L 742.777,-19.0274 L 742.1,-18.5359
 L 741.336,-18.1958 L 740.1,-18 z
M 22,-18 L 20.7639,-18.1958 L 20,-18.5359 L 19.3235,-19.0274 L 18.7639,-19.6489 L 18.3458,-20.373
 L 18.0874,-21.1684 L 18,-22 L 18,-54.8811 L 18.1195,-55.8516 L 18.4061,-56.6372 L 18.8498,-57.346
 L 19.4311,-57.9471 L 20.1247,-58.4142 L 20.9003,-58.7269 L 21.7239,-58.8715 L 22.5596,-58.8417 L 23.3708,-58.6388
 L 113.504,-25.7578 L 114.484,-25.2361 L 115.105,-24.6765 L 115.597,-24 L 115.937,-23.2361 L 116.111,-22.4181
 L 116.111,-21.5819 L 115.937,-20.7639 L 115.597,-20 L 115.105,-19.3235 L 114.484,-18.7639 L 113.76,-18.3458
 L 112.964,-18.0874 L 112.133,-18 z
M 834.867,-18 L 834.036,-18.0874 L 833.24,-18.3458 L 832.516,-18.7639 L 831.895,-19.3235 L 831.403,-20
 L 831.063,-20.7639 L 830.889,-21.5819 L 830.889,-22.4181 L 831.063,-23.2361 L 831.403,-24 L 831.895,-24.6765
 L 832.516,-25.2361 L 833.496,-25.7578 L 923.629,-58.6388 L 924.44,-58.8417 L 925.276,-58.8715 L 926.1,-58.7269
 L 926.875,-58.4142 L 927.569,-57.9471 L 928.15,-57.346 L 928.594,-56.6372 L 928.88,-55.8516 L 929,-54.8811
 L 929,-22 L 928.913,-21.1684 L 928.654,-20.373 L 928.236,-19.6489 L 927.677,-19.0274 L 927,-18.5359
 L 926.236,-18.1958 L 925,-18 z
M 456.235,-18 L 455.135,-18.1541 L 454.36,-18.4668 L 453.666,-18.9339 L 453.085,-19.535 L 452.641,-20.2439
 L 452.355,-21.0294 L 452.238,-21.8575 L 452.295,-22.6917 L 452.525,-23.4957 L 452.917,-24.2343 L 453.454,-24.8753
 L 454.113,-25.3906 L 454.864,-25.7578 L 472.129,-32.0561 L 473.224,-32.2888 L 474.06,-32.259 L 474.871,-32.0561
 L 492.136,-25.7578 L 493.116,-25.2361 L 493.737,-24.6765 L 494.229,-24 L 494.569,-23.2361 L 494.743,-22.4181
 L 494.743,-21.5819 L 494.569,-20.7639 L 494.229,-20 L 493.737,-19.3235 L 493.116,-18.7639 L 492.392,-18.3458
 L 491.596,-18.0874 L 490.765,-18 z
" stroke="black" fill="lightgray" stroke-width="0.5"/>
</svg>
