<?xml version="1.0" standalone="no"?>
<!DOCTYPE svg PUBLIC "-//W3C//DTD SVG 1.1//EN" "http://www.w3.org/Graphics/SVG/1.1/DTD/svg11.dtd">
<svg width="791mm" height="80mm" viewBox="0 -80 791 80" xmlns="http://www.w3.org/2000/svg" version="1.1">
<title>OpenSCAD Model</title>
<path d="
M 791,-80 L 0,-80 L 0,-0 L 4.95,-0 L 4.95,-6 L 5.00572,-6.53017
 L 5.17046,-7.03717 L 5.437,-7.49884 L 5.79372,-7.895 L 6.22499,-8.20836 L 6.71201,-8.42519 L 7.23344,-8.53603
 L 7.76654,-8.53603 L 8.28798,-8.42519 L 8.77499,-8.20836 L 9.20627,-7.895 L 9.56299,-7.49884 L 9.82953,-7.03717
 L 9.99426,-6.53017 L 10.05,-6 L 10.05,-0 L 160.15,-0 L 160.15,-6 L 160.206,-6.53017
 L 160.37,-7.03717 L 160.637,-7.49884 L 160.994,-7.895 L 161.425,-8.20836 L 161.912,-8.42519 L 162.433,-8.53603
 L 162.967,-8.53603 L 163.488,-8.42519 L 163.975,-8.20836 L 164.406,-7.895 L 164.763,-7.49884 L 165.03,-7.03717
 L 165.194,-6.53017 L 165.25,-6 L 165.25,-0 L 315.35,-0 L 315.35,-6 L 315.406,-6.53017
 L 315.57,-7.03717 L 315.837,-7.49884 L 316.194,-7.895 L 316.625,-8.20836 L 317.112,-8.42519 L 317.633,-8.53603
 L 318.167,-8.53603 L 318.688,-8.42519 L 319.175,-8.20836 L 319.606,-7.895 L 319.963,-7.49884 L 320.23,-7.03717
 L 320.394,-6.53017 L 320.45,-6 L 320.45,-0 L 470.55,-0 L 470.55,-6 L 470.606,-6.53017
 L 470.77,-7.03717 L 471.037,-7.49884 L 471.394,-7.895 L 471.825,-8.20836 L 472.312,-8.42519 L 472.833,-8.53603
 L 473.367,-8.53603 L 473.888,-8.42519 L 474.375,-8.20836 L 474.806,-7.895 L 475.163,-7.49884 L 475.43,-7.03717
 L 475.594,-6.53017 L 475.65,-6 L 475.65,-0 L 625.75,-0 L 625.75,-6 L 625.806,-6.53017
 L 625.97,-7.03717 L 626.237,-7.49884 L 626.594,-7.895 L 627.025,-8.20836 L 627.512,-8.42519 L 628.033,-8.53603
 L 628.567,-8.53603 L 629.088,-8.42519 L 629.575,-8.20836 L 630.006,-7.895 L 630.363,-7.49884 L 630.63,-7.03717
 L 630.794,-6.53017 L 630.85,-6 L 630.85,-0 L 780.95,-0 L 780.95,-6 L 781.006,-6.53017
 L 781.17,-7.03717 L 781.437,-7.49884 L 781.794,-7.895 L 782.225,-8.20836 L 782.712,-8.42519 L 783.233,-8.53603
 L 783.767,-8.53603 L 784.288,-8.42519 L 784.775,-8.20836 L 785.206,-7.895 L 785.563,-7.49884 L 785.83,-7.03717
 L 785.994,-6.53017 L 786.05,-6 L 786.05,-0 L 791,-0 z
M 6.98573,-55.607 L 6.47708,-55.6875 L 5.97964,-55.8208 L 5.49887,-56.0054 L 5.04001,-56.2392 L 4.60811,-56.5196
 L 4.20789,-56.8437 L 3.84373,-57.2079 L 3.51964,-57.6081 L 3.23917,-58.04 L 3.00537,-58.4989 L 2.82082,-58.9796
 L 2.68752,-59.4771 L 2.60696,-59.9857 L 2.58,-60.5 L 2.60696,-61.0143 L 2.68752,-61.5229 L 2.82082,-62.0204
 L 3.00537,-62.5011 L 3.23917,-62.96 L 3.51964,-63.3919 L 3.84373,-63.7921 L 4.20789,-64.1563 L 4.60811,-64.4804
 L 4.95001,-64.7024 L 4.95001,-74 L 5.00574,-74.5302 L 5.17047,-75.0372 L 5.43701,-75.4988 L 5.79373,-75.895
 L 6.22501,-76.2084 L 6.71202,-76.4252 L 7.23346,-76.536 L 7.76654,-76.536 L 8.28798,-76.4252 L 8.77499,-76.2084
 L 9.20627,-75.895 L 9.56299,-75.4988 L 9.82953,-75.0372 L 9.99426,-74.5302 L 10.05,-74 L 10.05,-64.7024
 L 10.3919,-64.4804 L 10.7921,-64.1563 L 11.1563,-63.7921 L 11.4804,-63.3919 L 11.7608,-62.96 L 11.9946,-62.5011
 L 12.1792,-62.0204 L 12.3125,-61.5229 L 12.393,-61.0143 L 12.42,-60.5 L 12.393,-59.9857 L 12.3125,-59.4771
 L 12.1792,-58.9796 L 11.9946,-58.4989 L 11.7608,-58.04 L 11.4804,-57.6081 L 11.1563,-57.2079 L 10.7921,-56.8437
 L 10.3919,-56.5196 L 9.95999,-56.2392 L 9.50113,-56.0054 L 9.02036,-55.8208 L 8.52292,-55.6875 L 8.01427,-55.607
 L 7.5,-55.58 z
M 162.186,-55.607 L 161.677,-55.6875 L 161.18,-55.8208 L 160.699,-56.0054 L 160.24,-56.2392 L 159.808,-56.5196
 L 159.408,-56.8437 L 159.044,-57.2079 L 158.72,-57.6081 L 158.439,-58.04 L 158.205,-58.4989 L 158.021,-58.9796
 L 157.888,-59.4771 L 157.807,-59.9857 L 157.78,-60.5 L 157.807,-61.0143 L 157.888,-61.5229 L 158.021,-62.0204
 L 158.205,-62.5011 L 158.439,-62.96 L 158.72,-63.3919 L 159.044,-63.7921 L 159.408,-64.1563 L 159.808,-64.4804
 L 160.15,-64.7024 L 160.15,-74 L 160.206,-74.5302 L 160.37,-75.0372 L 160.637,-75.4988 L 160.994,-75.895
 L 161.425,-76.2084 L 161.912,-76.4252 L 162.433,-76.536 L 162.967,-76.536 L 163.488,-76.4252 L 163.975,-76.2084
 L 164.406,-75.895 L 164.763,-75.4988 L 165.03,-75.0372 L 165.194,-74.5302 L 165.25,-74 L 165.25,-64.7024
 L 165.592,-64.4804 L 165.992,-64.1563 L 166.356,-63.7921 L 166.68,-63.3919 L 166.961,-62.96 L 167.195,-62.5011
 L 167.379,-62.0204 L 167.512,-61.5229 L 167.593,-61.0143 L 167.62,-60.5 L 167.593,-59.9857 L 167.512,-59.4771
 L 167.379,-58.9796 L 167.195,-58.4989 L 166.961,-58.04 L 166.68,-57.6081 L 166.356,-57.2079 L 165.992,-56.8437
 L 165.592,-56.5196 L 165.16,-56.2392 L 164.701,-56.0054 L 164.22,-55.8208 L 163.723,-55.6875 L 163.214,-55.607
 L 162.7,-55.58 z
M 317.386,-55.607 L 316.877,-55.6875 L 316.38,-55.8208 L 315.899,-56.0054 L 315.44,-56.2392 L 315.008,-56.5196
 L 314.608,-56.8437 L 314.244,-57.2079 L 313.92,-57.6081 L 313.639,-58.04 L 313.405,-58.4989 L 313.221,-58.9796
 L 313.088,-59.4771 L 313.007,-59.9857 L 312.98,-60.5 L 313.007,-61.0143 L 313.088,-61.5229 L 313.221,-62.0204
 L 313.405,-62.5011 L 313.639,-62.96 L 313.92,-63.3919 L 314.244,-63.7921 L 314.608,-64.1563 L 315.008,-64.4804
 L 315.35,-64.7024 L 315.35,-74 L 315.406,-74.5302 L 315.57,-75.0372 L 315.837,-75.4988 L 316.194,-75.895
 L 316.625,-76.2084 L 317.112,-76.4252 L 317.633,-76.536 L 318.167,-76.536 L 318.688,-76.4252 L 319.175,-76.2084
 L 319.606,-75.895 L 319.963,-75.4988 L 320.23,-75.0372 L 320.394,-74.5302 L 320.45,-74 L 320.45,-64.7024
 L 320.792,-64.4804 L 321.192,-64.1563 L 321.556,-63.7921 L 321.88,-63.3919 L 322.161,-62.96 L 322.395,-62.5011
 L 322.579,-62.0204 L 322.712,-61.5229 L 322.793,-61.0143 L 322.82,-60.5 L 322.793,-59.9857 L 322.712,-59.4771
 L 322.579,-58.9796 L 322.395,-58.4989 L 322.161,-58.04 L 321.88,-57.6081 L 321.556,-57.2079 L 321.192,-56.8437
 L 320.792,-56.5196 L 320.36,-56.2392 L 319.901,-56.0054 L 319.42,-55.8208 L 318.923,-55.6875 L 318.414,-55.607
 L 317.9,-55.58 z
M 472.586,-55.607 L 472.077,-55.6875 L 471.58,-55.8208 L 471.099,-56.0054 L 470.64,-56.2392 L 470.208,-56.5196
 L 469.808,-56.8437 L 469.444,-57.2079 L 469.12,-57.6081 L 468.839,-58.04 L 468.605,-58.4989 L 468.421,-58.9796
 L 468.288,-59.4771 L 468.207,-59.9857 L 468.18,-60.5 L 468.207,-61.0143 L 468.288,-61.5229 L 468.421,-62.0204
 L 468.605,-62.5011 L 468.839,-62.96 L 469.12,-63.3919 L 469.444,-63.7921 L 469.808,-64.1563 L 470.208,-64.4804
 L 470.55,-64.7024 L 470.55,-74 L 470.606,-74.5302 L 470.77,-75.0372 L 471.037,-75.4988 L 471.394,-75.895
 L 471.825,-76.2084 L 472.312,-76.4252 L 472.833,-76.536 L 473.367,-76.536 L 473.888,-76.4252 L 474.375,-76.2084
 L 474.806,-75.895 L 475.163,-75.4988 L 475.43,-75.0372 L 475.594,-74.5302 L 475.65,-74 L 475.65,-64.7024
 L 475.992,-64.4804 L 476.392,-64.1563 L 476.756,-63.7921 L 477.08,-63.3919 L 477.361,-62.96 L 477.595,-62.5011
 L 477.779,-62.0204 L 477.912,-61.5229 L 477.993,-61.0143 L 478.02,-60.5 L 477.993,-59.9857 L 477.912,-59.4771
 L 477.779,-58.9796 L 477.595,-58.4989 L 477.361,-58.04 L 477.08,-57.6081 L 476.756,-57.2079 L 476.392,-56.8437
 L 475.992,-56.5196 L 475.56,-56.2392 L 475.101,-56.0054 L 474.62,-55.8208 L 474.123,-55.6875 L 473.614,-55.607
 L 473.1,-55.58 z
M 627.786,-55.607 L 627.277,-55.6875 L 626.78,-55.8208 L 626.299,-56.0054 L 625.84,-56.2392 L 625.408,-56.5196
 L 625.008,-56.8437 L 624.644,-57.2079 L 624.32,-57.6081 L 624.039,-58.04 L 623.805,-58.4989 L 623.621,-58.9796
 L 623.488,-59.4771 L 623.407,-59.9857 L 623.38,-60.5 L 623.407,-61.0143 L 623.488,-61.5229 L 623.621,-62.0204
 L 623.805,-62.5011 L 624.039,-62.96 L 624.32,-63.3919 L 624.644,-63.7921 L 625.008,-64.1563 L 625.408,-64.4804
 L 625.75,-64.7024 L 625.75,-74 L 625.806,-74.5302 L 625.97,-75.0372 L 626.237,-75.4988 L 626.594,-75.895
 L 627.025,-76.2084 L 627.512,-76.4252 L 628.033,-76.536 L 628.567,-76.536 L 629.088,-76.4252 L 629.575,-76.2084
 L 630.006,-75.895 L 630.363,-75.4988 L 630.63,-75.0372 L 630.794,-74.5302 L 630.85,-74 L 630.85,-64.7024
 L 631.192,-64.4804 L 631.592,-64.1563 L 631.956,-63.7921 L 632.28,-63.3919 L 632.561,-62.96 L 632.795,-62.5011
 L 632.979,-62.0204 L 633.112,-61.5229 L 633.193,-61.0143 L 633.22,-60.5 L 633.193,-59.9857 L 633.112,-59.4771
 L 632.979,-58.9796 L 632.795,-58.4989 L 632.561,-58.04 L 632.28,-57.6081 L 631.956,-57.2079 L 631.592,-56.8437
 L 631.192,-56.5196 L 630.76,-56.2392 L 630.301,-56.0054 L 629.82,-55.8208 L 629.323,-55.6875 L 628.814,-55.607
 L 628.3,-55.58 z
M 782.986,-55.607 L 782.477,-55.6875 L 781.98,-55.8208 L 781.499,-56.0054 L 781.04,-56.2392 L 780.608,-56.5196
 L 780.208,-56.8437 L 779.844,-57.2079 L 779.52,-57.6081 L 779.239,-58.04 L 779.005,-58.4989 L 778.821,-58.9796
 L 778.688,-59.4771 L 778.607,-59.9857 L 778.58,-60.5 L 778.607,-61.0143 L 778.688,-61.5229 L 778.821,-62.0204
 L 779.005,-62.5011 L 779.239,-62.96 L 779.52,-63.3919 L 779.844,-63.7921 L 780.208,-64.1563 L 780.608,-64.4804
 L 780.95,-64.7024 L 780.95,-74 L 781.006,-74.5302 L 781.17,-75.0372 L 781.437,-75.4988 L 781.794,-75.895
 L 782.225,-76.2084 L 782.712,-76.4252 L 783.233,-76.536 L 783.767,-76.536 L 784.288,-76.4252 L 784.775,-76.2084
 L 785.206,-75.895 L 785.563,-75.4988 L 785.83,-75.0372 L 785.994,-74.5302 L 786.05,-74 L 786.05,-64.7024
 L 786.392,-64.4804 L 786.792,-64.1563 L 787.156,-63.7921 L 787.48,-63.3919 L 787.761,-62.96 L 787.995,-62.5011
 L 788.179,-62.0204 L 788.312,-61.5229 L 788.393,-61.0143 L 788.42,-60.5 L 788.393,-59.9857 L 788.312,-59.4771
 L 788.179,-58.9796 L 787.995,-58.4989 L 787.761,-58.04 L 787.48,-57.6081 L 787.156,-57.2079 L 786.792,-56.8437
 L 786.392,-56.5196 L 785.96,-56.2392 L 785.501,-56.0054 L 785.02,-55.8208 L 784.523,-55.6875 L 784.014,-55.607
 L 783.5,-55.58 z
M 394.692,-48.0918 L 393.895,-48.3455 L 380.222,-54.3362 L 379.476,-54.7639 L 378.855,-55.3235 L 378.363,-56
 L 378.023,-56.7639 L 377.849,-57.5819 L 377.849,-58.4181 L 378.023,-59.2361 L 378.363,-60 L 378.855,-60.6765
 L 379.476,-61.2361 L 380.2,-61.6542 L 380.995,-61.9126 L 381.827,-62 L 409.173,-62 L 410.028,-61.9076
 L 410.821,-61.6445 L 411.543,-61.2221 L 412.161,-60.6589 L 412.649,-59.9794 L 412.984,-59.2135 L 413.153,-58.3945
 L 413.148,-57.5583 L 412.97,-56.7414 L 412.625,-55.9795 L 412.13,-55.3059 L 411.505,-54.75 L 410.778,-54.3362
 L 397.105,-48.3455 L 396.355,-48.1017 L 395.524,-48.0094 z
M 304.092,-21.9712 L 303.295,-22.2249 L 230.005,-54.3362 L 229.259,-54.7639 L 228.638,-55.3235 L 228.147,-56
 L 227.806,-56.7639 L 227.633,-57.5819 L 227.633,-58.4181 L 227.806,-59.2361 L 228.147,-60 L 228.638,-60.6765
 L 229.259,-61.2361 L 229.984,-61.6542 L 230.779,-61.9126 L 231.611,-62 L 304.9,-62 L 306.136,-61.8042
 L 306.9,-61.4641 L 307.577,-60.9726 L 308.136,-60.3511 L 308.554,-59.627 L 308.813,-58.8316 L 308.9,-58
 L 308.9,-25.8887 L 308.711,-24.6752 L 308.376,-23.9092 L 307.888,-23.2298 L 307.27,-22.6666 L 306.549,-22.2442
 L 305.755,-21.9811 L 304.924,-21.8887 z
M 640.445,-21.9811 L 639.651,-22.2442 L 638.93,-22.6666 L 638.312,-23.2298 L 637.824,-23.9092 L 637.489,-24.6752
 L 637.3,-25.8887 L 637.3,-58 L 637.387,-58.8316 L 637.646,-59.627 L 638.064,-60.3511 L 638.623,-60.9726
 L 639.3,-61.4641 L 640.064,-61.8042 L 641.3,-62 L 714.589,-62 L 715.421,-61.9126 L 716.216,-61.6542
 L 716.941,-61.2361 L 717.562,-60.6765 L 718.053,-60 L 718.394,-59.2361 L 718.567,-58.4181 L 718.567,-57.5819
 L 718.394,-56.7639 L 718.053,-56 L 717.562,-55.3235 L 716.941,-54.7639 L 716.195,-54.3362 L 642.905,-22.2249
 L 642.108,-21.9712 L 641.276,-21.8887 z
M 148.892,-21.9712 L 148.095,-22.2249 L 74.8054,-54.3362 L 74.0595,-54.7639 L 73.438,-55.3235 L 72.9465,-56
 L 72.6064,-56.7639 L 72.4325,-57.5819 L 72.4325,-58.4181 L 72.6064,-59.2361 L 72.9465,-60 L 73.438,-60.6765
 L 74.0595,-61.2361 L 74.7837,-61.6542 L 75.579,-61.9126 L 76.4106,-62 L 149.7,-62 L 150.936,-61.8042
 L 151.7,-61.4641 L 152.377,-60.9726 L 152.936,-60.3511 L 153.354,-59.627 L 153.613,-58.8316 L 153.7,-58
 L 153.7,-25.8887 L 153.511,-24.6752 L 153.176,-23.9092 L 152.688,-23.2298 L 152.07,-22.6666 L 151.349,-22.2442
 L 150.555,-21.9811 L 149.724,-21.8887 z
M 485.245,-21.9811 L 484.451,-22.2442 L 483.73,-22.6666 L 483.112,-23.2298 L 482.624,-23.9092 L 482.288,-24.6752
 L 482.1,-25.8887 L 482.1,-58 L 482.187,-58.8316 L 482.446,-59.627 L 482.864,-60.3511 L 483.423,-60.9726
 L 484.1,-61.4641 L 484.864,-61.8042 L 486.1,-62 L 559.389,-62 L 560.221,-61.9126 L 561.016,-61.6542
 L 561.74,-61.2361 L 562.362,-60.6765 L 562.853,-60 L 563.194,-59.2361 L 563.367,-58.4181 L 563.367,-57.5819
 L 563.194,-56.7639 L 562.853,-56 L 562.362,-55.3235 L 561.74,-54.7639 L 560.995,-54.3362 L 487.705,-22.2249
 L 486.908,-21.9712 L 486.076,-21.8887 z
M 330.482,-19.7271 L 329.664,-19.901 L 328.9,-20.2411 L 328.223,-20.7326 L 327.664,-21.354 L 327.246,-22.0782
 L 326.987,-22.8735 L 326.9,-23.7052 L 326.9,-56.2948 L 327.089,-57.5083 L 327.424,-58.2742 L 327.912,-58.9537
 L 328.53,-59.5169 L 329.251,-59.9393 L 330.045,-60.2024 L 330.876,-60.2947 L 331.708,-60.2123 L 332.505,-59.9586
 L 369.696,-43.6638 L 370.461,-43.2221 L 371.079,-42.6589 L 371.566,-41.9794 L 371.902,-41.2135 L 372.071,-40.3945
 L 372.066,-39.5583 L 371.887,-38.7414 L 371.543,-37.9795 L 371.047,-37.3059 L 370.422,-36.75 L 369.696,-36.3362
 L 332.505,-20.0414 L 331.318,-19.7271 z
M 459.292,-19.7877 L 458.495,-20.0414 L 421.304,-36.3362 L 420.539,-36.7779 L 419.921,-37.3411 L 419.434,-38.0206
 L 419.098,-38.7865 L 418.929,-39.6055 L 418.934,-40.4417 L 419.113,-41.2586 L 419.457,-42.0205 L 419.953,-42.6941
 L 420.578,-43.25 L 421.304,-43.6638 L 458.495,-59.9586 L 459.682,-60.2729 L 460.518,-60.2729 L 461.336,-60.0991
 L 462.1,-59.7589 L 462.777,-59.2674 L 463.336,-58.646 L 463.754,-57.9218 L 464.013,-57.1265 L 464.1,-56.2948
 L 464.1,-23.7052 L 463.911,-22.4917 L 463.576,-21.7257 L 463.088,-21.0463 L 462.47,-20.4831 L 461.749,-20.0607
 L 460.955,-19.7976 L 460.124,-19.7052 z
M 175.7,-18 L 174.464,-18.1958 L 173.7,-18.5359 L 173.023,-19.0274 L 172.464,-19.6489 L 172.046,-20.373
 L 171.787,-21.1684 L 171.7,-22 L 171.7,-54.1113 L 171.889,-55.3248 L 172.224,-56.0907 L 172.712,-56.7702
 L 173.33,-57.3334 L 174.051,-57.7558 L 174.845,-58.0189 L 175.676,-58.1112 L 176.508,-58.0288 L 177.305,-57.7751
 L 250.595,-25.6638 L 251.34,-25.2361 L 251.962,-24.6765 L 252.453,-24 L 252.794,-23.2361 L 252.967,-22.4181
 L 252.967,-21.5819 L 252.794,-20.7639 L 252.453,-20 L 251.962,-19.3235 L 251.34,-18.7639 L 250.616,-18.3458
 L 249.821,-18.0874 L 248.989,-18 z
M 542.011,-18 L 541.179,-18.0874 L 540.384,-18.3458 L 539.66,-18.7639 L 539.038,-19.3235 L 538.547,-20
 L 538.206,-20.7639 L 538.033,-21.5819 L 538.033,-22.4181 L 538.206,-23.2361 L 538.547,-24 L 539.038,-24.6765
 L 539.66,-25.2361 L 540.405,-25.6638 L 613.695,-57.7751 L 614.492,-58.0288 L 615.324,-58.1112 L 616.155,-58.0189
 L 616.949,-57.7558 L 617.67,-57.3334 L 618.288,-56.7702 L 618.776,-56.0907 L 619.111,-55.3248 L 619.3,-54.1113
 L 619.3,-22 L 619.213,-21.1684 L 618.954,-20.373 L 618.536,-19.6489 L 617.977,-19.0274 L 617.3,-18.5359
 L 616.536,-18.1958 L 615.3,-18 z
M 22,-18 L 20.7639,-18.1958 L 20,-18.5359 L 19.3235,-19.0274 L 18.7639,-19.6489 L 18.3458,-20.373
 L 18.0874,-21.1684 L 18,-22 L 18,-53.4541 L 18.1885,-54.6676 L 18.5241,-55.4335 L 19.0116,-56.1129
 L 19.6297,-56.6762 L 20.3514,-57.0986 L 21.1452,-57.3617 L 21.9763,-57.454 L 22.8084,-57.3715 L 23.6053,-57.1178
 L 95.3946,-25.6638 L 96.1405,-25.2361 L 96.7619,-24.6765 L 97.2534,-24 L 97.5936,-23.2361 L 97.7674,-22.4181
 L 97.7674,-21.5819 L 97.5936,-20.7639 L 97.2534,-20 L 96.7619,-19.3235 L 96.1405,-18.7639 L 95.4163,-18.3458
 L 94.621,-18.0874 L 93.7894,-18 z
M 697.211,-18 L 696.379,-18.0874 L 695.584,-18.3458 L 694.86,-18.7639 L 694.238,-19.3235 L 693.747,-20
 L 693.406,-20.7639 L 693.233,-21.5819 L 693.233,-22.4181 L 693.406,-23.2361 L 693.747,-24 L 694.238,-24.6765
 L 694.86,-25.2361 L 695.605,-25.6638 L 767.395,-57.1178 L 768.192,-57.3715 L 769.024,-57.454 L 769.855,-57.3617
 L 770.649,-57.0986 L 771.37,-56.6762 L 771.988,-56.1129 L 772.476,-55.4335 L 772.811,-54.6676 L 773,-53.4541
 L 773,-22 L 772.913,-21.1684 L 772.654,-20.373 L 772.236,-19.6489 L 771.677,-19.0274 L 771,-18.5359
 L 770.236,-18.1958 L 769,-18 z
M 381.827,-18 L 380.972,-18.0924 L 380.179,-18.3555 L 379.457,-18.7779 L 378.839,-19.3411 L 378.351,-20.0206
 L 378.016,-20.7865 L 377.847,-21.6055 L 377.852,-22.4417 L 378.03,-23.2586 L 378.375,-24.0205 L 378.87,-24.6941
 L 379.495,-25.25 L 380.222,-25.6638 L 393.895,-31.6545 L 394.645,-31.8983 L 395.476,-31.9906 L 396.308,-31.9082
 L 397.105,-31.6545 L 410.778,-25.6638 L 411.524,-25.2361 L 412.145,-24.6765 L 412.637,-24 L 412.977,-23.2361
 L 413.151,-22.4181 L 413.151,-21.5819 L 412.977,-20.7639 L 412.637,-20 L 412.145,-19.3235 L 411.524,-18.7639
 L 410.8,-18.3458 L 410.005,-18.0874 L 409.173,-18 z
" stroke="black" fill="lightgray" stroke-width="0.5"/>
</svg>
