<?xml version="1.0" standalone="no"?>
<!DOCTYPE svg PUBLIC "-//W3C//DTD SVG 1.1//EN" "http://www.w3.org/Graphics/SVG/1.1/DTD/svg11.dtd">
<svg width="975mm" height="80mm" viewBox="0 -80 975 80" xmlns="http://www.w3.org/2000/svg" version="1.1">
<title>OpenSCAD Model</title>
<path d="
M 975,-80 L 0,-80 L 0,-0 L 4.95,-0 L 4.95,-6 L 5.00572,-6.53017
 L 5.17046,-7.03717 L 5.437,-7.49884 L 5.79372,-7.895 L 6.22499,-8.20836 L 6.71201,-8.42519 L 7.23344,-8.53603
 L 7.76654,-8.53603 L 8.28798,-8.42519 L 8.77499,-8.20836 L 9.20627,-7.895 L 9.56299,-7.49884 L 9.82953,-7.03717
 L 9.99426,-6.53017 L 10.05,-6 L 10.05,-0 L 196.95,-0 L 196.95,-6 L 197.006,-6.53017
 L 197.17,-7.03717 L 197.437,-7.49884 L 197.794,-7.895 L 198.225,-8.20836 L 198.712,-8.42519 L 199.233,-8.53603
 L 199.767,-8.53603 L 200.288,-8.42519 L 200.775,-8.20836 L 201.206,-7.895 L 201.563,-7.49884 L 201.83,-7.03717
 L 201.994,-6.53017 L 202.05,-6 L 202.05,-0 L 388.95,-0 L 388.95,-6 L 389.006,-6.53017
 L 389.17,-7.03717 L 389.437,-7.49884 L 389.794,-7.895 L 390.225,-8.20836 L 390.712,-8.42519 L 391.233,-8.53603
 L 391.767,-8.53603 L 392.288,-8.42519 L 392.775,-8.20836 L 393.206,-7.895 L 393.563,-7.49884 L 393.83,-7.03717
 L 393.994,-6.53017 L 394.05,-6 L 394.05,-0 L 580.95,-0 L 580.95,-6 L 581.006,-6.53017
 L 581.17,-7.03717 L 581.437,-7.49884 L 581.794,-7.895 L 582.225,-8.20836 L 582.712,-8.42519 L 583.233,-8.53603
 L 583.767,-8.53603 L 584.288,-8.42519 L 584.775,-8.20836 L 585.206,-7.895 L 585.563,-7.49884 L 585.83,-7.03717
 L 585.994,-6.53017 L 586.05,-6 L 586.05,-0 L 772.95,-0 L 772.95,-6 L 773.006,-6.53017
 L 773.17,-7.03717 L 773.437,-7.49884 L 773.794,-7.895 L 774.225,-8.20836 L 774.712,-8.42519 L 775.233,-8.53603
 L 775.767,-8.53603 L 776.288,-8.42519 L 776.775,-8.20836 L 777.206,-7.895 L 777.563,-7.49884 L 777.83,-7.03717
 L 777.994,-6.53017 L 778.05,-6 L 778.05,-0 L 964.95,-0 L 964.95,-6 L 965.006,-6.53017
 L 965.17,-7.03717 L 965.437,-7.49884 L 965.794,-7.895 L 966.225,-8.20836 L 966.712,-8.42519 L 967.233,-8.53603
 L 967.767,-8.53603 L 968.288,-8.42519 L 968.775,-8.20836 L 969.206,-7.895 L 969.563,-7.49884 L 969.83,-7.03717
 L 969.994,-6.53017 L 970.05,-6 L 970.05,-0 L 975,-0 z
M 6.98573,-55.607 L 6.47708,-55.6875 L 5.97964,-55.8208 L 5.49887,-56.0054 L 5.04001,-56.2392 L 4.60811,-56.5196
 L 4.20789,-56.8437 L 3.84373,-57.2079 L 3.51964,-57.6081 L 3.23917,-58.04 L 3.00537,-58.4989 L 2.82082,-58.9796
 L 2.68752,-59.4771 L 2.60696,-59.9857 L 2.58,-60.5 L 2.60696,-61.0143 L 2.68752,-61.5229 L 2.82082,-62.0204
 L 3.00537,-62.5011 L 3.23917,-62.96 L 3.51964,-63.3919 L 3.84373,-63.7921 L 4.20789,-64.1563 L 4.60811,-64.4804
 L 4.95001,-64.7024 L 4.95001,-74 L 5.00574,-74.5302 L 5.17047,-75.0372 L 5.43701,-75.4988 L 5.79373,-75.895
 L 6.22501,-76.2084 L 6.71202,-76.4252 L 7.23346,-76.536 L 7.76654,-76.536 L 8.28798,-76.4252 L 8.77499,-76.2084
 L 9.20627,-75.895 L 9.56299,-75.4988 L 9.82953,-75.0372 L 9.99426,-74.5302 L 10.05,-74 L 10.05,-64.7024
 L 10.3919,-64.4804 L 10.7921,-64.1563 L 11.1563,-63.7921 L 11.4804,-63.3919 L 11.7608,-62.96 L 11.9946,-62.5011
 L 12.1792,-62.0204 L 12.3125,-61.5229 L 12.393,-61.0143 L 12.42,-60.5 L 12.393,-59.9857 L 12.3125,-59.4771
 L 12.1792,-58.9796 L 11.9946,-58.4989 L 11.7608,-58.04 L 11.4804,-57.6081 L 11.1563,-57.2079 L 10.7921,-56.8437
 L 10.3919,-56.5196 L 9.95999,-56.2392 L 9.50113,-56.0054 L 9.02036,-55.8208 L 8.52292,-55.6875 L 8.01427,-55.607
 L 7.5,-55.58 z
M 198.986,-55.607 L 198.477,-55.6875 L 197.98,-55.8208 L 197.499,-56.0054 L 197.04,-56.2392 L 196.608,-56.5196
 L 196.208,-56.8437 L 195.844,-57.2079 L 195.52,-57.6081 L 195.239,-58.04 L 195.005,-58.4989 L 194.821,-58.9796
 L 194.688,-59.4771 L 194.607,-59.9857 L 194.58,-60.5 L 194.607,-61.0143 L 194.688,-61.5229 L 194.821,-62.0204
 L 195.005,-62.5011 L 195.239,-62.96 L 195.52,-63.3919 L 195.844,-63.7921 L 196.208,-64.1563 L 196.608,-64.4804
 L 196.95,-64.7024 L 196.95,-74 L 197.006,-74.5302 L 197.17,-75.0372 L 197.437,-75.4988 L 197.794,-75.895
 L 198.225,-76.2084 L 198.712,-76.4252 L 199.233,-76.536 L 199.767,-76.536 L 200.288,-76.4252 L 200.775,-76.2084
 L 201.206,-75.895 L 201.563,-75.4988 L 201.83,-75.0372 L 201.994,-74.5302 L 202.05,-74 L 202.05,-64.7024
 L 202.392,-64.4804 L 202.792,-64.1563 L 203.156,-63.7921 L 203.48,-63.3919 L 203.761,-62.96 L 203.995,-62.5011
 L 204.179,-62.0204 L 204.312,-61.5229 L 204.393,-61.0143 L 204.42,-60.5 L 204.393,-59.9857 L 204.312,-59.4771
 L 204.179,-58.9796 L 203.995,-58.4989 L 203.761,-58.04 L 203.48,-57.6081 L 203.156,-57.2079 L 202.792,-56.8437
 L 202.392,-56.5196 L 201.96,-56.2392 L 201.501,-56.0054 L 201.02,-55.8208 L 200.523,-55.6875 L 200.014,-55.607
 L 199.5,-55.58 z
M 390.986,-55.607 L 390.477,-55.6875 L 389.98,-55.8208 L 389.499,-56.0054 L 389.04,-56.2392 L 388.608,-56.5196
 L 388.208,-56.8437 L 387.844,-57.2079 L 387.52,-57.6081 L 387.239,-58.04 L 387.005,-58.4989 L 386.821,-58.9796
 L 386.688,-59.4771 L 386.607,-59.9857 L 386.58,-60.5 L 386.607,-61.0143 L 386.688,-61.5229 L 386.821,-62.0204
 L 387.005,-62.5011 L 387.239,-62.96 L 387.52,-63.3919 L 387.844,-63.7921 L 388.208,-64.1563 L 388.608,-64.4804
 L 388.95,-64.7024 L 388.95,-74 L 389.006,-74.5302 L 389.17,-75.0372 L 389.437,-75.4988 L 389.794,-75.895
 L 390.225,-76.2084 L 390.712,-76.4252 L 391.233,-76.536 L 391.767,-76.536 L 392.288,-76.4252 L 392.775,-76.2084
 L 393.206,-75.895 L 393.563,-75.4988 L 393.83,-75.0372 L 393.994,-74.5302 L 394.05,-74 L 394.05,-64.7024
 L 394.392,-64.4804 L 394.792,-64.1563 L 395.156,-63.7921 L 395.48,-63.3919 L 395.761,-62.96 L 395.995,-62.5011
 L 396.179,-62.0204 L 396.312,-61.5229 L 396.393,-61.0143 L 396.42,-60.5 L 396.393,-59.9857 L 396.312,-59.4771
 L 396.179,-58.9796 L 395.995,-58.4989 L 395.761,-58.04 L 395.48,-57.6081 L 395.156,-57.2079 L 394.792,-56.8437
 L 394.392,-56.5196 L 393.96,-56.2392 L 393.501,-56.0054 L 393.02,-55.8208 L 392.523,-55.6875 L 392.014,-55.607
 L 391.5,-55.58 z
M 582.986,-55.607 L 582.477,-55.6875 L 581.98,-55.8208 L 581.499,-56.0054 L 581.04,-56.2392 L 580.608,-56.5196
 L 580.208,-56.8437 L 579.844,-57.2079 L 579.52,-57.6081 L 579.239,-58.04 L 579.005,-58.4989 L 578.821,-58.9796
 L 578.688,-59.4771 L 578.607,-59.9857 L 578.58,-60.5 L 578.607,-61.0143 L 578.688,-61.5229 L 578.821,-62.0204
 L 579.005,-62.5011 L 579.239,-62.96 L 579.52,-63.3919 L 579.844,-63.7921 L 580.208,-64.1563 L 580.608,-64.4804
 L 580.95,-64.7024 L 580.95,-74 L 581.006,-74.5302 L 581.17,-75.0372 L 581.437,-75.4988 L 581.794,-75.895
 L 582.225,-76.2084 L 582.712,-76.4252 L 583.233,-76.536 L 583.767,-76.536 L 584.288,-76.4252 L 584.775,-76.2084
 L 585.206,-75.895 L 585.563,-75.4988 L 585.83,-75.0372 L 585.994,-74.5302 L 586.05,-74 L 586.05,-64.7024
 L 586.392,-64.4804 L 586.792,-64.1563 L 587.156,-63.7921 L 587.48,-63.3919 L 587.761,-62.96 L 587.995,-62.5011
 L 588.179,-62.0204 L 588.312,-61.5229 L 588.393,-61.0143 L 588.42,-60.5 L 588.393,-59.9857 L 588.312,-59.4771
 L 588.179,-58.9796 L 587.995,-58.4989 L 587.761,-58.04 L 587.48,-57.6081 L 587.156,-57.2079 L 586.792,-56.8437
 L 586.392,-56.5196 L 585.96,-56.2392 L 585.501,-56.0054 L 585.02,-55.8208 L 584.523,-55.6875 L 584.014,-55.607
 L 583.5,-55.58 z
M 774.986,-55.607 L 774.477,-55.6875 L 773.98,-55.8208 L 773.499,-56.0054 L 773.04,-56.2392 L 772.608,-56.5196
 L 772.208,-56.8437 L 771.844,-57.2079 L 771.52,-57.6081 L 771.239,-58.04 L 771.005,-58.4989 L 770.821,-58.9796
 L 770.688,-59.4771 L 770.607,-59.9857 L 770.58,-60.5 L 770.607,-61.0143 L 770.688,-61.5229 L 770.821,-62.0204
 L 771.005,-62.5011 L 771.239,-62.96 L 771.52,-63.3919 L 771.844,-63.7921 L 772.208,-64.1563 L 772.608,-64.4804
 L 772.95,-64.7024 L 772.95,-74 L 773.006,-74.5302 L 773.17,-75.0372 L 773.437,-75.4988 L 773.794,-75.895
 L 774.225,-76.2084 L 774.712,-76.4252 L 775.233,-76.536 L 775.767,-76.536 L 776.288,-76.4252 L 776.775,-76.2084
 L 777.206,-75.895 L 777.563,-75.4988 L 777.83,-75.0372 L 777.994,-74.5302 L 778.05,-74 L 778.05,-64.7024
 L 778.392,-64.4804 L 778.792,-64.1563 L 779.156,-63.7921 L 779.48,-63.3919 L 779.761,-62.96 L 779.995,-62.5011
 L 780.179,-62.0204 L 780.312,-61.5229 L 780.393,-61.0143 L 780.42,-60.5 L 780.393,-59.9857 L 780.312,-59.4771
 L 780.179,-58.9796 L 779.995,-58.4989 L 779.761,-58.04 L 779.48,-57.6081 L 779.156,-57.2079 L 778.792,-56.8437
 L 778.392,-56.5196 L 777.96,-56.2392 L 777.501,-56.0054 L 777.02,-55.8208 L 776.523,-55.6875 L 776.014,-55.607
 L 775.5,-55.58 z
M 966.986,-55.607 L 966.477,-55.6875 L 965.98,-55.8208 L 965.499,-56.0054 L 965.04,-56.2392 L 964.608,-56.5196
 L 964.208,-56.8437 L 963.844,-57.2079 L 963.52,-57.6081 L 963.239,-58.04 L 963.005,-58.4989 L 962.821,-58.9796
 L 962.688,-59.4771 L 962.607,-59.9857 L 962.58,-60.5 L 962.607,-61.0143 L 962.688,-61.5229 L 962.821,-62.0204
 L 963.005,-62.5011 L 963.239,-62.96 L 963.52,-63.3919 L 963.844,-63.7921 L 964.208,-64.1563 L 964.608,-64.4804
 L 964.95,-64.7024 L 964.95,-74 L 965.006,-74.5302 L 965.17,-75.0372 L 965.437,-75.4988 L 965.794,-75.895
 L 966.225,-76.2084 L 966.712,-76.4252 L 967.233,-76.536 L 967.767,-76.536 L 968.288,-76.4252 L 968.775,-76.2084
 L 969.206,-75.895 L 969.563,-75.4988 L 969.83,-75.0372 L 969.994,-74.5302 L 970.05,-74 L 970.05,-64.7024
 L 970.392,-64.4804 L 970.792,-64.1563 L 971.156,-63.7921 L 971.48,-63.3919 L 971.761,-62.96 L 971.995,-62.5011
 L 972.179,-62.0204 L 972.312,-61.5229 L 972.393,-61.0143 L 972.42,-60.5 L 972.393,-59.9857 L 972.312,-59.4771
 L 972.179,-58.9796 L 971.995,-58.4989 L 971.761,-58.04 L 971.48,-57.6081 L 971.156,-57.2079 L 970.792,-56.8437
 L 970.392,-56.5196 L 969.96,-56.2392 L 969.501,-56.0054 L 969.02,-55.8208 L 968.523,-55.6875 L 968.014,-55.607
 L 967.5,-55.58 z
M 486.978,-47.6997 L 486.165,-47.895 L 468.279,-54.2295 L 467.263,-54.7639 L 466.642,-55.3235 L 466.15,-56
 L 465.81,-56.7639 L 465.636,-57.5819 L 465.636,-58.4181 L 465.81,-59.2361 L 466.15,-60 L 466.642,-60.6765
 L 467.263,-61.2361 L 467.987,-61.6542 L 468.783,-61.9126 L 469.614,-62 L 505.386,-62 L 506.522,-61.8353
 L 507.294,-61.5154 L 507.983,-61.0417 L 508.559,-60.4352 L 508.996,-59.7222 L 509.275,-58.9339 L 509.384,-58.1049
 L 509.319,-57.2712 L 509.081,-56.4694 L 508.682,-55.7345 L 508.139,-55.0986 L 507.476,-54.5895 L 506.721,-54.2295
 L 488.835,-47.895 L 487.814,-47.6778 z
M 377.978,-20.4249 L 377.165,-20.6201 L 282.268,-54.2295 L 281.252,-54.7639 L 280.63,-55.3235 L 280.139,-56
 L 279.799,-56.7639 L 279.625,-57.5819 L 279.625,-58.4181 L 279.799,-59.2361 L 280.139,-60 L 280.63,-60.6765
 L 281.252,-61.2361 L 281.976,-61.6542 L 282.771,-61.9126 L 283.603,-62 L 378.5,-62 L 379.736,-61.8042
 L 380.5,-61.4641 L 381.177,-60.9726 L 381.736,-60.3511 L 382.154,-59.627 L 382.413,-58.8316 L 382.5,-58
 L 382.5,-24.3907 L 382.389,-23.4567 L 382.11,-22.6685 L 381.673,-21.9555 L 381.098,-21.3489 L 380.408,-20.8753
 L 379.636,-20.5553 L 378.814,-20.403 z
M 787.364,-20.5553 L 786.592,-20.8753 L 785.902,-21.3489 L 785.327,-21.9555 L 784.89,-22.6685 L 784.611,-23.4567
 L 784.5,-24.3907 L 784.5,-58 L 784.587,-58.8316 L 784.846,-59.627 L 785.264,-60.3511 L 785.823,-60.9726
 L 786.5,-61.4641 L 787.264,-61.8042 L 788.5,-62 L 883.397,-62 L 884.229,-61.9126 L 885.024,-61.6542
 L 885.748,-61.2361 L 886.37,-60.6765 L 886.861,-60 L 887.201,-59.2361 L 887.375,-58.4181 L 887.375,-57.5819
 L 887.201,-56.7639 L 886.861,-56 L 886.37,-55.3235 L 885.748,-54.7639 L 884.732,-54.2295 L 789.835,-20.6201
 L 789.022,-20.4249 L 788.186,-20.403 z
M 185.978,-20.4249 L 185.165,-20.6201 L 90.2676,-54.2295 L 89.2519,-54.7639 L 88.6304,-55.3235 L 88.1389,-56
 L 87.7988,-56.7639 L 87.6249,-57.5819 L 87.6249,-58.4181 L 87.7988,-59.2361 L 88.1389,-60 L 88.6304,-60.6765
 L 89.2519,-61.2361 L 89.9761,-61.6542 L 90.7714,-61.9126 L 91.603,-62 L 186.5,-62 L 187.736,-61.8042
 L 188.5,-61.4641 L 189.177,-60.9726 L 189.736,-60.3511 L 190.154,-59.627 L 190.413,-58.8316 L 190.5,-58
 L 190.5,-24.3907 L 190.389,-23.4567 L 190.11,-22.6685 L 189.673,-21.9555 L 189.098,-21.3489 L 188.408,-20.8753
 L 187.636,-20.5553 L 186.814,-20.403 z
M 595.364,-20.5553 L 594.592,-20.8753 L 593.902,-21.3489 L 593.327,-21.9555 L 592.89,-22.6685 L 592.611,-23.4567
 L 592.5,-24.3907 L 592.5,-58 L 592.587,-58.8316 L 592.846,-59.627 L 593.264,-60.3511 L 593.823,-60.9726
 L 594.5,-61.4641 L 595.264,-61.8042 L 596.5,-62 L 691.397,-62 L 692.229,-61.9126 L 693.024,-61.6542
 L 693.748,-61.2361 L 694.37,-60.6765 L 694.861,-60 L 695.201,-59.2361 L 695.375,-58.4181 L 695.375,-57.5819
 L 695.201,-56.7639 L 694.861,-56 L 694.37,-55.3235 L 693.748,-54.7639 L 692.732,-54.2295 L 597.835,-20.6201
 L 597.022,-20.4249 L 596.186,-20.403 z
M 404.082,-18.2916 L 403.264,-18.4654 L 402.5,-18.8056 L 401.823,-19.2971 L 401.264,-19.9185 L 400.846,-20.6427
 L 400.587,-21.438 L 400.5,-22.2697 L 400.5,-57.7303 L 400.611,-58.6643 L 400.89,-59.4525 L 401.327,-60.1655
 L 401.902,-60.7721 L 402.592,-61.2457 L 403.364,-61.5657 L 404.186,-61.718 L 405.022,-61.6961 L 405.835,-61.5008
 L 455.898,-43.7705 L 456.471,-43.5154 L 457.16,-43.0417 L 457.735,-42.4352 L 458.172,-41.7222 L 458.452,-40.9339
 L 458.561,-40.1049 L 458.495,-39.2712 L 458.258,-38.4694 L 457.859,-37.7345 L 457.316,-37.0986 L 456.652,-36.5895
 L 455.898,-36.2295 L 405.835,-18.4992 L 404.918,-18.2916 z
M 569.978,-18.3039 L 569.165,-18.4991 L 519.102,-36.2295 L 518.529,-36.4846 L 517.84,-36.9583 L 517.265,-37.5648
 L 516.828,-38.2778 L 516.548,-39.0661 L 516.439,-39.8951 L 516.505,-40.7288 L 516.742,-41.5306 L 517.141,-42.2655
 L 517.684,-42.9014 L 518.348,-43.4105 L 519.102,-43.7705 L 569.165,-61.5009 L 570.082,-61.7084 L 570.918,-61.7084
 L 571.736,-61.5346 L 572.5,-61.1944 L 573.177,-60.7029 L 573.736,-60.0815 L 574.154,-59.3573 L 574.413,-58.562
 L 574.5,-57.7303 L 574.5,-22.2697 L 574.389,-21.3357 L 574.11,-20.5475 L 573.673,-19.8345 L 573.098,-19.2279
 L 572.408,-18.7543 L 571.636,-18.4343 L 570.814,-18.282 z
M 212.5,-18 L 211.264,-18.1958 L 210.5,-18.5359 L 209.823,-19.0274 L 209.264,-19.6489 L 208.846,-20.373
 L 208.587,-21.1684 L 208.5,-22 L 208.5,-55.6093 L 208.611,-56.5433 L 208.89,-57.3315 L 209.327,-58.0445
 L 209.902,-58.6511 L 210.592,-59.1247 L 211.364,-59.4447 L 212.186,-59.597 L 213.022,-59.5751 L 213.835,-59.3798
 L 308.732,-25.7705 L 309.748,-25.2361 L 310.37,-24.6765 L 310.861,-24 L 311.201,-23.2361 L 311.375,-22.4181
 L 311.375,-21.5819 L 311.201,-20.7639 L 310.861,-20 L 310.37,-19.3235 L 309.748,-18.7639 L 309.024,-18.3458
 L 308.229,-18.0874 L 307.397,-18 z
M 667.603,-18 L 666.771,-18.0874 L 665.976,-18.3458 L 665.252,-18.7639 L 664.63,-19.3235 L 664.139,-20
 L 663.799,-20.7639 L 663.625,-21.5819 L 663.625,-22.4181 L 663.799,-23.2361 L 664.139,-24 L 664.63,-24.6765
 L 665.252,-25.2361 L 666.268,-25.7705 L 761.165,-59.3798 L 761.978,-59.5751 L 762.814,-59.597 L 763.636,-59.4447
 L 764.408,-59.1247 L 765.098,-58.6511 L 765.673,-58.0445 L 766.11,-57.3315 L 766.389,-56.5433 L 766.5,-55.6093
 L 766.5,-22 L 766.413,-21.1684 L 766.154,-20.373 L 765.736,-19.6489 L 765.177,-19.0274 L 764.5,-18.5359
 L 763.736,-18.1958 L 762.5,-18 z
M 22,-18 L 20.7639,-18.1958 L 20,-18.5359 L 19.3235,-19.0274 L 18.7639,-19.6489 L 18.3458,-20.373
 L 18.0874,-21.1684 L 18,-22 L 18,-55.0781 L 18.1106,-56.012 L 18.3897,-56.8003 L 18.8267,-57.5133
 L 19.4023,-58.1198 L 20.0915,-58.5934 L 20.8641,-58.9134 L 21.6863,-59.0658 L 22.5223,-59.0438 L 23.3354,-58.8486
 L 116.732,-25.7705 L 117.748,-25.2361 L 118.37,-24.6765 L 118.861,-24 L 119.201,-23.2361 L 119.375,-22.4181
 L 119.375,-21.5819 L 119.201,-20.7639 L 118.861,-20 L 118.37,-19.3235 L 117.748,-18.7639 L 117.024,-18.3458
 L 116.229,-18.0874 L 115.397,-18 z
M 859.603,-18 L 858.771,-18.0874 L 857.976,-18.3458 L 857.252,-18.7639 L 856.63,-19.3235 L 856.139,-20
 L 855.799,-20.7639 L 855.625,-21.5819 L 855.625,-22.4181 L 855.799,-23.2361 L 856.139,-24 L 856.63,-24.6765
 L 857.252,-25.2361 L 858.268,-25.7705 L 951.665,-58.8486 L 952.478,-59.0438 L 953.314,-59.0658 L 954.136,-58.9134
 L 954.908,-58.5934 L 955.598,-58.1198 L 956.173,-57.5133 L 956.61,-56.8003 L 956.889,-56.012 L 957,-55.0781
 L 957,-22 L 956.913,-21.1684 L 956.654,-20.373 L 956.236,-19.6489 L 955.677,-19.0274 L 955,-18.5359
 L 954.236,-18.1958 L 953,-18 z
M 469.614,-18 L 468.478,-18.1647 L 467.706,-18.4846 L 467.017,-18.9583 L 466.441,-19.5648 L 466.004,-20.2778
 L 465.725,-21.0661 L 465.616,-21.8951 L 465.681,-22.7288 L 465.919,-23.5306 L 466.318,-24.2655 L 466.861,-24.9014
 L 467.524,-25.4105 L 468.279,-25.7705 L 486.165,-32.105 L 487.186,-32.3222 L 488.022,-32.3003 L 488.835,-32.105
 L 506.721,-25.7705 L 507.737,-25.2361 L 508.358,-24.6765 L 508.85,-24 L 509.19,-23.2361 L 509.364,-22.4181
 L 509.364,-21.5819 L 509.19,-20.7639 L 508.85,-20 L 508.358,-19.3235 L 507.737,-18.7639 L 507.013,-18.3458
 L 506.217,-18.0874 L 505.386,-18 z
" stroke="black" fill="lightgray" stroke-width="0.5"/>
</svg>
