<?xml version="1.0" standalone="no"?>
<!DOCTYPE svg PUBLIC "-//W3C//DTD SVG 1.1//EN" "http://www.w3.org/Graphics/SVG/1.1/DTD/svg11.dtd">
<svg width="976mm" height="80mm" viewBox="0 -80 976 80" xmlns="http://www.w3.org/2000/svg" version="1.1">
<title>OpenSCAD Model</title>
<path d="
M 976,-80 L 0,-80 L 0,-0 L 4.95,-0 L 4.95,-6 L 5.00572,-6.53017
 L 5.17046,-7.03717 L 5.437,-7.49884 L 5.79372,-7.895 L 6.22499,-8.20836 L 6.71201,-8.42519 L 7.23344,-8.53603
 L 7.76654,-8.53603 L 8.28798,-8.42519 L 8.77499,-8.20836 L 9.20627,-7.895 L 9.56299,-7.49884 L 9.82953,-7.03717
 L 9.99426,-6.53017 L 10.05,-6 L 10.05,-0 L 197.15,-0 L 197.15,-6 L 197.206,-6.53017
 L 197.37,-7.03717 L 197.637,-7.49884 L 197.994,-7.895 L 198.425,-8.20836 L 198.912,-8.42519 L 199.433,-8.53603
 L 199.967,-8.53603 L 200.488,-8.42519 L 200.975,-8.20836 L 201.406,-7.895 L 201.763,-7.49884 L 202.03,-7.03717
 L 202.194,-6.53017 L 202.25,-6 L 202.25,-0 L 389.35,-0 L 389.35,-6 L 389.406,-6.53017
 L 389.57,-7.03717 L 389.837,-7.49884 L 390.194,-7.895 L 390.625,-8.20836 L 391.112,-8.42519 L 391.633,-8.53603
 L 392.167,-8.53603 L 392.688,-8.42519 L 393.175,-8.20836 L 393.606,-7.895 L 393.963,-7.49884 L 394.23,-7.03717
 L 394.394,-6.53017 L 394.45,-6 L 394.45,-0 L 581.55,-0 L 581.55,-6 L 581.606,-6.53017
 L 581.77,-7.03717 L 582.037,-7.49884 L 582.394,-7.895 L 582.825,-8.20836 L 583.312,-8.42519 L 583.833,-8.53603
 L 584.367,-8.53603 L 584.888,-8.42519 L 585.375,-8.20836 L 585.806,-7.895 L 586.163,-7.49884 L 586.43,-7.03717
 L 586.594,-6.53017 L 586.65,-6 L 586.65,-0 L 773.75,-0 L 773.75,-6 L 773.806,-6.53017
 L 773.97,-7.03717 L 774.237,-7.49884 L 774.594,-7.895 L 775.025,-8.20836 L 775.512,-8.42519 L 776.033,-8.53603
 L 776.567,-8.53603 L 777.088,-8.42519 L 777.575,-8.20836 L 778.006,-7.895 L 778.363,-7.49884 L 778.63,-7.03717
 L 778.794,-6.53017 L 778.85,-6 L 778.85,-0 L 965.95,-0 L 965.95,-6 L 966.006,-6.53017
 L 966.17,-7.03717 L 966.437,-7.49884 L 966.794,-7.895 L 967.225,-8.20836 L 967.712,-8.42519 L 968.233,-8.53603
 L 968.767,-8.53603 L 969.288,-8.42519 L 969.775,-8.20836 L 970.206,-7.895 L 970.563,-7.49884 L 970.83,-7.03717
 L 970.994,-6.53017 L 971.05,-6 L 971.05,-0 L 976,-0 z
M 6.98573,-55.607 L 6.47708,-55.6875 L 5.97964,-55.8208 L 5.49887,-56.0054 L 5.04001,-56.2392 L 4.60811,-56.5196
 L 4.20789,-56.8437 L 3.84373,-57.2079 L 3.51964,-57.6081 L 3.23917,-58.04 L 3.00537,-58.4989 L 2.82082,-58.9796
 L 2.68752,-59.4771 L 2.60696,-59.9857 L 2.58,-60.5 L 2.60696,-61.0143 L 2.68752,-61.5229 L 2.82082,-62.0204
 L 3.00537,-62.5011 L 3.23917,-62.96 L 3.51964,-63.3919 L 3.84373,-63.7921 L 4.20789,-64.1563 L 4.60811,-64.4804
 L 4.95001,-64.7024 L 4.95001,-74 L 5.00574,-74.5302 L 5.17047,-75.0372 L 5.43701,-75.4988 L 5.79373,-75.895
 L 6.22501,-76.2084 L 6.71202,-76.4252 L 7.23346,-76.536 L 7.76654,-76.536 L 8.28798,-76.4252 L 8.77499,-76.2084
 L 9.20627,-75.895 L 9.56299,-75.4988 L 9.82953,-75.0372 L 9.99426,-74.5302 L 10.05,-74 L 10.05,-64.7024
 L 10.3919,-64.4804 L 10.7921,-64.1563 L 11.1563,-63.7921 L 11.4804,-63.3919 L 11.7608,-62.96 L 11.9946,-62.5011
 L 12.1792,-62.0204 L 12.3125,-61.5229 L 12.393,-61.0143 L 12.42,-60.5 L 12.393,-59.9857 L 12.3125,-59.4771
 L 12.1792,-58.9796 L 11.9946,-58.4989 L 11.7608,-58.04 L 11.4804,-57.6081 L 11.1563,-57.2079 L 10.7921,-56.8437
 L 10.3919,-56.5196 L 9.95999,-56.2392 L 9.50113,-56.0054 L 9.02036,-55.8208 L 8.52292,-55.6875 L 8.01427,-55.607
 L 7.5,-55.58 z
M 199.186,-55.607 L 198.677,-55.6875 L 198.18,-55.8208 L 197.699,-56.0054 L 197.24,-56.2392 L 196.808,-56.5196
 L 196.408,-56.8437 L 196.044,-57.2079 L 195.72,-57.6081 L 195.439,-58.04 L 195.205,-58.4989 L 195.021,-58.9796
 L 194.888,-59.4771 L 194.807,-59.9857 L 194.78,-60.5 L 194.807,-61.0143 L 194.888,-61.5229 L 195.021,-62.0204
 L 195.205,-62.5011 L 195.439,-62.96 L 195.72,-63.3919 L 196.044,-63.7921 L 196.408,-64.1563 L 196.808,-64.4804
 L 197.15,-64.7024 L 197.15,-74 L 197.206,-74.5302 L 197.37,-75.0372 L 197.637,-75.4988 L 197.994,-75.895
 L 198.425,-76.2084 L 198.912,-76.4252 L 199.433,-76.536 L 199.967,-76.536 L 200.488,-76.4252 L 200.975,-76.2084
 L 201.406,-75.895 L 201.763,-75.4988 L 202.03,-75.0372 L 202.194,-74.5302 L 202.25,-74 L 202.25,-64.7024
 L 202.592,-64.4804 L 202.992,-64.1563 L 203.356,-63.7921 L 203.68,-63.3919 L 203.961,-62.96 L 204.195,-62.5011
 L 204.379,-62.0204 L 204.512,-61.5229 L 204.593,-61.0143 L 204.62,-60.5 L 204.593,-59.9857 L 204.512,-59.4771
 L 204.379,-58.9796 L 204.195,-58.4989 L 203.961,-58.04 L 203.68,-57.6081 L 203.356,-57.2079 L 202.992,-56.8437
 L 202.592,-56.5196 L 202.16,-56.2392 L 201.701,-56.0054 L 201.22,-55.8208 L 200.723,-55.6875 L 200.214,-55.607
 L 199.7,-55.58 z
M 391.386,-55.607 L 390.877,-55.6875 L 390.38,-55.8208 L 389.899,-56.0054 L 389.44,-56.2392 L 389.008,-56.5196
 L 388.608,-56.8437 L 388.244,-57.2079 L 387.92,-57.6081 L 387.639,-58.04 L 387.405,-58.4989 L 387.221,-58.9796
 L 387.088,-59.4771 L 387.007,-59.9857 L 386.98,-60.5 L 387.007,-61.0143 L 387.088,-61.5229 L 387.221,-62.0204
 L 387.405,-62.5011 L 387.639,-62.96 L 387.92,-63.3919 L 388.244,-63.7921 L 388.608,-64.1563 L 389.008,-64.4804
 L 389.35,-64.7024 L 389.35,-74 L 389.406,-74.5302 L 389.57,-75.0372 L 389.837,-75.4988 L 390.194,-75.895
 L 390.625,-76.2084 L 391.112,-76.4252 L 391.633,-76.536 L 392.167,-76.536 L 392.688,-76.4252 L 393.175,-76.2084
 L 393.606,-75.895 L 393.963,-75.4988 L 394.23,-75.0372 L 394.394,-74.5302 L 394.45,-74 L 394.45,-64.7024
 L 394.792,-64.4804 L 395.192,-64.1563 L 395.556,-63.7921 L 395.88,-63.3919 L 396.161,-62.96 L 396.395,-62.5011
 L 396.579,-62.0204 L 396.712,-61.5229 L 396.793,-61.0143 L 396.82,-60.5 L 396.793,-59.9857 L 396.712,-59.4771
 L 396.579,-58.9796 L 396.395,-58.4989 L 396.161,-58.04 L 395.88,-57.6081 L 395.556,-57.2079 L 395.192,-56.8437
 L 394.792,-56.5196 L 394.36,-56.2392 L 393.901,-56.0054 L 393.42,-55.8208 L 392.923,-55.6875 L 392.414,-55.607
 L 391.9,-55.58 z
M 583.586,-55.607 L 583.077,-55.6875 L 582.58,-55.8208 L 582.099,-56.0054 L 581.64,-56.2392 L 581.208,-56.5196
 L 580.808,-56.8437 L 580.444,-57.2079 L 580.12,-57.6081 L 579.839,-58.04 L 579.605,-58.4989 L 579.421,-58.9796
 L 579.288,-59.4771 L 579.207,-59.9857 L 579.18,-60.5 L 579.207,-61.0143 L 579.288,-61.5229 L 579.421,-62.0204
 L 579.605,-62.5011 L 579.839,-62.96 L 580.12,-63.3919 L 580.444,-63.7921 L 580.808,-64.1563 L 581.208,-64.4804
 L 581.55,-64.7024 L 581.55,-74 L 581.606,-74.5302 L 581.77,-75.0372 L 582.037,-75.4988 L 582.394,-75.895
 L 582.825,-76.2084 L 583.312,-76.4252 L 583.833,-76.536 L 584.367,-76.536 L 584.888,-76.4252 L 585.375,-76.2084
 L 585.806,-75.895 L 586.163,-75.4988 L 586.43,-75.0372 L 586.594,-74.5302 L 586.65,-74 L 586.65,-64.7024
 L 586.992,-64.4804 L 587.392,-64.1563 L 587.756,-63.7921 L 588.08,-63.3919 L 588.361,-62.96 L 588.595,-62.5011
 L 588.779,-62.0204 L 588.912,-61.5229 L 588.993,-61.0143 L 589.02,-60.5 L 588.993,-59.9857 L 588.912,-59.4771
 L 588.779,-58.9796 L 588.595,-58.4989 L 588.361,-58.04 L 588.08,-57.6081 L 587.756,-57.2079 L 587.392,-56.8437
 L 586.992,-56.5196 L 586.56,-56.2392 L 586.101,-56.0054 L 585.62,-55.8208 L 585.123,-55.6875 L 584.614,-55.607
 L 584.1,-55.58 z
M 775.786,-55.607 L 775.277,-55.6875 L 774.78,-55.8208 L 774.299,-56.0054 L 773.84,-56.2392 L 773.408,-56.5196
 L 773.008,-56.8437 L 772.644,-57.2079 L 772.32,-57.6081 L 772.039,-58.04 L 771.805,-58.4989 L 771.621,-58.9796
 L 771.488,-59.4771 L 771.407,-59.9857 L 771.38,-60.5 L 771.407,-61.0143 L 771.488,-61.5229 L 771.621,-62.0204
 L 771.805,-62.5011 L 772.039,-62.96 L 772.32,-63.3919 L 772.644,-63.7921 L 773.008,-64.1563 L 773.408,-64.4804
 L 773.75,-64.7024 L 773.75,-74 L 773.806,-74.5302 L 773.97,-75.0372 L 774.237,-75.4988 L 774.594,-75.895
 L 775.025,-76.2084 L 775.512,-76.4252 L 776.033,-76.536 L 776.567,-76.536 L 777.088,-76.4252 L 777.575,-76.2084
 L 778.006,-75.895 L 778.363,-75.4988 L 778.63,-75.0372 L 778.794,-74.5302 L 778.85,-74 L 778.85,-64.7024
 L 779.192,-64.4804 L 779.592,-64.1563 L 779.956,-63.7921 L 780.28,-63.3919 L 780.561,-62.96 L 780.795,-62.5011
 L 780.979,-62.0204 L 781.112,-61.5229 L 781.193,-61.0143 L 781.22,-60.5 L 781.193,-59.9857 L 781.112,-59.4771
 L 780.979,-58.9796 L 780.795,-58.4989 L 780.561,-58.04 L 780.28,-57.6081 L 779.956,-57.2079 L 779.592,-56.8437
 L 779.192,-56.5196 L 778.76,-56.2392 L 778.301,-56.0054 L 777.82,-55.8208 L 777.323,-55.6875 L 776.814,-55.607
 L 776.3,-55.58 z
M 967.986,-55.607 L 967.477,-55.6875 L 966.98,-55.8208 L 966.499,-56.0054 L 966.04,-56.2392 L 965.608,-56.5196
 L 965.208,-56.8437 L 964.844,-57.2079 L 964.52,-57.6081 L 964.239,-58.04 L 964.005,-58.4989 L 963.821,-58.9796
 L 963.688,-59.4771 L 963.607,-59.9857 L 963.58,-60.5 L 963.607,-61.0143 L 963.688,-61.5229 L 963.821,-62.0204
 L 964.005,-62.5011 L 964.239,-62.96 L 964.52,-63.3919 L 964.844,-63.7921 L 965.208,-64.1563 L 965.608,-64.4804
 L 965.95,-64.7024 L 965.95,-74 L 966.006,-74.5302 L 966.17,-75.0372 L 966.437,-75.4988 L 966.794,-75.895
 L 967.225,-76.2084 L 967.712,-76.4252 L 968.233,-76.536 L 968.767,-76.536 L 969.288,-76.4252 L 969.775,-76.2084
 L 970.206,-75.895 L 970.563,-75.4988 L 970.83,-75.0372 L 970.994,-74.5302 L 971.05,-74 L 971.05,-64.7024
 L 971.392,-64.4804 L 971.792,-64.1563 L 972.156,-63.7921 L 972.48,-63.3919 L 972.761,-62.96 L 972.995,-62.5011
 L 973.179,-62.0204 L 973.312,-61.5229 L 973.393,-61.0143 L 973.42,-60.5 L 973.393,-59.9857 L 973.312,-59.4771
 L 973.179,-58.9796 L 972.995,-58.4989 L 972.761,-58.04 L 972.48,-57.6081 L 972.156,-57.2079 L 971.792,-56.8437
 L 971.392,-56.5196 L 970.96,-56.2392 L 970.501,-56.0054 L 970.02,-55.8208 L 969.523,-55.6875 L 969.014,-55.607
 L 968.5,-55.58 z
M 487.479,-47.6983 L 486.666,-47.8933 L 468.758,-54.229 L 467.741,-54.7639 L 467.12,-55.3235 L 466.628,-56
 L 466.288,-56.7639 L 466.114,-57.5819 L 466.114,-58.4181 L 466.288,-59.2361 L 466.628,-60 L 467.12,-60.6765
 L 467.741,-61.2361 L 468.465,-61.6542 L 469.26,-61.9126 L 470.092,-62 L 505.908,-62 L 507.045,-61.835
 L 507.817,-61.5147 L 508.507,-61.0409 L 509.082,-60.4341 L 509.519,-59.721 L 509.798,-58.9327 L 509.906,-58.1036
 L 509.841,-57.2699 L 509.603,-56.4682 L 509.204,-55.7334 L 508.66,-55.0977 L 507.997,-54.5889 L 507.242,-54.229
 L 489.334,-47.8933 L 488.315,-47.6767 z
M 378.379,-20.4185 L 377.566,-20.6134 L 282.552,-54.229 L 281.535,-54.7639 L 280.914,-55.3235 L 280.422,-56
 L 280.082,-56.7639 L 279.908,-57.5819 L 279.908,-58.4181 L 280.082,-59.2361 L 280.422,-60 L 280.914,-60.6765
 L 281.535,-61.2361 L 282.259,-61.6542 L 283.055,-61.9126 L 283.886,-62 L 378.9,-62 L 380.136,-61.8042
 L 380.9,-61.4641 L 381.577,-60.9726 L 382.136,-60.3511 L 382.554,-59.627 L 382.813,-58.8316 L 382.9,-58
 L 382.9,-24.3844 L 382.79,-23.4517 L 382.511,-22.6634 L 382.074,-21.9502 L 381.499,-21.3435 L 380.81,-20.8697
 L 380.037,-20.5494 L 379.215,-20.3968 z
M 788.163,-20.5494 L 787.39,-20.8697 L 786.701,-21.3435 L 786.126,-21.9502 L 785.689,-22.6634 L 785.41,-23.4517
 L 785.3,-24.3844 L 785.3,-58 L 785.387,-58.8316 L 785.646,-59.627 L 786.064,-60.3511 L 786.623,-60.9726
 L 787.3,-61.4641 L 788.064,-61.8042 L 789.3,-62 L 884.314,-62 L 885.145,-61.9126 L 885.941,-61.6542
 L 886.665,-61.2361 L 887.286,-60.6765 L 887.778,-60 L 888.118,-59.2361 L 888.292,-58.4181 L 888.292,-57.5819
 L 888.118,-56.7639 L 887.778,-56 L 887.286,-55.3235 L 886.665,-54.7639 L 885.648,-54.229 L 790.634,-20.6134
 L 789.821,-20.4185 L 788.985,-20.3968 z
M 186.179,-20.4185 L 185.366,-20.6134 L 90.3523,-54.229 L 89.3353,-54.7639 L 88.7139,-55.3235 L 88.2224,-56
 L 87.8822,-56.7639 L 87.7084,-57.5819 L 87.7084,-58.4181 L 87.8822,-59.2361 L 88.2224,-60 L 88.7139,-60.6765
 L 89.3353,-61.2361 L 90.0595,-61.6542 L 90.8548,-61.9126 L 91.6864,-62 L 186.7,-62 L 187.936,-61.8042
 L 188.7,-61.4641 L 189.377,-60.9726 L 189.936,-60.3511 L 190.354,-59.627 L 190.613,-58.8316 L 190.7,-58
 L 190.7,-24.3844 L 190.59,-23.4517 L 190.311,-22.6634 L 189.874,-21.9502 L 189.299,-21.3435 L 188.61,-20.8697
 L 187.837,-20.5494 L 187.015,-20.3968 z
M 595.963,-20.5494 L 595.19,-20.8697 L 594.501,-21.3435 L 593.926,-21.9502 L 593.489,-22.6634 L 593.21,-23.4517
 L 593.1,-24.3844 L 593.1,-58 L 593.187,-58.8316 L 593.446,-59.627 L 593.864,-60.3511 L 594.423,-60.9726
 L 595.1,-61.4641 L 595.864,-61.8042 L 597.1,-62 L 692.114,-62 L 692.945,-61.9126 L 693.74,-61.6542
 L 694.465,-61.2361 L 695.086,-60.6765 L 695.578,-60 L 695.918,-59.2361 L 696.092,-58.4181 L 696.092,-57.5819
 L 695.918,-56.7639 L 695.578,-56 L 695.086,-55.3235 L 694.465,-54.7639 L 693.448,-54.229 L 598.434,-20.6134
 L 597.621,-20.4185 L 596.785,-20.3968 z
M 404.482,-18.2855 L 403.664,-18.4594 L 402.9,-18.7995 L 402.223,-19.291 L 401.664,-19.9125 L 401.246,-20.6367
 L 400.987,-21.432 L 400.9,-22.2636 L 400.9,-57.7364 L 401.01,-58.6691 L 401.289,-59.4574 L 401.726,-60.1705
 L 402.301,-60.7773 L 402.99,-61.2511 L 403.763,-61.5713 L 404.585,-61.724 L 405.421,-61.7023 L 406.234,-61.5073
 L 456.366,-43.771 L 456.941,-43.5147 L 457.63,-43.0409 L 458.205,-42.4341 L 458.642,-41.721 L 458.921,-40.9327
 L 459.03,-40.1036 L 458.964,-39.2699 L 458.726,-38.4682 L 458.327,-37.7334 L 457.784,-37.0977 L 457.12,-36.5888
 L 456.366,-36.229 L 406.234,-18.4927 L 405.318,-18.2855 z
M 570.579,-18.2977 L 569.766,-18.4927 L 519.634,-36.229 L 519.059,-36.4853 L 518.37,-36.9591 L 517.795,-37.5659
 L 517.358,-38.279 L 517.079,-39.0673 L 516.97,-39.8964 L 517.036,-40.7301 L 517.274,-41.5318 L 517.673,-42.2666
 L 518.216,-42.9023 L 518.88,-43.4111 L 519.634,-43.771 L 569.766,-61.5073 L 570.682,-61.7145 L 571.518,-61.7145
 L 572.336,-61.5406 L 573.1,-61.2005 L 573.777,-60.709 L 574.336,-60.0875 L 574.754,-59.3633 L 575.013,-58.568
 L 575.1,-57.7364 L 575.1,-22.2636 L 574.99,-21.3309 L 574.711,-20.5426 L 574.274,-19.8295 L 573.699,-19.2227
 L 573.01,-18.7489 L 572.237,-18.4286 L 571.415,-18.276 z
M 212.7,-18 L 211.464,-18.1958 L 210.7,-18.5359 L 210.023,-19.0274 L 209.464,-19.6489 L 209.046,-20.373
 L 208.787,-21.1684 L 208.7,-22 L 208.7,-55.6156 L 208.81,-56.5483 L 209.089,-57.3366 L 209.526,-58.0497
 L 210.101,-58.6565 L 210.79,-59.1303 L 211.563,-59.4506 L 212.385,-59.6032 L 213.221,-59.5815 L 214.034,-59.3866
 L 309.048,-25.771 L 310.065,-25.2361 L 310.686,-24.6765 L 311.178,-24 L 311.518,-23.2361 L 311.692,-22.4181
 L 311.692,-21.5819 L 311.518,-20.7639 L 311.178,-20 L 310.686,-19.3235 L 310.065,-18.7639 L 309.34,-18.3458
 L 308.545,-18.0874 L 307.714,-18 z
M 668.286,-18 L 667.455,-18.0874 L 666.66,-18.3458 L 665.935,-18.7639 L 665.314,-19.3235 L 664.822,-20
 L 664.482,-20.7639 L 664.308,-21.5819 L 664.308,-22.4181 L 664.482,-23.2361 L 664.822,-24 L 665.314,-24.6765
 L 665.935,-25.2361 L 666.952,-25.771 L 761.966,-59.3866 L 762.779,-59.5815 L 763.615,-59.6032 L 764.437,-59.4506
 L 765.21,-59.1303 L 765.899,-58.6565 L 766.474,-58.0497 L 766.911,-57.3366 L 767.19,-56.5483 L 767.3,-55.6156
 L 767.3,-22 L 767.213,-21.1684 L 766.954,-20.373 L 766.536,-19.6489 L 765.977,-19.0274 L 765.3,-18.5359
 L 764.536,-18.1958 L 763.3,-18 z
M 22,-18 L 20.7639,-18.1958 L 20,-18.5359 L 19.3235,-19.0274 L 18.7639,-19.6489 L 18.3458,-20.373
 L 18.0874,-21.1684 L 18,-22 L 18,-55.0849 L 18.1103,-56.0176 L 18.3892,-56.8059 L 18.8259,-57.519
 L 19.4013,-58.1258 L 20.0904,-58.5996 L 20.8628,-58.9199 L 21.685,-59.0725 L 22.521,-59.0508 L 23.3342,-58.8559
 L 116.848,-25.771 L 117.865,-25.2361 L 118.486,-24.6765 L 118.978,-24 L 119.318,-23.2361 L 119.492,-22.4181
 L 119.492,-21.5819 L 119.318,-20.7639 L 118.978,-20 L 118.486,-19.3235 L 117.865,-18.7639 L 117.14,-18.3458
 L 116.345,-18.0874 L 115.514,-18 z
M 860.486,-18 L 859.655,-18.0874 L 858.86,-18.3458 L 858.135,-18.7639 L 857.514,-19.3235 L 857.022,-20
 L 856.682,-20.7639 L 856.508,-21.5819 L 856.508,-22.4181 L 856.682,-23.2361 L 857.022,-24 L 857.514,-24.6765
 L 858.135,-25.2361 L 859.152,-25.771 L 952.666,-58.8559 L 953.479,-59.0508 L 954.315,-59.0725 L 955.137,-58.9199
 L 955.91,-58.5996 L 956.599,-58.1258 L 957.174,-57.519 L 957.611,-56.8059 L 957.89,-56.0176 L 958,-55.0849
 L 958,-22 L 957.913,-21.1684 L 957.654,-20.373 L 957.236,-19.6489 L 956.677,-19.0274 L 956,-18.5359
 L 955.236,-18.1958 L 954,-18 z
M 470.092,-18 L 468.955,-18.165 L 468.182,-18.4853 L 467.493,-18.9591 L 466.918,-19.5659 L 466.481,-20.279
 L 466.202,-21.0673 L 466.093,-21.8964 L 466.159,-22.7301 L 466.397,-23.5318 L 466.796,-24.2666 L 467.34,-24.9023
 L 468.003,-25.4111 L 468.758,-25.771 L 486.666,-32.1067 L 487.685,-32.3233 L 488.521,-32.3017 L 489.334,-32.1067
 L 507.242,-25.771 L 508.259,-25.2361 L 508.88,-24.6765 L 509.372,-24 L 509.712,-23.2361 L 509.886,-22.4181
 L 509.886,-21.5819 L 509.712,-20.7639 L 509.372,-20 L 508.88,-19.3235 L 508.259,-18.7639 L 507.535,-18.3458
 L 506.739,-18.0874 L 505.908,-18 z
" stroke="black" fill="lightgray" stroke-width="0.5"/>
</svg>
