<?xml version="1.0" standalone="no"?>
<!DOCTYPE svg PUBLIC "-//W3C//DTD SVG 1.1//EN" "http://www.w3.org/Graphics/SVG/1.1/DTD/svg11.dtd">
<svg width="526mm" height="80mm" viewBox="0 -80 526 80" xmlns="http://www.w3.org/2000/svg" version="1.1">
<title>OpenSCAD Model</title>
<path d="
M 526,-80 L 0,-80 L 0,-0 L 4.95,-0 L 4.95,-6 L 5.00572,-6.53017
 L 5.17046,-7.03717 L 5.437,-7.49884 L 5.79372,-7.895 L 6.22499,-8.20836 L 6.71201,-8.42519 L 7.23344,-8.53603
 L 7.76654,-8.53603 L 8.28798,-8.42519 L 8.77499,-8.20836 L 9.20627,-7.895 L 9.56299,-7.49884 L 9.82953,-7.03717
 L 9.99426,-6.53017 L 10.05,-6 L 10.05,-0 L 132.7,-0 L 132.7,-6 L 132.756,-6.53017
 L 132.92,-7.03717 L 133.187,-7.49884 L 133.544,-7.895 L 133.975,-8.20836 L 134.462,-8.42519 L 134.983,-8.53603
 L 135.517,-8.53603 L 136.038,-8.42519 L 136.525,-8.20836 L 136.956,-7.895 L 137.313,-7.49884 L 137.58,-7.03717
 L 137.744,-6.53017 L 137.8,-6 L 137.8,-0 L 260.45,-0 L 260.45,-6 L 260.506,-6.53017
 L 260.67,-7.03717 L 260.937,-7.49884 L 261.294,-7.895 L 261.725,-8.20836 L 262.212,-8.42519 L 262.733,-8.53603
 L 263.267,-8.53603 L 263.788,-8.42519 L 264.275,-8.20836 L 264.706,-7.895 L 265.063,-7.49884 L 265.33,-7.03717
 L 265.494,-6.53017 L 265.55,-6 L 265.55,-0 L 388.2,-0 L 388.2,-6 L 388.256,-6.53017
 L 388.42,-7.03717 L 388.687,-7.49884 L 389.044,-7.895 L 389.475,-8.20836 L 389.962,-8.42519 L 390.483,-8.53603
 L 391.017,-8.53603 L 391.538,-8.42519 L 392.025,-8.20836 L 392.456,-7.895 L 392.813,-7.49884 L 393.08,-7.03717
 L 393.244,-6.53017 L 393.3,-6 L 393.3,-0 L 515.95,-0 L 515.95,-6 L 516.006,-6.53017
 L 516.17,-7.03717 L 516.437,-7.49884 L 516.794,-7.895 L 517.225,-8.20836 L 517.712,-8.42519 L 518.233,-8.53603
 L 518.767,-8.53603 L 519.288,-8.42519 L 519.775,-8.20836 L 520.206,-7.895 L 520.563,-7.49884 L 520.83,-7.03717
 L 520.994,-6.53017 L 521.05,-6 L 521.05,-0 L 526,-0 z
M 6.98573,-55.607 L 6.47708,-55.6875 L 5.97964,-55.8208 L 5.49887,-56.0054 L 5.04001,-56.2392 L 4.60811,-56.5196
 L 4.20789,-56.8437 L 3.84373,-57.2079 L 3.51964,-57.6081 L 3.23917,-58.04 L 3.00537,-58.4989 L 2.82082,-58.9796
 L 2.68752,-59.4771 L 2.60696,-59.9857 L 2.58,-60.5 L 2.60696,-61.0143 L 2.68752,-61.5229 L 2.82082,-62.0204
 L 3.00537,-62.5011 L 3.23917,-62.96 L 3.51964,-63.3919 L 3.84373,-63.7921 L 4.20789,-64.1563 L 4.60811,-64.4804
 L 4.95001,-64.7024 L 4.95001,-74 L 5.00574,-74.5302 L 5.17047,-75.0372 L 5.43701,-75.4988 L 5.79373,-75.895
 L 6.22501,-76.2084 L 6.71202,-76.4252 L 7.23346,-76.536 L 7.76654,-76.536 L 8.28798,-76.4252 L 8.77499,-76.2084
 L 9.20627,-75.895 L 9.56299,-75.4988 L 9.82953,-75.0372 L 9.99426,-74.5302 L 10.05,-74 L 10.05,-64.7024
 L 10.3919,-64.4804 L 10.7921,-64.1563 L 11.1563,-63.7921 L 11.4804,-63.3919 L 11.7608,-62.96 L 11.9946,-62.5011
 L 12.1792,-62.0204 L 12.3125,-61.5229 L 12.393,-61.0143 L 12.42,-60.5 L 12.393,-59.9857 L 12.3125,-59.4771
 L 12.1792,-58.9796 L 11.9946,-58.4989 L 11.7608,-58.04 L 11.4804,-57.6081 L 11.1563,-57.2079 L 10.7921,-56.8437
 L 10.3919,-56.5196 L 9.95999,-56.2392 L 9.50113,-56.0054 L 9.02036,-55.8208 L 8.52292,-55.6875 L 8.01427,-55.607
 L 7.5,-55.58 z
M 134.736,-55.607 L 134.227,-55.6875 L 133.73,-55.8208 L 133.249,-56.0054 L 132.79,-56.2392 L 132.358,-56.5196
 L 131.958,-56.8437 L 131.594,-57.2079 L 131.27,-57.6081 L 130.989,-58.04 L 130.755,-58.4989 L 130.571,-58.9796
 L 130.438,-59.4771 L 130.357,-59.9857 L 130.33,-60.5 L 130.357,-61.0143 L 130.438,-61.5229 L 130.571,-62.0204
 L 130.755,-62.5011 L 130.989,-62.96 L 131.27,-63.3919 L 131.594,-63.7921 L 131.958,-64.1563 L 132.358,-64.4804
 L 132.7,-64.7024 L 132.7,-74 L 132.756,-74.5302 L 132.92,-75.0372 L 133.187,-75.4988 L 133.544,-75.895
 L 133.975,-76.2084 L 134.462,-76.4252 L 134.983,-76.536 L 135.517,-76.536 L 136.038,-76.4252 L 136.525,-76.2084
 L 136.956,-75.895 L 137.313,-75.4988 L 137.58,-75.0372 L 137.744,-74.5302 L 137.8,-74 L 137.8,-64.7024
 L 138.142,-64.4804 L 138.542,-64.1563 L 138.906,-63.7921 L 139.23,-63.3919 L 139.511,-62.96 L 139.745,-62.5011
 L 139.929,-62.0204 L 140.062,-61.5229 L 140.143,-61.0143 L 140.17,-60.5 L 140.143,-59.9857 L 140.062,-59.4771
 L 139.929,-58.9796 L 139.745,-58.4989 L 139.511,-58.04 L 139.23,-57.6081 L 138.906,-57.2079 L 138.542,-56.8437
 L 138.142,-56.5196 L 137.71,-56.2392 L 137.251,-56.0054 L 136.77,-55.8208 L 136.273,-55.6875 L 135.764,-55.607
 L 135.25,-55.58 z
M 262.486,-55.607 L 261.977,-55.6875 L 261.48,-55.8208 L 260.999,-56.0054 L 260.54,-56.2392 L 260.108,-56.5196
 L 259.708,-56.8437 L 259.344,-57.2079 L 259.02,-57.6081 L 258.739,-58.04 L 258.505,-58.4989 L 258.321,-58.9796
 L 258.188,-59.4771 L 258.107,-59.9857 L 258.08,-60.5 L 258.107,-61.0143 L 258.188,-61.5229 L 258.321,-62.0204
 L 258.505,-62.5011 L 258.739,-62.96 L 259.02,-63.3919 L 259.344,-63.7921 L 259.708,-64.1563 L 260.108,-64.4804
 L 260.45,-64.7024 L 260.45,-74 L 260.506,-74.5302 L 260.67,-75.0372 L 260.937,-75.4988 L 261.294,-75.895
 L 261.725,-76.2084 L 262.212,-76.4252 L 262.733,-76.536 L 263.267,-76.536 L 263.788,-76.4252 L 264.275,-76.2084
 L 264.706,-75.895 L 265.063,-75.4988 L 265.33,-75.0372 L 265.494,-74.5302 L 265.55,-74 L 265.55,-64.7024
 L 265.892,-64.4804 L 266.292,-64.1563 L 266.656,-63.7921 L 266.98,-63.3919 L 267.261,-62.96 L 267.495,-62.5011
 L 267.679,-62.0204 L 267.812,-61.5229 L 267.893,-61.0143 L 267.92,-60.5 L 267.893,-59.9857 L 267.812,-59.4771
 L 267.679,-58.9796 L 267.495,-58.4989 L 267.261,-58.04 L 266.98,-57.6081 L 266.656,-57.2079 L 266.292,-56.8437
 L 265.892,-56.5196 L 265.46,-56.2392 L 265.001,-56.0054 L 264.52,-55.8208 L 264.023,-55.6875 L 263.514,-55.607
 L 263,-55.58 z
M 390.236,-55.607 L 389.727,-55.6875 L 389.23,-55.8208 L 388.749,-56.0054 L 388.29,-56.2392 L 387.858,-56.5196
 L 387.458,-56.8437 L 387.094,-57.2079 L 386.77,-57.6081 L 386.489,-58.04 L 386.255,-58.4989 L 386.071,-58.9796
 L 385.938,-59.4771 L 385.857,-59.9857 L 385.83,-60.5 L 385.857,-61.0143 L 385.938,-61.5229 L 386.071,-62.0204
 L 386.255,-62.5011 L 386.489,-62.96 L 386.77,-63.3919 L 387.094,-63.7921 L 387.458,-64.1563 L 387.858,-64.4804
 L 388.2,-64.7024 L 388.2,-74 L 388.256,-74.5302 L 388.42,-75.0372 L 388.687,-75.4988 L 389.044,-75.895
 L 389.475,-76.2084 L 389.962,-76.4252 L 390.483,-76.536 L 391.017,-76.536 L 391.538,-76.4252 L 392.025,-76.2084
 L 392.456,-75.895 L 392.813,-75.4988 L 393.08,-75.0372 L 393.244,-74.5302 L 393.3,-74 L 393.3,-64.7024
 L 393.642,-64.4804 L 394.042,-64.1563 L 394.406,-63.7921 L 394.73,-63.3919 L 395.011,-62.96 L 395.245,-62.5011
 L 395.429,-62.0204 L 395.562,-61.5229 L 395.643,-61.0143 L 395.67,-60.5 L 395.643,-59.9857 L 395.562,-59.4771
 L 395.429,-58.9796 L 395.245,-58.4989 L 395.011,-58.04 L 394.73,-57.6081 L 394.406,-57.2079 L 394.042,-56.8437
 L 393.642,-56.5196 L 393.21,-56.2392 L 392.751,-56.0054 L 392.27,-55.8208 L 391.773,-55.6875 L 391.264,-55.607
 L 390.75,-55.58 z
M 517.986,-55.607 L 517.477,-55.6875 L 516.98,-55.8208 L 516.499,-56.0054 L 516.04,-56.2392 L 515.608,-56.5196
 L 515.208,-56.8437 L 514.844,-57.2079 L 514.52,-57.6081 L 514.239,-58.04 L 514.005,-58.4989 L 513.821,-58.9796
 L 513.688,-59.4771 L 513.607,-59.9857 L 513.58,-60.5 L 513.607,-61.0143 L 513.688,-61.5229 L 513.821,-62.0204
 L 514.005,-62.5011 L 514.239,-62.96 L 514.52,-63.3919 L 514.844,-63.7921 L 515.208,-64.1563 L 515.608,-64.4804
 L 515.95,-64.7024 L 515.95,-74 L 516.006,-74.5302 L 516.17,-75.0372 L 516.437,-75.4988 L 516.794,-75.895
 L 517.225,-76.2084 L 517.712,-76.4252 L 518.233,-76.536 L 518.767,-76.536 L 519.288,-76.4252 L 519.775,-76.2084
 L 520.206,-75.895 L 520.563,-75.4988 L 520.83,-75.0372 L 520.994,-74.5302 L 521.05,-74 L 521.05,-64.7024
 L 521.392,-64.4804 L 521.792,-64.1563 L 522.156,-63.7921 L 522.48,-63.3919 L 522.761,-62.96 L 522.995,-62.5011
 L 523.179,-62.0204 L 523.312,-61.5229 L 523.393,-61.0143 L 523.42,-60.5 L 523.393,-59.9857 L 523.312,-59.4771
 L 523.179,-58.9796 L 522.995,-58.4989 L 522.761,-58.04 L 522.48,-57.6081 L 522.156,-57.2079 L 521.792,-56.8437
 L 521.392,-56.5196 L 520.96,-56.2392 L 520.501,-56.0054 L 520.02,-55.8208 L 519.523,-55.6875 L 519.014,-55.607
 L 518.5,-55.58 z
M 275.445,-23.6767 L 274.634,-23.8786 L 273.882,-24.2448 L 273.223,-24.7594 L 272.685,-25.3997 L 272.292,-26.1379
 L 272.061,-26.9416 L 272,-27.638 L 272,-58 L 272.087,-58.8316 L 272.346,-59.627 L 272.764,-60.3511
 L 273.323,-60.9726 L 274,-61.4641 L 274.764,-61.8042 L 276,-62 L 333.04,-62 L 333.872,-61.9126
 L 334.667,-61.6542 L 335.392,-61.2361 L 336.013,-60.6765 L 336.505,-60 L 336.845,-59.2361 L 337.019,-58.4181
 L 337.019,-57.5819 L 336.845,-56.7639 L 336.505,-56 L 336.013,-55.3235 L 335.392,-54.7639 L 334.92,-54.4691
 L 277.879,-24.107 L 277.104,-23.7934 L 276.281,-23.6478 z
M 248.896,-23.7934 L 248.121,-24.107 L 191.08,-54.4691 L 190.608,-54.7639 L 189.987,-55.3235 L 189.495,-56
 L 189.155,-56.7639 L 188.981,-57.5819 L 188.981,-58.4181 L 189.155,-59.2361 L 189.495,-60 L 189.987,-60.6765
 L 190.608,-61.2361 L 191.333,-61.6542 L 192.128,-61.9126 L 192.96,-62 L 250,-62 L 251.236,-61.8042
 L 252,-61.4641 L 252.677,-60.9726 L 253.236,-60.3511 L 253.654,-59.627 L 253.913,-58.8316 L 254,-58
 L 254,-27.638 L 253.939,-26.9416 L 253.708,-26.1379 L 253.315,-25.3997 L 252.777,-24.7594 L 252.118,-24.2448
 L 251.366,-23.8786 L 250.555,-23.6767 L 249.719,-23.6478 z
M 403.195,-23.6767 L 402.384,-23.8786 L 401.632,-24.2448 L 400.973,-24.7594 L 400.435,-25.3997 L 400.042,-26.1379
 L 399.811,-26.9416 L 399.75,-27.638 L 399.75,-58 L 399.837,-58.8316 L 400.096,-59.627 L 400.514,-60.3511
 L 401.073,-60.9726 L 401.75,-61.4641 L 402.514,-61.8042 L 403.75,-62 L 460.79,-62 L 461.622,-61.9126
 L 462.417,-61.6542 L 463.142,-61.2361 L 463.763,-60.6765 L 464.255,-60 L 464.595,-59.2361 L 464.769,-58.4181
 L 464.769,-57.5819 L 464.595,-56.7639 L 464.255,-56 L 463.763,-55.3235 L 463.142,-54.7639 L 462.67,-54.4691
 L 405.629,-24.107 L 404.854,-23.7934 L 404.031,-23.6478 z
M 121.146,-23.7934 L 120.371,-24.107 L 63.3301,-54.4691 L 62.8584,-54.7639 L 62.237,-55.3235 L 61.7455,-56
 L 61.4053,-56.7639 L 61.2315,-57.5819 L 61.2315,-58.4181 L 61.4053,-59.2361 L 61.7455,-60 L 62.237,-60.6765
 L 62.8584,-61.2361 L 63.5826,-61.6542 L 64.3779,-61.9126 L 65.2096,-62 L 122.25,-62 L 123.486,-61.8042
 L 124.25,-61.4641 L 124.927,-60.9726 L 125.486,-60.3511 L 125.904,-59.627 L 126.163,-58.8316 L 126.25,-58
 L 126.25,-27.638 L 126.189,-26.9416 L 125.958,-26.1379 L 125.565,-25.3997 L 125.027,-24.7594 L 124.368,-24.2448
 L 123.616,-23.8786 L 122.805,-23.6767 L 121.969,-23.6478 z
M 320.71,-18 L 319.878,-18.0874 L 319.083,-18.3458 L 318.358,-18.7639 L 317.737,-19.3235 L 317.245,-20
 L 316.905,-20.7639 L 316.731,-21.5819 L 316.731,-22.4181 L 316.905,-23.2361 L 317.245,-24 L 317.737,-24.6765
 L 318.358,-25.2361 L 318.83,-25.5309 L 375.871,-55.893 L 376.646,-56.2066 L 377.469,-56.3522 L 378.305,-56.3233
 L 379.116,-56.1214 L 379.868,-55.7552 L 380.527,-55.2406 L 381.065,-54.6003 L 381.458,-53.8621 L 381.689,-53.0584
 L 381.75,-52.362 L 381.75,-22 L 381.663,-21.1684 L 381.404,-20.373 L 380.986,-19.6489 L 380.427,-19.0274
 L 379.75,-18.5359 L 378.986,-18.1958 L 377.75,-18 z
M 148.25,-18 L 147.014,-18.1958 L 146.25,-18.5359 L 145.573,-19.0274 L 145.014,-19.6489 L 144.596,-20.373
 L 144.337,-21.1684 L 144.25,-22 L 144.25,-52.362 L 144.311,-53.0584 L 144.542,-53.8621 L 144.935,-54.6003
 L 145.473,-55.2406 L 146.132,-55.7552 L 146.884,-56.1214 L 147.695,-56.3233 L 148.531,-56.3522 L 149.354,-56.2066
 L 150.129,-55.893 L 207.17,-25.5309 L 207.642,-25.2361 L 208.263,-24.6765 L 208.755,-24 L 209.095,-23.2361
 L 209.269,-22.4181 L 209.269,-21.5819 L 209.095,-20.7639 L 208.755,-20 L 208.263,-19.3235 L 207.642,-18.7639
 L 206.917,-18.3458 L 206.122,-18.0874 L 205.29,-18 z
M 22,-18 L 20.7639,-18.1958 L 20,-18.5359 L 19.3235,-19.0274 L 18.7639,-19.6489 L 18.3458,-20.373
 L 18.0874,-21.1684 L 18,-22 L 18,-51.5636 L 18.0611,-52.26 L 18.2919,-53.0637 L 18.6849,-53.8018
 L 19.2227,-54.4422 L 19.8819,-54.9567 L 20.6336,-55.323 L 21.4451,-55.5249 L 22.2808,-55.5537 L 23.1043,-55.4081
 L 23.8795,-55.0945 L 79.4199,-25.5309 L 79.8916,-25.2361 L 80.513,-24.6765 L 81.0045,-24 L 81.3447,-23.2361
 L 81.5185,-22.4181 L 81.5185,-21.5819 L 81.3447,-20.7639 L 81.0045,-20 L 80.513,-19.3235 L 79.8916,-18.7639
 L 79.1674,-18.3458 L 78.3721,-18.0874 L 77.5404,-18 z
M 448.46,-18 L 447.628,-18.0874 L 446.833,-18.3458 L 446.108,-18.7639 L 445.487,-19.3235 L 444.995,-20
 L 444.655,-20.7639 L 444.481,-21.5819 L 444.481,-22.4181 L 444.655,-23.2361 L 444.995,-24 L 445.487,-24.6765
 L 446.108,-25.2361 L 446.58,-25.5309 L 502.121,-55.0945 L 502.896,-55.4081 L 503.719,-55.5537 L 504.555,-55.5249
 L 505.366,-55.323 L 506.118,-54.9567 L 506.777,-54.4422 L 507.315,-53.8018 L 507.708,-53.0637 L 507.939,-52.26
 L 508,-51.5636 L 508,-22 L 507.913,-21.1684 L 507.654,-20.373 L 507.236,-19.6489 L 506.677,-19.0274
 L 506,-18.5359 L 505.236,-18.1958 L 504,-18 z
" stroke="black" fill="lightgray" stroke-width="0.5"/>
</svg>
