<?xml version="1.0" standalone="no"?>
<!DOCTYPE svg PUBLIC "-//W3C//DTD SVG 1.1//EN" "http://www.w3.org/Graphics/SVG/1.1/DTD/svg11.dtd">
<svg width="510mm" height="80mm" viewBox="0 -80 510 80" xmlns="http://www.w3.org/2000/svg" version="1.1">
<title>OpenSCAD Model</title>
<path d="
M 510,-80 L 0,-80 L 0,-0 L 4.95,-0 L 4.95,-6 L 5.00572,-6.53017
 L 5.17046,-7.03717 L 5.437,-7.49884 L 5.79372,-7.895 L 6.22499,-8.20836 L 6.71201,-8.42519 L 7.23344,-8.53603
 L 7.76654,-8.53603 L 8.28798,-8.42519 L 8.77499,-8.20836 L 9.20627,-7.895 L 9.56299,-7.49884 L 9.82953,-7.03717
 L 9.99426,-6.53017 L 10.05,-6 L 10.05,-0 L 128.7,-0 L 128.7,-6 L 128.756,-6.53017
 L 128.92,-7.03717 L 129.187,-7.49884 L 129.544,-7.895 L 129.975,-8.20836 L 130.462,-8.42519 L 130.983,-8.53603
 L 131.517,-8.53603 L 132.038,-8.42519 L 132.525,-8.20836 L 132.956,-7.895 L 133.313,-7.49884 L 133.58,-7.03717
 L 133.744,-6.53017 L 133.8,-6 L 133.8,-0 L 252.45,-0 L 252.45,-6 L 252.506,-6.53017
 L 252.67,-7.03717 L 252.937,-7.49884 L 253.294,-7.895 L 253.725,-8.20836 L 254.212,-8.42519 L 254.733,-8.53603
 L 255.267,-8.53603 L 255.788,-8.42519 L 256.275,-8.20836 L 256.706,-7.895 L 257.063,-7.49884 L 257.33,-7.03717
 L 257.494,-6.53017 L 257.55,-6 L 257.55,-0 L 376.2,-0 L 376.2,-6 L 376.256,-6.53017
 L 376.42,-7.03717 L 376.687,-7.49884 L 377.044,-7.895 L 377.475,-8.20836 L 377.962,-8.42519 L 378.483,-8.53603
 L 379.017,-8.53603 L 379.538,-8.42519 L 380.025,-8.20836 L 380.456,-7.895 L 380.813,-7.49884 L 381.08,-7.03717
 L 381.244,-6.53017 L 381.3,-6 L 381.3,-0 L 499.95,-0 L 499.95,-6 L 500.006,-6.53017
 L 500.17,-7.03717 L 500.437,-7.49884 L 500.794,-7.895 L 501.225,-8.20836 L 501.712,-8.42519 L 502.233,-8.53603
 L 502.767,-8.53603 L 503.288,-8.42519 L 503.775,-8.20836 L 504.206,-7.895 L 504.563,-7.49884 L 504.83,-7.03717
 L 504.994,-6.53017 L 505.05,-6 L 505.05,-0 L 510,-0 z
M 6.98573,-55.607 L 6.47708,-55.6875 L 5.97964,-55.8208 L 5.49887,-56.0054 L 5.04001,-56.2392 L 4.60811,-56.5196
 L 4.20789,-56.8437 L 3.84373,-57.2079 L 3.51964,-57.6081 L 3.23917,-58.04 L 3.00537,-58.4989 L 2.82082,-58.9796
 L 2.68752,-59.4771 L 2.60696,-59.9857 L 2.58,-60.5 L 2.60696,-61.0143 L 2.68752,-61.5229 L 2.82082,-62.0204
 L 3.00537,-62.5011 L 3.23917,-62.96 L 3.51964,-63.3919 L 3.84373,-63.7921 L 4.20789,-64.1563 L 4.60811,-64.4804
 L 4.95001,-64.7024 L 4.95001,-74 L 5.00574,-74.5302 L 5.17047,-75.0372 L 5.43701,-75.4988 L 5.79373,-75.895
 L 6.22501,-76.2084 L 6.71202,-76.4252 L 7.23346,-76.536 L 7.76654,-76.536 L 8.28798,-76.4252 L 8.77499,-76.2084
 L 9.20627,-75.895 L 9.56299,-75.4988 L 9.82953,-75.0372 L 9.99426,-74.5302 L 10.05,-74 L 10.05,-64.7024
 L 10.3919,-64.4804 L 10.7921,-64.1563 L 11.1563,-63.7921 L 11.4804,-63.3919 L 11.7608,-62.96 L 11.9946,-62.5011
 L 12.1792,-62.0204 L 12.3125,-61.5229 L 12.393,-61.0143 L 12.42,-60.5 L 12.393,-59.9857 L 12.3125,-59.4771
 L 12.1792,-58.9796 L 11.9946,-58.4989 L 11.7608,-58.04 L 11.4804,-57.6081 L 11.1563,-57.2079 L 10.7921,-56.8437
 L 10.3919,-56.5196 L 9.95999,-56.2392 L 9.50113,-56.0054 L 9.02036,-55.8208 L 8.52292,-55.6875 L 8.01427,-55.607
 L 7.5,-55.58 z
M 130.736,-55.607 L 130.227,-55.6875 L 129.73,-55.8208 L 129.249,-56.0054 L 128.79,-56.2392 L 128.358,-56.5196
 L 127.958,-56.8437 L 127.594,-57.2079 L 127.27,-57.6081 L 126.989,-58.04 L 126.755,-58.4989 L 126.571,-58.9796
 L 126.438,-59.4771 L 126.357,-59.9857 L 126.33,-60.5 L 126.357,-61.0143 L 126.438,-61.5229 L 126.571,-62.0204
 L 126.755,-62.5011 L 126.989,-62.96 L 127.27,-63.3919 L 127.594,-63.7921 L 127.958,-64.1563 L 128.358,-64.4804
 L 128.7,-64.7024 L 128.7,-74 L 128.756,-74.5302 L 128.92,-75.0372 L 129.187,-75.4988 L 129.544,-75.895
 L 129.975,-76.2084 L 130.462,-76.4252 L 130.983,-76.536 L 131.517,-76.536 L 132.038,-76.4252 L 132.525,-76.2084
 L 132.956,-75.895 L 133.313,-75.4988 L 133.58,-75.0372 L 133.744,-74.5302 L 133.8,-74 L 133.8,-64.7024
 L 134.142,-64.4804 L 134.542,-64.1563 L 134.906,-63.7921 L 135.23,-63.3919 L 135.511,-62.96 L 135.745,-62.5011
 L 135.929,-62.0204 L 136.062,-61.5229 L 136.143,-61.0143 L 136.17,-60.5 L 136.143,-59.9857 L 136.062,-59.4771
 L 135.929,-58.9796 L 135.745,-58.4989 L 135.511,-58.04 L 135.23,-57.6081 L 134.906,-57.2079 L 134.542,-56.8437
 L 134.142,-56.5196 L 133.71,-56.2392 L 133.251,-56.0054 L 132.77,-55.8208 L 132.273,-55.6875 L 131.764,-55.607
 L 131.25,-55.58 z
M 254.486,-55.607 L 253.977,-55.6875 L 253.48,-55.8208 L 252.999,-56.0054 L 252.54,-56.2392 L 252.108,-56.5196
 L 251.708,-56.8437 L 251.344,-57.2079 L 251.02,-57.6081 L 250.739,-58.04 L 250.505,-58.4989 L 250.321,-58.9796
 L 250.188,-59.4771 L 250.107,-59.9857 L 250.08,-60.5 L 250.107,-61.0143 L 250.188,-61.5229 L 250.321,-62.0204
 L 250.505,-62.5011 L 250.739,-62.96 L 251.02,-63.3919 L 251.344,-63.7921 L 251.708,-64.1563 L 252.108,-64.4804
 L 252.45,-64.7024 L 252.45,-74 L 252.506,-74.5302 L 252.67,-75.0372 L 252.937,-75.4988 L 253.294,-75.895
 L 253.725,-76.2084 L 254.212,-76.4252 L 254.733,-76.536 L 255.267,-76.536 L 255.788,-76.4252 L 256.275,-76.2084
 L 256.706,-75.895 L 257.063,-75.4988 L 257.33,-75.0372 L 257.494,-74.5302 L 257.55,-74 L 257.55,-64.7024
 L 257.892,-64.4804 L 258.292,-64.1563 L 258.656,-63.7921 L 258.98,-63.3919 L 259.261,-62.96 L 259.495,-62.5011
 L 259.679,-62.0204 L 259.812,-61.5229 L 259.893,-61.0143 L 259.92,-60.5 L 259.893,-59.9857 L 259.812,-59.4771
 L 259.679,-58.9796 L 259.495,-58.4989 L 259.261,-58.04 L 258.98,-57.6081 L 258.656,-57.2079 L 258.292,-56.8437
 L 257.892,-56.5196 L 257.46,-56.2392 L 257.001,-56.0054 L 256.52,-55.8208 L 256.023,-55.6875 L 255.514,-55.607
 L 255,-55.58 z
M 378.236,-55.607 L 377.727,-55.6875 L 377.23,-55.8208 L 376.749,-56.0054 L 376.29,-56.2392 L 375.858,-56.5196
 L 375.458,-56.8437 L 375.094,-57.2079 L 374.77,-57.6081 L 374.489,-58.04 L 374.255,-58.4989 L 374.071,-58.9796
 L 373.938,-59.4771 L 373.857,-59.9857 L 373.83,-60.5 L 373.857,-61.0143 L 373.938,-61.5229 L 374.071,-62.0204
 L 374.255,-62.5011 L 374.489,-62.96 L 374.77,-63.3919 L 375.094,-63.7921 L 375.458,-64.1563 L 375.858,-64.4804
 L 376.2,-64.7024 L 376.2,-74 L 376.256,-74.5302 L 376.42,-75.0372 L 376.687,-75.4988 L 377.044,-75.895
 L 377.475,-76.2084 L 377.962,-76.4252 L 378.483,-76.536 L 379.017,-76.536 L 379.538,-76.4252 L 380.025,-76.2084
 L 380.456,-75.895 L 380.813,-75.4988 L 381.08,-75.0372 L 381.244,-74.5302 L 381.3,-74 L 381.3,-64.7024
 L 381.642,-64.4804 L 382.042,-64.1563 L 382.406,-63.7921 L 382.73,-63.3919 L 383.011,-62.96 L 383.245,-62.5011
 L 383.429,-62.0204 L 383.562,-61.5229 L 383.643,-61.0143 L 383.67,-60.5 L 383.643,-59.9857 L 383.562,-59.4771
 L 383.429,-58.9796 L 383.245,-58.4989 L 383.011,-58.04 L 382.73,-57.6081 L 382.406,-57.2079 L 382.042,-56.8437
 L 381.642,-56.5196 L 381.21,-56.2392 L 380.751,-56.0054 L 380.27,-55.8208 L 379.773,-55.6875 L 379.264,-55.607
 L 378.75,-55.58 z
M 501.986,-55.607 L 501.477,-55.6875 L 500.98,-55.8208 L 500.499,-56.0054 L 500.04,-56.2392 L 499.608,-56.5196
 L 499.208,-56.8437 L 498.844,-57.2079 L 498.52,-57.6081 L 498.239,-58.04 L 498.005,-58.4989 L 497.821,-58.9796
 L 497.688,-59.4771 L 497.607,-59.9857 L 497.58,-60.5 L 497.607,-61.0143 L 497.688,-61.5229 L 497.821,-62.0204
 L 498.005,-62.5011 L 498.239,-62.96 L 498.52,-63.3919 L 498.844,-63.7921 L 499.208,-64.1563 L 499.608,-64.4804
 L 499.95,-64.7024 L 499.95,-74 L 500.006,-74.5302 L 500.17,-75.0372 L 500.437,-75.4988 L 500.794,-75.895
 L 501.225,-76.2084 L 501.712,-76.4252 L 502.233,-76.536 L 502.767,-76.536 L 503.288,-76.4252 L 503.775,-76.2084
 L 504.206,-75.895 L 504.563,-75.4988 L 504.83,-75.0372 L 504.994,-74.5302 L 505.05,-74 L 505.05,-64.7024
 L 505.392,-64.4804 L 505.792,-64.1563 L 506.156,-63.7921 L 506.48,-63.3919 L 506.761,-62.96 L 506.995,-62.5011
 L 507.179,-62.0204 L 507.312,-61.5229 L 507.393,-61.0143 L 507.42,-60.5 L 507.393,-59.9857 L 507.312,-59.4771
 L 507.179,-58.9796 L 506.995,-58.4989 L 506.761,-58.04 L 506.48,-57.6081 L 506.156,-57.2079 L 505.792,-56.8437
 L 505.392,-56.5196 L 504.96,-56.2392 L 504.501,-56.0054 L 504.02,-55.8208 L 503.523,-55.6875 L 503.014,-55.607
 L 502.5,-55.58 z
M 267.498,-24.0051 L 266.684,-24.1962 L 265.927,-24.5524 L 265.261,-25.0581 L 264.715,-25.6913 L 264.312,-26.4241
 L 264.071,-27.2247 L 264,-27.9735 L 264,-58 L 264.087,-58.8316 L 264.346,-59.627 L 264.764,-60.3511
 L 265.323,-60.9726 L 266,-61.4641 L 266.764,-61.8042 L 268,-62 L 322.644,-62 L 323.476,-61.9126
 L 324.271,-61.6542 L 324.995,-61.2361 L 325.616,-60.6765 L 326.108,-60 L 326.448,-59.2361 L 326.622,-58.4181
 L 326.622,-57.5819 L 326.448,-56.7639 L 326.108,-56 L 325.616,-55.3235 L 324.995,-54.7639 L 324.57,-54.4944
 L 269.926,-24.4678 L 269.155,-24.144 L 268.334,-23.9874 z
M 240.845,-24.144 L 240.074,-24.4678 L 185.43,-54.4944 L 185.005,-54.7639 L 184.384,-55.3235 L 183.892,-56
 L 183.552,-56.7639 L 183.378,-57.5819 L 183.378,-58.4181 L 183.552,-59.2361 L 183.892,-60 L 184.384,-60.6765
 L 185.005,-61.2361 L 185.729,-61.6542 L 186.524,-61.9126 L 187.356,-62 L 242,-62 L 243.236,-61.8042
 L 244,-61.4641 L 244.677,-60.9726 L 245.236,-60.3511 L 245.654,-59.627 L 245.913,-58.8316 L 246,-58
 L 246,-27.9735 L 245.929,-27.2247 L 245.688,-26.4241 L 245.285,-25.6913 L 244.739,-25.0581 L 244.073,-24.5524
 L 243.316,-24.1962 L 242.502,-24.0051 L 241.666,-23.9874 z
M 391.248,-24.0051 L 390.434,-24.1962 L 389.677,-24.5524 L 389.011,-25.0581 L 388.465,-25.6913 L 388.062,-26.4241
 L 387.821,-27.2247 L 387.75,-27.9735 L 387.75,-58 L 387.837,-58.8316 L 388.096,-59.627 L 388.514,-60.3511
 L 389.073,-60.9726 L 389.75,-61.4641 L 390.514,-61.8042 L 391.75,-62 L 446.394,-62 L 447.226,-61.9126
 L 448.021,-61.6542 L 448.745,-61.2361 L 449.366,-60.6765 L 449.858,-60 L 450.198,-59.2361 L 450.372,-58.4181
 L 450.372,-57.5819 L 450.198,-56.7639 L 449.858,-56 L 449.366,-55.3235 L 448.745,-54.7639 L 448.32,-54.4944
 L 393.676,-24.4678 L 392.905,-24.144 L 392.084,-23.9874 z
M 117.095,-24.144 L 116.324,-24.4678 L 61.6798,-54.4944 L 61.255,-54.7639 L 60.6335,-55.3235 L 60.142,-56
 L 59.8019,-56.7639 L 59.628,-57.5819 L 59.628,-58.4181 L 59.8019,-59.2361 L 60.142,-60 L 60.6335,-60.6765
 L 61.255,-61.2361 L 61.9792,-61.6542 L 62.7745,-61.9126 L 63.6061,-62 L 118.25,-62 L 119.486,-61.8042
 L 120.25,-61.4641 L 120.927,-60.9726 L 121.486,-60.3511 L 121.904,-59.627 L 122.163,-58.8316 L 122.25,-58
 L 122.25,-27.9735 L 122.179,-27.2247 L 121.938,-26.4241 L 121.535,-25.6913 L 120.989,-25.0581 L 120.323,-24.5524
 L 119.566,-24.1962 L 118.752,-24.0051 L 117.916,-23.9874 z
M 311.106,-18 L 310.274,-18.0874 L 309.479,-18.3458 L 308.755,-18.7639 L 308.134,-19.3235 L 307.642,-20
 L 307.302,-20.7639 L 307.128,-21.5819 L 307.128,-22.4181 L 307.302,-23.2361 L 307.642,-24 L 308.134,-24.6765
 L 308.755,-25.2361 L 309.18,-25.5056 L 363.824,-55.5321 L 364.595,-55.856 L 365.416,-56.0126 L 366.252,-55.9949
 L 367.066,-55.8038 L 367.823,-55.4476 L 368.489,-54.9418 L 369.035,-54.3087 L 369.438,-53.5759 L 369.679,-52.7753
 L 369.75,-52.0265 L 369.75,-22 L 369.663,-21.1684 L 369.404,-20.373 L 368.986,-19.6489 L 368.427,-19.0274
 L 367.75,-18.5359 L 366.986,-18.1958 L 365.75,-18 z
M 144.25,-18 L 143.014,-18.1958 L 142.25,-18.5359 L 141.573,-19.0274 L 141.014,-19.6489 L 140.596,-20.373
 L 140.337,-21.1684 L 140.25,-22 L 140.25,-52.0265 L 140.321,-52.7753 L 140.562,-53.5759 L 140.965,-54.3087
 L 141.511,-54.9418 L 142.177,-55.4476 L 142.934,-55.8038 L 143.748,-55.9949 L 144.584,-56.0126 L 145.405,-55.856
 L 146.176,-55.5321 L 200.82,-25.5056 L 201.245,-25.2361 L 201.866,-24.6765 L 202.358,-24 L 202.698,-23.2361
 L 202.872,-22.4181 L 202.872,-21.5819 L 202.698,-20.7639 L 202.358,-20 L 201.866,-19.3235 L 201.245,-18.7639
 L 200.521,-18.3458 L 199.726,-18.0874 L 198.894,-18 z
M 22,-18 L 20.7639,-18.1958 L 20,-18.5359 L 19.3235,-19.0274 L 18.7639,-19.6489 L 18.3458,-20.373
 L 18.0874,-21.1684 L 18,-22 L 18,-51.2023 L 18.0707,-51.951 L 18.3122,-52.7516 L 18.715,-53.4845
 L 19.2612,-54.1176 L 19.9272,-54.6233 L 20.6838,-54.9795 L 21.4979,-55.1706 L 22.3339,-55.1883 L 23.1554,-55.0318
 L 23.9263,-54.7079 L 77.0702,-25.5056 L 77.495,-25.2361 L 78.1164,-24.6765 L 78.608,-24 L 78.9481,-23.2361
 L 79.1219,-22.4181 L 79.1219,-21.5819 L 78.9481,-20.7639 L 78.608,-20 L 78.1164,-19.3235 L 77.495,-18.7639
 L 76.7708,-18.3458 L 75.9755,-18.0874 L 75.1439,-18 z
M 434.856,-18 L 434.024,-18.0874 L 433.229,-18.3458 L 432.505,-18.7639 L 431.884,-19.3235 L 431.392,-20
 L 431.052,-20.7639 L 430.878,-21.5819 L 430.878,-22.4181 L 431.052,-23.2361 L 431.392,-24 L 431.884,-24.6765
 L 432.505,-25.2361 L 432.93,-25.5056 L 486.074,-54.7079 L 486.845,-55.0318 L 487.666,-55.1883 L 488.502,-55.1706
 L 489.316,-54.9795 L 490.073,-54.6233 L 490.739,-54.1176 L 491.285,-53.4845 L 491.688,-52.7516 L 491.929,-51.951
 L 492,-51.2023 L 492,-22 L 491.913,-21.1684 L 491.654,-20.373 L 491.236,-19.6489 L 490.677,-19.0274
 L 490,-18.5359 L 489.236,-18.1958 L 488,-18 z
" stroke="black" fill="lightgray" stroke-width="0.5"/>
</svg>
