<?xml version="1.0" standalone="no"?>
<!DOCTYPE svg PUBLIC "-//W3C//DTD SVG 1.1//EN" "http://www.w3.org/Graphics/SVG/1.1/DTD/svg11.dtd">
<svg width="676mm" height="80mm" viewBox="0 -80 676 80" xmlns="http://www.w3.org/2000/svg" version="1.1">
<title>OpenSCAD Model</title>
<path d="
M 676,-80 L 0,-80 L 0,-0 L 4.95,-0 L 4.95,-6 L 5.00572,-6.53017
 L 5.17046,-7.03717 L 5.437,-7.49884 L 5.79372,-7.895 L 6.22499,-8.20836 L 6.71201,-8.42519 L 7.23344,-8.53603
 L 7.76654,-8.53603 L 8.28798,-8.42519 L 8.77499,-8.20836 L 9.20627,-7.895 L 9.56299,-7.49884 L 9.82953,-7.03717
 L 9.99426,-6.53017 L 10.05,-6 L 10.05,-0 L 137.15,-0 L 137.15,-6 L 137.206,-6.53017
 L 137.37,-7.03717 L 137.637,-7.49884 L 137.994,-7.895 L 138.425,-8.20836 L 138.912,-8.42519 L 139.433,-8.53603
 L 139.967,-8.53603 L 140.488,-8.42519 L 140.975,-8.20836 L 141.406,-7.895 L 141.763,-7.49884 L 142.03,-7.03717
 L 142.194,-6.53017 L 142.25,-6 L 142.25,-0 L 269.35,-0 L 269.35,-6 L 269.406,-6.53017
 L 269.57,-7.03717 L 269.837,-7.49884 L 270.194,-7.895 L 270.625,-8.20836 L 271.112,-8.42519 L 271.633,-8.53603
 L 272.167,-8.53603 L 272.688,-8.42519 L 273.175,-8.20836 L 273.606,-7.895 L 273.963,-7.49884 L 274.23,-7.03717
 L 274.394,-6.53017 L 274.45,-6 L 274.45,-0 L 401.55,-0 L 401.55,-6 L 401.606,-6.53017
 L 401.77,-7.03717 L 402.037,-7.49884 L 402.394,-7.895 L 402.825,-8.20836 L 403.312,-8.42519 L 403.833,-8.53603
 L 404.367,-8.53603 L 404.888,-8.42519 L 405.375,-8.20836 L 405.806,-7.895 L 406.163,-7.49884 L 406.43,-7.03717
 L 406.594,-6.53017 L 406.65,-6 L 406.65,-0 L 533.75,-0 L 533.75,-6 L 533.806,-6.53017
 L 533.97,-7.03717 L 534.237,-7.49884 L 534.594,-7.895 L 535.025,-8.20836 L 535.512,-8.42519 L 536.033,-8.53603
 L 536.567,-8.53603 L 537.088,-8.42519 L 537.575,-8.20836 L 538.006,-7.895 L 538.363,-7.49884 L 538.63,-7.03717
 L 538.794,-6.53017 L 538.85,-6 L 538.85,-0 L 665.95,-0 L 665.95,-6 L 666.006,-6.53017
 L 666.17,-7.03717 L 666.437,-7.49884 L 666.794,-7.895 L 667.225,-8.20836 L 667.712,-8.42519 L 668.233,-8.53603
 L 668.767,-8.53603 L 669.288,-8.42519 L 669.775,-8.20836 L 670.206,-7.895 L 670.563,-7.49884 L 670.83,-7.03717
 L 670.994,-6.53017 L 671.05,-6 L 671.05,-0 L 676,-0 z
M 6.98573,-55.607 L 6.47708,-55.6875 L 5.97964,-55.8208 L 5.49887,-56.0054 L 5.04001,-56.2392 L 4.60811,-56.5196
 L 4.20789,-56.8437 L 3.84373,-57.2079 L 3.51964,-57.6081 L 3.23917,-58.04 L 3.00537,-58.4989 L 2.82082,-58.9796
 L 2.68752,-59.4771 L 2.60696,-59.9857 L 2.58,-60.5 L 2.60696,-61.0143 L 2.68752,-61.5229 L 2.82082,-62.0204
 L 3.00537,-62.5011 L 3.23917,-62.96 L 3.51964,-63.3919 L 3.84373,-63.7921 L 4.20789,-64.1563 L 4.60811,-64.4804
 L 4.95001,-64.7024 L 4.95001,-74 L 5.00574,-74.5302 L 5.17047,-75.0372 L 5.43701,-75.4988 L 5.79373,-75.895
 L 6.22501,-76.2084 L 6.71202,-76.4252 L 7.23346,-76.536 L 7.76654,-76.536 L 8.28798,-76.4252 L 8.77499,-76.2084
 L 9.20627,-75.895 L 9.56299,-75.4988 L 9.82953,-75.0372 L 9.99426,-74.5302 L 10.05,-74 L 10.05,-64.7024
 L 10.3919,-64.4804 L 10.7921,-64.1563 L 11.1563,-63.7921 L 11.4804,-63.3919 L 11.7608,-62.96 L 11.9946,-62.5011
 L 12.1792,-62.0204 L 12.3125,-61.5229 L 12.393,-61.0143 L 12.42,-60.5 L 12.393,-59.9857 L 12.3125,-59.4771
 L 12.1792,-58.9796 L 11.9946,-58.4989 L 11.7608,-58.04 L 11.4804,-57.6081 L 11.1563,-57.2079 L 10.7921,-56.8437
 L 10.3919,-56.5196 L 9.95999,-56.2392 L 9.50113,-56.0054 L 9.02036,-55.8208 L 8.52292,-55.6875 L 8.01427,-55.607
 L 7.5,-55.58 z
M 139.186,-55.607 L 138.677,-55.6875 L 138.18,-55.8208 L 137.699,-56.0054 L 137.24,-56.2392 L 136.808,-56.5196
 L 136.408,-56.8437 L 136.044,-57.2079 L 135.72,-57.6081 L 135.439,-58.04 L 135.205,-58.4989 L 135.021,-58.9796
 L 134.888,-59.4771 L 134.807,-59.9857 L 134.78,-60.5 L 134.807,-61.0143 L 134.888,-61.5229 L 135.021,-62.0204
 L 135.205,-62.5011 L 135.439,-62.96 L 135.72,-63.3919 L 136.044,-63.7921 L 136.408,-64.1563 L 136.808,-64.4804
 L 137.15,-64.7024 L 137.15,-74 L 137.206,-74.5302 L 137.37,-75.0372 L 137.637,-75.4988 L 137.994,-75.895
 L 138.425,-76.2084 L 138.912,-76.4252 L 139.433,-76.536 L 139.967,-76.536 L 140.488,-76.4252 L 140.975,-76.2084
 L 141.406,-75.895 L 141.763,-75.4988 L 142.03,-75.0372 L 142.194,-74.5302 L 142.25,-74 L 142.25,-64.7024
 L 142.592,-64.4804 L 142.992,-64.1563 L 143.356,-63.7921 L 143.68,-63.3919 L 143.961,-62.96 L 144.195,-62.5011
 L 144.379,-62.0204 L 144.512,-61.5229 L 144.593,-61.0143 L 144.62,-60.5 L 144.593,-59.9857 L 144.512,-59.4771
 L 144.379,-58.9796 L 144.195,-58.4989 L 143.961,-58.04 L 143.68,-57.6081 L 143.356,-57.2079 L 142.992,-56.8437
 L 142.592,-56.5196 L 142.16,-56.2392 L 141.701,-56.0054 L 141.22,-55.8208 L 140.723,-55.6875 L 140.214,-55.607
 L 139.7,-55.58 z
M 271.386,-55.607 L 270.877,-55.6875 L 270.38,-55.8208 L 269.899,-56.0054 L 269.44,-56.2392 L 269.008,-56.5196
 L 268.608,-56.8437 L 268.244,-57.2079 L 267.92,-57.6081 L 267.639,-58.04 L 267.405,-58.4989 L 267.221,-58.9796
 L 267.088,-59.4771 L 267.007,-59.9857 L 266.98,-60.5 L 267.007,-61.0143 L 267.088,-61.5229 L 267.221,-62.0204
 L 267.405,-62.5011 L 267.639,-62.96 L 267.92,-63.3919 L 268.244,-63.7921 L 268.608,-64.1563 L 269.008,-64.4804
 L 269.35,-64.7024 L 269.35,-74 L 269.406,-74.5302 L 269.57,-75.0372 L 269.837,-75.4988 L 270.194,-75.895
 L 270.625,-76.2084 L 271.112,-76.4252 L 271.633,-76.536 L 272.167,-76.536 L 272.688,-76.4252 L 273.175,-76.2084
 L 273.606,-75.895 L 273.963,-75.4988 L 274.23,-75.0372 L 274.394,-74.5302 L 274.45,-74 L 274.45,-64.7024
 L 274.792,-64.4804 L 275.192,-64.1563 L 275.556,-63.7921 L 275.88,-63.3919 L 276.161,-62.96 L 276.395,-62.5011
 L 276.579,-62.0204 L 276.712,-61.5229 L 276.793,-61.0143 L 276.82,-60.5 L 276.793,-59.9857 L 276.712,-59.4771
 L 276.579,-58.9796 L 276.395,-58.4989 L 276.161,-58.04 L 275.88,-57.6081 L 275.556,-57.2079 L 275.192,-56.8437
 L 274.792,-56.5196 L 274.36,-56.2392 L 273.901,-56.0054 L 273.42,-55.8208 L 272.923,-55.6875 L 272.414,-55.607
 L 271.9,-55.58 z
M 403.586,-55.607 L 403.077,-55.6875 L 402.58,-55.8208 L 402.099,-56.0054 L 401.64,-56.2392 L 401.208,-56.5196
 L 400.808,-56.8437 L 400.444,-57.2079 L 400.12,-57.6081 L 399.839,-58.04 L 399.605,-58.4989 L 399.421,-58.9796
 L 399.288,-59.4771 L 399.207,-59.9857 L 399.18,-60.5 L 399.207,-61.0143 L 399.288,-61.5229 L 399.421,-62.0204
 L 399.605,-62.5011 L 399.839,-62.96 L 400.12,-63.3919 L 400.444,-63.7921 L 400.808,-64.1563 L 401.208,-64.4804
 L 401.55,-64.7024 L 401.55,-74 L 401.606,-74.5302 L 401.77,-75.0372 L 402.037,-75.4988 L 402.394,-75.895
 L 402.825,-76.2084 L 403.312,-76.4252 L 403.833,-76.536 L 404.367,-76.536 L 404.888,-76.4252 L 405.375,-76.2084
 L 405.806,-75.895 L 406.163,-75.4988 L 406.43,-75.0372 L 406.594,-74.5302 L 406.65,-74 L 406.65,-64.7024
 L 406.992,-64.4804 L 407.392,-64.1563 L 407.756,-63.7921 L 408.08,-63.3919 L 408.361,-62.96 L 408.595,-62.5011
 L 408.779,-62.0204 L 408.912,-61.5229 L 408.993,-61.0143 L 409.02,-60.5 L 408.993,-59.9857 L 408.912,-59.4771
 L 408.779,-58.9796 L 408.595,-58.4989 L 408.361,-58.04 L 408.08,-57.6081 L 407.756,-57.2079 L 407.392,-56.8437
 L 406.992,-56.5196 L 406.56,-56.2392 L 406.101,-56.0054 L 405.62,-55.8208 L 405.123,-55.6875 L 404.614,-55.607
 L 404.1,-55.58 z
M 535.786,-55.607 L 535.277,-55.6875 L 534.78,-55.8208 L 534.299,-56.0054 L 533.84,-56.2392 L 533.408,-56.5196
 L 533.008,-56.8437 L 532.644,-57.2079 L 532.32,-57.6081 L 532.039,-58.04 L 531.805,-58.4989 L 531.621,-58.9796
 L 531.488,-59.4771 L 531.407,-59.9857 L 531.38,-60.5 L 531.407,-61.0143 L 531.488,-61.5229 L 531.621,-62.0204
 L 531.805,-62.5011 L 532.039,-62.96 L 532.32,-63.3919 L 532.644,-63.7921 L 533.008,-64.1563 L 533.408,-64.4804
 L 533.75,-64.7024 L 533.75,-74 L 533.806,-74.5302 L 533.97,-75.0372 L 534.237,-75.4988 L 534.594,-75.895
 L 535.025,-76.2084 L 535.512,-76.4252 L 536.033,-76.536 L 536.567,-76.536 L 537.088,-76.4252 L 537.575,-76.2084
 L 538.006,-75.895 L 538.363,-75.4988 L 538.63,-75.0372 L 538.794,-74.5302 L 538.85,-74 L 538.85,-64.7024
 L 539.192,-64.4804 L 539.592,-64.1563 L 539.956,-63.7921 L 540.28,-63.3919 L 540.561,-62.96 L 540.795,-62.5011
 L 540.979,-62.0204 L 541.112,-61.5229 L 541.193,-61.0143 L 541.22,-60.5 L 541.193,-59.9857 L 541.112,-59.4771
 L 540.979,-58.9796 L 540.795,-58.4989 L 540.561,-58.04 L 540.28,-57.6081 L 539.956,-57.2079 L 539.592,-56.8437
 L 539.192,-56.5196 L 538.76,-56.2392 L 538.301,-56.0054 L 537.82,-55.8208 L 537.323,-55.6875 L 536.814,-55.607
 L 536.3,-55.58 z
M 667.986,-55.607 L 667.477,-55.6875 L 666.98,-55.8208 L 666.499,-56.0054 L 666.04,-56.2392 L 665.608,-56.5196
 L 665.208,-56.8437 L 664.844,-57.2079 L 664.52,-57.6081 L 664.239,-58.04 L 664.005,-58.4989 L 663.821,-58.9796
 L 663.688,-59.4771 L 663.607,-59.9857 L 663.58,-60.5 L 663.607,-61.0143 L 663.688,-61.5229 L 663.821,-62.0204
 L 664.005,-62.5011 L 664.239,-62.96 L 664.52,-63.3919 L 664.844,-63.7921 L 665.208,-64.1563 L 665.608,-64.4804
 L 665.95,-64.7024 L 665.95,-74 L 666.006,-74.5302 L 666.17,-75.0372 L 666.437,-75.4988 L 666.794,-75.895
 L 667.225,-76.2084 L 667.712,-76.4252 L 668.233,-76.536 L 668.767,-76.536 L 669.288,-76.4252 L 669.775,-76.2084
 L 670.206,-75.895 L 670.563,-75.4988 L 670.83,-75.0372 L 670.994,-74.5302 L 671.05,-74 L 671.05,-64.7024
 L 671.392,-64.4804 L 671.792,-64.1563 L 672.156,-63.7921 L 672.48,-63.3919 L 672.761,-62.96 L 672.995,-62.5011
 L 673.179,-62.0204 L 673.312,-61.5229 L 673.393,-61.0143 L 673.42,-60.5 L 673.393,-59.9857 L 673.312,-59.4771
 L 673.179,-58.9796 L 672.995,-58.4989 L 672.761,-58.04 L 672.48,-57.6081 L 672.156,-57.2079 L 671.792,-56.8437
 L 671.392,-56.5196 L 670.96,-56.2392 L 670.501,-56.0054 L 670.02,-55.8208 L 669.523,-55.6875 L 669.014,-55.607
 L 668.5,-55.58 z
M 336.95,-48.4956 L 336.17,-48.7983 L 325.196,-54.443 L 324.675,-54.7639 L 324.053,-55.3235 L 323.562,-56
 L 323.222,-56.7639 L 323.048,-57.5819 L 323.048,-58.4181 L 323.222,-59.2361 L 323.562,-60 L 324.053,-60.6765
 L 324.675,-61.2361 L 325.399,-61.6542 L 326.194,-61.9126 L 327.026,-62 L 348.974,-62 L 349.584,-61.9531
 L 350.393,-61.7398 L 351.14,-61.363 L 351.791,-60.8393 L 352.32,-60.1914 L 352.703,-59.4478 L 352.922,-58.6409
 L 352.969,-57.806 L 352.842,-56.9796 L 352.545,-56.1977 L 352.092,-55.4947 L 351.503,-54.9011 L 350.804,-54.443
 L 339.83,-48.7983 L 339.419,-48.6155 L 338.611,-48.4022 L 337.775,-48.3616 z
M 257.85,-23.4289 L 257.07,-23.7316 L 197.364,-54.443 L 196.842,-54.7639 L 196.221,-55.3235 L 195.729,-56
 L 195.389,-56.7639 L 195.215,-57.5819 L 195.215,-58.4181 L 195.389,-59.2361 L 195.729,-60 L 196.221,-60.6765
 L 196.842,-61.2361 L 197.566,-61.6542 L 198.362,-61.9126 L 199.193,-62 L 258.9,-62 L 260.136,-61.8042
 L 260.9,-61.4641 L 261.577,-60.9726 L 262.136,-60.3511 L 262.554,-59.627 L 262.813,-58.8316 L 262.9,-58
 L 262.9,-27.2886 L 262.848,-26.6477 L 262.629,-25.8408 L 262.246,-25.0972 L 261.718,-24.4493 L 261.066,-23.9256
 L 260.319,-23.5488 L 259.511,-23.3354 L 258.675,-23.2949 z
M 548.689,-23.3354 L 547.881,-23.5488 L 547.134,-23.9256 L 546.482,-24.4493 L 545.954,-25.0972 L 545.571,-25.8408
 L 545.352,-26.6477 L 545.3,-27.2886 L 545.3,-58 L 545.387,-58.8316 L 545.646,-59.627 L 546.064,-60.3511
 L 546.623,-60.9726 L 547.3,-61.4641 L 548.064,-61.8042 L 549.3,-62 L 609.007,-62 L 609.838,-61.9126
 L 610.634,-61.6542 L 611.358,-61.2361 L 611.979,-60.6765 L 612.471,-60 L 612.811,-59.2361 L 612.985,-58.4181
 L 612.985,-57.5819 L 612.811,-56.7639 L 612.471,-56 L 611.979,-55.3235 L 611.358,-54.7639 L 610.836,-54.443
 L 551.13,-23.7316 L 550.35,-23.4289 L 549.525,-23.2949 z
M 125.65,-23.4289 L 124.87,-23.7316 L 65.1637,-54.443 L 64.6422,-54.7639 L 64.0208,-55.3235 L 63.5293,-56
 L 63.1891,-56.7639 L 63.0153,-57.5819 L 63.0153,-58.4181 L 63.1891,-59.2361 L 63.5293,-60 L 64.0208,-60.6765
 L 64.6422,-61.2361 L 65.3664,-61.6542 L 66.1617,-61.9126 L 66.9934,-62 L 126.7,-62 L 127.936,-61.8042
 L 128.7,-61.4641 L 129.377,-60.9726 L 129.936,-60.3511 L 130.354,-59.627 L 130.613,-58.8316 L 130.7,-58
 L 130.7,-27.2886 L 130.648,-26.6477 L 130.429,-25.8408 L 130.046,-25.0972 L 129.518,-24.4493 L 128.866,-23.9256
 L 128.119,-23.5488 L 127.311,-23.3354 L 126.475,-23.2949 z
M 416.489,-23.3354 L 415.681,-23.5488 L 414.934,-23.9256 L 414.282,-24.4493 L 413.754,-25.0972 L 413.371,-25.8408
 L 413.152,-26.6477 L 413.1,-27.2886 L 413.1,-58 L 413.187,-58.8316 L 413.446,-59.627 L 413.864,-60.3511
 L 414.423,-60.9726 L 415.1,-61.4641 L 415.864,-61.8042 L 417.1,-62 L 476.807,-62 L 477.638,-61.9126
 L 478.434,-61.6542 L 479.158,-61.2361 L 479.779,-60.6765 L 480.271,-60 L 480.611,-59.2361 L 480.785,-58.4181
 L 480.785,-57.5819 L 480.611,-56.7639 L 480.271,-56 L 479.779,-55.3235 L 479.158,-54.7639 L 478.636,-54.443
 L 418.93,-23.7316 L 418.15,-23.4289 L 417.325,-23.2949 z
M 284.482,-21.0641 L 283.664,-21.2379 L 282.9,-21.5781 L 282.223,-22.0696 L 281.664,-22.691 L 281.246,-23.4152
 L 280.987,-24.2105 L 280.9,-25.0422 L 280.9,-54.9578 L 280.952,-55.5987 L 281.171,-56.4056 L 281.554,-57.1492
 L 282.082,-57.7971 L 282.734,-58.3208 L 283.481,-58.6976 L 284.289,-58.9109 L 285.125,-58.9515 L 285.95,-58.8175
 L 286.73,-58.5148 L 315.809,-43.557 L 316.797,-42.8393 L 317.326,-42.1914 L 317.709,-41.4478 L 317.928,-40.6409
 L 317.975,-39.806 L 317.847,-38.9796 L 317.551,-38.1977 L 317.098,-37.4947 L 316.509,-36.9011 L 315.809,-36.443
 L 286.73,-21.4852 L 286.136,-21.2379 L 285.318,-21.0641 z
M 390.05,-21.1825 L 389.27,-21.4851 L 360.191,-36.443 L 359.203,-37.1607 L 358.674,-37.8086 L 358.291,-38.5522
 L 358.072,-39.3591 L 358.025,-40.194 L 358.153,-41.0204 L 358.449,-41.8023 L 358.902,-42.5053 L 359.491,-43.0989
 L 360.191,-43.557 L 389.27,-58.5149 L 389.864,-58.7621 L 390.682,-58.9359 L 391.518,-58.9359 L 392.336,-58.7621
 L 393.1,-58.4219 L 393.777,-57.9304 L 394.336,-57.309 L 394.754,-56.5848 L 395.013,-55.7895 L 395.1,-54.9578
 L 395.1,-25.0422 L 395.048,-24.4013 L 394.829,-23.5944 L 394.446,-22.8507 L 393.918,-22.2029 L 393.266,-21.6791
 L 392.519,-21.3024 L 391.711,-21.089 L 390.875,-21.0485 z
M 152.7,-18 L 151.464,-18.1958 L 150.7,-18.5359 L 150.023,-19.0274 L 149.464,-19.6489 L 149.046,-20.373
 L 148.787,-21.1684 L 148.7,-22 L 148.7,-52.7114 L 148.752,-53.3523 L 148.971,-54.1592 L 149.354,-54.9028
 L 149.882,-55.5507 L 150.534,-56.0744 L 151.281,-56.4512 L 152.089,-56.6645 L 152.925,-56.7051 L 153.75,-56.5711
 L 154.53,-56.2684 L 214.236,-25.557 L 214.758,-25.2361 L 215.379,-24.6765 L 215.871,-24 L 216.211,-23.2361
 L 216.385,-22.4181 L 216.385,-21.5819 L 216.211,-20.7639 L 215.871,-20 L 215.379,-19.3235 L 214.758,-18.7639
 L 214.034,-18.3458 L 213.238,-18.0874 L 212.407,-18 z
M 463.593,-18 L 462.762,-18.0874 L 461.966,-18.3458 L 461.242,-18.7639 L 460.621,-19.3235 L 460.129,-20
 L 459.789,-20.7639 L 459.615,-21.5819 L 459.615,-22.4181 L 459.789,-23.2361 L 460.129,-24 L 460.621,-24.6765
 L 461.242,-25.2361 L 461.764,-25.557 L 521.47,-56.2684 L 522.25,-56.5711 L 523.075,-56.7051 L 523.911,-56.6645
 L 524.719,-56.4512 L 525.466,-56.0744 L 526.118,-55.5507 L 526.646,-54.9028 L 527.029,-54.1592 L 527.248,-53.3523
 L 527.3,-52.7114 L 527.3,-22 L 527.213,-21.1684 L 526.954,-20.373 L 526.536,-19.6489 L 525.977,-19.0274
 L 525.3,-18.5359 L 524.536,-18.1958 L 523.3,-18 z
M 22,-18 L 20.7639,-18.1958 L 20,-18.5359 L 19.3235,-19.0274 L 18.7639,-19.6489 L 18.3458,-20.373
 L 18.0874,-21.1684 L 18,-22 L 18,-51.9398 L 18.0517,-52.5807 L 18.2712,-53.3876 L 18.6537,-54.1313
 L 19.1824,-54.7791 L 19.8343,-55.3029 L 20.5809,-55.6796 L 21.3894,-55.893 L 22.2247,-55.9335 L 23.0501,-55.7995
 L 23.8296,-55.4969 L 82.0363,-25.557 L 82.5578,-25.2361 L 83.1792,-24.6765 L 83.6707,-24 L 84.0108,-23.2361
 L 84.1847,-22.4181 L 84.1847,-21.5819 L 84.0108,-20.7639 L 83.6707,-20 L 83.1792,-19.3235 L 82.5578,-18.7639
 L 81.8336,-18.3458 L 81.0383,-18.0874 L 80.2066,-18 z
M 595.793,-18 L 594.962,-18.0874 L 594.166,-18.3458 L 593.442,-18.7639 L 592.821,-19.3235 L 592.329,-20
 L 591.989,-20.7639 L 591.815,-21.5819 L 591.815,-22.4181 L 591.989,-23.2361 L 592.329,-24 L 592.821,-24.6765
 L 593.442,-25.2361 L 593.964,-25.557 L 652.17,-55.4969 L 652.95,-55.7995 L 653.775,-55.9335 L 654.611,-55.893
 L 655.419,-55.6796 L 656.166,-55.3029 L 656.818,-54.7791 L 657.346,-54.1313 L 657.729,-53.3876 L 657.948,-52.5807
 L 658,-51.9398 L 658,-22 L 657.913,-21.1684 L 657.654,-20.373 L 657.236,-19.6489 L 656.677,-19.0274
 L 656,-18.5359 L 655.236,-18.1958 L 654,-18 z
M 327.026,-18 L 326.416,-18.0469 L 325.607,-18.2602 L 324.86,-18.637 L 324.209,-19.1607 L 323.68,-19.8086
 L 323.297,-20.5522 L 323.078,-21.3591 L 323.031,-22.194 L 323.158,-23.0204 L 323.455,-23.8023 L 323.908,-24.5053
 L 324.497,-25.0989 L 325.196,-25.557 L 336.17,-31.2017 L 336.581,-31.3845 L 337.389,-31.5978 L 338.225,-31.6384
 L 339.05,-31.5044 L 339.83,-31.2017 L 350.804,-25.557 L 351.325,-25.2361 L 351.946,-24.6765 L 352.438,-24
 L 352.778,-23.2361 L 352.952,-22.4181 L 352.952,-21.5819 L 352.778,-20.7639 L 352.438,-20 L 351.946,-19.3235
 L 351.325,-18.7639 L 350.601,-18.3458 L 349.806,-18.0874 L 348.974,-18 z
" stroke="black" fill="lightgray" stroke-width="0.5"/>
</svg>
