<?xml version="1.0" standalone="no"?>
<!DOCTYPE svg PUBLIC "-//W3C//DTD SVG 1.1//EN" "http://www.w3.org/Graphics/SVG/1.1/DTD/svg11.dtd">
<svg width="591mm" height="80mm" viewBox="0 -80 591 80" xmlns="http://www.w3.org/2000/svg" version="1.1">
<title>OpenSCAD Model</title>
<path d="
M 591,-80 L 0,-80 L 0,-0 L 4.95,-0 L 4.95,-6 L 5.00572,-6.53017
 L 5.17046,-7.03717 L 5.437,-7.49884 L 5.79372,-7.895 L 6.22499,-8.20836 L 6.71201,-8.42519 L 7.23344,-8.53603
 L 7.76654,-8.53603 L 8.28798,-8.42519 L 8.77499,-8.20836 L 9.20627,-7.895 L 9.56299,-7.49884 L 9.82953,-7.03717
 L 9.99426,-6.53017 L 10.05,-6 L 10.05,-0 L 148.95,-0 L 148.95,-6 L 149.006,-6.53017
 L 149.17,-7.03717 L 149.437,-7.49884 L 149.794,-7.895 L 150.225,-8.20836 L 150.712,-8.42519 L 151.233,-8.53603
 L 151.767,-8.53603 L 152.288,-8.42519 L 152.775,-8.20836 L 153.206,-7.895 L 153.563,-7.49884 L 153.83,-7.03717
 L 153.994,-6.53017 L 154.05,-6 L 154.05,-0 L 292.95,-0 L 292.95,-6 L 293.006,-6.53017
 L 293.17,-7.03717 L 293.437,-7.49884 L 293.794,-7.895 L 294.225,-8.20836 L 294.712,-8.42519 L 295.233,-8.53603
 L 295.767,-8.53603 L 296.288,-8.42519 L 296.775,-8.20836 L 297.206,-7.895 L 297.563,-7.49884 L 297.83,-7.03717
 L 297.994,-6.53017 L 298.05,-6 L 298.05,-0 L 436.95,-0 L 436.95,-6 L 437.006,-6.53017
 L 437.17,-7.03717 L 437.437,-7.49884 L 437.794,-7.895 L 438.225,-8.20836 L 438.712,-8.42519 L 439.233,-8.53603
 L 439.767,-8.53603 L 440.288,-8.42519 L 440.775,-8.20836 L 441.206,-7.895 L 441.563,-7.49884 L 441.83,-7.03717
 L 441.994,-6.53017 L 442.05,-6 L 442.05,-0 L 580.95,-0 L 580.95,-6 L 581.006,-6.53017
 L 581.17,-7.03717 L 581.437,-7.49884 L 581.794,-7.895 L 582.225,-8.20836 L 582.712,-8.42519 L 583.233,-8.53603
 L 583.767,-8.53603 L 584.288,-8.42519 L 584.775,-8.20836 L 585.206,-7.895 L 585.563,-7.49884 L 585.83,-7.03717
 L 585.994,-6.53017 L 586.05,-6 L 586.05,-0 L 591,-0 z
M 6.98573,-55.607 L 6.47708,-55.6875 L 5.97964,-55.8208 L 5.49887,-56.0054 L 5.04001,-56.2392 L 4.60811,-56.5196
 L 4.20789,-56.8437 L 3.84373,-57.2079 L 3.51964,-57.6081 L 3.23917,-58.04 L 3.00537,-58.4989 L 2.82082,-58.9796
 L 2.68752,-59.4771 L 2.60696,-59.9857 L 2.58,-60.5 L 2.60696,-61.0143 L 2.68752,-61.5229 L 2.82082,-62.0204
 L 3.00537,-62.5011 L 3.23917,-62.96 L 3.51964,-63.3919 L 3.84373,-63.7921 L 4.20789,-64.1563 L 4.60811,-64.4804
 L 4.95001,-64.7024 L 4.95001,-74 L 5.00574,-74.5302 L 5.17047,-75.0372 L 5.43701,-75.4988 L 5.79373,-75.895
 L 6.22501,-76.2084 L 6.71202,-76.4252 L 7.23346,-76.536 L 7.76654,-76.536 L 8.28798,-76.4252 L 8.77499,-76.2084
 L 9.20627,-75.895 L 9.56299,-75.4988 L 9.82953,-75.0372 L 9.99426,-74.5302 L 10.05,-74 L 10.05,-64.7024
 L 10.3919,-64.4804 L 10.7921,-64.1563 L 11.1563,-63.7921 L 11.4804,-63.3919 L 11.7608,-62.96 L 11.9946,-62.5011
 L 12.1792,-62.0204 L 12.3125,-61.5229 L 12.393,-61.0143 L 12.42,-60.5 L 12.393,-59.9857 L 12.3125,-59.4771
 L 12.1792,-58.9796 L 11.9946,-58.4989 L 11.7608,-58.04 L 11.4804,-57.6081 L 11.1563,-57.2079 L 10.7921,-56.8437
 L 10.3919,-56.5196 L 9.95999,-56.2392 L 9.50113,-56.0054 L 9.02036,-55.8208 L 8.52292,-55.6875 L 8.01427,-55.607
 L 7.5,-55.58 z
M 150.986,-55.607 L 150.477,-55.6875 L 149.98,-55.8208 L 149.499,-56.0054 L 149.04,-56.2392 L 148.608,-56.5196
 L 148.208,-56.8437 L 147.844,-57.2079 L 147.52,-57.6081 L 147.239,-58.04 L 147.005,-58.4989 L 146.821,-58.9796
 L 146.688,-59.4771 L 146.607,-59.9857 L 146.58,-60.5 L 146.607,-61.0143 L 146.688,-61.5229 L 146.821,-62.0204
 L 147.005,-62.5011 L 147.239,-62.96 L 147.52,-63.3919 L 147.844,-63.7921 L 148.208,-64.1563 L 148.608,-64.4804
 L 148.95,-64.7024 L 148.95,-74 L 149.006,-74.5302 L 149.17,-75.0372 L 149.437,-75.4988 L 149.794,-75.895
 L 150.225,-76.2084 L 150.712,-76.4252 L 151.233,-76.536 L 151.767,-76.536 L 152.288,-76.4252 L 152.775,-76.2084
 L 153.206,-75.895 L 153.563,-75.4988 L 153.83,-75.0372 L 153.994,-74.5302 L 154.05,-74 L 154.05,-64.7024
 L 154.392,-64.4804 L 154.792,-64.1563 L 155.156,-63.7921 L 155.48,-63.3919 L 155.761,-62.96 L 155.995,-62.5011
 L 156.179,-62.0204 L 156.312,-61.5229 L 156.393,-61.0143 L 156.42,-60.5 L 156.393,-59.9857 L 156.312,-59.4771
 L 156.179,-58.9796 L 155.995,-58.4989 L 155.761,-58.04 L 155.48,-57.6081 L 155.156,-57.2079 L 154.792,-56.8437
 L 154.392,-56.5196 L 153.96,-56.2392 L 153.501,-56.0054 L 153.02,-55.8208 L 152.523,-55.6875 L 152.014,-55.607
 L 151.5,-55.58 z
M 294.986,-55.607 L 294.477,-55.6875 L 293.98,-55.8208 L 293.499,-56.0054 L 293.04,-56.2392 L 292.608,-56.5196
 L 292.208,-56.8437 L 291.844,-57.2079 L 291.52,-57.6081 L 291.239,-58.04 L 291.005,-58.4989 L 290.821,-58.9796
 L 290.688,-59.4771 L 290.607,-59.9857 L 290.58,-60.5 L 290.607,-61.0143 L 290.688,-61.5229 L 290.821,-62.0204
 L 291.005,-62.5011 L 291.239,-62.96 L 291.52,-63.3919 L 291.844,-63.7921 L 292.208,-64.1563 L 292.608,-64.4804
 L 292.95,-64.7024 L 292.95,-74 L 293.006,-74.5302 L 293.17,-75.0372 L 293.437,-75.4988 L 293.794,-75.895
 L 294.225,-76.2084 L 294.712,-76.4252 L 295.233,-76.536 L 295.767,-76.536 L 296.288,-76.4252 L 296.775,-76.2084
 L 297.206,-75.895 L 297.563,-75.4988 L 297.83,-75.0372 L 297.994,-74.5302 L 298.05,-74 L 298.05,-64.7024
 L 298.392,-64.4804 L 298.792,-64.1563 L 299.156,-63.7921 L 299.48,-63.3919 L 299.761,-62.96 L 299.995,-62.5011
 L 300.179,-62.0204 L 300.312,-61.5229 L 300.393,-61.0143 L 300.42,-60.5 L 300.393,-59.9857 L 300.312,-59.4771
 L 300.179,-58.9796 L 299.995,-58.4989 L 299.761,-58.04 L 299.48,-57.6081 L 299.156,-57.2079 L 298.792,-56.8437
 L 298.392,-56.5196 L 297.96,-56.2392 L 297.501,-56.0054 L 297.02,-55.8208 L 296.523,-55.6875 L 296.014,-55.607
 L 295.5,-55.58 z
M 438.986,-55.607 L 438.477,-55.6875 L 437.98,-55.8208 L 437.499,-56.0054 L 437.04,-56.2392 L 436.608,-56.5196
 L 436.208,-56.8437 L 435.844,-57.2079 L 435.52,-57.6081 L 435.239,-58.04 L 435.005,-58.4989 L 434.821,-58.9796
 L 434.688,-59.4771 L 434.607,-59.9857 L 434.58,-60.5 L 434.607,-61.0143 L 434.688,-61.5229 L 434.821,-62.0204
 L 435.005,-62.5011 L 435.239,-62.96 L 435.52,-63.3919 L 435.844,-63.7921 L 436.208,-64.1563 L 436.608,-64.4804
 L 436.95,-64.7024 L 436.95,-74 L 437.006,-74.5302 L 437.17,-75.0372 L 437.437,-75.4988 L 437.794,-75.895
 L 438.225,-76.2084 L 438.712,-76.4252 L 439.233,-76.536 L 439.767,-76.536 L 440.288,-76.4252 L 440.775,-76.2084
 L 441.206,-75.895 L 441.563,-75.4988 L 441.83,-75.0372 L 441.994,-74.5302 L 442.05,-74 L 442.05,-64.7024
 L 442.392,-64.4804 L 442.792,-64.1563 L 443.156,-63.7921 L 443.48,-63.3919 L 443.761,-62.96 L 443.995,-62.5011
 L 444.179,-62.0204 L 444.312,-61.5229 L 444.393,-61.0143 L 444.42,-60.5 L 444.393,-59.9857 L 444.312,-59.4771
 L 444.179,-58.9796 L 443.995,-58.4989 L 443.761,-58.04 L 443.48,-57.6081 L 443.156,-57.2079 L 442.792,-56.8437
 L 442.392,-56.5196 L 441.96,-56.2392 L 441.501,-56.0054 L 441.02,-55.8208 L 440.523,-55.6875 L 440.014,-55.607
 L 439.5,-55.58 z
M 582.986,-55.607 L 582.477,-55.6875 L 581.98,-55.8208 L 581.499,-56.0054 L 581.04,-56.2392 L 580.608,-56.5196
 L 580.208,-56.8437 L 579.844,-57.2079 L 579.52,-57.6081 L 579.239,-58.04 L 579.005,-58.4989 L 578.821,-58.9796
 L 578.688,-59.4771 L 578.607,-59.9857 L 578.58,-60.5 L 578.607,-61.0143 L 578.688,-61.5229 L 578.821,-62.0204
 L 579.005,-62.5011 L 579.239,-62.96 L 579.52,-63.3919 L 579.844,-63.7921 L 580.208,-64.1563 L 580.608,-64.4804
 L 580.95,-64.7024 L 580.95,-74 L 581.006,-74.5302 L 581.17,-75.0372 L 581.437,-75.4988 L 581.794,-75.895
 L 582.225,-76.2084 L 582.712,-76.4252 L 583.233,-76.536 L 583.767,-76.536 L 584.288,-76.4252 L 584.775,-76.2084
 L 585.206,-75.895 L 585.563,-75.4988 L 585.83,-75.0372 L 585.994,-74.5302 L 586.05,-74 L 586.05,-64.7024
 L 586.392,-64.4804 L 586.792,-64.1563 L 587.156,-63.7921 L 587.48,-63.3919 L 587.761,-62.96 L 587.995,-62.5011
 L 588.179,-62.0204 L 588.312,-61.5229 L 588.393,-61.0143 L 588.42,-60.5 L 588.393,-59.9857 L 588.312,-59.4771
 L 588.179,-58.9796 L 587.995,-58.4989 L 587.761,-58.04 L 587.48,-57.6081 L 587.156,-57.2079 L 586.792,-56.8437
 L 586.392,-56.5196 L 585.96,-56.2392 L 585.501,-56.0054 L 585.02,-55.8208 L 584.523,-55.6875 L 584.014,-55.607
 L 583.5,-55.58 z
M 307.756,-22.5817 L 306.955,-22.8223 L 306.222,-23.2242 L 305.588,-23.7697 L 305.081,-24.4351 L 304.724,-25.1913
 L 304.532,-26.0052 L 304.5,-26.5119 L 304.5,-58 L 304.587,-58.8316 L 304.846,-59.627 L 305.264,-60.3511
 L 305.823,-60.9726 L 306.5,-61.4641 L 307.264,-61.8042 L 308.5,-62 L 375.181,-62 L 376.012,-61.9126
 L 376.808,-61.6542 L 377.532,-61.2361 L 378.153,-60.6765 L 378.645,-60 L 378.985,-59.2361 L 379.159,-58.4181
 L 379.159,-57.5819 L 378.985,-56.7639 L 378.645,-56 L 378.153,-55.3235 L 377.532,-54.7639 L 376.889,-54.383
 L 310.208,-22.8949 L 309.419,-22.6188 L 308.589,-22.5129 z
M 281.581,-22.6188 L 280.792,-22.8949 L 214.111,-54.383 L 213.468,-54.7639 L 212.847,-55.3235 L 212.355,-56
 L 212.015,-56.7639 L 211.841,-57.5819 L 211.841,-58.4181 L 212.015,-59.2361 L 212.355,-60 L 212.847,-60.6765
 L 213.468,-61.2361 L 214.192,-61.6542 L 214.988,-61.9126 L 215.819,-62 L 282.5,-62 L 283.736,-61.8042
 L 284.5,-61.4641 L 285.177,-60.9726 L 285.736,-60.3511 L 286.154,-59.627 L 286.413,-58.8316 L 286.5,-58
 L 286.5,-26.5119 L 286.468,-26.0052 L 286.276,-25.1913 L 285.919,-24.4351 L 285.412,-23.7697 L 284.778,-23.2242
 L 284.045,-22.8223 L 283.244,-22.5817 L 282.411,-22.5129 z
M 451.756,-22.5817 L 450.955,-22.8223 L 450.222,-23.2242 L 449.588,-23.7697 L 449.081,-24.4351 L 448.724,-25.1913
 L 448.532,-26.0052 L 448.5,-26.5119 L 448.5,-58 L 448.587,-58.8316 L 448.846,-59.627 L 449.264,-60.3511
 L 449.823,-60.9726 L 450.5,-61.4641 L 451.264,-61.8042 L 452.5,-62 L 519.181,-62 L 520.012,-61.9126
 L 520.808,-61.6542 L 521.532,-61.2361 L 522.153,-60.6765 L 522.645,-60 L 522.985,-59.2361 L 523.159,-58.4181
 L 523.159,-57.5819 L 522.985,-56.7639 L 522.645,-56 L 522.153,-55.3235 L 521.532,-54.7639 L 520.889,-54.383
 L 454.208,-22.8949 L 453.419,-22.6188 L 452.589,-22.5129 z
M 137.581,-22.6188 L 136.792,-22.8949 L 70.1113,-54.383 L 69.4681,-54.7639 L 68.8467,-55.3235 L 68.3552,-56
 L 68.015,-56.7639 L 67.8412,-57.5819 L 67.8412,-58.4181 L 68.015,-59.2361 L 68.3552,-60 L 68.8467,-60.6765
 L 69.4681,-61.2361 L 70.1923,-61.6542 L 70.9876,-61.9126 L 71.8193,-62 L 138.5,-62 L 139.736,-61.8042
 L 140.5,-61.4641 L 141.177,-60.9726 L 141.736,-60.3511 L 142.154,-59.627 L 142.413,-58.8316 L 142.5,-58
 L 142.5,-26.5119 L 142.468,-26.0052 L 142.276,-25.1913 L 141.919,-24.4351 L 141.412,-23.7697 L 140.778,-23.2242
 L 140.045,-22.8223 L 139.244,-22.5817 L 138.411,-22.5129 z
M 359.819,-18 L 358.988,-18.0874 L 358.192,-18.3458 L 357.468,-18.7639 L 356.847,-19.3235 L 356.355,-20
 L 356.015,-20.7639 L 355.841,-21.5819 L 355.841,-22.4181 L 356.015,-23.2361 L 356.355,-24 L 356.847,-24.6765
 L 357.468,-25.2361 L 358.111,-25.617 L 424.792,-57.1051 L 425.581,-57.3812 L 426.411,-57.4871 L 427.244,-57.4183
 L 428.045,-57.1777 L 428.778,-56.7758 L 429.412,-56.2303 L 429.919,-55.5649 L 430.276,-54.8087 L 430.468,-53.9948
 L 430.5,-53.4881 L 430.5,-22 L 430.413,-21.1684 L 430.154,-20.373 L 429.736,-19.6489 L 429.177,-19.0274
 L 428.5,-18.5359 L 427.736,-18.1958 L 426.5,-18 z
M 164.5,-18 L 163.264,-18.1958 L 162.5,-18.5359 L 161.823,-19.0274 L 161.264,-19.6489 L 160.846,-20.373
 L 160.587,-21.1684 L 160.5,-22 L 160.5,-53.4881 L 160.532,-53.9948 L 160.724,-54.8087 L 161.081,-55.5649
 L 161.588,-56.2303 L 162.222,-56.7758 L 162.955,-57.1777 L 163.756,-57.4183 L 164.589,-57.4871 L 165.419,-57.3812
 L 166.208,-57.1051 L 232.889,-25.617 L 233.532,-25.2361 L 234.153,-24.6765 L 234.645,-24 L 234.985,-23.2361
 L 235.159,-22.4181 L 235.159,-21.5819 L 234.985,-20.7639 L 234.645,-20 L 234.153,-19.3235 L 233.532,-18.7639
 L 232.808,-18.3458 L 232.012,-18.0874 L 231.181,-18 z
M 22,-18 L 20.7639,-18.1958 L 20,-18.5359 L 19.3235,-19.0274 L 18.7639,-19.6489 L 18.3458,-20.373
 L 18.0874,-21.1684 L 18,-22 L 18,-52.7798 L 18.0322,-53.2865 L 18.2243,-54.1004 L 18.5814,-54.8565
 L 19.0878,-55.5219 L 19.7216,-56.0675 L 20.4549,-56.4693 L 21.2558,-56.7099 L 22.0892,-56.7788 L 22.9187,-56.6728
 L 23.708,-56.3968 L 88.8887,-25.617 L 89.5318,-25.2361 L 90.1533,-24.6765 L 90.6448,-24 L 90.9849,-23.2361
 L 91.1588,-22.4181 L 91.1588,-21.5819 L 90.9849,-20.7639 L 90.6448,-20 L 90.1533,-19.3235 L 89.5318,-18.7639
 L 88.8077,-18.3458 L 88.0124,-18.0874 L 87.1807,-18 z
M 503.819,-18 L 502.988,-18.0874 L 502.192,-18.3458 L 501.468,-18.7639 L 500.847,-19.3235 L 500.355,-20
 L 500.015,-20.7639 L 499.841,-21.5819 L 499.841,-22.4181 L 500.015,-23.2361 L 500.355,-24 L 500.847,-24.6765
 L 501.468,-25.2361 L 502.111,-25.617 L 567.292,-56.3968 L 568.081,-56.6728 L 568.911,-56.7788 L 569.744,-56.7099
 L 570.545,-56.4693 L 571.278,-56.0675 L 571.912,-55.5219 L 572.419,-54.8565 L 572.776,-54.1004 L 572.968,-53.2865
 L 573,-52.7798 L 573,-22 L 572.913,-21.1684 L 572.654,-20.373 L 572.236,-19.6489 L 571.677,-19.0274
 L 571,-18.5359 L 570.236,-18.1958 L 569,-18 z
" stroke="black" fill="lightgray" stroke-width="0.5"/>
</svg>
