<?xml version="1.0" standalone="no"?>
<!DOCTYPE svg PUBLIC "-//W3C//DTD SVG 1.1//EN" "http://www.w3.org/Graphics/SVG/1.1/DTD/svg11.dtd">
<svg width="765mm" height="80mm" viewBox="0 -80 765 80" xmlns="http://www.w3.org/2000/svg" version="1.1">
<title>OpenSCAD Model</title>
<path d="
M 765,-80 L 0,-80 L 0,-0 L 4.95,-0 L 4.95,-6 L 5.00572,-6.53017
 L 5.17046,-7.03717 L 5.437,-7.49884 L 5.79372,-7.895 L 6.22499,-8.20836 L 6.71201,-8.42519 L 7.23344,-8.53603
 L 7.76654,-8.53603 L 8.28798,-8.42519 L 8.77499,-8.20836 L 9.20627,-7.895 L 9.56299,-7.49884 L 9.82953,-7.03717
 L 9.99426,-6.53017 L 10.05,-6 L 10.05,-0 L 154.95,-0 L 154.95,-6 L 155.006,-6.53017
 L 155.17,-7.03717 L 155.437,-7.49884 L 155.794,-7.895 L 156.225,-8.20836 L 156.712,-8.42519 L 157.233,-8.53603
 L 157.767,-8.53603 L 158.288,-8.42519 L 158.775,-8.20836 L 159.206,-7.895 L 159.563,-7.49884 L 159.83,-7.03717
 L 159.994,-6.53017 L 160.05,-6 L 160.05,-0 L 304.95,-0 L 304.95,-6 L 305.006,-6.53017
 L 305.17,-7.03717 L 305.437,-7.49884 L 305.794,-7.895 L 306.225,-8.20836 L 306.712,-8.42519 L 307.233,-8.53603
 L 307.767,-8.53603 L 308.288,-8.42519 L 308.775,-8.20836 L 309.206,-7.895 L 309.563,-7.49884 L 309.83,-7.03717
 L 309.994,-6.53017 L 310.05,-6 L 310.05,-0 L 454.95,-0 L 454.95,-6 L 455.006,-6.53017
 L 455.17,-7.03717 L 455.437,-7.49884 L 455.794,-7.895 L 456.225,-8.20836 L 456.712,-8.42519 L 457.233,-8.53603
 L 457.767,-8.53603 L 458.288,-8.42519 L 458.775,-8.20836 L 459.206,-7.895 L 459.563,-7.49884 L 459.83,-7.03717
 L 459.994,-6.53017 L 460.05,-6 L 460.05,-0 L 604.95,-0 L 604.95,-6 L 605.006,-6.53017
 L 605.17,-7.03717 L 605.437,-7.49884 L 605.794,-7.895 L 606.225,-8.20836 L 606.712,-8.42519 L 607.233,-8.53603
 L 607.767,-8.53603 L 608.288,-8.42519 L 608.775,-8.20836 L 609.206,-7.895 L 609.563,-7.49884 L 609.83,-7.03717
 L 609.994,-6.53017 L 610.05,-6 L 610.05,-0 L 754.95,-0 L 754.95,-6 L 755.006,-6.53017
 L 755.17,-7.03717 L 755.437,-7.49884 L 755.794,-7.895 L 756.225,-8.20836 L 756.712,-8.42519 L 757.233,-8.53603
 L 757.767,-8.53603 L 758.288,-8.42519 L 758.775,-8.20836 L 759.206,-7.895 L 759.563,-7.49884 L 759.83,-7.03717
 L 759.994,-6.53017 L 760.05,-6 L 760.05,-0 L 765,-0 z
M 6.98573,-55.607 L 6.47708,-55.6875 L 5.97964,-55.8208 L 5.49887,-56.0054 L 5.04001,-56.2392 L 4.60811,-56.5196
 L 4.20789,-56.8437 L 3.84373,-57.2079 L 3.51964,-57.6081 L 3.23917,-58.04 L 3.00537,-58.4989 L 2.82082,-58.9796
 L 2.68752,-59.4771 L 2.60696,-59.9857 L 2.58,-60.5 L 2.60696,-61.0143 L 2.68752,-61.5229 L 2.82082,-62.0204
 L 3.00537,-62.5011 L 3.23917,-62.96 L 3.51964,-63.3919 L 3.84373,-63.7921 L 4.20789,-64.1563 L 4.60811,-64.4804
 L 4.95001,-64.7024 L 4.95001,-74 L 5.00574,-74.5302 L 5.17047,-75.0372 L 5.43701,-75.4988 L 5.79373,-75.895
 L 6.22501,-76.2084 L 6.71202,-76.4252 L 7.23346,-76.536 L 7.76654,-76.536 L 8.28798,-76.4252 L 8.77499,-76.2084
 L 9.20627,-75.895 L 9.56299,-75.4988 L 9.82953,-75.0372 L 9.99426,-74.5302 L 10.05,-74 L 10.05,-64.7024
 L 10.3919,-64.4804 L 10.7921,-64.1563 L 11.1563,-63.7921 L 11.4804,-63.3919 L 11.7608,-62.96 L 11.9946,-62.5011
 L 12.1792,-62.0204 L 12.3125,-61.5229 L 12.393,-61.0143 L 12.42,-60.5 L 12.393,-59.9857 L 12.3125,-59.4771
 L 12.1792,-58.9796 L 11.9946,-58.4989 L 11.7608,-58.04 L 11.4804,-57.6081 L 11.1563,-57.2079 L 10.7921,-56.8437
 L 10.3919,-56.5196 L 9.95999,-56.2392 L 9.50113,-56.0054 L 9.02036,-55.8208 L 8.52292,-55.6875 L 8.01427,-55.607
 L 7.5,-55.58 z
M 156.986,-55.607 L 156.477,-55.6875 L 155.98,-55.8208 L 155.499,-56.0054 L 155.04,-56.2392 L 154.608,-56.5196
 L 154.208,-56.8437 L 153.844,-57.2079 L 153.52,-57.6081 L 153.239,-58.04 L 153.005,-58.4989 L 152.821,-58.9796
 L 152.688,-59.4771 L 152.607,-59.9857 L 152.58,-60.5 L 152.607,-61.0143 L 152.688,-61.5229 L 152.821,-62.0204
 L 153.005,-62.5011 L 153.239,-62.96 L 153.52,-63.3919 L 153.844,-63.7921 L 154.208,-64.1563 L 154.608,-64.4804
 L 154.95,-64.7024 L 154.95,-74 L 155.006,-74.5302 L 155.17,-75.0372 L 155.437,-75.4988 L 155.794,-75.895
 L 156.225,-76.2084 L 156.712,-76.4252 L 157.233,-76.536 L 157.767,-76.536 L 158.288,-76.4252 L 158.775,-76.2084
 L 159.206,-75.895 L 159.563,-75.4988 L 159.83,-75.0372 L 159.994,-74.5302 L 160.05,-74 L 160.05,-64.7024
 L 160.392,-64.4804 L 160.792,-64.1563 L 161.156,-63.7921 L 161.48,-63.3919 L 161.761,-62.96 L 161.995,-62.5011
 L 162.179,-62.0204 L 162.312,-61.5229 L 162.393,-61.0143 L 162.42,-60.5 L 162.393,-59.9857 L 162.312,-59.4771
 L 162.179,-58.9796 L 161.995,-58.4989 L 161.761,-58.04 L 161.48,-57.6081 L 161.156,-57.2079 L 160.792,-56.8437
 L 160.392,-56.5196 L 159.96,-56.2392 L 159.501,-56.0054 L 159.02,-55.8208 L 158.523,-55.6875 L 158.014,-55.607
 L 157.5,-55.58 z
M 306.986,-55.607 L 306.477,-55.6875 L 305.98,-55.8208 L 305.499,-56.0054 L 305.04,-56.2392 L 304.608,-56.5196
 L 304.208,-56.8437 L 303.844,-57.2079 L 303.52,-57.6081 L 303.239,-58.04 L 303.005,-58.4989 L 302.821,-58.9796
 L 302.688,-59.4771 L 302.607,-59.9857 L 302.58,-60.5 L 302.607,-61.0143 L 302.688,-61.5229 L 302.821,-62.0204
 L 303.005,-62.5011 L 303.239,-62.96 L 303.52,-63.3919 L 303.844,-63.7921 L 304.208,-64.1563 L 304.608,-64.4804
 L 304.95,-64.7024 L 304.95,-74 L 305.006,-74.5302 L 305.17,-75.0372 L 305.437,-75.4988 L 305.794,-75.895
 L 306.225,-76.2084 L 306.712,-76.4252 L 307.233,-76.536 L 307.767,-76.536 L 308.288,-76.4252 L 308.775,-76.2084
 L 309.206,-75.895 L 309.563,-75.4988 L 309.83,-75.0372 L 309.994,-74.5302 L 310.05,-74 L 310.05,-64.7024
 L 310.392,-64.4804 L 310.792,-64.1563 L 311.156,-63.7921 L 311.48,-63.3919 L 311.761,-62.96 L 311.995,-62.5011
 L 312.179,-62.0204 L 312.312,-61.5229 L 312.393,-61.0143 L 312.42,-60.5 L 312.393,-59.9857 L 312.312,-59.4771
 L 312.179,-58.9796 L 311.995,-58.4989 L 311.761,-58.04 L 311.48,-57.6081 L 311.156,-57.2079 L 310.792,-56.8437
 L 310.392,-56.5196 L 309.96,-56.2392 L 309.501,-56.0054 L 309.02,-55.8208 L 308.523,-55.6875 L 308.014,-55.607
 L 307.5,-55.58 z
M 456.986,-55.607 L 456.477,-55.6875 L 455.98,-55.8208 L 455.499,-56.0054 L 455.04,-56.2392 L 454.608,-56.5196
 L 454.208,-56.8437 L 453.844,-57.2079 L 453.52,-57.6081 L 453.239,-58.04 L 453.005,-58.4989 L 452.821,-58.9796
 L 452.688,-59.4771 L 452.607,-59.9857 L 452.58,-60.5 L 452.607,-61.0143 L 452.688,-61.5229 L 452.821,-62.0204
 L 453.005,-62.5011 L 453.239,-62.96 L 453.52,-63.3919 L 453.844,-63.7921 L 454.208,-64.1563 L 454.608,-64.4804
 L 454.95,-64.7024 L 454.95,-74 L 455.006,-74.5302 L 455.17,-75.0372 L 455.437,-75.4988 L 455.794,-75.895
 L 456.225,-76.2084 L 456.712,-76.4252 L 457.233,-76.536 L 457.767,-76.536 L 458.288,-76.4252 L 458.775,-76.2084
 L 459.206,-75.895 L 459.563,-75.4988 L 459.83,-75.0372 L 459.994,-74.5302 L 460.05,-74 L 460.05,-64.7024
 L 460.392,-64.4804 L 460.792,-64.1563 L 461.156,-63.7921 L 461.48,-63.3919 L 461.761,-62.96 L 461.995,-62.5011
 L 462.179,-62.0204 L 462.312,-61.5229 L 462.393,-61.0143 L 462.42,-60.5 L 462.393,-59.9857 L 462.312,-59.4771
 L 462.179,-58.9796 L 461.995,-58.4989 L 461.761,-58.04 L 461.48,-57.6081 L 461.156,-57.2079 L 460.792,-56.8437
 L 460.392,-56.5196 L 459.96,-56.2392 L 459.501,-56.0054 L 459.02,-55.8208 L 458.523,-55.6875 L 458.014,-55.607
 L 457.5,-55.58 z
M 606.986,-55.607 L 606.477,-55.6875 L 605.98,-55.8208 L 605.499,-56.0054 L 605.04,-56.2392 L 604.608,-56.5196
 L 604.208,-56.8437 L 603.844,-57.2079 L 603.52,-57.6081 L 603.239,-58.04 L 603.005,-58.4989 L 602.821,-58.9796
 L 602.688,-59.4771 L 602.607,-59.9857 L 602.58,-60.5 L 602.607,-61.0143 L 602.688,-61.5229 L 602.821,-62.0204
 L 603.005,-62.5011 L 603.239,-62.96 L 603.52,-63.3919 L 603.844,-63.7921 L 604.208,-64.1563 L 604.608,-64.4804
 L 604.95,-64.7024 L 604.95,-74 L 605.006,-74.5302 L 605.17,-75.0372 L 605.437,-75.4988 L 605.794,-75.895
 L 606.225,-76.2084 L 606.712,-76.4252 L 607.233,-76.536 L 607.767,-76.536 L 608.288,-76.4252 L 608.775,-76.2084
 L 609.206,-75.895 L 609.563,-75.4988 L 609.83,-75.0372 L 609.994,-74.5302 L 610.05,-74 L 610.05,-64.7024
 L 610.392,-64.4804 L 610.792,-64.1563 L 611.156,-63.7921 L 611.48,-63.3919 L 611.761,-62.96 L 611.995,-62.5011
 L 612.179,-62.0204 L 612.312,-61.5229 L 612.393,-61.0143 L 612.42,-60.5 L 612.393,-59.9857 L 612.312,-59.4771
 L 612.179,-58.9796 L 611.995,-58.4989 L 611.761,-58.04 L 611.48,-57.6081 L 611.156,-57.2079 L 610.792,-56.8437
 L 610.392,-56.5196 L 609.96,-56.2392 L 609.501,-56.0054 L 609.02,-55.8208 L 608.523,-55.6875 L 608.014,-55.607
 L 607.5,-55.58 z
M 756.986,-55.607 L 756.477,-55.6875 L 755.98,-55.8208 L 755.499,-56.0054 L 755.04,-56.2392 L 754.608,-56.5196
 L 754.208,-56.8437 L 753.844,-57.2079 L 753.52,-57.6081 L 753.239,-58.04 L 753.005,-58.4989 L 752.821,-58.9796
 L 752.688,-59.4771 L 752.607,-59.9857 L 752.58,-60.5 L 752.607,-61.0143 L 752.688,-61.5229 L 752.821,-62.0204
 L 753.005,-62.5011 L 753.239,-62.96 L 753.52,-63.3919 L 753.844,-63.7921 L 754.208,-64.1563 L 754.608,-64.4804
 L 754.95,-64.7024 L 754.95,-74 L 755.006,-74.5302 L 755.17,-75.0372 L 755.437,-75.4988 L 755.794,-75.895
 L 756.225,-76.2084 L 756.712,-76.4252 L 757.233,-76.536 L 757.767,-76.536 L 758.288,-76.4252 L 758.775,-76.2084
 L 759.206,-75.895 L 759.563,-75.4988 L 759.83,-75.0372 L 759.994,-74.5302 L 760.05,-74 L 760.05,-64.7024
 L 760.392,-64.4804 L 760.792,-64.1563 L 761.156,-63.7921 L 761.48,-63.3919 L 761.761,-62.96 L 761.995,-62.5011
 L 762.179,-62.0204 L 762.312,-61.5229 L 762.393,-61.0143 L 762.42,-60.5 L 762.393,-59.9857 L 762.312,-59.4771
 L 762.179,-58.9796 L 761.995,-58.4989 L 761.761,-58.04 L 761.48,-57.6081 L 761.156,-57.2079 L 760.792,-56.8437
 L 760.392,-56.5196 L 759.96,-56.2392 L 759.501,-56.0054 L 759.02,-55.8208 L 758.523,-55.6875 L 758.014,-55.607
 L 757.5,-55.58 z
M 381.642,-48.1704 L 380.848,-48.4341 L 367.784,-54.3569 L 367.084,-54.7639 L 366.463,-55.3235 L 365.971,-56
 L 365.631,-56.7639 L 365.457,-57.5819 L 365.457,-58.4181 L 365.631,-59.2361 L 365.971,-60 L 366.463,-60.6765
 L 367.084,-61.2361 L 367.808,-61.6542 L 368.603,-61.9126 L 369.435,-62 L 395.565,-62 L 396.37,-61.9181
 L 397.167,-61.6651 L 397.894,-61.2518 L 398.519,-60.6965 L 399.015,-60.0233 L 399.361,-59.2617 L 399.54,-58.4449
 L 399.546,-57.6087 L 399.377,-56.7896 L 399.042,-56.0234 L 398.555,-55.3436 L 397.938,-54.7799 L 397.216,-54.3569
 L 384.152,-48.4341 L 383.305,-48.1591 L 382.473,-48.0773 z
M 293.642,-22.2596 L 292.848,-22.5233 L 222.627,-54.3569 L 221.928,-54.7639 L 221.306,-55.3235 L 220.815,-56
 L 220.475,-56.7639 L 220.301,-57.5819 L 220.301,-58.4181 L 220.475,-59.2361 L 220.815,-60 L 221.306,-60.6765
 L 221.928,-61.2361 L 222.652,-61.6542 L 223.447,-61.9126 L 224.279,-62 L 294.5,-62 L 295.736,-61.8042
 L 296.5,-61.4641 L 297.177,-60.9726 L 297.736,-60.3511 L 298.154,-59.627 L 298.413,-58.8316 L 298.5,-58
 L 298.5,-26.1664 L 298.475,-25.7215 L 298.296,-24.9048 L 297.951,-24.1431 L 297.454,-23.4699 L 296.829,-22.9146
 L 296.102,-22.5014 L 295.305,-22.2483 L 294.473,-22.1665 z
M 619.695,-22.2483 L 618.898,-22.5014 L 618.171,-22.9146 L 617.546,-23.4699 L 617.049,-24.1431 L 616.704,-24.9048
 L 616.525,-25.7215 L 616.5,-26.1664 L 616.5,-58 L 616.587,-58.8316 L 616.846,-59.627 L 617.264,-60.3511
 L 617.823,-60.9726 L 618.5,-61.4641 L 619.264,-61.8042 L 620.5,-62 L 690.721,-62 L 691.553,-61.9126
 L 692.348,-61.6542 L 693.072,-61.2361 L 693.694,-60.6765 L 694.185,-60 L 694.525,-59.2361 L 694.699,-58.4181
 L 694.699,-57.5819 L 694.525,-56.7639 L 694.185,-56 L 693.694,-55.3235 L 693.072,-54.7639 L 692.373,-54.3569
 L 622.152,-22.5233 L 621.358,-22.2596 L 620.527,-22.1665 z
M 143.642,-22.2596 L 142.848,-22.5233 L 72.6274,-54.3569 L 71.9278,-54.7639 L 71.3064,-55.3235 L 70.8148,-56
 L 70.4747,-56.7639 L 70.3008,-57.5819 L 70.3008,-58.4181 L 70.4747,-59.2361 L 70.8148,-60 L 71.3064,-60.6765
 L 71.9278,-61.2361 L 72.652,-61.6542 L 73.4473,-61.9126 L 74.2789,-62 L 144.5,-62 L 145.736,-61.8042
 L 146.5,-61.4641 L 147.177,-60.9726 L 147.736,-60.3511 L 148.154,-59.627 L 148.413,-58.8316 L 148.5,-58
 L 148.5,-26.1664 L 148.475,-25.7215 L 148.296,-24.9048 L 147.951,-24.1431 L 147.454,-23.4699 L 146.829,-22.9146
 L 146.102,-22.5014 L 145.305,-22.2483 L 144.473,-22.1665 z
M 469.695,-22.2483 L 468.898,-22.5014 L 468.171,-22.9146 L 467.546,-23.4699 L 467.049,-24.1431 L 466.704,-24.9048
 L 466.525,-25.7215 L 466.5,-26.1664 L 466.5,-58 L 466.587,-58.8316 L 466.846,-59.627 L 467.264,-60.3511
 L 467.823,-60.9726 L 468.5,-61.4641 L 469.264,-61.8042 L 470.5,-62 L 540.721,-62 L 541.553,-61.9126
 L 542.348,-61.6542 L 543.072,-61.2361 L 543.694,-60.6765 L 544.185,-60 L 544.525,-59.2361 L 544.699,-58.4181
 L 544.699,-57.5819 L 544.525,-56.7639 L 544.185,-56 L 543.694,-55.3235 L 543.072,-54.7639 L 542.373,-54.3569
 L 472.152,-22.5233 L 471.358,-22.2596 L 470.527,-22.1665 z
M 320.082,-19.9925 L 319.264,-20.1664 L 318.5,-20.5065 L 317.823,-20.998 L 317.264,-21.6195 L 316.846,-22.3436
 L 316.587,-23.1389 L 316.5,-23.9706 L 316.5,-56.0294 L 316.525,-56.4743 L 316.704,-57.2911 L 317.049,-58.0527
 L 317.546,-58.7259 L 318.171,-59.2812 L 318.898,-59.6945 L 319.695,-59.9475 L 320.527,-60.0293 L 321.358,-59.9363
 L 322.152,-59.6725 L 357.511,-43.6431 L 358.188,-43.2518 L 358.813,-42.6965 L 359.31,-42.0233 L 359.655,-41.2617
 L 359.834,-40.4449 L 359.84,-39.6087 L 359.671,-38.7896 L 359.336,-38.0234 L 358.85,-37.3436 L 358.232,-36.7799
 L 357.511,-36.3569 L 322.152,-20.3275 L 321.736,-20.1664 L 320.918,-19.9925 z
M 443.642,-20.0637 L 442.848,-20.3275 L 407.489,-36.3569 L 406.812,-36.7482 L 406.187,-37.3035 L 405.69,-37.9767
 L 405.345,-38.7383 L 405.166,-39.5551 L 405.16,-40.3913 L 405.329,-41.2104 L 405.663,-41.9766 L 406.15,-42.6564
 L 406.768,-43.2201 L 407.489,-43.6431 L 442.848,-59.6725 L 443.264,-59.8336 L 444.082,-60.0075 L 444.918,-60.0075
 L 445.736,-59.8336 L 446.5,-59.4935 L 447.177,-59.002 L 447.736,-58.3806 L 448.154,-57.6564 L 448.413,-56.8611
 L 448.5,-56.0294 L 448.5,-23.9706 L 448.475,-23.5257 L 448.296,-22.7089 L 447.951,-21.9473 L 447.454,-21.2741
 L 446.829,-20.7187 L 446.102,-20.3055 L 445.305,-20.0525 L 444.473,-19.9707 z
M 170.5,-18 L 169.264,-18.1958 L 168.5,-18.5359 L 167.823,-19.0274 L 167.264,-19.6489 L 166.846,-20.373
 L 166.587,-21.1684 L 166.5,-22 L 166.5,-53.8335 L 166.525,-54.2785 L 166.704,-55.0952 L 167.049,-55.8569
 L 167.546,-56.53 L 168.171,-57.0854 L 168.898,-57.4986 L 169.695,-57.7516 L 170.527,-57.8335 L 171.358,-57.7404
 L 172.152,-57.4767 L 242.373,-25.6431 L 243.072,-25.2361 L 243.694,-24.6765 L 244.185,-24 L 244.525,-23.2361
 L 244.699,-22.4181 L 244.699,-21.5819 L 244.525,-20.7639 L 244.185,-20 L 243.694,-19.3235 L 243.072,-18.7639
 L 242.348,-18.3458 L 241.553,-18.0874 L 240.721,-18 z
M 524.279,-18 L 523.447,-18.0874 L 522.652,-18.3458 L 521.928,-18.7639 L 521.306,-19.3235 L 520.815,-20
 L 520.475,-20.7639 L 520.301,-21.5819 L 520.301,-22.4181 L 520.475,-23.2361 L 520.815,-24 L 521.306,-24.6765
 L 521.928,-25.2361 L 522.627,-25.6431 L 592.848,-57.4767 L 593.642,-57.7404 L 594.473,-57.8335 L 595.305,-57.7516
 L 596.102,-57.4986 L 596.829,-57.0854 L 597.454,-56.53 L 597.951,-55.8569 L 598.296,-55.0952 L 598.475,-54.2785
 L 598.5,-53.8335 L 598.5,-22 L 598.413,-21.1684 L 598.154,-20.373 L 597.736,-19.6489 L 597.177,-19.0274
 L 596.5,-18.5359 L 595.736,-18.1958 L 594.5,-18 z
M 22,-18 L 20.7639,-18.1958 L 20,-18.5359 L 19.3235,-19.0274 L 18.7639,-19.6489 L 18.3458,-20.373
 L 18.0874,-21.1684 L 18,-22 L 18,-53.1535 L 18.0248,-53.5985 L 18.2042,-54.4152 L 18.5495,-55.1768
 L 19.0455,-55.85 L 19.6707,-56.4054 L 20.3977,-56.8186 L 21.1948,-57.0716 L 22.027,-57.1534 L 22.858,-57.0604
 L 23.6516,-56.7967 L 92.3726,-25.6431 L 93.0722,-25.2361 L 93.6936,-24.6765 L 94.1852,-24 L 94.5253,-23.2361
 L 94.6991,-22.4181 L 94.6991,-21.5819 L 94.5253,-20.7639 L 94.1852,-20 L 93.6936,-19.3235 L 93.0722,-18.7639
 L 92.348,-18.3458 L 91.5527,-18.0874 L 90.7211,-18 z
M 674.279,-18 L 673.447,-18.0874 L 672.652,-18.3458 L 671.928,-18.7639 L 671.306,-19.3235 L 670.815,-20
 L 670.475,-20.7639 L 670.301,-21.5819 L 670.301,-22.4181 L 670.475,-23.2361 L 670.815,-24 L 671.306,-24.6765
 L 671.928,-25.2361 L 672.627,-25.6431 L 741.348,-56.7967 L 742.142,-57.0604 L 742.973,-57.1534 L 743.805,-57.0716
 L 744.602,-56.8186 L 745.329,-56.4054 L 745.954,-55.85 L 746.451,-55.1768 L 746.796,-54.4152 L 746.975,-53.5985
 L 747,-53.1535 L 747,-22 L 746.913,-21.1684 L 746.654,-20.373 L 746.236,-19.6489 L 745.677,-19.0274
 L 745,-18.5359 L 744.236,-18.1958 L 743,-18 z
M 369.435,-18 L 368.63,-18.0819 L 367.833,-18.3349 L 367.106,-18.7482 L 366.481,-19.3035 L 365.985,-19.9767
 L 365.639,-20.7383 L 365.46,-21.5551 L 365.454,-22.3913 L 365.623,-23.2104 L 365.958,-23.9766 L 366.445,-24.6564
 L 367.062,-25.2201 L 367.784,-25.6431 L 380.848,-31.5659 L 381.695,-31.8409 L 382.527,-31.9227 L 383.358,-31.8296
 L 384.152,-31.5659 L 397.216,-25.6431 L 397.916,-25.2361 L 398.537,-24.6765 L 399.029,-24 L 399.369,-23.2361
 L 399.543,-22.4181 L 399.543,-21.5819 L 399.369,-20.7639 L 399.029,-20 L 398.537,-19.3235 L 397.916,-18.7639
 L 397.192,-18.3458 L 396.397,-18.0874 L 395.565,-18 z
" stroke="black" fill="lightgray" stroke-width="0.5"/>
</svg>
