<?xml version="1.0" standalone="no"?>
<!DOCTYPE svg PUBLIC "-//W3C//DTD SVG 1.1//EN" "http://www.w3.org/Graphics/SVG/1.1/DTD/svg11.dtd">
<svg width="827mm" height="80mm" viewBox="0 -80 827 80" xmlns="http://www.w3.org/2000/svg" version="1.1">
<title>OpenSCAD Model</title>
<path d="
M 827,-80 L 0,-80 L 0,-0 L 4.95,-0 L 4.95,-6 L 5.00572,-6.53017
 L 5.17046,-7.03717 L 5.437,-7.49884 L 5.79372,-7.895 L 6.22499,-8.20836 L 6.71201,-8.42519 L 7.23344,-8.53603
 L 7.76654,-8.53603 L 8.28798,-8.42519 L 8.77499,-8.20836 L 9.20627,-7.895 L 9.56299,-7.49884 L 9.82953,-7.03717
 L 9.99426,-6.53017 L 10.05,-6 L 10.05,-0 L 167.35,-0 L 167.35,-6 L 167.406,-6.53017
 L 167.57,-7.03717 L 167.837,-7.49884 L 168.194,-7.895 L 168.625,-8.20836 L 169.112,-8.42519 L 169.633,-8.53603
 L 170.167,-8.53603 L 170.688,-8.42519 L 171.175,-8.20836 L 171.606,-7.895 L 171.963,-7.49884 L 172.23,-7.03717
 L 172.394,-6.53017 L 172.45,-6 L 172.45,-0 L 329.75,-0 L 329.75,-6 L 329.806,-6.53017
 L 329.97,-7.03717 L 330.237,-7.49884 L 330.594,-7.895 L 331.025,-8.20836 L 331.512,-8.42519 L 332.033,-8.53603
 L 332.567,-8.53603 L 333.088,-8.42519 L 333.575,-8.20836 L 334.006,-7.895 L 334.363,-7.49884 L 334.63,-7.03717
 L 334.794,-6.53017 L 334.85,-6 L 334.85,-0 L 492.15,-0 L 492.15,-6 L 492.206,-6.53017
 L 492.37,-7.03717 L 492.637,-7.49884 L 492.994,-7.895 L 493.425,-8.20836 L 493.912,-8.42519 L 494.433,-8.53603
 L 494.967,-8.53603 L 495.488,-8.42519 L 495.975,-8.20836 L 496.406,-7.895 L 496.763,-7.49884 L 497.03,-7.03717
 L 497.194,-6.53017 L 497.25,-6 L 497.25,-0 L 654.55,-0 L 654.55,-6 L 654.606,-6.53017
 L 654.77,-7.03717 L 655.037,-7.49884 L 655.394,-7.895 L 655.825,-8.20836 L 656.312,-8.42519 L 656.833,-8.53603
 L 657.367,-8.53603 L 657.888,-8.42519 L 658.375,-8.20836 L 658.806,-7.895 L 659.163,-7.49884 L 659.43,-7.03717
 L 659.594,-6.53017 L 659.65,-6 L 659.65,-0 L 816.95,-0 L 816.95,-6 L 817.006,-6.53017
 L 817.17,-7.03717 L 817.437,-7.49884 L 817.794,-7.895 L 818.225,-8.20836 L 818.712,-8.42519 L 819.233,-8.53603
 L 819.767,-8.53603 L 820.288,-8.42519 L 820.775,-8.20836 L 821.206,-7.895 L 821.563,-7.49884 L 821.83,-7.03717
 L 821.994,-6.53017 L 822.05,-6 L 822.05,-0 L 827,-0 z
M 6.98573,-55.607 L 6.47708,-55.6875 L 5.97964,-55.8208 L 5.49887,-56.0054 L 5.04001,-56.2392 L 4.60811,-56.5196
 L 4.20789,-56.8437 L 3.84373,-57.2079 L 3.51964,-57.6081 L 3.23917,-58.04 L 3.00537,-58.4989 L 2.82082,-58.9796
 L 2.68752,-59.4771 L 2.60696,-59.9857 L 2.58,-60.5 L 2.60696,-61.0143 L 2.68752,-61.5229 L 2.82082,-62.0204
 L 3.00537,-62.5011 L 3.23917,-62.96 L 3.51964,-63.3919 L 3.84373,-63.7921 L 4.20789,-64.1563 L 4.60811,-64.4804
 L 4.95001,-64.7024 L 4.95001,-74 L 5.00574,-74.5302 L 5.17047,-75.0372 L 5.43701,-75.4988 L 5.79373,-75.895
 L 6.22501,-76.2084 L 6.71202,-76.4252 L 7.23346,-76.536 L 7.76654,-76.536 L 8.28798,-76.4252 L 8.77499,-76.2084
 L 9.20627,-75.895 L 9.56299,-75.4988 L 9.82953,-75.0372 L 9.99426,-74.5302 L 10.05,-74 L 10.05,-64.7024
 L 10.3919,-64.4804 L 10.7921,-64.1563 L 11.1563,-63.7921 L 11.4804,-63.3919 L 11.7608,-62.96 L 11.9946,-62.5011
 L 12.1792,-62.0204 L 12.3125,-61.5229 L 12.393,-61.0143 L 12.42,-60.5 L 12.393,-59.9857 L 12.3125,-59.4771
 L 12.1792,-58.9796 L 11.9946,-58.4989 L 11.7608,-58.04 L 11.4804,-57.6081 L 11.1563,-57.2079 L 10.7921,-56.8437
 L 10.3919,-56.5196 L 9.95999,-56.2392 L 9.50113,-56.0054 L 9.02036,-55.8208 L 8.52292,-55.6875 L 8.01427,-55.607
 L 7.5,-55.58 z
M 169.386,-55.607 L 168.877,-55.6875 L 168.38,-55.8208 L 167.899,-56.0054 L 167.44,-56.2392 L 167.008,-56.5196
 L 166.608,-56.8437 L 166.244,-57.2079 L 165.92,-57.6081 L 165.639,-58.04 L 165.405,-58.4989 L 165.221,-58.9796
 L 165.088,-59.4771 L 165.007,-59.9857 L 164.98,-60.5 L 165.007,-61.0143 L 165.088,-61.5229 L 165.221,-62.0204
 L 165.405,-62.5011 L 165.639,-62.96 L 165.92,-63.3919 L 166.244,-63.7921 L 166.608,-64.1563 L 167.008,-64.4804
 L 167.35,-64.7024 L 167.35,-74 L 167.406,-74.5302 L 167.57,-75.0372 L 167.837,-75.4988 L 168.194,-75.895
 L 168.625,-76.2084 L 169.112,-76.4252 L 169.633,-76.536 L 170.167,-76.536 L 170.688,-76.4252 L 171.175,-76.2084
 L 171.606,-75.895 L 171.963,-75.4988 L 172.23,-75.0372 L 172.394,-74.5302 L 172.45,-74 L 172.45,-64.7024
 L 172.792,-64.4804 L 173.192,-64.1563 L 173.556,-63.7921 L 173.88,-63.3919 L 174.161,-62.96 L 174.395,-62.5011
 L 174.579,-62.0204 L 174.712,-61.5229 L 174.793,-61.0143 L 174.82,-60.5 L 174.793,-59.9857 L 174.712,-59.4771
 L 174.579,-58.9796 L 174.395,-58.4989 L 174.161,-58.04 L 173.88,-57.6081 L 173.556,-57.2079 L 173.192,-56.8437
 L 172.792,-56.5196 L 172.36,-56.2392 L 171.901,-56.0054 L 171.42,-55.8208 L 170.923,-55.6875 L 170.414,-55.607
 L 169.9,-55.58 z
M 331.786,-55.607 L 331.277,-55.6875 L 330.78,-55.8208 L 330.299,-56.0054 L 329.84,-56.2392 L 329.408,-56.5196
 L 329.008,-56.8437 L 328.644,-57.2079 L 328.32,-57.6081 L 328.039,-58.04 L 327.805,-58.4989 L 327.621,-58.9796
 L 327.488,-59.4771 L 327.407,-59.9857 L 327.38,-60.5 L 327.407,-61.0143 L 327.488,-61.5229 L 327.621,-62.0204
 L 327.805,-62.5011 L 328.039,-62.96 L 328.32,-63.3919 L 328.644,-63.7921 L 329.008,-64.1563 L 329.408,-64.4804
 L 329.75,-64.7024 L 329.75,-74 L 329.806,-74.5302 L 329.97,-75.0372 L 330.237,-75.4988 L 330.594,-75.895
 L 331.025,-76.2084 L 331.512,-76.4252 L 332.033,-76.536 L 332.567,-76.536 L 333.088,-76.4252 L 333.575,-76.2084
 L 334.006,-75.895 L 334.363,-75.4988 L 334.63,-75.0372 L 334.794,-74.5302 L 334.85,-74 L 334.85,-64.7024
 L 335.192,-64.4804 L 335.592,-64.1563 L 335.956,-63.7921 L 336.28,-63.3919 L 336.561,-62.96 L 336.795,-62.5011
 L 336.979,-62.0204 L 337.112,-61.5229 L 337.193,-61.0143 L 337.22,-60.5 L 337.193,-59.9857 L 337.112,-59.4771
 L 336.979,-58.9796 L 336.795,-58.4989 L 336.561,-58.04 L 336.28,-57.6081 L 335.956,-57.2079 L 335.592,-56.8437
 L 335.192,-56.5196 L 334.76,-56.2392 L 334.301,-56.0054 L 333.82,-55.8208 L 333.323,-55.6875 L 332.814,-55.607
 L 332.3,-55.58 z
M 494.186,-55.607 L 493.677,-55.6875 L 493.18,-55.8208 L 492.699,-56.0054 L 492.24,-56.2392 L 491.808,-56.5196
 L 491.408,-56.8437 L 491.044,-57.2079 L 490.72,-57.6081 L 490.439,-58.04 L 490.205,-58.4989 L 490.021,-58.9796
 L 489.888,-59.4771 L 489.807,-59.9857 L 489.78,-60.5 L 489.807,-61.0143 L 489.888,-61.5229 L 490.021,-62.0204
 L 490.205,-62.5011 L 490.439,-62.96 L 490.72,-63.3919 L 491.044,-63.7921 L 491.408,-64.1563 L 491.808,-64.4804
 L 492.15,-64.7024 L 492.15,-74 L 492.206,-74.5302 L 492.37,-75.0372 L 492.637,-75.4988 L 492.994,-75.895
 L 493.425,-76.2084 L 493.912,-76.4252 L 494.433,-76.536 L 494.967,-76.536 L 495.488,-76.4252 L 495.975,-76.2084
 L 496.406,-75.895 L 496.763,-75.4988 L 497.03,-75.0372 L 497.194,-74.5302 L 497.25,-74 L 497.25,-64.7024
 L 497.592,-64.4804 L 497.992,-64.1563 L 498.356,-63.7921 L 498.68,-63.3919 L 498.961,-62.96 L 499.195,-62.5011
 L 499.379,-62.0204 L 499.512,-61.5229 L 499.593,-61.0143 L 499.62,-60.5 L 499.593,-59.9857 L 499.512,-59.4771
 L 499.379,-58.9796 L 499.195,-58.4989 L 498.961,-58.04 L 498.68,-57.6081 L 498.356,-57.2079 L 497.992,-56.8437
 L 497.592,-56.5196 L 497.16,-56.2392 L 496.701,-56.0054 L 496.22,-55.8208 L 495.723,-55.6875 L 495.214,-55.607
 L 494.7,-55.58 z
M 656.586,-55.607 L 656.077,-55.6875 L 655.58,-55.8208 L 655.099,-56.0054 L 654.64,-56.2392 L 654.208,-56.5196
 L 653.808,-56.8437 L 653.444,-57.2079 L 653.12,-57.6081 L 652.839,-58.04 L 652.605,-58.4989 L 652.421,-58.9796
 L 652.288,-59.4771 L 652.207,-59.9857 L 652.18,-60.5 L 652.207,-61.0143 L 652.288,-61.5229 L 652.421,-62.0204
 L 652.605,-62.5011 L 652.839,-62.96 L 653.12,-63.3919 L 653.444,-63.7921 L 653.808,-64.1563 L 654.208,-64.4804
 L 654.55,-64.7024 L 654.55,-74 L 654.606,-74.5302 L 654.77,-75.0372 L 655.037,-75.4988 L 655.394,-75.895
 L 655.825,-76.2084 L 656.312,-76.4252 L 656.833,-76.536 L 657.367,-76.536 L 657.888,-76.4252 L 658.375,-76.2084
 L 658.806,-75.895 L 659.163,-75.4988 L 659.43,-75.0372 L 659.594,-74.5302 L 659.65,-74 L 659.65,-64.7024
 L 659.992,-64.4804 L 660.392,-64.1563 L 660.756,-63.7921 L 661.08,-63.3919 L 661.361,-62.96 L 661.595,-62.5011
 L 661.779,-62.0204 L 661.912,-61.5229 L 661.993,-61.0143 L 662.02,-60.5 L 661.993,-59.9857 L 661.912,-59.4771
 L 661.779,-58.9796 L 661.595,-58.4989 L 661.361,-58.04 L 661.08,-57.6081 L 660.756,-57.2079 L 660.392,-56.8437
 L 659.992,-56.5196 L 659.56,-56.2392 L 659.101,-56.0054 L 658.62,-55.8208 L 658.123,-55.6875 L 657.614,-55.607
 L 657.1,-55.58 z
M 818.986,-55.607 L 818.477,-55.6875 L 817.98,-55.8208 L 817.499,-56.0054 L 817.04,-56.2392 L 816.608,-56.5196
 L 816.208,-56.8437 L 815.844,-57.2079 L 815.52,-57.6081 L 815.239,-58.04 L 815.005,-58.4989 L 814.821,-58.9796
 L 814.688,-59.4771 L 814.607,-59.9857 L 814.58,-60.5 L 814.607,-61.0143 L 814.688,-61.5229 L 814.821,-62.0204
 L 815.005,-62.5011 L 815.239,-62.96 L 815.52,-63.3919 L 815.844,-63.7921 L 816.208,-64.1563 L 816.608,-64.4804
 L 816.95,-64.7024 L 816.95,-74 L 817.006,-74.5302 L 817.17,-75.0372 L 817.437,-75.4988 L 817.794,-75.895
 L 818.225,-76.2084 L 818.712,-76.4252 L 819.233,-76.536 L 819.767,-76.536 L 820.288,-76.4252 L 820.775,-76.2084
 L 821.206,-75.895 L 821.563,-75.4988 L 821.83,-75.0372 L 821.994,-74.5302 L 822.05,-74 L 822.05,-64.7024
 L 822.392,-64.4804 L 822.792,-64.1563 L 823.156,-63.7921 L 823.48,-63.3919 L 823.761,-62.96 L 823.995,-62.5011
 L 824.179,-62.0204 L 824.312,-61.5229 L 824.393,-61.0143 L 824.42,-60.5 L 824.393,-59.9857 L 824.312,-59.4771
 L 824.179,-58.9796 L 823.995,-58.4989 L 823.761,-58.04 L 823.48,-57.6081 L 823.156,-57.2079 L 822.792,-56.8437
 L 822.392,-56.5196 L 821.96,-56.2392 L 821.501,-56.0054 L 821.02,-55.8208 L 820.523,-55.6875 L 820.014,-55.607
 L 819.5,-55.58 z
M 412.756,-47.9922 L 411.955,-48.2328 L 397.44,-54.3104 L 396.634,-54.7639 L 396.013,-55.3235 L 395.521,-56
 L 395.181,-56.7639 L 395.007,-57.5819 L 395.007,-58.4181 L 395.181,-59.2361 L 395.521,-60 L 396.013,-60.6765
 L 396.634,-61.2361 L 397.358,-61.6542 L 398.154,-61.9126 L 398.985,-62 L 428.015,-62 L 428.934,-61.893
 L 429.723,-61.6169 L 430.438,-61.1827 L 431.046,-60.6095 L 431.523,-59.9221 L 431.846,-59.1508 L 432.001,-58.3291
 L 431.982,-57.4931 L 431.79,-56.6793 L 431.433,-55.9231 L 430.927,-55.2577 L 430.293,-54.7122 L 429.56,-54.3104
 L 415.045,-48.2328 L 414.419,-48.0294 L 413.589,-47.9234 z
M 318.556,-21.6033 L 317.755,-21.8438 L 240.217,-54.3104 L 239.411,-54.7639 L 238.79,-55.3235 L 238.298,-56
 L 237.958,-56.7639 L 237.784,-57.5819 L 237.784,-58.4181 L 237.958,-59.2361 L 238.298,-60 L 238.79,-60.6765
 L 239.411,-61.2361 L 240.135,-61.6542 L 240.931,-61.9126 L 241.762,-62 L 319.3,-62 L 320.536,-61.8042
 L 321.3,-61.4641 L 321.977,-60.9726 L 322.536,-60.3511 L 322.954,-59.627 L 323.213,-58.8316 L 323.3,-58
 L 323.3,-25.5334 L 323.131,-24.3827 L 322.808,-23.6113 L 322.332,-22.924 L 321.723,-22.3507 L 321.008,-21.9165
 L 320.219,-21.6404 L 319.389,-21.5344 z
M 669.181,-21.6404 L 668.392,-21.9165 L 667.677,-22.3507 L 667.068,-22.924 L 666.592,-23.6113 L 666.269,-24.3827
 L 666.1,-25.5334 L 666.1,-58 L 666.187,-58.8316 L 666.446,-59.627 L 666.864,-60.3511 L 667.423,-60.9726
 L 668.1,-61.4641 L 668.864,-61.8042 L 670.1,-62 L 747.638,-62 L 748.469,-61.9126 L 749.265,-61.6542
 L 749.989,-61.2361 L 750.61,-60.6765 L 751.102,-60 L 751.442,-59.2361 L 751.616,-58.4181 L 751.616,-57.5819
 L 751.442,-56.7639 L 751.102,-56 L 750.61,-55.3235 L 749.989,-54.7639 L 749.183,-54.3104 L 671.645,-21.8438
 L 670.844,-21.6033 L 670.011,-21.5344 z
M 156.156,-21.6033 L 155.355,-21.8438 L 77.8173,-54.3104 L 77.0111,-54.7639 L 76.3896,-55.3235 L 75.8981,-56
 L 75.558,-56.7639 L 75.3841,-57.5819 L 75.3841,-58.4181 L 75.558,-59.2361 L 75.8981,-60 L 76.3896,-60.6765
 L 77.0111,-61.2361 L 77.7353,-61.6542 L 78.5306,-61.9126 L 79.3622,-62 L 156.9,-62 L 158.136,-61.8042
 L 158.9,-61.4641 L 159.577,-60.9726 L 160.136,-60.3511 L 160.554,-59.627 L 160.813,-58.8316 L 160.9,-58
 L 160.9,-25.5334 L 160.731,-24.3827 L 160.408,-23.6113 L 159.932,-22.924 L 159.323,-22.3507 L 158.608,-21.9165
 L 157.819,-21.6404 L 156.989,-21.5344 z
M 506.781,-21.6404 L 505.992,-21.9165 L 505.277,-22.3507 L 504.668,-22.924 L 504.192,-23.6113 L 503.869,-24.3827
 L 503.7,-25.5334 L 503.7,-58 L 503.787,-58.8316 L 504.046,-59.627 L 504.464,-60.3511 L 505.023,-60.9726
 L 505.7,-61.4641 L 506.464,-61.8042 L 507.7,-62 L 585.238,-62 L 586.069,-61.9126 L 586.865,-61.6542
 L 587.589,-61.2361 L 588.21,-60.6765 L 588.702,-60 L 589.042,-59.2361 L 589.216,-58.4181 L 589.216,-57.5819
 L 589.042,-56.7639 L 588.702,-56 L 588.21,-55.3235 L 587.589,-54.7639 L 586.783,-54.3104 L 509.245,-21.8438
 L 508.444,-21.6033 L 507.611,-21.5344 z
M 344.882,-19.3877 L 344.064,-19.5615 L 343.3,-19.9017 L 342.623,-20.3932 L 342.064,-21.0146 L 341.646,-21.7388
 L 341.387,-22.5341 L 341.3,-23.3658 L 341.3,-56.6342 L 341.469,-57.785 L 341.792,-58.5564 L 342.268,-59.2437
 L 342.877,-59.817 L 343.592,-60.2512 L 344.381,-60.5273 L 345.211,-60.6333 L 346.044,-60.5644 L 346.845,-60.3239
 L 386.571,-43.6896 L 387.449,-43.1827 L 388.058,-42.6095 L 388.534,-41.9221 L 388.857,-41.1508 L 389.013,-40.3291
 L 388.994,-39.4931 L 388.802,-38.6793 L 388.445,-37.9231 L 387.939,-37.2577 L 387.305,-36.7122 L 386.571,-36.3104
 L 346.845,-19.6761 L 345.718,-19.3877 z
M 480.956,-19.4355 L 480.155,-19.6761 L 440.429,-36.3104 L 439.551,-36.8173 L 438.942,-37.3905 L 438.466,-38.0779
 L 438.143,-38.8492 L 437.987,-39.6709 L 438.006,-40.5069 L 438.198,-41.3207 L 438.555,-42.0769 L 439.061,-42.7423
 L 439.695,-43.2878 L 440.429,-43.6896 L 480.155,-60.3239 L 481.282,-60.6124 L 482.118,-60.6124 L 482.936,-60.4385
 L 483.7,-60.0984 L 484.377,-59.6068 L 484.936,-58.9854 L 485.354,-58.2612 L 485.613,-57.4659 L 485.7,-56.6343
 L 485.7,-23.3657 L 485.531,-22.215 L 485.208,-21.4436 L 484.732,-20.7563 L 484.123,-20.183 L 483.408,-19.7488
 L 482.619,-19.4727 L 481.789,-19.3667 z
M 182.9,-18 L 181.664,-18.1958 L 180.9,-18.5359 L 180.223,-19.0274 L 179.664,-19.6489 L 179.246,-20.373
 L 178.987,-21.1684 L 178.9,-22 L 178.9,-54.4666 L 179.069,-55.6173 L 179.392,-56.3887 L 179.868,-57.076
 L 180.477,-57.6493 L 181.192,-58.0835 L 181.981,-58.3596 L 182.811,-58.4656 L 183.644,-58.3967 L 184.445,-58.1562
 L 261.983,-25.6896 L 262.789,-25.2361 L 263.41,-24.6765 L 263.902,-24 L 264.242,-23.2361 L 264.416,-22.4181
 L 264.416,-21.5819 L 264.242,-20.7639 L 263.902,-20 L 263.41,-19.3235 L 262.789,-18.7639 L 262.065,-18.3458
 L 261.269,-18.0874 L 260.438,-18 z
M 566.562,-18 L 565.731,-18.0874 L 564.935,-18.3458 L 564.211,-18.7639 L 563.59,-19.3235 L 563.098,-20
 L 562.758,-20.7639 L 562.584,-21.5819 L 562.584,-22.4181 L 562.758,-23.2361 L 563.098,-24 L 563.59,-24.6765
 L 564.211,-25.2361 L 565.017,-25.6896 L 642.555,-58.1562 L 643.356,-58.3967 L 644.189,-58.4656 L 645.019,-58.3596
 L 645.808,-58.0835 L 646.523,-57.6493 L 647.132,-57.076 L 647.608,-56.3887 L 647.931,-55.6173 L 648.1,-54.4666
 L 648.1,-22 L 648.013,-21.1684 L 647.754,-20.373 L 647.336,-19.6489 L 646.777,-19.0274 L 646.1,-18.5359
 L 645.336,-18.1958 L 644.1,-18 z
M 22,-18 L 20.7639,-18.1958 L 20,-18.5359 L 19.3235,-19.0274 L 18.7639,-19.6489 L 18.3458,-20.373
 L 18.0874,-21.1684 L 18,-22 L 18,-53.8385 L 18.1691,-54.9892 L 18.4921,-55.7606 L 18.9684,-56.4479
 L 19.5772,-57.0212 L 20.2918,-57.4554 L 21.0812,-57.7315 L 21.9106,-57.8375 L 22.744,-57.7687 L 23.5449,-57.5281
 L 99.5827,-25.6896 L 100.389,-25.2361 L 101.01,-24.6765 L 101.502,-24 L 101.842,-23.2361 L 102.016,-22.4181
 L 102.016,-21.5819 L 101.842,-20.7639 L 101.502,-20 L 101.01,-19.3235 L 100.389,-18.7639 L 99.6647,-18.3458
 L 98.8694,-18.0874 L 98.0378,-18 z
M 728.962,-18 L 728.131,-18.0874 L 727.335,-18.3458 L 726.611,-18.7639 L 725.99,-19.3235 L 725.498,-20
 L 725.158,-20.7639 L 724.984,-21.5819 L 724.984,-22.4181 L 725.158,-23.2361 L 725.498,-24 L 725.99,-24.6765
 L 726.611,-25.2361 L 727.417,-25.6896 L 803.455,-57.5281 L 804.256,-57.7687 L 805.089,-57.8375 L 805.919,-57.7315
 L 806.708,-57.4554 L 807.423,-57.0212 L 808.032,-56.4479 L 808.508,-55.7606 L 808.831,-54.9892 L 809,-53.8385
 L 809,-22 L 808.913,-21.1684 L 808.654,-20.373 L 808.236,-19.6489 L 807.677,-19.0274 L 807,-18.5359
 L 806.236,-18.1958 L 805,-18 z
M 398.985,-18 L 398.066,-18.107 L 397.277,-18.3831 L 396.562,-18.8173 L 395.954,-19.3905 L 395.477,-20.0779
 L 395.154,-20.8492 L 394.999,-21.6709 L 395.017,-22.5069 L 395.21,-23.3207 L 395.567,-24.0769 L 396.073,-24.7423
 L 396.707,-25.2878 L 397.44,-25.6896 L 411.955,-31.7672 L 412.581,-31.9706 L 413.411,-32.0766 L 414.244,-32.0078
 L 415.045,-31.7672 L 429.56,-25.6896 L 430.366,-25.2361 L 430.987,-24.6765 L 431.479,-24 L 431.819,-23.2361
 L 431.993,-22.4181 L 431.993,-21.5819 L 431.819,-20.7639 L 431.479,-20 L 430.987,-19.3235 L 430.366,-18.7639
 L 429.642,-18.3458 L 428.846,-18.0874 L 428.015,-18 z
" stroke="black" fill="lightgray" stroke-width="0.5"/>
</svg>
