<?xml version="1.0" standalone="no"?>
<!DOCTYPE svg PUBLIC "-//W3C//DTD SVG 1.1//EN" "http://www.w3.org/Graphics/SVG/1.1/DTD/svg11.dtd">
<svg width="773mm" height="80mm" viewBox="0 -80 773 80" xmlns="http://www.w3.org/2000/svg" version="1.1">
<title>OpenSCAD Model</title>
<path d="
M 773,-80 L 0,-80 L 0,-0 L 4.95,-0 L 4.95,-6 L 5.00572,-6.53017
 L 5.17046,-7.03717 L 5.437,-7.49884 L 5.79372,-7.895 L 6.22499,-8.20836 L 6.71201,-8.42519 L 7.23344,-8.53603
 L 7.76654,-8.53603 L 8.28798,-8.42519 L 8.77499,-8.20836 L 9.20627,-7.895 L 9.56299,-7.49884 L 9.82953,-7.03717
 L 9.99426,-6.53017 L 10.05,-6 L 10.05,-0 L 156.55,-0 L 156.55,-6 L 156.606,-6.53017
 L 156.77,-7.03717 L 157.037,-7.49884 L 157.394,-7.895 L 157.825,-8.20836 L 158.312,-8.42519 L 158.833,-8.53603
 L 159.367,-8.53603 L 159.888,-8.42519 L 160.375,-8.20836 L 160.806,-7.895 L 161.163,-7.49884 L 161.43,-7.03717
 L 161.594,-6.53017 L 161.65,-6 L 161.65,-0 L 308.15,-0 L 308.15,-6 L 308.206,-6.53017
 L 308.37,-7.03717 L 308.637,-7.49884 L 308.994,-7.895 L 309.425,-8.20836 L 309.912,-8.42519 L 310.433,-8.53603
 L 310.967,-8.53603 L 311.488,-8.42519 L 311.975,-8.20836 L 312.406,-7.895 L 312.763,-7.49884 L 313.03,-7.03717
 L 313.194,-6.53017 L 313.25,-6 L 313.25,-0 L 459.75,-0 L 459.75,-6 L 459.806,-6.53017
 L 459.97,-7.03717 L 460.237,-7.49884 L 460.594,-7.895 L 461.025,-8.20836 L 461.512,-8.42519 L 462.033,-8.53603
 L 462.567,-8.53603 L 463.088,-8.42519 L 463.575,-8.20836 L 464.006,-7.895 L 464.363,-7.49884 L 464.63,-7.03717
 L 464.794,-6.53017 L 464.85,-6 L 464.85,-0 L 611.35,-0 L 611.35,-6 L 611.406,-6.53017
 L 611.57,-7.03717 L 611.837,-7.49884 L 612.194,-7.895 L 612.625,-8.20836 L 613.112,-8.42519 L 613.633,-8.53603
 L 614.167,-8.53603 L 614.688,-8.42519 L 615.175,-8.20836 L 615.606,-7.895 L 615.963,-7.49884 L 616.23,-7.03717
 L 616.394,-6.53017 L 616.45,-6 L 616.45,-0 L 762.95,-0 L 762.95,-6 L 763.006,-6.53017
 L 763.17,-7.03717 L 763.437,-7.49884 L 763.794,-7.895 L 764.225,-8.20836 L 764.712,-8.42519 L 765.233,-8.53603
 L 765.767,-8.53603 L 766.288,-8.42519 L 766.775,-8.20836 L 767.206,-7.895 L 767.563,-7.49884 L 767.83,-7.03717
 L 767.994,-6.53017 L 768.05,-6 L 768.05,-0 L 773,-0 z
M 6.98573,-55.607 L 6.47708,-55.6875 L 5.97964,-55.8208 L 5.49887,-56.0054 L 5.04001,-56.2392 L 4.60811,-56.5196
 L 4.20789,-56.8437 L 3.84373,-57.2079 L 3.51964,-57.6081 L 3.23917,-58.04 L 3.00537,-58.4989 L 2.82082,-58.9796
 L 2.68752,-59.4771 L 2.60696,-59.9857 L 2.58,-60.5 L 2.60696,-61.0143 L 2.68752,-61.5229 L 2.82082,-62.0204
 L 3.00537,-62.5011 L 3.23917,-62.96 L 3.51964,-63.3919 L 3.84373,-63.7921 L 4.20789,-64.1563 L 4.60811,-64.4804
 L 4.95001,-64.7024 L 4.95001,-74 L 5.00574,-74.5302 L 5.17047,-75.0372 L 5.43701,-75.4988 L 5.79373,-75.895
 L 6.22501,-76.2084 L 6.71202,-76.4252 L 7.23346,-76.536 L 7.76654,-76.536 L 8.28798,-76.4252 L 8.77499,-76.2084
 L 9.20627,-75.895 L 9.56299,-75.4988 L 9.82953,-75.0372 L 9.99426,-74.5302 L 10.05,-74 L 10.05,-64.7024
 L 10.3919,-64.4804 L 10.7921,-64.1563 L 11.1563,-63.7921 L 11.4804,-63.3919 L 11.7608,-62.96 L 11.9946,-62.5011
 L 12.1792,-62.0204 L 12.3125,-61.5229 L 12.393,-61.0143 L 12.42,-60.5 L 12.393,-59.9857 L 12.3125,-59.4771
 L 12.1792,-58.9796 L 11.9946,-58.4989 L 11.7608,-58.04 L 11.4804,-57.6081 L 11.1563,-57.2079 L 10.7921,-56.8437
 L 10.3919,-56.5196 L 9.95999,-56.2392 L 9.50113,-56.0054 L 9.02036,-55.8208 L 8.52292,-55.6875 L 8.01427,-55.607
 L 7.5,-55.58 z
M 158.586,-55.607 L 158.077,-55.6875 L 157.58,-55.8208 L 157.099,-56.0054 L 156.64,-56.2392 L 156.208,-56.5196
 L 155.808,-56.8437 L 155.444,-57.2079 L 155.12,-57.6081 L 154.839,-58.04 L 154.605,-58.4989 L 154.421,-58.9796
 L 154.288,-59.4771 L 154.207,-59.9857 L 154.18,-60.5 L 154.207,-61.0143 L 154.288,-61.5229 L 154.421,-62.0204
 L 154.605,-62.5011 L 154.839,-62.96 L 155.12,-63.3919 L 155.444,-63.7921 L 155.808,-64.1563 L 156.208,-64.4804
 L 156.55,-64.7024 L 156.55,-74 L 156.606,-74.5302 L 156.77,-75.0372 L 157.037,-75.4988 L 157.394,-75.895
 L 157.825,-76.2084 L 158.312,-76.4252 L 158.833,-76.536 L 159.367,-76.536 L 159.888,-76.4252 L 160.375,-76.2084
 L 160.806,-75.895 L 161.163,-75.4988 L 161.43,-75.0372 L 161.594,-74.5302 L 161.65,-74 L 161.65,-64.7024
 L 161.992,-64.4804 L 162.392,-64.1563 L 162.756,-63.7921 L 163.08,-63.3919 L 163.361,-62.96 L 163.595,-62.5011
 L 163.779,-62.0204 L 163.912,-61.5229 L 163.993,-61.0143 L 164.02,-60.5 L 163.993,-59.9857 L 163.912,-59.4771
 L 163.779,-58.9796 L 163.595,-58.4989 L 163.361,-58.04 L 163.08,-57.6081 L 162.756,-57.2079 L 162.392,-56.8437
 L 161.992,-56.5196 L 161.56,-56.2392 L 161.101,-56.0054 L 160.62,-55.8208 L 160.123,-55.6875 L 159.614,-55.607
 L 159.1,-55.58 z
M 310.186,-55.607 L 309.677,-55.6875 L 309.18,-55.8208 L 308.699,-56.0054 L 308.24,-56.2392 L 307.808,-56.5196
 L 307.408,-56.8437 L 307.044,-57.2079 L 306.72,-57.6081 L 306.439,-58.04 L 306.205,-58.4989 L 306.021,-58.9796
 L 305.888,-59.4771 L 305.807,-59.9857 L 305.78,-60.5 L 305.807,-61.0143 L 305.888,-61.5229 L 306.021,-62.0204
 L 306.205,-62.5011 L 306.439,-62.96 L 306.72,-63.3919 L 307.044,-63.7921 L 307.408,-64.1563 L 307.808,-64.4804
 L 308.15,-64.7024 L 308.15,-74 L 308.206,-74.5302 L 308.37,-75.0372 L 308.637,-75.4988 L 308.994,-75.895
 L 309.425,-76.2084 L 309.912,-76.4252 L 310.433,-76.536 L 310.967,-76.536 L 311.488,-76.4252 L 311.975,-76.2084
 L 312.406,-75.895 L 312.763,-75.4988 L 313.03,-75.0372 L 313.194,-74.5302 L 313.25,-74 L 313.25,-64.7024
 L 313.592,-64.4804 L 313.992,-64.1563 L 314.356,-63.7921 L 314.68,-63.3919 L 314.961,-62.96 L 315.195,-62.5011
 L 315.379,-62.0204 L 315.512,-61.5229 L 315.593,-61.0143 L 315.62,-60.5 L 315.593,-59.9857 L 315.512,-59.4771
 L 315.379,-58.9796 L 315.195,-58.4989 L 314.961,-58.04 L 314.68,-57.6081 L 314.356,-57.2079 L 313.992,-56.8437
 L 313.592,-56.5196 L 313.16,-56.2392 L 312.701,-56.0054 L 312.22,-55.8208 L 311.723,-55.6875 L 311.214,-55.607
 L 310.7,-55.58 z
M 461.786,-55.607 L 461.277,-55.6875 L 460.78,-55.8208 L 460.299,-56.0054 L 459.84,-56.2392 L 459.408,-56.5196
 L 459.008,-56.8437 L 458.644,-57.2079 L 458.32,-57.6081 L 458.039,-58.04 L 457.805,-58.4989 L 457.621,-58.9796
 L 457.488,-59.4771 L 457.407,-59.9857 L 457.38,-60.5 L 457.407,-61.0143 L 457.488,-61.5229 L 457.621,-62.0204
 L 457.805,-62.5011 L 458.039,-62.96 L 458.32,-63.3919 L 458.644,-63.7921 L 459.008,-64.1563 L 459.408,-64.4804
 L 459.75,-64.7024 L 459.75,-74 L 459.806,-74.5302 L 459.97,-75.0372 L 460.237,-75.4988 L 460.594,-75.895
 L 461.025,-76.2084 L 461.512,-76.4252 L 462.033,-76.536 L 462.567,-76.536 L 463.088,-76.4252 L 463.575,-76.2084
 L 464.006,-75.895 L 464.363,-75.4988 L 464.63,-75.0372 L 464.794,-74.5302 L 464.85,-74 L 464.85,-64.7024
 L 465.192,-64.4804 L 465.592,-64.1563 L 465.956,-63.7921 L 466.28,-63.3919 L 466.561,-62.96 L 466.795,-62.5011
 L 466.979,-62.0204 L 467.112,-61.5229 L 467.193,-61.0143 L 467.22,-60.5 L 467.193,-59.9857 L 467.112,-59.4771
 L 466.979,-58.9796 L 466.795,-58.4989 L 466.561,-58.04 L 466.28,-57.6081 L 465.956,-57.2079 L 465.592,-56.8437
 L 465.192,-56.5196 L 464.76,-56.2392 L 464.301,-56.0054 L 463.82,-55.8208 L 463.323,-55.6875 L 462.814,-55.607
 L 462.3,-55.58 z
M 613.386,-55.607 L 612.877,-55.6875 L 612.38,-55.8208 L 611.899,-56.0054 L 611.44,-56.2392 L 611.008,-56.5196
 L 610.608,-56.8437 L 610.244,-57.2079 L 609.92,-57.6081 L 609.639,-58.04 L 609.405,-58.4989 L 609.221,-58.9796
 L 609.088,-59.4771 L 609.007,-59.9857 L 608.98,-60.5 L 609.007,-61.0143 L 609.088,-61.5229 L 609.221,-62.0204
 L 609.405,-62.5011 L 609.639,-62.96 L 609.92,-63.3919 L 610.244,-63.7921 L 610.608,-64.1563 L 611.008,-64.4804
 L 611.35,-64.7024 L 611.35,-74 L 611.406,-74.5302 L 611.57,-75.0372 L 611.837,-75.4988 L 612.194,-75.895
 L 612.625,-76.2084 L 613.112,-76.4252 L 613.633,-76.536 L 614.167,-76.536 L 614.688,-76.4252 L 615.175,-76.2084
 L 615.606,-75.895 L 615.963,-75.4988 L 616.23,-75.0372 L 616.394,-74.5302 L 616.45,-74 L 616.45,-64.7024
 L 616.792,-64.4804 L 617.192,-64.1563 L 617.556,-63.7921 L 617.88,-63.3919 L 618.161,-62.96 L 618.395,-62.5011
 L 618.579,-62.0204 L 618.712,-61.5229 L 618.793,-61.0143 L 618.82,-60.5 L 618.793,-59.9857 L 618.712,-59.4771
 L 618.579,-58.9796 L 618.395,-58.4989 L 618.161,-58.04 L 617.88,-57.6081 L 617.556,-57.2079 L 617.192,-56.8437
 L 616.792,-56.5196 L 616.36,-56.2392 L 615.901,-56.0054 L 615.42,-55.8208 L 614.923,-55.6875 L 614.414,-55.607
 L 613.9,-55.58 z
M 764.986,-55.607 L 764.477,-55.6875 L 763.98,-55.8208 L 763.499,-56.0054 L 763.04,-56.2392 L 762.608,-56.5196
 L 762.208,-56.8437 L 761.844,-57.2079 L 761.52,-57.6081 L 761.239,-58.04 L 761.005,-58.4989 L 760.821,-58.9796
 L 760.688,-59.4771 L 760.607,-59.9857 L 760.58,-60.5 L 760.607,-61.0143 L 760.688,-61.5229 L 760.821,-62.0204
 L 761.005,-62.5011 L 761.239,-62.96 L 761.52,-63.3919 L 761.844,-63.7921 L 762.208,-64.1563 L 762.608,-64.4804
 L 762.95,-64.7024 L 762.95,-74 L 763.006,-74.5302 L 763.17,-75.0372 L 763.437,-75.4988 L 763.794,-75.895
 L 764.225,-76.2084 L 764.712,-76.4252 L 765.233,-76.536 L 765.767,-76.536 L 766.288,-76.4252 L 766.775,-76.2084
 L 767.206,-75.895 L 767.563,-75.4988 L 767.83,-75.0372 L 767.994,-74.5302 L 768.05,-74 L 768.05,-64.7024
 L 768.392,-64.4804 L 768.792,-64.1563 L 769.156,-63.7921 L 769.48,-63.3919 L 769.761,-62.96 L 769.995,-62.5011
 L 770.179,-62.0204 L 770.312,-61.5229 L 770.393,-61.0143 L 770.42,-60.5 L 770.393,-59.9857 L 770.312,-59.4771
 L 770.179,-58.9796 L 769.995,-58.4989 L 769.761,-58.04 L 769.48,-57.6081 L 769.156,-57.2079 L 768.792,-56.8437
 L 768.392,-56.5196 L 767.96,-56.2392 L 767.501,-56.0054 L 767.02,-55.8208 L 766.523,-55.6875 L 766.014,-55.607
 L 765.5,-55.58 z
M 385.658,-48.1456 L 384.863,-48.4062 L 371.611,-54.3503 L 370.897,-54.7639 L 370.275,-55.3235 L 369.784,-56
 L 369.444,-56.7639 L 369.27,-57.5819 L 369.27,-58.4181 L 369.444,-59.2361 L 369.784,-60 L 370.275,-60.6765
 L 370.897,-61.2361 L 371.621,-61.6542 L 372.416,-61.9126 L 373.248,-62 L 399.752,-62 L 400.573,-61.9149
 L 401.369,-61.6587 L 402.094,-61.2426 L 402.717,-60.6847 L 403.21,-60.0096 L 403.553,-59.2466 L 403.729,-58.4291
 L 403.731,-57.5929 L 403.56,-56.7745 L 403.222,-56.0096 L 402.732,-55.3317 L 402.112,-54.7704 L 401.389,-54.3503
 L 388.137,-48.4062 L 387.321,-48.141 L 386.489,-48.0559 z
M 296.858,-22.1687 L 296.063,-22.4293 L 224.898,-54.3503 L 224.184,-54.7639 L 223.562,-55.3235 L 223.071,-56
 L 222.731,-56.7639 L 222.557,-57.5819 L 222.557,-58.4181 L 222.731,-59.2361 L 223.071,-60 L 223.562,-60.6765
 L 224.184,-61.2361 L 224.908,-61.6542 L 225.703,-61.9126 L 226.535,-62 L 297.7,-62 L 298.936,-61.8042
 L 299.7,-61.4641 L 300.377,-60.9726 L 300.936,-60.3511 L 301.354,-59.627 L 301.613,-58.8316 L 301.7,-58
 L 301.7,-26.0789 L 301.677,-25.6498 L 301.501,-24.8324 L 301.159,-24.0694 L 300.665,-23.3942 L 300.042,-22.8364
 L 299.317,-22.4203 L 298.521,-22.1641 L 297.689,-22.079 z
M 626.079,-22.1641 L 625.283,-22.4203 L 624.558,-22.8364 L 623.935,-23.3942 L 623.441,-24.0694 L 623.099,-24.8324
 L 622.923,-25.6498 L 622.9,-26.0789 L 622.9,-58 L 622.987,-58.8316 L 623.246,-59.627 L 623.664,-60.3511
 L 624.223,-60.9726 L 624.9,-61.4641 L 625.664,-61.8042 L 626.9,-62 L 698.065,-62 L 698.897,-61.9126
 L 699.692,-61.6542 L 700.416,-61.2361 L 701.038,-60.6765 L 701.529,-60 L 701.869,-59.2361 L 702.043,-58.4181
 L 702.043,-57.5819 L 701.869,-56.7639 L 701.529,-56 L 701.038,-55.3235 L 700.416,-54.7639 L 699.702,-54.3503
 L 628.537,-22.4293 L 627.742,-22.1687 L 626.911,-22.079 z
M 145.258,-22.1687 L 144.463,-22.4293 L 73.2978,-54.3503 L 72.5837,-54.7639 L 71.9623,-55.3235 L 71.4707,-56
 L 71.1306,-56.7639 L 70.9568,-57.5819 L 70.9568,-58.4181 L 71.1306,-59.2361 L 71.4707,-60 L 71.9623,-60.6765
 L 72.5837,-61.2361 L 73.3079,-61.6542 L 74.1032,-61.9126 L 74.9348,-62 L 146.1,-62 L 147.336,-61.8042
 L 148.1,-61.4641 L 148.777,-60.9726 L 149.336,-60.3511 L 149.754,-59.627 L 150.013,-58.8316 L 150.1,-58
 L 150.1,-26.0789 L 150.077,-25.6498 L 149.901,-24.8324 L 149.559,-24.0694 L 149.065,-23.3942 L 148.442,-22.8364
 L 147.717,-22.4203 L 146.921,-22.1641 L 146.089,-22.079 z
M 474.479,-22.1641 L 473.683,-22.4203 L 472.958,-22.8364 L 472.335,-23.3942 L 471.841,-24.0694 L 471.499,-24.8324
 L 471.323,-25.6498 L 471.3,-26.0789 L 471.3,-58 L 471.387,-58.8316 L 471.646,-59.627 L 472.064,-60.3511
 L 472.623,-60.9726 L 473.3,-61.4641 L 474.064,-61.8042 L 475.3,-62 L 546.465,-62 L 547.297,-61.9126
 L 548.092,-61.6542 L 548.816,-61.2361 L 549.438,-60.6765 L 549.929,-60 L 550.269,-59.2361 L 550.443,-58.4181
 L 550.443,-57.5819 L 550.269,-56.7639 L 549.929,-56 L 549.438,-55.3235 L 548.816,-54.7639 L 548.102,-54.3503
 L 476.937,-22.4293 L 476.142,-22.1687 L 475.311,-22.079 z
M 323.282,-19.9089 L 322.464,-20.0828 L 321.7,-20.4229 L 321.023,-20.9144 L 320.464,-21.5359 L 320.046,-22.26
 L 319.787,-23.0553 L 319.7,-23.887 L 319.7,-56.113 L 319.723,-56.5421 L 319.899,-57.3596 L 320.241,-58.1226
 L 320.735,-58.7977 L 321.358,-59.3556 L 322.083,-59.7717 L 322.879,-60.0279 L 323.711,-60.113 L 324.542,-60.0233
 L 325.337,-59.7627 L 361.26,-43.6497 L 361.965,-43.2426 L 362.588,-42.6847 L 363.081,-42.0096 L 363.423,-41.2466
 L 363.599,-40.4291 L 363.602,-39.5929 L 363.43,-38.7745 L 363.092,-38.0096 L 362.603,-37.3317 L 361.983,-36.7704
 L 361.26,-36.3503 L 325.337,-20.2373 L 324.936,-20.0828 L 324.118,-19.9089 z
M 448.458,-19.9767 L 447.663,-20.2373 L 411.74,-36.3503 L 411.035,-36.7574 L 410.412,-37.3153 L 409.919,-37.9904
 L 409.577,-38.7534 L 409.401,-39.5709 L 409.398,-40.4071 L 409.57,-41.2255 L 409.908,-41.9904 L 410.397,-42.6683
 L 411.017,-43.2296 L 411.74,-43.6497 L 447.663,-59.7627 L 448.064,-59.9173 L 448.882,-60.0911 L 449.718,-60.0911
 L 450.536,-59.9173 L 451.3,-59.5771 L 451.977,-59.0856 L 452.536,-58.4642 L 452.954,-57.74 L 453.213,-56.9447
 L 453.3,-56.113 L 453.3,-23.887 L 453.277,-23.4579 L 453.101,-22.6404 L 452.759,-21.8774 L 452.265,-21.2022
 L 451.642,-20.6444 L 450.917,-20.2283 L 450.121,-19.9721 L 449.289,-19.887 z
M 172.1,-18 L 170.864,-18.1958 L 170.1,-18.5359 L 169.423,-19.0274 L 168.864,-19.6489 L 168.446,-20.373
 L 168.187,-21.1684 L 168.1,-22 L 168.1,-53.921 L 168.123,-54.3502 L 168.299,-55.1676 L 168.641,-55.9306
 L 169.135,-56.6058 L 169.758,-57.1636 L 170.483,-57.5797 L 171.279,-57.8359 L 172.111,-57.921 L 172.942,-57.8313
 L 173.737,-57.5707 L 244.902,-25.6497 L 245.616,-25.2361 L 246.238,-24.6765 L 246.729,-24 L 247.069,-23.2361
 L 247.243,-22.4181 L 247.243,-21.5819 L 247.069,-20.7639 L 246.729,-20 L 246.238,-19.3235 L 245.616,-18.7639
 L 244.892,-18.3458 L 244.097,-18.0874 L 243.265,-18 z
M 529.735,-18 L 528.903,-18.0874 L 528.108,-18.3458 L 527.384,-18.7639 L 526.762,-19.3235 L 526.271,-20
 L 525.931,-20.7639 L 525.757,-21.5819 L 525.757,-22.4181 L 525.931,-23.2361 L 526.271,-24 L 526.762,-24.6765
 L 527.384,-25.2361 L 528.098,-25.6497 L 599.263,-57.5707 L 600.058,-57.8313 L 600.889,-57.921 L 601.721,-57.8359
 L 602.517,-57.5797 L 603.242,-57.1636 L 603.865,-56.6058 L 604.359,-55.9306 L 604.701,-55.1676 L 604.877,-54.3502
 L 604.9,-53.921 L 604.9,-22 L 604.813,-21.1684 L 604.554,-20.373 L 604.136,-19.6489 L 603.577,-19.0274
 L 602.9,-18.5359 L 602.136,-18.1958 L 600.9,-18 z
M 22,-18 L 20.7639,-18.1958 L 20,-18.5359 L 19.3235,-19.0274 L 18.7639,-19.6489 L 18.3458,-20.373
 L 18.0874,-21.1684 L 18,-22 L 18,-53.2482 L 18.0231,-53.6773 L 18.1992,-54.4948 L 18.5414,-55.2578
 L 19.0348,-55.933 L 19.6578,-56.4908 L 20.3832,-56.9069 L 21.1792,-57.1631 L 22.0111,-57.2482 L 22.8425,-57.1585
 L 23.6371,-56.8979 L 93.3022,-25.6497 L 94.0163,-25.2361 L 94.6377,-24.6765 L 95.1292,-24 L 95.4694,-23.2361
 L 95.6432,-22.4181 L 95.6432,-21.5819 L 95.4694,-20.7639 L 95.1292,-20 L 94.6377,-19.3235 L 94.0163,-18.7639
 L 93.2921,-18.3458 L 92.4968,-18.0874 L 91.6651,-18 z
M 681.335,-18 L 680.503,-18.0874 L 679.708,-18.3458 L 678.984,-18.7639 L 678.362,-19.3235 L 677.871,-20
 L 677.531,-20.7639 L 677.357,-21.5819 L 677.357,-22.4181 L 677.531,-23.2361 L 677.871,-24 L 678.362,-24.6765
 L 678.984,-25.2361 L 679.698,-25.6497 L 749.363,-56.8979 L 750.158,-57.1585 L 750.989,-57.2482 L 751.821,-57.1631
 L 752.617,-56.9069 L 753.342,-56.4908 L 753.965,-55.933 L 754.459,-55.2578 L 754.801,-54.4948 L 754.977,-53.6773
 L 755,-53.2482 L 755,-22 L 754.913,-21.1684 L 754.654,-20.373 L 754.236,-19.6489 L 753.677,-19.0274
 L 753,-18.5359 L 752.236,-18.1958 L 751,-18 z
M 373.248,-18 L 372.427,-18.0851 L 371.631,-18.3413 L 370.906,-18.7574 L 370.283,-19.3153 L 369.789,-19.9904
 L 369.447,-20.7534 L 369.271,-21.5709 L 369.269,-22.4071 L 369.44,-23.2255 L 369.778,-23.9904 L 370.268,-24.6683
 L 370.888,-25.2296 L 371.611,-25.6497 L 384.863,-31.5938 L 385.679,-31.859 L 386.511,-31.9441 L 387.342,-31.8544
 L 388.137,-31.5938 L 401.389,-25.6497 L 402.103,-25.2361 L 402.725,-24.6765 L 403.216,-24 L 403.556,-23.2361
 L 403.73,-22.4181 L 403.73,-21.5819 L 403.556,-20.7639 L 403.216,-20 L 402.725,-19.3235 L 402.103,-18.7639
 L 401.379,-18.3458 L 400.584,-18.0874 L 399.752,-18 z
" stroke="black" fill="lightgray" stroke-width="0.5"/>
</svg>
