<?xml version="1.0" standalone="no"?>
<!DOCTYPE svg PUBLIC "-//W3C//DTD SVG 1.1//EN" "http://www.w3.org/Graphics/SVG/1.1/DTD/svg11.dtd">
<svg width="715mm" height="80mm" viewBox="0 -80 715 80" xmlns="http://www.w3.org/2000/svg" version="1.1">
<title>OpenSCAD Model</title>
<path d="
M 715,-80 L 0,-80 L 0,-0 L 4.95,-0 L 4.95,-6 L 5.00572,-6.53017
 L 5.17046,-7.03717 L 5.437,-7.49884 L 5.79372,-7.895 L 6.22499,-8.20836 L 6.71201,-8.42519 L 7.23344,-8.53603
 L 7.76654,-8.53603 L 8.28798,-8.42519 L 8.77499,-8.20836 L 9.20627,-7.895 L 9.56299,-7.49884 L 9.82953,-7.03717
 L 9.99426,-6.53017 L 10.05,-6 L 10.05,-0 L 144.95,-0 L 144.95,-6 L 145.006,-6.53017
 L 145.17,-7.03717 L 145.437,-7.49884 L 145.794,-7.895 L 146.225,-8.20836 L 146.712,-8.42519 L 147.233,-8.53603
 L 147.767,-8.53603 L 148.288,-8.42519 L 148.775,-8.20836 L 149.206,-7.895 L 149.563,-7.49884 L 149.83,-7.03717
 L 149.994,-6.53017 L 150.05,-6 L 150.05,-0 L 284.95,-0 L 284.95,-6 L 285.006,-6.53017
 L 285.17,-7.03717 L 285.437,-7.49884 L 285.794,-7.895 L 286.225,-8.20836 L 286.712,-8.42519 L 287.233,-8.53603
 L 287.767,-8.53603 L 288.288,-8.42519 L 288.775,-8.20836 L 289.206,-7.895 L 289.563,-7.49884 L 289.83,-7.03717
 L 289.994,-6.53017 L 290.05,-6 L 290.05,-0 L 424.95,-0 L 424.95,-6 L 425.006,-6.53017
 L 425.17,-7.03717 L 425.437,-7.49884 L 425.794,-7.895 L 426.225,-8.20836 L 426.712,-8.42519 L 427.233,-8.53603
 L 427.767,-8.53603 L 428.288,-8.42519 L 428.775,-8.20836 L 429.206,-7.895 L 429.563,-7.49884 L 429.83,-7.03717
 L 429.994,-6.53017 L 430.05,-6 L 430.05,-0 L 564.95,-0 L 564.95,-6 L 565.006,-6.53017
 L 565.17,-7.03717 L 565.437,-7.49884 L 565.794,-7.895 L 566.225,-8.20836 L 566.712,-8.42519 L 567.233,-8.53603
 L 567.767,-8.53603 L 568.288,-8.42519 L 568.775,-8.20836 L 569.206,-7.895 L 569.563,-7.49884 L 569.83,-7.03717
 L 569.994,-6.53017 L 570.05,-6 L 570.05,-0 L 704.95,-0 L 704.95,-6 L 705.006,-6.53017
 L 705.17,-7.03717 L 705.437,-7.49884 L 705.794,-7.895 L 706.225,-8.20836 L 706.712,-8.42519 L 707.233,-8.53603
 L 707.767,-8.53603 L 708.288,-8.42519 L 708.775,-8.20836 L 709.206,-7.895 L 709.563,-7.49884 L 709.83,-7.03717
 L 709.994,-6.53017 L 710.05,-6 L 710.05,-0 L 715,-0 z
M 6.98573,-55.607 L 6.47708,-55.6875 L 5.97964,-55.8208 L 5.49887,-56.0054 L 5.04001,-56.2392 L 4.60811,-56.5196
 L 4.20789,-56.8437 L 3.84373,-57.2079 L 3.51964,-57.6081 L 3.23917,-58.04 L 3.00537,-58.4989 L 2.82082,-58.9796
 L 2.68752,-59.4771 L 2.60696,-59.9857 L 2.58,-60.5 L 2.60696,-61.0143 L 2.68752,-61.5229 L 2.82082,-62.0204
 L 3.00537,-62.5011 L 3.23917,-62.96 L 3.51964,-63.3919 L 3.84373,-63.7921 L 4.20789,-64.1563 L 4.60811,-64.4804
 L 4.95001,-64.7024 L 4.95001,-74 L 5.00574,-74.5302 L 5.17047,-75.0372 L 5.43701,-75.4988 L 5.79373,-75.895
 L 6.22501,-76.2084 L 6.71202,-76.4252 L 7.23346,-76.536 L 7.76654,-76.536 L 8.28798,-76.4252 L 8.77499,-76.2084
 L 9.20627,-75.895 L 9.56299,-75.4988 L 9.82953,-75.0372 L 9.99426,-74.5302 L 10.05,-74 L 10.05,-64.7024
 L 10.3919,-64.4804 L 10.7921,-64.1563 L 11.1563,-63.7921 L 11.4804,-63.3919 L 11.7608,-62.96 L 11.9946,-62.5011
 L 12.1792,-62.0204 L 12.3125,-61.5229 L 12.393,-61.0143 L 12.42,-60.5 L 12.393,-59.9857 L 12.3125,-59.4771
 L 12.1792,-58.9796 L 11.9946,-58.4989 L 11.7608,-58.04 L 11.4804,-57.6081 L 11.1563,-57.2079 L 10.7921,-56.8437
 L 10.3919,-56.5196 L 9.95999,-56.2392 L 9.50113,-56.0054 L 9.02036,-55.8208 L 8.52292,-55.6875 L 8.01427,-55.607
 L 7.5,-55.58 z
M 146.986,-55.607 L 146.477,-55.6875 L 145.98,-55.8208 L 145.499,-56.0054 L 145.04,-56.2392 L 144.608,-56.5196
 L 144.208,-56.8437 L 143.844,-57.2079 L 143.52,-57.6081 L 143.239,-58.04 L 143.005,-58.4989 L 142.821,-58.9796
 L 142.688,-59.4771 L 142.607,-59.9857 L 142.58,-60.5 L 142.607,-61.0143 L 142.688,-61.5229 L 142.821,-62.0204
 L 143.005,-62.5011 L 143.239,-62.96 L 143.52,-63.3919 L 143.844,-63.7921 L 144.208,-64.1563 L 144.608,-64.4804
 L 144.95,-64.7024 L 144.95,-74 L 145.006,-74.5302 L 145.17,-75.0372 L 145.437,-75.4988 L 145.794,-75.895
 L 146.225,-76.2084 L 146.712,-76.4252 L 147.233,-76.536 L 147.767,-76.536 L 148.288,-76.4252 L 148.775,-76.2084
 L 149.206,-75.895 L 149.563,-75.4988 L 149.83,-75.0372 L 149.994,-74.5302 L 150.05,-74 L 150.05,-64.7024
 L 150.392,-64.4804 L 150.792,-64.1563 L 151.156,-63.7921 L 151.48,-63.3919 L 151.761,-62.96 L 151.995,-62.5011
 L 152.179,-62.0204 L 152.312,-61.5229 L 152.393,-61.0143 L 152.42,-60.5 L 152.393,-59.9857 L 152.312,-59.4771
 L 152.179,-58.9796 L 151.995,-58.4989 L 151.761,-58.04 L 151.48,-57.6081 L 151.156,-57.2079 L 150.792,-56.8437
 L 150.392,-56.5196 L 149.96,-56.2392 L 149.501,-56.0054 L 149.02,-55.8208 L 148.523,-55.6875 L 148.014,-55.607
 L 147.5,-55.58 z
M 286.986,-55.607 L 286.477,-55.6875 L 285.98,-55.8208 L 285.499,-56.0054 L 285.04,-56.2392 L 284.608,-56.5196
 L 284.208,-56.8437 L 283.844,-57.2079 L 283.52,-57.6081 L 283.239,-58.04 L 283.005,-58.4989 L 282.821,-58.9796
 L 282.688,-59.4771 L 282.607,-59.9857 L 282.58,-60.5 L 282.607,-61.0143 L 282.688,-61.5229 L 282.821,-62.0204
 L 283.005,-62.5011 L 283.239,-62.96 L 283.52,-63.3919 L 283.844,-63.7921 L 284.208,-64.1563 L 284.608,-64.4804
 L 284.95,-64.7024 L 284.95,-74 L 285.006,-74.5302 L 285.17,-75.0372 L 285.437,-75.4988 L 285.794,-75.895
 L 286.225,-76.2084 L 286.712,-76.4252 L 287.233,-76.536 L 287.767,-76.536 L 288.288,-76.4252 L 288.775,-76.2084
 L 289.206,-75.895 L 289.563,-75.4988 L 289.83,-75.0372 L 289.994,-74.5302 L 290.05,-74 L 290.05,-64.7024
 L 290.392,-64.4804 L 290.792,-64.1563 L 291.156,-63.7921 L 291.48,-63.3919 L 291.761,-62.96 L 291.995,-62.5011
 L 292.179,-62.0204 L 292.312,-61.5229 L 292.393,-61.0143 L 292.42,-60.5 L 292.393,-59.9857 L 292.312,-59.4771
 L 292.179,-58.9796 L 291.995,-58.4989 L 291.761,-58.04 L 291.48,-57.6081 L 291.156,-57.2079 L 290.792,-56.8437
 L 290.392,-56.5196 L 289.96,-56.2392 L 289.501,-56.0054 L 289.02,-55.8208 L 288.523,-55.6875 L 288.014,-55.607
 L 287.5,-55.58 z
M 426.986,-55.607 L 426.477,-55.6875 L 425.98,-55.8208 L 425.499,-56.0054 L 425.04,-56.2392 L 424.608,-56.5196
 L 424.208,-56.8437 L 423.844,-57.2079 L 423.52,-57.6081 L 423.239,-58.04 L 423.005,-58.4989 L 422.821,-58.9796
 L 422.688,-59.4771 L 422.607,-59.9857 L 422.58,-60.5 L 422.607,-61.0143 L 422.688,-61.5229 L 422.821,-62.0204
 L 423.005,-62.5011 L 423.239,-62.96 L 423.52,-63.3919 L 423.844,-63.7921 L 424.208,-64.1563 L 424.608,-64.4804
 L 424.95,-64.7024 L 424.95,-74 L 425.006,-74.5302 L 425.17,-75.0372 L 425.437,-75.4988 L 425.794,-75.895
 L 426.225,-76.2084 L 426.712,-76.4252 L 427.233,-76.536 L 427.767,-76.536 L 428.288,-76.4252 L 428.775,-76.2084
 L 429.206,-75.895 L 429.563,-75.4988 L 429.83,-75.0372 L 429.994,-74.5302 L 430.05,-74 L 430.05,-64.7024
 L 430.392,-64.4804 L 430.792,-64.1563 L 431.156,-63.7921 L 431.48,-63.3919 L 431.761,-62.96 L 431.995,-62.5011
 L 432.179,-62.0204 L 432.312,-61.5229 L 432.393,-61.0143 L 432.42,-60.5 L 432.393,-59.9857 L 432.312,-59.4771
 L 432.179,-58.9796 L 431.995,-58.4989 L 431.761,-58.04 L 431.48,-57.6081 L 431.156,-57.2079 L 430.792,-56.8437
 L 430.392,-56.5196 L 429.96,-56.2392 L 429.501,-56.0054 L 429.02,-55.8208 L 428.523,-55.6875 L 428.014,-55.607
 L 427.5,-55.58 z
M 566.986,-55.607 L 566.477,-55.6875 L 565.98,-55.8208 L 565.499,-56.0054 L 565.04,-56.2392 L 564.608,-56.5196
 L 564.208,-56.8437 L 563.844,-57.2079 L 563.52,-57.6081 L 563.239,-58.04 L 563.005,-58.4989 L 562.821,-58.9796
 L 562.688,-59.4771 L 562.607,-59.9857 L 562.58,-60.5 L 562.607,-61.0143 L 562.688,-61.5229 L 562.821,-62.0204
 L 563.005,-62.5011 L 563.239,-62.96 L 563.52,-63.3919 L 563.844,-63.7921 L 564.208,-64.1563 L 564.608,-64.4804
 L 564.95,-64.7024 L 564.95,-74 L 565.006,-74.5302 L 565.17,-75.0372 L 565.437,-75.4988 L 565.794,-75.895
 L 566.225,-76.2084 L 566.712,-76.4252 L 567.233,-76.536 L 567.767,-76.536 L 568.288,-76.4252 L 568.775,-76.2084
 L 569.206,-75.895 L 569.563,-75.4988 L 569.83,-75.0372 L 569.994,-74.5302 L 570.05,-74 L 570.05,-64.7024
 L 570.392,-64.4804 L 570.792,-64.1563 L 571.156,-63.7921 L 571.48,-63.3919 L 571.761,-62.96 L 571.995,-62.5011
 L 572.179,-62.0204 L 572.312,-61.5229 L 572.393,-61.0143 L 572.42,-60.5 L 572.393,-59.9857 L 572.312,-59.4771
 L 572.179,-58.9796 L 571.995,-58.4989 L 571.761,-58.04 L 571.48,-57.6081 L 571.156,-57.2079 L 570.792,-56.8437
 L 570.392,-56.5196 L 569.96,-56.2392 L 569.501,-56.0054 L 569.02,-55.8208 L 568.523,-55.6875 L 568.014,-55.607
 L 567.5,-55.58 z
M 706.986,-55.607 L 706.477,-55.6875 L 705.98,-55.8208 L 705.499,-56.0054 L 705.04,-56.2392 L 704.608,-56.5196
 L 704.208,-56.8437 L 703.844,-57.2079 L 703.52,-57.6081 L 703.239,-58.04 L 703.005,-58.4989 L 702.821,-58.9796
 L 702.688,-59.4771 L 702.607,-59.9857 L 702.58,-60.5 L 702.607,-61.0143 L 702.688,-61.5229 L 702.821,-62.0204
 L 703.005,-62.5011 L 703.239,-62.96 L 703.52,-63.3919 L 703.844,-63.7921 L 704.208,-64.1563 L 704.608,-64.4804
 L 704.95,-64.7024 L 704.95,-74 L 705.006,-74.5302 L 705.17,-75.0372 L 705.437,-75.4988 L 705.794,-75.895
 L 706.225,-76.2084 L 706.712,-76.4252 L 707.233,-76.536 L 707.767,-76.536 L 708.288,-76.4252 L 708.775,-76.2084
 L 709.206,-75.895 L 709.563,-75.4988 L 709.83,-75.0372 L 709.994,-74.5302 L 710.05,-74 L 710.05,-64.7024
 L 710.392,-64.4804 L 710.792,-64.1563 L 711.156,-63.7921 L 711.48,-63.3919 L 711.761,-62.96 L 711.995,-62.5011
 L 712.179,-62.0204 L 712.312,-61.5229 L 712.393,-61.0143 L 712.42,-60.5 L 712.393,-59.9857 L 712.312,-59.4771
 L 712.179,-58.9796 L 711.995,-58.4989 L 711.761,-58.04 L 711.48,-57.6081 L 711.156,-57.2079 L 710.792,-56.8437
 L 710.392,-56.5196 L 709.96,-56.2392 L 709.501,-56.0054 L 709.02,-55.8208 L 708.523,-55.6875 L 708.014,-55.607
 L 707.5,-55.58 z
M 356.539,-48.3394 L 355.752,-48.6241 L 343.857,-54.402 L 343.253,-54.7639 L 342.632,-55.3235 L 342.14,-56
 L 341.8,-56.7639 L 341.626,-57.5819 L 341.626,-58.4181 L 341.8,-59.2361 L 342.14,-60 L 342.632,-60.6765
 L 343.253,-61.2361 L 343.977,-61.6542 L 344.773,-61.9126 L 345.604,-62 L 369.396,-62 L 370.097,-61.9381
 L 370.9,-61.7063 L 371.638,-61.3125 L 372.277,-60.7739 L 372.791,-60.1141 L 373.157,-59.3619 L 373.358,-58.5502
 L 373.385,-57.7145 L 373.239,-56.8912 L 372.924,-56.1163 L 372.456,-55.4239 L 371.853,-54.8439 L 371.143,-54.402
 L 359.248,-48.6241 L 358.201,-48.284 L 357.367,-48.2243 z
M 273.539,-22.8759 L 272.752,-23.1606 L 208.432,-54.402 L 207.828,-54.7639 L 207.207,-55.3235 L 206.715,-56
 L 206.375,-56.7639 L 206.201,-57.5819 L 206.201,-58.4181 L 206.375,-59.2361 L 206.715,-60 L 207.207,-60.6765
 L 207.828,-61.2361 L 208.553,-61.6542 L 209.348,-61.9126 L 210.18,-62 L 274.5,-62 L 275.736,-61.8042
 L 276.5,-61.4641 L 277.177,-60.9726 L 277.736,-60.3511 L 278.154,-59.627 L 278.413,-58.8316 L 278.5,-58
 L 278.5,-26.7586 L 278.462,-26.2084 L 278.261,-25.3967 L 277.896,-24.6445 L 277.382,-23.9847 L 276.742,-23.4461
 L 276.004,-23.0523 L 275.201,-22.8205 L 274.367,-22.7608 z
M 579.799,-22.8205 L 578.996,-23.0523 L 578.258,-23.4461 L 577.618,-23.9847 L 577.104,-24.6445 L 576.739,-25.3967
 L 576.538,-26.2084 L 576.5,-26.7586 L 576.5,-58 L 576.587,-58.8316 L 576.846,-59.627 L 577.264,-60.3511
 L 577.823,-60.9726 L 578.5,-61.4641 L 579.264,-61.8042 L 580.5,-62 L 644.82,-62 L 645.652,-61.9126
 L 646.447,-61.6542 L 647.172,-61.2361 L 647.793,-60.6765 L 648.285,-60 L 648.625,-59.2361 L 648.799,-58.4181
 L 648.799,-57.5819 L 648.625,-56.7639 L 648.285,-56 L 647.793,-55.3235 L 647.172,-54.7639 L 646.568,-54.402
 L 582.248,-23.1606 L 581.461,-22.8759 L 580.633,-22.7608 z
M 133.539,-22.8759 L 132.752,-23.1606 L 68.4319,-54.402 L 67.8284,-54.7639 L 67.2069,-55.3235 L 66.7154,-56
 L 66.3753,-56.7639 L 66.2014,-57.5819 L 66.2014,-58.4181 L 66.3753,-59.2361 L 66.7154,-60 L 67.2069,-60.6765
 L 67.8284,-61.2361 L 68.5526,-61.6542 L 69.3479,-61.9126 L 70.1795,-62 L 134.5,-62 L 135.736,-61.8042
 L 136.5,-61.4641 L 137.177,-60.9726 L 137.736,-60.3511 L 138.154,-59.627 L 138.413,-58.8316 L 138.5,-58
 L 138.5,-26.7586 L 138.462,-26.2084 L 138.261,-25.3967 L 137.896,-24.6445 L 137.382,-23.9847 L 136.742,-23.4461
 L 136.004,-23.0523 L 135.201,-22.8205 L 134.367,-22.7608 z
M 439.799,-22.8205 L 438.996,-23.0523 L 438.258,-23.4461 L 437.618,-23.9847 L 437.104,-24.6445 L 436.739,-25.3967
 L 436.538,-26.2084 L 436.5,-26.7586 L 436.5,-58 L 436.587,-58.8316 L 436.846,-59.627 L 437.264,-60.3511
 L 437.823,-60.9726 L 438.5,-61.4641 L 439.264,-61.8042 L 440.5,-62 L 504.82,-62 L 505.652,-61.9126
 L 506.447,-61.6542 L 507.172,-61.2361 L 507.793,-60.6765 L 508.285,-60 L 508.625,-59.2361 L 508.799,-58.4181
 L 508.799,-57.5819 L 508.625,-56.7639 L 508.285,-56 L 507.793,-55.3235 L 507.172,-54.7639 L 506.568,-54.402
 L 442.248,-23.1606 L 441.461,-22.8759 L 440.633,-22.7608 z
M 300.082,-20.5583 L 299.264,-20.7322 L 298.5,-21.0723 L 297.823,-21.5638 L 297.264,-22.1853 L 296.846,-22.9095
 L 296.587,-23.7048 L 296.5,-24.5364 L 296.5,-55.4636 L 296.538,-56.0138 L 296.739,-56.8255 L 297.104,-57.5777
 L 297.618,-58.2375 L 298.258,-58.7761 L 298.996,-59.1699 L 299.799,-59.4017 L 300.633,-59.4614 L 301.461,-59.3463
 L 302.248,-59.0616 L 334.084,-43.598 L 334.579,-43.3125 L 335.219,-42.7739 L 335.732,-42.1141 L 336.098,-41.3619
 L 336.299,-40.5502 L 336.327,-39.7145 L 336.18,-38.8912 L 335.865,-38.1163 L 335.397,-37.4239 L 334.794,-36.8439
 L 334.084,-36.402 L 302.248,-20.9384 L 301.736,-20.7322 L 300.918,-20.5583 z
M 413.539,-20.6537 L 412.752,-20.9384 L 380.916,-36.402 L 380.421,-36.6875 L 379.781,-37.2261 L 379.268,-37.8859
 L 378.902,-38.6381 L 378.701,-39.4498 L 378.673,-40.2855 L 378.82,-41.1088 L 379.134,-41.8837 L 379.603,-42.5761
 L 380.206,-43.1561 L 380.916,-43.598 L 412.752,-59.0616 L 413.264,-59.2678 L 414.082,-59.4417 L 414.918,-59.4417
 L 415.736,-59.2678 L 416.5,-58.9277 L 417.177,-58.4362 L 417.736,-57.8147 L 418.154,-57.0905 L 418.413,-56.2952
 L 418.5,-55.4636 L 418.5,-24.5364 L 418.462,-23.9862 L 418.261,-23.1745 L 417.896,-22.4223 L 417.382,-21.7625
 L 416.742,-21.2239 L 416.004,-20.8301 L 415.201,-20.5983 L 414.367,-20.5386 z
M 160.5,-18 L 159.264,-18.1958 L 158.5,-18.5359 L 157.823,-19.0274 L 157.264,-19.6489 L 156.846,-20.373
 L 156.587,-21.1684 L 156.5,-22 L 156.5,-53.2414 L 156.538,-53.7916 L 156.739,-54.6033 L 157.104,-55.3555
 L 157.618,-56.0153 L 158.258,-56.5539 L 158.996,-56.9476 L 159.799,-57.1795 L 160.633,-57.2392 L 161.461,-57.1241
 L 162.248,-56.8394 L 226.568,-25.598 L 227.172,-25.2361 L 227.793,-24.6765 L 228.285,-24 L 228.625,-23.2361
 L 228.799,-22.4181 L 228.799,-21.5819 L 228.625,-20.7639 L 228.285,-20 L 227.793,-19.3235 L 227.172,-18.7639
 L 226.447,-18.3458 L 225.652,-18.0874 L 224.82,-18 z
M 490.18,-18 L 489.348,-18.0874 L 488.553,-18.3458 L 487.828,-18.7639 L 487.207,-19.3235 L 486.715,-20
 L 486.375,-20.7639 L 486.201,-21.5819 L 486.201,-22.4181 L 486.375,-23.2361 L 486.715,-24 L 487.207,-24.6765
 L 487.828,-25.2361 L 488.432,-25.598 L 552.752,-56.8394 L 553.539,-57.1241 L 554.367,-57.2392 L 555.201,-57.1795
 L 556.004,-56.9476 L 556.742,-56.5539 L 557.382,-56.0153 L 557.896,-55.3555 L 558.261,-54.6033 L 558.462,-53.7916
 L 558.5,-53.2414 L 558.5,-22 L 558.413,-21.1684 L 558.154,-20.373 L 557.736,-19.6489 L 557.177,-19.0274
 L 556.5,-18.5359 L 555.736,-18.1958 L 554.5,-18 z
M 22,-18 L 20.7639,-18.1958 L 20,-18.5359 L 19.3235,-19.0274 L 18.7639,-19.6489 L 18.3458,-20.373
 L 18.0874,-21.1684 L 18,-22 L 18,-52.5128 L 18.038,-53.063 L 18.239,-53.8747 L 18.6044,-54.6269
 L 19.1181,-55.2867 L 19.7578,-55.8253 L 20.4955,-56.2191 L 21.299,-56.4509 L 22.1331,-56.5106 L 22.9613,-56.3956
 L 23.7476,-56.1108 L 86.5681,-25.598 L 87.1716,-25.2361 L 87.7931,-24.6765 L 88.2846,-24 L 88.6247,-23.2361
 L 88.7986,-22.4181 L 88.7986,-21.5819 L 88.6247,-20.7639 L 88.2846,-20 L 87.7931,-19.3235 L 87.1716,-18.7639
 L 86.4474,-18.3458 L 85.6521,-18.0874 L 84.8205,-18 z
M 630.18,-18 L 629.348,-18.0874 L 628.553,-18.3458 L 627.828,-18.7639 L 627.207,-19.3235 L 626.715,-20
 L 626.375,-20.7639 L 626.201,-21.5819 L 626.201,-22.4181 L 626.375,-23.2361 L 626.715,-24 L 627.207,-24.6765
 L 627.828,-25.2361 L 628.432,-25.598 L 691.252,-56.1108 L 692.039,-56.3956 L 692.867,-56.5106 L 693.701,-56.4509
 L 694.504,-56.2191 L 695.242,-55.8253 L 695.882,-55.2867 L 696.396,-54.6269 L 696.761,-53.8747 L 696.962,-53.063
 L 697,-52.5128 L 697,-22 L 696.913,-21.1684 L 696.654,-20.373 L 696.236,-19.6489 L 695.677,-19.0274
 L 695,-18.5359 L 694.236,-18.1958 L 693,-18 z
M 345.604,-18 L 344.903,-18.0619 L 344.1,-18.2937 L 343.362,-18.6875 L 342.722,-19.2261 L 342.209,-19.8859
 L 341.843,-20.6381 L 341.642,-21.4498 L 341.615,-22.2855 L 341.761,-23.1088 L 342.076,-23.8837 L 342.544,-24.5761
 L 343.147,-25.1561 L 343.857,-25.598 L 355.752,-31.3759 L 356.799,-31.716 L 357.633,-31.7757 L 358.461,-31.6606
 L 359.248,-31.3759 L 371.143,-25.598 L 371.747,-25.2361 L 372.368,-24.6765 L 372.86,-24 L 373.2,-23.2361
 L 373.374,-22.4181 L 373.374,-21.5819 L 373.2,-20.7639 L 372.86,-20 L 372.368,-19.3235 L 371.747,-18.7639
 L 371.023,-18.3458 L 370.227,-18.0874 L 369.396,-18 z
" stroke="black" fill="lightgray" stroke-width="0.5"/>
</svg>
