<?xml version="1.0" standalone="no"?>
<!DOCTYPE svg PUBLIC "-//W3C//DTD SVG 1.1//EN" "http://www.w3.org/Graphics/SVG/1.1/DTD/svg11.dtd">
<svg width="503mm" height="80mm" viewBox="0 -80 503 80" xmlns="http://www.w3.org/2000/svg" version="1.1">
<title>OpenSCAD Model</title>
<path d="
M 503,-80 L 0,-80 L 0,-0 L 4.95,-0 L 4.95,-6 L 5.00572,-6.53017
 L 5.17046,-7.03717 L 5.437,-7.49884 L 5.79372,-7.895 L 6.22499,-8.20836 L 6.71201,-8.42519 L 7.23344,-8.53603
 L 7.76654,-8.53603 L 8.28798,-8.42519 L 8.77499,-8.20836 L 9.20627,-7.895 L 9.56299,-7.49884 L 9.82953,-7.03717
 L 9.99426,-6.53017 L 10.05,-6 L 10.05,-0 L 126.95,-0 L 126.95,-6 L 127.006,-6.53017
 L 127.17,-7.03717 L 127.437,-7.49884 L 127.794,-7.895 L 128.225,-8.20836 L 128.712,-8.42519 L 129.233,-8.53603
 L 129.767,-8.53603 L 130.288,-8.42519 L 130.775,-8.20836 L 131.206,-7.895 L 131.563,-7.49884 L 131.83,-7.03717
 L 131.994,-6.53017 L 132.05,-6 L 132.05,-0 L 248.95,-0 L 248.95,-6 L 249.006,-6.53017
 L 249.17,-7.03717 L 249.437,-7.49884 L 249.794,-7.895 L 250.225,-8.20836 L 250.712,-8.42519 L 251.233,-8.53603
 L 251.767,-8.53603 L 252.288,-8.42519 L 252.775,-8.20836 L 253.206,-7.895 L 253.563,-7.49884 L 253.83,-7.03717
 L 253.994,-6.53017 L 254.05,-6 L 254.05,-0 L 370.95,-0 L 370.95,-6 L 371.006,-6.53017
 L 371.17,-7.03717 L 371.437,-7.49884 L 371.794,-7.895 L 372.225,-8.20836 L 372.712,-8.42519 L 373.233,-8.53603
 L 373.767,-8.53603 L 374.288,-8.42519 L 374.775,-8.20836 L 375.206,-7.895 L 375.563,-7.49884 L 375.83,-7.03717
 L 375.994,-6.53017 L 376.05,-6 L 376.05,-0 L 492.95,-0 L 492.95,-6 L 493.006,-6.53017
 L 493.17,-7.03717 L 493.437,-7.49884 L 493.794,-7.895 L 494.225,-8.20836 L 494.712,-8.42519 L 495.233,-8.53603
 L 495.767,-8.53603 L 496.288,-8.42519 L 496.775,-8.20836 L 497.206,-7.895 L 497.563,-7.49884 L 497.83,-7.03717
 L 497.994,-6.53017 L 498.05,-6 L 498.05,-0 L 503,-0 z
M 6.98573,-55.607 L 6.47708,-55.6875 L 5.97964,-55.8208 L 5.49887,-56.0054 L 5.04001,-56.2392 L 4.60811,-56.5196
 L 4.20789,-56.8437 L 3.84373,-57.2079 L 3.51964,-57.6081 L 3.23917,-58.04 L 3.00537,-58.4989 L 2.82082,-58.9796
 L 2.68752,-59.4771 L 2.60696,-59.9857 L 2.58,-60.5 L 2.60696,-61.0143 L 2.68752,-61.5229 L 2.82082,-62.0204
 L 3.00537,-62.5011 L 3.23917,-62.96 L 3.51964,-63.3919 L 3.84373,-63.7921 L 4.20789,-64.1563 L 4.60811,-64.4804
 L 4.95001,-64.7024 L 4.95001,-74 L 5.00574,-74.5302 L 5.17047,-75.0372 L 5.43701,-75.4988 L 5.79373,-75.895
 L 6.22501,-76.2084 L 6.71202,-76.4252 L 7.23346,-76.536 L 7.76654,-76.536 L 8.28798,-76.4252 L 8.77499,-76.2084
 L 9.20627,-75.895 L 9.56299,-75.4988 L 9.82953,-75.0372 L 9.99426,-74.5302 L 10.05,-74 L 10.05,-64.7024
 L 10.3919,-64.4804 L 10.7921,-64.1563 L 11.1563,-63.7921 L 11.4804,-63.3919 L 11.7608,-62.96 L 11.9946,-62.5011
 L 12.1792,-62.0204 L 12.3125,-61.5229 L 12.393,-61.0143 L 12.42,-60.5 L 12.393,-59.9857 L 12.3125,-59.4771
 L 12.1792,-58.9796 L 11.9946,-58.4989 L 11.7608,-58.04 L 11.4804,-57.6081 L 11.1563,-57.2079 L 10.7921,-56.8437
 L 10.3919,-56.5196 L 9.95999,-56.2392 L 9.50113,-56.0054 L 9.02036,-55.8208 L 8.52292,-55.6875 L 8.01427,-55.607
 L 7.5,-55.58 z
M 128.986,-55.607 L 128.477,-55.6875 L 127.98,-55.8208 L 127.499,-56.0054 L 127.04,-56.2392 L 126.608,-56.5196
 L 126.208,-56.8437 L 125.844,-57.2079 L 125.52,-57.6081 L 125.239,-58.04 L 125.005,-58.4989 L 124.821,-58.9796
 L 124.688,-59.4771 L 124.607,-59.9857 L 124.58,-60.5 L 124.607,-61.0143 L 124.688,-61.5229 L 124.821,-62.0204
 L 125.005,-62.5011 L 125.239,-62.96 L 125.52,-63.3919 L 125.844,-63.7921 L 126.208,-64.1563 L 126.608,-64.4804
 L 126.95,-64.7024 L 126.95,-74 L 127.006,-74.5302 L 127.17,-75.0372 L 127.437,-75.4988 L 127.794,-75.895
 L 128.225,-76.2084 L 128.712,-76.4252 L 129.233,-76.536 L 129.767,-76.536 L 130.288,-76.4252 L 130.775,-76.2084
 L 131.206,-75.895 L 131.563,-75.4988 L 131.83,-75.0372 L 131.994,-74.5302 L 132.05,-74 L 132.05,-64.7024
 L 132.392,-64.4804 L 132.792,-64.1563 L 133.156,-63.7921 L 133.48,-63.3919 L 133.761,-62.96 L 133.995,-62.5011
 L 134.179,-62.0204 L 134.312,-61.5229 L 134.393,-61.0143 L 134.42,-60.5 L 134.393,-59.9857 L 134.312,-59.4771
 L 134.179,-58.9796 L 133.995,-58.4989 L 133.761,-58.04 L 133.48,-57.6081 L 133.156,-57.2079 L 132.792,-56.8437
 L 132.392,-56.5196 L 131.96,-56.2392 L 131.501,-56.0054 L 131.02,-55.8208 L 130.523,-55.6875 L 130.014,-55.607
 L 129.5,-55.58 z
M 250.986,-55.607 L 250.477,-55.6875 L 249.98,-55.8208 L 249.499,-56.0054 L 249.04,-56.2392 L 248.608,-56.5196
 L 248.208,-56.8437 L 247.844,-57.2079 L 247.52,-57.6081 L 247.239,-58.04 L 247.005,-58.4989 L 246.821,-58.9796
 L 246.688,-59.4771 L 246.607,-59.9857 L 246.58,-60.5 L 246.607,-61.0143 L 246.688,-61.5229 L 246.821,-62.0204
 L 247.005,-62.5011 L 247.239,-62.96 L 247.52,-63.3919 L 247.844,-63.7921 L 248.208,-64.1563 L 248.608,-64.4804
 L 248.95,-64.7024 L 248.95,-74 L 249.006,-74.5302 L 249.17,-75.0372 L 249.437,-75.4988 L 249.794,-75.895
 L 250.225,-76.2084 L 250.712,-76.4252 L 251.233,-76.536 L 251.767,-76.536 L 252.288,-76.4252 L 252.775,-76.2084
 L 253.206,-75.895 L 253.563,-75.4988 L 253.83,-75.0372 L 253.994,-74.5302 L 254.05,-74 L 254.05,-64.7024
 L 254.392,-64.4804 L 254.792,-64.1563 L 255.156,-63.7921 L 255.48,-63.3919 L 255.761,-62.96 L 255.995,-62.5011
 L 256.179,-62.0204 L 256.312,-61.5229 L 256.393,-61.0143 L 256.42,-60.5 L 256.393,-59.9857 L 256.312,-59.4771
 L 256.179,-58.9796 L 255.995,-58.4989 L 255.761,-58.04 L 255.48,-57.6081 L 255.156,-57.2079 L 254.792,-56.8437
 L 254.392,-56.5196 L 253.96,-56.2392 L 253.501,-56.0054 L 253.02,-55.8208 L 252.523,-55.6875 L 252.014,-55.607
 L 251.5,-55.58 z
M 372.986,-55.607 L 372.477,-55.6875 L 371.98,-55.8208 L 371.499,-56.0054 L 371.04,-56.2392 L 370.608,-56.5196
 L 370.208,-56.8437 L 369.844,-57.2079 L 369.52,-57.6081 L 369.239,-58.04 L 369.005,-58.4989 L 368.821,-58.9796
 L 368.688,-59.4771 L 368.607,-59.9857 L 368.58,-60.5 L 368.607,-61.0143 L 368.688,-61.5229 L 368.821,-62.0204
 L 369.005,-62.5011 L 369.239,-62.96 L 369.52,-63.3919 L 369.844,-63.7921 L 370.208,-64.1563 L 370.608,-64.4804
 L 370.95,-64.7024 L 370.95,-74 L 371.006,-74.5302 L 371.17,-75.0372 L 371.437,-75.4988 L 371.794,-75.895
 L 372.225,-76.2084 L 372.712,-76.4252 L 373.233,-76.536 L 373.767,-76.536 L 374.288,-76.4252 L 374.775,-76.2084
 L 375.206,-75.895 L 375.563,-75.4988 L 375.83,-75.0372 L 375.994,-74.5302 L 376.05,-74 L 376.05,-64.7024
 L 376.392,-64.4804 L 376.792,-64.1563 L 377.156,-63.7921 L 377.48,-63.3919 L 377.761,-62.96 L 377.995,-62.5011
 L 378.179,-62.0204 L 378.312,-61.5229 L 378.393,-61.0143 L 378.42,-60.5 L 378.393,-59.9857 L 378.312,-59.4771
 L 378.179,-58.9796 L 377.995,-58.4989 L 377.761,-58.04 L 377.48,-57.6081 L 377.156,-57.2079 L 376.792,-56.8437
 L 376.392,-56.5196 L 375.96,-56.2392 L 375.501,-56.0054 L 375.02,-55.8208 L 374.523,-55.6875 L 374.014,-55.607
 L 373.5,-55.58 z
M 494.986,-55.607 L 494.477,-55.6875 L 493.98,-55.8208 L 493.499,-56.0054 L 493.04,-56.2392 L 492.608,-56.5196
 L 492.208,-56.8437 L 491.844,-57.2079 L 491.52,-57.6081 L 491.239,-58.04 L 491.005,-58.4989 L 490.821,-58.9796
 L 490.688,-59.4771 L 490.607,-59.9857 L 490.58,-60.5 L 490.607,-61.0143 L 490.688,-61.5229 L 490.821,-62.0204
 L 491.005,-62.5011 L 491.239,-62.96 L 491.52,-63.3919 L 491.844,-63.7921 L 492.208,-64.1563 L 492.608,-64.4804
 L 492.95,-64.7024 L 492.95,-74 L 493.006,-74.5302 L 493.17,-75.0372 L 493.437,-75.4988 L 493.794,-75.895
 L 494.225,-76.2084 L 494.712,-76.4252 L 495.233,-76.536 L 495.767,-76.536 L 496.288,-76.4252 L 496.775,-76.2084
 L 497.206,-75.895 L 497.563,-75.4988 L 497.83,-75.0372 L 497.994,-74.5302 L 498.05,-74 L 498.05,-64.7024
 L 498.392,-64.4804 L 498.792,-64.1563 L 499.156,-63.7921 L 499.48,-63.3919 L 499.761,-62.96 L 499.995,-62.5011
 L 500.179,-62.0204 L 500.312,-61.5229 L 500.393,-61.0143 L 500.42,-60.5 L 500.393,-59.9857 L 500.312,-59.4771
 L 500.179,-58.9796 L 499.995,-58.4989 L 499.761,-58.04 L 499.48,-57.6081 L 499.156,-57.2079 L 498.792,-56.8437
 L 498.392,-56.5196 L 497.96,-56.2392 L 497.501,-56.0054 L 497.02,-55.8208 L 496.523,-55.6875 L 496.014,-55.607
 L 495.5,-55.58 z
M 264.022,-24.1559 L 263.207,-24.3421 L 262.448,-24.6937 L 261.779,-25.1954 L 261.229,-25.8252 L 260.822,-26.5556
 L 260.575,-27.3547 L 260.5,-28.1272 L 260.5,-58 L 260.587,-58.8316 L 260.846,-59.627 L 261.264,-60.3511
 L 261.823,-60.9726 L 262.5,-61.4641 L 263.264,-61.8042 L 264.5,-62 L 318.095,-62 L 318.927,-61.9126
 L 319.722,-61.6542 L 320.447,-61.2361 L 321.068,-60.6765 L 321.559,-60 L 321.9,-59.2361 L 322.073,-58.4181
 L 322.073,-57.5819 L 321.9,-56.7639 L 321.559,-56 L 321.068,-55.3235 L 320.447,-54.7639 L 320.043,-54.5061
 L 266.447,-24.6332 L 265.678,-24.3047 L 264.858,-24.1432 z
M 237.322,-24.3047 L 236.553,-24.6332 L 182.957,-54.5061 L 182.553,-54.7639 L 181.932,-55.3235 L 181.441,-56
 L 181.1,-56.7639 L 180.927,-57.5819 L 180.927,-58.4181 L 181.1,-59.2361 L 181.441,-60 L 181.932,-60.6765
 L 182.553,-61.2361 L 183.278,-61.6542 L 184.073,-61.9126 L 184.905,-62 L 238.5,-62 L 239.736,-61.8042
 L 240.5,-61.4641 L 241.177,-60.9726 L 241.736,-60.3511 L 242.154,-59.627 L 242.413,-58.8316 L 242.5,-58
 L 242.5,-28.1272 L 242.425,-27.3547 L 242.178,-26.5556 L 241.771,-25.8252 L 241.221,-25.1954 L 240.552,-24.6937
 L 239.793,-24.3421 L 238.978,-24.1559 L 238.142,-24.1432 z
M 386.022,-24.1559 L 385.207,-24.3421 L 384.448,-24.6937 L 383.779,-25.1954 L 383.229,-25.8252 L 382.822,-26.5556
 L 382.575,-27.3547 L 382.5,-28.1272 L 382.5,-58 L 382.587,-58.8316 L 382.846,-59.627 L 383.264,-60.3511
 L 383.823,-60.9726 L 384.5,-61.4641 L 385.264,-61.8042 L 386.5,-62 L 440.095,-62 L 440.927,-61.9126
 L 441.722,-61.6542 L 442.447,-61.2361 L 443.068,-60.6765 L 443.559,-60 L 443.9,-59.2361 L 444.073,-58.4181
 L 444.073,-57.5819 L 443.9,-56.7639 L 443.559,-56 L 443.068,-55.3235 L 442.447,-54.7639 L 442.043,-54.5061
 L 388.447,-24.6332 L 387.678,-24.3047 L 386.858,-24.1432 z
M 115.322,-24.3047 L 114.553,-24.6332 L 60.9572,-54.5061 L 60.5535,-54.7639 L 59.9321,-55.3235 L 59.4405,-56
 L 59.1004,-56.7639 L 58.9265,-57.5819 L 58.9265,-58.4181 L 59.1004,-59.2361 L 59.4405,-60 L 59.9321,-60.6765
 L 60.5535,-61.2361 L 61.2777,-61.6542 L 62.073,-61.9126 L 62.9046,-62 L 116.5,-62 L 117.736,-61.8042
 L 118.5,-61.4641 L 119.177,-60.9726 L 119.736,-60.3511 L 120.154,-59.627 L 120.413,-58.8316 L 120.5,-58
 L 120.5,-28.1272 L 120.425,-27.3547 L 120.178,-26.5556 L 119.771,-25.8252 L 119.221,-25.1954 L 118.552,-24.6937
 L 117.793,-24.3421 L 116.978,-24.1559 L 116.142,-24.1432 z
M 306.905,-18 L 306.073,-18.0874 L 305.278,-18.3458 L 304.553,-18.7639 L 303.932,-19.3235 L 303.441,-20
 L 303.1,-20.7639 L 302.927,-21.5819 L 302.927,-22.4181 L 303.1,-23.2361 L 303.441,-24 L 303.932,-24.6765
 L 304.553,-25.2361 L 304.957,-25.4939 L 358.553,-55.3667 L 359.322,-55.6953 L 360.142,-55.8568 L 360.978,-55.8441
 L 361.793,-55.6579 L 362.552,-55.3063 L 363.221,-54.8046 L 363.771,-54.1748 L 364.178,-53.4444 L 364.425,-52.6452
 L 364.5,-51.8728 L 364.5,-22 L 364.413,-21.1684 L 364.154,-20.373 L 363.736,-19.6489 L 363.177,-19.0274
 L 362.5,-18.5359 L 361.736,-18.1958 L 360.5,-18 z
M 142.5,-18 L 141.264,-18.1958 L 140.5,-18.5359 L 139.823,-19.0274 L 139.264,-19.6489 L 138.846,-20.373
 L 138.587,-21.1684 L 138.5,-22 L 138.5,-51.8728 L 138.575,-52.6452 L 138.822,-53.4444 L 139.229,-54.1748
 L 139.779,-54.8046 L 140.448,-55.3063 L 141.207,-55.6579 L 142.022,-55.8441 L 142.858,-55.8568 L 143.678,-55.6953
 L 144.447,-55.3667 L 198.043,-25.4939 L 198.447,-25.2361 L 199.068,-24.6765 L 199.559,-24 L 199.9,-23.2361
 L 200.073,-22.4181 L 200.073,-21.5819 L 199.9,-20.7639 L 199.559,-20 L 199.068,-19.3235 L 198.447,-18.7639
 L 197.722,-18.3458 L 196.927,-18.0874 L 196.095,-18 z
M 22,-18 L 20.7639,-18.1958 L 20,-18.5359 L 19.3235,-19.0274 L 18.7639,-19.6489 L 18.3458,-20.373
 L 18.0874,-21.1684 L 18,-22 L 18,-51.0368 L 18.0753,-51.8092 L 18.3217,-52.6083 L 18.7288,-53.3387
 L 19.2789,-53.9686 L 19.9479,-54.4702 L 20.7066,-54.8219 L 21.5218,-55.0081 L 22.358,-55.0207 L 23.1785,-54.8592
 L 23.9474,-54.5307 L 76.0428,-25.4939 L 76.4465,-25.2361 L 77.0679,-24.6765 L 77.5595,-24 L 77.8996,-23.2361
 L 78.0735,-22.4181 L 78.0735,-21.5819 L 77.8996,-20.7639 L 77.5595,-20 L 77.0679,-19.3235 L 76.4465,-18.7639
 L 75.7223,-18.3458 L 74.927,-18.0874 L 74.0954,-18 z
M 428.905,-18 L 428.073,-18.0874 L 427.278,-18.3458 L 426.553,-18.7639 L 425.932,-19.3235 L 425.441,-20
 L 425.1,-20.7639 L 424.927,-21.5819 L 424.927,-22.4181 L 425.1,-23.2361 L 425.441,-24 L 425.932,-24.6765
 L 426.553,-25.2361 L 426.957,-25.4939 L 479.053,-54.5307 L 479.822,-54.8592 L 480.642,-55.0207 L 481.478,-55.0081
 L 482.293,-54.8219 L 483.052,-54.4702 L 483.721,-53.9686 L 484.271,-53.3387 L 484.678,-52.6083 L 484.925,-51.8092
 L 485,-51.0368 L 485,-22 L 484.913,-21.1684 L 484.654,-20.373 L 484.236,-19.6489 L 483.677,-19.0274
 L 483,-18.5359 L 482.236,-18.1958 L 481,-18 z
" stroke="black" fill="lightgray" stroke-width="0.5"/>
</svg>
