<?xml version="1.0" standalone="no"?>
<!DOCTYPE svg PUBLIC "-//W3C//DTD SVG 1.1//EN" "http://www.w3.org/Graphics/SVG/1.1/DTD/svg11.dtd">
<svg width="609mm" height="80mm" viewBox="0 -80 609 80" xmlns="http://www.w3.org/2000/svg" version="1.1">
<title>OpenSCAD Model</title>
<path d="
M 609,-80 L 0,-80 L 0,-0 L 4.95,-0 L 4.95,-6 L 5.00572,-6.53017
 L 5.17046,-7.03717 L 5.437,-7.49884 L 5.79372,-7.895 L 6.22499,-8.20836 L 6.71201,-8.42519 L 7.23344,-8.53603
 L 7.76654,-8.53603 L 8.28798,-8.42519 L 8.77499,-8.20836 L 9.20627,-7.895 L 9.56299,-7.49884 L 9.82953,-7.03717
 L 9.99426,-6.53017 L 10.05,-6 L 10.05,-0 L 123.75,-0 L 123.75,-6 L 123.806,-6.53017
 L 123.97,-7.03717 L 124.237,-7.49884 L 124.594,-7.895 L 125.025,-8.20836 L 125.512,-8.42519 L 126.033,-8.53603
 L 126.567,-8.53603 L 127.088,-8.42519 L 127.575,-8.20836 L 128.006,-7.895 L 128.363,-7.49884 L 128.63,-7.03717
 L 128.794,-6.53017 L 128.85,-6 L 128.85,-0 L 242.55,-0 L 242.55,-6 L 242.606,-6.53017
 L 242.77,-7.03717 L 243.037,-7.49884 L 243.394,-7.895 L 243.825,-8.20836 L 244.312,-8.42519 L 244.833,-8.53603
 L 245.367,-8.53603 L 245.888,-8.42519 L 246.375,-8.20836 L 246.806,-7.895 L 247.163,-7.49884 L 247.43,-7.03717
 L 247.594,-6.53017 L 247.65,-6 L 247.65,-0 L 361.35,-0 L 361.35,-6 L 361.406,-6.53017
 L 361.57,-7.03717 L 361.837,-7.49884 L 362.194,-7.895 L 362.625,-8.20836 L 363.112,-8.42519 L 363.633,-8.53603
 L 364.167,-8.53603 L 364.688,-8.42519 L 365.175,-8.20836 L 365.606,-7.895 L 365.963,-7.49884 L 366.23,-7.03717
 L 366.394,-6.53017 L 366.45,-6 L 366.45,-0 L 480.15,-0 L 480.15,-6 L 480.206,-6.53017
 L 480.37,-7.03717 L 480.637,-7.49884 L 480.994,-7.895 L 481.425,-8.20836 L 481.912,-8.42519 L 482.433,-8.53603
 L 482.967,-8.53603 L 483.488,-8.42519 L 483.975,-8.20836 L 484.406,-7.895 L 484.763,-7.49884 L 485.03,-7.03717
 L 485.194,-6.53017 L 485.25,-6 L 485.25,-0 L 598.95,-0 L 598.95,-6 L 599.006,-6.53017
 L 599.17,-7.03717 L 599.437,-7.49884 L 599.794,-7.895 L 600.225,-8.20836 L 600.712,-8.42519 L 601.233,-8.53603
 L 601.767,-8.53603 L 602.288,-8.42519 L 602.775,-8.20836 L 603.206,-7.895 L 603.563,-7.49884 L 603.83,-7.03717
 L 603.994,-6.53017 L 604.05,-6 L 604.05,-0 L 609,-0 z
M 6.98573,-55.607 L 6.47708,-55.6875 L 5.97964,-55.8208 L 5.49887,-56.0054 L 5.04001,-56.2392 L 4.60811,-56.5196
 L 4.20789,-56.8437 L 3.84373,-57.2079 L 3.51964,-57.6081 L 3.23917,-58.04 L 3.00537,-58.4989 L 2.82082,-58.9796
 L 2.68752,-59.4771 L 2.60696,-59.9857 L 2.58,-60.5 L 2.60696,-61.0143 L 2.68752,-61.5229 L 2.82082,-62.0204
 L 3.00537,-62.5011 L 3.23917,-62.96 L 3.51964,-63.3919 L 3.84373,-63.7921 L 4.20789,-64.1563 L 4.60811,-64.4804
 L 4.95001,-64.7024 L 4.95001,-74 L 5.00574,-74.5302 L 5.17047,-75.0372 L 5.43701,-75.4988 L 5.79373,-75.895
 L 6.22501,-76.2084 L 6.71202,-76.4252 L 7.23346,-76.536 L 7.76654,-76.536 L 8.28798,-76.4252 L 8.77499,-76.2084
 L 9.20627,-75.895 L 9.56299,-75.4988 L 9.82953,-75.0372 L 9.99426,-74.5302 L 10.05,-74 L 10.05,-64.7024
 L 10.3919,-64.4804 L 10.7921,-64.1563 L 11.1563,-63.7921 L 11.4804,-63.3919 L 11.7608,-62.96 L 11.9946,-62.5011
 L 12.1792,-62.0204 L 12.3125,-61.5229 L 12.393,-61.0143 L 12.42,-60.5 L 12.393,-59.9857 L 12.3125,-59.4771
 L 12.1792,-58.9796 L 11.9946,-58.4989 L 11.7608,-58.04 L 11.4804,-57.6081 L 11.1563,-57.2079 L 10.7921,-56.8437
 L 10.3919,-56.5196 L 9.95999,-56.2392 L 9.50113,-56.0054 L 9.02036,-55.8208 L 8.52292,-55.6875 L 8.01427,-55.607
 L 7.5,-55.58 z
M 125.786,-55.607 L 125.277,-55.6875 L 124.78,-55.8208 L 124.299,-56.0054 L 123.84,-56.2392 L 123.408,-56.5196
 L 123.008,-56.8437 L 122.644,-57.2079 L 122.32,-57.6081 L 122.039,-58.04 L 121.805,-58.4989 L 121.621,-58.9796
 L 121.488,-59.4771 L 121.407,-59.9857 L 121.38,-60.5 L 121.407,-61.0143 L 121.488,-61.5229 L 121.621,-62.0204
 L 121.805,-62.5011 L 122.039,-62.96 L 122.32,-63.3919 L 122.644,-63.7921 L 123.008,-64.1563 L 123.408,-64.4804
 L 123.75,-64.7024 L 123.75,-74 L 123.806,-74.5302 L 123.97,-75.0372 L 124.237,-75.4988 L 124.594,-75.895
 L 125.025,-76.2084 L 125.512,-76.4252 L 126.033,-76.536 L 126.567,-76.536 L 127.088,-76.4252 L 127.575,-76.2084
 L 128.006,-75.895 L 128.363,-75.4988 L 128.63,-75.0372 L 128.794,-74.5302 L 128.85,-74 L 128.85,-64.7024
 L 129.192,-64.4804 L 129.592,-64.1563 L 129.956,-63.7921 L 130.28,-63.3919 L 130.561,-62.96 L 130.795,-62.5011
 L 130.979,-62.0204 L 131.112,-61.5229 L 131.193,-61.0143 L 131.22,-60.5 L 131.193,-59.9857 L 131.112,-59.4771
 L 130.979,-58.9796 L 130.795,-58.4989 L 130.561,-58.04 L 130.28,-57.6081 L 129.956,-57.2079 L 129.592,-56.8437
 L 129.192,-56.5196 L 128.76,-56.2392 L 128.301,-56.0054 L 127.82,-55.8208 L 127.323,-55.6875 L 126.814,-55.607
 L 126.3,-55.58 z
M 244.586,-55.607 L 244.077,-55.6875 L 243.58,-55.8208 L 243.099,-56.0054 L 242.64,-56.2392 L 242.208,-56.5196
 L 241.808,-56.8437 L 241.444,-57.2079 L 241.12,-57.6081 L 240.839,-58.04 L 240.605,-58.4989 L 240.421,-58.9796
 L 240.288,-59.4771 L 240.207,-59.9857 L 240.18,-60.5 L 240.207,-61.0143 L 240.288,-61.5229 L 240.421,-62.0204
 L 240.605,-62.5011 L 240.839,-62.96 L 241.12,-63.3919 L 241.444,-63.7921 L 241.808,-64.1563 L 242.208,-64.4804
 L 242.55,-64.7024 L 242.55,-74 L 242.606,-74.5302 L 242.77,-75.0372 L 243.037,-75.4988 L 243.394,-75.895
 L 243.825,-76.2084 L 244.312,-76.4252 L 244.833,-76.536 L 245.367,-76.536 L 245.888,-76.4252 L 246.375,-76.2084
 L 246.806,-75.895 L 247.163,-75.4988 L 247.43,-75.0372 L 247.594,-74.5302 L 247.65,-74 L 247.65,-64.7024
 L 247.992,-64.4804 L 248.392,-64.1563 L 248.756,-63.7921 L 249.08,-63.3919 L 249.361,-62.96 L 249.595,-62.5011
 L 249.779,-62.0204 L 249.912,-61.5229 L 249.993,-61.0143 L 250.02,-60.5 L 249.993,-59.9857 L 249.912,-59.4771
 L 249.779,-58.9796 L 249.595,-58.4989 L 249.361,-58.04 L 249.08,-57.6081 L 248.756,-57.2079 L 248.392,-56.8437
 L 247.992,-56.5196 L 247.56,-56.2392 L 247.101,-56.0054 L 246.62,-55.8208 L 246.123,-55.6875 L 245.614,-55.607
 L 245.1,-55.58 z
M 363.386,-55.607 L 362.877,-55.6875 L 362.38,-55.8208 L 361.899,-56.0054 L 361.44,-56.2392 L 361.008,-56.5196
 L 360.608,-56.8437 L 360.244,-57.2079 L 359.92,-57.6081 L 359.639,-58.04 L 359.405,-58.4989 L 359.221,-58.9796
 L 359.088,-59.4771 L 359.007,-59.9857 L 358.98,-60.5 L 359.007,-61.0143 L 359.088,-61.5229 L 359.221,-62.0204
 L 359.405,-62.5011 L 359.639,-62.96 L 359.92,-63.3919 L 360.244,-63.7921 L 360.608,-64.1563 L 361.008,-64.4804
 L 361.35,-64.7024 L 361.35,-74 L 361.406,-74.5302 L 361.57,-75.0372 L 361.837,-75.4988 L 362.194,-75.895
 L 362.625,-76.2084 L 363.112,-76.4252 L 363.633,-76.536 L 364.167,-76.536 L 364.688,-76.4252 L 365.175,-76.2084
 L 365.606,-75.895 L 365.963,-75.4988 L 366.23,-75.0372 L 366.394,-74.5302 L 366.45,-74 L 366.45,-64.7024
 L 366.792,-64.4804 L 367.192,-64.1563 L 367.556,-63.7921 L 367.88,-63.3919 L 368.161,-62.96 L 368.395,-62.5011
 L 368.579,-62.0204 L 368.712,-61.5229 L 368.793,-61.0143 L 368.82,-60.5 L 368.793,-59.9857 L 368.712,-59.4771
 L 368.579,-58.9796 L 368.395,-58.4989 L 368.161,-58.04 L 367.88,-57.6081 L 367.556,-57.2079 L 367.192,-56.8437
 L 366.792,-56.5196 L 366.36,-56.2392 L 365.901,-56.0054 L 365.42,-55.8208 L 364.923,-55.6875 L 364.414,-55.607
 L 363.9,-55.58 z
M 482.186,-55.607 L 481.677,-55.6875 L 481.18,-55.8208 L 480.699,-56.0054 L 480.24,-56.2392 L 479.808,-56.5196
 L 479.408,-56.8437 L 479.044,-57.2079 L 478.72,-57.6081 L 478.439,-58.04 L 478.205,-58.4989 L 478.021,-58.9796
 L 477.888,-59.4771 L 477.807,-59.9857 L 477.78,-60.5 L 477.807,-61.0143 L 477.888,-61.5229 L 478.021,-62.0204
 L 478.205,-62.5011 L 478.439,-62.96 L 478.72,-63.3919 L 479.044,-63.7921 L 479.408,-64.1563 L 479.808,-64.4804
 L 480.15,-64.7024 L 480.15,-74 L 480.206,-74.5302 L 480.37,-75.0372 L 480.637,-75.4988 L 480.994,-75.895
 L 481.425,-76.2084 L 481.912,-76.4252 L 482.433,-76.536 L 482.967,-76.536 L 483.488,-76.4252 L 483.975,-76.2084
 L 484.406,-75.895 L 484.763,-75.4988 L 485.03,-75.0372 L 485.194,-74.5302 L 485.25,-74 L 485.25,-64.7024
 L 485.592,-64.4804 L 485.992,-64.1563 L 486.356,-63.7921 L 486.68,-63.3919 L 486.961,-62.96 L 487.195,-62.5011
 L 487.379,-62.0204 L 487.512,-61.5229 L 487.593,-61.0143 L 487.62,-60.5 L 487.593,-59.9857 L 487.512,-59.4771
 L 487.379,-58.9796 L 487.195,-58.4989 L 486.961,-58.04 L 486.68,-57.6081 L 486.356,-57.2079 L 485.992,-56.8437
 L 485.592,-56.5196 L 485.16,-56.2392 L 484.701,-56.0054 L 484.22,-55.8208 L 483.723,-55.6875 L 483.214,-55.607
 L 482.7,-55.58 z
M 600.986,-55.607 L 600.477,-55.6875 L 599.98,-55.8208 L 599.499,-56.0054 L 599.04,-56.2392 L 598.608,-56.5196
 L 598.208,-56.8437 L 597.844,-57.2079 L 597.52,-57.6081 L 597.239,-58.04 L 597.005,-58.4989 L 596.821,-58.9796
 L 596.688,-59.4771 L 596.607,-59.9857 L 596.58,-60.5 L 596.607,-61.0143 L 596.688,-61.5229 L 596.821,-62.0204
 L 597.005,-62.5011 L 597.239,-62.96 L 597.52,-63.3919 L 597.844,-63.7921 L 598.208,-64.1563 L 598.608,-64.4804
 L 598.95,-64.7024 L 598.95,-74 L 599.006,-74.5302 L 599.17,-75.0372 L 599.437,-75.4988 L 599.794,-75.895
 L 600.225,-76.2084 L 600.712,-76.4252 L 601.233,-76.536 L 601.767,-76.536 L 602.288,-76.4252 L 602.775,-76.2084
 L 603.206,-75.895 L 603.563,-75.4988 L 603.83,-75.0372 L 603.994,-74.5302 L 604.05,-74 L 604.05,-64.7024
 L 604.392,-64.4804 L 604.792,-64.1563 L 605.156,-63.7921 L 605.48,-63.3919 L 605.761,-62.96 L 605.995,-62.5011
 L 606.179,-62.0204 L 606.312,-61.5229 L 606.393,-61.0143 L 606.42,-60.5 L 606.393,-59.9857 L 606.312,-59.4771
 L 606.179,-58.9796 L 605.995,-58.4989 L 605.761,-58.04 L 605.48,-57.6081 L 605.156,-57.2079 L 604.792,-56.8437
 L 604.392,-56.5196 L 603.96,-56.2392 L 603.501,-56.0054 L 603.02,-55.8208 L 602.523,-55.6875 L 602.014,-55.607
 L 601.5,-55.58 z
M 303.278,-48.8656 L 302.513,-49.2029 L 293.209,-54.5285 L 292.845,-54.7639 L 292.223,-55.3235 L 291.732,-56
 L 291.392,-56.7639 L 291.218,-57.5819 L 291.218,-58.4181 L 291.392,-59.2361 L 291.732,-60 L 292.223,-60.6765
 L 292.845,-61.2361 L 293.569,-61.6542 L 294.364,-61.9126 L 295.196,-62 L 313.804,-62 L 314.237,-61.9765
 L 315.054,-61.7996 L 315.817,-61.4566 L 316.492,-60.9626 L 317.049,-60.3391 L 317.464,-59.6133 L 317.72,-58.8171
 L 317.804,-57.9851 L 317.714,-57.1538 L 317.452,-56.3595 L 317.031,-55.6368 L 316.469,-55.0175 L 315.791,-54.5285
 L 306.487,-49.2029 L 305.75,-48.8748 L 304.933,-48.6979 L 304.097,-48.6948 z
M 230.878,-24.6111 L 230.113,-24.9484 L 178.435,-54.5285 L 178.071,-54.7639 L 177.449,-55.3235 L 176.958,-56
 L 176.618,-56.7639 L 176.444,-57.5819 L 176.444,-58.4181 L 176.618,-59.2361 L 176.958,-60 L 177.449,-60.6765
 L 178.071,-61.2361 L 178.795,-61.6542 L 179.59,-61.9126 L 180.422,-62 L 232.1,-62 L 233.336,-61.8042
 L 234.1,-61.4641 L 234.777,-60.9726 L 235.336,-60.3511 L 235.754,-59.627 L 236.013,-58.8316 L 236.1,-58
 L 236.1,-28.4199 L 236.016,-27.6029 L 235.76,-26.8066 L 235.345,-26.0809 L 234.788,-25.4574 L 234.113,-24.9633
 L 233.35,-24.6203 L 232.533,-24.4434 L 231.697,-24.4403 z
M 495.267,-24.4434 L 494.45,-24.6203 L 493.687,-24.9633 L 493.012,-25.4574 L 492.455,-26.0809 L 492.04,-26.8066
 L 491.784,-27.6029 L 491.7,-28.4199 L 491.7,-58 L 491.787,-58.8316 L 492.046,-59.627 L 492.464,-60.3511
 L 493.023,-60.9726 L 493.7,-61.4641 L 494.464,-61.8042 L 495.7,-62 L 547.378,-62 L 548.21,-61.9126
 L 549.005,-61.6542 L 549.729,-61.2361 L 550.351,-60.6765 L 550.842,-60 L 551.182,-59.2361 L 551.356,-58.4181
 L 551.356,-57.5819 L 551.182,-56.7639 L 550.842,-56 L 550.351,-55.3235 L 549.729,-54.7639 L 549.365,-54.5285
 L 497.687,-24.9484 L 496.922,-24.6111 L 496.103,-24.4403 z
M 112.078,-24.6111 L 111.313,-24.9484 L 59.6348,-54.5285 L 59.2707,-54.7639 L 58.6493,-55.3235 L 58.1578,-56
 L 57.8176,-56.7639 L 57.6438,-57.5819 L 57.6438,-58.4181 L 57.8176,-59.2361 L 58.1578,-60 L 58.6493,-60.6765
 L 59.2707,-61.2361 L 59.9949,-61.6542 L 60.7902,-61.9126 L 61.6219,-62 L 113.3,-62 L 114.536,-61.8042
 L 115.3,-61.4641 L 115.977,-60.9726 L 116.536,-60.3511 L 116.954,-59.627 L 117.213,-58.8316 L 117.3,-58
 L 117.3,-28.4199 L 117.216,-27.6029 L 116.96,-26.8066 L 116.545,-26.0809 L 115.988,-25.4574 L 115.313,-24.9633
 L 114.55,-24.6203 L 113.733,-24.4434 L 112.897,-24.4403 z
M 376.467,-24.4434 L 375.65,-24.6203 L 374.887,-24.9633 L 374.212,-25.4574 L 373.655,-26.0809 L 373.24,-26.8066
 L 372.984,-27.6029 L 372.9,-28.4199 L 372.9,-58 L 372.987,-58.8316 L 373.246,-59.627 L 373.664,-60.3511
 L 374.223,-60.9726 L 374.9,-61.4641 L 375.664,-61.8042 L 376.9,-62 L 428.578,-62 L 429.41,-61.9126
 L 430.205,-61.6542 L 430.929,-61.2361 L 431.551,-60.6765 L 432.042,-60 L 432.382,-59.2361 L 432.556,-58.4181
 L 432.556,-57.5819 L 432.382,-56.7639 L 432.042,-56 L 431.551,-55.3235 L 430.929,-54.7639 L 430.565,-54.5285
 L 378.887,-24.9484 L 378.122,-24.6111 L 377.303,-24.4403 z
M 257.682,-22.1374 L 256.864,-22.3113 L 256.1,-22.6514 L 255.423,-23.1429 L 254.864,-23.7644 L 254.446,-24.4886
 L 254.187,-25.2839 L 254.1,-26.1155 L 254.1,-53.8845 L 254.184,-54.7016 L 254.44,-55.4978 L 254.855,-56.2236
 L 255.412,-56.8471 L 256.087,-57.3411 L 256.85,-57.6841 L 257.667,-57.861 L 258.503,-57.8641 L 259.322,-57.6933
 L 260.087,-57.356 L 284.344,-43.4715 L 285.045,-42.9626 L 285.602,-42.3391 L 286.017,-41.6133 L 286.273,-40.8171
 L 286.357,-39.9851 L 286.266,-39.1538 L 286.005,-38.3594 L 285.584,-37.6368 L 285.022,-37.0175 L 284.344,-36.5285
 L 260.087,-22.644 L 259.336,-22.3113 L 258.518,-22.1374 z
M 349.678,-22.3067 L 348.913,-22.644 L 324.656,-36.5285 L 323.955,-37.0374 L 323.398,-37.6609 L 322.983,-38.3867
 L 322.727,-39.1829 L 322.643,-40.0149 L 322.733,-40.8462 L 322.995,-41.6406 L 323.416,-42.3632 L 323.978,-42.9825
 L 324.656,-43.4715 L 348.913,-57.356 L 349.664,-57.6887 L 350.482,-57.8626 L 351.318,-57.8626 L 352.136,-57.6887
 L 352.9,-57.3486 L 353.577,-56.8571 L 354.136,-56.2356 L 354.554,-55.5114 L 354.813,-54.7161 L 354.9,-53.8845
 L 354.9,-26.1155 L 354.816,-25.2984 L 354.56,-24.5022 L 354.145,-23.7764 L 353.588,-23.1529 L 352.913,-22.6589
 L 352.15,-22.3159 L 351.333,-22.139 L 350.497,-22.1359 z
M 139.3,-18 L 138.064,-18.1958 L 137.3,-18.5359 L 136.623,-19.0274 L 136.064,-19.6489 L 135.646,-20.373
 L 135.387,-21.1684 L 135.3,-22 L 135.3,-51.58 L 135.384,-52.3971 L 135.64,-53.1934 L 136.055,-53.9191
 L 136.612,-54.5426 L 137.287,-55.0367 L 138.05,-55.3796 L 138.867,-55.5565 L 139.703,-55.5597 L 140.522,-55.3889
 L 141.287,-55.0516 L 192.965,-25.4715 L 193.329,-25.2361 L 193.951,-24.6765 L 194.442,-24 L 194.782,-23.2361
 L 194.956,-22.4181 L 194.956,-21.5819 L 194.782,-20.7639 L 194.442,-20 L 193.951,-19.3235 L 193.329,-18.7639
 L 192.605,-18.3458 L 191.81,-18.0874 L 190.978,-18 z
M 418.022,-18 L 417.19,-18.0874 L 416.395,-18.3458 L 415.671,-18.7639 L 415.049,-19.3235 L 414.558,-20
 L 414.218,-20.7639 L 414.044,-21.5819 L 414.044,-22.4181 L 414.218,-23.2361 L 414.558,-24 L 415.049,-24.6765
 L 415.671,-25.2361 L 416.035,-25.4715 L 467.713,-55.0516 L 468.478,-55.3889 L 469.297,-55.5597 L 470.133,-55.5565
 L 470.95,-55.3796 L 471.713,-55.0367 L 472.388,-54.5426 L 472.945,-53.9191 L 473.36,-53.1934 L 473.616,-52.3971
 L 473.7,-51.58 L 473.7,-22 L 473.613,-21.1684 L 473.354,-20.373 L 472.936,-19.6489 L 472.377,-19.0274
 L 471.7,-18.5359 L 470.936,-18.1958 L 469.7,-18 z
M 22,-18 L 20.7639,-18.1958 L 20,-18.5359 L 19.3235,-19.0274 L 18.7639,-19.6489 L 18.3458,-20.373
 L 18.0874,-21.1684 L 18,-22 L 18,-50.7215 L 18.0843,-51.5385 L 18.3398,-52.3348 L 18.7552,-53.0605
 L 19.3124,-53.6841 L 19.9871,-54.1781 L 20.7498,-54.5211 L 21.5671,-54.698 L 22.4033,-54.7011 L 23.2219,-54.5303
 L 23.9871,-54.193 L 74.1652,-25.4715 L 74.5292,-25.2361 L 75.1507,-24.6765 L 75.6422,-24 L 75.9823,-23.2361
 L 76.1562,-22.4181 L 76.1562,-21.5819 L 75.9823,-20.7639 L 75.6422,-20 L 75.1507,-19.3235 L 74.5292,-18.7639
 L 73.8051,-18.3458 L 73.0098,-18.0874 L 72.1781,-18 z
M 536.822,-18 L 535.99,-18.0874 L 535.195,-18.3458 L 534.471,-18.7639 L 533.849,-19.3235 L 533.358,-20
 L 533.018,-20.7639 L 532.844,-21.5819 L 532.844,-22.4181 L 533.018,-23.2361 L 533.358,-24 L 533.849,-24.6765
 L 534.471,-25.2361 L 534.835,-25.4715 L 585.013,-54.193 L 585.778,-54.5303 L 586.597,-54.7011 L 587.433,-54.698
 L 588.25,-54.5211 L 589.013,-54.1781 L 589.688,-53.6841 L 590.245,-53.0605 L 590.66,-52.3348 L 590.916,-51.5385
 L 591,-50.7215 L 591,-22 L 590.913,-21.1684 L 590.654,-20.373 L 590.236,-19.6489 L 589.677,-19.0274
 L 589,-18.5359 L 588.236,-18.1958 L 587,-18 z
M 295.196,-18 L 294.763,-18.0235 L 293.946,-18.2004 L 293.183,-18.5434 L 292.508,-19.0374 L 291.951,-19.6609
 L 291.536,-20.3867 L 291.28,-21.1829 L 291.196,-22.0149 L 291.286,-22.8462 L 291.548,-23.6406 L 291.969,-24.3632
 L 292.53,-24.9825 L 293.209,-25.4715 L 302.513,-30.7971 L 303.25,-31.1252 L 304.067,-31.3021 L 304.903,-31.3052
 L 305.722,-31.1344 L 306.487,-30.7971 L 315.791,-25.4715 L 316.155,-25.2361 L 316.777,-24.6765 L 317.268,-24
 L 317.608,-23.2361 L 317.782,-22.4181 L 317.782,-21.5819 L 317.608,-20.7639 L 317.268,-20 L 316.777,-19.3235
 L 316.155,-18.7639 L 315.431,-18.3458 L 314.636,-18.0874 L 313.804,-18 z
" stroke="black" fill="lightgray" stroke-width="0.5"/>
</svg>
