<?xml version="1.0" standalone="no"?>
<!DOCTYPE svg PUBLIC "-//W3C//DTD SVG 1.1//EN" "http://www.w3.org/Graphics/SVG/1.1/DTD/svg11.dtd">
<svg width="923mm" height="80mm" viewBox="0 -80 923 80" xmlns="http://www.w3.org/2000/svg" version="1.1">
<title>OpenSCAD Model</title>
<path d="
M 923,-80 L 0,-80 L 0,-0 L 4.95,-0 L 4.95,-6 L 5.00572,-6.53017
 L 5.17046,-7.03717 L 5.437,-7.49884 L 5.79372,-7.895 L 6.22499,-8.20836 L 6.71201,-8.42519 L 7.23344,-8.53603
 L 7.76654,-8.53603 L 8.28798,-8.42519 L 8.77499,-8.20836 L 9.20627,-7.895 L 9.56299,-7.49884 L 9.82953,-7.03717
 L 9.99426,-6.53017 L 10.05,-6 L 10.05,-0 L 186.55,-0 L 186.55,-6 L 186.606,-6.53017
 L 186.77,-7.03717 L 187.037,-7.49884 L 187.394,-7.895 L 187.825,-8.20836 L 188.312,-8.42519 L 188.833,-8.53603
 L 189.367,-8.53603 L 189.888,-8.42519 L 190.375,-8.20836 L 190.806,-7.895 L 191.163,-7.49884 L 191.43,-7.03717
 L 191.594,-6.53017 L 191.65,-6 L 191.65,-0 L 368.15,-0 L 368.15,-6 L 368.206,-6.53017
 L 368.37,-7.03717 L 368.637,-7.49884 L 368.994,-7.895 L 369.425,-8.20836 L 369.912,-8.42519 L 370.433,-8.53603
 L 370.967,-8.53603 L 371.488,-8.42519 L 371.975,-8.20836 L 372.406,-7.895 L 372.763,-7.49884 L 373.03,-7.03717
 L 373.194,-6.53017 L 373.25,-6 L 373.25,-0 L 549.75,-0 L 549.75,-6 L 549.806,-6.53017
 L 549.97,-7.03717 L 550.237,-7.49884 L 550.594,-7.895 L 551.025,-8.20836 L 551.512,-8.42519 L 552.033,-8.53603
 L 552.567,-8.53603 L 553.088,-8.42519 L 553.575,-8.20836 L 554.006,-7.895 L 554.363,-7.49884 L 554.63,-7.03717
 L 554.794,-6.53017 L 554.85,-6 L 554.85,-0 L 731.35,-0 L 731.35,-6 L 731.406,-6.53017
 L 731.57,-7.03717 L 731.837,-7.49884 L 732.194,-7.895 L 732.625,-8.20836 L 733.112,-8.42519 L 733.633,-8.53603
 L 734.167,-8.53603 L 734.688,-8.42519 L 735.175,-8.20836 L 735.606,-7.895 L 735.963,-7.49884 L 736.23,-7.03717
 L 736.394,-6.53017 L 736.45,-6 L 736.45,-0 L 912.95,-0 L 912.95,-6 L 913.006,-6.53017
 L 913.17,-7.03717 L 913.437,-7.49884 L 913.794,-7.895 L 914.225,-8.20836 L 914.712,-8.42519 L 915.233,-8.53603
 L 915.767,-8.53603 L 916.288,-8.42519 L 916.775,-8.20836 L 917.206,-7.895 L 917.563,-7.49884 L 917.83,-7.03717
 L 917.994,-6.53017 L 918.05,-6 L 918.05,-0 L 923,-0 z
M 6.98573,-55.607 L 6.47708,-55.6875 L 5.97964,-55.8208 L 5.49887,-56.0054 L 5.04001,-56.2392 L 4.60811,-56.5196
 L 4.20789,-56.8437 L 3.84373,-57.2079 L 3.51964,-57.6081 L 3.23917,-58.04 L 3.00537,-58.4989 L 2.82082,-58.9796
 L 2.68752,-59.4771 L 2.60696,-59.9857 L 2.58,-60.5 L 2.60696,-61.0143 L 2.68752,-61.5229 L 2.82082,-62.0204
 L 3.00537,-62.5011 L 3.23917,-62.96 L 3.51964,-63.3919 L 3.84373,-63.7921 L 4.20789,-64.1563 L 4.60811,-64.4804
 L 4.95001,-64.7024 L 4.95001,-74 L 5.00574,-74.5302 L 5.17047,-75.0372 L 5.43701,-75.4988 L 5.79373,-75.895
 L 6.22501,-76.2084 L 6.71202,-76.4252 L 7.23346,-76.536 L 7.76654,-76.536 L 8.28798,-76.4252 L 8.77499,-76.2084
 L 9.20627,-75.895 L 9.56299,-75.4988 L 9.82953,-75.0372 L 9.99426,-74.5302 L 10.05,-74 L 10.05,-64.7024
 L 10.3919,-64.4804 L 10.7921,-64.1563 L 11.1563,-63.7921 L 11.4804,-63.3919 L 11.7608,-62.96 L 11.9946,-62.5011
 L 12.1792,-62.0204 L 12.3125,-61.5229 L 12.393,-61.0143 L 12.42,-60.5 L 12.393,-59.9857 L 12.3125,-59.4771
 L 12.1792,-58.9796 L 11.9946,-58.4989 L 11.7608,-58.04 L 11.4804,-57.6081 L 11.1563,-57.2079 L 10.7921,-56.8437
 L 10.3919,-56.5196 L 9.95999,-56.2392 L 9.50113,-56.0054 L 9.02036,-55.8208 L 8.52292,-55.6875 L 8.01427,-55.607
 L 7.5,-55.58 z
M 188.586,-55.607 L 188.077,-55.6875 L 187.58,-55.8208 L 187.099,-56.0054 L 186.64,-56.2392 L 186.208,-56.5196
 L 185.808,-56.8437 L 185.444,-57.2079 L 185.12,-57.6081 L 184.839,-58.04 L 184.605,-58.4989 L 184.421,-58.9796
 L 184.288,-59.4771 L 184.207,-59.9857 L 184.18,-60.5 L 184.207,-61.0143 L 184.288,-61.5229 L 184.421,-62.0204
 L 184.605,-62.5011 L 184.839,-62.96 L 185.12,-63.3919 L 185.444,-63.7921 L 185.808,-64.1563 L 186.208,-64.4804
 L 186.55,-64.7024 L 186.55,-74 L 186.606,-74.5302 L 186.77,-75.0372 L 187.037,-75.4988 L 187.394,-75.895
 L 187.825,-76.2084 L 188.312,-76.4252 L 188.833,-76.536 L 189.367,-76.536 L 189.888,-76.4252 L 190.375,-76.2084
 L 190.806,-75.895 L 191.163,-75.4988 L 191.43,-75.0372 L 191.594,-74.5302 L 191.65,-74 L 191.65,-64.7024
 L 191.992,-64.4804 L 192.392,-64.1563 L 192.756,-63.7921 L 193.08,-63.3919 L 193.361,-62.96 L 193.595,-62.5011
 L 193.779,-62.0204 L 193.912,-61.5229 L 193.993,-61.0143 L 194.02,-60.5 L 193.993,-59.9857 L 193.912,-59.4771
 L 193.779,-58.9796 L 193.595,-58.4989 L 193.361,-58.04 L 193.08,-57.6081 L 192.756,-57.2079 L 192.392,-56.8437
 L 191.992,-56.5196 L 191.56,-56.2392 L 191.101,-56.0054 L 190.62,-55.8208 L 190.123,-55.6875 L 189.614,-55.607
 L 189.1,-55.58 z
M 370.186,-55.607 L 369.677,-55.6875 L 369.18,-55.8208 L 368.699,-56.0054 L 368.24,-56.2392 L 367.808,-56.5196
 L 367.408,-56.8437 L 367.044,-57.2079 L 366.72,-57.6081 L 366.439,-58.04 L 366.205,-58.4989 L 366.021,-58.9796
 L 365.888,-59.4771 L 365.807,-59.9857 L 365.78,-60.5 L 365.807,-61.0143 L 365.888,-61.5229 L 366.021,-62.0204
 L 366.205,-62.5011 L 366.439,-62.96 L 366.72,-63.3919 L 367.044,-63.7921 L 367.408,-64.1563 L 367.808,-64.4804
 L 368.15,-64.7024 L 368.15,-74 L 368.206,-74.5302 L 368.37,-75.0372 L 368.637,-75.4988 L 368.994,-75.895
 L 369.425,-76.2084 L 369.912,-76.4252 L 370.433,-76.536 L 370.967,-76.536 L 371.488,-76.4252 L 371.975,-76.2084
 L 372.406,-75.895 L 372.763,-75.4988 L 373.03,-75.0372 L 373.194,-74.5302 L 373.25,-74 L 373.25,-64.7024
 L 373.592,-64.4804 L 373.992,-64.1563 L 374.356,-63.7921 L 374.68,-63.3919 L 374.961,-62.96 L 375.195,-62.5011
 L 375.379,-62.0204 L 375.512,-61.5229 L 375.593,-61.0143 L 375.62,-60.5 L 375.593,-59.9857 L 375.512,-59.4771
 L 375.379,-58.9796 L 375.195,-58.4989 L 374.961,-58.04 L 374.68,-57.6081 L 374.356,-57.2079 L 373.992,-56.8437
 L 373.592,-56.5196 L 373.16,-56.2392 L 372.701,-56.0054 L 372.22,-55.8208 L 371.723,-55.6875 L 371.214,-55.607
 L 370.7,-55.58 z
M 551.786,-55.607 L 551.277,-55.6875 L 550.78,-55.8208 L 550.299,-56.0054 L 549.84,-56.2392 L 549.408,-56.5196
 L 549.008,-56.8437 L 548.644,-57.2079 L 548.32,-57.6081 L 548.039,-58.04 L 547.805,-58.4989 L 547.621,-58.9796
 L 547.488,-59.4771 L 547.407,-59.9857 L 547.38,-60.5 L 547.407,-61.0143 L 547.488,-61.5229 L 547.621,-62.0204
 L 547.805,-62.5011 L 548.039,-62.96 L 548.32,-63.3919 L 548.644,-63.7921 L 549.008,-64.1563 L 549.408,-64.4804
 L 549.75,-64.7024 L 549.75,-74 L 549.806,-74.5302 L 549.97,-75.0372 L 550.237,-75.4988 L 550.594,-75.895
 L 551.025,-76.2084 L 551.512,-76.4252 L 552.033,-76.536 L 552.567,-76.536 L 553.088,-76.4252 L 553.575,-76.2084
 L 554.006,-75.895 L 554.363,-75.4988 L 554.63,-75.0372 L 554.794,-74.5302 L 554.85,-74 L 554.85,-64.7024
 L 555.192,-64.4804 L 555.592,-64.1563 L 555.956,-63.7921 L 556.28,-63.3919 L 556.561,-62.96 L 556.795,-62.5011
 L 556.979,-62.0204 L 557.112,-61.5229 L 557.193,-61.0143 L 557.22,-60.5 L 557.193,-59.9857 L 557.112,-59.4771
 L 556.979,-58.9796 L 556.795,-58.4989 L 556.561,-58.04 L 556.28,-57.6081 L 555.956,-57.2079 L 555.592,-56.8437
 L 555.192,-56.5196 L 554.76,-56.2392 L 554.301,-56.0054 L 553.82,-55.8208 L 553.323,-55.6875 L 552.814,-55.607
 L 552.3,-55.58 z
M 733.386,-55.607 L 732.877,-55.6875 L 732.38,-55.8208 L 731.899,-56.0054 L 731.44,-56.2392 L 731.008,-56.5196
 L 730.608,-56.8437 L 730.244,-57.2079 L 729.92,-57.6081 L 729.639,-58.04 L 729.405,-58.4989 L 729.221,-58.9796
 L 729.088,-59.4771 L 729.007,-59.9857 L 728.98,-60.5 L 729.007,-61.0143 L 729.088,-61.5229 L 729.221,-62.0204
 L 729.405,-62.5011 L 729.639,-62.96 L 729.92,-63.3919 L 730.244,-63.7921 L 730.608,-64.1563 L 731.008,-64.4804
 L 731.35,-64.7024 L 731.35,-74 L 731.406,-74.5302 L 731.57,-75.0372 L 731.837,-75.4988 L 732.194,-75.895
 L 732.625,-76.2084 L 733.112,-76.4252 L 733.633,-76.536 L 734.167,-76.536 L 734.688,-76.4252 L 735.175,-76.2084
 L 735.606,-75.895 L 735.963,-75.4988 L 736.23,-75.0372 L 736.394,-74.5302 L 736.45,-74 L 736.45,-64.7024
 L 736.792,-64.4804 L 737.192,-64.1563 L 737.556,-63.7921 L 737.88,-63.3919 L 738.161,-62.96 L 738.395,-62.5011
 L 738.579,-62.0204 L 738.712,-61.5229 L 738.793,-61.0143 L 738.82,-60.5 L 738.793,-59.9857 L 738.712,-59.4771
 L 738.579,-58.9796 L 738.395,-58.4989 L 738.161,-58.04 L 737.88,-57.6081 L 737.556,-57.2079 L 737.192,-56.8437
 L 736.792,-56.5196 L 736.36,-56.2392 L 735.901,-56.0054 L 735.42,-55.8208 L 734.923,-55.6875 L 734.414,-55.607
 L 733.9,-55.58 z
M 914.986,-55.607 L 914.477,-55.6875 L 913.98,-55.8208 L 913.499,-56.0054 L 913.04,-56.2392 L 912.608,-56.5196
 L 912.208,-56.8437 L 911.844,-57.2079 L 911.52,-57.6081 L 911.239,-58.04 L 911.005,-58.4989 L 910.821,-58.9796
 L 910.688,-59.4771 L 910.607,-59.9857 L 910.58,-60.5 L 910.607,-61.0143 L 910.688,-61.5229 L 910.821,-62.0204
 L 911.005,-62.5011 L 911.239,-62.96 L 911.52,-63.3919 L 911.844,-63.7921 L 912.208,-64.1563 L 912.608,-64.4804
 L 912.95,-64.7024 L 912.95,-74 L 913.006,-74.5302 L 913.17,-75.0372 L 913.437,-75.4988 L 913.794,-75.895
 L 914.225,-76.2084 L 914.712,-76.4252 L 915.233,-76.536 L 915.767,-76.536 L 916.288,-76.4252 L 916.775,-76.2084
 L 917.206,-75.895 L 917.563,-75.4988 L 917.83,-75.0372 L 917.994,-74.5302 L 918.05,-74 L 918.05,-64.7024
 L 918.392,-64.4804 L 918.792,-64.1563 L 919.156,-63.7921 L 919.48,-63.3919 L 919.761,-62.96 L 919.995,-62.5011
 L 920.179,-62.0204 L 920.312,-61.5229 L 920.393,-61.0143 L 920.42,-60.5 L 920.393,-59.9857 L 920.312,-59.4771
 L 920.179,-58.9796 L 919.995,-58.4989 L 919.761,-58.04 L 919.48,-57.6081 L 919.156,-57.2079 L 918.792,-56.8437
 L 918.392,-56.5196 L 917.96,-56.2392 L 917.501,-56.0054 L 917.02,-55.8208 L 916.523,-55.6875 L 916.014,-55.607
 L 915.5,-55.58 z
M 460.907,-47.7787 L 460.097,-47.9884 L 443.365,-54.254 L 442.416,-54.7639 L 441.795,-55.3235 L 441.303,-56
 L 440.963,-56.7639 L 440.789,-57.5819 L 440.789,-58.4181 L 440.963,-59.2361 L 441.303,-60 L 441.795,-60.6765
 L 442.416,-61.2361 L 443.14,-61.6542 L 443.936,-61.9126 L 444.767,-62 L 478.233,-62 L 479.3,-61.8551
 L 480.078,-61.549 L 480.776,-61.0878 L 481.362,-60.4916 L 481.812,-59.7866 L 482.105,-59.0034 L 482.229,-58.1765
 L 482.178,-57.3418 L 481.955,-56.5358 L 481.569,-55.7939 L 481.038,-55.1484 L 480.384,-54.6275 L 479.635,-54.254
 L 462.903,-47.9884 L 461.742,-47.7418 z
M 357.107,-20.78 L 356.297,-20.9898 L 267.462,-54.254 L 266.514,-54.7639 L 265.892,-55.3235 L 265.401,-56
 L 265.061,-56.7639 L 264.887,-57.5819 L 264.887,-58.4181 L 265.061,-59.2361 L 265.401,-60 L 265.892,-60.6765
 L 266.514,-61.2361 L 267.238,-61.6542 L 268.033,-61.9126 L 268.865,-62 L 357.7,-62 L 358.936,-61.8042
 L 359.7,-61.4641 L 360.377,-60.9726 L 360.936,-60.3511 L 361.354,-59.627 L 361.613,-58.8316 L 361.7,-58
 L 361.7,-24.7358 L 361.572,-23.7324 L 361.279,-22.9492 L 360.829,-22.2442 L 360.243,-21.6481 L 359.545,-21.1869
 L 358.767,-20.8808 L 357.942,-20.7431 z
M 745.833,-20.8808 L 745.055,-21.1869 L 744.357,-21.6481 L 743.771,-22.2442 L 743.321,-22.9492 L 743.028,-23.7324
 L 742.9,-24.7358 L 742.9,-58 L 742.987,-58.8316 L 743.246,-59.627 L 743.664,-60.3511 L 744.223,-60.9726
 L 744.9,-61.4641 L 745.664,-61.8042 L 746.9,-62 L 835.735,-62 L 836.567,-61.9126 L 837.362,-61.6542
 L 838.086,-61.2361 L 838.708,-60.6765 L 839.199,-60 L 839.539,-59.2361 L 839.713,-58.4181 L 839.713,-57.5819
 L 839.539,-56.7639 L 839.199,-56 L 838.708,-55.3235 L 838.086,-54.7639 L 837.138,-54.254 L 748.303,-20.9898
 L 747.493,-20.78 L 746.658,-20.7431 z
M 175.507,-20.78 L 174.697,-20.9898 L 85.8624,-54.254 L 84.9139,-54.7639 L 84.2925,-55.3235 L 83.8009,-56
 L 83.4608,-56.7639 L 83.287,-57.5819 L 83.287,-58.4181 L 83.4608,-59.2361 L 83.8009,-60 L 84.2925,-60.6765
 L 84.9139,-61.2361 L 85.6381,-61.6542 L 86.4334,-61.9126 L 87.265,-62 L 176.1,-62 L 177.336,-61.8042
 L 178.1,-61.4641 L 178.777,-60.9726 L 179.336,-60.3511 L 179.754,-59.627 L 180.013,-58.8316 L 180.1,-58
 L 180.1,-24.7358 L 179.972,-23.7324 L 179.679,-22.9492 L 179.229,-22.2442 L 178.643,-21.6481 L 177.945,-21.1869
 L 177.167,-20.8808 L 176.342,-20.7431 z
M 564.233,-20.8808 L 563.455,-21.1869 L 562.757,-21.6481 L 562.171,-22.2442 L 561.721,-22.9492 L 561.428,-23.7324
 L 561.3,-24.7358 L 561.3,-58 L 561.387,-58.8316 L 561.646,-59.627 L 562.064,-60.3511 L 562.623,-60.9726
 L 563.3,-61.4641 L 564.064,-61.8042 L 565.3,-62 L 654.135,-62 L 654.967,-61.9126 L 655.762,-61.6542
 L 656.486,-61.2361 L 657.108,-60.6765 L 657.599,-60 L 657.939,-59.2361 L 658.113,-58.4181 L 658.113,-57.5819
 L 657.939,-56.7639 L 657.599,-56 L 657.108,-55.3235 L 656.486,-54.7639 L 655.538,-54.254 L 566.703,-20.9898
 L 565.893,-20.78 L 565.058,-20.7431 z
M 383.282,-18.6242 L 382.464,-18.798 L 381.7,-19.1382 L 381.023,-19.6297 L 380.464,-20.2511 L 380.046,-20.9753
 L 379.787,-21.7706 L 379.7,-22.6023 L 379.7,-57.3977 L 379.828,-58.4012 L 380.121,-59.1843 L 380.571,-59.8893
 L 381.157,-60.4855 L 381.855,-60.9467 L 382.633,-61.2528 L 383.458,-61.3904 L 384.293,-61.3535 L 385.103,-61.1437
 L 431.565,-43.746 L 432.007,-43.549 L 432.705,-43.0878 L 433.291,-42.4916 L 433.741,-41.7866 L 434.034,-41.0034
 L 434.158,-40.1765 L 434.108,-39.3418 L 433.885,-38.5358 L 433.499,-37.7939 L 432.967,-37.1484 L 432.313,-36.6275
 L 431.565,-36.254 L 385.103,-18.8563 L 384.118,-18.6242 z
M 538.707,-18.6465 L 537.897,-18.8563 L 491.435,-36.254 L 490.993,-36.451 L 490.295,-36.9122 L 489.709,-37.5084
 L 489.259,-38.2134 L 488.966,-38.9966 L 488.842,-39.8235 L 488.892,-40.6582 L 489.115,-41.4642 L 489.501,-42.2061
 L 490.033,-42.8516 L 490.687,-43.3725 L 491.435,-43.746 L 537.897,-61.1437 L 538.882,-61.3758 L 539.718,-61.3758
 L 540.536,-61.202 L 541.3,-60.8618 L 541.977,-60.3703 L 542.536,-59.7489 L 542.954,-59.0247 L 543.213,-58.2294
 L 543.3,-57.3977 L 543.3,-22.6023 L 543.172,-21.5988 L 542.879,-20.8157 L 542.429,-20.1107 L 541.843,-19.5145
 L 541.145,-19.0533 L 540.367,-18.7472 L 539.542,-18.6096 z
M 202.1,-18 L 200.864,-18.1958 L 200.1,-18.5359 L 199.423,-19.0274 L 198.864,-19.6489 L 198.446,-20.373
 L 198.187,-21.1684 L 198.1,-22 L 198.1,-55.2642 L 198.228,-56.2676 L 198.521,-57.0507 L 198.971,-57.7558
 L 199.557,-58.3519 L 200.255,-58.8131 L 201.033,-59.1192 L 201.858,-59.2568 L 202.693,-59.2199 L 203.503,-59.0102
 L 292.338,-25.746 L 293.286,-25.2361 L 293.908,-24.6765 L 294.399,-24 L 294.739,-23.2361 L 294.913,-22.4181
 L 294.913,-21.5819 L 294.739,-20.7639 L 294.399,-20 L 293.908,-19.3235 L 293.286,-18.7639 L 292.562,-18.3458
 L 291.767,-18.0874 L 290.935,-18 z
M 632.065,-18 L 631.233,-18.0874 L 630.438,-18.3458 L 629.714,-18.7639 L 629.092,-19.3235 L 628.601,-20
 L 628.261,-20.7639 L 628.087,-21.5819 L 628.087,-22.4181 L 628.261,-23.2361 L 628.601,-24 L 629.092,-24.6765
 L 629.714,-25.2361 L 630.662,-25.746 L 719.497,-59.0102 L 720.307,-59.2199 L 721.142,-59.2568 L 721.967,-59.1192
 L 722.745,-58.8131 L 723.443,-58.3519 L 724.029,-57.7558 L 724.479,-57.0507 L 724.772,-56.2676 L 724.9,-55.2642
 L 724.9,-22 L 724.813,-21.1684 L 724.554,-20.373 L 724.136,-19.6489 L 723.577,-19.0274 L 722.9,-18.5359
 L 722.136,-18.1958 L 720.9,-18 z
M 22,-18 L 20.7639,-18.1958 L 20,-18.5359 L 19.3235,-19.0274 L 18.7639,-19.6489 L 18.3458,-20.373
 L 18.0874,-21.1684 L 18,-22 L 18,-54.7025 L 18.1279,-55.7059 L 18.4211,-56.4891 L 18.8708,-57.1941
 L 19.4572,-57.7903 L 20.1548,-58.2514 L 20.933,-58.5576 L 21.7578,-58.6952 L 22.5932,-58.6583 L 23.4027,-58.4485
 L 110.738,-25.746 L 111.686,-25.2361 L 112.308,-24.6765 L 112.799,-24 L 113.139,-23.2361 L 113.313,-22.4181
 L 113.313,-21.5819 L 113.139,-20.7639 L 112.799,-20 L 112.308,-19.3235 L 111.686,-18.7639 L 110.962,-18.3458
 L 110.167,-18.0874 L 109.335,-18 z
M 813.665,-18 L 812.833,-18.0874 L 812.038,-18.3458 L 811.314,-18.7639 L 810.692,-19.3235 L 810.201,-20
 L 809.861,-20.7639 L 809.687,-21.5819 L 809.687,-22.4181 L 809.861,-23.2361 L 810.201,-24 L 810.692,-24.6765
 L 811.314,-25.2361 L 812.262,-25.746 L 899.597,-58.4485 L 900.407,-58.6583 L 901.242,-58.6952 L 902.067,-58.5576
 L 902.845,-58.2514 L 903.543,-57.7903 L 904.129,-57.1941 L 904.579,-56.4891 L 904.872,-55.7059 L 905,-54.7025
 L 905,-22 L 904.913,-21.1684 L 904.654,-20.373 L 904.236,-19.6489 L 903.677,-19.0274 L 903,-18.5359
 L 902.236,-18.1958 L 901,-18 z
M 444.767,-18 L 443.7,-18.1449 L 442.922,-18.451 L 442.224,-18.9122 L 441.638,-19.5084 L 441.188,-20.2134
 L 440.895,-20.9966 L 440.771,-21.8235 L 440.822,-22.6582 L 441.045,-23.4642 L 441.431,-24.2061 L 441.962,-24.8516
 L 442.616,-25.3725 L 443.365,-25.746 L 460.097,-32.0116 L 461.258,-32.2582 L 462.093,-32.2213 L 462.903,-32.0116
 L 479.635,-25.746 L 480.584,-25.2361 L 481.205,-24.6765 L 481.697,-24 L 482.037,-23.2361 L 482.211,-22.4181
 L 482.211,-21.5819 L 482.037,-20.7639 L 481.697,-20 L 481.205,-19.3235 L 480.584,-18.7639 L 479.86,-18.3458
 L 479.064,-18.0874 L 478.233,-18 z
" stroke="black" fill="lightgray" stroke-width="0.5"/>
</svg>
