<?xml version="1.0" standalone="no"?>
<!DOCTYPE svg PUBLIC "-//W3C//DTD SVG 1.1//EN" "http://www.w3.org/Graphics/SVG/1.1/DTD/svg11.dtd">
<svg width="643mm" height="80mm" viewBox="0 -80 643 80" xmlns="http://www.w3.org/2000/svg" version="1.1">
<title>OpenSCAD Model</title>
<path d="
M 643,-80 L 0,-80 L 0,-0 L 4.95,-0 L 4.95,-6 L 5.00572,-6.53017
 L 5.17046,-7.03717 L 5.437,-7.49884 L 5.79372,-7.895 L 6.22499,-8.20836 L 6.71201,-8.42519 L 7.23344,-8.53603
 L 7.76654,-8.53603 L 8.28798,-8.42519 L 8.77499,-8.20836 L 9.20627,-7.895 L 9.56299,-7.49884 L 9.82953,-7.03717
 L 9.99426,-6.53017 L 10.05,-6 L 10.05,-0 L 130.55,-0 L 130.55,-6 L 130.606,-6.53017
 L 130.77,-7.03717 L 131.037,-7.49884 L 131.394,-7.895 L 131.825,-8.20836 L 132.312,-8.42519 L 132.833,-8.53603
 L 133.367,-8.53603 L 133.888,-8.42519 L 134.375,-8.20836 L 134.806,-7.895 L 135.163,-7.49884 L 135.43,-7.03717
 L 135.594,-6.53017 L 135.65,-6 L 135.65,-0 L 256.15,-0 L 256.15,-6 L 256.206,-6.53017
 L 256.37,-7.03717 L 256.637,-7.49884 L 256.994,-7.895 L 257.425,-8.20836 L 257.912,-8.42519 L 258.433,-8.53603
 L 258.967,-8.53603 L 259.488,-8.42519 L 259.975,-8.20836 L 260.406,-7.895 L 260.763,-7.49884 L 261.03,-7.03717
 L 261.194,-6.53017 L 261.25,-6 L 261.25,-0 L 381.75,-0 L 381.75,-6 L 381.806,-6.53017
 L 381.97,-7.03717 L 382.237,-7.49884 L 382.594,-7.895 L 383.025,-8.20836 L 383.512,-8.42519 L 384.033,-8.53603
 L 384.567,-8.53603 L 385.088,-8.42519 L 385.575,-8.20836 L 386.006,-7.895 L 386.363,-7.49884 L 386.63,-7.03717
 L 386.794,-6.53017 L 386.85,-6 L 386.85,-0 L 507.35,-0 L 507.35,-6 L 507.406,-6.53017
 L 507.57,-7.03717 L 507.837,-7.49884 L 508.194,-7.895 L 508.625,-8.20836 L 509.112,-8.42519 L 509.633,-8.53603
 L 510.167,-8.53603 L 510.688,-8.42519 L 511.175,-8.20836 L 511.606,-7.895 L 511.963,-7.49884 L 512.23,-7.03717
 L 512.394,-6.53017 L 512.45,-6 L 512.45,-0 L 632.95,-0 L 632.95,-6 L 633.006,-6.53017
 L 633.17,-7.03717 L 633.437,-7.49884 L 633.794,-7.895 L 634.225,-8.20836 L 634.712,-8.42519 L 635.233,-8.53603
 L 635.767,-8.53603 L 636.288,-8.42519 L 636.775,-8.20836 L 637.206,-7.895 L 637.563,-7.49884 L 637.83,-7.03717
 L 637.994,-6.53017 L 638.05,-6 L 638.05,-0 L 643,-0 z
M 6.98573,-55.607 L 6.47708,-55.6875 L 5.97964,-55.8208 L 5.49887,-56.0054 L 5.04001,-56.2392 L 4.60811,-56.5196
 L 4.20789,-56.8437 L 3.84373,-57.2079 L 3.51964,-57.6081 L 3.23917,-58.04 L 3.00537,-58.4989 L 2.82082,-58.9796
 L 2.68752,-59.4771 L 2.60696,-59.9857 L 2.58,-60.5 L 2.60696,-61.0143 L 2.68752,-61.5229 L 2.82082,-62.0204
 L 3.00537,-62.5011 L 3.23917,-62.96 L 3.51964,-63.3919 L 3.84373,-63.7921 L 4.20789,-64.1563 L 4.60811,-64.4804
 L 4.95001,-64.7024 L 4.95001,-74 L 5.00574,-74.5302 L 5.17047,-75.0372 L 5.43701,-75.4988 L 5.79373,-75.895
 L 6.22501,-76.2084 L 6.71202,-76.4252 L 7.23346,-76.536 L 7.76654,-76.536 L 8.28798,-76.4252 L 8.77499,-76.2084
 L 9.20627,-75.895 L 9.56299,-75.4988 L 9.82953,-75.0372 L 9.99426,-74.5302 L 10.05,-74 L 10.05,-64.7024
 L 10.3919,-64.4804 L 10.7921,-64.1563 L 11.1563,-63.7921 L 11.4804,-63.3919 L 11.7608,-62.96 L 11.9946,-62.5011
 L 12.1792,-62.0204 L 12.3125,-61.5229 L 12.393,-61.0143 L 12.42,-60.5 L 12.393,-59.9857 L 12.3125,-59.4771
 L 12.1792,-58.9796 L 11.9946,-58.4989 L 11.7608,-58.04 L 11.4804,-57.6081 L 11.1563,-57.2079 L 10.7921,-56.8437
 L 10.3919,-56.5196 L 9.95999,-56.2392 L 9.50113,-56.0054 L 9.02036,-55.8208 L 8.52292,-55.6875 L 8.01427,-55.607
 L 7.5,-55.58 z
M 132.586,-55.607 L 132.077,-55.6875 L 131.58,-55.8208 L 131.099,-56.0054 L 130.64,-56.2392 L 130.208,-56.5196
 L 129.808,-56.8437 L 129.444,-57.2079 L 129.12,-57.6081 L 128.839,-58.04 L 128.605,-58.4989 L 128.421,-58.9796
 L 128.288,-59.4771 L 128.207,-59.9857 L 128.18,-60.5 L 128.207,-61.0143 L 128.288,-61.5229 L 128.421,-62.0204
 L 128.605,-62.5011 L 128.839,-62.96 L 129.12,-63.3919 L 129.444,-63.7921 L 129.808,-64.1563 L 130.208,-64.4804
 L 130.55,-64.7024 L 130.55,-74 L 130.606,-74.5302 L 130.77,-75.0372 L 131.037,-75.4988 L 131.394,-75.895
 L 131.825,-76.2084 L 132.312,-76.4252 L 132.833,-76.536 L 133.367,-76.536 L 133.888,-76.4252 L 134.375,-76.2084
 L 134.806,-75.895 L 135.163,-75.4988 L 135.43,-75.0372 L 135.594,-74.5302 L 135.65,-74 L 135.65,-64.7024
 L 135.992,-64.4804 L 136.392,-64.1563 L 136.756,-63.7921 L 137.08,-63.3919 L 137.361,-62.96 L 137.595,-62.5011
 L 137.779,-62.0204 L 137.912,-61.5229 L 137.993,-61.0143 L 138.02,-60.5 L 137.993,-59.9857 L 137.912,-59.4771
 L 137.779,-58.9796 L 137.595,-58.4989 L 137.361,-58.04 L 137.08,-57.6081 L 136.756,-57.2079 L 136.392,-56.8437
 L 135.992,-56.5196 L 135.56,-56.2392 L 135.101,-56.0054 L 134.62,-55.8208 L 134.123,-55.6875 L 133.614,-55.607
 L 133.1,-55.58 z
M 258.186,-55.607 L 257.677,-55.6875 L 257.18,-55.8208 L 256.699,-56.0054 L 256.24,-56.2392 L 255.808,-56.5196
 L 255.408,-56.8437 L 255.044,-57.2079 L 254.72,-57.6081 L 254.439,-58.04 L 254.205,-58.4989 L 254.021,-58.9796
 L 253.888,-59.4771 L 253.807,-59.9857 L 253.78,-60.5 L 253.807,-61.0143 L 253.888,-61.5229 L 254.021,-62.0204
 L 254.205,-62.5011 L 254.439,-62.96 L 254.72,-63.3919 L 255.044,-63.7921 L 255.408,-64.1563 L 255.808,-64.4804
 L 256.15,-64.7024 L 256.15,-74 L 256.206,-74.5302 L 256.37,-75.0372 L 256.637,-75.4988 L 256.994,-75.895
 L 257.425,-76.2084 L 257.912,-76.4252 L 258.433,-76.536 L 258.967,-76.536 L 259.488,-76.4252 L 259.975,-76.2084
 L 260.406,-75.895 L 260.763,-75.4988 L 261.03,-75.0372 L 261.194,-74.5302 L 261.25,-74 L 261.25,-64.7024
 L 261.592,-64.4804 L 261.992,-64.1563 L 262.356,-63.7921 L 262.68,-63.3919 L 262.961,-62.96 L 263.195,-62.5011
 L 263.379,-62.0204 L 263.512,-61.5229 L 263.593,-61.0143 L 263.62,-60.5 L 263.593,-59.9857 L 263.512,-59.4771
 L 263.379,-58.9796 L 263.195,-58.4989 L 262.961,-58.04 L 262.68,-57.6081 L 262.356,-57.2079 L 261.992,-56.8437
 L 261.592,-56.5196 L 261.16,-56.2392 L 260.701,-56.0054 L 260.22,-55.8208 L 259.723,-55.6875 L 259.214,-55.607
 L 258.7,-55.58 z
M 383.786,-55.607 L 383.277,-55.6875 L 382.78,-55.8208 L 382.299,-56.0054 L 381.84,-56.2392 L 381.408,-56.5196
 L 381.008,-56.8437 L 380.644,-57.2079 L 380.32,-57.6081 L 380.039,-58.04 L 379.805,-58.4989 L 379.621,-58.9796
 L 379.488,-59.4771 L 379.407,-59.9857 L 379.38,-60.5 L 379.407,-61.0143 L 379.488,-61.5229 L 379.621,-62.0204
 L 379.805,-62.5011 L 380.039,-62.96 L 380.32,-63.3919 L 380.644,-63.7921 L 381.008,-64.1563 L 381.408,-64.4804
 L 381.75,-64.7024 L 381.75,-74 L 381.806,-74.5302 L 381.97,-75.0372 L 382.237,-75.4988 L 382.594,-75.895
 L 383.025,-76.2084 L 383.512,-76.4252 L 384.033,-76.536 L 384.567,-76.536 L 385.088,-76.4252 L 385.575,-76.2084
 L 386.006,-75.895 L 386.363,-75.4988 L 386.63,-75.0372 L 386.794,-74.5302 L 386.85,-74 L 386.85,-64.7024
 L 387.192,-64.4804 L 387.592,-64.1563 L 387.956,-63.7921 L 388.28,-63.3919 L 388.561,-62.96 L 388.795,-62.5011
 L 388.979,-62.0204 L 389.112,-61.5229 L 389.193,-61.0143 L 389.22,-60.5 L 389.193,-59.9857 L 389.112,-59.4771
 L 388.979,-58.9796 L 388.795,-58.4989 L 388.561,-58.04 L 388.28,-57.6081 L 387.956,-57.2079 L 387.592,-56.8437
 L 387.192,-56.5196 L 386.76,-56.2392 L 386.301,-56.0054 L 385.82,-55.8208 L 385.323,-55.6875 L 384.814,-55.607
 L 384.3,-55.58 z
M 509.386,-55.607 L 508.877,-55.6875 L 508.38,-55.8208 L 507.899,-56.0054 L 507.44,-56.2392 L 507.008,-56.5196
 L 506.608,-56.8437 L 506.244,-57.2079 L 505.92,-57.6081 L 505.639,-58.04 L 505.405,-58.4989 L 505.221,-58.9796
 L 505.088,-59.4771 L 505.007,-59.9857 L 504.98,-60.5 L 505.007,-61.0143 L 505.088,-61.5229 L 505.221,-62.0204
 L 505.405,-62.5011 L 505.639,-62.96 L 505.92,-63.3919 L 506.244,-63.7921 L 506.608,-64.1563 L 507.008,-64.4804
 L 507.35,-64.7024 L 507.35,-74 L 507.406,-74.5302 L 507.57,-75.0372 L 507.837,-75.4988 L 508.194,-75.895
 L 508.625,-76.2084 L 509.112,-76.4252 L 509.633,-76.536 L 510.167,-76.536 L 510.688,-76.4252 L 511.175,-76.2084
 L 511.606,-75.895 L 511.963,-75.4988 L 512.23,-75.0372 L 512.394,-74.5302 L 512.45,-74 L 512.45,-64.7024
 L 512.792,-64.4804 L 513.192,-64.1563 L 513.556,-63.7921 L 513.88,-63.3919 L 514.161,-62.96 L 514.395,-62.5011
 L 514.579,-62.0204 L 514.712,-61.5229 L 514.793,-61.0143 L 514.82,-60.5 L 514.793,-59.9857 L 514.712,-59.4771
 L 514.579,-58.9796 L 514.395,-58.4989 L 514.161,-58.04 L 513.88,-57.6081 L 513.556,-57.2079 L 513.192,-56.8437
 L 512.792,-56.5196 L 512.36,-56.2392 L 511.901,-56.0054 L 511.42,-55.8208 L 510.923,-55.6875 L 510.414,-55.607
 L 509.9,-55.58 z
M 634.986,-55.607 L 634.477,-55.6875 L 633.98,-55.8208 L 633.499,-56.0054 L 633.04,-56.2392 L 632.608,-56.5196
 L 632.208,-56.8437 L 631.844,-57.2079 L 631.52,-57.6081 L 631.239,-58.04 L 631.005,-58.4989 L 630.821,-58.9796
 L 630.688,-59.4771 L 630.607,-59.9857 L 630.58,-60.5 L 630.607,-61.0143 L 630.688,-61.5229 L 630.821,-62.0204
 L 631.005,-62.5011 L 631.239,-62.96 L 631.52,-63.3919 L 631.844,-63.7921 L 632.208,-64.1563 L 632.608,-64.4804
 L 632.95,-64.7024 L 632.95,-74 L 633.006,-74.5302 L 633.17,-75.0372 L 633.437,-75.4988 L 633.794,-75.895
 L 634.225,-76.2084 L 634.712,-76.4252 L 635.233,-76.536 L 635.767,-76.536 L 636.288,-76.4252 L 636.775,-76.2084
 L 637.206,-75.895 L 637.563,-75.4988 L 637.83,-75.0372 L 637.994,-74.5302 L 638.05,-74 L 638.05,-64.7024
 L 638.392,-64.4804 L 638.792,-64.1563 L 639.156,-63.7921 L 639.48,-63.3919 L 639.761,-62.96 L 639.995,-62.5011
 L 640.179,-62.0204 L 640.312,-61.5229 L 640.393,-61.0143 L 640.42,-60.5 L 640.393,-59.9857 L 640.312,-59.4771
 L 640.179,-58.9796 L 639.995,-58.4989 L 639.761,-58.04 L 639.48,-57.6081 L 639.156,-57.2079 L 638.792,-56.8437
 L 638.392,-56.5196 L 637.96,-56.2392 L 637.501,-56.0054 L 637.02,-55.8208 L 636.523,-55.6875 L 636.014,-55.607
 L 635.5,-55.58 z
M 320.369,-48.6673 L 319.596,-48.9864 L 309.444,-54.4824 L 308.997,-54.7639 L 308.376,-55.3235 L 307.884,-56
 L 307.544,-56.7639 L 307.37,-57.5819 L 307.37,-58.4181 L 307.544,-59.2361 L 307.884,-60 L 308.376,-60.6765
 L 308.997,-61.2361 L 309.722,-61.6542 L 310.517,-61.9126 L 311.349,-62 L 331.651,-62 L 332.178,-61.9651
 L 332.991,-61.769 L 333.746,-61.4081 L 334.408,-60.8982 L 334.951,-60.2617 L 335.349,-59.5263 L 335.585,-58.7242
 L 335.65,-57.8905 L 335.54,-57.0616 L 335.26,-56.2736 L 334.822,-55.5611 L 334.246,-54.9553 L 333.556,-54.4824
 L 323.404,-48.9864 L 322.84,-48.735 L 322.027,-48.5388 L 321.191,-48.5159 z
M 244.569,-23.979 L 243.796,-24.2981 L 188.043,-54.4824 L 187.597,-54.7639 L 186.975,-55.3235 L 186.484,-56
 L 186.143,-56.7639 L 185.97,-57.5819 L 185.97,-58.4181 L 186.143,-59.2361 L 186.484,-60 L 186.975,-60.6765
 L 187.597,-61.2361 L 188.321,-61.6542 L 189.116,-61.9126 L 189.948,-62 L 245.7,-62 L 246.936,-61.8042
 L 247.7,-61.4641 L 248.377,-60.9726 L 248.936,-60.3511 L 249.354,-59.627 L 249.613,-58.8316 L 249.7,-58
 L 249.7,-27.8156 L 249.634,-27.0914 L 249.397,-26.2894 L 248.999,-25.554 L 248.457,-24.9174 L 247.794,-24.4076
 L 247.04,-24.0467 L 246.227,-23.8505 L 245.391,-23.8276 z
M 522.373,-23.8505 L 521.56,-24.0467 L 520.806,-24.4076 L 520.143,-24.9174 L 519.601,-25.554 L 519.203,-26.2894
 L 518.966,-27.0914 L 518.9,-27.8156 L 518.9,-58 L 518.987,-58.8316 L 519.246,-59.627 L 519.664,-60.3511
 L 520.223,-60.9726 L 520.9,-61.4641 L 521.664,-61.8042 L 522.9,-62 L 578.652,-62 L 579.484,-61.9126
 L 580.279,-61.6542 L 581.003,-61.2361 L 581.625,-60.6765 L 582.116,-60 L 582.457,-59.2361 L 582.63,-58.4181
 L 582.63,-57.5819 L 582.457,-56.7639 L 582.116,-56 L 581.625,-55.3235 L 581.003,-54.7639 L 580.557,-54.4824
 L 524.804,-24.2981 L 524.031,-23.979 L 523.209,-23.8276 z
M 118.969,-23.979 L 118.196,-24.2981 L 62.4433,-54.4824 L 61.9966,-54.7639 L 61.3751,-55.3235 L 60.8836,-56
 L 60.5435,-56.7639 L 60.3696,-57.5819 L 60.3696,-58.4181 L 60.5435,-59.2361 L 60.8836,-60 L 61.3751,-60.6765
 L 61.9966,-61.2361 L 62.7207,-61.6542 L 63.5161,-61.9126 L 64.3477,-62 L 120.1,-62 L 121.336,-61.8042
 L 122.1,-61.4641 L 122.777,-60.9726 L 123.336,-60.3511 L 123.754,-59.627 L 124.013,-58.8316 L 124.1,-58
 L 124.1,-27.8156 L 124.034,-27.0914 L 123.797,-26.2894 L 123.399,-25.554 L 122.857,-24.9174 L 122.194,-24.4076
 L 121.44,-24.0467 L 120.627,-23.8505 L 119.791,-23.8276 z
M 396.773,-23.8505 L 395.96,-24.0467 L 395.206,-24.4076 L 394.543,-24.9174 L 394.001,-25.554 L 393.603,-26.2894
 L 393.366,-27.0914 L 393.3,-27.8156 L 393.3,-58 L 393.387,-58.8316 L 393.646,-59.627 L 394.064,-60.3511
 L 394.623,-60.9726 L 395.3,-61.4641 L 396.064,-61.8042 L 397.3,-62 L 453.052,-62 L 453.884,-61.9126
 L 454.679,-61.6542 L 455.403,-61.2361 L 456.025,-60.6765 L 456.516,-60 L 456.857,-59.2361 L 457.03,-58.4181
 L 457.03,-57.5819 L 456.857,-56.7639 L 456.516,-56 L 456.025,-55.3235 L 455.403,-54.7639 L 454.957,-54.4824
 L 399.204,-24.2981 L 398.431,-23.979 L 397.609,-23.8276 z
M 271.282,-21.5641 L 270.464,-21.738 L 269.7,-22.0781 L 269.023,-22.5696 L 268.464,-23.1911 L 268.046,-23.9153
 L 267.787,-24.7106 L 267.7,-25.5422 L 267.7,-54.4578 L 267.766,-55.182 L 268.003,-55.9841 L 268.401,-56.7195
 L 268.943,-57.356 L 269.606,-57.8658 L 270.36,-58.2268 L 271.173,-58.4229 L 272.009,-58.4458 L 272.831,-58.2944
 L 273.604,-57.9754 L 300.309,-43.5176 L 301.161,-42.8982 L 301.704,-42.2617 L 302.102,-41.5263 L 302.338,-40.7242
 L 302.403,-39.8905 L 302.293,-39.0616 L 302.013,-38.2736 L 301.575,-37.5611 L 300.999,-36.9553 L 300.309,-36.4824
 L 273.604,-22.0246 L 272.936,-21.738 L 272.118,-21.5641 z
M 370.169,-21.7056 L 369.396,-22.0246 L 342.691,-36.4824 L 341.839,-37.1018 L 341.296,-37.7383 L 340.898,-38.4737
 L 340.662,-39.2758 L 340.597,-40.1095 L 340.707,-40.9385 L 340.987,-41.7264 L 341.425,-42.4389 L 342.001,-43.0447
 L 342.691,-43.5176 L 369.396,-57.9754 L 370.064,-58.262 L 370.882,-58.4359 L 371.718,-58.4359 L 372.536,-58.262
 L 373.3,-57.9219 L 373.977,-57.4304 L 374.536,-56.8089 L 374.954,-56.0847 L 375.213,-55.2894 L 375.3,-54.4578
 L 375.3,-25.5422 L 375.234,-24.818 L 374.997,-24.0159 L 374.599,-23.2805 L 374.057,-22.644 L 373.394,-22.1342
 L 372.64,-21.7733 L 371.827,-21.5771 L 370.991,-21.5542 z
M 146.1,-18 L 144.864,-18.1958 L 144.1,-18.5359 L 143.423,-19.0274 L 142.864,-19.6489 L 142.446,-20.373
 L 142.187,-21.1684 L 142.1,-22 L 142.1,-52.1843 L 142.166,-52.9086 L 142.403,-53.7106 L 142.801,-54.446
 L 143.343,-55.0825 L 144.006,-55.5924 L 144.76,-55.9533 L 145.573,-56.1495 L 146.409,-56.1724 L 147.231,-56.021
 L 148.004,-55.7019 L 203.757,-25.5176 L 204.203,-25.2361 L 204.825,-24.6765 L 205.316,-24 L 205.656,-23.2361
 L 205.83,-22.4181 L 205.83,-21.5819 L 205.656,-20.7639 L 205.316,-20 L 204.825,-19.3235 L 204.203,-18.7639
 L 203.479,-18.3458 L 202.684,-18.0874 L 201.852,-18 z
M 441.148,-18 L 440.316,-18.0874 L 439.521,-18.3458 L 438.797,-18.7639 L 438.175,-19.3235 L 437.684,-20
 L 437.343,-20.7639 L 437.17,-21.5819 L 437.17,-22.4181 L 437.343,-23.2361 L 437.684,-24 L 438.175,-24.6765
 L 438.797,-25.2361 L 439.243,-25.5176 L 494.996,-55.7019 L 495.769,-56.021 L 496.591,-56.1724 L 497.427,-56.1495
 L 498.24,-55.9533 L 498.994,-55.5924 L 499.657,-55.0825 L 500.199,-54.446 L 500.597,-53.7106 L 500.834,-52.9086
 L 500.9,-52.1843 L 500.9,-22 L 500.813,-21.1684 L 500.554,-20.373 L 500.136,-19.6489 L 499.577,-19.0274
 L 498.9,-18.5359 L 498.136,-18.1958 L 496.9,-18 z
M 22,-18 L 20.7639,-18.1958 L 20,-18.5359 L 19.3235,-19.0274 L 18.7639,-19.6489 L 18.3458,-20.373
 L 18.0874,-21.1684 L 18,-22 L 18,-51.3722 L 18.0661,-52.0965 L 18.3026,-52.8985 L 18.7008,-53.6339
 L 19.2431,-54.2704 L 19.9059,-54.7803 L 20.6602,-55.1412 L 21.4731,-55.3374 L 22.3091,-55.3603 L 23.1315,-55.2089
 L 23.9044,-54.8898 L 78.1567,-25.5176 L 78.6034,-25.2361 L 79.2249,-24.6765 L 79.7164,-24 L 80.0565,-23.2361
 L 80.2304,-22.4181 L 80.2304,-21.5819 L 80.0565,-20.7639 L 79.7164,-20 L 79.2249,-19.3235 L 78.6034,-18.7639
 L 77.8792,-18.3458 L 77.0839,-18.0874 L 76.2523,-18 z
M 566.748,-18 L 565.916,-18.0874 L 565.121,-18.3458 L 564.397,-18.7639 L 563.775,-19.3235 L 563.284,-20
 L 562.943,-20.7639 L 562.77,-21.5819 L 562.77,-22.4181 L 562.943,-23.2361 L 563.284,-24 L 563.775,-24.6765
 L 564.397,-25.2361 L 564.843,-25.5176 L 619.096,-54.8898 L 619.869,-55.2089 L 620.691,-55.3603 L 621.527,-55.3374
 L 622.34,-55.1412 L 623.094,-54.7803 L 623.757,-54.2704 L 624.299,-53.6339 L 624.697,-52.8985 L 624.934,-52.0965
 L 625,-51.3722 L 625,-22 L 624.913,-21.1684 L 624.654,-20.373 L 624.236,-19.6489 L 623.677,-19.0274
 L 623,-18.5359 L 622.236,-18.1958 L 621,-18 z
M 311.349,-18 L 310.822,-18.0349 L 310.009,-18.231 L 309.254,-18.5919 L 308.592,-19.1018 L 308.049,-19.7383
 L 307.651,-20.4737 L 307.415,-21.2758 L 307.35,-22.1095 L 307.46,-22.9384 L 307.74,-23.7264 L 308.178,-24.4389
 L 308.754,-25.0447 L 309.444,-25.5176 L 319.596,-31.0136 L 320.16,-31.265 L 320.973,-31.4612 L 321.809,-31.4841
 L 322.631,-31.3327 L 323.404,-31.0136 L 333.556,-25.5176 L 334.003,-25.2361 L 334.624,-24.6765 L 335.116,-24
 L 335.456,-23.2361 L 335.63,-22.4181 L 335.63,-21.5819 L 335.456,-20.7639 L 335.116,-20 L 334.624,-19.3235
 L 334.003,-18.7639 L 333.278,-18.3458 L 332.483,-18.0874 L 331.651,-18 z
" stroke="black" fill="lightgray" stroke-width="0.5"/>
</svg>
