<?xml version="1.0" standalone="no"?>
<!DOCTYPE svg PUBLIC "-//W3C//DTD SVG 1.1//EN" "http://www.w3.org/Graphics/SVG/1.1/DTD/svg11.dtd">
<svg width="632mm" height="80mm" viewBox="0 -80 632 80" xmlns="http://www.w3.org/2000/svg" version="1.1">
<title>OpenSCAD Model</title>
<path d="
M 632,-80 L 0,-80 L 0,-0 L 4.95,-0 L 4.95,-6 L 5.00572,-6.53017
 L 5.17046,-7.03717 L 5.437,-7.49884 L 5.79372,-7.895 L 6.22499,-8.20836 L 6.71201,-8.42519 L 7.23344,-8.53603
 L 7.76654,-8.53603 L 8.28798,-8.42519 L 8.77499,-8.20836 L 9.20627,-7.895 L 9.56299,-7.49884 L 9.82953,-7.03717
 L 9.99426,-6.53017 L 10.05,-6 L 10.05,-0 L 128.35,-0 L 128.35,-6 L 128.406,-6.53017
 L 128.57,-7.03717 L 128.837,-7.49884 L 129.194,-7.895 L 129.625,-8.20836 L 130.112,-8.42519 L 130.633,-8.53603
 L 131.167,-8.53603 L 131.688,-8.42519 L 132.175,-8.20836 L 132.606,-7.895 L 132.963,-7.49884 L 133.23,-7.03717
 L 133.394,-6.53017 L 133.45,-6 L 133.45,-0 L 251.75,-0 L 251.75,-6 L 251.806,-6.53017
 L 251.97,-7.03717 L 252.237,-7.49884 L 252.594,-7.895 L 253.025,-8.20836 L 253.512,-8.42519 L 254.033,-8.53603
 L 254.567,-8.53603 L 255.088,-8.42519 L 255.575,-8.20836 L 256.006,-7.895 L 256.363,-7.49884 L 256.63,-7.03717
 L 256.794,-6.53017 L 256.85,-6 L 256.85,-0 L 375.15,-0 L 375.15,-6 L 375.206,-6.53017
 L 375.37,-7.03717 L 375.637,-7.49884 L 375.994,-7.895 L 376.425,-8.20836 L 376.912,-8.42519 L 377.433,-8.53603
 L 377.967,-8.53603 L 378.488,-8.42519 L 378.975,-8.20836 L 379.406,-7.895 L 379.763,-7.49884 L 380.03,-7.03717
 L 380.194,-6.53017 L 380.25,-6 L 380.25,-0 L 498.55,-0 L 498.55,-6 L 498.606,-6.53017
 L 498.77,-7.03717 L 499.037,-7.49884 L 499.394,-7.895 L 499.825,-8.20836 L 500.312,-8.42519 L 500.833,-8.53603
 L 501.367,-8.53603 L 501.888,-8.42519 L 502.375,-8.20836 L 502.806,-7.895 L 503.163,-7.49884 L 503.43,-7.03717
 L 503.594,-6.53017 L 503.65,-6 L 503.65,-0 L 621.95,-0 L 621.95,-6 L 622.006,-6.53017
 L 622.17,-7.03717 L 622.437,-7.49884 L 622.794,-7.895 L 623.225,-8.20836 L 623.712,-8.42519 L 624.233,-8.53603
 L 624.767,-8.53603 L 625.288,-8.42519 L 625.775,-8.20836 L 626.206,-7.895 L 626.563,-7.49884 L 626.83,-7.03717
 L 626.994,-6.53017 L 627.05,-6 L 627.05,-0 L 632,-0 z
M 6.98573,-55.607 L 6.47708,-55.6875 L 5.97964,-55.8208 L 5.49887,-56.0054 L 5.04001,-56.2392 L 4.60811,-56.5196
 L 4.20789,-56.8437 L 3.84373,-57.2079 L 3.51964,-57.6081 L 3.23917,-58.04 L 3.00537,-58.4989 L 2.82082,-58.9796
 L 2.68752,-59.4771 L 2.60696,-59.9857 L 2.58,-60.5 L 2.60696,-61.0143 L 2.68752,-61.5229 L 2.82082,-62.0204
 L 3.00537,-62.5011 L 3.23917,-62.96 L 3.51964,-63.3919 L 3.84373,-63.7921 L 4.20789,-64.1563 L 4.60811,-64.4804
 L 4.95001,-64.7024 L 4.95001,-74 L 5.00574,-74.5302 L 5.17047,-75.0372 L 5.43701,-75.4988 L 5.79373,-75.895
 L 6.22501,-76.2084 L 6.71202,-76.4252 L 7.23346,-76.536 L 7.76654,-76.536 L 8.28798,-76.4252 L 8.77499,-76.2084
 L 9.20627,-75.895 L 9.56299,-75.4988 L 9.82953,-75.0372 L 9.99426,-74.5302 L 10.05,-74 L 10.05,-64.7024
 L 10.3919,-64.4804 L 10.7921,-64.1563 L 11.1563,-63.7921 L 11.4804,-63.3919 L 11.7608,-62.96 L 11.9946,-62.5011
 L 12.1792,-62.0204 L 12.3125,-61.5229 L 12.393,-61.0143 L 12.42,-60.5 L 12.393,-59.9857 L 12.3125,-59.4771
 L 12.1792,-58.9796 L 11.9946,-58.4989 L 11.7608,-58.04 L 11.4804,-57.6081 L 11.1563,-57.2079 L 10.7921,-56.8437
 L 10.3919,-56.5196 L 9.95999,-56.2392 L 9.50113,-56.0054 L 9.02036,-55.8208 L 8.52292,-55.6875 L 8.01427,-55.607
 L 7.5,-55.58 z
M 130.386,-55.607 L 129.877,-55.6875 L 129.38,-55.8208 L 128.899,-56.0054 L 128.44,-56.2392 L 128.008,-56.5196
 L 127.608,-56.8437 L 127.244,-57.2079 L 126.92,-57.6081 L 126.639,-58.04 L 126.405,-58.4989 L 126.221,-58.9796
 L 126.088,-59.4771 L 126.007,-59.9857 L 125.98,-60.5 L 126.007,-61.0143 L 126.088,-61.5229 L 126.221,-62.0204
 L 126.405,-62.5011 L 126.639,-62.96 L 126.92,-63.3919 L 127.244,-63.7921 L 127.608,-64.1563 L 128.008,-64.4804
 L 128.35,-64.7024 L 128.35,-74 L 128.406,-74.5302 L 128.57,-75.0372 L 128.837,-75.4988 L 129.194,-75.895
 L 129.625,-76.2084 L 130.112,-76.4252 L 130.633,-76.536 L 131.167,-76.536 L 131.688,-76.4252 L 132.175,-76.2084
 L 132.606,-75.895 L 132.963,-75.4988 L 133.23,-75.0372 L 133.394,-74.5302 L 133.45,-74 L 133.45,-64.7024
 L 133.792,-64.4804 L 134.192,-64.1563 L 134.556,-63.7921 L 134.88,-63.3919 L 135.161,-62.96 L 135.395,-62.5011
 L 135.579,-62.0204 L 135.712,-61.5229 L 135.793,-61.0143 L 135.82,-60.5 L 135.793,-59.9857 L 135.712,-59.4771
 L 135.579,-58.9796 L 135.395,-58.4989 L 135.161,-58.04 L 134.88,-57.6081 L 134.556,-57.2079 L 134.192,-56.8437
 L 133.792,-56.5196 L 133.36,-56.2392 L 132.901,-56.0054 L 132.42,-55.8208 L 131.923,-55.6875 L 131.414,-55.607
 L 130.9,-55.58 z
M 253.786,-55.607 L 253.277,-55.6875 L 252.78,-55.8208 L 252.299,-56.0054 L 251.84,-56.2392 L 251.408,-56.5196
 L 251.008,-56.8437 L 250.644,-57.2079 L 250.32,-57.6081 L 250.039,-58.04 L 249.805,-58.4989 L 249.621,-58.9796
 L 249.488,-59.4771 L 249.407,-59.9857 L 249.38,-60.5 L 249.407,-61.0143 L 249.488,-61.5229 L 249.621,-62.0204
 L 249.805,-62.5011 L 250.039,-62.96 L 250.32,-63.3919 L 250.644,-63.7921 L 251.008,-64.1563 L 251.408,-64.4804
 L 251.75,-64.7024 L 251.75,-74 L 251.806,-74.5302 L 251.97,-75.0372 L 252.237,-75.4988 L 252.594,-75.895
 L 253.025,-76.2084 L 253.512,-76.4252 L 254.033,-76.536 L 254.567,-76.536 L 255.088,-76.4252 L 255.575,-76.2084
 L 256.006,-75.895 L 256.363,-75.4988 L 256.63,-75.0372 L 256.794,-74.5302 L 256.85,-74 L 256.85,-64.7024
 L 257.192,-64.4804 L 257.592,-64.1563 L 257.956,-63.7921 L 258.28,-63.3919 L 258.561,-62.96 L 258.795,-62.5011
 L 258.979,-62.0204 L 259.112,-61.5229 L 259.193,-61.0143 L 259.22,-60.5 L 259.193,-59.9857 L 259.112,-59.4771
 L 258.979,-58.9796 L 258.795,-58.4989 L 258.561,-58.04 L 258.28,-57.6081 L 257.956,-57.2079 L 257.592,-56.8437
 L 257.192,-56.5196 L 256.76,-56.2392 L 256.301,-56.0054 L 255.82,-55.8208 L 255.323,-55.6875 L 254.814,-55.607
 L 254.3,-55.58 z
M 377.186,-55.607 L 376.677,-55.6875 L 376.18,-55.8208 L 375.699,-56.0054 L 375.24,-56.2392 L 374.808,-56.5196
 L 374.408,-56.8437 L 374.044,-57.2079 L 373.72,-57.6081 L 373.439,-58.04 L 373.205,-58.4989 L 373.021,-58.9796
 L 372.888,-59.4771 L 372.807,-59.9857 L 372.78,-60.5 L 372.807,-61.0143 L 372.888,-61.5229 L 373.021,-62.0204
 L 373.205,-62.5011 L 373.439,-62.96 L 373.72,-63.3919 L 374.044,-63.7921 L 374.408,-64.1563 L 374.808,-64.4804
 L 375.15,-64.7024 L 375.15,-74 L 375.206,-74.5302 L 375.37,-75.0372 L 375.637,-75.4988 L 375.994,-75.895
 L 376.425,-76.2084 L 376.912,-76.4252 L 377.433,-76.536 L 377.967,-76.536 L 378.488,-76.4252 L 378.975,-76.2084
 L 379.406,-75.895 L 379.763,-75.4988 L 380.03,-75.0372 L 380.194,-74.5302 L 380.25,-74 L 380.25,-64.7024
 L 380.592,-64.4804 L 380.992,-64.1563 L 381.356,-63.7921 L 381.68,-63.3919 L 381.961,-62.96 L 382.195,-62.5011
 L 382.379,-62.0204 L 382.512,-61.5229 L 382.593,-61.0143 L 382.62,-60.5 L 382.593,-59.9857 L 382.512,-59.4771
 L 382.379,-58.9796 L 382.195,-58.4989 L 381.961,-58.04 L 381.68,-57.6081 L 381.356,-57.2079 L 380.992,-56.8437
 L 380.592,-56.5196 L 380.16,-56.2392 L 379.701,-56.0054 L 379.22,-55.8208 L 378.723,-55.6875 L 378.214,-55.607
 L 377.7,-55.58 z
M 500.586,-55.607 L 500.077,-55.6875 L 499.58,-55.8208 L 499.099,-56.0054 L 498.64,-56.2392 L 498.208,-56.5196
 L 497.808,-56.8437 L 497.444,-57.2079 L 497.12,-57.6081 L 496.839,-58.04 L 496.605,-58.4989 L 496.421,-58.9796
 L 496.288,-59.4771 L 496.207,-59.9857 L 496.18,-60.5 L 496.207,-61.0143 L 496.288,-61.5229 L 496.421,-62.0204
 L 496.605,-62.5011 L 496.839,-62.96 L 497.12,-63.3919 L 497.444,-63.7921 L 497.808,-64.1563 L 498.208,-64.4804
 L 498.55,-64.7024 L 498.55,-74 L 498.606,-74.5302 L 498.77,-75.0372 L 499.037,-75.4988 L 499.394,-75.895
 L 499.825,-76.2084 L 500.312,-76.4252 L 500.833,-76.536 L 501.367,-76.536 L 501.888,-76.4252 L 502.375,-76.2084
 L 502.806,-75.895 L 503.163,-75.4988 L 503.43,-75.0372 L 503.594,-74.5302 L 503.65,-74 L 503.65,-64.7024
 L 503.992,-64.4804 L 504.392,-64.1563 L 504.756,-63.7921 L 505.08,-63.3919 L 505.361,-62.96 L 505.595,-62.5011
 L 505.779,-62.0204 L 505.912,-61.5229 L 505.993,-61.0143 L 506.02,-60.5 L 505.993,-59.9857 L 505.912,-59.4771
 L 505.779,-58.9796 L 505.595,-58.4989 L 505.361,-58.04 L 505.08,-57.6081 L 504.756,-57.2079 L 504.392,-56.8437
 L 503.992,-56.5196 L 503.56,-56.2392 L 503.101,-56.0054 L 502.62,-55.8208 L 502.123,-55.6875 L 501.614,-55.607
 L 501.1,-55.58 z
M 623.986,-55.607 L 623.477,-55.6875 L 622.98,-55.8208 L 622.499,-56.0054 L 622.04,-56.2392 L 621.608,-56.5196
 L 621.208,-56.8437 L 620.844,-57.2079 L 620.52,-57.6081 L 620.239,-58.04 L 620.005,-58.4989 L 619.821,-58.9796
 L 619.688,-59.4771 L 619.607,-59.9857 L 619.58,-60.5 L 619.607,-61.0143 L 619.688,-61.5229 L 619.821,-62.0204
 L 620.005,-62.5011 L 620.239,-62.96 L 620.52,-63.3919 L 620.844,-63.7921 L 621.208,-64.1563 L 621.608,-64.4804
 L 621.95,-64.7024 L 621.95,-74 L 622.006,-74.5302 L 622.17,-75.0372 L 622.437,-75.4988 L 622.794,-75.895
 L 623.225,-76.2084 L 623.712,-76.4252 L 624.233,-76.536 L 624.767,-76.536 L 625.288,-76.4252 L 625.775,-76.2084
 L 626.206,-75.895 L 626.563,-75.4988 L 626.83,-75.0372 L 626.994,-74.5302 L 627.05,-74 L 627.05,-64.7024
 L 627.392,-64.4804 L 627.792,-64.1563 L 628.156,-63.7921 L 628.48,-63.3919 L 628.761,-62.96 L 628.995,-62.5011
 L 629.179,-62.0204 L 629.312,-61.5229 L 629.393,-61.0143 L 629.42,-60.5 L 629.393,-59.9857 L 629.312,-59.4771
 L 629.179,-58.9796 L 628.995,-58.4989 L 628.761,-58.04 L 628.48,-57.6081 L 628.156,-57.2079 L 627.792,-56.8437
 L 627.392,-56.5196 L 626.96,-56.2392 L 626.501,-56.0054 L 626.02,-55.8208 L 625.523,-55.6875 L 625.014,-55.607
 L 624.5,-55.58 z
M 314.84,-48.7289 L 314.069,-49.0538 L 304.192,-54.4967 L 303.772,-54.7639 L 303.15,-55.3235 L 302.659,-56
 L 302.318,-56.7639 L 302.145,-57.5819 L 302.145,-58.4181 L 302.318,-59.2361 L 302.659,-60 L 303.15,-60.6765
 L 303.772,-61.2361 L 304.496,-61.6542 L 305.291,-61.9126 L 306.123,-62 L 325.877,-62 L 326.375,-61.969
 L 327.189,-61.7788 L 327.946,-61.4235 L 328.613,-60.9186 L 329.16,-60.2861 L 329.563,-59.5537 L 329.806,-58.7534
 L 329.876,-57.9202 L 329.773,-57.0905 L 329.498,-56.3005 L 329.066,-55.5848 L 328.494,-54.9746 L 327.808,-54.4967
 L 317.93,-49.0538 L 317.312,-48.7783 L 316.497,-48.5881 L 315.661,-48.5714 z
M 240.14,-24.1757 L 239.369,-24.5005 L 184.935,-54.4967 L 184.515,-54.7639 L 183.893,-55.3235 L 183.402,-56
 L 183.062,-56.7639 L 182.888,-57.5819 L 182.888,-58.4181 L 183.062,-59.2361 L 183.402,-60 L 183.893,-60.6765
 L 184.515,-61.2361 L 185.239,-61.6542 L 186.034,-61.9126 L 186.866,-62 L 241.3,-62 L 242.536,-61.8042
 L 243.3,-61.4641 L 243.977,-60.9726 L 244.536,-60.3511 L 244.954,-59.627 L 245.213,-58.8316 L 245.3,-58
 L 245.3,-28.0039 L 245.228,-27.2504 L 244.986,-26.4501 L 244.582,-25.7177 L 244.035,-25.0853 L 243.369,-24.5803
 L 242.612,-24.2251 L 241.797,-24.0349 L 240.961,-24.0182 z
M 513.603,-24.0349 L 512.788,-24.2251 L 512.031,-24.5803 L 511.365,-25.0853 L 510.818,-25.7177 L 510.414,-26.4501
 L 510.172,-27.2504 L 510.1,-28.0039 L 510.1,-58 L 510.187,-58.8316 L 510.446,-59.627 L 510.864,-60.3511
 L 511.423,-60.9726 L 512.1,-61.4641 L 512.864,-61.8042 L 514.1,-62 L 568.534,-62 L 569.366,-61.9126
 L 570.161,-61.6542 L 570.885,-61.2361 L 571.507,-60.6765 L 571.998,-60 L 572.338,-59.2361 L 572.512,-58.4181
 L 572.512,-57.5819 L 572.338,-56.7639 L 571.998,-56 L 571.507,-55.3235 L 570.885,-54.7639 L 570.465,-54.4967
 L 516.031,-24.5005 L 515.26,-24.1757 L 514.439,-24.0182 z
M 116.74,-24.1757 L 115.969,-24.5005 L 61.5353,-54.4967 L 61.1147,-54.7639 L 60.4932,-55.3235 L 60.0017,-56
 L 59.6616,-56.7639 L 59.4877,-57.5819 L 59.4877,-58.4181 L 59.6616,-59.2361 L 60.0017,-60 L 60.4932,-60.6765
 L 61.1147,-61.2361 L 61.8389,-61.6542 L 62.6342,-61.9126 L 63.4658,-62 L 117.9,-62 L 119.136,-61.8042
 L 119.9,-61.4641 L 120.577,-60.9726 L 121.136,-60.3511 L 121.554,-59.627 L 121.813,-58.8316 L 121.9,-58
 L 121.9,-28.0039 L 121.828,-27.2504 L 121.586,-26.4501 L 121.182,-25.7177 L 120.635,-25.0853 L 119.969,-24.5803
 L 119.212,-24.2251 L 118.397,-24.0349 L 117.561,-24.0182 z
M 390.203,-24.0349 L 389.388,-24.2251 L 388.631,-24.5803 L 387.965,-25.0853 L 387.418,-25.7177 L 387.014,-26.4501
 L 386.772,-27.2504 L 386.7,-28.0039 L 386.7,-58 L 386.787,-58.8316 L 387.046,-59.627 L 387.464,-60.3511
 L 388.023,-60.9726 L 388.7,-61.4641 L 389.464,-61.8042 L 390.7,-62 L 445.134,-62 L 445.966,-61.9126
 L 446.761,-61.6542 L 447.485,-61.2361 L 448.107,-60.6765 L 448.598,-60 L 448.938,-59.2361 L 449.112,-58.4181
 L 449.112,-57.5819 L 448.938,-56.7639 L 448.598,-56 L 448.107,-55.3235 L 447.485,-54.7639 L 447.065,-54.4967
 L 392.631,-24.5005 L 391.86,-24.1757 L 391.039,-24.0182 z
M 266.882,-21.7427 L 266.064,-21.9165 L 265.3,-22.2567 L 264.623,-22.7482 L 264.064,-23.3696 L 263.646,-24.0938
 L 263.387,-24.8891 L 263.3,-25.7208 L 263.3,-54.2792 L 263.372,-55.0327 L 263.614,-55.833 L 264.018,-56.5654
 L 264.565,-57.1978 L 265.231,-57.7027 L 265.988,-58.058 L 266.803,-58.2482 L 267.639,-58.2649 L 268.46,-58.1073
 L 269.23,-57.7825 L 295.143,-43.5033 L 295.948,-42.9186 L 296.495,-42.2861 L 296.898,-41.5537 L 297.141,-40.7534
 L 297.212,-39.9202 L 297.108,-39.0905 L 296.834,-38.3005 L 296.401,-37.5848 L 295.829,-36.9746 L 295.143,-36.4967
 L 269.23,-22.2175 L 268.536,-21.9165 L 267.718,-21.7427 z
M 363.54,-21.8926 L 362.769,-22.2175 L 336.857,-36.4967 L 336.052,-37.0814 L 335.505,-37.7139 L 335.101,-38.4463
 L 334.859,-39.2466 L 334.788,-40.0798 L 334.892,-40.9095 L 335.166,-41.6995 L 335.599,-42.4152 L 336.171,-43.0254
 L 336.857,-43.5033 L 362.769,-57.7825 L 363.464,-58.0835 L 364.282,-58.2573 L 365.118,-58.2573 L 365.936,-58.0835
 L 366.7,-57.7433 L 367.377,-57.2518 L 367.936,-56.6304 L 368.354,-55.9062 L 368.613,-55.1109 L 368.7,-54.2792
 L 368.7,-25.7208 L 368.628,-24.9673 L 368.386,-24.167 L 367.982,-23.4346 L 367.435,-22.8022 L 366.769,-22.2972
 L 366.012,-21.942 L 365.197,-21.7518 L 364.361,-21.7351 z
M 143.9,-18 L 142.664,-18.1958 L 141.9,-18.5359 L 141.223,-19.0274 L 140.664,-19.6489 L 140.246,-20.373
 L 139.987,-21.1684 L 139.9,-22 L 139.9,-51.9961 L 139.972,-52.7496 L 140.214,-53.5499 L 140.618,-54.2823
 L 141.165,-54.9147 L 141.831,-55.4196 L 142.588,-55.7749 L 143.403,-55.9651 L 144.239,-55.9818 L 145.06,-55.8242
 L 145.831,-55.4994 L 200.265,-25.5033 L 200.685,-25.2361 L 201.307,-24.6765 L 201.798,-24 L 202.138,-23.2361
 L 202.312,-22.4181 L 202.312,-21.5819 L 202.138,-20.7639 L 201.798,-20 L 201.307,-19.3235 L 200.685,-18.7639
 L 199.961,-18.3458 L 199.166,-18.0874 L 198.334,-18 z
M 433.666,-18 L 432.834,-18.0874 L 432.039,-18.3458 L 431.315,-18.7639 L 430.693,-19.3235 L 430.202,-20
 L 429.862,-20.7639 L 429.688,-21.5819 L 429.688,-22.4181 L 429.862,-23.2361 L 430.202,-24 L 430.693,-24.6765
 L 431.315,-25.2361 L 431.735,-25.5033 L 486.169,-55.4994 L 486.94,-55.8242 L 487.761,-55.9818 L 488.597,-55.9651
 L 489.412,-55.7749 L 490.169,-55.4196 L 490.835,-54.9147 L 491.382,-54.2823 L 491.786,-53.5499 L 492.028,-52.7496
 L 492.1,-51.9961 L 492.1,-22 L 492.013,-21.1684 L 491.754,-20.373 L 491.336,-19.6489 L 490.777,-19.0274
 L 490.1,-18.5359 L 489.336,-18.1958 L 488.1,-18 z
M 22,-18 L 20.7639,-18.1958 L 20,-18.5359 L 19.3235,-19.0274 L 18.7639,-19.6489 L 18.3458,-20.373
 L 18.0874,-21.1684 L 18,-22 L 18,-51.1695 L 18.0716,-51.923 L 18.3141,-52.7233 L 18.7177,-53.4557
 L 19.2647,-54.0882 L 19.9313,-54.5931 L 20.6883,-54.9483 L 21.5026,-55.1385 L 22.3387,-55.1552 L 23.1599,-54.9977
 L 23.9305,-54.6729 L 76.8647,-25.5033 L 77.2853,-25.2361 L 77.9067,-24.6765 L 78.3983,-24 L 78.7384,-23.2361
 L 78.9122,-22.4181 L 78.9122,-21.5819 L 78.7384,-20.7639 L 78.3983,-20 L 77.9067,-19.3235 L 77.2853,-18.7639
 L 76.5611,-18.3458 L 75.7658,-18.0874 L 74.9342,-18 z
M 557.066,-18 L 556.234,-18.0874 L 555.439,-18.3458 L 554.715,-18.7639 L 554.093,-19.3235 L 553.602,-20
 L 553.262,-20.7639 L 553.088,-21.5819 L 553.088,-22.4181 L 553.262,-23.2361 L 553.602,-24 L 554.093,-24.6765
 L 554.715,-25.2361 L 555.135,-25.5033 L 608.069,-54.6729 L 608.84,-54.9977 L 609.661,-55.1552 L 610.497,-55.1385
 L 611.312,-54.9483 L 612.069,-54.5931 L 612.735,-54.0882 L 613.282,-53.4557 L 613.686,-52.7233 L 613.928,-51.923
 L 614,-51.1695 L 614,-22 L 613.913,-21.1684 L 613.654,-20.373 L 613.236,-19.6489 L 612.677,-19.0274
 L 612,-18.5359 L 611.236,-18.1958 L 610,-18 z
M 306.123,-18 L 305.625,-18.031 L 304.811,-18.2212 L 304.054,-18.5765 L 303.387,-19.0814 L 302.84,-19.7139
 L 302.437,-20.4463 L 302.194,-21.2466 L 302.123,-22.0798 L 302.227,-22.9095 L 302.502,-23.6995 L 302.934,-24.4152
 L 303.506,-25.0254 L 304.192,-25.5033 L 314.069,-30.9462 L 314.688,-31.2217 L 315.503,-31.4119 L 316.339,-31.4286
 L 317.16,-31.2711 L 317.93,-30.9462 L 327.808,-25.5033 L 328.228,-25.2361 L 328.85,-24.6765 L 329.341,-24
 L 329.682,-23.2361 L 329.855,-22.4181 L 329.855,-21.5819 L 329.682,-20.7639 L 329.341,-20 L 328.85,-19.3235
 L 328.228,-18.7639 L 327.504,-18.3458 L 326.709,-18.0874 L 325.877,-18 z
" stroke="black" fill="lightgray" stroke-width="0.5"/>
</svg>
