<?xml version="1.0" standalone="no"?>
<!DOCTYPE svg PUBLIC "-//W3C//DTD SVG 1.1//EN" "http://www.w3.org/Graphics/SVG/1.1/DTD/svg11.dtd">
<svg width="813mm" height="80mm" viewBox="0 -80 813 80" xmlns="http://www.w3.org/2000/svg" version="1.1">
<title>OpenSCAD Model</title>
<path d="
M 813,-80 L 0,-80 L 0,-0 L 4.95,-0 L 4.95,-6 L 5.00572,-6.53017
 L 5.17046,-7.03717 L 5.437,-7.49884 L 5.79372,-7.895 L 6.22499,-8.20836 L 6.71201,-8.42519 L 7.23344,-8.53603
 L 7.76654,-8.53603 L 8.28798,-8.42519 L 8.77499,-8.20836 L 9.20627,-7.895 L 9.56299,-7.49884 L 9.82953,-7.03717
 L 9.99426,-6.53017 L 10.05,-6 L 10.05,-0 L 164.55,-0 L 164.55,-6 L 164.606,-6.53017
 L 164.77,-7.03717 L 165.037,-7.49884 L 165.394,-7.895 L 165.825,-8.20836 L 166.312,-8.42519 L 166.833,-8.53603
 L 167.367,-8.53603 L 167.888,-8.42519 L 168.375,-8.20836 L 168.806,-7.895 L 169.163,-7.49884 L 169.43,-7.03717
 L 169.594,-6.53017 L 169.65,-6 L 169.65,-0 L 324.15,-0 L 324.15,-6 L 324.206,-6.53017
 L 324.37,-7.03717 L 324.637,-7.49884 L 324.994,-7.895 L 325.425,-8.20836 L 325.912,-8.42519 L 326.433,-8.53603
 L 326.967,-8.53603 L 327.488,-8.42519 L 327.975,-8.20836 L 328.406,-7.895 L 328.763,-7.49884 L 329.03,-7.03717
 L 329.194,-6.53017 L 329.25,-6 L 329.25,-0 L 483.75,-0 L 483.75,-6 L 483.806,-6.53017
 L 483.97,-7.03717 L 484.237,-7.49884 L 484.594,-7.895 L 485.025,-8.20836 L 485.512,-8.42519 L 486.033,-8.53603
 L 486.567,-8.53603 L 487.088,-8.42519 L 487.575,-8.20836 L 488.006,-7.895 L 488.363,-7.49884 L 488.63,-7.03717
 L 488.794,-6.53017 L 488.85,-6 L 488.85,-0 L 643.35,-0 L 643.35,-6 L 643.406,-6.53017
 L 643.57,-7.03717 L 643.837,-7.49884 L 644.194,-7.895 L 644.625,-8.20836 L 645.112,-8.42519 L 645.633,-8.53603
 L 646.167,-8.53603 L 646.688,-8.42519 L 647.175,-8.20836 L 647.606,-7.895 L 647.963,-7.49884 L 648.23,-7.03717
 L 648.394,-6.53017 L 648.45,-6 L 648.45,-0 L 802.95,-0 L 802.95,-6 L 803.006,-6.53017
 L 803.17,-7.03717 L 803.437,-7.49884 L 803.794,-7.895 L 804.225,-8.20836 L 804.712,-8.42519 L 805.233,-8.53603
 L 805.767,-8.53603 L 806.288,-8.42519 L 806.775,-8.20836 L 807.206,-7.895 L 807.563,-7.49884 L 807.83,-7.03717
 L 807.994,-6.53017 L 808.05,-6 L 808.05,-0 L 813,-0 z
M 6.98573,-55.607 L 6.47708,-55.6875 L 5.97964,-55.8208 L 5.49887,-56.0054 L 5.04001,-56.2392 L 4.60811,-56.5196
 L 4.20789,-56.8437 L 3.84373,-57.2079 L 3.51964,-57.6081 L 3.23917,-58.04 L 3.00537,-58.4989 L 2.82082,-58.9796
 L 2.68752,-59.4771 L 2.60696,-59.9857 L 2.58,-60.5 L 2.60696,-61.0143 L 2.68752,-61.5229 L 2.82082,-62.0204
 L 3.00537,-62.5011 L 3.23917,-62.96 L 3.51964,-63.3919 L 3.84373,-63.7921 L 4.20789,-64.1563 L 4.60811,-64.4804
 L 4.95001,-64.7024 L 4.95001,-74 L 5.00574,-74.5302 L 5.17047,-75.0372 L 5.43701,-75.4988 L 5.79373,-75.895
 L 6.22501,-76.2084 L 6.71202,-76.4252 L 7.23346,-76.536 L 7.76654,-76.536 L 8.28798,-76.4252 L 8.77499,-76.2084
 L 9.20627,-75.895 L 9.56299,-75.4988 L 9.82953,-75.0372 L 9.99426,-74.5302 L 10.05,-74 L 10.05,-64.7024
 L 10.3919,-64.4804 L 10.7921,-64.1563 L 11.1563,-63.7921 L 11.4804,-63.3919 L 11.7608,-62.96 L 11.9946,-62.5011
 L 12.1792,-62.0204 L 12.3125,-61.5229 L 12.393,-61.0143 L 12.42,-60.5 L 12.393,-59.9857 L 12.3125,-59.4771
 L 12.1792,-58.9796 L 11.9946,-58.4989 L 11.7608,-58.04 L 11.4804,-57.6081 L 11.1563,-57.2079 L 10.7921,-56.8437
 L 10.3919,-56.5196 L 9.95999,-56.2392 L 9.50113,-56.0054 L 9.02036,-55.8208 L 8.52292,-55.6875 L 8.01427,-55.607
 L 7.5,-55.58 z
M 166.586,-55.607 L 166.077,-55.6875 L 165.58,-55.8208 L 165.099,-56.0054 L 164.64,-56.2392 L 164.208,-56.5196
 L 163.808,-56.8437 L 163.444,-57.2079 L 163.12,-57.6081 L 162.839,-58.04 L 162.605,-58.4989 L 162.421,-58.9796
 L 162.288,-59.4771 L 162.207,-59.9857 L 162.18,-60.5 L 162.207,-61.0143 L 162.288,-61.5229 L 162.421,-62.0204
 L 162.605,-62.5011 L 162.839,-62.96 L 163.12,-63.3919 L 163.444,-63.7921 L 163.808,-64.1563 L 164.208,-64.4804
 L 164.55,-64.7024 L 164.55,-74 L 164.606,-74.5302 L 164.77,-75.0372 L 165.037,-75.4988 L 165.394,-75.895
 L 165.825,-76.2084 L 166.312,-76.4252 L 166.833,-76.536 L 167.367,-76.536 L 167.888,-76.4252 L 168.375,-76.2084
 L 168.806,-75.895 L 169.163,-75.4988 L 169.43,-75.0372 L 169.594,-74.5302 L 169.65,-74 L 169.65,-64.7024
 L 169.992,-64.4804 L 170.392,-64.1563 L 170.756,-63.7921 L 171.08,-63.3919 L 171.361,-62.96 L 171.595,-62.5011
 L 171.779,-62.0204 L 171.912,-61.5229 L 171.993,-61.0143 L 172.02,-60.5 L 171.993,-59.9857 L 171.912,-59.4771
 L 171.779,-58.9796 L 171.595,-58.4989 L 171.361,-58.04 L 171.08,-57.6081 L 170.756,-57.2079 L 170.392,-56.8437
 L 169.992,-56.5196 L 169.56,-56.2392 L 169.101,-56.0054 L 168.62,-55.8208 L 168.123,-55.6875 L 167.614,-55.607
 L 167.1,-55.58 z
M 326.186,-55.607 L 325.677,-55.6875 L 325.18,-55.8208 L 324.699,-56.0054 L 324.24,-56.2392 L 323.808,-56.5196
 L 323.408,-56.8437 L 323.044,-57.2079 L 322.72,-57.6081 L 322.439,-58.04 L 322.205,-58.4989 L 322.021,-58.9796
 L 321.888,-59.4771 L 321.807,-59.9857 L 321.78,-60.5 L 321.807,-61.0143 L 321.888,-61.5229 L 322.021,-62.0204
 L 322.205,-62.5011 L 322.439,-62.96 L 322.72,-63.3919 L 323.044,-63.7921 L 323.408,-64.1563 L 323.808,-64.4804
 L 324.15,-64.7024 L 324.15,-74 L 324.206,-74.5302 L 324.37,-75.0372 L 324.637,-75.4988 L 324.994,-75.895
 L 325.425,-76.2084 L 325.912,-76.4252 L 326.433,-76.536 L 326.967,-76.536 L 327.488,-76.4252 L 327.975,-76.2084
 L 328.406,-75.895 L 328.763,-75.4988 L 329.03,-75.0372 L 329.194,-74.5302 L 329.25,-74 L 329.25,-64.7024
 L 329.592,-64.4804 L 329.992,-64.1563 L 330.356,-63.7921 L 330.68,-63.3919 L 330.961,-62.96 L 331.195,-62.5011
 L 331.379,-62.0204 L 331.512,-61.5229 L 331.593,-61.0143 L 331.62,-60.5 L 331.593,-59.9857 L 331.512,-59.4771
 L 331.379,-58.9796 L 331.195,-58.4989 L 330.961,-58.04 L 330.68,-57.6081 L 330.356,-57.2079 L 329.992,-56.8437
 L 329.592,-56.5196 L 329.16,-56.2392 L 328.701,-56.0054 L 328.22,-55.8208 L 327.723,-55.6875 L 327.214,-55.607
 L 326.7,-55.58 z
M 485.786,-55.607 L 485.277,-55.6875 L 484.78,-55.8208 L 484.299,-56.0054 L 483.84,-56.2392 L 483.408,-56.5196
 L 483.008,-56.8437 L 482.644,-57.2079 L 482.32,-57.6081 L 482.039,-58.04 L 481.805,-58.4989 L 481.621,-58.9796
 L 481.488,-59.4771 L 481.407,-59.9857 L 481.38,-60.5 L 481.407,-61.0143 L 481.488,-61.5229 L 481.621,-62.0204
 L 481.805,-62.5011 L 482.039,-62.96 L 482.32,-63.3919 L 482.644,-63.7921 L 483.008,-64.1563 L 483.408,-64.4804
 L 483.75,-64.7024 L 483.75,-74 L 483.806,-74.5302 L 483.97,-75.0372 L 484.237,-75.4988 L 484.594,-75.895
 L 485.025,-76.2084 L 485.512,-76.4252 L 486.033,-76.536 L 486.567,-76.536 L 487.088,-76.4252 L 487.575,-76.2084
 L 488.006,-75.895 L 488.363,-75.4988 L 488.63,-75.0372 L 488.794,-74.5302 L 488.85,-74 L 488.85,-64.7024
 L 489.192,-64.4804 L 489.592,-64.1563 L 489.956,-63.7921 L 490.28,-63.3919 L 490.561,-62.96 L 490.795,-62.5011
 L 490.979,-62.0204 L 491.112,-61.5229 L 491.193,-61.0143 L 491.22,-60.5 L 491.193,-59.9857 L 491.112,-59.4771
 L 490.979,-58.9796 L 490.795,-58.4989 L 490.561,-58.04 L 490.28,-57.6081 L 489.956,-57.2079 L 489.592,-56.8437
 L 489.192,-56.5196 L 488.76,-56.2392 L 488.301,-56.0054 L 487.82,-55.8208 L 487.323,-55.6875 L 486.814,-55.607
 L 486.3,-55.58 z
M 645.386,-55.607 L 644.877,-55.6875 L 644.38,-55.8208 L 643.899,-56.0054 L 643.44,-56.2392 L 643.008,-56.5196
 L 642.608,-56.8437 L 642.244,-57.2079 L 641.92,-57.6081 L 641.639,-58.04 L 641.405,-58.4989 L 641.221,-58.9796
 L 641.088,-59.4771 L 641.007,-59.9857 L 640.98,-60.5 L 641.007,-61.0143 L 641.088,-61.5229 L 641.221,-62.0204
 L 641.405,-62.5011 L 641.639,-62.96 L 641.92,-63.3919 L 642.244,-63.7921 L 642.608,-64.1563 L 643.008,-64.4804
 L 643.35,-64.7024 L 643.35,-74 L 643.406,-74.5302 L 643.57,-75.0372 L 643.837,-75.4988 L 644.194,-75.895
 L 644.625,-76.2084 L 645.112,-76.4252 L 645.633,-76.536 L 646.167,-76.536 L 646.688,-76.4252 L 647.175,-76.2084
 L 647.606,-75.895 L 647.963,-75.4988 L 648.23,-75.0372 L 648.394,-74.5302 L 648.45,-74 L 648.45,-64.7024
 L 648.792,-64.4804 L 649.192,-64.1563 L 649.556,-63.7921 L 649.88,-63.3919 L 650.161,-62.96 L 650.395,-62.5011
 L 650.579,-62.0204 L 650.712,-61.5229 L 650.793,-61.0143 L 650.82,-60.5 L 650.793,-59.9857 L 650.712,-59.4771
 L 650.579,-58.9796 L 650.395,-58.4989 L 650.161,-58.04 L 649.88,-57.6081 L 649.556,-57.2079 L 649.192,-56.8437
 L 648.792,-56.5196 L 648.36,-56.2392 L 647.901,-56.0054 L 647.42,-55.8208 L 646.923,-55.6875 L 646.414,-55.607
 L 645.9,-55.58 z
M 804.986,-55.607 L 804.477,-55.6875 L 803.98,-55.8208 L 803.499,-56.0054 L 803.04,-56.2392 L 802.608,-56.5196
 L 802.208,-56.8437 L 801.844,-57.2079 L 801.52,-57.6081 L 801.239,-58.04 L 801.005,-58.4989 L 800.821,-58.9796
 L 800.688,-59.4771 L 800.607,-59.9857 L 800.58,-60.5 L 800.607,-61.0143 L 800.688,-61.5229 L 800.821,-62.0204
 L 801.005,-62.5011 L 801.239,-62.96 L 801.52,-63.3919 L 801.844,-63.7921 L 802.208,-64.1563 L 802.608,-64.4804
 L 802.95,-64.7024 L 802.95,-74 L 803.006,-74.5302 L 803.17,-75.0372 L 803.437,-75.4988 L 803.794,-75.895
 L 804.225,-76.2084 L 804.712,-76.4252 L 805.233,-76.536 L 805.767,-76.536 L 806.288,-76.4252 L 806.775,-76.2084
 L 807.206,-75.895 L 807.563,-75.4988 L 807.83,-75.0372 L 807.994,-74.5302 L 808.05,-74 L 808.05,-64.7024
 L 808.392,-64.4804 L 808.792,-64.1563 L 809.156,-63.7921 L 809.48,-63.3919 L 809.761,-62.96 L 809.995,-62.5011
 L 810.179,-62.0204 L 810.312,-61.5229 L 810.393,-61.0143 L 810.42,-60.5 L 810.393,-59.9857 L 810.312,-59.4771
 L 810.179,-58.9796 L 809.995,-58.4989 L 809.761,-58.04 L 809.48,-57.6081 L 809.156,-57.2079 L 808.792,-56.8437
 L 808.392,-56.5196 L 807.96,-56.2392 L 807.501,-56.0054 L 807.02,-55.8208 L 806.523,-55.6875 L 806.014,-55.607
 L 805.5,-55.58 z
M 405.731,-48.0298 L 404.932,-48.2753 L 390.745,-54.3201 L 389.961,-54.7639 L 389.34,-55.3235 L 388.849,-56
 L 388.508,-56.7639 L 388.335,-57.5819 L 388.335,-58.4181 L 388.508,-59.2361 L 388.849,-60 L 389.34,-60.6765
 L 389.961,-61.2361 L 390.686,-61.6542 L 391.481,-61.9126 L 392.313,-62 L 420.687,-62 L 421.582,-61.8987
 L 422.373,-61.6275 L 423.09,-61.1978 L 423.703,-60.6283 L 424.183,-59.944 L 424.511,-59.1746 L 424.672,-58.354
 L 424.658,-57.5179 L 424.471,-56.7028 L 424.119,-55.9445 L 423.616,-55.276 L 422.986,-54.7265 L 422.255,-54.3201
 L 408.068,-48.2753 L 407.395,-48.0566 L 406.564,-47.9558 z
M 312.931,-21.7423 L 312.132,-21.9879 L 236.246,-54.3201 L 235.463,-54.7639 L 234.842,-55.3235 L 234.35,-56
 L 234.01,-56.7639 L 233.836,-57.5819 L 233.836,-58.4181 L 234.01,-59.2361 L 234.35,-60 L 234.842,-60.6765
 L 235.463,-61.2361 L 236.187,-61.6542 L 236.983,-61.9126 L 237.814,-62 L 313.7,-62 L 314.936,-61.8042
 L 315.7,-61.4641 L 316.377,-60.9726 L 316.936,-60.3511 L 317.354,-59.627 L 317.613,-58.8316 L 317.7,-58
 L 317.7,-25.6678 L 317.524,-24.4931 L 317.196,-23.7238 L 316.715,-23.0395 L 316.103,-22.47 L 315.386,-22.0403
 L 314.595,-21.7691 L 313.764,-21.6683 z
M 658.005,-21.7691 L 657.214,-22.0403 L 656.497,-22.47 L 655.885,-23.0395 L 655.404,-23.7238 L 655.076,-24.4931
 L 654.9,-25.6678 L 654.9,-58 L 654.987,-58.8316 L 655.246,-59.627 L 655.664,-60.3511 L 656.223,-60.9726
 L 656.9,-61.4641 L 657.664,-61.8042 L 658.9,-62 L 734.786,-62 L 735.617,-61.9126 L 736.413,-61.6542
 L 737.137,-61.2361 L 737.758,-60.6765 L 738.25,-60 L 738.59,-59.2361 L 738.764,-58.4181 L 738.764,-57.5819
 L 738.59,-56.7639 L 738.25,-56 L 737.758,-55.3235 L 737.137,-54.7639 L 736.354,-54.3201 L 660.468,-21.9879
 L 659.669,-21.7423 L 658.836,-21.6683 z
M 153.331,-21.7423 L 152.532,-21.9879 L 76.6465,-54.3201 L 75.8632,-54.7639 L 75.2418,-55.3235 L 74.7503,-56
 L 74.4101,-56.7639 L 74.2363,-57.5819 L 74.2363,-58.4181 L 74.4101,-59.2361 L 74.7503,-60 L 75.2418,-60.6765
 L 75.8632,-61.2361 L 76.5874,-61.6542 L 77.3827,-61.9126 L 78.2144,-62 L 154.1,-62 L 155.336,-61.8042
 L 156.1,-61.4641 L 156.777,-60.9726 L 157.336,-60.3511 L 157.754,-59.627 L 158.013,-58.8316 L 158.1,-58
 L 158.1,-25.6678 L 157.924,-24.4931 L 157.596,-23.7238 L 157.115,-23.0395 L 156.503,-22.47 L 155.786,-22.0403
 L 154.995,-21.7691 L 154.164,-21.6683 z
M 498.405,-21.7691 L 497.614,-22.0403 L 496.897,-22.47 L 496.285,-23.0395 L 495.804,-23.7238 L 495.476,-24.4931
 L 495.3,-25.6678 L 495.3,-58 L 495.387,-58.8316 L 495.646,-59.627 L 496.064,-60.3511 L 496.623,-60.9726
 L 497.3,-61.4641 L 498.064,-61.8042 L 499.3,-62 L 575.186,-62 L 576.017,-61.9126 L 576.813,-61.6542
 L 577.537,-61.2361 L 578.158,-60.6765 L 578.65,-60 L 578.99,-59.2361 L 579.164,-58.4181 L 579.164,-57.5819
 L 578.99,-56.7639 L 578.65,-56 L 578.158,-55.3235 L 577.537,-54.7639 L 576.754,-54.3201 L 500.868,-21.9879
 L 500.069,-21.7423 L 499.236,-21.6683 z
M 339.282,-19.516 L 338.464,-19.6899 L 337.7,-20.03 L 337.023,-20.5215 L 336.464,-21.143 L 336.046,-21.8672
 L 335.787,-22.6625 L 335.7,-23.4941 L 335.7,-56.5059 L 335.876,-57.6805 L 336.204,-58.4498 L 336.685,-59.1342
 L 337.297,-59.7037 L 338.014,-60.1334 L 338.805,-60.4046 L 339.636,-60.5054 L 340.469,-60.4314 L 341.268,-60.1858
 L 380.008,-43.6799 L 380.843,-43.1978 L 381.456,-42.6283 L 381.936,-41.944 L 382.264,-41.1746 L 382.425,-40.354
 L 382.411,-39.5179 L 382.224,-38.7028 L 381.872,-37.9445 L 381.369,-37.276 L 380.739,-36.7265 L 380.008,-36.3201
 L 341.268,-19.8142 L 340.118,-19.516 z
M 472.531,-19.5686 L 471.732,-19.8142 L 432.992,-36.3201 L 432.157,-36.8022 L 431.544,-37.3717 L 431.064,-38.056
 L 430.736,-38.8254 L 430.575,-39.646 L 430.589,-40.4821 L 430.776,-41.2972 L 431.128,-42.0555 L 431.631,-42.724
 L 432.261,-43.2735 L 432.992,-43.6799 L 471.732,-60.1858 L 472.882,-60.484 L 473.718,-60.484 L 474.536,-60.3101
 L 475.3,-59.97 L 475.977,-59.4785 L 476.536,-58.857 L 476.954,-58.1328 L 477.213,-57.3375 L 477.3,-56.5059
 L 477.3,-23.4941 L 477.124,-22.3195 L 476.796,-21.5502 L 476.315,-20.8658 L 475.703,-20.2963 L 474.986,-19.8666
 L 474.195,-19.5954 L 473.364,-19.4946 z
M 180.1,-18 L 178.864,-18.1958 L 178.1,-18.5359 L 177.423,-19.0274 L 176.864,-19.6489 L 176.446,-20.373
 L 176.187,-21.1684 L 176.1,-22 L 176.1,-54.3322 L 176.276,-55.5068 L 176.604,-56.2762 L 177.085,-56.9605
 L 177.697,-57.53 L 178.414,-57.9597 L 179.205,-58.2309 L 180.036,-58.3317 L 180.869,-58.2577 L 181.668,-58.0121
 L 257.553,-25.6799 L 258.337,-25.2361 L 258.958,-24.6765 L 259.45,-24 L 259.79,-23.2361 L 259.964,-22.4181
 L 259.964,-21.5819 L 259.79,-20.7639 L 259.45,-20 L 258.958,-19.3235 L 258.337,-18.7639 L 257.613,-18.3458
 L 256.817,-18.0874 L 255.986,-18 z
M 557.014,-18 L 556.183,-18.0874 L 555.387,-18.3458 L 554.663,-18.7639 L 554.042,-19.3235 L 553.55,-20
 L 553.21,-20.7639 L 553.036,-21.5819 L 553.036,-22.4181 L 553.21,-23.2361 L 553.55,-24 L 554.042,-24.6765
 L 554.663,-25.2361 L 555.447,-25.6799 L 631.332,-58.0121 L 632.131,-58.2577 L 632.964,-58.3317 L 633.795,-58.2309
 L 634.586,-57.9597 L 635.303,-57.53 L 635.915,-56.9605 L 636.396,-56.2762 L 636.724,-55.5068 L 636.9,-54.3322
 L 636.9,-22 L 636.813,-21.1684 L 636.554,-20.373 L 636.136,-19.6489 L 635.577,-19.0274 L 634.9,-18.5359
 L 634.136,-18.1958 L 632.9,-18 z
M 22,-18 L 20.7639,-18.1958 L 20,-18.5359 L 19.3235,-19.0274 L 18.7639,-19.6489 L 18.3458,-20.373
 L 18.0874,-21.1684 L 18,-22 L 18,-53.6931 L 18.1764,-54.8678 L 18.5041,-55.6371 L 18.9847,-56.3214
 L 19.597,-56.8909 L 20.3144,-57.3206 L 21.1055,-57.5918 L 21.9356,-57.6926 L 22.7685,-57.6186 L 23.5679,-57.373
 L 97.9535,-25.6799 L 98.7367,-25.2361 L 99.3582,-24.6765 L 99.8497,-24 L 100.19,-23.2361 L 100.364,-22.4181
 L 100.364,-21.5819 L 100.19,-20.7639 L 99.8497,-20 L 99.3582,-19.3235 L 98.7367,-18.7639 L 98.0125,-18.3458
 L 97.2172,-18.0874 L 96.3856,-18 z
M 716.614,-18 L 715.783,-18.0874 L 714.987,-18.3458 L 714.263,-18.7639 L 713.642,-19.3235 L 713.15,-20
 L 712.81,-20.7639 L 712.636,-21.5819 L 712.636,-22.4181 L 712.81,-23.2361 L 713.15,-24 L 713.642,-24.6765
 L 714.263,-25.2361 L 715.047,-25.6799 L 789.432,-57.373 L 790.231,-57.6186 L 791.064,-57.6926 L 791.895,-57.5918
 L 792.686,-57.3206 L 793.403,-56.8909 L 794.015,-56.3214 L 794.496,-55.6371 L 794.824,-54.8678 L 795,-53.6931
 L 795,-22 L 794.913,-21.1684 L 794.654,-20.373 L 794.236,-19.6489 L 793.677,-19.0274 L 793,-18.5359
 L 792.236,-18.1958 L 791,-18 z
M 392.313,-18 L 391.418,-18.1013 L 390.627,-18.3725 L 389.91,-18.8022 L 389.297,-19.3717 L 388.817,-20.056
 L 388.489,-20.8254 L 388.328,-21.646 L 388.342,-22.4821 L 388.529,-23.2972 L 388.881,-24.0555 L 389.384,-24.724
 L 390.014,-25.2735 L 390.745,-25.6799 L 404.932,-31.7247 L 405.605,-31.9434 L 406.436,-32.0442 L 407.269,-31.9702
 L 408.068,-31.7247 L 422.255,-25.6799 L 423.038,-25.2361 L 423.66,-24.6765 L 424.151,-24 L 424.492,-23.2361
 L 424.665,-22.4181 L 424.665,-21.5819 L 424.492,-20.7639 L 424.151,-20 L 423.66,-19.3235 L 423.038,-18.7639
 L 422.314,-18.3458 L 421.519,-18.0874 L 420.687,-18 z
" stroke="black" fill="lightgray" stroke-width="0.5"/>
</svg>
