<?xml version="1.0" standalone="no"?>
<!DOCTYPE svg PUBLIC "-//W3C//DTD SVG 1.1//EN" "http://www.w3.org/Graphics/SVG/1.1/DTD/svg11.dtd">
<svg width="848mm" height="80mm" viewBox="0 -80 848 80" xmlns="http://www.w3.org/2000/svg" version="1.1">
<title>OpenSCAD Model</title>
<path d="
M 848,-80 L 0,-80 L 0,-0 L 4.95,-0 L 4.95,-6 L 5.00572,-6.53017
 L 5.17046,-7.03717 L 5.437,-7.49884 L 5.79372,-7.895 L 6.22499,-8.20836 L 6.71201,-8.42519 L 7.23344,-8.53603
 L 7.76654,-8.53603 L 8.28798,-8.42519 L 8.77499,-8.20836 L 9.20627,-7.895 L 9.56299,-7.49884 L 9.82953,-7.03717
 L 9.99426,-6.53017 L 10.05,-6 L 10.05,-0 L 171.55,-0 L 171.55,-6 L 171.606,-6.53017
 L 171.77,-7.03717 L 172.037,-7.49884 L 172.394,-7.895 L 172.825,-8.20836 L 173.312,-8.42519 L 173.833,-8.53603
 L 174.367,-8.53603 L 174.888,-8.42519 L 175.375,-8.20836 L 175.806,-7.895 L 176.163,-7.49884 L 176.43,-7.03717
 L 176.594,-6.53017 L 176.65,-6 L 176.65,-0 L 338.15,-0 L 338.15,-6 L 338.206,-6.53017
 L 338.37,-7.03717 L 338.637,-7.49884 L 338.994,-7.895 L 339.425,-8.20836 L 339.912,-8.42519 L 340.433,-8.53603
 L 340.967,-8.53603 L 341.488,-8.42519 L 341.975,-8.20836 L 342.406,-7.895 L 342.763,-7.49884 L 343.03,-7.03717
 L 343.194,-6.53017 L 343.25,-6 L 343.25,-0 L 504.75,-0 L 504.75,-6 L 504.806,-6.53017
 L 504.97,-7.03717 L 505.237,-7.49884 L 505.594,-7.895 L 506.025,-8.20836 L 506.512,-8.42519 L 507.033,-8.53603
 L 507.567,-8.53603 L 508.088,-8.42519 L 508.575,-8.20836 L 509.006,-7.895 L 509.363,-7.49884 L 509.63,-7.03717
 L 509.794,-6.53017 L 509.85,-6 L 509.85,-0 L 671.35,-0 L 671.35,-6 L 671.406,-6.53017
 L 671.57,-7.03717 L 671.837,-7.49884 L 672.194,-7.895 L 672.625,-8.20836 L 673.112,-8.42519 L 673.633,-8.53603
 L 674.167,-8.53603 L 674.688,-8.42519 L 675.175,-8.20836 L 675.606,-7.895 L 675.963,-7.49884 L 676.23,-7.03717
 L 676.394,-6.53017 L 676.45,-6 L 676.45,-0 L 837.95,-0 L 837.95,-6 L 838.006,-6.53017
 L 838.17,-7.03717 L 838.437,-7.49884 L 838.794,-7.895 L 839.225,-8.20836 L 839.712,-8.42519 L 840.233,-8.53603
 L 840.767,-8.53603 L 841.288,-8.42519 L 841.775,-8.20836 L 842.206,-7.895 L 842.563,-7.49884 L 842.83,-7.03717
 L 842.994,-6.53017 L 843.05,-6 L 843.05,-0 L 848,-0 z
M 6.98573,-55.607 L 6.47708,-55.6875 L 5.97964,-55.8208 L 5.49887,-56.0054 L 5.04001,-56.2392 L 4.60811,-56.5196
 L 4.20789,-56.8437 L 3.84373,-57.2079 L 3.51964,-57.6081 L 3.23917,-58.04 L 3.00537,-58.4989 L 2.82082,-58.9796
 L 2.68752,-59.4771 L 2.60696,-59.9857 L 2.58,-60.5 L 2.60696,-61.0143 L 2.68752,-61.5229 L 2.82082,-62.0204
 L 3.00537,-62.5011 L 3.23917,-62.96 L 3.51964,-63.3919 L 3.84373,-63.7921 L 4.20789,-64.1563 L 4.60811,-64.4804
 L 4.95001,-64.7024 L 4.95001,-74 L 5.00574,-74.5302 L 5.17047,-75.0372 L 5.43701,-75.4988 L 5.79373,-75.895
 L 6.22501,-76.2084 L 6.71202,-76.4252 L 7.23346,-76.536 L 7.76654,-76.536 L 8.28798,-76.4252 L 8.77499,-76.2084
 L 9.20627,-75.895 L 9.56299,-75.4988 L 9.82953,-75.0372 L 9.99426,-74.5302 L 10.05,-74 L 10.05,-64.7024
 L 10.3919,-64.4804 L 10.7921,-64.1563 L 11.1563,-63.7921 L 11.4804,-63.3919 L 11.7608,-62.96 L 11.9946,-62.5011
 L 12.1792,-62.0204 L 12.3125,-61.5229 L 12.393,-61.0143 L 12.42,-60.5 L 12.393,-59.9857 L 12.3125,-59.4771
 L 12.1792,-58.9796 L 11.9946,-58.4989 L 11.7608,-58.04 L 11.4804,-57.6081 L 11.1563,-57.2079 L 10.7921,-56.8437
 L 10.3919,-56.5196 L 9.95999,-56.2392 L 9.50113,-56.0054 L 9.02036,-55.8208 L 8.52292,-55.6875 L 8.01427,-55.607
 L 7.5,-55.58 z
M 173.586,-55.607 L 173.077,-55.6875 L 172.58,-55.8208 L 172.099,-56.0054 L 171.64,-56.2392 L 171.208,-56.5196
 L 170.808,-56.8437 L 170.444,-57.2079 L 170.12,-57.6081 L 169.839,-58.04 L 169.605,-58.4989 L 169.421,-58.9796
 L 169.288,-59.4771 L 169.207,-59.9857 L 169.18,-60.5 L 169.207,-61.0143 L 169.288,-61.5229 L 169.421,-62.0204
 L 169.605,-62.5011 L 169.839,-62.96 L 170.12,-63.3919 L 170.444,-63.7921 L 170.808,-64.1563 L 171.208,-64.4804
 L 171.55,-64.7024 L 171.55,-74 L 171.606,-74.5302 L 171.77,-75.0372 L 172.037,-75.4988 L 172.394,-75.895
 L 172.825,-76.2084 L 173.312,-76.4252 L 173.833,-76.536 L 174.367,-76.536 L 174.888,-76.4252 L 175.375,-76.2084
 L 175.806,-75.895 L 176.163,-75.4988 L 176.43,-75.0372 L 176.594,-74.5302 L 176.65,-74 L 176.65,-64.7024
 L 176.992,-64.4804 L 177.392,-64.1563 L 177.756,-63.7921 L 178.08,-63.3919 L 178.361,-62.96 L 178.595,-62.5011
 L 178.779,-62.0204 L 178.912,-61.5229 L 178.993,-61.0143 L 179.02,-60.5 L 178.993,-59.9857 L 178.912,-59.4771
 L 178.779,-58.9796 L 178.595,-58.4989 L 178.361,-58.04 L 178.08,-57.6081 L 177.756,-57.2079 L 177.392,-56.8437
 L 176.992,-56.5196 L 176.56,-56.2392 L 176.101,-56.0054 L 175.62,-55.8208 L 175.123,-55.6875 L 174.614,-55.607
 L 174.1,-55.58 z
M 340.186,-55.607 L 339.677,-55.6875 L 339.18,-55.8208 L 338.699,-56.0054 L 338.24,-56.2392 L 337.808,-56.5196
 L 337.408,-56.8437 L 337.044,-57.2079 L 336.72,-57.6081 L 336.439,-58.04 L 336.205,-58.4989 L 336.021,-58.9796
 L 335.888,-59.4771 L 335.807,-59.9857 L 335.78,-60.5 L 335.807,-61.0143 L 335.888,-61.5229 L 336.021,-62.0204
 L 336.205,-62.5011 L 336.439,-62.96 L 336.72,-63.3919 L 337.044,-63.7921 L 337.408,-64.1563 L 337.808,-64.4804
 L 338.15,-64.7024 L 338.15,-74 L 338.206,-74.5302 L 338.37,-75.0372 L 338.637,-75.4988 L 338.994,-75.895
 L 339.425,-76.2084 L 339.912,-76.4252 L 340.433,-76.536 L 340.967,-76.536 L 341.488,-76.4252 L 341.975,-76.2084
 L 342.406,-75.895 L 342.763,-75.4988 L 343.03,-75.0372 L 343.194,-74.5302 L 343.25,-74 L 343.25,-64.7024
 L 343.592,-64.4804 L 343.992,-64.1563 L 344.356,-63.7921 L 344.68,-63.3919 L 344.961,-62.96 L 345.195,-62.5011
 L 345.379,-62.0204 L 345.512,-61.5229 L 345.593,-61.0143 L 345.62,-60.5 L 345.593,-59.9857 L 345.512,-59.4771
 L 345.379,-58.9796 L 345.195,-58.4989 L 344.961,-58.04 L 344.68,-57.6081 L 344.356,-57.2079 L 343.992,-56.8437
 L 343.592,-56.5196 L 343.16,-56.2392 L 342.701,-56.0054 L 342.22,-55.8208 L 341.723,-55.6875 L 341.214,-55.607
 L 340.7,-55.58 z
M 506.786,-55.607 L 506.277,-55.6875 L 505.78,-55.8208 L 505.299,-56.0054 L 504.84,-56.2392 L 504.408,-56.5196
 L 504.008,-56.8437 L 503.644,-57.2079 L 503.32,-57.6081 L 503.039,-58.04 L 502.805,-58.4989 L 502.621,-58.9796
 L 502.488,-59.4771 L 502.407,-59.9857 L 502.38,-60.5 L 502.407,-61.0143 L 502.488,-61.5229 L 502.621,-62.0204
 L 502.805,-62.5011 L 503.039,-62.96 L 503.32,-63.3919 L 503.644,-63.7921 L 504.008,-64.1563 L 504.408,-64.4804
 L 504.75,-64.7024 L 504.75,-74 L 504.806,-74.5302 L 504.97,-75.0372 L 505.237,-75.4988 L 505.594,-75.895
 L 506.025,-76.2084 L 506.512,-76.4252 L 507.033,-76.536 L 507.567,-76.536 L 508.088,-76.4252 L 508.575,-76.2084
 L 509.006,-75.895 L 509.363,-75.4988 L 509.63,-75.0372 L 509.794,-74.5302 L 509.85,-74 L 509.85,-64.7024
 L 510.192,-64.4804 L 510.592,-64.1563 L 510.956,-63.7921 L 511.28,-63.3919 L 511.561,-62.96 L 511.795,-62.5011
 L 511.979,-62.0204 L 512.112,-61.5229 L 512.193,-61.0143 L 512.22,-60.5 L 512.193,-59.9857 L 512.112,-59.4771
 L 511.979,-58.9796 L 511.795,-58.4989 L 511.561,-58.04 L 511.28,-57.6081 L 510.956,-57.2079 L 510.592,-56.8437
 L 510.192,-56.5196 L 509.76,-56.2392 L 509.301,-56.0054 L 508.82,-55.8208 L 508.323,-55.6875 L 507.814,-55.607
 L 507.3,-55.58 z
M 673.386,-55.607 L 672.877,-55.6875 L 672.38,-55.8208 L 671.899,-56.0054 L 671.44,-56.2392 L 671.008,-56.5196
 L 670.608,-56.8437 L 670.244,-57.2079 L 669.92,-57.6081 L 669.639,-58.04 L 669.405,-58.4989 L 669.221,-58.9796
 L 669.088,-59.4771 L 669.007,-59.9857 L 668.98,-60.5 L 669.007,-61.0143 L 669.088,-61.5229 L 669.221,-62.0204
 L 669.405,-62.5011 L 669.639,-62.96 L 669.92,-63.3919 L 670.244,-63.7921 L 670.608,-64.1563 L 671.008,-64.4804
 L 671.35,-64.7024 L 671.35,-74 L 671.406,-74.5302 L 671.57,-75.0372 L 671.837,-75.4988 L 672.194,-75.895
 L 672.625,-76.2084 L 673.112,-76.4252 L 673.633,-76.536 L 674.167,-76.536 L 674.688,-76.4252 L 675.175,-76.2084
 L 675.606,-75.895 L 675.963,-75.4988 L 676.23,-75.0372 L 676.394,-74.5302 L 676.45,-74 L 676.45,-64.7024
 L 676.792,-64.4804 L 677.192,-64.1563 L 677.556,-63.7921 L 677.88,-63.3919 L 678.161,-62.96 L 678.395,-62.5011
 L 678.579,-62.0204 L 678.712,-61.5229 L 678.793,-61.0143 L 678.82,-60.5 L 678.793,-59.9857 L 678.712,-59.4771
 L 678.579,-58.9796 L 678.395,-58.4989 L 678.161,-58.04 L 677.88,-57.6081 L 677.556,-57.2079 L 677.192,-56.8437
 L 676.792,-56.5196 L 676.36,-56.2392 L 675.901,-56.0054 L 675.42,-55.8208 L 674.923,-55.6875 L 674.414,-55.607
 L 673.9,-55.58 z
M 839.986,-55.607 L 839.477,-55.6875 L 838.98,-55.8208 L 838.499,-56.0054 L 838.04,-56.2392 L 837.608,-56.5196
 L 837.208,-56.8437 L 836.844,-57.2079 L 836.52,-57.6081 L 836.239,-58.04 L 836.005,-58.4989 L 835.821,-58.9796
 L 835.688,-59.4771 L 835.607,-59.9857 L 835.58,-60.5 L 835.607,-61.0143 L 835.688,-61.5229 L 835.821,-62.0204
 L 836.005,-62.5011 L 836.239,-62.96 L 836.52,-63.3919 L 836.844,-63.7921 L 837.208,-64.1563 L 837.608,-64.4804
 L 837.95,-64.7024 L 837.95,-74 L 838.006,-74.5302 L 838.17,-75.0372 L 838.437,-75.4988 L 838.794,-75.895
 L 839.225,-76.2084 L 839.712,-76.4252 L 840.233,-76.536 L 840.767,-76.536 L 841.288,-76.4252 L 841.775,-76.2084
 L 842.206,-75.895 L 842.563,-75.4988 L 842.83,-75.0372 L 842.994,-74.5302 L 843.05,-74 L 843.05,-64.7024
 L 843.392,-64.4804 L 843.792,-64.1563 L 844.156,-63.7921 L 844.48,-63.3919 L 844.761,-62.96 L 844.995,-62.5011
 L 845.179,-62.0204 L 845.312,-61.5229 L 845.393,-61.0143 L 845.42,-60.5 L 845.393,-59.9857 L 845.312,-59.4771
 L 845.179,-58.9796 L 844.995,-58.4989 L 844.761,-58.04 L 844.48,-57.6081 L 844.156,-57.2079 L 843.792,-56.8437
 L 843.392,-56.5196 L 842.96,-56.2392 L 842.501,-56.0054 L 842.02,-55.8208 L 841.523,-55.6875 L 841.014,-55.607
 L 840.5,-55.58 z
M 423.291,-47.9384 L 422.488,-48.1718 L 407.483,-54.2966 L 406.643,-54.7639 L 406.022,-55.3235 L 405.53,-56
 L 405.19,-56.7639 L 405.016,-57.5819 L 405.016,-58.4181 L 405.19,-59.2361 L 405.53,-60 L 406.022,-60.6765
 L 406.643,-61.2361 L 407.367,-61.6542 L 408.162,-61.9126 L 408.994,-62 L 439.006,-62 L 439.96,-61.8846
 L 440.747,-61.6014 L 441.457,-61.1608 L 442.061,-60.582 L 442.531,-59.8904 L 442.847,-59.1162 L 442.995,-58.2932
 L 442.969,-57.4574 L 442.769,-56.6453 L 442.406,-55.8924 L 441.893,-55.2316 L 441.254,-54.6918 L 440.517,-54.2966
 L 425.512,-48.1718 L 424.954,-47.9906 L 424.125,-47.8771 z
M 326.991,-21.4037 L 326.188,-21.637 L 246.172,-54.2966 L 245.333,-54.7639 L 244.711,-55.3235 L 244.22,-56
 L 243.88,-56.7639 L 243.706,-57.5819 L 243.706,-58.4181 L 243.88,-59.2361 L 244.22,-60 L 244.711,-60.6765
 L 245.333,-61.2361 L 246.057,-61.6542 L 246.852,-61.9126 L 247.684,-62 L 327.7,-62 L 328.936,-61.8042
 L 329.7,-61.4641 L 330.377,-60.9726 L 330.936,-60.3511 L 331.354,-59.627 L 331.613,-58.8316 L 331.7,-58
 L 331.7,-25.3404 L 331.541,-24.2242 L 331.225,-23.45 L 330.755,-22.7584 L 330.151,-22.1796 L 329.441,-21.739
 L 328.654,-21.4558 L 327.825,-21.3424 z
M 685.946,-21.4558 L 685.159,-21.739 L 684.449,-22.1796 L 683.845,-22.7584 L 683.375,-23.45 L 683.059,-24.2242
 L 682.9,-25.3404 L 682.9,-58 L 682.987,-58.8316 L 683.246,-59.627 L 683.664,-60.3511 L 684.223,-60.9726
 L 684.9,-61.4641 L 685.664,-61.8042 L 686.9,-62 L 766.916,-62 L 767.748,-61.9126 L 768.543,-61.6542
 L 769.267,-61.2361 L 769.889,-60.6765 L 770.38,-60 L 770.72,-59.2361 L 770.894,-58.4181 L 770.894,-57.5819
 L 770.72,-56.7639 L 770.38,-56 L 769.889,-55.3235 L 769.267,-54.7639 L 768.428,-54.2966 L 688.412,-21.637
 L 687.609,-21.4037 L 686.775,-21.3424 z
M 160.391,-21.4037 L 159.588,-21.637 L 79.5724,-54.2966 L 78.7328,-54.7639 L 78.1114,-55.3235 L 77.6199,-56
 L 77.2797,-56.7639 L 77.1059,-57.5819 L 77.1059,-58.4181 L 77.2797,-59.2361 L 77.6199,-60 L 78.1114,-60.6765
 L 78.7328,-61.2361 L 79.457,-61.6542 L 80.2523,-61.9126 L 81.084,-62 L 161.1,-62 L 162.336,-61.8042
 L 163.1,-61.4641 L 163.777,-60.9726 L 164.336,-60.3511 L 164.754,-59.627 L 165.013,-58.8316 L 165.1,-58
 L 165.1,-25.3404 L 164.941,-24.2242 L 164.625,-23.45 L 164.155,-22.7584 L 163.551,-22.1796 L 162.841,-21.739
 L 162.054,-21.4558 L 161.225,-21.3424 z
M 519.346,-21.4558 L 518.559,-21.739 L 517.849,-22.1796 L 517.245,-22.7584 L 516.775,-23.45 L 516.459,-24.2242
 L 516.3,-25.3404 L 516.3,-58 L 516.387,-58.8316 L 516.646,-59.627 L 517.064,-60.3511 L 517.623,-60.9726
 L 518.3,-61.4641 L 519.064,-61.8042 L 520.3,-62 L 600.316,-62 L 601.148,-61.9126 L 601.943,-61.6542
 L 602.667,-61.2361 L 603.289,-60.6765 L 603.78,-60 L 604.12,-59.2361 L 604.294,-58.4181 L 604.294,-57.5819
 L 604.12,-56.7639 L 603.78,-56 L 603.289,-55.3235 L 602.667,-54.7639 L 601.828,-54.2966 L 521.812,-21.637
 L 521.009,-21.4037 L 520.175,-21.3424 z
M 353.282,-19.2032 L 352.464,-19.3771 L 351.7,-19.7172 L 351.023,-20.2087 L 350.464,-20.8302 L 350.046,-21.5543
 L 349.787,-22.3496 L 349.7,-23.1813 L 349.7,-56.8187 L 349.859,-57.9349 L 350.175,-58.7091 L 350.645,-59.4007
 L 351.249,-59.9795 L 351.959,-60.4201 L 352.746,-60.7033 L 353.575,-60.8167 L 354.409,-60.7554 L 355.212,-60.5221
 L 396.417,-43.7034 L 397.357,-43.1608 L 397.961,-42.582 L 398.431,-41.8904 L 398.747,-41.1162 L 398.895,-40.2932
 L 398.869,-39.4574 L 398.669,-38.6453 L 398.306,-37.8924 L 397.793,-37.2316 L 397.154,-36.6918 L 396.417,-36.2966
 L 355.212,-19.4779 L 354.118,-19.2032 z
M 493.591,-19.2446 L 492.788,-19.4779 L 451.583,-36.2966 L 450.643,-36.8392 L 450.039,-37.418 L 449.569,-38.1096
 L 449.253,-38.8838 L 449.105,-39.7068 L 449.131,-40.5426 L 449.331,-41.3547 L 449.694,-42.1076 L 450.207,-42.7684
 L 450.846,-43.3082 L 451.583,-43.7034 L 492.788,-60.5221 L 493.882,-60.7968 L 494.718,-60.7968 L 495.536,-60.6229
 L 496.3,-60.2828 L 496.977,-59.7913 L 497.536,-59.1698 L 497.954,-58.4457 L 498.213,-57.6504 L 498.3,-56.8187
 L 498.3,-23.1813 L 498.141,-22.0651 L 497.825,-21.2909 L 497.355,-20.5993 L 496.751,-20.0205 L 496.041,-19.5799
 L 495.254,-19.2967 L 494.425,-19.1833 z
M 187.1,-18 L 185.864,-18.1958 L 185.1,-18.5359 L 184.423,-19.0274 L 183.864,-19.6489 L 183.446,-20.373
 L 183.187,-21.1684 L 183.1,-22 L 183.1,-54.6596 L 183.259,-55.7758 L 183.575,-56.55 L 184.045,-57.2416
 L 184.649,-57.8204 L 185.359,-58.261 L 186.146,-58.5442 L 186.975,-58.6576 L 187.809,-58.5963 L 188.612,-58.363
 L 268.628,-25.7034 L 269.467,-25.2361 L 270.089,-24.6765 L 270.58,-24 L 270.92,-23.2361 L 271.094,-22.4181
 L 271.094,-21.5819 L 270.92,-20.7639 L 270.58,-20 L 270.089,-19.3235 L 269.467,-18.7639 L 268.743,-18.3458
 L 267.948,-18.0874 L 267.116,-18 z
M 580.884,-18 L 580.052,-18.0874 L 579.257,-18.3458 L 578.533,-18.7639 L 577.911,-19.3235 L 577.42,-20
 L 577.08,-20.7639 L 576.906,-21.5819 L 576.906,-22.4181 L 577.08,-23.2361 L 577.42,-24 L 577.911,-24.6765
 L 578.533,-25.2361 L 579.372,-25.7034 L 659.388,-58.363 L 660.191,-58.5963 L 661.025,-58.6576 L 661.854,-58.5442
 L 662.641,-58.261 L 663.351,-57.8204 L 663.955,-57.2416 L 664.425,-56.55 L 664.741,-55.7758 L 664.9,-54.6596
 L 664.9,-22 L 664.813,-21.1684 L 664.554,-20.373 L 664.136,-19.6489 L 663.577,-19.0274 L 662.9,-18.5359
 L 662.136,-18.1958 L 660.9,-18 z
M 22,-18 L 20.7639,-18.1958 L 20,-18.5359 L 19.3235,-19.0274 L 18.7639,-19.6489 L 18.3458,-20.373
 L 18.0874,-21.1684 L 18,-22 L 18,-54.0473 L 18.1589,-55.1635 L 18.4749,-55.9378 L 18.945,-56.6294
 L 19.5486,-57.2081 L 20.2593,-57.6487 L 21.0461,-57.9319 L 21.8746,-58.0454 L 22.7086,-57.9841 L 23.5116,-57.7507
 L 102.028,-25.7034 L 102.867,-25.2361 L 103.489,-24.6765 L 103.98,-24 L 104.32,-23.2361 L 104.494,-22.4181
 L 104.494,-21.5819 L 104.32,-20.7639 L 103.98,-20 L 103.489,-19.3235 L 102.867,-18.7639 L 102.143,-18.3458
 L 101.348,-18.0874 L 100.516,-18 z
M 747.484,-18 L 746.652,-18.0874 L 745.857,-18.3458 L 745.133,-18.7639 L 744.511,-19.3235 L 744.02,-20
 L 743.68,-20.7639 L 743.506,-21.5819 L 743.506,-22.4181 L 743.68,-23.2361 L 744.02,-24 L 744.511,-24.6765
 L 745.133,-25.2361 L 745.972,-25.7034 L 824.488,-57.7507 L 825.291,-57.9841 L 826.125,-58.0454 L 826.954,-57.9319
 L 827.741,-57.6487 L 828.451,-57.2081 L 829.055,-56.6294 L 829.525,-55.9378 L 829.841,-55.1635 L 830,-54.0473
 L 830,-22 L 829.913,-21.1684 L 829.654,-20.373 L 829.236,-19.6489 L 828.677,-19.0274 L 828,-18.5359
 L 827.236,-18.1958 L 826,-18 z
M 408.994,-18 L 408.04,-18.1154 L 407.253,-18.3986 L 406.543,-18.8392 L 405.939,-19.418 L 405.469,-20.1096
 L 405.153,-20.8838 L 405.005,-21.7068 L 405.031,-22.5426 L 405.231,-23.3547 L 405.594,-24.1076 L 406.107,-24.7684
 L 406.746,-25.3082 L 407.483,-25.7034 L 422.488,-31.8282 L 423.046,-32.0094 L 423.875,-32.1229 L 424.709,-32.0616
 L 425.512,-31.8282 L 440.517,-25.7034 L 441.357,-25.2361 L 441.978,-24.6765 L 442.47,-24 L 442.81,-23.2361
 L 442.984,-22.4181 L 442.984,-21.5819 L 442.81,-20.7639 L 442.47,-20 L 441.978,-19.3235 L 441.357,-18.7639
 L 440.633,-18.3458 L 439.837,-18.0874 L 439.006,-18 z
" stroke="black" fill="lightgray" stroke-width="0.5"/>
</svg>
