<?xml version="1.0" standalone="no"?>
<!DOCTYPE svg PUBLIC "-//W3C//DTD SVG 1.1//EN" "http://www.w3.org/Graphics/SVG/1.1/DTD/svg11.dtd">
<svg width="623mm" height="80mm" viewBox="0 -80 623 80" xmlns="http://www.w3.org/2000/svg" version="1.1">
<title>OpenSCAD Model</title>
<path d="
M 623,-80 L 0,-80 L 0,-0 L 4.95,-0 L 4.95,-6 L 5.00572,-6.53017
 L 5.17046,-7.03717 L 5.437,-7.49884 L 5.79372,-7.895 L 6.22499,-8.20836 L 6.71201,-8.42519 L 7.23344,-8.53603
 L 7.76654,-8.53603 L 8.28798,-8.42519 L 8.77499,-8.20836 L 9.20627,-7.895 L 9.56299,-7.49884 L 9.82953,-7.03717
 L 9.99426,-6.53017 L 10.05,-6 L 10.05,-0 L 126.55,-0 L 126.55,-6 L 126.606,-6.53017
 L 126.77,-7.03717 L 127.037,-7.49884 L 127.394,-7.895 L 127.825,-8.20836 L 128.312,-8.42519 L 128.833,-8.53603
 L 129.367,-8.53603 L 129.888,-8.42519 L 130.375,-8.20836 L 130.806,-7.895 L 131.163,-7.49884 L 131.43,-7.03717
 L 131.594,-6.53017 L 131.65,-6 L 131.65,-0 L 248.15,-0 L 248.15,-6 L 248.206,-6.53017
 L 248.37,-7.03717 L 248.637,-7.49884 L 248.994,-7.895 L 249.425,-8.20836 L 249.912,-8.42519 L 250.433,-8.53603
 L 250.967,-8.53603 L 251.488,-8.42519 L 251.975,-8.20836 L 252.406,-7.895 L 252.763,-7.49884 L 253.03,-7.03717
 L 253.194,-6.53017 L 253.25,-6 L 253.25,-0 L 369.75,-0 L 369.75,-6 L 369.806,-6.53017
 L 369.97,-7.03717 L 370.237,-7.49884 L 370.594,-7.895 L 371.025,-8.20836 L 371.512,-8.42519 L 372.033,-8.53603
 L 372.567,-8.53603 L 373.088,-8.42519 L 373.575,-8.20836 L 374.006,-7.895 L 374.363,-7.49884 L 374.63,-7.03717
 L 374.794,-6.53017 L 374.85,-6 L 374.85,-0 L 491.35,-0 L 491.35,-6 L 491.406,-6.53017
 L 491.57,-7.03717 L 491.837,-7.49884 L 492.194,-7.895 L 492.625,-8.20836 L 493.112,-8.42519 L 493.633,-8.53603
 L 494.167,-8.53603 L 494.688,-8.42519 L 495.175,-8.20836 L 495.606,-7.895 L 495.963,-7.49884 L 496.23,-7.03717
 L 496.394,-6.53017 L 496.45,-6 L 496.45,-0 L 612.95,-0 L 612.95,-6 L 613.006,-6.53017
 L 613.17,-7.03717 L 613.437,-7.49884 L 613.794,-7.895 L 614.225,-8.20836 L 614.712,-8.42519 L 615.233,-8.53603
 L 615.767,-8.53603 L 616.288,-8.42519 L 616.775,-8.20836 L 617.206,-7.895 L 617.563,-7.49884 L 617.83,-7.03717
 L 617.994,-6.53017 L 618.05,-6 L 618.05,-0 L 623,-0 z
M 6.98573,-55.607 L 6.47708,-55.6875 L 5.97964,-55.8208 L 5.49887,-56.0054 L 5.04001,-56.2392 L 4.60811,-56.5196
 L 4.20789,-56.8437 L 3.84373,-57.2079 L 3.51964,-57.6081 L 3.23917,-58.04 L 3.00537,-58.4989 L 2.82082,-58.9796
 L 2.68752,-59.4771 L 2.60696,-59.9857 L 2.58,-60.5 L 2.60696,-61.0143 L 2.68752,-61.5229 L 2.82082,-62.0204
 L 3.00537,-62.5011 L 3.23917,-62.96 L 3.51964,-63.3919 L 3.84373,-63.7921 L 4.20789,-64.1563 L 4.60811,-64.4804
 L 4.95001,-64.7024 L 4.95001,-74 L 5.00574,-74.5302 L 5.17047,-75.0372 L 5.43701,-75.4988 L 5.79373,-75.895
 L 6.22501,-76.2084 L 6.71202,-76.4252 L 7.23346,-76.536 L 7.76654,-76.536 L 8.28798,-76.4252 L 8.77499,-76.2084
 L 9.20627,-75.895 L 9.56299,-75.4988 L 9.82953,-75.0372 L 9.99426,-74.5302 L 10.05,-74 L 10.05,-64.7024
 L 10.3919,-64.4804 L 10.7921,-64.1563 L 11.1563,-63.7921 L 11.4804,-63.3919 L 11.7608,-62.96 L 11.9946,-62.5011
 L 12.1792,-62.0204 L 12.3125,-61.5229 L 12.393,-61.0143 L 12.42,-60.5 L 12.393,-59.9857 L 12.3125,-59.4771
 L 12.1792,-58.9796 L 11.9946,-58.4989 L 11.7608,-58.04 L 11.4804,-57.6081 L 11.1563,-57.2079 L 10.7921,-56.8437
 L 10.3919,-56.5196 L 9.95999,-56.2392 L 9.50113,-56.0054 L 9.02036,-55.8208 L 8.52292,-55.6875 L 8.01427,-55.607
 L 7.5,-55.58 z
M 128.586,-55.607 L 128.077,-55.6875 L 127.58,-55.8208 L 127.099,-56.0054 L 126.64,-56.2392 L 126.208,-56.5196
 L 125.808,-56.8437 L 125.444,-57.2079 L 125.12,-57.6081 L 124.839,-58.04 L 124.605,-58.4989 L 124.421,-58.9796
 L 124.288,-59.4771 L 124.207,-59.9857 L 124.18,-60.5 L 124.207,-61.0143 L 124.288,-61.5229 L 124.421,-62.0204
 L 124.605,-62.5011 L 124.839,-62.96 L 125.12,-63.3919 L 125.444,-63.7921 L 125.808,-64.1563 L 126.208,-64.4804
 L 126.55,-64.7024 L 126.55,-74 L 126.606,-74.5302 L 126.77,-75.0372 L 127.037,-75.4988 L 127.394,-75.895
 L 127.825,-76.2084 L 128.312,-76.4252 L 128.833,-76.536 L 129.367,-76.536 L 129.888,-76.4252 L 130.375,-76.2084
 L 130.806,-75.895 L 131.163,-75.4988 L 131.43,-75.0372 L 131.594,-74.5302 L 131.65,-74 L 131.65,-64.7024
 L 131.992,-64.4804 L 132.392,-64.1563 L 132.756,-63.7921 L 133.08,-63.3919 L 133.361,-62.96 L 133.595,-62.5011
 L 133.779,-62.0204 L 133.912,-61.5229 L 133.993,-61.0143 L 134.02,-60.5 L 133.993,-59.9857 L 133.912,-59.4771
 L 133.779,-58.9796 L 133.595,-58.4989 L 133.361,-58.04 L 133.08,-57.6081 L 132.756,-57.2079 L 132.392,-56.8437
 L 131.992,-56.5196 L 131.56,-56.2392 L 131.101,-56.0054 L 130.62,-55.8208 L 130.123,-55.6875 L 129.614,-55.607
 L 129.1,-55.58 z
M 250.186,-55.607 L 249.677,-55.6875 L 249.18,-55.8208 L 248.699,-56.0054 L 248.24,-56.2392 L 247.808,-56.5196
 L 247.408,-56.8437 L 247.044,-57.2079 L 246.72,-57.6081 L 246.439,-58.04 L 246.205,-58.4989 L 246.021,-58.9796
 L 245.888,-59.4771 L 245.807,-59.9857 L 245.78,-60.5 L 245.807,-61.0143 L 245.888,-61.5229 L 246.021,-62.0204
 L 246.205,-62.5011 L 246.439,-62.96 L 246.72,-63.3919 L 247.044,-63.7921 L 247.408,-64.1563 L 247.808,-64.4804
 L 248.15,-64.7024 L 248.15,-74 L 248.206,-74.5302 L 248.37,-75.0372 L 248.637,-75.4988 L 248.994,-75.895
 L 249.425,-76.2084 L 249.912,-76.4252 L 250.433,-76.536 L 250.967,-76.536 L 251.488,-76.4252 L 251.975,-76.2084
 L 252.406,-75.895 L 252.763,-75.4988 L 253.03,-75.0372 L 253.194,-74.5302 L 253.25,-74 L 253.25,-64.7024
 L 253.592,-64.4804 L 253.992,-64.1563 L 254.356,-63.7921 L 254.68,-63.3919 L 254.961,-62.96 L 255.195,-62.5011
 L 255.379,-62.0204 L 255.512,-61.5229 L 255.593,-61.0143 L 255.62,-60.5 L 255.593,-59.9857 L 255.512,-59.4771
 L 255.379,-58.9796 L 255.195,-58.4989 L 254.961,-58.04 L 254.68,-57.6081 L 254.356,-57.2079 L 253.992,-56.8437
 L 253.592,-56.5196 L 253.16,-56.2392 L 252.701,-56.0054 L 252.22,-55.8208 L 251.723,-55.6875 L 251.214,-55.607
 L 250.7,-55.58 z
M 371.786,-55.607 L 371.277,-55.6875 L 370.78,-55.8208 L 370.299,-56.0054 L 369.84,-56.2392 L 369.408,-56.5196
 L 369.008,-56.8437 L 368.644,-57.2079 L 368.32,-57.6081 L 368.039,-58.04 L 367.805,-58.4989 L 367.621,-58.9796
 L 367.488,-59.4771 L 367.407,-59.9857 L 367.38,-60.5 L 367.407,-61.0143 L 367.488,-61.5229 L 367.621,-62.0204
 L 367.805,-62.5011 L 368.039,-62.96 L 368.32,-63.3919 L 368.644,-63.7921 L 369.008,-64.1563 L 369.408,-64.4804
 L 369.75,-64.7024 L 369.75,-74 L 369.806,-74.5302 L 369.97,-75.0372 L 370.237,-75.4988 L 370.594,-75.895
 L 371.025,-76.2084 L 371.512,-76.4252 L 372.033,-76.536 L 372.567,-76.536 L 373.088,-76.4252 L 373.575,-76.2084
 L 374.006,-75.895 L 374.363,-75.4988 L 374.63,-75.0372 L 374.794,-74.5302 L 374.85,-74 L 374.85,-64.7024
 L 375.192,-64.4804 L 375.592,-64.1563 L 375.956,-63.7921 L 376.28,-63.3919 L 376.561,-62.96 L 376.795,-62.5011
 L 376.979,-62.0204 L 377.112,-61.5229 L 377.193,-61.0143 L 377.22,-60.5 L 377.193,-59.9857 L 377.112,-59.4771
 L 376.979,-58.9796 L 376.795,-58.4989 L 376.561,-58.04 L 376.28,-57.6081 L 375.956,-57.2079 L 375.592,-56.8437
 L 375.192,-56.5196 L 374.76,-56.2392 L 374.301,-56.0054 L 373.82,-55.8208 L 373.323,-55.6875 L 372.814,-55.607
 L 372.3,-55.58 z
M 493.386,-55.607 L 492.877,-55.6875 L 492.38,-55.8208 L 491.899,-56.0054 L 491.44,-56.2392 L 491.008,-56.5196
 L 490.608,-56.8437 L 490.244,-57.2079 L 489.92,-57.6081 L 489.639,-58.04 L 489.405,-58.4989 L 489.221,-58.9796
 L 489.088,-59.4771 L 489.007,-59.9857 L 488.98,-60.5 L 489.007,-61.0143 L 489.088,-61.5229 L 489.221,-62.0204
 L 489.405,-62.5011 L 489.639,-62.96 L 489.92,-63.3919 L 490.244,-63.7921 L 490.608,-64.1563 L 491.008,-64.4804
 L 491.35,-64.7024 L 491.35,-74 L 491.406,-74.5302 L 491.57,-75.0372 L 491.837,-75.4988 L 492.194,-75.895
 L 492.625,-76.2084 L 493.112,-76.4252 L 493.633,-76.536 L 494.167,-76.536 L 494.688,-76.4252 L 495.175,-76.2084
 L 495.606,-75.895 L 495.963,-75.4988 L 496.23,-75.0372 L 496.394,-74.5302 L 496.45,-74 L 496.45,-64.7024
 L 496.792,-64.4804 L 497.192,-64.1563 L 497.556,-63.7921 L 497.88,-63.3919 L 498.161,-62.96 L 498.395,-62.5011
 L 498.579,-62.0204 L 498.712,-61.5229 L 498.793,-61.0143 L 498.82,-60.5 L 498.793,-59.9857 L 498.712,-59.4771
 L 498.579,-58.9796 L 498.395,-58.4989 L 498.161,-58.04 L 497.88,-57.6081 L 497.556,-57.2079 L 497.192,-56.8437
 L 496.792,-56.5196 L 496.36,-56.2392 L 495.901,-56.0054 L 495.42,-55.8208 L 494.923,-55.6875 L 494.414,-55.607
 L 493.9,-55.58 z
M 614.986,-55.607 L 614.477,-55.6875 L 613.98,-55.8208 L 613.499,-56.0054 L 613.04,-56.2392 L 612.608,-56.5196
 L 612.208,-56.8437 L 611.844,-57.2079 L 611.52,-57.6081 L 611.239,-58.04 L 611.005,-58.4989 L 610.821,-58.9796
 L 610.688,-59.4771 L 610.607,-59.9857 L 610.58,-60.5 L 610.607,-61.0143 L 610.688,-61.5229 L 610.821,-62.0204
 L 611.005,-62.5011 L 611.239,-62.96 L 611.52,-63.3919 L 611.844,-63.7921 L 612.208,-64.1563 L 612.608,-64.4804
 L 612.95,-64.7024 L 612.95,-74 L 613.006,-74.5302 L 613.17,-75.0372 L 613.437,-75.4988 L 613.794,-75.895
 L 614.225,-76.2084 L 614.712,-76.4252 L 615.233,-76.536 L 615.767,-76.536 L 616.288,-76.4252 L 616.775,-76.2084
 L 617.206,-75.895 L 617.563,-75.4988 L 617.83,-75.0372 L 617.994,-74.5302 L 618.05,-74 L 618.05,-64.7024
 L 618.392,-64.4804 L 618.792,-64.1563 L 619.156,-63.7921 L 619.48,-63.3919 L 619.761,-62.96 L 619.995,-62.5011
 L 620.179,-62.0204 L 620.312,-61.5229 L 620.393,-61.0143 L 620.42,-60.5 L 620.393,-59.9857 L 620.312,-59.4771
 L 620.179,-58.9796 L 619.995,-58.4989 L 619.761,-58.04 L 619.48,-57.6081 L 619.156,-57.2079 L 618.792,-56.8437
 L 618.392,-56.5196 L 617.96,-56.2392 L 617.501,-56.0054 L 617.02,-55.8208 L 616.523,-55.6875 L 616.014,-55.607
 L 615.5,-55.58 z
M 310.316,-48.7811 L 309.548,-49.1107 L 299.895,-54.5088 L 299.496,-54.7639 L 298.874,-55.3235 L 298.383,-56
 L 298.043,-56.7639 L 297.869,-57.5819 L 297.869,-58.4181 L 298.043,-59.2361 L 298.383,-60 L 298.874,-60.6765
 L 299.496,-61.2361 L 300.22,-61.6542 L 301.015,-61.9126 L 301.847,-62 L 321.153,-62 L 321.626,-61.972
 L 322.441,-61.7869 L 323.2,-61.4364 L 323.87,-60.9356 L 324.421,-60.3065 L 324.829,-59.5767 L 325.077,-58.7779
 L 325.153,-57.9451 L 325.054,-57.1148 L 324.785,-56.3231 L 324.357,-55.6047 L 323.789,-54.991 L 323.105,-54.5088
 L 313.452,-49.1107 L 312.788,-48.815 L 311.973,-48.63 L 311.136,-48.6185 z
M 236.516,-24.3421 L 235.748,-24.6717 L 182.392,-54.5088 L 181.993,-54.7639 L 181.372,-55.3235 L 180.88,-56
 L 180.54,-56.7639 L 180.366,-57.5819 L 180.366,-58.4181 L 180.54,-59.2361 L 180.88,-60 L 181.372,-60.6765
 L 181.993,-61.2361 L 182.717,-61.6542 L 183.513,-61.9126 L 184.344,-62 L 237.7,-62 L 238.936,-61.8042
 L 239.7,-61.4641 L 240.377,-60.9726 L 240.936,-60.3511 L 241.354,-59.627 L 241.613,-58.8316 L 241.7,-58
 L 241.7,-28.1629 L 241.624,-27.385 L 241.376,-26.5862 L 240.968,-25.8564 L 240.417,-25.2273 L 239.747,-24.7266
 L 238.988,-24.376 L 238.173,-24.1909 L 237.336,-24.1795 z
M 506.427,-24.1909 L 505.612,-24.376 L 504.853,-24.7266 L 504.183,-25.2273 L 503.632,-25.8564 L 503.224,-26.5862
 L 502.976,-27.385 L 502.9,-28.1629 L 502.9,-58 L 502.987,-58.8316 L 503.246,-59.627 L 503.664,-60.3511
 L 504.223,-60.9726 L 504.9,-61.4641 L 505.664,-61.8042 L 506.9,-62 L 560.256,-62 L 561.087,-61.9126
 L 561.883,-61.6542 L 562.607,-61.2361 L 563.228,-60.6765 L 563.72,-60 L 564.06,-59.2361 L 564.234,-58.4181
 L 564.234,-57.5819 L 564.06,-56.7639 L 563.72,-56 L 563.228,-55.3235 L 562.607,-54.7639 L 562.208,-54.5088
 L 508.852,-24.6717 L 508.084,-24.3421 L 507.264,-24.1795 z
M 114.916,-24.3421 L 114.148,-24.6717 L 60.792,-54.5088 L 60.3931,-54.7639 L 59.7717,-55.3235 L 59.2802,-56
 L 58.94,-56.7639 L 58.7662,-57.5819 L 58.7662,-58.4181 L 58.94,-59.2361 L 59.2802,-60 L 59.7717,-60.6765
 L 60.3931,-61.2361 L 61.1173,-61.6542 L 61.9126,-61.9126 L 62.7443,-62 L 116.1,-62 L 117.336,-61.8042
 L 118.1,-61.4641 L 118.777,-60.9726 L 119.336,-60.3511 L 119.754,-59.627 L 120.013,-58.8316 L 120.1,-58
 L 120.1,-28.1629 L 120.024,-27.385 L 119.776,-26.5862 L 119.368,-25.8564 L 118.817,-25.2273 L 118.147,-24.7266
 L 117.388,-24.376 L 116.573,-24.1909 L 115.736,-24.1795 z
M 384.827,-24.1909 L 384.012,-24.376 L 383.253,-24.7266 L 382.583,-25.2273 L 382.032,-25.8564 L 381.624,-26.5862
 L 381.376,-27.385 L 381.3,-28.1629 L 381.3,-58 L 381.387,-58.8316 L 381.646,-59.627 L 382.064,-60.3511
 L 382.623,-60.9726 L 383.3,-61.4641 L 384.064,-61.8042 L 385.3,-62 L 438.656,-62 L 439.487,-61.9126
 L 440.283,-61.6542 L 441.007,-61.2361 L 441.628,-60.6765 L 442.12,-60 L 442.46,-59.2361 L 442.634,-58.4181
 L 442.634,-57.5819 L 442.46,-56.7639 L 442.12,-56 L 441.628,-55.3235 L 441.007,-54.7639 L 440.608,-54.5088
 L 387.252,-24.6717 L 386.484,-24.3421 L 385.664,-24.1795 z
M 263.282,-21.8936 L 262.464,-22.0675 L 261.7,-22.4076 L 261.023,-22.8991 L 260.464,-23.5206 L 260.046,-24.2447
 L 259.787,-25.04 L 259.7,-25.8717 L 259.7,-54.1283 L 259.776,-54.9062 L 260.024,-55.705 L 260.432,-56.4349
 L 260.983,-57.0639 L 261.653,-57.5647 L 262.412,-57.9152 L 263.227,-58.1003 L 264.064,-58.1118 L 264.884,-57.9491
 L 265.652,-57.6195 L 290.917,-43.4912 L 291.682,-42.9356 L 292.233,-42.3065 L 292.641,-41.5767 L 292.888,-40.7779
 L 292.964,-39.9452 L 292.866,-39.1148 L 292.596,-38.3231 L 292.168,-37.6047 L 291.6,-36.991 L 290.917,-36.5088
 L 265.652,-22.3805 L 264.936,-22.0675 L 264.118,-21.8936 z
M 358.116,-22.0509 L 357.348,-22.3805 L 332.083,-36.5088 L 331.318,-37.0644 L 330.767,-37.6935 L 330.359,-38.4233
 L 330.112,-39.2221 L 330.036,-40.0548 L 330.134,-40.8852 L 330.404,-41.6769 L 330.832,-42.3953 L 331.4,-43.009
 L 332.083,-43.4912 L 357.348,-57.6195 L 358.064,-57.9326 L 358.882,-58.1064 L 359.718,-58.1064 L 360.536,-57.9326
 L 361.3,-57.5924 L 361.977,-57.1009 L 362.536,-56.4795 L 362.954,-55.7553 L 363.213,-54.96 L 363.3,-54.1283
 L 363.3,-25.8717 L 363.224,-25.0938 L 362.976,-24.295 L 362.568,-23.5651 L 362.017,-22.9361 L 361.347,-22.4353
 L 360.588,-22.0847 L 359.773,-21.8997 L 358.936,-21.8882 z
M 142.1,-18 L 140.864,-18.1958 L 140.1,-18.5359 L 139.423,-19.0274 L 138.864,-19.6489 L 138.446,-20.373
 L 138.187,-21.1684 L 138.1,-22 L 138.1,-51.8371 L 138.176,-52.615 L 138.424,-53.4138 L 138.832,-54.1436
 L 139.383,-54.7727 L 140.053,-55.2734 L 140.812,-55.624 L 141.627,-55.8091 L 142.464,-55.8205 L 143.284,-55.6579
 L 144.052,-55.3283 L 197.408,-25.4912 L 197.807,-25.2361 L 198.428,-24.6765 L 198.92,-24 L 199.26,-23.2361
 L 199.434,-22.4181 L 199.434,-21.5819 L 199.26,-20.7639 L 198.92,-20 L 198.428,-19.3235 L 197.807,-18.7639
 L 197.083,-18.3458 L 196.287,-18.0874 L 195.456,-18 z
M 427.544,-18 L 426.713,-18.0874 L 425.917,-18.3458 L 425.193,-18.7639 L 424.572,-19.3235 L 424.08,-20
 L 423.74,-20.7639 L 423.566,-21.5819 L 423.566,-22.4181 L 423.74,-23.2361 L 424.08,-24 L 424.572,-24.6765
 L 425.193,-25.2361 L 425.592,-25.4912 L 478.948,-55.3283 L 479.716,-55.6579 L 480.536,-55.8205 L 481.373,-55.8091
 L 482.188,-55.624 L 482.947,-55.2734 L 483.617,-54.7727 L 484.168,-54.1436 L 484.576,-53.4138 L 484.824,-52.615
 L 484.9,-51.8371 L 484.9,-22 L 484.813,-21.1684 L 484.554,-20.373 L 484.136,-19.6489 L 483.577,-19.0274
 L 482.9,-18.5359 L 482.136,-18.1958 L 480.9,-18 z
M 22,-18 L 20.7639,-18.1958 L 20,-18.5359 L 19.3235,-19.0274 L 18.7639,-19.6489 L 18.3458,-20.373
 L 18.0874,-21.1684 L 18,-22 L 18,-50.9982 L 18.0764,-51.7762 L 18.3239,-52.5749 L 18.732,-53.3048
 L 19.283,-53.9339 L 19.9527,-54.4346 L 20.7119,-54.7852 L 21.5274,-54.9702 L 22.3635,-54.9817 L 23.1838,-54.8191
 L 23.9523,-54.4894 L 75.808,-25.4912 L 76.2068,-25.2361 L 76.8283,-24.6765 L 77.3198,-24 L 77.6599,-23.2361
 L 77.8338,-22.4181 L 77.8338,-21.5819 L 77.6599,-20.7639 L 77.3198,-20 L 76.8283,-19.3235 L 76.2068,-18.7639
 L 75.4827,-18.3458 L 74.6873,-18.0874 L 73.8557,-18 z
M 549.144,-18 L 548.313,-18.0874 L 547.517,-18.3458 L 546.793,-18.7639 L 546.172,-19.3235 L 545.68,-20
 L 545.34,-20.7639 L 545.166,-21.5819 L 545.166,-22.4181 L 545.34,-23.2361 L 545.68,-24 L 546.172,-24.6765
 L 546.793,-25.2361 L 547.192,-25.4912 L 599.048,-54.4894 L 599.816,-54.8191 L 600.636,-54.9817 L 601.473,-54.9702
 L 602.288,-54.7852 L 603.047,-54.4346 L 603.717,-53.9339 L 604.268,-53.3048 L 604.676,-52.5749 L 604.924,-51.7762
 L 605,-50.9982 L 605,-22 L 604.913,-21.1684 L 604.654,-20.373 L 604.236,-19.6489 L 603.677,-19.0274
 L 603,-18.5359 L 602.236,-18.1958 L 601,-18 z
M 301.847,-18 L 301.374,-18.028 L 300.559,-18.2131 L 299.8,-18.5636 L 299.13,-19.0644 L 298.579,-19.6935
 L 298.171,-20.4233 L 297.923,-21.2221 L 297.847,-22.0548 L 297.946,-22.8852 L 298.215,-23.6769 L 298.643,-24.3953
 L 299.211,-25.009 L 299.895,-25.4912 L 309.548,-30.8893 L 310.212,-31.185 L 311.027,-31.37 L 311.864,-31.3815
 L 312.684,-31.2189 L 313.452,-30.8893 L 323.105,-25.4912 L 323.504,-25.2361 L 324.126,-24.6765 L 324.617,-24
 L 324.957,-23.2361 L 325.131,-22.4181 L 325.131,-21.5819 L 324.957,-20.7639 L 324.617,-20 L 324.126,-19.3235
 L 323.504,-18.7639 L 322.78,-18.3458 L 321.985,-18.0874 L 321.153,-18 z
" stroke="black" fill="lightgray" stroke-width="0.5"/>
</svg>
