<?xml version="1.0" standalone="no"?>
<!DOCTYPE svg PUBLIC "-//W3C//DTD SVG 1.1//EN" "http://www.w3.org/Graphics/SVG/1.1/DTD/svg11.dtd">
<svg width="846mm" height="80mm" viewBox="0 -80 846 80" xmlns="http://www.w3.org/2000/svg" version="1.1">
<title>OpenSCAD Model</title>
<path d="
M 846,-80 L 0,-80 L 0,-0 L 4.95,-0 L 4.95,-6 L 5.00572,-6.53017
 L 5.17046,-7.03717 L 5.437,-7.49884 L 5.79372,-7.895 L 6.22499,-8.20836 L 6.71201,-8.42519 L 7.23344,-8.53603
 L 7.76654,-8.53603 L 8.28798,-8.42519 L 8.77499,-8.20836 L 9.20627,-7.895 L 9.56299,-7.49884 L 9.82953,-7.03717
 L 9.99426,-6.53017 L 10.05,-6 L 10.05,-0 L 171.15,-0 L 171.15,-6 L 171.206,-6.53017
 L 171.37,-7.03717 L 171.637,-7.49884 L 171.994,-7.895 L 172.425,-8.20836 L 172.912,-8.42519 L 173.433,-8.53603
 L 173.967,-8.53603 L 174.488,-8.42519 L 174.975,-8.20836 L 175.406,-7.895 L 175.763,-7.49884 L 176.03,-7.03717
 L 176.194,-6.53017 L 176.25,-6 L 176.25,-0 L 337.35,-0 L 337.35,-6 L 337.406,-6.53017
 L 337.57,-7.03717 L 337.837,-7.49884 L 338.194,-7.895 L 338.625,-8.20836 L 339.112,-8.42519 L 339.633,-8.53603
 L 340.167,-8.53603 L 340.688,-8.42519 L 341.175,-8.20836 L 341.606,-7.895 L 341.963,-7.49884 L 342.23,-7.03717
 L 342.394,-6.53017 L 342.45,-6 L 342.45,-0 L 503.55,-0 L 503.55,-6 L 503.606,-6.53017
 L 503.77,-7.03717 L 504.037,-7.49884 L 504.394,-7.895 L 504.825,-8.20836 L 505.312,-8.42519 L 505.833,-8.53603
 L 506.367,-8.53603 L 506.888,-8.42519 L 507.375,-8.20836 L 507.806,-7.895 L 508.163,-7.49884 L 508.43,-7.03717
 L 508.594,-6.53017 L 508.65,-6 L 508.65,-0 L 669.75,-0 L 669.75,-6 L 669.806,-6.53017
 L 669.97,-7.03717 L 670.237,-7.49884 L 670.594,-7.895 L 671.025,-8.20836 L 671.512,-8.42519 L 672.033,-8.53603
 L 672.567,-8.53603 L 673.088,-8.42519 L 673.575,-8.20836 L 674.006,-7.895 L 674.363,-7.49884 L 674.63,-7.03717
 L 674.794,-6.53017 L 674.85,-6 L 674.85,-0 L 835.95,-0 L 835.95,-6 L 836.006,-6.53017
 L 836.17,-7.03717 L 836.437,-7.49884 L 836.794,-7.895 L 837.225,-8.20836 L 837.712,-8.42519 L 838.233,-8.53603
 L 838.767,-8.53603 L 839.288,-8.42519 L 839.775,-8.20836 L 840.206,-7.895 L 840.563,-7.49884 L 840.83,-7.03717
 L 840.994,-6.53017 L 841.05,-6 L 841.05,-0 L 846,-0 z
M 6.98573,-55.607 L 6.47708,-55.6875 L 5.97964,-55.8208 L 5.49887,-56.0054 L 5.04001,-56.2392 L 4.60811,-56.5196
 L 4.20789,-56.8437 L 3.84373,-57.2079 L 3.51964,-57.6081 L 3.23917,-58.04 L 3.00537,-58.4989 L 2.82082,-58.9796
 L 2.68752,-59.4771 L 2.60696,-59.9857 L 2.58,-60.5 L 2.60696,-61.0143 L 2.68752,-61.5229 L 2.82082,-62.0204
 L 3.00537,-62.5011 L 3.23917,-62.96 L 3.51964,-63.3919 L 3.84373,-63.7921 L 4.20789,-64.1563 L 4.60811,-64.4804
 L 4.95001,-64.7024 L 4.95001,-74 L 5.00574,-74.5302 L 5.17047,-75.0372 L 5.43701,-75.4988 L 5.79373,-75.895
 L 6.22501,-76.2084 L 6.71202,-76.4252 L 7.23346,-76.536 L 7.76654,-76.536 L 8.28798,-76.4252 L 8.77499,-76.2084
 L 9.20627,-75.895 L 9.56299,-75.4988 L 9.82953,-75.0372 L 9.99426,-74.5302 L 10.05,-74 L 10.05,-64.7024
 L 10.3919,-64.4804 L 10.7921,-64.1563 L 11.1563,-63.7921 L 11.4804,-63.3919 L 11.7608,-62.96 L 11.9946,-62.5011
 L 12.1792,-62.0204 L 12.3125,-61.5229 L 12.393,-61.0143 L 12.42,-60.5 L 12.393,-59.9857 L 12.3125,-59.4771
 L 12.1792,-58.9796 L 11.9946,-58.4989 L 11.7608,-58.04 L 11.4804,-57.6081 L 11.1563,-57.2079 L 10.7921,-56.8437
 L 10.3919,-56.5196 L 9.95999,-56.2392 L 9.50113,-56.0054 L 9.02036,-55.8208 L 8.52292,-55.6875 L 8.01427,-55.607
 L 7.5,-55.58 z
M 173.186,-55.607 L 172.677,-55.6875 L 172.18,-55.8208 L 171.699,-56.0054 L 171.24,-56.2392 L 170.808,-56.5196
 L 170.408,-56.8437 L 170.044,-57.2079 L 169.72,-57.6081 L 169.439,-58.04 L 169.205,-58.4989 L 169.021,-58.9796
 L 168.888,-59.4771 L 168.807,-59.9857 L 168.78,-60.5 L 168.807,-61.0143 L 168.888,-61.5229 L 169.021,-62.0204
 L 169.205,-62.5011 L 169.439,-62.96 L 169.72,-63.3919 L 170.044,-63.7921 L 170.408,-64.1563 L 170.808,-64.4804
 L 171.15,-64.7024 L 171.15,-74 L 171.206,-74.5302 L 171.37,-75.0372 L 171.637,-75.4988 L 171.994,-75.895
 L 172.425,-76.2084 L 172.912,-76.4252 L 173.433,-76.536 L 173.967,-76.536 L 174.488,-76.4252 L 174.975,-76.2084
 L 175.406,-75.895 L 175.763,-75.4988 L 176.03,-75.0372 L 176.194,-74.5302 L 176.25,-74 L 176.25,-64.7024
 L 176.592,-64.4804 L 176.992,-64.1563 L 177.356,-63.7921 L 177.68,-63.3919 L 177.961,-62.96 L 178.195,-62.5011
 L 178.379,-62.0204 L 178.512,-61.5229 L 178.593,-61.0143 L 178.62,-60.5 L 178.593,-59.9857 L 178.512,-59.4771
 L 178.379,-58.9796 L 178.195,-58.4989 L 177.961,-58.04 L 177.68,-57.6081 L 177.356,-57.2079 L 176.992,-56.8437
 L 176.592,-56.5196 L 176.16,-56.2392 L 175.701,-56.0054 L 175.22,-55.8208 L 174.723,-55.6875 L 174.214,-55.607
 L 173.7,-55.58 z
M 339.386,-55.607 L 338.877,-55.6875 L 338.38,-55.8208 L 337.899,-56.0054 L 337.44,-56.2392 L 337.008,-56.5196
 L 336.608,-56.8437 L 336.244,-57.2079 L 335.92,-57.6081 L 335.639,-58.04 L 335.405,-58.4989 L 335.221,-58.9796
 L 335.088,-59.4771 L 335.007,-59.9857 L 334.98,-60.5 L 335.007,-61.0143 L 335.088,-61.5229 L 335.221,-62.0204
 L 335.405,-62.5011 L 335.639,-62.96 L 335.92,-63.3919 L 336.244,-63.7921 L 336.608,-64.1563 L 337.008,-64.4804
 L 337.35,-64.7024 L 337.35,-74 L 337.406,-74.5302 L 337.57,-75.0372 L 337.837,-75.4988 L 338.194,-75.895
 L 338.625,-76.2084 L 339.112,-76.4252 L 339.633,-76.536 L 340.167,-76.536 L 340.688,-76.4252 L 341.175,-76.2084
 L 341.606,-75.895 L 341.963,-75.4988 L 342.23,-75.0372 L 342.394,-74.5302 L 342.45,-74 L 342.45,-64.7024
 L 342.792,-64.4804 L 343.192,-64.1563 L 343.556,-63.7921 L 343.88,-63.3919 L 344.161,-62.96 L 344.395,-62.5011
 L 344.579,-62.0204 L 344.712,-61.5229 L 344.793,-61.0143 L 344.82,-60.5 L 344.793,-59.9857 L 344.712,-59.4771
 L 344.579,-58.9796 L 344.395,-58.4989 L 344.161,-58.04 L 343.88,-57.6081 L 343.556,-57.2079 L 343.192,-56.8437
 L 342.792,-56.5196 L 342.36,-56.2392 L 341.901,-56.0054 L 341.42,-55.8208 L 340.923,-55.6875 L 340.414,-55.607
 L 339.9,-55.58 z
M 505.586,-55.607 L 505.077,-55.6875 L 504.58,-55.8208 L 504.099,-56.0054 L 503.64,-56.2392 L 503.208,-56.5196
 L 502.808,-56.8437 L 502.444,-57.2079 L 502.12,-57.6081 L 501.839,-58.04 L 501.605,-58.4989 L 501.421,-58.9796
 L 501.288,-59.4771 L 501.207,-59.9857 L 501.18,-60.5 L 501.207,-61.0143 L 501.288,-61.5229 L 501.421,-62.0204
 L 501.605,-62.5011 L 501.839,-62.96 L 502.12,-63.3919 L 502.444,-63.7921 L 502.808,-64.1563 L 503.208,-64.4804
 L 503.55,-64.7024 L 503.55,-74 L 503.606,-74.5302 L 503.77,-75.0372 L 504.037,-75.4988 L 504.394,-75.895
 L 504.825,-76.2084 L 505.312,-76.4252 L 505.833,-76.536 L 506.367,-76.536 L 506.888,-76.4252 L 507.375,-76.2084
 L 507.806,-75.895 L 508.163,-75.4988 L 508.43,-75.0372 L 508.594,-74.5302 L 508.65,-74 L 508.65,-64.7024
 L 508.992,-64.4804 L 509.392,-64.1563 L 509.756,-63.7921 L 510.08,-63.3919 L 510.361,-62.96 L 510.595,-62.5011
 L 510.779,-62.0204 L 510.912,-61.5229 L 510.993,-61.0143 L 511.02,-60.5 L 510.993,-59.9857 L 510.912,-59.4771
 L 510.779,-58.9796 L 510.595,-58.4989 L 510.361,-58.04 L 510.08,-57.6081 L 509.756,-57.2079 L 509.392,-56.8437
 L 508.992,-56.5196 L 508.56,-56.2392 L 508.101,-56.0054 L 507.62,-55.8208 L 507.123,-55.6875 L 506.614,-55.607
 L 506.1,-55.58 z
M 671.786,-55.607 L 671.277,-55.6875 L 670.78,-55.8208 L 670.299,-56.0054 L 669.84,-56.2392 L 669.408,-56.5196
 L 669.008,-56.8437 L 668.644,-57.2079 L 668.32,-57.6081 L 668.039,-58.04 L 667.805,-58.4989 L 667.621,-58.9796
 L 667.488,-59.4771 L 667.407,-59.9857 L 667.38,-60.5 L 667.407,-61.0143 L 667.488,-61.5229 L 667.621,-62.0204
 L 667.805,-62.5011 L 668.039,-62.96 L 668.32,-63.3919 L 668.644,-63.7921 L 669.008,-64.1563 L 669.408,-64.4804
 L 669.75,-64.7024 L 669.75,-74 L 669.806,-74.5302 L 669.97,-75.0372 L 670.237,-75.4988 L 670.594,-75.895
 L 671.025,-76.2084 L 671.512,-76.4252 L 672.033,-76.536 L 672.567,-76.536 L 673.088,-76.4252 L 673.575,-76.2084
 L 674.006,-75.895 L 674.363,-75.4988 L 674.63,-75.0372 L 674.794,-74.5302 L 674.85,-74 L 674.85,-64.7024
 L 675.192,-64.4804 L 675.592,-64.1563 L 675.956,-63.7921 L 676.28,-63.3919 L 676.561,-62.96 L 676.795,-62.5011
 L 676.979,-62.0204 L 677.112,-61.5229 L 677.193,-61.0143 L 677.22,-60.5 L 677.193,-59.9857 L 677.112,-59.4771
 L 676.979,-58.9796 L 676.795,-58.4989 L 676.561,-58.04 L 676.28,-57.6081 L 675.956,-57.2079 L 675.592,-56.8437
 L 675.192,-56.5196 L 674.76,-56.2392 L 674.301,-56.0054 L 673.82,-55.8208 L 673.323,-55.6875 L 672.814,-55.607
 L 672.3,-55.58 z
M 837.986,-55.607 L 837.477,-55.6875 L 836.98,-55.8208 L 836.499,-56.0054 L 836.04,-56.2392 L 835.608,-56.5196
 L 835.208,-56.8437 L 834.844,-57.2079 L 834.52,-57.6081 L 834.239,-58.04 L 834.005,-58.4989 L 833.821,-58.9796
 L 833.688,-59.4771 L 833.607,-59.9857 L 833.58,-60.5 L 833.607,-61.0143 L 833.688,-61.5229 L 833.821,-62.0204
 L 834.005,-62.5011 L 834.239,-62.96 L 834.52,-63.3919 L 834.844,-63.7921 L 835.208,-64.1563 L 835.608,-64.4804
 L 835.95,-64.7024 L 835.95,-74 L 836.006,-74.5302 L 836.17,-75.0372 L 836.437,-75.4988 L 836.794,-75.895
 L 837.225,-76.2084 L 837.712,-76.4252 L 838.233,-76.536 L 838.767,-76.536 L 839.288,-76.4252 L 839.775,-76.2084
 L 840.206,-75.895 L 840.563,-75.4988 L 840.83,-75.0372 L 840.994,-74.5302 L 841.05,-74 L 841.05,-64.7024
 L 841.392,-64.4804 L 841.792,-64.1563 L 842.156,-63.7921 L 842.48,-63.3919 L 842.761,-62.96 L 842.995,-62.5011
 L 843.179,-62.0204 L 843.312,-61.5229 L 843.393,-61.0143 L 843.42,-60.5 L 843.393,-59.9857 L 843.312,-59.4771
 L 843.179,-58.9796 L 842.995,-58.4989 L 842.761,-58.04 L 842.48,-57.6081 L 842.156,-57.2079 L 841.792,-56.8437
 L 841.392,-56.5196 L 840.96,-56.2392 L 840.501,-56.0054 L 840.02,-55.8208 L 839.523,-55.6875 L 839.014,-55.607
 L 838.5,-55.58 z
M 422.288,-47.9434 L 421.485,-48.1774 L 406.526,-54.2979 L 405.69,-54.7639 L 405.068,-55.3235 L 404.577,-56
 L 404.237,-56.7639 L 404.063,-57.5819 L 404.063,-58.4181 L 404.237,-59.2361 L 404.577,-60 L 405.068,-60.6765
 L 405.69,-61.2361 L 406.414,-61.6542 L 407.209,-61.9126 L 408.041,-62 L 437.959,-62 L 438.91,-61.8854
 L 439.697,-61.6028 L 440.408,-61.1628 L 441.012,-60.5846 L 441.483,-59.8934 L 441.799,-59.1194 L 441.948,-58.2966
 L 441.923,-57.4607 L 441.724,-56.6484 L 441.361,-55.8952 L 440.849,-55.234 L 440.21,-54.6937 L 439.474,-54.2979
 L 424.515,-48.1774 L 423.951,-47.9942 L 423.122,-47.8814 z
M 326.188,-21.4222 L 325.385,-21.6562 L 245.605,-54.2979 L 244.769,-54.7639 L 244.147,-55.3235 L 243.656,-56
 L 243.316,-56.7639 L 243.142,-57.5819 L 243.142,-58.4181 L 243.316,-59.2361 L 243.656,-60 L 244.147,-60.6765
 L 244.769,-61.2361 L 245.493,-61.6542 L 246.288,-61.9126 L 247.12,-62 L 326.9,-62 L 328.136,-61.8042
 L 328.9,-61.4641 L 329.577,-60.9726 L 330.136,-60.3511 L 330.554,-59.627 L 330.813,-58.8316 L 330.9,-58
 L 330.9,-25.3584 L 330.74,-24.2389 L 330.424,-23.465 L 329.953,-22.7738 L 329.349,-22.1955 L 328.638,-21.7555
 L 327.851,-21.473 L 327.022,-21.3602 z
M 684.349,-21.473 L 683.562,-21.7555 L 682.851,-22.1955 L 682.247,-22.7738 L 681.776,-23.465 L 681.46,-24.2389
 L 681.3,-25.3584 L 681.3,-58 L 681.387,-58.8316 L 681.646,-59.627 L 682.064,-60.3511 L 682.623,-60.9726
 L 683.3,-61.4641 L 684.064,-61.8042 L 685.3,-62 L 765.08,-62 L 765.912,-61.9126 L 766.707,-61.6542
 L 767.431,-61.2361 L 768.053,-60.6765 L 768.544,-60 L 768.884,-59.2361 L 769.058,-58.4181 L 769.058,-57.5819
 L 768.884,-56.7639 L 768.544,-56 L 768.053,-55.3235 L 767.431,-54.7639 L 766.595,-54.2979 L 686.815,-21.6562
 L 686.012,-21.4222 L 685.178,-21.3602 z
M 159.988,-21.4222 L 159.185,-21.6562 L 79.4053,-54.2979 L 78.5689,-54.7639 L 77.9474,-55.3235 L 77.4559,-56
 L 77.1158,-56.7639 L 76.9419,-57.5819 L 76.9419,-58.4181 L 77.1158,-59.2361 L 77.4559,-60 L 77.9474,-60.6765
 L 78.5689,-61.2361 L 79.293,-61.6542 L 80.0883,-61.9126 L 80.92,-62 L 160.7,-62 L 161.936,-61.8042
 L 162.7,-61.4641 L 163.377,-60.9726 L 163.936,-60.3511 L 164.354,-59.627 L 164.613,-58.8316 L 164.7,-58
 L 164.7,-25.3584 L 164.54,-24.2389 L 164.224,-23.465 L 163.753,-22.7738 L 163.149,-22.1955 L 162.438,-21.7555
 L 161.651,-21.473 L 160.822,-21.3602 z
M 518.149,-21.473 L 517.362,-21.7555 L 516.651,-22.1955 L 516.047,-22.7738 L 515.576,-23.465 L 515.26,-24.2389
 L 515.1,-25.3584 L 515.1,-58 L 515.187,-58.8316 L 515.446,-59.627 L 515.864,-60.3511 L 516.423,-60.9726
 L 517.1,-61.4641 L 517.864,-61.8042 L 519.1,-62 L 598.88,-62 L 599.712,-61.9126 L 600.507,-61.6542
 L 601.231,-61.2361 L 601.853,-60.6765 L 602.344,-60 L 602.684,-59.2361 L 602.858,-58.4181 L 602.858,-57.5819
 L 602.684,-56.7639 L 602.344,-56 L 601.853,-55.3235 L 601.231,-54.7639 L 600.395,-54.2979 L 520.615,-21.6562
 L 519.812,-21.4222 L 518.978,-21.3602 z
M 352.482,-19.2204 L 351.664,-19.3942 L 350.9,-19.7344 L 350.223,-20.2259 L 349.664,-20.8473 L 349.246,-21.5715
 L 348.987,-22.3668 L 348.9,-23.1985 L 348.9,-56.8015 L 349.06,-57.921 L 349.376,-58.6949 L 349.847,-59.3861
 L 350.451,-59.9644 L 351.162,-60.4044 L 351.949,-60.6869 L 352.778,-60.7997 L 353.612,-60.7377 L 354.415,-60.5037
 L 395.48,-43.7021 L 396.414,-43.1628 L 397.018,-42.5846 L 397.488,-41.8934 L 397.805,-41.1194 L 397.954,-40.2966
 L 397.928,-39.4607 L 397.73,-38.6485 L 397.366,-37.8952 L 396.854,-37.234 L 396.216,-36.6937 L 395.48,-36.2979
 L 354.415,-19.4963 L 353.318,-19.2204 z
M 492.388,-19.2623 L 491.585,-19.4963 L 450.52,-36.2979 L 449.586,-36.8372 L 448.982,-37.4154 L 448.512,-38.1066
 L 448.195,-38.8806 L 448.046,-39.7034 L 448.072,-40.5393 L 448.27,-41.3516 L 448.634,-42.1048 L 449.145,-42.766
 L 449.784,-43.3063 L 450.52,-43.7021 L 491.585,-60.5037 L 492.682,-60.7796 L 493.518,-60.7796 L 494.336,-60.6058
 L 495.1,-60.2656 L 495.777,-59.7741 L 496.336,-59.1527 L 496.754,-58.4285 L 497.013,-57.6332 L 497.1,-56.8015
 L 497.1,-23.1985 L 496.94,-22.079 L 496.624,-21.3051 L 496.153,-20.6139 L 495.549,-20.0356 L 494.838,-19.5956
 L 494.051,-19.3131 L 493.222,-19.2003 z
M 186.7,-18 L 185.464,-18.1958 L 184.7,-18.5359 L 184.023,-19.0274 L 183.464,-19.6489 L 183.046,-20.373
 L 182.787,-21.1684 L 182.7,-22 L 182.7,-54.6416 L 182.86,-55.7611 L 183.176,-56.535 L 183.647,-57.2262
 L 184.251,-57.8045 L 184.962,-58.2445 L 185.749,-58.527 L 186.578,-58.6398 L 187.412,-58.5778 L 188.215,-58.3438
 L 267.995,-25.7021 L 268.831,-25.2361 L 269.453,-24.6765 L 269.944,-24 L 270.284,-23.2361 L 270.458,-22.4181
 L 270.458,-21.5819 L 270.284,-20.7639 L 269.944,-20 L 269.453,-19.3235 L 268.831,-18.7639 L 268.107,-18.3458
 L 267.312,-18.0874 L 266.48,-18 z
M 579.52,-18 L 578.688,-18.0874 L 577.893,-18.3458 L 577.169,-18.7639 L 576.547,-19.3235 L 576.056,-20
 L 575.716,-20.7639 L 575.542,-21.5819 L 575.542,-22.4181 L 575.716,-23.2361 L 576.056,-24 L 576.547,-24.6765
 L 577.169,-25.2361 L 578.005,-25.7021 L 657.785,-58.3438 L 658.588,-58.5778 L 659.422,-58.6398 L 660.251,-58.527
 L 661.038,-58.2445 L 661.749,-57.8045 L 662.353,-57.2262 L 662.824,-56.535 L 663.14,-55.7611 L 663.3,-54.6416
 L 663.3,-22 L 663.213,-21.1684 L 662.954,-20.373 L 662.536,-19.6489 L 661.977,-19.0274 L 661.3,-18.5359
 L 660.536,-18.1958 L 659.3,-18 z
M 22,-18 L 20.7639,-18.1958 L 20,-18.5359 L 19.3235,-19.0274 L 18.7639,-19.6489 L 18.3458,-20.373
 L 18.0874,-21.1684 L 18,-22 L 18,-54.0279 L 18.1598,-55.1473 L 18.4765,-55.9213 L 18.9471,-56.6125
 L 19.5512,-57.1907 L 20.2623,-57.6308 L 21.0494,-57.9133 L 21.878,-58.026 L 22.7119,-57.9641 L 23.5147,-57.73
 L 101.795,-25.7021 L 102.631,-25.2361 L 103.253,-24.6765 L 103.744,-24 L 104.084,-23.2361 L 104.258,-22.4181
 L 104.258,-21.5819 L 104.084,-20.7639 L 103.744,-20 L 103.253,-19.3235 L 102.631,-18.7639 L 101.907,-18.3458
 L 101.112,-18.0874 L 100.28,-18 z
M 745.72,-18 L 744.888,-18.0874 L 744.093,-18.3458 L 743.369,-18.7639 L 742.747,-19.3235 L 742.256,-20
 L 741.916,-20.7639 L 741.742,-21.5819 L 741.742,-22.4181 L 741.916,-23.2361 L 742.256,-24 L 742.747,-24.6765
 L 743.369,-25.2361 L 744.205,-25.7021 L 822.485,-57.73 L 823.288,-57.9641 L 824.122,-58.026 L 824.951,-57.9133
 L 825.738,-57.6308 L 826.449,-57.1907 L 827.053,-56.6125 L 827.524,-55.9213 L 827.84,-55.1473 L 828,-54.0279
 L 828,-22 L 827.913,-21.1684 L 827.654,-20.373 L 827.236,-19.6489 L 826.677,-19.0274 L 826,-18.5359
 L 825.236,-18.1958 L 824,-18 z
M 408.041,-18 L 407.09,-18.1146 L 406.303,-18.3972 L 405.592,-18.8372 L 404.988,-19.4154 L 404.517,-20.1066
 L 404.201,-20.8806 L 404.052,-21.7034 L 404.077,-22.5393 L 404.276,-23.3516 L 404.639,-24.1048 L 405.151,-24.766
 L 405.79,-25.3063 L 406.526,-25.7021 L 421.485,-31.8226 L 422.049,-32.0058 L 422.878,-32.1186 L 423.712,-32.0566
 L 424.515,-31.8226 L 439.474,-25.7021 L 440.31,-25.2361 L 440.932,-24.6765 L 441.423,-24 L 441.763,-23.2361
 L 441.937,-22.4181 L 441.937,-21.5819 L 441.763,-20.7639 L 441.423,-20 L 440.932,-19.3235 L 440.31,-18.7639
 L 439.586,-18.3458 L 438.791,-18.0874 L 437.959,-18 z
" stroke="black" fill="lightgray" stroke-width="0.5"/>
</svg>
