<?xml version="1.0" standalone="no"?>
<!DOCTYPE svg PUBLIC "-//W3C//DTD SVG 1.1//EN" "http://www.w3.org/Graphics/SVG/1.1/DTD/svg11.dtd">
<svg width="872mm" height="80mm" viewBox="0 -80 872 80" xmlns="http://www.w3.org/2000/svg" version="1.1">
<title>OpenSCAD Model</title>
<path d="
M 872,-80 L 0,-80 L 0,-0 L 4.95,-0 L 4.95,-6 L 5.00572,-6.53017
 L 5.17046,-7.03717 L 5.437,-7.49884 L 5.79372,-7.895 L 6.22499,-8.20836 L 6.71201,-8.42519 L 7.23344,-8.53603
 L 7.76654,-8.53603 L 8.28798,-8.42519 L 8.77499,-8.20836 L 9.20627,-7.895 L 9.56299,-7.49884 L 9.82953,-7.03717
 L 9.99426,-6.53017 L 10.05,-6 L 10.05,-0 L 176.35,-0 L 176.35,-6 L 176.406,-6.53017
 L 176.57,-7.03717 L 176.837,-7.49884 L 177.194,-7.895 L 177.625,-8.20836 L 178.112,-8.42519 L 178.633,-8.53603
 L 179.167,-8.53603 L 179.688,-8.42519 L 180.175,-8.20836 L 180.606,-7.895 L 180.963,-7.49884 L 181.23,-7.03717
 L 181.394,-6.53017 L 181.45,-6 L 181.45,-0 L 347.75,-0 L 347.75,-6 L 347.806,-6.53017
 L 347.97,-7.03717 L 348.237,-7.49884 L 348.594,-7.895 L 349.025,-8.20836 L 349.512,-8.42519 L 350.033,-8.53603
 L 350.567,-8.53603 L 351.088,-8.42519 L 351.575,-8.20836 L 352.006,-7.895 L 352.363,-7.49884 L 352.63,-7.03717
 L 352.794,-6.53017 L 352.85,-6 L 352.85,-0 L 519.15,-0 L 519.15,-6 L 519.206,-6.53017
 L 519.37,-7.03717 L 519.637,-7.49884 L 519.994,-7.895 L 520.425,-8.20836 L 520.912,-8.42519 L 521.433,-8.53603
 L 521.967,-8.53603 L 522.488,-8.42519 L 522.975,-8.20836 L 523.406,-7.895 L 523.763,-7.49884 L 524.03,-7.03717
 L 524.194,-6.53017 L 524.25,-6 L 524.25,-0 L 690.55,-0 L 690.55,-6 L 690.606,-6.53017
 L 690.77,-7.03717 L 691.037,-7.49884 L 691.394,-7.895 L 691.825,-8.20836 L 692.312,-8.42519 L 692.833,-8.53603
 L 693.367,-8.53603 L 693.888,-8.42519 L 694.375,-8.20836 L 694.806,-7.895 L 695.163,-7.49884 L 695.43,-7.03717
 L 695.594,-6.53017 L 695.65,-6 L 695.65,-0 L 861.95,-0 L 861.95,-6 L 862.006,-6.53017
 L 862.17,-7.03717 L 862.437,-7.49884 L 862.794,-7.895 L 863.225,-8.20836 L 863.712,-8.42519 L 864.233,-8.53603
 L 864.767,-8.53603 L 865.288,-8.42519 L 865.775,-8.20836 L 866.206,-7.895 L 866.563,-7.49884 L 866.83,-7.03717
 L 866.994,-6.53017 L 867.05,-6 L 867.05,-0 L 872,-0 z
M 6.98573,-55.607 L 6.47708,-55.6875 L 5.97964,-55.8208 L 5.49887,-56.0054 L 5.04001,-56.2392 L 4.60811,-56.5196
 L 4.20789,-56.8437 L 3.84373,-57.2079 L 3.51964,-57.6081 L 3.23917,-58.04 L 3.00537,-58.4989 L 2.82082,-58.9796
 L 2.68752,-59.4771 L 2.60696,-59.9857 L 2.58,-60.5 L 2.60696,-61.0143 L 2.68752,-61.5229 L 2.82082,-62.0204
 L 3.00537,-62.5011 L 3.23917,-62.96 L 3.51964,-63.3919 L 3.84373,-63.7921 L 4.20789,-64.1563 L 4.60811,-64.4804
 L 4.95001,-64.7024 L 4.95001,-74 L 5.00574,-74.5302 L 5.17047,-75.0372 L 5.43701,-75.4988 L 5.79373,-75.895
 L 6.22501,-76.2084 L 6.71202,-76.4252 L 7.23346,-76.536 L 7.76654,-76.536 L 8.28798,-76.4252 L 8.77499,-76.2084
 L 9.20627,-75.895 L 9.56299,-75.4988 L 9.82953,-75.0372 L 9.99426,-74.5302 L 10.05,-74 L 10.05,-64.7024
 L 10.3919,-64.4804 L 10.7921,-64.1563 L 11.1563,-63.7921 L 11.4804,-63.3919 L 11.7608,-62.96 L 11.9946,-62.5011
 L 12.1792,-62.0204 L 12.3125,-61.5229 L 12.393,-61.0143 L 12.42,-60.5 L 12.393,-59.9857 L 12.3125,-59.4771
 L 12.1792,-58.9796 L 11.9946,-58.4989 L 11.7608,-58.04 L 11.4804,-57.6081 L 11.1563,-57.2079 L 10.7921,-56.8437
 L 10.3919,-56.5196 L 9.95999,-56.2392 L 9.50113,-56.0054 L 9.02036,-55.8208 L 8.52292,-55.6875 L 8.01427,-55.607
 L 7.5,-55.58 z
M 178.386,-55.607 L 177.877,-55.6875 L 177.38,-55.8208 L 176.899,-56.0054 L 176.44,-56.2392 L 176.008,-56.5196
 L 175.608,-56.8437 L 175.244,-57.2079 L 174.92,-57.6081 L 174.639,-58.04 L 174.405,-58.4989 L 174.221,-58.9796
 L 174.088,-59.4771 L 174.007,-59.9857 L 173.98,-60.5 L 174.007,-61.0143 L 174.088,-61.5229 L 174.221,-62.0204
 L 174.405,-62.5011 L 174.639,-62.96 L 174.92,-63.3919 L 175.244,-63.7921 L 175.608,-64.1563 L 176.008,-64.4804
 L 176.35,-64.7024 L 176.35,-74 L 176.406,-74.5302 L 176.57,-75.0372 L 176.837,-75.4988 L 177.194,-75.895
 L 177.625,-76.2084 L 178.112,-76.4252 L 178.633,-76.536 L 179.167,-76.536 L 179.688,-76.4252 L 180.175,-76.2084
 L 180.606,-75.895 L 180.963,-75.4988 L 181.23,-75.0372 L 181.394,-74.5302 L 181.45,-74 L 181.45,-64.7024
 L 181.792,-64.4804 L 182.192,-64.1563 L 182.556,-63.7921 L 182.88,-63.3919 L 183.161,-62.96 L 183.395,-62.5011
 L 183.579,-62.0204 L 183.712,-61.5229 L 183.793,-61.0143 L 183.82,-60.5 L 183.793,-59.9857 L 183.712,-59.4771
 L 183.579,-58.9796 L 183.395,-58.4989 L 183.161,-58.04 L 182.88,-57.6081 L 182.556,-57.2079 L 182.192,-56.8437
 L 181.792,-56.5196 L 181.36,-56.2392 L 180.901,-56.0054 L 180.42,-55.8208 L 179.923,-55.6875 L 179.414,-55.607
 L 178.9,-55.58 z
M 349.786,-55.607 L 349.277,-55.6875 L 348.78,-55.8208 L 348.299,-56.0054 L 347.84,-56.2392 L 347.408,-56.5196
 L 347.008,-56.8437 L 346.644,-57.2079 L 346.32,-57.6081 L 346.039,-58.04 L 345.805,-58.4989 L 345.621,-58.9796
 L 345.488,-59.4771 L 345.407,-59.9857 L 345.38,-60.5 L 345.407,-61.0143 L 345.488,-61.5229 L 345.621,-62.0204
 L 345.805,-62.5011 L 346.039,-62.96 L 346.32,-63.3919 L 346.644,-63.7921 L 347.008,-64.1563 L 347.408,-64.4804
 L 347.75,-64.7024 L 347.75,-74 L 347.806,-74.5302 L 347.97,-75.0372 L 348.237,-75.4988 L 348.594,-75.895
 L 349.025,-76.2084 L 349.512,-76.4252 L 350.033,-76.536 L 350.567,-76.536 L 351.088,-76.4252 L 351.575,-76.2084
 L 352.006,-75.895 L 352.363,-75.4988 L 352.63,-75.0372 L 352.794,-74.5302 L 352.85,-74 L 352.85,-64.7024
 L 353.192,-64.4804 L 353.592,-64.1563 L 353.956,-63.7921 L 354.28,-63.3919 L 354.561,-62.96 L 354.795,-62.5011
 L 354.979,-62.0204 L 355.112,-61.5229 L 355.193,-61.0143 L 355.22,-60.5 L 355.193,-59.9857 L 355.112,-59.4771
 L 354.979,-58.9796 L 354.795,-58.4989 L 354.561,-58.04 L 354.28,-57.6081 L 353.956,-57.2079 L 353.592,-56.8437
 L 353.192,-56.5196 L 352.76,-56.2392 L 352.301,-56.0054 L 351.82,-55.8208 L 351.323,-55.6875 L 350.814,-55.607
 L 350.3,-55.58 z
M 521.186,-55.607 L 520.677,-55.6875 L 520.18,-55.8208 L 519.699,-56.0054 L 519.24,-56.2392 L 518.808,-56.5196
 L 518.408,-56.8437 L 518.044,-57.2079 L 517.72,-57.6081 L 517.439,-58.04 L 517.205,-58.4989 L 517.021,-58.9796
 L 516.888,-59.4771 L 516.807,-59.9857 L 516.78,-60.5 L 516.807,-61.0143 L 516.888,-61.5229 L 517.021,-62.0204
 L 517.205,-62.5011 L 517.439,-62.96 L 517.72,-63.3919 L 518.044,-63.7921 L 518.408,-64.1563 L 518.808,-64.4804
 L 519.15,-64.7024 L 519.15,-74 L 519.206,-74.5302 L 519.37,-75.0372 L 519.637,-75.4988 L 519.994,-75.895
 L 520.425,-76.2084 L 520.912,-76.4252 L 521.433,-76.536 L 521.967,-76.536 L 522.488,-76.4252 L 522.975,-76.2084
 L 523.406,-75.895 L 523.763,-75.4988 L 524.03,-75.0372 L 524.194,-74.5302 L 524.25,-74 L 524.25,-64.7024
 L 524.592,-64.4804 L 524.992,-64.1563 L 525.356,-63.7921 L 525.68,-63.3919 L 525.961,-62.96 L 526.195,-62.5011
 L 526.379,-62.0204 L 526.512,-61.5229 L 526.593,-61.0143 L 526.62,-60.5 L 526.593,-59.9857 L 526.512,-59.4771
 L 526.379,-58.9796 L 526.195,-58.4989 L 525.961,-58.04 L 525.68,-57.6081 L 525.356,-57.2079 L 524.992,-56.8437
 L 524.592,-56.5196 L 524.16,-56.2392 L 523.701,-56.0054 L 523.22,-55.8208 L 522.723,-55.6875 L 522.214,-55.607
 L 521.7,-55.58 z
M 692.586,-55.607 L 692.077,-55.6875 L 691.58,-55.8208 L 691.099,-56.0054 L 690.64,-56.2392 L 690.208,-56.5196
 L 689.808,-56.8437 L 689.444,-57.2079 L 689.12,-57.6081 L 688.839,-58.04 L 688.605,-58.4989 L 688.421,-58.9796
 L 688.288,-59.4771 L 688.207,-59.9857 L 688.18,-60.5 L 688.207,-61.0143 L 688.288,-61.5229 L 688.421,-62.0204
 L 688.605,-62.5011 L 688.839,-62.96 L 689.12,-63.3919 L 689.444,-63.7921 L 689.808,-64.1563 L 690.208,-64.4804
 L 690.55,-64.7024 L 690.55,-74 L 690.606,-74.5302 L 690.77,-75.0372 L 691.037,-75.4988 L 691.394,-75.895
 L 691.825,-76.2084 L 692.312,-76.4252 L 692.833,-76.536 L 693.367,-76.536 L 693.888,-76.4252 L 694.375,-76.2084
 L 694.806,-75.895 L 695.163,-75.4988 L 695.43,-75.0372 L 695.594,-74.5302 L 695.65,-74 L 695.65,-64.7024
 L 695.992,-64.4804 L 696.392,-64.1563 L 696.756,-63.7921 L 697.08,-63.3919 L 697.361,-62.96 L 697.595,-62.5011
 L 697.779,-62.0204 L 697.912,-61.5229 L 697.993,-61.0143 L 698.02,-60.5 L 697.993,-59.9857 L 697.912,-59.4771
 L 697.779,-58.9796 L 697.595,-58.4989 L 697.361,-58.04 L 697.08,-57.6081 L 696.756,-57.2079 L 696.392,-56.8437
 L 695.992,-56.5196 L 695.56,-56.2392 L 695.101,-56.0054 L 694.62,-55.8208 L 694.123,-55.6875 L 693.614,-55.607
 L 693.1,-55.58 z
M 863.986,-55.607 L 863.477,-55.6875 L 862.98,-55.8208 L 862.499,-56.0054 L 862.04,-56.2392 L 861.608,-56.5196
 L 861.208,-56.8437 L 860.844,-57.2079 L 860.52,-57.6081 L 860.239,-58.04 L 860.005,-58.4989 L 859.821,-58.9796
 L 859.688,-59.4771 L 859.607,-59.9857 L 859.58,-60.5 L 859.607,-61.0143 L 859.688,-61.5229 L 859.821,-62.0204
 L 860.005,-62.5011 L 860.239,-62.96 L 860.52,-63.3919 L 860.844,-63.7921 L 861.208,-64.1563 L 861.608,-64.4804
 L 861.95,-64.7024 L 861.95,-74 L 862.006,-74.5302 L 862.17,-75.0372 L 862.437,-75.4988 L 862.794,-75.895
 L 863.225,-76.2084 L 863.712,-76.4252 L 864.233,-76.536 L 864.767,-76.536 L 865.288,-76.4252 L 865.775,-76.2084
 L 866.206,-75.895 L 866.563,-75.4988 L 866.83,-75.0372 L 866.994,-74.5302 L 867.05,-74 L 867.05,-64.7024
 L 867.392,-64.4804 L 867.792,-64.1563 L 868.156,-63.7921 L 868.48,-63.3919 L 868.761,-62.96 L 868.995,-62.5011
 L 869.179,-62.0204 L 869.312,-61.5229 L 869.393,-61.0143 L 869.42,-60.5 L 869.393,-59.9857 L 869.312,-59.4771
 L 869.179,-58.9796 L 868.995,-58.4989 L 868.761,-58.04 L 868.48,-57.6081 L 868.156,-57.2079 L 867.792,-56.8437
 L 867.392,-56.5196 L 866.96,-56.2392 L 866.501,-56.0054 L 866.02,-55.8208 L 865.523,-55.6875 L 865.014,-55.607
 L 864.5,-55.58 z
M 435.33,-47.8805 L 434.525,-48.1059 L 418.958,-54.2819 L 418.082,-54.7639 L 417.46,-55.3235 L 416.969,-56
 L 416.629,-56.7639 L 416.455,-57.5819 L 416.455,-58.4181 L 416.629,-59.2361 L 416.969,-60 L 417.46,-60.6765
 L 418.082,-61.2361 L 418.806,-61.6542 L 419.601,-61.9126 L 420.433,-62 L 451.567,-62 L 452.559,-61.875
 L 453.343,-61.5841 L 454.049,-61.1365 L 454.647,-60.5518 L 455.111,-59.8557 L 455.419,-59.0784 L 455.559,-58.2539
 L 455.525,-57.4184 L 455.317,-56.6083 L 454.946,-55.859 L 454.427,-55.2033 L 453.783,-54.6699 L 453.042,-54.2819
 L 437.475,-48.1059 L 436.992,-47.949 L 436.165,-47.8274 z
M 336.63,-21.1879 L 335.825,-21.4133 L 252.977,-54.2819 L 252.101,-54.7639 L 251.479,-55.3235 L 250.988,-56
 L 250.647,-56.7639 L 250.474,-57.5819 L 250.474,-58.4181 L 250.647,-59.2361 L 250.988,-60 L 251.479,-60.6765
 L 252.101,-61.2361 L 252.825,-61.6542 L 253.62,-61.9126 L 254.452,-62 L 337.3,-62 L 338.536,-61.8042
 L 339.3,-61.4641 L 339.977,-60.9726 L 340.536,-60.3511 L 340.954,-59.627 L 341.213,-58.8316 L 341.3,-58
 L 341.3,-25.1314 L 341.152,-24.053 L 340.844,-23.2757 L 340.38,-22.5795 L 339.782,-21.9949 L 339.076,-21.5473
 L 338.292,-21.2563 L 337.465,-21.1348 z
M 705.108,-21.2563 L 704.324,-21.5473 L 703.618,-21.9949 L 703.02,-22.5795 L 702.556,-23.2757 L 702.248,-24.053
 L 702.1,-25.1314 L 702.1,-58 L 702.187,-58.8316 L 702.446,-59.627 L 702.864,-60.3511 L 703.423,-60.9726
 L 704.1,-61.4641 L 704.864,-61.8042 L 706.1,-62 L 788.948,-62 L 789.78,-61.9126 L 790.575,-61.6542
 L 791.299,-61.2361 L 791.921,-60.6765 L 792.412,-60 L 792.753,-59.2361 L 792.926,-58.4181 L 792.926,-57.5819
 L 792.753,-56.7639 L 792.412,-56 L 791.921,-55.3235 L 791.299,-54.7639 L 790.423,-54.2819 L 707.575,-21.4133
 L 706.77,-21.1879 L 705.935,-21.1348 z
M 165.23,-21.1879 L 164.425,-21.4133 L 81.5766,-54.2819 L 80.7006,-54.7639 L 80.0791,-55.3235 L 79.5876,-56
 L 79.2475,-56.7639 L 79.0736,-57.5819 L 79.0736,-58.4181 L 79.2475,-59.2361 L 79.5876,-60 L 80.0791,-60.6765
 L 80.7006,-61.2361 L 81.4247,-61.6542 L 82.22,-61.9126 L 83.0517,-62 L 165.9,-62 L 167.136,-61.8042
 L 167.9,-61.4641 L 168.577,-60.9726 L 169.136,-60.3511 L 169.554,-59.627 L 169.813,-58.8316 L 169.9,-58
 L 169.9,-25.1314 L 169.752,-24.053 L 169.444,-23.2757 L 168.98,-22.5795 L 168.382,-21.9949 L 167.676,-21.5473
 L 166.892,-21.2563 L 166.065,-21.1348 z
M 533.708,-21.2563 L 532.924,-21.5473 L 532.218,-21.9949 L 531.62,-22.5795 L 531.156,-23.2757 L 530.848,-24.053
 L 530.7,-25.1314 L 530.7,-58 L 530.787,-58.8316 L 531.046,-59.627 L 531.464,-60.3511 L 532.023,-60.9726
 L 532.7,-61.4641 L 533.464,-61.8042 L 534.7,-62 L 617.548,-62 L 618.38,-61.9126 L 619.175,-61.6542
 L 619.899,-61.2361 L 620.521,-60.6765 L 621.012,-60 L 621.353,-59.2361 L 621.526,-58.4181 L 621.526,-57.5819
 L 621.353,-56.7639 L 621.012,-56 L 620.521,-55.3235 L 619.899,-54.7639 L 619.023,-54.2819 L 536.175,-21.4133
 L 535.37,-21.1879 L 534.535,-21.1348 z
M 362.882,-19.0035 L 362.064,-19.1773 L 361.3,-19.5175 L 360.623,-20.009 L 360.064,-20.6304 L 359.646,-21.3546
 L 359.387,-22.1499 L 359.3,-22.9816 L 359.3,-57.0184 L 359.448,-58.0968 L 359.756,-58.8741 L 360.22,-59.5703
 L 360.818,-60.155 L 361.524,-60.6025 L 362.308,-60.8935 L 363.135,-61.0151 L 363.97,-60.962 L 364.775,-60.7365
 L 407.672,-43.7181 L 408.679,-43.1365 L 409.277,-42.5518 L 409.74,-41.8557 L 410.048,-41.0784 L 410.188,-40.2539
 L 410.154,-39.4184 L 409.947,-38.6083 L 409.575,-37.859 L 409.056,-37.2033 L 408.412,-36.6699 L 407.672,-36.2819
 L 364.775,-19.2635 L 363.718,-19.0035 z
M 508.03,-19.038 L 507.225,-19.2635 L 464.328,-36.2819 L 463.321,-36.8635 L 462.723,-37.4482 L 462.26,-38.1443
 L 461.952,-38.9216 L 461.812,-39.7461 L 461.846,-40.5816 L 462.053,-41.3917 L 462.425,-42.141 L 462.944,-42.7967
 L 463.588,-43.3301 L 464.328,-43.7181 L 507.225,-60.7365 L 508.282,-60.9965 L 509.118,-60.9965 L 509.936,-60.8227
 L 510.7,-60.4825 L 511.377,-59.991 L 511.936,-59.3696 L 512.354,-58.6454 L 512.613,-57.8501 L 512.7,-57.0184
 L 512.7,-22.9816 L 512.552,-21.9032 L 512.243,-21.1259 L 511.78,-20.4297 L 511.182,-19.845 L 510.476,-19.3975
 L 509.692,-19.1065 L 508.865,-18.9849 z
M 191.9,-18 L 190.664,-18.1958 L 189.9,-18.5359 L 189.223,-19.0274 L 188.664,-19.6489 L 188.246,-20.373
 L 187.987,-21.1684 L 187.9,-22 L 187.9,-54.8686 L 188.048,-55.947 L 188.356,-56.7243 L 188.82,-57.4205
 L 189.418,-58.0051 L 190.124,-58.4527 L 190.908,-58.7437 L 191.735,-58.8652 L 192.57,-58.8121 L 193.375,-58.5867
 L 276.223,-25.7181 L 277.099,-25.2361 L 277.721,-24.6765 L 278.212,-24 L 278.553,-23.2361 L 278.726,-22.4181
 L 278.726,-21.5819 L 278.553,-20.7639 L 278.212,-20 L 277.721,-19.3235 L 277.099,-18.7639 L 276.375,-18.3458
 L 275.58,-18.0874 L 274.748,-18 z
M 597.252,-18 L 596.42,-18.0874 L 595.625,-18.3458 L 594.901,-18.7639 L 594.279,-19.3235 L 593.788,-20
 L 593.447,-20.7639 L 593.274,-21.5819 L 593.274,-22.4181 L 593.447,-23.2361 L 593.788,-24 L 594.279,-24.6765
 L 594.901,-25.2361 L 595.777,-25.7181 L 678.625,-58.5867 L 679.43,-58.8121 L 680.265,-58.8652 L 681.092,-58.7437
 L 681.876,-58.4527 L 682.582,-58.0051 L 683.18,-57.4205 L 683.644,-56.7243 L 683.952,-55.947 L 684.1,-54.8686
 L 684.1,-22 L 684.013,-21.1684 L 683.754,-20.373 L 683.336,-19.6489 L 682.777,-19.0274 L 682.1,-18.5359
 L 681.336,-18.1958 L 680.1,-18 z
M 22,-18 L 20.7639,-18.1958 L 20,-18.5359 L 19.3235,-19.0274 L 18.7639,-19.6489 L 18.3458,-20.373
 L 18.0874,-21.1684 L 18,-22 L 18,-54.2735 L 18.1481,-55.3519 L 18.4565,-56.1292 L 18.9197,-56.8254
 L 19.5176,-57.41 L 20.224,-57.8576 L 21.0079,-58.1486 L 21.8353,-58.2701 L 22.6698,-58.217 L 23.4751,-57.9916
 L 104.823,-25.7181 L 105.699,-25.2361 L 106.321,-24.6765 L 106.812,-24 L 107.153,-23.2361 L 107.326,-22.4181
 L 107.326,-21.5819 L 107.153,-20.7639 L 106.812,-20 L 106.321,-19.3235 L 105.699,-18.7639 L 104.975,-18.3458
 L 104.18,-18.0874 L 103.348,-18 z
M 768.652,-18 L 767.82,-18.0874 L 767.025,-18.3458 L 766.301,-18.7639 L 765.679,-19.3235 L 765.188,-20
 L 764.847,-20.7639 L 764.674,-21.5819 L 764.674,-22.4181 L 764.847,-23.2361 L 765.188,-24 L 765.679,-24.6765
 L 766.301,-25.2361 L 767.177,-25.7181 L 848.525,-57.9916 L 849.33,-58.217 L 850.165,-58.2701 L 850.992,-58.1486
 L 851.776,-57.8576 L 852.482,-57.41 L 853.08,-56.8254 L 853.544,-56.1292 L 853.852,-55.3519 L 854,-54.2735
 L 854,-22 L 853.913,-21.1684 L 853.654,-20.373 L 853.236,-19.6489 L 852.677,-19.0274 L 852,-18.5359
 L 851.236,-18.1958 L 850,-18 z
M 420.433,-18 L 419.441,-18.125 L 418.657,-18.4159 L 417.95,-18.8635 L 417.353,-19.4482 L 416.889,-20.1443
 L 416.581,-20.9216 L 416.441,-21.7461 L 416.475,-22.5816 L 416.683,-23.3917 L 417.054,-24.141 L 417.573,-24.7967
 L 418.217,-25.3301 L 418.958,-25.7181 L 434.525,-31.8941 L 435.008,-32.051 L 435.835,-32.1726 L 436.67,-32.1195
 L 437.475,-31.8941 L 453.042,-25.7181 L 453.918,-25.2361 L 454.54,-24.6765 L 455.031,-24 L 455.371,-23.2361
 L 455.545,-22.4181 L 455.545,-21.5819 L 455.371,-20.7639 L 455.031,-20 L 454.54,-19.3235 L 453.918,-18.7639
 L 453.194,-18.3458 L 452.399,-18.0874 L 451.567,-18 z
" stroke="black" fill="lightgray" stroke-width="0.5"/>
</svg>
