<?xml version="1.0" standalone="no"?>
<!DOCTYPE svg PUBLIC "-//W3C//DTD SVG 1.1//EN" "http://www.w3.org/Graphics/SVG/1.1/DTD/svg11.dtd">
<svg width="517mm" height="80mm" viewBox="0 -80 517 80" xmlns="http://www.w3.org/2000/svg" version="1.1">
<title>OpenSCAD Model</title>
<path d="
M 517,-80 L 0,-80 L 0,-0 L 4.95,-0 L 4.95,-6 L 5.00572,-6.53017
 L 5.17046,-7.03717 L 5.437,-7.49884 L 5.79372,-7.895 L 6.22499,-8.20836 L 6.71201,-8.42519 L 7.23344,-8.53603
 L 7.76654,-8.53603 L 8.28798,-8.42519 L 8.77499,-8.20836 L 9.20627,-7.895 L 9.56299,-7.49884 L 9.82953,-7.03717
 L 9.99426,-6.53017 L 10.05,-6 L 10.05,-0 L 130.45,-0 L 130.45,-6 L 130.506,-6.53017
 L 130.67,-7.03717 L 130.937,-7.49884 L 131.294,-7.895 L 131.725,-8.20836 L 132.212,-8.42519 L 132.733,-8.53603
 L 133.267,-8.53603 L 133.788,-8.42519 L 134.275,-8.20836 L 134.706,-7.895 L 135.063,-7.49884 L 135.33,-7.03717
 L 135.494,-6.53017 L 135.55,-6 L 135.55,-0 L 255.95,-0 L 255.95,-6 L 256.006,-6.53017
 L 256.17,-7.03717 L 256.437,-7.49884 L 256.794,-7.895 L 257.225,-8.20836 L 257.712,-8.42519 L 258.233,-8.53603
 L 258.767,-8.53603 L 259.288,-8.42519 L 259.775,-8.20836 L 260.206,-7.895 L 260.563,-7.49884 L 260.83,-7.03717
 L 260.994,-6.53017 L 261.05,-6 L 261.05,-0 L 381.45,-0 L 381.45,-6 L 381.506,-6.53017
 L 381.67,-7.03717 L 381.937,-7.49884 L 382.294,-7.895 L 382.725,-8.20836 L 383.212,-8.42519 L 383.733,-8.53603
 L 384.267,-8.53603 L 384.788,-8.42519 L 385.275,-8.20836 L 385.706,-7.895 L 386.063,-7.49884 L 386.33,-7.03717
 L 386.494,-6.53017 L 386.55,-6 L 386.55,-0 L 506.95,-0 L 506.95,-6 L 507.006,-6.53017
 L 507.17,-7.03717 L 507.437,-7.49884 L 507.794,-7.895 L 508.225,-8.20836 L 508.712,-8.42519 L 509.233,-8.53603
 L 509.767,-8.53603 L 510.288,-8.42519 L 510.775,-8.20836 L 511.206,-7.895 L 511.563,-7.49884 L 511.83,-7.03717
 L 511.994,-6.53017 L 512.05,-6 L 512.05,-0 L 517,-0 z
M 6.98573,-55.607 L 6.47708,-55.6875 L 5.97964,-55.8208 L 5.49887,-56.0054 L 5.04001,-56.2392 L 4.60811,-56.5196
 L 4.20789,-56.8437 L 3.84373,-57.2079 L 3.51964,-57.6081 L 3.23917,-58.04 L 3.00537,-58.4989 L 2.82082,-58.9796
 L 2.68752,-59.4771 L 2.60696,-59.9857 L 2.58,-60.5 L 2.60696,-61.0143 L 2.68752,-61.5229 L 2.82082,-62.0204
 L 3.00537,-62.5011 L 3.23917,-62.96 L 3.51964,-63.3919 L 3.84373,-63.7921 L 4.20789,-64.1563 L 4.60811,-64.4804
 L 4.95001,-64.7024 L 4.95001,-74 L 5.00574,-74.5302 L 5.17047,-75.0372 L 5.43701,-75.4988 L 5.79373,-75.895
 L 6.22501,-76.2084 L 6.71202,-76.4252 L 7.23346,-76.536 L 7.76654,-76.536 L 8.28798,-76.4252 L 8.77499,-76.2084
 L 9.20627,-75.895 L 9.56299,-75.4988 L 9.82953,-75.0372 L 9.99426,-74.5302 L 10.05,-74 L 10.05,-64.7024
 L 10.3919,-64.4804 L 10.7921,-64.1563 L 11.1563,-63.7921 L 11.4804,-63.3919 L 11.7608,-62.96 L 11.9946,-62.5011
 L 12.1792,-62.0204 L 12.3125,-61.5229 L 12.393,-61.0143 L 12.42,-60.5 L 12.393,-59.9857 L 12.3125,-59.4771
 L 12.1792,-58.9796 L 11.9946,-58.4989 L 11.7608,-58.04 L 11.4804,-57.6081 L 11.1563,-57.2079 L 10.7921,-56.8437
 L 10.3919,-56.5196 L 9.95999,-56.2392 L 9.50113,-56.0054 L 9.02036,-55.8208 L 8.52292,-55.6875 L 8.01427,-55.607
 L 7.5,-55.58 z
M 132.486,-55.607 L 131.977,-55.6875 L 131.48,-55.8208 L 130.999,-56.0054 L 130.54,-56.2392 L 130.108,-56.5196
 L 129.708,-56.8437 L 129.344,-57.2079 L 129.02,-57.6081 L 128.739,-58.04 L 128.505,-58.4989 L 128.321,-58.9796
 L 128.188,-59.4771 L 128.107,-59.9857 L 128.08,-60.5 L 128.107,-61.0143 L 128.188,-61.5229 L 128.321,-62.0204
 L 128.505,-62.5011 L 128.739,-62.96 L 129.02,-63.3919 L 129.344,-63.7921 L 129.708,-64.1563 L 130.108,-64.4804
 L 130.45,-64.7024 L 130.45,-74 L 130.506,-74.5302 L 130.67,-75.0372 L 130.937,-75.4988 L 131.294,-75.895
 L 131.725,-76.2084 L 132.212,-76.4252 L 132.733,-76.536 L 133.267,-76.536 L 133.788,-76.4252 L 134.275,-76.2084
 L 134.706,-75.895 L 135.063,-75.4988 L 135.33,-75.0372 L 135.494,-74.5302 L 135.55,-74 L 135.55,-64.7024
 L 135.892,-64.4804 L 136.292,-64.1563 L 136.656,-63.7921 L 136.98,-63.3919 L 137.261,-62.96 L 137.495,-62.5011
 L 137.679,-62.0204 L 137.812,-61.5229 L 137.893,-61.0143 L 137.92,-60.5 L 137.893,-59.9857 L 137.812,-59.4771
 L 137.679,-58.9796 L 137.495,-58.4989 L 137.261,-58.04 L 136.98,-57.6081 L 136.656,-57.2079 L 136.292,-56.8437
 L 135.892,-56.5196 L 135.46,-56.2392 L 135.001,-56.0054 L 134.52,-55.8208 L 134.023,-55.6875 L 133.514,-55.607
 L 133,-55.58 z
M 257.986,-55.607 L 257.477,-55.6875 L 256.98,-55.8208 L 256.499,-56.0054 L 256.04,-56.2392 L 255.608,-56.5196
 L 255.208,-56.8437 L 254.844,-57.2079 L 254.52,-57.6081 L 254.239,-58.04 L 254.005,-58.4989 L 253.821,-58.9796
 L 253.688,-59.4771 L 253.607,-59.9857 L 253.58,-60.5 L 253.607,-61.0143 L 253.688,-61.5229 L 253.821,-62.0204
 L 254.005,-62.5011 L 254.239,-62.96 L 254.52,-63.3919 L 254.844,-63.7921 L 255.208,-64.1563 L 255.608,-64.4804
 L 255.95,-64.7024 L 255.95,-74 L 256.006,-74.5302 L 256.17,-75.0372 L 256.437,-75.4988 L 256.794,-75.895
 L 257.225,-76.2084 L 257.712,-76.4252 L 258.233,-76.536 L 258.767,-76.536 L 259.288,-76.4252 L 259.775,-76.2084
 L 260.206,-75.895 L 260.563,-75.4988 L 260.83,-75.0372 L 260.994,-74.5302 L 261.05,-74 L 261.05,-64.7024
 L 261.392,-64.4804 L 261.792,-64.1563 L 262.156,-63.7921 L 262.48,-63.3919 L 262.761,-62.96 L 262.995,-62.5011
 L 263.179,-62.0204 L 263.312,-61.5229 L 263.393,-61.0143 L 263.42,-60.5 L 263.393,-59.9857 L 263.312,-59.4771
 L 263.179,-58.9796 L 262.995,-58.4989 L 262.761,-58.04 L 262.48,-57.6081 L 262.156,-57.2079 L 261.792,-56.8437
 L 261.392,-56.5196 L 260.96,-56.2392 L 260.501,-56.0054 L 260.02,-55.8208 L 259.523,-55.6875 L 259.014,-55.607
 L 258.5,-55.58 z
M 383.486,-55.607 L 382.977,-55.6875 L 382.48,-55.8208 L 381.999,-56.0054 L 381.54,-56.2392 L 381.108,-56.5196
 L 380.708,-56.8437 L 380.344,-57.2079 L 380.02,-57.6081 L 379.739,-58.04 L 379.505,-58.4989 L 379.321,-58.9796
 L 379.188,-59.4771 L 379.107,-59.9857 L 379.08,-60.5 L 379.107,-61.0143 L 379.188,-61.5229 L 379.321,-62.0204
 L 379.505,-62.5011 L 379.739,-62.96 L 380.02,-63.3919 L 380.344,-63.7921 L 380.708,-64.1563 L 381.108,-64.4804
 L 381.45,-64.7024 L 381.45,-74 L 381.506,-74.5302 L 381.67,-75.0372 L 381.937,-75.4988 L 382.294,-75.895
 L 382.725,-76.2084 L 383.212,-76.4252 L 383.733,-76.536 L 384.267,-76.536 L 384.788,-76.4252 L 385.275,-76.2084
 L 385.706,-75.895 L 386.063,-75.4988 L 386.33,-75.0372 L 386.494,-74.5302 L 386.55,-74 L 386.55,-64.7024
 L 386.892,-64.4804 L 387.292,-64.1563 L 387.656,-63.7921 L 387.98,-63.3919 L 388.261,-62.96 L 388.495,-62.5011
 L 388.679,-62.0204 L 388.812,-61.5229 L 388.893,-61.0143 L 388.92,-60.5 L 388.893,-59.9857 L 388.812,-59.4771
 L 388.679,-58.9796 L 388.495,-58.4989 L 388.261,-58.04 L 387.98,-57.6081 L 387.656,-57.2079 L 387.292,-56.8437
 L 386.892,-56.5196 L 386.46,-56.2392 L 386.001,-56.0054 L 385.52,-55.8208 L 385.023,-55.6875 L 384.514,-55.607
 L 384,-55.58 z
M 508.986,-55.607 L 508.477,-55.6875 L 507.98,-55.8208 L 507.499,-56.0054 L 507.04,-56.2392 L 506.608,-56.5196
 L 506.208,-56.8437 L 505.844,-57.2079 L 505.52,-57.6081 L 505.239,-58.04 L 505.005,-58.4989 L 504.821,-58.9796
 L 504.688,-59.4771 L 504.607,-59.9857 L 504.58,-60.5 L 504.607,-61.0143 L 504.688,-61.5229 L 504.821,-62.0204
 L 505.005,-62.5011 L 505.239,-62.96 L 505.52,-63.3919 L 505.844,-63.7921 L 506.208,-64.1563 L 506.608,-64.4804
 L 506.95,-64.7024 L 506.95,-74 L 507.006,-74.5302 L 507.17,-75.0372 L 507.437,-75.4988 L 507.794,-75.895
 L 508.225,-76.2084 L 508.712,-76.4252 L 509.233,-76.536 L 509.767,-76.536 L 510.288,-76.4252 L 510.775,-76.2084
 L 511.206,-75.895 L 511.563,-75.4988 L 511.83,-75.0372 L 511.994,-74.5302 L 512.05,-74 L 512.05,-64.7024
 L 512.392,-64.4804 L 512.792,-64.1563 L 513.156,-63.7921 L 513.48,-63.3919 L 513.761,-62.96 L 513.995,-62.5011
 L 514.179,-62.0204 L 514.312,-61.5229 L 514.393,-61.0143 L 514.42,-60.5 L 514.393,-59.9857 L 514.312,-59.4771
 L 514.179,-58.9796 L 513.995,-58.4989 L 513.761,-58.04 L 513.48,-57.6081 L 513.156,-57.2079 L 512.792,-56.8437
 L 512.392,-56.5196 L 511.96,-56.2392 L 511.501,-56.0054 L 511.02,-55.8208 L 510.523,-55.6875 L 510.014,-55.607
 L 509.5,-55.58 z
M 270.974,-23.8587 L 270.161,-24.0546 L 269.407,-24.4153 L 268.744,-24.9249 L 268.202,-25.5613 L 267.803,-26.2965
 L 267.566,-27.0985 L 267.5,-27.8241 L 267.5,-58 L 267.587,-58.8316 L 267.846,-59.627 L 268.264,-60.3511
 L 268.823,-60.9726 L 269.5,-61.4641 L 270.264,-61.8042 L 271.5,-62 L 327.192,-62 L 328.024,-61.9126
 L 328.819,-61.6542 L 329.544,-61.2361 L 330.165,-60.6765 L 330.656,-60 L 330.997,-59.2361 L 331.17,-58.4181
 L 331.17,-57.5819 L 330.997,-56.7639 L 330.656,-56 L 330.165,-55.3235 L 329.544,-54.7639 L 329.098,-54.4831
 L 273.406,-24.3071 L 272.633,-23.9878 L 271.81,-23.8361 z
M 244.367,-23.9878 L 243.594,-24.3071 L 187.902,-54.4831 L 187.456,-54.7639 L 186.835,-55.3235 L 186.344,-56
 L 186.003,-56.7639 L 185.83,-57.5819 L 185.83,-58.4181 L 186.003,-59.2361 L 186.344,-60 L 186.835,-60.6765
 L 187.456,-61.2361 L 188.181,-61.6542 L 188.976,-61.9126 L 189.808,-62 L 245.5,-62 L 246.736,-61.8042
 L 247.5,-61.4641 L 248.177,-60.9726 L 248.736,-60.3511 L 249.154,-59.627 L 249.413,-58.8316 L 249.5,-58
 L 249.5,-27.8241 L 249.434,-27.0985 L 249.197,-26.2965 L 248.798,-25.5613 L 248.256,-24.9249 L 247.593,-24.4153
 L 246.839,-24.0546 L 246.026,-23.8587 L 245.19,-23.8361 z
M 396.474,-23.8587 L 395.661,-24.0546 L 394.907,-24.4153 L 394.244,-24.9249 L 393.702,-25.5613 L 393.303,-26.2965
 L 393.066,-27.0985 L 393,-27.8241 L 393,-58 L 393.087,-58.8316 L 393.346,-59.627 L 393.764,-60.3511
 L 394.323,-60.9726 L 395,-61.4641 L 395.764,-61.8042 L 397,-62 L 452.692,-62 L 453.524,-61.9126
 L 454.319,-61.6542 L 455.044,-61.2361 L 455.665,-60.6765 L 456.156,-60 L 456.497,-59.2361 L 456.67,-58.4181
 L 456.67,-57.5819 L 456.497,-56.7639 L 456.156,-56 L 455.665,-55.3235 L 455.044,-54.7639 L 454.598,-54.4831
 L 398.906,-24.3071 L 398.133,-23.9878 L 397.31,-23.8361 z
M 118.867,-23.9878 L 118.094,-24.3071 L 62.4021,-54.4831 L 61.9565,-54.7639 L 61.3351,-55.3235 L 60.8435,-56
 L 60.5034,-56.7639 L 60.3295,-57.5819 L 60.3295,-58.4181 L 60.5034,-59.2361 L 60.8435,-60 L 61.3351,-60.6765
 L 61.9565,-61.2361 L 62.6807,-61.6542 L 63.476,-61.9126 L 64.3076,-62 L 120,-62 L 121.236,-61.8042
 L 122,-61.4641 L 122.677,-60.9726 L 123.236,-60.3511 L 123.654,-59.627 L 123.913,-58.8316 L 124,-58
 L 124,-27.8241 L 123.934,-27.0985 L 123.697,-26.2965 L 123.298,-25.5613 L 122.756,-24.9249 L 122.093,-24.4153
 L 121.339,-24.0546 L 120.526,-23.8587 L 119.69,-23.8361 z
M 315.308,-18 L 314.476,-18.0874 L 313.681,-18.3458 L 312.956,-18.7639 L 312.335,-19.3235 L 311.844,-20
 L 311.503,-20.7639 L 311.33,-21.5819 L 311.33,-22.4181 L 311.503,-23.2361 L 311.844,-24 L 312.335,-24.6765
 L 312.956,-25.2361 L 313.402,-25.5169 L 369.094,-55.6929 L 369.867,-56.0122 L 370.69,-56.1639 L 371.526,-56.1413
 L 372.339,-55.9453 L 373.093,-55.5847 L 373.756,-55.075 L 374.298,-54.4387 L 374.697,-53.7035 L 374.934,-52.9015
 L 375,-52.1759 L 375,-22 L 374.913,-21.1684 L 374.654,-20.373 L 374.236,-19.6489 L 373.677,-19.0274
 L 373,-18.5359 L 372.236,-18.1958 L 371,-18 z
M 146,-18 L 144.764,-18.1958 L 144,-18.5359 L 143.323,-19.0274 L 142.764,-19.6489 L 142.346,-20.373
 L 142.087,-21.1684 L 142,-22 L 142,-52.1759 L 142.066,-52.9015 L 142.303,-53.7035 L 142.702,-54.4387
 L 143.244,-55.075 L 143.907,-55.5847 L 144.661,-55.9453 L 145.474,-56.1413 L 146.31,-56.1639 L 147.133,-56.0122
 L 147.906,-55.6929 L 203.598,-25.5169 L 204.044,-25.2361 L 204.665,-24.6765 L 205.156,-24 L 205.497,-23.2361
 L 205.67,-22.4181 L 205.67,-21.5819 L 205.497,-20.7639 L 205.156,-20 L 204.665,-19.3235 L 204.044,-18.7639
 L 203.319,-18.3458 L 202.524,-18.0874 L 201.692,-18 z
M 22,-18 L 20.7639,-18.1958 L 20,-18.5359 L 19.3235,-19.0274 L 18.7639,-19.6489 L 18.3458,-20.373
 L 18.0874,-21.1684 L 18,-22 L 18,-51.3632 L 18.0663,-52.0887 L 18.3032,-52.8907 L 18.7015,-53.6259
 L 19.2441,-54.2623 L 19.907,-54.7719 L 20.6615,-55.1326 L 21.4745,-55.3285 L 22.3104,-55.3511 L 23.1327,-55.1994
 L 23.9056,-54.8801 L 78.0979,-25.5169 L 78.5435,-25.2361 L 79.1649,-24.6765 L 79.6565,-24 L 79.9966,-23.2361
 L 80.1705,-22.4181 L 80.1705,-21.5819 L 79.9966,-20.7639 L 79.6565,-20 L 79.1649,-19.3235 L 78.5435,-18.7639
 L 77.8193,-18.3458 L 77.024,-18.0874 L 76.1924,-18 z
M 440.808,-18 L 439.976,-18.0874 L 439.181,-18.3458 L 438.456,-18.7639 L 437.835,-19.3235 L 437.344,-20
 L 437.003,-20.7639 L 436.83,-21.5819 L 436.83,-22.4181 L 437.003,-23.2361 L 437.344,-24 L 437.835,-24.6765
 L 438.456,-25.2361 L 438.902,-25.5169 L 493.094,-54.8801 L 493.867,-55.1994 L 494.69,-55.3511 L 495.526,-55.3285
 L 496.339,-55.1326 L 497.093,-54.7719 L 497.756,-54.2623 L 498.298,-53.6259 L 498.697,-52.8907 L 498.934,-52.0887
 L 499,-51.3632 L 499,-22 L 498.913,-21.1684 L 498.654,-20.373 L 498.236,-19.6489 L 497.677,-19.0274
 L 497,-18.5359 L 496.236,-18.1958 L 495,-18 z
" stroke="black" fill="lightgray" stroke-width="0.5"/>
</svg>
