<?xml version="1.0" standalone="no"?>
<!DOCTYPE svg PUBLIC "-//W3C//DTD SVG 1.1//EN" "http://www.w3.org/Graphics/SVG/1.1/DTD/svg11.dtd">
<svg width="996mm" height="80mm" viewBox="0 -80 996 80" xmlns="http://www.w3.org/2000/svg" version="1.1">
<title>OpenSCAD Model</title>
<path d="
M 996,-80 L 0,-80 L 0,-0 L 4.95,-0 L 4.95,-6 L 5.00572,-6.53017
 L 5.17046,-7.03717 L 5.437,-7.49884 L 5.79372,-7.895 L 6.22499,-8.20836 L 6.71201,-8.42519 L 7.23344,-8.53603
 L 7.76654,-8.53603 L 8.28798,-8.42519 L 8.77499,-8.20836 L 9.20627,-7.895 L 9.56299,-7.49884 L 9.82953,-7.03717
 L 9.99426,-6.53017 L 10.05,-6 L 10.05,-0 L 201.15,-0 L 201.15,-6 L 201.206,-6.53017
 L 201.37,-7.03717 L 201.637,-7.49884 L 201.994,-7.895 L 202.425,-8.20836 L 202.912,-8.42519 L 203.433,-8.53603
 L 203.967,-8.53603 L 204.488,-8.42519 L 204.975,-8.20836 L 205.406,-7.895 L 205.763,-7.49884 L 206.03,-7.03717
 L 206.194,-6.53017 L 206.25,-6 L 206.25,-0 L 397.35,-0 L 397.35,-6 L 397.406,-6.53017
 L 397.57,-7.03717 L 397.837,-7.49884 L 398.194,-7.895 L 398.625,-8.20836 L 399.112,-8.42519 L 399.633,-8.53603
 L 400.167,-8.53603 L 400.688,-8.42519 L 401.175,-8.20836 L 401.606,-7.895 L 401.963,-7.49884 L 402.23,-7.03717
 L 402.394,-6.53017 L 402.45,-6 L 402.45,-0 L 593.55,-0 L 593.55,-6 L 593.606,-6.53017
 L 593.77,-7.03717 L 594.037,-7.49884 L 594.394,-7.895 L 594.825,-8.20836 L 595.312,-8.42519 L 595.833,-8.53603
 L 596.367,-8.53603 L 596.888,-8.42519 L 597.375,-8.20836 L 597.806,-7.895 L 598.163,-7.49884 L 598.43,-7.03717
 L 598.594,-6.53017 L 598.65,-6 L 598.65,-0 L 789.75,-0 L 789.75,-6 L 789.806,-6.53017
 L 789.97,-7.03717 L 790.237,-7.49884 L 790.594,-7.895 L 791.025,-8.20836 L 791.512,-8.42519 L 792.033,-8.53603
 L 792.567,-8.53603 L 793.088,-8.42519 L 793.575,-8.20836 L 794.006,-7.895 L 794.363,-7.49884 L 794.63,-7.03717
 L 794.794,-6.53017 L 794.85,-6 L 794.85,-0 L 985.95,-0 L 985.95,-6 L 986.006,-6.53017
 L 986.17,-7.03717 L 986.437,-7.49884 L 986.794,-7.895 L 987.225,-8.20836 L 987.712,-8.42519 L 988.233,-8.53603
 L 988.767,-8.53603 L 989.288,-8.42519 L 989.775,-8.20836 L 990.206,-7.895 L 990.563,-7.49884 L 990.83,-7.03717
 L 990.994,-6.53017 L 991.05,-6 L 991.05,-0 L 996,-0 z
M 6.98573,-55.607 L 6.47708,-55.6875 L 5.97964,-55.8208 L 5.49887,-56.0054 L 5.04001,-56.2392 L 4.60811,-56.5196
 L 4.20789,-56.8437 L 3.84373,-57.2079 L 3.51964,-57.6081 L 3.23917,-58.04 L 3.00537,-58.4989 L 2.82082,-58.9796
 L 2.68752,-59.4771 L 2.60696,-59.9857 L 2.58,-60.5 L 2.60696,-61.0143 L 2.68752,-61.5229 L 2.82082,-62.0204
 L 3.00537,-62.5011 L 3.23917,-62.96 L 3.51964,-63.3919 L 3.84373,-63.7921 L 4.20789,-64.1563 L 4.60811,-64.4804
 L 4.95001,-64.7024 L 4.95001,-74 L 5.00574,-74.5302 L 5.17047,-75.0372 L 5.43701,-75.4988 L 5.79373,-75.895
 L 6.22501,-76.2084 L 6.71202,-76.4252 L 7.23346,-76.536 L 7.76654,-76.536 L 8.28798,-76.4252 L 8.77499,-76.2084
 L 9.20627,-75.895 L 9.56299,-75.4988 L 9.82953,-75.0372 L 9.99426,-74.5302 L 10.05,-74 L 10.05,-64.7024
 L 10.3919,-64.4804 L 10.7921,-64.1563 L 11.1563,-63.7921 L 11.4804,-63.3919 L 11.7608,-62.96 L 11.9946,-62.5011
 L 12.1792,-62.0204 L 12.3125,-61.5229 L 12.393,-61.0143 L 12.42,-60.5 L 12.393,-59.9857 L 12.3125,-59.4771
 L 12.1792,-58.9796 L 11.9946,-58.4989 L 11.7608,-58.04 L 11.4804,-57.6081 L 11.1563,-57.2079 L 10.7921,-56.8437
 L 10.3919,-56.5196 L 9.95999,-56.2392 L 9.50113,-56.0054 L 9.02036,-55.8208 L 8.52292,-55.6875 L 8.01427,-55.607
 L 7.5,-55.58 z
M 203.186,-55.607 L 202.677,-55.6875 L 202.18,-55.8208 L 201.699,-56.0054 L 201.24,-56.2392 L 200.808,-56.5196
 L 200.408,-56.8437 L 200.044,-57.2079 L 199.72,-57.6081 L 199.439,-58.04 L 199.205,-58.4989 L 199.021,-58.9796
 L 198.888,-59.4771 L 198.807,-59.9857 L 198.78,-60.5 L 198.807,-61.0143 L 198.888,-61.5229 L 199.021,-62.0204
 L 199.205,-62.5011 L 199.439,-62.96 L 199.72,-63.3919 L 200.044,-63.7921 L 200.408,-64.1563 L 200.808,-64.4804
 L 201.15,-64.7024 L 201.15,-74 L 201.206,-74.5302 L 201.37,-75.0372 L 201.637,-75.4988 L 201.994,-75.895
 L 202.425,-76.2084 L 202.912,-76.4252 L 203.433,-76.536 L 203.967,-76.536 L 204.488,-76.4252 L 204.975,-76.2084
 L 205.406,-75.895 L 205.763,-75.4988 L 206.03,-75.0372 L 206.194,-74.5302 L 206.25,-74 L 206.25,-64.7024
 L 206.592,-64.4804 L 206.992,-64.1563 L 207.356,-63.7921 L 207.68,-63.3919 L 207.961,-62.96 L 208.195,-62.5011
 L 208.379,-62.0204 L 208.512,-61.5229 L 208.593,-61.0143 L 208.62,-60.5 L 208.593,-59.9857 L 208.512,-59.4771
 L 208.379,-58.9796 L 208.195,-58.4989 L 207.961,-58.04 L 207.68,-57.6081 L 207.356,-57.2079 L 206.992,-56.8437
 L 206.592,-56.5196 L 206.16,-56.2392 L 205.701,-56.0054 L 205.22,-55.8208 L 204.723,-55.6875 L 204.214,-55.607
 L 203.7,-55.58 z
M 399.386,-55.607 L 398.877,-55.6875 L 398.38,-55.8208 L 397.899,-56.0054 L 397.44,-56.2392 L 397.008,-56.5196
 L 396.608,-56.8437 L 396.244,-57.2079 L 395.92,-57.6081 L 395.639,-58.04 L 395.405,-58.4989 L 395.221,-58.9796
 L 395.088,-59.4771 L 395.007,-59.9857 L 394.98,-60.5 L 395.007,-61.0143 L 395.088,-61.5229 L 395.221,-62.0204
 L 395.405,-62.5011 L 395.639,-62.96 L 395.92,-63.3919 L 396.244,-63.7921 L 396.608,-64.1563 L 397.008,-64.4804
 L 397.35,-64.7024 L 397.35,-74 L 397.406,-74.5302 L 397.57,-75.0372 L 397.837,-75.4988 L 398.194,-75.895
 L 398.625,-76.2084 L 399.112,-76.4252 L 399.633,-76.536 L 400.167,-76.536 L 400.688,-76.4252 L 401.175,-76.2084
 L 401.606,-75.895 L 401.963,-75.4988 L 402.23,-75.0372 L 402.394,-74.5302 L 402.45,-74 L 402.45,-64.7024
 L 402.792,-64.4804 L 403.192,-64.1563 L 403.556,-63.7921 L 403.88,-63.3919 L 404.161,-62.96 L 404.395,-62.5011
 L 404.579,-62.0204 L 404.712,-61.5229 L 404.793,-61.0143 L 404.82,-60.5 L 404.793,-59.9857 L 404.712,-59.4771
 L 404.579,-58.9796 L 404.395,-58.4989 L 404.161,-58.04 L 403.88,-57.6081 L 403.556,-57.2079 L 403.192,-56.8437
 L 402.792,-56.5196 L 402.36,-56.2392 L 401.901,-56.0054 L 401.42,-55.8208 L 400.923,-55.6875 L 400.414,-55.607
 L 399.9,-55.58 z
M 595.586,-55.607 L 595.077,-55.6875 L 594.58,-55.8208 L 594.099,-56.0054 L 593.64,-56.2392 L 593.208,-56.5196
 L 592.808,-56.8437 L 592.444,-57.2079 L 592.12,-57.6081 L 591.839,-58.04 L 591.605,-58.4989 L 591.421,-58.9796
 L 591.288,-59.4771 L 591.207,-59.9857 L 591.18,-60.5 L 591.207,-61.0143 L 591.288,-61.5229 L 591.421,-62.0204
 L 591.605,-62.5011 L 591.839,-62.96 L 592.12,-63.3919 L 592.444,-63.7921 L 592.808,-64.1563 L 593.208,-64.4804
 L 593.55,-64.7024 L 593.55,-74 L 593.606,-74.5302 L 593.77,-75.0372 L 594.037,-75.4988 L 594.394,-75.895
 L 594.825,-76.2084 L 595.312,-76.4252 L 595.833,-76.536 L 596.367,-76.536 L 596.888,-76.4252 L 597.375,-76.2084
 L 597.806,-75.895 L 598.163,-75.4988 L 598.43,-75.0372 L 598.594,-74.5302 L 598.65,-74 L 598.65,-64.7024
 L 598.992,-64.4804 L 599.392,-64.1563 L 599.756,-63.7921 L 600.08,-63.3919 L 600.361,-62.96 L 600.595,-62.5011
 L 600.779,-62.0204 L 600.912,-61.5229 L 600.993,-61.0143 L 601.02,-60.5 L 600.993,-59.9857 L 600.912,-59.4771
 L 600.779,-58.9796 L 600.595,-58.4989 L 600.361,-58.04 L 600.08,-57.6081 L 599.756,-57.2079 L 599.392,-56.8437
 L 598.992,-56.5196 L 598.56,-56.2392 L 598.101,-56.0054 L 597.62,-55.8208 L 597.123,-55.6875 L 596.614,-55.607
 L 596.1,-55.58 z
M 791.786,-55.607 L 791.277,-55.6875 L 790.78,-55.8208 L 790.299,-56.0054 L 789.84,-56.2392 L 789.408,-56.5196
 L 789.008,-56.8437 L 788.644,-57.2079 L 788.32,-57.6081 L 788.039,-58.04 L 787.805,-58.4989 L 787.621,-58.9796
 L 787.488,-59.4771 L 787.407,-59.9857 L 787.38,-60.5 L 787.407,-61.0143 L 787.488,-61.5229 L 787.621,-62.0204
 L 787.805,-62.5011 L 788.039,-62.96 L 788.32,-63.3919 L 788.644,-63.7921 L 789.008,-64.1563 L 789.408,-64.4804
 L 789.75,-64.7024 L 789.75,-74 L 789.806,-74.5302 L 789.97,-75.0372 L 790.237,-75.4988 L 790.594,-75.895
 L 791.025,-76.2084 L 791.512,-76.4252 L 792.033,-76.536 L 792.567,-76.536 L 793.088,-76.4252 L 793.575,-76.2084
 L 794.006,-75.895 L 794.363,-75.4988 L 794.63,-75.0372 L 794.794,-74.5302 L 794.85,-74 L 794.85,-64.7024
 L 795.192,-64.4804 L 795.592,-64.1563 L 795.956,-63.7921 L 796.28,-63.3919 L 796.561,-62.96 L 796.795,-62.5011
 L 796.979,-62.0204 L 797.112,-61.5229 L 797.193,-61.0143 L 797.22,-60.5 L 797.193,-59.9857 L 797.112,-59.4771
 L 796.979,-58.9796 L 796.795,-58.4989 L 796.561,-58.04 L 796.28,-57.6081 L 795.956,-57.2079 L 795.592,-56.8437
 L 795.192,-56.5196 L 794.76,-56.2392 L 794.301,-56.0054 L 793.82,-55.8208 L 793.323,-55.6875 L 792.814,-55.607
 L 792.3,-55.58 z
M 987.986,-55.607 L 987.477,-55.6875 L 986.98,-55.8208 L 986.499,-56.0054 L 986.04,-56.2392 L 985.608,-56.5196
 L 985.208,-56.8437 L 984.844,-57.2079 L 984.52,-57.6081 L 984.239,-58.04 L 984.005,-58.4989 L 983.821,-58.9796
 L 983.688,-59.4771 L 983.607,-59.9857 L 983.58,-60.5 L 983.607,-61.0143 L 983.688,-61.5229 L 983.821,-62.0204
 L 984.005,-62.5011 L 984.239,-62.96 L 984.52,-63.3919 L 984.844,-63.7921 L 985.208,-64.1563 L 985.608,-64.4804
 L 985.95,-64.7024 L 985.95,-74 L 986.006,-74.5302 L 986.17,-75.0372 L 986.437,-75.4988 L 986.794,-75.895
 L 987.225,-76.2084 L 987.712,-76.4252 L 988.233,-76.536 L 988.767,-76.536 L 989.288,-76.4252 L 989.775,-76.2084
 L 990.206,-75.895 L 990.563,-75.4988 L 990.83,-75.0372 L 990.994,-74.5302 L 991.05,-74 L 991.05,-64.7024
 L 991.392,-64.4804 L 991.792,-64.1563 L 992.156,-63.7921 L 992.48,-63.3919 L 992.761,-62.96 L 992.995,-62.5011
 L 993.179,-62.0204 L 993.312,-61.5229 L 993.393,-61.0143 L 993.42,-60.5 L 993.393,-59.9857 L 993.312,-59.4771
 L 993.179,-58.9796 L 992.995,-58.4989 L 992.761,-58.04 L 992.48,-57.6081 L 992.156,-57.2079 L 991.792,-56.8437
 L 991.392,-56.5196 L 990.96,-56.2392 L 990.501,-56.0054 L 990.02,-55.8208 L 989.523,-55.6875 L 989.014,-55.607
 L 988.5,-55.58 z
M 497.505,-47.6705 L 496.69,-47.8603 L 478.339,-54.2206 L 477.298,-54.7639 L 476.676,-55.3235 L 476.185,-56
 L 475.844,-56.7639 L 475.671,-57.5819 L 475.671,-58.4181 L 475.844,-59.2361 L 476.185,-60 L 476.676,-60.6765
 L 477.298,-61.2361 L 478.022,-61.6542 L 478.817,-61.9126 L 479.649,-62 L 516.351,-62 L 517.513,-61.8276
 L 518.283,-61.5024 L 518.969,-61.0241 L 519.541,-60.4137 L 519.973,-59.6978 L 520.247,-58.9077 L 520.351,-58.0779
 L 520.279,-57.2447 L 520.036,-56.4445 L 519.633,-55.7123 L 519.085,-55.0801 L 518.418,-54.5755 L 517.661,-54.2206
 L 499.31,-47.8603 L 498.341,-47.6543 z
M 386.405,-20.2924 L 385.59,-20.4822 L 288.245,-54.2206 L 287.204,-54.7639 L 286.582,-55.3235 L 286.091,-56
 L 285.751,-56.7639 L 285.577,-57.5819 L 285.577,-58.4181 L 285.751,-59.2361 L 286.091,-60 L 286.582,-60.6765
 L 287.204,-61.2361 L 287.928,-61.6542 L 288.723,-61.9126 L 289.555,-62 L 386.9,-62 L 388.136,-61.8042
 L 388.9,-61.4641 L 389.577,-60.9726 L 390.136,-60.3511 L 390.554,-59.627 L 390.813,-58.8316 L 390.9,-58
 L 390.9,-24.2616 L 390.796,-23.354 L 390.522,-22.5639 L 390.09,-21.8479 L 389.518,-21.2375 L 388.832,-20.7593
 L 388.062,-20.4341 L 387.241,-20.2762 z
M 804.138,-20.4341 L 803.368,-20.7593 L 802.682,-21.2375 L 802.11,-21.8479 L 801.678,-22.5639 L 801.404,-23.354
 L 801.3,-24.2616 L 801.3,-58 L 801.387,-58.8316 L 801.646,-59.627 L 802.064,-60.3511 L 802.623,-60.9726
 L 803.3,-61.4641 L 804.064,-61.8042 L 805.3,-62 L 902.645,-62 L 903.477,-61.9126 L 904.272,-61.6542
 L 904.996,-61.2361 L 905.618,-60.6765 L 906.109,-60 L 906.449,-59.2361 L 906.623,-58.4181 L 906.623,-57.5819
 L 906.449,-56.7639 L 906.109,-56 L 905.618,-55.3235 L 904.996,-54.7639 L 903.955,-54.2206 L 806.61,-20.4822
 L 805.795,-20.2924 L 804.959,-20.2762 z
M 190.205,-20.2924 L 189.39,-20.4822 L 92.045,-54.2206 L 91.0038,-54.7639 L 90.3823,-55.3235 L 89.8908,-56
 L 89.5507,-56.7639 L 89.3768,-57.5819 L 89.3768,-58.4181 L 89.5507,-59.2361 L 89.8908,-60 L 90.3823,-60.6765
 L 91.0038,-61.2361 L 91.7279,-61.6542 L 92.5232,-61.9126 L 93.3549,-62 L 190.7,-62 L 191.936,-61.8042
 L 192.7,-61.4641 L 193.377,-60.9726 L 193.936,-60.3511 L 194.354,-59.627 L 194.613,-58.8316 L 194.7,-58
 L 194.7,-24.2616 L 194.596,-23.354 L 194.322,-22.5639 L 193.89,-21.8479 L 193.318,-21.2375 L 192.632,-20.7593
 L 191.862,-20.4341 L 191.041,-20.2762 z
M 607.938,-20.4341 L 607.168,-20.7593 L 606.482,-21.2375 L 605.91,-21.8479 L 605.478,-22.5639 L 605.204,-23.354
 L 605.1,-24.2616 L 605.1,-58 L 605.187,-58.8316 L 605.446,-59.627 L 605.864,-60.3511 L 606.423,-60.9726
 L 607.1,-61.4641 L 607.864,-61.8042 L 609.1,-62 L 706.445,-62 L 707.277,-61.9126 L 708.072,-61.6542
 L 708.796,-61.2361 L 709.418,-60.6765 L 709.909,-60 L 710.249,-59.2361 L 710.423,-58.4181 L 710.423,-57.5819
 L 710.249,-56.7639 L 709.909,-56 L 709.418,-55.3235 L 708.796,-54.7639 L 707.755,-54.2206 L 610.41,-20.4822
 L 609.595,-20.2924 L 608.759,-20.2762 z
M 412.482,-18.1673 L 411.664,-18.3411 L 410.9,-18.6812 L 410.223,-19.1728 L 409.664,-19.7942 L 409.246,-20.5184
 L 408.987,-21.3137 L 408.9,-22.1453 L 408.9,-57.8547 L 409.004,-58.7623 L 409.278,-59.5524 L 409.71,-60.2684
 L 410.282,-60.8788 L 410.968,-61.357 L 411.738,-61.6822 L 412.559,-61.8401 L 413.395,-61.8239 L 414.21,-61.6341
 L 465.726,-43.7794 L 466.348,-43.5024 L 467.034,-43.0241 L 467.606,-42.4137 L 468.038,-41.6978 L 468.312,-40.9077
 L 468.415,-40.0779 L 468.344,-39.2447 L 468.101,-38.4445 L 467.697,-37.7123 L 467.15,-37.0801 L 466.483,-36.5755
 L 465.726,-36.2206 L 414.21,-18.3659 L 413.318,-18.1673 z
M 582.605,-18.1761 L 581.79,-18.3659 L 530.274,-36.2206 L 529.652,-36.4976 L 528.966,-36.9759 L 528.394,-37.5863
 L 527.962,-38.3022 L 527.688,-39.0923 L 527.585,-39.9221 L 527.656,-40.7553 L 527.899,-41.5555 L 528.303,-42.2877
 L 528.85,-42.9199 L 529.517,-43.4245 L 530.274,-43.7794 L 581.79,-61.6341 L 582.682,-61.8328 L 583.518,-61.8328
 L 584.336,-61.6589 L 585.1,-61.3188 L 585.777,-60.8273 L 586.336,-60.2058 L 586.754,-59.4816 L 587.013,-58.6863
 L 587.1,-57.8547 L 587.1,-22.1453 L 586.996,-21.2377 L 586.722,-20.4475 L 586.29,-19.7316 L 585.718,-19.1212
 L 585.032,-18.6429 L 584.262,-18.3177 L 583.441,-18.1599 z
M 216.7,-18 L 215.464,-18.1958 L 214.7,-18.5359 L 214.023,-19.0274 L 213.464,-19.6489 L 213.046,-20.373
 L 212.787,-21.1684 L 212.7,-22 L 212.7,-55.7383 L 212.804,-56.646 L 213.078,-57.4361 L 213.51,-58.152
 L 214.082,-58.7625 L 214.768,-59.2407 L 215.538,-59.5659 L 216.359,-59.7238 L 217.195,-59.7075 L 218.01,-59.5178
 L 315.355,-25.7794 L 316.396,-25.2361 L 317.018,-24.6765 L 317.509,-24 L 317.849,-23.2361 L 318.023,-22.4181
 L 318.023,-21.5819 L 317.849,-20.7639 L 317.509,-20 L 317.018,-19.3235 L 316.396,-18.7639 L 315.672,-18.3458
 L 314.877,-18.0874 L 314.045,-18 z
M 681.955,-18 L 681.123,-18.0874 L 680.328,-18.3458 L 679.604,-18.7639 L 678.982,-19.3235 L 678.491,-20
 L 678.151,-20.7639 L 677.977,-21.5819 L 677.977,-22.4181 L 678.151,-23.2361 L 678.491,-24 L 678.982,-24.6765
 L 679.604,-25.2361 L 680.645,-25.7794 L 777.99,-59.5178 L 778.805,-59.7075 L 779.641,-59.7238 L 780.462,-59.5659
 L 781.232,-59.2407 L 781.918,-58.7625 L 782.49,-58.152 L 782.922,-57.4361 L 783.196,-56.646 L 783.3,-55.7383
 L 783.3,-22 L 783.213,-21.1684 L 782.954,-20.373 L 782.536,-19.6489 L 781.977,-19.0274 L 781.3,-18.5359
 L 780.536,-18.1958 L 779.3,-18 z
M 22,-18 L 20.7639,-18.1958 L 20,-18.5359 L 19.3235,-19.0274 L 18.7639,-19.6489 L 18.3458,-20.373
 L 18.0874,-21.1684 L 18,-22 L 18,-55.2185 L 18.1043,-56.1261 L 18.3782,-56.9163 L 18.8103,-57.6322
 L 19.3819,-58.2426 L 20.0678,-58.7209 L 20.8382,-59.0461 L 21.6594,-59.2039 L 22.4955,-59.1877 L 23.3099,-58.9979
 L 119.155,-25.7794 L 120.196,-25.2361 L 120.818,-24.6765 L 121.309,-24 L 121.649,-23.2361 L 121.823,-22.4181
 L 121.823,-21.5819 L 121.649,-20.7639 L 121.309,-20 L 120.818,-19.3235 L 120.196,-18.7639 L 119.472,-18.3458
 L 118.677,-18.0874 L 117.845,-18 z
M 878.155,-18 L 877.323,-18.0874 L 876.528,-18.3458 L 875.804,-18.7639 L 875.182,-19.3235 L 874.691,-20
 L 874.351,-20.7639 L 874.177,-21.5819 L 874.177,-22.4181 L 874.351,-23.2361 L 874.691,-24 L 875.182,-24.6765
 L 875.804,-25.2361 L 876.845,-25.7794 L 972.69,-58.9979 L 973.505,-59.1877 L 974.341,-59.2039 L 975.162,-59.0461
 L 975.932,-58.7209 L 976.618,-58.2426 L 977.19,-57.6322 L 977.622,-56.9163 L 977.896,-56.1261 L 978,-55.2185
 L 978,-22 L 977.913,-21.1684 L 977.654,-20.373 L 977.236,-19.6489 L 976.677,-19.0274 L 976,-18.5359
 L 975.236,-18.1958 L 974,-18 z
M 479.649,-18 L 478.487,-18.1724 L 477.717,-18.4976 L 477.031,-18.9759 L 476.459,-19.5863 L 476.027,-20.3022
 L 475.753,-21.0923 L 475.649,-21.9221 L 475.721,-22.7553 L 475.964,-23.5555 L 476.367,-24.2877 L 476.915,-24.9199
 L 477.582,-25.4245 L 478.339,-25.7794 L 496.69,-32.1397 L 497.659,-32.3457 L 498.495,-32.3295 L 499.31,-32.1397
 L 517.661,-25.7794 L 518.702,-25.2361 L 519.324,-24.6765 L 519.815,-24 L 520.156,-23.2361 L 520.329,-22.4181
 L 520.329,-21.5819 L 520.156,-20.7639 L 519.815,-20 L 519.324,-19.3235 L 518.702,-18.7639 L 517.978,-18.3458
 L 517.183,-18.0874 L 516.351,-18 z
" stroke="black" fill="lightgray" stroke-width="0.5"/>
</svg>
