<?xml version="1.0" standalone="no"?>
<!DOCTYPE svg PUBLIC "-//W3C//DTD SVG 1.1//EN" "http://www.w3.org/Graphics/SVG/1.1/DTD/svg11.dtd">
<svg width="913mm" height="80mm" viewBox="0 -80 913 80" xmlns="http://www.w3.org/2000/svg" version="1.1">
<title>OpenSCAD Model</title>
<path d="
M 913,-80 L 0,-80 L 0,-0 L 4.95,-0 L 4.95,-6 L 5.00572,-6.53017
 L 5.17046,-7.03717 L 5.437,-7.49884 L 5.79372,-7.895 L 6.22499,-8.20836 L 6.71201,-8.42519 L 7.23344,-8.53603
 L 7.76654,-8.53603 L 8.28798,-8.42519 L 8.77499,-8.20836 L 9.20627,-7.895 L 9.56299,-7.49884 L 9.82953,-7.03717
 L 9.99426,-6.53017 L 10.05,-6 L 10.05,-0 L 184.55,-0 L 184.55,-6 L 184.606,-6.53017
 L 184.77,-7.03717 L 185.037,-7.49884 L 185.394,-7.895 L 185.825,-8.20836 L 186.312,-8.42519 L 186.833,-8.53603
 L 187.367,-8.53603 L 187.888,-8.42519 L 188.375,-8.20836 L 188.806,-7.895 L 189.163,-7.49884 L 189.43,-7.03717
 L 189.594,-6.53017 L 189.65,-6 L 189.65,-0 L 364.15,-0 L 364.15,-6 L 364.206,-6.53017
 L 364.37,-7.03717 L 364.637,-7.49884 L 364.994,-7.895 L 365.425,-8.20836 L 365.912,-8.42519 L 366.433,-8.53603
 L 366.967,-8.53603 L 367.488,-8.42519 L 367.975,-8.20836 L 368.406,-7.895 L 368.763,-7.49884 L 369.03,-7.03717
 L 369.194,-6.53017 L 369.25,-6 L 369.25,-0 L 543.75,-0 L 543.75,-6 L 543.806,-6.53017
 L 543.97,-7.03717 L 544.237,-7.49884 L 544.594,-7.895 L 545.025,-8.20836 L 545.512,-8.42519 L 546.033,-8.53603
 L 546.567,-8.53603 L 547.088,-8.42519 L 547.575,-8.20836 L 548.006,-7.895 L 548.363,-7.49884 L 548.63,-7.03717
 L 548.794,-6.53017 L 548.85,-6 L 548.85,-0 L 723.35,-0 L 723.35,-6 L 723.406,-6.53017
 L 723.57,-7.03717 L 723.837,-7.49884 L 724.194,-7.895 L 724.625,-8.20836 L 725.112,-8.42519 L 725.633,-8.53603
 L 726.167,-8.53603 L 726.688,-8.42519 L 727.175,-8.20836 L 727.606,-7.895 L 727.963,-7.49884 L 728.23,-7.03717
 L 728.394,-6.53017 L 728.45,-6 L 728.45,-0 L 902.95,-0 L 902.95,-6 L 903.006,-6.53017
 L 903.17,-7.03717 L 903.437,-7.49884 L 903.794,-7.895 L 904.225,-8.20836 L 904.712,-8.42519 L 905.233,-8.53603
 L 905.767,-8.53603 L 906.288,-8.42519 L 906.775,-8.20836 L 907.206,-7.895 L 907.563,-7.49884 L 907.83,-7.03717
 L 907.994,-6.53017 L 908.05,-6 L 908.05,-0 L 913,-0 z
M 6.98573,-55.607 L 6.47708,-55.6875 L 5.97964,-55.8208 L 5.49887,-56.0054 L 5.04001,-56.2392 L 4.60811,-56.5196
 L 4.20789,-56.8437 L 3.84373,-57.2079 L 3.51964,-57.6081 L 3.23917,-58.04 L 3.00537,-58.4989 L 2.82082,-58.9796
 L 2.68752,-59.4771 L 2.60696,-59.9857 L 2.58,-60.5 L 2.60696,-61.0143 L 2.68752,-61.5229 L 2.82082,-62.0204
 L 3.00537,-62.5011 L 3.23917,-62.96 L 3.51964,-63.3919 L 3.84373,-63.7921 L 4.20789,-64.1563 L 4.60811,-64.4804
 L 4.95001,-64.7024 L 4.95001,-74 L 5.00574,-74.5302 L 5.17047,-75.0372 L 5.43701,-75.4988 L 5.79373,-75.895
 L 6.22501,-76.2084 L 6.71202,-76.4252 L 7.23346,-76.536 L 7.76654,-76.536 L 8.28798,-76.4252 L 8.77499,-76.2084
 L 9.20627,-75.895 L 9.56299,-75.4988 L 9.82953,-75.0372 L 9.99426,-74.5302 L 10.05,-74 L 10.05,-64.7024
 L 10.3919,-64.4804 L 10.7921,-64.1563 L 11.1563,-63.7921 L 11.4804,-63.3919 L 11.7608,-62.96 L 11.9946,-62.5011
 L 12.1792,-62.0204 L 12.3125,-61.5229 L 12.393,-61.0143 L 12.42,-60.5 L 12.393,-59.9857 L 12.3125,-59.4771
 L 12.1792,-58.9796 L 11.9946,-58.4989 L 11.7608,-58.04 L 11.4804,-57.6081 L 11.1563,-57.2079 L 10.7921,-56.8437
 L 10.3919,-56.5196 L 9.95999,-56.2392 L 9.50113,-56.0054 L 9.02036,-55.8208 L 8.52292,-55.6875 L 8.01427,-55.607
 L 7.5,-55.58 z
M 186.586,-55.607 L 186.077,-55.6875 L 185.58,-55.8208 L 185.099,-56.0054 L 184.64,-56.2392 L 184.208,-56.5196
 L 183.808,-56.8437 L 183.444,-57.2079 L 183.12,-57.6081 L 182.839,-58.04 L 182.605,-58.4989 L 182.421,-58.9796
 L 182.288,-59.4771 L 182.207,-59.9857 L 182.18,-60.5 L 182.207,-61.0143 L 182.288,-61.5229 L 182.421,-62.0204
 L 182.605,-62.5011 L 182.839,-62.96 L 183.12,-63.3919 L 183.444,-63.7921 L 183.808,-64.1563 L 184.208,-64.4804
 L 184.55,-64.7024 L 184.55,-74 L 184.606,-74.5302 L 184.77,-75.0372 L 185.037,-75.4988 L 185.394,-75.895
 L 185.825,-76.2084 L 186.312,-76.4252 L 186.833,-76.536 L 187.367,-76.536 L 187.888,-76.4252 L 188.375,-76.2084
 L 188.806,-75.895 L 189.163,-75.4988 L 189.43,-75.0372 L 189.594,-74.5302 L 189.65,-74 L 189.65,-64.7024
 L 189.992,-64.4804 L 190.392,-64.1563 L 190.756,-63.7921 L 191.08,-63.3919 L 191.361,-62.96 L 191.595,-62.5011
 L 191.779,-62.0204 L 191.912,-61.5229 L 191.993,-61.0143 L 192.02,-60.5 L 191.993,-59.9857 L 191.912,-59.4771
 L 191.779,-58.9796 L 191.595,-58.4989 L 191.361,-58.04 L 191.08,-57.6081 L 190.756,-57.2079 L 190.392,-56.8437
 L 189.992,-56.5196 L 189.56,-56.2392 L 189.101,-56.0054 L 188.62,-55.8208 L 188.123,-55.6875 L 187.614,-55.607
 L 187.1,-55.58 z
M 366.186,-55.607 L 365.677,-55.6875 L 365.18,-55.8208 L 364.699,-56.0054 L 364.24,-56.2392 L 363.808,-56.5196
 L 363.408,-56.8437 L 363.044,-57.2079 L 362.72,-57.6081 L 362.439,-58.04 L 362.205,-58.4989 L 362.021,-58.9796
 L 361.888,-59.4771 L 361.807,-59.9857 L 361.78,-60.5 L 361.807,-61.0143 L 361.888,-61.5229 L 362.021,-62.0204
 L 362.205,-62.5011 L 362.439,-62.96 L 362.72,-63.3919 L 363.044,-63.7921 L 363.408,-64.1563 L 363.808,-64.4804
 L 364.15,-64.7024 L 364.15,-74 L 364.206,-74.5302 L 364.37,-75.0372 L 364.637,-75.4988 L 364.994,-75.895
 L 365.425,-76.2084 L 365.912,-76.4252 L 366.433,-76.536 L 366.967,-76.536 L 367.488,-76.4252 L 367.975,-76.2084
 L 368.406,-75.895 L 368.763,-75.4988 L 369.03,-75.0372 L 369.194,-74.5302 L 369.25,-74 L 369.25,-64.7024
 L 369.592,-64.4804 L 369.992,-64.1563 L 370.356,-63.7921 L 370.68,-63.3919 L 370.961,-62.96 L 371.195,-62.5011
 L 371.379,-62.0204 L 371.512,-61.5229 L 371.593,-61.0143 L 371.62,-60.5 L 371.593,-59.9857 L 371.512,-59.4771
 L 371.379,-58.9796 L 371.195,-58.4989 L 370.961,-58.04 L 370.68,-57.6081 L 370.356,-57.2079 L 369.992,-56.8437
 L 369.592,-56.5196 L 369.16,-56.2392 L 368.701,-56.0054 L 368.22,-55.8208 L 367.723,-55.6875 L 367.214,-55.607
 L 366.7,-55.58 z
M 545.786,-55.607 L 545.277,-55.6875 L 544.78,-55.8208 L 544.299,-56.0054 L 543.84,-56.2392 L 543.408,-56.5196
 L 543.008,-56.8437 L 542.644,-57.2079 L 542.32,-57.6081 L 542.039,-58.04 L 541.805,-58.4989 L 541.621,-58.9796
 L 541.488,-59.4771 L 541.407,-59.9857 L 541.38,-60.5 L 541.407,-61.0143 L 541.488,-61.5229 L 541.621,-62.0204
 L 541.805,-62.5011 L 542.039,-62.96 L 542.32,-63.3919 L 542.644,-63.7921 L 543.008,-64.1563 L 543.408,-64.4804
 L 543.75,-64.7024 L 543.75,-74 L 543.806,-74.5302 L 543.97,-75.0372 L 544.237,-75.4988 L 544.594,-75.895
 L 545.025,-76.2084 L 545.512,-76.4252 L 546.033,-76.536 L 546.567,-76.536 L 547.088,-76.4252 L 547.575,-76.2084
 L 548.006,-75.895 L 548.363,-75.4988 L 548.63,-75.0372 L 548.794,-74.5302 L 548.85,-74 L 548.85,-64.7024
 L 549.192,-64.4804 L 549.592,-64.1563 L 549.956,-63.7921 L 550.28,-63.3919 L 550.561,-62.96 L 550.795,-62.5011
 L 550.979,-62.0204 L 551.112,-61.5229 L 551.193,-61.0143 L 551.22,-60.5 L 551.193,-59.9857 L 551.112,-59.4771
 L 550.979,-58.9796 L 550.795,-58.4989 L 550.561,-58.04 L 550.28,-57.6081 L 549.956,-57.2079 L 549.592,-56.8437
 L 549.192,-56.5196 L 548.76,-56.2392 L 548.301,-56.0054 L 547.82,-55.8208 L 547.323,-55.6875 L 546.814,-55.607
 L 546.3,-55.58 z
M 725.386,-55.607 L 724.877,-55.6875 L 724.38,-55.8208 L 723.899,-56.0054 L 723.44,-56.2392 L 723.008,-56.5196
 L 722.608,-56.8437 L 722.244,-57.2079 L 721.92,-57.6081 L 721.639,-58.04 L 721.405,-58.4989 L 721.221,-58.9796
 L 721.088,-59.4771 L 721.007,-59.9857 L 720.98,-60.5 L 721.007,-61.0143 L 721.088,-61.5229 L 721.221,-62.0204
 L 721.405,-62.5011 L 721.639,-62.96 L 721.92,-63.3919 L 722.244,-63.7921 L 722.608,-64.1563 L 723.008,-64.4804
 L 723.35,-64.7024 L 723.35,-74 L 723.406,-74.5302 L 723.57,-75.0372 L 723.837,-75.4988 L 724.194,-75.895
 L 724.625,-76.2084 L 725.112,-76.4252 L 725.633,-76.536 L 726.167,-76.536 L 726.688,-76.4252 L 727.175,-76.2084
 L 727.606,-75.895 L 727.963,-75.4988 L 728.23,-75.0372 L 728.394,-74.5302 L 728.45,-74 L 728.45,-64.7024
 L 728.792,-64.4804 L 729.192,-64.1563 L 729.556,-63.7921 L 729.88,-63.3919 L 730.161,-62.96 L 730.395,-62.5011
 L 730.579,-62.0204 L 730.712,-61.5229 L 730.793,-61.0143 L 730.82,-60.5 L 730.793,-59.9857 L 730.712,-59.4771
 L 730.579,-58.9796 L 730.395,-58.4989 L 730.161,-58.04 L 729.88,-57.6081 L 729.556,-57.2079 L 729.192,-56.8437
 L 728.792,-56.5196 L 728.36,-56.2392 L 727.901,-56.0054 L 727.42,-55.8208 L 726.923,-55.6875 L 726.414,-55.607
 L 725.9,-55.58 z
M 904.986,-55.607 L 904.477,-55.6875 L 903.98,-55.8208 L 903.499,-56.0054 L 903.04,-56.2392 L 902.608,-56.5196
 L 902.208,-56.8437 L 901.844,-57.2079 L 901.52,-57.6081 L 901.239,-58.04 L 901.005,-58.4989 L 900.821,-58.9796
 L 900.688,-59.4771 L 900.607,-59.9857 L 900.58,-60.5 L 900.607,-61.0143 L 900.688,-61.5229 L 900.821,-62.0204
 L 901.005,-62.5011 L 901.239,-62.96 L 901.52,-63.3919 L 901.844,-63.7921 L 902.208,-64.1563 L 902.608,-64.4804
 L 902.95,-64.7024 L 902.95,-74 L 903.006,-74.5302 L 903.17,-75.0372 L 903.437,-75.4988 L 903.794,-75.895
 L 904.225,-76.2084 L 904.712,-76.4252 L 905.233,-76.536 L 905.767,-76.536 L 906.288,-76.4252 L 906.775,-76.2084
 L 907.206,-75.895 L 907.563,-75.4988 L 907.83,-75.0372 L 907.994,-74.5302 L 908.05,-74 L 908.05,-64.7024
 L 908.392,-64.4804 L 908.792,-64.1563 L 909.156,-63.7921 L 909.48,-63.3919 L 909.761,-62.96 L 909.995,-62.5011
 L 910.179,-62.0204 L 910.312,-61.5229 L 910.393,-61.0143 L 910.42,-60.5 L 910.393,-59.9857 L 910.312,-59.4771
 L 910.179,-58.9796 L 909.995,-58.4989 L 909.761,-58.04 L 909.48,-57.6081 L 909.156,-57.2079 L 908.792,-56.8437
 L 908.392,-56.5196 L 907.96,-56.2392 L 907.501,-56.0054 L 907.02,-55.8208 L 906.523,-55.6875 L 906.014,-55.607
 L 905.5,-55.58 z
M 455.892,-47.795 L 455.084,-48.0078 L 438.573,-54.2592 L 437.638,-54.7639 L 437.016,-55.3235 L 436.525,-56
 L 436.185,-56.7639 L 436.011,-57.5819 L 436.011,-58.4181 L 436.185,-59.2361 L 436.525,-60 L 437.016,-60.6765
 L 437.638,-61.2361 L 438.362,-61.6542 L 439.157,-61.9126 L 439.989,-62 L 473.011,-62 L 474.064,-61.8589
 L 474.843,-61.5557 L 475.543,-61.097 L 476.131,-60.503 L 476.583,-59.7996 L 476.879,-59.0176 L 477.006,-58.1911
 L 476.959,-57.3562 L 476.739,-56.5494 L 476.356,-55.8061 L 475.826,-55.1586 L 475.174,-54.6354 L 474.427,-54.2592
 L 457.916,-48.0078 L 456.728,-47.7551 z
M 353.092,-20.8532 L 352.284,-21.0659 L 264.614,-54.2592 L 263.68,-54.7639 L 263.058,-55.3235 L 262.567,-56
 L 262.227,-56.7639 L 262.053,-57.5819 L 262.053,-58.4181 L 262.227,-59.2361 L 262.567,-60 L 263.058,-60.6765
 L 263.68,-61.2361 L 264.404,-61.6542 L 265.199,-61.9126 L 266.031,-62 L 353.7,-62 L 354.936,-61.8042
 L 355.7,-61.4641 L 356.377,-60.9726 L 356.936,-60.3511 L 357.354,-59.627 L 357.613,-58.8316 L 357.7,-58
 L 357.7,-24.8068 L 357.568,-23.7892 L 357.272,-23.0072 L 356.82,-22.3038 L 356.231,-21.7097 L 355.532,-21.2511
 L 354.753,-20.9479 L 353.928,-20.8133 z
M 737.847,-20.9479 L 737.068,-21.2511 L 736.369,-21.7097 L 735.78,-22.3038 L 735.328,-23.0072 L 735.032,-23.7892
 L 734.9,-24.8068 L 734.9,-58 L 734.987,-58.8316 L 735.246,-59.627 L 735.664,-60.3511 L 736.223,-60.9726
 L 736.9,-61.4641 L 737.664,-61.8042 L 738.9,-62 L 826.569,-62 L 827.401,-61.9126 L 828.196,-61.6542
 L 828.92,-61.2361 L 829.542,-60.6765 L 830.033,-60 L 830.373,-59.2361 L 830.547,-58.4181 L 830.547,-57.5819
 L 830.373,-56.7639 L 830.033,-56 L 829.542,-55.3235 L 828.92,-54.7639 L 827.986,-54.2592 L 740.316,-21.0659
 L 739.508,-20.8532 L 738.672,-20.8133 z
M 173.492,-20.8532 L 172.684,-21.0659 L 85.0145,-54.2592 L 84.0797,-54.7639 L 83.4582,-55.3235 L 82.9667,-56
 L 82.6266,-56.7639 L 82.4527,-57.5819 L 82.4527,-58.4181 L 82.6266,-59.2361 L 82.9667,-60 L 83.4582,-60.6765
 L 84.0797,-61.2361 L 84.8039,-61.6542 L 85.5992,-61.9126 L 86.4308,-62 L 174.1,-62 L 175.336,-61.8042
 L 176.1,-61.4641 L 176.777,-60.9726 L 177.336,-60.3511 L 177.754,-59.627 L 178.013,-58.8316 L 178.1,-58
 L 178.1,-24.8068 L 177.968,-23.7892 L 177.672,-23.0072 L 177.22,-22.3038 L 176.631,-21.7097 L 175.932,-21.2511
 L 175.153,-20.9479 L 174.328,-20.8133 z
M 558.247,-20.9479 L 557.468,-21.2511 L 556.769,-21.7097 L 556.18,-22.3038 L 555.728,-23.0072 L 555.432,-23.7892
 L 555.3,-24.8068 L 555.3,-58 L 555.387,-58.8316 L 555.646,-59.627 L 556.064,-60.3511 L 556.623,-60.9726
 L 557.3,-61.4641 L 558.064,-61.8042 L 559.3,-62 L 646.969,-62 L 647.801,-61.9126 L 648.596,-61.6542
 L 649.32,-61.2361 L 649.942,-60.6765 L 650.433,-60 L 650.773,-59.2361 L 650.947,-58.4181 L 650.947,-57.5819
 L 650.773,-56.7639 L 650.433,-56 L 649.942,-55.3235 L 649.32,-54.7639 L 648.386,-54.2592 L 560.716,-21.0659
 L 559.908,-20.8532 L 559.072,-20.8133 z
M 379.282,-18.6926 L 378.464,-18.8664 L 377.7,-19.2066 L 377.023,-19.6981 L 376.464,-20.3195 L 376.046,-21.0437
 L 375.787,-21.839 L 375.7,-22.6707 L 375.7,-57.3293 L 375.832,-58.3469 L 376.128,-59.129 L 376.58,-59.8324
 L 377.169,-60.4264 L 377.868,-60.885 L 378.647,-61.1882 L 379.472,-61.3228 L 380.308,-61.2829 L 381.116,-61.0702
 L 426.886,-43.7408 L 427.302,-43.5557 L 428.001,-43.097 L 428.59,-42.503 L 429.042,-41.7996 L 429.338,-41.0176
 L 429.465,-40.1911 L 429.418,-39.3562 L 429.198,-38.5494 L 428.814,-37.8061 L 428.285,-37.1586 L 427.633,-36.6354
 L 426.886,-36.2592 L 381.116,-18.9298 L 380.118,-18.6926 z
M 532.692,-18.7171 L 531.884,-18.9298 L 486.114,-36.2592 L 485.698,-36.4443 L 484.999,-36.903 L 484.41,-37.497
 L 483.958,-38.2004 L 483.662,-38.9824 L 483.535,-39.8089 L 483.582,-40.6438 L 483.802,-41.4506 L 484.185,-42.1939
 L 484.715,-42.8414 L 485.367,-43.3646 L 486.114,-43.7408 L 531.884,-61.0702 L 532.882,-61.3074 L 533.718,-61.3074
 L 534.536,-61.1336 L 535.3,-60.7934 L 535.977,-60.3019 L 536.536,-59.6805 L 536.954,-58.9563 L 537.213,-58.161
 L 537.3,-57.3293 L 537.3,-22.6707 L 537.168,-21.6531 L 536.872,-20.871 L 536.42,-20.1676 L 535.831,-19.5736
 L 535.132,-19.115 L 534.353,-18.8117 L 533.528,-18.6771 z
M 200.1,-18 L 198.864,-18.1958 L 198.1,-18.5359 L 197.423,-19.0274 L 196.864,-19.6489 L 196.446,-20.373
 L 196.187,-21.1684 L 196.1,-22 L 196.1,-55.1932 L 196.232,-56.2108 L 196.528,-56.9928 L 196.98,-57.6962
 L 197.568,-58.2903 L 198.268,-58.7489 L 199.047,-59.0521 L 199.872,-59.1867 L 200.708,-59.1468 L 201.516,-58.9341
 L 289.186,-25.7408 L 290.12,-25.2361 L 290.742,-24.6765 L 291.233,-24 L 291.573,-23.2361 L 291.747,-22.4181
 L 291.747,-21.5819 L 291.573,-20.7639 L 291.233,-20 L 290.742,-19.3235 L 290.12,-18.7639 L 289.396,-18.3458
 L 288.601,-18.0874 L 287.769,-18 z
M 625.231,-18 L 624.399,-18.0874 L 623.604,-18.3458 L 622.88,-18.7639 L 622.258,-19.3235 L 621.767,-20
 L 621.427,-20.7639 L 621.253,-21.5819 L 621.253,-22.4181 L 621.427,-23.2361 L 621.767,-24 L 622.258,-24.6765
 L 622.88,-25.2361 L 623.814,-25.7408 L 711.484,-58.9341 L 712.292,-59.1468 L 713.128,-59.1867 L 713.953,-59.0521
 L 714.732,-58.7489 L 715.431,-58.2903 L 716.02,-57.6962 L 716.472,-56.9928 L 716.768,-56.2108 L 716.9,-55.1932
 L 716.9,-22 L 716.813,-21.1684 L 716.554,-20.373 L 716.136,-19.6489 L 715.577,-19.0274 L 714.9,-18.5359
 L 714.136,-18.1958 L 712.9,-18 z
M 22,-18 L 20.7639,-18.1958 L 20,-18.5359 L 19.3235,-19.0274 L 18.7639,-19.6489 L 18.3458,-20.373
 L 18.0874,-21.1684 L 18,-22 L 18,-54.6253 L 18.1316,-55.6429 L 18.4277,-56.4249 L 18.8799,-57.1283
 L 19.4685,-57.7223 L 20.1677,-58.181 L 20.947,-58.4842 L 21.7724,-58.6188 L 22.6076,-58.5789 L 23.4164,-58.3661
 L 109.586,-25.7408 L 110.52,-25.2361 L 111.142,-24.6765 L 111.633,-24 L 111.973,-23.2361 L 112.147,-22.4181
 L 112.147,-21.5819 L 111.973,-20.7639 L 111.633,-20 L 111.142,-19.3235 L 110.52,-18.7639 L 109.796,-18.3458
 L 109.001,-18.0874 L 108.169,-18 z
M 804.831,-18 L 803.999,-18.0874 L 803.204,-18.3458 L 802.48,-18.7639 L 801.858,-19.3235 L 801.367,-20
 L 801.027,-20.7639 L 800.853,-21.5819 L 800.853,-22.4181 L 801.027,-23.2361 L 801.367,-24 L 801.858,-24.6765
 L 802.48,-25.2361 L 803.414,-25.7408 L 889.584,-58.3661 L 890.392,-58.5789 L 891.228,-58.6188 L 892.053,-58.4842
 L 892.832,-58.181 L 893.531,-57.7223 L 894.12,-57.1283 L 894.572,-56.4249 L 894.868,-55.6429 L 895,-54.6253
 L 895,-22 L 894.913,-21.1684 L 894.654,-20.373 L 894.236,-19.6489 L 893.677,-19.0274 L 893,-18.5359
 L 892.236,-18.1958 L 891,-18 z
M 439.989,-18 L 438.936,-18.1411 L 438.157,-18.4443 L 437.457,-18.903 L 436.869,-19.497 L 436.417,-20.2004
 L 436.121,-20.9824 L 435.994,-21.8089 L 436.041,-22.6438 L 436.261,-23.4506 L 436.644,-24.1939 L 437.174,-24.8414
 L 437.826,-25.3646 L 438.573,-25.7408 L 455.084,-31.9922 L 456.272,-32.2449 L 457.108,-32.205 L 457.916,-31.9922
 L 474.427,-25.7408 L 475.362,-25.2361 L 475.984,-24.6765 L 476.475,-24 L 476.815,-23.2361 L 476.989,-22.4181
 L 476.989,-21.5819 L 476.815,-20.7639 L 476.475,-20 L 475.984,-19.3235 L 475.362,-18.7639 L 474.638,-18.3458
 L 473.843,-18.0874 L 473.011,-18 z
" stroke="black" fill="lightgray" stroke-width="0.5"/>
</svg>
