<?xml version="1.0" standalone="no"?>
<!DOCTYPE svg PUBLIC "-//W3C//DTD SVG 1.1//EN" "http://www.w3.org/Graphics/SVG/1.1/DTD/svg11.dtd">
<svg width="492mm" height="80mm" viewBox="0 -80 492 80" xmlns="http://www.w3.org/2000/svg" version="1.1">
<title>OpenSCAD Model</title>
<path d="
M 492,-80 L 0,-80 L 0,-0 L 4.95,-0 L 4.95,-6 L 5.00572,-6.53017
 L 5.17046,-7.03717 L 5.437,-7.49884 L 5.79372,-7.895 L 6.22499,-8.20836 L 6.71201,-8.42519 L 7.23344,-8.53603
 L 7.76654,-8.53603 L 8.28798,-8.42519 L 8.77499,-8.20836 L 9.20627,-7.895 L 9.56299,-7.49884 L 9.82953,-7.03717
 L 9.99426,-6.53017 L 10.05,-6 L 10.05,-0 L 124.2,-0 L 124.2,-6 L 124.256,-6.53017
 L 124.42,-7.03717 L 124.687,-7.49884 L 125.044,-7.895 L 125.475,-8.20836 L 125.962,-8.42519 L 126.483,-8.53603
 L 127.017,-8.53603 L 127.538,-8.42519 L 128.025,-8.20836 L 128.456,-7.895 L 128.813,-7.49884 L 129.08,-7.03717
 L 129.244,-6.53017 L 129.3,-6 L 129.3,-0 L 243.45,-0 L 243.45,-6 L 243.506,-6.53017
 L 243.67,-7.03717 L 243.937,-7.49884 L 244.294,-7.895 L 244.725,-8.20836 L 245.212,-8.42519 L 245.733,-8.53603
 L 246.267,-8.53603 L 246.788,-8.42519 L 247.275,-8.20836 L 247.706,-7.895 L 248.063,-7.49884 L 248.33,-7.03717
 L 248.494,-6.53017 L 248.55,-6 L 248.55,-0 L 362.7,-0 L 362.7,-6 L 362.756,-6.53017
 L 362.92,-7.03717 L 363.187,-7.49884 L 363.544,-7.895 L 363.975,-8.20836 L 364.462,-8.42519 L 364.983,-8.53603
 L 365.517,-8.53603 L 366.038,-8.42519 L 366.525,-8.20836 L 366.956,-7.895 L 367.313,-7.49884 L 367.58,-7.03717
 L 367.744,-6.53017 L 367.8,-6 L 367.8,-0 L 481.95,-0 L 481.95,-6 L 482.006,-6.53017
 L 482.17,-7.03717 L 482.437,-7.49884 L 482.794,-7.895 L 483.225,-8.20836 L 483.712,-8.42519 L 484.233,-8.53603
 L 484.767,-8.53603 L 485.288,-8.42519 L 485.775,-8.20836 L 486.206,-7.895 L 486.563,-7.49884 L 486.83,-7.03717
 L 486.994,-6.53017 L 487.05,-6 L 487.05,-0 L 492,-0 z
M 6.98573,-55.607 L 6.47708,-55.6875 L 5.97964,-55.8208 L 5.49887,-56.0054 L 5.04001,-56.2392 L 4.60811,-56.5196
 L 4.20789,-56.8437 L 3.84373,-57.2079 L 3.51964,-57.6081 L 3.23917,-58.04 L 3.00537,-58.4989 L 2.82082,-58.9796
 L 2.68752,-59.4771 L 2.60696,-59.9857 L 2.58,-60.5 L 2.60696,-61.0143 L 2.68752,-61.5229 L 2.82082,-62.0204
 L 3.00537,-62.5011 L 3.23917,-62.96 L 3.51964,-63.3919 L 3.84373,-63.7921 L 4.20789,-64.1563 L 4.60811,-64.4804
 L 4.95001,-64.7024 L 4.95001,-74 L 5.00574,-74.5302 L 5.17047,-75.0372 L 5.43701,-75.4988 L 5.79373,-75.895
 L 6.22501,-76.2084 L 6.71202,-76.4252 L 7.23346,-76.536 L 7.76654,-76.536 L 8.28798,-76.4252 L 8.77499,-76.2084
 L 9.20627,-75.895 L 9.56299,-75.4988 L 9.82953,-75.0372 L 9.99426,-74.5302 L 10.05,-74 L 10.05,-64.7024
 L 10.3919,-64.4804 L 10.7921,-64.1563 L 11.1563,-63.7921 L 11.4804,-63.3919 L 11.7608,-62.96 L 11.9946,-62.5011
 L 12.1792,-62.0204 L 12.3125,-61.5229 L 12.393,-61.0143 L 12.42,-60.5 L 12.393,-59.9857 L 12.3125,-59.4771
 L 12.1792,-58.9796 L 11.9946,-58.4989 L 11.7608,-58.04 L 11.4804,-57.6081 L 11.1563,-57.2079 L 10.7921,-56.8437
 L 10.3919,-56.5196 L 9.95999,-56.2392 L 9.50113,-56.0054 L 9.02036,-55.8208 L 8.52292,-55.6875 L 8.01427,-55.607
 L 7.5,-55.58 z
M 126.236,-55.607 L 125.727,-55.6875 L 125.23,-55.8208 L 124.749,-56.0054 L 124.29,-56.2392 L 123.858,-56.5196
 L 123.458,-56.8437 L 123.094,-57.2079 L 122.77,-57.6081 L 122.489,-58.04 L 122.255,-58.4989 L 122.071,-58.9796
 L 121.938,-59.4771 L 121.857,-59.9857 L 121.83,-60.5 L 121.857,-61.0143 L 121.938,-61.5229 L 122.071,-62.0204
 L 122.255,-62.5011 L 122.489,-62.96 L 122.77,-63.3919 L 123.094,-63.7921 L 123.458,-64.1563 L 123.858,-64.4804
 L 124.2,-64.7024 L 124.2,-74 L 124.256,-74.5302 L 124.42,-75.0372 L 124.687,-75.4988 L 125.044,-75.895
 L 125.475,-76.2084 L 125.962,-76.4252 L 126.483,-76.536 L 127.017,-76.536 L 127.538,-76.4252 L 128.025,-76.2084
 L 128.456,-75.895 L 128.813,-75.4988 L 129.08,-75.0372 L 129.244,-74.5302 L 129.3,-74 L 129.3,-64.7024
 L 129.642,-64.4804 L 130.042,-64.1563 L 130.406,-63.7921 L 130.73,-63.3919 L 131.011,-62.96 L 131.245,-62.5011
 L 131.429,-62.0204 L 131.562,-61.5229 L 131.643,-61.0143 L 131.67,-60.5 L 131.643,-59.9857 L 131.562,-59.4771
 L 131.429,-58.9796 L 131.245,-58.4989 L 131.011,-58.04 L 130.73,-57.6081 L 130.406,-57.2079 L 130.042,-56.8437
 L 129.642,-56.5196 L 129.21,-56.2392 L 128.751,-56.0054 L 128.27,-55.8208 L 127.773,-55.6875 L 127.264,-55.607
 L 126.75,-55.58 z
M 245.486,-55.607 L 244.977,-55.6875 L 244.48,-55.8208 L 243.999,-56.0054 L 243.54,-56.2392 L 243.108,-56.5196
 L 242.708,-56.8437 L 242.344,-57.2079 L 242.02,-57.6081 L 241.739,-58.04 L 241.505,-58.4989 L 241.321,-58.9796
 L 241.188,-59.4771 L 241.107,-59.9857 L 241.08,-60.5 L 241.107,-61.0143 L 241.188,-61.5229 L 241.321,-62.0204
 L 241.505,-62.5011 L 241.739,-62.96 L 242.02,-63.3919 L 242.344,-63.7921 L 242.708,-64.1563 L 243.108,-64.4804
 L 243.45,-64.7024 L 243.45,-74 L 243.506,-74.5302 L 243.67,-75.0372 L 243.937,-75.4988 L 244.294,-75.895
 L 244.725,-76.2084 L 245.212,-76.4252 L 245.733,-76.536 L 246.267,-76.536 L 246.788,-76.4252 L 247.275,-76.2084
 L 247.706,-75.895 L 248.063,-75.4988 L 248.33,-75.0372 L 248.494,-74.5302 L 248.55,-74 L 248.55,-64.7024
 L 248.892,-64.4804 L 249.292,-64.1563 L 249.656,-63.7921 L 249.98,-63.3919 L 250.261,-62.96 L 250.495,-62.5011
 L 250.679,-62.0204 L 250.812,-61.5229 L 250.893,-61.0143 L 250.92,-60.5 L 250.893,-59.9857 L 250.812,-59.4771
 L 250.679,-58.9796 L 250.495,-58.4989 L 250.261,-58.04 L 249.98,-57.6081 L 249.656,-57.2079 L 249.292,-56.8437
 L 248.892,-56.5196 L 248.46,-56.2392 L 248.001,-56.0054 L 247.52,-55.8208 L 247.023,-55.6875 L 246.514,-55.607
 L 246,-55.58 z
M 364.736,-55.607 L 364.227,-55.6875 L 363.73,-55.8208 L 363.249,-56.0054 L 362.79,-56.2392 L 362.358,-56.5196
 L 361.958,-56.8437 L 361.594,-57.2079 L 361.27,-57.6081 L 360.989,-58.04 L 360.755,-58.4989 L 360.571,-58.9796
 L 360.438,-59.4771 L 360.357,-59.9857 L 360.33,-60.5 L 360.357,-61.0143 L 360.438,-61.5229 L 360.571,-62.0204
 L 360.755,-62.5011 L 360.989,-62.96 L 361.27,-63.3919 L 361.594,-63.7921 L 361.958,-64.1563 L 362.358,-64.4804
 L 362.7,-64.7024 L 362.7,-74 L 362.756,-74.5302 L 362.92,-75.0372 L 363.187,-75.4988 L 363.544,-75.895
 L 363.975,-76.2084 L 364.462,-76.4252 L 364.983,-76.536 L 365.517,-76.536 L 366.038,-76.4252 L 366.525,-76.2084
 L 366.956,-75.895 L 367.313,-75.4988 L 367.58,-75.0372 L 367.744,-74.5302 L 367.8,-74 L 367.8,-64.7024
 L 368.142,-64.4804 L 368.542,-64.1563 L 368.906,-63.7921 L 369.23,-63.3919 L 369.511,-62.96 L 369.745,-62.5011
 L 369.929,-62.0204 L 370.062,-61.5229 L 370.143,-61.0143 L 370.17,-60.5 L 370.143,-59.9857 L 370.062,-59.4771
 L 369.929,-58.9796 L 369.745,-58.4989 L 369.511,-58.04 L 369.23,-57.6081 L 368.906,-57.2079 L 368.542,-56.8437
 L 368.142,-56.5196 L 367.71,-56.2392 L 367.251,-56.0054 L 366.77,-55.8208 L 366.273,-55.6875 L 365.764,-55.607
 L 365.25,-55.58 z
M 483.986,-55.607 L 483.477,-55.6875 L 482.98,-55.8208 L 482.499,-56.0054 L 482.04,-56.2392 L 481.608,-56.5196
 L 481.208,-56.8437 L 480.844,-57.2079 L 480.52,-57.6081 L 480.239,-58.04 L 480.005,-58.4989 L 479.821,-58.9796
 L 479.688,-59.4771 L 479.607,-59.9857 L 479.58,-60.5 L 479.607,-61.0143 L 479.688,-61.5229 L 479.821,-62.0204
 L 480.005,-62.5011 L 480.239,-62.96 L 480.52,-63.3919 L 480.844,-63.7921 L 481.208,-64.1563 L 481.608,-64.4804
 L 481.95,-64.7024 L 481.95,-74 L 482.006,-74.5302 L 482.17,-75.0372 L 482.437,-75.4988 L 482.794,-75.895
 L 483.225,-76.2084 L 483.712,-76.4252 L 484.233,-76.536 L 484.767,-76.536 L 485.288,-76.4252 L 485.775,-76.2084
 L 486.206,-75.895 L 486.563,-75.4988 L 486.83,-75.0372 L 486.994,-74.5302 L 487.05,-74 L 487.05,-64.7024
 L 487.392,-64.4804 L 487.792,-64.1563 L 488.156,-63.7921 L 488.48,-63.3919 L 488.761,-62.96 L 488.995,-62.5011
 L 489.179,-62.0204 L 489.312,-61.5229 L 489.393,-61.0143 L 489.42,-60.5 L 489.393,-59.9857 L 489.312,-59.4771
 L 489.179,-58.9796 L 488.995,-58.4989 L 488.761,-58.04 L 488.48,-57.6081 L 488.156,-57.2079 L 487.792,-56.8437
 L 487.392,-56.5196 L 486.96,-56.2392 L 486.501,-56.0054 L 486.02,-55.8208 L 485.523,-55.6875 L 485.014,-55.607
 L 484.5,-55.58 z
M 258.561,-24.402 L 257.744,-24.5803 L 256.981,-24.9245 L 256.308,-25.4196 L 255.751,-26.044 L 255.337,-26.7705
 L 255.083,-27.5671 L 255,-28.3778 L 255,-58 L 255.087,-58.8316 L 255.346,-59.627 L 255.764,-60.3511
 L 256.323,-60.9726 L 257,-61.4641 L 257.764,-61.8042 L 259,-62 L 310.948,-62 L 311.779,-61.9126
 L 312.575,-61.6542 L 313.299,-61.2361 L 313.92,-60.6765 L 314.412,-60 L 314.752,-59.2361 L 314.926,-58.4181
 L 314.926,-57.5819 L 314.752,-56.7639 L 314.412,-56 L 313.92,-55.3235 L 313.299,-54.7639 L 312.929,-54.5252
 L 260.981,-24.903 L 260.216,-24.567 L 259.397,-24.3975 z
M 231.784,-24.567 L 231.019,-24.903 L 179.071,-54.5252 L 178.701,-54.7639 L 178.08,-55.3235 L 177.588,-56
 L 177.248,-56.7639 L 177.074,-57.5819 L 177.074,-58.4181 L 177.248,-59.2361 L 177.588,-60 L 178.08,-60.6765
 L 178.701,-61.2361 L 179.425,-61.6542 L 180.221,-61.9126 L 181.052,-62 L 233,-62 L 234.236,-61.8042
 L 235,-61.4641 L 235.677,-60.9726 L 236.236,-60.3511 L 236.654,-59.627 L 236.913,-58.8316 L 237,-58
 L 237,-28.3778 L 236.917,-27.5671 L 236.663,-26.7705 L 236.249,-26.044 L 235.692,-25.4196 L 235.019,-24.9245
 L 234.256,-24.5803 L 233.439,-24.402 L 232.603,-24.3975 z
M 377.811,-24.402 L 376.994,-24.5803 L 376.231,-24.9245 L 375.558,-25.4196 L 375.001,-26.044 L 374.587,-26.7705
 L 374.333,-27.5671 L 374.25,-28.3778 L 374.25,-58 L 374.337,-58.8316 L 374.596,-59.627 L 375.014,-60.3511
 L 375.573,-60.9726 L 376.25,-61.4641 L 377.014,-61.8042 L 378.25,-62 L 430.198,-62 L 431.029,-61.9126
 L 431.825,-61.6542 L 432.549,-61.2361 L 433.17,-60.6765 L 433.662,-60 L 434.002,-59.2361 L 434.176,-58.4181
 L 434.176,-57.5819 L 434.002,-56.7639 L 433.662,-56 L 433.17,-55.3235 L 432.549,-54.7639 L 432.179,-54.5252
 L 380.231,-24.903 L 379.466,-24.567 L 378.647,-24.3975 z
M 112.534,-24.567 L 111.769,-24.903 L 59.8208,-54.5252 L 59.4511,-54.7639 L 58.8297,-55.3235 L 58.3382,-56
 L 57.998,-56.7639 L 57.8242,-57.5819 L 57.8242,-58.4181 L 57.998,-59.2361 L 58.3382,-60 L 58.8297,-60.6765
 L 59.4511,-61.2361 L 60.1753,-61.6542 L 60.9706,-61.9126 L 61.8023,-62 L 113.75,-62 L 114.986,-61.8042
 L 115.75,-61.4641 L 116.427,-60.9726 L 116.986,-60.3511 L 117.404,-59.627 L 117.663,-58.8316 L 117.75,-58
 L 117.75,-28.3778 L 117.667,-27.5671 L 117.413,-26.7705 L 116.999,-26.044 L 116.442,-25.4196 L 115.769,-24.9245
 L 115.006,-24.5803 L 114.189,-24.402 L 113.353,-24.3975 z
M 300.302,-18 L 299.471,-18.0874 L 298.675,-18.3458 L 297.951,-18.7639 L 297.33,-19.3235 L 296.838,-20
 L 296.498,-20.7639 L 296.324,-21.5819 L 296.324,-22.4181 L 296.498,-23.2361 L 296.838,-24 L 297.33,-24.6765
 L 297.951,-25.2361 L 298.321,-25.4748 L 350.269,-55.0969 L 351.034,-55.433 L 351.853,-55.6024 L 352.689,-55.598
 L 353.506,-55.4197 L 354.269,-55.0755 L 354.942,-54.5804 L 355.499,-53.9559 L 355.913,-53.2295 L 356.167,-52.4329
 L 356.25,-51.6222 L 356.25,-22 L 356.163,-21.1684 L 355.904,-20.373 L 355.486,-19.6489 L 354.927,-19.0274
 L 354.25,-18.5359 L 353.486,-18.1958 L 352.25,-18 z
M 139.75,-18 L 138.514,-18.1958 L 137.75,-18.5359 L 137.073,-19.0274 L 136.514,-19.6489 L 136.096,-20.373
 L 135.837,-21.1684 L 135.75,-22 L 135.75,-51.6222 L 135.833,-52.4329 L 136.087,-53.2295 L 136.501,-53.9559
 L 137.058,-54.5804 L 137.731,-55.0755 L 138.494,-55.4197 L 139.311,-55.598 L 140.147,-55.6024 L 140.966,-55.433
 L 141.731,-55.0969 L 193.679,-25.4748 L 194.049,-25.2361 L 194.67,-24.6765 L 195.162,-24 L 195.502,-23.2361
 L 195.676,-22.4181 L 195.676,-21.5819 L 195.502,-20.7639 L 195.162,-20 L 194.67,-19.3235 L 194.049,-18.7639
 L 193.325,-18.3458 L 192.529,-18.0874 L 191.698,-18 z
M 22,-18 L 20.7639,-18.1958 L 20,-18.5359 L 19.3235,-19.0274 L 18.7639,-19.6489 L 18.3458,-20.373
 L 18.0874,-21.1684 L 18,-22 L 18,-50.7668 L 18.083,-51.5775 L 18.3372,-52.3742 L 18.7514,-53.1006
 L 19.3076,-53.725 L 19.9815,-54.2202 L 20.7436,-54.5644 L 21.5606,-54.7426 L 22.3968,-54.7471 L 23.2157,-54.5776
 L 23.9814,-54.2416 L 74.4291,-25.4748 L 74.7989,-25.2361 L 75.4203,-24.6765 L 75.9118,-24 L 76.252,-23.2361
 L 76.4258,-22.4181 L 76.4258,-21.5819 L 76.252,-20.7639 L 75.9118,-20 L 75.4203,-19.3235 L 74.7989,-18.7639
 L 74.0747,-18.3458 L 73.2794,-18.0874 L 72.4477,-18 z
M 419.552,-18 L 418.721,-18.0874 L 417.925,-18.3458 L 417.201,-18.7639 L 416.58,-19.3235 L 416.088,-20
 L 415.748,-20.7639 L 415.574,-21.5819 L 415.574,-22.4181 L 415.748,-23.2361 L 416.088,-24 L 416.58,-24.6765
 L 417.201,-25.2361 L 417.571,-25.4748 L 468.019,-54.2416 L 468.784,-54.5776 L 469.603,-54.7471 L 470.439,-54.7426
 L 471.256,-54.5644 L 472.019,-54.2202 L 472.692,-53.725 L 473.249,-53.1006 L 473.663,-52.3742 L 473.917,-51.5775
 L 474,-50.7668 L 474,-22 L 473.913,-21.1684 L 473.654,-20.373 L 473.236,-19.6489 L 472.677,-19.0274
 L 472,-18.5359 L 471.236,-18.1958 L 470,-18 z
" stroke="black" fill="lightgray" stroke-width="0.5"/>
</svg>
