<?xml version="1.0" standalone="no"?>
<!DOCTYPE svg PUBLIC "-//W3C//DTD SVG 1.1//EN" "http://www.w3.org/Graphics/SVG/1.1/DTD/svg11.dtd">
<svg width="666mm" height="80mm" viewBox="0 -80 666 80" xmlns="http://www.w3.org/2000/svg" version="1.1">
<title>OpenSCAD Model</title>
<path d="
M 666,-80 L 0,-80 L 0,-0 L 4.95,-0 L 4.95,-6 L 5.00572,-6.53017
 L 5.17046,-7.03717 L 5.437,-7.49884 L 5.79372,-7.895 L 6.22499,-8.20836 L 6.71201,-8.42519 L 7.23344,-8.53603
 L 7.76654,-8.53603 L 8.28798,-8.42519 L 8.77499,-8.20836 L 9.20627,-7.895 L 9.56299,-7.49884 L 9.82953,-7.03717
 L 9.99426,-6.53017 L 10.05,-6 L 10.05,-0 L 135.15,-0 L 135.15,-6 L 135.206,-6.53017
 L 135.37,-7.03717 L 135.637,-7.49884 L 135.994,-7.895 L 136.425,-8.20836 L 136.912,-8.42519 L 137.433,-8.53603
 L 137.967,-8.53603 L 138.488,-8.42519 L 138.975,-8.20836 L 139.406,-7.895 L 139.763,-7.49884 L 140.03,-7.03717
 L 140.194,-6.53017 L 140.25,-6 L 140.25,-0 L 265.35,-0 L 265.35,-6 L 265.406,-6.53017
 L 265.57,-7.03717 L 265.837,-7.49884 L 266.194,-7.895 L 266.625,-8.20836 L 267.112,-8.42519 L 267.633,-8.53603
 L 268.167,-8.53603 L 268.688,-8.42519 L 269.175,-8.20836 L 269.606,-7.895 L 269.963,-7.49884 L 270.23,-7.03717
 L 270.394,-6.53017 L 270.45,-6 L 270.45,-0 L 395.55,-0 L 395.55,-6 L 395.606,-6.53017
 L 395.77,-7.03717 L 396.037,-7.49884 L 396.394,-7.895 L 396.825,-8.20836 L 397.312,-8.42519 L 397.833,-8.53603
 L 398.367,-8.53603 L 398.888,-8.42519 L 399.375,-8.20836 L 399.806,-7.895 L 400.163,-7.49884 L 400.43,-7.03717
 L 400.594,-6.53017 L 400.65,-6 L 400.65,-0 L 525.75,-0 L 525.75,-6 L 525.806,-6.53017
 L 525.97,-7.03717 L 526.237,-7.49884 L 526.594,-7.895 L 527.025,-8.20836 L 527.512,-8.42519 L 528.033,-8.53603
 L 528.567,-8.53603 L 529.088,-8.42519 L 529.575,-8.20836 L 530.006,-7.895 L 530.363,-7.49884 L 530.63,-7.03717
 L 530.794,-6.53017 L 530.85,-6 L 530.85,-0 L 655.95,-0 L 655.95,-6 L 656.006,-6.53017
 L 656.17,-7.03717 L 656.437,-7.49884 L 656.794,-7.895 L 657.225,-8.20836 L 657.712,-8.42519 L 658.233,-8.53603
 L 658.767,-8.53603 L 659.288,-8.42519 L 659.775,-8.20836 L 660.206,-7.895 L 660.563,-7.49884 L 660.83,-7.03717
 L 660.994,-6.53017 L 661.05,-6 L 661.05,-0 L 666,-0 z
M 6.98573,-55.607 L 6.47708,-55.6875 L 5.97964,-55.8208 L 5.49887,-56.0054 L 5.04001,-56.2392 L 4.60811,-56.5196
 L 4.20789,-56.8437 L 3.84373,-57.2079 L 3.51964,-57.6081 L 3.23917,-58.04 L 3.00537,-58.4989 L 2.82082,-58.9796
 L 2.68752,-59.4771 L 2.60696,-59.9857 L 2.58,-60.5 L 2.60696,-61.0143 L 2.68752,-61.5229 L 2.82082,-62.0204
 L 3.00537,-62.5011 L 3.23917,-62.96 L 3.51964,-63.3919 L 3.84373,-63.7921 L 4.20789,-64.1563 L 4.60811,-64.4804
 L 4.95001,-64.7024 L 4.95001,-74 L 5.00574,-74.5302 L 5.17047,-75.0372 L 5.43701,-75.4988 L 5.79373,-75.895
 L 6.22501,-76.2084 L 6.71202,-76.4252 L 7.23346,-76.536 L 7.76654,-76.536 L 8.28798,-76.4252 L 8.77499,-76.2084
 L 9.20627,-75.895 L 9.56299,-75.4988 L 9.82953,-75.0372 L 9.99426,-74.5302 L 10.05,-74 L 10.05,-64.7024
 L 10.3919,-64.4804 L 10.7921,-64.1563 L 11.1563,-63.7921 L 11.4804,-63.3919 L 11.7608,-62.96 L 11.9946,-62.5011
 L 12.1792,-62.0204 L 12.3125,-61.5229 L 12.393,-61.0143 L 12.42,-60.5 L 12.393,-59.9857 L 12.3125,-59.4771
 L 12.1792,-58.9796 L 11.9946,-58.4989 L 11.7608,-58.04 L 11.4804,-57.6081 L 11.1563,-57.2079 L 10.7921,-56.8437
 L 10.3919,-56.5196 L 9.95999,-56.2392 L 9.50113,-56.0054 L 9.02036,-55.8208 L 8.52292,-55.6875 L 8.01427,-55.607
 L 7.5,-55.58 z
M 137.186,-55.607 L 136.677,-55.6875 L 136.18,-55.8208 L 135.699,-56.0054 L 135.24,-56.2392 L 134.808,-56.5196
 L 134.408,-56.8437 L 134.044,-57.2079 L 133.72,-57.6081 L 133.439,-58.04 L 133.205,-58.4989 L 133.021,-58.9796
 L 132.888,-59.4771 L 132.807,-59.9857 L 132.78,-60.5 L 132.807,-61.0143 L 132.888,-61.5229 L 133.021,-62.0204
 L 133.205,-62.5011 L 133.439,-62.96 L 133.72,-63.3919 L 134.044,-63.7921 L 134.408,-64.1563 L 134.808,-64.4804
 L 135.15,-64.7024 L 135.15,-74 L 135.206,-74.5302 L 135.37,-75.0372 L 135.637,-75.4988 L 135.994,-75.895
 L 136.425,-76.2084 L 136.912,-76.4252 L 137.433,-76.536 L 137.967,-76.536 L 138.488,-76.4252 L 138.975,-76.2084
 L 139.406,-75.895 L 139.763,-75.4988 L 140.03,-75.0372 L 140.194,-74.5302 L 140.25,-74 L 140.25,-64.7024
 L 140.592,-64.4804 L 140.992,-64.1563 L 141.356,-63.7921 L 141.68,-63.3919 L 141.961,-62.96 L 142.195,-62.5011
 L 142.379,-62.0204 L 142.512,-61.5229 L 142.593,-61.0143 L 142.62,-60.5 L 142.593,-59.9857 L 142.512,-59.4771
 L 142.379,-58.9796 L 142.195,-58.4989 L 141.961,-58.04 L 141.68,-57.6081 L 141.356,-57.2079 L 140.992,-56.8437
 L 140.592,-56.5196 L 140.16,-56.2392 L 139.701,-56.0054 L 139.22,-55.8208 L 138.723,-55.6875 L 138.214,-55.607
 L 137.7,-55.58 z
M 267.386,-55.607 L 266.877,-55.6875 L 266.38,-55.8208 L 265.899,-56.0054 L 265.44,-56.2392 L 265.008,-56.5196
 L 264.608,-56.8437 L 264.244,-57.2079 L 263.92,-57.6081 L 263.639,-58.04 L 263.405,-58.4989 L 263.221,-58.9796
 L 263.088,-59.4771 L 263.007,-59.9857 L 262.98,-60.5 L 263.007,-61.0143 L 263.088,-61.5229 L 263.221,-62.0204
 L 263.405,-62.5011 L 263.639,-62.96 L 263.92,-63.3919 L 264.244,-63.7921 L 264.608,-64.1563 L 265.008,-64.4804
 L 265.35,-64.7024 L 265.35,-74 L 265.406,-74.5302 L 265.57,-75.0372 L 265.837,-75.4988 L 266.194,-75.895
 L 266.625,-76.2084 L 267.112,-76.4252 L 267.633,-76.536 L 268.167,-76.536 L 268.688,-76.4252 L 269.175,-76.2084
 L 269.606,-75.895 L 269.963,-75.4988 L 270.23,-75.0372 L 270.394,-74.5302 L 270.45,-74 L 270.45,-64.7024
 L 270.792,-64.4804 L 271.192,-64.1563 L 271.556,-63.7921 L 271.88,-63.3919 L 272.161,-62.96 L 272.395,-62.5011
 L 272.579,-62.0204 L 272.712,-61.5229 L 272.793,-61.0143 L 272.82,-60.5 L 272.793,-59.9857 L 272.712,-59.4771
 L 272.579,-58.9796 L 272.395,-58.4989 L 272.161,-58.04 L 271.88,-57.6081 L 271.556,-57.2079 L 271.192,-56.8437
 L 270.792,-56.5196 L 270.36,-56.2392 L 269.901,-56.0054 L 269.42,-55.8208 L 268.923,-55.6875 L 268.414,-55.607
 L 267.9,-55.58 z
M 397.586,-55.607 L 397.077,-55.6875 L 396.58,-55.8208 L 396.099,-56.0054 L 395.64,-56.2392 L 395.208,-56.5196
 L 394.808,-56.8437 L 394.444,-57.2079 L 394.12,-57.6081 L 393.839,-58.04 L 393.605,-58.4989 L 393.421,-58.9796
 L 393.288,-59.4771 L 393.207,-59.9857 L 393.18,-60.5 L 393.207,-61.0143 L 393.288,-61.5229 L 393.421,-62.0204
 L 393.605,-62.5011 L 393.839,-62.96 L 394.12,-63.3919 L 394.444,-63.7921 L 394.808,-64.1563 L 395.208,-64.4804
 L 395.55,-64.7024 L 395.55,-74 L 395.606,-74.5302 L 395.77,-75.0372 L 396.037,-75.4988 L 396.394,-75.895
 L 396.825,-76.2084 L 397.312,-76.4252 L 397.833,-76.536 L 398.367,-76.536 L 398.888,-76.4252 L 399.375,-76.2084
 L 399.806,-75.895 L 400.163,-75.4988 L 400.43,-75.0372 L 400.594,-74.5302 L 400.65,-74 L 400.65,-64.7024
 L 400.992,-64.4804 L 401.392,-64.1563 L 401.756,-63.7921 L 402.08,-63.3919 L 402.361,-62.96 L 402.595,-62.5011
 L 402.779,-62.0204 L 402.912,-61.5229 L 402.993,-61.0143 L 403.02,-60.5 L 402.993,-59.9857 L 402.912,-59.4771
 L 402.779,-58.9796 L 402.595,-58.4989 L 402.361,-58.04 L 402.08,-57.6081 L 401.756,-57.2079 L 401.392,-56.8437
 L 400.992,-56.5196 L 400.56,-56.2392 L 400.101,-56.0054 L 399.62,-55.8208 L 399.123,-55.6875 L 398.614,-55.607
 L 398.1,-55.58 z
M 527.786,-55.607 L 527.277,-55.6875 L 526.78,-55.8208 L 526.299,-56.0054 L 525.84,-56.2392 L 525.408,-56.5196
 L 525.008,-56.8437 L 524.644,-57.2079 L 524.32,-57.6081 L 524.039,-58.04 L 523.805,-58.4989 L 523.621,-58.9796
 L 523.488,-59.4771 L 523.407,-59.9857 L 523.38,-60.5 L 523.407,-61.0143 L 523.488,-61.5229 L 523.621,-62.0204
 L 523.805,-62.5011 L 524.039,-62.96 L 524.32,-63.3919 L 524.644,-63.7921 L 525.008,-64.1563 L 525.408,-64.4804
 L 525.75,-64.7024 L 525.75,-74 L 525.806,-74.5302 L 525.97,-75.0372 L 526.237,-75.4988 L 526.594,-75.895
 L 527.025,-76.2084 L 527.512,-76.4252 L 528.033,-76.536 L 528.567,-76.536 L 529.088,-76.4252 L 529.575,-76.2084
 L 530.006,-75.895 L 530.363,-75.4988 L 530.63,-75.0372 L 530.794,-74.5302 L 530.85,-74 L 530.85,-64.7024
 L 531.192,-64.4804 L 531.592,-64.1563 L 531.956,-63.7921 L 532.28,-63.3919 L 532.561,-62.96 L 532.795,-62.5011
 L 532.979,-62.0204 L 533.112,-61.5229 L 533.193,-61.0143 L 533.22,-60.5 L 533.193,-59.9857 L 533.112,-59.4771
 L 532.979,-58.9796 L 532.795,-58.4989 L 532.561,-58.04 L 532.28,-57.6081 L 531.956,-57.2079 L 531.592,-56.8437
 L 531.192,-56.5196 L 530.76,-56.2392 L 530.301,-56.0054 L 529.82,-55.8208 L 529.323,-55.6875 L 528.814,-55.607
 L 528.3,-55.58 z
M 657.986,-55.607 L 657.477,-55.6875 L 656.98,-55.8208 L 656.499,-56.0054 L 656.04,-56.2392 L 655.608,-56.5196
 L 655.208,-56.8437 L 654.844,-57.2079 L 654.52,-57.6081 L 654.239,-58.04 L 654.005,-58.4989 L 653.821,-58.9796
 L 653.688,-59.4771 L 653.607,-59.9857 L 653.58,-60.5 L 653.607,-61.0143 L 653.688,-61.5229 L 653.821,-62.0204
 L 654.005,-62.5011 L 654.239,-62.96 L 654.52,-63.3919 L 654.844,-63.7921 L 655.208,-64.1563 L 655.608,-64.4804
 L 655.95,-64.7024 L 655.95,-74 L 656.006,-74.5302 L 656.17,-75.0372 L 656.437,-75.4988 L 656.794,-75.895
 L 657.225,-76.2084 L 657.712,-76.4252 L 658.233,-76.536 L 658.767,-76.536 L 659.288,-76.4252 L 659.775,-76.2084
 L 660.206,-75.895 L 660.563,-75.4988 L 660.83,-75.0372 L 660.994,-74.5302 L 661.05,-74 L 661.05,-64.7024
 L 661.392,-64.4804 L 661.792,-64.1563 L 662.156,-63.7921 L 662.48,-63.3919 L 662.761,-62.96 L 662.995,-62.5011
 L 663.179,-62.0204 L 663.312,-61.5229 L 663.393,-61.0143 L 663.42,-60.5 L 663.393,-59.9857 L 663.312,-59.4771
 L 663.179,-58.9796 L 662.995,-58.4989 L 662.761,-58.04 L 662.48,-57.6081 L 662.156,-57.2079 L 661.792,-56.8437
 L 661.392,-56.5196 L 660.96,-56.2392 L 660.501,-56.0054 L 660.02,-55.8208 L 659.523,-55.6875 L 659.014,-55.607
 L 658.5,-55.58 z
M 331.926,-48.5457 L 331.148,-48.8532 L 320.424,-54.4544 L 319.924,-54.7639 L 319.303,-55.3235 L 318.811,-56
 L 318.471,-56.7639 L 318.297,-57.5819 L 318.297,-58.4181 L 318.471,-59.2361 L 318.811,-60 L 319.303,-60.6765
 L 319.924,-61.2361 L 320.648,-61.6542 L 321.444,-61.9126 L 322.275,-62 L 343.725,-62 L 344.311,-61.9568
 L 345.12,-61.7486 L 345.869,-61.3764 L 346.524,-60.8568 L 347.057,-60.2122 L 347.444,-59.471 L 347.669,-58.6655
 L 347.721,-57.8309 L 347.599,-57.0037 L 347.307,-56.22 L 346.858,-55.5141 L 346.273,-54.9169 L 345.576,-54.4544
 L 334.852,-48.8532 L 334.396,-48.6502 L 333.586,-48.4419 L 332.75,-48.4066 z
M 253.826,-23.5896 L 253.048,-23.8971 L 194.54,-54.4544 L 194.041,-54.7639 L 193.419,-55.3235 L 192.928,-56
 L 192.587,-56.7639 L 192.414,-57.5819 L 192.414,-58.4181 L 192.587,-59.2361 L 192.928,-60 L 193.419,-60.6765
 L 194.041,-61.2361 L 194.765,-61.6542 L 195.56,-61.9126 L 196.392,-62 L 254.9,-62 L 256.136,-61.8042
 L 256.9,-61.4641 L 257.577,-60.9726 L 258.136,-60.3511 L 258.554,-59.627 L 258.813,-58.8316 L 258.9,-58
 L 258.9,-27.4426 L 258.844,-26.7772 L 258.62,-25.9716 L 258.233,-25.2304 L 257.7,-24.5859 L 257.045,-24.0662
 L 256.296,-23.6941 L 255.486,-23.4858 L 254.65,-23.4504 z
M 540.714,-23.4858 L 539.904,-23.6941 L 539.155,-24.0662 L 538.5,-24.5859 L 537.967,-25.2304 L 537.58,-25.9716
 L 537.356,-26.7772 L 537.3,-27.4426 L 537.3,-58 L 537.387,-58.8316 L 537.646,-59.627 L 538.064,-60.3511
 L 538.623,-60.9726 L 539.3,-61.4641 L 540.064,-61.8042 L 541.3,-62 L 599.808,-62 L 600.64,-61.9126
 L 601.435,-61.6542 L 602.159,-61.2361 L 602.781,-60.6765 L 603.272,-60 L 603.613,-59.2361 L 603.786,-58.4181
 L 603.786,-57.5819 L 603.613,-56.7639 L 603.272,-56 L 602.781,-55.3235 L 602.159,-54.7639 L 601.66,-54.4544
 L 543.152,-23.8971 L 542.374,-23.5896 L 541.55,-23.4504 z
M 123.626,-23.5896 L 122.848,-23.8971 L 64.3399,-54.4544 L 63.8405,-54.7639 L 63.2191,-55.3235 L 62.7276,-56
 L 62.3874,-56.7639 L 62.2136,-57.5819 L 62.2136,-58.4181 L 62.3874,-59.2361 L 62.7276,-60 L 63.2191,-60.6765
 L 63.8405,-61.2361 L 64.5647,-61.6542 L 65.36,-61.9126 L 66.1917,-62 L 124.7,-62 L 125.936,-61.8042
 L 126.7,-61.4641 L 127.377,-60.9726 L 127.936,-60.3511 L 128.354,-59.627 L 128.613,-58.8316 L 128.7,-58
 L 128.7,-27.4426 L 128.644,-26.7772 L 128.42,-25.9716 L 128.033,-25.2304 L 127.5,-24.5859 L 126.845,-24.0662
 L 126.096,-23.6941 L 125.286,-23.4858 L 124.45,-23.4504 z
M 410.514,-23.4858 L 409.704,-23.6941 L 408.955,-24.0662 L 408.3,-24.5859 L 407.767,-25.2304 L 407.38,-25.9716
 L 407.156,-26.7772 L 407.1,-27.4426 L 407.1,-58 L 407.187,-58.8316 L 407.446,-59.627 L 407.864,-60.3511
 L 408.423,-60.9726 L 409.1,-61.4641 L 409.864,-61.8042 L 411.1,-62 L 469.608,-62 L 470.44,-61.9126
 L 471.235,-61.6542 L 471.959,-61.2361 L 472.581,-60.6765 L 473.072,-60 L 473.413,-59.2361 L 473.586,-58.4181
 L 473.586,-57.5819 L 473.413,-56.7639 L 473.072,-56 L 472.581,-55.3235 L 471.959,-54.7639 L 471.46,-54.4544
 L 412.952,-23.8971 L 412.174,-23.5896 L 411.35,-23.4504 z
M 280.482,-21.2103 L 279.664,-21.3841 L 278.9,-21.7243 L 278.223,-22.2158 L 277.664,-22.8372 L 277.246,-23.5614
 L 276.987,-24.3567 L 276.9,-25.1884 L 276.9,-54.8116 L 276.956,-55.4771 L 277.18,-56.2826 L 277.567,-57.0239
 L 278.1,-57.6684 L 278.755,-58.1881 L 279.504,-58.5602 L 280.314,-58.7685 L 281.15,-58.8038 L 281.974,-58.6647
 L 282.752,-58.3572 L 311.112,-43.5456 L 312.06,-42.8568 L 312.593,-42.2122 L 312.98,-41.471 L 313.204,-40.6655
 L 313.256,-39.8309 L 313.134,-39.0037 L 312.842,-38.22 L 312.394,-37.5141 L 311.808,-36.9169 L 311.112,-36.4544
 L 282.752,-21.6428 L 282.136,-21.3841 L 281.318,-21.2103 z
M 384.026,-21.3353 L 383.248,-21.6428 L 354.888,-36.4544 L 353.94,-37.1432 L 353.407,-37.7878 L 353.02,-38.529
 L 352.796,-39.3345 L 352.744,-40.1691 L 352.866,-40.9963 L 353.158,-41.78 L 353.606,-42.4859 L 354.192,-43.0831
 L 354.888,-43.5456 L 383.248,-58.3572 L 383.864,-58.6159 L 384.682,-58.7897 L 385.518,-58.7897 L 386.336,-58.6159
 L 387.1,-58.2758 L 387.777,-57.7842 L 388.336,-57.1628 L 388.754,-56.4386 L 389.013,-55.6433 L 389.1,-54.8117
 L 389.1,-25.1883 L 389.044,-24.5229 L 388.82,-23.7173 L 388.433,-22.9761 L 387.9,-22.3316 L 387.245,-21.8119
 L 386.496,-21.4398 L 385.686,-21.2315 L 384.85,-21.1961 z
M 150.7,-18 L 149.464,-18.1958 L 148.7,-18.5359 L 148.023,-19.0274 L 147.464,-19.6489 L 147.046,-20.373
 L 146.787,-21.1684 L 146.7,-22 L 146.7,-52.5573 L 146.756,-53.2228 L 146.98,-54.0283 L 147.367,-54.7696
 L 147.9,-55.4141 L 148.555,-55.9338 L 149.304,-56.3059 L 150.114,-56.5142 L 150.95,-56.5495 L 151.774,-56.4104
 L 152.552,-56.1029 L 211.06,-25.5456 L 211.559,-25.2361 L 212.181,-24.6765 L 212.672,-24 L 213.013,-23.2361
 L 213.186,-22.4181 L 213.186,-21.5819 L 213.013,-20.7639 L 212.672,-20 L 212.181,-19.3235 L 211.559,-18.7639
 L 210.835,-18.3458 L 210.04,-18.0874 L 209.208,-18 z
M 456.792,-18 L 455.96,-18.0874 L 455.165,-18.3458 L 454.441,-18.7639 L 453.819,-19.3235 L 453.328,-20
 L 452.987,-20.7639 L 452.814,-21.5819 L 452.814,-22.4181 L 452.987,-23.2361 L 453.328,-24 L 453.819,-24.6765
 L 454.441,-25.2361 L 454.94,-25.5456 L 513.448,-56.1029 L 514.226,-56.4104 L 515.05,-56.5495 L 515.886,-56.5142
 L 516.696,-56.3059 L 517.445,-55.9338 L 518.1,-55.4141 L 518.633,-54.7696 L 519.02,-54.0283 L 519.244,-53.2228
 L 519.3,-52.5573 L 519.3,-22 L 519.213,-21.1684 L 518.954,-20.373 L 518.536,-19.6489 L 517.977,-19.0274
 L 517.3,-18.5359 L 516.536,-18.1958 L 515.3,-18 z
M 22,-18 L 20.7639,-18.1958 L 20,-18.5359 L 19.3235,-19.0274 L 18.7639,-19.6489 L 18.3458,-20.373
 L 18.0874,-21.1684 L 18,-22 L 18,-51.7739 L 18.0557,-52.4394 L 18.2803,-53.2449 L 18.6674,-53.9861
 L 19.2002,-54.6307 L 19.8553,-55.1504 L 20.6042,-55.5225 L 21.4141,-55.7308 L 22.2495,-55.7661 L 23.0741,-55.627
 L 23.8517,-55.3195 L 80.8601,-25.5456 L 81.3595,-25.2361 L 81.9809,-24.6765 L 82.4724,-24 L 82.8126,-23.2361
 L 82.9864,-22.4181 L 82.9864,-21.5819 L 82.8126,-20.7639 L 82.4724,-20 L 81.9809,-19.3235 L 81.3595,-18.7639
 L 80.6353,-18.3458 L 79.84,-18.0874 L 79.0083,-18 z
M 586.992,-18 L 586.16,-18.0874 L 585.365,-18.3458 L 584.641,-18.7639 L 584.019,-19.3235 L 583.528,-20
 L 583.187,-20.7639 L 583.014,-21.5819 L 583.014,-22.4181 L 583.187,-23.2361 L 583.528,-24 L 584.019,-24.6765
 L 584.641,-25.2361 L 585.14,-25.5456 L 642.148,-55.3195 L 642.926,-55.627 L 643.75,-55.7661 L 644.586,-55.7308
 L 645.396,-55.5225 L 646.145,-55.1504 L 646.8,-54.6307 L 647.333,-53.9861 L 647.72,-53.2449 L 647.944,-52.4394
 L 648,-51.7739 L 648,-22 L 647.913,-21.1684 L 647.654,-20.373 L 647.236,-19.6489 L 646.677,-19.0274
 L 646,-18.5359 L 645.236,-18.1958 L 644,-18 z
M 322.275,-18 L 321.689,-18.0432 L 320.88,-18.2514 L 320.131,-18.6236 L 319.475,-19.1432 L 318.943,-19.7878
 L 318.556,-20.529 L 318.331,-21.3345 L 318.279,-22.1691 L 318.401,-22.9963 L 318.693,-23.78 L 319.142,-24.4859
 L 319.727,-25.0831 L 320.424,-25.5456 L 331.148,-31.1468 L 331.604,-31.3498 L 332.414,-31.5581 L 333.25,-31.5934
 L 334.074,-31.4543 L 334.852,-31.1468 L 345.576,-25.5456 L 346.076,-25.2361 L 346.697,-24.6765 L 347.189,-24
 L 347.529,-23.2361 L 347.703,-22.4181 L 347.703,-21.5819 L 347.529,-20.7639 L 347.189,-20 L 346.697,-19.3235
 L 346.076,-18.7639 L 345.352,-18.3458 L 344.556,-18.0874 L 343.725,-18 z
" stroke="black" fill="lightgray" stroke-width="0.5"/>
</svg>
