<?xml version="1.0" standalone="no"?>
<!DOCTYPE svg PUBLIC "-//W3C//DTD SVG 1.1//EN" "http://www.w3.org/Graphics/SVG/1.1/DTD/svg11.dtd">
<svg width="606mm" height="80mm" viewBox="0 -80 606 80" xmlns="http://www.w3.org/2000/svg" version="1.1">
<title>OpenSCAD Model</title>
<path d="
M 606,-80 L 0,-80 L 0,-0 L 4.95,-0 L 4.95,-6 L 5.00572,-6.53017
 L 5.17046,-7.03717 L 5.437,-7.49884 L 5.79372,-7.895 L 6.22499,-8.20836 L 6.71201,-8.42519 L 7.23344,-8.53603
 L 7.76654,-8.53603 L 8.28798,-8.42519 L 8.77499,-8.20836 L 9.20627,-7.895 L 9.56299,-7.49884 L 9.82953,-7.03717
 L 9.99426,-6.53017 L 10.05,-6 L 10.05,-0 L 123.15,-0 L 123.15,-6 L 123.206,-6.53017
 L 123.37,-7.03717 L 123.637,-7.49884 L 123.994,-7.895 L 124.425,-8.20836 L 124.912,-8.42519 L 125.433,-8.53603
 L 125.967,-8.53603 L 126.488,-8.42519 L 126.975,-8.20836 L 127.406,-7.895 L 127.763,-7.49884 L 128.03,-7.03717
 L 128.194,-6.53017 L 128.25,-6 L 128.25,-0 L 241.35,-0 L 241.35,-6 L 241.406,-6.53017
 L 241.57,-7.03717 L 241.837,-7.49884 L 242.194,-7.895 L 242.625,-8.20836 L 243.112,-8.42519 L 243.633,-8.53603
 L 244.167,-8.53603 L 244.688,-8.42519 L 245.175,-8.20836 L 245.606,-7.895 L 245.963,-7.49884 L 246.23,-7.03717
 L 246.394,-6.53017 L 246.45,-6 L 246.45,-0 L 359.55,-0 L 359.55,-6 L 359.606,-6.53017
 L 359.77,-7.03717 L 360.037,-7.49884 L 360.394,-7.895 L 360.825,-8.20836 L 361.312,-8.42519 L 361.833,-8.53603
 L 362.367,-8.53603 L 362.888,-8.42519 L 363.375,-8.20836 L 363.806,-7.895 L 364.163,-7.49884 L 364.43,-7.03717
 L 364.594,-6.53017 L 364.65,-6 L 364.65,-0 L 477.75,-0 L 477.75,-6 L 477.806,-6.53017
 L 477.97,-7.03717 L 478.237,-7.49884 L 478.594,-7.895 L 479.025,-8.20836 L 479.512,-8.42519 L 480.033,-8.53603
 L 480.567,-8.53603 L 481.088,-8.42519 L 481.575,-8.20836 L 482.006,-7.895 L 482.363,-7.49884 L 482.63,-7.03717
 L 482.794,-6.53017 L 482.85,-6 L 482.85,-0 L 595.95,-0 L 595.95,-6 L 596.006,-6.53017
 L 596.17,-7.03717 L 596.437,-7.49884 L 596.794,-7.895 L 597.225,-8.20836 L 597.712,-8.42519 L 598.233,-8.53603
 L 598.767,-8.53603 L 599.288,-8.42519 L 599.775,-8.20836 L 600.206,-7.895 L 600.563,-7.49884 L 600.83,-7.03717
 L 600.994,-6.53017 L 601.05,-6 L 601.05,-0 L 606,-0 z
M 6.98573,-55.607 L 6.47708,-55.6875 L 5.97964,-55.8208 L 5.49887,-56.0054 L 5.04001,-56.2392 L 4.60811,-56.5196
 L 4.20789,-56.8437 L 3.84373,-57.2079 L 3.51964,-57.6081 L 3.23917,-58.04 L 3.00537,-58.4989 L 2.82082,-58.9796
 L 2.68752,-59.4771 L 2.60696,-59.9857 L 2.58,-60.5 L 2.60696,-61.0143 L 2.68752,-61.5229 L 2.82082,-62.0204
 L 3.00537,-62.5011 L 3.23917,-62.96 L 3.51964,-63.3919 L 3.84373,-63.7921 L 4.20789,-64.1563 L 4.60811,-64.4804
 L 4.95001,-64.7024 L 4.95001,-74 L 5.00574,-74.5302 L 5.17047,-75.0372 L 5.43701,-75.4988 L 5.79373,-75.895
 L 6.22501,-76.2084 L 6.71202,-76.4252 L 7.23346,-76.536 L 7.76654,-76.536 L 8.28798,-76.4252 L 8.77499,-76.2084
 L 9.20627,-75.895 L 9.56299,-75.4988 L 9.82953,-75.0372 L 9.99426,-74.5302 L 10.05,-74 L 10.05,-64.7024
 L 10.3919,-64.4804 L 10.7921,-64.1563 L 11.1563,-63.7921 L 11.4804,-63.3919 L 11.7608,-62.96 L 11.9946,-62.5011
 L 12.1792,-62.0204 L 12.3125,-61.5229 L 12.393,-61.0143 L 12.42,-60.5 L 12.393,-59.9857 L 12.3125,-59.4771
 L 12.1792,-58.9796 L 11.9946,-58.4989 L 11.7608,-58.04 L 11.4804,-57.6081 L 11.1563,-57.2079 L 10.7921,-56.8437
 L 10.3919,-56.5196 L 9.95999,-56.2392 L 9.50113,-56.0054 L 9.02036,-55.8208 L 8.52292,-55.6875 L 8.01427,-55.607
 L 7.5,-55.58 z
M 125.186,-55.607 L 124.677,-55.6875 L 124.18,-55.8208 L 123.699,-56.0054 L 123.24,-56.2392 L 122.808,-56.5196
 L 122.408,-56.8437 L 122.044,-57.2079 L 121.72,-57.6081 L 121.439,-58.04 L 121.205,-58.4989 L 121.021,-58.9796
 L 120.888,-59.4771 L 120.807,-59.9857 L 120.78,-60.5 L 120.807,-61.0143 L 120.888,-61.5229 L 121.021,-62.0204
 L 121.205,-62.5011 L 121.439,-62.96 L 121.72,-63.3919 L 122.044,-63.7921 L 122.408,-64.1563 L 122.808,-64.4804
 L 123.15,-64.7024 L 123.15,-74 L 123.206,-74.5302 L 123.37,-75.0372 L 123.637,-75.4988 L 123.994,-75.895
 L 124.425,-76.2084 L 124.912,-76.4252 L 125.433,-76.536 L 125.967,-76.536 L 126.488,-76.4252 L 126.975,-76.2084
 L 127.406,-75.895 L 127.763,-75.4988 L 128.03,-75.0372 L 128.194,-74.5302 L 128.25,-74 L 128.25,-64.7024
 L 128.592,-64.4804 L 128.992,-64.1563 L 129.356,-63.7921 L 129.68,-63.3919 L 129.961,-62.96 L 130.195,-62.5011
 L 130.379,-62.0204 L 130.512,-61.5229 L 130.593,-61.0143 L 130.62,-60.5 L 130.593,-59.9857 L 130.512,-59.4771
 L 130.379,-58.9796 L 130.195,-58.4989 L 129.961,-58.04 L 129.68,-57.6081 L 129.356,-57.2079 L 128.992,-56.8437
 L 128.592,-56.5196 L 128.16,-56.2392 L 127.701,-56.0054 L 127.22,-55.8208 L 126.723,-55.6875 L 126.214,-55.607
 L 125.7,-55.58 z
M 243.386,-55.607 L 242.877,-55.6875 L 242.38,-55.8208 L 241.899,-56.0054 L 241.44,-56.2392 L 241.008,-56.5196
 L 240.608,-56.8437 L 240.244,-57.2079 L 239.92,-57.6081 L 239.639,-58.04 L 239.405,-58.4989 L 239.221,-58.9796
 L 239.088,-59.4771 L 239.007,-59.9857 L 238.98,-60.5 L 239.007,-61.0143 L 239.088,-61.5229 L 239.221,-62.0204
 L 239.405,-62.5011 L 239.639,-62.96 L 239.92,-63.3919 L 240.244,-63.7921 L 240.608,-64.1563 L 241.008,-64.4804
 L 241.35,-64.7024 L 241.35,-74 L 241.406,-74.5302 L 241.57,-75.0372 L 241.837,-75.4988 L 242.194,-75.895
 L 242.625,-76.2084 L 243.112,-76.4252 L 243.633,-76.536 L 244.167,-76.536 L 244.688,-76.4252 L 245.175,-76.2084
 L 245.606,-75.895 L 245.963,-75.4988 L 246.23,-75.0372 L 246.394,-74.5302 L 246.45,-74 L 246.45,-64.7024
 L 246.792,-64.4804 L 247.192,-64.1563 L 247.556,-63.7921 L 247.88,-63.3919 L 248.161,-62.96 L 248.395,-62.5011
 L 248.579,-62.0204 L 248.712,-61.5229 L 248.793,-61.0143 L 248.82,-60.5 L 248.793,-59.9857 L 248.712,-59.4771
 L 248.579,-58.9796 L 248.395,-58.4989 L 248.161,-58.04 L 247.88,-57.6081 L 247.556,-57.2079 L 247.192,-56.8437
 L 246.792,-56.5196 L 246.36,-56.2392 L 245.901,-56.0054 L 245.42,-55.8208 L 244.923,-55.6875 L 244.414,-55.607
 L 243.9,-55.58 z
M 361.586,-55.607 L 361.077,-55.6875 L 360.58,-55.8208 L 360.099,-56.0054 L 359.64,-56.2392 L 359.208,-56.5196
 L 358.808,-56.8437 L 358.444,-57.2079 L 358.12,-57.6081 L 357.839,-58.04 L 357.605,-58.4989 L 357.421,-58.9796
 L 357.288,-59.4771 L 357.207,-59.9857 L 357.18,-60.5 L 357.207,-61.0143 L 357.288,-61.5229 L 357.421,-62.0204
 L 357.605,-62.5011 L 357.839,-62.96 L 358.12,-63.3919 L 358.444,-63.7921 L 358.808,-64.1563 L 359.208,-64.4804
 L 359.55,-64.7024 L 359.55,-74 L 359.606,-74.5302 L 359.77,-75.0372 L 360.037,-75.4988 L 360.394,-75.895
 L 360.825,-76.2084 L 361.312,-76.4252 L 361.833,-76.536 L 362.367,-76.536 L 362.888,-76.4252 L 363.375,-76.2084
 L 363.806,-75.895 L 364.163,-75.4988 L 364.43,-75.0372 L 364.594,-74.5302 L 364.65,-74 L 364.65,-64.7024
 L 364.992,-64.4804 L 365.392,-64.1563 L 365.756,-63.7921 L 366.08,-63.3919 L 366.361,-62.96 L 366.595,-62.5011
 L 366.779,-62.0204 L 366.912,-61.5229 L 366.993,-61.0143 L 367.02,-60.5 L 366.993,-59.9857 L 366.912,-59.4771
 L 366.779,-58.9796 L 366.595,-58.4989 L 366.361,-58.04 L 366.08,-57.6081 L 365.756,-57.2079 L 365.392,-56.8437
 L 364.992,-56.5196 L 364.56,-56.2392 L 364.101,-56.0054 L 363.62,-55.8208 L 363.123,-55.6875 L 362.614,-55.607
 L 362.1,-55.58 z
M 479.786,-55.607 L 479.277,-55.6875 L 478.78,-55.8208 L 478.299,-56.0054 L 477.84,-56.2392 L 477.408,-56.5196
 L 477.008,-56.8437 L 476.644,-57.2079 L 476.32,-57.6081 L 476.039,-58.04 L 475.805,-58.4989 L 475.621,-58.9796
 L 475.488,-59.4771 L 475.407,-59.9857 L 475.38,-60.5 L 475.407,-61.0143 L 475.488,-61.5229 L 475.621,-62.0204
 L 475.805,-62.5011 L 476.039,-62.96 L 476.32,-63.3919 L 476.644,-63.7921 L 477.008,-64.1563 L 477.408,-64.4804
 L 477.75,-64.7024 L 477.75,-74 L 477.806,-74.5302 L 477.97,-75.0372 L 478.237,-75.4988 L 478.594,-75.895
 L 479.025,-76.2084 L 479.512,-76.4252 L 480.033,-76.536 L 480.567,-76.536 L 481.088,-76.4252 L 481.575,-76.2084
 L 482.006,-75.895 L 482.363,-75.4988 L 482.63,-75.0372 L 482.794,-74.5302 L 482.85,-74 L 482.85,-64.7024
 L 483.192,-64.4804 L 483.592,-64.1563 L 483.956,-63.7921 L 484.28,-63.3919 L 484.561,-62.96 L 484.795,-62.5011
 L 484.979,-62.0204 L 485.112,-61.5229 L 485.193,-61.0143 L 485.22,-60.5 L 485.193,-59.9857 L 485.112,-59.4771
 L 484.979,-58.9796 L 484.795,-58.4989 L 484.561,-58.04 L 484.28,-57.6081 L 483.956,-57.2079 L 483.592,-56.8437
 L 483.192,-56.5196 L 482.76,-56.2392 L 482.301,-56.0054 L 481.82,-55.8208 L 481.323,-55.6875 L 480.814,-55.607
 L 480.3,-55.58 z
M 597.986,-55.607 L 597.477,-55.6875 L 596.98,-55.8208 L 596.499,-56.0054 L 596.04,-56.2392 L 595.608,-56.5196
 L 595.208,-56.8437 L 594.844,-57.2079 L 594.52,-57.6081 L 594.239,-58.04 L 594.005,-58.4989 L 593.821,-58.9796
 L 593.688,-59.4771 L 593.607,-59.9857 L 593.58,-60.5 L 593.607,-61.0143 L 593.688,-61.5229 L 593.821,-62.0204
 L 594.005,-62.5011 L 594.239,-62.96 L 594.52,-63.3919 L 594.844,-63.7921 L 595.208,-64.1563 L 595.608,-64.4804
 L 595.95,-64.7024 L 595.95,-74 L 596.006,-74.5302 L 596.17,-75.0372 L 596.437,-75.4988 L 596.794,-75.895
 L 597.225,-76.2084 L 597.712,-76.4252 L 598.233,-76.536 L 598.767,-76.536 L 599.288,-76.4252 L 599.775,-76.2084
 L 600.206,-75.895 L 600.563,-75.4988 L 600.83,-75.0372 L 600.994,-74.5302 L 601.05,-74 L 601.05,-64.7024
 L 601.392,-64.4804 L 601.792,-64.1563 L 602.156,-63.7921 L 602.48,-63.3919 L 602.761,-62.96 L 602.995,-62.5011
 L 603.179,-62.0204 L 603.312,-61.5229 L 603.393,-61.0143 L 603.42,-60.5 L 603.393,-59.9857 L 603.312,-59.4771
 L 603.179,-58.9796 L 602.995,-58.4989 L 602.761,-58.04 L 602.48,-57.6081 L 602.156,-57.2079 L 601.792,-56.8437
 L 601.392,-56.5196 L 600.96,-56.2392 L 600.501,-56.0054 L 600.02,-55.8208 L 599.523,-55.6875 L 599.014,-55.607
 L 598.5,-55.58 z
M 301.77,-48.8843 L 301.005,-49.2232 L 291.776,-54.5328 L 291.42,-54.7639 L 290.798,-55.3235 L 290.307,-56
 L 289.966,-56.7639 L 289.793,-57.5819 L 289.793,-58.4181 L 289.966,-59.2361 L 290.307,-60 L 290.798,-60.6765
 L 291.42,-61.2361 L 292.144,-61.6542 L 292.939,-61.9126 L 293.771,-62 L 312.229,-62 L 312.654,-61.9774
 L 313.471,-61.8023 L 314.235,-61.461 L 314.91,-60.9684 L 315.469,-60.3461 L 315.886,-59.6213 L 316.143,-58.8256
 L 316.229,-57.9938 L 316.141,-57.1623 L 315.881,-56.3674 L 315.462,-55.6439 L 314.901,-55.0233 L 314.224,-54.5328
 L 304.995,-49.2232 L 304.242,-48.8881 L 303.424,-48.713 L 302.588,-48.7117 z
M 229.67,-24.6705 L 228.905,-25.0094 L 177.587,-54.5328 L 177.23,-54.7639 L 176.609,-55.3235 L 176.117,-56
 L 175.777,-56.7639 L 175.603,-57.5819 L 175.603,-58.4181 L 175.777,-59.2361 L 176.117,-60 L 176.609,-60.6765
 L 177.23,-61.2361 L 177.954,-61.6542 L 178.75,-61.9126 L 179.581,-62 L 230.9,-62 L 232.136,-61.8042
 L 232.9,-61.4641 L 233.577,-60.9726 L 234.136,-60.3511 L 234.554,-59.627 L 234.813,-58.8316 L 234.9,-58
 L 234.9,-28.4766 L 234.814,-27.651 L 234.557,-26.8553 L 234.14,-26.1304 L 233.581,-25.5081 L 232.905,-25.0156
 L 232.142,-24.6743 L 231.324,-24.4992 L 230.488,-24.4979 z
M 492.876,-24.4992 L 492.058,-24.6743 L 491.295,-25.0156 L 490.619,-25.5081 L 490.06,-26.1304 L 489.643,-26.8553
 L 489.386,-27.651 L 489.3,-28.4766 L 489.3,-58 L 489.387,-58.8316 L 489.646,-59.627 L 490.064,-60.3511
 L 490.623,-60.9726 L 491.3,-61.4641 L 492.064,-61.8042 L 493.3,-62 L 544.619,-62 L 545.45,-61.9126
 L 546.246,-61.6542 L 546.97,-61.2361 L 547.591,-60.6765 L 548.083,-60 L 548.423,-59.2361 L 548.597,-58.4181
 L 548.597,-57.5819 L 548.423,-56.7639 L 548.083,-56 L 547.591,-55.3235 L 546.97,-54.7639 L 546.613,-54.5328
 L 495.295,-25.0094 L 494.53,-24.6705 L 493.712,-24.4979 z
M 111.47,-24.6705 L 110.705,-25.0094 L 59.3867,-54.5328 L 59.0302,-54.7639 L 58.4088,-55.3235 L 57.9173,-56
 L 57.5771,-56.7639 L 57.4033,-57.5819 L 57.4033,-58.4181 L 57.5771,-59.2361 L 57.9173,-60 L 58.4088,-60.6765
 L 59.0302,-61.2361 L 59.7544,-61.6542 L 60.5497,-61.9126 L 61.3814,-62 L 112.7,-62 L 113.936,-61.8042
 L 114.7,-61.4641 L 115.377,-60.9726 L 115.936,-60.3511 L 116.354,-59.627 L 116.613,-58.8316 L 116.7,-58
 L 116.7,-28.4766 L 116.614,-27.651 L 116.357,-26.8553 L 115.94,-26.1304 L 115.381,-25.5081 L 114.705,-25.0156
 L 113.942,-24.6743 L 113.124,-24.4992 L 112.288,-24.4979 z
M 374.676,-24.4992 L 373.858,-24.6743 L 373.095,-25.0156 L 372.419,-25.5081 L 371.86,-26.1304 L 371.443,-26.8553
 L 371.186,-27.651 L 371.1,-28.4766 L 371.1,-58 L 371.187,-58.8316 L 371.446,-59.627 L 371.864,-60.3511
 L 372.423,-60.9726 L 373.1,-61.4641 L 373.864,-61.8042 L 375.1,-62 L 426.419,-62 L 427.25,-61.9126
 L 428.046,-61.6542 L 428.77,-61.2361 L 429.391,-60.6765 L 429.883,-60 L 430.223,-59.2361 L 430.397,-58.4181
 L 430.397,-57.5819 L 430.223,-56.7639 L 429.883,-56 L 429.391,-55.3235 L 428.77,-54.7639 L 428.413,-54.5328
 L 377.095,-25.0094 L 376.33,-24.6705 L 375.512,-24.4979 z
M 256.482,-22.1912 L 255.664,-22.365 L 254.9,-22.7052 L 254.223,-23.1967 L 253.664,-23.8181 L 253.246,-24.5423
 L 252.987,-25.3376 L 252.9,-26.1693 L 252.9,-53.8307 L 252.986,-54.6563 L 253.243,-55.452 L 253.66,-56.1769
 L 254.219,-56.7992 L 254.895,-57.2917 L 255.658,-57.6331 L 256.476,-57.8082 L 257.312,-57.8095 L 258.13,-57.6369
 L 258.895,-57.2979 L 282.936,-43.4672 L 283.622,-42.9684 L 284.181,-42.3461 L 284.598,-41.6213 L 284.855,-40.8256
 L 284.941,-39.9938 L 284.852,-39.1623 L 284.593,-38.3674 L 284.174,-37.6439 L 283.613,-37.0233 L 282.936,-36.5328
 L 258.895,-22.7021 L 258.136,-22.365 L 257.318,-22.1912 z
M 347.87,-22.3631 L 347.105,-22.7021 L 323.064,-36.5328 L 322.378,-37.0316 L 321.819,-37.6539 L 321.402,-38.3787
 L 321.145,-39.1744 L 321.059,-40.0062 L 321.148,-40.8377 L 321.407,-41.6326 L 321.826,-42.3561 L 322.387,-42.9767
 L 323.064,-43.4672 L 347.105,-57.2979 L 347.864,-57.635 L 348.682,-57.8088 L 349.518,-57.8088 L 350.336,-57.635
 L 351.1,-57.2948 L 351.777,-56.8033 L 352.336,-56.1819 L 352.754,-55.4577 L 353.013,-54.6624 L 353.1,-53.8307
 L 353.1,-26.1693 L 353.014,-25.3436 L 352.757,-24.5479 L 352.34,-23.8231 L 351.781,-23.2008 L 351.105,-22.7082
 L 350.342,-22.3669 L 349.524,-22.1918 L 348.688,-22.1905 z
M 138.7,-18 L 137.464,-18.1958 L 136.7,-18.5359 L 136.023,-19.0274 L 135.464,-19.6489 L 135.046,-20.373
 L 134.787,-21.1684 L 134.7,-22 L 134.7,-51.5234 L 134.786,-52.349 L 135.043,-53.1447 L 135.46,-53.8695
 L 136.019,-54.4918 L 136.695,-54.9844 L 137.458,-55.3257 L 138.276,-55.5008 L 139.112,-55.5021 L 139.93,-55.3295
 L 140.695,-54.9906 L 192.013,-25.4672 L 192.37,-25.2361 L 192.991,-24.6765 L 193.483,-24 L 193.823,-23.2361
 L 193.997,-22.4181 L 193.997,-21.5819 L 193.823,-20.7639 L 193.483,-20 L 192.991,-19.3235 L 192.37,-18.7639
 L 191.646,-18.3458 L 190.85,-18.0874 L 190.019,-18 z
M 415.981,-18 L 415.15,-18.0874 L 414.354,-18.3458 L 413.63,-18.7639 L 413.009,-19.3235 L 412.517,-20
 L 412.177,-20.7639 L 412.003,-21.5819 L 412.003,-22.4181 L 412.177,-23.2361 L 412.517,-24 L 413.009,-24.6765
 L 413.63,-25.2361 L 413.987,-25.4672 L 465.305,-54.9906 L 466.07,-55.3295 L 466.888,-55.5021 L 467.724,-55.5008
 L 468.542,-55.3257 L 469.305,-54.9844 L 469.981,-54.4918 L 470.54,-53.8695 L 470.957,-53.1447 L 471.214,-52.349
 L 471.3,-51.5234 L 471.3,-22 L 471.213,-21.1684 L 470.954,-20.373 L 470.536,-19.6489 L 469.977,-19.0274
 L 469.3,-18.5359 L 468.536,-18.1958 L 467.3,-18 z
M 22,-18 L 20.7639,-18.1958 L 20,-18.5359 L 19.3235,-19.0274 L 18.7639,-19.6489 L 18.3458,-20.373
 L 18.0874,-21.1684 L 18,-22 L 18,-50.6604 L 18.0861,-51.4861 L 18.3433,-52.2818 L 18.7603,-53.0066
 L 19.3189,-53.6289 L 19.9947,-54.1215 L 20.7581,-54.4628 L 21.5757,-54.6379 L 22.412,-54.6392 L 23.2302,-54.4666
 L 23.9947,-54.1276 L 73.8133,-25.4672 L 74.1698,-25.2361 L 74.7912,-24.6765 L 75.2827,-24 L 75.6228,-23.2361
 L 75.7967,-22.4181 L 75.7967,-21.5819 L 75.6228,-20.7639 L 75.2827,-20 L 74.7912,-19.3235 L 74.1698,-18.7639
 L 73.4456,-18.3458 L 72.6503,-18.0874 L 71.8186,-18 z
M 534.181,-18 L 533.35,-18.0874 L 532.554,-18.3458 L 531.83,-18.7639 L 531.209,-19.3235 L 530.717,-20
 L 530.377,-20.7639 L 530.203,-21.5819 L 530.203,-22.4181 L 530.377,-23.2361 L 530.717,-24 L 531.209,-24.6765
 L 531.83,-25.2361 L 532.187,-25.4672 L 582.005,-54.1276 L 582.77,-54.4666 L 583.588,-54.6392 L 584.424,-54.6379
 L 585.242,-54.4628 L 586.005,-54.1215 L 586.681,-53.6289 L 587.24,-53.0066 L 587.657,-52.2818 L 587.914,-51.4861
 L 588,-50.6604 L 588,-22 L 587.913,-21.1684 L 587.654,-20.373 L 587.236,-19.6489 L 586.677,-19.0274
 L 586,-18.5359 L 585.236,-18.1958 L 584,-18 z
M 293.771,-18 L 293.346,-18.0226 L 292.529,-18.1977 L 291.765,-18.539 L 291.09,-19.0316 L 290.531,-19.6539
 L 290.114,-20.3787 L 289.857,-21.1744 L 289.771,-22.0062 L 289.859,-22.8377 L 290.119,-23.6326 L 290.538,-24.3561
 L 291.099,-24.9767 L 291.776,-25.4672 L 301.005,-30.7768 L 301.758,-31.1119 L 302.576,-31.287 L 303.412,-31.2883
 L 304.23,-31.1157 L 304.995,-30.7768 L 314.224,-25.4672 L 314.58,-25.2361 L 315.202,-24.6765 L 315.693,-24
 L 316.034,-23.2361 L 316.207,-22.4181 L 316.207,-21.5819 L 316.034,-20.7639 L 315.693,-20 L 315.202,-19.3235
 L 314.58,-18.7639 L 313.856,-18.3458 L 313.061,-18.0874 L 312.229,-18 z
" stroke="black" fill="lightgray" stroke-width="0.5"/>
</svg>
