<?xml version="1.0" standalone="no"?>
<!DOCTYPE svg PUBLIC "-//W3C//DTD SVG 1.1//EN" "http://www.w3.org/Graphics/SVG/1.1/DTD/svg11.dtd">
<svg width="533mm" height="80mm" viewBox="0 -80 533 80" xmlns="http://www.w3.org/2000/svg" version="1.1">
<title>OpenSCAD Model</title>
<path d="
M 533,-80 L 0,-80 L 0,-0 L 4.95,-0 L 4.95,-6 L 5.00572,-6.53017
 L 5.17046,-7.03717 L 5.437,-7.49884 L 5.79372,-7.895 L 6.22499,-8.20836 L 6.71201,-8.42519 L 7.23344,-8.53603
 L 7.76654,-8.53603 L 8.28798,-8.42519 L 8.77499,-8.20836 L 9.20627,-7.895 L 9.56299,-7.49884 L 9.82953,-7.03717
 L 9.99426,-6.53017 L 10.05,-6 L 10.05,-0 L 134.45,-0 L 134.45,-6 L 134.506,-6.53017
 L 134.67,-7.03717 L 134.937,-7.49884 L 135.294,-7.895 L 135.725,-8.20836 L 136.212,-8.42519 L 136.733,-8.53603
 L 137.267,-8.53603 L 137.788,-8.42519 L 138.275,-8.20836 L 138.706,-7.895 L 139.063,-7.49884 L 139.33,-7.03717
 L 139.494,-6.53017 L 139.55,-6 L 139.55,-0 L 263.95,-0 L 263.95,-6 L 264.006,-6.53017
 L 264.17,-7.03717 L 264.437,-7.49884 L 264.794,-7.895 L 265.225,-8.20836 L 265.712,-8.42519 L 266.233,-8.53603
 L 266.767,-8.53603 L 267.288,-8.42519 L 267.775,-8.20836 L 268.206,-7.895 L 268.563,-7.49884 L 268.83,-7.03717
 L 268.994,-6.53017 L 269.05,-6 L 269.05,-0 L 393.45,-0 L 393.45,-6 L 393.506,-6.53017
 L 393.67,-7.03717 L 393.937,-7.49884 L 394.294,-7.895 L 394.725,-8.20836 L 395.212,-8.42519 L 395.733,-8.53603
 L 396.267,-8.53603 L 396.788,-8.42519 L 397.275,-8.20836 L 397.706,-7.895 L 398.063,-7.49884 L 398.33,-7.03717
 L 398.494,-6.53017 L 398.55,-6 L 398.55,-0 L 522.95,-0 L 522.95,-6 L 523.006,-6.53017
 L 523.17,-7.03717 L 523.437,-7.49884 L 523.794,-7.895 L 524.225,-8.20836 L 524.712,-8.42519 L 525.233,-8.53603
 L 525.767,-8.53603 L 526.288,-8.42519 L 526.775,-8.20836 L 527.206,-7.895 L 527.563,-7.49884 L 527.83,-7.03717
 L 527.994,-6.53017 L 528.05,-6 L 528.05,-0 L 533,-0 z
M 6.98573,-55.607 L 6.47708,-55.6875 L 5.97964,-55.8208 L 5.49887,-56.0054 L 5.04001,-56.2392 L 4.60811,-56.5196
 L 4.20789,-56.8437 L 3.84373,-57.2079 L 3.51964,-57.6081 L 3.23917,-58.04 L 3.00537,-58.4989 L 2.82082,-58.9796
 L 2.68752,-59.4771 L 2.60696,-59.9857 L 2.58,-60.5 L 2.60696,-61.0143 L 2.68752,-61.5229 L 2.82082,-62.0204
 L 3.00537,-62.5011 L 3.23917,-62.96 L 3.51964,-63.3919 L 3.84373,-63.7921 L 4.20789,-64.1563 L 4.60811,-64.4804
 L 4.95001,-64.7024 L 4.95001,-74 L 5.00574,-74.5302 L 5.17047,-75.0372 L 5.43701,-75.4988 L 5.79373,-75.895
 L 6.22501,-76.2084 L 6.71202,-76.4252 L 7.23346,-76.536 L 7.76654,-76.536 L 8.28798,-76.4252 L 8.77499,-76.2084
 L 9.20627,-75.895 L 9.56299,-75.4988 L 9.82953,-75.0372 L 9.99426,-74.5302 L 10.05,-74 L 10.05,-64.7024
 L 10.3919,-64.4804 L 10.7921,-64.1563 L 11.1563,-63.7921 L 11.4804,-63.3919 L 11.7608,-62.96 L 11.9946,-62.5011
 L 12.1792,-62.0204 L 12.3125,-61.5229 L 12.393,-61.0143 L 12.42,-60.5 L 12.393,-59.9857 L 12.3125,-59.4771
 L 12.1792,-58.9796 L 11.9946,-58.4989 L 11.7608,-58.04 L 11.4804,-57.6081 L 11.1563,-57.2079 L 10.7921,-56.8437
 L 10.3919,-56.5196 L 9.95999,-56.2392 L 9.50113,-56.0054 L 9.02036,-55.8208 L 8.52292,-55.6875 L 8.01427,-55.607
 L 7.5,-55.58 z
M 136.486,-55.607 L 135.977,-55.6875 L 135.48,-55.8208 L 134.999,-56.0054 L 134.54,-56.2392 L 134.108,-56.5196
 L 133.708,-56.8437 L 133.344,-57.2079 L 133.02,-57.6081 L 132.739,-58.04 L 132.505,-58.4989 L 132.321,-58.9796
 L 132.188,-59.4771 L 132.107,-59.9857 L 132.08,-60.5 L 132.107,-61.0143 L 132.188,-61.5229 L 132.321,-62.0204
 L 132.505,-62.5011 L 132.739,-62.96 L 133.02,-63.3919 L 133.344,-63.7921 L 133.708,-64.1563 L 134.108,-64.4804
 L 134.45,-64.7024 L 134.45,-74 L 134.506,-74.5302 L 134.67,-75.0372 L 134.937,-75.4988 L 135.294,-75.895
 L 135.725,-76.2084 L 136.212,-76.4252 L 136.733,-76.536 L 137.267,-76.536 L 137.788,-76.4252 L 138.275,-76.2084
 L 138.706,-75.895 L 139.063,-75.4988 L 139.33,-75.0372 L 139.494,-74.5302 L 139.55,-74 L 139.55,-64.7024
 L 139.892,-64.4804 L 140.292,-64.1563 L 140.656,-63.7921 L 140.98,-63.3919 L 141.261,-62.96 L 141.495,-62.5011
 L 141.679,-62.0204 L 141.812,-61.5229 L 141.893,-61.0143 L 141.92,-60.5 L 141.893,-59.9857 L 141.812,-59.4771
 L 141.679,-58.9796 L 141.495,-58.4989 L 141.261,-58.04 L 140.98,-57.6081 L 140.656,-57.2079 L 140.292,-56.8437
 L 139.892,-56.5196 L 139.46,-56.2392 L 139.001,-56.0054 L 138.52,-55.8208 L 138.023,-55.6875 L 137.514,-55.607
 L 137,-55.58 z
M 265.986,-55.607 L 265.477,-55.6875 L 264.98,-55.8208 L 264.499,-56.0054 L 264.04,-56.2392 L 263.608,-56.5196
 L 263.208,-56.8437 L 262.844,-57.2079 L 262.52,-57.6081 L 262.239,-58.04 L 262.005,-58.4989 L 261.821,-58.9796
 L 261.688,-59.4771 L 261.607,-59.9857 L 261.58,-60.5 L 261.607,-61.0143 L 261.688,-61.5229 L 261.821,-62.0204
 L 262.005,-62.5011 L 262.239,-62.96 L 262.52,-63.3919 L 262.844,-63.7921 L 263.208,-64.1563 L 263.608,-64.4804
 L 263.95,-64.7024 L 263.95,-74 L 264.006,-74.5302 L 264.17,-75.0372 L 264.437,-75.4988 L 264.794,-75.895
 L 265.225,-76.2084 L 265.712,-76.4252 L 266.233,-76.536 L 266.767,-76.536 L 267.288,-76.4252 L 267.775,-76.2084
 L 268.206,-75.895 L 268.563,-75.4988 L 268.83,-75.0372 L 268.994,-74.5302 L 269.05,-74 L 269.05,-64.7024
 L 269.392,-64.4804 L 269.792,-64.1563 L 270.156,-63.7921 L 270.48,-63.3919 L 270.761,-62.96 L 270.995,-62.5011
 L 271.179,-62.0204 L 271.312,-61.5229 L 271.393,-61.0143 L 271.42,-60.5 L 271.393,-59.9857 L 271.312,-59.4771
 L 271.179,-58.9796 L 270.995,-58.4989 L 270.761,-58.04 L 270.48,-57.6081 L 270.156,-57.2079 L 269.792,-56.8437
 L 269.392,-56.5196 L 268.96,-56.2392 L 268.501,-56.0054 L 268.02,-55.8208 L 267.523,-55.6875 L 267.014,-55.607
 L 266.5,-55.58 z
M 395.486,-55.607 L 394.977,-55.6875 L 394.48,-55.8208 L 393.999,-56.0054 L 393.54,-56.2392 L 393.108,-56.5196
 L 392.708,-56.8437 L 392.344,-57.2079 L 392.02,-57.6081 L 391.739,-58.04 L 391.505,-58.4989 L 391.321,-58.9796
 L 391.188,-59.4771 L 391.107,-59.9857 L 391.08,-60.5 L 391.107,-61.0143 L 391.188,-61.5229 L 391.321,-62.0204
 L 391.505,-62.5011 L 391.739,-62.96 L 392.02,-63.3919 L 392.344,-63.7921 L 392.708,-64.1563 L 393.108,-64.4804
 L 393.45,-64.7024 L 393.45,-74 L 393.506,-74.5302 L 393.67,-75.0372 L 393.937,-75.4988 L 394.294,-75.895
 L 394.725,-76.2084 L 395.212,-76.4252 L 395.733,-76.536 L 396.267,-76.536 L 396.788,-76.4252 L 397.275,-76.2084
 L 397.706,-75.895 L 398.063,-75.4988 L 398.33,-75.0372 L 398.494,-74.5302 L 398.55,-74 L 398.55,-64.7024
 L 398.892,-64.4804 L 399.292,-64.1563 L 399.656,-63.7921 L 399.98,-63.3919 L 400.261,-62.96 L 400.495,-62.5011
 L 400.679,-62.0204 L 400.812,-61.5229 L 400.893,-61.0143 L 400.92,-60.5 L 400.893,-59.9857 L 400.812,-59.4771
 L 400.679,-58.9796 L 400.495,-58.4989 L 400.261,-58.04 L 399.98,-57.6081 L 399.656,-57.2079 L 399.292,-56.8437
 L 398.892,-56.5196 L 398.46,-56.2392 L 398.001,-56.0054 L 397.52,-55.8208 L 397.023,-55.6875 L 396.514,-55.607
 L 396,-55.58 z
M 524.986,-55.607 L 524.477,-55.6875 L 523.98,-55.8208 L 523.499,-56.0054 L 523.04,-56.2392 L 522.608,-56.5196
 L 522.208,-56.8437 L 521.844,-57.2079 L 521.52,-57.6081 L 521.239,-58.04 L 521.005,-58.4989 L 520.821,-58.9796
 L 520.688,-59.4771 L 520.607,-59.9857 L 520.58,-60.5 L 520.607,-61.0143 L 520.688,-61.5229 L 520.821,-62.0204
 L 521.005,-62.5011 L 521.239,-62.96 L 521.52,-63.3919 L 521.844,-63.7921 L 522.208,-64.1563 L 522.608,-64.4804
 L 522.95,-64.7024 L 522.95,-74 L 523.006,-74.5302 L 523.17,-75.0372 L 523.437,-75.4988 L 523.794,-75.895
 L 524.225,-76.2084 L 524.712,-76.4252 L 525.233,-76.536 L 525.767,-76.536 L 526.288,-76.4252 L 526.775,-76.2084
 L 527.206,-75.895 L 527.563,-75.4988 L 527.83,-75.0372 L 527.994,-74.5302 L 528.05,-74 L 528.05,-64.7024
 L 528.392,-64.4804 L 528.792,-64.1563 L 529.156,-63.7921 L 529.48,-63.3919 L 529.761,-62.96 L 529.995,-62.5011
 L 530.179,-62.0204 L 530.312,-61.5229 L 530.393,-61.0143 L 530.42,-60.5 L 530.393,-59.9857 L 530.312,-59.4771
 L 530.179,-58.9796 L 529.995,-58.4989 L 529.761,-58.04 L 529.48,-57.6081 L 529.156,-57.2079 L 528.792,-56.8437
 L 528.392,-56.5196 L 527.96,-56.2392 L 527.501,-56.0054 L 527.02,-55.8208 L 526.523,-55.6875 L 526.014,-55.607
 L 525.5,-55.58 z
M 278.923,-23.5396 L 278.113,-23.746 L 277.363,-24.1165 L 276.707,-24.6347 L 276.172,-25.2781 L 275.784,-26.0185
 L 275.557,-26.8235 L 275.5,-27.4977 L 275.5,-58 L 275.587,-58.8316 L 275.846,-59.627 L 276.264,-60.3511
 L 276.823,-60.9726 L 277.5,-61.4641 L 278.264,-61.8042 L 279.5,-62 L 337.589,-62 L 338.421,-61.9126
 L 339.216,-61.6542 L 339.94,-61.2361 L 340.562,-60.6765 L 341.053,-60 L 341.393,-59.2361 L 341.567,-58.4181
 L 341.567,-57.5819 L 341.393,-56.7639 L 341.053,-56 L 340.562,-55.3235 L 339.94,-54.7639 L 339.449,-54.4585
 L 281.36,-23.9562 L 280.583,-23.647 L 279.758,-23.5061 z
M 252.417,-23.647 L 251.64,-23.9562 L 193.551,-54.4585 L 193.06,-54.7639 L 192.438,-55.3235 L 191.947,-56
 L 191.607,-56.7639 L 191.433,-57.5819 L 191.433,-58.4181 L 191.607,-59.2361 L 191.947,-60 L 192.438,-60.6765
 L 193.06,-61.2361 L 193.784,-61.6542 L 194.579,-61.9126 L 195.411,-62 L 253.5,-62 L 254.736,-61.8042
 L 255.5,-61.4641 L 256.177,-60.9726 L 256.736,-60.3511 L 257.154,-59.627 L 257.413,-58.8316 L 257.5,-58
 L 257.5,-27.4977 L 257.443,-26.8235 L 257.216,-26.0185 L 256.828,-25.2781 L 256.293,-24.6347 L 255.637,-24.1165
 L 254.887,-23.746 L 254.077,-23.5396 L 253.242,-23.5061 z
M 408.423,-23.5396 L 407.613,-23.746 L 406.863,-24.1165 L 406.207,-24.6347 L 405.672,-25.2781 L 405.284,-26.0185
 L 405.057,-26.8235 L 405,-27.4977 L 405,-58 L 405.087,-58.8316 L 405.346,-59.627 L 405.764,-60.3511
 L 406.323,-60.9726 L 407,-61.4641 L 407.764,-61.8042 L 409,-62 L 467.089,-62 L 467.921,-61.9126
 L 468.716,-61.6542 L 469.44,-61.2361 L 470.062,-60.6765 L 470.553,-60 L 470.893,-59.2361 L 471.067,-58.4181
 L 471.067,-57.5819 L 470.893,-56.7639 L 470.553,-56 L 470.062,-55.3235 L 469.44,-54.7639 L 468.949,-54.4585
 L 410.86,-23.9562 L 410.083,-23.647 L 409.258,-23.5061 z
M 122.917,-23.647 L 122.14,-23.9562 L 64.0515,-54.4585 L 63.5599,-54.7639 L 62.9385,-55.3235 L 62.447,-56
 L 62.1068,-56.7639 L 61.933,-57.5819 L 61.933,-58.4181 L 62.1068,-59.2361 L 62.447,-60 L 62.9385,-60.6765
 L 63.5599,-61.2361 L 64.2841,-61.6542 L 65.0794,-61.9126 L 65.9111,-62 L 124,-62 L 125.236,-61.8042
 L 126,-61.4641 L 126.677,-60.9726 L 127.236,-60.3511 L 127.654,-59.627 L 127.913,-58.8316 L 128,-58
 L 128,-27.4977 L 127.943,-26.8235 L 127.716,-26.0185 L 127.328,-25.2781 L 126.793,-24.6347 L 126.137,-24.1165
 L 125.387,-23.746 L 124.577,-23.5396 L 123.742,-23.5061 z
M 324.911,-18 L 324.079,-18.0874 L 323.284,-18.3458 L 322.56,-18.7639 L 321.938,-19.3235 L 321.447,-20
 L 321.107,-20.7639 L 320.933,-21.5819 L 320.933,-22.4181 L 321.107,-23.2361 L 321.447,-24 L 321.938,-24.6765
 L 322.56,-25.2361 L 323.051,-25.5415 L 381.14,-56.0437 L 381.917,-56.353 L 382.742,-56.4939 L 383.577,-56.4604
 L 384.387,-56.2539 L 385.137,-55.8835 L 385.793,-55.3652 L 386.328,-54.7219 L 386.716,-53.9815 L 386.943,-53.1765
 L 387,-52.5023 L 387,-22 L 386.913,-21.1684 L 386.654,-20.373 L 386.236,-19.6489 L 385.677,-19.0274
 L 385,-18.5359 L 384.236,-18.1958 L 383,-18 z
M 150,-18 L 148.764,-18.1958 L 148,-18.5359 L 147.323,-19.0274 L 146.764,-19.6489 L 146.346,-20.373
 L 146.087,-21.1684 L 146,-22 L 146,-52.5023 L 146.057,-53.1765 L 146.284,-53.9815 L 146.672,-54.7219
 L 147.207,-55.3652 L 147.863,-55.8835 L 148.613,-56.2539 L 149.423,-56.4604 L 150.258,-56.4939 L 151.083,-56.353
 L 151.86,-56.0437 L 209.949,-25.5415 L 210.44,-25.2361 L 211.062,-24.6765 L 211.553,-24 L 211.893,-23.2361
 L 212.067,-22.4181 L 212.067,-21.5819 L 211.893,-20.7639 L 211.553,-20 L 211.062,-19.3235 L 210.44,-18.7639
 L 209.716,-18.3458 L 208.921,-18.0874 L 208.089,-18 z
M 22,-18 L 20.7639,-18.1958 L 20,-18.5359 L 19.3235,-19.0274 L 18.7639,-19.6489 L 18.3458,-20.373
 L 18.0874,-21.1684 L 18,-22 L 18,-51.7146 L 18.0572,-52.3889 L 18.2836,-53.1939 L 18.6723,-53.9342
 L 19.2065,-54.5776 L 19.8628,-55.0958 L 20.6125,-55.4663 L 21.4228,-55.6728 L 22.2584,-55.7063 L 23.0827,-55.5653
 L 23.8596,-55.2561 L 80.4485,-25.5415 L 80.9401,-25.2361 L 81.5615,-24.6765 L 82.053,-24 L 82.3932,-23.2361
 L 82.567,-22.4181 L 82.567,-21.5819 L 82.3932,-20.7639 L 82.053,-20 L 81.5615,-19.3235 L 80.9401,-18.7639
 L 80.2159,-18.3458 L 79.4206,-18.0874 L 78.5889,-18 z
M 454.411,-18 L 453.579,-18.0874 L 452.784,-18.3458 L 452.06,-18.7639 L 451.438,-19.3235 L 450.947,-20
 L 450.607,-20.7639 L 450.433,-21.5819 L 450.433,-22.4181 L 450.607,-23.2361 L 450.947,-24 L 451.438,-24.6765
 L 452.06,-25.2361 L 452.551,-25.5415 L 509.14,-55.2561 L 509.917,-55.5653 L 510.742,-55.7063 L 511.577,-55.6728
 L 512.387,-55.4663 L 513.137,-55.0958 L 513.793,-54.5776 L 514.328,-53.9342 L 514.716,-53.1939 L 514.943,-52.3889
 L 515,-51.7146 L 515,-22 L 514.913,-21.1684 L 514.654,-20.373 L 514.236,-19.6489 L 513.677,-19.0274
 L 513,-18.5359 L 512.236,-18.1958 L 511,-18 z
" stroke="black" fill="lightgray" stroke-width="0.5"/>
</svg>
