<?xml version="1.0" standalone="no"?>
<!DOCTYPE svg PUBLIC "-//W3C//DTD SVG 1.1//EN" "http://www.w3.org/Graphics/SVG/1.1/DTD/svg11.dtd">
<svg width="545mm" height="80mm" viewBox="0 -80 545 80" xmlns="http://www.w3.org/2000/svg" version="1.1">
<title>OpenSCAD Model</title>
<path d="
M 545,-80 L 0,-80 L 0,-0 L 4.95,-0 L 4.95,-6 L 5.00572,-6.53017
 L 5.17046,-7.03717 L 5.437,-7.49884 L 5.79372,-7.895 L 6.22499,-8.20836 L 6.71201,-8.42519 L 7.23344,-8.53603
 L 7.76654,-8.53603 L 8.28798,-8.42519 L 8.77499,-8.20836 L 9.20627,-7.895 L 9.56299,-7.49884 L 9.82953,-7.03717
 L 9.99426,-6.53017 L 10.05,-6 L 10.05,-0 L 137.45,-0 L 137.45,-6 L 137.506,-6.53017
 L 137.67,-7.03717 L 137.937,-7.49884 L 138.294,-7.895 L 138.725,-8.20836 L 139.212,-8.42519 L 139.733,-8.53603
 L 140.267,-8.53603 L 140.788,-8.42519 L 141.275,-8.20836 L 141.706,-7.895 L 142.063,-7.49884 L 142.33,-7.03717
 L 142.494,-6.53017 L 142.55,-6 L 142.55,-0 L 269.95,-0 L 269.95,-6 L 270.006,-6.53017
 L 270.17,-7.03717 L 270.437,-7.49884 L 270.794,-7.895 L 271.225,-8.20836 L 271.712,-8.42519 L 272.233,-8.53603
 L 272.767,-8.53603 L 273.288,-8.42519 L 273.775,-8.20836 L 274.206,-7.895 L 274.563,-7.49884 L 274.83,-7.03717
 L 274.994,-6.53017 L 275.05,-6 L 275.05,-0 L 402.45,-0 L 402.45,-6 L 402.506,-6.53017
 L 402.67,-7.03717 L 402.937,-7.49884 L 403.294,-7.895 L 403.725,-8.20836 L 404.212,-8.42519 L 404.733,-8.53603
 L 405.267,-8.53603 L 405.788,-8.42519 L 406.275,-8.20836 L 406.706,-7.895 L 407.063,-7.49884 L 407.33,-7.03717
 L 407.494,-6.53017 L 407.55,-6 L 407.55,-0 L 534.95,-0 L 534.95,-6 L 535.006,-6.53017
 L 535.17,-7.03717 L 535.437,-7.49884 L 535.794,-7.895 L 536.225,-8.20836 L 536.712,-8.42519 L 537.233,-8.53603
 L 537.767,-8.53603 L 538.288,-8.42519 L 538.775,-8.20836 L 539.206,-7.895 L 539.563,-7.49884 L 539.83,-7.03717
 L 539.994,-6.53017 L 540.05,-6 L 540.05,-0 L 545,-0 z
M 6.98573,-55.607 L 6.47708,-55.6875 L 5.97964,-55.8208 L 5.49887,-56.0054 L 5.04001,-56.2392 L 4.60811,-56.5196
 L 4.20789,-56.8437 L 3.84373,-57.2079 L 3.51964,-57.6081 L 3.23917,-58.04 L 3.00537,-58.4989 L 2.82082,-58.9796
 L 2.68752,-59.4771 L 2.60696,-59.9857 L 2.58,-60.5 L 2.60696,-61.0143 L 2.68752,-61.5229 L 2.82082,-62.0204
 L 3.00537,-62.5011 L 3.23917,-62.96 L 3.51964,-63.3919 L 3.84373,-63.7921 L 4.20789,-64.1563 L 4.60811,-64.4804
 L 4.95001,-64.7024 L 4.95001,-74 L 5.00574,-74.5302 L 5.17047,-75.0372 L 5.43701,-75.4988 L 5.79373,-75.895
 L 6.22501,-76.2084 L 6.71202,-76.4252 L 7.23346,-76.536 L 7.76654,-76.536 L 8.28798,-76.4252 L 8.77499,-76.2084
 L 9.20627,-75.895 L 9.56299,-75.4988 L 9.82953,-75.0372 L 9.99426,-74.5302 L 10.05,-74 L 10.05,-64.7024
 L 10.3919,-64.4804 L 10.7921,-64.1563 L 11.1563,-63.7921 L 11.4804,-63.3919 L 11.7608,-62.96 L 11.9946,-62.5011
 L 12.1792,-62.0204 L 12.3125,-61.5229 L 12.393,-61.0143 L 12.42,-60.5 L 12.393,-59.9857 L 12.3125,-59.4771
 L 12.1792,-58.9796 L 11.9946,-58.4989 L 11.7608,-58.04 L 11.4804,-57.6081 L 11.1563,-57.2079 L 10.7921,-56.8437
 L 10.3919,-56.5196 L 9.95999,-56.2392 L 9.50113,-56.0054 L 9.02036,-55.8208 L 8.52292,-55.6875 L 8.01427,-55.607
 L 7.5,-55.58 z
M 139.486,-55.607 L 138.977,-55.6875 L 138.48,-55.8208 L 137.999,-56.0054 L 137.54,-56.2392 L 137.108,-56.5196
 L 136.708,-56.8437 L 136.344,-57.2079 L 136.02,-57.6081 L 135.739,-58.04 L 135.505,-58.4989 L 135.321,-58.9796
 L 135.188,-59.4771 L 135.107,-59.9857 L 135.08,-60.5 L 135.107,-61.0143 L 135.188,-61.5229 L 135.321,-62.0204
 L 135.505,-62.5011 L 135.739,-62.96 L 136.02,-63.3919 L 136.344,-63.7921 L 136.708,-64.1563 L 137.108,-64.4804
 L 137.45,-64.7024 L 137.45,-74 L 137.506,-74.5302 L 137.67,-75.0372 L 137.937,-75.4988 L 138.294,-75.895
 L 138.725,-76.2084 L 139.212,-76.4252 L 139.733,-76.536 L 140.267,-76.536 L 140.788,-76.4252 L 141.275,-76.2084
 L 141.706,-75.895 L 142.063,-75.4988 L 142.33,-75.0372 L 142.494,-74.5302 L 142.55,-74 L 142.55,-64.7024
 L 142.892,-64.4804 L 143.292,-64.1563 L 143.656,-63.7921 L 143.98,-63.3919 L 144.261,-62.96 L 144.495,-62.5011
 L 144.679,-62.0204 L 144.812,-61.5229 L 144.893,-61.0143 L 144.92,-60.5 L 144.893,-59.9857 L 144.812,-59.4771
 L 144.679,-58.9796 L 144.495,-58.4989 L 144.261,-58.04 L 143.98,-57.6081 L 143.656,-57.2079 L 143.292,-56.8437
 L 142.892,-56.5196 L 142.46,-56.2392 L 142.001,-56.0054 L 141.52,-55.8208 L 141.023,-55.6875 L 140.514,-55.607
 L 140,-55.58 z
M 271.986,-55.607 L 271.477,-55.6875 L 270.98,-55.8208 L 270.499,-56.0054 L 270.04,-56.2392 L 269.608,-56.5196
 L 269.208,-56.8437 L 268.844,-57.2079 L 268.52,-57.6081 L 268.239,-58.04 L 268.005,-58.4989 L 267.821,-58.9796
 L 267.688,-59.4771 L 267.607,-59.9857 L 267.58,-60.5 L 267.607,-61.0143 L 267.688,-61.5229 L 267.821,-62.0204
 L 268.005,-62.5011 L 268.239,-62.96 L 268.52,-63.3919 L 268.844,-63.7921 L 269.208,-64.1563 L 269.608,-64.4804
 L 269.95,-64.7024 L 269.95,-74 L 270.006,-74.5302 L 270.17,-75.0372 L 270.437,-75.4988 L 270.794,-75.895
 L 271.225,-76.2084 L 271.712,-76.4252 L 272.233,-76.536 L 272.767,-76.536 L 273.288,-76.4252 L 273.775,-76.2084
 L 274.206,-75.895 L 274.563,-75.4988 L 274.83,-75.0372 L 274.994,-74.5302 L 275.05,-74 L 275.05,-64.7024
 L 275.392,-64.4804 L 275.792,-64.1563 L 276.156,-63.7921 L 276.48,-63.3919 L 276.761,-62.96 L 276.995,-62.5011
 L 277.179,-62.0204 L 277.312,-61.5229 L 277.393,-61.0143 L 277.42,-60.5 L 277.393,-59.9857 L 277.312,-59.4771
 L 277.179,-58.9796 L 276.995,-58.4989 L 276.761,-58.04 L 276.48,-57.6081 L 276.156,-57.2079 L 275.792,-56.8437
 L 275.392,-56.5196 L 274.96,-56.2392 L 274.501,-56.0054 L 274.02,-55.8208 L 273.523,-55.6875 L 273.014,-55.607
 L 272.5,-55.58 z
M 404.486,-55.607 L 403.977,-55.6875 L 403.48,-55.8208 L 402.999,-56.0054 L 402.54,-56.2392 L 402.108,-56.5196
 L 401.708,-56.8437 L 401.344,-57.2079 L 401.02,-57.6081 L 400.739,-58.04 L 400.505,-58.4989 L 400.321,-58.9796
 L 400.188,-59.4771 L 400.107,-59.9857 L 400.08,-60.5 L 400.107,-61.0143 L 400.188,-61.5229 L 400.321,-62.0204
 L 400.505,-62.5011 L 400.739,-62.96 L 401.02,-63.3919 L 401.344,-63.7921 L 401.708,-64.1563 L 402.108,-64.4804
 L 402.45,-64.7024 L 402.45,-74 L 402.506,-74.5302 L 402.67,-75.0372 L 402.937,-75.4988 L 403.294,-75.895
 L 403.725,-76.2084 L 404.212,-76.4252 L 404.733,-76.536 L 405.267,-76.536 L 405.788,-76.4252 L 406.275,-76.2084
 L 406.706,-75.895 L 407.063,-75.4988 L 407.33,-75.0372 L 407.494,-74.5302 L 407.55,-74 L 407.55,-64.7024
 L 407.892,-64.4804 L 408.292,-64.1563 L 408.656,-63.7921 L 408.98,-63.3919 L 409.261,-62.96 L 409.495,-62.5011
 L 409.679,-62.0204 L 409.812,-61.5229 L 409.893,-61.0143 L 409.92,-60.5 L 409.893,-59.9857 L 409.812,-59.4771
 L 409.679,-58.9796 L 409.495,-58.4989 L 409.261,-58.04 L 408.98,-57.6081 L 408.656,-57.2079 L 408.292,-56.8437
 L 407.892,-56.5196 L 407.46,-56.2392 L 407.001,-56.0054 L 406.52,-55.8208 L 406.023,-55.6875 L 405.514,-55.607
 L 405,-55.58 z
M 536.986,-55.607 L 536.477,-55.6875 L 535.98,-55.8208 L 535.499,-56.0054 L 535.04,-56.2392 L 534.608,-56.5196
 L 534.208,-56.8437 L 533.844,-57.2079 L 533.52,-57.6081 L 533.239,-58.04 L 533.005,-58.4989 L 532.821,-58.9796
 L 532.688,-59.4771 L 532.607,-59.9857 L 532.58,-60.5 L 532.607,-61.0143 L 532.688,-61.5229 L 532.821,-62.0204
 L 533.005,-62.5011 L 533.239,-62.96 L 533.52,-63.3919 L 533.844,-63.7921 L 534.208,-64.1563 L 534.608,-64.4804
 L 534.95,-64.7024 L 534.95,-74 L 535.006,-74.5302 L 535.17,-75.0372 L 535.437,-75.4988 L 535.794,-75.895
 L 536.225,-76.2084 L 536.712,-76.4252 L 537.233,-76.536 L 537.767,-76.536 L 538.288,-76.4252 L 538.775,-76.2084
 L 539.206,-75.895 L 539.563,-75.4988 L 539.83,-75.0372 L 539.994,-74.5302 L 540.05,-74 L 540.05,-64.7024
 L 540.392,-64.4804 L 540.792,-64.1563 L 541.156,-63.7921 L 541.48,-63.3919 L 541.761,-62.96 L 541.995,-62.5011
 L 542.179,-62.0204 L 542.312,-61.5229 L 542.393,-61.0143 L 542.42,-60.5 L 542.393,-59.9857 L 542.312,-59.4771
 L 542.179,-58.9796 L 541.995,-58.4989 L 541.761,-58.04 L 541.48,-57.6081 L 541.156,-57.2079 L 540.792,-56.8437
 L 540.392,-56.5196 L 539.96,-56.2392 L 539.501,-56.0054 L 539.02,-55.8208 L 538.523,-55.6875 L 538.014,-55.607
 L 537.5,-55.58 z
M 284.886,-23.3133 L 284.077,-23.5274 L 283.331,-23.9048 L 282.68,-24.4292 L 282.152,-25.0775 L 281.77,-25.8215
 L 281.551,-26.6286 L 281.5,-27.2659 L 281.5,-58 L 281.587,-58.8316 L 281.846,-59.627 L 282.264,-60.3511
 L 282.823,-60.9726 L 283.5,-61.4641 L 284.264,-61.8042 L 285.5,-62 L 345.386,-62 L 346.218,-61.9126
 L 347.013,-61.6542 L 347.738,-61.2361 L 348.359,-60.6765 L 348.85,-60 L 349.191,-59.2361 L 349.364,-58.4181
 L 349.364,-57.5819 L 349.191,-56.7639 L 348.85,-56 L 348.359,-55.3235 L 347.738,-54.7639 L 347.213,-54.4413
 L 287.326,-23.7072 L 286.547,-23.4052 L 285.721,-23.272 z
M 258.453,-23.4052 L 257.674,-23.7072 L 197.787,-54.4413 L 197.262,-54.7639 L 196.641,-55.3235 L 196.15,-56
 L 195.809,-56.7639 L 195.636,-57.5819 L 195.636,-58.4181 L 195.809,-59.2361 L 196.15,-60 L 196.641,-60.6765
 L 197.262,-61.2361 L 197.987,-61.6542 L 198.782,-61.9126 L 199.614,-62 L 259.5,-62 L 260.736,-61.8042
 L 261.5,-61.4641 L 262.177,-60.9726 L 262.736,-60.3511 L 263.154,-59.627 L 263.413,-58.8316 L 263.5,-58
 L 263.5,-27.2659 L 263.449,-26.6286 L 263.23,-25.8215 L 262.848,-25.0775 L 262.32,-24.4292 L 261.669,-23.9048
 L 260.923,-23.5274 L 260.114,-23.3133 L 259.279,-23.272 z
M 417.386,-23.3133 L 416.577,-23.5274 L 415.831,-23.9048 L 415.18,-24.4292 L 414.652,-25.0775 L 414.27,-25.8215
 L 414.051,-26.6286 L 414,-27.2659 L 414,-58 L 414.087,-58.8316 L 414.346,-59.627 L 414.764,-60.3511
 L 415.323,-60.9726 L 416,-61.4641 L 416.764,-61.8042 L 418,-62 L 477.886,-62 L 478.718,-61.9126
 L 479.513,-61.6542 L 480.238,-61.2361 L 480.859,-60.6765 L 481.35,-60 L 481.691,-59.2361 L 481.864,-58.4181
 L 481.864,-57.5819 L 481.691,-56.7639 L 481.35,-56 L 480.859,-55.3235 L 480.238,-54.7639 L 479.713,-54.4413
 L 419.826,-23.7072 L 419.047,-23.4052 L 418.221,-23.272 z
M 125.953,-23.4052 L 125.174,-23.7072 L 65.2873,-54.4413 L 64.7625,-54.7639 L 64.1411,-55.3235 L 63.6495,-56
 L 63.3094,-56.7639 L 63.1355,-57.5819 L 63.1355,-58.4181 L 63.3094,-59.2361 L 63.6495,-60 L 64.1411,-60.6765
 L 64.7625,-61.2361 L 65.4867,-61.6542 L 66.282,-61.9126 L 67.1136,-62 L 127,-62 L 128.236,-61.8042
 L 129,-61.4641 L 129.677,-60.9726 L 130.236,-60.3511 L 130.654,-59.627 L 130.913,-58.8316 L 131,-58
 L 131,-27.2659 L 130.949,-26.6286 L 130.73,-25.8215 L 130.348,-25.0775 L 129.82,-24.4292 L 129.169,-23.9048
 L 128.423,-23.5274 L 127.614,-23.3133 L 126.779,-23.272 z
M 332.114,-18 L 331.282,-18.0874 L 330.487,-18.3458 L 329.763,-18.7639 L 329.141,-19.3235 L 328.65,-20
 L 328.309,-20.7639 L 328.136,-21.5819 L 328.136,-22.4181 L 328.309,-23.2361 L 328.65,-24 L 329.141,-24.6765
 L 329.763,-25.2361 L 330.287,-25.5587 L 390.174,-56.2928 L 390.953,-56.5948 L 391.779,-56.728 L 392.614,-56.6867
 L 393.423,-56.4726 L 394.169,-56.0952 L 394.82,-55.5708 L 395.348,-54.9225 L 395.73,-54.1785 L 395.949,-53.3714
 L 396,-52.7341 L 396,-22 L 395.913,-21.1684 L 395.654,-20.373 L 395.236,-19.6489 L 394.677,-19.0274
 L 394,-18.5359 L 393.236,-18.1958 L 392,-18 z
M 153,-18 L 151.764,-18.1958 L 151,-18.5359 L 150.323,-19.0274 L 149.764,-19.6489 L 149.346,-20.373
 L 149.087,-21.1684 L 149,-22 L 149,-52.7341 L 149.051,-53.3714 L 149.27,-54.1785 L 149.652,-54.9225
 L 150.18,-55.5708 L 150.831,-56.0952 L 151.577,-56.4726 L 152.386,-56.6867 L 153.221,-56.728 L 154.047,-56.5948
 L 154.826,-56.2928 L 214.713,-25.5587 L 215.237,-25.2361 L 215.859,-24.6765 L 216.35,-24 L 216.691,-23.2361
 L 216.864,-22.4181 L 216.864,-21.5819 L 216.691,-20.7639 L 216.35,-20 L 215.859,-19.3235 L 215.237,-18.7639
 L 214.513,-18.3458 L 213.718,-18.0874 L 212.886,-18 z
M 22,-18 L 20.7639,-18.1958 L 20,-18.5359 L 19.3235,-19.0274 L 18.7639,-19.6489 L 18.3458,-20.373
 L 18.0874,-21.1684 L 18,-22 L 18,-51.9643 L 18.0511,-52.6016 L 18.2699,-53.4087 L 18.6517,-54.1526
 L 19.1798,-54.801 L 19.8312,-55.3253 L 20.5774,-55.7028 L 21.3858,-55.9169 L 22.221,-55.9582 L 23.0466,-55.825
 L 23.8264,-55.523 L 82.2127,-25.5587 L 82.7375,-25.2361 L 83.3589,-24.6765 L 83.8504,-24 L 84.1906,-23.2361
 L 84.3644,-22.4181 L 84.3644,-21.5819 L 84.1906,-20.7639 L 83.8504,-20 L 83.3589,-19.3235 L 82.7375,-18.7639
 L 82.0133,-18.3458 L 81.218,-18.0874 L 80.3864,-18 z
M 464.614,-18 L 463.782,-18.0874 L 462.987,-18.3458 L 462.263,-18.7639 L 461.641,-19.3235 L 461.15,-20
 L 460.809,-20.7639 L 460.636,-21.5819 L 460.636,-22.4181 L 460.809,-23.2361 L 461.15,-24 L 461.641,-24.6765
 L 462.263,-25.2361 L 462.787,-25.5587 L 521.174,-55.523 L 521.953,-55.825 L 522.779,-55.9582 L 523.614,-55.9169
 L 524.423,-55.7028 L 525.169,-55.3253 L 525.82,-54.801 L 526.348,-54.1526 L 526.73,-53.4087 L 526.949,-52.6016
 L 527,-51.9643 L 527,-22 L 526.913,-21.1684 L 526.654,-20.373 L 526.236,-19.6489 L 525.677,-19.0274
 L 525,-18.5359 L 524.236,-18.1958 L 523,-18 z
" stroke="black" fill="lightgray" stroke-width="0.5"/>
</svg>
