<?xml version="1.0" standalone="no"?>
<!DOCTYPE svg PUBLIC "-//W3C//DTD SVG 1.1//EN" "http://www.w3.org/Graphics/SVG/1.1/DTD/svg11.dtd">
<svg width="698mm" height="80mm" viewBox="0 -80 698 80" xmlns="http://www.w3.org/2000/svg" version="1.1">
<title>OpenSCAD Model</title>
<path d="
M 698,-80 L 0,-80 L 0,-0 L 4.95,-0 L 4.95,-6 L 5.00572,-6.53017
 L 5.17046,-7.03717 L 5.437,-7.49884 L 5.79372,-7.895 L 6.22499,-8.20836 L 6.71201,-8.42519 L 7.23344,-8.53603
 L 7.76654,-8.53603 L 8.28798,-8.42519 L 8.77499,-8.20836 L 9.20627,-7.895 L 9.56299,-7.49884 L 9.82953,-7.03717
 L 9.99426,-6.53017 L 10.05,-6 L 10.05,-0 L 141.55,-0 L 141.55,-6 L 141.606,-6.53017
 L 141.77,-7.03717 L 142.037,-7.49884 L 142.394,-7.895 L 142.825,-8.20836 L 143.312,-8.42519 L 143.833,-8.53603
 L 144.367,-8.53603 L 144.888,-8.42519 L 145.375,-8.20836 L 145.806,-7.895 L 146.163,-7.49884 L 146.43,-7.03717
 L 146.594,-6.53017 L 146.65,-6 L 146.65,-0 L 278.15,-0 L 278.15,-6 L 278.206,-6.53017
 L 278.37,-7.03717 L 278.637,-7.49884 L 278.994,-7.895 L 279.425,-8.20836 L 279.912,-8.42519 L 280.433,-8.53603
 L 280.967,-8.53603 L 281.488,-8.42519 L 281.975,-8.20836 L 282.406,-7.895 L 282.763,-7.49884 L 283.03,-7.03717
 L 283.194,-6.53017 L 283.25,-6 L 283.25,-0 L 414.75,-0 L 414.75,-6 L 414.806,-6.53017
 L 414.97,-7.03717 L 415.237,-7.49884 L 415.594,-7.895 L 416.025,-8.20836 L 416.512,-8.42519 L 417.033,-8.53603
 L 417.567,-8.53603 L 418.088,-8.42519 L 418.575,-8.20836 L 419.006,-7.895 L 419.363,-7.49884 L 419.63,-7.03717
 L 419.794,-6.53017 L 419.85,-6 L 419.85,-0 L 551.35,-0 L 551.35,-6 L 551.406,-6.53017
 L 551.57,-7.03717 L 551.837,-7.49884 L 552.194,-7.895 L 552.625,-8.20836 L 553.112,-8.42519 L 553.633,-8.53603
 L 554.167,-8.53603 L 554.688,-8.42519 L 555.175,-8.20836 L 555.606,-7.895 L 555.963,-7.49884 L 556.23,-7.03717
 L 556.394,-6.53017 L 556.45,-6 L 556.45,-0 L 687.95,-0 L 687.95,-6 L 688.006,-6.53017
 L 688.17,-7.03717 L 688.437,-7.49884 L 688.794,-7.895 L 689.225,-8.20836 L 689.712,-8.42519 L 690.233,-8.53603
 L 690.767,-8.53603 L 691.288,-8.42519 L 691.775,-8.20836 L 692.206,-7.895 L 692.563,-7.49884 L 692.83,-7.03717
 L 692.994,-6.53017 L 693.05,-6 L 693.05,-0 L 698,-0 z
M 6.98573,-55.607 L 6.47708,-55.6875 L 5.97964,-55.8208 L 5.49887,-56.0054 L 5.04001,-56.2392 L 4.60811,-56.5196
 L 4.20789,-56.8437 L 3.84373,-57.2079 L 3.51964,-57.6081 L 3.23917,-58.04 L 3.00537,-58.4989 L 2.82082,-58.9796
 L 2.68752,-59.4771 L 2.60696,-59.9857 L 2.58,-60.5 L 2.60696,-61.0143 L 2.68752,-61.5229 L 2.82082,-62.0204
 L 3.00537,-62.5011 L 3.23917,-62.96 L 3.51964,-63.3919 L 3.84373,-63.7921 L 4.20789,-64.1563 L 4.60811,-64.4804
 L 4.95001,-64.7024 L 4.95001,-74 L 5.00574,-74.5302 L 5.17047,-75.0372 L 5.43701,-75.4988 L 5.79373,-75.895
 L 6.22501,-76.2084 L 6.71202,-76.4252 L 7.23346,-76.536 L 7.76654,-76.536 L 8.28798,-76.4252 L 8.77499,-76.2084
 L 9.20627,-75.895 L 9.56299,-75.4988 L 9.82953,-75.0372 L 9.99426,-74.5302 L 10.05,-74 L 10.05,-64.7024
 L 10.3919,-64.4804 L 10.7921,-64.1563 L 11.1563,-63.7921 L 11.4804,-63.3919 L 11.7608,-62.96 L 11.9946,-62.5011
 L 12.1792,-62.0204 L 12.3125,-61.5229 L 12.393,-61.0143 L 12.42,-60.5 L 12.393,-59.9857 L 12.3125,-59.4771
 L 12.1792,-58.9796 L 11.9946,-58.4989 L 11.7608,-58.04 L 11.4804,-57.6081 L 11.1563,-57.2079 L 10.7921,-56.8437
 L 10.3919,-56.5196 L 9.95999,-56.2392 L 9.50113,-56.0054 L 9.02036,-55.8208 L 8.52292,-55.6875 L 8.01427,-55.607
 L 7.5,-55.58 z
M 143.586,-55.607 L 143.077,-55.6875 L 142.58,-55.8208 L 142.099,-56.0054 L 141.64,-56.2392 L 141.208,-56.5196
 L 140.808,-56.8437 L 140.444,-57.2079 L 140.12,-57.6081 L 139.839,-58.04 L 139.605,-58.4989 L 139.421,-58.9796
 L 139.288,-59.4771 L 139.207,-59.9857 L 139.18,-60.5 L 139.207,-61.0143 L 139.288,-61.5229 L 139.421,-62.0204
 L 139.605,-62.5011 L 139.839,-62.96 L 140.12,-63.3919 L 140.444,-63.7921 L 140.808,-64.1563 L 141.208,-64.4804
 L 141.55,-64.7024 L 141.55,-74 L 141.606,-74.5302 L 141.77,-75.0372 L 142.037,-75.4988 L 142.394,-75.895
 L 142.825,-76.2084 L 143.312,-76.4252 L 143.833,-76.536 L 144.367,-76.536 L 144.888,-76.4252 L 145.375,-76.2084
 L 145.806,-75.895 L 146.163,-75.4988 L 146.43,-75.0372 L 146.594,-74.5302 L 146.65,-74 L 146.65,-64.7024
 L 146.992,-64.4804 L 147.392,-64.1563 L 147.756,-63.7921 L 148.08,-63.3919 L 148.361,-62.96 L 148.595,-62.5011
 L 148.779,-62.0204 L 148.912,-61.5229 L 148.993,-61.0143 L 149.02,-60.5 L 148.993,-59.9857 L 148.912,-59.4771
 L 148.779,-58.9796 L 148.595,-58.4989 L 148.361,-58.04 L 148.08,-57.6081 L 147.756,-57.2079 L 147.392,-56.8437
 L 146.992,-56.5196 L 146.56,-56.2392 L 146.101,-56.0054 L 145.62,-55.8208 L 145.123,-55.6875 L 144.614,-55.607
 L 144.1,-55.58 z
M 280.186,-55.607 L 279.677,-55.6875 L 279.18,-55.8208 L 278.699,-56.0054 L 278.24,-56.2392 L 277.808,-56.5196
 L 277.408,-56.8437 L 277.044,-57.2079 L 276.72,-57.6081 L 276.439,-58.04 L 276.205,-58.4989 L 276.021,-58.9796
 L 275.888,-59.4771 L 275.807,-59.9857 L 275.78,-60.5 L 275.807,-61.0143 L 275.888,-61.5229 L 276.021,-62.0204
 L 276.205,-62.5011 L 276.439,-62.96 L 276.72,-63.3919 L 277.044,-63.7921 L 277.408,-64.1563 L 277.808,-64.4804
 L 278.15,-64.7024 L 278.15,-74 L 278.206,-74.5302 L 278.37,-75.0372 L 278.637,-75.4988 L 278.994,-75.895
 L 279.425,-76.2084 L 279.912,-76.4252 L 280.433,-76.536 L 280.967,-76.536 L 281.488,-76.4252 L 281.975,-76.2084
 L 282.406,-75.895 L 282.763,-75.4988 L 283.03,-75.0372 L 283.194,-74.5302 L 283.25,-74 L 283.25,-64.7024
 L 283.592,-64.4804 L 283.992,-64.1563 L 284.356,-63.7921 L 284.68,-63.3919 L 284.961,-62.96 L 285.195,-62.5011
 L 285.379,-62.0204 L 285.512,-61.5229 L 285.593,-61.0143 L 285.62,-60.5 L 285.593,-59.9857 L 285.512,-59.4771
 L 285.379,-58.9796 L 285.195,-58.4989 L 284.961,-58.04 L 284.68,-57.6081 L 284.356,-57.2079 L 283.992,-56.8437
 L 283.592,-56.5196 L 283.16,-56.2392 L 282.701,-56.0054 L 282.22,-55.8208 L 281.723,-55.6875 L 281.214,-55.607
 L 280.7,-55.58 z
M 416.786,-55.607 L 416.277,-55.6875 L 415.78,-55.8208 L 415.299,-56.0054 L 414.84,-56.2392 L 414.408,-56.5196
 L 414.008,-56.8437 L 413.644,-57.2079 L 413.32,-57.6081 L 413.039,-58.04 L 412.805,-58.4989 L 412.621,-58.9796
 L 412.488,-59.4771 L 412.407,-59.9857 L 412.38,-60.5 L 412.407,-61.0143 L 412.488,-61.5229 L 412.621,-62.0204
 L 412.805,-62.5011 L 413.039,-62.96 L 413.32,-63.3919 L 413.644,-63.7921 L 414.008,-64.1563 L 414.408,-64.4804
 L 414.75,-64.7024 L 414.75,-74 L 414.806,-74.5302 L 414.97,-75.0372 L 415.237,-75.4988 L 415.594,-75.895
 L 416.025,-76.2084 L 416.512,-76.4252 L 417.033,-76.536 L 417.567,-76.536 L 418.088,-76.4252 L 418.575,-76.2084
 L 419.006,-75.895 L 419.363,-75.4988 L 419.63,-75.0372 L 419.794,-74.5302 L 419.85,-74 L 419.85,-64.7024
 L 420.192,-64.4804 L 420.592,-64.1563 L 420.956,-63.7921 L 421.28,-63.3919 L 421.561,-62.96 L 421.795,-62.5011
 L 421.979,-62.0204 L 422.112,-61.5229 L 422.193,-61.0143 L 422.22,-60.5 L 422.193,-59.9857 L 422.112,-59.4771
 L 421.979,-58.9796 L 421.795,-58.4989 L 421.561,-58.04 L 421.28,-57.6081 L 420.956,-57.2079 L 420.592,-56.8437
 L 420.192,-56.5196 L 419.76,-56.2392 L 419.301,-56.0054 L 418.82,-55.8208 L 418.323,-55.6875 L 417.814,-55.607
 L 417.3,-55.58 z
M 553.386,-55.607 L 552.877,-55.6875 L 552.38,-55.8208 L 551.899,-56.0054 L 551.44,-56.2392 L 551.008,-56.5196
 L 550.608,-56.8437 L 550.244,-57.2079 L 549.92,-57.6081 L 549.639,-58.04 L 549.405,-58.4989 L 549.221,-58.9796
 L 549.088,-59.4771 L 549.007,-59.9857 L 548.98,-60.5 L 549.007,-61.0143 L 549.088,-61.5229 L 549.221,-62.0204
 L 549.405,-62.5011 L 549.639,-62.96 L 549.92,-63.3919 L 550.244,-63.7921 L 550.608,-64.1563 L 551.008,-64.4804
 L 551.35,-64.7024 L 551.35,-74 L 551.406,-74.5302 L 551.57,-75.0372 L 551.837,-75.4988 L 552.194,-75.895
 L 552.625,-76.2084 L 553.112,-76.4252 L 553.633,-76.536 L 554.167,-76.536 L 554.688,-76.4252 L 555.175,-76.2084
 L 555.606,-75.895 L 555.963,-75.4988 L 556.23,-75.0372 L 556.394,-74.5302 L 556.45,-74 L 556.45,-64.7024
 L 556.792,-64.4804 L 557.192,-64.1563 L 557.556,-63.7921 L 557.88,-63.3919 L 558.161,-62.96 L 558.395,-62.5011
 L 558.579,-62.0204 L 558.712,-61.5229 L 558.793,-61.0143 L 558.82,-60.5 L 558.793,-59.9857 L 558.712,-59.4771
 L 558.579,-58.9796 L 558.395,-58.4989 L 558.161,-58.04 L 557.88,-57.6081 L 557.556,-57.2079 L 557.192,-56.8437
 L 556.792,-56.5196 L 556.36,-56.2392 L 555.901,-56.0054 L 555.42,-55.8208 L 554.923,-55.6875 L 554.414,-55.607
 L 553.9,-55.58 z
M 689.986,-55.607 L 689.477,-55.6875 L 688.98,-55.8208 L 688.499,-56.0054 L 688.04,-56.2392 L 687.608,-56.5196
 L 687.208,-56.8437 L 686.844,-57.2079 L 686.52,-57.6081 L 686.239,-58.04 L 686.005,-58.4989 L 685.821,-58.9796
 L 685.688,-59.4771 L 685.607,-59.9857 L 685.58,-60.5 L 685.607,-61.0143 L 685.688,-61.5229 L 685.821,-62.0204
 L 686.005,-62.5011 L 686.239,-62.96 L 686.52,-63.3919 L 686.844,-63.7921 L 687.208,-64.1563 L 687.608,-64.4804
 L 687.95,-64.7024 L 687.95,-74 L 688.006,-74.5302 L 688.17,-75.0372 L 688.437,-75.4988 L 688.794,-75.895
 L 689.225,-76.2084 L 689.712,-76.4252 L 690.233,-76.536 L 690.767,-76.536 L 691.288,-76.4252 L 691.775,-76.2084
 L 692.206,-75.895 L 692.563,-75.4988 L 692.83,-75.0372 L 692.994,-74.5302 L 693.05,-74 L 693.05,-64.7024
 L 693.392,-64.4804 L 693.792,-64.1563 L 694.156,-63.7921 L 694.48,-63.3919 L 694.761,-62.96 L 694.995,-62.5011
 L 695.179,-62.0204 L 695.312,-61.5229 L 695.393,-61.0143 L 695.42,-60.5 L 695.393,-59.9857 L 695.312,-59.4771
 L 695.179,-58.9796 L 694.995,-58.4989 L 694.761,-58.04 L 694.48,-57.6081 L 694.156,-57.2079 L 693.792,-56.8437
 L 693.392,-56.5196 L 692.96,-56.2392 L 692.501,-56.0054 L 692.02,-55.8208 L 691.523,-55.6875 L 691.014,-55.607
 L 690.5,-55.58 z
M 348.001,-48.403 L 347.217,-48.6954 L 335.719,-54.4192 L 335.151,-54.7639 L 334.529,-55.3235 L 334.038,-56
 L 333.698,-56.7639 L 333.524,-57.5819 L 333.524,-58.4181 L 333.698,-59.2361 L 334.038,-60 L 334.529,-60.6765
 L 335.151,-61.2361 L 335.875,-61.6542 L 336.67,-61.9126 L 337.502,-62 L 360.498,-62 L 361.161,-61.9447
 L 361.966,-61.7208 L 362.708,-61.3342 L 363.353,-60.8019 L 363.873,-60.1471 L 364.246,-59.3985 L 364.454,-58.5888
 L 364.49,-57.7533 L 364.352,-56.9286 L 364.045,-56.1508 L 363.583,-55.4538 L 362.986,-54.868 L 362.281,-54.4192
 L 350.783,-48.6954 L 349.663,-48.3315 L 348.828,-48.2799 z
M 266.701,-23.1065 L 265.917,-23.3988 L 203.603,-54.4191 L 203.035,-54.7639 L 202.413,-55.3235 L 201.922,-56
 L 201.581,-56.7639 L 201.408,-57.5819 L 201.408,-58.4181 L 201.581,-59.2361 L 201.922,-60 L 202.413,-60.6765
 L 203.035,-61.2361 L 203.759,-61.6542 L 204.554,-61.9126 L 205.386,-62 L 267.7,-62 L 268.936,-61.8042
 L 269.7,-61.4641 L 270.377,-60.9726 L 270.936,-60.3511 L 271.354,-59.627 L 271.613,-58.8316 L 271.7,-58
 L 271.7,-26.9797 L 271.656,-26.3909 L 271.448,-25.5812 L 271.075,-24.8326 L 270.555,-24.1778 L 269.91,-23.6455
 L 269.168,-23.259 L 268.363,-23.035 L 267.528,-22.9834 z
M 566.237,-23.035 L 565.432,-23.259 L 564.69,-23.6455 L 564.045,-24.1778 L 563.525,-24.8326 L 563.152,-25.5812
 L 562.944,-26.3909 L 562.9,-26.9797 L 562.9,-58 L 562.987,-58.8316 L 563.246,-59.627 L 563.664,-60.3511
 L 564.223,-60.9726 L 564.9,-61.4641 L 565.664,-61.8042 L 566.9,-62 L 629.214,-62 L 630.046,-61.9126
 L 630.841,-61.6542 L 631.565,-61.2361 L 632.187,-60.6765 L 632.678,-60 L 633.019,-59.2361 L 633.192,-58.4181
 L 633.192,-57.5819 L 633.019,-56.7639 L 632.678,-56 L 632.187,-55.3235 L 631.565,-54.7639 L 630.997,-54.4191
 L 568.683,-23.3988 L 567.899,-23.1065 L 567.072,-22.9834 z
M 130.101,-23.1065 L 129.317,-23.3988 L 67.0031,-54.4191 L 66.4346,-54.7639 L 65.8131,-55.3235 L 65.3216,-56
 L 64.9815,-56.7639 L 64.8076,-57.5819 L 64.8076,-58.4181 L 64.9815,-59.2361 L 65.3216,-60 L 65.8131,-60.6765
 L 66.4346,-61.2361 L 67.1588,-61.6542 L 67.9541,-61.9126 L 68.7857,-62 L 131.1,-62 L 132.336,-61.8042
 L 133.1,-61.4641 L 133.777,-60.9726 L 134.336,-60.3511 L 134.754,-59.627 L 135.013,-58.8316 L 135.1,-58
 L 135.1,-26.9797 L 135.056,-26.3909 L 134.848,-25.5812 L 134.475,-24.8326 L 133.955,-24.1778 L 133.31,-23.6455
 L 132.568,-23.259 L 131.763,-23.035 L 130.928,-22.9834 z
M 429.637,-23.035 L 428.832,-23.259 L 428.09,-23.6455 L 427.445,-24.1778 L 426.925,-24.8326 L 426.552,-25.5812
 L 426.344,-26.3909 L 426.3,-26.9797 L 426.3,-58 L 426.387,-58.8316 L 426.646,-59.627 L 427.064,-60.3511
 L 427.623,-60.9726 L 428.3,-61.4641 L 429.064,-61.8042 L 430.3,-62 L 492.614,-62 L 493.446,-61.9126
 L 494.241,-61.6542 L 494.965,-61.2361 L 495.587,-60.6765 L 496.078,-60 L 496.419,-59.2361 L 496.592,-58.4181
 L 496.592,-57.5819 L 496.419,-56.7639 L 496.078,-56 L 495.587,-55.3235 L 494.965,-54.7639 L 494.397,-54.4191
 L 432.083,-23.3988 L 431.299,-23.1065 L 430.472,-22.9834 z
M 293.282,-20.7696 L 292.464,-20.9435 L 291.7,-21.2836 L 291.023,-21.7751 L 290.464,-22.3965 L 290.046,-23.1207
 L 289.787,-23.916 L 289.7,-24.7477 L 289.7,-55.2523 L 289.744,-55.8411 L 289.952,-56.6508 L 290.325,-57.3994
 L 290.845,-58.0542 L 291.49,-58.5865 L 292.232,-58.9731 L 293.037,-59.1971 L 293.872,-59.2486 L 294.699,-59.1255
 L 295.483,-58.8332 L 326.122,-43.5809 L 326.549,-43.3342 L 327.194,-42.8019 L 327.714,-42.1471 L 328.087,-41.3985
 L 328.296,-40.5888 L 328.332,-39.7533 L 328.193,-38.9286 L 327.886,-38.1508 L 327.424,-37.4538 L 326.827,-36.868
 L 326.122,-36.4191 L 295.483,-21.1668 L 294.936,-20.9435 L 294.118,-20.7696 z
M 403.301,-20.8745 L 402.517,-21.1668 L 371.878,-36.4191 L 371.451,-36.6658 L 370.806,-37.1981 L 370.286,-37.8529
 L 369.913,-38.6015 L 369.704,-39.4112 L 369.668,-40.2467 L 369.807,-41.0714 L 370.114,-41.8492 L 370.576,-42.5462
 L 371.173,-43.132 L 371.878,-43.5809 L 402.517,-58.8332 L 403.064,-59.0566 L 403.882,-59.2304 L 404.718,-59.2304
 L 405.536,-59.0566 L 406.3,-58.7164 L 406.977,-58.2249 L 407.536,-57.6035 L 407.954,-56.8793 L 408.213,-56.084
 L 408.3,-55.2523 L 408.3,-24.7477 L 408.256,-24.1589 L 408.048,-23.3492 L 407.675,-22.6006 L 407.155,-21.9458
 L 406.51,-21.4135 L 405.768,-21.0269 L 404.963,-20.8029 L 404.128,-20.7514 z
M 157.1,-18 L 155.864,-18.1958 L 155.1,-18.5359 L 154.423,-19.0274 L 153.864,-19.6489 L 153.446,-20.373
 L 153.187,-21.1684 L 153.1,-22 L 153.1,-53.0203 L 153.144,-53.6091 L 153.352,-54.4188 L 153.725,-55.1674
 L 154.245,-55.8221 L 154.89,-56.3544 L 155.632,-56.741 L 156.437,-56.965 L 157.272,-57.0166 L 158.099,-56.8935
 L 158.883,-56.6011 L 221.197,-25.5809 L 221.765,-25.2361 L 222.387,-24.6765 L 222.878,-24 L 223.218,-23.2361
 L 223.392,-22.4181 L 223.392,-21.5819 L 223.218,-20.7639 L 222.878,-20 L 222.387,-19.3235 L 221.765,-18.7639
 L 221.041,-18.3458 L 220.246,-18.0874 L 219.414,-18 z
M 478.586,-18 L 477.754,-18.0874 L 476.959,-18.3458 L 476.235,-18.7639 L 475.613,-19.3235 L 475.122,-20
 L 474.781,-20.7639 L 474.608,-21.5819 L 474.608,-22.4181 L 474.781,-23.2361 L 475.122,-24 L 475.613,-24.6765
 L 476.235,-25.2361 L 476.803,-25.5809 L 539.117,-56.6011 L 539.901,-56.8935 L 540.728,-57.0166 L 541.563,-56.965
 L 542.368,-56.741 L 543.11,-56.3544 L 543.755,-55.8221 L 544.275,-55.1674 L 544.648,-54.4188 L 544.856,-53.6091
 L 544.9,-53.0203 L 544.9,-22 L 544.813,-21.1684 L 544.554,-20.373 L 544.136,-19.6489 L 543.577,-19.0274
 L 542.9,-18.5359 L 542.136,-18.1958 L 540.9,-18 z
M 22,-18 L 20.7639,-18.1958 L 20,-18.5359 L 19.3235,-19.0274 L 18.7639,-19.6489 L 18.3458,-20.373
 L 18.0874,-21.1684 L 18,-22 L 18,-52.2736 L 18.0436,-52.8624 L 18.2524,-53.6721 L 18.6251,-54.4207
 L 19.1452,-55.0754 L 19.7902,-55.6077 L 20.5317,-55.9943 L 21.3374,-56.2183 L 22.172,-56.2699 L 22.9991,-56.1468
 L 23.7826,-55.8544 L 84.5968,-25.5809 L 85.1654,-25.2361 L 85.7868,-24.6765 L 86.2784,-24 L 86.6185,-23.2361
 L 86.7924,-22.4181 L 86.7924,-21.5819 L 86.6185,-20.7639 L 86.2784,-20 L 85.7868,-19.3235 L 85.1654,-18.7639
 L 84.4412,-18.3458 L 83.6459,-18.0874 L 82.8143,-18 z
M 615.186,-18 L 614.354,-18.0874 L 613.559,-18.3458 L 612.835,-18.7639 L 612.213,-19.3235 L 611.722,-20
 L 611.382,-20.7639 L 611.208,-21.5819 L 611.208,-22.4181 L 611.382,-23.2361 L 611.722,-24 L 612.213,-24.6765
 L 612.835,-25.2361 L 613.403,-25.5809 L 674.217,-55.8544 L 675.001,-56.1468 L 675.828,-56.2699 L 676.663,-56.2183
 L 677.468,-55.9943 L 678.21,-55.6077 L 678.855,-55.0754 L 679.375,-54.4207 L 679.748,-53.6721 L 679.956,-52.8624
 L 680,-52.2736 L 680,-22 L 679.913,-21.1684 L 679.654,-20.373 L 679.236,-19.6489 L 678.677,-19.0274
 L 678,-18.5359 L 677.236,-18.1958 L 676,-18 z
M 337.502,-18 L 336.839,-18.0553 L 336.034,-18.2792 L 335.292,-18.6658 L 334.647,-19.1981 L 334.127,-19.8529
 L 333.754,-20.6015 L 333.545,-21.4112 L 333.51,-22.2467 L 333.648,-23.0714 L 333.955,-23.8492 L 334.417,-24.5462
 L 335.014,-25.132 L 335.719,-25.5808 L 347.217,-31.3046 L 348.337,-31.6685 L 349.172,-31.7201 L 349.999,-31.597
 L 350.783,-31.3046 L 362.281,-25.5808 L 362.849,-25.2361 L 363.471,-24.6765 L 363.962,-24 L 364.302,-23.2361
 L 364.476,-22.4181 L 364.476,-21.5819 L 364.302,-20.7639 L 363.962,-20 L 363.471,-19.3235 L 362.849,-18.7639
 L 362.125,-18.3458 L 361.33,-18.0874 L 360.498,-18 z
" stroke="black" fill="lightgray" stroke-width="0.5"/>
</svg>
