<?xml version="1.0" standalone="no"?>
<!DOCTYPE svg PUBLIC "-//W3C//DTD SVG 1.1//EN" "http://www.w3.org/Graphics/SVG/1.1/DTD/svg11.dtd">
<svg width="966mm" height="80mm" viewBox="0 -80 966 80" xmlns="http://www.w3.org/2000/svg" version="1.1">
<title>OpenSCAD Model</title>
<path d="
M 966,-80 L 0,-80 L 0,-0 L 4.95,-0 L 4.95,-6 L 5.00572,-6.53017
 L 5.17046,-7.03717 L 5.437,-7.49884 L 5.79372,-7.895 L 6.22499,-8.20836 L 6.71201,-8.42519 L 7.23344,-8.53603
 L 7.76654,-8.53603 L 8.28798,-8.42519 L 8.77499,-8.20836 L 9.20627,-7.895 L 9.56299,-7.49884 L 9.82953,-7.03717
 L 9.99426,-6.53017 L 10.05,-6 L 10.05,-0 L 195.15,-0 L 195.15,-6 L 195.206,-6.53017
 L 195.37,-7.03717 L 195.637,-7.49884 L 195.994,-7.895 L 196.425,-8.20836 L 196.912,-8.42519 L 197.433,-8.53603
 L 197.967,-8.53603 L 198.488,-8.42519 L 198.975,-8.20836 L 199.406,-7.895 L 199.763,-7.49884 L 200.03,-7.03717
 L 200.194,-6.53017 L 200.25,-6 L 200.25,-0 L 385.35,-0 L 385.35,-6 L 385.406,-6.53017
 L 385.57,-7.03717 L 385.837,-7.49884 L 386.194,-7.895 L 386.625,-8.20836 L 387.112,-8.42519 L 387.633,-8.53603
 L 388.167,-8.53603 L 388.688,-8.42519 L 389.175,-8.20836 L 389.606,-7.895 L 389.963,-7.49884 L 390.23,-7.03717
 L 390.394,-6.53017 L 390.45,-6 L 390.45,-0 L 575.55,-0 L 575.55,-6 L 575.606,-6.53017
 L 575.77,-7.03717 L 576.037,-7.49884 L 576.394,-7.895 L 576.825,-8.20836 L 577.312,-8.42519 L 577.833,-8.53603
 L 578.367,-8.53603 L 578.888,-8.42519 L 579.375,-8.20836 L 579.806,-7.895 L 580.163,-7.49884 L 580.43,-7.03717
 L 580.594,-6.53017 L 580.65,-6 L 580.65,-0 L 765.75,-0 L 765.75,-6 L 765.806,-6.53017
 L 765.97,-7.03717 L 766.237,-7.49884 L 766.594,-7.895 L 767.025,-8.20836 L 767.512,-8.42519 L 768.033,-8.53603
 L 768.567,-8.53603 L 769.088,-8.42519 L 769.575,-8.20836 L 770.006,-7.895 L 770.363,-7.49884 L 770.63,-7.03717
 L 770.794,-6.53017 L 770.85,-6 L 770.85,-0 L 955.95,-0 L 955.95,-6 L 956.006,-6.53017
 L 956.17,-7.03717 L 956.437,-7.49884 L 956.794,-7.895 L 957.225,-8.20836 L 957.712,-8.42519 L 958.233,-8.53603
 L 958.767,-8.53603 L 959.288,-8.42519 L 959.775,-8.20836 L 960.206,-7.895 L 960.563,-7.49884 L 960.83,-7.03717
 L 960.994,-6.53017 L 961.05,-6 L 961.05,-0 L 966,-0 z
M 6.98573,-55.607 L 6.47708,-55.6875 L 5.97964,-55.8208 L 5.49887,-56.0054 L 5.04001,-56.2392 L 4.60811,-56.5196
 L 4.20789,-56.8437 L 3.84373,-57.2079 L 3.51964,-57.6081 L 3.23917,-58.04 L 3.00537,-58.4989 L 2.82082,-58.9796
 L 2.68752,-59.4771 L 2.60696,-59.9857 L 2.58,-60.5 L 2.60696,-61.0143 L 2.68752,-61.5229 L 2.82082,-62.0204
 L 3.00537,-62.5011 L 3.23917,-62.96 L 3.51964,-63.3919 L 3.84373,-63.7921 L 4.20789,-64.1563 L 4.60811,-64.4804
 L 4.95001,-64.7024 L 4.95001,-74 L 5.00574,-74.5302 L 5.17047,-75.0372 L 5.43701,-75.4988 L 5.79373,-75.895
 L 6.22501,-76.2084 L 6.71202,-76.4252 L 7.23346,-76.536 L 7.76654,-76.536 L 8.28798,-76.4252 L 8.77499,-76.2084
 L 9.20627,-75.895 L 9.56299,-75.4988 L 9.82953,-75.0372 L 9.99426,-74.5302 L 10.05,-74 L 10.05,-64.7024
 L 10.3919,-64.4804 L 10.7921,-64.1563 L 11.1563,-63.7921 L 11.4804,-63.3919 L 11.7608,-62.96 L 11.9946,-62.5011
 L 12.1792,-62.0204 L 12.3125,-61.5229 L 12.393,-61.0143 L 12.42,-60.5 L 12.393,-59.9857 L 12.3125,-59.4771
 L 12.1792,-58.9796 L 11.9946,-58.4989 L 11.7608,-58.04 L 11.4804,-57.6081 L 11.1563,-57.2079 L 10.7921,-56.8437
 L 10.3919,-56.5196 L 9.95999,-56.2392 L 9.50113,-56.0054 L 9.02036,-55.8208 L 8.52292,-55.6875 L 8.01427,-55.607
 L 7.5,-55.58 z
M 197.186,-55.607 L 196.677,-55.6875 L 196.18,-55.8208 L 195.699,-56.0054 L 195.24,-56.2392 L 194.808,-56.5196
 L 194.408,-56.8437 L 194.044,-57.2079 L 193.72,-57.6081 L 193.439,-58.04 L 193.205,-58.4989 L 193.021,-58.9796
 L 192.888,-59.4771 L 192.807,-59.9857 L 192.78,-60.5 L 192.807,-61.0143 L 192.888,-61.5229 L 193.021,-62.0204
 L 193.205,-62.5011 L 193.439,-62.96 L 193.72,-63.3919 L 194.044,-63.7921 L 194.408,-64.1563 L 194.808,-64.4804
 L 195.15,-64.7024 L 195.15,-74 L 195.206,-74.5302 L 195.37,-75.0372 L 195.637,-75.4988 L 195.994,-75.895
 L 196.425,-76.2084 L 196.912,-76.4252 L 197.433,-76.536 L 197.967,-76.536 L 198.488,-76.4252 L 198.975,-76.2084
 L 199.406,-75.895 L 199.763,-75.4988 L 200.03,-75.0372 L 200.194,-74.5302 L 200.25,-74 L 200.25,-64.7024
 L 200.592,-64.4804 L 200.992,-64.1563 L 201.356,-63.7921 L 201.68,-63.3919 L 201.961,-62.96 L 202.195,-62.5011
 L 202.379,-62.0204 L 202.512,-61.5229 L 202.593,-61.0143 L 202.62,-60.5 L 202.593,-59.9857 L 202.512,-59.4771
 L 202.379,-58.9796 L 202.195,-58.4989 L 201.961,-58.04 L 201.68,-57.6081 L 201.356,-57.2079 L 200.992,-56.8437
 L 200.592,-56.5196 L 200.16,-56.2392 L 199.701,-56.0054 L 199.22,-55.8208 L 198.723,-55.6875 L 198.214,-55.607
 L 197.7,-55.58 z
M 387.386,-55.607 L 386.877,-55.6875 L 386.38,-55.8208 L 385.899,-56.0054 L 385.44,-56.2392 L 385.008,-56.5196
 L 384.608,-56.8437 L 384.244,-57.2079 L 383.92,-57.6081 L 383.639,-58.04 L 383.405,-58.4989 L 383.221,-58.9796
 L 383.088,-59.4771 L 383.007,-59.9857 L 382.98,-60.5 L 383.007,-61.0143 L 383.088,-61.5229 L 383.221,-62.0204
 L 383.405,-62.5011 L 383.639,-62.96 L 383.92,-63.3919 L 384.244,-63.7921 L 384.608,-64.1563 L 385.008,-64.4804
 L 385.35,-64.7024 L 385.35,-74 L 385.406,-74.5302 L 385.57,-75.0372 L 385.837,-75.4988 L 386.194,-75.895
 L 386.625,-76.2084 L 387.112,-76.4252 L 387.633,-76.536 L 388.167,-76.536 L 388.688,-76.4252 L 389.175,-76.2084
 L 389.606,-75.895 L 389.963,-75.4988 L 390.23,-75.0372 L 390.394,-74.5302 L 390.45,-74 L 390.45,-64.7024
 L 390.792,-64.4804 L 391.192,-64.1563 L 391.556,-63.7921 L 391.88,-63.3919 L 392.161,-62.96 L 392.395,-62.5011
 L 392.579,-62.0204 L 392.712,-61.5229 L 392.793,-61.0143 L 392.82,-60.5 L 392.793,-59.9857 L 392.712,-59.4771
 L 392.579,-58.9796 L 392.395,-58.4989 L 392.161,-58.04 L 391.88,-57.6081 L 391.556,-57.2079 L 391.192,-56.8437
 L 390.792,-56.5196 L 390.36,-56.2392 L 389.901,-56.0054 L 389.42,-55.8208 L 388.923,-55.6875 L 388.414,-55.607
 L 387.9,-55.58 z
M 577.586,-55.607 L 577.077,-55.6875 L 576.58,-55.8208 L 576.099,-56.0054 L 575.64,-56.2392 L 575.208,-56.5196
 L 574.808,-56.8437 L 574.444,-57.2079 L 574.12,-57.6081 L 573.839,-58.04 L 573.605,-58.4989 L 573.421,-58.9796
 L 573.288,-59.4771 L 573.207,-59.9857 L 573.18,-60.5 L 573.207,-61.0143 L 573.288,-61.5229 L 573.421,-62.0204
 L 573.605,-62.5011 L 573.839,-62.96 L 574.12,-63.3919 L 574.444,-63.7921 L 574.808,-64.1563 L 575.208,-64.4804
 L 575.55,-64.7024 L 575.55,-74 L 575.606,-74.5302 L 575.77,-75.0372 L 576.037,-75.4988 L 576.394,-75.895
 L 576.825,-76.2084 L 577.312,-76.4252 L 577.833,-76.536 L 578.367,-76.536 L 578.888,-76.4252 L 579.375,-76.2084
 L 579.806,-75.895 L 580.163,-75.4988 L 580.43,-75.0372 L 580.594,-74.5302 L 580.65,-74 L 580.65,-64.7024
 L 580.992,-64.4804 L 581.392,-64.1563 L 581.756,-63.7921 L 582.08,-63.3919 L 582.361,-62.96 L 582.595,-62.5011
 L 582.779,-62.0204 L 582.912,-61.5229 L 582.993,-61.0143 L 583.02,-60.5 L 582.993,-59.9857 L 582.912,-59.4771
 L 582.779,-58.9796 L 582.595,-58.4989 L 582.361,-58.04 L 582.08,-57.6081 L 581.756,-57.2079 L 581.392,-56.8437
 L 580.992,-56.5196 L 580.56,-56.2392 L 580.101,-56.0054 L 579.62,-55.8208 L 579.123,-55.6875 L 578.614,-55.607
 L 578.1,-55.58 z
M 767.786,-55.607 L 767.277,-55.6875 L 766.78,-55.8208 L 766.299,-56.0054 L 765.84,-56.2392 L 765.408,-56.5196
 L 765.008,-56.8437 L 764.644,-57.2079 L 764.32,-57.6081 L 764.039,-58.04 L 763.805,-58.4989 L 763.621,-58.9796
 L 763.488,-59.4771 L 763.407,-59.9857 L 763.38,-60.5 L 763.407,-61.0143 L 763.488,-61.5229 L 763.621,-62.0204
 L 763.805,-62.5011 L 764.039,-62.96 L 764.32,-63.3919 L 764.644,-63.7921 L 765.008,-64.1563 L 765.408,-64.4804
 L 765.75,-64.7024 L 765.75,-74 L 765.806,-74.5302 L 765.97,-75.0372 L 766.237,-75.4988 L 766.594,-75.895
 L 767.025,-76.2084 L 767.512,-76.4252 L 768.033,-76.536 L 768.567,-76.536 L 769.088,-76.4252 L 769.575,-76.2084
 L 770.006,-75.895 L 770.363,-75.4988 L 770.63,-75.0372 L 770.794,-74.5302 L 770.85,-74 L 770.85,-64.7024
 L 771.192,-64.4804 L 771.592,-64.1563 L 771.956,-63.7921 L 772.28,-63.3919 L 772.561,-62.96 L 772.795,-62.5011
 L 772.979,-62.0204 L 773.112,-61.5229 L 773.193,-61.0143 L 773.22,-60.5 L 773.193,-59.9857 L 773.112,-59.4771
 L 772.979,-58.9796 L 772.795,-58.4989 L 772.561,-58.04 L 772.28,-57.6081 L 771.956,-57.2079 L 771.592,-56.8437
 L 771.192,-56.5196 L 770.76,-56.2392 L 770.301,-56.0054 L 769.82,-55.8208 L 769.323,-55.6875 L 768.814,-55.607
 L 768.3,-55.58 z
M 957.986,-55.607 L 957.477,-55.6875 L 956.98,-55.8208 L 956.499,-56.0054 L 956.04,-56.2392 L 955.608,-56.5196
 L 955.208,-56.8437 L 954.844,-57.2079 L 954.52,-57.6081 L 954.239,-58.04 L 954.005,-58.4989 L 953.821,-58.9796
 L 953.688,-59.4771 L 953.607,-59.9857 L 953.58,-60.5 L 953.607,-61.0143 L 953.688,-61.5229 L 953.821,-62.0204
 L 954.005,-62.5011 L 954.239,-62.96 L 954.52,-63.3919 L 954.844,-63.7921 L 955.208,-64.1563 L 955.608,-64.4804
 L 955.95,-64.7024 L 955.95,-74 L 956.006,-74.5302 L 956.17,-75.0372 L 956.437,-75.4988 L 956.794,-75.895
 L 957.225,-76.2084 L 957.712,-76.4252 L 958.233,-76.536 L 958.767,-76.536 L 959.288,-76.4252 L 959.775,-76.2084
 L 960.206,-75.895 L 960.563,-75.4988 L 960.83,-75.0372 L 960.994,-74.5302 L 961.05,-74 L 961.05,-64.7024
 L 961.392,-64.4804 L 961.792,-64.1563 L 962.156,-63.7921 L 962.48,-63.3919 L 962.761,-62.96 L 962.995,-62.5011
 L 963.179,-62.0204 L 963.312,-61.5229 L 963.393,-61.0143 L 963.42,-60.5 L 963.393,-59.9857 L 963.312,-59.4771
 L 963.179,-58.9796 L 962.995,-58.4989 L 962.761,-58.04 L 962.48,-57.6081 L 962.156,-57.2079 L 961.792,-56.8437
 L 961.392,-56.5196 L 960.96,-56.2392 L 960.501,-56.0054 L 960.02,-55.8208 L 959.523,-55.6875 L 959.014,-55.607
 L 958.5,-55.58 z
M 482.466,-47.7127 L 481.653,-47.9104 L 463.967,-54.2335 L 462.963,-54.7639 L 462.341,-55.3235 L 461.85,-56
 L 461.51,-56.7639 L 461.336,-57.5819 L 461.336,-58.4181 L 461.51,-59.2361 L 461.85,-60 L 462.341,-60.6765
 L 462.963,-61.2361 L 463.687,-61.6542 L 464.482,-61.9126 L 465.314,-62 L 500.686,-62 L 501.811,-61.8387
 L 502.584,-61.521 L 503.275,-61.0495 L 503.852,-60.4446 L 504.291,-59.7329 L 504.573,-58.9455 L 504.684,-58.1168
 L 504.621,-57.2829 L 504.386,-56.4804 L 503.989,-55.7443 L 503.448,-55.1068 L 502.786,-54.5958 L 502.033,-54.2335
 L 484.347,-47.9104 L 483.302,-47.6883 z
M 374.366,-20.4835 L 373.553,-20.6812 L 279.706,-54.2335 L 278.701,-54.7639 L 278.08,-55.3235 L 277.588,-56
 L 277.248,-56.7639 L 277.074,-57.5819 L 277.074,-58.4181 L 277.248,-59.2361 L 277.588,-60 L 278.08,-60.6765
 L 278.701,-61.2361 L 279.425,-61.6542 L 280.221,-61.9126 L 281.052,-62 L 374.9,-62 L 376.136,-61.8042
 L 376.9,-61.4641 L 377.577,-60.9726 L 378.136,-60.3511 L 378.554,-59.627 L 378.813,-58.8316 L 378.9,-58
 L 378.9,-24.4477 L 378.787,-23.5022 L 378.505,-22.7148 L 378.066,-22.0031 L 377.489,-21.3982 L 376.798,-20.9267
 L 376.024,-20.609 L 375.202,-20.4591 z
M 780.176,-20.609 L 779.402,-20.9267 L 778.711,-21.3982 L 778.134,-22.0031 L 777.695,-22.7148 L 777.413,-23.5022
 L 777.3,-24.4477 L 777.3,-58 L 777.387,-58.8316 L 777.646,-59.627 L 778.064,-60.3511 L 778.623,-60.9726
 L 779.3,-61.4641 L 780.064,-61.8042 L 781.3,-62 L 875.148,-62 L 875.979,-61.9126 L 876.775,-61.6542
 L 877.499,-61.2361 L 878.12,-60.6765 L 878.612,-60 L 878.952,-59.2361 L 879.126,-58.4181 L 879.126,-57.5819
 L 878.952,-56.7639 L 878.612,-56 L 878.12,-55.3235 L 877.499,-54.7639 L 876.494,-54.2335 L 782.647,-20.6812
 L 781.834,-20.4835 L 780.998,-20.4591 z
M 184.166,-20.4835 L 183.353,-20.6812 L 89.5056,-54.2335 L 88.5011,-54.7639 L 87.8796,-55.3235 L 87.3881,-56
 L 87.048,-56.7639 L 86.8741,-57.5819 L 86.8741,-58.4181 L 87.048,-59.2361 L 87.3881,-60 L 87.8796,-60.6765
 L 88.5011,-61.2361 L 89.2253,-61.6542 L 90.0206,-61.9126 L 90.8522,-62 L 184.7,-62 L 185.936,-61.8042
 L 186.7,-61.4641 L 187.377,-60.9726 L 187.936,-60.3511 L 188.354,-59.627 L 188.613,-58.8316 L 188.7,-58
 L 188.7,-24.4477 L 188.587,-23.5022 L 188.305,-22.7148 L 187.866,-22.0031 L 187.289,-21.3982 L 186.598,-20.9267
 L 185.824,-20.609 L 185.002,-20.4591 z
M 589.976,-20.609 L 589.202,-20.9267 L 588.511,-21.3982 L 587.934,-22.0031 L 587.495,-22.7148 L 587.213,-23.5022
 L 587.1,-24.4477 L 587.1,-58 L 587.187,-58.8316 L 587.446,-59.627 L 587.864,-60.3511 L 588.423,-60.9726
 L 589.1,-61.4641 L 589.864,-61.8042 L 591.1,-62 L 684.948,-62 L 685.779,-61.9126 L 686.575,-61.6542
 L 687.299,-61.2361 L 687.92,-60.6765 L 688.412,-60 L 688.752,-59.2361 L 688.926,-58.4181 L 688.926,-57.5819
 L 688.752,-56.7639 L 688.412,-56 L 687.92,-55.3235 L 687.299,-54.7639 L 686.294,-54.2335 L 592.447,-20.6812
 L 591.634,-20.4835 L 590.798,-20.4591 z
M 400.482,-18.3465 L 399.664,-18.5204 L 398.9,-18.8605 L 398.223,-19.3521 L 397.664,-19.9735 L 397.246,-20.6977
 L 396.987,-21.493 L 396.9,-22.3246 L 396.9,-57.6754 L 397.013,-58.6209 L 397.295,-59.4083 L 397.734,-60.12
 L 398.311,-60.7248 L 399.002,-61.1964 L 399.776,-61.5141 L 400.598,-61.664 L 401.434,-61.6396 L 402.247,-61.4419
 L 451.686,-43.7665 L 452.237,-43.521 L 452.928,-43.0495 L 453.505,-42.4446 L 453.944,-41.7329 L 454.226,-40.9455
 L 454.337,-40.1168 L 454.274,-39.2829 L 454.039,-38.4804 L 453.642,-37.7443 L 453.101,-37.1068 L 452.439,-36.5958
 L 451.686,-36.2335 L 402.247,-18.5581 L 401.318,-18.3465 z
M 564.566,-18.3604 L 563.753,-18.5581 L 514.314,-36.2335 L 513.763,-36.479 L 513.072,-36.9505 L 512.495,-37.5554
 L 512.056,-38.2671 L 511.774,-39.0545 L 511.663,-39.8832 L 511.726,-40.7171 L 511.961,-41.5196 L 512.358,-42.2557
 L 512.899,-42.8932 L 513.561,-43.4042 L 514.314,-43.7665 L 563.753,-61.4419 L 564.682,-61.6535 L 565.518,-61.6535
 L 566.336,-61.4796 L 567.1,-61.1395 L 567.777,-60.648 L 568.336,-60.0265 L 568.754,-59.3023 L 569.013,-58.507
 L 569.1,-57.6754 L 569.1,-22.3246 L 568.987,-21.3791 L 568.705,-20.5917 L 568.266,-19.88 L 567.689,-19.2752
 L 566.998,-18.8036 L 566.224,-18.4859 L 565.402,-18.336 z
M 210.7,-18 L 209.464,-18.1958 L 208.7,-18.5359 L 208.023,-19.0274 L 207.464,-19.6489 L 207.046,-20.373
 L 206.787,-21.1684 L 206.7,-22 L 206.7,-55.5523 L 206.813,-56.4978 L 207.095,-57.2852 L 207.534,-57.9969
 L 208.111,-58.6017 L 208.802,-59.0733 L 209.576,-59.391 L 210.398,-59.5409 L 211.234,-59.5165 L 212.047,-59.3188
 L 305.894,-25.7665 L 306.899,-25.2361 L 307.52,-24.6765 L 308.012,-24 L 308.352,-23.2361 L 308.526,-22.4181
 L 308.526,-21.5819 L 308.352,-20.7639 L 308.012,-20 L 307.52,-19.3235 L 306.899,-18.7639 L 306.175,-18.3458
 L 305.379,-18.0874 L 304.548,-18 z
M 661.452,-18 L 660.621,-18.0874 L 659.825,-18.3458 L 659.101,-18.7639 L 658.48,-19.3235 L 657.988,-20
 L 657.648,-20.7639 L 657.474,-21.5819 L 657.474,-22.4181 L 657.648,-23.2361 L 657.988,-24 L 658.48,-24.6765
 L 659.101,-25.2361 L 660.106,-25.7665 L 753.953,-59.3188 L 754.766,-59.5165 L 755.602,-59.5409 L 756.424,-59.391
 L 757.198,-59.0733 L 757.889,-58.6017 L 758.466,-57.9969 L 758.905,-57.2852 L 759.187,-56.4978 L 759.3,-55.5523
 L 759.3,-22 L 759.213,-21.1684 L 758.954,-20.373 L 758.536,-19.6489 L 757.977,-19.0274 L 757.3,-18.5359
 L 756.536,-18.1958 L 755.3,-18 z
M 22,-18 L 20.7639,-18.1958 L 20,-18.5359 L 19.3235,-19.0274 L 18.7639,-19.6489 L 18.3458,-20.373
 L 18.0874,-21.1684 L 18,-22 L 18,-55.016 L 18.1134,-55.9615 L 18.3949,-56.7489 L 18.834,-57.4606
 L 19.4114,-58.0655 L 20.102,-58.537 L 20.8755,-58.8547 L 21.6982,-59.0046 L 22.5341,-58.9802 L 23.3466,-58.7825
 L 115.694,-25.7665 L 116.699,-25.2361 L 117.32,-24.6765 L 117.812,-24 L 118.152,-23.2361 L 118.326,-22.4181
 L 118.326,-21.5819 L 118.152,-20.7639 L 117.812,-20 L 117.32,-19.3235 L 116.699,-18.7639 L 115.975,-18.3458
 L 115.179,-18.0874 L 114.348,-18 z
M 851.652,-18 L 850.821,-18.0874 L 850.025,-18.3458 L 849.301,-18.7639 L 848.68,-19.3235 L 848.188,-20
 L 847.848,-20.7639 L 847.674,-21.5819 L 847.674,-22.4181 L 847.848,-23.2361 L 848.188,-24 L 848.68,-24.6765
 L 849.301,-25.2361 L 850.306,-25.7665 L 942.653,-58.7825 L 943.466,-58.9802 L 944.302,-59.0046 L 945.124,-58.8547
 L 945.898,-58.537 L 946.589,-58.0655 L 947.166,-57.4606 L 947.605,-56.7489 L 947.887,-55.9615 L 948,-55.016
 L 948,-22 L 947.913,-21.1684 L 947.654,-20.373 L 947.236,-19.6489 L 946.677,-19.0274 L 946,-18.5359
 L 945.236,-18.1958 L 944,-18 z
M 465.314,-18 L 464.189,-18.1613 L 463.416,-18.479 L 462.725,-18.9505 L 462.148,-19.5554 L 461.709,-20.2671
 L 461.427,-21.0545 L 461.316,-21.8832 L 461.379,-22.7171 L 461.614,-23.5196 L 462.011,-24.2557 L 462.552,-24.8932
 L 463.214,-25.4042 L 463.967,-25.7665 L 481.653,-32.0896 L 482.698,-32.3117 L 483.534,-32.2873 L 484.347,-32.0896
 L 502.033,-25.7665 L 503.037,-25.2361 L 503.659,-24.6765 L 504.15,-24 L 504.49,-23.2361 L 504.664,-22.4181
 L 504.664,-21.5819 L 504.49,-20.7639 L 504.15,-20 L 503.659,-19.3235 L 503.037,-18.7639 L 502.313,-18.3458
 L 501.518,-18.0874 L 500.686,-18 z
" stroke="black" fill="lightgray" stroke-width="0.5"/>
</svg>
