<?xml version="1.0" standalone="no"?>
<!DOCTYPE svg PUBLIC "-//W3C//DTD SVG 1.1//EN" "http://www.w3.org/Graphics/SVG/1.1/DTD/svg11.dtd">
<svg width="825mm" height="80mm" viewBox="0 -80 825 80" xmlns="http://www.w3.org/2000/svg" version="1.1">
<title>OpenSCAD Model</title>
<path d="
M 825,-80 L 0,-80 L 0,-0 L 4.95,-0 L 4.95,-6 L 5.00572,-6.53017
 L 5.17046,-7.03717 L 5.437,-7.49884 L 5.79372,-7.895 L 6.22499,-8.20836 L 6.71201,-8.42519 L 7.23344,-8.53603
 L 7.76654,-8.53603 L 8.28798,-8.42519 L 8.77499,-8.20836 L 9.20627,-7.895 L 9.56299,-7.49884 L 9.82953,-7.03717
 L 9.99426,-6.53017 L 10.05,-6 L 10.05,-0 L 166.95,-0 L 166.95,-6 L 167.006,-6.53017
 L 167.17,-7.03717 L 167.437,-7.49884 L 167.794,-7.895 L 168.225,-8.20836 L 168.712,-8.42519 L 169.233,-8.53603
 L 169.767,-8.53603 L 170.288,-8.42519 L 170.775,-8.20836 L 171.206,-7.895 L 171.563,-7.49884 L 171.83,-7.03717
 L 171.994,-6.53017 L 172.05,-6 L 172.05,-0 L 328.95,-0 L 328.95,-6 L 329.006,-6.53017
 L 329.17,-7.03717 L 329.437,-7.49884 L 329.794,-7.895 L 330.225,-8.20836 L 330.712,-8.42519 L 331.233,-8.53603
 L 331.767,-8.53603 L 332.288,-8.42519 L 332.775,-8.20836 L 333.206,-7.895 L 333.563,-7.49884 L 333.83,-7.03717
 L 333.994,-6.53017 L 334.05,-6 L 334.05,-0 L 490.95,-0 L 490.95,-6 L 491.006,-6.53017
 L 491.17,-7.03717 L 491.437,-7.49884 L 491.794,-7.895 L 492.225,-8.20836 L 492.712,-8.42519 L 493.233,-8.53603
 L 493.767,-8.53603 L 494.288,-8.42519 L 494.775,-8.20836 L 495.206,-7.895 L 495.563,-7.49884 L 495.83,-7.03717
 L 495.994,-6.53017 L 496.05,-6 L 496.05,-0 L 652.95,-0 L 652.95,-6 L 653.006,-6.53017
 L 653.17,-7.03717 L 653.437,-7.49884 L 653.794,-7.895 L 654.225,-8.20836 L 654.712,-8.42519 L 655.233,-8.53603
 L 655.767,-8.53603 L 656.288,-8.42519 L 656.775,-8.20836 L 657.206,-7.895 L 657.563,-7.49884 L 657.83,-7.03717
 L 657.994,-6.53017 L 658.05,-6 L 658.05,-0 L 814.95,-0 L 814.95,-6 L 815.006,-6.53017
 L 815.17,-7.03717 L 815.437,-7.49884 L 815.794,-7.895 L 816.225,-8.20836 L 816.712,-8.42519 L 817.233,-8.53603
 L 817.767,-8.53603 L 818.288,-8.42519 L 818.775,-8.20836 L 819.206,-7.895 L 819.563,-7.49884 L 819.83,-7.03717
 L 819.994,-6.53017 L 820.05,-6 L 820.05,-0 L 825,-0 z
M 6.98573,-55.607 L 6.47708,-55.6875 L 5.97964,-55.8208 L 5.49887,-56.0054 L 5.04001,-56.2392 L 4.60811,-56.5196
 L 4.20789,-56.8437 L 3.84373,-57.2079 L 3.51964,-57.6081 L 3.23917,-58.04 L 3.00537,-58.4989 L 2.82082,-58.9796
 L 2.68752,-59.4771 L 2.60696,-59.9857 L 2.58,-60.5 L 2.60696,-61.0143 L 2.68752,-61.5229 L 2.82082,-62.0204
 L 3.00537,-62.5011 L 3.23917,-62.96 L 3.51964,-63.3919 L 3.84373,-63.7921 L 4.20789,-64.1563 L 4.60811,-64.4804
 L 4.95001,-64.7024 L 4.95001,-74 L 5.00574,-74.5302 L 5.17047,-75.0372 L 5.43701,-75.4988 L 5.79373,-75.895
 L 6.22501,-76.2084 L 6.71202,-76.4252 L 7.23346,-76.536 L 7.76654,-76.536 L 8.28798,-76.4252 L 8.77499,-76.2084
 L 9.20627,-75.895 L 9.56299,-75.4988 L 9.82953,-75.0372 L 9.99426,-74.5302 L 10.05,-74 L 10.05,-64.7024
 L 10.3919,-64.4804 L 10.7921,-64.1563 L 11.1563,-63.7921 L 11.4804,-63.3919 L 11.7608,-62.96 L 11.9946,-62.5011
 L 12.1792,-62.0204 L 12.3125,-61.5229 L 12.393,-61.0143 L 12.42,-60.5 L 12.393,-59.9857 L 12.3125,-59.4771
 L 12.1792,-58.9796 L 11.9946,-58.4989 L 11.7608,-58.04 L 11.4804,-57.6081 L 11.1563,-57.2079 L 10.7921,-56.8437
 L 10.3919,-56.5196 L 9.95999,-56.2392 L 9.50113,-56.0054 L 9.02036,-55.8208 L 8.52292,-55.6875 L 8.01427,-55.607
 L 7.5,-55.58 z
M 168.986,-55.607 L 168.477,-55.6875 L 167.98,-55.8208 L 167.499,-56.0054 L 167.04,-56.2392 L 166.608,-56.5196
 L 166.208,-56.8437 L 165.844,-57.2079 L 165.52,-57.6081 L 165.239,-58.04 L 165.005,-58.4989 L 164.821,-58.9796
 L 164.688,-59.4771 L 164.607,-59.9857 L 164.58,-60.5 L 164.607,-61.0143 L 164.688,-61.5229 L 164.821,-62.0204
 L 165.005,-62.5011 L 165.239,-62.96 L 165.52,-63.3919 L 165.844,-63.7921 L 166.208,-64.1563 L 166.608,-64.4804
 L 166.95,-64.7024 L 166.95,-74 L 167.006,-74.5302 L 167.17,-75.0372 L 167.437,-75.4988 L 167.794,-75.895
 L 168.225,-76.2084 L 168.712,-76.4252 L 169.233,-76.536 L 169.767,-76.536 L 170.288,-76.4252 L 170.775,-76.2084
 L 171.206,-75.895 L 171.563,-75.4988 L 171.83,-75.0372 L 171.994,-74.5302 L 172.05,-74 L 172.05,-64.7024
 L 172.392,-64.4804 L 172.792,-64.1563 L 173.156,-63.7921 L 173.48,-63.3919 L 173.761,-62.96 L 173.995,-62.5011
 L 174.179,-62.0204 L 174.312,-61.5229 L 174.393,-61.0143 L 174.42,-60.5 L 174.393,-59.9857 L 174.312,-59.4771
 L 174.179,-58.9796 L 173.995,-58.4989 L 173.761,-58.04 L 173.48,-57.6081 L 173.156,-57.2079 L 172.792,-56.8437
 L 172.392,-56.5196 L 171.96,-56.2392 L 171.501,-56.0054 L 171.02,-55.8208 L 170.523,-55.6875 L 170.014,-55.607
 L 169.5,-55.58 z
M 330.986,-55.607 L 330.477,-55.6875 L 329.98,-55.8208 L 329.499,-56.0054 L 329.04,-56.2392 L 328.608,-56.5196
 L 328.208,-56.8437 L 327.844,-57.2079 L 327.52,-57.6081 L 327.239,-58.04 L 327.005,-58.4989 L 326.821,-58.9796
 L 326.688,-59.4771 L 326.607,-59.9857 L 326.58,-60.5 L 326.607,-61.0143 L 326.688,-61.5229 L 326.821,-62.0204
 L 327.005,-62.5011 L 327.239,-62.96 L 327.52,-63.3919 L 327.844,-63.7921 L 328.208,-64.1563 L 328.608,-64.4804
 L 328.95,-64.7024 L 328.95,-74 L 329.006,-74.5302 L 329.17,-75.0372 L 329.437,-75.4988 L 329.794,-75.895
 L 330.225,-76.2084 L 330.712,-76.4252 L 331.233,-76.536 L 331.767,-76.536 L 332.288,-76.4252 L 332.775,-76.2084
 L 333.206,-75.895 L 333.563,-75.4988 L 333.83,-75.0372 L 333.994,-74.5302 L 334.05,-74 L 334.05,-64.7024
 L 334.392,-64.4804 L 334.792,-64.1563 L 335.156,-63.7921 L 335.48,-63.3919 L 335.761,-62.96 L 335.995,-62.5011
 L 336.179,-62.0204 L 336.312,-61.5229 L 336.393,-61.0143 L 336.42,-60.5 L 336.393,-59.9857 L 336.312,-59.4771
 L 336.179,-58.9796 L 335.995,-58.4989 L 335.761,-58.04 L 335.48,-57.6081 L 335.156,-57.2079 L 334.792,-56.8437
 L 334.392,-56.5196 L 333.96,-56.2392 L 333.501,-56.0054 L 333.02,-55.8208 L 332.523,-55.6875 L 332.014,-55.607
 L 331.5,-55.58 z
M 492.986,-55.607 L 492.477,-55.6875 L 491.98,-55.8208 L 491.499,-56.0054 L 491.04,-56.2392 L 490.608,-56.5196
 L 490.208,-56.8437 L 489.844,-57.2079 L 489.52,-57.6081 L 489.239,-58.04 L 489.005,-58.4989 L 488.821,-58.9796
 L 488.688,-59.4771 L 488.607,-59.9857 L 488.58,-60.5 L 488.607,-61.0143 L 488.688,-61.5229 L 488.821,-62.0204
 L 489.005,-62.5011 L 489.239,-62.96 L 489.52,-63.3919 L 489.844,-63.7921 L 490.208,-64.1563 L 490.608,-64.4804
 L 490.95,-64.7024 L 490.95,-74 L 491.006,-74.5302 L 491.17,-75.0372 L 491.437,-75.4988 L 491.794,-75.895
 L 492.225,-76.2084 L 492.712,-76.4252 L 493.233,-76.536 L 493.767,-76.536 L 494.288,-76.4252 L 494.775,-76.2084
 L 495.206,-75.895 L 495.563,-75.4988 L 495.83,-75.0372 L 495.994,-74.5302 L 496.05,-74 L 496.05,-64.7024
 L 496.392,-64.4804 L 496.792,-64.1563 L 497.156,-63.7921 L 497.48,-63.3919 L 497.761,-62.96 L 497.995,-62.5011
 L 498.179,-62.0204 L 498.312,-61.5229 L 498.393,-61.0143 L 498.42,-60.5 L 498.393,-59.9857 L 498.312,-59.4771
 L 498.179,-58.9796 L 497.995,-58.4989 L 497.761,-58.04 L 497.48,-57.6081 L 497.156,-57.2079 L 496.792,-56.8437
 L 496.392,-56.5196 L 495.96,-56.2392 L 495.501,-56.0054 L 495.02,-55.8208 L 494.523,-55.6875 L 494.014,-55.607
 L 493.5,-55.58 z
M 654.986,-55.607 L 654.477,-55.6875 L 653.98,-55.8208 L 653.499,-56.0054 L 653.04,-56.2392 L 652.608,-56.5196
 L 652.208,-56.8437 L 651.844,-57.2079 L 651.52,-57.6081 L 651.239,-58.04 L 651.005,-58.4989 L 650.821,-58.9796
 L 650.688,-59.4771 L 650.607,-59.9857 L 650.58,-60.5 L 650.607,-61.0143 L 650.688,-61.5229 L 650.821,-62.0204
 L 651.005,-62.5011 L 651.239,-62.96 L 651.52,-63.3919 L 651.844,-63.7921 L 652.208,-64.1563 L 652.608,-64.4804
 L 652.95,-64.7024 L 652.95,-74 L 653.006,-74.5302 L 653.17,-75.0372 L 653.437,-75.4988 L 653.794,-75.895
 L 654.225,-76.2084 L 654.712,-76.4252 L 655.233,-76.536 L 655.767,-76.536 L 656.288,-76.4252 L 656.775,-76.2084
 L 657.206,-75.895 L 657.563,-75.4988 L 657.83,-75.0372 L 657.994,-74.5302 L 658.05,-74 L 658.05,-64.7024
 L 658.392,-64.4804 L 658.792,-64.1563 L 659.156,-63.7921 L 659.48,-63.3919 L 659.761,-62.96 L 659.995,-62.5011
 L 660.179,-62.0204 L 660.312,-61.5229 L 660.393,-61.0143 L 660.42,-60.5 L 660.393,-59.9857 L 660.312,-59.4771
 L 660.179,-58.9796 L 659.995,-58.4989 L 659.761,-58.04 L 659.48,-57.6081 L 659.156,-57.2079 L 658.792,-56.8437
 L 658.392,-56.5196 L 657.96,-56.2392 L 657.501,-56.0054 L 657.02,-55.8208 L 656.523,-55.6875 L 656.014,-55.607
 L 655.5,-55.58 z
M 816.986,-55.607 L 816.477,-55.6875 L 815.98,-55.8208 L 815.499,-56.0054 L 815.04,-56.2392 L 814.608,-56.5196
 L 814.208,-56.8437 L 813.844,-57.2079 L 813.52,-57.6081 L 813.239,-58.04 L 813.005,-58.4989 L 812.821,-58.9796
 L 812.688,-59.4771 L 812.607,-59.9857 L 812.58,-60.5 L 812.607,-61.0143 L 812.688,-61.5229 L 812.821,-62.0204
 L 813.005,-62.5011 L 813.239,-62.96 L 813.52,-63.3919 L 813.844,-63.7921 L 814.208,-64.1563 L 814.608,-64.4804
 L 814.95,-64.7024 L 814.95,-74 L 815.006,-74.5302 L 815.17,-75.0372 L 815.437,-75.4988 L 815.794,-75.895
 L 816.225,-76.2084 L 816.712,-76.4252 L 817.233,-76.536 L 817.767,-76.536 L 818.288,-76.4252 L 818.775,-76.2084
 L 819.206,-75.895 L 819.563,-75.4988 L 819.83,-75.0372 L 819.994,-74.5302 L 820.05,-74 L 820.05,-64.7024
 L 820.392,-64.4804 L 820.792,-64.1563 L 821.156,-63.7921 L 821.48,-63.3919 L 821.761,-62.96 L 821.995,-62.5011
 L 822.179,-62.0204 L 822.312,-61.5229 L 822.393,-61.0143 L 822.42,-60.5 L 822.393,-59.9857 L 822.312,-59.4771
 L 822.179,-58.9796 L 821.995,-58.4989 L 821.761,-58.04 L 821.48,-57.6081 L 821.156,-57.2079 L 820.792,-56.8437
 L 820.392,-56.5196 L 819.96,-56.2392 L 819.501,-56.0054 L 819.02,-55.8208 L 818.523,-55.6875 L 818.014,-55.607
 L 817.5,-55.58 z
M 411.752,-47.9975 L 410.952,-48.2388 L 396.484,-54.3118 L 395.681,-54.7639 L 395.059,-55.3235 L 394.568,-56
 L 394.228,-56.7639 L 394.054,-57.5819 L 394.054,-58.4181 L 394.228,-59.2361 L 394.568,-60 L 395.059,-60.6765
 L 395.681,-61.2361 L 396.405,-61.6542 L 397.2,-61.9126 L 398.032,-62 L 426.968,-62 L 427.883,-61.8938
 L 428.673,-61.6184 L 429.388,-61.1849 L 429.997,-60.6121 L 430.474,-59.9252 L 430.798,-59.1541 L 430.954,-58.3327
 L 430.936,-57.4966 L 430.745,-56.6826 L 430.388,-55.9261 L 429.882,-55.2603 L 429.249,-54.7142 L 428.516,-54.3118
 L 414.048,-48.2388 L 413.415,-48.0332 L 412.586,-47.9279 z
M 317.753,-21.6228 L 316.952,-21.8641 L 239.65,-54.3118 L 238.847,-54.7639 L 238.226,-55.3235 L 237.734,-56
 L 237.394,-56.7639 L 237.22,-57.5819 L 237.22,-58.4181 L 237.394,-59.2361 L 237.734,-60 L 238.226,-60.6765
 L 238.847,-61.2361 L 239.571,-61.6542 L 240.367,-61.9126 L 241.198,-62 L 318.5,-62 L 319.736,-61.8042
 L 320.5,-61.4641 L 321.177,-60.9726 L 321.736,-60.3511 L 322.154,-59.627 L 322.413,-58.8316 L 322.5,-58
 L 322.5,-25.5524 L 322.33,-24.3982 L 322.006,-23.6272 L 321.529,-22.9402 L 320.92,-22.3675 L 320.205,-21.9339
 L 319.415,-21.6585 L 318.586,-21.5533 z
M 667.585,-21.6585 L 666.795,-21.9339 L 666.08,-22.3675 L 665.471,-22.9402 L 664.994,-23.6272 L 664.67,-24.3982
 L 664.5,-25.5524 L 664.5,-58 L 664.587,-58.8316 L 664.846,-59.627 L 665.264,-60.3511 L 665.823,-60.9726
 L 666.5,-61.4641 L 667.264,-61.8042 L 668.5,-62 L 745.802,-62 L 746.633,-61.9126 L 747.429,-61.6542
 L 748.153,-61.2361 L 748.774,-60.6765 L 749.266,-60 L 749.606,-59.2361 L 749.78,-58.4181 L 749.78,-57.5819
 L 749.606,-56.7639 L 749.266,-56 L 748.774,-55.3235 L 748.153,-54.7639 L 747.35,-54.3118 L 670.048,-21.8641
 L 669.247,-21.6228 L 668.414,-21.5533 z
M 155.753,-21.6228 L 154.952,-21.8641 L 77.6501,-54.3118 L 76.8471,-54.7639 L 76.2257,-55.3235 L 75.7341,-56
 L 75.394,-56.7639 L 75.2202,-57.5819 L 75.2202,-58.4181 L 75.394,-59.2361 L 75.7341,-60 L 76.2257,-60.6765
 L 76.8471,-61.2361 L 77.5713,-61.6542 L 78.3666,-61.9126 L 79.1982,-62 L 156.5,-62 L 157.736,-61.8042
 L 158.5,-61.4641 L 159.177,-60.9726 L 159.736,-60.3511 L 160.154,-59.627 L 160.413,-58.8316 L 160.5,-58
 L 160.5,-25.5524 L 160.33,-24.3982 L 160.006,-23.6272 L 159.529,-22.9402 L 158.92,-22.3675 L 158.205,-21.9339
 L 157.415,-21.6585 L 156.586,-21.5533 z
M 505.585,-21.6585 L 504.795,-21.9339 L 504.08,-22.3675 L 503.471,-22.9402 L 502.994,-23.6272 L 502.67,-24.3982
 L 502.5,-25.5524 L 502.5,-58 L 502.587,-58.8316 L 502.846,-59.627 L 503.264,-60.3511 L 503.823,-60.9726
 L 504.5,-61.4641 L 505.264,-61.8042 L 506.5,-62 L 583.802,-62 L 584.633,-61.9126 L 585.429,-61.6542
 L 586.153,-61.2361 L 586.774,-60.6765 L 587.266,-60 L 587.606,-59.2361 L 587.78,-58.4181 L 587.78,-57.5819
 L 587.606,-56.7639 L 587.266,-56 L 586.774,-55.3235 L 586.153,-54.7639 L 585.35,-54.3118 L 508.048,-21.8641
 L 507.247,-21.6228 L 506.414,-21.5533 z
M 344.082,-19.4057 L 343.264,-19.5796 L 342.5,-19.9197 L 341.823,-20.4112 L 341.264,-21.0327 L 340.846,-21.7569
 L 340.587,-22.5522 L 340.5,-23.3838 L 340.5,-56.6162 L 340.67,-57.7703 L 340.994,-58.5414 L 341.471,-59.2283
 L 342.08,-59.8011 L 342.795,-60.2346 L 343.585,-60.51 L 344.414,-60.6153 L 345.247,-60.5457 L 346.048,-60.3044
 L 385.634,-43.6882 L 386.506,-43.1849 L 387.115,-42.6121 L 387.592,-41.9252 L 387.915,-41.1541 L 388.072,-40.3327
 L 388.054,-39.4966 L 387.862,-38.6826 L 387.506,-37.9261 L 387,-37.2603 L 386.367,-36.7142 L 385.634,-36.3118
 L 346.048,-19.6956 L 344.918,-19.4057 z
M 479.753,-19.4543 L 478.952,-19.6956 L 439.366,-36.3118 L 438.494,-36.8151 L 437.885,-37.3879 L 437.408,-38.0748
 L 437.084,-38.8459 L 436.928,-39.6673 L 436.946,-40.5034 L 437.138,-41.3174 L 437.494,-42.0739 L 438,-42.7397
 L 438.633,-43.2858 L 439.366,-43.6882 L 478.952,-60.3044 L 480.082,-60.5943 L 480.918,-60.5943 L 481.736,-60.4204
 L 482.5,-60.0803 L 483.177,-59.5888 L 483.736,-58.9673 L 484.154,-58.2431 L 484.413,-57.4478 L 484.5,-56.6162
 L 484.5,-23.3838 L 484.33,-22.2297 L 484.006,-21.4586 L 483.529,-20.7717 L 482.92,-20.1989 L 482.205,-19.7654
 L 481.415,-19.49 L 480.586,-19.3847 z
M 182.5,-18 L 181.264,-18.1958 L 180.5,-18.5359 L 179.823,-19.0274 L 179.264,-19.6489 L 178.846,-20.373
 L 178.587,-21.1684 L 178.5,-22 L 178.5,-54.4476 L 178.67,-55.6018 L 178.994,-56.3728 L 179.471,-57.0598
 L 180.08,-57.6325 L 180.795,-58.0661 L 181.585,-58.3415 L 182.414,-58.4467 L 183.247,-58.3772 L 184.048,-58.1359
 L 261.35,-25.6882 L 262.153,-25.2361 L 262.774,-24.6765 L 263.266,-24 L 263.606,-23.2361 L 263.78,-22.4181
 L 263.78,-21.5819 L 263.606,-20.7639 L 263.266,-20 L 262.774,-19.3235 L 262.153,-18.7639 L 261.429,-18.3458
 L 260.633,-18.0874 L 259.802,-18 z
M 565.198,-18 L 564.367,-18.0874 L 563.571,-18.3458 L 562.847,-18.7639 L 562.226,-19.3235 L 561.734,-20
 L 561.394,-20.7639 L 561.22,-21.5819 L 561.22,-22.4181 L 561.394,-23.2361 L 561.734,-24 L 562.226,-24.6765
 L 562.847,-25.2361 L 563.65,-25.6882 L 640.952,-58.1359 L 641.753,-58.3772 L 642.586,-58.4467 L 643.415,-58.3415
 L 644.205,-58.0661 L 644.92,-57.6325 L 645.529,-57.0598 L 646.006,-56.3728 L 646.33,-55.6018 L 646.5,-54.4476
 L 646.5,-22 L 646.413,-21.1684 L 646.154,-20.373 L 645.736,-19.6489 L 645.177,-19.0274 L 644.5,-18.5359
 L 643.736,-18.1958 L 642.5,-18 z
M 22,-18 L 20.7639,-18.1958 L 20,-18.5359 L 19.3235,-19.0274 L 18.7639,-19.6489 L 18.3458,-20.373
 L 18.0874,-21.1684 L 18,-22 L 18,-53.818 L 18.1701,-54.9722 L 18.4938,-55.7432 L 18.9707,-56.4301
 L 19.58,-57.0029 L 20.295,-57.4364 L 21.0846,-57.7119 L 21.9142,-57.8171 L 22.7475,-57.7475 L 23.5482,-57.5063
 L 99.3499,-25.6882 L 100.153,-25.2361 L 100.774,-24.6765 L 101.266,-24 L 101.606,-23.2361 L 101.78,-22.4181
 L 101.78,-21.5819 L 101.606,-20.7639 L 101.266,-20 L 100.774,-19.3235 L 100.153,-18.7639 L 99.4287,-18.3458
 L 98.6334,-18.0874 L 97.8017,-18 z
M 727.198,-18 L 726.367,-18.0874 L 725.571,-18.3458 L 724.847,-18.7639 L 724.226,-19.3235 L 723.734,-20
 L 723.394,-20.7639 L 723.22,-21.5819 L 723.22,-22.4181 L 723.394,-23.2361 L 723.734,-24 L 724.226,-24.6765
 L 724.847,-25.2361 L 725.65,-25.6882 L 801.452,-57.5063 L 802.253,-57.7475 L 803.086,-57.8171 L 803.915,-57.7119
 L 804.705,-57.4364 L 805.42,-57.0029 L 806.029,-56.4301 L 806.506,-55.7432 L 806.83,-54.9722 L 807,-53.818
 L 807,-22 L 806.913,-21.1684 L 806.654,-20.373 L 806.236,-19.6489 L 805.677,-19.0274 L 805,-18.5359
 L 804.236,-18.1958 L 803,-18 z
M 398.032,-18 L 397.117,-18.1062 L 396.327,-18.3816 L 395.612,-18.8151 L 395.003,-19.3879 L 394.526,-20.0748
 L 394.202,-20.8459 L 394.046,-21.6673 L 394.064,-22.5034 L 394.255,-23.3174 L 394.612,-24.0739 L 395.118,-24.7397
 L 395.751,-25.2858 L 396.484,-25.6882 L 410.952,-31.7612 L 411.585,-31.9668 L 412.414,-32.0721 L 413.247,-32.0025
 L 414.048,-31.7612 L 428.516,-25.6882 L 429.319,-25.2361 L 429.941,-24.6765 L 430.432,-24 L 430.772,-23.2361
 L 430.946,-22.4181 L 430.946,-21.5819 L 430.772,-20.7639 L 430.432,-20 L 429.941,-19.3235 L 429.319,-18.7639
 L 428.595,-18.3458 L 427.8,-18.0874 L 426.968,-18 z
" stroke="black" fill="lightgray" stroke-width="0.5"/>
</svg>
