<?xml version="1.0" standalone="no"?>
<!DOCTYPE svg PUBLIC "-//W3C//DTD SVG 1.1//EN" "http://www.w3.org/Graphics/SVG/1.1/DTD/svg11.dtd">
<svg width="839mm" height="80mm" viewBox="0 -80 839 80" xmlns="http://www.w3.org/2000/svg" version="1.1">
<title>OpenSCAD Model</title>
<path d="
M 839,-80 L 0,-80 L 0,-0 L 4.95,-0 L 4.95,-6 L 5.00572,-6.53017
 L 5.17046,-7.03717 L 5.437,-7.49884 L 5.79372,-7.895 L 6.22499,-8.20836 L 6.71201,-8.42519 L 7.23344,-8.53603
 L 7.76654,-8.53603 L 8.28798,-8.42519 L 8.77499,-8.20836 L 9.20627,-7.895 L 9.56299,-7.49884 L 9.82953,-7.03717
 L 9.99426,-6.53017 L 10.05,-6 L 10.05,-0 L 169.75,-0 L 169.75,-6 L 169.806,-6.53017
 L 169.97,-7.03717 L 170.237,-7.49884 L 170.594,-7.895 L 171.025,-8.20836 L 171.512,-8.42519 L 172.033,-8.53603
 L 172.567,-8.53603 L 173.088,-8.42519 L 173.575,-8.20836 L 174.006,-7.895 L 174.363,-7.49884 L 174.63,-7.03717
 L 174.794,-6.53017 L 174.85,-6 L 174.85,-0 L 334.55,-0 L 334.55,-6 L 334.606,-6.53017
 L 334.77,-7.03717 L 335.037,-7.49884 L 335.394,-7.895 L 335.825,-8.20836 L 336.312,-8.42519 L 336.833,-8.53603
 L 337.367,-8.53603 L 337.888,-8.42519 L 338.375,-8.20836 L 338.806,-7.895 L 339.163,-7.49884 L 339.43,-7.03717
 L 339.594,-6.53017 L 339.65,-6 L 339.65,-0 L 499.35,-0 L 499.35,-6 L 499.406,-6.53017
 L 499.57,-7.03717 L 499.837,-7.49884 L 500.194,-7.895 L 500.625,-8.20836 L 501.112,-8.42519 L 501.633,-8.53603
 L 502.167,-8.53603 L 502.688,-8.42519 L 503.175,-8.20836 L 503.606,-7.895 L 503.963,-7.49884 L 504.23,-7.03717
 L 504.394,-6.53017 L 504.45,-6 L 504.45,-0 L 664.15,-0 L 664.15,-6 L 664.206,-6.53017
 L 664.37,-7.03717 L 664.637,-7.49884 L 664.994,-7.895 L 665.425,-8.20836 L 665.912,-8.42519 L 666.433,-8.53603
 L 666.967,-8.53603 L 667.488,-8.42519 L 667.975,-8.20836 L 668.406,-7.895 L 668.763,-7.49884 L 669.03,-7.03717
 L 669.194,-6.53017 L 669.25,-6 L 669.25,-0 L 828.95,-0 L 828.95,-6 L 829.006,-6.53017
 L 829.17,-7.03717 L 829.437,-7.49884 L 829.794,-7.895 L 830.225,-8.20836 L 830.712,-8.42519 L 831.233,-8.53603
 L 831.767,-8.53603 L 832.288,-8.42519 L 832.775,-8.20836 L 833.206,-7.895 L 833.563,-7.49884 L 833.83,-7.03717
 L 833.994,-6.53017 L 834.05,-6 L 834.05,-0 L 839,-0 z
M 6.98573,-55.607 L 6.47708,-55.6875 L 5.97964,-55.8208 L 5.49887,-56.0054 L 5.04001,-56.2392 L 4.60811,-56.5196
 L 4.20789,-56.8437 L 3.84373,-57.2079 L 3.51964,-57.6081 L 3.23917,-58.04 L 3.00537,-58.4989 L 2.82082,-58.9796
 L 2.68752,-59.4771 L 2.60696,-59.9857 L 2.58,-60.5 L 2.60696,-61.0143 L 2.68752,-61.5229 L 2.82082,-62.0204
 L 3.00537,-62.5011 L 3.23917,-62.96 L 3.51964,-63.3919 L 3.84373,-63.7921 L 4.20789,-64.1563 L 4.60811,-64.4804
 L 4.95001,-64.7024 L 4.95001,-74 L 5.00574,-74.5302 L 5.17047,-75.0372 L 5.43701,-75.4988 L 5.79373,-75.895
 L 6.22501,-76.2084 L 6.71202,-76.4252 L 7.23346,-76.536 L 7.76654,-76.536 L 8.28798,-76.4252 L 8.77499,-76.2084
 L 9.20627,-75.895 L 9.56299,-75.4988 L 9.82953,-75.0372 L 9.99426,-74.5302 L 10.05,-74 L 10.05,-64.7024
 L 10.3919,-64.4804 L 10.7921,-64.1563 L 11.1563,-63.7921 L 11.4804,-63.3919 L 11.7608,-62.96 L 11.9946,-62.5011
 L 12.1792,-62.0204 L 12.3125,-61.5229 L 12.393,-61.0143 L 12.42,-60.5 L 12.393,-59.9857 L 12.3125,-59.4771
 L 12.1792,-58.9796 L 11.9946,-58.4989 L 11.7608,-58.04 L 11.4804,-57.6081 L 11.1563,-57.2079 L 10.7921,-56.8437
 L 10.3919,-56.5196 L 9.95999,-56.2392 L 9.50113,-56.0054 L 9.02036,-55.8208 L 8.52292,-55.6875 L 8.01427,-55.607
 L 7.5,-55.58 z
M 171.786,-55.607 L 171.277,-55.6875 L 170.78,-55.8208 L 170.299,-56.0054 L 169.84,-56.2392 L 169.408,-56.5196
 L 169.008,-56.8437 L 168.644,-57.2079 L 168.32,-57.6081 L 168.039,-58.04 L 167.805,-58.4989 L 167.621,-58.9796
 L 167.488,-59.4771 L 167.407,-59.9857 L 167.38,-60.5 L 167.407,-61.0143 L 167.488,-61.5229 L 167.621,-62.0204
 L 167.805,-62.5011 L 168.039,-62.96 L 168.32,-63.3919 L 168.644,-63.7921 L 169.008,-64.1563 L 169.408,-64.4804
 L 169.75,-64.7024 L 169.75,-74 L 169.806,-74.5302 L 169.97,-75.0372 L 170.237,-75.4988 L 170.594,-75.895
 L 171.025,-76.2084 L 171.512,-76.4252 L 172.033,-76.536 L 172.567,-76.536 L 173.088,-76.4252 L 173.575,-76.2084
 L 174.006,-75.895 L 174.363,-75.4988 L 174.63,-75.0372 L 174.794,-74.5302 L 174.85,-74 L 174.85,-64.7024
 L 175.192,-64.4804 L 175.592,-64.1563 L 175.956,-63.7921 L 176.28,-63.3919 L 176.561,-62.96 L 176.795,-62.5011
 L 176.979,-62.0204 L 177.112,-61.5229 L 177.193,-61.0143 L 177.22,-60.5 L 177.193,-59.9857 L 177.112,-59.4771
 L 176.979,-58.9796 L 176.795,-58.4989 L 176.561,-58.04 L 176.28,-57.6081 L 175.956,-57.2079 L 175.592,-56.8437
 L 175.192,-56.5196 L 174.76,-56.2392 L 174.301,-56.0054 L 173.82,-55.8208 L 173.323,-55.6875 L 172.814,-55.607
 L 172.3,-55.58 z
M 336.586,-55.607 L 336.077,-55.6875 L 335.58,-55.8208 L 335.099,-56.0054 L 334.64,-56.2392 L 334.208,-56.5196
 L 333.808,-56.8437 L 333.444,-57.2079 L 333.12,-57.6081 L 332.839,-58.04 L 332.605,-58.4989 L 332.421,-58.9796
 L 332.288,-59.4771 L 332.207,-59.9857 L 332.18,-60.5 L 332.207,-61.0143 L 332.288,-61.5229 L 332.421,-62.0204
 L 332.605,-62.5011 L 332.839,-62.96 L 333.12,-63.3919 L 333.444,-63.7921 L 333.808,-64.1563 L 334.208,-64.4804
 L 334.55,-64.7024 L 334.55,-74 L 334.606,-74.5302 L 334.77,-75.0372 L 335.037,-75.4988 L 335.394,-75.895
 L 335.825,-76.2084 L 336.312,-76.4252 L 336.833,-76.536 L 337.367,-76.536 L 337.888,-76.4252 L 338.375,-76.2084
 L 338.806,-75.895 L 339.163,-75.4988 L 339.43,-75.0372 L 339.594,-74.5302 L 339.65,-74 L 339.65,-64.7024
 L 339.992,-64.4804 L 340.392,-64.1563 L 340.756,-63.7921 L 341.08,-63.3919 L 341.361,-62.96 L 341.595,-62.5011
 L 341.779,-62.0204 L 341.912,-61.5229 L 341.993,-61.0143 L 342.02,-60.5 L 341.993,-59.9857 L 341.912,-59.4771
 L 341.779,-58.9796 L 341.595,-58.4989 L 341.361,-58.04 L 341.08,-57.6081 L 340.756,-57.2079 L 340.392,-56.8437
 L 339.992,-56.5196 L 339.56,-56.2392 L 339.101,-56.0054 L 338.62,-55.8208 L 338.123,-55.6875 L 337.614,-55.607
 L 337.1,-55.58 z
M 501.386,-55.607 L 500.877,-55.6875 L 500.38,-55.8208 L 499.899,-56.0054 L 499.44,-56.2392 L 499.008,-56.5196
 L 498.608,-56.8437 L 498.244,-57.2079 L 497.92,-57.6081 L 497.639,-58.04 L 497.405,-58.4989 L 497.221,-58.9796
 L 497.088,-59.4771 L 497.007,-59.9857 L 496.98,-60.5 L 497.007,-61.0143 L 497.088,-61.5229 L 497.221,-62.0204
 L 497.405,-62.5011 L 497.639,-62.96 L 497.92,-63.3919 L 498.244,-63.7921 L 498.608,-64.1563 L 499.008,-64.4804
 L 499.35,-64.7024 L 499.35,-74 L 499.406,-74.5302 L 499.57,-75.0372 L 499.837,-75.4988 L 500.194,-75.895
 L 500.625,-76.2084 L 501.112,-76.4252 L 501.633,-76.536 L 502.167,-76.536 L 502.688,-76.4252 L 503.175,-76.2084
 L 503.606,-75.895 L 503.963,-75.4988 L 504.23,-75.0372 L 504.394,-74.5302 L 504.45,-74 L 504.45,-64.7024
 L 504.792,-64.4804 L 505.192,-64.1563 L 505.556,-63.7921 L 505.88,-63.3919 L 506.161,-62.96 L 506.395,-62.5011
 L 506.579,-62.0204 L 506.712,-61.5229 L 506.793,-61.0143 L 506.82,-60.5 L 506.793,-59.9857 L 506.712,-59.4771
 L 506.579,-58.9796 L 506.395,-58.4989 L 506.161,-58.04 L 505.88,-57.6081 L 505.556,-57.2079 L 505.192,-56.8437
 L 504.792,-56.5196 L 504.36,-56.2392 L 503.901,-56.0054 L 503.42,-55.8208 L 502.923,-55.6875 L 502.414,-55.607
 L 501.9,-55.58 z
M 666.186,-55.607 L 665.677,-55.6875 L 665.18,-55.8208 L 664.699,-56.0054 L 664.24,-56.2392 L 663.808,-56.5196
 L 663.408,-56.8437 L 663.044,-57.2079 L 662.72,-57.6081 L 662.439,-58.04 L 662.205,-58.4989 L 662.021,-58.9796
 L 661.888,-59.4771 L 661.807,-59.9857 L 661.78,-60.5 L 661.807,-61.0143 L 661.888,-61.5229 L 662.021,-62.0204
 L 662.205,-62.5011 L 662.439,-62.96 L 662.72,-63.3919 L 663.044,-63.7921 L 663.408,-64.1563 L 663.808,-64.4804
 L 664.15,-64.7024 L 664.15,-74 L 664.206,-74.5302 L 664.37,-75.0372 L 664.637,-75.4988 L 664.994,-75.895
 L 665.425,-76.2084 L 665.912,-76.4252 L 666.433,-76.536 L 666.967,-76.536 L 667.488,-76.4252 L 667.975,-76.2084
 L 668.406,-75.895 L 668.763,-75.4988 L 669.03,-75.0372 L 669.194,-74.5302 L 669.25,-74 L 669.25,-64.7024
 L 669.592,-64.4804 L 669.992,-64.1563 L 670.356,-63.7921 L 670.68,-63.3919 L 670.961,-62.96 L 671.195,-62.5011
 L 671.379,-62.0204 L 671.512,-61.5229 L 671.593,-61.0143 L 671.62,-60.5 L 671.593,-59.9857 L 671.512,-59.4771
 L 671.379,-58.9796 L 671.195,-58.4989 L 670.961,-58.04 L 670.68,-57.6081 L 670.356,-57.2079 L 669.992,-56.8437
 L 669.592,-56.5196 L 669.16,-56.2392 L 668.701,-56.0054 L 668.22,-55.8208 L 667.723,-55.6875 L 667.214,-55.607
 L 666.7,-55.58 z
M 830.986,-55.607 L 830.477,-55.6875 L 829.98,-55.8208 L 829.499,-56.0054 L 829.04,-56.2392 L 828.608,-56.5196
 L 828.208,-56.8437 L 827.844,-57.2079 L 827.52,-57.6081 L 827.239,-58.04 L 827.005,-58.4989 L 826.821,-58.9796
 L 826.688,-59.4771 L 826.607,-59.9857 L 826.58,-60.5 L 826.607,-61.0143 L 826.688,-61.5229 L 826.821,-62.0204
 L 827.005,-62.5011 L 827.239,-62.96 L 827.52,-63.3919 L 827.844,-63.7921 L 828.208,-64.1563 L 828.608,-64.4804
 L 828.95,-64.7024 L 828.95,-74 L 829.006,-74.5302 L 829.17,-75.0372 L 829.437,-75.4988 L 829.794,-75.895
 L 830.225,-76.2084 L 830.712,-76.4252 L 831.233,-76.536 L 831.767,-76.536 L 832.288,-76.4252 L 832.775,-76.2084
 L 833.206,-75.895 L 833.563,-75.4988 L 833.83,-75.0372 L 833.994,-74.5302 L 834.05,-74 L 834.05,-64.7024
 L 834.392,-64.4804 L 834.792,-64.1563 L 835.156,-63.7921 L 835.48,-63.3919 L 835.761,-62.96 L 835.995,-62.5011
 L 836.179,-62.0204 L 836.312,-61.5229 L 836.393,-61.0143 L 836.42,-60.5 L 836.393,-59.9857 L 836.312,-59.4771
 L 836.179,-58.9796 L 835.995,-58.4989 L 835.761,-58.04 L 835.48,-57.6081 L 835.156,-57.2079 L 834.792,-56.8437
 L 834.392,-56.5196 L 833.96,-56.2392 L 833.501,-56.0054 L 833.02,-55.8208 L 832.523,-55.6875 L 832.014,-55.607
 L 831.5,-55.58 z
M 418.776,-47.9611 L 417.974,-48.1975 L 403.179,-54.3024 L 402.353,-54.7639 L 401.732,-55.3235 L 401.24,-56
 L 400.9,-56.7639 L 400.727,-57.5819 L 400.727,-58.4181 L 400.9,-59.2361 L 401.24,-60 L 401.732,-60.6765
 L 402.353,-61.2361 L 403.078,-61.6542 L 403.873,-61.9126 L 404.705,-62 L 434.295,-62 L 435.234,-61.8882
 L 436.022,-61.608 L 436.735,-61.1701 L 437.341,-60.5937 L 437.813,-59.9039 L 438.132,-59.1308 L 438.283,-58.3084
 L 438.26,-57.4725 L 438.064,-56.6596 L 437.703,-55.9054 L 437.193,-55.2426 L 436.557,-54.7004 L 435.821,-54.3024
 L 421.026,-48.1975 L 420.439,-48.0069 L 419.61,-47.8966 z
M 323.376,-21.4879 L 322.574,-21.7243 L 243.62,-54.3024 L 242.795,-54.7639 L 242.173,-55.3235 L 241.682,-56
 L 241.342,-56.7639 L 241.168,-57.5819 L 241.168,-58.4181 L 241.342,-59.2361 L 241.682,-60 L 242.173,-60.6765
 L 242.795,-61.2361 L 243.519,-61.6542 L 244.314,-61.9126 L 245.146,-62 L 324.1,-62 L 325.336,-61.8042
 L 326.1,-61.4641 L 326.777,-60.9726 L 327.336,-60.3511 L 327.754,-59.627 L 328.013,-58.8316 L 328.1,-58
 L 328.1,-25.4219 L 327.937,-24.2911 L 327.618,-23.5181 L 327.145,-22.8283 L 326.539,-22.2518 L 325.827,-21.8139
 L 325.039,-21.5337 L 324.21,-21.4234 z
M 678.761,-21.5337 L 677.973,-21.8139 L 677.261,-22.2518 L 676.655,-22.8283 L 676.182,-23.5181 L 675.863,-24.2911
 L 675.7,-25.4219 L 675.7,-58 L 675.787,-58.8316 L 676.046,-59.627 L 676.464,-60.3511 L 677.023,-60.9726
 L 677.7,-61.4641 L 678.464,-61.8042 L 679.7,-62 L 758.654,-62 L 759.486,-61.9126 L 760.281,-61.6542
 L 761.005,-61.2361 L 761.627,-60.6765 L 762.118,-60 L 762.458,-59.2361 L 762.632,-58.4181 L 762.632,-57.5819
 L 762.458,-56.7639 L 762.118,-56 L 761.627,-55.3235 L 761.005,-54.7639 L 760.18,-54.3024 L 681.226,-21.7243
 L 680.424,-21.4879 L 679.59,-21.4234 z
M 158.576,-21.4879 L 157.774,-21.7243 L 78.8204,-54.3024 L 77.9949,-54.7639 L 77.3735,-55.3235 L 76.882,-56
 L 76.5418,-56.7639 L 76.368,-57.5819 L 76.368,-58.4181 L 76.5418,-59.2361 L 76.882,-60 L 77.3735,-60.6765
 L 77.9949,-61.2361 L 78.7191,-61.6542 L 79.5144,-61.9126 L 80.3461,-62 L 159.3,-62 L 160.536,-61.8042
 L 161.3,-61.4641 L 161.977,-60.9726 L 162.536,-60.3511 L 162.954,-59.627 L 163.213,-58.8316 L 163.3,-58
 L 163.3,-25.4219 L 163.137,-24.2911 L 162.818,-23.5181 L 162.345,-22.8283 L 161.739,-22.2518 L 161.027,-21.8139
 L 160.239,-21.5337 L 159.41,-21.4234 z
M 513.961,-21.5337 L 513.173,-21.8139 L 512.461,-22.2518 L 511.855,-22.8283 L 511.382,-23.5181 L 511.063,-24.2911
 L 510.9,-25.4219 L 510.9,-58 L 510.987,-58.8316 L 511.246,-59.627 L 511.664,-60.3511 L 512.223,-60.9726
 L 512.9,-61.4641 L 513.664,-61.8042 L 514.9,-62 L 593.854,-62 L 594.686,-61.9126 L 595.481,-61.6542
 L 596.205,-61.2361 L 596.827,-60.6765 L 597.318,-60 L 597.658,-59.2361 L 597.832,-58.4181 L 597.832,-57.5819
 L 597.658,-56.7639 L 597.318,-56 L 596.827,-55.3235 L 596.205,-54.7639 L 595.38,-54.3024 L 516.426,-21.7243
 L 515.624,-21.4879 L 514.79,-21.4234 z
M 349.682,-19.2811 L 348.864,-19.455 L 348.1,-19.7951 L 347.423,-20.2866 L 346.864,-20.9081 L 346.446,-21.6322
 L 346.187,-22.4276 L 346.1,-23.2592 L 346.1,-56.7408 L 346.263,-57.8716 L 346.582,-58.6447 L 347.055,-59.3345
 L 347.661,-59.9109 L 348.373,-60.3488 L 349.161,-60.629 L 349.99,-60.7393 L 350.824,-60.6748 L 351.626,-60.4384
 L 392.198,-43.6976 L 393.111,-43.1701 L 393.717,-42.5937 L 394.19,-41.9039 L 394.509,-41.1308 L 394.66,-40.3084
 L 394.637,-39.4725 L 394.441,-38.6597 L 394.08,-37.9054 L 393.57,-37.2426 L 392.933,-36.7004 L 392.198,-36.3024
 L 351.626,-19.5616 L 350.518,-19.2811 z
M 488.176,-19.3252 L 487.374,-19.5616 L 446.802,-36.3024 L 445.889,-36.8299 L 445.283,-37.4063 L 444.81,-38.0961
 L 444.491,-38.8692 L 444.34,-39.6916 L 444.363,-40.5275 L 444.559,-41.3403 L 444.92,-42.0946 L 445.43,-42.7574
 L 446.067,-43.2996 L 446.802,-43.6976 L 487.374,-60.4384 L 488.482,-60.7189 L 489.318,-60.7189 L 490.136,-60.545
 L 490.9,-60.2049 L 491.577,-59.7134 L 492.136,-59.0919 L 492.554,-58.3678 L 492.813,-57.5725 L 492.9,-56.7408
 L 492.9,-23.2592 L 492.737,-22.1283 L 492.418,-21.3553 L 491.945,-20.6655 L 491.339,-20.0891 L 490.627,-19.6512
 L 489.839,-19.371 L 489.01,-19.2607 z
M 185.3,-18 L 184.064,-18.1958 L 183.3,-18.5359 L 182.623,-19.0274 L 182.064,-19.6489 L 181.646,-20.373
 L 181.387,-21.1684 L 181.3,-22 L 181.3,-54.5781 L 181.463,-55.7089 L 181.782,-56.4819 L 182.255,-57.1717
 L 182.861,-57.7482 L 183.573,-58.1861 L 184.361,-58.4663 L 185.19,-58.5766 L 186.024,-58.5121 L 186.826,-58.2757
 L 265.78,-25.6976 L 266.605,-25.2361 L 267.226,-24.6765 L 267.718,-24 L 268.058,-23.2361 L 268.232,-22.4181
 L 268.232,-21.5819 L 268.058,-20.7639 L 267.718,-20 L 267.226,-19.3235 L 266.605,-18.7639 L 265.881,-18.3458
 L 265.086,-18.0874 L 264.254,-18 z
M 574.746,-18 L 573.914,-18.0874 L 573.119,-18.3458 L 572.395,-18.7639 L 571.774,-19.3235 L 571.282,-20
 L 570.942,-20.7639 L 570.768,-21.5819 L 570.768,-22.4181 L 570.942,-23.2361 L 571.282,-24 L 571.774,-24.6765
 L 572.395,-25.2361 L 573.22,-25.6976 L 652.174,-58.2757 L 652.976,-58.5121 L 653.81,-58.5766 L 654.639,-58.4663
 L 655.427,-58.1861 L 656.139,-57.7482 L 656.745,-57.1717 L 657.218,-56.4819 L 657.537,-55.7089 L 657.7,-54.5781
 L 657.7,-22 L 657.613,-21.1684 L 657.354,-20.373 L 656.936,-19.6489 L 656.377,-19.0274 L 655.7,-18.5359
 L 654.936,-18.1958 L 653.7,-18 z
M 22,-18 L 20.7639,-18.1958 L 20,-18.5359 L 19.3235,-19.0274 L 18.7639,-19.6489 L 18.3458,-20.373
 L 18.0874,-21.1684 L 18,-22 L 18,-53.9591 L 18.1632,-55.09 L 18.4821,-55.863 L 18.9548,-56.5528
 L 19.5606,-57.1292 L 20.273,-57.5671 L 21.0609,-57.8473 L 21.8899,-57.9576 L 22.7236,-57.8931 L 23.5257,-57.6567
 L 100.98,-25.6976 L 101.805,-25.2361 L 102.426,-24.6765 L 102.918,-24 L 103.258,-23.2361 L 103.432,-22.4181
 L 103.432,-21.5819 L 103.258,-20.7639 L 102.918,-20 L 102.426,-19.3235 L 101.805,-18.7639 L 101.081,-18.3458
 L 100.286,-18.0874 L 99.4539,-18 z
M 739.546,-18 L 738.714,-18.0874 L 737.919,-18.3458 L 737.195,-18.7639 L 736.574,-19.3235 L 736.082,-20
 L 735.742,-20.7639 L 735.568,-21.5819 L 735.568,-22.4181 L 735.742,-23.2361 L 736.082,-24 L 736.574,-24.6765
 L 737.195,-25.2361 L 738.02,-25.6976 L 815.474,-57.6567 L 816.276,-57.8931 L 817.11,-57.9576 L 817.939,-57.8473
 L 818.727,-57.5671 L 819.439,-57.1292 L 820.045,-56.5528 L 820.518,-55.863 L 820.837,-55.09 L 821,-53.9591
 L 821,-22 L 820.913,-21.1684 L 820.654,-20.373 L 820.236,-19.6489 L 819.677,-19.0274 L 819,-18.5359
 L 818.236,-18.1958 L 817,-18 z
M 404.705,-18 L 403.766,-18.1118 L 402.978,-18.392 L 402.265,-18.8299 L 401.659,-19.4063 L 401.187,-20.0961
 L 400.868,-20.8692 L 400.716,-21.6916 L 400.74,-22.5275 L 400.936,-23.3403 L 401.297,-24.0946 L 401.807,-24.7574
 L 402.443,-25.2996 L 403.179,-25.6976 L 417.974,-31.8025 L 418.561,-31.9931 L 419.39,-32.1034 L 420.224,-32.0389
 L 421.026,-31.8025 L 435.821,-25.6976 L 436.646,-25.2361 L 437.268,-24.6765 L 437.759,-24 L 438.1,-23.2361
 L 438.273,-22.4181 L 438.273,-21.5819 L 438.1,-20.7639 L 437.759,-20 L 437.268,-19.3235 L 436.646,-18.7639
 L 435.922,-18.3458 L 435.127,-18.0874 L 434.295,-18 z
" stroke="black" fill="lightgray" stroke-width="0.5"/>
</svg>
