<?xml version="1.0" standalone="no"?>
<!DOCTYPE svg PUBLIC "-//W3C//DTD SVG 1.1//EN" "http://www.w3.org/Graphics/SVG/1.1/DTD/svg11.dtd">
<svg width="767mm" height="80mm" viewBox="0 -80 767 80" xmlns="http://www.w3.org/2000/svg" version="1.1">
<title>OpenSCAD Model</title>
<path d="
M 767,-80 L 0,-80 L 0,-0 L 4.95,-0 L 4.95,-6 L 5.00572,-6.53017
 L 5.17046,-7.03717 L 5.437,-7.49884 L 5.79372,-7.895 L 6.22499,-8.20836 L 6.71201,-8.42519 L 7.23344,-8.53603
 L 7.76654,-8.53603 L 8.28798,-8.42519 L 8.77499,-8.20836 L 9.20627,-7.895 L 9.56299,-7.49884 L 9.82953,-7.03717
 L 9.99426,-6.53017 L 10.05,-6 L 10.05,-0 L 155.35,-0 L 155.35,-6 L 155.406,-6.53017
 L 155.57,-7.03717 L 155.837,-7.49884 L 156.194,-7.895 L 156.625,-8.20836 L 157.112,-8.42519 L 157.633,-8.53603
 L 158.167,-8.53603 L 158.688,-8.42519 L 159.175,-8.20836 L 159.606,-7.895 L 159.963,-7.49884 L 160.23,-7.03717
 L 160.394,-6.53017 L 160.45,-6 L 160.45,-0 L 305.75,-0 L 305.75,-6 L 305.806,-6.53017
 L 305.97,-7.03717 L 306.237,-7.49884 L 306.594,-7.895 L 307.025,-8.20836 L 307.512,-8.42519 L 308.033,-8.53603
 L 308.567,-8.53603 L 309.088,-8.42519 L 309.575,-8.20836 L 310.006,-7.895 L 310.363,-7.49884 L 310.63,-7.03717
 L 310.794,-6.53017 L 310.85,-6 L 310.85,-0 L 456.15,-0 L 456.15,-6 L 456.206,-6.53017
 L 456.37,-7.03717 L 456.637,-7.49884 L 456.994,-7.895 L 457.425,-8.20836 L 457.912,-8.42519 L 458.433,-8.53603
 L 458.967,-8.53603 L 459.488,-8.42519 L 459.975,-8.20836 L 460.406,-7.895 L 460.763,-7.49884 L 461.03,-7.03717
 L 461.194,-6.53017 L 461.25,-6 L 461.25,-0 L 606.55,-0 L 606.55,-6 L 606.606,-6.53017
 L 606.77,-7.03717 L 607.037,-7.49884 L 607.394,-7.895 L 607.825,-8.20836 L 608.312,-8.42519 L 608.833,-8.53603
 L 609.367,-8.53603 L 609.888,-8.42519 L 610.375,-8.20836 L 610.806,-7.895 L 611.163,-7.49884 L 611.43,-7.03717
 L 611.594,-6.53017 L 611.65,-6 L 611.65,-0 L 756.95,-0 L 756.95,-6 L 757.006,-6.53017
 L 757.17,-7.03717 L 757.437,-7.49884 L 757.794,-7.895 L 758.225,-8.20836 L 758.712,-8.42519 L 759.233,-8.53603
 L 759.767,-8.53603 L 760.288,-8.42519 L 760.775,-8.20836 L 761.206,-7.895 L 761.563,-7.49884 L 761.83,-7.03717
 L 761.994,-6.53017 L 762.05,-6 L 762.05,-0 L 767,-0 z
M 6.98573,-55.607 L 6.47708,-55.6875 L 5.97964,-55.8208 L 5.49887,-56.0054 L 5.04001,-56.2392 L 4.60811,-56.5196
 L 4.20789,-56.8437 L 3.84373,-57.2079 L 3.51964,-57.6081 L 3.23917,-58.04 L 3.00537,-58.4989 L 2.82082,-58.9796
 L 2.68752,-59.4771 L 2.60696,-59.9857 L 2.58,-60.5 L 2.60696,-61.0143 L 2.68752,-61.5229 L 2.82082,-62.0204
 L 3.00537,-62.5011 L 3.23917,-62.96 L 3.51964,-63.3919 L 3.84373,-63.7921 L 4.20789,-64.1563 L 4.60811,-64.4804
 L 4.95001,-64.7024 L 4.95001,-74 L 5.00574,-74.5302 L 5.17047,-75.0372 L 5.43701,-75.4988 L 5.79373,-75.895
 L 6.22501,-76.2084 L 6.71202,-76.4252 L 7.23346,-76.536 L 7.76654,-76.536 L 8.28798,-76.4252 L 8.77499,-76.2084
 L 9.20627,-75.895 L 9.56299,-75.4988 L 9.82953,-75.0372 L 9.99426,-74.5302 L 10.05,-74 L 10.05,-64.7024
 L 10.3919,-64.4804 L 10.7921,-64.1563 L 11.1563,-63.7921 L 11.4804,-63.3919 L 11.7608,-62.96 L 11.9946,-62.5011
 L 12.1792,-62.0204 L 12.3125,-61.5229 L 12.393,-61.0143 L 12.42,-60.5 L 12.393,-59.9857 L 12.3125,-59.4771
 L 12.1792,-58.9796 L 11.9946,-58.4989 L 11.7608,-58.04 L 11.4804,-57.6081 L 11.1563,-57.2079 L 10.7921,-56.8437
 L 10.3919,-56.5196 L 9.95999,-56.2392 L 9.50113,-56.0054 L 9.02036,-55.8208 L 8.52292,-55.6875 L 8.01427,-55.607
 L 7.5,-55.58 z
M 157.386,-55.607 L 156.877,-55.6875 L 156.38,-55.8208 L 155.899,-56.0054 L 155.44,-56.2392 L 155.008,-56.5196
 L 154.608,-56.8437 L 154.244,-57.2079 L 153.92,-57.6081 L 153.639,-58.04 L 153.405,-58.4989 L 153.221,-58.9796
 L 153.088,-59.4771 L 153.007,-59.9857 L 152.98,-60.5 L 153.007,-61.0143 L 153.088,-61.5229 L 153.221,-62.0204
 L 153.405,-62.5011 L 153.639,-62.96 L 153.92,-63.3919 L 154.244,-63.7921 L 154.608,-64.1563 L 155.008,-64.4804
 L 155.35,-64.7024 L 155.35,-74 L 155.406,-74.5302 L 155.57,-75.0372 L 155.837,-75.4988 L 156.194,-75.895
 L 156.625,-76.2084 L 157.112,-76.4252 L 157.633,-76.536 L 158.167,-76.536 L 158.688,-76.4252 L 159.175,-76.2084
 L 159.606,-75.895 L 159.963,-75.4988 L 160.23,-75.0372 L 160.394,-74.5302 L 160.45,-74 L 160.45,-64.7024
 L 160.792,-64.4804 L 161.192,-64.1563 L 161.556,-63.7921 L 161.88,-63.3919 L 162.161,-62.96 L 162.395,-62.5011
 L 162.579,-62.0204 L 162.712,-61.5229 L 162.793,-61.0143 L 162.82,-60.5 L 162.793,-59.9857 L 162.712,-59.4771
 L 162.579,-58.9796 L 162.395,-58.4989 L 162.161,-58.04 L 161.88,-57.6081 L 161.556,-57.2079 L 161.192,-56.8437
 L 160.792,-56.5196 L 160.36,-56.2392 L 159.901,-56.0054 L 159.42,-55.8208 L 158.923,-55.6875 L 158.414,-55.607
 L 157.9,-55.58 z
M 307.786,-55.607 L 307.277,-55.6875 L 306.78,-55.8208 L 306.299,-56.0054 L 305.84,-56.2392 L 305.408,-56.5196
 L 305.008,-56.8437 L 304.644,-57.2079 L 304.32,-57.6081 L 304.039,-58.04 L 303.805,-58.4989 L 303.621,-58.9796
 L 303.488,-59.4771 L 303.407,-59.9857 L 303.38,-60.5 L 303.407,-61.0143 L 303.488,-61.5229 L 303.621,-62.0204
 L 303.805,-62.5011 L 304.039,-62.96 L 304.32,-63.3919 L 304.644,-63.7921 L 305.008,-64.1563 L 305.408,-64.4804
 L 305.75,-64.7024 L 305.75,-74 L 305.806,-74.5302 L 305.97,-75.0372 L 306.237,-75.4988 L 306.594,-75.895
 L 307.025,-76.2084 L 307.512,-76.4252 L 308.033,-76.536 L 308.567,-76.536 L 309.088,-76.4252 L 309.575,-76.2084
 L 310.006,-75.895 L 310.363,-75.4988 L 310.63,-75.0372 L 310.794,-74.5302 L 310.85,-74 L 310.85,-64.7024
 L 311.192,-64.4804 L 311.592,-64.1563 L 311.956,-63.7921 L 312.28,-63.3919 L 312.561,-62.96 L 312.795,-62.5011
 L 312.979,-62.0204 L 313.112,-61.5229 L 313.193,-61.0143 L 313.22,-60.5 L 313.193,-59.9857 L 313.112,-59.4771
 L 312.979,-58.9796 L 312.795,-58.4989 L 312.561,-58.04 L 312.28,-57.6081 L 311.956,-57.2079 L 311.592,-56.8437
 L 311.192,-56.5196 L 310.76,-56.2392 L 310.301,-56.0054 L 309.82,-55.8208 L 309.323,-55.6875 L 308.814,-55.607
 L 308.3,-55.58 z
M 458.186,-55.607 L 457.677,-55.6875 L 457.18,-55.8208 L 456.699,-56.0054 L 456.24,-56.2392 L 455.808,-56.5196
 L 455.408,-56.8437 L 455.044,-57.2079 L 454.72,-57.6081 L 454.439,-58.04 L 454.205,-58.4989 L 454.021,-58.9796
 L 453.888,-59.4771 L 453.807,-59.9857 L 453.78,-60.5 L 453.807,-61.0143 L 453.888,-61.5229 L 454.021,-62.0204
 L 454.205,-62.5011 L 454.439,-62.96 L 454.72,-63.3919 L 455.044,-63.7921 L 455.408,-64.1563 L 455.808,-64.4804
 L 456.15,-64.7024 L 456.15,-74 L 456.206,-74.5302 L 456.37,-75.0372 L 456.637,-75.4988 L 456.994,-75.895
 L 457.425,-76.2084 L 457.912,-76.4252 L 458.433,-76.536 L 458.967,-76.536 L 459.488,-76.4252 L 459.975,-76.2084
 L 460.406,-75.895 L 460.763,-75.4988 L 461.03,-75.0372 L 461.194,-74.5302 L 461.25,-74 L 461.25,-64.7024
 L 461.592,-64.4804 L 461.992,-64.1563 L 462.356,-63.7921 L 462.68,-63.3919 L 462.961,-62.96 L 463.195,-62.5011
 L 463.379,-62.0204 L 463.512,-61.5229 L 463.593,-61.0143 L 463.62,-60.5 L 463.593,-59.9857 L 463.512,-59.4771
 L 463.379,-58.9796 L 463.195,-58.4989 L 462.961,-58.04 L 462.68,-57.6081 L 462.356,-57.2079 L 461.992,-56.8437
 L 461.592,-56.5196 L 461.16,-56.2392 L 460.701,-56.0054 L 460.22,-55.8208 L 459.723,-55.6875 L 459.214,-55.607
 L 458.7,-55.58 z
M 608.586,-55.607 L 608.077,-55.6875 L 607.58,-55.8208 L 607.099,-56.0054 L 606.64,-56.2392 L 606.208,-56.5196
 L 605.808,-56.8437 L 605.444,-57.2079 L 605.12,-57.6081 L 604.839,-58.04 L 604.605,-58.4989 L 604.421,-58.9796
 L 604.288,-59.4771 L 604.207,-59.9857 L 604.18,-60.5 L 604.207,-61.0143 L 604.288,-61.5229 L 604.421,-62.0204
 L 604.605,-62.5011 L 604.839,-62.96 L 605.12,-63.3919 L 605.444,-63.7921 L 605.808,-64.1563 L 606.208,-64.4804
 L 606.55,-64.7024 L 606.55,-74 L 606.606,-74.5302 L 606.77,-75.0372 L 607.037,-75.4988 L 607.394,-75.895
 L 607.825,-76.2084 L 608.312,-76.4252 L 608.833,-76.536 L 609.367,-76.536 L 609.888,-76.4252 L 610.375,-76.2084
 L 610.806,-75.895 L 611.163,-75.4988 L 611.43,-75.0372 L 611.594,-74.5302 L 611.65,-74 L 611.65,-64.7024
 L 611.992,-64.4804 L 612.392,-64.1563 L 612.756,-63.7921 L 613.08,-63.3919 L 613.361,-62.96 L 613.595,-62.5011
 L 613.779,-62.0204 L 613.912,-61.5229 L 613.993,-61.0143 L 614.02,-60.5 L 613.993,-59.9857 L 613.912,-59.4771
 L 613.779,-58.9796 L 613.595,-58.4989 L 613.361,-58.04 L 613.08,-57.6081 L 612.756,-57.2079 L 612.392,-56.8437
 L 611.992,-56.5196 L 611.56,-56.2392 L 611.101,-56.0054 L 610.62,-55.8208 L 610.123,-55.6875 L 609.614,-55.607
 L 609.1,-55.58 z
M 758.986,-55.607 L 758.477,-55.6875 L 757.98,-55.8208 L 757.499,-56.0054 L 757.04,-56.2392 L 756.608,-56.5196
 L 756.208,-56.8437 L 755.844,-57.2079 L 755.52,-57.6081 L 755.239,-58.04 L 755.005,-58.4989 L 754.821,-58.9796
 L 754.688,-59.4771 L 754.607,-59.9857 L 754.58,-60.5 L 754.607,-61.0143 L 754.688,-61.5229 L 754.821,-62.0204
 L 755.005,-62.5011 L 755.239,-62.96 L 755.52,-63.3919 L 755.844,-63.7921 L 756.208,-64.1563 L 756.608,-64.4804
 L 756.95,-64.7024 L 756.95,-74 L 757.006,-74.5302 L 757.17,-75.0372 L 757.437,-75.4988 L 757.794,-75.895
 L 758.225,-76.2084 L 758.712,-76.4252 L 759.233,-76.536 L 759.767,-76.536 L 760.288,-76.4252 L 760.775,-76.2084
 L 761.206,-75.895 L 761.563,-75.4988 L 761.83,-75.0372 L 761.994,-74.5302 L 762.05,-74 L 762.05,-64.7024
 L 762.392,-64.4804 L 762.792,-64.1563 L 763.156,-63.7921 L 763.48,-63.3919 L 763.761,-62.96 L 763.995,-62.5011
 L 764.179,-62.0204 L 764.312,-61.5229 L 764.393,-61.0143 L 764.42,-60.5 L 764.393,-59.9857 L 764.312,-59.4771
 L 764.179,-58.9796 L 763.995,-58.4989 L 763.761,-58.04 L 763.48,-57.6081 L 763.156,-57.2079 L 762.792,-56.8437
 L 762.392,-56.5196 L 761.96,-56.2392 L 761.501,-56.0054 L 761.02,-55.8208 L 760.523,-55.6875 L 760.014,-55.607
 L 759.5,-55.58 z
M 382.646,-48.1641 L 381.852,-48.4271 L 368.74,-54.3552 L 368.037,-54.7639 L 367.416,-55.3235 L 366.924,-56
 L 366.584,-56.7639 L 366.41,-57.5819 L 366.41,-58.4181 L 366.584,-59.2361 L 366.924,-60 L 367.416,-60.6765
 L 368.037,-61.2361 L 368.761,-61.6542 L 369.557,-61.9126 L 370.388,-62 L 396.612,-62 L 397.421,-61.9173
 L 398.218,-61.6635 L 398.944,-61.2495 L 399.569,-60.6935 L 400.064,-60.0199 L 400.409,-59.2579 L 400.587,-58.4409
 L 400.592,-57.6047 L 400.423,-56.7858 L 400.087,-56.0199 L 399.6,-55.3406 L 398.981,-54.7775 L 398.26,-54.3552
 L 385.148,-48.4271 L 384.309,-48.1546 L 383.477,-48.0719 z
M 294.446,-22.2367 L 293.652,-22.4996 L 223.195,-54.3552 L 222.492,-54.7639 L 221.87,-55.3235 L 221.379,-56
 L 221.039,-56.7639 L 220.865,-57.5819 L 220.865,-58.4181 L 221.039,-59.2361 L 221.379,-60 L 221.87,-60.6765
 L 222.492,-61.2361 L 223.216,-61.6542 L 224.011,-61.9126 L 224.843,-62 L 295.3,-62 L 296.536,-61.8042
 L 297.3,-61.4641 L 297.977,-60.9726 L 298.536,-60.3511 L 298.954,-59.627 L 299.213,-58.8316 L 299.3,-58
 L 299.3,-26.1444 L 299.276,-25.7035 L 299.097,-24.8865 L 298.753,-24.1245 L 298.257,-23.4509 L 297.633,-22.8949
 L 296.906,-22.4809 L 296.109,-22.2271 L 295.277,-22.1445 z
M 621.291,-22.2271 L 620.494,-22.4809 L 619.767,-22.8949 L 619.143,-23.4509 L 618.647,-24.1245 L 618.303,-24.8865
 L 618.124,-25.7035 L 618.1,-26.1444 L 618.1,-58 L 618.187,-58.8316 L 618.446,-59.627 L 618.864,-60.3511
 L 619.423,-60.9726 L 620.1,-61.4641 L 620.864,-61.8042 L 622.1,-62 L 692.557,-62 L 693.389,-61.9126
 L 694.184,-61.6542 L 694.908,-61.2361 L 695.53,-60.6765 L 696.021,-60 L 696.361,-59.2361 L 696.535,-58.4181
 L 696.535,-57.5819 L 696.361,-56.7639 L 696.021,-56 L 695.53,-55.3235 L 694.908,-54.7639 L 694.205,-54.3552
 L 623.748,-22.4996 L 622.954,-22.2367 L 622.123,-22.1445 z
M 144.046,-22.2367 L 143.252,-22.4996 L 72.795,-54.3552 L 72.0918,-54.7639 L 71.4703,-55.3235 L 70.9788,-56
 L 70.6387,-56.7639 L 70.4648,-57.5819 L 70.4648,-58.4181 L 70.6387,-59.2361 L 70.9788,-60 L 71.4703,-60.6765
 L 72.0918,-61.2361 L 72.8159,-61.6542 L 73.6113,-61.9126 L 74.4429,-62 L 144.9,-62 L 146.136,-61.8042
 L 146.9,-61.4641 L 147.577,-60.9726 L 148.136,-60.3511 L 148.554,-59.627 L 148.813,-58.8316 L 148.9,-58
 L 148.9,-26.1444 L 148.876,-25.7035 L 148.697,-24.8865 L 148.353,-24.1245 L 147.857,-23.4509 L 147.233,-22.8949
 L 146.506,-22.4809 L 145.709,-22.2271 L 144.877,-22.1445 z
M 470.891,-22.2271 L 470.094,-22.4809 L 469.367,-22.8949 L 468.743,-23.4509 L 468.247,-24.1245 L 467.903,-24.8865
 L 467.724,-25.7035 L 467.7,-26.1444 L 467.7,-58 L 467.787,-58.8316 L 468.046,-59.627 L 468.464,-60.3511
 L 469.023,-60.9726 L 469.7,-61.4641 L 470.464,-61.8042 L 471.7,-62 L 542.157,-62 L 542.989,-61.9126
 L 543.784,-61.6542 L 544.508,-61.2361 L 545.13,-60.6765 L 545.621,-60 L 545.961,-59.2361 L 546.135,-58.4181
 L 546.135,-57.5819 L 545.961,-56.7639 L 545.621,-56 L 545.13,-55.3235 L 544.508,-54.7639 L 543.805,-54.3552
 L 473.348,-22.4996 L 472.554,-22.2367 L 471.723,-22.1445 z
M 320.882,-19.9714 L 320.064,-20.1453 L 319.3,-20.4854 L 318.623,-20.9769 L 318.064,-21.5984 L 317.646,-22.3226
 L 317.387,-23.1179 L 317.3,-23.9495 L 317.3,-56.0505 L 317.324,-56.4914 L 317.503,-57.3084 L 317.847,-58.0703
 L 318.343,-58.744 L 318.967,-59.3 L 319.694,-59.7139 L 320.491,-59.9678 L 321.323,-60.0504 L 322.154,-59.9582
 L 322.948,-59.6953 L 358.448,-43.6448 L 359.132,-43.2495 L 359.757,-42.6935 L 360.252,-42.0199 L 360.597,-41.2579
 L 360.775,-40.4409 L 360.78,-39.6047 L 360.611,-38.7858 L 360.275,-38.0199 L 359.788,-37.3406 L 359.17,-36.7775
 L 358.448,-36.3552 L 322.948,-20.3047 L 322.536,-20.1453 L 321.718,-19.9714 z
M 444.846,-20.0418 L 444.052,-20.3047 L 408.552,-36.3552 L 407.868,-36.7505 L 407.243,-37.3065 L 406.748,-37.9801
 L 406.403,-38.7421 L 406.224,-39.5591 L 406.22,-40.3953 L 406.389,-41.2142 L 406.725,-41.9801 L 407.212,-42.6594
 L 407.83,-43.2225 L 408.552,-43.6448 L 444.052,-59.6953 L 444.464,-59.8547 L 445.282,-60.0286 L 446.118,-60.0286
 L 446.936,-59.8547 L 447.7,-59.5146 L 448.377,-59.0231 L 448.936,-58.4016 L 449.354,-57.6774 L 449.613,-56.8821
 L 449.7,-56.0505 L 449.7,-23.9495 L 449.676,-23.5086 L 449.497,-22.6916 L 449.153,-21.9297 L 448.657,-21.256
 L 448.033,-20.7 L 447.306,-20.2861 L 446.509,-20.0322 L 445.677,-19.9496 z
M 170.9,-18 L 169.664,-18.1958 L 168.9,-18.5359 L 168.223,-19.0274 L 167.664,-19.6489 L 167.246,-20.373
 L 166.987,-21.1684 L 166.9,-22 L 166.9,-53.8556 L 166.924,-54.2965 L 167.103,-55.1135 L 167.447,-55.8755
 L 167.943,-56.5491 L 168.567,-57.1051 L 169.294,-57.5191 L 170.091,-57.7729 L 170.923,-57.8555 L 171.754,-57.7633
 L 172.548,-57.5004 L 243.005,-25.6448 L 243.708,-25.2361 L 244.33,-24.6765 L 244.821,-24 L 245.161,-23.2361
 L 245.335,-22.4181 L 245.335,-21.5819 L 245.161,-20.7639 L 244.821,-20 L 244.33,-19.3235 L 243.708,-18.7639
 L 242.984,-18.3458 L 242.189,-18.0874 L 241.357,-18 z
M 525.643,-18 L 524.811,-18.0874 L 524.016,-18.3458 L 523.292,-18.7639 L 522.67,-19.3235 L 522.179,-20
 L 521.839,-20.7639 L 521.665,-21.5819 L 521.665,-22.4181 L 521.839,-23.2361 L 522.179,-24 L 522.67,-24.6765
 L 523.292,-25.2361 L 523.995,-25.6448 L 594.452,-57.5004 L 595.246,-57.7633 L 596.077,-57.8555 L 596.909,-57.7729
 L 597.706,-57.5191 L 598.433,-57.1051 L 599.057,-56.5491 L 599.553,-55.8755 L 599.897,-55.1135 L 600.076,-54.2965
 L 600.1,-53.8556 L 600.1,-22 L 600.013,-21.1684 L 599.754,-20.373 L 599.336,-19.6489 L 598.777,-19.0274
 L 598.1,-18.5359 L 597.336,-18.1958 L 596.1,-18 z
M 22,-18 L 20.7639,-18.1958 L 20,-18.5359 L 19.3235,-19.0274 L 18.7639,-19.6489 L 18.3458,-20.373
 L 18.0874,-21.1684 L 18,-22 L 18,-53.1774 L 18.0244,-53.6183 L 18.2029,-54.4353 L 18.5474,-55.1973
 L 19.0428,-55.8709 L 19.6675,-56.4269 L 20.3941,-56.8409 L 21.1908,-57.0947 L 22.023,-57.1773 L 22.8541,-57.0851
 L 23.6479,-56.8222 L 92.605,-25.6448 L 93.3082,-25.2361 L 93.9296,-24.6765 L 94.4212,-24 L 94.7613,-23.2361
 L 94.9352,-22.4181 L 94.9352,-21.5819 L 94.7613,-20.7639 L 94.4212,-20 L 93.9296,-19.3235 L 93.3082,-18.7639
 L 92.584,-18.3458 L 91.7887,-18.0874 L 90.9571,-18 z
M 676.043,-18 L 675.211,-18.0874 L 674.416,-18.3458 L 673.692,-18.7639 L 673.07,-19.3235 L 672.579,-20
 L 672.239,-20.7639 L 672.065,-21.5819 L 672.065,-22.4181 L 672.239,-23.2361 L 672.579,-24 L 673.07,-24.6765
 L 673.692,-25.2361 L 674.395,-25.6448 L 743.352,-56.8222 L 744.146,-57.0851 L 744.977,-57.1773 L 745.809,-57.0947
 L 746.606,-56.8409 L 747.333,-56.4269 L 747.957,-55.8709 L 748.453,-55.1973 L 748.797,-54.4353 L 748.976,-53.6183
 L 749,-53.1774 L 749,-22 L 748.913,-21.1684 L 748.654,-20.373 L 748.236,-19.6489 L 747.677,-19.0274
 L 747,-18.5359 L 746.236,-18.1958 L 745,-18 z
M 370.388,-18 L 369.579,-18.0827 L 368.782,-18.3365 L 368.056,-18.7505 L 367.431,-19.3065 L 366.936,-19.9801
 L 366.591,-20.7421 L 366.413,-21.5591 L 366.408,-22.3953 L 366.577,-23.2142 L 366.913,-23.9801 L 367.4,-24.6594
 L 368.019,-25.2225 L 368.74,-25.6448 L 381.852,-31.5729 L 382.691,-31.8454 L 383.523,-31.9281 L 384.354,-31.8359
 L 385.148,-31.5729 L 398.26,-25.6448 L 398.963,-25.2361 L 399.584,-24.6765 L 400.076,-24 L 400.416,-23.2361
 L 400.59,-22.4181 L 400.59,-21.5819 L 400.416,-20.7639 L 400.076,-20 L 399.584,-19.3235 L 398.963,-18.7639
 L 398.239,-18.3458 L 397.443,-18.0874 L 396.612,-18 z
" stroke="black" fill="lightgray" stroke-width="0.5"/>
</svg>
