<?xml version="1.0" standalone="no"?>
<!DOCTYPE svg PUBLIC "-//W3C//DTD SVG 1.1//EN" "http://www.w3.org/Graphics/SVG/1.1/DTD/svg11.dtd">
<svg width="682mm" height="80mm" viewBox="0 -80 682 80" xmlns="http://www.w3.org/2000/svg" version="1.1">
<title>OpenSCAD Model</title>
<path d="
M 682,-80 L 0,-80 L 0,-0 L 4.95,-0 L 4.95,-6 L 5.00572,-6.53017
 L 5.17046,-7.03717 L 5.437,-7.49884 L 5.79372,-7.895 L 6.22499,-8.20836 L 6.71201,-8.42519 L 7.23344,-8.53603
 L 7.76654,-8.53603 L 8.28798,-8.42519 L 8.77499,-8.20836 L 9.20627,-7.895 L 9.56299,-7.49884 L 9.82953,-7.03717
 L 9.99426,-6.53017 L 10.05,-6 L 10.05,-0 L 138.35,-0 L 138.35,-6 L 138.406,-6.53017
 L 138.57,-7.03717 L 138.837,-7.49884 L 139.194,-7.895 L 139.625,-8.20836 L 140.112,-8.42519 L 140.633,-8.53603
 L 141.167,-8.53603 L 141.688,-8.42519 L 142.175,-8.20836 L 142.606,-7.895 L 142.963,-7.49884 L 143.23,-7.03717
 L 143.394,-6.53017 L 143.45,-6 L 143.45,-0 L 271.75,-0 L 271.75,-6 L 271.806,-6.53017
 L 271.97,-7.03717 L 272.237,-7.49884 L 272.594,-7.895 L 273.025,-8.20836 L 273.512,-8.42519 L 274.033,-8.53603
 L 274.567,-8.53603 L 275.088,-8.42519 L 275.575,-8.20836 L 276.006,-7.895 L 276.363,-7.49884 L 276.63,-7.03717
 L 276.794,-6.53017 L 276.85,-6 L 276.85,-0 L 405.15,-0 L 405.15,-6 L 405.206,-6.53017
 L 405.37,-7.03717 L 405.637,-7.49884 L 405.994,-7.895 L 406.425,-8.20836 L 406.912,-8.42519 L 407.433,-8.53603
 L 407.967,-8.53603 L 408.488,-8.42519 L 408.975,-8.20836 L 409.406,-7.895 L 409.763,-7.49884 L 410.03,-7.03717
 L 410.194,-6.53017 L 410.25,-6 L 410.25,-0 L 538.55,-0 L 538.55,-6 L 538.606,-6.53017
 L 538.77,-7.03717 L 539.037,-7.49884 L 539.394,-7.895 L 539.825,-8.20836 L 540.312,-8.42519 L 540.833,-8.53603
 L 541.367,-8.53603 L 541.888,-8.42519 L 542.375,-8.20836 L 542.806,-7.895 L 543.163,-7.49884 L 543.43,-7.03717
 L 543.594,-6.53017 L 543.65,-6 L 543.65,-0 L 671.95,-0 L 671.95,-6 L 672.006,-6.53017
 L 672.17,-7.03717 L 672.437,-7.49884 L 672.794,-7.895 L 673.225,-8.20836 L 673.712,-8.42519 L 674.233,-8.53603
 L 674.767,-8.53603 L 675.288,-8.42519 L 675.775,-8.20836 L 676.206,-7.895 L 676.563,-7.49884 L 676.83,-7.03717
 L 676.994,-6.53017 L 677.05,-6 L 677.05,-0 L 682,-0 z
M 6.98573,-55.607 L 6.47708,-55.6875 L 5.97964,-55.8208 L 5.49887,-56.0054 L 5.04001,-56.2392 L 4.60811,-56.5196
 L 4.20789,-56.8437 L 3.84373,-57.2079 L 3.51964,-57.6081 L 3.23917,-58.04 L 3.00537,-58.4989 L 2.82082,-58.9796
 L 2.68752,-59.4771 L 2.60696,-59.9857 L 2.58,-60.5 L 2.60696,-61.0143 L 2.68752,-61.5229 L 2.82082,-62.0204
 L 3.00537,-62.5011 L 3.23917,-62.96 L 3.51964,-63.3919 L 3.84373,-63.7921 L 4.20789,-64.1563 L 4.60811,-64.4804
 L 4.95001,-64.7024 L 4.95001,-74 L 5.00574,-74.5302 L 5.17047,-75.0372 L 5.43701,-75.4988 L 5.79373,-75.895
 L 6.22501,-76.2084 L 6.71202,-76.4252 L 7.23346,-76.536 L 7.76654,-76.536 L 8.28798,-76.4252 L 8.77499,-76.2084
 L 9.20627,-75.895 L 9.56299,-75.4988 L 9.82953,-75.0372 L 9.99426,-74.5302 L 10.05,-74 L 10.05,-64.7024
 L 10.3919,-64.4804 L 10.7921,-64.1563 L 11.1563,-63.7921 L 11.4804,-63.3919 L 11.7608,-62.96 L 11.9946,-62.5011
 L 12.1792,-62.0204 L 12.3125,-61.5229 L 12.393,-61.0143 L 12.42,-60.5 L 12.393,-59.9857 L 12.3125,-59.4771
 L 12.1792,-58.9796 L 11.9946,-58.4989 L 11.7608,-58.04 L 11.4804,-57.6081 L 11.1563,-57.2079 L 10.7921,-56.8437
 L 10.3919,-56.5196 L 9.95999,-56.2392 L 9.50113,-56.0054 L 9.02036,-55.8208 L 8.52292,-55.6875 L 8.01427,-55.607
 L 7.5,-55.58 z
M 140.386,-55.607 L 139.877,-55.6875 L 139.38,-55.8208 L 138.899,-56.0054 L 138.44,-56.2392 L 138.008,-56.5196
 L 137.608,-56.8437 L 137.244,-57.2079 L 136.92,-57.6081 L 136.639,-58.04 L 136.405,-58.4989 L 136.221,-58.9796
 L 136.088,-59.4771 L 136.007,-59.9857 L 135.98,-60.5 L 136.007,-61.0143 L 136.088,-61.5229 L 136.221,-62.0204
 L 136.405,-62.5011 L 136.639,-62.96 L 136.92,-63.3919 L 137.244,-63.7921 L 137.608,-64.1563 L 138.008,-64.4804
 L 138.35,-64.7024 L 138.35,-74 L 138.406,-74.5302 L 138.57,-75.0372 L 138.837,-75.4988 L 139.194,-75.895
 L 139.625,-76.2084 L 140.112,-76.4252 L 140.633,-76.536 L 141.167,-76.536 L 141.688,-76.4252 L 142.175,-76.2084
 L 142.606,-75.895 L 142.963,-75.4988 L 143.23,-75.0372 L 143.394,-74.5302 L 143.45,-74 L 143.45,-64.7024
 L 143.792,-64.4804 L 144.192,-64.1563 L 144.556,-63.7921 L 144.88,-63.3919 L 145.161,-62.96 L 145.395,-62.5011
 L 145.579,-62.0204 L 145.712,-61.5229 L 145.793,-61.0143 L 145.82,-60.5 L 145.793,-59.9857 L 145.712,-59.4771
 L 145.579,-58.9796 L 145.395,-58.4989 L 145.161,-58.04 L 144.88,-57.6081 L 144.556,-57.2079 L 144.192,-56.8437
 L 143.792,-56.5196 L 143.36,-56.2392 L 142.901,-56.0054 L 142.42,-55.8208 L 141.923,-55.6875 L 141.414,-55.607
 L 140.9,-55.58 z
M 273.786,-55.607 L 273.277,-55.6875 L 272.78,-55.8208 L 272.299,-56.0054 L 271.84,-56.2392 L 271.408,-56.5196
 L 271.008,-56.8437 L 270.644,-57.2079 L 270.32,-57.6081 L 270.039,-58.04 L 269.805,-58.4989 L 269.621,-58.9796
 L 269.488,-59.4771 L 269.407,-59.9857 L 269.38,-60.5 L 269.407,-61.0143 L 269.488,-61.5229 L 269.621,-62.0204
 L 269.805,-62.5011 L 270.039,-62.96 L 270.32,-63.3919 L 270.644,-63.7921 L 271.008,-64.1563 L 271.408,-64.4804
 L 271.75,-64.7024 L 271.75,-74 L 271.806,-74.5302 L 271.97,-75.0372 L 272.237,-75.4988 L 272.594,-75.895
 L 273.025,-76.2084 L 273.512,-76.4252 L 274.033,-76.536 L 274.567,-76.536 L 275.088,-76.4252 L 275.575,-76.2084
 L 276.006,-75.895 L 276.363,-75.4988 L 276.63,-75.0372 L 276.794,-74.5302 L 276.85,-74 L 276.85,-64.7024
 L 277.192,-64.4804 L 277.592,-64.1563 L 277.956,-63.7921 L 278.28,-63.3919 L 278.561,-62.96 L 278.795,-62.5011
 L 278.979,-62.0204 L 279.112,-61.5229 L 279.193,-61.0143 L 279.22,-60.5 L 279.193,-59.9857 L 279.112,-59.4771
 L 278.979,-58.9796 L 278.795,-58.4989 L 278.561,-58.04 L 278.28,-57.6081 L 277.956,-57.2079 L 277.592,-56.8437
 L 277.192,-56.5196 L 276.76,-56.2392 L 276.301,-56.0054 L 275.82,-55.8208 L 275.323,-55.6875 L 274.814,-55.607
 L 274.3,-55.58 z
M 407.186,-55.607 L 406.677,-55.6875 L 406.18,-55.8208 L 405.699,-56.0054 L 405.24,-56.2392 L 404.808,-56.5196
 L 404.408,-56.8437 L 404.044,-57.2079 L 403.72,-57.6081 L 403.439,-58.04 L 403.205,-58.4989 L 403.021,-58.9796
 L 402.888,-59.4771 L 402.807,-59.9857 L 402.78,-60.5 L 402.807,-61.0143 L 402.888,-61.5229 L 403.021,-62.0204
 L 403.205,-62.5011 L 403.439,-62.96 L 403.72,-63.3919 L 404.044,-63.7921 L 404.408,-64.1563 L 404.808,-64.4804
 L 405.15,-64.7024 L 405.15,-74 L 405.206,-74.5302 L 405.37,-75.0372 L 405.637,-75.4988 L 405.994,-75.895
 L 406.425,-76.2084 L 406.912,-76.4252 L 407.433,-76.536 L 407.967,-76.536 L 408.488,-76.4252 L 408.975,-76.2084
 L 409.406,-75.895 L 409.763,-75.4988 L 410.03,-75.0372 L 410.194,-74.5302 L 410.25,-74 L 410.25,-64.7024
 L 410.592,-64.4804 L 410.992,-64.1563 L 411.356,-63.7921 L 411.68,-63.3919 L 411.961,-62.96 L 412.195,-62.5011
 L 412.379,-62.0204 L 412.512,-61.5229 L 412.593,-61.0143 L 412.62,-60.5 L 412.593,-59.9857 L 412.512,-59.4771
 L 412.379,-58.9796 L 412.195,-58.4989 L 411.961,-58.04 L 411.68,-57.6081 L 411.356,-57.2079 L 410.992,-56.8437
 L 410.592,-56.5196 L 410.16,-56.2392 L 409.701,-56.0054 L 409.22,-55.8208 L 408.723,-55.6875 L 408.214,-55.607
 L 407.7,-55.58 z
M 540.586,-55.607 L 540.077,-55.6875 L 539.58,-55.8208 L 539.099,-56.0054 L 538.64,-56.2392 L 538.208,-56.5196
 L 537.808,-56.8437 L 537.444,-57.2079 L 537.12,-57.6081 L 536.839,-58.04 L 536.605,-58.4989 L 536.421,-58.9796
 L 536.288,-59.4771 L 536.207,-59.9857 L 536.18,-60.5 L 536.207,-61.0143 L 536.288,-61.5229 L 536.421,-62.0204
 L 536.605,-62.5011 L 536.839,-62.96 L 537.12,-63.3919 L 537.444,-63.7921 L 537.808,-64.1563 L 538.208,-64.4804
 L 538.55,-64.7024 L 538.55,-74 L 538.606,-74.5302 L 538.77,-75.0372 L 539.037,-75.4988 L 539.394,-75.895
 L 539.825,-76.2084 L 540.312,-76.4252 L 540.833,-76.536 L 541.367,-76.536 L 541.888,-76.4252 L 542.375,-76.2084
 L 542.806,-75.895 L 543.163,-75.4988 L 543.43,-75.0372 L 543.594,-74.5302 L 543.65,-74 L 543.65,-64.7024
 L 543.992,-64.4804 L 544.392,-64.1563 L 544.756,-63.7921 L 545.08,-63.3919 L 545.361,-62.96 L 545.595,-62.5011
 L 545.779,-62.0204 L 545.912,-61.5229 L 545.993,-61.0143 L 546.02,-60.5 L 545.993,-59.9857 L 545.912,-59.4771
 L 545.779,-58.9796 L 545.595,-58.4989 L 545.361,-58.04 L 545.08,-57.6081 L 544.756,-57.2079 L 544.392,-56.8437
 L 543.992,-56.5196 L 543.56,-56.2392 L 543.101,-56.0054 L 542.62,-55.8208 L 542.123,-55.6875 L 541.614,-55.607
 L 541.1,-55.58 z
M 673.986,-55.607 L 673.477,-55.6875 L 672.98,-55.8208 L 672.499,-56.0054 L 672.04,-56.2392 L 671.608,-56.5196
 L 671.208,-56.8437 L 670.844,-57.2079 L 670.52,-57.6081 L 670.239,-58.04 L 670.005,-58.4989 L 669.821,-58.9796
 L 669.688,-59.4771 L 669.607,-59.9857 L 669.58,-60.5 L 669.607,-61.0143 L 669.688,-61.5229 L 669.821,-62.0204
 L 670.005,-62.5011 L 670.239,-62.96 L 670.52,-63.3919 L 670.844,-63.7921 L 671.208,-64.1563 L 671.608,-64.4804
 L 671.95,-64.7024 L 671.95,-74 L 672.006,-74.5302 L 672.17,-75.0372 L 672.437,-75.4988 L 672.794,-75.895
 L 673.225,-76.2084 L 673.712,-76.4252 L 674.233,-76.536 L 674.767,-76.536 L 675.288,-76.4252 L 675.775,-76.2084
 L 676.206,-75.895 L 676.563,-75.4988 L 676.83,-75.0372 L 676.994,-74.5302 L 677.05,-74 L 677.05,-64.7024
 L 677.392,-64.4804 L 677.792,-64.1563 L 678.156,-63.7921 L 678.48,-63.3919 L 678.761,-62.96 L 678.995,-62.5011
 L 679.179,-62.0204 L 679.312,-61.5229 L 679.393,-61.0143 L 679.42,-60.5 L 679.393,-59.9857 L 679.312,-59.4771
 L 679.179,-58.9796 L 678.995,-58.4989 L 678.761,-58.04 L 678.48,-57.6081 L 678.156,-57.2079 L 677.792,-56.8437
 L 677.392,-56.5196 L 676.96,-56.2392 L 676.501,-56.0054 L 676.02,-55.8208 L 675.523,-55.6875 L 675.014,-55.607
 L 674.5,-55.58 z
M 339.964,-48.4664 L 339.183,-48.7662 L 328.06,-54.4363 L 327.525,-54.7639 L 326.904,-55.3235 L 326.412,-56
 L 326.072,-56.7639 L 325.898,-57.5819 L 325.898,-58.4181 L 326.072,-59.2361 L 326.412,-60 L 326.904,-60.6765
 L 327.525,-61.2361 L 328.25,-61.6542 L 329.045,-61.9126 L 329.877,-62 L 352.123,-62 L 352.748,-61.9509
 L 353.556,-61.7346 L 354.301,-61.3551 L 354.951,-60.8289 L 355.478,-60.1791 L 355.857,-59.4341 L 356.074,-58.6264
 L 356.118,-57.7914 L 355.987,-56.9654 L 355.688,-56.1847 L 355.232,-55.4833 L 354.641,-54.8919 L 353.94,-54.4363
 L 342.817,-48.7662 L 342.433,-48.5953 L 341.625,-48.379 L 340.79,-48.3354 z
M 260.264,-23.3348 L 259.483,-23.6346 L 199.058,-54.4363 L 198.523,-54.7639 L 197.902,-55.3235 L 197.41,-56
 L 197.07,-56.7639 L 196.896,-57.5819 L 196.896,-58.4181 L 197.07,-59.2361 L 197.41,-60 L 197.902,-60.6765
 L 198.523,-61.2361 L 199.247,-61.6542 L 200.043,-61.9126 L 200.874,-62 L 261.3,-62 L 262.536,-61.8042
 L 263.3,-61.4641 L 263.977,-60.9726 L 264.536,-60.3511 L 264.954,-59.627 L 265.213,-58.8316 L 265.3,-58
 L 265.3,-27.1983 L 265.251,-26.5719 L 265.034,-25.7642 L 264.654,-25.0192 L 264.128,-24.3694 L 263.478,-23.8433
 L 262.733,-23.4638 L 261.925,-23.2475 L 261.09,-23.2039 z
M 553.475,-23.2475 L 552.667,-23.4638 L 551.922,-23.8433 L 551.272,-24.3694 L 550.746,-25.0192 L 550.366,-25.7642
 L 550.149,-26.5719 L 550.1,-27.1983 L 550.1,-58 L 550.187,-58.8316 L 550.446,-59.627 L 550.864,-60.3511
 L 551.423,-60.9726 L 552.1,-61.4641 L 552.864,-61.8042 L 554.1,-62 L 614.526,-62 L 615.357,-61.9126
 L 616.153,-61.6542 L 616.877,-61.2361 L 617.498,-60.6765 L 617.99,-60 L 618.33,-59.2361 L 618.504,-58.4181
 L 618.504,-57.5819 L 618.33,-56.7639 L 617.99,-56 L 617.498,-55.3235 L 616.877,-54.7639 L 616.342,-54.4363
 L 555.917,-23.6346 L 555.136,-23.3348 L 554.31,-23.2039 z
M 126.864,-23.3348 L 126.083,-23.6346 L 65.6578,-54.4363 L 65.1233,-54.7639 L 64.5018,-55.3235 L 64.0103,-56
 L 63.6702,-56.7639 L 63.4963,-57.5819 L 63.4963,-58.4181 L 63.6702,-59.2361 L 64.0103,-60 L 64.5018,-60.6765
 L 65.1233,-61.2361 L 65.8474,-61.6542 L 66.6427,-61.9126 L 67.4744,-62 L 127.9,-62 L 129.136,-61.8042
 L 129.9,-61.4641 L 130.577,-60.9726 L 131.136,-60.3511 L 131.554,-59.627 L 131.813,-58.8316 L 131.9,-58
 L 131.9,-27.1983 L 131.851,-26.5719 L 131.634,-25.7642 L 131.254,-25.0192 L 130.728,-24.3694 L 130.078,-23.8433
 L 129.333,-23.4638 L 128.525,-23.2475 L 127.69,-23.2039 z
M 420.075,-23.2475 L 419.267,-23.4638 L 418.522,-23.8433 L 417.872,-24.3694 L 417.346,-25.0192 L 416.966,-25.7642
 L 416.749,-26.5719 L 416.7,-27.1983 L 416.7,-58 L 416.787,-58.8316 L 417.046,-59.627 L 417.464,-60.3511
 L 418.023,-60.9726 L 418.7,-61.4641 L 419.464,-61.8042 L 420.7,-62 L 481.126,-62 L 481.957,-61.9126
 L 482.753,-61.6542 L 483.477,-61.2361 L 484.098,-60.6765 L 484.59,-60 L 484.93,-59.2361 L 485.104,-58.4181
 L 485.104,-57.5819 L 484.93,-56.7639 L 484.59,-56 L 484.098,-55.3235 L 483.477,-54.7639 L 482.942,-54.4363
 L 422.517,-23.6346 L 421.736,-23.3348 L 420.91,-23.2039 z
M 286.882,-20.9785 L 286.064,-21.1523 L 285.3,-21.4925 L 284.623,-21.984 L 284.064,-22.6054 L 283.646,-23.3296
 L 283.387,-24.1249 L 283.3,-24.9566 L 283.3,-55.0434 L 283.349,-55.6698 L 283.566,-56.4776 L 283.946,-57.2226
 L 284.472,-57.8723 L 285.122,-58.3985 L 285.867,-58.778 L 286.675,-58.9943 L 287.51,-59.0379 L 288.336,-58.907
 L 289.117,-58.6071 L 318.628,-43.5637 L 319.64,-42.8289 L 320.166,-42.1791 L 320.546,-41.4341 L 320.762,-40.6264
 L 320.806,-39.7914 L 320.676,-38.9654 L 320.376,-38.1847 L 319.921,-37.4833 L 319.329,-36.8919 L 318.628,-36.4363
 L 289.117,-21.3929 L 288.536,-21.1523 L 287.718,-20.9785 z
M 393.664,-21.093 L 392.883,-21.3929 L 363.372,-36.4363 L 362.36,-37.1711 L 361.834,-37.8209 L 361.454,-38.5659
 L 361.238,-39.3736 L 361.194,-40.2086 L 361.324,-41.0346 L 361.624,-41.8153 L 362.079,-42.5167 L 362.67,-43.1081
 L 363.372,-43.5637 L 392.883,-58.6071 L 393.464,-58.8477 L 394.282,-59.0215 L 395.118,-59.0215 L 395.936,-58.8477
 L 396.7,-58.5075 L 397.377,-58.016 L 397.936,-57.3946 L 398.354,-56.6704 L 398.613,-55.8751 L 398.7,-55.0434
 L 398.7,-24.9566 L 398.651,-24.3301 L 398.434,-23.5224 L 398.054,-22.7774 L 397.528,-22.1276 L 396.878,-21.6015
 L 396.133,-21.222 L 395.325,-21.0057 L 394.49,-20.9621 z
M 153.9,-18 L 152.664,-18.1958 L 151.9,-18.5359 L 151.223,-19.0274 L 150.664,-19.6489 L 150.246,-20.373
 L 149.987,-21.1684 L 149.9,-22 L 149.9,-52.8016 L 149.949,-53.4281 L 150.166,-54.2358 L 150.546,-54.9808
 L 151.072,-55.6306 L 151.722,-56.1567 L 152.467,-56.5362 L 153.275,-56.7525 L 154.11,-56.7961 L 154.936,-56.6652
 L 155.717,-56.3653 L 216.142,-25.5637 L 216.677,-25.2361 L 217.298,-24.6765 L 217.79,-24 L 218.13,-23.2361
 L 218.304,-22.4181 L 218.304,-21.5819 L 218.13,-20.7639 L 217.79,-20 L 217.298,-19.3235 L 216.677,-18.7639
 L 215.953,-18.3458 L 215.157,-18.0874 L 214.326,-18 z
M 467.674,-18 L 466.843,-18.0874 L 466.047,-18.3458 L 465.323,-18.7639 L 464.702,-19.3235 L 464.21,-20
 L 463.87,-20.7639 L 463.696,-21.5819 L 463.696,-22.4181 L 463.87,-23.2361 L 464.21,-24 L 464.702,-24.6765
 L 465.323,-25.2361 L 465.858,-25.5637 L 526.283,-56.3653 L 527.064,-56.6652 L 527.89,-56.7961 L 528.725,-56.7525
 L 529.533,-56.5362 L 530.278,-56.1567 L 530.928,-55.6306 L 531.454,-54.9808 L 531.834,-54.2358 L 532.051,-53.4281
 L 532.1,-52.8016 L 532.1,-22 L 532.013,-21.1684 L 531.754,-20.373 L 531.336,-19.6489 L 530.777,-19.0274
 L 530.1,-18.5359 L 529.336,-18.1958 L 528.1,-18 z
M 22,-18 L 20.7639,-18.1958 L 20,-18.5359 L 19.3235,-19.0274 L 18.7639,-19.6489 L 18.3458,-20.373
 L 18.0874,-21.1684 L 18,-22 L 18,-52.037 L 18.0494,-52.6634 L 18.2659,-53.4711 L 18.6457,-54.2162
 L 19.1721,-54.8659 L 19.822,-55.3921 L 20.5672,-55.7716 L 21.375,-55.9879 L 22.21,-56.0315 L 23.0359,-55.9005
 L 23.8166,-55.6007 L 82.7422,-25.5637 L 83.2767,-25.2361 L 83.8982,-24.6765 L 84.3897,-24 L 84.7298,-23.2361
 L 84.9037,-22.4181 L 84.9037,-21.5819 L 84.7298,-20.7639 L 84.3897,-20 L 83.8982,-19.3235 L 83.2767,-18.7639
 L 82.5525,-18.3458 L 81.7572,-18.0874 L 80.9256,-18 z
M 601.074,-18 L 600.243,-18.0874 L 599.447,-18.3458 L 598.723,-18.7639 L 598.102,-19.3235 L 597.61,-20
 L 597.27,-20.7639 L 597.096,-21.5819 L 597.096,-22.4181 L 597.27,-23.2361 L 597.61,-24 L 598.102,-24.6765
 L 598.723,-25.2361 L 599.258,-25.5637 L 658.183,-55.6007 L 658.964,-55.9005 L 659.79,-56.0315 L 660.625,-55.9879
 L 661.433,-55.7716 L 662.178,-55.3921 L 662.828,-54.8659 L 663.354,-54.2162 L 663.734,-53.4711 L 663.951,-52.6634
 L 664,-52.037 L 664,-22 L 663.913,-21.1684 L 663.654,-20.373 L 663.236,-19.6489 L 662.677,-19.0274
 L 662,-18.5359 L 661.236,-18.1958 L 660,-18 z
M 329.877,-18 L 329.251,-18.0491 L 328.444,-18.2654 L 327.699,-18.6449 L 327.049,-19.1711 L 326.522,-19.8209
 L 326.142,-20.5659 L 325.926,-21.3736 L 325.882,-22.2086 L 326.013,-23.0346 L 326.312,-23.8153 L 326.768,-24.5167
 L 327.359,-25.1081 L 328.06,-25.5637 L 339.183,-31.2338 L 339.567,-31.4047 L 340.375,-31.621 L 341.21,-31.6646
 L 342.036,-31.5336 L 342.817,-31.2338 L 353.94,-25.5637 L 354.475,-25.2361 L 355.096,-24.6765 L 355.588,-24
 L 355.928,-23.2361 L 356.102,-22.4181 L 356.102,-21.5819 L 355.928,-20.7639 L 355.588,-20 L 355.096,-19.3235
 L 354.475,-18.7639 L 353.75,-18.3458 L 352.955,-18.0874 L 352.123,-18 z
" stroke="black" fill="lightgray" stroke-width="0.5"/>
</svg>
