<?xml version="1.0" standalone="no"?>
<!DOCTYPE svg PUBLIC "-//W3C//DTD SVG 1.1//EN" "http://www.w3.org/Graphics/SVG/1.1/DTD/svg11.dtd">
<svg width="568mm" height="80mm" viewBox="0 -80 568 80" xmlns="http://www.w3.org/2000/svg" version="1.1">
<title>OpenSCAD Model</title>
<path d="
M 568,-80 L 0,-80 L 0,-0 L 4.95,-0 L 4.95,-6 L 5.00572,-6.53017
 L 5.17046,-7.03717 L 5.437,-7.49884 L 5.79372,-7.895 L 6.22499,-8.20836 L 6.71201,-8.42519 L 7.23344,-8.53603
 L 7.76654,-8.53603 L 8.28798,-8.42519 L 8.77499,-8.20836 L 9.20627,-7.895 L 9.56299,-7.49884 L 9.82953,-7.03717
 L 9.99426,-6.53017 L 10.05,-6 L 10.05,-0 L 143.2,-0 L 143.2,-6 L 143.256,-6.53017
 L 143.42,-7.03717 L 143.687,-7.49884 L 144.044,-7.895 L 144.475,-8.20836 L 144.962,-8.42519 L 145.483,-8.53603
 L 146.017,-8.53603 L 146.538,-8.42519 L 147.025,-8.20836 L 147.456,-7.895 L 147.813,-7.49884 L 148.08,-7.03717
 L 148.244,-6.53017 L 148.3,-6 L 148.3,-0 L 281.45,-0 L 281.45,-6 L 281.506,-6.53017
 L 281.67,-7.03717 L 281.937,-7.49884 L 282.294,-7.895 L 282.725,-8.20836 L 283.212,-8.42519 L 283.733,-8.53603
 L 284.267,-8.53603 L 284.788,-8.42519 L 285.275,-8.20836 L 285.706,-7.895 L 286.063,-7.49884 L 286.33,-7.03717
 L 286.494,-6.53017 L 286.55,-6 L 286.55,-0 L 419.7,-0 L 419.7,-6 L 419.756,-6.53017
 L 419.92,-7.03717 L 420.187,-7.49884 L 420.544,-7.895 L 420.975,-8.20836 L 421.462,-8.42519 L 421.983,-8.53603
 L 422.517,-8.53603 L 423.038,-8.42519 L 423.525,-8.20836 L 423.956,-7.895 L 424.313,-7.49884 L 424.58,-7.03717
 L 424.744,-6.53017 L 424.8,-6 L 424.8,-0 L 557.95,-0 L 557.95,-6 L 558.006,-6.53017
 L 558.17,-7.03717 L 558.437,-7.49884 L 558.794,-7.895 L 559.225,-8.20836 L 559.712,-8.42519 L 560.233,-8.53603
 L 560.767,-8.53603 L 561.288,-8.42519 L 561.775,-8.20836 L 562.206,-7.895 L 562.563,-7.49884 L 562.83,-7.03717
 L 562.994,-6.53017 L 563.05,-6 L 563.05,-0 L 568,-0 z
M 6.98573,-55.607 L 6.47708,-55.6875 L 5.97964,-55.8208 L 5.49887,-56.0054 L 5.04001,-56.2392 L 4.60811,-56.5196
 L 4.20789,-56.8437 L 3.84373,-57.2079 L 3.51964,-57.6081 L 3.23917,-58.04 L 3.00537,-58.4989 L 2.82082,-58.9796
 L 2.68752,-59.4771 L 2.60696,-59.9857 L 2.58,-60.5 L 2.60696,-61.0143 L 2.68752,-61.5229 L 2.82082,-62.0204
 L 3.00537,-62.5011 L 3.23917,-62.96 L 3.51964,-63.3919 L 3.84373,-63.7921 L 4.20789,-64.1563 L 4.60811,-64.4804
 L 4.95001,-64.7024 L 4.95001,-74 L 5.00574,-74.5302 L 5.17047,-75.0372 L 5.43701,-75.4988 L 5.79373,-75.895
 L 6.22501,-76.2084 L 6.71202,-76.4252 L 7.23346,-76.536 L 7.76654,-76.536 L 8.28798,-76.4252 L 8.77499,-76.2084
 L 9.20627,-75.895 L 9.56299,-75.4988 L 9.82953,-75.0372 L 9.99426,-74.5302 L 10.05,-74 L 10.05,-64.7024
 L 10.3919,-64.4804 L 10.7921,-64.1563 L 11.1563,-63.7921 L 11.4804,-63.3919 L 11.7608,-62.96 L 11.9946,-62.5011
 L 12.1792,-62.0204 L 12.3125,-61.5229 L 12.393,-61.0143 L 12.42,-60.5 L 12.393,-59.9857 L 12.3125,-59.4771
 L 12.1792,-58.9796 L 11.9946,-58.4989 L 11.7608,-58.04 L 11.4804,-57.6081 L 11.1563,-57.2079 L 10.7921,-56.8437
 L 10.3919,-56.5196 L 9.95999,-56.2392 L 9.50113,-56.0054 L 9.02036,-55.8208 L 8.52292,-55.6875 L 8.01427,-55.607
 L 7.5,-55.58 z
M 145.236,-55.607 L 144.727,-55.6875 L 144.23,-55.8208 L 143.749,-56.0054 L 143.29,-56.2392 L 142.858,-56.5196
 L 142.458,-56.8437 L 142.094,-57.2079 L 141.77,-57.6081 L 141.489,-58.04 L 141.255,-58.4989 L 141.071,-58.9796
 L 140.938,-59.4771 L 140.857,-59.9857 L 140.83,-60.5 L 140.857,-61.0143 L 140.938,-61.5229 L 141.071,-62.0204
 L 141.255,-62.5011 L 141.489,-62.96 L 141.77,-63.3919 L 142.094,-63.7921 L 142.458,-64.1563 L 142.858,-64.4804
 L 143.2,-64.7024 L 143.2,-74 L 143.256,-74.5302 L 143.42,-75.0372 L 143.687,-75.4988 L 144.044,-75.895
 L 144.475,-76.2084 L 144.962,-76.4252 L 145.483,-76.536 L 146.017,-76.536 L 146.538,-76.4252 L 147.025,-76.2084
 L 147.456,-75.895 L 147.813,-75.4988 L 148.08,-75.0372 L 148.244,-74.5302 L 148.3,-74 L 148.3,-64.7024
 L 148.642,-64.4804 L 149.042,-64.1563 L 149.406,-63.7921 L 149.73,-63.3919 L 150.011,-62.96 L 150.245,-62.5011
 L 150.429,-62.0204 L 150.562,-61.5229 L 150.643,-61.0143 L 150.67,-60.5 L 150.643,-59.9857 L 150.562,-59.4771
 L 150.429,-58.9796 L 150.245,-58.4989 L 150.011,-58.04 L 149.73,-57.6081 L 149.406,-57.2079 L 149.042,-56.8437
 L 148.642,-56.5196 L 148.21,-56.2392 L 147.751,-56.0054 L 147.27,-55.8208 L 146.773,-55.6875 L 146.264,-55.607
 L 145.75,-55.58 z
M 283.486,-55.607 L 282.977,-55.6875 L 282.48,-55.8208 L 281.999,-56.0054 L 281.54,-56.2392 L 281.108,-56.5196
 L 280.708,-56.8437 L 280.344,-57.2079 L 280.02,-57.6081 L 279.739,-58.04 L 279.505,-58.4989 L 279.321,-58.9796
 L 279.188,-59.4771 L 279.107,-59.9857 L 279.08,-60.5 L 279.107,-61.0143 L 279.188,-61.5229 L 279.321,-62.0204
 L 279.505,-62.5011 L 279.739,-62.96 L 280.02,-63.3919 L 280.344,-63.7921 L 280.708,-64.1563 L 281.108,-64.4804
 L 281.45,-64.7024 L 281.45,-74 L 281.506,-74.5302 L 281.67,-75.0372 L 281.937,-75.4988 L 282.294,-75.895
 L 282.725,-76.2084 L 283.212,-76.4252 L 283.733,-76.536 L 284.267,-76.536 L 284.788,-76.4252 L 285.275,-76.2084
 L 285.706,-75.895 L 286.063,-75.4988 L 286.33,-75.0372 L 286.494,-74.5302 L 286.55,-74 L 286.55,-64.7024
 L 286.892,-64.4804 L 287.292,-64.1563 L 287.656,-63.7921 L 287.98,-63.3919 L 288.261,-62.96 L 288.495,-62.5011
 L 288.679,-62.0204 L 288.812,-61.5229 L 288.893,-61.0143 L 288.92,-60.5 L 288.893,-59.9857 L 288.812,-59.4771
 L 288.679,-58.9796 L 288.495,-58.4989 L 288.261,-58.04 L 287.98,-57.6081 L 287.656,-57.2079 L 287.292,-56.8437
 L 286.892,-56.5196 L 286.46,-56.2392 L 286.001,-56.0054 L 285.52,-55.8208 L 285.023,-55.6875 L 284.514,-55.607
 L 284,-55.58 z
M 421.736,-55.607 L 421.227,-55.6875 L 420.73,-55.8208 L 420.249,-56.0054 L 419.79,-56.2392 L 419.358,-56.5196
 L 418.958,-56.8437 L 418.594,-57.2079 L 418.27,-57.6081 L 417.989,-58.04 L 417.755,-58.4989 L 417.571,-58.9796
 L 417.438,-59.4771 L 417.357,-59.9857 L 417.33,-60.5 L 417.357,-61.0143 L 417.438,-61.5229 L 417.571,-62.0204
 L 417.755,-62.5011 L 417.989,-62.96 L 418.27,-63.3919 L 418.594,-63.7921 L 418.958,-64.1563 L 419.358,-64.4804
 L 419.7,-64.7024 L 419.7,-74 L 419.756,-74.5302 L 419.92,-75.0372 L 420.187,-75.4988 L 420.544,-75.895
 L 420.975,-76.2084 L 421.462,-76.4252 L 421.983,-76.536 L 422.517,-76.536 L 423.038,-76.4252 L 423.525,-76.2084
 L 423.956,-75.895 L 424.313,-75.4988 L 424.58,-75.0372 L 424.744,-74.5302 L 424.8,-74 L 424.8,-64.7024
 L 425.142,-64.4804 L 425.542,-64.1563 L 425.906,-63.7921 L 426.23,-63.3919 L 426.511,-62.96 L 426.745,-62.5011
 L 426.929,-62.0204 L 427.062,-61.5229 L 427.143,-61.0143 L 427.17,-60.5 L 427.143,-59.9857 L 427.062,-59.4771
 L 426.929,-58.9796 L 426.745,-58.4989 L 426.511,-58.04 L 426.23,-57.6081 L 425.906,-57.2079 L 425.542,-56.8437
 L 425.142,-56.5196 L 424.71,-56.2392 L 424.251,-56.0054 L 423.77,-55.8208 L 423.273,-55.6875 L 422.764,-55.607
 L 422.25,-55.58 z
M 559.986,-55.607 L 559.477,-55.6875 L 558.98,-55.8208 L 558.499,-56.0054 L 558.04,-56.2392 L 557.608,-56.5196
 L 557.208,-56.8437 L 556.844,-57.2079 L 556.52,-57.6081 L 556.239,-58.04 L 556.005,-58.4989 L 555.821,-58.9796
 L 555.688,-59.4771 L 555.607,-59.9857 L 555.58,-60.5 L 555.607,-61.0143 L 555.688,-61.5229 L 555.821,-62.0204
 L 556.005,-62.5011 L 556.239,-62.96 L 556.52,-63.3919 L 556.844,-63.7921 L 557.208,-64.1563 L 557.608,-64.4804
 L 557.95,-64.7024 L 557.95,-74 L 558.006,-74.5302 L 558.17,-75.0372 L 558.437,-75.4988 L 558.794,-75.895
 L 559.225,-76.2084 L 559.712,-76.4252 L 560.233,-76.536 L 560.767,-76.536 L 561.288,-76.4252 L 561.775,-76.2084
 L 562.206,-75.895 L 562.563,-75.4988 L 562.83,-75.0372 L 562.994,-74.5302 L 563.05,-74 L 563.05,-64.7024
 L 563.392,-64.4804 L 563.792,-64.1563 L 564.156,-63.7921 L 564.48,-63.3919 L 564.761,-62.96 L 564.995,-62.5011
 L 565.179,-62.0204 L 565.312,-61.5229 L 565.393,-61.0143 L 565.42,-60.5 L 565.393,-59.9857 L 565.312,-59.4771
 L 565.179,-58.9796 L 564.995,-58.4989 L 564.761,-58.04 L 564.48,-57.6081 L 564.156,-57.2079 L 563.792,-56.8437
 L 563.392,-56.5196 L 562.96,-56.2392 L 562.501,-56.0054 L 562.02,-55.8208 L 561.523,-55.6875 L 561.014,-55.607
 L 560.5,-55.58 z
M 296.319,-22.9295 L 295.514,-23.1573 L 294.774,-23.5475 L 294.132,-24.0828 L 293.615,-24.7401 L 293.246,-25.4904
 L 293.041,-26.3012 L 293,-26.871 L 293,-58 L 293.087,-58.8316 L 293.346,-59.627 L 293.764,-60.3511
 L 294.323,-60.9726 L 295,-61.4641 L 295.764,-61.8042 L 297,-62 L 360.288,-62 L 361.12,-61.9126
 L 361.915,-61.6542 L 362.639,-61.2361 L 363.26,-60.6765 L 363.752,-60 L 364.092,-59.2361 L 364.266,-58.4181
 L 364.266,-57.5819 L 364.092,-56.7639 L 363.752,-56 L 363.26,-55.3235 L 362.639,-54.7639 L 362.053,-54.4107
 L 298.765,-23.2817 L 297.981,-22.9931 L 297.153,-22.874 z
M 270.019,-22.9931 L 269.235,-23.2817 L 205.947,-54.4107 L 205.361,-54.7639 L 204.74,-55.3235 L 204.248,-56
 L 203.908,-56.7639 L 203.734,-57.5819 L 203.734,-58.4181 L 203.908,-59.2361 L 204.248,-60 L 204.74,-60.6765
 L 205.361,-61.2361 L 206.085,-61.6542 L 206.88,-61.9126 L 207.712,-62 L 271,-62 L 272.236,-61.8042
 L 273,-61.4641 L 273.677,-60.9726 L 274.236,-60.3511 L 274.654,-59.627 L 274.913,-58.8316 L 275,-58
 L 275,-26.871 L 274.959,-26.3012 L 274.754,-25.4904 L 274.385,-24.7401 L 273.868,-24.0828 L 273.226,-23.5475
 L 272.486,-23.1573 L 271.681,-22.9295 L 270.847,-22.874 z
M 434.569,-22.9295 L 433.764,-23.1573 L 433.024,-23.5475 L 432.382,-24.0828 L 431.865,-24.7401 L 431.496,-25.4904
 L 431.291,-26.3012 L 431.25,-26.871 L 431.25,-58 L 431.337,-58.8316 L 431.596,-59.627 L 432.014,-60.3511
 L 432.573,-60.9726 L 433.25,-61.4641 L 434.014,-61.8042 L 435.25,-62 L 498.538,-62 L 499.37,-61.9126
 L 500.165,-61.6542 L 500.889,-61.2361 L 501.51,-60.6765 L 502.002,-60 L 502.342,-59.2361 L 502.516,-58.4181
 L 502.516,-57.5819 L 502.342,-56.7639 L 502.002,-56 L 501.51,-55.3235 L 500.889,-54.7639 L 500.303,-54.4107
 L 437.015,-23.2817 L 436.231,-22.9931 L 435.403,-22.874 z
M 131.769,-22.9931 L 130.985,-23.2817 L 67.6966,-54.4107 L 67.111,-54.7639 L 66.4895,-55.3235 L 65.998,-56
 L 65.6579,-56.7639 L 65.484,-57.5819 L 65.484,-58.4181 L 65.6579,-59.2361 L 65.998,-60 L 66.4895,-60.6765
 L 67.111,-61.2361 L 67.8351,-61.6542 L 68.6304,-61.9126 L 69.4621,-62 L 132.75,-62 L 133.986,-61.8042
 L 134.75,-61.4641 L 135.427,-60.9726 L 135.986,-60.3511 L 136.404,-59.627 L 136.663,-58.8316 L 136.75,-58
 L 136.75,-26.871 L 136.709,-26.3012 L 136.504,-25.4904 L 136.135,-24.7401 L 135.618,-24.0828 L 134.976,-23.5475
 L 134.236,-23.1573 L 133.431,-22.9295 L 132.597,-22.874 z
M 345.962,-18 L 345.13,-18.0874 L 344.335,-18.3458 L 343.611,-18.7639 L 342.99,-19.3235 L 342.498,-20
 L 342.158,-20.7639 L 341.984,-21.5819 L 341.984,-22.4181 L 342.158,-23.2361 L 342.498,-24 L 342.99,-24.6765
 L 343.611,-25.2361 L 344.197,-25.5893 L 407.485,-56.7182 L 408.269,-57.0069 L 409.097,-57.126 L 409.931,-57.0705
 L 410.736,-56.8426 L 411.476,-56.4525 L 412.118,-55.9171 L 412.635,-55.2599 L 413.004,-54.5095 L 413.209,-53.6988
 L 413.25,-53.1289 L 413.25,-22 L 413.163,-21.1684 L 412.904,-20.373 L 412.486,-19.6489 L 411.927,-19.0274
 L 411.25,-18.5359 L 410.486,-18.1958 L 409.25,-18 z
M 158.75,-18 L 157.514,-18.1958 L 156.75,-18.5359 L 156.073,-19.0274 L 155.514,-19.6489 L 155.096,-20.373
 L 154.837,-21.1684 L 154.75,-22 L 154.75,-53.1289 L 154.791,-53.6988 L 154.996,-54.5095 L 155.365,-55.2599
 L 155.882,-55.9171 L 156.524,-56.4525 L 157.264,-56.8426 L 158.069,-57.0705 L 158.903,-57.126 L 159.731,-57.0069
 L 160.515,-56.7182 L 223.803,-25.5893 L 224.389,-25.2361 L 225.01,-24.6765 L 225.502,-24 L 225.842,-23.2361
 L 226.016,-22.4181 L 226.016,-21.5819 L 225.842,-20.7639 L 225.502,-20 L 225.01,-19.3235 L 224.389,-18.7639
 L 223.665,-18.3458 L 222.87,-18.0874 L 222.038,-18 z
M 22,-18 L 20.7639,-18.1958 L 20,-18.5359 L 19.3235,-19.0274 L 18.7639,-19.6489 L 18.3458,-20.373
 L 18.0874,-21.1684 L 18,-22 L 18,-52.3911 L 18.0408,-52.961 L 18.2458,-53.7717 L 18.6149,-54.5221
 L 19.1319,-55.1794 L 19.7743,-55.7147 L 20.5139,-56.1048 L 21.3185,-56.3327 L 22.1529,-56.3882 L 22.9806,-56.2691
 L 23.7655,-55.9805 L 85.5533,-25.5893 L 86.139,-25.2361 L 86.7605,-24.6765 L 87.252,-24 L 87.5921,-23.2361
 L 87.766,-22.4181 L 87.766,-21.5819 L 87.5921,-20.7639 L 87.252,-20 L 86.7605,-19.3235 L 86.139,-18.7639
 L 85.4148,-18.3458 L 84.6195,-18.0874 L 83.7879,-18 z
M 484.212,-18 L 483.38,-18.0874 L 482.585,-18.3458 L 481.861,-18.7639 L 481.24,-19.3235 L 480.748,-20
 L 480.408,-20.7639 L 480.234,-21.5819 L 480.234,-22.4181 L 480.408,-23.2361 L 480.748,-24 L 481.24,-24.6765
 L 481.861,-25.2361 L 482.447,-25.5893 L 544.235,-55.9805 L 545.019,-56.2691 L 545.847,-56.3882 L 546.681,-56.3327
 L 547.486,-56.1048 L 548.226,-55.7147 L 548.868,-55.1794 L 549.385,-54.5221 L 549.754,-53.7717 L 549.959,-52.961
 L 550,-52.3911 L 550,-22 L 549.913,-21.1684 L 549.654,-20.373 L 549.236,-19.6489 L 548.677,-19.0274
 L 548,-18.5359 L 547.236,-18.1958 L 546,-18 z
" stroke="black" fill="lightgray" stroke-width="0.5"/>
</svg>
