<?xml version="1.0" standalone="no"?>
<!DOCTYPE svg PUBLIC "-//W3C//DTD SVG 1.1//EN" "http://www.w3.org/Graphics/SVG/1.1/DTD/svg11.dtd">
<svg width="866mm" height="80mm" viewBox="0 -80 866 80" xmlns="http://www.w3.org/2000/svg" version="1.1">
<title>OpenSCAD Model</title>
<path d="
M 866,-80 L 0,-80 L 0,-0 L 4.95,-0 L 4.95,-6 L 5.00572,-6.53017
 L 5.17046,-7.03717 L 5.437,-7.49884 L 5.79372,-7.895 L 6.22499,-8.20836 L 6.71201,-8.42519 L 7.23344,-8.53603
 L 7.76654,-8.53603 L 8.28798,-8.42519 L 8.77499,-8.20836 L 9.20627,-7.895 L 9.56299,-7.49884 L 9.82953,-7.03717
 L 9.99426,-6.53017 L 10.05,-6 L 10.05,-0 L 175.15,-0 L 175.15,-6 L 175.206,-6.53017
 L 175.37,-7.03717 L 175.637,-7.49884 L 175.994,-7.895 L 176.425,-8.20836 L 176.912,-8.42519 L 177.433,-8.53603
 L 177.967,-8.53603 L 178.488,-8.42519 L 178.975,-8.20836 L 179.406,-7.895 L 179.763,-7.49884 L 180.03,-7.03717
 L 180.194,-6.53017 L 180.25,-6 L 180.25,-0 L 345.35,-0 L 345.35,-6 L 345.406,-6.53017
 L 345.57,-7.03717 L 345.837,-7.49884 L 346.194,-7.895 L 346.625,-8.20836 L 347.112,-8.42519 L 347.633,-8.53603
 L 348.167,-8.53603 L 348.688,-8.42519 L 349.175,-8.20836 L 349.606,-7.895 L 349.963,-7.49884 L 350.23,-7.03717
 L 350.394,-6.53017 L 350.45,-6 L 350.45,-0 L 515.55,-0 L 515.55,-6 L 515.606,-6.53017
 L 515.77,-7.03717 L 516.037,-7.49884 L 516.394,-7.895 L 516.825,-8.20836 L 517.312,-8.42519 L 517.833,-8.53603
 L 518.367,-8.53603 L 518.888,-8.42519 L 519.375,-8.20836 L 519.806,-7.895 L 520.163,-7.49884 L 520.43,-7.03717
 L 520.594,-6.53017 L 520.65,-6 L 520.65,-0 L 685.75,-0 L 685.75,-6 L 685.806,-6.53017
 L 685.97,-7.03717 L 686.237,-7.49884 L 686.594,-7.895 L 687.025,-8.20836 L 687.512,-8.42519 L 688.033,-8.53603
 L 688.567,-8.53603 L 689.088,-8.42519 L 689.575,-8.20836 L 690.006,-7.895 L 690.363,-7.49884 L 690.63,-7.03717
 L 690.794,-6.53017 L 690.85,-6 L 690.85,-0 L 855.95,-0 L 855.95,-6 L 856.006,-6.53017
 L 856.17,-7.03717 L 856.437,-7.49884 L 856.794,-7.895 L 857.225,-8.20836 L 857.712,-8.42519 L 858.233,-8.53603
 L 858.767,-8.53603 L 859.288,-8.42519 L 859.775,-8.20836 L 860.206,-7.895 L 860.563,-7.49884 L 860.83,-7.03717
 L 860.994,-6.53017 L 861.05,-6 L 861.05,-0 L 866,-0 z
M 6.98573,-55.607 L 6.47708,-55.6875 L 5.97964,-55.8208 L 5.49887,-56.0054 L 5.04001,-56.2392 L 4.60811,-56.5196
 L 4.20789,-56.8437 L 3.84373,-57.2079 L 3.51964,-57.6081 L 3.23917,-58.04 L 3.00537,-58.4989 L 2.82082,-58.9796
 L 2.68752,-59.4771 L 2.60696,-59.9857 L 2.58,-60.5 L 2.60696,-61.0143 L 2.68752,-61.5229 L 2.82082,-62.0204
 L 3.00537,-62.5011 L 3.23917,-62.96 L 3.51964,-63.3919 L 3.84373,-63.7921 L 4.20789,-64.1563 L 4.60811,-64.4804
 L 4.95001,-64.7024 L 4.95001,-74 L 5.00574,-74.5302 L 5.17047,-75.0372 L 5.43701,-75.4988 L 5.79373,-75.895
 L 6.22501,-76.2084 L 6.71202,-76.4252 L 7.23346,-76.536 L 7.76654,-76.536 L 8.28798,-76.4252 L 8.77499,-76.2084
 L 9.20627,-75.895 L 9.56299,-75.4988 L 9.82953,-75.0372 L 9.99426,-74.5302 L 10.05,-74 L 10.05,-64.7024
 L 10.3919,-64.4804 L 10.7921,-64.1563 L 11.1563,-63.7921 L 11.4804,-63.3919 L 11.7608,-62.96 L 11.9946,-62.5011
 L 12.1792,-62.0204 L 12.3125,-61.5229 L 12.393,-61.0143 L 12.42,-60.5 L 12.393,-59.9857 L 12.3125,-59.4771
 L 12.1792,-58.9796 L 11.9946,-58.4989 L 11.7608,-58.04 L 11.4804,-57.6081 L 11.1563,-57.2079 L 10.7921,-56.8437
 L 10.3919,-56.5196 L 9.95999,-56.2392 L 9.50113,-56.0054 L 9.02036,-55.8208 L 8.52292,-55.6875 L 8.01427,-55.607
 L 7.5,-55.58 z
M 177.186,-55.607 L 176.677,-55.6875 L 176.18,-55.8208 L 175.699,-56.0054 L 175.24,-56.2392 L 174.808,-56.5196
 L 174.408,-56.8437 L 174.044,-57.2079 L 173.72,-57.6081 L 173.439,-58.04 L 173.205,-58.4989 L 173.021,-58.9796
 L 172.888,-59.4771 L 172.807,-59.9857 L 172.78,-60.5 L 172.807,-61.0143 L 172.888,-61.5229 L 173.021,-62.0204
 L 173.205,-62.5011 L 173.439,-62.96 L 173.72,-63.3919 L 174.044,-63.7921 L 174.408,-64.1563 L 174.808,-64.4804
 L 175.15,-64.7024 L 175.15,-74 L 175.206,-74.5302 L 175.37,-75.0372 L 175.637,-75.4988 L 175.994,-75.895
 L 176.425,-76.2084 L 176.912,-76.4252 L 177.433,-76.536 L 177.967,-76.536 L 178.488,-76.4252 L 178.975,-76.2084
 L 179.406,-75.895 L 179.763,-75.4988 L 180.03,-75.0372 L 180.194,-74.5302 L 180.25,-74 L 180.25,-64.7024
 L 180.592,-64.4804 L 180.992,-64.1563 L 181.356,-63.7921 L 181.68,-63.3919 L 181.961,-62.96 L 182.195,-62.5011
 L 182.379,-62.0204 L 182.512,-61.5229 L 182.593,-61.0143 L 182.62,-60.5 L 182.593,-59.9857 L 182.512,-59.4771
 L 182.379,-58.9796 L 182.195,-58.4989 L 181.961,-58.04 L 181.68,-57.6081 L 181.356,-57.2079 L 180.992,-56.8437
 L 180.592,-56.5196 L 180.16,-56.2392 L 179.701,-56.0054 L 179.22,-55.8208 L 178.723,-55.6875 L 178.214,-55.607
 L 177.7,-55.58 z
M 347.386,-55.607 L 346.877,-55.6875 L 346.38,-55.8208 L 345.899,-56.0054 L 345.44,-56.2392 L 345.008,-56.5196
 L 344.608,-56.8437 L 344.244,-57.2079 L 343.92,-57.6081 L 343.639,-58.04 L 343.405,-58.4989 L 343.221,-58.9796
 L 343.088,-59.4771 L 343.007,-59.9857 L 342.98,-60.5 L 343.007,-61.0143 L 343.088,-61.5229 L 343.221,-62.0204
 L 343.405,-62.5011 L 343.639,-62.96 L 343.92,-63.3919 L 344.244,-63.7921 L 344.608,-64.1563 L 345.008,-64.4804
 L 345.35,-64.7024 L 345.35,-74 L 345.406,-74.5302 L 345.57,-75.0372 L 345.837,-75.4988 L 346.194,-75.895
 L 346.625,-76.2084 L 347.112,-76.4252 L 347.633,-76.536 L 348.167,-76.536 L 348.688,-76.4252 L 349.175,-76.2084
 L 349.606,-75.895 L 349.963,-75.4988 L 350.23,-75.0372 L 350.394,-74.5302 L 350.45,-74 L 350.45,-64.7024
 L 350.792,-64.4804 L 351.192,-64.1563 L 351.556,-63.7921 L 351.88,-63.3919 L 352.161,-62.96 L 352.395,-62.5011
 L 352.579,-62.0204 L 352.712,-61.5229 L 352.793,-61.0143 L 352.82,-60.5 L 352.793,-59.9857 L 352.712,-59.4771
 L 352.579,-58.9796 L 352.395,-58.4989 L 352.161,-58.04 L 351.88,-57.6081 L 351.556,-57.2079 L 351.192,-56.8437
 L 350.792,-56.5196 L 350.36,-56.2392 L 349.901,-56.0054 L 349.42,-55.8208 L 348.923,-55.6875 L 348.414,-55.607
 L 347.9,-55.58 z
M 517.586,-55.607 L 517.077,-55.6875 L 516.58,-55.8208 L 516.099,-56.0054 L 515.64,-56.2392 L 515.208,-56.5196
 L 514.808,-56.8437 L 514.444,-57.2079 L 514.12,-57.6081 L 513.839,-58.04 L 513.605,-58.4989 L 513.421,-58.9796
 L 513.288,-59.4771 L 513.207,-59.9857 L 513.18,-60.5 L 513.207,-61.0143 L 513.288,-61.5229 L 513.421,-62.0204
 L 513.605,-62.5011 L 513.839,-62.96 L 514.12,-63.3919 L 514.444,-63.7921 L 514.808,-64.1563 L 515.208,-64.4804
 L 515.55,-64.7024 L 515.55,-74 L 515.606,-74.5302 L 515.77,-75.0372 L 516.037,-75.4988 L 516.394,-75.895
 L 516.825,-76.2084 L 517.312,-76.4252 L 517.833,-76.536 L 518.367,-76.536 L 518.888,-76.4252 L 519.375,-76.2084
 L 519.806,-75.895 L 520.163,-75.4988 L 520.43,-75.0372 L 520.594,-74.5302 L 520.65,-74 L 520.65,-64.7024
 L 520.992,-64.4804 L 521.392,-64.1563 L 521.756,-63.7921 L 522.08,-63.3919 L 522.361,-62.96 L 522.595,-62.5011
 L 522.779,-62.0204 L 522.912,-61.5229 L 522.993,-61.0143 L 523.02,-60.5 L 522.993,-59.9857 L 522.912,-59.4771
 L 522.779,-58.9796 L 522.595,-58.4989 L 522.361,-58.04 L 522.08,-57.6081 L 521.756,-57.2079 L 521.392,-56.8437
 L 520.992,-56.5196 L 520.56,-56.2392 L 520.101,-56.0054 L 519.62,-55.8208 L 519.123,-55.6875 L 518.614,-55.607
 L 518.1,-55.58 z
M 687.786,-55.607 L 687.277,-55.6875 L 686.78,-55.8208 L 686.299,-56.0054 L 685.84,-56.2392 L 685.408,-56.5196
 L 685.008,-56.8437 L 684.644,-57.2079 L 684.32,-57.6081 L 684.039,-58.04 L 683.805,-58.4989 L 683.621,-58.9796
 L 683.488,-59.4771 L 683.407,-59.9857 L 683.38,-60.5 L 683.407,-61.0143 L 683.488,-61.5229 L 683.621,-62.0204
 L 683.805,-62.5011 L 684.039,-62.96 L 684.32,-63.3919 L 684.644,-63.7921 L 685.008,-64.1563 L 685.408,-64.4804
 L 685.75,-64.7024 L 685.75,-74 L 685.806,-74.5302 L 685.97,-75.0372 L 686.237,-75.4988 L 686.594,-75.895
 L 687.025,-76.2084 L 687.512,-76.4252 L 688.033,-76.536 L 688.567,-76.536 L 689.088,-76.4252 L 689.575,-76.2084
 L 690.006,-75.895 L 690.363,-75.4988 L 690.63,-75.0372 L 690.794,-74.5302 L 690.85,-74 L 690.85,-64.7024
 L 691.192,-64.4804 L 691.592,-64.1563 L 691.956,-63.7921 L 692.28,-63.3919 L 692.561,-62.96 L 692.795,-62.5011
 L 692.979,-62.0204 L 693.112,-61.5229 L 693.193,-61.0143 L 693.22,-60.5 L 693.193,-59.9857 L 693.112,-59.4771
 L 692.979,-58.9796 L 692.795,-58.4989 L 692.561,-58.04 L 692.28,-57.6081 L 691.956,-57.2079 L 691.592,-56.8437
 L 691.192,-56.5196 L 690.76,-56.2392 L 690.301,-56.0054 L 689.82,-55.8208 L 689.323,-55.6875 L 688.814,-55.607
 L 688.3,-55.58 z
M 857.986,-55.607 L 857.477,-55.6875 L 856.98,-55.8208 L 856.499,-56.0054 L 856.04,-56.2392 L 855.608,-56.5196
 L 855.208,-56.8437 L 854.844,-57.2079 L 854.52,-57.6081 L 854.239,-58.04 L 854.005,-58.4989 L 853.821,-58.9796
 L 853.688,-59.4771 L 853.607,-59.9857 L 853.58,-60.5 L 853.607,-61.0143 L 853.688,-61.5229 L 853.821,-62.0204
 L 854.005,-62.5011 L 854.239,-62.96 L 854.52,-63.3919 L 854.844,-63.7921 L 855.208,-64.1563 L 855.608,-64.4804
 L 855.95,-64.7024 L 855.95,-74 L 856.006,-74.5302 L 856.17,-75.0372 L 856.437,-75.4988 L 856.794,-75.895
 L 857.225,-76.2084 L 857.712,-76.4252 L 858.233,-76.536 L 858.767,-76.536 L 859.288,-76.4252 L 859.775,-76.2084
 L 860.206,-75.895 L 860.563,-75.4988 L 860.83,-75.0372 L 860.994,-74.5302 L 861.05,-74 L 861.05,-64.7024
 L 861.392,-64.4804 L 861.792,-64.1563 L 862.156,-63.7921 L 862.48,-63.3919 L 862.761,-62.96 L 862.995,-62.5011
 L 863.179,-62.0204 L 863.312,-61.5229 L 863.393,-61.0143 L 863.42,-60.5 L 863.393,-59.9857 L 863.312,-59.4771
 L 863.179,-58.9796 L 862.995,-58.4989 L 862.761,-58.04 L 862.48,-57.6081 L 862.156,-57.2079 L 861.792,-56.8437
 L 861.392,-56.5196 L 860.96,-56.2392 L 860.501,-56.0054 L 860.02,-55.8208 L 859.523,-55.6875 L 859.014,-55.607
 L 858.5,-55.58 z
M 432.321,-47.8946 L 431.516,-48.122 L 416.089,-54.2855 L 415.222,-54.7639 L 414.601,-55.3235 L 414.109,-56
 L 413.769,-56.7639 L 413.595,-57.5819 L 413.595,-58.4181 L 413.769,-59.2361 L 414.109,-60 L 414.601,-60.6765
 L 415.222,-61.2361 L 415.946,-61.6542 L 416.742,-61.9126 L 417.573,-62 L 448.427,-62 L 449.409,-61.8774
 L 450.194,-61.5884 L 450.902,-61.1425 L 451.501,-60.5593 L 451.966,-59.8642 L 452.276,-59.0877 L 452.418,-58.2636
 L 452.386,-57.428 L 452.18,-56.6174 L 451.811,-55.8672 L 451.293,-55.2103 L 450.651,-54.6752 L 449.911,-54.2855
 L 434.484,-48.122 L 433.983,-47.9591 L 433.155,-47.8395 z
M 334.221,-21.2406 L 333.416,-21.468 L 251.276,-54.2855 L 250.409,-54.7639 L 249.787,-55.3235 L 249.296,-56
 L 248.956,-56.7639 L 248.782,-57.5819 L 248.782,-58.4181 L 248.956,-59.2361 L 249.296,-60 L 249.787,-60.6765
 L 250.409,-61.2361 L 251.133,-61.6542 L 251.928,-61.9126 L 252.76,-62 L 334.9,-62 L 336.136,-61.8042
 L 336.9,-61.4641 L 337.577,-60.9726 L 338.136,-60.3511 L 338.554,-59.627 L 338.813,-58.8316 L 338.9,-58
 L 338.9,-25.1825 L 338.749,-24.0948 L 338.439,-23.3183 L 337.974,-22.6232 L 337.375,-22.04 L 336.667,-21.5941
 L 335.883,-21.3051 L 335.055,-21.1855 z
M 700.317,-21.3051 L 699.533,-21.5941 L 698.825,-22.04 L 698.226,-22.6232 L 697.761,-23.3183 L 697.451,-24.0948
 L 697.3,-25.1825 L 697.3,-58 L 697.387,-58.8316 L 697.646,-59.627 L 698.064,-60.3511 L 698.623,-60.9726
 L 699.3,-61.4641 L 700.064,-61.8042 L 701.3,-62 L 783.44,-62 L 784.272,-61.9126 L 785.067,-61.6542
 L 785.791,-61.2361 L 786.413,-60.6765 L 786.904,-60 L 787.244,-59.2361 L 787.418,-58.4181 L 787.418,-57.5819
 L 787.244,-56.7639 L 786.904,-56 L 786.413,-55.3235 L 785.791,-54.7639 L 784.924,-54.2855 L 702.784,-21.468
 L 701.979,-21.2406 L 701.145,-21.1855 z
M 164.021,-21.2406 L 163.216,-21.468 L 81.0757,-54.2855 L 80.2086,-54.7639 L 79.5872,-55.3235 L 79.0957,-56
 L 78.7555,-56.7639 L 78.5817,-57.5819 L 78.5817,-58.4181 L 78.7555,-59.2361 L 79.0957,-60 L 79.5872,-60.6765
 L 80.2086,-61.2361 L 80.9328,-61.6542 L 81.7281,-61.9126 L 82.5598,-62 L 164.7,-62 L 165.936,-61.8042
 L 166.7,-61.4641 L 167.377,-60.9726 L 167.936,-60.3511 L 168.354,-59.627 L 168.613,-58.8316 L 168.7,-58
 L 168.7,-25.1825 L 168.549,-24.0948 L 168.239,-23.3183 L 167.774,-22.6232 L 167.175,-22.04 L 166.467,-21.5941
 L 165.683,-21.3051 L 164.855,-21.1855 z
M 530.117,-21.3051 L 529.333,-21.5941 L 528.625,-22.04 L 528.026,-22.6232 L 527.561,-23.3183 L 527.251,-24.0948
 L 527.1,-25.1825 L 527.1,-58 L 527.187,-58.8316 L 527.446,-59.627 L 527.864,-60.3511 L 528.423,-60.9726
 L 529.1,-61.4641 L 529.864,-61.8042 L 531.1,-62 L 613.24,-62 L 614.072,-61.9126 L 614.867,-61.6542
 L 615.591,-61.2361 L 616.213,-60.6765 L 616.704,-60 L 617.044,-59.2361 L 617.218,-58.4181 L 617.218,-57.5819
 L 617.044,-56.7639 L 616.704,-56 L 616.213,-55.3235 L 615.591,-54.7639 L 614.724,-54.2855 L 532.584,-21.468
 L 531.779,-21.2406 L 530.945,-21.1855 z
M 360.482,-19.0523 L 359.664,-19.2262 L 358.9,-19.5663 L 358.223,-20.0578 L 357.664,-20.6793 L 357.246,-21.4035
 L 356.987,-22.1988 L 356.9,-23.0304 L 356.9,-56.9696 L 357.051,-58.0572 L 357.361,-58.8338 L 357.826,-59.5288
 L 358.425,-60.1121 L 359.133,-60.5579 L 359.917,-60.847 L 360.745,-60.9666 L 361.579,-60.9115 L 362.384,-60.6841
 L 404.858,-43.7145 L 405.849,-43.1425 L 406.448,-42.5593 L 406.913,-41.8642 L 407.223,-41.0877 L 407.365,-40.2636
 L 407.333,-39.428 L 407.127,-38.6174 L 406.758,-37.8672 L 406.24,-37.2103 L 405.598,-36.6752 L 404.858,-36.2855
 L 362.384,-19.3159 L 361.318,-19.0523 z
M 504.421,-19.0885 L 503.616,-19.3159 L 461.142,-36.2855 L 460.151,-36.8575 L 459.552,-37.4407 L 459.087,-38.1358
 L 458.777,-38.9123 L 458.635,-39.7364 L 458.667,-40.572 L 458.873,-41.3826 L 459.242,-42.1328 L 459.76,-42.7897
 L 460.402,-43.3248 L 461.142,-43.7145 L 503.616,-60.6841 L 504.682,-60.9477 L 505.518,-60.9477 L 506.336,-60.7738
 L 507.1,-60.4337 L 507.777,-59.9422 L 508.336,-59.3207 L 508.754,-58.5965 L 509.013,-57.8012 L 509.1,-56.9696
 L 509.1,-23.0304 L 508.949,-21.9428 L 508.639,-21.1662 L 508.174,-20.4712 L 507.575,-19.8879 L 506.867,-19.4421
 L 506.083,-19.153 L 505.255,-19.0334 z
M 190.7,-18 L 189.464,-18.1958 L 188.7,-18.5359 L 188.023,-19.0274 L 187.464,-19.6489 L 187.046,-20.373
 L 186.787,-21.1684 L 186.7,-22 L 186.7,-54.8175 L 186.851,-55.9051 L 187.161,-56.6817 L 187.626,-57.3767
 L 188.225,-57.96 L 188.933,-58.4058 L 189.717,-58.6949 L 190.545,-58.8145 L 191.379,-58.7594 L 192.184,-58.532
 L 274.324,-25.7145 L 275.191,-25.2361 L 275.813,-24.6765 L 276.304,-24 L 276.644,-23.2361 L 276.818,-22.4181
 L 276.818,-21.5819 L 276.644,-20.7639 L 276.304,-20 L 275.813,-19.3235 L 275.191,-18.7639 L 274.467,-18.3458
 L 273.672,-18.0874 L 272.84,-18 z
M 593.16,-18 L 592.328,-18.0874 L 591.533,-18.3458 L 590.809,-18.7639 L 590.187,-19.3235 L 589.696,-20
 L 589.356,-20.7639 L 589.182,-21.5819 L 589.182,-22.4181 L 589.356,-23.2361 L 589.696,-24 L 590.187,-24.6765
 L 590.809,-25.2361 L 591.676,-25.7145 L 673.816,-58.532 L 674.621,-58.7594 L 675.455,-58.8145 L 676.283,-58.6949
 L 677.067,-58.4058 L 677.775,-57.96 L 678.374,-57.3767 L 678.839,-56.6817 L 679.149,-55.9051 L 679.3,-54.8175
 L 679.3,-22 L 679.213,-21.1684 L 678.954,-20.373 L 678.536,-19.6489 L 677.977,-19.0274 L 677.3,-18.5359
 L 676.536,-18.1958 L 675.3,-18 z
M 22,-18 L 20.7639,-18.1958 L 20,-18.5359 L 19.3235,-19.0274 L 18.7639,-19.6489 L 18.3458,-20.373
 L 18.0874,-21.1684 L 18,-22 L 18,-54.2182 L 18.1507,-55.3058 L 18.461,-56.0824 L 18.9259,-56.7774
 L 19.5252,-57.3607 L 20.2326,-57.8065 L 21.0173,-58.0956 L 21.8449,-58.2152 L 22.6793,-58.1601 L 23.4841,-57.9327
 L 104.124,-25.7145 L 104.991,-25.2361 L 105.613,-24.6765 L 106.104,-24 L 106.444,-23.2361 L 106.618,-22.4181
 L 106.618,-21.5819 L 106.444,-20.7639 L 106.104,-20 L 105.613,-19.3235 L 104.991,-18.7639 L 104.267,-18.3458
 L 103.472,-18.0874 L 102.64,-18 z
M 763.36,-18 L 762.528,-18.0874 L 761.733,-18.3458 L 761.009,-18.7639 L 760.387,-19.3235 L 759.896,-20
 L 759.556,-20.7639 L 759.382,-21.5819 L 759.382,-22.4181 L 759.556,-23.2361 L 759.896,-24 L 760.387,-24.6765
 L 761.009,-25.2361 L 761.876,-25.7145 L 842.516,-57.9327 L 843.321,-58.1601 L 844.155,-58.2152 L 844.983,-58.0956
 L 845.767,-57.8065 L 846.475,-57.3607 L 847.074,-56.7774 L 847.539,-56.0824 L 847.849,-55.3058 L 848,-54.2182
 L 848,-22 L 847.913,-21.1684 L 847.654,-20.373 L 847.236,-19.6489 L 846.677,-19.0274 L 846,-18.5359
 L 845.236,-18.1958 L 844,-18 z
M 417.573,-18 L 416.59,-18.1226 L 415.806,-18.4116 L 415.098,-18.8575 L 414.499,-19.4407 L 414.034,-20.1358
 L 413.724,-20.9123 L 413.582,-21.7364 L 413.614,-22.572 L 413.82,-23.3826 L 414.189,-24.1328 L 414.707,-24.7897
 L 415.349,-25.3248 L 416.089,-25.7145 L 431.516,-31.878 L 432.017,-32.0409 L 432.845,-32.1605 L 433.679,-32.1054
 L 434.484,-31.878 L 449.911,-25.7145 L 450.778,-25.2361 L 451.399,-24.6765 L 451.891,-24 L 452.231,-23.2361
 L 452.405,-22.4181 L 452.405,-21.5819 L 452.231,-20.7639 L 451.891,-20 L 451.399,-19.3235 L 450.778,-18.7639
 L 450.054,-18.3458 L 449.258,-18.0874 L 448.427,-18 z
" stroke="black" fill="lightgray" stroke-width="0.5"/>
</svg>
