<?xml version="1.0" standalone="no"?>
<!DOCTYPE svg PUBLIC "-//W3C//DTD SVG 1.1//EN" "http://www.w3.org/Graphics/SVG/1.1/DTD/svg11.dtd">
<svg width="607mm" height="80mm" viewBox="0 -80 607 80" xmlns="http://www.w3.org/2000/svg" version="1.1">
<title>OpenSCAD Model</title>
<path d="
M 607,-80 L 0,-80 L 0,-0 L 4.95,-0 L 4.95,-6 L 5.00572,-6.53017
 L 5.17046,-7.03717 L 5.437,-7.49884 L 5.79372,-7.895 L 6.22499,-8.20836 L 6.71201,-8.42519 L 7.23344,-8.53603
 L 7.76654,-8.53603 L 8.28798,-8.42519 L 8.77499,-8.20836 L 9.20627,-7.895 L 9.56299,-7.49884 L 9.82953,-7.03717
 L 9.99426,-6.53017 L 10.05,-6 L 10.05,-0 L 123.35,-0 L 123.35,-6 L 123.406,-6.53017
 L 123.57,-7.03717 L 123.837,-7.49884 L 124.194,-7.895 L 124.625,-8.20836 L 125.112,-8.42519 L 125.633,-8.53603
 L 126.167,-8.53603 L 126.688,-8.42519 L 127.175,-8.20836 L 127.606,-7.895 L 127.963,-7.49884 L 128.23,-7.03717
 L 128.394,-6.53017 L 128.45,-6 L 128.45,-0 L 241.75,-0 L 241.75,-6 L 241.806,-6.53017
 L 241.97,-7.03717 L 242.237,-7.49884 L 242.594,-7.895 L 243.025,-8.20836 L 243.512,-8.42519 L 244.033,-8.53603
 L 244.567,-8.53603 L 245.088,-8.42519 L 245.575,-8.20836 L 246.006,-7.895 L 246.363,-7.49884 L 246.63,-7.03717
 L 246.794,-6.53017 L 246.85,-6 L 246.85,-0 L 360.15,-0 L 360.15,-6 L 360.206,-6.53017
 L 360.37,-7.03717 L 360.637,-7.49884 L 360.994,-7.895 L 361.425,-8.20836 L 361.912,-8.42519 L 362.433,-8.53603
 L 362.967,-8.53603 L 363.488,-8.42519 L 363.975,-8.20836 L 364.406,-7.895 L 364.763,-7.49884 L 365.03,-7.03717
 L 365.194,-6.53017 L 365.25,-6 L 365.25,-0 L 478.55,-0 L 478.55,-6 L 478.606,-6.53017
 L 478.77,-7.03717 L 479.037,-7.49884 L 479.394,-7.895 L 479.825,-8.20836 L 480.312,-8.42519 L 480.833,-8.53603
 L 481.367,-8.53603 L 481.888,-8.42519 L 482.375,-8.20836 L 482.806,-7.895 L 483.163,-7.49884 L 483.43,-7.03717
 L 483.594,-6.53017 L 483.65,-6 L 483.65,-0 L 596.95,-0 L 596.95,-6 L 597.006,-6.53017
 L 597.17,-7.03717 L 597.437,-7.49884 L 597.794,-7.895 L 598.225,-8.20836 L 598.712,-8.42519 L 599.233,-8.53603
 L 599.767,-8.53603 L 600.288,-8.42519 L 600.775,-8.20836 L 601.206,-7.895 L 601.563,-7.49884 L 601.83,-7.03717
 L 601.994,-6.53017 L 602.05,-6 L 602.05,-0 L 607,-0 z
M 6.98573,-55.607 L 6.47708,-55.6875 L 5.97964,-55.8208 L 5.49887,-56.0054 L 5.04001,-56.2392 L 4.60811,-56.5196
 L 4.20789,-56.8437 L 3.84373,-57.2079 L 3.51964,-57.6081 L 3.23917,-58.04 L 3.00537,-58.4989 L 2.82082,-58.9796
 L 2.68752,-59.4771 L 2.60696,-59.9857 L 2.58,-60.5 L 2.60696,-61.0143 L 2.68752,-61.5229 L 2.82082,-62.0204
 L 3.00537,-62.5011 L 3.23917,-62.96 L 3.51964,-63.3919 L 3.84373,-63.7921 L 4.20789,-64.1563 L 4.60811,-64.4804
 L 4.95001,-64.7024 L 4.95001,-74 L 5.00574,-74.5302 L 5.17047,-75.0372 L 5.43701,-75.4988 L 5.79373,-75.895
 L 6.22501,-76.2084 L 6.71202,-76.4252 L 7.23346,-76.536 L 7.76654,-76.536 L 8.28798,-76.4252 L 8.77499,-76.2084
 L 9.20627,-75.895 L 9.56299,-75.4988 L 9.82953,-75.0372 L 9.99426,-74.5302 L 10.05,-74 L 10.05,-64.7024
 L 10.3919,-64.4804 L 10.7921,-64.1563 L 11.1563,-63.7921 L 11.4804,-63.3919 L 11.7608,-62.96 L 11.9946,-62.5011
 L 12.1792,-62.0204 L 12.3125,-61.5229 L 12.393,-61.0143 L 12.42,-60.5 L 12.393,-59.9857 L 12.3125,-59.4771
 L 12.1792,-58.9796 L 11.9946,-58.4989 L 11.7608,-58.04 L 11.4804,-57.6081 L 11.1563,-57.2079 L 10.7921,-56.8437
 L 10.3919,-56.5196 L 9.95999,-56.2392 L 9.50113,-56.0054 L 9.02036,-55.8208 L 8.52292,-55.6875 L 8.01427,-55.607
 L 7.5,-55.58 z
M 125.386,-55.607 L 124.877,-55.6875 L 124.38,-55.8208 L 123.899,-56.0054 L 123.44,-56.2392 L 123.008,-56.5196
 L 122.608,-56.8437 L 122.244,-57.2079 L 121.92,-57.6081 L 121.639,-58.04 L 121.405,-58.4989 L 121.221,-58.9796
 L 121.088,-59.4771 L 121.007,-59.9857 L 120.98,-60.5 L 121.007,-61.0143 L 121.088,-61.5229 L 121.221,-62.0204
 L 121.405,-62.5011 L 121.639,-62.96 L 121.92,-63.3919 L 122.244,-63.7921 L 122.608,-64.1563 L 123.008,-64.4804
 L 123.35,-64.7024 L 123.35,-74 L 123.406,-74.5302 L 123.57,-75.0372 L 123.837,-75.4988 L 124.194,-75.895
 L 124.625,-76.2084 L 125.112,-76.4252 L 125.633,-76.536 L 126.167,-76.536 L 126.688,-76.4252 L 127.175,-76.2084
 L 127.606,-75.895 L 127.963,-75.4988 L 128.23,-75.0372 L 128.394,-74.5302 L 128.45,-74 L 128.45,-64.7024
 L 128.792,-64.4804 L 129.192,-64.1563 L 129.556,-63.7921 L 129.88,-63.3919 L 130.161,-62.96 L 130.395,-62.5011
 L 130.579,-62.0204 L 130.712,-61.5229 L 130.793,-61.0143 L 130.82,-60.5 L 130.793,-59.9857 L 130.712,-59.4771
 L 130.579,-58.9796 L 130.395,-58.4989 L 130.161,-58.04 L 129.88,-57.6081 L 129.556,-57.2079 L 129.192,-56.8437
 L 128.792,-56.5196 L 128.36,-56.2392 L 127.901,-56.0054 L 127.42,-55.8208 L 126.923,-55.6875 L 126.414,-55.607
 L 125.9,-55.58 z
M 243.786,-55.607 L 243.277,-55.6875 L 242.78,-55.8208 L 242.299,-56.0054 L 241.84,-56.2392 L 241.408,-56.5196
 L 241.008,-56.8437 L 240.644,-57.2079 L 240.32,-57.6081 L 240.039,-58.04 L 239.805,-58.4989 L 239.621,-58.9796
 L 239.488,-59.4771 L 239.407,-59.9857 L 239.38,-60.5 L 239.407,-61.0143 L 239.488,-61.5229 L 239.621,-62.0204
 L 239.805,-62.5011 L 240.039,-62.96 L 240.32,-63.3919 L 240.644,-63.7921 L 241.008,-64.1563 L 241.408,-64.4804
 L 241.75,-64.7024 L 241.75,-74 L 241.806,-74.5302 L 241.97,-75.0372 L 242.237,-75.4988 L 242.594,-75.895
 L 243.025,-76.2084 L 243.512,-76.4252 L 244.033,-76.536 L 244.567,-76.536 L 245.088,-76.4252 L 245.575,-76.2084
 L 246.006,-75.895 L 246.363,-75.4988 L 246.63,-75.0372 L 246.794,-74.5302 L 246.85,-74 L 246.85,-64.7024
 L 247.192,-64.4804 L 247.592,-64.1563 L 247.956,-63.7921 L 248.28,-63.3919 L 248.561,-62.96 L 248.795,-62.5011
 L 248.979,-62.0204 L 249.112,-61.5229 L 249.193,-61.0143 L 249.22,-60.5 L 249.193,-59.9857 L 249.112,-59.4771
 L 248.979,-58.9796 L 248.795,-58.4989 L 248.561,-58.04 L 248.28,-57.6081 L 247.956,-57.2079 L 247.592,-56.8437
 L 247.192,-56.5196 L 246.76,-56.2392 L 246.301,-56.0054 L 245.82,-55.8208 L 245.323,-55.6875 L 244.814,-55.607
 L 244.3,-55.58 z
M 362.186,-55.607 L 361.677,-55.6875 L 361.18,-55.8208 L 360.699,-56.0054 L 360.24,-56.2392 L 359.808,-56.5196
 L 359.408,-56.8437 L 359.044,-57.2079 L 358.72,-57.6081 L 358.439,-58.04 L 358.205,-58.4989 L 358.021,-58.9796
 L 357.888,-59.4771 L 357.807,-59.9857 L 357.78,-60.5 L 357.807,-61.0143 L 357.888,-61.5229 L 358.021,-62.0204
 L 358.205,-62.5011 L 358.439,-62.96 L 358.72,-63.3919 L 359.044,-63.7921 L 359.408,-64.1563 L 359.808,-64.4804
 L 360.15,-64.7024 L 360.15,-74 L 360.206,-74.5302 L 360.37,-75.0372 L 360.637,-75.4988 L 360.994,-75.895
 L 361.425,-76.2084 L 361.912,-76.4252 L 362.433,-76.536 L 362.967,-76.536 L 363.488,-76.4252 L 363.975,-76.2084
 L 364.406,-75.895 L 364.763,-75.4988 L 365.03,-75.0372 L 365.194,-74.5302 L 365.25,-74 L 365.25,-64.7024
 L 365.592,-64.4804 L 365.992,-64.1563 L 366.356,-63.7921 L 366.68,-63.3919 L 366.961,-62.96 L 367.195,-62.5011
 L 367.379,-62.0204 L 367.512,-61.5229 L 367.593,-61.0143 L 367.62,-60.5 L 367.593,-59.9857 L 367.512,-59.4771
 L 367.379,-58.9796 L 367.195,-58.4989 L 366.961,-58.04 L 366.68,-57.6081 L 366.356,-57.2079 L 365.992,-56.8437
 L 365.592,-56.5196 L 365.16,-56.2392 L 364.701,-56.0054 L 364.22,-55.8208 L 363.723,-55.6875 L 363.214,-55.607
 L 362.7,-55.58 z
M 480.586,-55.607 L 480.077,-55.6875 L 479.58,-55.8208 L 479.099,-56.0054 L 478.64,-56.2392 L 478.208,-56.5196
 L 477.808,-56.8437 L 477.444,-57.2079 L 477.12,-57.6081 L 476.839,-58.04 L 476.605,-58.4989 L 476.421,-58.9796
 L 476.288,-59.4771 L 476.207,-59.9857 L 476.18,-60.5 L 476.207,-61.0143 L 476.288,-61.5229 L 476.421,-62.0204
 L 476.605,-62.5011 L 476.839,-62.96 L 477.12,-63.3919 L 477.444,-63.7921 L 477.808,-64.1563 L 478.208,-64.4804
 L 478.55,-64.7024 L 478.55,-74 L 478.606,-74.5302 L 478.77,-75.0372 L 479.037,-75.4988 L 479.394,-75.895
 L 479.825,-76.2084 L 480.312,-76.4252 L 480.833,-76.536 L 481.367,-76.536 L 481.888,-76.4252 L 482.375,-76.2084
 L 482.806,-75.895 L 483.163,-75.4988 L 483.43,-75.0372 L 483.594,-74.5302 L 483.65,-74 L 483.65,-64.7024
 L 483.992,-64.4804 L 484.392,-64.1563 L 484.756,-63.7921 L 485.08,-63.3919 L 485.361,-62.96 L 485.595,-62.5011
 L 485.779,-62.0204 L 485.912,-61.5229 L 485.993,-61.0143 L 486.02,-60.5 L 485.993,-59.9857 L 485.912,-59.4771
 L 485.779,-58.9796 L 485.595,-58.4989 L 485.361,-58.04 L 485.08,-57.6081 L 484.756,-57.2079 L 484.392,-56.8437
 L 483.992,-56.5196 L 483.56,-56.2392 L 483.101,-56.0054 L 482.62,-55.8208 L 482.123,-55.6875 L 481.614,-55.607
 L 481.1,-55.58 z
M 598.986,-55.607 L 598.477,-55.6875 L 597.98,-55.8208 L 597.499,-56.0054 L 597.04,-56.2392 L 596.608,-56.5196
 L 596.208,-56.8437 L 595.844,-57.2079 L 595.52,-57.6081 L 595.239,-58.04 L 595.005,-58.4989 L 594.821,-58.9796
 L 594.688,-59.4771 L 594.607,-59.9857 L 594.58,-60.5 L 594.607,-61.0143 L 594.688,-61.5229 L 594.821,-62.0204
 L 595.005,-62.5011 L 595.239,-62.96 L 595.52,-63.3919 L 595.844,-63.7921 L 596.208,-64.1563 L 596.608,-64.4804
 L 596.95,-64.7024 L 596.95,-74 L 597.006,-74.5302 L 597.17,-75.0372 L 597.437,-75.4988 L 597.794,-75.895
 L 598.225,-76.2084 L 598.712,-76.4252 L 599.233,-76.536 L 599.767,-76.536 L 600.288,-76.4252 L 600.775,-76.2084
 L 601.206,-75.895 L 601.563,-75.4988 L 601.83,-75.0372 L 601.994,-74.5302 L 602.05,-74 L 602.05,-64.7024
 L 602.392,-64.4804 L 602.792,-64.1563 L 603.156,-63.7921 L 603.48,-63.3919 L 603.761,-62.96 L 603.995,-62.5011
 L 604.179,-62.0204 L 604.312,-61.5229 L 604.393,-61.0143 L 604.42,-60.5 L 604.393,-59.9857 L 604.312,-59.4771
 L 604.179,-58.9796 L 603.995,-58.4989 L 603.761,-58.04 L 603.48,-57.6081 L 603.156,-57.2079 L 602.792,-56.8437
 L 602.392,-56.5196 L 601.96,-56.2392 L 601.501,-56.0054 L 601.02,-55.8208 L 600.523,-55.6875 L 600.014,-55.607
 L 599.5,-55.58 z
M 302.273,-48.878 L 301.508,-49.2164 L 292.254,-54.5314 L 291.895,-54.7639 L 291.273,-55.3235 L 290.782,-56
 L 290.442,-56.7639 L 290.268,-57.5819 L 290.268,-58.4181 L 290.442,-59.2361 L 290.782,-60 L 291.273,-60.6765
 L 291.895,-61.2361 L 292.619,-61.6542 L 293.414,-61.9126 L 294.246,-62 L 312.754,-62 L 313.181,-61.9771
 L 313.999,-61.8014 L 314.762,-61.4595 L 315.438,-60.9665 L 315.996,-60.3438 L 316.412,-59.6186 L 316.669,-58.8228
 L 316.754,-57.9909 L 316.665,-57.1595 L 316.405,-56.3648 L 315.985,-55.6415 L 315.424,-55.0213 L 314.746,-54.5314
 L 305.492,-49.2164 L 304.745,-48.8837 L 303.927,-48.7079 L 303.091,-48.706 z
M 230.073,-24.6506 L 229.308,-24.989 L 177.869,-54.5314 L 177.51,-54.7639 L 176.889,-55.3235 L 176.397,-56
 L 176.057,-56.7639 L 175.883,-57.5819 L 175.883,-58.4181 L 176.057,-59.2361 L 176.397,-60 L 176.889,-60.6765
 L 177.51,-61.2361 L 178.235,-61.6542 L 179.03,-61.9126 L 179.862,-62 L 231.3,-62 L 232.536,-61.8042
 L 233.3,-61.4641 L 233.977,-60.9726 L 234.536,-60.3511 L 234.954,-59.627 L 235.213,-58.8316 L 235.3,-58
 L 235.3,-28.4576 L 235.214,-27.6349 L 234.958,-26.839 L 234.541,-26.1139 L 233.983,-25.4911 L 233.308,-24.9981
 L 232.545,-24.6562 L 231.727,-24.4805 L 230.891,-24.4786 z
M 493.673,-24.4805 L 492.855,-24.6562 L 492.092,-24.9981 L 491.417,-25.4911 L 490.859,-26.1139 L 490.442,-26.839
 L 490.186,-27.6349 L 490.1,-28.4576 L 490.1,-58 L 490.187,-58.8316 L 490.446,-59.627 L 490.864,-60.3511
 L 491.423,-60.9726 L 492.1,-61.4641 L 492.864,-61.8042 L 494.1,-62 L 545.538,-62 L 546.37,-61.9126
 L 547.165,-61.6542 L 547.89,-61.2361 L 548.511,-60.6765 L 549.003,-60 L 549.343,-59.2361 L 549.517,-58.4181
 L 549.517,-57.5819 L 549.343,-56.7639 L 549.003,-56 L 548.511,-55.3235 L 547.89,-54.7639 L 547.531,-54.5314
 L 496.092,-24.989 L 495.327,-24.6506 L 494.509,-24.4786 z
M 111.673,-24.6506 L 110.908,-24.989 L 59.4694,-54.5314 L 59.1104,-54.7639 L 58.489,-55.3235 L 57.9974,-56
 L 57.6573,-56.7639 L 57.4834,-57.5819 L 57.4834,-58.4181 L 57.6573,-59.2361 L 57.9974,-60 L 58.489,-60.6765
 L 59.1104,-61.2361 L 59.8346,-61.6542 L 60.6299,-61.9126 L 61.4615,-62 L 112.9,-62 L 114.136,-61.8042
 L 114.9,-61.4641 L 115.577,-60.9726 L 116.136,-60.3511 L 116.554,-59.627 L 116.813,-58.8316 L 116.9,-58
 L 116.9,-28.4576 L 116.814,-27.6349 L 116.558,-26.839 L 116.141,-26.1139 L 115.583,-25.4911 L 114.908,-24.9981
 L 114.145,-24.6562 L 113.327,-24.4805 L 112.491,-24.4786 z
M 375.273,-24.4805 L 374.455,-24.6562 L 373.692,-24.9981 L 373.017,-25.4911 L 372.459,-26.1139 L 372.042,-26.839
 L 371.786,-27.6349 L 371.7,-28.4576 L 371.7,-58 L 371.787,-58.8316 L 372.046,-59.627 L 372.464,-60.3511
 L 373.023,-60.9726 L 373.7,-61.4641 L 374.464,-61.8042 L 375.7,-62 L 427.138,-62 L 427.97,-61.9126
 L 428.765,-61.6542 L 429.49,-61.2361 L 430.111,-60.6765 L 430.603,-60 L 430.943,-59.2361 L 431.117,-58.4181
 L 431.117,-57.5819 L 430.943,-56.7639 L 430.603,-56 L 430.111,-55.3235 L 429.49,-54.7639 L 429.131,-54.5314
 L 377.692,-24.989 L 376.927,-24.6506 L 376.109,-24.4786 z
M 256.882,-22.1732 L 256.064,-22.3471 L 255.3,-22.6872 L 254.623,-23.1787 L 254.064,-23.8002 L 253.646,-24.5243
 L 253.387,-25.3196 L 253.3,-26.1513 L 253.3,-53.8487 L 253.386,-54.6715 L 253.642,-55.4673 L 254.059,-56.1925
 L 254.617,-56.8152 L 255.292,-57.3083 L 256.055,-57.6501 L 256.873,-57.8258 L 257.709,-57.8277 L 258.527,-57.6557
 L 259.292,-57.3174 L 283.405,-43.4686 L 284.096,-42.9665 L 284.654,-42.3438 L 285.071,-41.6186 L 285.328,-40.8228
 L 285.413,-39.9909 L 285.324,-39.1595 L 285.064,-38.3647 L 284.644,-37.6415 L 284.083,-37.0213 L 283.405,-36.5314
 L 259.292,-22.6826 L 258.536,-22.3471 L 257.718,-22.1732 z
M 348.473,-22.3443 L 347.708,-22.6826 L 323.595,-36.5314 L 322.904,-37.0335 L 322.346,-37.6562 L 321.929,-38.3814
 L 321.672,-39.1772 L 321.587,-40.0091 L 321.676,-40.8405 L 321.936,-41.6352 L 322.356,-42.3585 L 322.917,-42.9787
 L 323.595,-43.4686 L 347.708,-57.3174 L 348.464,-57.653 L 349.282,-57.8268 L 350.118,-57.8268 L 350.936,-57.653
 L 351.7,-57.3128 L 352.377,-56.8213 L 352.936,-56.1999 L 353.354,-55.4757 L 353.613,-54.6804 L 353.7,-53.8487
 L 353.7,-26.1513 L 353.614,-25.3285 L 353.358,-24.5326 L 352.941,-23.8075 L 352.383,-23.1848 L 351.708,-22.6917
 L 350.945,-22.3499 L 350.127,-22.1741 L 349.291,-22.1722 z
M 138.9,-18 L 137.664,-18.1958 L 136.9,-18.5359 L 136.223,-19.0274 L 135.664,-19.6489 L 135.246,-20.373
 L 134.987,-21.1684 L 134.9,-22 L 134.9,-51.5423 L 134.986,-52.3651 L 135.242,-53.161 L 135.659,-53.8861
 L 136.217,-54.5088 L 136.892,-55.0019 L 137.655,-55.3438 L 138.473,-55.5195 L 139.309,-55.5214 L 140.127,-55.3494
 L 140.892,-55.011 L 192.331,-25.4686 L 192.69,-25.2361 L 193.311,-24.6765 L 193.803,-24 L 194.143,-23.2361
 L 194.317,-22.4181 L 194.317,-21.5819 L 194.143,-20.7639 L 193.803,-20 L 193.311,-19.3235 L 192.69,-18.7639
 L 191.965,-18.3458 L 191.17,-18.0874 L 190.338,-18 z
M 416.662,-18 L 415.83,-18.0874 L 415.035,-18.3458 L 414.31,-18.7639 L 413.689,-19.3235 L 413.197,-20
 L 412.857,-20.7639 L 412.683,-21.5819 L 412.683,-22.4181 L 412.857,-23.2361 L 413.197,-24 L 413.689,-24.6765
 L 414.31,-25.2361 L 414.669,-25.4686 L 466.108,-55.011 L 466.873,-55.3494 L 467.691,-55.5214 L 468.527,-55.5195
 L 469.345,-55.3438 L 470.108,-55.0019 L 470.783,-54.5088 L 471.341,-53.8861 L 471.758,-53.161 L 472.014,-52.3651
 L 472.1,-51.5423 L 472.1,-22 L 472.013,-21.1684 L 471.754,-20.373 L 471.336,-19.6489 L 470.777,-19.0274
 L 470.1,-18.5359 L 469.336,-18.1958 L 468.1,-18 z
M 22,-18 L 20.7639,-18.1958 L 20,-18.5359 L 19.3235,-19.0274 L 18.7639,-19.6489 L 18.3458,-20.373
 L 18.0874,-21.1684 L 18,-22 L 18,-50.6809 L 18.0855,-51.5036 L 18.3421,-52.2995 L 18.7586,-53.0246
 L 19.3167,-53.6474 L 19.9921,-54.1404 L 20.7553,-54.4823 L 21.5728,-54.658 L 22.4091,-54.6599 L 23.2274,-54.4879
 L 23.9921,-54.1495 L 73.9306,-25.4686 L 74.2896,-25.2361 L 74.911,-24.6765 L 75.4025,-24 L 75.7427,-23.2361
 L 75.9165,-22.4181 L 75.9165,-21.5819 L 75.7427,-20.7639 L 75.4025,-20 L 74.911,-19.3235 L 74.2896,-18.7639
 L 73.5654,-18.3458 L 72.7701,-18.0874 L 71.9384,-18 z
M 535.062,-18 L 534.23,-18.0874 L 533.435,-18.3458 L 532.71,-18.7639 L 532.089,-19.3235 L 531.597,-20
 L 531.257,-20.7639 L 531.083,-21.5819 L 531.083,-22.4181 L 531.257,-23.2361 L 531.597,-24 L 532.089,-24.6765
 L 532.71,-25.2361 L 533.069,-25.4686 L 583.008,-54.1495 L 583.773,-54.4879 L 584.591,-54.6599 L 585.427,-54.658
 L 586.245,-54.4823 L 587.008,-54.1404 L 587.683,-53.6474 L 588.241,-53.0246 L 588.658,-52.2995 L 588.914,-51.5036
 L 589,-50.6809 L 589,-22 L 588.913,-21.1684 L 588.654,-20.373 L 588.236,-19.6489 L 587.677,-19.0274
 L 587,-18.5359 L 586.236,-18.1958 L 585,-18 z
M 294.246,-18 L 293.819,-18.0229 L 293.001,-18.1986 L 292.238,-18.5405 L 291.562,-19.0335 L 291.004,-19.6562
 L 290.588,-20.3814 L 290.331,-21.1772 L 290.246,-22.0091 L 290.335,-22.8405 L 290.595,-23.6352 L 291.015,-24.3585
 L 291.576,-24.9787 L 292.254,-25.4686 L 301.508,-30.7836 L 302.255,-31.1163 L 303.073,-31.2921 L 303.909,-31.294
 L 304.727,-31.122 L 305.492,-30.7836 L 314.746,-25.4686 L 315.105,-25.2361 L 315.727,-24.6765 L 316.218,-24
 L 316.558,-23.2361 L 316.732,-22.4181 L 316.732,-21.5819 L 316.558,-20.7639 L 316.218,-20 L 315.727,-19.3235
 L 315.105,-18.7639 L 314.381,-18.3458 L 313.586,-18.0874 L 312.754,-18 z
" stroke="black" fill="lightgray" stroke-width="0.5"/>
</svg>
