<?xml version="1.0" standalone="no"?>
<!DOCTYPE svg PUBLIC "-//W3C//DTD SVG 1.1//EN" "http://www.w3.org/Graphics/SVG/1.1/DTD/svg11.dtd">
<svg width="528mm" height="80mm" viewBox="0 -80 528 80" xmlns="http://www.w3.org/2000/svg" version="1.1">
<title>OpenSCAD Model</title>
<path d="
M 528,-80 L 0,-80 L 0,-0 L 4.95,-0 L 4.95,-6 L 5.00572,-6.53017
 L 5.17046,-7.03717 L 5.437,-7.49884 L 5.79372,-7.895 L 6.22499,-8.20836 L 6.71201,-8.42519 L 7.23344,-8.53603
 L 7.76654,-8.53603 L 8.28798,-8.42519 L 8.77499,-8.20836 L 9.20627,-7.895 L 9.56299,-7.49884 L 9.82953,-7.03717
 L 9.99426,-6.53017 L 10.05,-6 L 10.05,-0 L 133.2,-0 L 133.2,-6 L 133.256,-6.53017
 L 133.42,-7.03717 L 133.687,-7.49884 L 134.044,-7.895 L 134.475,-8.20836 L 134.962,-8.42519 L 135.483,-8.53603
 L 136.017,-8.53603 L 136.538,-8.42519 L 137.025,-8.20836 L 137.456,-7.895 L 137.813,-7.49884 L 138.08,-7.03717
 L 138.244,-6.53017 L 138.3,-6 L 138.3,-0 L 261.45,-0 L 261.45,-6 L 261.506,-6.53017
 L 261.67,-7.03717 L 261.937,-7.49884 L 262.294,-7.895 L 262.725,-8.20836 L 263.212,-8.42519 L 263.733,-8.53603
 L 264.267,-8.53603 L 264.788,-8.42519 L 265.275,-8.20836 L 265.706,-7.895 L 266.063,-7.49884 L 266.33,-7.03717
 L 266.494,-6.53017 L 266.55,-6 L 266.55,-0 L 389.7,-0 L 389.7,-6 L 389.756,-6.53017
 L 389.92,-7.03717 L 390.187,-7.49884 L 390.544,-7.895 L 390.975,-8.20836 L 391.462,-8.42519 L 391.983,-8.53603
 L 392.517,-8.53603 L 393.038,-8.42519 L 393.525,-8.20836 L 393.956,-7.895 L 394.313,-7.49884 L 394.58,-7.03717
 L 394.744,-6.53017 L 394.8,-6 L 394.8,-0 L 517.95,-0 L 517.95,-6 L 518.006,-6.53017
 L 518.17,-7.03717 L 518.437,-7.49884 L 518.794,-7.895 L 519.225,-8.20836 L 519.712,-8.42519 L 520.233,-8.53603
 L 520.767,-8.53603 L 521.288,-8.42519 L 521.775,-8.20836 L 522.206,-7.895 L 522.563,-7.49884 L 522.83,-7.03717
 L 522.994,-6.53017 L 523.05,-6 L 523.05,-0 L 528,-0 z
M 6.98573,-55.607 L 6.47708,-55.6875 L 5.97964,-55.8208 L 5.49887,-56.0054 L 5.04001,-56.2392 L 4.60811,-56.5196
 L 4.20789,-56.8437 L 3.84373,-57.2079 L 3.51964,-57.6081 L 3.23917,-58.04 L 3.00537,-58.4989 L 2.82082,-58.9796
 L 2.68752,-59.4771 L 2.60696,-59.9857 L 2.58,-60.5 L 2.60696,-61.0143 L 2.68752,-61.5229 L 2.82082,-62.0204
 L 3.00537,-62.5011 L 3.23917,-62.96 L 3.51964,-63.3919 L 3.84373,-63.7921 L 4.20789,-64.1563 L 4.60811,-64.4804
 L 4.95001,-64.7024 L 4.95001,-74 L 5.00574,-74.5302 L 5.17047,-75.0372 L 5.43701,-75.4988 L 5.79373,-75.895
 L 6.22501,-76.2084 L 6.71202,-76.4252 L 7.23346,-76.536 L 7.76654,-76.536 L 8.28798,-76.4252 L 8.77499,-76.2084
 L 9.20627,-75.895 L 9.56299,-75.4988 L 9.82953,-75.0372 L 9.99426,-74.5302 L 10.05,-74 L 10.05,-64.7024
 L 10.3919,-64.4804 L 10.7921,-64.1563 L 11.1563,-63.7921 L 11.4804,-63.3919 L 11.7608,-62.96 L 11.9946,-62.5011
 L 12.1792,-62.0204 L 12.3125,-61.5229 L 12.393,-61.0143 L 12.42,-60.5 L 12.393,-59.9857 L 12.3125,-59.4771
 L 12.1792,-58.9796 L 11.9946,-58.4989 L 11.7608,-58.04 L 11.4804,-57.6081 L 11.1563,-57.2079 L 10.7921,-56.8437
 L 10.3919,-56.5196 L 9.95999,-56.2392 L 9.50113,-56.0054 L 9.02036,-55.8208 L 8.52292,-55.6875 L 8.01427,-55.607
 L 7.5,-55.58 z
M 135.236,-55.607 L 134.727,-55.6875 L 134.23,-55.8208 L 133.749,-56.0054 L 133.29,-56.2392 L 132.858,-56.5196
 L 132.458,-56.8437 L 132.094,-57.2079 L 131.77,-57.6081 L 131.489,-58.04 L 131.255,-58.4989 L 131.071,-58.9796
 L 130.938,-59.4771 L 130.857,-59.9857 L 130.83,-60.5 L 130.857,-61.0143 L 130.938,-61.5229 L 131.071,-62.0204
 L 131.255,-62.5011 L 131.489,-62.96 L 131.77,-63.3919 L 132.094,-63.7921 L 132.458,-64.1563 L 132.858,-64.4804
 L 133.2,-64.7024 L 133.2,-74 L 133.256,-74.5302 L 133.42,-75.0372 L 133.687,-75.4988 L 134.044,-75.895
 L 134.475,-76.2084 L 134.962,-76.4252 L 135.483,-76.536 L 136.017,-76.536 L 136.538,-76.4252 L 137.025,-76.2084
 L 137.456,-75.895 L 137.813,-75.4988 L 138.08,-75.0372 L 138.244,-74.5302 L 138.3,-74 L 138.3,-64.7024
 L 138.642,-64.4804 L 139.042,-64.1563 L 139.406,-63.7921 L 139.73,-63.3919 L 140.011,-62.96 L 140.245,-62.5011
 L 140.429,-62.0204 L 140.562,-61.5229 L 140.643,-61.0143 L 140.67,-60.5 L 140.643,-59.9857 L 140.562,-59.4771
 L 140.429,-58.9796 L 140.245,-58.4989 L 140.011,-58.04 L 139.73,-57.6081 L 139.406,-57.2079 L 139.042,-56.8437
 L 138.642,-56.5196 L 138.21,-56.2392 L 137.751,-56.0054 L 137.27,-55.8208 L 136.773,-55.6875 L 136.264,-55.607
 L 135.75,-55.58 z
M 263.486,-55.607 L 262.977,-55.6875 L 262.48,-55.8208 L 261.999,-56.0054 L 261.54,-56.2392 L 261.108,-56.5196
 L 260.708,-56.8437 L 260.344,-57.2079 L 260.02,-57.6081 L 259.739,-58.04 L 259.505,-58.4989 L 259.321,-58.9796
 L 259.188,-59.4771 L 259.107,-59.9857 L 259.08,-60.5 L 259.107,-61.0143 L 259.188,-61.5229 L 259.321,-62.0204
 L 259.505,-62.5011 L 259.739,-62.96 L 260.02,-63.3919 L 260.344,-63.7921 L 260.708,-64.1563 L 261.108,-64.4804
 L 261.45,-64.7024 L 261.45,-74 L 261.506,-74.5302 L 261.67,-75.0372 L 261.937,-75.4988 L 262.294,-75.895
 L 262.725,-76.2084 L 263.212,-76.4252 L 263.733,-76.536 L 264.267,-76.536 L 264.788,-76.4252 L 265.275,-76.2084
 L 265.706,-75.895 L 266.063,-75.4988 L 266.33,-75.0372 L 266.494,-74.5302 L 266.55,-74 L 266.55,-64.7024
 L 266.892,-64.4804 L 267.292,-64.1563 L 267.656,-63.7921 L 267.98,-63.3919 L 268.261,-62.96 L 268.495,-62.5011
 L 268.679,-62.0204 L 268.812,-61.5229 L 268.893,-61.0143 L 268.92,-60.5 L 268.893,-59.9857 L 268.812,-59.4771
 L 268.679,-58.9796 L 268.495,-58.4989 L 268.261,-58.04 L 267.98,-57.6081 L 267.656,-57.2079 L 267.292,-56.8437
 L 266.892,-56.5196 L 266.46,-56.2392 L 266.001,-56.0054 L 265.52,-55.8208 L 265.023,-55.6875 L 264.514,-55.607
 L 264,-55.58 z
M 391.736,-55.607 L 391.227,-55.6875 L 390.73,-55.8208 L 390.249,-56.0054 L 389.79,-56.2392 L 389.358,-56.5196
 L 388.958,-56.8437 L 388.594,-57.2079 L 388.27,-57.6081 L 387.989,-58.04 L 387.755,-58.4989 L 387.571,-58.9796
 L 387.438,-59.4771 L 387.357,-59.9857 L 387.33,-60.5 L 387.357,-61.0143 L 387.438,-61.5229 L 387.571,-62.0204
 L 387.755,-62.5011 L 387.989,-62.96 L 388.27,-63.3919 L 388.594,-63.7921 L 388.958,-64.1563 L 389.358,-64.4804
 L 389.7,-64.7024 L 389.7,-74 L 389.756,-74.5302 L 389.92,-75.0372 L 390.187,-75.4988 L 390.544,-75.895
 L 390.975,-76.2084 L 391.462,-76.4252 L 391.983,-76.536 L 392.517,-76.536 L 393.038,-76.4252 L 393.525,-76.2084
 L 393.956,-75.895 L 394.313,-75.4988 L 394.58,-75.0372 L 394.744,-74.5302 L 394.8,-74 L 394.8,-64.7024
 L 395.142,-64.4804 L 395.542,-64.1563 L 395.906,-63.7921 L 396.23,-63.3919 L 396.511,-62.96 L 396.745,-62.5011
 L 396.929,-62.0204 L 397.062,-61.5229 L 397.143,-61.0143 L 397.17,-60.5 L 397.143,-59.9857 L 397.062,-59.4771
 L 396.929,-58.9796 L 396.745,-58.4989 L 396.511,-58.04 L 396.23,-57.6081 L 395.906,-57.2079 L 395.542,-56.8437
 L 395.142,-56.5196 L 394.71,-56.2392 L 394.251,-56.0054 L 393.77,-55.8208 L 393.273,-55.6875 L 392.764,-55.607
 L 392.25,-55.58 z
M 519.986,-55.607 L 519.477,-55.6875 L 518.98,-55.8208 L 518.499,-56.0054 L 518.04,-56.2392 L 517.608,-56.5196
 L 517.208,-56.8437 L 516.844,-57.2079 L 516.52,-57.6081 L 516.239,-58.04 L 516.005,-58.4989 L 515.821,-58.9796
 L 515.688,-59.4771 L 515.607,-59.9857 L 515.58,-60.5 L 515.607,-61.0143 L 515.688,-61.5229 L 515.821,-62.0204
 L 516.005,-62.5011 L 516.239,-62.96 L 516.52,-63.3919 L 516.844,-63.7921 L 517.208,-64.1563 L 517.608,-64.4804
 L 517.95,-64.7024 L 517.95,-74 L 518.006,-74.5302 L 518.17,-75.0372 L 518.437,-75.4988 L 518.794,-75.895
 L 519.225,-76.2084 L 519.712,-76.4252 L 520.233,-76.536 L 520.767,-76.536 L 521.288,-76.4252 L 521.775,-76.2084
 L 522.206,-75.895 L 522.563,-75.4988 L 522.83,-75.0372 L 522.994,-74.5302 L 523.05,-74 L 523.05,-64.7024
 L 523.392,-64.4804 L 523.792,-64.1563 L 524.156,-63.7921 L 524.48,-63.3919 L 524.761,-62.96 L 524.995,-62.5011
 L 525.179,-62.0204 L 525.312,-61.5229 L 525.393,-61.0143 L 525.42,-60.5 L 525.393,-59.9857 L 525.312,-59.4771
 L 525.179,-58.9796 L 524.995,-58.4989 L 524.761,-58.04 L 524.48,-57.6081 L 524.156,-57.2079 L 523.792,-56.8437
 L 523.392,-56.5196 L 522.96,-56.2392 L 522.501,-56.0054 L 522.02,-55.8208 L 521.523,-55.6875 L 521.014,-55.607
 L 520.5,-55.58 z
M 276.439,-23.6371 L 275.628,-23.8403 L 274.876,-24.2078 L 274.218,-24.7234 L 273.681,-25.3646 L 273.29,-26.1034
 L 273.06,-26.9075 L 273,-27.5975 L 273,-58 L 273.087,-58.8316 L 273.346,-59.627 L 273.764,-60.3511
 L 274.323,-60.9726 L 275,-61.4641 L 275.764,-61.8042 L 277,-62 L 334.34,-62 L 335.172,-61.9126
 L 335.967,-61.6542 L 336.691,-61.2361 L 337.313,-60.6765 L 337.804,-60 L 338.144,-59.2361 L 338.318,-58.4181
 L 338.318,-57.5819 L 338.144,-56.7639 L 337.804,-56 L 337.313,-55.3235 L 336.691,-54.7639 L 336.214,-54.466
 L 278.874,-24.0635 L 278.098,-23.7512 L 277.274,-23.6069 z
M 249.902,-23.7512 L 249.126,-24.0635 L 191.786,-54.466 L 191.309,-54.7639 L 190.687,-55.3235 L 190.196,-56
 L 189.856,-56.7639 L 189.682,-57.5819 L 189.682,-58.4181 L 189.856,-59.2361 L 190.196,-60 L 190.687,-60.6765
 L 191.309,-61.2361 L 192.033,-61.6542 L 192.828,-61.9126 L 193.66,-62 L 251,-62 L 252.236,-61.8042
 L 253,-61.4641 L 253.677,-60.9726 L 254.236,-60.3511 L 254.654,-59.627 L 254.913,-58.8316 L 255,-58
 L 255,-27.5975 L 254.94,-26.9075 L 254.71,-26.1034 L 254.319,-25.3646 L 253.782,-24.7234 L 253.124,-24.2078
 L 252.372,-23.8403 L 251.561,-23.6371 L 250.726,-23.6069 z
M 404.689,-23.6371 L 403.878,-23.8403 L 403.126,-24.2078 L 402.468,-24.7234 L 401.931,-25.3646 L 401.54,-26.1034
 L 401.31,-26.9075 L 401.25,-27.5975 L 401.25,-58 L 401.337,-58.8316 L 401.596,-59.627 L 402.014,-60.3511
 L 402.573,-60.9726 L 403.25,-61.4641 L 404.014,-61.8042 L 405.25,-62 L 462.59,-62 L 463.422,-61.9126
 L 464.217,-61.6542 L 464.941,-61.2361 L 465.563,-60.6765 L 466.054,-60 L 466.394,-59.2361 L 466.568,-58.4181
 L 466.568,-57.5819 L 466.394,-56.7639 L 466.054,-56 L 465.563,-55.3235 L 464.941,-54.7639 L 464.464,-54.466
 L 407.124,-24.0635 L 406.348,-23.7512 L 405.524,-23.6069 z
M 121.652,-23.7512 L 120.876,-24.0635 L 63.5362,-54.466 L 63.0589,-54.7639 L 62.4374,-55.3235 L 61.9459,-56
 L 61.6058,-56.7639 L 61.4319,-57.5819 L 61.4319,-58.4181 L 61.6058,-59.2361 L 61.9459,-60 L 62.4374,-60.6765
 L 63.0589,-61.2361 L 63.783,-61.6542 L 64.5783,-61.9126 L 65.41,-62 L 122.75,-62 L 123.986,-61.8042
 L 124.75,-61.4641 L 125.427,-60.9726 L 125.986,-60.3511 L 126.404,-59.627 L 126.663,-58.8316 L 126.75,-58
 L 126.75,-27.5975 L 126.69,-26.9075 L 126.46,-26.1034 L 126.069,-25.3646 L 125.532,-24.7234 L 124.874,-24.2078
 L 124.122,-23.8403 L 123.311,-23.6371 L 122.476,-23.6069 z
M 321.91,-18 L 321.078,-18.0874 L 320.283,-18.3458 L 319.559,-18.7639 L 318.937,-19.3235 L 318.446,-20
 L 318.106,-20.7639 L 317.932,-21.5819 L 317.932,-22.4181 L 318.106,-23.2361 L 318.446,-24 L 318.937,-24.6765
 L 319.559,-25.2361 L 320.036,-25.534 L 377.376,-55.9365 L 378.152,-56.2488 L 378.976,-56.3931 L 379.811,-56.3629
 L 380.622,-56.1597 L 381.374,-55.7922 L 382.032,-55.2766 L 382.569,-54.6354 L 382.96,-53.8966 L 383.19,-53.0925
 L 383.25,-52.4025 L 383.25,-22 L 383.163,-21.1684 L 382.904,-20.373 L 382.486,-19.6489 L 381.927,-19.0274
 L 381.25,-18.5359 L 380.486,-18.1958 L 379.25,-18 z
M 148.75,-18 L 147.514,-18.1958 L 146.75,-18.5359 L 146.073,-19.0274 L 145.514,-19.6489 L 145.096,-20.373
 L 144.837,-21.1684 L 144.75,-22 L 144.75,-52.4025 L 144.81,-53.0925 L 145.04,-53.8966 L 145.431,-54.6354
 L 145.968,-55.2766 L 146.626,-55.7922 L 147.378,-56.1597 L 148.189,-56.3629 L 149.024,-56.3931 L 149.848,-56.2488
 L 150.624,-55.9365 L 207.964,-25.534 L 208.441,-25.2361 L 209.063,-24.6765 L 209.554,-24 L 209.894,-23.2361
 L 210.068,-22.4181 L 210.068,-21.5819 L 209.894,-20.7639 L 209.554,-20 L 209.063,-19.3235 L 208.441,-18.7639
 L 207.717,-18.3458 L 206.922,-18.0874 L 206.09,-18 z
M 22,-18 L 20.7639,-18.1958 L 20,-18.5359 L 19.3235,-19.0274 L 18.7639,-19.6489 L 18.3458,-20.373
 L 18.0874,-21.1684 L 18,-22 L 18,-51.6072 L 18.06,-52.2972 L 18.2895,-53.1013 L 18.6812,-53.8401
 L 19.218,-54.4813 L 19.8764,-54.9969 L 20.6275,-55.3643 L 21.4387,-55.5676 L 22.2744,-55.5977 L 23.0981,-55.4535
 L 23.8738,-55.1411 L 79.7138,-25.534 L 80.1911,-25.2361 L 80.8126,-24.6765 L 81.3041,-24 L 81.6442,-23.2361
 L 81.8181,-22.4181 L 81.8181,-21.5819 L 81.6442,-20.7639 L 81.3041,-20 L 80.8126,-19.3235 L 80.1911,-18.7639
 L 79.4669,-18.3458 L 78.6716,-18.0874 L 77.84,-18 z
M 450.16,-18 L 449.328,-18.0874 L 448.533,-18.3458 L 447.809,-18.7639 L 447.187,-19.3235 L 446.696,-20
 L 446.356,-20.7639 L 446.182,-21.5819 L 446.182,-22.4181 L 446.356,-23.2361 L 446.696,-24 L 447.187,-24.6765
 L 447.809,-25.2361 L 448.286,-25.534 L 504.126,-55.1411 L 504.902,-55.4535 L 505.726,-55.5977 L 506.561,-55.5676
 L 507.372,-55.3643 L 508.124,-54.9969 L 508.782,-54.4813 L 509.319,-53.8401 L 509.71,-53.1013 L 509.94,-52.2972
 L 510,-51.6072 L 510,-22 L 509.913,-21.1684 L 509.654,-20.373 L 509.236,-19.6489 L 508.677,-19.0274
 L 508,-18.5359 L 507.236,-18.1958 L 506,-18 z
" stroke="black" fill="lightgray" stroke-width="0.5"/>
</svg>
