<?xml version="1.0" standalone="no"?>
<!DOCTYPE svg PUBLIC "-//W3C//DTD SVG 1.1//EN" "http://www.w3.org/Graphics/SVG/1.1/DTD/svg11.dtd">
<svg width="540mm" height="80mm" viewBox="0 -80 540 80" xmlns="http://www.w3.org/2000/svg" version="1.1">
<title>OpenSCAD Model</title>
<path d="
M 540,-80 L 0,-80 L 0,-0 L 4.95,-0 L 4.95,-6 L 5.00572,-6.53017
 L 5.17046,-7.03717 L 5.437,-7.49884 L 5.79372,-7.895 L 6.22499,-8.20836 L 6.71201,-8.42519 L 7.23344,-8.53603
 L 7.76654,-8.53603 L 8.28798,-8.42519 L 8.77499,-8.20836 L 9.20627,-7.895 L 9.56299,-7.49884 L 9.82953,-7.03717
 L 9.99426,-6.53017 L 10.05,-6 L 10.05,-0 L 136.2,-0 L 136.2,-6 L 136.256,-6.53017
 L 136.42,-7.03717 L 136.687,-7.49884 L 137.044,-7.895 L 137.475,-8.20836 L 137.962,-8.42519 L 138.483,-8.53603
 L 139.017,-8.53603 L 139.538,-8.42519 L 140.025,-8.20836 L 140.456,-7.895 L 140.813,-7.49884 L 141.08,-7.03717
 L 141.244,-6.53017 L 141.3,-6 L 141.3,-0 L 267.45,-0 L 267.45,-6 L 267.506,-6.53017
 L 267.67,-7.03717 L 267.937,-7.49884 L 268.294,-7.895 L 268.725,-8.20836 L 269.212,-8.42519 L 269.733,-8.53603
 L 270.267,-8.53603 L 270.788,-8.42519 L 271.275,-8.20836 L 271.706,-7.895 L 272.063,-7.49884 L 272.33,-7.03717
 L 272.494,-6.53017 L 272.55,-6 L 272.55,-0 L 398.7,-0 L 398.7,-6 L 398.756,-6.53017
 L 398.92,-7.03717 L 399.187,-7.49884 L 399.544,-7.895 L 399.975,-8.20836 L 400.462,-8.42519 L 400.983,-8.53603
 L 401.517,-8.53603 L 402.038,-8.42519 L 402.525,-8.20836 L 402.956,-7.895 L 403.313,-7.49884 L 403.58,-7.03717
 L 403.744,-6.53017 L 403.8,-6 L 403.8,-0 L 529.95,-0 L 529.95,-6 L 530.006,-6.53017
 L 530.17,-7.03717 L 530.437,-7.49884 L 530.794,-7.895 L 531.225,-8.20836 L 531.712,-8.42519 L 532.233,-8.53603
 L 532.767,-8.53603 L 533.288,-8.42519 L 533.775,-8.20836 L 534.206,-7.895 L 534.563,-7.49884 L 534.83,-7.03717
 L 534.994,-6.53017 L 535.05,-6 L 535.05,-0 L 540,-0 z
M 6.98573,-55.607 L 6.47708,-55.6875 L 5.97964,-55.8208 L 5.49887,-56.0054 L 5.04001,-56.2392 L 4.60811,-56.5196
 L 4.20789,-56.8437 L 3.84373,-57.2079 L 3.51964,-57.6081 L 3.23917,-58.04 L 3.00537,-58.4989 L 2.82082,-58.9796
 L 2.68752,-59.4771 L 2.60696,-59.9857 L 2.58,-60.5 L 2.60696,-61.0143 L 2.68752,-61.5229 L 2.82082,-62.0204
 L 3.00537,-62.5011 L 3.23917,-62.96 L 3.51964,-63.3919 L 3.84373,-63.7921 L 4.20789,-64.1563 L 4.60811,-64.4804
 L 4.95001,-64.7024 L 4.95001,-74 L 5.00574,-74.5302 L 5.17047,-75.0372 L 5.43701,-75.4988 L 5.79373,-75.895
 L 6.22501,-76.2084 L 6.71202,-76.4252 L 7.23346,-76.536 L 7.76654,-76.536 L 8.28798,-76.4252 L 8.77499,-76.2084
 L 9.20627,-75.895 L 9.56299,-75.4988 L 9.82953,-75.0372 L 9.99426,-74.5302 L 10.05,-74 L 10.05,-64.7024
 L 10.3919,-64.4804 L 10.7921,-64.1563 L 11.1563,-63.7921 L 11.4804,-63.3919 L 11.7608,-62.96 L 11.9946,-62.5011
 L 12.1792,-62.0204 L 12.3125,-61.5229 L 12.393,-61.0143 L 12.42,-60.5 L 12.393,-59.9857 L 12.3125,-59.4771
 L 12.1792,-58.9796 L 11.9946,-58.4989 L 11.7608,-58.04 L 11.4804,-57.6081 L 11.1563,-57.2079 L 10.7921,-56.8437
 L 10.3919,-56.5196 L 9.95999,-56.2392 L 9.50113,-56.0054 L 9.02036,-55.8208 L 8.52292,-55.6875 L 8.01427,-55.607
 L 7.5,-55.58 z
M 138.236,-55.607 L 137.727,-55.6875 L 137.23,-55.8208 L 136.749,-56.0054 L 136.29,-56.2392 L 135.858,-56.5196
 L 135.458,-56.8437 L 135.094,-57.2079 L 134.77,-57.6081 L 134.489,-58.04 L 134.255,-58.4989 L 134.071,-58.9796
 L 133.938,-59.4771 L 133.857,-59.9857 L 133.83,-60.5 L 133.857,-61.0143 L 133.938,-61.5229 L 134.071,-62.0204
 L 134.255,-62.5011 L 134.489,-62.96 L 134.77,-63.3919 L 135.094,-63.7921 L 135.458,-64.1563 L 135.858,-64.4804
 L 136.2,-64.7024 L 136.2,-74 L 136.256,-74.5302 L 136.42,-75.0372 L 136.687,-75.4988 L 137.044,-75.895
 L 137.475,-76.2084 L 137.962,-76.4252 L 138.483,-76.536 L 139.017,-76.536 L 139.538,-76.4252 L 140.025,-76.2084
 L 140.456,-75.895 L 140.813,-75.4988 L 141.08,-75.0372 L 141.244,-74.5302 L 141.3,-74 L 141.3,-64.7024
 L 141.642,-64.4804 L 142.042,-64.1563 L 142.406,-63.7921 L 142.73,-63.3919 L 143.011,-62.96 L 143.245,-62.5011
 L 143.429,-62.0204 L 143.562,-61.5229 L 143.643,-61.0143 L 143.67,-60.5 L 143.643,-59.9857 L 143.562,-59.4771
 L 143.429,-58.9796 L 143.245,-58.4989 L 143.011,-58.04 L 142.73,-57.6081 L 142.406,-57.2079 L 142.042,-56.8437
 L 141.642,-56.5196 L 141.21,-56.2392 L 140.751,-56.0054 L 140.27,-55.8208 L 139.773,-55.6875 L 139.264,-55.607
 L 138.75,-55.58 z
M 269.486,-55.607 L 268.977,-55.6875 L 268.48,-55.8208 L 267.999,-56.0054 L 267.54,-56.2392 L 267.108,-56.5196
 L 266.708,-56.8437 L 266.344,-57.2079 L 266.02,-57.6081 L 265.739,-58.04 L 265.505,-58.4989 L 265.321,-58.9796
 L 265.188,-59.4771 L 265.107,-59.9857 L 265.08,-60.5 L 265.107,-61.0143 L 265.188,-61.5229 L 265.321,-62.0204
 L 265.505,-62.5011 L 265.739,-62.96 L 266.02,-63.3919 L 266.344,-63.7921 L 266.708,-64.1563 L 267.108,-64.4804
 L 267.45,-64.7024 L 267.45,-74 L 267.506,-74.5302 L 267.67,-75.0372 L 267.937,-75.4988 L 268.294,-75.895
 L 268.725,-76.2084 L 269.212,-76.4252 L 269.733,-76.536 L 270.267,-76.536 L 270.788,-76.4252 L 271.275,-76.2084
 L 271.706,-75.895 L 272.063,-75.4988 L 272.33,-75.0372 L 272.494,-74.5302 L 272.55,-74 L 272.55,-64.7024
 L 272.892,-64.4804 L 273.292,-64.1563 L 273.656,-63.7921 L 273.98,-63.3919 L 274.261,-62.96 L 274.495,-62.5011
 L 274.679,-62.0204 L 274.812,-61.5229 L 274.893,-61.0143 L 274.92,-60.5 L 274.893,-59.9857 L 274.812,-59.4771
 L 274.679,-58.9796 L 274.495,-58.4989 L 274.261,-58.04 L 273.98,-57.6081 L 273.656,-57.2079 L 273.292,-56.8437
 L 272.892,-56.5196 L 272.46,-56.2392 L 272.001,-56.0054 L 271.52,-55.8208 L 271.023,-55.6875 L 270.514,-55.607
 L 270,-55.58 z
M 400.736,-55.607 L 400.227,-55.6875 L 399.73,-55.8208 L 399.249,-56.0054 L 398.79,-56.2392 L 398.358,-56.5196
 L 397.958,-56.8437 L 397.594,-57.2079 L 397.27,-57.6081 L 396.989,-58.04 L 396.755,-58.4989 L 396.571,-58.9796
 L 396.438,-59.4771 L 396.357,-59.9857 L 396.33,-60.5 L 396.357,-61.0143 L 396.438,-61.5229 L 396.571,-62.0204
 L 396.755,-62.5011 L 396.989,-62.96 L 397.27,-63.3919 L 397.594,-63.7921 L 397.958,-64.1563 L 398.358,-64.4804
 L 398.7,-64.7024 L 398.7,-74 L 398.756,-74.5302 L 398.92,-75.0372 L 399.187,-75.4988 L 399.544,-75.895
 L 399.975,-76.2084 L 400.462,-76.4252 L 400.983,-76.536 L 401.517,-76.536 L 402.038,-76.4252 L 402.525,-76.2084
 L 402.956,-75.895 L 403.313,-75.4988 L 403.58,-75.0372 L 403.744,-74.5302 L 403.8,-74 L 403.8,-64.7024
 L 404.142,-64.4804 L 404.542,-64.1563 L 404.906,-63.7921 L 405.23,-63.3919 L 405.511,-62.96 L 405.745,-62.5011
 L 405.929,-62.0204 L 406.062,-61.5229 L 406.143,-61.0143 L 406.17,-60.5 L 406.143,-59.9857 L 406.062,-59.4771
 L 405.929,-58.9796 L 405.745,-58.4989 L 405.511,-58.04 L 405.23,-57.6081 L 404.906,-57.2079 L 404.542,-56.8437
 L 404.142,-56.5196 L 403.71,-56.2392 L 403.251,-56.0054 L 402.77,-55.8208 L 402.273,-55.6875 L 401.764,-55.607
 L 401.25,-55.58 z
M 531.986,-55.607 L 531.477,-55.6875 L 530.98,-55.8208 L 530.499,-56.0054 L 530.04,-56.2392 L 529.608,-56.5196
 L 529.208,-56.8437 L 528.844,-57.2079 L 528.52,-57.6081 L 528.239,-58.04 L 528.005,-58.4989 L 527.821,-58.9796
 L 527.688,-59.4771 L 527.607,-59.9857 L 527.58,-60.5 L 527.607,-61.0143 L 527.688,-61.5229 L 527.821,-62.0204
 L 528.005,-62.5011 L 528.239,-62.96 L 528.52,-63.3919 L 528.844,-63.7921 L 529.208,-64.1563 L 529.608,-64.4804
 L 529.95,-64.7024 L 529.95,-74 L 530.006,-74.5302 L 530.17,-75.0372 L 530.437,-75.4988 L 530.794,-75.895
 L 531.225,-76.2084 L 531.712,-76.4252 L 532.233,-76.536 L 532.767,-76.536 L 533.288,-76.4252 L 533.775,-76.2084
 L 534.206,-75.895 L 534.563,-75.4988 L 534.83,-75.0372 L 534.994,-74.5302 L 535.05,-74 L 535.05,-64.7024
 L 535.392,-64.4804 L 535.792,-64.1563 L 536.156,-63.7921 L 536.48,-63.3919 L 536.761,-62.96 L 536.995,-62.5011
 L 537.179,-62.0204 L 537.312,-61.5229 L 537.393,-61.0143 L 537.42,-60.5 L 537.393,-59.9857 L 537.312,-59.4771
 L 537.179,-58.9796 L 536.995,-58.4989 L 536.761,-58.04 L 536.48,-57.6081 L 536.156,-57.2079 L 535.792,-56.8437
 L 535.392,-56.5196 L 534.96,-56.2392 L 534.501,-56.0054 L 534.02,-55.8208 L 533.523,-55.6875 L 533.014,-55.607
 L 532.5,-55.58 z
M 282.401,-23.4063 L 281.592,-23.6172 L 280.844,-23.9918 L 280.191,-24.5136 L 279.66,-25.1599 L 279.275,-25.9024
 L 279.054,-26.7087 L 279,-27.3612 L 279,-58 L 279.087,-58.8316 L 279.346,-59.627 L 279.764,-60.3511
 L 280.323,-60.9726 L 281,-61.4641 L 281.764,-61.8042 L 283,-62 L 342.137,-62 L 342.969,-61.9126
 L 343.764,-61.6542 L 344.489,-61.2361 L 345.11,-60.6765 L 345.602,-60 L 345.942,-59.2361 L 346.116,-58.4181
 L 346.116,-57.5819 L 345.942,-56.7639 L 345.602,-56 L 345.11,-55.3235 L 344.489,-54.7639 L 343.978,-54.4484
 L 284.84,-23.8095 L 284.061,-23.5046 L 283.236,-23.3682 z
M 255.939,-23.5046 L 255.16,-23.8095 L 196.022,-54.4484 L 195.511,-54.7639 L 194.89,-55.3235 L 194.398,-56
 L 194.058,-56.7639 L 193.884,-57.5819 L 193.884,-58.4181 L 194.058,-59.2361 L 194.398,-60 L 194.89,-60.6765
 L 195.511,-61.2361 L 196.236,-61.6542 L 197.031,-61.9126 L 197.863,-62 L 257,-62 L 258.236,-61.8042
 L 259,-61.4641 L 259.677,-60.9726 L 260.236,-60.3511 L 260.654,-59.627 L 260.913,-58.8316 L 261,-58
 L 261,-27.3612 L 260.946,-26.7087 L 260.725,-25.9024 L 260.34,-25.1599 L 259.809,-24.5136 L 259.156,-23.9918
 L 258.408,-23.6172 L 257.599,-23.4063 L 256.764,-23.3682 z
M 413.651,-23.4063 L 412.842,-23.6172 L 412.094,-23.9918 L 411.441,-24.5136 L 410.91,-25.1599 L 410.525,-25.9024
 L 410.304,-26.7087 L 410.25,-27.3612 L 410.25,-58 L 410.337,-58.8316 L 410.596,-59.627 L 411.014,-60.3511
 L 411.573,-60.9726 L 412.25,-61.4641 L 413.014,-61.8042 L 414.25,-62 L 473.387,-62 L 474.219,-61.9126
 L 475.014,-61.6542 L 475.739,-61.2361 L 476.36,-60.6765 L 476.852,-60 L 477.192,-59.2361 L 477.366,-58.4181
 L 477.366,-57.5819 L 477.192,-56.7639 L 476.852,-56 L 476.36,-55.3235 L 475.739,-54.7639 L 475.228,-54.4484
 L 416.09,-23.8095 L 415.311,-23.5046 L 414.486,-23.3682 z
M 124.689,-23.5046 L 123.91,-23.8095 L 64.7725,-54.4484 L 64.2614,-54.7639 L 63.64,-55.3235 L 63.1485,-56
 L 62.8083,-56.7639 L 62.6345,-57.5819 L 62.6345,-58.4181 L 62.8083,-59.2361 L 63.1485,-60 L 63.64,-60.6765
 L 64.2614,-61.2361 L 64.9856,-61.6542 L 65.7809,-61.9126 L 66.6126,-62 L 125.75,-62 L 126.986,-61.8042
 L 127.75,-61.4641 L 128.427,-60.9726 L 128.986,-60.3511 L 129.404,-59.627 L 129.663,-58.8316 L 129.75,-58
 L 129.75,-27.3612 L 129.696,-26.7087 L 129.475,-25.9024 L 129.09,-25.1599 L 128.559,-24.5136 L 127.906,-23.9918
 L 127.158,-23.6172 L 126.349,-23.4063 L 125.514,-23.3682 z
M 329.113,-18 L 328.281,-18.0874 L 327.486,-18.3458 L 326.761,-18.7639 L 326.14,-19.3235 L 325.648,-20
 L 325.308,-20.7639 L 325.134,-21.5819 L 325.134,-22.4181 L 325.308,-23.2361 L 325.648,-24 L 326.14,-24.6765
 L 326.761,-25.2361 L 327.272,-25.5516 L 386.41,-56.1904 L 387.189,-56.4954 L 388.014,-56.6318 L 388.849,-56.5937
 L 389.658,-56.3828 L 390.406,-56.0082 L 391.059,-55.4863 L 391.59,-54.8401 L 391.975,-54.0976 L 392.196,-53.2913
 L 392.25,-52.6388 L 392.25,-22 L 392.163,-21.1684 L 391.904,-20.373 L 391.486,-19.6489 L 390.927,-19.0274
 L 390.25,-18.5359 L 389.486,-18.1958 L 388.25,-18 z
M 151.75,-18 L 150.514,-18.1958 L 149.75,-18.5359 L 149.073,-19.0274 L 148.514,-19.6489 L 148.096,-20.373
 L 147.837,-21.1684 L 147.75,-22 L 147.75,-52.6388 L 147.804,-53.2913 L 148.025,-54.0976 L 148.41,-54.8401
 L 148.941,-55.4863 L 149.594,-56.0082 L 150.342,-56.3828 L 151.151,-56.5937 L 151.986,-56.6318 L 152.811,-56.4954
 L 153.59,-56.1904 L 212.728,-25.5516 L 213.239,-25.2361 L 213.86,-24.6765 L 214.352,-24 L 214.692,-23.2361
 L 214.866,-22.4181 L 214.866,-21.5819 L 214.692,-20.7639 L 214.352,-20 L 213.86,-19.3235 L 213.239,-18.7639
 L 212.514,-18.3458 L 211.719,-18.0874 L 210.887,-18 z
M 22,-18 L 20.7639,-18.1958 L 20,-18.5359 L 19.3235,-19.0274 L 18.7639,-19.6489 L 18.3458,-20.373
 L 18.0874,-21.1684 L 18,-22 L 18,-51.8617 L 18.0536,-52.5142 L 18.2755,-53.3204 L 18.6602,-54.0629
 L 19.1908,-54.7092 L 19.8442,-55.231 L 20.5919,-55.6056 L 21.4011,-55.8166 L 22.2364,-55.8547 L 23.0614,-55.7183
 L 23.8401,-55.4133 L 81.4775,-25.5516 L 81.9886,-25.2361 L 82.61,-24.6765 L 83.1015,-24 L 83.4417,-23.2361
 L 83.6155,-22.4181 L 83.6155,-21.5819 L 83.4417,-20.7639 L 83.1015,-20 L 82.61,-19.3235 L 81.9886,-18.7639
 L 81.2644,-18.3458 L 80.4691,-18.0874 L 79.6374,-18 z
M 460.363,-18 L 459.531,-18.0874 L 458.736,-18.3458 L 458.011,-18.7639 L 457.39,-19.3235 L 456.898,-20
 L 456.558,-20.7639 L 456.384,-21.5819 L 456.384,-22.4181 L 456.558,-23.2361 L 456.898,-24 L 457.39,-24.6765
 L 458.011,-25.2361 L 458.522,-25.5516 L 516.16,-55.4133 L 516.939,-55.7183 L 517.764,-55.8547 L 518.599,-55.8166
 L 519.408,-55.6056 L 520.156,-55.231 L 520.809,-54.7092 L 521.34,-54.0629 L 521.725,-53.3204 L 521.946,-52.5142
 L 522,-51.8617 L 522,-22 L 521.913,-21.1684 L 521.654,-20.373 L 521.236,-19.6489 L 520.677,-19.0274
 L 520,-18.5359 L 519.236,-18.1958 L 518,-18 z
" stroke="black" fill="lightgray" stroke-width="0.5"/>
</svg>
