<?xml version="1.0" standalone="no"?>
<!DOCTYPE svg PUBLIC "-//W3C//DTD SVG 1.1//EN" "http://www.w3.org/Graphics/SVG/1.1/DTD/svg11.dtd">
<svg width="862mm" height="80mm" viewBox="0 -80 862 80" xmlns="http://www.w3.org/2000/svg" version="1.1">
<title>OpenSCAD Model</title>
<path d="
M 862,-80 L 0,-80 L 0,-0 L 4.95,-0 L 4.95,-6 L 5.00572,-6.53017
 L 5.17046,-7.03717 L 5.437,-7.49884 L 5.79372,-7.895 L 6.22499,-8.20836 L 6.71201,-8.42519 L 7.23344,-8.53603
 L 7.76654,-8.53603 L 8.28798,-8.42519 L 8.77499,-8.20836 L 9.20627,-7.895 L 9.56299,-7.49884 L 9.82953,-7.03717
 L 9.99426,-6.53017 L 10.05,-6 L 10.05,-0 L 174.35,-0 L 174.35,-6 L 174.406,-6.53017
 L 174.57,-7.03717 L 174.837,-7.49884 L 175.194,-7.895 L 175.625,-8.20836 L 176.112,-8.42519 L 176.633,-8.53603
 L 177.167,-8.53603 L 177.688,-8.42519 L 178.175,-8.20836 L 178.606,-7.895 L 178.963,-7.49884 L 179.23,-7.03717
 L 179.394,-6.53017 L 179.45,-6 L 179.45,-0 L 343.75,-0 L 343.75,-6 L 343.806,-6.53017
 L 343.97,-7.03717 L 344.237,-7.49884 L 344.594,-7.895 L 345.025,-8.20836 L 345.512,-8.42519 L 346.033,-8.53603
 L 346.567,-8.53603 L 347.088,-8.42519 L 347.575,-8.20836 L 348.006,-7.895 L 348.363,-7.49884 L 348.63,-7.03717
 L 348.794,-6.53017 L 348.85,-6 L 348.85,-0 L 513.15,-0 L 513.15,-6 L 513.206,-6.53017
 L 513.37,-7.03717 L 513.637,-7.49884 L 513.994,-7.895 L 514.425,-8.20836 L 514.912,-8.42519 L 515.433,-8.53603
 L 515.967,-8.53603 L 516.488,-8.42519 L 516.975,-8.20836 L 517.406,-7.895 L 517.763,-7.49884 L 518.03,-7.03717
 L 518.194,-6.53017 L 518.25,-6 L 518.25,-0 L 682.55,-0 L 682.55,-6 L 682.606,-6.53017
 L 682.77,-7.03717 L 683.037,-7.49884 L 683.394,-7.895 L 683.825,-8.20836 L 684.312,-8.42519 L 684.833,-8.53603
 L 685.367,-8.53603 L 685.888,-8.42519 L 686.375,-8.20836 L 686.806,-7.895 L 687.163,-7.49884 L 687.43,-7.03717
 L 687.594,-6.53017 L 687.65,-6 L 687.65,-0 L 851.95,-0 L 851.95,-6 L 852.006,-6.53017
 L 852.17,-7.03717 L 852.437,-7.49884 L 852.794,-7.895 L 853.225,-8.20836 L 853.712,-8.42519 L 854.233,-8.53603
 L 854.767,-8.53603 L 855.288,-8.42519 L 855.775,-8.20836 L 856.206,-7.895 L 856.563,-7.49884 L 856.83,-7.03717
 L 856.994,-6.53017 L 857.05,-6 L 857.05,-0 L 862,-0 z
M 6.98573,-55.607 L 6.47708,-55.6875 L 5.97964,-55.8208 L 5.49887,-56.0054 L 5.04001,-56.2392 L 4.60811,-56.5196
 L 4.20789,-56.8437 L 3.84373,-57.2079 L 3.51964,-57.6081 L 3.23917,-58.04 L 3.00537,-58.4989 L 2.82082,-58.9796
 L 2.68752,-59.4771 L 2.60696,-59.9857 L 2.58,-60.5 L 2.60696,-61.0143 L 2.68752,-61.5229 L 2.82082,-62.0204
 L 3.00537,-62.5011 L 3.23917,-62.96 L 3.51964,-63.3919 L 3.84373,-63.7921 L 4.20789,-64.1563 L 4.60811,-64.4804
 L 4.95001,-64.7024 L 4.95001,-74 L 5.00574,-74.5302 L 5.17047,-75.0372 L 5.43701,-75.4988 L 5.79373,-75.895
 L 6.22501,-76.2084 L 6.71202,-76.4252 L 7.23346,-76.536 L 7.76654,-76.536 L 8.28798,-76.4252 L 8.77499,-76.2084
 L 9.20627,-75.895 L 9.56299,-75.4988 L 9.82953,-75.0372 L 9.99426,-74.5302 L 10.05,-74 L 10.05,-64.7024
 L 10.3919,-64.4804 L 10.7921,-64.1563 L 11.1563,-63.7921 L 11.4804,-63.3919 L 11.7608,-62.96 L 11.9946,-62.5011
 L 12.1792,-62.0204 L 12.3125,-61.5229 L 12.393,-61.0143 L 12.42,-60.5 L 12.393,-59.9857 L 12.3125,-59.4771
 L 12.1792,-58.9796 L 11.9946,-58.4989 L 11.7608,-58.04 L 11.4804,-57.6081 L 11.1563,-57.2079 L 10.7921,-56.8437
 L 10.3919,-56.5196 L 9.95999,-56.2392 L 9.50113,-56.0054 L 9.02036,-55.8208 L 8.52292,-55.6875 L 8.01427,-55.607
 L 7.5,-55.58 z
M 176.386,-55.607 L 175.877,-55.6875 L 175.38,-55.8208 L 174.899,-56.0054 L 174.44,-56.2392 L 174.008,-56.5196
 L 173.608,-56.8437 L 173.244,-57.2079 L 172.92,-57.6081 L 172.639,-58.04 L 172.405,-58.4989 L 172.221,-58.9796
 L 172.088,-59.4771 L 172.007,-59.9857 L 171.98,-60.5 L 172.007,-61.0143 L 172.088,-61.5229 L 172.221,-62.0204
 L 172.405,-62.5011 L 172.639,-62.96 L 172.92,-63.3919 L 173.244,-63.7921 L 173.608,-64.1563 L 174.008,-64.4804
 L 174.35,-64.7024 L 174.35,-74 L 174.406,-74.5302 L 174.57,-75.0372 L 174.837,-75.4988 L 175.194,-75.895
 L 175.625,-76.2084 L 176.112,-76.4252 L 176.633,-76.536 L 177.167,-76.536 L 177.688,-76.4252 L 178.175,-76.2084
 L 178.606,-75.895 L 178.963,-75.4988 L 179.23,-75.0372 L 179.394,-74.5302 L 179.45,-74 L 179.45,-64.7024
 L 179.792,-64.4804 L 180.192,-64.1563 L 180.556,-63.7921 L 180.88,-63.3919 L 181.161,-62.96 L 181.395,-62.5011
 L 181.579,-62.0204 L 181.712,-61.5229 L 181.793,-61.0143 L 181.82,-60.5 L 181.793,-59.9857 L 181.712,-59.4771
 L 181.579,-58.9796 L 181.395,-58.4989 L 181.161,-58.04 L 180.88,-57.6081 L 180.556,-57.2079 L 180.192,-56.8437
 L 179.792,-56.5196 L 179.36,-56.2392 L 178.901,-56.0054 L 178.42,-55.8208 L 177.923,-55.6875 L 177.414,-55.607
 L 176.9,-55.58 z
M 345.786,-55.607 L 345.277,-55.6875 L 344.78,-55.8208 L 344.299,-56.0054 L 343.84,-56.2392 L 343.408,-56.5196
 L 343.008,-56.8437 L 342.644,-57.2079 L 342.32,-57.6081 L 342.039,-58.04 L 341.805,-58.4989 L 341.621,-58.9796
 L 341.488,-59.4771 L 341.407,-59.9857 L 341.38,-60.5 L 341.407,-61.0143 L 341.488,-61.5229 L 341.621,-62.0204
 L 341.805,-62.5011 L 342.039,-62.96 L 342.32,-63.3919 L 342.644,-63.7921 L 343.008,-64.1563 L 343.408,-64.4804
 L 343.75,-64.7024 L 343.75,-74 L 343.806,-74.5302 L 343.97,-75.0372 L 344.237,-75.4988 L 344.594,-75.895
 L 345.025,-76.2084 L 345.512,-76.4252 L 346.033,-76.536 L 346.567,-76.536 L 347.088,-76.4252 L 347.575,-76.2084
 L 348.006,-75.895 L 348.363,-75.4988 L 348.63,-75.0372 L 348.794,-74.5302 L 348.85,-74 L 348.85,-64.7024
 L 349.192,-64.4804 L 349.592,-64.1563 L 349.956,-63.7921 L 350.28,-63.3919 L 350.561,-62.96 L 350.795,-62.5011
 L 350.979,-62.0204 L 351.112,-61.5229 L 351.193,-61.0143 L 351.22,-60.5 L 351.193,-59.9857 L 351.112,-59.4771
 L 350.979,-58.9796 L 350.795,-58.4989 L 350.561,-58.04 L 350.28,-57.6081 L 349.956,-57.2079 L 349.592,-56.8437
 L 349.192,-56.5196 L 348.76,-56.2392 L 348.301,-56.0054 L 347.82,-55.8208 L 347.323,-55.6875 L 346.814,-55.607
 L 346.3,-55.58 z
M 515.186,-55.607 L 514.677,-55.6875 L 514.18,-55.8208 L 513.699,-56.0054 L 513.24,-56.2392 L 512.808,-56.5196
 L 512.408,-56.8437 L 512.044,-57.2079 L 511.72,-57.6081 L 511.439,-58.04 L 511.205,-58.4989 L 511.021,-58.9796
 L 510.888,-59.4771 L 510.807,-59.9857 L 510.78,-60.5 L 510.807,-61.0143 L 510.888,-61.5229 L 511.021,-62.0204
 L 511.205,-62.5011 L 511.439,-62.96 L 511.72,-63.3919 L 512.044,-63.7921 L 512.408,-64.1563 L 512.808,-64.4804
 L 513.15,-64.7024 L 513.15,-74 L 513.206,-74.5302 L 513.37,-75.0372 L 513.637,-75.4988 L 513.994,-75.895
 L 514.425,-76.2084 L 514.912,-76.4252 L 515.433,-76.536 L 515.967,-76.536 L 516.488,-76.4252 L 516.975,-76.2084
 L 517.406,-75.895 L 517.763,-75.4988 L 518.03,-75.0372 L 518.194,-74.5302 L 518.25,-74 L 518.25,-64.7024
 L 518.592,-64.4804 L 518.992,-64.1563 L 519.356,-63.7921 L 519.68,-63.3919 L 519.961,-62.96 L 520.195,-62.5011
 L 520.379,-62.0204 L 520.512,-61.5229 L 520.593,-61.0143 L 520.62,-60.5 L 520.593,-59.9857 L 520.512,-59.4771
 L 520.379,-58.9796 L 520.195,-58.4989 L 519.961,-58.04 L 519.68,-57.6081 L 519.356,-57.2079 L 518.992,-56.8437
 L 518.592,-56.5196 L 518.16,-56.2392 L 517.701,-56.0054 L 517.22,-55.8208 L 516.723,-55.6875 L 516.214,-55.607
 L 515.7,-55.58 z
M 684.586,-55.607 L 684.077,-55.6875 L 683.58,-55.8208 L 683.099,-56.0054 L 682.64,-56.2392 L 682.208,-56.5196
 L 681.808,-56.8437 L 681.444,-57.2079 L 681.12,-57.6081 L 680.839,-58.04 L 680.605,-58.4989 L 680.421,-58.9796
 L 680.288,-59.4771 L 680.207,-59.9857 L 680.18,-60.5 L 680.207,-61.0143 L 680.288,-61.5229 L 680.421,-62.0204
 L 680.605,-62.5011 L 680.839,-62.96 L 681.12,-63.3919 L 681.444,-63.7921 L 681.808,-64.1563 L 682.208,-64.4804
 L 682.55,-64.7024 L 682.55,-74 L 682.606,-74.5302 L 682.77,-75.0372 L 683.037,-75.4988 L 683.394,-75.895
 L 683.825,-76.2084 L 684.312,-76.4252 L 684.833,-76.536 L 685.367,-76.536 L 685.888,-76.4252 L 686.375,-76.2084
 L 686.806,-75.895 L 687.163,-75.4988 L 687.43,-75.0372 L 687.594,-74.5302 L 687.65,-74 L 687.65,-64.7024
 L 687.992,-64.4804 L 688.392,-64.1563 L 688.756,-63.7921 L 689.08,-63.3919 L 689.361,-62.96 L 689.595,-62.5011
 L 689.779,-62.0204 L 689.912,-61.5229 L 689.993,-61.0143 L 690.02,-60.5 L 689.993,-59.9857 L 689.912,-59.4771
 L 689.779,-58.9796 L 689.595,-58.4989 L 689.361,-58.04 L 689.08,-57.6081 L 688.756,-57.2079 L 688.392,-56.8437
 L 687.992,-56.5196 L 687.56,-56.2392 L 687.101,-56.0054 L 686.62,-55.8208 L 686.123,-55.6875 L 685.614,-55.607
 L 685.1,-55.58 z
M 853.986,-55.607 L 853.477,-55.6875 L 852.98,-55.8208 L 852.499,-56.0054 L 852.04,-56.2392 L 851.608,-56.5196
 L 851.208,-56.8437 L 850.844,-57.2079 L 850.52,-57.6081 L 850.239,-58.04 L 850.005,-58.4989 L 849.821,-58.9796
 L 849.688,-59.4771 L 849.607,-59.9857 L 849.58,-60.5 L 849.607,-61.0143 L 849.688,-61.5229 L 849.821,-62.0204
 L 850.005,-62.5011 L 850.239,-62.96 L 850.52,-63.3919 L 850.844,-63.7921 L 851.208,-64.1563 L 851.608,-64.4804
 L 851.95,-64.7024 L 851.95,-74 L 852.006,-74.5302 L 852.17,-75.0372 L 852.437,-75.4988 L 852.794,-75.895
 L 853.225,-76.2084 L 853.712,-76.4252 L 854.233,-76.536 L 854.767,-76.536 L 855.288,-76.4252 L 855.775,-76.2084
 L 856.206,-75.895 L 856.563,-75.4988 L 856.83,-75.0372 L 856.994,-74.5302 L 857.05,-74 L 857.05,-64.7024
 L 857.392,-64.4804 L 857.792,-64.1563 L 858.156,-63.7921 L 858.48,-63.3919 L 858.761,-62.96 L 858.995,-62.5011
 L 859.179,-62.0204 L 859.312,-61.5229 L 859.393,-61.0143 L 859.42,-60.5 L 859.393,-59.9857 L 859.312,-59.4771
 L 859.179,-58.9796 L 858.995,-58.4989 L 858.761,-58.04 L 858.48,-57.6081 L 858.156,-57.2079 L 857.792,-56.8437
 L 857.392,-56.5196 L 856.96,-56.2392 L 856.501,-56.0054 L 856.02,-55.8208 L 855.523,-55.6875 L 855.014,-55.607
 L 854.5,-55.58 z
M 430.314,-47.9042 L 429.51,-48.1329 L 414.177,-54.2879 L 413.316,-54.7639 L 412.694,-55.3235 L 412.203,-56
 L 411.863,-56.7639 L 411.689,-57.5819 L 411.689,-58.4181 L 411.863,-59.2361 L 412.203,-60 L 412.694,-60.6765
 L 413.316,-61.2361 L 414.04,-61.6542 L 414.835,-61.9126 L 415.667,-62 L 446.333,-62 L 447.31,-61.879
 L 448.095,-61.5912 L 448.803,-61.1465 L 449.403,-60.5643 L 449.869,-59.8699 L 450.181,-59.0939 L 450.324,-58.2701
 L 450.293,-57.4344 L 450.089,-56.6235 L 449.721,-55.8727 L 449.204,-55.2149 L 448.563,-54.6788 L 447.823,-54.2879
 L 432.49,-48.1329 L 431.976,-47.966 L 431.149,-47.8477 z
M 332.614,-21.2762 L 331.81,-21.5049 L 250.142,-54.2879 L 249.281,-54.7639 L 248.659,-55.3235 L 248.168,-56
 L 247.828,-56.7639 L 247.654,-57.5819 L 247.654,-58.4181 L 247.828,-59.2361 L 248.168,-60 L 248.659,-60.6765
 L 249.281,-61.2361 L 250.005,-61.6542 L 250.8,-61.9126 L 251.632,-62 L 333.3,-62 L 334.536,-61.8042
 L 335.3,-61.4641 L 335.977,-60.9726 L 336.536,-60.3511 L 336.954,-59.627 L 337.213,-58.8316 L 337.3,-58
 L 337.3,-25.217 L 337.148,-24.1231 L 336.836,-23.3471 L 336.37,-22.6528 L 335.77,-22.0705 L 335.062,-21.6258
 L 334.276,-21.338 L 333.449,-21.2198 z
M 697.124,-21.338 L 696.338,-21.6258 L 695.63,-22.0705 L 695.03,-22.6528 L 694.564,-23.3471 L 694.252,-24.1231
 L 694.1,-25.217 L 694.1,-58 L 694.187,-58.8316 L 694.446,-59.627 L 694.864,-60.3511 L 695.423,-60.9726
 L 696.1,-61.4641 L 696.864,-61.8042 L 698.1,-62 L 779.768,-62 L 780.6,-61.9126 L 781.395,-61.6542
 L 782.119,-61.2361 L 782.741,-60.6765 L 783.232,-60 L 783.572,-59.2361 L 783.746,-58.4181 L 783.746,-57.5819
 L 783.572,-56.7639 L 783.232,-56 L 782.741,-55.3235 L 782.119,-54.7639 L 781.258,-54.2879 L 699.59,-21.5049
 L 698.786,-21.2762 L 697.951,-21.2198 z
M 163.214,-21.2762 L 162.41,-21.5049 L 80.7417,-54.2879 L 79.8807,-54.7639 L 79.2592,-55.3235 L 78.7677,-56
 L 78.4276,-56.7639 L 78.2537,-57.5819 L 78.2537,-58.4181 L 78.4276,-59.2361 L 78.7677,-60 L 79.2592,-60.6765
 L 79.8807,-61.2361 L 80.6049,-61.6542 L 81.4002,-61.9126 L 82.2318,-62 L 163.9,-62 L 165.136,-61.8042
 L 165.9,-61.4641 L 166.577,-60.9726 L 167.136,-60.3511 L 167.554,-59.627 L 167.813,-58.8316 L 167.9,-58
 L 167.9,-25.217 L 167.748,-24.1231 L 167.436,-23.3471 L 166.97,-22.6528 L 166.37,-22.0705 L 165.662,-21.6258
 L 164.876,-21.338 L 164.049,-21.2198 z
M 527.724,-21.338 L 526.938,-21.6258 L 526.23,-22.0705 L 525.63,-22.6528 L 525.164,-23.3471 L 524.852,-24.1231
 L 524.7,-25.217 L 524.7,-58 L 524.787,-58.8316 L 525.046,-59.627 L 525.464,-60.3511 L 526.023,-60.9726
 L 526.7,-61.4641 L 527.464,-61.8042 L 528.7,-62 L 610.368,-62 L 611.2,-61.9126 L 611.995,-61.6542
 L 612.719,-61.2361 L 613.341,-60.6765 L 613.832,-60 L 614.172,-59.2361 L 614.346,-58.4181 L 614.346,-57.5819
 L 614.172,-56.7639 L 613.832,-56 L 613.341,-55.3235 L 612.719,-54.7639 L 611.858,-54.2879 L 530.19,-21.5049
 L 529.386,-21.2762 L 528.551,-21.2198 z
M 358.882,-19.0853 L 358.064,-19.2592 L 357.3,-19.5993 L 356.623,-20.0908 L 356.064,-20.7123 L 355.646,-21.4364
 L 355.387,-22.2318 L 355.3,-23.0634 L 355.3,-56.9366 L 355.452,-58.0305 L 355.764,-58.8065 L 356.23,-59.5009
 L 356.83,-60.0831 L 357.538,-60.5278 L 358.324,-60.8156 L 359.151,-60.9338 L 359.986,-60.8774 L 360.79,-60.6487
 L 402.982,-43.7121 L 403.962,-43.1465 L 404.562,-42.5643 L 405.028,-41.8699 L 405.34,-41.0939 L 405.483,-40.2701
 L 405.452,-39.4344 L 405.248,-38.6235 L 404.879,-37.8727 L 404.363,-37.2149 L 403.721,-36.6788 L 402.982,-36.2879
 L 360.79,-19.3513 L 359.718,-19.0853 z
M 502.014,-19.1226 L 501.21,-19.3513 L 459.018,-36.2879 L 458.038,-36.8535 L 457.438,-37.4357 L 456.972,-38.1301
 L 456.66,-38.9061 L 456.517,-39.7299 L 456.548,-40.5656 L 456.752,-41.3765 L 457.12,-42.1273 L 457.637,-42.7851
 L 458.279,-43.3212 L 459.018,-43.7121 L 501.21,-60.6487 L 502.282,-60.9147 L 503.118,-60.9147 L 503.936,-60.7408
 L 504.7,-60.4007 L 505.377,-59.9092 L 505.936,-59.2877 L 506.354,-58.5636 L 506.613,-57.7682 L 506.7,-56.9366
 L 506.7,-23.0634 L 506.548,-21.9695 L 506.236,-21.1935 L 505.77,-20.4991 L 505.17,-19.9169 L 504.462,-19.4722
 L 503.676,-19.1844 L 502.849,-19.0662 z
M 189.9,-18 L 188.664,-18.1958 L 187.9,-18.5359 L 187.223,-19.0274 L 186.664,-19.6489 L 186.246,-20.373
 L 185.987,-21.1684 L 185.9,-22 L 185.9,-54.783 L 186.052,-55.8769 L 186.364,-56.6529 L 186.83,-57.3472
 L 187.43,-57.9295 L 188.138,-58.3742 L 188.924,-58.662 L 189.751,-58.7802 L 190.586,-58.7237 L 191.39,-58.4951
 L 273.058,-25.7121 L 273.919,-25.2361 L 274.541,-24.6765 L 275.032,-24 L 275.372,-23.2361 L 275.546,-22.4181
 L 275.546,-21.5819 L 275.372,-20.7639 L 275.032,-20 L 274.541,-19.3235 L 273.919,-18.7639 L 273.195,-18.3458
 L 272.4,-18.0874 L 271.568,-18 z
M 590.432,-18 L 589.6,-18.0874 L 588.805,-18.3458 L 588.081,-18.7639 L 587.459,-19.3235 L 586.968,-20
 L 586.628,-20.7639 L 586.454,-21.5819 L 586.454,-22.4181 L 586.628,-23.2361 L 586.968,-24 L 587.459,-24.6765
 L 588.081,-25.2361 L 588.942,-25.7121 L 670.61,-58.4951 L 671.414,-58.7237 L 672.249,-58.7802 L 673.076,-58.662
 L 673.862,-58.3742 L 674.57,-57.9295 L 675.17,-57.3472 L 675.636,-56.6529 L 675.948,-55.8769 L 676.1,-54.783
 L 676.1,-22 L 676.013,-21.1684 L 675.754,-20.373 L 675.336,-19.6489 L 674.777,-19.0274 L 674.1,-18.5359
 L 673.336,-18.1958 L 672.1,-18 z
M 22,-18 L 20.7639,-18.1958 L 20,-18.5359 L 19.3235,-19.0274 L 18.7639,-19.6489 L 18.3458,-20.373
 L 18.0874,-21.1684 L 18,-22 L 18,-54.1808 L 18.1525,-55.2748 L 18.464,-56.0508 L 18.9301,-56.7451
 L 19.5303,-57.3273 L 20.2384,-57.7721 L 21.0236,-58.0598 L 21.8514,-58.1781 L 22.6857,-58.1216 L 23.4901,-57.8929
 L 103.658,-25.7121 L 104.519,-25.2361 L 105.141,-24.6765 L 105.632,-24 L 105.972,-23.2361 L 106.146,-22.4181
 L 106.146,-21.5819 L 105.972,-20.7639 L 105.632,-20 L 105.141,-19.3235 L 104.519,-18.7639 L 103.795,-18.3458
 L 103,-18.0874 L 102.168,-18 z
M 759.832,-18 L 759,-18.0874 L 758.205,-18.3458 L 757.481,-18.7639 L 756.859,-19.3235 L 756.368,-20
 L 756.028,-20.7639 L 755.854,-21.5819 L 755.854,-22.4181 L 756.028,-23.2361 L 756.368,-24 L 756.859,-24.6765
 L 757.481,-25.2361 L 758.342,-25.7121 L 838.51,-57.8929 L 839.314,-58.1216 L 840.149,-58.1781 L 840.976,-58.0598
 L 841.762,-57.7721 L 842.47,-57.3273 L 843.07,-56.7451 L 843.536,-56.0508 L 843.848,-55.2748 L 844,-54.1808
 L 844,-22 L 843.913,-21.1684 L 843.654,-20.373 L 843.236,-19.6489 L 842.677,-19.0274 L 842,-18.5359
 L 841.236,-18.1958 L 840,-18 z
M 415.667,-18 L 414.69,-18.121 L 413.905,-18.4088 L 413.197,-18.8535 L 412.597,-19.4357 L 412.131,-20.1301
 L 411.819,-20.9061 L 411.676,-21.7299 L 411.707,-22.5656 L 411.911,-23.3765 L 412.279,-24.1273 L 412.796,-24.7851
 L 413.437,-25.3212 L 414.177,-25.7121 L 429.51,-31.8671 L 430.024,-32.034 L 430.851,-32.1523 L 431.686,-32.0958
 L 432.49,-31.8671 L 447.823,-25.7121 L 448.684,-25.2361 L 449.306,-24.6765 L 449.797,-24 L 450.137,-23.2361
 L 450.311,-22.4181 L 450.311,-21.5819 L 450.137,-20.7639 L 449.797,-20 L 449.306,-19.3235 L 448.684,-18.7639
 L 447.96,-18.3458 L 447.165,-18.0874 L 446.333,-18 z
" stroke="black" fill="lightgray" stroke-width="0.5"/>
</svg>
