<?xml version="1.0" standalone="no"?>
<!DOCTYPE svg PUBLIC "-//W3C//DTD SVG 1.1//EN" "http://www.w3.org/Graphics/SVG/1.1/DTD/svg11.dtd">
<svg width="583mm" height="80mm" viewBox="0 -80 583 80" xmlns="http://www.w3.org/2000/svg" version="1.1">
<title>OpenSCAD Model</title>
<path d="
M 583,-80 L 0,-80 L 0,-0 L 4.95,-0 L 4.95,-6 L 5.00572,-6.53017
 L 5.17046,-7.03717 L 5.437,-7.49884 L 5.79372,-7.895 L 6.22499,-8.20836 L 6.71201,-8.42519 L 7.23344,-8.53603
 L 7.76654,-8.53603 L 8.28798,-8.42519 L 8.77499,-8.20836 L 9.20627,-7.895 L 9.56299,-7.49884 L 9.82953,-7.03717
 L 9.99426,-6.53017 L 10.05,-6 L 10.05,-0 L 146.95,-0 L 146.95,-6 L 147.006,-6.53017
 L 147.17,-7.03717 L 147.437,-7.49884 L 147.794,-7.895 L 148.225,-8.20836 L 148.712,-8.42519 L 149.233,-8.53603
 L 149.767,-8.53603 L 150.288,-8.42519 L 150.775,-8.20836 L 151.206,-7.895 L 151.563,-7.49884 L 151.83,-7.03717
 L 151.994,-6.53017 L 152.05,-6 L 152.05,-0 L 288.95,-0 L 288.95,-6 L 289.006,-6.53017
 L 289.17,-7.03717 L 289.437,-7.49884 L 289.794,-7.895 L 290.225,-8.20836 L 290.712,-8.42519 L 291.233,-8.53603
 L 291.767,-8.53603 L 292.288,-8.42519 L 292.775,-8.20836 L 293.206,-7.895 L 293.563,-7.49884 L 293.83,-7.03717
 L 293.994,-6.53017 L 294.05,-6 L 294.05,-0 L 430.95,-0 L 430.95,-6 L 431.006,-6.53017
 L 431.17,-7.03717 L 431.437,-7.49884 L 431.794,-7.895 L 432.225,-8.20836 L 432.712,-8.42519 L 433.233,-8.53603
 L 433.767,-8.53603 L 434.288,-8.42519 L 434.775,-8.20836 L 435.206,-7.895 L 435.563,-7.49884 L 435.83,-7.03717
 L 435.994,-6.53017 L 436.05,-6 L 436.05,-0 L 572.95,-0 L 572.95,-6 L 573.006,-6.53017
 L 573.17,-7.03717 L 573.437,-7.49884 L 573.794,-7.895 L 574.225,-8.20836 L 574.712,-8.42519 L 575.233,-8.53603
 L 575.767,-8.53603 L 576.288,-8.42519 L 576.775,-8.20836 L 577.206,-7.895 L 577.563,-7.49884 L 577.83,-7.03717
 L 577.994,-6.53017 L 578.05,-6 L 578.05,-0 L 583,-0 z
M 6.98573,-55.607 L 6.47708,-55.6875 L 5.97964,-55.8208 L 5.49887,-56.0054 L 5.04001,-56.2392 L 4.60811,-56.5196
 L 4.20789,-56.8437 L 3.84373,-57.2079 L 3.51964,-57.6081 L 3.23917,-58.04 L 3.00537,-58.4989 L 2.82082,-58.9796
 L 2.68752,-59.4771 L 2.60696,-59.9857 L 2.58,-60.5 L 2.60696,-61.0143 L 2.68752,-61.5229 L 2.82082,-62.0204
 L 3.00537,-62.5011 L 3.23917,-62.96 L 3.51964,-63.3919 L 3.84373,-63.7921 L 4.20789,-64.1563 L 4.60811,-64.4804
 L 4.95001,-64.7024 L 4.95001,-74 L 5.00574,-74.5302 L 5.17047,-75.0372 L 5.43701,-75.4988 L 5.79373,-75.895
 L 6.22501,-76.2084 L 6.71202,-76.4252 L 7.23346,-76.536 L 7.76654,-76.536 L 8.28798,-76.4252 L 8.77499,-76.2084
 L 9.20627,-75.895 L 9.56299,-75.4988 L 9.82953,-75.0372 L 9.99426,-74.5302 L 10.05,-74 L 10.05,-64.7024
 L 10.3919,-64.4804 L 10.7921,-64.1563 L 11.1563,-63.7921 L 11.4804,-63.3919 L 11.7608,-62.96 L 11.9946,-62.5011
 L 12.1792,-62.0204 L 12.3125,-61.5229 L 12.393,-61.0143 L 12.42,-60.5 L 12.393,-59.9857 L 12.3125,-59.4771
 L 12.1792,-58.9796 L 11.9946,-58.4989 L 11.7608,-58.04 L 11.4804,-57.6081 L 11.1563,-57.2079 L 10.7921,-56.8437
 L 10.3919,-56.5196 L 9.95999,-56.2392 L 9.50113,-56.0054 L 9.02036,-55.8208 L 8.52292,-55.6875 L 8.01427,-55.607
 L 7.5,-55.58 z
M 148.986,-55.607 L 148.477,-55.6875 L 147.98,-55.8208 L 147.499,-56.0054 L 147.04,-56.2392 L 146.608,-56.5196
 L 146.208,-56.8437 L 145.844,-57.2079 L 145.52,-57.6081 L 145.239,-58.04 L 145.005,-58.4989 L 144.821,-58.9796
 L 144.688,-59.4771 L 144.607,-59.9857 L 144.58,-60.5 L 144.607,-61.0143 L 144.688,-61.5229 L 144.821,-62.0204
 L 145.005,-62.5011 L 145.239,-62.96 L 145.52,-63.3919 L 145.844,-63.7921 L 146.208,-64.1563 L 146.608,-64.4804
 L 146.95,-64.7024 L 146.95,-74 L 147.006,-74.5302 L 147.17,-75.0372 L 147.437,-75.4988 L 147.794,-75.895
 L 148.225,-76.2084 L 148.712,-76.4252 L 149.233,-76.536 L 149.767,-76.536 L 150.288,-76.4252 L 150.775,-76.2084
 L 151.206,-75.895 L 151.563,-75.4988 L 151.83,-75.0372 L 151.994,-74.5302 L 152.05,-74 L 152.05,-64.7024
 L 152.392,-64.4804 L 152.792,-64.1563 L 153.156,-63.7921 L 153.48,-63.3919 L 153.761,-62.96 L 153.995,-62.5011
 L 154.179,-62.0204 L 154.312,-61.5229 L 154.393,-61.0143 L 154.42,-60.5 L 154.393,-59.9857 L 154.312,-59.4771
 L 154.179,-58.9796 L 153.995,-58.4989 L 153.761,-58.04 L 153.48,-57.6081 L 153.156,-57.2079 L 152.792,-56.8437
 L 152.392,-56.5196 L 151.96,-56.2392 L 151.501,-56.0054 L 151.02,-55.8208 L 150.523,-55.6875 L 150.014,-55.607
 L 149.5,-55.58 z
M 290.986,-55.607 L 290.477,-55.6875 L 289.98,-55.8208 L 289.499,-56.0054 L 289.04,-56.2392 L 288.608,-56.5196
 L 288.208,-56.8437 L 287.844,-57.2079 L 287.52,-57.6081 L 287.239,-58.04 L 287.005,-58.4989 L 286.821,-58.9796
 L 286.688,-59.4771 L 286.607,-59.9857 L 286.58,-60.5 L 286.607,-61.0143 L 286.688,-61.5229 L 286.821,-62.0204
 L 287.005,-62.5011 L 287.239,-62.96 L 287.52,-63.3919 L 287.844,-63.7921 L 288.208,-64.1563 L 288.608,-64.4804
 L 288.95,-64.7024 L 288.95,-74 L 289.006,-74.5302 L 289.17,-75.0372 L 289.437,-75.4988 L 289.794,-75.895
 L 290.225,-76.2084 L 290.712,-76.4252 L 291.233,-76.536 L 291.767,-76.536 L 292.288,-76.4252 L 292.775,-76.2084
 L 293.206,-75.895 L 293.563,-75.4988 L 293.83,-75.0372 L 293.994,-74.5302 L 294.05,-74 L 294.05,-64.7024
 L 294.392,-64.4804 L 294.792,-64.1563 L 295.156,-63.7921 L 295.48,-63.3919 L 295.761,-62.96 L 295.995,-62.5011
 L 296.179,-62.0204 L 296.312,-61.5229 L 296.393,-61.0143 L 296.42,-60.5 L 296.393,-59.9857 L 296.312,-59.4771
 L 296.179,-58.9796 L 295.995,-58.4989 L 295.761,-58.04 L 295.48,-57.6081 L 295.156,-57.2079 L 294.792,-56.8437
 L 294.392,-56.5196 L 293.96,-56.2392 L 293.501,-56.0054 L 293.02,-55.8208 L 292.523,-55.6875 L 292.014,-55.607
 L 291.5,-55.58 z
M 432.986,-55.607 L 432.477,-55.6875 L 431.98,-55.8208 L 431.499,-56.0054 L 431.04,-56.2392 L 430.608,-56.5196
 L 430.208,-56.8437 L 429.844,-57.2079 L 429.52,-57.6081 L 429.239,-58.04 L 429.005,-58.4989 L 428.821,-58.9796
 L 428.688,-59.4771 L 428.607,-59.9857 L 428.58,-60.5 L 428.607,-61.0143 L 428.688,-61.5229 L 428.821,-62.0204
 L 429.005,-62.5011 L 429.239,-62.96 L 429.52,-63.3919 L 429.844,-63.7921 L 430.208,-64.1563 L 430.608,-64.4804
 L 430.95,-64.7024 L 430.95,-74 L 431.006,-74.5302 L 431.17,-75.0372 L 431.437,-75.4988 L 431.794,-75.895
 L 432.225,-76.2084 L 432.712,-76.4252 L 433.233,-76.536 L 433.767,-76.536 L 434.288,-76.4252 L 434.775,-76.2084
 L 435.206,-75.895 L 435.563,-75.4988 L 435.83,-75.0372 L 435.994,-74.5302 L 436.05,-74 L 436.05,-64.7024
 L 436.392,-64.4804 L 436.792,-64.1563 L 437.156,-63.7921 L 437.48,-63.3919 L 437.761,-62.96 L 437.995,-62.5011
 L 438.179,-62.0204 L 438.312,-61.5229 L 438.393,-61.0143 L 438.42,-60.5 L 438.393,-59.9857 L 438.312,-59.4771
 L 438.179,-58.9796 L 437.995,-58.4989 L 437.761,-58.04 L 437.48,-57.6081 L 437.156,-57.2079 L 436.792,-56.8437
 L 436.392,-56.5196 L 435.96,-56.2392 L 435.501,-56.0054 L 435.02,-55.8208 L 434.523,-55.6875 L 434.014,-55.607
 L 433.5,-55.58 z
M 574.986,-55.607 L 574.477,-55.6875 L 573.98,-55.8208 L 573.499,-56.0054 L 573.04,-56.2392 L 572.608,-56.5196
 L 572.208,-56.8437 L 571.844,-57.2079 L 571.52,-57.6081 L 571.239,-58.04 L 571.005,-58.4989 L 570.821,-58.9796
 L 570.688,-59.4771 L 570.607,-59.9857 L 570.58,-60.5 L 570.607,-61.0143 L 570.688,-61.5229 L 570.821,-62.0204
 L 571.005,-62.5011 L 571.239,-62.96 L 571.52,-63.3919 L 571.844,-63.7921 L 572.208,-64.1563 L 572.608,-64.4804
 L 572.95,-64.7024 L 572.95,-74 L 573.006,-74.5302 L 573.17,-75.0372 L 573.437,-75.4988 L 573.794,-75.895
 L 574.225,-76.2084 L 574.712,-76.4252 L 575.233,-76.536 L 575.767,-76.536 L 576.288,-76.4252 L 576.775,-76.2084
 L 577.206,-75.895 L 577.563,-75.4988 L 577.83,-75.0372 L 577.994,-74.5302 L 578.05,-74 L 578.05,-64.7024
 L 578.392,-64.4804 L 578.792,-64.1563 L 579.156,-63.7921 L 579.48,-63.3919 L 579.761,-62.96 L 579.995,-62.5011
 L 580.179,-62.0204 L 580.312,-61.5229 L 580.393,-61.0143 L 580.42,-60.5 L 580.393,-59.9857 L 580.312,-59.4771
 L 580.179,-58.9796 L 579.995,-58.4989 L 579.761,-58.04 L 579.48,-57.6081 L 579.156,-57.2079 L 578.792,-56.8437
 L 578.392,-56.5196 L 577.96,-56.2392 L 577.501,-56.0054 L 577.02,-55.8208 L 576.523,-55.6875 L 576.014,-55.607
 L 575.5,-55.58 z
M 303.777,-22.6994 L 302.975,-22.9356 L 302.239,-23.3335 L 301.603,-23.8756 L 301.093,-24.5383 L 300.732,-25.2925
 L 300.535,-26.1053 L 300.5,-26.6335 L 300.5,-58 L 300.587,-58.8316 L 300.846,-59.627 L 301.264,-60.3511
 L 301.823,-60.9726 L 302.5,-61.4641 L 303.264,-61.8042 L 304.5,-62 L 370.001,-62 L 370.832,-61.9126
 L 371.628,-61.6542 L 372.352,-61.2361 L 372.973,-60.6765 L 373.465,-60 L 373.805,-59.2361 L 373.979,-58.4181
 L 373.979,-57.5819 L 373.805,-56.7639 L 373.465,-56 L 372.973,-55.3235 L 372.352,-54.7639 L 371.728,-54.3923
 L 306.228,-23.0258 L 305.44,-22.7455 L 304.611,-22.6351 z
M 277.56,-22.7455 L 276.772,-23.0258 L 211.272,-54.3923 L 210.648,-54.7639 L 210.027,-55.3235 L 209.535,-56
 L 209.195,-56.7639 L 209.021,-57.5819 L 209.021,-58.4181 L 209.195,-59.2361 L 209.535,-60 L 210.027,-60.6765
 L 210.648,-61.2361 L 211.372,-61.6542 L 212.168,-61.9126 L 212.999,-62 L 278.5,-62 L 279.736,-61.8042
 L 280.5,-61.4641 L 281.177,-60.9726 L 281.736,-60.3511 L 282.154,-59.627 L 282.413,-58.8316 L 282.5,-58
 L 282.5,-26.6335 L 282.465,-26.1053 L 282.268,-25.2925 L 281.907,-24.5383 L 281.397,-23.8756 L 280.761,-23.3335
 L 280.025,-22.9356 L 279.223,-22.6994 L 278.389,-22.6351 z
M 445.777,-22.6994 L 444.975,-22.9356 L 444.239,-23.3335 L 443.603,-23.8756 L 443.093,-24.5383 L 442.732,-25.2925
 L 442.535,-26.1053 L 442.5,-26.6335 L 442.5,-58 L 442.587,-58.8316 L 442.846,-59.627 L 443.264,-60.3511
 L 443.823,-60.9726 L 444.5,-61.4641 L 445.264,-61.8042 L 446.5,-62 L 512.001,-62 L 512.832,-61.9126
 L 513.628,-61.6542 L 514.352,-61.2361 L 514.973,-60.6765 L 515.465,-60 L 515.805,-59.2361 L 515.979,-58.4181
 L 515.979,-57.5819 L 515.805,-56.7639 L 515.465,-56 L 514.973,-55.3235 L 514.352,-54.7639 L 513.728,-54.3923
 L 448.228,-23.0258 L 447.44,-22.7455 L 446.611,-22.6351 z
M 135.56,-22.7455 L 134.772,-23.0258 L 69.2718,-54.3923 L 68.6483,-54.7639 L 68.0268,-55.3235 L 67.5353,-56
 L 67.1952,-56.7639 L 67.0213,-57.5819 L 67.0213,-58.4181 L 67.1952,-59.2361 L 67.5353,-60 L 68.0268,-60.6765
 L 68.6483,-61.2361 L 69.3724,-61.6542 L 70.1677,-61.9126 L 70.9994,-62 L 136.5,-62 L 137.736,-61.8042
 L 138.5,-61.4641 L 139.177,-60.9726 L 139.736,-60.3511 L 140.154,-59.627 L 140.413,-58.8316 L 140.5,-58
 L 140.5,-26.6335 L 140.465,-26.1053 L 140.268,-25.2925 L 139.907,-24.5383 L 139.397,-23.8756 L 138.761,-23.3335
 L 138.025,-22.9356 L 137.223,-22.6994 L 136.389,-22.6351 z
M 354.999,-18 L 354.168,-18.0874 L 353.372,-18.3458 L 352.648,-18.7639 L 352.027,-19.3235 L 351.535,-20
 L 351.195,-20.7639 L 351.021,-21.5819 L 351.021,-22.4181 L 351.195,-23.2361 L 351.535,-24 L 352.027,-24.6765
 L 352.648,-25.2361 L 353.272,-25.6077 L 418.772,-56.9742 L 419.56,-57.2545 L 420.389,-57.3649 L 421.223,-57.3006
 L 422.025,-57.0643 L 422.761,-56.6665 L 423.397,-56.1244 L 423.907,-55.4617 L 424.268,-54.7075 L 424.465,-53.8947
 L 424.5,-53.3665 L 424.5,-22 L 424.413,-21.1684 L 424.154,-20.373 L 423.736,-19.6489 L 423.177,-19.0274
 L 422.5,-18.5359 L 421.736,-18.1958 L 420.5,-18 z
M 162.5,-18 L 161.264,-18.1958 L 160.5,-18.5359 L 159.823,-19.0274 L 159.264,-19.6489 L 158.846,-20.373
 L 158.587,-21.1684 L 158.5,-22 L 158.5,-53.3665 L 158.535,-53.8947 L 158.732,-54.7075 L 159.093,-55.4617
 L 159.603,-56.1244 L 160.239,-56.6665 L 160.975,-57.0643 L 161.777,-57.3006 L 162.611,-57.3649 L 163.44,-57.2545
 L 164.228,-56.9742 L 229.728,-25.6077 L 230.352,-25.2361 L 230.973,-24.6765 L 231.465,-24 L 231.805,-23.2361
 L 231.979,-22.4181 L 231.979,-21.5819 L 231.805,-20.7639 L 231.465,-20 L 230.973,-19.3235 L 230.352,-18.7639
 L 229.628,-18.3458 L 228.832,-18.0874 L 228.001,-18 z
M 22,-18 L 20.7639,-18.1958 L 20,-18.5359 L 19.3235,-19.0274 L 18.7639,-19.6489 L 18.3458,-20.373
 L 18.0874,-21.1684 L 18,-22 L 18,-52.6482 L 18.035,-53.1764 L 18.2315,-53.9892 L 18.5927,-54.7434
 L 19.1028,-55.4061 L 19.7395,-55.9482 L 20.475,-56.346 L 21.2771,-56.5823 L 22.1109,-56.6466 L 22.9398,-56.5362
 L 23.7276,-56.2558 L 87.7282,-25.6077 L 88.3517,-25.2361 L 88.9732,-24.6765 L 89.4647,-24 L 89.8048,-23.2361
 L 89.9787,-22.4181 L 89.9787,-21.5819 L 89.8048,-20.7639 L 89.4647,-20 L 88.9732,-19.3235 L 88.3517,-18.7639
 L 87.6275,-18.3458 L 86.8322,-18.0874 L 86.0006,-18 z
M 496.999,-18 L 496.168,-18.0874 L 495.372,-18.3458 L 494.648,-18.7639 L 494.027,-19.3235 L 493.535,-20
 L 493.195,-20.7639 L 493.021,-21.5819 L 493.021,-22.4181 L 493.195,-23.2361 L 493.535,-24 L 494.027,-24.6765
 L 494.648,-25.2361 L 495.272,-25.6077 L 559.272,-56.2558 L 560.06,-56.5362 L 560.889,-56.6466 L 561.723,-56.5823
 L 562.525,-56.346 L 563.261,-55.9482 L 563.897,-55.4061 L 564.407,-54.7434 L 564.768,-53.9892 L 564.965,-53.1764
 L 565,-52.6482 L 565,-22 L 564.913,-21.1684 L 564.654,-20.373 L 564.236,-19.6489 L 563.677,-19.0274
 L 563,-18.5359 L 562.236,-18.1958 L 561,-18 z
" stroke="black" fill="lightgray" stroke-width="0.5"/>
</svg>
