<?xml version="1.0" standalone="no"?>
<!DOCTYPE svg PUBLIC "-//W3C//DTD SVG 1.1//EN" "http://www.w3.org/Graphics/SVG/1.1/DTD/svg11.dtd">
<svg width="611mm" height="80mm" viewBox="0 -80 611 80" xmlns="http://www.w3.org/2000/svg" version="1.1">
<title>OpenSCAD Model</title>
<path d="
M 611,-80 L 0,-80 L 0,-0 L 4.95,-0 L 4.95,-6 L 5.00572,-6.53017
 L 5.17046,-7.03717 L 5.437,-7.49884 L 5.79372,-7.895 L 6.22499,-8.20836 L 6.71201,-8.42519 L 7.23344,-8.53603
 L 7.76654,-8.53603 L 8.28798,-8.42519 L 8.77499,-8.20836 L 9.20627,-7.895 L 9.56299,-7.49884 L 9.82953,-7.03717
 L 9.99426,-6.53017 L 10.05,-6 L 10.05,-0 L 124.15,-0 L 124.15,-6 L 124.206,-6.53017
 L 124.37,-7.03717 L 124.637,-7.49884 L 124.994,-7.895 L 125.425,-8.20836 L 125.912,-8.42519 L 126.433,-8.53603
 L 126.967,-8.53603 L 127.488,-8.42519 L 127.975,-8.20836 L 128.406,-7.895 L 128.763,-7.49884 L 129.03,-7.03717
 L 129.194,-6.53017 L 129.25,-6 L 129.25,-0 L 243.35,-0 L 243.35,-6 L 243.406,-6.53017
 L 243.57,-7.03717 L 243.837,-7.49884 L 244.194,-7.895 L 244.625,-8.20836 L 245.112,-8.42519 L 245.633,-8.53603
 L 246.167,-8.53603 L 246.688,-8.42519 L 247.175,-8.20836 L 247.606,-7.895 L 247.963,-7.49884 L 248.23,-7.03717
 L 248.394,-6.53017 L 248.45,-6 L 248.45,-0 L 362.55,-0 L 362.55,-6 L 362.606,-6.53017
 L 362.77,-7.03717 L 363.037,-7.49884 L 363.394,-7.895 L 363.825,-8.20836 L 364.312,-8.42519 L 364.833,-8.53603
 L 365.367,-8.53603 L 365.888,-8.42519 L 366.375,-8.20836 L 366.806,-7.895 L 367.163,-7.49884 L 367.43,-7.03717
 L 367.594,-6.53017 L 367.65,-6 L 367.65,-0 L 481.75,-0 L 481.75,-6 L 481.806,-6.53017
 L 481.97,-7.03717 L 482.237,-7.49884 L 482.594,-7.895 L 483.025,-8.20836 L 483.512,-8.42519 L 484.033,-8.53603
 L 484.567,-8.53603 L 485.088,-8.42519 L 485.575,-8.20836 L 486.006,-7.895 L 486.363,-7.49884 L 486.63,-7.03717
 L 486.794,-6.53017 L 486.85,-6 L 486.85,-0 L 600.95,-0 L 600.95,-6 L 601.006,-6.53017
 L 601.17,-7.03717 L 601.437,-7.49884 L 601.794,-7.895 L 602.225,-8.20836 L 602.712,-8.42519 L 603.233,-8.53603
 L 603.767,-8.53603 L 604.288,-8.42519 L 604.775,-8.20836 L 605.206,-7.895 L 605.563,-7.49884 L 605.83,-7.03717
 L 605.994,-6.53017 L 606.05,-6 L 606.05,-0 L 611,-0 z
M 6.98573,-55.607 L 6.47708,-55.6875 L 5.97964,-55.8208 L 5.49887,-56.0054 L 5.04001,-56.2392 L 4.60811,-56.5196
 L 4.20789,-56.8437 L 3.84373,-57.2079 L 3.51964,-57.6081 L 3.23917,-58.04 L 3.00537,-58.4989 L 2.82082,-58.9796
 L 2.68752,-59.4771 L 2.60696,-59.9857 L 2.58,-60.5 L 2.60696,-61.0143 L 2.68752,-61.5229 L 2.82082,-62.0204
 L 3.00537,-62.5011 L 3.23917,-62.96 L 3.51964,-63.3919 L 3.84373,-63.7921 L 4.20789,-64.1563 L 4.60811,-64.4804
 L 4.95001,-64.7024 L 4.95001,-74 L 5.00574,-74.5302 L 5.17047,-75.0372 L 5.43701,-75.4988 L 5.79373,-75.895
 L 6.22501,-76.2084 L 6.71202,-76.4252 L 7.23346,-76.536 L 7.76654,-76.536 L 8.28798,-76.4252 L 8.77499,-76.2084
 L 9.20627,-75.895 L 9.56299,-75.4988 L 9.82953,-75.0372 L 9.99426,-74.5302 L 10.05,-74 L 10.05,-64.7024
 L 10.3919,-64.4804 L 10.7921,-64.1563 L 11.1563,-63.7921 L 11.4804,-63.3919 L 11.7608,-62.96 L 11.9946,-62.5011
 L 12.1792,-62.0204 L 12.3125,-61.5229 L 12.393,-61.0143 L 12.42,-60.5 L 12.393,-59.9857 L 12.3125,-59.4771
 L 12.1792,-58.9796 L 11.9946,-58.4989 L 11.7608,-58.04 L 11.4804,-57.6081 L 11.1563,-57.2079 L 10.7921,-56.8437
 L 10.3919,-56.5196 L 9.95999,-56.2392 L 9.50113,-56.0054 L 9.02036,-55.8208 L 8.52292,-55.6875 L 8.01427,-55.607
 L 7.5,-55.58 z
M 126.186,-55.607 L 125.677,-55.6875 L 125.18,-55.8208 L 124.699,-56.0054 L 124.24,-56.2392 L 123.808,-56.5196
 L 123.408,-56.8437 L 123.044,-57.2079 L 122.72,-57.6081 L 122.439,-58.04 L 122.205,-58.4989 L 122.021,-58.9796
 L 121.888,-59.4771 L 121.807,-59.9857 L 121.78,-60.5 L 121.807,-61.0143 L 121.888,-61.5229 L 122.021,-62.0204
 L 122.205,-62.5011 L 122.439,-62.96 L 122.72,-63.3919 L 123.044,-63.7921 L 123.408,-64.1563 L 123.808,-64.4804
 L 124.15,-64.7024 L 124.15,-74 L 124.206,-74.5302 L 124.37,-75.0372 L 124.637,-75.4988 L 124.994,-75.895
 L 125.425,-76.2084 L 125.912,-76.4252 L 126.433,-76.536 L 126.967,-76.536 L 127.488,-76.4252 L 127.975,-76.2084
 L 128.406,-75.895 L 128.763,-75.4988 L 129.03,-75.0372 L 129.194,-74.5302 L 129.25,-74 L 129.25,-64.7024
 L 129.592,-64.4804 L 129.992,-64.1563 L 130.356,-63.7921 L 130.68,-63.3919 L 130.961,-62.96 L 131.195,-62.5011
 L 131.379,-62.0204 L 131.512,-61.5229 L 131.593,-61.0143 L 131.62,-60.5 L 131.593,-59.9857 L 131.512,-59.4771
 L 131.379,-58.9796 L 131.195,-58.4989 L 130.961,-58.04 L 130.68,-57.6081 L 130.356,-57.2079 L 129.992,-56.8437
 L 129.592,-56.5196 L 129.16,-56.2392 L 128.701,-56.0054 L 128.22,-55.8208 L 127.723,-55.6875 L 127.214,-55.607
 L 126.7,-55.58 z
M 245.386,-55.607 L 244.877,-55.6875 L 244.38,-55.8208 L 243.899,-56.0054 L 243.44,-56.2392 L 243.008,-56.5196
 L 242.608,-56.8437 L 242.244,-57.2079 L 241.92,-57.6081 L 241.639,-58.04 L 241.405,-58.4989 L 241.221,-58.9796
 L 241.088,-59.4771 L 241.007,-59.9857 L 240.98,-60.5 L 241.007,-61.0143 L 241.088,-61.5229 L 241.221,-62.0204
 L 241.405,-62.5011 L 241.639,-62.96 L 241.92,-63.3919 L 242.244,-63.7921 L 242.608,-64.1563 L 243.008,-64.4804
 L 243.35,-64.7024 L 243.35,-74 L 243.406,-74.5302 L 243.57,-75.0372 L 243.837,-75.4988 L 244.194,-75.895
 L 244.625,-76.2084 L 245.112,-76.4252 L 245.633,-76.536 L 246.167,-76.536 L 246.688,-76.4252 L 247.175,-76.2084
 L 247.606,-75.895 L 247.963,-75.4988 L 248.23,-75.0372 L 248.394,-74.5302 L 248.45,-74 L 248.45,-64.7024
 L 248.792,-64.4804 L 249.192,-64.1563 L 249.556,-63.7921 L 249.88,-63.3919 L 250.161,-62.96 L 250.395,-62.5011
 L 250.579,-62.0204 L 250.712,-61.5229 L 250.793,-61.0143 L 250.82,-60.5 L 250.793,-59.9857 L 250.712,-59.4771
 L 250.579,-58.9796 L 250.395,-58.4989 L 250.161,-58.04 L 249.88,-57.6081 L 249.556,-57.2079 L 249.192,-56.8437
 L 248.792,-56.5196 L 248.36,-56.2392 L 247.901,-56.0054 L 247.42,-55.8208 L 246.923,-55.6875 L 246.414,-55.607
 L 245.9,-55.58 z
M 364.586,-55.607 L 364.077,-55.6875 L 363.58,-55.8208 L 363.099,-56.0054 L 362.64,-56.2392 L 362.208,-56.5196
 L 361.808,-56.8437 L 361.444,-57.2079 L 361.12,-57.6081 L 360.839,-58.04 L 360.605,-58.4989 L 360.421,-58.9796
 L 360.288,-59.4771 L 360.207,-59.9857 L 360.18,-60.5 L 360.207,-61.0143 L 360.288,-61.5229 L 360.421,-62.0204
 L 360.605,-62.5011 L 360.839,-62.96 L 361.12,-63.3919 L 361.444,-63.7921 L 361.808,-64.1563 L 362.208,-64.4804
 L 362.55,-64.7024 L 362.55,-74 L 362.606,-74.5302 L 362.77,-75.0372 L 363.037,-75.4988 L 363.394,-75.895
 L 363.825,-76.2084 L 364.312,-76.4252 L 364.833,-76.536 L 365.367,-76.536 L 365.888,-76.4252 L 366.375,-76.2084
 L 366.806,-75.895 L 367.163,-75.4988 L 367.43,-75.0372 L 367.594,-74.5302 L 367.65,-74 L 367.65,-64.7024
 L 367.992,-64.4804 L 368.392,-64.1563 L 368.756,-63.7921 L 369.08,-63.3919 L 369.361,-62.96 L 369.595,-62.5011
 L 369.779,-62.0204 L 369.912,-61.5229 L 369.993,-61.0143 L 370.02,-60.5 L 369.993,-59.9857 L 369.912,-59.4771
 L 369.779,-58.9796 L 369.595,-58.4989 L 369.361,-58.04 L 369.08,-57.6081 L 368.756,-57.2079 L 368.392,-56.8437
 L 367.992,-56.5196 L 367.56,-56.2392 L 367.101,-56.0054 L 366.62,-55.8208 L 366.123,-55.6875 L 365.614,-55.607
 L 365.1,-55.58 z
M 483.786,-55.607 L 483.277,-55.6875 L 482.78,-55.8208 L 482.299,-56.0054 L 481.84,-56.2392 L 481.408,-56.5196
 L 481.008,-56.8437 L 480.644,-57.2079 L 480.32,-57.6081 L 480.039,-58.04 L 479.805,-58.4989 L 479.621,-58.9796
 L 479.488,-59.4771 L 479.407,-59.9857 L 479.38,-60.5 L 479.407,-61.0143 L 479.488,-61.5229 L 479.621,-62.0204
 L 479.805,-62.5011 L 480.039,-62.96 L 480.32,-63.3919 L 480.644,-63.7921 L 481.008,-64.1563 L 481.408,-64.4804
 L 481.75,-64.7024 L 481.75,-74 L 481.806,-74.5302 L 481.97,-75.0372 L 482.237,-75.4988 L 482.594,-75.895
 L 483.025,-76.2084 L 483.512,-76.4252 L 484.033,-76.536 L 484.567,-76.536 L 485.088,-76.4252 L 485.575,-76.2084
 L 486.006,-75.895 L 486.363,-75.4988 L 486.63,-75.0372 L 486.794,-74.5302 L 486.85,-74 L 486.85,-64.7024
 L 487.192,-64.4804 L 487.592,-64.1563 L 487.956,-63.7921 L 488.28,-63.3919 L 488.561,-62.96 L 488.795,-62.5011
 L 488.979,-62.0204 L 489.112,-61.5229 L 489.193,-61.0143 L 489.22,-60.5 L 489.193,-59.9857 L 489.112,-59.4771
 L 488.979,-58.9796 L 488.795,-58.4989 L 488.561,-58.04 L 488.28,-57.6081 L 487.956,-57.2079 L 487.592,-56.8437
 L 487.192,-56.5196 L 486.76,-56.2392 L 486.301,-56.0054 L 485.82,-55.8208 L 485.323,-55.6875 L 484.814,-55.607
 L 484.3,-55.58 z
M 602.986,-55.607 L 602.477,-55.6875 L 601.98,-55.8208 L 601.499,-56.0054 L 601.04,-56.2392 L 600.608,-56.5196
 L 600.208,-56.8437 L 599.844,-57.2079 L 599.52,-57.6081 L 599.239,-58.04 L 599.005,-58.4989 L 598.821,-58.9796
 L 598.688,-59.4771 L 598.607,-59.9857 L 598.58,-60.5 L 598.607,-61.0143 L 598.688,-61.5229 L 598.821,-62.0204
 L 599.005,-62.5011 L 599.239,-62.96 L 599.52,-63.3919 L 599.844,-63.7921 L 600.208,-64.1563 L 600.608,-64.4804
 L 600.95,-64.7024 L 600.95,-74 L 601.006,-74.5302 L 601.17,-75.0372 L 601.437,-75.4988 L 601.794,-75.895
 L 602.225,-76.2084 L 602.712,-76.4252 L 603.233,-76.536 L 603.767,-76.536 L 604.288,-76.4252 L 604.775,-76.2084
 L 605.206,-75.895 L 605.563,-75.4988 L 605.83,-75.0372 L 605.994,-74.5302 L 606.05,-74 L 606.05,-64.7024
 L 606.392,-64.4804 L 606.792,-64.1563 L 607.156,-63.7921 L 607.48,-63.3919 L 607.761,-62.96 L 607.995,-62.5011
 L 608.179,-62.0204 L 608.312,-61.5229 L 608.393,-61.0143 L 608.42,-60.5 L 608.393,-59.9857 L 608.312,-59.4771
 L 608.179,-58.9796 L 607.995,-58.4989 L 607.761,-58.04 L 607.48,-57.6081 L 607.156,-57.2079 L 606.792,-56.8437
 L 606.392,-56.5196 L 605.96,-56.2392 L 605.501,-56.0054 L 605.02,-55.8208 L 604.523,-55.6875 L 604.014,-55.607
 L 603.5,-55.58 z
M 304.284,-48.8533 L 303.518,-49.1895 L 294.164,-54.5256 L 293.795,-54.7639 L 293.173,-55.3235 L 292.682,-56
 L 292.342,-56.7639 L 292.168,-57.5819 L 292.168,-58.4181 L 292.342,-59.2361 L 292.682,-60 L 293.173,-60.6765
 L 293.795,-61.2361 L 294.519,-61.6542 L 295.314,-61.9126 L 296.146,-62 L 314.854,-62 L 315.293,-61.9759
 L 316.11,-61.7978 L 316.872,-61.4537 L 317.546,-60.9587 L 318.102,-60.3344 L 318.516,-59.608 L 318.771,-58.8114
 L 318.854,-57.9793 L 318.762,-57.1481 L 318.5,-56.3542 L 318.078,-55.6321 L 317.515,-55.0136 L 316.836,-54.5256
 L 307.482,-49.1895 L 306.756,-48.8661 L 305.939,-48.688 L 305.102,-48.6837 z
M 231.684,-24.5719 L 230.918,-24.9081 L 179,-54.5256 L 178.631,-54.7639 L 178.01,-55.3235 L 177.518,-56
 L 177.178,-56.7639 L 177.004,-57.5819 L 177.004,-58.4181 L 177.178,-59.2361 L 177.518,-60 L 178.01,-60.6765
 L 178.631,-61.2361 L 179.355,-61.6542 L 180.151,-61.9126 L 180.982,-62 L 232.9,-62 L 234.136,-61.8042
 L 234.9,-61.4641 L 235.577,-60.9726 L 236.136,-60.3511 L 236.554,-59.627 L 236.813,-58.8316 L 236.9,-58
 L 236.9,-28.3825 L 236.817,-27.5711 L 236.563,-26.7745 L 236.148,-26.0481 L 235.592,-25.4238 L 234.918,-24.9288
 L 234.156,-24.5847 L 233.339,-24.4066 L 232.502,-24.4023 z
M 496.861,-24.4066 L 496.044,-24.5847 L 495.282,-24.9288 L 494.608,-25.4238 L 494.052,-26.0481 L 493.637,-26.7745
 L 493.383,-27.5711 L 493.3,-28.3825 L 493.3,-58 L 493.387,-58.8316 L 493.646,-59.627 L 494.064,-60.3511
 L 494.623,-60.9726 L 495.3,-61.4641 L 496.064,-61.8042 L 497.3,-62 L 549.218,-62 L 550.049,-61.9126
 L 550.845,-61.6542 L 551.569,-61.2361 L 552.19,-60.6765 L 552.682,-60 L 553.022,-59.2361 L 553.196,-58.4181
 L 553.196,-57.5819 L 553.022,-56.7639 L 552.682,-56 L 552.19,-55.3235 L 551.569,-54.7639 L 551.2,-54.5256
 L 499.282,-24.9081 L 498.516,-24.5719 L 497.698,-24.4023 z
M 112.484,-24.5719 L 111.718,-24.9081 L 59.8002,-54.5256 L 59.4311,-54.7639 L 58.8096,-55.3235 L 58.3181,-56
 L 57.978,-56.7639 L 57.8041,-57.5819 L 57.8041,-58.4181 L 57.978,-59.2361 L 58.3181,-60 L 58.8096,-60.6765
 L 59.4311,-61.2361 L 60.1553,-61.6542 L 60.9506,-61.9126 L 61.7822,-62 L 113.7,-62 L 114.936,-61.8042
 L 115.7,-61.4641 L 116.377,-60.9726 L 116.936,-60.3511 L 117.354,-59.627 L 117.613,-58.8316 L 117.7,-58
 L 117.7,-28.3825 L 117.617,-27.5711 L 117.363,-26.7745 L 116.948,-26.0481 L 116.392,-25.4238 L 115.718,-24.9288
 L 114.956,-24.5847 L 114.139,-24.4066 L 113.302,-24.4023 z
M 377.661,-24.4066 L 376.844,-24.5847 L 376.082,-24.9288 L 375.408,-25.4238 L 374.852,-26.0481 L 374.437,-26.7745
 L 374.183,-27.5711 L 374.1,-28.3825 L 374.1,-58 L 374.187,-58.8316 L 374.446,-59.627 L 374.864,-60.3511
 L 375.423,-60.9726 L 376.1,-61.4641 L 376.864,-61.8042 L 378.1,-62 L 430.018,-62 L 430.849,-61.9126
 L 431.645,-61.6542 L 432.369,-61.2361 L 432.99,-60.6765 L 433.482,-60 L 433.822,-59.2361 L 433.996,-58.4181
 L 433.996,-57.5819 L 433.822,-56.7639 L 433.482,-56 L 432.99,-55.3235 L 432.369,-54.7639 L 432,-54.5256
 L 380.082,-24.9081 L 379.316,-24.5719 L 378.498,-24.4023 z
M 258.482,-22.1019 L 257.664,-22.2758 L 256.9,-22.6159 L 256.223,-23.1074 L 255.664,-23.7289 L 255.246,-24.453
 L 254.987,-25.2483 L 254.9,-26.08 L 254.9,-53.92 L 254.983,-54.7314 L 255.237,-55.528 L 255.652,-56.2544
 L 256.208,-56.8787 L 256.882,-57.3737 L 257.644,-57.7178 L 258.461,-57.8959 L 259.298,-57.9002 L 260.116,-57.7306
 L 260.882,-57.3944 L 285.283,-43.4744 L 285.993,-42.9587 L 286.549,-42.3344 L 286.964,-41.608 L 287.218,-40.8114
 L 287.301,-39.9793 L 287.209,-39.1481 L 286.947,-38.3542 L 286.525,-37.6321 L 285.962,-37.0136 L 285.283,-36.5256
 L 260.882,-22.6056 L 260.136,-22.2758 L 259.318,-22.1019 z
M 350.884,-22.2694 L 350.118,-22.6056 L 325.717,-36.5256 L 325.007,-37.0413 L 324.451,-37.6656 L 324.036,-38.392
 L 323.782,-39.1886 L 323.699,-40.0207 L 323.791,-40.8519 L 324.053,-41.6458 L 324.475,-42.3679 L 325.038,-42.9864
 L 325.717,-43.4744 L 350.118,-57.3944 L 350.864,-57.7243 L 351.682,-57.8981 L 352.518,-57.8981 L 353.336,-57.7243
 L 354.1,-57.3841 L 354.777,-56.8926 L 355.336,-56.2712 L 355.754,-55.547 L 356.013,-54.7517 L 356.1,-53.92
 L 356.1,-26.08 L 356.017,-25.2686 L 355.763,-24.472 L 355.348,-23.7456 L 354.792,-23.1213 L 354.118,-22.6263
 L 353.356,-22.2822 L 352.539,-22.1041 L 351.702,-22.0998 z
M 139.7,-18 L 138.464,-18.1958 L 137.7,-18.5359 L 137.023,-19.0274 L 136.464,-19.6489 L 136.046,-20.373
 L 135.787,-21.1684 L 135.7,-22 L 135.7,-51.6175 L 135.783,-52.4289 L 136.037,-53.2255 L 136.452,-53.9519
 L 137.008,-54.5762 L 137.682,-55.0712 L 138.444,-55.4153 L 139.261,-55.5934 L 140.098,-55.5977 L 140.916,-55.4281
 L 141.682,-55.0919 L 193.6,-25.4744 L 193.969,-25.2361 L 194.59,-24.6765 L 195.082,-24 L 195.422,-23.2361
 L 195.596,-22.4181 L 195.596,-21.5819 L 195.422,-20.7639 L 195.082,-20 L 194.59,-19.3235 L 193.969,-18.7639
 L 193.245,-18.3458 L 192.449,-18.0874 L 191.618,-18 z
M 419.382,-18 L 418.551,-18.0874 L 417.755,-18.3458 L 417.031,-18.7639 L 416.41,-19.3235 L 415.918,-20
 L 415.578,-20.7639 L 415.404,-21.5819 L 415.404,-22.4181 L 415.578,-23.2361 L 415.918,-24 L 416.41,-24.6765
 L 417.031,-25.2361 L 417.4,-25.4744 L 469.318,-55.0919 L 470.084,-55.4281 L 470.902,-55.5977 L 471.739,-55.5934
 L 472.556,-55.4153 L 473.318,-55.0712 L 473.992,-54.5762 L 474.548,-53.9519 L 474.963,-53.2255 L 475.217,-52.4289
 L 475.3,-51.6175 L 475.3,-22 L 475.213,-21.1684 L 474.954,-20.373 L 474.536,-19.6489 L 473.977,-19.0274
 L 473.3,-18.5359 L 472.536,-18.1958 L 471.3,-18 z
M 22,-18 L 20.7639,-18.1958 L 20,-18.5359 L 19.3235,-19.0274 L 18.7639,-19.6489 L 18.3458,-20.373
 L 18.0874,-21.1684 L 18,-22 L 18,-50.7618 L 18.0832,-51.5732 L 18.3374,-52.3698 L 18.7518,-53.0962
 L 19.3081,-53.7205 L 19.9821,-54.2155 L 20.7443,-54.5596 L 21.5613,-54.7377 L 22.3975,-54.742 L 23.2164,-54.5724
 L 23.982,-54.2362 L 74.3998,-25.4744 L 74.7689,-25.2361 L 75.3904,-24.6765 L 75.8819,-24 L 76.222,-23.2361
 L 76.3959,-22.4181 L 76.3959,-21.5819 L 76.222,-20.7639 L 75.8819,-20 L 75.3904,-19.3235 L 74.7689,-18.7639
 L 74.0447,-18.3458 L 73.2494,-18.0874 L 72.4178,-18 z
M 538.582,-18 L 537.751,-18.0874 L 536.955,-18.3458 L 536.231,-18.7639 L 535.61,-19.3235 L 535.118,-20
 L 534.778,-20.7639 L 534.604,-21.5819 L 534.604,-22.4181 L 534.778,-23.2361 L 535.118,-24 L 535.61,-24.6765
 L 536.231,-25.2361 L 536.6,-25.4744 L 587.018,-54.2362 L 587.784,-54.5724 L 588.602,-54.742 L 589.439,-54.7377
 L 590.256,-54.5596 L 591.018,-54.2155 L 591.692,-53.7205 L 592.248,-53.0962 L 592.663,-52.3698 L 592.917,-51.5732
 L 593,-50.7618 L 593,-22 L 592.913,-21.1684 L 592.654,-20.373 L 592.236,-19.6489 L 591.677,-19.0274
 L 591,-18.5359 L 590.236,-18.1958 L 589,-18 z
M 296.146,-18 L 295.707,-18.0241 L 294.89,-18.2022 L 294.128,-18.5463 L 293.454,-19.0413 L 292.898,-19.6656
 L 292.484,-20.392 L 292.229,-21.1886 L 292.146,-22.0207 L 292.238,-22.8519 L 292.5,-23.6458 L 292.922,-24.3679
 L 293.485,-24.9864 L 294.164,-25.4744 L 303.518,-30.8105 L 304.244,-31.1339 L 305.061,-31.312 L 305.898,-31.3163
 L 306.716,-31.1467 L 307.482,-30.8105 L 316.836,-25.4744 L 317.205,-25.2361 L 317.827,-24.6765 L 318.318,-24
 L 318.658,-23.2361 L 318.832,-22.4181 L 318.832,-21.5819 L 318.658,-20.7639 L 318.318,-20 L 317.827,-19.3235
 L 317.205,-18.7639 L 316.481,-18.3458 L 315.686,-18.0874 L 314.854,-18 z
" stroke="black" fill="lightgray" stroke-width="0.5"/>
</svg>
