<?xml version="1.0" standalone="no"?>
<!DOCTYPE svg PUBLIC "-//W3C//DTD SVG 1.1//EN" "http://www.w3.org/Graphics/SVG/1.1/DTD/svg11.dtd">
<svg width="717mm" height="80mm" viewBox="0 -80 717 80" xmlns="http://www.w3.org/2000/svg" version="1.1">
<title>OpenSCAD Model</title>
<path d="
M 717,-80 L 0,-80 L 0,-0 L 4.95,-0 L 4.95,-6 L 5.00572,-6.53017
 L 5.17046,-7.03717 L 5.437,-7.49884 L 5.79372,-7.895 L 6.22499,-8.20836 L 6.71201,-8.42519 L 7.23344,-8.53603
 L 7.76654,-8.53603 L 8.28798,-8.42519 L 8.77499,-8.20836 L 9.20627,-7.895 L 9.56299,-7.49884 L 9.82953,-7.03717
 L 9.99426,-6.53017 L 10.05,-6 L 10.05,-0 L 145.35,-0 L 145.35,-6 L 145.406,-6.53017
 L 145.57,-7.03717 L 145.837,-7.49884 L 146.194,-7.895 L 146.625,-8.20836 L 147.112,-8.42519 L 147.633,-8.53603
 L 148.167,-8.53603 L 148.688,-8.42519 L 149.175,-8.20836 L 149.606,-7.895 L 149.963,-7.49884 L 150.23,-7.03717
 L 150.394,-6.53017 L 150.45,-6 L 150.45,-0 L 285.75,-0 L 285.75,-6 L 285.806,-6.53017
 L 285.97,-7.03717 L 286.237,-7.49884 L 286.594,-7.895 L 287.025,-8.20836 L 287.512,-8.42519 L 288.033,-8.53603
 L 288.567,-8.53603 L 289.088,-8.42519 L 289.575,-8.20836 L 290.006,-7.895 L 290.363,-7.49884 L 290.63,-7.03717
 L 290.794,-6.53017 L 290.85,-6 L 290.85,-0 L 426.15,-0 L 426.15,-6 L 426.206,-6.53017
 L 426.37,-7.03717 L 426.637,-7.49884 L 426.994,-7.895 L 427.425,-8.20836 L 427.912,-8.42519 L 428.433,-8.53603
 L 428.967,-8.53603 L 429.488,-8.42519 L 429.975,-8.20836 L 430.406,-7.895 L 430.763,-7.49884 L 431.03,-7.03717
 L 431.194,-6.53017 L 431.25,-6 L 431.25,-0 L 566.55,-0 L 566.55,-6 L 566.606,-6.53017
 L 566.77,-7.03717 L 567.037,-7.49884 L 567.394,-7.895 L 567.825,-8.20836 L 568.312,-8.42519 L 568.833,-8.53603
 L 569.367,-8.53603 L 569.888,-8.42519 L 570.375,-8.20836 L 570.806,-7.895 L 571.163,-7.49884 L 571.43,-7.03717
 L 571.594,-6.53017 L 571.65,-6 L 571.65,-0 L 706.95,-0 L 706.95,-6 L 707.006,-6.53017
 L 707.17,-7.03717 L 707.437,-7.49884 L 707.794,-7.895 L 708.225,-8.20836 L 708.712,-8.42519 L 709.233,-8.53603
 L 709.767,-8.53603 L 710.288,-8.42519 L 710.775,-8.20836 L 711.206,-7.895 L 711.563,-7.49884 L 711.83,-7.03717
 L 711.994,-6.53017 L 712.05,-6 L 712.05,-0 L 717,-0 z
M 6.98573,-55.607 L 6.47708,-55.6875 L 5.97964,-55.8208 L 5.49887,-56.0054 L 5.04001,-56.2392 L 4.60811,-56.5196
 L 4.20789,-56.8437 L 3.84373,-57.2079 L 3.51964,-57.6081 L 3.23917,-58.04 L 3.00537,-58.4989 L 2.82082,-58.9796
 L 2.68752,-59.4771 L 2.60696,-59.9857 L 2.58,-60.5 L 2.60696,-61.0143 L 2.68752,-61.5229 L 2.82082,-62.0204
 L 3.00537,-62.5011 L 3.23917,-62.96 L 3.51964,-63.3919 L 3.84373,-63.7921 L 4.20789,-64.1563 L 4.60811,-64.4804
 L 4.95001,-64.7024 L 4.95001,-74 L 5.00574,-74.5302 L 5.17047,-75.0372 L 5.43701,-75.4988 L 5.79373,-75.895
 L 6.22501,-76.2084 L 6.71202,-76.4252 L 7.23346,-76.536 L 7.76654,-76.536 L 8.28798,-76.4252 L 8.77499,-76.2084
 L 9.20627,-75.895 L 9.56299,-75.4988 L 9.82953,-75.0372 L 9.99426,-74.5302 L 10.05,-74 L 10.05,-64.7024
 L 10.3919,-64.4804 L 10.7921,-64.1563 L 11.1563,-63.7921 L 11.4804,-63.3919 L 11.7608,-62.96 L 11.9946,-62.5011
 L 12.1792,-62.0204 L 12.3125,-61.5229 L 12.393,-61.0143 L 12.42,-60.5 L 12.393,-59.9857 L 12.3125,-59.4771
 L 12.1792,-58.9796 L 11.9946,-58.4989 L 11.7608,-58.04 L 11.4804,-57.6081 L 11.1563,-57.2079 L 10.7921,-56.8437
 L 10.3919,-56.5196 L 9.95999,-56.2392 L 9.50113,-56.0054 L 9.02036,-55.8208 L 8.52292,-55.6875 L 8.01427,-55.607
 L 7.5,-55.58 z
M 147.386,-55.607 L 146.877,-55.6875 L 146.38,-55.8208 L 145.899,-56.0054 L 145.44,-56.2392 L 145.008,-56.5196
 L 144.608,-56.8437 L 144.244,-57.2079 L 143.92,-57.6081 L 143.639,-58.04 L 143.405,-58.4989 L 143.221,-58.9796
 L 143.088,-59.4771 L 143.007,-59.9857 L 142.98,-60.5 L 143.007,-61.0143 L 143.088,-61.5229 L 143.221,-62.0204
 L 143.405,-62.5011 L 143.639,-62.96 L 143.92,-63.3919 L 144.244,-63.7921 L 144.608,-64.1563 L 145.008,-64.4804
 L 145.35,-64.7024 L 145.35,-74 L 145.406,-74.5302 L 145.57,-75.0372 L 145.837,-75.4988 L 146.194,-75.895
 L 146.625,-76.2084 L 147.112,-76.4252 L 147.633,-76.536 L 148.167,-76.536 L 148.688,-76.4252 L 149.175,-76.2084
 L 149.606,-75.895 L 149.963,-75.4988 L 150.23,-75.0372 L 150.394,-74.5302 L 150.45,-74 L 150.45,-64.7024
 L 150.792,-64.4804 L 151.192,-64.1563 L 151.556,-63.7921 L 151.88,-63.3919 L 152.161,-62.96 L 152.395,-62.5011
 L 152.579,-62.0204 L 152.712,-61.5229 L 152.793,-61.0143 L 152.82,-60.5 L 152.793,-59.9857 L 152.712,-59.4771
 L 152.579,-58.9796 L 152.395,-58.4989 L 152.161,-58.04 L 151.88,-57.6081 L 151.556,-57.2079 L 151.192,-56.8437
 L 150.792,-56.5196 L 150.36,-56.2392 L 149.901,-56.0054 L 149.42,-55.8208 L 148.923,-55.6875 L 148.414,-55.607
 L 147.9,-55.58 z
M 287.786,-55.607 L 287.277,-55.6875 L 286.78,-55.8208 L 286.299,-56.0054 L 285.84,-56.2392 L 285.408,-56.5196
 L 285.008,-56.8437 L 284.644,-57.2079 L 284.32,-57.6081 L 284.039,-58.04 L 283.805,-58.4989 L 283.621,-58.9796
 L 283.488,-59.4771 L 283.407,-59.9857 L 283.38,-60.5 L 283.407,-61.0143 L 283.488,-61.5229 L 283.621,-62.0204
 L 283.805,-62.5011 L 284.039,-62.96 L 284.32,-63.3919 L 284.644,-63.7921 L 285.008,-64.1563 L 285.408,-64.4804
 L 285.75,-64.7024 L 285.75,-74 L 285.806,-74.5302 L 285.97,-75.0372 L 286.237,-75.4988 L 286.594,-75.895
 L 287.025,-76.2084 L 287.512,-76.4252 L 288.033,-76.536 L 288.567,-76.536 L 289.088,-76.4252 L 289.575,-76.2084
 L 290.006,-75.895 L 290.363,-75.4988 L 290.63,-75.0372 L 290.794,-74.5302 L 290.85,-74 L 290.85,-64.7024
 L 291.192,-64.4804 L 291.592,-64.1563 L 291.956,-63.7921 L 292.28,-63.3919 L 292.561,-62.96 L 292.795,-62.5011
 L 292.979,-62.0204 L 293.112,-61.5229 L 293.193,-61.0143 L 293.22,-60.5 L 293.193,-59.9857 L 293.112,-59.4771
 L 292.979,-58.9796 L 292.795,-58.4989 L 292.561,-58.04 L 292.28,-57.6081 L 291.956,-57.2079 L 291.592,-56.8437
 L 291.192,-56.5196 L 290.76,-56.2392 L 290.301,-56.0054 L 289.82,-55.8208 L 289.323,-55.6875 L 288.814,-55.607
 L 288.3,-55.58 z
M 428.186,-55.607 L 427.677,-55.6875 L 427.18,-55.8208 L 426.699,-56.0054 L 426.24,-56.2392 L 425.808,-56.5196
 L 425.408,-56.8437 L 425.044,-57.2079 L 424.72,-57.6081 L 424.439,-58.04 L 424.205,-58.4989 L 424.021,-58.9796
 L 423.888,-59.4771 L 423.807,-59.9857 L 423.78,-60.5 L 423.807,-61.0143 L 423.888,-61.5229 L 424.021,-62.0204
 L 424.205,-62.5011 L 424.439,-62.96 L 424.72,-63.3919 L 425.044,-63.7921 L 425.408,-64.1563 L 425.808,-64.4804
 L 426.15,-64.7024 L 426.15,-74 L 426.206,-74.5302 L 426.37,-75.0372 L 426.637,-75.4988 L 426.994,-75.895
 L 427.425,-76.2084 L 427.912,-76.4252 L 428.433,-76.536 L 428.967,-76.536 L 429.488,-76.4252 L 429.975,-76.2084
 L 430.406,-75.895 L 430.763,-75.4988 L 431.03,-75.0372 L 431.194,-74.5302 L 431.25,-74 L 431.25,-64.7024
 L 431.592,-64.4804 L 431.992,-64.1563 L 432.356,-63.7921 L 432.68,-63.3919 L 432.961,-62.96 L 433.195,-62.5011
 L 433.379,-62.0204 L 433.512,-61.5229 L 433.593,-61.0143 L 433.62,-60.5 L 433.593,-59.9857 L 433.512,-59.4771
 L 433.379,-58.9796 L 433.195,-58.4989 L 432.961,-58.04 L 432.68,-57.6081 L 432.356,-57.2079 L 431.992,-56.8437
 L 431.592,-56.5196 L 431.16,-56.2392 L 430.701,-56.0054 L 430.22,-55.8208 L 429.723,-55.6875 L 429.214,-55.607
 L 428.7,-55.58 z
M 568.586,-55.607 L 568.077,-55.6875 L 567.58,-55.8208 L 567.099,-56.0054 L 566.64,-56.2392 L 566.208,-56.5196
 L 565.808,-56.8437 L 565.444,-57.2079 L 565.12,-57.6081 L 564.839,-58.04 L 564.605,-58.4989 L 564.421,-58.9796
 L 564.288,-59.4771 L 564.207,-59.9857 L 564.18,-60.5 L 564.207,-61.0143 L 564.288,-61.5229 L 564.421,-62.0204
 L 564.605,-62.5011 L 564.839,-62.96 L 565.12,-63.3919 L 565.444,-63.7921 L 565.808,-64.1563 L 566.208,-64.4804
 L 566.55,-64.7024 L 566.55,-74 L 566.606,-74.5302 L 566.77,-75.0372 L 567.037,-75.4988 L 567.394,-75.895
 L 567.825,-76.2084 L 568.312,-76.4252 L 568.833,-76.536 L 569.367,-76.536 L 569.888,-76.4252 L 570.375,-76.2084
 L 570.806,-75.895 L 571.163,-75.4988 L 571.43,-75.0372 L 571.594,-74.5302 L 571.65,-74 L 571.65,-64.7024
 L 571.992,-64.4804 L 572.392,-64.1563 L 572.756,-63.7921 L 573.08,-63.3919 L 573.361,-62.96 L 573.595,-62.5011
 L 573.779,-62.0204 L 573.912,-61.5229 L 573.993,-61.0143 L 574.02,-60.5 L 573.993,-59.9857 L 573.912,-59.4771
 L 573.779,-58.9796 L 573.595,-58.4989 L 573.361,-58.04 L 573.08,-57.6081 L 572.756,-57.2079 L 572.392,-56.8437
 L 571.992,-56.5196 L 571.56,-56.2392 L 571.101,-56.0054 L 570.62,-55.8208 L 570.123,-55.6875 L 569.614,-55.607
 L 569.1,-55.58 z
M 708.986,-55.607 L 708.477,-55.6875 L 707.98,-55.8208 L 707.499,-56.0054 L 707.04,-56.2392 L 706.608,-56.5196
 L 706.208,-56.8437 L 705.844,-57.2079 L 705.52,-57.6081 L 705.239,-58.04 L 705.005,-58.4989 L 704.821,-58.9796
 L 704.688,-59.4771 L 704.607,-59.9857 L 704.58,-60.5 L 704.607,-61.0143 L 704.688,-61.5229 L 704.821,-62.0204
 L 705.005,-62.5011 L 705.239,-62.96 L 705.52,-63.3919 L 705.844,-63.7921 L 706.208,-64.1563 L 706.608,-64.4804
 L 706.95,-64.7024 L 706.95,-74 L 707.006,-74.5302 L 707.17,-75.0372 L 707.437,-75.4988 L 707.794,-75.895
 L 708.225,-76.2084 L 708.712,-76.4252 L 709.233,-76.536 L 709.767,-76.536 L 710.288,-76.4252 L 710.775,-76.2084
 L 711.206,-75.895 L 711.563,-75.4988 L 711.83,-75.0372 L 711.994,-74.5302 L 712.05,-74 L 712.05,-64.7024
 L 712.392,-64.4804 L 712.792,-64.1563 L 713.156,-63.7921 L 713.48,-63.3919 L 713.761,-62.96 L 713.995,-62.5011
 L 714.179,-62.0204 L 714.312,-61.5229 L 714.393,-61.0143 L 714.42,-60.5 L 714.393,-59.9857 L 714.312,-59.4771
 L 714.179,-58.9796 L 713.995,-58.4989 L 713.761,-58.04 L 713.48,-57.6081 L 713.156,-57.2079 L 712.792,-56.8437
 L 712.392,-56.5196 L 711.96,-56.2392 L 711.501,-56.0054 L 711.02,-55.8208 L 710.523,-55.6875 L 710.014,-55.607
 L 709.5,-55.58 z
M 357.543,-48.3321 L 356.756,-48.616 L 344.814,-54.4 L 344.206,-54.7639 L 343.585,-55.3235 L 343.094,-56
 L 342.753,-56.7639 L 342.58,-57.5819 L 342.58,-58.4181 L 342.753,-59.2361 L 343.094,-60 L 343.585,-60.6765
 L 344.206,-61.2361 L 344.931,-61.6542 L 345.726,-61.9126 L 346.558,-62 L 370.442,-62 L 371.148,-61.9373
 L 371.951,-61.7046 L 372.688,-61.31 L 373.327,-60.7707 L 373.84,-60.1103 L 374.205,-59.3577 L 374.405,-58.5458
 L 374.432,-57.71 L 374.284,-56.8869 L 373.969,-56.1124 L 373.499,-55.4204 L 372.896,-54.8412 L 372.186,-54.4
 L 360.244,-48.616 L 359.205,-48.2786 L 358.371,-48.218 z
M 274.343,-22.8495 L 273.556,-23.1333 L 209,-54.4 L 208.392,-54.7639 L 207.771,-55.3235 L 207.279,-56
 L 206.939,-56.7639 L 206.765,-57.5819 L 206.765,-58.4181 L 206.939,-59.2361 L 207.279,-60 L 207.771,-60.6765
 L 208.392,-61.2361 L 209.117,-61.6542 L 209.912,-61.9126 L 210.743,-62 L 275.3,-62 L 276.536,-61.8042
 L 277.3,-61.4641 L 277.977,-60.9726 L 278.536,-60.3511 L 278.954,-59.627 L 279.213,-58.8316 L 279.3,-58
 L 279.3,-26.7333 L 279.263,-26.1875 L 279.063,-25.3756 L 278.698,-24.623 L 278.185,-23.9626 L 277.546,-23.4233
 L 276.809,-23.0287 L 276.005,-22.796 L 275.171,-22.7354 z
M 581.395,-22.796 L 580.591,-23.0287 L 579.854,-23.4233 L 579.215,-23.9626 L 578.702,-24.623 L 578.337,-25.3756
 L 578.137,-26.1875 L 578.1,-26.7333 L 578.1,-58 L 578.187,-58.8316 L 578.446,-59.627 L 578.864,-60.3511
 L 579.423,-60.9726 L 580.1,-61.4641 L 580.864,-61.8042 L 582.1,-62 L 646.657,-62 L 647.488,-61.9126
 L 648.283,-61.6542 L 649.008,-61.2361 L 649.629,-60.6765 L 650.121,-60 L 650.461,-59.2361 L 650.635,-58.4181
 L 650.635,-57.5819 L 650.461,-56.7639 L 650.121,-56 L 649.629,-55.3235 L 649.008,-54.7639 L 648.4,-54.4
 L 583.844,-23.1333 L 583.057,-22.8495 L 582.229,-22.7354 z
M 133.943,-22.8495 L 133.156,-23.1333 L 68.5999,-54.4 L 67.9924,-54.7639 L 67.3709,-55.3235 L 66.8794,-56
 L 66.5393,-56.7639 L 66.3654,-57.5819 L 66.3654,-58.4181 L 66.5393,-59.2361 L 66.8794,-60 L 67.3709,-60.6765
 L 67.9924,-61.2361 L 68.7165,-61.6542 L 69.5118,-61.9126 L 70.3435,-62 L 134.9,-62 L 136.136,-61.8042
 L 136.9,-61.4641 L 137.577,-60.9726 L 138.136,-60.3511 L 138.554,-59.627 L 138.813,-58.8316 L 138.9,-58
 L 138.9,-26.7333 L 138.863,-26.1875 L 138.663,-25.3756 L 138.298,-24.623 L 137.785,-23.9626 L 137.146,-23.4233
 L 136.409,-23.0287 L 135.605,-22.796 L 134.771,-22.7354 z
M 440.995,-22.796 L 440.191,-23.0287 L 439.454,-23.4233 L 438.815,-23.9626 L 438.302,-24.623 L 437.937,-25.3756
 L 437.737,-26.1875 L 437.7,-26.7333 L 437.7,-58 L 437.787,-58.8316 L 438.046,-59.627 L 438.464,-60.3511
 L 439.023,-60.9726 L 439.7,-61.4641 L 440.464,-61.8042 L 441.7,-62 L 506.257,-62 L 507.088,-61.9126
 L 507.883,-61.6542 L 508.608,-61.2361 L 509.229,-60.6765 L 509.721,-60 L 510.061,-59.2361 L 510.235,-58.4181
 L 510.235,-57.5819 L 510.061,-56.7639 L 509.721,-56 L 509.229,-55.3235 L 508.608,-54.7639 L 508,-54.4
 L 443.444,-23.1333 L 442.657,-22.8495 L 441.829,-22.7354 z
M 300.882,-20.5342 L 300.064,-20.708 L 299.3,-21.0482 L 298.623,-21.5397 L 298.064,-22.1611 L 297.646,-22.8853
 L 297.387,-23.6806 L 297.3,-24.5123 L 297.3,-55.4877 L 297.337,-56.0335 L 297.537,-56.8455 L 297.902,-57.5981
 L 298.415,-58.2585 L 299.054,-58.7977 L 299.791,-59.1924 L 300.595,-59.425 L 301.429,-59.4857 L 302.257,-59.3716
 L 303.044,-59.0877 L 335.021,-43.6 L 335.524,-43.31 L 336.163,-42.7707 L 336.676,-42.1103 L 337.04,-41.3577
 L 337.24,-40.5458 L 337.267,-39.71 L 337.12,-38.8869 L 336.804,-38.1124 L 336.335,-37.4204 L 335.732,-36.8412
 L 335.021,-36.4 L 303.044,-20.9123 L 302.536,-20.708 L 301.718,-20.5342 z
M 414.743,-20.6284 L 413.956,-20.9122 L 381.979,-36.4 L 381.476,-36.69 L 380.837,-37.2293 L 380.324,-37.8897
 L 379.96,-38.6423 L 379.76,-39.4542 L 379.733,-40.29 L 379.88,-41.1131 L 380.196,-41.8876 L 380.665,-42.5796
 L 381.268,-43.1588 L 381.979,-43.6 L 413.956,-59.0878 L 414.464,-59.292 L 415.282,-59.4659 L 416.118,-59.4659
 L 416.936,-59.292 L 417.7,-58.9519 L 418.377,-58.4603 L 418.936,-57.8389 L 419.354,-57.1147 L 419.613,-56.3194
 L 419.7,-55.4878 L 419.7,-24.5122 L 419.663,-23.9664 L 419.463,-23.1545 L 419.098,-22.4019 L 418.585,-21.7415
 L 417.946,-21.2023 L 417.209,-20.8076 L 416.405,-20.5749 L 415.571,-20.5143 z
M 160.9,-18 L 159.664,-18.1958 L 158.9,-18.5359 L 158.223,-19.0274 L 157.664,-19.6489 L 157.246,-20.373
 L 156.987,-21.1684 L 156.9,-22 L 156.9,-53.2667 L 156.937,-53.8125 L 157.137,-54.6244 L 157.502,-55.377
 L 158.015,-56.0374 L 158.654,-56.5767 L 159.391,-56.9713 L 160.195,-57.204 L 161.029,-57.2646 L 161.857,-57.1505
 L 162.644,-56.8667 L 227.2,-25.6 L 227.808,-25.2361 L 228.429,-24.6765 L 228.921,-24 L 229.261,-23.2361
 L 229.435,-22.4181 L 229.435,-21.5819 L 229.261,-20.7639 L 228.921,-20 L 228.429,-19.3235 L 227.808,-18.7639
 L 227.083,-18.3458 L 226.288,-18.0874 L 225.456,-18 z
M 491.544,-18 L 490.712,-18.0874 L 489.917,-18.3458 L 489.192,-18.7639 L 488.571,-19.3235 L 488.079,-20
 L 487.739,-20.7639 L 487.565,-21.5819 L 487.565,-22.4181 L 487.739,-23.2361 L 488.079,-24 L 488.571,-24.6765
 L 489.192,-25.2361 L 489.8,-25.6 L 554.356,-56.8667 L 555.143,-57.1505 L 555.971,-57.2646 L 556.805,-57.204
 L 557.609,-56.9713 L 558.346,-56.5767 L 558.985,-56.0374 L 559.498,-55.377 L 559.863,-54.6244 L 560.063,-53.8125
 L 560.1,-53.2667 L 560.1,-22 L 560.013,-21.1684 L 559.754,-20.373 L 559.336,-19.6489 L 558.777,-19.0274
 L 558.1,-18.5359 L 557.336,-18.1958 L 556.1,-18 z
M 22,-18 L 20.7639,-18.1958 L 20,-18.5359 L 19.3235,-19.0274 L 18.7639,-19.6489 L 18.3458,-20.373
 L 18.0874,-21.1684 L 18,-22 L 18,-52.5402 L 18.0374,-53.086 L 18.2375,-53.8979 L 18.602,-54.6505
 L 19.115,-55.3109 L 19.7541,-55.8502 L 20.4914,-56.2448 L 21.2946,-56.4775 L 22.1286,-56.5381 L 22.957,-56.424
 L 23.7436,-56.1402 L 86.8001,-25.6 L 87.4076,-25.2361 L 88.0291,-24.6765 L 88.5206,-24 L 88.8607,-23.2361
 L 89.0346,-22.4181 L 89.0346,-21.5819 L 88.8607,-20.7639 L 88.5206,-20 L 88.0291,-19.3235 L 87.4076,-18.7639
 L 86.6834,-18.3458 L 85.8881,-18.0874 L 85.0565,-18 z
M 631.944,-18 L 631.112,-18.0874 L 630.317,-18.3458 L 629.592,-18.7639 L 628.971,-19.3235 L 628.479,-20
 L 628.139,-20.7639 L 627.965,-21.5819 L 627.965,-22.4181 L 628.139,-23.2361 L 628.479,-24 L 628.971,-24.6765
 L 629.592,-25.2361 L 630.2,-25.6 L 693.256,-56.1402 L 694.043,-56.424 L 694.871,-56.5381 L 695.705,-56.4775
 L 696.509,-56.2448 L 697.246,-55.8502 L 697.885,-55.3109 L 698.398,-54.6505 L 698.763,-53.8979 L 698.963,-53.086
 L 699,-52.5402 L 699,-22 L 698.913,-21.1684 L 698.654,-20.373 L 698.236,-19.6489 L 697.677,-19.0274
 L 697,-18.5359 L 696.236,-18.1958 L 695,-18 z
M 346.558,-18 L 345.852,-18.0627 L 345.049,-18.2954 L 344.312,-18.69 L 343.673,-19.2293 L 343.16,-19.8897
 L 342.795,-20.6423 L 342.595,-21.4542 L 342.568,-22.29 L 342.716,-23.1131 L 343.031,-23.8876 L 343.501,-24.5796
 L 344.104,-25.1588 L 344.814,-25.6 L 356.756,-31.384 L 357.795,-31.7214 L 358.629,-31.782 L 359.457,-31.6679
 L 360.244,-31.384 L 372.186,-25.6 L 372.793,-25.2361 L 373.415,-24.6765 L 373.906,-24 L 374.247,-23.2361
 L 374.42,-22.4181 L 374.42,-21.5819 L 374.247,-20.7639 L 373.906,-20 L 373.415,-19.3235 L 372.793,-18.7639
 L 372.069,-18.3458 L 371.274,-18.0874 L 370.442,-18 z
" stroke="black" fill="lightgray" stroke-width="0.5"/>
</svg>
