<?xml version="1.0" standalone="no"?>
<!DOCTYPE svg PUBLIC "-//W3C//DTD SVG 1.1//EN" "http://www.w3.org/Graphics/SVG/1.1/DTD/svg11.dtd">
<svg width="927mm" height="80mm" viewBox="0 -80 927 80" xmlns="http://www.w3.org/2000/svg" version="1.1">
<title>OpenSCAD Model</title>
<path d="
M 927,-80 L 0,-80 L 0,-0 L 4.95,-0 L 4.95,-6 L 5.00572,-6.53017
 L 5.17046,-7.03717 L 5.437,-7.49884 L 5.79372,-7.895 L 6.22499,-8.20836 L 6.71201,-8.42519 L 7.23344,-8.53603
 L 7.76654,-8.53603 L 8.28798,-8.42519 L 8.77499,-8.20836 L 9.20627,-7.895 L 9.56299,-7.49884 L 9.82953,-7.03717
 L 9.99426,-6.53017 L 10.05,-6 L 10.05,-0 L 187.35,-0 L 187.35,-6 L 187.406,-6.53017
 L 187.57,-7.03717 L 187.837,-7.49884 L 188.194,-7.895 L 188.625,-8.20836 L 189.112,-8.42519 L 189.633,-8.53603
 L 190.167,-8.53603 L 190.688,-8.42519 L 191.175,-8.20836 L 191.606,-7.895 L 191.963,-7.49884 L 192.23,-7.03717
 L 192.394,-6.53017 L 192.45,-6 L 192.45,-0 L 369.75,-0 L 369.75,-6 L 369.806,-6.53017
 L 369.97,-7.03717 L 370.237,-7.49884 L 370.594,-7.895 L 371.025,-8.20836 L 371.512,-8.42519 L 372.033,-8.53603
 L 372.567,-8.53603 L 373.088,-8.42519 L 373.575,-8.20836 L 374.006,-7.895 L 374.363,-7.49884 L 374.63,-7.03717
 L 374.794,-6.53017 L 374.85,-6 L 374.85,-0 L 552.15,-0 L 552.15,-6 L 552.206,-6.53017
 L 552.37,-7.03717 L 552.637,-7.49884 L 552.994,-7.895 L 553.425,-8.20836 L 553.912,-8.42519 L 554.433,-8.53603
 L 554.967,-8.53603 L 555.488,-8.42519 L 555.975,-8.20836 L 556.406,-7.895 L 556.763,-7.49884 L 557.03,-7.03717
 L 557.194,-6.53017 L 557.25,-6 L 557.25,-0 L 734.55,-0 L 734.55,-6 L 734.606,-6.53017
 L 734.77,-7.03717 L 735.037,-7.49884 L 735.394,-7.895 L 735.825,-8.20836 L 736.312,-8.42519 L 736.833,-8.53603
 L 737.367,-8.53603 L 737.888,-8.42519 L 738.375,-8.20836 L 738.806,-7.895 L 739.163,-7.49884 L 739.43,-7.03717
 L 739.594,-6.53017 L 739.65,-6 L 739.65,-0 L 916.95,-0 L 916.95,-6 L 917.006,-6.53017
 L 917.17,-7.03717 L 917.437,-7.49884 L 917.794,-7.895 L 918.225,-8.20836 L 918.712,-8.42519 L 919.233,-8.53603
 L 919.767,-8.53603 L 920.288,-8.42519 L 920.775,-8.20836 L 921.206,-7.895 L 921.563,-7.49884 L 921.83,-7.03717
 L 921.994,-6.53017 L 922.05,-6 L 922.05,-0 L 927,-0 z
M 6.98573,-55.607 L 6.47708,-55.6875 L 5.97964,-55.8208 L 5.49887,-56.0054 L 5.04001,-56.2392 L 4.60811,-56.5196
 L 4.20789,-56.8437 L 3.84373,-57.2079 L 3.51964,-57.6081 L 3.23917,-58.04 L 3.00537,-58.4989 L 2.82082,-58.9796
 L 2.68752,-59.4771 L 2.60696,-59.9857 L 2.58,-60.5 L 2.60696,-61.0143 L 2.68752,-61.5229 L 2.82082,-62.0204
 L 3.00537,-62.5011 L 3.23917,-62.96 L 3.51964,-63.3919 L 3.84373,-63.7921 L 4.20789,-64.1563 L 4.60811,-64.4804
 L 4.95001,-64.7024 L 4.95001,-74 L 5.00574,-74.5302 L 5.17047,-75.0372 L 5.43701,-75.4988 L 5.79373,-75.895
 L 6.22501,-76.2084 L 6.71202,-76.4252 L 7.23346,-76.536 L 7.76654,-76.536 L 8.28798,-76.4252 L 8.77499,-76.2084
 L 9.20627,-75.895 L 9.56299,-75.4988 L 9.82953,-75.0372 L 9.99426,-74.5302 L 10.05,-74 L 10.05,-64.7024
 L 10.3919,-64.4804 L 10.7921,-64.1563 L 11.1563,-63.7921 L 11.4804,-63.3919 L 11.7608,-62.96 L 11.9946,-62.5011
 L 12.1792,-62.0204 L 12.3125,-61.5229 L 12.393,-61.0143 L 12.42,-60.5 L 12.393,-59.9857 L 12.3125,-59.4771
 L 12.1792,-58.9796 L 11.9946,-58.4989 L 11.7608,-58.04 L 11.4804,-57.6081 L 11.1563,-57.2079 L 10.7921,-56.8437
 L 10.3919,-56.5196 L 9.95999,-56.2392 L 9.50113,-56.0054 L 9.02036,-55.8208 L 8.52292,-55.6875 L 8.01427,-55.607
 L 7.5,-55.58 z
M 189.386,-55.607 L 188.877,-55.6875 L 188.38,-55.8208 L 187.899,-56.0054 L 187.44,-56.2392 L 187.008,-56.5196
 L 186.608,-56.8437 L 186.244,-57.2079 L 185.92,-57.6081 L 185.639,-58.04 L 185.405,-58.4989 L 185.221,-58.9796
 L 185.088,-59.4771 L 185.007,-59.9857 L 184.98,-60.5 L 185.007,-61.0143 L 185.088,-61.5229 L 185.221,-62.0204
 L 185.405,-62.5011 L 185.639,-62.96 L 185.92,-63.3919 L 186.244,-63.7921 L 186.608,-64.1563 L 187.008,-64.4804
 L 187.35,-64.7024 L 187.35,-74 L 187.406,-74.5302 L 187.57,-75.0372 L 187.837,-75.4988 L 188.194,-75.895
 L 188.625,-76.2084 L 189.112,-76.4252 L 189.633,-76.536 L 190.167,-76.536 L 190.688,-76.4252 L 191.175,-76.2084
 L 191.606,-75.895 L 191.963,-75.4988 L 192.23,-75.0372 L 192.394,-74.5302 L 192.45,-74 L 192.45,-64.7024
 L 192.792,-64.4804 L 193.192,-64.1563 L 193.556,-63.7921 L 193.88,-63.3919 L 194.161,-62.96 L 194.395,-62.5011
 L 194.579,-62.0204 L 194.712,-61.5229 L 194.793,-61.0143 L 194.82,-60.5 L 194.793,-59.9857 L 194.712,-59.4771
 L 194.579,-58.9796 L 194.395,-58.4989 L 194.161,-58.04 L 193.88,-57.6081 L 193.556,-57.2079 L 193.192,-56.8437
 L 192.792,-56.5196 L 192.36,-56.2392 L 191.901,-56.0054 L 191.42,-55.8208 L 190.923,-55.6875 L 190.414,-55.607
 L 189.9,-55.58 z
M 371.786,-55.607 L 371.277,-55.6875 L 370.78,-55.8208 L 370.299,-56.0054 L 369.84,-56.2392 L 369.408,-56.5196
 L 369.008,-56.8437 L 368.644,-57.2079 L 368.32,-57.6081 L 368.039,-58.04 L 367.805,-58.4989 L 367.621,-58.9796
 L 367.488,-59.4771 L 367.407,-59.9857 L 367.38,-60.5 L 367.407,-61.0143 L 367.488,-61.5229 L 367.621,-62.0204
 L 367.805,-62.5011 L 368.039,-62.96 L 368.32,-63.3919 L 368.644,-63.7921 L 369.008,-64.1563 L 369.408,-64.4804
 L 369.75,-64.7024 L 369.75,-74 L 369.806,-74.5302 L 369.97,-75.0372 L 370.237,-75.4988 L 370.594,-75.895
 L 371.025,-76.2084 L 371.512,-76.4252 L 372.033,-76.536 L 372.567,-76.536 L 373.088,-76.4252 L 373.575,-76.2084
 L 374.006,-75.895 L 374.363,-75.4988 L 374.63,-75.0372 L 374.794,-74.5302 L 374.85,-74 L 374.85,-64.7024
 L 375.192,-64.4804 L 375.592,-64.1563 L 375.956,-63.7921 L 376.28,-63.3919 L 376.561,-62.96 L 376.795,-62.5011
 L 376.979,-62.0204 L 377.112,-61.5229 L 377.193,-61.0143 L 377.22,-60.5 L 377.193,-59.9857 L 377.112,-59.4771
 L 376.979,-58.9796 L 376.795,-58.4989 L 376.561,-58.04 L 376.28,-57.6081 L 375.956,-57.2079 L 375.592,-56.8437
 L 375.192,-56.5196 L 374.76,-56.2392 L 374.301,-56.0054 L 373.82,-55.8208 L 373.323,-55.6875 L 372.814,-55.607
 L 372.3,-55.58 z
M 554.186,-55.607 L 553.677,-55.6875 L 553.18,-55.8208 L 552.699,-56.0054 L 552.24,-56.2392 L 551.808,-56.5196
 L 551.408,-56.8437 L 551.044,-57.2079 L 550.72,-57.6081 L 550.439,-58.04 L 550.205,-58.4989 L 550.021,-58.9796
 L 549.888,-59.4771 L 549.807,-59.9857 L 549.78,-60.5 L 549.807,-61.0143 L 549.888,-61.5229 L 550.021,-62.0204
 L 550.205,-62.5011 L 550.439,-62.96 L 550.72,-63.3919 L 551.044,-63.7921 L 551.408,-64.1563 L 551.808,-64.4804
 L 552.15,-64.7024 L 552.15,-74 L 552.206,-74.5302 L 552.37,-75.0372 L 552.637,-75.4988 L 552.994,-75.895
 L 553.425,-76.2084 L 553.912,-76.4252 L 554.433,-76.536 L 554.967,-76.536 L 555.488,-76.4252 L 555.975,-76.2084
 L 556.406,-75.895 L 556.763,-75.4988 L 557.03,-75.0372 L 557.194,-74.5302 L 557.25,-74 L 557.25,-64.7024
 L 557.592,-64.4804 L 557.992,-64.1563 L 558.356,-63.7921 L 558.68,-63.3919 L 558.961,-62.96 L 559.195,-62.5011
 L 559.379,-62.0204 L 559.512,-61.5229 L 559.593,-61.0143 L 559.62,-60.5 L 559.593,-59.9857 L 559.512,-59.4771
 L 559.379,-58.9796 L 559.195,-58.4989 L 558.961,-58.04 L 558.68,-57.6081 L 558.356,-57.2079 L 557.992,-56.8437
 L 557.592,-56.5196 L 557.16,-56.2392 L 556.701,-56.0054 L 556.22,-55.8208 L 555.723,-55.6875 L 555.214,-55.607
 L 554.7,-55.58 z
M 736.586,-55.607 L 736.077,-55.6875 L 735.58,-55.8208 L 735.099,-56.0054 L 734.64,-56.2392 L 734.208,-56.5196
 L 733.808,-56.8437 L 733.444,-57.2079 L 733.12,-57.6081 L 732.839,-58.04 L 732.605,-58.4989 L 732.421,-58.9796
 L 732.288,-59.4771 L 732.207,-59.9857 L 732.18,-60.5 L 732.207,-61.0143 L 732.288,-61.5229 L 732.421,-62.0204
 L 732.605,-62.5011 L 732.839,-62.96 L 733.12,-63.3919 L 733.444,-63.7921 L 733.808,-64.1563 L 734.208,-64.4804
 L 734.55,-64.7024 L 734.55,-74 L 734.606,-74.5302 L 734.77,-75.0372 L 735.037,-75.4988 L 735.394,-75.895
 L 735.825,-76.2084 L 736.312,-76.4252 L 736.833,-76.536 L 737.367,-76.536 L 737.888,-76.4252 L 738.375,-76.2084
 L 738.806,-75.895 L 739.163,-75.4988 L 739.43,-75.0372 L 739.594,-74.5302 L 739.65,-74 L 739.65,-64.7024
 L 739.992,-64.4804 L 740.392,-64.1563 L 740.756,-63.7921 L 741.08,-63.3919 L 741.361,-62.96 L 741.595,-62.5011
 L 741.779,-62.0204 L 741.912,-61.5229 L 741.993,-61.0143 L 742.02,-60.5 L 741.993,-59.9857 L 741.912,-59.4771
 L 741.779,-58.9796 L 741.595,-58.4989 L 741.361,-58.04 L 741.08,-57.6081 L 740.756,-57.2079 L 740.392,-56.8437
 L 739.992,-56.5196 L 739.56,-56.2392 L 739.101,-56.0054 L 738.62,-55.8208 L 738.123,-55.6875 L 737.614,-55.607
 L 737.1,-55.58 z
M 918.986,-55.607 L 918.477,-55.6875 L 917.98,-55.8208 L 917.499,-56.0054 L 917.04,-56.2392 L 916.608,-56.5196
 L 916.208,-56.8437 L 915.844,-57.2079 L 915.52,-57.6081 L 915.239,-58.04 L 915.005,-58.4989 L 914.821,-58.9796
 L 914.688,-59.4771 L 914.607,-59.9857 L 914.58,-60.5 L 914.607,-61.0143 L 914.688,-61.5229 L 914.821,-62.0204
 L 915.005,-62.5011 L 915.239,-62.96 L 915.52,-63.3919 L 915.844,-63.7921 L 916.208,-64.1563 L 916.608,-64.4804
 L 916.95,-64.7024 L 916.95,-74 L 917.006,-74.5302 L 917.17,-75.0372 L 917.437,-75.4988 L 917.794,-75.895
 L 918.225,-76.2084 L 918.712,-76.4252 L 919.233,-76.536 L 919.767,-76.536 L 920.288,-76.4252 L 920.775,-76.2084
 L 921.206,-75.895 L 921.563,-75.4988 L 921.83,-75.0372 L 921.994,-74.5302 L 922.05,-74 L 922.05,-64.7024
 L 922.392,-64.4804 L 922.792,-64.1563 L 923.156,-63.7921 L 923.48,-63.3919 L 923.761,-62.96 L 923.995,-62.5011
 L 924.179,-62.0204 L 924.312,-61.5229 L 924.393,-61.0143 L 924.42,-60.5 L 924.393,-59.9857 L 924.312,-59.4771
 L 924.179,-58.9796 L 923.995,-58.4989 L 923.761,-58.04 L 923.48,-57.6081 L 923.156,-57.2079 L 922.792,-56.8437
 L 922.392,-56.5196 L 921.96,-56.2392 L 921.501,-56.0054 L 921.02,-55.8208 L 920.523,-55.6875 L 920.014,-55.607
 L 919.5,-55.58 z
M 462.912,-47.7722 L 462.103,-47.9808 L 445.281,-54.252 L 444.327,-54.7639 L 443.706,-55.3235 L 443.214,-56
 L 442.874,-56.7639 L 442.7,-57.5819 L 442.7,-58.4181 L 442.874,-59.2361 L 443.214,-60 L 443.706,-60.6765
 L 444.327,-61.2361 L 445.052,-61.6542 L 445.847,-61.9126 L 446.679,-62 L 480.321,-62 L 481.394,-61.8535
 L 482.172,-61.5463 L 482.869,-61.0841 L 483.454,-60.4871 L 483.903,-59.7814 L 484.195,-58.9979 L 484.318,-58.1707
 L 484.266,-57.3361 L 484.042,-56.5305 L 483.655,-55.7891 L 483.122,-55.1443 L 482.467,-54.6244 L 481.719,-54.252
 L 464.897,-47.9808 L 463.748,-47.7365 z
M 358.712,-20.7512 L 357.903,-20.9598 L 268.601,-54.252 L 267.648,-54.7639 L 267.026,-55.3235 L 266.535,-56
 L 266.194,-56.7639 L 266.021,-57.5819 L 266.021,-58.4181 L 266.194,-59.2361 L 266.535,-60 L 267.026,-60.6765
 L 267.648,-61.2361 L 268.372,-61.6542 L 269.167,-61.9126 L 269.999,-62 L 359.3,-62 L 360.536,-61.8042
 L 361.3,-61.4641 L 361.977,-60.9726 L 362.536,-60.3511 L 362.954,-59.627 L 363.213,-58.8316 L 363.3,-58
 L 363.3,-24.7079 L 363.174,-23.71 L 362.881,-22.9265 L 362.433,-22.2208 L 361.847,-21.6238 L 361.15,-21.1616
 L 360.373,-20.8543 L 359.548,-20.7155 z
M 749.027,-20.8543 L 748.25,-21.1616 L 747.553,-21.6238 L 746.967,-22.2208 L 746.519,-22.9265 L 746.226,-23.71
 L 746.1,-24.7079 L 746.1,-58 L 746.187,-58.8316 L 746.446,-59.627 L 746.864,-60.3511 L 747.423,-60.9726
 L 748.1,-61.4641 L 748.864,-61.8042 L 750.1,-62 L 839.401,-62 L 840.233,-61.9126 L 841.028,-61.6542
 L 841.752,-61.2361 L 842.374,-60.6765 L 842.865,-60 L 843.206,-59.2361 L 843.379,-58.4181 L 843.379,-57.5819
 L 843.206,-56.7639 L 842.865,-56 L 842.374,-55.3235 L 841.752,-54.7639 L 840.799,-54.252 L 751.497,-20.9598
 L 750.688,-20.7512 L 749.852,-20.7155 z
M 176.312,-20.7512 L 175.503,-20.9598 L 86.2014,-54.252 L 85.2476,-54.7639 L 84.6261,-55.3235 L 84.1346,-56
 L 83.7945,-56.7639 L 83.6206,-57.5819 L 83.6206,-58.4181 L 83.7945,-59.2361 L 84.1346,-60 L 84.6261,-60.6765
 L 85.2476,-61.2361 L 85.9718,-61.6542 L 86.7671,-61.9126 L 87.5987,-62 L 176.9,-62 L 178.136,-61.8042
 L 178.9,-61.4641 L 179.577,-60.9726 L 180.136,-60.3511 L 180.554,-59.627 L 180.813,-58.8316 L 180.9,-58
 L 180.9,-24.7079 L 180.774,-23.71 L 180.481,-22.9265 L 180.033,-22.2208 L 179.447,-21.6238 L 178.75,-21.1616
 L 177.973,-20.8543 L 177.148,-20.7155 z
M 566.627,-20.8543 L 565.85,-21.1616 L 565.153,-21.6238 L 564.567,-22.2208 L 564.119,-22.9265 L 563.826,-23.71
 L 563.7,-24.7079 L 563.7,-58 L 563.787,-58.8316 L 564.046,-59.627 L 564.464,-60.3511 L 565.023,-60.9726
 L 565.7,-61.4641 L 566.464,-61.8042 L 567.7,-62 L 657.001,-62 L 657.833,-61.9126 L 658.628,-61.6542
 L 659.352,-61.2361 L 659.974,-60.6765 L 660.465,-60 L 660.805,-59.2361 L 660.979,-58.4181 L 660.979,-57.5819
 L 660.805,-56.7639 L 660.465,-56 L 659.974,-55.3235 L 659.352,-54.7639 L 658.399,-54.252 L 569.097,-20.9598
 L 568.287,-20.7512 L 567.452,-20.7155 z
M 384.882,-18.5973 L 384.064,-18.7711 L 383.3,-19.1113 L 382.623,-19.6028 L 382.064,-20.2242 L 381.646,-20.9484
 L 381.387,-21.7437 L 381.3,-22.5753 L 381.3,-57.4247 L 381.426,-58.4225 L 381.719,-59.2061 L 382.167,-59.9117
 L 382.753,-60.5087 L 383.45,-60.9709 L 384.227,-61.2782 L 385.052,-61.417 L 385.887,-61.3813 L 386.697,-61.1727
 L 433.436,-43.748 L 433.889,-43.5463 L 434.586,-43.0841 L 435.172,-42.4871 L 435.62,-41.7814 L 435.913,-40.9979
 L 436.035,-40.1707 L 435.984,-39.3361 L 435.759,-38.5305 L 435.373,-37.7891 L 434.84,-37.1443 L 434.185,-36.6244
 L 433.436,-36.252 L 386.697,-18.8273 L 385.718,-18.5973 z
M 541.112,-18.6187 L 540.303,-18.8273 L 493.564,-36.252 L 493.111,-36.4537 L 492.414,-36.9159 L 491.828,-37.5129
 L 491.379,-38.2186 L 491.087,-39.0021 L 490.965,-39.8293 L 491.016,-40.6639 L 491.241,-41.4695 L 491.627,-42.2109
 L 492.16,-42.8557 L 492.815,-43.3756 L 493.564,-43.748 L 540.303,-61.1727 L 541.282,-61.4027 L 542.118,-61.4027
 L 542.936,-61.2289 L 543.7,-60.8887 L 544.377,-60.3972 L 544.936,-59.7758 L 545.354,-59.0516 L 545.613,-58.2563
 L 545.7,-57.4247 L 545.7,-22.5753 L 545.574,-21.5775 L 545.281,-20.7939 L 544.833,-20.0883 L 544.247,-19.4913
 L 543.55,-19.0291 L 542.773,-18.7218 L 541.948,-18.583 z
M 202.9,-18 L 201.664,-18.1958 L 200.9,-18.5359 L 200.223,-19.0274 L 199.664,-19.6489 L 199.246,-20.373
 L 198.987,-21.1684 L 198.9,-22 L 198.9,-55.2921 L 199.026,-56.29 L 199.319,-57.0735 L 199.767,-57.7792
 L 200.353,-58.3762 L 201.05,-58.8384 L 201.827,-59.1456 L 202.652,-59.2844 L 203.487,-59.2487 L 204.297,-59.0401
 L 293.599,-25.748 L 294.552,-25.2361 L 295.174,-24.6765 L 295.665,-24 L 296.005,-23.2361 L 296.179,-22.4181
 L 296.179,-21.5819 L 296.005,-20.7639 L 295.665,-20 L 295.174,-19.3235 L 294.552,-18.7639 L 293.828,-18.3458
 L 293.033,-18.0874 L 292.201,-18 z
M 634.799,-18 L 633.967,-18.0874 L 633.172,-18.3458 L 632.448,-18.7639 L 631.826,-19.3235 L 631.335,-20
 L 630.995,-20.7639 L 630.821,-21.5819 L 630.821,-22.4181 L 630.995,-23.2361 L 631.335,-24 L 631.826,-24.6765
 L 632.448,-25.2361 L 633.401,-25.748 L 722.703,-59.0401 L 723.512,-59.2487 L 724.348,-59.2844 L 725.173,-59.1456
 L 725.95,-58.8384 L 726.647,-58.3762 L 727.233,-57.7792 L 727.681,-57.0735 L 727.974,-56.29 L 728.1,-55.2921
 L 728.1,-22 L 728.013,-21.1684 L 727.754,-20.373 L 727.336,-19.6489 L 726.777,-19.0274 L 726.1,-18.5359
 L 725.336,-18.1958 L 724.1,-18 z
M 22,-18 L 20.7639,-18.1958 L 20,-18.5359 L 19.3235,-19.0274 L 18.7639,-19.6489 L 18.3458,-20.373
 L 18.0874,-21.1684 L 18,-22 L 18,-54.7329 L 18.1265,-55.7308 L 18.4186,-56.5143 L 18.8672,-57.22
 L 19.4528,-57.817 L 20.1496,-58.2792 L 20.9274,-58.5864 L 21.752,-58.7252 L 22.5875,-58.6895 L 23.3973,-58.4809
 L 111.199,-25.748 L 112.152,-25.2361 L 112.774,-24.6765 L 113.265,-24 L 113.605,-23.2361 L 113.779,-22.4181
 L 113.779,-21.5819 L 113.605,-20.7639 L 113.265,-20 L 112.774,-19.3235 L 112.152,-18.7639 L 111.428,-18.3458
 L 110.633,-18.0874 L 109.801,-18 z
M 817.199,-18 L 816.367,-18.0874 L 815.572,-18.3458 L 814.848,-18.7639 L 814.226,-19.3235 L 813.735,-20
 L 813.395,-20.7639 L 813.221,-21.5819 L 813.221,-22.4181 L 813.395,-23.2361 L 813.735,-24 L 814.226,-24.6765
 L 814.848,-25.2361 L 815.801,-25.748 L 903.603,-58.4809 L 904.413,-58.6895 L 905.248,-58.7252 L 906.073,-58.5864
 L 906.85,-58.2792 L 907.547,-57.817 L 908.133,-57.22 L 908.581,-56.5143 L 908.874,-55.7308 L 909,-54.7329
 L 909,-22 L 908.913,-21.1684 L 908.654,-20.373 L 908.236,-19.6489 L 907.677,-19.0274 L 907,-18.5359
 L 906.236,-18.1958 L 905,-18 z
M 446.679,-18 L 445.606,-18.1465 L 444.828,-18.4537 L 444.131,-18.9159 L 443.546,-19.5129 L 443.097,-20.2186
 L 442.805,-21.0021 L 442.682,-21.8293 L 442.734,-22.6639 L 442.958,-23.4695 L 443.345,-24.2109 L 443.878,-24.8557
 L 444.533,-25.3756 L 445.281,-25.748 L 462.103,-32.0192 L 463.252,-32.2635 L 464.087,-32.2278 L 464.897,-32.0192
 L 481.719,-25.748 L 482.673,-25.2361 L 483.294,-24.6765 L 483.786,-24 L 484.126,-23.2361 L 484.299,-22.4181
 L 484.299,-21.5819 L 484.126,-20.7639 L 483.786,-20 L 483.294,-19.3235 L 482.673,-18.7639 L 481.948,-18.3458
 L 481.153,-18.0874 L 480.321,-18 z
" stroke="black" fill="lightgray" stroke-width="0.5"/>
</svg>
