<?xml version="1.0" standalone="no"?>
<!DOCTYPE svg PUBLIC "-//W3C//DTD SVG 1.1//EN" "http://www.w3.org/Graphics/SVG/1.1/DTD/svg11.dtd">
<svg width="964mm" height="80mm" viewBox="0 -80 964 80" xmlns="http://www.w3.org/2000/svg" version="1.1">
<title>OpenSCAD Model</title>
<path d="
M 964,-80 L 0,-80 L 0,-0 L 4.95,-0 L 4.95,-6 L 5.00572,-6.53017
 L 5.17046,-7.03717 L 5.437,-7.49884 L 5.79372,-7.895 L 6.22499,-8.20836 L 6.71201,-8.42519 L 7.23344,-8.53603
 L 7.76654,-8.53603 L 8.28798,-8.42519 L 8.77499,-8.20836 L 9.20627,-7.895 L 9.56299,-7.49884 L 9.82953,-7.03717
 L 9.99426,-6.53017 L 10.05,-6 L 10.05,-0 L 194.75,-0 L 194.75,-6 L 194.806,-6.53017
 L 194.97,-7.03717 L 195.237,-7.49884 L 195.594,-7.895 L 196.025,-8.20836 L 196.512,-8.42519 L 197.033,-8.53603
 L 197.567,-8.53603 L 198.088,-8.42519 L 198.575,-8.20836 L 199.006,-7.895 L 199.363,-7.49884 L 199.63,-7.03717
 L 199.794,-6.53017 L 199.85,-6 L 199.85,-0 L 384.55,-0 L 384.55,-6 L 384.606,-6.53017
 L 384.77,-7.03717 L 385.037,-7.49884 L 385.394,-7.895 L 385.825,-8.20836 L 386.312,-8.42519 L 386.833,-8.53603
 L 387.367,-8.53603 L 387.888,-8.42519 L 388.375,-8.20836 L 388.806,-7.895 L 389.163,-7.49884 L 389.43,-7.03717
 L 389.594,-6.53017 L 389.65,-6 L 389.65,-0 L 574.35,-0 L 574.35,-6 L 574.406,-6.53017
 L 574.57,-7.03717 L 574.837,-7.49884 L 575.194,-7.895 L 575.625,-8.20836 L 576.112,-8.42519 L 576.633,-8.53603
 L 577.167,-8.53603 L 577.688,-8.42519 L 578.175,-8.20836 L 578.606,-7.895 L 578.963,-7.49884 L 579.23,-7.03717
 L 579.394,-6.53017 L 579.45,-6 L 579.45,-0 L 764.15,-0 L 764.15,-6 L 764.206,-6.53017
 L 764.37,-7.03717 L 764.637,-7.49884 L 764.994,-7.895 L 765.425,-8.20836 L 765.912,-8.42519 L 766.433,-8.53603
 L 766.967,-8.53603 L 767.488,-8.42519 L 767.975,-8.20836 L 768.406,-7.895 L 768.763,-7.49884 L 769.03,-7.03717
 L 769.194,-6.53017 L 769.25,-6 L 769.25,-0 L 953.95,-0 L 953.95,-6 L 954.006,-6.53017
 L 954.17,-7.03717 L 954.437,-7.49884 L 954.794,-7.895 L 955.225,-8.20836 L 955.712,-8.42519 L 956.233,-8.53603
 L 956.767,-8.53603 L 957.288,-8.42519 L 957.775,-8.20836 L 958.206,-7.895 L 958.563,-7.49884 L 958.83,-7.03717
 L 958.994,-6.53017 L 959.05,-6 L 959.05,-0 L 964,-0 z
M 6.98573,-55.607 L 6.47708,-55.6875 L 5.97964,-55.8208 L 5.49887,-56.0054 L 5.04001,-56.2392 L 4.60811,-56.5196
 L 4.20789,-56.8437 L 3.84373,-57.2079 L 3.51964,-57.6081 L 3.23917,-58.04 L 3.00537,-58.4989 L 2.82082,-58.9796
 L 2.68752,-59.4771 L 2.60696,-59.9857 L 2.58,-60.5 L 2.60696,-61.0143 L 2.68752,-61.5229 L 2.82082,-62.0204
 L 3.00537,-62.5011 L 3.23917,-62.96 L 3.51964,-63.3919 L 3.84373,-63.7921 L 4.20789,-64.1563 L 4.60811,-64.4804
 L 4.95001,-64.7024 L 4.95001,-74 L 5.00574,-74.5302 L 5.17047,-75.0372 L 5.43701,-75.4988 L 5.79373,-75.895
 L 6.22501,-76.2084 L 6.71202,-76.4252 L 7.23346,-76.536 L 7.76654,-76.536 L 8.28798,-76.4252 L 8.77499,-76.2084
 L 9.20627,-75.895 L 9.56299,-75.4988 L 9.82953,-75.0372 L 9.99426,-74.5302 L 10.05,-74 L 10.05,-64.7024
 L 10.3919,-64.4804 L 10.7921,-64.1563 L 11.1563,-63.7921 L 11.4804,-63.3919 L 11.7608,-62.96 L 11.9946,-62.5011
 L 12.1792,-62.0204 L 12.3125,-61.5229 L 12.393,-61.0143 L 12.42,-60.5 L 12.393,-59.9857 L 12.3125,-59.4771
 L 12.1792,-58.9796 L 11.9946,-58.4989 L 11.7608,-58.04 L 11.4804,-57.6081 L 11.1563,-57.2079 L 10.7921,-56.8437
 L 10.3919,-56.5196 L 9.95999,-56.2392 L 9.50113,-56.0054 L 9.02036,-55.8208 L 8.52292,-55.6875 L 8.01427,-55.607
 L 7.5,-55.58 z
M 196.786,-55.607 L 196.277,-55.6875 L 195.78,-55.8208 L 195.299,-56.0054 L 194.84,-56.2392 L 194.408,-56.5196
 L 194.008,-56.8437 L 193.644,-57.2079 L 193.32,-57.6081 L 193.039,-58.04 L 192.805,-58.4989 L 192.621,-58.9796
 L 192.488,-59.4771 L 192.407,-59.9857 L 192.38,-60.5 L 192.407,-61.0143 L 192.488,-61.5229 L 192.621,-62.0204
 L 192.805,-62.5011 L 193.039,-62.96 L 193.32,-63.3919 L 193.644,-63.7921 L 194.008,-64.1563 L 194.408,-64.4804
 L 194.75,-64.7024 L 194.75,-74 L 194.806,-74.5302 L 194.97,-75.0372 L 195.237,-75.4988 L 195.594,-75.895
 L 196.025,-76.2084 L 196.512,-76.4252 L 197.033,-76.536 L 197.567,-76.536 L 198.088,-76.4252 L 198.575,-76.2084
 L 199.006,-75.895 L 199.363,-75.4988 L 199.63,-75.0372 L 199.794,-74.5302 L 199.85,-74 L 199.85,-64.7024
 L 200.192,-64.4804 L 200.592,-64.1563 L 200.956,-63.7921 L 201.28,-63.3919 L 201.561,-62.96 L 201.795,-62.5011
 L 201.979,-62.0204 L 202.112,-61.5229 L 202.193,-61.0143 L 202.22,-60.5 L 202.193,-59.9857 L 202.112,-59.4771
 L 201.979,-58.9796 L 201.795,-58.4989 L 201.561,-58.04 L 201.28,-57.6081 L 200.956,-57.2079 L 200.592,-56.8437
 L 200.192,-56.5196 L 199.76,-56.2392 L 199.301,-56.0054 L 198.82,-55.8208 L 198.323,-55.6875 L 197.814,-55.607
 L 197.3,-55.58 z
M 386.586,-55.607 L 386.077,-55.6875 L 385.58,-55.8208 L 385.099,-56.0054 L 384.64,-56.2392 L 384.208,-56.5196
 L 383.808,-56.8437 L 383.444,-57.2079 L 383.12,-57.6081 L 382.839,-58.04 L 382.605,-58.4989 L 382.421,-58.9796
 L 382.288,-59.4771 L 382.207,-59.9857 L 382.18,-60.5 L 382.207,-61.0143 L 382.288,-61.5229 L 382.421,-62.0204
 L 382.605,-62.5011 L 382.839,-62.96 L 383.12,-63.3919 L 383.444,-63.7921 L 383.808,-64.1563 L 384.208,-64.4804
 L 384.55,-64.7024 L 384.55,-74 L 384.606,-74.5302 L 384.77,-75.0372 L 385.037,-75.4988 L 385.394,-75.895
 L 385.825,-76.2084 L 386.312,-76.4252 L 386.833,-76.536 L 387.367,-76.536 L 387.888,-76.4252 L 388.375,-76.2084
 L 388.806,-75.895 L 389.163,-75.4988 L 389.43,-75.0372 L 389.594,-74.5302 L 389.65,-74 L 389.65,-64.7024
 L 389.992,-64.4804 L 390.392,-64.1563 L 390.756,-63.7921 L 391.08,-63.3919 L 391.361,-62.96 L 391.595,-62.5011
 L 391.779,-62.0204 L 391.912,-61.5229 L 391.993,-61.0143 L 392.02,-60.5 L 391.993,-59.9857 L 391.912,-59.4771
 L 391.779,-58.9796 L 391.595,-58.4989 L 391.361,-58.04 L 391.08,-57.6081 L 390.756,-57.2079 L 390.392,-56.8437
 L 389.992,-56.5196 L 389.56,-56.2392 L 389.101,-56.0054 L 388.62,-55.8208 L 388.123,-55.6875 L 387.614,-55.607
 L 387.1,-55.58 z
M 576.386,-55.607 L 575.877,-55.6875 L 575.38,-55.8208 L 574.899,-56.0054 L 574.44,-56.2392 L 574.008,-56.5196
 L 573.608,-56.8437 L 573.244,-57.2079 L 572.92,-57.6081 L 572.639,-58.04 L 572.405,-58.4989 L 572.221,-58.9796
 L 572.088,-59.4771 L 572.007,-59.9857 L 571.98,-60.5 L 572.007,-61.0143 L 572.088,-61.5229 L 572.221,-62.0204
 L 572.405,-62.5011 L 572.639,-62.96 L 572.92,-63.3919 L 573.244,-63.7921 L 573.608,-64.1563 L 574.008,-64.4804
 L 574.35,-64.7024 L 574.35,-74 L 574.406,-74.5302 L 574.57,-75.0372 L 574.837,-75.4988 L 575.194,-75.895
 L 575.625,-76.2084 L 576.112,-76.4252 L 576.633,-76.536 L 577.167,-76.536 L 577.688,-76.4252 L 578.175,-76.2084
 L 578.606,-75.895 L 578.963,-75.4988 L 579.23,-75.0372 L 579.394,-74.5302 L 579.45,-74 L 579.45,-64.7024
 L 579.792,-64.4804 L 580.192,-64.1563 L 580.556,-63.7921 L 580.88,-63.3919 L 581.161,-62.96 L 581.395,-62.5011
 L 581.579,-62.0204 L 581.712,-61.5229 L 581.793,-61.0143 L 581.82,-60.5 L 581.793,-59.9857 L 581.712,-59.4771
 L 581.579,-58.9796 L 581.395,-58.4989 L 581.161,-58.04 L 580.88,-57.6081 L 580.556,-57.2079 L 580.192,-56.8437
 L 579.792,-56.5196 L 579.36,-56.2392 L 578.901,-56.0054 L 578.42,-55.8208 L 577.923,-55.6875 L 577.414,-55.607
 L 576.9,-55.58 z
M 766.186,-55.607 L 765.677,-55.6875 L 765.18,-55.8208 L 764.699,-56.0054 L 764.24,-56.2392 L 763.808,-56.5196
 L 763.408,-56.8437 L 763.044,-57.2079 L 762.72,-57.6081 L 762.439,-58.04 L 762.205,-58.4989 L 762.021,-58.9796
 L 761.888,-59.4771 L 761.807,-59.9857 L 761.78,-60.5 L 761.807,-61.0143 L 761.888,-61.5229 L 762.021,-62.0204
 L 762.205,-62.5011 L 762.439,-62.96 L 762.72,-63.3919 L 763.044,-63.7921 L 763.408,-64.1563 L 763.808,-64.4804
 L 764.15,-64.7024 L 764.15,-74 L 764.206,-74.5302 L 764.37,-75.0372 L 764.637,-75.4988 L 764.994,-75.895
 L 765.425,-76.2084 L 765.912,-76.4252 L 766.433,-76.536 L 766.967,-76.536 L 767.488,-76.4252 L 767.975,-76.2084
 L 768.406,-75.895 L 768.763,-75.4988 L 769.03,-75.0372 L 769.194,-74.5302 L 769.25,-74 L 769.25,-64.7024
 L 769.592,-64.4804 L 769.992,-64.1563 L 770.356,-63.7921 L 770.68,-63.3919 L 770.961,-62.96 L 771.195,-62.5011
 L 771.379,-62.0204 L 771.512,-61.5229 L 771.593,-61.0143 L 771.62,-60.5 L 771.593,-59.9857 L 771.512,-59.4771
 L 771.379,-58.9796 L 771.195,-58.4989 L 770.961,-58.04 L 770.68,-57.6081 L 770.356,-57.2079 L 769.992,-56.8437
 L 769.592,-56.5196 L 769.16,-56.2392 L 768.701,-56.0054 L 768.22,-55.8208 L 767.723,-55.6875 L 767.214,-55.607
 L 766.7,-55.58 z
M 955.986,-55.607 L 955.477,-55.6875 L 954.98,-55.8208 L 954.499,-56.0054 L 954.04,-56.2392 L 953.608,-56.5196
 L 953.208,-56.8437 L 952.844,-57.2079 L 952.52,-57.6081 L 952.239,-58.04 L 952.005,-58.4989 L 951.821,-58.9796
 L 951.688,-59.4771 L 951.607,-59.9857 L 951.58,-60.5 L 951.607,-61.0143 L 951.688,-61.5229 L 951.821,-62.0204
 L 952.005,-62.5011 L 952.239,-62.96 L 952.52,-63.3919 L 952.844,-63.7921 L 953.208,-64.1563 L 953.608,-64.4804
 L 953.95,-64.7024 L 953.95,-74 L 954.006,-74.5302 L 954.17,-75.0372 L 954.437,-75.4988 L 954.794,-75.895
 L 955.225,-76.2084 L 955.712,-76.4252 L 956.233,-76.536 L 956.767,-76.536 L 957.288,-76.4252 L 957.775,-76.2084
 L 958.206,-75.895 L 958.563,-75.4988 L 958.83,-75.0372 L 958.994,-74.5302 L 959.05,-74 L 959.05,-64.7024
 L 959.392,-64.4804 L 959.792,-64.1563 L 960.156,-63.7921 L 960.48,-63.3919 L 960.761,-62.96 L 960.995,-62.5011
 L 961.179,-62.0204 L 961.312,-61.5229 L 961.393,-61.0143 L 961.42,-60.5 L 961.393,-59.9857 L 961.312,-59.4771
 L 961.179,-58.9796 L 960.995,-58.4989 L 960.761,-58.04 L 960.48,-57.6081 L 960.156,-57.2079 L 959.792,-56.8437
 L 959.392,-56.5196 L 958.96,-56.2392 L 958.501,-56.0054 L 958.02,-55.8208 L 957.523,-55.6875 L 957.014,-55.607
 L 956.5,-55.58 z
M 481.463,-47.7156 L 480.651,-47.9138 L 463.009,-54.2344 L 462.007,-54.7639 L 461.386,-55.3235 L 460.894,-56
 L 460.554,-56.7639 L 460.38,-57.5819 L 460.38,-58.4181 L 460.554,-59.2361 L 460.894,-60 L 461.386,-60.6765
 L 462.007,-61.2361 L 462.731,-61.6542 L 463.527,-61.9126 L 464.358,-62 L 499.642,-62 L 500.764,-61.8394
 L 501.537,-61.5223 L 502.228,-61.0512 L 502.806,-60.4467 L 503.246,-59.7353 L 503.528,-58.9481 L 503.64,-58.1194
 L 503.577,-57.2856 L 503.343,-56.4829 L 502.947,-55.7465 L 502.406,-55.1087 L 501.744,-54.5972 L 500.991,-54.2344
 L 483.349,-47.9138 L 482.299,-47.6906 z
M 373.563,-20.4967 L 372.751,-20.6949 L 279.136,-54.2344 L 278.134,-54.7639 L 277.513,-55.3235 L 277.021,-56
 L 276.681,-56.7639 L 276.507,-57.5819 L 276.507,-58.4181 L 276.681,-59.2361 L 277.021,-60 L 277.513,-60.6765
 L 278.134,-61.2361 L 278.858,-61.6542 L 279.654,-61.9126 L 280.485,-62 L 374.1,-62 L 375.336,-61.8042
 L 376.1,-61.4641 L 376.777,-60.9726 L 377.336,-60.3511 L 377.754,-59.627 L 378.013,-58.8316 L 378.1,-58
 L 378.1,-24.4605 L 377.986,-23.5124 L 377.704,-22.7252 L 377.264,-22.0138 L 376.687,-21.4093 L 375.996,-20.9382
 L 375.222,-20.6211 L 374.399,-20.4717 z
M 778.578,-20.6211 L 777.804,-20.9382 L 777.113,-21.4093 L 776.536,-22.0138 L 776.096,-22.7252 L 775.814,-23.5124
 L 775.7,-24.4605 L 775.7,-58 L 775.787,-58.8316 L 776.046,-59.627 L 776.464,-60.3511 L 777.023,-60.9726
 L 777.7,-61.4641 L 778.464,-61.8042 L 779.7,-62 L 873.315,-62 L 874.146,-61.9126 L 874.942,-61.6542
 L 875.666,-61.2361 L 876.287,-60.6765 L 876.779,-60 L 877.119,-59.2361 L 877.293,-58.4181 L 877.293,-57.5819
 L 877.119,-56.7639 L 876.779,-56 L 876.287,-55.3235 L 875.666,-54.7639 L 874.664,-54.2344 L 781.049,-20.6949
 L 780.237,-20.4967 L 779.401,-20.4717 z
M 183.763,-20.4967 L 182.951,-20.6949 L 89.3363,-54.2344 L 88.3342,-54.7639 L 87.7128,-55.3235 L 87.2213,-56
 L 86.8811,-56.7639 L 86.7073,-57.5819 L 86.7073,-58.4181 L 86.8811,-59.2361 L 87.2213,-60 L 87.7128,-60.6765
 L 88.3342,-61.2361 L 89.0584,-61.6542 L 89.8537,-61.9126 L 90.6854,-62 L 184.3,-62 L 185.536,-61.8042
 L 186.3,-61.4641 L 186.977,-60.9726 L 187.536,-60.3511 L 187.954,-59.627 L 188.213,-58.8316 L 188.3,-58
 L 188.3,-24.4605 L 188.186,-23.5124 L 187.904,-22.7252 L 187.464,-22.0138 L 186.887,-21.4093 L 186.196,-20.9382
 L 185.422,-20.6211 L 184.599,-20.4717 z
M 588.778,-20.6211 L 588.004,-20.9382 L 587.313,-21.4093 L 586.736,-22.0138 L 586.296,-22.7252 L 586.014,-23.5124
 L 585.9,-24.4605 L 585.9,-58 L 585.987,-58.8316 L 586.246,-59.627 L 586.664,-60.3511 L 587.223,-60.9726
 L 587.9,-61.4641 L 588.664,-61.8042 L 589.9,-62 L 683.515,-62 L 684.346,-61.9126 L 685.142,-61.6542
 L 685.866,-61.2361 L 686.487,-60.6765 L 686.979,-60 L 687.319,-59.2361 L 687.493,-58.4181 L 687.493,-57.5819
 L 687.319,-56.7639 L 686.979,-56 L 686.487,-55.3235 L 685.866,-54.7639 L 684.864,-54.2344 L 591.249,-20.6949
 L 590.437,-20.4967 L 589.601,-20.4717 z
M 399.682,-18.3589 L 398.864,-18.5328 L 398.1,-18.8729 L 397.423,-19.3644 L 396.864,-19.9859 L 396.446,-20.71
 L 396.187,-21.5053 L 396.1,-22.337 L 396.1,-57.663 L 396.214,-58.6111 L 396.496,-59.3983 L 396.936,-60.1097
 L 397.513,-60.7142 L 398.204,-61.1853 L 398.978,-61.5025 L 399.801,-61.6518 L 400.637,-61.6268 L 401.449,-61.4286
 L 450.75,-43.7656 L 451.296,-43.5223 L 451.987,-43.0512 L 452.565,-42.4467 L 453.005,-41.7353 L 453.287,-40.9481
 L 453.399,-40.1194 L 453.336,-39.2856 L 453.102,-38.4829 L 452.705,-37.7465 L 452.165,-37.1087 L 451.503,-36.5972
 L 450.75,-36.2344 L 401.449,-18.5714 L 400.518,-18.3589 z
M 563.363,-18.3732 L 562.551,-18.5714 L 513.25,-36.2344 L 512.704,-36.4777 L 512.013,-36.9488 L 511.435,-37.5533
 L 510.995,-38.2647 L 510.713,-39.0519 L 510.601,-39.8806 L 510.664,-40.7144 L 510.898,-41.5171 L 511.295,-42.2535
 L 511.835,-42.8913 L 512.497,-43.4028 L 513.25,-43.7656 L 562.551,-61.4286 L 563.482,-61.6411 L 564.318,-61.6411
 L 565.136,-61.4673 L 565.9,-61.1271 L 566.577,-60.6356 L 567.136,-60.0142 L 567.554,-59.29 L 567.813,-58.4947
 L 567.9,-57.663 L 567.9,-22.337 L 567.786,-21.3889 L 567.504,-20.6016 L 567.064,-19.8902 L 566.487,-19.2858
 L 565.796,-18.8147 L 565.022,-18.4975 L 564.199,-18.3482 z
M 210.3,-18 L 209.064,-18.1958 L 208.3,-18.5359 L 207.623,-19.0274 L 207.064,-19.6489 L 206.646,-20.373
 L 206.387,-21.1684 L 206.3,-22 L 206.3,-55.5395 L 206.414,-56.4876 L 206.696,-57.2748 L 207.136,-57.9862
 L 207.713,-58.5907 L 208.404,-59.0618 L 209.178,-59.3789 L 210.001,-59.5283 L 210.837,-59.5033 L 211.649,-59.3051
 L 305.264,-25.7656 L 306.266,-25.2361 L 306.887,-24.6765 L 307.379,-24 L 307.719,-23.2361 L 307.893,-22.4181
 L 307.893,-21.5819 L 307.719,-20.7639 L 307.379,-20 L 306.887,-19.3235 L 306.266,-18.7639 L 305.542,-18.3458
 L 304.746,-18.0874 L 303.915,-18 z
M 660.085,-18 L 659.254,-18.0874 L 658.458,-18.3458 L 657.734,-18.7639 L 657.113,-19.3235 L 656.621,-20
 L 656.281,-20.7639 L 656.107,-21.5819 L 656.107,-22.4181 L 656.281,-23.2361 L 656.621,-24 L 657.113,-24.6765
 L 657.734,-25.2361 L 658.736,-25.7656 L 752.351,-59.3051 L 753.163,-59.5033 L 753.999,-59.5283 L 754.822,-59.3789
 L 755.596,-59.0618 L 756.287,-58.5907 L 756.864,-57.9862 L 757.304,-57.2748 L 757.586,-56.4876 L 757.7,-55.5395
 L 757.7,-22 L 757.613,-21.1684 L 757.354,-20.373 L 756.936,-19.6489 L 756.377,-19.0274 L 755.7,-18.5359
 L 754.936,-18.1958 L 753.7,-18 z
M 22,-18 L 20.7639,-18.1958 L 20,-18.5359 L 19.3235,-19.0274 L 18.7639,-19.6489 L 18.3458,-20.373
 L 18.0874,-21.1684 L 18,-22 L 18,-55.0021 L 18.114,-55.9502 L 18.396,-56.7374 L 18.8356,-57.4488
 L 19.4134,-58.0532 L 20.1043,-58.5243 L 20.8781,-58.8415 L 21.7009,-58.9909 L 22.5367,-58.9659 L 23.3491,-58.7677
 L 115.464,-25.7656 L 116.466,-25.2361 L 117.087,-24.6765 L 117.579,-24 L 117.919,-23.2361 L 118.093,-22.4181
 L 118.093,-21.5819 L 117.919,-20.7639 L 117.579,-20 L 117.087,-19.3235 L 116.466,-18.7639 L 115.742,-18.3458
 L 114.946,-18.0874 L 114.115,-18 z
M 849.885,-18 L 849.054,-18.0874 L 848.258,-18.3458 L 847.534,-18.7639 L 846.913,-19.3235 L 846.421,-20
 L 846.081,-20.7639 L 845.907,-21.5819 L 845.907,-22.4181 L 846.081,-23.2361 L 846.421,-24 L 846.913,-24.6765
 L 847.534,-25.2361 L 848.536,-25.7656 L 940.651,-58.7677 L 941.463,-58.9659 L 942.299,-58.9909 L 943.122,-58.8415
 L 943.896,-58.5243 L 944.587,-58.0532 L 945.164,-57.4488 L 945.604,-56.7374 L 945.886,-55.9502 L 946,-55.0021
 L 946,-22 L 945.913,-21.1684 L 945.654,-20.373 L 945.236,-19.6489 L 944.677,-19.0274 L 944,-18.5359
 L 943.236,-18.1958 L 942,-18 z
M 464.358,-18 L 463.236,-18.1606 L 462.463,-18.4777 L 461.772,-18.9488 L 461.194,-19.5533 L 460.754,-20.2647
 L 460.472,-21.0519 L 460.36,-21.8806 L 460.423,-22.7144 L 460.657,-23.5171 L 461.053,-24.2535 L 461.594,-24.8913
 L 462.256,-25.4028 L 463.009,-25.7656 L 480.651,-32.0862 L 481.701,-32.3094 L 482.537,-32.2844 L 483.349,-32.0862
 L 500.991,-25.7656 L 501.993,-25.2361 L 502.614,-24.6765 L 503.106,-24 L 503.446,-23.2361 L 503.62,-22.4181
 L 503.62,-21.5819 L 503.446,-20.7639 L 503.106,-20 L 502.614,-19.3235 L 501.993,-18.7639 L 501.269,-18.3458
 L 500.473,-18.0874 L 499.642,-18 z
" stroke="black" fill="lightgray" stroke-width="0.5"/>
</svg>
