<?xml version="1.0" standalone="no"?>
<!DOCTYPE svg PUBLIC "-//W3C//DTD SVG 1.1//EN" "http://www.w3.org/Graphics/SVG/1.1/DTD/svg11.dtd">
<svg width="597mm" height="80mm" viewBox="0 -80 597 80" xmlns="http://www.w3.org/2000/svg" version="1.1">
<title>OpenSCAD Model</title>
<path d="
M 597,-80 L 0,-80 L 0,-0 L 4.95,-0 L 4.95,-6 L 5.00572,-6.53017
 L 5.17046,-7.03717 L 5.437,-7.49884 L 5.79372,-7.895 L 6.22499,-8.20836 L 6.71201,-8.42519 L 7.23344,-8.53603
 L 7.76654,-8.53603 L 8.28798,-8.42519 L 8.77499,-8.20836 L 9.20627,-7.895 L 9.56299,-7.49884 L 9.82953,-7.03717
 L 9.99426,-6.53017 L 10.05,-6 L 10.05,-0 L 150.45,-0 L 150.45,-6 L 150.506,-6.53017
 L 150.67,-7.03717 L 150.937,-7.49884 L 151.294,-7.895 L 151.725,-8.20836 L 152.212,-8.42519 L 152.733,-8.53603
 L 153.267,-8.53603 L 153.788,-8.42519 L 154.275,-8.20836 L 154.706,-7.895 L 155.063,-7.49884 L 155.33,-7.03717
 L 155.494,-6.53017 L 155.55,-6 L 155.55,-0 L 295.95,-0 L 295.95,-6 L 296.006,-6.53017
 L 296.17,-7.03717 L 296.437,-7.49884 L 296.794,-7.895 L 297.225,-8.20836 L 297.712,-8.42519 L 298.233,-8.53603
 L 298.767,-8.53603 L 299.288,-8.42519 L 299.775,-8.20836 L 300.206,-7.895 L 300.563,-7.49884 L 300.83,-7.03717
 L 300.994,-6.53017 L 301.05,-6 L 301.05,-0 L 441.45,-0 L 441.45,-6 L 441.506,-6.53017
 L 441.67,-7.03717 L 441.937,-7.49884 L 442.294,-7.895 L 442.725,-8.20836 L 443.212,-8.42519 L 443.733,-8.53603
 L 444.267,-8.53603 L 444.788,-8.42519 L 445.275,-8.20836 L 445.706,-7.895 L 446.063,-7.49884 L 446.33,-7.03717
 L 446.494,-6.53017 L 446.55,-6 L 446.55,-0 L 586.95,-0 L 586.95,-6 L 587.006,-6.53017
 L 587.17,-7.03717 L 587.437,-7.49884 L 587.794,-7.895 L 588.225,-8.20836 L 588.712,-8.42519 L 589.233,-8.53603
 L 589.767,-8.53603 L 590.288,-8.42519 L 590.775,-8.20836 L 591.206,-7.895 L 591.563,-7.49884 L 591.83,-7.03717
 L 591.994,-6.53017 L 592.05,-6 L 592.05,-0 L 597,-0 z
M 6.98573,-55.607 L 6.47708,-55.6875 L 5.97964,-55.8208 L 5.49887,-56.0054 L 5.04001,-56.2392 L 4.60811,-56.5196
 L 4.20789,-56.8437 L 3.84373,-57.2079 L 3.51964,-57.6081 L 3.23917,-58.04 L 3.00537,-58.4989 L 2.82082,-58.9796
 L 2.68752,-59.4771 L 2.60696,-59.9857 L 2.58,-60.5 L 2.60696,-61.0143 L 2.68752,-61.5229 L 2.82082,-62.0204
 L 3.00537,-62.5011 L 3.23917,-62.96 L 3.51964,-63.3919 L 3.84373,-63.7921 L 4.20789,-64.1563 L 4.60811,-64.4804
 L 4.95001,-64.7024 L 4.95001,-74 L 5.00574,-74.5302 L 5.17047,-75.0372 L 5.43701,-75.4988 L 5.79373,-75.895
 L 6.22501,-76.2084 L 6.71202,-76.4252 L 7.23346,-76.536 L 7.76654,-76.536 L 8.28798,-76.4252 L 8.77499,-76.2084
 L 9.20627,-75.895 L 9.56299,-75.4988 L 9.82953,-75.0372 L 9.99426,-74.5302 L 10.05,-74 L 10.05,-64.7024
 L 10.3919,-64.4804 L 10.7921,-64.1563 L 11.1563,-63.7921 L 11.4804,-63.3919 L 11.7608,-62.96 L 11.9946,-62.5011
 L 12.1792,-62.0204 L 12.3125,-61.5229 L 12.393,-61.0143 L 12.42,-60.5 L 12.393,-59.9857 L 12.3125,-59.4771
 L 12.1792,-58.9796 L 11.9946,-58.4989 L 11.7608,-58.04 L 11.4804,-57.6081 L 11.1563,-57.2079 L 10.7921,-56.8437
 L 10.3919,-56.5196 L 9.95999,-56.2392 L 9.50113,-56.0054 L 9.02036,-55.8208 L 8.52292,-55.6875 L 8.01427,-55.607
 L 7.5,-55.58 z
M 152.486,-55.607 L 151.977,-55.6875 L 151.48,-55.8208 L 150.999,-56.0054 L 150.54,-56.2392 L 150.108,-56.5196
 L 149.708,-56.8437 L 149.344,-57.2079 L 149.02,-57.6081 L 148.739,-58.04 L 148.505,-58.4989 L 148.321,-58.9796
 L 148.188,-59.4771 L 148.107,-59.9857 L 148.08,-60.5 L 148.107,-61.0143 L 148.188,-61.5229 L 148.321,-62.0204
 L 148.505,-62.5011 L 148.739,-62.96 L 149.02,-63.3919 L 149.344,-63.7921 L 149.708,-64.1563 L 150.108,-64.4804
 L 150.45,-64.7024 L 150.45,-74 L 150.506,-74.5302 L 150.67,-75.0372 L 150.937,-75.4988 L 151.294,-75.895
 L 151.725,-76.2084 L 152.212,-76.4252 L 152.733,-76.536 L 153.267,-76.536 L 153.788,-76.4252 L 154.275,-76.2084
 L 154.706,-75.895 L 155.063,-75.4988 L 155.33,-75.0372 L 155.494,-74.5302 L 155.55,-74 L 155.55,-64.7024
 L 155.892,-64.4804 L 156.292,-64.1563 L 156.656,-63.7921 L 156.98,-63.3919 L 157.261,-62.96 L 157.495,-62.5011
 L 157.679,-62.0204 L 157.812,-61.5229 L 157.893,-61.0143 L 157.92,-60.5 L 157.893,-59.9857 L 157.812,-59.4771
 L 157.679,-58.9796 L 157.495,-58.4989 L 157.261,-58.04 L 156.98,-57.6081 L 156.656,-57.2079 L 156.292,-56.8437
 L 155.892,-56.5196 L 155.46,-56.2392 L 155.001,-56.0054 L 154.52,-55.8208 L 154.023,-55.6875 L 153.514,-55.607
 L 153,-55.58 z
M 297.986,-55.607 L 297.477,-55.6875 L 296.98,-55.8208 L 296.499,-56.0054 L 296.04,-56.2392 L 295.608,-56.5196
 L 295.208,-56.8437 L 294.844,-57.2079 L 294.52,-57.6081 L 294.239,-58.04 L 294.005,-58.4989 L 293.821,-58.9796
 L 293.688,-59.4771 L 293.607,-59.9857 L 293.58,-60.5 L 293.607,-61.0143 L 293.688,-61.5229 L 293.821,-62.0204
 L 294.005,-62.5011 L 294.239,-62.96 L 294.52,-63.3919 L 294.844,-63.7921 L 295.208,-64.1563 L 295.608,-64.4804
 L 295.95,-64.7024 L 295.95,-74 L 296.006,-74.5302 L 296.17,-75.0372 L 296.437,-75.4988 L 296.794,-75.895
 L 297.225,-76.2084 L 297.712,-76.4252 L 298.233,-76.536 L 298.767,-76.536 L 299.288,-76.4252 L 299.775,-76.2084
 L 300.206,-75.895 L 300.563,-75.4988 L 300.83,-75.0372 L 300.994,-74.5302 L 301.05,-74 L 301.05,-64.7024
 L 301.392,-64.4804 L 301.792,-64.1563 L 302.156,-63.7921 L 302.48,-63.3919 L 302.761,-62.96 L 302.995,-62.5011
 L 303.179,-62.0204 L 303.312,-61.5229 L 303.393,-61.0143 L 303.42,-60.5 L 303.393,-59.9857 L 303.312,-59.4771
 L 303.179,-58.9796 L 302.995,-58.4989 L 302.761,-58.04 L 302.48,-57.6081 L 302.156,-57.2079 L 301.792,-56.8437
 L 301.392,-56.5196 L 300.96,-56.2392 L 300.501,-56.0054 L 300.02,-55.8208 L 299.523,-55.6875 L 299.014,-55.607
 L 298.5,-55.58 z
M 443.486,-55.607 L 442.977,-55.6875 L 442.48,-55.8208 L 441.999,-56.0054 L 441.54,-56.2392 L 441.108,-56.5196
 L 440.708,-56.8437 L 440.344,-57.2079 L 440.02,-57.6081 L 439.739,-58.04 L 439.505,-58.4989 L 439.321,-58.9796
 L 439.188,-59.4771 L 439.107,-59.9857 L 439.08,-60.5 L 439.107,-61.0143 L 439.188,-61.5229 L 439.321,-62.0204
 L 439.505,-62.5011 L 439.739,-62.96 L 440.02,-63.3919 L 440.344,-63.7921 L 440.708,-64.1563 L 441.108,-64.4804
 L 441.45,-64.7024 L 441.45,-74 L 441.506,-74.5302 L 441.67,-75.0372 L 441.937,-75.4988 L 442.294,-75.895
 L 442.725,-76.2084 L 443.212,-76.4252 L 443.733,-76.536 L 444.267,-76.536 L 444.788,-76.4252 L 445.275,-76.2084
 L 445.706,-75.895 L 446.063,-75.4988 L 446.33,-75.0372 L 446.494,-74.5302 L 446.55,-74 L 446.55,-64.7024
 L 446.892,-64.4804 L 447.292,-64.1563 L 447.656,-63.7921 L 447.98,-63.3919 L 448.261,-62.96 L 448.495,-62.5011
 L 448.679,-62.0204 L 448.812,-61.5229 L 448.893,-61.0143 L 448.92,-60.5 L 448.893,-59.9857 L 448.812,-59.4771
 L 448.679,-58.9796 L 448.495,-58.4989 L 448.261,-58.04 L 447.98,-57.6081 L 447.656,-57.2079 L 447.292,-56.8437
 L 446.892,-56.5196 L 446.46,-56.2392 L 446.001,-56.0054 L 445.52,-55.8208 L 445.023,-55.6875 L 444.514,-55.607
 L 444,-55.58 z
M 588.986,-55.607 L 588.477,-55.6875 L 587.98,-55.8208 L 587.499,-56.0054 L 587.04,-56.2392 L 586.608,-56.5196
 L 586.208,-56.8437 L 585.844,-57.2079 L 585.52,-57.6081 L 585.239,-58.04 L 585.005,-58.4989 L 584.821,-58.9796
 L 584.688,-59.4771 L 584.607,-59.9857 L 584.58,-60.5 L 584.607,-61.0143 L 584.688,-61.5229 L 584.821,-62.0204
 L 585.005,-62.5011 L 585.239,-62.96 L 585.52,-63.3919 L 585.844,-63.7921 L 586.208,-64.1563 L 586.608,-64.4804
 L 586.95,-64.7024 L 586.95,-74 L 587.006,-74.5302 L 587.17,-75.0372 L 587.437,-75.4988 L 587.794,-75.895
 L 588.225,-76.2084 L 588.712,-76.4252 L 589.233,-76.536 L 589.767,-76.536 L 590.288,-76.4252 L 590.775,-76.2084
 L 591.206,-75.895 L 591.563,-75.4988 L 591.83,-75.0372 L 591.994,-74.5302 L 592.05,-74 L 592.05,-64.7024
 L 592.392,-64.4804 L 592.792,-64.1563 L 593.156,-63.7921 L 593.48,-63.3919 L 593.761,-62.96 L 593.995,-62.5011
 L 594.179,-62.0204 L 594.312,-61.5229 L 594.393,-61.0143 L 594.42,-60.5 L 594.393,-59.9857 L 594.312,-59.4771
 L 594.179,-58.9796 L 593.995,-58.4989 L 593.761,-58.04 L 593.48,-57.6081 L 593.156,-57.2079 L 592.792,-56.8437
 L 592.392,-56.5196 L 591.96,-56.2392 L 591.501,-56.0054 L 591.02,-55.8208 L 590.523,-55.6875 L 590.014,-55.607
 L 589.5,-55.58 z
M 310.74,-22.4957 L 309.94,-22.7395 L 309.209,-23.1443 L 308.577,-23.6924 L 308.073,-24.3598 L 307.719,-25.1173
 L 307.53,-25.932 L 307.5,-26.4229 L 307.5,-58 L 307.587,-58.8316 L 307.846,-59.627 L 308.264,-60.3511
 L 308.823,-60.9726 L 309.5,-61.4641 L 310.264,-61.8042 L 311.5,-62 L 379.066,-62 L 379.897,-61.9126
 L 380.693,-61.6542 L 381.417,-61.2361 L 382.038,-60.6765 L 382.53,-60 L 382.87,-59.2361 L 383.044,-58.4181
 L 383.044,-57.5819 L 382.87,-56.7639 L 382.53,-56 L 382.038,-55.3235 L 381.417,-54.7639 L 380.759,-54.3762
 L 313.194,-22.7991 L 312.403,-22.5261 L 311.573,-22.4235 z
M 284.597,-22.5261 L 283.806,-22.7991 L 216.241,-54.3762 L 215.583,-54.7639 L 214.962,-55.3235 L 214.47,-56
 L 214.13,-56.7639 L 213.956,-57.5819 L 213.956,-58.4181 L 214.13,-59.2361 L 214.47,-60 L 214.962,-60.6765
 L 215.583,-61.2361 L 216.307,-61.6542 L 217.103,-61.9126 L 217.934,-62 L 285.5,-62 L 286.736,-61.8042
 L 287.5,-61.4641 L 288.177,-60.9726 L 288.736,-60.3511 L 289.154,-59.627 L 289.413,-58.8316 L 289.5,-58
 L 289.5,-26.4229 L 289.47,-25.932 L 289.281,-25.1173 L 288.927,-24.3598 L 288.423,-23.6924 L 287.791,-23.1443
 L 287.06,-22.7395 L 286.26,-22.4957 L 285.427,-22.4235 z
M 456.24,-22.4957 L 455.44,-22.7395 L 454.709,-23.1443 L 454.077,-23.6924 L 453.573,-24.3598 L 453.219,-25.1173
 L 453.03,-25.932 L 453,-26.4229 L 453,-58 L 453.087,-58.8316 L 453.346,-59.627 L 453.764,-60.3511
 L 454.323,-60.9726 L 455,-61.4641 L 455.764,-61.8042 L 457,-62 L 524.566,-62 L 525.397,-61.9126
 L 526.193,-61.6542 L 526.917,-61.2361 L 527.538,-60.6765 L 528.03,-60 L 528.37,-59.2361 L 528.544,-58.4181
 L 528.544,-57.5819 L 528.37,-56.7639 L 528.03,-56 L 527.538,-55.3235 L 526.917,-54.7639 L 526.259,-54.3762
 L 458.694,-22.7991 L 457.903,-22.5261 L 457.073,-22.4235 z
M 139.097,-22.5261 L 138.306,-22.7991 L 70.7406,-54.3762 L 70.0831,-54.7639 L 69.4616,-55.3235 L 68.9701,-56
 L 68.63,-56.7639 L 68.4561,-57.5819 L 68.4561,-58.4181 L 68.63,-59.2361 L 68.9701,-60 L 69.4616,-60.6765
 L 70.0831,-61.2361 L 70.8072,-61.6542 L 71.6025,-61.9126 L 72.4342,-62 L 140,-62 L 141.236,-61.8042
 L 142,-61.4641 L 142.677,-60.9726 L 143.236,-60.3511 L 143.654,-59.627 L 143.913,-58.8316 L 144,-58
 L 144,-26.4229 L 143.97,-25.932 L 143.781,-25.1173 L 143.427,-24.3598 L 142.923,-23.6924 L 142.291,-23.1443
 L 141.56,-22.7395 L 140.76,-22.4957 L 139.927,-22.4235 z
M 363.434,-18 L 362.603,-18.0874 L 361.807,-18.3458 L 361.083,-18.7639 L 360.462,-19.3235 L 359.97,-20
 L 359.63,-20.7639 L 359.456,-21.5819 L 359.456,-22.4181 L 359.63,-23.2361 L 359.97,-24 L 360.462,-24.6765
 L 361.083,-25.2361 L 361.741,-25.6238 L 429.306,-57.2009 L 430.097,-57.4738 L 430.927,-57.5765 L 431.76,-57.5043
 L 432.56,-57.2605 L 433.291,-56.8557 L 433.923,-56.3076 L 434.427,-55.6402 L 434.781,-54.8827 L 434.97,-54.068
 L 435,-53.5771 L 435,-22 L 434.913,-21.1684 L 434.654,-20.373 L 434.236,-19.6489 L 433.677,-19.0274
 L 433,-18.5359 L 432.236,-18.1958 L 431,-18 z
M 166,-18 L 164.764,-18.1958 L 164,-18.5359 L 163.323,-19.0274 L 162.764,-19.6489 L 162.346,-20.373
 L 162.087,-21.1684 L 162,-22 L 162,-53.5771 L 162.03,-54.068 L 162.219,-54.8827 L 162.573,-55.6402
 L 163.077,-56.3076 L 163.709,-56.8557 L 164.44,-57.2605 L 165.24,-57.5043 L 166.073,-57.5765 L 166.903,-57.4738
 L 167.694,-57.2009 L 235.259,-25.6238 L 235.917,-25.2361 L 236.538,-24.6765 L 237.03,-24 L 237.37,-23.2361
 L 237.544,-22.4181 L 237.544,-21.5819 L 237.37,-20.7639 L 237.03,-20 L 236.538,-19.3235 L 235.917,-18.7639
 L 235.193,-18.3458 L 234.397,-18.0874 L 233.566,-18 z
M 22,-18 L 20.7639,-18.1958 L 20,-18.5359 L 19.3235,-19.0274 L 18.7639,-19.6489 L 18.3458,-20.373
 L 18.0874,-21.1684 L 18,-22 L 18,-52.8761 L 18.0302,-53.367 L 18.219,-54.1816 L 18.5731,-54.9392
 L 19.0769,-55.6066 L 19.7085,-56.1547 L 20.4402,-56.5595 L 21.2401,-56.8033 L 22.0732,-56.8754 L 22.9032,-56.7728
 L 23.6936,-56.4999 L 89.7594,-25.6238 L 90.4169,-25.2361 L 91.0384,-24.6765 L 91.5299,-24 L 91.87,-23.2361
 L 92.0439,-22.4181 L 92.0439,-21.5819 L 91.87,-20.7639 L 91.5299,-20 L 91.0384,-19.3235 L 90.4169,-18.7639
 L 89.6927,-18.3458 L 88.8974,-18.0874 L 88.0658,-18 z
M 508.934,-18 L 508.103,-18.0874 L 507.307,-18.3458 L 506.583,-18.7639 L 505.962,-19.3235 L 505.47,-20
 L 505.13,-20.7639 L 504.956,-21.5819 L 504.956,-22.4181 L 505.13,-23.2361 L 505.47,-24 L 505.962,-24.6765
 L 506.583,-25.2361 L 507.241,-25.6238 L 573.306,-56.4999 L 574.097,-56.7728 L 574.927,-56.8754 L 575.76,-56.8033
 L 576.56,-56.5595 L 577.291,-56.1547 L 577.923,-55.6066 L 578.427,-54.9392 L 578.781,-54.1816 L 578.97,-53.367
 L 579,-52.8761 L 579,-22 L 578.913,-21.1684 L 578.654,-20.373 L 578.236,-19.6489 L 577.677,-19.0274
 L 577,-18.5359 L 576.236,-18.1958 L 575,-18 z
" stroke="black" fill="lightgray" stroke-width="0.5"/>
</svg>
