<?xml version="1.0" standalone="no"?>
<!DOCTYPE svg PUBLIC "-//W3C//DTD SVG 1.1//EN" "http://www.w3.org/Graphics/SVG/1.1/DTD/svg11.dtd">
<svg width="710mm" height="80mm" viewBox="0 -80 710 80" xmlns="http://www.w3.org/2000/svg" version="1.1">
<title>OpenSCAD Model</title>
<path d="
M 710,-80 L 0,-80 L 0,-0 L 4.95,-0 L 4.95,-6 L 5.00572,-6.53017
 L 5.17046,-7.03717 L 5.437,-7.49884 L 5.79372,-7.895 L 6.22499,-8.20836 L 6.71201,-8.42519 L 7.23344,-8.53603
 L 7.76654,-8.53603 L 8.28798,-8.42519 L 8.77499,-8.20836 L 9.20627,-7.895 L 9.56299,-7.49884 L 9.82953,-7.03717
 L 9.99426,-6.53017 L 10.05,-6 L 10.05,-0 L 143.95,-0 L 143.95,-6 L 144.006,-6.53017
 L 144.17,-7.03717 L 144.437,-7.49884 L 144.794,-7.895 L 145.225,-8.20836 L 145.712,-8.42519 L 146.233,-8.53603
 L 146.767,-8.53603 L 147.288,-8.42519 L 147.775,-8.20836 L 148.206,-7.895 L 148.563,-7.49884 L 148.83,-7.03717
 L 148.994,-6.53017 L 149.05,-6 L 149.05,-0 L 282.95,-0 L 282.95,-6 L 283.006,-6.53017
 L 283.17,-7.03717 L 283.437,-7.49884 L 283.794,-7.895 L 284.225,-8.20836 L 284.712,-8.42519 L 285.233,-8.53603
 L 285.767,-8.53603 L 286.288,-8.42519 L 286.775,-8.20836 L 287.206,-7.895 L 287.563,-7.49884 L 287.83,-7.03717
 L 287.994,-6.53017 L 288.05,-6 L 288.05,-0 L 421.95,-0 L 421.95,-6 L 422.006,-6.53017
 L 422.17,-7.03717 L 422.437,-7.49884 L 422.794,-7.895 L 423.225,-8.20836 L 423.712,-8.42519 L 424.233,-8.53603
 L 424.767,-8.53603 L 425.288,-8.42519 L 425.775,-8.20836 L 426.206,-7.895 L 426.563,-7.49884 L 426.83,-7.03717
 L 426.994,-6.53017 L 427.05,-6 L 427.05,-0 L 560.95,-0 L 560.95,-6 L 561.006,-6.53017
 L 561.17,-7.03717 L 561.437,-7.49884 L 561.794,-7.895 L 562.225,-8.20836 L 562.712,-8.42519 L 563.233,-8.53603
 L 563.767,-8.53603 L 564.288,-8.42519 L 564.775,-8.20836 L 565.206,-7.895 L 565.563,-7.49884 L 565.83,-7.03717
 L 565.994,-6.53017 L 566.05,-6 L 566.05,-0 L 699.95,-0 L 699.95,-6 L 700.006,-6.53017
 L 700.17,-7.03717 L 700.437,-7.49884 L 700.794,-7.895 L 701.225,-8.20836 L 701.712,-8.42519 L 702.233,-8.53603
 L 702.767,-8.53603 L 703.288,-8.42519 L 703.775,-8.20836 L 704.206,-7.895 L 704.563,-7.49884 L 704.83,-7.03717
 L 704.994,-6.53017 L 705.05,-6 L 705.05,-0 L 710,-0 z
M 6.98573,-55.607 L 6.47708,-55.6875 L 5.97964,-55.8208 L 5.49887,-56.0054 L 5.04001,-56.2392 L 4.60811,-56.5196
 L 4.20789,-56.8437 L 3.84373,-57.2079 L 3.51964,-57.6081 L 3.23917,-58.04 L 3.00537,-58.4989 L 2.82082,-58.9796
 L 2.68752,-59.4771 L 2.60696,-59.9857 L 2.58,-60.5 L 2.60696,-61.0143 L 2.68752,-61.5229 L 2.82082,-62.0204
 L 3.00537,-62.5011 L 3.23917,-62.96 L 3.51964,-63.3919 L 3.84373,-63.7921 L 4.20789,-64.1563 L 4.60811,-64.4804
 L 4.95001,-64.7024 L 4.95001,-74 L 5.00574,-74.5302 L 5.17047,-75.0372 L 5.43701,-75.4988 L 5.79373,-75.895
 L 6.22501,-76.2084 L 6.71202,-76.4252 L 7.23346,-76.536 L 7.76654,-76.536 L 8.28798,-76.4252 L 8.77499,-76.2084
 L 9.20627,-75.895 L 9.56299,-75.4988 L 9.82953,-75.0372 L 9.99426,-74.5302 L 10.05,-74 L 10.05,-64.7024
 L 10.3919,-64.4804 L 10.7921,-64.1563 L 11.1563,-63.7921 L 11.4804,-63.3919 L 11.7608,-62.96 L 11.9946,-62.5011
 L 12.1792,-62.0204 L 12.3125,-61.5229 L 12.393,-61.0143 L 12.42,-60.5 L 12.393,-59.9857 L 12.3125,-59.4771
 L 12.1792,-58.9796 L 11.9946,-58.4989 L 11.7608,-58.04 L 11.4804,-57.6081 L 11.1563,-57.2079 L 10.7921,-56.8437
 L 10.3919,-56.5196 L 9.95999,-56.2392 L 9.50113,-56.0054 L 9.02036,-55.8208 L 8.52292,-55.6875 L 8.01427,-55.607
 L 7.5,-55.58 z
M 145.986,-55.607 L 145.477,-55.6875 L 144.98,-55.8208 L 144.499,-56.0054 L 144.04,-56.2392 L 143.608,-56.5196
 L 143.208,-56.8437 L 142.844,-57.2079 L 142.52,-57.6081 L 142.239,-58.04 L 142.005,-58.4989 L 141.821,-58.9796
 L 141.688,-59.4771 L 141.607,-59.9857 L 141.58,-60.5 L 141.607,-61.0143 L 141.688,-61.5229 L 141.821,-62.0204
 L 142.005,-62.5011 L 142.239,-62.96 L 142.52,-63.3919 L 142.844,-63.7921 L 143.208,-64.1563 L 143.608,-64.4804
 L 143.95,-64.7024 L 143.95,-74 L 144.006,-74.5302 L 144.17,-75.0372 L 144.437,-75.4988 L 144.794,-75.895
 L 145.225,-76.2084 L 145.712,-76.4252 L 146.233,-76.536 L 146.767,-76.536 L 147.288,-76.4252 L 147.775,-76.2084
 L 148.206,-75.895 L 148.563,-75.4988 L 148.83,-75.0372 L 148.994,-74.5302 L 149.05,-74 L 149.05,-64.7024
 L 149.392,-64.4804 L 149.792,-64.1563 L 150.156,-63.7921 L 150.48,-63.3919 L 150.761,-62.96 L 150.995,-62.5011
 L 151.179,-62.0204 L 151.312,-61.5229 L 151.393,-61.0143 L 151.42,-60.5 L 151.393,-59.9857 L 151.312,-59.4771
 L 151.179,-58.9796 L 150.995,-58.4989 L 150.761,-58.04 L 150.48,-57.6081 L 150.156,-57.2079 L 149.792,-56.8437
 L 149.392,-56.5196 L 148.96,-56.2392 L 148.501,-56.0054 L 148.02,-55.8208 L 147.523,-55.6875 L 147.014,-55.607
 L 146.5,-55.58 z
M 284.986,-55.607 L 284.477,-55.6875 L 283.98,-55.8208 L 283.499,-56.0054 L 283.04,-56.2392 L 282.608,-56.5196
 L 282.208,-56.8437 L 281.844,-57.2079 L 281.52,-57.6081 L 281.239,-58.04 L 281.005,-58.4989 L 280.821,-58.9796
 L 280.688,-59.4771 L 280.607,-59.9857 L 280.58,-60.5 L 280.607,-61.0143 L 280.688,-61.5229 L 280.821,-62.0204
 L 281.005,-62.5011 L 281.239,-62.96 L 281.52,-63.3919 L 281.844,-63.7921 L 282.208,-64.1563 L 282.608,-64.4804
 L 282.95,-64.7024 L 282.95,-74 L 283.006,-74.5302 L 283.17,-75.0372 L 283.437,-75.4988 L 283.794,-75.895
 L 284.225,-76.2084 L 284.712,-76.4252 L 285.233,-76.536 L 285.767,-76.536 L 286.288,-76.4252 L 286.775,-76.2084
 L 287.206,-75.895 L 287.563,-75.4988 L 287.83,-75.0372 L 287.994,-74.5302 L 288.05,-74 L 288.05,-64.7024
 L 288.392,-64.4804 L 288.792,-64.1563 L 289.156,-63.7921 L 289.48,-63.3919 L 289.761,-62.96 L 289.995,-62.5011
 L 290.179,-62.0204 L 290.312,-61.5229 L 290.393,-61.0143 L 290.42,-60.5 L 290.393,-59.9857 L 290.312,-59.4771
 L 290.179,-58.9796 L 289.995,-58.4989 L 289.761,-58.04 L 289.48,-57.6081 L 289.156,-57.2079 L 288.792,-56.8437
 L 288.392,-56.5196 L 287.96,-56.2392 L 287.501,-56.0054 L 287.02,-55.8208 L 286.523,-55.6875 L 286.014,-55.607
 L 285.5,-55.58 z
M 423.986,-55.607 L 423.477,-55.6875 L 422.98,-55.8208 L 422.499,-56.0054 L 422.04,-56.2392 L 421.608,-56.5196
 L 421.208,-56.8437 L 420.844,-57.2079 L 420.52,-57.6081 L 420.239,-58.04 L 420.005,-58.4989 L 419.821,-58.9796
 L 419.688,-59.4771 L 419.607,-59.9857 L 419.58,-60.5 L 419.607,-61.0143 L 419.688,-61.5229 L 419.821,-62.0204
 L 420.005,-62.5011 L 420.239,-62.96 L 420.52,-63.3919 L 420.844,-63.7921 L 421.208,-64.1563 L 421.608,-64.4804
 L 421.95,-64.7024 L 421.95,-74 L 422.006,-74.5302 L 422.17,-75.0372 L 422.437,-75.4988 L 422.794,-75.895
 L 423.225,-76.2084 L 423.712,-76.4252 L 424.233,-76.536 L 424.767,-76.536 L 425.288,-76.4252 L 425.775,-76.2084
 L 426.206,-75.895 L 426.563,-75.4988 L 426.83,-75.0372 L 426.994,-74.5302 L 427.05,-74 L 427.05,-64.7024
 L 427.392,-64.4804 L 427.792,-64.1563 L 428.156,-63.7921 L 428.48,-63.3919 L 428.761,-62.96 L 428.995,-62.5011
 L 429.179,-62.0204 L 429.312,-61.5229 L 429.393,-61.0143 L 429.42,-60.5 L 429.393,-59.9857 L 429.312,-59.4771
 L 429.179,-58.9796 L 428.995,-58.4989 L 428.761,-58.04 L 428.48,-57.6081 L 428.156,-57.2079 L 427.792,-56.8437
 L 427.392,-56.5196 L 426.96,-56.2392 L 426.501,-56.0054 L 426.02,-55.8208 L 425.523,-55.6875 L 425.014,-55.607
 L 424.5,-55.58 z
M 562.986,-55.607 L 562.477,-55.6875 L 561.98,-55.8208 L 561.499,-56.0054 L 561.04,-56.2392 L 560.608,-56.5196
 L 560.208,-56.8437 L 559.844,-57.2079 L 559.52,-57.6081 L 559.239,-58.04 L 559.005,-58.4989 L 558.821,-58.9796
 L 558.688,-59.4771 L 558.607,-59.9857 L 558.58,-60.5 L 558.607,-61.0143 L 558.688,-61.5229 L 558.821,-62.0204
 L 559.005,-62.5011 L 559.239,-62.96 L 559.52,-63.3919 L 559.844,-63.7921 L 560.208,-64.1563 L 560.608,-64.4804
 L 560.95,-64.7024 L 560.95,-74 L 561.006,-74.5302 L 561.17,-75.0372 L 561.437,-75.4988 L 561.794,-75.895
 L 562.225,-76.2084 L 562.712,-76.4252 L 563.233,-76.536 L 563.767,-76.536 L 564.288,-76.4252 L 564.775,-76.2084
 L 565.206,-75.895 L 565.563,-75.4988 L 565.83,-75.0372 L 565.994,-74.5302 L 566.05,-74 L 566.05,-64.7024
 L 566.392,-64.4804 L 566.792,-64.1563 L 567.156,-63.7921 L 567.48,-63.3919 L 567.761,-62.96 L 567.995,-62.5011
 L 568.179,-62.0204 L 568.312,-61.5229 L 568.393,-61.0143 L 568.42,-60.5 L 568.393,-59.9857 L 568.312,-59.4771
 L 568.179,-58.9796 L 567.995,-58.4989 L 567.761,-58.04 L 567.48,-57.6081 L 567.156,-57.2079 L 566.792,-56.8437
 L 566.392,-56.5196 L 565.96,-56.2392 L 565.501,-56.0054 L 565.02,-55.8208 L 564.523,-55.6875 L 564.014,-55.607
 L 563.5,-55.58 z
M 701.986,-55.607 L 701.477,-55.6875 L 700.98,-55.8208 L 700.499,-56.0054 L 700.04,-56.2392 L 699.608,-56.5196
 L 699.208,-56.8437 L 698.844,-57.2079 L 698.52,-57.6081 L 698.239,-58.04 L 698.005,-58.4989 L 697.821,-58.9796
 L 697.688,-59.4771 L 697.607,-59.9857 L 697.58,-60.5 L 697.607,-61.0143 L 697.688,-61.5229 L 697.821,-62.0204
 L 698.005,-62.5011 L 698.239,-62.96 L 698.52,-63.3919 L 698.844,-63.7921 L 699.208,-64.1563 L 699.608,-64.4804
 L 699.95,-64.7024 L 699.95,-74 L 700.006,-74.5302 L 700.17,-75.0372 L 700.437,-75.4988 L 700.794,-75.895
 L 701.225,-76.2084 L 701.712,-76.4252 L 702.233,-76.536 L 702.767,-76.536 L 703.288,-76.4252 L 703.775,-76.2084
 L 704.206,-75.895 L 704.563,-75.4988 L 704.83,-75.0372 L 704.994,-74.5302 L 705.05,-74 L 705.05,-64.7024
 L 705.392,-64.4804 L 705.792,-64.1563 L 706.156,-63.7921 L 706.48,-63.3919 L 706.761,-62.96 L 706.995,-62.5011
 L 707.179,-62.0204 L 707.312,-61.5229 L 707.393,-61.0143 L 707.42,-60.5 L 707.393,-59.9857 L 707.312,-59.4771
 L 707.179,-58.9796 L 706.995,-58.4989 L 706.761,-58.04 L 706.48,-57.6081 L 706.156,-57.2079 L 705.792,-56.8437
 L 705.392,-56.5196 L 704.96,-56.2392 L 704.501,-56.0054 L 704.02,-55.8208 L 703.523,-55.6875 L 703.014,-55.607
 L 702.5,-55.58 z
M 354.028,-48.3577 L 353.242,-48.6447 L 341.464,-54.4069 L 340.87,-54.7639 L 340.249,-55.3235 L 339.757,-56
 L 339.417,-56.7639 L 339.243,-57.5819 L 339.243,-58.4181 L 339.417,-59.2361 L 339.757,-60 L 340.249,-60.6765
 L 340.87,-61.2361 L 341.594,-61.6542 L 342.39,-61.9126 L 343.221,-62 L 366.779,-62 L 367.469,-61.9401
 L 368.273,-61.7105 L 369.011,-61.3188 L 369.653,-60.7821 L 370.168,-60.1237 L 370.536,-59.3726 L 370.739,-58.5614
 L 370.769,-57.7257 L 370.625,-56.902 L 370.313,-56.1263 L 369.846,-55.4325 L 369.245,-54.8509 L 368.536,-54.4069
 L 356.758,-48.6447 L 355.69,-48.2977 L 354.856,-48.2404 z
M 271.528,-22.9425 L 270.742,-23.2294 L 207.012,-54.4069 L 206.418,-54.7639 L 205.797,-55.3235 L 205.305,-56
 L 204.965,-56.7639 L 204.791,-57.5819 L 204.791,-58.4181 L 204.965,-59.2361 L 205.305,-60 L 205.797,-60.6765
 L 206.418,-61.2361 L 207.143,-61.6542 L 207.938,-61.9126 L 208.77,-62 L 272.5,-62 L 273.736,-61.8042
 L 274.5,-61.4641 L 275.177,-60.9726 L 275.736,-60.3511 L 276.154,-59.627 L 276.413,-58.8316 L 276.5,-58
 L 276.5,-26.8225 L 276.46,-26.2611 L 276.257,-25.45 L 275.89,-24.6988 L 275.374,-24.0405 L 274.733,-23.5037
 L 273.994,-23.112 L 273.19,-22.8825 L 272.356,-22.8251 z
M 575.81,-22.8825 L 575.006,-23.112 L 574.267,-23.5037 L 573.626,-24.0405 L 573.11,-24.6988 L 572.743,-25.45
 L 572.54,-26.2611 L 572.5,-26.8225 L 572.5,-58 L 572.587,-58.8316 L 572.846,-59.627 L 573.264,-60.3511
 L 573.823,-60.9726 L 574.5,-61.4641 L 575.264,-61.8042 L 576.5,-62 L 640.23,-62 L 641.062,-61.9126
 L 641.857,-61.6542 L 642.582,-61.2361 L 643.203,-60.6765 L 643.695,-60 L 644.035,-59.2361 L 644.209,-58.4181
 L 644.209,-57.5819 L 644.035,-56.7639 L 643.695,-56 L 643.203,-55.3235 L 642.582,-54.7639 L 641.988,-54.4069
 L 578.258,-23.2294 L 577.472,-22.9425 L 576.644,-22.8251 z
M 132.528,-22.9425 L 131.742,-23.2294 L 68.0118,-54.4069 L 67.4184,-54.7639 L 66.797,-55.3235 L 66.3055,-56
 L 65.9653,-56.7639 L 65.7915,-57.5819 L 65.7915,-58.4181 L 65.9653,-59.2361 L 66.3055,-60 L 66.797,-60.6765
 L 67.4184,-61.2361 L 68.1426,-61.6542 L 68.9379,-61.9126 L 69.7696,-62 L 133.5,-62 L 134.736,-61.8042
 L 135.5,-61.4641 L 136.177,-60.9726 L 136.736,-60.3511 L 137.154,-59.627 L 137.413,-58.8316 L 137.5,-58
 L 137.5,-26.8225 L 137.46,-26.2611 L 137.257,-25.45 L 136.89,-24.6988 L 136.374,-24.0405 L 135.733,-23.5037
 L 134.994,-23.112 L 134.19,-22.8825 L 133.356,-22.8251 z
M 436.81,-22.8825 L 436.006,-23.112 L 435.267,-23.5037 L 434.626,-24.0405 L 434.11,-24.6988 L 433.743,-25.45
 L 433.54,-26.2611 L 433.5,-26.8225 L 433.5,-58 L 433.587,-58.8316 L 433.846,-59.627 L 434.264,-60.3511
 L 434.823,-60.9726 L 435.5,-61.4641 L 436.264,-61.8042 L 437.5,-62 L 501.23,-62 L 502.062,-61.9126
 L 502.857,-61.6542 L 503.582,-61.2361 L 504.203,-60.6765 L 504.695,-60 L 505.035,-59.2361 L 505.209,-58.4181
 L 505.209,-57.5819 L 505.035,-56.7639 L 504.695,-56 L 504.203,-55.3235 L 503.582,-54.7639 L 502.988,-54.4069
 L 439.258,-23.2294 L 438.472,-22.9425 L 437.644,-22.8251 z
M 298.082,-20.6194 L 297.264,-20.7933 L 296.5,-21.1334 L 295.823,-21.6249 L 295.264,-22.2464 L 294.846,-22.9705
 L 294.587,-23.7658 L 294.5,-24.5975 L 294.5,-55.4025 L 294.54,-55.9639 L 294.743,-56.7751 L 295.11,-57.5262
 L 295.626,-58.1846 L 296.267,-58.7213 L 297.006,-59.113 L 297.81,-59.3426 L 298.644,-59.3999 L 299.472,-59.2825
 L 300.258,-58.9956 L 331.742,-43.5931 L 332.217,-43.3188 L 332.859,-42.7821 L 333.374,-42.1237 L 333.742,-41.3726
 L 333.945,-40.5614 L 333.975,-39.7257 L 333.831,-38.902 L 333.519,-38.1263 L 333.052,-37.4325 L 332.451,-36.8509
 L 331.742,-36.4069 L 300.258,-21.0044 L 299.736,-20.7933 L 298.918,-20.6194 z
M 410.528,-20.7175 L 409.742,-21.0044 L 378.258,-36.4069 L 377.783,-36.6812 L 377.141,-37.2179 L 376.626,-37.8763
 L 376.258,-38.6274 L 376.055,-39.4386 L 376.025,-40.2743 L 376.169,-41.098 L 376.481,-41.8737 L 376.948,-42.5675
 L 377.549,-43.1491 L 378.258,-43.5931 L 409.742,-58.9956 L 410.264,-59.2068 L 411.082,-59.3806 L 411.918,-59.3806
 L 412.736,-59.2068 L 413.5,-58.8666 L 414.177,-58.3751 L 414.736,-57.7537 L 415.154,-57.0295 L 415.413,-56.2342
 L 415.5,-55.4025 L 415.5,-24.5975 L 415.46,-24.0361 L 415.257,-23.2249 L 414.89,-22.4738 L 414.374,-21.8154
 L 413.733,-21.2787 L 412.994,-20.8869 L 412.19,-20.6574 L 411.356,-20.6001 z
M 159.5,-18 L 158.264,-18.1958 L 157.5,-18.5359 L 156.823,-19.0274 L 156.264,-19.6489 L 155.846,-20.373
 L 155.587,-21.1684 L 155.5,-22 L 155.5,-53.1775 L 155.54,-53.7389 L 155.743,-54.55 L 156.11,-55.3012
 L 156.626,-55.9595 L 157.267,-56.4963 L 158.006,-56.888 L 158.81,-57.1175 L 159.644,-57.1749 L 160.472,-57.0575
 L 161.258,-56.7705 L 224.988,-25.5931 L 225.582,-25.2361 L 226.203,-24.6765 L 226.695,-24 L 227.035,-23.2361
 L 227.209,-22.4181 L 227.209,-21.5819 L 227.035,-20.7639 L 226.695,-20 L 226.203,-19.3235 L 225.582,-18.7639
 L 224.857,-18.3458 L 224.062,-18.0874 L 223.23,-18 z
M 486.77,-18 L 485.938,-18.0874 L 485.143,-18.3458 L 484.418,-18.7639 L 483.797,-19.3235 L 483.305,-20
 L 482.965,-20.7639 L 482.791,-21.5819 L 482.791,-22.4181 L 482.965,-23.2361 L 483.305,-24 L 483.797,-24.6765
 L 484.418,-25.2361 L 485.012,-25.5931 L 548.742,-56.7705 L 549.528,-57.0575 L 550.356,-57.1749 L 551.19,-57.1175
 L 551.994,-56.888 L 552.733,-56.4963 L 553.374,-55.9595 L 553.89,-55.3012 L 554.257,-54.55 L 554.46,-53.7389
 L 554.5,-53.1775 L 554.5,-22 L 554.413,-21.1684 L 554.154,-20.373 L 553.736,-19.6489 L 553.177,-19.0274
 L 552.5,-18.5359 L 551.736,-18.1958 L 550.5,-18 z
M 22,-18 L 20.7639,-18.1958 L 20,-18.5359 L 19.3235,-19.0274 L 18.7639,-19.6489 L 18.3458,-20.373
 L 18.0874,-21.1684 L 18,-22 L 18,-52.4436 L 18.0396,-53.0051 L 18.2429,-53.8162 L 18.6103,-54.5674
 L 19.126,-55.2257 L 19.7672,-55.7625 L 20.506,-56.1542 L 21.3101,-56.3837 L 22.1444,-56.441 L 22.9723,-56.3237
 L 23.7578,-56.0367 L 85.9882,-25.5931 L 86.5816,-25.2361 L 87.203,-24.6765 L 87.6945,-24 L 88.0347,-23.2361
 L 88.2085,-22.4181 L 88.2085,-21.5819 L 88.0347,-20.7639 L 87.6945,-20 L 87.203,-19.3235 L 86.5816,-18.7639
 L 85.8574,-18.3458 L 85.0621,-18.0874 L 84.2304,-18 z
M 625.77,-18 L 624.938,-18.0874 L 624.143,-18.3458 L 623.418,-18.7639 L 622.797,-19.3235 L 622.305,-20
 L 621.965,-20.7639 L 621.791,-21.5819 L 621.791,-22.4181 L 621.965,-23.2361 L 622.305,-24 L 622.797,-24.6765
 L 623.418,-25.2361 L 624.012,-25.5931 L 686.242,-56.0367 L 687.028,-56.3237 L 687.856,-56.441 L 688.69,-56.3837
 L 689.494,-56.1542 L 690.233,-55.7625 L 690.874,-55.2257 L 691.39,-54.5674 L 691.757,-53.8162 L 691.96,-53.0051
 L 692,-52.4436 L 692,-22 L 691.913,-21.1684 L 691.654,-20.373 L 691.236,-19.6489 L 690.677,-19.0274
 L 690,-18.5359 L 689.236,-18.1958 L 688,-18 z
M 343.221,-18 L 342.531,-18.0599 L 341.727,-18.2895 L 340.988,-18.6812 L 340.347,-19.2179 L 339.832,-19.8763
 L 339.464,-20.6274 L 339.261,-21.4386 L 339.231,-22.2743 L 339.375,-23.098 L 339.687,-23.8737 L 340.154,-24.5675
 L 340.755,-25.1491 L 341.464,-25.5931 L 353.242,-31.3553 L 354.31,-31.7023 L 355.144,-31.7596 L 355.972,-31.6423
 L 356.758,-31.3553 L 368.536,-25.5931 L 369.13,-25.2361 L 369.751,-24.6765 L 370.243,-24 L 370.583,-23.2361
 L 370.757,-22.4181 L 370.757,-21.5819 L 370.583,-20.7639 L 370.243,-20 L 369.751,-19.3235 L 369.13,-18.7639
 L 368.406,-18.3458 L 367.61,-18.0874 L 366.779,-18 z
" stroke="black" fill="lightgray" stroke-width="0.5"/>
</svg>
