<?xml version="1.0" standalone="no"?>
<!DOCTYPE svg PUBLIC "-//W3C//DTD SVG 1.1//EN" "http://www.w3.org/Graphics/SVG/1.1/DTD/svg11.dtd">
<svg width="570mm" height="80mm" viewBox="0 -80 570 80" xmlns="http://www.w3.org/2000/svg" version="1.1">
<title>OpenSCAD Model</title>
<path d="
M 570,-80 L 0,-80 L 0,-0 L 4.95,-0 L 4.95,-6 L 5.00572,-6.53017
 L 5.17046,-7.03717 L 5.437,-7.49884 L 5.79372,-7.895 L 6.22499,-8.20836 L 6.71201,-8.42519 L 7.23344,-8.53603
 L 7.76654,-8.53603 L 8.28798,-8.42519 L 8.77499,-8.20836 L 9.20627,-7.895 L 9.56299,-7.49884 L 9.82953,-7.03717
 L 9.99426,-6.53017 L 10.05,-6 L 10.05,-0 L 143.7,-0 L 143.7,-6 L 143.756,-6.53017
 L 143.92,-7.03717 L 144.187,-7.49884 L 144.544,-7.895 L 144.975,-8.20836 L 145.462,-8.42519 L 145.983,-8.53603
 L 146.517,-8.53603 L 147.038,-8.42519 L 147.525,-8.20836 L 147.956,-7.895 L 148.313,-7.49884 L 148.58,-7.03717
 L 148.744,-6.53017 L 148.8,-6 L 148.8,-0 L 282.45,-0 L 282.45,-6 L 282.506,-6.53017
 L 282.67,-7.03717 L 282.937,-7.49884 L 283.294,-7.895 L 283.725,-8.20836 L 284.212,-8.42519 L 284.733,-8.53603
 L 285.267,-8.53603 L 285.788,-8.42519 L 286.275,-8.20836 L 286.706,-7.895 L 287.063,-7.49884 L 287.33,-7.03717
 L 287.494,-6.53017 L 287.55,-6 L 287.55,-0 L 421.2,-0 L 421.2,-6 L 421.256,-6.53017
 L 421.42,-7.03717 L 421.687,-7.49884 L 422.044,-7.895 L 422.475,-8.20836 L 422.962,-8.42519 L 423.483,-8.53603
 L 424.017,-8.53603 L 424.538,-8.42519 L 425.025,-8.20836 L 425.456,-7.895 L 425.813,-7.49884 L 426.08,-7.03717
 L 426.244,-6.53017 L 426.3,-6 L 426.3,-0 L 559.95,-0 L 559.95,-6 L 560.006,-6.53017
 L 560.17,-7.03717 L 560.437,-7.49884 L 560.794,-7.895 L 561.225,-8.20836 L 561.712,-8.42519 L 562.233,-8.53603
 L 562.767,-8.53603 L 563.288,-8.42519 L 563.775,-8.20836 L 564.206,-7.895 L 564.563,-7.49884 L 564.83,-7.03717
 L 564.994,-6.53017 L 565.05,-6 L 565.05,-0 L 570,-0 z
M 6.98573,-55.607 L 6.47708,-55.6875 L 5.97964,-55.8208 L 5.49887,-56.0054 L 5.04001,-56.2392 L 4.60811,-56.5196
 L 4.20789,-56.8437 L 3.84373,-57.2079 L 3.51964,-57.6081 L 3.23917,-58.04 L 3.00537,-58.4989 L 2.82082,-58.9796
 L 2.68752,-59.4771 L 2.60696,-59.9857 L 2.58,-60.5 L 2.60696,-61.0143 L 2.68752,-61.5229 L 2.82082,-62.0204
 L 3.00537,-62.5011 L 3.23917,-62.96 L 3.51964,-63.3919 L 3.84373,-63.7921 L 4.20789,-64.1563 L 4.60811,-64.4804
 L 4.95001,-64.7024 L 4.95001,-74 L 5.00574,-74.5302 L 5.17047,-75.0372 L 5.43701,-75.4988 L 5.79373,-75.895
 L 6.22501,-76.2084 L 6.71202,-76.4252 L 7.23346,-76.536 L 7.76654,-76.536 L 8.28798,-76.4252 L 8.77499,-76.2084
 L 9.20627,-75.895 L 9.56299,-75.4988 L 9.82953,-75.0372 L 9.99426,-74.5302 L 10.05,-74 L 10.05,-64.7024
 L 10.3919,-64.4804 L 10.7921,-64.1563 L 11.1563,-63.7921 L 11.4804,-63.3919 L 11.7608,-62.96 L 11.9946,-62.5011
 L 12.1792,-62.0204 L 12.3125,-61.5229 L 12.393,-61.0143 L 12.42,-60.5 L 12.393,-59.9857 L 12.3125,-59.4771
 L 12.1792,-58.9796 L 11.9946,-58.4989 L 11.7608,-58.04 L 11.4804,-57.6081 L 11.1563,-57.2079 L 10.7921,-56.8437
 L 10.3919,-56.5196 L 9.95999,-56.2392 L 9.50113,-56.0054 L 9.02036,-55.8208 L 8.52292,-55.6875 L 8.01427,-55.607
 L 7.5,-55.58 z
M 145.736,-55.607 L 145.227,-55.6875 L 144.73,-55.8208 L 144.249,-56.0054 L 143.79,-56.2392 L 143.358,-56.5196
 L 142.958,-56.8437 L 142.594,-57.2079 L 142.27,-57.6081 L 141.989,-58.04 L 141.755,-58.4989 L 141.571,-58.9796
 L 141.438,-59.4771 L 141.357,-59.9857 L 141.33,-60.5 L 141.357,-61.0143 L 141.438,-61.5229 L 141.571,-62.0204
 L 141.755,-62.5011 L 141.989,-62.96 L 142.27,-63.3919 L 142.594,-63.7921 L 142.958,-64.1563 L 143.358,-64.4804
 L 143.7,-64.7024 L 143.7,-74 L 143.756,-74.5302 L 143.92,-75.0372 L 144.187,-75.4988 L 144.544,-75.895
 L 144.975,-76.2084 L 145.462,-76.4252 L 145.983,-76.536 L 146.517,-76.536 L 147.038,-76.4252 L 147.525,-76.2084
 L 147.956,-75.895 L 148.313,-75.4988 L 148.58,-75.0372 L 148.744,-74.5302 L 148.8,-74 L 148.8,-64.7024
 L 149.142,-64.4804 L 149.542,-64.1563 L 149.906,-63.7921 L 150.23,-63.3919 L 150.511,-62.96 L 150.745,-62.5011
 L 150.929,-62.0204 L 151.062,-61.5229 L 151.143,-61.0143 L 151.17,-60.5 L 151.143,-59.9857 L 151.062,-59.4771
 L 150.929,-58.9796 L 150.745,-58.4989 L 150.511,-58.04 L 150.23,-57.6081 L 149.906,-57.2079 L 149.542,-56.8437
 L 149.142,-56.5196 L 148.71,-56.2392 L 148.251,-56.0054 L 147.77,-55.8208 L 147.273,-55.6875 L 146.764,-55.607
 L 146.25,-55.58 z
M 284.486,-55.607 L 283.977,-55.6875 L 283.48,-55.8208 L 282.999,-56.0054 L 282.54,-56.2392 L 282.108,-56.5196
 L 281.708,-56.8437 L 281.344,-57.2079 L 281.02,-57.6081 L 280.739,-58.04 L 280.505,-58.4989 L 280.321,-58.9796
 L 280.188,-59.4771 L 280.107,-59.9857 L 280.08,-60.5 L 280.107,-61.0143 L 280.188,-61.5229 L 280.321,-62.0204
 L 280.505,-62.5011 L 280.739,-62.96 L 281.02,-63.3919 L 281.344,-63.7921 L 281.708,-64.1563 L 282.108,-64.4804
 L 282.45,-64.7024 L 282.45,-74 L 282.506,-74.5302 L 282.67,-75.0372 L 282.937,-75.4988 L 283.294,-75.895
 L 283.725,-76.2084 L 284.212,-76.4252 L 284.733,-76.536 L 285.267,-76.536 L 285.788,-76.4252 L 286.275,-76.2084
 L 286.706,-75.895 L 287.063,-75.4988 L 287.33,-75.0372 L 287.494,-74.5302 L 287.55,-74 L 287.55,-64.7024
 L 287.892,-64.4804 L 288.292,-64.1563 L 288.656,-63.7921 L 288.98,-63.3919 L 289.261,-62.96 L 289.495,-62.5011
 L 289.679,-62.0204 L 289.812,-61.5229 L 289.893,-61.0143 L 289.92,-60.5 L 289.893,-59.9857 L 289.812,-59.4771
 L 289.679,-58.9796 L 289.495,-58.4989 L 289.261,-58.04 L 288.98,-57.6081 L 288.656,-57.2079 L 288.292,-56.8437
 L 287.892,-56.5196 L 287.46,-56.2392 L 287.001,-56.0054 L 286.52,-55.8208 L 286.023,-55.6875 L 285.514,-55.607
 L 285,-55.58 z
M 423.236,-55.607 L 422.727,-55.6875 L 422.23,-55.8208 L 421.749,-56.0054 L 421.29,-56.2392 L 420.858,-56.5196
 L 420.458,-56.8437 L 420.094,-57.2079 L 419.77,-57.6081 L 419.489,-58.04 L 419.255,-58.4989 L 419.071,-58.9796
 L 418.938,-59.4771 L 418.857,-59.9857 L 418.83,-60.5 L 418.857,-61.0143 L 418.938,-61.5229 L 419.071,-62.0204
 L 419.255,-62.5011 L 419.489,-62.96 L 419.77,-63.3919 L 420.094,-63.7921 L 420.458,-64.1563 L 420.858,-64.4804
 L 421.2,-64.7024 L 421.2,-74 L 421.256,-74.5302 L 421.42,-75.0372 L 421.687,-75.4988 L 422.044,-75.895
 L 422.475,-76.2084 L 422.962,-76.4252 L 423.483,-76.536 L 424.017,-76.536 L 424.538,-76.4252 L 425.025,-76.2084
 L 425.456,-75.895 L 425.813,-75.4988 L 426.08,-75.0372 L 426.244,-74.5302 L 426.3,-74 L 426.3,-64.7024
 L 426.642,-64.4804 L 427.042,-64.1563 L 427.406,-63.7921 L 427.73,-63.3919 L 428.011,-62.96 L 428.245,-62.5011
 L 428.429,-62.0204 L 428.562,-61.5229 L 428.643,-61.0143 L 428.67,-60.5 L 428.643,-59.9857 L 428.562,-59.4771
 L 428.429,-58.9796 L 428.245,-58.4989 L 428.011,-58.04 L 427.73,-57.6081 L 427.406,-57.2079 L 427.042,-56.8437
 L 426.642,-56.5196 L 426.21,-56.2392 L 425.751,-56.0054 L 425.27,-55.8208 L 424.773,-55.6875 L 424.264,-55.607
 L 423.75,-55.58 z
M 561.986,-55.607 L 561.477,-55.6875 L 560.98,-55.8208 L 560.499,-56.0054 L 560.04,-56.2392 L 559.608,-56.5196
 L 559.208,-56.8437 L 558.844,-57.2079 L 558.52,-57.6081 L 558.239,-58.04 L 558.005,-58.4989 L 557.821,-58.9796
 L 557.688,-59.4771 L 557.607,-59.9857 L 557.58,-60.5 L 557.607,-61.0143 L 557.688,-61.5229 L 557.821,-62.0204
 L 558.005,-62.5011 L 558.239,-62.96 L 558.52,-63.3919 L 558.844,-63.7921 L 559.208,-64.1563 L 559.608,-64.4804
 L 559.95,-64.7024 L 559.95,-74 L 560.006,-74.5302 L 560.17,-75.0372 L 560.437,-75.4988 L 560.794,-75.895
 L 561.225,-76.2084 L 561.712,-76.4252 L 562.233,-76.536 L 562.767,-76.536 L 563.288,-76.4252 L 563.775,-76.2084
 L 564.206,-75.895 L 564.563,-75.4988 L 564.83,-75.0372 L 564.994,-74.5302 L 565.05,-74 L 565.05,-64.7024
 L 565.392,-64.4804 L 565.792,-64.1563 L 566.156,-63.7921 L 566.48,-63.3919 L 566.761,-62.96 L 566.995,-62.5011
 L 567.179,-62.0204 L 567.312,-61.5229 L 567.393,-61.0143 L 567.42,-60.5 L 567.393,-59.9857 L 567.312,-59.4771
 L 567.179,-58.9796 L 566.995,-58.4989 L 566.761,-58.04 L 566.48,-57.6081 L 566.156,-57.2079 L 565.792,-56.8437
 L 565.392,-56.5196 L 564.96,-56.2392 L 564.501,-56.0054 L 564.02,-55.8208 L 563.523,-55.6875 L 563.014,-55.607
 L 562.5,-55.58 z
M 297.313,-22.8981 L 296.509,-23.1271 L 295.77,-23.5182 L 295.128,-24.0545 L 294.612,-24.7125 L 294.244,-25.4634
 L 294.04,-26.2744 L 294,-26.8386 L 294,-58 L 294.087,-58.8316 L 294.346,-59.627 L 294.764,-60.3511
 L 295.323,-60.9726 L 296,-61.4641 L 296.764,-61.8042 L 298,-62 L 361.583,-62 L 362.415,-61.9126
 L 363.21,-61.6542 L 363.934,-61.2361 L 364.556,-60.6765 L 365.047,-60 L 365.387,-59.2361 L 365.561,-58.4181
 L 365.561,-57.5819 L 365.387,-56.7639 L 365.047,-56 L 364.556,-55.3235 L 363.934,-54.7639 L 363.343,-54.4082
 L 299.76,-23.2468 L 298.975,-22.9593 L 298.147,-22.8414 z
M 271.025,-22.9593 L 270.24,-23.2468 L 206.657,-54.4082 L 206.066,-54.7639 L 205.444,-55.3235 L 204.953,-56
 L 204.613,-56.7639 L 204.439,-57.5819 L 204.439,-58.4181 L 204.613,-59.2361 L 204.953,-60 L 205.444,-60.6765
 L 206.066,-61.2361 L 206.79,-61.6542 L 207.585,-61.9126 L 208.417,-62 L 272,-62 L 273.236,-61.8042
 L 274,-61.4641 L 274.677,-60.9726 L 275.236,-60.3511 L 275.654,-59.627 L 275.913,-58.8316 L 276,-58
 L 276,-26.8386 L 275.96,-26.2744 L 275.756,-25.4634 L 275.388,-24.7125 L 274.872,-24.0545 L 274.23,-23.5182
 L 273.491,-23.1271 L 272.687,-22.8981 L 271.853,-22.8414 z
M 436.063,-22.8981 L 435.259,-23.1271 L 434.52,-23.5182 L 433.878,-24.0545 L 433.362,-24.7125 L 432.994,-25.4634
 L 432.79,-26.2744 L 432.75,-26.8386 L 432.75,-58 L 432.837,-58.8316 L 433.096,-59.627 L 433.514,-60.3511
 L 434.073,-60.9726 L 434.75,-61.4641 L 435.514,-61.8042 L 436.75,-62 L 500.333,-62 L 501.165,-61.9126
 L 501.96,-61.6542 L 502.684,-61.2361 L 503.306,-60.6765 L 503.797,-60 L 504.137,-59.2361 L 504.311,-58.4181
 L 504.311,-57.5819 L 504.137,-56.7639 L 503.797,-56 L 503.306,-55.3235 L 502.684,-54.7639 L 502.093,-54.4082
 L 438.51,-23.2468 L 437.725,-22.9593 L 436.897,-22.8414 z
M 132.275,-22.9593 L 131.49,-23.2468 L 67.9068,-54.4082 L 67.3159,-54.7639 L 66.6945,-55.3235 L 66.203,-56
 L 65.8628,-56.7639 L 65.689,-57.5819 L 65.689,-58.4181 L 65.8628,-59.2361 L 66.203,-60 L 66.6945,-60.6765
 L 67.3159,-61.2361 L 68.0401,-61.6542 L 68.8354,-61.9126 L 69.6671,-62 L 133.25,-62 L 134.486,-61.8042
 L 135.25,-61.4641 L 135.927,-60.9726 L 136.486,-60.3511 L 136.904,-59.627 L 137.163,-58.8316 L 137.25,-58
 L 137.25,-26.8386 L 137.21,-26.2744 L 137.006,-25.4634 L 136.638,-24.7125 L 136.122,-24.0545 L 135.48,-23.5182
 L 134.741,-23.1271 L 133.937,-22.8981 L 133.103,-22.8414 z
M 347.167,-18 L 346.335,-18.0874 L 345.54,-18.3458 L 344.816,-18.7639 L 344.195,-19.3235 L 343.703,-20
 L 343.363,-20.7639 L 343.189,-21.5819 L 343.189,-22.4181 L 343.363,-23.2361 L 343.703,-24 L 344.195,-24.6765
 L 344.816,-25.2361 L 345.407,-25.5918 L 408.99,-56.7532 L 409.775,-57.0407 L 410.603,-57.1586 L 411.437,-57.1019
 L 412.241,-56.8729 L 412.98,-56.4818 L 413.622,-55.9454 L 414.138,-55.2875 L 414.506,-54.5366 L 414.71,-53.7256
 L 414.75,-53.1613 L 414.75,-22 L 414.663,-21.1684 L 414.404,-20.373 L 413.986,-19.6489 L 413.427,-19.0274
 L 412.75,-18.5359 L 411.986,-18.1958 L 410.75,-18 z
M 159.25,-18 L 158.014,-18.1958 L 157.25,-18.5359 L 156.573,-19.0274 L 156.014,-19.6489 L 155.596,-20.373
 L 155.337,-21.1684 L 155.25,-22 L 155.25,-53.1613 L 155.29,-53.7256 L 155.494,-54.5366 L 155.862,-55.2875
 L 156.378,-55.9454 L 157.02,-56.4818 L 157.759,-56.8729 L 158.563,-57.1019 L 159.397,-57.1586 L 160.225,-57.0407
 L 161.01,-56.7532 L 224.593,-25.5918 L 225.184,-25.2361 L 225.805,-24.6765 L 226.297,-24 L 226.637,-23.2361
 L 226.811,-22.4181 L 226.811,-21.5819 L 226.637,-20.7639 L 226.297,-20 L 225.805,-19.3235 L 225.184,-18.7639
 L 224.46,-18.3458 L 223.665,-18.0874 L 222.833,-18 z
M 22,-18 L 20.7639,-18.1958 L 20,-18.5359 L 19.3235,-19.0274 L 18.7639,-19.6489 L 18.3458,-20.373
 L 18.0874,-21.1684 L 18,-22 L 18,-52.4262 L 18.04,-52.9904 L 18.2438,-53.8014 L 18.6118,-54.5523
 L 19.1279,-55.2103 L 19.7695,-55.7466 L 20.5086,-56.1378 L 21.3129,-56.3668 L 22.1472,-56.4235 L 22.9751,-56.3055
 L 23.7603,-56.018 L 85.8432,-25.5918 L 86.434,-25.2361 L 87.0555,-24.6765 L 87.547,-24 L 87.8871,-23.2361
 L 88.061,-22.4181 L 88.061,-21.5819 L 87.8871,-20.7639 L 87.547,-20 L 87.0555,-19.3235 L 86.434,-18.7639
 L 85.7099,-18.3458 L 84.9146,-18.0874 L 84.0829,-18 z
M 485.917,-18 L 485.085,-18.0874 L 484.29,-18.3458 L 483.566,-18.7639 L 482.945,-19.3235 L 482.453,-20
 L 482.113,-20.7639 L 481.939,-21.5819 L 481.939,-22.4181 L 482.113,-23.2361 L 482.453,-24 L 482.945,-24.6765
 L 483.566,-25.2361 L 484.157,-25.5918 L 546.24,-56.018 L 547.025,-56.3055 L 547.853,-56.4235 L 548.687,-56.3668
 L 549.491,-56.1378 L 550.23,-55.7466 L 550.872,-55.2103 L 551.388,-54.5523 L 551.756,-53.8014 L 551.96,-52.9904
 L 552,-52.4262 L 552,-22 L 551.913,-21.1684 L 551.654,-20.373 L 551.236,-19.6489 L 550.677,-19.0274
 L 550,-18.5359 L 549.236,-18.1958 L 548,-18 z
" stroke="black" fill="lightgray" stroke-width="0.5"/>
</svg>
