<?xml version="1.0" standalone="no"?>
<!DOCTYPE svg PUBLIC "-//W3C//DTD SVG 1.1//EN" "http://www.w3.org/Graphics/SVG/1.1/DTD/svg11.dtd">
<svg width="999mm" height="80mm" viewBox="0 -80 999 80" xmlns="http://www.w3.org/2000/svg" version="1.1">
<title>OpenSCAD Model</title>
<path d="
M 999,-80 L 0,-80 L 0,-0 L 4.95,-0 L 4.95,-6 L 5.00572,-6.53017
 L 5.17046,-7.03717 L 5.437,-7.49884 L 5.79372,-7.895 L 6.22499,-8.20836 L 6.71201,-8.42519 L 7.23344,-8.53603
 L 7.76654,-8.53603 L 8.28798,-8.42519 L 8.77499,-8.20836 L 9.20627,-7.895 L 9.56299,-7.49884 L 9.82953,-7.03717
 L 9.99426,-6.53017 L 10.05,-6 L 10.05,-0 L 201.75,-0 L 201.75,-6 L 201.806,-6.53017
 L 201.97,-7.03717 L 202.237,-7.49884 L 202.594,-7.895 L 203.025,-8.20836 L 203.512,-8.42519 L 204.033,-8.53603
 L 204.567,-8.53603 L 205.088,-8.42519 L 205.575,-8.20836 L 206.006,-7.895 L 206.363,-7.49884 L 206.63,-7.03717
 L 206.794,-6.53017 L 206.85,-6 L 206.85,-0 L 398.55,-0 L 398.55,-6 L 398.606,-6.53017
 L 398.77,-7.03717 L 399.037,-7.49884 L 399.394,-7.895 L 399.825,-8.20836 L 400.312,-8.42519 L 400.833,-8.53603
 L 401.367,-8.53603 L 401.888,-8.42519 L 402.375,-8.20836 L 402.806,-7.895 L 403.163,-7.49884 L 403.43,-7.03717
 L 403.594,-6.53017 L 403.65,-6 L 403.65,-0 L 595.35,-0 L 595.35,-6 L 595.406,-6.53017
 L 595.57,-7.03717 L 595.837,-7.49884 L 596.194,-7.895 L 596.625,-8.20836 L 597.112,-8.42519 L 597.633,-8.53603
 L 598.167,-8.53603 L 598.688,-8.42519 L 599.175,-8.20836 L 599.606,-7.895 L 599.963,-7.49884 L 600.23,-7.03717
 L 600.394,-6.53017 L 600.45,-6 L 600.45,-0 L 792.15,-0 L 792.15,-6 L 792.206,-6.53017
 L 792.37,-7.03717 L 792.637,-7.49884 L 792.994,-7.895 L 793.425,-8.20836 L 793.912,-8.42519 L 794.433,-8.53603
 L 794.967,-8.53603 L 795.488,-8.42519 L 795.975,-8.20836 L 796.406,-7.895 L 796.763,-7.49884 L 797.03,-7.03717
 L 797.194,-6.53017 L 797.25,-6 L 797.25,-0 L 988.95,-0 L 988.95,-6 L 989.006,-6.53017
 L 989.17,-7.03717 L 989.437,-7.49884 L 989.794,-7.895 L 990.225,-8.20836 L 990.712,-8.42519 L 991.233,-8.53603
 L 991.767,-8.53603 L 992.288,-8.42519 L 992.775,-8.20836 L 993.206,-7.895 L 993.563,-7.49884 L 993.83,-7.03717
 L 993.994,-6.53017 L 994.05,-6 L 994.05,-0 L 999,-0 z
M 6.98573,-55.607 L 6.47708,-55.6875 L 5.97964,-55.8208 L 5.49887,-56.0054 L 5.04001,-56.2392 L 4.60811,-56.5196
 L 4.20789,-56.8437 L 3.84373,-57.2079 L 3.51964,-57.6081 L 3.23917,-58.04 L 3.00537,-58.4989 L 2.82082,-58.9796
 L 2.68752,-59.4771 L 2.60696,-59.9857 L 2.58,-60.5 L 2.60696,-61.0143 L 2.68752,-61.5229 L 2.82082,-62.0204
 L 3.00537,-62.5011 L 3.23917,-62.96 L 3.51964,-63.3919 L 3.84373,-63.7921 L 4.20789,-64.1563 L 4.60811,-64.4804
 L 4.95001,-64.7024 L 4.95001,-74 L 5.00574,-74.5302 L 5.17047,-75.0372 L 5.43701,-75.4988 L 5.79373,-75.895
 L 6.22501,-76.2084 L 6.71202,-76.4252 L 7.23346,-76.536 L 7.76654,-76.536 L 8.28798,-76.4252 L 8.77499,-76.2084
 L 9.20627,-75.895 L 9.56299,-75.4988 L 9.82953,-75.0372 L 9.99426,-74.5302 L 10.05,-74 L 10.05,-64.7024
 L 10.3919,-64.4804 L 10.7921,-64.1563 L 11.1563,-63.7921 L 11.4804,-63.3919 L 11.7608,-62.96 L 11.9946,-62.5011
 L 12.1792,-62.0204 L 12.3125,-61.5229 L 12.393,-61.0143 L 12.42,-60.5 L 12.393,-59.9857 L 12.3125,-59.4771
 L 12.1792,-58.9796 L 11.9946,-58.4989 L 11.7608,-58.04 L 11.4804,-57.6081 L 11.1563,-57.2079 L 10.7921,-56.8437
 L 10.3919,-56.5196 L 9.95999,-56.2392 L 9.50113,-56.0054 L 9.02036,-55.8208 L 8.52292,-55.6875 L 8.01427,-55.607
 L 7.5,-55.58 z
M 203.786,-55.607 L 203.277,-55.6875 L 202.78,-55.8208 L 202.299,-56.0054 L 201.84,-56.2392 L 201.408,-56.5196
 L 201.008,-56.8437 L 200.644,-57.2079 L 200.32,-57.6081 L 200.039,-58.04 L 199.805,-58.4989 L 199.621,-58.9796
 L 199.488,-59.4771 L 199.407,-59.9857 L 199.38,-60.5 L 199.407,-61.0143 L 199.488,-61.5229 L 199.621,-62.0204
 L 199.805,-62.5011 L 200.039,-62.96 L 200.32,-63.3919 L 200.644,-63.7921 L 201.008,-64.1563 L 201.408,-64.4804
 L 201.75,-64.7024 L 201.75,-74 L 201.806,-74.5302 L 201.97,-75.0372 L 202.237,-75.4988 L 202.594,-75.895
 L 203.025,-76.2084 L 203.512,-76.4252 L 204.033,-76.536 L 204.567,-76.536 L 205.088,-76.4252 L 205.575,-76.2084
 L 206.006,-75.895 L 206.363,-75.4988 L 206.63,-75.0372 L 206.794,-74.5302 L 206.85,-74 L 206.85,-64.7024
 L 207.192,-64.4804 L 207.592,-64.1563 L 207.956,-63.7921 L 208.28,-63.3919 L 208.561,-62.96 L 208.795,-62.5011
 L 208.979,-62.0204 L 209.112,-61.5229 L 209.193,-61.0143 L 209.22,-60.5 L 209.193,-59.9857 L 209.112,-59.4771
 L 208.979,-58.9796 L 208.795,-58.4989 L 208.561,-58.04 L 208.28,-57.6081 L 207.956,-57.2079 L 207.592,-56.8437
 L 207.192,-56.5196 L 206.76,-56.2392 L 206.301,-56.0054 L 205.82,-55.8208 L 205.323,-55.6875 L 204.814,-55.607
 L 204.3,-55.58 z
M 400.586,-55.607 L 400.077,-55.6875 L 399.58,-55.8208 L 399.099,-56.0054 L 398.64,-56.2392 L 398.208,-56.5196
 L 397.808,-56.8437 L 397.444,-57.2079 L 397.12,-57.6081 L 396.839,-58.04 L 396.605,-58.4989 L 396.421,-58.9796
 L 396.288,-59.4771 L 396.207,-59.9857 L 396.18,-60.5 L 396.207,-61.0143 L 396.288,-61.5229 L 396.421,-62.0204
 L 396.605,-62.5011 L 396.839,-62.96 L 397.12,-63.3919 L 397.444,-63.7921 L 397.808,-64.1563 L 398.208,-64.4804
 L 398.55,-64.7024 L 398.55,-74 L 398.606,-74.5302 L 398.77,-75.0372 L 399.037,-75.4988 L 399.394,-75.895
 L 399.825,-76.2084 L 400.312,-76.4252 L 400.833,-76.536 L 401.367,-76.536 L 401.888,-76.4252 L 402.375,-76.2084
 L 402.806,-75.895 L 403.163,-75.4988 L 403.43,-75.0372 L 403.594,-74.5302 L 403.65,-74 L 403.65,-64.7024
 L 403.992,-64.4804 L 404.392,-64.1563 L 404.756,-63.7921 L 405.08,-63.3919 L 405.361,-62.96 L 405.595,-62.5011
 L 405.779,-62.0204 L 405.912,-61.5229 L 405.993,-61.0143 L 406.02,-60.5 L 405.993,-59.9857 L 405.912,-59.4771
 L 405.779,-58.9796 L 405.595,-58.4989 L 405.361,-58.04 L 405.08,-57.6081 L 404.756,-57.2079 L 404.392,-56.8437
 L 403.992,-56.5196 L 403.56,-56.2392 L 403.101,-56.0054 L 402.62,-55.8208 L 402.123,-55.6875 L 401.614,-55.607
 L 401.1,-55.58 z
M 597.386,-55.607 L 596.877,-55.6875 L 596.38,-55.8208 L 595.899,-56.0054 L 595.44,-56.2392 L 595.008,-56.5196
 L 594.608,-56.8437 L 594.244,-57.2079 L 593.92,-57.6081 L 593.639,-58.04 L 593.405,-58.4989 L 593.221,-58.9796
 L 593.088,-59.4771 L 593.007,-59.9857 L 592.98,-60.5 L 593.007,-61.0143 L 593.088,-61.5229 L 593.221,-62.0204
 L 593.405,-62.5011 L 593.639,-62.96 L 593.92,-63.3919 L 594.244,-63.7921 L 594.608,-64.1563 L 595.008,-64.4804
 L 595.35,-64.7024 L 595.35,-74 L 595.406,-74.5302 L 595.57,-75.0372 L 595.837,-75.4988 L 596.194,-75.895
 L 596.625,-76.2084 L 597.112,-76.4252 L 597.633,-76.536 L 598.167,-76.536 L 598.688,-76.4252 L 599.175,-76.2084
 L 599.606,-75.895 L 599.963,-75.4988 L 600.23,-75.0372 L 600.394,-74.5302 L 600.45,-74 L 600.45,-64.7024
 L 600.792,-64.4804 L 601.192,-64.1563 L 601.556,-63.7921 L 601.88,-63.3919 L 602.161,-62.96 L 602.395,-62.5011
 L 602.579,-62.0204 L 602.712,-61.5229 L 602.793,-61.0143 L 602.82,-60.5 L 602.793,-59.9857 L 602.712,-59.4771
 L 602.579,-58.9796 L 602.395,-58.4989 L 602.161,-58.04 L 601.88,-57.6081 L 601.556,-57.2079 L 601.192,-56.8437
 L 600.792,-56.5196 L 600.36,-56.2392 L 599.901,-56.0054 L 599.42,-55.8208 L 598.923,-55.6875 L 598.414,-55.607
 L 597.9,-55.58 z
M 794.186,-55.607 L 793.677,-55.6875 L 793.18,-55.8208 L 792.699,-56.0054 L 792.24,-56.2392 L 791.808,-56.5196
 L 791.408,-56.8437 L 791.044,-57.2079 L 790.72,-57.6081 L 790.439,-58.04 L 790.205,-58.4989 L 790.021,-58.9796
 L 789.888,-59.4771 L 789.807,-59.9857 L 789.78,-60.5 L 789.807,-61.0143 L 789.888,-61.5229 L 790.021,-62.0204
 L 790.205,-62.5011 L 790.439,-62.96 L 790.72,-63.3919 L 791.044,-63.7921 L 791.408,-64.1563 L 791.808,-64.4804
 L 792.15,-64.7024 L 792.15,-74 L 792.206,-74.5302 L 792.37,-75.0372 L 792.637,-75.4988 L 792.994,-75.895
 L 793.425,-76.2084 L 793.912,-76.4252 L 794.433,-76.536 L 794.967,-76.536 L 795.488,-76.4252 L 795.975,-76.2084
 L 796.406,-75.895 L 796.763,-75.4988 L 797.03,-75.0372 L 797.194,-74.5302 L 797.25,-74 L 797.25,-64.7024
 L 797.592,-64.4804 L 797.992,-64.1563 L 798.356,-63.7921 L 798.68,-63.3919 L 798.961,-62.96 L 799.195,-62.5011
 L 799.379,-62.0204 L 799.512,-61.5229 L 799.593,-61.0143 L 799.62,-60.5 L 799.593,-59.9857 L 799.512,-59.4771
 L 799.379,-58.9796 L 799.195,-58.4989 L 798.961,-58.04 L 798.68,-57.6081 L 798.356,-57.2079 L 797.992,-56.8437
 L 797.592,-56.5196 L 797.16,-56.2392 L 796.701,-56.0054 L 796.22,-55.8208 L 795.723,-55.6875 L 795.214,-55.607
 L 794.7,-55.58 z
M 990.986,-55.607 L 990.477,-55.6875 L 989.98,-55.8208 L 989.499,-56.0054 L 989.04,-56.2392 L 988.608,-56.5196
 L 988.208,-56.8437 L 987.844,-57.2079 L 987.52,-57.6081 L 987.239,-58.04 L 987.005,-58.4989 L 986.821,-58.9796
 L 986.688,-59.4771 L 986.607,-59.9857 L 986.58,-60.5 L 986.607,-61.0143 L 986.688,-61.5229 L 986.821,-62.0204
 L 987.005,-62.5011 L 987.239,-62.96 L 987.52,-63.3919 L 987.844,-63.7921 L 988.208,-64.1563 L 988.608,-64.4804
 L 988.95,-64.7024 L 988.95,-74 L 989.006,-74.5302 L 989.17,-75.0372 L 989.437,-75.4988 L 989.794,-75.895
 L 990.225,-76.2084 L 990.712,-76.4252 L 991.233,-76.536 L 991.767,-76.536 L 992.288,-76.4252 L 992.775,-76.2084
 L 993.206,-75.895 L 993.563,-75.4988 L 993.83,-75.0372 L 993.994,-74.5302 L 994.05,-74 L 994.05,-64.7024
 L 994.392,-64.4804 L 994.792,-64.1563 L 995.156,-63.7921 L 995.48,-63.3919 L 995.761,-62.96 L 995.995,-62.5011
 L 996.179,-62.0204 L 996.312,-61.5229 L 996.393,-61.0143 L 996.42,-60.5 L 996.393,-59.9857 L 996.312,-59.4771
 L 996.179,-58.9796 L 995.995,-58.4989 L 995.761,-58.04 L 995.48,-57.6081 L 995.156,-57.2079 L 994.792,-56.8437
 L 994.392,-56.5196 L 993.96,-56.2392 L 993.501,-56.0054 L 993.02,-55.8208 L 992.523,-55.6875 L 992.014,-55.607
 L 991.5,-55.58 z
M 499.008,-47.6665 L 498.194,-47.8555 L 479.776,-54.2193 L 478.731,-54.7639 L 478.11,-55.3235 L 477.618,-56
 L 477.278,-56.7639 L 477.104,-57.5819 L 477.104,-58.4181 L 477.278,-59.2361 L 477.618,-60 L 478.11,-60.6765
 L 478.731,-61.2361 L 479.455,-61.6542 L 480.251,-61.9126 L 481.082,-62 L 517.918,-62 L 519.083,-61.8265
 L 519.853,-61.5006 L 520.539,-61.0217 L 521.11,-60.4107 L 521.541,-59.6944 L 521.814,-58.904 L 521.917,-58.0741
 L 521.845,-57.241 L 521.601,-56.441 L 521.197,-55.7092 L 520.649,-55.0775 L 519.982,-54.5735 L 519.224,-54.2193
 L 500.806,-47.8555 L 499.844,-47.651 z
M 387.608,-20.274 L 386.794,-20.463 L 289.099,-54.2193 L 288.054,-54.7639 L 287.433,-55.3235 L 286.941,-56
 L 286.601,-56.7639 L 286.427,-57.5819 L 286.427,-58.4181 L 286.601,-59.2361 L 286.941,-60 L 287.433,-60.6765
 L 288.054,-61.2361 L 288.778,-61.6542 L 289.574,-61.9126 L 290.405,-62 L 388.1,-62 L 389.336,-61.8042
 L 390.1,-61.4641 L 390.777,-60.9726 L 391.336,-60.3511 L 391.754,-59.627 L 392.013,-58.8316 L 392.1,-58
 L 392.1,-24.2437 L 391.996,-23.3397 L 391.723,-22.5493 L 391.292,-21.833 L 390.721,-21.222 L 390.035,-20.7431
 L 389.265,-20.4172 L 388.444,-20.2585 z
M 806.535,-20.4172 L 805.765,-20.7431 L 805.079,-21.222 L 804.508,-21.833 L 804.077,-22.5493 L 803.803,-23.3397
 L 803.7,-24.2437 L 803.7,-58 L 803.787,-58.8316 L 804.046,-59.627 L 804.464,-60.3511 L 805.023,-60.9726
 L 805.7,-61.4641 L 806.464,-61.8042 L 807.7,-62 L 905.395,-62 L 906.226,-61.9126 L 907.022,-61.6542
 L 907.746,-61.2361 L 908.367,-60.6765 L 908.859,-60 L 909.199,-59.2361 L 909.373,-58.4181 L 909.373,-57.5819
 L 909.199,-56.7639 L 908.859,-56 L 908.367,-55.3235 L 907.746,-54.7639 L 906.701,-54.2193 L 809.006,-20.463
 L 808.192,-20.274 L 807.356,-20.2585 z
M 190.808,-20.274 L 189.994,-20.463 L 92.2988,-54.2193 L 91.254,-54.7639 L 90.6326,-55.3235 L 90.1411,-56
 L 89.8009,-56.7639 L 89.6271,-57.5819 L 89.6271,-58.4181 L 89.8009,-59.2361 L 90.1411,-60 L 90.6326,-60.6765
 L 91.254,-61.2361 L 91.9782,-61.6542 L 92.7735,-61.9126 L 93.6052,-62 L 191.3,-62 L 192.536,-61.8042
 L 193.3,-61.4641 L 193.977,-60.9726 L 194.536,-60.3511 L 194.954,-59.627 L 195.213,-58.8316 L 195.3,-58
 L 195.3,-24.2437 L 195.197,-23.3397 L 194.923,-22.5493 L 194.492,-21.833 L 193.921,-21.222 L 193.235,-20.7431
 L 192.465,-20.4172 L 191.644,-20.2585 z
M 609.735,-20.4172 L 608.965,-20.7431 L 608.279,-21.222 L 607.708,-21.833 L 607.277,-22.5493 L 607.003,-23.3397
 L 606.9,-24.2437 L 606.9,-58 L 606.987,-58.8316 L 607.246,-59.627 L 607.664,-60.3511 L 608.223,-60.9726
 L 608.9,-61.4641 L 609.664,-61.8042 L 610.9,-62 L 708.595,-62 L 709.426,-61.9126 L 710.222,-61.6542
 L 710.946,-61.2361 L 711.567,-60.6765 L 712.059,-60 L 712.399,-59.2361 L 712.573,-58.4181 L 712.573,-57.5819
 L 712.399,-56.7639 L 712.059,-56 L 711.567,-55.3235 L 710.946,-54.7639 L 709.901,-54.2193 L 612.206,-20.463
 L 611.392,-20.274 L 610.556,-20.2585 z
M 413.682,-18.1499 L 412.864,-18.3238 L 412.1,-18.6639 L 411.423,-19.1554 L 410.864,-19.7769 L 410.446,-20.5011
 L 410.187,-21.2964 L 410.1,-22.128 L 410.1,-57.872 L 410.203,-58.776 L 410.477,-59.5664 L 410.908,-60.2827
 L 411.479,-60.8936 L 412.165,-61.3726 L 412.935,-61.6985 L 413.756,-61.8571 L 414.592,-61.8417 L 415.406,-61.6527
 L 467.13,-43.7807 L 467.759,-43.5006 L 468.445,-43.0217 L 469.016,-42.4107 L 469.447,-41.6944 L 469.72,-40.904
 L 469.823,-40.0741 L 469.751,-39.241 L 469.507,-38.441 L 469.103,-37.7092 L 468.555,-37.0775 L 467.887,-36.5735
 L 467.13,-36.2193 L 415.406,-18.3473 L 414.518,-18.1499 z
M 584.408,-18.1583 L 583.594,-18.3473 L 531.87,-36.2193 L 531.241,-36.4994 L 530.555,-36.9783 L 529.984,-37.5893
 L 529.553,-38.3056 L 529.28,-39.096 L 529.177,-39.9259 L 529.249,-40.759 L 529.493,-41.559 L 529.897,-42.2908
 L 530.445,-42.9225 L 531.112,-43.4265 L 531.87,-43.7807 L 583.594,-61.6527 L 584.482,-61.8501 L 585.318,-61.8501
 L 586.136,-61.6762 L 586.9,-61.3361 L 587.577,-60.8446 L 588.136,-60.2231 L 588.554,-59.499 L 588.813,-58.7037
 L 588.9,-57.872 L 588.9,-22.128 L 588.796,-21.224 L 588.523,-20.4336 L 588.092,-19.7173 L 587.521,-19.1063
 L 586.835,-18.6274 L 586.065,-18.3015 L 585.244,-18.1428 z
M 217.3,-18 L 216.064,-18.1958 L 215.3,-18.5359 L 214.623,-19.0274 L 214.064,-19.6489 L 213.646,-20.373
 L 213.387,-21.1684 L 213.3,-22 L 213.3,-55.7563 L 213.403,-56.6603 L 213.677,-57.4507 L 214.108,-58.167
 L 214.679,-58.778 L 215.365,-59.2569 L 216.135,-59.5828 L 216.956,-59.7415 L 217.792,-59.726 L 218.606,-59.537
 L 316.301,-25.7807 L 317.346,-25.2361 L 317.967,-24.6765 L 318.459,-24 L 318.799,-23.2361 L 318.973,-22.4181
 L 318.973,-21.5819 L 318.799,-20.7639 L 318.459,-20 L 317.967,-19.3235 L 317.346,-18.7639 L 316.622,-18.3458
 L 315.826,-18.0874 L 314.995,-18 z
M 684.005,-18 L 683.174,-18.0874 L 682.378,-18.3458 L 681.654,-18.7639 L 681.033,-19.3235 L 680.541,-20
 L 680.201,-20.7639 L 680.027,-21.5819 L 680.027,-22.4181 L 680.201,-23.2361 L 680.541,-24 L 681.033,-24.6765
 L 681.654,-25.2361 L 682.699,-25.7807 L 780.394,-59.537 L 781.208,-59.726 L 782.044,-59.7415 L 782.865,-59.5828
 L 783.635,-59.2569 L 784.321,-58.778 L 784.892,-58.167 L 785.323,-57.4507 L 785.597,-56.6603 L 785.7,-55.7563
 L 785.7,-22 L 785.613,-21.1684 L 785.354,-20.373 L 784.936,-19.6489 L 784.377,-19.0274 L 783.7,-18.5359
 L 782.936,-18.1958 L 781.7,-18 z
M 22,-18 L 20.7639,-18.1958 L 20,-18.5359 L 19.3235,-19.0274 L 18.7639,-19.6489 L 18.3458,-20.373
 L 18.0874,-21.1684 L 18,-22 L 18,-55.238 L 18.1035,-56.142 L 18.3766,-56.9324 L 18.808,-57.6487
 L 19.379,-58.2597 L 20.0645,-58.7386 L 20.8346,-59.0645 L 21.6557,-59.2232 L 22.4917,-59.2077 L 23.3063,-59.0187
 L 119.501,-25.7807 L 120.546,-25.2361 L 121.167,-24.6765 L 121.659,-24 L 121.999,-23.2361 L 122.173,-22.4181
 L 122.173,-21.5819 L 121.999,-20.7639 L 121.659,-20 L 121.167,-19.3235 L 120.546,-18.7639 L 119.822,-18.3458
 L 119.026,-18.0874 L 118.195,-18 z
M 880.805,-18 L 879.974,-18.0874 L 879.178,-18.3458 L 878.454,-18.7639 L 877.833,-19.3235 L 877.341,-20
 L 877.001,-20.7639 L 876.827,-21.5819 L 876.827,-22.4181 L 877.001,-23.2361 L 877.341,-24 L 877.833,-24.6765
 L 878.454,-25.2361 L 879.499,-25.7807 L 975.694,-59.0187 L 976.508,-59.2077 L 977.344,-59.2232 L 978.165,-59.0645
 L 978.935,-58.7386 L 979.621,-58.2597 L 980.192,-57.6487 L 980.623,-56.9324 L 980.897,-56.142 L 981,-55.238
 L 981,-22 L 980.913,-21.1684 L 980.654,-20.373 L 980.236,-19.6489 L 979.677,-19.0274 L 979,-18.5359
 L 978.236,-18.1958 L 977,-18 z
M 481.082,-18 L 479.917,-18.1735 L 479.147,-18.4994 L 478.461,-18.9783 L 477.89,-19.5893 L 477.459,-20.3056
 L 477.186,-21.096 L 477.083,-21.9259 L 477.155,-22.759 L 477.398,-23.559 L 477.803,-24.2908 L 478.351,-24.9225
 L 479.018,-25.4265 L 479.776,-25.7807 L 498.194,-32.1445 L 499.156,-32.349 L 499.992,-32.3335 L 500.806,-32.1445
 L 519.224,-25.7807 L 520.269,-25.2361 L 520.89,-24.6765 L 521.382,-24 L 521.722,-23.2361 L 521.896,-22.4181
 L 521.896,-21.5819 L 521.722,-20.7639 L 521.382,-20 L 520.89,-19.3235 L 520.269,-18.7639 L 519.545,-18.3458
 L 518.749,-18.0874 L 517.918,-18 z
" stroke="black" fill="lightgray" stroke-width="0.5"/>
</svg>
