<?xml version="1.0" standalone="no"?>
<!DOCTYPE svg PUBLIC "-//W3C//DTD SVG 1.1//EN" "http://www.w3.org/Graphics/SVG/1.1/DTD/svg11.dtd">
<svg width="800mm" height="80mm" viewBox="0 -80 800 80" xmlns="http://www.w3.org/2000/svg" version="1.1">
<title>OpenSCAD Model</title>
<path d="
M 800,-80 L 0,-80 L 0,-0 L 4.95,-0 L 4.95,-6 L 5.00572,-6.53017
 L 5.17046,-7.03717 L 5.437,-7.49884 L 5.79372,-7.895 L 6.22499,-8.20836 L 6.71201,-8.42519 L 7.23344,-8.53603
 L 7.76654,-8.53603 L 8.28798,-8.42519 L 8.77499,-8.20836 L 9.20627,-7.895 L 9.56299,-7.49884 L 9.82953,-7.03717
 L 9.99426,-6.53017 L 10.05,-6 L 10.05,-0 L 201.2,-0 L 201.2,-6 L 201.256,-6.53017
 L 201.42,-7.03717 L 201.687,-7.49884 L 202.044,-7.895 L 202.475,-8.20836 L 202.962,-8.42519 L 203.483,-8.53603
 L 204.017,-8.53603 L 204.538,-8.42519 L 205.025,-8.20836 L 205.456,-7.895 L 205.813,-7.49884 L 206.08,-7.03717
 L 206.244,-6.53017 L 206.3,-6 L 206.3,-0 L 397.45,-0 L 397.45,-6 L 397.506,-6.53017
 L 397.67,-7.03717 L 397.937,-7.49884 L 398.294,-7.895 L 398.725,-8.20836 L 399.212,-8.42519 L 399.733,-8.53603
 L 400.267,-8.53603 L 400.788,-8.42519 L 401.275,-8.20836 L 401.706,-7.895 L 402.063,-7.49884 L 402.33,-7.03717
 L 402.494,-6.53017 L 402.55,-6 L 402.55,-0 L 593.7,-0 L 593.7,-6 L 593.756,-6.53017
 L 593.92,-7.03717 L 594.187,-7.49884 L 594.544,-7.895 L 594.975,-8.20836 L 595.462,-8.42519 L 595.983,-8.53603
 L 596.517,-8.53603 L 597.038,-8.42519 L 597.525,-8.20836 L 597.956,-7.895 L 598.313,-7.49884 L 598.58,-7.03717
 L 598.744,-6.53017 L 598.8,-6 L 598.8,-0 L 789.95,-0 L 789.95,-6 L 790.006,-6.53017
 L 790.17,-7.03717 L 790.437,-7.49884 L 790.794,-7.895 L 791.225,-8.20836 L 791.712,-8.42519 L 792.233,-8.53603
 L 792.767,-8.53603 L 793.288,-8.42519 L 793.775,-8.20836 L 794.206,-7.895 L 794.563,-7.49884 L 794.83,-7.03717
 L 794.994,-6.53017 L 795.05,-6 L 795.05,-0 L 800,-0 z
M 6.98573,-55.607 L 6.47708,-55.6875 L 5.97964,-55.8208 L 5.49887,-56.0054 L 5.04001,-56.2392 L 4.60811,-56.5196
 L 4.20789,-56.8437 L 3.84373,-57.2079 L 3.51964,-57.6081 L 3.23917,-58.04 L 3.00537,-58.4989 L 2.82082,-58.9796
 L 2.68752,-59.4771 L 2.60696,-59.9857 L 2.58,-60.5 L 2.60696,-61.0143 L 2.68752,-61.5229 L 2.82082,-62.0204
 L 3.00537,-62.5011 L 3.23917,-62.96 L 3.51964,-63.3919 L 3.84373,-63.7921 L 4.20789,-64.1563 L 4.60811,-64.4804
 L 4.95001,-64.7024 L 4.95001,-74 L 5.00574,-74.5302 L 5.17047,-75.0372 L 5.43701,-75.4988 L 5.79373,-75.895
 L 6.22501,-76.2084 L 6.71202,-76.4252 L 7.23346,-76.536 L 7.76654,-76.536 L 8.28798,-76.4252 L 8.77499,-76.2084
 L 9.20627,-75.895 L 9.56299,-75.4988 L 9.82953,-75.0372 L 9.99426,-74.5302 L 10.05,-74 L 10.05,-64.7024
 L 10.3919,-64.4804 L 10.7921,-64.1563 L 11.1563,-63.7921 L 11.4804,-63.3919 L 11.7608,-62.96 L 11.9946,-62.5011
 L 12.1792,-62.0204 L 12.3125,-61.5229 L 12.393,-61.0143 L 12.42,-60.5 L 12.393,-59.9857 L 12.3125,-59.4771
 L 12.1792,-58.9796 L 11.9946,-58.4989 L 11.7608,-58.04 L 11.4804,-57.6081 L 11.1563,-57.2079 L 10.7921,-56.8437
 L 10.3919,-56.5196 L 9.95999,-56.2392 L 9.50113,-56.0054 L 9.02036,-55.8208 L 8.52292,-55.6875 L 8.01427,-55.607
 L 7.5,-55.58 z
M 203.236,-55.607 L 202.727,-55.6875 L 202.23,-55.8208 L 201.749,-56.0054 L 201.29,-56.2392 L 200.858,-56.5196
 L 200.458,-56.8437 L 200.094,-57.2079 L 199.77,-57.6081 L 199.489,-58.04 L 199.255,-58.4989 L 199.071,-58.9796
 L 198.938,-59.4771 L 198.857,-59.9857 L 198.83,-60.5 L 198.857,-61.0143 L 198.938,-61.5229 L 199.071,-62.0204
 L 199.255,-62.5011 L 199.489,-62.96 L 199.77,-63.3919 L 200.094,-63.7921 L 200.458,-64.1563 L 200.858,-64.4804
 L 201.2,-64.7024 L 201.2,-74 L 201.256,-74.5302 L 201.42,-75.0372 L 201.687,-75.4988 L 202.044,-75.895
 L 202.475,-76.2084 L 202.962,-76.4252 L 203.483,-76.536 L 204.017,-76.536 L 204.538,-76.4252 L 205.025,-76.2084
 L 205.456,-75.895 L 205.813,-75.4988 L 206.08,-75.0372 L 206.244,-74.5302 L 206.3,-74 L 206.3,-64.7024
 L 206.642,-64.4804 L 207.042,-64.1563 L 207.406,-63.7921 L 207.73,-63.3919 L 208.011,-62.96 L 208.245,-62.5011
 L 208.429,-62.0204 L 208.562,-61.5229 L 208.643,-61.0143 L 208.67,-60.5 L 208.643,-59.9857 L 208.562,-59.4771
 L 208.429,-58.9796 L 208.245,-58.4989 L 208.011,-58.04 L 207.73,-57.6081 L 207.406,-57.2079 L 207.042,-56.8437
 L 206.642,-56.5196 L 206.21,-56.2392 L 205.751,-56.0054 L 205.27,-55.8208 L 204.773,-55.6875 L 204.264,-55.607
 L 203.75,-55.58 z
M 399.486,-55.607 L 398.977,-55.6875 L 398.48,-55.8208 L 397.999,-56.0054 L 397.54,-56.2392 L 397.108,-56.5196
 L 396.708,-56.8437 L 396.344,-57.2079 L 396.02,-57.6081 L 395.739,-58.04 L 395.505,-58.4989 L 395.321,-58.9796
 L 395.188,-59.4771 L 395.107,-59.9857 L 395.08,-60.5 L 395.107,-61.0143 L 395.188,-61.5229 L 395.321,-62.0204
 L 395.505,-62.5011 L 395.739,-62.96 L 396.02,-63.3919 L 396.344,-63.7921 L 396.708,-64.1563 L 397.108,-64.4804
 L 397.45,-64.7024 L 397.45,-74 L 397.506,-74.5302 L 397.67,-75.0372 L 397.937,-75.4988 L 398.294,-75.895
 L 398.725,-76.2084 L 399.212,-76.4252 L 399.733,-76.536 L 400.267,-76.536 L 400.788,-76.4252 L 401.275,-76.2084
 L 401.706,-75.895 L 402.063,-75.4988 L 402.33,-75.0372 L 402.494,-74.5302 L 402.55,-74 L 402.55,-64.7024
 L 402.892,-64.4804 L 403.292,-64.1563 L 403.656,-63.7921 L 403.98,-63.3919 L 404.261,-62.96 L 404.495,-62.5011
 L 404.679,-62.0204 L 404.812,-61.5229 L 404.893,-61.0143 L 404.92,-60.5 L 404.893,-59.9857 L 404.812,-59.4771
 L 404.679,-58.9796 L 404.495,-58.4989 L 404.261,-58.04 L 403.98,-57.6081 L 403.656,-57.2079 L 403.292,-56.8437
 L 402.892,-56.5196 L 402.46,-56.2392 L 402.001,-56.0054 L 401.52,-55.8208 L 401.023,-55.6875 L 400.514,-55.607
 L 400,-55.58 z
M 595.736,-55.607 L 595.227,-55.6875 L 594.73,-55.8208 L 594.249,-56.0054 L 593.79,-56.2392 L 593.358,-56.5196
 L 592.958,-56.8437 L 592.594,-57.2079 L 592.27,-57.6081 L 591.989,-58.04 L 591.755,-58.4989 L 591.571,-58.9796
 L 591.438,-59.4771 L 591.357,-59.9857 L 591.33,-60.5 L 591.357,-61.0143 L 591.438,-61.5229 L 591.571,-62.0204
 L 591.755,-62.5011 L 591.989,-62.96 L 592.27,-63.3919 L 592.594,-63.7921 L 592.958,-64.1563 L 593.358,-64.4804
 L 593.7,-64.7024 L 593.7,-74 L 593.756,-74.5302 L 593.92,-75.0372 L 594.187,-75.4988 L 594.544,-75.895
 L 594.975,-76.2084 L 595.462,-76.4252 L 595.983,-76.536 L 596.517,-76.536 L 597.038,-76.4252 L 597.525,-76.2084
 L 597.956,-75.895 L 598.313,-75.4988 L 598.58,-75.0372 L 598.744,-74.5302 L 598.8,-74 L 598.8,-64.7024
 L 599.142,-64.4804 L 599.542,-64.1563 L 599.906,-63.7921 L 600.23,-63.3919 L 600.511,-62.96 L 600.745,-62.5011
 L 600.929,-62.0204 L 601.062,-61.5229 L 601.143,-61.0143 L 601.17,-60.5 L 601.143,-59.9857 L 601.062,-59.4771
 L 600.929,-58.9796 L 600.745,-58.4989 L 600.511,-58.04 L 600.23,-57.6081 L 599.906,-57.2079 L 599.542,-56.8437
 L 599.142,-56.5196 L 598.71,-56.2392 L 598.251,-56.0054 L 597.77,-55.8208 L 597.273,-55.6875 L 596.764,-55.607
 L 596.25,-55.58 z
M 791.986,-55.607 L 791.477,-55.6875 L 790.98,-55.8208 L 790.499,-56.0054 L 790.04,-56.2392 L 789.608,-56.5196
 L 789.208,-56.8437 L 788.844,-57.2079 L 788.52,-57.6081 L 788.239,-58.04 L 788.005,-58.4989 L 787.821,-58.9796
 L 787.688,-59.4771 L 787.607,-59.9857 L 787.58,-60.5 L 787.607,-61.0143 L 787.688,-61.5229 L 787.821,-62.0204
 L 788.005,-62.5011 L 788.239,-62.96 L 788.52,-63.3919 L 788.844,-63.7921 L 789.208,-64.1563 L 789.608,-64.4804
 L 789.95,-64.7024 L 789.95,-74 L 790.006,-74.5302 L 790.17,-75.0372 L 790.437,-75.4988 L 790.794,-75.895
 L 791.225,-76.2084 L 791.712,-76.4252 L 792.233,-76.536 L 792.767,-76.536 L 793.288,-76.4252 L 793.775,-76.2084
 L 794.206,-75.895 L 794.563,-75.4988 L 794.83,-75.0372 L 794.994,-74.5302 L 795.05,-74 L 795.05,-64.7024
 L 795.392,-64.4804 L 795.792,-64.1563 L 796.156,-63.7921 L 796.48,-63.3919 L 796.761,-62.96 L 796.995,-62.5011
 L 797.179,-62.0204 L 797.312,-61.5229 L 797.393,-61.0143 L 797.42,-60.5 L 797.393,-59.9857 L 797.312,-59.4771
 L 797.179,-58.9796 L 796.995,-58.4989 L 796.761,-58.04 L 796.48,-57.6081 L 796.156,-57.2079 L 795.792,-56.8437
 L 795.392,-56.5196 L 794.96,-56.2392 L 794.501,-56.0054 L 794.02,-55.8208 L 793.523,-55.6875 L 793.014,-55.607
 L 792.5,-55.58 z
M 411.838,-20.4326 L 411.068,-20.7579 L 410.382,-21.2362 L 409.81,-21.8467 L 409.378,-22.5626 L 409.104,-23.3528
 L 409,-24.2601 L 409,-58 L 409.087,-58.8316 L 409.346,-59.627 L 409.764,-60.3511 L 410.323,-60.9726
 L 411,-61.4641 L 411.764,-61.8042 L 413,-62 L 510.374,-62 L 511.206,-61.9126 L 512.001,-61.6542
 L 512.725,-61.2361 L 513.347,-60.6765 L 513.838,-60 L 514.178,-59.2361 L 514.352,-58.4181 L 514.352,-57.5819
 L 514.178,-56.7639 L 513.838,-56 L 513.347,-55.3235 L 512.725,-54.7639 L 511.684,-54.2205 L 414.31,-20.4806
 L 413.495,-20.2909 L 412.659,-20.2747 z
M 386.505,-20.2909 L 385.69,-20.4806 L 288.316,-54.2205 L 287.275,-54.7639 L 286.653,-55.3235 L 286.162,-56
 L 285.822,-56.7639 L 285.648,-57.5819 L 285.648,-58.4181 L 285.822,-59.2361 L 286.162,-60 L 286.653,-60.6765
 L 287.275,-61.2361 L 287.999,-61.6542 L 288.794,-61.9126 L 289.626,-62 L 387,-62 L 388.236,-61.8042
 L 389,-61.4641 L 389.677,-60.9726 L 390.236,-60.3511 L 390.654,-59.627 L 390.913,-58.8316 L 391,-58
 L 391,-24.2601 L 390.896,-23.3528 L 390.622,-22.5626 L 390.19,-21.8467 L 389.618,-21.2362 L 388.932,-20.7579
 L 388.162,-20.4326 L 387.341,-20.2747 z
M 608.088,-20.4326 L 607.318,-20.7579 L 606.632,-21.2362 L 606.06,-21.8467 L 605.628,-22.5626 L 605.354,-23.3528
 L 605.25,-24.2601 L 605.25,-58 L 605.337,-58.8316 L 605.596,-59.627 L 606.014,-60.3511 L 606.573,-60.9726
 L 607.25,-61.4641 L 608.014,-61.8042 L 609.25,-62 L 706.624,-62 L 707.456,-61.9126 L 708.251,-61.6542
 L 708.975,-61.2361 L 709.597,-60.6765 L 710.088,-60 L 710.428,-59.2361 L 710.602,-58.4181 L 710.602,-57.5819
 L 710.428,-56.7639 L 710.088,-56 L 709.597,-55.3235 L 708.975,-54.7639 L 707.934,-54.2205 L 610.56,-20.4806
 L 609.745,-20.2909 L 608.909,-20.2747 z
M 190.255,-20.2909 L 189.44,-20.4806 L 92.0661,-54.2205 L 91.0246,-54.7639 L 90.4032,-55.3235 L 89.9117,-56
 L 89.5715,-56.7639 L 89.3977,-57.5819 L 89.3977,-58.4181 L 89.5715,-59.2361 L 89.9117,-60 L 90.4032,-60.6765
 L 91.0246,-61.2361 L 91.7488,-61.6542 L 92.5441,-61.9126 L 93.3757,-62 L 190.75,-62 L 191.986,-61.8042
 L 192.75,-61.4641 L 193.427,-60.9726 L 193.986,-60.3511 L 194.404,-59.627 L 194.663,-58.8316 L 194.75,-58
 L 194.75,-24.2601 L 194.646,-23.3528 L 194.372,-22.5626 L 193.94,-21.8467 L 193.368,-21.2362 L 192.682,-20.7579
 L 191.912,-20.4326 L 191.091,-20.2747 z
M 485.876,-18 L 485.044,-18.0874 L 484.249,-18.3458 L 483.525,-18.7639 L 482.903,-19.3235 L 482.412,-20
 L 482.072,-20.7639 L 481.898,-21.5819 L 481.898,-22.4181 L 482.072,-23.2361 L 482.412,-24 L 482.903,-24.6765
 L 483.525,-25.2361 L 484.566,-25.7795 L 581.94,-59.5194 L 582.755,-59.7091 L 583.591,-59.7253 L 584.412,-59.5673
 L 585.182,-59.2421 L 585.868,-58.7638 L 586.44,-58.1533 L 586.872,-57.4373 L 587.146,-56.6472 L 587.25,-55.7399
 L 587.25,-22 L 587.163,-21.1684 L 586.904,-20.373 L 586.486,-19.6489 L 585.927,-19.0274 L 585.25,-18.5359
 L 584.486,-18.1958 L 583.25,-18 z
M 216.75,-18 L 215.514,-18.1958 L 214.75,-18.5359 L 214.073,-19.0274 L 213.514,-19.6489 L 213.096,-20.373
 L 212.837,-21.1684 L 212.75,-22 L 212.75,-55.7399 L 212.854,-56.6472 L 213.128,-57.4373 L 213.56,-58.1533
 L 214.132,-58.7638 L 214.818,-59.2421 L 215.588,-59.5673 L 216.409,-59.7253 L 217.245,-59.7091 L 218.06,-59.5194
 L 315.434,-25.7795 L 316.475,-25.2361 L 317.097,-24.6765 L 317.588,-24 L 317.928,-23.2361 L 318.102,-22.4181
 L 318.102,-21.5819 L 317.928,-20.7639 L 317.588,-20 L 317.097,-19.3235 L 316.475,-18.7639 L 315.751,-18.3458
 L 314.956,-18.0874 L 314.124,-18 z
M 22,-18 L 20.7639,-18.1958 L 20,-18.5359 L 19.3235,-19.0274 L 18.7639,-19.6489 L 18.3458,-20.373
 L 18.0874,-21.1684 L 18,-22 L 18,-55.2201 L 18.1043,-56.1275 L 18.3781,-56.9176 L 18.8101,-57.6336
 L 19.3816,-58.244 L 20.0676,-58.7223 L 20.8379,-59.0476 L 21.6591,-59.2056 L 22.4952,-59.1893 L 23.3096,-58.9996
 L 119.184,-25.7795 L 120.225,-25.2361 L 120.847,-24.6765 L 121.338,-24 L 121.678,-23.2361 L 121.852,-22.4181
 L 121.852,-21.5819 L 121.678,-20.7639 L 121.338,-20 L 120.847,-19.3235 L 120.225,-18.7639 L 119.501,-18.3458
 L 118.706,-18.0874 L 117.874,-18 z
M 682.126,-18 L 681.294,-18.0874 L 680.499,-18.3458 L 679.775,-18.7639 L 679.153,-19.3235 L 678.662,-20
 L 678.322,-20.7639 L 678.148,-21.5819 L 678.148,-22.4181 L 678.322,-23.2361 L 678.662,-24 L 679.153,-24.6765
 L 679.775,-25.2361 L 680.816,-25.7795 L 776.69,-58.9996 L 777.505,-59.1893 L 778.341,-59.2056 L 779.162,-59.0476
 L 779.932,-58.7223 L 780.618,-58.244 L 781.19,-57.6336 L 781.622,-56.9176 L 781.896,-56.1275 L 782,-55.2201
 L 782,-22 L 781.913,-21.1684 L 781.654,-20.373 L 781.236,-19.6489 L 780.677,-19.0274 L 780,-18.5359
 L 779.236,-18.1958 L 778,-18 z
" stroke="black" fill="lightgray" stroke-width="0.5"/>
</svg>
