<?xml version="1.0" standalone="no"?>
<!DOCTYPE svg PUBLIC "-//W3C//DTD SVG 1.1//EN" "http://www.w3.org/Graphics/SVG/1.1/DTD/svg11.dtd">
<svg width="605mm" height="80mm" viewBox="0 -80 605 80" xmlns="http://www.w3.org/2000/svg" version="1.1">
<title>OpenSCAD Model</title>
<path d="
M 605,-80 L 0,-80 L 0,-0 L 4.95,-0 L 4.95,-6 L 5.00572,-6.53017
 L 5.17046,-7.03717 L 5.437,-7.49884 L 5.79372,-7.895 L 6.22499,-8.20836 L 6.71201,-8.42519 L 7.23344,-8.53603
 L 7.76654,-8.53603 L 8.28798,-8.42519 L 8.77499,-8.20836 L 9.20627,-7.895 L 9.56299,-7.49884 L 9.82953,-7.03717
 L 9.99426,-6.53017 L 10.05,-6 L 10.05,-0 L 122.95,-0 L 122.95,-6 L 123.006,-6.53017
 L 123.17,-7.03717 L 123.437,-7.49884 L 123.794,-7.895 L 124.225,-8.20836 L 124.712,-8.42519 L 125.233,-8.53603
 L 125.767,-8.53603 L 126.288,-8.42519 L 126.775,-8.20836 L 127.206,-7.895 L 127.563,-7.49884 L 127.83,-7.03717
 L 127.994,-6.53017 L 128.05,-6 L 128.05,-0 L 240.95,-0 L 240.95,-6 L 241.006,-6.53017
 L 241.17,-7.03717 L 241.437,-7.49884 L 241.794,-7.895 L 242.225,-8.20836 L 242.712,-8.42519 L 243.233,-8.53603
 L 243.767,-8.53603 L 244.288,-8.42519 L 244.775,-8.20836 L 245.206,-7.895 L 245.563,-7.49884 L 245.83,-7.03717
 L 245.994,-6.53017 L 246.05,-6 L 246.05,-0 L 358.95,-0 L 358.95,-6 L 359.006,-6.53017
 L 359.17,-7.03717 L 359.437,-7.49884 L 359.794,-7.895 L 360.225,-8.20836 L 360.712,-8.42519 L 361.233,-8.53603
 L 361.767,-8.53603 L 362.288,-8.42519 L 362.775,-8.20836 L 363.206,-7.895 L 363.563,-7.49884 L 363.83,-7.03717
 L 363.994,-6.53017 L 364.05,-6 L 364.05,-0 L 476.95,-0 L 476.95,-6 L 477.006,-6.53017
 L 477.17,-7.03717 L 477.437,-7.49884 L 477.794,-7.895 L 478.225,-8.20836 L 478.712,-8.42519 L 479.233,-8.53603
 L 479.767,-8.53603 L 480.288,-8.42519 L 480.775,-8.20836 L 481.206,-7.895 L 481.563,-7.49884 L 481.83,-7.03717
 L 481.994,-6.53017 L 482.05,-6 L 482.05,-0 L 594.95,-0 L 594.95,-6 L 595.006,-6.53017
 L 595.17,-7.03717 L 595.437,-7.49884 L 595.794,-7.895 L 596.225,-8.20836 L 596.712,-8.42519 L 597.233,-8.53603
 L 597.767,-8.53603 L 598.288,-8.42519 L 598.775,-8.20836 L 599.206,-7.895 L 599.563,-7.49884 L 599.83,-7.03717
 L 599.994,-6.53017 L 600.05,-6 L 600.05,-0 L 605,-0 z
M 6.98573,-55.607 L 6.47708,-55.6875 L 5.97964,-55.8208 L 5.49887,-56.0054 L 5.04001,-56.2392 L 4.60811,-56.5196
 L 4.20789,-56.8437 L 3.84373,-57.2079 L 3.51964,-57.6081 L 3.23917,-58.04 L 3.00537,-58.4989 L 2.82082,-58.9796
 L 2.68752,-59.4771 L 2.60696,-59.9857 L 2.58,-60.5 L 2.60696,-61.0143 L 2.68752,-61.5229 L 2.82082,-62.0204
 L 3.00537,-62.5011 L 3.23917,-62.96 L 3.51964,-63.3919 L 3.84373,-63.7921 L 4.20789,-64.1563 L 4.60811,-64.4804
 L 4.95001,-64.7024 L 4.95001,-74 L 5.00574,-74.5302 L 5.17047,-75.0372 L 5.43701,-75.4988 L 5.79373,-75.895
 L 6.22501,-76.2084 L 6.71202,-76.4252 L 7.23346,-76.536 L 7.76654,-76.536 L 8.28798,-76.4252 L 8.77499,-76.2084
 L 9.20627,-75.895 L 9.56299,-75.4988 L 9.82953,-75.0372 L 9.99426,-74.5302 L 10.05,-74 L 10.05,-64.7024
 L 10.3919,-64.4804 L 10.7921,-64.1563 L 11.1563,-63.7921 L 11.4804,-63.3919 L 11.7608,-62.96 L 11.9946,-62.5011
 L 12.1792,-62.0204 L 12.3125,-61.5229 L 12.393,-61.0143 L 12.42,-60.5 L 12.393,-59.9857 L 12.3125,-59.4771
 L 12.1792,-58.9796 L 11.9946,-58.4989 L 11.7608,-58.04 L 11.4804,-57.6081 L 11.1563,-57.2079 L 10.7921,-56.8437
 L 10.3919,-56.5196 L 9.95999,-56.2392 L 9.50113,-56.0054 L 9.02036,-55.8208 L 8.52292,-55.6875 L 8.01427,-55.607
 L 7.5,-55.58 z
M 124.986,-55.607 L 124.477,-55.6875 L 123.98,-55.8208 L 123.499,-56.0054 L 123.04,-56.2392 L 122.608,-56.5196
 L 122.208,-56.8437 L 121.844,-57.2079 L 121.52,-57.6081 L 121.239,-58.04 L 121.005,-58.4989 L 120.821,-58.9796
 L 120.688,-59.4771 L 120.607,-59.9857 L 120.58,-60.5 L 120.607,-61.0143 L 120.688,-61.5229 L 120.821,-62.0204
 L 121.005,-62.5011 L 121.239,-62.96 L 121.52,-63.3919 L 121.844,-63.7921 L 122.208,-64.1563 L 122.608,-64.4804
 L 122.95,-64.7024 L 122.95,-74 L 123.006,-74.5302 L 123.17,-75.0372 L 123.437,-75.4988 L 123.794,-75.895
 L 124.225,-76.2084 L 124.712,-76.4252 L 125.233,-76.536 L 125.767,-76.536 L 126.288,-76.4252 L 126.775,-76.2084
 L 127.206,-75.895 L 127.563,-75.4988 L 127.83,-75.0372 L 127.994,-74.5302 L 128.05,-74 L 128.05,-64.7024
 L 128.392,-64.4804 L 128.792,-64.1563 L 129.156,-63.7921 L 129.48,-63.3919 L 129.761,-62.96 L 129.995,-62.5011
 L 130.179,-62.0204 L 130.312,-61.5229 L 130.393,-61.0143 L 130.42,-60.5 L 130.393,-59.9857 L 130.312,-59.4771
 L 130.179,-58.9796 L 129.995,-58.4989 L 129.761,-58.04 L 129.48,-57.6081 L 129.156,-57.2079 L 128.792,-56.8437
 L 128.392,-56.5196 L 127.96,-56.2392 L 127.501,-56.0054 L 127.02,-55.8208 L 126.523,-55.6875 L 126.014,-55.607
 L 125.5,-55.58 z
M 242.986,-55.607 L 242.477,-55.6875 L 241.98,-55.8208 L 241.499,-56.0054 L 241.04,-56.2392 L 240.608,-56.5196
 L 240.208,-56.8437 L 239.844,-57.2079 L 239.52,-57.6081 L 239.239,-58.04 L 239.005,-58.4989 L 238.821,-58.9796
 L 238.688,-59.4771 L 238.607,-59.9857 L 238.58,-60.5 L 238.607,-61.0143 L 238.688,-61.5229 L 238.821,-62.0204
 L 239.005,-62.5011 L 239.239,-62.96 L 239.52,-63.3919 L 239.844,-63.7921 L 240.208,-64.1563 L 240.608,-64.4804
 L 240.95,-64.7024 L 240.95,-74 L 241.006,-74.5302 L 241.17,-75.0372 L 241.437,-75.4988 L 241.794,-75.895
 L 242.225,-76.2084 L 242.712,-76.4252 L 243.233,-76.536 L 243.767,-76.536 L 244.288,-76.4252 L 244.775,-76.2084
 L 245.206,-75.895 L 245.563,-75.4988 L 245.83,-75.0372 L 245.994,-74.5302 L 246.05,-74 L 246.05,-64.7024
 L 246.392,-64.4804 L 246.792,-64.1563 L 247.156,-63.7921 L 247.48,-63.3919 L 247.761,-62.96 L 247.995,-62.5011
 L 248.179,-62.0204 L 248.312,-61.5229 L 248.393,-61.0143 L 248.42,-60.5 L 248.393,-59.9857 L 248.312,-59.4771
 L 248.179,-58.9796 L 247.995,-58.4989 L 247.761,-58.04 L 247.48,-57.6081 L 247.156,-57.2079 L 246.792,-56.8437
 L 246.392,-56.5196 L 245.96,-56.2392 L 245.501,-56.0054 L 245.02,-55.8208 L 244.523,-55.6875 L 244.014,-55.607
 L 243.5,-55.58 z
M 360.986,-55.607 L 360.477,-55.6875 L 359.98,-55.8208 L 359.499,-56.0054 L 359.04,-56.2392 L 358.608,-56.5196
 L 358.208,-56.8437 L 357.844,-57.2079 L 357.52,-57.6081 L 357.239,-58.04 L 357.005,-58.4989 L 356.821,-58.9796
 L 356.688,-59.4771 L 356.607,-59.9857 L 356.58,-60.5 L 356.607,-61.0143 L 356.688,-61.5229 L 356.821,-62.0204
 L 357.005,-62.5011 L 357.239,-62.96 L 357.52,-63.3919 L 357.844,-63.7921 L 358.208,-64.1563 L 358.608,-64.4804
 L 358.95,-64.7024 L 358.95,-74 L 359.006,-74.5302 L 359.17,-75.0372 L 359.437,-75.4988 L 359.794,-75.895
 L 360.225,-76.2084 L 360.712,-76.4252 L 361.233,-76.536 L 361.767,-76.536 L 362.288,-76.4252 L 362.775,-76.2084
 L 363.206,-75.895 L 363.563,-75.4988 L 363.83,-75.0372 L 363.994,-74.5302 L 364.05,-74 L 364.05,-64.7024
 L 364.392,-64.4804 L 364.792,-64.1563 L 365.156,-63.7921 L 365.48,-63.3919 L 365.761,-62.96 L 365.995,-62.5011
 L 366.179,-62.0204 L 366.312,-61.5229 L 366.393,-61.0143 L 366.42,-60.5 L 366.393,-59.9857 L 366.312,-59.4771
 L 366.179,-58.9796 L 365.995,-58.4989 L 365.761,-58.04 L 365.48,-57.6081 L 365.156,-57.2079 L 364.792,-56.8437
 L 364.392,-56.5196 L 363.96,-56.2392 L 363.501,-56.0054 L 363.02,-55.8208 L 362.523,-55.6875 L 362.014,-55.607
 L 361.5,-55.58 z
M 478.986,-55.607 L 478.477,-55.6875 L 477.98,-55.8208 L 477.499,-56.0054 L 477.04,-56.2392 L 476.608,-56.5196
 L 476.208,-56.8437 L 475.844,-57.2079 L 475.52,-57.6081 L 475.239,-58.04 L 475.005,-58.4989 L 474.821,-58.9796
 L 474.688,-59.4771 L 474.607,-59.9857 L 474.58,-60.5 L 474.607,-61.0143 L 474.688,-61.5229 L 474.821,-62.0204
 L 475.005,-62.5011 L 475.239,-62.96 L 475.52,-63.3919 L 475.844,-63.7921 L 476.208,-64.1563 L 476.608,-64.4804
 L 476.95,-64.7024 L 476.95,-74 L 477.006,-74.5302 L 477.17,-75.0372 L 477.437,-75.4988 L 477.794,-75.895
 L 478.225,-76.2084 L 478.712,-76.4252 L 479.233,-76.536 L 479.767,-76.536 L 480.288,-76.4252 L 480.775,-76.2084
 L 481.206,-75.895 L 481.563,-75.4988 L 481.83,-75.0372 L 481.994,-74.5302 L 482.05,-74 L 482.05,-64.7024
 L 482.392,-64.4804 L 482.792,-64.1563 L 483.156,-63.7921 L 483.48,-63.3919 L 483.761,-62.96 L 483.995,-62.5011
 L 484.179,-62.0204 L 484.312,-61.5229 L 484.393,-61.0143 L 484.42,-60.5 L 484.393,-59.9857 L 484.312,-59.4771
 L 484.179,-58.9796 L 483.995,-58.4989 L 483.761,-58.04 L 483.48,-57.6081 L 483.156,-57.2079 L 482.792,-56.8437
 L 482.392,-56.5196 L 481.96,-56.2392 L 481.501,-56.0054 L 481.02,-55.8208 L 480.523,-55.6875 L 480.014,-55.607
 L 479.5,-55.58 z
M 596.986,-55.607 L 596.477,-55.6875 L 595.98,-55.8208 L 595.499,-56.0054 L 595.04,-56.2392 L 594.608,-56.5196
 L 594.208,-56.8437 L 593.844,-57.2079 L 593.52,-57.6081 L 593.239,-58.04 L 593.005,-58.4989 L 592.821,-58.9796
 L 592.688,-59.4771 L 592.607,-59.9857 L 592.58,-60.5 L 592.607,-61.0143 L 592.688,-61.5229 L 592.821,-62.0204
 L 593.005,-62.5011 L 593.239,-62.96 L 593.52,-63.3919 L 593.844,-63.7921 L 594.208,-64.1563 L 594.608,-64.4804
 L 594.95,-64.7024 L 594.95,-74 L 595.006,-74.5302 L 595.17,-75.0372 L 595.437,-75.4988 L 595.794,-75.895
 L 596.225,-76.2084 L 596.712,-76.4252 L 597.233,-76.536 L 597.767,-76.536 L 598.288,-76.4252 L 598.775,-76.2084
 L 599.206,-75.895 L 599.563,-75.4988 L 599.83,-75.0372 L 599.994,-74.5302 L 600.05,-74 L 600.05,-64.7024
 L 600.392,-64.4804 L 600.792,-64.1563 L 601.156,-63.7921 L 601.48,-63.3919 L 601.761,-62.96 L 601.995,-62.5011
 L 602.179,-62.0204 L 602.312,-61.5229 L 602.393,-61.0143 L 602.42,-60.5 L 602.393,-59.9857 L 602.312,-59.4771
 L 602.179,-58.9796 L 601.995,-58.4989 L 601.761,-58.04 L 601.48,-57.6081 L 601.156,-57.2079 L 600.792,-56.8437
 L 600.392,-56.5196 L 599.96,-56.2392 L 599.501,-56.0054 L 599.02,-55.8208 L 598.523,-55.6875 L 598.014,-55.607
 L 597.5,-55.58 z
M 301.267,-48.8905 L 300.503,-49.2301 L 291.298,-54.5343 L 290.944,-54.7639 L 290.323,-55.3235 L 289.831,-56
 L 289.491,-56.7639 L 289.318,-57.5819 L 289.318,-58.4181 L 289.491,-59.2361 L 289.831,-60 L 290.323,-60.6765
 L 290.944,-61.2361 L 291.669,-61.6542 L 292.464,-61.9126 L 293.296,-62 L 311.704,-62 L 312.126,-61.9778
 L 312.944,-61.8032 L 313.707,-61.4625 L 314.383,-60.9704 L 314.942,-60.3485 L 315.36,-59.624 L 315.618,-58.8285
 L 315.704,-57.9968 L 315.616,-57.1652 L 315.357,-56.3701 L 314.939,-55.6462 L 314.379,-55.0253 L 313.702,-54.5343
 L 304.497,-49.2301 L 303.739,-48.8925 L 302.921,-48.718 L 302.085,-48.7173 z
M 229.267,-24.6904 L 228.503,-25.0299 L 177.304,-54.5343 L 176.95,-54.7639 L 176.329,-55.3235 L 175.837,-56
 L 175.497,-56.7639 L 175.323,-57.5819 L 175.323,-58.4181 L 175.497,-59.2361 L 175.837,-60 L 176.329,-60.6765
 L 176.95,-61.2361 L 177.674,-61.6542 L 178.47,-61.9126 L 179.301,-62 L 230.5,-62 L 231.736,-61.8042
 L 232.5,-61.4641 L 233.177,-60.9726 L 233.736,-60.3511 L 234.154,-59.627 L 234.413,-58.8316 L 234.5,-58
 L 234.5,-28.4956 L 234.413,-27.6671 L 234.156,-26.8716 L 233.738,-26.1471 L 233.179,-25.5252 L 232.503,-25.0331
 L 231.739,-24.6924 L 230.921,-24.5179 L 230.085,-24.5172 z
M 492.079,-24.5179 L 491.261,-24.6924 L 490.497,-25.0331 L 489.821,-25.5252 L 489.262,-26.1471 L 488.844,-26.8716
 L 488.587,-27.6671 L 488.5,-28.4956 L 488.5,-58 L 488.587,-58.8316 L 488.846,-59.627 L 489.264,-60.3511
 L 489.823,-60.9726 L 490.5,-61.4641 L 491.264,-61.8042 L 492.5,-62 L 543.699,-62 L 544.53,-61.9126
 L 545.326,-61.6542 L 546.05,-61.2361 L 546.671,-60.6765 L 547.163,-60 L 547.503,-59.2361 L 547.677,-58.4181
 L 547.677,-57.5819 L 547.503,-56.7639 L 547.163,-56 L 546.671,-55.3235 L 546.05,-54.7639 L 545.696,-54.5343
 L 494.497,-25.0299 L 493.733,-24.6904 L 492.915,-24.5172 z
M 111.267,-24.6904 L 110.503,-25.0299 L 59.304,-54.5343 L 58.9501,-54.7639 L 58.3286,-55.3235 L 57.8371,-56
 L 57.497,-56.7639 L 57.3231,-57.5819 L 57.3231,-58.4181 L 57.497,-59.2361 L 57.8371,-60 L 58.3286,-60.6765
 L 58.9501,-61.2361 L 59.6742,-61.6542 L 60.4695,-61.9126 L 61.3012,-62 L 112.5,-62 L 113.736,-61.8042
 L 114.5,-61.4641 L 115.177,-60.9726 L 115.736,-60.3511 L 116.154,-59.627 L 116.413,-58.8316 L 116.5,-58
 L 116.5,-28.4956 L 116.413,-27.6671 L 116.156,-26.8716 L 115.738,-26.1471 L 115.179,-25.5252 L 114.503,-25.0331
 L 113.739,-24.6924 L 112.921,-24.5179 L 112.085,-24.5172 z
M 374.079,-24.5179 L 373.261,-24.6924 L 372.497,-25.0331 L 371.821,-25.5252 L 371.262,-26.1471 L 370.844,-26.8716
 L 370.587,-27.6671 L 370.5,-28.4956 L 370.5,-58 L 370.587,-58.8316 L 370.846,-59.627 L 371.264,-60.3511
 L 371.823,-60.9726 L 372.5,-61.4641 L 373.264,-61.8042 L 374.5,-62 L 425.699,-62 L 426.53,-61.9126
 L 427.326,-61.6542 L 428.05,-61.2361 L 428.671,-60.6765 L 429.163,-60 L 429.503,-59.2361 L 429.677,-58.4181
 L 429.677,-57.5819 L 429.503,-56.7639 L 429.163,-56 L 428.671,-55.3235 L 428.05,-54.7639 L 427.696,-54.5343
 L 376.497,-25.0299 L 375.733,-24.6904 L 374.915,-24.5172 z
M 256.082,-22.2092 L 255.264,-22.3831 L 254.5,-22.7232 L 253.823,-23.2147 L 253.264,-23.8362 L 252.846,-24.5603
 L 252.587,-25.3557 L 252.5,-26.1873 L 252.5,-53.8127 L 252.587,-54.6412 L 252.844,-55.4367 L 253.262,-56.1612
 L 253.821,-56.7831 L 254.497,-57.2752 L 255.261,-57.6159 L 256.079,-57.7905 L 256.915,-57.7911 L 257.733,-57.6179
 L 258.497,-57.2784 L 282.466,-43.4657 L 283.148,-42.9704 L 283.707,-42.3485 L 284.125,-41.624 L 284.382,-40.8285
 L 284.469,-39.9968 L 284.381,-39.1652 L 284.122,-38.3701 L 283.703,-37.6462 L 283.143,-37.0253 L 282.466,-36.5343
 L 258.497,-22.7216 L 257.736,-22.3831 L 256.918,-22.2092 z
M 347.267,-22.3821 L 346.503,-22.7216 L 322.534,-36.5343 L 321.852,-37.0296 L 321.293,-37.6515 L 320.875,-38.376
 L 320.618,-39.1715 L 320.531,-40.0032 L 320.619,-40.8348 L 320.878,-41.6299 L 321.297,-42.3538 L 321.857,-42.9747
 L 322.534,-43.4657 L 346.503,-57.2784 L 347.264,-57.6169 L 348.082,-57.7908 L 348.918,-57.7908 L 349.736,-57.6169
 L 350.5,-57.2768 L 351.177,-56.7853 L 351.736,-56.1638 L 352.154,-55.4397 L 352.413,-54.6444 L 352.5,-53.8127
 L 352.5,-26.1873 L 352.413,-25.3588 L 352.156,-24.5633 L 351.738,-23.8388 L 351.179,-23.2169 L 350.503,-22.7248
 L 349.739,-22.3841 L 348.921,-22.2095 L 348.085,-22.2089 z
M 138.5,-18 L 137.264,-18.1958 L 136.5,-18.5359 L 135.823,-19.0274 L 135.264,-19.6489 L 134.846,-20.373
 L 134.587,-21.1684 L 134.5,-22 L 134.5,-51.5044 L 134.587,-52.3329 L 134.844,-53.1284 L 135.262,-53.8529
 L 135.821,-54.4748 L 136.497,-54.9669 L 137.261,-55.3076 L 138.079,-55.4821 L 138.915,-55.4828 L 139.733,-55.3096
 L 140.497,-54.9701 L 191.696,-25.4657 L 192.05,-25.2361 L 192.671,-24.6765 L 193.163,-24 L 193.503,-23.2361
 L 193.677,-22.4181 L 193.677,-21.5819 L 193.503,-20.7639 L 193.163,-20 L 192.671,-19.3235 L 192.05,-18.7639
 L 191.326,-18.3458 L 190.53,-18.0874 L 189.699,-18 z
M 415.301,-18 L 414.47,-18.0874 L 413.674,-18.3458 L 412.95,-18.7639 L 412.329,-19.3235 L 411.837,-20
 L 411.497,-20.7639 L 411.323,-21.5819 L 411.323,-22.4181 L 411.497,-23.2361 L 411.837,-24 L 412.329,-24.6765
 L 412.95,-25.2361 L 413.304,-25.4657 L 464.503,-54.9701 L 465.267,-55.3096 L 466.085,-55.4828 L 466.921,-55.4821
 L 467.739,-55.3076 L 468.503,-54.9669 L 469.179,-54.4748 L 469.738,-53.8529 L 470.156,-53.1284 L 470.413,-52.3329
 L 470.5,-51.5044 L 470.5,-22 L 470.413,-21.1684 L 470.154,-20.373 L 469.736,-19.6489 L 469.177,-19.0274
 L 468.5,-18.5359 L 467.736,-18.1958 L 466.5,-18 z
M 22,-18 L 20.7639,-18.1958 L 20,-18.5359 L 19.3235,-19.0274 L 18.7639,-19.6489 L 18.3458,-20.373
 L 18.0874,-21.1684 L 18,-22 L 18,-50.64 L 18.0867,-51.4685 L 18.3445,-52.264 L 18.762,-52.9885
 L 19.3211,-53.6104 L 19.9972,-54.1025 L 20.7608,-54.4432 L 21.5787,-54.6177 L 22.4149,-54.6184 L 23.233,-54.4452
 L 23.9972,-54.1057 L 73.696,-25.4657 L 74.0499,-25.2361 L 74.6714,-24.6765 L 75.1629,-24 L 75.503,-23.2361
 L 75.6769,-22.4181 L 75.6769,-21.5819 L 75.503,-20.7639 L 75.1629,-20 L 74.6714,-19.3235 L 74.0499,-18.7639
 L 73.3257,-18.3458 L 72.5304,-18.0874 L 71.6988,-18 z
M 533.301,-18 L 532.47,-18.0874 L 531.674,-18.3458 L 530.95,-18.7639 L 530.329,-19.3235 L 529.837,-20
 L 529.497,-20.7639 L 529.323,-21.5819 L 529.323,-22.4181 L 529.497,-23.2361 L 529.837,-24 L 530.329,-24.6765
 L 530.95,-25.2361 L 531.304,-25.4657 L 581.003,-54.1057 L 581.767,-54.4452 L 582.585,-54.6184 L 583.421,-54.6177
 L 584.239,-54.4432 L 585.003,-54.1025 L 585.679,-53.6104 L 586.238,-52.9885 L 586.656,-52.264 L 586.913,-51.4685
 L 587,-50.64 L 587,-22 L 586.913,-21.1684 L 586.654,-20.373 L 586.236,-19.6489 L 585.677,-19.0274
 L 585,-18.5359 L 584.236,-18.1958 L 583,-18 z
M 293.296,-18 L 292.874,-18.0222 L 292.056,-18.1968 L 291.293,-18.5375 L 290.617,-19.0296 L 290.058,-19.6515
 L 289.64,-20.376 L 289.382,-21.1715 L 289.296,-22.0032 L 289.384,-22.8348 L 289.643,-23.6299 L 290.061,-24.3538
 L 290.621,-24.9747 L 291.298,-25.4657 L 300.503,-30.7699 L 301.261,-31.1075 L 302.079,-31.282 L 302.915,-31.2827
 L 303.733,-31.1095 L 304.497,-30.7699 L 313.702,-25.4657 L 314.056,-25.2361 L 314.677,-24.6765 L 315.168,-24
 L 315.509,-23.2361 L 315.682,-22.4181 L 315.682,-21.5819 L 315.509,-20.7639 L 315.168,-20 L 314.677,-19.3235
 L 314.056,-18.7639 L 313.331,-18.3458 L 312.536,-18.0874 L 311.704,-18 z
" stroke="black" fill="lightgray" stroke-width="0.5"/>
</svg>
