<?xml version="1.0" standalone="no"?>
<!DOCTYPE svg PUBLIC "-//W3C//DTD SVG 1.1//EN" "http://www.w3.org/Graphics/SVG/1.1/DTD/svg11.dtd">
<svg width="514mm" height="80mm" viewBox="0 -80 514 80" xmlns="http://www.w3.org/2000/svg" version="1.1">
<title>OpenSCAD Model</title>
<path d="
M 514,-80 L 0,-80 L 0,-0 L 4.95,-0 L 4.95,-6 L 5.00572,-6.53017
 L 5.17046,-7.03717 L 5.437,-7.49884 L 5.79372,-7.895 L 6.22499,-8.20836 L 6.71201,-8.42519 L 7.23344,-8.53603
 L 7.76654,-8.53603 L 8.28798,-8.42519 L 8.77499,-8.20836 L 9.20627,-7.895 L 9.56299,-7.49884 L 9.82953,-7.03717
 L 9.99426,-6.53017 L 10.05,-6 L 10.05,-0 L 129.7,-0 L 129.7,-6 L 129.756,-6.53017
 L 129.92,-7.03717 L 130.187,-7.49884 L 130.544,-7.895 L 130.975,-8.20836 L 131.462,-8.42519 L 131.983,-8.53603
 L 132.517,-8.53603 L 133.038,-8.42519 L 133.525,-8.20836 L 133.956,-7.895 L 134.313,-7.49884 L 134.58,-7.03717
 L 134.744,-6.53017 L 134.8,-6 L 134.8,-0 L 254.45,-0 L 254.45,-6 L 254.506,-6.53017
 L 254.67,-7.03717 L 254.937,-7.49884 L 255.294,-7.895 L 255.725,-8.20836 L 256.212,-8.42519 L 256.733,-8.53603
 L 257.267,-8.53603 L 257.788,-8.42519 L 258.275,-8.20836 L 258.706,-7.895 L 259.063,-7.49884 L 259.33,-7.03717
 L 259.494,-6.53017 L 259.55,-6 L 259.55,-0 L 379.2,-0 L 379.2,-6 L 379.256,-6.53017
 L 379.42,-7.03717 L 379.687,-7.49884 L 380.044,-7.895 L 380.475,-8.20836 L 380.962,-8.42519 L 381.483,-8.53603
 L 382.017,-8.53603 L 382.538,-8.42519 L 383.025,-8.20836 L 383.456,-7.895 L 383.813,-7.49884 L 384.08,-7.03717
 L 384.244,-6.53017 L 384.3,-6 L 384.3,-0 L 503.95,-0 L 503.95,-6 L 504.006,-6.53017
 L 504.17,-7.03717 L 504.437,-7.49884 L 504.794,-7.895 L 505.225,-8.20836 L 505.712,-8.42519 L 506.233,-8.53603
 L 506.767,-8.53603 L 507.288,-8.42519 L 507.775,-8.20836 L 508.206,-7.895 L 508.563,-7.49884 L 508.83,-7.03717
 L 508.994,-6.53017 L 509.05,-6 L 509.05,-0 L 514,-0 z
M 6.98573,-55.607 L 6.47708,-55.6875 L 5.97964,-55.8208 L 5.49887,-56.0054 L 5.04001,-56.2392 L 4.60811,-56.5196
 L 4.20789,-56.8437 L 3.84373,-57.2079 L 3.51964,-57.6081 L 3.23917,-58.04 L 3.00537,-58.4989 L 2.82082,-58.9796
 L 2.68752,-59.4771 L 2.60696,-59.9857 L 2.58,-60.5 L 2.60696,-61.0143 L 2.68752,-61.5229 L 2.82082,-62.0204
 L 3.00537,-62.5011 L 3.23917,-62.96 L 3.51964,-63.3919 L 3.84373,-63.7921 L 4.20789,-64.1563 L 4.60811,-64.4804
 L 4.95001,-64.7024 L 4.95001,-74 L 5.00574,-74.5302 L 5.17047,-75.0372 L 5.43701,-75.4988 L 5.79373,-75.895
 L 6.22501,-76.2084 L 6.71202,-76.4252 L 7.23346,-76.536 L 7.76654,-76.536 L 8.28798,-76.4252 L 8.77499,-76.2084
 L 9.20627,-75.895 L 9.56299,-75.4988 L 9.82953,-75.0372 L 9.99426,-74.5302 L 10.05,-74 L 10.05,-64.7024
 L 10.3919,-64.4804 L 10.7921,-64.1563 L 11.1563,-63.7921 L 11.4804,-63.3919 L 11.7608,-62.96 L 11.9946,-62.5011
 L 12.1792,-62.0204 L 12.3125,-61.5229 L 12.393,-61.0143 L 12.42,-60.5 L 12.393,-59.9857 L 12.3125,-59.4771
 L 12.1792,-58.9796 L 11.9946,-58.4989 L 11.7608,-58.04 L 11.4804,-57.6081 L 11.1563,-57.2079 L 10.7921,-56.8437
 L 10.3919,-56.5196 L 9.95999,-56.2392 L 9.50113,-56.0054 L 9.02036,-55.8208 L 8.52292,-55.6875 L 8.01427,-55.607
 L 7.5,-55.58 z
M 131.736,-55.607 L 131.227,-55.6875 L 130.73,-55.8208 L 130.249,-56.0054 L 129.79,-56.2392 L 129.358,-56.5196
 L 128.958,-56.8437 L 128.594,-57.2079 L 128.27,-57.6081 L 127.989,-58.04 L 127.755,-58.4989 L 127.571,-58.9796
 L 127.438,-59.4771 L 127.357,-59.9857 L 127.33,-60.5 L 127.357,-61.0143 L 127.438,-61.5229 L 127.571,-62.0204
 L 127.755,-62.5011 L 127.989,-62.96 L 128.27,-63.3919 L 128.594,-63.7921 L 128.958,-64.1563 L 129.358,-64.4804
 L 129.7,-64.7024 L 129.7,-74 L 129.756,-74.5302 L 129.92,-75.0372 L 130.187,-75.4988 L 130.544,-75.895
 L 130.975,-76.2084 L 131.462,-76.4252 L 131.983,-76.536 L 132.517,-76.536 L 133.038,-76.4252 L 133.525,-76.2084
 L 133.956,-75.895 L 134.313,-75.4988 L 134.58,-75.0372 L 134.744,-74.5302 L 134.8,-74 L 134.8,-64.7024
 L 135.142,-64.4804 L 135.542,-64.1563 L 135.906,-63.7921 L 136.23,-63.3919 L 136.511,-62.96 L 136.745,-62.5011
 L 136.929,-62.0204 L 137.062,-61.5229 L 137.143,-61.0143 L 137.17,-60.5 L 137.143,-59.9857 L 137.062,-59.4771
 L 136.929,-58.9796 L 136.745,-58.4989 L 136.511,-58.04 L 136.23,-57.6081 L 135.906,-57.2079 L 135.542,-56.8437
 L 135.142,-56.5196 L 134.71,-56.2392 L 134.251,-56.0054 L 133.77,-55.8208 L 133.273,-55.6875 L 132.764,-55.607
 L 132.25,-55.58 z
M 256.486,-55.607 L 255.977,-55.6875 L 255.48,-55.8208 L 254.999,-56.0054 L 254.54,-56.2392 L 254.108,-56.5196
 L 253.708,-56.8437 L 253.344,-57.2079 L 253.02,-57.6081 L 252.739,-58.04 L 252.505,-58.4989 L 252.321,-58.9796
 L 252.188,-59.4771 L 252.107,-59.9857 L 252.08,-60.5 L 252.107,-61.0143 L 252.188,-61.5229 L 252.321,-62.0204
 L 252.505,-62.5011 L 252.739,-62.96 L 253.02,-63.3919 L 253.344,-63.7921 L 253.708,-64.1563 L 254.108,-64.4804
 L 254.45,-64.7024 L 254.45,-74 L 254.506,-74.5302 L 254.67,-75.0372 L 254.937,-75.4988 L 255.294,-75.895
 L 255.725,-76.2084 L 256.212,-76.4252 L 256.733,-76.536 L 257.267,-76.536 L 257.788,-76.4252 L 258.275,-76.2084
 L 258.706,-75.895 L 259.063,-75.4988 L 259.33,-75.0372 L 259.494,-74.5302 L 259.55,-74 L 259.55,-64.7024
 L 259.892,-64.4804 L 260.292,-64.1563 L 260.656,-63.7921 L 260.98,-63.3919 L 261.261,-62.96 L 261.495,-62.5011
 L 261.679,-62.0204 L 261.812,-61.5229 L 261.893,-61.0143 L 261.92,-60.5 L 261.893,-59.9857 L 261.812,-59.4771
 L 261.679,-58.9796 L 261.495,-58.4989 L 261.261,-58.04 L 260.98,-57.6081 L 260.656,-57.2079 L 260.292,-56.8437
 L 259.892,-56.5196 L 259.46,-56.2392 L 259.001,-56.0054 L 258.52,-55.8208 L 258.023,-55.6875 L 257.514,-55.607
 L 257,-55.58 z
M 381.236,-55.607 L 380.727,-55.6875 L 380.23,-55.8208 L 379.749,-56.0054 L 379.29,-56.2392 L 378.858,-56.5196
 L 378.458,-56.8437 L 378.094,-57.2079 L 377.77,-57.6081 L 377.489,-58.04 L 377.255,-58.4989 L 377.071,-58.9796
 L 376.938,-59.4771 L 376.857,-59.9857 L 376.83,-60.5 L 376.857,-61.0143 L 376.938,-61.5229 L 377.071,-62.0204
 L 377.255,-62.5011 L 377.489,-62.96 L 377.77,-63.3919 L 378.094,-63.7921 L 378.458,-64.1563 L 378.858,-64.4804
 L 379.2,-64.7024 L 379.2,-74 L 379.256,-74.5302 L 379.42,-75.0372 L 379.687,-75.4988 L 380.044,-75.895
 L 380.475,-76.2084 L 380.962,-76.4252 L 381.483,-76.536 L 382.017,-76.536 L 382.538,-76.4252 L 383.025,-76.2084
 L 383.456,-75.895 L 383.813,-75.4988 L 384.08,-75.0372 L 384.244,-74.5302 L 384.3,-74 L 384.3,-64.7024
 L 384.642,-64.4804 L 385.042,-64.1563 L 385.406,-63.7921 L 385.73,-63.3919 L 386.011,-62.96 L 386.245,-62.5011
 L 386.429,-62.0204 L 386.562,-61.5229 L 386.643,-61.0143 L 386.67,-60.5 L 386.643,-59.9857 L 386.562,-59.4771
 L 386.429,-58.9796 L 386.245,-58.4989 L 386.011,-58.04 L 385.73,-57.6081 L 385.406,-57.2079 L 385.042,-56.8437
 L 384.642,-56.5196 L 384.21,-56.2392 L 383.751,-56.0054 L 383.27,-55.8208 L 382.773,-55.6875 L 382.264,-55.607
 L 381.75,-55.58 z
M 505.986,-55.607 L 505.477,-55.6875 L 504.98,-55.8208 L 504.499,-56.0054 L 504.04,-56.2392 L 503.608,-56.5196
 L 503.208,-56.8437 L 502.844,-57.2079 L 502.52,-57.6081 L 502.239,-58.04 L 502.005,-58.4989 L 501.821,-58.9796
 L 501.688,-59.4771 L 501.607,-59.9857 L 501.58,-60.5 L 501.607,-61.0143 L 501.688,-61.5229 L 501.821,-62.0204
 L 502.005,-62.5011 L 502.239,-62.96 L 502.52,-63.3919 L 502.844,-63.7921 L 503.208,-64.1563 L 503.608,-64.4804
 L 503.95,-64.7024 L 503.95,-74 L 504.006,-74.5302 L 504.17,-75.0372 L 504.437,-75.4988 L 504.794,-75.895
 L 505.225,-76.2084 L 505.712,-76.4252 L 506.233,-76.536 L 506.767,-76.536 L 507.288,-76.4252 L 507.775,-76.2084
 L 508.206,-75.895 L 508.563,-75.4988 L 508.83,-75.0372 L 508.994,-74.5302 L 509.05,-74 L 509.05,-64.7024
 L 509.392,-64.4804 L 509.792,-64.1563 L 510.156,-63.7921 L 510.48,-63.3919 L 510.761,-62.96 L 510.995,-62.5011
 L 511.179,-62.0204 L 511.312,-61.5229 L 511.393,-61.0143 L 511.42,-60.5 L 511.393,-59.9857 L 511.312,-59.4771
 L 511.179,-58.9796 L 510.995,-58.4989 L 510.761,-58.04 L 510.48,-57.6081 L 510.156,-57.2079 L 509.792,-56.8437
 L 509.392,-56.5196 L 508.96,-56.2392 L 508.501,-56.0054 L 508.02,-55.8208 L 507.523,-55.6875 L 507.014,-55.607
 L 506.5,-55.58 z
M 269.484,-23.9209 L 268.671,-24.1148 L 267.916,-24.4736 L 267.251,-24.9816 L 266.707,-25.6165 L 266.307,-26.3508
 L 266.068,-27.1522 L 266,-27.8876 L 266,-58 L 266.087,-58.8316 L 266.346,-59.627 L 266.764,-60.3511
 L 267.323,-60.9726 L 268,-61.4641 L 268.764,-61.8042 L 270,-62 L 325.243,-62 L 326.075,-61.9126
 L 326.87,-61.6542 L 327.594,-61.2361 L 328.216,-60.6765 L 328.707,-60 L 329.047,-59.2361 L 329.221,-58.4181
 L 329.221,-57.5819 L 329.047,-56.7639 L 328.707,-56 L 328.216,-55.3235 L 327.594,-54.7639 L 327.157,-54.4879
 L 271.914,-24.3755 L 271.142,-24.0542 L 270.32,-23.9004 z
M 242.858,-24.0542 L 242.086,-24.3755 L 186.843,-54.4879 L 186.406,-54.7639 L 185.784,-55.3235 L 185.293,-56
 L 184.953,-56.7639 L 184.779,-57.5819 L 184.779,-58.4181 L 184.953,-59.2361 L 185.293,-60 L 185.784,-60.6765
 L 186.406,-61.2361 L 187.13,-61.6542 L 187.925,-61.9126 L 188.757,-62 L 244,-62 L 245.236,-61.8042
 L 246,-61.4641 L 246.677,-60.9726 L 247.236,-60.3511 L 247.654,-59.627 L 247.913,-58.8316 L 248,-58
 L 248,-27.8876 L 247.932,-27.1522 L 247.693,-26.3508 L 247.293,-25.6165 L 246.749,-24.9816 L 246.084,-24.4736
 L 245.329,-24.1148 L 244.516,-23.9209 L 243.68,-23.9004 z
M 394.234,-23.9209 L 393.421,-24.1148 L 392.666,-24.4736 L 392.001,-24.9816 L 391.457,-25.6165 L 391.057,-26.3508
 L 390.818,-27.1522 L 390.75,-27.8876 L 390.75,-58 L 390.837,-58.8316 L 391.096,-59.627 L 391.514,-60.3511
 L 392.073,-60.9726 L 392.75,-61.4641 L 393.514,-61.8042 L 394.75,-62 L 449.993,-62 L 450.825,-61.9126
 L 451.62,-61.6542 L 452.344,-61.2361 L 452.966,-60.6765 L 453.457,-60 L 453.797,-59.2361 L 453.971,-58.4181
 L 453.971,-57.5819 L 453.797,-56.7639 L 453.457,-56 L 452.966,-55.3235 L 452.344,-54.7639 L 451.907,-54.4879
 L 396.664,-24.3755 L 395.892,-24.0542 L 395.07,-23.9004 z
M 118.108,-24.0542 L 117.336,-24.3755 L 62.0926,-54.4879 L 61.6559,-54.7639 L 61.0344,-55.3235 L 60.5429,-56
 L 60.2028,-56.7639 L 60.0289,-57.5819 L 60.0289,-58.4181 L 60.2028,-59.2361 L 60.5429,-60 L 61.0344,-60.6765
 L 61.6559,-61.2361 L 62.38,-61.6542 L 63.1753,-61.9126 L 64.007,-62 L 119.25,-62 L 120.486,-61.8042
 L 121.25,-61.4641 L 121.927,-60.9726 L 122.486,-60.3511 L 122.904,-59.627 L 123.163,-58.8316 L 123.25,-58
 L 123.25,-27.8876 L 123.182,-27.1522 L 122.943,-26.3508 L 122.543,-25.6165 L 121.999,-24.9816 L 121.334,-24.4736
 L 120.579,-24.1148 L 119.766,-23.9209 L 118.93,-23.9004 z
M 313.507,-18 L 312.675,-18.0874 L 311.88,-18.3458 L 311.156,-18.7639 L 310.534,-19.3235 L 310.043,-20
 L 309.703,-20.7639 L 309.529,-21.5819 L 309.529,-22.4181 L 309.703,-23.2361 L 310.043,-24 L 310.534,-24.6765
 L 311.156,-25.2361 L 311.593,-25.5121 L 366.836,-55.6245 L 367.608,-55.9458 L 368.43,-56.0996 L 369.266,-56.079
 L 370.079,-55.8852 L 370.834,-55.5264 L 371.499,-55.0184 L 372.043,-54.3835 L 372.443,-53.6492 L 372.682,-52.8478
 L 372.75,-52.1124 L 372.75,-22 L 372.663,-21.1684 L 372.404,-20.373 L 371.986,-19.6489 L 371.427,-19.0274
 L 370.75,-18.5359 L 369.986,-18.1958 L 368.75,-18 z
M 145.25,-18 L 144.014,-18.1958 L 143.25,-18.5359 L 142.573,-19.0274 L 142.014,-19.6489 L 141.596,-20.373
 L 141.337,-21.1684 L 141.25,-22 L 141.25,-52.1124 L 141.318,-52.8478 L 141.557,-53.6492 L 141.957,-54.3835
 L 142.501,-55.0184 L 143.166,-55.5264 L 143.921,-55.8852 L 144.734,-56.079 L 145.57,-56.0996 L 146.392,-55.9458
 L 147.164,-55.6245 L 202.407,-25.5121 L 202.844,-25.2361 L 203.466,-24.6765 L 203.957,-24 L 204.297,-23.2361
 L 204.471,-22.4181 L 204.471,-21.5819 L 204.297,-20.7639 L 203.957,-20 L 203.466,-19.3235 L 202.844,-18.7639
 L 202.12,-18.3458 L 201.325,-18.0874 L 200.493,-18 z
M 22,-18 L 20.7639,-18.1958 L 20,-18.5359 L 19.3235,-19.0274 L 18.7639,-19.6489 L 18.3458,-20.373
 L 18.0874,-21.1684 L 18,-22 L 18,-51.2948 L 18.0682,-52.0302 L 18.307,-52.8316 L 18.7072,-53.5658
 L 19.2514,-54.2008 L 19.9156,-54.7088 L 20.671,-55.0676 L 21.4844,-55.2614 L 22.3204,-55.2819 L 23.1424,-55.1282
 L 23.9144,-54.8069 L 77.6574,-25.5121 L 78.0941,-25.2361 L 78.7156,-24.6765 L 79.2071,-24 L 79.5472,-23.2361
 L 79.7211,-22.4181 L 79.7211,-21.5819 L 79.5472,-20.7639 L 79.2071,-20 L 78.7156,-19.3235 L 78.0941,-18.7639
 L 77.37,-18.3458 L 76.5747,-18.0874 L 75.743,-18 z
M 438.257,-18 L 437.425,-18.0874 L 436.63,-18.3458 L 435.906,-18.7639 L 435.284,-19.3235 L 434.793,-20
 L 434.453,-20.7639 L 434.279,-21.5819 L 434.279,-22.4181 L 434.453,-23.2361 L 434.793,-24 L 435.284,-24.6765
 L 435.906,-25.2361 L 436.343,-25.5121 L 490.086,-54.8069 L 490.858,-55.1282 L 491.68,-55.2819 L 492.516,-55.2614
 L 493.329,-55.0676 L 494.084,-54.7088 L 494.749,-54.2008 L 495.293,-53.5658 L 495.693,-52.8316 L 495.932,-52.0302
 L 496,-51.2948 L 496,-22 L 495.913,-21.1684 L 495.654,-20.373 L 495.236,-19.6489 L 494.677,-19.0274
 L 494,-18.5359 L 493.236,-18.1958 L 492,-18 z
" stroke="black" fill="lightgray" stroke-width="0.5"/>
</svg>
