<?xml version="1.0" standalone="no"?>
<!DOCTYPE svg PUBLIC "-//W3C//DTD SVG 1.1//EN" "http://www.w3.org/Graphics/SVG/1.1/DTD/svg11.dtd">
<svg width="956mm" height="80mm" viewBox="0 -80 956 80" xmlns="http://www.w3.org/2000/svg" version="1.1">
<title>OpenSCAD Model</title>
<path d="
M 956,-80 L 0,-80 L 0,-0 L 4.95,-0 L 4.95,-6 L 5.00572,-6.53017
 L 5.17046,-7.03717 L 5.437,-7.49884 L 5.79372,-7.895 L 6.22499,-8.20836 L 6.71201,-8.42519 L 7.23344,-8.53603
 L 7.76654,-8.53603 L 8.28798,-8.42519 L 8.77499,-8.20836 L 9.20627,-7.895 L 9.56299,-7.49884 L 9.82953,-7.03717
 L 9.99426,-6.53017 L 10.05,-6 L 10.05,-0 L 193.15,-0 L 193.15,-6 L 193.206,-6.53017
 L 193.37,-7.03717 L 193.637,-7.49884 L 193.994,-7.895 L 194.425,-8.20836 L 194.912,-8.42519 L 195.433,-8.53603
 L 195.967,-8.53603 L 196.488,-8.42519 L 196.975,-8.20836 L 197.406,-7.895 L 197.763,-7.49884 L 198.03,-7.03717
 L 198.194,-6.53017 L 198.25,-6 L 198.25,-0 L 381.35,-0 L 381.35,-6 L 381.406,-6.53017
 L 381.57,-7.03717 L 381.837,-7.49884 L 382.194,-7.895 L 382.625,-8.20836 L 383.112,-8.42519 L 383.633,-8.53603
 L 384.167,-8.53603 L 384.688,-8.42519 L 385.175,-8.20836 L 385.606,-7.895 L 385.963,-7.49884 L 386.23,-7.03717
 L 386.394,-6.53017 L 386.45,-6 L 386.45,-0 L 569.55,-0 L 569.55,-6 L 569.606,-6.53017
 L 569.77,-7.03717 L 570.037,-7.49884 L 570.394,-7.895 L 570.825,-8.20836 L 571.312,-8.42519 L 571.833,-8.53603
 L 572.367,-8.53603 L 572.888,-8.42519 L 573.375,-8.20836 L 573.806,-7.895 L 574.163,-7.49884 L 574.43,-7.03717
 L 574.594,-6.53017 L 574.65,-6 L 574.65,-0 L 757.75,-0 L 757.75,-6 L 757.806,-6.53017
 L 757.97,-7.03717 L 758.237,-7.49884 L 758.594,-7.895 L 759.025,-8.20836 L 759.512,-8.42519 L 760.033,-8.53603
 L 760.567,-8.53603 L 761.088,-8.42519 L 761.575,-8.20836 L 762.006,-7.895 L 762.363,-7.49884 L 762.63,-7.03717
 L 762.794,-6.53017 L 762.85,-6 L 762.85,-0 L 945.95,-0 L 945.95,-6 L 946.006,-6.53017
 L 946.17,-7.03717 L 946.437,-7.49884 L 946.794,-7.895 L 947.225,-8.20836 L 947.712,-8.42519 L 948.233,-8.53603
 L 948.767,-8.53603 L 949.288,-8.42519 L 949.775,-8.20836 L 950.206,-7.895 L 950.563,-7.49884 L 950.83,-7.03717
 L 950.994,-6.53017 L 951.05,-6 L 951.05,-0 L 956,-0 z
M 6.98573,-55.607 L 6.47708,-55.6875 L 5.97964,-55.8208 L 5.49887,-56.0054 L 5.04001,-56.2392 L 4.60811,-56.5196
 L 4.20789,-56.8437 L 3.84373,-57.2079 L 3.51964,-57.6081 L 3.23917,-58.04 L 3.00537,-58.4989 L 2.82082,-58.9796
 L 2.68752,-59.4771 L 2.60696,-59.9857 L 2.58,-60.5 L 2.60696,-61.0143 L 2.68752,-61.5229 L 2.82082,-62.0204
 L 3.00537,-62.5011 L 3.23917,-62.96 L 3.51964,-63.3919 L 3.84373,-63.7921 L 4.20789,-64.1563 L 4.60811,-64.4804
 L 4.95001,-64.7024 L 4.95001,-74 L 5.00574,-74.5302 L 5.17047,-75.0372 L 5.43701,-75.4988 L 5.79373,-75.895
 L 6.22501,-76.2084 L 6.71202,-76.4252 L 7.23346,-76.536 L 7.76654,-76.536 L 8.28798,-76.4252 L 8.77499,-76.2084
 L 9.20627,-75.895 L 9.56299,-75.4988 L 9.82953,-75.0372 L 9.99426,-74.5302 L 10.05,-74 L 10.05,-64.7024
 L 10.3919,-64.4804 L 10.7921,-64.1563 L 11.1563,-63.7921 L 11.4804,-63.3919 L 11.7608,-62.96 L 11.9946,-62.5011
 L 12.1792,-62.0204 L 12.3125,-61.5229 L 12.393,-61.0143 L 12.42,-60.5 L 12.393,-59.9857 L 12.3125,-59.4771
 L 12.1792,-58.9796 L 11.9946,-58.4989 L 11.7608,-58.04 L 11.4804,-57.6081 L 11.1563,-57.2079 L 10.7921,-56.8437
 L 10.3919,-56.5196 L 9.95999,-56.2392 L 9.50113,-56.0054 L 9.02036,-55.8208 L 8.52292,-55.6875 L 8.01427,-55.607
 L 7.5,-55.58 z
M 195.186,-55.607 L 194.677,-55.6875 L 194.18,-55.8208 L 193.699,-56.0054 L 193.24,-56.2392 L 192.808,-56.5196
 L 192.408,-56.8437 L 192.044,-57.2079 L 191.72,-57.6081 L 191.439,-58.04 L 191.205,-58.4989 L 191.021,-58.9796
 L 190.888,-59.4771 L 190.807,-59.9857 L 190.78,-60.5 L 190.807,-61.0143 L 190.888,-61.5229 L 191.021,-62.0204
 L 191.205,-62.5011 L 191.439,-62.96 L 191.72,-63.3919 L 192.044,-63.7921 L 192.408,-64.1563 L 192.808,-64.4804
 L 193.15,-64.7024 L 193.15,-74 L 193.206,-74.5302 L 193.37,-75.0372 L 193.637,-75.4988 L 193.994,-75.895
 L 194.425,-76.2084 L 194.912,-76.4252 L 195.433,-76.536 L 195.967,-76.536 L 196.488,-76.4252 L 196.975,-76.2084
 L 197.406,-75.895 L 197.763,-75.4988 L 198.03,-75.0372 L 198.194,-74.5302 L 198.25,-74 L 198.25,-64.7024
 L 198.592,-64.4804 L 198.992,-64.1563 L 199.356,-63.7921 L 199.68,-63.3919 L 199.961,-62.96 L 200.195,-62.5011
 L 200.379,-62.0204 L 200.512,-61.5229 L 200.593,-61.0143 L 200.62,-60.5 L 200.593,-59.9857 L 200.512,-59.4771
 L 200.379,-58.9796 L 200.195,-58.4989 L 199.961,-58.04 L 199.68,-57.6081 L 199.356,-57.2079 L 198.992,-56.8437
 L 198.592,-56.5196 L 198.16,-56.2392 L 197.701,-56.0054 L 197.22,-55.8208 L 196.723,-55.6875 L 196.214,-55.607
 L 195.7,-55.58 z
M 383.386,-55.607 L 382.877,-55.6875 L 382.38,-55.8208 L 381.899,-56.0054 L 381.44,-56.2392 L 381.008,-56.5196
 L 380.608,-56.8437 L 380.244,-57.2079 L 379.92,-57.6081 L 379.639,-58.04 L 379.405,-58.4989 L 379.221,-58.9796
 L 379.088,-59.4771 L 379.007,-59.9857 L 378.98,-60.5 L 379.007,-61.0143 L 379.088,-61.5229 L 379.221,-62.0204
 L 379.405,-62.5011 L 379.639,-62.96 L 379.92,-63.3919 L 380.244,-63.7921 L 380.608,-64.1563 L 381.008,-64.4804
 L 381.35,-64.7024 L 381.35,-74 L 381.406,-74.5302 L 381.57,-75.0372 L 381.837,-75.4988 L 382.194,-75.895
 L 382.625,-76.2084 L 383.112,-76.4252 L 383.633,-76.536 L 384.167,-76.536 L 384.688,-76.4252 L 385.175,-76.2084
 L 385.606,-75.895 L 385.963,-75.4988 L 386.23,-75.0372 L 386.394,-74.5302 L 386.45,-74 L 386.45,-64.7024
 L 386.792,-64.4804 L 387.192,-64.1563 L 387.556,-63.7921 L 387.88,-63.3919 L 388.161,-62.96 L 388.395,-62.5011
 L 388.579,-62.0204 L 388.712,-61.5229 L 388.793,-61.0143 L 388.82,-60.5 L 388.793,-59.9857 L 388.712,-59.4771
 L 388.579,-58.9796 L 388.395,-58.4989 L 388.161,-58.04 L 387.88,-57.6081 L 387.556,-57.2079 L 387.192,-56.8437
 L 386.792,-56.5196 L 386.36,-56.2392 L 385.901,-56.0054 L 385.42,-55.8208 L 384.923,-55.6875 L 384.414,-55.607
 L 383.9,-55.58 z
M 571.586,-55.607 L 571.077,-55.6875 L 570.58,-55.8208 L 570.099,-56.0054 L 569.64,-56.2392 L 569.208,-56.5196
 L 568.808,-56.8437 L 568.444,-57.2079 L 568.12,-57.6081 L 567.839,-58.04 L 567.605,-58.4989 L 567.421,-58.9796
 L 567.288,-59.4771 L 567.207,-59.9857 L 567.18,-60.5 L 567.207,-61.0143 L 567.288,-61.5229 L 567.421,-62.0204
 L 567.605,-62.5011 L 567.839,-62.96 L 568.12,-63.3919 L 568.444,-63.7921 L 568.808,-64.1563 L 569.208,-64.4804
 L 569.55,-64.7024 L 569.55,-74 L 569.606,-74.5302 L 569.77,-75.0372 L 570.037,-75.4988 L 570.394,-75.895
 L 570.825,-76.2084 L 571.312,-76.4252 L 571.833,-76.536 L 572.367,-76.536 L 572.888,-76.4252 L 573.375,-76.2084
 L 573.806,-75.895 L 574.163,-75.4988 L 574.43,-75.0372 L 574.594,-74.5302 L 574.65,-74 L 574.65,-64.7024
 L 574.992,-64.4804 L 575.392,-64.1563 L 575.756,-63.7921 L 576.08,-63.3919 L 576.361,-62.96 L 576.595,-62.5011
 L 576.779,-62.0204 L 576.912,-61.5229 L 576.993,-61.0143 L 577.02,-60.5 L 576.993,-59.9857 L 576.912,-59.4771
 L 576.779,-58.9796 L 576.595,-58.4989 L 576.361,-58.04 L 576.08,-57.6081 L 575.756,-57.2079 L 575.392,-56.8437
 L 574.992,-56.5196 L 574.56,-56.2392 L 574.101,-56.0054 L 573.62,-55.8208 L 573.123,-55.6875 L 572.614,-55.607
 L 572.1,-55.58 z
M 759.786,-55.607 L 759.277,-55.6875 L 758.78,-55.8208 L 758.299,-56.0054 L 757.84,-56.2392 L 757.408,-56.5196
 L 757.008,-56.8437 L 756.644,-57.2079 L 756.32,-57.6081 L 756.039,-58.04 L 755.805,-58.4989 L 755.621,-58.9796
 L 755.488,-59.4771 L 755.407,-59.9857 L 755.38,-60.5 L 755.407,-61.0143 L 755.488,-61.5229 L 755.621,-62.0204
 L 755.805,-62.5011 L 756.039,-62.96 L 756.32,-63.3919 L 756.644,-63.7921 L 757.008,-64.1563 L 757.408,-64.4804
 L 757.75,-64.7024 L 757.75,-74 L 757.806,-74.5302 L 757.97,-75.0372 L 758.237,-75.4988 L 758.594,-75.895
 L 759.025,-76.2084 L 759.512,-76.4252 L 760.033,-76.536 L 760.567,-76.536 L 761.088,-76.4252 L 761.575,-76.2084
 L 762.006,-75.895 L 762.363,-75.4988 L 762.63,-75.0372 L 762.794,-74.5302 L 762.85,-74 L 762.85,-64.7024
 L 763.192,-64.4804 L 763.592,-64.1563 L 763.956,-63.7921 L 764.28,-63.3919 L 764.561,-62.96 L 764.795,-62.5011
 L 764.979,-62.0204 L 765.112,-61.5229 L 765.193,-61.0143 L 765.22,-60.5 L 765.193,-59.9857 L 765.112,-59.4771
 L 764.979,-58.9796 L 764.795,-58.4989 L 764.561,-58.04 L 764.28,-57.6081 L 763.956,-57.2079 L 763.592,-56.8437
 L 763.192,-56.5196 L 762.76,-56.2392 L 762.301,-56.0054 L 761.82,-55.8208 L 761.323,-55.6875 L 760.814,-55.607
 L 760.3,-55.58 z
M 947.986,-55.607 L 947.477,-55.6875 L 946.98,-55.8208 L 946.499,-56.0054 L 946.04,-56.2392 L 945.608,-56.5196
 L 945.208,-56.8437 L 944.844,-57.2079 L 944.52,-57.6081 L 944.239,-58.04 L 944.005,-58.4989 L 943.821,-58.9796
 L 943.688,-59.4771 L 943.607,-59.9857 L 943.58,-60.5 L 943.607,-61.0143 L 943.688,-61.5229 L 943.821,-62.0204
 L 944.005,-62.5011 L 944.239,-62.96 L 944.52,-63.3919 L 944.844,-63.7921 L 945.208,-64.1563 L 945.608,-64.4804
 L 945.95,-64.7024 L 945.95,-74 L 946.006,-74.5302 L 946.17,-75.0372 L 946.437,-75.4988 L 946.794,-75.895
 L 947.225,-76.2084 L 947.712,-76.4252 L 948.233,-76.536 L 948.767,-76.536 L 949.288,-76.4252 L 949.775,-76.2084
 L 950.206,-75.895 L 950.563,-75.4988 L 950.83,-75.0372 L 950.994,-74.5302 L 951.05,-74 L 951.05,-64.7024
 L 951.392,-64.4804 L 951.792,-64.1563 L 952.156,-63.7921 L 952.48,-63.3919 L 952.761,-62.96 L 952.995,-62.5011
 L 953.179,-62.0204 L 953.312,-61.5229 L 953.393,-61.0143 L 953.42,-60.5 L 953.393,-59.9857 L 953.312,-59.4771
 L 953.179,-58.9796 L 952.995,-58.4989 L 952.761,-58.04 L 952.48,-57.6081 L 952.156,-57.2079 L 951.792,-56.8437
 L 951.392,-56.5196 L 950.96,-56.2392 L 950.501,-56.0054 L 950.02,-55.8208 L 949.523,-55.6875 L 949.014,-55.607
 L 948.5,-55.58 z
M 477.453,-47.7274 L 476.641,-47.9278 L 459.176,-54.238 L 458.184,-54.7639 L 457.563,-55.3235 L 457.071,-56
 L 456.731,-56.7639 L 456.557,-57.5819 L 456.557,-58.4181 L 456.731,-59.2361 L 457.071,-60 L 457.563,-60.6765
 L 458.184,-61.2361 L 458.909,-61.6542 L 459.704,-61.9126 L 460.536,-62 L 495.464,-62 L 496.576,-61.8425
 L 497.351,-61.5274 L 498.043,-61.0581 L 498.622,-60.4552 L 499.064,-59.7451 L 499.348,-58.9586 L 499.462,-58.1302
 L 499.402,-57.2962 L 499.17,-56.4929 L 498.775,-55.7555 L 498.236,-55.1161 L 497.576,-54.6028 L 496.824,-54.238
 L 479.359,-47.9278 L 478.288,-47.7002 z
M 370.353,-20.55 L 369.541,-20.7504 L 276.859,-54.238 L 275.867,-54.7639 L 275.245,-55.3235 L 274.754,-56
 L 274.414,-56.7639 L 274.24,-57.5819 L 274.24,-58.4181 L 274.414,-59.2361 L 274.754,-60 L 275.245,-60.6765
 L 275.867,-61.2361 L 276.591,-61.6542 L 277.386,-61.9126 L 278.218,-62 L 370.9,-62 L 372.136,-61.8042
 L 372.9,-61.4641 L 373.577,-60.9726 L 374.136,-60.3511 L 374.554,-59.627 L 374.813,-58.8316 L 374.9,-58
 L 374.9,-24.5123 L 374.783,-23.5538 L 374.499,-22.7673 L 374.058,-22.0571 L 373.478,-21.4542 L 372.786,-20.985
 L 372.012,-20.6699 L 371.188,-20.5228 z
M 772.188,-20.6699 L 771.414,-20.985 L 770.722,-21.4542 L 770.142,-22.0571 L 769.701,-22.7673 L 769.417,-23.5538
 L 769.3,-24.5123 L 769.3,-58 L 769.387,-58.8316 L 769.646,-59.627 L 770.064,-60.3511 L 770.623,-60.9726
 L 771.3,-61.4641 L 772.064,-61.8042 L 773.3,-62 L 865.982,-62 L 866.814,-61.9126 L 867.609,-61.6542
 L 868.333,-61.2361 L 868.955,-60.6765 L 869.446,-60 L 869.786,-59.2361 L 869.96,-58.4181 L 869.96,-57.5819
 L 869.786,-56.7639 L 869.446,-56 L 868.955,-55.3235 L 868.333,-54.7639 L 867.341,-54.238 L 774.659,-20.7504
 L 773.847,-20.55 L 773.012,-20.5228 z
M 182.153,-20.55 L 181.341,-20.7504 L 88.6587,-54.238 L 87.6669,-54.7639 L 87.0454,-55.3235 L 86.5539,-56
 L 86.2138,-56.7639 L 86.0399,-57.5819 L 86.0399,-58.4181 L 86.2138,-59.2361 L 86.5539,-60 L 87.0454,-60.6765
 L 87.6669,-61.2361 L 88.391,-61.6542 L 89.1863,-61.9126 L 90.018,-62 L 182.7,-62 L 183.936,-61.8042
 L 184.7,-61.4641 L 185.377,-60.9726 L 185.936,-60.3511 L 186.354,-59.627 L 186.613,-58.8316 L 186.7,-58
 L 186.7,-24.5123 L 186.583,-23.5538 L 186.299,-22.7673 L 185.858,-22.0571 L 185.278,-21.4542 L 184.586,-20.985
 L 183.812,-20.6699 L 182.988,-20.5228 z
M 583.988,-20.6699 L 583.214,-20.985 L 582.522,-21.4542 L 581.942,-22.0571 L 581.501,-22.7673 L 581.217,-23.5538
 L 581.1,-24.5123 L 581.1,-58 L 581.187,-58.8316 L 581.446,-59.627 L 581.864,-60.3511 L 582.423,-60.9726
 L 583.1,-61.4641 L 583.864,-61.8042 L 585.1,-62 L 677.782,-62 L 678.614,-61.9126 L 679.409,-61.6542
 L 680.133,-61.2361 L 680.755,-60.6765 L 681.246,-60 L 681.586,-59.2361 L 681.76,-58.4181 L 681.76,-57.5819
 L 681.586,-56.7639 L 681.246,-56 L 680.755,-55.3235 L 680.133,-54.7639 L 679.141,-54.238 L 586.459,-20.7504
 L 585.647,-20.55 L 584.812,-20.5228 z
M 396.482,-18.4088 L 395.664,-18.5827 L 394.9,-18.9228 L 394.223,-19.4144 L 393.664,-20.0358 L 393.246,-20.76
 L 392.987,-21.5553 L 392.9,-22.3869 L 392.9,-57.6131 L 393.017,-58.5717 L 393.301,-59.3581 L 393.742,-60.0683
 L 394.322,-60.6712 L 395.014,-61.1404 L 395.788,-61.4555 L 396.612,-61.6027 L 397.447,-61.5754 L 398.259,-61.375
 L 447.006,-43.762 L 447.533,-43.5274 L 448.225,-43.0581 L 448.805,-42.4552 L 449.246,-41.7451 L 449.53,-40.9586
 L 449.645,-40.1302 L 449.584,-39.2962 L 449.352,-38.4929 L 448.958,-37.7555 L 448.419,-37.1161 L 447.758,-36.6028
 L 447.006,-36.238 L 398.259,-18.625 L 397.318,-18.4088 z
M 558.553,-18.4246 L 557.741,-18.625 L 508.994,-36.238 L 508.467,-36.4726 L 507.775,-36.9419 L 507.195,-37.5448
 L 506.754,-38.2549 L 506.47,-39.0414 L 506.355,-39.8698 L 506.416,-40.7038 L 506.648,-41.5071 L 507.042,-42.2445
 L 507.581,-42.8839 L 508.242,-43.3972 L 508.994,-43.762 L 557.741,-61.375 L 558.682,-61.5912 L 559.518,-61.5912
 L 560.336,-61.4173 L 561.1,-61.0772 L 561.777,-60.5856 L 562.336,-59.9642 L 562.754,-59.24 L 563.013,-58.4447
 L 563.1,-57.6131 L 563.1,-22.3869 L 562.983,-21.4283 L 562.699,-20.6419 L 562.258,-19.9317 L 561.678,-19.3288
 L 560.986,-18.8596 L 560.212,-18.5445 L 559.388,-18.3973 z
M 208.7,-18 L 207.464,-18.1958 L 206.7,-18.5359 L 206.023,-19.0274 L 205.464,-19.6489 L 205.046,-20.373
 L 204.787,-21.1684 L 204.7,-22 L 204.7,-55.4876 L 204.817,-56.4462 L 205.101,-57.2327 L 205.542,-57.9429
 L 206.122,-58.5458 L 206.814,-59.015 L 207.588,-59.3301 L 208.412,-59.4772 L 209.247,-59.45 L 210.059,-59.2496
 L 302.741,-25.762 L 303.733,-25.2361 L 304.355,-24.6765 L 304.846,-24 L 305.186,-23.2361 L 305.36,-22.4181
 L 305.36,-21.5819 L 305.186,-20.7639 L 304.846,-20 L 304.355,-19.3235 L 303.733,-18.7639 L 303.009,-18.3458
 L 302.214,-18.0874 L 301.382,-18 z
M 654.618,-18 L 653.786,-18.0874 L 652.991,-18.3458 L 652.267,-18.7639 L 651.645,-19.3235 L 651.154,-20
 L 650.814,-20.7639 L 650.64,-21.5819 L 650.64,-22.4181 L 650.814,-23.2361 L 651.154,-24 L 651.645,-24.6765
 L 652.267,-25.2361 L 653.259,-25.762 L 745.941,-59.2496 L 746.753,-59.45 L 747.588,-59.4772 L 748.412,-59.3301
 L 749.186,-59.015 L 749.878,-58.5458 L 750.458,-57.9429 L 750.899,-57.2327 L 751.183,-56.4462 L 751.3,-55.4876
 L 751.3,-22 L 751.213,-21.1684 L 750.954,-20.373 L 750.536,-19.6489 L 749.977,-19.0274 L 749.3,-18.5359
 L 748.536,-18.1958 L 747.3,-18 z
M 22,-18 L 20.7639,-18.1958 L 20,-18.5359 L 19.3235,-19.0274 L 18.7639,-19.6489 L 18.3458,-20.373
 L 18.0874,-21.1684 L 18,-22 L 18,-54.9457 L 18.1166,-55.9043 L 18.4007,-56.6907 L 18.8422,-57.4009
 L 19.4217,-58.0038 L 20.1138,-58.473 L 20.8884,-58.7881 L 21.7116,-58.9353 L 22.5474,-58.908 L 23.3593,-58.7076
 L 114.541,-25.762 L 115.533,-25.2361 L 116.155,-24.6765 L 116.646,-24 L 116.986,-23.2361 L 117.16,-22.4181
 L 117.16,-21.5819 L 116.986,-20.7639 L 116.646,-20 L 116.155,-19.3235 L 115.533,-18.7639 L 114.809,-18.3458
 L 114.014,-18.0874 L 113.182,-18 z
M 842.818,-18 L 841.986,-18.0874 L 841.191,-18.3458 L 840.467,-18.7639 L 839.845,-19.3235 L 839.354,-20
 L 839.014,-20.7639 L 838.84,-21.5819 L 838.84,-22.4181 L 839.014,-23.2361 L 839.354,-24 L 839.845,-24.6765
 L 840.467,-25.2361 L 841.459,-25.762 L 932.641,-58.7076 L 933.453,-58.908 L 934.288,-58.9353 L 935.112,-58.7881
 L 935.886,-58.473 L 936.578,-58.0038 L 937.158,-57.4009 L 937.599,-56.6907 L 937.883,-55.9043 L 938,-54.9457
 L 938,-22 L 937.913,-21.1684 L 937.654,-20.373 L 937.236,-19.6489 L 936.677,-19.0274 L 936,-18.5359
 L 935.236,-18.1958 L 934,-18 z
M 460.536,-18 L 459.424,-18.1575 L 458.649,-18.4726 L 457.957,-18.9419 L 457.378,-19.5448 L 456.936,-20.2549
 L 456.652,-21.0414 L 456.538,-21.8698 L 456.598,-22.7038 L 456.83,-23.5071 L 457.225,-24.2445 L 457.764,-24.8839
 L 458.424,-25.3972 L 459.176,-25.762 L 476.641,-32.0722 L 477.712,-32.2998 L 478.547,-32.2726 L 479.359,-32.0722
 L 496.824,-25.762 L 497.816,-25.2361 L 498.437,-24.6765 L 498.928,-24 L 499.269,-23.2361 L 499.442,-22.4181
 L 499.442,-21.5819 L 499.269,-20.7639 L 498.928,-20 L 498.437,-19.3235 L 497.816,-18.7639 L 497.091,-18.3458
 L 496.296,-18.0874 L 495.464,-18 z
" stroke="black" fill="lightgray" stroke-width="0.5"/>
</svg>
