<?xml version="1.0" standalone="no"?>
<!DOCTYPE svg PUBLIC "-//W3C//DTD SVG 1.1//EN" "http://www.w3.org/Graphics/SVG/1.1/DTD/svg11.dtd">
<svg width="633mm" height="80mm" viewBox="0 -80 633 80" xmlns="http://www.w3.org/2000/svg" version="1.1">
<title>OpenSCAD Model</title>
<path d="
M 633,-80 L 0,-80 L 0,-0 L 4.95,-0 L 4.95,-6 L 5.00572,-6.53017
 L 5.17046,-7.03717 L 5.437,-7.49884 L 5.79372,-7.895 L 6.22499,-8.20836 L 6.71201,-8.42519 L 7.23344,-8.53603
 L 7.76654,-8.53603 L 8.28798,-8.42519 L 8.77499,-8.20836 L 9.20627,-7.895 L 9.56299,-7.49884 L 9.82953,-7.03717
 L 9.99426,-6.53017 L 10.05,-6 L 10.05,-0 L 128.55,-0 L 128.55,-6 L 128.606,-6.53017
 L 128.77,-7.03717 L 129.037,-7.49884 L 129.394,-7.895 L 129.825,-8.20836 L 130.312,-8.42519 L 130.833,-8.53603
 L 131.367,-8.53603 L 131.888,-8.42519 L 132.375,-8.20836 L 132.806,-7.895 L 133.163,-7.49884 L 133.43,-7.03717
 L 133.594,-6.53017 L 133.65,-6 L 133.65,-0 L 252.15,-0 L 252.15,-6 L 252.206,-6.53017
 L 252.37,-7.03717 L 252.637,-7.49884 L 252.994,-7.895 L 253.425,-8.20836 L 253.912,-8.42519 L 254.433,-8.53603
 L 254.967,-8.53603 L 255.488,-8.42519 L 255.975,-8.20836 L 256.406,-7.895 L 256.763,-7.49884 L 257.03,-7.03717
 L 257.194,-6.53017 L 257.25,-6 L 257.25,-0 L 375.75,-0 L 375.75,-6 L 375.806,-6.53017
 L 375.97,-7.03717 L 376.237,-7.49884 L 376.594,-7.895 L 377.025,-8.20836 L 377.512,-8.42519 L 378.033,-8.53603
 L 378.567,-8.53603 L 379.088,-8.42519 L 379.575,-8.20836 L 380.006,-7.895 L 380.363,-7.49884 L 380.63,-7.03717
 L 380.794,-6.53017 L 380.85,-6 L 380.85,-0 L 499.35,-0 L 499.35,-6 L 499.406,-6.53017
 L 499.57,-7.03717 L 499.837,-7.49884 L 500.194,-7.895 L 500.625,-8.20836 L 501.112,-8.42519 L 501.633,-8.53603
 L 502.167,-8.53603 L 502.688,-8.42519 L 503.175,-8.20836 L 503.606,-7.895 L 503.963,-7.49884 L 504.23,-7.03717
 L 504.394,-6.53017 L 504.45,-6 L 504.45,-0 L 622.95,-0 L 622.95,-6 L 623.006,-6.53017
 L 623.17,-7.03717 L 623.437,-7.49884 L 623.794,-7.895 L 624.225,-8.20836 L 624.712,-8.42519 L 625.233,-8.53603
 L 625.767,-8.53603 L 626.288,-8.42519 L 626.775,-8.20836 L 627.206,-7.895 L 627.563,-7.49884 L 627.83,-7.03717
 L 627.994,-6.53017 L 628.05,-6 L 628.05,-0 L 633,-0 z
M 6.98573,-55.607 L 6.47708,-55.6875 L 5.97964,-55.8208 L 5.49887,-56.0054 L 5.04001,-56.2392 L 4.60811,-56.5196
 L 4.20789,-56.8437 L 3.84373,-57.2079 L 3.51964,-57.6081 L 3.23917,-58.04 L 3.00537,-58.4989 L 2.82082,-58.9796
 L 2.68752,-59.4771 L 2.60696,-59.9857 L 2.58,-60.5 L 2.60696,-61.0143 L 2.68752,-61.5229 L 2.82082,-62.0204
 L 3.00537,-62.5011 L 3.23917,-62.96 L 3.51964,-63.3919 L 3.84373,-63.7921 L 4.20789,-64.1563 L 4.60811,-64.4804
 L 4.95001,-64.7024 L 4.95001,-74 L 5.00574,-74.5302 L 5.17047,-75.0372 L 5.43701,-75.4988 L 5.79373,-75.895
 L 6.22501,-76.2084 L 6.71202,-76.4252 L 7.23346,-76.536 L 7.76654,-76.536 L 8.28798,-76.4252 L 8.77499,-76.2084
 L 9.20627,-75.895 L 9.56299,-75.4988 L 9.82953,-75.0372 L 9.99426,-74.5302 L 10.05,-74 L 10.05,-64.7024
 L 10.3919,-64.4804 L 10.7921,-64.1563 L 11.1563,-63.7921 L 11.4804,-63.3919 L 11.7608,-62.96 L 11.9946,-62.5011
 L 12.1792,-62.0204 L 12.3125,-61.5229 L 12.393,-61.0143 L 12.42,-60.5 L 12.393,-59.9857 L 12.3125,-59.4771
 L 12.1792,-58.9796 L 11.9946,-58.4989 L 11.7608,-58.04 L 11.4804,-57.6081 L 11.1563,-57.2079 L 10.7921,-56.8437
 L 10.3919,-56.5196 L 9.95999,-56.2392 L 9.50113,-56.0054 L 9.02036,-55.8208 L 8.52292,-55.6875 L 8.01427,-55.607
 L 7.5,-55.58 z
M 130.586,-55.607 L 130.077,-55.6875 L 129.58,-55.8208 L 129.099,-56.0054 L 128.64,-56.2392 L 128.208,-56.5196
 L 127.808,-56.8437 L 127.444,-57.2079 L 127.12,-57.6081 L 126.839,-58.04 L 126.605,-58.4989 L 126.421,-58.9796
 L 126.288,-59.4771 L 126.207,-59.9857 L 126.18,-60.5 L 126.207,-61.0143 L 126.288,-61.5229 L 126.421,-62.0204
 L 126.605,-62.5011 L 126.839,-62.96 L 127.12,-63.3919 L 127.444,-63.7921 L 127.808,-64.1563 L 128.208,-64.4804
 L 128.55,-64.7024 L 128.55,-74 L 128.606,-74.5302 L 128.77,-75.0372 L 129.037,-75.4988 L 129.394,-75.895
 L 129.825,-76.2084 L 130.312,-76.4252 L 130.833,-76.536 L 131.367,-76.536 L 131.888,-76.4252 L 132.375,-76.2084
 L 132.806,-75.895 L 133.163,-75.4988 L 133.43,-75.0372 L 133.594,-74.5302 L 133.65,-74 L 133.65,-64.7024
 L 133.992,-64.4804 L 134.392,-64.1563 L 134.756,-63.7921 L 135.08,-63.3919 L 135.361,-62.96 L 135.595,-62.5011
 L 135.779,-62.0204 L 135.912,-61.5229 L 135.993,-61.0143 L 136.02,-60.5 L 135.993,-59.9857 L 135.912,-59.4771
 L 135.779,-58.9796 L 135.595,-58.4989 L 135.361,-58.04 L 135.08,-57.6081 L 134.756,-57.2079 L 134.392,-56.8437
 L 133.992,-56.5196 L 133.56,-56.2392 L 133.101,-56.0054 L 132.62,-55.8208 L 132.123,-55.6875 L 131.614,-55.607
 L 131.1,-55.58 z
M 254.186,-55.607 L 253.677,-55.6875 L 253.18,-55.8208 L 252.699,-56.0054 L 252.24,-56.2392 L 251.808,-56.5196
 L 251.408,-56.8437 L 251.044,-57.2079 L 250.72,-57.6081 L 250.439,-58.04 L 250.205,-58.4989 L 250.021,-58.9796
 L 249.888,-59.4771 L 249.807,-59.9857 L 249.78,-60.5 L 249.807,-61.0143 L 249.888,-61.5229 L 250.021,-62.0204
 L 250.205,-62.5011 L 250.439,-62.96 L 250.72,-63.3919 L 251.044,-63.7921 L 251.408,-64.1563 L 251.808,-64.4804
 L 252.15,-64.7024 L 252.15,-74 L 252.206,-74.5302 L 252.37,-75.0372 L 252.637,-75.4988 L 252.994,-75.895
 L 253.425,-76.2084 L 253.912,-76.4252 L 254.433,-76.536 L 254.967,-76.536 L 255.488,-76.4252 L 255.975,-76.2084
 L 256.406,-75.895 L 256.763,-75.4988 L 257.03,-75.0372 L 257.194,-74.5302 L 257.25,-74 L 257.25,-64.7024
 L 257.592,-64.4804 L 257.992,-64.1563 L 258.356,-63.7921 L 258.68,-63.3919 L 258.961,-62.96 L 259.195,-62.5011
 L 259.379,-62.0204 L 259.512,-61.5229 L 259.593,-61.0143 L 259.62,-60.5 L 259.593,-59.9857 L 259.512,-59.4771
 L 259.379,-58.9796 L 259.195,-58.4989 L 258.961,-58.04 L 258.68,-57.6081 L 258.356,-57.2079 L 257.992,-56.8437
 L 257.592,-56.5196 L 257.16,-56.2392 L 256.701,-56.0054 L 256.22,-55.8208 L 255.723,-55.6875 L 255.214,-55.607
 L 254.7,-55.58 z
M 377.786,-55.607 L 377.277,-55.6875 L 376.78,-55.8208 L 376.299,-56.0054 L 375.84,-56.2392 L 375.408,-56.5196
 L 375.008,-56.8437 L 374.644,-57.2079 L 374.32,-57.6081 L 374.039,-58.04 L 373.805,-58.4989 L 373.621,-58.9796
 L 373.488,-59.4771 L 373.407,-59.9857 L 373.38,-60.5 L 373.407,-61.0143 L 373.488,-61.5229 L 373.621,-62.0204
 L 373.805,-62.5011 L 374.039,-62.96 L 374.32,-63.3919 L 374.644,-63.7921 L 375.008,-64.1563 L 375.408,-64.4804
 L 375.75,-64.7024 L 375.75,-74 L 375.806,-74.5302 L 375.97,-75.0372 L 376.237,-75.4988 L 376.594,-75.895
 L 377.025,-76.2084 L 377.512,-76.4252 L 378.033,-76.536 L 378.567,-76.536 L 379.088,-76.4252 L 379.575,-76.2084
 L 380.006,-75.895 L 380.363,-75.4988 L 380.63,-75.0372 L 380.794,-74.5302 L 380.85,-74 L 380.85,-64.7024
 L 381.192,-64.4804 L 381.592,-64.1563 L 381.956,-63.7921 L 382.28,-63.3919 L 382.561,-62.96 L 382.795,-62.5011
 L 382.979,-62.0204 L 383.112,-61.5229 L 383.193,-61.0143 L 383.22,-60.5 L 383.193,-59.9857 L 383.112,-59.4771
 L 382.979,-58.9796 L 382.795,-58.4989 L 382.561,-58.04 L 382.28,-57.6081 L 381.956,-57.2079 L 381.592,-56.8437
 L 381.192,-56.5196 L 380.76,-56.2392 L 380.301,-56.0054 L 379.82,-55.8208 L 379.323,-55.6875 L 378.814,-55.607
 L 378.3,-55.58 z
M 501.386,-55.607 L 500.877,-55.6875 L 500.38,-55.8208 L 499.899,-56.0054 L 499.44,-56.2392 L 499.008,-56.5196
 L 498.608,-56.8437 L 498.244,-57.2079 L 497.92,-57.6081 L 497.639,-58.04 L 497.405,-58.4989 L 497.221,-58.9796
 L 497.088,-59.4771 L 497.007,-59.9857 L 496.98,-60.5 L 497.007,-61.0143 L 497.088,-61.5229 L 497.221,-62.0204
 L 497.405,-62.5011 L 497.639,-62.96 L 497.92,-63.3919 L 498.244,-63.7921 L 498.608,-64.1563 L 499.008,-64.4804
 L 499.35,-64.7024 L 499.35,-74 L 499.406,-74.5302 L 499.57,-75.0372 L 499.837,-75.4988 L 500.194,-75.895
 L 500.625,-76.2084 L 501.112,-76.4252 L 501.633,-76.536 L 502.167,-76.536 L 502.688,-76.4252 L 503.175,-76.2084
 L 503.606,-75.895 L 503.963,-75.4988 L 504.23,-75.0372 L 504.394,-74.5302 L 504.45,-74 L 504.45,-64.7024
 L 504.792,-64.4804 L 505.192,-64.1563 L 505.556,-63.7921 L 505.88,-63.3919 L 506.161,-62.96 L 506.395,-62.5011
 L 506.579,-62.0204 L 506.712,-61.5229 L 506.793,-61.0143 L 506.82,-60.5 L 506.793,-59.9857 L 506.712,-59.4771
 L 506.579,-58.9796 L 506.395,-58.4989 L 506.161,-58.04 L 505.88,-57.6081 L 505.556,-57.2079 L 505.192,-56.8437
 L 504.792,-56.5196 L 504.36,-56.2392 L 503.901,-56.0054 L 503.42,-55.8208 L 502.923,-55.6875 L 502.414,-55.607
 L 501.9,-55.58 z
M 624.986,-55.607 L 624.477,-55.6875 L 623.98,-55.8208 L 623.499,-56.0054 L 623.04,-56.2392 L 622.608,-56.5196
 L 622.208,-56.8437 L 621.844,-57.2079 L 621.52,-57.6081 L 621.239,-58.04 L 621.005,-58.4989 L 620.821,-58.9796
 L 620.688,-59.4771 L 620.607,-59.9857 L 620.58,-60.5 L 620.607,-61.0143 L 620.688,-61.5229 L 620.821,-62.0204
 L 621.005,-62.5011 L 621.239,-62.96 L 621.52,-63.3919 L 621.844,-63.7921 L 622.208,-64.1563 L 622.608,-64.4804
 L 622.95,-64.7024 L 622.95,-74 L 623.006,-74.5302 L 623.17,-75.0372 L 623.437,-75.4988 L 623.794,-75.895
 L 624.225,-76.2084 L 624.712,-76.4252 L 625.233,-76.536 L 625.767,-76.536 L 626.288,-76.4252 L 626.775,-76.2084
 L 627.206,-75.895 L 627.563,-75.4988 L 627.83,-75.0372 L 627.994,-74.5302 L 628.05,-74 L 628.05,-64.7024
 L 628.392,-64.4804 L 628.792,-64.1563 L 629.156,-63.7921 L 629.48,-63.3919 L 629.761,-62.96 L 629.995,-62.5011
 L 630.179,-62.0204 L 630.312,-61.5229 L 630.393,-61.0143 L 630.42,-60.5 L 630.393,-59.9857 L 630.312,-59.4771
 L 630.179,-58.9796 L 629.995,-58.4989 L 629.761,-58.04 L 629.48,-57.6081 L 629.156,-57.2079 L 628.792,-56.8437
 L 628.392,-56.5196 L 627.96,-56.2392 L 627.501,-56.0054 L 627.02,-55.8208 L 626.523,-55.6875 L 626.014,-55.607
 L 625.5,-55.58 z
M 315.343,-48.7233 L 314.572,-49.0475 L 304.67,-54.4954 L 304.247,-54.7639 L 303.625,-55.3235 L 303.134,-56
 L 302.794,-56.7639 L 302.62,-57.5819 L 302.62,-58.4181 L 302.794,-59.2361 L 303.134,-60 L 303.625,-60.6765
 L 304.247,-61.2361 L 304.971,-61.6542 L 305.766,-61.9126 L 306.598,-62 L 326.402,-62 L 326.902,-61.9686
 L 327.717,-61.7779 L 328.473,-61.4221 L 329.139,-60.9167 L 329.686,-60.2839 L 330.089,-59.5512 L 330.331,-58.7507
 L 330.401,-57.9175 L 330.297,-57.0878 L 330.022,-56.298 L 329.589,-55.5826 L 329.017,-54.9728 L 328.33,-54.4954
 L 318.428,-49.0475 L 317.814,-48.7742 L 317,-48.5836 L 316.164,-48.5663 z
M 240.543,-24.1575 L 239.772,-24.4818 L 185.218,-54.4954 L 184.795,-54.7639 L 184.173,-55.3235 L 183.682,-56
 L 183.342,-56.7639 L 183.168,-57.5819 L 183.168,-58.4181 L 183.342,-59.2361 L 183.682,-60 L 184.173,-60.6765
 L 184.795,-61.2361 L 185.519,-61.6542 L 186.314,-61.9126 L 187.146,-62 L 241.7,-62 L 242.936,-61.8042
 L 243.7,-61.4641 L 244.377,-60.9726 L 244.936,-60.3511 L 245.354,-59.627 L 245.613,-58.8316 L 245.7,-58
 L 245.7,-27.9865 L 245.629,-27.2357 L 245.387,-26.4353 L 244.984,-25.7026 L 244.437,-25.0697 L 243.771,-24.5644
 L 243.014,-24.2085 L 242.2,-24.0179 L 241.364,-24.0006 z
M 514.4,-24.0179 L 513.586,-24.2085 L 512.829,-24.5644 L 512.163,-25.0697 L 511.616,-25.7026 L 511.213,-26.4353
 L 510.971,-27.2357 L 510.9,-27.9865 L 510.9,-58 L 510.987,-58.8316 L 511.246,-59.627 L 511.664,-60.3511
 L 512.223,-60.9726 L 512.9,-61.4641 L 513.664,-61.8042 L 514.9,-62 L 569.454,-62 L 570.286,-61.9126
 L 571.081,-61.6542 L 571.805,-61.2361 L 572.427,-60.6765 L 572.918,-60 L 573.258,-59.2361 L 573.432,-58.4181
 L 573.432,-57.5819 L 573.258,-56.7639 L 572.918,-56 L 572.427,-55.3235 L 571.805,-54.7639 L 571.382,-54.4954
 L 516.828,-24.4818 L 516.057,-24.1575 L 515.236,-24.0006 z
M 116.943,-24.1575 L 116.172,-24.4818 L 61.6179,-54.4954 L 61.1949,-54.7639 L 60.5734,-55.3235 L 60.0819,-56
 L 59.7418,-56.7639 L 59.5679,-57.5819 L 59.5679,-58.4181 L 59.7418,-59.2361 L 60.0819,-60 L 60.5734,-60.6765
 L 61.1949,-61.2361 L 61.919,-61.6542 L 62.7143,-61.9126 L 63.546,-62 L 118.1,-62 L 119.336,-61.8042
 L 120.1,-61.4641 L 120.777,-60.9726 L 121.336,-60.3511 L 121.754,-59.627 L 122.013,-58.8316 L 122.1,-58
 L 122.1,-27.9865 L 122.029,-27.2357 L 121.787,-26.4353 L 121.384,-25.7026 L 120.837,-25.0697 L 120.171,-24.5644
 L 119.414,-24.2085 L 118.6,-24.0179 L 117.764,-24.0006 z
M 390.8,-24.0179 L 389.986,-24.2085 L 389.229,-24.5644 L 388.563,-25.0697 L 388.016,-25.7026 L 387.613,-26.4353
 L 387.371,-27.2357 L 387.3,-27.9865 L 387.3,-58 L 387.387,-58.8316 L 387.646,-59.627 L 388.064,-60.3511
 L 388.623,-60.9726 L 389.3,-61.4641 L 390.064,-61.8042 L 391.3,-62 L 445.854,-62 L 446.686,-61.9126
 L 447.481,-61.6542 L 448.205,-61.2361 L 448.827,-60.6765 L 449.318,-60 L 449.658,-59.2361 L 449.832,-58.4181
 L 449.832,-57.5819 L 449.658,-56.7639 L 449.318,-56 L 448.827,-55.3235 L 448.205,-54.7639 L 447.782,-54.4954
 L 393.228,-24.4818 L 392.457,-24.1575 L 391.636,-24.0006 z
M 267.282,-21.7262 L 266.464,-21.9001 L 265.7,-22.2402 L 265.023,-22.7317 L 264.464,-23.3531 L 264.046,-24.0773
 L 263.787,-24.8726 L 263.7,-25.7043 L 263.7,-54.2957 L 263.771,-55.0465 L 264.013,-55.8469 L 264.416,-56.5796
 L 264.963,-57.2124 L 265.629,-57.7178 L 266.386,-58.0736 L 267.2,-58.2643 L 268.036,-58.2816 L 268.857,-58.1246
 L 269.628,-57.8003 L 295.613,-43.5046 L 296.422,-42.9167 L 296.968,-42.2839 L 297.372,-41.5512 L 297.613,-40.7507
 L 297.684,-39.9175 L 297.579,-39.0878 L 297.304,-38.298 L 296.871,-37.5826 L 296.299,-36.9728 L 295.613,-36.4954
 L 269.628,-22.1997 L 268.936,-21.9001 L 268.118,-21.7262 z
M 364.143,-21.8754 L 363.372,-22.1996 L 337.387,-36.4954 L 336.578,-37.0833 L 336.032,-37.7161 L 335.628,-38.4488
 L 335.386,-39.2493 L 335.316,-40.0825 L 335.421,-40.9122 L 335.696,-41.702 L 336.129,-42.4174 L 336.701,-43.0272
 L 337.387,-43.5046 L 363.372,-57.8004 L 364.064,-58.1 L 364.882,-58.2738 L 365.718,-58.2738 L 366.536,-58.1
 L 367.3,-57.7598 L 367.977,-57.2683 L 368.536,-56.6469 L 368.954,-55.9227 L 369.213,-55.1274 L 369.3,-54.2957
 L 369.3,-25.7043 L 369.229,-24.9535 L 368.987,-24.1531 L 368.584,-23.4204 L 368.037,-22.7875 L 367.371,-22.2822
 L 366.614,-21.9263 L 365.8,-21.7357 L 364.964,-21.7184 z
M 144.1,-18 L 142.864,-18.1958 L 142.1,-18.5359 L 141.423,-19.0274 L 140.864,-19.6489 L 140.446,-20.373
 L 140.187,-21.1684 L 140.1,-22 L 140.1,-52.0135 L 140.171,-52.7643 L 140.413,-53.5647 L 140.816,-54.2974
 L 141.363,-54.9303 L 142.029,-55.4356 L 142.786,-55.7914 L 143.6,-55.9821 L 144.436,-55.9994 L 145.257,-55.8424
 L 146.028,-55.5181 L 200.582,-25.5046 L 201.005,-25.2361 L 201.627,-24.6765 L 202.118,-24 L 202.458,-23.2361
 L 202.632,-22.4181 L 202.632,-21.5819 L 202.458,-20.7639 L 202.118,-20 L 201.627,-19.3235 L 201.005,-18.7639
 L 200.281,-18.3458 L 199.486,-18.0874 L 198.654,-18 z
M 434.346,-18 L 433.514,-18.0874 L 432.719,-18.3458 L 431.995,-18.7639 L 431.373,-19.3235 L 430.882,-20
 L 430.542,-20.7639 L 430.368,-21.5819 L 430.368,-22.4181 L 430.542,-23.2361 L 430.882,-24 L 431.373,-24.6765
 L 431.995,-25.2361 L 432.418,-25.5046 L 486.972,-55.5181 L 487.743,-55.8424 L 488.564,-55.9994 L 489.4,-55.9821
 L 490.214,-55.7914 L 490.971,-55.4356 L 491.637,-54.9303 L 492.184,-54.2974 L 492.587,-53.5647 L 492.829,-52.7643
 L 492.9,-52.0135 L 492.9,-22 L 492.813,-21.1684 L 492.554,-20.373 L 492.136,-19.6489 L 491.577,-19.0274
 L 490.9,-18.5359 L 490.136,-18.1958 L 488.9,-18 z
M 22,-18 L 20.7639,-18.1958 L 20,-18.5359 L 19.3235,-19.0274 L 18.7639,-19.6489 L 18.3458,-20.373
 L 18.0874,-21.1684 L 18,-22 L 18,-51.1883 L 18.0711,-51.939 L 18.313,-52.7395 L 18.7161,-53.4722
 L 19.2627,-54.105 L 19.929,-54.6104 L 20.6857,-54.9662 L 21.4999,-55.1569 L 22.336,-55.1741 L 23.1573,-55.0172
 L 23.9281,-54.6929 L 76.9821,-25.5046 L 77.4051,-25.2361 L 78.0266,-24.6765 L 78.5181,-24 L 78.8582,-23.2361
 L 79.0321,-22.4181 L 79.0321,-21.5819 L 78.8582,-20.7639 L 78.5181,-20 L 78.0266,-19.3235 L 77.4051,-18.7639
 L 76.6809,-18.3458 L 75.8856,-18.0874 L 75.054,-18 z
M 557.946,-18 L 557.114,-18.0874 L 556.319,-18.3458 L 555.595,-18.7639 L 554.973,-19.3235 L 554.482,-20
 L 554.142,-20.7639 L 553.968,-21.5819 L 553.968,-22.4181 L 554.142,-23.2361 L 554.482,-24 L 554.973,-24.6765
 L 555.595,-25.2361 L 556.018,-25.5046 L 609.072,-54.6929 L 609.843,-55.0172 L 610.664,-55.1741 L 611.5,-55.1569
 L 612.314,-54.9662 L 613.071,-54.6104 L 613.737,-54.105 L 614.284,-53.4722 L 614.687,-52.7395 L 614.929,-51.939
 L 615,-51.1883 L 615,-22 L 614.913,-21.1684 L 614.654,-20.373 L 614.236,-19.6489 L 613.677,-19.0274
 L 613,-18.5359 L 612.236,-18.1958 L 611,-18 z
M 306.598,-18 L 306.098,-18.0314 L 305.283,-18.2221 L 304.527,-18.5779 L 303.86,-19.0833 L 303.314,-19.7161
 L 302.911,-20.4488 L 302.669,-21.2493 L 302.599,-22.0825 L 302.703,-22.9122 L 302.978,-23.702 L 303.411,-24.4174
 L 303.983,-25.0272 L 304.67,-25.5046 L 314.572,-30.9525 L 315.186,-31.2258 L 316,-31.4164 L 316.836,-31.4337
 L 317.657,-31.2767 L 318.428,-30.9525 L 328.33,-25.5046 L 328.753,-25.2361 L 329.375,-24.6765 L 329.866,-24
 L 330.206,-23.2361 L 330.38,-22.4181 L 330.38,-21.5819 L 330.206,-20.7639 L 329.866,-20 L 329.375,-19.3235
 L 328.753,-18.7639 L 328.029,-18.3458 L 327.234,-18.0874 L 326.402,-18 z
" stroke="black" fill="lightgray" stroke-width="0.5"/>
</svg>
