<?xml version="1.0" standalone="no"?>
<!DOCTYPE svg PUBLIC "-//W3C//DTD SVG 1.1//EN" "http://www.w3.org/Graphics/SVG/1.1/DTD/svg11.dtd">
<svg width="696mm" height="80mm" viewBox="0 -80 696 80" xmlns="http://www.w3.org/2000/svg" version="1.1">
<title>OpenSCAD Model</title>
<path d="
M 696,-80 L 0,-80 L 0,-0 L 4.95,-0 L 4.95,-6 L 5.00572,-6.53017
 L 5.17046,-7.03717 L 5.437,-7.49884 L 5.79372,-7.895 L 6.22499,-8.20836 L 6.71201,-8.42519 L 7.23344,-8.53603
 L 7.76654,-8.53603 L 8.28798,-8.42519 L 8.77499,-8.20836 L 9.20627,-7.895 L 9.56299,-7.49884 L 9.82953,-7.03717
 L 9.99426,-6.53017 L 10.05,-6 L 10.05,-0 L 141.15,-0 L 141.15,-6 L 141.206,-6.53017
 L 141.37,-7.03717 L 141.637,-7.49884 L 141.994,-7.895 L 142.425,-8.20836 L 142.912,-8.42519 L 143.433,-8.53603
 L 143.967,-8.53603 L 144.488,-8.42519 L 144.975,-8.20836 L 145.406,-7.895 L 145.763,-7.49884 L 146.03,-7.03717
 L 146.194,-6.53017 L 146.25,-6 L 146.25,-0 L 277.35,-0 L 277.35,-6 L 277.406,-6.53017
 L 277.57,-7.03717 L 277.837,-7.49884 L 278.194,-7.895 L 278.625,-8.20836 L 279.112,-8.42519 L 279.633,-8.53603
 L 280.167,-8.53603 L 280.688,-8.42519 L 281.175,-8.20836 L 281.606,-7.895 L 281.963,-7.49884 L 282.23,-7.03717
 L 282.394,-6.53017 L 282.45,-6 L 282.45,-0 L 413.55,-0 L 413.55,-6 L 413.606,-6.53017
 L 413.77,-7.03717 L 414.037,-7.49884 L 414.394,-7.895 L 414.825,-8.20836 L 415.312,-8.42519 L 415.833,-8.53603
 L 416.367,-8.53603 L 416.888,-8.42519 L 417.375,-8.20836 L 417.806,-7.895 L 418.163,-7.49884 L 418.43,-7.03717
 L 418.594,-6.53017 L 418.65,-6 L 418.65,-0 L 549.75,-0 L 549.75,-6 L 549.806,-6.53017
 L 549.97,-7.03717 L 550.237,-7.49884 L 550.594,-7.895 L 551.025,-8.20836 L 551.512,-8.42519 L 552.033,-8.53603
 L 552.567,-8.53603 L 553.088,-8.42519 L 553.575,-8.20836 L 554.006,-7.895 L 554.363,-7.49884 L 554.63,-7.03717
 L 554.794,-6.53017 L 554.85,-6 L 554.85,-0 L 685.95,-0 L 685.95,-6 L 686.006,-6.53017
 L 686.17,-7.03717 L 686.437,-7.49884 L 686.794,-7.895 L 687.225,-8.20836 L 687.712,-8.42519 L 688.233,-8.53603
 L 688.767,-8.53603 L 689.288,-8.42519 L 689.775,-8.20836 L 690.206,-7.895 L 690.563,-7.49884 L 690.83,-7.03717
 L 690.994,-6.53017 L 691.05,-6 L 691.05,-0 L 696,-0 z
M 6.98573,-55.607 L 6.47708,-55.6875 L 5.97964,-55.8208 L 5.49887,-56.0054 L 5.04001,-56.2392 L 4.60811,-56.5196
 L 4.20789,-56.8437 L 3.84373,-57.2079 L 3.51964,-57.6081 L 3.23917,-58.04 L 3.00537,-58.4989 L 2.82082,-58.9796
 L 2.68752,-59.4771 L 2.60696,-59.9857 L 2.58,-60.5 L 2.60696,-61.0143 L 2.68752,-61.5229 L 2.82082,-62.0204
 L 3.00537,-62.5011 L 3.23917,-62.96 L 3.51964,-63.3919 L 3.84373,-63.7921 L 4.20789,-64.1563 L 4.60811,-64.4804
 L 4.95001,-64.7024 L 4.95001,-74 L 5.00574,-74.5302 L 5.17047,-75.0372 L 5.43701,-75.4988 L 5.79373,-75.895
 L 6.22501,-76.2084 L 6.71202,-76.4252 L 7.23346,-76.536 L 7.76654,-76.536 L 8.28798,-76.4252 L 8.77499,-76.2084
 L 9.20627,-75.895 L 9.56299,-75.4988 L 9.82953,-75.0372 L 9.99426,-74.5302 L 10.05,-74 L 10.05,-64.7024
 L 10.3919,-64.4804 L 10.7921,-64.1563 L 11.1563,-63.7921 L 11.4804,-63.3919 L 11.7608,-62.96 L 11.9946,-62.5011
 L 12.1792,-62.0204 L 12.3125,-61.5229 L 12.393,-61.0143 L 12.42,-60.5 L 12.393,-59.9857 L 12.3125,-59.4771
 L 12.1792,-58.9796 L 11.9946,-58.4989 L 11.7608,-58.04 L 11.4804,-57.6081 L 11.1563,-57.2079 L 10.7921,-56.8437
 L 10.3919,-56.5196 L 9.95999,-56.2392 L 9.50113,-56.0054 L 9.02036,-55.8208 L 8.52292,-55.6875 L 8.01427,-55.607
 L 7.5,-55.58 z
M 143.186,-55.607 L 142.677,-55.6875 L 142.18,-55.8208 L 141.699,-56.0054 L 141.24,-56.2392 L 140.808,-56.5196
 L 140.408,-56.8437 L 140.044,-57.2079 L 139.72,-57.6081 L 139.439,-58.04 L 139.205,-58.4989 L 139.021,-58.9796
 L 138.888,-59.4771 L 138.807,-59.9857 L 138.78,-60.5 L 138.807,-61.0143 L 138.888,-61.5229 L 139.021,-62.0204
 L 139.205,-62.5011 L 139.439,-62.96 L 139.72,-63.3919 L 140.044,-63.7921 L 140.408,-64.1563 L 140.808,-64.4804
 L 141.15,-64.7024 L 141.15,-74 L 141.206,-74.5302 L 141.37,-75.0372 L 141.637,-75.4988 L 141.994,-75.895
 L 142.425,-76.2084 L 142.912,-76.4252 L 143.433,-76.536 L 143.967,-76.536 L 144.488,-76.4252 L 144.975,-76.2084
 L 145.406,-75.895 L 145.763,-75.4988 L 146.03,-75.0372 L 146.194,-74.5302 L 146.25,-74 L 146.25,-64.7024
 L 146.592,-64.4804 L 146.992,-64.1563 L 147.356,-63.7921 L 147.68,-63.3919 L 147.961,-62.96 L 148.195,-62.5011
 L 148.379,-62.0204 L 148.512,-61.5229 L 148.593,-61.0143 L 148.62,-60.5 L 148.593,-59.9857 L 148.512,-59.4771
 L 148.379,-58.9796 L 148.195,-58.4989 L 147.961,-58.04 L 147.68,-57.6081 L 147.356,-57.2079 L 146.992,-56.8437
 L 146.592,-56.5196 L 146.16,-56.2392 L 145.701,-56.0054 L 145.22,-55.8208 L 144.723,-55.6875 L 144.214,-55.607
 L 143.7,-55.58 z
M 279.386,-55.607 L 278.877,-55.6875 L 278.38,-55.8208 L 277.899,-56.0054 L 277.44,-56.2392 L 277.008,-56.5196
 L 276.608,-56.8437 L 276.244,-57.2079 L 275.92,-57.6081 L 275.639,-58.04 L 275.405,-58.4989 L 275.221,-58.9796
 L 275.088,-59.4771 L 275.007,-59.9857 L 274.98,-60.5 L 275.007,-61.0143 L 275.088,-61.5229 L 275.221,-62.0204
 L 275.405,-62.5011 L 275.639,-62.96 L 275.92,-63.3919 L 276.244,-63.7921 L 276.608,-64.1563 L 277.008,-64.4804
 L 277.35,-64.7024 L 277.35,-74 L 277.406,-74.5302 L 277.57,-75.0372 L 277.837,-75.4988 L 278.194,-75.895
 L 278.625,-76.2084 L 279.112,-76.4252 L 279.633,-76.536 L 280.167,-76.536 L 280.688,-76.4252 L 281.175,-76.2084
 L 281.606,-75.895 L 281.963,-75.4988 L 282.23,-75.0372 L 282.394,-74.5302 L 282.45,-74 L 282.45,-64.7024
 L 282.792,-64.4804 L 283.192,-64.1563 L 283.556,-63.7921 L 283.88,-63.3919 L 284.161,-62.96 L 284.395,-62.5011
 L 284.579,-62.0204 L 284.712,-61.5229 L 284.793,-61.0143 L 284.82,-60.5 L 284.793,-59.9857 L 284.712,-59.4771
 L 284.579,-58.9796 L 284.395,-58.4989 L 284.161,-58.04 L 283.88,-57.6081 L 283.556,-57.2079 L 283.192,-56.8437
 L 282.792,-56.5196 L 282.36,-56.2392 L 281.901,-56.0054 L 281.42,-55.8208 L 280.923,-55.6875 L 280.414,-55.607
 L 279.9,-55.58 z
M 415.586,-55.607 L 415.077,-55.6875 L 414.58,-55.8208 L 414.099,-56.0054 L 413.64,-56.2392 L 413.208,-56.5196
 L 412.808,-56.8437 L 412.444,-57.2079 L 412.12,-57.6081 L 411.839,-58.04 L 411.605,-58.4989 L 411.421,-58.9796
 L 411.288,-59.4771 L 411.207,-59.9857 L 411.18,-60.5 L 411.207,-61.0143 L 411.288,-61.5229 L 411.421,-62.0204
 L 411.605,-62.5011 L 411.839,-62.96 L 412.12,-63.3919 L 412.444,-63.7921 L 412.808,-64.1563 L 413.208,-64.4804
 L 413.55,-64.7024 L 413.55,-74 L 413.606,-74.5302 L 413.77,-75.0372 L 414.037,-75.4988 L 414.394,-75.895
 L 414.825,-76.2084 L 415.312,-76.4252 L 415.833,-76.536 L 416.367,-76.536 L 416.888,-76.4252 L 417.375,-76.2084
 L 417.806,-75.895 L 418.163,-75.4988 L 418.43,-75.0372 L 418.594,-74.5302 L 418.65,-74 L 418.65,-64.7024
 L 418.992,-64.4804 L 419.392,-64.1563 L 419.756,-63.7921 L 420.08,-63.3919 L 420.361,-62.96 L 420.595,-62.5011
 L 420.779,-62.0204 L 420.912,-61.5229 L 420.993,-61.0143 L 421.02,-60.5 L 420.993,-59.9857 L 420.912,-59.4771
 L 420.779,-58.9796 L 420.595,-58.4989 L 420.361,-58.04 L 420.08,-57.6081 L 419.756,-57.2079 L 419.392,-56.8437
 L 418.992,-56.5196 L 418.56,-56.2392 L 418.101,-56.0054 L 417.62,-55.8208 L 417.123,-55.6875 L 416.614,-55.607
 L 416.1,-55.58 z
M 551.786,-55.607 L 551.277,-55.6875 L 550.78,-55.8208 L 550.299,-56.0054 L 549.84,-56.2392 L 549.408,-56.5196
 L 549.008,-56.8437 L 548.644,-57.2079 L 548.32,-57.6081 L 548.039,-58.04 L 547.805,-58.4989 L 547.621,-58.9796
 L 547.488,-59.4771 L 547.407,-59.9857 L 547.38,-60.5 L 547.407,-61.0143 L 547.488,-61.5229 L 547.621,-62.0204
 L 547.805,-62.5011 L 548.039,-62.96 L 548.32,-63.3919 L 548.644,-63.7921 L 549.008,-64.1563 L 549.408,-64.4804
 L 549.75,-64.7024 L 549.75,-74 L 549.806,-74.5302 L 549.97,-75.0372 L 550.237,-75.4988 L 550.594,-75.895
 L 551.025,-76.2084 L 551.512,-76.4252 L 552.033,-76.536 L 552.567,-76.536 L 553.088,-76.4252 L 553.575,-76.2084
 L 554.006,-75.895 L 554.363,-75.4988 L 554.63,-75.0372 L 554.794,-74.5302 L 554.85,-74 L 554.85,-64.7024
 L 555.192,-64.4804 L 555.592,-64.1563 L 555.956,-63.7921 L 556.28,-63.3919 L 556.561,-62.96 L 556.795,-62.5011
 L 556.979,-62.0204 L 557.112,-61.5229 L 557.193,-61.0143 L 557.22,-60.5 L 557.193,-59.9857 L 557.112,-59.4771
 L 556.979,-58.9796 L 556.795,-58.4989 L 556.561,-58.04 L 556.28,-57.6081 L 555.956,-57.2079 L 555.592,-56.8437
 L 555.192,-56.5196 L 554.76,-56.2392 L 554.301,-56.0054 L 553.82,-55.8208 L 553.323,-55.6875 L 552.814,-55.607
 L 552.3,-55.58 z
M 687.986,-55.607 L 687.477,-55.6875 L 686.98,-55.8208 L 686.499,-56.0054 L 686.04,-56.2392 L 685.608,-56.5196
 L 685.208,-56.8437 L 684.844,-57.2079 L 684.52,-57.6081 L 684.239,-58.04 L 684.005,-58.4989 L 683.821,-58.9796
 L 683.688,-59.4771 L 683.607,-59.9857 L 683.58,-60.5 L 683.607,-61.0143 L 683.688,-61.5229 L 683.821,-62.0204
 L 684.005,-62.5011 L 684.239,-62.96 L 684.52,-63.3919 L 684.844,-63.7921 L 685.208,-64.1563 L 685.608,-64.4804
 L 685.95,-64.7024 L 685.95,-74 L 686.006,-74.5302 L 686.17,-75.0372 L 686.437,-75.4988 L 686.794,-75.895
 L 687.225,-76.2084 L 687.712,-76.4252 L 688.233,-76.536 L 688.767,-76.536 L 689.288,-76.4252 L 689.775,-76.2084
 L 690.206,-75.895 L 690.563,-75.4988 L 690.83,-75.0372 L 690.994,-74.5302 L 691.05,-74 L 691.05,-64.7024
 L 691.392,-64.4804 L 691.792,-64.1563 L 692.156,-63.7921 L 692.48,-63.3919 L 692.761,-62.96 L 692.995,-62.5011
 L 693.179,-62.0204 L 693.312,-61.5229 L 693.393,-61.0143 L 693.42,-60.5 L 693.393,-59.9857 L 693.312,-59.4771
 L 693.179,-58.9796 L 692.995,-58.4989 L 692.761,-58.04 L 692.48,-57.6081 L 692.156,-57.2079 L 691.792,-56.8437
 L 691.392,-56.5196 L 690.96,-56.2392 L 690.501,-56.0054 L 690.02,-55.8208 L 689.523,-55.6875 L 689.014,-55.607
 L 688.5,-55.58 z
M 346.996,-48.4107 L 346.213,-48.704 L 334.762,-54.4212 L 334.198,-54.7639 L 333.576,-55.3235 L 333.085,-56
 L 332.744,-56.7639 L 332.571,-57.5819 L 332.571,-58.4181 L 332.744,-59.2361 L 333.085,-60 L 333.576,-60.6765
 L 334.198,-61.2361 L 334.922,-61.6542 L 335.717,-61.9126 L 336.549,-62 L 359.451,-62 L 360.109,-61.9455
 L 360.915,-61.7225 L 361.657,-61.3367 L 362.303,-60.8052 L 362.824,-60.151 L 363.197,-59.4029 L 363.407,-58.5934
 L 363.444,-57.758 L 363.306,-56.9332 L 363,-56.155 L 362.539,-55.4574 L 361.943,-54.8709 L 361.238,-54.4212
 L 349.787,-48.704 L 348.658,-48.3372 L 347.823,-48.2867 z
M 265.896,-23.1344 L 265.113,-23.4277 L 203.035,-54.4212 L 202.471,-54.7639 L 201.849,-55.3235 L 201.358,-56
 L 201.017,-56.7639 L 200.844,-57.5819 L 200.844,-58.4181 L 201.017,-59.2361 L 201.358,-60 L 201.849,-60.6765
 L 202.471,-61.2361 L 203.195,-61.6542 L 203.99,-61.9126 L 204.822,-62 L 266.9,-62 L 268.136,-61.8042
 L 268.9,-61.4641 L 269.577,-60.9726 L 270.136,-60.3511 L 270.554,-59.627 L 270.813,-58.8316 L 270.9,-58
 L 270.9,-27.0064 L 270.856,-26.413 L 270.646,-25.6036 L 270.272,-24.8554 L 269.751,-24.2012 L 269.106,-23.6697
 L 268.364,-23.284 L 267.558,-23.0609 L 266.723,-23.0103 z
M 564.642,-23.0609 L 563.836,-23.284 L 563.094,-23.6697 L 562.449,-24.2012 L 561.928,-24.8554 L 561.554,-25.6036
 L 561.344,-26.413 L 561.3,-27.0064 L 561.3,-58 L 561.387,-58.8316 L 561.646,-59.627 L 562.064,-60.3511
 L 562.623,-60.9726 L 563.3,-61.4641 L 564.064,-61.8042 L 565.3,-62 L 627.378,-62 L 628.21,-61.9126
 L 629.005,-61.6542 L 629.729,-61.2361 L 630.351,-60.6765 L 630.842,-60 L 631.183,-59.2361 L 631.356,-58.4181
 L 631.356,-57.5819 L 631.183,-56.7639 L 630.842,-56 L 630.351,-55.3235 L 629.729,-54.7639 L 629.165,-54.4212
 L 567.087,-23.4277 L 566.304,-23.1344 L 565.477,-23.0103 z
M 129.696,-23.1344 L 128.913,-23.4277 L 66.835,-54.4212 L 66.2706,-54.7639 L 65.6491,-55.3235 L 65.1576,-56
 L 64.8175,-56.7639 L 64.6436,-57.5819 L 64.6436,-58.4181 L 64.8175,-59.2361 L 65.1576,-60 L 65.6491,-60.6765
 L 66.2706,-61.2361 L 66.9948,-61.6542 L 67.7901,-61.9126 L 68.6217,-62 L 130.7,-62 L 131.936,-61.8042
 L 132.7,-61.4641 L 133.377,-60.9726 L 133.936,-60.3511 L 134.354,-59.627 L 134.613,-58.8316 L 134.7,-58
 L 134.7,-27.0064 L 134.656,-26.413 L 134.446,-25.6036 L 134.072,-24.8554 L 133.551,-24.2012 L 132.906,-23.6697
 L 132.164,-23.284 L 131.358,-23.0609 L 130.523,-23.0103 z
M 428.442,-23.0609 L 427.636,-23.284 L 426.894,-23.6697 L 426.249,-24.2012 L 425.728,-24.8554 L 425.354,-25.6036
 L 425.144,-26.413 L 425.1,-27.0064 L 425.1,-58 L 425.187,-58.8316 L 425.446,-59.627 L 425.864,-60.3511
 L 426.423,-60.9726 L 427.1,-61.4641 L 427.864,-61.8042 L 429.1,-62 L 491.178,-62 L 492.01,-61.9126
 L 492.805,-61.6542 L 493.529,-61.2361 L 494.151,-60.6765 L 494.642,-60 L 494.982,-59.2361 L 495.156,-58.4181
 L 495.156,-57.5819 L 494.982,-56.7639 L 494.642,-56 L 494.151,-55.3235 L 493.529,-54.7639 L 492.965,-54.4212
 L 430.887,-23.4277 L 430.104,-23.1344 L 429.277,-23.0103 z
M 292.482,-20.7951 L 291.664,-20.969 L 290.9,-21.3091 L 290.223,-21.8006 L 289.664,-22.4221 L 289.246,-23.1463
 L 288.987,-23.9416 L 288.9,-24.7732 L 288.9,-55.2268 L 288.944,-55.8202 L 289.154,-56.6297 L 289.528,-57.3778
 L 290.049,-58.032 L 290.694,-58.5635 L 291.436,-58.9492 L 292.242,-59.1723 L 293.077,-59.2229 L 293.904,-59.0988
 L 294.687,-58.8055 L 325.185,-43.5788 L 325.604,-43.3367 L 326.25,-42.8052 L 326.771,-42.151 L 327.144,-41.4029
 L 327.354,-40.5934 L 327.391,-39.758 L 327.253,-38.9332 L 326.947,-38.155 L 326.486,-37.4574 L 325.89,-36.8709
 L 325.185,-36.4212 L 294.687,-21.1945 L 294.136,-20.969 L 293.318,-20.7951 z
M 402.096,-20.9012 L 401.313,-21.1945 L 370.815,-36.4212 L 370.396,-36.6633 L 369.75,-37.1948 L 369.229,-37.849
 L 368.856,-38.5971 L 368.646,-39.4066 L 368.609,-40.242 L 368.747,-41.0668 L 369.053,-41.845 L 369.514,-42.5426
 L 370.11,-43.1291 L 370.815,-43.5788 L 401.313,-58.8055 L 401.864,-59.031 L 402.682,-59.2049 L 403.518,-59.2049
 L 404.336,-59.031 L 405.1,-58.6909 L 405.777,-58.1994 L 406.336,-57.5779 L 406.754,-56.8537 L 407.013,-56.0584
 L 407.1,-55.2268 L 407.1,-24.7732 L 407.056,-24.1798 L 406.846,-23.3703 L 406.472,-22.6222 L 405.951,-21.968
 L 405.306,-21.4365 L 404.564,-21.0508 L 403.758,-20.8277 L 402.923,-20.7771 z
M 156.7,-18 L 155.464,-18.1958 L 154.7,-18.5359 L 154.023,-19.0274 L 153.464,-19.6489 L 153.046,-20.373
 L 152.787,-21.1684 L 152.7,-22 L 152.7,-52.9935 L 152.744,-53.5869 L 152.954,-54.3964 L 153.328,-55.1446
 L 153.849,-55.7988 L 154.494,-56.3303 L 155.236,-56.716 L 156.042,-56.9391 L 156.877,-56.9896 L 157.704,-56.8656
 L 158.487,-56.5723 L 220.565,-25.5788 L 221.129,-25.2361 L 221.751,-24.6765 L 222.242,-24 L 222.582,-23.2361
 L 222.756,-22.4181 L 222.756,-21.5819 L 222.582,-20.7639 L 222.242,-20 L 221.751,-19.3235 L 221.129,-18.7639
 L 220.405,-18.3458 L 219.61,-18.0874 L 218.778,-18 z
M 477.222,-18 L 476.39,-18.0874 L 475.595,-18.3458 L 474.871,-18.7639 L 474.249,-19.3235 L 473.758,-20
 L 473.418,-20.7639 L 473.244,-21.5819 L 473.244,-22.4181 L 473.418,-23.2361 L 473.758,-24 L 474.249,-24.6765
 L 474.871,-25.2361 L 475.435,-25.5788 L 537.513,-56.5723 L 538.296,-56.8656 L 539.123,-56.9896 L 539.958,-56.9391
 L 540.764,-56.716 L 541.506,-56.3303 L 542.151,-55.7988 L 542.672,-55.1446 L 543.046,-54.3964 L 543.256,-53.5869
 L 543.3,-52.9935 L 543.3,-22 L 543.213,-21.1684 L 542.954,-20.373 L 542.536,-19.6489 L 541.977,-19.0274
 L 541.3,-18.5359 L 540.536,-18.1958 L 539.3,-18 z
M 22,-18 L 20.7639,-18.1958 L 20,-18.5359 L 19.3235,-19.0274 L 18.7639,-19.6489 L 18.3458,-20.373
 L 18.0874,-21.1684 L 18,-22 L 18,-52.2446 L 18.0443,-52.838 L 18.2541,-53.6475 L 18.6276,-54.3957
 L 19.1485,-55.0499 L 19.7941,-55.5814 L 20.536,-55.9671 L 21.342,-56.1902 L 22.1767,-56.2407 L 23.0036,-56.1167
 L 23.7868,-55.8234 L 84.365,-25.5788 L 84.9294,-25.2361 L 85.5508,-24.6765 L 86.0423,-24 L 86.3825,-23.2361
 L 86.5563,-22.4181 L 86.5563,-21.5819 L 86.3825,-20.7639 L 86.0423,-20 L 85.5508,-19.3235 L 84.9294,-18.7639
 L 84.2052,-18.3458 L 83.4099,-18.0874 L 82.5782,-18 z
M 613.422,-18 L 612.59,-18.0874 L 611.795,-18.3458 L 611.071,-18.7639 L 610.449,-19.3235 L 609.958,-20
 L 609.618,-20.7639 L 609.444,-21.5819 L 609.444,-22.4181 L 609.618,-23.2361 L 609.958,-24 L 610.449,-24.6765
 L 611.071,-25.2361 L 611.635,-25.5788 L 672.213,-55.8234 L 672.996,-56.1167 L 673.823,-56.2407 L 674.658,-56.1902
 L 675.464,-55.9671 L 676.206,-55.5814 L 676.851,-55.0499 L 677.372,-54.3957 L 677.746,-53.6475 L 677.956,-52.838
 L 678,-52.2446 L 678,-22 L 677.913,-21.1684 L 677.654,-20.373 L 677.236,-19.6489 L 676.677,-19.0274
 L 676,-18.5359 L 675.236,-18.1958 L 674,-18 z
M 336.549,-18 L 335.891,-18.0545 L 335.085,-18.2775 L 334.343,-18.6633 L 333.697,-19.1948 L 333.176,-19.849
 L 332.803,-20.5971 L 332.593,-21.4066 L 332.556,-22.242 L 332.694,-23.0668 L 333,-23.845 L 333.461,-24.5426
 L 334.057,-25.1291 L 334.762,-25.5788 L 346.213,-31.296 L 347.342,-31.6628 L 348.177,-31.7133 L 349.004,-31.5893
 L 349.787,-31.296 L 361.238,-25.5788 L 361.802,-25.2361 L 362.424,-24.6765 L 362.915,-24 L 363.256,-23.2361
 L 363.429,-22.4181 L 363.429,-21.5819 L 363.256,-20.7639 L 362.915,-20 L 362.424,-19.3235 L 361.802,-18.7639
 L 361.078,-18.3458 L 360.283,-18.0874 L 359.451,-18 z
" stroke="black" fill="lightgray" stroke-width="0.5"/>
</svg>
