<?xml version="1.0" standalone="no"?>
<!DOCTYPE svg PUBLIC "-//W3C//DTD SVG 1.1//EN" "http://www.w3.org/Graphics/SVG/1.1/DTD/svg11.dtd">
<svg width="769mm" height="80mm" viewBox="0 -80 769 80" xmlns="http://www.w3.org/2000/svg" version="1.1">
<title>OpenSCAD Model</title>
<path d="
M 769,-80 L 0,-80 L 0,-0 L 4.95,-0 L 4.95,-6 L 5.00572,-6.53017
 L 5.17046,-7.03717 L 5.437,-7.49884 L 5.79372,-7.895 L 6.22499,-8.20836 L 6.71201,-8.42519 L 7.23344,-8.53603
 L 7.76654,-8.53603 L 8.28798,-8.42519 L 8.77499,-8.20836 L 9.20627,-7.895 L 9.56299,-7.49884 L 9.82953,-7.03717
 L 9.99426,-6.53017 L 10.05,-6 L 10.05,-0 L 155.75,-0 L 155.75,-6 L 155.806,-6.53017
 L 155.97,-7.03717 L 156.237,-7.49884 L 156.594,-7.895 L 157.025,-8.20836 L 157.512,-8.42519 L 158.033,-8.53603
 L 158.567,-8.53603 L 159.088,-8.42519 L 159.575,-8.20836 L 160.006,-7.895 L 160.363,-7.49884 L 160.63,-7.03717
 L 160.794,-6.53017 L 160.85,-6 L 160.85,-0 L 306.55,-0 L 306.55,-6 L 306.606,-6.53017
 L 306.77,-7.03717 L 307.037,-7.49884 L 307.394,-7.895 L 307.825,-8.20836 L 308.312,-8.42519 L 308.833,-8.53603
 L 309.367,-8.53603 L 309.888,-8.42519 L 310.375,-8.20836 L 310.806,-7.895 L 311.163,-7.49884 L 311.43,-7.03717
 L 311.594,-6.53017 L 311.65,-6 L 311.65,-0 L 457.35,-0 L 457.35,-6 L 457.406,-6.53017
 L 457.57,-7.03717 L 457.837,-7.49884 L 458.194,-7.895 L 458.625,-8.20836 L 459.112,-8.42519 L 459.633,-8.53603
 L 460.167,-8.53603 L 460.688,-8.42519 L 461.175,-8.20836 L 461.606,-7.895 L 461.963,-7.49884 L 462.23,-7.03717
 L 462.394,-6.53017 L 462.45,-6 L 462.45,-0 L 608.15,-0 L 608.15,-6 L 608.206,-6.53017
 L 608.37,-7.03717 L 608.637,-7.49884 L 608.994,-7.895 L 609.425,-8.20836 L 609.912,-8.42519 L 610.433,-8.53603
 L 610.967,-8.53603 L 611.488,-8.42519 L 611.975,-8.20836 L 612.406,-7.895 L 612.763,-7.49884 L 613.03,-7.03717
 L 613.194,-6.53017 L 613.25,-6 L 613.25,-0 L 758.95,-0 L 758.95,-6 L 759.006,-6.53017
 L 759.17,-7.03717 L 759.437,-7.49884 L 759.794,-7.895 L 760.225,-8.20836 L 760.712,-8.42519 L 761.233,-8.53603
 L 761.767,-8.53603 L 762.288,-8.42519 L 762.775,-8.20836 L 763.206,-7.895 L 763.563,-7.49884 L 763.83,-7.03717
 L 763.994,-6.53017 L 764.05,-6 L 764.05,-0 L 769,-0 z
M 6.98573,-55.607 L 6.47708,-55.6875 L 5.97964,-55.8208 L 5.49887,-56.0054 L 5.04001,-56.2392 L 4.60811,-56.5196
 L 4.20789,-56.8437 L 3.84373,-57.2079 L 3.51964,-57.6081 L 3.23917,-58.04 L 3.00537,-58.4989 L 2.82082,-58.9796
 L 2.68752,-59.4771 L 2.60696,-59.9857 L 2.58,-60.5 L 2.60696,-61.0143 L 2.68752,-61.5229 L 2.82082,-62.0204
 L 3.00537,-62.5011 L 3.23917,-62.96 L 3.51964,-63.3919 L 3.84373,-63.7921 L 4.20789,-64.1563 L 4.60811,-64.4804
 L 4.95001,-64.7024 L 4.95001,-74 L 5.00574,-74.5302 L 5.17047,-75.0372 L 5.43701,-75.4988 L 5.79373,-75.895
 L 6.22501,-76.2084 L 6.71202,-76.4252 L 7.23346,-76.536 L 7.76654,-76.536 L 8.28798,-76.4252 L 8.77499,-76.2084
 L 9.20627,-75.895 L 9.56299,-75.4988 L 9.82953,-75.0372 L 9.99426,-74.5302 L 10.05,-74 L 10.05,-64.7024
 L 10.3919,-64.4804 L 10.7921,-64.1563 L 11.1563,-63.7921 L 11.4804,-63.3919 L 11.7608,-62.96 L 11.9946,-62.5011
 L 12.1792,-62.0204 L 12.3125,-61.5229 L 12.393,-61.0143 L 12.42,-60.5 L 12.393,-59.9857 L 12.3125,-59.4771
 L 12.1792,-58.9796 L 11.9946,-58.4989 L 11.7608,-58.04 L 11.4804,-57.6081 L 11.1563,-57.2079 L 10.7921,-56.8437
 L 10.3919,-56.5196 L 9.95999,-56.2392 L 9.50113,-56.0054 L 9.02036,-55.8208 L 8.52292,-55.6875 L 8.01427,-55.607
 L 7.5,-55.58 z
M 157.786,-55.607 L 157.277,-55.6875 L 156.78,-55.8208 L 156.299,-56.0054 L 155.84,-56.2392 L 155.408,-56.5196
 L 155.008,-56.8437 L 154.644,-57.2079 L 154.32,-57.6081 L 154.039,-58.04 L 153.805,-58.4989 L 153.621,-58.9796
 L 153.488,-59.4771 L 153.407,-59.9857 L 153.38,-60.5 L 153.407,-61.0143 L 153.488,-61.5229 L 153.621,-62.0204
 L 153.805,-62.5011 L 154.039,-62.96 L 154.32,-63.3919 L 154.644,-63.7921 L 155.008,-64.1563 L 155.408,-64.4804
 L 155.75,-64.7024 L 155.75,-74 L 155.806,-74.5302 L 155.97,-75.0372 L 156.237,-75.4988 L 156.594,-75.895
 L 157.025,-76.2084 L 157.512,-76.4252 L 158.033,-76.536 L 158.567,-76.536 L 159.088,-76.4252 L 159.575,-76.2084
 L 160.006,-75.895 L 160.363,-75.4988 L 160.63,-75.0372 L 160.794,-74.5302 L 160.85,-74 L 160.85,-64.7024
 L 161.192,-64.4804 L 161.592,-64.1563 L 161.956,-63.7921 L 162.28,-63.3919 L 162.561,-62.96 L 162.795,-62.5011
 L 162.979,-62.0204 L 163.112,-61.5229 L 163.193,-61.0143 L 163.22,-60.5 L 163.193,-59.9857 L 163.112,-59.4771
 L 162.979,-58.9796 L 162.795,-58.4989 L 162.561,-58.04 L 162.28,-57.6081 L 161.956,-57.2079 L 161.592,-56.8437
 L 161.192,-56.5196 L 160.76,-56.2392 L 160.301,-56.0054 L 159.82,-55.8208 L 159.323,-55.6875 L 158.814,-55.607
 L 158.3,-55.58 z
M 308.586,-55.607 L 308.077,-55.6875 L 307.58,-55.8208 L 307.099,-56.0054 L 306.64,-56.2392 L 306.208,-56.5196
 L 305.808,-56.8437 L 305.444,-57.2079 L 305.12,-57.6081 L 304.839,-58.04 L 304.605,-58.4989 L 304.421,-58.9796
 L 304.288,-59.4771 L 304.207,-59.9857 L 304.18,-60.5 L 304.207,-61.0143 L 304.288,-61.5229 L 304.421,-62.0204
 L 304.605,-62.5011 L 304.839,-62.96 L 305.12,-63.3919 L 305.444,-63.7921 L 305.808,-64.1563 L 306.208,-64.4804
 L 306.55,-64.7024 L 306.55,-74 L 306.606,-74.5302 L 306.77,-75.0372 L 307.037,-75.4988 L 307.394,-75.895
 L 307.825,-76.2084 L 308.312,-76.4252 L 308.833,-76.536 L 309.367,-76.536 L 309.888,-76.4252 L 310.375,-76.2084
 L 310.806,-75.895 L 311.163,-75.4988 L 311.43,-75.0372 L 311.594,-74.5302 L 311.65,-74 L 311.65,-64.7024
 L 311.992,-64.4804 L 312.392,-64.1563 L 312.756,-63.7921 L 313.08,-63.3919 L 313.361,-62.96 L 313.595,-62.5011
 L 313.779,-62.0204 L 313.912,-61.5229 L 313.993,-61.0143 L 314.02,-60.5 L 313.993,-59.9857 L 313.912,-59.4771
 L 313.779,-58.9796 L 313.595,-58.4989 L 313.361,-58.04 L 313.08,-57.6081 L 312.756,-57.2079 L 312.392,-56.8437
 L 311.992,-56.5196 L 311.56,-56.2392 L 311.101,-56.0054 L 310.62,-55.8208 L 310.123,-55.6875 L 309.614,-55.607
 L 309.1,-55.58 z
M 459.386,-55.607 L 458.877,-55.6875 L 458.38,-55.8208 L 457.899,-56.0054 L 457.44,-56.2392 L 457.008,-56.5196
 L 456.608,-56.8437 L 456.244,-57.2079 L 455.92,-57.6081 L 455.639,-58.04 L 455.405,-58.4989 L 455.221,-58.9796
 L 455.088,-59.4771 L 455.007,-59.9857 L 454.98,-60.5 L 455.007,-61.0143 L 455.088,-61.5229 L 455.221,-62.0204
 L 455.405,-62.5011 L 455.639,-62.96 L 455.92,-63.3919 L 456.244,-63.7921 L 456.608,-64.1563 L 457.008,-64.4804
 L 457.35,-64.7024 L 457.35,-74 L 457.406,-74.5302 L 457.57,-75.0372 L 457.837,-75.4988 L 458.194,-75.895
 L 458.625,-76.2084 L 459.112,-76.4252 L 459.633,-76.536 L 460.167,-76.536 L 460.688,-76.4252 L 461.175,-76.2084
 L 461.606,-75.895 L 461.963,-75.4988 L 462.23,-75.0372 L 462.394,-74.5302 L 462.45,-74 L 462.45,-64.7024
 L 462.792,-64.4804 L 463.192,-64.1563 L 463.556,-63.7921 L 463.88,-63.3919 L 464.161,-62.96 L 464.395,-62.5011
 L 464.579,-62.0204 L 464.712,-61.5229 L 464.793,-61.0143 L 464.82,-60.5 L 464.793,-59.9857 L 464.712,-59.4771
 L 464.579,-58.9796 L 464.395,-58.4989 L 464.161,-58.04 L 463.88,-57.6081 L 463.556,-57.2079 L 463.192,-56.8437
 L 462.792,-56.5196 L 462.36,-56.2392 L 461.901,-56.0054 L 461.42,-55.8208 L 460.923,-55.6875 L 460.414,-55.607
 L 459.9,-55.58 z
M 610.186,-55.607 L 609.677,-55.6875 L 609.18,-55.8208 L 608.699,-56.0054 L 608.24,-56.2392 L 607.808,-56.5196
 L 607.408,-56.8437 L 607.044,-57.2079 L 606.72,-57.6081 L 606.439,-58.04 L 606.205,-58.4989 L 606.021,-58.9796
 L 605.888,-59.4771 L 605.807,-59.9857 L 605.78,-60.5 L 605.807,-61.0143 L 605.888,-61.5229 L 606.021,-62.0204
 L 606.205,-62.5011 L 606.439,-62.96 L 606.72,-63.3919 L 607.044,-63.7921 L 607.408,-64.1563 L 607.808,-64.4804
 L 608.15,-64.7024 L 608.15,-74 L 608.206,-74.5302 L 608.37,-75.0372 L 608.637,-75.4988 L 608.994,-75.895
 L 609.425,-76.2084 L 609.912,-76.4252 L 610.433,-76.536 L 610.967,-76.536 L 611.488,-76.4252 L 611.975,-76.2084
 L 612.406,-75.895 L 612.763,-75.4988 L 613.03,-75.0372 L 613.194,-74.5302 L 613.25,-74 L 613.25,-64.7024
 L 613.592,-64.4804 L 613.992,-64.1563 L 614.356,-63.7921 L 614.68,-63.3919 L 614.961,-62.96 L 615.195,-62.5011
 L 615.379,-62.0204 L 615.512,-61.5229 L 615.593,-61.0143 L 615.62,-60.5 L 615.593,-59.9857 L 615.512,-59.4771
 L 615.379,-58.9796 L 615.195,-58.4989 L 614.961,-58.04 L 614.68,-57.6081 L 614.356,-57.2079 L 613.992,-56.8437
 L 613.592,-56.5196 L 613.16,-56.2392 L 612.701,-56.0054 L 612.22,-55.8208 L 611.723,-55.6875 L 611.214,-55.607
 L 610.7,-55.58 z
M 760.986,-55.607 L 760.477,-55.6875 L 759.98,-55.8208 L 759.499,-56.0054 L 759.04,-56.2392 L 758.608,-56.5196
 L 758.208,-56.8437 L 757.844,-57.2079 L 757.52,-57.6081 L 757.239,-58.04 L 757.005,-58.4989 L 756.821,-58.9796
 L 756.688,-59.4771 L 756.607,-59.9857 L 756.58,-60.5 L 756.607,-61.0143 L 756.688,-61.5229 L 756.821,-62.0204
 L 757.005,-62.5011 L 757.239,-62.96 L 757.52,-63.3919 L 757.844,-63.7921 L 758.208,-64.1563 L 758.608,-64.4804
 L 758.95,-64.7024 L 758.95,-74 L 759.006,-74.5302 L 759.17,-75.0372 L 759.437,-75.4988 L 759.794,-75.895
 L 760.225,-76.2084 L 760.712,-76.4252 L 761.233,-76.536 L 761.767,-76.536 L 762.288,-76.4252 L 762.775,-76.2084
 L 763.206,-75.895 L 763.563,-75.4988 L 763.83,-75.0372 L 763.994,-74.5302 L 764.05,-74 L 764.05,-64.7024
 L 764.392,-64.4804 L 764.792,-64.1563 L 765.156,-63.7921 L 765.48,-63.3919 L 765.761,-62.96 L 765.995,-62.5011
 L 766.179,-62.0204 L 766.312,-61.5229 L 766.393,-61.0143 L 766.42,-60.5 L 766.393,-59.9857 L 766.312,-59.4771
 L 766.179,-58.9796 L 765.995,-58.4989 L 765.761,-58.04 L 765.48,-57.6081 L 765.156,-57.2079 L 764.792,-56.8437
 L 764.392,-56.5196 L 763.96,-56.2392 L 763.501,-56.0054 L 763.02,-55.8208 L 762.523,-55.6875 L 762.014,-55.607
 L 761.5,-55.58 z
M 383.65,-48.1579 L 382.856,-48.4201 L 369.697,-54.3536 L 368.99,-54.7639 L 368.369,-55.3235 L 367.877,-56
 L 367.537,-56.7639 L 367.363,-57.5819 L 367.363,-58.4181 L 367.537,-59.2361 L 367.877,-60 L 368.369,-60.6765
 L 368.99,-61.2361 L 369.715,-61.6542 L 370.51,-61.9126 L 371.342,-62 L 397.658,-62 L 398.471,-61.9165
 L 399.268,-61.6619 L 399.994,-61.2472 L 400.618,-60.6906 L 401.113,-60.0164 L 401.457,-59.2541 L 401.634,-58.437
 L 401.638,-57.6008 L 401.468,-56.782 L 401.132,-56.0165 L 400.644,-55.3376 L 400.025,-54.7751 L 399.303,-54.3536
 L 386.144,-48.4201 L 385.313,-48.15 L 384.481,-48.0665 z
M 295.25,-22.2139 L 294.456,-22.476 L 223.763,-54.3536 L 223.056,-54.7639 L 222.434,-55.3235 L 221.943,-56
 L 221.603,-56.7639 L 221.429,-57.5819 L 221.429,-58.4181 L 221.603,-59.2361 L 221.943,-60 L 222.434,-60.6765
 L 223.056,-61.2361 L 223.78,-61.6542 L 224.575,-61.9126 L 225.407,-62 L 296.1,-62 L 297.336,-61.8042
 L 298.1,-61.4641 L 298.777,-60.9726 L 299.336,-60.3511 L 299.754,-59.627 L 300.013,-58.8316 L 300.1,-58
 L 300.1,-26.1225 L 300.076,-25.6855 L 299.898,-24.8684 L 299.555,-24.106 L 299.06,-23.4319 L 298.436,-22.8753
 L 297.71,-22.4606 L 296.913,-22.206 L 296.081,-22.1225 z
M 622.887,-22.206 L 622.09,-22.4606 L 621.364,-22.8753 L 620.74,-23.4319 L 620.245,-24.106 L 619.902,-24.8684
 L 619.724,-25.6855 L 619.7,-26.1225 L 619.7,-58 L 619.787,-58.8316 L 620.046,-59.627 L 620.464,-60.3511
 L 621.023,-60.9726 L 621.7,-61.4641 L 622.464,-61.8042 L 623.7,-62 L 694.393,-62 L 695.225,-61.9126
 L 696.02,-61.6542 L 696.744,-61.2361 L 697.366,-60.6765 L 697.857,-60 L 698.197,-59.2361 L 698.371,-58.4181
 L 698.371,-57.5819 L 698.197,-56.7639 L 697.857,-56 L 697.366,-55.3235 L 696.744,-54.7639 L 696.037,-54.3536
 L 625.344,-22.476 L 624.55,-22.2139 L 623.719,-22.1225 z
M 144.45,-22.2139 L 143.656,-22.476 L 72.9626,-54.3536 L 72.2558,-54.7639 L 71.6343,-55.3235 L 71.1428,-56
 L 70.8027,-56.7639 L 70.6288,-57.5819 L 70.6288,-58.4181 L 70.8027,-59.2361 L 71.1428,-60 L 71.6343,-60.6765
 L 72.2558,-61.2361 L 72.9799,-61.6542 L 73.7752,-61.9126 L 74.6069,-62 L 145.3,-62 L 146.536,-61.8042
 L 147.3,-61.4641 L 147.977,-60.9726 L 148.536,-60.3511 L 148.954,-59.627 L 149.213,-58.8316 L 149.3,-58
 L 149.3,-26.1225 L 149.276,-25.6855 L 149.098,-24.8684 L 148.755,-24.106 L 148.26,-23.4319 L 147.636,-22.8753
 L 146.91,-22.4606 L 146.113,-22.206 L 145.281,-22.1225 z
M 472.087,-22.206 L 471.29,-22.4606 L 470.564,-22.8753 L 469.94,-23.4319 L 469.445,-24.106 L 469.102,-24.8684
 L 468.924,-25.6855 L 468.9,-26.1225 L 468.9,-58 L 468.987,-58.8316 L 469.246,-59.627 L 469.664,-60.3511
 L 470.223,-60.9726 L 470.9,-61.4641 L 471.664,-61.8042 L 472.9,-62 L 543.593,-62 L 544.425,-61.9126
 L 545.22,-61.6542 L 545.944,-61.2361 L 546.566,-60.6765 L 547.057,-60 L 547.397,-59.2361 L 547.571,-58.4181
 L 547.571,-57.5819 L 547.397,-56.7639 L 547.057,-56 L 546.566,-55.3235 L 545.944,-54.7639 L 545.237,-54.3536
 L 474.544,-22.476 L 473.75,-22.2139 L 472.919,-22.1225 z
M 321.682,-19.9505 L 320.864,-20.1243 L 320.1,-20.4645 L 319.423,-20.956 L 318.864,-21.5774 L 318.446,-22.3016
 L 318.187,-23.0969 L 318.1,-23.9286 L 318.1,-56.0714 L 318.124,-56.5084 L 318.302,-57.3255 L 318.645,-58.0878
 L 319.14,-58.762 L 319.764,-59.3186 L 320.49,-59.7333 L 321.287,-59.9879 L 322.119,-60.0714 L 322.95,-59.98
 L 323.744,-59.7178 L 359.385,-43.6464 L 360.076,-43.2472 L 360.701,-42.6906 L 361.195,-42.0164 L 361.539,-41.2541
 L 361.717,-40.437 L 361.721,-39.6008 L 361.551,-38.782 L 361.214,-38.0165 L 360.726,-37.3376 L 360.107,-36.7751
 L 359.385,-36.3536 L 323.744,-20.2822 L 323.336,-20.1243 L 322.518,-19.9505 z
M 446.05,-20.02 L 445.256,-20.2822 L 409.615,-36.3536 L 408.923,-36.7528 L 408.299,-37.3094 L 407.805,-37.9836
 L 407.461,-38.7459 L 407.283,-39.563 L 407.279,-40.3992 L 407.449,-41.218 L 407.786,-41.9835 L 408.274,-42.6624
 L 408.893,-43.2249 L 409.615,-43.6464 L 445.256,-59.7178 L 445.664,-59.8757 L 446.482,-60.0495 L 447.318,-60.0495
 L 448.136,-59.8757 L 448.9,-59.5355 L 449.577,-59.044 L 450.136,-58.4226 L 450.554,-57.6984 L 450.813,-56.9031
 L 450.9,-56.0714 L 450.9,-23.9286 L 450.876,-23.4916 L 450.698,-22.6745 L 450.355,-21.9122 L 449.86,-21.238
 L 449.236,-20.6814 L 448.51,-20.2667 L 447.713,-20.0121 L 446.881,-19.9286 z
M 171.3,-18 L 170.064,-18.1958 L 169.3,-18.5359 L 168.623,-19.0274 L 168.064,-19.6489 L 167.646,-20.373
 L 167.387,-21.1684 L 167.3,-22 L 167.3,-53.8775 L 167.324,-54.3145 L 167.502,-55.1316 L 167.845,-55.8939
 L 168.34,-56.5681 L 168.964,-57.1247 L 169.69,-57.5394 L 170.487,-57.794 L 171.319,-57.8775 L 172.15,-57.7861
 L 172.944,-57.5239 L 243.637,-25.6464 L 244.344,-25.2361 L 244.966,-24.6765 L 245.457,-24 L 245.797,-23.2361
 L 245.971,-22.4181 L 245.971,-21.5819 L 245.797,-20.7639 L 245.457,-20 L 244.966,-19.3235 L 244.344,-18.7639
 L 243.62,-18.3458 L 242.825,-18.0874 L 241.993,-18 z
M 527.007,-18 L 526.175,-18.0874 L 525.38,-18.3458 L 524.656,-18.7639 L 524.034,-19.3235 L 523.543,-20
 L 523.203,-20.7639 L 523.029,-21.5819 L 523.029,-22.4181 L 523.203,-23.2361 L 523.543,-24 L 524.034,-24.6765
 L 524.656,-25.2361 L 525.363,-25.6464 L 596.056,-57.5239 L 596.85,-57.7861 L 597.681,-57.8775 L 598.513,-57.794
 L 599.31,-57.5394 L 600.036,-57.1247 L 600.66,-56.5681 L 601.155,-55.8939 L 601.498,-55.1316 L 601.676,-54.3145
 L 601.7,-53.8775 L 601.7,-22 L 601.613,-21.1684 L 601.354,-20.373 L 600.936,-19.6489 L 600.377,-19.0274
 L 599.7,-18.5359 L 598.936,-18.1958 L 597.7,-18 z
M 22,-18 L 20.7639,-18.1958 L 20,-18.5359 L 19.3235,-19.0274 L 18.7639,-19.6489 L 18.3458,-20.373
 L 18.0874,-21.1684 L 18,-22 L 18,-53.2011 L 18.0239,-53.6381 L 18.2017,-54.4552 L 18.5454,-55.2175
 L 19.0402,-55.8917 L 19.6642,-56.4483 L 20.3904,-56.863 L 21.1869,-57.1176 L 22.019,-57.2011 L 22.8502,-57.1097
 L 23.6443,-56.8475 L 92.8374,-25.6464 L 93.5442,-25.2361 L 94.1657,-24.6765 L 94.6572,-24 L 94.9973,-23.2361
 L 95.1712,-22.4181 L 95.1712,-21.5819 L 94.9973,-20.7639 L 94.6572,-20 L 94.1657,-19.3235 L 93.5442,-18.7639
 L 92.8201,-18.3458 L 92.0247,-18.0874 L 91.1931,-18 z
M 677.807,-18 L 676.975,-18.0874 L 676.18,-18.3458 L 675.456,-18.7639 L 674.834,-19.3235 L 674.343,-20
 L 674.003,-20.7639 L 673.829,-21.5819 L 673.829,-22.4181 L 674.003,-23.2361 L 674.343,-24 L 674.834,-24.6765
 L 675.456,-25.2361 L 676.163,-25.6464 L 745.356,-56.8475 L 746.15,-57.1097 L 746.981,-57.2011 L 747.813,-57.1176
 L 748.61,-56.863 L 749.336,-56.4483 L 749.96,-55.8917 L 750.455,-55.2175 L 750.798,-54.4552 L 750.976,-53.6381
 L 751,-53.2011 L 751,-22 L 750.913,-21.1684 L 750.654,-20.373 L 750.236,-19.6489 L 749.677,-19.0274
 L 749,-18.5359 L 748.236,-18.1958 L 747,-18 z
M 371.342,-18 L 370.529,-18.0835 L 369.732,-18.3381 L 369.006,-18.7528 L 368.382,-19.3094 L 367.887,-19.9836
 L 367.543,-20.7459 L 367.366,-21.563 L 367.362,-22.3992 L 367.532,-23.218 L 367.868,-23.9835 L 368.356,-24.6624
 L 368.975,-25.2249 L 369.697,-25.6464 L 382.856,-31.5799 L 383.687,-31.85 L 384.519,-31.9335 L 385.35,-31.8421
 L 386.144,-31.5799 L 399.303,-25.6464 L 400.01,-25.2361 L 400.631,-24.6765 L 401.122,-24 L 401.463,-23.2361
 L 401.636,-22.4181 L 401.636,-21.5819 L 401.463,-20.7639 L 401.122,-20 L 400.631,-19.3235 L 400.01,-18.7639
 L 399.285,-18.3458 L 398.49,-18.0874 L 397.658,-18 z
" stroke="black" fill="lightgray" stroke-width="0.5"/>
</svg>
