<?xml version="1.0" standalone="no"?>
<!DOCTYPE svg PUBLIC "-//W3C//DTD SVG 1.1//EN" "http://www.w3.org/Graphics/SVG/1.1/DTD/svg11.dtd">
<svg width="930mm" height="80mm" viewBox="0 -80 930 80" xmlns="http://www.w3.org/2000/svg" version="1.1">
<title>OpenSCAD Model</title>
<path d="
M 930,-80 L 0,-80 L 0,-0 L 4.95,-0 L 4.95,-6 L 5.00572,-6.53017
 L 5.17046,-7.03717 L 5.437,-7.49884 L 5.79372,-7.895 L 6.22499,-8.20836 L 6.71201,-8.42519 L 7.23344,-8.53603
 L 7.76654,-8.53603 L 8.28798,-8.42519 L 8.77499,-8.20836 L 9.20627,-7.895 L 9.56299,-7.49884 L 9.82953,-7.03717
 L 9.99426,-6.53017 L 10.05,-6 L 10.05,-0 L 187.95,-0 L 187.95,-6 L 188.006,-6.53017
 L 188.17,-7.03717 L 188.437,-7.49884 L 188.794,-7.895 L 189.225,-8.20836 L 189.712,-8.42519 L 190.233,-8.53603
 L 190.767,-8.53603 L 191.288,-8.42519 L 191.775,-8.20836 L 192.206,-7.895 L 192.563,-7.49884 L 192.83,-7.03717
 L 192.994,-6.53017 L 193.05,-6 L 193.05,-0 L 370.95,-0 L 370.95,-6 L 371.006,-6.53017
 L 371.17,-7.03717 L 371.437,-7.49884 L 371.794,-7.895 L 372.225,-8.20836 L 372.712,-8.42519 L 373.233,-8.53603
 L 373.767,-8.53603 L 374.288,-8.42519 L 374.775,-8.20836 L 375.206,-7.895 L 375.563,-7.49884 L 375.83,-7.03717
 L 375.994,-6.53017 L 376.05,-6 L 376.05,-0 L 553.95,-0 L 553.95,-6 L 554.006,-6.53017
 L 554.17,-7.03717 L 554.437,-7.49884 L 554.794,-7.895 L 555.225,-8.20836 L 555.712,-8.42519 L 556.233,-8.53603
 L 556.767,-8.53603 L 557.288,-8.42519 L 557.775,-8.20836 L 558.206,-7.895 L 558.563,-7.49884 L 558.83,-7.03717
 L 558.994,-6.53017 L 559.05,-6 L 559.05,-0 L 736.95,-0 L 736.95,-6 L 737.006,-6.53017
 L 737.17,-7.03717 L 737.437,-7.49884 L 737.794,-7.895 L 738.225,-8.20836 L 738.712,-8.42519 L 739.233,-8.53603
 L 739.767,-8.53603 L 740.288,-8.42519 L 740.775,-8.20836 L 741.206,-7.895 L 741.563,-7.49884 L 741.83,-7.03717
 L 741.994,-6.53017 L 742.05,-6 L 742.05,-0 L 919.95,-0 L 919.95,-6 L 920.006,-6.53017
 L 920.17,-7.03717 L 920.437,-7.49884 L 920.794,-7.895 L 921.225,-8.20836 L 921.712,-8.42519 L 922.233,-8.53603
 L 922.767,-8.53603 L 923.288,-8.42519 L 923.775,-8.20836 L 924.206,-7.895 L 924.563,-7.49884 L 924.83,-7.03717
 L 924.994,-6.53017 L 925.05,-6 L 925.05,-0 L 930,-0 z
M 6.98573,-55.607 L 6.47708,-55.6875 L 5.97964,-55.8208 L 5.49887,-56.0054 L 5.04001,-56.2392 L 4.60811,-56.5196
 L 4.20789,-56.8437 L 3.84373,-57.2079 L 3.51964,-57.6081 L 3.23917,-58.04 L 3.00537,-58.4989 L 2.82082,-58.9796
 L 2.68752,-59.4771 L 2.60696,-59.9857 L 2.58,-60.5 L 2.60696,-61.0143 L 2.68752,-61.5229 L 2.82082,-62.0204
 L 3.00537,-62.5011 L 3.23917,-62.96 L 3.51964,-63.3919 L 3.84373,-63.7921 L 4.20789,-64.1563 L 4.60811,-64.4804
 L 4.95001,-64.7024 L 4.95001,-74 L 5.00574,-74.5302 L 5.17047,-75.0372 L 5.43701,-75.4988 L 5.79373,-75.895
 L 6.22501,-76.2084 L 6.71202,-76.4252 L 7.23346,-76.536 L 7.76654,-76.536 L 8.28798,-76.4252 L 8.77499,-76.2084
 L 9.20627,-75.895 L 9.56299,-75.4988 L 9.82953,-75.0372 L 9.99426,-74.5302 L 10.05,-74 L 10.05,-64.7024
 L 10.3919,-64.4804 L 10.7921,-64.1563 L 11.1563,-63.7921 L 11.4804,-63.3919 L 11.7608,-62.96 L 11.9946,-62.5011
 L 12.1792,-62.0204 L 12.3125,-61.5229 L 12.393,-61.0143 L 12.42,-60.5 L 12.393,-59.9857 L 12.3125,-59.4771
 L 12.1792,-58.9796 L 11.9946,-58.4989 L 11.7608,-58.04 L 11.4804,-57.6081 L 11.1563,-57.2079 L 10.7921,-56.8437
 L 10.3919,-56.5196 L 9.95999,-56.2392 L 9.50113,-56.0054 L 9.02036,-55.8208 L 8.52292,-55.6875 L 8.01427,-55.607
 L 7.5,-55.58 z
M 189.986,-55.607 L 189.477,-55.6875 L 188.98,-55.8208 L 188.499,-56.0054 L 188.04,-56.2392 L 187.608,-56.5196
 L 187.208,-56.8437 L 186.844,-57.2079 L 186.52,-57.6081 L 186.239,-58.04 L 186.005,-58.4989 L 185.821,-58.9796
 L 185.688,-59.4771 L 185.607,-59.9857 L 185.58,-60.5 L 185.607,-61.0143 L 185.688,-61.5229 L 185.821,-62.0204
 L 186.005,-62.5011 L 186.239,-62.96 L 186.52,-63.3919 L 186.844,-63.7921 L 187.208,-64.1563 L 187.608,-64.4804
 L 187.95,-64.7024 L 187.95,-74 L 188.006,-74.5302 L 188.17,-75.0372 L 188.437,-75.4988 L 188.794,-75.895
 L 189.225,-76.2084 L 189.712,-76.4252 L 190.233,-76.536 L 190.767,-76.536 L 191.288,-76.4252 L 191.775,-76.2084
 L 192.206,-75.895 L 192.563,-75.4988 L 192.83,-75.0372 L 192.994,-74.5302 L 193.05,-74 L 193.05,-64.7024
 L 193.392,-64.4804 L 193.792,-64.1563 L 194.156,-63.7921 L 194.48,-63.3919 L 194.761,-62.96 L 194.995,-62.5011
 L 195.179,-62.0204 L 195.312,-61.5229 L 195.393,-61.0143 L 195.42,-60.5 L 195.393,-59.9857 L 195.312,-59.4771
 L 195.179,-58.9796 L 194.995,-58.4989 L 194.761,-58.04 L 194.48,-57.6081 L 194.156,-57.2079 L 193.792,-56.8437
 L 193.392,-56.5196 L 192.96,-56.2392 L 192.501,-56.0054 L 192.02,-55.8208 L 191.523,-55.6875 L 191.014,-55.607
 L 190.5,-55.58 z
M 372.986,-55.607 L 372.477,-55.6875 L 371.98,-55.8208 L 371.499,-56.0054 L 371.04,-56.2392 L 370.608,-56.5196
 L 370.208,-56.8437 L 369.844,-57.2079 L 369.52,-57.6081 L 369.239,-58.04 L 369.005,-58.4989 L 368.821,-58.9796
 L 368.688,-59.4771 L 368.607,-59.9857 L 368.58,-60.5 L 368.607,-61.0143 L 368.688,-61.5229 L 368.821,-62.0204
 L 369.005,-62.5011 L 369.239,-62.96 L 369.52,-63.3919 L 369.844,-63.7921 L 370.208,-64.1563 L 370.608,-64.4804
 L 370.95,-64.7024 L 370.95,-74 L 371.006,-74.5302 L 371.17,-75.0372 L 371.437,-75.4988 L 371.794,-75.895
 L 372.225,-76.2084 L 372.712,-76.4252 L 373.233,-76.536 L 373.767,-76.536 L 374.288,-76.4252 L 374.775,-76.2084
 L 375.206,-75.895 L 375.563,-75.4988 L 375.83,-75.0372 L 375.994,-74.5302 L 376.05,-74 L 376.05,-64.7024
 L 376.392,-64.4804 L 376.792,-64.1563 L 377.156,-63.7921 L 377.48,-63.3919 L 377.761,-62.96 L 377.995,-62.5011
 L 378.179,-62.0204 L 378.312,-61.5229 L 378.393,-61.0143 L 378.42,-60.5 L 378.393,-59.9857 L 378.312,-59.4771
 L 378.179,-58.9796 L 377.995,-58.4989 L 377.761,-58.04 L 377.48,-57.6081 L 377.156,-57.2079 L 376.792,-56.8437
 L 376.392,-56.5196 L 375.96,-56.2392 L 375.501,-56.0054 L 375.02,-55.8208 L 374.523,-55.6875 L 374.014,-55.607
 L 373.5,-55.58 z
M 555.986,-55.607 L 555.477,-55.6875 L 554.98,-55.8208 L 554.499,-56.0054 L 554.04,-56.2392 L 553.608,-56.5196
 L 553.208,-56.8437 L 552.844,-57.2079 L 552.52,-57.6081 L 552.239,-58.04 L 552.005,-58.4989 L 551.821,-58.9796
 L 551.688,-59.4771 L 551.607,-59.9857 L 551.58,-60.5 L 551.607,-61.0143 L 551.688,-61.5229 L 551.821,-62.0204
 L 552.005,-62.5011 L 552.239,-62.96 L 552.52,-63.3919 L 552.844,-63.7921 L 553.208,-64.1563 L 553.608,-64.4804
 L 553.95,-64.7024 L 553.95,-74 L 554.006,-74.5302 L 554.17,-75.0372 L 554.437,-75.4988 L 554.794,-75.895
 L 555.225,-76.2084 L 555.712,-76.4252 L 556.233,-76.536 L 556.767,-76.536 L 557.288,-76.4252 L 557.775,-76.2084
 L 558.206,-75.895 L 558.563,-75.4988 L 558.83,-75.0372 L 558.994,-74.5302 L 559.05,-74 L 559.05,-64.7024
 L 559.392,-64.4804 L 559.792,-64.1563 L 560.156,-63.7921 L 560.48,-63.3919 L 560.761,-62.96 L 560.995,-62.5011
 L 561.179,-62.0204 L 561.312,-61.5229 L 561.393,-61.0143 L 561.42,-60.5 L 561.393,-59.9857 L 561.312,-59.4771
 L 561.179,-58.9796 L 560.995,-58.4989 L 560.761,-58.04 L 560.48,-57.6081 L 560.156,-57.2079 L 559.792,-56.8437
 L 559.392,-56.5196 L 558.96,-56.2392 L 558.501,-56.0054 L 558.02,-55.8208 L 557.523,-55.6875 L 557.014,-55.607
 L 556.5,-55.58 z
M 738.986,-55.607 L 738.477,-55.6875 L 737.98,-55.8208 L 737.499,-56.0054 L 737.04,-56.2392 L 736.608,-56.5196
 L 736.208,-56.8437 L 735.844,-57.2079 L 735.52,-57.6081 L 735.239,-58.04 L 735.005,-58.4989 L 734.821,-58.9796
 L 734.688,-59.4771 L 734.607,-59.9857 L 734.58,-60.5 L 734.607,-61.0143 L 734.688,-61.5229 L 734.821,-62.0204
 L 735.005,-62.5011 L 735.239,-62.96 L 735.52,-63.3919 L 735.844,-63.7921 L 736.208,-64.1563 L 736.608,-64.4804
 L 736.95,-64.7024 L 736.95,-74 L 737.006,-74.5302 L 737.17,-75.0372 L 737.437,-75.4988 L 737.794,-75.895
 L 738.225,-76.2084 L 738.712,-76.4252 L 739.233,-76.536 L 739.767,-76.536 L 740.288,-76.4252 L 740.775,-76.2084
 L 741.206,-75.895 L 741.563,-75.4988 L 741.83,-75.0372 L 741.994,-74.5302 L 742.05,-74 L 742.05,-64.7024
 L 742.392,-64.4804 L 742.792,-64.1563 L 743.156,-63.7921 L 743.48,-63.3919 L 743.761,-62.96 L 743.995,-62.5011
 L 744.179,-62.0204 L 744.312,-61.5229 L 744.393,-61.0143 L 744.42,-60.5 L 744.393,-59.9857 L 744.312,-59.4771
 L 744.179,-58.9796 L 743.995,-58.4989 L 743.761,-58.04 L 743.48,-57.6081 L 743.156,-57.2079 L 742.792,-56.8437
 L 742.392,-56.5196 L 741.96,-56.2392 L 741.501,-56.0054 L 741.02,-55.8208 L 740.523,-55.6875 L 740.014,-55.607
 L 739.5,-55.58 z
M 921.986,-55.607 L 921.477,-55.6875 L 920.98,-55.8208 L 920.499,-56.0054 L 920.04,-56.2392 L 919.608,-56.5196
 L 919.208,-56.8437 L 918.844,-57.2079 L 918.52,-57.6081 L 918.239,-58.04 L 918.005,-58.4989 L 917.821,-58.9796
 L 917.688,-59.4771 L 917.607,-59.9857 L 917.58,-60.5 L 917.607,-61.0143 L 917.688,-61.5229 L 917.821,-62.0204
 L 918.005,-62.5011 L 918.239,-62.96 L 918.52,-63.3919 L 918.844,-63.7921 L 919.208,-64.1563 L 919.608,-64.4804
 L 919.95,-64.7024 L 919.95,-74 L 920.006,-74.5302 L 920.17,-75.0372 L 920.437,-75.4988 L 920.794,-75.895
 L 921.225,-76.2084 L 921.712,-76.4252 L 922.233,-76.536 L 922.767,-76.536 L 923.288,-76.4252 L 923.775,-76.2084
 L 924.206,-75.895 L 924.563,-75.4988 L 924.83,-75.0372 L 924.994,-74.5302 L 925.05,-74 L 925.05,-64.7024
 L 925.392,-64.4804 L 925.792,-64.1563 L 926.156,-63.7921 L 926.48,-63.3919 L 926.761,-62.96 L 926.995,-62.5011
 L 927.179,-62.0204 L 927.312,-61.5229 L 927.393,-61.0143 L 927.42,-60.5 L 927.393,-59.9857 L 927.312,-59.4771
 L 927.179,-58.9796 L 926.995,-58.4989 L 926.761,-58.04 L 926.48,-57.6081 L 926.156,-57.2079 L 925.792,-56.8437
 L 925.392,-56.5196 L 924.96,-56.2392 L 924.501,-56.0054 L 924.02,-55.8208 L 923.523,-55.6875 L 923.014,-55.607
 L 922.5,-55.58 z
M 464.417,-47.7675 L 463.607,-47.9752 L 446.719,-54.2505 L 445.761,-54.7639 L 445.139,-55.3235 L 444.648,-56
 L 444.308,-56.7639 L 444.134,-57.5819 L 444.134,-58.4181 L 444.308,-59.2361 L 444.648,-60 L 445.139,-60.6765
 L 445.761,-61.2361 L 446.485,-61.6542 L 447.28,-61.9126 L 448.112,-62 L 481.888,-62 L 482.965,-61.8524
 L 483.742,-61.5443 L 484.438,-61.0814 L 485.023,-60.4837 L 485.471,-59.7776 L 485.763,-58.9937 L 485.884,-58.1664
 L 485.832,-57.3318 L 485.607,-56.5265 L 485.219,-55.7855 L 484.686,-55.1413 L 484.03,-54.6221 L 483.281,-54.2505
 L 466.393,-47.9752 L 465.252,-47.7327 z
M 359.917,-20.7298 L 359.107,-20.9375 L 269.456,-54.2505 L 268.498,-54.7639 L 267.876,-55.3235 L 267.385,-56
 L 267.045,-56.7639 L 266.871,-57.5819 L 266.871,-58.4181 L 267.045,-59.2361 L 267.385,-60 L 267.876,-60.6765
 L 268.498,-61.2361 L 269.222,-61.6542 L 270.017,-61.9126 L 270.849,-62 L 360.5,-62 L 361.736,-61.8042
 L 362.5,-61.4641 L 363.177,-60.9726 L 363.736,-60.3511 L 364.154,-59.627 L 364.413,-58.8316 L 364.5,-58
 L 364.5,-24.6871 L 364.375,-23.6934 L 364.083,-22.9095 L 363.635,-22.2033 L 363.051,-21.6057 L 362.354,-21.1427
 L 361.577,-20.8347 L 360.752,-20.695 z
M 751.423,-20.8347 L 750.646,-21.1427 L 749.949,-21.6057 L 749.365,-22.2033 L 748.917,-22.9095 L 748.625,-23.6934
 L 748.5,-24.6871 L 748.5,-58 L 748.587,-58.8316 L 748.846,-59.627 L 749.264,-60.3511 L 749.823,-60.9726
 L 750.5,-61.4641 L 751.264,-61.8042 L 752.5,-62 L 842.151,-62 L 842.983,-61.9126 L 843.778,-61.6542
 L 844.502,-61.2361 L 845.124,-60.6765 L 845.615,-60 L 845.955,-59.2361 L 846.129,-58.4181 L 846.129,-57.5819
 L 845.955,-56.7639 L 845.615,-56 L 845.124,-55.3235 L 844.502,-54.7639 L 843.544,-54.2505 L 753.893,-20.9375
 L 753.083,-20.7298 L 752.248,-20.695 z
M 176.917,-20.7298 L 176.107,-20.9375 L 86.4557,-54.2505 L 85.4979,-54.7639 L 84.8764,-55.3235 L 84.3849,-56
 L 84.0448,-56.7639 L 83.8709,-57.5819 L 83.8709,-58.4181 L 84.0448,-59.2361 L 84.3849,-60 L 84.8764,-60.6765
 L 85.4979,-61.2361 L 86.222,-61.6542 L 87.0173,-61.9126 L 87.849,-62 L 177.5,-62 L 178.736,-61.8042
 L 179.5,-61.4641 L 180.177,-60.9726 L 180.736,-60.3511 L 181.154,-59.627 L 181.413,-58.8316 L 181.5,-58
 L 181.5,-24.6871 L 181.375,-23.6934 L 181.083,-22.9095 L 180.635,-22.2033 L 180.051,-21.6057 L 179.354,-21.1427
 L 178.577,-20.8347 L 177.752,-20.695 z
M 568.423,-20.8347 L 567.646,-21.1427 L 566.949,-21.6057 L 566.365,-22.2033 L 565.917,-22.9095 L 565.625,-23.6934
 L 565.5,-24.6871 L 565.5,-58 L 565.587,-58.8316 L 565.846,-59.627 L 566.264,-60.3511 L 566.823,-60.9726
 L 567.5,-61.4641 L 568.264,-61.8042 L 569.5,-62 L 659.151,-62 L 659.983,-61.9126 L 660.778,-61.6542
 L 661.502,-61.2361 L 662.124,-60.6765 L 662.615,-60 L 662.955,-59.2361 L 663.129,-58.4181 L 663.129,-57.5819
 L 662.955,-56.7639 L 662.615,-56 L 662.124,-55.3235 L 661.502,-54.7639 L 660.544,-54.2505 L 570.893,-20.9375
 L 570.083,-20.7298 L 569.248,-20.695 z
M 386.082,-18.5772 L 385.264,-18.7511 L 384.5,-19.0912 L 383.823,-19.5827 L 383.264,-20.2042 L 382.846,-20.9284
 L 382.587,-21.7237 L 382.5,-22.5553 L 382.5,-57.4447 L 382.625,-58.4384 L 382.917,-59.2222 L 383.365,-59.9284
 L 383.949,-60.526 L 384.646,-60.989 L 385.423,-61.297 L 386.248,-61.4367 L 387.083,-61.4019 L 387.893,-61.1942
 L 434.84,-43.7495 L 435.301,-43.5443 L 435.997,-43.0814 L 436.582,-42.4837 L 437.03,-41.7776 L 437.321,-40.9937
 L 437.443,-40.1664 L 437.391,-39.3318 L 437.165,-38.5265 L 436.778,-37.7855 L 436.245,-37.1413 L 435.589,-36.6221
 L 434.84,-36.2505 L 387.893,-18.8058 L 386.918,-18.5772 z
M 542.917,-18.5981 L 542.107,-18.8058 L 495.16,-36.2505 L 494.699,-36.4557 L 494.003,-36.9186 L 493.418,-37.5163
 L 492.97,-38.2224 L 492.679,-39.0063 L 492.557,-39.8336 L 492.609,-40.6682 L 492.835,-41.4735 L 493.222,-42.2145
 L 493.755,-42.8587 L 494.411,-43.3779 L 495.16,-43.7495 L 542.107,-61.1942 L 543.082,-61.4228 L 543.918,-61.4228
 L 544.736,-61.2489 L 545.5,-60.9088 L 546.177,-60.4173 L 546.736,-59.7958 L 547.154,-59.0717 L 547.413,-58.2764
 L 547.5,-57.4447 L 547.5,-22.5553 L 547.375,-21.5616 L 547.083,-20.7777 L 546.635,-20.0716 L 546.051,-19.4739
 L 545.354,-19.011 L 544.577,-18.7029 L 543.752,-18.5633 z
M 203.5,-18 L 202.264,-18.1958 L 201.5,-18.5359 L 200.823,-19.0274 L 200.264,-19.6489 L 199.846,-20.373
 L 199.587,-21.1684 L 199.5,-22 L 199.5,-55.3129 L 199.625,-56.3066 L 199.917,-57.0905 L 200.365,-57.7967
 L 200.949,-58.3943 L 201.646,-58.8572 L 202.423,-59.1653 L 203.248,-59.305 L 204.083,-59.2702 L 204.893,-59.0624
 L 294.544,-25.7495 L 295.502,-25.2361 L 296.124,-24.6765 L 296.615,-24 L 296.955,-23.2361 L 297.129,-22.4181
 L 297.129,-21.5819 L 296.955,-20.7639 L 296.615,-20 L 296.124,-19.3235 L 295.502,-18.7639 L 294.778,-18.3458
 L 293.983,-18.0874 L 293.151,-18 z
M 636.849,-18 L 636.017,-18.0874 L 635.222,-18.3458 L 634.498,-18.7639 L 633.876,-19.3235 L 633.385,-20
 L 633.045,-20.7639 L 632.871,-21.5819 L 632.871,-22.4181 L 633.045,-23.2361 L 633.385,-24 L 633.876,-24.6765
 L 634.498,-25.2361 L 635.456,-25.7495 L 725.107,-59.0624 L 725.917,-59.2702 L 726.752,-59.305 L 727.577,-59.1653
 L 728.354,-58.8572 L 729.051,-58.3943 L 729.635,-57.7967 L 730.083,-57.0905 L 730.375,-56.3066 L 730.5,-55.3129
 L 730.5,-22 L 730.413,-21.1684 L 730.154,-20.373 L 729.736,-19.6489 L 729.177,-19.0274 L 728.5,-18.5359
 L 727.736,-18.1958 L 726.5,-18 z
M 22,-18 L 20.7639,-18.1958 L 20,-18.5359 L 19.3235,-19.0274 L 18.7639,-19.6489 L 18.3458,-20.373
 L 18.0874,-21.1684 L 18,-22 L 18,-54.7556 L 18.1254,-55.7493 L 18.4167,-56.5331 L 18.8645,-57.2393
 L 19.4495,-57.8369 L 20.1458,-58.2999 L 20.9233,-58.6079 L 21.7477,-58.7476 L 22.5833,-58.7128 L 23.3933,-58.5051
 L 111.544,-25.7495 L 112.502,-25.2361 L 113.124,-24.6765 L 113.615,-24 L 113.955,-23.2361 L 114.129,-22.4181
 L 114.129,-21.5819 L 113.955,-20.7639 L 113.615,-20 L 113.124,-19.3235 L 112.502,-18.7639 L 111.778,-18.3458
 L 110.983,-18.0874 L 110.151,-18 z
M 819.849,-18 L 819.017,-18.0874 L 818.222,-18.3458 L 817.498,-18.7639 L 816.876,-19.3235 L 816.385,-20
 L 816.045,-20.7639 L 815.871,-21.5819 L 815.871,-22.4181 L 816.045,-23.2361 L 816.385,-24 L 816.876,-24.6765
 L 817.498,-25.2361 L 818.456,-25.7495 L 906.607,-58.5051 L 907.417,-58.7128 L 908.252,-58.7476 L 909.077,-58.6079
 L 909.854,-58.2999 L 910.551,-57.8369 L 911.135,-57.2393 L 911.583,-56.5331 L 911.875,-55.7493 L 912,-54.7556
 L 912,-22 L 911.913,-21.1684 L 911.654,-20.373 L 911.236,-19.6489 L 910.677,-19.0274 L 910,-18.5359
 L 909.236,-18.1958 L 908,-18 z
M 448.112,-18 L 447.035,-18.1476 L 446.258,-18.4557 L 445.562,-18.9186 L 444.977,-19.5163 L 444.529,-20.2224
 L 444.237,-21.0063 L 444.116,-21.8336 L 444.168,-22.6682 L 444.393,-23.4735 L 444.781,-24.2145 L 445.314,-24.8587
 L 445.97,-25.3779 L 446.719,-25.7495 L 463.607,-32.0248 L 464.748,-32.2673 L 465.583,-32.2325 L 466.393,-32.0248
 L 483.281,-25.7495 L 484.239,-25.2361 L 484.861,-24.6765 L 485.352,-24 L 485.692,-23.2361 L 485.866,-22.4181
 L 485.866,-21.5819 L 485.692,-20.7639 L 485.352,-20 L 484.861,-19.3235 L 484.239,-18.7639 L 483.515,-18.3458
 L 482.72,-18.0874 L 481.888,-18 z
" stroke="black" fill="lightgray" stroke-width="0.5"/>
</svg>
