<?xml version="1.0" standalone="no"?>
<!DOCTYPE svg PUBLIC "-//W3C//DTD SVG 1.1//EN" "http://www.w3.org/Graphics/SVG/1.1/DTD/svg11.dtd">
<svg width="936mm" height="80mm" viewBox="0 -80 936 80" xmlns="http://www.w3.org/2000/svg" version="1.1">
<title>OpenSCAD Model</title>
<path d="
M 936,-80 L 0,-80 L 0,-0 L 4.95,-0 L 4.95,-6 L 5.00572,-6.53017
 L 5.17046,-7.03717 L 5.437,-7.49884 L 5.79372,-7.895 L 6.22499,-8.20836 L 6.71201,-8.42519 L 7.23344,-8.53603
 L 7.76654,-8.53603 L 8.28798,-8.42519 L 8.77499,-8.20836 L 9.20627,-7.895 L 9.56299,-7.49884 L 9.82953,-7.03717
 L 9.99426,-6.53017 L 10.05,-6 L 10.05,-0 L 189.15,-0 L 189.15,-6 L 189.206,-6.53017
 L 189.37,-7.03717 L 189.637,-7.49884 L 189.994,-7.895 L 190.425,-8.20836 L 190.912,-8.42519 L 191.433,-8.53603
 L 191.967,-8.53603 L 192.488,-8.42519 L 192.975,-8.20836 L 193.406,-7.895 L 193.763,-7.49884 L 194.03,-7.03717
 L 194.194,-6.53017 L 194.25,-6 L 194.25,-0 L 373.35,-0 L 373.35,-6 L 373.406,-6.53017
 L 373.57,-7.03717 L 373.837,-7.49884 L 374.194,-7.895 L 374.625,-8.20836 L 375.112,-8.42519 L 375.633,-8.53603
 L 376.167,-8.53603 L 376.688,-8.42519 L 377.175,-8.20836 L 377.606,-7.895 L 377.963,-7.49884 L 378.23,-7.03717
 L 378.394,-6.53017 L 378.45,-6 L 378.45,-0 L 557.55,-0 L 557.55,-6 L 557.606,-6.53017
 L 557.77,-7.03717 L 558.037,-7.49884 L 558.394,-7.895 L 558.825,-8.20836 L 559.312,-8.42519 L 559.833,-8.53603
 L 560.367,-8.53603 L 560.888,-8.42519 L 561.375,-8.20836 L 561.806,-7.895 L 562.163,-7.49884 L 562.43,-7.03717
 L 562.594,-6.53017 L 562.65,-6 L 562.65,-0 L 741.75,-0 L 741.75,-6 L 741.806,-6.53017
 L 741.97,-7.03717 L 742.237,-7.49884 L 742.594,-7.895 L 743.025,-8.20836 L 743.512,-8.42519 L 744.033,-8.53603
 L 744.567,-8.53603 L 745.088,-8.42519 L 745.575,-8.20836 L 746.006,-7.895 L 746.363,-7.49884 L 746.63,-7.03717
 L 746.794,-6.53017 L 746.85,-6 L 746.85,-0 L 925.95,-0 L 925.95,-6 L 926.006,-6.53017
 L 926.17,-7.03717 L 926.437,-7.49884 L 926.794,-7.895 L 927.225,-8.20836 L 927.712,-8.42519 L 928.233,-8.53603
 L 928.767,-8.53603 L 929.288,-8.42519 L 929.775,-8.20836 L 930.206,-7.895 L 930.563,-7.49884 L 930.83,-7.03717
 L 930.994,-6.53017 L 931.05,-6 L 931.05,-0 L 936,-0 z
M 6.98573,-55.607 L 6.47708,-55.6875 L 5.97964,-55.8208 L 5.49887,-56.0054 L 5.04001,-56.2392 L 4.60811,-56.5196
 L 4.20789,-56.8437 L 3.84373,-57.2079 L 3.51964,-57.6081 L 3.23917,-58.04 L 3.00537,-58.4989 L 2.82082,-58.9796
 L 2.68752,-59.4771 L 2.60696,-59.9857 L 2.58,-60.5 L 2.60696,-61.0143 L 2.68752,-61.5229 L 2.82082,-62.0204
 L 3.00537,-62.5011 L 3.23917,-62.96 L 3.51964,-63.3919 L 3.84373,-63.7921 L 4.20789,-64.1563 L 4.60811,-64.4804
 L 4.95001,-64.7024 L 4.95001,-74 L 5.00574,-74.5302 L 5.17047,-75.0372 L 5.43701,-75.4988 L 5.79373,-75.895
 L 6.22501,-76.2084 L 6.71202,-76.4252 L 7.23346,-76.536 L 7.76654,-76.536 L 8.28798,-76.4252 L 8.77499,-76.2084
 L 9.20627,-75.895 L 9.56299,-75.4988 L 9.82953,-75.0372 L 9.99426,-74.5302 L 10.05,-74 L 10.05,-64.7024
 L 10.3919,-64.4804 L 10.7921,-64.1563 L 11.1563,-63.7921 L 11.4804,-63.3919 L 11.7608,-62.96 L 11.9946,-62.5011
 L 12.1792,-62.0204 L 12.3125,-61.5229 L 12.393,-61.0143 L 12.42,-60.5 L 12.393,-59.9857 L 12.3125,-59.4771
 L 12.1792,-58.9796 L 11.9946,-58.4989 L 11.7608,-58.04 L 11.4804,-57.6081 L 11.1563,-57.2079 L 10.7921,-56.8437
 L 10.3919,-56.5196 L 9.95999,-56.2392 L 9.50113,-56.0054 L 9.02036,-55.8208 L 8.52292,-55.6875 L 8.01427,-55.607
 L 7.5,-55.58 z
M 191.186,-55.607 L 190.677,-55.6875 L 190.18,-55.8208 L 189.699,-56.0054 L 189.24,-56.2392 L 188.808,-56.5196
 L 188.408,-56.8437 L 188.044,-57.2079 L 187.72,-57.6081 L 187.439,-58.04 L 187.205,-58.4989 L 187.021,-58.9796
 L 186.888,-59.4771 L 186.807,-59.9857 L 186.78,-60.5 L 186.807,-61.0143 L 186.888,-61.5229 L 187.021,-62.0204
 L 187.205,-62.5011 L 187.439,-62.96 L 187.72,-63.3919 L 188.044,-63.7921 L 188.408,-64.1563 L 188.808,-64.4804
 L 189.15,-64.7024 L 189.15,-74 L 189.206,-74.5302 L 189.37,-75.0372 L 189.637,-75.4988 L 189.994,-75.895
 L 190.425,-76.2084 L 190.912,-76.4252 L 191.433,-76.536 L 191.967,-76.536 L 192.488,-76.4252 L 192.975,-76.2084
 L 193.406,-75.895 L 193.763,-75.4988 L 194.03,-75.0372 L 194.194,-74.5302 L 194.25,-74 L 194.25,-64.7024
 L 194.592,-64.4804 L 194.992,-64.1563 L 195.356,-63.7921 L 195.68,-63.3919 L 195.961,-62.96 L 196.195,-62.5011
 L 196.379,-62.0204 L 196.512,-61.5229 L 196.593,-61.0143 L 196.62,-60.5 L 196.593,-59.9857 L 196.512,-59.4771
 L 196.379,-58.9796 L 196.195,-58.4989 L 195.961,-58.04 L 195.68,-57.6081 L 195.356,-57.2079 L 194.992,-56.8437
 L 194.592,-56.5196 L 194.16,-56.2392 L 193.701,-56.0054 L 193.22,-55.8208 L 192.723,-55.6875 L 192.214,-55.607
 L 191.7,-55.58 z
M 375.386,-55.607 L 374.877,-55.6875 L 374.38,-55.8208 L 373.899,-56.0054 L 373.44,-56.2392 L 373.008,-56.5196
 L 372.608,-56.8437 L 372.244,-57.2079 L 371.92,-57.6081 L 371.639,-58.04 L 371.405,-58.4989 L 371.221,-58.9796
 L 371.088,-59.4771 L 371.007,-59.9857 L 370.98,-60.5 L 371.007,-61.0143 L 371.088,-61.5229 L 371.221,-62.0204
 L 371.405,-62.5011 L 371.639,-62.96 L 371.92,-63.3919 L 372.244,-63.7921 L 372.608,-64.1563 L 373.008,-64.4804
 L 373.35,-64.7024 L 373.35,-74 L 373.406,-74.5302 L 373.57,-75.0372 L 373.837,-75.4988 L 374.194,-75.895
 L 374.625,-76.2084 L 375.112,-76.4252 L 375.633,-76.536 L 376.167,-76.536 L 376.688,-76.4252 L 377.175,-76.2084
 L 377.606,-75.895 L 377.963,-75.4988 L 378.23,-75.0372 L 378.394,-74.5302 L 378.45,-74 L 378.45,-64.7024
 L 378.792,-64.4804 L 379.192,-64.1563 L 379.556,-63.7921 L 379.88,-63.3919 L 380.161,-62.96 L 380.395,-62.5011
 L 380.579,-62.0204 L 380.712,-61.5229 L 380.793,-61.0143 L 380.82,-60.5 L 380.793,-59.9857 L 380.712,-59.4771
 L 380.579,-58.9796 L 380.395,-58.4989 L 380.161,-58.04 L 379.88,-57.6081 L 379.556,-57.2079 L 379.192,-56.8437
 L 378.792,-56.5196 L 378.36,-56.2392 L 377.901,-56.0054 L 377.42,-55.8208 L 376.923,-55.6875 L 376.414,-55.607
 L 375.9,-55.58 z
M 559.586,-55.607 L 559.077,-55.6875 L 558.58,-55.8208 L 558.099,-56.0054 L 557.64,-56.2392 L 557.208,-56.5196
 L 556.808,-56.8437 L 556.444,-57.2079 L 556.12,-57.6081 L 555.839,-58.04 L 555.605,-58.4989 L 555.421,-58.9796
 L 555.288,-59.4771 L 555.207,-59.9857 L 555.18,-60.5 L 555.207,-61.0143 L 555.288,-61.5229 L 555.421,-62.0204
 L 555.605,-62.5011 L 555.839,-62.96 L 556.12,-63.3919 L 556.444,-63.7921 L 556.808,-64.1563 L 557.208,-64.4804
 L 557.55,-64.7024 L 557.55,-74 L 557.606,-74.5302 L 557.77,-75.0372 L 558.037,-75.4988 L 558.394,-75.895
 L 558.825,-76.2084 L 559.312,-76.4252 L 559.833,-76.536 L 560.367,-76.536 L 560.888,-76.4252 L 561.375,-76.2084
 L 561.806,-75.895 L 562.163,-75.4988 L 562.43,-75.0372 L 562.594,-74.5302 L 562.65,-74 L 562.65,-64.7024
 L 562.992,-64.4804 L 563.392,-64.1563 L 563.756,-63.7921 L 564.08,-63.3919 L 564.361,-62.96 L 564.595,-62.5011
 L 564.779,-62.0204 L 564.912,-61.5229 L 564.993,-61.0143 L 565.02,-60.5 L 564.993,-59.9857 L 564.912,-59.4771
 L 564.779,-58.9796 L 564.595,-58.4989 L 564.361,-58.04 L 564.08,-57.6081 L 563.756,-57.2079 L 563.392,-56.8437
 L 562.992,-56.5196 L 562.56,-56.2392 L 562.101,-56.0054 L 561.62,-55.8208 L 561.123,-55.6875 L 560.614,-55.607
 L 560.1,-55.58 z
M 743.786,-55.607 L 743.277,-55.6875 L 742.78,-55.8208 L 742.299,-56.0054 L 741.84,-56.2392 L 741.408,-56.5196
 L 741.008,-56.8437 L 740.644,-57.2079 L 740.32,-57.6081 L 740.039,-58.04 L 739.805,-58.4989 L 739.621,-58.9796
 L 739.488,-59.4771 L 739.407,-59.9857 L 739.38,-60.5 L 739.407,-61.0143 L 739.488,-61.5229 L 739.621,-62.0204
 L 739.805,-62.5011 L 740.039,-62.96 L 740.32,-63.3919 L 740.644,-63.7921 L 741.008,-64.1563 L 741.408,-64.4804
 L 741.75,-64.7024 L 741.75,-74 L 741.806,-74.5302 L 741.97,-75.0372 L 742.237,-75.4988 L 742.594,-75.895
 L 743.025,-76.2084 L 743.512,-76.4252 L 744.033,-76.536 L 744.567,-76.536 L 745.088,-76.4252 L 745.575,-76.2084
 L 746.006,-75.895 L 746.363,-75.4988 L 746.63,-75.0372 L 746.794,-74.5302 L 746.85,-74 L 746.85,-64.7024
 L 747.192,-64.4804 L 747.592,-64.1563 L 747.956,-63.7921 L 748.28,-63.3919 L 748.561,-62.96 L 748.795,-62.5011
 L 748.979,-62.0204 L 749.112,-61.5229 L 749.193,-61.0143 L 749.22,-60.5 L 749.193,-59.9857 L 749.112,-59.4771
 L 748.979,-58.9796 L 748.795,-58.4989 L 748.561,-58.04 L 748.28,-57.6081 L 747.956,-57.2079 L 747.592,-56.8437
 L 747.192,-56.5196 L 746.76,-56.2392 L 746.301,-56.0054 L 745.82,-55.8208 L 745.323,-55.6875 L 744.814,-55.607
 L 744.3,-55.58 z
M 927.986,-55.607 L 927.477,-55.6875 L 926.98,-55.8208 L 926.499,-56.0054 L 926.04,-56.2392 L 925.608,-56.5196
 L 925.208,-56.8437 L 924.844,-57.2079 L 924.52,-57.6081 L 924.239,-58.04 L 924.005,-58.4989 L 923.821,-58.9796
 L 923.688,-59.4771 L 923.607,-59.9857 L 923.58,-60.5 L 923.607,-61.0143 L 923.688,-61.5229 L 923.821,-62.0204
 L 924.005,-62.5011 L 924.239,-62.96 L 924.52,-63.3919 L 924.844,-63.7921 L 925.208,-64.1563 L 925.608,-64.4804
 L 925.95,-64.7024 L 925.95,-74 L 926.006,-74.5302 L 926.17,-75.0372 L 926.437,-75.4988 L 926.794,-75.895
 L 927.225,-76.2084 L 927.712,-76.4252 L 928.233,-76.536 L 928.767,-76.536 L 929.288,-76.4252 L 929.775,-76.2084
 L 930.206,-75.895 L 930.563,-75.4988 L 930.83,-75.0372 L 930.994,-74.5302 L 931.05,-74 L 931.05,-64.7024
 L 931.392,-64.4804 L 931.792,-64.1563 L 932.156,-63.7921 L 932.48,-63.3919 L 932.761,-62.96 L 932.995,-62.5011
 L 933.179,-62.0204 L 933.312,-61.5229 L 933.393,-61.0143 L 933.42,-60.5 L 933.393,-59.9857 L 933.312,-59.4771
 L 933.179,-58.9796 L 932.995,-58.4989 L 932.761,-58.04 L 932.48,-57.6081 L 932.156,-57.2079 L 931.792,-56.8437
 L 931.392,-56.5196 L 930.96,-56.2392 L 930.501,-56.0054 L 930.02,-55.8208 L 929.523,-55.6875 L 929.014,-55.607
 L 928.5,-55.58 z
M 467.425,-47.758 L 466.615,-47.964 L 449.594,-54.2475 L 448.628,-54.7639 L 448.006,-55.3235 L 447.515,-56
 L 447.175,-56.7639 L 447.001,-57.5819 L 447.001,-58.4181 L 447.175,-59.2361 L 447.515,-60 L 448.006,-60.6765
 L 448.628,-61.2361 L 449.352,-61.6542 L 450.147,-61.9126 L 450.979,-62 L 485.021,-62 L 486.106,-61.8501
 L 486.883,-61.5403 L 487.578,-61.0759 L 488.162,-60.4771 L 488.608,-59.7699 L 488.898,-58.9854 L 489.018,-58.1579
 L 488.963,-57.3235 L 488.737,-56.5186 L 488.347,-55.7784 L 487.813,-55.1354 L 487.156,-54.6176 L 486.406,-54.2475
 L 469.385,-47.964 L 468.261,-47.725 z
M 362.325,-20.6874 L 361.515,-20.8934 L 271.164,-54.2475 L 270.198,-54.7639 L 269.577,-55.3235 L 269.085,-56
 L 268.745,-56.7639 L 268.571,-57.5819 L 268.571,-58.4181 L 268.745,-59.2361 L 269.085,-60 L 269.577,-60.6765
 L 270.198,-61.2361 L 270.923,-61.6542 L 271.718,-61.9126 L 272.55,-62 L 362.9,-62 L 364.136,-61.8042
 L 364.9,-61.4641 L 365.577,-60.9726 L 366.136,-60.3511 L 366.554,-59.627 L 366.813,-58.8316 L 366.9,-58
 L 366.9,-24.6459 L 366.777,-23.6604 L 366.487,-22.8759 L 366.041,-22.1688 L 365.457,-21.5699 L 364.762,-21.1055
 L 363.985,-20.7958 L 363.161,-20.6544 z
M 756.215,-20.7958 L 755.438,-21.1055 L 754.743,-21.5699 L 754.159,-22.1688 L 753.713,-22.8759 L 753.423,-23.6604
 L 753.3,-24.6459 L 753.3,-58 L 753.387,-58.8316 L 753.646,-59.627 L 754.064,-60.3511 L 754.623,-60.9726
 L 755.3,-61.4641 L 756.064,-61.8042 L 757.3,-62 L 847.65,-62 L 848.482,-61.9126 L 849.277,-61.6542
 L 850.002,-61.2361 L 850.623,-60.6765 L 851.115,-60 L 851.455,-59.2361 L 851.629,-58.4181 L 851.629,-57.5819
 L 851.455,-56.7639 L 851.115,-56 L 850.623,-55.3235 L 850.002,-54.7639 L 849.036,-54.2475 L 758.685,-20.8934
 L 757.875,-20.6874 L 757.039,-20.6544 z
M 178.125,-20.6874 L 177.315,-20.8934 L 86.9643,-54.2475 L 85.9984,-54.7639 L 85.377,-55.3235 L 84.8854,-56
 L 84.5453,-56.7639 L 84.3714,-57.5819 L 84.3714,-58.4181 L 84.5453,-59.2361 L 84.8854,-60 L 85.377,-60.6765
 L 85.9984,-61.2361 L 86.7226,-61.6542 L 87.5179,-61.9126 L 88.3495,-62 L 178.7,-62 L 179.936,-61.8042
 L 180.7,-61.4641 L 181.377,-60.9726 L 181.936,-60.3511 L 182.354,-59.627 L 182.613,-58.8316 L 182.7,-58
 L 182.7,-24.6459 L 182.577,-23.6604 L 182.287,-22.8759 L 181.841,-22.1688 L 181.257,-21.5699 L 180.562,-21.1055
 L 179.785,-20.7958 L 178.961,-20.6544 z
M 572.015,-20.7958 L 571.238,-21.1055 L 570.543,-21.5699 L 569.959,-22.1688 L 569.513,-22.8759 L 569.223,-23.6604
 L 569.1,-24.6459 L 569.1,-58 L 569.187,-58.8316 L 569.446,-59.627 L 569.864,-60.3511 L 570.423,-60.9726
 L 571.1,-61.4641 L 571.864,-61.8042 L 573.1,-62 L 663.45,-62 L 664.282,-61.9126 L 665.077,-61.6542
 L 665.802,-61.2361 L 666.423,-60.6765 L 666.915,-60 L 667.255,-59.2361 L 667.429,-58.4181 L 667.429,-57.5819
 L 667.255,-56.7639 L 666.915,-56 L 666.423,-55.3235 L 665.802,-54.7639 L 664.836,-54.2475 L 574.485,-20.8934
 L 573.675,-20.6874 L 572.839,-20.6544 z
M 388.482,-18.5375 L 387.664,-18.7114 L 386.9,-19.0515 L 386.223,-19.543 L 385.664,-20.1645 L 385.246,-20.8887
 L 384.987,-21.684 L 384.9,-22.5156 L 384.9,-57.4844 L 385.023,-58.4698 L 385.313,-59.2543 L 385.759,-59.9614
 L 386.343,-60.5603 L 387.038,-61.0247 L 387.815,-61.3344 L 388.639,-61.4759 L 389.475,-61.4429 L 390.285,-61.2369
 L 437.647,-43.7525 L 438.124,-43.5403 L 438.819,-43.0759 L 439.403,-42.4771 L 439.849,-41.7699 L 440.139,-40.9854
 L 440.259,-40.1579 L 440.204,-39.3235 L 439.978,-38.5186 L 439.588,-37.7784 L 439.054,-37.1354 L 438.397,-36.6176
 L 437.647,-36.2475 L 390.285,-18.7631 L 389.318,-18.5375 z
M 546.525,-18.5571 L 545.715,-18.7631 L 498.353,-36.2475 L 497.876,-36.4597 L 497.181,-36.9241 L 496.597,-37.5229
 L 496.151,-38.2301 L 495.861,-39.0146 L 495.741,-39.8421 L 495.795,-40.6765 L 496.022,-41.4814 L 496.411,-42.2216
 L 496.946,-42.8646 L 497.603,-43.3824 L 498.353,-43.7525 L 545.715,-61.2369 L 546.682,-61.4625 L 547.518,-61.4625
 L 548.336,-61.2886 L 549.1,-60.9485 L 549.777,-60.457 L 550.336,-59.8355 L 550.754,-59.1114 L 551.013,-58.3161
 L 551.1,-57.4844 L 551.1,-22.5156 L 550.977,-21.5302 L 550.687,-20.7457 L 550.241,-20.0385 L 549.657,-19.4397
 L 548.962,-18.9753 L 548.185,-18.6655 L 547.361,-18.5241 z
M 204.7,-18 L 203.464,-18.1958 L 202.7,-18.5359 L 202.023,-19.0274 L 201.464,-19.6489 L 201.046,-20.373
 L 200.787,-21.1684 L 200.7,-22 L 200.7,-55.3541 L 200.823,-56.3396 L 201.113,-57.1241 L 201.559,-57.8312
 L 202.143,-58.43 L 202.838,-58.8945 L 203.615,-59.2042 L 204.439,-59.3456 L 205.275,-59.3126 L 206.085,-59.1066
 L 296.436,-25.7525 L 297.402,-25.2361 L 298.023,-24.6765 L 298.515,-24 L 298.855,-23.2361 L 299.029,-22.4181
 L 299.029,-21.5819 L 298.855,-20.7639 L 298.515,-20 L 298.023,-19.3235 L 297.402,-18.7639 L 296.677,-18.3458
 L 295.882,-18.0874 L 295.05,-18 z
M 640.95,-18 L 640.118,-18.0874 L 639.323,-18.3458 L 638.598,-18.7639 L 637.977,-19.3235 L 637.485,-20
 L 637.145,-20.7639 L 636.971,-21.5819 L 636.971,-22.4181 L 637.145,-23.2361 L 637.485,-24 L 637.977,-24.6765
 L 638.598,-25.2361 L 639.564,-25.7525 L 729.915,-59.1066 L 730.725,-59.3126 L 731.561,-59.3456 L 732.385,-59.2042
 L 733.162,-58.8945 L 733.857,-58.43 L 734.441,-57.8312 L 734.887,-57.1241 L 735.177,-56.3396 L 735.3,-55.3541
 L 735.3,-22 L 735.213,-21.1684 L 734.954,-20.373 L 734.536,-19.6489 L 733.977,-19.0274 L 733.3,-18.5359
 L 732.536,-18.1958 L 731.3,-18 z
M 22,-18 L 20.7639,-18.1958 L 20,-18.5359 L 19.3235,-19.0274 L 18.7639,-19.6489 L 18.3458,-20.373
 L 18.0874,-21.1684 L 18,-22 L 18,-54.8004 L 18.1233,-55.7858 L 18.4129,-56.5703 L 18.8593,-57.2774
 L 19.4429,-57.8763 L 20.1383,-58.3407 L 20.9151,-58.6504 L 21.7392,-58.7919 L 22.5748,-58.7589 L 23.3853,-58.5528
 L 112.236,-25.7525 L 113.202,-25.2361 L 113.823,-24.6765 L 114.315,-24 L 114.655,-23.2361 L 114.829,-22.4181
 L 114.829,-21.5819 L 114.655,-20.7639 L 114.315,-20 L 113.823,-19.3235 L 113.202,-18.7639 L 112.477,-18.3458
 L 111.682,-18.0874 L 110.85,-18 z
M 825.15,-18 L 824.318,-18.0874 L 823.523,-18.3458 L 822.798,-18.7639 L 822.177,-19.3235 L 821.685,-20
 L 821.345,-20.7639 L 821.171,-21.5819 L 821.171,-22.4181 L 821.345,-23.2361 L 821.685,-24 L 822.177,-24.6765
 L 822.798,-25.2361 L 823.764,-25.7525 L 912.615,-58.5528 L 913.425,-58.7589 L 914.261,-58.7919 L 915.085,-58.6504
 L 915.862,-58.3407 L 916.557,-57.8763 L 917.141,-57.2774 L 917.587,-56.5703 L 917.877,-55.7858 L 918,-54.8004
 L 918,-22 L 917.913,-21.1684 L 917.654,-20.373 L 917.236,-19.6489 L 916.677,-19.0274 L 916,-18.5359
 L 915.236,-18.1958 L 914,-18 z
M 450.979,-18 L 449.894,-18.1499 L 449.117,-18.4597 L 448.422,-18.9241 L 447.838,-19.5229 L 447.392,-20.2301
 L 447.102,-21.0146 L 446.982,-21.8421 L 447.037,-22.6765 L 447.263,-23.4814 L 447.653,-24.2216 L 448.187,-24.8646
 L 448.844,-25.3824 L 449.594,-25.7525 L 466.615,-32.036 L 467.739,-32.275 L 468.575,-32.242 L 469.385,-32.036
 L 486.406,-25.7525 L 487.372,-25.2361 L 487.994,-24.6765 L 488.485,-24 L 488.825,-23.2361 L 488.999,-22.4181
 L 488.999,-21.5819 L 488.825,-20.7639 L 488.485,-20 L 487.994,-19.3235 L 487.372,-18.7639 L 486.648,-18.3458
 L 485.853,-18.0874 L 485.021,-18 z
" stroke="black" fill="lightgray" stroke-width="0.5"/>
</svg>
