<?xml version="1.0" standalone="no"?>
<!DOCTYPE svg PUBLIC "-//W3C//DTD SVG 1.1//EN" "http://www.w3.org/Graphics/SVG/1.1/DTD/svg11.dtd">
<svg width="798mm" height="80mm" viewBox="0 -80 798 80" xmlns="http://www.w3.org/2000/svg" version="1.1">
<title>OpenSCAD Model</title>
<path d="
M 798,-80 L 0,-80 L 0,-0 L 4.95,-0 L 4.95,-6 L 5.00572,-6.53017
 L 5.17046,-7.03717 L 5.437,-7.49884 L 5.79372,-7.895 L 6.22499,-8.20836 L 6.71201,-8.42519 L 7.23344,-8.53603
 L 7.76654,-8.53603 L 8.28798,-8.42519 L 8.77499,-8.20836 L 9.20627,-7.895 L 9.56299,-7.49884 L 9.82953,-7.03717
 L 9.99426,-6.53017 L 10.05,-6 L 10.05,-0 L 161.55,-0 L 161.55,-6 L 161.606,-6.53017
 L 161.77,-7.03717 L 162.037,-7.49884 L 162.394,-7.895 L 162.825,-8.20836 L 163.312,-8.42519 L 163.833,-8.53603
 L 164.367,-8.53603 L 164.888,-8.42519 L 165.375,-8.20836 L 165.806,-7.895 L 166.163,-7.49884 L 166.43,-7.03717
 L 166.594,-6.53017 L 166.65,-6 L 166.65,-0 L 318.15,-0 L 318.15,-6 L 318.206,-6.53017
 L 318.37,-7.03717 L 318.637,-7.49884 L 318.994,-7.895 L 319.425,-8.20836 L 319.912,-8.42519 L 320.433,-8.53603
 L 320.967,-8.53603 L 321.488,-8.42519 L 321.975,-8.20836 L 322.406,-7.895 L 322.763,-7.49884 L 323.03,-7.03717
 L 323.194,-6.53017 L 323.25,-6 L 323.25,-0 L 474.75,-0 L 474.75,-6 L 474.806,-6.53017
 L 474.97,-7.03717 L 475.237,-7.49884 L 475.594,-7.895 L 476.025,-8.20836 L 476.512,-8.42519 L 477.033,-8.53603
 L 477.567,-8.53603 L 478.088,-8.42519 L 478.575,-8.20836 L 479.006,-7.895 L 479.363,-7.49884 L 479.63,-7.03717
 L 479.794,-6.53017 L 479.85,-6 L 479.85,-0 L 631.35,-0 L 631.35,-6 L 631.406,-6.53017
 L 631.57,-7.03717 L 631.837,-7.49884 L 632.194,-7.895 L 632.625,-8.20836 L 633.112,-8.42519 L 633.633,-8.53603
 L 634.167,-8.53603 L 634.688,-8.42519 L 635.175,-8.20836 L 635.606,-7.895 L 635.963,-7.49884 L 636.23,-7.03717
 L 636.394,-6.53017 L 636.45,-6 L 636.45,-0 L 787.95,-0 L 787.95,-6 L 788.006,-6.53017
 L 788.17,-7.03717 L 788.437,-7.49884 L 788.794,-7.895 L 789.225,-8.20836 L 789.712,-8.42519 L 790.233,-8.53603
 L 790.767,-8.53603 L 791.288,-8.42519 L 791.775,-8.20836 L 792.206,-7.895 L 792.563,-7.49884 L 792.83,-7.03717
 L 792.994,-6.53017 L 793.05,-6 L 793.05,-0 L 798,-0 z
M 6.98573,-55.607 L 6.47708,-55.6875 L 5.97964,-55.8208 L 5.49887,-56.0054 L 5.04001,-56.2392 L 4.60811,-56.5196
 L 4.20789,-56.8437 L 3.84373,-57.2079 L 3.51964,-57.6081 L 3.23917,-58.04 L 3.00537,-58.4989 L 2.82082,-58.9796
 L 2.68752,-59.4771 L 2.60696,-59.9857 L 2.58,-60.5 L 2.60696,-61.0143 L 2.68752,-61.5229 L 2.82082,-62.0204
 L 3.00537,-62.5011 L 3.23917,-62.96 L 3.51964,-63.3919 L 3.84373,-63.7921 L 4.20789,-64.1563 L 4.60811,-64.4804
 L 4.95001,-64.7024 L 4.95001,-74 L 5.00574,-74.5302 L 5.17047,-75.0372 L 5.43701,-75.4988 L 5.79373,-75.895
 L 6.22501,-76.2084 L 6.71202,-76.4252 L 7.23346,-76.536 L 7.76654,-76.536 L 8.28798,-76.4252 L 8.77499,-76.2084
 L 9.20627,-75.895 L 9.56299,-75.4988 L 9.82953,-75.0372 L 9.99426,-74.5302 L 10.05,-74 L 10.05,-64.7024
 L 10.3919,-64.4804 L 10.7921,-64.1563 L 11.1563,-63.7921 L 11.4804,-63.3919 L 11.7608,-62.96 L 11.9946,-62.5011
 L 12.1792,-62.0204 L 12.3125,-61.5229 L 12.393,-61.0143 L 12.42,-60.5 L 12.393,-59.9857 L 12.3125,-59.4771
 L 12.1792,-58.9796 L 11.9946,-58.4989 L 11.7608,-58.04 L 11.4804,-57.6081 L 11.1563,-57.2079 L 10.7921,-56.8437
 L 10.3919,-56.5196 L 9.95999,-56.2392 L 9.50113,-56.0054 L 9.02036,-55.8208 L 8.52292,-55.6875 L 8.01427,-55.607
 L 7.5,-55.58 z
M 163.586,-55.607 L 163.077,-55.6875 L 162.58,-55.8208 L 162.099,-56.0054 L 161.64,-56.2392 L 161.208,-56.5196
 L 160.808,-56.8437 L 160.444,-57.2079 L 160.12,-57.6081 L 159.839,-58.04 L 159.605,-58.4989 L 159.421,-58.9796
 L 159.288,-59.4771 L 159.207,-59.9857 L 159.18,-60.5 L 159.207,-61.0143 L 159.288,-61.5229 L 159.421,-62.0204
 L 159.605,-62.5011 L 159.839,-62.96 L 160.12,-63.3919 L 160.444,-63.7921 L 160.808,-64.1563 L 161.208,-64.4804
 L 161.55,-64.7024 L 161.55,-74 L 161.606,-74.5302 L 161.77,-75.0372 L 162.037,-75.4988 L 162.394,-75.895
 L 162.825,-76.2084 L 163.312,-76.4252 L 163.833,-76.536 L 164.367,-76.536 L 164.888,-76.4252 L 165.375,-76.2084
 L 165.806,-75.895 L 166.163,-75.4988 L 166.43,-75.0372 L 166.594,-74.5302 L 166.65,-74 L 166.65,-64.7024
 L 166.992,-64.4804 L 167.392,-64.1563 L 167.756,-63.7921 L 168.08,-63.3919 L 168.361,-62.96 L 168.595,-62.5011
 L 168.779,-62.0204 L 168.912,-61.5229 L 168.993,-61.0143 L 169.02,-60.5 L 168.993,-59.9857 L 168.912,-59.4771
 L 168.779,-58.9796 L 168.595,-58.4989 L 168.361,-58.04 L 168.08,-57.6081 L 167.756,-57.2079 L 167.392,-56.8437
 L 166.992,-56.5196 L 166.56,-56.2392 L 166.101,-56.0054 L 165.62,-55.8208 L 165.123,-55.6875 L 164.614,-55.607
 L 164.1,-55.58 z
M 320.186,-55.607 L 319.677,-55.6875 L 319.18,-55.8208 L 318.699,-56.0054 L 318.24,-56.2392 L 317.808,-56.5196
 L 317.408,-56.8437 L 317.044,-57.2079 L 316.72,-57.6081 L 316.439,-58.04 L 316.205,-58.4989 L 316.021,-58.9796
 L 315.888,-59.4771 L 315.807,-59.9857 L 315.78,-60.5 L 315.807,-61.0143 L 315.888,-61.5229 L 316.021,-62.0204
 L 316.205,-62.5011 L 316.439,-62.96 L 316.72,-63.3919 L 317.044,-63.7921 L 317.408,-64.1563 L 317.808,-64.4804
 L 318.15,-64.7024 L 318.15,-74 L 318.206,-74.5302 L 318.37,-75.0372 L 318.637,-75.4988 L 318.994,-75.895
 L 319.425,-76.2084 L 319.912,-76.4252 L 320.433,-76.536 L 320.967,-76.536 L 321.488,-76.4252 L 321.975,-76.2084
 L 322.406,-75.895 L 322.763,-75.4988 L 323.03,-75.0372 L 323.194,-74.5302 L 323.25,-74 L 323.25,-64.7024
 L 323.592,-64.4804 L 323.992,-64.1563 L 324.356,-63.7921 L 324.68,-63.3919 L 324.961,-62.96 L 325.195,-62.5011
 L 325.379,-62.0204 L 325.512,-61.5229 L 325.593,-61.0143 L 325.62,-60.5 L 325.593,-59.9857 L 325.512,-59.4771
 L 325.379,-58.9796 L 325.195,-58.4989 L 324.961,-58.04 L 324.68,-57.6081 L 324.356,-57.2079 L 323.992,-56.8437
 L 323.592,-56.5196 L 323.16,-56.2392 L 322.701,-56.0054 L 322.22,-55.8208 L 321.723,-55.6875 L 321.214,-55.607
 L 320.7,-55.58 z
M 476.786,-55.607 L 476.277,-55.6875 L 475.78,-55.8208 L 475.299,-56.0054 L 474.84,-56.2392 L 474.408,-56.5196
 L 474.008,-56.8437 L 473.644,-57.2079 L 473.32,-57.6081 L 473.039,-58.04 L 472.805,-58.4989 L 472.621,-58.9796
 L 472.488,-59.4771 L 472.407,-59.9857 L 472.38,-60.5 L 472.407,-61.0143 L 472.488,-61.5229 L 472.621,-62.0204
 L 472.805,-62.5011 L 473.039,-62.96 L 473.32,-63.3919 L 473.644,-63.7921 L 474.008,-64.1563 L 474.408,-64.4804
 L 474.75,-64.7024 L 474.75,-74 L 474.806,-74.5302 L 474.97,-75.0372 L 475.237,-75.4988 L 475.594,-75.895
 L 476.025,-76.2084 L 476.512,-76.4252 L 477.033,-76.536 L 477.567,-76.536 L 478.088,-76.4252 L 478.575,-76.2084
 L 479.006,-75.895 L 479.363,-75.4988 L 479.63,-75.0372 L 479.794,-74.5302 L 479.85,-74 L 479.85,-64.7024
 L 480.192,-64.4804 L 480.592,-64.1563 L 480.956,-63.7921 L 481.28,-63.3919 L 481.561,-62.96 L 481.795,-62.5011
 L 481.979,-62.0204 L 482.112,-61.5229 L 482.193,-61.0143 L 482.22,-60.5 L 482.193,-59.9857 L 482.112,-59.4771
 L 481.979,-58.9796 L 481.795,-58.4989 L 481.561,-58.04 L 481.28,-57.6081 L 480.956,-57.2079 L 480.592,-56.8437
 L 480.192,-56.5196 L 479.76,-56.2392 L 479.301,-56.0054 L 478.82,-55.8208 L 478.323,-55.6875 L 477.814,-55.607
 L 477.3,-55.58 z
M 633.386,-55.607 L 632.877,-55.6875 L 632.38,-55.8208 L 631.899,-56.0054 L 631.44,-56.2392 L 631.008,-56.5196
 L 630.608,-56.8437 L 630.244,-57.2079 L 629.92,-57.6081 L 629.639,-58.04 L 629.405,-58.4989 L 629.221,-58.9796
 L 629.088,-59.4771 L 629.007,-59.9857 L 628.98,-60.5 L 629.007,-61.0143 L 629.088,-61.5229 L 629.221,-62.0204
 L 629.405,-62.5011 L 629.639,-62.96 L 629.92,-63.3919 L 630.244,-63.7921 L 630.608,-64.1563 L 631.008,-64.4804
 L 631.35,-64.7024 L 631.35,-74 L 631.406,-74.5302 L 631.57,-75.0372 L 631.837,-75.4988 L 632.194,-75.895
 L 632.625,-76.2084 L 633.112,-76.4252 L 633.633,-76.536 L 634.167,-76.536 L 634.688,-76.4252 L 635.175,-76.2084
 L 635.606,-75.895 L 635.963,-75.4988 L 636.23,-75.0372 L 636.394,-74.5302 L 636.45,-74 L 636.45,-64.7024
 L 636.792,-64.4804 L 637.192,-64.1563 L 637.556,-63.7921 L 637.88,-63.3919 L 638.161,-62.96 L 638.395,-62.5011
 L 638.579,-62.0204 L 638.712,-61.5229 L 638.793,-61.0143 L 638.82,-60.5 L 638.793,-59.9857 L 638.712,-59.4771
 L 638.579,-58.9796 L 638.395,-58.4989 L 638.161,-58.04 L 637.88,-57.6081 L 637.556,-57.2079 L 637.192,-56.8437
 L 636.792,-56.5196 L 636.36,-56.2392 L 635.901,-56.0054 L 635.42,-55.8208 L 634.923,-55.6875 L 634.414,-55.607
 L 633.9,-55.58 z
M 789.986,-55.607 L 789.477,-55.6875 L 788.98,-55.8208 L 788.499,-56.0054 L 788.04,-56.2392 L 787.608,-56.5196
 L 787.208,-56.8437 L 786.844,-57.2079 L 786.52,-57.6081 L 786.239,-58.04 L 786.005,-58.4989 L 785.821,-58.9796
 L 785.688,-59.4771 L 785.607,-59.9857 L 785.58,-60.5 L 785.607,-61.0143 L 785.688,-61.5229 L 785.821,-62.0204
 L 786.005,-62.5011 L 786.239,-62.96 L 786.52,-63.3919 L 786.844,-63.7921 L 787.208,-64.1563 L 787.608,-64.4804
 L 787.95,-64.7024 L 787.95,-74 L 788.006,-74.5302 L 788.17,-75.0372 L 788.437,-75.4988 L 788.794,-75.895
 L 789.225,-76.2084 L 789.712,-76.4252 L 790.233,-76.536 L 790.767,-76.536 L 791.288,-76.4252 L 791.775,-76.2084
 L 792.206,-75.895 L 792.563,-75.4988 L 792.83,-75.0372 L 792.994,-74.5302 L 793.05,-74 L 793.05,-64.7024
 L 793.392,-64.4804 L 793.792,-64.1563 L 794.156,-63.7921 L 794.48,-63.3919 L 794.761,-62.96 L 794.995,-62.5011
 L 795.179,-62.0204 L 795.312,-61.5229 L 795.393,-61.0143 L 795.42,-60.5 L 795.393,-59.9857 L 795.312,-59.4771
 L 795.179,-58.9796 L 794.995,-58.4989 L 794.761,-58.04 L 794.48,-57.6081 L 794.156,-57.2079 L 793.792,-56.8437
 L 793.392,-56.5196 L 792.96,-56.2392 L 792.501,-56.0054 L 792.02,-55.8208 L 791.523,-55.6875 L 791.014,-55.607
 L 790.5,-55.58 z
M 398.204,-48.0717 L 397.407,-48.3228 L 383.57,-54.331 L 382.812,-54.7639 L 382.191,-55.3235 L 381.699,-56
 L 381.359,-56.7639 L 381.185,-57.5819 L 381.185,-58.4181 L 381.359,-59.2361 L 381.699,-60 L 382.191,-60.6765
 L 382.812,-61.2361 L 383.536,-61.6542 L 384.332,-61.9126 L 385.163,-62 L 412.837,-62 L 413.704,-61.9048
 L 414.497,-61.639 L 415.217,-61.2142 L 415.834,-60.649 L 416.319,-59.968 L 416.652,-59.2009 L 416.818,-58.3814
 L 416.811,-57.5452 L 416.629,-56.7289 L 416.282,-55.9682 L 415.784,-55.2962 L 415.158,-54.7424 L 414.43,-54.331
 L 400.593,-48.3228 L 399.868,-48.087 L 399.037,-47.9919 z
M 306.904,-21.897 L 306.107,-22.148 L 231.991,-54.331 L 231.233,-54.7639 L 230.612,-55.3235 L 230.12,-56
 L 229.78,-56.7639 L 229.606,-57.5819 L 229.606,-58.4181 L 229.78,-59.2361 L 230.12,-60 L 230.612,-60.6765
 L 231.233,-61.2361 L 231.958,-61.6542 L 232.753,-61.9126 L 233.585,-62 L 307.7,-62 L 308.936,-61.8042
 L 309.7,-61.4641 L 310.377,-60.9726 L 310.936,-60.3511 L 311.354,-59.627 L 311.613,-58.8316 L 311.7,-58
 L 311.7,-25.817 L 311.515,-24.6161 L 311.182,-23.8491 L 310.697,-23.168 L 310.081,-22.6028 L 309.361,-22.178
 L 308.568,-21.9123 L 307.737,-21.8172 z
M 646.032,-21.9123 L 645.239,-22.178 L 644.519,-22.6028 L 643.903,-23.168 L 643.418,-23.8491 L 643.085,-24.6161
 L 642.9,-25.817 L 642.9,-58 L 642.987,-58.8316 L 643.246,-59.627 L 643.664,-60.3511 L 644.223,-60.9726
 L 644.9,-61.4641 L 645.664,-61.8042 L 646.9,-62 L 721.015,-62 L 721.847,-61.9126 L 722.642,-61.6542
 L 723.367,-61.2361 L 723.988,-60.6765 L 724.48,-60 L 724.82,-59.2361 L 724.994,-58.4181 L 724.994,-57.5819
 L 724.82,-56.7639 L 724.48,-56 L 723.988,-55.3235 L 723.367,-54.7639 L 722.609,-54.331 L 648.493,-22.148
 L 647.696,-21.897 L 646.863,-21.8172 z
M 150.304,-21.897 L 149.507,-22.148 L 75.3914,-54.331 L 74.6334,-54.7639 L 74.012,-55.3235 L 73.5204,-56
 L 73.1803,-56.7639 L 73.0065,-57.5819 L 73.0065,-58.4181 L 73.1803,-59.2361 L 73.5204,-60 L 74.012,-60.6765
 L 74.6334,-61.2361 L 75.3576,-61.6542 L 76.1529,-61.9126 L 76.9845,-62 L 151.1,-62 L 152.336,-61.8042
 L 153.1,-61.4641 L 153.777,-60.9726 L 154.336,-60.3511 L 154.754,-59.627 L 155.013,-58.8316 L 155.1,-58
 L 155.1,-25.817 L 154.915,-24.6161 L 154.582,-23.8491 L 154.097,-23.168 L 153.481,-22.6028 L 152.761,-22.178
 L 151.968,-21.9123 L 151.137,-21.8172 z
M 489.432,-21.9123 L 488.639,-22.178 L 487.919,-22.6028 L 487.303,-23.168 L 486.818,-23.8491 L 486.485,-24.6161
 L 486.3,-25.817 L 486.3,-58 L 486.387,-58.8316 L 486.646,-59.627 L 487.064,-60.3511 L 487.623,-60.9726
 L 488.3,-61.4641 L 489.064,-61.8042 L 490.3,-62 L 564.415,-62 L 565.247,-61.9126 L 566.042,-61.6542
 L 566.767,-61.2361 L 567.388,-60.6765 L 567.88,-60 L 568.22,-59.2361 L 568.394,-58.4181 L 568.394,-57.5819
 L 568.22,-56.7639 L 567.88,-56 L 567.388,-55.3235 L 566.767,-54.7639 L 566.009,-54.331 L 491.893,-22.148
 L 491.096,-21.897 L 490.263,-21.8172 z
M 333.282,-19.6586 L 332.464,-19.8325 L 331.7,-20.1726 L 331.023,-20.6642 L 330.464,-21.2856 L 330.046,-22.0098
 L 329.787,-22.8051 L 329.7,-23.6367 L 329.7,-56.3633 L 329.885,-57.5642 L 330.218,-58.3313 L 330.703,-59.0123
 L 331.319,-59.5775 L 332.039,-60.0023 L 332.832,-60.268 L 333.663,-60.3631 L 334.496,-60.2834 L 335.293,-60.0323
 L 372.977,-43.669 L 373.765,-43.2142 L 374.381,-42.649 L 374.866,-41.968 L 375.199,-41.2009 L 375.365,-40.3814
 L 375.358,-39.5452 L 375.176,-38.7289 L 374.829,-37.9682 L 374.331,-37.2962 L 373.705,-36.7424 L 372.977,-36.331
 L 335.293,-19.9677 L 334.118,-19.6586 z
M 463.504,-19.7166 L 462.707,-19.9677 L 425.023,-36.331 L 424.235,-36.7858 L 423.619,-37.351 L 423.134,-38.032
 L 422.801,-38.7991 L 422.635,-39.6186 L 422.642,-40.4548 L 422.824,-41.2711 L 423.171,-42.0318 L 423.669,-42.7038
 L 424.295,-43.2576 L 425.023,-43.669 L 462.707,-60.0323 L 463.882,-60.3414 L 464.718,-60.3414 L 465.536,-60.1675
 L 466.3,-59.8274 L 466.977,-59.3358 L 467.536,-58.7144 L 467.954,-57.9902 L 468.213,-57.1949 L 468.3,-56.3633
 L 468.3,-23.6367 L 468.115,-22.4358 L 467.782,-21.6687 L 467.297,-20.9877 L 466.681,-20.4225 L 465.961,-19.9977
 L 465.168,-19.732 L 464.337,-19.6369 z
M 177.1,-18 L 175.864,-18.1958 L 175.1,-18.5359 L 174.423,-19.0274 L 173.864,-19.6489 L 173.446,-20.373
 L 173.187,-21.1684 L 173.1,-22 L 173.1,-54.1829 L 173.285,-55.3839 L 173.618,-56.1509 L 174.103,-56.8319
 L 174.719,-57.3972 L 175.439,-57.822 L 176.232,-58.0877 L 177.063,-58.1828 L 177.896,-58.103 L 178.693,-57.852
 L 252.809,-25.669 L 253.567,-25.2361 L 254.188,-24.6765 L 254.68,-24 L 255.02,-23.2361 L 255.193,-22.4181
 L 255.193,-21.5819 L 255.02,-20.7639 L 254.68,-20 L 254.188,-19.3235 L 253.567,-18.7639 L 252.842,-18.3458
 L 252.047,-18.0874 L 251.215,-18 z
M 546.785,-18 L 545.953,-18.0874 L 545.158,-18.3458 L 544.433,-18.7639 L 543.812,-19.3235 L 543.32,-20
 L 542.98,-20.7639 L 542.806,-21.5819 L 542.806,-22.4181 L 542.98,-23.2361 L 543.32,-24 L 543.812,-24.6765
 L 544.433,-25.2361 L 545.191,-25.669 L 619.307,-57.852 L 620.104,-58.103 L 620.937,-58.1828 L 621.768,-58.0877
 L 622.561,-57.822 L 623.281,-57.3972 L 623.897,-56.8319 L 624.382,-56.1509 L 624.715,-55.3839 L 624.9,-54.1829
 L 624.9,-22 L 624.813,-21.1684 L 624.554,-20.373 L 624.136,-19.6489 L 623.577,-19.0274 L 622.9,-18.5359
 L 622.136,-18.1958 L 620.9,-18 z
M 22,-18 L 20.7639,-18.1958 L 20,-18.5359 L 19.3235,-19.0274 L 18.7639,-19.6489 L 18.3458,-20.373
 L 18.0874,-21.1684 L 18,-22 L 18,-53.5316 L 18.1845,-54.7325 L 18.5176,-55.4996 L 19.0029,-56.1806
 L 19.6191,-56.7458 L 20.3394,-57.1706 L 21.1323,-57.4364 L 21.9631,-57.5314 L 22.7955,-57.4517 L 23.5932,-57.2006
 L 96.2086,-25.669 L 96.9666,-25.2361 L 97.588,-24.6765 L 98.0795,-24 L 98.4196,-23.2361 L 98.5935,-22.4181
 L 98.5935,-21.5819 L 98.4196,-20.7639 L 98.0795,-20 L 97.588,-19.3235 L 96.9666,-18.7639 L 96.2424,-18.3458
 L 95.4471,-18.0874 L 94.6154,-18 z
M 703.385,-18 L 702.553,-18.0874 L 701.758,-18.3458 L 701.033,-18.7639 L 700.412,-19.3235 L 699.92,-20
 L 699.58,-20.7639 L 699.406,-21.5819 L 699.406,-22.4181 L 699.58,-23.2361 L 699.92,-24 L 700.412,-24.6765
 L 701.033,-25.2361 L 701.791,-25.669 L 774.407,-57.2006 L 775.204,-57.4517 L 776.037,-57.5314 L 776.868,-57.4364
 L 777.661,-57.1706 L 778.381,-56.7458 L 778.997,-56.1806 L 779.482,-55.4996 L 779.815,-54.7325 L 780,-53.5316
 L 780,-22 L 779.913,-21.1684 L 779.654,-20.373 L 779.236,-19.6489 L 778.677,-19.0274 L 778,-18.5359
 L 777.236,-18.1958 L 776,-18 z
M 385.163,-18 L 384.296,-18.0952 L 383.503,-18.361 L 382.783,-18.7858 L 382.166,-19.351 L 381.681,-20.032
 L 381.348,-20.7991 L 381.182,-21.6186 L 381.189,-22.4548 L 381.371,-23.2711 L 381.718,-24.0318 L 382.216,-24.7038
 L 382.842,-25.2576 L 383.57,-25.669 L 397.407,-31.6772 L 398.132,-31.913 L 398.963,-32.0081 L 399.796,-31.9283
 L 400.593,-31.6772 L 414.43,-25.669 L 415.188,-25.2361 L 415.809,-24.6765 L 416.301,-24 L 416.641,-23.2361
 L 416.815,-22.4181 L 416.815,-21.5819 L 416.641,-20.7639 L 416.301,-20 L 415.809,-19.3235 L 415.188,-18.7639
 L 414.464,-18.3458 L 413.668,-18.0874 L 412.837,-18 z
" stroke="black" fill="lightgray" stroke-width="0.5"/>
</svg>
