<?xml version="1.0" standalone="no"?>
<!DOCTYPE svg PUBLIC "-//W3C//DTD SVG 1.1//EN" "http://www.w3.org/Graphics/SVG/1.1/DTD/svg11.dtd">
<svg width="685mm" height="80mm" viewBox="0 -80 685 80" xmlns="http://www.w3.org/2000/svg" version="1.1">
<title>OpenSCAD Model</title>
<path d="
M 685,-80 L 0,-80 L 0,-0 L 4.95,-0 L 4.95,-6 L 5.00572,-6.53017
 L 5.17046,-7.03717 L 5.437,-7.49884 L 5.79372,-7.895 L 6.22499,-8.20836 L 6.71201,-8.42519 L 7.23344,-8.53603
 L 7.76654,-8.53603 L 8.28798,-8.42519 L 8.77499,-8.20836 L 9.20627,-7.895 L 9.56299,-7.49884 L 9.82953,-7.03717
 L 9.99426,-6.53017 L 10.05,-6 L 10.05,-0 L 138.95,-0 L 138.95,-6 L 139.006,-6.53017
 L 139.17,-7.03717 L 139.437,-7.49884 L 139.794,-7.895 L 140.225,-8.20836 L 140.712,-8.42519 L 141.233,-8.53603
 L 141.767,-8.53603 L 142.288,-8.42519 L 142.775,-8.20836 L 143.206,-7.895 L 143.563,-7.49884 L 143.83,-7.03717
 L 143.994,-6.53017 L 144.05,-6 L 144.05,-0 L 272.95,-0 L 272.95,-6 L 273.006,-6.53017
 L 273.17,-7.03717 L 273.437,-7.49884 L 273.794,-7.895 L 274.225,-8.20836 L 274.712,-8.42519 L 275.233,-8.53603
 L 275.767,-8.53603 L 276.288,-8.42519 L 276.775,-8.20836 L 277.206,-7.895 L 277.563,-7.49884 L 277.83,-7.03717
 L 277.994,-6.53017 L 278.05,-6 L 278.05,-0 L 406.95,-0 L 406.95,-6 L 407.006,-6.53017
 L 407.17,-7.03717 L 407.437,-7.49884 L 407.794,-7.895 L 408.225,-8.20836 L 408.712,-8.42519 L 409.233,-8.53603
 L 409.767,-8.53603 L 410.288,-8.42519 L 410.775,-8.20836 L 411.206,-7.895 L 411.563,-7.49884 L 411.83,-7.03717
 L 411.994,-6.53017 L 412.05,-6 L 412.05,-0 L 540.95,-0 L 540.95,-6 L 541.006,-6.53017
 L 541.17,-7.03717 L 541.437,-7.49884 L 541.794,-7.895 L 542.225,-8.20836 L 542.712,-8.42519 L 543.233,-8.53603
 L 543.767,-8.53603 L 544.288,-8.42519 L 544.775,-8.20836 L 545.206,-7.895 L 545.563,-7.49884 L 545.83,-7.03717
 L 545.994,-6.53017 L 546.05,-6 L 546.05,-0 L 674.95,-0 L 674.95,-6 L 675.006,-6.53017
 L 675.17,-7.03717 L 675.437,-7.49884 L 675.794,-7.895 L 676.225,-8.20836 L 676.712,-8.42519 L 677.233,-8.53603
 L 677.767,-8.53603 L 678.288,-8.42519 L 678.775,-8.20836 L 679.206,-7.895 L 679.563,-7.49884 L 679.83,-7.03717
 L 679.994,-6.53017 L 680.05,-6 L 680.05,-0 L 685,-0 z
M 6.98573,-55.607 L 6.47708,-55.6875 L 5.97964,-55.8208 L 5.49887,-56.0054 L 5.04001,-56.2392 L 4.60811,-56.5196
 L 4.20789,-56.8437 L 3.84373,-57.2079 L 3.51964,-57.6081 L 3.23917,-58.04 L 3.00537,-58.4989 L 2.82082,-58.9796
 L 2.68752,-59.4771 L 2.60696,-59.9857 L 2.58,-60.5 L 2.60696,-61.0143 L 2.68752,-61.5229 L 2.82082,-62.0204
 L 3.00537,-62.5011 L 3.23917,-62.96 L 3.51964,-63.3919 L 3.84373,-63.7921 L 4.20789,-64.1563 L 4.60811,-64.4804
 L 4.95001,-64.7024 L 4.95001,-74 L 5.00574,-74.5302 L 5.17047,-75.0372 L 5.43701,-75.4988 L 5.79373,-75.895
 L 6.22501,-76.2084 L 6.71202,-76.4252 L 7.23346,-76.536 L 7.76654,-76.536 L 8.28798,-76.4252 L 8.77499,-76.2084
 L 9.20627,-75.895 L 9.56299,-75.4988 L 9.82953,-75.0372 L 9.99426,-74.5302 L 10.05,-74 L 10.05,-64.7024
 L 10.3919,-64.4804 L 10.7921,-64.1563 L 11.1563,-63.7921 L 11.4804,-63.3919 L 11.7608,-62.96 L 11.9946,-62.5011
 L 12.1792,-62.0204 L 12.3125,-61.5229 L 12.393,-61.0143 L 12.42,-60.5 L 12.393,-59.9857 L 12.3125,-59.4771
 L 12.1792,-58.9796 L 11.9946,-58.4989 L 11.7608,-58.04 L 11.4804,-57.6081 L 11.1563,-57.2079 L 10.7921,-56.8437
 L 10.3919,-56.5196 L 9.95999,-56.2392 L 9.50113,-56.0054 L 9.02036,-55.8208 L 8.52292,-55.6875 L 8.01427,-55.607
 L 7.5,-55.58 z
M 140.986,-55.607 L 140.477,-55.6875 L 139.98,-55.8208 L 139.499,-56.0054 L 139.04,-56.2392 L 138.608,-56.5196
 L 138.208,-56.8437 L 137.844,-57.2079 L 137.52,-57.6081 L 137.239,-58.04 L 137.005,-58.4989 L 136.821,-58.9796
 L 136.688,-59.4771 L 136.607,-59.9857 L 136.58,-60.5 L 136.607,-61.0143 L 136.688,-61.5229 L 136.821,-62.0204
 L 137.005,-62.5011 L 137.239,-62.96 L 137.52,-63.3919 L 137.844,-63.7921 L 138.208,-64.1563 L 138.608,-64.4804
 L 138.95,-64.7024 L 138.95,-74 L 139.006,-74.5302 L 139.17,-75.0372 L 139.437,-75.4988 L 139.794,-75.895
 L 140.225,-76.2084 L 140.712,-76.4252 L 141.233,-76.536 L 141.767,-76.536 L 142.288,-76.4252 L 142.775,-76.2084
 L 143.206,-75.895 L 143.563,-75.4988 L 143.83,-75.0372 L 143.994,-74.5302 L 144.05,-74 L 144.05,-64.7024
 L 144.392,-64.4804 L 144.792,-64.1563 L 145.156,-63.7921 L 145.48,-63.3919 L 145.761,-62.96 L 145.995,-62.5011
 L 146.179,-62.0204 L 146.312,-61.5229 L 146.393,-61.0143 L 146.42,-60.5 L 146.393,-59.9857 L 146.312,-59.4771
 L 146.179,-58.9796 L 145.995,-58.4989 L 145.761,-58.04 L 145.48,-57.6081 L 145.156,-57.2079 L 144.792,-56.8437
 L 144.392,-56.5196 L 143.96,-56.2392 L 143.501,-56.0054 L 143.02,-55.8208 L 142.523,-55.6875 L 142.014,-55.607
 L 141.5,-55.58 z
M 274.986,-55.607 L 274.477,-55.6875 L 273.98,-55.8208 L 273.499,-56.0054 L 273.04,-56.2392 L 272.608,-56.5196
 L 272.208,-56.8437 L 271.844,-57.2079 L 271.52,-57.6081 L 271.239,-58.04 L 271.005,-58.4989 L 270.821,-58.9796
 L 270.688,-59.4771 L 270.607,-59.9857 L 270.58,-60.5 L 270.607,-61.0143 L 270.688,-61.5229 L 270.821,-62.0204
 L 271.005,-62.5011 L 271.239,-62.96 L 271.52,-63.3919 L 271.844,-63.7921 L 272.208,-64.1563 L 272.608,-64.4804
 L 272.95,-64.7024 L 272.95,-74 L 273.006,-74.5302 L 273.17,-75.0372 L 273.437,-75.4988 L 273.794,-75.895
 L 274.225,-76.2084 L 274.712,-76.4252 L 275.233,-76.536 L 275.767,-76.536 L 276.288,-76.4252 L 276.775,-76.2084
 L 277.206,-75.895 L 277.563,-75.4988 L 277.83,-75.0372 L 277.994,-74.5302 L 278.05,-74 L 278.05,-64.7024
 L 278.392,-64.4804 L 278.792,-64.1563 L 279.156,-63.7921 L 279.48,-63.3919 L 279.761,-62.96 L 279.995,-62.5011
 L 280.179,-62.0204 L 280.312,-61.5229 L 280.393,-61.0143 L 280.42,-60.5 L 280.393,-59.9857 L 280.312,-59.4771
 L 280.179,-58.9796 L 279.995,-58.4989 L 279.761,-58.04 L 279.48,-57.6081 L 279.156,-57.2079 L 278.792,-56.8437
 L 278.392,-56.5196 L 277.96,-56.2392 L 277.501,-56.0054 L 277.02,-55.8208 L 276.523,-55.6875 L 276.014,-55.607
 L 275.5,-55.58 z
M 408.986,-55.607 L 408.477,-55.6875 L 407.98,-55.8208 L 407.499,-56.0054 L 407.04,-56.2392 L 406.608,-56.5196
 L 406.208,-56.8437 L 405.844,-57.2079 L 405.52,-57.6081 L 405.239,-58.04 L 405.005,-58.4989 L 404.821,-58.9796
 L 404.688,-59.4771 L 404.607,-59.9857 L 404.58,-60.5 L 404.607,-61.0143 L 404.688,-61.5229 L 404.821,-62.0204
 L 405.005,-62.5011 L 405.239,-62.96 L 405.52,-63.3919 L 405.844,-63.7921 L 406.208,-64.1563 L 406.608,-64.4804
 L 406.95,-64.7024 L 406.95,-74 L 407.006,-74.5302 L 407.17,-75.0372 L 407.437,-75.4988 L 407.794,-75.895
 L 408.225,-76.2084 L 408.712,-76.4252 L 409.233,-76.536 L 409.767,-76.536 L 410.288,-76.4252 L 410.775,-76.2084
 L 411.206,-75.895 L 411.563,-75.4988 L 411.83,-75.0372 L 411.994,-74.5302 L 412.05,-74 L 412.05,-64.7024
 L 412.392,-64.4804 L 412.792,-64.1563 L 413.156,-63.7921 L 413.48,-63.3919 L 413.761,-62.96 L 413.995,-62.5011
 L 414.179,-62.0204 L 414.312,-61.5229 L 414.393,-61.0143 L 414.42,-60.5 L 414.393,-59.9857 L 414.312,-59.4771
 L 414.179,-58.9796 L 413.995,-58.4989 L 413.761,-58.04 L 413.48,-57.6081 L 413.156,-57.2079 L 412.792,-56.8437
 L 412.392,-56.5196 L 411.96,-56.2392 L 411.501,-56.0054 L 411.02,-55.8208 L 410.523,-55.6875 L 410.014,-55.607
 L 409.5,-55.58 z
M 542.986,-55.607 L 542.477,-55.6875 L 541.98,-55.8208 L 541.499,-56.0054 L 541.04,-56.2392 L 540.608,-56.5196
 L 540.208,-56.8437 L 539.844,-57.2079 L 539.52,-57.6081 L 539.239,-58.04 L 539.005,-58.4989 L 538.821,-58.9796
 L 538.688,-59.4771 L 538.607,-59.9857 L 538.58,-60.5 L 538.607,-61.0143 L 538.688,-61.5229 L 538.821,-62.0204
 L 539.005,-62.5011 L 539.239,-62.96 L 539.52,-63.3919 L 539.844,-63.7921 L 540.208,-64.1563 L 540.608,-64.4804
 L 540.95,-64.7024 L 540.95,-74 L 541.006,-74.5302 L 541.17,-75.0372 L 541.437,-75.4988 L 541.794,-75.895
 L 542.225,-76.2084 L 542.712,-76.4252 L 543.233,-76.536 L 543.767,-76.536 L 544.288,-76.4252 L 544.775,-76.2084
 L 545.206,-75.895 L 545.563,-75.4988 L 545.83,-75.0372 L 545.994,-74.5302 L 546.05,-74 L 546.05,-64.7024
 L 546.392,-64.4804 L 546.792,-64.1563 L 547.156,-63.7921 L 547.48,-63.3919 L 547.761,-62.96 L 547.995,-62.5011
 L 548.179,-62.0204 L 548.312,-61.5229 L 548.393,-61.0143 L 548.42,-60.5 L 548.393,-59.9857 L 548.312,-59.4771
 L 548.179,-58.9796 L 547.995,-58.4989 L 547.761,-58.04 L 547.48,-57.6081 L 547.156,-57.2079 L 546.792,-56.8437
 L 546.392,-56.5196 L 545.96,-56.2392 L 545.501,-56.0054 L 545.02,-55.8208 L 544.523,-55.6875 L 544.014,-55.607
 L 543.5,-55.58 z
M 676.986,-55.607 L 676.477,-55.6875 L 675.98,-55.8208 L 675.499,-56.0054 L 675.04,-56.2392 L 674.608,-56.5196
 L 674.208,-56.8437 L 673.844,-57.2079 L 673.52,-57.6081 L 673.239,-58.04 L 673.005,-58.4989 L 672.821,-58.9796
 L 672.688,-59.4771 L 672.607,-59.9857 L 672.58,-60.5 L 672.607,-61.0143 L 672.688,-61.5229 L 672.821,-62.0204
 L 673.005,-62.5011 L 673.239,-62.96 L 673.52,-63.3919 L 673.844,-63.7921 L 674.208,-64.1563 L 674.608,-64.4804
 L 674.95,-64.7024 L 674.95,-74 L 675.006,-74.5302 L 675.17,-75.0372 L 675.437,-75.4988 L 675.794,-75.895
 L 676.225,-76.2084 L 676.712,-76.4252 L 677.233,-76.536 L 677.767,-76.536 L 678.288,-76.4252 L 678.775,-76.2084
 L 679.206,-75.895 L 679.563,-75.4988 L 679.83,-75.0372 L 679.994,-74.5302 L 680.05,-74 L 680.05,-64.7024
 L 680.392,-64.4804 L 680.792,-64.1563 L 681.156,-63.7921 L 681.48,-63.3919 L 681.761,-62.96 L 681.995,-62.5011
 L 682.179,-62.0204 L 682.312,-61.5229 L 682.393,-61.0143 L 682.42,-60.5 L 682.393,-59.9857 L 682.312,-59.4771
 L 682.179,-58.9796 L 681.995,-58.4989 L 681.761,-58.04 L 681.48,-57.6081 L 681.156,-57.2079 L 680.792,-56.8437
 L 680.392,-56.5196 L 679.96,-56.2392 L 679.501,-56.0054 L 679.02,-55.8208 L 678.523,-55.6875 L 678.014,-55.607
 L 677.5,-55.58 z
M 341.471,-48.454 L 340.69,-48.7524 L 329.496,-54.433 L 328.955,-54.7639 L 328.333,-55.3235 L 327.842,-56
 L 327.502,-56.7639 L 327.328,-57.5819 L 327.328,-58.4181 L 327.502,-59.2361 L 327.842,-60 L 328.333,-60.6765
 L 328.955,-61.2361 L 329.679,-61.6542 L 330.474,-61.9126 L 331.306,-62 L 353.694,-62 L 354.326,-61.9497
 L 355.134,-61.732 L 355.878,-61.3511 L 356.527,-60.8238 L 357.052,-60.173 L 357.431,-59.4274 L 357.646,-58.6193
 L 357.688,-57.7841 L 357.556,-56.9584 L 357.255,-56.1782 L 356.798,-55.4776 L 356.206,-54.8873 L 355.504,-54.433
 L 344.31,-48.7524 L 343.132,-48.3697 L 342.297,-48.3246 z
M 261.471,-23.2909 L 260.69,-23.5893 L 199.91,-54.433 L 199.369,-54.7639 L 198.747,-55.3235 L 198.256,-56
 L 197.916,-56.7639 L 197.742,-57.5819 L 197.742,-58.4181 L 197.916,-59.2361 L 198.256,-60 L 198.747,-60.6765
 L 199.369,-61.2361 L 200.093,-61.6542 L 200.888,-61.9126 L 201.72,-62 L 262.5,-62 L 263.736,-61.8042
 L 264.5,-61.4641 L 265.177,-60.9726 L 265.736,-60.3511 L 266.154,-59.627 L 266.413,-58.8316 L 266.5,-58
 L 266.5,-27.1563 L 266.452,-26.5371 L 266.237,-25.729 L 265.858,-24.9833 L 265.333,-24.3326 L 264.684,-23.8052
 L 263.94,-23.4244 L 263.132,-23.2066 L 262.297,-23.1615 z
M 555.868,-23.2066 L 555.06,-23.4244 L 554.316,-23.8052 L 553.667,-24.3326 L 553.142,-24.9833 L 552.763,-25.729
 L 552.548,-26.5371 L 552.5,-27.1563 L 552.5,-58 L 552.587,-58.8316 L 552.846,-59.627 L 553.264,-60.3511
 L 553.823,-60.9726 L 554.5,-61.4641 L 555.264,-61.8042 L 556.5,-62 L 617.28,-62 L 618.112,-61.9126
 L 618.907,-61.6542 L 619.631,-61.2361 L 620.253,-60.6765 L 620.744,-60 L 621.084,-59.2361 L 621.258,-58.4181
 L 621.258,-57.5819 L 621.084,-56.7639 L 620.744,-56 L 620.253,-55.3235 L 619.631,-54.7639 L 619.09,-54.433
 L 558.31,-23.5893 L 557.529,-23.2909 L 556.703,-23.1615 z
M 127.471,-23.2909 L 126.69,-23.5893 L 65.9097,-54.433 L 65.3687,-54.7639 L 64.7473,-55.3235 L 64.2558,-56
 L 63.9156,-56.7639 L 63.7418,-57.5819 L 63.7418,-58.4181 L 63.9156,-59.2361 L 64.2558,-60 L 64.7473,-60.6765
 L 65.3687,-61.2361 L 66.0929,-61.6542 L 66.8882,-61.9126 L 67.7198,-62 L 128.5,-62 L 129.736,-61.8042
 L 130.5,-61.4641 L 131.177,-60.9726 L 131.736,-60.3511 L 132.154,-59.627 L 132.413,-58.8316 L 132.5,-58
 L 132.5,-27.1563 L 132.452,-26.5371 L 132.237,-25.729 L 131.858,-24.9833 L 131.333,-24.3326 L 130.684,-23.8052
 L 129.94,-23.4244 L 129.132,-23.2066 L 128.297,-23.1615 z
M 421.868,-23.2066 L 421.06,-23.4244 L 420.316,-23.8052 L 419.667,-24.3326 L 419.142,-24.9833 L 418.763,-25.729
 L 418.548,-26.5371 L 418.5,-27.1563 L 418.5,-58 L 418.587,-58.8316 L 418.846,-59.627 L 419.264,-60.3511
 L 419.823,-60.9726 L 420.5,-61.4641 L 421.264,-61.8042 L 422.5,-62 L 483.28,-62 L 484.112,-61.9126
 L 484.907,-61.6542 L 485.631,-61.2361 L 486.253,-60.6765 L 486.744,-60 L 487.084,-59.2361 L 487.258,-58.4181
 L 487.258,-57.5819 L 487.084,-56.7639 L 486.744,-56 L 486.253,-55.3235 L 485.631,-54.7639 L 485.09,-54.433
 L 424.31,-23.5893 L 423.529,-23.2909 L 422.703,-23.1615 z
M 288.082,-20.9384 L 287.264,-21.1122 L 286.5,-21.4524 L 285.823,-21.9439 L 285.264,-22.5653 L 284.846,-23.2895
 L 284.587,-24.0848 L 284.5,-24.9165 L 284.5,-55.0835 L 284.548,-55.7028 L 284.763,-56.5109 L 285.142,-57.2566
 L 285.667,-57.9073 L 286.316,-58.4346 L 287.06,-58.8155 L 287.868,-59.0333 L 288.703,-59.0784 L 289.529,-58.9489
 L 290.31,-58.6505 L 320.034,-43.567 L 320.408,-43.3511 L 321.057,-42.8238 L 321.582,-42.173 L 321.96,-41.4274
 L 322.175,-40.6193 L 322.218,-39.7841 L 322.085,-38.9584 L 321.785,-38.1782 L 321.328,-37.4776 L 320.736,-36.8873
 L 320.034,-36.433 L 290.31,-21.3495 L 289.736,-21.1122 L 288.918,-20.9384 z
M 395.471,-21.051 L 394.69,-21.3494 L 364.966,-36.433 L 364.592,-36.6489 L 363.943,-37.1762 L 363.418,-37.827
 L 363.04,-38.5726 L 362.825,-39.3807 L 362.782,-40.2159 L 362.915,-41.0416 L 363.215,-41.8218 L 363.672,-42.5224
 L 364.264,-43.1127 L 364.966,-43.567 L 394.69,-58.6506 L 395.264,-58.8878 L 396.082,-59.0616 L 396.918,-59.0616
 L 397.736,-58.8878 L 398.5,-58.5477 L 399.177,-58.0561 L 399.736,-57.4347 L 400.154,-56.7105 L 400.413,-55.9152
 L 400.5,-55.0836 L 400.5,-24.9164 L 400.452,-24.2972 L 400.237,-23.4891 L 399.858,-22.7434 L 399.333,-22.0927
 L 398.684,-21.5653 L 397.94,-21.1845 L 397.132,-20.9667 L 396.297,-20.9216 z
M 154.5,-18 L 153.264,-18.1958 L 152.5,-18.5359 L 151.823,-19.0274 L 151.264,-19.6489 L 150.846,-20.373
 L 150.587,-21.1684 L 150.5,-22 L 150.5,-52.8436 L 150.548,-53.4629 L 150.763,-54.271 L 151.142,-55.0167
 L 151.667,-55.6674 L 152.316,-56.1947 L 153.06,-56.5756 L 153.868,-56.7934 L 154.703,-56.8385 L 155.529,-56.709
 L 156.31,-56.4106 L 217.09,-25.567 L 217.631,-25.2361 L 218.253,-24.6765 L 218.744,-24 L 219.084,-23.2361
 L 219.258,-22.4181 L 219.258,-21.5819 L 219.084,-20.7639 L 218.744,-20 L 218.253,-19.3235 L 217.631,-18.7639
 L 216.907,-18.3458 L 216.112,-18.0874 L 215.28,-18 z
M 469.72,-18 L 468.888,-18.0874 L 468.093,-18.3458 L 467.369,-18.7639 L 466.747,-19.3235 L 466.256,-20
 L 465.916,-20.7639 L 465.742,-21.5819 L 465.742,-22.4181 L 465.916,-23.2361 L 466.256,-24 L 466.747,-24.6765
 L 467.369,-25.2361 L 467.91,-25.567 L 528.69,-56.4106 L 529.471,-56.709 L 530.297,-56.8385 L 531.132,-56.7934
 L 531.94,-56.5756 L 532.684,-56.1947 L 533.333,-55.6674 L 533.858,-55.0167 L 534.237,-54.271 L 534.452,-53.4629
 L 534.5,-52.8436 L 534.5,-22 L 534.413,-21.1684 L 534.154,-20.373 L 533.736,-19.6489 L 533.177,-19.0274
 L 532.5,-18.5359 L 531.736,-18.1958 L 530.5,-18 z
M 22,-18 L 20.7639,-18.1958 L 20,-18.5359 L 19.3235,-19.0274 L 18.7639,-19.6489 L 18.3458,-20.373
 L 18.0874,-21.1684 L 18,-22 L 18,-52.0824 L 18.0482,-52.7017 L 18.2633,-53.5098 L 18.6418,-54.2555
 L 19.1669,-54.9062 L 19.8159,-55.4335 L 20.5604,-55.8144 L 21.3678,-56.0322 L 22.2028,-56.0773 L 23.0289,-55.9478
 L 23.8101,-55.6494 L 83.0903,-25.567 L 83.6313,-25.2361 L 84.2527,-24.6765 L 84.7442,-24 L 85.0844,-23.2361
 L 85.2582,-22.4181 L 85.2582,-21.5819 L 85.0844,-20.7639 L 84.7442,-20 L 84.2527,-19.3235 L 83.6313,-18.7639
 L 82.9071,-18.3458 L 82.1118,-18.0874 L 81.2801,-18 z
M 603.72,-18 L 602.888,-18.0874 L 602.093,-18.3458 L 601.369,-18.7639 L 600.747,-19.3235 L 600.256,-20
 L 599.916,-20.7639 L 599.742,-21.5819 L 599.742,-22.4181 L 599.916,-23.2361 L 600.256,-24 L 600.747,-24.6765
 L 601.369,-25.2361 L 601.91,-25.567 L 661.19,-55.6494 L 661.971,-55.9478 L 662.797,-56.0773 L 663.632,-56.0322
 L 664.44,-55.8144 L 665.184,-55.4335 L 665.833,-54.9062 L 666.358,-54.2555 L 666.737,-53.5098 L 666.952,-52.7017
 L 667,-52.0824 L 667,-22 L 666.913,-21.1684 L 666.654,-20.373 L 666.236,-19.6489 L 665.677,-19.0274
 L 665,-18.5359 L 664.236,-18.1958 L 663,-18 z
M 331.306,-18 L 330.674,-18.0503 L 329.866,-18.268 L 329.122,-18.6489 L 328.473,-19.1762 L 327.948,-19.827
 L 327.569,-20.5726 L 327.354,-21.3807 L 327.312,-22.2159 L 327.444,-23.0416 L 327.745,-23.8218 L 328.201,-24.5224
 L 328.794,-25.1127 L 329.496,-25.567 L 340.69,-31.2476 L 341.868,-31.6303 L 342.703,-31.6754 L 343.529,-31.546
 L 344.31,-31.2476 L 355.504,-25.567 L 356.045,-25.2361 L 356.667,-24.6765 L 357.158,-24 L 357.498,-23.2361
 L 357.672,-22.4181 L 357.672,-21.5819 L 357.498,-20.7639 L 357.158,-20 L 356.667,-19.3235 L 356.045,-18.7639
 L 355.321,-18.3458 L 354.526,-18.0874 L 353.694,-18 z
" stroke="black" fill="lightgray" stroke-width="0.5"/>
</svg>
