<?xml version="1.0" standalone="no"?>
<!DOCTYPE svg PUBLIC "-//W3C//DTD SVG 1.1//EN" "http://www.w3.org/Graphics/SVG/1.1/DTD/svg11.dtd">
<svg width="586mm" height="80mm" viewBox="0 -80 586 80" xmlns="http://www.w3.org/2000/svg" version="1.1">
<title>OpenSCAD Model</title>
<path d="
M 586,-80 L 0,-80 L 0,-0 L 4.95,-0 L 4.95,-6 L 5.00572,-6.53017
 L 5.17046,-7.03717 L 5.437,-7.49884 L 5.79372,-7.895 L 6.22499,-8.20836 L 6.71201,-8.42519 L 7.23344,-8.53603
 L 7.76654,-8.53603 L 8.28798,-8.42519 L 8.77499,-8.20836 L 9.20627,-7.895 L 9.56299,-7.49884 L 9.82953,-7.03717
 L 9.99426,-6.53017 L 10.05,-6 L 10.05,-0 L 147.7,-0 L 147.7,-6 L 147.756,-6.53017
 L 147.92,-7.03717 L 148.187,-7.49884 L 148.544,-7.895 L 148.975,-8.20836 L 149.462,-8.42519 L 149.983,-8.53603
 L 150.517,-8.53603 L 151.038,-8.42519 L 151.525,-8.20836 L 151.956,-7.895 L 152.313,-7.49884 L 152.58,-7.03717
 L 152.744,-6.53017 L 152.8,-6 L 152.8,-0 L 290.45,-0 L 290.45,-6 L 290.506,-6.53017
 L 290.67,-7.03717 L 290.937,-7.49884 L 291.294,-7.895 L 291.725,-8.20836 L 292.212,-8.42519 L 292.733,-8.53603
 L 293.267,-8.53603 L 293.788,-8.42519 L 294.275,-8.20836 L 294.706,-7.895 L 295.063,-7.49884 L 295.33,-7.03717
 L 295.494,-6.53017 L 295.55,-6 L 295.55,-0 L 433.2,-0 L 433.2,-6 L 433.256,-6.53017
 L 433.42,-7.03717 L 433.687,-7.49884 L 434.044,-7.895 L 434.475,-8.20836 L 434.962,-8.42519 L 435.483,-8.53603
 L 436.017,-8.53603 L 436.538,-8.42519 L 437.025,-8.20836 L 437.456,-7.895 L 437.813,-7.49884 L 438.08,-7.03717
 L 438.244,-6.53017 L 438.3,-6 L 438.3,-0 L 575.95,-0 L 575.95,-6 L 576.006,-6.53017
 L 576.17,-7.03717 L 576.437,-7.49884 L 576.794,-7.895 L 577.225,-8.20836 L 577.712,-8.42519 L 578.233,-8.53603
 L 578.767,-8.53603 L 579.288,-8.42519 L 579.775,-8.20836 L 580.206,-7.895 L 580.563,-7.49884 L 580.83,-7.03717
 L 580.994,-6.53017 L 581.05,-6 L 581.05,-0 L 586,-0 z
M 6.98573,-55.607 L 6.47708,-55.6875 L 5.97964,-55.8208 L 5.49887,-56.0054 L 5.04001,-56.2392 L 4.60811,-56.5196
 L 4.20789,-56.8437 L 3.84373,-57.2079 L 3.51964,-57.6081 L 3.23917,-58.04 L 3.00537,-58.4989 L 2.82082,-58.9796
 L 2.68752,-59.4771 L 2.60696,-59.9857 L 2.58,-60.5 L 2.60696,-61.0143 L 2.68752,-61.5229 L 2.82082,-62.0204
 L 3.00537,-62.5011 L 3.23917,-62.96 L 3.51964,-63.3919 L 3.84373,-63.7921 L 4.20789,-64.1563 L 4.60811,-64.4804
 L 4.95001,-64.7024 L 4.95001,-74 L 5.00574,-74.5302 L 5.17047,-75.0372 L 5.43701,-75.4988 L 5.79373,-75.895
 L 6.22501,-76.2084 L 6.71202,-76.4252 L 7.23346,-76.536 L 7.76654,-76.536 L 8.28798,-76.4252 L 8.77499,-76.2084
 L 9.20627,-75.895 L 9.56299,-75.4988 L 9.82953,-75.0372 L 9.99426,-74.5302 L 10.05,-74 L 10.05,-64.7024
 L 10.3919,-64.4804 L 10.7921,-64.1563 L 11.1563,-63.7921 L 11.4804,-63.3919 L 11.7608,-62.96 L 11.9946,-62.5011
 L 12.1792,-62.0204 L 12.3125,-61.5229 L 12.393,-61.0143 L 12.42,-60.5 L 12.393,-59.9857 L 12.3125,-59.4771
 L 12.1792,-58.9796 L 11.9946,-58.4989 L 11.7608,-58.04 L 11.4804,-57.6081 L 11.1563,-57.2079 L 10.7921,-56.8437
 L 10.3919,-56.5196 L 9.95999,-56.2392 L 9.50113,-56.0054 L 9.02036,-55.8208 L 8.52292,-55.6875 L 8.01427,-55.607
 L 7.5,-55.58 z
M 149.736,-55.607 L 149.227,-55.6875 L 148.73,-55.8208 L 148.249,-56.0054 L 147.79,-56.2392 L 147.358,-56.5196
 L 146.958,-56.8437 L 146.594,-57.2079 L 146.27,-57.6081 L 145.989,-58.04 L 145.755,-58.4989 L 145.571,-58.9796
 L 145.438,-59.4771 L 145.357,-59.9857 L 145.33,-60.5 L 145.357,-61.0143 L 145.438,-61.5229 L 145.571,-62.0204
 L 145.755,-62.5011 L 145.989,-62.96 L 146.27,-63.3919 L 146.594,-63.7921 L 146.958,-64.1563 L 147.358,-64.4804
 L 147.7,-64.7024 L 147.7,-74 L 147.756,-74.5302 L 147.92,-75.0372 L 148.187,-75.4988 L 148.544,-75.895
 L 148.975,-76.2084 L 149.462,-76.4252 L 149.983,-76.536 L 150.517,-76.536 L 151.038,-76.4252 L 151.525,-76.2084
 L 151.956,-75.895 L 152.313,-75.4988 L 152.58,-75.0372 L 152.744,-74.5302 L 152.8,-74 L 152.8,-64.7024
 L 153.142,-64.4804 L 153.542,-64.1563 L 153.906,-63.7921 L 154.23,-63.3919 L 154.511,-62.96 L 154.745,-62.5011
 L 154.929,-62.0204 L 155.062,-61.5229 L 155.143,-61.0143 L 155.17,-60.5 L 155.143,-59.9857 L 155.062,-59.4771
 L 154.929,-58.9796 L 154.745,-58.4989 L 154.511,-58.04 L 154.23,-57.6081 L 153.906,-57.2079 L 153.542,-56.8437
 L 153.142,-56.5196 L 152.71,-56.2392 L 152.251,-56.0054 L 151.77,-55.8208 L 151.273,-55.6875 L 150.764,-55.607
 L 150.25,-55.58 z
M 292.486,-55.607 L 291.977,-55.6875 L 291.48,-55.8208 L 290.999,-56.0054 L 290.54,-56.2392 L 290.108,-56.5196
 L 289.708,-56.8437 L 289.344,-57.2079 L 289.02,-57.6081 L 288.739,-58.04 L 288.505,-58.4989 L 288.321,-58.9796
 L 288.188,-59.4771 L 288.107,-59.9857 L 288.08,-60.5 L 288.107,-61.0143 L 288.188,-61.5229 L 288.321,-62.0204
 L 288.505,-62.5011 L 288.739,-62.96 L 289.02,-63.3919 L 289.344,-63.7921 L 289.708,-64.1563 L 290.108,-64.4804
 L 290.45,-64.7024 L 290.45,-74 L 290.506,-74.5302 L 290.67,-75.0372 L 290.937,-75.4988 L 291.294,-75.895
 L 291.725,-76.2084 L 292.212,-76.4252 L 292.733,-76.536 L 293.267,-76.536 L 293.788,-76.4252 L 294.275,-76.2084
 L 294.706,-75.895 L 295.063,-75.4988 L 295.33,-75.0372 L 295.494,-74.5302 L 295.55,-74 L 295.55,-64.7024
 L 295.892,-64.4804 L 296.292,-64.1563 L 296.656,-63.7921 L 296.98,-63.3919 L 297.261,-62.96 L 297.495,-62.5011
 L 297.679,-62.0204 L 297.812,-61.5229 L 297.893,-61.0143 L 297.92,-60.5 L 297.893,-59.9857 L 297.812,-59.4771
 L 297.679,-58.9796 L 297.495,-58.4989 L 297.261,-58.04 L 296.98,-57.6081 L 296.656,-57.2079 L 296.292,-56.8437
 L 295.892,-56.5196 L 295.46,-56.2392 L 295.001,-56.0054 L 294.52,-55.8208 L 294.023,-55.6875 L 293.514,-55.607
 L 293,-55.58 z
M 435.236,-55.607 L 434.727,-55.6875 L 434.23,-55.8208 L 433.749,-56.0054 L 433.29,-56.2392 L 432.858,-56.5196
 L 432.458,-56.8437 L 432.094,-57.2079 L 431.77,-57.6081 L 431.489,-58.04 L 431.255,-58.4989 L 431.071,-58.9796
 L 430.938,-59.4771 L 430.857,-59.9857 L 430.83,-60.5 L 430.857,-61.0143 L 430.938,-61.5229 L 431.071,-62.0204
 L 431.255,-62.5011 L 431.489,-62.96 L 431.77,-63.3919 L 432.094,-63.7921 L 432.458,-64.1563 L 432.858,-64.4804
 L 433.2,-64.7024 L 433.2,-74 L 433.256,-74.5302 L 433.42,-75.0372 L 433.687,-75.4988 L 434.044,-75.895
 L 434.475,-76.2084 L 434.962,-76.4252 L 435.483,-76.536 L 436.017,-76.536 L 436.538,-76.4252 L 437.025,-76.2084
 L 437.456,-75.895 L 437.813,-75.4988 L 438.08,-75.0372 L 438.244,-74.5302 L 438.3,-74 L 438.3,-64.7024
 L 438.642,-64.4804 L 439.042,-64.1563 L 439.406,-63.7921 L 439.73,-63.3919 L 440.011,-62.96 L 440.245,-62.5011
 L 440.429,-62.0204 L 440.562,-61.5229 L 440.643,-61.0143 L 440.67,-60.5 L 440.643,-59.9857 L 440.562,-59.4771
 L 440.429,-58.9796 L 440.245,-58.4989 L 440.011,-58.04 L 439.73,-57.6081 L 439.406,-57.2079 L 439.042,-56.8437
 L 438.642,-56.5196 L 438.21,-56.2392 L 437.751,-56.0054 L 437.27,-55.8208 L 436.773,-55.6875 L 436.264,-55.607
 L 435.75,-55.58 z
M 577.986,-55.607 L 577.477,-55.6875 L 576.98,-55.8208 L 576.499,-56.0054 L 576.04,-56.2392 L 575.608,-56.5196
 L 575.208,-56.8437 L 574.844,-57.2079 L 574.52,-57.6081 L 574.239,-58.04 L 574.005,-58.4989 L 573.821,-58.9796
 L 573.688,-59.4771 L 573.607,-59.9857 L 573.58,-60.5 L 573.607,-61.0143 L 573.688,-61.5229 L 573.821,-62.0204
 L 574.005,-62.5011 L 574.239,-62.96 L 574.52,-63.3919 L 574.844,-63.7921 L 575.208,-64.1563 L 575.608,-64.4804
 L 575.95,-64.7024 L 575.95,-74 L 576.006,-74.5302 L 576.17,-75.0372 L 576.437,-75.4988 L 576.794,-75.895
 L 577.225,-76.2084 L 577.712,-76.4252 L 578.233,-76.536 L 578.767,-76.536 L 579.288,-76.4252 L 579.775,-76.2084
 L 580.206,-75.895 L 580.563,-75.4988 L 580.83,-75.0372 L 580.994,-74.5302 L 581.05,-74 L 581.05,-64.7024
 L 581.392,-64.4804 L 581.792,-64.1563 L 582.156,-63.7921 L 582.48,-63.3919 L 582.761,-62.96 L 582.995,-62.5011
 L 583.179,-62.0204 L 583.312,-61.5229 L 583.393,-61.0143 L 583.42,-60.5 L 583.393,-59.9857 L 583.312,-59.4771
 L 583.179,-58.9796 L 582.995,-58.4989 L 582.761,-58.04 L 582.48,-57.6081 L 582.156,-57.2079 L 581.792,-56.8437
 L 581.392,-56.5196 L 580.96,-56.2392 L 580.501,-56.0054 L 580.02,-55.8208 L 579.523,-55.6875 L 579.014,-55.607
 L 578.5,-55.58 z
M 305.269,-22.6548 L 304.467,-22.8927 L 303.733,-23.2921 L 303.097,-23.8355 L 302.588,-24.4992 L 302.229,-25.2542
 L 302.034,-26.0674 L 302,-26.5875 L 302,-58 L 302.087,-58.8316 L 302.346,-59.627 L 302.764,-60.3511
 L 303.323,-60.9726 L 304,-61.4641 L 304.764,-61.8042 L 306,-62 L 371.943,-62 L 372.775,-61.9126
 L 373.57,-61.6542 L 374.294,-61.2361 L 374.916,-60.6765 L 375.407,-60 L 375.747,-59.2361 L 375.921,-58.4181
 L 375.921,-57.5819 L 375.747,-56.7639 L 375.407,-56 L 374.916,-55.3235 L 374.294,-54.7639 L 373.663,-54.3888
 L 307.72,-22.9763 L 306.932,-22.6975 L 306.103,-22.5888 z
M 279.068,-22.6975 L 278.28,-22.9763 L 212.337,-54.3888 L 211.706,-54.7639 L 211.084,-55.3235 L 210.593,-56
 L 210.253,-56.7639 L 210.079,-57.5819 L 210.079,-58.4181 L 210.253,-59.2361 L 210.593,-60 L 211.084,-60.6765
 L 211.706,-61.2361 L 212.43,-61.6542 L 213.225,-61.9126 L 214.057,-62 L 280,-62 L 281.236,-61.8042
 L 282,-61.4641 L 282.677,-60.9726 L 283.236,-60.3511 L 283.654,-59.627 L 283.913,-58.8316 L 284,-58
 L 284,-26.5875 L 283.966,-26.0674 L 283.771,-25.2542 L 283.412,-24.4992 L 282.903,-23.8355 L 282.267,-23.2921
 L 281.533,-22.8927 L 280.731,-22.6548 L 279.897,-22.5888 z
M 448.019,-22.6548 L 447.217,-22.8927 L 446.483,-23.2921 L 445.847,-23.8355 L 445.338,-24.4992 L 444.979,-25.2542
 L 444.784,-26.0674 L 444.75,-26.5875 L 444.75,-58 L 444.837,-58.8316 L 445.096,-59.627 L 445.514,-60.3511
 L 446.073,-60.9726 L 446.75,-61.4641 L 447.514,-61.8042 L 448.75,-62 L 514.693,-62 L 515.525,-61.9126
 L 516.32,-61.6542 L 517.044,-61.2361 L 517.666,-60.6765 L 518.157,-60 L 518.497,-59.2361 L 518.671,-58.4181
 L 518.671,-57.5819 L 518.497,-56.7639 L 518.157,-56 L 517.666,-55.3235 L 517.044,-54.7639 L 516.413,-54.3888
 L 450.47,-22.9763 L 449.682,-22.6975 L 448.853,-22.5888 z
M 136.318,-22.6975 L 135.53,-22.9763 L 69.5866,-54.3888 L 68.9557,-54.7639 L 68.3343,-55.3235 L 67.8427,-56
 L 67.5026,-56.7639 L 67.3288,-57.5819 L 67.3288,-58.4181 L 67.5026,-59.2361 L 67.8427,-60 L 68.3343,-60.6765
 L 68.9557,-61.2361 L 69.6799,-61.6542 L 70.4752,-61.9126 L 71.3068,-62 L 137.25,-62 L 138.486,-61.8042
 L 139.25,-61.4641 L 139.927,-60.9726 L 140.486,-60.3511 L 140.904,-59.627 L 141.163,-58.8316 L 141.25,-58
 L 141.25,-26.5875 L 141.216,-26.0674 L 141.021,-25.2542 L 140.662,-24.4992 L 140.153,-23.8355 L 139.517,-23.2921
 L 138.783,-22.8927 L 137.981,-22.6548 L 137.147,-22.5888 z
M 356.807,-18 L 355.975,-18.0874 L 355.18,-18.3458 L 354.456,-18.7639 L 353.834,-19.3235 L 353.343,-20
 L 353.003,-20.7639 L 352.829,-21.5819 L 352.829,-22.4181 L 353.003,-23.2361 L 353.343,-24 L 353.834,-24.6765
 L 354.456,-25.2361 L 355.087,-25.6112 L 421.03,-57.0237 L 421.818,-57.3024 L 422.647,-57.4112 L 423.481,-57.3451
 L 424.283,-57.1072 L 425.017,-56.7079 L 425.653,-56.1644 L 426.162,-55.5008 L 426.521,-54.7458 L 426.716,-53.9326
 L 426.75,-53.4125 L 426.75,-22 L 426.663,-21.1684 L 426.404,-20.373 L 425.986,-19.6489 L 425.427,-19.0274
 L 424.75,-18.5359 L 423.986,-18.1958 L 422.75,-18 z
M 163.25,-18 L 162.014,-18.1958 L 161.25,-18.5359 L 160.573,-19.0274 L 160.014,-19.6489 L 159.596,-20.373
 L 159.337,-21.1684 L 159.25,-22 L 159.25,-53.4125 L 159.284,-53.9326 L 159.479,-54.7458 L 159.838,-55.5008
 L 160.347,-56.1644 L 160.983,-56.7079 L 161.717,-57.1072 L 162.519,-57.3451 L 163.353,-57.4112 L 164.182,-57.3024
 L 164.97,-57.0237 L 230.913,-25.6112 L 231.544,-25.2361 L 232.166,-24.6765 L 232.657,-24 L 232.997,-23.2361
 L 233.171,-22.4181 L 233.171,-21.5819 L 232.997,-20.7639 L 232.657,-20 L 232.166,-19.3235 L 231.544,-18.7639
 L 230.82,-18.3458 L 230.025,-18.0874 L 229.193,-18 z
M 22,-18 L 20.7639,-18.1958 L 20,-18.5359 L 19.3235,-19.0274 L 18.7639,-19.6489 L 18.3458,-20.373
 L 18.0874,-21.1684 L 18,-22 L 18,-52.698 L 18.034,-53.2181 L 18.2288,-54.0313 L 18.5884,-54.7862
 L 19.0971,-55.4499 L 19.7327,-55.9933 L 20.4674,-56.3927 L 21.2691,-56.6306 L 22.1027,-56.6966 L 22.9318,-56.5879
 L 23.7202,-56.3092 L 88.1634,-25.6112 L 88.7943,-25.2361 L 89.4157,-24.6765 L 89.9072,-24 L 90.2474,-23.2361
 L 90.4212,-22.4181 L 90.4212,-21.5819 L 90.2474,-20.7639 L 89.9072,-20 L 89.4157,-19.3235 L 88.7943,-18.7639
 L 88.0701,-18.3458 L 87.2748,-18.0874 L 86.4431,-18 z
M 499.557,-18 L 498.725,-18.0874 L 497.93,-18.3458 L 497.206,-18.7639 L 496.584,-19.3235 L 496.093,-20
 L 495.753,-20.7639 L 495.579,-21.5819 L 495.579,-22.4181 L 495.753,-23.2361 L 496.093,-24 L 496.584,-24.6765
 L 497.206,-25.2361 L 497.837,-25.6112 L 562.28,-56.3092 L 563.068,-56.5879 L 563.897,-56.6966 L 564.731,-56.6306
 L 565.533,-56.3927 L 566.267,-55.9933 L 566.903,-55.4499 L 567.412,-54.7862 L 567.771,-54.0313 L 567.966,-53.2181
 L 568,-52.698 L 568,-22 L 567.913,-21.1684 L 567.654,-20.373 L 567.236,-19.6489 L 566.677,-19.0274
 L 566,-18.5359 L 565.236,-18.1958 L 564,-18 z
" stroke="black" fill="lightgray" stroke-width="0.5"/>
</svg>
