<?xml version="1.0" standalone="no"?>
<!DOCTYPE svg PUBLIC "-//W3C//DTD SVG 1.1//EN" "http://www.w3.org/Graphics/SVG/1.1/DTD/svg11.dtd">
<svg width="842mm" height="80mm" viewBox="0 -80 842 80" xmlns="http://www.w3.org/2000/svg" version="1.1">
<title>OpenSCAD Model</title>
<path d="
M 842,-80 L 0,-80 L 0,-0 L 4.95,-0 L 4.95,-6 L 5.00572,-6.53017
 L 5.17046,-7.03717 L 5.437,-7.49884 L 5.79372,-7.895 L 6.22499,-8.20836 L 6.71201,-8.42519 L 7.23344,-8.53603
 L 7.76654,-8.53603 L 8.28798,-8.42519 L 8.77499,-8.20836 L 9.20627,-7.895 L 9.56299,-7.49884 L 9.82953,-7.03717
 L 9.99426,-6.53017 L 10.05,-6 L 10.05,-0 L 170.35,-0 L 170.35,-6 L 170.406,-6.53017
 L 170.57,-7.03717 L 170.837,-7.49884 L 171.194,-7.895 L 171.625,-8.20836 L 172.112,-8.42519 L 172.633,-8.53603
 L 173.167,-8.53603 L 173.688,-8.42519 L 174.175,-8.20836 L 174.606,-7.895 L 174.963,-7.49884 L 175.23,-7.03717
 L 175.394,-6.53017 L 175.45,-6 L 175.45,-0 L 335.75,-0 L 335.75,-6 L 335.806,-6.53017
 L 335.97,-7.03717 L 336.237,-7.49884 L 336.594,-7.895 L 337.025,-8.20836 L 337.512,-8.42519 L 338.033,-8.53603
 L 338.567,-8.53603 L 339.088,-8.42519 L 339.575,-8.20836 L 340.006,-7.895 L 340.363,-7.49884 L 340.63,-7.03717
 L 340.794,-6.53017 L 340.85,-6 L 340.85,-0 L 501.15,-0 L 501.15,-6 L 501.206,-6.53017
 L 501.37,-7.03717 L 501.637,-7.49884 L 501.994,-7.895 L 502.425,-8.20836 L 502.912,-8.42519 L 503.433,-8.53603
 L 503.967,-8.53603 L 504.488,-8.42519 L 504.975,-8.20836 L 505.406,-7.895 L 505.763,-7.49884 L 506.03,-7.03717
 L 506.194,-6.53017 L 506.25,-6 L 506.25,-0 L 666.55,-0 L 666.55,-6 L 666.606,-6.53017
 L 666.77,-7.03717 L 667.037,-7.49884 L 667.394,-7.895 L 667.825,-8.20836 L 668.312,-8.42519 L 668.833,-8.53603
 L 669.367,-8.53603 L 669.888,-8.42519 L 670.375,-8.20836 L 670.806,-7.895 L 671.163,-7.49884 L 671.43,-7.03717
 L 671.594,-6.53017 L 671.65,-6 L 671.65,-0 L 831.95,-0 L 831.95,-6 L 832.006,-6.53017
 L 832.17,-7.03717 L 832.437,-7.49884 L 832.794,-7.895 L 833.225,-8.20836 L 833.712,-8.42519 L 834.233,-8.53603
 L 834.767,-8.53603 L 835.288,-8.42519 L 835.775,-8.20836 L 836.206,-7.895 L 836.563,-7.49884 L 836.83,-7.03717
 L 836.994,-6.53017 L 837.05,-6 L 837.05,-0 L 842,-0 z
M 6.98573,-55.607 L 6.47708,-55.6875 L 5.97964,-55.8208 L 5.49887,-56.0054 L 5.04001,-56.2392 L 4.60811,-56.5196
 L 4.20789,-56.8437 L 3.84373,-57.2079 L 3.51964,-57.6081 L 3.23917,-58.04 L 3.00537,-58.4989 L 2.82082,-58.9796
 L 2.68752,-59.4771 L 2.60696,-59.9857 L 2.58,-60.5 L 2.60696,-61.0143 L 2.68752,-61.5229 L 2.82082,-62.0204
 L 3.00537,-62.5011 L 3.23917,-62.96 L 3.51964,-63.3919 L 3.84373,-63.7921 L 4.20789,-64.1563 L 4.60811,-64.4804
 L 4.95001,-64.7024 L 4.95001,-74 L 5.00574,-74.5302 L 5.17047,-75.0372 L 5.43701,-75.4988 L 5.79373,-75.895
 L 6.22501,-76.2084 L 6.71202,-76.4252 L 7.23346,-76.536 L 7.76654,-76.536 L 8.28798,-76.4252 L 8.77499,-76.2084
 L 9.20627,-75.895 L 9.56299,-75.4988 L 9.82953,-75.0372 L 9.99426,-74.5302 L 10.05,-74 L 10.05,-64.7024
 L 10.3919,-64.4804 L 10.7921,-64.1563 L 11.1563,-63.7921 L 11.4804,-63.3919 L 11.7608,-62.96 L 11.9946,-62.5011
 L 12.1792,-62.0204 L 12.3125,-61.5229 L 12.393,-61.0143 L 12.42,-60.5 L 12.393,-59.9857 L 12.3125,-59.4771
 L 12.1792,-58.9796 L 11.9946,-58.4989 L 11.7608,-58.04 L 11.4804,-57.6081 L 11.1563,-57.2079 L 10.7921,-56.8437
 L 10.3919,-56.5196 L 9.95999,-56.2392 L 9.50113,-56.0054 L 9.02036,-55.8208 L 8.52292,-55.6875 L 8.01427,-55.607
 L 7.5,-55.58 z
M 172.386,-55.607 L 171.877,-55.6875 L 171.38,-55.8208 L 170.899,-56.0054 L 170.44,-56.2392 L 170.008,-56.5196
 L 169.608,-56.8437 L 169.244,-57.2079 L 168.92,-57.6081 L 168.639,-58.04 L 168.405,-58.4989 L 168.221,-58.9796
 L 168.088,-59.4771 L 168.007,-59.9857 L 167.98,-60.5 L 168.007,-61.0143 L 168.088,-61.5229 L 168.221,-62.0204
 L 168.405,-62.5011 L 168.639,-62.96 L 168.92,-63.3919 L 169.244,-63.7921 L 169.608,-64.1563 L 170.008,-64.4804
 L 170.35,-64.7024 L 170.35,-74 L 170.406,-74.5302 L 170.57,-75.0372 L 170.837,-75.4988 L 171.194,-75.895
 L 171.625,-76.2084 L 172.112,-76.4252 L 172.633,-76.536 L 173.167,-76.536 L 173.688,-76.4252 L 174.175,-76.2084
 L 174.606,-75.895 L 174.963,-75.4988 L 175.23,-75.0372 L 175.394,-74.5302 L 175.45,-74 L 175.45,-64.7024
 L 175.792,-64.4804 L 176.192,-64.1563 L 176.556,-63.7921 L 176.88,-63.3919 L 177.161,-62.96 L 177.395,-62.5011
 L 177.579,-62.0204 L 177.712,-61.5229 L 177.793,-61.0143 L 177.82,-60.5 L 177.793,-59.9857 L 177.712,-59.4771
 L 177.579,-58.9796 L 177.395,-58.4989 L 177.161,-58.04 L 176.88,-57.6081 L 176.556,-57.2079 L 176.192,-56.8437
 L 175.792,-56.5196 L 175.36,-56.2392 L 174.901,-56.0054 L 174.42,-55.8208 L 173.923,-55.6875 L 173.414,-55.607
 L 172.9,-55.58 z
M 337.786,-55.607 L 337.277,-55.6875 L 336.78,-55.8208 L 336.299,-56.0054 L 335.84,-56.2392 L 335.408,-56.5196
 L 335.008,-56.8437 L 334.644,-57.2079 L 334.32,-57.6081 L 334.039,-58.04 L 333.805,-58.4989 L 333.621,-58.9796
 L 333.488,-59.4771 L 333.407,-59.9857 L 333.38,-60.5 L 333.407,-61.0143 L 333.488,-61.5229 L 333.621,-62.0204
 L 333.805,-62.5011 L 334.039,-62.96 L 334.32,-63.3919 L 334.644,-63.7921 L 335.008,-64.1563 L 335.408,-64.4804
 L 335.75,-64.7024 L 335.75,-74 L 335.806,-74.5302 L 335.97,-75.0372 L 336.237,-75.4988 L 336.594,-75.895
 L 337.025,-76.2084 L 337.512,-76.4252 L 338.033,-76.536 L 338.567,-76.536 L 339.088,-76.4252 L 339.575,-76.2084
 L 340.006,-75.895 L 340.363,-75.4988 L 340.63,-75.0372 L 340.794,-74.5302 L 340.85,-74 L 340.85,-64.7024
 L 341.192,-64.4804 L 341.592,-64.1563 L 341.956,-63.7921 L 342.28,-63.3919 L 342.561,-62.96 L 342.795,-62.5011
 L 342.979,-62.0204 L 343.112,-61.5229 L 343.193,-61.0143 L 343.22,-60.5 L 343.193,-59.9857 L 343.112,-59.4771
 L 342.979,-58.9796 L 342.795,-58.4989 L 342.561,-58.04 L 342.28,-57.6081 L 341.956,-57.2079 L 341.592,-56.8437
 L 341.192,-56.5196 L 340.76,-56.2392 L 340.301,-56.0054 L 339.82,-55.8208 L 339.323,-55.6875 L 338.814,-55.607
 L 338.3,-55.58 z
M 503.186,-55.607 L 502.677,-55.6875 L 502.18,-55.8208 L 501.699,-56.0054 L 501.24,-56.2392 L 500.808,-56.5196
 L 500.408,-56.8437 L 500.044,-57.2079 L 499.72,-57.6081 L 499.439,-58.04 L 499.205,-58.4989 L 499.021,-58.9796
 L 498.888,-59.4771 L 498.807,-59.9857 L 498.78,-60.5 L 498.807,-61.0143 L 498.888,-61.5229 L 499.021,-62.0204
 L 499.205,-62.5011 L 499.439,-62.96 L 499.72,-63.3919 L 500.044,-63.7921 L 500.408,-64.1563 L 500.808,-64.4804
 L 501.15,-64.7024 L 501.15,-74 L 501.206,-74.5302 L 501.37,-75.0372 L 501.637,-75.4988 L 501.994,-75.895
 L 502.425,-76.2084 L 502.912,-76.4252 L 503.433,-76.536 L 503.967,-76.536 L 504.488,-76.4252 L 504.975,-76.2084
 L 505.406,-75.895 L 505.763,-75.4988 L 506.03,-75.0372 L 506.194,-74.5302 L 506.25,-74 L 506.25,-64.7024
 L 506.592,-64.4804 L 506.992,-64.1563 L 507.356,-63.7921 L 507.68,-63.3919 L 507.961,-62.96 L 508.195,-62.5011
 L 508.379,-62.0204 L 508.512,-61.5229 L 508.593,-61.0143 L 508.62,-60.5 L 508.593,-59.9857 L 508.512,-59.4771
 L 508.379,-58.9796 L 508.195,-58.4989 L 507.961,-58.04 L 507.68,-57.6081 L 507.356,-57.2079 L 506.992,-56.8437
 L 506.592,-56.5196 L 506.16,-56.2392 L 505.701,-56.0054 L 505.22,-55.8208 L 504.723,-55.6875 L 504.214,-55.607
 L 503.7,-55.58 z
M 668.586,-55.607 L 668.077,-55.6875 L 667.58,-55.8208 L 667.099,-56.0054 L 666.64,-56.2392 L 666.208,-56.5196
 L 665.808,-56.8437 L 665.444,-57.2079 L 665.12,-57.6081 L 664.839,-58.04 L 664.605,-58.4989 L 664.421,-58.9796
 L 664.288,-59.4771 L 664.207,-59.9857 L 664.18,-60.5 L 664.207,-61.0143 L 664.288,-61.5229 L 664.421,-62.0204
 L 664.605,-62.5011 L 664.839,-62.96 L 665.12,-63.3919 L 665.444,-63.7921 L 665.808,-64.1563 L 666.208,-64.4804
 L 666.55,-64.7024 L 666.55,-74 L 666.606,-74.5302 L 666.77,-75.0372 L 667.037,-75.4988 L 667.394,-75.895
 L 667.825,-76.2084 L 668.312,-76.4252 L 668.833,-76.536 L 669.367,-76.536 L 669.888,-76.4252 L 670.375,-76.2084
 L 670.806,-75.895 L 671.163,-75.4988 L 671.43,-75.0372 L 671.594,-74.5302 L 671.65,-74 L 671.65,-64.7024
 L 671.992,-64.4804 L 672.392,-64.1563 L 672.756,-63.7921 L 673.08,-63.3919 L 673.361,-62.96 L 673.595,-62.5011
 L 673.779,-62.0204 L 673.912,-61.5229 L 673.993,-61.0143 L 674.02,-60.5 L 673.993,-59.9857 L 673.912,-59.4771
 L 673.779,-58.9796 L 673.595,-58.4989 L 673.361,-58.04 L 673.08,-57.6081 L 672.756,-57.2079 L 672.392,-56.8437
 L 671.992,-56.5196 L 671.56,-56.2392 L 671.101,-56.0054 L 670.62,-55.8208 L 670.123,-55.6875 L 669.614,-55.607
 L 669.1,-55.58 z
M 833.986,-55.607 L 833.477,-55.6875 L 832.98,-55.8208 L 832.499,-56.0054 L 832.04,-56.2392 L 831.608,-56.5196
 L 831.208,-56.8437 L 830.844,-57.2079 L 830.52,-57.6081 L 830.239,-58.04 L 830.005,-58.4989 L 829.821,-58.9796
 L 829.688,-59.4771 L 829.607,-59.9857 L 829.58,-60.5 L 829.607,-61.0143 L 829.688,-61.5229 L 829.821,-62.0204
 L 830.005,-62.5011 L 830.239,-62.96 L 830.52,-63.3919 L 830.844,-63.7921 L 831.208,-64.1563 L 831.608,-64.4804
 L 831.95,-64.7024 L 831.95,-74 L 832.006,-74.5302 L 832.17,-75.0372 L 832.437,-75.4988 L 832.794,-75.895
 L 833.225,-76.2084 L 833.712,-76.4252 L 834.233,-76.536 L 834.767,-76.536 L 835.288,-76.4252 L 835.775,-76.2084
 L 836.206,-75.895 L 836.563,-75.4988 L 836.83,-75.0372 L 836.994,-74.5302 L 837.05,-74 L 837.05,-64.7024
 L 837.392,-64.4804 L 837.792,-64.1563 L 838.156,-63.7921 L 838.48,-63.3919 L 838.761,-62.96 L 838.995,-62.5011
 L 839.179,-62.0204 L 839.312,-61.5229 L 839.393,-61.0143 L 839.42,-60.5 L 839.393,-59.9857 L 839.312,-59.4771
 L 839.179,-58.9796 L 838.995,-58.4989 L 838.761,-58.04 L 838.48,-57.6081 L 838.156,-57.2079 L 837.792,-56.8437
 L 837.392,-56.5196 L 836.96,-56.2392 L 836.501,-56.0054 L 836.02,-55.8208 L 835.523,-55.6875 L 835.014,-55.607
 L 834.5,-55.58 z
M 420.281,-47.9535 L 419.479,-48.1889 L 404.613,-54.3005 L 403.783,-54.7639 L 403.162,-55.3235 L 402.67,-56
 L 402.33,-56.7639 L 402.156,-57.5819 L 402.156,-58.4181 L 402.33,-59.2361 L 402.67,-60 L 403.162,-60.6765
 L 403.783,-61.2361 L 404.507,-61.6542 L 405.303,-61.9126 L 406.134,-62 L 435.866,-62 L 436.81,-61.887
 L 437.597,-61.6058 L 438.309,-61.167 L 438.914,-60.5898 L 439.386,-59.8994 L 439.704,-59.1259 L 439.854,-58.3033
 L 439.83,-57.4674 L 439.633,-56.6548 L 439.271,-55.901 L 438.76,-55.2389 L 438.122,-54.6975 L 437.387,-54.3005
 L 422.521,-48.1889 L 421.944,-48.0014 L 421.115,-47.8901 z
M 324.581,-21.4596 L 323.779,-21.695 L 244.471,-54.3005 L 243.641,-54.7639 L 243.019,-55.3235 L 242.528,-56
 L 242.188,-56.7639 L 242.014,-57.5819 L 242.014,-58.4181 L 242.188,-59.2361 L 242.528,-60 L 243.019,-60.6765
 L 243.641,-61.2361 L 244.365,-61.6542 L 245.16,-61.9126 L 245.992,-62 L 325.3,-62 L 326.536,-61.8042
 L 327.3,-61.4641 L 327.977,-60.9726 L 328.536,-60.3511 L 328.954,-59.627 L 329.213,-58.8316 L 329.3,-58
 L 329.3,-25.3946 L 329.138,-24.2686 L 328.82,-23.4952 L 328.348,-22.8048 L 327.743,-22.2276 L 327.032,-21.7888
 L 326.244,-21.5076 L 325.415,-21.3962 z
M 681.156,-21.5076 L 680.368,-21.7888 L 679.657,-22.2276 L 679.052,-22.8048 L 678.58,-23.4952 L 678.262,-24.2686
 L 678.1,-25.3946 L 678.1,-58 L 678.187,-58.8316 L 678.446,-59.627 L 678.864,-60.3511 L 679.423,-60.9726
 L 680.1,-61.4641 L 680.864,-61.8042 L 682.1,-62 L 761.408,-62 L 762.24,-61.9126 L 763.035,-61.6542
 L 763.759,-61.2361 L 764.381,-60.6765 L 764.872,-60 L 765.212,-59.2361 L 765.386,-58.4181 L 765.386,-57.5819
 L 765.212,-56.7639 L 764.872,-56 L 764.381,-55.3235 L 763.759,-54.7639 L 762.929,-54.3005 L 683.621,-21.695
 L 682.819,-21.4596 L 681.985,-21.3962 z
M 159.181,-21.4596 L 158.379,-21.695 L 79.0711,-54.3005 L 78.2409,-54.7639 L 77.6195,-55.3235 L 77.1279,-56
 L 76.7878,-56.7639 L 76.614,-57.5819 L 76.614,-58.4181 L 76.7878,-59.2361 L 77.1279,-60 L 77.6195,-60.6765
 L 78.2409,-61.2361 L 78.9651,-61.6542 L 79.7604,-61.9126 L 80.592,-62 L 159.9,-62 L 161.136,-61.8042
 L 161.9,-61.4641 L 162.577,-60.9726 L 163.136,-60.3511 L 163.554,-59.627 L 163.813,-58.8316 L 163.9,-58
 L 163.9,-25.3946 L 163.738,-24.2686 L 163.42,-23.4952 L 162.948,-22.8048 L 162.343,-22.2276 L 161.632,-21.7888
 L 160.844,-21.5076 L 160.015,-21.3962 z
M 515.756,-21.5076 L 514.968,-21.7888 L 514.257,-22.2276 L 513.652,-22.8048 L 513.18,-23.4952 L 512.862,-24.2686
 L 512.7,-25.3946 L 512.7,-58 L 512.787,-58.8316 L 513.046,-59.627 L 513.464,-60.3511 L 514.023,-60.9726
 L 514.7,-61.4641 L 515.464,-61.8042 L 516.7,-62 L 596.008,-62 L 596.84,-61.9126 L 597.635,-61.6542
 L 598.359,-61.2361 L 598.981,-60.6765 L 599.472,-60 L 599.812,-59.2361 L 599.986,-58.4181 L 599.986,-57.5819
 L 599.812,-56.7639 L 599.472,-56 L 598.981,-55.3235 L 598.359,-54.7639 L 597.529,-54.3005 L 518.221,-21.695
 L 517.419,-21.4596 L 516.585,-21.3962 z
M 350.882,-19.2549 L 350.064,-19.4288 L 349.3,-19.7689 L 348.623,-20.2605 L 348.064,-20.8819 L 347.646,-21.6061
 L 347.387,-22.4014 L 347.3,-23.233 L 347.3,-56.767 L 347.462,-57.8929 L 347.78,-58.6663 L 348.252,-59.3567
 L 348.857,-59.9339 L 349.568,-60.3728 L 350.356,-60.654 L 351.185,-60.7653 L 352.019,-60.7019 L 352.821,-60.4665
 L 393.604,-43.6995 L 394.527,-43.167 L 395.132,-42.5898 L 395.603,-41.8994 L 395.921,-41.1259 L 396.072,-40.3033
 L 396.048,-39.4674 L 395.85,-38.6548 L 395.488,-37.901 L 394.977,-37.2389 L 394.34,-36.6975 L 393.604,-36.3005
 L 352.821,-19.5335 L 351.718,-19.2549 z
M 489.981,-19.2981 L 489.179,-19.5335 L 448.396,-36.3005 L 447.473,-36.833 L 446.868,-37.4102 L 446.396,-38.1006
 L 446.079,-38.8741 L 445.928,-39.6967 L 445.952,-40.5326 L 446.15,-41.3452 L 446.512,-42.099 L 447.023,-42.7611
 L 447.66,-43.3025 L 448.396,-43.6995 L 489.179,-60.4665 L 490.282,-60.7451 L 491.118,-60.7451 L 491.936,-60.5712
 L 492.7,-60.2311 L 493.377,-59.7395 L 493.936,-59.1181 L 494.354,-58.3939 L 494.613,-57.5986 L 494.7,-56.767
 L 494.7,-23.233 L 494.538,-22.1071 L 494.22,-21.3337 L 493.748,-20.6433 L 493.143,-20.0661 L 492.432,-19.6272
 L 491.644,-19.346 L 490.815,-19.2347 z
M 185.9,-18 L 184.664,-18.1958 L 183.9,-18.5359 L 183.223,-19.0274 L 182.664,-19.6489 L 182.246,-20.373
 L 181.987,-21.1684 L 181.9,-22 L 181.9,-54.6054 L 182.062,-55.7314 L 182.38,-56.5048 L 182.852,-57.1952
 L 183.457,-57.7724 L 184.168,-58.2112 L 184.956,-58.4924 L 185.785,-58.6038 L 186.619,-58.5404 L 187.421,-58.305
 L 266.729,-25.6995 L 267.559,-25.2361 L 268.181,-24.6765 L 268.672,-24 L 269.012,-23.2361 L 269.186,-22.4181
 L 269.186,-21.5819 L 269.012,-20.7639 L 268.672,-20 L 268.181,-19.3235 L 267.559,-18.7639 L 266.835,-18.3458
 L 266.04,-18.0874 L 265.208,-18 z
M 576.792,-18 L 575.96,-18.0874 L 575.165,-18.3458 L 574.441,-18.7639 L 573.819,-19.3235 L 573.328,-20
 L 572.988,-20.7639 L 572.814,-21.5819 L 572.814,-22.4181 L 572.988,-23.2361 L 573.328,-24 L 573.819,-24.6765
 L 574.441,-25.2361 L 575.271,-25.6995 L 654.579,-58.305 L 655.381,-58.5404 L 656.215,-58.6038 L 657.044,-58.4924
 L 657.832,-58.2112 L 658.543,-57.7724 L 659.148,-57.1952 L 659.62,-56.5048 L 659.938,-55.7314 L 660.1,-54.6054
 L 660.1,-22 L 660.013,-21.1684 L 659.754,-20.373 L 659.336,-19.6489 L 658.777,-19.0274 L 658.1,-18.5359
 L 657.336,-18.1958 L 656.1,-18 z
M 22,-18 L 20.7639,-18.1958 L 20,-18.5359 L 19.3235,-19.0274 L 18.7639,-19.6489 L 18.3458,-20.373
 L 18.0874,-21.1684 L 18,-22 L 18,-53.9888 L 18.1617,-55.1147 L 18.4797,-55.8881 L 18.9515,-56.5785
 L 19.5566,-57.1557 L 20.2684,-57.5945 L 21.056,-57.8758 L 21.8847,-57.9871 L 22.7186,-57.9237 L 23.521,-57.6883
 L 101.329,-25.6995 L 102.159,-25.2361 L 102.781,-24.6765 L 103.272,-24 L 103.612,-23.2361 L 103.786,-22.4181
 L 103.786,-21.5819 L 103.612,-20.7639 L 103.272,-20 L 102.781,-19.3235 L 102.159,-18.7639 L 101.435,-18.3458
 L 100.64,-18.0874 L 99.8079,-18 z
M 742.192,-18 L 741.36,-18.0874 L 740.565,-18.3458 L 739.841,-18.7639 L 739.219,-19.3235 L 738.728,-20
 L 738.388,-20.7639 L 738.214,-21.5819 L 738.214,-22.4181 L 738.388,-23.2361 L 738.728,-24 L 739.219,-24.6765
 L 739.841,-25.2361 L 740.671,-25.6995 L 818.479,-57.6883 L 819.281,-57.9237 L 820.115,-57.9871 L 820.944,-57.8758
 L 821.732,-57.5945 L 822.443,-57.1557 L 823.048,-56.5785 L 823.52,-55.8881 L 823.838,-55.1147 L 824,-53.9888
 L 824,-22 L 823.913,-21.1684 L 823.654,-20.373 L 823.236,-19.6489 L 822.677,-19.0274 L 822,-18.5359
 L 821.236,-18.1958 L 820,-18 z
M 406.134,-18 L 405.19,-18.113 L 404.403,-18.3942 L 403.691,-18.833 L 403.086,-19.4102 L 402.614,-20.1006
 L 402.296,-20.8741 L 402.146,-21.6967 L 402.17,-22.5326 L 402.367,-23.3452 L 402.729,-24.099 L 403.24,-24.7611
 L 403.878,-25.3025 L 404.613,-25.6995 L 419.479,-31.8111 L 420.056,-31.9986 L 420.885,-32.1099 L 421.719,-32.0465
 L 422.521,-31.8111 L 437.387,-25.6995 L 438.217,-25.2361 L 438.838,-24.6765 L 439.33,-24 L 439.67,-23.2361
 L 439.844,-22.4181 L 439.844,-21.5819 L 439.67,-20.7639 L 439.33,-20 L 438.838,-19.3235 L 438.217,-18.7639
 L 437.492,-18.3458 L 436.697,-18.0874 L 435.866,-18 z
" stroke="black" fill="lightgray" stroke-width="0.5"/>
</svg>
