<?xml version="1.0" standalone="no"?>
<!DOCTYPE svg PUBLIC "-//W3C//DTD SVG 1.1//EN" "http://www.w3.org/Graphics/SVG/1.1/DTD/svg11.dtd">
<svg width="998mm" height="80mm" viewBox="0 -80 998 80" xmlns="http://www.w3.org/2000/svg" version="1.1">
<title>OpenSCAD Model</title>
<path d="
M 998,-80 L 0,-80 L 0,-0 L 4.95,-0 L 4.95,-6 L 5.00572,-6.53017
 L 5.17046,-7.03717 L 5.437,-7.49884 L 5.79372,-7.895 L 6.22499,-8.20836 L 6.71201,-8.42519 L 7.23344,-8.53603
 L 7.76654,-8.53603 L 8.28798,-8.42519 L 8.77499,-8.20836 L 9.20627,-7.895 L 9.56299,-7.49884 L 9.82953,-7.03717
 L 9.99426,-6.53017 L 10.05,-6 L 10.05,-0 L 201.55,-0 L 201.55,-6 L 201.606,-6.53017
 L 201.77,-7.03717 L 202.037,-7.49884 L 202.394,-7.895 L 202.825,-8.20836 L 203.312,-8.42519 L 203.833,-8.53603
 L 204.367,-8.53603 L 204.888,-8.42519 L 205.375,-8.20836 L 205.806,-7.895 L 206.163,-7.49884 L 206.43,-7.03717
 L 206.594,-6.53017 L 206.65,-6 L 206.65,-0 L 398.15,-0 L 398.15,-6 L 398.206,-6.53017
 L 398.37,-7.03717 L 398.637,-7.49884 L 398.994,-7.895 L 399.425,-8.20836 L 399.912,-8.42519 L 400.433,-8.53603
 L 400.967,-8.53603 L 401.488,-8.42519 L 401.975,-8.20836 L 402.406,-7.895 L 402.763,-7.49884 L 403.03,-7.03717
 L 403.194,-6.53017 L 403.25,-6 L 403.25,-0 L 594.75,-0 L 594.75,-6 L 594.806,-6.53017
 L 594.97,-7.03717 L 595.237,-7.49884 L 595.594,-7.895 L 596.025,-8.20836 L 596.512,-8.42519 L 597.033,-8.53603
 L 597.567,-8.53603 L 598.088,-8.42519 L 598.575,-8.20836 L 599.006,-7.895 L 599.363,-7.49884 L 599.63,-7.03717
 L 599.794,-6.53017 L 599.85,-6 L 599.85,-0 L 791.35,-0 L 791.35,-6 L 791.406,-6.53017
 L 791.57,-7.03717 L 791.837,-7.49884 L 792.194,-7.895 L 792.625,-8.20836 L 793.112,-8.42519 L 793.633,-8.53603
 L 794.167,-8.53603 L 794.688,-8.42519 L 795.175,-8.20836 L 795.606,-7.895 L 795.963,-7.49884 L 796.23,-7.03717
 L 796.394,-6.53017 L 796.45,-6 L 796.45,-0 L 987.95,-0 L 987.95,-6 L 988.006,-6.53017
 L 988.17,-7.03717 L 988.437,-7.49884 L 988.794,-7.895 L 989.225,-8.20836 L 989.712,-8.42519 L 990.233,-8.53603
 L 990.767,-8.53603 L 991.288,-8.42519 L 991.775,-8.20836 L 992.206,-7.895 L 992.563,-7.49884 L 992.83,-7.03717
 L 992.994,-6.53017 L 993.05,-6 L 993.05,-0 L 998,-0 z
M 6.98573,-55.607 L 6.47708,-55.6875 L 5.97964,-55.8208 L 5.49887,-56.0054 L 5.04001,-56.2392 L 4.60811,-56.5196
 L 4.20789,-56.8437 L 3.84373,-57.2079 L 3.51964,-57.6081 L 3.23917,-58.04 L 3.00537,-58.4989 L 2.82082,-58.9796
 L 2.68752,-59.4771 L 2.60696,-59.9857 L 2.58,-60.5 L 2.60696,-61.0143 L 2.68752,-61.5229 L 2.82082,-62.0204
 L 3.00537,-62.5011 L 3.23917,-62.96 L 3.51964,-63.3919 L 3.84373,-63.7921 L 4.20789,-64.1563 L 4.60811,-64.4804
 L 4.95001,-64.7024 L 4.95001,-74 L 5.00574,-74.5302 L 5.17047,-75.0372 L 5.43701,-75.4988 L 5.79373,-75.895
 L 6.22501,-76.2084 L 6.71202,-76.4252 L 7.23346,-76.536 L 7.76654,-76.536 L 8.28798,-76.4252 L 8.77499,-76.2084
 L 9.20627,-75.895 L 9.56299,-75.4988 L 9.82953,-75.0372 L 9.99426,-74.5302 L 10.05,-74 L 10.05,-64.7024
 L 10.3919,-64.4804 L 10.7921,-64.1563 L 11.1563,-63.7921 L 11.4804,-63.3919 L 11.7608,-62.96 L 11.9946,-62.5011
 L 12.1792,-62.0204 L 12.3125,-61.5229 L 12.393,-61.0143 L 12.42,-60.5 L 12.393,-59.9857 L 12.3125,-59.4771
 L 12.1792,-58.9796 L 11.9946,-58.4989 L 11.7608,-58.04 L 11.4804,-57.6081 L 11.1563,-57.2079 L 10.7921,-56.8437
 L 10.3919,-56.5196 L 9.95999,-56.2392 L 9.50113,-56.0054 L 9.02036,-55.8208 L 8.52292,-55.6875 L 8.01427,-55.607
 L 7.5,-55.58 z
M 203.586,-55.607 L 203.077,-55.6875 L 202.58,-55.8208 L 202.099,-56.0054 L 201.64,-56.2392 L 201.208,-56.5196
 L 200.808,-56.8437 L 200.444,-57.2079 L 200.12,-57.6081 L 199.839,-58.04 L 199.605,-58.4989 L 199.421,-58.9796
 L 199.288,-59.4771 L 199.207,-59.9857 L 199.18,-60.5 L 199.207,-61.0143 L 199.288,-61.5229 L 199.421,-62.0204
 L 199.605,-62.5011 L 199.839,-62.96 L 200.12,-63.3919 L 200.444,-63.7921 L 200.808,-64.1563 L 201.208,-64.4804
 L 201.55,-64.7024 L 201.55,-74 L 201.606,-74.5302 L 201.77,-75.0372 L 202.037,-75.4988 L 202.394,-75.895
 L 202.825,-76.2084 L 203.312,-76.4252 L 203.833,-76.536 L 204.367,-76.536 L 204.888,-76.4252 L 205.375,-76.2084
 L 205.806,-75.895 L 206.163,-75.4988 L 206.43,-75.0372 L 206.594,-74.5302 L 206.65,-74 L 206.65,-64.7024
 L 206.992,-64.4804 L 207.392,-64.1563 L 207.756,-63.7921 L 208.08,-63.3919 L 208.361,-62.96 L 208.595,-62.5011
 L 208.779,-62.0204 L 208.912,-61.5229 L 208.993,-61.0143 L 209.02,-60.5 L 208.993,-59.9857 L 208.912,-59.4771
 L 208.779,-58.9796 L 208.595,-58.4989 L 208.361,-58.04 L 208.08,-57.6081 L 207.756,-57.2079 L 207.392,-56.8437
 L 206.992,-56.5196 L 206.56,-56.2392 L 206.101,-56.0054 L 205.62,-55.8208 L 205.123,-55.6875 L 204.614,-55.607
 L 204.1,-55.58 z
M 400.186,-55.607 L 399.677,-55.6875 L 399.18,-55.8208 L 398.699,-56.0054 L 398.24,-56.2392 L 397.808,-56.5196
 L 397.408,-56.8437 L 397.044,-57.2079 L 396.72,-57.6081 L 396.439,-58.04 L 396.205,-58.4989 L 396.021,-58.9796
 L 395.888,-59.4771 L 395.807,-59.9857 L 395.78,-60.5 L 395.807,-61.0143 L 395.888,-61.5229 L 396.021,-62.0204
 L 396.205,-62.5011 L 396.439,-62.96 L 396.72,-63.3919 L 397.044,-63.7921 L 397.408,-64.1563 L 397.808,-64.4804
 L 398.15,-64.7024 L 398.15,-74 L 398.206,-74.5302 L 398.37,-75.0372 L 398.637,-75.4988 L 398.994,-75.895
 L 399.425,-76.2084 L 399.912,-76.4252 L 400.433,-76.536 L 400.967,-76.536 L 401.488,-76.4252 L 401.975,-76.2084
 L 402.406,-75.895 L 402.763,-75.4988 L 403.03,-75.0372 L 403.194,-74.5302 L 403.25,-74 L 403.25,-64.7024
 L 403.592,-64.4804 L 403.992,-64.1563 L 404.356,-63.7921 L 404.68,-63.3919 L 404.961,-62.96 L 405.195,-62.5011
 L 405.379,-62.0204 L 405.512,-61.5229 L 405.593,-61.0143 L 405.62,-60.5 L 405.593,-59.9857 L 405.512,-59.4771
 L 405.379,-58.9796 L 405.195,-58.4989 L 404.961,-58.04 L 404.68,-57.6081 L 404.356,-57.2079 L 403.992,-56.8437
 L 403.592,-56.5196 L 403.16,-56.2392 L 402.701,-56.0054 L 402.22,-55.8208 L 401.723,-55.6875 L 401.214,-55.607
 L 400.7,-55.58 z
M 596.786,-55.607 L 596.277,-55.6875 L 595.78,-55.8208 L 595.299,-56.0054 L 594.84,-56.2392 L 594.408,-56.5196
 L 594.008,-56.8437 L 593.644,-57.2079 L 593.32,-57.6081 L 593.039,-58.04 L 592.805,-58.4989 L 592.621,-58.9796
 L 592.488,-59.4771 L 592.407,-59.9857 L 592.38,-60.5 L 592.407,-61.0143 L 592.488,-61.5229 L 592.621,-62.0204
 L 592.805,-62.5011 L 593.039,-62.96 L 593.32,-63.3919 L 593.644,-63.7921 L 594.008,-64.1563 L 594.408,-64.4804
 L 594.75,-64.7024 L 594.75,-74 L 594.806,-74.5302 L 594.97,-75.0372 L 595.237,-75.4988 L 595.594,-75.895
 L 596.025,-76.2084 L 596.512,-76.4252 L 597.033,-76.536 L 597.567,-76.536 L 598.088,-76.4252 L 598.575,-76.2084
 L 599.006,-75.895 L 599.363,-75.4988 L 599.63,-75.0372 L 599.794,-74.5302 L 599.85,-74 L 599.85,-64.7024
 L 600.192,-64.4804 L 600.592,-64.1563 L 600.956,-63.7921 L 601.28,-63.3919 L 601.561,-62.96 L 601.795,-62.5011
 L 601.979,-62.0204 L 602.112,-61.5229 L 602.193,-61.0143 L 602.22,-60.5 L 602.193,-59.9857 L 602.112,-59.4771
 L 601.979,-58.9796 L 601.795,-58.4989 L 601.561,-58.04 L 601.28,-57.6081 L 600.956,-57.2079 L 600.592,-56.8437
 L 600.192,-56.5196 L 599.76,-56.2392 L 599.301,-56.0054 L 598.82,-55.8208 L 598.323,-55.6875 L 597.814,-55.607
 L 597.3,-55.58 z
M 793.386,-55.607 L 792.877,-55.6875 L 792.38,-55.8208 L 791.899,-56.0054 L 791.44,-56.2392 L 791.008,-56.5196
 L 790.608,-56.8437 L 790.244,-57.2079 L 789.92,-57.6081 L 789.639,-58.04 L 789.405,-58.4989 L 789.221,-58.9796
 L 789.088,-59.4771 L 789.007,-59.9857 L 788.98,-60.5 L 789.007,-61.0143 L 789.088,-61.5229 L 789.221,-62.0204
 L 789.405,-62.5011 L 789.639,-62.96 L 789.92,-63.3919 L 790.244,-63.7921 L 790.608,-64.1563 L 791.008,-64.4804
 L 791.35,-64.7024 L 791.35,-74 L 791.406,-74.5302 L 791.57,-75.0372 L 791.837,-75.4988 L 792.194,-75.895
 L 792.625,-76.2084 L 793.112,-76.4252 L 793.633,-76.536 L 794.167,-76.536 L 794.688,-76.4252 L 795.175,-76.2084
 L 795.606,-75.895 L 795.963,-75.4988 L 796.23,-75.0372 L 796.394,-74.5302 L 796.45,-74 L 796.45,-64.7024
 L 796.792,-64.4804 L 797.192,-64.1563 L 797.556,-63.7921 L 797.88,-63.3919 L 798.161,-62.96 L 798.395,-62.5011
 L 798.579,-62.0204 L 798.712,-61.5229 L 798.793,-61.0143 L 798.82,-60.5 L 798.793,-59.9857 L 798.712,-59.4771
 L 798.579,-58.9796 L 798.395,-58.4989 L 798.161,-58.04 L 797.88,-57.6081 L 797.556,-57.2079 L 797.192,-56.8437
 L 796.792,-56.5196 L 796.36,-56.2392 L 795.901,-56.0054 L 795.42,-55.8208 L 794.923,-55.6875 L 794.414,-55.607
 L 793.9,-55.58 z
M 989.986,-55.607 L 989.477,-55.6875 L 988.98,-55.8208 L 988.499,-56.0054 L 988.04,-56.2392 L 987.608,-56.5196
 L 987.208,-56.8437 L 986.844,-57.2079 L 986.52,-57.6081 L 986.239,-58.04 L 986.005,-58.4989 L 985.821,-58.9796
 L 985.688,-59.4771 L 985.607,-59.9857 L 985.58,-60.5 L 985.607,-61.0143 L 985.688,-61.5229 L 985.821,-62.0204
 L 986.005,-62.5011 L 986.239,-62.96 L 986.52,-63.3919 L 986.844,-63.7921 L 987.208,-64.1563 L 987.608,-64.4804
 L 987.95,-64.7024 L 987.95,-74 L 988.006,-74.5302 L 988.17,-75.0372 L 988.437,-75.4988 L 988.794,-75.895
 L 989.225,-76.2084 L 989.712,-76.4252 L 990.233,-76.536 L 990.767,-76.536 L 991.288,-76.4252 L 991.775,-76.2084
 L 992.206,-75.895 L 992.563,-75.4988 L 992.83,-75.0372 L 992.994,-74.5302 L 993.05,-74 L 993.05,-64.7024
 L 993.392,-64.4804 L 993.792,-64.1563 L 994.156,-63.7921 L 994.48,-63.3919 L 994.761,-62.96 L 994.995,-62.5011
 L 995.179,-62.0204 L 995.312,-61.5229 L 995.393,-61.0143 L 995.42,-60.5 L 995.393,-59.9857 L 995.312,-59.4771
 L 995.179,-58.9796 L 994.995,-58.4989 L 994.761,-58.04 L 994.48,-57.6081 L 994.156,-57.2079 L 993.792,-56.8437
 L 993.392,-56.5196 L 992.96,-56.2392 L 992.501,-56.0054 L 992.02,-55.8208 L 991.523,-55.6875 L 991.014,-55.607
 L 990.5,-55.58 z
M 498.507,-47.6678 L 497.692,-47.8571 L 479.297,-54.2197 L 478.253,-54.7639 L 477.632,-55.3235 L 477.14,-56
 L 476.8,-56.7639 L 476.626,-57.5819 L 476.626,-58.4181 L 476.8,-59.2361 L 477.14,-60 L 477.632,-60.6765
 L 478.253,-61.2361 L 478.977,-61.6542 L 479.773,-61.9126 L 480.604,-62 L 517.396,-62 L 518.56,-61.8268
 L 519.33,-61.5012 L 520.016,-61.0225 L 520.587,-60.4117 L 521.018,-59.6955 L 521.292,-58.9052 L 521.395,-58.0754
 L 521.323,-57.2422 L 521.08,-56.4422 L 520.675,-55.7102 L 520.128,-55.0784 L 519.461,-54.5742 L 518.703,-54.2197
 L 500.308,-47.8571 L 499.343,-47.6521 z
M 387.207,-20.2801 L 386.392,-20.4694 L 288.814,-54.2197 L 287.771,-54.7639 L 287.149,-55.3235 L 286.658,-56
 L 286.318,-56.7639 L 286.144,-57.5819 L 286.144,-58.4181 L 286.318,-59.2361 L 286.658,-60 L 287.149,-60.6765
 L 287.771,-61.2361 L 288.495,-61.6542 L 289.29,-61.9126 L 290.122,-62 L 387.7,-62 L 388.936,-61.8042
 L 389.7,-61.4641 L 390.377,-60.9726 L 390.936,-60.3511 L 391.354,-59.627 L 391.613,-58.8316 L 391.7,-58
 L 391.7,-24.2496 L 391.596,-23.3444 L 391.323,-22.5541 L 390.891,-21.838 L 390.32,-21.2272 L 389.634,-20.7485
 L 388.864,-20.4228 L 388.043,-20.2644 z
M 805.736,-20.4228 L 804.966,-20.7485 L 804.28,-21.2272 L 803.709,-21.838 L 803.277,-22.5541 L 803.004,-23.3444
 L 802.9,-24.2496 L 802.9,-58 L 802.987,-58.8316 L 803.246,-59.627 L 803.664,-60.3511 L 804.223,-60.9726
 L 804.9,-61.4641 L 805.664,-61.8042 L 806.9,-62 L 904.478,-62 L 905.31,-61.9126 L 906.105,-61.6542
 L 906.829,-61.2361 L 907.451,-60.6765 L 907.942,-60 L 908.282,-59.2361 L 908.456,-58.4181 L 908.456,-57.5819
 L 908.282,-56.7639 L 907.942,-56 L 907.451,-55.3235 L 906.829,-54.7639 L 905.786,-54.2197 L 808.208,-20.4694
 L 807.393,-20.2801 L 806.557,-20.2644 z
M 190.607,-20.2801 L 189.792,-20.4694 L 92.2142,-54.2197 L 91.1706,-54.7639 L 90.5492,-55.3235 L 90.0576,-56
 L 89.7175,-56.7639 L 89.5437,-57.5819 L 89.5437,-58.4181 L 89.7175,-59.2361 L 90.0576,-60 L 90.5492,-60.6765
 L 91.1706,-61.2361 L 91.8948,-61.6542 L 92.6901,-61.9126 L 93.5217,-62 L 191.1,-62 L 192.336,-61.8042
 L 193.1,-61.4641 L 193.777,-60.9726 L 194.336,-60.3511 L 194.754,-59.627 L 195.013,-58.8316 L 195.1,-58
 L 195.1,-24.2496 L 194.996,-23.3444 L 194.723,-22.5541 L 194.291,-21.838 L 193.72,-21.2272 L 193.034,-20.7485
 L 192.264,-20.4228 L 191.443,-20.2644 z
M 609.136,-20.4228 L 608.366,-20.7485 L 607.68,-21.2272 L 607.109,-21.838 L 606.677,-22.5541 L 606.404,-23.3444
 L 606.3,-24.2496 L 606.3,-58 L 606.387,-58.8316 L 606.646,-59.627 L 607.064,-60.3511 L 607.623,-60.9726
 L 608.3,-61.4641 L 609.064,-61.8042 L 610.3,-62 L 707.878,-62 L 708.71,-61.9126 L 709.505,-61.6542
 L 710.229,-61.2361 L 710.851,-60.6765 L 711.342,-60 L 711.682,-59.2361 L 711.856,-58.4181 L 711.856,-57.5819
 L 711.682,-56.7639 L 711.342,-56 L 710.851,-55.3235 L 710.229,-54.7639 L 709.186,-54.2197 L 611.608,-20.4694
 L 610.793,-20.2801 L 609.957,-20.2644 z
M 413.282,-18.1557 L 412.464,-18.3295 L 411.7,-18.6697 L 411.023,-19.1612 L 410.464,-19.7826 L 410.046,-20.5068
 L 409.787,-21.3021 L 409.7,-22.1338 L 409.7,-57.8662 L 409.804,-58.7714 L 410.077,-59.5617 L 410.509,-60.2779
 L 411.08,-60.8887 L 411.766,-61.3674 L 412.536,-61.6931 L 413.357,-61.8515 L 414.193,-61.8357 L 415.008,-61.6465
 L 466.662,-43.7803 L 467.289,-43.5012 L 467.974,-43.0225 L 468.546,-42.4117 L 468.977,-41.6955 L 469.251,-40.9052
 L 469.354,-40.0754 L 469.282,-39.2422 L 469.039,-38.4422 L 468.634,-37.7102 L 468.086,-37.0784 L 467.419,-36.5742
 L 466.662,-36.2197 L 415.008,-18.3535 L 414.118,-18.1557 z
M 583.807,-18.1643 L 582.992,-18.3535 L 531.338,-36.2197 L 530.711,-36.4988 L 530.025,-36.9775 L 529.454,-37.5883
 L 529.023,-38.3045 L 528.749,-39.0948 L 528.646,-39.9246 L 528.718,-40.7578 L 528.961,-41.5578 L 529.366,-42.2898
 L 529.913,-42.9216 L 530.581,-43.4258 L 531.338,-43.7803 L 582.992,-61.6465 L 583.882,-61.8443 L 584.718,-61.8443
 L 585.536,-61.6705 L 586.3,-61.3303 L 586.977,-60.8388 L 587.536,-60.2174 L 587.954,-59.4932 L 588.213,-58.6979
 L 588.3,-57.8662 L 588.3,-22.1338 L 588.196,-21.2285 L 587.923,-20.4383 L 587.491,-19.7221 L 586.92,-19.1113
 L 586.234,-18.6326 L 585.464,-18.3069 L 584.643,-18.1485 z
M 217.1,-18 L 215.864,-18.1958 L 215.1,-18.5359 L 214.423,-19.0274 L 213.864,-19.6489 L 213.446,-20.373
 L 213.187,-21.1684 L 213.1,-22 L 213.1,-55.7504 L 213.204,-56.6556 L 213.477,-57.4458 L 213.909,-58.162
 L 214.48,-58.7728 L 215.166,-59.2515 L 215.936,-59.5772 L 216.757,-59.7356 L 217.593,-59.7198 L 218.408,-59.5306
 L 315.986,-25.7803 L 317.029,-25.2361 L 317.651,-24.6765 L 318.142,-24 L 318.482,-23.2361 L 318.656,-22.4181
 L 318.656,-21.5819 L 318.482,-20.7639 L 318.142,-20 L 317.651,-19.3235 L 317.029,-18.7639 L 316.305,-18.3458
 L 315.51,-18.0874 L 314.678,-18 z
M 683.322,-18 L 682.49,-18.0874 L 681.695,-18.3458 L 680.971,-18.7639 L 680.349,-19.3235 L 679.858,-20
 L 679.518,-20.7639 L 679.344,-21.5819 L 679.344,-22.4181 L 679.518,-23.2361 L 679.858,-24 L 680.349,-24.6765
 L 680.971,-25.2361 L 682.014,-25.7803 L 779.592,-59.5306 L 780.407,-59.7198 L 781.243,-59.7356 L 782.064,-59.5772
 L 782.834,-59.2515 L 783.52,-58.7728 L 784.091,-58.162 L 784.523,-57.4458 L 784.796,-56.6556 L 784.9,-55.7504
 L 784.9,-22 L 784.813,-21.1684 L 784.554,-20.373 L 784.136,-19.6489 L 783.577,-19.0274 L 782.9,-18.5359
 L 782.136,-18.1958 L 780.9,-18 z
M 22,-18 L 20.7639,-18.1958 L 20,-18.5359 L 19.3235,-19.0274 L 18.7639,-19.6489 L 18.3458,-20.373
 L 18.0874,-21.1684 L 18,-22 L 18,-55.2315 L 18.1038,-56.1367 L 18.3771,-56.927 L 18.8088,-57.6432
 L 19.38,-58.254 L 20.0656,-58.7327 L 20.8358,-59.0584 L 21.6569,-59.2168 L 22.493,-59.201 L 23.3075,-59.0118
 L 119.386,-25.7803 L 120.429,-25.2361 L 121.051,-24.6765 L 121.542,-24 L 121.882,-23.2361 L 122.056,-22.4181
 L 122.056,-21.5819 L 121.882,-20.7639 L 121.542,-20 L 121.051,-19.3235 L 120.429,-18.7639 L 119.705,-18.3458
 L 118.91,-18.0874 L 118.078,-18 z
M 879.922,-18 L 879.09,-18.0874 L 878.295,-18.3458 L 877.571,-18.7639 L 876.949,-19.3235 L 876.458,-20
 L 876.118,-20.7639 L 875.944,-21.5819 L 875.944,-22.4181 L 876.118,-23.2361 L 876.458,-24 L 876.949,-24.6765
 L 877.571,-25.2361 L 878.614,-25.7803 L 974.692,-59.0118 L 975.507,-59.201 L 976.343,-59.2168 L 977.164,-59.0584
 L 977.934,-58.7327 L 978.62,-58.254 L 979.191,-57.6432 L 979.623,-56.927 L 979.896,-56.1367 L 980,-55.2315
 L 980,-22 L 979.913,-21.1684 L 979.654,-20.373 L 979.236,-19.6489 L 978.677,-19.0274 L 978,-18.5359
 L 977.236,-18.1958 L 976,-18 z
M 480.604,-18 L 479.44,-18.1732 L 478.67,-18.4988 L 477.984,-18.9775 L 477.413,-19.5883 L 476.981,-20.3045
 L 476.708,-21.0948 L 476.605,-21.9246 L 476.677,-22.7578 L 476.92,-23.5578 L 477.325,-24.2898 L 477.872,-24.9216
 L 478.539,-25.4258 L 479.297,-25.7803 L 497.692,-32.1429 L 498.657,-32.3479 L 499.493,-32.3322 L 500.308,-32.1429
 L 518.703,-25.7803 L 519.747,-25.2361 L 520.368,-24.6765 L 520.86,-24 L 521.2,-23.2361 L 521.374,-22.4181
 L 521.374,-21.5819 L 521.2,-20.7639 L 520.86,-20 L 520.368,-19.3235 L 519.747,-18.7639 L 519.023,-18.3458
 L 518.227,-18.0874 L 517.396,-18 z
" stroke="black" fill="lightgray" stroke-width="0.5"/>
</svg>
