<?xml version="1.0" standalone="no"?>
<!DOCTYPE svg PUBLIC "-//W3C//DTD SVG 1.1//EN" "http://www.w3.org/Graphics/SVG/1.1/DTD/svg11.dtd">
<svg width="721mm" height="80mm" viewBox="0 -80 721 80" xmlns="http://www.w3.org/2000/svg" version="1.1">
<title>OpenSCAD Model</title>
<path d="
M 721,-80 L 0,-80 L 0,-0 L 4.95,-0 L 4.95,-6 L 5.00572,-6.53017
 L 5.17046,-7.03717 L 5.437,-7.49884 L 5.79372,-7.895 L 6.22499,-8.20836 L 6.71201,-8.42519 L 7.23344,-8.53603
 L 7.76654,-8.53603 L 8.28798,-8.42519 L 8.77499,-8.20836 L 9.20627,-7.895 L 9.56299,-7.49884 L 9.82953,-7.03717
 L 9.99426,-6.53017 L 10.05,-6 L 10.05,-0 L 146.15,-0 L 146.15,-6 L 146.206,-6.53017
 L 146.37,-7.03717 L 146.637,-7.49884 L 146.994,-7.895 L 147.425,-8.20836 L 147.912,-8.42519 L 148.433,-8.53603
 L 148.967,-8.53603 L 149.488,-8.42519 L 149.975,-8.20836 L 150.406,-7.895 L 150.763,-7.49884 L 151.03,-7.03717
 L 151.194,-6.53017 L 151.25,-6 L 151.25,-0 L 287.35,-0 L 287.35,-6 L 287.406,-6.53017
 L 287.57,-7.03717 L 287.837,-7.49884 L 288.194,-7.895 L 288.625,-8.20836 L 289.112,-8.42519 L 289.633,-8.53603
 L 290.167,-8.53603 L 290.688,-8.42519 L 291.175,-8.20836 L 291.606,-7.895 L 291.963,-7.49884 L 292.23,-7.03717
 L 292.394,-6.53017 L 292.45,-6 L 292.45,-0 L 428.55,-0 L 428.55,-6 L 428.606,-6.53017
 L 428.77,-7.03717 L 429.037,-7.49884 L 429.394,-7.895 L 429.825,-8.20836 L 430.312,-8.42519 L 430.833,-8.53603
 L 431.367,-8.53603 L 431.888,-8.42519 L 432.375,-8.20836 L 432.806,-7.895 L 433.163,-7.49884 L 433.43,-7.03717
 L 433.594,-6.53017 L 433.65,-6 L 433.65,-0 L 569.75,-0 L 569.75,-6 L 569.806,-6.53017
 L 569.97,-7.03717 L 570.237,-7.49884 L 570.594,-7.895 L 571.025,-8.20836 L 571.512,-8.42519 L 572.033,-8.53603
 L 572.567,-8.53603 L 573.088,-8.42519 L 573.575,-8.20836 L 574.006,-7.895 L 574.363,-7.49884 L 574.63,-7.03717
 L 574.794,-6.53017 L 574.85,-6 L 574.85,-0 L 710.95,-0 L 710.95,-6 L 711.006,-6.53017
 L 711.17,-7.03717 L 711.437,-7.49884 L 711.794,-7.895 L 712.225,-8.20836 L 712.712,-8.42519 L 713.233,-8.53603
 L 713.767,-8.53603 L 714.288,-8.42519 L 714.775,-8.20836 L 715.206,-7.895 L 715.563,-7.49884 L 715.83,-7.03717
 L 715.994,-6.53017 L 716.05,-6 L 716.05,-0 L 721,-0 z
M 6.98573,-55.607 L 6.47708,-55.6875 L 5.97964,-55.8208 L 5.49887,-56.0054 L 5.04001,-56.2392 L 4.60811,-56.5196
 L 4.20789,-56.8437 L 3.84373,-57.2079 L 3.51964,-57.6081 L 3.23917,-58.04 L 3.00537,-58.4989 L 2.82082,-58.9796
 L 2.68752,-59.4771 L 2.60696,-59.9857 L 2.58,-60.5 L 2.60696,-61.0143 L 2.68752,-61.5229 L 2.82082,-62.0204
 L 3.00537,-62.5011 L 3.23917,-62.96 L 3.51964,-63.3919 L 3.84373,-63.7921 L 4.20789,-64.1563 L 4.60811,-64.4804
 L 4.95001,-64.7024 L 4.95001,-74 L 5.00574,-74.5302 L 5.17047,-75.0372 L 5.43701,-75.4988 L 5.79373,-75.895
 L 6.22501,-76.2084 L 6.71202,-76.4252 L 7.23346,-76.536 L 7.76654,-76.536 L 8.28798,-76.4252 L 8.77499,-76.2084
 L 9.20627,-75.895 L 9.56299,-75.4988 L 9.82953,-75.0372 L 9.99426,-74.5302 L 10.05,-74 L 10.05,-64.7024
 L 10.3919,-64.4804 L 10.7921,-64.1563 L 11.1563,-63.7921 L 11.4804,-63.3919 L 11.7608,-62.96 L 11.9946,-62.5011
 L 12.1792,-62.0204 L 12.3125,-61.5229 L 12.393,-61.0143 L 12.42,-60.5 L 12.393,-59.9857 L 12.3125,-59.4771
 L 12.1792,-58.9796 L 11.9946,-58.4989 L 11.7608,-58.04 L 11.4804,-57.6081 L 11.1563,-57.2079 L 10.7921,-56.8437
 L 10.3919,-56.5196 L 9.95999,-56.2392 L 9.50113,-56.0054 L 9.02036,-55.8208 L 8.52292,-55.6875 L 8.01427,-55.607
 L 7.5,-55.58 z
M 148.186,-55.607 L 147.677,-55.6875 L 147.18,-55.8208 L 146.699,-56.0054 L 146.24,-56.2392 L 145.808,-56.5196
 L 145.408,-56.8437 L 145.044,-57.2079 L 144.72,-57.6081 L 144.439,-58.04 L 144.205,-58.4989 L 144.021,-58.9796
 L 143.888,-59.4771 L 143.807,-59.9857 L 143.78,-60.5 L 143.807,-61.0143 L 143.888,-61.5229 L 144.021,-62.0204
 L 144.205,-62.5011 L 144.439,-62.96 L 144.72,-63.3919 L 145.044,-63.7921 L 145.408,-64.1563 L 145.808,-64.4804
 L 146.15,-64.7024 L 146.15,-74 L 146.206,-74.5302 L 146.37,-75.0372 L 146.637,-75.4988 L 146.994,-75.895
 L 147.425,-76.2084 L 147.912,-76.4252 L 148.433,-76.536 L 148.967,-76.536 L 149.488,-76.4252 L 149.975,-76.2084
 L 150.406,-75.895 L 150.763,-75.4988 L 151.03,-75.0372 L 151.194,-74.5302 L 151.25,-74 L 151.25,-64.7024
 L 151.592,-64.4804 L 151.992,-64.1563 L 152.356,-63.7921 L 152.68,-63.3919 L 152.961,-62.96 L 153.195,-62.5011
 L 153.379,-62.0204 L 153.512,-61.5229 L 153.593,-61.0143 L 153.62,-60.5 L 153.593,-59.9857 L 153.512,-59.4771
 L 153.379,-58.9796 L 153.195,-58.4989 L 152.961,-58.04 L 152.68,-57.6081 L 152.356,-57.2079 L 151.992,-56.8437
 L 151.592,-56.5196 L 151.16,-56.2392 L 150.701,-56.0054 L 150.22,-55.8208 L 149.723,-55.6875 L 149.214,-55.607
 L 148.7,-55.58 z
M 289.386,-55.607 L 288.877,-55.6875 L 288.38,-55.8208 L 287.899,-56.0054 L 287.44,-56.2392 L 287.008,-56.5196
 L 286.608,-56.8437 L 286.244,-57.2079 L 285.92,-57.6081 L 285.639,-58.04 L 285.405,-58.4989 L 285.221,-58.9796
 L 285.088,-59.4771 L 285.007,-59.9857 L 284.98,-60.5 L 285.007,-61.0143 L 285.088,-61.5229 L 285.221,-62.0204
 L 285.405,-62.5011 L 285.639,-62.96 L 285.92,-63.3919 L 286.244,-63.7921 L 286.608,-64.1563 L 287.008,-64.4804
 L 287.35,-64.7024 L 287.35,-74 L 287.406,-74.5302 L 287.57,-75.0372 L 287.837,-75.4988 L 288.194,-75.895
 L 288.625,-76.2084 L 289.112,-76.4252 L 289.633,-76.536 L 290.167,-76.536 L 290.688,-76.4252 L 291.175,-76.2084
 L 291.606,-75.895 L 291.963,-75.4988 L 292.23,-75.0372 L 292.394,-74.5302 L 292.45,-74 L 292.45,-64.7024
 L 292.792,-64.4804 L 293.192,-64.1563 L 293.556,-63.7921 L 293.88,-63.3919 L 294.161,-62.96 L 294.395,-62.5011
 L 294.579,-62.0204 L 294.712,-61.5229 L 294.793,-61.0143 L 294.82,-60.5 L 294.793,-59.9857 L 294.712,-59.4771
 L 294.579,-58.9796 L 294.395,-58.4989 L 294.161,-58.04 L 293.88,-57.6081 L 293.556,-57.2079 L 293.192,-56.8437
 L 292.792,-56.5196 L 292.36,-56.2392 L 291.901,-56.0054 L 291.42,-55.8208 L 290.923,-55.6875 L 290.414,-55.607
 L 289.9,-55.58 z
M 430.586,-55.607 L 430.077,-55.6875 L 429.58,-55.8208 L 429.099,-56.0054 L 428.64,-56.2392 L 428.208,-56.5196
 L 427.808,-56.8437 L 427.444,-57.2079 L 427.12,-57.6081 L 426.839,-58.04 L 426.605,-58.4989 L 426.421,-58.9796
 L 426.288,-59.4771 L 426.207,-59.9857 L 426.18,-60.5 L 426.207,-61.0143 L 426.288,-61.5229 L 426.421,-62.0204
 L 426.605,-62.5011 L 426.839,-62.96 L 427.12,-63.3919 L 427.444,-63.7921 L 427.808,-64.1563 L 428.208,-64.4804
 L 428.55,-64.7024 L 428.55,-74 L 428.606,-74.5302 L 428.77,-75.0372 L 429.037,-75.4988 L 429.394,-75.895
 L 429.825,-76.2084 L 430.312,-76.4252 L 430.833,-76.536 L 431.367,-76.536 L 431.888,-76.4252 L 432.375,-76.2084
 L 432.806,-75.895 L 433.163,-75.4988 L 433.43,-75.0372 L 433.594,-74.5302 L 433.65,-74 L 433.65,-64.7024
 L 433.992,-64.4804 L 434.392,-64.1563 L 434.756,-63.7921 L 435.08,-63.3919 L 435.361,-62.96 L 435.595,-62.5011
 L 435.779,-62.0204 L 435.912,-61.5229 L 435.993,-61.0143 L 436.02,-60.5 L 435.993,-59.9857 L 435.912,-59.4771
 L 435.779,-58.9796 L 435.595,-58.4989 L 435.361,-58.04 L 435.08,-57.6081 L 434.756,-57.2079 L 434.392,-56.8437
 L 433.992,-56.5196 L 433.56,-56.2392 L 433.101,-56.0054 L 432.62,-55.8208 L 432.123,-55.6875 L 431.614,-55.607
 L 431.1,-55.58 z
M 571.786,-55.607 L 571.277,-55.6875 L 570.78,-55.8208 L 570.299,-56.0054 L 569.84,-56.2392 L 569.408,-56.5196
 L 569.008,-56.8437 L 568.644,-57.2079 L 568.32,-57.6081 L 568.039,-58.04 L 567.805,-58.4989 L 567.621,-58.9796
 L 567.488,-59.4771 L 567.407,-59.9857 L 567.38,-60.5 L 567.407,-61.0143 L 567.488,-61.5229 L 567.621,-62.0204
 L 567.805,-62.5011 L 568.039,-62.96 L 568.32,-63.3919 L 568.644,-63.7921 L 569.008,-64.1563 L 569.408,-64.4804
 L 569.75,-64.7024 L 569.75,-74 L 569.806,-74.5302 L 569.97,-75.0372 L 570.237,-75.4988 L 570.594,-75.895
 L 571.025,-76.2084 L 571.512,-76.4252 L 572.033,-76.536 L 572.567,-76.536 L 573.088,-76.4252 L 573.575,-76.2084
 L 574.006,-75.895 L 574.363,-75.4988 L 574.63,-75.0372 L 574.794,-74.5302 L 574.85,-74 L 574.85,-64.7024
 L 575.192,-64.4804 L 575.592,-64.1563 L 575.956,-63.7921 L 576.28,-63.3919 L 576.561,-62.96 L 576.795,-62.5011
 L 576.979,-62.0204 L 577.112,-61.5229 L 577.193,-61.0143 L 577.22,-60.5 L 577.193,-59.9857 L 577.112,-59.4771
 L 576.979,-58.9796 L 576.795,-58.4989 L 576.561,-58.04 L 576.28,-57.6081 L 575.956,-57.2079 L 575.592,-56.8437
 L 575.192,-56.5196 L 574.76,-56.2392 L 574.301,-56.0054 L 573.82,-55.8208 L 573.323,-55.6875 L 572.814,-55.607
 L 572.3,-55.58 z
M 712.986,-55.607 L 712.477,-55.6875 L 711.98,-55.8208 L 711.499,-56.0054 L 711.04,-56.2392 L 710.608,-56.5196
 L 710.208,-56.8437 L 709.844,-57.2079 L 709.52,-57.6081 L 709.239,-58.04 L 709.005,-58.4989 L 708.821,-58.9796
 L 708.688,-59.4771 L 708.607,-59.9857 L 708.58,-60.5 L 708.607,-61.0143 L 708.688,-61.5229 L 708.821,-62.0204
 L 709.005,-62.5011 L 709.239,-62.96 L 709.52,-63.3919 L 709.844,-63.7921 L 710.208,-64.1563 L 710.608,-64.4804
 L 710.95,-64.7024 L 710.95,-74 L 711.006,-74.5302 L 711.17,-75.0372 L 711.437,-75.4988 L 711.794,-75.895
 L 712.225,-76.2084 L 712.712,-76.4252 L 713.233,-76.536 L 713.767,-76.536 L 714.288,-76.4252 L 714.775,-76.2084
 L 715.206,-75.895 L 715.563,-75.4988 L 715.83,-75.0372 L 715.994,-74.5302 L 716.05,-74 L 716.05,-64.7024
 L 716.392,-64.4804 L 716.792,-64.1563 L 717.156,-63.7921 L 717.48,-63.3919 L 717.761,-62.96 L 717.995,-62.5011
 L 718.179,-62.0204 L 718.312,-61.5229 L 718.393,-61.0143 L 718.42,-60.5 L 718.393,-59.9857 L 718.312,-59.4771
 L 718.179,-58.9796 L 717.995,-58.4989 L 717.761,-58.04 L 717.48,-57.6081 L 717.156,-57.2079 L 716.792,-56.8437
 L 716.392,-56.5196 L 715.96,-56.2392 L 715.501,-56.0054 L 715.02,-55.8208 L 714.523,-55.6875 L 714.014,-55.607
 L 713.5,-55.58 z
M 359.552,-48.3177 L 358.764,-48.5998 L 346.729,-54.3961 L 346.113,-54.7639 L 345.491,-55.3235 L 345,-56
 L 344.66,-56.7639 L 344.486,-57.5819 L 344.486,-58.4181 L 344.66,-59.2361 L 345,-60 L 345.491,-60.6765
 L 346.113,-61.2361 L 346.837,-61.6542 L 347.632,-61.9126 L 348.464,-62 L 372.536,-62 L 373.25,-61.9357
 L 374.053,-61.7012 L 374.789,-61.305 L 375.427,-60.7643 L 375.939,-60.1028 L 376.301,-59.3493 L 376.5,-58.537
 L 376.525,-57.7011 L 376.375,-56.8783 L 376.058,-56.1046 L 375.587,-55.4136 L 374.983,-54.8357 L 374.271,-54.3961
 L 362.236,-48.5998 L 361.214,-48.2679 L 360.38,-48.2054 z
M 275.952,-22.7972 L 275.164,-23.0793 L 210.136,-54.3961 L 209.52,-54.7639 L 208.899,-55.3235 L 208.407,-56
 L 208.067,-56.7639 L 207.893,-57.5819 L 207.893,-58.4181 L 208.067,-59.2361 L 208.407,-60 L 208.899,-60.6765
 L 209.52,-61.2361 L 210.244,-61.6542 L 211.04,-61.9126 L 211.871,-62 L 276.9,-62 L 278.136,-61.8042
 L 278.9,-61.4641 L 279.577,-60.9726 L 280.136,-60.3511 L 280.554,-59.627 L 280.813,-58.8316 L 280.9,-58
 L 280.9,-26.6831 L 280.864,-26.1461 L 280.666,-25.3338 L 280.303,-24.5804 L 279.791,-23.9188 L 279.153,-23.3781
 L 278.417,-22.9819 L 277.614,-22.7474 L 276.78,-22.6849 z
M 584.586,-22.7474 L 583.783,-22.9819 L 583.047,-23.3781 L 582.409,-23.9188 L 581.897,-24.5804 L 581.534,-25.3338
 L 581.336,-26.1461 L 581.3,-26.6831 L 581.3,-58 L 581.387,-58.8316 L 581.646,-59.627 L 582.064,-60.3511
 L 582.623,-60.9726 L 583.3,-61.4641 L 584.064,-61.8042 L 585.3,-62 L 650.329,-62 L 651.16,-61.9126
 L 651.956,-61.6542 L 652.68,-61.2361 L 653.301,-60.6765 L 653.793,-60 L 654.133,-59.2361 L 654.307,-58.4181
 L 654.307,-57.5819 L 654.133,-56.7639 L 653.793,-56 L 653.301,-55.3235 L 652.68,-54.7639 L 652.064,-54.3961
 L 587.036,-23.0793 L 586.248,-22.7972 L 585.42,-22.6849 z
M 134.752,-22.7972 L 133.964,-23.0793 L 68.9359,-54.3961 L 68.3203,-54.7639 L 67.6989,-55.3235 L 67.2073,-56
 L 66.8672,-56.7639 L 66.6933,-57.5819 L 66.6933,-58.4181 L 66.8672,-59.2361 L 67.2073,-60 L 67.6989,-60.6765
 L 68.3203,-61.2361 L 69.0445,-61.6542 L 69.8398,-61.9126 L 70.6714,-62 L 135.7,-62 L 136.936,-61.8042
 L 137.7,-61.4641 L 138.377,-60.9726 L 138.936,-60.3511 L 139.354,-59.627 L 139.613,-58.8316 L 139.7,-58
 L 139.7,-26.6831 L 139.664,-26.1461 L 139.466,-25.3338 L 139.103,-24.5804 L 138.591,-23.9188 L 137.953,-23.3781
 L 137.217,-22.9819 L 136.414,-22.7474 L 135.58,-22.6849 z
M 443.386,-22.7474 L 442.583,-22.9819 L 441.847,-23.3781 L 441.209,-23.9188 L 440.697,-24.5804 L 440.334,-25.3338
 L 440.136,-26.1461 L 440.1,-26.6831 L 440.1,-58 L 440.187,-58.8316 L 440.446,-59.627 L 440.864,-60.3511
 L 441.423,-60.9726 L 442.1,-61.4641 L 442.864,-61.8042 L 444.1,-62 L 509.129,-62 L 509.96,-61.9126
 L 510.756,-61.6542 L 511.48,-61.2361 L 512.101,-60.6765 L 512.593,-60 L 512.933,-59.2361 L 513.107,-58.4181
 L 513.107,-57.5819 L 512.933,-56.7639 L 512.593,-56 L 512.101,-55.3235 L 511.48,-54.7639 L 510.864,-54.3961
 L 445.836,-23.0793 L 445.048,-22.7972 L 444.22,-22.6849 z
M 302.482,-20.4862 L 301.664,-20.6601 L 300.9,-21.0002 L 300.223,-21.4917 L 299.664,-22.1132 L 299.246,-22.8373
 L 298.987,-23.6326 L 298.9,-24.4643 L 298.9,-55.5357 L 298.936,-56.0727 L 299.134,-56.8851 L 299.497,-57.6385
 L 300.009,-58.3 L 300.647,-58.8407 L 301.383,-59.2369 L 302.186,-59.4714 L 303.02,-59.5339 L 303.848,-59.4217
 L 304.636,-59.1396 L 336.895,-43.6039 L 337.413,-43.305 L 338.051,-42.7643 L 338.562,-42.1028 L 338.925,-41.3493
 L 339.123,-40.537 L 339.148,-39.7011 L 338.999,-38.8783 L 338.682,-38.1046 L 338.211,-37.4136 L 337.606,-36.8357
 L 336.895,-36.3961 L 304.636,-20.8604 L 304.136,-20.6601 L 303.318,-20.4862 z
M 417.152,-20.5783 L 416.364,-20.8604 L 384.105,-36.3961 L 383.587,-36.695 L 382.949,-37.2357 L 382.438,-37.8972
 L 382.075,-38.6507 L 381.877,-39.463 L 381.852,-40.2989 L 382.001,-41.1217 L 382.318,-41.8954 L 382.789,-42.5864
 L 383.394,-43.1643 L 384.105,-43.6039 L 416.364,-59.1396 L 416.864,-59.3399 L 417.682,-59.5138 L 418.518,-59.5138
 L 419.336,-59.3399 L 420.1,-58.9998 L 420.777,-58.5083 L 421.336,-57.8868 L 421.754,-57.1627 L 422.013,-56.3674
 L 422.1,-55.5357 L 422.1,-24.4643 L 422.064,-23.9273 L 421.866,-23.1149 L 421.503,-22.3615 L 420.991,-21.7
 L 420.353,-21.1593 L 419.617,-20.7631 L 418.814,-20.5286 L 417.98,-20.4661 z
M 161.7,-18 L 160.464,-18.1958 L 159.7,-18.5359 L 159.023,-19.0274 L 158.464,-19.6489 L 158.046,-20.373
 L 157.787,-21.1684 L 157.7,-22 L 157.7,-53.3169 L 157.736,-53.8538 L 157.934,-54.6662 L 158.297,-55.4196
 L 158.809,-56.0811 L 159.447,-56.6218 L 160.183,-57.0181 L 160.986,-57.2526 L 161.82,-57.3151 L 162.648,-57.2028
 L 163.436,-56.9207 L 228.464,-25.6039 L 229.08,-25.2361 L 229.701,-24.6765 L 230.193,-24 L 230.533,-23.2361
 L 230.707,-22.4181 L 230.707,-21.5819 L 230.533,-20.7639 L 230.193,-20 L 229.701,-19.3235 L 229.08,-18.7639
 L 228.355,-18.3458 L 227.56,-18.0874 L 226.729,-18 z
M 494.271,-18 L 493.44,-18.0874 L 492.644,-18.3458 L 491.92,-18.7639 L 491.299,-19.3235 L 490.807,-20
 L 490.467,-20.7639 L 490.293,-21.5819 L 490.293,-22.4181 L 490.467,-23.2361 L 490.807,-24 L 491.299,-24.6765
 L 491.92,-25.2361 L 492.536,-25.6039 L 557.564,-56.9207 L 558.352,-57.2028 L 559.18,-57.3151 L 560.014,-57.2526
 L 560.817,-57.0181 L 561.553,-56.6218 L 562.191,-56.0811 L 562.703,-55.4196 L 563.066,-54.6662 L 563.264,-53.8538
 L 563.3,-53.3169 L 563.3,-22 L 563.213,-21.1684 L 562.954,-20.373 L 562.536,-19.6489 L 561.977,-19.0274
 L 561.3,-18.5359 L 560.536,-18.1958 L 559.3,-18 z
M 22,-18 L 20.7639,-18.1958 L 20,-18.5359 L 19.3235,-19.0274 L 18.7639,-19.6489 L 18.3458,-20.373
 L 18.0874,-21.1684 L 18,-22 L 18,-52.5945 L 18.0362,-53.1315 L 18.2345,-53.9438 L 18.5973,-54.6973
 L 19.1088,-55.3588 L 19.7467,-55.8995 L 20.4831,-56.2957 L 21.2858,-56.5302 L 22.1197,-56.5927 L 22.9484,-56.4804
 L 23.7356,-56.1983 L 87.2641,-25.6039 L 87.8797,-25.2361 L 88.5011,-24.6765 L 88.9926,-24 L 89.3328,-23.2361
 L 89.5066,-22.4181 L 89.5066,-21.5819 L 89.3328,-20.7639 L 88.9926,-20 L 88.5011,-19.3235 L 87.8797,-18.7639
 L 87.1555,-18.3458 L 86.3602,-18.0874 L 85.5285,-18 z
M 635.471,-18 L 634.64,-18.0874 L 633.844,-18.3458 L 633.12,-18.7639 L 632.499,-19.3235 L 632.007,-20
 L 631.667,-20.7639 L 631.493,-21.5819 L 631.493,-22.4181 L 631.667,-23.2361 L 632.007,-24 L 632.499,-24.6765
 L 633.12,-25.2361 L 633.736,-25.6039 L 697.264,-56.1983 L 698.052,-56.4804 L 698.88,-56.5927 L 699.714,-56.5302
 L 700.517,-56.2957 L 701.253,-55.8995 L 701.891,-55.3588 L 702.403,-54.6973 L 702.766,-53.9438 L 702.964,-53.1315
 L 703,-52.5945 L 703,-22 L 702.913,-21.1684 L 702.654,-20.373 L 702.236,-19.6489 L 701.677,-19.0274
 L 701,-18.5359 L 700.236,-18.1958 L 699,-18 z
M 348.464,-18 L 347.75,-18.0643 L 346.947,-18.2988 L 346.211,-18.695 L 345.573,-19.2357 L 345.061,-19.8972
 L 344.699,-20.6507 L 344.5,-21.463 L 344.475,-22.2989 L 344.625,-23.1217 L 344.942,-23.8954 L 345.413,-24.5864
 L 346.017,-25.1643 L 346.729,-25.6039 L 358.764,-31.4002 L 359.786,-31.7321 L 360.62,-31.7946 L 361.448,-31.6823
 L 362.236,-31.4002 L 374.271,-25.6039 L 374.887,-25.2361 L 375.508,-24.6765 L 376,-24 L 376.34,-23.2361
 L 376.514,-22.4181 L 376.514,-21.5819 L 376.34,-20.7639 L 376,-20 L 375.508,-19.3235 L 374.887,-18.7639
 L 374.163,-18.3458 L 373.368,-18.0874 L 372.536,-18 z
" stroke="black" fill="lightgray" stroke-width="0.5"/>
</svg>
