<?xml version="1.0" standalone="no"?>
<!DOCTYPE svg PUBLIC "-//W3C//DTD SVG 1.1//EN" "http://www.w3.org/Graphics/SVG/1.1/DTD/svg11.dtd">
<svg width="647mm" height="80mm" viewBox="0 -80 647 80" xmlns="http://www.w3.org/2000/svg" version="1.1">
<title>OpenSCAD Model</title>
<path d="
M 647,-80 L 0,-80 L 0,-0 L 4.95,-0 L 4.95,-6 L 5.00572,-6.53017
 L 5.17046,-7.03717 L 5.437,-7.49884 L 5.79372,-7.895 L 6.22499,-8.20836 L 6.71201,-8.42519 L 7.23344,-8.53603
 L 7.76654,-8.53603 L 8.28798,-8.42519 L 8.77499,-8.20836 L 9.20627,-7.895 L 9.56299,-7.49884 L 9.82953,-7.03717
 L 9.99426,-6.53017 L 10.05,-6 L 10.05,-0 L 131.35,-0 L 131.35,-6 L 131.406,-6.53017
 L 131.57,-7.03717 L 131.837,-7.49884 L 132.194,-7.895 L 132.625,-8.20836 L 133.112,-8.42519 L 133.633,-8.53603
 L 134.167,-8.53603 L 134.688,-8.42519 L 135.175,-8.20836 L 135.606,-7.895 L 135.963,-7.49884 L 136.23,-7.03717
 L 136.394,-6.53017 L 136.45,-6 L 136.45,-0 L 257.75,-0 L 257.75,-6 L 257.806,-6.53017
 L 257.97,-7.03717 L 258.237,-7.49884 L 258.594,-7.895 L 259.025,-8.20836 L 259.512,-8.42519 L 260.033,-8.53603
 L 260.567,-8.53603 L 261.088,-8.42519 L 261.575,-8.20836 L 262.006,-7.895 L 262.363,-7.49884 L 262.63,-7.03717
 L 262.794,-6.53017 L 262.85,-6 L 262.85,-0 L 384.15,-0 L 384.15,-6 L 384.206,-6.53017
 L 384.37,-7.03717 L 384.637,-7.49884 L 384.994,-7.895 L 385.425,-8.20836 L 385.912,-8.42519 L 386.433,-8.53603
 L 386.967,-8.53603 L 387.488,-8.42519 L 387.975,-8.20836 L 388.406,-7.895 L 388.763,-7.49884 L 389.03,-7.03717
 L 389.194,-6.53017 L 389.25,-6 L 389.25,-0 L 510.55,-0 L 510.55,-6 L 510.606,-6.53017
 L 510.77,-7.03717 L 511.037,-7.49884 L 511.394,-7.895 L 511.825,-8.20836 L 512.312,-8.42519 L 512.833,-8.53603
 L 513.367,-8.53603 L 513.888,-8.42519 L 514.375,-8.20836 L 514.806,-7.895 L 515.163,-7.49884 L 515.43,-7.03717
 L 515.594,-6.53017 L 515.65,-6 L 515.65,-0 L 636.95,-0 L 636.95,-6 L 637.006,-6.53017
 L 637.17,-7.03717 L 637.437,-7.49884 L 637.794,-7.895 L 638.225,-8.20836 L 638.712,-8.42519 L 639.233,-8.53603
 L 639.767,-8.53603 L 640.288,-8.42519 L 640.775,-8.20836 L 641.206,-7.895 L 641.563,-7.49884 L 641.83,-7.03717
 L 641.994,-6.53017 L 642.05,-6 L 642.05,-0 L 647,-0 z
M 6.98573,-55.607 L 6.47708,-55.6875 L 5.97964,-55.8208 L 5.49887,-56.0054 L 5.04001,-56.2392 L 4.60811,-56.5196
 L 4.20789,-56.8437 L 3.84373,-57.2079 L 3.51964,-57.6081 L 3.23917,-58.04 L 3.00537,-58.4989 L 2.82082,-58.9796
 L 2.68752,-59.4771 L 2.60696,-59.9857 L 2.58,-60.5 L 2.60696,-61.0143 L 2.68752,-61.5229 L 2.82082,-62.0204
 L 3.00537,-62.5011 L 3.23917,-62.96 L 3.51964,-63.3919 L 3.84373,-63.7921 L 4.20789,-64.1563 L 4.60811,-64.4804
 L 4.95001,-64.7024 L 4.95001,-74 L 5.00574,-74.5302 L 5.17047,-75.0372 L 5.43701,-75.4988 L 5.79373,-75.895
 L 6.22501,-76.2084 L 6.71202,-76.4252 L 7.23346,-76.536 L 7.76654,-76.536 L 8.28798,-76.4252 L 8.77499,-76.2084
 L 9.20627,-75.895 L 9.56299,-75.4988 L 9.82953,-75.0372 L 9.99426,-74.5302 L 10.05,-74 L 10.05,-64.7024
 L 10.3919,-64.4804 L 10.7921,-64.1563 L 11.1563,-63.7921 L 11.4804,-63.3919 L 11.7608,-62.96 L 11.9946,-62.5011
 L 12.1792,-62.0204 L 12.3125,-61.5229 L 12.393,-61.0143 L 12.42,-60.5 L 12.393,-59.9857 L 12.3125,-59.4771
 L 12.1792,-58.9796 L 11.9946,-58.4989 L 11.7608,-58.04 L 11.4804,-57.6081 L 11.1563,-57.2079 L 10.7921,-56.8437
 L 10.3919,-56.5196 L 9.95999,-56.2392 L 9.50113,-56.0054 L 9.02036,-55.8208 L 8.52292,-55.6875 L 8.01427,-55.607
 L 7.5,-55.58 z
M 133.386,-55.607 L 132.877,-55.6875 L 132.38,-55.8208 L 131.899,-56.0054 L 131.44,-56.2392 L 131.008,-56.5196
 L 130.608,-56.8437 L 130.244,-57.2079 L 129.92,-57.6081 L 129.639,-58.04 L 129.405,-58.4989 L 129.221,-58.9796
 L 129.088,-59.4771 L 129.007,-59.9857 L 128.98,-60.5 L 129.007,-61.0143 L 129.088,-61.5229 L 129.221,-62.0204
 L 129.405,-62.5011 L 129.639,-62.96 L 129.92,-63.3919 L 130.244,-63.7921 L 130.608,-64.1563 L 131.008,-64.4804
 L 131.35,-64.7024 L 131.35,-74 L 131.406,-74.5302 L 131.57,-75.0372 L 131.837,-75.4988 L 132.194,-75.895
 L 132.625,-76.2084 L 133.112,-76.4252 L 133.633,-76.536 L 134.167,-76.536 L 134.688,-76.4252 L 135.175,-76.2084
 L 135.606,-75.895 L 135.963,-75.4988 L 136.23,-75.0372 L 136.394,-74.5302 L 136.45,-74 L 136.45,-64.7024
 L 136.792,-64.4804 L 137.192,-64.1563 L 137.556,-63.7921 L 137.88,-63.3919 L 138.161,-62.96 L 138.395,-62.5011
 L 138.579,-62.0204 L 138.712,-61.5229 L 138.793,-61.0143 L 138.82,-60.5 L 138.793,-59.9857 L 138.712,-59.4771
 L 138.579,-58.9796 L 138.395,-58.4989 L 138.161,-58.04 L 137.88,-57.6081 L 137.556,-57.2079 L 137.192,-56.8437
 L 136.792,-56.5196 L 136.36,-56.2392 L 135.901,-56.0054 L 135.42,-55.8208 L 134.923,-55.6875 L 134.414,-55.607
 L 133.9,-55.58 z
M 259.786,-55.607 L 259.277,-55.6875 L 258.78,-55.8208 L 258.299,-56.0054 L 257.84,-56.2392 L 257.408,-56.5196
 L 257.008,-56.8437 L 256.644,-57.2079 L 256.32,-57.6081 L 256.039,-58.04 L 255.805,-58.4989 L 255.621,-58.9796
 L 255.488,-59.4771 L 255.407,-59.9857 L 255.38,-60.5 L 255.407,-61.0143 L 255.488,-61.5229 L 255.621,-62.0204
 L 255.805,-62.5011 L 256.039,-62.96 L 256.32,-63.3919 L 256.644,-63.7921 L 257.008,-64.1563 L 257.408,-64.4804
 L 257.75,-64.7024 L 257.75,-74 L 257.806,-74.5302 L 257.97,-75.0372 L 258.237,-75.4988 L 258.594,-75.895
 L 259.025,-76.2084 L 259.512,-76.4252 L 260.033,-76.536 L 260.567,-76.536 L 261.088,-76.4252 L 261.575,-76.2084
 L 262.006,-75.895 L 262.363,-75.4988 L 262.63,-75.0372 L 262.794,-74.5302 L 262.85,-74 L 262.85,-64.7024
 L 263.192,-64.4804 L 263.592,-64.1563 L 263.956,-63.7921 L 264.28,-63.3919 L 264.561,-62.96 L 264.795,-62.5011
 L 264.979,-62.0204 L 265.112,-61.5229 L 265.193,-61.0143 L 265.22,-60.5 L 265.193,-59.9857 L 265.112,-59.4771
 L 264.979,-58.9796 L 264.795,-58.4989 L 264.561,-58.04 L 264.28,-57.6081 L 263.956,-57.2079 L 263.592,-56.8437
 L 263.192,-56.5196 L 262.76,-56.2392 L 262.301,-56.0054 L 261.82,-55.8208 L 261.323,-55.6875 L 260.814,-55.607
 L 260.3,-55.58 z
M 386.186,-55.607 L 385.677,-55.6875 L 385.18,-55.8208 L 384.699,-56.0054 L 384.24,-56.2392 L 383.808,-56.5196
 L 383.408,-56.8437 L 383.044,-57.2079 L 382.72,-57.6081 L 382.439,-58.04 L 382.205,-58.4989 L 382.021,-58.9796
 L 381.888,-59.4771 L 381.807,-59.9857 L 381.78,-60.5 L 381.807,-61.0143 L 381.888,-61.5229 L 382.021,-62.0204
 L 382.205,-62.5011 L 382.439,-62.96 L 382.72,-63.3919 L 383.044,-63.7921 L 383.408,-64.1563 L 383.808,-64.4804
 L 384.15,-64.7024 L 384.15,-74 L 384.206,-74.5302 L 384.37,-75.0372 L 384.637,-75.4988 L 384.994,-75.895
 L 385.425,-76.2084 L 385.912,-76.4252 L 386.433,-76.536 L 386.967,-76.536 L 387.488,-76.4252 L 387.975,-76.2084
 L 388.406,-75.895 L 388.763,-75.4988 L 389.03,-75.0372 L 389.194,-74.5302 L 389.25,-74 L 389.25,-64.7024
 L 389.592,-64.4804 L 389.992,-64.1563 L 390.356,-63.7921 L 390.68,-63.3919 L 390.961,-62.96 L 391.195,-62.5011
 L 391.379,-62.0204 L 391.512,-61.5229 L 391.593,-61.0143 L 391.62,-60.5 L 391.593,-59.9857 L 391.512,-59.4771
 L 391.379,-58.9796 L 391.195,-58.4989 L 390.961,-58.04 L 390.68,-57.6081 L 390.356,-57.2079 L 389.992,-56.8437
 L 389.592,-56.5196 L 389.16,-56.2392 L 388.701,-56.0054 L 388.22,-55.8208 L 387.723,-55.6875 L 387.214,-55.607
 L 386.7,-55.58 z
M 512.586,-55.607 L 512.077,-55.6875 L 511.58,-55.8208 L 511.099,-56.0054 L 510.64,-56.2392 L 510.208,-56.5196
 L 509.808,-56.8437 L 509.444,-57.2079 L 509.12,-57.6081 L 508.839,-58.04 L 508.605,-58.4989 L 508.421,-58.9796
 L 508.288,-59.4771 L 508.207,-59.9857 L 508.18,-60.5 L 508.207,-61.0143 L 508.288,-61.5229 L 508.421,-62.0204
 L 508.605,-62.5011 L 508.839,-62.96 L 509.12,-63.3919 L 509.444,-63.7921 L 509.808,-64.1563 L 510.208,-64.4804
 L 510.55,-64.7024 L 510.55,-74 L 510.606,-74.5302 L 510.77,-75.0372 L 511.037,-75.4988 L 511.394,-75.895
 L 511.825,-76.2084 L 512.312,-76.4252 L 512.833,-76.536 L 513.367,-76.536 L 513.888,-76.4252 L 514.375,-76.2084
 L 514.806,-75.895 L 515.163,-75.4988 L 515.43,-75.0372 L 515.594,-74.5302 L 515.65,-74 L 515.65,-64.7024
 L 515.992,-64.4804 L 516.392,-64.1563 L 516.756,-63.7921 L 517.08,-63.3919 L 517.361,-62.96 L 517.595,-62.5011
 L 517.779,-62.0204 L 517.912,-61.5229 L 517.993,-61.0143 L 518.02,-60.5 L 517.993,-59.9857 L 517.912,-59.4771
 L 517.779,-58.9796 L 517.595,-58.4989 L 517.361,-58.04 L 517.08,-57.6081 L 516.756,-57.2079 L 516.392,-56.8437
 L 515.992,-56.5196 L 515.56,-56.2392 L 515.101,-56.0054 L 514.62,-55.8208 L 514.123,-55.6875 L 513.614,-55.607
 L 513.1,-55.58 z
M 638.986,-55.607 L 638.477,-55.6875 L 637.98,-55.8208 L 637.499,-56.0054 L 637.04,-56.2392 L 636.608,-56.5196
 L 636.208,-56.8437 L 635.844,-57.2079 L 635.52,-57.6081 L 635.239,-58.04 L 635.005,-58.4989 L 634.821,-58.9796
 L 634.688,-59.4771 L 634.607,-59.9857 L 634.58,-60.5 L 634.607,-61.0143 L 634.688,-61.5229 L 634.821,-62.0204
 L 635.005,-62.5011 L 635.239,-62.96 L 635.52,-63.3919 L 635.844,-63.7921 L 636.208,-64.1563 L 636.608,-64.4804
 L 636.95,-64.7024 L 636.95,-74 L 637.006,-74.5302 L 637.17,-75.0372 L 637.437,-75.4988 L 637.794,-75.895
 L 638.225,-76.2084 L 638.712,-76.4252 L 639.233,-76.536 L 639.767,-76.536 L 640.288,-76.4252 L 640.775,-76.2084
 L 641.206,-75.895 L 641.563,-75.4988 L 641.83,-75.0372 L 641.994,-74.5302 L 642.05,-74 L 642.05,-64.7024
 L 642.392,-64.4804 L 642.792,-64.1563 L 643.156,-63.7921 L 643.48,-63.3919 L 643.761,-62.96 L 643.995,-62.5011
 L 644.179,-62.0204 L 644.312,-61.5229 L 644.393,-61.0143 L 644.42,-60.5 L 644.393,-59.9857 L 644.312,-59.4771
 L 644.179,-58.9796 L 643.995,-58.4989 L 643.761,-58.04 L 643.48,-57.6081 L 643.156,-57.2079 L 642.792,-56.8437
 L 642.392,-56.5196 L 641.96,-56.2392 L 641.501,-56.0054 L 641.02,-55.8208 L 640.523,-55.6875 L 640.014,-55.607
 L 639.5,-55.58 z
M 322.379,-48.6455 L 321.605,-48.9625 L 311.354,-54.4774 L 310.898,-54.7639 L 310.276,-55.3235 L 309.785,-56
 L 309.445,-56.7639 L 309.271,-57.5819 L 309.271,-58.4181 L 309.445,-59.2361 L 309.785,-60 L 310.276,-60.6765
 L 310.898,-61.2361 L 311.622,-61.6542 L 312.417,-61.9126 L 313.249,-62 L 333.751,-62 L 334.289,-61.9637
 L 335.101,-61.7654 L 335.854,-61.4025 L 336.516,-60.8909 L 337.056,-60.2529 L 337.453,-59.5165 L 337.687,-58.7138
 L 337.749,-57.8799 L 337.637,-57.0512 L 337.355,-56.2641 L 336.915,-55.5527 L 336.337,-54.9484 L 335.646,-54.4774
 L 325.395,-48.9625 L 324.85,-48.7197 L 324.037,-48.5214 L 323.202,-48.4963 z
M 246.179,-23.9092 L 245.405,-24.2262 L 189.173,-54.4774 L 188.717,-54.7639 L 188.096,-55.3235 L 187.604,-56
 L 187.264,-56.7639 L 187.09,-57.5819 L 187.09,-58.4181 L 187.264,-59.2361 L 187.604,-60 L 188.096,-60.6765
 L 188.717,-61.2361 L 189.441,-61.6542 L 190.237,-61.9126 L 191.068,-62 L 247.3,-62 L 248.536,-61.8042
 L 249.3,-61.4641 L 249.977,-60.9726 L 250.536,-60.3511 L 250.954,-59.627 L 251.213,-58.8316 L 251.3,-58
 L 251.3,-27.7488 L 251.236,-27.035 L 251.001,-26.2323 L 250.605,-25.4959 L 250.065,-24.858 L 249.403,-24.3463
 L 248.65,-23.9834 L 247.837,-23.7851 L 247.002,-23.76 z
M 525.563,-23.7851 L 524.75,-23.9834 L 523.997,-24.3463 L 523.335,-24.858 L 522.795,-25.4959 L 522.399,-26.2323
 L 522.164,-27.035 L 522.1,-27.7488 L 522.1,-58 L 522.187,-58.8316 L 522.446,-59.627 L 522.864,-60.3511
 L 523.423,-60.9726 L 524.1,-61.4641 L 524.864,-61.8042 L 526.1,-62 L 582.332,-62 L 583.163,-61.9126
 L 583.959,-61.6542 L 584.683,-61.2361 L 585.304,-60.6765 L 585.796,-60 L 586.136,-59.2361 L 586.31,-58.4181
 L 586.31,-57.5819 L 586.136,-56.7639 L 585.796,-56 L 585.304,-55.3235 L 584.683,-54.7639 L 584.227,-54.4774
 L 527.995,-24.2262 L 527.221,-23.9092 L 526.398,-23.76 z
M 119.779,-23.9092 L 119.005,-24.2262 L 62.7733,-54.4774 L 62.3173,-54.7639 L 61.6958,-55.3235 L 61.2043,-56
 L 60.8642,-56.7639 L 60.6903,-57.5819 L 60.6903,-58.4181 L 60.8642,-59.2361 L 61.2043,-60 L 61.6958,-60.6765
 L 62.3173,-61.2361 L 63.0414,-61.6542 L 63.8367,-61.9126 L 64.6684,-62 L 120.9,-62 L 122.136,-61.8042
 L 122.9,-61.4641 L 123.577,-60.9726 L 124.136,-60.3511 L 124.554,-59.627 L 124.813,-58.8316 L 124.9,-58
 L 124.9,-27.7488 L 124.836,-27.035 L 124.601,-26.2323 L 124.205,-25.4959 L 123.665,-24.858 L 123.003,-24.3463
 L 122.25,-23.9834 L 121.437,-23.7851 L 120.602,-23.76 z
M 399.163,-23.7851 L 398.35,-23.9834 L 397.597,-24.3463 L 396.935,-24.858 L 396.395,-25.4959 L 395.999,-26.2323
 L 395.764,-27.035 L 395.7,-27.7488 L 395.7,-58 L 395.787,-58.8316 L 396.046,-59.627 L 396.464,-60.3511
 L 397.023,-60.9726 L 397.7,-61.4641 L 398.464,-61.8042 L 399.7,-62 L 455.932,-62 L 456.763,-61.9126
 L 457.559,-61.6542 L 458.283,-61.2361 L 458.904,-60.6765 L 459.396,-60 L 459.736,-59.2361 L 459.91,-58.4181
 L 459.91,-57.5819 L 459.736,-56.7639 L 459.396,-56 L 458.904,-55.3235 L 458.283,-54.7639 L 457.827,-54.4774
 L 401.595,-24.2262 L 400.821,-23.9092 L 399.998,-23.76 z
M 272.882,-21.5007 L 272.064,-21.6746 L 271.3,-22.0147 L 270.623,-22.5062 L 270.064,-23.1277 L 269.646,-23.8519
 L 269.387,-24.6472 L 269.3,-25.4788 L 269.3,-54.5212 L 269.364,-55.235 L 269.599,-56.0377 L 269.995,-56.7741
 L 270.535,-57.412 L 271.197,-57.9237 L 271.95,-58.2866 L 272.763,-58.4849 L 273.598,-58.51 L 274.421,-58.3608
 L 275.195,-58.0438 L 302.187,-43.5226 L 303.057,-42.8909 L 303.598,-42.2529 L 303.994,-41.5165 L 304.228,-40.7138
 L 304.29,-39.8799 L 304.178,-39.0512 L 303.896,-38.2641 L 303.456,-37.5527 L 302.878,-36.9484 L 302.187,-36.4774
 L 275.195,-21.9562 L 274.536,-21.6746 L 273.718,-21.5007 z
M 372.579,-21.6392 L 371.805,-21.9562 L 344.813,-36.4774 L 343.943,-37.1091 L 343.402,-37.7471 L 343.006,-38.4835
 L 342.772,-39.2862 L 342.709,-40.1201 L 342.822,-40.9488 L 343.104,-41.7359 L 343.544,-42.4473 L 344.122,-43.0516
 L 344.813,-43.5226 L 371.805,-58.0438 L 372.464,-58.3254 L 373.282,-58.4993 L 374.118,-58.4993 L 374.936,-58.3254
 L 375.7,-57.9853 L 376.377,-57.4938 L 376.936,-56.8723 L 377.354,-56.1481 L 377.613,-55.3528 L 377.7,-54.5212
 L 377.7,-25.4788 L 377.636,-24.765 L 377.401,-23.9623 L 377.005,-23.2259 L 376.465,-22.5879 L 375.803,-22.0763
 L 375.05,-21.7134 L 374.237,-21.5151 L 373.402,-21.49 z
M 146.9,-18 L 145.664,-18.1958 L 144.9,-18.5359 L 144.223,-19.0274 L 143.664,-19.6489 L 143.246,-20.373
 L 142.987,-21.1684 L 142.9,-22 L 142.9,-52.2512 L 142.964,-52.9649 L 143.199,-53.7676 L 143.595,-54.5041
 L 144.135,-55.142 L 144.797,-55.6536 L 145.55,-56.0166 L 146.363,-56.2149 L 147.198,-56.24 L 148.021,-56.0908
 L 148.795,-55.7738 L 205.027,-25.5226 L 205.483,-25.2361 L 206.104,-24.6765 L 206.596,-24 L 206.936,-23.2361
 L 207.11,-22.4181 L 207.11,-21.5819 L 206.936,-20.7639 L 206.596,-20 L 206.104,-19.3235 L 205.483,-18.7639
 L 204.759,-18.3458 L 203.963,-18.0874 L 203.132,-18 z
M 443.868,-18 L 443.037,-18.0874 L 442.241,-18.3458 L 441.517,-18.7639 L 440.896,-19.3235 L 440.404,-20
 L 440.064,-20.7639 L 439.89,-21.5819 L 439.89,-22.4181 L 440.064,-23.2361 L 440.404,-24 L 440.896,-24.6765
 L 441.517,-25.2361 L 441.973,-25.5226 L 498.205,-55.7738 L 498.979,-56.0908 L 499.802,-56.24 L 500.637,-56.2149
 L 501.45,-56.0166 L 502.203,-55.6536 L 502.865,-55.142 L 503.405,-54.5041 L 503.801,-53.7676 L 504.036,-52.9649
 L 504.1,-52.2512 L 504.1,-22 L 504.013,-21.1684 L 503.754,-20.373 L 503.336,-19.6489 L 502.777,-19.0274
 L 502.1,-18.5359 L 501.336,-18.1958 L 500.1,-18 z
M 22,-18 L 20.7639,-18.1958 L 20,-18.5359 L 19.3235,-19.0274 L 18.7639,-19.6489 L 18.3458,-20.373
 L 18.0874,-21.1684 L 18,-22 L 18,-51.4442 L 18.0642,-52.158 L 18.2986,-52.9607 L 18.6948,-53.6971
 L 19.2354,-54.3351 L 19.8969,-54.8467 L 20.6503,-55.2096 L 21.4626,-55.4079 L 22.2985,-55.433 L 23.1213,-55.2838
 L 23.8951,-54.9668 L 78.6266,-25.5226 L 79.0827,-25.2361 L 79.7042,-24.6765 L 80.1957,-24 L 80.5358,-23.2361
 L 80.7097,-22.4181 L 80.7097,-21.5819 L 80.5358,-20.7639 L 80.1957,-20 L 79.7042,-19.3235 L 79.0827,-18.7639
 L 78.3585,-18.3458 L 77.5632,-18.0874 L 76.7316,-18 z
M 570.268,-18 L 569.437,-18.0874 L 568.641,-18.3458 L 567.917,-18.7639 L 567.296,-19.3235 L 566.804,-20
 L 566.464,-20.7639 L 566.29,-21.5819 L 566.29,-22.4181 L 566.464,-23.2361 L 566.804,-24 L 567.296,-24.6765
 L 567.917,-25.2361 L 568.373,-25.5226 L 623.105,-54.9668 L 623.879,-55.2838 L 624.702,-55.433 L 625.537,-55.4079
 L 626.35,-55.2096 L 627.103,-54.8467 L 627.765,-54.3351 L 628.305,-53.6971 L 628.701,-52.9607 L 628.936,-52.158
 L 629,-51.4442 L 629,-22 L 628.913,-21.1684 L 628.654,-20.373 L 628.236,-19.6489 L 627.677,-19.0274
 L 627,-18.5359 L 626.236,-18.1958 L 625,-18 z
M 313.249,-18 L 312.711,-18.0363 L 311.899,-18.2346 L 311.146,-18.5975 L 310.484,-19.1091 L 309.944,-19.7471
 L 309.547,-20.4835 L 309.313,-21.2862 L 309.251,-22.1201 L 309.363,-22.9488 L 309.645,-23.7359 L 310.085,-24.4473
 L 310.663,-25.0516 L 311.354,-25.5226 L 321.605,-31.0375 L 322.15,-31.2803 L 322.963,-31.4786 L 323.798,-31.5037
 L 324.621,-31.3545 L 325.395,-31.0375 L 335.646,-25.5226 L 336.102,-25.2361 L 336.724,-24.6765 L 337.215,-24
 L 337.555,-23.2361 L 337.729,-22.4181 L 337.729,-21.5819 L 337.555,-20.7639 L 337.215,-20 L 336.724,-19.3235
 L 336.102,-18.7639 L 335.378,-18.3458 L 334.583,-18.0874 L 333.751,-18 z
" stroke="black" fill="lightgray" stroke-width="0.5"/>
</svg>
