<?xml version="1.0" standalone="no"?>
<!DOCTYPE svg PUBLIC "-//W3C//DTD SVG 1.1//EN" "http://www.w3.org/Graphics/SVG/1.1/DTD/svg11.dtd">
<svg width="836mm" height="80mm" viewBox="0 -80 836 80" xmlns="http://www.w3.org/2000/svg" version="1.1">
<title>OpenSCAD Model</title>
<path d="
M 836,-80 L 0,-80 L 0,-0 L 4.95,-0 L 4.95,-6 L 5.00572,-6.53017
 L 5.17046,-7.03717 L 5.437,-7.49884 L 5.79372,-7.895 L 6.22499,-8.20836 L 6.71201,-8.42519 L 7.23344,-8.53603
 L 7.76654,-8.53603 L 8.28798,-8.42519 L 8.77499,-8.20836 L 9.20627,-7.895 L 9.56299,-7.49884 L 9.82953,-7.03717
 L 9.99426,-6.53017 L 10.05,-6 L 10.05,-0 L 169.15,-0 L 169.15,-6 L 169.206,-6.53017
 L 169.37,-7.03717 L 169.637,-7.49884 L 169.994,-7.895 L 170.425,-8.20836 L 170.912,-8.42519 L 171.433,-8.53603
 L 171.967,-8.53603 L 172.488,-8.42519 L 172.975,-8.20836 L 173.406,-7.895 L 173.763,-7.49884 L 174.03,-7.03717
 L 174.194,-6.53017 L 174.25,-6 L 174.25,-0 L 333.35,-0 L 333.35,-6 L 333.406,-6.53017
 L 333.57,-7.03717 L 333.837,-7.49884 L 334.194,-7.895 L 334.625,-8.20836 L 335.112,-8.42519 L 335.633,-8.53603
 L 336.167,-8.53603 L 336.688,-8.42519 L 337.175,-8.20836 L 337.606,-7.895 L 337.963,-7.49884 L 338.23,-7.03717
 L 338.394,-6.53017 L 338.45,-6 L 338.45,-0 L 497.55,-0 L 497.55,-6 L 497.606,-6.53017
 L 497.77,-7.03717 L 498.037,-7.49884 L 498.394,-7.895 L 498.825,-8.20836 L 499.312,-8.42519 L 499.833,-8.53603
 L 500.367,-8.53603 L 500.888,-8.42519 L 501.375,-8.20836 L 501.806,-7.895 L 502.163,-7.49884 L 502.43,-7.03717
 L 502.594,-6.53017 L 502.65,-6 L 502.65,-0 L 661.75,-0 L 661.75,-6 L 661.806,-6.53017
 L 661.97,-7.03717 L 662.237,-7.49884 L 662.594,-7.895 L 663.025,-8.20836 L 663.512,-8.42519 L 664.033,-8.53603
 L 664.567,-8.53603 L 665.088,-8.42519 L 665.575,-8.20836 L 666.006,-7.895 L 666.363,-7.49884 L 666.63,-7.03717
 L 666.794,-6.53017 L 666.85,-6 L 666.85,-0 L 825.95,-0 L 825.95,-6 L 826.006,-6.53017
 L 826.17,-7.03717 L 826.437,-7.49884 L 826.794,-7.895 L 827.225,-8.20836 L 827.712,-8.42519 L 828.233,-8.53603
 L 828.767,-8.53603 L 829.288,-8.42519 L 829.775,-8.20836 L 830.206,-7.895 L 830.563,-7.49884 L 830.83,-7.03717
 L 830.994,-6.53017 L 831.05,-6 L 831.05,-0 L 836,-0 z
M 6.98573,-55.607 L 6.47708,-55.6875 L 5.97964,-55.8208 L 5.49887,-56.0054 L 5.04001,-56.2392 L 4.60811,-56.5196
 L 4.20789,-56.8437 L 3.84373,-57.2079 L 3.51964,-57.6081 L 3.23917,-58.04 L 3.00537,-58.4989 L 2.82082,-58.9796
 L 2.68752,-59.4771 L 2.60696,-59.9857 L 2.58,-60.5 L 2.60696,-61.0143 L 2.68752,-61.5229 L 2.82082,-62.0204
 L 3.00537,-62.5011 L 3.23917,-62.96 L 3.51964,-63.3919 L 3.84373,-63.7921 L 4.20789,-64.1563 L 4.60811,-64.4804
 L 4.95001,-64.7024 L 4.95001,-74 L 5.00574,-74.5302 L 5.17047,-75.0372 L 5.43701,-75.4988 L 5.79373,-75.895
 L 6.22501,-76.2084 L 6.71202,-76.4252 L 7.23346,-76.536 L 7.76654,-76.536 L 8.28798,-76.4252 L 8.77499,-76.2084
 L 9.20627,-75.895 L 9.56299,-75.4988 L 9.82953,-75.0372 L 9.99426,-74.5302 L 10.05,-74 L 10.05,-64.7024
 L 10.3919,-64.4804 L 10.7921,-64.1563 L 11.1563,-63.7921 L 11.4804,-63.3919 L 11.7608,-62.96 L 11.9946,-62.5011
 L 12.1792,-62.0204 L 12.3125,-61.5229 L 12.393,-61.0143 L 12.42,-60.5 L 12.393,-59.9857 L 12.3125,-59.4771
 L 12.1792,-58.9796 L 11.9946,-58.4989 L 11.7608,-58.04 L 11.4804,-57.6081 L 11.1563,-57.2079 L 10.7921,-56.8437
 L 10.3919,-56.5196 L 9.95999,-56.2392 L 9.50113,-56.0054 L 9.02036,-55.8208 L 8.52292,-55.6875 L 8.01427,-55.607
 L 7.5,-55.58 z
M 171.186,-55.607 L 170.677,-55.6875 L 170.18,-55.8208 L 169.699,-56.0054 L 169.24,-56.2392 L 168.808,-56.5196
 L 168.408,-56.8437 L 168.044,-57.2079 L 167.72,-57.6081 L 167.439,-58.04 L 167.205,-58.4989 L 167.021,-58.9796
 L 166.888,-59.4771 L 166.807,-59.9857 L 166.78,-60.5 L 166.807,-61.0143 L 166.888,-61.5229 L 167.021,-62.0204
 L 167.205,-62.5011 L 167.439,-62.96 L 167.72,-63.3919 L 168.044,-63.7921 L 168.408,-64.1563 L 168.808,-64.4804
 L 169.15,-64.7024 L 169.15,-74 L 169.206,-74.5302 L 169.37,-75.0372 L 169.637,-75.4988 L 169.994,-75.895
 L 170.425,-76.2084 L 170.912,-76.4252 L 171.433,-76.536 L 171.967,-76.536 L 172.488,-76.4252 L 172.975,-76.2084
 L 173.406,-75.895 L 173.763,-75.4988 L 174.03,-75.0372 L 174.194,-74.5302 L 174.25,-74 L 174.25,-64.7024
 L 174.592,-64.4804 L 174.992,-64.1563 L 175.356,-63.7921 L 175.68,-63.3919 L 175.961,-62.96 L 176.195,-62.5011
 L 176.379,-62.0204 L 176.512,-61.5229 L 176.593,-61.0143 L 176.62,-60.5 L 176.593,-59.9857 L 176.512,-59.4771
 L 176.379,-58.9796 L 176.195,-58.4989 L 175.961,-58.04 L 175.68,-57.6081 L 175.356,-57.2079 L 174.992,-56.8437
 L 174.592,-56.5196 L 174.16,-56.2392 L 173.701,-56.0054 L 173.22,-55.8208 L 172.723,-55.6875 L 172.214,-55.607
 L 171.7,-55.58 z
M 335.386,-55.607 L 334.877,-55.6875 L 334.38,-55.8208 L 333.899,-56.0054 L 333.44,-56.2392 L 333.008,-56.5196
 L 332.608,-56.8437 L 332.244,-57.2079 L 331.92,-57.6081 L 331.639,-58.04 L 331.405,-58.4989 L 331.221,-58.9796
 L 331.088,-59.4771 L 331.007,-59.9857 L 330.98,-60.5 L 331.007,-61.0143 L 331.088,-61.5229 L 331.221,-62.0204
 L 331.405,-62.5011 L 331.639,-62.96 L 331.92,-63.3919 L 332.244,-63.7921 L 332.608,-64.1563 L 333.008,-64.4804
 L 333.35,-64.7024 L 333.35,-74 L 333.406,-74.5302 L 333.57,-75.0372 L 333.837,-75.4988 L 334.194,-75.895
 L 334.625,-76.2084 L 335.112,-76.4252 L 335.633,-76.536 L 336.167,-76.536 L 336.688,-76.4252 L 337.175,-76.2084
 L 337.606,-75.895 L 337.963,-75.4988 L 338.23,-75.0372 L 338.394,-74.5302 L 338.45,-74 L 338.45,-64.7024
 L 338.792,-64.4804 L 339.192,-64.1563 L 339.556,-63.7921 L 339.88,-63.3919 L 340.161,-62.96 L 340.395,-62.5011
 L 340.579,-62.0204 L 340.712,-61.5229 L 340.793,-61.0143 L 340.82,-60.5 L 340.793,-59.9857 L 340.712,-59.4771
 L 340.579,-58.9796 L 340.395,-58.4989 L 340.161,-58.04 L 339.88,-57.6081 L 339.556,-57.2079 L 339.192,-56.8437
 L 338.792,-56.5196 L 338.36,-56.2392 L 337.901,-56.0054 L 337.42,-55.8208 L 336.923,-55.6875 L 336.414,-55.607
 L 335.9,-55.58 z
M 499.586,-55.607 L 499.077,-55.6875 L 498.58,-55.8208 L 498.099,-56.0054 L 497.64,-56.2392 L 497.208,-56.5196
 L 496.808,-56.8437 L 496.444,-57.2079 L 496.12,-57.6081 L 495.839,-58.04 L 495.605,-58.4989 L 495.421,-58.9796
 L 495.288,-59.4771 L 495.207,-59.9857 L 495.18,-60.5 L 495.207,-61.0143 L 495.288,-61.5229 L 495.421,-62.0204
 L 495.605,-62.5011 L 495.839,-62.96 L 496.12,-63.3919 L 496.444,-63.7921 L 496.808,-64.1563 L 497.208,-64.4804
 L 497.55,-64.7024 L 497.55,-74 L 497.606,-74.5302 L 497.77,-75.0372 L 498.037,-75.4988 L 498.394,-75.895
 L 498.825,-76.2084 L 499.312,-76.4252 L 499.833,-76.536 L 500.367,-76.536 L 500.888,-76.4252 L 501.375,-76.2084
 L 501.806,-75.895 L 502.163,-75.4988 L 502.43,-75.0372 L 502.594,-74.5302 L 502.65,-74 L 502.65,-64.7024
 L 502.992,-64.4804 L 503.392,-64.1563 L 503.756,-63.7921 L 504.08,-63.3919 L 504.361,-62.96 L 504.595,-62.5011
 L 504.779,-62.0204 L 504.912,-61.5229 L 504.993,-61.0143 L 505.02,-60.5 L 504.993,-59.9857 L 504.912,-59.4771
 L 504.779,-58.9796 L 504.595,-58.4989 L 504.361,-58.04 L 504.08,-57.6081 L 503.756,-57.2079 L 503.392,-56.8437
 L 502.992,-56.5196 L 502.56,-56.2392 L 502.101,-56.0054 L 501.62,-55.8208 L 501.123,-55.6875 L 500.614,-55.607
 L 500.1,-55.58 z
M 663.786,-55.607 L 663.277,-55.6875 L 662.78,-55.8208 L 662.299,-56.0054 L 661.84,-56.2392 L 661.408,-56.5196
 L 661.008,-56.8437 L 660.644,-57.2079 L 660.32,-57.6081 L 660.039,-58.04 L 659.805,-58.4989 L 659.621,-58.9796
 L 659.488,-59.4771 L 659.407,-59.9857 L 659.38,-60.5 L 659.407,-61.0143 L 659.488,-61.5229 L 659.621,-62.0204
 L 659.805,-62.5011 L 660.039,-62.96 L 660.32,-63.3919 L 660.644,-63.7921 L 661.008,-64.1563 L 661.408,-64.4804
 L 661.75,-64.7024 L 661.75,-74 L 661.806,-74.5302 L 661.97,-75.0372 L 662.237,-75.4988 L 662.594,-75.895
 L 663.025,-76.2084 L 663.512,-76.4252 L 664.033,-76.536 L 664.567,-76.536 L 665.088,-76.4252 L 665.575,-76.2084
 L 666.006,-75.895 L 666.363,-75.4988 L 666.63,-75.0372 L 666.794,-74.5302 L 666.85,-74 L 666.85,-64.7024
 L 667.192,-64.4804 L 667.592,-64.1563 L 667.956,-63.7921 L 668.28,-63.3919 L 668.561,-62.96 L 668.795,-62.5011
 L 668.979,-62.0204 L 669.112,-61.5229 L 669.193,-61.0143 L 669.22,-60.5 L 669.193,-59.9857 L 669.112,-59.4771
 L 668.979,-58.9796 L 668.795,-58.4989 L 668.561,-58.04 L 668.28,-57.6081 L 667.956,-57.2079 L 667.592,-56.8437
 L 667.192,-56.5196 L 666.76,-56.2392 L 666.301,-56.0054 L 665.82,-55.8208 L 665.323,-55.6875 L 664.814,-55.607
 L 664.3,-55.58 z
M 827.986,-55.607 L 827.477,-55.6875 L 826.98,-55.8208 L 826.499,-56.0054 L 826.04,-56.2392 L 825.608,-56.5196
 L 825.208,-56.8437 L 824.844,-57.2079 L 824.52,-57.6081 L 824.239,-58.04 L 824.005,-58.4989 L 823.821,-58.9796
 L 823.688,-59.4771 L 823.607,-59.9857 L 823.58,-60.5 L 823.607,-61.0143 L 823.688,-61.5229 L 823.821,-62.0204
 L 824.005,-62.5011 L 824.239,-62.96 L 824.52,-63.3919 L 824.844,-63.7921 L 825.208,-64.1563 L 825.608,-64.4804
 L 825.95,-64.7024 L 825.95,-74 L 826.006,-74.5302 L 826.17,-75.0372 L 826.437,-75.4988 L 826.794,-75.895
 L 827.225,-76.2084 L 827.712,-76.4252 L 828.233,-76.536 L 828.767,-76.536 L 829.288,-76.4252 L 829.775,-76.2084
 L 830.206,-75.895 L 830.563,-75.4988 L 830.83,-75.0372 L 830.994,-74.5302 L 831.05,-74 L 831.05,-64.7024
 L 831.392,-64.4804 L 831.792,-64.1563 L 832.156,-63.7921 L 832.48,-63.3919 L 832.761,-62.96 L 832.995,-62.5011
 L 833.179,-62.0204 L 833.312,-61.5229 L 833.393,-61.0143 L 833.42,-60.5 L 833.393,-59.9857 L 833.312,-59.4771
 L 833.179,-58.9796 L 832.995,-58.4989 L 832.761,-58.04 L 832.48,-57.6081 L 832.156,-57.2079 L 831.792,-56.8437
 L 831.392,-56.5196 L 830.96,-56.2392 L 830.501,-56.0054 L 830.02,-55.8208 L 829.523,-55.6875 L 829.014,-55.607
 L 828.5,-55.58 z
M 417.271,-47.9688 L 416.47,-48.2062 L 401.744,-54.3044 L 400.924,-54.7639 L 400.302,-55.3235 L 399.811,-56
 L 399.471,-56.7639 L 399.297,-57.5819 L 399.297,-58.4181 L 399.471,-59.2361 L 399.811,-60 L 400.302,-60.6765
 L 400.924,-61.2361 L 401.648,-61.6542 L 402.443,-61.9126 L 403.275,-62 L 432.725,-62 L 433.659,-61.8894
 L 434.448,-61.6102 L 435.16,-61.1732 L 435.767,-60.5976 L 436.241,-59.9084 L 436.561,-59.1358 L 436.713,-58.3136
 L 436.691,-57.4776 L 436.496,-56.6645 L 436.136,-55.9098 L 435.627,-55.2464 L 434.991,-54.7033 L 434.256,-54.3044
 L 419.53,-48.2062 L 418.934,-48.0124 L 418.105,-47.9032 z
M 322.171,-21.5164 L 321.37,-21.7539 L 242.77,-54.3044 L 241.949,-54.7639 L 241.328,-55.3235 L 240.836,-56
 L 240.496,-56.7639 L 240.322,-57.5819 L 240.322,-58.4181 L 240.496,-59.2361 L 240.836,-60 L 241.328,-60.6765
 L 241.949,-61.2361 L 242.673,-61.6542 L 243.468,-61.9126 L 244.3,-62 L 322.9,-62 L 324.136,-61.8042
 L 324.9,-61.4641 L 325.577,-60.9726 L 326.136,-60.3511 L 326.554,-59.627 L 326.813,-58.8316 L 326.9,-58
 L 326.9,-25.4495 L 326.735,-24.3137 L 326.415,-23.5411 L 325.942,-22.8519 L 325.335,-22.2763 L 324.622,-21.8393
 L 323.834,-21.5601 L 323.005,-21.4509 z
M 676.366,-21.5601 L 675.578,-21.8393 L 674.865,-22.2763 L 674.258,-22.8519 L 673.785,-23.5411 L 673.465,-24.3137
 L 673.3,-25.4495 L 673.3,-58 L 673.387,-58.8316 L 673.646,-59.627 L 674.064,-60.3511 L 674.623,-60.9726
 L 675.3,-61.4641 L 676.064,-61.8042 L 677.3,-62 L 755.9,-62 L 756.732,-61.9126 L 757.527,-61.6542
 L 758.251,-61.2361 L 758.872,-60.6765 L 759.364,-60 L 759.704,-59.2361 L 759.878,-58.4181 L 759.878,-57.5819
 L 759.704,-56.7639 L 759.364,-56 L 758.872,-55.3235 L 758.251,-54.7639 L 757.43,-54.3044 L 678.83,-21.7539
 L 678.029,-21.5164 L 677.195,-21.4509 z
M 157.971,-21.5164 L 157.17,-21.7539 L 78.5696,-54.3044 L 77.749,-54.7639 L 77.1275,-55.3235 L 76.636,-56
 L 76.2959,-56.7639 L 76.122,-57.5819 L 76.122,-58.4181 L 76.2959,-59.2361 L 76.636,-60 L 77.1275,-60.6765
 L 77.749,-61.2361 L 78.4732,-61.6542 L 79.2685,-61.9126 L 80.1001,-62 L 158.7,-62 L 159.936,-61.8042
 L 160.7,-61.4641 L 161.377,-60.9726 L 161.936,-60.3511 L 162.354,-59.627 L 162.613,-58.8316 L 162.7,-58
 L 162.7,-25.4495 L 162.535,-24.3137 L 162.215,-23.5411 L 161.742,-22.8519 L 161.135,-22.2763 L 160.422,-21.8393
 L 159.634,-21.5601 L 158.805,-21.4509 z
M 512.166,-21.5601 L 511.378,-21.8393 L 510.665,-22.2763 L 510.058,-22.8519 L 509.585,-23.5411 L 509.265,-24.3137
 L 509.1,-25.4495 L 509.1,-58 L 509.187,-58.8316 L 509.446,-59.627 L 509.864,-60.3511 L 510.423,-60.9726
 L 511.1,-61.4641 L 511.864,-61.8042 L 513.1,-62 L 591.7,-62 L 592.532,-61.9126 L 593.327,-61.6542
 L 594.051,-61.2361 L 594.672,-60.6765 L 595.164,-60 L 595.504,-59.2361 L 595.678,-58.4181 L 595.678,-57.5819
 L 595.504,-56.7639 L 595.164,-56 L 594.672,-55.3235 L 594.051,-54.7639 L 593.23,-54.3044 L 514.63,-21.7539
 L 513.829,-21.5164 L 512.995,-21.4509 z
M 348.482,-19.3074 L 347.664,-19.4813 L 346.9,-19.8214 L 346.223,-20.313 L 345.664,-20.9344 L 345.246,-21.6586
 L 344.987,-22.4539 L 344.9,-23.2855 L 344.9,-56.7145 L 345.065,-57.8503 L 345.385,-58.6228 L 345.858,-59.312
 L 346.465,-59.8877 L 347.178,-60.3247 L 347.966,-60.6039 L 348.795,-60.7131 L 349.629,-60.6475 L 350.43,-60.4101
 L 390.791,-43.6956 L 391.696,-43.1732 L 392.302,-42.5976 L 392.776,-41.9084 L 393.096,-41.1358 L 393.248,-40.3136
 L 393.226,-39.4776 L 393.031,-38.6645 L 392.671,-37.9098 L 392.162,-37.2464 L 391.526,-36.7033 L 390.791,-36.3044
 L 350.43,-19.5899 L 349.318,-19.3074 z
M 486.371,-19.3525 L 485.57,-19.5899 L 445.209,-36.3044 L 444.304,-36.8268 L 443.698,-37.4024 L 443.224,-38.0916
 L 442.904,-38.8642 L 442.752,-39.6864 L 442.774,-40.5224 L 442.969,-41.3355 L 443.329,-42.0902 L 443.838,-42.7536
 L 444.474,-43.2967 L 445.209,-43.6956 L 485.57,-60.4101 L 486.682,-60.6926 L 487.518,-60.6926 L 488.336,-60.5187
 L 489.1,-60.1786 L 489.777,-59.687 L 490.336,-59.0656 L 490.754,-58.3414 L 491.013,-57.5461 L 491.1,-56.7145
 L 491.1,-23.2855 L 490.935,-22.1497 L 490.615,-21.3772 L 490.142,-20.688 L 489.535,-20.1123 L 488.822,-19.6753
 L 488.034,-19.3961 L 487.205,-19.2869 z
M 184.7,-18 L 183.464,-18.1958 L 182.7,-18.5359 L 182.023,-19.0274 L 181.464,-19.6489 L 181.046,-20.373
 L 180.787,-21.1684 L 180.7,-22 L 180.7,-54.5505 L 180.865,-55.6863 L 181.185,-56.4589 L 181.658,-57.1481
 L 182.265,-57.7237 L 182.978,-58.1607 L 183.766,-58.4399 L 184.595,-58.5491 L 185.429,-58.4836 L 186.23,-58.2461
 L 264.83,-25.6956 L 265.651,-25.2361 L 266.272,-24.6765 L 266.764,-24 L 267.104,-23.2361 L 267.278,-22.4181
 L 267.278,-21.5819 L 267.104,-20.7639 L 266.764,-20 L 266.272,-19.3235 L 265.651,-18.7639 L 264.927,-18.3458
 L 264.132,-18.0874 L 263.3,-18 z
M 572.7,-18 L 571.868,-18.0874 L 571.073,-18.3458 L 570.349,-18.7639 L 569.728,-19.3235 L 569.236,-20
 L 568.896,-20.7639 L 568.722,-21.5819 L 568.722,-22.4181 L 568.896,-23.2361 L 569.236,-24 L 569.728,-24.6765
 L 570.349,-25.2361 L 571.17,-25.6956 L 649.77,-58.2461 L 650.571,-58.4836 L 651.405,-58.5491 L 652.234,-58.4399
 L 653.022,-58.1607 L 653.735,-57.7237 L 654.342,-57.1481 L 654.815,-56.4589 L 655.135,-55.6863 L 655.3,-54.5505
 L 655.3,-22 L 655.213,-21.1684 L 654.954,-20.373 L 654.536,-19.6489 L 653.977,-19.0274 L 653.3,-18.5359
 L 652.536,-18.1958 L 651.3,-18 z
M 22,-18 L 20.7639,-18.1958 L 20,-18.5359 L 19.3235,-19.0274 L 18.7639,-19.6489 L 18.3458,-20.373
 L 18.0874,-21.1684 L 18,-22 L 18,-53.9293 L 18.1646,-55.0651 L 18.4846,-55.8377 L 18.9582,-56.5269
 L 19.5647,-57.1025 L 20.2777,-57.5395 L 21.0659,-57.8187 L 21.895,-57.9279 L 22.7287,-57.8624 L 23.5305,-57.6249
 L 100.63,-25.6956 L 101.451,-25.2361 L 102.072,-24.6765 L 102.564,-24 L 102.904,-23.2361 L 103.078,-22.4181
 L 103.078,-21.5819 L 102.904,-20.7639 L 102.564,-20 L 102.072,-19.3235 L 101.451,-18.7639 L 100.727,-18.3458
 L 99.9315,-18.0874 L 99.0999,-18 z
M 736.9,-18 L 736.068,-18.0874 L 735.273,-18.3458 L 734.549,-18.7639 L 733.928,-19.3235 L 733.436,-20
 L 733.096,-20.7639 L 732.922,-21.5819 L 732.922,-22.4181 L 733.096,-23.2361 L 733.436,-24 L 733.928,-24.6765
 L 734.549,-25.2361 L 735.37,-25.6956 L 812.47,-57.6249 L 813.271,-57.8624 L 814.105,-57.9279 L 814.934,-57.8187
 L 815.722,-57.5395 L 816.435,-57.1025 L 817.042,-56.5269 L 817.515,-55.8377 L 817.835,-55.0651 L 818,-53.9293
 L 818,-22 L 817.913,-21.1684 L 817.654,-20.373 L 817.236,-19.6489 L 816.677,-19.0274 L 816,-18.5359
 L 815.236,-18.1958 L 814,-18 z
M 403.275,-18 L 402.341,-18.1106 L 401.552,-18.3898 L 400.839,-18.8268 L 400.233,-19.4024 L 399.759,-20.0916
 L 399.439,-20.8642 L 399.287,-21.6864 L 399.309,-22.5224 L 399.504,-23.3355 L 399.864,-24.0902 L 400.373,-24.7536
 L 401.009,-25.2967 L 401.744,-25.6956 L 416.47,-31.7938 L 417.066,-31.9876 L 417.895,-32.0968 L 418.729,-32.0312
 L 419.53,-31.7938 L 434.256,-25.6956 L 435.076,-25.2361 L 435.698,-24.6765 L 436.189,-24 L 436.529,-23.2361
 L 436.703,-22.4181 L 436.703,-21.5819 L 436.529,-20.7639 L 436.189,-20 L 435.698,-19.3235 L 435.076,-18.7639
 L 434.352,-18.3458 L 433.557,-18.0874 L 432.725,-18 z
" stroke="black" fill="lightgray" stroke-width="0.5"/>
</svg>
