<?xml version="1.0" standalone="no"?>
<!DOCTYPE svg PUBLIC "-//W3C//DTD SVG 1.1//EN" "http://www.w3.org/Graphics/SVG/1.1/DTD/svg11.dtd">
<svg width="752mm" height="80mm" viewBox="0 -80 752 80" xmlns="http://www.w3.org/2000/svg" version="1.1">
<title>OpenSCAD Model</title>
<path d="
M 752,-80 L 0,-80 L 0,-0 L 4.95,-0 L 4.95,-6 L 5.00572,-6.53017
 L 5.17046,-7.03717 L 5.437,-7.49884 L 5.79372,-7.895 L 6.22499,-8.20836 L 6.71201,-8.42519 L 7.23344,-8.53603
 L 7.76654,-8.53603 L 8.28798,-8.42519 L 8.77499,-8.20836 L 9.20627,-7.895 L 9.56299,-7.49884 L 9.82953,-7.03717
 L 9.99426,-6.53017 L 10.05,-6 L 10.05,-0 L 152.35,-0 L 152.35,-6 L 152.406,-6.53017
 L 152.57,-7.03717 L 152.837,-7.49884 L 153.194,-7.895 L 153.625,-8.20836 L 154.112,-8.42519 L 154.633,-8.53603
 L 155.167,-8.53603 L 155.688,-8.42519 L 156.175,-8.20836 L 156.606,-7.895 L 156.963,-7.49884 L 157.23,-7.03717
 L 157.394,-6.53017 L 157.45,-6 L 157.45,-0 L 299.75,-0 L 299.75,-6 L 299.806,-6.53017
 L 299.97,-7.03717 L 300.237,-7.49884 L 300.594,-7.895 L 301.025,-8.20836 L 301.512,-8.42519 L 302.033,-8.53603
 L 302.567,-8.53603 L 303.088,-8.42519 L 303.575,-8.20836 L 304.006,-7.895 L 304.363,-7.49884 L 304.63,-7.03717
 L 304.794,-6.53017 L 304.85,-6 L 304.85,-0 L 447.15,-0 L 447.15,-6 L 447.206,-6.53017
 L 447.37,-7.03717 L 447.637,-7.49884 L 447.994,-7.895 L 448.425,-8.20836 L 448.912,-8.42519 L 449.433,-8.53603
 L 449.967,-8.53603 L 450.488,-8.42519 L 450.975,-8.20836 L 451.406,-7.895 L 451.763,-7.49884 L 452.03,-7.03717
 L 452.194,-6.53017 L 452.25,-6 L 452.25,-0 L 594.55,-0 L 594.55,-6 L 594.606,-6.53017
 L 594.77,-7.03717 L 595.037,-7.49884 L 595.394,-7.895 L 595.825,-8.20836 L 596.312,-8.42519 L 596.833,-8.53603
 L 597.367,-8.53603 L 597.888,-8.42519 L 598.375,-8.20836 L 598.806,-7.895 L 599.163,-7.49884 L 599.43,-7.03717
 L 599.594,-6.53017 L 599.65,-6 L 599.65,-0 L 741.95,-0 L 741.95,-6 L 742.006,-6.53017
 L 742.17,-7.03717 L 742.437,-7.49884 L 742.794,-7.895 L 743.225,-8.20836 L 743.712,-8.42519 L 744.233,-8.53603
 L 744.767,-8.53603 L 745.288,-8.42519 L 745.775,-8.20836 L 746.206,-7.895 L 746.563,-7.49884 L 746.83,-7.03717
 L 746.994,-6.53017 L 747.05,-6 L 747.05,-0 L 752,-0 z
M 6.98573,-55.607 L 6.47708,-55.6875 L 5.97964,-55.8208 L 5.49887,-56.0054 L 5.04001,-56.2392 L 4.60811,-56.5196
 L 4.20789,-56.8437 L 3.84373,-57.2079 L 3.51964,-57.6081 L 3.23917,-58.04 L 3.00537,-58.4989 L 2.82082,-58.9796
 L 2.68752,-59.4771 L 2.60696,-59.9857 L 2.58,-60.5 L 2.60696,-61.0143 L 2.68752,-61.5229 L 2.82082,-62.0204
 L 3.00537,-62.5011 L 3.23917,-62.96 L 3.51964,-63.3919 L 3.84373,-63.7921 L 4.20789,-64.1563 L 4.60811,-64.4804
 L 4.95001,-64.7024 L 4.95001,-74 L 5.00574,-74.5302 L 5.17047,-75.0372 L 5.43701,-75.4988 L 5.79373,-75.895
 L 6.22501,-76.2084 L 6.71202,-76.4252 L 7.23346,-76.536 L 7.76654,-76.536 L 8.28798,-76.4252 L 8.77499,-76.2084
 L 9.20627,-75.895 L 9.56299,-75.4988 L 9.82953,-75.0372 L 9.99426,-74.5302 L 10.05,-74 L 10.05,-64.7024
 L 10.3919,-64.4804 L 10.7921,-64.1563 L 11.1563,-63.7921 L 11.4804,-63.3919 L 11.7608,-62.96 L 11.9946,-62.5011
 L 12.1792,-62.0204 L 12.3125,-61.5229 L 12.393,-61.0143 L 12.42,-60.5 L 12.393,-59.9857 L 12.3125,-59.4771
 L 12.1792,-58.9796 L 11.9946,-58.4989 L 11.7608,-58.04 L 11.4804,-57.6081 L 11.1563,-57.2079 L 10.7921,-56.8437
 L 10.3919,-56.5196 L 9.95999,-56.2392 L 9.50113,-56.0054 L 9.02036,-55.8208 L 8.52292,-55.6875 L 8.01427,-55.607
 L 7.5,-55.58 z
M 154.386,-55.607 L 153.877,-55.6875 L 153.38,-55.8208 L 152.899,-56.0054 L 152.44,-56.2392 L 152.008,-56.5196
 L 151.608,-56.8437 L 151.244,-57.2079 L 150.92,-57.6081 L 150.639,-58.04 L 150.405,-58.4989 L 150.221,-58.9796
 L 150.088,-59.4771 L 150.007,-59.9857 L 149.98,-60.5 L 150.007,-61.0143 L 150.088,-61.5229 L 150.221,-62.0204
 L 150.405,-62.5011 L 150.639,-62.96 L 150.92,-63.3919 L 151.244,-63.7921 L 151.608,-64.1563 L 152.008,-64.4804
 L 152.35,-64.7024 L 152.35,-74 L 152.406,-74.5302 L 152.57,-75.0372 L 152.837,-75.4988 L 153.194,-75.895
 L 153.625,-76.2084 L 154.112,-76.4252 L 154.633,-76.536 L 155.167,-76.536 L 155.688,-76.4252 L 156.175,-76.2084
 L 156.606,-75.895 L 156.963,-75.4988 L 157.23,-75.0372 L 157.394,-74.5302 L 157.45,-74 L 157.45,-64.7024
 L 157.792,-64.4804 L 158.192,-64.1563 L 158.556,-63.7921 L 158.88,-63.3919 L 159.161,-62.96 L 159.395,-62.5011
 L 159.579,-62.0204 L 159.712,-61.5229 L 159.793,-61.0143 L 159.82,-60.5 L 159.793,-59.9857 L 159.712,-59.4771
 L 159.579,-58.9796 L 159.395,-58.4989 L 159.161,-58.04 L 158.88,-57.6081 L 158.556,-57.2079 L 158.192,-56.8437
 L 157.792,-56.5196 L 157.36,-56.2392 L 156.901,-56.0054 L 156.42,-55.8208 L 155.923,-55.6875 L 155.414,-55.607
 L 154.9,-55.58 z
M 301.786,-55.607 L 301.277,-55.6875 L 300.78,-55.8208 L 300.299,-56.0054 L 299.84,-56.2392 L 299.408,-56.5196
 L 299.008,-56.8437 L 298.644,-57.2079 L 298.32,-57.6081 L 298.039,-58.04 L 297.805,-58.4989 L 297.621,-58.9796
 L 297.488,-59.4771 L 297.407,-59.9857 L 297.38,-60.5 L 297.407,-61.0143 L 297.488,-61.5229 L 297.621,-62.0204
 L 297.805,-62.5011 L 298.039,-62.96 L 298.32,-63.3919 L 298.644,-63.7921 L 299.008,-64.1563 L 299.408,-64.4804
 L 299.75,-64.7024 L 299.75,-74 L 299.806,-74.5302 L 299.97,-75.0372 L 300.237,-75.4988 L 300.594,-75.895
 L 301.025,-76.2084 L 301.512,-76.4252 L 302.033,-76.536 L 302.567,-76.536 L 303.088,-76.4252 L 303.575,-76.2084
 L 304.006,-75.895 L 304.363,-75.4988 L 304.63,-75.0372 L 304.794,-74.5302 L 304.85,-74 L 304.85,-64.7024
 L 305.192,-64.4804 L 305.592,-64.1563 L 305.956,-63.7921 L 306.28,-63.3919 L 306.561,-62.96 L 306.795,-62.5011
 L 306.979,-62.0204 L 307.112,-61.5229 L 307.193,-61.0143 L 307.22,-60.5 L 307.193,-59.9857 L 307.112,-59.4771
 L 306.979,-58.9796 L 306.795,-58.4989 L 306.561,-58.04 L 306.28,-57.6081 L 305.956,-57.2079 L 305.592,-56.8437
 L 305.192,-56.5196 L 304.76,-56.2392 L 304.301,-56.0054 L 303.82,-55.8208 L 303.323,-55.6875 L 302.814,-55.607
 L 302.3,-55.58 z
M 449.186,-55.607 L 448.677,-55.6875 L 448.18,-55.8208 L 447.699,-56.0054 L 447.24,-56.2392 L 446.808,-56.5196
 L 446.408,-56.8437 L 446.044,-57.2079 L 445.72,-57.6081 L 445.439,-58.04 L 445.205,-58.4989 L 445.021,-58.9796
 L 444.888,-59.4771 L 444.807,-59.9857 L 444.78,-60.5 L 444.807,-61.0143 L 444.888,-61.5229 L 445.021,-62.0204
 L 445.205,-62.5011 L 445.439,-62.96 L 445.72,-63.3919 L 446.044,-63.7921 L 446.408,-64.1563 L 446.808,-64.4804
 L 447.15,-64.7024 L 447.15,-74 L 447.206,-74.5302 L 447.37,-75.0372 L 447.637,-75.4988 L 447.994,-75.895
 L 448.425,-76.2084 L 448.912,-76.4252 L 449.433,-76.536 L 449.967,-76.536 L 450.488,-76.4252 L 450.975,-76.2084
 L 451.406,-75.895 L 451.763,-75.4988 L 452.03,-75.0372 L 452.194,-74.5302 L 452.25,-74 L 452.25,-64.7024
 L 452.592,-64.4804 L 452.992,-64.1563 L 453.356,-63.7921 L 453.68,-63.3919 L 453.961,-62.96 L 454.195,-62.5011
 L 454.379,-62.0204 L 454.512,-61.5229 L 454.593,-61.0143 L 454.62,-60.5 L 454.593,-59.9857 L 454.512,-59.4771
 L 454.379,-58.9796 L 454.195,-58.4989 L 453.961,-58.04 L 453.68,-57.6081 L 453.356,-57.2079 L 452.992,-56.8437
 L 452.592,-56.5196 L 452.16,-56.2392 L 451.701,-56.0054 L 451.22,-55.8208 L 450.723,-55.6875 L 450.214,-55.607
 L 449.7,-55.58 z
M 596.586,-55.607 L 596.077,-55.6875 L 595.58,-55.8208 L 595.099,-56.0054 L 594.64,-56.2392 L 594.208,-56.5196
 L 593.808,-56.8437 L 593.444,-57.2079 L 593.12,-57.6081 L 592.839,-58.04 L 592.605,-58.4989 L 592.421,-58.9796
 L 592.288,-59.4771 L 592.207,-59.9857 L 592.18,-60.5 L 592.207,-61.0143 L 592.288,-61.5229 L 592.421,-62.0204
 L 592.605,-62.5011 L 592.839,-62.96 L 593.12,-63.3919 L 593.444,-63.7921 L 593.808,-64.1563 L 594.208,-64.4804
 L 594.55,-64.7024 L 594.55,-74 L 594.606,-74.5302 L 594.77,-75.0372 L 595.037,-75.4988 L 595.394,-75.895
 L 595.825,-76.2084 L 596.312,-76.4252 L 596.833,-76.536 L 597.367,-76.536 L 597.888,-76.4252 L 598.375,-76.2084
 L 598.806,-75.895 L 599.163,-75.4988 L 599.43,-75.0372 L 599.594,-74.5302 L 599.65,-74 L 599.65,-64.7024
 L 599.992,-64.4804 L 600.392,-64.1563 L 600.756,-63.7921 L 601.08,-63.3919 L 601.361,-62.96 L 601.595,-62.5011
 L 601.779,-62.0204 L 601.912,-61.5229 L 601.993,-61.0143 L 602.02,-60.5 L 601.993,-59.9857 L 601.912,-59.4771
 L 601.779,-58.9796 L 601.595,-58.4989 L 601.361,-58.04 L 601.08,-57.6081 L 600.756,-57.2079 L 600.392,-56.8437
 L 599.992,-56.5196 L 599.56,-56.2392 L 599.101,-56.0054 L 598.62,-55.8208 L 598.123,-55.6875 L 597.614,-55.607
 L 597.1,-55.58 z
M 743.986,-55.607 L 743.477,-55.6875 L 742.98,-55.8208 L 742.499,-56.0054 L 742.04,-56.2392 L 741.608,-56.5196
 L 741.208,-56.8437 L 740.844,-57.2079 L 740.52,-57.6081 L 740.239,-58.04 L 740.005,-58.4989 L 739.821,-58.9796
 L 739.688,-59.4771 L 739.607,-59.9857 L 739.58,-60.5 L 739.607,-61.0143 L 739.688,-61.5229 L 739.821,-62.0204
 L 740.005,-62.5011 L 740.239,-62.96 L 740.52,-63.3919 L 740.844,-63.7921 L 741.208,-64.1563 L 741.608,-64.4804
 L 741.95,-64.7024 L 741.95,-74 L 742.006,-74.5302 L 742.17,-75.0372 L 742.437,-75.4988 L 742.794,-75.895
 L 743.225,-76.2084 L 743.712,-76.4252 L 744.233,-76.536 L 744.767,-76.536 L 745.288,-76.4252 L 745.775,-76.2084
 L 746.206,-75.895 L 746.563,-75.4988 L 746.83,-75.0372 L 746.994,-74.5302 L 747.05,-74 L 747.05,-64.7024
 L 747.392,-64.4804 L 747.792,-64.1563 L 748.156,-63.7921 L 748.48,-63.3919 L 748.761,-62.96 L 748.995,-62.5011
 L 749.179,-62.0204 L 749.312,-61.5229 L 749.393,-61.0143 L 749.42,-60.5 L 749.393,-59.9857 L 749.312,-59.4771
 L 749.179,-58.9796 L 748.995,-58.4989 L 748.761,-58.04 L 748.48,-57.6081 L 748.156,-57.2079 L 747.792,-56.8437
 L 747.392,-56.5196 L 746.96,-56.2392 L 746.501,-56.0054 L 746.02,-55.8208 L 745.523,-55.6875 L 745.014,-55.607
 L 744.5,-55.58 z
M 375.116,-48.2119 L 374.324,-48.4809 L 361.564,-54.3679 L 360.888,-54.7639 L 360.267,-55.3235 L 359.775,-56
 L 359.435,-56.7639 L 359.261,-57.5819 L 359.261,-58.4181 L 359.435,-59.2361 L 359.775,-60 L 360.267,-60.6765
 L 360.888,-61.2361 L 361.612,-61.6542 L 362.407,-61.9126 L 363.239,-62 L 388.761,-62 L 389.54,-61.9234
 L 390.339,-61.6756 L 391.069,-61.2672 L 391.697,-60.716 L 392.198,-60.0461 L 392.548,-59.2868 L 392.733,-58.4712
 L 392.744,-57.6351 L 392.581,-56.8148 L 392.251,-56.0464 L 391.769,-55.3634 L 391.155,-54.7956 L 390.436,-54.3679
 L 377.676,-48.4809 L 376.779,-48.1897 L 375.947,-48.1134 z
M 288.416,-22.4115 L 287.624,-22.6806 L 218.937,-54.3679 L 218.262,-54.7639 L 217.64,-55.3235 L 217.149,-56
 L 216.809,-56.7639 L 216.635,-57.5819 L 216.635,-58.4181 L 216.809,-59.2361 L 217.149,-60 L 217.64,-60.6765
 L 218.262,-61.2361 L 218.986,-61.6542 L 219.781,-61.9126 L 220.613,-62 L 289.3,-62 L 290.536,-61.8042
 L 291.3,-61.4641 L 291.977,-60.9726 L 292.536,-60.3511 L 292.954,-59.627 L 293.213,-58.8316 L 293.3,-58
 L 293.3,-26.3127 L 293.272,-25.8415 L 293.087,-25.0259 L 292.737,-24.2666 L 292.237,-23.5967 L 291.608,-23.0455
 L 290.878,-22.6371 L 290.079,-22.3893 L 289.247,-22.313 z
M 609.321,-22.3893 L 608.522,-22.6371 L 607.792,-23.0455 L 607.163,-23.5967 L 606.663,-24.2666 L 606.313,-25.0259
 L 606.128,-25.8415 L 606.1,-26.3127 L 606.1,-58 L 606.187,-58.8316 L 606.446,-59.627 L 606.864,-60.3511
 L 607.423,-60.9726 L 608.1,-61.4641 L 608.864,-61.8042 L 610.1,-62 L 678.787,-62 L 679.619,-61.9126
 L 680.414,-61.6542 L 681.138,-61.2361 L 681.76,-60.6765 L 682.251,-60 L 682.591,-59.2361 L 682.765,-58.4181
 L 682.765,-57.5819 L 682.591,-56.7639 L 682.251,-56 L 681.76,-55.3235 L 681.138,-54.7639 L 680.463,-54.3679
 L 611.776,-22.6806 L 610.984,-22.4115 L 610.153,-22.313 z
M 141.016,-22.4115 L 140.224,-22.6806 L 71.5375,-54.3679 L 70.8619,-54.7639 L 70.2405,-55.3235 L 69.749,-56
 L 69.4088,-56.7639 L 69.235,-57.5819 L 69.235,-58.4181 L 69.4088,-59.2361 L 69.749,-60 L 70.2405,-60.6765
 L 70.8619,-61.2361 L 71.5861,-61.6542 L 72.3814,-61.9126 L 73.2131,-62 L 141.9,-62 L 143.136,-61.8042
 L 143.9,-61.4641 L 144.577,-60.9726 L 145.136,-60.3511 L 145.554,-59.627 L 145.813,-58.8316 L 145.9,-58
 L 145.9,-26.3127 L 145.872,-25.8415 L 145.687,-25.0259 L 145.337,-24.2666 L 144.837,-23.5967 L 144.208,-23.0455
 L 143.478,-22.6371 L 142.679,-22.3893 L 141.847,-22.313 z
M 461.921,-22.3893 L 461.122,-22.6371 L 460.392,-23.0455 L 459.763,-23.5967 L 459.263,-24.2666 L 458.913,-25.0259
 L 458.728,-25.8415 L 458.7,-26.3127 L 458.7,-58 L 458.787,-58.8316 L 459.046,-59.627 L 459.464,-60.3511
 L 460.023,-60.9726 L 460.7,-61.4641 L 461.464,-61.8042 L 462.7,-62 L 531.387,-62 L 532.219,-61.9126
 L 533.014,-61.6542 L 533.738,-61.2361 L 534.359,-60.6765 L 534.851,-60 L 535.191,-59.2361 L 535.365,-58.4181
 L 535.365,-57.5819 L 535.191,-56.7639 L 534.851,-56 L 534.359,-55.3235 L 533.738,-54.7639 L 533.063,-54.3679
 L 464.376,-22.6806 L 463.584,-22.4115 L 462.753,-22.313 z
M 314.882,-20.1322 L 314.064,-20.3061 L 313.3,-20.6462 L 312.623,-21.1377 L 312.064,-21.7592 L 311.646,-22.4834
 L 311.387,-23.2787 L 311.3,-24.1103 L 311.3,-55.8897 L 311.328,-56.3609 L 311.513,-57.1765 L 311.863,-57.9358
 L 312.363,-58.6057 L 312.992,-59.1569 L 313.722,-59.5653 L 314.521,-59.813 L 315.353,-59.8893 L 316.184,-59.7908
 L 316.976,-59.5218 L 351.419,-43.6321 L 352.051,-43.2672 L 352.68,-42.716 L 353.18,-42.0461 L 353.531,-41.2868
 L 353.715,-40.4712 L 353.727,-39.6351 L 353.564,-38.8148 L 353.234,-38.0464 L 352.751,-37.3634 L 352.137,-36.7956
 L 351.419,-36.3679 L 316.976,-20.4782 L 316.536,-20.3061 L 315.718,-20.1322 z
M 435.816,-20.2092 L 435.024,-20.4782 L 400.581,-36.3679 L 399.949,-36.7328 L 399.32,-37.284 L 398.82,-37.9539
 L 398.469,-38.7132 L 398.285,-39.5288 L 398.273,-40.3649 L 398.436,-41.1852 L 398.766,-41.9536 L 399.249,-42.6366
 L 399.863,-43.2044 L 400.581,-43.6321 L 435.024,-59.5218 L 435.464,-59.6939 L 436.282,-59.8678 L 437.118,-59.8678
 L 437.936,-59.6939 L 438.7,-59.3538 L 439.377,-58.8623 L 439.936,-58.2408 L 440.354,-57.5166 L 440.613,-56.7213
 L 440.7,-55.8897 L 440.7,-24.1103 L 440.672,-23.6391 L 440.487,-22.8235 L 440.137,-22.0642 L 439.637,-21.3943
 L 439.008,-20.8431 L 438.278,-20.4347 L 437.479,-20.187 L 436.647,-20.1107 z
M 167.9,-18 L 166.664,-18.1958 L 165.9,-18.5359 L 165.223,-19.0274 L 164.664,-19.6489 L 164.246,-20.373
 L 163.987,-21.1684 L 163.9,-22 L 163.9,-53.6873 L 163.928,-54.1585 L 164.113,-54.9741 L 164.463,-55.7334
 L 164.963,-56.4033 L 165.592,-56.9545 L 166.322,-57.3629 L 167.121,-57.6107 L 167.953,-57.687 L 168.784,-57.5884
 L 169.576,-57.3194 L 238.262,-25.6321 L 238.938,-25.2361 L 239.559,-24.6765 L 240.051,-24 L 240.391,-23.2361
 L 240.565,-22.4181 L 240.565,-21.5819 L 240.391,-20.7639 L 240.051,-20 L 239.559,-19.3235 L 238.938,-18.7639
 L 238.214,-18.3458 L 237.419,-18.0874 L 236.587,-18 z
M 515.413,-18 L 514.581,-18.0874 L 513.786,-18.3458 L 513.062,-18.7639 L 512.441,-19.3235 L 511.949,-20
 L 511.609,-20.7639 L 511.435,-21.5819 L 511.435,-22.4181 L 511.609,-23.2361 L 511.949,-24 L 512.441,-24.6765
 L 513.062,-25.2361 L 513.737,-25.6321 L 582.424,-57.3194 L 583.216,-57.5884 L 584.047,-57.687 L 584.879,-57.6107
 L 585.678,-57.3629 L 586.408,-56.9545 L 587.037,-56.4033 L 587.537,-55.7334 L 587.887,-54.9741 L 588.072,-54.1585
 L 588.1,-53.6873 L 588.1,-22 L 588.013,-21.1684 L 587.754,-20.373 L 587.336,-19.6489 L 586.777,-19.0274
 L 586.1,-18.5359 L 585.336,-18.1958 L 584.1,-18 z
M 22,-18 L 20.7639,-18.1958 L 20,-18.5359 L 19.3235,-19.0274 L 18.7639,-19.6489 L 18.3458,-20.373
 L 18.0874,-21.1684 L 18,-22 L 18,-52.9953 L 18.0278,-53.4665 L 18.2126,-54.2821 L 18.5629,-55.0414
 L 19.0634,-55.7113 L 19.6923,-56.2625 L 20.422,-56.6709 L 21.2207,-56.9187 L 22.0534,-56.995 L 22.8838,-56.8965
 L 23.6756,-56.6274 L 90.8625,-25.6321 L 91.538,-25.2361 L 92.1595,-24.6765 L 92.651,-24 L 92.9911,-23.2361
 L 93.165,-22.4181 L 93.165,-21.5819 L 92.9911,-20.7639 L 92.651,-20 L 92.1595,-19.3235 L 91.538,-18.7639
 L 90.8138,-18.3458 L 90.0185,-18.0874 L 89.1869,-18 z
M 662.813,-18 L 661.981,-18.0874 L 661.186,-18.3458 L 660.462,-18.7639 L 659.841,-19.3235 L 659.349,-20
 L 659.009,-20.7639 L 658.835,-21.5819 L 658.835,-22.4181 L 659.009,-23.2361 L 659.349,-24 L 659.841,-24.6765
 L 660.462,-25.2361 L 661.137,-25.6321 L 728.324,-56.6274 L 729.116,-56.8965 L 729.947,-56.995 L 730.779,-56.9187
 L 731.578,-56.6709 L 732.308,-56.2625 L 732.937,-55.7113 L 733.437,-55.0414 L 733.787,-54.2821 L 733.972,-53.4665
 L 734,-52.9953 L 734,-22 L 733.913,-21.1684 L 733.654,-20.373 L 733.236,-19.6489 L 732.677,-19.0274
 L 732,-18.5359 L 731.236,-18.1958 L 730,-18 z
M 363.239,-18 L 362.46,-18.0766 L 361.661,-18.3244 L 360.931,-18.7328 L 360.303,-19.284 L 359.802,-19.9539
 L 359.452,-20.7132 L 359.267,-21.5288 L 359.256,-22.3649 L 359.419,-23.1852 L 359.749,-23.9536 L 360.231,-24.6366
 L 360.845,-25.2044 L 361.564,-25.6321 L 374.324,-31.5191 L 375.221,-31.8103 L 376.053,-31.8866 L 376.884,-31.7881
 L 377.676,-31.5191 L 390.436,-25.6321 L 391.112,-25.2361 L 391.733,-24.6765 L 392.225,-24 L 392.565,-23.2361
 L 392.739,-22.4181 L 392.739,-21.5819 L 392.565,-20.7639 L 392.225,-20 L 391.733,-19.3235 L 391.112,-18.7639
 L 390.388,-18.3458 L 389.592,-18.0874 L 388.761,-18 z
" stroke="black" fill="lightgray" stroke-width="0.5"/>
</svg>
