<?xml version="1.0" standalone="no"?>
<!DOCTYPE svg PUBLIC "-//W3C//DTD SVG 1.1//EN" "http://www.w3.org/Graphics/SVG/1.1/DTD/svg11.dtd">
<svg width="598mm" height="80mm" viewBox="0 -80 598 80" xmlns="http://www.w3.org/2000/svg" version="1.1">
<title>OpenSCAD Model</title>
<path d="
M 598,-80 L 0,-80 L 0,-0 L 4.95,-0 L 4.95,-6 L 5.00572,-6.53017
 L 5.17046,-7.03717 L 5.437,-7.49884 L 5.79372,-7.895 L 6.22499,-8.20836 L 6.71201,-8.42519 L 7.23344,-8.53603
 L 7.76654,-8.53603 L 8.28798,-8.42519 L 8.77499,-8.20836 L 9.20627,-7.895 L 9.56299,-7.49884 L 9.82953,-7.03717
 L 9.99426,-6.53017 L 10.05,-6 L 10.05,-0 L 150.7,-0 L 150.7,-6 L 150.756,-6.53017
 L 150.92,-7.03717 L 151.187,-7.49884 L 151.544,-7.895 L 151.975,-8.20836 L 152.462,-8.42519 L 152.983,-8.53603
 L 153.517,-8.53603 L 154.038,-8.42519 L 154.525,-8.20836 L 154.956,-7.895 L 155.313,-7.49884 L 155.58,-7.03717
 L 155.744,-6.53017 L 155.8,-6 L 155.8,-0 L 296.45,-0 L 296.45,-6 L 296.506,-6.53017
 L 296.67,-7.03717 L 296.937,-7.49884 L 297.294,-7.895 L 297.725,-8.20836 L 298.212,-8.42519 L 298.733,-8.53603
 L 299.267,-8.53603 L 299.788,-8.42519 L 300.275,-8.20836 L 300.706,-7.895 L 301.063,-7.49884 L 301.33,-7.03717
 L 301.494,-6.53017 L 301.55,-6 L 301.55,-0 L 442.2,-0 L 442.2,-6 L 442.256,-6.53017
 L 442.42,-7.03717 L 442.687,-7.49884 L 443.044,-7.895 L 443.475,-8.20836 L 443.962,-8.42519 L 444.483,-8.53603
 L 445.017,-8.53603 L 445.538,-8.42519 L 446.025,-8.20836 L 446.456,-7.895 L 446.813,-7.49884 L 447.08,-7.03717
 L 447.244,-6.53017 L 447.3,-6 L 447.3,-0 L 587.95,-0 L 587.95,-6 L 588.006,-6.53017
 L 588.17,-7.03717 L 588.437,-7.49884 L 588.794,-7.895 L 589.225,-8.20836 L 589.712,-8.42519 L 590.233,-8.53603
 L 590.767,-8.53603 L 591.288,-8.42519 L 591.775,-8.20836 L 592.206,-7.895 L 592.563,-7.49884 L 592.83,-7.03717
 L 592.994,-6.53017 L 593.05,-6 L 593.05,-0 L 598,-0 z
M 6.98573,-55.607 L 6.47708,-55.6875 L 5.97964,-55.8208 L 5.49887,-56.0054 L 5.04001,-56.2392 L 4.60811,-56.5196
 L 4.20789,-56.8437 L 3.84373,-57.2079 L 3.51964,-57.6081 L 3.23917,-58.04 L 3.00537,-58.4989 L 2.82082,-58.9796
 L 2.68752,-59.4771 L 2.60696,-59.9857 L 2.58,-60.5 L 2.60696,-61.0143 L 2.68752,-61.5229 L 2.82082,-62.0204
 L 3.00537,-62.5011 L 3.23917,-62.96 L 3.51964,-63.3919 L 3.84373,-63.7921 L 4.20789,-64.1563 L 4.60811,-64.4804
 L 4.95001,-64.7024 L 4.95001,-74 L 5.00574,-74.5302 L 5.17047,-75.0372 L 5.43701,-75.4988 L 5.79373,-75.895
 L 6.22501,-76.2084 L 6.71202,-76.4252 L 7.23346,-76.536 L 7.76654,-76.536 L 8.28798,-76.4252 L 8.77499,-76.2084
 L 9.20627,-75.895 L 9.56299,-75.4988 L 9.82953,-75.0372 L 9.99426,-74.5302 L 10.05,-74 L 10.05,-64.7024
 L 10.3919,-64.4804 L 10.7921,-64.1563 L 11.1563,-63.7921 L 11.4804,-63.3919 L 11.7608,-62.96 L 11.9946,-62.5011
 L 12.1792,-62.0204 L 12.3125,-61.5229 L 12.393,-61.0143 L 12.42,-60.5 L 12.393,-59.9857 L 12.3125,-59.4771
 L 12.1792,-58.9796 L 11.9946,-58.4989 L 11.7608,-58.04 L 11.4804,-57.6081 L 11.1563,-57.2079 L 10.7921,-56.8437
 L 10.3919,-56.5196 L 9.95999,-56.2392 L 9.50113,-56.0054 L 9.02036,-55.8208 L 8.52292,-55.6875 L 8.01427,-55.607
 L 7.5,-55.58 z
M 152.736,-55.607 L 152.227,-55.6875 L 151.73,-55.8208 L 151.249,-56.0054 L 150.79,-56.2392 L 150.358,-56.5196
 L 149.958,-56.8437 L 149.594,-57.2079 L 149.27,-57.6081 L 148.989,-58.04 L 148.755,-58.4989 L 148.571,-58.9796
 L 148.438,-59.4771 L 148.357,-59.9857 L 148.33,-60.5 L 148.357,-61.0143 L 148.438,-61.5229 L 148.571,-62.0204
 L 148.755,-62.5011 L 148.989,-62.96 L 149.27,-63.3919 L 149.594,-63.7921 L 149.958,-64.1563 L 150.358,-64.4804
 L 150.7,-64.7024 L 150.7,-74 L 150.756,-74.5302 L 150.92,-75.0372 L 151.187,-75.4988 L 151.544,-75.895
 L 151.975,-76.2084 L 152.462,-76.4252 L 152.983,-76.536 L 153.517,-76.536 L 154.038,-76.4252 L 154.525,-76.2084
 L 154.956,-75.895 L 155.313,-75.4988 L 155.58,-75.0372 L 155.744,-74.5302 L 155.8,-74 L 155.8,-64.7024
 L 156.142,-64.4804 L 156.542,-64.1563 L 156.906,-63.7921 L 157.23,-63.3919 L 157.511,-62.96 L 157.745,-62.5011
 L 157.929,-62.0204 L 158.062,-61.5229 L 158.143,-61.0143 L 158.17,-60.5 L 158.143,-59.9857 L 158.062,-59.4771
 L 157.929,-58.9796 L 157.745,-58.4989 L 157.511,-58.04 L 157.23,-57.6081 L 156.906,-57.2079 L 156.542,-56.8437
 L 156.142,-56.5196 L 155.71,-56.2392 L 155.251,-56.0054 L 154.77,-55.8208 L 154.273,-55.6875 L 153.764,-55.607
 L 153.25,-55.58 z
M 298.486,-55.607 L 297.977,-55.6875 L 297.48,-55.8208 L 296.999,-56.0054 L 296.54,-56.2392 L 296.108,-56.5196
 L 295.708,-56.8437 L 295.344,-57.2079 L 295.02,-57.6081 L 294.739,-58.04 L 294.505,-58.4989 L 294.321,-58.9796
 L 294.188,-59.4771 L 294.107,-59.9857 L 294.08,-60.5 L 294.107,-61.0143 L 294.188,-61.5229 L 294.321,-62.0204
 L 294.505,-62.5011 L 294.739,-62.96 L 295.02,-63.3919 L 295.344,-63.7921 L 295.708,-64.1563 L 296.108,-64.4804
 L 296.45,-64.7024 L 296.45,-74 L 296.506,-74.5302 L 296.67,-75.0372 L 296.937,-75.4988 L 297.294,-75.895
 L 297.725,-76.2084 L 298.212,-76.4252 L 298.733,-76.536 L 299.267,-76.536 L 299.788,-76.4252 L 300.275,-76.2084
 L 300.706,-75.895 L 301.063,-75.4988 L 301.33,-75.0372 L 301.494,-74.5302 L 301.55,-74 L 301.55,-64.7024
 L 301.892,-64.4804 L 302.292,-64.1563 L 302.656,-63.7921 L 302.98,-63.3919 L 303.261,-62.96 L 303.495,-62.5011
 L 303.679,-62.0204 L 303.812,-61.5229 L 303.893,-61.0143 L 303.92,-60.5 L 303.893,-59.9857 L 303.812,-59.4771
 L 303.679,-58.9796 L 303.495,-58.4989 L 303.261,-58.04 L 302.98,-57.6081 L 302.656,-57.2079 L 302.292,-56.8437
 L 301.892,-56.5196 L 301.46,-56.2392 L 301.001,-56.0054 L 300.52,-55.8208 L 300.023,-55.6875 L 299.514,-55.607
 L 299,-55.58 z
M 444.236,-55.607 L 443.727,-55.6875 L 443.23,-55.8208 L 442.749,-56.0054 L 442.29,-56.2392 L 441.858,-56.5196
 L 441.458,-56.8437 L 441.094,-57.2079 L 440.77,-57.6081 L 440.489,-58.04 L 440.255,-58.4989 L 440.071,-58.9796
 L 439.938,-59.4771 L 439.857,-59.9857 L 439.83,-60.5 L 439.857,-61.0143 L 439.938,-61.5229 L 440.071,-62.0204
 L 440.255,-62.5011 L 440.489,-62.96 L 440.77,-63.3919 L 441.094,-63.7921 L 441.458,-64.1563 L 441.858,-64.4804
 L 442.2,-64.7024 L 442.2,-74 L 442.256,-74.5302 L 442.42,-75.0372 L 442.687,-75.4988 L 443.044,-75.895
 L 443.475,-76.2084 L 443.962,-76.4252 L 444.483,-76.536 L 445.017,-76.536 L 445.538,-76.4252 L 446.025,-76.2084
 L 446.456,-75.895 L 446.813,-75.4988 L 447.08,-75.0372 L 447.244,-74.5302 L 447.3,-74 L 447.3,-64.7024
 L 447.642,-64.4804 L 448.042,-64.1563 L 448.406,-63.7921 L 448.73,-63.3919 L 449.011,-62.96 L 449.245,-62.5011
 L 449.429,-62.0204 L 449.562,-61.5229 L 449.643,-61.0143 L 449.67,-60.5 L 449.643,-59.9857 L 449.562,-59.4771
 L 449.429,-58.9796 L 449.245,-58.4989 L 449.011,-58.04 L 448.73,-57.6081 L 448.406,-57.2079 L 448.042,-56.8437
 L 447.642,-56.5196 L 447.21,-56.2392 L 446.751,-56.0054 L 446.27,-55.8208 L 445.773,-55.6875 L 445.264,-55.607
 L 444.75,-55.58 z
M 589.986,-55.607 L 589.477,-55.6875 L 588.98,-55.8208 L 588.499,-56.0054 L 588.04,-56.2392 L 587.608,-56.5196
 L 587.208,-56.8437 L 586.844,-57.2079 L 586.52,-57.6081 L 586.239,-58.04 L 586.005,-58.4989 L 585.821,-58.9796
 L 585.688,-59.4771 L 585.607,-59.9857 L 585.58,-60.5 L 585.607,-61.0143 L 585.688,-61.5229 L 585.821,-62.0204
 L 586.005,-62.5011 L 586.239,-62.96 L 586.52,-63.3919 L 586.844,-63.7921 L 587.208,-64.1563 L 587.608,-64.4804
 L 587.95,-64.7024 L 587.95,-74 L 588.006,-74.5302 L 588.17,-75.0372 L 588.437,-75.4988 L 588.794,-75.895
 L 589.225,-76.2084 L 589.712,-76.4252 L 590.233,-76.536 L 590.767,-76.536 L 591.288,-76.4252 L 591.775,-76.2084
 L 592.206,-75.895 L 592.563,-75.4988 L 592.83,-75.0372 L 592.994,-74.5302 L 593.05,-74 L 593.05,-64.7024
 L 593.392,-64.4804 L 593.792,-64.1563 L 594.156,-63.7921 L 594.48,-63.3919 L 594.761,-62.96 L 594.995,-62.5011
 L 595.179,-62.0204 L 595.312,-61.5229 L 595.393,-61.0143 L 595.42,-60.5 L 595.393,-59.9857 L 595.312,-59.4771
 L 595.179,-58.9796 L 594.995,-58.4989 L 594.761,-58.04 L 594.48,-57.6081 L 594.156,-57.2079 L 593.792,-56.8437
 L 593.392,-56.5196 L 592.96,-56.2392 L 592.501,-56.0054 L 592.02,-55.8208 L 591.523,-55.6875 L 591.014,-55.607
 L 590.5,-55.58 z
M 311.238,-22.4815 L 310.438,-22.7259 L 309.706,-23.1311 L 309.075,-23.6796 L 308.572,-24.3474 L 308.218,-25.1051
 L 308.03,-25.9199 L 308,-26.4082 L 308,-58 L 308.087,-58.8316 L 308.346,-59.627 L 308.764,-60.3511
 L 309.323,-60.9726 L 310,-61.4641 L 310.764,-61.8042 L 312,-62 L 379.713,-62 L 380.545,-61.9126
 L 381.34,-61.6542 L 382.064,-61.2361 L 382.686,-60.6765 L 383.177,-60 L 383.518,-59.2361 L 383.691,-58.4181
 L 383.691,-57.5819 L 383.518,-56.7639 L 383.177,-56 L 382.686,-55.3235 L 382.064,-54.7639 L 381.405,-54.3751
 L 313.691,-22.7833 L 312.901,-22.5109 L 312.071,-22.4088 z
M 285.099,-22.5109 L 284.309,-22.7833 L 216.595,-54.3751 L 215.936,-54.7639 L 215.314,-55.3235 L 214.823,-56
 L 214.482,-56.7639 L 214.309,-57.5819 L 214.309,-58.4181 L 214.482,-59.2361 L 214.823,-60 L 215.314,-60.6765
 L 215.936,-61.2361 L 216.66,-61.6542 L 217.455,-61.9126 L 218.287,-62 L 286,-62 L 287.236,-61.8042
 L 288,-61.4641 L 288.677,-60.9726 L 289.236,-60.3511 L 289.654,-59.627 L 289.913,-58.8316 L 290,-58
 L 290,-26.4082 L 289.97,-25.9199 L 289.782,-25.1051 L 289.428,-24.3474 L 288.925,-23.6796 L 288.294,-23.1311
 L 287.562,-22.7259 L 286.762,-22.4815 L 285.929,-22.4088 z
M 456.988,-22.4815 L 456.188,-22.7259 L 455.456,-23.1311 L 454.825,-23.6796 L 454.322,-24.3474 L 453.968,-25.1051
 L 453.78,-25.9199 L 453.75,-26.4082 L 453.75,-58 L 453.837,-58.8316 L 454.096,-59.627 L 454.514,-60.3511
 L 455.073,-60.9726 L 455.75,-61.4641 L 456.514,-61.8042 L 457.75,-62 L 525.463,-62 L 526.295,-61.9126
 L 527.09,-61.6542 L 527.814,-61.2361 L 528.436,-60.6765 L 528.927,-60 L 529.268,-59.2361 L 529.441,-58.4181
 L 529.441,-57.5819 L 529.268,-56.7639 L 528.927,-56 L 528.436,-55.3235 L 527.814,-54.7639 L 527.155,-54.3751
 L 459.441,-22.7833 L 458.651,-22.5109 L 457.821,-22.4088 z
M 139.349,-22.5109 L 138.559,-22.7833 L 70.8455,-54.3751 L 70.1855,-54.7639 L 69.5641,-55.3235 L 69.0726,-56
 L 68.7324,-56.7639 L 68.5586,-57.5819 L 68.5586,-58.4181 L 68.7324,-59.2361 L 69.0726,-60 L 69.5641,-60.6765
 L 70.1855,-61.2361 L 70.9097,-61.6542 L 71.705,-61.9126 L 72.5367,-62 L 140.25,-62 L 141.486,-61.8042
 L 142.25,-61.4641 L 142.927,-60.9726 L 143.486,-60.3511 L 143.904,-59.627 L 144.163,-58.8316 L 144.25,-58
 L 144.25,-26.4082 L 144.22,-25.9199 L 144.032,-25.1051 L 143.678,-24.3474 L 143.175,-23.6796 L 142.544,-23.1311
 L 141.812,-22.7259 L 141.012,-22.4815 L 140.179,-22.4088 z
M 364.037,-18 L 363.205,-18.0874 L 362.41,-18.3458 L 361.686,-18.7639 L 361.064,-19.3235 L 360.573,-20
 L 360.232,-20.7639 L 360.059,-21.5819 L 360.059,-22.4181 L 360.232,-23.2361 L 360.573,-24 L 361.064,-24.6765
 L 361.686,-25.2361 L 362.345,-25.6249 L 430.059,-57.2167 L 430.849,-57.4891 L 431.679,-57.5912 L 432.512,-57.5185
 L 433.312,-57.2741 L 434.044,-56.8689 L 434.675,-56.3204 L 435.178,-55.6526 L 435.532,-54.8948 L 435.72,-54.0801
 L 435.75,-53.5918 L 435.75,-22 L 435.663,-21.1684 L 435.404,-20.373 L 434.986,-19.6489 L 434.427,-19.0274
 L 433.75,-18.5359 L 432.986,-18.1958 L 431.75,-18 z
M 166.25,-18 L 165.014,-18.1958 L 164.25,-18.5359 L 163.573,-19.0274 L 163.014,-19.6489 L 162.596,-20.373
 L 162.337,-21.1684 L 162.25,-22 L 162.25,-53.5918 L 162.28,-54.0801 L 162.468,-54.8948 L 162.822,-55.6526
 L 163.325,-56.3204 L 163.956,-56.8689 L 164.688,-57.2741 L 165.488,-57.5185 L 166.321,-57.5912 L 167.151,-57.4891
 L 167.941,-57.2167 L 235.655,-25.6249 L 236.314,-25.2361 L 236.936,-24.6765 L 237.427,-24 L 237.768,-23.2361
 L 237.941,-22.4181 L 237.941,-21.5819 L 237.768,-20.7639 L 237.427,-20 L 236.936,-19.3235 L 236.314,-18.7639
 L 235.59,-18.3458 L 234.795,-18.0874 L 233.963,-18 z
M 22,-18 L 20.7639,-18.1958 L 20,-18.5359 L 19.3235,-19.0274 L 18.7639,-19.6489 L 18.3458,-20.373
 L 18.0874,-21.1684 L 18,-22 L 18,-52.892 L 18.0299,-53.3802 L 18.2182,-54.195 L 18.5717,-54.9528
 L 19.0751,-55.6205 L 19.7064,-56.169 L 20.4378,-56.5743 L 21.2375,-56.8186 L 22.0706,-56.8913 L 22.9006,-56.7893
 L 23.6912,-56.5169 L 89.9045,-25.6249 L 90.5644,-25.2361 L 91.1859,-24.6765 L 91.6774,-24 L 92.0175,-23.2361
 L 92.1914,-22.4181 L 92.1914,-21.5819 L 92.0175,-20.7639 L 91.6774,-20 L 91.1859,-19.3235 L 90.5644,-18.7639
 L 89.8403,-18.3458 L 89.045,-18.0874 L 88.2133,-18 z
M 509.787,-18 L 508.955,-18.0874 L 508.16,-18.3458 L 507.436,-18.7639 L 506.814,-19.3235 L 506.323,-20
 L 505.982,-20.7639 L 505.809,-21.5819 L 505.809,-22.4181 L 505.982,-23.2361 L 506.323,-24 L 506.814,-24.6765
 L 507.436,-25.2361 L 508.095,-25.6249 L 574.309,-56.5169 L 575.099,-56.7893 L 575.929,-56.8913 L 576.762,-56.8186
 L 577.562,-56.5743 L 578.294,-56.169 L 578.925,-55.6205 L 579.428,-54.9528 L 579.782,-54.195 L 579.97,-53.3802
 L 580,-52.892 L 580,-22 L 579.913,-21.1684 L 579.654,-20.373 L 579.236,-19.6489 L 578.677,-19.0274
 L 578,-18.5359 L 577.236,-18.1958 L 576,-18 z
" stroke="black" fill="lightgray" stroke-width="0.5"/>
</svg>
