<?xml version="1.0" standalone="no"?>
<!DOCTYPE svg PUBLIC "-//W3C//DTD SVG 1.1//EN" "http://www.w3.org/Graphics/SVG/1.1/DTD/svg11.dtd">
<svg width="726mm" height="80mm" viewBox="0 -80 726 80" xmlns="http://www.w3.org/2000/svg" version="1.1">
<title>OpenSCAD Model</title>
<path d="
M 726,-80 L 0,-80 L 0,-0 L 4.95,-0 L 4.95,-6 L 5.00572,-6.53017
 L 5.17046,-7.03717 L 5.437,-7.49884 L 5.79372,-7.895 L 6.22499,-8.20836 L 6.71201,-8.42519 L 7.23344,-8.53603
 L 7.76654,-8.53603 L 8.28798,-8.42519 L 8.77499,-8.20836 L 9.20627,-7.895 L 9.56299,-7.49884 L 9.82953,-7.03717
 L 9.99426,-6.53017 L 10.05,-6 L 10.05,-0 L 147.15,-0 L 147.15,-6 L 147.206,-6.53017
 L 147.37,-7.03717 L 147.637,-7.49884 L 147.994,-7.895 L 148.425,-8.20836 L 148.912,-8.42519 L 149.433,-8.53603
 L 149.967,-8.53603 L 150.488,-8.42519 L 150.975,-8.20836 L 151.406,-7.895 L 151.763,-7.49884 L 152.03,-7.03717
 L 152.194,-6.53017 L 152.25,-6 L 152.25,-0 L 289.35,-0 L 289.35,-6 L 289.406,-6.53017
 L 289.57,-7.03717 L 289.837,-7.49884 L 290.194,-7.895 L 290.625,-8.20836 L 291.112,-8.42519 L 291.633,-8.53603
 L 292.167,-8.53603 L 292.688,-8.42519 L 293.175,-8.20836 L 293.606,-7.895 L 293.963,-7.49884 L 294.23,-7.03717
 L 294.394,-6.53017 L 294.45,-6 L 294.45,-0 L 431.55,-0 L 431.55,-6 L 431.606,-6.53017
 L 431.77,-7.03717 L 432.037,-7.49884 L 432.394,-7.895 L 432.825,-8.20836 L 433.312,-8.42519 L 433.833,-8.53603
 L 434.367,-8.53603 L 434.888,-8.42519 L 435.375,-8.20836 L 435.806,-7.895 L 436.163,-7.49884 L 436.43,-7.03717
 L 436.594,-6.53017 L 436.65,-6 L 436.65,-0 L 573.75,-0 L 573.75,-6 L 573.806,-6.53017
 L 573.97,-7.03717 L 574.237,-7.49884 L 574.594,-7.895 L 575.025,-8.20836 L 575.512,-8.42519 L 576.033,-8.53603
 L 576.567,-8.53603 L 577.088,-8.42519 L 577.575,-8.20836 L 578.006,-7.895 L 578.363,-7.49884 L 578.63,-7.03717
 L 578.794,-6.53017 L 578.85,-6 L 578.85,-0 L 715.95,-0 L 715.95,-6 L 716.006,-6.53017
 L 716.17,-7.03717 L 716.437,-7.49884 L 716.794,-7.895 L 717.225,-8.20836 L 717.712,-8.42519 L 718.233,-8.53603
 L 718.767,-8.53603 L 719.288,-8.42519 L 719.775,-8.20836 L 720.206,-7.895 L 720.563,-7.49884 L 720.83,-7.03717
 L 720.994,-6.53017 L 721.05,-6 L 721.05,-0 L 726,-0 z
M 6.98573,-55.607 L 6.47708,-55.6875 L 5.97964,-55.8208 L 5.49887,-56.0054 L 5.04001,-56.2392 L 4.60811,-56.5196
 L 4.20789,-56.8437 L 3.84373,-57.2079 L 3.51964,-57.6081 L 3.23917,-58.04 L 3.00537,-58.4989 L 2.82082,-58.9796
 L 2.68752,-59.4771 L 2.60696,-59.9857 L 2.58,-60.5 L 2.60696,-61.0143 L 2.68752,-61.5229 L 2.82082,-62.0204
 L 3.00537,-62.5011 L 3.23917,-62.96 L 3.51964,-63.3919 L 3.84373,-63.7921 L 4.20789,-64.1563 L 4.60811,-64.4804
 L 4.95001,-64.7024 L 4.95001,-74 L 5.00574,-74.5302 L 5.17047,-75.0372 L 5.43701,-75.4988 L 5.79373,-75.895
 L 6.22501,-76.2084 L 6.71202,-76.4252 L 7.23346,-76.536 L 7.76654,-76.536 L 8.28798,-76.4252 L 8.77499,-76.2084
 L 9.20627,-75.895 L 9.56299,-75.4988 L 9.82953,-75.0372 L 9.99426,-74.5302 L 10.05,-74 L 10.05,-64.7024
 L 10.3919,-64.4804 L 10.7921,-64.1563 L 11.1563,-63.7921 L 11.4804,-63.3919 L 11.7608,-62.96 L 11.9946,-62.5011
 L 12.1792,-62.0204 L 12.3125,-61.5229 L 12.393,-61.0143 L 12.42,-60.5 L 12.393,-59.9857 L 12.3125,-59.4771
 L 12.1792,-58.9796 L 11.9946,-58.4989 L 11.7608,-58.04 L 11.4804,-57.6081 L 11.1563,-57.2079 L 10.7921,-56.8437
 L 10.3919,-56.5196 L 9.95999,-56.2392 L 9.50113,-56.0054 L 9.02036,-55.8208 L 8.52292,-55.6875 L 8.01427,-55.607
 L 7.5,-55.58 z
M 149.186,-55.607 L 148.677,-55.6875 L 148.18,-55.8208 L 147.699,-56.0054 L 147.24,-56.2392 L 146.808,-56.5196
 L 146.408,-56.8437 L 146.044,-57.2079 L 145.72,-57.6081 L 145.439,-58.04 L 145.205,-58.4989 L 145.021,-58.9796
 L 144.888,-59.4771 L 144.807,-59.9857 L 144.78,-60.5 L 144.807,-61.0143 L 144.888,-61.5229 L 145.021,-62.0204
 L 145.205,-62.5011 L 145.439,-62.96 L 145.72,-63.3919 L 146.044,-63.7921 L 146.408,-64.1563 L 146.808,-64.4804
 L 147.15,-64.7024 L 147.15,-74 L 147.206,-74.5302 L 147.37,-75.0372 L 147.637,-75.4988 L 147.994,-75.895
 L 148.425,-76.2084 L 148.912,-76.4252 L 149.433,-76.536 L 149.967,-76.536 L 150.488,-76.4252 L 150.975,-76.2084
 L 151.406,-75.895 L 151.763,-75.4988 L 152.03,-75.0372 L 152.194,-74.5302 L 152.25,-74 L 152.25,-64.7024
 L 152.592,-64.4804 L 152.992,-64.1563 L 153.356,-63.7921 L 153.68,-63.3919 L 153.961,-62.96 L 154.195,-62.5011
 L 154.379,-62.0204 L 154.512,-61.5229 L 154.593,-61.0143 L 154.62,-60.5 L 154.593,-59.9857 L 154.512,-59.4771
 L 154.379,-58.9796 L 154.195,-58.4989 L 153.961,-58.04 L 153.68,-57.6081 L 153.356,-57.2079 L 152.992,-56.8437
 L 152.592,-56.5196 L 152.16,-56.2392 L 151.701,-56.0054 L 151.22,-55.8208 L 150.723,-55.6875 L 150.214,-55.607
 L 149.7,-55.58 z
M 291.386,-55.607 L 290.877,-55.6875 L 290.38,-55.8208 L 289.899,-56.0054 L 289.44,-56.2392 L 289.008,-56.5196
 L 288.608,-56.8437 L 288.244,-57.2079 L 287.92,-57.6081 L 287.639,-58.04 L 287.405,-58.4989 L 287.221,-58.9796
 L 287.088,-59.4771 L 287.007,-59.9857 L 286.98,-60.5 L 287.007,-61.0143 L 287.088,-61.5229 L 287.221,-62.0204
 L 287.405,-62.5011 L 287.639,-62.96 L 287.92,-63.3919 L 288.244,-63.7921 L 288.608,-64.1563 L 289.008,-64.4804
 L 289.35,-64.7024 L 289.35,-74 L 289.406,-74.5302 L 289.57,-75.0372 L 289.837,-75.4988 L 290.194,-75.895
 L 290.625,-76.2084 L 291.112,-76.4252 L 291.633,-76.536 L 292.167,-76.536 L 292.688,-76.4252 L 293.175,-76.2084
 L 293.606,-75.895 L 293.963,-75.4988 L 294.23,-75.0372 L 294.394,-74.5302 L 294.45,-74 L 294.45,-64.7024
 L 294.792,-64.4804 L 295.192,-64.1563 L 295.556,-63.7921 L 295.88,-63.3919 L 296.161,-62.96 L 296.395,-62.5011
 L 296.579,-62.0204 L 296.712,-61.5229 L 296.793,-61.0143 L 296.82,-60.5 L 296.793,-59.9857 L 296.712,-59.4771
 L 296.579,-58.9796 L 296.395,-58.4989 L 296.161,-58.04 L 295.88,-57.6081 L 295.556,-57.2079 L 295.192,-56.8437
 L 294.792,-56.5196 L 294.36,-56.2392 L 293.901,-56.0054 L 293.42,-55.8208 L 292.923,-55.6875 L 292.414,-55.607
 L 291.9,-55.58 z
M 433.586,-55.607 L 433.077,-55.6875 L 432.58,-55.8208 L 432.099,-56.0054 L 431.64,-56.2392 L 431.208,-56.5196
 L 430.808,-56.8437 L 430.444,-57.2079 L 430.12,-57.6081 L 429.839,-58.04 L 429.605,-58.4989 L 429.421,-58.9796
 L 429.288,-59.4771 L 429.207,-59.9857 L 429.18,-60.5 L 429.207,-61.0143 L 429.288,-61.5229 L 429.421,-62.0204
 L 429.605,-62.5011 L 429.839,-62.96 L 430.12,-63.3919 L 430.444,-63.7921 L 430.808,-64.1563 L 431.208,-64.4804
 L 431.55,-64.7024 L 431.55,-74 L 431.606,-74.5302 L 431.77,-75.0372 L 432.037,-75.4988 L 432.394,-75.895
 L 432.825,-76.2084 L 433.312,-76.4252 L 433.833,-76.536 L 434.367,-76.536 L 434.888,-76.4252 L 435.375,-76.2084
 L 435.806,-75.895 L 436.163,-75.4988 L 436.43,-75.0372 L 436.594,-74.5302 L 436.65,-74 L 436.65,-64.7024
 L 436.992,-64.4804 L 437.392,-64.1563 L 437.756,-63.7921 L 438.08,-63.3919 L 438.361,-62.96 L 438.595,-62.5011
 L 438.779,-62.0204 L 438.912,-61.5229 L 438.993,-61.0143 L 439.02,-60.5 L 438.993,-59.9857 L 438.912,-59.4771
 L 438.779,-58.9796 L 438.595,-58.4989 L 438.361,-58.04 L 438.08,-57.6081 L 437.756,-57.2079 L 437.392,-56.8437
 L 436.992,-56.5196 L 436.56,-56.2392 L 436.101,-56.0054 L 435.62,-55.8208 L 435.123,-55.6875 L 434.614,-55.607
 L 434.1,-55.58 z
M 575.786,-55.607 L 575.277,-55.6875 L 574.78,-55.8208 L 574.299,-56.0054 L 573.84,-56.2392 L 573.408,-56.5196
 L 573.008,-56.8437 L 572.644,-57.2079 L 572.32,-57.6081 L 572.039,-58.04 L 571.805,-58.4989 L 571.621,-58.9796
 L 571.488,-59.4771 L 571.407,-59.9857 L 571.38,-60.5 L 571.407,-61.0143 L 571.488,-61.5229 L 571.621,-62.0204
 L 571.805,-62.5011 L 572.039,-62.96 L 572.32,-63.3919 L 572.644,-63.7921 L 573.008,-64.1563 L 573.408,-64.4804
 L 573.75,-64.7024 L 573.75,-74 L 573.806,-74.5302 L 573.97,-75.0372 L 574.237,-75.4988 L 574.594,-75.895
 L 575.025,-76.2084 L 575.512,-76.4252 L 576.033,-76.536 L 576.567,-76.536 L 577.088,-76.4252 L 577.575,-76.2084
 L 578.006,-75.895 L 578.363,-75.4988 L 578.63,-75.0372 L 578.794,-74.5302 L 578.85,-74 L 578.85,-64.7024
 L 579.192,-64.4804 L 579.592,-64.1563 L 579.956,-63.7921 L 580.28,-63.3919 L 580.561,-62.96 L 580.795,-62.5011
 L 580.979,-62.0204 L 581.112,-61.5229 L 581.193,-61.0143 L 581.22,-60.5 L 581.193,-59.9857 L 581.112,-59.4771
 L 580.979,-58.9796 L 580.795,-58.4989 L 580.561,-58.04 L 580.28,-57.6081 L 579.956,-57.2079 L 579.592,-56.8437
 L 579.192,-56.5196 L 578.76,-56.2392 L 578.301,-56.0054 L 577.82,-55.8208 L 577.323,-55.6875 L 576.814,-55.607
 L 576.3,-55.58 z
M 717.986,-55.607 L 717.477,-55.6875 L 716.98,-55.8208 L 716.499,-56.0054 L 716.04,-56.2392 L 715.608,-56.5196
 L 715.208,-56.8437 L 714.844,-57.2079 L 714.52,-57.6081 L 714.239,-58.04 L 714.005,-58.4989 L 713.821,-58.9796
 L 713.688,-59.4771 L 713.607,-59.9857 L 713.58,-60.5 L 713.607,-61.0143 L 713.688,-61.5229 L 713.821,-62.0204
 L 714.005,-62.5011 L 714.239,-62.96 L 714.52,-63.3919 L 714.844,-63.7921 L 715.208,-64.1563 L 715.608,-64.4804
 L 715.95,-64.7024 L 715.95,-74 L 716.006,-74.5302 L 716.17,-75.0372 L 716.437,-75.4988 L 716.794,-75.895
 L 717.225,-76.2084 L 717.712,-76.4252 L 718.233,-76.536 L 718.767,-76.536 L 719.288,-76.4252 L 719.775,-76.2084
 L 720.206,-75.895 L 720.563,-75.4988 L 720.83,-75.0372 L 720.994,-74.5302 L 721.05,-74 L 721.05,-64.7024
 L 721.392,-64.4804 L 721.792,-64.1563 L 722.156,-63.7921 L 722.48,-63.3919 L 722.761,-62.96 L 722.995,-62.5011
 L 723.179,-62.0204 L 723.312,-61.5229 L 723.393,-61.0143 L 723.42,-60.5 L 723.393,-59.9857 L 723.312,-59.4771
 L 723.179,-58.9796 L 722.995,-58.4989 L 722.761,-58.04 L 722.48,-57.6081 L 722.156,-57.2079 L 721.792,-56.8437
 L 721.392,-56.5196 L 720.96,-56.2392 L 720.501,-56.0054 L 720.02,-55.8208 L 719.523,-55.6875 L 719.014,-55.607
 L 718.5,-55.58 z
M 362.062,-48.3 L 361.274,-48.5799 L 349.121,-54.3914 L 348.496,-54.7639 L 347.875,-55.3235 L 347.383,-56
 L 347.043,-56.7639 L 346.869,-57.5819 L 346.869,-58.4181 L 347.043,-59.2361 L 347.383,-60 L 347.875,-60.6765
 L 348.496,-61.2361 L 349.22,-61.6542 L 350.015,-61.9126 L 350.847,-62 L 375.153,-62 L 375.878,-61.9337
 L 376.68,-61.697 L 377.415,-61.2988 L 378.052,-60.7563 L 378.561,-60.0934 L 378.922,-59.339 L 379.118,-58.5261
 L 379.141,-57.6901 L 378.989,-56.8678 L 378.67,-56.0949 L 378.197,-55.4052 L 377.591,-54.829 L 376.878,-54.3914
 L 364.726,-48.5799 L 363.725,-48.2548 L 362.891,-48.19 z
M 277.962,-22.7327 L 277.174,-23.0126 L 211.556,-54.3914 L 210.93,-54.7639 L 210.309,-55.3235 L 209.817,-56
 L 209.477,-56.7639 L 209.303,-57.5819 L 209.303,-58.4181 L 209.477,-59.2361 L 209.817,-60 L 210.309,-60.6765
 L 210.93,-61.2361 L 211.654,-61.6542 L 212.45,-61.9126 L 213.281,-62 L 278.9,-62 L 280.136,-61.8042
 L 280.9,-61.4641 L 281.577,-60.9726 L 282.136,-60.3511 L 282.554,-59.627 L 282.813,-58.8316 L 282.9,-58
 L 282.9,-26.6212 L 282.865,-26.0951 L 282.669,-25.2822 L 282.308,-24.5278 L 281.799,-23.8649 L 281.162,-23.3224
 L 280.427,-22.9242 L 279.625,-22.6875 L 278.791,-22.6227 z
M 588.575,-22.6875 L 587.773,-22.9242 L 587.038,-23.3224 L 586.401,-23.8649 L 585.892,-24.5278 L 585.531,-25.2822
 L 585.335,-26.0951 L 585.3,-26.6212 L 585.3,-58 L 585.387,-58.8316 L 585.646,-59.627 L 586.064,-60.3511
 L 586.623,-60.9726 L 587.3,-61.4641 L 588.064,-61.8042 L 589.3,-62 L 654.919,-62 L 655.75,-61.9126
 L 656.546,-61.6542 L 657.27,-61.2361 L 657.891,-60.6765 L 658.383,-60 L 658.723,-59.2361 L 658.897,-58.4181
 L 658.897,-57.5819 L 658.723,-56.7639 L 658.383,-56 L 657.891,-55.3235 L 657.27,-54.7639 L 656.644,-54.3914
 L 591.026,-23.0126 L 590.238,-22.7327 L 589.409,-22.6227 z
M 135.762,-22.7327 L 134.974,-23.0126 L 69.3557,-54.3914 L 68.7302,-54.7639 L 68.1088,-55.3235 L 67.6173,-56
 L 67.2771,-56.7639 L 67.1033,-57.5819 L 67.1033,-58.4181 L 67.2771,-59.2361 L 67.6173,-60 L 68.1088,-60.6765
 L 68.7302,-61.2361 L 69.4544,-61.6542 L 70.2497,-61.9126 L 71.0814,-62 L 136.7,-62 L 137.936,-61.8042
 L 138.7,-61.4641 L 139.377,-60.9726 L 139.936,-60.3511 L 140.354,-59.627 L 140.613,-58.8316 L 140.7,-58
 L 140.7,-26.6212 L 140.665,-26.0951 L 140.469,-25.2822 L 140.108,-24.5278 L 139.599,-23.8649 L 138.962,-23.3224
 L 138.227,-22.9242 L 137.425,-22.6875 L 136.591,-22.6227 z
M 446.375,-22.6875 L 445.573,-22.9242 L 444.838,-23.3224 L 444.201,-23.8649 L 443.692,-24.5278 L 443.331,-25.2822
 L 443.135,-26.0951 L 443.1,-26.6212 L 443.1,-58 L 443.187,-58.8316 L 443.446,-59.627 L 443.864,-60.3511
 L 444.423,-60.9726 L 445.1,-61.4641 L 445.864,-61.8042 L 447.1,-62 L 512.719,-62 L 513.55,-61.9126
 L 514.346,-61.6542 L 515.07,-61.2361 L 515.691,-60.6765 L 516.183,-60 L 516.523,-59.2361 L 516.697,-58.4181
 L 516.697,-57.5819 L 516.523,-56.7639 L 516.183,-56 L 515.691,-55.3235 L 515.07,-54.7639 L 514.444,-54.3914
 L 448.826,-23.0126 L 448.038,-22.7327 L 447.209,-22.6227 z
M 304.482,-20.427 L 303.664,-20.6009 L 302.9,-20.941 L 302.223,-21.4325 L 301.664,-22.054 L 301.246,-22.7782
 L 300.987,-23.5735 L 300.9,-24.4051 L 300.9,-55.5949 L 300.935,-56.1209 L 301.131,-56.9339 L 301.492,-57.6883
 L 302.001,-58.3512 L 302.638,-58.8936 L 303.373,-59.2919 L 304.175,-59.5286 L 305.009,-59.5934 L 305.838,-59.4834
 L 306.626,-59.2035 L 339.237,-43.6086 L 339.774,-43.2988 L 340.41,-42.7563 L 340.92,-42.0934 L 341.281,-41.339
 L 341.477,-40.5261 L 341.5,-39.6901 L 341.348,-38.8678 L 341.029,-38.0949 L 340.556,-37.4052 L 339.95,-36.829
 L 339.237,-36.3914 L 306.626,-20.7965 L 306.136,-20.6009 L 305.318,-20.427 z
M 420.162,-20.5166 L 419.374,-20.7965 L 386.763,-36.3914 L 386.226,-36.7012 L 385.59,-37.2437 L 385.08,-37.9066
 L 384.719,-38.661 L 384.523,-39.4739 L 384.5,-40.3099 L 384.652,-41.1322 L 384.971,-41.9051 L 385.444,-42.5948
 L 386.05,-43.171 L 386.763,-43.6086 L 419.374,-59.2035 L 419.864,-59.3991 L 420.682,-59.573 L 421.518,-59.573
 L 422.336,-59.3991 L 423.1,-59.059 L 423.777,-58.5675 L 424.336,-57.946 L 424.754,-57.2218 L 425.013,-56.4265
 L 425.1,-55.5949 L 425.1,-24.4051 L 425.065,-23.879 L 424.869,-23.0661 L 424.508,-22.3117 L 423.999,-21.6488
 L 423.362,-21.1063 L 422.627,-20.7081 L 421.825,-20.4714 L 420.991,-20.4066 z
M 162.7,-18 L 161.464,-18.1958 L 160.7,-18.5359 L 160.023,-19.0274 L 159.464,-19.6489 L 159.046,-20.373
 L 158.787,-21.1684 L 158.7,-22 L 158.7,-53.3788 L 158.735,-53.9049 L 158.931,-54.7178 L 159.292,-55.4722
 L 159.801,-56.1351 L 160.438,-56.6776 L 161.173,-57.0758 L 161.975,-57.3125 L 162.809,-57.3773 L 163.638,-57.2673
 L 164.426,-56.9874 L 230.044,-25.6086 L 230.67,-25.2361 L 231.291,-24.6765 L 231.783,-24 L 232.123,-23.2361
 L 232.297,-22.4181 L 232.297,-21.5819 L 232.123,-20.7639 L 231.783,-20 L 231.291,-19.3235 L 230.67,-18.7639
 L 229.946,-18.3458 L 229.15,-18.0874 L 228.319,-18 z
M 497.681,-18 L 496.85,-18.0874 L 496.054,-18.3458 L 495.33,-18.7639 L 494.709,-19.3235 L 494.217,-20
 L 493.877,-20.7639 L 493.703,-21.5819 L 493.703,-22.4181 L 493.877,-23.2361 L 494.217,-24 L 494.709,-24.6765
 L 495.33,-25.2361 L 495.956,-25.6086 L 561.574,-56.9874 L 562.362,-57.2673 L 563.191,-57.3773 L 564.025,-57.3125
 L 564.827,-57.0758 L 565.562,-56.6776 L 566.199,-56.1351 L 566.708,-55.4722 L 567.069,-54.7178 L 567.265,-53.9049
 L 567.3,-53.3788 L 567.3,-22 L 567.213,-21.1684 L 566.954,-20.373 L 566.536,-19.6489 L 565.977,-19.0274
 L 565.3,-18.5359 L 564.536,-18.1958 L 563.3,-18 z
M 22,-18 L 20.7639,-18.1958 L 20,-18.5359 L 19.3235,-19.0274 L 18.7639,-19.6489 L 18.3458,-20.373
 L 18.0874,-21.1684 L 18,-22 L 18,-52.6615 L 18.0347,-53.1876 L 18.2308,-54.0005 L 18.5915,-54.7549
 L 19.1012,-55.4178 L 19.7377,-55.9603 L 20.4729,-56.3585 L 21.275,-56.5952 L 22.1087,-56.66 L 22.9377,-56.55
 L 23.7256,-56.2701 L 87.8443,-25.6086 L 88.4697,-25.2361 L 89.0912,-24.6765 L 89.5827,-24 L 89.9228,-23.2361
 L 90.0967,-22.4181 L 90.0967,-21.5819 L 89.9228,-20.7639 L 89.5827,-20 L 89.0912,-19.3235 L 88.4697,-18.7639
 L 87.7456,-18.3458 L 86.9503,-18.0874 L 86.1186,-18 z
M 639.881,-18 L 639.05,-18.0874 L 638.254,-18.3458 L 637.53,-18.7639 L 636.909,-19.3235 L 636.417,-20
 L 636.077,-20.7639 L 635.903,-21.5819 L 635.903,-22.4181 L 636.077,-23.2361 L 636.417,-24 L 636.909,-24.6765
 L 637.53,-25.2361 L 638.156,-25.6086 L 702.274,-56.2701 L 703.062,-56.55 L 703.891,-56.66 L 704.725,-56.5952
 L 705.527,-56.3585 L 706.262,-55.9603 L 706.899,-55.4178 L 707.408,-54.7549 L 707.769,-54.0005 L 707.965,-53.1876
 L 708,-52.6615 L 708,-22 L 707.913,-21.1684 L 707.654,-20.373 L 707.236,-19.6489 L 706.677,-19.0274
 L 706,-18.5359 L 705.236,-18.1958 L 704,-18 z
M 350.847,-18 L 350.122,-18.0663 L 349.32,-18.303 L 348.585,-18.7012 L 347.948,-19.2437 L 347.439,-19.9066
 L 347.078,-20.661 L 346.882,-21.4739 L 346.859,-22.3099 L 347.011,-23.1322 L 347.33,-23.9051 L 347.803,-24.5948
 L 348.409,-25.171 L 349.121,-25.6086 L 361.274,-31.4201 L 362.275,-31.7452 L 363.109,-31.81 L 363.938,-31.7
 L 364.726,-31.4201 L 376.878,-25.6086 L 377.504,-25.2361 L 378.125,-24.6765 L 378.617,-24 L 378.957,-23.2361
 L 379.131,-22.4181 L 379.131,-21.5819 L 378.957,-20.7639 L 378.617,-20 L 378.125,-19.3235 L 377.504,-18.7639
 L 376.78,-18.3458 L 375.984,-18.0874 L 375.153,-18 z
" stroke="black" fill="lightgray" stroke-width="0.5"/>
</svg>
