<?xml version="1.0" standalone="no"?>
<!DOCTYPE svg PUBLIC "-//W3C//DTD SVG 1.1//EN" "http://www.w3.org/Graphics/SVG/1.1/DTD/svg11.dtd">
<svg width="858mm" height="80mm" viewBox="0 -80 858 80" xmlns="http://www.w3.org/2000/svg" version="1.1">
<title>OpenSCAD Model</title>
<path d="
M 858,-80 L 0,-80 L 0,-0 L 4.95,-0 L 4.95,-6 L 5.00572,-6.53017
 L 5.17046,-7.03717 L 5.437,-7.49884 L 5.79372,-7.895 L 6.22499,-8.20836 L 6.71201,-8.42519 L 7.23344,-8.53603
 L 7.76654,-8.53603 L 8.28798,-8.42519 L 8.77499,-8.20836 L 9.20627,-7.895 L 9.56299,-7.49884 L 9.82953,-7.03717
 L 9.99426,-6.53017 L 10.05,-6 L 10.05,-0 L 173.55,-0 L 173.55,-6 L 173.606,-6.53017
 L 173.77,-7.03717 L 174.037,-7.49884 L 174.394,-7.895 L 174.825,-8.20836 L 175.312,-8.42519 L 175.833,-8.53603
 L 176.367,-8.53603 L 176.888,-8.42519 L 177.375,-8.20836 L 177.806,-7.895 L 178.163,-7.49884 L 178.43,-7.03717
 L 178.594,-6.53017 L 178.65,-6 L 178.65,-0 L 342.15,-0 L 342.15,-6 L 342.206,-6.53017
 L 342.37,-7.03717 L 342.637,-7.49884 L 342.994,-7.895 L 343.425,-8.20836 L 343.912,-8.42519 L 344.433,-8.53603
 L 344.967,-8.53603 L 345.488,-8.42519 L 345.975,-8.20836 L 346.406,-7.895 L 346.763,-7.49884 L 347.03,-7.03717
 L 347.194,-6.53017 L 347.25,-6 L 347.25,-0 L 510.75,-0 L 510.75,-6 L 510.806,-6.53017
 L 510.97,-7.03717 L 511.237,-7.49884 L 511.594,-7.895 L 512.025,-8.20836 L 512.512,-8.42519 L 513.033,-8.53603
 L 513.567,-8.53603 L 514.088,-8.42519 L 514.575,-8.20836 L 515.006,-7.895 L 515.363,-7.49884 L 515.63,-7.03717
 L 515.794,-6.53017 L 515.85,-6 L 515.85,-0 L 679.35,-0 L 679.35,-6 L 679.406,-6.53017
 L 679.57,-7.03717 L 679.837,-7.49884 L 680.194,-7.895 L 680.625,-8.20836 L 681.112,-8.42519 L 681.633,-8.53603
 L 682.167,-8.53603 L 682.688,-8.42519 L 683.175,-8.20836 L 683.606,-7.895 L 683.963,-7.49884 L 684.23,-7.03717
 L 684.394,-6.53017 L 684.45,-6 L 684.45,-0 L 847.95,-0 L 847.95,-6 L 848.006,-6.53017
 L 848.17,-7.03717 L 848.437,-7.49884 L 848.794,-7.895 L 849.225,-8.20836 L 849.712,-8.42519 L 850.233,-8.53603
 L 850.767,-8.53603 L 851.288,-8.42519 L 851.775,-8.20836 L 852.206,-7.895 L 852.563,-7.49884 L 852.83,-7.03717
 L 852.994,-6.53017 L 853.05,-6 L 853.05,-0 L 858,-0 z
M 6.98573,-55.607 L 6.47708,-55.6875 L 5.97964,-55.8208 L 5.49887,-56.0054 L 5.04001,-56.2392 L 4.60811,-56.5196
 L 4.20789,-56.8437 L 3.84373,-57.2079 L 3.51964,-57.6081 L 3.23917,-58.04 L 3.00537,-58.4989 L 2.82082,-58.9796
 L 2.68752,-59.4771 L 2.60696,-59.9857 L 2.58,-60.5 L 2.60696,-61.0143 L 2.68752,-61.5229 L 2.82082,-62.0204
 L 3.00537,-62.5011 L 3.23917,-62.96 L 3.51964,-63.3919 L 3.84373,-63.7921 L 4.20789,-64.1563 L 4.60811,-64.4804
 L 4.95001,-64.7024 L 4.95001,-74 L 5.00574,-74.5302 L 5.17047,-75.0372 L 5.43701,-75.4988 L 5.79373,-75.895
 L 6.22501,-76.2084 L 6.71202,-76.4252 L 7.23346,-76.536 L 7.76654,-76.536 L 8.28798,-76.4252 L 8.77499,-76.2084
 L 9.20627,-75.895 L 9.56299,-75.4988 L 9.82953,-75.0372 L 9.99426,-74.5302 L 10.05,-74 L 10.05,-64.7024
 L 10.3919,-64.4804 L 10.7921,-64.1563 L 11.1563,-63.7921 L 11.4804,-63.3919 L 11.7608,-62.96 L 11.9946,-62.5011
 L 12.1792,-62.0204 L 12.3125,-61.5229 L 12.393,-61.0143 L 12.42,-60.5 L 12.393,-59.9857 L 12.3125,-59.4771
 L 12.1792,-58.9796 L 11.9946,-58.4989 L 11.7608,-58.04 L 11.4804,-57.6081 L 11.1563,-57.2079 L 10.7921,-56.8437
 L 10.3919,-56.5196 L 9.95999,-56.2392 L 9.50113,-56.0054 L 9.02036,-55.8208 L 8.52292,-55.6875 L 8.01427,-55.607
 L 7.5,-55.58 z
M 175.586,-55.607 L 175.077,-55.6875 L 174.58,-55.8208 L 174.099,-56.0054 L 173.64,-56.2392 L 173.208,-56.5196
 L 172.808,-56.8437 L 172.444,-57.2079 L 172.12,-57.6081 L 171.839,-58.04 L 171.605,-58.4989 L 171.421,-58.9796
 L 171.288,-59.4771 L 171.207,-59.9857 L 171.18,-60.5 L 171.207,-61.0143 L 171.288,-61.5229 L 171.421,-62.0204
 L 171.605,-62.5011 L 171.839,-62.96 L 172.12,-63.3919 L 172.444,-63.7921 L 172.808,-64.1563 L 173.208,-64.4804
 L 173.55,-64.7024 L 173.55,-74 L 173.606,-74.5302 L 173.77,-75.0372 L 174.037,-75.4988 L 174.394,-75.895
 L 174.825,-76.2084 L 175.312,-76.4252 L 175.833,-76.536 L 176.367,-76.536 L 176.888,-76.4252 L 177.375,-76.2084
 L 177.806,-75.895 L 178.163,-75.4988 L 178.43,-75.0372 L 178.594,-74.5302 L 178.65,-74 L 178.65,-64.7024
 L 178.992,-64.4804 L 179.392,-64.1563 L 179.756,-63.7921 L 180.08,-63.3919 L 180.361,-62.96 L 180.595,-62.5011
 L 180.779,-62.0204 L 180.912,-61.5229 L 180.993,-61.0143 L 181.02,-60.5 L 180.993,-59.9857 L 180.912,-59.4771
 L 180.779,-58.9796 L 180.595,-58.4989 L 180.361,-58.04 L 180.08,-57.6081 L 179.756,-57.2079 L 179.392,-56.8437
 L 178.992,-56.5196 L 178.56,-56.2392 L 178.101,-56.0054 L 177.62,-55.8208 L 177.123,-55.6875 L 176.614,-55.607
 L 176.1,-55.58 z
M 344.186,-55.607 L 343.677,-55.6875 L 343.18,-55.8208 L 342.699,-56.0054 L 342.24,-56.2392 L 341.808,-56.5196
 L 341.408,-56.8437 L 341.044,-57.2079 L 340.72,-57.6081 L 340.439,-58.04 L 340.205,-58.4989 L 340.021,-58.9796
 L 339.888,-59.4771 L 339.807,-59.9857 L 339.78,-60.5 L 339.807,-61.0143 L 339.888,-61.5229 L 340.021,-62.0204
 L 340.205,-62.5011 L 340.439,-62.96 L 340.72,-63.3919 L 341.044,-63.7921 L 341.408,-64.1563 L 341.808,-64.4804
 L 342.15,-64.7024 L 342.15,-74 L 342.206,-74.5302 L 342.37,-75.0372 L 342.637,-75.4988 L 342.994,-75.895
 L 343.425,-76.2084 L 343.912,-76.4252 L 344.433,-76.536 L 344.967,-76.536 L 345.488,-76.4252 L 345.975,-76.2084
 L 346.406,-75.895 L 346.763,-75.4988 L 347.03,-75.0372 L 347.194,-74.5302 L 347.25,-74 L 347.25,-64.7024
 L 347.592,-64.4804 L 347.992,-64.1563 L 348.356,-63.7921 L 348.68,-63.3919 L 348.961,-62.96 L 349.195,-62.5011
 L 349.379,-62.0204 L 349.512,-61.5229 L 349.593,-61.0143 L 349.62,-60.5 L 349.593,-59.9857 L 349.512,-59.4771
 L 349.379,-58.9796 L 349.195,-58.4989 L 348.961,-58.04 L 348.68,-57.6081 L 348.356,-57.2079 L 347.992,-56.8437
 L 347.592,-56.5196 L 347.16,-56.2392 L 346.701,-56.0054 L 346.22,-55.8208 L 345.723,-55.6875 L 345.214,-55.607
 L 344.7,-55.58 z
M 512.786,-55.607 L 512.277,-55.6875 L 511.78,-55.8208 L 511.299,-56.0054 L 510.84,-56.2392 L 510.408,-56.5196
 L 510.008,-56.8437 L 509.644,-57.2079 L 509.32,-57.6081 L 509.039,-58.04 L 508.805,-58.4989 L 508.621,-58.9796
 L 508.488,-59.4771 L 508.407,-59.9857 L 508.38,-60.5 L 508.407,-61.0143 L 508.488,-61.5229 L 508.621,-62.0204
 L 508.805,-62.5011 L 509.039,-62.96 L 509.32,-63.3919 L 509.644,-63.7921 L 510.008,-64.1563 L 510.408,-64.4804
 L 510.75,-64.7024 L 510.75,-74 L 510.806,-74.5302 L 510.97,-75.0372 L 511.237,-75.4988 L 511.594,-75.895
 L 512.025,-76.2084 L 512.512,-76.4252 L 513.033,-76.536 L 513.567,-76.536 L 514.088,-76.4252 L 514.575,-76.2084
 L 515.006,-75.895 L 515.363,-75.4988 L 515.63,-75.0372 L 515.794,-74.5302 L 515.85,-74 L 515.85,-64.7024
 L 516.192,-64.4804 L 516.592,-64.1563 L 516.956,-63.7921 L 517.28,-63.3919 L 517.561,-62.96 L 517.795,-62.5011
 L 517.979,-62.0204 L 518.112,-61.5229 L 518.193,-61.0143 L 518.22,-60.5 L 518.193,-59.9857 L 518.112,-59.4771
 L 517.979,-58.9796 L 517.795,-58.4989 L 517.561,-58.04 L 517.28,-57.6081 L 516.956,-57.2079 L 516.592,-56.8437
 L 516.192,-56.5196 L 515.76,-56.2392 L 515.301,-56.0054 L 514.82,-55.8208 L 514.323,-55.6875 L 513.814,-55.607
 L 513.3,-55.58 z
M 681.386,-55.607 L 680.877,-55.6875 L 680.38,-55.8208 L 679.899,-56.0054 L 679.44,-56.2392 L 679.008,-56.5196
 L 678.608,-56.8437 L 678.244,-57.2079 L 677.92,-57.6081 L 677.639,-58.04 L 677.405,-58.4989 L 677.221,-58.9796
 L 677.088,-59.4771 L 677.007,-59.9857 L 676.98,-60.5 L 677.007,-61.0143 L 677.088,-61.5229 L 677.221,-62.0204
 L 677.405,-62.5011 L 677.639,-62.96 L 677.92,-63.3919 L 678.244,-63.7921 L 678.608,-64.1563 L 679.008,-64.4804
 L 679.35,-64.7024 L 679.35,-74 L 679.406,-74.5302 L 679.57,-75.0372 L 679.837,-75.4988 L 680.194,-75.895
 L 680.625,-76.2084 L 681.112,-76.4252 L 681.633,-76.536 L 682.167,-76.536 L 682.688,-76.4252 L 683.175,-76.2084
 L 683.606,-75.895 L 683.963,-75.4988 L 684.23,-75.0372 L 684.394,-74.5302 L 684.45,-74 L 684.45,-64.7024
 L 684.792,-64.4804 L 685.192,-64.1563 L 685.556,-63.7921 L 685.88,-63.3919 L 686.161,-62.96 L 686.395,-62.5011
 L 686.579,-62.0204 L 686.712,-61.5229 L 686.793,-61.0143 L 686.82,-60.5 L 686.793,-59.9857 L 686.712,-59.4771
 L 686.579,-58.9796 L 686.395,-58.4989 L 686.161,-58.04 L 685.88,-57.6081 L 685.556,-57.2079 L 685.192,-56.8437
 L 684.792,-56.5196 L 684.36,-56.2392 L 683.901,-56.0054 L 683.42,-55.8208 L 682.923,-55.6875 L 682.414,-55.607
 L 681.9,-55.58 z
M 849.986,-55.607 L 849.477,-55.6875 L 848.98,-55.8208 L 848.499,-56.0054 L 848.04,-56.2392 L 847.608,-56.5196
 L 847.208,-56.8437 L 846.844,-57.2079 L 846.52,-57.6081 L 846.239,-58.04 L 846.005,-58.4989 L 845.821,-58.9796
 L 845.688,-59.4771 L 845.607,-59.9857 L 845.58,-60.5 L 845.607,-61.0143 L 845.688,-61.5229 L 845.821,-62.0204
 L 846.005,-62.5011 L 846.239,-62.96 L 846.52,-63.3919 L 846.844,-63.7921 L 847.208,-64.1563 L 847.608,-64.4804
 L 847.95,-64.7024 L 847.95,-74 L 848.006,-74.5302 L 848.17,-75.0372 L 848.437,-75.4988 L 848.794,-75.895
 L 849.225,-76.2084 L 849.712,-76.4252 L 850.233,-76.536 L 850.767,-76.536 L 851.288,-76.4252 L 851.775,-76.2084
 L 852.206,-75.895 L 852.563,-75.4988 L 852.83,-75.0372 L 852.994,-74.5302 L 853.05,-74 L 853.05,-64.7024
 L 853.392,-64.4804 L 853.792,-64.1563 L 854.156,-63.7921 L 854.48,-63.3919 L 854.761,-62.96 L 854.995,-62.5011
 L 855.179,-62.0204 L 855.312,-61.5229 L 855.393,-61.0143 L 855.42,-60.5 L 855.393,-59.9857 L 855.312,-59.4771
 L 855.179,-58.9796 L 854.995,-58.4989 L 854.761,-58.04 L 854.48,-57.6081 L 854.156,-57.2079 L 853.792,-56.8437
 L 853.392,-56.5196 L 852.96,-56.2392 L 852.501,-56.0054 L 852.02,-55.8208 L 851.523,-55.6875 L 851.014,-55.607
 L 850.5,-55.58 z
M 428.308,-47.9138 L 427.504,-48.1439 L 412.264,-54.2904 L 411.409,-54.7639 L 410.788,-55.3235 L 410.296,-56
 L 409.956,-56.7639 L 409.782,-57.5819 L 409.782,-58.4181 L 409.956,-59.2361 L 410.296,-60 L 410.788,-60.6765
 L 411.409,-61.2361 L 412.133,-61.6542 L 412.929,-61.9126 L 413.76,-62 L 444.24,-62 L 445.21,-61.8806
 L 445.995,-61.5941 L 446.704,-61.1505 L 447.305,-60.5693 L 447.773,-59.8757 L 448.085,-59.1002 L 448.23,-58.2766
 L 448.2,-57.4409 L 447.998,-56.6296 L 447.631,-55.8783 L 447.115,-55.2196 L 446.474,-54.6825 L 445.736,-54.2904
 L 430.496,-48.1439 L 429.97,-47.9729 L 429.142,-47.856 z
M 331.008,-21.3122 L 330.204,-21.5422 L 249.008,-54.2904 L 248.153,-54.7639 L 247.531,-55.3235 L 247.04,-56
 L 246.7,-56.7639 L 246.526,-57.5819 L 246.526,-58.4181 L 246.7,-59.2361 L 247.04,-60 L 247.531,-60.6765
 L 248.153,-61.2361 L 248.877,-61.6542 L 249.672,-61.9126 L 250.504,-62 L 331.7,-62 L 332.936,-61.8042
 L 333.7,-61.4641 L 334.377,-60.9726 L 334.936,-60.3511 L 335.354,-59.627 L 335.613,-58.8316 L 335.7,-58
 L 335.7,-25.2519 L 335.546,-24.1516 L 335.233,-23.3761 L 334.766,-22.6826 L 334.165,-22.1013 L 333.456,-21.6577
 L 332.67,-21.3713 L 331.842,-21.2544 z
M 693.93,-21.3713 L 693.144,-21.6577 L 692.435,-22.1013 L 691.834,-22.6826 L 691.367,-23.3761 L 691.054,-24.1516
 L 690.9,-25.2519 L 690.9,-58 L 690.987,-58.8316 L 691.246,-59.627 L 691.664,-60.3511 L 692.223,-60.9726
 L 692.9,-61.4641 L 693.664,-61.8042 L 694.9,-62 L 776.096,-62 L 776.928,-61.9126 L 777.723,-61.6542
 L 778.447,-61.2361 L 779.069,-60.6765 L 779.56,-60 L 779.9,-59.2361 L 780.074,-58.4181 L 780.074,-57.5819
 L 779.9,-56.7639 L 779.56,-56 L 779.069,-55.3235 L 778.447,-54.7639 L 777.592,-54.2904 L 696.396,-21.5422
 L 695.592,-21.3122 L 694.758,-21.2544 z
M 162.408,-21.3122 L 161.604,-21.5422 L 80.4077,-54.2904 L 79.5527,-54.7639 L 78.9313,-55.3235 L 78.4398,-56
 L 78.0996,-56.7639 L 77.9258,-57.5819 L 77.9258,-58.4181 L 78.0996,-59.2361 L 78.4398,-60 L 78.9313,-60.6765
 L 79.5527,-61.2361 L 80.2769,-61.6542 L 81.0722,-61.9126 L 81.9039,-62 L 163.1,-62 L 164.336,-61.8042
 L 165.1,-61.4641 L 165.777,-60.9726 L 166.336,-60.3511 L 166.754,-59.627 L 167.013,-58.8316 L 167.1,-58
 L 167.1,-25.2519 L 166.946,-24.1516 L 166.633,-23.3761 L 166.166,-22.6826 L 165.565,-22.1013 L 164.856,-21.6577
 L 164.07,-21.3713 L 163.242,-21.2544 z
M 525.33,-21.3713 L 524.544,-21.6577 L 523.835,-22.1013 L 523.234,-22.6826 L 522.767,-23.3761 L 522.454,-24.1516
 L 522.3,-25.2519 L 522.3,-58 L 522.387,-58.8316 L 522.646,-59.627 L 523.064,-60.3511 L 523.623,-60.9726
 L 524.3,-61.4641 L 525.064,-61.8042 L 526.3,-62 L 607.496,-62 L 608.328,-61.9126 L 609.123,-61.6542
 L 609.847,-61.2361 L 610.469,-60.6765 L 610.96,-60 L 611.3,-59.2361 L 611.474,-58.4181 L 611.474,-57.5819
 L 611.3,-56.7639 L 610.96,-56 L 610.469,-55.3235 L 609.847,-54.7639 L 608.992,-54.2904 L 527.796,-21.5422
 L 526.992,-21.3122 L 526.158,-21.2544 z
M 357.282,-19.1186 L 356.464,-19.2924 L 355.7,-19.6326 L 355.023,-20.1241 L 354.464,-20.7455 L 354.046,-21.4697
 L 353.787,-22.265 L 353.7,-23.0967 L 353.7,-56.9033 L 353.854,-58.0035 L 354.167,-58.7791 L 354.634,-59.4726
 L 355.235,-60.0539 L 355.944,-60.4974 L 356.73,-60.7839 L 357.558,-60.9008 L 358.392,-60.843 L 359.196,-60.613
 L 401.106,-43.7096 L 402.075,-43.1505 L 402.676,-42.5693 L 403.143,-41.8757 L 403.456,-41.1002 L 403.601,-40.2766
 L 403.571,-39.4409 L 403.368,-38.6296 L 403.001,-37.8783 L 402.486,-37.2196 L 401.845,-36.6825 L 401.106,-36.2904
 L 359.196,-19.387 L 358.118,-19.1186 z
M 499.608,-19.157 L 498.804,-19.387 L 456.894,-36.2904 L 455.925,-36.8495 L 455.324,-37.4307 L 454.857,-38.1243
 L 454.544,-38.8998 L 454.399,-39.7234 L 454.429,-40.5591 L 454.632,-41.3704 L 454.999,-42.1217 L 455.514,-42.7804
 L 456.155,-43.3175 L 456.894,-43.7096 L 498.804,-60.613 L 499.882,-60.8814 L 500.718,-60.8814 L 501.536,-60.7076
 L 502.3,-60.3674 L 502.977,-59.8759 L 503.536,-59.2545 L 503.954,-58.5303 L 504.213,-57.735 L 504.3,-56.9033
 L 504.3,-23.0967 L 504.146,-21.9965 L 503.833,-21.2209 L 503.366,-20.5274 L 502.765,-19.9461 L 502.056,-19.5026
 L 501.27,-19.2161 L 500.442,-19.0992 z
M 189.1,-18 L 187.864,-18.1958 L 187.1,-18.5359 L 186.423,-19.0274 L 185.864,-19.6489 L 185.446,-20.373
 L 185.187,-21.1684 L 185.1,-22 L 185.1,-54.7481 L 185.254,-55.8484 L 185.567,-56.6239 L 186.034,-57.3174
 L 186.635,-57.8987 L 187.344,-58.3423 L 188.13,-58.6287 L 188.958,-58.7456 L 189.792,-58.6878 L 190.596,-58.4578
 L 271.792,-25.7096 L 272.647,-25.2361 L 273.269,-24.6765 L 273.76,-24 L 274.1,-23.2361 L 274.274,-22.4181
 L 274.274,-21.5819 L 274.1,-20.7639 L 273.76,-20 L 273.269,-19.3235 L 272.647,-18.7639 L 271.923,-18.3458
 L 271.128,-18.0874 L 270.296,-18 z
M 587.704,-18 L 586.872,-18.0874 L 586.077,-18.3458 L 585.353,-18.7639 L 584.731,-19.3235 L 584.24,-20
 L 583.9,-20.7639 L 583.726,-21.5819 L 583.726,-22.4181 L 583.9,-23.2361 L 584.24,-24 L 584.731,-24.6765
 L 585.353,-25.2361 L 586.208,-25.7096 L 667.404,-58.4578 L 668.208,-58.6878 L 669.042,-58.7456 L 669.87,-58.6287
 L 670.656,-58.3423 L 671.365,-57.8987 L 671.966,-57.3174 L 672.433,-56.6239 L 672.746,-55.8484 L 672.9,-54.7481
 L 672.9,-22 L 672.813,-21.1684 L 672.554,-20.373 L 672.136,-19.6489 L 671.577,-19.0274 L 670.9,-18.5359
 L 670.136,-18.1958 L 668.9,-18 z
M 22,-18 L 20.7639,-18.1958 L 20,-18.5359 L 19.3235,-19.0274 L 18.7639,-19.6489 L 18.3458,-20.373
 L 18.0874,-21.1684 L 18,-22 L 18,-54.1432 L 18.1543,-55.2434 L 18.4671,-56.0189 L 18.9343,-56.7124
 L 19.5354,-57.2937 L 20.2443,-57.7373 L 21.03,-58.0238 L 21.858,-58.1406 L 22.6922,-58.0828 L 23.4962,-57.8528
 L 103.192,-25.7096 L 104.047,-25.2361 L 104.669,-24.6765 L 105.16,-24 L 105.5,-23.2361 L 105.674,-22.4181
 L 105.674,-21.5819 L 105.5,-20.7639 L 105.16,-20 L 104.669,-19.3235 L 104.047,-18.7639 L 103.323,-18.3458
 L 102.528,-18.0874 L 101.696,-18 z
M 756.304,-18 L 755.472,-18.0874 L 754.677,-18.3458 L 753.953,-18.7639 L 753.331,-19.3235 L 752.84,-20
 L 752.5,-20.7639 L 752.326,-21.5819 L 752.326,-22.4181 L 752.5,-23.2361 L 752.84,-24 L 753.331,-24.6765
 L 753.953,-25.2361 L 754.808,-25.7096 L 834.504,-57.8528 L 835.308,-58.0828 L 836.142,-58.1406 L 836.97,-58.0238
 L 837.756,-57.7373 L 838.465,-57.2937 L 839.066,-56.7124 L 839.533,-56.0189 L 839.846,-55.2434 L 840,-54.1432
 L 840,-22 L 839.913,-21.1684 L 839.654,-20.373 L 839.236,-19.6489 L 838.677,-19.0274 L 838,-18.5359
 L 837.236,-18.1958 L 836,-18 z
M 413.76,-18 L 412.79,-18.1194 L 412.005,-18.4059 L 411.296,-18.8495 L 410.695,-19.4307 L 410.227,-20.1243
 L 409.915,-20.8998 L 409.77,-21.7234 L 409.8,-22.5591 L 410.002,-23.3704 L 410.369,-24.1217 L 410.885,-24.7804
 L 411.526,-25.3175 L 412.264,-25.7096 L 427.504,-31.8561 L 428.03,-32.0271 L 428.858,-32.144 L 429.692,-32.0862
 L 430.496,-31.8561 L 445.736,-25.7096 L 446.591,-25.2361 L 447.212,-24.6765 L 447.704,-24 L 448.044,-23.2361
 L 448.218,-22.4181 L 448.218,-21.5819 L 448.044,-20.7639 L 447.704,-20 L 447.212,-19.3235 L 446.591,-18.7639
 L 445.867,-18.3458 L 445.071,-18.0874 L 444.24,-18 z
" stroke="black" fill="lightgray" stroke-width="0.5"/>
</svg>
