<?xml version="1.0" standalone="no"?>
<!DOCTYPE svg PUBLIC "-//W3C//DTD SVG 1.1//EN" "http://www.w3.org/Graphics/SVG/1.1/DTD/svg11.dtd">
<svg width="694mm" height="80mm" viewBox="0 -80 694 80" xmlns="http://www.w3.org/2000/svg" version="1.1">
<title>OpenSCAD Model</title>
<path d="
M 694,-80 L 0,-80 L 0,-0 L 4.95,-0 L 4.95,-6 L 5.00572,-6.53017
 L 5.17046,-7.03717 L 5.437,-7.49884 L 5.79372,-7.895 L 6.22499,-8.20836 L 6.71201,-8.42519 L 7.23344,-8.53603
 L 7.76654,-8.53603 L 8.28798,-8.42519 L 8.77499,-8.20836 L 9.20627,-7.895 L 9.56299,-7.49884 L 9.82953,-7.03717
 L 9.99426,-6.53017 L 10.05,-6 L 10.05,-0 L 140.75,-0 L 140.75,-6 L 140.806,-6.53017
 L 140.97,-7.03717 L 141.237,-7.49884 L 141.594,-7.895 L 142.025,-8.20836 L 142.512,-8.42519 L 143.033,-8.53603
 L 143.567,-8.53603 L 144.088,-8.42519 L 144.575,-8.20836 L 145.006,-7.895 L 145.363,-7.49884 L 145.63,-7.03717
 L 145.794,-6.53017 L 145.85,-6 L 145.85,-0 L 276.55,-0 L 276.55,-6 L 276.606,-6.53017
 L 276.77,-7.03717 L 277.037,-7.49884 L 277.394,-7.895 L 277.825,-8.20836 L 278.312,-8.42519 L 278.833,-8.53603
 L 279.367,-8.53603 L 279.888,-8.42519 L 280.375,-8.20836 L 280.806,-7.895 L 281.163,-7.49884 L 281.43,-7.03717
 L 281.594,-6.53017 L 281.65,-6 L 281.65,-0 L 412.35,-0 L 412.35,-6 L 412.406,-6.53017
 L 412.57,-7.03717 L 412.837,-7.49884 L 413.194,-7.895 L 413.625,-8.20836 L 414.112,-8.42519 L 414.633,-8.53603
 L 415.167,-8.53603 L 415.688,-8.42519 L 416.175,-8.20836 L 416.606,-7.895 L 416.963,-7.49884 L 417.23,-7.03717
 L 417.394,-6.53017 L 417.45,-6 L 417.45,-0 L 548.15,-0 L 548.15,-6 L 548.206,-6.53017
 L 548.37,-7.03717 L 548.637,-7.49884 L 548.994,-7.895 L 549.425,-8.20836 L 549.912,-8.42519 L 550.433,-8.53603
 L 550.967,-8.53603 L 551.488,-8.42519 L 551.975,-8.20836 L 552.406,-7.895 L 552.763,-7.49884 L 553.03,-7.03717
 L 553.194,-6.53017 L 553.25,-6 L 553.25,-0 L 683.95,-0 L 683.95,-6 L 684.006,-6.53017
 L 684.17,-7.03717 L 684.437,-7.49884 L 684.794,-7.895 L 685.225,-8.20836 L 685.712,-8.42519 L 686.233,-8.53603
 L 686.767,-8.53603 L 687.288,-8.42519 L 687.775,-8.20836 L 688.206,-7.895 L 688.563,-7.49884 L 688.83,-7.03717
 L 688.994,-6.53017 L 689.05,-6 L 689.05,-0 L 694,-0 z
M 6.98573,-55.607 L 6.47708,-55.6875 L 5.97964,-55.8208 L 5.49887,-56.0054 L 5.04001,-56.2392 L 4.60811,-56.5196
 L 4.20789,-56.8437 L 3.84373,-57.2079 L 3.51964,-57.6081 L 3.23917,-58.04 L 3.00537,-58.4989 L 2.82082,-58.9796
 L 2.68752,-59.4771 L 2.60696,-59.9857 L 2.58,-60.5 L 2.60696,-61.0143 L 2.68752,-61.5229 L 2.82082,-62.0204
 L 3.00537,-62.5011 L 3.23917,-62.96 L 3.51964,-63.3919 L 3.84373,-63.7921 L 4.20789,-64.1563 L 4.60811,-64.4804
 L 4.95001,-64.7024 L 4.95001,-74 L 5.00574,-74.5302 L 5.17047,-75.0372 L 5.43701,-75.4988 L 5.79373,-75.895
 L 6.22501,-76.2084 L 6.71202,-76.4252 L 7.23346,-76.536 L 7.76654,-76.536 L 8.28798,-76.4252 L 8.77499,-76.2084
 L 9.20627,-75.895 L 9.56299,-75.4988 L 9.82953,-75.0372 L 9.99426,-74.5302 L 10.05,-74 L 10.05,-64.7024
 L 10.3919,-64.4804 L 10.7921,-64.1563 L 11.1563,-63.7921 L 11.4804,-63.3919 L 11.7608,-62.96 L 11.9946,-62.5011
 L 12.1792,-62.0204 L 12.3125,-61.5229 L 12.393,-61.0143 L 12.42,-60.5 L 12.393,-59.9857 L 12.3125,-59.4771
 L 12.1792,-58.9796 L 11.9946,-58.4989 L 11.7608,-58.04 L 11.4804,-57.6081 L 11.1563,-57.2079 L 10.7921,-56.8437
 L 10.3919,-56.5196 L 9.95999,-56.2392 L 9.50113,-56.0054 L 9.02036,-55.8208 L 8.52292,-55.6875 L 8.01427,-55.607
 L 7.5,-55.58 z
M 142.786,-55.607 L 142.277,-55.6875 L 141.78,-55.8208 L 141.299,-56.0054 L 140.84,-56.2392 L 140.408,-56.5196
 L 140.008,-56.8437 L 139.644,-57.2079 L 139.32,-57.6081 L 139.039,-58.04 L 138.805,-58.4989 L 138.621,-58.9796
 L 138.488,-59.4771 L 138.407,-59.9857 L 138.38,-60.5 L 138.407,-61.0143 L 138.488,-61.5229 L 138.621,-62.0204
 L 138.805,-62.5011 L 139.039,-62.96 L 139.32,-63.3919 L 139.644,-63.7921 L 140.008,-64.1563 L 140.408,-64.4804
 L 140.75,-64.7024 L 140.75,-74 L 140.806,-74.5302 L 140.97,-75.0372 L 141.237,-75.4988 L 141.594,-75.895
 L 142.025,-76.2084 L 142.512,-76.4252 L 143.033,-76.536 L 143.567,-76.536 L 144.088,-76.4252 L 144.575,-76.2084
 L 145.006,-75.895 L 145.363,-75.4988 L 145.63,-75.0372 L 145.794,-74.5302 L 145.85,-74 L 145.85,-64.7024
 L 146.192,-64.4804 L 146.592,-64.1563 L 146.956,-63.7921 L 147.28,-63.3919 L 147.561,-62.96 L 147.795,-62.5011
 L 147.979,-62.0204 L 148.112,-61.5229 L 148.193,-61.0143 L 148.22,-60.5 L 148.193,-59.9857 L 148.112,-59.4771
 L 147.979,-58.9796 L 147.795,-58.4989 L 147.561,-58.04 L 147.28,-57.6081 L 146.956,-57.2079 L 146.592,-56.8437
 L 146.192,-56.5196 L 145.76,-56.2392 L 145.301,-56.0054 L 144.82,-55.8208 L 144.323,-55.6875 L 143.814,-55.607
 L 143.3,-55.58 z
M 278.586,-55.607 L 278.077,-55.6875 L 277.58,-55.8208 L 277.099,-56.0054 L 276.64,-56.2392 L 276.208,-56.5196
 L 275.808,-56.8437 L 275.444,-57.2079 L 275.12,-57.6081 L 274.839,-58.04 L 274.605,-58.4989 L 274.421,-58.9796
 L 274.288,-59.4771 L 274.207,-59.9857 L 274.18,-60.5 L 274.207,-61.0143 L 274.288,-61.5229 L 274.421,-62.0204
 L 274.605,-62.5011 L 274.839,-62.96 L 275.12,-63.3919 L 275.444,-63.7921 L 275.808,-64.1563 L 276.208,-64.4804
 L 276.55,-64.7024 L 276.55,-74 L 276.606,-74.5302 L 276.77,-75.0372 L 277.037,-75.4988 L 277.394,-75.895
 L 277.825,-76.2084 L 278.312,-76.4252 L 278.833,-76.536 L 279.367,-76.536 L 279.888,-76.4252 L 280.375,-76.2084
 L 280.806,-75.895 L 281.163,-75.4988 L 281.43,-75.0372 L 281.594,-74.5302 L 281.65,-74 L 281.65,-64.7024
 L 281.992,-64.4804 L 282.392,-64.1563 L 282.756,-63.7921 L 283.08,-63.3919 L 283.361,-62.96 L 283.595,-62.5011
 L 283.779,-62.0204 L 283.912,-61.5229 L 283.993,-61.0143 L 284.02,-60.5 L 283.993,-59.9857 L 283.912,-59.4771
 L 283.779,-58.9796 L 283.595,-58.4989 L 283.361,-58.04 L 283.08,-57.6081 L 282.756,-57.2079 L 282.392,-56.8437
 L 281.992,-56.5196 L 281.56,-56.2392 L 281.101,-56.0054 L 280.62,-55.8208 L 280.123,-55.6875 L 279.614,-55.607
 L 279.1,-55.58 z
M 414.386,-55.607 L 413.877,-55.6875 L 413.38,-55.8208 L 412.899,-56.0054 L 412.44,-56.2392 L 412.008,-56.5196
 L 411.608,-56.8437 L 411.244,-57.2079 L 410.92,-57.6081 L 410.639,-58.04 L 410.405,-58.4989 L 410.221,-58.9796
 L 410.088,-59.4771 L 410.007,-59.9857 L 409.98,-60.5 L 410.007,-61.0143 L 410.088,-61.5229 L 410.221,-62.0204
 L 410.405,-62.5011 L 410.639,-62.96 L 410.92,-63.3919 L 411.244,-63.7921 L 411.608,-64.1563 L 412.008,-64.4804
 L 412.35,-64.7024 L 412.35,-74 L 412.406,-74.5302 L 412.57,-75.0372 L 412.837,-75.4988 L 413.194,-75.895
 L 413.625,-76.2084 L 414.112,-76.4252 L 414.633,-76.536 L 415.167,-76.536 L 415.688,-76.4252 L 416.175,-76.2084
 L 416.606,-75.895 L 416.963,-75.4988 L 417.23,-75.0372 L 417.394,-74.5302 L 417.45,-74 L 417.45,-64.7024
 L 417.792,-64.4804 L 418.192,-64.1563 L 418.556,-63.7921 L 418.88,-63.3919 L 419.161,-62.96 L 419.395,-62.5011
 L 419.579,-62.0204 L 419.712,-61.5229 L 419.793,-61.0143 L 419.82,-60.5 L 419.793,-59.9857 L 419.712,-59.4771
 L 419.579,-58.9796 L 419.395,-58.4989 L 419.161,-58.04 L 418.88,-57.6081 L 418.556,-57.2079 L 418.192,-56.8437
 L 417.792,-56.5196 L 417.36,-56.2392 L 416.901,-56.0054 L 416.42,-55.8208 L 415.923,-55.6875 L 415.414,-55.607
 L 414.9,-55.58 z
M 550.186,-55.607 L 549.677,-55.6875 L 549.18,-55.8208 L 548.699,-56.0054 L 548.24,-56.2392 L 547.808,-56.5196
 L 547.408,-56.8437 L 547.044,-57.2079 L 546.72,-57.6081 L 546.439,-58.04 L 546.205,-58.4989 L 546.021,-58.9796
 L 545.888,-59.4771 L 545.807,-59.9857 L 545.78,-60.5 L 545.807,-61.0143 L 545.888,-61.5229 L 546.021,-62.0204
 L 546.205,-62.5011 L 546.439,-62.96 L 546.72,-63.3919 L 547.044,-63.7921 L 547.408,-64.1563 L 547.808,-64.4804
 L 548.15,-64.7024 L 548.15,-74 L 548.206,-74.5302 L 548.37,-75.0372 L 548.637,-75.4988 L 548.994,-75.895
 L 549.425,-76.2084 L 549.912,-76.4252 L 550.433,-76.536 L 550.967,-76.536 L 551.488,-76.4252 L 551.975,-76.2084
 L 552.406,-75.895 L 552.763,-75.4988 L 553.03,-75.0372 L 553.194,-74.5302 L 553.25,-74 L 553.25,-64.7024
 L 553.592,-64.4804 L 553.992,-64.1563 L 554.356,-63.7921 L 554.68,-63.3919 L 554.961,-62.96 L 555.195,-62.5011
 L 555.379,-62.0204 L 555.512,-61.5229 L 555.593,-61.0143 L 555.62,-60.5 L 555.593,-59.9857 L 555.512,-59.4771
 L 555.379,-58.9796 L 555.195,-58.4989 L 554.961,-58.04 L 554.68,-57.6081 L 554.356,-57.2079 L 553.992,-56.8437
 L 553.592,-56.5196 L 553.16,-56.2392 L 552.701,-56.0054 L 552.22,-55.8208 L 551.723,-55.6875 L 551.214,-55.607
 L 550.7,-55.58 z
M 685.986,-55.607 L 685.477,-55.6875 L 684.98,-55.8208 L 684.499,-56.0054 L 684.04,-56.2392 L 683.608,-56.5196
 L 683.208,-56.8437 L 682.844,-57.2079 L 682.52,-57.6081 L 682.239,-58.04 L 682.005,-58.4989 L 681.821,-58.9796
 L 681.688,-59.4771 L 681.607,-59.9857 L 681.58,-60.5 L 681.607,-61.0143 L 681.688,-61.5229 L 681.821,-62.0204
 L 682.005,-62.5011 L 682.239,-62.96 L 682.52,-63.3919 L 682.844,-63.7921 L 683.208,-64.1563 L 683.608,-64.4804
 L 683.95,-64.7024 L 683.95,-74 L 684.006,-74.5302 L 684.17,-75.0372 L 684.437,-75.4988 L 684.794,-75.895
 L 685.225,-76.2084 L 685.712,-76.4252 L 686.233,-76.536 L 686.767,-76.536 L 687.288,-76.4252 L 687.775,-76.2084
 L 688.206,-75.895 L 688.563,-75.4988 L 688.83,-75.0372 L 688.994,-74.5302 L 689.05,-74 L 689.05,-64.7024
 L 689.392,-64.4804 L 689.792,-64.1563 L 690.156,-63.7921 L 690.48,-63.3919 L 690.761,-62.96 L 690.995,-62.5011
 L 691.179,-62.0204 L 691.312,-61.5229 L 691.393,-61.0143 L 691.42,-60.5 L 691.393,-59.9857 L 691.312,-59.4771
 L 691.179,-58.9796 L 690.995,-58.4989 L 690.761,-58.04 L 690.48,-57.6081 L 690.156,-57.2079 L 689.792,-56.8437
 L 689.392,-56.5196 L 688.96,-56.2392 L 688.501,-56.0054 L 688.02,-55.8208 L 687.523,-55.6875 L 687.014,-55.607
 L 686.5,-55.58 z
M 345.992,-48.4185 L 345.209,-48.7127 L 333.805,-54.4233 L 333.244,-54.7639 L 332.623,-55.3235 L 332.131,-56
 L 331.791,-56.7639 L 331.617,-57.5819 L 331.617,-58.4181 L 331.791,-59.2361 L 332.131,-60 L 332.623,-60.6765
 L 333.244,-61.2361 L 333.969,-61.6542 L 334.764,-61.9126 L 335.595,-62 L 358.404,-62 L 359.058,-61.9463
 L 359.864,-61.7242 L 360.606,-61.3393 L 361.253,-60.8085 L 361.774,-60.155 L 362.149,-59.4073 L 362.36,-58.5981
 L 362.397,-57.7627 L 362.261,-56.9377 L 361.956,-56.1591 L 361.495,-55.461 L 360.9,-54.8739 L 360.195,-54.4233
 L 348.791,-48.7127 L 347.653,-48.3431 L 346.819,-48.2935 z
M 265.092,-23.1625 L 264.309,-23.4567 L 202.467,-54.4233 L 201.907,-54.7639 L 201.285,-55.3235 L 200.794,-56
 L 200.454,-56.7639 L 200.28,-57.5819 L 200.28,-58.4181 L 200.454,-59.2361 L 200.794,-60 L 201.285,-60.6765
 L 201.907,-61.2361 L 202.631,-61.6542 L 203.426,-61.9126 L 204.258,-62 L 266.1,-62 L 267.336,-61.8042
 L 268.1,-61.4641 L 268.777,-60.9726 L 269.336,-60.3511 L 269.754,-59.627 L 270.013,-58.8316 L 270.1,-58
 L 270.1,-27.0333 L 270.055,-26.4353 L 269.844,-25.6261 L 269.47,-24.8783 L 268.948,-24.2248 L 268.302,-23.694
 L 267.56,-23.3091 L 266.753,-23.0871 L 265.919,-23.0375 z
M 563.047,-23.0871 L 562.24,-23.3091 L 561.498,-23.694 L 560.852,-24.2248 L 560.33,-24.8783 L 559.956,-25.6261
 L 559.745,-26.4353 L 559.7,-27.0333 L 559.7,-58 L 559.787,-58.8316 L 560.046,-59.627 L 560.464,-60.3511
 L 561.023,-60.9726 L 561.7,-61.4641 L 562.464,-61.8042 L 563.7,-62 L 625.542,-62 L 626.374,-61.9126
 L 627.169,-61.6542 L 627.893,-61.2361 L 628.515,-60.6765 L 629.006,-60 L 629.346,-59.2361 L 629.52,-58.4181
 L 629.52,-57.5819 L 629.346,-56.7639 L 629.006,-56 L 628.515,-55.3235 L 627.893,-54.7639 L 627.333,-54.4233
 L 565.491,-23.4567 L 564.708,-23.1625 L 563.881,-23.0375 z
M 129.292,-23.1625 L 128.509,-23.4567 L 66.6668,-54.4233 L 66.1066,-54.7639 L 65.4852,-55.3235 L 64.9937,-56
 L 64.6535,-56.7639 L 64.4797,-57.5819 L 64.4797,-58.4181 L 64.6535,-59.2361 L 64.9937,-60 L 65.4852,-60.6765
 L 66.1066,-61.2361 L 66.8308,-61.6542 L 67.6261,-61.9126 L 68.4577,-62 L 130.3,-62 L 131.536,-61.8042
 L 132.3,-61.4641 L 132.977,-60.9726 L 133.536,-60.3511 L 133.954,-59.627 L 134.213,-58.8316 L 134.3,-58
 L 134.3,-27.0333 L 134.255,-26.4353 L 134.044,-25.6261 L 133.67,-24.8783 L 133.148,-24.2248 L 132.502,-23.694
 L 131.76,-23.3091 L 130.953,-23.0871 L 130.119,-23.0375 z
M 427.247,-23.0871 L 426.44,-23.3091 L 425.698,-23.694 L 425.052,-24.2248 L 424.53,-24.8783 L 424.156,-25.6261
 L 423.945,-26.4353 L 423.9,-27.0333 L 423.9,-58 L 423.987,-58.8316 L 424.246,-59.627 L 424.664,-60.3511
 L 425.223,-60.9726 L 425.9,-61.4641 L 426.664,-61.8042 L 427.9,-62 L 489.742,-62 L 490.574,-61.9126
 L 491.369,-61.6542 L 492.093,-61.2361 L 492.715,-60.6765 L 493.206,-60 L 493.546,-59.2361 L 493.72,-58.4181
 L 493.72,-57.5819 L 493.546,-56.7639 L 493.206,-56 L 492.715,-55.3235 L 492.093,-54.7639 L 491.533,-54.4233
 L 429.691,-23.4567 L 428.908,-23.1625 L 428.081,-23.0375 z
M 291.682,-20.8208 L 290.864,-20.9947 L 290.1,-21.3348 L 289.423,-21.8263 L 288.864,-22.4478 L 288.446,-23.172
 L 288.187,-23.9673 L 288.1,-24.7989 L 288.1,-55.2011 L 288.145,-55.7991 L 288.356,-56.6084 L 288.73,-57.3561
 L 289.252,-58.0096 L 289.898,-58.5404 L 290.64,-58.9253 L 291.447,-59.1474 L 292.281,-59.197 L 293.108,-59.0719
 L 293.891,-58.7777 L 324.248,-43.5767 L 324.659,-43.3393 L 325.306,-42.8085 L 325.827,-42.155 L 326.202,-41.4073
 L 326.412,-40.5981 L 326.45,-39.7627 L 326.314,-38.9377 L 326.009,-38.1591 L 325.548,-37.461 L 324.953,-36.8739
 L 324.248,-36.4233 L 293.891,-21.2223 L 293.336,-20.9947 L 292.518,-20.8208 z
M 400.892,-20.9281 L 400.109,-21.2223 L 369.752,-36.4233 L 369.341,-36.6607 L 368.694,-37.1915 L 368.173,-37.845
 L 367.798,-38.5927 L 367.587,-39.4019 L 367.55,-40.2373 L 367.686,-41.0623 L 367.991,-41.8409 L 368.452,-42.539
 L 369.047,-43.1261 L 369.752,-43.5767 L 400.109,-58.7777 L 400.664,-59.0053 L 401.482,-59.1792 L 402.318,-59.1792
 L 403.136,-59.0053 L 403.9,-58.6652 L 404.577,-58.1737 L 405.136,-57.5522 L 405.554,-56.828 L 405.813,-56.0327
 L 405.9,-55.2011 L 405.9,-24.7989 L 405.855,-24.2009 L 405.644,-23.3916 L 405.27,-22.6439 L 404.748,-21.9904
 L 404.102,-21.4596 L 403.36,-21.0747 L 402.553,-20.8526 L 401.719,-20.803 z
M 156.3,-18 L 155.064,-18.1958 L 154.3,-18.5359 L 153.623,-19.0274 L 153.064,-19.6489 L 152.646,-20.373
 L 152.387,-21.1684 L 152.3,-22 L 152.3,-52.9667 L 152.345,-53.5647 L 152.556,-54.3739 L 152.93,-55.1217
 L 153.452,-55.7752 L 154.098,-56.306 L 154.84,-56.6909 L 155.647,-56.9129 L 156.481,-56.9625 L 157.308,-56.8375
 L 158.091,-56.5433 L 219.933,-25.5767 L 220.493,-25.2361 L 221.115,-24.6765 L 221.606,-24 L 221.946,-23.2361
 L 222.12,-22.4181 L 222.12,-21.5819 L 221.946,-20.7639 L 221.606,-20 L 221.115,-19.3235 L 220.493,-18.7639
 L 219.769,-18.3458 L 218.974,-18.0874 L 218.142,-18 z
M 475.858,-18 L 475.026,-18.0874 L 474.231,-18.3458 L 473.507,-18.7639 L 472.885,-19.3235 L 472.394,-20
 L 472.054,-20.7639 L 471.88,-21.5819 L 471.88,-22.4181 L 472.054,-23.2361 L 472.394,-24 L 472.885,-24.6765
 L 473.507,-25.2361 L 474.067,-25.5767 L 535.909,-56.5433 L 536.692,-56.8375 L 537.519,-56.9625 L 538.353,-56.9129
 L 539.16,-56.6909 L 539.902,-56.306 L 540.548,-55.7752 L 541.07,-55.1217 L 541.444,-54.3739 L 541.655,-53.5647
 L 541.7,-52.9667 L 541.7,-22 L 541.613,-21.1684 L 541.354,-20.373 L 540.936,-19.6489 L 540.377,-19.0274
 L 539.7,-18.5359 L 538.936,-18.1958 L 537.7,-18 z
M 22,-18 L 20.7639,-18.1958 L 20,-18.5359 L 19.3235,-19.0274 L 18.7639,-19.6489 L 18.3458,-20.373
 L 18.0874,-21.1684 L 18,-22 L 18,-52.2155 L 18.045,-52.8136 L 18.2557,-53.6228 L 18.6301,-54.3706
 L 19.1518,-55.0241 L 19.798,-55.5549 L 20.5404,-55.9397 L 21.3466,-56.1618 L 22.1814,-56.2114 L 23.0082,-56.0864
 L 23.791,-55.7922 L 84.1332,-25.5767 L 84.6934,-25.2361 L 85.3148,-24.6765 L 85.8063,-24 L 86.1465,-23.2361
 L 86.3203,-22.4181 L 86.3203,-21.5819 L 86.1465,-20.7639 L 85.8063,-20 L 85.3148,-19.3235 L 84.6934,-18.7639
 L 83.9692,-18.3458 L 83.1739,-18.0874 L 82.3422,-18 z
M 611.658,-18 L 610.826,-18.0874 L 610.031,-18.3458 L 609.307,-18.7639 L 608.685,-19.3235 L 608.194,-20
 L 607.854,-20.7639 L 607.68,-21.5819 L 607.68,-22.4181 L 607.854,-23.2361 L 608.194,-24 L 608.685,-24.6765
 L 609.307,-25.2361 L 609.867,-25.5767 L 670.209,-55.7922 L 670.992,-56.0864 L 671.819,-56.2114 L 672.653,-56.1618
 L 673.46,-55.9397 L 674.202,-55.5549 L 674.848,-55.0241 L 675.37,-54.3706 L 675.744,-53.6228 L 675.955,-52.8136
 L 676,-52.2155 L 676,-22 L 675.913,-21.1684 L 675.654,-20.373 L 675.236,-19.6489 L 674.677,-19.0274
 L 674,-18.5359 L 673.236,-18.1958 L 672,-18 z
M 335.595,-18 L 334.942,-18.0537 L 334.136,-18.2758 L 333.393,-18.6607 L 332.747,-19.1915 L 332.226,-19.845
 L 331.851,-20.5927 L 331.64,-21.4019 L 331.603,-22.2373 L 331.739,-23.0623 L 332.044,-23.8409 L 332.505,-24.539
 L 333.1,-25.1261 L 333.805,-25.5767 L 345.209,-31.2873 L 346.347,-31.6569 L 347.181,-31.7065 L 348.008,-31.5815
 L 348.791,-31.2873 L 360.195,-25.5767 L 360.756,-25.2361 L 361.377,-24.6765 L 361.869,-24 L 362.209,-23.2361
 L 362.383,-22.4181 L 362.383,-21.5819 L 362.209,-20.7639 L 361.869,-20 L 361.377,-19.3235 L 360.756,-18.7639
 L 360.031,-18.3458 L 359.236,-18.0874 L 358.404,-18 z
" stroke="black" fill="lightgray" stroke-width="0.5"/>
</svg>
