<?xml version="1.0" standalone="no"?>
<!DOCTYPE svg PUBLIC "-//W3C//DTD SVG 1.1//EN" "http://www.w3.org/Graphics/SVG/1.1/DTD/svg11.dtd">
<svg width="755mm" height="80mm" viewBox="0 -80 755 80" xmlns="http://www.w3.org/2000/svg" version="1.1">
<title>OpenSCAD Model</title>
<path d="
M 755,-80 L 0,-80 L 0,-0 L 4.95,-0 L 4.95,-6 L 5.00572,-6.53017
 L 5.17046,-7.03717 L 5.437,-7.49884 L 5.79372,-7.895 L 6.22499,-8.20836 L 6.71201,-8.42519 L 7.23344,-8.53603
 L 7.76654,-8.53603 L 8.28798,-8.42519 L 8.77499,-8.20836 L 9.20627,-7.895 L 9.56299,-7.49884 L 9.82953,-7.03717
 L 9.99426,-6.53017 L 10.05,-6 L 10.05,-0 L 152.95,-0 L 152.95,-6 L 153.006,-6.53017
 L 153.17,-7.03717 L 153.437,-7.49884 L 153.794,-7.895 L 154.225,-8.20836 L 154.712,-8.42519 L 155.233,-8.53603
 L 155.767,-8.53603 L 156.288,-8.42519 L 156.775,-8.20836 L 157.206,-7.895 L 157.563,-7.49884 L 157.83,-7.03717
 L 157.994,-6.53017 L 158.05,-6 L 158.05,-0 L 300.95,-0 L 300.95,-6 L 301.006,-6.53017
 L 301.17,-7.03717 L 301.437,-7.49884 L 301.794,-7.895 L 302.225,-8.20836 L 302.712,-8.42519 L 303.233,-8.53603
 L 303.767,-8.53603 L 304.288,-8.42519 L 304.775,-8.20836 L 305.206,-7.895 L 305.563,-7.49884 L 305.83,-7.03717
 L 305.994,-6.53017 L 306.05,-6 L 306.05,-0 L 448.95,-0 L 448.95,-6 L 449.006,-6.53017
 L 449.17,-7.03717 L 449.437,-7.49884 L 449.794,-7.895 L 450.225,-8.20836 L 450.712,-8.42519 L 451.233,-8.53603
 L 451.767,-8.53603 L 452.288,-8.42519 L 452.775,-8.20836 L 453.206,-7.895 L 453.563,-7.49884 L 453.83,-7.03717
 L 453.994,-6.53017 L 454.05,-6 L 454.05,-0 L 596.95,-0 L 596.95,-6 L 597.006,-6.53017
 L 597.17,-7.03717 L 597.437,-7.49884 L 597.794,-7.895 L 598.225,-8.20836 L 598.712,-8.42519 L 599.233,-8.53603
 L 599.767,-8.53603 L 600.288,-8.42519 L 600.775,-8.20836 L 601.206,-7.895 L 601.563,-7.49884 L 601.83,-7.03717
 L 601.994,-6.53017 L 602.05,-6 L 602.05,-0 L 744.95,-0 L 744.95,-6 L 745.006,-6.53017
 L 745.17,-7.03717 L 745.437,-7.49884 L 745.794,-7.895 L 746.225,-8.20836 L 746.712,-8.42519 L 747.233,-8.53603
 L 747.767,-8.53603 L 748.288,-8.42519 L 748.775,-8.20836 L 749.206,-7.895 L 749.563,-7.49884 L 749.83,-7.03717
 L 749.994,-6.53017 L 750.05,-6 L 750.05,-0 L 755,-0 z
M 6.98573,-55.607 L 6.47708,-55.6875 L 5.97964,-55.8208 L 5.49887,-56.0054 L 5.04001,-56.2392 L 4.60811,-56.5196
 L 4.20789,-56.8437 L 3.84373,-57.2079 L 3.51964,-57.6081 L 3.23917,-58.04 L 3.00537,-58.4989 L 2.82082,-58.9796
 L 2.68752,-59.4771 L 2.60696,-59.9857 L 2.58,-60.5 L 2.60696,-61.0143 L 2.68752,-61.5229 L 2.82082,-62.0204
 L 3.00537,-62.5011 L 3.23917,-62.96 L 3.51964,-63.3919 L 3.84373,-63.7921 L 4.20789,-64.1563 L 4.60811,-64.4804
 L 4.95001,-64.7024 L 4.95001,-74 L 5.00574,-74.5302 L 5.17047,-75.0372 L 5.43701,-75.4988 L 5.79373,-75.895
 L 6.22501,-76.2084 L 6.71202,-76.4252 L 7.23346,-76.536 L 7.76654,-76.536 L 8.28798,-76.4252 L 8.77499,-76.2084
 L 9.20627,-75.895 L 9.56299,-75.4988 L 9.82953,-75.0372 L 9.99426,-74.5302 L 10.05,-74 L 10.05,-64.7024
 L 10.3919,-64.4804 L 10.7921,-64.1563 L 11.1563,-63.7921 L 11.4804,-63.3919 L 11.7608,-62.96 L 11.9946,-62.5011
 L 12.1792,-62.0204 L 12.3125,-61.5229 L 12.393,-61.0143 L 12.42,-60.5 L 12.393,-59.9857 L 12.3125,-59.4771
 L 12.1792,-58.9796 L 11.9946,-58.4989 L 11.7608,-58.04 L 11.4804,-57.6081 L 11.1563,-57.2079 L 10.7921,-56.8437
 L 10.3919,-56.5196 L 9.95999,-56.2392 L 9.50113,-56.0054 L 9.02036,-55.8208 L 8.52292,-55.6875 L 8.01427,-55.607
 L 7.5,-55.58 z
M 154.986,-55.607 L 154.477,-55.6875 L 153.98,-55.8208 L 153.499,-56.0054 L 153.04,-56.2392 L 152.608,-56.5196
 L 152.208,-56.8437 L 151.844,-57.2079 L 151.52,-57.6081 L 151.239,-58.04 L 151.005,-58.4989 L 150.821,-58.9796
 L 150.688,-59.4771 L 150.607,-59.9857 L 150.58,-60.5 L 150.607,-61.0143 L 150.688,-61.5229 L 150.821,-62.0204
 L 151.005,-62.5011 L 151.239,-62.96 L 151.52,-63.3919 L 151.844,-63.7921 L 152.208,-64.1563 L 152.608,-64.4804
 L 152.95,-64.7024 L 152.95,-74 L 153.006,-74.5302 L 153.17,-75.0372 L 153.437,-75.4988 L 153.794,-75.895
 L 154.225,-76.2084 L 154.712,-76.4252 L 155.233,-76.536 L 155.767,-76.536 L 156.288,-76.4252 L 156.775,-76.2084
 L 157.206,-75.895 L 157.563,-75.4988 L 157.83,-75.0372 L 157.994,-74.5302 L 158.05,-74 L 158.05,-64.7024
 L 158.392,-64.4804 L 158.792,-64.1563 L 159.156,-63.7921 L 159.48,-63.3919 L 159.761,-62.96 L 159.995,-62.5011
 L 160.179,-62.0204 L 160.312,-61.5229 L 160.393,-61.0143 L 160.42,-60.5 L 160.393,-59.9857 L 160.312,-59.4771
 L 160.179,-58.9796 L 159.995,-58.4989 L 159.761,-58.04 L 159.48,-57.6081 L 159.156,-57.2079 L 158.792,-56.8437
 L 158.392,-56.5196 L 157.96,-56.2392 L 157.501,-56.0054 L 157.02,-55.8208 L 156.523,-55.6875 L 156.014,-55.607
 L 155.5,-55.58 z
M 302.986,-55.607 L 302.477,-55.6875 L 301.98,-55.8208 L 301.499,-56.0054 L 301.04,-56.2392 L 300.608,-56.5196
 L 300.208,-56.8437 L 299.844,-57.2079 L 299.52,-57.6081 L 299.239,-58.04 L 299.005,-58.4989 L 298.821,-58.9796
 L 298.688,-59.4771 L 298.607,-59.9857 L 298.58,-60.5 L 298.607,-61.0143 L 298.688,-61.5229 L 298.821,-62.0204
 L 299.005,-62.5011 L 299.239,-62.96 L 299.52,-63.3919 L 299.844,-63.7921 L 300.208,-64.1563 L 300.608,-64.4804
 L 300.95,-64.7024 L 300.95,-74 L 301.006,-74.5302 L 301.17,-75.0372 L 301.437,-75.4988 L 301.794,-75.895
 L 302.225,-76.2084 L 302.712,-76.4252 L 303.233,-76.536 L 303.767,-76.536 L 304.288,-76.4252 L 304.775,-76.2084
 L 305.206,-75.895 L 305.563,-75.4988 L 305.83,-75.0372 L 305.994,-74.5302 L 306.05,-74 L 306.05,-64.7024
 L 306.392,-64.4804 L 306.792,-64.1563 L 307.156,-63.7921 L 307.48,-63.3919 L 307.761,-62.96 L 307.995,-62.5011
 L 308.179,-62.0204 L 308.312,-61.5229 L 308.393,-61.0143 L 308.42,-60.5 L 308.393,-59.9857 L 308.312,-59.4771
 L 308.179,-58.9796 L 307.995,-58.4989 L 307.761,-58.04 L 307.48,-57.6081 L 307.156,-57.2079 L 306.792,-56.8437
 L 306.392,-56.5196 L 305.96,-56.2392 L 305.501,-56.0054 L 305.02,-55.8208 L 304.523,-55.6875 L 304.014,-55.607
 L 303.5,-55.58 z
M 450.986,-55.607 L 450.477,-55.6875 L 449.98,-55.8208 L 449.499,-56.0054 L 449.04,-56.2392 L 448.608,-56.5196
 L 448.208,-56.8437 L 447.844,-57.2079 L 447.52,-57.6081 L 447.239,-58.04 L 447.005,-58.4989 L 446.821,-58.9796
 L 446.688,-59.4771 L 446.607,-59.9857 L 446.58,-60.5 L 446.607,-61.0143 L 446.688,-61.5229 L 446.821,-62.0204
 L 447.005,-62.5011 L 447.239,-62.96 L 447.52,-63.3919 L 447.844,-63.7921 L 448.208,-64.1563 L 448.608,-64.4804
 L 448.95,-64.7024 L 448.95,-74 L 449.006,-74.5302 L 449.17,-75.0372 L 449.437,-75.4988 L 449.794,-75.895
 L 450.225,-76.2084 L 450.712,-76.4252 L 451.233,-76.536 L 451.767,-76.536 L 452.288,-76.4252 L 452.775,-76.2084
 L 453.206,-75.895 L 453.563,-75.4988 L 453.83,-75.0372 L 453.994,-74.5302 L 454.05,-74 L 454.05,-64.7024
 L 454.392,-64.4804 L 454.792,-64.1563 L 455.156,-63.7921 L 455.48,-63.3919 L 455.761,-62.96 L 455.995,-62.5011
 L 456.179,-62.0204 L 456.312,-61.5229 L 456.393,-61.0143 L 456.42,-60.5 L 456.393,-59.9857 L 456.312,-59.4771
 L 456.179,-58.9796 L 455.995,-58.4989 L 455.761,-58.04 L 455.48,-57.6081 L 455.156,-57.2079 L 454.792,-56.8437
 L 454.392,-56.5196 L 453.96,-56.2392 L 453.501,-56.0054 L 453.02,-55.8208 L 452.523,-55.6875 L 452.014,-55.607
 L 451.5,-55.58 z
M 598.986,-55.607 L 598.477,-55.6875 L 597.98,-55.8208 L 597.499,-56.0054 L 597.04,-56.2392 L 596.608,-56.5196
 L 596.208,-56.8437 L 595.844,-57.2079 L 595.52,-57.6081 L 595.239,-58.04 L 595.005,-58.4989 L 594.821,-58.9796
 L 594.688,-59.4771 L 594.607,-59.9857 L 594.58,-60.5 L 594.607,-61.0143 L 594.688,-61.5229 L 594.821,-62.0204
 L 595.005,-62.5011 L 595.239,-62.96 L 595.52,-63.3919 L 595.844,-63.7921 L 596.208,-64.1563 L 596.608,-64.4804
 L 596.95,-64.7024 L 596.95,-74 L 597.006,-74.5302 L 597.17,-75.0372 L 597.437,-75.4988 L 597.794,-75.895
 L 598.225,-76.2084 L 598.712,-76.4252 L 599.233,-76.536 L 599.767,-76.536 L 600.288,-76.4252 L 600.775,-76.2084
 L 601.206,-75.895 L 601.563,-75.4988 L 601.83,-75.0372 L 601.994,-74.5302 L 602.05,-74 L 602.05,-64.7024
 L 602.392,-64.4804 L 602.792,-64.1563 L 603.156,-63.7921 L 603.48,-63.3919 L 603.761,-62.96 L 603.995,-62.5011
 L 604.179,-62.0204 L 604.312,-61.5229 L 604.393,-61.0143 L 604.42,-60.5 L 604.393,-59.9857 L 604.312,-59.4771
 L 604.179,-58.9796 L 603.995,-58.4989 L 603.761,-58.04 L 603.48,-57.6081 L 603.156,-57.2079 L 602.792,-56.8437
 L 602.392,-56.5196 L 601.96,-56.2392 L 601.501,-56.0054 L 601.02,-55.8208 L 600.523,-55.6875 L 600.014,-55.607
 L 599.5,-55.58 z
M 746.986,-55.607 L 746.477,-55.6875 L 745.98,-55.8208 L 745.499,-56.0054 L 745.04,-56.2392 L 744.608,-56.5196
 L 744.208,-56.8437 L 743.844,-57.2079 L 743.52,-57.6081 L 743.239,-58.04 L 743.005,-58.4989 L 742.821,-58.9796
 L 742.688,-59.4771 L 742.607,-59.9857 L 742.58,-60.5 L 742.607,-61.0143 L 742.688,-61.5229 L 742.821,-62.0204
 L 743.005,-62.5011 L 743.239,-62.96 L 743.52,-63.3919 L 743.844,-63.7921 L 744.208,-64.1563 L 744.608,-64.4804
 L 744.95,-64.7024 L 744.95,-74 L 745.006,-74.5302 L 745.17,-75.0372 L 745.437,-75.4988 L 745.794,-75.895
 L 746.225,-76.2084 L 746.712,-76.4252 L 747.233,-76.536 L 747.767,-76.536 L 748.288,-76.4252 L 748.775,-76.2084
 L 749.206,-75.895 L 749.563,-75.4988 L 749.83,-75.0372 L 749.994,-74.5302 L 750.05,-74 L 750.05,-64.7024
 L 750.392,-64.4804 L 750.792,-64.1563 L 751.156,-63.7921 L 751.48,-63.3919 L 751.761,-62.96 L 751.995,-62.5011
 L 752.179,-62.0204 L 752.312,-61.5229 L 752.393,-61.0143 L 752.42,-60.5 L 752.393,-59.9857 L 752.312,-59.4771
 L 752.179,-58.9796 L 751.995,-58.4989 L 751.761,-58.04 L 751.48,-57.6081 L 751.156,-57.2079 L 750.792,-56.8437
 L 750.392,-56.5196 L 749.96,-56.2392 L 749.501,-56.0054 L 749.02,-55.8208 L 748.523,-55.6875 L 748.014,-55.607
 L 747.5,-55.58 z
M 376.622,-48.2022 L 375.83,-48.47 L 362.999,-54.3653 L 362.318,-54.7639 L 361.696,-55.3235 L 361.205,-56
 L 360.865,-56.7639 L 360.691,-57.5819 L 360.691,-58.4181 L 360.865,-59.2361 L 361.205,-60 L 361.696,-60.6765
 L 362.318,-61.2361 L 363.042,-61.6542 L 363.837,-61.9126 L 364.669,-62 L 390.331,-62 L 391.116,-61.9221
 L 391.915,-61.6731 L 392.644,-61.2636 L 393.272,-60.7115 L 393.771,-60.0408 L 394.12,-59.2809 L 394.304,-58.4651
 L 394.314,-57.6289 L 394.15,-56.809 L 393.818,-56.0411 L 393.335,-55.3588 L 392.72,-54.7919 L 392.001,-54.3653
 L 379.17,-48.47 L 378.285,-48.1825 L 377.453,-48.1049 z
M 289.622,-22.376 L 288.83,-22.6438 L 219.789,-54.3653 L 219.108,-54.7639 L 218.486,-55.3235 L 217.995,-56
 L 217.655,-56.7639 L 217.481,-57.5819 L 217.481,-58.4181 L 217.655,-59.2361 L 217.995,-60 L 218.486,-60.6765
 L 219.108,-61.2361 L 219.832,-61.6542 L 220.627,-61.9126 L 221.459,-62 L 290.5,-62 L 291.736,-61.8042
 L 292.5,-61.4641 L 293.177,-60.9726 L 293.736,-60.3511 L 294.154,-59.627 L 294.413,-58.8316 L 294.5,-58
 L 294.5,-26.2785 L 294.473,-25.8134 L 294.289,-24.9975 L 293.94,-24.2377 L 293.441,-23.567 L 292.813,-23.0149
 L 292.084,-22.6053 L 291.285,-22.3563 L 290.453,-22.2787 z
M 611.715,-22.3563 L 610.916,-22.6053 L 610.187,-23.0149 L 609.559,-23.567 L 609.06,-24.2377 L 608.711,-24.9975
 L 608.527,-25.8134 L 608.5,-26.2785 L 608.5,-58 L 608.587,-58.8316 L 608.846,-59.627 L 609.264,-60.3511
 L 609.823,-60.9726 L 610.5,-61.4641 L 611.264,-61.8042 L 612.5,-62 L 681.541,-62 L 682.373,-61.9126
 L 683.168,-61.6542 L 683.892,-61.2361 L 684.514,-60.6765 L 685.005,-60 L 685.345,-59.2361 L 685.519,-58.4181
 L 685.519,-57.5819 L 685.345,-56.7639 L 685.005,-56 L 684.514,-55.3235 L 683.892,-54.7639 L 683.211,-54.3653
 L 614.17,-22.6438 L 613.378,-22.376 L 612.547,-22.2787 z
M 141.622,-22.376 L 140.83,-22.6438 L 71.789,-54.3653 L 71.1079,-54.7639 L 70.4865,-55.3235 L 69.9949,-56
 L 69.6548,-56.7639 L 69.481,-57.5819 L 69.481,-58.4181 L 69.6548,-59.2361 L 69.9949,-60 L 70.4865,-60.6765
 L 71.1079,-61.2361 L 71.8321,-61.6542 L 72.6274,-61.9126 L 73.459,-62 L 142.5,-62 L 143.736,-61.8042
 L 144.5,-61.4641 L 145.177,-60.9726 L 145.736,-60.3511 L 146.154,-59.627 L 146.413,-58.8316 L 146.5,-58
 L 146.5,-26.2785 L 146.473,-25.8134 L 146.289,-24.9975 L 145.94,-24.2377 L 145.441,-23.567 L 144.813,-23.0149
 L 144.084,-22.6053 L 143.285,-22.3563 L 142.453,-22.2787 z
M 463.715,-22.3563 L 462.916,-22.6053 L 462.187,-23.0149 L 461.559,-23.567 L 461.06,-24.2377 L 460.711,-24.9975
 L 460.527,-25.8134 L 460.5,-26.2785 L 460.5,-58 L 460.587,-58.8316 L 460.846,-59.627 L 461.264,-60.3511
 L 461.823,-60.9726 L 462.5,-61.4641 L 463.264,-61.8042 L 464.5,-62 L 533.541,-62 L 534.373,-61.9126
 L 535.168,-61.6542 L 535.892,-61.2361 L 536.514,-60.6765 L 537.005,-60 L 537.345,-59.2361 L 537.519,-58.4181
 L 537.519,-57.5819 L 537.345,-56.7639 L 537.005,-56 L 536.514,-55.3235 L 535.892,-54.7639 L 535.211,-54.3653
 L 466.17,-22.6438 L 465.378,-22.376 L 464.547,-22.2787 z
M 316.082,-20.0996 L 315.264,-20.2734 L 314.5,-20.6136 L 313.823,-21.1051 L 313.264,-21.7265 L 312.846,-22.4507
 L 312.587,-23.246 L 312.5,-24.0777 L 312.5,-55.9223 L 312.527,-56.3874 L 312.711,-57.2033 L 313.06,-57.9631
 L 313.559,-58.6338 L 314.187,-59.186 L 314.916,-59.5955 L 315.715,-59.8445 L 316.547,-59.9221 L 317.378,-59.8248
 L 318.17,-59.5571 L 352.825,-43.6347 L 353.467,-43.2636 L 354.095,-42.7115 L 354.595,-42.0408 L 354.944,-41.2809
 L 355.127,-40.4651 L 355.137,-39.6289 L 354.973,-38.809 L 354.642,-38.0411 L 354.159,-37.3588 L 353.544,-36.7919
 L 352.825,-36.3653 L 318.17,-20.4429 L 317.736,-20.2734 L 316.918,-20.0996 z
M 437.622,-20.1751 L 436.83,-20.4429 L 402.175,-36.3653 L 401.533,-36.7364 L 400.905,-37.2885 L 400.405,-37.9592
 L 400.056,-38.7191 L 399.873,-39.5349 L 399.863,-40.3711 L 400.027,-41.191 L 400.358,-41.9589 L 400.841,-42.6412
 L 401.456,-43.2081 L 402.175,-43.6347 L 436.83,-59.5571 L 437.264,-59.7266 L 438.082,-59.9005 L 438.918,-59.9005
 L 439.736,-59.7266 L 440.5,-59.3865 L 441.177,-58.8949 L 441.736,-58.2735 L 442.154,-57.5493 L 442.413,-56.754
 L 442.5,-55.9224 L 442.5,-24.0776 L 442.473,-23.6126 L 442.289,-22.7967 L 441.94,-22.0368 L 441.441,-21.3662
 L 440.813,-20.814 L 440.084,-20.4045 L 439.285,-20.1555 L 438.453,-20.0779 z
M 168.5,-18 L 167.264,-18.1958 L 166.5,-18.5359 L 165.823,-19.0274 L 165.264,-19.6489 L 164.846,-20.373
 L 164.587,-21.1684 L 164.5,-22 L 164.5,-53.7215 L 164.527,-54.1866 L 164.711,-55.0024 L 165.06,-55.7623
 L 165.559,-56.433 L 166.187,-56.9851 L 166.916,-57.3947 L 167.715,-57.6436 L 168.547,-57.7212 L 169.378,-57.624
 L 170.17,-57.3562 L 239.211,-25.6347 L 239.892,-25.2361 L 240.514,-24.6765 L 241.005,-24 L 241.345,-23.2361
 L 241.519,-22.4181 L 241.519,-21.5819 L 241.345,-20.7639 L 241.005,-20 L 240.514,-19.3235 L 239.892,-18.7639
 L 239.168,-18.3458 L 238.373,-18.0874 L 237.541,-18 z
M 517.459,-18 L 516.627,-18.0874 L 515.832,-18.3458 L 515.108,-18.7639 L 514.486,-19.3235 L 513.995,-20
 L 513.655,-20.7639 L 513.481,-21.5819 L 513.481,-22.4181 L 513.655,-23.2361 L 513.995,-24 L 514.486,-24.6765
 L 515.108,-25.2361 L 515.789,-25.6347 L 584.83,-57.3562 L 585.622,-57.624 L 586.453,-57.7212 L 587.285,-57.6436
 L 588.084,-57.3947 L 588.813,-56.9851 L 589.441,-56.433 L 589.94,-55.7623 L 590.289,-55.0024 L 590.473,-54.1866
 L 590.5,-53.7215 L 590.5,-22 L 590.413,-21.1684 L 590.154,-20.373 L 589.736,-19.6489 L 589.177,-19.0274
 L 588.5,-18.5359 L 587.736,-18.1958 L 586.5,-18 z
M 22,-18 L 20.7639,-18.1958 L 20,-18.5359 L 19.3235,-19.0274 L 18.7639,-19.6489 L 18.3458,-20.373
 L 18.0874,-21.1684 L 18,-22 L 18,-53.0323 L 18.0271,-53.4974 L 18.2106,-54.3132 L 18.5598,-55.0731
 L 19.0592,-55.7438 L 19.6873,-56.2959 L 20.4163,-56.7055 L 21.2146,-56.9545 L 22.0473,-57.032 L 22.8778,-56.9348
 L 23.67,-56.667 L 91.2109,-25.6347 L 91.8921,-25.2361 L 92.5135,-24.6765 L 93.005,-24 L 93.3452,-23.2361
 L 93.519,-22.4181 L 93.519,-21.5819 L 93.3452,-20.7639 L 93.005,-20 L 92.5135,-19.3235 L 91.8921,-18.7639
 L 91.1679,-18.3458 L 90.3726,-18.0874 L 89.5409,-18 z
M 665.459,-18 L 664.627,-18.0874 L 663.832,-18.3458 L 663.108,-18.7639 L 662.486,-19.3235 L 661.995,-20
 L 661.655,-20.7639 L 661.481,-21.5819 L 661.481,-22.4181 L 661.655,-23.2361 L 661.995,-24 L 662.486,-24.6765
 L 663.108,-25.2361 L 663.789,-25.6347 L 731.33,-56.667 L 732.122,-56.9348 L 732.953,-57.032 L 733.785,-56.9545
 L 734.584,-56.7055 L 735.313,-56.2959 L 735.941,-55.7438 L 736.44,-55.0731 L 736.789,-54.3132 L 736.973,-53.4974
 L 737,-53.0323 L 737,-22 L 736.913,-21.1684 L 736.654,-20.373 L 736.236,-19.6489 L 735.677,-19.0274
 L 735,-18.5359 L 734.236,-18.1958 L 733,-18 z
M 364.669,-18 L 363.884,-18.0779 L 363.085,-18.3269 L 362.356,-18.7364 L 361.728,-19.2885 L 361.229,-19.9592
 L 360.88,-20.7191 L 360.696,-21.5349 L 360.686,-22.3711 L 360.85,-23.191 L 361.181,-23.9589 L 361.665,-24.6412
 L 362.28,-25.2081 L 362.999,-25.6347 L 375.83,-31.53 L 376.715,-31.8175 L 377.547,-31.8951 L 378.378,-31.7978
 L 379.17,-31.53 L 392.001,-25.6347 L 392.682,-25.2361 L 393.304,-24.6765 L 393.795,-24 L 394.135,-23.2361
 L 394.309,-22.4181 L 394.309,-21.5819 L 394.135,-20.7639 L 393.795,-20 L 393.304,-19.3235 L 392.682,-18.7639
 L 391.958,-18.3458 L 391.163,-18.0874 L 390.331,-18 z
" stroke="black" fill="lightgray" stroke-width="0.5"/>
</svg>
