<?xml version="1.0" standalone="no"?>
<!DOCTYPE svg PUBLIC "-//W3C//DTD SVG 1.1//EN" "http://www.w3.org/Graphics/SVG/1.1/DTD/svg11.dtd">
<svg width="980mm" height="80mm" viewBox="0 -80 980 80" xmlns="http://www.w3.org/2000/svg" version="1.1">
<title>OpenSCAD Model</title>
<path d="
M 980,-80 L 0,-80 L 0,-0 L 4.95,-0 L 4.95,-6 L 5.00572,-6.53017
 L 5.17046,-7.03717 L 5.437,-7.49884 L 5.79372,-7.895 L 6.22499,-8.20836 L 6.71201,-8.42519 L 7.23344,-8.53603
 L 7.76654,-8.53603 L 8.28798,-8.42519 L 8.77499,-8.20836 L 9.20627,-7.895 L 9.56299,-7.49884 L 9.82953,-7.03717
 L 9.99426,-6.53017 L 10.05,-6 L 10.05,-0 L 197.95,-0 L 197.95,-6 L 198.006,-6.53017
 L 198.17,-7.03717 L 198.437,-7.49884 L 198.794,-7.895 L 199.225,-8.20836 L 199.712,-8.42519 L 200.233,-8.53603
 L 200.767,-8.53603 L 201.288,-8.42519 L 201.775,-8.20836 L 202.206,-7.895 L 202.563,-7.49884 L 202.83,-7.03717
 L 202.994,-6.53017 L 203.05,-6 L 203.05,-0 L 390.95,-0 L 390.95,-6 L 391.006,-6.53017
 L 391.17,-7.03717 L 391.437,-7.49884 L 391.794,-7.895 L 392.225,-8.20836 L 392.712,-8.42519 L 393.233,-8.53603
 L 393.767,-8.53603 L 394.288,-8.42519 L 394.775,-8.20836 L 395.206,-7.895 L 395.563,-7.49884 L 395.83,-7.03717
 L 395.994,-6.53017 L 396.05,-6 L 396.05,-0 L 583.95,-0 L 583.95,-6 L 584.006,-6.53017
 L 584.17,-7.03717 L 584.437,-7.49884 L 584.794,-7.895 L 585.225,-8.20836 L 585.712,-8.42519 L 586.233,-8.53603
 L 586.767,-8.53603 L 587.288,-8.42519 L 587.775,-8.20836 L 588.206,-7.895 L 588.563,-7.49884 L 588.83,-7.03717
 L 588.994,-6.53017 L 589.05,-6 L 589.05,-0 L 776.95,-0 L 776.95,-6 L 777.006,-6.53017
 L 777.17,-7.03717 L 777.437,-7.49884 L 777.794,-7.895 L 778.225,-8.20836 L 778.712,-8.42519 L 779.233,-8.53603
 L 779.767,-8.53603 L 780.288,-8.42519 L 780.775,-8.20836 L 781.206,-7.895 L 781.563,-7.49884 L 781.83,-7.03717
 L 781.994,-6.53017 L 782.05,-6 L 782.05,-0 L 969.95,-0 L 969.95,-6 L 970.006,-6.53017
 L 970.17,-7.03717 L 970.437,-7.49884 L 970.794,-7.895 L 971.225,-8.20836 L 971.712,-8.42519 L 972.233,-8.53603
 L 972.767,-8.53603 L 973.288,-8.42519 L 973.775,-8.20836 L 974.206,-7.895 L 974.563,-7.49884 L 974.83,-7.03717
 L 974.994,-6.53017 L 975.05,-6 L 975.05,-0 L 980,-0 z
M 6.98573,-55.607 L 6.47708,-55.6875 L 5.97964,-55.8208 L 5.49887,-56.0054 L 5.04001,-56.2392 L 4.60811,-56.5196
 L 4.20789,-56.8437 L 3.84373,-57.2079 L 3.51964,-57.6081 L 3.23917,-58.04 L 3.00537,-58.4989 L 2.82082,-58.9796
 L 2.68752,-59.4771 L 2.60696,-59.9857 L 2.58,-60.5 L 2.60696,-61.0143 L 2.68752,-61.5229 L 2.82082,-62.0204
 L 3.00537,-62.5011 L 3.23917,-62.96 L 3.51964,-63.3919 L 3.84373,-63.7921 L 4.20789,-64.1563 L 4.60811,-64.4804
 L 4.95001,-64.7024 L 4.95001,-74 L 5.00574,-74.5302 L 5.17047,-75.0372 L 5.43701,-75.4988 L 5.79373,-75.895
 L 6.22501,-76.2084 L 6.71202,-76.4252 L 7.23346,-76.536 L 7.76654,-76.536 L 8.28798,-76.4252 L 8.77499,-76.2084
 L 9.20627,-75.895 L 9.56299,-75.4988 L 9.82953,-75.0372 L 9.99426,-74.5302 L 10.05,-74 L 10.05,-64.7024
 L 10.3919,-64.4804 L 10.7921,-64.1563 L 11.1563,-63.7921 L 11.4804,-63.3919 L 11.7608,-62.96 L 11.9946,-62.5011
 L 12.1792,-62.0204 L 12.3125,-61.5229 L 12.393,-61.0143 L 12.42,-60.5 L 12.393,-59.9857 L 12.3125,-59.4771
 L 12.1792,-58.9796 L 11.9946,-58.4989 L 11.7608,-58.04 L 11.4804,-57.6081 L 11.1563,-57.2079 L 10.7921,-56.8437
 L 10.3919,-56.5196 L 9.95999,-56.2392 L 9.50113,-56.0054 L 9.02036,-55.8208 L 8.52292,-55.6875 L 8.01427,-55.607
 L 7.5,-55.58 z
M 199.986,-55.607 L 199.477,-55.6875 L 198.98,-55.8208 L 198.499,-56.0054 L 198.04,-56.2392 L 197.608,-56.5196
 L 197.208,-56.8437 L 196.844,-57.2079 L 196.52,-57.6081 L 196.239,-58.04 L 196.005,-58.4989 L 195.821,-58.9796
 L 195.688,-59.4771 L 195.607,-59.9857 L 195.58,-60.5 L 195.607,-61.0143 L 195.688,-61.5229 L 195.821,-62.0204
 L 196.005,-62.5011 L 196.239,-62.96 L 196.52,-63.3919 L 196.844,-63.7921 L 197.208,-64.1563 L 197.608,-64.4804
 L 197.95,-64.7024 L 197.95,-74 L 198.006,-74.5302 L 198.17,-75.0372 L 198.437,-75.4988 L 198.794,-75.895
 L 199.225,-76.2084 L 199.712,-76.4252 L 200.233,-76.536 L 200.767,-76.536 L 201.288,-76.4252 L 201.775,-76.2084
 L 202.206,-75.895 L 202.563,-75.4988 L 202.83,-75.0372 L 202.994,-74.5302 L 203.05,-74 L 203.05,-64.7024
 L 203.392,-64.4804 L 203.792,-64.1563 L 204.156,-63.7921 L 204.48,-63.3919 L 204.761,-62.96 L 204.995,-62.5011
 L 205.179,-62.0204 L 205.312,-61.5229 L 205.393,-61.0143 L 205.42,-60.5 L 205.393,-59.9857 L 205.312,-59.4771
 L 205.179,-58.9796 L 204.995,-58.4989 L 204.761,-58.04 L 204.48,-57.6081 L 204.156,-57.2079 L 203.792,-56.8437
 L 203.392,-56.5196 L 202.96,-56.2392 L 202.501,-56.0054 L 202.02,-55.8208 L 201.523,-55.6875 L 201.014,-55.607
 L 200.5,-55.58 z
M 392.986,-55.607 L 392.477,-55.6875 L 391.98,-55.8208 L 391.499,-56.0054 L 391.04,-56.2392 L 390.608,-56.5196
 L 390.208,-56.8437 L 389.844,-57.2079 L 389.52,-57.6081 L 389.239,-58.04 L 389.005,-58.4989 L 388.821,-58.9796
 L 388.688,-59.4771 L 388.607,-59.9857 L 388.58,-60.5 L 388.607,-61.0143 L 388.688,-61.5229 L 388.821,-62.0204
 L 389.005,-62.5011 L 389.239,-62.96 L 389.52,-63.3919 L 389.844,-63.7921 L 390.208,-64.1563 L 390.608,-64.4804
 L 390.95,-64.7024 L 390.95,-74 L 391.006,-74.5302 L 391.17,-75.0372 L 391.437,-75.4988 L 391.794,-75.895
 L 392.225,-76.2084 L 392.712,-76.4252 L 393.233,-76.536 L 393.767,-76.536 L 394.288,-76.4252 L 394.775,-76.2084
 L 395.206,-75.895 L 395.563,-75.4988 L 395.83,-75.0372 L 395.994,-74.5302 L 396.05,-74 L 396.05,-64.7024
 L 396.392,-64.4804 L 396.792,-64.1563 L 397.156,-63.7921 L 397.48,-63.3919 L 397.761,-62.96 L 397.995,-62.5011
 L 398.179,-62.0204 L 398.312,-61.5229 L 398.393,-61.0143 L 398.42,-60.5 L 398.393,-59.9857 L 398.312,-59.4771
 L 398.179,-58.9796 L 397.995,-58.4989 L 397.761,-58.04 L 397.48,-57.6081 L 397.156,-57.2079 L 396.792,-56.8437
 L 396.392,-56.5196 L 395.96,-56.2392 L 395.501,-56.0054 L 395.02,-55.8208 L 394.523,-55.6875 L 394.014,-55.607
 L 393.5,-55.58 z
M 585.986,-55.607 L 585.477,-55.6875 L 584.98,-55.8208 L 584.499,-56.0054 L 584.04,-56.2392 L 583.608,-56.5196
 L 583.208,-56.8437 L 582.844,-57.2079 L 582.52,-57.6081 L 582.239,-58.04 L 582.005,-58.4989 L 581.821,-58.9796
 L 581.688,-59.4771 L 581.607,-59.9857 L 581.58,-60.5 L 581.607,-61.0143 L 581.688,-61.5229 L 581.821,-62.0204
 L 582.005,-62.5011 L 582.239,-62.96 L 582.52,-63.3919 L 582.844,-63.7921 L 583.208,-64.1563 L 583.608,-64.4804
 L 583.95,-64.7024 L 583.95,-74 L 584.006,-74.5302 L 584.17,-75.0372 L 584.437,-75.4988 L 584.794,-75.895
 L 585.225,-76.2084 L 585.712,-76.4252 L 586.233,-76.536 L 586.767,-76.536 L 587.288,-76.4252 L 587.775,-76.2084
 L 588.206,-75.895 L 588.563,-75.4988 L 588.83,-75.0372 L 588.994,-74.5302 L 589.05,-74 L 589.05,-64.7024
 L 589.392,-64.4804 L 589.792,-64.1563 L 590.156,-63.7921 L 590.48,-63.3919 L 590.761,-62.96 L 590.995,-62.5011
 L 591.179,-62.0204 L 591.312,-61.5229 L 591.393,-61.0143 L 591.42,-60.5 L 591.393,-59.9857 L 591.312,-59.4771
 L 591.179,-58.9796 L 590.995,-58.4989 L 590.761,-58.04 L 590.48,-57.6081 L 590.156,-57.2079 L 589.792,-56.8437
 L 589.392,-56.5196 L 588.96,-56.2392 L 588.501,-56.0054 L 588.02,-55.8208 L 587.523,-55.6875 L 587.014,-55.607
 L 586.5,-55.58 z
M 778.986,-55.607 L 778.477,-55.6875 L 777.98,-55.8208 L 777.499,-56.0054 L 777.04,-56.2392 L 776.608,-56.5196
 L 776.208,-56.8437 L 775.844,-57.2079 L 775.52,-57.6081 L 775.239,-58.04 L 775.005,-58.4989 L 774.821,-58.9796
 L 774.688,-59.4771 L 774.607,-59.9857 L 774.58,-60.5 L 774.607,-61.0143 L 774.688,-61.5229 L 774.821,-62.0204
 L 775.005,-62.5011 L 775.239,-62.96 L 775.52,-63.3919 L 775.844,-63.7921 L 776.208,-64.1563 L 776.608,-64.4804
 L 776.95,-64.7024 L 776.95,-74 L 777.006,-74.5302 L 777.17,-75.0372 L 777.437,-75.4988 L 777.794,-75.895
 L 778.225,-76.2084 L 778.712,-76.4252 L 779.233,-76.536 L 779.767,-76.536 L 780.288,-76.4252 L 780.775,-76.2084
 L 781.206,-75.895 L 781.563,-75.4988 L 781.83,-75.0372 L 781.994,-74.5302 L 782.05,-74 L 782.05,-64.7024
 L 782.392,-64.4804 L 782.792,-64.1563 L 783.156,-63.7921 L 783.48,-63.3919 L 783.761,-62.96 L 783.995,-62.5011
 L 784.179,-62.0204 L 784.312,-61.5229 L 784.393,-61.0143 L 784.42,-60.5 L 784.393,-59.9857 L 784.312,-59.4771
 L 784.179,-58.9796 L 783.995,-58.4989 L 783.761,-58.04 L 783.48,-57.6081 L 783.156,-57.2079 L 782.792,-56.8437
 L 782.392,-56.5196 L 781.96,-56.2392 L 781.501,-56.0054 L 781.02,-55.8208 L 780.523,-55.6875 L 780.014,-55.607
 L 779.5,-55.58 z
M 971.986,-55.607 L 971.477,-55.6875 L 970.98,-55.8208 L 970.499,-56.0054 L 970.04,-56.2392 L 969.608,-56.5196
 L 969.208,-56.8437 L 968.844,-57.2079 L 968.52,-57.6081 L 968.239,-58.04 L 968.005,-58.4989 L 967.821,-58.9796
 L 967.688,-59.4771 L 967.607,-59.9857 L 967.58,-60.5 L 967.607,-61.0143 L 967.688,-61.5229 L 967.821,-62.0204
 L 968.005,-62.5011 L 968.239,-62.96 L 968.52,-63.3919 L 968.844,-63.7921 L 969.208,-64.1563 L 969.608,-64.4804
 L 969.95,-64.7024 L 969.95,-74 L 970.006,-74.5302 L 970.17,-75.0372 L 970.437,-75.4988 L 970.794,-75.895
 L 971.225,-76.2084 L 971.712,-76.4252 L 972.233,-76.536 L 972.767,-76.536 L 973.288,-76.4252 L 973.775,-76.2084
 L 974.206,-75.895 L 974.563,-75.4988 L 974.83,-75.0372 L 974.994,-74.5302 L 975.05,-74 L 975.05,-64.7024
 L 975.392,-64.4804 L 975.792,-64.1563 L 976.156,-63.7921 L 976.48,-63.3919 L 976.761,-62.96 L 976.995,-62.5011
 L 977.179,-62.0204 L 977.312,-61.5229 L 977.393,-61.0143 L 977.42,-60.5 L 977.393,-59.9857 L 977.312,-59.4771
 L 977.179,-58.9796 L 976.995,-58.4989 L 976.761,-58.04 L 976.48,-57.6081 L 976.156,-57.2079 L 975.792,-56.8437
 L 975.392,-56.5196 L 974.96,-56.2392 L 974.501,-56.0054 L 974.02,-55.8208 L 973.523,-55.6875 L 973.014,-55.607
 L 972.5,-55.58 z
M 489.484,-47.6927 L 488.671,-47.8866 L 470.674,-54.2273 L 469.652,-54.7639 L 469.031,-55.3235 L 468.539,-56
 L 468.199,-56.7639 L 468.025,-57.5819 L 468.025,-58.4181 L 468.199,-59.2361 L 468.539,-60 L 469.031,-60.6765
 L 469.652,-61.2361 L 470.377,-61.6542 L 471.172,-61.9126 L 472.003,-62 L 507.997,-62 L 509.139,-61.8335
 L 509.911,-61.5122 L 510.599,-61.0375 L 511.174,-60.43 L 511.61,-59.7163 L 511.887,-58.9276 L 511.995,-58.0984
 L 511.928,-57.2648 L 511.69,-56.4634 L 511.289,-55.7291 L 510.745,-55.0941 L 510.081,-54.5861 L 509.326,-54.2273
 L 491.329,-47.8866 L 490.32,-47.6721 z
M 379.984,-20.3928 L 379.171,-20.5867 L 283.691,-54.2273 L 282.669,-54.7639 L 282.048,-55.3235 L 281.556,-56
 L 281.216,-56.7639 L 281.042,-57.5819 L 281.042,-58.4181 L 281.216,-59.2361 L 281.556,-60 L 282.048,-60.6765
 L 282.669,-61.2361 L 283.393,-61.6542 L 284.188,-61.9126 L 285.02,-62 L 380.5,-62 L 381.736,-61.8042
 L 382.5,-61.4641 L 383.177,-60.9726 L 383.736,-60.3511 L 384.154,-59.627 L 384.413,-58.8316 L 384.5,-58
 L 384.5,-24.3594 L 384.391,-23.4318 L 384.113,-22.6431 L 383.677,-21.9294 L 383.103,-21.3219 L 382.414,-20.8472
 L 381.642,-20.526 L 380.82,-20.3723 z
M 791.358,-20.526 L 790.586,-20.8472 L 789.897,-21.3219 L 789.323,-21.9294 L 788.887,-22.6431 L 788.609,-23.4318
 L 788.5,-24.3594 L 788.5,-58 L 788.587,-58.8316 L 788.846,-59.627 L 789.264,-60.3511 L 789.823,-60.9726
 L 790.5,-61.4641 L 791.264,-61.8042 L 792.5,-62 L 887.98,-62 L 888.812,-61.9126 L 889.607,-61.6542
 L 890.331,-61.2361 L 890.952,-60.6765 L 891.444,-60 L 891.784,-59.2361 L 891.958,-58.4181 L 891.958,-57.5819
 L 891.784,-56.7639 L 891.444,-56 L 890.952,-55.3235 L 890.331,-54.7639 L 889.309,-54.2273 L 793.829,-20.5867
 L 793.016,-20.3928 L 792.18,-20.3723 z
M 186.984,-20.3928 L 186.171,-20.5867 L 90.6909,-54.2273 L 89.669,-54.7639 L 89.0475,-55.3235 L 88.556,-56
 L 88.2159,-56.7639 L 88.042,-57.5819 L 88.042,-58.4181 L 88.2159,-59.2361 L 88.556,-60 L 89.0475,-60.6765
 L 89.669,-61.2361 L 90.3932,-61.6542 L 91.1885,-61.9126 L 92.0201,-62 L 187.5,-62 L 188.736,-61.8042
 L 189.5,-61.4641 L 190.177,-60.9726 L 190.736,-60.3511 L 191.154,-59.627 L 191.413,-58.8316 L 191.5,-58
 L 191.5,-24.3594 L 191.391,-23.4318 L 191.113,-22.6431 L 190.677,-21.9294 L 190.103,-21.3219 L 189.414,-20.8472
 L 188.642,-20.526 L 187.82,-20.3723 z
M 598.358,-20.526 L 597.586,-20.8472 L 596.897,-21.3219 L 596.323,-21.9294 L 595.887,-22.6431 L 595.609,-23.4318
 L 595.5,-24.3594 L 595.5,-58 L 595.587,-58.8316 L 595.846,-59.627 L 596.264,-60.3511 L 596.823,-60.9726
 L 597.5,-61.4641 L 598.264,-61.8042 L 599.5,-62 L 694.98,-62 L 695.812,-61.9126 L 696.607,-61.6542
 L 697.331,-61.2361 L 697.952,-60.6765 L 698.444,-60 L 698.784,-59.2361 L 698.958,-58.4181 L 698.958,-57.5819
 L 698.784,-56.7639 L 698.444,-56 L 697.952,-55.3235 L 697.331,-54.7639 L 696.309,-54.2273 L 600.829,-20.5867
 L 600.016,-20.3928 L 599.18,-20.3723 z
M 406.082,-18.2615 L 405.264,-18.4353 L 404.5,-18.7755 L 403.823,-19.267 L 403.264,-19.8884 L 402.846,-20.6126
 L 402.587,-21.4079 L 402.5,-22.2396 L 402.5,-57.7604 L 402.609,-58.688 L 402.887,-59.4767 L 403.323,-60.1904
 L 403.897,-60.7979 L 404.586,-61.2727 L 405.358,-61.5939 L 406.18,-61.7476 L 407.016,-61.727 L 407.829,-61.5331
 L 458.238,-43.7727 L 458.822,-43.5122 L 459.511,-43.0375 L 460.086,-42.43 L 460.521,-41.7163 L 460.799,-40.9276
 L 460.907,-40.0984 L 460.84,-39.2648 L 460.601,-38.4634 L 460.201,-37.7291 L 459.657,-37.0941 L 458.993,-36.5861
 L 458.238,-36.2273 L 407.829,-18.4669 L 406.918,-18.2615 z
M 572.984,-18.273 L 572.171,-18.4669 L 521.762,-36.2273 L 521.177,-36.4878 L 520.489,-36.9625 L 519.914,-37.57
 L 519.479,-38.2837 L 519.201,-39.0724 L 519.093,-39.9016 L 519.16,-40.7352 L 519.399,-41.5366 L 519.799,-42.2709
 L 520.343,-42.9059 L 521.007,-43.4139 L 521.762,-43.7727 L 572.171,-61.5331 L 573.082,-61.7385 L 573.918,-61.7385
 L 574.736,-61.5647 L 575.5,-61.2245 L 576.177,-60.733 L 576.736,-60.1116 L 577.154,-59.3874 L 577.413,-58.5921
 L 577.5,-57.7604 L 577.5,-22.2396 L 577.391,-21.312 L 577.113,-20.5233 L 576.677,-19.8096 L 576.103,-19.2021
 L 575.414,-18.7273 L 574.642,-18.4061 L 573.82,-18.2524 z
M 213.5,-18 L 212.264,-18.1958 L 211.5,-18.5359 L 210.823,-19.0274 L 210.264,-19.6489 L 209.846,-20.373
 L 209.587,-21.1684 L 209.5,-22 L 209.5,-55.6406 L 209.609,-56.5682 L 209.887,-57.3569 L 210.323,-58.0706
 L 210.897,-58.6781 L 211.586,-59.1528 L 212.358,-59.474 L 213.18,-59.6277 L 214.016,-59.6072 L 214.829,-59.4133
 L 310.309,-25.7727 L 311.331,-25.2361 L 311.952,-24.6765 L 312.444,-24 L 312.784,-23.2361 L 312.958,-22.4181
 L 312.958,-21.5819 L 312.784,-20.7639 L 312.444,-20 L 311.952,-19.3235 L 311.331,-18.7639 L 310.607,-18.3458
 L 309.811,-18.0874 L 308.98,-18 z
M 671.02,-18 L 670.189,-18.0874 L 669.393,-18.3458 L 668.669,-18.7639 L 668.048,-19.3235 L 667.556,-20
 L 667.216,-20.7639 L 667.042,-21.5819 L 667.042,-22.4181 L 667.216,-23.2361 L 667.556,-24 L 668.048,-24.6765
 L 668.669,-25.2361 L 669.691,-25.7727 L 765.171,-59.4133 L 765.984,-59.6072 L 766.82,-59.6277 L 767.642,-59.474
 L 768.414,-59.1528 L 769.103,-58.6781 L 769.677,-58.0706 L 770.113,-57.3569 L 770.391,-56.5682 L 770.5,-55.6406
 L 770.5,-22 L 770.413,-21.1684 L 770.154,-20.373 L 769.736,-19.6489 L 769.177,-19.0274 L 768.5,-18.5359
 L 767.736,-18.1958 L 766.5,-18 z
M 22,-18 L 20.7639,-18.1958 L 20,-18.5359 L 19.3235,-19.0274 L 18.7639,-19.6489 L 18.3458,-20.373
 L 18.0874,-21.1684 L 18,-22 L 18,-55.1121 L 18.109,-56.0397 L 18.3869,-56.8284 L 18.8227,-57.5421
 L 19.3974,-58.1496 L 20.0858,-58.6243 L 20.8578,-58.9455 L 21.6798,-59.0992 L 22.5158,-59.0787 L 23.3292,-58.8848
 L 117.309,-25.7727 L 118.331,-25.2361 L 118.952,-24.6765 L 119.444,-24 L 119.784,-23.2361 L 119.958,-22.4181
 L 119.958,-21.5819 L 119.784,-20.7639 L 119.444,-20 L 118.952,-19.3235 L 118.331,-18.7639 L 117.607,-18.3458
 L 116.811,-18.0874 L 115.98,-18 z
M 864.02,-18 L 863.189,-18.0874 L 862.393,-18.3458 L 861.669,-18.7639 L 861.048,-19.3235 L 860.556,-20
 L 860.216,-20.7639 L 860.042,-21.5819 L 860.042,-22.4181 L 860.216,-23.2361 L 860.556,-24 L 861.048,-24.6765
 L 861.669,-25.2361 L 862.691,-25.7727 L 956.671,-58.8848 L 957.484,-59.0787 L 958.32,-59.0992 L 959.142,-58.9455
 L 959.914,-58.6243 L 960.603,-58.1496 L 961.177,-57.5421 L 961.613,-56.8284 L 961.891,-56.0397 L 962,-55.1121
 L 962,-22 L 961.913,-21.1684 L 961.654,-20.373 L 961.236,-19.6489 L 960.677,-19.0274 L 960,-18.5359
 L 959.236,-18.1958 L 958,-18 z
M 472.003,-18 L 470.861,-18.1665 L 470.089,-18.4878 L 469.401,-18.9625 L 468.826,-19.57 L 468.39,-20.2837
 L 468.113,-21.0724 L 468.005,-21.9016 L 468.072,-22.7352 L 468.31,-23.5366 L 468.711,-24.2709 L 469.255,-24.9059
 L 469.919,-25.4139 L 470.674,-25.7727 L 488.671,-32.1134 L 489.68,-32.3279 L 490.516,-32.3073 L 491.329,-32.1134
 L 509.326,-25.7727 L 510.348,-25.2361 L 510.969,-24.6765 L 511.461,-24 L 511.801,-23.2361 L 511.975,-22.4181
 L 511.975,-21.5819 L 511.801,-20.7639 L 511.461,-20 L 510.969,-19.3235 L 510.348,-18.7639 L 509.623,-18.3458
 L 508.828,-18.0874 L 507.997,-18 z
" stroke="black" fill="lightgray" stroke-width="0.5"/>
</svg>
