<?xml version="1.0" standalone="no"?>
<!DOCTYPE svg PUBLIC "-//W3C//DTD SVG 1.1//EN" "http://www.w3.org/Graphics/SVG/1.1/DTD/svg11.dtd">
<svg width="898mm" height="80mm" viewBox="0 -80 898 80" xmlns="http://www.w3.org/2000/svg" version="1.1">
<title>OpenSCAD Model</title>
<path d="
M 898,-80 L 0,-80 L 0,-0 L 4.95,-0 L 4.95,-6 L 5.00572,-6.53017
 L 5.17046,-7.03717 L 5.437,-7.49884 L 5.79372,-7.895 L 6.22499,-8.20836 L 6.71201,-8.42519 L 7.23344,-8.53603
 L 7.76654,-8.53603 L 8.28798,-8.42519 L 8.77499,-8.20836 L 9.20627,-7.895 L 9.56299,-7.49884 L 9.82953,-7.03717
 L 9.99426,-6.53017 L 10.05,-6 L 10.05,-0 L 181.55,-0 L 181.55,-6 L 181.606,-6.53017
 L 181.77,-7.03717 L 182.037,-7.49884 L 182.394,-7.895 L 182.825,-8.20836 L 183.312,-8.42519 L 183.833,-8.53603
 L 184.367,-8.53603 L 184.888,-8.42519 L 185.375,-8.20836 L 185.806,-7.895 L 186.163,-7.49884 L 186.43,-7.03717
 L 186.594,-6.53017 L 186.65,-6 L 186.65,-0 L 358.15,-0 L 358.15,-6 L 358.206,-6.53017
 L 358.37,-7.03717 L 358.637,-7.49884 L 358.994,-7.895 L 359.425,-8.20836 L 359.912,-8.42519 L 360.433,-8.53603
 L 360.967,-8.53603 L 361.488,-8.42519 L 361.975,-8.20836 L 362.406,-7.895 L 362.763,-7.49884 L 363.03,-7.03717
 L 363.194,-6.53017 L 363.25,-6 L 363.25,-0 L 534.75,-0 L 534.75,-6 L 534.806,-6.53017
 L 534.97,-7.03717 L 535.237,-7.49884 L 535.594,-7.895 L 536.025,-8.20836 L 536.512,-8.42519 L 537.033,-8.53603
 L 537.567,-8.53603 L 538.088,-8.42519 L 538.575,-8.20836 L 539.006,-7.895 L 539.363,-7.49884 L 539.63,-7.03717
 L 539.794,-6.53017 L 539.85,-6 L 539.85,-0 L 711.35,-0 L 711.35,-6 L 711.406,-6.53017
 L 711.57,-7.03717 L 711.837,-7.49884 L 712.194,-7.895 L 712.625,-8.20836 L 713.112,-8.42519 L 713.633,-8.53603
 L 714.167,-8.53603 L 714.688,-8.42519 L 715.175,-8.20836 L 715.606,-7.895 L 715.963,-7.49884 L 716.23,-7.03717
 L 716.394,-6.53017 L 716.45,-6 L 716.45,-0 L 887.95,-0 L 887.95,-6 L 888.006,-6.53017
 L 888.17,-7.03717 L 888.437,-7.49884 L 888.794,-7.895 L 889.225,-8.20836 L 889.712,-8.42519 L 890.233,-8.53603
 L 890.767,-8.53603 L 891.288,-8.42519 L 891.775,-8.20836 L 892.206,-7.895 L 892.563,-7.49884 L 892.83,-7.03717
 L 892.994,-6.53017 L 893.05,-6 L 893.05,-0 L 898,-0 z
M 6.98573,-55.607 L 6.47708,-55.6875 L 5.97964,-55.8208 L 5.49887,-56.0054 L 5.04001,-56.2392 L 4.60811,-56.5196
 L 4.20789,-56.8437 L 3.84373,-57.2079 L 3.51964,-57.6081 L 3.23917,-58.04 L 3.00537,-58.4989 L 2.82082,-58.9796
 L 2.68752,-59.4771 L 2.60696,-59.9857 L 2.58,-60.5 L 2.60696,-61.0143 L 2.68752,-61.5229 L 2.82082,-62.0204
 L 3.00537,-62.5011 L 3.23917,-62.96 L 3.51964,-63.3919 L 3.84373,-63.7921 L 4.20789,-64.1563 L 4.60811,-64.4804
 L 4.95001,-64.7024 L 4.95001,-74 L 5.00574,-74.5302 L 5.17047,-75.0372 L 5.43701,-75.4988 L 5.79373,-75.895
 L 6.22501,-76.2084 L 6.71202,-76.4252 L 7.23346,-76.536 L 7.76654,-76.536 L 8.28798,-76.4252 L 8.77499,-76.2084
 L 9.20627,-75.895 L 9.56299,-75.4988 L 9.82953,-75.0372 L 9.99426,-74.5302 L 10.05,-74 L 10.05,-64.7024
 L 10.3919,-64.4804 L 10.7921,-64.1563 L 11.1563,-63.7921 L 11.4804,-63.3919 L 11.7608,-62.96 L 11.9946,-62.5011
 L 12.1792,-62.0204 L 12.3125,-61.5229 L 12.393,-61.0143 L 12.42,-60.5 L 12.393,-59.9857 L 12.3125,-59.4771
 L 12.1792,-58.9796 L 11.9946,-58.4989 L 11.7608,-58.04 L 11.4804,-57.6081 L 11.1563,-57.2079 L 10.7921,-56.8437
 L 10.3919,-56.5196 L 9.95999,-56.2392 L 9.50113,-56.0054 L 9.02036,-55.8208 L 8.52292,-55.6875 L 8.01427,-55.607
 L 7.5,-55.58 z
M 183.586,-55.607 L 183.077,-55.6875 L 182.58,-55.8208 L 182.099,-56.0054 L 181.64,-56.2392 L 181.208,-56.5196
 L 180.808,-56.8437 L 180.444,-57.2079 L 180.12,-57.6081 L 179.839,-58.04 L 179.605,-58.4989 L 179.421,-58.9796
 L 179.288,-59.4771 L 179.207,-59.9857 L 179.18,-60.5 L 179.207,-61.0143 L 179.288,-61.5229 L 179.421,-62.0204
 L 179.605,-62.5011 L 179.839,-62.96 L 180.12,-63.3919 L 180.444,-63.7921 L 180.808,-64.1563 L 181.208,-64.4804
 L 181.55,-64.7024 L 181.55,-74 L 181.606,-74.5302 L 181.77,-75.0372 L 182.037,-75.4988 L 182.394,-75.895
 L 182.825,-76.2084 L 183.312,-76.4252 L 183.833,-76.536 L 184.367,-76.536 L 184.888,-76.4252 L 185.375,-76.2084
 L 185.806,-75.895 L 186.163,-75.4988 L 186.43,-75.0372 L 186.594,-74.5302 L 186.65,-74 L 186.65,-64.7024
 L 186.992,-64.4804 L 187.392,-64.1563 L 187.756,-63.7921 L 188.08,-63.3919 L 188.361,-62.96 L 188.595,-62.5011
 L 188.779,-62.0204 L 188.912,-61.5229 L 188.993,-61.0143 L 189.02,-60.5 L 188.993,-59.9857 L 188.912,-59.4771
 L 188.779,-58.9796 L 188.595,-58.4989 L 188.361,-58.04 L 188.08,-57.6081 L 187.756,-57.2079 L 187.392,-56.8437
 L 186.992,-56.5196 L 186.56,-56.2392 L 186.101,-56.0054 L 185.62,-55.8208 L 185.123,-55.6875 L 184.614,-55.607
 L 184.1,-55.58 z
M 360.186,-55.607 L 359.677,-55.6875 L 359.18,-55.8208 L 358.699,-56.0054 L 358.24,-56.2392 L 357.808,-56.5196
 L 357.408,-56.8437 L 357.044,-57.2079 L 356.72,-57.6081 L 356.439,-58.04 L 356.205,-58.4989 L 356.021,-58.9796
 L 355.888,-59.4771 L 355.807,-59.9857 L 355.78,-60.5 L 355.807,-61.0143 L 355.888,-61.5229 L 356.021,-62.0204
 L 356.205,-62.5011 L 356.439,-62.96 L 356.72,-63.3919 L 357.044,-63.7921 L 357.408,-64.1563 L 357.808,-64.4804
 L 358.15,-64.7024 L 358.15,-74 L 358.206,-74.5302 L 358.37,-75.0372 L 358.637,-75.4988 L 358.994,-75.895
 L 359.425,-76.2084 L 359.912,-76.4252 L 360.433,-76.536 L 360.967,-76.536 L 361.488,-76.4252 L 361.975,-76.2084
 L 362.406,-75.895 L 362.763,-75.4988 L 363.03,-75.0372 L 363.194,-74.5302 L 363.25,-74 L 363.25,-64.7024
 L 363.592,-64.4804 L 363.992,-64.1563 L 364.356,-63.7921 L 364.68,-63.3919 L 364.961,-62.96 L 365.195,-62.5011
 L 365.379,-62.0204 L 365.512,-61.5229 L 365.593,-61.0143 L 365.62,-60.5 L 365.593,-59.9857 L 365.512,-59.4771
 L 365.379,-58.9796 L 365.195,-58.4989 L 364.961,-58.04 L 364.68,-57.6081 L 364.356,-57.2079 L 363.992,-56.8437
 L 363.592,-56.5196 L 363.16,-56.2392 L 362.701,-56.0054 L 362.22,-55.8208 L 361.723,-55.6875 L 361.214,-55.607
 L 360.7,-55.58 z
M 536.786,-55.607 L 536.277,-55.6875 L 535.78,-55.8208 L 535.299,-56.0054 L 534.84,-56.2392 L 534.408,-56.5196
 L 534.008,-56.8437 L 533.644,-57.2079 L 533.32,-57.6081 L 533.039,-58.04 L 532.805,-58.4989 L 532.621,-58.9796
 L 532.488,-59.4771 L 532.407,-59.9857 L 532.38,-60.5 L 532.407,-61.0143 L 532.488,-61.5229 L 532.621,-62.0204
 L 532.805,-62.5011 L 533.039,-62.96 L 533.32,-63.3919 L 533.644,-63.7921 L 534.008,-64.1563 L 534.408,-64.4804
 L 534.75,-64.7024 L 534.75,-74 L 534.806,-74.5302 L 534.97,-75.0372 L 535.237,-75.4988 L 535.594,-75.895
 L 536.025,-76.2084 L 536.512,-76.4252 L 537.033,-76.536 L 537.567,-76.536 L 538.088,-76.4252 L 538.575,-76.2084
 L 539.006,-75.895 L 539.363,-75.4988 L 539.63,-75.0372 L 539.794,-74.5302 L 539.85,-74 L 539.85,-64.7024
 L 540.192,-64.4804 L 540.592,-64.1563 L 540.956,-63.7921 L 541.28,-63.3919 L 541.561,-62.96 L 541.795,-62.5011
 L 541.979,-62.0204 L 542.112,-61.5229 L 542.193,-61.0143 L 542.22,-60.5 L 542.193,-59.9857 L 542.112,-59.4771
 L 541.979,-58.9796 L 541.795,-58.4989 L 541.561,-58.04 L 541.28,-57.6081 L 540.956,-57.2079 L 540.592,-56.8437
 L 540.192,-56.5196 L 539.76,-56.2392 L 539.301,-56.0054 L 538.82,-55.8208 L 538.323,-55.6875 L 537.814,-55.607
 L 537.3,-55.58 z
M 713.386,-55.607 L 712.877,-55.6875 L 712.38,-55.8208 L 711.899,-56.0054 L 711.44,-56.2392 L 711.008,-56.5196
 L 710.608,-56.8437 L 710.244,-57.2079 L 709.92,-57.6081 L 709.639,-58.04 L 709.405,-58.4989 L 709.221,-58.9796
 L 709.088,-59.4771 L 709.007,-59.9857 L 708.98,-60.5 L 709.007,-61.0143 L 709.088,-61.5229 L 709.221,-62.0204
 L 709.405,-62.5011 L 709.639,-62.96 L 709.92,-63.3919 L 710.244,-63.7921 L 710.608,-64.1563 L 711.008,-64.4804
 L 711.35,-64.7024 L 711.35,-74 L 711.406,-74.5302 L 711.57,-75.0372 L 711.837,-75.4988 L 712.194,-75.895
 L 712.625,-76.2084 L 713.112,-76.4252 L 713.633,-76.536 L 714.167,-76.536 L 714.688,-76.4252 L 715.175,-76.2084
 L 715.606,-75.895 L 715.963,-75.4988 L 716.23,-75.0372 L 716.394,-74.5302 L 716.45,-74 L 716.45,-64.7024
 L 716.792,-64.4804 L 717.192,-64.1563 L 717.556,-63.7921 L 717.88,-63.3919 L 718.161,-62.96 L 718.395,-62.5011
 L 718.579,-62.0204 L 718.712,-61.5229 L 718.793,-61.0143 L 718.82,-60.5 L 718.793,-59.9857 L 718.712,-59.4771
 L 718.579,-58.9796 L 718.395,-58.4989 L 718.161,-58.04 L 717.88,-57.6081 L 717.556,-57.2079 L 717.192,-56.8437
 L 716.792,-56.5196 L 716.36,-56.2392 L 715.901,-56.0054 L 715.42,-55.8208 L 714.923,-55.6875 L 714.414,-55.607
 L 713.9,-55.58 z
M 889.986,-55.607 L 889.477,-55.6875 L 888.98,-55.8208 L 888.499,-56.0054 L 888.04,-56.2392 L 887.608,-56.5196
 L 887.208,-56.8437 L 886.844,-57.2079 L 886.52,-57.6081 L 886.239,-58.04 L 886.005,-58.4989 L 885.821,-58.9796
 L 885.688,-59.4771 L 885.607,-59.9857 L 885.58,-60.5 L 885.607,-61.0143 L 885.688,-61.5229 L 885.821,-62.0204
 L 886.005,-62.5011 L 886.239,-62.96 L 886.52,-63.3919 L 886.844,-63.7921 L 887.208,-64.1563 L 887.608,-64.4804
 L 887.95,-64.7024 L 887.95,-74 L 888.006,-74.5302 L 888.17,-75.0372 L 888.437,-75.4988 L 888.794,-75.895
 L 889.225,-76.2084 L 889.712,-76.4252 L 890.233,-76.536 L 890.767,-76.536 L 891.288,-76.4252 L 891.775,-76.2084
 L 892.206,-75.895 L 892.563,-75.4988 L 892.83,-75.0372 L 892.994,-74.5302 L 893.05,-74 L 893.05,-64.7024
 L 893.392,-64.4804 L 893.792,-64.1563 L 894.156,-63.7921 L 894.48,-63.3919 L 894.761,-62.96 L 894.995,-62.5011
 L 895.179,-62.0204 L 895.312,-61.5229 L 895.393,-61.0143 L 895.42,-60.5 L 895.393,-59.9857 L 895.312,-59.4771
 L 895.179,-58.9796 L 894.995,-58.4989 L 894.761,-58.04 L 894.48,-57.6081 L 894.156,-57.2079 L 893.792,-56.8437
 L 893.392,-56.5196 L 892.96,-56.2392 L 892.501,-56.0054 L 892.02,-55.8208 L 891.523,-55.6875 L 891.014,-55.607
 L 890.5,-55.58 z
M 448.37,-47.8217 L 447.563,-48.0389 L 431.388,-54.2672 L 430.474,-54.7639 L 429.852,-55.3235 L 429.361,-56
 L 429.021,-56.7639 L 428.847,-57.5819 L 428.847,-58.4181 L 429.021,-59.2361 L 429.361,-60 L 429.852,-60.6765
 L 430.474,-61.2361 L 431.198,-61.6542 L 431.993,-61.9126 L 432.825,-62 L 465.175,-62 L 466.206,-61.8648
 L 466.987,-61.5659 L 467.689,-61.1112 L 468.281,-60.5205 L 468.737,-59.8196 L 469.038,-59.0393 L 469.169,-58.2135
 L 469.126,-57.3783 L 468.911,-56.5704 L 468.532,-55.8249 L 468.006,-55.1745 L 467.357,-54.6476 L 466.612,-54.2672
 L 450.437,-48.0389 L 450.031,-47.907 L 449.205,-47.777 z
M 347.07,-20.9676 L 346.263,-21.1849 L 260.346,-54.2672 L 259.432,-54.7639 L 258.811,-55.3235 L 258.319,-56
 L 257.979,-56.7639 L 257.805,-57.5819 L 257.805,-58.4181 L 257.979,-59.2361 L 258.319,-60 L 258.811,-60.6765
 L 259.432,-61.2361 L 260.156,-61.6542 L 260.952,-61.9126 L 261.783,-62 L 347.7,-62 L 348.936,-61.8042
 L 349.7,-61.4641 L 350.377,-60.9726 L 350.936,-60.3511 L 351.354,-59.627 L 351.613,-58.8316 L 351.7,-58
 L 351.7,-24.9177 L 351.563,-23.8785 L 351.262,-23.0981 L 350.806,-22.3972 L 350.214,-21.8065 L 349.512,-21.3518
 L 348.731,-21.053 L 347.905,-20.923 z
M 725.869,-21.053 L 725.088,-21.3518 L 724.386,-21.8065 L 723.794,-22.3972 L 723.338,-23.0981 L 723.037,-23.8785
 L 722.9,-24.9177 L 722.9,-58 L 722.987,-58.8316 L 723.246,-59.627 L 723.664,-60.3511 L 724.223,-60.9726
 L 724.9,-61.4641 L 725.664,-61.8042 L 726.9,-62 L 812.817,-62 L 813.648,-61.9126 L 814.444,-61.6542
 L 815.168,-61.2361 L 815.789,-60.6765 L 816.281,-60 L 816.621,-59.2361 L 816.795,-58.4181 L 816.795,-57.5819
 L 816.621,-56.7639 L 816.281,-56 L 815.789,-55.3235 L 815.168,-54.7639 L 814.254,-54.2672 L 728.337,-21.1849
 L 727.53,-20.9676 L 726.695,-20.923 z
M 170.47,-20.9676 L 169.663,-21.1849 L 83.7461,-54.2672 L 82.8323,-54.7639 L 82.2108,-55.3235 L 81.7193,-56
 L 81.3792,-56.7639 L 81.2053,-57.5819 L 81.2053,-58.4181 L 81.3792,-59.2361 L 81.7193,-60 L 82.2108,-60.6765
 L 82.8323,-61.2361 L 83.5564,-61.6542 L 84.3517,-61.9126 L 85.1834,-62 L 171.1,-62 L 172.336,-61.8042
 L 173.1,-61.4641 L 173.777,-60.9726 L 174.336,-60.3511 L 174.754,-59.627 L 175.013,-58.8316 L 175.1,-58
 L 175.1,-24.9177 L 174.963,-23.8785 L 174.662,-23.0981 L 174.206,-22.3972 L 173.614,-21.8065 L 172.912,-21.3518
 L 172.131,-21.053 L 171.305,-20.923 z
M 549.269,-21.053 L 548.488,-21.3518 L 547.786,-21.8065 L 547.194,-22.3972 L 546.738,-23.0981 L 546.437,-23.8785
 L 546.3,-24.9177 L 546.3,-58 L 546.387,-58.8316 L 546.646,-59.627 L 547.064,-60.3511 L 547.623,-60.9726
 L 548.3,-61.4641 L 549.064,-61.8042 L 550.3,-62 L 636.217,-62 L 637.048,-61.9126 L 637.844,-61.6542
 L 638.568,-61.2361 L 639.189,-60.6765 L 639.681,-60 L 640.021,-59.2361 L 640.195,-58.4181 L 640.195,-57.5819
 L 640.021,-56.7639 L 639.681,-56 L 639.189,-55.3235 L 638.568,-54.7639 L 637.654,-54.2672 L 551.737,-21.1849
 L 550.93,-20.9676 L 550.095,-20.923 z
M 373.282,-18.7993 L 372.464,-18.9732 L 371.7,-19.3133 L 371.023,-19.8048 L 370.464,-20.4263 L 370.046,-21.1505
 L 369.787,-21.9458 L 369.7,-22.7774 L 369.7,-57.2226 L 369.837,-58.2619 L 370.138,-59.0422 L 370.594,-59.7431
 L 371.186,-60.3338 L 371.888,-60.7885 L 372.669,-61.0874 L 373.495,-61.2173 L 374.33,-61.1727 L 375.137,-60.9554
 L 419.865,-43.7328 L 420.942,-43.1112 L 421.534,-42.5205 L 421.99,-41.8196 L 422.291,-41.0393 L 422.422,-40.2135
 L 422.379,-39.3783 L 422.164,-38.5704 L 421.785,-37.8249 L 421.259,-37.1745 L 420.61,-36.6476 L 419.865,-36.2672
 L 375.137,-19.0446 L 374.118,-18.7993 z
M 523.67,-18.8273 L 522.863,-19.0446 L 478.135,-36.2672 L 477.058,-36.8888 L 476.466,-37.4795 L 476.01,-38.1804
 L 475.709,-38.9607 L 475.578,-39.7865 L 475.621,-40.6217 L 475.836,-41.4296 L 476.215,-42.1751 L 476.741,-42.8255
 L 477.39,-43.3524 L 478.135,-43.7328 L 522.863,-60.9554 L 523.882,-61.2007 L 524.718,-61.2007 L 525.536,-61.0268
 L 526.3,-60.6867 L 526.977,-60.1952 L 527.536,-59.5737 L 527.954,-58.8495 L 528.213,-58.0542 L 528.3,-57.2226
 L 528.3,-22.7774 L 528.163,-21.7381 L 527.862,-20.9578 L 527.406,-20.2569 L 526.814,-19.6662 L 526.112,-19.2115
 L 525.331,-18.9126 L 524.505,-18.7827 z
M 197.1,-18 L 195.864,-18.1958 L 195.1,-18.5359 L 194.423,-19.0274 L 193.864,-19.6489 L 193.446,-20.373
 L 193.187,-21.1684 L 193.1,-22 L 193.1,-55.0823 L 193.237,-56.1215 L 193.538,-56.9019 L 193.994,-57.6028
 L 194.586,-58.1935 L 195.288,-58.6482 L 196.069,-58.947 L 196.895,-59.077 L 197.73,-59.0324 L 198.537,-58.8151
 L 284.454,-25.7328 L 285.368,-25.2361 L 285.989,-24.6765 L 286.481,-24 L 286.821,-23.2361 L 286.995,-22.4181
 L 286.995,-21.5819 L 286.821,-20.7639 L 286.481,-20 L 285.989,-19.3235 L 285.368,-18.7639 L 284.644,-18.3458
 L 283.848,-18.0874 L 283.017,-18 z
M 614.983,-18 L 614.152,-18.0874 L 613.356,-18.3458 L 612.632,-18.7639 L 612.011,-19.3235 L 611.519,-20
 L 611.179,-20.7639 L 611.005,-21.5819 L 611.005,-22.4181 L 611.179,-23.2361 L 611.519,-24 L 612.011,-24.6765
 L 612.632,-25.2361 L 613.546,-25.7328 L 699.463,-58.8151 L 700.27,-59.0324 L 701.105,-59.077 L 701.931,-58.947
 L 702.712,-58.6482 L 703.414,-58.1935 L 704.006,-57.6028 L 704.462,-56.9019 L 704.763,-56.1215 L 704.9,-55.0823
 L 704.9,-22 L 704.813,-21.1684 L 704.554,-20.373 L 704.136,-19.6489 L 703.577,-19.0274 L 702.9,-18.5359
 L 702.136,-18.1958 L 700.9,-18 z
M 22,-18 L 20.7639,-18.1958 L 20,-18.5359 L 19.3235,-19.0274 L 18.7639,-19.6489 L 18.3458,-20.373
 L 18.0874,-21.1684 L 18,-22 L 18,-54.5047 L 18.1374,-55.544 L 18.4379,-56.3243 L 18.894,-57.0252
 L 19.4859,-57.6159 L 20.1877,-58.0706 L 20.9687,-58.3695 L 21.7948,-58.4994 L 22.6298,-58.4548 L 23.4373,-58.2375
 L 107.854,-25.7328 L 108.768,-25.2361 L 109.389,-24.6765 L 109.881,-24 L 110.221,-23.2361 L 110.395,-22.4181
 L 110.395,-21.5819 L 110.221,-20.7639 L 109.881,-20 L 109.389,-19.3235 L 108.768,-18.7639 L 108.044,-18.3458
 L 107.248,-18.0874 L 106.417,-18 z
M 791.583,-18 L 790.752,-18.0874 L 789.956,-18.3458 L 789.232,-18.7639 L 788.611,-19.3235 L 788.119,-20
 L 787.779,-20.7639 L 787.605,-21.5819 L 787.605,-22.4181 L 787.779,-23.2361 L 788.119,-24 L 788.611,-24.6765
 L 789.232,-25.2361 L 790.146,-25.7328 L 874.563,-58.2375 L 875.37,-58.4548 L 876.205,-58.4994 L 877.031,-58.3695
 L 877.812,-58.0706 L 878.514,-57.6159 L 879.106,-57.0252 L 879.562,-56.3243 L 879.863,-55.544 L 880,-54.5047
 L 880,-22 L 879.913,-21.1684 L 879.654,-20.373 L 879.236,-19.6489 L 878.677,-19.0274 L 878,-18.5359
 L 877.236,-18.1958 L 876,-18 z
M 432.825,-18 L 431.794,-18.1352 L 431.013,-18.4341 L 430.311,-18.8888 L 429.719,-19.4795 L 429.263,-20.1804
 L 428.962,-20.9607 L 428.831,-21.7865 L 428.873,-22.6217 L 429.089,-23.4296 L 429.468,-24.1751 L 429.994,-24.8255
 L 430.643,-25.3524 L 431.388,-25.7328 L 447.563,-31.9611 L 447.969,-32.093 L 448.795,-32.223 L 449.63,-32.1783
 L 450.437,-31.9611 L 466.612,-25.7328 L 467.526,-25.2361 L 468.148,-24.6765 L 468.639,-24 L 468.979,-23.2361
 L 469.153,-22.4181 L 469.153,-21.5819 L 468.979,-20.7639 L 468.639,-20 L 468.148,-19.3235 L 467.526,-18.7639
 L 466.802,-18.3458 L 466.007,-18.0874 L 465.175,-18 z
" stroke="black" fill="lightgray" stroke-width="0.5"/>
</svg>
