<?xml version="1.0" standalone="no"?>
<!DOCTYPE svg PUBLIC "-//W3C//DTD SVG 1.1//EN" "http://www.w3.org/Graphics/SVG/1.1/DTD/svg11.dtd">
<svg width="982mm" height="80mm" viewBox="0 -80 982 80" xmlns="http://www.w3.org/2000/svg" version="1.1">
<title>OpenSCAD Model</title>
<path d="
M 982,-80 L 0,-80 L 0,-0 L 4.95,-0 L 4.95,-6 L 5.00572,-6.53017
 L 5.17046,-7.03717 L 5.437,-7.49884 L 5.79372,-7.895 L 6.22499,-8.20836 L 6.71201,-8.42519 L 7.23344,-8.53603
 L 7.76654,-8.53603 L 8.28798,-8.42519 L 8.77499,-8.20836 L 9.20627,-7.895 L 9.56299,-7.49884 L 9.82953,-7.03717
 L 9.99426,-6.53017 L 10.05,-6 L 10.05,-0 L 198.35,-0 L 198.35,-6 L 198.406,-6.53017
 L 198.57,-7.03717 L 198.837,-7.49884 L 199.194,-7.895 L 199.625,-8.20836 L 200.112,-8.42519 L 200.633,-8.53603
 L 201.167,-8.53603 L 201.688,-8.42519 L 202.175,-8.20836 L 202.606,-7.895 L 202.963,-7.49884 L 203.23,-7.03717
 L 203.394,-6.53017 L 203.45,-6 L 203.45,-0 L 391.75,-0 L 391.75,-6 L 391.806,-6.53017
 L 391.97,-7.03717 L 392.237,-7.49884 L 392.594,-7.895 L 393.025,-8.20836 L 393.512,-8.42519 L 394.033,-8.53603
 L 394.567,-8.53603 L 395.088,-8.42519 L 395.575,-8.20836 L 396.006,-7.895 L 396.363,-7.49884 L 396.63,-7.03717
 L 396.794,-6.53017 L 396.85,-6 L 396.85,-0 L 585.15,-0 L 585.15,-6 L 585.206,-6.53017
 L 585.37,-7.03717 L 585.637,-7.49884 L 585.994,-7.895 L 586.425,-8.20836 L 586.912,-8.42519 L 587.433,-8.53603
 L 587.967,-8.53603 L 588.488,-8.42519 L 588.975,-8.20836 L 589.406,-7.895 L 589.763,-7.49884 L 590.03,-7.03717
 L 590.194,-6.53017 L 590.25,-6 L 590.25,-0 L 778.55,-0 L 778.55,-6 L 778.606,-6.53017
 L 778.77,-7.03717 L 779.037,-7.49884 L 779.394,-7.895 L 779.825,-8.20836 L 780.312,-8.42519 L 780.833,-8.53603
 L 781.367,-8.53603 L 781.888,-8.42519 L 782.375,-8.20836 L 782.806,-7.895 L 783.163,-7.49884 L 783.43,-7.03717
 L 783.594,-6.53017 L 783.65,-6 L 783.65,-0 L 971.95,-0 L 971.95,-6 L 972.006,-6.53017
 L 972.17,-7.03717 L 972.437,-7.49884 L 972.794,-7.895 L 973.225,-8.20836 L 973.712,-8.42519 L 974.233,-8.53603
 L 974.767,-8.53603 L 975.288,-8.42519 L 975.775,-8.20836 L 976.206,-7.895 L 976.563,-7.49884 L 976.83,-7.03717
 L 976.994,-6.53017 L 977.05,-6 L 977.05,-0 L 982,-0 z
M 6.98573,-55.607 L 6.47708,-55.6875 L 5.97964,-55.8208 L 5.49887,-56.0054 L 5.04001,-56.2392 L 4.60811,-56.5196
 L 4.20789,-56.8437 L 3.84373,-57.2079 L 3.51964,-57.6081 L 3.23917,-58.04 L 3.00537,-58.4989 L 2.82082,-58.9796
 L 2.68752,-59.4771 L 2.60696,-59.9857 L 2.58,-60.5 L 2.60696,-61.0143 L 2.68752,-61.5229 L 2.82082,-62.0204
 L 3.00537,-62.5011 L 3.23917,-62.96 L 3.51964,-63.3919 L 3.84373,-63.7921 L 4.20789,-64.1563 L 4.60811,-64.4804
 L 4.95001,-64.7024 L 4.95001,-74 L 5.00574,-74.5302 L 5.17047,-75.0372 L 5.43701,-75.4988 L 5.79373,-75.895
 L 6.22501,-76.2084 L 6.71202,-76.4252 L 7.23346,-76.536 L 7.76654,-76.536 L 8.28798,-76.4252 L 8.77499,-76.2084
 L 9.20627,-75.895 L 9.56299,-75.4988 L 9.82953,-75.0372 L 9.99426,-74.5302 L 10.05,-74 L 10.05,-64.7024
 L 10.3919,-64.4804 L 10.7921,-64.1563 L 11.1563,-63.7921 L 11.4804,-63.3919 L 11.7608,-62.96 L 11.9946,-62.5011
 L 12.1792,-62.0204 L 12.3125,-61.5229 L 12.393,-61.0143 L 12.42,-60.5 L 12.393,-59.9857 L 12.3125,-59.4771
 L 12.1792,-58.9796 L 11.9946,-58.4989 L 11.7608,-58.04 L 11.4804,-57.6081 L 11.1563,-57.2079 L 10.7921,-56.8437
 L 10.3919,-56.5196 L 9.95999,-56.2392 L 9.50113,-56.0054 L 9.02036,-55.8208 L 8.52292,-55.6875 L 8.01427,-55.607
 L 7.5,-55.58 z
M 200.386,-55.607 L 199.877,-55.6875 L 199.38,-55.8208 L 198.899,-56.0054 L 198.44,-56.2392 L 198.008,-56.5196
 L 197.608,-56.8437 L 197.244,-57.2079 L 196.92,-57.6081 L 196.639,-58.04 L 196.405,-58.4989 L 196.221,-58.9796
 L 196.088,-59.4771 L 196.007,-59.9857 L 195.98,-60.5 L 196.007,-61.0143 L 196.088,-61.5229 L 196.221,-62.0204
 L 196.405,-62.5011 L 196.639,-62.96 L 196.92,-63.3919 L 197.244,-63.7921 L 197.608,-64.1563 L 198.008,-64.4804
 L 198.35,-64.7024 L 198.35,-74 L 198.406,-74.5302 L 198.57,-75.0372 L 198.837,-75.4988 L 199.194,-75.895
 L 199.625,-76.2084 L 200.112,-76.4252 L 200.633,-76.536 L 201.167,-76.536 L 201.688,-76.4252 L 202.175,-76.2084
 L 202.606,-75.895 L 202.963,-75.4988 L 203.23,-75.0372 L 203.394,-74.5302 L 203.45,-74 L 203.45,-64.7024
 L 203.792,-64.4804 L 204.192,-64.1563 L 204.556,-63.7921 L 204.88,-63.3919 L 205.161,-62.96 L 205.395,-62.5011
 L 205.579,-62.0204 L 205.712,-61.5229 L 205.793,-61.0143 L 205.82,-60.5 L 205.793,-59.9857 L 205.712,-59.4771
 L 205.579,-58.9796 L 205.395,-58.4989 L 205.161,-58.04 L 204.88,-57.6081 L 204.556,-57.2079 L 204.192,-56.8437
 L 203.792,-56.5196 L 203.36,-56.2392 L 202.901,-56.0054 L 202.42,-55.8208 L 201.923,-55.6875 L 201.414,-55.607
 L 200.9,-55.58 z
M 393.786,-55.607 L 393.277,-55.6875 L 392.78,-55.8208 L 392.299,-56.0054 L 391.84,-56.2392 L 391.408,-56.5196
 L 391.008,-56.8437 L 390.644,-57.2079 L 390.32,-57.6081 L 390.039,-58.04 L 389.805,-58.4989 L 389.621,-58.9796
 L 389.488,-59.4771 L 389.407,-59.9857 L 389.38,-60.5 L 389.407,-61.0143 L 389.488,-61.5229 L 389.621,-62.0204
 L 389.805,-62.5011 L 390.039,-62.96 L 390.32,-63.3919 L 390.644,-63.7921 L 391.008,-64.1563 L 391.408,-64.4804
 L 391.75,-64.7024 L 391.75,-74 L 391.806,-74.5302 L 391.97,-75.0372 L 392.237,-75.4988 L 392.594,-75.895
 L 393.025,-76.2084 L 393.512,-76.4252 L 394.033,-76.536 L 394.567,-76.536 L 395.088,-76.4252 L 395.575,-76.2084
 L 396.006,-75.895 L 396.363,-75.4988 L 396.63,-75.0372 L 396.794,-74.5302 L 396.85,-74 L 396.85,-64.7024
 L 397.192,-64.4804 L 397.592,-64.1563 L 397.956,-63.7921 L 398.28,-63.3919 L 398.561,-62.96 L 398.795,-62.5011
 L 398.979,-62.0204 L 399.112,-61.5229 L 399.193,-61.0143 L 399.22,-60.5 L 399.193,-59.9857 L 399.112,-59.4771
 L 398.979,-58.9796 L 398.795,-58.4989 L 398.561,-58.04 L 398.28,-57.6081 L 397.956,-57.2079 L 397.592,-56.8437
 L 397.192,-56.5196 L 396.76,-56.2392 L 396.301,-56.0054 L 395.82,-55.8208 L 395.323,-55.6875 L 394.814,-55.607
 L 394.3,-55.58 z
M 587.186,-55.607 L 586.677,-55.6875 L 586.18,-55.8208 L 585.699,-56.0054 L 585.24,-56.2392 L 584.808,-56.5196
 L 584.408,-56.8437 L 584.044,-57.2079 L 583.72,-57.6081 L 583.439,-58.04 L 583.205,-58.4989 L 583.021,-58.9796
 L 582.888,-59.4771 L 582.807,-59.9857 L 582.78,-60.5 L 582.807,-61.0143 L 582.888,-61.5229 L 583.021,-62.0204
 L 583.205,-62.5011 L 583.439,-62.96 L 583.72,-63.3919 L 584.044,-63.7921 L 584.408,-64.1563 L 584.808,-64.4804
 L 585.15,-64.7024 L 585.15,-74 L 585.206,-74.5302 L 585.37,-75.0372 L 585.637,-75.4988 L 585.994,-75.895
 L 586.425,-76.2084 L 586.912,-76.4252 L 587.433,-76.536 L 587.967,-76.536 L 588.488,-76.4252 L 588.975,-76.2084
 L 589.406,-75.895 L 589.763,-75.4988 L 590.03,-75.0372 L 590.194,-74.5302 L 590.25,-74 L 590.25,-64.7024
 L 590.592,-64.4804 L 590.992,-64.1563 L 591.356,-63.7921 L 591.68,-63.3919 L 591.961,-62.96 L 592.195,-62.5011
 L 592.379,-62.0204 L 592.512,-61.5229 L 592.593,-61.0143 L 592.62,-60.5 L 592.593,-59.9857 L 592.512,-59.4771
 L 592.379,-58.9796 L 592.195,-58.4989 L 591.961,-58.04 L 591.68,-57.6081 L 591.356,-57.2079 L 590.992,-56.8437
 L 590.592,-56.5196 L 590.16,-56.2392 L 589.701,-56.0054 L 589.22,-55.8208 L 588.723,-55.6875 L 588.214,-55.607
 L 587.7,-55.58 z
M 780.586,-55.607 L 780.077,-55.6875 L 779.58,-55.8208 L 779.099,-56.0054 L 778.64,-56.2392 L 778.208,-56.5196
 L 777.808,-56.8437 L 777.444,-57.2079 L 777.12,-57.6081 L 776.839,-58.04 L 776.605,-58.4989 L 776.421,-58.9796
 L 776.288,-59.4771 L 776.207,-59.9857 L 776.18,-60.5 L 776.207,-61.0143 L 776.288,-61.5229 L 776.421,-62.0204
 L 776.605,-62.5011 L 776.839,-62.96 L 777.12,-63.3919 L 777.444,-63.7921 L 777.808,-64.1563 L 778.208,-64.4804
 L 778.55,-64.7024 L 778.55,-74 L 778.606,-74.5302 L 778.77,-75.0372 L 779.037,-75.4988 L 779.394,-75.895
 L 779.825,-76.2084 L 780.312,-76.4252 L 780.833,-76.536 L 781.367,-76.536 L 781.888,-76.4252 L 782.375,-76.2084
 L 782.806,-75.895 L 783.163,-75.4988 L 783.43,-75.0372 L 783.594,-74.5302 L 783.65,-74 L 783.65,-64.7024
 L 783.992,-64.4804 L 784.392,-64.1563 L 784.756,-63.7921 L 785.08,-63.3919 L 785.361,-62.96 L 785.595,-62.5011
 L 785.779,-62.0204 L 785.912,-61.5229 L 785.993,-61.0143 L 786.02,-60.5 L 785.993,-59.9857 L 785.912,-59.4771
 L 785.779,-58.9796 L 785.595,-58.4989 L 785.361,-58.04 L 785.08,-57.6081 L 784.756,-57.2079 L 784.392,-56.8437
 L 783.992,-56.5196 L 783.56,-56.2392 L 783.101,-56.0054 L 782.62,-55.8208 L 782.123,-55.6875 L 781.614,-55.607
 L 781.1,-55.58 z
M 973.986,-55.607 L 973.477,-55.6875 L 972.98,-55.8208 L 972.499,-56.0054 L 972.04,-56.2392 L 971.608,-56.5196
 L 971.208,-56.8437 L 970.844,-57.2079 L 970.52,-57.6081 L 970.239,-58.04 L 970.005,-58.4989 L 969.821,-58.9796
 L 969.688,-59.4771 L 969.607,-59.9857 L 969.58,-60.5 L 969.607,-61.0143 L 969.688,-61.5229 L 969.821,-62.0204
 L 970.005,-62.5011 L 970.239,-62.96 L 970.52,-63.3919 L 970.844,-63.7921 L 971.208,-64.1563 L 971.608,-64.4804
 L 971.95,-64.7024 L 971.95,-74 L 972.006,-74.5302 L 972.17,-75.0372 L 972.437,-75.4988 L 972.794,-75.895
 L 973.225,-76.2084 L 973.712,-76.4252 L 974.233,-76.536 L 974.767,-76.536 L 975.288,-76.4252 L 975.775,-76.2084
 L 976.206,-75.895 L 976.563,-75.4988 L 976.83,-75.0372 L 976.994,-74.5302 L 977.05,-74 L 977.05,-64.7024
 L 977.392,-64.4804 L 977.792,-64.1563 L 978.156,-63.7921 L 978.48,-63.3919 L 978.761,-62.96 L 978.995,-62.5011
 L 979.179,-62.0204 L 979.312,-61.5229 L 979.393,-61.0143 L 979.42,-60.5 L 979.393,-59.9857 L 979.312,-59.4771
 L 979.179,-58.9796 L 978.995,-58.4989 L 978.761,-58.04 L 978.48,-57.6081 L 978.156,-57.2079 L 977.792,-56.8437
 L 977.392,-56.5196 L 976.96,-56.2392 L 976.501,-56.0054 L 976.02,-55.8208 L 975.523,-55.6875 L 975.014,-55.607
 L 974.5,-55.58 z
M 490.487,-47.6898 L 489.673,-47.8832 L 471.632,-54.2265 L 470.608,-54.7639 L 469.987,-55.3235 L 469.495,-56
 L 469.155,-56.7639 L 468.981,-57.5819 L 468.981,-58.4181 L 469.155,-59.2361 L 469.495,-60 L 469.987,-60.6765
 L 470.608,-61.2361 L 471.332,-61.6542 L 472.127,-61.9126 L 472.959,-62 L 509.041,-62 L 510.185,-61.8327
 L 510.957,-61.511 L 511.645,-61.0358 L 512.22,-60.4279 L 512.655,-59.714 L 512.932,-58.9251 L 513.04,-58.0958
 L 512.972,-57.2623 L 512.733,-56.461 L 512.332,-55.727 L 511.788,-55.0923 L 511.123,-54.5848 L 510.368,-54.2265
 L 492.327,-47.8832 L 491.323,-47.6698 z
M 380.787,-20.3801 L 379.973,-20.5735 L 284.26,-54.2265 L 283.236,-54.7639 L 282.614,-55.3235 L 282.123,-56
 L 281.783,-56.7639 L 281.609,-57.5819 L 281.609,-58.4181 L 281.783,-59.2361 L 282.123,-60 L 282.614,-60.6765
 L 283.236,-61.2361 L 283.96,-61.6542 L 284.755,-61.9126 L 285.587,-62 L 381.3,-62 L 382.536,-61.8042
 L 383.3,-61.4641 L 383.977,-60.9726 L 384.536,-60.3511 L 384.954,-59.627 L 385.213,-58.8316 L 385.3,-58
 L 385.3,-24.347 L 385.192,-23.422 L 384.914,-22.6331 L 384.479,-21.9191 L 383.905,-21.3112 L 383.216,-20.836
 L 382.445,-20.5143 L 381.623,-20.3601 z
M 792.955,-20.5143 L 792.184,-20.836 L 791.495,-21.3112 L 790.921,-21.9191 L 790.486,-22.6331 L 790.208,-23.422
 L 790.1,-24.347 L 790.1,-58 L 790.187,-58.8316 L 790.446,-59.627 L 790.864,-60.3511 L 791.423,-60.9726
 L 792.1,-61.4641 L 792.864,-61.8042 L 794.1,-62 L 889.813,-62 L 890.645,-61.9126 L 891.44,-61.6542
 L 892.164,-61.2361 L 892.786,-60.6765 L 893.277,-60 L 893.617,-59.2361 L 893.791,-58.4181 L 893.791,-57.5819
 L 893.617,-56.7639 L 893.277,-56 L 892.786,-55.3235 L 892.164,-54.7639 L 891.14,-54.2265 L 795.427,-20.5735
 L 794.613,-20.3801 L 793.777,-20.3601 z
M 187.387,-20.3801 L 186.573,-20.5735 L 90.8602,-54.2265 L 89.8358,-54.7639 L 89.2144,-55.3235 L 88.7229,-56
 L 88.3828,-56.7639 L 88.2089,-57.5819 L 88.2089,-58.4181 L 88.3828,-59.2361 L 88.7229,-60 L 89.2144,-60.6765
 L 89.8358,-61.2361 L 90.56,-61.6542 L 91.3553,-61.9126 L 92.187,-62 L 187.9,-62 L 189.136,-61.8042
 L 189.9,-61.4641 L 190.577,-60.9726 L 191.136,-60.3511 L 191.554,-59.627 L 191.813,-58.8316 L 191.9,-58
 L 191.9,-24.347 L 191.792,-23.422 L 191.514,-22.6331 L 191.079,-21.9191 L 190.505,-21.3112 L 189.816,-20.836
 L 189.045,-20.5143 L 188.223,-20.3601 z
M 599.555,-20.5143 L 598.784,-20.836 L 598.095,-21.3112 L 597.521,-21.9191 L 597.086,-22.6331 L 596.808,-23.422
 L 596.7,-24.347 L 596.7,-58 L 596.787,-58.8316 L 597.046,-59.627 L 597.464,-60.3511 L 598.023,-60.9726
 L 598.7,-61.4641 L 599.464,-61.8042 L 600.7,-62 L 696.413,-62 L 697.245,-61.9126 L 698.04,-61.6542
 L 698.764,-61.2361 L 699.386,-60.6765 L 699.877,-60 L 700.217,-59.2361 L 700.391,-58.4181 L 700.391,-57.5819
 L 700.217,-56.7639 L 699.877,-56 L 699.386,-55.3235 L 698.764,-54.7639 L 697.74,-54.2265 L 602.027,-20.5735
 L 601.213,-20.3801 L 600.377,-20.3601 z
M 406.882,-18.2495 L 406.064,-18.4234 L 405.3,-18.7635 L 404.623,-19.2551 L 404.064,-19.8765 L 403.646,-20.6007
 L 403.387,-21.396 L 403.3,-22.2276 L 403.3,-57.7724 L 403.408,-58.6974 L 403.686,-59.4863 L 404.121,-60.2003
 L 404.695,-60.8082 L 405.383,-61.2834 L 406.155,-61.6051 L 406.977,-61.7593 L 407.813,-61.7393 L 408.627,-61.5459
 L 459.173,-43.7735 L 459.763,-43.511 L 460.451,-43.0358 L 461.026,-42.4279 L 461.461,-41.714 L 461.738,-40.9251
 L 461.846,-40.0958 L 461.778,-39.2623 L 461.539,-38.461 L 461.138,-37.727 L 460.594,-37.0923 L 459.929,-36.5848
 L 459.173,-36.2265 L 408.627,-18.4541 L 407.718,-18.2495 z
M 574.187,-18.2607 L 573.373,-18.4541 L 522.826,-36.2265 L 522.237,-36.489 L 521.549,-36.9642 L 520.974,-37.5721
 L 520.539,-38.286 L 520.262,-39.0749 L 520.154,-39.9042 L 520.222,-40.7377 L 520.461,-41.539 L 520.862,-42.273
 L 521.406,-42.9077 L 522.071,-43.4152 L 522.826,-43.7735 L 573.373,-61.5459 L 574.282,-61.7505 L 575.118,-61.7505
 L 575.936,-61.5766 L 576.7,-61.2365 L 577.377,-60.745 L 577.936,-60.1235 L 578.354,-59.3993 L 578.613,-58.604
 L 578.7,-57.7724 L 578.7,-22.2276 L 578.592,-21.3025 L 578.314,-20.5137 L 577.879,-19.7997 L 577.305,-19.1918
 L 576.616,-18.7166 L 575.845,-18.3949 L 575.023,-18.2407 z
M 213.9,-18 L 212.664,-18.1958 L 211.9,-18.5359 L 211.223,-19.0274 L 210.664,-19.6489 L 210.246,-20.373
 L 209.987,-21.1684 L 209.9,-22 L 209.9,-55.653 L 210.008,-56.578 L 210.286,-57.3669 L 210.721,-58.0809
 L 211.295,-58.6888 L 211.984,-59.1639 L 212.755,-59.4857 L 213.577,-59.6399 L 214.413,-59.6199 L 215.227,-59.4265
 L 310.94,-25.7735 L 311.964,-25.2361 L 312.586,-24.6765 L 313.077,-24 L 313.417,-23.2361 L 313.591,-22.4181
 L 313.591,-21.5819 L 313.417,-20.7639 L 313.077,-20 L 312.586,-19.3235 L 311.964,-18.7639 L 311.24,-18.3458
 L 310.445,-18.0874 L 309.613,-18 z
M 672.387,-18 L 671.555,-18.0874 L 670.76,-18.3458 L 670.036,-18.7639 L 669.414,-19.3235 L 668.923,-20
 L 668.583,-20.7639 L 668.409,-21.5819 L 668.409,-22.4181 L 668.583,-23.2361 L 668.923,-24 L 669.414,-24.6765
 L 670.036,-25.2361 L 671.06,-25.7735 L 766.773,-59.4265 L 767.587,-59.6199 L 768.423,-59.6399 L 769.245,-59.4857
 L 770.016,-59.1639 L 770.705,-58.6888 L 771.279,-58.0809 L 771.714,-57.3669 L 771.992,-56.578 L 772.1,-55.653
 L 772.1,-22 L 772.013,-21.1684 L 771.754,-20.373 L 771.336,-19.6489 L 770.777,-19.0274 L 770.1,-18.5359
 L 769.336,-18.1958 L 768.1,-18 z
M 22,-18 L 20.7639,-18.1958 L 20,-18.5359 L 19.3235,-19.0274 L 18.7639,-19.6489 L 18.3458,-20.373
 L 18.0874,-21.1684 L 18,-22 L 18,-55.1255 L 18.1084,-56.0506 L 18.3858,-56.8395 L 18.8212,-57.5535
 L 19.3954,-58.1613 L 20.0835,-58.6365 L 20.8554,-58.9583 L 21.6772,-59.1125 L 22.5132,-59.0925 L 23.3268,-58.8991
 L 117.54,-25.7735 L 118.564,-25.2361 L 119.186,-24.6765 L 119.677,-24 L 120.017,-23.2361 L 120.191,-22.4181
 L 120.191,-21.5819 L 120.017,-20.7639 L 119.677,-20 L 119.186,-19.3235 L 118.564,-18.7639 L 117.84,-18.3458
 L 117.045,-18.0874 L 116.213,-18 z
M 865.787,-18 L 864.955,-18.0874 L 864.16,-18.3458 L 863.436,-18.7639 L 862.814,-19.3235 L 862.323,-20
 L 861.983,-20.7639 L 861.809,-21.5819 L 861.809,-22.4181 L 861.983,-23.2361 L 862.323,-24 L 862.814,-24.6765
 L 863.436,-25.2361 L 864.46,-25.7735 L 958.673,-58.8991 L 959.487,-59.0925 L 960.323,-59.1125 L 961.145,-58.9583
 L 961.916,-58.6365 L 962.605,-58.1613 L 963.179,-57.5535 L 963.614,-56.8395 L 963.892,-56.0506 L 964,-55.1255
 L 964,-22 L 963.913,-21.1684 L 963.654,-20.373 L 963.236,-19.6489 L 962.677,-19.0274 L 962,-18.5359
 L 961.236,-18.1958 L 960,-18 z
M 472.959,-18 L 471.814,-18.1673 L 471.043,-18.489 L 470.355,-18.9642 L 469.78,-19.5721 L 469.345,-20.286
 L 469.068,-21.0749 L 468.96,-21.9042 L 469.028,-22.7377 L 469.267,-23.539 L 469.668,-24.273 L 470.212,-24.9077
 L 470.877,-25.4152 L 471.632,-25.7735 L 489.673,-32.1168 L 490.677,-32.3302 L 491.513,-32.3102 L 492.327,-32.1168
 L 510.368,-25.7735 L 511.392,-25.2361 L 512.013,-24.6765 L 512.505,-24 L 512.845,-23.2361 L 513.019,-22.4181
 L 513.019,-21.5819 L 512.845,-20.7639 L 512.505,-20 L 512.013,-19.3235 L 511.392,-18.7639 L 510.668,-18.3458
 L 509.872,-18.0874 L 509.041,-18 z
" stroke="black" fill="lightgray" stroke-width="0.5"/>
</svg>
