<?xml version="1.0" standalone="no"?>
<!DOCTYPE svg PUBLIC "-//W3C//DTD SVG 1.1//EN" "http://www.w3.org/Graphics/SVG/1.1/DTD/svg11.dtd">
<svg width="877mm" height="80mm" viewBox="0 -80 877 80" xmlns="http://www.w3.org/2000/svg" version="1.1">
<title>OpenSCAD Model</title>
<path d="
M 877,-80 L 0,-80 L 0,-0 L 4.95,-0 L 4.95,-6 L 5.00572,-6.53017
 L 5.17046,-7.03717 L 5.437,-7.49884 L 5.79372,-7.895 L 6.22499,-8.20836 L 6.71201,-8.42519 L 7.23344,-8.53603
 L 7.76654,-8.53603 L 8.28798,-8.42519 L 8.77499,-8.20836 L 9.20627,-7.895 L 9.56299,-7.49884 L 9.82953,-7.03717
 L 9.99426,-6.53017 L 10.05,-6 L 10.05,-0 L 177.35,-0 L 177.35,-6 L 177.406,-6.53017
 L 177.57,-7.03717 L 177.837,-7.49884 L 178.194,-7.895 L 178.625,-8.20836 L 179.112,-8.42519 L 179.633,-8.53603
 L 180.167,-8.53603 L 180.688,-8.42519 L 181.175,-8.20836 L 181.606,-7.895 L 181.963,-7.49884 L 182.23,-7.03717
 L 182.394,-6.53017 L 182.45,-6 L 182.45,-0 L 349.75,-0 L 349.75,-6 L 349.806,-6.53017
 L 349.97,-7.03717 L 350.237,-7.49884 L 350.594,-7.895 L 351.025,-8.20836 L 351.512,-8.42519 L 352.033,-8.53603
 L 352.567,-8.53603 L 353.088,-8.42519 L 353.575,-8.20836 L 354.006,-7.895 L 354.363,-7.49884 L 354.63,-7.03717
 L 354.794,-6.53017 L 354.85,-6 L 354.85,-0 L 522.15,-0 L 522.15,-6 L 522.206,-6.53017
 L 522.37,-7.03717 L 522.637,-7.49884 L 522.994,-7.895 L 523.425,-8.20836 L 523.912,-8.42519 L 524.433,-8.53603
 L 524.967,-8.53603 L 525.488,-8.42519 L 525.975,-8.20836 L 526.406,-7.895 L 526.763,-7.49884 L 527.03,-7.03717
 L 527.194,-6.53017 L 527.25,-6 L 527.25,-0 L 694.55,-0 L 694.55,-6 L 694.606,-6.53017
 L 694.77,-7.03717 L 695.037,-7.49884 L 695.394,-7.895 L 695.825,-8.20836 L 696.312,-8.42519 L 696.833,-8.53603
 L 697.367,-8.53603 L 697.888,-8.42519 L 698.375,-8.20836 L 698.806,-7.895 L 699.163,-7.49884 L 699.43,-7.03717
 L 699.594,-6.53017 L 699.65,-6 L 699.65,-0 L 866.95,-0 L 866.95,-6 L 867.006,-6.53017
 L 867.17,-7.03717 L 867.437,-7.49884 L 867.794,-7.895 L 868.225,-8.20836 L 868.712,-8.42519 L 869.233,-8.53603
 L 869.767,-8.53603 L 870.288,-8.42519 L 870.775,-8.20836 L 871.206,-7.895 L 871.563,-7.49884 L 871.83,-7.03717
 L 871.994,-6.53017 L 872.05,-6 L 872.05,-0 L 877,-0 z
M 6.98573,-55.607 L 6.47708,-55.6875 L 5.97964,-55.8208 L 5.49887,-56.0054 L 5.04001,-56.2392 L 4.60811,-56.5196
 L 4.20789,-56.8437 L 3.84373,-57.2079 L 3.51964,-57.6081 L 3.23917,-58.04 L 3.00537,-58.4989 L 2.82082,-58.9796
 L 2.68752,-59.4771 L 2.60696,-59.9857 L 2.58,-60.5 L 2.60696,-61.0143 L 2.68752,-61.5229 L 2.82082,-62.0204
 L 3.00537,-62.5011 L 3.23917,-62.96 L 3.51964,-63.3919 L 3.84373,-63.7921 L 4.20789,-64.1563 L 4.60811,-64.4804
 L 4.95001,-64.7024 L 4.95001,-74 L 5.00574,-74.5302 L 5.17047,-75.0372 L 5.43701,-75.4988 L 5.79373,-75.895
 L 6.22501,-76.2084 L 6.71202,-76.4252 L 7.23346,-76.536 L 7.76654,-76.536 L 8.28798,-76.4252 L 8.77499,-76.2084
 L 9.20627,-75.895 L 9.56299,-75.4988 L 9.82953,-75.0372 L 9.99426,-74.5302 L 10.05,-74 L 10.05,-64.7024
 L 10.3919,-64.4804 L 10.7921,-64.1563 L 11.1563,-63.7921 L 11.4804,-63.3919 L 11.7608,-62.96 L 11.9946,-62.5011
 L 12.1792,-62.0204 L 12.3125,-61.5229 L 12.393,-61.0143 L 12.42,-60.5 L 12.393,-59.9857 L 12.3125,-59.4771
 L 12.1792,-58.9796 L 11.9946,-58.4989 L 11.7608,-58.04 L 11.4804,-57.6081 L 11.1563,-57.2079 L 10.7921,-56.8437
 L 10.3919,-56.5196 L 9.95999,-56.2392 L 9.50113,-56.0054 L 9.02036,-55.8208 L 8.52292,-55.6875 L 8.01427,-55.607
 L 7.5,-55.58 z
M 179.386,-55.607 L 178.877,-55.6875 L 178.38,-55.8208 L 177.899,-56.0054 L 177.44,-56.2392 L 177.008,-56.5196
 L 176.608,-56.8437 L 176.244,-57.2079 L 175.92,-57.6081 L 175.639,-58.04 L 175.405,-58.4989 L 175.221,-58.9796
 L 175.088,-59.4771 L 175.007,-59.9857 L 174.98,-60.5 L 175.007,-61.0143 L 175.088,-61.5229 L 175.221,-62.0204
 L 175.405,-62.5011 L 175.639,-62.96 L 175.92,-63.3919 L 176.244,-63.7921 L 176.608,-64.1563 L 177.008,-64.4804
 L 177.35,-64.7024 L 177.35,-74 L 177.406,-74.5302 L 177.57,-75.0372 L 177.837,-75.4988 L 178.194,-75.895
 L 178.625,-76.2084 L 179.112,-76.4252 L 179.633,-76.536 L 180.167,-76.536 L 180.688,-76.4252 L 181.175,-76.2084
 L 181.606,-75.895 L 181.963,-75.4988 L 182.23,-75.0372 L 182.394,-74.5302 L 182.45,-74 L 182.45,-64.7024
 L 182.792,-64.4804 L 183.192,-64.1563 L 183.556,-63.7921 L 183.88,-63.3919 L 184.161,-62.96 L 184.395,-62.5011
 L 184.579,-62.0204 L 184.712,-61.5229 L 184.793,-61.0143 L 184.82,-60.5 L 184.793,-59.9857 L 184.712,-59.4771
 L 184.579,-58.9796 L 184.395,-58.4989 L 184.161,-58.04 L 183.88,-57.6081 L 183.556,-57.2079 L 183.192,-56.8437
 L 182.792,-56.5196 L 182.36,-56.2392 L 181.901,-56.0054 L 181.42,-55.8208 L 180.923,-55.6875 L 180.414,-55.607
 L 179.9,-55.58 z
M 351.786,-55.607 L 351.277,-55.6875 L 350.78,-55.8208 L 350.299,-56.0054 L 349.84,-56.2392 L 349.408,-56.5196
 L 349.008,-56.8437 L 348.644,-57.2079 L 348.32,-57.6081 L 348.039,-58.04 L 347.805,-58.4989 L 347.621,-58.9796
 L 347.488,-59.4771 L 347.407,-59.9857 L 347.38,-60.5 L 347.407,-61.0143 L 347.488,-61.5229 L 347.621,-62.0204
 L 347.805,-62.5011 L 348.039,-62.96 L 348.32,-63.3919 L 348.644,-63.7921 L 349.008,-64.1563 L 349.408,-64.4804
 L 349.75,-64.7024 L 349.75,-74 L 349.806,-74.5302 L 349.97,-75.0372 L 350.237,-75.4988 L 350.594,-75.895
 L 351.025,-76.2084 L 351.512,-76.4252 L 352.033,-76.536 L 352.567,-76.536 L 353.088,-76.4252 L 353.575,-76.2084
 L 354.006,-75.895 L 354.363,-75.4988 L 354.63,-75.0372 L 354.794,-74.5302 L 354.85,-74 L 354.85,-64.7024
 L 355.192,-64.4804 L 355.592,-64.1563 L 355.956,-63.7921 L 356.28,-63.3919 L 356.561,-62.96 L 356.795,-62.5011
 L 356.979,-62.0204 L 357.112,-61.5229 L 357.193,-61.0143 L 357.22,-60.5 L 357.193,-59.9857 L 357.112,-59.4771
 L 356.979,-58.9796 L 356.795,-58.4989 L 356.561,-58.04 L 356.28,-57.6081 L 355.956,-57.2079 L 355.592,-56.8437
 L 355.192,-56.5196 L 354.76,-56.2392 L 354.301,-56.0054 L 353.82,-55.8208 L 353.323,-55.6875 L 352.814,-55.607
 L 352.3,-55.58 z
M 524.186,-55.607 L 523.677,-55.6875 L 523.18,-55.8208 L 522.699,-56.0054 L 522.24,-56.2392 L 521.808,-56.5196
 L 521.408,-56.8437 L 521.044,-57.2079 L 520.72,-57.6081 L 520.439,-58.04 L 520.205,-58.4989 L 520.021,-58.9796
 L 519.888,-59.4771 L 519.807,-59.9857 L 519.78,-60.5 L 519.807,-61.0143 L 519.888,-61.5229 L 520.021,-62.0204
 L 520.205,-62.5011 L 520.439,-62.96 L 520.72,-63.3919 L 521.044,-63.7921 L 521.408,-64.1563 L 521.808,-64.4804
 L 522.15,-64.7024 L 522.15,-74 L 522.206,-74.5302 L 522.37,-75.0372 L 522.637,-75.4988 L 522.994,-75.895
 L 523.425,-76.2084 L 523.912,-76.4252 L 524.433,-76.536 L 524.967,-76.536 L 525.488,-76.4252 L 525.975,-76.2084
 L 526.406,-75.895 L 526.763,-75.4988 L 527.03,-75.0372 L 527.194,-74.5302 L 527.25,-74 L 527.25,-64.7024
 L 527.592,-64.4804 L 527.992,-64.1563 L 528.356,-63.7921 L 528.68,-63.3919 L 528.961,-62.96 L 529.195,-62.5011
 L 529.379,-62.0204 L 529.512,-61.5229 L 529.593,-61.0143 L 529.62,-60.5 L 529.593,-59.9857 L 529.512,-59.4771
 L 529.379,-58.9796 L 529.195,-58.4989 L 528.961,-58.04 L 528.68,-57.6081 L 528.356,-57.2079 L 527.992,-56.8437
 L 527.592,-56.5196 L 527.16,-56.2392 L 526.701,-56.0054 L 526.22,-55.8208 L 525.723,-55.6875 L 525.214,-55.607
 L 524.7,-55.58 z
M 696.586,-55.607 L 696.077,-55.6875 L 695.58,-55.8208 L 695.099,-56.0054 L 694.64,-56.2392 L 694.208,-56.5196
 L 693.808,-56.8437 L 693.444,-57.2079 L 693.12,-57.6081 L 692.839,-58.04 L 692.605,-58.4989 L 692.421,-58.9796
 L 692.288,-59.4771 L 692.207,-59.9857 L 692.18,-60.5 L 692.207,-61.0143 L 692.288,-61.5229 L 692.421,-62.0204
 L 692.605,-62.5011 L 692.839,-62.96 L 693.12,-63.3919 L 693.444,-63.7921 L 693.808,-64.1563 L 694.208,-64.4804
 L 694.55,-64.7024 L 694.55,-74 L 694.606,-74.5302 L 694.77,-75.0372 L 695.037,-75.4988 L 695.394,-75.895
 L 695.825,-76.2084 L 696.312,-76.4252 L 696.833,-76.536 L 697.367,-76.536 L 697.888,-76.4252 L 698.375,-76.2084
 L 698.806,-75.895 L 699.163,-75.4988 L 699.43,-75.0372 L 699.594,-74.5302 L 699.65,-74 L 699.65,-64.7024
 L 699.992,-64.4804 L 700.392,-64.1563 L 700.756,-63.7921 L 701.08,-63.3919 L 701.361,-62.96 L 701.595,-62.5011
 L 701.779,-62.0204 L 701.912,-61.5229 L 701.993,-61.0143 L 702.02,-60.5 L 701.993,-59.9857 L 701.912,-59.4771
 L 701.779,-58.9796 L 701.595,-58.4989 L 701.361,-58.04 L 701.08,-57.6081 L 700.756,-57.2079 L 700.392,-56.8437
 L 699.992,-56.5196 L 699.56,-56.2392 L 699.101,-56.0054 L 698.62,-55.8208 L 698.123,-55.6875 L 697.614,-55.607
 L 697.1,-55.58 z
M 868.986,-55.607 L 868.477,-55.6875 L 867.98,-55.8208 L 867.499,-56.0054 L 867.04,-56.2392 L 866.608,-56.5196
 L 866.208,-56.8437 L 865.844,-57.2079 L 865.52,-57.6081 L 865.239,-58.04 L 865.005,-58.4989 L 864.821,-58.9796
 L 864.688,-59.4771 L 864.607,-59.9857 L 864.58,-60.5 L 864.607,-61.0143 L 864.688,-61.5229 L 864.821,-62.0204
 L 865.005,-62.5011 L 865.239,-62.96 L 865.52,-63.3919 L 865.844,-63.7921 L 866.208,-64.1563 L 866.608,-64.4804
 L 866.95,-64.7024 L 866.95,-74 L 867.006,-74.5302 L 867.17,-75.0372 L 867.437,-75.4988 L 867.794,-75.895
 L 868.225,-76.2084 L 868.712,-76.4252 L 869.233,-76.536 L 869.767,-76.536 L 870.288,-76.4252 L 870.775,-76.2084
 L 871.206,-75.895 L 871.563,-75.4988 L 871.83,-75.0372 L 871.994,-74.5302 L 872.05,-74 L 872.05,-64.7024
 L 872.392,-64.4804 L 872.792,-64.1563 L 873.156,-63.7921 L 873.48,-63.3919 L 873.761,-62.96 L 873.995,-62.5011
 L 874.179,-62.0204 L 874.312,-61.5229 L 874.393,-61.0143 L 874.42,-60.5 L 874.393,-59.9857 L 874.312,-59.4771
 L 874.179,-58.9796 L 873.995,-58.4989 L 873.761,-58.04 L 873.48,-57.6081 L 873.156,-57.2079 L 872.792,-56.8437
 L 872.392,-56.5196 L 871.96,-56.2392 L 871.501,-56.0054 L 871.02,-55.8208 L 870.523,-55.6875 L 870.014,-55.607
 L 869.5,-55.58 z
M 437.838,-47.8689 L 437.032,-48.0927 L 421.348,-54.279 L 420.465,-54.7639 L 419.843,-55.3235 L 419.352,-56
 L 419.012,-56.7639 L 418.838,-57.5819 L 418.838,-58.4181 L 419.012,-59.2361 L 419.352,-60 L 419.843,-60.6765
 L 420.465,-61.2361 L 421.189,-61.6542 L 421.984,-61.9126 L 422.816,-62 L 454.184,-62 L 455.184,-61.873
 L 455.967,-61.5805 L 456.673,-61.1316 L 457.269,-60.5457 L 457.731,-59.8486 L 458.038,-59.0707 L 458.176,-58.246
 L 458.14,-57.4106 L 457.931,-56.6009 L 457.559,-55.8523 L 457.038,-55.1976 L 456.393,-54.6655 L 455.652,-54.279
 L 439.968,-48.0927 L 439.5,-47.9407 L 438.673,-47.8174 z
M 338.638,-21.1444 L 337.832,-21.3683 L 254.394,-54.279 L 253.51,-54.7639 L 252.889,-55.3235 L 252.398,-56
 L 252.057,-56.7639 L 251.884,-57.5819 L 251.884,-58.4181 L 252.057,-59.2361 L 252.398,-60 L 252.889,-60.6765
 L 253.51,-61.2361 L 254.235,-61.6542 L 255.03,-61.9126 L 255.862,-62 L 339.3,-62 L 340.536,-61.8042
 L 341.3,-61.4641 L 341.977,-60.9726 L 342.536,-60.3511 L 342.954,-59.627 L 343.213,-58.8316 L 343.3,-58
 L 343.3,-25.0893 L 343.154,-24.0186 L 342.847,-23.2407 L 342.385,-22.5436 L 341.789,-21.9577 L 341.083,-21.5087
 L 340.3,-21.2162 L 339.473,-21.093 z
M 709.1,-21.2162 L 708.317,-21.5087 L 707.611,-21.9577 L 707.015,-22.5436 L 706.553,-23.2407 L 706.246,-24.0186
 L 706.1,-25.0893 L 706.1,-58 L 706.187,-58.8316 L 706.446,-59.627 L 706.864,-60.3511 L 707.423,-60.9726
 L 708.1,-61.4641 L 708.864,-61.8042 L 710.1,-62 L 793.538,-62 L 794.37,-61.9126 L 795.165,-61.6542
 L 795.889,-61.2361 L 796.511,-60.6765 L 797.002,-60 L 797.343,-59.2361 L 797.516,-58.4181 L 797.516,-57.5819
 L 797.343,-56.7639 L 797.002,-56 L 796.511,-55.3235 L 795.889,-54.7639 L 795.006,-54.279 L 711.568,-21.3683
 L 710.762,-21.1444 L 709.927,-21.093 z
M 166.238,-21.1444 L 165.432,-21.3683 L 81.994,-54.279 L 81.1105,-54.7639 L 80.4891,-55.3235 L 79.9975,-56
 L 79.6574,-56.7639 L 79.4836,-57.5819 L 79.4836,-58.4181 L 79.6574,-59.2361 L 79.9975,-60 L 80.4891,-60.6765
 L 81.1105,-61.2361 L 81.8347,-61.6542 L 82.63,-61.9126 L 83.4616,-62 L 166.9,-62 L 168.136,-61.8042
 L 168.9,-61.4641 L 169.577,-60.9726 L 170.136,-60.3511 L 170.554,-59.627 L 170.813,-58.8316 L 170.9,-58
 L 170.9,-25.0893 L 170.754,-24.0186 L 170.447,-23.2407 L 169.985,-22.5436 L 169.389,-21.9577 L 168.683,-21.5087
 L 167.9,-21.2162 L 167.073,-21.093 z
M 536.7,-21.2162 L 535.917,-21.5087 L 535.211,-21.9577 L 534.615,-22.5436 L 534.153,-23.2407 L 533.846,-24.0186
 L 533.7,-25.0893 L 533.7,-58 L 533.787,-58.8316 L 534.046,-59.627 L 534.464,-60.3511 L 535.023,-60.9726
 L 535.7,-61.4641 L 536.464,-61.8042 L 537.7,-62 L 621.138,-62 L 621.97,-61.9126 L 622.765,-61.6542
 L 623.489,-61.2361 L 624.111,-60.6765 L 624.602,-60 L 624.943,-59.2361 L 625.116,-58.4181 L 625.116,-57.5819
 L 624.943,-56.7639 L 624.602,-56 L 624.111,-55.3235 L 623.489,-54.7639 L 622.606,-54.279 L 539.168,-21.3683
 L 538.362,-21.1444 L 537.527,-21.093 z
M 364.882,-18.9633 L 364.064,-19.1371 L 363.3,-19.4772 L 362.623,-19.9688 L 362.064,-20.5902 L 361.646,-21.3144
 L 361.387,-22.1097 L 361.3,-22.9413 L 361.3,-57.0587 L 361.446,-58.1293 L 361.753,-58.9072 L 362.215,-59.6044
 L 362.811,-60.1902 L 363.517,-60.6392 L 364.3,-60.9317 L 365.127,-61.0549 L 365.962,-61.0035 L 366.768,-60.7797
 L 410.016,-43.721 L 411.037,-43.1316 L 411.634,-42.5457 L 412.096,-41.8486 L 412.403,-41.0707 L 412.541,-40.246
 L 412.505,-39.4106 L 412.296,-38.6009 L 411.923,-37.8523 L 411.403,-37.1976 L 410.758,-36.6655 L 410.016,-36.279
 L 366.768,-19.2203 L 365.718,-18.9633 z
M 511.038,-18.9965 L 510.232,-19.2203 L 466.984,-36.279 L 465.963,-36.8684 L 465.366,-37.4543 L 464.904,-38.1514
 L 464.597,-38.9293 L 464.459,-39.754 L 464.495,-40.5894 L 464.704,-41.3991 L 465.077,-42.1477 L 465.597,-42.8024
 L 466.242,-43.3345 L 466.984,-43.721 L 510.232,-60.7797 L 511.282,-61.0368 L 512.118,-61.0368 L 512.936,-60.8629
 L 513.7,-60.5228 L 514.377,-60.0312 L 514.936,-59.4098 L 515.354,-58.6856 L 515.613,-57.8903 L 515.7,-57.0587
 L 515.7,-22.9413 L 515.554,-21.8706 L 515.247,-21.0927 L 514.785,-20.3956 L 514.189,-19.8098 L 513.483,-19.3608
 L 512.7,-19.0683 L 511.873,-18.9451 z
M 192.9,-18 L 191.664,-18.1958 L 190.9,-18.5359 L 190.223,-19.0274 L 189.664,-19.6489 L 189.246,-20.373
 L 188.987,-21.1684 L 188.9,-22 L 188.9,-54.9107 L 189.046,-55.9814 L 189.353,-56.7593 L 189.815,-57.4564
 L 190.411,-58.0423 L 191.117,-58.4912 L 191.9,-58.7838 L 192.727,-58.907 L 193.562,-58.8555 L 194.368,-58.6317
 L 277.806,-25.721 L 278.689,-25.2361 L 279.311,-24.6765 L 279.802,-24 L 280.143,-23.2361 L 280.316,-22.4181
 L 280.316,-21.5819 L 280.143,-20.7639 L 279.802,-20 L 279.311,-19.3235 L 278.689,-18.7639 L 277.965,-18.3458
 L 277.17,-18.0874 L 276.338,-18 z
M 600.662,-18 L 599.83,-18.0874 L 599.035,-18.3458 L 598.311,-18.7639 L 597.689,-19.3235 L 597.198,-20
 L 596.857,-20.7639 L 596.684,-21.5819 L 596.684,-22.4181 L 596.857,-23.2361 L 597.198,-24 L 597.689,-24.6765
 L 598.311,-25.2361 L 599.194,-25.721 L 682.632,-58.6317 L 683.438,-58.8555 L 684.273,-58.907 L 685.1,-58.7838
 L 685.883,-58.4912 L 686.589,-58.0423 L 687.185,-57.4564 L 687.647,-56.7593 L 687.954,-55.9814 L 688.1,-54.9107
 L 688.1,-22 L 688.013,-21.1684 L 687.754,-20.373 L 687.336,-19.6489 L 686.777,-19.0274 L 686.1,-18.5359
 L 685.336,-18.1958 L 684.1,-18 z
M 22,-18 L 20.7639,-18.1958 L 20,-18.5359 L 19.3235,-19.0274 L 18.7639,-19.6489 L 18.3458,-20.373
 L 18.0874,-21.1684 L 18,-22 L 18,-54.3191 L 18.146,-55.3898 L 18.4528,-56.1676 L 18.9146,-56.8648
 L 19.5114,-57.4506 L 20.2168,-57.8996 L 21.0002,-58.1921 L 21.8273,-58.3153 L 22.662,-58.2639 L 23.4677,-58.0401
 L 105.406,-25.721 L 106.289,-25.2361 L 106.911,-24.6765 L 107.402,-24 L 107.743,-23.2361 L 107.916,-22.4181
 L 107.916,-21.5819 L 107.743,-20.7639 L 107.402,-20 L 106.911,-19.3235 L 106.289,-18.7639 L 105.565,-18.3458
 L 104.77,-18.0874 L 103.938,-18 z
M 773.062,-18 L 772.23,-18.0874 L 771.435,-18.3458 L 770.711,-18.7639 L 770.089,-19.3235 L 769.598,-20
 L 769.257,-20.7639 L 769.084,-21.5819 L 769.084,-22.4181 L 769.257,-23.2361 L 769.598,-24 L 770.089,-24.6765
 L 770.711,-25.2361 L 771.594,-25.721 L 853.532,-58.0401 L 854.338,-58.2639 L 855.173,-58.3153 L 856,-58.1921
 L 856.783,-57.8996 L 857.489,-57.4506 L 858.085,-56.8648 L 858.547,-56.1676 L 858.854,-55.3898 L 859,-54.3191
 L 859,-22 L 858.913,-21.1684 L 858.654,-20.373 L 858.236,-19.6489 L 857.677,-19.0274 L 857,-18.5359
 L 856.236,-18.1958 L 855,-18 z
M 422.816,-18 L 421.816,-18.127 L 421.033,-18.4195 L 420.327,-18.8684 L 419.731,-19.4543 L 419.269,-20.1514
 L 418.962,-20.9293 L 418.824,-21.754 L 418.86,-22.5894 L 419.069,-23.3991 L 419.441,-24.1477 L 419.962,-24.8024
 L 420.607,-25.3345 L 421.348,-25.721 L 437.032,-31.9073 L 437.5,-32.0593 L 438.327,-32.1826 L 439.162,-32.1311
 L 439.968,-31.9073 L 455.652,-25.721 L 456.535,-25.2361 L 457.157,-24.6765 L 457.648,-24 L 457.988,-23.2361
 L 458.162,-22.4181 L 458.162,-21.5819 L 457.988,-20.7639 L 457.648,-20 L 457.157,-19.3235 L 456.535,-18.7639
 L 455.811,-18.3458 L 455.016,-18.0874 L 454.184,-18 z
" stroke="black" fill="lightgray" stroke-width="0.5"/>
</svg>
