<?xml version="1.0" standalone="no"?>
<!DOCTYPE svg PUBLIC "-//W3C//DTD SVG 1.1//EN" "http://www.w3.org/Graphics/SVG/1.1/DTD/svg11.dtd">
<svg width="820mm" height="80mm" viewBox="0 -80 820 80" xmlns="http://www.w3.org/2000/svg" version="1.1">
<title>OpenSCAD Model</title>
<path d="
M 820,-80 L 0,-80 L 0,-0 L 4.95,-0 L 4.95,-6 L 5.00572,-6.53017
 L 5.17046,-7.03717 L 5.437,-7.49884 L 5.79372,-7.895 L 6.22499,-8.20836 L 6.71201,-8.42519 L 7.23344,-8.53603
 L 7.76654,-8.53603 L 8.28798,-8.42519 L 8.77499,-8.20836 L 9.20627,-7.895 L 9.56299,-7.49884 L 9.82953,-7.03717
 L 9.99426,-6.53017 L 10.05,-6 L 10.05,-0 L 165.95,-0 L 165.95,-6 L 166.006,-6.53017
 L 166.17,-7.03717 L 166.437,-7.49884 L 166.794,-7.895 L 167.225,-8.20836 L 167.712,-8.42519 L 168.233,-8.53603
 L 168.767,-8.53603 L 169.288,-8.42519 L 169.775,-8.20836 L 170.206,-7.895 L 170.563,-7.49884 L 170.83,-7.03717
 L 170.994,-6.53017 L 171.05,-6 L 171.05,-0 L 326.95,-0 L 326.95,-6 L 327.006,-6.53017
 L 327.17,-7.03717 L 327.437,-7.49884 L 327.794,-7.895 L 328.225,-8.20836 L 328.712,-8.42519 L 329.233,-8.53603
 L 329.767,-8.53603 L 330.288,-8.42519 L 330.775,-8.20836 L 331.206,-7.895 L 331.563,-7.49884 L 331.83,-7.03717
 L 331.994,-6.53017 L 332.05,-6 L 332.05,-0 L 487.95,-0 L 487.95,-6 L 488.006,-6.53017
 L 488.17,-7.03717 L 488.437,-7.49884 L 488.794,-7.895 L 489.225,-8.20836 L 489.712,-8.42519 L 490.233,-8.53603
 L 490.767,-8.53603 L 491.288,-8.42519 L 491.775,-8.20836 L 492.206,-7.895 L 492.563,-7.49884 L 492.83,-7.03717
 L 492.994,-6.53017 L 493.05,-6 L 493.05,-0 L 648.95,-0 L 648.95,-6 L 649.006,-6.53017
 L 649.17,-7.03717 L 649.437,-7.49884 L 649.794,-7.895 L 650.225,-8.20836 L 650.712,-8.42519 L 651.233,-8.53603
 L 651.767,-8.53603 L 652.288,-8.42519 L 652.775,-8.20836 L 653.206,-7.895 L 653.563,-7.49884 L 653.83,-7.03717
 L 653.994,-6.53017 L 654.05,-6 L 654.05,-0 L 809.95,-0 L 809.95,-6 L 810.006,-6.53017
 L 810.17,-7.03717 L 810.437,-7.49884 L 810.794,-7.895 L 811.225,-8.20836 L 811.712,-8.42519 L 812.233,-8.53603
 L 812.767,-8.53603 L 813.288,-8.42519 L 813.775,-8.20836 L 814.206,-7.895 L 814.563,-7.49884 L 814.83,-7.03717
 L 814.994,-6.53017 L 815.05,-6 L 815.05,-0 L 820,-0 z
M 6.98573,-55.607 L 6.47708,-55.6875 L 5.97964,-55.8208 L 5.49887,-56.0054 L 5.04001,-56.2392 L 4.60811,-56.5196
 L 4.20789,-56.8437 L 3.84373,-57.2079 L 3.51964,-57.6081 L 3.23917,-58.04 L 3.00537,-58.4989 L 2.82082,-58.9796
 L 2.68752,-59.4771 L 2.60696,-59.9857 L 2.58,-60.5 L 2.60696,-61.0143 L 2.68752,-61.5229 L 2.82082,-62.0204
 L 3.00537,-62.5011 L 3.23917,-62.96 L 3.51964,-63.3919 L 3.84373,-63.7921 L 4.20789,-64.1563 L 4.60811,-64.4804
 L 4.95001,-64.7024 L 4.95001,-74 L 5.00574,-74.5302 L 5.17047,-75.0372 L 5.43701,-75.4988 L 5.79373,-75.895
 L 6.22501,-76.2084 L 6.71202,-76.4252 L 7.23346,-76.536 L 7.76654,-76.536 L 8.28798,-76.4252 L 8.77499,-76.2084
 L 9.20627,-75.895 L 9.56299,-75.4988 L 9.82953,-75.0372 L 9.99426,-74.5302 L 10.05,-74 L 10.05,-64.7024
 L 10.3919,-64.4804 L 10.7921,-64.1563 L 11.1563,-63.7921 L 11.4804,-63.3919 L 11.7608,-62.96 L 11.9946,-62.5011
 L 12.1792,-62.0204 L 12.3125,-61.5229 L 12.393,-61.0143 L 12.42,-60.5 L 12.393,-59.9857 L 12.3125,-59.4771
 L 12.1792,-58.9796 L 11.9946,-58.4989 L 11.7608,-58.04 L 11.4804,-57.6081 L 11.1563,-57.2079 L 10.7921,-56.8437
 L 10.3919,-56.5196 L 9.95999,-56.2392 L 9.50113,-56.0054 L 9.02036,-55.8208 L 8.52292,-55.6875 L 8.01427,-55.607
 L 7.5,-55.58 z
M 167.986,-55.607 L 167.477,-55.6875 L 166.98,-55.8208 L 166.499,-56.0054 L 166.04,-56.2392 L 165.608,-56.5196
 L 165.208,-56.8437 L 164.844,-57.2079 L 164.52,-57.6081 L 164.239,-58.04 L 164.005,-58.4989 L 163.821,-58.9796
 L 163.688,-59.4771 L 163.607,-59.9857 L 163.58,-60.5 L 163.607,-61.0143 L 163.688,-61.5229 L 163.821,-62.0204
 L 164.005,-62.5011 L 164.239,-62.96 L 164.52,-63.3919 L 164.844,-63.7921 L 165.208,-64.1563 L 165.608,-64.4804
 L 165.95,-64.7024 L 165.95,-74 L 166.006,-74.5302 L 166.17,-75.0372 L 166.437,-75.4988 L 166.794,-75.895
 L 167.225,-76.2084 L 167.712,-76.4252 L 168.233,-76.536 L 168.767,-76.536 L 169.288,-76.4252 L 169.775,-76.2084
 L 170.206,-75.895 L 170.563,-75.4988 L 170.83,-75.0372 L 170.994,-74.5302 L 171.05,-74 L 171.05,-64.7024
 L 171.392,-64.4804 L 171.792,-64.1563 L 172.156,-63.7921 L 172.48,-63.3919 L 172.761,-62.96 L 172.995,-62.5011
 L 173.179,-62.0204 L 173.312,-61.5229 L 173.393,-61.0143 L 173.42,-60.5 L 173.393,-59.9857 L 173.312,-59.4771
 L 173.179,-58.9796 L 172.995,-58.4989 L 172.761,-58.04 L 172.48,-57.6081 L 172.156,-57.2079 L 171.792,-56.8437
 L 171.392,-56.5196 L 170.96,-56.2392 L 170.501,-56.0054 L 170.02,-55.8208 L 169.523,-55.6875 L 169.014,-55.607
 L 168.5,-55.58 z
M 328.986,-55.607 L 328.477,-55.6875 L 327.98,-55.8208 L 327.499,-56.0054 L 327.04,-56.2392 L 326.608,-56.5196
 L 326.208,-56.8437 L 325.844,-57.2079 L 325.52,-57.6081 L 325.239,-58.04 L 325.005,-58.4989 L 324.821,-58.9796
 L 324.688,-59.4771 L 324.607,-59.9857 L 324.58,-60.5 L 324.607,-61.0143 L 324.688,-61.5229 L 324.821,-62.0204
 L 325.005,-62.5011 L 325.239,-62.96 L 325.52,-63.3919 L 325.844,-63.7921 L 326.208,-64.1563 L 326.608,-64.4804
 L 326.95,-64.7024 L 326.95,-74 L 327.006,-74.5302 L 327.17,-75.0372 L 327.437,-75.4988 L 327.794,-75.895
 L 328.225,-76.2084 L 328.712,-76.4252 L 329.233,-76.536 L 329.767,-76.536 L 330.288,-76.4252 L 330.775,-76.2084
 L 331.206,-75.895 L 331.563,-75.4988 L 331.83,-75.0372 L 331.994,-74.5302 L 332.05,-74 L 332.05,-64.7024
 L 332.392,-64.4804 L 332.792,-64.1563 L 333.156,-63.7921 L 333.48,-63.3919 L 333.761,-62.96 L 333.995,-62.5011
 L 334.179,-62.0204 L 334.312,-61.5229 L 334.393,-61.0143 L 334.42,-60.5 L 334.393,-59.9857 L 334.312,-59.4771
 L 334.179,-58.9796 L 333.995,-58.4989 L 333.761,-58.04 L 333.48,-57.6081 L 333.156,-57.2079 L 332.792,-56.8437
 L 332.392,-56.5196 L 331.96,-56.2392 L 331.501,-56.0054 L 331.02,-55.8208 L 330.523,-55.6875 L 330.014,-55.607
 L 329.5,-55.58 z
M 489.986,-55.607 L 489.477,-55.6875 L 488.98,-55.8208 L 488.499,-56.0054 L 488.04,-56.2392 L 487.608,-56.5196
 L 487.208,-56.8437 L 486.844,-57.2079 L 486.52,-57.6081 L 486.239,-58.04 L 486.005,-58.4989 L 485.821,-58.9796
 L 485.688,-59.4771 L 485.607,-59.9857 L 485.58,-60.5 L 485.607,-61.0143 L 485.688,-61.5229 L 485.821,-62.0204
 L 486.005,-62.5011 L 486.239,-62.96 L 486.52,-63.3919 L 486.844,-63.7921 L 487.208,-64.1563 L 487.608,-64.4804
 L 487.95,-64.7024 L 487.95,-74 L 488.006,-74.5302 L 488.17,-75.0372 L 488.437,-75.4988 L 488.794,-75.895
 L 489.225,-76.2084 L 489.712,-76.4252 L 490.233,-76.536 L 490.767,-76.536 L 491.288,-76.4252 L 491.775,-76.2084
 L 492.206,-75.895 L 492.563,-75.4988 L 492.83,-75.0372 L 492.994,-74.5302 L 493.05,-74 L 493.05,-64.7024
 L 493.392,-64.4804 L 493.792,-64.1563 L 494.156,-63.7921 L 494.48,-63.3919 L 494.761,-62.96 L 494.995,-62.5011
 L 495.179,-62.0204 L 495.312,-61.5229 L 495.393,-61.0143 L 495.42,-60.5 L 495.393,-59.9857 L 495.312,-59.4771
 L 495.179,-58.9796 L 494.995,-58.4989 L 494.761,-58.04 L 494.48,-57.6081 L 494.156,-57.2079 L 493.792,-56.8437
 L 493.392,-56.5196 L 492.96,-56.2392 L 492.501,-56.0054 L 492.02,-55.8208 L 491.523,-55.6875 L 491.014,-55.607
 L 490.5,-55.58 z
M 650.986,-55.607 L 650.477,-55.6875 L 649.98,-55.8208 L 649.499,-56.0054 L 649.04,-56.2392 L 648.608,-56.5196
 L 648.208,-56.8437 L 647.844,-57.2079 L 647.52,-57.6081 L 647.239,-58.04 L 647.005,-58.4989 L 646.821,-58.9796
 L 646.688,-59.4771 L 646.607,-59.9857 L 646.58,-60.5 L 646.607,-61.0143 L 646.688,-61.5229 L 646.821,-62.0204
 L 647.005,-62.5011 L 647.239,-62.96 L 647.52,-63.3919 L 647.844,-63.7921 L 648.208,-64.1563 L 648.608,-64.4804
 L 648.95,-64.7024 L 648.95,-74 L 649.006,-74.5302 L 649.17,-75.0372 L 649.437,-75.4988 L 649.794,-75.895
 L 650.225,-76.2084 L 650.712,-76.4252 L 651.233,-76.536 L 651.767,-76.536 L 652.288,-76.4252 L 652.775,-76.2084
 L 653.206,-75.895 L 653.563,-75.4988 L 653.83,-75.0372 L 653.994,-74.5302 L 654.05,-74 L 654.05,-64.7024
 L 654.392,-64.4804 L 654.792,-64.1563 L 655.156,-63.7921 L 655.48,-63.3919 L 655.761,-62.96 L 655.995,-62.5011
 L 656.179,-62.0204 L 656.312,-61.5229 L 656.393,-61.0143 L 656.42,-60.5 L 656.393,-59.9857 L 656.312,-59.4771
 L 656.179,-58.9796 L 655.995,-58.4989 L 655.761,-58.04 L 655.48,-57.6081 L 655.156,-57.2079 L 654.792,-56.8437
 L 654.392,-56.5196 L 653.96,-56.2392 L 653.501,-56.0054 L 653.02,-55.8208 L 652.523,-55.6875 L 652.014,-55.607
 L 651.5,-55.58 z
M 811.986,-55.607 L 811.477,-55.6875 L 810.98,-55.8208 L 810.499,-56.0054 L 810.04,-56.2392 L 809.608,-56.5196
 L 809.208,-56.8437 L 808.844,-57.2079 L 808.52,-57.6081 L 808.239,-58.04 L 808.005,-58.4989 L 807.821,-58.9796
 L 807.688,-59.4771 L 807.607,-59.9857 L 807.58,-60.5 L 807.607,-61.0143 L 807.688,-61.5229 L 807.821,-62.0204
 L 808.005,-62.5011 L 808.239,-62.96 L 808.52,-63.3919 L 808.844,-63.7921 L 809.208,-64.1563 L 809.608,-64.4804
 L 809.95,-64.7024 L 809.95,-74 L 810.006,-74.5302 L 810.17,-75.0372 L 810.437,-75.4988 L 810.794,-75.895
 L 811.225,-76.2084 L 811.712,-76.4252 L 812.233,-76.536 L 812.767,-76.536 L 813.288,-76.4252 L 813.775,-76.2084
 L 814.206,-75.895 L 814.563,-75.4988 L 814.83,-75.0372 L 814.994,-74.5302 L 815.05,-74 L 815.05,-64.7024
 L 815.392,-64.4804 L 815.792,-64.1563 L 816.156,-63.7921 L 816.48,-63.3919 L 816.761,-62.96 L 816.995,-62.5011
 L 817.179,-62.0204 L 817.312,-61.5229 L 817.393,-61.0143 L 817.42,-60.5 L 817.393,-59.9857 L 817.312,-59.4771
 L 817.179,-58.9796 L 816.995,-58.4989 L 816.761,-58.04 L 816.48,-57.6081 L 816.156,-57.2079 L 815.792,-56.8437
 L 815.392,-56.5196 L 814.96,-56.2392 L 814.501,-56.0054 L 814.02,-55.8208 L 813.523,-55.6875 L 813.014,-55.607
 L 812.5,-55.58 z
M 409.244,-48.0108 L 408.444,-48.2539 L 394.093,-54.3152 L 393.298,-54.7639 L 392.676,-55.3235 L 392.185,-56
 L 391.845,-56.7639 L 391.671,-57.5819 L 391.671,-58.4181 L 391.845,-59.2361 L 392.185,-60 L 392.676,-60.6765
 L 393.298,-61.2361 L 394.022,-61.6542 L 394.817,-61.9126 L 395.649,-62 L 424.351,-62 L 425.258,-61.8959
 L 426.048,-61.6222 L 426.764,-61.1902 L 427.375,-60.6188 L 427.853,-59.933 L 428.178,-59.1626 L 428.336,-58.3415
 L 428.32,-57.5054 L 428.131,-56.6909 L 427.776,-55.9337 L 427.272,-55.2668 L 426.639,-54.7193 L 425.907,-54.3152
 L 411.556,-48.2539 L 410.907,-48.0428 L 410.077,-47.9394 z
M 315.744,-21.6721 L 314.944,-21.9152 L 238.232,-54.3152 L 237.437,-54.7639 L 236.816,-55.3235 L 236.324,-56
 L 235.984,-56.7639 L 235.81,-57.5819 L 235.81,-58.4181 L 235.984,-59.2361 L 236.324,-60 L 236.816,-60.6765
 L 237.437,-61.2361 L 238.161,-61.6542 L 238.957,-61.9126 L 239.788,-62 L 316.5,-62 L 317.736,-61.8042
 L 318.5,-61.4641 L 319.177,-60.9726 L 319.736,-60.3511 L 320.154,-59.627 L 320.413,-58.8316 L 320.5,-58
 L 320.5,-25.6 L 320.327,-24.4374 L 320.002,-23.6671 L 319.524,-22.9812 L 318.913,-22.4098 L 318.197,-21.9778
 L 317.407,-21.7042 L 316.577,-21.6008 z
M 663.593,-21.7042 L 662.803,-21.9778 L 662.087,-22.4098 L 661.476,-22.9812 L 660.998,-23.6671 L 660.673,-24.4374
 L 660.5,-25.6 L 660.5,-58 L 660.587,-58.8316 L 660.846,-59.627 L 661.264,-60.3511 L 661.823,-60.9726
 L 662.5,-61.4641 L 663.264,-61.8042 L 664.5,-62 L 741.212,-62 L 742.043,-61.9126 L 742.839,-61.6542
 L 743.563,-61.2361 L 744.184,-60.6765 L 744.676,-60 L 745.016,-59.2361 L 745.19,-58.4181 L 745.19,-57.5819
 L 745.016,-56.7639 L 744.676,-56 L 744.184,-55.3235 L 743.563,-54.7639 L 742.768,-54.3152 L 666.056,-21.9152
 L 665.256,-21.6721 L 664.423,-21.6008 z
M 154.744,-21.6721 L 153.944,-21.9152 L 77.232,-54.3152 L 76.4372,-54.7639 L 75.8157,-55.3235 L 75.3242,-56
 L 74.9841,-56.7639 L 74.8102,-57.5819 L 74.8102,-58.4181 L 74.9841,-59.2361 L 75.3242,-60 L 75.8157,-60.6765
 L 76.4372,-61.2361 L 77.1613,-61.6542 L 77.9566,-61.9126 L 78.7883,-62 L 155.5,-62 L 156.736,-61.8042
 L 157.5,-61.4641 L 158.177,-60.9726 L 158.736,-60.3511 L 159.154,-59.627 L 159.413,-58.8316 L 159.5,-58
 L 159.5,-25.6 L 159.327,-24.4374 L 159.002,-23.6671 L 158.524,-22.9812 L 157.913,-22.4098 L 157.197,-21.9778
 L 156.407,-21.7042 L 155.577,-21.6008 z
M 502.593,-21.7042 L 501.803,-21.9778 L 501.087,-22.4098 L 500.476,-22.9812 L 499.998,-23.6671 L 499.673,-24.4374
 L 499.5,-25.6 L 499.5,-58 L 499.587,-58.8316 L 499.846,-59.627 L 500.264,-60.3511 L 500.823,-60.9726
 L 501.5,-61.4641 L 502.264,-61.8042 L 503.5,-62 L 580.212,-62 L 581.043,-61.9126 L 581.839,-61.6542
 L 582.563,-61.2361 L 583.184,-60.6765 L 583.676,-60 L 584.016,-59.2361 L 584.19,-58.4181 L 584.19,-57.5819
 L 584.016,-56.7639 L 583.676,-56 L 583.184,-55.3235 L 582.563,-54.7639 L 581.768,-54.3152 L 505.056,-21.9152
 L 504.256,-21.6721 L 503.423,-21.6008 z
M 342.082,-19.4513 L 341.264,-19.6251 L 340.5,-19.9653 L 339.823,-20.4568 L 339.264,-21.0782 L 338.846,-21.8024
 L 338.587,-22.5977 L 338.5,-23.4294 L 338.5,-56.5706 L 338.673,-57.7333 L 338.998,-58.5036 L 339.476,-59.1895
 L 340.087,-59.7608 L 340.803,-60.1928 L 341.593,-60.4665 L 342.423,-60.5699 L 343.256,-60.4985 L 344.056,-60.2554
 L 383.29,-43.6848 L 384.146,-43.1902 L 384.757,-42.6188 L 385.235,-41.933 L 385.561,-41.1626 L 385.719,-40.3415
 L 385.703,-39.5054 L 385.513,-38.6909 L 385.158,-37.9337 L 384.654,-37.2668 L 384.022,-36.7193 L 383.29,-36.3152
 L 344.056,-19.7446 L 342.918,-19.4513 z
M 476.744,-19.5015 L 475.944,-19.7445 L 436.71,-36.3152 L 435.854,-36.8098 L 435.243,-37.3812 L 434.765,-38.067
 L 434.439,-38.8374 L 434.281,-39.6585 L 434.297,-40.4946 L 434.487,-41.3091 L 434.842,-42.0663 L 435.346,-42.7332
 L 435.978,-43.2807 L 436.71,-43.6848 L 475.944,-60.2555 L 477.082,-60.5487 L 477.918,-60.5487 L 478.736,-60.3749
 L 479.5,-60.0347 L 480.177,-59.5432 L 480.736,-58.9218 L 481.154,-58.1976 L 481.413,-57.4023 L 481.5,-56.5706
 L 481.5,-23.4294 L 481.327,-22.2667 L 481.002,-21.4964 L 480.524,-20.8105 L 479.913,-20.2391 L 479.197,-19.8072
 L 478.407,-19.5335 L 477.577,-19.4301 z
M 181.5,-18 L 180.264,-18.1958 L 179.5,-18.5359 L 178.823,-19.0274 L 178.264,-19.6489 L 177.846,-20.373
 L 177.587,-21.1684 L 177.5,-22 L 177.5,-54.4 L 177.673,-55.5626 L 177.998,-56.3329 L 178.476,-57.0188
 L 179.087,-57.5902 L 179.803,-58.0222 L 180.593,-58.2958 L 181.423,-58.3992 L 182.256,-58.3278 L 183.056,-58.0848
 L 259.768,-25.6848 L 260.563,-25.2361 L 261.184,-24.6765 L 261.676,-24 L 262.016,-23.2361 L 262.19,-22.4181
 L 262.19,-21.5819 L 262.016,-20.7639 L 261.676,-20 L 261.184,-19.3235 L 260.563,-18.7639 L 259.839,-18.3458
 L 259.043,-18.0874 L 258.212,-18 z
M 561.788,-18 L 560.957,-18.0874 L 560.161,-18.3458 L 559.437,-18.7639 L 558.816,-19.3235 L 558.324,-20
 L 557.984,-20.7639 L 557.81,-21.5819 L 557.81,-22.4181 L 557.984,-23.2361 L 558.324,-24 L 558.816,-24.6765
 L 559.437,-25.2361 L 560.232,-25.6848 L 636.944,-58.0848 L 637.744,-58.3278 L 638.577,-58.3992 L 639.407,-58.2958
 L 640.197,-58.0222 L 640.913,-57.5902 L 641.524,-57.0188 L 642.002,-56.3329 L 642.327,-55.5626 L 642.5,-54.4
 L 642.5,-22 L 642.413,-21.1684 L 642.154,-20.373 L 641.736,-19.6489 L 641.177,-19.0274 L 640.5,-18.5359
 L 639.736,-18.1958 L 638.5,-18 z
M 22,-18 L 20.7639,-18.1958 L 20,-18.5359 L 19.3235,-19.0274 L 18.7639,-19.6489 L 18.3458,-20.373
 L 18.0874,-21.1684 L 18,-22 L 18,-53.7664 L 18.1727,-54.929 L 18.498,-55.6994 L 18.9765,-56.3852
 L 19.587,-56.9566 L 20.303,-57.3886 L 21.0932,-57.6623 L 21.923,-57.7657 L 22.7562,-57.6943 L 23.5563,-57.4512
 L 98.768,-25.6848 L 99.5628,-25.2361 L 100.184,-24.6765 L 100.676,-24 L 101.016,-23.2361 L 101.19,-22.4181
 L 101.19,-21.5819 L 101.016,-20.7639 L 100.676,-20 L 100.184,-19.3235 L 99.5628,-18.7639 L 98.8386,-18.3458
 L 98.0433,-18.0874 L 97.2117,-18 z
M 722.788,-18 L 721.957,-18.0874 L 721.161,-18.3458 L 720.437,-18.7639 L 719.816,-19.3235 L 719.324,-20
 L 718.984,-20.7639 L 718.81,-21.5819 L 718.81,-22.4181 L 718.984,-23.2361 L 719.324,-24 L 719.816,-24.6765
 L 720.437,-25.2361 L 721.232,-25.6848 L 796.444,-57.4512 L 797.244,-57.6943 L 798.077,-57.7657 L 798.907,-57.6623
 L 799.697,-57.3886 L 800.413,-56.9566 L 801.024,-56.3852 L 801.502,-55.6994 L 801.827,-54.929 L 802,-53.7664
 L 802,-22 L 801.913,-21.1684 L 801.654,-20.373 L 801.236,-19.6489 L 800.677,-19.0274 L 800,-18.5359
 L 799.236,-18.1958 L 798,-18 z
M 395.649,-18 L 394.742,-18.1041 L 393.952,-18.3778 L 393.236,-18.8098 L 392.625,-19.3812 L 392.147,-20.067
 L 391.822,-20.8374 L 391.664,-21.6585 L 391.68,-22.4946 L 391.869,-23.3091 L 392.224,-24.0663 L 392.728,-24.7332
 L 393.361,-25.2807 L 394.093,-25.6848 L 408.444,-31.7461 L 409.093,-31.9572 L 409.923,-32.0606 L 410.756,-31.9892
 L 411.556,-31.7461 L 425.907,-25.6848 L 426.702,-25.2361 L 427.324,-24.6765 L 427.815,-24 L 428.155,-23.2361
 L 428.329,-22.4181 L 428.329,-21.5819 L 428.155,-20.7639 L 427.815,-20 L 427.324,-19.3235 L 426.702,-18.7639
 L 425.978,-18.3458 L 425.183,-18.0874 L 424.351,-18 z
" stroke="black" fill="lightgray" stroke-width="0.5"/>
</svg>
