<?xml version="1.0" standalone="no"?>
<!DOCTYPE svg PUBLIC "-//W3C//DTD SVG 1.1//EN" "http://www.w3.org/Graphics/SVG/1.1/DTD/svg11.dtd">
<svg width="731mm" height="80mm" viewBox="0 -80 731 80" xmlns="http://www.w3.org/2000/svg" version="1.1">
<title>OpenSCAD Model</title>
<path d="
M 731,-80 L 0,-80 L 0,-0 L 4.95,-0 L 4.95,-6 L 5.00572,-6.53017
 L 5.17046,-7.03717 L 5.437,-7.49884 L 5.79372,-7.895 L 6.22499,-8.20836 L 6.71201,-8.42519 L 7.23344,-8.53603
 L 7.76654,-8.53603 L 8.28798,-8.42519 L 8.77499,-8.20836 L 9.20627,-7.895 L 9.56299,-7.49884 L 9.82953,-7.03717
 L 9.99426,-6.53017 L 10.05,-6 L 10.05,-0 L 148.15,-0 L 148.15,-6 L 148.206,-6.53017
 L 148.37,-7.03717 L 148.637,-7.49884 L 148.994,-7.895 L 149.425,-8.20836 L 149.912,-8.42519 L 150.433,-8.53603
 L 150.967,-8.53603 L 151.488,-8.42519 L 151.975,-8.20836 L 152.406,-7.895 L 152.763,-7.49884 L 153.03,-7.03717
 L 153.194,-6.53017 L 153.25,-6 L 153.25,-0 L 291.35,-0 L 291.35,-6 L 291.406,-6.53017
 L 291.57,-7.03717 L 291.837,-7.49884 L 292.194,-7.895 L 292.625,-8.20836 L 293.112,-8.42519 L 293.633,-8.53603
 L 294.167,-8.53603 L 294.688,-8.42519 L 295.175,-8.20836 L 295.606,-7.895 L 295.963,-7.49884 L 296.23,-7.03717
 L 296.394,-6.53017 L 296.45,-6 L 296.45,-0 L 434.55,-0 L 434.55,-6 L 434.606,-6.53017
 L 434.77,-7.03717 L 435.037,-7.49884 L 435.394,-7.895 L 435.825,-8.20836 L 436.312,-8.42519 L 436.833,-8.53603
 L 437.367,-8.53603 L 437.888,-8.42519 L 438.375,-8.20836 L 438.806,-7.895 L 439.163,-7.49884 L 439.43,-7.03717
 L 439.594,-6.53017 L 439.65,-6 L 439.65,-0 L 577.75,-0 L 577.75,-6 L 577.806,-6.53017
 L 577.97,-7.03717 L 578.237,-7.49884 L 578.594,-7.895 L 579.025,-8.20836 L 579.512,-8.42519 L 580.033,-8.53603
 L 580.567,-8.53603 L 581.088,-8.42519 L 581.575,-8.20836 L 582.006,-7.895 L 582.363,-7.49884 L 582.63,-7.03717
 L 582.794,-6.53017 L 582.85,-6 L 582.85,-0 L 720.95,-0 L 720.95,-6 L 721.006,-6.53017
 L 721.17,-7.03717 L 721.437,-7.49884 L 721.794,-7.895 L 722.225,-8.20836 L 722.712,-8.42519 L 723.233,-8.53603
 L 723.767,-8.53603 L 724.288,-8.42519 L 724.775,-8.20836 L 725.206,-7.895 L 725.563,-7.49884 L 725.83,-7.03717
 L 725.994,-6.53017 L 726.05,-6 L 726.05,-0 L 731,-0 z
M 6.98573,-55.607 L 6.47708,-55.6875 L 5.97964,-55.8208 L 5.49887,-56.0054 L 5.04001,-56.2392 L 4.60811,-56.5196
 L 4.20789,-56.8437 L 3.84373,-57.2079 L 3.51964,-57.6081 L 3.23917,-58.04 L 3.00537,-58.4989 L 2.82082,-58.9796
 L 2.68752,-59.4771 L 2.60696,-59.9857 L 2.58,-60.5 L 2.60696,-61.0143 L 2.68752,-61.5229 L 2.82082,-62.0204
 L 3.00537,-62.5011 L 3.23917,-62.96 L 3.51964,-63.3919 L 3.84373,-63.7921 L 4.20789,-64.1563 L 4.60811,-64.4804
 L 4.95001,-64.7024 L 4.95001,-74 L 5.00574,-74.5302 L 5.17047,-75.0372 L 5.43701,-75.4988 L 5.79373,-75.895
 L 6.22501,-76.2084 L 6.71202,-76.4252 L 7.23346,-76.536 L 7.76654,-76.536 L 8.28798,-76.4252 L 8.77499,-76.2084
 L 9.20627,-75.895 L 9.56299,-75.4988 L 9.82953,-75.0372 L 9.99426,-74.5302 L 10.05,-74 L 10.05,-64.7024
 L 10.3919,-64.4804 L 10.7921,-64.1563 L 11.1563,-63.7921 L 11.4804,-63.3919 L 11.7608,-62.96 L 11.9946,-62.5011
 L 12.1792,-62.0204 L 12.3125,-61.5229 L 12.393,-61.0143 L 12.42,-60.5 L 12.393,-59.9857 L 12.3125,-59.4771
 L 12.1792,-58.9796 L 11.9946,-58.4989 L 11.7608,-58.04 L 11.4804,-57.6081 L 11.1563,-57.2079 L 10.7921,-56.8437
 L 10.3919,-56.5196 L 9.95999,-56.2392 L 9.50113,-56.0054 L 9.02036,-55.8208 L 8.52292,-55.6875 L 8.01427,-55.607
 L 7.5,-55.58 z
M 150.186,-55.607 L 149.677,-55.6875 L 149.18,-55.8208 L 148.699,-56.0054 L 148.24,-56.2392 L 147.808,-56.5196
 L 147.408,-56.8437 L 147.044,-57.2079 L 146.72,-57.6081 L 146.439,-58.04 L 146.205,-58.4989 L 146.021,-58.9796
 L 145.888,-59.4771 L 145.807,-59.9857 L 145.78,-60.5 L 145.807,-61.0143 L 145.888,-61.5229 L 146.021,-62.0204
 L 146.205,-62.5011 L 146.439,-62.96 L 146.72,-63.3919 L 147.044,-63.7921 L 147.408,-64.1563 L 147.808,-64.4804
 L 148.15,-64.7024 L 148.15,-74 L 148.206,-74.5302 L 148.37,-75.0372 L 148.637,-75.4988 L 148.994,-75.895
 L 149.425,-76.2084 L 149.912,-76.4252 L 150.433,-76.536 L 150.967,-76.536 L 151.488,-76.4252 L 151.975,-76.2084
 L 152.406,-75.895 L 152.763,-75.4988 L 153.03,-75.0372 L 153.194,-74.5302 L 153.25,-74 L 153.25,-64.7024
 L 153.592,-64.4804 L 153.992,-64.1563 L 154.356,-63.7921 L 154.68,-63.3919 L 154.961,-62.96 L 155.195,-62.5011
 L 155.379,-62.0204 L 155.512,-61.5229 L 155.593,-61.0143 L 155.62,-60.5 L 155.593,-59.9857 L 155.512,-59.4771
 L 155.379,-58.9796 L 155.195,-58.4989 L 154.961,-58.04 L 154.68,-57.6081 L 154.356,-57.2079 L 153.992,-56.8437
 L 153.592,-56.5196 L 153.16,-56.2392 L 152.701,-56.0054 L 152.22,-55.8208 L 151.723,-55.6875 L 151.214,-55.607
 L 150.7,-55.58 z
M 293.386,-55.607 L 292.877,-55.6875 L 292.38,-55.8208 L 291.899,-56.0054 L 291.44,-56.2392 L 291.008,-56.5196
 L 290.608,-56.8437 L 290.244,-57.2079 L 289.92,-57.6081 L 289.639,-58.04 L 289.405,-58.4989 L 289.221,-58.9796
 L 289.088,-59.4771 L 289.007,-59.9857 L 288.98,-60.5 L 289.007,-61.0143 L 289.088,-61.5229 L 289.221,-62.0204
 L 289.405,-62.5011 L 289.639,-62.96 L 289.92,-63.3919 L 290.244,-63.7921 L 290.608,-64.1563 L 291.008,-64.4804
 L 291.35,-64.7024 L 291.35,-74 L 291.406,-74.5302 L 291.57,-75.0372 L 291.837,-75.4988 L 292.194,-75.895
 L 292.625,-76.2084 L 293.112,-76.4252 L 293.633,-76.536 L 294.167,-76.536 L 294.688,-76.4252 L 295.175,-76.2084
 L 295.606,-75.895 L 295.963,-75.4988 L 296.23,-75.0372 L 296.394,-74.5302 L 296.45,-74 L 296.45,-64.7024
 L 296.792,-64.4804 L 297.192,-64.1563 L 297.556,-63.7921 L 297.88,-63.3919 L 298.161,-62.96 L 298.395,-62.5011
 L 298.579,-62.0204 L 298.712,-61.5229 L 298.793,-61.0143 L 298.82,-60.5 L 298.793,-59.9857 L 298.712,-59.4771
 L 298.579,-58.9796 L 298.395,-58.4989 L 298.161,-58.04 L 297.88,-57.6081 L 297.556,-57.2079 L 297.192,-56.8437
 L 296.792,-56.5196 L 296.36,-56.2392 L 295.901,-56.0054 L 295.42,-55.8208 L 294.923,-55.6875 L 294.414,-55.607
 L 293.9,-55.58 z
M 436.586,-55.607 L 436.077,-55.6875 L 435.58,-55.8208 L 435.099,-56.0054 L 434.64,-56.2392 L 434.208,-56.5196
 L 433.808,-56.8437 L 433.444,-57.2079 L 433.12,-57.6081 L 432.839,-58.04 L 432.605,-58.4989 L 432.421,-58.9796
 L 432.288,-59.4771 L 432.207,-59.9857 L 432.18,-60.5 L 432.207,-61.0143 L 432.288,-61.5229 L 432.421,-62.0204
 L 432.605,-62.5011 L 432.839,-62.96 L 433.12,-63.3919 L 433.444,-63.7921 L 433.808,-64.1563 L 434.208,-64.4804
 L 434.55,-64.7024 L 434.55,-74 L 434.606,-74.5302 L 434.77,-75.0372 L 435.037,-75.4988 L 435.394,-75.895
 L 435.825,-76.2084 L 436.312,-76.4252 L 436.833,-76.536 L 437.367,-76.536 L 437.888,-76.4252 L 438.375,-76.2084
 L 438.806,-75.895 L 439.163,-75.4988 L 439.43,-75.0372 L 439.594,-74.5302 L 439.65,-74 L 439.65,-64.7024
 L 439.992,-64.4804 L 440.392,-64.1563 L 440.756,-63.7921 L 441.08,-63.3919 L 441.361,-62.96 L 441.595,-62.5011
 L 441.779,-62.0204 L 441.912,-61.5229 L 441.993,-61.0143 L 442.02,-60.5 L 441.993,-59.9857 L 441.912,-59.4771
 L 441.779,-58.9796 L 441.595,-58.4989 L 441.361,-58.04 L 441.08,-57.6081 L 440.756,-57.2079 L 440.392,-56.8437
 L 439.992,-56.5196 L 439.56,-56.2392 L 439.101,-56.0054 L 438.62,-55.8208 L 438.123,-55.6875 L 437.614,-55.607
 L 437.1,-55.58 z
M 579.786,-55.607 L 579.277,-55.6875 L 578.78,-55.8208 L 578.299,-56.0054 L 577.84,-56.2392 L 577.408,-56.5196
 L 577.008,-56.8437 L 576.644,-57.2079 L 576.32,-57.6081 L 576.039,-58.04 L 575.805,-58.4989 L 575.621,-58.9796
 L 575.488,-59.4771 L 575.407,-59.9857 L 575.38,-60.5 L 575.407,-61.0143 L 575.488,-61.5229 L 575.621,-62.0204
 L 575.805,-62.5011 L 576.039,-62.96 L 576.32,-63.3919 L 576.644,-63.7921 L 577.008,-64.1563 L 577.408,-64.4804
 L 577.75,-64.7024 L 577.75,-74 L 577.806,-74.5302 L 577.97,-75.0372 L 578.237,-75.4988 L 578.594,-75.895
 L 579.025,-76.2084 L 579.512,-76.4252 L 580.033,-76.536 L 580.567,-76.536 L 581.088,-76.4252 L 581.575,-76.2084
 L 582.006,-75.895 L 582.363,-75.4988 L 582.63,-75.0372 L 582.794,-74.5302 L 582.85,-74 L 582.85,-64.7024
 L 583.192,-64.4804 L 583.592,-64.1563 L 583.956,-63.7921 L 584.28,-63.3919 L 584.561,-62.96 L 584.795,-62.5011
 L 584.979,-62.0204 L 585.112,-61.5229 L 585.193,-61.0143 L 585.22,-60.5 L 585.193,-59.9857 L 585.112,-59.4771
 L 584.979,-58.9796 L 584.795,-58.4989 L 584.561,-58.04 L 584.28,-57.6081 L 583.956,-57.2079 L 583.592,-56.8437
 L 583.192,-56.5196 L 582.76,-56.2392 L 582.301,-56.0054 L 581.82,-55.8208 L 581.323,-55.6875 L 580.814,-55.607
 L 580.3,-55.58 z
M 722.986,-55.607 L 722.477,-55.6875 L 721.98,-55.8208 L 721.499,-56.0054 L 721.04,-56.2392 L 720.608,-56.5196
 L 720.208,-56.8437 L 719.844,-57.2079 L 719.52,-57.6081 L 719.239,-58.04 L 719.005,-58.4989 L 718.821,-58.9796
 L 718.688,-59.4771 L 718.607,-59.9857 L 718.58,-60.5 L 718.607,-61.0143 L 718.688,-61.5229 L 718.821,-62.0204
 L 719.005,-62.5011 L 719.239,-62.96 L 719.52,-63.3919 L 719.844,-63.7921 L 720.208,-64.1563 L 720.608,-64.4804
 L 720.95,-64.7024 L 720.95,-74 L 721.006,-74.5302 L 721.17,-75.0372 L 721.437,-75.4988 L 721.794,-75.895
 L 722.225,-76.2084 L 722.712,-76.4252 L 723.233,-76.536 L 723.767,-76.536 L 724.288,-76.4252 L 724.775,-76.2084
 L 725.206,-75.895 L 725.563,-75.4988 L 725.83,-75.0372 L 725.994,-74.5302 L 726.05,-74 L 726.05,-64.7024
 L 726.392,-64.4804 L 726.792,-64.1563 L 727.156,-63.7921 L 727.48,-63.3919 L 727.761,-62.96 L 727.995,-62.5011
 L 728.179,-62.0204 L 728.312,-61.5229 L 728.393,-61.0143 L 728.42,-60.5 L 728.393,-59.9857 L 728.312,-59.4771
 L 728.179,-58.9796 L 727.995,-58.4989 L 727.761,-58.04 L 727.48,-57.6081 L 727.156,-57.2079 L 726.792,-56.8437
 L 726.392,-56.5196 L 725.96,-56.2392 L 725.501,-56.0054 L 725.02,-55.8208 L 724.523,-55.6875 L 724.014,-55.607
 L 723.5,-55.58 z
M 364.573,-48.2825 L 363.784,-48.5603 L 351.514,-54.3867 L 350.879,-54.7639 L 350.258,-55.3235 L 349.766,-56
 L 349.426,-56.7639 L 349.252,-57.5819 L 349.252,-58.4181 L 349.426,-59.2361 L 349.766,-60 L 350.258,-60.6765
 L 350.879,-61.2361 L 351.603,-61.6542 L 352.399,-61.9126 L 353.23,-62 L 377.77,-62 L 378.505,-61.9318
 L 379.307,-61.6929 L 380.041,-61.2926 L 380.676,-60.7484 L 381.184,-60.0841 L 381.543,-59.3287 L 381.736,-58.5153
 L 381.757,-57.6793 L 381.603,-56.8573 L 381.282,-56.0853 L 380.807,-55.397 L 380.199,-54.8224 L 379.486,-54.3867
 L 367.216,-48.5603 L 366.236,-48.2418 L 365.402,-48.1748 z
M 279.973,-22.669 L 279.184,-22.9468 L 212.975,-54.3867 L 212.34,-54.7639 L 211.719,-55.3235 L 211.227,-56
 L 210.887,-56.7639 L 210.713,-57.5819 L 210.713,-58.4181 L 210.887,-59.2361 L 211.227,-60 L 211.719,-60.6765
 L 212.34,-61.2361 L 213.064,-61.6542 L 213.86,-61.9126 L 214.691,-62 L 280.9,-62 L 282.136,-61.8042
 L 282.9,-61.4641 L 283.577,-60.9726 L 284.136,-60.3511 L 284.554,-59.627 L 284.813,-58.8316 L 284.9,-58
 L 284.9,-26.5601 L 284.867,-26.0449 L 284.673,-25.2314 L 284.314,-24.476 L 283.806,-23.8117 L 283.171,-23.2675
 L 282.437,-22.8672 L 281.636,-22.6284 L 280.802,-22.5613 z
M 592.564,-22.6284 L 591.763,-22.8672 L 591.029,-23.2675 L 590.394,-23.8117 L 589.886,-24.476 L 589.527,-25.2314
 L 589.333,-26.0449 L 589.3,-26.5601 L 589.3,-58 L 589.387,-58.8316 L 589.646,-59.627 L 590.064,-60.3511
 L 590.623,-60.9726 L 591.3,-61.4641 L 592.064,-61.8042 L 593.3,-62 L 659.509,-62 L 660.34,-61.9126
 L 661.136,-61.6542 L 661.86,-61.2361 L 662.481,-60.6765 L 662.973,-60 L 663.313,-59.2361 L 663.487,-58.4181
 L 663.487,-57.5819 L 663.313,-56.7639 L 662.973,-56 L 662.481,-55.3235 L 661.86,-54.7639 L 661.225,-54.3867
 L 595.016,-22.9468 L 594.227,-22.669 L 593.398,-22.5613 z
M 136.773,-22.669 L 135.984,-22.9468 L 69.7755,-54.3867 L 69.1402,-54.7639 L 68.5187,-55.3235 L 68.0272,-56
 L 67.6871,-56.7639 L 67.5132,-57.5819 L 67.5132,-58.4181 L 67.6871,-59.2361 L 68.0272,-60 L 68.5187,-60.6765
 L 69.1402,-61.2361 L 69.8644,-61.6542 L 70.6597,-61.9126 L 71.4913,-62 L 137.7,-62 L 138.936,-61.8042
 L 139.7,-61.4641 L 140.377,-60.9726 L 140.936,-60.3511 L 141.354,-59.627 L 141.613,-58.8316 L 141.7,-58
 L 141.7,-26.5601 L 141.667,-26.0449 L 141.473,-25.2314 L 141.114,-24.476 L 140.606,-23.8117 L 139.971,-23.2675
 L 139.237,-22.8672 L 138.436,-22.6284 L 137.602,-22.5613 z
M 449.364,-22.6284 L 448.563,-22.8672 L 447.829,-23.2675 L 447.194,-23.8117 L 446.686,-24.476 L 446.327,-25.2314
 L 446.133,-26.0449 L 446.1,-26.5601 L 446.1,-58 L 446.187,-58.8316 L 446.446,-59.627 L 446.864,-60.3511
 L 447.423,-60.9726 L 448.1,-61.4641 L 448.864,-61.8042 L 450.1,-62 L 516.309,-62 L 517.14,-61.9126
 L 517.936,-61.6542 L 518.66,-61.2361 L 519.281,-60.6765 L 519.773,-60 L 520.113,-59.2361 L 520.287,-58.4181
 L 520.287,-57.5819 L 520.113,-56.7639 L 519.773,-56 L 519.281,-55.3235 L 518.66,-54.7639 L 518.024,-54.3867
 L 451.816,-22.9468 L 451.027,-22.669 L 450.198,-22.5613 z
M 306.482,-20.3687 L 305.664,-20.5425 L 304.9,-20.8827 L 304.223,-21.3742 L 303.664,-21.9956 L 303.246,-22.7198
 L 302.987,-23.5151 L 302.9,-24.3468 L 302.9,-55.6532 L 302.933,-56.1685 L 303.127,-56.982 L 303.486,-57.7374
 L 303.994,-58.4017 L 304.629,-58.9458 L 305.363,-59.3461 L 306.164,-59.585 L 306.998,-59.6521 L 307.827,-59.5443
 L 308.616,-59.2666 L 341.58,-43.6133 L 342.135,-43.2926 L 342.77,-42.7484 L 343.278,-42.0841 L 343.637,-41.3287
 L 343.831,-40.5153 L 343.851,-39.6793 L 343.697,-38.8573 L 343.376,-38.0853 L 342.901,-37.397 L 342.293,-36.8224
 L 341.58,-36.3867 L 308.616,-20.7334 L 308.136,-20.5425 L 307.318,-20.3687 z
M 423.173,-20.4557 L 422.384,-20.7334 L 389.42,-36.3867 L 388.865,-36.7074 L 388.23,-37.2516 L 387.722,-37.9159
 L 387.363,-38.6713 L 387.169,-39.4847 L 387.149,-40.3207 L 387.303,-41.1427 L 387.624,-41.9147 L 388.099,-42.603
 L 388.707,-43.1776 L 389.42,-43.6133 L 422.384,-59.2666 L 422.864,-59.4575 L 423.682,-59.6313 L 424.518,-59.6313
 L 425.336,-59.4575 L 426.1,-59.1173 L 426.777,-58.6258 L 427.336,-58.0044 L 427.754,-57.2802 L 428.013,-56.4849
 L 428.1,-55.6532 L 428.1,-24.3468 L 428.067,-23.8315 L 427.873,-23.018 L 427.514,-22.2626 L 427.006,-21.5983
 L 426.371,-21.0542 L 425.637,-20.6539 L 424.836,-20.415 L 424.002,-20.3479 z
M 163.7,-18 L 162.464,-18.1958 L 161.7,-18.5359 L 161.023,-19.0274 L 160.464,-19.6489 L 160.046,-20.373
 L 159.787,-21.1684 L 159.7,-22 L 159.7,-53.4399 L 159.733,-53.9551 L 159.927,-54.7686 L 160.286,-55.524
 L 160.794,-56.1883 L 161.429,-56.7325 L 162.163,-57.1327 L 162.964,-57.3716 L 163.798,-57.4387 L 164.627,-57.3309
 L 165.416,-57.0532 L 231.624,-25.6133 L 232.26,-25.2361 L 232.881,-24.6765 L 233.373,-24 L 233.713,-23.2361
 L 233.887,-22.4181 L 233.887,-21.5819 L 233.713,-20.7639 L 233.373,-20 L 232.881,-19.3235 L 232.26,-18.7639
 L 231.536,-18.3458 L 230.74,-18.0874 L 229.909,-18 z
M 501.091,-18 L 500.26,-18.0874 L 499.464,-18.3458 L 498.74,-18.7639 L 498.119,-19.3235 L 497.627,-20
 L 497.287,-20.7639 L 497.113,-21.5819 L 497.113,-22.4181 L 497.287,-23.2361 L 497.627,-24 L 498.119,-24.6765
 L 498.74,-25.2361 L 499.376,-25.6133 L 565.584,-57.0532 L 566.373,-57.3309 L 567.202,-57.4387 L 568.036,-57.3716
 L 568.837,-57.1327 L 569.571,-56.7325 L 570.206,-56.1883 L 570.714,-55.524 L 571.073,-54.7686 L 571.267,-53.9551
 L 571.3,-53.4399 L 571.3,-22 L 571.213,-21.1684 L 570.954,-20.373 L 570.536,-19.6489 L 569.977,-19.0274
 L 569.3,-18.5359 L 568.536,-18.1958 L 567.3,-18 z
M 22,-18 L 20.7639,-18.1958 L 20,-18.5359 L 19.3235,-19.0274 L 18.7639,-19.6489 L 18.3458,-20.373
 L 18.0874,-21.1684 L 18,-22 L 18,-52.7276 L 18.0333,-53.2428 L 18.2271,-54.0563 L 18.5858,-54.8117
 L 19.0938,-55.476 L 19.7287,-56.0202 L 20.4629,-56.4204 L 21.2643,-56.6593 L 22.0978,-56.7264 L 22.9271,-56.6187
 L 23.7158,-56.3409 L 88.4245,-25.6133 L 89.0598,-25.2361 L 89.6812,-24.6765 L 90.1728,-24 L 90.5129,-23.2361
 L 90.6868,-22.4181 L 90.6868,-21.5819 L 90.5129,-20.7639 L 90.1728,-20 L 89.6812,-19.3235 L 89.0598,-18.7639
 L 88.3356,-18.3458 L 87.5403,-18.0874 L 86.7087,-18 z
M 644.291,-18 L 643.46,-18.0874 L 642.664,-18.3458 L 641.94,-18.7639 L 641.319,-19.3235 L 640.827,-20
 L 640.487,-20.7639 L 640.313,-21.5819 L 640.313,-22.4181 L 640.487,-23.2361 L 640.827,-24 L 641.319,-24.6765
 L 641.94,-25.2361 L 642.576,-25.6133 L 707.284,-56.3409 L 708.073,-56.6187 L 708.902,-56.7264 L 709.736,-56.6593
 L 710.537,-56.4204 L 711.271,-56.0202 L 711.906,-55.476 L 712.414,-54.8117 L 712.773,-54.0563 L 712.967,-53.2428
 L 713,-52.7276 L 713,-22 L 712.913,-21.1684 L 712.654,-20.373 L 712.236,-19.6489 L 711.677,-19.0274
 L 711,-18.5359 L 710.236,-18.1958 L 709,-18 z
M 353.23,-18 L 352.494,-18.0682 L 351.693,-18.3071 L 350.959,-18.7074 L 350.324,-19.2516 L 349.816,-19.9159
 L 349.457,-20.6713 L 349.264,-21.4847 L 349.243,-22.3207 L 349.397,-23.1427 L 349.718,-23.9147 L 350.193,-24.603
 L 350.801,-25.1776 L 351.514,-25.6133 L 363.784,-31.4397 L 364.764,-31.7582 L 365.598,-31.8252 L 366.427,-31.7175
 L 367.216,-31.4397 L 379.486,-25.6133 L 380.121,-25.2361 L 380.742,-24.6765 L 381.234,-24 L 381.574,-23.2361
 L 381.748,-22.4181 L 381.748,-21.5819 L 381.574,-20.7639 L 381.234,-20 L 380.742,-19.3235 L 380.121,-18.7639
 L 379.397,-18.3458 L 378.601,-18.0874 L 377.77,-18 z
" stroke="black" fill="lightgray" stroke-width="0.5"/>
</svg>
