<?xml version="1.0" standalone="no"?>
<!DOCTYPE svg PUBLIC "-//W3C//DTD SVG 1.1//EN" "http://www.w3.org/Graphics/SVG/1.1/DTD/svg11.dtd">
<svg width="512mm" height="80mm" viewBox="0 -80 512 80" xmlns="http://www.w3.org/2000/svg" version="1.1">
<title>OpenSCAD Model</title>
<path d="
M 512,-80 L 0,-80 L 0,-0 L 4.95,-0 L 4.95,-6 L 5.00572,-6.53017
 L 5.17046,-7.03717 L 5.437,-7.49884 L 5.79372,-7.895 L 6.22499,-8.20836 L 6.71201,-8.42519 L 7.23344,-8.53603
 L 7.76654,-8.53603 L 8.28798,-8.42519 L 8.77499,-8.20836 L 9.20627,-7.895 L 9.56299,-7.49884 L 9.82953,-7.03717
 L 9.99426,-6.53017 L 10.05,-6 L 10.05,-0 L 129.2,-0 L 129.2,-6 L 129.256,-6.53017
 L 129.42,-7.03717 L 129.687,-7.49884 L 130.044,-7.895 L 130.475,-8.20836 L 130.962,-8.42519 L 131.483,-8.53603
 L 132.017,-8.53603 L 132.538,-8.42519 L 133.025,-8.20836 L 133.456,-7.895 L 133.813,-7.49884 L 134.08,-7.03717
 L 134.244,-6.53017 L 134.3,-6 L 134.3,-0 L 253.45,-0 L 253.45,-6 L 253.506,-6.53017
 L 253.67,-7.03717 L 253.937,-7.49884 L 254.294,-7.895 L 254.725,-8.20836 L 255.212,-8.42519 L 255.733,-8.53603
 L 256.267,-8.53603 L 256.788,-8.42519 L 257.275,-8.20836 L 257.706,-7.895 L 258.063,-7.49884 L 258.33,-7.03717
 L 258.494,-6.53017 L 258.55,-6 L 258.55,-0 L 377.7,-0 L 377.7,-6 L 377.756,-6.53017
 L 377.92,-7.03717 L 378.187,-7.49884 L 378.544,-7.895 L 378.975,-8.20836 L 379.462,-8.42519 L 379.983,-8.53603
 L 380.517,-8.53603 L 381.038,-8.42519 L 381.525,-8.20836 L 381.956,-7.895 L 382.313,-7.49884 L 382.58,-7.03717
 L 382.744,-6.53017 L 382.8,-6 L 382.8,-0 L 501.95,-0 L 501.95,-6 L 502.006,-6.53017
 L 502.17,-7.03717 L 502.437,-7.49884 L 502.794,-7.895 L 503.225,-8.20836 L 503.712,-8.42519 L 504.233,-8.53603
 L 504.767,-8.53603 L 505.288,-8.42519 L 505.775,-8.20836 L 506.206,-7.895 L 506.563,-7.49884 L 506.83,-7.03717
 L 506.994,-6.53017 L 507.05,-6 L 507.05,-0 L 512,-0 z
M 6.98573,-55.607 L 6.47708,-55.6875 L 5.97964,-55.8208 L 5.49887,-56.0054 L 5.04001,-56.2392 L 4.60811,-56.5196
 L 4.20789,-56.8437 L 3.84373,-57.2079 L 3.51964,-57.6081 L 3.23917,-58.04 L 3.00537,-58.4989 L 2.82082,-58.9796
 L 2.68752,-59.4771 L 2.60696,-59.9857 L 2.58,-60.5 L 2.60696,-61.0143 L 2.68752,-61.5229 L 2.82082,-62.0204
 L 3.00537,-62.5011 L 3.23917,-62.96 L 3.51964,-63.3919 L 3.84373,-63.7921 L 4.20789,-64.1563 L 4.60811,-64.4804
 L 4.95001,-64.7024 L 4.95001,-74 L 5.00574,-74.5302 L 5.17047,-75.0372 L 5.43701,-75.4988 L 5.79373,-75.895
 L 6.22501,-76.2084 L 6.71202,-76.4252 L 7.23346,-76.536 L 7.76654,-76.536 L 8.28798,-76.4252 L 8.77499,-76.2084
 L 9.20627,-75.895 L 9.56299,-75.4988 L 9.82953,-75.0372 L 9.99426,-74.5302 L 10.05,-74 L 10.05,-64.7024
 L 10.3919,-64.4804 L 10.7921,-64.1563 L 11.1563,-63.7921 L 11.4804,-63.3919 L 11.7608,-62.96 L 11.9946,-62.5011
 L 12.1792,-62.0204 L 12.3125,-61.5229 L 12.393,-61.0143 L 12.42,-60.5 L 12.393,-59.9857 L 12.3125,-59.4771
 L 12.1792,-58.9796 L 11.9946,-58.4989 L 11.7608,-58.04 L 11.4804,-57.6081 L 11.1563,-57.2079 L 10.7921,-56.8437
 L 10.3919,-56.5196 L 9.95999,-56.2392 L 9.50113,-56.0054 L 9.02036,-55.8208 L 8.52292,-55.6875 L 8.01427,-55.607
 L 7.5,-55.58 z
M 131.236,-55.607 L 130.727,-55.6875 L 130.23,-55.8208 L 129.749,-56.0054 L 129.29,-56.2392 L 128.858,-56.5196
 L 128.458,-56.8437 L 128.094,-57.2079 L 127.77,-57.6081 L 127.489,-58.04 L 127.255,-58.4989 L 127.071,-58.9796
 L 126.938,-59.4771 L 126.857,-59.9857 L 126.83,-60.5 L 126.857,-61.0143 L 126.938,-61.5229 L 127.071,-62.0204
 L 127.255,-62.5011 L 127.489,-62.96 L 127.77,-63.3919 L 128.094,-63.7921 L 128.458,-64.1563 L 128.858,-64.4804
 L 129.2,-64.7024 L 129.2,-74 L 129.256,-74.5302 L 129.42,-75.0372 L 129.687,-75.4988 L 130.044,-75.895
 L 130.475,-76.2084 L 130.962,-76.4252 L 131.483,-76.536 L 132.017,-76.536 L 132.538,-76.4252 L 133.025,-76.2084
 L 133.456,-75.895 L 133.813,-75.4988 L 134.08,-75.0372 L 134.244,-74.5302 L 134.3,-74 L 134.3,-64.7024
 L 134.642,-64.4804 L 135.042,-64.1563 L 135.406,-63.7921 L 135.73,-63.3919 L 136.011,-62.96 L 136.245,-62.5011
 L 136.429,-62.0204 L 136.562,-61.5229 L 136.643,-61.0143 L 136.67,-60.5 L 136.643,-59.9857 L 136.562,-59.4771
 L 136.429,-58.9796 L 136.245,-58.4989 L 136.011,-58.04 L 135.73,-57.6081 L 135.406,-57.2079 L 135.042,-56.8437
 L 134.642,-56.5196 L 134.21,-56.2392 L 133.751,-56.0054 L 133.27,-55.8208 L 132.773,-55.6875 L 132.264,-55.607
 L 131.75,-55.58 z
M 255.486,-55.607 L 254.977,-55.6875 L 254.48,-55.8208 L 253.999,-56.0054 L 253.54,-56.2392 L 253.108,-56.5196
 L 252.708,-56.8437 L 252.344,-57.2079 L 252.02,-57.6081 L 251.739,-58.04 L 251.505,-58.4989 L 251.321,-58.9796
 L 251.188,-59.4771 L 251.107,-59.9857 L 251.08,-60.5 L 251.107,-61.0143 L 251.188,-61.5229 L 251.321,-62.0204
 L 251.505,-62.5011 L 251.739,-62.96 L 252.02,-63.3919 L 252.344,-63.7921 L 252.708,-64.1563 L 253.108,-64.4804
 L 253.45,-64.7024 L 253.45,-74 L 253.506,-74.5302 L 253.67,-75.0372 L 253.937,-75.4988 L 254.294,-75.895
 L 254.725,-76.2084 L 255.212,-76.4252 L 255.733,-76.536 L 256.267,-76.536 L 256.788,-76.4252 L 257.275,-76.2084
 L 257.706,-75.895 L 258.063,-75.4988 L 258.33,-75.0372 L 258.494,-74.5302 L 258.55,-74 L 258.55,-64.7024
 L 258.892,-64.4804 L 259.292,-64.1563 L 259.656,-63.7921 L 259.98,-63.3919 L 260.261,-62.96 L 260.495,-62.5011
 L 260.679,-62.0204 L 260.812,-61.5229 L 260.893,-61.0143 L 260.92,-60.5 L 260.893,-59.9857 L 260.812,-59.4771
 L 260.679,-58.9796 L 260.495,-58.4989 L 260.261,-58.04 L 259.98,-57.6081 L 259.656,-57.2079 L 259.292,-56.8437
 L 258.892,-56.5196 L 258.46,-56.2392 L 258.001,-56.0054 L 257.52,-55.8208 L 257.023,-55.6875 L 256.514,-55.607
 L 256,-55.58 z
M 379.736,-55.607 L 379.227,-55.6875 L 378.73,-55.8208 L 378.249,-56.0054 L 377.79,-56.2392 L 377.358,-56.5196
 L 376.958,-56.8437 L 376.594,-57.2079 L 376.27,-57.6081 L 375.989,-58.04 L 375.755,-58.4989 L 375.571,-58.9796
 L 375.438,-59.4771 L 375.357,-59.9857 L 375.33,-60.5 L 375.357,-61.0143 L 375.438,-61.5229 L 375.571,-62.0204
 L 375.755,-62.5011 L 375.989,-62.96 L 376.27,-63.3919 L 376.594,-63.7921 L 376.958,-64.1563 L 377.358,-64.4804
 L 377.7,-64.7024 L 377.7,-74 L 377.756,-74.5302 L 377.92,-75.0372 L 378.187,-75.4988 L 378.544,-75.895
 L 378.975,-76.2084 L 379.462,-76.4252 L 379.983,-76.536 L 380.517,-76.536 L 381.038,-76.4252 L 381.525,-76.2084
 L 381.956,-75.895 L 382.313,-75.4988 L 382.58,-75.0372 L 382.744,-74.5302 L 382.8,-74 L 382.8,-64.7024
 L 383.142,-64.4804 L 383.542,-64.1563 L 383.906,-63.7921 L 384.23,-63.3919 L 384.511,-62.96 L 384.745,-62.5011
 L 384.929,-62.0204 L 385.062,-61.5229 L 385.143,-61.0143 L 385.17,-60.5 L 385.143,-59.9857 L 385.062,-59.4771
 L 384.929,-58.9796 L 384.745,-58.4989 L 384.511,-58.04 L 384.23,-57.6081 L 383.906,-57.2079 L 383.542,-56.8437
 L 383.142,-56.5196 L 382.71,-56.2392 L 382.251,-56.0054 L 381.77,-55.8208 L 381.273,-55.6875 L 380.764,-55.607
 L 380.25,-55.58 z
M 503.986,-55.607 L 503.477,-55.6875 L 502.98,-55.8208 L 502.499,-56.0054 L 502.04,-56.2392 L 501.608,-56.5196
 L 501.208,-56.8437 L 500.844,-57.2079 L 500.52,-57.6081 L 500.239,-58.04 L 500.005,-58.4989 L 499.821,-58.9796
 L 499.688,-59.4771 L 499.607,-59.9857 L 499.58,-60.5 L 499.607,-61.0143 L 499.688,-61.5229 L 499.821,-62.0204
 L 500.005,-62.5011 L 500.239,-62.96 L 500.52,-63.3919 L 500.844,-63.7921 L 501.208,-64.1563 L 501.608,-64.4804
 L 501.95,-64.7024 L 501.95,-74 L 502.006,-74.5302 L 502.17,-75.0372 L 502.437,-75.4988 L 502.794,-75.895
 L 503.225,-76.2084 L 503.712,-76.4252 L 504.233,-76.536 L 504.767,-76.536 L 505.288,-76.4252 L 505.775,-76.2084
 L 506.206,-75.895 L 506.563,-75.4988 L 506.83,-75.0372 L 506.994,-74.5302 L 507.05,-74 L 507.05,-64.7024
 L 507.392,-64.4804 L 507.792,-64.1563 L 508.156,-63.7921 L 508.48,-63.3919 L 508.761,-62.96 L 508.995,-62.5011
 L 509.179,-62.0204 L 509.312,-61.5229 L 509.393,-61.0143 L 509.42,-60.5 L 509.393,-59.9857 L 509.312,-59.4771
 L 509.179,-58.9796 L 508.995,-58.4989 L 508.761,-58.04 L 508.48,-57.6081 L 508.156,-57.2079 L 507.792,-56.8437
 L 507.392,-56.5196 L 506.96,-56.2392 L 506.501,-56.0054 L 506.02,-55.8208 L 505.523,-55.6875 L 505.014,-55.607
 L 504.5,-55.58 z
M 268.491,-23.9628 L 267.677,-24.1553 L 266.921,-24.5128 L 266.256,-25.0197 L 265.711,-25.6537 L 265.31,-26.3873
 L 265.069,-27.1883 L 265,-27.9303 L 265,-58 L 265.087,-58.8316 L 265.346,-59.627 L 265.764,-60.3511
 L 266.323,-60.9726 L 267,-61.4641 L 267.764,-61.8042 L 269,-62 L 323.943,-62 L 324.775,-61.9126
 L 325.57,-61.6542 L 326.295,-61.2361 L 326.916,-60.6765 L 327.408,-60 L 327.748,-59.2361 L 327.922,-58.4181
 L 327.922,-57.5819 L 327.748,-56.7639 L 327.408,-56 L 326.916,-55.3235 L 326.295,-54.7639 L 325.864,-54.4911
 L 270.92,-24.4215 L 270.149,-24.0989 L 269.327,-23.9437 z
M 241.851,-24.0989 L 241.08,-24.4215 L 186.136,-54.4911 L 185.705,-54.7639 L 185.084,-55.3235 L 184.592,-56
 L 184.252,-56.7639 L 184.078,-57.5819 L 184.078,-58.4181 L 184.252,-59.2361 L 184.592,-60 L 185.084,-60.6765
 L 185.705,-61.2361 L 186.43,-61.6542 L 187.225,-61.9126 L 188.057,-62 L 243,-62 L 244.236,-61.8042
 L 245,-61.4641 L 245.677,-60.9726 L 246.236,-60.3511 L 246.654,-59.627 L 246.913,-58.8316 L 247,-58
 L 247,-27.9303 L 246.931,-27.1883 L 246.69,-26.3873 L 246.289,-25.6537 L 245.744,-25.0197 L 245.079,-24.5128
 L 244.323,-24.1553 L 243.509,-23.9628 L 242.673,-23.9437 z
M 392.741,-23.9628 L 391.927,-24.1553 L 391.171,-24.5128 L 390.506,-25.0197 L 389.961,-25.6537 L 389.56,-26.3873
 L 389.319,-27.1883 L 389.25,-27.9303 L 389.25,-58 L 389.337,-58.8316 L 389.596,-59.627 L 390.014,-60.3511
 L 390.573,-60.9726 L 391.25,-61.4641 L 392.014,-61.8042 L 393.25,-62 L 448.193,-62 L 449.025,-61.9126
 L 449.82,-61.6542 L 450.545,-61.2361 L 451.166,-60.6765 L 451.658,-60 L 451.998,-59.2361 L 452.172,-58.4181
 L 452.172,-57.5819 L 451.998,-56.7639 L 451.658,-56 L 451.166,-55.3235 L 450.545,-54.7639 L 450.114,-54.4911
 L 395.17,-24.4215 L 394.399,-24.0989 L 393.577,-23.9437 z
M 117.601,-24.0989 L 116.83,-24.4215 L 61.8862,-54.4911 L 61.4554,-54.7639 L 60.834,-55.3235 L 60.3425,-56
 L 60.0023,-56.7639 L 59.8285,-57.5819 L 59.8285,-58.4181 L 60.0023,-59.2361 L 60.3425,-60 L 60.834,-60.6765
 L 61.4554,-61.2361 L 62.1796,-61.6542 L 62.9749,-61.9126 L 63.8065,-62 L 118.75,-62 L 119.986,-61.8042
 L 120.75,-61.4641 L 121.427,-60.9726 L 121.986,-60.3511 L 122.404,-59.627 L 122.663,-58.8316 L 122.75,-58
 L 122.75,-27.9303 L 122.681,-27.1883 L 122.44,-26.3873 L 122.039,-25.6537 L 121.494,-25.0197 L 120.829,-24.5128
 L 120.073,-24.1553 L 119.259,-23.9628 L 118.423,-23.9437 z
M 312.307,-18 L 311.475,-18.0874 L 310.68,-18.3458 L 309.955,-18.7639 L 309.334,-19.3235 L 308.842,-20
 L 308.502,-20.7639 L 308.328,-21.5819 L 308.328,-22.4181 L 308.502,-23.2361 L 308.842,-24 L 309.334,-24.6765
 L 309.955,-25.2361 L 310.386,-25.5089 L 365.33,-55.5785 L 366.101,-55.9011 L 366.923,-56.0562 L 367.759,-56.0371
 L 368.573,-55.8446 L 369.329,-55.4872 L 369.994,-54.9803 L 370.539,-54.3463 L 370.94,-53.6127 L 371.181,-52.8117
 L 371.25,-52.0696 L 371.25,-22 L 371.163,-21.1684 L 370.904,-20.373 L 370.486,-19.6489 L 369.927,-19.0274
 L 369.25,-18.5359 L 368.486,-18.1958 L 367.25,-18 z
M 144.75,-18 L 143.514,-18.1958 L 142.75,-18.5359 L 142.073,-19.0274 L 141.514,-19.6489 L 141.096,-20.373
 L 140.837,-21.1684 L 140.75,-22 L 140.75,-52.0696 L 140.819,-52.8117 L 141.06,-53.6127 L 141.461,-54.3463
 L 142.006,-54.9803 L 142.671,-55.4872 L 143.427,-55.8446 L 144.241,-56.0371 L 145.077,-56.0562 L 145.899,-55.9011
 L 146.67,-55.5785 L 201.614,-25.5089 L 202.045,-25.2361 L 202.666,-24.6765 L 203.158,-24 L 203.498,-23.2361
 L 203.672,-22.4181 L 203.672,-21.5819 L 203.498,-20.7639 L 203.158,-20 L 202.666,-19.3235 L 202.045,-18.7639
 L 201.32,-18.3458 L 200.525,-18.0874 L 199.693,-18 z
M 22,-18 L 20.7639,-18.1958 L 20,-18.5359 L 19.3235,-19.0274 L 18.7639,-19.6489 L 18.3458,-20.373
 L 18.0874,-21.1684 L 18,-22 L 18,-51.2487 L 18.0694,-51.9908 L 18.3096,-52.7918 L 18.7111,-53.5253
 L 19.2563,-54.1594 L 19.9214,-54.6662 L 20.6774,-55.0237 L 21.4911,-55.2162 L 22.3271,-55.2353 L 23.1488,-55.0802
 L 23.9203,-54.7576 L 77.3638,-25.5089 L 77.7946,-25.2361 L 78.416,-24.6765 L 78.9075,-24 L 79.2477,-23.2361
 L 79.4215,-22.4181 L 79.4215,-21.5819 L 79.2477,-20.7639 L 78.9075,-20 L 78.416,-19.3235 L 77.7946,-18.7639
 L 77.0704,-18.3458 L 76.2751,-18.0874 L 75.4434,-18 z
M 436.557,-18 L 435.725,-18.0874 L 434.93,-18.3458 L 434.205,-18.7639 L 433.584,-19.3235 L 433.092,-20
 L 432.752,-20.7639 L 432.578,-21.5819 L 432.578,-22.4181 L 432.752,-23.2361 L 433.092,-24 L 433.584,-24.6765
 L 434.205,-25.2361 L 434.636,-25.5089 L 488.08,-54.7576 L 488.851,-55.0802 L 489.673,-55.2353 L 490.509,-55.2162
 L 491.323,-55.0237 L 492.079,-54.6662 L 492.744,-54.1594 L 493.289,-53.5253 L 493.69,-52.7918 L 493.931,-51.9908
 L 494,-51.2487 L 494,-22 L 493.913,-21.1684 L 493.654,-20.373 L 493.236,-19.6489 L 492.677,-19.0274
 L 492,-18.5359 L 491.236,-18.1958 L 490,-18 z
" stroke="black" fill="lightgray" stroke-width="0.5"/>
</svg>
