<?xml version="1.0" standalone="no"?>
<!DOCTYPE svg PUBLIC "-//W3C//DTD SVG 1.1//EN" "http://www.w3.org/Graphics/SVG/1.1/DTD/svg11.dtd">
<svg width="832mm" height="80mm" viewBox="0 -80 832 80" xmlns="http://www.w3.org/2000/svg" version="1.1">
<title>OpenSCAD Model</title>
<path d="
M 832,-80 L 0,-80 L 0,-0 L 4.95,-0 L 4.95,-6 L 5.00572,-6.53017
 L 5.17046,-7.03717 L 5.437,-7.49884 L 5.79372,-7.895 L 6.22499,-8.20836 L 6.71201,-8.42519 L 7.23344,-8.53603
 L 7.76654,-8.53603 L 8.28798,-8.42519 L 8.77499,-8.20836 L 9.20627,-7.895 L 9.56299,-7.49884 L 9.82953,-7.03717
 L 9.99426,-6.53017 L 10.05,-6 L 10.05,-0 L 168.35,-0 L 168.35,-6 L 168.406,-6.53017
 L 168.57,-7.03717 L 168.837,-7.49884 L 169.194,-7.895 L 169.625,-8.20836 L 170.112,-8.42519 L 170.633,-8.53603
 L 171.167,-8.53603 L 171.688,-8.42519 L 172.175,-8.20836 L 172.606,-7.895 L 172.963,-7.49884 L 173.23,-7.03717
 L 173.394,-6.53017 L 173.45,-6 L 173.45,-0 L 331.75,-0 L 331.75,-6 L 331.806,-6.53017
 L 331.97,-7.03717 L 332.237,-7.49884 L 332.594,-7.895 L 333.025,-8.20836 L 333.512,-8.42519 L 334.033,-8.53603
 L 334.567,-8.53603 L 335.088,-8.42519 L 335.575,-8.20836 L 336.006,-7.895 L 336.363,-7.49884 L 336.63,-7.03717
 L 336.794,-6.53017 L 336.85,-6 L 336.85,-0 L 495.15,-0 L 495.15,-6 L 495.206,-6.53017
 L 495.37,-7.03717 L 495.637,-7.49884 L 495.994,-7.895 L 496.425,-8.20836 L 496.912,-8.42519 L 497.433,-8.53603
 L 497.967,-8.53603 L 498.488,-8.42519 L 498.975,-8.20836 L 499.406,-7.895 L 499.763,-7.49884 L 500.03,-7.03717
 L 500.194,-6.53017 L 500.25,-6 L 500.25,-0 L 658.55,-0 L 658.55,-6 L 658.606,-6.53017
 L 658.77,-7.03717 L 659.037,-7.49884 L 659.394,-7.895 L 659.825,-8.20836 L 660.312,-8.42519 L 660.833,-8.53603
 L 661.367,-8.53603 L 661.888,-8.42519 L 662.375,-8.20836 L 662.806,-7.895 L 663.163,-7.49884 L 663.43,-7.03717
 L 663.594,-6.53017 L 663.65,-6 L 663.65,-0 L 821.95,-0 L 821.95,-6 L 822.006,-6.53017
 L 822.17,-7.03717 L 822.437,-7.49884 L 822.794,-7.895 L 823.225,-8.20836 L 823.712,-8.42519 L 824.233,-8.53603
 L 824.767,-8.53603 L 825.288,-8.42519 L 825.775,-8.20836 L 826.206,-7.895 L 826.563,-7.49884 L 826.83,-7.03717
 L 826.994,-6.53017 L 827.05,-6 L 827.05,-0 L 832,-0 z
M 6.98573,-55.607 L 6.47708,-55.6875 L 5.97964,-55.8208 L 5.49887,-56.0054 L 5.04001,-56.2392 L 4.60811,-56.5196
 L 4.20789,-56.8437 L 3.84373,-57.2079 L 3.51964,-57.6081 L 3.23917,-58.04 L 3.00537,-58.4989 L 2.82082,-58.9796
 L 2.68752,-59.4771 L 2.60696,-59.9857 L 2.58,-60.5 L 2.60696,-61.0143 L 2.68752,-61.5229 L 2.82082,-62.0204
 L 3.00537,-62.5011 L 3.23917,-62.96 L 3.51964,-63.3919 L 3.84373,-63.7921 L 4.20789,-64.1563 L 4.60811,-64.4804
 L 4.95001,-64.7024 L 4.95001,-74 L 5.00574,-74.5302 L 5.17047,-75.0372 L 5.43701,-75.4988 L 5.79373,-75.895
 L 6.22501,-76.2084 L 6.71202,-76.4252 L 7.23346,-76.536 L 7.76654,-76.536 L 8.28798,-76.4252 L 8.77499,-76.2084
 L 9.20627,-75.895 L 9.56299,-75.4988 L 9.82953,-75.0372 L 9.99426,-74.5302 L 10.05,-74 L 10.05,-64.7024
 L 10.3919,-64.4804 L 10.7921,-64.1563 L 11.1563,-63.7921 L 11.4804,-63.3919 L 11.7608,-62.96 L 11.9946,-62.5011
 L 12.1792,-62.0204 L 12.3125,-61.5229 L 12.393,-61.0143 L 12.42,-60.5 L 12.393,-59.9857 L 12.3125,-59.4771
 L 12.1792,-58.9796 L 11.9946,-58.4989 L 11.7608,-58.04 L 11.4804,-57.6081 L 11.1563,-57.2079 L 10.7921,-56.8437
 L 10.3919,-56.5196 L 9.95999,-56.2392 L 9.50113,-56.0054 L 9.02036,-55.8208 L 8.52292,-55.6875 L 8.01427,-55.607
 L 7.5,-55.58 z
M 170.386,-55.607 L 169.877,-55.6875 L 169.38,-55.8208 L 168.899,-56.0054 L 168.44,-56.2392 L 168.008,-56.5196
 L 167.608,-56.8437 L 167.244,-57.2079 L 166.92,-57.6081 L 166.639,-58.04 L 166.405,-58.4989 L 166.221,-58.9796
 L 166.088,-59.4771 L 166.007,-59.9857 L 165.98,-60.5 L 166.007,-61.0143 L 166.088,-61.5229 L 166.221,-62.0204
 L 166.405,-62.5011 L 166.639,-62.96 L 166.92,-63.3919 L 167.244,-63.7921 L 167.608,-64.1563 L 168.008,-64.4804
 L 168.35,-64.7024 L 168.35,-74 L 168.406,-74.5302 L 168.57,-75.0372 L 168.837,-75.4988 L 169.194,-75.895
 L 169.625,-76.2084 L 170.112,-76.4252 L 170.633,-76.536 L 171.167,-76.536 L 171.688,-76.4252 L 172.175,-76.2084
 L 172.606,-75.895 L 172.963,-75.4988 L 173.23,-75.0372 L 173.394,-74.5302 L 173.45,-74 L 173.45,-64.7024
 L 173.792,-64.4804 L 174.192,-64.1563 L 174.556,-63.7921 L 174.88,-63.3919 L 175.161,-62.96 L 175.395,-62.5011
 L 175.579,-62.0204 L 175.712,-61.5229 L 175.793,-61.0143 L 175.82,-60.5 L 175.793,-59.9857 L 175.712,-59.4771
 L 175.579,-58.9796 L 175.395,-58.4989 L 175.161,-58.04 L 174.88,-57.6081 L 174.556,-57.2079 L 174.192,-56.8437
 L 173.792,-56.5196 L 173.36,-56.2392 L 172.901,-56.0054 L 172.42,-55.8208 L 171.923,-55.6875 L 171.414,-55.607
 L 170.9,-55.58 z
M 333.786,-55.607 L 333.277,-55.6875 L 332.78,-55.8208 L 332.299,-56.0054 L 331.84,-56.2392 L 331.408,-56.5196
 L 331.008,-56.8437 L 330.644,-57.2079 L 330.32,-57.6081 L 330.039,-58.04 L 329.805,-58.4989 L 329.621,-58.9796
 L 329.488,-59.4771 L 329.407,-59.9857 L 329.38,-60.5 L 329.407,-61.0143 L 329.488,-61.5229 L 329.621,-62.0204
 L 329.805,-62.5011 L 330.039,-62.96 L 330.32,-63.3919 L 330.644,-63.7921 L 331.008,-64.1563 L 331.408,-64.4804
 L 331.75,-64.7024 L 331.75,-74 L 331.806,-74.5302 L 331.97,-75.0372 L 332.237,-75.4988 L 332.594,-75.895
 L 333.025,-76.2084 L 333.512,-76.4252 L 334.033,-76.536 L 334.567,-76.536 L 335.088,-76.4252 L 335.575,-76.2084
 L 336.006,-75.895 L 336.363,-75.4988 L 336.63,-75.0372 L 336.794,-74.5302 L 336.85,-74 L 336.85,-64.7024
 L 337.192,-64.4804 L 337.592,-64.1563 L 337.956,-63.7921 L 338.28,-63.3919 L 338.561,-62.96 L 338.795,-62.5011
 L 338.979,-62.0204 L 339.112,-61.5229 L 339.193,-61.0143 L 339.22,-60.5 L 339.193,-59.9857 L 339.112,-59.4771
 L 338.979,-58.9796 L 338.795,-58.4989 L 338.561,-58.04 L 338.28,-57.6081 L 337.956,-57.2079 L 337.592,-56.8437
 L 337.192,-56.5196 L 336.76,-56.2392 L 336.301,-56.0054 L 335.82,-55.8208 L 335.323,-55.6875 L 334.814,-55.607
 L 334.3,-55.58 z
M 497.186,-55.607 L 496.677,-55.6875 L 496.18,-55.8208 L 495.699,-56.0054 L 495.24,-56.2392 L 494.808,-56.5196
 L 494.408,-56.8437 L 494.044,-57.2079 L 493.72,-57.6081 L 493.439,-58.04 L 493.205,-58.4989 L 493.021,-58.9796
 L 492.888,-59.4771 L 492.807,-59.9857 L 492.78,-60.5 L 492.807,-61.0143 L 492.888,-61.5229 L 493.021,-62.0204
 L 493.205,-62.5011 L 493.439,-62.96 L 493.72,-63.3919 L 494.044,-63.7921 L 494.408,-64.1563 L 494.808,-64.4804
 L 495.15,-64.7024 L 495.15,-74 L 495.206,-74.5302 L 495.37,-75.0372 L 495.637,-75.4988 L 495.994,-75.895
 L 496.425,-76.2084 L 496.912,-76.4252 L 497.433,-76.536 L 497.967,-76.536 L 498.488,-76.4252 L 498.975,-76.2084
 L 499.406,-75.895 L 499.763,-75.4988 L 500.03,-75.0372 L 500.194,-74.5302 L 500.25,-74 L 500.25,-64.7024
 L 500.592,-64.4804 L 500.992,-64.1563 L 501.356,-63.7921 L 501.68,-63.3919 L 501.961,-62.96 L 502.195,-62.5011
 L 502.379,-62.0204 L 502.512,-61.5229 L 502.593,-61.0143 L 502.62,-60.5 L 502.593,-59.9857 L 502.512,-59.4771
 L 502.379,-58.9796 L 502.195,-58.4989 L 501.961,-58.04 L 501.68,-57.6081 L 501.356,-57.2079 L 500.992,-56.8437
 L 500.592,-56.5196 L 500.16,-56.2392 L 499.701,-56.0054 L 499.22,-55.8208 L 498.723,-55.6875 L 498.214,-55.607
 L 497.7,-55.58 z
M 660.586,-55.607 L 660.077,-55.6875 L 659.58,-55.8208 L 659.099,-56.0054 L 658.64,-56.2392 L 658.208,-56.5196
 L 657.808,-56.8437 L 657.444,-57.2079 L 657.12,-57.6081 L 656.839,-58.04 L 656.605,-58.4989 L 656.421,-58.9796
 L 656.288,-59.4771 L 656.207,-59.9857 L 656.18,-60.5 L 656.207,-61.0143 L 656.288,-61.5229 L 656.421,-62.0204
 L 656.605,-62.5011 L 656.839,-62.96 L 657.12,-63.3919 L 657.444,-63.7921 L 657.808,-64.1563 L 658.208,-64.4804
 L 658.55,-64.7024 L 658.55,-74 L 658.606,-74.5302 L 658.77,-75.0372 L 659.037,-75.4988 L 659.394,-75.895
 L 659.825,-76.2084 L 660.312,-76.4252 L 660.833,-76.536 L 661.367,-76.536 L 661.888,-76.4252 L 662.375,-76.2084
 L 662.806,-75.895 L 663.163,-75.4988 L 663.43,-75.0372 L 663.594,-74.5302 L 663.65,-74 L 663.65,-64.7024
 L 663.992,-64.4804 L 664.392,-64.1563 L 664.756,-63.7921 L 665.08,-63.3919 L 665.361,-62.96 L 665.595,-62.5011
 L 665.779,-62.0204 L 665.912,-61.5229 L 665.993,-61.0143 L 666.02,-60.5 L 665.993,-59.9857 L 665.912,-59.4771
 L 665.779,-58.9796 L 665.595,-58.4989 L 665.361,-58.04 L 665.08,-57.6081 L 664.756,-57.2079 L 664.392,-56.8437
 L 663.992,-56.5196 L 663.56,-56.2392 L 663.101,-56.0054 L 662.62,-55.8208 L 662.123,-55.6875 L 661.614,-55.607
 L 661.1,-55.58 z
M 823.986,-55.607 L 823.477,-55.6875 L 822.98,-55.8208 L 822.499,-56.0054 L 822.04,-56.2392 L 821.608,-56.5196
 L 821.208,-56.8437 L 820.844,-57.2079 L 820.52,-57.6081 L 820.239,-58.04 L 820.005,-58.4989 L 819.821,-58.9796
 L 819.688,-59.4771 L 819.607,-59.9857 L 819.58,-60.5 L 819.607,-61.0143 L 819.688,-61.5229 L 819.821,-62.0204
 L 820.005,-62.5011 L 820.239,-62.96 L 820.52,-63.3919 L 820.844,-63.7921 L 821.208,-64.1563 L 821.608,-64.4804
 L 821.95,-64.7024 L 821.95,-74 L 822.006,-74.5302 L 822.17,-75.0372 L 822.437,-75.4988 L 822.794,-75.895
 L 823.225,-76.2084 L 823.712,-76.4252 L 824.233,-76.536 L 824.767,-76.536 L 825.288,-76.4252 L 825.775,-76.2084
 L 826.206,-75.895 L 826.563,-75.4988 L 826.83,-75.0372 L 826.994,-74.5302 L 827.05,-74 L 827.05,-64.7024
 L 827.392,-64.4804 L 827.792,-64.1563 L 828.156,-63.7921 L 828.48,-63.3919 L 828.761,-62.96 L 828.995,-62.5011
 L 829.179,-62.0204 L 829.312,-61.5229 L 829.393,-61.0143 L 829.42,-60.5 L 829.393,-59.9857 L 829.312,-59.4771
 L 829.179,-58.9796 L 828.995,-58.4989 L 828.761,-58.04 L 828.48,-57.6081 L 828.156,-57.2079 L 827.792,-56.8437
 L 827.392,-56.5196 L 826.96,-56.2392 L 826.501,-56.0054 L 826.02,-55.8208 L 825.523,-55.6875 L 825.014,-55.607
 L 824.5,-55.58 z
M 415.265,-47.9791 L 414.463,-48.2179 L 399.831,-54.307 L 399.017,-54.7639 L 398.396,-55.3235 L 397.904,-56
 L 397.564,-56.7639 L 397.39,-57.5819 L 397.39,-58.4181 L 397.564,-59.2361 L 397.904,-60 L 398.396,-60.6765
 L 399.017,-61.2361 L 399.741,-61.6542 L 400.537,-61.9126 L 401.368,-62 L 430.632,-62 L 431.559,-61.891
 L 432.348,-61.6132 L 433.061,-61.1774 L 433.669,-60.6028 L 434.144,-59.9145 L 434.465,-59.1424 L 434.619,-58.3204
 L 434.598,-57.4845 L 434.404,-56.671 L 434.046,-55.9157 L 433.538,-55.2514 L 432.903,-54.7073 L 432.169,-54.307
 L 417.537,-48.2179 L 416.927,-48.0199 L 416.098,-47.9121 z
M 320.565,-21.5548 L 319.763,-21.7936 L 241.635,-54.307 L 240.821,-54.7639 L 240.2,-55.3235 L 239.708,-56
 L 239.368,-56.7639 L 239.194,-57.5819 L 239.194,-58.4181 L 239.368,-59.2361 L 239.708,-60 L 240.2,-60.6765
 L 240.821,-61.2361 L 241.545,-61.6542 L 242.34,-61.9126 L 243.172,-62 L 321.3,-62 L 322.536,-61.8042
 L 323.3,-61.4641 L 323.977,-60.9726 L 324.536,-60.3511 L 324.954,-59.627 L 325.213,-58.8316 L 325.3,-58
 L 325.3,-25.4866 L 325.133,-24.3442 L 324.812,-23.5721 L 324.337,-22.8838 L 323.73,-22.3091 L 323.016,-21.8734
 L 322.227,-21.5956 L 321.398,-21.4878 z
M 673.173,-21.5956 L 672.384,-21.8734 L 671.67,-22.3091 L 671.063,-22.8838 L 670.588,-23.5721 L 670.267,-24.3442
 L 670.1,-25.4866 L 670.1,-58 L 670.187,-58.8316 L 670.446,-59.627 L 670.864,-60.3511 L 671.423,-60.9726
 L 672.1,-61.4641 L 672.864,-61.8042 L 674.1,-62 L 752.228,-62 L 753.059,-61.9126 L 753.855,-61.6542
 L 754.579,-61.2361 L 755.2,-60.6765 L 755.692,-60 L 756.032,-59.2361 L 756.206,-58.4181 L 756.206,-57.5819
 L 756.032,-56.7639 L 755.692,-56 L 755.2,-55.3235 L 754.579,-54.7639 L 753.765,-54.307 L 675.637,-21.7936
 L 674.835,-21.5548 L 674.002,-21.4878 z
M 157.165,-21.5548 L 156.363,-21.7936 L 78.2353,-54.307 L 77.421,-54.7639 L 76.7996,-55.3235 L 76.3081,-56
 L 75.9679,-56.7639 L 75.7941,-57.5819 L 75.7941,-58.4181 L 75.9679,-59.2361 L 76.3081,-60 L 76.7996,-60.6765
 L 77.421,-61.2361 L 78.1452,-61.6542 L 78.9405,-61.9126 L 79.7722,-62 L 157.9,-62 L 159.136,-61.8042
 L 159.9,-61.4641 L 160.577,-60.9726 L 161.136,-60.3511 L 161.554,-59.627 L 161.813,-58.8316 L 161.9,-58
 L 161.9,-25.4866 L 161.733,-24.3442 L 161.412,-23.5721 L 160.937,-22.8838 L 160.33,-22.3091 L 159.616,-21.8734
 L 158.827,-21.5956 L 157.998,-21.4878 z
M 509.773,-21.5956 L 508.984,-21.8734 L 508.27,-22.3091 L 507.663,-22.8838 L 507.188,-23.5721 L 506.867,-24.3442
 L 506.7,-25.4866 L 506.7,-58 L 506.787,-58.8316 L 507.046,-59.627 L 507.464,-60.3511 L 508.023,-60.9726
 L 508.7,-61.4641 L 509.464,-61.8042 L 510.7,-62 L 588.828,-62 L 589.659,-61.9126 L 590.455,-61.6542
 L 591.179,-61.2361 L 591.8,-60.6765 L 592.292,-60 L 592.632,-59.2361 L 592.806,-58.4181 L 592.806,-57.5819
 L 592.632,-56.7639 L 592.292,-56 L 591.8,-55.3235 L 591.179,-54.7639 L 590.365,-54.307 L 512.237,-21.7936
 L 511.435,-21.5548 L 510.602,-21.4878 z
M 346.882,-19.3429 L 346.064,-19.5167 L 345.3,-19.8569 L 344.623,-20.3484 L 344.064,-20.9698 L 343.646,-21.694
 L 343.387,-22.4893 L 343.3,-23.321 L 343.3,-56.679 L 343.467,-57.8214 L 343.788,-58.5935 L 344.263,-59.2819
 L 344.87,-59.8565 L 345.584,-60.2922 L 346.373,-60.5701 L 347.202,-60.6778 L 348.035,-60.6108 L 348.837,-60.372
 L 388.916,-43.693 L 389.809,-43.1774 L 390.416,-42.6028 L 390.891,-41.9145 L 391.212,-41.1424 L 391.366,-40.3204
 L 391.345,-39.4845 L 391.152,-38.671 L 390.793,-37.9157 L 390.285,-37.2514 L 389.65,-36.7073 L 388.916,-36.307
 L 348.837,-19.628 L 347.718,-19.3429 z
M 483.965,-19.3892 L 483.163,-19.628 L 443.084,-36.307 L 442.191,-36.8226 L 441.584,-37.3972 L 441.109,-38.0855
 L 440.788,-38.8576 L 440.634,-39.6796 L 440.655,-40.5155 L 440.848,-41.329 L 441.207,-42.0843 L 441.715,-42.7486
 L 442.35,-43.2927 L 443.084,-43.693 L 483.163,-60.372 L 484.282,-60.6571 L 485.118,-60.6571 L 485.936,-60.4833
 L 486.7,-60.1431 L 487.377,-59.6516 L 487.936,-59.0302 L 488.354,-58.306 L 488.613,-57.5107 L 488.7,-56.679
 L 488.7,-23.321 L 488.533,-22.1786 L 488.212,-21.4065 L 487.737,-20.7181 L 487.13,-20.1435 L 486.416,-19.7078
 L 485.627,-19.4299 L 484.798,-19.3222 z
M 183.9,-18 L 182.664,-18.1958 L 181.9,-18.5359 L 181.223,-19.0274 L 180.664,-19.6489 L 180.246,-20.373
 L 179.987,-21.1684 L 179.9,-22 L 179.9,-54.5134 L 180.067,-55.6558 L 180.388,-56.4279 L 180.863,-57.1162
 L 181.47,-57.6909 L 182.184,-58.1266 L 182.973,-58.4044 L 183.802,-58.5122 L 184.635,-58.4452 L 185.437,-58.2064
 L 263.565,-25.693 L 264.379,-25.2361 L 265,-24.6765 L 265.492,-24 L 265.832,-23.2361 L 266.006,-22.4181
 L 266.006,-21.5819 L 265.832,-20.7639 L 265.492,-20 L 265,-19.3235 L 264.379,-18.7639 L 263.655,-18.3458
 L 262.859,-18.0874 L 262.028,-18 z
M 569.972,-18 L 569.141,-18.0874 L 568.345,-18.3458 L 567.621,-18.7639 L 567,-19.3235 L 566.508,-20
 L 566.168,-20.7639 L 565.994,-21.5819 L 565.994,-22.4181 L 566.168,-23.2361 L 566.508,-24 L 567,-24.6765
 L 567.621,-25.2361 L 568.435,-25.693 L 646.563,-58.2064 L 647.365,-58.4452 L 648.198,-58.5122 L 649.027,-58.4044
 L 649.816,-58.1266 L 650.53,-57.6909 L 651.137,-57.1162 L 651.612,-56.4279 L 651.933,-55.6558 L 652.1,-54.5134
 L 652.1,-22 L 652.013,-21.1684 L 651.754,-20.373 L 651.336,-19.6489 L 650.777,-19.0274 L 650.1,-18.5359
 L 649.336,-18.1958 L 648.1,-18 z
M 22,-18 L 20.7639,-18.1958 L 20,-18.5359 L 19.3235,-19.0274 L 18.7639,-19.6489 L 18.3458,-20.373
 L 18.0874,-21.1684 L 18,-22 L 18,-53.8892 L 18.1666,-55.0316 L 18.4879,-55.8036 L 18.9627,-56.492
 L 19.5702,-57.0666 L 20.2839,-57.5024 L 21.0727,-57.7802 L 21.9019,-57.888 L 22.7355,-57.821 L 23.5368,-57.5822
 L 100.165,-25.693 L 100.979,-25.2361 L 101.6,-24.6765 L 102.092,-24 L 102.432,-23.2361 L 102.606,-22.4181
 L 102.606,-21.5819 L 102.432,-20.7639 L 102.092,-20 L 101.6,-19.3235 L 100.979,-18.7639 L 100.255,-18.3458
 L 99.4595,-18.0874 L 98.6278,-18 z
M 733.372,-18 L 732.541,-18.0874 L 731.745,-18.3458 L 731.021,-18.7639 L 730.4,-19.3235 L 729.908,-20
 L 729.568,-20.7639 L 729.394,-21.5819 L 729.394,-22.4181 L 729.568,-23.2361 L 729.908,-24 L 730.4,-24.6765
 L 731.021,-25.2361 L 731.835,-25.693 L 808.463,-57.5822 L 809.265,-57.821 L 810.098,-57.888 L 810.927,-57.7802
 L 811.716,-57.5024 L 812.43,-57.0666 L 813.037,-56.492 L 813.512,-55.8036 L 813.833,-55.0316 L 814,-53.8892
 L 814,-22 L 813.913,-21.1684 L 813.654,-20.373 L 813.236,-19.6489 L 812.677,-19.0274 L 812,-18.5359
 L 811.236,-18.1958 L 810,-18 z
M 401.368,-18 L 400.441,-18.109 L 399.652,-18.3868 L 398.939,-18.8226 L 398.331,-19.3972 L 397.856,-20.0855
 L 397.535,-20.8576 L 397.381,-21.6796 L 397.402,-22.5155 L 397.596,-23.329 L 397.954,-24.0843 L 398.462,-24.7486
 L 399.097,-25.2927 L 399.831,-25.693 L 414.463,-31.7821 L 415.073,-31.9801 L 415.902,-32.0879 L 416.735,-32.0209
 L 417.537,-31.7821 L 432.169,-25.693 L 432.983,-25.2361 L 433.604,-24.6765 L 434.096,-24 L 434.436,-23.2361
 L 434.61,-22.4181 L 434.61,-21.5819 L 434.436,-20.7639 L 434.096,-20 L 433.604,-19.3235 L 432.983,-18.7639
 L 432.259,-18.3458 L 431.463,-18.0874 L 430.632,-18 z
" stroke="black" fill="lightgray" stroke-width="0.5"/>
</svg>
