<?xml version="1.0" standalone="no"?>
<!DOCTYPE svg PUBLIC "-//W3C//DTD SVG 1.1//EN" "http://www.w3.org/Graphics/SVG/1.1/DTD/svg11.dtd">
<svg width="790mm" height="80mm" viewBox="0 -80 790 80" xmlns="http://www.w3.org/2000/svg" version="1.1">
<title>OpenSCAD Model</title>
<path d="
M 790,-80 L 0,-80 L 0,-0 L 4.95,-0 L 4.95,-6 L 5.00572,-6.53017
 L 5.17046,-7.03717 L 5.437,-7.49884 L 5.79372,-7.895 L 6.22499,-8.20836 L 6.71201,-8.42519 L 7.23344,-8.53603
 L 7.76654,-8.53603 L 8.28798,-8.42519 L 8.77499,-8.20836 L 9.20627,-7.895 L 9.56299,-7.49884 L 9.82953,-7.03717
 L 9.99426,-6.53017 L 10.05,-6 L 10.05,-0 L 159.95,-0 L 159.95,-6 L 160.006,-6.53017
 L 160.17,-7.03717 L 160.437,-7.49884 L 160.794,-7.895 L 161.225,-8.20836 L 161.712,-8.42519 L 162.233,-8.53603
 L 162.767,-8.53603 L 163.288,-8.42519 L 163.775,-8.20836 L 164.206,-7.895 L 164.563,-7.49884 L 164.83,-7.03717
 L 164.994,-6.53017 L 165.05,-6 L 165.05,-0 L 314.95,-0 L 314.95,-6 L 315.006,-6.53017
 L 315.17,-7.03717 L 315.437,-7.49884 L 315.794,-7.895 L 316.225,-8.20836 L 316.712,-8.42519 L 317.233,-8.53603
 L 317.767,-8.53603 L 318.288,-8.42519 L 318.775,-8.20836 L 319.206,-7.895 L 319.563,-7.49884 L 319.83,-7.03717
 L 319.994,-6.53017 L 320.05,-6 L 320.05,-0 L 469.95,-0 L 469.95,-6 L 470.006,-6.53017
 L 470.17,-7.03717 L 470.437,-7.49884 L 470.794,-7.895 L 471.225,-8.20836 L 471.712,-8.42519 L 472.233,-8.53603
 L 472.767,-8.53603 L 473.288,-8.42519 L 473.775,-8.20836 L 474.206,-7.895 L 474.563,-7.49884 L 474.83,-7.03717
 L 474.994,-6.53017 L 475.05,-6 L 475.05,-0 L 624.95,-0 L 624.95,-6 L 625.006,-6.53017
 L 625.17,-7.03717 L 625.437,-7.49884 L 625.794,-7.895 L 626.225,-8.20836 L 626.712,-8.42519 L 627.233,-8.53603
 L 627.767,-8.53603 L 628.288,-8.42519 L 628.775,-8.20836 L 629.206,-7.895 L 629.563,-7.49884 L 629.83,-7.03717
 L 629.994,-6.53017 L 630.05,-6 L 630.05,-0 L 779.95,-0 L 779.95,-6 L 780.006,-6.53017
 L 780.17,-7.03717 L 780.437,-7.49884 L 780.794,-7.895 L 781.225,-8.20836 L 781.712,-8.42519 L 782.233,-8.53603
 L 782.767,-8.53603 L 783.288,-8.42519 L 783.775,-8.20836 L 784.206,-7.895 L 784.563,-7.49884 L 784.83,-7.03717
 L 784.994,-6.53017 L 785.05,-6 L 785.05,-0 L 790,-0 z
M 6.98573,-55.607 L 6.47708,-55.6875 L 5.97964,-55.8208 L 5.49887,-56.0054 L 5.04001,-56.2392 L 4.60811,-56.5196
 L 4.20789,-56.8437 L 3.84373,-57.2079 L 3.51964,-57.6081 L 3.23917,-58.04 L 3.00537,-58.4989 L 2.82082,-58.9796
 L 2.68752,-59.4771 L 2.60696,-59.9857 L 2.58,-60.5 L 2.60696,-61.0143 L 2.68752,-61.5229 L 2.82082,-62.0204
 L 3.00537,-62.5011 L 3.23917,-62.96 L 3.51964,-63.3919 L 3.84373,-63.7921 L 4.20789,-64.1563 L 4.60811,-64.4804
 L 4.95001,-64.7024 L 4.95001,-74 L 5.00574,-74.5302 L 5.17047,-75.0372 L 5.43701,-75.4988 L 5.79373,-75.895
 L 6.22501,-76.2084 L 6.71202,-76.4252 L 7.23346,-76.536 L 7.76654,-76.536 L 8.28798,-76.4252 L 8.77499,-76.2084
 L 9.20627,-75.895 L 9.56299,-75.4988 L 9.82953,-75.0372 L 9.99426,-74.5302 L 10.05,-74 L 10.05,-64.7024
 L 10.3919,-64.4804 L 10.7921,-64.1563 L 11.1563,-63.7921 L 11.4804,-63.3919 L 11.7608,-62.96 L 11.9946,-62.5011
 L 12.1792,-62.0204 L 12.3125,-61.5229 L 12.393,-61.0143 L 12.42,-60.5 L 12.393,-59.9857 L 12.3125,-59.4771
 L 12.1792,-58.9796 L 11.9946,-58.4989 L 11.7608,-58.04 L 11.4804,-57.6081 L 11.1563,-57.2079 L 10.7921,-56.8437
 L 10.3919,-56.5196 L 9.95999,-56.2392 L 9.50113,-56.0054 L 9.02036,-55.8208 L 8.52292,-55.6875 L 8.01427,-55.607
 L 7.5,-55.58 z
M 161.986,-55.607 L 161.477,-55.6875 L 160.98,-55.8208 L 160.499,-56.0054 L 160.04,-56.2392 L 159.608,-56.5196
 L 159.208,-56.8437 L 158.844,-57.2079 L 158.52,-57.6081 L 158.239,-58.04 L 158.005,-58.4989 L 157.821,-58.9796
 L 157.688,-59.4771 L 157.607,-59.9857 L 157.58,-60.5 L 157.607,-61.0143 L 157.688,-61.5229 L 157.821,-62.0204
 L 158.005,-62.5011 L 158.239,-62.96 L 158.52,-63.3919 L 158.844,-63.7921 L 159.208,-64.1563 L 159.608,-64.4804
 L 159.95,-64.7024 L 159.95,-74 L 160.006,-74.5302 L 160.17,-75.0372 L 160.437,-75.4988 L 160.794,-75.895
 L 161.225,-76.2084 L 161.712,-76.4252 L 162.233,-76.536 L 162.767,-76.536 L 163.288,-76.4252 L 163.775,-76.2084
 L 164.206,-75.895 L 164.563,-75.4988 L 164.83,-75.0372 L 164.994,-74.5302 L 165.05,-74 L 165.05,-64.7024
 L 165.392,-64.4804 L 165.792,-64.1563 L 166.156,-63.7921 L 166.48,-63.3919 L 166.761,-62.96 L 166.995,-62.5011
 L 167.179,-62.0204 L 167.312,-61.5229 L 167.393,-61.0143 L 167.42,-60.5 L 167.393,-59.9857 L 167.312,-59.4771
 L 167.179,-58.9796 L 166.995,-58.4989 L 166.761,-58.04 L 166.48,-57.6081 L 166.156,-57.2079 L 165.792,-56.8437
 L 165.392,-56.5196 L 164.96,-56.2392 L 164.501,-56.0054 L 164.02,-55.8208 L 163.523,-55.6875 L 163.014,-55.607
 L 162.5,-55.58 z
M 316.986,-55.607 L 316.477,-55.6875 L 315.98,-55.8208 L 315.499,-56.0054 L 315.04,-56.2392 L 314.608,-56.5196
 L 314.208,-56.8437 L 313.844,-57.2079 L 313.52,-57.6081 L 313.239,-58.04 L 313.005,-58.4989 L 312.821,-58.9796
 L 312.688,-59.4771 L 312.607,-59.9857 L 312.58,-60.5 L 312.607,-61.0143 L 312.688,-61.5229 L 312.821,-62.0204
 L 313.005,-62.5011 L 313.239,-62.96 L 313.52,-63.3919 L 313.844,-63.7921 L 314.208,-64.1563 L 314.608,-64.4804
 L 314.95,-64.7024 L 314.95,-74 L 315.006,-74.5302 L 315.17,-75.0372 L 315.437,-75.4988 L 315.794,-75.895
 L 316.225,-76.2084 L 316.712,-76.4252 L 317.233,-76.536 L 317.767,-76.536 L 318.288,-76.4252 L 318.775,-76.2084
 L 319.206,-75.895 L 319.563,-75.4988 L 319.83,-75.0372 L 319.994,-74.5302 L 320.05,-74 L 320.05,-64.7024
 L 320.392,-64.4804 L 320.792,-64.1563 L 321.156,-63.7921 L 321.48,-63.3919 L 321.761,-62.96 L 321.995,-62.5011
 L 322.179,-62.0204 L 322.312,-61.5229 L 322.393,-61.0143 L 322.42,-60.5 L 322.393,-59.9857 L 322.312,-59.4771
 L 322.179,-58.9796 L 321.995,-58.4989 L 321.761,-58.04 L 321.48,-57.6081 L 321.156,-57.2079 L 320.792,-56.8437
 L 320.392,-56.5196 L 319.96,-56.2392 L 319.501,-56.0054 L 319.02,-55.8208 L 318.523,-55.6875 L 318.014,-55.607
 L 317.5,-55.58 z
M 471.986,-55.607 L 471.477,-55.6875 L 470.98,-55.8208 L 470.499,-56.0054 L 470.04,-56.2392 L 469.608,-56.5196
 L 469.208,-56.8437 L 468.844,-57.2079 L 468.52,-57.6081 L 468.239,-58.04 L 468.005,-58.4989 L 467.821,-58.9796
 L 467.688,-59.4771 L 467.607,-59.9857 L 467.58,-60.5 L 467.607,-61.0143 L 467.688,-61.5229 L 467.821,-62.0204
 L 468.005,-62.5011 L 468.239,-62.96 L 468.52,-63.3919 L 468.844,-63.7921 L 469.208,-64.1563 L 469.608,-64.4804
 L 469.95,-64.7024 L 469.95,-74 L 470.006,-74.5302 L 470.17,-75.0372 L 470.437,-75.4988 L 470.794,-75.895
 L 471.225,-76.2084 L 471.712,-76.4252 L 472.233,-76.536 L 472.767,-76.536 L 473.288,-76.4252 L 473.775,-76.2084
 L 474.206,-75.895 L 474.563,-75.4988 L 474.83,-75.0372 L 474.994,-74.5302 L 475.05,-74 L 475.05,-64.7024
 L 475.392,-64.4804 L 475.792,-64.1563 L 476.156,-63.7921 L 476.48,-63.3919 L 476.761,-62.96 L 476.995,-62.5011
 L 477.179,-62.0204 L 477.312,-61.5229 L 477.393,-61.0143 L 477.42,-60.5 L 477.393,-59.9857 L 477.312,-59.4771
 L 477.179,-58.9796 L 476.995,-58.4989 L 476.761,-58.04 L 476.48,-57.6081 L 476.156,-57.2079 L 475.792,-56.8437
 L 475.392,-56.5196 L 474.96,-56.2392 L 474.501,-56.0054 L 474.02,-55.8208 L 473.523,-55.6875 L 473.014,-55.607
 L 472.5,-55.58 z
M 626.986,-55.607 L 626.477,-55.6875 L 625.98,-55.8208 L 625.499,-56.0054 L 625.04,-56.2392 L 624.608,-56.5196
 L 624.208,-56.8437 L 623.844,-57.2079 L 623.52,-57.6081 L 623.239,-58.04 L 623.005,-58.4989 L 622.821,-58.9796
 L 622.688,-59.4771 L 622.607,-59.9857 L 622.58,-60.5 L 622.607,-61.0143 L 622.688,-61.5229 L 622.821,-62.0204
 L 623.005,-62.5011 L 623.239,-62.96 L 623.52,-63.3919 L 623.844,-63.7921 L 624.208,-64.1563 L 624.608,-64.4804
 L 624.95,-64.7024 L 624.95,-74 L 625.006,-74.5302 L 625.17,-75.0372 L 625.437,-75.4988 L 625.794,-75.895
 L 626.225,-76.2084 L 626.712,-76.4252 L 627.233,-76.536 L 627.767,-76.536 L 628.288,-76.4252 L 628.775,-76.2084
 L 629.206,-75.895 L 629.563,-75.4988 L 629.83,-75.0372 L 629.994,-74.5302 L 630.05,-74 L 630.05,-64.7024
 L 630.392,-64.4804 L 630.792,-64.1563 L 631.156,-63.7921 L 631.48,-63.3919 L 631.761,-62.96 L 631.995,-62.5011
 L 632.179,-62.0204 L 632.312,-61.5229 L 632.393,-61.0143 L 632.42,-60.5 L 632.393,-59.9857 L 632.312,-59.4771
 L 632.179,-58.9796 L 631.995,-58.4989 L 631.761,-58.04 L 631.48,-57.6081 L 631.156,-57.2079 L 630.792,-56.8437
 L 630.392,-56.5196 L 629.96,-56.2392 L 629.501,-56.0054 L 629.02,-55.8208 L 628.523,-55.6875 L 628.014,-55.607
 L 627.5,-55.58 z
M 781.986,-55.607 L 781.477,-55.6875 L 780.98,-55.8208 L 780.499,-56.0054 L 780.04,-56.2392 L 779.608,-56.5196
 L 779.208,-56.8437 L 778.844,-57.2079 L 778.52,-57.6081 L 778.239,-58.04 L 778.005,-58.4989 L 777.821,-58.9796
 L 777.688,-59.4771 L 777.607,-59.9857 L 777.58,-60.5 L 777.607,-61.0143 L 777.688,-61.5229 L 777.821,-62.0204
 L 778.005,-62.5011 L 778.239,-62.96 L 778.52,-63.3919 L 778.844,-63.7921 L 779.208,-64.1563 L 779.608,-64.4804
 L 779.95,-64.7024 L 779.95,-74 L 780.006,-74.5302 L 780.17,-75.0372 L 780.437,-75.4988 L 780.794,-75.895
 L 781.225,-76.2084 L 781.712,-76.4252 L 782.233,-76.536 L 782.767,-76.536 L 783.288,-76.4252 L 783.775,-76.2084
 L 784.206,-75.895 L 784.563,-75.4988 L 784.83,-75.0372 L 784.994,-74.5302 L 785.05,-74 L 785.05,-64.7024
 L 785.392,-64.4804 L 785.792,-64.1563 L 786.156,-63.7921 L 786.48,-63.3919 L 786.761,-62.96 L 786.995,-62.5011
 L 787.179,-62.0204 L 787.312,-61.5229 L 787.393,-61.0143 L 787.42,-60.5 L 787.393,-59.9857 L 787.312,-59.4771
 L 787.179,-58.9796 L 786.995,-58.4989 L 786.761,-58.04 L 786.48,-57.6081 L 786.156,-57.2079 L 785.792,-56.8437
 L 785.392,-56.5196 L 784.96,-56.2392 L 784.501,-56.0054 L 784.02,-55.8208 L 783.523,-55.6875 L 783.014,-55.607
 L 782.5,-55.58 z
M 394.19,-48.0948 L 393.393,-48.3488 L 379.743,-54.337 L 378.999,-54.7639 L 378.378,-55.3235 L 377.886,-56
 L 377.546,-56.7639 L 377.372,-57.5819 L 377.372,-58.4181 L 377.546,-59.2361 L 377.886,-60 L 378.378,-60.6765
 L 378.999,-61.2361 L 379.724,-61.6542 L 380.519,-61.9126 L 381.35,-62 L 408.65,-62 L 409.502,-61.908
 L 410.296,-61.6452 L 411.018,-61.2232 L 411.637,-60.6603 L 412.124,-59.9811 L 412.46,-59.2153 L 412.63,-58.3964
 L 412.625,-57.5602 L 412.447,-56.7432 L 412.103,-55.9811 L 411.607,-55.3073 L 410.983,-54.7512 L 410.257,-54.337
 L 396.607,-48.3488 L 395.853,-48.1038 L 395.022,-48.0119 z
M 303.69,-21.9819 L 302.893,-22.236 L 229.722,-54.337 L 228.978,-54.7639 L 228.356,-55.3235 L 227.865,-56
 L 227.524,-56.7639 L 227.351,-57.5819 L 227.351,-58.4181 L 227.524,-59.2361 L 227.865,-60 L 228.356,-60.6765
 L 228.978,-61.2361 L 229.702,-61.6542 L 230.497,-61.9126 L 231.329,-62 L 304.5,-62 L 305.736,-61.8042
 L 306.5,-61.4641 L 307.177,-60.9726 L 307.736,-60.3511 L 308.154,-59.627 L 308.413,-58.8316 L 308.5,-58
 L 308.5,-25.899 L 308.311,-24.6837 L 307.975,-23.9179 L 307.487,-23.2387 L 306.869,-22.6758 L 306.147,-22.2538
 L 305.353,-21.991 L 304.522,-21.8991 z
M 639.647,-21.991 L 638.853,-22.2538 L 638.131,-22.6758 L 637.513,-23.2387 L 637.025,-23.9179 L 636.689,-24.6837
 L 636.5,-25.899 L 636.5,-58 L 636.587,-58.8316 L 636.846,-59.627 L 637.264,-60.3511 L 637.823,-60.9726
 L 638.5,-61.4641 L 639.264,-61.8042 L 640.5,-62 L 713.671,-62 L 714.503,-61.9126 L 715.298,-61.6542
 L 716.022,-61.2361 L 716.644,-60.6765 L 717.135,-60 L 717.476,-59.2361 L 717.649,-58.4181 L 717.649,-57.5819
 L 717.476,-56.7639 L 717.135,-56 L 716.644,-55.3235 L 716.022,-54.7639 L 715.278,-54.337 L 642.107,-22.236
 L 641.31,-21.9819 L 640.478,-21.8991 z
M 148.69,-21.9819 L 147.893,-22.236 L 74.7216,-54.337 L 73.9775,-54.7639 L 73.3561,-55.3235 L 72.8645,-56
 L 72.5244,-56.7639 L 72.3506,-57.5819 L 72.3506,-58.4181 L 72.5244,-59.2361 L 72.8645,-60 L 73.3561,-60.6765
 L 73.9775,-61.2361 L 74.7017,-61.6542 L 75.497,-61.9126 L 76.3286,-62 L 149.5,-62 L 150.736,-61.8042
 L 151.5,-61.4641 L 152.177,-60.9726 L 152.736,-60.3511 L 153.154,-59.627 L 153.413,-58.8316 L 153.5,-58
 L 153.5,-25.899 L 153.311,-24.6837 L 152.975,-23.9179 L 152.487,-23.2387 L 151.869,-22.6758 L 151.147,-22.2538
 L 150.353,-21.991 L 149.522,-21.8991 z
M 484.647,-21.991 L 483.853,-22.2538 L 483.131,-22.6758 L 482.513,-23.2387 L 482.025,-23.9179 L 481.689,-24.6837
 L 481.5,-25.899 L 481.5,-58 L 481.587,-58.8316 L 481.846,-59.627 L 482.264,-60.3511 L 482.823,-60.9726
 L 483.5,-61.4641 L 484.264,-61.8042 L 485.5,-62 L 558.671,-62 L 559.503,-61.9126 L 560.298,-61.6542
 L 561.022,-61.2361 L 561.644,-60.6765 L 562.135,-60 L 562.476,-59.2361 L 562.649,-58.4181 L 562.649,-57.5819
 L 562.476,-56.7639 L 562.135,-56 L 561.644,-55.3235 L 561.022,-54.7639 L 560.278,-54.337 L 487.107,-22.236
 L 486.31,-21.9819 L 485.478,-21.8991 z
M 330.082,-19.737 L 329.264,-19.9108 L 328.5,-20.251 L 327.823,-20.7425 L 327.264,-21.3639 L 326.846,-22.0881
 L 326.587,-22.8834 L 326.5,-23.7151 L 326.5,-56.2849 L 326.689,-57.5002 L 327.025,-58.266 L 327.513,-58.9452
 L 328.131,-59.5081 L 328.853,-59.9302 L 329.647,-60.1929 L 330.478,-60.2849 L 331.31,-60.202 L 332.107,-59.9479
 L 369.227,-43.663 L 369.989,-43.2232 L 370.607,-42.6603 L 371.095,-41.9811 L 371.431,-41.2153 L 371.6,-40.3964
 L 371.596,-39.5602 L 371.418,-38.7432 L 371.073,-37.9811 L 370.578,-37.3073 L 369.954,-36.7512 L 369.227,-36.337
 L 332.107,-20.0521 L 330.918,-19.737 z
M 458.69,-19.798 L 457.893,-20.052 L 420.773,-36.337 L 420.011,-36.7768 L 419.393,-37.3397 L 418.905,-38.0189
 L 418.569,-38.7847 L 418.4,-39.6036 L 418.404,-40.4398 L 418.582,-41.2568 L 418.927,-42.0189 L 419.422,-42.6927
 L 420.046,-43.2488 L 420.773,-43.663 L 457.893,-59.948 L 459.082,-60.263 L 459.918,-60.263 L 460.736,-60.0892
 L 461.5,-59.7491 L 462.177,-59.2575 L 462.736,-58.6361 L 463.154,-57.9119 L 463.413,-57.1166 L 463.5,-56.285
 L 463.5,-23.715 L 463.311,-22.4997 L 462.975,-21.734 L 462.487,-21.0548 L 461.869,-20.4919 L 461.147,-20.0698
 L 460.353,-19.8071 L 459.522,-19.7151 z
M 175.5,-18 L 174.264,-18.1958 L 173.5,-18.5359 L 172.823,-19.0274 L 172.264,-19.6489 L 171.846,-20.373
 L 171.587,-21.1684 L 171.5,-22 L 171.5,-54.101 L 171.689,-55.3163 L 172.025,-56.082 L 172.513,-56.7612
 L 173.131,-57.3242 L 173.853,-57.7462 L 174.647,-58.009 L 175.478,-58.1009 L 176.31,-58.018 L 177.107,-57.764
 L 250.278,-25.663 L 251.022,-25.2361 L 251.644,-24.6765 L 252.135,-24 L 252.476,-23.2361 L 252.649,-22.4181
 L 252.649,-21.5819 L 252.476,-20.7639 L 252.135,-20 L 251.644,-19.3235 L 251.022,-18.7639 L 250.298,-18.3458
 L 249.503,-18.0874 L 248.671,-18 z
M 541.329,-18 L 540.497,-18.0874 L 539.702,-18.3458 L 538.978,-18.7639 L 538.356,-19.3235 L 537.865,-20
 L 537.524,-20.7639 L 537.351,-21.5819 L 537.351,-22.4181 L 537.524,-23.2361 L 537.865,-24 L 538.356,-24.6765
 L 538.978,-25.2361 L 539.722,-25.663 L 612.893,-57.764 L 613.69,-58.018 L 614.522,-58.1009 L 615.353,-58.009
 L 616.147,-57.7462 L 616.869,-57.3242 L 617.487,-56.7612 L 617.975,-56.082 L 618.311,-55.3163 L 618.5,-54.101
 L 618.5,-22 L 618.413,-21.1684 L 618.154,-20.373 L 617.736,-19.6489 L 617.177,-19.0274 L 616.5,-18.5359
 L 615.736,-18.1958 L 614.5,-18 z
M 22,-18 L 20.7639,-18.1958 L 20,-18.5359 L 19.3235,-19.0274 L 18.7639,-19.6489 L 18.3458,-20.373
 L 18.0874,-21.1684 L 18,-22 L 18,-53.4429 L 18.1891,-54.6582 L 18.525,-55.424 L 19.0129,-56.1032
 L 19.6312,-56.6661 L 20.3531,-57.0882 L 21.147,-57.3509 L 21.9782,-57.4428 L 22.8103,-57.36 L 23.607,-57.1059
 L 95.2783,-25.663 L 96.0225,-25.2361 L 96.6439,-24.6765 L 97.1354,-24 L 97.4756,-23.2361 L 97.6494,-22.4181
 L 97.6494,-21.5819 L 97.4756,-20.7639 L 97.1354,-20 L 96.6439,-19.3235 L 96.0225,-18.7639 L 95.2983,-18.3458
 L 94.503,-18.0874 L 93.6713,-18 z
M 696.329,-18 L 695.497,-18.0874 L 694.702,-18.3458 L 693.978,-18.7639 L 693.356,-19.3235 L 692.865,-20
 L 692.524,-20.7639 L 692.351,-21.5819 L 692.351,-22.4181 L 692.524,-23.2361 L 692.865,-24 L 693.356,-24.6765
 L 693.978,-25.2361 L 694.722,-25.663 L 766.393,-57.1059 L 767.19,-57.36 L 768.022,-57.4428 L 768.853,-57.3509
 L 769.647,-57.0882 L 770.369,-56.6661 L 770.987,-56.1032 L 771.475,-55.424 L 771.811,-54.6582 L 772,-53.4429
 L 772,-22 L 771.913,-21.1684 L 771.654,-20.373 L 771.236,-19.6489 L 770.677,-19.0274 L 770,-18.5359
 L 769.236,-18.1958 L 768,-18 z
M 381.35,-18 L 380.498,-18.092 L 379.704,-18.3548 L 378.982,-18.7768 L 378.363,-19.3397 L 377.876,-20.0189
 L 377.54,-20.7847 L 377.37,-21.6036 L 377.375,-22.4398 L 377.553,-23.2568 L 377.897,-24.0189 L 378.393,-24.6927
 L 379.017,-25.2488 L 379.743,-25.663 L 393.393,-31.6512 L 394.147,-31.8962 L 394.978,-31.9881 L 395.81,-31.9052
 L 396.607,-31.6512 L 410.257,-25.663 L 411.001,-25.2361 L 411.622,-24.6765 L 412.114,-24 L 412.454,-23.2361
 L 412.628,-22.4181 L 412.628,-21.5819 L 412.454,-20.7639 L 412.114,-20 L 411.622,-19.3235 L 411.001,-18.7639
 L 410.276,-18.3458 L 409.481,-18.0874 L 408.65,-18 z
" stroke="black" fill="lightgray" stroke-width="0.5"/>
</svg>
