<?xml version="1.0" standalone="no"?>
<!DOCTYPE svg PUBLIC "-//W3C//DTD SVG 1.1//EN" "http://www.w3.org/Graphics/SVG/1.1/DTD/svg11.dtd">
<svg width="756mm" height="80mm" viewBox="0 -80 756 80" xmlns="http://www.w3.org/2000/svg" version="1.1">
<title>OpenSCAD Model</title>
<path d="
M 756,-80 L 0,-80 L 0,-0 L 4.95,-0 L 4.95,-6 L 5.00572,-6.53017
 L 5.17046,-7.03717 L 5.437,-7.49884 L 5.79372,-7.895 L 6.22499,-8.20836 L 6.71201,-8.42519 L 7.23344,-8.53603
 L 7.76654,-8.53603 L 8.28798,-8.42519 L 8.77499,-8.20836 L 9.20627,-7.895 L 9.56299,-7.49884 L 9.82953,-7.03717
 L 9.99426,-6.53017 L 10.05,-6 L 10.05,-0 L 153.15,-0 L 153.15,-6 L 153.206,-6.53017
 L 153.37,-7.03717 L 153.637,-7.49884 L 153.994,-7.895 L 154.425,-8.20836 L 154.912,-8.42519 L 155.433,-8.53603
 L 155.967,-8.53603 L 156.488,-8.42519 L 156.975,-8.20836 L 157.406,-7.895 L 157.763,-7.49884 L 158.03,-7.03717
 L 158.194,-6.53017 L 158.25,-6 L 158.25,-0 L 301.35,-0 L 301.35,-6 L 301.406,-6.53017
 L 301.57,-7.03717 L 301.837,-7.49884 L 302.194,-7.895 L 302.625,-8.20836 L 303.112,-8.42519 L 303.633,-8.53603
 L 304.167,-8.53603 L 304.688,-8.42519 L 305.175,-8.20836 L 305.606,-7.895 L 305.963,-7.49884 L 306.23,-7.03717
 L 306.394,-6.53017 L 306.45,-6 L 306.45,-0 L 449.55,-0 L 449.55,-6 L 449.606,-6.53017
 L 449.77,-7.03717 L 450.037,-7.49884 L 450.394,-7.895 L 450.825,-8.20836 L 451.312,-8.42519 L 451.833,-8.53603
 L 452.367,-8.53603 L 452.888,-8.42519 L 453.375,-8.20836 L 453.806,-7.895 L 454.163,-7.49884 L 454.43,-7.03717
 L 454.594,-6.53017 L 454.65,-6 L 454.65,-0 L 597.75,-0 L 597.75,-6 L 597.806,-6.53017
 L 597.97,-7.03717 L 598.237,-7.49884 L 598.594,-7.895 L 599.025,-8.20836 L 599.512,-8.42519 L 600.033,-8.53603
 L 600.567,-8.53603 L 601.088,-8.42519 L 601.575,-8.20836 L 602.006,-7.895 L 602.363,-7.49884 L 602.63,-7.03717
 L 602.794,-6.53017 L 602.85,-6 L 602.85,-0 L 745.95,-0 L 745.95,-6 L 746.006,-6.53017
 L 746.17,-7.03717 L 746.437,-7.49884 L 746.794,-7.895 L 747.225,-8.20836 L 747.712,-8.42519 L 748.233,-8.53603
 L 748.767,-8.53603 L 749.288,-8.42519 L 749.775,-8.20836 L 750.206,-7.895 L 750.563,-7.49884 L 750.83,-7.03717
 L 750.994,-6.53017 L 751.05,-6 L 751.05,-0 L 756,-0 z
M 6.98573,-55.607 L 6.47708,-55.6875 L 5.97964,-55.8208 L 5.49887,-56.0054 L 5.04001,-56.2392 L 4.60811,-56.5196
 L 4.20789,-56.8437 L 3.84373,-57.2079 L 3.51964,-57.6081 L 3.23917,-58.04 L 3.00537,-58.4989 L 2.82082,-58.9796
 L 2.68752,-59.4771 L 2.60696,-59.9857 L 2.58,-60.5 L 2.60696,-61.0143 L 2.68752,-61.5229 L 2.82082,-62.0204
 L 3.00537,-62.5011 L 3.23917,-62.96 L 3.51964,-63.3919 L 3.84373,-63.7921 L 4.20789,-64.1563 L 4.60811,-64.4804
 L 4.95001,-64.7024 L 4.95001,-74 L 5.00574,-74.5302 L 5.17047,-75.0372 L 5.43701,-75.4988 L 5.79373,-75.895
 L 6.22501,-76.2084 L 6.71202,-76.4252 L 7.23346,-76.536 L 7.76654,-76.536 L 8.28798,-76.4252 L 8.77499,-76.2084
 L 9.20627,-75.895 L 9.56299,-75.4988 L 9.82953,-75.0372 L 9.99426,-74.5302 L 10.05,-74 L 10.05,-64.7024
 L 10.3919,-64.4804 L 10.7921,-64.1563 L 11.1563,-63.7921 L 11.4804,-63.3919 L 11.7608,-62.96 L 11.9946,-62.5011
 L 12.1792,-62.0204 L 12.3125,-61.5229 L 12.393,-61.0143 L 12.42,-60.5 L 12.393,-59.9857 L 12.3125,-59.4771
 L 12.1792,-58.9796 L 11.9946,-58.4989 L 11.7608,-58.04 L 11.4804,-57.6081 L 11.1563,-57.2079 L 10.7921,-56.8437
 L 10.3919,-56.5196 L 9.95999,-56.2392 L 9.50113,-56.0054 L 9.02036,-55.8208 L 8.52292,-55.6875 L 8.01427,-55.607
 L 7.5,-55.58 z
M 155.186,-55.607 L 154.677,-55.6875 L 154.18,-55.8208 L 153.699,-56.0054 L 153.24,-56.2392 L 152.808,-56.5196
 L 152.408,-56.8437 L 152.044,-57.2079 L 151.72,-57.6081 L 151.439,-58.04 L 151.205,-58.4989 L 151.021,-58.9796
 L 150.888,-59.4771 L 150.807,-59.9857 L 150.78,-60.5 L 150.807,-61.0143 L 150.888,-61.5229 L 151.021,-62.0204
 L 151.205,-62.5011 L 151.439,-62.96 L 151.72,-63.3919 L 152.044,-63.7921 L 152.408,-64.1563 L 152.808,-64.4804
 L 153.15,-64.7024 L 153.15,-74 L 153.206,-74.5302 L 153.37,-75.0372 L 153.637,-75.4988 L 153.994,-75.895
 L 154.425,-76.2084 L 154.912,-76.4252 L 155.433,-76.536 L 155.967,-76.536 L 156.488,-76.4252 L 156.975,-76.2084
 L 157.406,-75.895 L 157.763,-75.4988 L 158.03,-75.0372 L 158.194,-74.5302 L 158.25,-74 L 158.25,-64.7024
 L 158.592,-64.4804 L 158.992,-64.1563 L 159.356,-63.7921 L 159.68,-63.3919 L 159.961,-62.96 L 160.195,-62.5011
 L 160.379,-62.0204 L 160.512,-61.5229 L 160.593,-61.0143 L 160.62,-60.5 L 160.593,-59.9857 L 160.512,-59.4771
 L 160.379,-58.9796 L 160.195,-58.4989 L 159.961,-58.04 L 159.68,-57.6081 L 159.356,-57.2079 L 158.992,-56.8437
 L 158.592,-56.5196 L 158.16,-56.2392 L 157.701,-56.0054 L 157.22,-55.8208 L 156.723,-55.6875 L 156.214,-55.607
 L 155.7,-55.58 z
M 303.386,-55.607 L 302.877,-55.6875 L 302.38,-55.8208 L 301.899,-56.0054 L 301.44,-56.2392 L 301.008,-56.5196
 L 300.608,-56.8437 L 300.244,-57.2079 L 299.92,-57.6081 L 299.639,-58.04 L 299.405,-58.4989 L 299.221,-58.9796
 L 299.088,-59.4771 L 299.007,-59.9857 L 298.98,-60.5 L 299.007,-61.0143 L 299.088,-61.5229 L 299.221,-62.0204
 L 299.405,-62.5011 L 299.639,-62.96 L 299.92,-63.3919 L 300.244,-63.7921 L 300.608,-64.1563 L 301.008,-64.4804
 L 301.35,-64.7024 L 301.35,-74 L 301.406,-74.5302 L 301.57,-75.0372 L 301.837,-75.4988 L 302.194,-75.895
 L 302.625,-76.2084 L 303.112,-76.4252 L 303.633,-76.536 L 304.167,-76.536 L 304.688,-76.4252 L 305.175,-76.2084
 L 305.606,-75.895 L 305.963,-75.4988 L 306.23,-75.0372 L 306.394,-74.5302 L 306.45,-74 L 306.45,-64.7024
 L 306.792,-64.4804 L 307.192,-64.1563 L 307.556,-63.7921 L 307.88,-63.3919 L 308.161,-62.96 L 308.395,-62.5011
 L 308.579,-62.0204 L 308.712,-61.5229 L 308.793,-61.0143 L 308.82,-60.5 L 308.793,-59.9857 L 308.712,-59.4771
 L 308.579,-58.9796 L 308.395,-58.4989 L 308.161,-58.04 L 307.88,-57.6081 L 307.556,-57.2079 L 307.192,-56.8437
 L 306.792,-56.5196 L 306.36,-56.2392 L 305.901,-56.0054 L 305.42,-55.8208 L 304.923,-55.6875 L 304.414,-55.607
 L 303.9,-55.58 z
M 451.586,-55.607 L 451.077,-55.6875 L 450.58,-55.8208 L 450.099,-56.0054 L 449.64,-56.2392 L 449.208,-56.5196
 L 448.808,-56.8437 L 448.444,-57.2079 L 448.12,-57.6081 L 447.839,-58.04 L 447.605,-58.4989 L 447.421,-58.9796
 L 447.288,-59.4771 L 447.207,-59.9857 L 447.18,-60.5 L 447.207,-61.0143 L 447.288,-61.5229 L 447.421,-62.0204
 L 447.605,-62.5011 L 447.839,-62.96 L 448.12,-63.3919 L 448.444,-63.7921 L 448.808,-64.1563 L 449.208,-64.4804
 L 449.55,-64.7024 L 449.55,-74 L 449.606,-74.5302 L 449.77,-75.0372 L 450.037,-75.4988 L 450.394,-75.895
 L 450.825,-76.2084 L 451.312,-76.4252 L 451.833,-76.536 L 452.367,-76.536 L 452.888,-76.4252 L 453.375,-76.2084
 L 453.806,-75.895 L 454.163,-75.4988 L 454.43,-75.0372 L 454.594,-74.5302 L 454.65,-74 L 454.65,-64.7024
 L 454.992,-64.4804 L 455.392,-64.1563 L 455.756,-63.7921 L 456.08,-63.3919 L 456.361,-62.96 L 456.595,-62.5011
 L 456.779,-62.0204 L 456.912,-61.5229 L 456.993,-61.0143 L 457.02,-60.5 L 456.993,-59.9857 L 456.912,-59.4771
 L 456.779,-58.9796 L 456.595,-58.4989 L 456.361,-58.04 L 456.08,-57.6081 L 455.756,-57.2079 L 455.392,-56.8437
 L 454.992,-56.5196 L 454.56,-56.2392 L 454.101,-56.0054 L 453.62,-55.8208 L 453.123,-55.6875 L 452.614,-55.607
 L 452.1,-55.58 z
M 599.786,-55.607 L 599.277,-55.6875 L 598.78,-55.8208 L 598.299,-56.0054 L 597.84,-56.2392 L 597.408,-56.5196
 L 597.008,-56.8437 L 596.644,-57.2079 L 596.32,-57.6081 L 596.039,-58.04 L 595.805,-58.4989 L 595.621,-58.9796
 L 595.488,-59.4771 L 595.407,-59.9857 L 595.38,-60.5 L 595.407,-61.0143 L 595.488,-61.5229 L 595.621,-62.0204
 L 595.805,-62.5011 L 596.039,-62.96 L 596.32,-63.3919 L 596.644,-63.7921 L 597.008,-64.1563 L 597.408,-64.4804
 L 597.75,-64.7024 L 597.75,-74 L 597.806,-74.5302 L 597.97,-75.0372 L 598.237,-75.4988 L 598.594,-75.895
 L 599.025,-76.2084 L 599.512,-76.4252 L 600.033,-76.536 L 600.567,-76.536 L 601.088,-76.4252 L 601.575,-76.2084
 L 602.006,-75.895 L 602.363,-75.4988 L 602.63,-75.0372 L 602.794,-74.5302 L 602.85,-74 L 602.85,-64.7024
 L 603.192,-64.4804 L 603.592,-64.1563 L 603.956,-63.7921 L 604.28,-63.3919 L 604.561,-62.96 L 604.795,-62.5011
 L 604.979,-62.0204 L 605.112,-61.5229 L 605.193,-61.0143 L 605.22,-60.5 L 605.193,-59.9857 L 605.112,-59.4771
 L 604.979,-58.9796 L 604.795,-58.4989 L 604.561,-58.04 L 604.28,-57.6081 L 603.956,-57.2079 L 603.592,-56.8437
 L 603.192,-56.5196 L 602.76,-56.2392 L 602.301,-56.0054 L 601.82,-55.8208 L 601.323,-55.6875 L 600.814,-55.607
 L 600.3,-55.58 z
M 747.986,-55.607 L 747.477,-55.6875 L 746.98,-55.8208 L 746.499,-56.0054 L 746.04,-56.2392 L 745.608,-56.5196
 L 745.208,-56.8437 L 744.844,-57.2079 L 744.52,-57.6081 L 744.239,-58.04 L 744.005,-58.4989 L 743.821,-58.9796
 L 743.688,-59.4771 L 743.607,-59.9857 L 743.58,-60.5 L 743.607,-61.0143 L 743.688,-61.5229 L 743.821,-62.0204
 L 744.005,-62.5011 L 744.239,-62.96 L 744.52,-63.3919 L 744.844,-63.7921 L 745.208,-64.1563 L 745.608,-64.4804
 L 745.95,-64.7024 L 745.95,-74 L 746.006,-74.5302 L 746.17,-75.0372 L 746.437,-75.4988 L 746.794,-75.895
 L 747.225,-76.2084 L 747.712,-76.4252 L 748.233,-76.536 L 748.767,-76.536 L 749.288,-76.4252 L 749.775,-76.2084
 L 750.206,-75.895 L 750.563,-75.4988 L 750.83,-75.0372 L 750.994,-74.5302 L 751.05,-74 L 751.05,-64.7024
 L 751.392,-64.4804 L 751.792,-64.1563 L 752.156,-63.7921 L 752.48,-63.3919 L 752.761,-62.96 L 752.995,-62.5011
 L 753.179,-62.0204 L 753.312,-61.5229 L 753.393,-61.0143 L 753.42,-60.5 L 753.393,-59.9857 L 753.312,-59.4771
 L 753.179,-58.9796 L 752.995,-58.4989 L 752.761,-58.04 L 752.48,-57.6081 L 752.156,-57.2079 L 751.792,-56.8437
 L 751.392,-56.5196 L 750.96,-56.2392 L 750.501,-56.0054 L 750.02,-55.8208 L 749.523,-55.6875 L 749.014,-55.607
 L 748.5,-55.58 z
M 377.124,-48.199 L 376.332,-48.4663 L 363.477,-54.3644 L 362.794,-54.7639 L 362.173,-55.3235 L 361.681,-56
 L 361.341,-56.7639 L 361.167,-57.5819 L 361.167,-58.4181 L 361.341,-59.2361 L 361.681,-60 L 362.173,-60.6765
 L 362.794,-61.2361 L 363.519,-61.6542 L 364.314,-61.9126 L 365.146,-62 L 390.854,-62 L 391.642,-61.9217
 L 392.44,-61.6723 L 393.169,-61.2624 L 393.797,-60.7099 L 394.296,-60.039 L 394.644,-59.279 L 394.827,-58.463
 L 394.837,-57.6269 L 394.672,-56.807 L 394.341,-56.0393 L 393.857,-55.3572 L 393.242,-54.7907 L 392.523,-54.3644
 L 379.668,-48.4663 L 378.787,-48.1802 L 377.955,-48.1022 z
M 290.024,-22.3642 L 289.232,-22.6316 L 220.073,-54.3644 L 219.39,-54.7639 L 218.768,-55.3235 L 218.277,-56
 L 217.937,-56.7639 L 217.763,-57.5819 L 217.763,-58.4181 L 217.937,-59.2361 L 218.277,-60 L 218.768,-60.6765
 L 219.39,-61.2361 L 220.114,-61.6542 L 220.909,-61.9126 L 221.741,-62 L 290.9,-62 L 292.136,-61.8042
 L 292.9,-61.4641 L 293.577,-60.9726 L 294.136,-60.3511 L 294.554,-59.627 L 294.813,-58.8316 L 294.9,-58
 L 294.9,-26.2671 L 294.873,-25.8041 L 294.69,-24.9882 L 294.341,-24.2281 L 293.842,-23.5572 L 293.214,-23.0047
 L 292.486,-22.5948 L 291.687,-22.3454 L 290.855,-22.2674 z
M 612.513,-22.3454 L 611.714,-22.5948 L 610.986,-23.0047 L 610.358,-23.5572 L 609.859,-24.2281 L 609.51,-24.9882
 L 609.327,-25.8041 L 609.3,-26.2671 L 609.3,-58 L 609.387,-58.8316 L 609.646,-59.627 L 610.064,-60.3511
 L 610.623,-60.9726 L 611.3,-61.4641 L 612.064,-61.8042 L 613.3,-62 L 682.459,-62 L 683.291,-61.9126
 L 684.086,-61.6542 L 684.81,-61.2361 L 685.432,-60.6765 L 685.923,-60 L 686.263,-59.2361 L 686.437,-58.4181
 L 686.437,-57.5819 L 686.263,-56.7639 L 685.923,-56 L 685.432,-55.3235 L 684.81,-54.7639 L 684.127,-54.3644
 L 614.968,-22.6316 L 614.176,-22.3642 L 613.345,-22.2674 z
M 141.824,-22.3642 L 141.032,-22.6316 L 71.8729,-54.3644 L 71.1899,-54.7639 L 70.5685,-55.3235 L 70.0769,-56
 L 69.7368,-56.7639 L 69.5629,-57.5819 L 69.5629,-58.4181 L 69.7368,-59.2361 L 70.0769,-60 L 70.5685,-60.6765
 L 71.1899,-61.2361 L 71.9141,-61.6542 L 72.7094,-61.9126 L 73.541,-62 L 142.7,-62 L 143.936,-61.8042
 L 144.7,-61.4641 L 145.377,-60.9726 L 145.936,-60.3511 L 146.354,-59.627 L 146.613,-58.8316 L 146.7,-58
 L 146.7,-26.2671 L 146.673,-25.8041 L 146.49,-24.9882 L 146.141,-24.2281 L 145.642,-23.5572 L 145.014,-23.0047
 L 144.286,-22.5948 L 143.487,-22.3454 L 142.655,-22.2674 z
M 464.313,-22.3454 L 463.514,-22.5948 L 462.786,-23.0047 L 462.158,-23.5572 L 461.659,-24.2281 L 461.31,-24.9882
 L 461.127,-25.8041 L 461.1,-26.2671 L 461.1,-58 L 461.187,-58.8316 L 461.446,-59.627 L 461.864,-60.3511
 L 462.423,-60.9726 L 463.1,-61.4641 L 463.864,-61.8042 L 465.1,-62 L 534.259,-62 L 535.091,-61.9126
 L 535.886,-61.6542 L 536.61,-61.2361 L 537.232,-60.6765 L 537.723,-60 L 538.063,-59.2361 L 538.237,-58.4181
 L 538.237,-57.5819 L 538.063,-56.7639 L 537.723,-56 L 537.232,-55.3235 L 536.61,-54.7639 L 535.927,-54.3644
 L 466.768,-22.6316 L 465.976,-22.3642 L 465.145,-22.2674 z
M 316.482,-20.0887 L 315.664,-20.2626 L 314.9,-20.6027 L 314.223,-21.0942 L 313.664,-21.7157 L 313.246,-22.4399
 L 312.987,-23.2352 L 312.9,-24.0668 L 312.9,-55.9332 L 312.927,-56.3962 L 313.11,-57.2122 L 313.459,-57.9722
 L 313.958,-58.6431 L 314.586,-59.1956 L 315.314,-59.6055 L 316.113,-59.8549 L 316.945,-59.9329 L 317.776,-59.8361
 L 318.568,-59.5687 L 353.293,-43.6356 L 353.939,-43.2624 L 354.567,-42.7099 L 355.066,-42.039 L 355.415,-41.279
 L 355.598,-40.463 L 355.608,-39.6269 L 355.443,-38.807 L 355.111,-38.0393 L 354.628,-37.3572 L 354.013,-36.7907
 L 353.293,-36.3644 L 318.568,-20.4313 L 318.136,-20.2626 L 317.318,-20.0887 z
M 438.224,-20.1639 L 437.432,-20.4312 L 402.707,-36.3644 L 402.061,-36.7376 L 401.433,-37.2901 L 400.934,-37.961
 L 400.585,-38.721 L 400.402,-39.537 L 400.392,-40.3731 L 400.557,-41.193 L 400.889,-41.9607 L 401.372,-42.6428
 L 401.987,-43.2093 L 402.707,-43.6356 L 437.432,-59.5688 L 437.864,-59.7374 L 438.682,-59.9113 L 439.518,-59.9113
 L 440.336,-59.7374 L 441.1,-59.3973 L 441.777,-58.9058 L 442.336,-58.2843 L 442.754,-57.5602 L 443.013,-56.7648
 L 443.1,-55.9332 L 443.1,-24.0668 L 443.073,-23.6038 L 442.89,-22.7878 L 442.541,-22.0278 L 442.042,-21.3569
 L 441.414,-20.8044 L 440.686,-20.3945 L 439.887,-20.1451 L 439.055,-20.0671 z
M 168.7,-18 L 167.464,-18.1958 L 166.7,-18.5359 L 166.023,-19.0274 L 165.464,-19.6489 L 165.046,-20.373
 L 164.787,-21.1684 L 164.7,-22 L 164.7,-53.7328 L 164.727,-54.1959 L 164.91,-55.0118 L 165.259,-55.7719
 L 165.758,-56.4428 L 166.386,-56.9953 L 167.114,-57.4052 L 167.913,-57.6546 L 168.745,-57.7326 L 169.576,-57.6358
 L 170.368,-57.3684 L 239.527,-25.6356 L 240.21,-25.2361 L 240.832,-24.6765 L 241.323,-24 L 241.663,-23.2361
 L 241.837,-22.4181 L 241.837,-21.5819 L 241.663,-20.7639 L 241.323,-20 L 240.832,-19.3235 L 240.21,-18.7639
 L 239.486,-18.3458 L 238.691,-18.0874 L 237.859,-18 z
M 518.141,-18 L 517.309,-18.0874 L 516.514,-18.3458 L 515.79,-18.7639 L 515.168,-19.3235 L 514.677,-20
 L 514.337,-20.7639 L 514.163,-21.5819 L 514.163,-22.4181 L 514.337,-23.2361 L 514.677,-24 L 515.168,-24.6765
 L 515.79,-25.2361 L 516.473,-25.6356 L 585.632,-57.3684 L 586.424,-57.6358 L 587.255,-57.7326 L 588.087,-57.6546
 L 588.886,-57.4052 L 589.614,-56.9953 L 590.242,-56.4428 L 590.741,-55.7719 L 591.09,-55.0118 L 591.273,-54.1959
 L 591.3,-53.7328 L 591.3,-22 L 591.213,-21.1684 L 590.954,-20.373 L 590.536,-19.6489 L 589.977,-19.0274
 L 589.3,-18.5359 L 588.536,-18.1958 L 587.3,-18 z
M 22,-18 L 20.7639,-18.1958 L 20,-18.5359 L 19.3235,-19.0274 L 18.7639,-19.6489 L 18.3458,-20.373
 L 18.0874,-21.1684 L 18,-22 L 18,-53.0446 L 18.0269,-53.5076 L 18.21,-54.3236 L 18.5587,-55.0836
 L 19.0579,-55.7545 L 19.6856,-56.307 L 20.4145,-56.7169 L 21.2126,-56.9663 L 22.0452,-57.0443 L 22.8758,-56.9475
 L 23.6681,-56.6801 L 91.3271,-25.6356 L 92.0101,-25.2361 L 92.6315,-24.6765 L 93.123,-24 L 93.4632,-23.2361
 L 93.637,-22.4181 L 93.637,-21.5819 L 93.4632,-20.7639 L 93.123,-20 L 92.6315,-19.3235 L 92.0101,-18.7639
 L 91.2859,-18.3458 L 90.4906,-18.0874 L 89.659,-18 z
M 666.341,-18 L 665.509,-18.0874 L 664.714,-18.3458 L 663.99,-18.7639 L 663.368,-19.3235 L 662.877,-20
 L 662.537,-20.7639 L 662.363,-21.5819 L 662.363,-22.4181 L 662.537,-23.2361 L 662.877,-24 L 663.368,-24.6765
 L 663.99,-25.2361 L 664.673,-25.6356 L 732.332,-56.6801 L 733.124,-56.9475 L 733.955,-57.0443 L 734.787,-56.9663
 L 735.586,-56.7169 L 736.314,-56.307 L 736.942,-55.7545 L 737.441,-55.0836 L 737.79,-54.3236 L 737.973,-53.5076
 L 738,-53.0446 L 738,-22 L 737.913,-21.1684 L 737.654,-20.373 L 737.236,-19.6489 L 736.677,-19.0274
 L 736,-18.5359 L 735.236,-18.1958 L 734,-18 z
M 365.146,-18 L 364.358,-18.0783 L 363.56,-18.3277 L 362.831,-18.7376 L 362.203,-19.2901 L 361.704,-19.961
 L 361.356,-20.721 L 361.172,-21.537 L 361.163,-22.3731 L 361.328,-23.193 L 361.659,-23.9607 L 362.143,-24.6428
 L 362.758,-25.2093 L 363.477,-25.6356 L 376.332,-31.5337 L 377.213,-31.8198 L 378.045,-31.8978 L 378.876,-31.801
 L 379.668,-31.5337 L 392.523,-25.6356 L 393.206,-25.2361 L 393.827,-24.6765 L 394.318,-24 L 394.659,-23.2361
 L 394.832,-22.4181 L 394.832,-21.5819 L 394.659,-20.7639 L 394.318,-20 L 393.827,-19.3235 L 393.206,-18.7639
 L 392.481,-18.3458 L 391.686,-18.0874 L 390.854,-18 z
" stroke="black" fill="lightgray" stroke-width="0.5"/>
</svg>
