<?xml version="1.0" standalone="no"?>
<!DOCTYPE svg PUBLIC "-//W3C//DTD SVG 1.1//EN" "http://www.w3.org/Graphics/SVG/1.1/DTD/svg11.dtd">
<svg width="745mm" height="80mm" viewBox="0 -80 745 80" xmlns="http://www.w3.org/2000/svg" version="1.1">
<title>OpenSCAD Model</title>
<path d="
M 745,-80 L 0,-80 L 0,-0 L 4.95,-0 L 4.95,-6 L 5.00572,-6.53017
 L 5.17046,-7.03717 L 5.437,-7.49884 L 5.79372,-7.895 L 6.22499,-8.20836 L 6.71201,-8.42519 L 7.23344,-8.53603
 L 7.76654,-8.53603 L 8.28798,-8.42519 L 8.77499,-8.20836 L 9.20627,-7.895 L 9.56299,-7.49884 L 9.82953,-7.03717
 L 9.99426,-6.53017 L 10.05,-6 L 10.05,-0 L 150.95,-0 L 150.95,-6 L 151.006,-6.53017
 L 151.17,-7.03717 L 151.437,-7.49884 L 151.794,-7.895 L 152.225,-8.20836 L 152.712,-8.42519 L 153.233,-8.53603
 L 153.767,-8.53603 L 154.288,-8.42519 L 154.775,-8.20836 L 155.206,-7.895 L 155.563,-7.49884 L 155.83,-7.03717
 L 155.994,-6.53017 L 156.05,-6 L 156.05,-0 L 296.95,-0 L 296.95,-6 L 297.006,-6.53017
 L 297.17,-7.03717 L 297.437,-7.49884 L 297.794,-7.895 L 298.225,-8.20836 L 298.712,-8.42519 L 299.233,-8.53603
 L 299.767,-8.53603 L 300.288,-8.42519 L 300.775,-8.20836 L 301.206,-7.895 L 301.563,-7.49884 L 301.83,-7.03717
 L 301.994,-6.53017 L 302.05,-6 L 302.05,-0 L 442.95,-0 L 442.95,-6 L 443.006,-6.53017
 L 443.17,-7.03717 L 443.437,-7.49884 L 443.794,-7.895 L 444.225,-8.20836 L 444.712,-8.42519 L 445.233,-8.53603
 L 445.767,-8.53603 L 446.288,-8.42519 L 446.775,-8.20836 L 447.206,-7.895 L 447.563,-7.49884 L 447.83,-7.03717
 L 447.994,-6.53017 L 448.05,-6 L 448.05,-0 L 588.95,-0 L 588.95,-6 L 589.006,-6.53017
 L 589.17,-7.03717 L 589.437,-7.49884 L 589.794,-7.895 L 590.225,-8.20836 L 590.712,-8.42519 L 591.233,-8.53603
 L 591.767,-8.53603 L 592.288,-8.42519 L 592.775,-8.20836 L 593.206,-7.895 L 593.563,-7.49884 L 593.83,-7.03717
 L 593.994,-6.53017 L 594.05,-6 L 594.05,-0 L 734.95,-0 L 734.95,-6 L 735.006,-6.53017
 L 735.17,-7.03717 L 735.437,-7.49884 L 735.794,-7.895 L 736.225,-8.20836 L 736.712,-8.42519 L 737.233,-8.53603
 L 737.767,-8.53603 L 738.288,-8.42519 L 738.775,-8.20836 L 739.206,-7.895 L 739.563,-7.49884 L 739.83,-7.03717
 L 739.994,-6.53017 L 740.05,-6 L 740.05,-0 L 745,-0 z
M 6.98573,-55.607 L 6.47708,-55.6875 L 5.97964,-55.8208 L 5.49887,-56.0054 L 5.04001,-56.2392 L 4.60811,-56.5196
 L 4.20789,-56.8437 L 3.84373,-57.2079 L 3.51964,-57.6081 L 3.23917,-58.04 L 3.00537,-58.4989 L 2.82082,-58.9796
 L 2.68752,-59.4771 L 2.60696,-59.9857 L 2.58,-60.5 L 2.60696,-61.0143 L 2.68752,-61.5229 L 2.82082,-62.0204
 L 3.00537,-62.5011 L 3.23917,-62.96 L 3.51964,-63.3919 L 3.84373,-63.7921 L 4.20789,-64.1563 L 4.60811,-64.4804
 L 4.95001,-64.7024 L 4.95001,-74 L 5.00574,-74.5302 L 5.17047,-75.0372 L 5.43701,-75.4988 L 5.79373,-75.895
 L 6.22501,-76.2084 L 6.71202,-76.4252 L 7.23346,-76.536 L 7.76654,-76.536 L 8.28798,-76.4252 L 8.77499,-76.2084
 L 9.20627,-75.895 L 9.56299,-75.4988 L 9.82953,-75.0372 L 9.99426,-74.5302 L 10.05,-74 L 10.05,-64.7024
 L 10.3919,-64.4804 L 10.7921,-64.1563 L 11.1563,-63.7921 L 11.4804,-63.3919 L 11.7608,-62.96 L 11.9946,-62.5011
 L 12.1792,-62.0204 L 12.3125,-61.5229 L 12.393,-61.0143 L 12.42,-60.5 L 12.393,-59.9857 L 12.3125,-59.4771
 L 12.1792,-58.9796 L 11.9946,-58.4989 L 11.7608,-58.04 L 11.4804,-57.6081 L 11.1563,-57.2079 L 10.7921,-56.8437
 L 10.3919,-56.5196 L 9.95999,-56.2392 L 9.50113,-56.0054 L 9.02036,-55.8208 L 8.52292,-55.6875 L 8.01427,-55.607
 L 7.5,-55.58 z
M 152.986,-55.607 L 152.477,-55.6875 L 151.98,-55.8208 L 151.499,-56.0054 L 151.04,-56.2392 L 150.608,-56.5196
 L 150.208,-56.8437 L 149.844,-57.2079 L 149.52,-57.6081 L 149.239,-58.04 L 149.005,-58.4989 L 148.821,-58.9796
 L 148.688,-59.4771 L 148.607,-59.9857 L 148.58,-60.5 L 148.607,-61.0143 L 148.688,-61.5229 L 148.821,-62.0204
 L 149.005,-62.5011 L 149.239,-62.96 L 149.52,-63.3919 L 149.844,-63.7921 L 150.208,-64.1563 L 150.608,-64.4804
 L 150.95,-64.7024 L 150.95,-74 L 151.006,-74.5302 L 151.17,-75.0372 L 151.437,-75.4988 L 151.794,-75.895
 L 152.225,-76.2084 L 152.712,-76.4252 L 153.233,-76.536 L 153.767,-76.536 L 154.288,-76.4252 L 154.775,-76.2084
 L 155.206,-75.895 L 155.563,-75.4988 L 155.83,-75.0372 L 155.994,-74.5302 L 156.05,-74 L 156.05,-64.7024
 L 156.392,-64.4804 L 156.792,-64.1563 L 157.156,-63.7921 L 157.48,-63.3919 L 157.761,-62.96 L 157.995,-62.5011
 L 158.179,-62.0204 L 158.312,-61.5229 L 158.393,-61.0143 L 158.42,-60.5 L 158.393,-59.9857 L 158.312,-59.4771
 L 158.179,-58.9796 L 157.995,-58.4989 L 157.761,-58.04 L 157.48,-57.6081 L 157.156,-57.2079 L 156.792,-56.8437
 L 156.392,-56.5196 L 155.96,-56.2392 L 155.501,-56.0054 L 155.02,-55.8208 L 154.523,-55.6875 L 154.014,-55.607
 L 153.5,-55.58 z
M 298.986,-55.607 L 298.477,-55.6875 L 297.98,-55.8208 L 297.499,-56.0054 L 297.04,-56.2392 L 296.608,-56.5196
 L 296.208,-56.8437 L 295.844,-57.2079 L 295.52,-57.6081 L 295.239,-58.04 L 295.005,-58.4989 L 294.821,-58.9796
 L 294.688,-59.4771 L 294.607,-59.9857 L 294.58,-60.5 L 294.607,-61.0143 L 294.688,-61.5229 L 294.821,-62.0204
 L 295.005,-62.5011 L 295.239,-62.96 L 295.52,-63.3919 L 295.844,-63.7921 L 296.208,-64.1563 L 296.608,-64.4804
 L 296.95,-64.7024 L 296.95,-74 L 297.006,-74.5302 L 297.17,-75.0372 L 297.437,-75.4988 L 297.794,-75.895
 L 298.225,-76.2084 L 298.712,-76.4252 L 299.233,-76.536 L 299.767,-76.536 L 300.288,-76.4252 L 300.775,-76.2084
 L 301.206,-75.895 L 301.563,-75.4988 L 301.83,-75.0372 L 301.994,-74.5302 L 302.05,-74 L 302.05,-64.7024
 L 302.392,-64.4804 L 302.792,-64.1563 L 303.156,-63.7921 L 303.48,-63.3919 L 303.761,-62.96 L 303.995,-62.5011
 L 304.179,-62.0204 L 304.312,-61.5229 L 304.393,-61.0143 L 304.42,-60.5 L 304.393,-59.9857 L 304.312,-59.4771
 L 304.179,-58.9796 L 303.995,-58.4989 L 303.761,-58.04 L 303.48,-57.6081 L 303.156,-57.2079 L 302.792,-56.8437
 L 302.392,-56.5196 L 301.96,-56.2392 L 301.501,-56.0054 L 301.02,-55.8208 L 300.523,-55.6875 L 300.014,-55.607
 L 299.5,-55.58 z
M 444.986,-55.607 L 444.477,-55.6875 L 443.98,-55.8208 L 443.499,-56.0054 L 443.04,-56.2392 L 442.608,-56.5196
 L 442.208,-56.8437 L 441.844,-57.2079 L 441.52,-57.6081 L 441.239,-58.04 L 441.005,-58.4989 L 440.821,-58.9796
 L 440.688,-59.4771 L 440.607,-59.9857 L 440.58,-60.5 L 440.607,-61.0143 L 440.688,-61.5229 L 440.821,-62.0204
 L 441.005,-62.5011 L 441.239,-62.96 L 441.52,-63.3919 L 441.844,-63.7921 L 442.208,-64.1563 L 442.608,-64.4804
 L 442.95,-64.7024 L 442.95,-74 L 443.006,-74.5302 L 443.17,-75.0372 L 443.437,-75.4988 L 443.794,-75.895
 L 444.225,-76.2084 L 444.712,-76.4252 L 445.233,-76.536 L 445.767,-76.536 L 446.288,-76.4252 L 446.775,-76.2084
 L 447.206,-75.895 L 447.563,-75.4988 L 447.83,-75.0372 L 447.994,-74.5302 L 448.05,-74 L 448.05,-64.7024
 L 448.392,-64.4804 L 448.792,-64.1563 L 449.156,-63.7921 L 449.48,-63.3919 L 449.761,-62.96 L 449.995,-62.5011
 L 450.179,-62.0204 L 450.312,-61.5229 L 450.393,-61.0143 L 450.42,-60.5 L 450.393,-59.9857 L 450.312,-59.4771
 L 450.179,-58.9796 L 449.995,-58.4989 L 449.761,-58.04 L 449.48,-57.6081 L 449.156,-57.2079 L 448.792,-56.8437
 L 448.392,-56.5196 L 447.96,-56.2392 L 447.501,-56.0054 L 447.02,-55.8208 L 446.523,-55.6875 L 446.014,-55.607
 L 445.5,-55.58 z
M 590.986,-55.607 L 590.477,-55.6875 L 589.98,-55.8208 L 589.499,-56.0054 L 589.04,-56.2392 L 588.608,-56.5196
 L 588.208,-56.8437 L 587.844,-57.2079 L 587.52,-57.6081 L 587.239,-58.04 L 587.005,-58.4989 L 586.821,-58.9796
 L 586.688,-59.4771 L 586.607,-59.9857 L 586.58,-60.5 L 586.607,-61.0143 L 586.688,-61.5229 L 586.821,-62.0204
 L 587.005,-62.5011 L 587.239,-62.96 L 587.52,-63.3919 L 587.844,-63.7921 L 588.208,-64.1563 L 588.608,-64.4804
 L 588.95,-64.7024 L 588.95,-74 L 589.006,-74.5302 L 589.17,-75.0372 L 589.437,-75.4988 L 589.794,-75.895
 L 590.225,-76.2084 L 590.712,-76.4252 L 591.233,-76.536 L 591.767,-76.536 L 592.288,-76.4252 L 592.775,-76.2084
 L 593.206,-75.895 L 593.563,-75.4988 L 593.83,-75.0372 L 593.994,-74.5302 L 594.05,-74 L 594.05,-64.7024
 L 594.392,-64.4804 L 594.792,-64.1563 L 595.156,-63.7921 L 595.48,-63.3919 L 595.761,-62.96 L 595.995,-62.5011
 L 596.179,-62.0204 L 596.312,-61.5229 L 596.393,-61.0143 L 596.42,-60.5 L 596.393,-59.9857 L 596.312,-59.4771
 L 596.179,-58.9796 L 595.995,-58.4989 L 595.761,-58.04 L 595.48,-57.6081 L 595.156,-57.2079 L 594.792,-56.8437
 L 594.392,-56.5196 L 593.96,-56.2392 L 593.501,-56.0054 L 593.02,-55.8208 L 592.523,-55.6875 L 592.014,-55.607
 L 591.5,-55.58 z
M 736.986,-55.607 L 736.477,-55.6875 L 735.98,-55.8208 L 735.499,-56.0054 L 735.04,-56.2392 L 734.608,-56.5196
 L 734.208,-56.8437 L 733.844,-57.2079 L 733.52,-57.6081 L 733.239,-58.04 L 733.005,-58.4989 L 732.821,-58.9796
 L 732.688,-59.4771 L 732.607,-59.9857 L 732.58,-60.5 L 732.607,-61.0143 L 732.688,-61.5229 L 732.821,-62.0204
 L 733.005,-62.5011 L 733.239,-62.96 L 733.52,-63.3919 L 733.844,-63.7921 L 734.208,-64.1563 L 734.608,-64.4804
 L 734.95,-64.7024 L 734.95,-74 L 735.006,-74.5302 L 735.17,-75.0372 L 735.437,-75.4988 L 735.794,-75.895
 L 736.225,-76.2084 L 736.712,-76.4252 L 737.233,-76.536 L 737.767,-76.536 L 738.288,-76.4252 L 738.775,-76.2084
 L 739.206,-75.895 L 739.563,-75.4988 L 739.83,-75.0372 L 739.994,-74.5302 L 740.05,-74 L 740.05,-64.7024
 L 740.392,-64.4804 L 740.792,-64.1563 L 741.156,-63.7921 L 741.48,-63.3919 L 741.761,-62.96 L 741.995,-62.5011
 L 742.179,-62.0204 L 742.312,-61.5229 L 742.393,-61.0143 L 742.42,-60.5 L 742.393,-59.9857 L 742.312,-59.4771
 L 742.179,-58.9796 L 741.995,-58.4989 L 741.761,-58.04 L 741.48,-57.6081 L 741.156,-57.2079 L 740.792,-56.8437
 L 740.392,-56.5196 L 739.96,-56.2392 L 739.501,-56.0054 L 739.02,-55.8208 L 738.523,-55.6875 L 738.014,-55.607
 L 737.5,-55.58 z
M 371.602,-48.2349 L 370.811,-48.5068 L 358.214,-54.374 L 357.552,-54.7639 L 356.93,-55.3235 L 356.439,-56
 L 356.099,-56.7639 L 355.925,-57.5819 L 355.925,-58.4181 L 356.099,-59.2361 L 356.439,-60 L 356.93,-60.6765
 L 357.552,-61.2361 L 358.276,-61.6542 L 359.071,-61.9126 L 359.903,-62 L 385.097,-62 L 385.862,-61.9262
 L 386.662,-61.6813 L 387.393,-61.2756 L 388.024,-60.7267 L 388.527,-60.0586 L 388.88,-59.3006 L 389.068,-58.4857
 L 389.082,-57.6496 L 388.922,-56.8288 L 388.595,-56.0592 L 388.115,-55.3744 L 387.503,-54.8044 L 386.786,-54.374
 L 374.189,-48.5068 L 373.265,-48.2067 L 372.432,-48.1334 z
M 285.602,-22.4957 L 284.811,-22.7676 L 216.95,-54.374 L 216.288,-54.7639 L 215.667,-55.3235 L 215.175,-56
 L 214.835,-56.7639 L 214.661,-57.5819 L 214.661,-58.4181 L 214.835,-59.2361 L 215.175,-60 L 215.667,-60.6765
 L 216.288,-61.2361 L 217.012,-61.6542 L 217.808,-61.9126 L 218.639,-62 L 286.5,-62 L 287.736,-61.8042
 L 288.5,-61.4641 L 289.177,-60.9726 L 289.736,-60.3511 L 290.154,-59.627 L 290.413,-58.8316 L 290.5,-58
 L 290.5,-26.3936 L 290.47,-25.9079 L 290.283,-25.093 L 289.93,-24.335 L 289.427,-23.6669 L 288.796,-23.118
 L 288.065,-22.7123 L 287.265,-22.4674 L 286.432,-22.3942 z
M 603.735,-22.4674 L 602.935,-22.7123 L 602.204,-23.118 L 601.573,-23.6669 L 601.07,-24.335 L 600.717,-25.093
 L 600.53,-25.9079 L 600.5,-26.3936 L 600.5,-58 L 600.587,-58.8316 L 600.846,-59.627 L 601.264,-60.3511
 L 601.823,-60.9726 L 602.5,-61.4641 L 603.264,-61.8042 L 604.5,-62 L 672.361,-62 L 673.192,-61.9126
 L 673.988,-61.6542 L 674.712,-61.2361 L 675.333,-60.6765 L 675.825,-60 L 676.165,-59.2361 L 676.339,-58.4181
 L 676.339,-57.5819 L 676.165,-56.7639 L 675.825,-56 L 675.333,-55.3235 L 674.712,-54.7639 L 674.05,-54.374
 L 606.189,-22.7676 L 605.398,-22.4957 L 604.568,-22.3942 z
M 139.602,-22.4957 L 138.811,-22.7676 L 70.9503,-54.374 L 70.288,-54.7639 L 69.6666,-55.3235 L 69.1751,-56
 L 68.8349,-56.7639 L 68.6611,-57.5819 L 68.6611,-58.4181 L 68.8349,-59.2361 L 69.1751,-60 L 69.6666,-60.6765
 L 70.288,-61.2361 L 71.0122,-61.6542 L 71.8075,-61.9126 L 72.6392,-62 L 140.5,-62 L 141.736,-61.8042
 L 142.5,-61.4641 L 143.177,-60.9726 L 143.736,-60.3511 L 144.154,-59.627 L 144.413,-58.8316 L 144.5,-58
 L 144.5,-26.3936 L 144.47,-25.9079 L 144.283,-25.093 L 143.93,-24.335 L 143.427,-23.6669 L 142.796,-23.118
 L 142.065,-22.7123 L 141.265,-22.4674 L 140.432,-22.3942 z
M 457.735,-22.4674 L 456.935,-22.7123 L 456.204,-23.118 L 455.573,-23.6669 L 455.07,-24.335 L 454.717,-25.093
 L 454.53,-25.9079 L 454.5,-26.3936 L 454.5,-58 L 454.587,-58.8316 L 454.846,-59.627 L 455.264,-60.3511
 L 455.823,-60.9726 L 456.5,-61.4641 L 457.264,-61.8042 L 458.5,-62 L 526.361,-62 L 527.192,-61.9126
 L 527.988,-61.6542 L 528.712,-61.2361 L 529.333,-60.6765 L 529.825,-60 L 530.165,-59.2361 L 530.339,-58.4181
 L 530.339,-57.5819 L 530.165,-56.7639 L 529.825,-56 L 529.333,-55.3235 L 528.712,-54.7639 L 528.05,-54.374
 L 460.189,-22.7676 L 459.398,-22.4957 L 458.568,-22.3942 z
M 312.082,-20.2095 L 311.264,-20.3834 L 310.5,-20.7235 L 309.823,-21.215 L 309.264,-21.8365 L 308.846,-22.5607
 L 308.587,-23.356 L 308.5,-24.1876 L 308.5,-55.8124 L 308.53,-56.298 L 308.717,-57.1129 L 309.07,-57.871
 L 309.573,-58.539 L 310.204,-59.0879 L 310.935,-59.4937 L 311.735,-59.7385 L 312.568,-59.8118 L 313.398,-59.7103
 L 314.189,-59.4384 L 348.139,-43.626 L 348.746,-43.2756 L 349.377,-42.7267 L 349.88,-42.0586 L 350.233,-41.3006
 L 350.421,-40.4857 L 350.435,-39.6496 L 350.275,-38.8288 L 349.948,-38.0592 L 349.468,-37.3744 L 348.856,-36.8044
 L 348.139,-36.374 L 314.189,-20.5616 L 313.736,-20.3834 L 312.918,-20.2095 z
M 431.602,-20.2897 L 430.811,-20.5616 L 396.861,-36.374 L 396.254,-36.7244 L 395.623,-37.2733 L 395.12,-37.9414
 L 394.767,-38.6994 L 394.579,-39.5143 L 394.565,-40.3504 L 394.725,-41.1712 L 395.052,-41.9408 L 395.532,-42.6256
 L 396.144,-43.1956 L 396.861,-43.626 L 430.811,-59.4384 L 431.264,-59.6166 L 432.082,-59.7905 L 432.918,-59.7905
 L 433.736,-59.6166 L 434.5,-59.2765 L 435.177,-58.785 L 435.736,-58.1635 L 436.154,-57.4393 L 436.413,-56.644
 L 436.5,-55.8124 L 436.5,-24.1876 L 436.47,-23.7019 L 436.283,-22.8871 L 435.93,-22.129 L 435.427,-21.461
 L 434.796,-20.912 L 434.065,-20.5063 L 433.265,-20.2614 L 432.432,-20.1882 z
M 166.5,-18 L 165.264,-18.1958 L 164.5,-18.5359 L 163.823,-19.0274 L 163.264,-19.6489 L 162.846,-20.373
 L 162.587,-21.1684 L 162.5,-22 L 162.5,-53.6064 L 162.53,-54.0921 L 162.717,-54.907 L 163.07,-55.665
 L 163.573,-56.3331 L 164.204,-56.882 L 164.935,-57.2877 L 165.735,-57.5326 L 166.568,-57.6058 L 167.398,-57.5043
 L 168.189,-57.2324 L 236.05,-25.626 L 236.712,-25.2361 L 237.333,-24.6765 L 237.825,-24 L 238.165,-23.2361
 L 238.339,-22.4181 L 238.339,-21.5819 L 238.165,-20.7639 L 237.825,-20 L 237.333,-19.3235 L 236.712,-18.7639
 L 235.988,-18.3458 L 235.192,-18.0874 L 234.361,-18 z
M 510.639,-18 L 509.808,-18.0874 L 509.012,-18.3458 L 508.288,-18.7639 L 507.667,-19.3235 L 507.175,-20
 L 506.835,-20.7639 L 506.661,-21.5819 L 506.661,-22.4181 L 506.835,-23.2361 L 507.175,-24 L 507.667,-24.6765
 L 508.288,-25.2361 L 508.95,-25.626 L 576.811,-57.2324 L 577.602,-57.5043 L 578.432,-57.6058 L 579.265,-57.5326
 L 580.065,-57.2877 L 580.796,-56.882 L 581.427,-56.3331 L 581.93,-55.665 L 582.283,-54.907 L 582.47,-54.0921
 L 582.5,-53.6064 L 582.5,-22 L 582.413,-21.1684 L 582.154,-20.373 L 581.736,-19.6489 L 581.177,-19.0274
 L 580.5,-18.5359 L 579.736,-18.1958 L 578.5,-18 z
M 22,-18 L 20.7639,-18.1958 L 20,-18.5359 L 19.3235,-19.0274 L 18.7639,-19.6489 L 18.3458,-20.373
 L 18.0874,-21.1684 L 18,-22 L 18,-52.9078 L 18.0296,-53.3934 L 18.2173,-54.2083 L 18.5704,-54.9664
 L 19.0733,-55.6344 L 19.7042,-56.1833 L 20.4354,-56.5891 L 21.235,-56.8339 L 22.068,-56.9072 L 22.898,-56.8057
 L 23.6888,-56.5338 L 90.0497,-25.626 L 90.712,-25.2361 L 91.3334,-24.6765 L 91.8249,-24 L 92.1651,-23.2361
 L 92.3389,-22.4181 L 92.3389,-21.5819 L 92.1651,-20.7639 L 91.8249,-20 L 91.3334,-19.3235 L 90.712,-18.7639
 L 89.9878,-18.3458 L 89.1925,-18.0874 L 88.3608,-18 z
M 656.639,-18 L 655.808,-18.0874 L 655.012,-18.3458 L 654.288,-18.7639 L 653.667,-19.3235 L 653.175,-20
 L 652.835,-20.7639 L 652.661,-21.5819 L 652.661,-22.4181 L 652.835,-23.2361 L 653.175,-24 L 653.667,-24.6765
 L 654.288,-25.2361 L 654.95,-25.626 L 721.311,-56.5338 L 722.102,-56.8057 L 722.932,-56.9072 L 723.765,-56.8339
 L 724.565,-56.5891 L 725.296,-56.1833 L 725.927,-55.6344 L 726.43,-54.9664 L 726.783,-54.2083 L 726.97,-53.3934
 L 727,-52.9078 L 727,-22 L 726.913,-21.1684 L 726.654,-20.373 L 726.236,-19.6489 L 725.677,-19.0274
 L 725,-18.5359 L 724.236,-18.1958 L 723,-18 z
M 359.903,-18 L 359.138,-18.0738 L 358.338,-18.3187 L 357.607,-18.7244 L 356.976,-19.2733 L 356.473,-19.9414
 L 356.12,-20.6994 L 355.932,-21.5143 L 355.918,-22.3504 L 356.078,-23.1712 L 356.405,-23.9408 L 356.885,-24.6256
 L 357.497,-25.1956 L 358.214,-25.626 L 370.811,-31.4932 L 371.735,-31.7933 L 372.568,-31.8666 L 373.398,-31.7651
 L 374.189,-31.4932 L 386.786,-25.626 L 387.448,-25.2361 L 388.07,-24.6765 L 388.561,-24 L 388.901,-23.2361
 L 389.075,-22.4181 L 389.075,-21.5819 L 388.901,-20.7639 L 388.561,-20 L 388.07,-19.3235 L 387.448,-18.7639
 L 386.724,-18.3458 L 385.929,-18.0874 L 385.097,-18 z
" stroke="black" fill="lightgray" stroke-width="0.5"/>
</svg>
