<?xml version="1.0" standalone="no"?>
<!DOCTYPE svg PUBLIC "-//W3C//DTD SVG 1.1//EN" "http://www.w3.org/Graphics/SVG/1.1/DTD/svg11.dtd">
<svg width="662mm" height="80mm" viewBox="0 -80 662 80" xmlns="http://www.w3.org/2000/svg" version="1.1">
<title>OpenSCAD Model</title>
<path d="
M 662,-80 L 0,-80 L 0,-0 L 4.95,-0 L 4.95,-6 L 5.00572,-6.53017
 L 5.17046,-7.03717 L 5.437,-7.49884 L 5.79372,-7.895 L 6.22499,-8.20836 L 6.71201,-8.42519 L 7.23344,-8.53603
 L 7.76654,-8.53603 L 8.28798,-8.42519 L 8.77499,-8.20836 L 9.20627,-7.895 L 9.56299,-7.49884 L 9.82953,-7.03717
 L 9.99426,-6.53017 L 10.05,-6 L 10.05,-0 L 134.35,-0 L 134.35,-6 L 134.406,-6.53017
 L 134.57,-7.03717 L 134.837,-7.49884 L 135.194,-7.895 L 135.625,-8.20836 L 136.112,-8.42519 L 136.633,-8.53603
 L 137.167,-8.53603 L 137.688,-8.42519 L 138.175,-8.20836 L 138.606,-7.895 L 138.963,-7.49884 L 139.23,-7.03717
 L 139.394,-6.53017 L 139.45,-6 L 139.45,-0 L 263.75,-0 L 263.75,-6 L 263.806,-6.53017
 L 263.97,-7.03717 L 264.237,-7.49884 L 264.594,-7.895 L 265.025,-8.20836 L 265.512,-8.42519 L 266.033,-8.53603
 L 266.567,-8.53603 L 267.088,-8.42519 L 267.575,-8.20836 L 268.006,-7.895 L 268.363,-7.49884 L 268.63,-7.03717
 L 268.794,-6.53017 L 268.85,-6 L 268.85,-0 L 393.15,-0 L 393.15,-6 L 393.206,-6.53017
 L 393.37,-7.03717 L 393.637,-7.49884 L 393.994,-7.895 L 394.425,-8.20836 L 394.912,-8.42519 L 395.433,-8.53603
 L 395.967,-8.53603 L 396.488,-8.42519 L 396.975,-8.20836 L 397.406,-7.895 L 397.763,-7.49884 L 398.03,-7.03717
 L 398.194,-6.53017 L 398.25,-6 L 398.25,-0 L 522.55,-0 L 522.55,-6 L 522.606,-6.53017
 L 522.77,-7.03717 L 523.037,-7.49884 L 523.394,-7.895 L 523.825,-8.20836 L 524.312,-8.42519 L 524.833,-8.53603
 L 525.367,-8.53603 L 525.888,-8.42519 L 526.375,-8.20836 L 526.806,-7.895 L 527.163,-7.49884 L 527.43,-7.03717
 L 527.594,-6.53017 L 527.65,-6 L 527.65,-0 L 651.95,-0 L 651.95,-6 L 652.006,-6.53017
 L 652.17,-7.03717 L 652.437,-7.49884 L 652.794,-7.895 L 653.225,-8.20836 L 653.712,-8.42519 L 654.233,-8.53603
 L 654.767,-8.53603 L 655.288,-8.42519 L 655.775,-8.20836 L 656.206,-7.895 L 656.563,-7.49884 L 656.83,-7.03717
 L 656.994,-6.53017 L 657.05,-6 L 657.05,-0 L 662,-0 z
M 6.98573,-55.607 L 6.47708,-55.6875 L 5.97964,-55.8208 L 5.49887,-56.0054 L 5.04001,-56.2392 L 4.60811,-56.5196
 L 4.20789,-56.8437 L 3.84373,-57.2079 L 3.51964,-57.6081 L 3.23917,-58.04 L 3.00537,-58.4989 L 2.82082,-58.9796
 L 2.68752,-59.4771 L 2.60696,-59.9857 L 2.58,-60.5 L 2.60696,-61.0143 L 2.68752,-61.5229 L 2.82082,-62.0204
 L 3.00537,-62.5011 L 3.23917,-62.96 L 3.51964,-63.3919 L 3.84373,-63.7921 L 4.20789,-64.1563 L 4.60811,-64.4804
 L 4.95001,-64.7024 L 4.95001,-74 L 5.00574,-74.5302 L 5.17047,-75.0372 L 5.43701,-75.4988 L 5.79373,-75.895
 L 6.22501,-76.2084 L 6.71202,-76.4252 L 7.23346,-76.536 L 7.76654,-76.536 L 8.28798,-76.4252 L 8.77499,-76.2084
 L 9.20627,-75.895 L 9.56299,-75.4988 L 9.82953,-75.0372 L 9.99426,-74.5302 L 10.05,-74 L 10.05,-64.7024
 L 10.3919,-64.4804 L 10.7921,-64.1563 L 11.1563,-63.7921 L 11.4804,-63.3919 L 11.7608,-62.96 L 11.9946,-62.5011
 L 12.1792,-62.0204 L 12.3125,-61.5229 L 12.393,-61.0143 L 12.42,-60.5 L 12.393,-59.9857 L 12.3125,-59.4771
 L 12.1792,-58.9796 L 11.9946,-58.4989 L 11.7608,-58.04 L 11.4804,-57.6081 L 11.1563,-57.2079 L 10.7921,-56.8437
 L 10.3919,-56.5196 L 9.95999,-56.2392 L 9.50113,-56.0054 L 9.02036,-55.8208 L 8.52292,-55.6875 L 8.01427,-55.607
 L 7.5,-55.58 z
M 136.386,-55.607 L 135.877,-55.6875 L 135.38,-55.8208 L 134.899,-56.0054 L 134.44,-56.2392 L 134.008,-56.5196
 L 133.608,-56.8437 L 133.244,-57.2079 L 132.92,-57.6081 L 132.639,-58.04 L 132.405,-58.4989 L 132.221,-58.9796
 L 132.088,-59.4771 L 132.007,-59.9857 L 131.98,-60.5 L 132.007,-61.0143 L 132.088,-61.5229 L 132.221,-62.0204
 L 132.405,-62.5011 L 132.639,-62.96 L 132.92,-63.3919 L 133.244,-63.7921 L 133.608,-64.1563 L 134.008,-64.4804
 L 134.35,-64.7024 L 134.35,-74 L 134.406,-74.5302 L 134.57,-75.0372 L 134.837,-75.4988 L 135.194,-75.895
 L 135.625,-76.2084 L 136.112,-76.4252 L 136.633,-76.536 L 137.167,-76.536 L 137.688,-76.4252 L 138.175,-76.2084
 L 138.606,-75.895 L 138.963,-75.4988 L 139.23,-75.0372 L 139.394,-74.5302 L 139.45,-74 L 139.45,-64.7024
 L 139.792,-64.4804 L 140.192,-64.1563 L 140.556,-63.7921 L 140.88,-63.3919 L 141.161,-62.96 L 141.395,-62.5011
 L 141.579,-62.0204 L 141.712,-61.5229 L 141.793,-61.0143 L 141.82,-60.5 L 141.793,-59.9857 L 141.712,-59.4771
 L 141.579,-58.9796 L 141.395,-58.4989 L 141.161,-58.04 L 140.88,-57.6081 L 140.556,-57.2079 L 140.192,-56.8437
 L 139.792,-56.5196 L 139.36,-56.2392 L 138.901,-56.0054 L 138.42,-55.8208 L 137.923,-55.6875 L 137.414,-55.607
 L 136.9,-55.58 z
M 265.786,-55.607 L 265.277,-55.6875 L 264.78,-55.8208 L 264.299,-56.0054 L 263.84,-56.2392 L 263.408,-56.5196
 L 263.008,-56.8437 L 262.644,-57.2079 L 262.32,-57.6081 L 262.039,-58.04 L 261.805,-58.4989 L 261.621,-58.9796
 L 261.488,-59.4771 L 261.407,-59.9857 L 261.38,-60.5 L 261.407,-61.0143 L 261.488,-61.5229 L 261.621,-62.0204
 L 261.805,-62.5011 L 262.039,-62.96 L 262.32,-63.3919 L 262.644,-63.7921 L 263.008,-64.1563 L 263.408,-64.4804
 L 263.75,-64.7024 L 263.75,-74 L 263.806,-74.5302 L 263.97,-75.0372 L 264.237,-75.4988 L 264.594,-75.895
 L 265.025,-76.2084 L 265.512,-76.4252 L 266.033,-76.536 L 266.567,-76.536 L 267.088,-76.4252 L 267.575,-76.2084
 L 268.006,-75.895 L 268.363,-75.4988 L 268.63,-75.0372 L 268.794,-74.5302 L 268.85,-74 L 268.85,-64.7024
 L 269.192,-64.4804 L 269.592,-64.1563 L 269.956,-63.7921 L 270.28,-63.3919 L 270.561,-62.96 L 270.795,-62.5011
 L 270.979,-62.0204 L 271.112,-61.5229 L 271.193,-61.0143 L 271.22,-60.5 L 271.193,-59.9857 L 271.112,-59.4771
 L 270.979,-58.9796 L 270.795,-58.4989 L 270.561,-58.04 L 270.28,-57.6081 L 269.956,-57.2079 L 269.592,-56.8437
 L 269.192,-56.5196 L 268.76,-56.2392 L 268.301,-56.0054 L 267.82,-55.8208 L 267.323,-55.6875 L 266.814,-55.607
 L 266.3,-55.58 z
M 395.186,-55.607 L 394.677,-55.6875 L 394.18,-55.8208 L 393.699,-56.0054 L 393.24,-56.2392 L 392.808,-56.5196
 L 392.408,-56.8437 L 392.044,-57.2079 L 391.72,-57.6081 L 391.439,-58.04 L 391.205,-58.4989 L 391.021,-58.9796
 L 390.888,-59.4771 L 390.807,-59.9857 L 390.78,-60.5 L 390.807,-61.0143 L 390.888,-61.5229 L 391.021,-62.0204
 L 391.205,-62.5011 L 391.439,-62.96 L 391.72,-63.3919 L 392.044,-63.7921 L 392.408,-64.1563 L 392.808,-64.4804
 L 393.15,-64.7024 L 393.15,-74 L 393.206,-74.5302 L 393.37,-75.0372 L 393.637,-75.4988 L 393.994,-75.895
 L 394.425,-76.2084 L 394.912,-76.4252 L 395.433,-76.536 L 395.967,-76.536 L 396.488,-76.4252 L 396.975,-76.2084
 L 397.406,-75.895 L 397.763,-75.4988 L 398.03,-75.0372 L 398.194,-74.5302 L 398.25,-74 L 398.25,-64.7024
 L 398.592,-64.4804 L 398.992,-64.1563 L 399.356,-63.7921 L 399.68,-63.3919 L 399.961,-62.96 L 400.195,-62.5011
 L 400.379,-62.0204 L 400.512,-61.5229 L 400.593,-61.0143 L 400.62,-60.5 L 400.593,-59.9857 L 400.512,-59.4771
 L 400.379,-58.9796 L 400.195,-58.4989 L 399.961,-58.04 L 399.68,-57.6081 L 399.356,-57.2079 L 398.992,-56.8437
 L 398.592,-56.5196 L 398.16,-56.2392 L 397.701,-56.0054 L 397.22,-55.8208 L 396.723,-55.6875 L 396.214,-55.607
 L 395.7,-55.58 z
M 524.586,-55.607 L 524.077,-55.6875 L 523.58,-55.8208 L 523.099,-56.0054 L 522.64,-56.2392 L 522.208,-56.5196
 L 521.808,-56.8437 L 521.444,-57.2079 L 521.12,-57.6081 L 520.839,-58.04 L 520.605,-58.4989 L 520.421,-58.9796
 L 520.288,-59.4771 L 520.207,-59.9857 L 520.18,-60.5 L 520.207,-61.0143 L 520.288,-61.5229 L 520.421,-62.0204
 L 520.605,-62.5011 L 520.839,-62.96 L 521.12,-63.3919 L 521.444,-63.7921 L 521.808,-64.1563 L 522.208,-64.4804
 L 522.55,-64.7024 L 522.55,-74 L 522.606,-74.5302 L 522.77,-75.0372 L 523.037,-75.4988 L 523.394,-75.895
 L 523.825,-76.2084 L 524.312,-76.4252 L 524.833,-76.536 L 525.367,-76.536 L 525.888,-76.4252 L 526.375,-76.2084
 L 526.806,-75.895 L 527.163,-75.4988 L 527.43,-75.0372 L 527.594,-74.5302 L 527.65,-74 L 527.65,-64.7024
 L 527.992,-64.4804 L 528.392,-64.1563 L 528.756,-63.7921 L 529.08,-63.3919 L 529.361,-62.96 L 529.595,-62.5011
 L 529.779,-62.0204 L 529.912,-61.5229 L 529.993,-61.0143 L 530.02,-60.5 L 529.993,-59.9857 L 529.912,-59.4771
 L 529.779,-58.9796 L 529.595,-58.4989 L 529.361,-58.04 L 529.08,-57.6081 L 528.756,-57.2079 L 528.392,-56.8437
 L 527.992,-56.5196 L 527.56,-56.2392 L 527.101,-56.0054 L 526.62,-55.8208 L 526.123,-55.6875 L 525.614,-55.607
 L 525.1,-55.58 z
M 653.986,-55.607 L 653.477,-55.6875 L 652.98,-55.8208 L 652.499,-56.0054 L 652.04,-56.2392 L 651.608,-56.5196
 L 651.208,-56.8437 L 650.844,-57.2079 L 650.52,-57.6081 L 650.239,-58.04 L 650.005,-58.4989 L 649.821,-58.9796
 L 649.688,-59.4771 L 649.607,-59.9857 L 649.58,-60.5 L 649.607,-61.0143 L 649.688,-61.5229 L 649.821,-62.0204
 L 650.005,-62.5011 L 650.239,-62.96 L 650.52,-63.3919 L 650.844,-63.7921 L 651.208,-64.1563 L 651.608,-64.4804
 L 651.95,-64.7024 L 651.95,-74 L 652.006,-74.5302 L 652.17,-75.0372 L 652.437,-75.4988 L 652.794,-75.895
 L 653.225,-76.2084 L 653.712,-76.4252 L 654.233,-76.536 L 654.767,-76.536 L 655.288,-76.4252 L 655.775,-76.2084
 L 656.206,-75.895 L 656.563,-75.4988 L 656.83,-75.0372 L 656.994,-74.5302 L 657.05,-74 L 657.05,-64.7024
 L 657.392,-64.4804 L 657.792,-64.1563 L 658.156,-63.7921 L 658.48,-63.3919 L 658.761,-62.96 L 658.995,-62.5011
 L 659.179,-62.0204 L 659.312,-61.5229 L 659.393,-61.0143 L 659.42,-60.5 L 659.393,-59.9857 L 659.312,-59.4771
 L 659.179,-58.9796 L 658.995,-58.4989 L 658.761,-58.04 L 658.48,-57.6081 L 658.156,-57.2079 L 657.792,-56.8437
 L 657.392,-56.5196 L 656.96,-56.2392 L 656.501,-56.0054 L 656.02,-55.8208 L 655.523,-55.6875 L 655.014,-55.607
 L 654.5,-55.58 z
M 329.916,-48.5662 L 329.139,-48.8757 L 318.514,-54.4591 L 318.024,-54.7639 L 317.402,-55.3235 L 316.911,-56
 L 316.571,-56.7639 L 316.397,-57.5819 L 316.397,-58.4181 L 316.571,-59.2361 L 316.911,-60 L 317.402,-60.6765
 L 318.024,-61.2361 L 318.748,-61.6542 L 319.543,-61.9126 L 320.375,-62 L 341.625,-62 L 342.201,-61.9583
 L 343.011,-61.7521 L 343.761,-61.3819 L 344.418,-60.8638 L 344.952,-60.2207 L 345.341,-59.4804 L 345.568,-58.6755
 L 345.622,-57.841 L 345.501,-57.0135 L 345.212,-56.2291 L 344.765,-55.5221 L 344.181,-54.9234 L 343.486,-54.4591
 L 332.861,-48.8757 L 332.386,-48.6644 L 331.576,-48.4582 L 330.74,-48.425 z
M 252.216,-23.6553 L 251.439,-23.9648 L 193.41,-54.4591 L 192.92,-54.7639 L 192.298,-55.3235 L 191.807,-56
 L 191.467,-56.7639 L 191.293,-57.5819 L 191.293,-58.4181 L 191.467,-59.2361 L 191.807,-60 L 192.298,-60.6765
 L 192.92,-61.2361 L 193.644,-61.6542 L 194.439,-61.9126 L 195.271,-62 L 253.3,-62 L 254.536,-61.8042
 L 255.3,-61.4641 L 255.977,-60.9726 L 256.536,-60.3511 L 256.954,-59.627 L 257.213,-58.8316 L 257.3,-58
 L 257.3,-27.5056 L 257.243,-26.8301 L 257.016,-26.0252 L 256.627,-25.285 L 256.093,-24.6418 L 255.436,-24.1237
 L 254.686,-23.7535 L 253.876,-23.5473 L 253.04,-23.5141 z
M 537.524,-23.5473 L 536.714,-23.7535 L 535.964,-24.1237 L 535.307,-24.6418 L 534.773,-25.285 L 534.384,-26.0252
 L 534.157,-26.8301 L 534.1,-27.5056 L 534.1,-58 L 534.187,-58.8316 L 534.446,-59.627 L 534.864,-60.3511
 L 535.423,-60.9726 L 536.1,-61.4641 L 536.864,-61.8042 L 538.1,-62 L 596.129,-62 L 596.961,-61.9126
 L 597.756,-61.6542 L 598.48,-61.2361 L 599.102,-60.6765 L 599.593,-60 L 599.933,-59.2361 L 600.107,-58.4181
 L 600.107,-57.5819 L 599.933,-56.7639 L 599.593,-56 L 599.102,-55.3235 L 598.48,-54.7639 L 597.99,-54.4591
 L 539.961,-23.9648 L 539.184,-23.6553 L 538.36,-23.5141 z
M 122.816,-23.6553 L 122.039,-23.9648 L 64.0102,-54.4591 L 63.5198,-54.7639 L 62.8984,-55.3235 L 62.4069,-56
 L 62.0667,-56.7639 L 61.8929,-57.5819 L 61.8929,-58.4181 L 62.0667,-59.2361 L 62.4069,-60 L 62.8984,-60.6765
 L 63.5198,-61.2361 L 64.244,-61.6542 L 65.0393,-61.9126 L 65.871,-62 L 123.9,-62 L 125.136,-61.8042
 L 125.9,-61.4641 L 126.577,-60.9726 L 127.136,-60.3511 L 127.554,-59.627 L 127.813,-58.8316 L 127.9,-58
 L 127.9,-27.5056 L 127.843,-26.8301 L 127.616,-26.0252 L 127.227,-25.285 L 126.693,-24.6418 L 126.036,-24.1237
 L 125.286,-23.7535 L 124.476,-23.5473 L 123.64,-23.5141 z
M 408.124,-23.5473 L 407.314,-23.7535 L 406.564,-24.1237 L 405.907,-24.6418 L 405.373,-25.285 L 404.984,-26.0252
 L 404.757,-26.8301 L 404.7,-27.5056 L 404.7,-58 L 404.787,-58.8316 L 405.046,-59.627 L 405.464,-60.3511
 L 406.023,-60.9726 L 406.7,-61.4641 L 407.464,-61.8042 L 408.7,-62 L 466.729,-62 L 467.561,-61.9126
 L 468.356,-61.6542 L 469.08,-61.2361 L 469.702,-60.6765 L 470.193,-60 L 470.533,-59.2361 L 470.707,-58.4181
 L 470.707,-57.5819 L 470.533,-56.7639 L 470.193,-56 L 469.702,-55.3235 L 469.08,-54.7639 L 468.59,-54.4591
 L 410.561,-23.9648 L 409.784,-23.6553 L 408.96,-23.5141 z
M 278.882,-21.27 L 278.064,-21.4438 L 277.3,-21.784 L 276.623,-22.2755 L 276.064,-22.8969 L 275.646,-23.6211
 L 275.387,-24.4164 L 275.3,-25.2481 L 275.3,-54.7519 L 275.357,-55.4274 L 275.584,-56.2323 L 275.973,-56.9726
 L 276.507,-57.6158 L 277.164,-58.1338 L 277.914,-58.504 L 278.724,-58.7103 L 279.56,-58.7435 L 280.384,-58.6023
 L 281.161,-58.2928 L 309.233,-43.5409 L 310.165,-42.8638 L 310.699,-42.2207 L 311.088,-41.4804 L 311.315,-40.6755
 L 311.369,-39.841 L 311.248,-39.0135 L 310.959,-38.2291 L 310.512,-37.5221 L 309.928,-36.9234 L 309.233,-36.4591
 L 281.161,-21.7072 L 280.536,-21.4438 L 279.718,-21.27 z
M 381.616,-21.3977 L 380.839,-21.7072 L 352.767,-36.4591 L 351.835,-37.1362 L 351.301,-37.7793 L 350.912,-38.5196
 L 350.685,-39.3245 L 350.631,-40.159 L 350.751,-40.9865 L 351.041,-41.7709 L 351.488,-42.4779 L 352.072,-43.0766
 L 352.767,-43.5409 L 380.839,-58.2928 L 381.464,-58.5562 L 382.282,-58.73 L 383.118,-58.73 L 383.936,-58.5562
 L 384.7,-58.216 L 385.377,-57.7245 L 385.936,-57.1031 L 386.354,-56.3789 L 386.613,-55.5836 L 386.7,-54.7519
 L 386.7,-25.2481 L 386.643,-24.5726 L 386.416,-23.7676 L 386.027,-23.0274 L 385.493,-22.3842 L 384.836,-21.8662
 L 384.086,-21.496 L 383.276,-21.2897 L 382.44,-21.2565 z
M 149.9,-18 L 148.664,-18.1958 L 147.9,-18.5359 L 147.223,-19.0274 L 146.664,-19.6489 L 146.246,-20.373
 L 145.987,-21.1684 L 145.9,-22 L 145.9,-52.4944 L 145.957,-53.1698 L 146.184,-53.9748 L 146.573,-54.715
 L 147.107,-55.3582 L 147.764,-55.8762 L 148.514,-56.2465 L 149.324,-56.4527 L 150.16,-56.4859 L 150.984,-56.3447
 L 151.761,-56.0352 L 209.79,-25.5409 L 210.28,-25.2361 L 210.902,-24.6765 L 211.393,-24 L 211.733,-23.2361
 L 211.907,-22.4181 L 211.907,-21.5819 L 211.733,-20.7639 L 211.393,-20 L 210.902,-19.3235 L 210.28,-18.7639
 L 209.556,-18.3458 L 208.761,-18.0874 L 207.929,-18 z
M 454.071,-18 L 453.239,-18.0874 L 452.444,-18.3458 L 451.72,-18.7639 L 451.098,-19.3235 L 450.607,-20
 L 450.267,-20.7639 L 450.093,-21.5819 L 450.093,-22.4181 L 450.267,-23.2361 L 450.607,-24 L 451.098,-24.6765
 L 451.72,-25.2361 L 452.21,-25.5409 L 510.239,-56.0352 L 511.016,-56.3447 L 511.84,-56.4859 L 512.676,-56.4527
 L 513.486,-56.2465 L 514.236,-55.8762 L 514.893,-55.3582 L 515.427,-54.715 L 515.816,-53.9748 L 516.043,-53.1698
 L 516.1,-52.4944 L 516.1,-22 L 516.013,-21.1684 L 515.754,-20.373 L 515.336,-19.6489 L 514.777,-19.0274
 L 514.1,-18.5359 L 513.336,-18.1958 L 512.1,-18 z
M 22,-18 L 20.7639,-18.1958 L 20,-18.5359 L 19.3235,-19.0274 L 18.7639,-19.6489 L 18.3458,-20.373
 L 18.0874,-21.1684 L 18,-22 L 18,-51.7061 L 18.0574,-52.3816 L 18.284,-53.1865 L 18.673,-53.9268
 L 19.2074,-54.57 L 19.8639,-55.088 L 20.6137,-55.4582 L 21.4241,-55.6644 L 22.2597,-55.6977 L 23.0839,-55.5565
 L 23.8607,-55.247 L 80.3897,-25.5409 L 80.8801,-25.2361 L 81.5016,-24.6765 L 81.9931,-24 L 82.3332,-23.2361
 L 82.5071,-22.4181 L 82.5071,-21.5819 L 82.3332,-20.7639 L 81.9931,-20 L 81.5016,-19.3235 L 80.8801,-18.7639
 L 80.156,-18.3458 L 79.3607,-18.0874 L 78.529,-18 z
M 583.471,-18 L 582.639,-18.0874 L 581.844,-18.3458 L 581.12,-18.7639 L 580.498,-19.3235 L 580.007,-20
 L 579.667,-20.7639 L 579.493,-21.5819 L 579.493,-22.4181 L 579.667,-23.2361 L 580.007,-24 L 580.498,-24.6765
 L 581.12,-25.2361 L 581.61,-25.5409 L 638.139,-55.247 L 638.916,-55.5565 L 639.74,-55.6977 L 640.576,-55.6644
 L 641.386,-55.4582 L 642.136,-55.088 L 642.793,-54.57 L 643.327,-53.9268 L 643.716,-53.1865 L 643.943,-52.3816
 L 644,-51.7061 L 644,-22 L 643.913,-21.1684 L 643.654,-20.373 L 643.236,-19.6489 L 642.677,-19.0274
 L 642,-18.5359 L 641.236,-18.1958 L 640,-18 z
M 320.375,-18 L 319.799,-18.0417 L 318.989,-18.2479 L 318.239,-18.6181 L 317.582,-19.1362 L 317.048,-19.7793
 L 316.659,-20.5196 L 316.432,-21.3245 L 316.378,-22.159 L 316.499,-22.9865 L 316.788,-23.7709 L 317.235,-24.4779
 L 317.819,-25.0766 L 318.514,-25.5409 L 329.139,-31.1243 L 329.614,-31.3356 L 330.424,-31.5418 L 331.26,-31.575
 L 332.084,-31.4338 L 332.861,-31.1243 L 343.486,-25.5409 L 343.976,-25.2361 L 344.598,-24.6765 L 345.089,-24
 L 345.429,-23.2361 L 345.603,-22.4181 L 345.603,-21.5819 L 345.429,-20.7639 L 345.089,-20 L 344.598,-19.3235
 L 343.976,-18.7639 L 343.252,-18.3458 L 342.457,-18.0874 L 341.625,-18 z
" stroke="black" fill="lightgray" stroke-width="0.5"/>
</svg>
