<?xml version="1.0" standalone="no"?>
<!DOCTYPE svg PUBLIC "-//W3C//DTD SVG 1.1//EN" "http://www.w3.org/Graphics/SVG/1.1/DTD/svg11.dtd">
<svg width="912mm" height="80mm" viewBox="0 -80 912 80" xmlns="http://www.w3.org/2000/svg" version="1.1">
<title>OpenSCAD Model</title>
<path d="
M 912,-80 L 0,-80 L 0,-0 L 4.95,-0 L 4.95,-6 L 5.00572,-6.53017
 L 5.17046,-7.03717 L 5.437,-7.49884 L 5.79372,-7.895 L 6.22499,-8.20836 L 6.71201,-8.42519 L 7.23344,-8.53603
 L 7.76654,-8.53603 L 8.28798,-8.42519 L 8.77499,-8.20836 L 9.20627,-7.895 L 9.56299,-7.49884 L 9.82953,-7.03717
 L 9.99426,-6.53017 L 10.05,-6 L 10.05,-0 L 184.35,-0 L 184.35,-6 L 184.406,-6.53017
 L 184.57,-7.03717 L 184.837,-7.49884 L 185.194,-7.895 L 185.625,-8.20836 L 186.112,-8.42519 L 186.633,-8.53603
 L 187.167,-8.53603 L 187.688,-8.42519 L 188.175,-8.20836 L 188.606,-7.895 L 188.963,-7.49884 L 189.23,-7.03717
 L 189.394,-6.53017 L 189.45,-6 L 189.45,-0 L 363.75,-0 L 363.75,-6 L 363.806,-6.53017
 L 363.97,-7.03717 L 364.237,-7.49884 L 364.594,-7.895 L 365.025,-8.20836 L 365.512,-8.42519 L 366.033,-8.53603
 L 366.567,-8.53603 L 367.088,-8.42519 L 367.575,-8.20836 L 368.006,-7.895 L 368.363,-7.49884 L 368.63,-7.03717
 L 368.794,-6.53017 L 368.85,-6 L 368.85,-0 L 543.15,-0 L 543.15,-6 L 543.206,-6.53017
 L 543.37,-7.03717 L 543.637,-7.49884 L 543.994,-7.895 L 544.425,-8.20836 L 544.912,-8.42519 L 545.433,-8.53603
 L 545.967,-8.53603 L 546.488,-8.42519 L 546.975,-8.20836 L 547.406,-7.895 L 547.763,-7.49884 L 548.03,-7.03717
 L 548.194,-6.53017 L 548.25,-6 L 548.25,-0 L 722.55,-0 L 722.55,-6 L 722.606,-6.53017
 L 722.77,-7.03717 L 723.037,-7.49884 L 723.394,-7.895 L 723.825,-8.20836 L 724.312,-8.42519 L 724.833,-8.53603
 L 725.367,-8.53603 L 725.888,-8.42519 L 726.375,-8.20836 L 726.806,-7.895 L 727.163,-7.49884 L 727.43,-7.03717
 L 727.594,-6.53017 L 727.65,-6 L 727.65,-0 L 901.95,-0 L 901.95,-6 L 902.006,-6.53017
 L 902.17,-7.03717 L 902.437,-7.49884 L 902.794,-7.895 L 903.225,-8.20836 L 903.712,-8.42519 L 904.233,-8.53603
 L 904.767,-8.53603 L 905.288,-8.42519 L 905.775,-8.20836 L 906.206,-7.895 L 906.563,-7.49884 L 906.83,-7.03717
 L 906.994,-6.53017 L 907.05,-6 L 907.05,-0 L 912,-0 z
M 6.98573,-55.607 L 6.47708,-55.6875 L 5.97964,-55.8208 L 5.49887,-56.0054 L 5.04001,-56.2392 L 4.60811,-56.5196
 L 4.20789,-56.8437 L 3.84373,-57.2079 L 3.51964,-57.6081 L 3.23917,-58.04 L 3.00537,-58.4989 L 2.82082,-58.9796
 L 2.68752,-59.4771 L 2.60696,-59.9857 L 2.58,-60.5 L 2.60696,-61.0143 L 2.68752,-61.5229 L 2.82082,-62.0204
 L 3.00537,-62.5011 L 3.23917,-62.96 L 3.51964,-63.3919 L 3.84373,-63.7921 L 4.20789,-64.1563 L 4.60811,-64.4804
 L 4.95001,-64.7024 L 4.95001,-74 L 5.00574,-74.5302 L 5.17047,-75.0372 L 5.43701,-75.4988 L 5.79373,-75.895
 L 6.22501,-76.2084 L 6.71202,-76.4252 L 7.23346,-76.536 L 7.76654,-76.536 L 8.28798,-76.4252 L 8.77499,-76.2084
 L 9.20627,-75.895 L 9.56299,-75.4988 L 9.82953,-75.0372 L 9.99426,-74.5302 L 10.05,-74 L 10.05,-64.7024
 L 10.3919,-64.4804 L 10.7921,-64.1563 L 11.1563,-63.7921 L 11.4804,-63.3919 L 11.7608,-62.96 L 11.9946,-62.5011
 L 12.1792,-62.0204 L 12.3125,-61.5229 L 12.393,-61.0143 L 12.42,-60.5 L 12.393,-59.9857 L 12.3125,-59.4771
 L 12.1792,-58.9796 L 11.9946,-58.4989 L 11.7608,-58.04 L 11.4804,-57.6081 L 11.1563,-57.2079 L 10.7921,-56.8437
 L 10.3919,-56.5196 L 9.95999,-56.2392 L 9.50113,-56.0054 L 9.02036,-55.8208 L 8.52292,-55.6875 L 8.01427,-55.607
 L 7.5,-55.58 z
M 186.386,-55.607 L 185.877,-55.6875 L 185.38,-55.8208 L 184.899,-56.0054 L 184.44,-56.2392 L 184.008,-56.5196
 L 183.608,-56.8437 L 183.244,-57.2079 L 182.92,-57.6081 L 182.639,-58.04 L 182.405,-58.4989 L 182.221,-58.9796
 L 182.088,-59.4771 L 182.007,-59.9857 L 181.98,-60.5 L 182.007,-61.0143 L 182.088,-61.5229 L 182.221,-62.0204
 L 182.405,-62.5011 L 182.639,-62.96 L 182.92,-63.3919 L 183.244,-63.7921 L 183.608,-64.1563 L 184.008,-64.4804
 L 184.35,-64.7024 L 184.35,-74 L 184.406,-74.5302 L 184.57,-75.0372 L 184.837,-75.4988 L 185.194,-75.895
 L 185.625,-76.2084 L 186.112,-76.4252 L 186.633,-76.536 L 187.167,-76.536 L 187.688,-76.4252 L 188.175,-76.2084
 L 188.606,-75.895 L 188.963,-75.4988 L 189.23,-75.0372 L 189.394,-74.5302 L 189.45,-74 L 189.45,-64.7024
 L 189.792,-64.4804 L 190.192,-64.1563 L 190.556,-63.7921 L 190.88,-63.3919 L 191.161,-62.96 L 191.395,-62.5011
 L 191.579,-62.0204 L 191.712,-61.5229 L 191.793,-61.0143 L 191.82,-60.5 L 191.793,-59.9857 L 191.712,-59.4771
 L 191.579,-58.9796 L 191.395,-58.4989 L 191.161,-58.04 L 190.88,-57.6081 L 190.556,-57.2079 L 190.192,-56.8437
 L 189.792,-56.5196 L 189.36,-56.2392 L 188.901,-56.0054 L 188.42,-55.8208 L 187.923,-55.6875 L 187.414,-55.607
 L 186.9,-55.58 z
M 365.786,-55.607 L 365.277,-55.6875 L 364.78,-55.8208 L 364.299,-56.0054 L 363.84,-56.2392 L 363.408,-56.5196
 L 363.008,-56.8437 L 362.644,-57.2079 L 362.32,-57.6081 L 362.039,-58.04 L 361.805,-58.4989 L 361.621,-58.9796
 L 361.488,-59.4771 L 361.407,-59.9857 L 361.38,-60.5 L 361.407,-61.0143 L 361.488,-61.5229 L 361.621,-62.0204
 L 361.805,-62.5011 L 362.039,-62.96 L 362.32,-63.3919 L 362.644,-63.7921 L 363.008,-64.1563 L 363.408,-64.4804
 L 363.75,-64.7024 L 363.75,-74 L 363.806,-74.5302 L 363.97,-75.0372 L 364.237,-75.4988 L 364.594,-75.895
 L 365.025,-76.2084 L 365.512,-76.4252 L 366.033,-76.536 L 366.567,-76.536 L 367.088,-76.4252 L 367.575,-76.2084
 L 368.006,-75.895 L 368.363,-75.4988 L 368.63,-75.0372 L 368.794,-74.5302 L 368.85,-74 L 368.85,-64.7024
 L 369.192,-64.4804 L 369.592,-64.1563 L 369.956,-63.7921 L 370.28,-63.3919 L 370.561,-62.96 L 370.795,-62.5011
 L 370.979,-62.0204 L 371.112,-61.5229 L 371.193,-61.0143 L 371.22,-60.5 L 371.193,-59.9857 L 371.112,-59.4771
 L 370.979,-58.9796 L 370.795,-58.4989 L 370.561,-58.04 L 370.28,-57.6081 L 369.956,-57.2079 L 369.592,-56.8437
 L 369.192,-56.5196 L 368.76,-56.2392 L 368.301,-56.0054 L 367.82,-55.8208 L 367.323,-55.6875 L 366.814,-55.607
 L 366.3,-55.58 z
M 545.186,-55.607 L 544.677,-55.6875 L 544.18,-55.8208 L 543.699,-56.0054 L 543.24,-56.2392 L 542.808,-56.5196
 L 542.408,-56.8437 L 542.044,-57.2079 L 541.72,-57.6081 L 541.439,-58.04 L 541.205,-58.4989 L 541.021,-58.9796
 L 540.888,-59.4771 L 540.807,-59.9857 L 540.78,-60.5 L 540.807,-61.0143 L 540.888,-61.5229 L 541.021,-62.0204
 L 541.205,-62.5011 L 541.439,-62.96 L 541.72,-63.3919 L 542.044,-63.7921 L 542.408,-64.1563 L 542.808,-64.4804
 L 543.15,-64.7024 L 543.15,-74 L 543.206,-74.5302 L 543.37,-75.0372 L 543.637,-75.4988 L 543.994,-75.895
 L 544.425,-76.2084 L 544.912,-76.4252 L 545.433,-76.536 L 545.967,-76.536 L 546.488,-76.4252 L 546.975,-76.2084
 L 547.406,-75.895 L 547.763,-75.4988 L 548.03,-75.0372 L 548.194,-74.5302 L 548.25,-74 L 548.25,-64.7024
 L 548.592,-64.4804 L 548.992,-64.1563 L 549.356,-63.7921 L 549.68,-63.3919 L 549.961,-62.96 L 550.195,-62.5011
 L 550.379,-62.0204 L 550.512,-61.5229 L 550.593,-61.0143 L 550.62,-60.5 L 550.593,-59.9857 L 550.512,-59.4771
 L 550.379,-58.9796 L 550.195,-58.4989 L 549.961,-58.04 L 549.68,-57.6081 L 549.356,-57.2079 L 548.992,-56.8437
 L 548.592,-56.5196 L 548.16,-56.2392 L 547.701,-56.0054 L 547.22,-55.8208 L 546.723,-55.6875 L 546.214,-55.607
 L 545.7,-55.58 z
M 724.586,-55.607 L 724.077,-55.6875 L 723.58,-55.8208 L 723.099,-56.0054 L 722.64,-56.2392 L 722.208,-56.5196
 L 721.808,-56.8437 L 721.444,-57.2079 L 721.12,-57.6081 L 720.839,-58.04 L 720.605,-58.4989 L 720.421,-58.9796
 L 720.288,-59.4771 L 720.207,-59.9857 L 720.18,-60.5 L 720.207,-61.0143 L 720.288,-61.5229 L 720.421,-62.0204
 L 720.605,-62.5011 L 720.839,-62.96 L 721.12,-63.3919 L 721.444,-63.7921 L 721.808,-64.1563 L 722.208,-64.4804
 L 722.55,-64.7024 L 722.55,-74 L 722.606,-74.5302 L 722.77,-75.0372 L 723.037,-75.4988 L 723.394,-75.895
 L 723.825,-76.2084 L 724.312,-76.4252 L 724.833,-76.536 L 725.367,-76.536 L 725.888,-76.4252 L 726.375,-76.2084
 L 726.806,-75.895 L 727.163,-75.4988 L 727.43,-75.0372 L 727.594,-74.5302 L 727.65,-74 L 727.65,-64.7024
 L 727.992,-64.4804 L 728.392,-64.1563 L 728.756,-63.7921 L 729.08,-63.3919 L 729.361,-62.96 L 729.595,-62.5011
 L 729.779,-62.0204 L 729.912,-61.5229 L 729.993,-61.0143 L 730.02,-60.5 L 729.993,-59.9857 L 729.912,-59.4771
 L 729.779,-58.9796 L 729.595,-58.4989 L 729.361,-58.04 L 729.08,-57.6081 L 728.756,-57.2079 L 728.392,-56.8437
 L 727.992,-56.5196 L 727.56,-56.2392 L 727.101,-56.0054 L 726.62,-55.8208 L 726.123,-55.6875 L 725.614,-55.607
 L 725.1,-55.58 z
M 903.986,-55.607 L 903.477,-55.6875 L 902.98,-55.8208 L 902.499,-56.0054 L 902.04,-56.2392 L 901.608,-56.5196
 L 901.208,-56.8437 L 900.844,-57.2079 L 900.52,-57.6081 L 900.239,-58.04 L 900.005,-58.4989 L 899.821,-58.9796
 L 899.688,-59.4771 L 899.607,-59.9857 L 899.58,-60.5 L 899.607,-61.0143 L 899.688,-61.5229 L 899.821,-62.0204
 L 900.005,-62.5011 L 900.239,-62.96 L 900.52,-63.3919 L 900.844,-63.7921 L 901.208,-64.1563 L 901.608,-64.4804
 L 901.95,-64.7024 L 901.95,-74 L 902.006,-74.5302 L 902.17,-75.0372 L 902.437,-75.4988 L 902.794,-75.895
 L 903.225,-76.2084 L 903.712,-76.4252 L 904.233,-76.536 L 904.767,-76.536 L 905.288,-76.4252 L 905.775,-76.2084
 L 906.206,-75.895 L 906.563,-75.4988 L 906.83,-75.0372 L 906.994,-74.5302 L 907.05,-74 L 907.05,-64.7024
 L 907.392,-64.4804 L 907.792,-64.1563 L 908.156,-63.7921 L 908.48,-63.3919 L 908.761,-62.96 L 908.995,-62.5011
 L 909.179,-62.0204 L 909.312,-61.5229 L 909.393,-61.0143 L 909.42,-60.5 L 909.393,-59.9857 L 909.312,-59.4771
 L 909.179,-58.9796 L 908.995,-58.4989 L 908.761,-58.04 L 908.48,-57.6081 L 908.156,-57.2079 L 907.792,-56.8437
 L 907.392,-56.5196 L 906.96,-56.2392 L 906.501,-56.0054 L 906.02,-55.8208 L 905.523,-55.6875 L 905.014,-55.607
 L 904.5,-55.58 z
M 455.391,-47.7967 L 454.582,-48.0097 L 438.093,-54.2597 L 437.16,-54.7639 L 436.539,-55.3235 L 436.047,-56
 L 435.707,-56.7639 L 435.533,-57.5819 L 435.533,-58.4181 L 435.707,-59.2361 L 436.047,-60 L 436.539,-60.6765
 L 437.16,-61.2361 L 437.884,-61.6542 L 438.679,-61.9126 L 439.511,-62 L 472.489,-62 L 473.54,-61.8593
 L 474.32,-61.5564 L 475.019,-61.098 L 475.608,-60.5042 L 476.06,-59.8009 L 476.357,-59.019 L 476.484,-58.1925
 L 476.437,-57.3576 L 476.217,-56.5508 L 475.834,-55.8073 L 475.305,-55.1597 L 474.653,-54.6362 L 473.907,-54.2597
 L 457.418,-48.0097 L 456.226,-47.7564 z
M 352.691,-20.8606 L 351.882,-21.0736 L 264.33,-54.2597 L 263.396,-54.7639 L 262.775,-55.3235 L 262.283,-56
 L 261.943,-56.7639 L 261.769,-57.5819 L 261.769,-58.4181 L 261.943,-59.2361 L 262.283,-60 L 262.775,-60.6765
 L 263.396,-61.2361 L 264.12,-61.6542 L 264.916,-61.9126 L 265.747,-62 L 353.3,-62 L 354.536,-61.8042
 L 355.3,-61.4641 L 355.977,-60.9726 L 356.536,-60.3511 L 356.954,-59.627 L 357.213,-58.8316 L 357.3,-58
 L 357.3,-24.8139 L 357.168,-23.795 L 356.872,-23.013 L 356.419,-22.3098 L 355.83,-21.716 L 355.131,-21.2576
 L 354.352,-20.9546 L 353.526,-20.8203 z
M 737.048,-20.9546 L 736.269,-21.2576 L 735.57,-21.716 L 734.981,-22.3098 L 734.528,-23.013 L 734.232,-23.795
 L 734.1,-24.8139 L 734.1,-58 L 734.187,-58.8316 L 734.446,-59.627 L 734.864,-60.3511 L 735.423,-60.9726
 L 736.1,-61.4641 L 736.864,-61.8042 L 738.1,-62 L 825.653,-62 L 826.484,-61.9126 L 827.28,-61.6542
 L 828.004,-61.2361 L 828.625,-60.6765 L 829.117,-60 L 829.457,-59.2361 L 829.631,-58.4181 L 829.631,-57.5819
 L 829.457,-56.7639 L 829.117,-56 L 828.625,-55.3235 L 828.004,-54.7639 L 827.07,-54.2597 L 739.518,-21.0736
 L 738.709,-20.8606 L 737.874,-20.8203 z
M 173.291,-20.8606 L 172.482,-21.0736 L 84.9296,-54.2597 L 83.9962,-54.7639 L 83.3748,-55.3235 L 82.8833,-56
 L 82.5432,-56.7639 L 82.3693,-57.5819 L 82.3693,-58.4181 L 82.5432,-59.2361 L 82.8833,-60 L 83.3748,-60.6765
 L 83.9962,-61.2361 L 84.7204,-61.6542 L 85.5157,-61.9126 L 86.3474,-62 L 173.9,-62 L 175.136,-61.8042
 L 175.9,-61.4641 L 176.577,-60.9726 L 177.136,-60.3511 L 177.554,-59.627 L 177.813,-58.8316 L 177.9,-58
 L 177.9,-24.8139 L 177.768,-23.795 L 177.472,-23.013 L 177.019,-22.3098 L 176.43,-21.716 L 175.731,-21.2576
 L 174.952,-20.9546 L 174.126,-20.8203 z
M 557.648,-20.9546 L 556.869,-21.2576 L 556.17,-21.716 L 555.581,-22.3098 L 555.128,-23.013 L 554.832,-23.795
 L 554.7,-24.8139 L 554.7,-58 L 554.787,-58.8316 L 555.046,-59.627 L 555.464,-60.3511 L 556.023,-60.9726
 L 556.7,-61.4641 L 557.464,-61.8042 L 558.7,-62 L 646.253,-62 L 647.084,-61.9126 L 647.88,-61.6542
 L 648.604,-61.2361 L 649.225,-60.6765 L 649.717,-60 L 650.057,-59.2361 L 650.231,-58.4181 L 650.231,-57.5819
 L 650.057,-56.7639 L 649.717,-56 L 649.225,-55.3235 L 648.604,-54.7639 L 647.67,-54.2597 L 560.118,-21.0736
 L 559.309,-20.8606 L 558.474,-20.8203 z
M 378.882,-18.6995 L 378.064,-18.8734 L 377.3,-19.2135 L 376.623,-19.705 L 376.064,-20.3265 L 375.646,-21.0506
 L 375.387,-21.8459 L 375.3,-22.6776 L 375.3,-57.3224 L 375.432,-58.3414 L 375.728,-59.1233 L 376.181,-59.8266
 L 376.77,-60.4204 L 377.469,-60.8788 L 378.248,-61.1817 L 379.074,-61.316 L 379.909,-61.2758 L 380.718,-61.0627
 L 426.418,-43.7403 L 426.832,-43.5564 L 427.531,-43.098 L 428.12,-42.5042 L 428.572,-41.8009 L 428.869,-41.019
 L 428.996,-40.1925 L 428.949,-39.3576 L 428.729,-38.5508 L 428.346,-37.8073 L 427.817,-37.1597 L 427.165,-36.6362
 L 426.418,-36.2597 L 380.718,-18.9373 L 379.718,-18.6995 z
M 532.091,-18.7242 L 531.282,-18.9373 L 485.582,-36.2597 L 485.168,-36.4436 L 484.469,-36.902 L 483.88,-37.4958
 L 483.428,-38.1991 L 483.131,-38.981 L 483.004,-39.8075 L 483.051,-40.6424 L 483.271,-41.4492 L 483.654,-42.1927
 L 484.183,-42.8403 L 484.835,-43.3638 L 485.582,-43.7403 L 531.282,-61.0627 L 532.282,-61.3005 L 533.118,-61.3005
 L 533.936,-61.1266 L 534.7,-60.7865 L 535.377,-60.295 L 535.936,-59.6736 L 536.354,-58.9494 L 536.613,-58.1541
 L 536.7,-57.3224 L 536.7,-22.6776 L 536.568,-21.6586 L 536.272,-20.8766 L 535.819,-20.1734 L 535.23,-19.5796
 L 534.531,-19.1212 L 533.752,-18.8183 L 532.926,-18.684 z
M 199.9,-18 L 198.664,-18.1958 L 197.9,-18.5359 L 197.223,-19.0274 L 196.664,-19.6489 L 196.246,-20.373
 L 195.987,-21.1684 L 195.9,-22 L 195.9,-55.186 L 196.032,-56.205 L 196.328,-56.987 L 196.781,-57.6902
 L 197.37,-58.284 L 198.069,-58.7424 L 198.848,-59.0453 L 199.674,-59.1796 L 200.509,-59.1394 L 201.318,-58.9264
 L 288.87,-25.7403 L 289.804,-25.2361 L 290.425,-24.6765 L 290.917,-24 L 291.257,-23.2361 L 291.431,-22.4181
 L 291.431,-21.5819 L 291.257,-20.7639 L 290.917,-20 L 290.425,-19.3235 L 289.804,-18.7639 L 289.08,-18.3458
 L 288.284,-18.0874 L 287.453,-18 z
M 624.547,-18 L 623.716,-18.0874 L 622.92,-18.3458 L 622.196,-18.7639 L 621.575,-19.3235 L 621.083,-20
 L 620.743,-20.7639 L 620.569,-21.5819 L 620.569,-22.4181 L 620.743,-23.2361 L 621.083,-24 L 621.575,-24.6765
 L 622.196,-25.2361 L 623.13,-25.7403 L 710.682,-58.9264 L 711.491,-59.1394 L 712.326,-59.1796 L 713.152,-59.0453
 L 713.931,-58.7424 L 714.63,-58.284 L 715.219,-57.6902 L 715.672,-56.987 L 715.968,-56.205 L 716.1,-55.186
 L 716.1,-22 L 716.013,-21.1684 L 715.754,-20.373 L 715.336,-19.6489 L 714.777,-19.0274 L 714.1,-18.5359
 L 713.336,-18.1958 L 712.1,-18 z
M 22,-18 L 20.7639,-18.1958 L 20,-18.5359 L 19.3235,-19.0274 L 18.7639,-19.6489 L 18.3458,-20.373
 L 18.0874,-21.1684 L 18,-22 L 18,-54.6175 L 18.132,-55.6365 L 18.4284,-56.4184 L 18.8808,-57.1216
 L 19.4697,-57.7154 L 20.1691,-58.1738 L 20.9485,-58.4768 L 21.7738,-58.6111 L 22.6091,-58.5708 L 23.4177,-58.3578
 L 109.47,-25.7403 L 110.404,-25.2361 L 111.025,-24.6765 L 111.517,-24 L 111.857,-23.2361 L 112.031,-22.4181
 L 112.031,-21.5819 L 111.857,-20.7639 L 111.517,-20 L 111.025,-19.3235 L 110.404,-18.7639 L 109.68,-18.3458
 L 108.884,-18.0874 L 108.053,-18 z
M 803.947,-18 L 803.116,-18.0874 L 802.32,-18.3458 L 801.596,-18.7639 L 800.975,-19.3235 L 800.483,-20
 L 800.143,-20.7639 L 799.969,-21.5819 L 799.969,-22.4181 L 800.143,-23.2361 L 800.483,-24 L 800.975,-24.6765
 L 801.596,-25.2361 L 802.53,-25.7403 L 888.582,-58.3578 L 889.391,-58.5708 L 890.226,-58.6111 L 891.052,-58.4768
 L 891.831,-58.1738 L 892.53,-57.7154 L 893.119,-57.1216 L 893.572,-56.4184 L 893.868,-55.6365 L 894,-54.6175
 L 894,-22 L 893.913,-21.1684 L 893.654,-20.373 L 893.236,-19.6489 L 892.677,-19.0274 L 892,-18.5359
 L 891.236,-18.1958 L 890,-18 z
M 439.511,-18 L 438.46,-18.1407 L 437.68,-18.4436 L 436.981,-18.902 L 436.392,-19.4958 L 435.939,-20.1991
 L 435.643,-20.981 L 435.516,-21.8075 L 435.563,-22.6424 L 435.783,-23.4492 L 436.166,-24.1927 L 436.695,-24.8403
 L 437.347,-25.3638 L 438.093,-25.7403 L 454.582,-31.9903 L 455.774,-32.2436 L 456.609,-32.2033 L 457.418,-31.9903
 L 473.907,-25.7403 L 474.84,-25.2361 L 475.461,-24.6765 L 475.953,-24 L 476.293,-23.2361 L 476.467,-22.4181
 L 476.467,-21.5819 L 476.293,-20.7639 L 475.953,-20 L 475.461,-19.3235 L 474.84,-18.7639 L 474.116,-18.3458
 L 473.32,-18.0874 L 472.489,-18 z
" stroke="black" fill="lightgray" stroke-width="0.5"/>
</svg>
