<?xml version="1.0" standalone="no"?>
<!DOCTYPE svg PUBLIC "-//W3C//DTD SVG 1.1//EN" "http://www.w3.org/Graphics/SVG/1.1/DTD/svg11.dtd">
<svg width="539mm" height="80mm" viewBox="0 -80 539 80" xmlns="http://www.w3.org/2000/svg" version="1.1">
<title>OpenSCAD Model</title>
<path d="
M 539,-80 L 0,-80 L 0,-0 L 4.95,-0 L 4.95,-6 L 5.00572,-6.53017
 L 5.17046,-7.03717 L 5.437,-7.49884 L 5.79372,-7.895 L 6.22499,-8.20836 L 6.71201,-8.42519 L 7.23344,-8.53603
 L 7.76654,-8.53603 L 8.28798,-8.42519 L 8.77499,-8.20836 L 9.20627,-7.895 L 9.56299,-7.49884 L 9.82953,-7.03717
 L 9.99426,-6.53017 L 10.05,-6 L 10.05,-0 L 135.95,-0 L 135.95,-6 L 136.006,-6.53017
 L 136.17,-7.03717 L 136.437,-7.49884 L 136.794,-7.895 L 137.225,-8.20836 L 137.712,-8.42519 L 138.233,-8.53603
 L 138.767,-8.53603 L 139.288,-8.42519 L 139.775,-8.20836 L 140.206,-7.895 L 140.563,-7.49884 L 140.83,-7.03717
 L 140.994,-6.53017 L 141.05,-6 L 141.05,-0 L 266.95,-0 L 266.95,-6 L 267.006,-6.53017
 L 267.17,-7.03717 L 267.437,-7.49884 L 267.794,-7.895 L 268.225,-8.20836 L 268.712,-8.42519 L 269.233,-8.53603
 L 269.767,-8.53603 L 270.288,-8.42519 L 270.775,-8.20836 L 271.206,-7.895 L 271.563,-7.49884 L 271.83,-7.03717
 L 271.994,-6.53017 L 272.05,-6 L 272.05,-0 L 397.95,-0 L 397.95,-6 L 398.006,-6.53017
 L 398.17,-7.03717 L 398.437,-7.49884 L 398.794,-7.895 L 399.225,-8.20836 L 399.712,-8.42519 L 400.233,-8.53603
 L 400.767,-8.53603 L 401.288,-8.42519 L 401.775,-8.20836 L 402.206,-7.895 L 402.563,-7.49884 L 402.83,-7.03717
 L 402.994,-6.53017 L 403.05,-6 L 403.05,-0 L 528.95,-0 L 528.95,-6 L 529.006,-6.53017
 L 529.17,-7.03717 L 529.437,-7.49884 L 529.794,-7.895 L 530.225,-8.20836 L 530.712,-8.42519 L 531.233,-8.53603
 L 531.767,-8.53603 L 532.288,-8.42519 L 532.775,-8.20836 L 533.206,-7.895 L 533.563,-7.49884 L 533.83,-7.03717
 L 533.994,-6.53017 L 534.05,-6 L 534.05,-0 L 539,-0 z
M 6.98573,-55.607 L 6.47708,-55.6875 L 5.97964,-55.8208 L 5.49887,-56.0054 L 5.04001,-56.2392 L 4.60811,-56.5196
 L 4.20789,-56.8437 L 3.84373,-57.2079 L 3.51964,-57.6081 L 3.23917,-58.04 L 3.00537,-58.4989 L 2.82082,-58.9796
 L 2.68752,-59.4771 L 2.60696,-59.9857 L 2.58,-60.5 L 2.60696,-61.0143 L 2.68752,-61.5229 L 2.82082,-62.0204
 L 3.00537,-62.5011 L 3.23917,-62.96 L 3.51964,-63.3919 L 3.84373,-63.7921 L 4.20789,-64.1563 L 4.60811,-64.4804
 L 4.95001,-64.7024 L 4.95001,-74 L 5.00574,-74.5302 L 5.17047,-75.0372 L 5.43701,-75.4988 L 5.79373,-75.895
 L 6.22501,-76.2084 L 6.71202,-76.4252 L 7.23346,-76.536 L 7.76654,-76.536 L 8.28798,-76.4252 L 8.77499,-76.2084
 L 9.20627,-75.895 L 9.56299,-75.4988 L 9.82953,-75.0372 L 9.99426,-74.5302 L 10.05,-74 L 10.05,-64.7024
 L 10.3919,-64.4804 L 10.7921,-64.1563 L 11.1563,-63.7921 L 11.4804,-63.3919 L 11.7608,-62.96 L 11.9946,-62.5011
 L 12.1792,-62.0204 L 12.3125,-61.5229 L 12.393,-61.0143 L 12.42,-60.5 L 12.393,-59.9857 L 12.3125,-59.4771
 L 12.1792,-58.9796 L 11.9946,-58.4989 L 11.7608,-58.04 L 11.4804,-57.6081 L 11.1563,-57.2079 L 10.7921,-56.8437
 L 10.3919,-56.5196 L 9.95999,-56.2392 L 9.50113,-56.0054 L 9.02036,-55.8208 L 8.52292,-55.6875 L 8.01427,-55.607
 L 7.5,-55.58 z
M 137.986,-55.607 L 137.477,-55.6875 L 136.98,-55.8208 L 136.499,-56.0054 L 136.04,-56.2392 L 135.608,-56.5196
 L 135.208,-56.8437 L 134.844,-57.2079 L 134.52,-57.6081 L 134.239,-58.04 L 134.005,-58.4989 L 133.821,-58.9796
 L 133.688,-59.4771 L 133.607,-59.9857 L 133.58,-60.5 L 133.607,-61.0143 L 133.688,-61.5229 L 133.821,-62.0204
 L 134.005,-62.5011 L 134.239,-62.96 L 134.52,-63.3919 L 134.844,-63.7921 L 135.208,-64.1563 L 135.608,-64.4804
 L 135.95,-64.7024 L 135.95,-74 L 136.006,-74.5302 L 136.17,-75.0372 L 136.437,-75.4988 L 136.794,-75.895
 L 137.225,-76.2084 L 137.712,-76.4252 L 138.233,-76.536 L 138.767,-76.536 L 139.288,-76.4252 L 139.775,-76.2084
 L 140.206,-75.895 L 140.563,-75.4988 L 140.83,-75.0372 L 140.994,-74.5302 L 141.05,-74 L 141.05,-64.7024
 L 141.392,-64.4804 L 141.792,-64.1563 L 142.156,-63.7921 L 142.48,-63.3919 L 142.761,-62.96 L 142.995,-62.5011
 L 143.179,-62.0204 L 143.312,-61.5229 L 143.393,-61.0143 L 143.42,-60.5 L 143.393,-59.9857 L 143.312,-59.4771
 L 143.179,-58.9796 L 142.995,-58.4989 L 142.761,-58.04 L 142.48,-57.6081 L 142.156,-57.2079 L 141.792,-56.8437
 L 141.392,-56.5196 L 140.96,-56.2392 L 140.501,-56.0054 L 140.02,-55.8208 L 139.523,-55.6875 L 139.014,-55.607
 L 138.5,-55.58 z
M 268.986,-55.607 L 268.477,-55.6875 L 267.98,-55.8208 L 267.499,-56.0054 L 267.04,-56.2392 L 266.608,-56.5196
 L 266.208,-56.8437 L 265.844,-57.2079 L 265.52,-57.6081 L 265.239,-58.04 L 265.005,-58.4989 L 264.821,-58.9796
 L 264.688,-59.4771 L 264.607,-59.9857 L 264.58,-60.5 L 264.607,-61.0143 L 264.688,-61.5229 L 264.821,-62.0204
 L 265.005,-62.5011 L 265.239,-62.96 L 265.52,-63.3919 L 265.844,-63.7921 L 266.208,-64.1563 L 266.608,-64.4804
 L 266.95,-64.7024 L 266.95,-74 L 267.006,-74.5302 L 267.17,-75.0372 L 267.437,-75.4988 L 267.794,-75.895
 L 268.225,-76.2084 L 268.712,-76.4252 L 269.233,-76.536 L 269.767,-76.536 L 270.288,-76.4252 L 270.775,-76.2084
 L 271.206,-75.895 L 271.563,-75.4988 L 271.83,-75.0372 L 271.994,-74.5302 L 272.05,-74 L 272.05,-64.7024
 L 272.392,-64.4804 L 272.792,-64.1563 L 273.156,-63.7921 L 273.48,-63.3919 L 273.761,-62.96 L 273.995,-62.5011
 L 274.179,-62.0204 L 274.312,-61.5229 L 274.393,-61.0143 L 274.42,-60.5 L 274.393,-59.9857 L 274.312,-59.4771
 L 274.179,-58.9796 L 273.995,-58.4989 L 273.761,-58.04 L 273.48,-57.6081 L 273.156,-57.2079 L 272.792,-56.8437
 L 272.392,-56.5196 L 271.96,-56.2392 L 271.501,-56.0054 L 271.02,-55.8208 L 270.523,-55.6875 L 270.014,-55.607
 L 269.5,-55.58 z
M 399.986,-55.607 L 399.477,-55.6875 L 398.98,-55.8208 L 398.499,-56.0054 L 398.04,-56.2392 L 397.608,-56.5196
 L 397.208,-56.8437 L 396.844,-57.2079 L 396.52,-57.6081 L 396.239,-58.04 L 396.005,-58.4989 L 395.821,-58.9796
 L 395.688,-59.4771 L 395.607,-59.9857 L 395.58,-60.5 L 395.607,-61.0143 L 395.688,-61.5229 L 395.821,-62.0204
 L 396.005,-62.5011 L 396.239,-62.96 L 396.52,-63.3919 L 396.844,-63.7921 L 397.208,-64.1563 L 397.608,-64.4804
 L 397.95,-64.7024 L 397.95,-74 L 398.006,-74.5302 L 398.17,-75.0372 L 398.437,-75.4988 L 398.794,-75.895
 L 399.225,-76.2084 L 399.712,-76.4252 L 400.233,-76.536 L 400.767,-76.536 L 401.288,-76.4252 L 401.775,-76.2084
 L 402.206,-75.895 L 402.563,-75.4988 L 402.83,-75.0372 L 402.994,-74.5302 L 403.05,-74 L 403.05,-64.7024
 L 403.392,-64.4804 L 403.792,-64.1563 L 404.156,-63.7921 L 404.48,-63.3919 L 404.761,-62.96 L 404.995,-62.5011
 L 405.179,-62.0204 L 405.312,-61.5229 L 405.393,-61.0143 L 405.42,-60.5 L 405.393,-59.9857 L 405.312,-59.4771
 L 405.179,-58.9796 L 404.995,-58.4989 L 404.761,-58.04 L 404.48,-57.6081 L 404.156,-57.2079 L 403.792,-56.8437
 L 403.392,-56.5196 L 402.96,-56.2392 L 402.501,-56.0054 L 402.02,-55.8208 L 401.523,-55.6875 L 401.014,-55.607
 L 400.5,-55.58 z
M 530.986,-55.607 L 530.477,-55.6875 L 529.98,-55.8208 L 529.499,-56.0054 L 529.04,-56.2392 L 528.608,-56.5196
 L 528.208,-56.8437 L 527.844,-57.2079 L 527.52,-57.6081 L 527.239,-58.04 L 527.005,-58.4989 L 526.821,-58.9796
 L 526.688,-59.4771 L 526.607,-59.9857 L 526.58,-60.5 L 526.607,-61.0143 L 526.688,-61.5229 L 526.821,-62.0204
 L 527.005,-62.5011 L 527.239,-62.96 L 527.52,-63.3919 L 527.844,-63.7921 L 528.208,-64.1563 L 528.608,-64.4804
 L 528.95,-64.7024 L 528.95,-74 L 529.006,-74.5302 L 529.17,-75.0372 L 529.437,-75.4988 L 529.794,-75.895
 L 530.225,-76.2084 L 530.712,-76.4252 L 531.233,-76.536 L 531.767,-76.536 L 532.288,-76.4252 L 532.775,-76.2084
 L 533.206,-75.895 L 533.563,-75.4988 L 533.83,-75.0372 L 533.994,-74.5302 L 534.05,-74 L 534.05,-64.7024
 L 534.392,-64.4804 L 534.792,-64.1563 L 535.156,-63.7921 L 535.48,-63.3919 L 535.761,-62.96 L 535.995,-62.5011
 L 536.179,-62.0204 L 536.312,-61.5229 L 536.393,-61.0143 L 536.42,-60.5 L 536.393,-59.9857 L 536.312,-59.4771
 L 536.179,-58.9796 L 535.995,-58.4989 L 535.761,-58.04 L 535.48,-57.6081 L 535.156,-57.2079 L 534.792,-56.8437
 L 534.392,-56.5196 L 533.96,-56.2392 L 533.501,-56.0054 L 533.02,-55.8208 L 532.523,-55.6875 L 532.014,-55.607
 L 531.5,-55.58 z
M 281.904,-23.4251 L 281.095,-23.6354 L 280.347,-24.0094 L 279.693,-24.5307 L 279.162,-25.1766 L 278.777,-25.9188
 L 278.554,-26.7249 L 278.5,-27.3804 L 278.5,-58 L 278.587,-58.8316 L 278.846,-59.627 L 279.264,-60.3511
 L 279.823,-60.9726 L 280.5,-61.4641 L 281.264,-61.8042 L 282.5,-62 L 341.488,-62 L 342.319,-61.9126
 L 343.115,-61.6542 L 343.839,-61.2361 L 344.46,-60.6765 L 344.952,-60 L 345.292,-59.2361 L 345.466,-58.4181
 L 345.466,-57.5819 L 345.292,-56.7639 L 344.952,-56 L 344.46,-55.3235 L 343.839,-54.7639 L 343.331,-54.4498
 L 284.343,-23.8302 L 283.564,-23.5247 L 282.74,-23.3876 z
M 255.436,-23.5247 L 254.657,-23.8302 L 195.669,-54.4498 L 195.161,-54.7639 L 194.54,-55.3235 L 194.048,-56
 L 193.708,-56.7639 L 193.534,-57.5819 L 193.534,-58.4181 L 193.708,-59.2361 L 194.048,-60 L 194.54,-60.6765
 L 195.161,-61.2361 L 195.885,-61.6542 L 196.681,-61.9126 L 197.512,-62 L 256.5,-62 L 257.736,-61.8042
 L 258.5,-61.4641 L 259.177,-60.9726 L 259.736,-60.3511 L 260.154,-59.627 L 260.413,-58.8316 L 260.5,-58
 L 260.5,-27.3804 L 260.446,-26.7249 L 260.223,-25.9188 L 259.838,-25.1766 L 259.307,-24.5307 L 258.653,-24.0094
 L 257.905,-23.6354 L 257.096,-23.4251 L 256.26,-23.3876 z
M 412.904,-23.4251 L 412.095,-23.6354 L 411.347,-24.0094 L 410.693,-24.5307 L 410.162,-25.1766 L 409.777,-25.9188
 L 409.554,-26.7249 L 409.5,-27.3804 L 409.5,-58 L 409.587,-58.8316 L 409.846,-59.627 L 410.264,-60.3511
 L 410.823,-60.9726 L 411.5,-61.4641 L 412.264,-61.8042 L 413.5,-62 L 472.488,-62 L 473.319,-61.9126
 L 474.115,-61.6542 L 474.839,-61.2361 L 475.46,-60.6765 L 475.952,-60 L 476.292,-59.2361 L 476.466,-58.4181
 L 476.466,-57.5819 L 476.292,-56.7639 L 475.952,-56 L 475.46,-55.3235 L 474.839,-54.7639 L 474.331,-54.4498
 L 415.343,-23.8302 L 414.564,-23.5247 L 413.74,-23.3876 z
M 124.436,-23.5247 L 123.657,-23.8302 L 64.6695,-54.4498 L 64.1612,-54.7639 L 63.5398,-55.3235 L 63.0482,-56
 L 62.7081,-56.7639 L 62.5343,-57.5819 L 62.5343,-58.4181 L 62.7081,-59.2361 L 63.0482,-60 L 63.5398,-60.6765
 L 64.1612,-61.2361 L 64.8854,-61.6542 L 65.6807,-61.9126 L 66.5123,-62 L 125.5,-62 L 126.736,-61.8042
 L 127.5,-61.4641 L 128.177,-60.9726 L 128.736,-60.3511 L 129.154,-59.627 L 129.413,-58.8316 L 129.5,-58
 L 129.5,-27.3804 L 129.446,-26.7249 L 129.223,-25.9188 L 128.838,-25.1766 L 128.307,-24.5307 L 127.653,-24.0094
 L 126.905,-23.6354 L 126.096,-23.4251 L 125.26,-23.3876 z
M 328.512,-18 L 327.681,-18.0874 L 326.885,-18.3458 L 326.161,-18.7639 L 325.54,-19.3235 L 325.048,-20
 L 324.708,-20.7639 L 324.534,-21.5819 L 324.534,-22.4181 L 324.708,-23.2361 L 325.048,-24 L 325.54,-24.6765
 L 326.161,-25.2361 L 326.67,-25.5502 L 385.657,-56.1697 L 386.436,-56.4753 L 387.26,-56.6124 L 388.096,-56.5749
 L 388.905,-56.3646 L 389.653,-55.9906 L 390.307,-55.4693 L 390.838,-54.8234 L 391.223,-54.0812 L 391.446,-53.2751
 L 391.5,-52.6195 L 391.5,-22 L 391.413,-21.1684 L 391.154,-20.373 L 390.736,-19.6489 L 390.177,-19.0274
 L 389.5,-18.5359 L 388.736,-18.1958 L 387.5,-18 z
M 151.5,-18 L 150.264,-18.1958 L 149.5,-18.5359 L 148.823,-19.0274 L 148.264,-19.6489 L 147.846,-20.373
 L 147.587,-21.1684 L 147.5,-22 L 147.5,-52.6195 L 147.554,-53.2751 L 147.777,-54.0812 L 148.162,-54.8234
 L 148.693,-55.4693 L 149.347,-55.9906 L 150.095,-56.3646 L 150.904,-56.5749 L 151.74,-56.6124 L 152.564,-56.4753
 L 153.343,-56.1697 L 212.33,-25.5502 L 212.839,-25.2361 L 213.46,-24.6765 L 213.952,-24 L 214.292,-23.2361
 L 214.466,-22.4181 L 214.466,-21.5819 L 214.292,-20.7639 L 213.952,-20 L 213.46,-19.3235 L 212.839,-18.7639
 L 212.115,-18.3458 L 211.319,-18.0874 L 210.488,-18 z
M 22,-18 L 20.7639,-18.1958 L 20,-18.5359 L 19.3235,-19.0274 L 18.7639,-19.6489 L 18.3458,-20.373
 L 18.0874,-21.1684 L 18,-22 L 18,-51.8409 L 18.0541,-52.4965 L 18.2766,-53.3026 L 18.6619,-54.0448
 L 19.193,-54.6906 L 19.8469,-55.212 L 20.5948,-55.586 L 21.4041,-55.7963 L 22.2395,-55.8337 L 23.0645,-55.6967
 L 23.8428,-55.3911 L 81.3305,-25.5502 L 81.8388,-25.2361 L 82.4602,-24.6765 L 82.9517,-24 L 83.2919,-23.2361
 L 83.4657,-22.4181 L 83.4657,-21.5819 L 83.2919,-20.7639 L 82.9517,-20 L 82.4602,-19.3235 L 81.8388,-18.7639
 L 81.1146,-18.3458 L 80.3193,-18.0874 L 79.4876,-18 z
M 459.512,-18 L 458.681,-18.0874 L 457.885,-18.3458 L 457.161,-18.7639 L 456.54,-19.3235 L 456.048,-20
 L 455.708,-20.7639 L 455.534,-21.5819 L 455.534,-22.4181 L 455.708,-23.2361 L 456.048,-24 L 456.54,-24.6765
 L 457.161,-25.2361 L 457.67,-25.5502 L 515.157,-55.3911 L 515.936,-55.6967 L 516.76,-55.8337 L 517.596,-55.7963
 L 518.405,-55.586 L 519.153,-55.212 L 519.807,-54.6906 L 520.338,-54.0448 L 520.723,-53.3026 L 520.946,-52.4965
 L 521,-51.8409 L 521,-22 L 520.913,-21.1684 L 520.654,-20.373 L 520.236,-19.6489 L 519.677,-19.0274
 L 519,-18.5359 L 518.236,-18.1958 L 517,-18 z
" stroke="black" fill="lightgray" stroke-width="0.5"/>
</svg>
