<?xml version="1.0" standalone="no"?>
<!DOCTYPE svg PUBLIC "-//W3C//DTD SVG 1.1//EN" "http://www.w3.org/Graphics/SVG/1.1/DTD/svg11.dtd">
<svg width="963mm" height="80mm" viewBox="0 -80 963 80" xmlns="http://www.w3.org/2000/svg" version="1.1">
<title>OpenSCAD Model</title>
<path d="
M 963,-80 L 0,-80 L 0,-0 L 4.95,-0 L 4.95,-6 L 5.00572,-6.53017
 L 5.17046,-7.03717 L 5.437,-7.49884 L 5.79372,-7.895 L 6.22499,-8.20836 L 6.71201,-8.42519 L 7.23344,-8.53603
 L 7.76654,-8.53603 L 8.28798,-8.42519 L 8.77499,-8.20836 L 9.20627,-7.895 L 9.56299,-7.49884 L 9.82953,-7.03717
 L 9.99426,-6.53017 L 10.05,-6 L 10.05,-0 L 194.55,-0 L 194.55,-6 L 194.606,-6.53017
 L 194.77,-7.03717 L 195.037,-7.49884 L 195.394,-7.895 L 195.825,-8.20836 L 196.312,-8.42519 L 196.833,-8.53603
 L 197.367,-8.53603 L 197.888,-8.42519 L 198.375,-8.20836 L 198.806,-7.895 L 199.163,-7.49884 L 199.43,-7.03717
 L 199.594,-6.53017 L 199.65,-6 L 199.65,-0 L 384.15,-0 L 384.15,-6 L 384.206,-6.53017
 L 384.37,-7.03717 L 384.637,-7.49884 L 384.994,-7.895 L 385.425,-8.20836 L 385.912,-8.42519 L 386.433,-8.53603
 L 386.967,-8.53603 L 387.488,-8.42519 L 387.975,-8.20836 L 388.406,-7.895 L 388.763,-7.49884 L 389.03,-7.03717
 L 389.194,-6.53017 L 389.25,-6 L 389.25,-0 L 573.75,-0 L 573.75,-6 L 573.806,-6.53017
 L 573.97,-7.03717 L 574.237,-7.49884 L 574.594,-7.895 L 575.025,-8.20836 L 575.512,-8.42519 L 576.033,-8.53603
 L 576.567,-8.53603 L 577.088,-8.42519 L 577.575,-8.20836 L 578.006,-7.895 L 578.363,-7.49884 L 578.63,-7.03717
 L 578.794,-6.53017 L 578.85,-6 L 578.85,-0 L 763.35,-0 L 763.35,-6 L 763.406,-6.53017
 L 763.57,-7.03717 L 763.837,-7.49884 L 764.194,-7.895 L 764.625,-8.20836 L 765.112,-8.42519 L 765.633,-8.53603
 L 766.167,-8.53603 L 766.688,-8.42519 L 767.175,-8.20836 L 767.606,-7.895 L 767.963,-7.49884 L 768.23,-7.03717
 L 768.394,-6.53017 L 768.45,-6 L 768.45,-0 L 952.95,-0 L 952.95,-6 L 953.006,-6.53017
 L 953.17,-7.03717 L 953.437,-7.49884 L 953.794,-7.895 L 954.225,-8.20836 L 954.712,-8.42519 L 955.233,-8.53603
 L 955.767,-8.53603 L 956.288,-8.42519 L 956.775,-8.20836 L 957.206,-7.895 L 957.563,-7.49884 L 957.83,-7.03717
 L 957.994,-6.53017 L 958.05,-6 L 958.05,-0 L 963,-0 z
M 6.98573,-55.607 L 6.47708,-55.6875 L 5.97964,-55.8208 L 5.49887,-56.0054 L 5.04001,-56.2392 L 4.60811,-56.5196
 L 4.20789,-56.8437 L 3.84373,-57.2079 L 3.51964,-57.6081 L 3.23917,-58.04 L 3.00537,-58.4989 L 2.82082,-58.9796
 L 2.68752,-59.4771 L 2.60696,-59.9857 L 2.58,-60.5 L 2.60696,-61.0143 L 2.68752,-61.5229 L 2.82082,-62.0204
 L 3.00537,-62.5011 L 3.23917,-62.96 L 3.51964,-63.3919 L 3.84373,-63.7921 L 4.20789,-64.1563 L 4.60811,-64.4804
 L 4.95001,-64.7024 L 4.95001,-74 L 5.00574,-74.5302 L 5.17047,-75.0372 L 5.43701,-75.4988 L 5.79373,-75.895
 L 6.22501,-76.2084 L 6.71202,-76.4252 L 7.23346,-76.536 L 7.76654,-76.536 L 8.28798,-76.4252 L 8.77499,-76.2084
 L 9.20627,-75.895 L 9.56299,-75.4988 L 9.82953,-75.0372 L 9.99426,-74.5302 L 10.05,-74 L 10.05,-64.7024
 L 10.3919,-64.4804 L 10.7921,-64.1563 L 11.1563,-63.7921 L 11.4804,-63.3919 L 11.7608,-62.96 L 11.9946,-62.5011
 L 12.1792,-62.0204 L 12.3125,-61.5229 L 12.393,-61.0143 L 12.42,-60.5 L 12.393,-59.9857 L 12.3125,-59.4771
 L 12.1792,-58.9796 L 11.9946,-58.4989 L 11.7608,-58.04 L 11.4804,-57.6081 L 11.1563,-57.2079 L 10.7921,-56.8437
 L 10.3919,-56.5196 L 9.95999,-56.2392 L 9.50113,-56.0054 L 9.02036,-55.8208 L 8.52292,-55.6875 L 8.01427,-55.607
 L 7.5,-55.58 z
M 196.586,-55.607 L 196.077,-55.6875 L 195.58,-55.8208 L 195.099,-56.0054 L 194.64,-56.2392 L 194.208,-56.5196
 L 193.808,-56.8437 L 193.444,-57.2079 L 193.12,-57.6081 L 192.839,-58.04 L 192.605,-58.4989 L 192.421,-58.9796
 L 192.288,-59.4771 L 192.207,-59.9857 L 192.18,-60.5 L 192.207,-61.0143 L 192.288,-61.5229 L 192.421,-62.0204
 L 192.605,-62.5011 L 192.839,-62.96 L 193.12,-63.3919 L 193.444,-63.7921 L 193.808,-64.1563 L 194.208,-64.4804
 L 194.55,-64.7024 L 194.55,-74 L 194.606,-74.5302 L 194.77,-75.0372 L 195.037,-75.4988 L 195.394,-75.895
 L 195.825,-76.2084 L 196.312,-76.4252 L 196.833,-76.536 L 197.367,-76.536 L 197.888,-76.4252 L 198.375,-76.2084
 L 198.806,-75.895 L 199.163,-75.4988 L 199.43,-75.0372 L 199.594,-74.5302 L 199.65,-74 L 199.65,-64.7024
 L 199.992,-64.4804 L 200.392,-64.1563 L 200.756,-63.7921 L 201.08,-63.3919 L 201.361,-62.96 L 201.595,-62.5011
 L 201.779,-62.0204 L 201.912,-61.5229 L 201.993,-61.0143 L 202.02,-60.5 L 201.993,-59.9857 L 201.912,-59.4771
 L 201.779,-58.9796 L 201.595,-58.4989 L 201.361,-58.04 L 201.08,-57.6081 L 200.756,-57.2079 L 200.392,-56.8437
 L 199.992,-56.5196 L 199.56,-56.2392 L 199.101,-56.0054 L 198.62,-55.8208 L 198.123,-55.6875 L 197.614,-55.607
 L 197.1,-55.58 z
M 386.186,-55.607 L 385.677,-55.6875 L 385.18,-55.8208 L 384.699,-56.0054 L 384.24,-56.2392 L 383.808,-56.5196
 L 383.408,-56.8437 L 383.044,-57.2079 L 382.72,-57.6081 L 382.439,-58.04 L 382.205,-58.4989 L 382.021,-58.9796
 L 381.888,-59.4771 L 381.807,-59.9857 L 381.78,-60.5 L 381.807,-61.0143 L 381.888,-61.5229 L 382.021,-62.0204
 L 382.205,-62.5011 L 382.439,-62.96 L 382.72,-63.3919 L 383.044,-63.7921 L 383.408,-64.1563 L 383.808,-64.4804
 L 384.15,-64.7024 L 384.15,-74 L 384.206,-74.5302 L 384.37,-75.0372 L 384.637,-75.4988 L 384.994,-75.895
 L 385.425,-76.2084 L 385.912,-76.4252 L 386.433,-76.536 L 386.967,-76.536 L 387.488,-76.4252 L 387.975,-76.2084
 L 388.406,-75.895 L 388.763,-75.4988 L 389.03,-75.0372 L 389.194,-74.5302 L 389.25,-74 L 389.25,-64.7024
 L 389.592,-64.4804 L 389.992,-64.1563 L 390.356,-63.7921 L 390.68,-63.3919 L 390.961,-62.96 L 391.195,-62.5011
 L 391.379,-62.0204 L 391.512,-61.5229 L 391.593,-61.0143 L 391.62,-60.5 L 391.593,-59.9857 L 391.512,-59.4771
 L 391.379,-58.9796 L 391.195,-58.4989 L 390.961,-58.04 L 390.68,-57.6081 L 390.356,-57.2079 L 389.992,-56.8437
 L 389.592,-56.5196 L 389.16,-56.2392 L 388.701,-56.0054 L 388.22,-55.8208 L 387.723,-55.6875 L 387.214,-55.607
 L 386.7,-55.58 z
M 575.786,-55.607 L 575.277,-55.6875 L 574.78,-55.8208 L 574.299,-56.0054 L 573.84,-56.2392 L 573.408,-56.5196
 L 573.008,-56.8437 L 572.644,-57.2079 L 572.32,-57.6081 L 572.039,-58.04 L 571.805,-58.4989 L 571.621,-58.9796
 L 571.488,-59.4771 L 571.407,-59.9857 L 571.38,-60.5 L 571.407,-61.0143 L 571.488,-61.5229 L 571.621,-62.0204
 L 571.805,-62.5011 L 572.039,-62.96 L 572.32,-63.3919 L 572.644,-63.7921 L 573.008,-64.1563 L 573.408,-64.4804
 L 573.75,-64.7024 L 573.75,-74 L 573.806,-74.5302 L 573.97,-75.0372 L 574.237,-75.4988 L 574.594,-75.895
 L 575.025,-76.2084 L 575.512,-76.4252 L 576.033,-76.536 L 576.567,-76.536 L 577.088,-76.4252 L 577.575,-76.2084
 L 578.006,-75.895 L 578.363,-75.4988 L 578.63,-75.0372 L 578.794,-74.5302 L 578.85,-74 L 578.85,-64.7024
 L 579.192,-64.4804 L 579.592,-64.1563 L 579.956,-63.7921 L 580.28,-63.3919 L 580.561,-62.96 L 580.795,-62.5011
 L 580.979,-62.0204 L 581.112,-61.5229 L 581.193,-61.0143 L 581.22,-60.5 L 581.193,-59.9857 L 581.112,-59.4771
 L 580.979,-58.9796 L 580.795,-58.4989 L 580.561,-58.04 L 580.28,-57.6081 L 579.956,-57.2079 L 579.592,-56.8437
 L 579.192,-56.5196 L 578.76,-56.2392 L 578.301,-56.0054 L 577.82,-55.8208 L 577.323,-55.6875 L 576.814,-55.607
 L 576.3,-55.58 z
M 765.386,-55.607 L 764.877,-55.6875 L 764.38,-55.8208 L 763.899,-56.0054 L 763.44,-56.2392 L 763.008,-56.5196
 L 762.608,-56.8437 L 762.244,-57.2079 L 761.92,-57.6081 L 761.639,-58.04 L 761.405,-58.4989 L 761.221,-58.9796
 L 761.088,-59.4771 L 761.007,-59.9857 L 760.98,-60.5 L 761.007,-61.0143 L 761.088,-61.5229 L 761.221,-62.0204
 L 761.405,-62.5011 L 761.639,-62.96 L 761.92,-63.3919 L 762.244,-63.7921 L 762.608,-64.1563 L 763.008,-64.4804
 L 763.35,-64.7024 L 763.35,-74 L 763.406,-74.5302 L 763.57,-75.0372 L 763.837,-75.4988 L 764.194,-75.895
 L 764.625,-76.2084 L 765.112,-76.4252 L 765.633,-76.536 L 766.167,-76.536 L 766.688,-76.4252 L 767.175,-76.2084
 L 767.606,-75.895 L 767.963,-75.4988 L 768.23,-75.0372 L 768.394,-74.5302 L 768.45,-74 L 768.45,-64.7024
 L 768.792,-64.4804 L 769.192,-64.1563 L 769.556,-63.7921 L 769.88,-63.3919 L 770.161,-62.96 L 770.395,-62.5011
 L 770.579,-62.0204 L 770.712,-61.5229 L 770.793,-61.0143 L 770.82,-60.5 L 770.793,-59.9857 L 770.712,-59.4771
 L 770.579,-58.9796 L 770.395,-58.4989 L 770.161,-58.04 L 769.88,-57.6081 L 769.556,-57.2079 L 769.192,-56.8437
 L 768.792,-56.5196 L 768.36,-56.2392 L 767.901,-56.0054 L 767.42,-55.8208 L 766.923,-55.6875 L 766.414,-55.607
 L 765.9,-55.58 z
M 954.986,-55.607 L 954.477,-55.6875 L 953.98,-55.8208 L 953.499,-56.0054 L 953.04,-56.2392 L 952.608,-56.5196
 L 952.208,-56.8437 L 951.844,-57.2079 L 951.52,-57.6081 L 951.239,-58.04 L 951.005,-58.4989 L 950.821,-58.9796
 L 950.688,-59.4771 L 950.607,-59.9857 L 950.58,-60.5 L 950.607,-61.0143 L 950.688,-61.5229 L 950.821,-62.0204
 L 951.005,-62.5011 L 951.239,-62.96 L 951.52,-63.3919 L 951.844,-63.7921 L 952.208,-64.1563 L 952.608,-64.4804
 L 952.95,-64.7024 L 952.95,-74 L 953.006,-74.5302 L 953.17,-75.0372 L 953.437,-75.4988 L 953.794,-75.895
 L 954.225,-76.2084 L 954.712,-76.4252 L 955.233,-76.536 L 955.767,-76.536 L 956.288,-76.4252 L 956.775,-76.2084
 L 957.206,-75.895 L 957.563,-75.4988 L 957.83,-75.0372 L 957.994,-74.5302 L 958.05,-74 L 958.05,-64.7024
 L 958.392,-64.4804 L 958.792,-64.1563 L 959.156,-63.7921 L 959.48,-63.3919 L 959.761,-62.96 L 959.995,-62.5011
 L 960.179,-62.0204 L 960.312,-61.5229 L 960.393,-61.0143 L 960.42,-60.5 L 960.393,-59.9857 L 960.312,-59.4771
 L 960.179,-58.9796 L 959.995,-58.4989 L 959.761,-58.04 L 959.48,-57.6081 L 959.156,-57.2079 L 958.792,-56.8437
 L 958.392,-56.5196 L 957.96,-56.2392 L 957.501,-56.0054 L 957.02,-55.8208 L 956.523,-55.6875 L 956.014,-55.607
 L 955.5,-55.58 z
M 480.962,-47.7171 L 480.15,-47.9156 L 462.53,-54.2348 L 461.529,-54.7639 L 460.908,-55.3235 L 460.416,-56
 L 460.076,-56.7639 L 459.902,-57.5819 L 459.902,-58.4181 L 460.076,-59.2361 L 460.416,-60 L 460.908,-60.6765
 L 461.529,-61.2361 L 462.253,-61.6542 L 463.049,-61.9126 L 463.88,-62 L 499.12,-62 L 500.24,-61.8398
 L 501.014,-61.5229 L 501.705,-61.052 L 502.283,-60.4478 L 502.723,-59.7365 L 503.005,-58.9494 L 503.118,-58.1208
 L 503.056,-57.2869 L 502.821,-56.4841 L 502.425,-55.7477 L 501.885,-55.1096 L 501.223,-54.5979 L 500.47,-54.2348
 L 482.85,-47.9156 L 481.798,-47.6918 z
M 373.162,-20.5033 L 372.35,-20.7018 L 278.852,-54.2348 L 277.851,-54.7639 L 277.229,-55.3235 L 276.738,-56
 L 276.398,-56.7639 L 276.224,-57.5819 L 276.224,-58.4181 L 276.398,-59.2361 L 276.738,-60 L 277.229,-60.6765
 L 277.851,-61.2361 L 278.575,-61.6542 L 279.37,-61.9126 L 280.202,-62 L 373.7,-62 L 374.936,-61.8042
 L 375.7,-61.4641 L 376.377,-60.9726 L 376.936,-60.3511 L 377.354,-59.627 L 377.613,-58.8316 L 377.7,-58
 L 377.7,-24.4669 L 377.586,-23.5175 L 377.303,-22.7304 L 376.864,-22.0192 L 376.286,-21.4149 L 375.594,-20.944
 L 374.821,-20.6271 L 373.998,-20.4781 z
M 777.779,-20.6271 L 777.006,-20.944 L 776.314,-21.4149 L 775.736,-22.0192 L 775.297,-22.7304 L 775.014,-23.5175
 L 774.9,-24.4669 L 774.9,-58 L 774.987,-58.8316 L 775.246,-59.627 L 775.664,-60.3511 L 776.223,-60.9726
 L 776.9,-61.4641 L 777.664,-61.8042 L 778.9,-62 L 872.398,-62 L 873.23,-61.9126 L 874.025,-61.6542
 L 874.749,-61.2361 L 875.371,-60.6765 L 875.862,-60 L 876.202,-59.2361 L 876.376,-58.4181 L 876.376,-57.5819
 L 876.202,-56.7639 L 875.862,-56 L 875.371,-55.3235 L 874.749,-54.7639 L 873.748,-54.2348 L 780.25,-20.7018
 L 779.438,-20.5033 L 778.602,-20.4781 z
M 183.562,-20.5033 L 182.75,-20.7018 L 89.2516,-54.2348 L 88.2508,-54.7639 L 87.6294,-55.3235 L 87.1378,-56
 L 86.7977,-56.7639 L 86.6239,-57.5819 L 86.6239,-58.4181 L 86.7977,-59.2361 L 87.1378,-60 L 87.6294,-60.6765
 L 88.2508,-61.2361 L 88.975,-61.6542 L 89.7703,-61.9126 L 90.6019,-62 L 184.1,-62 L 185.336,-61.8042
 L 186.1,-61.4641 L 186.777,-60.9726 L 187.336,-60.3511 L 187.754,-59.627 L 188.013,-58.8316 L 188.1,-58
 L 188.1,-24.4669 L 187.986,-23.5175 L 187.703,-22.7304 L 187.264,-22.0192 L 186.686,-21.4149 L 185.994,-20.944
 L 185.221,-20.6271 L 184.398,-20.4781 z
M 588.179,-20.6271 L 587.406,-20.944 L 586.714,-21.4149 L 586.136,-22.0192 L 585.697,-22.7304 L 585.414,-23.5175
 L 585.3,-24.4669 L 585.3,-58 L 585.387,-58.8316 L 585.646,-59.627 L 586.064,-60.3511 L 586.623,-60.9726
 L 587.3,-61.4641 L 588.064,-61.8042 L 589.3,-62 L 682.798,-62 L 683.63,-61.9126 L 684.425,-61.6542
 L 685.149,-61.2361 L 685.771,-60.6765 L 686.262,-60 L 686.602,-59.2361 L 686.776,-58.4181 L 686.776,-57.5819
 L 686.602,-56.7639 L 686.262,-56 L 685.771,-55.3235 L 685.149,-54.7639 L 684.148,-54.2348 L 590.65,-20.7018
 L 589.838,-20.5033 L 589.002,-20.4781 z
M 399.282,-18.3651 L 398.464,-18.539 L 397.7,-18.8791 L 397.023,-19.3706 L 396.464,-19.9921 L 396.046,-20.7162
 L 395.787,-21.5115 L 395.7,-22.3432 L 395.7,-57.6568 L 395.814,-58.6062 L 396.097,-59.3934 L 396.536,-60.1046
 L 397.114,-60.7089 L 397.806,-61.1797 L 398.579,-61.4966 L 399.402,-61.6457 L 400.238,-61.6205 L 401.05,-61.422
 L 450.282,-43.7652 L 450.826,-43.5229 L 451.517,-43.052 L 452.095,-42.4478 L 452.535,-41.7365 L 452.817,-40.9494
 L 452.93,-40.1208 L 452.867,-39.2869 L 452.633,-38.4841 L 452.237,-37.7477 L 451.696,-37.1096 L 451.035,-36.5979
 L 450.282,-36.2348 L 401.05,-18.578 L 400.118,-18.3651 z
M 562.762,-18.3795 L 561.95,-18.578 L 512.718,-36.2348 L 512.174,-36.4771 L 511.483,-36.948 L 510.905,-37.5522
 L 510.465,-38.2635 L 510.183,-39.0506 L 510.07,-39.8792 L 510.133,-40.7131 L 510.367,-41.5159 L 510.763,-42.2523
 L 511.304,-42.8904 L 511.965,-43.4021 L 512.718,-43.7652 L 561.95,-61.422 L 562.882,-61.6349 L 563.718,-61.6349
 L 564.536,-61.4611 L 565.3,-61.1209 L 565.977,-60.6294 L 566.536,-60.008 L 566.954,-59.2838 L 567.213,-58.4885
 L 567.3,-57.6568 L 567.3,-22.3432 L 567.186,-21.3938 L 566.903,-20.6066 L 566.464,-19.8954 L 565.886,-19.2911
 L 565.194,-18.8203 L 564.421,-18.5034 L 563.598,-18.3543 z
M 210.1,-18 L 208.864,-18.1958 L 208.1,-18.5359 L 207.423,-19.0274 L 206.864,-19.6489 L 206.446,-20.373
 L 206.187,-21.1684 L 206.1,-22 L 206.1,-55.533 L 206.214,-56.4825 L 206.497,-57.2696 L 206.936,-57.9808
 L 207.514,-58.5851 L 208.206,-59.056 L 208.979,-59.3728 L 209.802,-59.5219 L 210.638,-59.4967 L 211.45,-59.2982
 L 304.948,-25.7652 L 305.949,-25.2361 L 306.571,-24.6765 L 307.062,-24 L 307.402,-23.2361 L 307.576,-22.4181
 L 307.576,-21.5819 L 307.402,-20.7639 L 307.062,-20 L 306.571,-19.3235 L 305.949,-18.7639 L 305.225,-18.3458
 L 304.43,-18.0874 L 303.598,-18 z
M 659.402,-18 L 658.57,-18.0874 L 657.775,-18.3458 L 657.051,-18.7639 L 656.429,-19.3235 L 655.938,-20
 L 655.598,-20.7639 L 655.424,-21.5819 L 655.424,-22.4181 L 655.598,-23.2361 L 655.938,-24 L 656.429,-24.6765
 L 657.051,-25.2361 L 658.052,-25.7652 L 751.55,-59.2982 L 752.362,-59.4967 L 753.198,-59.5219 L 754.021,-59.3728
 L 754.794,-59.056 L 755.486,-58.5851 L 756.064,-57.9808 L 756.503,-57.2696 L 756.786,-56.4825 L 756.9,-55.533
 L 756.9,-22 L 756.813,-21.1684 L 756.554,-20.373 L 756.136,-19.6489 L 755.577,-19.0274 L 754.9,-18.5359
 L 754.136,-18.1958 L 752.9,-18 z
M 22,-18 L 20.7639,-18.1958 L 20,-18.5359 L 19.3235,-19.0274 L 18.7639,-19.6489 L 18.3458,-20.373
 L 18.0874,-21.1684 L 18,-22 L 18,-54.9951 L 18.1143,-55.9445 L 18.3966,-56.7316 L 18.8364,-57.4429
 L 19.4145,-58.0471 L 20.1055,-58.518 L 20.8794,-58.8349 L 21.7022,-58.984 L 22.538,-58.9587 L 23.3504,-58.7602
 L 115.348,-25.7652 L 116.349,-25.2361 L 116.971,-24.6765 L 117.462,-24 L 117.802,-23.2361 L 117.976,-22.4181
 L 117.976,-21.5819 L 117.802,-20.7639 L 117.462,-20 L 116.971,-19.3235 L 116.349,-18.7639 L 115.625,-18.3458
 L 114.83,-18.0874 L 113.998,-18 z
M 849.002,-18 L 848.17,-18.0874 L 847.375,-18.3458 L 846.651,-18.7639 L 846.029,-19.3235 L 845.538,-20
 L 845.198,-20.7639 L 845.024,-21.5819 L 845.024,-22.4181 L 845.198,-23.2361 L 845.538,-24 L 846.029,-24.6765
 L 846.651,-25.2361 L 847.652,-25.7652 L 939.65,-58.7602 L 940.462,-58.9587 L 941.298,-58.984 L 942.121,-58.8349
 L 942.894,-58.518 L 943.586,-58.0471 L 944.164,-57.4429 L 944.603,-56.7316 L 944.886,-55.9445 L 945,-54.9951
 L 945,-22 L 944.913,-21.1684 L 944.654,-20.373 L 944.236,-19.6489 L 943.677,-19.0274 L 943,-18.5359
 L 942.236,-18.1958 L 941,-18 z
M 463.88,-18 L 462.76,-18.1602 L 461.986,-18.4771 L 461.295,-18.948 L 460.717,-19.5522 L 460.277,-20.2635
 L 459.995,-21.0506 L 459.882,-21.8792 L 459.944,-22.7131 L 460.179,-23.5159 L 460.575,-24.2523 L 461.115,-24.8904
 L 461.777,-25.4021 L 462.53,-25.7652 L 480.15,-32.0844 L 481.202,-32.3082 L 482.038,-32.2829 L 482.85,-32.0844
 L 500.47,-25.7652 L 501.471,-25.2361 L 502.092,-24.6765 L 502.584,-24 L 502.924,-23.2361 L 503.098,-22.4181
 L 503.098,-21.5819 L 502.924,-20.7639 L 502.584,-20 L 502.092,-19.3235 L 501.471,-18.7639 L 500.747,-18.3458
 L 499.951,-18.0874 L 499.12,-18 z
" stroke="black" fill="lightgray" stroke-width="0.5"/>
</svg>
