<?xml version="1.0" standalone="no"?>
<!DOCTYPE svg PUBLIC "-//W3C//DTD SVG 1.1//EN" "http://www.w3.org/Graphics/SVG/1.1/DTD/svg11.dtd">
<svg width="1313mm" height="80mm" viewBox="0 -80 1313 80" xmlns="http://www.w3.org/2000/svg" version="1.1">
<title>OpenSCAD Model</title>
<path d="
M 1313,-80 L 0,-80 L 0,-0 L 4.95,-0 L 4.95,-6 L 5.00572,-6.53017
 L 5.17046,-7.03717 L 5.437,-7.49884 L 5.79372,-7.895 L 6.22499,-8.20836 L 6.71201,-8.42519 L 7.23344,-8.53603
 L 7.76654,-8.53603 L 8.28798,-8.42519 L 8.77499,-8.20836 L 9.20627,-7.895 L 9.56299,-7.49884 L 9.82953,-7.03717
 L 9.99426,-6.53017 L 10.05,-6 L 10.05,-0 L 190.379,-0 L 190.379,-6 L 190.434,-6.53017
 L 190.599,-7.03717 L 190.866,-7.49884 L 191.222,-7.895 L 191.654,-8.20836 L 192.141,-8.42519 L 192.662,-8.53603
 L 193.195,-8.53603 L 193.717,-8.42519 L 194.204,-8.20836 L 194.635,-7.895 L 194.992,-7.49884 L 195.258,-7.03717
 L 195.423,-6.53017 L 195.479,-6 L 195.479,-0 L 375.807,-0 L 375.807,-6 L 375.863,-6.53017
 L 376.028,-7.03717 L 376.294,-7.49884 L 376.651,-7.895 L 377.082,-8.20836 L 377.569,-8.42519 L 378.091,-8.53603
 L 378.624,-8.53603 L 379.145,-8.42519 L 379.632,-8.20836 L 380.063,-7.895 L 380.42,-7.49884 L 380.687,-7.03717
 L 380.851,-6.53017 L 380.907,-6 L 380.907,-0 L 561.236,-0 L 561.236,-6 L 561.291,-6.53017
 L 561.456,-7.03717 L 561.723,-7.49884 L 562.079,-7.895 L 562.511,-8.20836 L 562.998,-8.42519 L 563.519,-8.53603
 L 564.052,-8.53603 L 564.574,-8.42519 L 565.061,-8.20836 L 565.492,-7.895 L 565.849,-7.49884 L 566.115,-7.03717
 L 566.28,-6.53017 L 566.336,-6 L 566.336,-0 L 746.664,-0 L 746.664,-6 L 746.72,-6.53017
 L 746.885,-7.03717 L 747.151,-7.49884 L 747.508,-7.895 L 747.939,-8.20836 L 748.426,-8.42519 L 748.948,-8.53603
 L 749.481,-8.53603 L 750.002,-8.42519 L 750.489,-8.20836 L 750.921,-7.895 L 751.277,-7.49884 L 751.544,-7.03717
 L 751.709,-6.53017 L 751.764,-6 L 751.764,-0 L 932.093,-0 L 932.093,-6 L 932.149,-6.53017
 L 932.313,-7.03717 L 932.58,-7.49884 L 932.937,-7.895 L 933.368,-8.20836 L 933.855,-8.42519 L 934.376,-8.53603
 L 934.909,-8.53603 L 935.431,-8.42519 L 935.918,-8.20836 L 936.349,-7.895 L 936.706,-7.49884 L 936.972,-7.03717
 L 937.137,-6.53017 L 937.193,-6 L 937.193,-0 L 1117.52,-0 L 1117.52,-6 L 1117.58,-6.53017
 L 1117.74,-7.03717 L 1118.01,-7.49884 L 1118.37,-7.895 L 1118.8,-8.20836 L 1119.28,-8.42519 L 1119.8,-8.53603
 L 1120.34,-8.53603 L 1120.86,-8.42519 L 1121.35,-8.20836 L 1121.78,-7.895 L 1122.13,-7.49884 L 1122.4,-7.03717
 L 1122.57,-6.53017 L 1122.62,-6 L 1122.62,-0 L 1302.95,-0 L 1302.95,-6 L 1303.01,-6.53017
 L 1303.17,-7.03717 L 1303.44,-7.49884 L 1303.79,-7.895 L 1304.22,-8.20836 L 1304.71,-8.42519 L 1305.23,-8.53603
 L 1305.77,-8.53603 L 1306.29,-8.42519 L 1306.77,-8.20836 L 1307.21,-7.895 L 1307.56,-7.49884 L 1307.83,-7.03717
 L 1307.99,-6.53017 L 1308.05,-6 L 1308.05,-0 L 1313,-0 z
M 6.98573,-55.607 L 6.47708,-55.6875 L 5.97964,-55.8208 L 5.49887,-56.0054 L 5.04001,-56.2392 L 4.60811,-56.5196
 L 4.20789,-56.8437 L 3.84373,-57.2079 L 3.51964,-57.6081 L 3.23917,-58.04 L 3.00537,-58.4989 L 2.82082,-58.9796
 L 2.68752,-59.4771 L 2.60696,-59.9857 L 2.58,-60.5 L 2.60696,-61.0143 L 2.68752,-61.5229 L 2.82082,-62.0204
 L 3.00537,-62.5011 L 3.23917,-62.96 L 3.51964,-63.3919 L 3.84373,-63.7921 L 4.20789,-64.1563 L 4.60811,-64.4804
 L 4.95001,-64.7024 L 4.95001,-74 L 5.00574,-74.5302 L 5.17047,-75.0372 L 5.43701,-75.4988 L 5.79373,-75.895
 L 6.22501,-76.2084 L 6.71202,-76.4252 L 7.23346,-76.536 L 7.76654,-76.536 L 8.28798,-76.4252 L 8.77499,-76.2084
 L 9.20627,-75.895 L 9.56299,-75.4988 L 9.82953,-75.0372 L 9.99426,-74.5302 L 10.05,-74 L 10.05,-64.7024
 L 10.3919,-64.4804 L 10.7921,-64.1563 L 11.1563,-63.7921 L 11.4804,-63.3919 L 11.7608,-62.96 L 11.9946,-62.5011
 L 12.1792,-62.0204 L 12.3125,-61.5229 L 12.393,-61.0143 L 12.42,-60.5 L 12.393,-59.9857 L 12.3125,-59.4771
 L 12.1792,-58.9796 L 11.9946,-58.4989 L 11.7608,-58.04 L 11.4804,-57.6081 L 11.1563,-57.2079 L 10.7921,-56.8437
 L 10.3919,-56.5196 L 9.95999,-56.2392 L 9.50113,-56.0054 L 9.02036,-55.8208 L 8.52292,-55.6875 L 8.01427,-55.607
 L 7.5,-55.58 z
M 192.414,-55.607 L 191.906,-55.6875 L 191.408,-55.8208 L 190.927,-56.0054 L 190.469,-56.2392 L 190.037,-56.5196
 L 189.636,-56.8437 L 189.272,-57.2079 L 188.948,-57.6081 L 188.668,-58.04 L 188.434,-58.4989 L 188.249,-58.9796
 L 188.116,-59.4771 L 188.036,-59.9857 L 188.009,-60.5 L 188.036,-61.0143 L 188.116,-61.5229 L 188.249,-62.0204
 L 188.434,-62.5011 L 188.668,-62.96 L 188.948,-63.3919 L 189.272,-63.7921 L 189.636,-64.1563 L 190.037,-64.4804
 L 190.379,-64.7024 L 190.379,-74 L 190.434,-74.5302 L 190.599,-75.0372 L 190.866,-75.4988 L 191.222,-75.895
 L 191.654,-76.2084 L 192.141,-76.4252 L 192.662,-76.536 L 193.195,-76.536 L 193.717,-76.4252 L 194.204,-76.2084
 L 194.635,-75.895 L 194.992,-75.4988 L 195.258,-75.0372 L 195.423,-74.5302 L 195.479,-74 L 195.479,-64.7024
 L 195.82,-64.4804 L 196.221,-64.1563 L 196.585,-63.7921 L 196.909,-63.3919 L 197.189,-62.96 L 197.423,-62.5011
 L 197.608,-62.0204 L 197.741,-61.5229 L 197.822,-61.0143 L 197.849,-60.5 L 197.822,-59.9857 L 197.741,-59.4771
 L 197.608,-58.9796 L 197.423,-58.4989 L 197.189,-58.04 L 196.909,-57.6081 L 196.585,-57.2079 L 196.221,-56.8437
 L 195.82,-56.5196 L 195.389,-56.2392 L 194.93,-56.0054 L 194.449,-55.8208 L 193.951,-55.6875 L 193.443,-55.607
 L 192.929,-55.58 z
M 377.843,-55.607 L 377.334,-55.6875 L 376.837,-55.8208 L 376.356,-56.0054 L 375.897,-56.2392 L 375.465,-56.5196
 L 375.065,-56.8437 L 374.701,-57.2079 L 374.377,-57.6081 L 374.096,-58.04 L 373.863,-58.4989 L 373.678,-58.9796
 L 373.545,-59.4771 L 373.464,-59.9857 L 373.437,-60.5 L 373.464,-61.0143 L 373.545,-61.5229 L 373.678,-62.0204
 L 373.863,-62.5011 L 374.096,-62.96 L 374.377,-63.3919 L 374.701,-63.7921 L 375.065,-64.1563 L 375.465,-64.4804
 L 375.807,-64.7024 L 375.807,-74 L 375.863,-74.5302 L 376.028,-75.0372 L 376.294,-75.4988 L 376.651,-75.895
 L 377.082,-76.2084 L 377.569,-76.4252 L 378.091,-76.536 L 378.624,-76.536 L 379.145,-76.4252 L 379.632,-76.2084
 L 380.063,-75.895 L 380.42,-75.4988 L 380.687,-75.0372 L 380.851,-74.5302 L 380.907,-74 L 380.907,-64.7024
 L 381.249,-64.4804 L 381.649,-64.1563 L 382.013,-63.7921 L 382.337,-63.3919 L 382.618,-62.96 L 382.852,-62.5011
 L 383.036,-62.0204 L 383.17,-61.5229 L 383.25,-61.0143 L 383.277,-60.5 L 383.25,-59.9857 L 383.17,-59.4771
 L 383.036,-58.9796 L 382.852,-58.4989 L 382.618,-58.04 L 382.337,-57.6081 L 382.013,-57.2079 L 381.649,-56.8437
 L 381.249,-56.5196 L 380.817,-56.2392 L 380.358,-56.0054 L 379.877,-55.8208 L 379.38,-55.6875 L 378.871,-55.607
 L 378.357,-55.58 z
M 563.271,-55.607 L 562.763,-55.6875 L 562.265,-55.8208 L 561.785,-56.0054 L 561.326,-56.2392 L 560.894,-56.5196
 L 560.494,-56.8437 L 560.129,-57.2079 L 559.805,-57.6081 L 559.525,-58.04 L 559.291,-58.4989 L 559.107,-58.9796
 L 558.973,-59.4771 L 558.893,-59.9857 L 558.866,-60.5 L 558.893,-61.0143 L 558.973,-61.5229 L 559.107,-62.0204
 L 559.291,-62.5011 L 559.525,-62.96 L 559.805,-63.3919 L 560.129,-63.7921 L 560.494,-64.1563 L 560.894,-64.4804
 L 561.236,-64.7024 L 561.236,-74 L 561.291,-74.5302 L 561.456,-75.0372 L 561.723,-75.4988 L 562.079,-75.895
 L 562.511,-76.2084 L 562.998,-76.4252 L 563.519,-76.536 L 564.052,-76.536 L 564.574,-76.4252 L 565.061,-76.2084
 L 565.492,-75.895 L 565.849,-75.4988 L 566.115,-75.0372 L 566.28,-74.5302 L 566.336,-74 L 566.336,-64.7024
 L 566.678,-64.4804 L 567.078,-64.1563 L 567.442,-63.7921 L 567.766,-63.3919 L 568.047,-62.96 L 568.28,-62.5011
 L 568.465,-62.0204 L 568.598,-61.5229 L 568.679,-61.0143 L 568.706,-60.5 L 568.679,-59.9857 L 568.598,-59.4771
 L 568.465,-58.9796 L 568.28,-58.4989 L 568.047,-58.04 L 567.766,-57.6081 L 567.442,-57.2079 L 567.078,-56.8437
 L 566.678,-56.5196 L 566.246,-56.2392 L 565.787,-56.0054 L 565.306,-55.8208 L 564.809,-55.6875 L 564.3,-55.607
 L 563.786,-55.58 z
M 748.7,-55.607 L 748.191,-55.6875 L 747.694,-55.8208 L 747.213,-56.0054 L 746.754,-56.2392 L 746.322,-56.5196
 L 745.922,-56.8437 L 745.558,-57.2079 L 745.234,-57.6081 L 744.953,-58.04 L 744.72,-58.4989 L 744.535,-58.9796
 L 744.402,-59.4771 L 744.321,-59.9857 L 744.294,-60.5 L 744.321,-61.0143 L 744.402,-61.5229 L 744.535,-62.0204
 L 744.72,-62.5011 L 744.953,-62.96 L 745.234,-63.3919 L 745.558,-63.7921 L 745.922,-64.1563 L 746.322,-64.4804
 L 746.664,-64.7024 L 746.664,-74 L 746.72,-74.5302 L 746.885,-75.0372 L 747.151,-75.4988 L 747.508,-75.895
 L 747.939,-76.2084 L 748.426,-76.4252 L 748.948,-76.536 L 749.481,-76.536 L 750.002,-76.4252 L 750.489,-76.2084
 L 750.921,-75.895 L 751.277,-75.4988 L 751.544,-75.0372 L 751.709,-74.5302 L 751.764,-74 L 751.764,-64.7024
 L 752.106,-64.4804 L 752.506,-64.1563 L 752.871,-63.7921 L 753.195,-63.3919 L 753.475,-62.96 L 753.709,-62.5011
 L 753.893,-62.0204 L 754.027,-61.5229 L 754.107,-61.0143 L 754.134,-60.5 L 754.107,-59.9857 L 754.027,-59.4771
 L 753.893,-58.9796 L 753.709,-58.4989 L 753.475,-58.04 L 753.195,-57.6081 L 752.871,-57.2079 L 752.506,-56.8437
 L 752.106,-56.5196 L 751.674,-56.2392 L 751.215,-56.0054 L 750.735,-55.8208 L 750.237,-55.6875 L 749.729,-55.607
 L 749.214,-55.58 z
M 934.129,-55.607 L 933.62,-55.6875 L 933.122,-55.8208 L 932.642,-56.0054 L 932.183,-56.2392 L 931.751,-56.5196
 L 931.351,-56.8437 L 930.987,-57.2079 L 930.662,-57.6081 L 930.382,-58.04 L 930.148,-58.4989 L 929.964,-58.9796
 L 929.83,-59.4771 L 929.75,-59.9857 L 929.723,-60.5 L 929.75,-61.0143 L 929.83,-61.5229 L 929.964,-62.0204
 L 930.148,-62.5011 L 930.382,-62.96 L 930.662,-63.3919 L 930.987,-63.7921 L 931.351,-64.1563 L 931.751,-64.4804
 L 932.093,-64.7024 L 932.093,-74 L 932.149,-74.5302 L 932.313,-75.0372 L 932.58,-75.4988 L 932.937,-75.895
 L 933.368,-76.2084 L 933.855,-76.4252 L 934.376,-76.536 L 934.909,-76.536 L 935.431,-76.4252 L 935.918,-76.2084
 L 936.349,-75.895 L 936.706,-75.4988 L 936.972,-75.0372 L 937.137,-74.5302 L 937.193,-74 L 937.193,-64.7024
 L 937.535,-64.4804 L 937.935,-64.1563 L 938.299,-63.7921 L 938.623,-63.3919 L 938.904,-62.96 L 939.137,-62.5011
 L 939.322,-62.0204 L 939.455,-61.5229 L 939.536,-61.0143 L 939.563,-60.5 L 939.536,-59.9857 L 939.455,-59.4771
 L 939.322,-58.9796 L 939.137,-58.4989 L 938.904,-58.04 L 938.623,-57.6081 L 938.299,-57.2079 L 937.935,-56.8437
 L 937.535,-56.5196 L 937.103,-56.2392 L 936.644,-56.0054 L 936.163,-55.8208 L 935.666,-55.6875 L 935.157,-55.607
 L 934.643,-55.58 z
M 1119.56,-55.607 L 1119.05,-55.6875 L 1118.55,-55.8208 L 1118.07,-56.0054 L 1117.61,-56.2392 L 1117.18,-56.5196
 L 1116.78,-56.8437 L 1116.42,-57.2079 L 1116.09,-57.6081 L 1115.81,-58.04 L 1115.58,-58.4989 L 1115.39,-58.9796
 L 1115.26,-59.4771 L 1115.18,-59.9857 L 1115.15,-60.5 L 1115.18,-61.0143 L 1115.26,-61.5229 L 1115.39,-62.0204
 L 1115.58,-62.5011 L 1115.81,-62.96 L 1116.09,-63.3919 L 1116.42,-63.7921 L 1116.78,-64.1563 L 1117.18,-64.4804
 L 1117.52,-64.7024 L 1117.52,-74 L 1117.58,-74.5302 L 1117.74,-75.0372 L 1118.01,-75.4988 L 1118.37,-75.895
 L 1118.8,-76.2084 L 1119.28,-76.4252 L 1119.8,-76.536 L 1120.34,-76.536 L 1120.86,-76.4252 L 1121.35,-76.2084
 L 1121.78,-75.895 L 1122.13,-75.4988 L 1122.4,-75.0372 L 1122.57,-74.5302 L 1122.62,-74 L 1122.62,-64.7024
 L 1122.96,-64.4804 L 1123.36,-64.1563 L 1123.73,-63.7921 L 1124.05,-63.3919 L 1124.33,-62.96 L 1124.57,-62.5011
 L 1124.75,-62.0204 L 1124.88,-61.5229 L 1124.96,-61.0143 L 1124.99,-60.5 L 1124.96,-59.9857 L 1124.88,-59.4771
 L 1124.75,-58.9796 L 1124.57,-58.4989 L 1124.33,-58.04 L 1124.05,-57.6081 L 1123.73,-57.2079 L 1123.36,-56.8437
 L 1122.96,-56.5196 L 1122.53,-56.2392 L 1122.07,-56.0054 L 1121.59,-55.8208 L 1121.09,-55.6875 L 1120.59,-55.607
 L 1120.07,-55.58 z
M 1304.99,-55.607 L 1304.48,-55.6875 L 1303.98,-55.8208 L 1303.5,-56.0054 L 1303.04,-56.2392 L 1302.61,-56.5196
 L 1302.21,-56.8437 L 1301.84,-57.2079 L 1301.52,-57.6081 L 1301.24,-58.04 L 1301.01,-58.4989 L 1300.82,-58.9796
 L 1300.69,-59.4771 L 1300.61,-59.9857 L 1300.58,-60.5 L 1300.61,-61.0143 L 1300.69,-61.5229 L 1300.82,-62.0204
 L 1301.01,-62.5011 L 1301.24,-62.96 L 1301.52,-63.3919 L 1301.84,-63.7921 L 1302.21,-64.1563 L 1302.61,-64.4804
 L 1302.95,-64.7024 L 1302.95,-74 L 1303.01,-74.5302 L 1303.17,-75.0372 L 1303.44,-75.4988 L 1303.79,-75.895
 L 1304.23,-76.2084 L 1304.71,-76.4252 L 1305.23,-76.536 L 1305.77,-76.536 L 1306.29,-76.4252 L 1306.77,-76.2084
 L 1307.21,-75.895 L 1307.56,-75.4988 L 1307.83,-75.0372 L 1307.99,-74.5302 L 1308.05,-74 L 1308.05,-64.7024
 L 1308.39,-64.4804 L 1308.79,-64.1563 L 1309.16,-63.7921 L 1309.48,-63.3919 L 1309.76,-62.96 L 1309.99,-62.5011
 L 1310.18,-62.0204 L 1310.31,-61.5229 L 1310.39,-61.0143 L 1310.42,-60.5 L 1310.39,-59.9857 L 1310.31,-59.4771
 L 1310.18,-58.9796 L 1309.99,-58.4989 L 1309.76,-58.04 L 1309.48,-57.6081 L 1309.16,-57.2079 L 1308.79,-56.8437
 L 1308.39,-56.5196 L 1307.96,-56.2392 L 1307.5,-56.0054 L 1307.02,-55.8208 L 1306.52,-55.6875 L 1306.01,-55.607
 L 1305.5,-55.58 z
M 761.121,-20.7565 L 760.345,-21.0679 L 759.651,-21.5338 L 759.068,-22.134 L 758.623,-22.8421 L 758.335,-23.6272
 L 758.214,-24.6042 L 758.214,-58 L 758.302,-58.8316 L 758.56,-59.627 L 758.978,-60.3511 L 759.538,-60.9726
 L 760.214,-61.4641 L 760.978,-61.8042 L 762.214,-62 L 853.281,-62 L 854.113,-61.9126 L 854.908,-61.6542
 L 855.632,-61.2361 L 856.253,-60.6765 L 856.745,-60 L 857.085,-59.2361 L 857.259,-58.4181 L 857.259,-57.5819
 L 857.085,-56.7639 L 856.745,-56 L 856.253,-55.3235 L 855.632,-54.7639 L 854.658,-54.2446 L 763.591,-20.8488
 L 762.781,-20.6445 L 761.945,-20.6133 z
M 655.934,-47.7484 L 655.123,-47.9527 L 637.966,-54.2446 L 636.992,-54.7639 L 636.37,-55.3235 L 635.879,-56
 L 635.539,-56.7639 L 635.365,-57.5819 L 635.365,-58.4181 L 635.539,-59.2361 L 635.879,-60 L 636.37,-60.6765
 L 636.992,-61.2361 L 637.716,-61.6542 L 638.511,-61.9126 L 639.343,-62 L 673.657,-62 L 674.75,-61.8477
 L 675.526,-61.5363 L 676.221,-61.0704 L 676.803,-60.4703 L 677.248,-59.7622 L 677.536,-58.9771 L 677.654,-58.1493
 L 677.598,-57.315 L 677.37,-56.5106 L 676.979,-55.7713 L 676.443,-55.1294 L 675.785,-54.613 L 675.034,-54.2446
 L 657.877,-47.9527 L 656.769,-47.7172 z
M 550.219,-20.6445 L 549.409,-20.8488 L 458.342,-54.2446 L 457.368,-54.7639 L 456.747,-55.3235 L 456.255,-56
 L 455.915,-56.7639 L 455.741,-57.5819 L 455.741,-58.4181 L 455.915,-59.2361 L 456.255,-60 L 456.747,-60.6765
 L 457.368,-61.2361 L 458.092,-61.6542 L 458.887,-61.9126 L 459.719,-62 L 550.786,-62 L 552.022,-61.8042
 L 552.786,-61.4641 L 553.462,-60.9726 L 554.022,-60.3511 L 554.44,-59.627 L 554.698,-58.8316 L 554.786,-58
 L 554.786,-24.6042 L 554.665,-23.6272 L 554.377,-22.8421 L 553.932,-22.134 L 553.349,-21.5338 L 552.655,-21.0679
 L 551.879,-20.7565 L 551.055,-20.6133 z
M 364.791,-20.6445 L 363.98,-20.8488 L 272.913,-54.2446 L 271.939,-54.7639 L 271.318,-55.3235 L 270.826,-56
 L 270.486,-56.7639 L 270.312,-57.5819 L 270.312,-58.4181 L 270.486,-59.2361 L 270.826,-60 L 271.318,-60.6765
 L 271.939,-61.2361 L 272.664,-61.6542 L 273.459,-61.9126 L 274.291,-62 L 365.357,-62 L 366.593,-61.8042
 L 367.357,-61.4641 L 368.034,-60.9726 L 368.593,-60.3511 L 369.011,-59.627 L 369.27,-58.8316 L 369.357,-58
 L 369.357,-24.6042 L 369.236,-23.6272 L 368.948,-22.8421 L 368.503,-22.134 L 367.921,-21.5338 L 367.226,-21.0679
 L 366.45,-20.7565 L 365.626,-20.6133 z
M 1131.98,-20.7565 L 1131.2,-21.0679 L 1130.51,-21.5338 L 1129.93,-22.134 L 1129.48,-22.8421 L 1129.19,-23.6272
 L 1129.07,-24.6042 L 1129.07,-58 L 1129.16,-58.8316 L 1129.42,-59.627 L 1129.84,-60.3511 L 1130.39,-60.9726
 L 1131.07,-61.4641 L 1131.84,-61.8042 L 1133.07,-62 L 1224.14,-62 L 1224.97,-61.9126 L 1225.76,-61.6542
 L 1226.49,-61.2361 L 1227.11,-60.6765 L 1227.6,-60 L 1227.94,-59.2361 L 1228.12,-58.4181 L 1228.12,-57.5819
 L 1227.94,-56.7639 L 1227.6,-56 L 1227.11,-55.3235 L 1226.49,-54.7639 L 1225.52,-54.2446 L 1134.45,-20.8488
 L 1133.64,-20.6445 L 1132.8,-20.6133 z
M 179.362,-20.6445 L 178.551,-20.8488 L 87.4848,-54.2446 L 86.5108,-54.7639 L 85.8894,-55.3235 L 85.3979,-56
 L 85.0578,-56.7639 L 84.8839,-57.5819 L 84.8839,-58.4181 L 85.0578,-59.2361 L 85.3979,-60 L 85.8894,-60.6765
 L 86.5108,-61.2361 L 87.235,-61.6542 L 88.0303,-61.9126 L 88.862,-62 L 179.929,-62 L 181.165,-61.8042
 L 181.929,-61.4641 L 182.605,-60.9726 L 183.165,-60.3511 L 183.583,-59.627 L 183.841,-58.8316 L 183.929,-58
 L 183.929,-24.6042 L 183.807,-23.6272 L 183.519,-22.8421 L 183.075,-22.134 L 182.492,-21.5338 L 181.798,-21.0679
 L 181.022,-20.7565 L 180.198,-20.6133 z
M 946.55,-20.7565 L 945.774,-21.0679 L 945.079,-21.5338 L 944.497,-22.134 L 944.052,-22.8421 L 943.764,-23.6272
 L 943.643,-24.6042 L 943.643,-58 L 943.73,-58.8316 L 943.989,-59.627 L 944.407,-60.3511 L 944.966,-60.9726
 L 945.643,-61.4641 L 946.407,-61.8042 L 947.643,-62 L 1038.71,-62 L 1039.54,-61.9126 L 1040.34,-61.6542
 L 1041.06,-61.2361 L 1041.68,-60.6765 L 1042.17,-60 L 1042.51,-59.2361 L 1042.69,-58.4181 L 1042.69,-57.5819
 L 1042.51,-56.7639 L 1042.17,-56 L 1041.68,-55.3235 L 1041.06,-54.7639 L 1040.09,-54.2446 L 949.02,-20.8488
 L 948.209,-20.6445 L 947.374,-20.6133 z
M 576.368,-18.4974 L 575.55,-18.6713 L 574.786,-19.0114 L 574.109,-19.5029 L 573.55,-20.1244 L 573.132,-20.8485
 L 572.873,-21.6438 L 572.786,-22.4755 L 572.786,-57.5245 L 572.907,-58.5016 L 573.195,-59.2867 L 573.64,-59.9948
 L 574.222,-60.5949 L 574.916,-61.0608 L 575.692,-61.3722 L 576.516,-61.5154 L 577.352,-61.4842 L 578.163,-61.28
 L 625.95,-43.7554 L 626.442,-43.5363 L 627.137,-43.0704 L 627.719,-42.4703 L 628.164,-41.7622 L 628.452,-40.9771
 L 628.57,-40.1493 L 628.514,-39.315 L 628.285,-38.5106 L 627.895,-37.7713 L 627.359,-37.1294 L 626.701,-36.613
 L 625.95,-36.2446 L 578.163,-18.72 L 577.204,-18.4974 z
M 735.648,-18.5158 L 734.837,-18.72 L 687.05,-36.2446 L 686.557,-36.4637 L 685.863,-36.9296 L 685.281,-37.5297
 L 684.836,-38.2378 L 684.548,-39.0229 L 684.43,-39.8507 L 684.486,-40.685 L 684.714,-41.4894 L 685.105,-42.2287
 L 685.641,-42.8706 L 686.299,-43.387 L 687.05,-43.7554 L 734.837,-61.28 L 735.796,-61.5026 L 736.632,-61.5026
 L 737.45,-61.3288 L 738.214,-60.9886 L 738.891,-60.4971 L 739.45,-59.8757 L 739.868,-59.1515 L 740.127,-58.3562
 L 740.214,-57.5245 L 740.214,-22.4755 L 740.093,-21.4984 L 739.805,-20.7133 L 739.36,-20.0052 L 738.778,-19.4051
 L 738.084,-18.9391 L 737.307,-18.6278 L 736.484,-18.4846 z
M 205.929,-18 L 204.692,-18.1958 L 203.929,-18.5359 L 203.252,-19.0274 L 202.692,-19.6489 L 202.274,-20.373
 L 202.016,-21.1684 L 201.929,-22 L 201.929,-55.3957 L 202.05,-56.3728 L 202.338,-57.1579 L 202.783,-57.866
 L 203.365,-58.4661 L 204.059,-58.9321 L 204.835,-59.2434 L 205.659,-59.3867 L 206.495,-59.3555 L 207.306,-59.1512
 L 298.372,-25.7554 L 299.346,-25.2361 L 299.968,-24.6765 L 300.459,-24 L 300.799,-23.2361 L 300.973,-22.4181
 L 300.973,-21.5819 L 300.799,-20.7639 L 300.459,-20 L 299.968,-19.3235 L 299.346,-18.7639 L 298.622,-18.3458
 L 297.827,-18.0874 L 296.995,-18 z
M 391.357,-18 L 390.121,-18.1958 L 389.357,-18.5359 L 388.681,-19.0274 L 388.121,-19.6489 L 387.703,-20.373
 L 387.445,-21.1684 L 387.357,-22 L 387.357,-55.3957 L 387.478,-56.3728 L 387.766,-57.1579 L 388.211,-57.866
 L 388.793,-58.4661 L 389.488,-58.9321 L 390.264,-59.2434 L 391.088,-59.3867 L 391.923,-59.3555 L 392.734,-59.1512
 L 483.801,-25.7554 L 484.775,-25.2361 L 485.396,-24.6765 L 485.888,-24 L 486.228,-23.2361 L 486.402,-22.4181
 L 486.402,-21.5819 L 486.228,-20.7639 L 485.888,-20 L 485.396,-19.3235 L 484.775,-18.7639 L 484.051,-18.3458
 L 483.255,-18.0874 L 482.424,-18 z
M 830.576,-18 L 829.745,-18.0874 L 828.949,-18.3458 L 828.225,-18.7639 L 827.604,-19.3235 L 827.112,-20
 L 826.772,-20.7639 L 826.598,-21.5819 L 826.598,-22.4181 L 826.772,-23.2361 L 827.112,-24 L 827.604,-24.6765
 L 828.225,-25.2361 L 829.199,-25.7554 L 920.266,-59.1512 L 921.077,-59.3555 L 921.912,-59.3867 L 922.736,-59.2434
 L 923.512,-58.9321 L 924.207,-58.4661 L 924.789,-57.866 L 925.234,-57.1579 L 925.522,-56.3728 L 925.643,-55.3957
 L 925.643,-22 L 925.555,-21.1684 L 925.297,-20.373 L 924.879,-19.6489 L 924.319,-19.0274 L 923.643,-18.5359
 L 922.879,-18.1958 L 921.643,-18 z
M 1016,-18 L 1015.17,-18.0874 L 1014.38,-18.3458 L 1013.65,-18.7639 L 1013.03,-19.3235 L 1012.54,-20
 L 1012.2,-20.7639 L 1012.03,-21.5819 L 1012.03,-22.4181 L 1012.2,-23.2361 L 1012.54,-24 L 1013.03,-24.6765
 L 1013.65,-25.2361 L 1014.63,-25.7554 L 1105.69,-59.1512 L 1106.51,-59.3555 L 1107.34,-59.3867 L 1108.16,-59.2434
 L 1108.94,-58.9321 L 1109.64,-58.4661 L 1110.22,-57.866 L 1110.66,-57.1579 L 1110.95,-56.3728 L 1111.07,-55.3957
 L 1111.07,-22 L 1110.98,-21.1684 L 1110.73,-20.373 L 1110.31,-19.6489 L 1109.75,-19.0274 L 1109.07,-18.5359
 L 1108.31,-18.1958 L 1107.07,-18 z
M 22,-18 L 20.7639,-18.1958 L 20,-18.5359 L 19.3235,-19.0274 L 18.7639,-19.6489 L 18.3458,-20.373
 L 18.0874,-21.1684 L 18,-22 L 18,-54.8457 L 18.1212,-55.8228 L 18.4091,-56.6079 L 18.8539,-57.3159
 L 19.4363,-57.9161 L 20.1307,-58.382 L 20.9068,-58.6934 L 21.7307,-58.8366 L 22.5663,-58.8054 L 23.3772,-58.6011
 L 112.944,-25.7554 L 113.918,-25.2361 L 114.539,-24.6765 L 115.031,-24 L 115.371,-23.2361 L 115.545,-22.4181
 L 115.545,-21.5819 L 115.371,-20.7639 L 115.031,-20 L 114.539,-19.3235 L 113.918,-18.7639 L 113.194,-18.3458
 L 112.398,-18.0874 L 111.567,-18 z
M 1201.43,-18 L 1200.6,-18.0874 L 1199.81,-18.3458 L 1199.08,-18.7639 L 1198.46,-19.3235 L 1197.97,-20
 L 1197.63,-20.7639 L 1197.46,-21.5819 L 1197.46,-22.4181 L 1197.63,-23.2361 L 1197.97,-24 L 1198.46,-24.6765
 L 1199.08,-25.2361 L 1200.06,-25.7554 L 1289.62,-58.6011 L 1290.43,-58.8054 L 1291.27,-58.8366 L 1292.09,-58.6934
 L 1292.87,-58.382 L 1293.56,-57.9161 L 1294.15,-57.3159 L 1294.59,-56.6079 L 1294.88,-55.8228 L 1295,-54.8457
 L 1295,-22 L 1294.91,-21.1684 L 1294.65,-20.373 L 1294.24,-19.6489 L 1293.68,-19.0274 L 1293,-18.5359
 L 1292.24,-18.1958 L 1291,-18 z
M 639.343,-18 L 638.25,-18.1523 L 637.473,-18.4637 L 636.779,-18.9296 L 636.197,-19.5297 L 635.752,-20.2378
 L 635.464,-21.0229 L 635.346,-21.8507 L 635.402,-22.685 L 635.63,-23.4894 L 636.021,-24.2287 L 636.557,-24.8706
 L 637.215,-25.387 L 637.966,-25.7554 L 655.123,-32.0473 L 656.231,-32.2828 L 657.066,-32.2516 L 657.877,-32.0473
 L 675.034,-25.7554 L 676.008,-25.2361 L 676.63,-24.6765 L 677.121,-24 L 677.461,-23.2361 L 677.635,-22.4181
 L 677.635,-21.5819 L 677.461,-20.7639 L 677.121,-20 L 676.63,-19.3235 L 676.008,-18.7639 L 675.284,-18.3458
 L 674.489,-18.0874 L 673.657,-18 z
" stroke="black" fill="lightgray" stroke-width="0.5"/>
</svg>
