<?xml version="1.0" standalone="no"?>
<!DOCTYPE svg PUBLIC "-//W3C//DTD SVG 1.1//EN" "http://www.w3.org/Graphics/SVG/1.1/DTD/svg11.dtd">
<svg width="1618mm" height="80mm" viewBox="0 -80 1618 80" xmlns="http://www.w3.org/2000/svg" version="1.1">
<title>OpenSCAD Model</title>
<path d="
M 1618,-80 L 0,-80 L 0,-0 L 4.95,-0 L 4.95,-6 L 5.00572,-6.53017
 L 5.17046,-7.03717 L 5.437,-7.49884 L 5.79372,-7.895 L 6.22499,-8.20836 L 6.71201,-8.42519 L 7.23344,-8.53603
 L 7.76654,-8.53603 L 8.28798,-8.42519 L 8.77499,-8.20836 L 9.20627,-7.895 L 9.56299,-7.49884 L 9.82953,-7.03717
 L 9.99426,-6.53017 L 10.05,-6 L 10.05,-0 L 183.061,-0 L 183.061,-6 L 183.117,-6.53017
 L 183.282,-7.03717 L 183.548,-7.49884 L 183.905,-7.895 L 184.336,-8.20836 L 184.823,-8.42519 L 185.345,-8.53603
 L 185.878,-8.53603 L 186.399,-8.42519 L 186.886,-8.20836 L 187.317,-7.895 L 187.674,-7.49884 L 187.941,-7.03717
 L 188.105,-6.53017 L 188.161,-6 L 188.161,-0 L 361.172,-0 L 361.172,-6 L 361.228,-6.53017
 L 361.393,-7.03717 L 361.659,-7.49884 L 362.016,-7.895 L 362.447,-8.20836 L 362.934,-8.42519 L 363.456,-8.53603
 L 363.989,-8.53603 L 364.51,-8.42519 L 364.997,-8.20836 L 365.428,-7.895 L 365.785,-7.49884 L 366.052,-7.03717
 L 366.216,-6.53017 L 366.272,-6 L 366.272,-0 L 539.283,-0 L 539.283,-6 L 539.339,-6.53017
 L 539.504,-7.03717 L 539.77,-7.49884 L 540.127,-7.895 L 540.558,-8.20836 L 541.045,-8.42519 L 541.567,-8.53603
 L 542.1,-8.53603 L 542.621,-8.42519 L 543.108,-8.20836 L 543.54,-7.895 L 543.896,-7.49884 L 544.163,-7.03717
 L 544.328,-6.53017 L 544.383,-6 L 544.383,-0 L 717.394,-0 L 717.394,-6 L 717.45,-6.53017
 L 717.615,-7.03717 L 717.881,-7.49884 L 718.238,-7.895 L 718.669,-8.20836 L 719.156,-8.42519 L 719.678,-8.53603
 L 720.211,-8.53603 L 720.732,-8.42519 L 721.219,-8.20836 L 721.651,-7.895 L 722.007,-7.49884 L 722.274,-7.03717
 L 722.439,-6.53017 L 722.494,-6 L 722.494,-0 L 895.506,-0 L 895.506,-6 L 895.561,-6.53017
 L 895.726,-7.03717 L 895.993,-7.49884 L 896.349,-7.895 L 896.781,-8.20836 L 897.268,-8.42519 L 897.789,-8.53603
 L 898.322,-8.53603 L 898.844,-8.42519 L 899.331,-8.20836 L 899.762,-7.895 L 900.119,-7.49884 L 900.385,-7.03717
 L 900.55,-6.53017 L 900.606,-6 L 900.606,-0 L 1073.62,-0 L 1073.62,-6 L 1073.67,-6.53017
 L 1073.84,-7.03717 L 1074.1,-7.49884 L 1074.46,-7.895 L 1074.89,-8.20836 L 1075.38,-8.42519 L 1075.9,-8.53603
 L 1076.43,-8.53603 L 1076.95,-8.42519 L 1077.44,-8.20836 L 1077.87,-7.895 L 1078.23,-7.49884 L 1078.5,-7.03717
 L 1078.66,-6.53017 L 1078.72,-6 L 1078.72,-0 L 1251.73,-0 L 1251.73,-6 L 1251.78,-6.53017
 L 1251.95,-7.03717 L 1252.21,-7.49884 L 1252.57,-7.895 L 1253,-8.20836 L 1253.49,-8.42519 L 1254.01,-8.53603
 L 1254.54,-8.53603 L 1255.07,-8.42519 L 1255.55,-8.20836 L 1255.98,-7.895 L 1256.34,-7.49884 L 1256.61,-7.03717
 L 1256.77,-6.53017 L 1256.83,-6 L 1256.83,-0 L 1429.84,-0 L 1429.84,-6 L 1429.89,-6.53017
 L 1430.06,-7.03717 L 1430.33,-7.49884 L 1430.68,-7.895 L 1431.11,-8.20836 L 1431.6,-8.42519 L 1432.12,-8.53603
 L 1432.66,-8.53603 L 1433.18,-8.42519 L 1433.66,-8.20836 L 1434.1,-7.895 L 1434.45,-7.49884 L 1434.72,-7.03717
 L 1434.88,-6.53017 L 1434.94,-6 L 1434.94,-0 L 1607.95,-0 L 1607.95,-6 L 1608.01,-6.53017
 L 1608.17,-7.03717 L 1608.44,-7.49884 L 1608.79,-7.895 L 1609.22,-8.20836 L 1609.71,-8.42519 L 1610.23,-8.53603
 L 1610.77,-8.53603 L 1611.29,-8.42519 L 1611.77,-8.20836 L 1612.21,-7.895 L 1612.56,-7.49884 L 1612.83,-7.03717
 L 1612.99,-6.53017 L 1613.05,-6 L 1613.05,-0 L 1618,-0 z
M 6.98573,-55.607 L 6.47708,-55.6875 L 5.97964,-55.8208 L 5.49887,-56.0054 L 5.04001,-56.2392 L 4.60811,-56.5196
 L 4.20789,-56.8437 L 3.84373,-57.2079 L 3.51964,-57.6081 L 3.23917,-58.04 L 3.00537,-58.4989 L 2.82082,-58.9796
 L 2.68752,-59.4771 L 2.60696,-59.9857 L 2.58,-60.5 L 2.60696,-61.0143 L 2.68752,-61.5229 L 2.82082,-62.0204
 L 3.00537,-62.5011 L 3.23917,-62.96 L 3.51964,-63.3919 L 3.84373,-63.7921 L 4.20789,-64.1563 L 4.60811,-64.4804
 L 4.95001,-64.7024 L 4.95001,-74 L 5.00574,-74.5302 L 5.17047,-75.0372 L 5.43701,-75.4988 L 5.79373,-75.895
 L 6.22501,-76.2084 L 6.71202,-76.4252 L 7.23346,-76.536 L 7.76654,-76.536 L 8.28798,-76.4252 L 8.77499,-76.2084
 L 9.20627,-75.895 L 9.56299,-75.4988 L 9.82953,-75.0372 L 9.99426,-74.5302 L 10.05,-74 L 10.05,-64.7024
 L 10.3919,-64.4804 L 10.7921,-64.1563 L 11.1563,-63.7921 L 11.4804,-63.3919 L 11.7608,-62.96 L 11.9946,-62.5011
 L 12.1792,-62.0204 L 12.3125,-61.5229 L 12.393,-61.0143 L 12.42,-60.5 L 12.393,-59.9857 L 12.3125,-59.4771
 L 12.1792,-58.9796 L 11.9946,-58.4989 L 11.7608,-58.04 L 11.4804,-57.6081 L 11.1563,-57.2079 L 10.7921,-56.8437
 L 10.3919,-56.5196 L 9.95999,-56.2392 L 9.50113,-56.0054 L 9.02036,-55.8208 L 8.52292,-55.6875 L 8.01427,-55.607
 L 7.5,-55.58 z
M 1075.65,-55.607 L 1075.14,-55.6875 L 1074.65,-55.8208 L 1074.17,-56.0054 L 1073.71,-56.2392 L 1073.27,-56.5196
 L 1072.87,-56.8437 L 1072.51,-57.2079 L 1072.19,-57.6081 L 1071.91,-58.04 L 1071.67,-58.4989 L 1071.49,-58.9796
 L 1071.35,-59.4771 L 1071.27,-59.9857 L 1071.25,-60.5 L 1071.27,-61.0143 L 1071.35,-61.5229 L 1071.49,-62.0204
 L 1071.67,-62.5011 L 1071.91,-62.96 L 1072.19,-63.3919 L 1072.51,-63.7921 L 1072.87,-64.1563 L 1073.27,-64.4804
 L 1073.62,-64.7024 L 1073.62,-74 L 1073.67,-74.5302 L 1073.84,-75.0372 L 1074.1,-75.4988 L 1074.46,-75.895
 L 1074.89,-76.2084 L 1075.38,-76.4252 L 1075.9,-76.536 L 1076.43,-76.536 L 1076.95,-76.4252 L 1077.44,-76.2084
 L 1077.87,-75.895 L 1078.23,-75.4988 L 1078.5,-75.0372 L 1078.66,-74.5302 L 1078.72,-74 L 1078.72,-64.7024
 L 1079.06,-64.4804 L 1079.46,-64.1563 L 1079.82,-63.7921 L 1080.15,-63.3919 L 1080.43,-62.96 L 1080.66,-62.5011
 L 1080.85,-62.0204 L 1080.98,-61.5229 L 1081.06,-61.0143 L 1081.09,-60.5 L 1081.06,-59.9857 L 1080.98,-59.4771
 L 1080.85,-58.9796 L 1080.66,-58.4989 L 1080.43,-58.04 L 1080.15,-57.6081 L 1079.82,-57.2079 L 1079.46,-56.8437
 L 1079.06,-56.5196 L 1078.63,-56.2392 L 1078.17,-56.0054 L 1077.69,-55.8208 L 1077.19,-55.6875 L 1076.68,-55.607
 L 1076.17,-55.58 z
M 1253.76,-55.607 L 1253.25,-55.6875 L 1252.76,-55.8208 L 1252.28,-56.0054 L 1251.82,-56.2392 L 1251.39,-56.5196
 L 1250.99,-56.8437 L 1250.62,-57.2079 L 1250.3,-57.6081 L 1250.02,-58.04 L 1249.78,-58.4989 L 1249.6,-58.9796
 L 1249.47,-59.4771 L 1249.38,-59.9857 L 1249.36,-60.5 L 1249.38,-61.0143 L 1249.47,-61.5229 L 1249.6,-62.0204
 L 1249.78,-62.5011 L 1250.02,-62.96 L 1250.3,-63.3919 L 1250.62,-63.7921 L 1250.99,-64.1563 L 1251.39,-64.4804
 L 1251.73,-64.7024 L 1251.73,-74 L 1251.78,-74.5302 L 1251.95,-75.0372 L 1252.21,-75.4988 L 1252.57,-75.895
 L 1253,-76.2084 L 1253.49,-76.4252 L 1254.01,-76.536 L 1254.54,-76.536 L 1255.07,-76.4252 L 1255.55,-76.2084
 L 1255.98,-75.895 L 1256.34,-75.4988 L 1256.61,-75.0372 L 1256.77,-74.5302 L 1256.83,-74 L 1256.83,-64.7024
 L 1257.17,-64.4804 L 1257.57,-64.1563 L 1257.93,-63.7921 L 1258.26,-63.3919 L 1258.54,-62.96 L 1258.77,-62.5011
 L 1258.96,-62.0204 L 1259.09,-61.5229 L 1259.17,-61.0143 L 1259.2,-60.5 L 1259.17,-59.9857 L 1259.09,-59.4771
 L 1258.96,-58.9796 L 1258.77,-58.4989 L 1258.54,-58.04 L 1258.26,-57.6081 L 1257.93,-57.2079 L 1257.57,-56.8437
 L 1257.17,-56.5196 L 1256.74,-56.2392 L 1256.28,-56.0054 L 1255.8,-55.8208 L 1255.3,-55.6875 L 1254.79,-55.607
 L 1254.28,-55.58 z
M 897.541,-55.607 L 897.033,-55.6875 L 896.535,-55.8208 L 896.054,-56.0054 L 895.596,-56.2392 L 895.164,-56.5196
 L 894.763,-56.8437 L 894.399,-57.2079 L 894.075,-57.6081 L 893.795,-58.04 L 893.561,-58.4989 L 893.376,-58.9796
 L 893.243,-59.4771 L 893.163,-59.9857 L 893.136,-60.5 L 893.163,-61.0143 L 893.243,-61.5229 L 893.376,-62.0204
 L 893.561,-62.5011 L 893.795,-62.96 L 894.075,-63.3919 L 894.399,-63.7921 L 894.763,-64.1563 L 895.164,-64.4804
 L 895.506,-64.7024 L 895.506,-74 L 895.561,-74.5302 L 895.726,-75.0372 L 895.993,-75.4988 L 896.349,-75.895
 L 896.781,-76.2084 L 897.268,-76.4252 L 897.789,-76.536 L 898.322,-76.536 L 898.844,-76.4252 L 899.331,-76.2084
 L 899.762,-75.895 L 900.119,-75.4988 L 900.385,-75.0372 L 900.55,-74.5302 L 900.606,-74 L 900.606,-64.7024
 L 900.947,-64.4804 L 901.348,-64.1563 L 901.712,-63.7921 L 902.036,-63.3919 L 902.316,-62.96 L 902.55,-62.5011
 L 902.735,-62.0204 L 902.868,-61.5229 L 902.949,-61.0143 L 902.976,-60.5 L 902.949,-59.9857 L 902.868,-59.4771
 L 902.735,-58.9796 L 902.55,-58.4989 L 902.316,-58.04 L 902.036,-57.6081 L 901.712,-57.2079 L 901.348,-56.8437
 L 900.947,-56.5196 L 900.516,-56.2392 L 900.057,-56.0054 L 899.576,-55.8208 L 899.078,-55.6875 L 898.57,-55.607
 L 898.056,-55.58 z
M 719.43,-55.607 L 718.922,-55.6875 L 718.424,-55.8208 L 717.943,-56.0054 L 717.484,-56.2392 L 717.053,-56.5196
 L 716.652,-56.8437 L 716.288,-57.2079 L 715.964,-57.6081 L 715.684,-58.04 L 715.45,-58.4989 L 715.265,-58.9796
 L 715.132,-59.4771 L 715.051,-59.9857 L 715.024,-60.5 L 715.051,-61.0143 L 715.132,-61.5229 L 715.265,-62.0204
 L 715.45,-62.5011 L 715.684,-62.96 L 715.964,-63.3919 L 716.288,-63.7921 L 716.652,-64.1563 L 717.053,-64.4804
 L 717.394,-64.7024 L 717.394,-74 L 717.45,-74.5302 L 717.615,-75.0372 L 717.881,-75.4988 L 718.238,-75.895
 L 718.669,-76.2084 L 719.156,-76.4252 L 719.678,-76.536 L 720.211,-76.536 L 720.732,-76.4252 L 721.219,-76.2084
 L 721.651,-75.895 L 722.007,-75.4988 L 722.274,-75.0372 L 722.439,-74.5302 L 722.494,-74 L 722.494,-64.7024
 L 722.836,-64.4804 L 723.237,-64.1563 L 723.601,-63.7921 L 723.925,-63.3919 L 724.205,-62.96 L 724.439,-62.5011
 L 724.624,-62.0204 L 724.757,-61.5229 L 724.837,-61.0143 L 724.864,-60.5 L 724.837,-59.9857 L 724.757,-59.4771
 L 724.624,-58.9796 L 724.439,-58.4989 L 724.205,-58.04 L 723.925,-57.6081 L 723.601,-57.2079 L 723.237,-56.8437
 L 722.836,-56.5196 L 722.404,-56.2392 L 721.946,-56.0054 L 721.465,-55.8208 L 720.967,-55.6875 L 720.459,-55.607
 L 719.944,-55.58 z
M 1431.87,-55.607 L 1431.37,-55.6875 L 1430.87,-55.8208 L 1430.39,-56.0054 L 1429.93,-56.2392 L 1429.5,-56.5196
 L 1429.1,-56.8437 L 1428.73,-57.2079 L 1428.41,-57.6081 L 1428.13,-58.04 L 1427.89,-58.4989 L 1427.71,-58.9796
 L 1427.58,-59.4771 L 1427.5,-59.9857 L 1427.47,-60.5 L 1427.5,-61.0143 L 1427.58,-61.5229 L 1427.71,-62.0204
 L 1427.89,-62.5011 L 1428.13,-62.96 L 1428.41,-63.3919 L 1428.73,-63.7921 L 1429.1,-64.1563 L 1429.5,-64.4804
 L 1429.84,-64.7024 L 1429.84,-74 L 1429.89,-74.5302 L 1430.06,-75.0372 L 1430.33,-75.4988 L 1430.68,-75.895
 L 1431.11,-76.2084 L 1431.6,-76.4252 L 1432.12,-76.536 L 1432.66,-76.536 L 1433.18,-76.4252 L 1433.66,-76.2084
 L 1434.1,-75.895 L 1434.45,-75.4988 L 1434.72,-75.0372 L 1434.88,-74.5302 L 1434.94,-74 L 1434.94,-64.7024
 L 1435.28,-64.4804 L 1435.68,-64.1563 L 1436.05,-63.7921 L 1436.37,-63.3919 L 1436.65,-62.96 L 1436.88,-62.5011
 L 1437.07,-62.0204 L 1437.2,-61.5229 L 1437.28,-61.0143 L 1437.31,-60.5 L 1437.28,-59.9857 L 1437.2,-59.4771
 L 1437.07,-58.9796 L 1436.88,-58.4989 L 1436.65,-58.04 L 1436.37,-57.6081 L 1436.05,-57.2079 L 1435.68,-56.8437
 L 1435.28,-56.5196 L 1434.85,-56.2392 L 1434.39,-56.0054 L 1433.91,-55.8208 L 1433.41,-55.6875 L 1432.9,-55.607
 L 1432.39,-55.58 z
M 541.319,-55.607 L 540.81,-55.6875 L 540.313,-55.8208 L 539.832,-56.0054 L 539.373,-56.2392 L 538.941,-56.5196
 L 538.541,-56.8437 L 538.177,-57.2079 L 537.853,-57.6081 L 537.572,-58.04 L 537.339,-58.4989 L 537.154,-58.9796
 L 537.021,-59.4771 L 536.94,-59.9857 L 536.913,-60.5 L 536.94,-61.0143 L 537.021,-61.5229 L 537.154,-62.0204
 L 537.339,-62.5011 L 537.572,-62.96 L 537.853,-63.3919 L 538.177,-63.7921 L 538.541,-64.1563 L 538.941,-64.4804
 L 539.283,-64.7024 L 539.283,-74 L 539.339,-74.5302 L 539.504,-75.0372 L 539.77,-75.4988 L 540.127,-75.895
 L 540.558,-76.2084 L 541.045,-76.4252 L 541.567,-76.536 L 542.1,-76.536 L 542.621,-76.4252 L 543.108,-76.2084
 L 543.54,-75.895 L 543.896,-75.4988 L 544.163,-75.0372 L 544.328,-74.5302 L 544.383,-74 L 544.383,-64.7024
 L 544.725,-64.4804 L 545.125,-64.1563 L 545.49,-63.7921 L 545.814,-63.3919 L 546.094,-62.96 L 546.328,-62.5011
 L 546.513,-62.0204 L 546.646,-61.5229 L 546.726,-61.0143 L 546.753,-60.5 L 546.726,-59.9857 L 546.646,-59.4771
 L 546.513,-58.9796 L 546.328,-58.4989 L 546.094,-58.04 L 545.814,-57.6081 L 545.49,-57.2079 L 545.125,-56.8437
 L 544.725,-56.5196 L 544.293,-56.2392 L 543.834,-56.0054 L 543.354,-55.8208 L 542.856,-55.6875 L 542.348,-55.607
 L 541.833,-55.58 z
M 363.208,-55.607 L 362.699,-55.6875 L 362.202,-55.8208 L 361.721,-56.0054 L 361.262,-56.2392 L 360.83,-56.5196
 L 360.43,-56.8437 L 360.066,-57.2079 L 359.742,-57.6081 L 359.461,-58.04 L 359.228,-58.4989 L 359.043,-58.9796
 L 358.91,-59.4771 L 358.829,-59.9857 L 358.802,-60.5 L 358.829,-61.0143 L 358.91,-61.5229 L 359.043,-62.0204
 L 359.228,-62.5011 L 359.461,-62.96 L 359.742,-63.3919 L 360.066,-63.7921 L 360.43,-64.1563 L 360.83,-64.4804
 L 361.172,-64.7024 L 361.172,-74 L 361.228,-74.5302 L 361.393,-75.0372 L 361.659,-75.4988 L 362.016,-75.895
 L 362.447,-76.2084 L 362.934,-76.4252 L 363.456,-76.536 L 363.989,-76.536 L 364.51,-76.4252 L 364.997,-76.2084
 L 365.428,-75.895 L 365.785,-75.4988 L 366.052,-75.0372 L 366.216,-74.5302 L 366.272,-74 L 366.272,-64.7024
 L 366.614,-64.4804 L 367.014,-64.1563 L 367.378,-63.7921 L 367.703,-63.3919 L 367.983,-62.96 L 368.217,-62.5011
 L 368.401,-62.0204 L 368.535,-61.5229 L 368.615,-61.0143 L 368.642,-60.5 L 368.615,-59.9857 L 368.535,-59.4771
 L 368.401,-58.9796 L 368.217,-58.4989 L 367.983,-58.04 L 367.703,-57.6081 L 367.378,-57.2079 L 367.014,-56.8437
 L 366.614,-56.5196 L 366.182,-56.2392 L 365.723,-56.0054 L 365.243,-55.8208 L 364.745,-55.6875 L 364.236,-55.607
 L 363.722,-55.58 z
M 1609.99,-55.607 L 1609.48,-55.6875 L 1608.98,-55.8208 L 1608.5,-56.0054 L 1608.04,-56.2392 L 1607.61,-56.5196
 L 1607.21,-56.8437 L 1606.84,-57.2079 L 1606.52,-57.6081 L 1606.24,-58.04 L 1606.01,-58.4989 L 1605.82,-58.9796
 L 1605.69,-59.4771 L 1605.61,-59.9857 L 1605.58,-60.5 L 1605.61,-61.0143 L 1605.69,-61.5229 L 1605.82,-62.0204
 L 1606.01,-62.5011 L 1606.24,-62.96 L 1606.52,-63.3919 L 1606.84,-63.7921 L 1607.21,-64.1563 L 1607.61,-64.4804
 L 1607.95,-64.7024 L 1607.95,-74 L 1608.01,-74.5302 L 1608.17,-75.0372 L 1608.44,-75.4988 L 1608.79,-75.895
 L 1609.23,-76.2084 L 1609.71,-76.4252 L 1610.23,-76.536 L 1610.77,-76.536 L 1611.29,-76.4252 L 1611.77,-76.2084
 L 1612.21,-75.895 L 1612.56,-75.4988 L 1612.83,-75.0372 L 1612.99,-74.5302 L 1613.05,-74 L 1613.05,-64.7024
 L 1613.39,-64.4804 L 1613.79,-64.1563 L 1614.16,-63.7921 L 1614.48,-63.3919 L 1614.76,-62.96 L 1614.99,-62.5011
 L 1615.18,-62.0204 L 1615.31,-61.5229 L 1615.39,-61.0143 L 1615.42,-60.5 L 1615.39,-59.9857 L 1615.31,-59.4771
 L 1615.18,-58.9796 L 1614.99,-58.4989 L 1614.76,-58.04 L 1614.48,-57.6081 L 1614.16,-57.2079 L 1613.79,-56.8437
 L 1613.39,-56.5196 L 1612.96,-56.2392 L 1612.5,-56.0054 L 1612.02,-55.8208 L 1611.52,-55.6875 L 1611.01,-55.607
 L 1610.5,-55.58 z
M 185.097,-55.607 L 184.588,-55.6875 L 184.091,-55.8208 L 183.61,-56.0054 L 183.151,-56.2392 L 182.719,-56.5196
 L 182.319,-56.8437 L 181.955,-57.2079 L 181.631,-57.6081 L 181.35,-58.04 L 181.116,-58.4989 L 180.932,-58.9796
 L 180.799,-59.4771 L 180.718,-59.9857 L 180.691,-60.5 L 180.718,-61.0143 L 180.799,-61.5229 L 180.932,-62.0204
 L 181.116,-62.5011 L 181.35,-62.96 L 181.631,-63.3919 L 181.955,-63.7921 L 182.319,-64.1563 L 182.719,-64.4804
 L 183.061,-64.7024 L 183.061,-74 L 183.117,-74.5302 L 183.282,-75.0372 L 183.548,-75.4988 L 183.905,-75.895
 L 184.336,-76.2084 L 184.823,-76.4252 L 185.345,-76.536 L 185.878,-76.536 L 186.399,-76.4252 L 186.886,-76.2084
 L 187.317,-75.895 L 187.674,-75.4988 L 187.941,-75.0372 L 188.105,-74.5302 L 188.161,-74 L 188.161,-64.7024
 L 188.503,-64.4804 L 188.903,-64.1563 L 189.267,-63.7921 L 189.591,-63.3919 L 189.872,-62.96 L 190.106,-62.5011
 L 190.29,-62.0204 L 190.424,-61.5229 L 190.504,-61.0143 L 190.531,-60.5 L 190.504,-59.9857 L 190.424,-59.4771
 L 190.29,-58.9796 L 190.106,-58.4989 L 189.872,-58.04 L 189.591,-57.6081 L 189.267,-57.2079 L 188.903,-56.8437
 L 188.503,-56.5196 L 188.071,-56.2392 L 187.612,-56.0054 L 187.131,-55.8208 L 186.634,-55.6875 L 186.125,-55.607
 L 185.611,-55.58 z
M 1088.12,-20.9988 L 1087.34,-21.2999 L 1086.64,-21.7566 L 1086.05,-22.349 L 1085.6,-23.0511 L 1085.3,-23.8324
 L 1085.17,-24.8606 L 1085.17,-58 L 1085.25,-58.8316 L 1085.51,-59.627 L 1085.93,-60.3511 L 1086.49,-60.9726
 L 1087.17,-61.4641 L 1087.93,-61.8042 L 1089.17,-62 L 1175.97,-62 L 1176.8,-61.9126 L 1177.59,-61.6542
 L 1178.32,-61.2361 L 1178.94,-60.6765 L 1179.43,-60 L 1179.77,-59.2361 L 1179.95,-58.4181 L 1179.95,-57.5819
 L 1179.77,-56.7639 L 1179.43,-56 L 1178.94,-55.3235 L 1178.32,-54.7639 L 1177.39,-54.2631 L 1090.59,-21.1237
 L 1089.79,-20.9087 L 1088.95,-20.8665 z
M 910.013,-20.9988 L 909.233,-21.2999 L 908.533,-21.7566 L 907.942,-22.349 L 907.488,-23.0511 L 907.19,-23.8324
 L 907.056,-24.8606 L 907.056,-58 L 907.143,-58.8316 L 907.401,-59.627 L 907.819,-60.3511 L 908.379,-60.9726
 L 909.056,-61.4641 L 909.819,-61.8042 L 911.056,-62 L 997.857,-62 L 998.689,-61.9126 L 999.484,-61.6542
 L 1000.21,-61.2361 L 1000.83,-60.6765 L 1001.32,-60 L 1001.66,-59.2361 L 1001.83,-58.4181 L 1001.83,-57.5819
 L 1001.66,-56.7639 L 1001.32,-56 L 1000.83,-55.3235 L 1000.21,-54.7639 L 999.284,-54.2631 L 912.482,-21.1237
 L 911.674,-20.9087 L 910.839,-20.8665 z
M 808.381,-47.8075 L 807.573,-48.0224 L 791.227,-54.2631 L 790.303,-54.7639 L 789.681,-55.3235 L 789.19,-56
 L 788.85,-56.7639 L 788.676,-57.5819 L 788.676,-58.4181 L 788.85,-59.2361 L 789.19,-60 L 789.681,-60.6765
 L 790.303,-61.2361 L 791.027,-61.6542 L 791.822,-61.9126 L 792.654,-62 L 825.346,-62 L 826.388,-61.8618
 L 827.168,-61.5607 L 827.869,-61.104 L 828.459,-60.5116 L 828.913,-59.8095 L 829.212,-59.0283 L 829.341,-58.2021
 L 829.296,-57.3671 L 829.078,-56.5598 L 828.697,-55.8154 L 828.169,-55.1664 L 827.518,-54.6414 L 826.773,-54.2631
 L 810.427,-48.0224 L 809.217,-47.7652 z
M 706.326,-20.9087 L 705.518,-21.1237 L 618.716,-54.2631 L 617.792,-54.7639 L 617.171,-55.3235 L 616.679,-56
 L 616.339,-56.7639 L 616.165,-57.5819 L 616.165,-58.4181 L 616.339,-59.2361 L 616.679,-60 L 617.171,-60.6765
 L 617.792,-61.2361 L 618.516,-61.6542 L 619.311,-61.9126 L 620.143,-62 L 706.944,-62 L 708.18,-61.8042
 L 708.944,-61.4641 L 709.621,-60.9726 L 710.18,-60.3511 L 710.599,-59.627 L 710.857,-58.8316 L 710.944,-58
 L 710.944,-24.8606 L 710.81,-23.8324 L 710.512,-23.0511 L 710.058,-22.349 L 709.467,-21.7566 L 708.767,-21.2999
 L 707.987,-20.9988 L 707.161,-20.8665 z
M 528.215,-20.9087 L 527.407,-21.1237 L 440.605,-54.2631 L 439.681,-54.7639 L 439.059,-55.3235 L 438.568,-56
 L 438.228,-56.7639 L 438.054,-57.5819 L 438.054,-58.4181 L 438.228,-59.2361 L 438.568,-60 L 439.059,-60.6765
 L 439.681,-61.2361 L 440.405,-61.6542 L 441.2,-61.9126 L 442.032,-62 L 528.833,-62 L 530.069,-61.8042
 L 530.833,-61.4641 L 531.51,-60.9726 L 532.069,-60.3511 L 532.487,-59.627 L 532.746,-58.8316 L 532.833,-58
 L 532.833,-24.8606 L 532.699,-23.8324 L 532.401,-23.0511 L 531.946,-22.349 L 531.356,-21.7566 L 530.656,-21.2999
 L 529.876,-20.9988 L 529.05,-20.8665 z
M 350.104,-20.9087 L 349.296,-21.1237 L 262.494,-54.2631 L 261.57,-54.7639 L 260.948,-55.3235 L 260.457,-56
 L 260.117,-56.7639 L 259.943,-57.5819 L 259.943,-58.4181 L 260.117,-59.2361 L 260.457,-60 L 260.948,-60.6765
 L 261.57,-61.2361 L 262.294,-61.6542 L 263.089,-61.9126 L 263.921,-62 L 350.722,-62 L 351.958,-61.8042
 L 352.722,-61.4641 L 353.399,-60.9726 L 353.958,-60.3511 L 354.376,-59.627 L 354.635,-58.8316 L 354.722,-58
 L 354.722,-24.8606 L 354.588,-23.8324 L 354.29,-23.0511 L 353.835,-22.349 L 353.245,-21.7566 L 352.545,-21.2999
 L 351.764,-20.9988 L 350.939,-20.8665 z
M 1444.35,-20.9988 L 1443.57,-21.2999 L 1442.87,-21.7566 L 1442.28,-22.349 L 1441.82,-23.0511 L 1441.52,-23.8324
 L 1441.39,-24.8606 L 1441.39,-58 L 1441.48,-58.8316 L 1441.73,-59.627 L 1442.15,-60.3511 L 1442.71,-60.9726
 L 1443.39,-61.4641 L 1444.15,-61.8042 L 1445.39,-62 L 1532.19,-62 L 1533.02,-61.9126 L 1533.82,-61.6542
 L 1534.54,-61.2361 L 1535.16,-60.6765 L 1535.65,-60 L 1535.99,-59.2361 L 1536.17,-58.4181 L 1536.17,-57.5819
 L 1535.99,-56.7639 L 1535.65,-56 L 1535.16,-55.3235 L 1534.54,-54.7639 L 1533.62,-54.2631 L 1446.82,-21.1237
 L 1446.01,-20.9087 L 1445.17,-20.8665 z
M 171.993,-20.9087 L 171.184,-21.1237 L 84.3831,-54.2631 L 83.4586,-54.7639 L 82.8372,-55.3235 L 82.3457,-56
 L 82.0056,-56.7639 L 81.8317,-57.5819 L 81.8317,-58.4181 L 82.0056,-59.2361 L 82.3457,-60 L 82.8372,-60.6765
 L 83.4586,-61.2361 L 84.1828,-61.6542 L 84.9781,-61.9126 L 85.8098,-62 L 172.611,-62 L 173.847,-61.8042
 L 174.611,-61.4641 L 175.288,-60.9726 L 175.847,-60.3511 L 176.265,-59.627 L 176.524,-58.8316 L 176.611,-58
 L 176.611,-24.8606 L 176.477,-23.8324 L 176.178,-23.0511 L 175.724,-22.349 L 175.134,-21.7566 L 174.434,-21.2999
 L 173.653,-20.9988 L 172.828,-20.8665 z
M 1266.24,-20.9988 L 1265.46,-21.2999 L 1264.75,-21.7566 L 1264.16,-22.349 L 1263.71,-23.0511 L 1263.41,-23.8324
 L 1263.28,-24.8606 L 1263.28,-58 L 1263.37,-58.8316 L 1263.62,-59.627 L 1264.04,-60.3511 L 1264.6,-60.9726
 L 1265.28,-61.4641 L 1266.04,-61.8042 L 1267.28,-62 L 1354.08,-62 L 1354.91,-61.9126 L 1355.71,-61.6542
 L 1356.43,-61.2361 L 1357.05,-60.6765 L 1357.54,-60 L 1357.88,-59.2361 L 1358.06,-58.4181 L 1358.06,-57.5819
 L 1357.88,-56.7639 L 1357.54,-56 L 1357.05,-55.3235 L 1356.43,-54.7639 L 1355.51,-54.2631 L 1268.7,-21.1237
 L 1267.9,-20.9087 L 1267.06,-20.8665 z
M 732.526,-18.7445 L 731.708,-18.9183 L 730.944,-19.2585 L 730.268,-19.75 L 729.708,-20.3714 L 729.29,-21.0956
 L 729.032,-21.8909 L 728.944,-22.7226 L 728.944,-57.2774 L 729.079,-58.3057 L 729.377,-59.0869 L 729.831,-59.7891
 L 730.422,-60.3815 L 731.122,-60.8382 L 731.902,-61.1393 L 732.728,-61.2716 L 733.563,-61.2293 L 734.371,-61.0144
 L 779.626,-43.7369 L 780.021,-43.5607 L 780.722,-43.104 L 781.312,-42.5116 L 781.766,-41.8095 L 782.064,-41.0283
 L 782.194,-40.2021 L 782.149,-39.3671 L 781.931,-38.5598 L 781.55,-37.8154 L 781.022,-37.1664 L 780.371,-36.6414
 L 779.626,-36.2631 L 734.371,-18.9856 L 733.363,-18.7445 z
M 884.437,-18.7707 L 883.629,-18.9856 L 838.374,-36.2631 L 837.979,-36.4393 L 837.278,-36.896 L 836.688,-37.4884
 L 836.234,-38.1905 L 835.936,-38.9717 L 835.806,-39.7979 L 835.851,-40.6329 L 836.069,-41.4402 L 836.45,-42.1846
 L 836.978,-42.8336 L 837.629,-43.3586 L 838.374,-43.7369 L 883.629,-61.0144 L 884.637,-61.2555 L 885.474,-61.2555
 L 886.292,-61.0817 L 887.056,-60.7415 L 887.732,-60.25 L 888.292,-59.6286 L 888.71,-58.9044 L 888.968,-58.1091
 L 889.056,-57.2774 L 889.056,-22.7226 L 888.921,-21.6943 L 888.623,-20.9131 L 888.169,-20.2109 L 887.578,-19.6185
 L 886.878,-19.1618 L 886.098,-18.8607 L 885.272,-18.7284 z
M 198.611,-18 L 197.375,-18.1958 L 196.611,-18.5359 L 195.935,-19.0274 L 195.375,-19.6489 L 194.957,-20.373
 L 194.699,-21.1684 L 194.611,-22 L 194.611,-55.1394 L 194.746,-56.1676 L 195.044,-56.9489 L 195.498,-57.651
 L 196.088,-58.2434 L 196.789,-58.7001 L 197.569,-59.0012 L 198.395,-59.1335 L 199.23,-59.0912 L 200.038,-58.8763
 L 286.839,-25.7369 L 287.764,-25.2361 L 288.385,-24.6765 L 288.877,-24 L 289.217,-23.2361 L 289.391,-22.4181
 L 289.391,-21.5819 L 289.217,-20.7639 L 288.877,-20 L 288.385,-19.3235 L 287.764,-18.7639 L 287.039,-18.3458
 L 286.244,-18.0874 L 285.412,-18 z
M 376.722,-18 L 375.486,-18.1958 L 374.722,-18.5359 L 374.046,-19.0274 L 373.486,-19.6489 L 373.068,-20.373
 L 372.81,-21.1684 L 372.722,-22 L 372.722,-55.1394 L 372.857,-56.1676 L 373.155,-56.9489 L 373.609,-57.651
 L 374.199,-58.2434 L 374.9,-58.7001 L 375.68,-59.0012 L 376.506,-59.1335 L 377.341,-59.0912 L 378.149,-58.8763
 L 464.95,-25.7369 L 465.875,-25.2361 L 466.496,-24.6765 L 466.988,-24 L 467.328,-23.2361 L 467.502,-22.4181
 L 467.502,-21.5819 L 467.328,-20.7639 L 466.988,-20 L 466.496,-19.3235 L 465.875,-18.7639 L 465.15,-18.3458
 L 464.355,-18.0874 L 463.524,-18 z
M 554.833,-18 L 553.597,-18.1958 L 552.833,-18.5359 L 552.157,-19.0274 L 551.597,-19.6489 L 551.179,-20.373
 L 550.921,-21.1684 L 550.833,-22 L 550.833,-55.1394 L 550.968,-56.1676 L 551.266,-56.9489 L 551.72,-57.651
 L 552.31,-58.2434 L 553.011,-58.7001 L 553.791,-59.0012 L 554.617,-59.1335 L 555.452,-59.0912 L 556.26,-58.8763
 L 643.061,-25.7369 L 643.986,-25.2361 L 644.607,-24.6765 L 645.099,-24 L 645.439,-23.2361 L 645.613,-22.4181
 L 645.613,-21.5819 L 645.439,-20.7639 L 645.099,-20 L 644.607,-19.3235 L 643.986,-18.7639 L 643.262,-18.3458
 L 642.466,-18.0874 L 641.635,-18 z
M 976.365,-18 L 975.534,-18.0874 L 974.738,-18.3458 L 974.014,-18.7639 L 973.393,-19.3235 L 972.901,-20
 L 972.561,-20.7639 L 972.387,-21.5819 L 972.387,-22.4181 L 972.561,-23.2361 L 972.901,-24 L 973.393,-24.6765
 L 974.014,-25.2361 L 974.939,-25.7369 L 1061.74,-58.8763 L 1062.55,-59.0912 L 1063.38,-59.1335 L 1064.21,-59.0012
 L 1064.99,-58.7001 L 1065.69,-58.2434 L 1066.28,-57.651 L 1066.73,-56.9489 L 1067.03,-56.1676 L 1067.17,-55.1394
 L 1067.17,-22 L 1067.08,-21.1684 L 1066.82,-20.373 L 1066.4,-19.6489 L 1065.84,-19.0274 L 1065.17,-18.5359
 L 1064.4,-18.1958 L 1063.17,-18 z
M 1154.48,-18 L 1153.64,-18.0874 L 1152.85,-18.3458 L 1152.13,-18.7639 L 1151.5,-19.3235 L 1151.01,-20
 L 1150.67,-20.7639 L 1150.5,-21.5819 L 1150.5,-22.4181 L 1150.67,-23.2361 L 1151.01,-24 L 1151.5,-24.6765
 L 1152.13,-25.2361 L 1153.05,-25.7369 L 1239.85,-58.8763 L 1240.66,-59.0912 L 1241.49,-59.1335 L 1242.32,-59.0012
 L 1243.1,-58.7001 L 1243.8,-58.2434 L 1244.39,-57.651 L 1244.85,-56.9489 L 1245.14,-56.1676 L 1245.28,-55.1394
 L 1245.28,-22 L 1245.19,-21.1684 L 1244.93,-20.373 L 1244.51,-19.6489 L 1243.95,-19.0274 L 1243.28,-18.5359
 L 1242.51,-18.1958 L 1241.28,-18 z
M 1332.59,-18 L 1331.76,-18.0874 L 1330.96,-18.3458 L 1330.24,-18.7639 L 1329.61,-19.3235 L 1329.12,-20
 L 1328.78,-20.7639 L 1328.61,-21.5819 L 1328.61,-22.4181 L 1328.78,-23.2361 L 1329.12,-24 L 1329.61,-24.6765
 L 1330.24,-25.2361 L 1331.16,-25.7369 L 1417.96,-58.8763 L 1418.77,-59.0912 L 1419.61,-59.1335 L 1420.43,-59.0012
 L 1421.21,-58.7001 L 1421.91,-58.2434 L 1422.5,-57.651 L 1422.96,-56.9489 L 1423.25,-56.1676 L 1423.39,-55.1394
 L 1423.39,-22 L 1423.3,-21.1684 L 1423.04,-20.373 L 1422.62,-19.6489 L 1422.07,-19.0274 L 1421.39,-18.5359
 L 1420.62,-18.1958 L 1419.39,-18 z
M 22,-18 L 20.7639,-18.1958 L 20,-18.5359 L 19.3235,-19.0274 L 18.7639,-19.6489 L 18.3458,-20.373
 L 18.0874,-21.1684 L 18,-22 L 18,-54.5667 L 18.1344,-55.5949 L 18.4327,-56.3762 L 18.8869,-57.0783
 L 19.4771,-57.6707 L 20.1776,-58.1274 L 20.9577,-58.4285 L 21.7834,-58.5608 L 22.6186,-58.5186 L 23.4267,-58.3036
 L 108.728,-25.7369 L 109.652,-25.2361 L 110.274,-24.6765 L 110.765,-24 L 111.106,-23.2361 L 111.279,-22.4181
 L 111.279,-21.5819 L 111.106,-20.7639 L 110.765,-20 L 110.274,-19.3235 L 109.652,-18.7639 L 108.928,-18.3458
 L 108.133,-18.0874 L 107.301,-18 z
M 1510.7,-18 L 1509.87,-18.0874 L 1509.07,-18.3458 L 1508.35,-18.7639 L 1507.73,-19.3235 L 1507.23,-20
 L 1506.89,-20.7639 L 1506.72,-21.5819 L 1506.72,-22.4181 L 1506.89,-23.2361 L 1507.23,-24 L 1507.73,-24.6765
 L 1508.35,-25.2361 L 1509.27,-25.7369 L 1594.57,-58.3036 L 1595.38,-58.5186 L 1596.22,-58.5608 L 1597.04,-58.4285
 L 1597.82,-58.1274 L 1598.52,-57.6707 L 1599.11,-57.0783 L 1599.57,-56.3762 L 1599.87,-55.5949 L 1600,-54.5667
 L 1600,-22 L 1599.91,-21.1684 L 1599.65,-20.373 L 1599.24,-19.6489 L 1598.68,-19.0274 L 1598,-18.5359
 L 1597.24,-18.1958 L 1596,-18 z
M 792.654,-18 L 791.612,-18.1382 L 790.832,-18.4393 L 790.131,-18.896 L 789.541,-19.4884 L 789.087,-20.1905
 L 788.788,-20.9717 L 788.659,-21.7979 L 788.704,-22.6329 L 788.922,-23.4402 L 789.303,-24.1846 L 789.831,-24.8336
 L 790.482,-25.3586 L 791.227,-25.7369 L 807.573,-31.9776 L 808.783,-32.2348 L 809.619,-32.1925 L 810.427,-31.9776
 L 826.773,-25.7369 L 827.697,-25.2361 L 828.319,-24.6765 L 828.81,-24 L 829.15,-23.2361 L 829.324,-22.4181
 L 829.324,-21.5819 L 829.15,-20.7639 L 828.81,-20 L 828.319,-19.3235 L 827.697,-18.7639 L 826.973,-18.3458
 L 826.178,-18.0874 L 825.346,-18 z
" stroke="black" fill="lightgray" stroke-width="0.5"/>
</svg>
