<?xml version="1.0" standalone="no"?>
<!DOCTYPE svg PUBLIC "-//W3C//DTD SVG 1.1//EN" "http://www.w3.org/Graphics/SVG/1.1/DTD/svg11.dtd">
<svg width="1461mm" height="80mm" viewBox="0 -80 1461 80" xmlns="http://www.w3.org/2000/svg" version="1.1">
<title>OpenSCAD Model</title>
<path d="
M 1461,-80 L 0,-80 L 0,-0 L 4.95,-0 L 4.95,-6 L 5.00572,-6.53017
 L 5.17046,-7.03717 L 5.437,-7.49884 L 5.79372,-7.895 L 6.22499,-8.20836 L 6.71201,-8.42519 L 7.23344,-8.53603
 L 7.76654,-8.53603 L 8.28798,-8.42519 L 8.77499,-8.20836 L 9.20627,-7.895 L 9.56299,-7.49884 L 9.82953,-7.03717
 L 9.99426,-6.53017 L 10.05,-6 L 10.05,-0 L 185.7,-0 L 185.7,-6 L 185.756,-6.53017
 L 185.92,-7.03717 L 186.187,-7.49884 L 186.544,-7.895 L 186.975,-8.20836 L 187.462,-8.42519 L 187.983,-8.53603
 L 188.517,-8.53603 L 189.038,-8.42519 L 189.525,-8.20836 L 189.956,-7.895 L 190.313,-7.49884 L 190.58,-7.03717
 L 190.744,-6.53017 L 190.8,-6 L 190.8,-0 L 366.45,-0 L 366.45,-6 L 366.506,-6.53017
 L 366.67,-7.03717 L 366.937,-7.49884 L 367.294,-7.895 L 367.725,-8.20836 L 368.212,-8.42519 L 368.733,-8.53603
 L 369.267,-8.53603 L 369.788,-8.42519 L 370.275,-8.20836 L 370.706,-7.895 L 371.063,-7.49884 L 371.33,-7.03717
 L 371.494,-6.53017 L 371.55,-6 L 371.55,-0 L 547.2,-0 L 547.2,-6 L 547.256,-6.53017
 L 547.42,-7.03717 L 547.687,-7.49884 L 548.044,-7.895 L 548.475,-8.20836 L 548.962,-8.42519 L 549.483,-8.53603
 L 550.017,-8.53603 L 550.538,-8.42519 L 551.025,-8.20836 L 551.456,-7.895 L 551.813,-7.49884 L 552.08,-7.03717
 L 552.244,-6.53017 L 552.3,-6 L 552.3,-0 L 727.95,-0 L 727.95,-6 L 728.006,-6.53017
 L 728.17,-7.03717 L 728.437,-7.49884 L 728.794,-7.895 L 729.225,-8.20836 L 729.712,-8.42519 L 730.233,-8.53603
 L 730.767,-8.53603 L 731.288,-8.42519 L 731.775,-8.20836 L 732.206,-7.895 L 732.563,-7.49884 L 732.83,-7.03717
 L 732.994,-6.53017 L 733.05,-6 L 733.05,-0 L 908.7,-0 L 908.7,-6 L 908.756,-6.53017
 L 908.92,-7.03717 L 909.187,-7.49884 L 909.544,-7.895 L 909.975,-8.20836 L 910.462,-8.42519 L 910.983,-8.53603
 L 911.517,-8.53603 L 912.038,-8.42519 L 912.525,-8.20836 L 912.956,-7.895 L 913.313,-7.49884 L 913.58,-7.03717
 L 913.744,-6.53017 L 913.8,-6 L 913.8,-0 L 1089.45,-0 L 1089.45,-6 L 1089.51,-6.53017
 L 1089.67,-7.03717 L 1089.94,-7.49884 L 1090.29,-7.895 L 1090.72,-8.20836 L 1091.21,-8.42519 L 1091.73,-8.53603
 L 1092.27,-8.53603 L 1092.79,-8.42519 L 1093.27,-8.20836 L 1093.71,-7.895 L 1094.06,-7.49884 L 1094.33,-7.03717
 L 1094.49,-6.53017 L 1094.55,-6 L 1094.55,-0 L 1270.2,-0 L 1270.2,-6 L 1270.26,-6.53017
 L 1270.42,-7.03717 L 1270.69,-7.49884 L 1271.04,-7.895 L 1271.47,-8.20836 L 1271.96,-8.42519 L 1272.48,-8.53603
 L 1273.02,-8.53603 L 1273.54,-8.42519 L 1274.02,-8.20836 L 1274.46,-7.895 L 1274.81,-7.49884 L 1275.08,-7.03717
 L 1275.24,-6.53017 L 1275.3,-6 L 1275.3,-0 L 1450.95,-0 L 1450.95,-6 L 1451.01,-6.53017
 L 1451.17,-7.03717 L 1451.44,-7.49884 L 1451.79,-7.895 L 1452.22,-8.20836 L 1452.71,-8.42519 L 1453.23,-8.53603
 L 1453.77,-8.53603 L 1454.29,-8.42519 L 1454.77,-8.20836 L 1455.21,-7.895 L 1455.56,-7.49884 L 1455.83,-7.03717
 L 1455.99,-6.53017 L 1456.05,-6 L 1456.05,-0 L 1461,-0 z
M 187.736,-55.607 L 187.227,-55.6875 L 186.73,-55.8208 L 186.249,-56.0054 L 185.79,-56.2392 L 185.358,-56.5196
 L 184.958,-56.8437 L 184.594,-57.2079 L 184.27,-57.6081 L 183.989,-58.04 L 183.755,-58.4989 L 183.571,-58.9796
 L 183.438,-59.4771 L 183.357,-59.9857 L 183.33,-60.5 L 183.357,-61.0143 L 183.438,-61.5229 L 183.571,-62.0204
 L 183.755,-62.5011 L 183.989,-62.96 L 184.27,-63.3919 L 184.594,-63.7921 L 184.958,-64.1563 L 185.358,-64.4804
 L 185.7,-64.7024 L 185.7,-74 L 185.756,-74.5302 L 185.92,-75.0372 L 186.187,-75.4988 L 186.544,-75.895
 L 186.975,-76.2084 L 187.462,-76.4252 L 187.983,-76.536 L 188.517,-76.536 L 189.038,-76.4252 L 189.525,-76.2084
 L 189.956,-75.895 L 190.313,-75.4988 L 190.58,-75.0372 L 190.744,-74.5302 L 190.8,-74 L 190.8,-64.7024
 L 191.142,-64.4804 L 191.542,-64.1563 L 191.906,-63.7921 L 192.23,-63.3919 L 192.511,-62.96 L 192.745,-62.5011
 L 192.929,-62.0204 L 193.062,-61.5229 L 193.143,-61.0143 L 193.17,-60.5 L 193.143,-59.9857 L 193.062,-59.4771
 L 192.929,-58.9796 L 192.745,-58.4989 L 192.511,-58.04 L 192.23,-57.6081 L 191.906,-57.2079 L 191.542,-56.8437
 L 191.142,-56.5196 L 190.71,-56.2392 L 190.251,-56.0054 L 189.77,-55.8208 L 189.273,-55.6875 L 188.764,-55.607
 L 188.25,-55.58 z
M 1091.49,-55.607 L 1090.98,-55.6875 L 1090.48,-55.8208 L 1090,-56.0054 L 1089.54,-56.2392 L 1089.11,-56.5196
 L 1088.71,-56.8437 L 1088.34,-57.2079 L 1088.02,-57.6081 L 1087.74,-58.04 L 1087.51,-58.4989 L 1087.32,-58.9796
 L 1087.19,-59.4771 L 1087.11,-59.9857 L 1087.08,-60.5 L 1087.11,-61.0143 L 1087.19,-61.5229 L 1087.32,-62.0204
 L 1087.51,-62.5011 L 1087.74,-62.96 L 1088.02,-63.3919 L 1088.34,-63.7921 L 1088.71,-64.1563 L 1089.11,-64.4804
 L 1089.45,-64.7024 L 1089.45,-74 L 1089.51,-74.5302 L 1089.67,-75.0372 L 1089.94,-75.4988 L 1090.29,-75.895
 L 1090.73,-76.2084 L 1091.21,-76.4252 L 1091.73,-76.536 L 1092.27,-76.536 L 1092.79,-76.4252 L 1093.27,-76.2084
 L 1093.71,-75.895 L 1094.06,-75.4988 L 1094.33,-75.0372 L 1094.49,-74.5302 L 1094.55,-74 L 1094.55,-64.7024
 L 1094.89,-64.4804 L 1095.29,-64.1563 L 1095.66,-63.7921 L 1095.98,-63.3919 L 1096.26,-62.96 L 1096.49,-62.5011
 L 1096.68,-62.0204 L 1096.81,-61.5229 L 1096.89,-61.0143 L 1096.92,-60.5 L 1096.89,-59.9857 L 1096.81,-59.4771
 L 1096.68,-58.9796 L 1096.49,-58.4989 L 1096.26,-58.04 L 1095.98,-57.6081 L 1095.66,-57.2079 L 1095.29,-56.8437
 L 1094.89,-56.5196 L 1094.46,-56.2392 L 1094,-56.0054 L 1093.52,-55.8208 L 1093.02,-55.6875 L 1092.51,-55.607
 L 1092,-55.58 z
M 910.736,-55.607 L 910.227,-55.6875 L 909.73,-55.8208 L 909.249,-56.0054 L 908.79,-56.2392 L 908.358,-56.5196
 L 907.958,-56.8437 L 907.594,-57.2079 L 907.27,-57.6081 L 906.989,-58.04 L 906.755,-58.4989 L 906.571,-58.9796
 L 906.438,-59.4771 L 906.357,-59.9857 L 906.33,-60.5 L 906.357,-61.0143 L 906.438,-61.5229 L 906.571,-62.0204
 L 906.755,-62.5011 L 906.989,-62.96 L 907.27,-63.3919 L 907.594,-63.7921 L 907.958,-64.1563 L 908.358,-64.4804
 L 908.7,-64.7024 L 908.7,-74 L 908.756,-74.5302 L 908.92,-75.0372 L 909.187,-75.4988 L 909.544,-75.895
 L 909.975,-76.2084 L 910.462,-76.4252 L 910.983,-76.536 L 911.517,-76.536 L 912.038,-76.4252 L 912.525,-76.2084
 L 912.956,-75.895 L 913.313,-75.4988 L 913.58,-75.0372 L 913.744,-74.5302 L 913.8,-74 L 913.8,-64.7024
 L 914.142,-64.4804 L 914.542,-64.1563 L 914.906,-63.7921 L 915.23,-63.3919 L 915.511,-62.96 L 915.745,-62.5011
 L 915.929,-62.0204 L 916.062,-61.5229 L 916.143,-61.0143 L 916.17,-60.5 L 916.143,-59.9857 L 916.062,-59.4771
 L 915.929,-58.9796 L 915.745,-58.4989 L 915.511,-58.04 L 915.23,-57.6081 L 914.906,-57.2079 L 914.542,-56.8437
 L 914.142,-56.5196 L 913.71,-56.2392 L 913.251,-56.0054 L 912.77,-55.8208 L 912.273,-55.6875 L 911.764,-55.607
 L 911.25,-55.58 z
M 6.98573,-55.607 L 6.47708,-55.6875 L 5.97964,-55.8208 L 5.49887,-56.0054 L 5.04001,-56.2392 L 4.60811,-56.5196
 L 4.20789,-56.8437 L 3.84373,-57.2079 L 3.51964,-57.6081 L 3.23917,-58.04 L 3.00537,-58.4989 L 2.82082,-58.9796
 L 2.68752,-59.4771 L 2.60696,-59.9857 L 2.58,-60.5 L 2.60696,-61.0143 L 2.68752,-61.5229 L 2.82082,-62.0204
 L 3.00537,-62.5011 L 3.23917,-62.96 L 3.51964,-63.3919 L 3.84373,-63.7921 L 4.20789,-64.1563 L 4.60811,-64.4804
 L 4.95001,-64.7024 L 4.95001,-74 L 5.00574,-74.5302 L 5.17047,-75.0372 L 5.43701,-75.4988 L 5.79373,-75.895
 L 6.22501,-76.2084 L 6.71202,-76.4252 L 7.23346,-76.536 L 7.76654,-76.536 L 8.28798,-76.4252 L 8.77499,-76.2084
 L 9.20627,-75.895 L 9.56299,-75.4988 L 9.82953,-75.0372 L 9.99426,-74.5302 L 10.05,-74 L 10.05,-64.7024
 L 10.3919,-64.4804 L 10.7921,-64.1563 L 11.1563,-63.7921 L 11.4804,-63.3919 L 11.7608,-62.96 L 11.9946,-62.5011
 L 12.1792,-62.0204 L 12.3125,-61.5229 L 12.393,-61.0143 L 12.42,-60.5 L 12.393,-59.9857 L 12.3125,-59.4771
 L 12.1792,-58.9796 L 11.9946,-58.4989 L 11.7608,-58.04 L 11.4804,-57.6081 L 11.1563,-57.2079 L 10.7921,-56.8437
 L 10.3919,-56.5196 L 9.95999,-56.2392 L 9.50113,-56.0054 L 9.02036,-55.8208 L 8.52292,-55.6875 L 8.01427,-55.607
 L 7.5,-55.58 z
M 729.986,-55.607 L 729.477,-55.6875 L 728.98,-55.8208 L 728.499,-56.0054 L 728.04,-56.2392 L 727.608,-56.5196
 L 727.208,-56.8437 L 726.844,-57.2079 L 726.52,-57.6081 L 726.239,-58.04 L 726.005,-58.4989 L 725.821,-58.9796
 L 725.688,-59.4771 L 725.607,-59.9857 L 725.58,-60.5 L 725.607,-61.0143 L 725.688,-61.5229 L 725.821,-62.0204
 L 726.005,-62.5011 L 726.239,-62.96 L 726.52,-63.3919 L 726.844,-63.7921 L 727.208,-64.1563 L 727.608,-64.4804
 L 727.95,-64.7024 L 727.95,-74 L 728.006,-74.5302 L 728.17,-75.0372 L 728.437,-75.4988 L 728.794,-75.895
 L 729.225,-76.2084 L 729.712,-76.4252 L 730.233,-76.536 L 730.767,-76.536 L 731.288,-76.4252 L 731.775,-76.2084
 L 732.206,-75.895 L 732.563,-75.4988 L 732.83,-75.0372 L 732.994,-74.5302 L 733.05,-74 L 733.05,-64.7024
 L 733.392,-64.4804 L 733.792,-64.1563 L 734.156,-63.7921 L 734.48,-63.3919 L 734.761,-62.96 L 734.995,-62.5011
 L 735.179,-62.0204 L 735.312,-61.5229 L 735.393,-61.0143 L 735.42,-60.5 L 735.393,-59.9857 L 735.312,-59.4771
 L 735.179,-58.9796 L 734.995,-58.4989 L 734.761,-58.04 L 734.48,-57.6081 L 734.156,-57.2079 L 733.792,-56.8437
 L 733.392,-56.5196 L 732.96,-56.2392 L 732.501,-56.0054 L 732.02,-55.8208 L 731.523,-55.6875 L 731.014,-55.607
 L 730.5,-55.58 z
M 1272.24,-55.607 L 1271.73,-55.6875 L 1271.23,-55.8208 L 1270.75,-56.0054 L 1270.29,-56.2392 L 1269.86,-56.5196
 L 1269.46,-56.8437 L 1269.09,-57.2079 L 1268.77,-57.6081 L 1268.49,-58.04 L 1268.26,-58.4989 L 1268.07,-58.9796
 L 1267.94,-59.4771 L 1267.86,-59.9857 L 1267.83,-60.5 L 1267.86,-61.0143 L 1267.94,-61.5229 L 1268.07,-62.0204
 L 1268.26,-62.5011 L 1268.49,-62.96 L 1268.77,-63.3919 L 1269.09,-63.7921 L 1269.46,-64.1563 L 1269.86,-64.4804
 L 1270.2,-64.7024 L 1270.2,-74 L 1270.26,-74.5302 L 1270.42,-75.0372 L 1270.69,-75.4988 L 1271.04,-75.895
 L 1271.48,-76.2084 L 1271.96,-76.4252 L 1272.48,-76.536 L 1273.02,-76.536 L 1273.54,-76.4252 L 1274.02,-76.2084
 L 1274.46,-75.895 L 1274.81,-75.4988 L 1275.08,-75.0372 L 1275.24,-74.5302 L 1275.3,-74 L 1275.3,-64.7024
 L 1275.64,-64.4804 L 1276.04,-64.1563 L 1276.41,-63.7921 L 1276.73,-63.3919 L 1277.01,-62.96 L 1277.24,-62.5011
 L 1277.43,-62.0204 L 1277.56,-61.5229 L 1277.64,-61.0143 L 1277.67,-60.5 L 1277.64,-59.9857 L 1277.56,-59.4771
 L 1277.43,-58.9796 L 1277.24,-58.4989 L 1277.01,-58.04 L 1276.73,-57.6081 L 1276.41,-57.2079 L 1276.04,-56.8437
 L 1275.64,-56.5196 L 1275.21,-56.2392 L 1274.75,-56.0054 L 1274.27,-55.8208 L 1273.77,-55.6875 L 1273.26,-55.607
 L 1272.75,-55.58 z
M 549.236,-55.607 L 548.727,-55.6875 L 548.23,-55.8208 L 547.749,-56.0054 L 547.29,-56.2392 L 546.858,-56.5196
 L 546.458,-56.8437 L 546.094,-57.2079 L 545.77,-57.6081 L 545.489,-58.04 L 545.255,-58.4989 L 545.071,-58.9796
 L 544.938,-59.4771 L 544.857,-59.9857 L 544.83,-60.5 L 544.857,-61.0143 L 544.938,-61.5229 L 545.071,-62.0204
 L 545.255,-62.5011 L 545.489,-62.96 L 545.77,-63.3919 L 546.094,-63.7921 L 546.458,-64.1563 L 546.858,-64.4804
 L 547.2,-64.7024 L 547.2,-74 L 547.256,-74.5302 L 547.42,-75.0372 L 547.687,-75.4988 L 548.044,-75.895
 L 548.475,-76.2084 L 548.962,-76.4252 L 549.483,-76.536 L 550.017,-76.536 L 550.538,-76.4252 L 551.025,-76.2084
 L 551.456,-75.895 L 551.813,-75.4988 L 552.08,-75.0372 L 552.244,-74.5302 L 552.3,-74 L 552.3,-64.7024
 L 552.642,-64.4804 L 553.042,-64.1563 L 553.406,-63.7921 L 553.73,-63.3919 L 554.011,-62.96 L 554.245,-62.5011
 L 554.429,-62.0204 L 554.562,-61.5229 L 554.643,-61.0143 L 554.67,-60.5 L 554.643,-59.9857 L 554.562,-59.4771
 L 554.429,-58.9796 L 554.245,-58.4989 L 554.011,-58.04 L 553.73,-57.6081 L 553.406,-57.2079 L 553.042,-56.8437
 L 552.642,-56.5196 L 552.21,-56.2392 L 551.751,-56.0054 L 551.27,-55.8208 L 550.773,-55.6875 L 550.264,-55.607
 L 549.75,-55.58 z
M 368.486,-55.607 L 367.977,-55.6875 L 367.48,-55.8208 L 366.999,-56.0054 L 366.54,-56.2392 L 366.108,-56.5196
 L 365.708,-56.8437 L 365.344,-57.2079 L 365.02,-57.6081 L 364.739,-58.04 L 364.505,-58.4989 L 364.321,-58.9796
 L 364.188,-59.4771 L 364.107,-59.9857 L 364.08,-60.5 L 364.107,-61.0143 L 364.188,-61.5229 L 364.321,-62.0204
 L 364.505,-62.5011 L 364.739,-62.96 L 365.02,-63.3919 L 365.344,-63.7921 L 365.708,-64.1563 L 366.108,-64.4804
 L 366.45,-64.7024 L 366.45,-74 L 366.506,-74.5302 L 366.67,-75.0372 L 366.937,-75.4988 L 367.294,-75.895
 L 367.725,-76.2084 L 368.212,-76.4252 L 368.733,-76.536 L 369.267,-76.536 L 369.788,-76.4252 L 370.275,-76.2084
 L 370.706,-75.895 L 371.063,-75.4988 L 371.33,-75.0372 L 371.494,-74.5302 L 371.55,-74 L 371.55,-64.7024
 L 371.892,-64.4804 L 372.292,-64.1563 L 372.656,-63.7921 L 372.98,-63.3919 L 373.261,-62.96 L 373.495,-62.5011
 L 373.679,-62.0204 L 373.812,-61.5229 L 373.893,-61.0143 L 373.92,-60.5 L 373.893,-59.9857 L 373.812,-59.4771
 L 373.679,-58.9796 L 373.495,-58.4989 L 373.261,-58.04 L 372.98,-57.6081 L 372.656,-57.2079 L 372.292,-56.8437
 L 371.892,-56.5196 L 371.46,-56.2392 L 371.001,-56.0054 L 370.52,-55.8208 L 370.023,-55.6875 L 369.514,-55.607
 L 369,-55.58 z
M 1452.99,-55.607 L 1452.48,-55.6875 L 1451.98,-55.8208 L 1451.5,-56.0054 L 1451.04,-56.2392 L 1450.61,-56.5196
 L 1450.21,-56.8437 L 1449.84,-57.2079 L 1449.52,-57.6081 L 1449.24,-58.04 L 1449.01,-58.4989 L 1448.82,-58.9796
 L 1448.69,-59.4771 L 1448.61,-59.9857 L 1448.58,-60.5 L 1448.61,-61.0143 L 1448.69,-61.5229 L 1448.82,-62.0204
 L 1449.01,-62.5011 L 1449.24,-62.96 L 1449.52,-63.3919 L 1449.84,-63.7921 L 1450.21,-64.1563 L 1450.61,-64.4804
 L 1450.95,-64.7024 L 1450.95,-74 L 1451.01,-74.5302 L 1451.17,-75.0372 L 1451.44,-75.4988 L 1451.79,-75.895
 L 1452.23,-76.2084 L 1452.71,-76.4252 L 1453.23,-76.536 L 1453.77,-76.536 L 1454.29,-76.4252 L 1454.77,-76.2084
 L 1455.21,-75.895 L 1455.56,-75.4988 L 1455.83,-75.0372 L 1455.99,-74.5302 L 1456.05,-74 L 1456.05,-64.7024
 L 1456.39,-64.4804 L 1456.79,-64.1563 L 1457.16,-63.7921 L 1457.48,-63.3919 L 1457.76,-62.96 L 1457.99,-62.5011
 L 1458.18,-62.0204 L 1458.31,-61.5229 L 1458.39,-61.0143 L 1458.42,-60.5 L 1458.39,-59.9857 L 1458.31,-59.4771
 L 1458.18,-58.9796 L 1457.99,-58.4989 L 1457.76,-58.04 L 1457.48,-57.6081 L 1457.16,-57.2079 L 1456.79,-56.8437
 L 1456.39,-56.5196 L 1455.96,-56.2392 L 1455.5,-56.0054 L 1455.02,-55.8208 L 1454.52,-55.6875 L 1454.01,-55.607
 L 1453.5,-55.58 z
M 355.401,-20.8109 L 354.592,-21.022 L 266.252,-54.2562 L 265.309,-54.7639 L 264.688,-55.3235 L 264.196,-56
 L 263.856,-56.7639 L 263.682,-57.5819 L 263.682,-58.4181 L 263.856,-59.2361 L 264.196,-60 L 264.688,-60.6765
 L 265.309,-61.2361 L 266.034,-61.6542 L 266.829,-61.9126 L 267.66,-62 L 356,-62 L 357.236,-61.8042
 L 358,-61.4641 L 358.677,-60.9726 L 359.236,-60.3511 L 359.654,-59.627 L 359.913,-58.8316 L 360,-58
 L 360,-24.7658 L 359.871,-23.7564 L 359.576,-22.9737 L 359.125,-22.2693 L 358.538,-21.6741 L 357.84,-21.214
 L 357.061,-20.9091 L 356.236,-20.7728 z
M 536.151,-20.8109 L 535.342,-21.022 L 447.002,-54.2562 L 446.059,-54.7639 L 445.438,-55.3235 L 444.946,-56
 L 444.606,-56.7639 L 444.432,-57.5819 L 444.432,-58.4181 L 444.606,-59.2361 L 444.946,-60 L 445.438,-60.6765
 L 446.059,-61.2361 L 446.784,-61.6542 L 447.579,-61.9126 L 448.41,-62 L 536.75,-62 L 537.986,-61.8042
 L 538.75,-61.4641 L 539.427,-60.9726 L 539.986,-60.3511 L 540.404,-59.627 L 540.663,-58.8316 L 540.75,-58
 L 540.75,-24.7658 L 540.621,-23.7564 L 540.326,-22.9737 L 539.875,-22.2693 L 539.288,-21.6741 L 538.59,-21.214
 L 537.811,-20.9091 L 536.986,-20.7728 z
M 1284.69,-20.9091 L 1283.91,-21.214 L 1283.21,-21.6741 L 1282.62,-22.2693 L 1282.17,-22.9737 L 1281.88,-23.7564
 L 1281.75,-24.7658 L 1281.75,-58 L 1281.84,-58.8316 L 1282.1,-59.627 L 1282.51,-60.3511 L 1283.07,-60.9726
 L 1283.75,-61.4641 L 1284.51,-61.8042 L 1285.75,-62 L 1374.09,-62 L 1374.92,-61.9126 L 1375.72,-61.6542
 L 1376.44,-61.2361 L 1377.06,-60.6765 L 1377.55,-60 L 1377.89,-59.2361 L 1378.07,-58.4181 L 1378.07,-57.5819
 L 1377.89,-56.7639 L 1377.55,-56 L 1377.06,-55.3235 L 1376.44,-54.7639 L 1375.5,-54.2562 L 1287.16,-21.022
 L 1286.35,-20.8109 L 1285.51,-20.7728 z
M 716.901,-20.8109 L 716.092,-21.022 L 627.752,-54.2562 L 626.809,-54.7639 L 626.188,-55.3235 L 625.696,-56
 L 625.356,-56.7639 L 625.182,-57.5819 L 625.182,-58.4181 L 625.356,-59.2361 L 625.696,-60 L 626.188,-60.6765
 L 626.809,-61.2361 L 627.534,-61.6542 L 628.329,-61.9126 L 629.16,-62 L 717.5,-62 L 718.736,-61.8042
 L 719.5,-61.4641 L 720.177,-60.9726 L 720.736,-60.3511 L 721.154,-59.627 L 721.413,-58.8316 L 721.5,-58
 L 721.5,-24.7658 L 721.371,-23.7564 L 721.076,-22.9737 L 720.625,-22.2693 L 720.038,-21.6741 L 719.34,-21.214
 L 718.561,-20.9091 L 717.736,-20.7728 z
M 174.651,-20.8109 L 173.842,-21.022 L 85.502,-54.2562 L 84.5594,-54.7639 L 83.9379,-55.3235 L 83.4464,-56
 L 83.1063,-56.7639 L 82.9324,-57.5819 L 82.9324,-58.4181 L 83.1063,-59.2361 L 83.4464,-60 L 83.9379,-60.6765
 L 84.5594,-61.2361 L 85.2835,-61.6542 L 86.0788,-61.9126 L 86.9105,-62 L 175.25,-62 L 176.486,-61.8042
 L 177.25,-61.4641 L 177.927,-60.9726 L 178.486,-60.3511 L 178.904,-59.627 L 179.163,-58.8316 L 179.25,-58
 L 179.25,-24.7658 L 179.121,-23.7564 L 178.826,-22.9737 L 178.375,-22.2693 L 177.788,-21.6741 L 177.09,-21.214
 L 176.311,-20.9091 L 175.486,-20.7728 z
M 742.439,-20.9091 L 741.66,-21.214 L 740.962,-21.6741 L 740.375,-22.2693 L 739.924,-22.9737 L 739.629,-23.7564
 L 739.5,-24.7658 L 739.5,-58 L 739.587,-58.8316 L 739.846,-59.627 L 740.264,-60.3511 L 740.823,-60.9726
 L 741.5,-61.4641 L 742.264,-61.8042 L 743.5,-62 L 831.84,-62 L 832.671,-61.9126 L 833.466,-61.6542
 L 834.191,-61.2361 L 834.812,-60.6765 L 835.304,-60 L 835.644,-59.2361 L 835.818,-58.4181 L 835.818,-57.5819
 L 835.644,-56.7639 L 835.304,-56 L 834.812,-55.3235 L 834.191,-54.7639 L 833.248,-54.2562 L 744.908,-21.022
 L 744.099,-20.8109 L 743.264,-20.7728 z
M 923.189,-20.9091 L 922.41,-21.214 L 921.712,-21.6741 L 921.125,-22.2693 L 920.674,-22.9737 L 920.379,-23.7564
 L 920.25,-24.7658 L 920.25,-58 L 920.337,-58.8316 L 920.596,-59.627 L 921.014,-60.3511 L 921.573,-60.9726
 L 922.25,-61.4641 L 923.014,-61.8042 L 924.25,-62 L 1012.59,-62 L 1013.42,-61.9126 L 1014.22,-61.6542
 L 1014.94,-61.2361 L 1015.56,-60.6765 L 1016.05,-60 L 1016.39,-59.2361 L 1016.57,-58.4181 L 1016.57,-57.5819
 L 1016.39,-56.7639 L 1016.05,-56 L 1015.56,-55.3235 L 1014.94,-54.7639 L 1014,-54.2562 L 925.658,-21.022
 L 924.849,-20.8109 L 924.014,-20.7728 z
M 1103.94,-20.9091 L 1103.16,-21.214 L 1102.46,-21.6741 L 1101.87,-22.2693 L 1101.42,-22.9737 L 1101.13,-23.7564
 L 1101,-24.7658 L 1101,-58 L 1101.09,-58.8316 L 1101.35,-59.627 L 1101.76,-60.3511 L 1102.32,-60.9726
 L 1103,-61.4641 L 1103.76,-61.8042 L 1105,-62 L 1193.34,-62 L 1194.17,-61.9126 L 1194.97,-61.6542
 L 1195.69,-61.2361 L 1196.31,-60.6765 L 1196.8,-60 L 1197.14,-59.2361 L 1197.32,-58.4181 L 1197.32,-57.5819
 L 1197.14,-56.7639 L 1196.8,-56 L 1196.31,-55.3235 L 1195.69,-54.7639 L 1194.75,-54.2562 L 1106.41,-21.022
 L 1105.6,-20.8109 L 1104.76,-20.7728 z
M 201.25,-18 L 200.014,-18.1958 L 199.25,-18.5359 L 198.573,-19.0274 L 198.014,-19.6489 L 197.596,-20.373
 L 197.337,-21.1684 L 197.25,-22 L 197.25,-55.2342 L 197.379,-56.2436 L 197.674,-57.0263 L 198.125,-57.7306
 L 198.712,-58.3259 L 199.41,-58.786 L 200.189,-59.0909 L 201.014,-59.2272 L 201.849,-59.1891 L 202.658,-58.978
 L 290.998,-25.7438 L 291.941,-25.2361 L 292.562,-24.6765 L 293.054,-24 L 293.394,-23.2361 L 293.568,-22.4181
 L 293.568,-21.5819 L 293.394,-20.7639 L 293.054,-20 L 292.562,-19.3235 L 291.941,-18.7639 L 291.216,-18.3458
 L 290.421,-18.0874 L 289.589,-18 z
M 382,-18 L 380.764,-18.1958 L 380,-18.5359 L 379.323,-19.0274 L 378.764,-19.6489 L 378.346,-20.373
 L 378.087,-21.1684 L 378,-22 L 378,-55.2342 L 378.129,-56.2436 L 378.424,-57.0263 L 378.875,-57.7306
 L 379.462,-58.3259 L 380.16,-58.786 L 380.939,-59.0909 L 381.764,-59.2272 L 382.599,-59.1891 L 383.408,-58.978
 L 471.748,-25.7438 L 472.691,-25.2361 L 473.312,-24.6765 L 473.804,-24 L 474.144,-23.2361 L 474.318,-22.4181
 L 474.318,-21.5819 L 474.144,-20.7639 L 473.804,-20 L 473.312,-19.3235 L 472.691,-18.7639 L 471.966,-18.3458
 L 471.171,-18.0874 L 470.339,-18 z
M 562.75,-18 L 561.514,-18.1958 L 560.75,-18.5359 L 560.073,-19.0274 L 559.514,-19.6489 L 559.096,-20.373
 L 558.837,-21.1684 L 558.75,-22 L 558.75,-55.2342 L 558.879,-56.2436 L 559.174,-57.0263 L 559.625,-57.7306
 L 560.212,-58.3259 L 560.91,-58.786 L 561.689,-59.0909 L 562.514,-59.2272 L 563.349,-59.1891 L 564.158,-58.978
 L 652.498,-25.7438 L 653.441,-25.2361 L 654.062,-24.6765 L 654.554,-24 L 654.894,-23.2361 L 655.068,-22.4181
 L 655.068,-21.5819 L 654.894,-20.7639 L 654.554,-20 L 654.062,-19.3235 L 653.441,-18.7639 L 652.716,-18.3458
 L 651.921,-18.0874 L 651.089,-18 z
M 809.911,-18 L 809.079,-18.0874 L 808.284,-18.3458 L 807.559,-18.7639 L 806.938,-19.3235 L 806.446,-20
 L 806.106,-20.7639 L 805.932,-21.5819 L 805.932,-22.4181 L 806.106,-23.2361 L 806.446,-24 L 806.938,-24.6765
 L 807.559,-25.2361 L 808.502,-25.7438 L 896.842,-58.978 L 897.651,-59.1891 L 898.486,-59.2272 L 899.311,-59.0909
 L 900.09,-58.786 L 900.788,-58.3259 L 901.375,-57.7306 L 901.826,-57.0263 L 902.121,-56.2436 L 902.25,-55.2342
 L 902.25,-22 L 902.163,-21.1684 L 901.904,-20.373 L 901.486,-19.6489 L 900.927,-19.0274 L 900.25,-18.5359
 L 899.486,-18.1958 L 898.25,-18 z
M 990.661,-18 L 989.829,-18.0874 L 989.034,-18.3458 L 988.309,-18.7639 L 987.688,-19.3235 L 987.196,-20
 L 986.856,-20.7639 L 986.682,-21.5819 L 986.682,-22.4181 L 986.856,-23.2361 L 987.196,-24 L 987.688,-24.6765
 L 988.309,-25.2361 L 989.252,-25.7438 L 1077.59,-58.978 L 1078.4,-59.1891 L 1079.24,-59.2272 L 1080.06,-59.0909
 L 1080.84,-58.786 L 1081.54,-58.3259 L 1082.13,-57.7306 L 1082.58,-57.0263 L 1082.87,-56.2436 L 1083,-55.2342
 L 1083,-22 L 1082.91,-21.1684 L 1082.65,-20.373 L 1082.24,-19.6489 L 1081.68,-19.0274 L 1081,-18.5359
 L 1080.24,-18.1958 L 1079,-18 z
M 1171.41,-18 L 1170.58,-18.0874 L 1169.78,-18.3458 L 1169.06,-18.7639 L 1168.44,-19.3235 L 1167.95,-20
 L 1167.61,-20.7639 L 1167.43,-21.5819 L 1167.43,-22.4181 L 1167.61,-23.2361 L 1167.95,-24 L 1168.44,-24.6765
 L 1169.06,-25.2361 L 1170,-25.7438 L 1258.34,-58.978 L 1259.15,-59.1891 L 1259.99,-59.2272 L 1260.81,-59.0909
 L 1261.59,-58.786 L 1262.29,-58.3259 L 1262.88,-57.7306 L 1263.33,-57.0263 L 1263.62,-56.2436 L 1263.75,-55.2342
 L 1263.75,-22 L 1263.66,-21.1684 L 1263.4,-20.373 L 1262.99,-19.6489 L 1262.43,-19.0274 L 1261.75,-18.5359
 L 1260.99,-18.1958 L 1259.75,-18 z
M 1352.16,-18 L 1351.33,-18.0874 L 1350.53,-18.3458 L 1349.81,-18.7639 L 1349.19,-19.3235 L 1348.7,-20
 L 1348.36,-20.7639 L 1348.18,-21.5819 L 1348.18,-22.4181 L 1348.36,-23.2361 L 1348.7,-24 L 1349.19,-24.6765
 L 1349.81,-25.2361 L 1350.75,-25.7438 L 1437.59,-58.4137 L 1438.4,-58.6247 L 1439.24,-58.6629 L 1440.06,-58.5266
 L 1440.84,-58.2217 L 1441.54,-57.7616 L 1442.13,-57.1663 L 1442.58,-56.462 L 1442.87,-55.6793 L 1443,-54.6699
 L 1443,-22 L 1442.91,-21.1684 L 1442.65,-20.373 L 1442.24,-19.6489 L 1441.68,-19.0274 L 1441,-18.5359
 L 1440.24,-18.1958 L 1439,-18 z
M 22,-18 L 20.7639,-18.1958 L 20,-18.5359 L 19.3235,-19.0274 L 18.7639,-19.6489 L 18.3458,-20.373
 L 18.0874,-21.1684 L 18,-22 L 18,-54.6699 L 18.1295,-55.6793 L 18.4239,-56.462 L 18.8746,-57.1663
 L 19.462,-57.7616 L 20.1602,-58.2217 L 20.9389,-58.5266 L 21.7639,-58.6629 L 22.5993,-58.6247 L 23.4085,-58.4137
 L 110.248,-25.7438 L 111.191,-25.2361 L 111.812,-24.6765 L 112.304,-24 L 112.644,-23.2361 L 112.818,-22.4181
 L 112.818,-21.5819 L 112.644,-20.7639 L 112.304,-20 L 111.812,-19.3235 L 111.191,-18.7639 L 110.466,-18.3458
 L 109.671,-18.0874 L 108.839,-18 z
" stroke="black" fill="lightgray" stroke-width="0.5"/>
</svg>
