<?xml version="1.0" standalone="no"?>
<!DOCTYPE svg PUBLIC "-//W3C//DTD SVG 1.1//EN" "http://www.w3.org/Graphics/SVG/1.1/DTD/svg11.dtd">
<svg width="1045mm" height="80mm" viewBox="0 -80 1045 80" xmlns="http://www.w3.org/2000/svg" version="1.1">
<title>OpenSCAD Model</title>
<path d="
M 1045,-80 L 0,-80 L 0,-0 L 4.95,-0 L 4.95,-6 L 5.00572,-6.53017
 L 5.17046,-7.03717 L 5.437,-7.49884 L 5.79372,-7.895 L 6.22499,-8.20836 L 6.71201,-8.42519 L 7.23344,-8.53603
 L 7.76654,-8.53603 L 8.28798,-8.42519 L 8.77499,-8.20836 L 9.20627,-7.895 L 9.56299,-7.49884 L 9.82953,-7.03717
 L 9.99426,-6.53017 L 10.05,-6 L 10.05,-0 L 176.617,-0 L 176.617,-6 L 176.672,-6.53017
 L 176.837,-7.03717 L 177.104,-7.49884 L 177.46,-7.895 L 177.892,-8.20836 L 178.379,-8.42519 L 178.9,-8.53603
 L 179.433,-8.53603 L 179.955,-8.42519 L 180.442,-8.20836 L 180.873,-7.895 L 181.23,-7.49884 L 181.496,-7.03717
 L 181.661,-6.53017 L 181.717,-6 L 181.717,-0 L 348.283,-0 L 348.283,-6 L 348.339,-6.53017
 L 348.504,-7.03717 L 348.77,-7.49884 L 349.127,-7.895 L 349.558,-8.20836 L 350.045,-8.42519 L 350.567,-8.53603
 L 351.1,-8.53603 L 351.621,-8.42519 L 352.108,-8.20836 L 352.54,-7.895 L 352.896,-7.49884 L 353.163,-7.03717
 L 353.328,-6.53017 L 353.383,-6 L 353.383,-0 L 519.95,-0 L 519.95,-6 L 520.006,-6.53017
 L 520.17,-7.03717 L 520.437,-7.49884 L 520.794,-7.895 L 521.225,-8.20836 L 521.712,-8.42519 L 522.233,-8.53603
 L 522.767,-8.53603 L 523.288,-8.42519 L 523.775,-8.20836 L 524.206,-7.895 L 524.563,-7.49884 L 524.83,-7.03717
 L 524.994,-6.53017 L 525.05,-6 L 525.05,-0 L 691.617,-0 L 691.617,-6 L 691.672,-6.53017
 L 691.837,-7.03717 L 692.104,-7.49884 L 692.46,-7.895 L 692.892,-8.20836 L 693.379,-8.42519 L 693.9,-8.53603
 L 694.433,-8.53603 L 694.955,-8.42519 L 695.442,-8.20836 L 695.873,-7.895 L 696.23,-7.49884 L 696.496,-7.03717
 L 696.661,-6.53017 L 696.717,-6 L 696.717,-0 L 863.283,-0 L 863.283,-6 L 863.339,-6.53017
 L 863.504,-7.03717 L 863.77,-7.49884 L 864.127,-7.895 L 864.558,-8.20836 L 865.045,-8.42519 L 865.567,-8.53603
 L 866.1,-8.53603 L 866.621,-8.42519 L 867.108,-8.20836 L 867.54,-7.895 L 867.896,-7.49884 L 868.163,-7.03717
 L 868.328,-6.53017 L 868.383,-6 L 868.383,-0 L 1034.95,-0 L 1034.95,-6 L 1035.01,-6.53017
 L 1035.17,-7.03717 L 1035.44,-7.49884 L 1035.79,-7.895 L 1036.22,-8.20836 L 1036.71,-8.42519 L 1037.23,-8.53603
 L 1037.77,-8.53603 L 1038.29,-8.42519 L 1038.77,-8.20836 L 1039.21,-7.895 L 1039.56,-7.49884 L 1039.83,-7.03717
 L 1039.99,-6.53017 L 1040.05,-6 L 1040.05,-0 L 1045,-0 z
M 6.98573,-55.607 L 6.47708,-55.6875 L 5.97964,-55.8208 L 5.49887,-56.0054 L 5.04001,-56.2392 L 4.60811,-56.5196
 L 4.20789,-56.8437 L 3.84373,-57.2079 L 3.51964,-57.6081 L 3.23917,-58.04 L 3.00537,-58.4989 L 2.82082,-58.9796
 L 2.68752,-59.4771 L 2.60696,-59.9857 L 2.58,-60.5 L 2.60696,-61.0143 L 2.68752,-61.5229 L 2.82082,-62.0204
 L 3.00537,-62.5011 L 3.23917,-62.96 L 3.51964,-63.3919 L 3.84373,-63.7921 L 4.20789,-64.1563 L 4.60811,-64.4804
 L 4.95001,-64.7024 L 4.95001,-74 L 5.00574,-74.5302 L 5.17047,-75.0372 L 5.43701,-75.4988 L 5.79373,-75.895
 L 6.22501,-76.2084 L 6.71202,-76.4252 L 7.23346,-76.536 L 7.76654,-76.536 L 8.28798,-76.4252 L 8.77499,-76.2084
 L 9.20627,-75.895 L 9.56299,-75.4988 L 9.82953,-75.0372 L 9.99426,-74.5302 L 10.05,-74 L 10.05,-64.7024
 L 10.3919,-64.4804 L 10.7921,-64.1563 L 11.1563,-63.7921 L 11.4804,-63.3919 L 11.7608,-62.96 L 11.9946,-62.5011
 L 12.1792,-62.0204 L 12.3125,-61.5229 L 12.393,-61.0143 L 12.42,-60.5 L 12.393,-59.9857 L 12.3125,-59.4771
 L 12.1792,-58.9796 L 11.9946,-58.4989 L 11.7608,-58.04 L 11.4804,-57.6081 L 11.1563,-57.2079 L 10.7921,-56.8437
 L 10.3919,-56.5196 L 9.95999,-56.2392 L 9.50113,-56.0054 L 9.02036,-55.8208 L 8.52292,-55.6875 L 8.01427,-55.607
 L 7.5,-55.58 z
M 178.652,-55.607 L 178.144,-55.6875 L 177.646,-55.8208 L 177.166,-56.0054 L 176.707,-56.2392 L 176.275,-56.5196
 L 175.875,-56.8437 L 175.51,-57.2079 L 175.186,-57.6081 L 174.906,-58.04 L 174.672,-58.4989 L 174.487,-58.9796
 L 174.354,-59.4771 L 174.274,-59.9857 L 174.247,-60.5 L 174.274,-61.0143 L 174.354,-61.5229 L 174.487,-62.0204
 L 174.672,-62.5011 L 174.906,-62.96 L 175.186,-63.3919 L 175.51,-63.7921 L 175.875,-64.1563 L 176.275,-64.4804
 L 176.617,-64.7024 L 176.617,-74 L 176.672,-74.5302 L 176.837,-75.0372 L 177.104,-75.4988 L 177.46,-75.895
 L 177.892,-76.2084 L 178.379,-76.4252 L 178.9,-76.536 L 179.433,-76.536 L 179.955,-76.4252 L 180.442,-76.2084
 L 180.873,-75.895 L 181.23,-75.4988 L 181.496,-75.0372 L 181.661,-74.5302 L 181.717,-74 L 181.717,-64.7024
 L 182.059,-64.4804 L 182.459,-64.1563 L 182.823,-63.7921 L 183.147,-63.3919 L 183.427,-62.96 L 183.661,-62.5011
 L 183.846,-62.0204 L 183.979,-61.5229 L 184.06,-61.0143 L 184.087,-60.5 L 184.06,-59.9857 L 183.979,-59.4771
 L 183.846,-58.9796 L 183.661,-58.4989 L 183.427,-58.04 L 183.147,-57.6081 L 182.823,-57.2079 L 182.459,-56.8437
 L 182.059,-56.5196 L 181.627,-56.2392 L 181.168,-56.0054 L 180.687,-55.8208 L 180.19,-55.6875 L 179.681,-55.607
 L 179.167,-55.58 z
M 350.319,-55.607 L 349.81,-55.6875 L 349.313,-55.8208 L 348.832,-56.0054 L 348.373,-56.2392 L 347.941,-56.5196
 L 347.541,-56.8437 L 347.177,-57.2079 L 346.853,-57.6081 L 346.572,-58.04 L 346.339,-58.4989 L 346.154,-58.9796
 L 346.021,-59.4771 L 345.94,-59.9857 L 345.913,-60.5 L 345.94,-61.0143 L 346.021,-61.5229 L 346.154,-62.0204
 L 346.339,-62.5011 L 346.572,-62.96 L 346.853,-63.3919 L 347.177,-63.7921 L 347.541,-64.1563 L 347.941,-64.4804
 L 348.283,-64.7024 L 348.283,-74 L 348.339,-74.5302 L 348.504,-75.0372 L 348.77,-75.4988 L 349.127,-75.895
 L 349.558,-76.2084 L 350.045,-76.4252 L 350.567,-76.536 L 351.1,-76.536 L 351.621,-76.4252 L 352.108,-76.2084
 L 352.54,-75.895 L 352.896,-75.4988 L 353.163,-75.0372 L 353.328,-74.5302 L 353.383,-74 L 353.383,-64.7024
 L 353.725,-64.4804 L 354.125,-64.1563 L 354.49,-63.7921 L 354.814,-63.3919 L 355.094,-62.96 L 355.328,-62.5011
 L 355.513,-62.0204 L 355.646,-61.5229 L 355.726,-61.0143 L 355.753,-60.5 L 355.726,-59.9857 L 355.646,-59.4771
 L 355.513,-58.9796 L 355.328,-58.4989 L 355.094,-58.04 L 354.814,-57.6081 L 354.49,-57.2079 L 354.125,-56.8437
 L 353.725,-56.5196 L 353.293,-56.2392 L 352.834,-56.0054 L 352.354,-55.8208 L 351.856,-55.6875 L 351.348,-55.607
 L 350.833,-55.58 z
M 521.986,-55.607 L 521.477,-55.6875 L 520.98,-55.8208 L 520.499,-56.0054 L 520.04,-56.2392 L 519.608,-56.5196
 L 519.208,-56.8437 L 518.844,-57.2079 L 518.52,-57.6081 L 518.239,-58.04 L 518.005,-58.4989 L 517.821,-58.9796
 L 517.688,-59.4771 L 517.607,-59.9857 L 517.58,-60.5 L 517.607,-61.0143 L 517.688,-61.5229 L 517.821,-62.0204
 L 518.005,-62.5011 L 518.239,-62.96 L 518.52,-63.3919 L 518.844,-63.7921 L 519.208,-64.1563 L 519.608,-64.4804
 L 519.95,-64.7024 L 519.95,-74 L 520.006,-74.5302 L 520.17,-75.0372 L 520.437,-75.4988 L 520.794,-75.895
 L 521.225,-76.2084 L 521.712,-76.4252 L 522.233,-76.536 L 522.767,-76.536 L 523.288,-76.4252 L 523.775,-76.2084
 L 524.206,-75.895 L 524.563,-75.4988 L 524.83,-75.0372 L 524.994,-74.5302 L 525.05,-74 L 525.05,-64.7024
 L 525.392,-64.4804 L 525.792,-64.1563 L 526.156,-63.7921 L 526.48,-63.3919 L 526.761,-62.96 L 526.995,-62.5011
 L 527.179,-62.0204 L 527.312,-61.5229 L 527.393,-61.0143 L 527.42,-60.5 L 527.393,-59.9857 L 527.312,-59.4771
 L 527.179,-58.9796 L 526.995,-58.4989 L 526.761,-58.04 L 526.48,-57.6081 L 526.156,-57.2079 L 525.792,-56.8437
 L 525.392,-56.5196 L 524.96,-56.2392 L 524.501,-56.0054 L 524.02,-55.8208 L 523.523,-55.6875 L 523.014,-55.607
 L 522.5,-55.58 z
M 693.652,-55.607 L 693.144,-55.6875 L 692.646,-55.8208 L 692.166,-56.0054 L 691.707,-56.2392 L 691.275,-56.5196
 L 690.875,-56.8437 L 690.51,-57.2079 L 690.186,-57.6081 L 689.906,-58.04 L 689.672,-58.4989 L 689.487,-58.9796
 L 689.354,-59.4771 L 689.274,-59.9857 L 689.247,-60.5 L 689.274,-61.0143 L 689.354,-61.5229 L 689.487,-62.0204
 L 689.672,-62.5011 L 689.906,-62.96 L 690.186,-63.3919 L 690.51,-63.7921 L 690.875,-64.1563 L 691.275,-64.4804
 L 691.617,-64.7024 L 691.617,-74 L 691.672,-74.5302 L 691.837,-75.0372 L 692.104,-75.4988 L 692.46,-75.895
 L 692.892,-76.2084 L 693.379,-76.4252 L 693.9,-76.536 L 694.433,-76.536 L 694.955,-76.4252 L 695.442,-76.2084
 L 695.873,-75.895 L 696.23,-75.4988 L 696.496,-75.0372 L 696.661,-74.5302 L 696.717,-74 L 696.717,-64.7024
 L 697.059,-64.4804 L 697.459,-64.1563 L 697.823,-63.7921 L 698.147,-63.3919 L 698.427,-62.96 L 698.661,-62.5011
 L 698.846,-62.0204 L 698.979,-61.5229 L 699.06,-61.0143 L 699.087,-60.5 L 699.06,-59.9857 L 698.979,-59.4771
 L 698.846,-58.9796 L 698.661,-58.4989 L 698.427,-58.04 L 698.147,-57.6081 L 697.823,-57.2079 L 697.459,-56.8437
 L 697.059,-56.5196 L 696.627,-56.2392 L 696.168,-56.0054 L 695.687,-55.8208 L 695.19,-55.6875 L 694.681,-55.607
 L 694.167,-55.58 z
M 865.319,-55.607 L 864.81,-55.6875 L 864.313,-55.8208 L 863.832,-56.0054 L 863.373,-56.2392 L 862.941,-56.5196
 L 862.541,-56.8437 L 862.177,-57.2079 L 861.853,-57.6081 L 861.572,-58.04 L 861.339,-58.4989 L 861.154,-58.9796
 L 861.021,-59.4771 L 860.94,-59.9857 L 860.913,-60.5 L 860.94,-61.0143 L 861.021,-61.5229 L 861.154,-62.0204
 L 861.339,-62.5011 L 861.572,-62.96 L 861.853,-63.3919 L 862.177,-63.7921 L 862.541,-64.1563 L 862.941,-64.4804
 L 863.283,-64.7024 L 863.283,-74 L 863.339,-74.5302 L 863.504,-75.0372 L 863.77,-75.4988 L 864.127,-75.895
 L 864.558,-76.2084 L 865.045,-76.4252 L 865.567,-76.536 L 866.1,-76.536 L 866.621,-76.4252 L 867.108,-76.2084
 L 867.54,-75.895 L 867.896,-75.4988 L 868.163,-75.0372 L 868.328,-74.5302 L 868.383,-74 L 868.383,-64.7024
 L 868.725,-64.4804 L 869.125,-64.1563 L 869.49,-63.7921 L 869.814,-63.3919 L 870.094,-62.96 L 870.328,-62.5011
 L 870.513,-62.0204 L 870.646,-61.5229 L 870.726,-61.0143 L 870.753,-60.5 L 870.726,-59.9857 L 870.646,-59.4771
 L 870.513,-58.9796 L 870.328,-58.4989 L 870.094,-58.04 L 869.814,-57.6081 L 869.49,-57.2079 L 869.125,-56.8437
 L 868.725,-56.5196 L 868.293,-56.2392 L 867.834,-56.0054 L 867.354,-55.8208 L 866.856,-55.6875 L 866.348,-55.607
 L 865.833,-55.58 z
M 1036.99,-55.607 L 1036.48,-55.6875 L 1035.98,-55.8208 L 1035.5,-56.0054 L 1035.04,-56.2392 L 1034.61,-56.5196
 L 1034.21,-56.8437 L 1033.84,-57.2079 L 1033.52,-57.6081 L 1033.24,-58.04 L 1033.01,-58.4989 L 1032.82,-58.9796
 L 1032.69,-59.4771 L 1032.61,-59.9857 L 1032.58,-60.5 L 1032.61,-61.0143 L 1032.69,-61.5229 L 1032.82,-62.0204
 L 1033.01,-62.5011 L 1033.24,-62.96 L 1033.52,-63.3919 L 1033.84,-63.7921 L 1034.21,-64.1563 L 1034.61,-64.4804
 L 1034.95,-64.7024 L 1034.95,-74 L 1035.01,-74.5302 L 1035.17,-75.0372 L 1035.44,-75.4988 L 1035.79,-75.895
 L 1036.23,-76.2084 L 1036.71,-76.4252 L 1037.23,-76.536 L 1037.77,-76.536 L 1038.29,-76.4252 L 1038.77,-76.2084
 L 1039.21,-75.895 L 1039.56,-75.4988 L 1039.83,-75.0372 L 1039.99,-74.5302 L 1040.05,-74 L 1040.05,-64.7024
 L 1040.39,-64.4804 L 1040.79,-64.1563 L 1041.16,-63.7921 L 1041.48,-63.3919 L 1041.76,-62.96 L 1041.99,-62.5011
 L 1042.18,-62.0204 L 1042.31,-61.5229 L 1042.39,-61.0143 L 1042.42,-60.5 L 1042.39,-59.9857 L 1042.31,-59.4771
 L 1042.18,-58.9796 L 1041.99,-58.4989 L 1041.76,-58.04 L 1041.48,-57.6081 L 1041.16,-57.2079 L 1040.79,-56.8437
 L 1040.39,-56.5196 L 1039.96,-56.2392 L 1039.5,-56.0054 L 1039.02,-55.8208 L 1038.52,-55.6875 L 1038.01,-55.607
 L 1037.5,-55.58 z
M 877.839,-21.2456 L 877.055,-21.537 L 876.349,-21.9849 L 875.752,-22.5699 L 875.289,-23.2663 L 874.981,-24.0438
 L 874.833,-25.1201 L 874.833,-58 L 874.921,-58.8316 L 875.179,-59.627 L 875.597,-60.3511 L 876.157,-60.9726
 L 876.833,-61.4641 L 877.597,-61.8042 L 878.833,-62 L 961.839,-62 L 962.671,-61.9126 L 963.466,-61.6542
 L 964.19,-61.2361 L 964.812,-60.6765 L 965.303,-60 L 965.643,-59.2361 L 965.817,-58.4181 L 965.817,-57.5819
 L 965.643,-56.7639 L 965.303,-56 L 964.812,-55.3235 L 964.19,-54.7639 L 963.312,-54.2811 L 880.306,-21.4012
 L 879.501,-21.1762 L 878.666,-21.1236 z
M 337.166,-21.1762 L 336.36,-21.4012 L 253.355,-54.2811 L 252.477,-54.7639 L 251.855,-55.3235 L 251.364,-56
 L 251.023,-56.7639 L 250.85,-57.5819 L 250.85,-58.4181 L 251.023,-59.2361 L 251.364,-60 L 251.855,-60.6765
 L 252.477,-61.2361 L 253.201,-61.6542 L 253.996,-61.9126 L 254.828,-62 L 337.833,-62 L 339.069,-61.8042
 L 339.833,-61.4641 L 340.51,-60.9726 L 341.069,-60.3511 L 341.487,-59.627 L 341.746,-58.8316 L 341.833,-58
 L 341.833,-25.1201 L 341.686,-24.0438 L 341.378,-23.2663 L 340.915,-22.5699 L 340.317,-21.9849 L 339.611,-21.537
 L 338.827,-21.2456 L 338,-21.1236 z
M 165.499,-21.1762 L 164.694,-21.4012 L 81.6879,-54.2811 L 80.8099,-54.7639 L 80.1884,-55.3235 L 79.6969,-56
 L 79.3568,-56.7639 L 79.1829,-57.5819 L 79.1829,-58.4181 L 79.3568,-59.2361 L 79.6969,-60 L 80.1884,-60.6765
 L 80.8099,-61.2361 L 81.5341,-61.6542 L 82.3294,-61.9126 L 83.161,-62 L 166.167,-62 L 167.403,-61.8042
 L 168.167,-61.4641 L 168.843,-60.9726 L 169.403,-60.3511 L 169.821,-59.627 L 170.079,-58.8316 L 170.167,-58
 L 170.167,-25.1201 L 170.019,-24.0438 L 169.711,-23.2663 L 169.248,-22.5699 L 168.651,-21.9849 L 167.945,-21.537
 L 167.161,-21.2456 L 166.334,-21.1236 z
M 508.832,-21.1762 L 508.027,-21.4012 L 425.021,-54.2811 L 424.143,-54.7639 L 423.522,-55.3235 L 423.03,-56
 L 422.69,-56.7639 L 422.516,-57.5819 L 422.516,-58.4181 L 422.69,-59.2361 L 423.03,-60 L 423.522,-60.6765
 L 424.143,-61.2361 L 424.867,-61.6542 L 425.663,-61.9126 L 426.494,-62 L 509.5,-62 L 510.736,-61.8042
 L 511.5,-61.4641 L 512.177,-60.9726 L 512.736,-60.3511 L 513.154,-59.627 L 513.413,-58.8316 L 513.5,-58
 L 513.5,-25.1201 L 513.352,-24.0438 L 513.044,-23.2663 L 512.582,-22.5699 L 511.984,-21.9849 L 511.278,-21.537
 L 510.494,-21.2456 L 509.667,-21.1236 z
M 534.506,-21.2456 L 533.722,-21.537 L 533.016,-21.9849 L 532.418,-22.5699 L 531.955,-23.2663 L 531.648,-24.0438
 L 531.5,-25.1201 L 531.5,-58 L 531.587,-58.8316 L 531.846,-59.627 L 532.264,-60.3511 L 532.823,-60.9726
 L 533.5,-61.4641 L 534.264,-61.8042 L 535.5,-62 L 618.506,-62 L 619.337,-61.9126 L 620.133,-61.6542
 L 620.857,-61.2361 L 621.478,-60.6765 L 621.97,-60 L 622.31,-59.2361 L 622.484,-58.4181 L 622.484,-57.5819
 L 622.31,-56.7639 L 621.97,-56 L 621.478,-55.3235 L 620.857,-54.7639 L 619.979,-54.2811 L 536.973,-21.4012
 L 536.168,-21.1762 L 535.333,-21.1236 z
M 706.173,-21.2456 L 705.389,-21.537 L 704.683,-21.9849 L 704.085,-22.5699 L 703.622,-23.2663 L 703.314,-24.0438
 L 703.167,-25.1201 L 703.167,-58 L 703.254,-58.8316 L 703.512,-59.627 L 703.931,-60.3511 L 704.49,-60.9726
 L 705.167,-61.4641 L 705.931,-61.8042 L 707.167,-62 L 790.172,-62 L 791.004,-61.9126 L 791.799,-61.6542
 L 792.523,-61.2361 L 793.145,-60.6765 L 793.636,-60 L 793.977,-59.2361 L 794.15,-58.4181 L 794.15,-57.5819
 L 793.977,-56.7639 L 793.636,-56 L 793.145,-55.3235 L 792.523,-54.7639 L 791.645,-54.2811 L 708.64,-21.4012
 L 707.834,-21.1762 L 707,-21.1236 z
M 192.167,-18 L 190.931,-18.1958 L 190.167,-18.5359 L 189.49,-19.0274 L 188.931,-19.6489 L 188.512,-20.373
 L 188.254,-21.1684 L 188.167,-22 L 188.167,-54.8799 L 188.314,-55.9562 L 188.622,-56.7337 L 189.085,-57.4301
 L 189.683,-58.0151 L 190.389,-58.463 L 191.173,-58.7544 L 192,-58.8764 L 192.834,-58.8238 L 193.64,-58.5988
 L 276.645,-25.7189 L 277.523,-25.2361 L 278.145,-24.6765 L 278.636,-24 L 278.977,-23.2361 L 279.15,-22.4181
 L 279.15,-21.5819 L 278.977,-20.7639 L 278.636,-20 L 278.145,-19.3235 L 277.523,-18.7639 L 276.799,-18.3458
 L 276.004,-18.0874 L 275.172,-18 z
M 363.833,-18 L 362.597,-18.1958 L 361.833,-18.5359 L 361.157,-19.0274 L 360.597,-19.6489 L 360.179,-20.373
 L 359.921,-21.1684 L 359.833,-22 L 359.833,-54.8799 L 359.981,-55.9562 L 360.289,-56.7337 L 360.752,-57.4301
 L 361.349,-58.0151 L 362.055,-58.463 L 362.839,-58.7544 L 363.666,-58.8764 L 364.501,-58.8238 L 365.306,-58.5988
 L 448.312,-25.7189 L 449.19,-25.2361 L 449.812,-24.6765 L 450.303,-24 L 450.643,-23.2361 L 450.817,-22.4181
 L 450.817,-21.5819 L 450.643,-20.7639 L 450.303,-20 L 449.812,-19.3235 L 449.19,-18.7639 L 448.466,-18.3458
 L 447.671,-18.0874 L 446.839,-18 z
M 598.161,-18 L 597.329,-18.0874 L 596.534,-18.3458 L 595.81,-18.7639 L 595.188,-19.3235 L 594.697,-20
 L 594.357,-20.7639 L 594.183,-21.5819 L 594.183,-22.4181 L 594.357,-23.2361 L 594.697,-24 L 595.188,-24.6765
 L 595.81,-25.2361 L 596.688,-25.7189 L 679.694,-58.5988 L 680.499,-58.8238 L 681.334,-58.8764 L 682.161,-58.7544
 L 682.945,-58.463 L 683.651,-58.0151 L 684.248,-57.4301 L 684.711,-56.7337 L 685.019,-55.9562 L 685.167,-54.8799
 L 685.167,-22 L 685.079,-21.1684 L 684.821,-20.373 L 684.403,-19.6489 L 683.843,-19.0274 L 683.167,-18.5359
 L 682.403,-18.1958 L 681.167,-18 z
M 769.828,-18 L 768.996,-18.0874 L 768.201,-18.3458 L 767.477,-18.7639 L 766.855,-19.3235 L 766.364,-20
 L 766.023,-20.7639 L 765.85,-21.5819 L 765.85,-22.4181 L 766.023,-23.2361 L 766.364,-24 L 766.855,-24.6765
 L 767.477,-25.2361 L 768.355,-25.7189 L 851.36,-58.5988 L 852.166,-58.8238 L 853,-58.8764 L 853.827,-58.7544
 L 854.611,-58.463 L 855.317,-58.0151 L 855.915,-57.4301 L 856.378,-56.7337 L 856.686,-55.9562 L 856.833,-54.8799
 L 856.833,-22 L 856.746,-21.1684 L 856.488,-20.373 L 856.069,-19.6489 L 855.51,-19.0274 L 854.833,-18.5359
 L 854.069,-18.1958 L 852.833,-18 z
M 941.494,-18 L 940.663,-18.0874 L 939.867,-18.3458 L 939.143,-18.7639 L 938.522,-19.3235 L 938.03,-20
 L 937.69,-20.7639 L 937.516,-21.5819 L 937.516,-22.4181 L 937.69,-23.2361 L 938.03,-24 L 938.522,-24.6765
 L 939.143,-25.2361 L 940.021,-25.7189 L 1021.53,-58.0046 L 1022.33,-58.2296 L 1023.17,-58.2822 L 1023.99,-58.1602
 L 1024.78,-57.8689 L 1025.48,-57.4209 L 1026.08,-56.8359 L 1026.54,-56.1395 L 1026.85,-55.362 L 1027,-54.2857
 L 1027,-22 L 1026.91,-21.1684 L 1026.65,-20.373 L 1026.24,-19.6489 L 1025.68,-19.0274 L 1025,-18.5359
 L 1024.24,-18.1958 L 1023,-18 z
M 22,-18 L 20.7639,-18.1958 L 20,-18.5359 L 19.3235,-19.0274 L 18.7639,-19.6489 L 18.3458,-20.373
 L 18.0874,-21.1684 L 18,-22 L 18,-54.2857 L 18.1475,-55.362 L 18.4555,-56.1395 L 18.9184,-56.8359
 L 19.5159,-57.4209 L 20.222,-57.8689 L 21.0059,-58.1602 L 21.8331,-58.2822 L 22.6677,-58.2296 L 23.4731,-58.0046
 L 104.979,-25.7189 L 105.857,-25.2361 L 106.478,-24.6765 L 106.97,-24 L 107.31,-23.2361 L 107.484,-22.4181
 L 107.484,-21.5819 L 107.31,-20.7639 L 106.97,-20 L 106.478,-19.3235 L 105.857,-18.7639 L 105.133,-18.3458
 L 104.337,-18.0874 L 103.506,-18 z
" stroke="black" fill="lightgray" stroke-width="0.5"/>
</svg>
