<?xml version="1.0" standalone="no"?>
<!DOCTYPE svg PUBLIC "-//W3C//DTD SVG 1.1//EN" "http://www.w3.org/Graphics/SVG/1.1/DTD/svg11.dtd">
<svg width="1688mm" height="80mm" viewBox="0 -80 1688 80" xmlns="http://www.w3.org/2000/svg" version="1.1">
<title>OpenSCAD Model</title>
<path d="
M 1688,-80 L 0,-80 L 0,-0 L 4.95,-0 L 4.95,-6 L 5.00572,-6.53017
 L 5.17046,-7.03717 L 5.437,-7.49884 L 5.79372,-7.895 L 6.22499,-8.20836 L 6.71201,-8.42519 L 7.23344,-8.53603
 L 7.76654,-8.53603 L 8.28798,-8.42519 L 8.77499,-8.20836 L 9.20627,-7.895 L 9.56299,-7.49884 L 9.82953,-7.03717
 L 9.99426,-6.53017 L 10.05,-6 L 10.05,-0 L 190.839,-0 L 190.839,-6 L 190.895,-6.53017
 L 191.059,-7.03717 L 191.326,-7.49884 L 191.683,-7.895 L 192.114,-8.20836 L 192.601,-8.42519 L 193.122,-8.53603
 L 193.655,-8.53603 L 194.177,-8.42519 L 194.664,-8.20836 L 195.095,-7.895 L 195.452,-7.49884 L 195.718,-7.03717
 L 195.883,-6.53017 L 195.939,-6 L 195.939,-0 L 376.728,-0 L 376.728,-6 L 376.783,-6.53017
 L 376.948,-7.03717 L 377.215,-7.49884 L 377.571,-7.895 L 378.003,-8.20836 L 378.49,-8.42519 L 379.011,-8.53603
 L 379.544,-8.53603 L 380.066,-8.42519 L 380.553,-8.20836 L 380.984,-7.895 L 381.341,-7.49884 L 381.607,-7.03717
 L 381.772,-6.53017 L 381.828,-6 L 381.828,-0 L 562.617,-0 L 562.617,-6 L 562.672,-6.53017
 L 562.837,-7.03717 L 563.104,-7.49884 L 563.46,-7.895 L 563.892,-8.20836 L 564.379,-8.42519 L 564.9,-8.53603
 L 565.433,-8.53603 L 565.955,-8.42519 L 566.442,-8.20836 L 566.873,-7.895 L 567.23,-7.49884 L 567.496,-7.03717
 L 567.661,-6.53017 L 567.717,-6 L 567.717,-0 L 748.506,-0 L 748.506,-6 L 748.561,-6.53017
 L 748.726,-7.03717 L 748.993,-7.49884 L 749.349,-7.895 L 749.781,-8.20836 L 750.268,-8.42519 L 750.789,-8.53603
 L 751.322,-8.53603 L 751.844,-8.42519 L 752.331,-8.20836 L 752.762,-7.895 L 753.119,-7.49884 L 753.385,-7.03717
 L 753.55,-6.53017 L 753.606,-6 L 753.606,-0 L 934.394,-0 L 934.394,-6 L 934.45,-6.53017
 L 934.615,-7.03717 L 934.881,-7.49884 L 935.238,-7.895 L 935.669,-8.20836 L 936.156,-8.42519 L 936.678,-8.53603
 L 937.211,-8.53603 L 937.732,-8.42519 L 938.219,-8.20836 L 938.651,-7.895 L 939.007,-7.49884 L 939.274,-7.03717
 L 939.439,-6.53017 L 939.494,-6 L 939.494,-0 L 1120.28,-0 L 1120.28,-6 L 1120.34,-6.53017
 L 1120.5,-7.03717 L 1120.77,-7.49884 L 1121.13,-7.895 L 1121.56,-8.20836 L 1122.05,-8.42519 L 1122.57,-8.53603
 L 1123.1,-8.53603 L 1123.62,-8.42519 L 1124.11,-8.20836 L 1124.54,-7.895 L 1124.9,-7.49884 L 1125.16,-7.03717
 L 1125.33,-6.53017 L 1125.38,-6 L 1125.38,-0 L 1306.17,-0 L 1306.17,-6 L 1306.23,-6.53017
 L 1306.39,-7.03717 L 1306.66,-7.49884 L 1307.02,-7.895 L 1307.45,-8.20836 L 1307.93,-8.42519 L 1308.46,-8.53603
 L 1308.99,-8.53603 L 1309.51,-8.42519 L 1310,-8.20836 L 1310.43,-7.895 L 1310.79,-7.49884 L 1311.05,-7.03717
 L 1311.22,-6.53017 L 1311.27,-6 L 1311.27,-0 L 1492.06,-0 L 1492.06,-6 L 1492.12,-6.53017
 L 1492.28,-7.03717 L 1492.55,-7.49884 L 1492.9,-7.895 L 1493.34,-8.20836 L 1493.82,-8.42519 L 1494.34,-8.53603
 L 1494.88,-8.53603 L 1495.4,-8.42519 L 1495.89,-8.20836 L 1496.32,-7.895 L 1496.67,-7.49884 L 1496.94,-7.03717
 L 1497.11,-6.53017 L 1497.16,-6 L 1497.16,-0 L 1677.95,-0 L 1677.95,-6 L 1678.01,-6.53017
 L 1678.17,-7.03717 L 1678.44,-7.49884 L 1678.79,-7.895 L 1679.22,-8.20836 L 1679.71,-8.42519 L 1680.23,-8.53603
 L 1680.77,-8.53603 L 1681.29,-8.42519 L 1681.77,-8.20836 L 1682.21,-7.895 L 1682.56,-7.49884 L 1682.83,-7.03717
 L 1682.99,-6.53017 L 1683.05,-6 L 1683.05,-0 L 1688,-0 z
M 6.98573,-55.607 L 6.47708,-55.6875 L 5.97964,-55.8208 L 5.49887,-56.0054 L 5.04001,-56.2392 L 4.60811,-56.5196
 L 4.20789,-56.8437 L 3.84373,-57.2079 L 3.51964,-57.6081 L 3.23917,-58.04 L 3.00537,-58.4989 L 2.82082,-58.9796
 L 2.68752,-59.4771 L 2.60696,-59.9857 L 2.58,-60.5 L 2.60696,-61.0143 L 2.68752,-61.5229 L 2.82082,-62.0204
 L 3.00537,-62.5011 L 3.23917,-62.96 L 3.51964,-63.3919 L 3.84373,-63.7921 L 4.20789,-64.1563 L 4.60811,-64.4804
 L 4.95001,-64.7024 L 4.95001,-74 L 5.00574,-74.5302 L 5.17047,-75.0372 L 5.43701,-75.4988 L 5.79373,-75.895
 L 6.22501,-76.2084 L 6.71202,-76.4252 L 7.23346,-76.536 L 7.76654,-76.536 L 8.28798,-76.4252 L 8.77499,-76.2084
 L 9.20627,-75.895 L 9.56299,-75.4988 L 9.82953,-75.0372 L 9.99426,-74.5302 L 10.05,-74 L 10.05,-64.7024
 L 10.3919,-64.4804 L 10.7921,-64.1563 L 11.1563,-63.7921 L 11.4804,-63.3919 L 11.7608,-62.96 L 11.9946,-62.5011
 L 12.1792,-62.0204 L 12.3125,-61.5229 L 12.393,-61.0143 L 12.42,-60.5 L 12.393,-59.9857 L 12.3125,-59.4771
 L 12.1792,-58.9796 L 11.9946,-58.4989 L 11.7608,-58.04 L 11.4804,-57.6081 L 11.1563,-57.2079 L 10.7921,-56.8437
 L 10.3919,-56.5196 L 9.95999,-56.2392 L 9.50113,-56.0054 L 9.02036,-55.8208 L 8.52292,-55.6875 L 8.01427,-55.607
 L 7.5,-55.58 z
M 1122.32,-55.607 L 1121.81,-55.6875 L 1121.31,-55.8208 L 1120.83,-56.0054 L 1120.37,-56.2392 L 1119.94,-56.5196
 L 1119.54,-56.8437 L 1119.18,-57.2079 L 1118.85,-57.6081 L 1118.57,-58.04 L 1118.34,-58.4989 L 1118.15,-58.9796
 L 1118.02,-59.4771 L 1117.94,-59.9857 L 1117.91,-60.5 L 1117.94,-61.0143 L 1118.02,-61.5229 L 1118.15,-62.0204
 L 1118.34,-62.5011 L 1118.57,-62.96 L 1118.85,-63.3919 L 1119.18,-63.7921 L 1119.54,-64.1563 L 1119.94,-64.4804
 L 1120.28,-64.7024 L 1120.28,-74 L 1120.34,-74.5302 L 1120.5,-75.0372 L 1120.77,-75.4988 L 1121.13,-75.895
 L 1121.56,-76.2084 L 1122.05,-76.4252 L 1122.57,-76.536 L 1123.1,-76.536 L 1123.62,-76.4252 L 1124.11,-76.2084
 L 1124.54,-75.895 L 1124.9,-75.4988 L 1125.16,-75.0372 L 1125.33,-74.5302 L 1125.38,-74 L 1125.38,-64.7024
 L 1125.73,-64.4804 L 1126.13,-64.1563 L 1126.49,-63.7921 L 1126.81,-63.3919 L 1127.09,-62.96 L 1127.33,-62.5011
 L 1127.51,-62.0204 L 1127.65,-61.5229 L 1127.73,-61.0143 L 1127.75,-60.5 L 1127.73,-59.9857 L 1127.65,-59.4771
 L 1127.51,-58.9796 L 1127.33,-58.4989 L 1127.09,-58.04 L 1126.81,-57.6081 L 1126.49,-57.2079 L 1126.13,-56.8437
 L 1125.73,-56.5196 L 1125.29,-56.2392 L 1124.83,-56.0054 L 1124.35,-55.8208 L 1123.86,-55.6875 L 1123.35,-55.607
 L 1122.83,-55.58 z
M 1308.21,-55.607 L 1307.7,-55.6875 L 1307.2,-55.8208 L 1306.72,-56.0054 L 1306.26,-56.2392 L 1305.83,-56.5196
 L 1305.43,-56.8437 L 1305.07,-57.2079 L 1304.74,-57.6081 L 1304.46,-58.04 L 1304.23,-58.4989 L 1304.04,-58.9796
 L 1303.91,-59.4771 L 1303.83,-59.9857 L 1303.8,-60.5 L 1303.83,-61.0143 L 1303.91,-61.5229 L 1304.04,-62.0204
 L 1304.23,-62.5011 L 1304.46,-62.96 L 1304.74,-63.3919 L 1305.07,-63.7921 L 1305.43,-64.1563 L 1305.83,-64.4804
 L 1306.17,-64.7024 L 1306.17,-74 L 1306.23,-74.5302 L 1306.39,-75.0372 L 1306.66,-75.4988 L 1307.02,-75.895
 L 1307.45,-76.2084 L 1307.93,-76.4252 L 1308.46,-76.536 L 1308.99,-76.536 L 1309.51,-76.4252 L 1310,-76.2084
 L 1310.43,-75.895 L 1310.79,-75.4988 L 1311.05,-75.0372 L 1311.22,-74.5302 L 1311.27,-74 L 1311.27,-64.7024
 L 1311.61,-64.4804 L 1312.01,-64.1563 L 1312.38,-63.7921 L 1312.7,-63.3919 L 1312.98,-62.96 L 1313.22,-62.5011
 L 1313.4,-62.0204 L 1313.53,-61.5229 L 1313.62,-61.0143 L 1313.64,-60.5 L 1313.62,-59.9857 L 1313.53,-59.4771
 L 1313.4,-58.9796 L 1313.22,-58.4989 L 1312.98,-58.04 L 1312.7,-57.6081 L 1312.38,-57.2079 L 1312.01,-56.8437
 L 1311.61,-56.5196 L 1311.18,-56.2392 L 1310.72,-56.0054 L 1310.24,-55.8208 L 1309.75,-55.6875 L 1309.24,-55.607
 L 1308.72,-55.58 z
M 936.43,-55.607 L 935.922,-55.6875 L 935.424,-55.8208 L 934.943,-56.0054 L 934.484,-56.2392 L 934.053,-56.5196
 L 933.652,-56.8437 L 933.288,-57.2079 L 932.964,-57.6081 L 932.684,-58.04 L 932.45,-58.4989 L 932.265,-58.9796
 L 932.132,-59.4771 L 932.051,-59.9857 L 932.024,-60.5 L 932.051,-61.0143 L 932.132,-61.5229 L 932.265,-62.0204
 L 932.45,-62.5011 L 932.684,-62.96 L 932.964,-63.3919 L 933.288,-63.7921 L 933.652,-64.1563 L 934.053,-64.4804
 L 934.394,-64.7024 L 934.394,-74 L 934.45,-74.5302 L 934.615,-75.0372 L 934.881,-75.4988 L 935.238,-75.895
 L 935.669,-76.2084 L 936.156,-76.4252 L 936.678,-76.536 L 937.211,-76.536 L 937.732,-76.4252 L 938.219,-76.2084
 L 938.651,-75.895 L 939.007,-75.4988 L 939.274,-75.0372 L 939.439,-74.5302 L 939.494,-74 L 939.494,-64.7024
 L 939.836,-64.4804 L 940.237,-64.1563 L 940.601,-63.7921 L 940.925,-63.3919 L 941.205,-62.96 L 941.439,-62.5011
 L 941.624,-62.0204 L 941.757,-61.5229 L 941.837,-61.0143 L 941.864,-60.5 L 941.837,-59.9857 L 941.757,-59.4771
 L 941.624,-58.9796 L 941.439,-58.4989 L 941.205,-58.04 L 940.925,-57.6081 L 940.601,-57.2079 L 940.237,-56.8437
 L 939.836,-56.5196 L 939.404,-56.2392 L 938.946,-56.0054 L 938.465,-55.8208 L 937.967,-55.6875 L 937.459,-55.607
 L 936.944,-55.58 z
M 750.541,-55.607 L 750.033,-55.6875 L 749.535,-55.8208 L 749.054,-56.0054 L 748.596,-56.2392 L 748.164,-56.5196
 L 747.763,-56.8437 L 747.399,-57.2079 L 747.075,-57.6081 L 746.795,-58.04 L 746.561,-58.4989 L 746.376,-58.9796
 L 746.243,-59.4771 L 746.163,-59.9857 L 746.136,-60.5 L 746.163,-61.0143 L 746.243,-61.5229 L 746.376,-62.0204
 L 746.561,-62.5011 L 746.795,-62.96 L 747.075,-63.3919 L 747.399,-63.7921 L 747.763,-64.1563 L 748.164,-64.4804
 L 748.506,-64.7024 L 748.506,-74 L 748.561,-74.5302 L 748.726,-75.0372 L 748.993,-75.4988 L 749.349,-75.895
 L 749.781,-76.2084 L 750.268,-76.4252 L 750.789,-76.536 L 751.322,-76.536 L 751.844,-76.4252 L 752.331,-76.2084
 L 752.762,-75.895 L 753.119,-75.4988 L 753.385,-75.0372 L 753.55,-74.5302 L 753.606,-74 L 753.606,-64.7024
 L 753.947,-64.4804 L 754.348,-64.1563 L 754.712,-63.7921 L 755.036,-63.3919 L 755.316,-62.96 L 755.55,-62.5011
 L 755.735,-62.0204 L 755.868,-61.5229 L 755.949,-61.0143 L 755.976,-60.5 L 755.949,-59.9857 L 755.868,-59.4771
 L 755.735,-58.9796 L 755.55,-58.4989 L 755.316,-58.04 L 755.036,-57.6081 L 754.712,-57.2079 L 754.348,-56.8437
 L 753.947,-56.5196 L 753.516,-56.2392 L 753.057,-56.0054 L 752.576,-55.8208 L 752.078,-55.6875 L 751.57,-55.607
 L 751.056,-55.58 z
M 1494.1,-55.607 L 1493.59,-55.6875 L 1493.09,-55.8208 L 1492.61,-56.0054 L 1492.15,-56.2392 L 1491.72,-56.5196
 L 1491.32,-56.8437 L 1490.95,-57.2079 L 1490.63,-57.6081 L 1490.35,-58.04 L 1490.12,-58.4989 L 1489.93,-58.9796
 L 1489.8,-59.4771 L 1489.72,-59.9857 L 1489.69,-60.5 L 1489.72,-61.0143 L 1489.8,-61.5229 L 1489.93,-62.0204
 L 1490.12,-62.5011 L 1490.35,-62.96 L 1490.63,-63.3919 L 1490.95,-63.7921 L 1491.32,-64.1563 L 1491.72,-64.4804
 L 1492.06,-64.7024 L 1492.06,-74 L 1492.12,-74.5302 L 1492.28,-75.0372 L 1492.55,-75.4988 L 1492.9,-75.895
 L 1493.34,-76.2084 L 1493.82,-76.4252 L 1494.34,-76.536 L 1494.88,-76.536 L 1495.4,-76.4252 L 1495.89,-76.2084
 L 1496.32,-75.895 L 1496.67,-75.4988 L 1496.94,-75.0372 L 1497.11,-74.5302 L 1497.16,-74 L 1497.16,-64.7024
 L 1497.5,-64.4804 L 1497.9,-64.1563 L 1498.27,-63.7921 L 1498.59,-63.3919 L 1498.87,-62.96 L 1499.11,-62.5011
 L 1499.29,-62.0204 L 1499.42,-61.5229 L 1499.5,-61.0143 L 1499.53,-60.5 L 1499.5,-59.9857 L 1499.42,-59.4771
 L 1499.29,-58.9796 L 1499.11,-58.4989 L 1498.87,-58.04 L 1498.59,-57.6081 L 1498.27,-57.2079 L 1497.9,-56.8437
 L 1497.5,-56.5196 L 1497.07,-56.2392 L 1496.61,-56.0054 L 1496.13,-55.8208 L 1495.63,-55.6875 L 1495.13,-55.607
 L 1494.61,-55.58 z
M 564.652,-55.607 L 564.144,-55.6875 L 563.646,-55.8208 L 563.166,-56.0054 L 562.707,-56.2392 L 562.275,-56.5196
 L 561.875,-56.8437 L 561.51,-57.2079 L 561.186,-57.6081 L 560.906,-58.04 L 560.672,-58.4989 L 560.487,-58.9796
 L 560.354,-59.4771 L 560.274,-59.9857 L 560.247,-60.5 L 560.274,-61.0143 L 560.354,-61.5229 L 560.487,-62.0204
 L 560.672,-62.5011 L 560.906,-62.96 L 561.186,-63.3919 L 561.51,-63.7921 L 561.875,-64.1563 L 562.275,-64.4804
 L 562.617,-64.7024 L 562.617,-74 L 562.672,-74.5302 L 562.837,-75.0372 L 563.104,-75.4988 L 563.46,-75.895
 L 563.892,-76.2084 L 564.379,-76.4252 L 564.9,-76.536 L 565.433,-76.536 L 565.955,-76.4252 L 566.442,-76.2084
 L 566.873,-75.895 L 567.23,-75.4988 L 567.496,-75.0372 L 567.661,-74.5302 L 567.717,-74 L 567.717,-64.7024
 L 568.059,-64.4804 L 568.459,-64.1563 L 568.823,-63.7921 L 569.147,-63.3919 L 569.427,-62.96 L 569.661,-62.5011
 L 569.846,-62.0204 L 569.979,-61.5229 L 570.06,-61.0143 L 570.087,-60.5 L 570.06,-59.9857 L 569.979,-59.4771
 L 569.846,-58.9796 L 569.661,-58.4989 L 569.427,-58.04 L 569.147,-57.6081 L 568.823,-57.2079 L 568.459,-56.8437
 L 568.059,-56.5196 L 567.627,-56.2392 L 567.168,-56.0054 L 566.687,-55.8208 L 566.19,-55.6875 L 565.681,-55.607
 L 565.167,-55.58 z
M 378.764,-55.607 L 378.255,-55.6875 L 377.757,-55.8208 L 377.277,-56.0054 L 376.818,-56.2392 L 376.386,-56.5196
 L 375.986,-56.8437 L 375.622,-57.2079 L 375.297,-57.6081 L 375.017,-58.04 L 374.783,-58.4989 L 374.599,-58.9796
 L 374.465,-59.4771 L 374.385,-59.9857 L 374.358,-60.5 L 374.385,-61.0143 L 374.465,-61.5229 L 374.599,-62.0204
 L 374.783,-62.5011 L 375.017,-62.96 L 375.297,-63.3919 L 375.622,-63.7921 L 375.986,-64.1563 L 376.386,-64.4804
 L 376.728,-64.7024 L 376.728,-74 L 376.784,-74.5302 L 376.948,-75.0372 L 377.215,-75.4988 L 377.572,-75.895
 L 378.003,-76.2084 L 378.49,-76.4252 L 379.011,-76.536 L 379.544,-76.536 L 380.066,-76.4252 L 380.553,-76.2084
 L 380.984,-75.895 L 381.341,-75.4988 L 381.607,-75.0372 L 381.772,-74.5302 L 381.828,-74 L 381.828,-64.7024
 L 382.17,-64.4804 L 382.57,-64.1563 L 382.934,-63.7921 L 383.258,-63.3919 L 383.539,-62.96 L 383.772,-62.5011
 L 383.957,-62.0204 L 384.09,-61.5229 L 384.171,-61.0143 L 384.198,-60.5 L 384.171,-59.9857 L 384.09,-59.4771
 L 383.957,-58.9796 L 383.772,-58.4989 L 383.539,-58.04 L 383.258,-57.6081 L 382.934,-57.2079 L 382.57,-56.8437
 L 382.17,-56.5196 L 381.738,-56.2392 L 381.279,-56.0054 L 380.798,-55.8208 L 380.301,-55.6875 L 379.792,-55.607
 L 379.278,-55.58 z
M 1679.99,-55.607 L 1679.48,-55.6875 L 1678.98,-55.8208 L 1678.5,-56.0054 L 1678.04,-56.2392 L 1677.61,-56.5196
 L 1677.21,-56.8437 L 1676.84,-57.2079 L 1676.52,-57.6081 L 1676.24,-58.04 L 1676.01,-58.4989 L 1675.82,-58.9796
 L 1675.69,-59.4771 L 1675.61,-59.9857 L 1675.58,-60.5 L 1675.61,-61.0143 L 1675.69,-61.5229 L 1675.82,-62.0204
 L 1676.01,-62.5011 L 1676.24,-62.96 L 1676.52,-63.3919 L 1676.84,-63.7921 L 1677.21,-64.1563 L 1677.61,-64.4804
 L 1677.95,-64.7024 L 1677.95,-74 L 1678.01,-74.5302 L 1678.17,-75.0372 L 1678.44,-75.4988 L 1678.79,-75.895
 L 1679.23,-76.2084 L 1679.71,-76.4252 L 1680.23,-76.536 L 1680.77,-76.536 L 1681.29,-76.4252 L 1681.77,-76.2084
 L 1682.21,-75.895 L 1682.56,-75.4988 L 1682.83,-75.0372 L 1682.99,-74.5302 L 1683.05,-74 L 1683.05,-64.7024
 L 1683.39,-64.4804 L 1683.79,-64.1563 L 1684.16,-63.7921 L 1684.48,-63.3919 L 1684.76,-62.96 L 1684.99,-62.5011
 L 1685.18,-62.0204 L 1685.31,-61.5229 L 1685.39,-61.0143 L 1685.42,-60.5 L 1685.39,-59.9857 L 1685.31,-59.4771
 L 1685.18,-58.9796 L 1684.99,-58.4989 L 1684.76,-58.04 L 1684.48,-57.6081 L 1684.16,-57.2079 L 1683.79,-56.8437
 L 1683.39,-56.5196 L 1682.96,-56.2392 L 1682.5,-56.0054 L 1682.02,-55.8208 L 1681.52,-55.6875 L 1681.01,-55.607
 L 1680.5,-55.58 z
M 192.875,-55.607 L 192.366,-55.6875 L 191.869,-55.8208 L 191.388,-56.0054 L 190.929,-56.2392 L 190.497,-56.5196
 L 190.097,-56.8437 L 189.733,-57.2079 L 189.409,-57.6081 L 189.128,-58.04 L 188.894,-58.4989 L 188.71,-58.9796
 L 188.576,-59.4771 L 188.496,-59.9857 L 188.469,-60.5 L 188.496,-61.0143 L 188.576,-61.5229 L 188.71,-62.0204
 L 188.894,-62.5011 L 189.128,-62.96 L 189.409,-63.3919 L 189.733,-63.7921 L 190.097,-64.1563 L 190.497,-64.4804
 L 190.839,-64.7024 L 190.839,-74 L 190.895,-74.5302 L 191.059,-75.0372 L 191.326,-75.4988 L 191.683,-75.895
 L 192.114,-76.2084 L 192.601,-76.4252 L 193.122,-76.536 L 193.655,-76.536 L 194.177,-76.4252 L 194.664,-76.2084
 L 195.095,-75.895 L 195.452,-75.4988 L 195.718,-75.0372 L 195.883,-74.5302 L 195.939,-74 L 195.939,-64.7024
 L 196.281,-64.4804 L 196.681,-64.1563 L 197.045,-63.7921 L 197.369,-63.3919 L 197.65,-62.96 L 197.884,-62.5011
 L 198.068,-62.0204 L 198.201,-61.5229 L 198.282,-61.0143 L 198.309,-60.5 L 198.282,-59.9857 L 198.201,-59.4771
 L 198.068,-58.9796 L 197.884,-58.4989 L 197.65,-58.04 L 197.369,-57.6081 L 197.045,-57.2079 L 196.681,-56.8437
 L 196.281,-56.5196 L 195.849,-56.2392 L 195.39,-56.0054 L 194.909,-55.8208 L 194.412,-55.6875 L 193.903,-55.607
 L 193.389,-55.58 z
M 1134.74,-20.742 L 1133.96,-21.054 L 1133.27,-21.5204 L 1132.69,-22.121 L 1132.24,-22.8295 L 1131.95,-23.6148
 L 1131.83,-24.5888 L 1131.83,-58 L 1131.92,-58.8316 L 1132.18,-59.627 L 1132.6,-60.3511 L 1133.16,-60.9726
 L 1133.83,-61.4641 L 1134.6,-61.8042 L 1135.83,-62 L 1227.17,-62 L 1228,-61.9126 L 1228.8,-61.6542
 L 1229.52,-61.2361 L 1230.14,-60.6765 L 1230.63,-60 L 1230.97,-59.2361 L 1231.15,-58.4181 L 1231.15,-57.5819
 L 1230.97,-56.7639 L 1230.63,-56 L 1230.14,-55.3235 L 1229.52,-54.7639 L 1228.54,-54.2435 L 1137.21,-20.8322
 L 1136.4,-20.6286 L 1135.56,-20.5981 z
M 948.848,-20.742 L 948.072,-21.054 L 947.378,-21.5204 L 946.796,-22.121 L 946.352,-22.8295 L 946.065,-23.6148
 L 945.944,-24.5888 L 945.944,-58 L 946.032,-58.8316 L 946.29,-59.627 L 946.708,-60.3511 L 947.268,-60.9726
 L 947.944,-61.4641 L 948.708,-61.8042 L 949.944,-62 L 1041.28,-62 L 1042.11,-61.9126 L 1042.91,-61.6542
 L 1043.63,-61.2361 L 1044.25,-60.6765 L 1044.74,-60 L 1045.08,-59.2361 L 1045.26,-58.4181 L 1045.26,-57.5819
 L 1045.08,-56.7639 L 1044.74,-56 L 1044.25,-55.3235 L 1043.63,-54.7639 L 1042.65,-54.2435 L 951.319,-20.8322
 L 950.508,-20.6286 L 949.672,-20.5981 z
M 843.437,-47.7449 L 842.626,-47.9485 L 825.418,-54.2435 L 824.441,-54.7639 L 823.819,-55.3235 L 823.328,-56
 L 822.988,-56.7639 L 822.814,-57.5819 L 822.814,-58.4181 L 822.988,-59.2361 L 823.328,-60 L 823.819,-60.6765
 L 824.441,-61.2361 L 825.165,-61.6542 L 825.96,-61.9126 L 826.792,-62 L 861.208,-62 L 862.304,-61.8468
 L 863.08,-61.5348 L 863.774,-61.0683 L 864.356,-60.4678 L 864.801,-59.7593 L 865.088,-58.974 L 865.206,-58.1461
 L 865.149,-57.3118 L 864.919,-56.5076 L 864.528,-55.7686 L 863.991,-55.1272 L 863.333,-54.6113 L 862.582,-54.2435
 L 845.374,-47.9485 L 844.273,-47.7144 z
M 737.492,-20.6286 L 736.681,-20.8322 L 645.346,-54.2435 L 644.37,-54.7639 L 643.748,-55.3235 L 643.257,-56
 L 642.916,-56.7639 L 642.743,-57.5819 L 642.743,-58.4181 L 642.916,-59.2361 L 643.257,-60 L 643.748,-60.6765
 L 644.37,-61.2361 L 645.094,-61.6542 L 645.889,-61.9126 L 646.721,-62 L 738.056,-62 L 739.292,-61.8042
 L 740.056,-61.4641 L 740.732,-60.9726 L 741.292,-60.3511 L 741.71,-59.627 L 741.968,-58.8316 L 742.056,-58
 L 742.056,-24.5888 L 741.935,-23.6148 L 741.648,-22.8295 L 741.204,-22.121 L 740.622,-21.5204 L 739.928,-21.054
 L 739.152,-20.742 L 738.328,-20.5981 z
M 551.604,-20.6286 L 550.792,-20.8322 L 459.458,-54.2435 L 458.481,-54.7639 L 457.859,-55.3235 L 457.368,-56
 L 457.028,-56.7639 L 456.854,-57.5819 L 456.854,-58.4181 L 457.028,-59.2361 L 457.368,-60 L 457.859,-60.6765
 L 458.481,-61.2361 L 459.205,-61.6542 L 460,-61.9126 L 460.832,-62 L 552.167,-62 L 553.403,-61.8042
 L 554.167,-61.4641 L 554.843,-60.9726 L 555.403,-60.3511 L 555.821,-59.627 L 556.079,-58.8316 L 556.167,-58
 L 556.167,-24.5888 L 556.046,-23.6148 L 555.759,-22.8295 L 555.315,-22.121 L 554.733,-21.5204 L 554.039,-21.054
 L 553.263,-20.742 L 552.439,-20.5981 z
M 365.715,-20.6286 L 364.904,-20.8322 L 273.569,-54.2435 L 272.592,-54.7639 L 271.97,-55.3235 L 271.479,-56
 L 271.139,-56.7639 L 270.965,-57.5819 L 270.965,-58.4181 L 271.139,-59.2361 L 271.479,-60 L 271.97,-60.6765
 L 272.592,-61.2361 L 273.316,-61.6542 L 274.111,-61.9126 L 274.943,-62 L 366.278,-62 L 367.514,-61.8042
 L 368.278,-61.4641 L 368.954,-60.9726 L 369.514,-60.3511 L 369.932,-59.627 L 370.19,-58.8316 L 370.278,-58
 L 370.278,-24.5888 L 370.157,-23.6148 L 369.87,-22.8295 L 369.426,-22.121 L 368.844,-21.5204 L 368.15,-21.054
 L 367.374,-20.742 L 366.55,-20.5981 z
M 1506.51,-20.742 L 1505.74,-21.054 L 1505.04,-21.5204 L 1504.46,-22.121 L 1504.02,-22.8295 L 1503.73,-23.6148
 L 1503.61,-24.5888 L 1503.61,-58 L 1503.7,-58.8316 L 1503.96,-59.627 L 1504.38,-60.3511 L 1504.93,-60.9726
 L 1505.61,-61.4641 L 1506.38,-61.8042 L 1507.61,-62 L 1598.95,-62 L 1599.78,-61.9126 L 1600.57,-61.6542
 L 1601.3,-61.2361 L 1601.92,-60.6765 L 1602.41,-60 L 1602.75,-59.2361 L 1602.92,-58.4181 L 1602.92,-57.5819
 L 1602.75,-56.7639 L 1602.41,-56 L 1601.92,-55.3235 L 1601.3,-54.7639 L 1600.32,-54.2435 L 1508.99,-20.8322
 L 1508.17,-20.6286 L 1507.34,-20.5981 z
M 179.826,-20.6286 L 179.015,-20.8322 L 87.6798,-54.2435 L 86.7029,-54.7639 L 86.0814,-55.3235 L 85.5899,-56
 L 85.2498,-56.7639 L 85.0759,-57.5819 L 85.0759,-58.4181 L 85.2498,-59.2361 L 85.5899,-60 L 86.0814,-60.6765
 L 86.7029,-61.2361 L 87.427,-61.6542 L 88.2223,-61.9126 L 89.054,-62 L 180.389,-62 L 181.625,-61.8042
 L 182.389,-61.4641 L 183.065,-60.9726 L 183.625,-60.3511 L 184.043,-59.627 L 184.301,-58.8316 L 184.389,-58
 L 184.389,-24.5888 L 184.268,-23.6148 L 183.981,-22.8295 L 183.537,-22.121 L 182.955,-21.5204 L 182.261,-21.054
 L 181.485,-20.742 L 180.661,-20.5981 z
M 1320.63,-20.742 L 1319.85,-21.054 L 1319.16,-21.5204 L 1318.57,-22.121 L 1318.13,-22.8295 L 1317.84,-23.6148
 L 1317.72,-24.5888 L 1317.72,-58 L 1317.81,-58.8316 L 1318.07,-59.627 L 1318.49,-60.3511 L 1319.05,-60.9726
 L 1319.72,-61.4641 L 1320.49,-61.8042 L 1321.72,-62 L 1413.06,-62 L 1413.89,-61.9126 L 1414.68,-61.6542
 L 1415.41,-61.2361 L 1416.03,-60.6765 L 1416.52,-60 L 1416.86,-59.2361 L 1417.04,-58.4181 L 1417.04,-57.5819
 L 1416.86,-56.7639 L 1416.52,-56 L 1416.03,-55.3235 L 1415.41,-54.7639 L 1414.43,-54.2435 L 1323.1,-20.8322
 L 1322.29,-20.6286 L 1321.45,-20.5981 z
M 763.637,-18.4825 L 762.819,-18.6564 L 762.056,-18.9965 L 761.379,-19.488 L 760.819,-20.1095 L 760.401,-20.8336
 L 760.143,-21.629 L 760.056,-22.4606 L 760.056,-57.5394 L 760.176,-58.5134 L 760.463,-59.2987 L 760.908,-60.0072
 L 761.489,-60.6077 L 762.183,-61.0742 L 762.959,-61.3862 L 763.783,-61.5301 L 764.619,-61.4996 L 765.43,-61.2959
 L 813.376,-43.7565 L 813.874,-43.5348 L 814.568,-43.0683 L 815.15,-42.4678 L 815.595,-41.7593 L 815.882,-40.974
 L 816,-40.1461 L 815.943,-39.3118 L 815.713,-38.5076 L 815.322,-37.7686 L 814.786,-37.1272 L 814.127,-36.6113
 L 813.376,-36.2435 L 765.43,-18.7041 L 764.474,-18.4825 z
M 923.381,-18.5004 L 922.57,-18.704 L 874.623,-36.2435 L 874.126,-36.4652 L 873.431,-36.9317 L 872.85,-37.5322
 L 872.405,-38.2407 L 872.118,-39.026 L 872,-39.8539 L 872.057,-40.6882 L 872.286,-41.4924 L 872.678,-42.2314
 L 873.214,-42.8728 L 873.872,-43.3887 L 874.623,-43.7565 L 922.57,-61.296 L 923.526,-61.5175 L 924.363,-61.5175
 L 925.18,-61.3436 L 925.944,-61.0035 L 926.621,-60.512 L 927.18,-59.8905 L 927.599,-59.1664 L 927.857,-58.3711
 L 927.944,-57.5394 L 927.944,-22.4606 L 927.824,-21.4866 L 927.537,-20.7013 L 927.092,-19.9928 L 926.511,-19.3922
 L 925.817,-18.9258 L 925.041,-18.6138 L 924.217,-18.4699 z
M 206.389,-18 L 205.153,-18.1958 L 204.389,-18.5359 L 203.712,-19.0274 L 203.153,-19.6489 L 202.735,-20.373
 L 202.476,-21.1684 L 202.389,-22 L 202.389,-55.4112 L 202.509,-56.3852 L 202.797,-57.1705 L 203.241,-57.879
 L 203.823,-58.4795 L 204.517,-58.946 L 205.293,-59.258 L 206.116,-59.4019 L 206.952,-59.3714 L 207.763,-59.1677
 L 299.098,-25.7565 L 300.075,-25.2361 L 300.696,-24.6765 L 301.188,-24 L 301.528,-23.2361 L 301.702,-22.4181
 L 301.702,-21.5819 L 301.528,-20.7639 L 301.188,-20 L 300.696,-19.3235 L 300.075,-18.7639 L 299.351,-18.3458
 L 298.555,-18.0874 L 297.724,-18 z
M 392.278,-18 L 391.042,-18.1958 L 390.278,-18.5359 L 389.601,-19.0274 L 389.042,-19.6489 L 388.624,-20.373
 L 388.365,-21.1684 L 388.278,-22 L 388.278,-55.4112 L 388.398,-56.3852 L 388.685,-57.1705 L 389.13,-57.879
 L 389.712,-58.4795 L 390.406,-58.946 L 391.181,-59.258 L 392.005,-59.4019 L 392.841,-59.3714 L 393.652,-59.1677
 L 484.987,-25.7565 L 485.964,-25.2361 L 486.585,-24.6765 L 487.077,-24 L 487.417,-23.2361 L 487.591,-22.4181
 L 487.591,-21.5819 L 487.417,-20.7639 L 487.077,-20 L 486.585,-19.3235 L 485.964,-18.7639 L 485.24,-18.3458
 L 484.444,-18.0874 L 483.613,-18 z
M 578.167,-18 L 576.931,-18.1958 L 576.167,-18.5359 L 575.49,-19.0274 L 574.931,-19.6489 L 574.512,-20.373
 L 574.254,-21.1684 L 574.167,-22 L 574.167,-55.4112 L 574.287,-56.3852 L 574.574,-57.1705 L 575.019,-57.879
 L 575.6,-58.4795 L 576.295,-58.946 L 577.07,-59.258 L 577.894,-59.4019 L 578.73,-59.3714 L 579.541,-59.1677
 L 670.876,-25.7565 L 671.853,-25.2361 L 672.474,-24.6765 L 672.966,-24 L 673.306,-23.2361 L 673.48,-22.4181
 L 673.48,-21.5819 L 673.306,-20.7639 L 672.966,-20 L 672.474,-19.3235 L 671.853,-18.7639 L 671.128,-18.3458
 L 670.333,-18.0874 L 669.502,-18 z
M 1018.5,-18 L 1017.67,-18.0874 L 1016.87,-18.3458 L 1016.15,-18.7639 L 1015.53,-19.3235 L 1015.03,-20
 L 1014.69,-20.7639 L 1014.52,-21.5819 L 1014.52,-22.4181 L 1014.69,-23.2361 L 1015.03,-24 L 1015.53,-24.6765
 L 1016.15,-25.2361 L 1017.12,-25.7565 L 1108.46,-59.1677 L 1109.27,-59.3714 L 1110.11,-59.4019 L 1110.93,-59.258
 L 1111.71,-58.946 L 1112.4,-58.4795 L 1112.98,-57.879 L 1113.43,-57.1705 L 1113.71,-56.3852 L 1113.83,-55.4112
 L 1113.83,-22 L 1113.75,-21.1684 L 1113.49,-20.373 L 1113.07,-19.6489 L 1112.51,-19.0274 L 1111.83,-18.5359
 L 1111.07,-18.1958 L 1109.83,-18 z
M 1204.39,-18 L 1203.56,-18.0874 L 1202.76,-18.3458 L 1202.04,-18.7639 L 1201.41,-19.3235 L 1200.92,-20
 L 1200.58,-20.7639 L 1200.41,-21.5819 L 1200.41,-22.4181 L 1200.58,-23.2361 L 1200.92,-24 L 1201.41,-24.6765
 L 1202.04,-25.2361 L 1203.01,-25.7565 L 1294.35,-59.1677 L 1295.16,-59.3714 L 1295.99,-59.4019 L 1296.82,-59.258
 L 1297.59,-58.946 L 1298.29,-58.4795 L 1298.87,-57.879 L 1299.31,-57.1705 L 1299.6,-56.3852 L 1299.72,-55.4112
 L 1299.72,-22 L 1299.63,-21.1684 L 1299.38,-20.373 L 1298.96,-19.6489 L 1298.4,-19.0274 L 1297.72,-18.5359
 L 1296.96,-18.1958 L 1295.72,-18 z
M 1390.28,-18 L 1389.44,-18.0874 L 1388.65,-18.3458 L 1387.93,-18.7639 L 1387.3,-19.3235 L 1386.81,-20
 L 1386.47,-20.7639 L 1386.3,-21.5819 L 1386.3,-22.4181 L 1386.47,-23.2361 L 1386.81,-24 L 1387.3,-24.6765
 L 1387.93,-25.2361 L 1388.9,-25.7565 L 1480.24,-59.1677 L 1481.05,-59.3714 L 1481.88,-59.4019 L 1482.71,-59.258
 L 1483.48,-58.946 L 1484.18,-58.4795 L 1484.76,-57.879 L 1485.2,-57.1705 L 1485.49,-56.3852 L 1485.61,-55.4112
 L 1485.61,-22 L 1485.52,-21.1684 L 1485.27,-20.373 L 1484.85,-19.6489 L 1484.29,-19.0274 L 1483.61,-18.5359
 L 1482.85,-18.1958 L 1481.61,-18 z
M 22,-18 L 20.7639,-18.1958 L 20,-18.5359 L 19.3235,-19.0274 L 18.7639,-19.6489 L 18.3458,-20.373
 L 18.0874,-21.1684 L 18,-22 L 18,-54.8625 L 18.1204,-55.8365 L 18.4077,-56.6218 L 18.852,-57.3302
 L 19.4338,-57.9308 L 20.1279,-58.3973 L 20.9037,-58.7093 L 21.7274,-58.8532 L 22.5631,-58.8226 L 23.3742,-58.619
 L 113.209,-25.7565 L 114.186,-25.2361 L 114.807,-24.6765 L 115.299,-24 L 115.639,-23.2361 L 115.813,-22.4181
 L 115.813,-21.5819 L 115.639,-20.7639 L 115.299,-20 L 114.807,-19.3235 L 114.186,-18.7639 L 113.462,-18.3458
 L 112.667,-18.0874 L 111.835,-18 z
M 1576.17,-18 L 1575.33,-18.0874 L 1574.54,-18.3458 L 1573.81,-18.7639 L 1573.19,-19.3235 L 1572.7,-20
 L 1572.36,-20.7639 L 1572.19,-21.5819 L 1572.19,-22.4181 L 1572.36,-23.2361 L 1572.7,-24 L 1573.19,-24.6765
 L 1573.81,-25.2361 L 1574.79,-25.7565 L 1664.63,-58.619 L 1665.44,-58.8226 L 1666.27,-58.8532 L 1667.1,-58.7093
 L 1667.87,-58.3973 L 1668.57,-57.9308 L 1669.15,-57.3302 L 1669.59,-56.6218 L 1669.88,-55.8365 L 1670,-54.8625
 L 1670,-22 L 1669.91,-21.1684 L 1669.65,-20.373 L 1669.24,-19.6489 L 1668.68,-19.0274 L 1668,-18.5359
 L 1667.24,-18.1958 L 1666,-18 z
M 826.792,-18 L 825.695,-18.1532 L 824.92,-18.4652 L 824.226,-18.9317 L 823.644,-19.5322 L 823.199,-20.2407
 L 822.912,-21.026 L 822.794,-21.8539 L 822.851,-22.6882 L 823.081,-23.4924 L 823.472,-24.2314 L 824.008,-24.8728
 L 824.667,-25.3887 L 825.418,-25.7565 L 842.626,-32.0515 L 843.727,-32.2856 L 844.563,-32.2551 L 845.374,-32.0515
 L 862.582,-25.7565 L 863.559,-25.2361 L 864.181,-24.6765 L 864.672,-24 L 865.012,-23.2361 L 865.186,-22.4181
 L 865.186,-21.5819 L 865.012,-20.7639 L 864.672,-20 L 864.181,-19.3235 L 863.559,-18.7639 L 862.835,-18.3458
 L 862.04,-18.0874 L 861.208,-18 z
" stroke="black" fill="lightgray" stroke-width="0.5"/>
</svg>
