<?xml version="1.0" standalone="no"?>
<!DOCTYPE svg PUBLIC "-//W3C//DTD SVG 1.1//EN" "http://www.w3.org/Graphics/SVG/1.1/DTD/svg11.dtd">
<svg width="1295mm" height="80mm" viewBox="0 -80 1295 80" xmlns="http://www.w3.org/2000/svg" version="1.1">
<title>OpenSCAD Model</title>
<path d="
M 1295,-80 L 0,-80 L 0,-0 L 4.95,-0 L 4.95,-6 L 5.00572,-6.53017
 L 5.17046,-7.03717 L 5.437,-7.49884 L 5.79372,-7.895 L 6.22499,-8.20836 L 6.71201,-8.42519 L 7.23344,-8.53603
 L 7.76654,-8.53603 L 8.28798,-8.42519 L 8.77499,-8.20836 L 9.20627,-7.895 L 9.56299,-7.49884 L 9.82953,-7.03717
 L 9.99426,-6.53017 L 10.05,-6 L 10.05,-0 L 187.807,-0 L 187.807,-6 L 187.863,-6.53017
 L 188.028,-7.03717 L 188.294,-7.49884 L 188.651,-7.895 L 189.082,-8.20836 L 189.569,-8.42519 L 190.091,-8.53603
 L 190.624,-8.53603 L 191.145,-8.42519 L 191.632,-8.20836 L 192.063,-7.895 L 192.42,-7.49884 L 192.687,-7.03717
 L 192.851,-6.53017 L 192.907,-6 L 192.907,-0 L 370.664,-0 L 370.664,-6 L 370.72,-6.53017
 L 370.885,-7.03717 L 371.151,-7.49884 L 371.508,-7.895 L 371.939,-8.20836 L 372.426,-8.42519 L 372.948,-8.53603
 L 373.481,-8.53603 L 374.002,-8.42519 L 374.489,-8.20836 L 374.921,-7.895 L 375.277,-7.49884 L 375.544,-7.03717
 L 375.709,-6.53017 L 375.764,-6 L 375.764,-0 L 553.521,-0 L 553.521,-6 L 553.577,-6.53017
 L 553.742,-7.03717 L 554.008,-7.49884 L 554.365,-7.895 L 554.796,-8.20836 L 555.283,-8.42519 L 555.805,-8.53603
 L 556.338,-8.53603 L 556.859,-8.42519 L 557.346,-8.20836 L 557.778,-7.895 L 558.134,-7.49884 L 558.401,-7.03717
 L 558.566,-6.53017 L 558.621,-6 L 558.621,-0 L 736.379,-0 L 736.379,-6 L 736.434,-6.53017
 L 736.599,-7.03717 L 736.866,-7.49884 L 737.222,-7.895 L 737.654,-8.20836 L 738.141,-8.42519 L 738.662,-8.53603
 L 739.195,-8.53603 L 739.717,-8.42519 L 740.204,-8.20836 L 740.635,-7.895 L 740.992,-7.49884 L 741.258,-7.03717
 L 741.423,-6.53017 L 741.479,-6 L 741.479,-0 L 919.236,-0 L 919.236,-6 L 919.291,-6.53017
 L 919.456,-7.03717 L 919.723,-7.49884 L 920.079,-7.895 L 920.511,-8.20836 L 920.998,-8.42519 L 921.519,-8.53603
 L 922.052,-8.53603 L 922.574,-8.42519 L 923.061,-8.20836 L 923.492,-7.895 L 923.849,-7.49884 L 924.115,-7.03717
 L 924.28,-6.53017 L 924.336,-6 L 924.336,-0 L 1102.09,-0 L 1102.09,-6 L 1102.15,-6.53017
 L 1102.31,-7.03717 L 1102.58,-7.49884 L 1102.94,-7.895 L 1103.37,-8.20836 L 1103.85,-8.42519 L 1104.38,-8.53603
 L 1104.91,-8.53603 L 1105.43,-8.42519 L 1105.92,-8.20836 L 1106.35,-7.895 L 1106.71,-7.49884 L 1106.97,-7.03717
 L 1107.14,-6.53017 L 1107.19,-6 L 1107.19,-0 L 1284.95,-0 L 1284.95,-6 L 1285.01,-6.53017
 L 1285.17,-7.03717 L 1285.44,-7.49884 L 1285.79,-7.895 L 1286.22,-8.20836 L 1286.71,-8.42519 L 1287.23,-8.53603
 L 1287.77,-8.53603 L 1288.29,-8.42519 L 1288.77,-8.20836 L 1289.21,-7.895 L 1289.56,-7.49884 L 1289.83,-7.03717
 L 1289.99,-6.53017 L 1290.05,-6 L 1290.05,-0 L 1295,-0 z
M 6.98573,-55.607 L 6.47708,-55.6875 L 5.97964,-55.8208 L 5.49887,-56.0054 L 5.04001,-56.2392 L 4.60811,-56.5196
 L 4.20789,-56.8437 L 3.84373,-57.2079 L 3.51964,-57.6081 L 3.23917,-58.04 L 3.00537,-58.4989 L 2.82082,-58.9796
 L 2.68752,-59.4771 L 2.60696,-59.9857 L 2.58,-60.5 L 2.60696,-61.0143 L 2.68752,-61.5229 L 2.82082,-62.0204
 L 3.00537,-62.5011 L 3.23917,-62.96 L 3.51964,-63.3919 L 3.84373,-63.7921 L 4.20789,-64.1563 L 4.60811,-64.4804
 L 4.95001,-64.7024 L 4.95001,-74 L 5.00574,-74.5302 L 5.17047,-75.0372 L 5.43701,-75.4988 L 5.79373,-75.895
 L 6.22501,-76.2084 L 6.71202,-76.4252 L 7.23346,-76.536 L 7.76654,-76.536 L 8.28798,-76.4252 L 8.77499,-76.2084
 L 9.20627,-75.895 L 9.56299,-75.4988 L 9.82953,-75.0372 L 9.99426,-74.5302 L 10.05,-74 L 10.05,-64.7024
 L 10.3919,-64.4804 L 10.7921,-64.1563 L 11.1563,-63.7921 L 11.4804,-63.3919 L 11.7608,-62.96 L 11.9946,-62.5011
 L 12.1792,-62.0204 L 12.3125,-61.5229 L 12.393,-61.0143 L 12.42,-60.5 L 12.393,-59.9857 L 12.3125,-59.4771
 L 12.1792,-58.9796 L 11.9946,-58.4989 L 11.7608,-58.04 L 11.4804,-57.6081 L 11.1563,-57.2079 L 10.7921,-56.8437
 L 10.3919,-56.5196 L 9.95999,-56.2392 L 9.50113,-56.0054 L 9.02036,-55.8208 L 8.52292,-55.6875 L 8.01427,-55.607
 L 7.5,-55.58 z
M 189.843,-55.607 L 189.334,-55.6875 L 188.837,-55.8208 L 188.356,-56.0054 L 187.897,-56.2392 L 187.465,-56.5196
 L 187.065,-56.8437 L 186.701,-57.2079 L 186.377,-57.6081 L 186.096,-58.04 L 185.863,-58.4989 L 185.678,-58.9796
 L 185.545,-59.4771 L 185.464,-59.9857 L 185.437,-60.5 L 185.464,-61.0143 L 185.545,-61.5229 L 185.678,-62.0204
 L 185.863,-62.5011 L 186.096,-62.96 L 186.377,-63.3919 L 186.701,-63.7921 L 187.065,-64.1563 L 187.465,-64.4804
 L 187.807,-64.7024 L 187.807,-74 L 187.863,-74.5302 L 188.028,-75.0372 L 188.294,-75.4988 L 188.651,-75.895
 L 189.082,-76.2084 L 189.569,-76.4252 L 190.091,-76.536 L 190.624,-76.536 L 191.145,-76.4252 L 191.632,-76.2084
 L 192.063,-75.895 L 192.42,-75.4988 L 192.687,-75.0372 L 192.851,-74.5302 L 192.907,-74 L 192.907,-64.7024
 L 193.249,-64.4804 L 193.649,-64.1563 L 194.013,-63.7921 L 194.337,-63.3919 L 194.618,-62.96 L 194.852,-62.5011
 L 195.036,-62.0204 L 195.17,-61.5229 L 195.25,-61.0143 L 195.277,-60.5 L 195.25,-59.9857 L 195.17,-59.4771
 L 195.036,-58.9796 L 194.852,-58.4989 L 194.618,-58.04 L 194.337,-57.6081 L 194.013,-57.2079 L 193.649,-56.8437
 L 193.249,-56.5196 L 192.817,-56.2392 L 192.358,-56.0054 L 191.877,-55.8208 L 191.38,-55.6875 L 190.871,-55.607
 L 190.357,-55.58 z
M 372.7,-55.607 L 372.191,-55.6875 L 371.694,-55.8208 L 371.213,-56.0054 L 370.754,-56.2392 L 370.322,-56.5196
 L 369.922,-56.8437 L 369.558,-57.2079 L 369.234,-57.6081 L 368.953,-58.04 L 368.72,-58.4989 L 368.535,-58.9796
 L 368.402,-59.4771 L 368.321,-59.9857 L 368.294,-60.5 L 368.321,-61.0143 L 368.402,-61.5229 L 368.535,-62.0204
 L 368.72,-62.5011 L 368.953,-62.96 L 369.234,-63.3919 L 369.558,-63.7921 L 369.922,-64.1563 L 370.322,-64.4804
 L 370.664,-64.7024 L 370.664,-74 L 370.72,-74.5302 L 370.885,-75.0372 L 371.151,-75.4988 L 371.508,-75.895
 L 371.939,-76.2084 L 372.426,-76.4252 L 372.948,-76.536 L 373.481,-76.536 L 374.002,-76.4252 L 374.489,-76.2084
 L 374.921,-75.895 L 375.277,-75.4988 L 375.544,-75.0372 L 375.709,-74.5302 L 375.764,-74 L 375.764,-64.7024
 L 376.106,-64.4804 L 376.506,-64.1563 L 376.871,-63.7921 L 377.195,-63.3919 L 377.475,-62.96 L 377.709,-62.5011
 L 377.893,-62.0204 L 378.027,-61.5229 L 378.107,-61.0143 L 378.134,-60.5 L 378.107,-59.9857 L 378.027,-59.4771
 L 377.893,-58.9796 L 377.709,-58.4989 L 377.475,-58.04 L 377.195,-57.6081 L 376.871,-57.2079 L 376.506,-56.8437
 L 376.106,-56.5196 L 375.674,-56.2392 L 375.215,-56.0054 L 374.735,-55.8208 L 374.237,-55.6875 L 373.729,-55.607
 L 373.214,-55.58 z
M 555.557,-55.607 L 555.049,-55.6875 L 554.551,-55.8208 L 554.07,-56.0054 L 553.611,-56.2392 L 553.18,-56.5196
 L 552.779,-56.8437 L 552.415,-57.2079 L 552.091,-57.6081 L 551.811,-58.04 L 551.577,-58.4989 L 551.392,-58.9796
 L 551.259,-59.4771 L 551.178,-59.9857 L 551.151,-60.5 L 551.178,-61.0143 L 551.259,-61.5229 L 551.392,-62.0204
 L 551.577,-62.5011 L 551.811,-62.96 L 552.091,-63.3919 L 552.415,-63.7921 L 552.779,-64.1563 L 553.18,-64.4804
 L 553.521,-64.7024 L 553.521,-74 L 553.577,-74.5302 L 553.742,-75.0372 L 554.008,-75.4988 L 554.365,-75.895
 L 554.796,-76.2084 L 555.283,-76.4252 L 555.805,-76.536 L 556.338,-76.536 L 556.859,-76.4252 L 557.346,-76.2084
 L 557.778,-75.895 L 558.134,-75.4988 L 558.401,-75.0372 L 558.566,-74.5302 L 558.621,-74 L 558.621,-64.7024
 L 558.963,-64.4804 L 559.364,-64.1563 L 559.728,-63.7921 L 560.052,-63.3919 L 560.332,-62.96 L 560.566,-62.5011
 L 560.751,-62.0204 L 560.884,-61.5229 L 560.964,-61.0143 L 560.991,-60.5 L 560.964,-59.9857 L 560.884,-59.4771
 L 560.751,-58.9796 L 560.566,-58.4989 L 560.332,-58.04 L 560.052,-57.6081 L 559.728,-57.2079 L 559.364,-56.8437
 L 558.963,-56.5196 L 558.531,-56.2392 L 558.073,-56.0054 L 557.592,-55.8208 L 557.094,-55.6875 L 556.586,-55.607
 L 556.071,-55.58 z
M 738.414,-55.607 L 737.906,-55.6875 L 737.408,-55.8208 L 736.927,-56.0054 L 736.469,-56.2392 L 736.037,-56.5196
 L 735.636,-56.8437 L 735.272,-57.2079 L 734.948,-57.6081 L 734.668,-58.04 L 734.434,-58.4989 L 734.249,-58.9796
 L 734.116,-59.4771 L 734.036,-59.9857 L 734.009,-60.5 L 734.036,-61.0143 L 734.116,-61.5229 L 734.249,-62.0204
 L 734.434,-62.5011 L 734.668,-62.96 L 734.948,-63.3919 L 735.272,-63.7921 L 735.636,-64.1563 L 736.037,-64.4804
 L 736.379,-64.7024 L 736.379,-74 L 736.434,-74.5302 L 736.599,-75.0372 L 736.866,-75.4988 L 737.222,-75.895
 L 737.654,-76.2084 L 738.141,-76.4252 L 738.662,-76.536 L 739.195,-76.536 L 739.717,-76.4252 L 740.204,-76.2084
 L 740.635,-75.895 L 740.992,-75.4988 L 741.258,-75.0372 L 741.423,-74.5302 L 741.479,-74 L 741.479,-64.7024
 L 741.82,-64.4804 L 742.221,-64.1563 L 742.585,-63.7921 L 742.909,-63.3919 L 743.189,-62.96 L 743.423,-62.5011
 L 743.608,-62.0204 L 743.741,-61.5229 L 743.822,-61.0143 L 743.849,-60.5 L 743.822,-59.9857 L 743.741,-59.4771
 L 743.608,-58.9796 L 743.423,-58.4989 L 743.189,-58.04 L 742.909,-57.6081 L 742.585,-57.2079 L 742.221,-56.8437
 L 741.82,-56.5196 L 741.389,-56.2392 L 740.93,-56.0054 L 740.449,-55.8208 L 739.951,-55.6875 L 739.443,-55.607
 L 738.929,-55.58 z
M 921.271,-55.607 L 920.763,-55.6875 L 920.265,-55.8208 L 919.785,-56.0054 L 919.326,-56.2392 L 918.894,-56.5196
 L 918.494,-56.8437 L 918.129,-57.2079 L 917.805,-57.6081 L 917.525,-58.04 L 917.291,-58.4989 L 917.107,-58.9796
 L 916.973,-59.4771 L 916.893,-59.9857 L 916.866,-60.5 L 916.893,-61.0143 L 916.973,-61.5229 L 917.107,-62.0204
 L 917.291,-62.5011 L 917.525,-62.96 L 917.805,-63.3919 L 918.129,-63.7921 L 918.494,-64.1563 L 918.894,-64.4804
 L 919.236,-64.7024 L 919.236,-74 L 919.291,-74.5302 L 919.456,-75.0372 L 919.723,-75.4988 L 920.079,-75.895
 L 920.511,-76.2084 L 920.998,-76.4252 L 921.519,-76.536 L 922.052,-76.536 L 922.574,-76.4252 L 923.061,-76.2084
 L 923.492,-75.895 L 923.849,-75.4988 L 924.115,-75.0372 L 924.28,-74.5302 L 924.336,-74 L 924.336,-64.7024
 L 924.678,-64.4804 L 925.078,-64.1563 L 925.442,-63.7921 L 925.766,-63.3919 L 926.047,-62.96 L 926.28,-62.5011
 L 926.465,-62.0204 L 926.598,-61.5229 L 926.679,-61.0143 L 926.706,-60.5 L 926.679,-59.9857 L 926.598,-59.4771
 L 926.465,-58.9796 L 926.28,-58.4989 L 926.047,-58.04 L 925.766,-57.6081 L 925.442,-57.2079 L 925.078,-56.8437
 L 924.678,-56.5196 L 924.246,-56.2392 L 923.787,-56.0054 L 923.306,-55.8208 L 922.809,-55.6875 L 922.3,-55.607
 L 921.786,-55.58 z
M 1104.13,-55.607 L 1103.62,-55.6875 L 1103.12,-55.8208 L 1102.64,-56.0054 L 1102.18,-56.2392 L 1101.75,-56.5196
 L 1101.35,-56.8437 L 1100.99,-57.2079 L 1100.66,-57.6081 L 1100.38,-58.04 L 1100.15,-58.4989 L 1099.96,-58.9796
 L 1099.83,-59.4771 L 1099.75,-59.9857 L 1099.72,-60.5 L 1099.75,-61.0143 L 1099.83,-61.5229 L 1099.96,-62.0204
 L 1100.15,-62.5011 L 1100.38,-62.96 L 1100.66,-63.3919 L 1100.99,-63.7921 L 1101.35,-64.1563 L 1101.75,-64.4804
 L 1102.09,-64.7024 L 1102.09,-74 L 1102.15,-74.5302 L 1102.31,-75.0372 L 1102.58,-75.4988 L 1102.94,-75.895
 L 1103.37,-76.2084 L 1103.85,-76.4252 L 1104.38,-76.536 L 1104.91,-76.536 L 1105.43,-76.4252 L 1105.92,-76.2084
 L 1106.35,-75.895 L 1106.71,-75.4988 L 1106.97,-75.0372 L 1107.14,-74.5302 L 1107.19,-74 L 1107.19,-64.7024
 L 1107.53,-64.4804 L 1107.93,-64.1563 L 1108.3,-63.7921 L 1108.62,-63.3919 L 1108.9,-62.96 L 1109.14,-62.5011
 L 1109.32,-62.0204 L 1109.46,-61.5229 L 1109.54,-61.0143 L 1109.56,-60.5 L 1109.54,-59.9857 L 1109.46,-59.4771
 L 1109.32,-58.9796 L 1109.14,-58.4989 L 1108.9,-58.04 L 1108.62,-57.6081 L 1108.3,-57.2079 L 1107.93,-56.8437
 L 1107.53,-56.5196 L 1107.1,-56.2392 L 1106.64,-56.0054 L 1106.16,-55.8208 L 1105.67,-55.6875 L 1105.16,-55.607
 L 1104.64,-55.58 z
M 1286.99,-55.607 L 1286.48,-55.6875 L 1285.98,-55.8208 L 1285.5,-56.0054 L 1285.04,-56.2392 L 1284.61,-56.5196
 L 1284.21,-56.8437 L 1283.84,-57.2079 L 1283.52,-57.6081 L 1283.24,-58.04 L 1283.01,-58.4989 L 1282.82,-58.9796
 L 1282.69,-59.4771 L 1282.61,-59.9857 L 1282.58,-60.5 L 1282.61,-61.0143 L 1282.69,-61.5229 L 1282.82,-62.0204
 L 1283.01,-62.5011 L 1283.24,-62.96 L 1283.52,-63.3919 L 1283.84,-63.7921 L 1284.21,-64.1563 L 1284.61,-64.4804
 L 1284.95,-64.7024 L 1284.95,-74 L 1285.01,-74.5302 L 1285.17,-75.0372 L 1285.44,-75.4988 L 1285.79,-75.895
 L 1286.23,-76.2084 L 1286.71,-76.4252 L 1287.23,-76.536 L 1287.77,-76.536 L 1288.29,-76.4252 L 1288.77,-76.2084
 L 1289.21,-75.895 L 1289.56,-75.4988 L 1289.83,-75.0372 L 1289.99,-74.5302 L 1290.05,-74 L 1290.05,-64.7024
 L 1290.39,-64.4804 L 1290.79,-64.1563 L 1291.16,-63.7921 L 1291.48,-63.3919 L 1291.76,-62.96 L 1291.99,-62.5011
 L 1292.18,-62.0204 L 1292.31,-61.5229 L 1292.39,-61.0143 L 1292.42,-60.5 L 1292.39,-59.9857 L 1292.31,-59.4771
 L 1292.18,-58.9796 L 1291.99,-58.4989 L 1291.76,-58.04 L 1291.48,-57.6081 L 1291.16,-57.2079 L 1290.79,-56.8437
 L 1290.39,-56.5196 L 1289.96,-56.2392 L 1289.5,-56.0054 L 1289.02,-55.8208 L 1288.52,-55.6875 L 1288.01,-55.607
 L 1287.5,-55.58 z
M 750.853,-20.8394 L 750.075,-21.1472 L 749.379,-21.61 L 748.794,-22.2075 L 748.346,-22.9135 L 748.054,-23.6973
 L 747.929,-24.692 L 747.929,-58 L 748.016,-58.8316 L 748.274,-59.627 L 748.693,-60.3511 L 749.252,-60.9726
 L 749.929,-61.4641 L 750.693,-61.8042 L 751.929,-62 L 841.496,-62 L 842.328,-61.9126 L 843.123,-61.6542
 L 843.847,-61.2361 L 844.469,-60.6765 L 844.96,-60 L 845.301,-59.2361 L 845.474,-58.4181 L 845.474,-57.5819
 L 845.301,-56.7639 L 844.96,-56 L 844.469,-55.3235 L 843.847,-54.7639 L 842.891,-54.2508 L 753.323,-20.9428
 L 752.513,-20.7349 L 751.677,-20.6999 z
M 646.916,-47.7686 L 646.106,-47.9765 L 629.234,-54.2508 L 628.277,-54.7639 L 627.655,-55.3235 L 627.164,-56
 L 626.824,-56.7639 L 626.65,-57.5819 L 626.65,-58.4181 L 626.824,-59.2361 L 627.164,-60 L 627.655,-60.6765
 L 628.277,-61.2361 L 629.001,-61.6542 L 629.796,-61.9126 L 630.628,-62 L 664.372,-62 L 665.448,-61.8526
 L 666.225,-61.5448 L 666.922,-61.082 L 667.507,-60.4845 L 667.955,-59.7785 L 668.246,-58.9947 L 668.369,-58.1674
 L 668.316,-57.3329 L 668.091,-56.5274 L 667.704,-55.7864 L 667.171,-55.1421 L 666.515,-54.6227 L 665.766,-54.2508
 L 648.894,-47.9765 L 647.751,-47.7336 z
M 542.487,-20.7349 L 541.677,-20.9428 L 452.109,-54.2508 L 451.153,-54.7639 L 450.531,-55.3235 L 450.04,-56
 L 449.699,-56.7639 L 449.526,-57.5819 L 449.526,-58.4181 L 449.699,-59.2361 L 450.04,-60 L 450.531,-60.6765
 L 451.153,-61.2361 L 451.877,-61.6542 L 452.672,-61.9126 L 453.504,-62 L 543.071,-62 L 544.307,-61.8042
 L 545.071,-61.4641 L 545.748,-60.9726 L 546.307,-60.3511 L 546.726,-59.627 L 546.984,-58.8316 L 547.071,-58
 L 547.071,-24.692 L 546.946,-23.6973 L 546.654,-22.9135 L 546.206,-22.2075 L 545.621,-21.61 L 544.925,-21.1472
 L 544.147,-20.8394 L 543.323,-20.6999 z
M 359.63,-20.7349 L 358.82,-20.9428 L 269.252,-54.2508 L 268.295,-54.7639 L 267.674,-55.3235 L 267.182,-56
 L 266.842,-56.7639 L 266.668,-57.5819 L 266.668,-58.4181 L 266.842,-59.2361 L 267.182,-60 L 267.674,-60.6765
 L 268.295,-61.2361 L 269.02,-61.6542 L 269.815,-61.9126 L 270.647,-62 L 360.214,-62 L 361.45,-61.8042
 L 362.214,-61.4641 L 362.891,-60.9726 L 363.45,-60.3511 L 363.868,-59.627 L 364.127,-58.8316 L 364.214,-58
 L 364.214,-24.692 L 364.089,-23.6973 L 363.797,-22.9135 L 363.349,-22.2075 L 362.764,-21.61 L 362.068,-21.1472
 L 361.29,-20.8394 L 360.465,-20.6999 z
M 1116.57,-20.8394 L 1115.79,-21.1472 L 1115.09,-21.61 L 1114.51,-22.2075 L 1114.06,-22.9135 L 1113.77,-23.6973
 L 1113.64,-24.692 L 1113.64,-58 L 1113.73,-58.8316 L 1113.99,-59.627 L 1114.41,-60.3511 L 1114.97,-60.9726
 L 1115.64,-61.4641 L 1116.41,-61.8042 L 1117.64,-62 L 1207.21,-62 L 1208.04,-61.9126 L 1208.84,-61.6542
 L 1209.56,-61.2361 L 1210.18,-60.6765 L 1210.67,-60 L 1211.01,-59.2361 L 1211.19,-58.4181 L 1211.19,-57.5819
 L 1211.01,-56.7639 L 1210.67,-56 L 1210.18,-55.3235 L 1209.56,-54.7639 L 1208.6,-54.2508 L 1119.04,-20.9428
 L 1118.23,-20.7349 L 1117.39,-20.6999 z
M 176.773,-20.7349 L 175.963,-20.9428 L 86.3952,-54.2508 L 85.4383,-54.7639 L 84.8168,-55.3235 L 84.3253,-56
 L 83.9852,-56.7639 L 83.8113,-57.5819 L 83.8113,-58.4181 L 83.9852,-59.2361 L 84.3253,-60 L 84.8168,-60.6765
 L 85.4383,-61.2361 L 86.1625,-61.6542 L 86.9578,-61.9126 L 87.7894,-62 L 177.357,-62 L 178.593,-61.8042
 L 179.357,-61.4641 L 180.034,-60.9726 L 180.593,-60.3511 L 181.011,-59.627 L 181.27,-58.8316 L 181.357,-58
 L 181.357,-24.692 L 181.231,-23.6973 L 180.94,-22.9135 L 180.492,-22.2075 L 179.907,-21.61 L 179.21,-21.1472
 L 178.433,-20.8394 L 177.608,-20.6999 z
M 933.71,-20.8394 L 932.932,-21.1472 L 932.236,-21.61 L 931.651,-22.2075 L 931.203,-22.9135 L 930.911,-23.6973
 L 930.786,-24.692 L 930.786,-58 L 930.873,-58.8316 L 931.132,-59.627 L 931.55,-60.3511 L 932.109,-60.9726
 L 932.786,-61.4641 L 933.55,-61.8042 L 934.786,-62 L 1024.35,-62 L 1025.19,-61.9126 L 1025.98,-61.6542
 L 1026.7,-61.2361 L 1027.33,-60.6765 L 1027.82,-60 L 1028.16,-59.2361 L 1028.33,-58.4181 L 1028.33,-57.5819
 L 1028.16,-56.7639 L 1027.82,-56 L 1027.33,-55.3235 L 1026.7,-54.7639 L 1025.75,-54.2508 L 936.18,-20.9428
 L 935.37,-20.7349 L 934.534,-20.6999 z
M 568.653,-18.582 L 567.835,-18.7558 L 567.071,-19.096 L 566.395,-19.5875 L 565.835,-20.2089 L 565.417,-20.9331
 L 565.159,-21.7284 L 565.071,-22.5601 L 565.071,-57.4399 L 565.197,-58.4346 L 565.489,-59.2184 L 565.937,-59.9245
 L 566.522,-60.5219 L 567.218,-60.9847 L 567.996,-61.2926 L 568.82,-61.432 L 569.656,-61.397 L 570.466,-61.1891
 L 617.363,-43.7492 L 617.822,-43.5448 L 618.518,-43.082 L 619.104,-42.4845 L 619.552,-41.7785 L 619.843,-40.9947
 L 619.965,-40.1674 L 619.913,-39.3329 L 619.688,-38.5274 L 619.3,-37.7864 L 618.767,-37.1421 L 618.112,-36.6227
 L 617.363,-36.2508 L 570.466,-18.8109 L 569.49,-18.582 z
M 725.344,-18.603 L 724.534,-18.8109 L 677.637,-36.2508 L 677.178,-36.4552 L 676.481,-36.918 L 675.896,-37.5155
 L 675.448,-38.2215 L 675.157,-39.0053 L 675.035,-39.8326 L 675.087,-40.6671 L 675.312,-41.4726 L 675.7,-42.2136
 L 676.233,-42.8579 L 676.888,-43.3773 L 677.637,-43.7492 L 724.534,-61.1891 L 725.51,-61.418 L 726.347,-61.418
 L 727.165,-61.2442 L 727.929,-60.904 L 728.605,-60.4125 L 729.165,-59.7911 L 729.583,-59.0669 L 729.841,-58.2716
 L 729.929,-57.4399 L 729.929,-22.5601 L 729.803,-21.5654 L 729.511,-20.7816 L 729.063,-20.0755 L 728.478,-19.4781
 L 727.782,-19.0153 L 727.004,-18.7074 L 726.18,-18.568 z
M 203.357,-18 L 202.121,-18.1958 L 201.357,-18.5359 L 200.681,-19.0274 L 200.121,-19.6489 L 199.703,-20.373
 L 199.445,-21.1684 L 199.357,-22 L 199.357,-55.308 L 199.483,-56.3027 L 199.774,-57.0865 L 200.222,-57.7925
 L 200.807,-58.39 L 201.504,-58.8528 L 202.281,-59.1606 L 203.106,-59.3001 L 203.941,-59.2651 L 204.751,-59.0571
 L 294.319,-25.7492 L 295.276,-25.2361 L 295.897,-24.6765 L 296.389,-24 L 296.729,-23.2361 L 296.903,-22.4181
 L 296.903,-21.5819 L 296.729,-20.7639 L 296.389,-20 L 295.897,-19.3235 L 295.276,-18.7639 L 294.552,-18.3458
 L 293.756,-18.0874 L 292.925,-18 z
M 386.214,-18 L 384.978,-18.1958 L 384.214,-18.5359 L 383.538,-19.0274 L 382.978,-19.6489 L 382.56,-20.373
 L 382.302,-21.1684 L 382.214,-22 L 382.214,-55.308 L 382.34,-56.3027 L 382.631,-57.0865 L 383.079,-57.7925
 L 383.665,-58.39 L 384.361,-58.8528 L 385.139,-59.1606 L 385.963,-59.3001 L 386.799,-59.2651 L 387.608,-59.0571
 L 477.176,-25.7492 L 478.133,-25.2361 L 478.755,-24.6765 L 479.246,-24 L 479.586,-23.2361 L 479.76,-22.4181
 L 479.76,-21.5819 L 479.586,-20.7639 L 479.246,-20 L 478.755,-19.3235 L 478.133,-18.7639 L 477.409,-18.3458
 L 476.614,-18.0874 L 475.782,-18 z
M 819.218,-18 L 818.386,-18.0874 L 817.591,-18.3458 L 816.867,-18.7639 L 816.245,-19.3235 L 815.754,-20
 L 815.414,-20.7639 L 815.24,-21.5819 L 815.24,-22.4181 L 815.414,-23.2361 L 815.754,-24 L 816.245,-24.6765
 L 816.867,-25.2361 L 817.824,-25.7492 L 907.391,-59.0571 L 908.201,-59.2651 L 909.037,-59.3001 L 909.861,-59.1606
 L 910.639,-58.8528 L 911.335,-58.39 L 911.921,-57.7925 L 912.369,-57.0865 L 912.66,-56.3027 L 912.786,-55.308
 L 912.786,-22 L 912.698,-21.1684 L 912.44,-20.373 L 912.022,-19.6489 L 911.462,-19.0274 L 910.786,-18.5359
 L 910.022,-18.1958 L 908.786,-18 z
M 1002.08,-18 L 1001.24,-18.0874 L 1000.45,-18.3458 L 999.724,-18.7639 L 999.103,-19.3235 L 998.611,-20
 L 998.271,-20.7639 L 998.097,-21.5819 L 998.097,-22.4181 L 998.271,-23.2361 L 998.611,-24 L 999.103,-24.6765
 L 999.724,-25.2361 L 1000.68,-25.7492 L 1090.25,-59.0571 L 1091.06,-59.2651 L 1091.89,-59.3001 L 1092.72,-59.1606
 L 1093.5,-58.8528 L 1094.19,-58.39 L 1094.78,-57.7925 L 1095.23,-57.0865 L 1095.52,-56.3027 L 1095.64,-55.308
 L 1095.64,-22 L 1095.56,-21.1684 L 1095.3,-20.373 L 1094.88,-19.6489 L 1094.32,-19.0274 L 1093.64,-18.5359
 L 1092.88,-18.1958 L 1091.64,-18 z
M 22,-18 L 20.7639,-18.1958 L 20,-18.5359 L 19.3235,-19.0274 L 18.7639,-19.6489 L 18.3458,-20.373
 L 18.0874,-21.1684 L 18,-22 L 18,-54.7502 L 18.1256,-55.7449 L 18.4171,-56.5286 L 18.8652,-57.2347
 L 19.4502,-57.8322 L 20.1467,-58.295 L 20.9242,-58.6028 L 21.7488,-58.7423 L 22.5843,-58.7073 L 23.3942,-58.4993
 L 111.462,-25.7492 L 112.419,-25.2361 L 113.04,-24.6765 L 113.532,-24 L 113.872,-23.2361 L 114.046,-22.4181
 L 114.046,-21.5819 L 113.872,-20.7639 L 113.532,-20 L 113.04,-19.3235 L 112.419,-18.7639 L 111.695,-18.3458
 L 110.899,-18.0874 L 110.068,-18 z
M 1184.93,-18 L 1184.1,-18.0874 L 1183.31,-18.3458 L 1182.58,-18.7639 L 1181.96,-19.3235 L 1181.47,-20
 L 1181.13,-20.7639 L 1180.95,-21.5819 L 1180.95,-22.4181 L 1181.13,-23.2361 L 1181.47,-24 L 1181.96,-24.6765
 L 1182.58,-25.2361 L 1183.54,-25.7492 L 1271.61,-58.4993 L 1272.42,-58.7073 L 1273.25,-58.7423 L 1274.08,-58.6028
 L 1274.85,-58.295 L 1275.55,-57.8322 L 1276.13,-57.2347 L 1276.58,-56.5286 L 1276.87,-55.7449 L 1277,-54.7502
 L 1277,-22 L 1276.91,-21.1684 L 1276.65,-20.373 L 1276.24,-19.6489 L 1275.68,-19.0274 L 1275,-18.5359
 L 1274.24,-18.1958 L 1273,-18 z
M 630.628,-18 L 629.552,-18.1474 L 628.775,-18.4552 L 628.078,-18.918 L 627.493,-19.5155 L 627.045,-20.2215
 L 626.754,-21.0053 L 626.631,-21.8326 L 626.684,-22.6671 L 626.909,-23.4726 L 627.296,-24.2136 L 627.829,-24.8579
 L 628.485,-25.3773 L 629.234,-25.7492 L 646.106,-32.0235 L 647.249,-32.2664 L 648.084,-32.2314 L 648.894,-32.0235
 L 665.766,-25.7492 L 666.723,-25.2361 L 667.345,-24.6765 L 667.836,-24 L 668.176,-23.2361 L 668.35,-22.4181
 L 668.35,-21.5819 L 668.176,-20.7639 L 667.836,-20 L 667.345,-19.3235 L 666.723,-18.7639 L 665.999,-18.3458
 L 665.204,-18.0874 L 664.372,-18 z
" stroke="black" fill="lightgray" stroke-width="0.5"/>
</svg>
