<?xml version="1.0" standalone="no"?>
<!DOCTYPE svg PUBLIC "-//W3C//DTD SVG 1.1//EN" "http://www.w3.org/Graphics/SVG/1.1/DTD/svg11.dtd">
<svg width="1672mm" height="80mm" viewBox="0 -80 1672 80" xmlns="http://www.w3.org/2000/svg" version="1.1">
<title>OpenSCAD Model</title>
<path d="
M 1672,-80 L 0,-80 L 0,-0 L 4.95,-0 L 4.95,-6 L 5.00572,-6.53017
 L 5.17046,-7.03717 L 5.437,-7.49884 L 5.79372,-7.895 L 6.22499,-8.20836 L 6.71201,-8.42519 L 7.23344,-8.53603
 L 7.76654,-8.53603 L 8.28798,-8.42519 L 8.77499,-8.20836 L 9.20627,-7.895 L 9.56299,-7.49884 L 9.82953,-7.03717
 L 9.99426,-6.53017 L 10.05,-6 L 10.05,-0 L 189.061,-0 L 189.061,-6 L 189.117,-6.53017
 L 189.282,-7.03717 L 189.548,-7.49884 L 189.905,-7.895 L 190.336,-8.20836 L 190.823,-8.42519 L 191.345,-8.53603
 L 191.878,-8.53603 L 192.399,-8.42519 L 192.886,-8.20836 L 193.317,-7.895 L 193.674,-7.49884 L 193.941,-7.03717
 L 194.105,-6.53017 L 194.161,-6 L 194.161,-0 L 373.172,-0 L 373.172,-6 L 373.228,-6.53017
 L 373.393,-7.03717 L 373.659,-7.49884 L 374.016,-7.895 L 374.447,-8.20836 L 374.934,-8.42519 L 375.456,-8.53603
 L 375.989,-8.53603 L 376.51,-8.42519 L 376.997,-8.20836 L 377.428,-7.895 L 377.785,-7.49884 L 378.052,-7.03717
 L 378.216,-6.53017 L 378.272,-6 L 378.272,-0 L 557.283,-0 L 557.283,-6 L 557.339,-6.53017
 L 557.504,-7.03717 L 557.77,-7.49884 L 558.127,-7.895 L 558.558,-8.20836 L 559.045,-8.42519 L 559.567,-8.53603
 L 560.1,-8.53603 L 560.621,-8.42519 L 561.108,-8.20836 L 561.54,-7.895 L 561.896,-7.49884 L 562.163,-7.03717
 L 562.328,-6.53017 L 562.383,-6 L 562.383,-0 L 741.394,-0 L 741.394,-6 L 741.45,-6.53017
 L 741.615,-7.03717 L 741.881,-7.49884 L 742.238,-7.895 L 742.669,-8.20836 L 743.156,-8.42519 L 743.678,-8.53603
 L 744.211,-8.53603 L 744.732,-8.42519 L 745.219,-8.20836 L 745.651,-7.895 L 746.007,-7.49884 L 746.274,-7.03717
 L 746.439,-6.53017 L 746.494,-6 L 746.494,-0 L 925.506,-0 L 925.506,-6 L 925.561,-6.53017
 L 925.726,-7.03717 L 925.993,-7.49884 L 926.349,-7.895 L 926.781,-8.20836 L 927.268,-8.42519 L 927.789,-8.53603
 L 928.322,-8.53603 L 928.844,-8.42519 L 929.331,-8.20836 L 929.762,-7.895 L 930.119,-7.49884 L 930.385,-7.03717
 L 930.55,-6.53017 L 930.606,-6 L 930.606,-0 L 1109.62,-0 L 1109.62,-6 L 1109.67,-6.53017
 L 1109.84,-7.03717 L 1110.1,-7.49884 L 1110.46,-7.895 L 1110.89,-8.20836 L 1111.38,-8.42519 L 1111.9,-8.53603
 L 1112.43,-8.53603 L 1112.95,-8.42519 L 1113.44,-8.20836 L 1113.87,-7.895 L 1114.23,-7.49884 L 1114.5,-7.03717
 L 1114.66,-6.53017 L 1114.72,-6 L 1114.72,-0 L 1293.73,-0 L 1293.73,-6 L 1293.78,-6.53017
 L 1293.95,-7.03717 L 1294.21,-7.49884 L 1294.57,-7.895 L 1295,-8.20836 L 1295.49,-8.42519 L 1296.01,-8.53603
 L 1296.54,-8.53603 L 1297.07,-8.42519 L 1297.55,-8.20836 L 1297.98,-7.895 L 1298.34,-7.49884 L 1298.61,-7.03717
 L 1298.77,-6.53017 L 1298.83,-6 L 1298.83,-0 L 1477.84,-0 L 1477.84,-6 L 1477.89,-6.53017
 L 1478.06,-7.03717 L 1478.33,-7.49884 L 1478.68,-7.895 L 1479.11,-8.20836 L 1479.6,-8.42519 L 1480.12,-8.53603
 L 1480.66,-8.53603 L 1481.18,-8.42519 L 1481.66,-8.20836 L 1482.1,-7.895 L 1482.45,-7.49884 L 1482.72,-7.03717
 L 1482.88,-6.53017 L 1482.94,-6 L 1482.94,-0 L 1661.95,-0 L 1661.95,-6 L 1662.01,-6.53017
 L 1662.17,-7.03717 L 1662.44,-7.49884 L 1662.79,-7.895 L 1663.22,-8.20836 L 1663.71,-8.42519 L 1664.23,-8.53603
 L 1664.77,-8.53603 L 1665.29,-8.42519 L 1665.77,-8.20836 L 1666.21,-7.895 L 1666.56,-7.49884 L 1666.83,-7.03717
 L 1666.99,-6.53017 L 1667.05,-6 L 1667.05,-0 L 1672,-0 z
M 6.98573,-55.607 L 6.47708,-55.6875 L 5.97964,-55.8208 L 5.49887,-56.0054 L 5.04001,-56.2392 L 4.60811,-56.5196
 L 4.20789,-56.8437 L 3.84373,-57.2079 L 3.51964,-57.6081 L 3.23917,-58.04 L 3.00537,-58.4989 L 2.82082,-58.9796
 L 2.68752,-59.4771 L 2.60696,-59.9857 L 2.58,-60.5 L 2.60696,-61.0143 L 2.68752,-61.5229 L 2.82082,-62.0204
 L 3.00537,-62.5011 L 3.23917,-62.96 L 3.51964,-63.3919 L 3.84373,-63.7921 L 4.20789,-64.1563 L 4.60811,-64.4804
 L 4.95001,-64.7024 L 4.95001,-74 L 5.00574,-74.5302 L 5.17047,-75.0372 L 5.43701,-75.4988 L 5.79373,-75.895
 L 6.22501,-76.2084 L 6.71202,-76.4252 L 7.23346,-76.536 L 7.76654,-76.536 L 8.28798,-76.4252 L 8.77499,-76.2084
 L 9.20627,-75.895 L 9.56299,-75.4988 L 9.82953,-75.0372 L 9.99426,-74.5302 L 10.05,-74 L 10.05,-64.7024
 L 10.3919,-64.4804 L 10.7921,-64.1563 L 11.1563,-63.7921 L 11.4804,-63.3919 L 11.7608,-62.96 L 11.9946,-62.5011
 L 12.1792,-62.0204 L 12.3125,-61.5229 L 12.393,-61.0143 L 12.42,-60.5 L 12.393,-59.9857 L 12.3125,-59.4771
 L 12.1792,-58.9796 L 11.9946,-58.4989 L 11.7608,-58.04 L 11.4804,-57.6081 L 11.1563,-57.2079 L 10.7921,-56.8437
 L 10.3919,-56.5196 L 9.95999,-56.2392 L 9.50113,-56.0054 L 9.02036,-55.8208 L 8.52292,-55.6875 L 8.01427,-55.607
 L 7.5,-55.58 z
M 1111.65,-55.607 L 1111.14,-55.6875 L 1110.65,-55.8208 L 1110.17,-56.0054 L 1109.71,-56.2392 L 1109.27,-56.5196
 L 1108.87,-56.8437 L 1108.51,-57.2079 L 1108.19,-57.6081 L 1107.91,-58.04 L 1107.67,-58.4989 L 1107.49,-58.9796
 L 1107.35,-59.4771 L 1107.27,-59.9857 L 1107.25,-60.5 L 1107.27,-61.0143 L 1107.35,-61.5229 L 1107.49,-62.0204
 L 1107.67,-62.5011 L 1107.91,-62.96 L 1108.19,-63.3919 L 1108.51,-63.7921 L 1108.87,-64.1563 L 1109.27,-64.4804
 L 1109.62,-64.7024 L 1109.62,-74 L 1109.67,-74.5302 L 1109.84,-75.0372 L 1110.1,-75.4988 L 1110.46,-75.895
 L 1110.89,-76.2084 L 1111.38,-76.4252 L 1111.9,-76.536 L 1112.43,-76.536 L 1112.95,-76.4252 L 1113.44,-76.2084
 L 1113.87,-75.895 L 1114.23,-75.4988 L 1114.5,-75.0372 L 1114.66,-74.5302 L 1114.72,-74 L 1114.72,-64.7024
 L 1115.06,-64.4804 L 1115.46,-64.1563 L 1115.82,-63.7921 L 1116.15,-63.3919 L 1116.43,-62.96 L 1116.66,-62.5011
 L 1116.85,-62.0204 L 1116.98,-61.5229 L 1117.06,-61.0143 L 1117.09,-60.5 L 1117.06,-59.9857 L 1116.98,-59.4771
 L 1116.85,-58.9796 L 1116.66,-58.4989 L 1116.43,-58.04 L 1116.15,-57.6081 L 1115.82,-57.2079 L 1115.46,-56.8437
 L 1115.06,-56.5196 L 1114.63,-56.2392 L 1114.17,-56.0054 L 1113.69,-55.8208 L 1113.19,-55.6875 L 1112.68,-55.607
 L 1112.17,-55.58 z
M 1295.76,-55.607 L 1295.25,-55.6875 L 1294.76,-55.8208 L 1294.28,-56.0054 L 1293.82,-56.2392 L 1293.39,-56.5196
 L 1292.99,-56.8437 L 1292.62,-57.2079 L 1292.3,-57.6081 L 1292.02,-58.04 L 1291.78,-58.4989 L 1291.6,-58.9796
 L 1291.47,-59.4771 L 1291.38,-59.9857 L 1291.36,-60.5 L 1291.38,-61.0143 L 1291.47,-61.5229 L 1291.6,-62.0204
 L 1291.78,-62.5011 L 1292.02,-62.96 L 1292.3,-63.3919 L 1292.62,-63.7921 L 1292.99,-64.1563 L 1293.39,-64.4804
 L 1293.73,-64.7024 L 1293.73,-74 L 1293.78,-74.5302 L 1293.95,-75.0372 L 1294.21,-75.4988 L 1294.57,-75.895
 L 1295,-76.2084 L 1295.49,-76.4252 L 1296.01,-76.536 L 1296.54,-76.536 L 1297.07,-76.4252 L 1297.55,-76.2084
 L 1297.98,-75.895 L 1298.34,-75.4988 L 1298.61,-75.0372 L 1298.77,-74.5302 L 1298.83,-74 L 1298.83,-64.7024
 L 1299.17,-64.4804 L 1299.57,-64.1563 L 1299.93,-63.7921 L 1300.26,-63.3919 L 1300.54,-62.96 L 1300.77,-62.5011
 L 1300.96,-62.0204 L 1301.09,-61.5229 L 1301.17,-61.0143 L 1301.2,-60.5 L 1301.17,-59.9857 L 1301.09,-59.4771
 L 1300.96,-58.9796 L 1300.77,-58.4989 L 1300.54,-58.04 L 1300.26,-57.6081 L 1299.93,-57.2079 L 1299.57,-56.8437
 L 1299.17,-56.5196 L 1298.74,-56.2392 L 1298.28,-56.0054 L 1297.8,-55.8208 L 1297.3,-55.6875 L 1296.79,-55.607
 L 1296.28,-55.58 z
M 927.541,-55.607 L 927.033,-55.6875 L 926.535,-55.8208 L 926.054,-56.0054 L 925.596,-56.2392 L 925.164,-56.5196
 L 924.763,-56.8437 L 924.399,-57.2079 L 924.075,-57.6081 L 923.795,-58.04 L 923.561,-58.4989 L 923.376,-58.9796
 L 923.243,-59.4771 L 923.163,-59.9857 L 923.136,-60.5 L 923.163,-61.0143 L 923.243,-61.5229 L 923.376,-62.0204
 L 923.561,-62.5011 L 923.795,-62.96 L 924.075,-63.3919 L 924.399,-63.7921 L 924.763,-64.1563 L 925.164,-64.4804
 L 925.506,-64.7024 L 925.506,-74 L 925.561,-74.5302 L 925.726,-75.0372 L 925.993,-75.4988 L 926.349,-75.895
 L 926.781,-76.2084 L 927.268,-76.4252 L 927.789,-76.536 L 928.322,-76.536 L 928.844,-76.4252 L 929.331,-76.2084
 L 929.762,-75.895 L 930.119,-75.4988 L 930.385,-75.0372 L 930.55,-74.5302 L 930.606,-74 L 930.606,-64.7024
 L 930.947,-64.4804 L 931.348,-64.1563 L 931.712,-63.7921 L 932.036,-63.3919 L 932.316,-62.96 L 932.55,-62.5011
 L 932.735,-62.0204 L 932.868,-61.5229 L 932.949,-61.0143 L 932.976,-60.5 L 932.949,-59.9857 L 932.868,-59.4771
 L 932.735,-58.9796 L 932.55,-58.4989 L 932.316,-58.04 L 932.036,-57.6081 L 931.712,-57.2079 L 931.348,-56.8437
 L 930.947,-56.5196 L 930.516,-56.2392 L 930.057,-56.0054 L 929.576,-55.8208 L 929.078,-55.6875 L 928.57,-55.607
 L 928.056,-55.58 z
M 743.43,-55.607 L 742.922,-55.6875 L 742.424,-55.8208 L 741.943,-56.0054 L 741.484,-56.2392 L 741.053,-56.5196
 L 740.652,-56.8437 L 740.288,-57.2079 L 739.964,-57.6081 L 739.684,-58.04 L 739.45,-58.4989 L 739.265,-58.9796
 L 739.132,-59.4771 L 739.051,-59.9857 L 739.024,-60.5 L 739.051,-61.0143 L 739.132,-61.5229 L 739.265,-62.0204
 L 739.45,-62.5011 L 739.684,-62.96 L 739.964,-63.3919 L 740.288,-63.7921 L 740.652,-64.1563 L 741.053,-64.4804
 L 741.394,-64.7024 L 741.394,-74 L 741.45,-74.5302 L 741.615,-75.0372 L 741.881,-75.4988 L 742.238,-75.895
 L 742.669,-76.2084 L 743.156,-76.4252 L 743.678,-76.536 L 744.211,-76.536 L 744.732,-76.4252 L 745.219,-76.2084
 L 745.651,-75.895 L 746.007,-75.4988 L 746.274,-75.0372 L 746.439,-74.5302 L 746.494,-74 L 746.494,-64.7024
 L 746.836,-64.4804 L 747.237,-64.1563 L 747.601,-63.7921 L 747.925,-63.3919 L 748.205,-62.96 L 748.439,-62.5011
 L 748.624,-62.0204 L 748.757,-61.5229 L 748.837,-61.0143 L 748.864,-60.5 L 748.837,-59.9857 L 748.757,-59.4771
 L 748.624,-58.9796 L 748.439,-58.4989 L 748.205,-58.04 L 747.925,-57.6081 L 747.601,-57.2079 L 747.237,-56.8437
 L 746.836,-56.5196 L 746.404,-56.2392 L 745.946,-56.0054 L 745.465,-55.8208 L 744.967,-55.6875 L 744.459,-55.607
 L 743.944,-55.58 z
M 1479.87,-55.607 L 1479.37,-55.6875 L 1478.87,-55.8208 L 1478.39,-56.0054 L 1477.93,-56.2392 L 1477.5,-56.5196
 L 1477.1,-56.8437 L 1476.73,-57.2079 L 1476.41,-57.6081 L 1476.13,-58.04 L 1475.89,-58.4989 L 1475.71,-58.9796
 L 1475.58,-59.4771 L 1475.5,-59.9857 L 1475.47,-60.5 L 1475.5,-61.0143 L 1475.58,-61.5229 L 1475.71,-62.0204
 L 1475.89,-62.5011 L 1476.13,-62.96 L 1476.41,-63.3919 L 1476.73,-63.7921 L 1477.1,-64.1563 L 1477.5,-64.4804
 L 1477.84,-64.7024 L 1477.84,-74 L 1477.89,-74.5302 L 1478.06,-75.0372 L 1478.33,-75.4988 L 1478.68,-75.895
 L 1479.11,-76.2084 L 1479.6,-76.4252 L 1480.12,-76.536 L 1480.66,-76.536 L 1481.18,-76.4252 L 1481.66,-76.2084
 L 1482.1,-75.895 L 1482.45,-75.4988 L 1482.72,-75.0372 L 1482.88,-74.5302 L 1482.94,-74 L 1482.94,-64.7024
 L 1483.28,-64.4804 L 1483.68,-64.1563 L 1484.05,-63.7921 L 1484.37,-63.3919 L 1484.65,-62.96 L 1484.88,-62.5011
 L 1485.07,-62.0204 L 1485.2,-61.5229 L 1485.28,-61.0143 L 1485.31,-60.5 L 1485.28,-59.9857 L 1485.2,-59.4771
 L 1485.07,-58.9796 L 1484.88,-58.4989 L 1484.65,-58.04 L 1484.37,-57.6081 L 1484.05,-57.2079 L 1483.68,-56.8437
 L 1483.28,-56.5196 L 1482.85,-56.2392 L 1482.39,-56.0054 L 1481.91,-55.8208 L 1481.41,-55.6875 L 1480.9,-55.607
 L 1480.39,-55.58 z
M 559.319,-55.607 L 558.81,-55.6875 L 558.313,-55.8208 L 557.832,-56.0054 L 557.373,-56.2392 L 556.941,-56.5196
 L 556.541,-56.8437 L 556.177,-57.2079 L 555.853,-57.6081 L 555.572,-58.04 L 555.339,-58.4989 L 555.154,-58.9796
 L 555.021,-59.4771 L 554.94,-59.9857 L 554.913,-60.5 L 554.94,-61.0143 L 555.021,-61.5229 L 555.154,-62.0204
 L 555.339,-62.5011 L 555.572,-62.96 L 555.853,-63.3919 L 556.177,-63.7921 L 556.541,-64.1563 L 556.941,-64.4804
 L 557.283,-64.7024 L 557.283,-74 L 557.339,-74.5302 L 557.504,-75.0372 L 557.77,-75.4988 L 558.127,-75.895
 L 558.558,-76.2084 L 559.045,-76.4252 L 559.567,-76.536 L 560.1,-76.536 L 560.621,-76.4252 L 561.108,-76.2084
 L 561.54,-75.895 L 561.896,-75.4988 L 562.163,-75.0372 L 562.328,-74.5302 L 562.383,-74 L 562.383,-64.7024
 L 562.725,-64.4804 L 563.125,-64.1563 L 563.49,-63.7921 L 563.814,-63.3919 L 564.094,-62.96 L 564.328,-62.5011
 L 564.513,-62.0204 L 564.646,-61.5229 L 564.726,-61.0143 L 564.753,-60.5 L 564.726,-59.9857 L 564.646,-59.4771
 L 564.513,-58.9796 L 564.328,-58.4989 L 564.094,-58.04 L 563.814,-57.6081 L 563.49,-57.2079 L 563.125,-56.8437
 L 562.725,-56.5196 L 562.293,-56.2392 L 561.834,-56.0054 L 561.354,-55.8208 L 560.856,-55.6875 L 560.348,-55.607
 L 559.833,-55.58 z
M 375.208,-55.607 L 374.699,-55.6875 L 374.202,-55.8208 L 373.721,-56.0054 L 373.262,-56.2392 L 372.83,-56.5196
 L 372.43,-56.8437 L 372.066,-57.2079 L 371.742,-57.6081 L 371.461,-58.04 L 371.228,-58.4989 L 371.043,-58.9796
 L 370.91,-59.4771 L 370.829,-59.9857 L 370.802,-60.5 L 370.829,-61.0143 L 370.91,-61.5229 L 371.043,-62.0204
 L 371.228,-62.5011 L 371.461,-62.96 L 371.742,-63.3919 L 372.066,-63.7921 L 372.43,-64.1563 L 372.83,-64.4804
 L 373.172,-64.7024 L 373.172,-74 L 373.228,-74.5302 L 373.393,-75.0372 L 373.659,-75.4988 L 374.016,-75.895
 L 374.447,-76.2084 L 374.934,-76.4252 L 375.456,-76.536 L 375.989,-76.536 L 376.51,-76.4252 L 376.997,-76.2084
 L 377.428,-75.895 L 377.785,-75.4988 L 378.052,-75.0372 L 378.216,-74.5302 L 378.272,-74 L 378.272,-64.7024
 L 378.614,-64.4804 L 379.014,-64.1563 L 379.378,-63.7921 L 379.703,-63.3919 L 379.983,-62.96 L 380.217,-62.5011
 L 380.401,-62.0204 L 380.535,-61.5229 L 380.615,-61.0143 L 380.642,-60.5 L 380.615,-59.9857 L 380.535,-59.4771
 L 380.401,-58.9796 L 380.217,-58.4989 L 379.983,-58.04 L 379.703,-57.6081 L 379.378,-57.2079 L 379.014,-56.8437
 L 378.614,-56.5196 L 378.182,-56.2392 L 377.723,-56.0054 L 377.243,-55.8208 L 376.745,-55.6875 L 376.236,-55.607
 L 375.722,-55.58 z
M 1663.99,-55.607 L 1663.48,-55.6875 L 1662.98,-55.8208 L 1662.5,-56.0054 L 1662.04,-56.2392 L 1661.61,-56.5196
 L 1661.21,-56.8437 L 1660.84,-57.2079 L 1660.52,-57.6081 L 1660.24,-58.04 L 1660.01,-58.4989 L 1659.82,-58.9796
 L 1659.69,-59.4771 L 1659.61,-59.9857 L 1659.58,-60.5 L 1659.61,-61.0143 L 1659.69,-61.5229 L 1659.82,-62.0204
 L 1660.01,-62.5011 L 1660.24,-62.96 L 1660.52,-63.3919 L 1660.84,-63.7921 L 1661.21,-64.1563 L 1661.61,-64.4804
 L 1661.95,-64.7024 L 1661.95,-74 L 1662.01,-74.5302 L 1662.17,-75.0372 L 1662.44,-75.4988 L 1662.79,-75.895
 L 1663.23,-76.2084 L 1663.71,-76.4252 L 1664.23,-76.536 L 1664.77,-76.536 L 1665.29,-76.4252 L 1665.77,-76.2084
 L 1666.21,-75.895 L 1666.56,-75.4988 L 1666.83,-75.0372 L 1666.99,-74.5302 L 1667.05,-74 L 1667.05,-64.7024
 L 1667.39,-64.4804 L 1667.79,-64.1563 L 1668.16,-63.7921 L 1668.48,-63.3919 L 1668.76,-62.96 L 1668.99,-62.5011
 L 1669.18,-62.0204 L 1669.31,-61.5229 L 1669.39,-61.0143 L 1669.42,-60.5 L 1669.39,-59.9857 L 1669.31,-59.4771
 L 1669.18,-58.9796 L 1668.99,-58.4989 L 1668.76,-58.04 L 1668.48,-57.6081 L 1668.16,-57.2079 L 1667.79,-56.8437
 L 1667.39,-56.5196 L 1666.96,-56.2392 L 1666.5,-56.0054 L 1666.02,-55.8208 L 1665.52,-55.6875 L 1665.01,-55.607
 L 1664.5,-55.58 z
M 191.097,-55.607 L 190.588,-55.6875 L 190.091,-55.8208 L 189.61,-56.0054 L 189.151,-56.2392 L 188.719,-56.5196
 L 188.319,-56.8437 L 187.955,-57.2079 L 187.631,-57.6081 L 187.35,-58.04 L 187.116,-58.4989 L 186.932,-58.9796
 L 186.799,-59.4771 L 186.718,-59.9857 L 186.691,-60.5 L 186.718,-61.0143 L 186.799,-61.5229 L 186.932,-62.0204
 L 187.116,-62.5011 L 187.35,-62.96 L 187.631,-63.3919 L 187.955,-63.7921 L 188.319,-64.1563 L 188.719,-64.4804
 L 189.061,-64.7024 L 189.061,-74 L 189.117,-74.5302 L 189.282,-75.0372 L 189.548,-75.4988 L 189.905,-75.895
 L 190.336,-76.2084 L 190.823,-76.4252 L 191.345,-76.536 L 191.878,-76.536 L 192.399,-76.4252 L 192.886,-76.2084
 L 193.317,-75.895 L 193.674,-75.4988 L 193.941,-75.0372 L 194.105,-74.5302 L 194.161,-74 L 194.161,-64.7024
 L 194.503,-64.4804 L 194.903,-64.1563 L 195.267,-63.7921 L 195.591,-63.3919 L 195.872,-62.96 L 196.106,-62.5011
 L 196.29,-62.0204 L 196.424,-61.5229 L 196.504,-61.0143 L 196.531,-60.5 L 196.504,-59.9857 L 196.424,-59.4771
 L 196.29,-58.9796 L 196.106,-58.4989 L 195.872,-58.04 L 195.591,-57.6081 L 195.267,-57.2079 L 194.903,-56.8437
 L 194.503,-56.5196 L 194.071,-56.2392 L 193.612,-56.0054 L 193.131,-55.8208 L 192.634,-55.6875 L 192.125,-55.607
 L 191.611,-55.58 z
M 1124.08,-20.7987 L 1123.31,-21.1083 L 1122.61,-21.5726 L 1122.03,-22.1714 L 1121.58,-22.8784 L 1121.29,-23.6629
 L 1121.17,-24.6489 L 1121.17,-58 L 1121.25,-58.8316 L 1121.51,-59.627 L 1121.93,-60.3511 L 1122.49,-60.9726
 L 1123.17,-61.4641 L 1123.93,-61.8042 L 1125.17,-62 L 1215.47,-62 L 1216.3,-61.9126 L 1217.09,-61.6542
 L 1217.82,-61.2361 L 1218.44,-60.6765 L 1218.93,-60 L 1219.27,-59.2361 L 1219.44,-58.4181 L 1219.44,-57.5819
 L 1219.27,-56.7639 L 1218.93,-56 L 1218.44,-55.3235 L 1217.82,-54.7639 L 1216.85,-54.2478 L 1126.55,-20.8967
 L 1125.74,-20.6905 L 1124.91,-20.6574 z
M 939.971,-20.7987 L 939.194,-21.1083 L 938.499,-21.5726 L 937.915,-22.1714 L 937.469,-22.8784 L 937.179,-23.6629
 L 937.056,-24.6489 L 937.056,-58 L 937.143,-58.8316 L 937.401,-59.627 L 937.819,-60.3511 L 938.379,-60.9726
 L 939.056,-61.4641 L 939.819,-61.8042 L 941.056,-62 L 1031.35,-62 L 1032.19,-61.9126 L 1032.98,-61.6542
 L 1033.71,-61.2361 L 1034.33,-60.6765 L 1034.82,-60 L 1035.16,-59.2361 L 1035.33,-58.4181 L 1035.33,-57.5819
 L 1035.16,-56.7639 L 1034.82,-56 L 1034.33,-55.3235 L 1033.71,-54.7639 L 1032.74,-54.2478 L 942.441,-20.8967
 L 941.631,-20.6905 L 940.795,-20.6574 z
M 835.425,-47.7587 L 834.614,-47.9648 L 817.603,-54.2478 L 816.638,-54.7639 L 816.016,-55.3235 L 815.525,-56
 L 815.185,-56.7639 L 815.011,-57.5819 L 815.011,-58.4181 L 815.185,-59.2361 L 815.525,-60 L 816.016,-60.6765
 L 816.638,-61.2361 L 817.362,-61.6542 L 818.157,-61.9126 L 818.989,-62 L 853.011,-62 L 854.095,-61.8502
 L 854.872,-61.5406 L 855.568,-61.0763 L 856.151,-60.4775 L 856.598,-59.7705 L 856.888,-58.9861 L 857.008,-58.1585
 L 856.954,-57.3241 L 856.727,-56.5191 L 856.338,-55.779 L 855.803,-55.1358 L 855.147,-54.6179 L 854.397,-54.2478
 L 837.386,-47.9648 L 836.26,-47.7255 z
M 730.369,-20.6905 L 729.559,-20.8967 L 639.26,-54.2478 L 638.295,-54.7639 L 637.673,-55.3235 L 637.182,-56
 L 636.842,-56.7639 L 636.668,-57.5819 L 636.668,-58.4181 L 636.842,-59.2361 L 637.182,-60 L 637.673,-60.6765
 L 638.295,-61.2361 L 639.019,-61.6542 L 639.814,-61.9126 L 640.646,-62 L 730.944,-62 L 732.18,-61.8042
 L 732.944,-61.4641 L 733.621,-60.9726 L 734.18,-60.3511 L 734.599,-59.627 L 734.857,-58.8316 L 734.944,-58
 L 734.944,-24.6489 L 734.821,-23.6629 L 734.531,-22.8784 L 734.085,-22.1714 L 733.501,-21.5726 L 732.806,-21.1083
 L 732.029,-20.7987 L 731.205,-20.6574 z
M 546.258,-20.6905 L 545.447,-20.8967 L 455.149,-54.2478 L 454.184,-54.7639 L 453.562,-55.3235 L 453.071,-56
 L 452.73,-56.7639 L 452.557,-57.5819 L 452.557,-58.4181 L 452.73,-59.2361 L 453.071,-60 L 453.562,-60.6765
 L 454.184,-61.2361 L 454.908,-61.6542 L 455.703,-61.9126 L 456.535,-62 L 546.833,-62 L 548.069,-61.8042
 L 548.833,-61.4641 L 549.51,-60.9726 L 550.069,-60.3511 L 550.487,-59.627 L 550.746,-58.8316 L 550.833,-58
 L 550.833,-24.6489 L 550.71,-23.6629 L 550.42,-22.8784 L 549.974,-22.1714 L 549.39,-21.5726 L 548.694,-21.1083
 L 547.918,-20.7987 L 547.093,-20.6574 z
M 362.147,-20.6905 L 361.336,-20.8967 L 271.038,-54.2478 L 270.072,-54.7639 L 269.451,-55.3235 L 268.959,-56
 L 268.619,-56.7639 L 268.445,-57.5819 L 268.445,-58.4181 L 268.619,-59.2361 L 268.959,-60 L 269.451,-60.6765
 L 270.072,-61.2361 L 270.797,-61.6542 L 271.592,-61.9126 L 272.424,-62 L 362.722,-62 L 363.958,-61.8042
 L 364.722,-61.4641 L 365.399,-60.9726 L 365.958,-60.3511 L 366.376,-59.627 L 366.635,-58.8316 L 366.722,-58
 L 366.722,-24.6489 L 366.599,-23.6629 L 366.309,-22.8784 L 365.863,-22.1714 L 365.279,-21.5726 L 364.583,-21.1083
 L 363.807,-20.7987 L 362.982,-20.6574 z
M 1492.3,-20.7987 L 1491.53,-21.1083 L 1490.83,-21.5726 L 1490.25,-22.1714 L 1489.8,-22.8784 L 1489.51,-23.6629
 L 1489.39,-24.6489 L 1489.39,-58 L 1489.48,-58.8316 L 1489.73,-59.627 L 1490.15,-60.3511 L 1490.71,-60.9726
 L 1491.39,-61.4641 L 1492.15,-61.8042 L 1493.39,-62 L 1583.69,-62 L 1584.52,-61.9126 L 1585.31,-61.6542
 L 1586.04,-61.2361 L 1586.66,-60.6765 L 1587.15,-60 L 1587.49,-59.2361 L 1587.67,-58.4181 L 1587.67,-57.5819
 L 1587.49,-56.7639 L 1587.15,-56 L 1586.66,-55.3235 L 1586.04,-54.7639 L 1585.07,-54.2478 L 1494.77,-20.8967
 L 1493.96,-20.6905 L 1493.13,-20.6574 z
M 178.036,-20.6905 L 177.225,-20.8967 L 86.9266,-54.2478 L 85.9613,-54.7639 L 85.3399,-55.3235 L 84.8484,-56
 L 84.5082,-56.7639 L 84.3344,-57.5819 L 84.3344,-58.4181 L 84.5082,-59.2361 L 84.8484,-60 L 85.3399,-60.6765
 L 85.9613,-61.2361 L 86.6855,-61.6542 L 87.4808,-61.9126 L 88.3125,-62 L 178.611,-62 L 179.847,-61.8042
 L 180.611,-61.4641 L 181.288,-60.9726 L 181.847,-60.3511 L 182.265,-59.627 L 182.524,-58.8316 L 182.611,-58
 L 182.611,-24.6489 L 182.488,-23.6629 L 182.198,-22.8784 L 181.751,-22.1714 L 181.168,-21.5726 L 180.472,-21.1083
 L 179.695,-20.7987 L 178.871,-20.6574 z
M 1308.19,-20.7987 L 1307.42,-21.1083 L 1306.72,-21.5726 L 1306.14,-22.1714 L 1305.69,-22.8784 L 1305.4,-23.6629
 L 1305.28,-24.6489 L 1305.28,-58 L 1305.37,-58.8316 L 1305.62,-59.627 L 1306.04,-60.3511 L 1306.6,-60.9726
 L 1307.28,-61.4641 L 1308.04,-61.8042 L 1309.28,-62 L 1399.58,-62 L 1400.41,-61.9126 L 1401.2,-61.6542
 L 1401.93,-61.2361 L 1402.55,-60.6765 L 1403.04,-60 L 1403.38,-59.2361 L 1403.55,-58.4181 L 1403.55,-57.5819
 L 1403.38,-56.7639 L 1403.04,-56 L 1402.55,-55.3235 L 1401.93,-54.7639 L 1400.96,-54.2478 L 1310.66,-20.8967
 L 1309.85,-20.6905 L 1309.02,-20.6574 z
M 756.526,-18.5405 L 755.708,-18.7143 L 754.944,-19.0544 L 754.268,-19.546 L 753.708,-20.1674 L 753.29,-20.8916
 L 753.032,-21.6869 L 752.944,-22.5185 L 752.944,-57.4815 L 753.068,-58.4675 L 753.358,-59.252 L 753.804,-59.959
 L 754.388,-60.5578 L 755.083,-61.0221 L 755.86,-61.3317 L 756.684,-61.473 L 757.52,-61.4398 L 758.33,-61.2337
 L 805.662,-43.7522 L 806.137,-43.5406 L 806.832,-43.0763 L 807.416,-42.4775 L 807.863,-41.7705 L 808.152,-40.9861
 L 808.273,-40.1585 L 808.218,-39.3241 L 807.992,-38.5191 L 807.603,-37.779 L 807.068,-37.1358 L 806.412,-36.6179
 L 805.662,-36.2478 L 758.33,-18.7663 L 757.363,-18.5405 z
M 914.48,-18.5601 L 913.67,-18.7663 L 866.338,-36.2478 L 865.863,-36.4594 L 865.168,-36.9237 L 864.584,-37.5225
 L 864.137,-38.2295 L 863.848,-39.0139 L 863.727,-39.8415 L 863.782,-40.6759 L 864.008,-41.4809 L 864.397,-42.221
 L 864.932,-42.8642 L 865.588,-43.3821 L 866.338,-43.7522 L 913.67,-61.2337 L 914.637,-61.4596 L 915.474,-61.4596
 L 916.292,-61.2857 L 917.056,-60.9456 L 917.732,-60.4541 L 918.292,-59.8326 L 918.71,-59.1084 L 918.968,-58.3131
 L 919.056,-57.4815 L 919.056,-22.5185 L 918.932,-21.5325 L 918.642,-20.748 L 918.196,-20.041 L 917.612,-19.4422
 L 916.917,-18.9779 L 916.14,-18.6683 L 915.316,-18.527 z
M 204.611,-18 L 203.375,-18.1958 L 202.611,-18.5359 L 201.935,-19.0274 L 201.375,-19.6489 L 200.957,-20.373
 L 200.699,-21.1684 L 200.611,-22 L 200.611,-55.3511 L 200.735,-56.3371 L 201.024,-57.1216 L 201.471,-57.8286
 L 202.054,-58.4274 L 202.75,-58.8917 L 203.527,-59.2013 L 204.351,-59.3426 L 205.187,-59.3095 L 205.997,-59.1033
 L 296.296,-25.7522 L 297.261,-25.2361 L 297.882,-24.6765 L 298.374,-24 L 298.714,-23.2361 L 298.888,-22.4181
 L 298.888,-21.5819 L 298.714,-20.7639 L 298.374,-20 L 297.882,-19.3235 L 297.261,-18.7639 L 296.537,-18.3458
 L 295.741,-18.0874 L 294.91,-18 z
M 388.722,-18 L 387.486,-18.1958 L 386.722,-18.5359 L 386.046,-19.0274 L 385.486,-19.6489 L 385.068,-20.373
 L 384.81,-21.1684 L 384.722,-22 L 384.722,-55.3511 L 384.846,-56.3371 L 385.135,-57.1216 L 385.582,-57.8286
 L 386.166,-58.4274 L 386.861,-58.8917 L 387.638,-59.2013 L 388.462,-59.3426 L 389.298,-59.3095 L 390.108,-59.1033
 L 480.407,-25.7522 L 481.372,-25.2361 L 481.993,-24.6765 L 482.485,-24 L 482.825,-23.2361 L 482.999,-22.4181
 L 482.999,-21.5819 L 482.825,-20.7639 L 482.485,-20 L 481.993,-19.3235 L 481.372,-18.7639 L 480.648,-18.3458
 L 479.852,-18.0874 L 479.021,-18 z
M 572.833,-18 L 571.597,-18.1958 L 570.833,-18.5359 L 570.157,-19.0274 L 569.597,-19.6489 L 569.179,-20.373
 L 568.921,-21.1684 L 568.833,-22 L 568.833,-55.3511 L 568.957,-56.3371 L 569.246,-57.1216 L 569.693,-57.8286
 L 570.277,-58.4274 L 570.972,-58.8917 L 571.749,-59.2013 L 572.573,-59.3426 L 573.409,-59.3095 L 574.219,-59.1033
 L 664.518,-25.7522 L 665.483,-25.2361 L 666.105,-24.6765 L 666.596,-24 L 666.936,-23.2361 L 667.11,-22.4181
 L 667.11,-21.5819 L 666.936,-20.7639 L 666.596,-20 L 666.105,-19.3235 L 665.483,-18.7639 L 664.759,-18.3458
 L 663.964,-18.0874 L 663.132,-18 z
M 1008.87,-18 L 1008.04,-18.0874 L 1007.24,-18.3458 L 1006.52,-18.7639 L 1005.9,-19.3235 L 1005.4,-20
 L 1005.06,-20.7639 L 1004.89,-21.5819 L 1004.89,-22.4181 L 1005.06,-23.2361 L 1005.4,-24 L 1005.9,-24.6765
 L 1006.52,-25.2361 L 1007.48,-25.7522 L 1097.78,-59.1033 L 1098.59,-59.3095 L 1099.43,-59.3426 L 1100.25,-59.2013
 L 1101.03,-58.8917 L 1101.72,-58.4274 L 1102.31,-57.8286 L 1102.75,-57.1216 L 1103.04,-56.3371 L 1103.17,-55.3511
 L 1103.17,-22 L 1103.08,-21.1684 L 1102.82,-20.373 L 1102.4,-19.6489 L 1101.84,-19.0274 L 1101.17,-18.5359
 L 1100.4,-18.1958 L 1099.17,-18 z
M 1192.98,-18 L 1192.15,-18.0874 L 1191.35,-18.3458 L 1190.63,-18.7639 L 1190.01,-19.3235 L 1189.52,-20
 L 1189.17,-20.7639 L 1189,-21.5819 L 1189,-22.4181 L 1189.17,-23.2361 L 1189.52,-24 L 1190.01,-24.6765
 L 1190.63,-25.2361 L 1191.59,-25.7522 L 1281.89,-59.1033 L 1282.7,-59.3095 L 1283.54,-59.3426 L 1284.36,-59.2013
 L 1285.14,-58.8917 L 1285.83,-58.4274 L 1286.42,-57.8286 L 1286.86,-57.1216 L 1287.15,-56.3371 L 1287.28,-55.3511
 L 1287.28,-22 L 1287.19,-21.1684 L 1286.93,-20.373 L 1286.51,-19.6489 L 1285.95,-19.0274 L 1285.28,-18.5359
 L 1284.51,-18.1958 L 1283.28,-18 z
M 1377.09,-18 L 1376.26,-18.0874 L 1375.46,-18.3458 L 1374.74,-18.7639 L 1374.12,-19.3235 L 1373.63,-20
 L 1373.29,-20.7639 L 1373.11,-21.5819 L 1373.11,-22.4181 L 1373.29,-23.2361 L 1373.63,-24 L 1374.12,-24.6765
 L 1374.74,-25.2361 L 1375.7,-25.7522 L 1466,-59.1033 L 1466.81,-59.3095 L 1467.65,-59.3426 L 1468.47,-59.2013
 L 1469.25,-58.8917 L 1469.95,-58.4274 L 1470.53,-57.8286 L 1470.98,-57.1216 L 1471.27,-56.3371 L 1471.39,-55.3511
 L 1471.39,-22 L 1471.3,-21.1684 L 1471.04,-20.373 L 1470.62,-19.6489 L 1470.07,-19.0274 L 1469.39,-18.5359
 L 1468.62,-18.1958 L 1467.39,-18 z
M 22,-18 L 20.7639,-18.1958 L 20,-18.5359 L 19.3235,-19.0274 L 18.7639,-19.6489 L 18.3458,-20.373
 L 18.0874,-21.1684 L 18,-22 L 18,-54.7971 L 18.1234,-55.7831 L 18.4132,-56.5676 L 18.8596,-57.2746
 L 19.4434,-57.8734 L 20.1389,-58.3377 L 20.9157,-58.6473 L 21.7399,-58.7886 L 22.5754,-58.7555 L 23.3859,-58.5493
 L 112.184,-25.7522 L 113.15,-25.2361 L 113.771,-24.6765 L 114.263,-24 L 114.603,-23.2361 L 114.777,-22.4181
 L 114.777,-21.5819 L 114.603,-20.7639 L 114.263,-20 L 113.771,-19.3235 L 113.15,-18.7639 L 112.426,-18.3458
 L 111.63,-18.0874 L 110.799,-18 z
M 1561.2,-18 L 1560.37,-18.0874 L 1559.57,-18.3458 L 1558.85,-18.7639 L 1558.23,-19.3235 L 1557.74,-20
 L 1557.4,-20.7639 L 1557.22,-21.5819 L 1557.22,-22.4181 L 1557.4,-23.2361 L 1557.74,-24 L 1558.23,-24.6765
 L 1558.85,-25.2361 L 1559.82,-25.7522 L 1648.61,-58.5493 L 1649.42,-58.7555 L 1650.26,-58.7886 L 1651.08,-58.6473
 L 1651.86,-58.3377 L 1652.56,-57.8734 L 1653.14,-57.2746 L 1653.59,-56.5676 L 1653.88,-55.7831 L 1654,-54.7971
 L 1654,-22 L 1653.91,-21.1684 L 1653.65,-20.373 L 1653.24,-19.6489 L 1652.68,-19.0274 L 1652,-18.5359
 L 1651.24,-18.1958 L 1650,-18 z
M 818.989,-18 L 817.905,-18.1498 L 817.128,-18.4594 L 816.432,-18.9237 L 815.849,-19.5225 L 815.402,-20.2295
 L 815.112,-21.0139 L 814.992,-21.8415 L 815.046,-22.6759 L 815.273,-23.4809 L 815.662,-24.221 L 816.197,-24.8642
 L 816.853,-25.3821 L 817.603,-25.7522 L 834.614,-32.0352 L 835.74,-32.2745 L 836.575,-32.2413 L 837.386,-32.0352
 L 854.397,-25.7522 L 855.362,-25.2361 L 855.984,-24.6765 L 856.475,-24 L 856.815,-23.2361 L 856.989,-22.4181
 L 856.989,-21.5819 L 856.815,-20.7639 L 856.475,-20 L 855.984,-19.3235 L 855.362,-18.7639 L 854.638,-18.3458
 L 853.843,-18.0874 L 853.011,-18 z
" stroke="black" fill="lightgray" stroke-width="0.5"/>
</svg>
