<?xml version="1.0" standalone="no"?>
<!DOCTYPE svg PUBLIC "-//W3C//DTD SVG 1.1//EN" "http://www.w3.org/Graphics/SVG/1.1/DTD/svg11.dtd">
<svg width="1510mm" height="80mm" viewBox="0 -80 1510 80" xmlns="http://www.w3.org/2000/svg" version="1.1">
<title>OpenSCAD Model</title>
<path d="
M 1510,-80 L 0,-80 L 0,-0 L 4.95,-0 L 4.95,-6 L 5.00572,-6.53017
 L 5.17046,-7.03717 L 5.437,-7.49884 L 5.79372,-7.895 L 6.22499,-8.20836 L 6.71201,-8.42519 L 7.23344,-8.53603
 L 7.76654,-8.53603 L 8.28798,-8.42519 L 8.77499,-8.20836 L 9.20627,-7.895 L 9.56299,-7.49884 L 9.82953,-7.03717
 L 9.99426,-6.53017 L 10.05,-6 L 10.05,-0 L 191.825,-0 L 191.825,-6 L 191.881,-6.53017
 L 192.045,-7.03717 L 192.312,-7.49884 L 192.669,-7.895 L 193.1,-8.20836 L 193.587,-8.42519 L 194.108,-8.53603
 L 194.642,-8.53603 L 195.163,-8.42519 L 195.65,-8.20836 L 196.081,-7.895 L 196.438,-7.49884 L 196.705,-7.03717
 L 196.869,-6.53017 L 196.925,-6 L 196.925,-0 L 378.7,-0 L 378.7,-6 L 378.756,-6.53017
 L 378.92,-7.03717 L 379.187,-7.49884 L 379.544,-7.895 L 379.975,-8.20836 L 380.462,-8.42519 L 380.983,-8.53603
 L 381.517,-8.53603 L 382.038,-8.42519 L 382.525,-8.20836 L 382.956,-7.895 L 383.313,-7.49884 L 383.58,-7.03717
 L 383.744,-6.53017 L 383.8,-6 L 383.8,-0 L 565.575,-0 L 565.575,-6 L 565.631,-6.53017
 L 565.795,-7.03717 L 566.062,-7.49884 L 566.419,-7.895 L 566.85,-8.20836 L 567.337,-8.42519 L 567.858,-8.53603
 L 568.392,-8.53603 L 568.913,-8.42519 L 569.4,-8.20836 L 569.831,-7.895 L 570.188,-7.49884 L 570.455,-7.03717
 L 570.619,-6.53017 L 570.675,-6 L 570.675,-0 L 752.45,-0 L 752.45,-6 L 752.506,-6.53017
 L 752.67,-7.03717 L 752.937,-7.49884 L 753.294,-7.895 L 753.725,-8.20836 L 754.212,-8.42519 L 754.733,-8.53603
 L 755.267,-8.53603 L 755.788,-8.42519 L 756.275,-8.20836 L 756.706,-7.895 L 757.063,-7.49884 L 757.33,-7.03717
 L 757.494,-6.53017 L 757.55,-6 L 757.55,-0 L 939.325,-0 L 939.325,-6 L 939.381,-6.53017
 L 939.545,-7.03717 L 939.812,-7.49884 L 940.169,-7.895 L 940.6,-8.20836 L 941.087,-8.42519 L 941.608,-8.53603
 L 942.142,-8.53603 L 942.663,-8.42519 L 943.15,-8.20836 L 943.581,-7.895 L 943.938,-7.49884 L 944.205,-7.03717
 L 944.369,-6.53017 L 944.425,-6 L 944.425,-0 L 1126.2,-0 L 1126.2,-6 L 1126.26,-6.53017
 L 1126.42,-7.03717 L 1126.69,-7.49884 L 1127.04,-7.895 L 1127.47,-8.20836 L 1127.96,-8.42519 L 1128.48,-8.53603
 L 1129.02,-8.53603 L 1129.54,-8.42519 L 1130.02,-8.20836 L 1130.46,-7.895 L 1130.81,-7.49884 L 1131.08,-7.03717
 L 1131.24,-6.53017 L 1131.3,-6 L 1131.3,-0 L 1313.07,-0 L 1313.07,-6 L 1313.13,-6.53017
 L 1313.3,-7.03717 L 1313.56,-7.49884 L 1313.92,-7.895 L 1314.35,-8.20836 L 1314.84,-8.42519 L 1315.36,-8.53603
 L 1315.89,-8.53603 L 1316.41,-8.42519 L 1316.9,-8.20836 L 1317.33,-7.895 L 1317.69,-7.49884 L 1317.95,-7.03717
 L 1318.12,-6.53017 L 1318.17,-6 L 1318.17,-0 L 1499.95,-0 L 1499.95,-6 L 1500.01,-6.53017
 L 1500.17,-7.03717 L 1500.44,-7.49884 L 1500.79,-7.895 L 1501.22,-8.20836 L 1501.71,-8.42519 L 1502.23,-8.53603
 L 1502.77,-8.53603 L 1503.29,-8.42519 L 1503.77,-8.20836 L 1504.21,-7.895 L 1504.56,-7.49884 L 1504.83,-7.03717
 L 1504.99,-6.53017 L 1505.05,-6 L 1505.05,-0 L 1510,-0 z
M 193.861,-55.607 L 193.352,-55.6875 L 192.855,-55.8208 L 192.374,-56.0054 L 191.915,-56.2392 L 191.483,-56.5196
 L 191.083,-56.8437 L 190.719,-57.2079 L 190.395,-57.6081 L 190.114,-58.04 L 189.88,-58.4989 L 189.696,-58.9796
 L 189.563,-59.4771 L 189.482,-59.9857 L 189.455,-60.5 L 189.482,-61.0143 L 189.563,-61.5229 L 189.696,-62.0204
 L 189.88,-62.5011 L 190.114,-62.96 L 190.395,-63.3919 L 190.719,-63.7921 L 191.083,-64.1563 L 191.483,-64.4804
 L 191.825,-64.7024 L 191.825,-74 L 191.881,-74.5302 L 192.045,-75.0372 L 192.312,-75.4988 L 192.669,-75.895
 L 193.1,-76.2084 L 193.587,-76.4252 L 194.108,-76.536 L 194.642,-76.536 L 195.163,-76.4252 L 195.65,-76.2084
 L 196.081,-75.895 L 196.438,-75.4988 L 196.705,-75.0372 L 196.869,-74.5302 L 196.925,-74 L 196.925,-64.7024
 L 197.267,-64.4804 L 197.667,-64.1563 L 198.031,-63.7921 L 198.355,-63.3919 L 198.636,-62.96 L 198.87,-62.5011
 L 199.054,-62.0204 L 199.187,-61.5229 L 199.268,-61.0143 L 199.295,-60.5 L 199.268,-59.9857 L 199.187,-59.4771
 L 199.054,-58.9796 L 198.87,-58.4989 L 198.636,-58.04 L 198.355,-57.6081 L 198.031,-57.2079 L 197.667,-56.8437
 L 197.267,-56.5196 L 196.835,-56.2392 L 196.376,-56.0054 L 195.895,-55.8208 L 195.398,-55.6875 L 194.889,-55.607
 L 194.375,-55.58 z
M 1128.24,-55.607 L 1127.73,-55.6875 L 1127.23,-55.8208 L 1126.75,-56.0054 L 1126.29,-56.2392 L 1125.86,-56.5196
 L 1125.46,-56.8437 L 1125.09,-57.2079 L 1124.77,-57.6081 L 1124.49,-58.04 L 1124.26,-58.4989 L 1124.07,-58.9796
 L 1123.94,-59.4771 L 1123.86,-59.9857 L 1123.83,-60.5 L 1123.86,-61.0143 L 1123.94,-61.5229 L 1124.07,-62.0204
 L 1124.26,-62.5011 L 1124.49,-62.96 L 1124.77,-63.3919 L 1125.09,-63.7921 L 1125.46,-64.1563 L 1125.86,-64.4804
 L 1126.2,-64.7024 L 1126.2,-74 L 1126.26,-74.5302 L 1126.42,-75.0372 L 1126.69,-75.4988 L 1127.04,-75.895
 L 1127.48,-76.2084 L 1127.96,-76.4252 L 1128.48,-76.536 L 1129.02,-76.536 L 1129.54,-76.4252 L 1130.02,-76.2084
 L 1130.46,-75.895 L 1130.81,-75.4988 L 1131.08,-75.0372 L 1131.24,-74.5302 L 1131.3,-74 L 1131.3,-64.7024
 L 1131.64,-64.4804 L 1132.04,-64.1563 L 1132.41,-63.7921 L 1132.73,-63.3919 L 1133.01,-62.96 L 1133.24,-62.5011
 L 1133.43,-62.0204 L 1133.56,-61.5229 L 1133.64,-61.0143 L 1133.67,-60.5 L 1133.64,-59.9857 L 1133.56,-59.4771
 L 1133.43,-58.9796 L 1133.24,-58.4989 L 1133.01,-58.04 L 1132.73,-57.6081 L 1132.41,-57.2079 L 1132.04,-56.8437
 L 1131.64,-56.5196 L 1131.21,-56.2392 L 1130.75,-56.0054 L 1130.27,-55.8208 L 1129.77,-55.6875 L 1129.26,-55.607
 L 1128.75,-55.58 z
M 941.361,-55.607 L 940.852,-55.6875 L 940.355,-55.8208 L 939.874,-56.0054 L 939.415,-56.2392 L 938.983,-56.5196
 L 938.583,-56.8437 L 938.219,-57.2079 L 937.895,-57.6081 L 937.614,-58.04 L 937.38,-58.4989 L 937.196,-58.9796
 L 937.063,-59.4771 L 936.982,-59.9857 L 936.955,-60.5 L 936.982,-61.0143 L 937.063,-61.5229 L 937.196,-62.0204
 L 937.38,-62.5011 L 937.614,-62.96 L 937.895,-63.3919 L 938.219,-63.7921 L 938.583,-64.1563 L 938.983,-64.4804
 L 939.325,-64.7024 L 939.325,-74 L 939.381,-74.5302 L 939.545,-75.0372 L 939.812,-75.4988 L 940.169,-75.895
 L 940.6,-76.2084 L 941.087,-76.4252 L 941.608,-76.536 L 942.142,-76.536 L 942.663,-76.4252 L 943.15,-76.2084
 L 943.581,-75.895 L 943.938,-75.4988 L 944.205,-75.0372 L 944.369,-74.5302 L 944.425,-74 L 944.425,-64.7024
 L 944.767,-64.4804 L 945.167,-64.1563 L 945.531,-63.7921 L 945.855,-63.3919 L 946.136,-62.96 L 946.37,-62.5011
 L 946.554,-62.0204 L 946.687,-61.5229 L 946.768,-61.0143 L 946.795,-60.5 L 946.768,-59.9857 L 946.687,-59.4771
 L 946.554,-58.9796 L 946.37,-58.4989 L 946.136,-58.04 L 945.855,-57.6081 L 945.531,-57.2079 L 945.167,-56.8437
 L 944.767,-56.5196 L 944.335,-56.2392 L 943.876,-56.0054 L 943.395,-55.8208 L 942.898,-55.6875 L 942.389,-55.607
 L 941.875,-55.58 z
M 6.98573,-55.607 L 6.47708,-55.6875 L 5.97964,-55.8208 L 5.49887,-56.0054 L 5.04001,-56.2392 L 4.60811,-56.5196
 L 4.20789,-56.8437 L 3.84373,-57.2079 L 3.51964,-57.6081 L 3.23917,-58.04 L 3.00537,-58.4989 L 2.82082,-58.9796
 L 2.68752,-59.4771 L 2.60696,-59.9857 L 2.58,-60.5 L 2.60696,-61.0143 L 2.68752,-61.5229 L 2.82082,-62.0204
 L 3.00537,-62.5011 L 3.23917,-62.96 L 3.51964,-63.3919 L 3.84373,-63.7921 L 4.20789,-64.1563 L 4.60811,-64.4804
 L 4.95001,-64.7024 L 4.95001,-74 L 5.00574,-74.5302 L 5.17047,-75.0372 L 5.43701,-75.4988 L 5.79373,-75.895
 L 6.22501,-76.2084 L 6.71202,-76.4252 L 7.23346,-76.536 L 7.76654,-76.536 L 8.28798,-76.4252 L 8.77499,-76.2084
 L 9.20627,-75.895 L 9.56299,-75.4988 L 9.82953,-75.0372 L 9.99426,-74.5302 L 10.05,-74 L 10.05,-64.7024
 L 10.3919,-64.4804 L 10.7921,-64.1563 L 11.1563,-63.7921 L 11.4804,-63.3919 L 11.7608,-62.96 L 11.9946,-62.5011
 L 12.1792,-62.0204 L 12.3125,-61.5229 L 12.393,-61.0143 L 12.42,-60.5 L 12.393,-59.9857 L 12.3125,-59.4771
 L 12.1792,-58.9796 L 11.9946,-58.4989 L 11.7608,-58.04 L 11.4804,-57.6081 L 11.1563,-57.2079 L 10.7921,-56.8437
 L 10.3919,-56.5196 L 9.95999,-56.2392 L 9.50113,-56.0054 L 9.02036,-55.8208 L 8.52292,-55.6875 L 8.01427,-55.607
 L 7.5,-55.58 z
M 754.486,-55.607 L 753.977,-55.6875 L 753.48,-55.8208 L 752.999,-56.0054 L 752.54,-56.2392 L 752.108,-56.5196
 L 751.708,-56.8437 L 751.344,-57.2079 L 751.02,-57.6081 L 750.739,-58.04 L 750.505,-58.4989 L 750.321,-58.9796
 L 750.188,-59.4771 L 750.107,-59.9857 L 750.08,-60.5 L 750.107,-61.0143 L 750.188,-61.5229 L 750.321,-62.0204
 L 750.505,-62.5011 L 750.739,-62.96 L 751.02,-63.3919 L 751.344,-63.7921 L 751.708,-64.1563 L 752.108,-64.4804
 L 752.45,-64.7024 L 752.45,-74 L 752.506,-74.5302 L 752.67,-75.0372 L 752.937,-75.4988 L 753.294,-75.895
 L 753.725,-76.2084 L 754.212,-76.4252 L 754.733,-76.536 L 755.267,-76.536 L 755.788,-76.4252 L 756.275,-76.2084
 L 756.706,-75.895 L 757.063,-75.4988 L 757.33,-75.0372 L 757.494,-74.5302 L 757.55,-74 L 757.55,-64.7024
 L 757.892,-64.4804 L 758.292,-64.1563 L 758.656,-63.7921 L 758.98,-63.3919 L 759.261,-62.96 L 759.495,-62.5011
 L 759.679,-62.0204 L 759.812,-61.5229 L 759.893,-61.0143 L 759.92,-60.5 L 759.893,-59.9857 L 759.812,-59.4771
 L 759.679,-58.9796 L 759.495,-58.4989 L 759.261,-58.04 L 758.98,-57.6081 L 758.656,-57.2079 L 758.292,-56.8437
 L 757.892,-56.5196 L 757.46,-56.2392 L 757.001,-56.0054 L 756.52,-55.8208 L 756.023,-55.6875 L 755.514,-55.607
 L 755,-55.58 z
M 1315.11,-55.607 L 1314.6,-55.6875 L 1314.1,-55.8208 L 1313.62,-56.0054 L 1313.17,-56.2392 L 1312.73,-56.5196
 L 1312.33,-56.8437 L 1311.97,-57.2079 L 1311.64,-57.6081 L 1311.36,-58.04 L 1311.13,-58.4989 L 1310.95,-58.9796
 L 1310.81,-59.4771 L 1310.73,-59.9857 L 1310.71,-60.5 L 1310.73,-61.0143 L 1310.81,-61.5229 L 1310.95,-62.0204
 L 1311.13,-62.5011 L 1311.36,-62.96 L 1311.64,-63.3919 L 1311.97,-63.7921 L 1312.33,-64.1563 L 1312.73,-64.4804
 L 1313.08,-64.7024 L 1313.08,-74 L 1313.13,-74.5302 L 1313.3,-75.0372 L 1313.56,-75.4988 L 1313.92,-75.895
 L 1314.35,-76.2084 L 1314.84,-76.4252 L 1315.36,-76.536 L 1315.89,-76.536 L 1316.41,-76.4252 L 1316.9,-76.2084
 L 1317.33,-75.895 L 1317.69,-75.4988 L 1317.95,-75.0372 L 1318.12,-74.5302 L 1318.17,-74 L 1318.17,-64.7024
 L 1318.52,-64.4804 L 1318.92,-64.1563 L 1319.28,-63.7921 L 1319.61,-63.3919 L 1319.89,-62.96 L 1320.12,-62.5011
 L 1320.3,-62.0204 L 1320.44,-61.5229 L 1320.52,-61.0143 L 1320.54,-60.5 L 1320.52,-59.9857 L 1320.44,-59.4771
 L 1320.3,-58.9796 L 1320.12,-58.4989 L 1319.89,-58.04 L 1319.61,-57.6081 L 1319.28,-57.2079 L 1318.92,-56.8437
 L 1318.52,-56.5196 L 1318.08,-56.2392 L 1317.63,-56.0054 L 1317.15,-55.8208 L 1316.65,-55.6875 L 1316.14,-55.607
 L 1315.62,-55.58 z
M 567.611,-55.607 L 567.102,-55.6875 L 566.605,-55.8208 L 566.124,-56.0054 L 565.665,-56.2392 L 565.233,-56.5196
 L 564.833,-56.8437 L 564.469,-57.2079 L 564.145,-57.6081 L 563.864,-58.04 L 563.63,-58.4989 L 563.446,-58.9796
 L 563.313,-59.4771 L 563.232,-59.9857 L 563.205,-60.5 L 563.232,-61.0143 L 563.313,-61.5229 L 563.446,-62.0204
 L 563.63,-62.5011 L 563.864,-62.96 L 564.145,-63.3919 L 564.469,-63.7921 L 564.833,-64.1563 L 565.233,-64.4804
 L 565.575,-64.7024 L 565.575,-74 L 565.631,-74.5302 L 565.795,-75.0372 L 566.062,-75.4988 L 566.419,-75.895
 L 566.85,-76.2084 L 567.337,-76.4252 L 567.858,-76.536 L 568.392,-76.536 L 568.913,-76.4252 L 569.4,-76.2084
 L 569.831,-75.895 L 570.188,-75.4988 L 570.455,-75.0372 L 570.619,-74.5302 L 570.675,-74 L 570.675,-64.7024
 L 571.017,-64.4804 L 571.417,-64.1563 L 571.781,-63.7921 L 572.105,-63.3919 L 572.386,-62.96 L 572.62,-62.5011
 L 572.804,-62.0204 L 572.937,-61.5229 L 573.018,-61.0143 L 573.045,-60.5 L 573.018,-59.9857 L 572.937,-59.4771
 L 572.804,-58.9796 L 572.62,-58.4989 L 572.386,-58.04 L 572.105,-57.6081 L 571.781,-57.2079 L 571.417,-56.8437
 L 571.017,-56.5196 L 570.585,-56.2392 L 570.126,-56.0054 L 569.645,-55.8208 L 569.148,-55.6875 L 568.639,-55.607
 L 568.125,-55.58 z
M 380.736,-55.607 L 380.227,-55.6875 L 379.73,-55.8208 L 379.249,-56.0054 L 378.79,-56.2392 L 378.358,-56.5196
 L 377.958,-56.8437 L 377.594,-57.2079 L 377.27,-57.6081 L 376.989,-58.04 L 376.755,-58.4989 L 376.571,-58.9796
 L 376.438,-59.4771 L 376.357,-59.9857 L 376.33,-60.5 L 376.357,-61.0143 L 376.438,-61.5229 L 376.571,-62.0204
 L 376.755,-62.5011 L 376.989,-62.96 L 377.27,-63.3919 L 377.594,-63.7921 L 377.958,-64.1563 L 378.358,-64.4804
 L 378.7,-64.7024 L 378.7,-74 L 378.756,-74.5302 L 378.92,-75.0372 L 379.187,-75.4988 L 379.544,-75.895
 L 379.975,-76.2084 L 380.462,-76.4252 L 380.983,-76.536 L 381.517,-76.536 L 382.038,-76.4252 L 382.525,-76.2084
 L 382.956,-75.895 L 383.313,-75.4988 L 383.58,-75.0372 L 383.744,-74.5302 L 383.8,-74 L 383.8,-64.7024
 L 384.142,-64.4804 L 384.542,-64.1563 L 384.906,-63.7921 L 385.23,-63.3919 L 385.511,-62.96 L 385.745,-62.5011
 L 385.929,-62.0204 L 386.062,-61.5229 L 386.143,-61.0143 L 386.17,-60.5 L 386.143,-59.9857 L 386.062,-59.4771
 L 385.929,-58.9796 L 385.745,-58.4989 L 385.511,-58.04 L 385.23,-57.6081 L 384.906,-57.2079 L 384.542,-56.8437
 L 384.142,-56.5196 L 383.71,-56.2392 L 383.251,-56.0054 L 382.77,-55.8208 L 382.273,-55.6875 L 381.764,-55.607
 L 381.25,-55.58 z
M 1501.99,-55.607 L 1501.48,-55.6875 L 1500.98,-55.8208 L 1500.5,-56.0054 L 1500.04,-56.2392 L 1499.61,-56.5196
 L 1499.21,-56.8437 L 1498.84,-57.2079 L 1498.52,-57.6081 L 1498.24,-58.04 L 1498.01,-58.4989 L 1497.82,-58.9796
 L 1497.69,-59.4771 L 1497.61,-59.9857 L 1497.58,-60.5 L 1497.61,-61.0143 L 1497.69,-61.5229 L 1497.82,-62.0204
 L 1498.01,-62.5011 L 1498.24,-62.96 L 1498.52,-63.3919 L 1498.84,-63.7921 L 1499.21,-64.1563 L 1499.61,-64.4804
 L 1499.95,-64.7024 L 1499.95,-74 L 1500.01,-74.5302 L 1500.17,-75.0372 L 1500.44,-75.4988 L 1500.79,-75.895
 L 1501.23,-76.2084 L 1501.71,-76.4252 L 1502.23,-76.536 L 1502.77,-76.536 L 1503.29,-76.4252 L 1503.77,-76.2084
 L 1504.21,-75.895 L 1504.56,-75.4988 L 1504.83,-75.0372 L 1504.99,-74.5302 L 1505.05,-74 L 1505.05,-64.7024
 L 1505.39,-64.4804 L 1505.79,-64.1563 L 1506.16,-63.7921 L 1506.48,-63.3919 L 1506.76,-62.96 L 1506.99,-62.5011
 L 1507.18,-62.0204 L 1507.31,-61.5229 L 1507.39,-61.0143 L 1507.42,-60.5 L 1507.39,-59.9857 L 1507.31,-59.4771
 L 1507.18,-58.9796 L 1506.99,-58.4989 L 1506.76,-58.04 L 1506.48,-57.6081 L 1506.16,-57.2079 L 1505.79,-56.8437
 L 1505.39,-56.5196 L 1504.96,-56.2392 L 1504.5,-56.0054 L 1504.02,-55.8208 L 1503.52,-55.6875 L 1503.01,-55.607
 L 1502.5,-55.58 z
M 367.694,-20.5948 L 366.882,-20.7971 L 274.973,-54.2411 L 273.989,-54.7639 L 273.368,-55.3235 L 272.876,-56
 L 272.536,-56.7639 L 272.362,-57.5819 L 272.362,-58.4181 L 272.536,-59.2361 L 272.876,-60 L 273.368,-60.6765
 L 273.989,-61.2361 L 274.713,-61.6542 L 275.509,-61.9126 L 276.34,-62 L 368.25,-62 L 369.486,-61.8042
 L 370.25,-61.4641 L 370.927,-60.9726 L 371.486,-60.3511 L 371.904,-59.627 L 372.163,-58.8316 L 372.25,-58
 L 372.25,-24.5559 L 372.131,-23.5886 L 371.845,-22.8027 L 371.402,-22.0936 L 370.821,-21.492 L 370.128,-21.0243
 L 369.353,-20.711 L 368.529,-20.5657 z
M 554.569,-20.5948 L 553.757,-20.7971 L 461.848,-54.2411 L 460.864,-54.7639 L 460.243,-55.3235 L 459.751,-56
 L 459.411,-56.7639 L 459.237,-57.5819 L 459.237,-58.4181 L 459.411,-59.2361 L 459.751,-60 L 460.243,-60.6765
 L 460.864,-61.2361 L 461.588,-61.6542 L 462.384,-61.9126 L 463.215,-62 L 555.125,-62 L 556.361,-61.8042
 L 557.125,-61.4641 L 557.802,-60.9726 L 558.361,-60.3511 L 558.779,-59.627 L 559.038,-58.8316 L 559.125,-58
 L 559.125,-24.5559 L 559.006,-23.5886 L 558.72,-22.8027 L 558.277,-22.0936 L 557.696,-21.492 L 557.003,-21.0243
 L 556.228,-20.711 L 555.404,-20.5657 z
M 1327.52,-20.711 L 1326.75,-21.0243 L 1326.05,-21.492 L 1325.47,-22.0936 L 1325.03,-22.8027 L 1324.74,-23.5886
 L 1324.62,-24.5559 L 1324.62,-58 L 1324.71,-58.8316 L 1324.97,-59.627 L 1325.39,-60.3511 L 1325.95,-60.9726
 L 1326.62,-61.4641 L 1327.39,-61.8042 L 1328.62,-62 L 1420.53,-62 L 1421.37,-61.9126 L 1422.16,-61.6542
 L 1422.89,-61.2361 L 1423.51,-60.6765 L 1424,-60 L 1424.34,-59.2361 L 1424.51,-58.4181 L 1424.51,-57.5819
 L 1424.34,-56.7639 L 1424,-56 L 1423.51,-55.3235 L 1422.89,-54.7639 L 1421.9,-54.2411 L 1329.99,-20.7971
 L 1329.18,-20.5948 L 1328.35,-20.5657 z
M 741.444,-20.5948 L 740.632,-20.7971 L 648.723,-54.2411 L 647.739,-54.7639 L 647.118,-55.3235 L 646.626,-56
 L 646.286,-56.7639 L 646.112,-57.5819 L 646.112,-58.4181 L 646.286,-59.2361 L 646.626,-60 L 647.118,-60.6765
 L 647.739,-61.2361 L 648.463,-61.6542 L 649.259,-61.9126 L 650.09,-62 L 742,-62 L 743.236,-61.8042
 L 744,-61.4641 L 744.677,-60.9726 L 745.236,-60.3511 L 745.654,-59.627 L 745.913,-58.8316 L 746,-58
 L 746,-24.5559 L 745.881,-23.5886 L 745.595,-22.8027 L 745.152,-22.0936 L 744.571,-21.492 L 743.878,-21.0243
 L 743.103,-20.711 L 742.279,-20.5657 z
M 180.819,-20.5948 L 180.007,-20.7971 L 88.0975,-54.2411 L 87.1142,-54.7639 L 86.4927,-55.3235 L 86.0012,-56
 L 85.6611,-56.7639 L 85.4872,-57.5819 L 85.4872,-58.4181 L 85.6611,-59.2361 L 86.0012,-60 L 86.4927,-60.6765
 L 87.1142,-61.2361 L 87.8384,-61.6542 L 88.6337,-61.9126 L 89.4653,-62 L 181.375,-62 L 182.611,-61.8042
 L 183.375,-61.4641 L 184.052,-60.9726 L 184.611,-60.3511 L 185.029,-59.627 L 185.288,-58.8316 L 185.375,-58
 L 185.375,-24.5559 L 185.256,-23.5886 L 184.97,-22.8027 L 184.527,-22.0936 L 183.946,-21.492 L 183.253,-21.0243
 L 182.478,-20.711 L 181.654,-20.5657 z
M 766.897,-20.711 L 766.122,-21.0243 L 765.429,-21.492 L 764.848,-22.0936 L 764.405,-22.8027 L 764.119,-23.5886
 L 764,-24.5559 L 764,-58 L 764.087,-58.8316 L 764.346,-59.627 L 764.764,-60.3511 L 765.323,-60.9726
 L 766,-61.4641 L 766.764,-61.8042 L 768,-62 L 859.91,-62 L 860.741,-61.9126 L 861.537,-61.6542
 L 862.261,-61.2361 L 862.882,-60.6765 L 863.374,-60 L 863.714,-59.2361 L 863.888,-58.4181 L 863.888,-57.5819
 L 863.714,-56.7639 L 863.374,-56 L 862.882,-55.3235 L 862.261,-54.7639 L 861.277,-54.2411 L 769.368,-20.7971
 L 768.556,-20.5948 L 767.721,-20.5657 z
M 953.772,-20.711 L 952.997,-21.0243 L 952.304,-21.492 L 951.723,-22.0936 L 951.28,-22.8027 L 950.994,-23.5886
 L 950.875,-24.5559 L 950.875,-58 L 950.962,-58.8316 L 951.221,-59.627 L 951.639,-60.3511 L 952.198,-60.9726
 L 952.875,-61.4641 L 953.639,-61.8042 L 954.875,-62 L 1046.78,-62 L 1047.62,-61.9126 L 1048.41,-61.6542
 L 1049.14,-61.2361 L 1049.76,-60.6765 L 1050.25,-60 L 1050.59,-59.2361 L 1050.76,-58.4181 L 1050.76,-57.5819
 L 1050.59,-56.7639 L 1050.25,-56 L 1049.76,-55.3235 L 1049.14,-54.7639 L 1048.15,-54.2411 L 956.243,-20.7971
 L 955.431,-20.5948 L 954.596,-20.5657 z
M 1140.65,-20.711 L 1139.87,-21.0243 L 1139.18,-21.492 L 1138.6,-22.0936 L 1138.15,-22.8027 L 1137.87,-23.5886
 L 1137.75,-24.5559 L 1137.75,-58 L 1137.84,-58.8316 L 1138.1,-59.627 L 1138.51,-60.3511 L 1139.07,-60.9726
 L 1139.75,-61.4641 L 1140.51,-61.8042 L 1141.75,-62 L 1233.66,-62 L 1234.49,-61.9126 L 1235.29,-61.6542
 L 1236.01,-61.2361 L 1236.63,-60.6765 L 1237.12,-60 L 1237.46,-59.2361 L 1237.64,-58.4181 L 1237.64,-57.5819
 L 1237.46,-56.7639 L 1237.12,-56 L 1236.63,-55.3235 L 1236.01,-54.7639 L 1235.03,-54.2411 L 1143.12,-20.7971
 L 1142.31,-20.5948 L 1141.47,-20.5657 z
M 207.375,-18 L 206.139,-18.1958 L 205.375,-18.5359 L 204.698,-19.0274 L 204.139,-19.6489 L 203.721,-20.373
 L 203.462,-21.1684 L 203.375,-22 L 203.375,-55.444 L 203.494,-56.4114 L 203.78,-57.1972 L 204.223,-57.9064
 L 204.804,-58.508 L 205.497,-58.9757 L 206.272,-59.289 L 207.096,-59.4343 L 207.931,-59.4052 L 208.743,-59.2029
 L 300.652,-25.7589 L 301.636,-25.2361 L 302.257,-24.6765 L 302.749,-24 L 303.089,-23.2361 L 303.263,-22.4181
 L 303.263,-21.5819 L 303.089,-20.7639 L 302.749,-20 L 302.257,-19.3235 L 301.636,-18.7639 L 300.912,-18.3458
 L 300.116,-18.0874 L 299.285,-18 z
M 394.25,-18 L 393.014,-18.1958 L 392.25,-18.5359 L 391.573,-19.0274 L 391.014,-19.6489 L 390.596,-20.373
 L 390.337,-21.1684 L 390.25,-22 L 390.25,-55.444 L 390.369,-56.4114 L 390.655,-57.1972 L 391.098,-57.9064
 L 391.679,-58.508 L 392.372,-58.9757 L 393.147,-59.289 L 393.971,-59.4343 L 394.806,-59.4052 L 395.618,-59.2029
 L 487.527,-25.7589 L 488.511,-25.2361 L 489.132,-24.6765 L 489.624,-24 L 489.964,-23.2361 L 490.138,-22.4181
 L 490.138,-21.5819 L 489.964,-20.7639 L 489.624,-20 L 489.132,-19.3235 L 488.511,-18.7639 L 487.787,-18.3458
 L 486.991,-18.0874 L 486.16,-18 z
M 581.125,-18 L 579.889,-18.1958 L 579.125,-18.5359 L 578.448,-19.0274 L 577.889,-19.6489 L 577.471,-20.373
 L 577.212,-21.1684 L 577.125,-22 L 577.125,-55.444 L 577.244,-56.4114 L 577.53,-57.1972 L 577.973,-57.9064
 L 578.554,-58.508 L 579.247,-58.9757 L 580.022,-59.289 L 580.846,-59.4343 L 581.681,-59.4052 L 582.493,-59.2029
 L 674.402,-25.7589 L 675.386,-25.2361 L 676.007,-24.6765 L 676.499,-24 L 676.839,-23.2361 L 677.013,-22.4181
 L 677.013,-21.5819 L 676.839,-20.7639 L 676.499,-20 L 676.007,-19.3235 L 675.386,-18.7639 L 674.662,-18.3458
 L 673.866,-18.0874 L 673.035,-18 z
M 836.965,-18 L 836.134,-18.0874 L 835.338,-18.3458 L 834.614,-18.7639 L 833.993,-19.3235 L 833.501,-20
 L 833.161,-20.7639 L 832.987,-21.5819 L 832.987,-22.4181 L 833.161,-23.2361 L 833.501,-24 L 833.993,-24.6765
 L 834.614,-25.2361 L 835.598,-25.7589 L 927.507,-59.2029 L 928.319,-59.4052 L 929.154,-59.4343 L 929.978,-59.289
 L 930.753,-58.9757 L 931.446,-58.508 L 932.027,-57.9064 L 932.47,-57.1972 L 932.756,-56.4114 L 932.875,-55.444
 L 932.875,-22 L 932.788,-21.1684 L 932.529,-20.373 L 932.111,-19.6489 L 931.552,-19.0274 L 930.875,-18.5359
 L 930.111,-18.1958 L 928.875,-18 z
M 1023.84,-18 L 1023.01,-18.0874 L 1022.21,-18.3458 L 1021.49,-18.7639 L 1020.87,-19.3235 L 1020.38,-20
 L 1020.04,-20.7639 L 1019.86,-21.5819 L 1019.86,-22.4181 L 1020.04,-23.2361 L 1020.38,-24 L 1020.87,-24.6765
 L 1021.49,-25.2361 L 1022.47,-25.7589 L 1114.38,-59.2029 L 1115.19,-59.4052 L 1116.03,-59.4343 L 1116.85,-59.289
 L 1117.63,-58.9757 L 1118.32,-58.508 L 1118.9,-57.9064 L 1119.35,-57.1972 L 1119.63,-56.4114 L 1119.75,-55.444
 L 1119.75,-22 L 1119.66,-21.1684 L 1119.4,-20.373 L 1118.99,-19.6489 L 1118.43,-19.0274 L 1117.75,-18.5359
 L 1116.99,-18.1958 L 1115.75,-18 z
M 1210.72,-18 L 1209.88,-18.0874 L 1209.09,-18.3458 L 1208.36,-18.7639 L 1207.74,-19.3235 L 1207.25,-20
 L 1206.91,-20.7639 L 1206.74,-21.5819 L 1206.74,-22.4181 L 1206.91,-23.2361 L 1207.25,-24 L 1207.74,-24.6765
 L 1208.36,-25.2361 L 1209.35,-25.7589 L 1301.26,-59.2029 L 1302.07,-59.4052 L 1302.9,-59.4343 L 1303.73,-59.289
 L 1304.5,-58.9757 L 1305.2,-58.508 L 1305.78,-57.9064 L 1306.22,-57.1972 L 1306.51,-56.4114 L 1306.62,-55.444
 L 1306.62,-22 L 1306.54,-21.1684 L 1306.28,-20.373 L 1305.86,-19.6489 L 1305.3,-19.0274 L 1304.62,-18.5359
 L 1303.86,-18.1958 L 1302.62,-18 z
M 1397.59,-18 L 1396.76,-18.0874 L 1395.96,-18.3458 L 1395.24,-18.7639 L 1394.62,-19.3235 L 1394.13,-20
 L 1393.79,-20.7639 L 1393.61,-21.5819 L 1393.61,-22.4181 L 1393.79,-23.2361 L 1394.13,-24 L 1394.62,-24.6765
 L 1395.24,-25.2361 L 1396.22,-25.7589 L 1486.63,-58.6571 L 1487.44,-58.8593 L 1488.28,-58.8885 L 1489.1,-58.7432
 L 1489.88,-58.4299 L 1490.57,-57.9622 L 1491.15,-57.3606 L 1491.6,-56.6514 L 1491.88,-55.8656 L 1492,-54.8982
 L 1492,-22 L 1491.91,-21.1684 L 1491.65,-20.373 L 1491.24,-19.6489 L 1490.68,-19.0274 L 1490,-18.5359
 L 1489.24,-18.1958 L 1488,-18 z
M 22,-18 L 20.7639,-18.1958 L 20,-18.5359 L 19.3235,-19.0274 L 18.7639,-19.6489 L 18.3458,-20.373
 L 18.0874,-21.1684 L 18,-22 L 18,-54.8982 L 18.1187,-55.8656 L 18.4047,-56.6514 L 18.8478,-57.3606
 L 19.4286,-57.9622 L 20.1218,-58.4299 L 20.8971,-58.7432 L 21.7207,-58.8885 L 22.5564,-58.8593 L 23.3678,-58.6571
 L 113.777,-25.7589 L 114.761,-25.2361 L 115.382,-24.6765 L 115.874,-24 L 116.214,-23.2361 L 116.388,-22.4181
 L 116.388,-21.5819 L 116.214,-20.7639 L 115.874,-20 L 115.382,-19.3235 L 114.761,-18.7639 L 114.037,-18.3458
 L 113.241,-18.0874 L 112.41,-18 z
" stroke="black" fill="lightgray" stroke-width="0.5"/>
</svg>
