<?xml version="1.0" standalone="no"?>
<!DOCTYPE svg PUBLIC "-//W3C//DTD SVG 1.1//EN" "http://www.w3.org/Graphics/SVG/1.1/DTD/svg11.dtd">
<svg width="1183mm" height="80mm" viewBox="0 -80 1183 80" xmlns="http://www.w3.org/2000/svg" version="1.1">
<title>OpenSCAD Model</title>
<path d="
M 1183,-80 L 0,-80 L 0,-0 L 4.95,-0 L 4.95,-6 L 5.00572,-6.53017
 L 5.17046,-7.03717 L 5.437,-7.49884 L 5.79372,-7.895 L 6.22499,-8.20836 L 6.71201,-8.42519 L 7.23344,-8.53603
 L 7.76654,-8.53603 L 8.28798,-8.42519 L 8.77499,-8.20836 L 9.20627,-7.895 L 9.56299,-7.49884 L 9.82953,-7.03717
 L 9.99426,-6.53017 L 10.05,-6 L 10.05,-0 L 199.617,-0 L 199.617,-6 L 199.672,-6.53017
 L 199.837,-7.03717 L 200.104,-7.49884 L 200.46,-7.895 L 200.892,-8.20836 L 201.379,-8.42519 L 201.9,-8.53603
 L 202.433,-8.53603 L 202.955,-8.42519 L 203.442,-8.20836 L 203.873,-7.895 L 204.23,-7.49884 L 204.496,-7.03717
 L 204.661,-6.53017 L 204.717,-6 L 204.717,-0 L 394.283,-0 L 394.283,-6 L 394.339,-6.53017
 L 394.504,-7.03717 L 394.77,-7.49884 L 395.127,-7.895 L 395.558,-8.20836 L 396.045,-8.42519 L 396.567,-8.53603
 L 397.1,-8.53603 L 397.621,-8.42519 L 398.108,-8.20836 L 398.54,-7.895 L 398.896,-7.49884 L 399.163,-7.03717
 L 399.328,-6.53017 L 399.383,-6 L 399.383,-0 L 588.95,-0 L 588.95,-6 L 589.006,-6.53017
 L 589.17,-7.03717 L 589.437,-7.49884 L 589.794,-7.895 L 590.225,-8.20836 L 590.712,-8.42519 L 591.233,-8.53603
 L 591.767,-8.53603 L 592.288,-8.42519 L 592.775,-8.20836 L 593.206,-7.895 L 593.563,-7.49884 L 593.83,-7.03717
 L 593.994,-6.53017 L 594.05,-6 L 594.05,-0 L 783.617,-0 L 783.617,-6 L 783.672,-6.53017
 L 783.837,-7.03717 L 784.104,-7.49884 L 784.46,-7.895 L 784.892,-8.20836 L 785.379,-8.42519 L 785.9,-8.53603
 L 786.433,-8.53603 L 786.955,-8.42519 L 787.442,-8.20836 L 787.873,-7.895 L 788.23,-7.49884 L 788.496,-7.03717
 L 788.661,-6.53017 L 788.717,-6 L 788.717,-0 L 978.283,-0 L 978.283,-6 L 978.339,-6.53017
 L 978.504,-7.03717 L 978.77,-7.49884 L 979.127,-7.895 L 979.558,-8.20836 L 980.045,-8.42519 L 980.567,-8.53603
 L 981.1,-8.53603 L 981.621,-8.42519 L 982.108,-8.20836 L 982.54,-7.895 L 982.896,-7.49884 L 983.163,-7.03717
 L 983.328,-6.53017 L 983.383,-6 L 983.383,-0 L 1172.95,-0 L 1172.95,-6 L 1173.01,-6.53017
 L 1173.17,-7.03717 L 1173.44,-7.49884 L 1173.79,-7.895 L 1174.22,-8.20836 L 1174.71,-8.42519 L 1175.23,-8.53603
 L 1175.77,-8.53603 L 1176.29,-8.42519 L 1176.77,-8.20836 L 1177.21,-7.895 L 1177.56,-7.49884 L 1177.83,-7.03717
 L 1177.99,-6.53017 L 1178.05,-6 L 1178.05,-0 L 1183,-0 z
M 6.98573,-55.607 L 6.47708,-55.6875 L 5.97964,-55.8208 L 5.49887,-56.0054 L 5.04001,-56.2392 L 4.60811,-56.5196
 L 4.20789,-56.8437 L 3.84373,-57.2079 L 3.51964,-57.6081 L 3.23917,-58.04 L 3.00537,-58.4989 L 2.82082,-58.9796
 L 2.68752,-59.4771 L 2.60696,-59.9857 L 2.58,-60.5 L 2.60696,-61.0143 L 2.68752,-61.5229 L 2.82082,-62.0204
 L 3.00537,-62.5011 L 3.23917,-62.96 L 3.51964,-63.3919 L 3.84373,-63.7921 L 4.20789,-64.1563 L 4.60811,-64.4804
 L 4.95001,-64.7024 L 4.95001,-74 L 5.00574,-74.5302 L 5.17047,-75.0372 L 5.43701,-75.4988 L 5.79373,-75.895
 L 6.22501,-76.2084 L 6.71202,-76.4252 L 7.23346,-76.536 L 7.76654,-76.536 L 8.28798,-76.4252 L 8.77499,-76.2084
 L 9.20627,-75.895 L 9.56299,-75.4988 L 9.82953,-75.0372 L 9.99426,-74.5302 L 10.05,-74 L 10.05,-64.7024
 L 10.3919,-64.4804 L 10.7921,-64.1563 L 11.1563,-63.7921 L 11.4804,-63.3919 L 11.7608,-62.96 L 11.9946,-62.5011
 L 12.1792,-62.0204 L 12.3125,-61.5229 L 12.393,-61.0143 L 12.42,-60.5 L 12.393,-59.9857 L 12.3125,-59.4771
 L 12.1792,-58.9796 L 11.9946,-58.4989 L 11.7608,-58.04 L 11.4804,-57.6081 L 11.1563,-57.2079 L 10.7921,-56.8437
 L 10.3919,-56.5196 L 9.95999,-56.2392 L 9.50113,-56.0054 L 9.02036,-55.8208 L 8.52292,-55.6875 L 8.01427,-55.607
 L 7.5,-55.58 z
M 201.652,-55.607 L 201.144,-55.6875 L 200.646,-55.8208 L 200.166,-56.0054 L 199.707,-56.2392 L 199.275,-56.5196
 L 198.875,-56.8437 L 198.51,-57.2079 L 198.186,-57.6081 L 197.906,-58.04 L 197.672,-58.4989 L 197.487,-58.9796
 L 197.354,-59.4771 L 197.274,-59.9857 L 197.247,-60.5 L 197.274,-61.0143 L 197.354,-61.5229 L 197.487,-62.0204
 L 197.672,-62.5011 L 197.906,-62.96 L 198.186,-63.3919 L 198.51,-63.7921 L 198.875,-64.1563 L 199.275,-64.4804
 L 199.617,-64.7024 L 199.617,-74 L 199.672,-74.5302 L 199.837,-75.0372 L 200.104,-75.4988 L 200.46,-75.895
 L 200.892,-76.2084 L 201.379,-76.4252 L 201.9,-76.536 L 202.433,-76.536 L 202.955,-76.4252 L 203.442,-76.2084
 L 203.873,-75.895 L 204.23,-75.4988 L 204.496,-75.0372 L 204.661,-74.5302 L 204.717,-74 L 204.717,-64.7024
 L 205.059,-64.4804 L 205.459,-64.1563 L 205.823,-63.7921 L 206.147,-63.3919 L 206.427,-62.96 L 206.661,-62.5011
 L 206.846,-62.0204 L 206.979,-61.5229 L 207.06,-61.0143 L 207.087,-60.5 L 207.06,-59.9857 L 206.979,-59.4771
 L 206.846,-58.9796 L 206.661,-58.4989 L 206.427,-58.04 L 206.147,-57.6081 L 205.823,-57.2079 L 205.459,-56.8437
 L 205.059,-56.5196 L 204.627,-56.2392 L 204.168,-56.0054 L 203.687,-55.8208 L 203.19,-55.6875 L 202.681,-55.607
 L 202.167,-55.58 z
M 396.319,-55.607 L 395.81,-55.6875 L 395.313,-55.8208 L 394.832,-56.0054 L 394.373,-56.2392 L 393.941,-56.5196
 L 393.541,-56.8437 L 393.177,-57.2079 L 392.853,-57.6081 L 392.572,-58.04 L 392.339,-58.4989 L 392.154,-58.9796
 L 392.021,-59.4771 L 391.94,-59.9857 L 391.913,-60.5 L 391.94,-61.0143 L 392.021,-61.5229 L 392.154,-62.0204
 L 392.339,-62.5011 L 392.572,-62.96 L 392.853,-63.3919 L 393.177,-63.7921 L 393.541,-64.1563 L 393.941,-64.4804
 L 394.283,-64.7024 L 394.283,-74 L 394.339,-74.5302 L 394.504,-75.0372 L 394.77,-75.4988 L 395.127,-75.895
 L 395.558,-76.2084 L 396.045,-76.4252 L 396.567,-76.536 L 397.1,-76.536 L 397.621,-76.4252 L 398.108,-76.2084
 L 398.54,-75.895 L 398.896,-75.4988 L 399.163,-75.0372 L 399.328,-74.5302 L 399.383,-74 L 399.383,-64.7024
 L 399.725,-64.4804 L 400.125,-64.1563 L 400.49,-63.7921 L 400.814,-63.3919 L 401.094,-62.96 L 401.328,-62.5011
 L 401.513,-62.0204 L 401.646,-61.5229 L 401.726,-61.0143 L 401.753,-60.5 L 401.726,-59.9857 L 401.646,-59.4771
 L 401.513,-58.9796 L 401.328,-58.4989 L 401.094,-58.04 L 400.814,-57.6081 L 400.49,-57.2079 L 400.125,-56.8437
 L 399.725,-56.5196 L 399.293,-56.2392 L 398.834,-56.0054 L 398.354,-55.8208 L 397.856,-55.6875 L 397.348,-55.607
 L 396.833,-55.58 z
M 590.986,-55.607 L 590.477,-55.6875 L 589.98,-55.8208 L 589.499,-56.0054 L 589.04,-56.2392 L 588.608,-56.5196
 L 588.208,-56.8437 L 587.844,-57.2079 L 587.52,-57.6081 L 587.239,-58.04 L 587.005,-58.4989 L 586.821,-58.9796
 L 586.688,-59.4771 L 586.607,-59.9857 L 586.58,-60.5 L 586.607,-61.0143 L 586.688,-61.5229 L 586.821,-62.0204
 L 587.005,-62.5011 L 587.239,-62.96 L 587.52,-63.3919 L 587.844,-63.7921 L 588.208,-64.1563 L 588.608,-64.4804
 L 588.95,-64.7024 L 588.95,-74 L 589.006,-74.5302 L 589.17,-75.0372 L 589.437,-75.4988 L 589.794,-75.895
 L 590.225,-76.2084 L 590.712,-76.4252 L 591.233,-76.536 L 591.767,-76.536 L 592.288,-76.4252 L 592.775,-76.2084
 L 593.206,-75.895 L 593.563,-75.4988 L 593.83,-75.0372 L 593.994,-74.5302 L 594.05,-74 L 594.05,-64.7024
 L 594.392,-64.4804 L 594.792,-64.1563 L 595.156,-63.7921 L 595.48,-63.3919 L 595.761,-62.96 L 595.995,-62.5011
 L 596.179,-62.0204 L 596.312,-61.5229 L 596.393,-61.0143 L 596.42,-60.5 L 596.393,-59.9857 L 596.312,-59.4771
 L 596.179,-58.9796 L 595.995,-58.4989 L 595.761,-58.04 L 595.48,-57.6081 L 595.156,-57.2079 L 594.792,-56.8437
 L 594.392,-56.5196 L 593.96,-56.2392 L 593.501,-56.0054 L 593.02,-55.8208 L 592.523,-55.6875 L 592.014,-55.607
 L 591.5,-55.58 z
M 785.652,-55.607 L 785.144,-55.6875 L 784.646,-55.8208 L 784.166,-56.0054 L 783.707,-56.2392 L 783.275,-56.5196
 L 782.875,-56.8437 L 782.51,-57.2079 L 782.186,-57.6081 L 781.906,-58.04 L 781.672,-58.4989 L 781.487,-58.9796
 L 781.354,-59.4771 L 781.274,-59.9857 L 781.247,-60.5 L 781.274,-61.0143 L 781.354,-61.5229 L 781.487,-62.0204
 L 781.672,-62.5011 L 781.906,-62.96 L 782.186,-63.3919 L 782.51,-63.7921 L 782.875,-64.1563 L 783.275,-64.4804
 L 783.617,-64.7024 L 783.617,-74 L 783.672,-74.5302 L 783.837,-75.0372 L 784.104,-75.4988 L 784.46,-75.895
 L 784.892,-76.2084 L 785.379,-76.4252 L 785.9,-76.536 L 786.433,-76.536 L 786.955,-76.4252 L 787.442,-76.2084
 L 787.873,-75.895 L 788.23,-75.4988 L 788.496,-75.0372 L 788.661,-74.5302 L 788.717,-74 L 788.717,-64.7024
 L 789.059,-64.4804 L 789.459,-64.1563 L 789.823,-63.7921 L 790.147,-63.3919 L 790.427,-62.96 L 790.661,-62.5011
 L 790.846,-62.0204 L 790.979,-61.5229 L 791.06,-61.0143 L 791.087,-60.5 L 791.06,-59.9857 L 790.979,-59.4771
 L 790.846,-58.9796 L 790.661,-58.4989 L 790.427,-58.04 L 790.147,-57.6081 L 789.823,-57.2079 L 789.459,-56.8437
 L 789.059,-56.5196 L 788.627,-56.2392 L 788.168,-56.0054 L 787.687,-55.8208 L 787.19,-55.6875 L 786.681,-55.607
 L 786.167,-55.58 z
M 980.319,-55.607 L 979.81,-55.6875 L 979.313,-55.8208 L 978.832,-56.0054 L 978.373,-56.2392 L 977.941,-56.5196
 L 977.541,-56.8437 L 977.177,-57.2079 L 976.853,-57.6081 L 976.572,-58.04 L 976.339,-58.4989 L 976.154,-58.9796
 L 976.021,-59.4771 L 975.94,-59.9857 L 975.913,-60.5 L 975.94,-61.0143 L 976.021,-61.5229 L 976.154,-62.0204
 L 976.339,-62.5011 L 976.572,-62.96 L 976.853,-63.3919 L 977.177,-63.7921 L 977.541,-64.1563 L 977.941,-64.4804
 L 978.283,-64.7024 L 978.283,-74 L 978.339,-74.5302 L 978.504,-75.0372 L 978.77,-75.4988 L 979.127,-75.895
 L 979.558,-76.2084 L 980.045,-76.4252 L 980.567,-76.536 L 981.1,-76.536 L 981.621,-76.4252 L 982.108,-76.2084
 L 982.54,-75.895 L 982.896,-75.4988 L 983.163,-75.0372 L 983.328,-74.5302 L 983.383,-74 L 983.383,-64.7024
 L 983.725,-64.4804 L 984.125,-64.1563 L 984.49,-63.7921 L 984.814,-63.3919 L 985.094,-62.96 L 985.328,-62.5011
 L 985.513,-62.0204 L 985.646,-61.5229 L 985.726,-61.0143 L 985.753,-60.5 L 985.726,-59.9857 L 985.646,-59.4771
 L 985.513,-58.9796 L 985.328,-58.4989 L 985.094,-58.04 L 984.814,-57.6081 L 984.49,-57.2079 L 984.125,-56.8437
 L 983.725,-56.5196 L 983.293,-56.2392 L 982.834,-56.0054 L 982.354,-55.8208 L 981.856,-55.6875 L 981.348,-55.607
 L 980.833,-55.58 z
M 1174.99,-55.607 L 1174.48,-55.6875 L 1173.98,-55.8208 L 1173.5,-56.0054 L 1173.04,-56.2392 L 1172.61,-56.5196
 L 1172.21,-56.8437 L 1171.84,-57.2079 L 1171.52,-57.6081 L 1171.24,-58.04 L 1171.01,-58.4989 L 1170.82,-58.9796
 L 1170.69,-59.4771 L 1170.61,-59.9857 L 1170.58,-60.5 L 1170.61,-61.0143 L 1170.69,-61.5229 L 1170.82,-62.0204
 L 1171.01,-62.5011 L 1171.24,-62.96 L 1171.52,-63.3919 L 1171.84,-63.7921 L 1172.21,-64.1563 L 1172.61,-64.4804
 L 1172.95,-64.7024 L 1172.95,-74 L 1173.01,-74.5302 L 1173.17,-75.0372 L 1173.44,-75.4988 L 1173.79,-75.895
 L 1174.23,-76.2084 L 1174.71,-76.4252 L 1175.23,-76.536 L 1175.77,-76.536 L 1176.29,-76.4252 L 1176.77,-76.2084
 L 1177.21,-75.895 L 1177.56,-75.4988 L 1177.83,-75.0372 L 1177.99,-74.5302 L 1178.05,-74 L 1178.05,-64.7024
 L 1178.39,-64.4804 L 1178.79,-64.1563 L 1179.16,-63.7921 L 1179.48,-63.3919 L 1179.76,-62.96 L 1179.99,-62.5011
 L 1180.18,-62.0204 L 1180.31,-61.5229 L 1180.39,-61.0143 L 1180.42,-60.5 L 1180.39,-59.9857 L 1180.31,-59.4771
 L 1180.18,-58.9796 L 1179.99,-58.4989 L 1179.76,-58.04 L 1179.48,-57.6081 L 1179.16,-57.2079 L 1178.79,-56.8437
 L 1178.39,-56.5196 L 1177.96,-56.2392 L 1177.5,-56.0054 L 1177.02,-55.8208 L 1176.52,-55.6875 L 1176.01,-55.607
 L 1175.5,-55.58 z
M 992.681,-20.4777 L 991.91,-20.801 L 991.223,-21.2776 L 990.65,-21.8866 L 990.216,-22.6015 L 989.94,-23.3909
 L 989.833,-24.3081 L 989.833,-58 L 989.921,-58.8316 L 990.179,-59.627 L 990.597,-60.3511 L 991.157,-60.9726
 L 991.833,-61.4641 L 992.597,-61.8042 L 993.833,-62 L 1090.28,-62 L 1091.12,-61.9126 L 1091.91,-61.6542
 L 1092.64,-61.2361 L 1093.26,-60.6765 L 1093.75,-60 L 1094.09,-59.2361 L 1094.26,-58.4181 L 1094.26,-57.5819
 L 1094.09,-56.7639 L 1093.75,-56 L 1093.26,-55.3235 L 1092.64,-54.7639 L 1091.6,-54.2238 L 995.152,-20.5318
 L 994.338,-20.3401 L 993.502,-20.3218 z
M 383.328,-20.3401 L 382.514,-20.5318 L 286.063,-54.2238 L 285.031,-54.7639 L 284.409,-55.3235 L 283.918,-56
 L 283.578,-56.7639 L 283.404,-57.5819 L 283.404,-58.4181 L 283.578,-59.2361 L 283.918,-60 L 284.409,-60.6765
 L 285.031,-61.2361 L 285.755,-61.6542 L 286.55,-61.9126 L 287.382,-62 L 383.833,-62 L 385.069,-61.8042
 L 385.833,-61.4641 L 386.51,-60.9726 L 387.069,-60.3511 L 387.487,-59.627 L 387.746,-58.8316 L 387.833,-58
 L 387.833,-24.3081 L 387.727,-23.3909 L 387.451,-22.6015 L 387.017,-21.8866 L 386.444,-21.2776 L 385.757,-20.801
 L 384.986,-20.4777 L 384.164,-20.3218 z
M 188.662,-20.3401 L 187.848,-20.5318 L 91.3962,-54.2238 L 90.3642,-54.7639 L 89.7428,-55.3235 L 89.2512,-56
 L 88.9111,-56.7639 L 88.7372,-57.5819 L 88.7372,-58.4181 L 88.9111,-59.2361 L 89.2512,-60 L 89.7428,-60.6765
 L 90.3642,-61.2361 L 91.0884,-61.6542 L 91.8837,-61.9126 L 92.7153,-62 L 189.167,-62 L 190.403,-61.8042
 L 191.167,-61.4641 L 191.843,-60.9726 L 192.403,-60.3511 L 192.821,-59.627 L 193.079,-58.8316 L 193.167,-58
 L 193.167,-24.3081 L 193.06,-23.3909 L 192.784,-22.6015 L 192.35,-21.8866 L 191.777,-21.2776 L 191.09,-20.801
 L 190.319,-20.4777 L 189.498,-20.3218 z
M 577.995,-20.3401 L 577.181,-20.5318 L 480.73,-54.2238 L 479.698,-54.7639 L 479.076,-55.3235 L 478.585,-56
 L 478.244,-56.7639 L 478.071,-57.5819 L 478.071,-58.4181 L 478.244,-59.2361 L 478.585,-60 L 479.076,-60.6765
 L 479.698,-61.2361 L 480.422,-61.6542 L 481.217,-61.9126 L 482.049,-62 L 578.5,-62 L 579.736,-61.8042
 L 580.5,-61.4641 L 581.177,-60.9726 L 581.736,-60.3511 L 582.154,-59.627 L 582.413,-58.8316 L 582.5,-58
 L 582.5,-24.3081 L 582.393,-23.3909 L 582.118,-22.6015 L 581.684,-21.8866 L 581.111,-21.2776 L 580.424,-20.801
 L 579.652,-20.4777 L 578.831,-20.3218 z
M 603.348,-20.4777 L 602.576,-20.801 L 601.889,-21.2776 L 601.316,-21.8866 L 600.882,-22.6015 L 600.607,-23.3909
 L 600.5,-24.3081 L 600.5,-58 L 600.587,-58.8316 L 600.846,-59.627 L 601.264,-60.3511 L 601.823,-60.9726
 L 602.5,-61.4641 L 603.264,-61.8042 L 604.5,-62 L 700.951,-62 L 701.783,-61.9126 L 702.578,-61.6542
 L 703.302,-61.2361 L 703.924,-60.6765 L 704.415,-60 L 704.756,-59.2361 L 704.929,-58.4181 L 704.929,-57.5819
 L 704.756,-56.7639 L 704.415,-56 L 703.924,-55.3235 L 703.302,-54.7639 L 702.27,-54.2238 L 605.819,-20.5318
 L 605.005,-20.3401 L 604.169,-20.3218 z
M 798.014,-20.4777 L 797.243,-20.801 L 796.556,-21.2776 L 795.983,-21.8866 L 795.549,-22.6015 L 795.273,-23.3909
 L 795.167,-24.3081 L 795.167,-58 L 795.254,-58.8316 L 795.512,-59.627 L 795.931,-60.3511 L 796.49,-60.9726
 L 797.167,-61.4641 L 797.931,-61.8042 L 799.167,-62 L 895.618,-62 L 896.45,-61.9126 L 897.245,-61.6542
 L 897.969,-61.2361 L 898.591,-60.6765 L 899.082,-60 L 899.422,-59.2361 L 899.596,-58.4181 L 899.596,-57.5819
 L 899.422,-56.7639 L 899.082,-56 L 898.591,-55.3235 L 897.969,-54.7639 L 896.937,-54.2238 L 800.486,-20.5318
 L 799.672,-20.3401 L 798.836,-20.3218 z
M 215.167,-18 L 213.931,-18.1958 L 213.167,-18.5359 L 212.49,-19.0274 L 211.931,-19.6489 L 211.512,-20.373
 L 211.254,-21.1684 L 211.167,-22 L 211.167,-55.6919 L 211.273,-56.609 L 211.549,-57.3985 L 211.983,-58.1134
 L 212.556,-58.7224 L 213.243,-59.199 L 214.014,-59.5223 L 214.836,-59.6782 L 215.672,-59.6599 L 216.486,-59.4681
 L 312.937,-25.7762 L 313.969,-25.2361 L 314.591,-24.6765 L 315.082,-24 L 315.422,-23.2361 L 315.596,-22.4181
 L 315.596,-21.5819 L 315.422,-20.7639 L 315.082,-20 L 314.591,-19.3235 L 313.969,-18.7639 L 313.245,-18.3458
 L 312.45,-18.0874 L 311.618,-18 z
M 409.833,-18 L 408.597,-18.1958 L 407.833,-18.5359 L 407.157,-19.0274 L 406.597,-19.6489 L 406.179,-20.373
 L 405.921,-21.1684 L 405.833,-22 L 405.833,-55.6919 L 405.94,-56.609 L 406.216,-57.3985 L 406.65,-58.1134
 L 407.223,-58.7224 L 407.91,-59.199 L 408.681,-59.5223 L 409.502,-59.6782 L 410.338,-59.6599 L 411.152,-59.4681
 L 507.604,-25.7762 L 508.636,-25.2361 L 509.257,-24.6765 L 509.749,-24 L 510.089,-23.2361 L 510.263,-22.4181
 L 510.263,-21.5819 L 510.089,-20.7639 L 509.749,-20 L 509.257,-19.3235 L 508.636,-18.7639 L 507.912,-18.3458
 L 507.116,-18.0874 L 506.285,-18 z
M 676.715,-18 L 675.884,-18.0874 L 675.088,-18.3458 L 674.364,-18.7639 L 673.743,-19.3235 L 673.251,-20
 L 672.911,-20.7639 L 672.737,-21.5819 L 672.737,-22.4181 L 672.911,-23.2361 L 673.251,-24 L 673.743,-24.6765
 L 674.364,-25.2361 L 675.396,-25.7762 L 771.848,-59.4681 L 772.662,-59.6599 L 773.498,-59.6782 L 774.319,-59.5223
 L 775.09,-59.199 L 775.777,-58.7224 L 776.35,-58.1134 L 776.784,-57.3985 L 777.06,-56.609 L 777.167,-55.6919
 L 777.167,-22 L 777.079,-21.1684 L 776.821,-20.373 L 776.403,-19.6489 L 775.843,-19.0274 L 775.167,-18.5359
 L 774.403,-18.1958 L 773.167,-18 z
M 871.382,-18 L 870.55,-18.0874 L 869.755,-18.3458 L 869.031,-18.7639 L 868.409,-19.3235 L 867.918,-20
 L 867.578,-20.7639 L 867.404,-21.5819 L 867.404,-22.4181 L 867.578,-23.2361 L 867.918,-24 L 868.409,-24.6765
 L 869.031,-25.2361 L 870.063,-25.7762 L 966.514,-59.4681 L 967.328,-59.6599 L 968.164,-59.6782 L 968.986,-59.5223
 L 969.757,-59.199 L 970.444,-58.7224 L 971.017,-58.1134 L 971.451,-57.3985 L 971.727,-56.609 L 971.833,-55.6919
 L 971.833,-22 L 971.746,-21.1684 L 971.488,-20.373 L 971.069,-19.6489 L 970.51,-19.0274 L 969.833,-18.5359
 L 969.069,-18.1958 L 967.833,-18 z
M 1066.05,-18 L 1065.22,-18.0874 L 1064.42,-18.3458 L 1063.7,-18.7639 L 1063.08,-19.3235 L 1062.58,-20
 L 1062.24,-20.7639 L 1062.07,-21.5819 L 1062.07,-22.4181 L 1062.24,-23.2361 L 1062.58,-24 L 1063.08,-24.6765
 L 1063.7,-25.2361 L 1064.73,-25.7762 L 1159.68,-58.9442 L 1160.49,-59.1359 L 1161.33,-59.1542 L 1162.15,-58.9983
 L 1162.92,-58.675 L 1163.61,-58.1984 L 1164.18,-57.5894 L 1164.62,-56.8745 L 1164.89,-56.0851 L 1165,-55.1679
 L 1165,-22 L 1164.91,-21.1684 L 1164.65,-20.373 L 1164.24,-19.6489 L 1163.68,-19.0274 L 1163,-18.5359
 L 1162.24,-18.1958 L 1161,-18 z
M 22,-18 L 20.7639,-18.1958 L 20,-18.5359 L 19.3235,-19.0274 L 18.7639,-19.6489 L 18.3458,-20.373
 L 18.0874,-21.1684 L 18,-22 L 18,-55.1679 L 18.1066,-56.0851 L 18.3823,-56.8745 L 18.8162,-57.5894
 L 19.3892,-58.1984 L 20.0764,-58.675 L 20.8475,-58.9983 L 21.6691,-59.1542 L 22.5051,-59.1359 L 23.3191,-58.9442
 L 118.27,-25.7762 L 119.302,-25.2361 L 119.924,-24.6765 L 120.415,-24 L 120.756,-23.2361 L 120.929,-22.4181
 L 120.929,-21.5819 L 120.756,-20.7639 L 120.415,-20 L 119.924,-19.3235 L 119.302,-18.7639 L 118.578,-18.3458
 L 117.783,-18.0874 L 116.951,-18 z
" stroke="black" fill="lightgray" stroke-width="0.5"/>
</svg>
