<?xml version="1.0" standalone="no"?>
<!DOCTYPE svg PUBLIC "-//W3C//DTD SVG 1.1//EN" "http://www.w3.org/Graphics/SVG/1.1/DTD/svg11.dtd">
<svg width="1139mm" height="80mm" viewBox="0 -80 1139 80" xmlns="http://www.w3.org/2000/svg" version="1.1">
<title>OpenSCAD Model</title>
<path d="
M 1139,-80 L 0,-80 L 0,-0 L 4.95,-0 L 4.95,-6 L 5.00572,-6.53017
 L 5.17046,-7.03717 L 5.437,-7.49884 L 5.79372,-7.895 L 6.22499,-8.20836 L 6.71201,-8.42519 L 7.23344,-8.53603
 L 7.76654,-8.53603 L 8.28798,-8.42519 L 8.77499,-8.20836 L 9.20627,-7.895 L 9.56299,-7.49884 L 9.82953,-7.03717
 L 9.99426,-6.53017 L 10.05,-6 L 10.05,-0 L 192.283,-0 L 192.283,-6 L 192.339,-6.53017
 L 192.504,-7.03717 L 192.77,-7.49884 L 193.127,-7.895 L 193.558,-8.20836 L 194.045,-8.42519 L 194.567,-8.53603
 L 195.1,-8.53603 L 195.621,-8.42519 L 196.108,-8.20836 L 196.54,-7.895 L 196.896,-7.49884 L 197.163,-7.03717
 L 197.328,-6.53017 L 197.383,-6 L 197.383,-0 L 379.617,-0 L 379.617,-6 L 379.672,-6.53017
 L 379.837,-7.03717 L 380.104,-7.49884 L 380.46,-7.895 L 380.892,-8.20836 L 381.379,-8.42519 L 381.9,-8.53603
 L 382.433,-8.53603 L 382.955,-8.42519 L 383.442,-8.20836 L 383.873,-7.895 L 384.23,-7.49884 L 384.496,-7.03717
 L 384.661,-6.53017 L 384.717,-6 L 384.717,-0 L 566.95,-0 L 566.95,-6 L 567.006,-6.53017
 L 567.17,-7.03717 L 567.437,-7.49884 L 567.794,-7.895 L 568.225,-8.20836 L 568.712,-8.42519 L 569.233,-8.53603
 L 569.767,-8.53603 L 570.288,-8.42519 L 570.775,-8.20836 L 571.206,-7.895 L 571.563,-7.49884 L 571.83,-7.03717
 L 571.994,-6.53017 L 572.05,-6 L 572.05,-0 L 754.283,-0 L 754.283,-6 L 754.339,-6.53017
 L 754.504,-7.03717 L 754.77,-7.49884 L 755.127,-7.895 L 755.558,-8.20836 L 756.045,-8.42519 L 756.567,-8.53603
 L 757.1,-8.53603 L 757.621,-8.42519 L 758.108,-8.20836 L 758.54,-7.895 L 758.896,-7.49884 L 759.163,-7.03717
 L 759.328,-6.53017 L 759.383,-6 L 759.383,-0 L 941.617,-0 L 941.617,-6 L 941.672,-6.53017
 L 941.837,-7.03717 L 942.104,-7.49884 L 942.46,-7.895 L 942.892,-8.20836 L 943.379,-8.42519 L 943.9,-8.53603
 L 944.433,-8.53603 L 944.955,-8.42519 L 945.442,-8.20836 L 945.873,-7.895 L 946.23,-7.49884 L 946.496,-7.03717
 L 946.661,-6.53017 L 946.717,-6 L 946.717,-0 L 1128.95,-0 L 1128.95,-6 L 1129.01,-6.53017
 L 1129.17,-7.03717 L 1129.44,-7.49884 L 1129.79,-7.895 L 1130.22,-8.20836 L 1130.71,-8.42519 L 1131.23,-8.53603
 L 1131.77,-8.53603 L 1132.29,-8.42519 L 1132.77,-8.20836 L 1133.21,-7.895 L 1133.56,-7.49884 L 1133.83,-7.03717
 L 1133.99,-6.53017 L 1134.05,-6 L 1134.05,-0 L 1139,-0 z
M 6.98573,-55.607 L 6.47708,-55.6875 L 5.97964,-55.8208 L 5.49887,-56.0054 L 5.04001,-56.2392 L 4.60811,-56.5196
 L 4.20789,-56.8437 L 3.84373,-57.2079 L 3.51964,-57.6081 L 3.23917,-58.04 L 3.00537,-58.4989 L 2.82082,-58.9796
 L 2.68752,-59.4771 L 2.60696,-59.9857 L 2.58,-60.5 L 2.60696,-61.0143 L 2.68752,-61.5229 L 2.82082,-62.0204
 L 3.00537,-62.5011 L 3.23917,-62.96 L 3.51964,-63.3919 L 3.84373,-63.7921 L 4.20789,-64.1563 L 4.60811,-64.4804
 L 4.95001,-64.7024 L 4.95001,-74 L 5.00574,-74.5302 L 5.17047,-75.0372 L 5.43701,-75.4988 L 5.79373,-75.895
 L 6.22501,-76.2084 L 6.71202,-76.4252 L 7.23346,-76.536 L 7.76654,-76.536 L 8.28798,-76.4252 L 8.77499,-76.2084
 L 9.20627,-75.895 L 9.56299,-75.4988 L 9.82953,-75.0372 L 9.99426,-74.5302 L 10.05,-74 L 10.05,-64.7024
 L 10.3919,-64.4804 L 10.7921,-64.1563 L 11.1563,-63.7921 L 11.4804,-63.3919 L 11.7608,-62.96 L 11.9946,-62.5011
 L 12.1792,-62.0204 L 12.3125,-61.5229 L 12.393,-61.0143 L 12.42,-60.5 L 12.393,-59.9857 L 12.3125,-59.4771
 L 12.1792,-58.9796 L 11.9946,-58.4989 L 11.7608,-58.04 L 11.4804,-57.6081 L 11.1563,-57.2079 L 10.7921,-56.8437
 L 10.3919,-56.5196 L 9.95999,-56.2392 L 9.50113,-56.0054 L 9.02036,-55.8208 L 8.52292,-55.6875 L 8.01427,-55.607
 L 7.5,-55.58 z
M 194.319,-55.607 L 193.81,-55.6875 L 193.313,-55.8208 L 192.832,-56.0054 L 192.373,-56.2392 L 191.941,-56.5196
 L 191.541,-56.8437 L 191.177,-57.2079 L 190.853,-57.6081 L 190.572,-58.04 L 190.339,-58.4989 L 190.154,-58.9796
 L 190.021,-59.4771 L 189.94,-59.9857 L 189.913,-60.5 L 189.94,-61.0143 L 190.021,-61.5229 L 190.154,-62.0204
 L 190.339,-62.5011 L 190.572,-62.96 L 190.853,-63.3919 L 191.177,-63.7921 L 191.541,-64.1563 L 191.941,-64.4804
 L 192.283,-64.7024 L 192.283,-74 L 192.339,-74.5302 L 192.504,-75.0372 L 192.77,-75.4988 L 193.127,-75.895
 L 193.558,-76.2084 L 194.045,-76.4252 L 194.567,-76.536 L 195.1,-76.536 L 195.621,-76.4252 L 196.108,-76.2084
 L 196.54,-75.895 L 196.896,-75.4988 L 197.163,-75.0372 L 197.328,-74.5302 L 197.383,-74 L 197.383,-64.7024
 L 197.725,-64.4804 L 198.125,-64.1563 L 198.49,-63.7921 L 198.814,-63.3919 L 199.094,-62.96 L 199.328,-62.5011
 L 199.513,-62.0204 L 199.646,-61.5229 L 199.726,-61.0143 L 199.753,-60.5 L 199.726,-59.9857 L 199.646,-59.4771
 L 199.513,-58.9796 L 199.328,-58.4989 L 199.094,-58.04 L 198.814,-57.6081 L 198.49,-57.2079 L 198.125,-56.8437
 L 197.725,-56.5196 L 197.293,-56.2392 L 196.834,-56.0054 L 196.354,-55.8208 L 195.856,-55.6875 L 195.348,-55.607
 L 194.833,-55.58 z
M 381.652,-55.607 L 381.144,-55.6875 L 380.646,-55.8208 L 380.166,-56.0054 L 379.707,-56.2392 L 379.275,-56.5196
 L 378.875,-56.8437 L 378.51,-57.2079 L 378.186,-57.6081 L 377.906,-58.04 L 377.672,-58.4989 L 377.487,-58.9796
 L 377.354,-59.4771 L 377.274,-59.9857 L 377.247,-60.5 L 377.274,-61.0143 L 377.354,-61.5229 L 377.487,-62.0204
 L 377.672,-62.5011 L 377.906,-62.96 L 378.186,-63.3919 L 378.51,-63.7921 L 378.875,-64.1563 L 379.275,-64.4804
 L 379.617,-64.7024 L 379.617,-74 L 379.672,-74.5302 L 379.837,-75.0372 L 380.104,-75.4988 L 380.46,-75.895
 L 380.892,-76.2084 L 381.379,-76.4252 L 381.9,-76.536 L 382.433,-76.536 L 382.955,-76.4252 L 383.442,-76.2084
 L 383.873,-75.895 L 384.23,-75.4988 L 384.496,-75.0372 L 384.661,-74.5302 L 384.717,-74 L 384.717,-64.7024
 L 385.059,-64.4804 L 385.459,-64.1563 L 385.823,-63.7921 L 386.147,-63.3919 L 386.427,-62.96 L 386.661,-62.5011
 L 386.846,-62.0204 L 386.979,-61.5229 L 387.06,-61.0143 L 387.087,-60.5 L 387.06,-59.9857 L 386.979,-59.4771
 L 386.846,-58.9796 L 386.661,-58.4989 L 386.427,-58.04 L 386.147,-57.6081 L 385.823,-57.2079 L 385.459,-56.8437
 L 385.059,-56.5196 L 384.627,-56.2392 L 384.168,-56.0054 L 383.687,-55.8208 L 383.19,-55.6875 L 382.681,-55.607
 L 382.167,-55.58 z
M 568.986,-55.607 L 568.477,-55.6875 L 567.98,-55.8208 L 567.499,-56.0054 L 567.04,-56.2392 L 566.608,-56.5196
 L 566.208,-56.8437 L 565.844,-57.2079 L 565.52,-57.6081 L 565.239,-58.04 L 565.005,-58.4989 L 564.821,-58.9796
 L 564.688,-59.4771 L 564.607,-59.9857 L 564.58,-60.5 L 564.607,-61.0143 L 564.688,-61.5229 L 564.821,-62.0204
 L 565.005,-62.5011 L 565.239,-62.96 L 565.52,-63.3919 L 565.844,-63.7921 L 566.208,-64.1563 L 566.608,-64.4804
 L 566.95,-64.7024 L 566.95,-74 L 567.006,-74.5302 L 567.17,-75.0372 L 567.437,-75.4988 L 567.794,-75.895
 L 568.225,-76.2084 L 568.712,-76.4252 L 569.233,-76.536 L 569.767,-76.536 L 570.288,-76.4252 L 570.775,-76.2084
 L 571.206,-75.895 L 571.563,-75.4988 L 571.83,-75.0372 L 571.994,-74.5302 L 572.05,-74 L 572.05,-64.7024
 L 572.392,-64.4804 L 572.792,-64.1563 L 573.156,-63.7921 L 573.48,-63.3919 L 573.761,-62.96 L 573.995,-62.5011
 L 574.179,-62.0204 L 574.312,-61.5229 L 574.393,-61.0143 L 574.42,-60.5 L 574.393,-59.9857 L 574.312,-59.4771
 L 574.179,-58.9796 L 573.995,-58.4989 L 573.761,-58.04 L 573.48,-57.6081 L 573.156,-57.2079 L 572.792,-56.8437
 L 572.392,-56.5196 L 571.96,-56.2392 L 571.501,-56.0054 L 571.02,-55.8208 L 570.523,-55.6875 L 570.014,-55.607
 L 569.5,-55.58 z
M 756.319,-55.607 L 755.81,-55.6875 L 755.313,-55.8208 L 754.832,-56.0054 L 754.373,-56.2392 L 753.941,-56.5196
 L 753.541,-56.8437 L 753.177,-57.2079 L 752.853,-57.6081 L 752.572,-58.04 L 752.339,-58.4989 L 752.154,-58.9796
 L 752.021,-59.4771 L 751.94,-59.9857 L 751.913,-60.5 L 751.94,-61.0143 L 752.021,-61.5229 L 752.154,-62.0204
 L 752.339,-62.5011 L 752.572,-62.96 L 752.853,-63.3919 L 753.177,-63.7921 L 753.541,-64.1563 L 753.941,-64.4804
 L 754.283,-64.7024 L 754.283,-74 L 754.339,-74.5302 L 754.504,-75.0372 L 754.77,-75.4988 L 755.127,-75.895
 L 755.558,-76.2084 L 756.045,-76.4252 L 756.567,-76.536 L 757.1,-76.536 L 757.621,-76.4252 L 758.108,-76.2084
 L 758.54,-75.895 L 758.896,-75.4988 L 759.163,-75.0372 L 759.328,-74.5302 L 759.383,-74 L 759.383,-64.7024
 L 759.725,-64.4804 L 760.125,-64.1563 L 760.49,-63.7921 L 760.814,-63.3919 L 761.094,-62.96 L 761.328,-62.5011
 L 761.513,-62.0204 L 761.646,-61.5229 L 761.726,-61.0143 L 761.753,-60.5 L 761.726,-59.9857 L 761.646,-59.4771
 L 761.513,-58.9796 L 761.328,-58.4989 L 761.094,-58.04 L 760.814,-57.6081 L 760.49,-57.2079 L 760.125,-56.8437
 L 759.725,-56.5196 L 759.293,-56.2392 L 758.834,-56.0054 L 758.354,-55.8208 L 757.856,-55.6875 L 757.348,-55.607
 L 756.833,-55.58 z
M 943.652,-55.607 L 943.144,-55.6875 L 942.646,-55.8208 L 942.166,-56.0054 L 941.707,-56.2392 L 941.275,-56.5196
 L 940.875,-56.8437 L 940.51,-57.2079 L 940.186,-57.6081 L 939.906,-58.04 L 939.672,-58.4989 L 939.487,-58.9796
 L 939.354,-59.4771 L 939.274,-59.9857 L 939.247,-60.5 L 939.274,-61.0143 L 939.354,-61.5229 L 939.487,-62.0204
 L 939.672,-62.5011 L 939.906,-62.96 L 940.186,-63.3919 L 940.51,-63.7921 L 940.875,-64.1563 L 941.275,-64.4804
 L 941.617,-64.7024 L 941.617,-74 L 941.672,-74.5302 L 941.837,-75.0372 L 942.104,-75.4988 L 942.46,-75.895
 L 942.892,-76.2084 L 943.379,-76.4252 L 943.9,-76.536 L 944.433,-76.536 L 944.955,-76.4252 L 945.442,-76.2084
 L 945.873,-75.895 L 946.23,-75.4988 L 946.496,-75.0372 L 946.661,-74.5302 L 946.717,-74 L 946.717,-64.7024
 L 947.059,-64.4804 L 947.459,-64.1563 L 947.823,-63.7921 L 948.147,-63.3919 L 948.427,-62.96 L 948.661,-62.5011
 L 948.846,-62.0204 L 948.979,-61.5229 L 949.06,-61.0143 L 949.087,-60.5 L 949.06,-59.9857 L 948.979,-59.4771
 L 948.846,-58.9796 L 948.661,-58.4989 L 948.427,-58.04 L 948.147,-57.6081 L 947.823,-57.2079 L 947.459,-56.8437
 L 947.059,-56.5196 L 946.627,-56.2392 L 946.168,-56.0054 L 945.687,-55.8208 L 945.19,-55.6875 L 944.681,-55.607
 L 944.167,-55.58 z
M 1130.99,-55.607 L 1130.48,-55.6875 L 1129.98,-55.8208 L 1129.5,-56.0054 L 1129.04,-56.2392 L 1128.61,-56.5196
 L 1128.21,-56.8437 L 1127.84,-57.2079 L 1127.52,-57.6081 L 1127.24,-58.04 L 1127.01,-58.4989 L 1126.82,-58.9796
 L 1126.69,-59.4771 L 1126.61,-59.9857 L 1126.58,-60.5 L 1126.61,-61.0143 L 1126.69,-61.5229 L 1126.82,-62.0204
 L 1127.01,-62.5011 L 1127.24,-62.96 L 1127.52,-63.3919 L 1127.84,-63.7921 L 1128.21,-64.1563 L 1128.61,-64.4804
 L 1128.95,-64.7024 L 1128.95,-74 L 1129.01,-74.5302 L 1129.17,-75.0372 L 1129.44,-75.4988 L 1129.79,-75.895
 L 1130.23,-76.2084 L 1130.71,-76.4252 L 1131.23,-76.536 L 1131.77,-76.536 L 1132.29,-76.4252 L 1132.77,-76.2084
 L 1133.21,-75.895 L 1133.56,-75.4988 L 1133.83,-75.0372 L 1133.99,-74.5302 L 1134.05,-74 L 1134.05,-64.7024
 L 1134.39,-64.4804 L 1134.79,-64.1563 L 1135.16,-63.7921 L 1135.48,-63.3919 L 1135.76,-62.96 L 1135.99,-62.5011
 L 1136.18,-62.0204 L 1136.31,-61.5229 L 1136.39,-61.0143 L 1136.42,-60.5 L 1136.39,-59.9857 L 1136.31,-59.4771
 L 1136.18,-58.9796 L 1135.99,-58.4989 L 1135.76,-58.04 L 1135.48,-57.6081 L 1135.16,-57.2079 L 1134.79,-56.8437
 L 1134.39,-56.5196 L 1133.96,-56.2392 L 1133.5,-56.0054 L 1133.02,-55.8208 L 1132.52,-55.6875 L 1132.01,-55.607
 L 1131.5,-55.58 z
M 956.061,-20.6967 L 955.286,-21.0106 L 954.593,-21.4788 L 954.012,-22.0809 L 953.57,-22.7904 L 953.285,-23.5765
 L 953.167,-24.5408 L 953.167,-58 L 953.254,-58.8316 L 953.512,-59.627 L 953.931,-60.3511 L 954.49,-60.9726
 L 955.167,-61.4641 L 955.931,-61.8042 L 957.167,-62 L 1049.34,-62 L 1050.18,-61.9126 L 1050.97,-61.6542
 L 1051.69,-61.2361 L 1052.32,-60.6765 L 1052.81,-60 L 1053.15,-59.2361 L 1053.32,-58.4181 L 1053.32,-57.5819
 L 1053.15,-56.7639 L 1052.81,-56 L 1052.32,-55.3235 L 1051.69,-54.7639 L 1050.71,-54.2401 L 958.531,-20.7808
 L 957.72,-20.5792 L 956.884,-20.5508 z
M 368.613,-20.5792 L 367.802,-20.7808 L 275.625,-54.2401 L 274.639,-54.7639 L 274.017,-55.3235 L 273.526,-56
 L 273.186,-56.7639 L 273.012,-57.5819 L 273.012,-58.4181 L 273.186,-59.2361 L 273.526,-60 L 274.017,-60.6765
 L 274.639,-61.2361 L 275.363,-61.6542 L 276.158,-61.9126 L 276.99,-62 L 369.167,-62 L 370.403,-61.8042
 L 371.167,-61.4641 L 371.843,-60.9726 L 372.403,-60.3511 L 372.821,-59.627 L 373.079,-58.8316 L 373.167,-58
 L 373.167,-24.5408 L 373.049,-23.5765 L 372.763,-22.7904 L 372.321,-22.0809 L 371.74,-21.4788 L 371.048,-21.0106
 L 370.273,-20.6967 L 369.449,-20.5508 z
M 181.28,-20.5792 L 180.469,-20.7808 L 88.2917,-54.2401 L 87.3054,-54.7639 L 86.6839,-55.3235 L 86.1924,-56
 L 85.8523,-56.7639 L 85.6784,-57.5819 L 85.6784,-58.4181 L 85.8523,-59.2361 L 86.1924,-60 L 86.6839,-60.6765
 L 87.3054,-61.2361 L 88.0295,-61.6542 L 88.8248,-61.9126 L 89.6565,-62 L 181.833,-62 L 183.069,-61.8042
 L 183.833,-61.4641 L 184.51,-60.9726 L 185.069,-60.3511 L 185.488,-59.627 L 185.746,-58.8316 L 185.833,-58
 L 185.833,-24.5408 L 185.715,-23.5765 L 185.43,-22.7904 L 184.988,-22.0809 L 184.407,-21.4788 L 183.714,-21.0106
 L 182.939,-20.6967 L 182.116,-20.5508 z
M 555.947,-20.5792 L 555.135,-20.7808 L 462.958,-54.2401 L 461.972,-54.7639 L 461.351,-55.3235 L 460.859,-56
 L 460.519,-56.7639 L 460.345,-57.5819 L 460.345,-58.4181 L 460.519,-59.2361 L 460.859,-60 L 461.351,-60.6765
 L 461.972,-61.2361 L 462.696,-61.6542 L 463.492,-61.9126 L 464.323,-62 L 556.5,-62 L 557.736,-61.8042
 L 558.5,-61.4641 L 559.177,-60.9726 L 559.736,-60.3511 L 560.154,-59.627 L 560.413,-58.8316 L 560.5,-58
 L 560.5,-24.5408 L 560.382,-23.5765 L 560.097,-22.7904 L 559.654,-22.0809 L 559.074,-21.4788 L 558.381,-21.0106
 L 557.606,-20.6967 L 556.782,-20.5508 z
M 581.394,-20.6967 L 580.619,-21.0106 L 579.926,-21.4788 L 579.346,-22.0809 L 578.903,-22.7904 L 578.618,-23.5765
 L 578.5,-24.5408 L 578.5,-58 L 578.587,-58.8316 L 578.846,-59.627 L 579.264,-60.3511 L 579.823,-60.9726
 L 580.5,-61.4641 L 581.264,-61.8042 L 582.5,-62 L 674.677,-62 L 675.508,-61.9126 L 676.304,-61.6542
 L 677.028,-61.2361 L 677.649,-60.6765 L 678.141,-60 L 678.481,-59.2361 L 678.655,-58.4181 L 678.655,-57.5819
 L 678.481,-56.7639 L 678.141,-56 L 677.649,-55.3235 L 677.028,-54.7639 L 676.042,-54.2401 L 583.865,-20.7808
 L 583.053,-20.5792 L 582.218,-20.5508 z
M 768.727,-20.6967 L 767.952,-21.0106 L 767.26,-21.4788 L 766.679,-22.0809 L 766.237,-22.7904 L 765.951,-23.5765
 L 765.833,-24.5408 L 765.833,-58 L 765.921,-58.8316 L 766.179,-59.627 L 766.597,-60.3511 L 767.157,-60.9726
 L 767.833,-61.4641 L 768.597,-61.8042 L 769.833,-62 L 862.01,-62 L 862.842,-61.9126 L 863.637,-61.6542
 L 864.361,-61.2361 L 864.983,-60.6765 L 865.474,-60 L 865.814,-59.2361 L 865.988,-58.4181 L 865.988,-57.5819
 L 865.814,-56.7639 L 865.474,-56 L 864.983,-55.3235 L 864.361,-54.7639 L 863.375,-54.2401 L 771.198,-20.7808
 L 770.387,-20.5792 L 769.551,-20.5508 z
M 207.833,-18 L 206.597,-18.1958 L 205.833,-18.5359 L 205.157,-19.0274 L 204.597,-19.6489 L 204.179,-20.373
 L 203.921,-21.1684 L 203.833,-22 L 203.833,-55.4592 L 203.951,-56.4235 L 204.237,-57.2096 L 204.679,-57.9191
 L 205.26,-58.5211 L 205.952,-58.9894 L 206.727,-59.3033 L 207.551,-59.4492 L 208.387,-59.4207 L 209.198,-59.2191
 L 301.375,-25.7599 L 302.361,-25.2361 L 302.983,-24.6765 L 303.474,-24 L 303.814,-23.2361 L 303.988,-22.4181
 L 303.988,-21.5819 L 303.814,-20.7639 L 303.474,-20 L 302.983,-19.3235 L 302.361,-18.7639 L 301.637,-18.3458
 L 300.842,-18.0874 L 300.01,-18 z
M 395.167,-18 L 393.931,-18.1958 L 393.167,-18.5359 L 392.49,-19.0274 L 391.931,-19.6489 L 391.512,-20.373
 L 391.254,-21.1684 L 391.167,-22 L 391.167,-55.4592 L 391.285,-56.4235 L 391.57,-57.2096 L 392.012,-57.9191
 L 392.593,-58.5211 L 393.286,-58.9894 L 394.061,-59.3033 L 394.884,-59.4492 L 395.72,-59.4207 L 396.531,-59.2191
 L 488.708,-25.7599 L 489.695,-25.2361 L 490.316,-24.6765 L 490.808,-24 L 491.148,-23.2361 L 491.322,-22.4181
 L 491.322,-21.5819 L 491.148,-20.7639 L 490.808,-20 L 490.316,-19.3235 L 489.695,-18.7639 L 488.97,-18.3458
 L 488.175,-18.0874 L 487.343,-18 z
M 651.657,-18 L 650.825,-18.0874 L 650.03,-18.3458 L 649.305,-18.7639 L 648.684,-19.3235 L 648.192,-20
 L 647.852,-20.7639 L 647.678,-21.5819 L 647.678,-22.4181 L 647.852,-23.2361 L 648.192,-24 L 648.684,-24.6765
 L 649.305,-25.2361 L 650.292,-25.7599 L 742.469,-59.2191 L 743.28,-59.4207 L 744.116,-59.4492 L 744.939,-59.3033
 L 745.714,-58.9894 L 746.407,-58.5211 L 746.988,-57.9191 L 747.43,-57.2096 L 747.715,-56.4235 L 747.833,-55.4592
 L 747.833,-22 L 747.746,-21.1684 L 747.488,-20.373 L 747.069,-19.6489 L 746.51,-19.0274 L 745.833,-18.5359
 L 745.069,-18.1958 L 743.833,-18 z
M 838.99,-18 L 838.158,-18.0874 L 837.363,-18.3458 L 836.639,-18.7639 L 836.017,-19.3235 L 835.526,-20
 L 835.186,-20.7639 L 835.012,-21.5819 L 835.012,-22.4181 L 835.186,-23.2361 L 835.526,-24 L 836.017,-24.6765
 L 836.639,-25.2361 L 837.625,-25.7599 L 929.802,-59.2191 L 930.613,-59.4207 L 931.449,-59.4492 L 932.273,-59.3033
 L 933.048,-58.9894 L 933.74,-58.5211 L 934.321,-57.9191 L 934.763,-57.2096 L 935.049,-56.4235 L 935.167,-55.4592
 L 935.167,-22 L 935.079,-21.1684 L 934.821,-20.373 L 934.403,-19.6489 L 933.843,-19.0274 L 933.167,-18.5359
 L 932.403,-18.1958 L 931.167,-18 z
M 1026.32,-18 L 1025.49,-18.0874 L 1024.7,-18.3458 L 1023.97,-18.7639 L 1023.35,-19.3235 L 1022.86,-20
 L 1022.52,-20.7639 L 1022.35,-21.5819 L 1022.35,-22.4181 L 1022.52,-23.2361 L 1022.86,-24 L 1023.35,-24.6765
 L 1023.97,-25.2361 L 1024.96,-25.7599 L 1115.64,-58.6747 L 1116.45,-58.8763 L 1117.28,-58.9047 L 1118.11,-58.7588
 L 1118.88,-58.4449 L 1119.57,-57.9767 L 1120.15,-57.3746 L 1120.6,-56.6651 L 1120.88,-55.879 L 1121,-54.9147
 L 1121,-22 L 1120.91,-21.1684 L 1120.65,-20.373 L 1120.24,-19.6489 L 1119.68,-19.0274 L 1119,-18.5359
 L 1118.24,-18.1958 L 1117,-18 z
M 22,-18 L 20.7639,-18.1958 L 20,-18.5359 L 19.3235,-19.0274 L 18.7639,-19.6489 L 18.3458,-20.373
 L 18.0874,-21.1684 L 18,-22 L 18,-54.9147 L 18.118,-55.879 L 18.4033,-56.6651 L 18.8458,-57.3746
 L 19.4262,-57.9767 L 20.119,-58.4449 L 20.8941,-58.7588 L 21.7175,-58.9047 L 22.5533,-58.8763 L 23.3648,-58.6747
 L 114.042,-25.7599 L 115.028,-25.2361 L 115.649,-24.6765 L 116.141,-24 L 116.481,-23.2361 L 116.655,-22.4181
 L 116.655,-21.5819 L 116.481,-20.7639 L 116.141,-20 L 115.649,-19.3235 L 115.028,-18.7639 L 114.304,-18.3458
 L 113.508,-18.0874 L 112.677,-18 z
" stroke="black" fill="lightgray" stroke-width="0.5"/>
</svg>
