<?xml version="1.0" standalone="no"?>
<!DOCTYPE svg PUBLIC "-//W3C//DTD SVG 1.1//EN" "http://www.w3.org/Graphics/SVG/1.1/DTD/svg11.dtd">
<svg width="1369mm" height="80mm" viewBox="0 -80 1369 80" xmlns="http://www.w3.org/2000/svg" version="1.1">
<title>OpenSCAD Model</title>
<path d="
M 1369,-80 L 0,-80 L 0,-0 L 4.95,-0 L 4.95,-6 L 5.00572,-6.53017
 L 5.17046,-7.03717 L 5.437,-7.49884 L 5.79372,-7.895 L 6.22499,-8.20836 L 6.71201,-8.42519 L 7.23344,-8.53603
 L 7.76654,-8.53603 L 8.28798,-8.42519 L 8.77499,-8.20836 L 9.20627,-7.895 L 9.56299,-7.49884 L 9.82953,-7.03717
 L 9.99426,-6.53017 L 10.05,-6 L 10.05,-0 L 198.379,-0 L 198.379,-6 L 198.434,-6.53017
 L 198.599,-7.03717 L 198.866,-7.49884 L 199.222,-7.895 L 199.654,-8.20836 L 200.141,-8.42519 L 200.662,-8.53603
 L 201.195,-8.53603 L 201.717,-8.42519 L 202.204,-8.20836 L 202.635,-7.895 L 202.992,-7.49884 L 203.258,-7.03717
 L 203.423,-6.53017 L 203.479,-6 L 203.479,-0 L 391.807,-0 L 391.807,-6 L 391.863,-6.53017
 L 392.028,-7.03717 L 392.294,-7.49884 L 392.651,-7.895 L 393.082,-8.20836 L 393.569,-8.42519 L 394.091,-8.53603
 L 394.624,-8.53603 L 395.145,-8.42519 L 395.632,-8.20836 L 396.063,-7.895 L 396.42,-7.49884 L 396.687,-7.03717
 L 396.851,-6.53017 L 396.907,-6 L 396.907,-0 L 585.236,-0 L 585.236,-6 L 585.291,-6.53017
 L 585.456,-7.03717 L 585.723,-7.49884 L 586.079,-7.895 L 586.511,-8.20836 L 586.998,-8.42519 L 587.519,-8.53603
 L 588.052,-8.53603 L 588.574,-8.42519 L 589.061,-8.20836 L 589.492,-7.895 L 589.849,-7.49884 L 590.115,-7.03717
 L 590.28,-6.53017 L 590.336,-6 L 590.336,-0 L 778.664,-0 L 778.664,-6 L 778.72,-6.53017
 L 778.885,-7.03717 L 779.151,-7.49884 L 779.508,-7.895 L 779.939,-8.20836 L 780.426,-8.42519 L 780.948,-8.53603
 L 781.481,-8.53603 L 782.002,-8.42519 L 782.489,-8.20836 L 782.921,-7.895 L 783.277,-7.49884 L 783.544,-7.03717
 L 783.709,-6.53017 L 783.764,-6 L 783.764,-0 L 972.093,-0 L 972.093,-6 L 972.149,-6.53017
 L 972.313,-7.03717 L 972.58,-7.49884 L 972.937,-7.895 L 973.368,-8.20836 L 973.855,-8.42519 L 974.376,-8.53603
 L 974.909,-8.53603 L 975.431,-8.42519 L 975.918,-8.20836 L 976.349,-7.895 L 976.706,-7.49884 L 976.972,-7.03717
 L 977.137,-6.53017 L 977.193,-6 L 977.193,-0 L 1165.52,-0 L 1165.52,-6 L 1165.58,-6.53017
 L 1165.74,-7.03717 L 1166.01,-7.49884 L 1166.37,-7.895 L 1166.8,-8.20836 L 1167.28,-8.42519 L 1167.8,-8.53603
 L 1168.34,-8.53603 L 1168.86,-8.42519 L 1169.35,-8.20836 L 1169.78,-7.895 L 1170.13,-7.49884 L 1170.4,-7.03717
 L 1170.57,-6.53017 L 1170.62,-6 L 1170.62,-0 L 1358.95,-0 L 1358.95,-6 L 1359.01,-6.53017
 L 1359.17,-7.03717 L 1359.44,-7.49884 L 1359.79,-7.895 L 1360.22,-8.20836 L 1360.71,-8.42519 L 1361.23,-8.53603
 L 1361.77,-8.53603 L 1362.29,-8.42519 L 1362.77,-8.20836 L 1363.21,-7.895 L 1363.56,-7.49884 L 1363.83,-7.03717
 L 1363.99,-6.53017 L 1364.05,-6 L 1364.05,-0 L 1369,-0 z
M 6.98573,-55.607 L 6.47708,-55.6875 L 5.97964,-55.8208 L 5.49887,-56.0054 L 5.04001,-56.2392 L 4.60811,-56.5196
 L 4.20789,-56.8437 L 3.84373,-57.2079 L 3.51964,-57.6081 L 3.23917,-58.04 L 3.00537,-58.4989 L 2.82082,-58.9796
 L 2.68752,-59.4771 L 2.60696,-59.9857 L 2.58,-60.5 L 2.60696,-61.0143 L 2.68752,-61.5229 L 2.82082,-62.0204
 L 3.00537,-62.5011 L 3.23917,-62.96 L 3.51964,-63.3919 L 3.84373,-63.7921 L 4.20789,-64.1563 L 4.60811,-64.4804
 L 4.95001,-64.7024 L 4.95001,-74 L 5.00574,-74.5302 L 5.17047,-75.0372 L 5.43701,-75.4988 L 5.79373,-75.895
 L 6.22501,-76.2084 L 6.71202,-76.4252 L 7.23346,-76.536 L 7.76654,-76.536 L 8.28798,-76.4252 L 8.77499,-76.2084
 L 9.20627,-75.895 L 9.56299,-75.4988 L 9.82953,-75.0372 L 9.99426,-74.5302 L 10.05,-74 L 10.05,-64.7024
 L 10.3919,-64.4804 L 10.7921,-64.1563 L 11.1563,-63.7921 L 11.4804,-63.3919 L 11.7608,-62.96 L 11.9946,-62.5011
 L 12.1792,-62.0204 L 12.3125,-61.5229 L 12.393,-61.0143 L 12.42,-60.5 L 12.393,-59.9857 L 12.3125,-59.4771
 L 12.1792,-58.9796 L 11.9946,-58.4989 L 11.7608,-58.04 L 11.4804,-57.6081 L 11.1563,-57.2079 L 10.7921,-56.8437
 L 10.3919,-56.5196 L 9.95999,-56.2392 L 9.50113,-56.0054 L 9.02036,-55.8208 L 8.52292,-55.6875 L 8.01427,-55.607
 L 7.5,-55.58 z
M 200.414,-55.607 L 199.906,-55.6875 L 199.408,-55.8208 L 198.927,-56.0054 L 198.469,-56.2392 L 198.037,-56.5196
 L 197.636,-56.8437 L 197.272,-57.2079 L 196.948,-57.6081 L 196.668,-58.04 L 196.434,-58.4989 L 196.249,-58.9796
 L 196.116,-59.4771 L 196.036,-59.9857 L 196.009,-60.5 L 196.036,-61.0143 L 196.116,-61.5229 L 196.249,-62.0204
 L 196.434,-62.5011 L 196.668,-62.96 L 196.948,-63.3919 L 197.272,-63.7921 L 197.636,-64.1563 L 198.037,-64.4804
 L 198.379,-64.7024 L 198.379,-74 L 198.434,-74.5302 L 198.599,-75.0372 L 198.866,-75.4988 L 199.222,-75.895
 L 199.654,-76.2084 L 200.141,-76.4252 L 200.662,-76.536 L 201.195,-76.536 L 201.717,-76.4252 L 202.204,-76.2084
 L 202.635,-75.895 L 202.992,-75.4988 L 203.258,-75.0372 L 203.423,-74.5302 L 203.479,-74 L 203.479,-64.7024
 L 203.82,-64.4804 L 204.221,-64.1563 L 204.585,-63.7921 L 204.909,-63.3919 L 205.189,-62.96 L 205.423,-62.5011
 L 205.608,-62.0204 L 205.741,-61.5229 L 205.822,-61.0143 L 205.849,-60.5 L 205.822,-59.9857 L 205.741,-59.4771
 L 205.608,-58.9796 L 205.423,-58.4989 L 205.189,-58.04 L 204.909,-57.6081 L 204.585,-57.2079 L 204.221,-56.8437
 L 203.82,-56.5196 L 203.389,-56.2392 L 202.93,-56.0054 L 202.449,-55.8208 L 201.951,-55.6875 L 201.443,-55.607
 L 200.929,-55.58 z
M 393.843,-55.607 L 393.334,-55.6875 L 392.837,-55.8208 L 392.356,-56.0054 L 391.897,-56.2392 L 391.465,-56.5196
 L 391.065,-56.8437 L 390.701,-57.2079 L 390.377,-57.6081 L 390.096,-58.04 L 389.863,-58.4989 L 389.678,-58.9796
 L 389.545,-59.4771 L 389.464,-59.9857 L 389.437,-60.5 L 389.464,-61.0143 L 389.545,-61.5229 L 389.678,-62.0204
 L 389.863,-62.5011 L 390.096,-62.96 L 390.377,-63.3919 L 390.701,-63.7921 L 391.065,-64.1563 L 391.465,-64.4804
 L 391.807,-64.7024 L 391.807,-74 L 391.863,-74.5302 L 392.028,-75.0372 L 392.294,-75.4988 L 392.651,-75.895
 L 393.082,-76.2084 L 393.569,-76.4252 L 394.091,-76.536 L 394.624,-76.536 L 395.145,-76.4252 L 395.632,-76.2084
 L 396.063,-75.895 L 396.42,-75.4988 L 396.687,-75.0372 L 396.851,-74.5302 L 396.907,-74 L 396.907,-64.7024
 L 397.249,-64.4804 L 397.649,-64.1563 L 398.013,-63.7921 L 398.337,-63.3919 L 398.618,-62.96 L 398.852,-62.5011
 L 399.036,-62.0204 L 399.17,-61.5229 L 399.25,-61.0143 L 399.277,-60.5 L 399.25,-59.9857 L 399.17,-59.4771
 L 399.036,-58.9796 L 398.852,-58.4989 L 398.618,-58.04 L 398.337,-57.6081 L 398.013,-57.2079 L 397.649,-56.8437
 L 397.249,-56.5196 L 396.817,-56.2392 L 396.358,-56.0054 L 395.877,-55.8208 L 395.38,-55.6875 L 394.871,-55.607
 L 394.357,-55.58 z
M 587.271,-55.607 L 586.763,-55.6875 L 586.265,-55.8208 L 585.785,-56.0054 L 585.326,-56.2392 L 584.894,-56.5196
 L 584.494,-56.8437 L 584.129,-57.2079 L 583.805,-57.6081 L 583.525,-58.04 L 583.291,-58.4989 L 583.107,-58.9796
 L 582.973,-59.4771 L 582.893,-59.9857 L 582.866,-60.5 L 582.893,-61.0143 L 582.973,-61.5229 L 583.107,-62.0204
 L 583.291,-62.5011 L 583.525,-62.96 L 583.805,-63.3919 L 584.129,-63.7921 L 584.494,-64.1563 L 584.894,-64.4804
 L 585.236,-64.7024 L 585.236,-74 L 585.291,-74.5302 L 585.456,-75.0372 L 585.723,-75.4988 L 586.079,-75.895
 L 586.511,-76.2084 L 586.998,-76.4252 L 587.519,-76.536 L 588.052,-76.536 L 588.574,-76.4252 L 589.061,-76.2084
 L 589.492,-75.895 L 589.849,-75.4988 L 590.115,-75.0372 L 590.28,-74.5302 L 590.336,-74 L 590.336,-64.7024
 L 590.678,-64.4804 L 591.078,-64.1563 L 591.442,-63.7921 L 591.766,-63.3919 L 592.047,-62.96 L 592.28,-62.5011
 L 592.465,-62.0204 L 592.598,-61.5229 L 592.679,-61.0143 L 592.706,-60.5 L 592.679,-59.9857 L 592.598,-59.4771
 L 592.465,-58.9796 L 592.28,-58.4989 L 592.047,-58.04 L 591.766,-57.6081 L 591.442,-57.2079 L 591.078,-56.8437
 L 590.678,-56.5196 L 590.246,-56.2392 L 589.787,-56.0054 L 589.306,-55.8208 L 588.809,-55.6875 L 588.3,-55.607
 L 587.786,-55.58 z
M 780.7,-55.607 L 780.191,-55.6875 L 779.694,-55.8208 L 779.213,-56.0054 L 778.754,-56.2392 L 778.322,-56.5196
 L 777.922,-56.8437 L 777.558,-57.2079 L 777.234,-57.6081 L 776.953,-58.04 L 776.72,-58.4989 L 776.535,-58.9796
 L 776.402,-59.4771 L 776.321,-59.9857 L 776.294,-60.5 L 776.321,-61.0143 L 776.402,-61.5229 L 776.535,-62.0204
 L 776.72,-62.5011 L 776.953,-62.96 L 777.234,-63.3919 L 777.558,-63.7921 L 777.922,-64.1563 L 778.322,-64.4804
 L 778.664,-64.7024 L 778.664,-74 L 778.72,-74.5302 L 778.885,-75.0372 L 779.151,-75.4988 L 779.508,-75.895
 L 779.939,-76.2084 L 780.426,-76.4252 L 780.948,-76.536 L 781.481,-76.536 L 782.002,-76.4252 L 782.489,-76.2084
 L 782.921,-75.895 L 783.277,-75.4988 L 783.544,-75.0372 L 783.709,-74.5302 L 783.764,-74 L 783.764,-64.7024
 L 784.106,-64.4804 L 784.506,-64.1563 L 784.871,-63.7921 L 785.195,-63.3919 L 785.475,-62.96 L 785.709,-62.5011
 L 785.893,-62.0204 L 786.027,-61.5229 L 786.107,-61.0143 L 786.134,-60.5 L 786.107,-59.9857 L 786.027,-59.4771
 L 785.893,-58.9796 L 785.709,-58.4989 L 785.475,-58.04 L 785.195,-57.6081 L 784.871,-57.2079 L 784.506,-56.8437
 L 784.106,-56.5196 L 783.674,-56.2392 L 783.215,-56.0054 L 782.735,-55.8208 L 782.237,-55.6875 L 781.729,-55.607
 L 781.214,-55.58 z
M 974.129,-55.607 L 973.62,-55.6875 L 973.122,-55.8208 L 972.642,-56.0054 L 972.183,-56.2392 L 971.751,-56.5196
 L 971.351,-56.8437 L 970.987,-57.2079 L 970.662,-57.6081 L 970.382,-58.04 L 970.148,-58.4989 L 969.964,-58.9796
 L 969.83,-59.4771 L 969.75,-59.9857 L 969.723,-60.5 L 969.75,-61.0143 L 969.83,-61.5229 L 969.964,-62.0204
 L 970.148,-62.5011 L 970.382,-62.96 L 970.662,-63.3919 L 970.987,-63.7921 L 971.351,-64.1563 L 971.751,-64.4804
 L 972.093,-64.7024 L 972.093,-74 L 972.149,-74.5302 L 972.313,-75.0372 L 972.58,-75.4988 L 972.937,-75.895
 L 973.368,-76.2084 L 973.855,-76.4252 L 974.376,-76.536 L 974.909,-76.536 L 975.431,-76.4252 L 975.918,-76.2084
 L 976.349,-75.895 L 976.706,-75.4988 L 976.972,-75.0372 L 977.137,-74.5302 L 977.193,-74 L 977.193,-64.7024
 L 977.535,-64.4804 L 977.935,-64.1563 L 978.299,-63.7921 L 978.623,-63.3919 L 978.904,-62.96 L 979.137,-62.5011
 L 979.322,-62.0204 L 979.455,-61.5229 L 979.536,-61.0143 L 979.563,-60.5 L 979.536,-59.9857 L 979.455,-59.4771
 L 979.322,-58.9796 L 979.137,-58.4989 L 978.904,-58.04 L 978.623,-57.6081 L 978.299,-57.2079 L 977.935,-56.8437
 L 977.535,-56.5196 L 977.103,-56.2392 L 976.644,-56.0054 L 976.163,-55.8208 L 975.666,-55.6875 L 975.157,-55.607
 L 974.643,-55.58 z
M 1167.56,-55.607 L 1167.05,-55.6875 L 1166.55,-55.8208 L 1166.07,-56.0054 L 1165.61,-56.2392 L 1165.18,-56.5196
 L 1164.78,-56.8437 L 1164.42,-57.2079 L 1164.09,-57.6081 L 1163.81,-58.04 L 1163.58,-58.4989 L 1163.39,-58.9796
 L 1163.26,-59.4771 L 1163.18,-59.9857 L 1163.15,-60.5 L 1163.18,-61.0143 L 1163.26,-61.5229 L 1163.39,-62.0204
 L 1163.58,-62.5011 L 1163.81,-62.96 L 1164.09,-63.3919 L 1164.42,-63.7921 L 1164.78,-64.1563 L 1165.18,-64.4804
 L 1165.52,-64.7024 L 1165.52,-74 L 1165.58,-74.5302 L 1165.74,-75.0372 L 1166.01,-75.4988 L 1166.37,-75.895
 L 1166.8,-76.2084 L 1167.28,-76.4252 L 1167.8,-76.536 L 1168.34,-76.536 L 1168.86,-76.4252 L 1169.35,-76.2084
 L 1169.78,-75.895 L 1170.13,-75.4988 L 1170.4,-75.0372 L 1170.57,-74.5302 L 1170.62,-74 L 1170.62,-64.7024
 L 1170.96,-64.4804 L 1171.36,-64.1563 L 1171.73,-63.7921 L 1172.05,-63.3919 L 1172.33,-62.96 L 1172.57,-62.5011
 L 1172.75,-62.0204 L 1172.88,-61.5229 L 1172.96,-61.0143 L 1172.99,-60.5 L 1172.96,-59.9857 L 1172.88,-59.4771
 L 1172.75,-58.9796 L 1172.57,-58.4989 L 1172.33,-58.04 L 1172.05,-57.6081 L 1171.73,-57.2079 L 1171.36,-56.8437
 L 1170.96,-56.5196 L 1170.53,-56.2392 L 1170.07,-56.0054 L 1169.59,-55.8208 L 1169.09,-55.6875 L 1168.59,-55.607
 L 1168.07,-55.58 z
M 1360.99,-55.607 L 1360.48,-55.6875 L 1359.98,-55.8208 L 1359.5,-56.0054 L 1359.04,-56.2392 L 1358.61,-56.5196
 L 1358.21,-56.8437 L 1357.84,-57.2079 L 1357.52,-57.6081 L 1357.24,-58.04 L 1357.01,-58.4989 L 1356.82,-58.9796
 L 1356.69,-59.4771 L 1356.61,-59.9857 L 1356.58,-60.5 L 1356.61,-61.0143 L 1356.69,-61.5229 L 1356.82,-62.0204
 L 1357.01,-62.5011 L 1357.24,-62.96 L 1357.52,-63.3919 L 1357.84,-63.7921 L 1358.21,-64.1563 L 1358.61,-64.4804
 L 1358.95,-64.7024 L 1358.95,-74 L 1359.01,-74.5302 L 1359.17,-75.0372 L 1359.44,-75.4988 L 1359.79,-75.895
 L 1360.23,-76.2084 L 1360.71,-76.4252 L 1361.23,-76.536 L 1361.77,-76.536 L 1362.29,-76.4252 L 1362.77,-76.2084
 L 1363.21,-75.895 L 1363.56,-75.4988 L 1363.83,-75.0372 L 1363.99,-74.5302 L 1364.05,-74 L 1364.05,-64.7024
 L 1364.39,-64.4804 L 1364.79,-64.1563 L 1365.16,-63.7921 L 1365.48,-63.3919 L 1365.76,-62.96 L 1365.99,-62.5011
 L 1366.18,-62.0204 L 1366.31,-61.5229 L 1366.39,-61.0143 L 1366.42,-60.5 L 1366.39,-59.9857 L 1366.31,-59.4771
 L 1366.18,-58.9796 L 1365.99,-58.4989 L 1365.76,-58.04 L 1365.48,-57.6081 L 1365.16,-57.2079 L 1364.79,-56.8437
 L 1364.39,-56.5196 L 1363.96,-56.2392 L 1363.5,-56.0054 L 1363.02,-55.8208 L 1362.52,-55.6875 L 1362.01,-55.607
 L 1361.5,-55.58 z
M 793.069,-20.5135 L 792.298,-20.8353 L 791.61,-21.3105 L 791.035,-21.9184 L 790.6,-22.6324 L 790.323,-23.4212
 L 790.214,-24.3461 L 790.214,-58 L 790.302,-58.8316 L 790.56,-59.627 L 790.978,-60.3511 L 791.538,-60.9726
 L 792.214,-61.4641 L 792.978,-61.8042 L 794.214,-62 L 889.944,-62 L 890.776,-61.9126 L 891.571,-61.6542
 L 892.295,-61.2361 L 892.917,-60.6765 L 893.408,-60 L 893.748,-59.2361 L 893.922,-58.4181 L 893.922,-57.5819
 L 893.748,-56.7639 L 893.408,-56 L 892.917,-55.3235 L 892.295,-54.7639 L 891.271,-54.2264 L 795.541,-20.5725
 L 794.727,-20.3792 L 793.891,-20.3592 z
M 683.987,-47.6896 L 683.173,-47.883 L 665.129,-54.2264 L 664.105,-54.7639 L 663.483,-55.3235 L 662.992,-56
 L 662.652,-56.7639 L 662.478,-57.5819 L 662.478,-58.4181 L 662.652,-59.2361 L 662.992,-60 L 663.483,-60.6765
 L 664.105,-61.2361 L 664.829,-61.6542 L 665.624,-61.9126 L 666.456,-62 L 702.544,-62 L 703.689,-61.8327
 L 704.461,-61.5109 L 705.149,-61.0357 L 705.723,-60.4278 L 706.158,-59.7138 L 706.436,-58.9249 L 706.543,-58.0956
 L 706.475,-57.2621 L 706.236,-56.4608 L 705.835,-55.7269 L 705.291,-55.0922 L 704.626,-54.5847 L 703.871,-54.2264
 L 685.827,-47.883 L 684.823,-47.6697 z
M 574.273,-20.3792 L 573.459,-20.5725 L 477.729,-54.2264 L 476.705,-54.7639 L 476.083,-55.3235 L 475.592,-56
 L 475.252,-56.7639 L 475.078,-57.5819 L 475.078,-58.4181 L 475.252,-59.2361 L 475.592,-60 L 476.083,-60.6765
 L 476.705,-61.2361 L 477.429,-61.6542 L 478.224,-61.9126 L 479.056,-62 L 574.786,-62 L 576.022,-61.8042
 L 576.786,-61.4641 L 577.462,-60.9726 L 578.022,-60.3511 L 578.44,-59.627 L 578.698,-58.8316 L 578.786,-58
 L 578.786,-24.3461 L 578.677,-23.4212 L 578.4,-22.6324 L 577.965,-21.9184 L 577.39,-21.3105 L 576.702,-20.8353
 L 575.931,-20.5135 L 575.109,-20.3592 z
M 380.844,-20.3792 L 380.031,-20.5725 L 284.301,-54.2264 L 283.276,-54.7639 L 282.655,-55.3235 L 282.163,-56
 L 281.823,-56.7639 L 281.649,-57.5819 L 281.649,-58.4181 L 281.823,-59.2361 L 282.163,-60 L 282.655,-60.6765
 L 283.276,-61.2361 L 284.001,-61.6542 L 284.796,-61.9126 L 285.627,-62 L 381.357,-62 L 382.593,-61.8042
 L 383.357,-61.4641 L 384.034,-60.9726 L 384.593,-60.3511 L 385.011,-59.627 L 385.27,-58.8316 L 385.357,-58
 L 385.357,-24.3461 L 385.249,-23.4212 L 384.971,-22.6324 L 384.536,-21.9184 L 383.962,-21.3105 L 383.274,-20.8353
 L 382.502,-20.5135 L 381.68,-20.3592 z
M 1179.93,-20.5135 L 1179.15,-20.8353 L 1178.47,-21.3105 L 1177.89,-21.9184 L 1177.46,-22.6324 L 1177.18,-23.4212
 L 1177.07,-24.3461 L 1177.07,-58 L 1177.16,-58.8316 L 1177.42,-59.627 L 1177.84,-60.3511 L 1178.39,-60.9726
 L 1179.07,-61.4641 L 1179.84,-61.8042 L 1181.07,-62 L 1276.8,-62 L 1277.63,-61.9126 L 1278.43,-61.6542
 L 1279.15,-61.2361 L 1279.77,-60.6765 L 1280.27,-60 L 1280.61,-59.2361 L 1280.78,-58.4181 L 1280.78,-57.5819
 L 1280.61,-56.7639 L 1280.27,-56 L 1279.77,-55.3235 L 1279.15,-54.7639 L 1278.13,-54.2264 L 1182.4,-20.5725
 L 1181.58,-20.3792 L 1180.75,-20.3592 z
M 187.416,-20.3792 L 186.602,-20.5725 L 90.8723,-54.2264 L 89.8478,-54.7639 L 89.2263,-55.3235 L 88.7348,-56
 L 88.3947,-56.7639 L 88.2208,-57.5819 L 88.2208,-58.4181 L 88.3947,-59.2361 L 88.7348,-60 L 89.2263,-60.6765
 L 89.8478,-61.2361 L 90.5719,-61.6542 L 91.3672,-61.9126 L 92.1989,-62 L 187.929,-62 L 189.165,-61.8042
 L 189.929,-61.4641 L 190.605,-60.9726 L 191.165,-60.3511 L 191.583,-59.627 L 191.841,-58.8316 L 191.929,-58
 L 191.929,-24.3461 L 191.82,-23.4212 L 191.543,-22.6324 L 191.108,-21.9184 L 190.533,-21.3105 L 189.845,-20.8353
 L 189.073,-20.5135 L 188.251,-20.3592 z
M 986.498,-20.5135 L 985.726,-20.8353 L 985.038,-21.3105 L 984.464,-21.9184 L 984.029,-22.6324 L 983.751,-23.4212
 L 983.643,-24.3461 L 983.643,-58 L 983.73,-58.8316 L 983.989,-59.627 L 984.407,-60.3511 L 984.966,-60.9726
 L 985.643,-61.4641 L 986.407,-61.8042 L 987.643,-62 L 1083.37,-62 L 1084.2,-61.9126 L 1085,-61.6542
 L 1085.72,-61.2361 L 1086.35,-60.6765 L 1086.84,-60 L 1087.18,-59.2361 L 1087.35,-58.4181 L 1087.35,-57.5819
 L 1087.18,-56.7639 L 1086.84,-56 L 1086.35,-55.3235 L 1085.72,-54.7639 L 1084.7,-54.2264 L 988.969,-20.5725
 L 988.156,-20.3792 L 987.32,-20.3592 z
M 600.368,-18.2487 L 599.55,-18.4225 L 598.786,-18.7627 L 598.109,-19.2542 L 597.55,-19.8756 L 597.132,-20.5998
 L 596.873,-21.3951 L 596.786,-22.2268 L 596.786,-57.7732 L 596.894,-58.6981 L 597.171,-59.487 L 597.607,-60.201
 L 598.181,-60.8089 L 598.869,-61.2841 L 599.641,-61.6059 L 600.463,-61.7602 L 601.299,-61.7402 L 602.112,-61.5468
 L 652.669,-43.7736 L 653.259,-43.5109 L 653.947,-43.0357 L 654.521,-42.4278 L 654.957,-41.7138 L 655.234,-40.9249
 L 655.341,-40.0956 L 655.274,-39.2621 L 655.034,-38.4608 L 654.634,-37.7269 L 654.089,-37.0922 L 653.425,-36.5847
 L 652.669,-36.2264 L 602.112,-18.4532 L 601.204,-18.2487 z
M 767.701,-18.2598 L 766.888,-18.4532 L 716.331,-36.2264 L 715.741,-36.4891 L 715.053,-36.9643 L 714.479,-37.5722
 L 714.043,-38.2862 L 713.766,-39.0751 L 713.659,-39.9044 L 713.726,-40.7379 L 713.966,-41.5392 L 714.366,-42.2731
 L 714.911,-42.9078 L 715.575,-43.4153 L 716.331,-43.7736 L 766.888,-61.5468 L 767.796,-61.7513 L 768.632,-61.7513
 L 769.45,-61.5775 L 770.214,-61.2373 L 770.891,-60.7458 L 771.45,-60.1244 L 771.868,-59.4002 L 772.127,-58.6049
 L 772.214,-57.7732 L 772.214,-22.2268 L 772.106,-21.3019 L 771.829,-20.513 L 771.393,-19.799 L 770.819,-19.1911
 L 770.131,-18.7159 L 769.359,-18.3941 L 768.537,-18.2398 z
M 213.929,-18 L 212.692,-18.1958 L 211.929,-18.5359 L 211.252,-19.0274 L 210.692,-19.6489 L 210.274,-20.373
 L 210.016,-21.1684 L 209.929,-22 L 209.929,-55.6538 L 210.037,-56.5787 L 210.314,-57.3676 L 210.75,-58.0816
 L 211.324,-58.6895 L 212.012,-59.1647 L 212.784,-59.4865 L 213.606,-59.6408 L 214.442,-59.6208 L 215.255,-59.4274
 L 310.985,-25.7736 L 312.009,-25.2361 L 312.631,-24.6765 L 313.122,-24 L 313.462,-23.2361 L 313.636,-22.4181
 L 313.636,-21.5819 L 313.462,-20.7639 L 313.122,-20 L 312.631,-19.3235 L 312.009,-18.7639 L 311.285,-18.3458
 L 310.49,-18.0874 L 309.658,-18 z
M 407.357,-18 L 406.121,-18.1958 L 405.357,-18.5359 L 404.681,-19.0274 L 404.121,-19.6489 L 403.703,-20.373
 L 403.445,-21.1684 L 403.357,-22 L 403.357,-55.6538 L 403.466,-56.5787 L 403.743,-57.3676 L 404.178,-58.0816
 L 404.752,-58.6895 L 405.44,-59.1647 L 406.212,-59.4865 L 407.034,-59.6408 L 407.87,-59.6208 L 408.684,-59.4274
 L 504.413,-25.7736 L 505.438,-25.2361 L 506.059,-24.6765 L 506.551,-24 L 506.891,-23.2361 L 507.065,-22.4181
 L 507.065,-21.5819 L 506.891,-20.7639 L 506.551,-20 L 506.059,-19.3235 L 505.438,-18.7639 L 504.714,-18.3458
 L 503.918,-18.0874 L 503.087,-18 z
M 865.913,-18 L 865.082,-18.0874 L 864.286,-18.3458 L 863.562,-18.7639 L 862.941,-19.3235 L 862.449,-20
 L 862.109,-20.7639 L 861.935,-21.5819 L 861.935,-22.4181 L 862.109,-23.2361 L 862.449,-24 L 862.941,-24.6765
 L 863.562,-25.2361 L 864.587,-25.7736 L 960.316,-59.4274 L 961.13,-59.6208 L 961.966,-59.6408 L 962.788,-59.4865
 L 963.56,-59.1647 L 964.248,-58.6895 L 964.822,-58.0816 L 965.257,-57.3676 L 965.534,-56.5787 L 965.643,-55.6538
 L 965.643,-22 L 965.555,-21.1684 L 965.297,-20.373 L 964.879,-19.6489 L 964.319,-19.0274 L 963.643,-18.5359
 L 962.879,-18.1958 L 961.643,-18 z
M 1059.34,-18 L 1058.51,-18.0874 L 1057.71,-18.3458 L 1056.99,-18.7639 L 1056.37,-19.3235 L 1055.88,-20
 L 1055.54,-20.7639 L 1055.36,-21.5819 L 1055.36,-22.4181 L 1055.54,-23.2361 L 1055.88,-24 L 1056.37,-24.6765
 L 1056.99,-25.2361 L 1058.02,-25.7736 L 1153.74,-59.4274 L 1154.56,-59.6208 L 1155.39,-59.6408 L 1156.22,-59.4865
 L 1156.99,-59.1647 L 1157.68,-58.6895 L 1158.25,-58.0816 L 1158.69,-57.3676 L 1158.96,-56.5787 L 1159.07,-55.6538
 L 1159.07,-22 L 1158.98,-21.1684 L 1158.73,-20.373 L 1158.31,-19.6489 L 1157.75,-19.0274 L 1157.07,-18.5359
 L 1156.31,-18.1958 L 1155.07,-18 z
M 22,-18 L 20.7639,-18.1958 L 20,-18.5359 L 19.3235,-19.0274 L 18.7639,-19.6489 L 18.3458,-20.373
 L 18.0874,-21.1684 L 18,-22 L 18,-55.1265 L 18.1084,-56.0514 L 18.3857,-56.8403 L 18.821,-57.5543
 L 19.3953,-58.1622 L 20.0833,-58.6374 L 20.8552,-58.9592 L 21.6771,-59.1135 L 22.513,-59.0935 L 23.3266,-58.9001
 L 117.556,-25.7736 L 118.581,-25.2361 L 119.202,-24.6765 L 119.694,-24 L 120.034,-23.2361 L 120.208,-22.4181
 L 120.208,-21.5819 L 120.034,-20.7639 L 119.694,-20 L 119.202,-19.3235 L 118.581,-18.7639 L 117.857,-18.3458
 L 117.061,-18.0874 L 116.23,-18 z
M 1252.77,-18 L 1251.94,-18.0874 L 1251.14,-18.3458 L 1250.42,-18.7639 L 1249.8,-19.3235 L 1249.31,-20
 L 1248.97,-20.7639 L 1248.79,-21.5819 L 1248.79,-22.4181 L 1248.97,-23.2361 L 1249.31,-24 L 1249.8,-24.6765
 L 1250.42,-25.2361 L 1251.44,-25.7736 L 1345.67,-58.9001 L 1346.49,-59.0935 L 1347.32,-59.1135 L 1348.14,-58.9592
 L 1348.92,-58.6374 L 1349.6,-58.1622 L 1350.18,-57.5543 L 1350.61,-56.8403 L 1350.89,-56.0514 L 1351,-55.1265
 L 1351,-22 L 1350.91,-21.1684 L 1350.65,-20.373 L 1350.24,-19.6489 L 1349.68,-19.0274 L 1349,-18.5359
 L 1348.24,-18.1958 L 1347,-18 z
M 666.456,-18 L 665.311,-18.1673 L 664.539,-18.4891 L 663.851,-18.9643 L 663.277,-19.5722 L 662.842,-20.2862
 L 662.564,-21.0751 L 662.457,-21.9044 L 662.525,-22.7379 L 662.764,-23.5392 L 663.165,-24.2731 L 663.709,-24.9078
 L 664.374,-25.4153 L 665.129,-25.7736 L 683.173,-32.117 L 684.177,-32.3303 L 685.013,-32.3104 L 685.827,-32.117
 L 703.871,-25.7736 L 704.895,-25.2361 L 705.517,-24.6765 L 706.008,-24 L 706.348,-23.2361 L 706.522,-22.4181
 L 706.522,-21.5819 L 706.348,-20.7639 L 706.008,-20 L 705.517,-19.3235 L 704.895,-18.7639 L 704.171,-18.3458
 L 703.376,-18.0874 L 702.544,-18 z
" stroke="black" fill="lightgray" stroke-width="0.5"/>
</svg>
