<?xml version="1.0" standalone="no"?>
<!DOCTYPE svg PUBLIC "-//W3C//DTD SVG 1.1//EN" "http://www.w3.org/Graphics/SVG/1.1/DTD/svg11.dtd">
<svg width="1292mm" height="80mm" viewBox="0 -80 1292 80" xmlns="http://www.w3.org/2000/svg" version="1.1">
<title>OpenSCAD Model</title>
<path d="
M 1292,-80 L 0,-80 L 0,-0 L 4.95,-0 L 4.95,-6 L 5.00572,-6.53017
 L 5.17046,-7.03717 L 5.437,-7.49884 L 5.79372,-7.895 L 6.22499,-8.20836 L 6.71201,-8.42519 L 7.23344,-8.53603
 L 7.76654,-8.53603 L 8.28798,-8.42519 L 8.77499,-8.20836 L 9.20627,-7.895 L 9.56299,-7.49884 L 9.82953,-7.03717
 L 9.99426,-6.53017 L 10.05,-6 L 10.05,-0 L 187.379,-0 L 187.379,-6 L 187.434,-6.53017
 L 187.599,-7.03717 L 187.866,-7.49884 L 188.222,-7.895 L 188.654,-8.20836 L 189.141,-8.42519 L 189.662,-8.53603
 L 190.195,-8.53603 L 190.717,-8.42519 L 191.204,-8.20836 L 191.635,-7.895 L 191.992,-7.49884 L 192.258,-7.03717
 L 192.423,-6.53017 L 192.479,-6 L 192.479,-0 L 369.807,-0 L 369.807,-6 L 369.863,-6.53017
 L 370.028,-7.03717 L 370.294,-7.49884 L 370.651,-7.895 L 371.082,-8.20836 L 371.569,-8.42519 L 372.091,-8.53603
 L 372.624,-8.53603 L 373.145,-8.42519 L 373.632,-8.20836 L 374.063,-7.895 L 374.42,-7.49884 L 374.687,-7.03717
 L 374.851,-6.53017 L 374.907,-6 L 374.907,-0 L 552.236,-0 L 552.236,-6 L 552.291,-6.53017
 L 552.456,-7.03717 L 552.723,-7.49884 L 553.079,-7.895 L 553.511,-8.20836 L 553.998,-8.42519 L 554.519,-8.53603
 L 555.052,-8.53603 L 555.574,-8.42519 L 556.061,-8.20836 L 556.492,-7.895 L 556.849,-7.49884 L 557.115,-7.03717
 L 557.28,-6.53017 L 557.336,-6 L 557.336,-0 L 734.664,-0 L 734.664,-6 L 734.72,-6.53017
 L 734.885,-7.03717 L 735.151,-7.49884 L 735.508,-7.895 L 735.939,-8.20836 L 736.426,-8.42519 L 736.948,-8.53603
 L 737.481,-8.53603 L 738.002,-8.42519 L 738.489,-8.20836 L 738.921,-7.895 L 739.277,-7.49884 L 739.544,-7.03717
 L 739.709,-6.53017 L 739.764,-6 L 739.764,-0 L 917.093,-0 L 917.093,-6 L 917.149,-6.53017
 L 917.313,-7.03717 L 917.58,-7.49884 L 917.937,-7.895 L 918.368,-8.20836 L 918.855,-8.42519 L 919.376,-8.53603
 L 919.909,-8.53603 L 920.431,-8.42519 L 920.918,-8.20836 L 921.349,-7.895 L 921.706,-7.49884 L 921.972,-7.03717
 L 922.137,-6.53017 L 922.193,-6 L 922.193,-0 L 1099.52,-0 L 1099.52,-6 L 1099.58,-6.53017
 L 1099.74,-7.03717 L 1100.01,-7.49884 L 1100.37,-7.895 L 1100.8,-8.20836 L 1101.28,-8.42519 L 1101.8,-8.53603
 L 1102.34,-8.53603 L 1102.86,-8.42519 L 1103.35,-8.20836 L 1103.78,-7.895 L 1104.13,-7.49884 L 1104.4,-7.03717
 L 1104.57,-6.53017 L 1104.62,-6 L 1104.62,-0 L 1281.95,-0 L 1281.95,-6 L 1282.01,-6.53017
 L 1282.17,-7.03717 L 1282.44,-7.49884 L 1282.79,-7.895 L 1283.22,-8.20836 L 1283.71,-8.42519 L 1284.23,-8.53603
 L 1284.77,-8.53603 L 1285.29,-8.42519 L 1285.77,-8.20836 L 1286.21,-7.895 L 1286.56,-7.49884 L 1286.83,-7.03717
 L 1286.99,-6.53017 L 1287.05,-6 L 1287.05,-0 L 1292,-0 z
M 6.98573,-55.607 L 6.47708,-55.6875 L 5.97964,-55.8208 L 5.49887,-56.0054 L 5.04001,-56.2392 L 4.60811,-56.5196
 L 4.20789,-56.8437 L 3.84373,-57.2079 L 3.51964,-57.6081 L 3.23917,-58.04 L 3.00537,-58.4989 L 2.82082,-58.9796
 L 2.68752,-59.4771 L 2.60696,-59.9857 L 2.58,-60.5 L 2.60696,-61.0143 L 2.68752,-61.5229 L 2.82082,-62.0204
 L 3.00537,-62.5011 L 3.23917,-62.96 L 3.51964,-63.3919 L 3.84373,-63.7921 L 4.20789,-64.1563 L 4.60811,-64.4804
 L 4.95001,-64.7024 L 4.95001,-74 L 5.00574,-74.5302 L 5.17047,-75.0372 L 5.43701,-75.4988 L 5.79373,-75.895
 L 6.22501,-76.2084 L 6.71202,-76.4252 L 7.23346,-76.536 L 7.76654,-76.536 L 8.28798,-76.4252 L 8.77499,-76.2084
 L 9.20627,-75.895 L 9.56299,-75.4988 L 9.82953,-75.0372 L 9.99426,-74.5302 L 10.05,-74 L 10.05,-64.7024
 L 10.3919,-64.4804 L 10.7921,-64.1563 L 11.1563,-63.7921 L 11.4804,-63.3919 L 11.7608,-62.96 L 11.9946,-62.5011
 L 12.1792,-62.0204 L 12.3125,-61.5229 L 12.393,-61.0143 L 12.42,-60.5 L 12.393,-59.9857 L 12.3125,-59.4771
 L 12.1792,-58.9796 L 11.9946,-58.4989 L 11.7608,-58.04 L 11.4804,-57.6081 L 11.1563,-57.2079 L 10.7921,-56.8437
 L 10.3919,-56.5196 L 9.95999,-56.2392 L 9.50113,-56.0054 L 9.02036,-55.8208 L 8.52292,-55.6875 L 8.01427,-55.607
 L 7.5,-55.58 z
M 189.414,-55.607 L 188.906,-55.6875 L 188.408,-55.8208 L 187.927,-56.0054 L 187.469,-56.2392 L 187.037,-56.5196
 L 186.636,-56.8437 L 186.272,-57.2079 L 185.948,-57.6081 L 185.668,-58.04 L 185.434,-58.4989 L 185.249,-58.9796
 L 185.116,-59.4771 L 185.036,-59.9857 L 185.009,-60.5 L 185.036,-61.0143 L 185.116,-61.5229 L 185.249,-62.0204
 L 185.434,-62.5011 L 185.668,-62.96 L 185.948,-63.3919 L 186.272,-63.7921 L 186.636,-64.1563 L 187.037,-64.4804
 L 187.379,-64.7024 L 187.379,-74 L 187.434,-74.5302 L 187.599,-75.0372 L 187.866,-75.4988 L 188.222,-75.895
 L 188.654,-76.2084 L 189.141,-76.4252 L 189.662,-76.536 L 190.195,-76.536 L 190.717,-76.4252 L 191.204,-76.2084
 L 191.635,-75.895 L 191.992,-75.4988 L 192.258,-75.0372 L 192.423,-74.5302 L 192.479,-74 L 192.479,-64.7024
 L 192.82,-64.4804 L 193.221,-64.1563 L 193.585,-63.7921 L 193.909,-63.3919 L 194.189,-62.96 L 194.423,-62.5011
 L 194.608,-62.0204 L 194.741,-61.5229 L 194.822,-61.0143 L 194.849,-60.5 L 194.822,-59.9857 L 194.741,-59.4771
 L 194.608,-58.9796 L 194.423,-58.4989 L 194.189,-58.04 L 193.909,-57.6081 L 193.585,-57.2079 L 193.221,-56.8437
 L 192.82,-56.5196 L 192.389,-56.2392 L 191.93,-56.0054 L 191.449,-55.8208 L 190.951,-55.6875 L 190.443,-55.607
 L 189.929,-55.58 z
M 371.843,-55.607 L 371.334,-55.6875 L 370.837,-55.8208 L 370.356,-56.0054 L 369.897,-56.2392 L 369.465,-56.5196
 L 369.065,-56.8437 L 368.701,-57.2079 L 368.377,-57.6081 L 368.096,-58.04 L 367.863,-58.4989 L 367.678,-58.9796
 L 367.545,-59.4771 L 367.464,-59.9857 L 367.437,-60.5 L 367.464,-61.0143 L 367.545,-61.5229 L 367.678,-62.0204
 L 367.863,-62.5011 L 368.096,-62.96 L 368.377,-63.3919 L 368.701,-63.7921 L 369.065,-64.1563 L 369.465,-64.4804
 L 369.807,-64.7024 L 369.807,-74 L 369.863,-74.5302 L 370.028,-75.0372 L 370.294,-75.4988 L 370.651,-75.895
 L 371.082,-76.2084 L 371.569,-76.4252 L 372.091,-76.536 L 372.624,-76.536 L 373.145,-76.4252 L 373.632,-76.2084
 L 374.063,-75.895 L 374.42,-75.4988 L 374.687,-75.0372 L 374.851,-74.5302 L 374.907,-74 L 374.907,-64.7024
 L 375.249,-64.4804 L 375.649,-64.1563 L 376.013,-63.7921 L 376.337,-63.3919 L 376.618,-62.96 L 376.852,-62.5011
 L 377.036,-62.0204 L 377.17,-61.5229 L 377.25,-61.0143 L 377.277,-60.5 L 377.25,-59.9857 L 377.17,-59.4771
 L 377.036,-58.9796 L 376.852,-58.4989 L 376.618,-58.04 L 376.337,-57.6081 L 376.013,-57.2079 L 375.649,-56.8437
 L 375.249,-56.5196 L 374.817,-56.2392 L 374.358,-56.0054 L 373.877,-55.8208 L 373.38,-55.6875 L 372.871,-55.607
 L 372.357,-55.58 z
M 554.271,-55.607 L 553.763,-55.6875 L 553.265,-55.8208 L 552.785,-56.0054 L 552.326,-56.2392 L 551.894,-56.5196
 L 551.494,-56.8437 L 551.129,-57.2079 L 550.805,-57.6081 L 550.525,-58.04 L 550.291,-58.4989 L 550.107,-58.9796
 L 549.973,-59.4771 L 549.893,-59.9857 L 549.866,-60.5 L 549.893,-61.0143 L 549.973,-61.5229 L 550.107,-62.0204
 L 550.291,-62.5011 L 550.525,-62.96 L 550.805,-63.3919 L 551.129,-63.7921 L 551.494,-64.1563 L 551.894,-64.4804
 L 552.236,-64.7024 L 552.236,-74 L 552.291,-74.5302 L 552.456,-75.0372 L 552.723,-75.4988 L 553.079,-75.895
 L 553.511,-76.2084 L 553.998,-76.4252 L 554.519,-76.536 L 555.052,-76.536 L 555.574,-76.4252 L 556.061,-76.2084
 L 556.492,-75.895 L 556.849,-75.4988 L 557.115,-75.0372 L 557.28,-74.5302 L 557.336,-74 L 557.336,-64.7024
 L 557.678,-64.4804 L 558.078,-64.1563 L 558.442,-63.7921 L 558.766,-63.3919 L 559.047,-62.96 L 559.28,-62.5011
 L 559.465,-62.0204 L 559.598,-61.5229 L 559.679,-61.0143 L 559.706,-60.5 L 559.679,-59.9857 L 559.598,-59.4771
 L 559.465,-58.9796 L 559.28,-58.4989 L 559.047,-58.04 L 558.766,-57.6081 L 558.442,-57.2079 L 558.078,-56.8437
 L 557.678,-56.5196 L 557.246,-56.2392 L 556.787,-56.0054 L 556.306,-55.8208 L 555.809,-55.6875 L 555.3,-55.607
 L 554.786,-55.58 z
M 736.7,-55.607 L 736.191,-55.6875 L 735.694,-55.8208 L 735.213,-56.0054 L 734.754,-56.2392 L 734.322,-56.5196
 L 733.922,-56.8437 L 733.558,-57.2079 L 733.234,-57.6081 L 732.953,-58.04 L 732.72,-58.4989 L 732.535,-58.9796
 L 732.402,-59.4771 L 732.321,-59.9857 L 732.294,-60.5 L 732.321,-61.0143 L 732.402,-61.5229 L 732.535,-62.0204
 L 732.72,-62.5011 L 732.953,-62.96 L 733.234,-63.3919 L 733.558,-63.7921 L 733.922,-64.1563 L 734.322,-64.4804
 L 734.664,-64.7024 L 734.664,-74 L 734.72,-74.5302 L 734.885,-75.0372 L 735.151,-75.4988 L 735.508,-75.895
 L 735.939,-76.2084 L 736.426,-76.4252 L 736.948,-76.536 L 737.481,-76.536 L 738.002,-76.4252 L 738.489,-76.2084
 L 738.921,-75.895 L 739.277,-75.4988 L 739.544,-75.0372 L 739.709,-74.5302 L 739.764,-74 L 739.764,-64.7024
 L 740.106,-64.4804 L 740.506,-64.1563 L 740.871,-63.7921 L 741.195,-63.3919 L 741.475,-62.96 L 741.709,-62.5011
 L 741.893,-62.0204 L 742.027,-61.5229 L 742.107,-61.0143 L 742.134,-60.5 L 742.107,-59.9857 L 742.027,-59.4771
 L 741.893,-58.9796 L 741.709,-58.4989 L 741.475,-58.04 L 741.195,-57.6081 L 740.871,-57.2079 L 740.506,-56.8437
 L 740.106,-56.5196 L 739.674,-56.2392 L 739.215,-56.0054 L 738.735,-55.8208 L 738.237,-55.6875 L 737.729,-55.607
 L 737.214,-55.58 z
M 919.129,-55.607 L 918.62,-55.6875 L 918.122,-55.8208 L 917.642,-56.0054 L 917.183,-56.2392 L 916.751,-56.5196
 L 916.351,-56.8437 L 915.987,-57.2079 L 915.662,-57.6081 L 915.382,-58.04 L 915.148,-58.4989 L 914.964,-58.9796
 L 914.83,-59.4771 L 914.75,-59.9857 L 914.723,-60.5 L 914.75,-61.0143 L 914.83,-61.5229 L 914.964,-62.0204
 L 915.148,-62.5011 L 915.382,-62.96 L 915.662,-63.3919 L 915.987,-63.7921 L 916.351,-64.1563 L 916.751,-64.4804
 L 917.093,-64.7024 L 917.093,-74 L 917.149,-74.5302 L 917.313,-75.0372 L 917.58,-75.4988 L 917.937,-75.895
 L 918.368,-76.2084 L 918.855,-76.4252 L 919.376,-76.536 L 919.909,-76.536 L 920.431,-76.4252 L 920.918,-76.2084
 L 921.349,-75.895 L 921.706,-75.4988 L 921.972,-75.0372 L 922.137,-74.5302 L 922.193,-74 L 922.193,-64.7024
 L 922.535,-64.4804 L 922.935,-64.1563 L 923.299,-63.7921 L 923.623,-63.3919 L 923.904,-62.96 L 924.137,-62.5011
 L 924.322,-62.0204 L 924.455,-61.5229 L 924.536,-61.0143 L 924.563,-60.5 L 924.536,-59.9857 L 924.455,-59.4771
 L 924.322,-58.9796 L 924.137,-58.4989 L 923.904,-58.04 L 923.623,-57.6081 L 923.299,-57.2079 L 922.935,-56.8437
 L 922.535,-56.5196 L 922.103,-56.2392 L 921.644,-56.0054 L 921.163,-55.8208 L 920.666,-55.6875 L 920.157,-55.607
 L 919.643,-55.58 z
M 1101.56,-55.607 L 1101.05,-55.6875 L 1100.55,-55.8208 L 1100.07,-56.0054 L 1099.61,-56.2392 L 1099.18,-56.5196
 L 1098.78,-56.8437 L 1098.42,-57.2079 L 1098.09,-57.6081 L 1097.81,-58.04 L 1097.58,-58.4989 L 1097.39,-58.9796
 L 1097.26,-59.4771 L 1097.18,-59.9857 L 1097.15,-60.5 L 1097.18,-61.0143 L 1097.26,-61.5229 L 1097.39,-62.0204
 L 1097.58,-62.5011 L 1097.81,-62.96 L 1098.09,-63.3919 L 1098.42,-63.7921 L 1098.78,-64.1563 L 1099.18,-64.4804
 L 1099.52,-64.7024 L 1099.52,-74 L 1099.58,-74.5302 L 1099.74,-75.0372 L 1100.01,-75.4988 L 1100.37,-75.895
 L 1100.8,-76.2084 L 1101.28,-76.4252 L 1101.8,-76.536 L 1102.34,-76.536 L 1102.86,-76.4252 L 1103.35,-76.2084
 L 1103.78,-75.895 L 1104.13,-75.4988 L 1104.4,-75.0372 L 1104.57,-74.5302 L 1104.62,-74 L 1104.62,-64.7024
 L 1104.96,-64.4804 L 1105.36,-64.1563 L 1105.73,-63.7921 L 1106.05,-63.3919 L 1106.33,-62.96 L 1106.57,-62.5011
 L 1106.75,-62.0204 L 1106.88,-61.5229 L 1106.96,-61.0143 L 1106.99,-60.5 L 1106.96,-59.9857 L 1106.88,-59.4771
 L 1106.75,-58.9796 L 1106.57,-58.4989 L 1106.33,-58.04 L 1106.05,-57.6081 L 1105.73,-57.2079 L 1105.36,-56.8437
 L 1104.96,-56.5196 L 1104.53,-56.2392 L 1104.07,-56.0054 L 1103.59,-55.8208 L 1103.09,-55.6875 L 1102.59,-55.607
 L 1102.07,-55.58 z
M 1283.99,-55.607 L 1283.48,-55.6875 L 1282.98,-55.8208 L 1282.5,-56.0054 L 1282.04,-56.2392 L 1281.61,-56.5196
 L 1281.21,-56.8437 L 1280.84,-57.2079 L 1280.52,-57.6081 L 1280.24,-58.04 L 1280.01,-58.4989 L 1279.82,-58.9796
 L 1279.69,-59.4771 L 1279.61,-59.9857 L 1279.58,-60.5 L 1279.61,-61.0143 L 1279.69,-61.5229 L 1279.82,-62.0204
 L 1280.01,-62.5011 L 1280.24,-62.96 L 1280.52,-63.3919 L 1280.84,-63.7921 L 1281.21,-64.1563 L 1281.61,-64.4804
 L 1281.95,-64.7024 L 1281.95,-74 L 1282.01,-74.5302 L 1282.17,-75.0372 L 1282.44,-75.4988 L 1282.79,-75.895
 L 1283.23,-76.2084 L 1283.71,-76.4252 L 1284.23,-76.536 L 1284.77,-76.536 L 1285.29,-76.4252 L 1285.77,-76.2084
 L 1286.21,-75.895 L 1286.56,-75.4988 L 1286.83,-75.0372 L 1286.99,-74.5302 L 1287.05,-74 L 1287.05,-64.7024
 L 1287.39,-64.4804 L 1287.79,-64.1563 L 1288.16,-63.7921 L 1288.48,-63.3919 L 1288.76,-62.96 L 1288.99,-62.5011
 L 1289.18,-62.0204 L 1289.31,-61.5229 L 1289.39,-61.0143 L 1289.42,-60.5 L 1289.39,-59.9857 L 1289.31,-59.4771
 L 1289.18,-58.9796 L 1288.99,-58.4989 L 1288.76,-58.04 L 1288.48,-57.6081 L 1288.16,-57.2079 L 1287.79,-56.8437
 L 1287.39,-56.5196 L 1286.96,-56.2392 L 1286.5,-56.0054 L 1286.02,-55.8208 L 1285.52,-55.6875 L 1285.01,-55.607
 L 1284.5,-55.58 z
M 749.141,-20.8534 L 748.364,-21.1607 L 747.667,-21.6229 L 747.081,-22.2199 L 746.633,-22.9257 L 746.341,-23.7092
 L 746.214,-24.7069 L 746.214,-58 L 746.302,-58.8316 L 746.56,-59.627 L 746.978,-60.3511 L 747.538,-60.9726
 L 748.214,-61.4641 L 748.978,-61.8042 L 750.214,-62 L 839.532,-62 L 840.364,-61.9126 L 841.159,-61.6542
 L 841.883,-61.2361 L 842.505,-60.6765 L 842.996,-60 L 843.336,-59.2361 L 843.51,-58.4181 L 843.51,-57.5819
 L 843.336,-56.7639 L 842.996,-56 L 842.505,-55.3235 L 841.883,-54.7639 L 840.929,-54.2519 L 751.611,-20.9588
 L 750.802,-20.7502 L 749.966,-20.7146 z
M 645.413,-47.772 L 644.603,-47.9806 L 627.778,-54.2519 L 626.824,-54.7639 L 626.203,-55.3235 L 625.711,-56
 L 625.371,-56.7639 L 625.197,-57.5819 L 625.197,-58.4181 L 625.371,-59.2361 L 625.711,-60 L 626.203,-60.6765
 L 626.824,-61.2361 L 627.548,-61.6542 L 628.344,-61.9126 L 629.175,-62 L 662.825,-62 L 663.897,-61.8535
 L 664.675,-61.5462 L 665.372,-61.084 L 665.957,-60.4869 L 666.406,-59.7812 L 666.698,-58.9977 L 666.821,-58.1705
 L 666.769,-57.3359 L 666.545,-56.5303 L 666.158,-55.7889 L 665.625,-55.1442 L 664.97,-54.6243 L 664.222,-54.2519
 L 647.397,-47.9806 L 646.248,-47.7364 z
M 541.198,-20.7502 L 540.389,-20.9588 L 451.071,-54.2519 L 450.117,-54.7639 L 449.495,-55.3235 L 449.004,-56
 L 448.664,-56.7639 L 448.49,-57.5819 L 448.49,-58.4181 L 448.664,-59.2361 L 449.004,-60 L 449.495,-60.6765
 L 450.117,-61.2361 L 450.841,-61.6542 L 451.636,-61.9126 L 452.468,-62 L 541.786,-62 L 543.022,-61.8042
 L 543.786,-61.4641 L 544.462,-60.9726 L 545.022,-60.3511 L 545.44,-59.627 L 545.698,-58.8316 L 545.786,-58
 L 545.786,-24.7069 L 545.659,-23.7092 L 545.367,-22.9257 L 544.919,-22.2199 L 544.333,-21.6229 L 543.636,-21.1607
 L 542.858,-20.8534 L 542.034,-20.7146 z
M 358.77,-20.7502 L 357.96,-20.9588 L 268.642,-54.2519 L 267.688,-54.7639 L 267.067,-55.3235 L 266.575,-56
 L 266.235,-56.7639 L 266.061,-57.5819 L 266.061,-58.4181 L 266.235,-59.2361 L 266.575,-60 L 267.067,-60.6765
 L 267.688,-61.2361 L 268.412,-61.6542 L 269.208,-61.9126 L 270.039,-62 L 359.357,-62 L 360.593,-61.8042
 L 361.357,-61.4641 L 362.034,-60.9726 L 362.593,-60.3511 L 363.011,-59.627 L 363.27,-58.8316 L 363.357,-58
 L 363.357,-24.7069 L 363.231,-23.7092 L 362.939,-22.9257 L 362.49,-22.2199 L 361.905,-21.6229 L 361.208,-21.1607
 L 360.43,-20.8534 L 359.605,-20.7146 z
M 1114,-20.8534 L 1113.22,-21.1607 L 1112.52,-21.6229 L 1111.94,-22.2199 L 1111.49,-22.9257 L 1111.2,-23.7092
 L 1111.07,-24.7069 L 1111.07,-58 L 1111.16,-58.8316 L 1111.42,-59.627 L 1111.84,-60.3511 L 1112.39,-60.9726
 L 1113.07,-61.4641 L 1113.84,-61.8042 L 1115.07,-62 L 1204.39,-62 L 1205.22,-61.9126 L 1206.02,-61.6542
 L 1206.74,-61.2361 L 1207.36,-60.6765 L 1207.85,-60 L 1208.19,-59.2361 L 1208.37,-58.4181 L 1208.37,-57.5819
 L 1208.19,-56.7639 L 1207.85,-56 L 1207.36,-55.3235 L 1206.74,-54.7639 L 1205.79,-54.2519 L 1116.47,-20.9588
 L 1115.66,-20.7502 L 1114.82,-20.7146 z
M 176.341,-20.7502 L 175.531,-20.9588 L 86.2135,-54.2519 L 85.2595,-54.7639 L 84.6381,-55.3235 L 84.1465,-56
 L 83.8064,-56.7639 L 83.6326,-57.5819 L 83.6326,-58.4181 L 83.8064,-59.2361 L 84.1465,-60 L 84.6381,-60.6765
 L 85.2595,-61.2361 L 85.9837,-61.6542 L 86.779,-61.9126 L 87.6106,-62 L 176.929,-62 L 178.165,-61.8042
 L 178.929,-61.4641 L 179.605,-60.9726 L 180.165,-60.3511 L 180.583,-59.627 L 180.841,-58.8316 L 180.929,-58
 L 180.929,-24.7069 L 180.802,-23.7092 L 180.51,-22.9257 L 180.061,-22.2199 L 179.476,-21.6229 L 178.779,-21.1607
 L 178.001,-20.8534 L 177.177,-20.7146 z
M 931.57,-20.8534 L 930.792,-21.1607 L 930.095,-21.6229 L 929.51,-22.2199 L 929.061,-22.9257 L 928.769,-23.7092
 L 928.643,-24.7069 L 928.643,-58 L 928.73,-58.8316 L 928.989,-59.627 L 929.407,-60.3511 L 929.966,-60.9726
 L 930.643,-61.4641 L 931.407,-61.8042 L 932.643,-62 L 1021.96,-62 L 1022.79,-61.9126 L 1023.59,-61.6542
 L 1024.31,-61.2361 L 1024.93,-60.6765 L 1025.42,-60 L 1025.77,-59.2361 L 1025.94,-58.4181 L 1025.94,-57.5819
 L 1025.77,-56.7639 L 1025.42,-56 L 1024.93,-55.3235 L 1024.31,-54.7639 L 1023.36,-54.2519 L 934.04,-20.9588
 L 933.23,-20.7502 L 932.395,-20.7146 z
M 567.368,-18.5963 L 566.55,-18.7702 L 565.786,-19.1103 L 565.109,-19.6018 L 564.55,-20.2233 L 564.132,-20.9474
 L 563.873,-21.7428 L 563.786,-22.5744 L 563.786,-57.4256 L 563.912,-58.4233 L 564.204,-59.2068 L 564.653,-59.9125
 L 565.238,-60.5096 L 565.935,-60.9718 L 566.713,-61.2791 L 567.538,-61.4179 L 568.373,-61.3822 L 569.183,-61.1737
 L 615.932,-43.7481 L 616.385,-43.5462 L 617.082,-43.084 L 617.668,-42.4869 L 618.116,-41.7812 L 618.408,-40.9977
 L 618.531,-40.1705 L 618.479,-39.3359 L 618.255,-38.5303 L 617.868,-37.7889 L 617.335,-37.1442 L 616.68,-36.6243
 L 615.932,-36.2519 L 569.183,-18.8263 L 568.204,-18.5963 z
M 723.627,-18.6177 L 722.817,-18.8263 L 676.068,-36.2519 L 675.615,-36.4538 L 674.918,-36.916 L 674.332,-37.5131
 L 673.884,-38.2188 L 673.592,-39.0023 L 673.469,-39.8295 L 673.521,-40.6641 L 673.745,-41.4697 L 674.132,-42.2111
 L 674.665,-42.8558 L 675.319,-43.3757 L 676.068,-43.7481 L 722.817,-61.1737 L 723.796,-61.4037 L 724.632,-61.4037
 L 725.45,-61.2298 L 726.214,-60.8897 L 726.891,-60.3982 L 727.45,-59.7767 L 727.868,-59.0526 L 728.127,-58.2573
 L 728.214,-57.4256 L 728.214,-22.5744 L 728.088,-21.5767 L 727.796,-20.7932 L 727.347,-20.0874 L 726.762,-19.4904
 L 726.065,-19.0282 L 725.287,-18.7209 L 724.462,-18.5821 z
M 202.929,-18 L 201.692,-18.1958 L 200.929,-18.5359 L 200.252,-19.0274 L 199.692,-19.6489 L 199.274,-20.373
 L 199.016,-21.1684 L 198.929,-22 L 198.929,-55.2931 L 199.055,-56.2908 L 199.347,-57.0743 L 199.796,-57.7801
 L 200.381,-58.3771 L 201.078,-58.8393 L 201.856,-59.1466 L 202.68,-59.2854 L 203.516,-59.2498 L 204.326,-59.0412
 L 293.644,-25.7481 L 294.598,-25.2361 L 295.219,-24.6765 L 295.711,-24 L 296.051,-23.2361 L 296.225,-22.4181
 L 296.225,-21.5819 L 296.051,-20.7639 L 295.711,-20 L 295.219,-19.3235 L 294.598,-18.7639 L 293.873,-18.3458
 L 293.078,-18.0874 L 292.246,-18 z
M 385.357,-18 L 384.121,-18.1958 L 383.357,-18.5359 L 382.681,-19.0274 L 382.121,-19.6489 L 381.703,-20.373
 L 381.445,-21.1684 L 381.357,-22 L 381.357,-55.2931 L 381.484,-56.2908 L 381.776,-57.0743 L 382.224,-57.7801
 L 382.81,-58.3771 L 383.507,-58.8393 L 384.284,-59.1466 L 385.109,-59.2854 L 385.944,-59.2498 L 386.754,-59.0412
 L 476.072,-25.7481 L 477.026,-25.2361 L 477.648,-24.6765 L 478.139,-24 L 478.479,-23.2361 L 478.653,-22.4181
 L 478.653,-21.5819 L 478.479,-20.7639 L 478.139,-20 L 477.648,-19.3235 L 477.026,-18.7639 L 476.302,-18.3458
 L 475.507,-18.0874 L 474.675,-18 z
M 817.325,-18 L 816.493,-18.0874 L 815.698,-18.3458 L 814.974,-18.7639 L 814.352,-19.3235 L 813.861,-20
 L 813.521,-20.7639 L 813.347,-21.5819 L 813.347,-22.4181 L 813.521,-23.2361 L 813.861,-24 L 814.352,-24.6765
 L 814.974,-25.2361 L 815.928,-25.7481 L 905.246,-59.0412 L 906.056,-59.2498 L 906.891,-59.2854 L 907.716,-59.1466
 L 908.493,-58.8393 L 909.19,-58.3771 L 909.776,-57.7801 L 910.224,-57.0743 L 910.516,-56.2908 L 910.643,-55.2931
 L 910.643,-22 L 910.555,-21.1684 L 910.297,-20.373 L 909.879,-19.6489 L 909.319,-19.0274 L 908.643,-18.5359
 L 907.879,-18.1958 L 906.643,-18 z
M 999.754,-18 L 998.922,-18.0874 L 998.127,-18.3458 L 997.402,-18.7639 L 996.781,-19.3235 L 996.289,-20
 L 995.949,-20.7639 L 995.775,-21.5819 L 995.775,-22.4181 L 995.949,-23.2361 L 996.289,-24 L 996.781,-24.6765
 L 997.402,-25.2361 L 998.356,-25.7481 L 1087.67,-59.0412 L 1088.48,-59.2498 L 1089.32,-59.2854 L 1090.14,-59.1466
 L 1090.92,-58.8393 L 1091.62,-58.3771 L 1092.2,-57.7801 L 1092.65,-57.0743 L 1092.95,-56.2908 L 1093.07,-55.2931
 L 1093.07,-22 L 1092.98,-21.1684 L 1092.73,-20.373 L 1092.31,-19.6489 L 1091.75,-19.0274 L 1091.07,-18.5359
 L 1090.31,-18.1958 L 1089.07,-18 z
M 22,-18 L 20.7639,-18.1958 L 20,-18.5359 L 19.3235,-19.0274 L 18.7639,-19.6489 L 18.3458,-20.373
 L 18.0874,-21.1684 L 18,-22 L 18,-54.734 L 18.1264,-55.7317 L 18.4185,-56.5152 L 18.8671,-57.2209
 L 19.4526,-57.8179 L 20.1495,-58.2802 L 20.9272,-58.5874 L 21.7518,-58.7263 L 22.5873,-58.6906 L 23.3971,-58.4821
 L 111.215,-25.7481 L 112.169,-25.2361 L 112.79,-24.6765 L 113.282,-24 L 113.622,-23.2361 L 113.796,-22.4181
 L 113.796,-21.5819 L 113.622,-20.7639 L 113.282,-20 L 112.79,-19.3235 L 112.169,-18.7639 L 111.445,-18.3458
 L 110.65,-18.0874 L 109.818,-18 z
M 1182.18,-18 L 1181.35,-18.0874 L 1180.56,-18.3458 L 1179.83,-18.7639 L 1179.21,-19.3235 L 1178.72,-20
 L 1178.38,-20.7639 L 1178.2,-21.5819 L 1178.2,-22.4181 L 1178.38,-23.2361 L 1178.72,-24 L 1179.21,-24.6765
 L 1179.83,-25.2361 L 1180.78,-25.7481 L 1268.6,-58.4821 L 1269.41,-58.6906 L 1270.25,-58.7263 L 1271.07,-58.5874
 L 1271.85,-58.2802 L 1272.55,-57.8179 L 1273.13,-57.2209 L 1273.58,-56.5152 L 1273.87,-55.7317 L 1274,-54.734
 L 1274,-22 L 1273.91,-21.1684 L 1273.65,-20.373 L 1273.24,-19.6489 L 1272.68,-19.0274 L 1272,-18.5359
 L 1271.24,-18.1958 L 1270,-18 z
M 629.175,-18 L 628.103,-18.1465 L 627.325,-18.4538 L 626.628,-18.916 L 626.042,-19.5131 L 625.594,-20.2188
 L 625.302,-21.0023 L 625.179,-21.8295 L 625.231,-22.6641 L 625.455,-23.4697 L 625.842,-24.2111 L 626.375,-24.8558
 L 627.03,-25.3757 L 627.778,-25.7481 L 644.603,-32.0194 L 645.752,-32.2636 L 646.587,-32.228 L 647.397,-32.0194
 L 664.222,-25.7481 L 665.176,-25.2361 L 665.797,-24.6765 L 666.289,-24 L 666.629,-23.2361 L 666.803,-22.4181
 L 666.803,-21.5819 L 666.629,-20.7639 L 666.289,-20 L 665.797,-19.3235 L 665.176,-18.7639 L 664.452,-18.3458
 L 663.656,-18.0874 L 662.825,-18 z
" stroke="black" fill="lightgray" stroke-width="0.5"/>
</svg>
