<?xml version="1.0" standalone="no"?>
<!DOCTYPE svg PUBLIC "-//W3C//DTD SVG 1.1//EN" "http://www.w3.org/Graphics/SVG/1.1/DTD/svg11.dtd">
<svg width="1640mm" height="80mm" viewBox="0 -80 1640 80" xmlns="http://www.w3.org/2000/svg" version="1.1">
<title>OpenSCAD Model</title>
<path d="
M 1640,-80 L 0,-80 L 0,-0 L 4.95,-0 L 4.95,-6 L 5.00572,-6.53017
 L 5.17046,-7.03717 L 5.437,-7.49884 L 5.79372,-7.895 L 6.22499,-8.20836 L 6.71201,-8.42519 L 7.23344,-8.53603
 L 7.76654,-8.53603 L 8.28798,-8.42519 L 8.77499,-8.20836 L 9.20627,-7.895 L 9.56299,-7.49884 L 9.82953,-7.03717
 L 9.99426,-6.53017 L 10.05,-6 L 10.05,-0 L 185.506,-0 L 185.506,-6 L 185.561,-6.53017
 L 185.726,-7.03717 L 185.993,-7.49884 L 186.349,-7.895 L 186.781,-8.20836 L 187.268,-8.42519 L 187.789,-8.53603
 L 188.322,-8.53603 L 188.844,-8.42519 L 189.331,-8.20836 L 189.762,-7.895 L 190.119,-7.49884 L 190.385,-7.03717
 L 190.55,-6.53017 L 190.606,-6 L 190.606,-0 L 366.061,-0 L 366.061,-6 L 366.117,-6.53017
 L 366.282,-7.03717 L 366.548,-7.49884 L 366.905,-7.895 L 367.336,-8.20836 L 367.823,-8.42519 L 368.345,-8.53603
 L 368.878,-8.53603 L 369.399,-8.42519 L 369.886,-8.20836 L 370.317,-7.895 L 370.674,-7.49884 L 370.941,-7.03717
 L 371.105,-6.53017 L 371.161,-6 L 371.161,-0 L 546.617,-0 L 546.617,-6 L 546.672,-6.53017
 L 546.837,-7.03717 L 547.104,-7.49884 L 547.46,-7.895 L 547.892,-8.20836 L 548.379,-8.42519 L 548.9,-8.53603
 L 549.433,-8.53603 L 549.955,-8.42519 L 550.442,-8.20836 L 550.873,-7.895 L 551.23,-7.49884 L 551.496,-7.03717
 L 551.661,-6.53017 L 551.717,-6 L 551.717,-0 L 727.172,-0 L 727.172,-6 L 727.228,-6.53017
 L 727.393,-7.03717 L 727.659,-7.49884 L 728.016,-7.895 L 728.447,-8.20836 L 728.934,-8.42519 L 729.456,-8.53603
 L 729.989,-8.53603 L 730.51,-8.42519 L 730.997,-8.20836 L 731.428,-7.895 L 731.785,-7.49884 L 732.052,-7.03717
 L 732.216,-6.53017 L 732.272,-6 L 732.272,-0 L 907.728,-0 L 907.728,-6 L 907.783,-6.53017
 L 907.948,-7.03717 L 908.215,-7.49884 L 908.571,-7.895 L 909.003,-8.20836 L 909.49,-8.42519 L 910.011,-8.53603
 L 910.544,-8.53603 L 911.066,-8.42519 L 911.553,-8.20836 L 911.984,-7.895 L 912.341,-7.49884 L 912.607,-7.03717
 L 912.772,-6.53017 L 912.828,-6 L 912.828,-0 L 1088.28,-0 L 1088.28,-6 L 1088.34,-6.53017
 L 1088.5,-7.03717 L 1088.77,-7.49884 L 1089.13,-7.895 L 1089.56,-8.20836 L 1090.05,-8.42519 L 1090.57,-8.53603
 L 1091.1,-8.53603 L 1091.62,-8.42519 L 1092.11,-8.20836 L 1092.54,-7.895 L 1092.9,-7.49884 L 1093.16,-7.03717
 L 1093.33,-6.53017 L 1093.38,-6 L 1093.38,-0 L 1268.84,-0 L 1268.84,-6 L 1268.89,-6.53017
 L 1269.06,-7.03717 L 1269.33,-7.49884 L 1269.68,-7.895 L 1270.11,-8.20836 L 1270.6,-8.42519 L 1271.12,-8.53603
 L 1271.66,-8.53603 L 1272.18,-8.42519 L 1272.66,-8.20836 L 1273.1,-7.895 L 1273.45,-7.49884 L 1273.72,-7.03717
 L 1273.88,-6.53017 L 1273.94,-6 L 1273.94,-0 L 1449.39,-0 L 1449.39,-6 L 1449.45,-6.53017
 L 1449.61,-7.03717 L 1449.88,-7.49884 L 1450.24,-7.895 L 1450.67,-8.20836 L 1451.16,-8.42519 L 1451.68,-8.53603
 L 1452.21,-8.53603 L 1452.73,-8.42519 L 1453.22,-8.20836 L 1453.65,-7.895 L 1454.01,-7.49884 L 1454.27,-7.03717
 L 1454.44,-6.53017 L 1454.49,-6 L 1454.49,-0 L 1629.95,-0 L 1629.95,-6 L 1630.01,-6.53017
 L 1630.17,-7.03717 L 1630.44,-7.49884 L 1630.79,-7.895 L 1631.22,-8.20836 L 1631.71,-8.42519 L 1632.23,-8.53603
 L 1632.77,-8.53603 L 1633.29,-8.42519 L 1633.77,-8.20836 L 1634.21,-7.895 L 1634.56,-7.49884 L 1634.83,-7.03717
 L 1634.99,-6.53017 L 1635.05,-6 L 1635.05,-0 L 1640,-0 z
M 6.98573,-55.607 L 6.47708,-55.6875 L 5.97964,-55.8208 L 5.49887,-56.0054 L 5.04001,-56.2392 L 4.60811,-56.5196
 L 4.20789,-56.8437 L 3.84373,-57.2079 L 3.51964,-57.6081 L 3.23917,-58.04 L 3.00537,-58.4989 L 2.82082,-58.9796
 L 2.68752,-59.4771 L 2.60696,-59.9857 L 2.58,-60.5 L 2.60696,-61.0143 L 2.68752,-61.5229 L 2.82082,-62.0204
 L 3.00537,-62.5011 L 3.23917,-62.96 L 3.51964,-63.3919 L 3.84373,-63.7921 L 4.20789,-64.1563 L 4.60811,-64.4804
 L 4.95001,-64.7024 L 4.95001,-74 L 5.00574,-74.5302 L 5.17047,-75.0372 L 5.43701,-75.4988 L 5.79373,-75.895
 L 6.22501,-76.2084 L 6.71202,-76.4252 L 7.23346,-76.536 L 7.76654,-76.536 L 8.28798,-76.4252 L 8.77499,-76.2084
 L 9.20627,-75.895 L 9.56299,-75.4988 L 9.82953,-75.0372 L 9.99426,-74.5302 L 10.05,-74 L 10.05,-64.7024
 L 10.3919,-64.4804 L 10.7921,-64.1563 L 11.1563,-63.7921 L 11.4804,-63.3919 L 11.7608,-62.96 L 11.9946,-62.5011
 L 12.1792,-62.0204 L 12.3125,-61.5229 L 12.393,-61.0143 L 12.42,-60.5 L 12.393,-59.9857 L 12.3125,-59.4771
 L 12.1792,-58.9796 L 11.9946,-58.4989 L 11.7608,-58.04 L 11.4804,-57.6081 L 11.1563,-57.2079 L 10.7921,-56.8437
 L 10.3919,-56.5196 L 9.95999,-56.2392 L 9.50113,-56.0054 L 9.02036,-55.8208 L 8.52292,-55.6875 L 8.01427,-55.607
 L 7.5,-55.58 z
M 1090.32,-55.607 L 1089.81,-55.6875 L 1089.31,-55.8208 L 1088.83,-56.0054 L 1088.37,-56.2392 L 1087.94,-56.5196
 L 1087.54,-56.8437 L 1087.18,-57.2079 L 1086.85,-57.6081 L 1086.57,-58.04 L 1086.34,-58.4989 L 1086.15,-58.9796
 L 1086.02,-59.4771 L 1085.94,-59.9857 L 1085.91,-60.5 L 1085.94,-61.0143 L 1086.02,-61.5229 L 1086.15,-62.0204
 L 1086.34,-62.5011 L 1086.57,-62.96 L 1086.85,-63.3919 L 1087.18,-63.7921 L 1087.54,-64.1563 L 1087.94,-64.4804
 L 1088.28,-64.7024 L 1088.28,-74 L 1088.34,-74.5302 L 1088.5,-75.0372 L 1088.77,-75.4988 L 1089.13,-75.895
 L 1089.56,-76.2084 L 1090.05,-76.4252 L 1090.57,-76.536 L 1091.1,-76.536 L 1091.62,-76.4252 L 1092.11,-76.2084
 L 1092.54,-75.895 L 1092.9,-75.4988 L 1093.16,-75.0372 L 1093.33,-74.5302 L 1093.38,-74 L 1093.38,-64.7024
 L 1093.73,-64.4804 L 1094.13,-64.1563 L 1094.49,-63.7921 L 1094.81,-63.3919 L 1095.09,-62.96 L 1095.33,-62.5011
 L 1095.51,-62.0204 L 1095.65,-61.5229 L 1095.73,-61.0143 L 1095.75,-60.5 L 1095.73,-59.9857 L 1095.65,-59.4771
 L 1095.51,-58.9796 L 1095.33,-58.4989 L 1095.09,-58.04 L 1094.81,-57.6081 L 1094.49,-57.2079 L 1094.13,-56.8437
 L 1093.73,-56.5196 L 1093.29,-56.2392 L 1092.83,-56.0054 L 1092.35,-55.8208 L 1091.86,-55.6875 L 1091.35,-55.607
 L 1090.83,-55.58 z
M 1270.87,-55.607 L 1270.37,-55.6875 L 1269.87,-55.8208 L 1269.39,-56.0054 L 1268.93,-56.2392 L 1268.5,-56.5196
 L 1268.1,-56.8437 L 1267.73,-57.2079 L 1267.41,-57.6081 L 1267.13,-58.04 L 1266.89,-58.4989 L 1266.71,-58.9796
 L 1266.58,-59.4771 L 1266.5,-59.9857 L 1266.47,-60.5 L 1266.5,-61.0143 L 1266.58,-61.5229 L 1266.71,-62.0204
 L 1266.89,-62.5011 L 1267.13,-62.96 L 1267.41,-63.3919 L 1267.73,-63.7921 L 1268.1,-64.1563 L 1268.5,-64.4804
 L 1268.84,-64.7024 L 1268.84,-74 L 1268.89,-74.5302 L 1269.06,-75.0372 L 1269.33,-75.4988 L 1269.68,-75.895
 L 1270.11,-76.2084 L 1270.6,-76.4252 L 1271.12,-76.536 L 1271.66,-76.536 L 1272.18,-76.4252 L 1272.66,-76.2084
 L 1273.1,-75.895 L 1273.45,-75.4988 L 1273.72,-75.0372 L 1273.88,-74.5302 L 1273.94,-74 L 1273.94,-64.7024
 L 1274.28,-64.4804 L 1274.68,-64.1563 L 1275.05,-63.7921 L 1275.37,-63.3919 L 1275.65,-62.96 L 1275.88,-62.5011
 L 1276.07,-62.0204 L 1276.2,-61.5229 L 1276.28,-61.0143 L 1276.31,-60.5 L 1276.28,-59.9857 L 1276.2,-59.4771
 L 1276.07,-58.9796 L 1275.88,-58.4989 L 1275.65,-58.04 L 1275.37,-57.6081 L 1275.05,-57.2079 L 1274.68,-56.8437
 L 1274.28,-56.5196 L 1273.85,-56.2392 L 1273.39,-56.0054 L 1272.91,-55.8208 L 1272.41,-55.6875 L 1271.9,-55.607
 L 1271.39,-55.58 z
M 909.764,-55.607 L 909.255,-55.6875 L 908.757,-55.8208 L 908.277,-56.0054 L 907.818,-56.2392 L 907.386,-56.5196
 L 906.986,-56.8437 L 906.622,-57.2079 L 906.297,-57.6081 L 906.017,-58.04 L 905.783,-58.4989 L 905.599,-58.9796
 L 905.465,-59.4771 L 905.385,-59.9857 L 905.358,-60.5 L 905.385,-61.0143 L 905.465,-61.5229 L 905.599,-62.0204
 L 905.783,-62.5011 L 906.017,-62.96 L 906.297,-63.3919 L 906.622,-63.7921 L 906.986,-64.1563 L 907.386,-64.4804
 L 907.728,-64.7024 L 907.728,-74 L 907.784,-74.5302 L 907.948,-75.0372 L 908.215,-75.4988 L 908.572,-75.895
 L 909.003,-76.2084 L 909.49,-76.4252 L 910.011,-76.536 L 910.544,-76.536 L 911.066,-76.4252 L 911.553,-76.2084
 L 911.984,-75.895 L 912.341,-75.4988 L 912.607,-75.0372 L 912.772,-74.5302 L 912.828,-74 L 912.828,-64.7024
 L 913.17,-64.4804 L 913.57,-64.1563 L 913.934,-63.7921 L 914.258,-63.3919 L 914.539,-62.96 L 914.772,-62.5011
 L 914.957,-62.0204 L 915.09,-61.5229 L 915.171,-61.0143 L 915.198,-60.5 L 915.171,-59.9857 L 915.09,-59.4771
 L 914.957,-58.9796 L 914.772,-58.4989 L 914.539,-58.04 L 914.258,-57.6081 L 913.934,-57.2079 L 913.57,-56.8437
 L 913.17,-56.5196 L 912.738,-56.2392 L 912.279,-56.0054 L 911.798,-55.8208 L 911.301,-55.6875 L 910.792,-55.607
 L 910.278,-55.58 z
M 729.208,-55.607 L 728.699,-55.6875 L 728.202,-55.8208 L 727.721,-56.0054 L 727.262,-56.2392 L 726.83,-56.5196
 L 726.43,-56.8437 L 726.066,-57.2079 L 725.742,-57.6081 L 725.461,-58.04 L 725.228,-58.4989 L 725.043,-58.9796
 L 724.91,-59.4771 L 724.829,-59.9857 L 724.802,-60.5 L 724.829,-61.0143 L 724.91,-61.5229 L 725.043,-62.0204
 L 725.228,-62.5011 L 725.461,-62.96 L 725.742,-63.3919 L 726.066,-63.7921 L 726.43,-64.1563 L 726.83,-64.4804
 L 727.172,-64.7024 L 727.172,-74 L 727.228,-74.5302 L 727.393,-75.0372 L 727.659,-75.4988 L 728.016,-75.895
 L 728.447,-76.2084 L 728.934,-76.4252 L 729.456,-76.536 L 729.989,-76.536 L 730.51,-76.4252 L 730.997,-76.2084
 L 731.428,-75.895 L 731.785,-75.4988 L 732.052,-75.0372 L 732.216,-74.5302 L 732.272,-74 L 732.272,-64.7024
 L 732.614,-64.4804 L 733.014,-64.1563 L 733.378,-63.7921 L 733.703,-63.3919 L 733.983,-62.96 L 734.217,-62.5011
 L 734.401,-62.0204 L 734.535,-61.5229 L 734.615,-61.0143 L 734.642,-60.5 L 734.615,-59.9857 L 734.535,-59.4771
 L 734.401,-58.9796 L 734.217,-58.4989 L 733.983,-58.04 L 733.703,-57.6081 L 733.378,-57.2079 L 733.014,-56.8437
 L 732.614,-56.5196 L 732.182,-56.2392 L 731.723,-56.0054 L 731.243,-55.8208 L 730.745,-55.6875 L 730.236,-55.607
 L 729.722,-55.58 z
M 1451.43,-55.607 L 1450.92,-55.6875 L 1450.42,-55.8208 L 1449.94,-56.0054 L 1449.48,-56.2392 L 1449.05,-56.5196
 L 1448.65,-56.8437 L 1448.29,-57.2079 L 1447.96,-57.6081 L 1447.68,-58.04 L 1447.45,-58.4989 L 1447.27,-58.9796
 L 1447.13,-59.4771 L 1447.05,-59.9857 L 1447.02,-60.5 L 1447.05,-61.0143 L 1447.13,-61.5229 L 1447.27,-62.0204
 L 1447.45,-62.5011 L 1447.68,-62.96 L 1447.96,-63.3919 L 1448.29,-63.7921 L 1448.65,-64.1563 L 1449.05,-64.4804
 L 1449.39,-64.7024 L 1449.39,-74 L 1449.45,-74.5302 L 1449.61,-75.0372 L 1449.88,-75.4988 L 1450.24,-75.895
 L 1450.67,-76.2084 L 1451.16,-76.4252 L 1451.68,-76.536 L 1452.21,-76.536 L 1452.73,-76.4252 L 1453.22,-76.2084
 L 1453.65,-75.895 L 1454.01,-75.4988 L 1454.27,-75.0372 L 1454.44,-74.5302 L 1454.49,-74 L 1454.49,-64.7024
 L 1454.84,-64.4804 L 1455.24,-64.1563 L 1455.6,-63.7921 L 1455.92,-63.3919 L 1456.21,-62.96 L 1456.44,-62.5011
 L 1456.62,-62.0204 L 1456.76,-61.5229 L 1456.84,-61.0143 L 1456.86,-60.5 L 1456.84,-59.9857 L 1456.76,-59.4771
 L 1456.62,-58.9796 L 1456.44,-58.4989 L 1456.21,-58.04 L 1455.92,-57.6081 L 1455.6,-57.2079 L 1455.24,-56.8437
 L 1454.84,-56.5196 L 1454.4,-56.2392 L 1453.95,-56.0054 L 1453.46,-55.8208 L 1452.97,-55.6875 L 1452.46,-55.607
 L 1451.94,-55.58 z
M 548.652,-55.607 L 548.144,-55.6875 L 547.646,-55.8208 L 547.166,-56.0054 L 546.707,-56.2392 L 546.275,-56.5196
 L 545.875,-56.8437 L 545.51,-57.2079 L 545.186,-57.6081 L 544.906,-58.04 L 544.672,-58.4989 L 544.487,-58.9796
 L 544.354,-59.4771 L 544.274,-59.9857 L 544.247,-60.5 L 544.274,-61.0143 L 544.354,-61.5229 L 544.487,-62.0204
 L 544.672,-62.5011 L 544.906,-62.96 L 545.186,-63.3919 L 545.51,-63.7921 L 545.875,-64.1563 L 546.275,-64.4804
 L 546.617,-64.7024 L 546.617,-74 L 546.672,-74.5302 L 546.837,-75.0372 L 547.104,-75.4988 L 547.46,-75.895
 L 547.892,-76.2084 L 548.379,-76.4252 L 548.9,-76.536 L 549.433,-76.536 L 549.955,-76.4252 L 550.442,-76.2084
 L 550.873,-75.895 L 551.23,-75.4988 L 551.496,-75.0372 L 551.661,-74.5302 L 551.717,-74 L 551.717,-64.7024
 L 552.059,-64.4804 L 552.459,-64.1563 L 552.823,-63.7921 L 553.147,-63.3919 L 553.427,-62.96 L 553.661,-62.5011
 L 553.846,-62.0204 L 553.979,-61.5229 L 554.06,-61.0143 L 554.087,-60.5 L 554.06,-59.9857 L 553.979,-59.4771
 L 553.846,-58.9796 L 553.661,-58.4989 L 553.427,-58.04 L 553.147,-57.6081 L 552.823,-57.2079 L 552.459,-56.8437
 L 552.059,-56.5196 L 551.627,-56.2392 L 551.168,-56.0054 L 550.687,-55.8208 L 550.19,-55.6875 L 549.681,-55.607
 L 549.167,-55.58 z
M 368.097,-55.607 L 367.588,-55.6875 L 367.091,-55.8208 L 366.61,-56.0054 L 366.151,-56.2392 L 365.719,-56.5196
 L 365.319,-56.8437 L 364.955,-57.2079 L 364.631,-57.6081 L 364.35,-58.04 L 364.116,-58.4989 L 363.932,-58.9796
 L 363.799,-59.4771 L 363.718,-59.9857 L 363.691,-60.5 L 363.718,-61.0143 L 363.799,-61.5229 L 363.932,-62.0204
 L 364.116,-62.5011 L 364.35,-62.96 L 364.631,-63.3919 L 364.955,-63.7921 L 365.319,-64.1563 L 365.719,-64.4804
 L 366.061,-64.7024 L 366.061,-74 L 366.117,-74.5302 L 366.282,-75.0372 L 366.548,-75.4988 L 366.905,-75.895
 L 367.336,-76.2084 L 367.823,-76.4252 L 368.345,-76.536 L 368.878,-76.536 L 369.399,-76.4252 L 369.886,-76.2084
 L 370.317,-75.895 L 370.674,-75.4988 L 370.941,-75.0372 L 371.105,-74.5302 L 371.161,-74 L 371.161,-64.7024
 L 371.503,-64.4804 L 371.903,-64.1563 L 372.267,-63.7921 L 372.591,-63.3919 L 372.872,-62.96 L 373.106,-62.5011
 L 373.29,-62.0204 L 373.424,-61.5229 L 373.504,-61.0143 L 373.531,-60.5 L 373.504,-59.9857 L 373.424,-59.4771
 L 373.29,-58.9796 L 373.106,-58.4989 L 372.872,-58.04 L 372.591,-57.6081 L 372.267,-57.2079 L 371.903,-56.8437
 L 371.503,-56.5196 L 371.071,-56.2392 L 370.612,-56.0054 L 370.131,-55.8208 L 369.634,-55.6875 L 369.125,-55.607
 L 368.611,-55.58 z
M 1631.99,-55.607 L 1631.48,-55.6875 L 1630.98,-55.8208 L 1630.5,-56.0054 L 1630.04,-56.2392 L 1629.61,-56.5196
 L 1629.21,-56.8437 L 1628.84,-57.2079 L 1628.52,-57.6081 L 1628.24,-58.04 L 1628.01,-58.4989 L 1627.82,-58.9796
 L 1627.69,-59.4771 L 1627.61,-59.9857 L 1627.58,-60.5 L 1627.61,-61.0143 L 1627.69,-61.5229 L 1627.82,-62.0204
 L 1628.01,-62.5011 L 1628.24,-62.96 L 1628.52,-63.3919 L 1628.84,-63.7921 L 1629.21,-64.1563 L 1629.61,-64.4804
 L 1629.95,-64.7024 L 1629.95,-74 L 1630.01,-74.5302 L 1630.17,-75.0372 L 1630.44,-75.4988 L 1630.79,-75.895
 L 1631.23,-76.2084 L 1631.71,-76.4252 L 1632.23,-76.536 L 1632.77,-76.536 L 1633.29,-76.4252 L 1633.77,-76.2084
 L 1634.21,-75.895 L 1634.56,-75.4988 L 1634.83,-75.0372 L 1634.99,-74.5302 L 1635.05,-74 L 1635.05,-64.7024
 L 1635.39,-64.4804 L 1635.79,-64.1563 L 1636.16,-63.7921 L 1636.48,-63.3919 L 1636.76,-62.96 L 1636.99,-62.5011
 L 1637.18,-62.0204 L 1637.31,-61.5229 L 1637.39,-61.0143 L 1637.42,-60.5 L 1637.39,-59.9857 L 1637.31,-59.4771
 L 1637.18,-58.9796 L 1636.99,-58.4989 L 1636.76,-58.04 L 1636.48,-57.6081 L 1636.16,-57.2079 L 1635.79,-56.8437
 L 1635.39,-56.5196 L 1634.96,-56.2392 L 1634.5,-56.0054 L 1634.02,-55.8208 L 1633.52,-55.6875 L 1633.01,-55.607
 L 1632.5,-55.58 z
M 187.541,-55.607 L 187.033,-55.6875 L 186.535,-55.8208 L 186.054,-56.0054 L 185.596,-56.2392 L 185.164,-56.5196
 L 184.763,-56.8437 L 184.399,-57.2079 L 184.075,-57.6081 L 183.795,-58.04 L 183.561,-58.4989 L 183.376,-58.9796
 L 183.243,-59.4771 L 183.163,-59.9857 L 183.136,-60.5 L 183.163,-61.0143 L 183.243,-61.5229 L 183.376,-62.0204
 L 183.561,-62.5011 L 183.795,-62.96 L 184.075,-63.3919 L 184.399,-63.7921 L 184.763,-64.1563 L 185.164,-64.4804
 L 185.506,-64.7024 L 185.506,-74 L 185.561,-74.5302 L 185.726,-75.0372 L 185.993,-75.4988 L 186.349,-75.895
 L 186.781,-76.2084 L 187.268,-76.4252 L 187.789,-76.536 L 188.322,-76.536 L 188.844,-76.4252 L 189.331,-76.2084
 L 189.762,-75.895 L 190.119,-75.4988 L 190.385,-75.0372 L 190.55,-74.5302 L 190.606,-74 L 190.606,-64.7024
 L 190.947,-64.4804 L 191.348,-64.1563 L 191.712,-63.7921 L 192.036,-63.3919 L 192.316,-62.96 L 192.55,-62.5011
 L 192.735,-62.0204 L 192.868,-61.5229 L 192.949,-61.0143 L 192.976,-60.5 L 192.949,-59.9857 L 192.868,-59.4771
 L 192.735,-58.9796 L 192.55,-58.4989 L 192.316,-58.04 L 192.036,-57.6081 L 191.712,-57.2079 L 191.348,-56.8437
 L 190.947,-56.5196 L 190.516,-56.2392 L 190.057,-56.0054 L 189.576,-55.8208 L 189.078,-55.6875 L 188.57,-55.607
 L 188.056,-55.58 z
M 1102.77,-20.9156 L 1101.99,-21.2202 L 1101.3,-21.6801 L 1100.71,-22.2751 L 1100.26,-22.9793 L 1099.96,-23.7619
 L 1099.83,-24.7727 L 1099.83,-58 L 1099.92,-58.8316 L 1100.18,-59.627 L 1100.6,-60.3511 L 1101.16,-60.9726
 L 1101.83,-61.4641 L 1102.6,-61.8042 L 1103.83,-62 L 1192.06,-62 L 1192.89,-61.9126 L 1193.69,-61.6542
 L 1194.41,-61.2361 L 1195.03,-60.6765 L 1195.52,-60 L 1195.86,-59.2361 L 1196.04,-58.4181 L 1196.04,-57.5819
 L 1195.86,-56.7639 L 1195.52,-56 L 1195.03,-55.3235 L 1194.41,-54.7639 L 1193.47,-54.2567 L 1105.24,-21.0293
 L 1104.43,-20.818 L 1103.6,-20.7796 z
M 922.218,-20.9156 L 921.439,-21.2202 L 920.741,-21.6801 L 920.153,-22.2751 L 919.702,-22.9793 L 919.408,-23.7619
 L 919.278,-24.7727 L 919.278,-58 L 919.365,-58.8316 L 919.624,-59.627 L 920.042,-60.3511 L 920.601,-60.9726
 L 921.278,-61.4641 L 922.042,-61.8042 L 923.278,-62 L 1011.5,-62 L 1012.34,-61.9126 L 1013.13,-61.6542
 L 1013.86,-61.2361 L 1014.48,-60.6765 L 1014.97,-60 L 1015.31,-59.2361 L 1015.48,-58.4181 L 1015.48,-57.5819
 L 1015.31,-56.7639 L 1014.97,-56 L 1014.48,-55.3235 L 1013.86,-54.7639 L 1012.91,-54.2567 L 924.688,-21.0293
 L 923.878,-20.818 L 923.043,-20.7796 z
M 819.399,-47.7872 L 818.59,-47.9985 L 801.973,-54.2567 L 801.032,-54.7639 L 800.41,-55.3235 L 799.919,-56
 L 799.579,-56.7639 L 799.405,-57.5819 L 799.405,-58.4181 L 799.579,-59.2361 L 799.919,-60 L 800.41,-60.6765
 L 801.032,-61.2361 L 801.756,-61.6542 L 802.551,-61.9126 L 803.383,-62 L 836.617,-62 L 837.677,-61.8571
 L 838.455,-61.5525 L 839.154,-61.0926 L 839.741,-60.4975 L 840.192,-59.7934 L 840.487,-59.0108 L 840.613,-58.184
 L 840.564,-57.3493 L 840.342,-56.5429 L 839.958,-55.8002 L 839.427,-55.1537 L 838.774,-54.6316 L 838.027,-54.2567
 L 821.41,-47.9985 L 820.235,-47.7487 z
M 716.121,-20.818 L 715.312,-21.0293 L 627.086,-54.2567 L 626.145,-54.7639 L 625.523,-55.3235 L 625.032,-56
 L 624.692,-56.7639 L 624.518,-57.5819 L 624.518,-58.4181 L 624.692,-59.2361 L 625.032,-60 L 625.523,-60.6765
 L 626.145,-61.2361 L 626.869,-61.6542 L 627.664,-61.9126 L 628.496,-62 L 716.722,-62 L 717.958,-61.8042
 L 718.722,-61.4641 L 719.399,-60.9726 L 719.958,-60.3511 L 720.376,-59.627 L 720.635,-58.8316 L 720.722,-58
 L 720.722,-24.7727 L 720.592,-23.7619 L 720.298,-22.9793 L 719.847,-22.2751 L 719.259,-21.6801 L 718.561,-21.2202
 L 717.782,-20.9156 L 716.957,-20.7796 z
M 535.566,-20.818 L 534.757,-21.0293 L 446.531,-54.2567 L 445.589,-54.7639 L 444.968,-55.3235 L 444.476,-56
 L 444.136,-56.7639 L 443.962,-57.5819 L 443.962,-58.4181 L 444.136,-59.2361 L 444.476,-60 L 444.968,-60.6765
 L 445.589,-61.2361 L 446.314,-61.6542 L 447.109,-61.9126 L 447.94,-62 L 536.167,-62 L 537.403,-61.8042
 L 538.167,-61.4641 L 538.843,-60.9726 L 539.403,-60.3511 L 539.821,-59.627 L 540.079,-58.8316 L 540.167,-58
 L 540.167,-24.7727 L 540.037,-23.7619 L 539.742,-22.9793 L 539.291,-22.2751 L 538.704,-21.6801 L 538.005,-21.2202
 L 537.226,-20.9156 L 536.401,-20.7796 z
M 355.01,-20.818 L 354.201,-21.0293 L 265.975,-54.2567 L 265.034,-54.7639 L 264.412,-55.3235 L 263.921,-56
 L 263.581,-56.7639 L 263.407,-57.5819 L 263.407,-58.4181 L 263.581,-59.2361 L 263.921,-60 L 264.412,-60.6765
 L 265.034,-61.2361 L 265.758,-61.6542 L 266.553,-61.9126 L 267.385,-62 L 355.611,-62 L 356.847,-61.8042
 L 357.611,-61.4641 L 358.288,-60.9726 L 358.847,-60.3511 L 359.265,-59.627 L 359.524,-58.8316 L 359.611,-58
 L 359.611,-24.7727 L 359.481,-23.7619 L 359.187,-22.9793 L 358.736,-22.2751 L 358.148,-21.6801 L 357.45,-21.2202
 L 356.671,-20.9156 L 355.846,-20.7796 z
M 1463.88,-20.9156 L 1463.11,-21.2202 L 1462.41,-21.6801 L 1461.82,-22.2751 L 1461.37,-22.9793 L 1461.07,-23.7619
 L 1460.94,-24.7727 L 1460.94,-58 L 1461.03,-58.8316 L 1461.29,-59.627 L 1461.71,-60.3511 L 1462.27,-60.9726
 L 1462.94,-61.4641 L 1463.71,-61.8042 L 1464.94,-62 L 1553.17,-62 L 1554,-61.9126 L 1554.8,-61.6542
 L 1555.52,-61.2361 L 1556.14,-60.6765 L 1556.63,-60 L 1556.97,-59.2361 L 1557.15,-58.4181 L 1557.15,-57.5819
 L 1556.97,-56.7639 L 1556.63,-56 L 1556.14,-55.3235 L 1555.52,-54.7639 L 1554.58,-54.2567 L 1466.35,-21.0293
 L 1465.55,-20.818 L 1464.71,-20.7796 z
M 174.455,-20.818 L 173.646,-21.0293 L 85.4196,-54.2567 L 84.4783,-54.7639 L 83.8568,-55.3235 L 83.3653,-56
 L 83.0252,-56.7639 L 82.8513,-57.5819 L 82.8513,-58.4181 L 83.0252,-59.2361 L 83.3653,-60 L 83.8568,-60.6765
 L 84.4783,-61.2361 L 85.2024,-61.6542 L 85.9977,-61.9126 L 86.8294,-62 L 175.056,-62 L 176.292,-61.8042
 L 177.056,-61.4641 L 177.732,-60.9726 L 178.292,-60.3511 L 178.71,-59.627 L 178.968,-58.8316 L 179.056,-58
 L 179.056,-24.7727 L 178.926,-23.7619 L 178.631,-22.9793 L 178.18,-22.2751 L 177.592,-21.6801 L 176.894,-21.2202
 L 176.115,-20.9156 L 175.29,-20.7796 z
M 1283.33,-20.9156 L 1282.55,-21.2202 L 1281.85,-21.6801 L 1281.26,-22.2751 L 1280.81,-22.9793 L 1280.52,-23.7619
 L 1280.39,-24.7727 L 1280.39,-58 L 1280.48,-58.8316 L 1280.73,-59.627 L 1281.15,-60.3511 L 1281.71,-60.9726
 L 1282.39,-61.4641 L 1283.15,-61.8042 L 1284.39,-62 L 1372.62,-62 L 1373.45,-61.9126 L 1374.24,-61.6542
 L 1374.97,-61.2361 L 1375.59,-60.6765 L 1376.08,-60 L 1376.42,-59.2361 L 1376.59,-58.4181 L 1376.59,-57.5819
 L 1376.42,-56.7639 L 1376.08,-56 L 1375.59,-55.3235 L 1374.97,-54.7639 L 1374.02,-54.2567 L 1285.8,-21.0293
 L 1284.99,-20.818 L 1284.15,-20.7796 z
M 742.304,-18.6597 L 741.486,-18.8336 L 740.722,-19.1737 L 740.046,-19.6652 L 739.486,-20.2867 L 739.068,-21.0108
 L 738.81,-21.8062 L 738.722,-22.6378 L 738.722,-57.3622 L 738.852,-58.373 L 739.147,-59.1555 L 739.598,-59.8597
 L 740.185,-60.4548 L 740.884,-60.9147 L 741.662,-61.2193 L 742.488,-61.3553 L 743.323,-61.3168 L 744.132,-61.1055
 L 790.233,-43.7433 L 790.661,-43.5525 L 791.36,-43.0926 L 791.947,-42.4975 L 792.398,-41.7934 L 792.693,-41.0108
 L 792.819,-40.184 L 792.77,-39.3493 L 792.548,-38.5429 L 792.164,-37.8002 L 791.633,-37.1537 L 790.98,-36.6316
 L 790.233,-36.2567 L 744.132,-18.8945 L 743.14,-18.6597 z
M 896.677,-18.6832 L 895.868,-18.8945 L 849.767,-36.2567 L 849.339,-36.4475 L 848.64,-36.9074 L 848.053,-37.5025
 L 847.602,-38.2066 L 847.307,-38.9892 L 847.181,-39.816 L 847.23,-40.6507 L 847.452,-41.4571 L 847.836,-42.1998
 L 848.367,-42.8463 L 849.02,-43.3684 L 849.767,-43.7433 L 895.868,-61.1055 L 896.86,-61.3403 L 897.696,-61.3403
 L 898.514,-61.1664 L 899.278,-60.8263 L 899.954,-60.3348 L 900.514,-59.7133 L 900.932,-58.9892 L 901.19,-58.1938
 L 901.278,-57.3622 L 901.278,-22.6378 L 901.148,-21.627 L 900.853,-20.8445 L 900.402,-20.1403 L 899.815,-19.5452
 L 899.116,-19.0853 L 898.337,-18.7807 L 897.512,-18.6447 z
M 201.056,-18 L 199.819,-18.1958 L 199.056,-18.5359 L 198.379,-19.0274 L 197.819,-19.6489 L 197.401,-20.373
 L 197.143,-21.1684 L 197.056,-22 L 197.056,-55.2273 L 197.185,-56.2381 L 197.48,-57.0207 L 197.931,-57.7249
 L 198.519,-58.3199 L 199.217,-58.7798 L 199.996,-59.0844 L 200.821,-59.2204 L 201.656,-59.182 L 202.465,-58.9707
 L 290.691,-25.7433 L 291.633,-25.2361 L 292.254,-24.6765 L 292.746,-24 L 293.086,-23.2361 L 293.26,-22.4181
 L 293.26,-21.5819 L 293.086,-20.7639 L 292.746,-20 L 292.254,-19.3235 L 291.633,-18.7639 L 290.909,-18.3458
 L 290.113,-18.0874 L 289.282,-18 z
M 381.611,-18 L 380.375,-18.1958 L 379.611,-18.5359 L 378.935,-19.0274 L 378.375,-19.6489 L 377.957,-20.373
 L 377.699,-21.1684 L 377.611,-22 L 377.611,-55.2273 L 377.741,-56.2381 L 378.036,-57.0207 L 378.487,-57.7249
 L 379.074,-58.3199 L 379.773,-58.7798 L 380.551,-59.0844 L 381.376,-59.2204 L 382.212,-59.182 L 383.021,-58.9707
 L 471.247,-25.7433 L 472.188,-25.2361 L 472.81,-24.6765 L 473.301,-24 L 473.641,-23.2361 L 473.815,-22.4181
 L 473.815,-21.5819 L 473.641,-20.7639 L 473.301,-20 L 472.81,-19.3235 L 472.188,-18.7639 L 471.464,-18.3458
 L 470.669,-18.0874 L 469.837,-18 z
M 562.167,-18 L 560.931,-18.1958 L 560.167,-18.5359 L 559.49,-19.0274 L 558.931,-19.6489 L 558.512,-20.373
 L 558.254,-21.1684 L 558.167,-22 L 558.167,-55.2273 L 558.296,-56.2381 L 558.591,-57.0207 L 559.042,-57.7249
 L 559.63,-58.3199 L 560.328,-58.7798 L 561.107,-59.0844 L 561.932,-59.2204 L 562.767,-59.182 L 563.576,-58.9707
 L 651.803,-25.7433 L 652.744,-25.2361 L 653.365,-24.6765 L 653.857,-24 L 654.197,-23.2361 L 654.371,-22.4181
 L 654.371,-21.5819 L 654.197,-20.7639 L 653.857,-20 L 653.365,-19.3235 L 652.744,-18.7639 L 652.02,-18.3458
 L 651.224,-18.0874 L 650.393,-18 z
M 989.607,-18 L 988.776,-18.0874 L 987.98,-18.3458 L 987.256,-18.7639 L 986.635,-19.3235 L 986.143,-20
 L 985.803,-20.7639 L 985.629,-21.5819 L 985.629,-22.4181 L 985.803,-23.2361 L 986.143,-24 L 986.635,-24.6765
 L 987.256,-25.2361 L 988.197,-25.7433 L 1076.42,-58.9707 L 1077.23,-59.182 L 1078.07,-59.2204 L 1078.89,-59.0844
 L 1079.67,-58.7798 L 1080.37,-58.3199 L 1080.96,-57.7249 L 1081.41,-57.0207 L 1081.7,-56.2381 L 1081.83,-55.2273
 L 1081.83,-22 L 1081.75,-21.1684 L 1081.49,-20.373 L 1081.07,-19.6489 L 1080.51,-19.0274 L 1079.83,-18.5359
 L 1079.07,-18.1958 L 1077.83,-18 z
M 1170.16,-18 L 1169.33,-18.0874 L 1168.54,-18.3458 L 1167.81,-18.7639 L 1167.19,-19.3235 L 1166.7,-20
 L 1166.36,-20.7639 L 1166.18,-21.5819 L 1166.18,-22.4181 L 1166.36,-23.2361 L 1166.7,-24 L 1167.19,-24.6765
 L 1167.81,-25.2361 L 1168.75,-25.7433 L 1256.98,-58.9707 L 1257.79,-59.182 L 1258.62,-59.2204 L 1259.45,-59.0844
 L 1260.23,-58.7798 L 1260.93,-58.3199 L 1261.51,-57.7249 L 1261.96,-57.0207 L 1262.26,-56.2381 L 1262.39,-55.2273
 L 1262.39,-22 L 1262.3,-21.1684 L 1262.04,-20.373 L 1261.62,-19.6489 L 1261.07,-19.0274 L 1260.39,-18.5359
 L 1259.62,-18.1958 L 1258.39,-18 z
M 1350.72,-18 L 1349.89,-18.0874 L 1349.09,-18.3458 L 1348.37,-18.7639 L 1347.75,-19.3235 L 1347.25,-20
 L 1346.91,-20.7639 L 1346.74,-21.5819 L 1346.74,-22.4181 L 1346.91,-23.2361 L 1347.25,-24 L 1347.75,-24.6765
 L 1348.37,-25.2361 L 1349.31,-25.7433 L 1437.53,-58.9707 L 1438.34,-59.182 L 1439.18,-59.2204 L 1440,-59.0844
 L 1440.78,-58.7798 L 1441.48,-58.3199 L 1442.07,-57.7249 L 1442.52,-57.0207 L 1442.81,-56.2381 L 1442.94,-55.2273
 L 1442.94,-22 L 1442.86,-21.1684 L 1442.6,-20.373 L 1442.18,-19.6489 L 1441.62,-19.0274 L 1440.94,-18.5359
 L 1440.18,-18.1958 L 1438.94,-18 z
M 22,-18 L 20.7639,-18.1958 L 20,-18.5359 L 19.3235,-19.0274 L 18.7639,-19.6489 L 18.3458,-20.373
 L 18.0874,-21.1684 L 18,-22 L 18,-54.6624 L 18.1298,-55.6732 L 18.4245,-56.4557 L 18.8755,-57.1599
 L 19.4631,-57.755 L 20.1615,-58.2149 L 20.9403,-58.5195 L 21.7654,-58.6555 L 22.6007,-58.617 L 23.4098,-58.4057
 L 110.136,-25.7433 L 111.077,-25.2361 L 111.699,-24.6765 L 112.19,-24 L 112.53,-23.2361 L 112.704,-22.4181
 L 112.704,-21.5819 L 112.53,-20.7639 L 112.19,-20 L 111.699,-19.3235 L 111.077,-18.7639 L 110.353,-18.3458
 L 109.558,-18.0874 L 108.726,-18 z
M 1531.27,-18 L 1530.44,-18.0874 L 1529.65,-18.3458 L 1528.92,-18.7639 L 1528.3,-19.3235 L 1527.81,-20
 L 1527.47,-20.7639 L 1527.3,-21.5819 L 1527.3,-22.4181 L 1527.47,-23.2361 L 1527.81,-24 L 1528.3,-24.6765
 L 1528.92,-25.2361 L 1529.86,-25.7433 L 1616.59,-58.4057 L 1617.4,-58.617 L 1618.23,-58.6555 L 1619.06,-58.5195
 L 1619.84,-58.2149 L 1620.54,-57.755 L 1621.12,-57.1599 L 1621.58,-56.4557 L 1621.87,-55.6732 L 1622,-54.6624
 L 1622,-22 L 1621.91,-21.1684 L 1621.65,-20.373 L 1621.24,-19.6489 L 1620.68,-19.0274 L 1620,-18.5359
 L 1619.24,-18.1958 L 1618,-18 z
M 803.383,-18 L 802.323,-18.1429 L 801.545,-18.4475 L 800.846,-18.9074 L 800.259,-19.5025 L 799.808,-20.2066
 L 799.513,-20.9892 L 799.387,-21.816 L 799.436,-22.6507 L 799.658,-23.4571 L 800.042,-24.1998 L 800.573,-24.8463
 L 801.226,-25.3684 L 801.973,-25.7433 L 818.59,-32.0015 L 819.765,-32.2513 L 820.601,-32.2128 L 821.41,-32.0015
 L 838.027,-25.7433 L 838.968,-25.2361 L 839.59,-24.6765 L 840.081,-24 L 840.421,-23.2361 L 840.595,-22.4181
 L 840.595,-21.5819 L 840.421,-20.7639 L 840.081,-20 L 839.59,-19.3235 L 838.968,-18.7639 L 838.244,-18.3458
 L 837.449,-18.0874 L 836.617,-18 z
" stroke="black" fill="lightgray" stroke-width="0.5"/>
</svg>
