<?xml version="1.0" standalone="no"?>
<!DOCTYPE svg PUBLIC "-//W3C//DTD SVG 1.1//EN" "http://www.w3.org/Graphics/SVG/1.1/DTD/svg11.dtd">
<svg width="1055mm" height="80mm" viewBox="0 -80 1055 80" xmlns="http://www.w3.org/2000/svg" version="1.1">
<title>OpenSCAD Model</title>
<path d="
M 1055,-80 L 0,-80 L 0,-0 L 4.95,-0 L 4.95,-6 L 5.00572,-6.53017
 L 5.17046,-7.03717 L 5.437,-7.49884 L 5.79372,-7.895 L 6.22499,-8.20836 L 6.71201,-8.42519 L 7.23344,-8.53603
 L 7.76654,-8.53603 L 8.28798,-8.42519 L 8.77499,-8.20836 L 9.20627,-7.895 L 9.56299,-7.49884 L 9.82953,-7.03717
 L 9.99426,-6.53017 L 10.05,-6 L 10.05,-0 L 178.283,-0 L 178.283,-6 L 178.339,-6.53017
 L 178.504,-7.03717 L 178.77,-7.49884 L 179.127,-7.895 L 179.558,-8.20836 L 180.045,-8.42519 L 180.567,-8.53603
 L 181.1,-8.53603 L 181.621,-8.42519 L 182.108,-8.20836 L 182.54,-7.895 L 182.896,-7.49884 L 183.163,-7.03717
 L 183.328,-6.53017 L 183.383,-6 L 183.383,-0 L 351.617,-0 L 351.617,-6 L 351.672,-6.53017
 L 351.837,-7.03717 L 352.104,-7.49884 L 352.46,-7.895 L 352.892,-8.20836 L 353.379,-8.42519 L 353.9,-8.53603
 L 354.433,-8.53603 L 354.955,-8.42519 L 355.442,-8.20836 L 355.873,-7.895 L 356.23,-7.49884 L 356.496,-7.03717
 L 356.661,-6.53017 L 356.717,-6 L 356.717,-0 L 524.95,-0 L 524.95,-6 L 525.006,-6.53017
 L 525.17,-7.03717 L 525.437,-7.49884 L 525.794,-7.895 L 526.225,-8.20836 L 526.712,-8.42519 L 527.233,-8.53603
 L 527.767,-8.53603 L 528.288,-8.42519 L 528.775,-8.20836 L 529.206,-7.895 L 529.563,-7.49884 L 529.83,-7.03717
 L 529.994,-6.53017 L 530.05,-6 L 530.05,-0 L 698.283,-0 L 698.283,-6 L 698.339,-6.53017
 L 698.504,-7.03717 L 698.77,-7.49884 L 699.127,-7.895 L 699.558,-8.20836 L 700.045,-8.42519 L 700.567,-8.53603
 L 701.1,-8.53603 L 701.621,-8.42519 L 702.108,-8.20836 L 702.54,-7.895 L 702.896,-7.49884 L 703.163,-7.03717
 L 703.328,-6.53017 L 703.383,-6 L 703.383,-0 L 871.617,-0 L 871.617,-6 L 871.672,-6.53017
 L 871.837,-7.03717 L 872.104,-7.49884 L 872.46,-7.895 L 872.892,-8.20836 L 873.379,-8.42519 L 873.9,-8.53603
 L 874.433,-8.53603 L 874.955,-8.42519 L 875.442,-8.20836 L 875.873,-7.895 L 876.23,-7.49884 L 876.496,-7.03717
 L 876.661,-6.53017 L 876.717,-6 L 876.717,-0 L 1044.95,-0 L 1044.95,-6 L 1045.01,-6.53017
 L 1045.17,-7.03717 L 1045.44,-7.49884 L 1045.79,-7.895 L 1046.22,-8.20836 L 1046.71,-8.42519 L 1047.23,-8.53603
 L 1047.77,-8.53603 L 1048.29,-8.42519 L 1048.77,-8.20836 L 1049.21,-7.895 L 1049.56,-7.49884 L 1049.83,-7.03717
 L 1049.99,-6.53017 L 1050.05,-6 L 1050.05,-0 L 1055,-0 z
M 6.98573,-55.607 L 6.47708,-55.6875 L 5.97964,-55.8208 L 5.49887,-56.0054 L 5.04001,-56.2392 L 4.60811,-56.5196
 L 4.20789,-56.8437 L 3.84373,-57.2079 L 3.51964,-57.6081 L 3.23917,-58.04 L 3.00537,-58.4989 L 2.82082,-58.9796
 L 2.68752,-59.4771 L 2.60696,-59.9857 L 2.58,-60.5 L 2.60696,-61.0143 L 2.68752,-61.5229 L 2.82082,-62.0204
 L 3.00537,-62.5011 L 3.23917,-62.96 L 3.51964,-63.3919 L 3.84373,-63.7921 L 4.20789,-64.1563 L 4.60811,-64.4804
 L 4.95001,-64.7024 L 4.95001,-74 L 5.00574,-74.5302 L 5.17047,-75.0372 L 5.43701,-75.4988 L 5.79373,-75.895
 L 6.22501,-76.2084 L 6.71202,-76.4252 L 7.23346,-76.536 L 7.76654,-76.536 L 8.28798,-76.4252 L 8.77499,-76.2084
 L 9.20627,-75.895 L 9.56299,-75.4988 L 9.82953,-75.0372 L 9.99426,-74.5302 L 10.05,-74 L 10.05,-64.7024
 L 10.3919,-64.4804 L 10.7921,-64.1563 L 11.1563,-63.7921 L 11.4804,-63.3919 L 11.7608,-62.96 L 11.9946,-62.5011
 L 12.1792,-62.0204 L 12.3125,-61.5229 L 12.393,-61.0143 L 12.42,-60.5 L 12.393,-59.9857 L 12.3125,-59.4771
 L 12.1792,-58.9796 L 11.9946,-58.4989 L 11.7608,-58.04 L 11.4804,-57.6081 L 11.1563,-57.2079 L 10.7921,-56.8437
 L 10.3919,-56.5196 L 9.95999,-56.2392 L 9.50113,-56.0054 L 9.02036,-55.8208 L 8.52292,-55.6875 L 8.01427,-55.607
 L 7.5,-55.58 z
M 180.319,-55.607 L 179.81,-55.6875 L 179.313,-55.8208 L 178.832,-56.0054 L 178.373,-56.2392 L 177.941,-56.5196
 L 177.541,-56.8437 L 177.177,-57.2079 L 176.853,-57.6081 L 176.572,-58.04 L 176.339,-58.4989 L 176.154,-58.9796
 L 176.021,-59.4771 L 175.94,-59.9857 L 175.913,-60.5 L 175.94,-61.0143 L 176.021,-61.5229 L 176.154,-62.0204
 L 176.339,-62.5011 L 176.572,-62.96 L 176.853,-63.3919 L 177.177,-63.7921 L 177.541,-64.1563 L 177.941,-64.4804
 L 178.283,-64.7024 L 178.283,-74 L 178.339,-74.5302 L 178.504,-75.0372 L 178.77,-75.4988 L 179.127,-75.895
 L 179.558,-76.2084 L 180.045,-76.4252 L 180.567,-76.536 L 181.1,-76.536 L 181.621,-76.4252 L 182.108,-76.2084
 L 182.54,-75.895 L 182.896,-75.4988 L 183.163,-75.0372 L 183.328,-74.5302 L 183.383,-74 L 183.383,-64.7024
 L 183.725,-64.4804 L 184.125,-64.1563 L 184.49,-63.7921 L 184.814,-63.3919 L 185.094,-62.96 L 185.328,-62.5011
 L 185.513,-62.0204 L 185.646,-61.5229 L 185.726,-61.0143 L 185.753,-60.5 L 185.726,-59.9857 L 185.646,-59.4771
 L 185.513,-58.9796 L 185.328,-58.4989 L 185.094,-58.04 L 184.814,-57.6081 L 184.49,-57.2079 L 184.125,-56.8437
 L 183.725,-56.5196 L 183.293,-56.2392 L 182.834,-56.0054 L 182.354,-55.8208 L 181.856,-55.6875 L 181.348,-55.607
 L 180.833,-55.58 z
M 353.652,-55.607 L 353.144,-55.6875 L 352.646,-55.8208 L 352.166,-56.0054 L 351.707,-56.2392 L 351.275,-56.5196
 L 350.875,-56.8437 L 350.51,-57.2079 L 350.186,-57.6081 L 349.906,-58.04 L 349.672,-58.4989 L 349.487,-58.9796
 L 349.354,-59.4771 L 349.274,-59.9857 L 349.247,-60.5 L 349.274,-61.0143 L 349.354,-61.5229 L 349.487,-62.0204
 L 349.672,-62.5011 L 349.906,-62.96 L 350.186,-63.3919 L 350.51,-63.7921 L 350.875,-64.1563 L 351.275,-64.4804
 L 351.617,-64.7024 L 351.617,-74 L 351.672,-74.5302 L 351.837,-75.0372 L 352.104,-75.4988 L 352.46,-75.895
 L 352.892,-76.2084 L 353.379,-76.4252 L 353.9,-76.536 L 354.433,-76.536 L 354.955,-76.4252 L 355.442,-76.2084
 L 355.873,-75.895 L 356.23,-75.4988 L 356.496,-75.0372 L 356.661,-74.5302 L 356.717,-74 L 356.717,-64.7024
 L 357.059,-64.4804 L 357.459,-64.1563 L 357.823,-63.7921 L 358.147,-63.3919 L 358.427,-62.96 L 358.661,-62.5011
 L 358.846,-62.0204 L 358.979,-61.5229 L 359.06,-61.0143 L 359.087,-60.5 L 359.06,-59.9857 L 358.979,-59.4771
 L 358.846,-58.9796 L 358.661,-58.4989 L 358.427,-58.04 L 358.147,-57.6081 L 357.823,-57.2079 L 357.459,-56.8437
 L 357.059,-56.5196 L 356.627,-56.2392 L 356.168,-56.0054 L 355.687,-55.8208 L 355.19,-55.6875 L 354.681,-55.607
 L 354.167,-55.58 z
M 526.986,-55.607 L 526.477,-55.6875 L 525.98,-55.8208 L 525.499,-56.0054 L 525.04,-56.2392 L 524.608,-56.5196
 L 524.208,-56.8437 L 523.844,-57.2079 L 523.52,-57.6081 L 523.239,-58.04 L 523.005,-58.4989 L 522.821,-58.9796
 L 522.688,-59.4771 L 522.607,-59.9857 L 522.58,-60.5 L 522.607,-61.0143 L 522.688,-61.5229 L 522.821,-62.0204
 L 523.005,-62.5011 L 523.239,-62.96 L 523.52,-63.3919 L 523.844,-63.7921 L 524.208,-64.1563 L 524.608,-64.4804
 L 524.95,-64.7024 L 524.95,-74 L 525.006,-74.5302 L 525.17,-75.0372 L 525.437,-75.4988 L 525.794,-75.895
 L 526.225,-76.2084 L 526.712,-76.4252 L 527.233,-76.536 L 527.767,-76.536 L 528.288,-76.4252 L 528.775,-76.2084
 L 529.206,-75.895 L 529.563,-75.4988 L 529.83,-75.0372 L 529.994,-74.5302 L 530.05,-74 L 530.05,-64.7024
 L 530.392,-64.4804 L 530.792,-64.1563 L 531.156,-63.7921 L 531.48,-63.3919 L 531.761,-62.96 L 531.995,-62.5011
 L 532.179,-62.0204 L 532.312,-61.5229 L 532.393,-61.0143 L 532.42,-60.5 L 532.393,-59.9857 L 532.312,-59.4771
 L 532.179,-58.9796 L 531.995,-58.4989 L 531.761,-58.04 L 531.48,-57.6081 L 531.156,-57.2079 L 530.792,-56.8437
 L 530.392,-56.5196 L 529.96,-56.2392 L 529.501,-56.0054 L 529.02,-55.8208 L 528.523,-55.6875 L 528.014,-55.607
 L 527.5,-55.58 z
M 700.319,-55.607 L 699.81,-55.6875 L 699.313,-55.8208 L 698.832,-56.0054 L 698.373,-56.2392 L 697.941,-56.5196
 L 697.541,-56.8437 L 697.177,-57.2079 L 696.853,-57.6081 L 696.572,-58.04 L 696.339,-58.4989 L 696.154,-58.9796
 L 696.021,-59.4771 L 695.94,-59.9857 L 695.913,-60.5 L 695.94,-61.0143 L 696.021,-61.5229 L 696.154,-62.0204
 L 696.339,-62.5011 L 696.572,-62.96 L 696.853,-63.3919 L 697.177,-63.7921 L 697.541,-64.1563 L 697.941,-64.4804
 L 698.283,-64.7024 L 698.283,-74 L 698.339,-74.5302 L 698.504,-75.0372 L 698.77,-75.4988 L 699.127,-75.895
 L 699.558,-76.2084 L 700.045,-76.4252 L 700.567,-76.536 L 701.1,-76.536 L 701.621,-76.4252 L 702.108,-76.2084
 L 702.54,-75.895 L 702.896,-75.4988 L 703.163,-75.0372 L 703.328,-74.5302 L 703.383,-74 L 703.383,-64.7024
 L 703.725,-64.4804 L 704.125,-64.1563 L 704.49,-63.7921 L 704.814,-63.3919 L 705.094,-62.96 L 705.328,-62.5011
 L 705.513,-62.0204 L 705.646,-61.5229 L 705.726,-61.0143 L 705.753,-60.5 L 705.726,-59.9857 L 705.646,-59.4771
 L 705.513,-58.9796 L 705.328,-58.4989 L 705.094,-58.04 L 704.814,-57.6081 L 704.49,-57.2079 L 704.125,-56.8437
 L 703.725,-56.5196 L 703.293,-56.2392 L 702.834,-56.0054 L 702.354,-55.8208 L 701.856,-55.6875 L 701.348,-55.607
 L 700.833,-55.58 z
M 873.652,-55.607 L 873.144,-55.6875 L 872.646,-55.8208 L 872.166,-56.0054 L 871.707,-56.2392 L 871.275,-56.5196
 L 870.875,-56.8437 L 870.51,-57.2079 L 870.186,-57.6081 L 869.906,-58.04 L 869.672,-58.4989 L 869.487,-58.9796
 L 869.354,-59.4771 L 869.274,-59.9857 L 869.247,-60.5 L 869.274,-61.0143 L 869.354,-61.5229 L 869.487,-62.0204
 L 869.672,-62.5011 L 869.906,-62.96 L 870.186,-63.3919 L 870.51,-63.7921 L 870.875,-64.1563 L 871.275,-64.4804
 L 871.617,-64.7024 L 871.617,-74 L 871.672,-74.5302 L 871.837,-75.0372 L 872.104,-75.4988 L 872.46,-75.895
 L 872.892,-76.2084 L 873.379,-76.4252 L 873.9,-76.536 L 874.433,-76.536 L 874.955,-76.4252 L 875.442,-76.2084
 L 875.873,-75.895 L 876.23,-75.4988 L 876.496,-75.0372 L 876.661,-74.5302 L 876.717,-74 L 876.717,-64.7024
 L 877.059,-64.4804 L 877.459,-64.1563 L 877.823,-63.7921 L 878.147,-63.3919 L 878.427,-62.96 L 878.661,-62.5011
 L 878.846,-62.0204 L 878.979,-61.5229 L 879.06,-61.0143 L 879.087,-60.5 L 879.06,-59.9857 L 878.979,-59.4771
 L 878.846,-58.9796 L 878.661,-58.4989 L 878.427,-58.04 L 878.147,-57.6081 L 877.823,-57.2079 L 877.459,-56.8437
 L 877.059,-56.5196 L 876.627,-56.2392 L 876.168,-56.0054 L 875.687,-55.8208 L 875.19,-55.6875 L 874.681,-55.607
 L 874.167,-55.58 z
M 1046.99,-55.607 L 1046.48,-55.6875 L 1045.98,-55.8208 L 1045.5,-56.0054 L 1045.04,-56.2392 L 1044.61,-56.5196
 L 1044.21,-56.8437 L 1043.84,-57.2079 L 1043.52,-57.6081 L 1043.24,-58.04 L 1043.01,-58.4989 L 1042.82,-58.9796
 L 1042.69,-59.4771 L 1042.61,-59.9857 L 1042.58,-60.5 L 1042.61,-61.0143 L 1042.69,-61.5229 L 1042.82,-62.0204
 L 1043.01,-62.5011 L 1043.24,-62.96 L 1043.52,-63.3919 L 1043.84,-63.7921 L 1044.21,-64.1563 L 1044.61,-64.4804
 L 1044.95,-64.7024 L 1044.95,-74 L 1045.01,-74.5302 L 1045.17,-75.0372 L 1045.44,-75.4988 L 1045.79,-75.895
 L 1046.23,-76.2084 L 1046.71,-76.4252 L 1047.23,-76.536 L 1047.77,-76.536 L 1048.29,-76.4252 L 1048.77,-76.2084
 L 1049.21,-75.895 L 1049.56,-75.4988 L 1049.83,-75.0372 L 1049.99,-74.5302 L 1050.05,-74 L 1050.05,-64.7024
 L 1050.39,-64.4804 L 1050.79,-64.1563 L 1051.16,-63.7921 L 1051.48,-63.3919 L 1051.76,-62.96 L 1051.99,-62.5011
 L 1052.18,-62.0204 L 1052.31,-61.5229 L 1052.39,-61.0143 L 1052.42,-60.5 L 1052.39,-59.9857 L 1052.31,-59.4771
 L 1052.18,-58.9796 L 1051.99,-58.4989 L 1051.76,-58.04 L 1051.48,-57.6081 L 1051.16,-57.2079 L 1050.79,-56.8437
 L 1050.39,-56.5196 L 1049.96,-56.2392 L 1049.5,-56.0054 L 1049.02,-55.8208 L 1048.52,-55.6875 L 1048.01,-55.607
 L 1047.5,-55.58 z
M 886.16,-21.1792 L 885.377,-21.4732 L 884.672,-21.9235 L 884.077,-22.5104 L 883.616,-23.2084 L 883.311,-23.9868
 L 883.167,-25.0504 L 883.167,-58 L 883.254,-58.8316 L 883.512,-59.627 L 883.931,-60.3511 L 884.49,-60.9726
 L 885.167,-61.4641 L 885.931,-61.8042 L 887.167,-62 L 971.156,-62 L 971.987,-61.9126 L 972.783,-61.6542
 L 973.507,-61.2361 L 974.128,-60.6765 L 974.62,-60 L 974.96,-59.2361 L 975.134,-58.4181 L 975.134,-57.5819
 L 974.96,-56.7639 L 974.62,-56 L 974.128,-55.3235 L 973.507,-54.7639 L 972.617,-54.2763 L 888.628,-21.3267
 L 887.821,-21.1044 L 886.987,-21.0545 z
M 340.512,-21.1044 L 339.706,-21.3267 L 255.717,-54.2763 L 254.826,-54.7639 L 254.205,-55.3235 L 253.713,-56
 L 253.373,-56.7639 L 253.199,-57.5819 L 253.199,-58.4181 L 253.373,-59.2361 L 253.713,-60 L 254.205,-60.6765
 L 254.826,-61.2361 L 255.551,-61.6542 L 256.346,-61.9126 L 257.178,-62 L 341.167,-62 L 342.403,-61.8042
 L 343.167,-61.4641 L 343.843,-60.9726 L 344.403,-60.3511 L 344.821,-59.627 L 345.079,-58.8316 L 345.167,-58
 L 345.167,-25.0504 L 345.023,-23.9868 L 344.717,-23.2084 L 344.257,-22.5104 L 343.661,-21.9235 L 342.956,-21.4732
 L 342.174,-21.1792 L 341.347,-21.0545 z
M 167.179,-21.1044 L 166.372,-21.3267 L 82.3834,-54.2763 L 81.4931,-54.7639 L 80.8717,-55.3235 L 80.3802,-56
 L 80.04,-56.7639 L 79.8662,-57.5819 L 79.8662,-58.4181 L 80.04,-59.2361 L 80.3802,-60 L 80.8717,-60.6765
 L 81.4931,-61.2361 L 82.2173,-61.6542 L 83.0126,-61.9126 L 83.8443,-62 L 167.833,-62 L 169.069,-61.8042
 L 169.833,-61.4641 L 170.51,-60.9726 L 171.069,-60.3511 L 171.488,-59.627 L 171.746,-58.8316 L 171.833,-58
 L 171.833,-25.0504 L 171.689,-23.9868 L 171.384,-23.2084 L 170.923,-22.5104 L 170.328,-21.9235 L 169.623,-21.4732
 L 168.84,-21.1792 L 168.013,-21.0545 z
M 513.845,-21.1044 L 513.039,-21.3267 L 429.05,-54.2763 L 428.16,-54.7639 L 427.538,-55.3235 L 427.047,-56
 L 426.707,-56.7639 L 426.533,-57.5819 L 426.533,-58.4181 L 426.707,-59.2361 L 427.047,-60 L 427.538,-60.6765
 L 428.16,-61.2361 L 428.884,-61.6542 L 429.679,-61.9126 L 430.511,-62 L 514.5,-62 L 515.736,-61.8042
 L 516.5,-61.4641 L 517.177,-60.9726 L 517.736,-60.3511 L 518.154,-59.627 L 518.413,-58.8316 L 518.5,-58
 L 518.5,-25.0504 L 518.356,-23.9868 L 518.051,-23.2084 L 517.59,-22.5104 L 516.994,-21.9235 L 516.29,-21.4732
 L 515.507,-21.1792 L 514.68,-21.0545 z
M 539.493,-21.1792 L 538.71,-21.4732 L 538.006,-21.9235 L 537.41,-22.5104 L 536.949,-23.2084 L 536.644,-23.9868
 L 536.5,-25.0504 L 536.5,-58 L 536.587,-58.8316 L 536.846,-59.627 L 537.264,-60.3511 L 537.823,-60.9726
 L 538.5,-61.4641 L 539.264,-61.8042 L 540.5,-62 L 624.489,-62 L 625.321,-61.9126 L 626.116,-61.6542
 L 626.84,-61.2361 L 627.462,-60.6765 L 627.953,-60 L 628.293,-59.2361 L 628.467,-58.4181 L 628.467,-57.5819
 L 628.293,-56.7639 L 627.953,-56 L 627.462,-55.3235 L 626.84,-54.7639 L 625.95,-54.2763 L 541.961,-21.3267
 L 541.155,-21.1044 L 540.32,-21.0545 z
M 712.826,-21.1792 L 712.044,-21.4732 L 711.339,-21.9235 L 710.743,-22.5104 L 710.283,-23.2084 L 709.977,-23.9868
 L 709.833,-25.0504 L 709.833,-58 L 709.921,-58.8316 L 710.179,-59.627 L 710.597,-60.3511 L 711.157,-60.9726
 L 711.833,-61.4641 L 712.597,-61.8042 L 713.833,-62 L 797.822,-62 L 798.654,-61.9126 L 799.449,-61.6542
 L 800.174,-61.2361 L 800.795,-60.6765 L 801.286,-60 L 801.627,-59.2361 L 801.8,-58.4181 L 801.8,-57.5819
 L 801.627,-56.7639 L 801.286,-56 L 800.795,-55.3235 L 800.174,-54.7639 L 799.283,-54.2763 L 715.294,-21.3267
 L 714.488,-21.1044 L 713.653,-21.0545 z
M 193.833,-18 L 192.597,-18.1958 L 191.833,-18.5359 L 191.157,-19.0274 L 190.597,-19.6489 L 190.179,-20.373
 L 189.921,-21.1684 L 189.833,-22 L 189.833,-54.9496 L 189.977,-56.0132 L 190.283,-56.7916 L 190.743,-57.4896
 L 191.339,-58.0765 L 192.044,-58.5268 L 192.826,-58.8208 L 193.653,-58.9455 L 194.488,-58.8956 L 195.294,-58.6733
 L 279.283,-25.7237 L 280.174,-25.2361 L 280.795,-24.6765 L 281.286,-24 L 281.627,-23.2361 L 281.8,-22.4181
 L 281.8,-21.5819 L 281.627,-20.7639 L 281.286,-20 L 280.795,-19.3235 L 280.174,-18.7639 L 279.449,-18.3458
 L 278.654,-18.0874 L 277.822,-18 z
M 367.167,-18 L 365.931,-18.1958 L 365.167,-18.5359 L 364.49,-19.0274 L 363.931,-19.6489 L 363.512,-20.373
 L 363.254,-21.1684 L 363.167,-22 L 363.167,-54.9496 L 363.311,-56.0132 L 363.616,-56.7916 L 364.077,-57.4896
 L 364.672,-58.0765 L 365.377,-58.5268 L 366.16,-58.8208 L 366.987,-58.9455 L 367.821,-58.8956 L 368.627,-58.6733
 L 452.617,-25.7237 L 453.507,-25.2361 L 454.128,-24.6765 L 454.62,-24 L 454.96,-23.2361 L 455.134,-22.4181
 L 455.134,-21.5819 L 454.96,-20.7639 L 454.62,-20 L 454.128,-19.3235 L 453.507,-18.7639 L 452.783,-18.3458
 L 451.987,-18.0874 L 451.156,-18 z
M 603.844,-18 L 603.013,-18.0874 L 602.217,-18.3458 L 601.493,-18.7639 L 600.872,-19.3235 L 600.38,-20
 L 600.04,-20.7639 L 599.866,-21.5819 L 599.866,-22.4181 L 600.04,-23.2361 L 600.38,-24 L 600.872,-24.6765
 L 601.493,-25.2361 L 602.383,-25.7237 L 686.372,-58.6733 L 687.179,-58.8956 L 688.013,-58.9455 L 688.84,-58.8208
 L 689.623,-58.5268 L 690.328,-58.0765 L 690.923,-57.4896 L 691.384,-56.7916 L 691.689,-56.0132 L 691.833,-54.9496
 L 691.833,-22 L 691.746,-21.1684 L 691.488,-20.373 L 691.069,-19.6489 L 690.51,-19.0274 L 689.833,-18.5359
 L 689.069,-18.1958 L 687.833,-18 z
M 777.178,-18 L 776.346,-18.0874 L 775.551,-18.3458 L 774.826,-18.7639 L 774.205,-19.3235 L 773.714,-20
 L 773.373,-20.7639 L 773.2,-21.5819 L 773.2,-22.4181 L 773.373,-23.2361 L 773.714,-24 L 774.205,-24.6765
 L 774.826,-25.2361 L 775.717,-25.7237 L 859.706,-58.6733 L 860.512,-58.8956 L 861.347,-58.9455 L 862.174,-58.8208
 L 862.956,-58.5268 L 863.661,-58.0765 L 864.257,-57.4896 L 864.717,-56.7916 L 865.023,-56.0132 L 865.167,-54.9496
 L 865.167,-22 L 865.079,-21.1684 L 864.821,-20.373 L 864.403,-19.6489 L 863.843,-19.0274 L 863.167,-18.5359
 L 862.403,-18.1958 L 861.167,-18 z
M 950.511,-18 L 949.679,-18.0874 L 948.884,-18.3458 L 948.16,-18.7639 L 947.538,-19.3235 L 947.047,-20
 L 946.707,-20.7639 L 946.533,-21.5819 L 946.533,-22.4181 L 946.707,-23.2361 L 947.047,-24 L 947.538,-24.6765
 L 948.16,-25.2361 L 949.05,-25.7237 L 1031.54,-58.0848 L 1032.35,-58.3071 L 1033.18,-58.357 L 1034.01,-58.2323
 L 1034.79,-57.9383 L 1035.49,-57.4881 L 1036.09,-56.9011 L 1036.55,-56.2032 L 1036.86,-55.4247 L 1037,-54.3611
 L 1037,-22 L 1036.91,-21.1684 L 1036.65,-20.373 L 1036.24,-19.6489 L 1035.68,-19.0274 L 1035,-18.5359
 L 1034.24,-18.1958 L 1033,-18 z
M 22,-18 L 20.7639,-18.1958 L 20,-18.5359 L 19.3235,-19.0274 L 18.7639,-19.6489 L 18.3458,-20.373
 L 18.0874,-21.1684 L 18,-22 L 18,-54.3611 L 18.144,-55.4247 L 18.4494,-56.2032 L 18.91,-56.9011
 L 19.5056,-57.4881 L 20.2102,-57.9383 L 20.9931,-58.2323 L 21.82,-58.357 L 22.6547,-58.3071 L 23.4608,-58.0848
 L 105.95,-25.7237 L 106.84,-25.2361 L 107.462,-24.6765 L 107.953,-24 L 108.293,-23.2361 L 108.467,-22.4181
 L 108.467,-21.5819 L 108.293,-20.7639 L 107.953,-20 L 107.462,-19.3235 L 106.84,-18.7639 L 106.116,-18.3458
 L 105.321,-18.0874 L 104.489,-18 z
" stroke="black" fill="lightgray" stroke-width="0.5"/>
</svg>
