<?xml version="1.0" standalone="no"?>
<!DOCTYPE svg PUBLIC "-//W3C//DTD SVG 1.1//EN" "http://www.w3.org/Graphics/SVG/1.1/DTD/svg11.dtd">
<svg width="1395mm" height="80mm" viewBox="0 -80 1395 80" xmlns="http://www.w3.org/2000/svg" version="1.1">
<title>OpenSCAD Model</title>
<path d="
M 1395,-80 L 0,-80 L 0,-0 L 4.95,-0 L 4.95,-6 L 5.00572,-6.53017
 L 5.17046,-7.03717 L 5.437,-7.49884 L 5.79372,-7.895 L 6.22499,-8.20836 L 6.71201,-8.42519 L 7.23344,-8.53603
 L 7.76654,-8.53603 L 8.28798,-8.42519 L 8.77499,-8.20836 L 9.20627,-7.895 L 9.56299,-7.49884 L 9.82953,-7.03717
 L 9.99426,-6.53017 L 10.05,-6 L 10.05,-0 L 202.093,-0 L 202.093,-6 L 202.149,-6.53017
 L 202.313,-7.03717 L 202.58,-7.49884 L 202.937,-7.895 L 203.368,-8.20836 L 203.855,-8.42519 L 204.376,-8.53603
 L 204.909,-8.53603 L 205.431,-8.42519 L 205.918,-8.20836 L 206.349,-7.895 L 206.706,-7.49884 L 206.972,-7.03717
 L 207.137,-6.53017 L 207.193,-6 L 207.193,-0 L 399.236,-0 L 399.236,-6 L 399.291,-6.53017
 L 399.456,-7.03717 L 399.723,-7.49884 L 400.079,-7.895 L 400.511,-8.20836 L 400.998,-8.42519 L 401.519,-8.53603
 L 402.052,-8.53603 L 402.574,-8.42519 L 403.061,-8.20836 L 403.492,-7.895 L 403.849,-7.49884 L 404.115,-7.03717
 L 404.28,-6.53017 L 404.336,-6 L 404.336,-0 L 596.379,-0 L 596.379,-6 L 596.434,-6.53017
 L 596.599,-7.03717 L 596.866,-7.49884 L 597.222,-7.895 L 597.654,-8.20836 L 598.141,-8.42519 L 598.662,-8.53603
 L 599.195,-8.53603 L 599.717,-8.42519 L 600.204,-8.20836 L 600.635,-7.895 L 600.992,-7.49884 L 601.258,-7.03717
 L 601.423,-6.53017 L 601.479,-6 L 601.479,-0 L 793.521,-0 L 793.521,-6 L 793.577,-6.53017
 L 793.742,-7.03717 L 794.008,-7.49884 L 794.365,-7.895 L 794.796,-8.20836 L 795.283,-8.42519 L 795.805,-8.53603
 L 796.338,-8.53603 L 796.859,-8.42519 L 797.346,-8.20836 L 797.778,-7.895 L 798.134,-7.49884 L 798.401,-7.03717
 L 798.566,-6.53017 L 798.621,-6 L 798.621,-0 L 990.664,-0 L 990.664,-6 L 990.72,-6.53017
 L 990.885,-7.03717 L 991.151,-7.49884 L 991.508,-7.895 L 991.939,-8.20836 L 992.426,-8.42519 L 992.948,-8.53603
 L 993.481,-8.53603 L 994.002,-8.42519 L 994.489,-8.20836 L 994.921,-7.895 L 995.277,-7.49884 L 995.544,-7.03717
 L 995.709,-6.53017 L 995.764,-6 L 995.764,-0 L 1187.81,-0 L 1187.81,-6 L 1187.86,-6.53017
 L 1188.03,-7.03717 L 1188.29,-7.49884 L 1188.65,-7.895 L 1189.08,-8.20836 L 1189.57,-8.42519 L 1190.09,-8.53603
 L 1190.62,-8.53603 L 1191.15,-8.42519 L 1191.63,-8.20836 L 1192.06,-7.895 L 1192.42,-7.49884 L 1192.69,-7.03717
 L 1192.85,-6.53017 L 1192.91,-6 L 1192.91,-0 L 1384.95,-0 L 1384.95,-6 L 1385.01,-6.53017
 L 1385.17,-7.03717 L 1385.44,-7.49884 L 1385.79,-7.895 L 1386.22,-8.20836 L 1386.71,-8.42519 L 1387.23,-8.53603
 L 1387.77,-8.53603 L 1388.29,-8.42519 L 1388.77,-8.20836 L 1389.21,-7.895 L 1389.56,-7.49884 L 1389.83,-7.03717
 L 1389.99,-6.53017 L 1390.05,-6 L 1390.05,-0 L 1395,-0 z
M 6.98573,-55.607 L 6.47708,-55.6875 L 5.97964,-55.8208 L 5.49887,-56.0054 L 5.04001,-56.2392 L 4.60811,-56.5196
 L 4.20789,-56.8437 L 3.84373,-57.2079 L 3.51964,-57.6081 L 3.23917,-58.04 L 3.00537,-58.4989 L 2.82082,-58.9796
 L 2.68752,-59.4771 L 2.60696,-59.9857 L 2.58,-60.5 L 2.60696,-61.0143 L 2.68752,-61.5229 L 2.82082,-62.0204
 L 3.00537,-62.5011 L 3.23917,-62.96 L 3.51964,-63.3919 L 3.84373,-63.7921 L 4.20789,-64.1563 L 4.60811,-64.4804
 L 4.95001,-64.7024 L 4.95001,-74 L 5.00574,-74.5302 L 5.17047,-75.0372 L 5.43701,-75.4988 L 5.79373,-75.895
 L 6.22501,-76.2084 L 6.71202,-76.4252 L 7.23346,-76.536 L 7.76654,-76.536 L 8.28798,-76.4252 L 8.77499,-76.2084
 L 9.20627,-75.895 L 9.56299,-75.4988 L 9.82953,-75.0372 L 9.99426,-74.5302 L 10.05,-74 L 10.05,-64.7024
 L 10.3919,-64.4804 L 10.7921,-64.1563 L 11.1563,-63.7921 L 11.4804,-63.3919 L 11.7608,-62.96 L 11.9946,-62.5011
 L 12.1792,-62.0204 L 12.3125,-61.5229 L 12.393,-61.0143 L 12.42,-60.5 L 12.393,-59.9857 L 12.3125,-59.4771
 L 12.1792,-58.9796 L 11.9946,-58.4989 L 11.7608,-58.04 L 11.4804,-57.6081 L 11.1563,-57.2079 L 10.7921,-56.8437
 L 10.3919,-56.5196 L 9.95999,-56.2392 L 9.50113,-56.0054 L 9.02036,-55.8208 L 8.52292,-55.6875 L 8.01427,-55.607
 L 7.5,-55.58 z
M 204.129,-55.607 L 203.62,-55.6875 L 203.122,-55.8208 L 202.642,-56.0054 L 202.183,-56.2392 L 201.751,-56.5196
 L 201.351,-56.8437 L 200.987,-57.2079 L 200.662,-57.6081 L 200.382,-58.04 L 200.148,-58.4989 L 199.964,-58.9796
 L 199.83,-59.4771 L 199.75,-59.9857 L 199.723,-60.5 L 199.75,-61.0143 L 199.83,-61.5229 L 199.964,-62.0204
 L 200.148,-62.5011 L 200.382,-62.96 L 200.662,-63.3919 L 200.987,-63.7921 L 201.351,-64.1563 L 201.751,-64.4804
 L 202.093,-64.7024 L 202.093,-74 L 202.149,-74.5302 L 202.313,-75.0372 L 202.58,-75.4988 L 202.937,-75.895
 L 203.368,-76.2084 L 203.855,-76.4252 L 204.376,-76.536 L 204.909,-76.536 L 205.431,-76.4252 L 205.918,-76.2084
 L 206.349,-75.895 L 206.706,-75.4988 L 206.972,-75.0372 L 207.137,-74.5302 L 207.193,-74 L 207.193,-64.7024
 L 207.535,-64.4804 L 207.935,-64.1563 L 208.299,-63.7921 L 208.623,-63.3919 L 208.904,-62.96 L 209.137,-62.5011
 L 209.322,-62.0204 L 209.455,-61.5229 L 209.536,-61.0143 L 209.563,-60.5 L 209.536,-59.9857 L 209.455,-59.4771
 L 209.322,-58.9796 L 209.137,-58.4989 L 208.904,-58.04 L 208.623,-57.6081 L 208.299,-57.2079 L 207.935,-56.8437
 L 207.535,-56.5196 L 207.103,-56.2392 L 206.644,-56.0054 L 206.163,-55.8208 L 205.666,-55.6875 L 205.157,-55.607
 L 204.643,-55.58 z
M 401.271,-55.607 L 400.763,-55.6875 L 400.265,-55.8208 L 399.785,-56.0054 L 399.326,-56.2392 L 398.894,-56.5196
 L 398.494,-56.8437 L 398.129,-57.2079 L 397.805,-57.6081 L 397.525,-58.04 L 397.291,-58.4989 L 397.107,-58.9796
 L 396.973,-59.4771 L 396.893,-59.9857 L 396.866,-60.5 L 396.893,-61.0143 L 396.973,-61.5229 L 397.107,-62.0204
 L 397.291,-62.5011 L 397.525,-62.96 L 397.805,-63.3919 L 398.129,-63.7921 L 398.494,-64.1563 L 398.894,-64.4804
 L 399.236,-64.7024 L 399.236,-74 L 399.291,-74.5302 L 399.456,-75.0372 L 399.723,-75.4988 L 400.079,-75.895
 L 400.511,-76.2084 L 400.998,-76.4252 L 401.519,-76.536 L 402.052,-76.536 L 402.574,-76.4252 L 403.061,-76.2084
 L 403.492,-75.895 L 403.849,-75.4988 L 404.115,-75.0372 L 404.28,-74.5302 L 404.336,-74 L 404.336,-64.7024
 L 404.678,-64.4804 L 405.078,-64.1563 L 405.442,-63.7921 L 405.766,-63.3919 L 406.047,-62.96 L 406.28,-62.5011
 L 406.465,-62.0204 L 406.598,-61.5229 L 406.679,-61.0143 L 406.706,-60.5 L 406.679,-59.9857 L 406.598,-59.4771
 L 406.465,-58.9796 L 406.28,-58.4989 L 406.047,-58.04 L 405.766,-57.6081 L 405.442,-57.2079 L 405.078,-56.8437
 L 404.678,-56.5196 L 404.246,-56.2392 L 403.787,-56.0054 L 403.306,-55.8208 L 402.809,-55.6875 L 402.3,-55.607
 L 401.786,-55.58 z
M 598.414,-55.607 L 597.906,-55.6875 L 597.408,-55.8208 L 596.927,-56.0054 L 596.469,-56.2392 L 596.037,-56.5196
 L 595.636,-56.8437 L 595.272,-57.2079 L 594.948,-57.6081 L 594.668,-58.04 L 594.434,-58.4989 L 594.249,-58.9796
 L 594.116,-59.4771 L 594.036,-59.9857 L 594.009,-60.5 L 594.036,-61.0143 L 594.116,-61.5229 L 594.249,-62.0204
 L 594.434,-62.5011 L 594.668,-62.96 L 594.948,-63.3919 L 595.272,-63.7921 L 595.636,-64.1563 L 596.037,-64.4804
 L 596.379,-64.7024 L 596.379,-74 L 596.434,-74.5302 L 596.599,-75.0372 L 596.866,-75.4988 L 597.222,-75.895
 L 597.654,-76.2084 L 598.141,-76.4252 L 598.662,-76.536 L 599.195,-76.536 L 599.717,-76.4252 L 600.204,-76.2084
 L 600.635,-75.895 L 600.992,-75.4988 L 601.258,-75.0372 L 601.423,-74.5302 L 601.479,-74 L 601.479,-64.7024
 L 601.82,-64.4804 L 602.221,-64.1563 L 602.585,-63.7921 L 602.909,-63.3919 L 603.189,-62.96 L 603.423,-62.5011
 L 603.608,-62.0204 L 603.741,-61.5229 L 603.822,-61.0143 L 603.849,-60.5 L 603.822,-59.9857 L 603.741,-59.4771
 L 603.608,-58.9796 L 603.423,-58.4989 L 603.189,-58.04 L 602.909,-57.6081 L 602.585,-57.2079 L 602.221,-56.8437
 L 601.82,-56.5196 L 601.389,-56.2392 L 600.93,-56.0054 L 600.449,-55.8208 L 599.951,-55.6875 L 599.443,-55.607
 L 598.929,-55.58 z
M 795.557,-55.607 L 795.049,-55.6875 L 794.551,-55.8208 L 794.07,-56.0054 L 793.611,-56.2392 L 793.18,-56.5196
 L 792.779,-56.8437 L 792.415,-57.2079 L 792.091,-57.6081 L 791.811,-58.04 L 791.577,-58.4989 L 791.392,-58.9796
 L 791.259,-59.4771 L 791.178,-59.9857 L 791.151,-60.5 L 791.178,-61.0143 L 791.259,-61.5229 L 791.392,-62.0204
 L 791.577,-62.5011 L 791.811,-62.96 L 792.091,-63.3919 L 792.415,-63.7921 L 792.779,-64.1563 L 793.18,-64.4804
 L 793.521,-64.7024 L 793.521,-74 L 793.577,-74.5302 L 793.742,-75.0372 L 794.008,-75.4988 L 794.365,-75.895
 L 794.796,-76.2084 L 795.283,-76.4252 L 795.805,-76.536 L 796.338,-76.536 L 796.859,-76.4252 L 797.346,-76.2084
 L 797.778,-75.895 L 798.134,-75.4988 L 798.401,-75.0372 L 798.566,-74.5302 L 798.621,-74 L 798.621,-64.7024
 L 798.963,-64.4804 L 799.364,-64.1563 L 799.728,-63.7921 L 800.052,-63.3919 L 800.332,-62.96 L 800.566,-62.5011
 L 800.751,-62.0204 L 800.884,-61.5229 L 800.964,-61.0143 L 800.991,-60.5 L 800.964,-59.9857 L 800.884,-59.4771
 L 800.751,-58.9796 L 800.566,-58.4989 L 800.332,-58.04 L 800.052,-57.6081 L 799.728,-57.2079 L 799.364,-56.8437
 L 798.963,-56.5196 L 798.531,-56.2392 L 798.073,-56.0054 L 797.592,-55.8208 L 797.094,-55.6875 L 796.586,-55.607
 L 796.071,-55.58 z
M 992.7,-55.607 L 992.191,-55.6875 L 991.694,-55.8208 L 991.213,-56.0054 L 990.754,-56.2392 L 990.322,-56.5196
 L 989.922,-56.8437 L 989.558,-57.2079 L 989.234,-57.6081 L 988.953,-58.04 L 988.72,-58.4989 L 988.535,-58.9796
 L 988.402,-59.4771 L 988.321,-59.9857 L 988.294,-60.5 L 988.321,-61.0143 L 988.402,-61.5229 L 988.535,-62.0204
 L 988.72,-62.5011 L 988.953,-62.96 L 989.234,-63.3919 L 989.558,-63.7921 L 989.922,-64.1563 L 990.322,-64.4804
 L 990.664,-64.7024 L 990.664,-74 L 990.72,-74.5302 L 990.885,-75.0372 L 991.151,-75.4988 L 991.508,-75.895
 L 991.939,-76.2084 L 992.426,-76.4252 L 992.948,-76.536 L 993.481,-76.536 L 994.002,-76.4252 L 994.489,-76.2084
 L 994.921,-75.895 L 995.277,-75.4988 L 995.544,-75.0372 L 995.709,-74.5302 L 995.764,-74 L 995.764,-64.7024
 L 996.106,-64.4804 L 996.506,-64.1563 L 996.871,-63.7921 L 997.195,-63.3919 L 997.475,-62.96 L 997.709,-62.5011
 L 997.893,-62.0204 L 998.027,-61.5229 L 998.107,-61.0143 L 998.134,-60.5 L 998.107,-59.9857 L 998.027,-59.4771
 L 997.893,-58.9796 L 997.709,-58.4989 L 997.475,-58.04 L 997.195,-57.6081 L 996.871,-57.2079 L 996.506,-56.8437
 L 996.106,-56.5196 L 995.674,-56.2392 L 995.215,-56.0054 L 994.735,-55.8208 L 994.237,-55.6875 L 993.729,-55.607
 L 993.214,-55.58 z
M 1189.84,-55.607 L 1189.33,-55.6875 L 1188.84,-55.8208 L 1188.36,-56.0054 L 1187.9,-56.2392 L 1187.47,-56.5196
 L 1187.07,-56.8437 L 1186.7,-57.2079 L 1186.38,-57.6081 L 1186.1,-58.04 L 1185.86,-58.4989 L 1185.68,-58.9796
 L 1185.54,-59.4771 L 1185.46,-59.9857 L 1185.44,-60.5 L 1185.46,-61.0143 L 1185.54,-61.5229 L 1185.68,-62.0204
 L 1185.86,-62.5011 L 1186.1,-62.96 L 1186.38,-63.3919 L 1186.7,-63.7921 L 1187.07,-64.1563 L 1187.47,-64.4804
 L 1187.81,-64.7024 L 1187.81,-74 L 1187.86,-74.5302 L 1188.03,-75.0372 L 1188.29,-75.4988 L 1188.65,-75.895
 L 1189.08,-76.2084 L 1189.57,-76.4252 L 1190.09,-76.536 L 1190.62,-76.536 L 1191.15,-76.4252 L 1191.63,-76.2084
 L 1192.06,-75.895 L 1192.42,-75.4988 L 1192.69,-75.0372 L 1192.85,-74.5302 L 1192.91,-74 L 1192.91,-64.7024
 L 1193.25,-64.4804 L 1193.65,-64.1563 L 1194.01,-63.7921 L 1194.34,-63.3919 L 1194.62,-62.96 L 1194.85,-62.5011
 L 1195.04,-62.0204 L 1195.17,-61.5229 L 1195.25,-61.0143 L 1195.28,-60.5 L 1195.25,-59.9857 L 1195.17,-59.4771
 L 1195.04,-58.9796 L 1194.85,-58.4989 L 1194.62,-58.04 L 1194.34,-57.6081 L 1194.01,-57.2079 L 1193.65,-56.8437
 L 1193.25,-56.5196 L 1192.82,-56.2392 L 1192.36,-56.0054 L 1191.88,-55.8208 L 1191.38,-55.6875 L 1190.87,-55.607
 L 1190.36,-55.58 z
M 1386.99,-55.607 L 1386.48,-55.6875 L 1385.98,-55.8208 L 1385.5,-56.0054 L 1385.04,-56.2392 L 1384.61,-56.5196
 L 1384.21,-56.8437 L 1383.84,-57.2079 L 1383.52,-57.6081 L 1383.24,-58.04 L 1383.01,-58.4989 L 1382.82,-58.9796
 L 1382.69,-59.4771 L 1382.61,-59.9857 L 1382.58,-60.5 L 1382.61,-61.0143 L 1382.69,-61.5229 L 1382.82,-62.0204
 L 1383.01,-62.5011 L 1383.24,-62.96 L 1383.52,-63.3919 L 1383.84,-63.7921 L 1384.21,-64.1563 L 1384.61,-64.4804
 L 1384.95,-64.7024 L 1384.95,-74 L 1385.01,-74.5302 L 1385.17,-75.0372 L 1385.44,-75.4988 L 1385.79,-75.895
 L 1386.23,-76.2084 L 1386.71,-76.4252 L 1387.23,-76.536 L 1387.77,-76.536 L 1388.29,-76.4252 L 1388.77,-76.2084
 L 1389.21,-75.895 L 1389.56,-75.4988 L 1389.83,-75.0372 L 1389.99,-74.5302 L 1390.05,-74 L 1390.05,-64.7024
 L 1390.39,-64.4804 L 1390.79,-64.1563 L 1391.16,-63.7921 L 1391.48,-63.3919 L 1391.76,-62.96 L 1391.99,-62.5011
 L 1392.18,-62.0204 L 1392.31,-61.5229 L 1392.39,-61.0143 L 1392.42,-60.5 L 1392.39,-59.9857 L 1392.31,-59.4771
 L 1392.18,-58.9796 L 1391.99,-58.4989 L 1391.76,-58.04 L 1391.48,-57.6081 L 1391.16,-57.2079 L 1390.79,-56.8437
 L 1390.39,-56.5196 L 1389.96,-56.2392 L 1389.5,-56.0054 L 1389.02,-55.8208 L 1388.52,-55.6875 L 1388.01,-55.607
 L 1387.5,-55.58 z
M 807.904,-20.4076 L 807.134,-20.7339 L 806.449,-21.2132 L 805.878,-21.8245 L 805.447,-22.541 L 805.174,-23.3315
 L 805.071,-24.2334 L 805.071,-58 L 805.159,-58.8316 L 805.417,-59.627 L 805.835,-60.3511 L 806.395,-60.9726
 L 807.071,-61.4641 L 807.835,-61.8042 L 809.071,-62 L 906.966,-62 L 907.798,-61.9126 L 908.593,-61.6542
 L 909.317,-61.2361 L 909.939,-60.6765 L 910.43,-60 L 910.77,-59.2361 L 910.944,-58.4181 L 910.944,-57.5819
 L 910.77,-56.7639 L 910.43,-56 L 909.939,-55.3235 L 909.317,-54.7639 L 908.27,-54.2186 L 810.376,-20.4521
 L 809.561,-20.2635 L 808.725,-20.2485 z
M 697.01,-47.6642 L 696.196,-47.8527 L 677.74,-54.2186 L 676.693,-54.7639 L 676.072,-55.3235 L 675.58,-56
 L 675.24,-56.7639 L 675.066,-57.5819 L 675.066,-58.4181 L 675.24,-59.2361 L 675.58,-60 L 676.072,-60.6765
 L 676.693,-61.2361 L 677.417,-61.6542 L 678.213,-61.9126 L 679.044,-62 L 715.956,-62 L 717.123,-61.8259
 L 717.893,-61.4995 L 718.578,-61.0202 L 719.149,-60.409 L 719.58,-59.6924 L 719.853,-58.9019 L 719.955,-58.072
 L 719.883,-57.2389 L 719.639,-56.4391 L 719.234,-55.7075 L 718.685,-55.076 L 718.018,-54.5724 L 717.26,-54.2186
 L 698.804,-47.8527 L 697.846,-47.6491 z
M 585.439,-20.2635 L 584.624,-20.4521 L 486.73,-54.2186 L 485.683,-54.7639 L 485.061,-55.3235 L 484.57,-56
 L 484.23,-56.7639 L 484.056,-57.5819 L 484.056,-58.4181 L 484.23,-59.2361 L 484.57,-60 L 485.061,-60.6765
 L 485.683,-61.2361 L 486.407,-61.6542 L 487.202,-61.9126 L 488.034,-62 L 585.929,-62 L 587.165,-61.8042
 L 587.929,-61.4641 L 588.605,-60.9726 L 589.165,-60.3511 L 589.583,-59.627 L 589.841,-58.8316 L 589.929,-58
 L 589.929,-24.2334 L 589.826,-23.3315 L 589.553,-22.541 L 589.122,-21.8245 L 588.551,-21.2132 L 587.866,-20.7339
 L 587.096,-20.4076 L 586.275,-20.2485 z
M 388.296,-20.2635 L 387.481,-20.4521 L 289.587,-54.2186 L 288.54,-54.7639 L 287.918,-55.3235 L 287.427,-56
 L 287.087,-56.7639 L 286.913,-57.5819 L 286.913,-58.4181 L 287.087,-59.2361 L 287.427,-60 L 287.918,-60.6765
 L 288.54,-61.2361 L 289.264,-61.6542 L 290.059,-61.9126 L 290.891,-62 L 388.786,-62 L 390.022,-61.8042
 L 390.786,-61.4641 L 391.462,-60.9726 L 392.022,-60.3511 L 392.44,-59.627 L 392.698,-58.8316 L 392.786,-58
 L 392.786,-24.2334 L 392.683,-23.3315 L 392.41,-22.541 L 391.979,-21.8245 L 391.408,-21.2132 L 390.723,-20.7339
 L 389.953,-20.4076 L 389.132,-20.2485 z
M 1202.19,-20.4076 L 1201.42,-20.7339 L 1200.73,-21.2132 L 1200.16,-21.8245 L 1199.73,-22.541 L 1199.46,-23.3315
 L 1199.36,-24.2334 L 1199.36,-58 L 1199.44,-58.8316 L 1199.7,-59.627 L 1200.12,-60.3511 L 1200.68,-60.9726
 L 1201.36,-61.4641 L 1202.12,-61.8042 L 1203.36,-62 L 1301.25,-62 L 1302.08,-61.9126 L 1302.88,-61.6542
 L 1303.6,-61.2361 L 1304.22,-60.6765 L 1304.72,-60 L 1305.06,-59.2361 L 1305.23,-58.4181 L 1305.23,-57.5819
 L 1305.06,-56.7639 L 1304.72,-56 L 1304.22,-55.3235 L 1303.6,-54.7639 L 1302.56,-54.2186 L 1204.66,-20.4521
 L 1203.85,-20.2635 L 1203.01,-20.2485 z
M 191.153,-20.2635 L 190.339,-20.4521 L 92.4439,-54.2186 L 91.397,-54.7639 L 90.7756,-55.3235 L 90.2841,-56
 L 89.9439,-56.7639 L 89.7701,-57.5819 L 89.7701,-58.4181 L 89.9439,-59.2361 L 90.2841,-60 L 90.7756,-60.6765
 L 91.397,-61.2361 L 92.1212,-61.6542 L 92.9165,-61.9126 L 93.7482,-62 L 191.643,-62 L 192.879,-61.8042
 L 193.643,-61.4641 L 194.319,-60.9726 L 194.879,-60.3511 L 195.297,-59.627 L 195.555,-58.8316 L 195.643,-58
 L 195.643,-24.2334 L 195.54,-23.3315 L 195.267,-22.541 L 194.836,-21.8245 L 194.265,-21.2132 L 193.58,-20.7339
 L 192.81,-20.4076 L 191.989,-20.2485 z
M 1005.05,-20.4076 L 1004.28,-20.7339 L 1003.59,-21.2132 L 1003.02,-21.8245 L 1002.59,-22.541 L 1002.32,-23.3315
 L 1002.21,-24.2334 L 1002.21,-58 L 1002.3,-58.8316 L 1002.56,-59.627 L 1002.98,-60.3511 L 1003.54,-60.9726
 L 1004.21,-61.4641 L 1004.98,-61.8042 L 1006.21,-62 L 1104.11,-62 L 1104.94,-61.9126 L 1105.74,-61.6542
 L 1106.46,-61.2361 L 1107.08,-60.6765 L 1107.57,-60 L 1107.91,-59.2361 L 1108.09,-58.4181 L 1108.09,-57.5819
 L 1107.91,-56.7639 L 1107.57,-56 L 1107.08,-55.3235 L 1106.46,-54.7639 L 1105.41,-54.2186 L 1007.52,-20.4521
 L 1006.7,-20.2635 L 1005.87,-20.2485 z
M 611.51,-18.1401 L 610.692,-18.3139 L 609.929,-18.6541 L 609.252,-19.1456 L 608.692,-19.767 L 608.274,-20.4912
 L 608.016,-21.2865 L 607.929,-22.1181 L 607.929,-57.8819 L 608.032,-58.7838 L 608.304,-59.5743 L 608.735,-60.2908
 L 609.306,-60.9021 L 609.991,-61.3814 L 610.761,-61.7077 L 611.582,-61.8668 L 612.418,-61.8518 L 613.233,-61.6632
 L 665.075,-43.7814 L 665.708,-43.4995 L 666.394,-43.0202 L 666.964,-42.409 L 667.395,-41.6924 L 667.668,-40.9019
 L 667.77,-40.072 L 667.698,-39.2389 L 667.454,-38.4391 L 667.049,-37.7075 L 666.5,-37.076 L 665.833,-36.5724
 L 665.075,-36.2186 L 613.233,-18.3368 L 612.347,-18.1401 z
M 782.582,-18.1482 L 781.767,-18.3368 L 729.925,-36.2186 L 729.292,-36.5005 L 728.606,-36.9798 L 728.036,-37.591
 L 727.605,-38.3076 L 727.332,-39.0981 L 727.23,-39.928 L 727.302,-40.7611 L 727.546,-41.5609 L 727.951,-42.2925
 L 728.499,-42.924 L 729.167,-43.4276 L 729.925,-43.7814 L 781.767,-61.6632 L 782.653,-61.86 L 783.49,-61.86
 L 784.307,-61.6861 L 785.071,-61.346 L 785.748,-60.8544 L 786.307,-60.233 L 786.726,-59.5088 L 786.984,-58.7135
 L 787.071,-57.8819 L 787.071,-22.1181 L 786.968,-21.2162 L 786.696,-20.4257 L 786.265,-19.7092 L 785.694,-19.0979
 L 785.009,-18.6186 L 784.239,-18.2923 L 783.418,-18.1332 z
M 217.643,-18 L 216.407,-18.1958 L 215.643,-18.5359 L 214.966,-19.0274 L 214.407,-19.6489 L 213.989,-20.373
 L 213.73,-21.1684 L 213.643,-22 L 213.643,-55.7666 L 213.746,-56.6685 L 214.019,-57.459 L 214.45,-58.1755
 L 215.02,-58.7868 L 215.705,-59.2661 L 216.475,-59.5924 L 217.296,-59.7515 L 218.132,-59.7365 L 218.947,-59.5479
 L 316.842,-25.7814 L 317.889,-25.2361 L 318.51,-24.6765 L 319.002,-24 L 319.342,-23.2361 L 319.516,-22.4181
 L 319.516,-21.5819 L 319.342,-20.7639 L 319.002,-20 L 318.51,-19.3235 L 317.889,-18.7639 L 317.164,-18.3458
 L 316.369,-18.0874 L 315.538,-18 z
M 414.786,-18 L 413.55,-18.1958 L 412.786,-18.5359 L 412.109,-19.0274 L 411.55,-19.6489 L 411.132,-20.373
 L 410.873,-21.1684 L 410.786,-22 L 410.786,-55.7666 L 410.889,-56.6685 L 411.161,-57.459 L 411.592,-58.1755
 L 412.163,-58.7868 L 412.848,-59.2661 L 413.618,-59.5924 L 414.439,-59.7515 L 415.275,-59.7365 L 416.09,-59.5479
 L 513.985,-25.7814 L 515.031,-25.2361 L 515.653,-24.6765 L 516.144,-24 L 516.485,-23.2361 L 516.658,-22.4181
 L 516.658,-21.5819 L 516.485,-20.7639 L 516.144,-20 L 515.653,-19.3235 L 515.031,-18.7639 L 514.307,-18.3458
 L 513.512,-18.0874 L 512.68,-18 z
M 882.32,-18 L 881.488,-18.0874 L 880.693,-18.3458 L 879.968,-18.7639 L 879.347,-19.3235 L 878.856,-20
 L 878.515,-20.7639 L 878.342,-21.5819 L 878.342,-22.4181 L 878.515,-23.2361 L 878.856,-24 L 879.347,-24.6765
 L 879.968,-25.2361 L 881.015,-25.7814 L 978.91,-59.5479 L 979.725,-59.7365 L 980.561,-59.7515 L 981.382,-59.5924
 L 982.152,-59.2661 L 982.837,-58.7868 L 983.408,-58.1755 L 983.839,-57.459 L 984.111,-56.6685 L 984.214,-55.7666
 L 984.214,-22 L 984.127,-21.1684 L 983.868,-20.373 L 983.45,-19.6489 L 982.891,-19.0274 L 982.214,-18.5359
 L 981.45,-18.1958 L 980.214,-18 z
M 1079.46,-18 L 1078.63,-18.0874 L 1077.84,-18.3458 L 1077.11,-18.7639 L 1076.49,-19.3235 L 1076,-20
 L 1075.66,-20.7639 L 1075.48,-21.5819 L 1075.48,-22.4181 L 1075.66,-23.2361 L 1076,-24 L 1076.49,-24.6765
 L 1077.11,-25.2361 L 1078.16,-25.7814 L 1176.05,-59.5479 L 1176.87,-59.7365 L 1177.7,-59.7515 L 1178.52,-59.5924
 L 1179.29,-59.2661 L 1179.98,-58.7868 L 1180.55,-58.1755 L 1180.98,-57.459 L 1181.25,-56.6685 L 1181.36,-55.7666
 L 1181.36,-22 L 1181.27,-21.1684 L 1181.01,-20.373 L 1180.59,-19.6489 L 1180.03,-19.0274 L 1179.36,-18.5359
 L 1178.59,-18.1958 L 1177.36,-18 z
M 22,-18 L 20.7639,-18.1958 L 20,-18.5359 L 19.3235,-19.0274 L 18.7639,-19.6489 L 18.3458,-20.373
 L 18.0874,-21.1684 L 18,-22 L 18,-55.2492 L 18.103,-56.1511 L 18.3757,-56.9416 L 18.8067,-57.6581
 L 19.3774,-58.2694 L 20.0626,-58.7487 L 20.8326,-59.075 L 21.6535,-59.2341 L 22.4896,-59.2191 L 23.3043,-59.0305
 L 119.699,-25.7814 L 120.746,-25.2361 L 121.367,-24.6765 L 121.859,-24 L 122.199,-23.2361 L 122.373,-22.4181
 L 122.373,-21.5819 L 122.199,-20.7639 L 121.859,-20 L 121.367,-19.3235 L 120.746,-18.7639 L 120.022,-18.3458
 L 119.226,-18.0874 L 118.395,-18 z
M 1276.61,-18 L 1275.77,-18.0874 L 1274.98,-18.3458 L 1274.25,-18.7639 L 1273.63,-19.3235 L 1273.14,-20
 L 1272.8,-20.7639 L 1272.63,-21.5819 L 1272.63,-22.4181 L 1272.8,-23.2361 L 1273.14,-24 L 1273.63,-24.6765
 L 1274.25,-25.2361 L 1275.3,-25.7814 L 1371.7,-59.0305 L 1372.51,-59.2191 L 1373.35,-59.2341 L 1374.17,-59.075
 L 1374.94,-58.7487 L 1375.62,-58.2694 L 1376.19,-57.6581 L 1376.62,-56.9416 L 1376.9,-56.1511 L 1377,-55.2492
 L 1377,-22 L 1376.91,-21.1684 L 1376.65,-20.373 L 1376.24,-19.6489 L 1375.68,-19.0274 L 1375,-18.5359
 L 1374.24,-18.1958 L 1373,-18 z
M 679.044,-18 L 677.877,-18.1741 L 677.107,-18.5005 L 676.422,-18.9798 L 675.851,-19.591 L 675.42,-20.3076
 L 675.147,-21.0981 L 675.045,-21.928 L 675.117,-22.7611 L 675.361,-23.5609 L 675.766,-24.2925 L 676.315,-24.924
 L 676.982,-25.4276 L 677.74,-25.7814 L 696.196,-32.1473 L 697.153,-32.3509 L 697.99,-32.3358 L 698.804,-32.1473
 L 717.26,-25.7814 L 718.307,-25.2361 L 718.928,-24.6765 L 719.42,-24 L 719.76,-23.2361 L 719.934,-22.4181
 L 719.934,-21.5819 L 719.76,-20.7639 L 719.42,-20 L 718.928,-19.3235 L 718.307,-18.7639 L 717.583,-18.3458
 L 716.787,-18.0874 L 715.956,-18 z
" stroke="black" fill="lightgray" stroke-width="0.5"/>
</svg>
