<?xml version="1.0" standalone="no"?>
<!DOCTYPE svg PUBLIC "-//W3C//DTD SVG 1.1//EN" "http://www.w3.org/Graphics/SVG/1.1/DTD/svg11.dtd">
<svg width="1599mm" height="80mm" viewBox="0 -80 1599 80" xmlns="http://www.w3.org/2000/svg" version="1.1">
<title>OpenSCAD Model</title>
<path d="
M 1599,-80 L 0,-80 L 0,-0 L 4.95,-0 L 4.95,-6 L 5.00572,-6.53017
 L 5.17046,-7.03717 L 5.437,-7.49884 L 5.79372,-7.895 L 6.22499,-8.20836 L 6.71201,-8.42519 L 7.23344,-8.53603
 L 7.76654,-8.53603 L 8.28798,-8.42519 L 8.77499,-8.20836 L 9.20627,-7.895 L 9.56299,-7.49884 L 9.82953,-7.03717
 L 9.99426,-6.53017 L 10.05,-6 L 10.05,-0 L 202.95,-0 L 202.95,-6 L 203.006,-6.53017
 L 203.17,-7.03717 L 203.437,-7.49884 L 203.794,-7.895 L 204.225,-8.20836 L 204.712,-8.42519 L 205.233,-8.53603
 L 205.767,-8.53603 L 206.288,-8.42519 L 206.775,-8.20836 L 207.206,-7.895 L 207.563,-7.49884 L 207.83,-7.03717
 L 207.994,-6.53017 L 208.05,-6 L 208.05,-0 L 400.95,-0 L 400.95,-6 L 401.006,-6.53017
 L 401.17,-7.03717 L 401.437,-7.49884 L 401.794,-7.895 L 402.225,-8.20836 L 402.712,-8.42519 L 403.233,-8.53603
 L 403.767,-8.53603 L 404.288,-8.42519 L 404.775,-8.20836 L 405.206,-7.895 L 405.563,-7.49884 L 405.83,-7.03717
 L 405.994,-6.53017 L 406.05,-6 L 406.05,-0 L 598.95,-0 L 598.95,-6 L 599.006,-6.53017
 L 599.17,-7.03717 L 599.437,-7.49884 L 599.794,-7.895 L 600.225,-8.20836 L 600.712,-8.42519 L 601.233,-8.53603
 L 601.767,-8.53603 L 602.288,-8.42519 L 602.775,-8.20836 L 603.206,-7.895 L 603.563,-7.49884 L 603.83,-7.03717
 L 603.994,-6.53017 L 604.05,-6 L 604.05,-0 L 796.95,-0 L 796.95,-6 L 797.006,-6.53017
 L 797.17,-7.03717 L 797.437,-7.49884 L 797.794,-7.895 L 798.225,-8.20836 L 798.712,-8.42519 L 799.233,-8.53603
 L 799.767,-8.53603 L 800.288,-8.42519 L 800.775,-8.20836 L 801.206,-7.895 L 801.563,-7.49884 L 801.83,-7.03717
 L 801.994,-6.53017 L 802.05,-6 L 802.05,-0 L 994.95,-0 L 994.95,-6 L 995.006,-6.53017
 L 995.17,-7.03717 L 995.437,-7.49884 L 995.794,-7.895 L 996.225,-8.20836 L 996.712,-8.42519 L 997.233,-8.53603
 L 997.767,-8.53603 L 998.288,-8.42519 L 998.775,-8.20836 L 999.206,-7.895 L 999.563,-7.49884 L 999.83,-7.03717
 L 999.994,-6.53017 L 1000.05,-6 L 1000.05,-0 L 1192.95,-0 L 1192.95,-6 L 1193.01,-6.53017
 L 1193.17,-7.03717 L 1193.44,-7.49884 L 1193.79,-7.895 L 1194.22,-8.20836 L 1194.71,-8.42519 L 1195.23,-8.53603
 L 1195.77,-8.53603 L 1196.29,-8.42519 L 1196.77,-8.20836 L 1197.21,-7.895 L 1197.56,-7.49884 L 1197.83,-7.03717
 L 1197.99,-6.53017 L 1198.05,-6 L 1198.05,-0 L 1390.95,-0 L 1390.95,-6 L 1391.01,-6.53017
 L 1391.17,-7.03717 L 1391.44,-7.49884 L 1391.79,-7.895 L 1392.22,-8.20836 L 1392.71,-8.42519 L 1393.23,-8.53603
 L 1393.77,-8.53603 L 1394.29,-8.42519 L 1394.77,-8.20836 L 1395.21,-7.895 L 1395.56,-7.49884 L 1395.83,-7.03717
 L 1395.99,-6.53017 L 1396.05,-6 L 1396.05,-0 L 1588.95,-0 L 1588.95,-6 L 1589.01,-6.53017
 L 1589.17,-7.03717 L 1589.44,-7.49884 L 1589.79,-7.895 L 1590.22,-8.20836 L 1590.71,-8.42519 L 1591.23,-8.53603
 L 1591.77,-8.53603 L 1592.29,-8.42519 L 1592.77,-8.20836 L 1593.21,-7.895 L 1593.56,-7.49884 L 1593.83,-7.03717
 L 1593.99,-6.53017 L 1594.05,-6 L 1594.05,-0 L 1599,-0 z
M 204.986,-55.607 L 204.477,-55.6875 L 203.98,-55.8208 L 203.499,-56.0054 L 203.04,-56.2392 L 202.608,-56.5196
 L 202.208,-56.8437 L 201.844,-57.2079 L 201.52,-57.6081 L 201.239,-58.04 L 201.005,-58.4989 L 200.821,-58.9796
 L 200.688,-59.4771 L 200.607,-59.9857 L 200.58,-60.5 L 200.607,-61.0143 L 200.688,-61.5229 L 200.821,-62.0204
 L 201.005,-62.5011 L 201.239,-62.96 L 201.52,-63.3919 L 201.844,-63.7921 L 202.208,-64.1563 L 202.608,-64.4804
 L 202.95,-64.7024 L 202.95,-74 L 203.006,-74.5302 L 203.17,-75.0372 L 203.437,-75.4988 L 203.794,-75.895
 L 204.225,-76.2084 L 204.712,-76.4252 L 205.233,-76.536 L 205.767,-76.536 L 206.288,-76.4252 L 206.775,-76.2084
 L 207.206,-75.895 L 207.563,-75.4988 L 207.83,-75.0372 L 207.994,-74.5302 L 208.05,-74 L 208.05,-64.7024
 L 208.392,-64.4804 L 208.792,-64.1563 L 209.156,-63.7921 L 209.48,-63.3919 L 209.761,-62.96 L 209.995,-62.5011
 L 210.179,-62.0204 L 210.312,-61.5229 L 210.393,-61.0143 L 210.42,-60.5 L 210.393,-59.9857 L 210.312,-59.4771
 L 210.179,-58.9796 L 209.995,-58.4989 L 209.761,-58.04 L 209.48,-57.6081 L 209.156,-57.2079 L 208.792,-56.8437
 L 208.392,-56.5196 L 207.96,-56.2392 L 207.501,-56.0054 L 207.02,-55.8208 L 206.523,-55.6875 L 206.014,-55.607
 L 205.5,-55.58 z
M 1194.99,-55.607 L 1194.48,-55.6875 L 1193.98,-55.8208 L 1193.5,-56.0054 L 1193.04,-56.2392 L 1192.61,-56.5196
 L 1192.21,-56.8437 L 1191.84,-57.2079 L 1191.52,-57.6081 L 1191.24,-58.04 L 1191.01,-58.4989 L 1190.82,-58.9796
 L 1190.69,-59.4771 L 1190.61,-59.9857 L 1190.58,-60.5 L 1190.61,-61.0143 L 1190.69,-61.5229 L 1190.82,-62.0204
 L 1191.01,-62.5011 L 1191.24,-62.96 L 1191.52,-63.3919 L 1191.84,-63.7921 L 1192.21,-64.1563 L 1192.61,-64.4804
 L 1192.95,-64.7024 L 1192.95,-74 L 1193.01,-74.5302 L 1193.17,-75.0372 L 1193.44,-75.4988 L 1193.79,-75.895
 L 1194.23,-76.2084 L 1194.71,-76.4252 L 1195.23,-76.536 L 1195.77,-76.536 L 1196.29,-76.4252 L 1196.77,-76.2084
 L 1197.21,-75.895 L 1197.56,-75.4988 L 1197.83,-75.0372 L 1197.99,-74.5302 L 1198.05,-74 L 1198.05,-64.7024
 L 1198.39,-64.4804 L 1198.79,-64.1563 L 1199.16,-63.7921 L 1199.48,-63.3919 L 1199.76,-62.96 L 1199.99,-62.5011
 L 1200.18,-62.0204 L 1200.31,-61.5229 L 1200.39,-61.0143 L 1200.42,-60.5 L 1200.39,-59.9857 L 1200.31,-59.4771
 L 1200.18,-58.9796 L 1199.99,-58.4989 L 1199.76,-58.04 L 1199.48,-57.6081 L 1199.16,-57.2079 L 1198.79,-56.8437
 L 1198.39,-56.5196 L 1197.96,-56.2392 L 1197.5,-56.0054 L 1197.02,-55.8208 L 1196.52,-55.6875 L 1196.01,-55.607
 L 1195.5,-55.58 z
M 996.986,-55.607 L 996.477,-55.6875 L 995.98,-55.8208 L 995.499,-56.0054 L 995.04,-56.2392 L 994.608,-56.5196
 L 994.208,-56.8437 L 993.844,-57.2079 L 993.52,-57.6081 L 993.239,-58.04 L 993.005,-58.4989 L 992.821,-58.9796
 L 992.688,-59.4771 L 992.607,-59.9857 L 992.58,-60.5 L 992.607,-61.0143 L 992.688,-61.5229 L 992.821,-62.0204
 L 993.005,-62.5011 L 993.239,-62.96 L 993.52,-63.3919 L 993.844,-63.7921 L 994.208,-64.1563 L 994.608,-64.4804
 L 994.95,-64.7024 L 994.95,-74 L 995.006,-74.5302 L 995.17,-75.0372 L 995.437,-75.4988 L 995.794,-75.895
 L 996.225,-76.2084 L 996.712,-76.4252 L 997.233,-76.536 L 997.767,-76.536 L 998.288,-76.4252 L 998.775,-76.2084
 L 999.206,-75.895 L 999.563,-75.4988 L 999.83,-75.0372 L 999.994,-74.5302 L 1000.05,-74 L 1000.05,-64.7024
 L 1000.39,-64.4804 L 1000.79,-64.1563 L 1001.16,-63.7921 L 1001.48,-63.3919 L 1001.76,-62.96 L 1001.99,-62.5011
 L 1002.18,-62.0204 L 1002.31,-61.5229 L 1002.39,-61.0143 L 1002.42,-60.5 L 1002.39,-59.9857 L 1002.31,-59.4771
 L 1002.18,-58.9796 L 1001.99,-58.4989 L 1001.76,-58.04 L 1001.48,-57.6081 L 1001.16,-57.2079 L 1000.79,-56.8437
 L 1000.39,-56.5196 L 999.96,-56.2392 L 999.501,-56.0054 L 999.02,-55.8208 L 998.523,-55.6875 L 998.014,-55.607
 L 997.5,-55.58 z
M 6.98573,-55.607 L 6.47708,-55.6875 L 5.97964,-55.8208 L 5.49887,-56.0054 L 5.04001,-56.2392 L 4.60811,-56.5196
 L 4.20789,-56.8437 L 3.84373,-57.2079 L 3.51964,-57.6081 L 3.23917,-58.04 L 3.00537,-58.4989 L 2.82082,-58.9796
 L 2.68752,-59.4771 L 2.60696,-59.9857 L 2.58,-60.5 L 2.60696,-61.0143 L 2.68752,-61.5229 L 2.82082,-62.0204
 L 3.00537,-62.5011 L 3.23917,-62.96 L 3.51964,-63.3919 L 3.84373,-63.7921 L 4.20789,-64.1563 L 4.60811,-64.4804
 L 4.95001,-64.7024 L 4.95001,-74 L 5.00574,-74.5302 L 5.17047,-75.0372 L 5.43701,-75.4988 L 5.79373,-75.895
 L 6.22501,-76.2084 L 6.71202,-76.4252 L 7.23346,-76.536 L 7.76654,-76.536 L 8.28798,-76.4252 L 8.77499,-76.2084
 L 9.20627,-75.895 L 9.56299,-75.4988 L 9.82953,-75.0372 L 9.99426,-74.5302 L 10.05,-74 L 10.05,-64.7024
 L 10.3919,-64.4804 L 10.7921,-64.1563 L 11.1563,-63.7921 L 11.4804,-63.3919 L 11.7608,-62.96 L 11.9946,-62.5011
 L 12.1792,-62.0204 L 12.3125,-61.5229 L 12.393,-61.0143 L 12.42,-60.5 L 12.393,-59.9857 L 12.3125,-59.4771
 L 12.1792,-58.9796 L 11.9946,-58.4989 L 11.7608,-58.04 L 11.4804,-57.6081 L 11.1563,-57.2079 L 10.7921,-56.8437
 L 10.3919,-56.5196 L 9.95999,-56.2392 L 9.50113,-56.0054 L 9.02036,-55.8208 L 8.52292,-55.6875 L 8.01427,-55.607
 L 7.5,-55.58 z
M 798.986,-55.607 L 798.477,-55.6875 L 797.98,-55.8208 L 797.499,-56.0054 L 797.04,-56.2392 L 796.608,-56.5196
 L 796.208,-56.8437 L 795.844,-57.2079 L 795.52,-57.6081 L 795.239,-58.04 L 795.005,-58.4989 L 794.821,-58.9796
 L 794.688,-59.4771 L 794.607,-59.9857 L 794.58,-60.5 L 794.607,-61.0143 L 794.688,-61.5229 L 794.821,-62.0204
 L 795.005,-62.5011 L 795.239,-62.96 L 795.52,-63.3919 L 795.844,-63.7921 L 796.208,-64.1563 L 796.608,-64.4804
 L 796.95,-64.7024 L 796.95,-74 L 797.006,-74.5302 L 797.17,-75.0372 L 797.437,-75.4988 L 797.794,-75.895
 L 798.225,-76.2084 L 798.712,-76.4252 L 799.233,-76.536 L 799.767,-76.536 L 800.288,-76.4252 L 800.775,-76.2084
 L 801.206,-75.895 L 801.563,-75.4988 L 801.83,-75.0372 L 801.994,-74.5302 L 802.05,-74 L 802.05,-64.7024
 L 802.392,-64.4804 L 802.792,-64.1563 L 803.156,-63.7921 L 803.48,-63.3919 L 803.761,-62.96 L 803.995,-62.5011
 L 804.179,-62.0204 L 804.312,-61.5229 L 804.393,-61.0143 L 804.42,-60.5 L 804.393,-59.9857 L 804.312,-59.4771
 L 804.179,-58.9796 L 803.995,-58.4989 L 803.761,-58.04 L 803.48,-57.6081 L 803.156,-57.2079 L 802.792,-56.8437
 L 802.392,-56.5196 L 801.96,-56.2392 L 801.501,-56.0054 L 801.02,-55.8208 L 800.523,-55.6875 L 800.014,-55.607
 L 799.5,-55.58 z
M 1392.99,-55.607 L 1392.48,-55.6875 L 1391.98,-55.8208 L 1391.5,-56.0054 L 1391.04,-56.2392 L 1390.61,-56.5196
 L 1390.21,-56.8437 L 1389.84,-57.2079 L 1389.52,-57.6081 L 1389.24,-58.04 L 1389.01,-58.4989 L 1388.82,-58.9796
 L 1388.69,-59.4771 L 1388.61,-59.9857 L 1388.58,-60.5 L 1388.61,-61.0143 L 1388.69,-61.5229 L 1388.82,-62.0204
 L 1389.01,-62.5011 L 1389.24,-62.96 L 1389.52,-63.3919 L 1389.84,-63.7921 L 1390.21,-64.1563 L 1390.61,-64.4804
 L 1390.95,-64.7024 L 1390.95,-74 L 1391.01,-74.5302 L 1391.17,-75.0372 L 1391.44,-75.4988 L 1391.79,-75.895
 L 1392.23,-76.2084 L 1392.71,-76.4252 L 1393.23,-76.536 L 1393.77,-76.536 L 1394.29,-76.4252 L 1394.77,-76.2084
 L 1395.21,-75.895 L 1395.56,-75.4988 L 1395.83,-75.0372 L 1395.99,-74.5302 L 1396.05,-74 L 1396.05,-64.7024
 L 1396.39,-64.4804 L 1396.79,-64.1563 L 1397.16,-63.7921 L 1397.48,-63.3919 L 1397.76,-62.96 L 1397.99,-62.5011
 L 1398.18,-62.0204 L 1398.31,-61.5229 L 1398.39,-61.0143 L 1398.42,-60.5 L 1398.39,-59.9857 L 1398.31,-59.4771
 L 1398.18,-58.9796 L 1397.99,-58.4989 L 1397.76,-58.04 L 1397.48,-57.6081 L 1397.16,-57.2079 L 1396.79,-56.8437
 L 1396.39,-56.5196 L 1395.96,-56.2392 L 1395.5,-56.0054 L 1395.02,-55.8208 L 1394.52,-55.6875 L 1394.01,-55.607
 L 1393.5,-55.58 z
M 600.986,-55.607 L 600.477,-55.6875 L 599.98,-55.8208 L 599.499,-56.0054 L 599.04,-56.2392 L 598.608,-56.5196
 L 598.208,-56.8437 L 597.844,-57.2079 L 597.52,-57.6081 L 597.239,-58.04 L 597.005,-58.4989 L 596.821,-58.9796
 L 596.688,-59.4771 L 596.607,-59.9857 L 596.58,-60.5 L 596.607,-61.0143 L 596.688,-61.5229 L 596.821,-62.0204
 L 597.005,-62.5011 L 597.239,-62.96 L 597.52,-63.3919 L 597.844,-63.7921 L 598.208,-64.1563 L 598.608,-64.4804
 L 598.95,-64.7024 L 598.95,-74 L 599.006,-74.5302 L 599.17,-75.0372 L 599.437,-75.4988 L 599.794,-75.895
 L 600.225,-76.2084 L 600.712,-76.4252 L 601.233,-76.536 L 601.767,-76.536 L 602.288,-76.4252 L 602.775,-76.2084
 L 603.206,-75.895 L 603.563,-75.4988 L 603.83,-75.0372 L 603.994,-74.5302 L 604.05,-74 L 604.05,-64.7024
 L 604.392,-64.4804 L 604.792,-64.1563 L 605.156,-63.7921 L 605.48,-63.3919 L 605.761,-62.96 L 605.995,-62.5011
 L 606.179,-62.0204 L 606.312,-61.5229 L 606.393,-61.0143 L 606.42,-60.5 L 606.393,-59.9857 L 606.312,-59.4771
 L 606.179,-58.9796 L 605.995,-58.4989 L 605.761,-58.04 L 605.48,-57.6081 L 605.156,-57.2079 L 604.792,-56.8437
 L 604.392,-56.5196 L 603.96,-56.2392 L 603.501,-56.0054 L 603.02,-55.8208 L 602.523,-55.6875 L 602.014,-55.607
 L 601.5,-55.58 z
M 402.986,-55.607 L 402.477,-55.6875 L 401.98,-55.8208 L 401.499,-56.0054 L 401.04,-56.2392 L 400.608,-56.5196
 L 400.208,-56.8437 L 399.844,-57.2079 L 399.52,-57.6081 L 399.239,-58.04 L 399.005,-58.4989 L 398.821,-58.9796
 L 398.688,-59.4771 L 398.607,-59.9857 L 398.58,-60.5 L 398.607,-61.0143 L 398.688,-61.5229 L 398.821,-62.0204
 L 399.005,-62.5011 L 399.239,-62.96 L 399.52,-63.3919 L 399.844,-63.7921 L 400.208,-64.1563 L 400.608,-64.4804
 L 400.95,-64.7024 L 400.95,-74 L 401.006,-74.5302 L 401.17,-75.0372 L 401.437,-75.4988 L 401.794,-75.895
 L 402.225,-76.2084 L 402.712,-76.4252 L 403.233,-76.536 L 403.767,-76.536 L 404.288,-76.4252 L 404.775,-76.2084
 L 405.206,-75.895 L 405.563,-75.4988 L 405.83,-75.0372 L 405.994,-74.5302 L 406.05,-74 L 406.05,-64.7024
 L 406.392,-64.4804 L 406.792,-64.1563 L 407.156,-63.7921 L 407.48,-63.3919 L 407.761,-62.96 L 407.995,-62.5011
 L 408.179,-62.0204 L 408.312,-61.5229 L 408.393,-61.0143 L 408.42,-60.5 L 408.393,-59.9857 L 408.312,-59.4771
 L 408.179,-58.9796 L 407.995,-58.4989 L 407.761,-58.04 L 407.48,-57.6081 L 407.156,-57.2079 L 406.792,-56.8437
 L 406.392,-56.5196 L 405.96,-56.2392 L 405.501,-56.0054 L 405.02,-55.8208 L 404.523,-55.6875 L 404.014,-55.607
 L 403.5,-55.58 z
M 1590.99,-55.607 L 1590.48,-55.6875 L 1589.98,-55.8208 L 1589.5,-56.0054 L 1589.04,-56.2392 L 1588.61,-56.5196
 L 1588.21,-56.8437 L 1587.84,-57.2079 L 1587.52,-57.6081 L 1587.24,-58.04 L 1587.01,-58.4989 L 1586.82,-58.9796
 L 1586.69,-59.4771 L 1586.61,-59.9857 L 1586.58,-60.5 L 1586.61,-61.0143 L 1586.69,-61.5229 L 1586.82,-62.0204
 L 1587.01,-62.5011 L 1587.24,-62.96 L 1587.52,-63.3919 L 1587.84,-63.7921 L 1588.21,-64.1563 L 1588.61,-64.4804
 L 1588.95,-64.7024 L 1588.95,-74 L 1589.01,-74.5302 L 1589.17,-75.0372 L 1589.44,-75.4988 L 1589.79,-75.895
 L 1590.23,-76.2084 L 1590.71,-76.4252 L 1591.23,-76.536 L 1591.77,-76.536 L 1592.29,-76.4252 L 1592.77,-76.2084
 L 1593.21,-75.895 L 1593.56,-75.4988 L 1593.83,-75.0372 L 1593.99,-74.5302 L 1594.05,-74 L 1594.05,-64.7024
 L 1594.39,-64.4804 L 1594.79,-64.1563 L 1595.16,-63.7921 L 1595.48,-63.3919 L 1595.76,-62.96 L 1595.99,-62.5011
 L 1596.18,-62.0204 L 1596.31,-61.5229 L 1596.39,-61.0143 L 1596.42,-60.5 L 1596.39,-59.9857 L 1596.31,-59.4771
 L 1596.18,-58.9796 L 1595.99,-58.4989 L 1595.76,-58.04 L 1595.48,-57.6081 L 1595.16,-57.2079 L 1594.79,-56.8437
 L 1594.39,-56.5196 L 1593.96,-56.2392 L 1593.5,-56.0054 L 1593.02,-55.8208 L 1592.52,-55.6875 L 1592.01,-55.607
 L 1591.5,-55.58 z
M 390.016,-20.2375 L 389.201,-20.4249 L 290.806,-54.2169 L 289.755,-54.7639 L 289.133,-55.3235 L 288.642,-56
 L 288.301,-56.7639 L 288.128,-57.5819 L 288.128,-58.4181 L 288.301,-59.2361 L 288.642,-60 L 289.133,-60.6765
 L 289.755,-61.2361 L 290.479,-61.6542 L 291.274,-61.9126 L 292.106,-62 L 390.5,-62 L 391.736,-61.8042
 L 392.5,-61.4641 L 393.177,-60.9726 L 393.736,-60.3511 L 394.154,-59.627 L 394.413,-58.8316 L 394.5,-58
 L 394.5,-24.208 L 394.398,-23.3113 L 394.127,-22.5204 L 393.696,-21.8033 L 393.127,-21.1913 L 392.442,-20.7111
 L 391.673,-20.3837 L 390.852,-20.2235 z
M 588.016,-20.2375 L 587.201,-20.4249 L 488.806,-54.2169 L 487.755,-54.7639 L 487.133,-55.3235 L 486.642,-56
 L 486.301,-56.7639 L 486.128,-57.5819 L 486.128,-58.4181 L 486.301,-59.2361 L 486.642,-60 L 487.133,-60.6765
 L 487.755,-61.2361 L 488.479,-61.6542 L 489.274,-61.9126 L 490.106,-62 L 588.5,-62 L 589.736,-61.8042
 L 590.5,-61.4641 L 591.177,-60.9726 L 591.736,-60.3511 L 592.154,-59.627 L 592.413,-58.8316 L 592.5,-58
 L 592.5,-24.208 L 592.398,-23.3113 L 592.127,-22.5204 L 591.696,-21.8033 L 591.127,-21.1913 L 590.442,-20.7111
 L 589.673,-20.3837 L 588.852,-20.2235 z
M 1405.33,-20.3837 L 1404.56,-20.7111 L 1403.87,-21.1913 L 1403.3,-21.8033 L 1402.87,-22.5204 L 1402.6,-23.3113
 L 1402.5,-24.208 L 1402.5,-58 L 1402.59,-58.8316 L 1402.85,-59.627 L 1403.26,-60.3511 L 1403.82,-60.9726
 L 1404.5,-61.4641 L 1405.26,-61.8042 L 1406.5,-62 L 1504.89,-62 L 1505.73,-61.9126 L 1506.52,-61.6542
 L 1507.25,-61.2361 L 1507.87,-60.6765 L 1508.36,-60 L 1508.7,-59.2361 L 1508.87,-58.4181 L 1508.87,-57.5819
 L 1508.7,-56.7639 L 1508.36,-56 L 1507.87,-55.3235 L 1507.25,-54.7639 L 1506.19,-54.2169 L 1407.8,-20.4249
 L 1406.98,-20.2375 L 1406.15,-20.2235 z
M 786.016,-20.2375 L 785.201,-20.4249 L 686.806,-54.2169 L 685.755,-54.7639 L 685.133,-55.3235 L 684.642,-56
 L 684.301,-56.7639 L 684.128,-57.5819 L 684.128,-58.4181 L 684.301,-59.2361 L 684.642,-60 L 685.133,-60.6765
 L 685.755,-61.2361 L 686.479,-61.6542 L 687.274,-61.9126 L 688.106,-62 L 786.5,-62 L 787.736,-61.8042
 L 788.5,-61.4641 L 789.177,-60.9726 L 789.736,-60.3511 L 790.154,-59.627 L 790.413,-58.8316 L 790.5,-58
 L 790.5,-24.208 L 790.398,-23.3113 L 790.127,-22.5204 L 789.696,-21.8033 L 789.127,-21.1913 L 788.442,-20.7111
 L 787.673,-20.3837 L 786.852,-20.2235 z
M 192.016,-20.2375 L 191.201,-20.4249 L 92.8064,-54.2169 L 91.7546,-54.7639 L 91.1331,-55.3235 L 90.6416,-56
 L 90.3015,-56.7639 L 90.1276,-57.5819 L 90.1276,-58.4181 L 90.3015,-59.2361 L 90.6416,-60 L 91.1331,-60.6765
 L 91.7546,-61.2361 L 92.4787,-61.6542 L 93.274,-61.9126 L 94.1057,-62 L 192.5,-62 L 193.736,-61.8042
 L 194.5,-61.4641 L 195.177,-60.9726 L 195.736,-60.3511 L 196.154,-59.627 L 196.413,-58.8316 L 196.5,-58
 L 196.5,-24.208 L 196.398,-23.3113 L 196.127,-22.5204 L 195.696,-21.8033 L 195.127,-21.1913 L 194.442,-20.7111
 L 193.673,-20.3837 L 192.852,-20.2235 z
M 811.327,-20.3837 L 810.558,-20.7111 L 809.873,-21.1913 L 809.304,-21.8033 L 808.873,-22.5204 L 808.602,-23.3113
 L 808.5,-24.208 L 808.5,-58 L 808.587,-58.8316 L 808.846,-59.627 L 809.264,-60.3511 L 809.823,-60.9726
 L 810.5,-61.4641 L 811.264,-61.8042 L 812.5,-62 L 910.894,-62 L 911.726,-61.9126 L 912.521,-61.6542
 L 913.245,-61.2361 L 913.867,-60.6765 L 914.358,-60 L 914.699,-59.2361 L 914.872,-58.4181 L 914.872,-57.5819
 L 914.699,-56.7639 L 914.358,-56 L 913.867,-55.3235 L 913.245,-54.7639 L 912.194,-54.2169 L 813.799,-20.4249
 L 812.984,-20.2375 L 812.148,-20.2235 z
M 1009.33,-20.3837 L 1008.56,-20.7111 L 1007.87,-21.1913 L 1007.3,-21.8033 L 1006.87,-22.5204 L 1006.6,-23.3113
 L 1006.5,-24.208 L 1006.5,-58 L 1006.59,-58.8316 L 1006.85,-59.627 L 1007.26,-60.3511 L 1007.82,-60.9726
 L 1008.5,-61.4641 L 1009.26,-61.8042 L 1010.5,-62 L 1108.89,-62 L 1109.73,-61.9126 L 1110.52,-61.6542
 L 1111.25,-61.2361 L 1111.87,-60.6765 L 1112.36,-60 L 1112.7,-59.2361 L 1112.87,-58.4181 L 1112.87,-57.5819
 L 1112.7,-56.7639 L 1112.36,-56 L 1111.87,-55.3235 L 1111.25,-54.7639 L 1110.19,-54.2169 L 1011.8,-20.4249
 L 1010.98,-20.2375 L 1010.15,-20.2235 z
M 1207.33,-20.3837 L 1206.56,-20.7111 L 1205.87,-21.1913 L 1205.3,-21.8033 L 1204.87,-22.5204 L 1204.6,-23.3113
 L 1204.5,-24.208 L 1204.5,-58 L 1204.59,-58.8316 L 1204.85,-59.627 L 1205.26,-60.3511 L 1205.82,-60.9726
 L 1206.5,-61.4641 L 1207.26,-61.8042 L 1208.5,-62 L 1306.89,-62 L 1307.73,-61.9126 L 1308.52,-61.6542
 L 1309.25,-61.2361 L 1309.87,-60.6765 L 1310.36,-60 L 1310.7,-59.2361 L 1310.87,-58.4181 L 1310.87,-57.5819
 L 1310.7,-56.7639 L 1310.36,-56 L 1309.87,-55.3235 L 1309.25,-54.7639 L 1308.19,-54.2169 L 1209.8,-20.4249
 L 1208.98,-20.2375 L 1208.15,-20.2235 z
M 218.5,-18 L 217.264,-18.1958 L 216.5,-18.5359 L 215.823,-19.0274 L 215.264,-19.6489 L 214.846,-20.373
 L 214.587,-21.1684 L 214.5,-22 L 214.5,-55.792 L 214.602,-56.6886 L 214.873,-57.4795 L 215.304,-58.1967
 L 215.873,-58.8087 L 216.558,-59.2889 L 217.327,-59.6162 L 218.148,-59.7765 L 218.984,-59.7625 L 219.799,-59.5751
 L 318.194,-25.7831 L 319.245,-25.2361 L 319.867,-24.6765 L 320.358,-24 L 320.699,-23.2361 L 320.872,-22.4181
 L 320.872,-21.5819 L 320.699,-20.7639 L 320.358,-20 L 319.867,-19.3235 L 319.245,-18.7639 L 318.521,-18.3458
 L 317.726,-18.0874 L 316.894,-18 z
M 416.5,-18 L 415.264,-18.1958 L 414.5,-18.5359 L 413.823,-19.0274 L 413.264,-19.6489 L 412.846,-20.373
 L 412.587,-21.1684 L 412.5,-22 L 412.5,-55.792 L 412.602,-56.6886 L 412.873,-57.4795 L 413.304,-58.1967
 L 413.873,-58.8087 L 414.558,-59.2889 L 415.327,-59.6162 L 416.148,-59.7765 L 416.984,-59.7625 L 417.799,-59.5751
 L 516.194,-25.7831 L 517.245,-25.2361 L 517.867,-24.6765 L 518.358,-24 L 518.699,-23.2361 L 518.872,-22.4181
 L 518.872,-21.5819 L 518.699,-20.7639 L 518.358,-20 L 517.867,-19.3235 L 517.245,-18.7639 L 516.521,-18.3458
 L 515.726,-18.0874 L 514.894,-18 z
M 614.5,-18 L 613.264,-18.1958 L 612.5,-18.5359 L 611.823,-19.0274 L 611.264,-19.6489 L 610.846,-20.373
 L 610.587,-21.1684 L 610.5,-22 L 610.5,-55.792 L 610.602,-56.6886 L 610.873,-57.4795 L 611.304,-58.1967
 L 611.873,-58.8087 L 612.558,-59.2889 L 613.327,-59.6162 L 614.148,-59.7765 L 614.984,-59.7625 L 615.799,-59.5751
 L 714.194,-25.7831 L 715.245,-25.2361 L 715.867,-24.6765 L 716.358,-24 L 716.699,-23.2361 L 716.872,-22.4181
 L 716.872,-21.5819 L 716.699,-20.7639 L 716.358,-20 L 715.867,-19.3235 L 715.245,-18.7639 L 714.521,-18.3458
 L 713.726,-18.0874 L 712.894,-18 z
M 886.106,-18 L 885.274,-18.0874 L 884.479,-18.3458 L 883.755,-18.7639 L 883.133,-19.3235 L 882.642,-20
 L 882.301,-20.7639 L 882.128,-21.5819 L 882.128,-22.4181 L 882.301,-23.2361 L 882.642,-24 L 883.133,-24.6765
 L 883.755,-25.2361 L 884.806,-25.7831 L 983.201,-59.5751 L 984.016,-59.7625 L 984.852,-59.7765 L 985.673,-59.6162
 L 986.442,-59.2889 L 987.127,-58.8087 L 987.696,-58.1967 L 988.127,-57.4795 L 988.398,-56.6886 L 988.5,-55.792
 L 988.5,-22 L 988.413,-21.1684 L 988.154,-20.373 L 987.736,-19.6489 L 987.177,-19.0274 L 986.5,-18.5359
 L 985.736,-18.1958 L 984.5,-18 z
M 1084.11,-18 L 1083.27,-18.0874 L 1082.48,-18.3458 L 1081.75,-18.7639 L 1081.13,-19.3235 L 1080.64,-20
 L 1080.3,-20.7639 L 1080.13,-21.5819 L 1080.13,-22.4181 L 1080.3,-23.2361 L 1080.64,-24 L 1081.13,-24.6765
 L 1081.75,-25.2361 L 1082.81,-25.7831 L 1181.2,-59.5751 L 1182.02,-59.7625 L 1182.85,-59.7765 L 1183.67,-59.6162
 L 1184.44,-59.2889 L 1185.13,-58.8087 L 1185.7,-58.1967 L 1186.13,-57.4795 L 1186.4,-56.6886 L 1186.5,-55.792
 L 1186.5,-22 L 1186.41,-21.1684 L 1186.15,-20.373 L 1185.74,-19.6489 L 1185.18,-19.0274 L 1184.5,-18.5359
 L 1183.74,-18.1958 L 1182.5,-18 z
M 1282.11,-18 L 1281.27,-18.0874 L 1280.48,-18.3458 L 1279.75,-18.7639 L 1279.13,-19.3235 L 1278.64,-20
 L 1278.3,-20.7639 L 1278.13,-21.5819 L 1278.13,-22.4181 L 1278.3,-23.2361 L 1278.64,-24 L 1279.13,-24.6765
 L 1279.75,-25.2361 L 1280.81,-25.7831 L 1379.2,-59.5751 L 1380.02,-59.7625 L 1380.85,-59.7765 L 1381.67,-59.6162
 L 1382.44,-59.2889 L 1383.13,-58.8087 L 1383.7,-58.1967 L 1384.13,-57.4795 L 1384.4,-56.6886 L 1384.5,-55.792
 L 1384.5,-22 L 1384.41,-21.1684 L 1384.15,-20.373 L 1383.74,-19.6489 L 1383.18,-19.0274 L 1382.5,-18.5359
 L 1381.74,-18.1958 L 1380.5,-18 z
M 1480.11,-18 L 1479.27,-18.0874 L 1478.48,-18.3458 L 1477.75,-18.7639 L 1477.13,-19.3235 L 1476.64,-20
 L 1476.3,-20.7639 L 1476.13,-21.5819 L 1476.13,-22.4181 L 1476.3,-23.2361 L 1476.64,-24 L 1477.13,-24.6765
 L 1477.75,-25.2361 L 1478.81,-25.7831 L 1575.7,-59.0599 L 1576.52,-59.2474 L 1577.35,-59.2613 L 1578.17,-59.1011
 L 1578.94,-58.7737 L 1579.63,-58.2935 L 1580.2,-57.6815 L 1580.63,-56.9644 L 1580.9,-56.1735 L 1581,-55.2768
 L 1581,-22 L 1580.91,-21.1684 L 1580.65,-20.373 L 1580.24,-19.6489 L 1579.68,-19.0274 L 1579,-18.5359
 L 1578.24,-18.1958 L 1577,-18 z
M 22,-18 L 20.7639,-18.1958 L 20,-18.5359 L 19.3235,-19.0274 L 18.7639,-19.6489 L 18.3458,-20.373
 L 18.0874,-21.1684 L 18,-22 L 18,-55.2768 L 18.1018,-56.1735 L 18.3734,-56.9644 L 18.8035,-57.6815
 L 19.3734,-58.2935 L 20.058,-58.7737 L 20.8275,-59.1011 L 21.6482,-59.2613 L 22.4843,-59.2474 L 23.2993,-59.0599
 L 120.194,-25.7831 L 121.245,-25.2361 L 121.867,-24.6765 L 122.358,-24 L 122.699,-23.2361 L 122.872,-22.4181
 L 122.872,-21.5819 L 122.699,-20.7639 L 122.358,-20 L 121.867,-19.3235 L 121.245,-18.7639 L 120.521,-18.3458
 L 119.726,-18.0874 L 118.894,-18 z
" stroke="black" fill="lightgray" stroke-width="0.5"/>
</svg>
