<?xml version="1.0" standalone="no"?>
<!DOCTYPE svg PUBLIC "-//W3C//DTD SVG 1.1//EN" "http://www.w3.org/Graphics/SVG/1.1/DTD/svg11.dtd">
<svg width="1340mm" height="80mm" viewBox="0 -80 1340 80" xmlns="http://www.w3.org/2000/svg" version="1.1">
<title>OpenSCAD Model</title>
<path d="
M 1340,-80 L 0,-80 L 0,-0 L 4.95,-0 L 4.95,-6 L 5.00572,-6.53017
 L 5.17046,-7.03717 L 5.437,-7.49884 L 5.79372,-7.895 L 6.22499,-8.20836 L 6.71201,-8.42519 L 7.23344,-8.53603
 L 7.76654,-8.53603 L 8.28798,-8.42519 L 8.77499,-8.20836 L 9.20627,-7.895 L 9.56299,-7.49884 L 9.82953,-7.03717
 L 9.99426,-6.53017 L 10.05,-6 L 10.05,-0 L 194.236,-0 L 194.236,-6 L 194.291,-6.53017
 L 194.456,-7.03717 L 194.723,-7.49884 L 195.079,-7.895 L 195.511,-8.20836 L 195.998,-8.42519 L 196.519,-8.53603
 L 197.052,-8.53603 L 197.574,-8.42519 L 198.061,-8.20836 L 198.492,-7.895 L 198.849,-7.49884 L 199.115,-7.03717
 L 199.28,-6.53017 L 199.336,-6 L 199.336,-0 L 383.521,-0 L 383.521,-6 L 383.577,-6.53017
 L 383.742,-7.03717 L 384.008,-7.49884 L 384.365,-7.895 L 384.796,-8.20836 L 385.283,-8.42519 L 385.805,-8.53603
 L 386.338,-8.53603 L 386.859,-8.42519 L 387.346,-8.20836 L 387.778,-7.895 L 388.134,-7.49884 L 388.401,-7.03717
 L 388.566,-6.53017 L 388.621,-6 L 388.621,-0 L 572.807,-0 L 572.807,-6 L 572.863,-6.53017
 L 573.028,-7.03717 L 573.294,-7.49884 L 573.651,-7.895 L 574.082,-8.20836 L 574.569,-8.42519 L 575.091,-8.53603
 L 575.624,-8.53603 L 576.145,-8.42519 L 576.632,-8.20836 L 577.063,-7.895 L 577.42,-7.49884 L 577.687,-7.03717
 L 577.851,-6.53017 L 577.907,-6 L 577.907,-0 L 762.093,-0 L 762.093,-6 L 762.149,-6.53017
 L 762.313,-7.03717 L 762.58,-7.49884 L 762.937,-7.895 L 763.368,-8.20836 L 763.855,-8.42519 L 764.376,-8.53603
 L 764.909,-8.53603 L 765.431,-8.42519 L 765.918,-8.20836 L 766.349,-7.895 L 766.706,-7.49884 L 766.972,-7.03717
 L 767.137,-6.53017 L 767.193,-6 L 767.193,-0 L 951.379,-0 L 951.379,-6 L 951.434,-6.53017
 L 951.599,-7.03717 L 951.866,-7.49884 L 952.222,-7.895 L 952.654,-8.20836 L 953.141,-8.42519 L 953.662,-8.53603
 L 954.195,-8.53603 L 954.717,-8.42519 L 955.204,-8.20836 L 955.635,-7.895 L 955.992,-7.49884 L 956.258,-7.03717
 L 956.423,-6.53017 L 956.479,-6 L 956.479,-0 L 1140.66,-0 L 1140.66,-6 L 1140.72,-6.53017
 L 1140.88,-7.03717 L 1141.15,-7.49884 L 1141.51,-7.895 L 1141.94,-8.20836 L 1142.43,-8.42519 L 1142.95,-8.53603
 L 1143.48,-8.53603 L 1144,-8.42519 L 1144.49,-8.20836 L 1144.92,-7.895 L 1145.28,-7.49884 L 1145.54,-7.03717
 L 1145.71,-6.53017 L 1145.76,-6 L 1145.76,-0 L 1329.95,-0 L 1329.95,-6 L 1330.01,-6.53017
 L 1330.17,-7.03717 L 1330.44,-7.49884 L 1330.79,-7.895 L 1331.22,-8.20836 L 1331.71,-8.42519 L 1332.23,-8.53603
 L 1332.77,-8.53603 L 1333.29,-8.42519 L 1333.77,-8.20836 L 1334.21,-7.895 L 1334.56,-7.49884 L 1334.83,-7.03717
 L 1334.99,-6.53017 L 1335.05,-6 L 1335.05,-0 L 1340,-0 z
M 6.98573,-55.607 L 6.47708,-55.6875 L 5.97964,-55.8208 L 5.49887,-56.0054 L 5.04001,-56.2392 L 4.60811,-56.5196
 L 4.20789,-56.8437 L 3.84373,-57.2079 L 3.51964,-57.6081 L 3.23917,-58.04 L 3.00537,-58.4989 L 2.82082,-58.9796
 L 2.68752,-59.4771 L 2.60696,-59.9857 L 2.58,-60.5 L 2.60696,-61.0143 L 2.68752,-61.5229 L 2.82082,-62.0204
 L 3.00537,-62.5011 L 3.23917,-62.96 L 3.51964,-63.3919 L 3.84373,-63.7921 L 4.20789,-64.1563 L 4.60811,-64.4804
 L 4.95001,-64.7024 L 4.95001,-74 L 5.00574,-74.5302 L 5.17047,-75.0372 L 5.43701,-75.4988 L 5.79373,-75.895
 L 6.22501,-76.2084 L 6.71202,-76.4252 L 7.23346,-76.536 L 7.76654,-76.536 L 8.28798,-76.4252 L 8.77499,-76.2084
 L 9.20627,-75.895 L 9.56299,-75.4988 L 9.82953,-75.0372 L 9.99426,-74.5302 L 10.05,-74 L 10.05,-64.7024
 L 10.3919,-64.4804 L 10.7921,-64.1563 L 11.1563,-63.7921 L 11.4804,-63.3919 L 11.7608,-62.96 L 11.9946,-62.5011
 L 12.1792,-62.0204 L 12.3125,-61.5229 L 12.393,-61.0143 L 12.42,-60.5 L 12.393,-59.9857 L 12.3125,-59.4771
 L 12.1792,-58.9796 L 11.9946,-58.4989 L 11.7608,-58.04 L 11.4804,-57.6081 L 11.1563,-57.2079 L 10.7921,-56.8437
 L 10.3919,-56.5196 L 9.95999,-56.2392 L 9.50113,-56.0054 L 9.02036,-55.8208 L 8.52292,-55.6875 L 8.01427,-55.607
 L 7.5,-55.58 z
M 196.271,-55.607 L 195.763,-55.6875 L 195.265,-55.8208 L 194.785,-56.0054 L 194.326,-56.2392 L 193.894,-56.5196
 L 193.494,-56.8437 L 193.129,-57.2079 L 192.805,-57.6081 L 192.525,-58.04 L 192.291,-58.4989 L 192.107,-58.9796
 L 191.973,-59.4771 L 191.893,-59.9857 L 191.866,-60.5 L 191.893,-61.0143 L 191.973,-61.5229 L 192.107,-62.0204
 L 192.291,-62.5011 L 192.525,-62.96 L 192.805,-63.3919 L 193.129,-63.7921 L 193.494,-64.1563 L 193.894,-64.4804
 L 194.236,-64.7024 L 194.236,-74 L 194.291,-74.5302 L 194.456,-75.0372 L 194.723,-75.4988 L 195.079,-75.895
 L 195.511,-76.2084 L 195.998,-76.4252 L 196.519,-76.536 L 197.052,-76.536 L 197.574,-76.4252 L 198.061,-76.2084
 L 198.492,-75.895 L 198.849,-75.4988 L 199.115,-75.0372 L 199.28,-74.5302 L 199.336,-74 L 199.336,-64.7024
 L 199.678,-64.4804 L 200.078,-64.1563 L 200.442,-63.7921 L 200.766,-63.3919 L 201.047,-62.96 L 201.28,-62.5011
 L 201.465,-62.0204 L 201.598,-61.5229 L 201.679,-61.0143 L 201.706,-60.5 L 201.679,-59.9857 L 201.598,-59.4771
 L 201.465,-58.9796 L 201.28,-58.4989 L 201.047,-58.04 L 200.766,-57.6081 L 200.442,-57.2079 L 200.078,-56.8437
 L 199.678,-56.5196 L 199.246,-56.2392 L 198.787,-56.0054 L 198.306,-55.8208 L 197.809,-55.6875 L 197.3,-55.607
 L 196.786,-55.58 z
M 385.557,-55.607 L 385.049,-55.6875 L 384.551,-55.8208 L 384.07,-56.0054 L 383.611,-56.2392 L 383.18,-56.5196
 L 382.779,-56.8437 L 382.415,-57.2079 L 382.091,-57.6081 L 381.811,-58.04 L 381.577,-58.4989 L 381.392,-58.9796
 L 381.259,-59.4771 L 381.178,-59.9857 L 381.151,-60.5 L 381.178,-61.0143 L 381.259,-61.5229 L 381.392,-62.0204
 L 381.577,-62.5011 L 381.811,-62.96 L 382.091,-63.3919 L 382.415,-63.7921 L 382.779,-64.1563 L 383.18,-64.4804
 L 383.521,-64.7024 L 383.521,-74 L 383.577,-74.5302 L 383.742,-75.0372 L 384.008,-75.4988 L 384.365,-75.895
 L 384.796,-76.2084 L 385.283,-76.4252 L 385.805,-76.536 L 386.338,-76.536 L 386.859,-76.4252 L 387.346,-76.2084
 L 387.778,-75.895 L 388.134,-75.4988 L 388.401,-75.0372 L 388.566,-74.5302 L 388.621,-74 L 388.621,-64.7024
 L 388.963,-64.4804 L 389.364,-64.1563 L 389.728,-63.7921 L 390.052,-63.3919 L 390.332,-62.96 L 390.566,-62.5011
 L 390.751,-62.0204 L 390.884,-61.5229 L 390.964,-61.0143 L 390.991,-60.5 L 390.964,-59.9857 L 390.884,-59.4771
 L 390.751,-58.9796 L 390.566,-58.4989 L 390.332,-58.04 L 390.052,-57.6081 L 389.728,-57.2079 L 389.364,-56.8437
 L 388.963,-56.5196 L 388.531,-56.2392 L 388.073,-56.0054 L 387.592,-55.8208 L 387.094,-55.6875 L 386.586,-55.607
 L 386.071,-55.58 z
M 574.843,-55.607 L 574.334,-55.6875 L 573.837,-55.8208 L 573.356,-56.0054 L 572.897,-56.2392 L 572.465,-56.5196
 L 572.065,-56.8437 L 571.701,-57.2079 L 571.377,-57.6081 L 571.096,-58.04 L 570.863,-58.4989 L 570.678,-58.9796
 L 570.545,-59.4771 L 570.464,-59.9857 L 570.437,-60.5 L 570.464,-61.0143 L 570.545,-61.5229 L 570.678,-62.0204
 L 570.863,-62.5011 L 571.096,-62.96 L 571.377,-63.3919 L 571.701,-63.7921 L 572.065,-64.1563 L 572.465,-64.4804
 L 572.807,-64.7024 L 572.807,-74 L 572.863,-74.5302 L 573.028,-75.0372 L 573.294,-75.4988 L 573.651,-75.895
 L 574.082,-76.2084 L 574.569,-76.4252 L 575.091,-76.536 L 575.624,-76.536 L 576.145,-76.4252 L 576.632,-76.2084
 L 577.063,-75.895 L 577.42,-75.4988 L 577.687,-75.0372 L 577.851,-74.5302 L 577.907,-74 L 577.907,-64.7024
 L 578.249,-64.4804 L 578.649,-64.1563 L 579.013,-63.7921 L 579.337,-63.3919 L 579.618,-62.96 L 579.852,-62.5011
 L 580.036,-62.0204 L 580.17,-61.5229 L 580.25,-61.0143 L 580.277,-60.5 L 580.25,-59.9857 L 580.17,-59.4771
 L 580.036,-58.9796 L 579.852,-58.4989 L 579.618,-58.04 L 579.337,-57.6081 L 579.013,-57.2079 L 578.649,-56.8437
 L 578.249,-56.5196 L 577.817,-56.2392 L 577.358,-56.0054 L 576.877,-55.8208 L 576.38,-55.6875 L 575.871,-55.607
 L 575.357,-55.58 z
M 764.129,-55.607 L 763.62,-55.6875 L 763.122,-55.8208 L 762.642,-56.0054 L 762.183,-56.2392 L 761.751,-56.5196
 L 761.351,-56.8437 L 760.987,-57.2079 L 760.662,-57.6081 L 760.382,-58.04 L 760.148,-58.4989 L 759.964,-58.9796
 L 759.83,-59.4771 L 759.75,-59.9857 L 759.723,-60.5 L 759.75,-61.0143 L 759.83,-61.5229 L 759.964,-62.0204
 L 760.148,-62.5011 L 760.382,-62.96 L 760.662,-63.3919 L 760.987,-63.7921 L 761.351,-64.1563 L 761.751,-64.4804
 L 762.093,-64.7024 L 762.093,-74 L 762.149,-74.5302 L 762.313,-75.0372 L 762.58,-75.4988 L 762.937,-75.895
 L 763.368,-76.2084 L 763.855,-76.4252 L 764.376,-76.536 L 764.909,-76.536 L 765.431,-76.4252 L 765.918,-76.2084
 L 766.349,-75.895 L 766.706,-75.4988 L 766.972,-75.0372 L 767.137,-74.5302 L 767.193,-74 L 767.193,-64.7024
 L 767.535,-64.4804 L 767.935,-64.1563 L 768.299,-63.7921 L 768.623,-63.3919 L 768.904,-62.96 L 769.137,-62.5011
 L 769.322,-62.0204 L 769.455,-61.5229 L 769.536,-61.0143 L 769.563,-60.5 L 769.536,-59.9857 L 769.455,-59.4771
 L 769.322,-58.9796 L 769.137,-58.4989 L 768.904,-58.04 L 768.623,-57.6081 L 768.299,-57.2079 L 767.935,-56.8437
 L 767.535,-56.5196 L 767.103,-56.2392 L 766.644,-56.0054 L 766.163,-55.8208 L 765.666,-55.6875 L 765.157,-55.607
 L 764.643,-55.58 z
M 953.414,-55.607 L 952.906,-55.6875 L 952.408,-55.8208 L 951.927,-56.0054 L 951.469,-56.2392 L 951.037,-56.5196
 L 950.636,-56.8437 L 950.272,-57.2079 L 949.948,-57.6081 L 949.668,-58.04 L 949.434,-58.4989 L 949.249,-58.9796
 L 949.116,-59.4771 L 949.036,-59.9857 L 949.009,-60.5 L 949.036,-61.0143 L 949.116,-61.5229 L 949.249,-62.0204
 L 949.434,-62.5011 L 949.668,-62.96 L 949.948,-63.3919 L 950.272,-63.7921 L 950.636,-64.1563 L 951.037,-64.4804
 L 951.379,-64.7024 L 951.379,-74 L 951.434,-74.5302 L 951.599,-75.0372 L 951.866,-75.4988 L 952.222,-75.895
 L 952.654,-76.2084 L 953.141,-76.4252 L 953.662,-76.536 L 954.195,-76.536 L 954.717,-76.4252 L 955.204,-76.2084
 L 955.635,-75.895 L 955.992,-75.4988 L 956.258,-75.0372 L 956.423,-74.5302 L 956.479,-74 L 956.479,-64.7024
 L 956.82,-64.4804 L 957.221,-64.1563 L 957.585,-63.7921 L 957.909,-63.3919 L 958.189,-62.96 L 958.423,-62.5011
 L 958.608,-62.0204 L 958.741,-61.5229 L 958.822,-61.0143 L 958.849,-60.5 L 958.822,-59.9857 L 958.741,-59.4771
 L 958.608,-58.9796 L 958.423,-58.4989 L 958.189,-58.04 L 957.909,-57.6081 L 957.585,-57.2079 L 957.221,-56.8437
 L 956.82,-56.5196 L 956.389,-56.2392 L 955.93,-56.0054 L 955.449,-55.8208 L 954.951,-55.6875 L 954.443,-55.607
 L 953.929,-55.58 z
M 1142.7,-55.607 L 1142.19,-55.6875 L 1141.69,-55.8208 L 1141.21,-56.0054 L 1140.75,-56.2392 L 1140.32,-56.5196
 L 1139.92,-56.8437 L 1139.56,-57.2079 L 1139.23,-57.6081 L 1138.95,-58.04 L 1138.72,-58.4989 L 1138.54,-58.9796
 L 1138.4,-59.4771 L 1138.32,-59.9857 L 1138.29,-60.5 L 1138.32,-61.0143 L 1138.4,-61.5229 L 1138.54,-62.0204
 L 1138.72,-62.5011 L 1138.95,-62.96 L 1139.23,-63.3919 L 1139.56,-63.7921 L 1139.92,-64.1563 L 1140.32,-64.4804
 L 1140.66,-64.7024 L 1140.66,-74 L 1140.72,-74.5302 L 1140.88,-75.0372 L 1141.15,-75.4988 L 1141.51,-75.895
 L 1141.94,-76.2084 L 1142.43,-76.4252 L 1142.95,-76.536 L 1143.48,-76.536 L 1144,-76.4252 L 1144.49,-76.2084
 L 1144.92,-75.895 L 1145.28,-75.4988 L 1145.54,-75.0372 L 1145.71,-74.5302 L 1145.76,-74 L 1145.76,-64.7024
 L 1146.11,-64.4804 L 1146.51,-64.1563 L 1146.87,-63.7921 L 1147.19,-63.3919 L 1147.48,-62.96 L 1147.71,-62.5011
 L 1147.89,-62.0204 L 1148.03,-61.5229 L 1148.11,-61.0143 L 1148.13,-60.5 L 1148.11,-59.9857 L 1148.03,-59.4771
 L 1147.89,-58.9796 L 1147.71,-58.4989 L 1147.48,-58.04 L 1147.19,-57.6081 L 1146.87,-57.2079 L 1146.51,-56.8437
 L 1146.11,-56.5196 L 1145.67,-56.2392 L 1145.22,-56.0054 L 1144.73,-55.8208 L 1144.24,-55.6875 L 1143.73,-55.607
 L 1143.21,-55.58 z
M 1331.99,-55.607 L 1331.48,-55.6875 L 1330.98,-55.8208 L 1330.5,-56.0054 L 1330.04,-56.2392 L 1329.61,-56.5196
 L 1329.21,-56.8437 L 1328.84,-57.2079 L 1328.52,-57.6081 L 1328.24,-58.04 L 1328.01,-58.4989 L 1327.82,-58.9796
 L 1327.69,-59.4771 L 1327.61,-59.9857 L 1327.58,-60.5 L 1327.61,-61.0143 L 1327.69,-61.5229 L 1327.82,-62.0204
 L 1328.01,-62.5011 L 1328.24,-62.96 L 1328.52,-63.3919 L 1328.84,-63.7921 L 1329.21,-64.1563 L 1329.61,-64.4804
 L 1329.95,-64.7024 L 1329.95,-74 L 1330.01,-74.5302 L 1330.17,-75.0372 L 1330.44,-75.4988 L 1330.79,-75.895
 L 1331.23,-76.2084 L 1331.71,-76.4252 L 1332.23,-76.536 L 1332.77,-76.536 L 1333.29,-76.4252 L 1333.77,-76.2084
 L 1334.21,-75.895 L 1334.56,-75.4988 L 1334.83,-75.0372 L 1334.99,-74.5302 L 1335.05,-74 L 1335.05,-64.7024
 L 1335.39,-64.4804 L 1335.79,-64.1563 L 1336.16,-63.7921 L 1336.48,-63.3919 L 1336.76,-62.96 L 1336.99,-62.5011
 L 1337.18,-62.0204 L 1337.31,-61.5229 L 1337.39,-61.0143 L 1337.42,-60.5 L 1337.39,-59.9857 L 1337.31,-59.4771
 L 1337.18,-58.9796 L 1336.99,-58.4989 L 1336.76,-58.04 L 1336.48,-57.6081 L 1336.16,-57.2079 L 1335.79,-56.8437
 L 1335.39,-56.5196 L 1334.96,-56.2392 L 1334.5,-56.0054 L 1334.02,-55.8208 L 1333.52,-55.6875 L 1333.01,-55.607
 L 1332.5,-55.58 z
M 776.524,-20.6367 L 775.75,-20.9532 L 775.059,-21.4237 L 774.481,-22.0276 L 774.04,-22.7386 L 773.758,-23.5256
 L 773.643,-24.4771 L 773.643,-58 L 773.73,-58.8316 L 773.989,-59.627 L 774.407,-60.3511 L 774.966,-60.9726
 L 775.643,-61.4641 L 776.407,-61.8042 L 777.643,-62 L 870.958,-62 L 871.789,-61.9126 L 872.585,-61.6542
 L 873.309,-61.2361 L 873.93,-60.6765 L 874.422,-60 L 874.762,-59.2361 L 874.936,-58.4181 L 874.936,-57.5819
 L 874.762,-56.7639 L 874.422,-56 L 873.93,-55.3235 L 873.309,-54.7639 L 872.31,-54.2355 L 778.995,-20.7126
 L 778.183,-20.5137 L 777.347,-20.488 z
M 669.46,-47.7194 L 668.648,-47.9183 L 651.063,-54.2355 L 650.064,-54.7639 L 649.443,-55.3235 L 648.951,-56
 L 648.611,-56.7639 L 648.437,-57.5819 L 648.437,-58.4181 L 648.611,-59.2361 L 648.951,-60 L 649.443,-60.6765
 L 650.064,-61.2361 L 650.788,-61.6542 L 651.584,-61.9126 L 652.415,-62 L 687.585,-62 L 688.703,-61.8404
 L 689.477,-61.5239 L 690.169,-61.0534 L 690.747,-60.4494 L 691.187,-59.7384 L 691.47,-58.9515 L 691.583,-58.1229
 L 691.521,-57.289 L 691.287,-56.4861 L 690.892,-55.7494 L 690.351,-55.1111 L 689.69,-54.599 L 688.937,-54.2355
 L 671.352,-47.9183 L 670.296,-47.6937 z
M 561.817,-20.5137 L 561.005,-20.7126 L 467.69,-54.2355 L 466.691,-54.7639 L 466.07,-55.3235 L 465.578,-56
 L 465.238,-56.7639 L 465.064,-57.5819 L 465.064,-58.4181 L 465.238,-59.2361 L 465.578,-60 L 466.07,-60.6765
 L 466.691,-61.2361 L 467.415,-61.6542 L 468.211,-61.9126 L 469.042,-62 L 562.357,-62 L 563.593,-61.8042
 L 564.357,-61.4641 L 565.034,-60.9726 L 565.593,-60.3511 L 566.011,-59.627 L 566.27,-58.8316 L 566.357,-58
 L 566.357,-24.4771 L 566.242,-23.5256 L 565.96,-22.7386 L 565.519,-22.0276 L 564.941,-21.4237 L 564.25,-20.9532
 L 563.476,-20.6367 L 562.653,-20.488 z
M 372.531,-20.5137 L 371.719,-20.7126 L 278.404,-54.2355 L 277.405,-54.7639 L 276.784,-55.3235 L 276.292,-56
 L 275.952,-56.7639 L 275.778,-57.5819 L 275.778,-58.4181 L 275.952,-59.2361 L 276.292,-60 L 276.784,-60.6765
 L 277.405,-61.2361 L 278.13,-61.6542 L 278.925,-61.9126 L 279.757,-62 L 373.071,-62 L 374.307,-61.8042
 L 375.071,-61.4641 L 375.748,-60.9726 L 376.307,-60.3511 L 376.726,-59.627 L 376.984,-58.8316 L 377.071,-58
 L 377.071,-24.4771 L 376.957,-23.5256 L 376.674,-22.7386 L 376.234,-22.0276 L 375.655,-21.4237 L 374.964,-20.9532
 L 374.19,-20.6367 L 373.367,-20.488 z
M 1155.1,-20.6367 L 1154.32,-20.9532 L 1153.63,-21.4237 L 1153.05,-22.0276 L 1152.61,-22.7386 L 1152.33,-23.5256
 L 1152.21,-24.4771 L 1152.21,-58 L 1152.3,-58.8316 L 1152.56,-59.627 L 1152.98,-60.3511 L 1153.54,-60.9726
 L 1154.21,-61.4641 L 1154.98,-61.8042 L 1156.21,-62 L 1249.53,-62 L 1250.36,-61.9126 L 1251.16,-61.6542
 L 1251.88,-61.2361 L 1252.5,-60.6765 L 1252.99,-60 L 1253.33,-59.2361 L 1253.51,-58.4181 L 1253.51,-57.5819
 L 1253.33,-56.7639 L 1252.99,-56 L 1252.5,-55.3235 L 1251.88,-54.7639 L 1250.88,-54.2355 L 1157.57,-20.7126
 L 1156.75,-20.5137 L 1155.92,-20.488 z
M 183.246,-20.5137 L 182.433,-20.7126 L 89.1185,-54.2355 L 88.1197,-54.7639 L 87.4983,-55.3235 L 87.0068,-56
 L 86.6666,-56.7639 L 86.4928,-57.5819 L 86.4928,-58.4181 L 86.6666,-59.2361 L 87.0068,-60 L 87.4983,-60.6765
 L 88.1197,-61.2361 L 88.8439,-61.6542 L 89.6392,-61.9126 L 90.4709,-62 L 183.786,-62 L 185.022,-61.8042
 L 185.786,-61.4641 L 186.462,-60.9726 L 187.022,-60.3511 L 187.44,-59.627 L 187.698,-58.8316 L 187.786,-58
 L 187.786,-24.4771 L 187.671,-23.5256 L 187.388,-22.7386 L 186.948,-22.0276 L 186.37,-21.4237 L 185.678,-20.9532
 L 184.904,-20.6367 L 184.081,-20.488 z
M 965.81,-20.6367 L 965.036,-20.9532 L 964.345,-21.4237 L 963.766,-22.0276 L 963.326,-22.7386 L 963.043,-23.5256
 L 962.929,-24.4771 L 962.929,-58 L 963.016,-58.8316 L 963.274,-59.627 L 963.693,-60.3511 L 964.252,-60.9726
 L 964.929,-61.4641 L 965.693,-61.8042 L 966.929,-62 L 1060.24,-62 L 1061.08,-61.9126 L 1061.87,-61.6542
 L 1062.59,-61.2361 L 1063.22,-60.6765 L 1063.71,-60 L 1064.05,-59.2361 L 1064.22,-58.4181 L 1064.22,-57.5819
 L 1064.05,-56.7639 L 1063.71,-56 L 1063.22,-55.3235 L 1062.59,-54.7639 L 1061.6,-54.2355 L 968.281,-20.7126
 L 967.469,-20.5137 L 966.633,-20.488 z
M 587.939,-18.3749 L 587.121,-18.5487 L 586.357,-18.8889 L 585.681,-19.3804 L 585.121,-20.0018 L 584.703,-20.726
 L 584.445,-21.5213 L 584.357,-22.353 L 584.357,-57.647 L 584.472,-58.5985 L 584.755,-59.3855 L 585.195,-60.0965
 L 585.773,-60.7005 L 586.465,-61.171 L 587.239,-61.4875 L 588.061,-61.6361 L 588.897,-61.6104 L 589.709,-61.4115
 L 638.832,-43.7645 L 639.372,-43.5239 L 640.064,-43.0534 L 640.642,-42.4494 L 641.082,-41.7384 L 641.365,-40.9515
 L 641.478,-40.1229 L 641.416,-39.289 L 641.182,-38.4861 L 640.786,-37.7494 L 640.246,-37.1111 L 639.585,-36.599
 L 638.832,-36.2355 L 589.709,-18.5885 L 588.775,-18.3749 z
M 751.103,-18.3896 L 750.29,-18.5885 L 701.168,-36.2355 L 700.628,-36.4761 L 699.936,-36.9466 L 699.358,-37.5506
 L 698.918,-38.2616 L 698.635,-39.0485 L 698.522,-39.8771 L 698.584,-40.711 L 698.818,-41.5139 L 699.213,-42.2506
 L 699.754,-42.8889 L 700.415,-43.401 L 701.168,-43.7645 L 750.29,-61.4115 L 751.225,-61.6252 L 752.061,-61.6252
 L 752.879,-61.4513 L 753.643,-61.1112 L 754.319,-60.6196 L 754.879,-59.9982 L 755.297,-59.274 L 755.555,-58.4787
 L 755.643,-57.6471 L 755.643,-22.3529 L 755.528,-21.4015 L 755.245,-20.6145 L 754.805,-19.9035 L 754.227,-19.2995
 L 753.535,-18.829 L 752.761,-18.5125 L 751.939,-18.3639 z
M 209.786,-18 L 208.55,-18.1958 L 207.786,-18.5359 L 207.109,-19.0274 L 206.55,-19.6489 L 206.132,-20.373
 L 205.873,-21.1684 L 205.786,-22 L 205.786,-55.5229 L 205.901,-56.4744 L 206.183,-57.2614 L 206.623,-57.9724
 L 207.202,-58.5763 L 207.893,-59.0468 L 208.667,-59.3633 L 209.49,-59.512 L 210.326,-59.4863 L 211.138,-59.2874
 L 304.453,-25.7645 L 305.452,-25.2361 L 306.073,-24.6765 L 306.565,-24 L 306.905,-23.2361 L 307.079,-22.4181
 L 307.079,-21.5819 L 306.905,-20.7639 L 306.565,-20 L 306.073,-19.3235 L 305.452,-18.7639 L 304.727,-18.3458
 L 303.932,-18.0874 L 303.101,-18 z
M 399.071,-18 L 397.835,-18.1958 L 397.071,-18.5359 L 396.395,-19.0274 L 395.835,-19.6489 L 395.417,-20.373
 L 395.159,-21.1684 L 395.071,-22 L 395.071,-55.5229 L 395.186,-56.4744 L 395.469,-57.2614 L 395.909,-57.9724
 L 396.487,-58.5763 L 397.179,-59.0468 L 397.953,-59.3633 L 398.776,-59.512 L 399.612,-59.4863 L 400.424,-59.2874
 L 493.739,-25.7645 L 494.737,-25.2361 L 495.359,-24.6765 L 495.85,-24 L 496.19,-23.2361 L 496.364,-22.4181
 L 496.364,-21.5819 L 496.19,-20.7639 L 495.85,-20 L 495.359,-19.3235 L 494.737,-18.7639 L 494.013,-18.3458
 L 493.218,-18.0874 L 492.386,-18 z
M 847.614,-18 L 846.782,-18.0874 L 845.987,-18.3458 L 845.263,-18.7639 L 844.641,-19.3235 L 844.15,-20
 L 843.809,-20.7639 L 843.636,-21.5819 L 843.636,-22.4181 L 843.809,-23.2361 L 844.15,-24 L 844.641,-24.6765
 L 845.263,-25.2361 L 846.261,-25.7645 L 939.576,-59.2874 L 940.388,-59.4863 L 941.224,-59.512 L 942.047,-59.3633
 L 942.821,-59.0468 L 943.512,-58.5763 L 944.091,-57.9724 L 944.531,-57.2614 L 944.814,-56.4744 L 944.929,-55.5229
 L 944.929,-22 L 944.841,-21.1684 L 944.583,-20.373 L 944.165,-19.6489 L 943.605,-19.0274 L 942.929,-18.5359
 L 942.165,-18.1958 L 940.929,-18 z
M 1036.9,-18 L 1036.07,-18.0874 L 1035.27,-18.3458 L 1034.55,-18.7639 L 1033.93,-19.3235 L 1033.44,-20
 L 1033.1,-20.7639 L 1032.92,-21.5819 L 1032.92,-22.4181 L 1033.1,-23.2361 L 1033.44,-24 L 1033.93,-24.6765
 L 1034.55,-25.2361 L 1035.55,-25.7645 L 1128.86,-59.2874 L 1129.67,-59.4863 L 1130.51,-59.512 L 1131.33,-59.3633
 L 1132.11,-59.0468 L 1132.8,-58.5763 L 1133.38,-57.9724 L 1133.82,-57.2614 L 1134.1,-56.4744 L 1134.21,-55.5229
 L 1134.21,-22 L 1134.13,-21.1684 L 1133.87,-20.373 L 1133.45,-19.6489 L 1132.89,-19.0274 L 1132.21,-18.5359
 L 1131.45,-18.1958 L 1130.21,-18 z
M 22,-18 L 20.7639,-18.1958 L 20,-18.5359 L 19.3235,-19.0274 L 18.7639,-19.6489 L 18.3458,-20.373
 L 18.0874,-21.1684 L 18,-22 L 18,-54.984 L 18.1148,-55.9355 L 18.3975,-56.7225 L 18.8377,-57.4335
 L 19.4161,-58.0374 L 20.1074,-58.5079 L 20.8814,-58.8244 L 21.7043,-58.9731 L 22.5401,-58.9474 L 23.3524,-58.7485
 L 115.167,-25.7645 L 116.166,-25.2361 L 116.787,-24.6765 L 117.279,-24 L 117.619,-23.2361 L 117.793,-22.4181
 L 117.793,-21.5819 L 117.619,-20.7639 L 117.279,-20 L 116.787,-19.3235 L 116.166,-18.7639 L 115.442,-18.3458
 L 114.646,-18.0874 L 113.815,-18 z
M 1226.19,-18 L 1225.35,-18.0874 L 1224.56,-18.3458 L 1223.83,-18.7639 L 1223.21,-19.3235 L 1222.72,-20
 L 1222.38,-20.7639 L 1222.21,-21.5819 L 1222.21,-22.4181 L 1222.38,-23.2361 L 1222.72,-24 L 1223.21,-24.6765
 L 1223.83,-25.2361 L 1224.83,-25.7645 L 1316.65,-58.7485 L 1317.46,-58.9474 L 1318.3,-58.9731 L 1319.12,-58.8244
 L 1319.89,-58.5079 L 1320.58,-58.0374 L 1321.16,-57.4335 L 1321.6,-56.7225 L 1321.89,-55.9355 L 1322,-54.984
 L 1322,-22 L 1321.91,-21.1684 L 1321.65,-20.373 L 1321.24,-19.6489 L 1320.68,-19.0274 L 1320,-18.5359
 L 1319.24,-18.1958 L 1318,-18 z
M 652.415,-18 L 651.297,-18.1596 L 650.523,-18.4761 L 649.831,-18.9466 L 649.253,-19.5506 L 648.813,-20.2616
 L 648.53,-21.0485 L 648.417,-21.8771 L 648.479,-22.711 L 648.713,-23.5139 L 649.108,-24.2506 L 649.649,-24.8889
 L 650.31,-25.401 L 651.063,-25.7645 L 668.648,-32.0817 L 669.704,-32.3063 L 670.54,-32.2806 L 671.352,-32.0817
 L 688.937,-25.7645 L 689.936,-25.2361 L 690.557,-24.6765 L 691.049,-24 L 691.389,-23.2361 L 691.563,-22.4181
 L 691.563,-21.5819 L 691.389,-20.7639 L 691.049,-20 L 690.557,-19.3235 L 689.936,-18.7639 L 689.212,-18.3458
 L 688.416,-18.0874 L 687.585,-18 z
" stroke="black" fill="lightgray" stroke-width="0.5"/>
</svg>
