<?xml version="1.0" standalone="no"?>
<!DOCTYPE svg PUBLIC "-//W3C//DTD SVG 1.1//EN" "http://www.w3.org/Graphics/SVG/1.1/DTD/svg11.dtd">
<svg width="1069mm" height="80mm" viewBox="0 -80 1069 80" xmlns="http://www.w3.org/2000/svg" version="1.1">
<title>OpenSCAD Model</title>
<path d="
M 1069,-80 L 0,-80 L 0,-0 L 4.95,-0 L 4.95,-6 L 5.00572,-6.53017
 L 5.17046,-7.03717 L 5.437,-7.49884 L 5.79372,-7.895 L 6.22499,-8.20836 L 6.71201,-8.42519 L 7.23344,-8.53603
 L 7.76654,-8.53603 L 8.28798,-8.42519 L 8.77499,-8.20836 L 9.20627,-7.895 L 9.56299,-7.49884 L 9.82953,-7.03717
 L 9.99426,-6.53017 L 10.05,-6 L 10.05,-0 L 180.617,-0 L 180.617,-6 L 180.672,-6.53017
 L 180.837,-7.03717 L 181.104,-7.49884 L 181.46,-7.895 L 181.892,-8.20836 L 182.379,-8.42519 L 182.9,-8.53603
 L 183.433,-8.53603 L 183.955,-8.42519 L 184.442,-8.20836 L 184.873,-7.895 L 185.23,-7.49884 L 185.496,-7.03717
 L 185.661,-6.53017 L 185.717,-6 L 185.717,-0 L 356.283,-0 L 356.283,-6 L 356.339,-6.53017
 L 356.504,-7.03717 L 356.77,-7.49884 L 357.127,-7.895 L 357.558,-8.20836 L 358.045,-8.42519 L 358.567,-8.53603
 L 359.1,-8.53603 L 359.621,-8.42519 L 360.108,-8.20836 L 360.54,-7.895 L 360.896,-7.49884 L 361.163,-7.03717
 L 361.328,-6.53017 L 361.383,-6 L 361.383,-0 L 531.95,-0 L 531.95,-6 L 532.006,-6.53017
 L 532.17,-7.03717 L 532.437,-7.49884 L 532.794,-7.895 L 533.225,-8.20836 L 533.712,-8.42519 L 534.233,-8.53603
 L 534.767,-8.53603 L 535.288,-8.42519 L 535.775,-8.20836 L 536.206,-7.895 L 536.563,-7.49884 L 536.83,-7.03717
 L 536.994,-6.53017 L 537.05,-6 L 537.05,-0 L 707.617,-0 L 707.617,-6 L 707.672,-6.53017
 L 707.837,-7.03717 L 708.104,-7.49884 L 708.46,-7.895 L 708.892,-8.20836 L 709.379,-8.42519 L 709.9,-8.53603
 L 710.433,-8.53603 L 710.955,-8.42519 L 711.442,-8.20836 L 711.873,-7.895 L 712.23,-7.49884 L 712.496,-7.03717
 L 712.661,-6.53017 L 712.717,-6 L 712.717,-0 L 883.283,-0 L 883.283,-6 L 883.339,-6.53017
 L 883.504,-7.03717 L 883.77,-7.49884 L 884.127,-7.895 L 884.558,-8.20836 L 885.045,-8.42519 L 885.567,-8.53603
 L 886.1,-8.53603 L 886.621,-8.42519 L 887.108,-8.20836 L 887.54,-7.895 L 887.896,-7.49884 L 888.163,-7.03717
 L 888.328,-6.53017 L 888.383,-6 L 888.383,-0 L 1058.95,-0 L 1058.95,-6 L 1059.01,-6.53017
 L 1059.17,-7.03717 L 1059.44,-7.49884 L 1059.79,-7.895 L 1060.22,-8.20836 L 1060.71,-8.42519 L 1061.23,-8.53603
 L 1061.77,-8.53603 L 1062.29,-8.42519 L 1062.77,-8.20836 L 1063.21,-7.895 L 1063.56,-7.49884 L 1063.83,-7.03717
 L 1063.99,-6.53017 L 1064.05,-6 L 1064.05,-0 L 1069,-0 z
M 6.98573,-55.607 L 6.47708,-55.6875 L 5.97964,-55.8208 L 5.49887,-56.0054 L 5.04001,-56.2392 L 4.60811,-56.5196
 L 4.20789,-56.8437 L 3.84373,-57.2079 L 3.51964,-57.6081 L 3.23917,-58.04 L 3.00537,-58.4989 L 2.82082,-58.9796
 L 2.68752,-59.4771 L 2.60696,-59.9857 L 2.58,-60.5 L 2.60696,-61.0143 L 2.68752,-61.5229 L 2.82082,-62.0204
 L 3.00537,-62.5011 L 3.23917,-62.96 L 3.51964,-63.3919 L 3.84373,-63.7921 L 4.20789,-64.1563 L 4.60811,-64.4804
 L 4.95001,-64.7024 L 4.95001,-74 L 5.00574,-74.5302 L 5.17047,-75.0372 L 5.43701,-75.4988 L 5.79373,-75.895
 L 6.22501,-76.2084 L 6.71202,-76.4252 L 7.23346,-76.536 L 7.76654,-76.536 L 8.28798,-76.4252 L 8.77499,-76.2084
 L 9.20627,-75.895 L 9.56299,-75.4988 L 9.82953,-75.0372 L 9.99426,-74.5302 L 10.05,-74 L 10.05,-64.7024
 L 10.3919,-64.4804 L 10.7921,-64.1563 L 11.1563,-63.7921 L 11.4804,-63.3919 L 11.7608,-62.96 L 11.9946,-62.5011
 L 12.1792,-62.0204 L 12.3125,-61.5229 L 12.393,-61.0143 L 12.42,-60.5 L 12.393,-59.9857 L 12.3125,-59.4771
 L 12.1792,-58.9796 L 11.9946,-58.4989 L 11.7608,-58.04 L 11.4804,-57.6081 L 11.1563,-57.2079 L 10.7921,-56.8437
 L 10.3919,-56.5196 L 9.95999,-56.2392 L 9.50113,-56.0054 L 9.02036,-55.8208 L 8.52292,-55.6875 L 8.01427,-55.607
 L 7.5,-55.58 z
M 182.652,-55.607 L 182.144,-55.6875 L 181.646,-55.8208 L 181.166,-56.0054 L 180.707,-56.2392 L 180.275,-56.5196
 L 179.875,-56.8437 L 179.51,-57.2079 L 179.186,-57.6081 L 178.906,-58.04 L 178.672,-58.4989 L 178.487,-58.9796
 L 178.354,-59.4771 L 178.274,-59.9857 L 178.247,-60.5 L 178.274,-61.0143 L 178.354,-61.5229 L 178.487,-62.0204
 L 178.672,-62.5011 L 178.906,-62.96 L 179.186,-63.3919 L 179.51,-63.7921 L 179.875,-64.1563 L 180.275,-64.4804
 L 180.617,-64.7024 L 180.617,-74 L 180.672,-74.5302 L 180.837,-75.0372 L 181.104,-75.4988 L 181.46,-75.895
 L 181.892,-76.2084 L 182.379,-76.4252 L 182.9,-76.536 L 183.433,-76.536 L 183.955,-76.4252 L 184.442,-76.2084
 L 184.873,-75.895 L 185.23,-75.4988 L 185.496,-75.0372 L 185.661,-74.5302 L 185.717,-74 L 185.717,-64.7024
 L 186.059,-64.4804 L 186.459,-64.1563 L 186.823,-63.7921 L 187.147,-63.3919 L 187.427,-62.96 L 187.661,-62.5011
 L 187.846,-62.0204 L 187.979,-61.5229 L 188.06,-61.0143 L 188.087,-60.5 L 188.06,-59.9857 L 187.979,-59.4771
 L 187.846,-58.9796 L 187.661,-58.4989 L 187.427,-58.04 L 187.147,-57.6081 L 186.823,-57.2079 L 186.459,-56.8437
 L 186.059,-56.5196 L 185.627,-56.2392 L 185.168,-56.0054 L 184.687,-55.8208 L 184.19,-55.6875 L 183.681,-55.607
 L 183.167,-55.58 z
M 358.319,-55.607 L 357.81,-55.6875 L 357.313,-55.8208 L 356.832,-56.0054 L 356.373,-56.2392 L 355.941,-56.5196
 L 355.541,-56.8437 L 355.177,-57.2079 L 354.853,-57.6081 L 354.572,-58.04 L 354.339,-58.4989 L 354.154,-58.9796
 L 354.021,-59.4771 L 353.94,-59.9857 L 353.913,-60.5 L 353.94,-61.0143 L 354.021,-61.5229 L 354.154,-62.0204
 L 354.339,-62.5011 L 354.572,-62.96 L 354.853,-63.3919 L 355.177,-63.7921 L 355.541,-64.1563 L 355.941,-64.4804
 L 356.283,-64.7024 L 356.283,-74 L 356.339,-74.5302 L 356.504,-75.0372 L 356.77,-75.4988 L 357.127,-75.895
 L 357.558,-76.2084 L 358.045,-76.4252 L 358.567,-76.536 L 359.1,-76.536 L 359.621,-76.4252 L 360.108,-76.2084
 L 360.54,-75.895 L 360.896,-75.4988 L 361.163,-75.0372 L 361.328,-74.5302 L 361.383,-74 L 361.383,-64.7024
 L 361.725,-64.4804 L 362.125,-64.1563 L 362.49,-63.7921 L 362.814,-63.3919 L 363.094,-62.96 L 363.328,-62.5011
 L 363.513,-62.0204 L 363.646,-61.5229 L 363.726,-61.0143 L 363.753,-60.5 L 363.726,-59.9857 L 363.646,-59.4771
 L 363.513,-58.9796 L 363.328,-58.4989 L 363.094,-58.04 L 362.814,-57.6081 L 362.49,-57.2079 L 362.125,-56.8437
 L 361.725,-56.5196 L 361.293,-56.2392 L 360.834,-56.0054 L 360.354,-55.8208 L 359.856,-55.6875 L 359.348,-55.607
 L 358.833,-55.58 z
M 533.986,-55.607 L 533.477,-55.6875 L 532.98,-55.8208 L 532.499,-56.0054 L 532.04,-56.2392 L 531.608,-56.5196
 L 531.208,-56.8437 L 530.844,-57.2079 L 530.52,-57.6081 L 530.239,-58.04 L 530.005,-58.4989 L 529.821,-58.9796
 L 529.688,-59.4771 L 529.607,-59.9857 L 529.58,-60.5 L 529.607,-61.0143 L 529.688,-61.5229 L 529.821,-62.0204
 L 530.005,-62.5011 L 530.239,-62.96 L 530.52,-63.3919 L 530.844,-63.7921 L 531.208,-64.1563 L 531.608,-64.4804
 L 531.95,-64.7024 L 531.95,-74 L 532.006,-74.5302 L 532.17,-75.0372 L 532.437,-75.4988 L 532.794,-75.895
 L 533.225,-76.2084 L 533.712,-76.4252 L 534.233,-76.536 L 534.767,-76.536 L 535.288,-76.4252 L 535.775,-76.2084
 L 536.206,-75.895 L 536.563,-75.4988 L 536.83,-75.0372 L 536.994,-74.5302 L 537.05,-74 L 537.05,-64.7024
 L 537.392,-64.4804 L 537.792,-64.1563 L 538.156,-63.7921 L 538.48,-63.3919 L 538.761,-62.96 L 538.995,-62.5011
 L 539.179,-62.0204 L 539.312,-61.5229 L 539.393,-61.0143 L 539.42,-60.5 L 539.393,-59.9857 L 539.312,-59.4771
 L 539.179,-58.9796 L 538.995,-58.4989 L 538.761,-58.04 L 538.48,-57.6081 L 538.156,-57.2079 L 537.792,-56.8437
 L 537.392,-56.5196 L 536.96,-56.2392 L 536.501,-56.0054 L 536.02,-55.8208 L 535.523,-55.6875 L 535.014,-55.607
 L 534.5,-55.58 z
M 709.652,-55.607 L 709.144,-55.6875 L 708.646,-55.8208 L 708.166,-56.0054 L 707.707,-56.2392 L 707.275,-56.5196
 L 706.875,-56.8437 L 706.51,-57.2079 L 706.186,-57.6081 L 705.906,-58.04 L 705.672,-58.4989 L 705.487,-58.9796
 L 705.354,-59.4771 L 705.274,-59.9857 L 705.247,-60.5 L 705.274,-61.0143 L 705.354,-61.5229 L 705.487,-62.0204
 L 705.672,-62.5011 L 705.906,-62.96 L 706.186,-63.3919 L 706.51,-63.7921 L 706.875,-64.1563 L 707.275,-64.4804
 L 707.617,-64.7024 L 707.617,-74 L 707.672,-74.5302 L 707.837,-75.0372 L 708.104,-75.4988 L 708.46,-75.895
 L 708.892,-76.2084 L 709.379,-76.4252 L 709.9,-76.536 L 710.433,-76.536 L 710.955,-76.4252 L 711.442,-76.2084
 L 711.873,-75.895 L 712.23,-75.4988 L 712.496,-75.0372 L 712.661,-74.5302 L 712.717,-74 L 712.717,-64.7024
 L 713.059,-64.4804 L 713.459,-64.1563 L 713.823,-63.7921 L 714.147,-63.3919 L 714.427,-62.96 L 714.661,-62.5011
 L 714.846,-62.0204 L 714.979,-61.5229 L 715.06,-61.0143 L 715.087,-60.5 L 715.06,-59.9857 L 714.979,-59.4771
 L 714.846,-58.9796 L 714.661,-58.4989 L 714.427,-58.04 L 714.147,-57.6081 L 713.823,-57.2079 L 713.459,-56.8437
 L 713.059,-56.5196 L 712.627,-56.2392 L 712.168,-56.0054 L 711.687,-55.8208 L 711.19,-55.6875 L 710.681,-55.607
 L 710.167,-55.58 z
M 885.319,-55.607 L 884.81,-55.6875 L 884.313,-55.8208 L 883.832,-56.0054 L 883.373,-56.2392 L 882.941,-56.5196
 L 882.541,-56.8437 L 882.177,-57.2079 L 881.853,-57.6081 L 881.572,-58.04 L 881.339,-58.4989 L 881.154,-58.9796
 L 881.021,-59.4771 L 880.94,-59.9857 L 880.913,-60.5 L 880.94,-61.0143 L 881.021,-61.5229 L 881.154,-62.0204
 L 881.339,-62.5011 L 881.572,-62.96 L 881.853,-63.3919 L 882.177,-63.7921 L 882.541,-64.1563 L 882.941,-64.4804
 L 883.283,-64.7024 L 883.283,-74 L 883.339,-74.5302 L 883.504,-75.0372 L 883.77,-75.4988 L 884.127,-75.895
 L 884.558,-76.2084 L 885.045,-76.4252 L 885.567,-76.536 L 886.1,-76.536 L 886.621,-76.4252 L 887.108,-76.2084
 L 887.54,-75.895 L 887.896,-75.4988 L 888.163,-75.0372 L 888.328,-74.5302 L 888.383,-74 L 888.383,-64.7024
 L 888.725,-64.4804 L 889.125,-64.1563 L 889.49,-63.7921 L 889.814,-63.3919 L 890.094,-62.96 L 890.328,-62.5011
 L 890.513,-62.0204 L 890.646,-61.5229 L 890.726,-61.0143 L 890.753,-60.5 L 890.726,-59.9857 L 890.646,-59.4771
 L 890.513,-58.9796 L 890.328,-58.4989 L 890.094,-58.04 L 889.814,-57.6081 L 889.49,-57.2079 L 889.125,-56.8437
 L 888.725,-56.5196 L 888.293,-56.2392 L 887.834,-56.0054 L 887.354,-55.8208 L 886.856,-55.6875 L 886.348,-55.607
 L 885.833,-55.58 z
M 1060.99,-55.607 L 1060.48,-55.6875 L 1059.98,-55.8208 L 1059.5,-56.0054 L 1059.04,-56.2392 L 1058.61,-56.5196
 L 1058.21,-56.8437 L 1057.84,-57.2079 L 1057.52,-57.6081 L 1057.24,-58.04 L 1057.01,-58.4989 L 1056.82,-58.9796
 L 1056.69,-59.4771 L 1056.61,-59.9857 L 1056.58,-60.5 L 1056.61,-61.0143 L 1056.69,-61.5229 L 1056.82,-62.0204
 L 1057.01,-62.5011 L 1057.24,-62.96 L 1057.52,-63.3919 L 1057.84,-63.7921 L 1058.21,-64.1563 L 1058.61,-64.4804
 L 1058.95,-64.7024 L 1058.95,-74 L 1059.01,-74.5302 L 1059.17,-75.0372 L 1059.44,-75.4988 L 1059.79,-75.895
 L 1060.23,-76.2084 L 1060.71,-76.4252 L 1061.23,-76.536 L 1061.77,-76.536 L 1062.29,-76.4252 L 1062.77,-76.2084
 L 1063.21,-75.895 L 1063.56,-75.4988 L 1063.83,-75.0372 L 1063.99,-74.5302 L 1064.05,-74 L 1064.05,-64.7024
 L 1064.39,-64.4804 L 1064.79,-64.1563 L 1065.16,-63.7921 L 1065.48,-63.3919 L 1065.76,-62.96 L 1065.99,-62.5011
 L 1066.18,-62.0204 L 1066.31,-61.5229 L 1066.39,-61.0143 L 1066.42,-60.5 L 1066.39,-59.9857 L 1066.31,-59.4771
 L 1066.18,-58.9796 L 1065.99,-58.4989 L 1065.76,-58.04 L 1065.48,-57.6081 L 1065.16,-57.2079 L 1064.79,-56.8437
 L 1064.39,-56.5196 L 1063.96,-56.2392 L 1063.5,-56.0054 L 1063.02,-55.8208 L 1062.52,-55.6875 L 1062.01,-55.607
 L 1061.5,-55.58 z
M 897.809,-21.0885 L 897.027,-21.386 L 896.325,-21.8395 L 895.732,-22.4291 L 895.274,-23.1292 L 894.973,-23.909
 L 894.833,-24.9552 L 894.833,-58 L 894.921,-58.8316 L 895.179,-59.627 L 895.597,-60.3511 L 896.157,-60.9726
 L 896.833,-61.4641 L 897.597,-61.8042 L 898.833,-62 L 984.199,-62 L 985.031,-61.9126 L 985.826,-61.6542
 L 986.55,-61.2361 L 987.172,-60.6765 L 987.663,-60 L 988.003,-59.2361 L 988.177,-58.4181 L 988.177,-57.5819
 L 988.003,-56.7639 L 987.663,-56 L 987.172,-55.3235 L 986.55,-54.7639 L 985.643,-54.2697 L 900.277,-21.2249
 L 899.47,-21.0062 L 898.635,-20.9601 z
M 345.196,-21.0062 L 344.389,-21.2249 L 259.023,-54.2697 L 258.116,-54.7639 L 257.495,-55.3235 L 257.003,-56
 L 256.663,-56.7639 L 256.489,-57.5819 L 256.489,-58.4181 L 256.663,-59.2361 L 257.003,-60 L 257.495,-60.6765
 L 258.116,-61.2361 L 258.84,-61.6542 L 259.636,-61.9126 L 260.467,-62 L 345.833,-62 L 347.069,-61.8042
 L 347.833,-61.4641 L 348.51,-60.9726 L 349.069,-60.3511 L 349.487,-59.627 L 349.746,-58.8316 L 349.833,-58
 L 349.833,-24.9552 L 349.694,-23.909 L 349.392,-23.1292 L 348.935,-22.4291 L 348.342,-21.8395 L 347.639,-21.386
 L 346.858,-21.0885 L 346.031,-20.9601 z
M 169.53,-21.0062 L 168.723,-21.2249 L 83.3568,-54.2697 L 82.4496,-54.7639 L 81.8282,-55.3235 L 81.3367,-56
 L 80.9966,-56.7639 L 80.8227,-57.5819 L 80.8227,-58.4181 L 80.9966,-59.2361 L 81.3367,-60 L 81.8282,-60.6765
 L 82.4496,-61.2361 L 83.1738,-61.6542 L 83.9691,-61.9126 L 84.8008,-62 L 170.167,-62 L 171.403,-61.8042
 L 172.167,-61.4641 L 172.843,-60.9726 L 173.403,-60.3511 L 173.821,-59.627 L 174.079,-58.8316 L 174.167,-58
 L 174.167,-24.9552 L 174.027,-23.909 L 173.726,-23.1292 L 173.268,-22.4291 L 172.675,-21.8395 L 171.973,-21.386
 L 171.191,-21.0885 L 170.365,-20.9601 z
M 520.863,-21.0062 L 520.056,-21.2249 L 434.69,-54.2697 L 433.783,-54.7639 L 433.162,-55.3235 L 432.67,-56
 L 432.33,-56.7639 L 432.156,-57.5819 L 432.156,-58.4181 L 432.33,-59.2361 L 432.67,-60 L 433.162,-60.6765
 L 433.783,-61.2361 L 434.507,-61.6542 L 435.302,-61.9126 L 436.134,-62 L 521.5,-62 L 522.736,-61.8042
 L 523.5,-61.4641 L 524.177,-60.9726 L 524.736,-60.3511 L 525.154,-59.627 L 525.413,-58.8316 L 525.5,-58
 L 525.5,-24.9552 L 525.361,-23.909 L 525.059,-23.1292 L 524.601,-22.4291 L 524.009,-21.8395 L 523.306,-21.386
 L 522.524,-21.0885 L 521.698,-20.9601 z
M 546.476,-21.0885 L 545.694,-21.386 L 544.991,-21.8395 L 544.399,-22.4291 L 543.941,-23.1292 L 543.639,-23.909
 L 543.5,-24.9552 L 543.5,-58 L 543.587,-58.8316 L 543.846,-59.627 L 544.264,-60.3511 L 544.823,-60.9726
 L 545.5,-61.4641 L 546.264,-61.8042 L 547.5,-62 L 632.866,-62 L 633.698,-61.9126 L 634.493,-61.6542
 L 635.217,-61.2361 L 635.838,-60.6765 L 636.33,-60 L 636.67,-59.2361 L 636.844,-58.4181 L 636.844,-57.5819
 L 636.67,-56.7639 L 636.33,-56 L 635.838,-55.3235 L 635.217,-54.7639 L 634.31,-54.2697 L 548.944,-21.2249
 L 548.137,-21.0062 L 547.302,-20.9601 z
M 722.142,-21.0885 L 721.361,-21.386 L 720.658,-21.8395 L 720.065,-22.4291 L 719.608,-23.1292 L 719.306,-23.909
 L 719.167,-24.9552 L 719.167,-58 L 719.254,-58.8316 L 719.512,-59.627 L 719.931,-60.3511 L 720.49,-60.9726
 L 721.167,-61.4641 L 721.931,-61.8042 L 723.167,-62 L 808.533,-62 L 809.364,-61.9126 L 810.16,-61.6542
 L 810.884,-61.2361 L 811.505,-60.6765 L 811.997,-60 L 812.337,-59.2361 L 812.511,-58.4181 L 812.511,-57.5819
 L 812.337,-56.7639 L 811.997,-56 L 811.505,-55.3235 L 810.884,-54.7639 L 809.977,-54.2697 L 724.611,-21.2249
 L 723.804,-21.0062 L 722.969,-20.9601 z
M 196.167,-18 L 194.931,-18.1958 L 194.167,-18.5359 L 193.49,-19.0274 L 192.931,-19.6489 L 192.512,-20.373
 L 192.254,-21.1684 L 192.167,-22 L 192.167,-55.0448 L 192.306,-56.091 L 192.608,-56.8708 L 193.065,-57.5709
 L 193.658,-58.1605 L 194.361,-58.614 L 195.142,-58.9115 L 195.969,-59.0399 L 196.804,-58.9938 L 197.611,-58.7751
 L 282.976,-25.7303 L 283.884,-25.2361 L 284.505,-24.6765 L 284.997,-24 L 285.337,-23.2361 L 285.511,-22.4181
 L 285.511,-21.5819 L 285.337,-20.7639 L 284.997,-20 L 284.505,-19.3235 L 283.884,-18.7639 L 283.159,-18.3458
 L 282.364,-18.0874 L 281.533,-18 z
M 371.833,-18 L 370.597,-18.1958 L 369.833,-18.5359 L 369.157,-19.0274 L 368.597,-19.6489 L 368.179,-20.373
 L 367.921,-21.1684 L 367.833,-22 L 367.833,-55.0448 L 367.973,-56.091 L 368.274,-56.8708 L 368.732,-57.5709
 L 369.325,-58.1605 L 370.027,-58.614 L 370.809,-58.9115 L 371.635,-59.0399 L 372.47,-58.9938 L 373.277,-58.7751
 L 458.643,-25.7303 L 459.55,-25.2361 L 460.172,-24.6765 L 460.663,-24 L 461.003,-23.2361 L 461.177,-22.4181
 L 461.177,-21.5819 L 461.003,-20.7639 L 460.663,-20 L 460.172,-19.3235 L 459.55,-18.7639 L 458.826,-18.3458
 L 458.031,-18.0874 L 457.199,-18 z
M 611.801,-18 L 610.969,-18.0874 L 610.174,-18.3458 L 609.45,-18.7639 L 608.828,-19.3235 L 608.337,-20
 L 607.997,-20.7639 L 607.823,-21.5819 L 607.823,-22.4181 L 607.997,-23.2361 L 608.337,-24 L 608.828,-24.6765
 L 609.45,-25.2361 L 610.357,-25.7303 L 695.723,-58.7751 L 696.53,-58.9938 L 697.365,-59.0399 L 698.191,-58.9115
 L 698.973,-58.614 L 699.675,-58.1605 L 700.268,-57.5709 L 700.726,-56.8708 L 701.027,-56.091 L 701.167,-55.0448
 L 701.167,-22 L 701.079,-21.1684 L 700.821,-20.373 L 700.403,-19.6489 L 699.843,-19.0274 L 699.167,-18.5359
 L 698.403,-18.1958 L 697.167,-18 z
M 787.467,-18 L 786.636,-18.0874 L 785.841,-18.3458 L 785.116,-18.7639 L 784.495,-19.3235 L 784.003,-20
 L 783.663,-20.7639 L 783.489,-21.5819 L 783.489,-22.4181 L 783.663,-23.2361 L 784.003,-24 L 784.495,-24.6765
 L 785.116,-25.2361 L 786.023,-25.7303 L 871.389,-58.7751 L 872.196,-58.9938 L 873.031,-59.0399 L 873.858,-58.9115
 L 874.639,-58.614 L 875.342,-58.1605 L 875.935,-57.5709 L 876.392,-56.8708 L 876.694,-56.091 L 876.833,-55.0448
 L 876.833,-22 L 876.746,-21.1684 L 876.488,-20.373 L 876.069,-19.6489 L 875.51,-19.0274 L 874.833,-18.5359
 L 874.069,-18.1958 L 872.833,-18 z
M 963.134,-18 L 962.302,-18.0874 L 961.507,-18.3458 L 960.783,-18.7639 L 960.162,-19.3235 L 959.67,-20
 L 959.33,-20.7639 L 959.156,-21.5819 L 959.156,-22.4181 L 959.33,-23.2361 L 959.67,-24 L 960.162,-24.6765
 L 960.783,-25.2361 L 961.69,-25.7303 L 1045.56,-58.1945 L 1046.36,-58.4132 L 1047.2,-58.4593 L 1048.02,-58.3308
 L 1048.81,-58.0333 L 1049.51,-57.5799 L 1050.1,-56.9902 L 1050.56,-56.2902 L 1050.86,-55.5103 L 1051,-54.4642
 L 1051,-22 L 1050.91,-21.1684 L 1050.65,-20.373 L 1050.24,-19.6489 L 1049.68,-19.0274 L 1049,-18.5359
 L 1048.24,-18.1958 L 1047,-18 z
M 22,-18 L 20.7639,-18.1958 L 20,-18.5359 L 19.3235,-19.0274 L 18.7639,-19.6489 L 18.3458,-20.373
 L 18.0874,-21.1684 L 18,-22 L 18,-54.4642 L 18.1392,-55.5103 L 18.4411,-56.2902 L 18.8985,-56.9902
 L 19.4915,-57.5799 L 20.1941,-58.0333 L 20.9756,-58.3308 L 21.8019,-58.4593 L 22.6369,-58.4132 L 23.444,-58.1945
 L 107.31,-25.7303 L 108.217,-25.2361 L 108.838,-24.6765 L 109.33,-24 L 109.67,-23.2361 L 109.844,-22.4181
 L 109.844,-21.5819 L 109.67,-20.7639 L 109.33,-20 L 108.838,-19.3235 L 108.217,-18.7639 L 107.493,-18.3458
 L 106.698,-18.0874 L 105.866,-18 z
" stroke="black" fill="lightgray" stroke-width="0.5"/>
</svg>
