<?xml version="1.0" standalone="no"?>
<!DOCTYPE svg PUBLIC "-//W3C//DTD SVG 1.1//EN" "http://www.w3.org/Graphics/SVG/1.1/DTD/svg11.dtd">
<svg width="1634mm" height="80mm" viewBox="0 -80 1634 80" xmlns="http://www.w3.org/2000/svg" version="1.1">
<title>OpenSCAD Model</title>
<path d="
M 1634,-80 L 0,-80 L 0,-0 L 4.95,-0 L 4.95,-6 L 5.00572,-6.53017
 L 5.17046,-7.03717 L 5.437,-7.49884 L 5.79372,-7.895 L 6.22499,-8.20836 L 6.71201,-8.42519 L 7.23344,-8.53603
 L 7.76654,-8.53603 L 8.28798,-8.42519 L 8.77499,-8.20836 L 9.20627,-7.895 L 9.56299,-7.49884 L 9.82953,-7.03717
 L 9.99426,-6.53017 L 10.05,-6 L 10.05,-0 L 184.839,-0 L 184.839,-6 L 184.895,-6.53017
 L 185.059,-7.03717 L 185.326,-7.49884 L 185.683,-7.895 L 186.114,-8.20836 L 186.601,-8.42519 L 187.122,-8.53603
 L 187.655,-8.53603 L 188.177,-8.42519 L 188.664,-8.20836 L 189.095,-7.895 L 189.452,-7.49884 L 189.718,-7.03717
 L 189.883,-6.53017 L 189.939,-6 L 189.939,-0 L 364.728,-0 L 364.728,-6 L 364.783,-6.53017
 L 364.948,-7.03717 L 365.215,-7.49884 L 365.571,-7.895 L 366.003,-8.20836 L 366.49,-8.42519 L 367.011,-8.53603
 L 367.544,-8.53603 L 368.066,-8.42519 L 368.553,-8.20836 L 368.984,-7.895 L 369.341,-7.49884 L 369.607,-7.03717
 L 369.772,-6.53017 L 369.828,-6 L 369.828,-0 L 544.617,-0 L 544.617,-6 L 544.672,-6.53017
 L 544.837,-7.03717 L 545.104,-7.49884 L 545.46,-7.895 L 545.892,-8.20836 L 546.379,-8.42519 L 546.9,-8.53603
 L 547.433,-8.53603 L 547.955,-8.42519 L 548.442,-8.20836 L 548.873,-7.895 L 549.23,-7.49884 L 549.496,-7.03717
 L 549.661,-6.53017 L 549.717,-6 L 549.717,-0 L 724.506,-0 L 724.506,-6 L 724.561,-6.53017
 L 724.726,-7.03717 L 724.993,-7.49884 L 725.349,-7.895 L 725.781,-8.20836 L 726.268,-8.42519 L 726.789,-8.53603
 L 727.322,-8.53603 L 727.844,-8.42519 L 728.331,-8.20836 L 728.762,-7.895 L 729.119,-7.49884 L 729.385,-7.03717
 L 729.55,-6.53017 L 729.606,-6 L 729.606,-0 L 904.394,-0 L 904.394,-6 L 904.45,-6.53017
 L 904.615,-7.03717 L 904.881,-7.49884 L 905.238,-7.895 L 905.669,-8.20836 L 906.156,-8.42519 L 906.678,-8.53603
 L 907.211,-8.53603 L 907.732,-8.42519 L 908.219,-8.20836 L 908.651,-7.895 L 909.007,-7.49884 L 909.274,-7.03717
 L 909.439,-6.53017 L 909.494,-6 L 909.494,-0 L 1084.28,-0 L 1084.28,-6 L 1084.34,-6.53017
 L 1084.5,-7.03717 L 1084.77,-7.49884 L 1085.13,-7.895 L 1085.56,-8.20836 L 1086.05,-8.42519 L 1086.57,-8.53603
 L 1087.1,-8.53603 L 1087.62,-8.42519 L 1088.11,-8.20836 L 1088.54,-7.895 L 1088.9,-7.49884 L 1089.16,-7.03717
 L 1089.33,-6.53017 L 1089.38,-6 L 1089.38,-0 L 1264.17,-0 L 1264.17,-6 L 1264.23,-6.53017
 L 1264.39,-7.03717 L 1264.66,-7.49884 L 1265.02,-7.895 L 1265.45,-8.20836 L 1265.93,-8.42519 L 1266.46,-8.53603
 L 1266.99,-8.53603 L 1267.51,-8.42519 L 1268,-8.20836 L 1268.43,-7.895 L 1268.79,-7.49884 L 1269.05,-7.03717
 L 1269.22,-6.53017 L 1269.27,-6 L 1269.27,-0 L 1444.06,-0 L 1444.06,-6 L 1444.12,-6.53017
 L 1444.28,-7.03717 L 1444.55,-7.49884 L 1444.9,-7.895 L 1445.34,-8.20836 L 1445.82,-8.42519 L 1446.34,-8.53603
 L 1446.88,-8.53603 L 1447.4,-8.42519 L 1447.89,-8.20836 L 1448.32,-7.895 L 1448.67,-7.49884 L 1448.94,-7.03717
 L 1449.11,-6.53017 L 1449.16,-6 L 1449.16,-0 L 1623.95,-0 L 1623.95,-6 L 1624.01,-6.53017
 L 1624.17,-7.03717 L 1624.44,-7.49884 L 1624.79,-7.895 L 1625.22,-8.20836 L 1625.71,-8.42519 L 1626.23,-8.53603
 L 1626.77,-8.53603 L 1627.29,-8.42519 L 1627.77,-8.20836 L 1628.21,-7.895 L 1628.56,-7.49884 L 1628.83,-7.03717
 L 1628.99,-6.53017 L 1629.05,-6 L 1629.05,-0 L 1634,-0 z
M 6.98573,-55.607 L 6.47708,-55.6875 L 5.97964,-55.8208 L 5.49887,-56.0054 L 5.04001,-56.2392 L 4.60811,-56.5196
 L 4.20789,-56.8437 L 3.84373,-57.2079 L 3.51964,-57.6081 L 3.23917,-58.04 L 3.00537,-58.4989 L 2.82082,-58.9796
 L 2.68752,-59.4771 L 2.60696,-59.9857 L 2.58,-60.5 L 2.60696,-61.0143 L 2.68752,-61.5229 L 2.82082,-62.0204
 L 3.00537,-62.5011 L 3.23917,-62.96 L 3.51964,-63.3919 L 3.84373,-63.7921 L 4.20789,-64.1563 L 4.60811,-64.4804
 L 4.95001,-64.7024 L 4.95001,-74 L 5.00574,-74.5302 L 5.17047,-75.0372 L 5.43701,-75.4988 L 5.79373,-75.895
 L 6.22501,-76.2084 L 6.71202,-76.4252 L 7.23346,-76.536 L 7.76654,-76.536 L 8.28798,-76.4252 L 8.77499,-76.2084
 L 9.20627,-75.895 L 9.56299,-75.4988 L 9.82953,-75.0372 L 9.99426,-74.5302 L 10.05,-74 L 10.05,-64.7024
 L 10.3919,-64.4804 L 10.7921,-64.1563 L 11.1563,-63.7921 L 11.4804,-63.3919 L 11.7608,-62.96 L 11.9946,-62.5011
 L 12.1792,-62.0204 L 12.3125,-61.5229 L 12.393,-61.0143 L 12.42,-60.5 L 12.393,-59.9857 L 12.3125,-59.4771
 L 12.1792,-58.9796 L 11.9946,-58.4989 L 11.7608,-58.04 L 11.4804,-57.6081 L 11.1563,-57.2079 L 10.7921,-56.8437
 L 10.3919,-56.5196 L 9.95999,-56.2392 L 9.50113,-56.0054 L 9.02036,-55.8208 L 8.52292,-55.6875 L 8.01427,-55.607
 L 7.5,-55.58 z
M 1086.32,-55.607 L 1085.81,-55.6875 L 1085.31,-55.8208 L 1084.83,-56.0054 L 1084.37,-56.2392 L 1083.94,-56.5196
 L 1083.54,-56.8437 L 1083.18,-57.2079 L 1082.85,-57.6081 L 1082.57,-58.04 L 1082.34,-58.4989 L 1082.15,-58.9796
 L 1082.02,-59.4771 L 1081.94,-59.9857 L 1081.91,-60.5 L 1081.94,-61.0143 L 1082.02,-61.5229 L 1082.15,-62.0204
 L 1082.34,-62.5011 L 1082.57,-62.96 L 1082.85,-63.3919 L 1083.18,-63.7921 L 1083.54,-64.1563 L 1083.94,-64.4804
 L 1084.28,-64.7024 L 1084.28,-74 L 1084.34,-74.5302 L 1084.5,-75.0372 L 1084.77,-75.4988 L 1085.13,-75.895
 L 1085.56,-76.2084 L 1086.05,-76.4252 L 1086.57,-76.536 L 1087.1,-76.536 L 1087.62,-76.4252 L 1088.11,-76.2084
 L 1088.54,-75.895 L 1088.9,-75.4988 L 1089.16,-75.0372 L 1089.33,-74.5302 L 1089.38,-74 L 1089.38,-64.7024
 L 1089.73,-64.4804 L 1090.13,-64.1563 L 1090.49,-63.7921 L 1090.81,-63.3919 L 1091.09,-62.96 L 1091.33,-62.5011
 L 1091.51,-62.0204 L 1091.65,-61.5229 L 1091.73,-61.0143 L 1091.75,-60.5 L 1091.73,-59.9857 L 1091.65,-59.4771
 L 1091.51,-58.9796 L 1091.33,-58.4989 L 1091.09,-58.04 L 1090.81,-57.6081 L 1090.49,-57.2079 L 1090.13,-56.8437
 L 1089.73,-56.5196 L 1089.29,-56.2392 L 1088.83,-56.0054 L 1088.35,-55.8208 L 1087.86,-55.6875 L 1087.35,-55.607
 L 1086.83,-55.58 z
M 1266.21,-55.607 L 1265.7,-55.6875 L 1265.2,-55.8208 L 1264.72,-56.0054 L 1264.26,-56.2392 L 1263.83,-56.5196
 L 1263.43,-56.8437 L 1263.07,-57.2079 L 1262.74,-57.6081 L 1262.46,-58.04 L 1262.23,-58.4989 L 1262.04,-58.9796
 L 1261.91,-59.4771 L 1261.83,-59.9857 L 1261.8,-60.5 L 1261.83,-61.0143 L 1261.91,-61.5229 L 1262.04,-62.0204
 L 1262.23,-62.5011 L 1262.46,-62.96 L 1262.74,-63.3919 L 1263.07,-63.7921 L 1263.43,-64.1563 L 1263.83,-64.4804
 L 1264.17,-64.7024 L 1264.17,-74 L 1264.23,-74.5302 L 1264.39,-75.0372 L 1264.66,-75.4988 L 1265.02,-75.895
 L 1265.45,-76.2084 L 1265.93,-76.4252 L 1266.46,-76.536 L 1266.99,-76.536 L 1267.51,-76.4252 L 1268,-76.2084
 L 1268.43,-75.895 L 1268.79,-75.4988 L 1269.05,-75.0372 L 1269.22,-74.5302 L 1269.27,-74 L 1269.27,-64.7024
 L 1269.61,-64.4804 L 1270.01,-64.1563 L 1270.38,-63.7921 L 1270.7,-63.3919 L 1270.98,-62.96 L 1271.22,-62.5011
 L 1271.4,-62.0204 L 1271.53,-61.5229 L 1271.62,-61.0143 L 1271.64,-60.5 L 1271.62,-59.9857 L 1271.53,-59.4771
 L 1271.4,-58.9796 L 1271.22,-58.4989 L 1270.98,-58.04 L 1270.7,-57.6081 L 1270.38,-57.2079 L 1270.01,-56.8437
 L 1269.61,-56.5196 L 1269.18,-56.2392 L 1268.72,-56.0054 L 1268.24,-55.8208 L 1267.75,-55.6875 L 1267.24,-55.607
 L 1266.72,-55.58 z
M 906.43,-55.607 L 905.922,-55.6875 L 905.424,-55.8208 L 904.943,-56.0054 L 904.484,-56.2392 L 904.053,-56.5196
 L 903.652,-56.8437 L 903.288,-57.2079 L 902.964,-57.6081 L 902.684,-58.04 L 902.45,-58.4989 L 902.265,-58.9796
 L 902.132,-59.4771 L 902.051,-59.9857 L 902.024,-60.5 L 902.051,-61.0143 L 902.132,-61.5229 L 902.265,-62.0204
 L 902.45,-62.5011 L 902.684,-62.96 L 902.964,-63.3919 L 903.288,-63.7921 L 903.652,-64.1563 L 904.053,-64.4804
 L 904.394,-64.7024 L 904.394,-74 L 904.45,-74.5302 L 904.615,-75.0372 L 904.881,-75.4988 L 905.238,-75.895
 L 905.669,-76.2084 L 906.156,-76.4252 L 906.678,-76.536 L 907.211,-76.536 L 907.732,-76.4252 L 908.219,-76.2084
 L 908.651,-75.895 L 909.007,-75.4988 L 909.274,-75.0372 L 909.439,-74.5302 L 909.494,-74 L 909.494,-64.7024
 L 909.836,-64.4804 L 910.237,-64.1563 L 910.601,-63.7921 L 910.925,-63.3919 L 911.205,-62.96 L 911.439,-62.5011
 L 911.624,-62.0204 L 911.757,-61.5229 L 911.837,-61.0143 L 911.864,-60.5 L 911.837,-59.9857 L 911.757,-59.4771
 L 911.624,-58.9796 L 911.439,-58.4989 L 911.205,-58.04 L 910.925,-57.6081 L 910.601,-57.2079 L 910.237,-56.8437
 L 909.836,-56.5196 L 909.404,-56.2392 L 908.946,-56.0054 L 908.465,-55.8208 L 907.967,-55.6875 L 907.459,-55.607
 L 906.944,-55.58 z
M 726.541,-55.607 L 726.033,-55.6875 L 725.535,-55.8208 L 725.054,-56.0054 L 724.596,-56.2392 L 724.164,-56.5196
 L 723.763,-56.8437 L 723.399,-57.2079 L 723.075,-57.6081 L 722.795,-58.04 L 722.561,-58.4989 L 722.376,-58.9796
 L 722.243,-59.4771 L 722.163,-59.9857 L 722.136,-60.5 L 722.163,-61.0143 L 722.243,-61.5229 L 722.376,-62.0204
 L 722.561,-62.5011 L 722.795,-62.96 L 723.075,-63.3919 L 723.399,-63.7921 L 723.763,-64.1563 L 724.164,-64.4804
 L 724.506,-64.7024 L 724.506,-74 L 724.561,-74.5302 L 724.726,-75.0372 L 724.993,-75.4988 L 725.349,-75.895
 L 725.781,-76.2084 L 726.268,-76.4252 L 726.789,-76.536 L 727.322,-76.536 L 727.844,-76.4252 L 728.331,-76.2084
 L 728.762,-75.895 L 729.119,-75.4988 L 729.385,-75.0372 L 729.55,-74.5302 L 729.606,-74 L 729.606,-64.7024
 L 729.947,-64.4804 L 730.348,-64.1563 L 730.712,-63.7921 L 731.036,-63.3919 L 731.316,-62.96 L 731.55,-62.5011
 L 731.735,-62.0204 L 731.868,-61.5229 L 731.949,-61.0143 L 731.976,-60.5 L 731.949,-59.9857 L 731.868,-59.4771
 L 731.735,-58.9796 L 731.55,-58.4989 L 731.316,-58.04 L 731.036,-57.6081 L 730.712,-57.2079 L 730.348,-56.8437
 L 729.947,-56.5196 L 729.516,-56.2392 L 729.057,-56.0054 L 728.576,-55.8208 L 728.078,-55.6875 L 727.57,-55.607
 L 727.056,-55.58 z
M 1446.1,-55.607 L 1445.59,-55.6875 L 1445.09,-55.8208 L 1444.61,-56.0054 L 1444.15,-56.2392 L 1443.72,-56.5196
 L 1443.32,-56.8437 L 1442.95,-57.2079 L 1442.63,-57.6081 L 1442.35,-58.04 L 1442.12,-58.4989 L 1441.93,-58.9796
 L 1441.8,-59.4771 L 1441.72,-59.9857 L 1441.69,-60.5 L 1441.72,-61.0143 L 1441.8,-61.5229 L 1441.93,-62.0204
 L 1442.12,-62.5011 L 1442.35,-62.96 L 1442.63,-63.3919 L 1442.95,-63.7921 L 1443.32,-64.1563 L 1443.72,-64.4804
 L 1444.06,-64.7024 L 1444.06,-74 L 1444.12,-74.5302 L 1444.28,-75.0372 L 1444.55,-75.4988 L 1444.9,-75.895
 L 1445.34,-76.2084 L 1445.82,-76.4252 L 1446.34,-76.536 L 1446.88,-76.536 L 1447.4,-76.4252 L 1447.89,-76.2084
 L 1448.32,-75.895 L 1448.67,-75.4988 L 1448.94,-75.0372 L 1449.11,-74.5302 L 1449.16,-74 L 1449.16,-64.7024
 L 1449.5,-64.4804 L 1449.9,-64.1563 L 1450.27,-63.7921 L 1450.59,-63.3919 L 1450.87,-62.96 L 1451.11,-62.5011
 L 1451.29,-62.0204 L 1451.42,-61.5229 L 1451.5,-61.0143 L 1451.53,-60.5 L 1451.5,-59.9857 L 1451.42,-59.4771
 L 1451.29,-58.9796 L 1451.11,-58.4989 L 1450.87,-58.04 L 1450.59,-57.6081 L 1450.27,-57.2079 L 1449.9,-56.8437
 L 1449.5,-56.5196 L 1449.07,-56.2392 L 1448.61,-56.0054 L 1448.13,-55.8208 L 1447.63,-55.6875 L 1447.13,-55.607
 L 1446.61,-55.58 z
M 546.652,-55.607 L 546.144,-55.6875 L 545.646,-55.8208 L 545.166,-56.0054 L 544.707,-56.2392 L 544.275,-56.5196
 L 543.875,-56.8437 L 543.51,-57.2079 L 543.186,-57.6081 L 542.906,-58.04 L 542.672,-58.4989 L 542.487,-58.9796
 L 542.354,-59.4771 L 542.274,-59.9857 L 542.247,-60.5 L 542.274,-61.0143 L 542.354,-61.5229 L 542.487,-62.0204
 L 542.672,-62.5011 L 542.906,-62.96 L 543.186,-63.3919 L 543.51,-63.7921 L 543.875,-64.1563 L 544.275,-64.4804
 L 544.617,-64.7024 L 544.617,-74 L 544.672,-74.5302 L 544.837,-75.0372 L 545.104,-75.4988 L 545.46,-75.895
 L 545.892,-76.2084 L 546.379,-76.4252 L 546.9,-76.536 L 547.433,-76.536 L 547.955,-76.4252 L 548.442,-76.2084
 L 548.873,-75.895 L 549.23,-75.4988 L 549.496,-75.0372 L 549.661,-74.5302 L 549.717,-74 L 549.717,-64.7024
 L 550.059,-64.4804 L 550.459,-64.1563 L 550.823,-63.7921 L 551.147,-63.3919 L 551.427,-62.96 L 551.661,-62.5011
 L 551.846,-62.0204 L 551.979,-61.5229 L 552.06,-61.0143 L 552.087,-60.5 L 552.06,-59.9857 L 551.979,-59.4771
 L 551.846,-58.9796 L 551.661,-58.4989 L 551.427,-58.04 L 551.147,-57.6081 L 550.823,-57.2079 L 550.459,-56.8437
 L 550.059,-56.5196 L 549.627,-56.2392 L 549.168,-56.0054 L 548.687,-55.8208 L 548.19,-55.6875 L 547.681,-55.607
 L 547.167,-55.58 z
M 366.764,-55.607 L 366.255,-55.6875 L 365.757,-55.8208 L 365.277,-56.0054 L 364.818,-56.2392 L 364.386,-56.5196
 L 363.986,-56.8437 L 363.622,-57.2079 L 363.297,-57.6081 L 363.017,-58.04 L 362.783,-58.4989 L 362.599,-58.9796
 L 362.465,-59.4771 L 362.385,-59.9857 L 362.358,-60.5 L 362.385,-61.0143 L 362.465,-61.5229 L 362.599,-62.0204
 L 362.783,-62.5011 L 363.017,-62.96 L 363.297,-63.3919 L 363.622,-63.7921 L 363.986,-64.1563 L 364.386,-64.4804
 L 364.728,-64.7024 L 364.728,-74 L 364.784,-74.5302 L 364.948,-75.0372 L 365.215,-75.4988 L 365.572,-75.895
 L 366.003,-76.2084 L 366.49,-76.4252 L 367.011,-76.536 L 367.544,-76.536 L 368.066,-76.4252 L 368.553,-76.2084
 L 368.984,-75.895 L 369.341,-75.4988 L 369.607,-75.0372 L 369.772,-74.5302 L 369.828,-74 L 369.828,-64.7024
 L 370.17,-64.4804 L 370.57,-64.1563 L 370.934,-63.7921 L 371.258,-63.3919 L 371.539,-62.96 L 371.772,-62.5011
 L 371.957,-62.0204 L 372.09,-61.5229 L 372.171,-61.0143 L 372.198,-60.5 L 372.171,-59.9857 L 372.09,-59.4771
 L 371.957,-58.9796 L 371.772,-58.4989 L 371.539,-58.04 L 371.258,-57.6081 L 370.934,-57.2079 L 370.57,-56.8437
 L 370.17,-56.5196 L 369.738,-56.2392 L 369.279,-56.0054 L 368.798,-55.8208 L 368.301,-55.6875 L 367.792,-55.607
 L 367.278,-55.58 z
M 1625.99,-55.607 L 1625.48,-55.6875 L 1624.98,-55.8208 L 1624.5,-56.0054 L 1624.04,-56.2392 L 1623.61,-56.5196
 L 1623.21,-56.8437 L 1622.84,-57.2079 L 1622.52,-57.6081 L 1622.24,-58.04 L 1622.01,-58.4989 L 1621.82,-58.9796
 L 1621.69,-59.4771 L 1621.61,-59.9857 L 1621.58,-60.5 L 1621.61,-61.0143 L 1621.69,-61.5229 L 1621.82,-62.0204
 L 1622.01,-62.5011 L 1622.24,-62.96 L 1622.52,-63.3919 L 1622.84,-63.7921 L 1623.21,-64.1563 L 1623.61,-64.4804
 L 1623.95,-64.7024 L 1623.95,-74 L 1624.01,-74.5302 L 1624.17,-75.0372 L 1624.44,-75.4988 L 1624.79,-75.895
 L 1625.23,-76.2084 L 1625.71,-76.4252 L 1626.23,-76.536 L 1626.77,-76.536 L 1627.29,-76.4252 L 1627.77,-76.2084
 L 1628.21,-75.895 L 1628.56,-75.4988 L 1628.83,-75.0372 L 1628.99,-74.5302 L 1629.05,-74 L 1629.05,-64.7024
 L 1629.39,-64.4804 L 1629.79,-64.1563 L 1630.16,-63.7921 L 1630.48,-63.3919 L 1630.76,-62.96 L 1630.99,-62.5011
 L 1631.18,-62.0204 L 1631.31,-61.5229 L 1631.39,-61.0143 L 1631.42,-60.5 L 1631.39,-59.9857 L 1631.31,-59.4771
 L 1631.18,-58.9796 L 1630.99,-58.4989 L 1630.76,-58.04 L 1630.48,-57.6081 L 1630.16,-57.2079 L 1629.79,-56.8437
 L 1629.39,-56.5196 L 1628.96,-56.2392 L 1628.5,-56.0054 L 1628.02,-55.8208 L 1627.52,-55.6875 L 1627.01,-55.607
 L 1626.5,-55.58 z
M 186.875,-55.607 L 186.366,-55.6875 L 185.869,-55.8208 L 185.388,-56.0054 L 184.929,-56.2392 L 184.497,-56.5196
 L 184.097,-56.8437 L 183.733,-57.2079 L 183.409,-57.6081 L 183.128,-58.04 L 182.894,-58.4989 L 182.71,-58.9796
 L 182.576,-59.4771 L 182.496,-59.9857 L 182.469,-60.5 L 182.496,-61.0143 L 182.576,-61.5229 L 182.71,-62.0204
 L 182.894,-62.5011 L 183.128,-62.96 L 183.409,-63.3919 L 183.733,-63.7921 L 184.097,-64.1563 L 184.497,-64.4804
 L 184.839,-64.7024 L 184.839,-74 L 184.895,-74.5302 L 185.059,-75.0372 L 185.326,-75.4988 L 185.683,-75.895
 L 186.114,-76.2084 L 186.601,-76.4252 L 187.122,-76.536 L 187.655,-76.536 L 188.177,-76.4252 L 188.664,-76.2084
 L 189.095,-75.895 L 189.452,-75.4988 L 189.718,-75.0372 L 189.883,-74.5302 L 189.939,-74 L 189.939,-64.7024
 L 190.281,-64.4804 L 190.681,-64.1563 L 191.045,-63.7921 L 191.369,-63.3919 L 191.65,-62.96 L 191.884,-62.5011
 L 192.068,-62.0204 L 192.201,-61.5229 L 192.282,-61.0143 L 192.309,-60.5 L 192.282,-59.9857 L 192.201,-59.4771
 L 192.068,-58.9796 L 191.884,-58.4989 L 191.65,-58.04 L 191.369,-57.6081 L 191.045,-57.2079 L 190.681,-56.8437
 L 190.281,-56.5196 L 189.849,-56.2392 L 189.39,-56.0054 L 188.909,-55.8208 L 188.412,-55.6875 L 187.903,-55.607
 L 187.389,-55.58 z
M 1098.78,-20.938 L 1098,-21.2417 L 1097.3,-21.7007 L 1096.71,-22.2951 L 1096.26,-22.9987 L 1095.96,-23.7809
 L 1095.83,-24.7964 L 1095.83,-58 L 1095.92,-58.8316 L 1096.18,-59.627 L 1096.6,-60.3511 L 1097.16,-60.9726
 L 1097.83,-61.4641 L 1098.6,-61.8042 L 1099.83,-62 L 1187.67,-62 L 1188.5,-61.9126 L 1189.3,-61.6542
 L 1190.02,-61.2361 L 1190.64,-60.6765 L 1191.13,-60 L 1191.48,-59.2361 L 1191.65,-58.4181 L 1191.65,-57.5819
 L 1191.48,-56.7639 L 1191.13,-56 L 1190.64,-55.3235 L 1190.02,-54.7639 L 1189.09,-54.2584 L 1101.25,-21.0548
 L 1100.44,-20.8425 L 1099.6,-20.803 z
M 918.889,-20.938 L 918.11,-21.2417 L 917.411,-21.7007 L 916.823,-22.2951 L 916.371,-22.9987 L 916.076,-23.7809
 L 915.944,-24.7964 L 915.944,-58 L 916.032,-58.8316 L 916.29,-59.627 L 916.708,-60.3511 L 917.268,-60.9726
 L 917.944,-61.4641 L 918.708,-61.8042 L 919.944,-62 L 1007.78,-62 L 1008.61,-61.9126 L 1009.41,-61.6542
 L 1010.13,-61.2361 L 1010.75,-60.6765 L 1011.25,-60 L 1011.59,-59.2361 L 1011.76,-58.4181 L 1011.76,-57.5819
 L 1011.59,-56.7639 L 1011.25,-56 L 1010.75,-55.3235 L 1010.13,-54.7639 L 1009.2,-54.2584 L 921.359,-21.0548
 L 920.55,-20.8425 L 919.715,-20.803 z
M 816.394,-47.7926 L 815.586,-48.0049 L 799.043,-54.2584 L 798.106,-54.7639 L 797.484,-55.3235 L 796.993,-56
 L 796.653,-56.7639 L 796.479,-57.5819 L 796.479,-58.4181 L 796.653,-59.2361 L 796.993,-60 L 797.484,-60.6765
 L 798.106,-61.2361 L 798.83,-61.6542 L 799.625,-61.9126 L 800.457,-62 L 833.543,-62 L 834.598,-61.8584
 L 835.377,-61.5547 L 836.076,-61.0957 L 836.664,-60.5014 L 837.116,-59.7977 L 837.412,-59.0155 L 837.539,-58.1889
 L 837.491,-57.3541 L 837.27,-56.5475 L 836.887,-55.8043 L 836.357,-55.1572 L 835.704,-54.6342 L 834.957,-54.2584
 L 818.414,-48.0049 L 817.23,-47.7531 z
M 713.45,-20.8425 L 712.641,-21.0548 L 624.804,-54.2584 L 623.867,-54.7639 L 623.245,-55.3235 L 622.754,-56
 L 622.414,-56.7639 L 622.24,-57.5819 L 622.24,-58.4181 L 622.414,-59.2361 L 622.754,-60 L 623.245,-60.6765
 L 623.867,-61.2361 L 624.591,-61.6542 L 625.386,-61.9126 L 626.218,-62 L 714.056,-62 L 715.292,-61.8042
 L 716.056,-61.4641 L 716.732,-60.9726 L 717.292,-60.3511 L 717.71,-59.627 L 717.968,-58.8316 L 718.056,-58
 L 718.056,-24.7964 L 717.924,-23.7809 L 717.629,-22.9987 L 717.177,-22.2951 L 716.589,-21.7007 L 715.89,-21.2417
 L 715.111,-20.938 L 714.285,-20.803 z
M 533.561,-20.8425 L 532.752,-21.0548 L 444.915,-54.2584 L 443.978,-54.7639 L 443.357,-55.3235 L 442.865,-56
 L 442.525,-56.7639 L 442.351,-57.5819 L 442.351,-58.4181 L 442.525,-59.2361 L 442.865,-60 L 443.357,-60.6765
 L 443.978,-61.2361 L 444.702,-61.6542 L 445.497,-61.9126 L 446.329,-62 L 534.167,-62 L 535.403,-61.8042
 L 536.167,-61.4641 L 536.843,-60.9726 L 537.403,-60.3511 L 537.821,-59.627 L 538.079,-58.8316 L 538.167,-58
 L 538.167,-24.7964 L 538.036,-23.7809 L 537.74,-22.9987 L 537.288,-22.2951 L 536.7,-21.7007 L 536.001,-21.2417
 L 535.222,-20.938 L 534.396,-20.803 z
M 353.672,-20.8425 L 352.863,-21.0548 L 265.026,-54.2584 L 264.089,-54.7639 L 263.468,-55.3235 L 262.976,-56
 L 262.636,-56.7639 L 262.462,-57.5819 L 262.462,-58.4181 L 262.636,-59.2361 L 262.976,-60 L 263.468,-60.6765
 L 264.089,-61.2361 L 264.813,-61.6542 L 265.609,-61.9126 L 266.44,-62 L 354.278,-62 L 355.514,-61.8042
 L 356.278,-61.4641 L 356.954,-60.9726 L 357.514,-60.3511 L 357.932,-59.627 L 358.19,-58.8316 L 358.278,-58
 L 358.278,-24.7964 L 358.147,-23.7809 L 357.851,-22.9987 L 357.399,-22.2951 L 356.811,-21.7007 L 356.112,-21.2417
 L 355.333,-20.938 L 354.508,-20.803 z
M 1458.56,-20.938 L 1457.78,-21.2417 L 1457.08,-21.7007 L 1456.49,-22.2951 L 1456.04,-22.9987 L 1455.74,-23.7809
 L 1455.61,-24.7964 L 1455.61,-58 L 1455.7,-58.8316 L 1455.96,-59.627 L 1456.38,-60.3511 L 1456.93,-60.9726
 L 1457.61,-61.4641 L 1458.38,-61.8042 L 1459.61,-62 L 1547.45,-62 L 1548.28,-61.9126 L 1549.08,-61.6542
 L 1549.8,-61.2361 L 1550.42,-60.6765 L 1550.91,-60 L 1551.25,-59.2361 L 1551.43,-58.4181 L 1551.43,-57.5819
 L 1551.25,-56.7639 L 1550.91,-56 L 1550.42,-55.3235 L 1549.8,-54.7639 L 1548.86,-54.2584 L 1461.03,-21.0548
 L 1460.22,-20.8425 L 1459.38,-20.803 z
M 173.783,-20.8425 L 172.975,-21.0548 L 85.1369,-54.2584 L 84.2002,-54.7639 L 83.5787,-55.3235 L 83.0872,-56
 L 82.7471,-56.7639 L 82.5732,-57.5819 L 82.5732,-58.4181 L 82.7471,-59.2361 L 83.0872,-60 L 83.5787,-60.6765
 L 84.2002,-61.2361 L 84.9244,-61.6542 L 85.7197,-61.9126 L 86.5513,-62 L 174.389,-62 L 175.625,-61.8042
 L 176.389,-61.4641 L 177.065,-60.9726 L 177.625,-60.3511 L 178.043,-59.627 L 178.301,-58.8316 L 178.389,-58
 L 178.389,-24.7964 L 178.258,-23.7809 L 177.962,-22.9987 L 177.51,-22.2951 L 176.922,-21.7007 L 176.223,-21.2417
 L 175.444,-20.938 L 174.619,-20.803 z
M 1278.67,-20.938 L 1277.89,-21.2417 L 1277.19,-21.7007 L 1276.6,-22.2951 L 1276.15,-22.9987 L 1275.85,-23.7809
 L 1275.72,-24.7964 L 1275.72,-58 L 1275.81,-58.8316 L 1276.07,-59.627 L 1276.49,-60.3511 L 1277.05,-60.9726
 L 1277.72,-61.4641 L 1278.49,-61.8042 L 1279.72,-62 L 1367.56,-62 L 1368.39,-61.9126 L 1369.19,-61.6542
 L 1369.91,-61.2361 L 1370.53,-60.6765 L 1371.02,-60 L 1371.36,-59.2361 L 1371.54,-58.4181 L 1371.54,-57.5819
 L 1371.36,-56.7639 L 1371.02,-56 L 1370.53,-55.3235 L 1369.91,-54.7639 L 1368.97,-54.2584 L 1281.14,-21.0548
 L 1280.33,-20.8425 L 1279.49,-20.803 z
M 739.637,-18.6826 L 738.819,-18.8565 L 738.056,-19.1966 L 737.379,-19.6881 L 736.819,-20.3096 L 736.401,-21.0337
 L 736.143,-21.829 L 736.056,-22.6607 L 736.056,-57.3393 L 736.187,-58.3548 L 736.482,-59.137 L 736.934,-59.8407
 L 737.522,-60.435 L 738.221,-60.894 L 739.001,-61.1977 L 739.826,-61.3327 L 740.661,-61.2932 L 741.47,-61.0809
 L 787.34,-43.7416 L 787.76,-43.5547 L 788.459,-43.0957 L 789.047,-42.5014 L 789.499,-41.7977 L 789.794,-41.0155
 L 789.921,-40.1889 L 789.873,-39.3541 L 789.652,-38.5475 L 789.269,-37.8043 L 788.739,-37.1572 L 788.087,-36.6342
 L 787.34,-36.2584 L 741.47,-18.9191 L 740.474,-18.6826 z
M 893.339,-18.7068 L 892.53,-18.9191 L 846.66,-36.2584 L 846.24,-36.4453 L 845.541,-36.9043 L 844.953,-37.4986
 L 844.501,-38.2023 L 844.206,-38.9845 L 844.079,-39.8111 L 844.127,-40.6459 L 844.348,-41.4525 L 844.731,-42.1957
 L 845.261,-42.8428 L 845.913,-43.3658 L 846.66,-43.7416 L 892.53,-61.0809 L 893.526,-61.3174 L 894.363,-61.3174
 L 895.18,-61.1435 L 895.944,-60.8034 L 896.621,-60.3119 L 897.18,-59.6904 L 897.599,-58.9663 L 897.857,-58.171
 L 897.944,-57.3393 L 897.944,-22.6607 L 897.813,-21.6452 L 897.518,-20.863 L 897.066,-20.1593 L 896.478,-19.565
 L 895.779,-19.106 L 894.999,-18.8023 L 894.174,-18.6673 z
M 200.389,-18 L 199.153,-18.1958 L 198.389,-18.5359 L 197.712,-19.0274 L 197.153,-19.6489 L 196.735,-20.373
 L 196.476,-21.1684 L 196.389,-22 L 196.389,-55.2036 L 196.52,-56.2191 L 196.816,-57.0013 L 197.267,-57.7049
 L 197.856,-58.2992 L 198.555,-58.7583 L 199.334,-59.0619 L 200.159,-59.197 L 200.994,-59.1575 L 201.803,-58.9452
 L 289.641,-25.7416 L 290.578,-25.2361 L 291.199,-24.6765 L 291.691,-24 L 292.031,-23.2361 L 292.205,-22.4181
 L 292.205,-21.5819 L 292.031,-20.7639 L 291.691,-20 L 291.199,-19.3235 L 290.578,-18.7639 L 289.853,-18.3458
 L 289.058,-18.0874 L 288.226,-18 z
M 380.278,-18 L 379.042,-18.1958 L 378.278,-18.5359 L 377.601,-19.0274 L 377.042,-19.6489 L 376.624,-20.373
 L 376.365,-21.1684 L 376.278,-22 L 376.278,-55.2036 L 376.409,-56.2191 L 376.705,-57.0013 L 377.156,-57.7049
 L 377.745,-58.2992 L 378.444,-58.7583 L 379.223,-59.0619 L 380.048,-59.197 L 380.883,-59.1575 L 381.692,-58.9452
 L 469.53,-25.7416 L 470.466,-25.2361 L 471.088,-24.6765 L 471.579,-24 L 471.92,-23.2361 L 472.093,-22.4181
 L 472.093,-21.5819 L 471.92,-20.7639 L 471.579,-20 L 471.088,-19.3235 L 470.466,-18.7639 L 469.742,-18.3458
 L 468.947,-18.0874 L 468.115,-18 z
M 560.167,-18 L 558.931,-18.1958 L 558.167,-18.5359 L 557.49,-19.0274 L 556.931,-19.6489 L 556.512,-20.373
 L 556.254,-21.1684 L 556.167,-22 L 556.167,-55.2036 L 556.298,-56.2191 L 556.593,-57.0013 L 557.045,-57.7049
 L 557.634,-58.2992 L 558.333,-58.7583 L 559.112,-59.0619 L 559.937,-59.197 L 560.772,-59.1575 L 561.581,-58.9452
 L 649.419,-25.7416 L 650.355,-25.2361 L 650.977,-24.6765 L 651.468,-24 L 651.808,-23.2361 L 651.982,-22.4181
 L 651.982,-21.5819 L 651.808,-20.7639 L 651.468,-20 L 650.977,-19.3235 L 650.355,-18.7639 L 649.631,-18.3458
 L 648.836,-18.0874 L 648.004,-18 z
M 985.996,-18 L 985.164,-18.0874 L 984.369,-18.3458 L 983.645,-18.7639 L 983.023,-19.3235 L 982.532,-20
 L 982.192,-20.7639 L 982.018,-21.5819 L 982.018,-22.4181 L 982.192,-23.2361 L 982.532,-24 L 983.023,-24.6765
 L 983.645,-25.2361 L 984.581,-25.7416 L 1072.42,-58.9452 L 1073.23,-59.1575 L 1074.06,-59.197 L 1074.89,-59.0619
 L 1075.67,-58.7583 L 1076.37,-58.2992 L 1076.95,-57.7049 L 1077.41,-57.0013 L 1077.7,-56.2191 L 1077.83,-55.2036
 L 1077.83,-22 L 1077.75,-21.1684 L 1077.49,-20.373 L 1077.07,-19.6489 L 1076.51,-19.0274 L 1075.83,-18.5359
 L 1075.07,-18.1958 L 1073.83,-18 z
M 1165.88,-18 L 1165.05,-18.0874 L 1164.26,-18.3458 L 1163.53,-18.7639 L 1162.91,-19.3235 L 1162.42,-20
 L 1162.08,-20.7639 L 1161.91,-21.5819 L 1161.91,-22.4181 L 1162.08,-23.2361 L 1162.42,-24 L 1162.91,-24.6765
 L 1163.53,-25.2361 L 1164.47,-25.7416 L 1252.31,-58.9452 L 1253.12,-59.1575 L 1253.95,-59.197 L 1254.78,-59.0619
 L 1255.56,-58.7583 L 1256.26,-58.2992 L 1256.84,-57.7049 L 1257.3,-57.0013 L 1257.59,-56.2191 L 1257.72,-55.2036
 L 1257.72,-22 L 1257.63,-21.1684 L 1257.38,-20.373 L 1256.96,-19.6489 L 1256.4,-19.0274 L 1255.72,-18.5359
 L 1254.96,-18.1958 L 1253.72,-18 z
M 1345.77,-18 L 1344.94,-18.0874 L 1344.15,-18.3458 L 1343.42,-18.7639 L 1342.8,-19.3235 L 1342.31,-20
 L 1341.97,-20.7639 L 1341.8,-21.5819 L 1341.8,-22.4181 L 1341.97,-23.2361 L 1342.31,-24 L 1342.8,-24.6765
 L 1343.42,-25.2361 L 1344.36,-25.7416 L 1432.2,-58.9452 L 1433.01,-59.1575 L 1433.84,-59.197 L 1434.67,-59.0619
 L 1435.45,-58.7583 L 1436.14,-58.2992 L 1436.73,-57.7049 L 1437.18,-57.0013 L 1437.48,-56.2191 L 1437.61,-55.2036
 L 1437.61,-22 L 1437.52,-21.1684 L 1437.27,-20.373 L 1436.85,-19.6489 L 1436.29,-19.0274 L 1435.61,-18.5359
 L 1434.85,-18.1958 L 1433.61,-18 z
M 22,-18 L 20.7639,-18.1958 L 20,-18.5359 L 19.3235,-19.0274 L 18.7639,-19.6489 L 18.3458,-20.373
 L 18.0874,-21.1684 L 18,-22 L 18,-54.6366 L 18.1311,-55.6521 L 18.4267,-56.4343 L 18.8786,-57.1379
 L 19.4669,-57.7322 L 20.1658,-58.1913 L 20.945,-58.4949 L 21.7702,-58.6299 L 22.6055,-58.5905 L 23.4144,-58.3781
 L 109.752,-25.7416 L 110.689,-25.2361 L 111.31,-24.6765 L 111.802,-24 L 112.142,-23.2361 L 112.316,-22.4181
 L 112.316,-21.5819 L 112.142,-20.7639 L 111.802,-20 L 111.31,-19.3235 L 110.689,-18.7639 L 109.965,-18.3458
 L 109.169,-18.0874 L 108.338,-18 z
M 1525.66,-18 L 1524.83,-18.0874 L 1524.04,-18.3458 L 1523.31,-18.7639 L 1522.69,-19.3235 L 1522.2,-20
 L 1521.86,-20.7639 L 1521.68,-21.5819 L 1521.68,-22.4181 L 1521.86,-23.2361 L 1522.2,-24 L 1522.69,-24.6765
 L 1523.31,-25.2361 L 1524.25,-25.7416 L 1610.59,-58.3781 L 1611.39,-58.5905 L 1612.23,-58.6299 L 1613.06,-58.4949
 L 1613.83,-58.1913 L 1614.53,-57.7322 L 1615.12,-57.1379 L 1615.57,-56.4343 L 1615.87,-55.6521 L 1616,-54.6366
 L 1616,-22 L 1615.91,-21.1684 L 1615.65,-20.373 L 1615.24,-19.6489 L 1614.68,-19.0274 L 1614,-18.5359
 L 1613.24,-18.1958 L 1612,-18 z
M 800.457,-18 L 799.402,-18.1416 L 798.623,-18.4453 L 797.924,-18.9043 L 797.336,-19.4986 L 796.884,-20.2023
 L 796.588,-20.9845 L 796.461,-21.8111 L 796.509,-22.6459 L 796.73,-23.4525 L 797.113,-24.1957 L 797.643,-24.8428
 L 798.296,-25.3658 L 799.043,-25.7416 L 815.586,-31.9951 L 816.77,-32.2469 L 817.606,-32.2074 L 818.414,-31.9951
 L 834.957,-25.7416 L 835.894,-25.2361 L 836.516,-24.6765 L 837.007,-24 L 837.347,-23.2361 L 837.521,-22.4181
 L 837.521,-21.5819 L 837.347,-20.7639 L 837.007,-20 L 836.516,-19.3235 L 835.894,-18.7639 L 835.17,-18.3458
 L 834.375,-18.0874 L 833.543,-18 z
" stroke="black" fill="lightgray" stroke-width="0.5"/>
</svg>
