<?xml version="1.0" standalone="no"?>
<!DOCTYPE svg PUBLIC "-//W3C//DTD SVG 1.1//EN" "http://www.w3.org/Graphics/SVG/1.1/DTD/svg11.dtd">
<svg width="1336mm" height="80mm" viewBox="0 -80 1336 80" xmlns="http://www.w3.org/2000/svg" version="1.1">
<title>OpenSCAD Model</title>
<path d="
M 1336,-80 L 0,-80 L 0,-0 L 4.95,-0 L 4.95,-6 L 5.00572,-6.53017
 L 5.17046,-7.03717 L 5.437,-7.49884 L 5.79372,-7.895 L 6.22499,-8.20836 L 6.71201,-8.42519 L 7.23344,-8.53603
 L 7.76654,-8.53603 L 8.28798,-8.42519 L 8.77499,-8.20836 L 9.20627,-7.895 L 9.56299,-7.49884 L 9.82953,-7.03717
 L 9.99426,-6.53017 L 10.05,-6 L 10.05,-0 L 193.664,-0 L 193.664,-6 L 193.72,-6.53017
 L 193.885,-7.03717 L 194.151,-7.49884 L 194.508,-7.895 L 194.939,-8.20836 L 195.426,-8.42519 L 195.948,-8.53603
 L 196.481,-8.53603 L 197.002,-8.42519 L 197.489,-8.20836 L 197.921,-7.895 L 198.277,-7.49884 L 198.544,-7.03717
 L 198.709,-6.53017 L 198.764,-6 L 198.764,-0 L 382.379,-0 L 382.379,-6 L 382.434,-6.53017
 L 382.599,-7.03717 L 382.866,-7.49884 L 383.222,-7.895 L 383.654,-8.20836 L 384.141,-8.42519 L 384.662,-8.53603
 L 385.195,-8.53603 L 385.717,-8.42519 L 386.204,-8.20836 L 386.635,-7.895 L 386.992,-7.49884 L 387.258,-7.03717
 L 387.423,-6.53017 L 387.479,-6 L 387.479,-0 L 571.093,-0 L 571.093,-6 L 571.149,-6.53017
 L 571.313,-7.03717 L 571.58,-7.49884 L 571.937,-7.895 L 572.368,-8.20836 L 572.855,-8.42519 L 573.376,-8.53603
 L 573.909,-8.53603 L 574.431,-8.42519 L 574.918,-8.20836 L 575.349,-7.895 L 575.706,-7.49884 L 575.972,-7.03717
 L 576.137,-6.53017 L 576.193,-6 L 576.193,-0 L 759.807,-0 L 759.807,-6 L 759.863,-6.53017
 L 760.028,-7.03717 L 760.294,-7.49884 L 760.651,-7.895 L 761.082,-8.20836 L 761.569,-8.42519 L 762.091,-8.53603
 L 762.624,-8.53603 L 763.145,-8.42519 L 763.632,-8.20836 L 764.063,-7.895 L 764.42,-7.49884 L 764.687,-7.03717
 L 764.851,-6.53017 L 764.907,-6 L 764.907,-0 L 948.521,-0 L 948.521,-6 L 948.577,-6.53017
 L 948.742,-7.03717 L 949.008,-7.49884 L 949.365,-7.895 L 949.796,-8.20836 L 950.283,-8.42519 L 950.805,-8.53603
 L 951.338,-8.53603 L 951.859,-8.42519 L 952.346,-8.20836 L 952.778,-7.895 L 953.134,-7.49884 L 953.401,-7.03717
 L 953.566,-6.53017 L 953.621,-6 L 953.621,-0 L 1137.24,-0 L 1137.24,-6 L 1137.29,-6.53017
 L 1137.46,-7.03717 L 1137.72,-7.49884 L 1138.08,-7.895 L 1138.51,-8.20836 L 1139,-8.42519 L 1139.52,-8.53603
 L 1140.05,-8.53603 L 1140.57,-8.42519 L 1141.06,-8.20836 L 1141.49,-7.895 L 1141.85,-7.49884 L 1142.12,-7.03717
 L 1142.28,-6.53017 L 1142.34,-6 L 1142.34,-0 L 1325.95,-0 L 1325.95,-6 L 1326.01,-6.53017
 L 1326.17,-7.03717 L 1326.44,-7.49884 L 1326.79,-7.895 L 1327.22,-8.20836 L 1327.71,-8.42519 L 1328.23,-8.53603
 L 1328.77,-8.53603 L 1329.29,-8.42519 L 1329.77,-8.20836 L 1330.21,-7.895 L 1330.56,-7.49884 L 1330.83,-7.03717
 L 1330.99,-6.53017 L 1331.05,-6 L 1331.05,-0 L 1336,-0 z
M 6.98573,-55.607 L 6.47708,-55.6875 L 5.97964,-55.8208 L 5.49887,-56.0054 L 5.04001,-56.2392 L 4.60811,-56.5196
 L 4.20789,-56.8437 L 3.84373,-57.2079 L 3.51964,-57.6081 L 3.23917,-58.04 L 3.00537,-58.4989 L 2.82082,-58.9796
 L 2.68752,-59.4771 L 2.60696,-59.9857 L 2.58,-60.5 L 2.60696,-61.0143 L 2.68752,-61.5229 L 2.82082,-62.0204
 L 3.00537,-62.5011 L 3.23917,-62.96 L 3.51964,-63.3919 L 3.84373,-63.7921 L 4.20789,-64.1563 L 4.60811,-64.4804
 L 4.95001,-64.7024 L 4.95001,-74 L 5.00574,-74.5302 L 5.17047,-75.0372 L 5.43701,-75.4988 L 5.79373,-75.895
 L 6.22501,-76.2084 L 6.71202,-76.4252 L 7.23346,-76.536 L 7.76654,-76.536 L 8.28798,-76.4252 L 8.77499,-76.2084
 L 9.20627,-75.895 L 9.56299,-75.4988 L 9.82953,-75.0372 L 9.99426,-74.5302 L 10.05,-74 L 10.05,-64.7024
 L 10.3919,-64.4804 L 10.7921,-64.1563 L 11.1563,-63.7921 L 11.4804,-63.3919 L 11.7608,-62.96 L 11.9946,-62.5011
 L 12.1792,-62.0204 L 12.3125,-61.5229 L 12.393,-61.0143 L 12.42,-60.5 L 12.393,-59.9857 L 12.3125,-59.4771
 L 12.1792,-58.9796 L 11.9946,-58.4989 L 11.7608,-58.04 L 11.4804,-57.6081 L 11.1563,-57.2079 L 10.7921,-56.8437
 L 10.3919,-56.5196 L 9.95999,-56.2392 L 9.50113,-56.0054 L 9.02036,-55.8208 L 8.52292,-55.6875 L 8.01427,-55.607
 L 7.5,-55.58 z
M 195.7,-55.607 L 195.191,-55.6875 L 194.694,-55.8208 L 194.213,-56.0054 L 193.754,-56.2392 L 193.322,-56.5196
 L 192.922,-56.8437 L 192.558,-57.2079 L 192.234,-57.6081 L 191.953,-58.04 L 191.72,-58.4989 L 191.535,-58.9796
 L 191.402,-59.4771 L 191.321,-59.9857 L 191.294,-60.5 L 191.321,-61.0143 L 191.402,-61.5229 L 191.535,-62.0204
 L 191.72,-62.5011 L 191.953,-62.96 L 192.234,-63.3919 L 192.558,-63.7921 L 192.922,-64.1563 L 193.322,-64.4804
 L 193.664,-64.7024 L 193.664,-74 L 193.72,-74.5302 L 193.885,-75.0372 L 194.151,-75.4988 L 194.508,-75.895
 L 194.939,-76.2084 L 195.426,-76.4252 L 195.948,-76.536 L 196.481,-76.536 L 197.002,-76.4252 L 197.489,-76.2084
 L 197.921,-75.895 L 198.277,-75.4988 L 198.544,-75.0372 L 198.709,-74.5302 L 198.764,-74 L 198.764,-64.7024
 L 199.106,-64.4804 L 199.506,-64.1563 L 199.871,-63.7921 L 200.195,-63.3919 L 200.475,-62.96 L 200.709,-62.5011
 L 200.893,-62.0204 L 201.027,-61.5229 L 201.107,-61.0143 L 201.134,-60.5 L 201.107,-59.9857 L 201.027,-59.4771
 L 200.893,-58.9796 L 200.709,-58.4989 L 200.475,-58.04 L 200.195,-57.6081 L 199.871,-57.2079 L 199.506,-56.8437
 L 199.106,-56.5196 L 198.674,-56.2392 L 198.215,-56.0054 L 197.735,-55.8208 L 197.237,-55.6875 L 196.729,-55.607
 L 196.214,-55.58 z
M 384.414,-55.607 L 383.906,-55.6875 L 383.408,-55.8208 L 382.927,-56.0054 L 382.469,-56.2392 L 382.037,-56.5196
 L 381.636,-56.8437 L 381.272,-57.2079 L 380.948,-57.6081 L 380.668,-58.04 L 380.434,-58.4989 L 380.249,-58.9796
 L 380.116,-59.4771 L 380.036,-59.9857 L 380.009,-60.5 L 380.036,-61.0143 L 380.116,-61.5229 L 380.249,-62.0204
 L 380.434,-62.5011 L 380.668,-62.96 L 380.948,-63.3919 L 381.272,-63.7921 L 381.636,-64.1563 L 382.037,-64.4804
 L 382.379,-64.7024 L 382.379,-74 L 382.434,-74.5302 L 382.599,-75.0372 L 382.866,-75.4988 L 383.222,-75.895
 L 383.654,-76.2084 L 384.141,-76.4252 L 384.662,-76.536 L 385.195,-76.536 L 385.717,-76.4252 L 386.204,-76.2084
 L 386.635,-75.895 L 386.992,-75.4988 L 387.258,-75.0372 L 387.423,-74.5302 L 387.479,-74 L 387.479,-64.7024
 L 387.82,-64.4804 L 388.221,-64.1563 L 388.585,-63.7921 L 388.909,-63.3919 L 389.189,-62.96 L 389.423,-62.5011
 L 389.608,-62.0204 L 389.741,-61.5229 L 389.822,-61.0143 L 389.849,-60.5 L 389.822,-59.9857 L 389.741,-59.4771
 L 389.608,-58.9796 L 389.423,-58.4989 L 389.189,-58.04 L 388.909,-57.6081 L 388.585,-57.2079 L 388.221,-56.8437
 L 387.82,-56.5196 L 387.389,-56.2392 L 386.93,-56.0054 L 386.449,-55.8208 L 385.951,-55.6875 L 385.443,-55.607
 L 384.929,-55.58 z
M 573.129,-55.607 L 572.62,-55.6875 L 572.122,-55.8208 L 571.642,-56.0054 L 571.183,-56.2392 L 570.751,-56.5196
 L 570.351,-56.8437 L 569.987,-57.2079 L 569.662,-57.6081 L 569.382,-58.04 L 569.148,-58.4989 L 568.964,-58.9796
 L 568.83,-59.4771 L 568.75,-59.9857 L 568.723,-60.5 L 568.75,-61.0143 L 568.83,-61.5229 L 568.964,-62.0204
 L 569.148,-62.5011 L 569.382,-62.96 L 569.662,-63.3919 L 569.987,-63.7921 L 570.351,-64.1563 L 570.751,-64.4804
 L 571.093,-64.7024 L 571.093,-74 L 571.149,-74.5302 L 571.313,-75.0372 L 571.58,-75.4988 L 571.937,-75.895
 L 572.368,-76.2084 L 572.855,-76.4252 L 573.376,-76.536 L 573.909,-76.536 L 574.431,-76.4252 L 574.918,-76.2084
 L 575.349,-75.895 L 575.706,-75.4988 L 575.972,-75.0372 L 576.137,-74.5302 L 576.193,-74 L 576.193,-64.7024
 L 576.535,-64.4804 L 576.935,-64.1563 L 577.299,-63.7921 L 577.623,-63.3919 L 577.904,-62.96 L 578.137,-62.5011
 L 578.322,-62.0204 L 578.455,-61.5229 L 578.536,-61.0143 L 578.563,-60.5 L 578.536,-59.9857 L 578.455,-59.4771
 L 578.322,-58.9796 L 578.137,-58.4989 L 577.904,-58.04 L 577.623,-57.6081 L 577.299,-57.2079 L 576.935,-56.8437
 L 576.535,-56.5196 L 576.103,-56.2392 L 575.644,-56.0054 L 575.163,-55.8208 L 574.666,-55.6875 L 574.157,-55.607
 L 573.643,-55.58 z
M 761.843,-55.607 L 761.334,-55.6875 L 760.837,-55.8208 L 760.356,-56.0054 L 759.897,-56.2392 L 759.465,-56.5196
 L 759.065,-56.8437 L 758.701,-57.2079 L 758.377,-57.6081 L 758.096,-58.04 L 757.863,-58.4989 L 757.678,-58.9796
 L 757.545,-59.4771 L 757.464,-59.9857 L 757.437,-60.5 L 757.464,-61.0143 L 757.545,-61.5229 L 757.678,-62.0204
 L 757.863,-62.5011 L 758.096,-62.96 L 758.377,-63.3919 L 758.701,-63.7921 L 759.065,-64.1563 L 759.465,-64.4804
 L 759.807,-64.7024 L 759.807,-74 L 759.863,-74.5302 L 760.028,-75.0372 L 760.294,-75.4988 L 760.651,-75.895
 L 761.082,-76.2084 L 761.569,-76.4252 L 762.091,-76.536 L 762.624,-76.536 L 763.145,-76.4252 L 763.632,-76.2084
 L 764.063,-75.895 L 764.42,-75.4988 L 764.687,-75.0372 L 764.851,-74.5302 L 764.907,-74 L 764.907,-64.7024
 L 765.249,-64.4804 L 765.649,-64.1563 L 766.013,-63.7921 L 766.337,-63.3919 L 766.618,-62.96 L 766.852,-62.5011
 L 767.036,-62.0204 L 767.17,-61.5229 L 767.25,-61.0143 L 767.277,-60.5 L 767.25,-59.9857 L 767.17,-59.4771
 L 767.036,-58.9796 L 766.852,-58.4989 L 766.618,-58.04 L 766.337,-57.6081 L 766.013,-57.2079 L 765.649,-56.8437
 L 765.249,-56.5196 L 764.817,-56.2392 L 764.358,-56.0054 L 763.877,-55.8208 L 763.38,-55.6875 L 762.871,-55.607
 L 762.357,-55.58 z
M 950.557,-55.607 L 950.049,-55.6875 L 949.551,-55.8208 L 949.07,-56.0054 L 948.611,-56.2392 L 948.18,-56.5196
 L 947.779,-56.8437 L 947.415,-57.2079 L 947.091,-57.6081 L 946.811,-58.04 L 946.577,-58.4989 L 946.392,-58.9796
 L 946.259,-59.4771 L 946.178,-59.9857 L 946.151,-60.5 L 946.178,-61.0143 L 946.259,-61.5229 L 946.392,-62.0204
 L 946.577,-62.5011 L 946.811,-62.96 L 947.091,-63.3919 L 947.415,-63.7921 L 947.779,-64.1563 L 948.18,-64.4804
 L 948.521,-64.7024 L 948.521,-74 L 948.577,-74.5302 L 948.742,-75.0372 L 949.008,-75.4988 L 949.365,-75.895
 L 949.796,-76.2084 L 950.283,-76.4252 L 950.805,-76.536 L 951.338,-76.536 L 951.859,-76.4252 L 952.346,-76.2084
 L 952.778,-75.895 L 953.134,-75.4988 L 953.401,-75.0372 L 953.566,-74.5302 L 953.621,-74 L 953.621,-64.7024
 L 953.963,-64.4804 L 954.364,-64.1563 L 954.728,-63.7921 L 955.052,-63.3919 L 955.332,-62.96 L 955.566,-62.5011
 L 955.751,-62.0204 L 955.884,-61.5229 L 955.964,-61.0143 L 955.991,-60.5 L 955.964,-59.9857 L 955.884,-59.4771
 L 955.751,-58.9796 L 955.566,-58.4989 L 955.332,-58.04 L 955.052,-57.6081 L 954.728,-57.2079 L 954.364,-56.8437
 L 953.963,-56.5196 L 953.531,-56.2392 L 953.073,-56.0054 L 952.592,-55.8208 L 952.094,-55.6875 L 951.586,-55.607
 L 951.071,-55.58 z
M 1139.27,-55.607 L 1138.76,-55.6875 L 1138.27,-55.8208 L 1137.78,-56.0054 L 1137.33,-56.2392 L 1136.89,-56.5196
 L 1136.49,-56.8437 L 1136.13,-57.2079 L 1135.81,-57.6081 L 1135.52,-58.04 L 1135.29,-58.4989 L 1135.11,-58.9796
 L 1134.97,-59.4771 L 1134.89,-59.9857 L 1134.87,-60.5 L 1134.89,-61.0143 L 1134.97,-61.5229 L 1135.11,-62.0204
 L 1135.29,-62.5011 L 1135.52,-62.96 L 1135.81,-63.3919 L 1136.13,-63.7921 L 1136.49,-64.1563 L 1136.89,-64.4804
 L 1137.24,-64.7024 L 1137.24,-74 L 1137.29,-74.5302 L 1137.46,-75.0372 L 1137.72,-75.4988 L 1138.08,-75.895
 L 1138.51,-76.2084 L 1139,-76.4252 L 1139.52,-76.536 L 1140.05,-76.536 L 1140.57,-76.4252 L 1141.06,-76.2084
 L 1141.49,-75.895 L 1141.85,-75.4988 L 1142.12,-75.0372 L 1142.28,-74.5302 L 1142.34,-74 L 1142.34,-64.7024
 L 1142.68,-64.4804 L 1143.08,-64.1563 L 1143.44,-63.7921 L 1143.77,-63.3919 L 1144.05,-62.96 L 1144.28,-62.5011
 L 1144.46,-62.0204 L 1144.6,-61.5229 L 1144.68,-61.0143 L 1144.71,-60.5 L 1144.68,-59.9857 L 1144.6,-59.4771
 L 1144.46,-58.9796 L 1144.28,-58.4989 L 1144.05,-58.04 L 1143.77,-57.6081 L 1143.44,-57.2079 L 1143.08,-56.8437
 L 1142.68,-56.5196 L 1142.25,-56.2392 L 1141.79,-56.0054 L 1141.31,-55.8208 L 1140.81,-55.6875 L 1140.3,-55.607
 L 1139.79,-55.58 z
M 1327.99,-55.607 L 1327.48,-55.6875 L 1326.98,-55.8208 L 1326.5,-56.0054 L 1326.04,-56.2392 L 1325.61,-56.5196
 L 1325.21,-56.8437 L 1324.84,-57.2079 L 1324.52,-57.6081 L 1324.24,-58.04 L 1324.01,-58.4989 L 1323.82,-58.9796
 L 1323.69,-59.4771 L 1323.61,-59.9857 L 1323.58,-60.5 L 1323.61,-61.0143 L 1323.69,-61.5229 L 1323.82,-62.0204
 L 1324.01,-62.5011 L 1324.24,-62.96 L 1324.52,-63.3919 L 1324.84,-63.7921 L 1325.21,-64.1563 L 1325.61,-64.4804
 L 1325.95,-64.7024 L 1325.95,-74 L 1326.01,-74.5302 L 1326.17,-75.0372 L 1326.44,-75.4988 L 1326.79,-75.895
 L 1327.23,-76.2084 L 1327.71,-76.4252 L 1328.23,-76.536 L 1328.77,-76.536 L 1329.29,-76.4252 L 1329.77,-76.2084
 L 1330.21,-75.895 L 1330.56,-75.4988 L 1330.83,-75.0372 L 1330.99,-74.5302 L 1331.05,-74 L 1331.05,-64.7024
 L 1331.39,-64.4804 L 1331.79,-64.1563 L 1332.16,-63.7921 L 1332.48,-63.3919 L 1332.76,-62.96 L 1332.99,-62.5011
 L 1333.18,-62.0204 L 1333.31,-61.5229 L 1333.39,-61.0143 L 1333.42,-60.5 L 1333.39,-59.9857 L 1333.31,-59.4771
 L 1333.18,-58.9796 L 1332.99,-58.4989 L 1332.76,-58.04 L 1332.48,-57.6081 L 1332.16,-57.2079 L 1331.79,-56.8437
 L 1331.39,-56.5196 L 1330.96,-56.2392 L 1330.5,-56.0054 L 1330.02,-55.8208 L 1329.52,-55.6875 L 1329.01,-55.607
 L 1328.5,-55.58 z
M 774.242,-20.6541 L 773.468,-20.9698 L 772.776,-21.4397 L 772.197,-22.0431 L 771.756,-22.7537 L 771.473,-23.5404
 L 771.357,-24.4956 L 771.357,-58 L 771.445,-58.8316 L 771.703,-59.627 L 772.121,-60.3511 L 772.681,-60.9726
 L 773.357,-61.4641 L 774.121,-61.8042 L 775.357,-62 L 868.339,-62 L 869.171,-61.9126 L 869.966,-61.6542
 L 870.69,-61.2361 L 871.311,-60.6765 L 871.803,-60 L 872.143,-59.2361 L 872.317,-58.4181 L 872.317,-57.5819
 L 872.143,-56.7639 L 871.803,-56 L 871.311,-55.3235 L 870.69,-54.7639 L 869.695,-54.2368 L 776.713,-20.7324
 L 775.901,-20.5327 L 775.065,-20.5063 z
M 667.456,-47.7236 L 666.644,-47.9233 L 649.123,-54.2368 L 648.127,-54.7639 L 647.506,-55.3235 L 647.014,-56
 L 646.674,-56.7639 L 646.5,-57.5819 L 646.5,-58.4181 L 646.674,-59.2361 L 647.014,-60 L 647.506,-60.6765
 L 648.127,-61.2361 L 648.852,-61.6542 L 649.647,-61.9126 L 650.479,-62 L 685.521,-62 L 686.636,-61.8415
 L 687.411,-61.5257 L 688.102,-61.0559 L 688.681,-60.4525 L 689.122,-59.7419 L 689.406,-58.9552 L 689.519,-58.1267
 L 689.458,-57.2927 L 689.225,-56.4897 L 688.83,-55.7526 L 688.291,-55.1137 L 687.63,-54.601 L 686.877,-54.2368
 L 669.356,-47.9233 L 668.292,-47.6971 z
M 560.099,-20.5327 L 559.287,-20.7324 L 466.305,-54.2368 L 465.31,-54.7639 L 464.688,-55.3235 L 464.197,-56
 L 463.857,-56.7639 L 463.683,-57.5819 L 463.683,-58.4181 L 463.857,-59.2361 L 464.197,-60 L 464.688,-60.6765
 L 465.31,-61.2361 L 466.034,-61.6542 L 466.829,-61.9126 L 467.661,-62 L 560.643,-62 L 561.879,-61.8042
 L 562.643,-61.4641 L 563.319,-60.9726 L 563.879,-60.3511 L 564.297,-59.627 L 564.555,-58.8316 L 564.643,-58
 L 564.643,-24.4956 L 564.527,-23.5404 L 564.244,-22.7537 L 563.803,-22.0431 L 563.224,-21.4397 L 562.532,-20.9698
 L 561.758,-20.6541 L 560.935,-20.5063 z
M 371.385,-20.5327 L 370.573,-20.7324 L 277.591,-54.2368 L 276.596,-54.7639 L 275.974,-55.3235 L 275.483,-56
 L 275.143,-56.7639 L 274.969,-57.5819 L 274.969,-58.4181 L 275.143,-59.2361 L 275.483,-60 L 275.974,-60.6765
 L 276.596,-61.2361 L 277.32,-61.6542 L 278.115,-61.9126 L 278.947,-62 L 371.929,-62 L 373.165,-61.8042
 L 373.929,-61.4641 L 374.605,-60.9726 L 375.165,-60.3511 L 375.583,-59.627 L 375.841,-58.8316 L 375.929,-58
 L 375.929,-24.4956 L 375.813,-23.5404 L 375.529,-22.7537 L 375.089,-22.0431 L 374.51,-21.4397 L 373.818,-20.9698
 L 373.043,-20.6541 L 372.22,-20.5063 z
M 1151.67,-20.6541 L 1150.9,-20.9698 L 1150.2,-21.4397 L 1149.63,-22.0431 L 1149.18,-22.7537 L 1148.9,-23.5404
 L 1148.79,-24.4956 L 1148.79,-58 L 1148.87,-58.8316 L 1149.13,-59.627 L 1149.55,-60.3511 L 1150.11,-60.9726
 L 1150.79,-61.4641 L 1151.55,-61.8042 L 1152.79,-62 L 1245.77,-62 L 1246.6,-61.9126 L 1247.39,-61.6542
 L 1248.12,-61.2361 L 1248.74,-60.6765 L 1249.23,-60 L 1249.57,-59.2361 L 1249.75,-58.4181 L 1249.75,-57.5819
 L 1249.57,-56.7639 L 1249.23,-56 L 1248.74,-55.3235 L 1248.12,-54.7639 L 1247.12,-54.2368 L 1154.14,-20.7324
 L 1153.33,-20.5327 L 1152.49,-20.5063 z
M 182.67,-20.5327 L 181.858,-20.7324 L 88.8765,-54.2368 L 87.8814,-54.7639 L 87.2599,-55.3235 L 86.7684,-56
 L 86.4283,-56.7639 L 86.2544,-57.5819 L 86.2544,-58.4181 L 86.4283,-59.2361 L 86.7684,-60 L 87.2599,-60.6765
 L 87.8814,-61.2361 L 88.6056,-61.6542 L 89.4009,-61.9126 L 90.2325,-62 L 183.214,-62 L 184.45,-61.8042
 L 185.214,-61.4641 L 185.891,-60.9726 L 186.45,-60.3511 L 186.868,-59.627 L 187.127,-58.8316 L 187.214,-58
 L 187.214,-24.4956 L 187.099,-23.5404 L 186.815,-22.7537 L 186.374,-22.0431 L 185.795,-21.4397 L 185.104,-20.9698
 L 184.329,-20.6541 L 183.506,-20.5063 z
M 962.957,-20.6541 L 962.182,-20.9698 L 961.49,-21.4397 L 960.911,-22.0431 L 960.471,-22.7537 L 960.187,-23.5404
 L 960.071,-24.4956 L 960.071,-58 L 960.159,-58.8316 L 960.417,-59.627 L 960.835,-60.3511 L 961.395,-60.9726
 L 962.071,-61.4641 L 962.835,-61.8042 L 964.071,-62 L 1057.05,-62 L 1057.88,-61.9126 L 1058.68,-61.6542
 L 1059.4,-61.2361 L 1060.03,-60.6765 L 1060.52,-60 L 1060.86,-59.2361 L 1061.03,-58.4181 L 1061.03,-57.5819
 L 1060.86,-56.7639 L 1060.52,-56 L 1060.03,-55.3235 L 1059.4,-54.7639 L 1058.41,-54.2368 L 965.427,-20.7324
 L 964.615,-20.5327 L 963.78,-20.5063 z
M 586.225,-18.3927 L 585.407,-18.5666 L 584.643,-18.9067 L 583.966,-19.3982 L 583.407,-20.0197 L 582.989,-20.7438
 L 582.73,-21.5391 L 582.643,-22.3708 L 582.643,-57.6292 L 582.759,-58.5844 L 583.042,-59.3711 L 583.483,-60.0817
 L 584.062,-60.6851 L 584.754,-61.1549 L 585.528,-61.4707 L 586.351,-61.6185 L 587.187,-61.5921 L 587.999,-61.3924
 L 636.924,-43.7632 L 637.457,-43.5257 L 638.149,-43.0559 L 638.728,-42.4525 L 639.168,-41.7419 L 639.452,-40.9552
 L 639.566,-40.1267 L 639.505,-39.2927 L 639.272,-38.4897 L 638.877,-37.7526 L 638.337,-37.1137 L 637.676,-36.601
 L 636.924,-36.2368 L 587.999,-18.6076 L 587.061,-18.3927 z
M 748.813,-18.4079 L 748.001,-18.6076 L 699.076,-36.2368 L 698.543,-36.4743 L 697.851,-36.9441 L 697.272,-37.5475
 L 696.832,-38.2581 L 696.548,-39.0448 L 696.434,-39.8733 L 696.495,-40.7073 L 696.728,-41.5103 L 697.123,-42.2474
 L 697.663,-42.8863 L 698.324,-43.399 L 699.076,-43.7632 L 748.001,-61.3924 L 748.939,-61.6073 L 749.775,-61.6073
 L 750.593,-61.4335 L 751.357,-61.0933 L 752.034,-60.6018 L 752.593,-59.9804 L 753.011,-59.2562 L 753.27,-58.4609
 L 753.357,-57.6292 L 753.357,-22.3708 L 753.241,-21.4156 L 752.958,-20.6289 L 752.517,-19.9183 L 751.938,-19.3149
 L 751.246,-18.845 L 750.472,-18.5293 L 749.649,-18.3814 z
M 209.214,-18 L 207.978,-18.1958 L 207.214,-18.5359 L 206.538,-19.0274 L 205.978,-19.6489 L 205.56,-20.373
 L 205.302,-21.1684 L 205.214,-22 L 205.214,-55.5044 L 205.33,-56.4596 L 205.613,-57.2463 L 206.054,-57.9569
 L 206.633,-58.5603 L 207.325,-59.0301 L 208.099,-59.3459 L 208.922,-59.4937 L 209.758,-59.4672 L 210.57,-59.2675
 L 303.552,-25.7632 L 304.547,-25.2361 L 305.169,-24.6765 L 305.66,-24 L 306,-23.2361 L 306.174,-22.4181
 L 306.174,-21.5819 L 306,-20.7639 L 305.66,-20 L 305.169,-19.3235 L 304.547,-18.7639 L 303.823,-18.3458
 L 303.028,-18.0874 L 302.196,-18 z
M 397.929,-18 L 396.692,-18.1958 L 395.929,-18.5359 L 395.252,-19.0274 L 394.692,-19.6489 L 394.274,-20.373
 L 394.016,-21.1684 L 393.929,-22 L 393.929,-55.5044 L 394.044,-56.4596 L 394.328,-57.2463 L 394.769,-57.9569
 L 395.348,-58.5603 L 396.039,-59.0301 L 396.814,-59.3459 L 397.637,-59.4937 L 398.473,-59.4672 L 399.285,-59.2675
 L 492.266,-25.7632 L 493.261,-25.2361 L 493.883,-24.6765 L 494.374,-24 L 494.715,-23.2361 L 494.888,-22.4181
 L 494.888,-21.5819 L 494.715,-20.7639 L 494.374,-20 L 493.883,-19.3235 L 493.261,-18.7639 L 492.537,-18.3458
 L 491.742,-18.0874 L 490.91,-18 z
M 845.09,-18 L 844.258,-18.0874 L 843.463,-18.3458 L 842.739,-18.7639 L 842.117,-19.3235 L 841.626,-20
 L 841.285,-20.7639 L 841.112,-21.5819 L 841.112,-22.4181 L 841.285,-23.2361 L 841.626,-24 L 842.117,-24.6765
 L 842.739,-25.2361 L 843.734,-25.7632 L 936.715,-59.2675 L 937.527,-59.4672 L 938.363,-59.4937 L 939.186,-59.3459
 L 939.961,-59.0301 L 940.652,-58.5603 L 941.231,-57.9569 L 941.672,-57.2463 L 941.956,-56.4596 L 942.071,-55.5044
 L 942.071,-22 L 941.984,-21.1684 L 941.726,-20.373 L 941.307,-19.6489 L 940.748,-19.0274 L 940.071,-18.5359
 L 939.307,-18.1958 L 938.071,-18 z
M 1033.8,-18 L 1032.97,-18.0874 L 1032.18,-18.3458 L 1031.45,-18.7639 L 1030.83,-19.3235 L 1030.34,-20
 L 1030,-20.7639 L 1029.83,-21.5819 L 1029.83,-22.4181 L 1030,-23.2361 L 1030.34,-24 L 1030.83,-24.6765
 L 1031.45,-25.2361 L 1032.45,-25.7632 L 1125.43,-59.2675 L 1126.24,-59.4672 L 1127.08,-59.4937 L 1127.9,-59.3459
 L 1128.67,-59.0301 L 1129.37,-58.5603 L 1129.95,-57.9569 L 1130.39,-57.2463 L 1130.67,-56.4596 L 1130.79,-55.5044
 L 1130.79,-22 L 1130.7,-21.1684 L 1130.44,-20.373 L 1130.02,-19.6489 L 1129.46,-19.0274 L 1128.79,-18.5359
 L 1128.02,-18.1958 L 1126.79,-18 z
M 22,-18 L 20.7639,-18.1958 L 20,-18.5359 L 19.3235,-19.0274 L 18.7639,-19.6489 L 18.3458,-20.373
 L 18.0874,-21.1684 L 18,-22 L 18,-54.9639 L 18.1157,-55.9191 L 18.3992,-56.7058 L 18.8401,-57.4164
 L 19.419,-58.0198 L 20.1108,-58.4896 L 20.8851,-58.8054 L 21.7081,-58.9532 L 22.5439,-58.9267 L 23.356,-58.7271
 L 114.838,-25.7632 L 115.833,-25.2361 L 116.454,-24.6765 L 116.946,-24 L 117.286,-23.2361 L 117.46,-22.4181
 L 117.46,-21.5819 L 117.286,-20.7639 L 116.946,-20 L 116.454,-19.3235 L 115.833,-18.7639 L 115.109,-18.3458
 L 114.313,-18.0874 L 113.482,-18 z
M 1222.52,-18 L 1221.69,-18.0874 L 1220.89,-18.3458 L 1220.17,-18.7639 L 1219.55,-19.3235 L 1219.05,-20
 L 1218.71,-20.7639 L 1218.54,-21.5819 L 1218.54,-22.4181 L 1218.71,-23.2361 L 1219.05,-24 L 1219.55,-24.6765
 L 1220.17,-25.2361 L 1221.16,-25.7632 L 1312.64,-58.7271 L 1313.46,-58.9267 L 1314.29,-58.9532 L 1315.11,-58.8054
 L 1315.89,-58.4896 L 1316.58,-58.0198 L 1317.16,-57.4164 L 1317.6,-56.7058 L 1317.88,-55.9191 L 1318,-54.9639
 L 1318,-22 L 1317.91,-21.1684 L 1317.65,-20.373 L 1317.24,-19.6489 L 1316.68,-19.0274 L 1316,-18.5359
 L 1315.24,-18.1958 L 1314,-18 z
M 650.479,-18 L 649.364,-18.1585 L 648.589,-18.4743 L 647.898,-18.9441 L 647.319,-19.5475 L 646.878,-20.2581
 L 646.594,-21.0448 L 646.481,-21.8733 L 646.542,-22.7073 L 646.775,-23.5103 L 647.17,-24.2474 L 647.709,-24.8863
 L 648.37,-25.399 L 649.123,-25.7632 L 666.644,-32.0767 L 667.708,-32.3029 L 668.544,-32.2764 L 669.356,-32.0767
 L 686.877,-25.7632 L 687.873,-25.2361 L 688.494,-24.6765 L 688.986,-24 L 689.326,-23.2361 L 689.499,-22.4181
 L 689.499,-21.5819 L 689.326,-20.7639 L 688.986,-20 L 688.494,-19.3235 L 687.873,-18.7639 L 687.148,-18.3458
 L 686.353,-18.0874 L 685.521,-18 z
" stroke="black" fill="lightgray" stroke-width="0.5"/>
</svg>
