<?xml version="1.0" standalone="no"?>
<!DOCTYPE svg PUBLIC "-//W3C//DTD SVG 1.1//EN" "http://www.w3.org/Graphics/SVG/1.1/DTD/svg11.dtd">
<svg width="1110mm" height="80mm" viewBox="0 -80 1110 80" xmlns="http://www.w3.org/2000/svg" version="1.1">
<title>OpenSCAD Model</title>
<path d="
M 1110,-80 L 0,-80 L 0,-0 L 4.95,-0 L 4.95,-6 L 5.00572,-6.53017
 L 5.17046,-7.03717 L 5.437,-7.49884 L 5.79372,-7.895 L 6.22499,-8.20836 L 6.71201,-8.42519 L 7.23344,-8.53603
 L 7.76654,-8.53603 L 8.28798,-8.42519 L 8.77499,-8.20836 L 9.20627,-7.895 L 9.56299,-7.49884 L 9.82953,-7.03717
 L 9.99426,-6.53017 L 10.05,-6 L 10.05,-0 L 187.45,-0 L 187.45,-6 L 187.506,-6.53017
 L 187.67,-7.03717 L 187.937,-7.49884 L 188.294,-7.895 L 188.725,-8.20836 L 189.212,-8.42519 L 189.733,-8.53603
 L 190.267,-8.53603 L 190.788,-8.42519 L 191.275,-8.20836 L 191.706,-7.895 L 192.063,-7.49884 L 192.33,-7.03717
 L 192.494,-6.53017 L 192.55,-6 L 192.55,-0 L 369.95,-0 L 369.95,-6 L 370.006,-6.53017
 L 370.17,-7.03717 L 370.437,-7.49884 L 370.794,-7.895 L 371.225,-8.20836 L 371.712,-8.42519 L 372.233,-8.53603
 L 372.767,-8.53603 L 373.288,-8.42519 L 373.775,-8.20836 L 374.206,-7.895 L 374.563,-7.49884 L 374.83,-7.03717
 L 374.994,-6.53017 L 375.05,-6 L 375.05,-0 L 552.45,-0 L 552.45,-6 L 552.506,-6.53017
 L 552.67,-7.03717 L 552.937,-7.49884 L 553.294,-7.895 L 553.725,-8.20836 L 554.212,-8.42519 L 554.733,-8.53603
 L 555.267,-8.53603 L 555.788,-8.42519 L 556.275,-8.20836 L 556.706,-7.895 L 557.063,-7.49884 L 557.33,-7.03717
 L 557.494,-6.53017 L 557.55,-6 L 557.55,-0 L 734.95,-0 L 734.95,-6 L 735.006,-6.53017
 L 735.17,-7.03717 L 735.437,-7.49884 L 735.794,-7.895 L 736.225,-8.20836 L 736.712,-8.42519 L 737.233,-8.53603
 L 737.767,-8.53603 L 738.288,-8.42519 L 738.775,-8.20836 L 739.206,-7.895 L 739.563,-7.49884 L 739.83,-7.03717
 L 739.994,-6.53017 L 740.05,-6 L 740.05,-0 L 917.45,-0 L 917.45,-6 L 917.506,-6.53017
 L 917.67,-7.03717 L 917.937,-7.49884 L 918.294,-7.895 L 918.725,-8.20836 L 919.212,-8.42519 L 919.733,-8.53603
 L 920.267,-8.53603 L 920.788,-8.42519 L 921.275,-8.20836 L 921.706,-7.895 L 922.063,-7.49884 L 922.33,-7.03717
 L 922.494,-6.53017 L 922.55,-6 L 922.55,-0 L 1099.95,-0 L 1099.95,-6 L 1100.01,-6.53017
 L 1100.17,-7.03717 L 1100.44,-7.49884 L 1100.79,-7.895 L 1101.22,-8.20836 L 1101.71,-8.42519 L 1102.23,-8.53603
 L 1102.77,-8.53603 L 1103.29,-8.42519 L 1103.77,-8.20836 L 1104.21,-7.895 L 1104.56,-7.49884 L 1104.83,-7.03717
 L 1104.99,-6.53017 L 1105.05,-6 L 1105.05,-0 L 1110,-0 z
M 6.98573,-55.607 L 6.47708,-55.6875 L 5.97964,-55.8208 L 5.49887,-56.0054 L 5.04001,-56.2392 L 4.60811,-56.5196
 L 4.20789,-56.8437 L 3.84373,-57.2079 L 3.51964,-57.6081 L 3.23917,-58.04 L 3.00537,-58.4989 L 2.82082,-58.9796
 L 2.68752,-59.4771 L 2.60696,-59.9857 L 2.58,-60.5 L 2.60696,-61.0143 L 2.68752,-61.5229 L 2.82082,-62.0204
 L 3.00537,-62.5011 L 3.23917,-62.96 L 3.51964,-63.3919 L 3.84373,-63.7921 L 4.20789,-64.1563 L 4.60811,-64.4804
 L 4.95001,-64.7024 L 4.95001,-74 L 5.00574,-74.5302 L 5.17047,-75.0372 L 5.43701,-75.4988 L 5.79373,-75.895
 L 6.22501,-76.2084 L 6.71202,-76.4252 L 7.23346,-76.536 L 7.76654,-76.536 L 8.28798,-76.4252 L 8.77499,-76.2084
 L 9.20627,-75.895 L 9.56299,-75.4988 L 9.82953,-75.0372 L 9.99426,-74.5302 L 10.05,-74 L 10.05,-64.7024
 L 10.3919,-64.4804 L 10.7921,-64.1563 L 11.1563,-63.7921 L 11.4804,-63.3919 L 11.7608,-62.96 L 11.9946,-62.5011
 L 12.1792,-62.0204 L 12.3125,-61.5229 L 12.393,-61.0143 L 12.42,-60.5 L 12.393,-59.9857 L 12.3125,-59.4771
 L 12.1792,-58.9796 L 11.9946,-58.4989 L 11.7608,-58.04 L 11.4804,-57.6081 L 11.1563,-57.2079 L 10.7921,-56.8437
 L 10.3919,-56.5196 L 9.95999,-56.2392 L 9.50113,-56.0054 L 9.02036,-55.8208 L 8.52292,-55.6875 L 8.01427,-55.607
 L 7.5,-55.58 z
M 189.486,-55.607 L 188.977,-55.6875 L 188.48,-55.8208 L 187.999,-56.0054 L 187.54,-56.2392 L 187.108,-56.5196
 L 186.708,-56.8437 L 186.344,-57.2079 L 186.02,-57.6081 L 185.739,-58.04 L 185.505,-58.4989 L 185.321,-58.9796
 L 185.188,-59.4771 L 185.107,-59.9857 L 185.08,-60.5 L 185.107,-61.0143 L 185.188,-61.5229 L 185.321,-62.0204
 L 185.505,-62.5011 L 185.739,-62.96 L 186.02,-63.3919 L 186.344,-63.7921 L 186.708,-64.1563 L 187.108,-64.4804
 L 187.45,-64.7024 L 187.45,-74 L 187.506,-74.5302 L 187.67,-75.0372 L 187.937,-75.4988 L 188.294,-75.895
 L 188.725,-76.2084 L 189.212,-76.4252 L 189.733,-76.536 L 190.267,-76.536 L 190.788,-76.4252 L 191.275,-76.2084
 L 191.706,-75.895 L 192.063,-75.4988 L 192.33,-75.0372 L 192.494,-74.5302 L 192.55,-74 L 192.55,-64.7024
 L 192.892,-64.4804 L 193.292,-64.1563 L 193.656,-63.7921 L 193.98,-63.3919 L 194.261,-62.96 L 194.495,-62.5011
 L 194.679,-62.0204 L 194.812,-61.5229 L 194.893,-61.0143 L 194.92,-60.5 L 194.893,-59.9857 L 194.812,-59.4771
 L 194.679,-58.9796 L 194.495,-58.4989 L 194.261,-58.04 L 193.98,-57.6081 L 193.656,-57.2079 L 193.292,-56.8437
 L 192.892,-56.5196 L 192.46,-56.2392 L 192.001,-56.0054 L 191.52,-55.8208 L 191.023,-55.6875 L 190.514,-55.607
 L 190,-55.58 z
M 371.986,-55.607 L 371.477,-55.6875 L 370.98,-55.8208 L 370.499,-56.0054 L 370.04,-56.2392 L 369.608,-56.5196
 L 369.208,-56.8437 L 368.844,-57.2079 L 368.52,-57.6081 L 368.239,-58.04 L 368.005,-58.4989 L 367.821,-58.9796
 L 367.688,-59.4771 L 367.607,-59.9857 L 367.58,-60.5 L 367.607,-61.0143 L 367.688,-61.5229 L 367.821,-62.0204
 L 368.005,-62.5011 L 368.239,-62.96 L 368.52,-63.3919 L 368.844,-63.7921 L 369.208,-64.1563 L 369.608,-64.4804
 L 369.95,-64.7024 L 369.95,-74 L 370.006,-74.5302 L 370.17,-75.0372 L 370.437,-75.4988 L 370.794,-75.895
 L 371.225,-76.2084 L 371.712,-76.4252 L 372.233,-76.536 L 372.767,-76.536 L 373.288,-76.4252 L 373.775,-76.2084
 L 374.206,-75.895 L 374.563,-75.4988 L 374.83,-75.0372 L 374.994,-74.5302 L 375.05,-74 L 375.05,-64.7024
 L 375.392,-64.4804 L 375.792,-64.1563 L 376.156,-63.7921 L 376.48,-63.3919 L 376.761,-62.96 L 376.995,-62.5011
 L 377.179,-62.0204 L 377.312,-61.5229 L 377.393,-61.0143 L 377.42,-60.5 L 377.393,-59.9857 L 377.312,-59.4771
 L 377.179,-58.9796 L 376.995,-58.4989 L 376.761,-58.04 L 376.48,-57.6081 L 376.156,-57.2079 L 375.792,-56.8437
 L 375.392,-56.5196 L 374.96,-56.2392 L 374.501,-56.0054 L 374.02,-55.8208 L 373.523,-55.6875 L 373.014,-55.607
 L 372.5,-55.58 z
M 554.486,-55.607 L 553.977,-55.6875 L 553.48,-55.8208 L 552.999,-56.0054 L 552.54,-56.2392 L 552.108,-56.5196
 L 551.708,-56.8437 L 551.344,-57.2079 L 551.02,-57.6081 L 550.739,-58.04 L 550.505,-58.4989 L 550.321,-58.9796
 L 550.188,-59.4771 L 550.107,-59.9857 L 550.08,-60.5 L 550.107,-61.0143 L 550.188,-61.5229 L 550.321,-62.0204
 L 550.505,-62.5011 L 550.739,-62.96 L 551.02,-63.3919 L 551.344,-63.7921 L 551.708,-64.1563 L 552.108,-64.4804
 L 552.45,-64.7024 L 552.45,-74 L 552.506,-74.5302 L 552.67,-75.0372 L 552.937,-75.4988 L 553.294,-75.895
 L 553.725,-76.2084 L 554.212,-76.4252 L 554.733,-76.536 L 555.267,-76.536 L 555.788,-76.4252 L 556.275,-76.2084
 L 556.706,-75.895 L 557.063,-75.4988 L 557.33,-75.0372 L 557.494,-74.5302 L 557.55,-74 L 557.55,-64.7024
 L 557.892,-64.4804 L 558.292,-64.1563 L 558.656,-63.7921 L 558.98,-63.3919 L 559.261,-62.96 L 559.495,-62.5011
 L 559.679,-62.0204 L 559.812,-61.5229 L 559.893,-61.0143 L 559.92,-60.5 L 559.893,-59.9857 L 559.812,-59.4771
 L 559.679,-58.9796 L 559.495,-58.4989 L 559.261,-58.04 L 558.98,-57.6081 L 558.656,-57.2079 L 558.292,-56.8437
 L 557.892,-56.5196 L 557.46,-56.2392 L 557.001,-56.0054 L 556.52,-55.8208 L 556.023,-55.6875 L 555.514,-55.607
 L 555,-55.58 z
M 736.986,-55.607 L 736.477,-55.6875 L 735.98,-55.8208 L 735.499,-56.0054 L 735.04,-56.2392 L 734.608,-56.5196
 L 734.208,-56.8437 L 733.844,-57.2079 L 733.52,-57.6081 L 733.239,-58.04 L 733.005,-58.4989 L 732.821,-58.9796
 L 732.688,-59.4771 L 732.607,-59.9857 L 732.58,-60.5 L 732.607,-61.0143 L 732.688,-61.5229 L 732.821,-62.0204
 L 733.005,-62.5011 L 733.239,-62.96 L 733.52,-63.3919 L 733.844,-63.7921 L 734.208,-64.1563 L 734.608,-64.4804
 L 734.95,-64.7024 L 734.95,-74 L 735.006,-74.5302 L 735.17,-75.0372 L 735.437,-75.4988 L 735.794,-75.895
 L 736.225,-76.2084 L 736.712,-76.4252 L 737.233,-76.536 L 737.767,-76.536 L 738.288,-76.4252 L 738.775,-76.2084
 L 739.206,-75.895 L 739.563,-75.4988 L 739.83,-75.0372 L 739.994,-74.5302 L 740.05,-74 L 740.05,-64.7024
 L 740.392,-64.4804 L 740.792,-64.1563 L 741.156,-63.7921 L 741.48,-63.3919 L 741.761,-62.96 L 741.995,-62.5011
 L 742.179,-62.0204 L 742.312,-61.5229 L 742.393,-61.0143 L 742.42,-60.5 L 742.393,-59.9857 L 742.312,-59.4771
 L 742.179,-58.9796 L 741.995,-58.4989 L 741.761,-58.04 L 741.48,-57.6081 L 741.156,-57.2079 L 740.792,-56.8437
 L 740.392,-56.5196 L 739.96,-56.2392 L 739.501,-56.0054 L 739.02,-55.8208 L 738.523,-55.6875 L 738.014,-55.607
 L 737.5,-55.58 z
M 919.486,-55.607 L 918.977,-55.6875 L 918.48,-55.8208 L 917.999,-56.0054 L 917.54,-56.2392 L 917.108,-56.5196
 L 916.708,-56.8437 L 916.344,-57.2079 L 916.02,-57.6081 L 915.739,-58.04 L 915.505,-58.4989 L 915.321,-58.9796
 L 915.188,-59.4771 L 915.107,-59.9857 L 915.08,-60.5 L 915.107,-61.0143 L 915.188,-61.5229 L 915.321,-62.0204
 L 915.505,-62.5011 L 915.739,-62.96 L 916.02,-63.3919 L 916.344,-63.7921 L 916.708,-64.1563 L 917.108,-64.4804
 L 917.45,-64.7024 L 917.45,-74 L 917.506,-74.5302 L 917.67,-75.0372 L 917.937,-75.4988 L 918.294,-75.895
 L 918.725,-76.2084 L 919.212,-76.4252 L 919.733,-76.536 L 920.267,-76.536 L 920.788,-76.4252 L 921.275,-76.2084
 L 921.706,-75.895 L 922.063,-75.4988 L 922.33,-75.0372 L 922.494,-74.5302 L 922.55,-74 L 922.55,-64.7024
 L 922.892,-64.4804 L 923.292,-64.1563 L 923.656,-63.7921 L 923.98,-63.3919 L 924.261,-62.96 L 924.495,-62.5011
 L 924.679,-62.0204 L 924.812,-61.5229 L 924.893,-61.0143 L 924.92,-60.5 L 924.893,-59.9857 L 924.812,-59.4771
 L 924.679,-58.9796 L 924.495,-58.4989 L 924.261,-58.04 L 923.98,-57.6081 L 923.656,-57.2079 L 923.292,-56.8437
 L 922.892,-56.5196 L 922.46,-56.2392 L 922.001,-56.0054 L 921.52,-55.8208 L 921.023,-55.6875 L 920.514,-55.607
 L 920,-55.58 z
M 1101.99,-55.607 L 1101.48,-55.6875 L 1100.98,-55.8208 L 1100.5,-56.0054 L 1100.04,-56.2392 L 1099.61,-56.5196
 L 1099.21,-56.8437 L 1098.84,-57.2079 L 1098.52,-57.6081 L 1098.24,-58.04 L 1098.01,-58.4989 L 1097.82,-58.9796
 L 1097.69,-59.4771 L 1097.61,-59.9857 L 1097.58,-60.5 L 1097.61,-61.0143 L 1097.69,-61.5229 L 1097.82,-62.0204
 L 1098.01,-62.5011 L 1098.24,-62.96 L 1098.52,-63.3919 L 1098.84,-63.7921 L 1099.21,-64.1563 L 1099.61,-64.4804
 L 1099.95,-64.7024 L 1099.95,-74 L 1100.01,-74.5302 L 1100.17,-75.0372 L 1100.44,-75.4988 L 1100.79,-75.895
 L 1101.23,-76.2084 L 1101.71,-76.4252 L 1102.23,-76.536 L 1102.77,-76.536 L 1103.29,-76.4252 L 1103.77,-76.2084
 L 1104.21,-75.895 L 1104.56,-75.4988 L 1104.83,-75.0372 L 1104.99,-74.5302 L 1105.05,-74 L 1105.05,-64.7024
 L 1105.39,-64.4804 L 1105.79,-64.1563 L 1106.16,-63.7921 L 1106.48,-63.3919 L 1106.76,-62.96 L 1106.99,-62.5011
 L 1107.18,-62.0204 L 1107.31,-61.5229 L 1107.39,-61.0143 L 1107.42,-60.5 L 1107.39,-59.9857 L 1107.31,-59.4771
 L 1107.18,-58.9796 L 1106.99,-58.4989 L 1106.76,-58.04 L 1106.48,-57.6081 L 1106.16,-57.2079 L 1105.79,-56.8437
 L 1105.39,-56.5196 L 1104.96,-56.2392 L 1104.5,-56.0054 L 1104.02,-55.8208 L 1103.52,-55.6875 L 1103.01,-55.607
 L 1102.5,-55.58 z
M 931.927,-20.8511 L 931.149,-21.1584 L 930.452,-21.6207 L 929.867,-22.2178 L 929.418,-22.9236 L 929.126,-23.7072
 L 929,-24.7044 L 929,-58 L 929.087,-58.8316 L 929.346,-59.627 L 929.764,-60.3511 L 930.323,-60.9726
 L 931,-61.4641 L 931.764,-61.8042 L 933,-62 L 1022.36,-62 L 1023.19,-61.9126 L 1023.99,-61.6542
 L 1024.71,-61.2361 L 1025.33,-60.6765 L 1025.82,-60 L 1026.16,-59.2361 L 1026.34,-58.4181 L 1026.34,-57.5819
 L 1026.16,-56.7639 L 1025.82,-56 L 1025.33,-55.3235 L 1024.71,-54.7639 L 1023.76,-54.2517 L 934.397,-20.9561
 L 933.587,-20.7477 L 932.751,-20.7121 z
M 358.913,-20.7477 L 358.103,-20.9561 L 268.744,-54.2517 L 267.789,-54.7639 L 267.168,-55.3235 L 266.676,-56
 L 266.336,-56.7639 L 266.162,-57.5819 L 266.162,-58.4181 L 266.336,-59.2361 L 266.676,-60 L 267.168,-60.6765
 L 267.789,-61.2361 L 268.513,-61.6542 L 269.309,-61.9126 L 270.14,-62 L 359.5,-62 L 360.736,-61.8042
 L 361.5,-61.4641 L 362.177,-60.9726 L 362.736,-60.3511 L 363.154,-59.627 L 363.413,-58.8316 L 363.5,-58
 L 363.5,-24.7044 L 363.374,-23.7072 L 363.082,-22.9236 L 362.633,-22.2178 L 362.048,-21.6207 L 361.351,-21.1584
 L 360.573,-20.8511 L 359.749,-20.7121 z
M 176.413,-20.7477 L 175.603,-20.9561 L 86.2438,-54.2517 L 85.2893,-54.7639 L 84.6679,-55.3235 L 84.1763,-56
 L 83.8362,-56.7639 L 83.6624,-57.5819 L 83.6624,-58.4181 L 83.8362,-59.2361 L 84.1763,-60 L 84.6679,-60.6765
 L 85.2893,-61.2361 L 86.0135,-61.6542 L 86.8088,-61.9126 L 87.6404,-62 L 177,-62 L 178.236,-61.8042
 L 179,-61.4641 L 179.677,-60.9726 L 180.236,-60.3511 L 180.654,-59.627 L 180.913,-58.8316 L 181,-58
 L 181,-24.7044 L 180.874,-23.7072 L 180.582,-22.9236 L 180.133,-22.2178 L 179.548,-21.6207 L 178.851,-21.1584
 L 178.073,-20.8511 L 177.249,-20.7121 z
M 541.413,-20.7477 L 540.603,-20.9561 L 451.244,-54.2517 L 450.289,-54.7639 L 449.668,-55.3235 L 449.176,-56
 L 448.836,-56.7639 L 448.662,-57.5819 L 448.662,-58.4181 L 448.836,-59.2361 L 449.176,-60 L 449.668,-60.6765
 L 450.289,-61.2361 L 451.013,-61.6542 L 451.809,-61.9126 L 452.64,-62 L 542,-62 L 543.236,-61.8042
 L 544,-61.4641 L 544.677,-60.9726 L 545.236,-60.3511 L 545.654,-59.627 L 545.913,-58.8316 L 546,-58
 L 546,-24.7044 L 545.874,-23.7072 L 545.582,-22.9236 L 545.133,-22.2178 L 544.548,-21.6207 L 543.851,-21.1584
 L 543.073,-20.8511 L 542.249,-20.7121 z
M 566.927,-20.8511 L 566.149,-21.1584 L 565.452,-21.6207 L 564.867,-22.2178 L 564.418,-22.9236 L 564.126,-23.7072
 L 564,-24.7044 L 564,-58 L 564.087,-58.8316 L 564.346,-59.627 L 564.764,-60.3511 L 565.323,-60.9726
 L 566,-61.4641 L 566.764,-61.8042 L 568,-62 L 657.36,-62 L 658.191,-61.9126 L 658.987,-61.6542
 L 659.711,-61.2361 L 660.332,-60.6765 L 660.824,-60 L 661.164,-59.2361 L 661.338,-58.4181 L 661.338,-57.5819
 L 661.164,-56.7639 L 660.824,-56 L 660.332,-55.3235 L 659.711,-54.7639 L 658.756,-54.2517 L 569.397,-20.9561
 L 568.587,-20.7477 L 567.751,-20.7121 z
M 749.427,-20.8511 L 748.649,-21.1584 L 747.952,-21.6207 L 747.367,-22.2178 L 746.918,-22.9236 L 746.626,-23.7072
 L 746.5,-24.7044 L 746.5,-58 L 746.587,-58.8316 L 746.846,-59.627 L 747.264,-60.3511 L 747.823,-60.9726
 L 748.5,-61.4641 L 749.264,-61.8042 L 750.5,-62 L 839.86,-62 L 840.691,-61.9126 L 841.487,-61.6542
 L 842.211,-61.2361 L 842.832,-60.6765 L 843.324,-60 L 843.664,-59.2361 L 843.838,-58.4181 L 843.838,-57.5819
 L 843.664,-56.7639 L 843.324,-56 L 842.832,-55.3235 L 842.211,-54.7639 L 841.256,-54.2517 L 751.897,-20.9561
 L 751.087,-20.7477 L 750.251,-20.7121 z
M 203,-18 L 201.764,-18.1958 L 201,-18.5359 L 200.323,-19.0274 L 199.764,-19.6489 L 199.346,-20.373
 L 199.087,-21.1684 L 199,-22 L 199,-55.2956 L 199.126,-56.2928 L 199.418,-57.0764 L 199.867,-57.7822
 L 200.452,-58.3792 L 201.149,-58.8416 L 201.927,-59.1489 L 202.751,-59.2879 L 203.587,-59.2523 L 204.397,-59.0439
 L 293.756,-25.7483 L 294.711,-25.2361 L 295.332,-24.6765 L 295.824,-24 L 296.164,-23.2361 L 296.338,-22.4181
 L 296.338,-21.5819 L 296.164,-20.7639 L 295.824,-20 L 295.332,-19.3235 L 294.711,-18.7639 L 293.986,-18.3458
 L 293.191,-18.0874 L 292.36,-18 z
M 385.5,-18 L 384.264,-18.1958 L 383.5,-18.5359 L 382.823,-19.0274 L 382.264,-19.6489 L 381.846,-20.373
 L 381.587,-21.1684 L 381.5,-22 L 381.5,-55.2956 L 381.626,-56.2928 L 381.918,-57.0764 L 382.367,-57.7822
 L 382.952,-58.3792 L 383.649,-58.8416 L 384.427,-59.1489 L 385.251,-59.2879 L 386.087,-59.2523 L 386.897,-59.0439
 L 476.256,-25.7483 L 477.211,-25.2361 L 477.832,-24.6765 L 478.324,-24 L 478.664,-23.2361 L 478.838,-22.4181
 L 478.838,-21.5819 L 478.664,-20.7639 L 478.324,-20 L 477.832,-19.3235 L 477.211,-18.7639 L 476.486,-18.3458
 L 475.691,-18.0874 L 474.86,-18 z
M 635.14,-18 L 634.309,-18.0874 L 633.514,-18.3458 L 632.789,-18.7639 L 632.168,-19.3235 L 631.676,-20
 L 631.336,-20.7639 L 631.162,-21.5819 L 631.162,-22.4181 L 631.336,-23.2361 L 631.676,-24 L 632.168,-24.6765
 L 632.789,-25.2361 L 633.744,-25.7483 L 723.103,-59.0439 L 723.913,-59.2523 L 724.749,-59.2879 L 725.573,-59.1489
 L 726.351,-58.8416 L 727.048,-58.3792 L 727.633,-57.7822 L 728.082,-57.0764 L 728.374,-56.2928 L 728.5,-55.2956
 L 728.5,-22 L 728.413,-21.1684 L 728.154,-20.373 L 727.736,-19.6489 L 727.177,-19.0274 L 726.5,-18.5359
 L 725.736,-18.1958 L 724.5,-18 z
M 817.64,-18 L 816.809,-18.0874 L 816.014,-18.3458 L 815.289,-18.7639 L 814.668,-19.3235 L 814.176,-20
 L 813.836,-20.7639 L 813.662,-21.5819 L 813.662,-22.4181 L 813.836,-23.2361 L 814.176,-24 L 814.668,-24.6765
 L 815.289,-25.2361 L 816.244,-25.7483 L 905.603,-59.0439 L 906.413,-59.2523 L 907.249,-59.2879 L 908.073,-59.1489
 L 908.851,-58.8416 L 909.548,-58.3792 L 910.133,-57.7822 L 910.582,-57.0764 L 910.874,-56.2928 L 911,-55.2956
 L 911,-22 L 910.913,-21.1684 L 910.654,-20.373 L 910.236,-19.6489 L 909.677,-19.0274 L 909,-18.5359
 L 908.236,-18.1958 L 907,-18 z
M 1000.14,-18 L 999.309,-18.0874 L 998.514,-18.3458 L 997.789,-18.7639 L 997.168,-19.3235 L 996.676,-20
 L 996.336,-20.7639 L 996.162,-21.5819 L 996.162,-22.4181 L 996.336,-23.2361 L 996.676,-24 L 997.168,-24.6765
 L 997.789,-25.2361 L 998.744,-25.7483 L 1086.6,-58.485 L 1087.41,-58.6934 L 1088.25,-58.729 L 1089.07,-58.59
 L 1089.85,-58.2827 L 1090.55,-57.8203 L 1091.13,-57.2232 L 1091.58,-56.5175 L 1091.87,-55.7339 L 1092,-54.7367
 L 1092,-22 L 1091.91,-21.1684 L 1091.65,-20.373 L 1091.24,-19.6489 L 1090.68,-19.0274 L 1090,-18.5359
 L 1089.24,-18.1958 L 1088,-18 z
M 22,-18 L 20.7639,-18.1958 L 20,-18.5359 L 19.3235,-19.0274 L 18.7639,-19.6489 L 18.3458,-20.373
 L 18.0874,-21.1684 L 18,-22 L 18,-54.7367 L 18.1263,-55.7339 L 18.4183,-56.5175 L 18.8668,-57.2232
 L 19.4522,-57.8203 L 20.149,-58.2827 L 20.9267,-58.59 L 21.7513,-58.729 L 22.5868,-58.6934 L 23.3966,-58.485
 L 111.256,-25.7483 L 112.211,-25.2361 L 112.832,-24.6765 L 113.324,-24 L 113.664,-23.2361 L 113.838,-22.4181
 L 113.838,-21.5819 L 113.664,-20.7639 L 113.324,-20 L 112.832,-19.3235 L 112.211,-18.7639 L 111.486,-18.3458
 L 110.691,-18.0874 L 109.86,-18 z
" stroke="black" fill="lightgray" stroke-width="0.5"/>
</svg>
