<?xml version="1.0" standalone="no"?>
<!DOCTYPE svg PUBLIC "-//W3C//DTD SVG 1.1//EN" "http://www.w3.org/Graphics/SVG/1.1/DTD/svg11.dtd">
<svg width="1213mm" height="80mm" viewBox="0 -80 1213 80" xmlns="http://www.w3.org/2000/svg" version="1.1">
<title>OpenSCAD Model</title>
<path d="
M 1213,-80 L 0,-80 L 0,-0 L 4.95,-0 L 4.95,-6 L 5.00572,-6.53017
 L 5.17046,-7.03717 L 5.437,-7.49884 L 5.79372,-7.895 L 6.22499,-8.20836 L 6.71201,-8.42519 L 7.23344,-8.53603
 L 7.76654,-8.53603 L 8.28798,-8.42519 L 8.77499,-8.20836 L 9.20627,-7.895 L 9.56299,-7.49884 L 9.82953,-7.03717
 L 9.99426,-6.53017 L 10.05,-6 L 10.05,-0 L 176.093,-0 L 176.093,-6 L 176.149,-6.53017
 L 176.313,-7.03717 L 176.58,-7.49884 L 176.937,-7.895 L 177.368,-8.20836 L 177.855,-8.42519 L 178.376,-8.53603
 L 178.909,-8.53603 L 179.431,-8.42519 L 179.918,-8.20836 L 180.349,-7.895 L 180.706,-7.49884 L 180.972,-7.03717
 L 181.137,-6.53017 L 181.193,-6 L 181.193,-0 L 347.236,-0 L 347.236,-6 L 347.291,-6.53017
 L 347.456,-7.03717 L 347.723,-7.49884 L 348.079,-7.895 L 348.511,-8.20836 L 348.998,-8.42519 L 349.519,-8.53603
 L 350.052,-8.53603 L 350.574,-8.42519 L 351.061,-8.20836 L 351.492,-7.895 L 351.849,-7.49884 L 352.115,-7.03717
 L 352.28,-6.53017 L 352.336,-6 L 352.336,-0 L 518.379,-0 L 518.379,-6 L 518.434,-6.53017
 L 518.599,-7.03717 L 518.866,-7.49884 L 519.222,-7.895 L 519.654,-8.20836 L 520.141,-8.42519 L 520.662,-8.53603
 L 521.195,-8.53603 L 521.717,-8.42519 L 522.204,-8.20836 L 522.635,-7.895 L 522.992,-7.49884 L 523.258,-7.03717
 L 523.423,-6.53017 L 523.479,-6 L 523.479,-0 L 689.521,-0 L 689.521,-6 L 689.577,-6.53017
 L 689.742,-7.03717 L 690.008,-7.49884 L 690.365,-7.895 L 690.796,-8.20836 L 691.283,-8.42519 L 691.805,-8.53603
 L 692.338,-8.53603 L 692.859,-8.42519 L 693.346,-8.20836 L 693.778,-7.895 L 694.134,-7.49884 L 694.401,-7.03717
 L 694.566,-6.53017 L 694.621,-6 L 694.621,-0 L 860.664,-0 L 860.664,-6 L 860.72,-6.53017
 L 860.885,-7.03717 L 861.151,-7.49884 L 861.508,-7.895 L 861.939,-8.20836 L 862.426,-8.42519 L 862.948,-8.53603
 L 863.481,-8.53603 L 864.002,-8.42519 L 864.489,-8.20836 L 864.921,-7.895 L 865.277,-7.49884 L 865.544,-7.03717
 L 865.709,-6.53017 L 865.764,-6 L 865.764,-0 L 1031.81,-0 L 1031.81,-6 L 1031.86,-6.53017
 L 1032.03,-7.03717 L 1032.29,-7.49884 L 1032.65,-7.895 L 1033.08,-8.20836 L 1033.57,-8.42519 L 1034.09,-8.53603
 L 1034.62,-8.53603 L 1035.15,-8.42519 L 1035.63,-8.20836 L 1036.06,-7.895 L 1036.42,-7.49884 L 1036.69,-7.03717
 L 1036.85,-6.53017 L 1036.91,-6 L 1036.91,-0 L 1202.95,-0 L 1202.95,-6 L 1203.01,-6.53017
 L 1203.17,-7.03717 L 1203.44,-7.49884 L 1203.79,-7.895 L 1204.22,-8.20836 L 1204.71,-8.42519 L 1205.23,-8.53603
 L 1205.77,-8.53603 L 1206.29,-8.42519 L 1206.77,-8.20836 L 1207.21,-7.895 L 1207.56,-7.49884 L 1207.83,-7.03717
 L 1207.99,-6.53017 L 1208.05,-6 L 1208.05,-0 L 1213,-0 z
M 6.98573,-55.607 L 6.47708,-55.6875 L 5.97964,-55.8208 L 5.49887,-56.0054 L 5.04001,-56.2392 L 4.60811,-56.5196
 L 4.20789,-56.8437 L 3.84373,-57.2079 L 3.51964,-57.6081 L 3.23917,-58.04 L 3.00537,-58.4989 L 2.82082,-58.9796
 L 2.68752,-59.4771 L 2.60696,-59.9857 L 2.58,-60.5 L 2.60696,-61.0143 L 2.68752,-61.5229 L 2.82082,-62.0204
 L 3.00537,-62.5011 L 3.23917,-62.96 L 3.51964,-63.3919 L 3.84373,-63.7921 L 4.20789,-64.1563 L 4.60811,-64.4804
 L 4.95001,-64.7024 L 4.95001,-74 L 5.00574,-74.5302 L 5.17047,-75.0372 L 5.43701,-75.4988 L 5.79373,-75.895
 L 6.22501,-76.2084 L 6.71202,-76.4252 L 7.23346,-76.536 L 7.76654,-76.536 L 8.28798,-76.4252 L 8.77499,-76.2084
 L 9.20627,-75.895 L 9.56299,-75.4988 L 9.82953,-75.0372 L 9.99426,-74.5302 L 10.05,-74 L 10.05,-64.7024
 L 10.3919,-64.4804 L 10.7921,-64.1563 L 11.1563,-63.7921 L 11.4804,-63.3919 L 11.7608,-62.96 L 11.9946,-62.5011
 L 12.1792,-62.0204 L 12.3125,-61.5229 L 12.393,-61.0143 L 12.42,-60.5 L 12.393,-59.9857 L 12.3125,-59.4771
 L 12.1792,-58.9796 L 11.9946,-58.4989 L 11.7608,-58.04 L 11.4804,-57.6081 L 11.1563,-57.2079 L 10.7921,-56.8437
 L 10.3919,-56.5196 L 9.95999,-56.2392 L 9.50113,-56.0054 L 9.02036,-55.8208 L 8.52292,-55.6875 L 8.01427,-55.607
 L 7.5,-55.58 z
M 178.129,-55.607 L 177.62,-55.6875 L 177.122,-55.8208 L 176.642,-56.0054 L 176.183,-56.2392 L 175.751,-56.5196
 L 175.351,-56.8437 L 174.987,-57.2079 L 174.662,-57.6081 L 174.382,-58.04 L 174.148,-58.4989 L 173.964,-58.9796
 L 173.83,-59.4771 L 173.75,-59.9857 L 173.723,-60.5 L 173.75,-61.0143 L 173.83,-61.5229 L 173.964,-62.0204
 L 174.148,-62.5011 L 174.382,-62.96 L 174.662,-63.3919 L 174.987,-63.7921 L 175.351,-64.1563 L 175.751,-64.4804
 L 176.093,-64.7024 L 176.093,-74 L 176.149,-74.5302 L 176.313,-75.0372 L 176.58,-75.4988 L 176.937,-75.895
 L 177.368,-76.2084 L 177.855,-76.4252 L 178.376,-76.536 L 178.909,-76.536 L 179.431,-76.4252 L 179.918,-76.2084
 L 180.349,-75.895 L 180.706,-75.4988 L 180.972,-75.0372 L 181.137,-74.5302 L 181.193,-74 L 181.193,-64.7024
 L 181.535,-64.4804 L 181.935,-64.1563 L 182.299,-63.7921 L 182.623,-63.3919 L 182.904,-62.96 L 183.137,-62.5011
 L 183.322,-62.0204 L 183.455,-61.5229 L 183.536,-61.0143 L 183.563,-60.5 L 183.536,-59.9857 L 183.455,-59.4771
 L 183.322,-58.9796 L 183.137,-58.4989 L 182.904,-58.04 L 182.623,-57.6081 L 182.299,-57.2079 L 181.935,-56.8437
 L 181.535,-56.5196 L 181.103,-56.2392 L 180.644,-56.0054 L 180.163,-55.8208 L 179.666,-55.6875 L 179.157,-55.607
 L 178.643,-55.58 z
M 349.271,-55.607 L 348.763,-55.6875 L 348.265,-55.8208 L 347.785,-56.0054 L 347.326,-56.2392 L 346.894,-56.5196
 L 346.494,-56.8437 L 346.129,-57.2079 L 345.805,-57.6081 L 345.525,-58.04 L 345.291,-58.4989 L 345.107,-58.9796
 L 344.973,-59.4771 L 344.893,-59.9857 L 344.866,-60.5 L 344.893,-61.0143 L 344.973,-61.5229 L 345.107,-62.0204
 L 345.291,-62.5011 L 345.525,-62.96 L 345.805,-63.3919 L 346.129,-63.7921 L 346.494,-64.1563 L 346.894,-64.4804
 L 347.236,-64.7024 L 347.236,-74 L 347.291,-74.5302 L 347.456,-75.0372 L 347.723,-75.4988 L 348.079,-75.895
 L 348.511,-76.2084 L 348.998,-76.4252 L 349.519,-76.536 L 350.052,-76.536 L 350.574,-76.4252 L 351.061,-76.2084
 L 351.492,-75.895 L 351.849,-75.4988 L 352.115,-75.0372 L 352.28,-74.5302 L 352.336,-74 L 352.336,-64.7024
 L 352.678,-64.4804 L 353.078,-64.1563 L 353.442,-63.7921 L 353.766,-63.3919 L 354.047,-62.96 L 354.28,-62.5011
 L 354.465,-62.0204 L 354.598,-61.5229 L 354.679,-61.0143 L 354.706,-60.5 L 354.679,-59.9857 L 354.598,-59.4771
 L 354.465,-58.9796 L 354.28,-58.4989 L 354.047,-58.04 L 353.766,-57.6081 L 353.442,-57.2079 L 353.078,-56.8437
 L 352.678,-56.5196 L 352.246,-56.2392 L 351.787,-56.0054 L 351.306,-55.8208 L 350.809,-55.6875 L 350.3,-55.607
 L 349.786,-55.58 z
M 520.414,-55.607 L 519.906,-55.6875 L 519.408,-55.8208 L 518.927,-56.0054 L 518.469,-56.2392 L 518.037,-56.5196
 L 517.636,-56.8437 L 517.272,-57.2079 L 516.948,-57.6081 L 516.668,-58.04 L 516.434,-58.4989 L 516.249,-58.9796
 L 516.116,-59.4771 L 516.036,-59.9857 L 516.009,-60.5 L 516.036,-61.0143 L 516.116,-61.5229 L 516.249,-62.0204
 L 516.434,-62.5011 L 516.668,-62.96 L 516.948,-63.3919 L 517.272,-63.7921 L 517.636,-64.1563 L 518.037,-64.4804
 L 518.379,-64.7024 L 518.379,-74 L 518.434,-74.5302 L 518.599,-75.0372 L 518.866,-75.4988 L 519.222,-75.895
 L 519.654,-76.2084 L 520.141,-76.4252 L 520.662,-76.536 L 521.195,-76.536 L 521.717,-76.4252 L 522.204,-76.2084
 L 522.635,-75.895 L 522.992,-75.4988 L 523.258,-75.0372 L 523.423,-74.5302 L 523.479,-74 L 523.479,-64.7024
 L 523.82,-64.4804 L 524.221,-64.1563 L 524.585,-63.7921 L 524.909,-63.3919 L 525.189,-62.96 L 525.423,-62.5011
 L 525.608,-62.0204 L 525.741,-61.5229 L 525.822,-61.0143 L 525.849,-60.5 L 525.822,-59.9857 L 525.741,-59.4771
 L 525.608,-58.9796 L 525.423,-58.4989 L 525.189,-58.04 L 524.909,-57.6081 L 524.585,-57.2079 L 524.221,-56.8437
 L 523.82,-56.5196 L 523.389,-56.2392 L 522.93,-56.0054 L 522.449,-55.8208 L 521.951,-55.6875 L 521.443,-55.607
 L 520.929,-55.58 z
M 691.557,-55.607 L 691.049,-55.6875 L 690.551,-55.8208 L 690.07,-56.0054 L 689.611,-56.2392 L 689.18,-56.5196
 L 688.779,-56.8437 L 688.415,-57.2079 L 688.091,-57.6081 L 687.811,-58.04 L 687.577,-58.4989 L 687.392,-58.9796
 L 687.259,-59.4771 L 687.178,-59.9857 L 687.151,-60.5 L 687.178,-61.0143 L 687.259,-61.5229 L 687.392,-62.0204
 L 687.577,-62.5011 L 687.811,-62.96 L 688.091,-63.3919 L 688.415,-63.7921 L 688.779,-64.1563 L 689.18,-64.4804
 L 689.521,-64.7024 L 689.521,-74 L 689.577,-74.5302 L 689.742,-75.0372 L 690.008,-75.4988 L 690.365,-75.895
 L 690.796,-76.2084 L 691.283,-76.4252 L 691.805,-76.536 L 692.338,-76.536 L 692.859,-76.4252 L 693.346,-76.2084
 L 693.778,-75.895 L 694.134,-75.4988 L 694.401,-75.0372 L 694.566,-74.5302 L 694.621,-74 L 694.621,-64.7024
 L 694.963,-64.4804 L 695.364,-64.1563 L 695.728,-63.7921 L 696.052,-63.3919 L 696.332,-62.96 L 696.566,-62.5011
 L 696.751,-62.0204 L 696.884,-61.5229 L 696.964,-61.0143 L 696.991,-60.5 L 696.964,-59.9857 L 696.884,-59.4771
 L 696.751,-58.9796 L 696.566,-58.4989 L 696.332,-58.04 L 696.052,-57.6081 L 695.728,-57.2079 L 695.364,-56.8437
 L 694.963,-56.5196 L 694.531,-56.2392 L 694.073,-56.0054 L 693.592,-55.8208 L 693.094,-55.6875 L 692.586,-55.607
 L 692.071,-55.58 z
M 862.7,-55.607 L 862.191,-55.6875 L 861.694,-55.8208 L 861.213,-56.0054 L 860.754,-56.2392 L 860.322,-56.5196
 L 859.922,-56.8437 L 859.558,-57.2079 L 859.234,-57.6081 L 858.953,-58.04 L 858.72,-58.4989 L 858.535,-58.9796
 L 858.402,-59.4771 L 858.321,-59.9857 L 858.294,-60.5 L 858.321,-61.0143 L 858.402,-61.5229 L 858.535,-62.0204
 L 858.72,-62.5011 L 858.953,-62.96 L 859.234,-63.3919 L 859.558,-63.7921 L 859.922,-64.1563 L 860.322,-64.4804
 L 860.664,-64.7024 L 860.664,-74 L 860.72,-74.5302 L 860.885,-75.0372 L 861.151,-75.4988 L 861.508,-75.895
 L 861.939,-76.2084 L 862.426,-76.4252 L 862.948,-76.536 L 863.481,-76.536 L 864.002,-76.4252 L 864.489,-76.2084
 L 864.921,-75.895 L 865.277,-75.4988 L 865.544,-75.0372 L 865.709,-74.5302 L 865.764,-74 L 865.764,-64.7024
 L 866.106,-64.4804 L 866.506,-64.1563 L 866.871,-63.7921 L 867.195,-63.3919 L 867.475,-62.96 L 867.709,-62.5011
 L 867.893,-62.0204 L 868.027,-61.5229 L 868.107,-61.0143 L 868.134,-60.5 L 868.107,-59.9857 L 868.027,-59.4771
 L 867.893,-58.9796 L 867.709,-58.4989 L 867.475,-58.04 L 867.195,-57.6081 L 866.871,-57.2079 L 866.506,-56.8437
 L 866.106,-56.5196 L 865.674,-56.2392 L 865.215,-56.0054 L 864.735,-55.8208 L 864.237,-55.6875 L 863.729,-55.607
 L 863.214,-55.58 z
M 1033.84,-55.607 L 1033.33,-55.6875 L 1032.84,-55.8208 L 1032.36,-56.0054 L 1031.9,-56.2392 L 1031.47,-56.5196
 L 1031.07,-56.8437 L 1030.7,-57.2079 L 1030.38,-57.6081 L 1030.1,-58.04 L 1029.86,-58.4989 L 1029.68,-58.9796
 L 1029.54,-59.4771 L 1029.46,-59.9857 L 1029.44,-60.5 L 1029.46,-61.0143 L 1029.54,-61.5229 L 1029.68,-62.0204
 L 1029.86,-62.5011 L 1030.1,-62.96 L 1030.38,-63.3919 L 1030.7,-63.7921 L 1031.07,-64.1563 L 1031.47,-64.4804
 L 1031.81,-64.7024 L 1031.81,-74 L 1031.86,-74.5302 L 1032.03,-75.0372 L 1032.29,-75.4988 L 1032.65,-75.895
 L 1033.08,-76.2084 L 1033.57,-76.4252 L 1034.09,-76.536 L 1034.62,-76.536 L 1035.15,-76.4252 L 1035.63,-76.2084
 L 1036.06,-75.895 L 1036.42,-75.4988 L 1036.69,-75.0372 L 1036.85,-74.5302 L 1036.91,-74 L 1036.91,-64.7024
 L 1037.25,-64.4804 L 1037.65,-64.1563 L 1038.01,-63.7921 L 1038.34,-63.3919 L 1038.62,-62.96 L 1038.85,-62.5011
 L 1039.04,-62.0204 L 1039.17,-61.5229 L 1039.25,-61.0143 L 1039.28,-60.5 L 1039.25,-59.9857 L 1039.17,-59.4771
 L 1039.04,-58.9796 L 1038.85,-58.4989 L 1038.62,-58.04 L 1038.34,-57.6081 L 1038.01,-57.2079 L 1037.65,-56.8437
 L 1037.25,-56.5196 L 1036.82,-56.2392 L 1036.36,-56.0054 L 1035.88,-55.8208 L 1035.38,-55.6875 L 1034.87,-55.607
 L 1034.36,-55.58 z
M 1204.99,-55.607 L 1204.48,-55.6875 L 1203.98,-55.8208 L 1203.5,-56.0054 L 1203.04,-56.2392 L 1202.61,-56.5196
 L 1202.21,-56.8437 L 1201.84,-57.2079 L 1201.52,-57.6081 L 1201.24,-58.04 L 1201.01,-58.4989 L 1200.82,-58.9796
 L 1200.69,-59.4771 L 1200.61,-59.9857 L 1200.58,-60.5 L 1200.61,-61.0143 L 1200.69,-61.5229 L 1200.82,-62.0204
 L 1201.01,-62.5011 L 1201.24,-62.96 L 1201.52,-63.3919 L 1201.84,-63.7921 L 1202.21,-64.1563 L 1202.61,-64.4804
 L 1202.95,-64.7024 L 1202.95,-74 L 1203.01,-74.5302 L 1203.17,-75.0372 L 1203.44,-75.4988 L 1203.79,-75.895
 L 1204.23,-76.2084 L 1204.71,-76.4252 L 1205.23,-76.536 L 1205.77,-76.536 L 1206.29,-76.4252 L 1206.77,-76.2084
 L 1207.21,-75.895 L 1207.56,-75.4988 L 1207.83,-75.0372 L 1207.99,-74.5302 L 1208.05,-74 L 1208.05,-64.7024
 L 1208.39,-64.4804 L 1208.79,-64.1563 L 1209.16,-63.7921 L 1209.48,-63.3919 L 1209.76,-62.96 L 1209.99,-62.5011
 L 1210.18,-62.0204 L 1210.31,-61.5229 L 1210.39,-61.0143 L 1210.42,-60.5 L 1210.39,-59.9857 L 1210.31,-59.4771
 L 1210.18,-58.9796 L 1209.99,-58.4989 L 1209.76,-58.04 L 1209.48,-57.6081 L 1209.16,-57.2079 L 1208.79,-56.8437
 L 1208.39,-56.5196 L 1207.96,-56.2392 L 1207.5,-56.0054 L 1207.02,-55.8208 L 1206.52,-55.6875 L 1206.01,-55.607
 L 1205.5,-55.58 z
M 704.081,-21.2667 L 703.297,-21.5573 L 702.591,-22.0045 L 701.992,-22.5888 L 701.529,-23.2848 L 701.22,-24.0619
 L 701.071,-25.1423 L 701.071,-58 L 701.159,-58.8316 L 701.417,-59.627 L 701.835,-60.3511 L 702.395,-60.9726
 L 703.071,-61.4641 L 703.835,-61.8042 L 705.071,-62 L 787.768,-62 L 788.6,-61.9126 L 789.395,-61.6542
 L 790.119,-61.2361 L 790.741,-60.6765 L 791.232,-60 L 791.572,-59.2361 L 791.746,-58.4181 L 791.746,-57.5819
 L 791.572,-56.7639 L 791.232,-56 L 790.741,-55.3235 L 790.119,-54.7639 L 789.245,-54.2827 L 706.548,-21.4249
 L 705.743,-21.1991 L 704.909,-21.1456 z
M 605.828,-47.8835 L 605.023,-48.1094 L 589.486,-54.2827 L 588.612,-54.7639 L 587.99,-55.3235 L 587.499,-56
 L 587.159,-56.7639 L 586.985,-57.5819 L 586.985,-58.4181 L 587.159,-59.2361 L 587.499,-60 L 587.99,-60.6765
 L 588.612,-61.2361 L 589.336,-61.6542 L 590.131,-61.9126 L 590.963,-62 L 622.037,-62 L 623.027,-61.8755
 L 623.811,-61.585 L 624.518,-61.1378 L 625.116,-60.5534 L 625.58,-59.8575 L 625.888,-59.0803 L 626.029,-58.256
 L 625.995,-57.4205 L 625.788,-56.6102 L 625.417,-55.8608 L 624.898,-55.2048 L 624.255,-54.671 L 623.514,-54.2827
 L 607.977,-48.1094 L 607.49,-47.9512 L 606.663,-47.83 z
M 507.257,-21.1991 L 506.452,-21.4249 L 423.755,-54.2827 L 422.881,-54.7639 L 422.259,-55.3235 L 421.768,-56
 L 421.428,-56.7639 L 421.254,-57.5819 L 421.254,-58.4181 L 421.428,-59.2361 L 421.768,-60 L 422.259,-60.6765
 L 422.881,-61.2361 L 423.605,-61.6542 L 424.4,-61.9126 L 425.232,-62 L 507.929,-62 L 509.165,-61.8042
 L 509.929,-61.4641 L 510.605,-60.9726 L 511.165,-60.3511 L 511.583,-59.627 L 511.841,-58.8316 L 511.929,-58
 L 511.929,-25.1423 L 511.78,-24.0619 L 511.471,-23.2848 L 511.008,-22.5888 L 510.409,-22.0045 L 509.703,-21.5573
 L 508.919,-21.2667 L 508.091,-21.1456 z
M 336.114,-21.1991 L 335.309,-21.4249 L 252.612,-54.2827 L 251.738,-54.7639 L 251.117,-55.3235 L 250.625,-56
 L 250.285,-56.7639 L 250.111,-57.5819 L 250.111,-58.4181 L 250.285,-59.2361 L 250.625,-60 L 251.117,-60.6765
 L 251.738,-61.2361 L 252.462,-61.6542 L 253.257,-61.9126 L 254.089,-62 L 336.786,-62 L 338.022,-61.8042
 L 338.786,-61.4641 L 339.462,-60.9726 L 340.022,-60.3511 L 340.44,-59.627 L 340.698,-58.8316 L 340.786,-58
 L 340.786,-25.1423 L 340.637,-24.0619 L 340.328,-23.2848 L 339.865,-22.5888 L 339.266,-22.0045 L 338.56,-21.5573
 L 337.776,-21.2667 L 336.948,-21.1456 z
M 1046.37,-21.2667 L 1045.58,-21.5573 L 1044.88,-22.0045 L 1044.28,-22.5888 L 1043.81,-23.2848 L 1043.51,-24.0619
 L 1043.36,-25.1423 L 1043.36,-58 L 1043.44,-58.8316 L 1043.7,-59.627 L 1044.12,-60.3511 L 1044.68,-60.9726
 L 1045.36,-61.4641 L 1046.12,-61.8042 L 1047.36,-62 L 1130.05,-62 L 1130.89,-61.9126 L 1131.68,-61.6542
 L 1132.4,-61.2361 L 1133.03,-60.6765 L 1133.52,-60 L 1133.86,-59.2361 L 1134.03,-58.4181 L 1134.03,-57.5819
 L 1133.86,-56.7639 L 1133.52,-56 L 1133.03,-55.3235 L 1132.4,-54.7639 L 1131.53,-54.2827 L 1048.83,-21.4249
 L 1048.03,-21.1991 L 1047.19,-21.1456 z
M 164.971,-21.1991 L 164.166,-21.4249 L 81.4693,-54.2827 L 80.5951,-54.7639 L 79.9737,-55.3235 L 79.4822,-56
 L 79.142,-56.7639 L 78.9682,-57.5819 L 78.9682,-58.4181 L 79.142,-59.2361 L 79.4822,-60 L 79.9737,-60.6765
 L 80.5951,-61.2361 L 81.3193,-61.6542 L 82.1146,-61.9126 L 82.9463,-62 L 165.643,-62 L 166.879,-61.8042
 L 167.643,-61.4641 L 168.319,-60.9726 L 168.879,-60.3511 L 169.297,-59.627 L 169.555,-58.8316 L 169.643,-58
 L 169.643,-25.1423 L 169.494,-24.0619 L 169.185,-23.2848 L 168.722,-22.5888 L 168.124,-22.0045 L 167.417,-21.5573
 L 166.633,-21.2667 L 165.806,-21.1456 z
M 875.224,-21.2667 L 874.44,-21.5573 L 873.733,-22.0045 L 873.135,-22.5888 L 872.672,-23.2848 L 872.363,-24.0619
 L 872.214,-25.1423 L 872.214,-58 L 872.302,-58.8316 L 872.56,-59.627 L 872.978,-60.3511 L 873.538,-60.9726
 L 874.214,-61.4641 L 874.978,-61.8042 L 876.214,-62 L 958.911,-62 L 959.743,-61.9126 L 960.538,-61.6542
 L 961.262,-61.2361 L 961.883,-60.6765 L 962.375,-60 L 962.715,-59.2361 L 962.889,-58.4181 L 962.889,-57.5819
 L 962.715,-56.7639 L 962.375,-56 L 961.883,-55.3235 L 961.262,-54.7639 L 960.388,-54.2827 L 877.691,-21.4249
 L 876.886,-21.1991 L 876.052,-21.1456 z
M 533.51,-19.0139 L 532.692,-19.1877 L 531.929,-19.5279 L 531.252,-20.0194 L 530.692,-20.6408 L 530.274,-21.365
 L 530.016,-22.1603 L 529.929,-22.992 L 529.929,-57.008 L 530.077,-58.0884 L 530.386,-58.8655 L 530.85,-59.5614
 L 531.448,-60.1458 L 532.154,-60.593 L 532.938,-60.8836 L 533.766,-61.0047 L 534.6,-60.9512 L 535.406,-60.7253
 L 578.211,-43.7173 L 579.215,-43.1378 L 579.813,-42.5534 L 580.277,-41.8575 L 580.586,-41.0803 L 580.726,-40.256
 L 580.692,-39.4205 L 580.485,-38.6102 L 580.114,-37.8608 L 579.596,-37.2048 L 578.952,-36.671 L 578.211,-36.2827
 L 535.406,-19.2747 L 534.347,-19.0139 z
M 678.4,-19.0488 L 677.594,-19.2746 L 634.788,-36.2827 L 633.785,-36.8622 L 633.186,-37.4466 L 632.723,-38.1425
 L 632.414,-38.9197 L 632.274,-39.744 L 632.308,-40.5795 L 632.515,-41.3898 L 632.886,-42.1392 L 633.404,-42.7952
 L 634.048,-43.329 L 634.788,-43.7173 L 677.594,-60.7254 L 678.653,-60.9861 L 679.49,-60.9861 L 680.307,-60.8123
 L 681.071,-60.4721 L 681.748,-59.9806 L 682.307,-59.3592 L 682.726,-58.635 L 682.984,-57.8397 L 683.071,-57.008
 L 683.071,-22.992 L 682.923,-21.9116 L 682.614,-21.1345 L 682.15,-20.4385 L 681.552,-19.8542 L 680.846,-19.407
 L 680.061,-19.1164 L 679.234,-18.9953 z
M 191.643,-18 L 190.407,-18.1958 L 189.643,-18.5359 L 188.966,-19.0274 L 188.407,-19.6489 L 187.989,-20.373
 L 187.73,-21.1684 L 187.643,-22 L 187.643,-54.8577 L 187.792,-55.9381 L 188.1,-56.7152 L 188.564,-57.4111
 L 189.162,-57.9955 L 189.869,-58.4427 L 190.653,-58.7333 L 191.48,-58.8544 L 192.315,-58.8009 L 193.12,-58.575
 L 275.816,-25.7173 L 276.691,-25.2361 L 277.312,-24.6765 L 277.803,-24 L 278.144,-23.2361 L 278.317,-22.4181
 L 278.317,-21.5819 L 278.144,-20.7639 L 277.803,-20 L 277.312,-19.3235 L 276.691,-18.7639 L 275.966,-18.3458
 L 275.171,-18.0874 L 274.339,-18 z
M 362.786,-18 L 361.55,-18.1958 L 360.786,-18.5359 L 360.109,-19.0274 L 359.55,-19.6489 L 359.132,-20.373
 L 358.873,-21.1684 L 358.786,-22 L 358.786,-54.8577 L 358.934,-55.9381 L 359.243,-56.7152 L 359.707,-57.4111
 L 360.305,-57.9955 L 361.012,-58.4427 L 361.796,-58.7333 L 362.623,-58.8544 L 363.458,-58.8009 L 364.263,-58.575
 L 446.959,-25.7173 L 447.833,-25.2361 L 448.455,-24.6765 L 448.946,-24 L 449.286,-23.2361 L 449.46,-22.4181
 L 449.46,-21.5819 L 449.286,-20.7639 L 448.946,-20 L 448.455,-19.3235 L 447.833,-18.7639 L 447.109,-18.3458
 L 446.314,-18.0874 L 445.482,-18 z
M 767.518,-18 L 766.686,-18.0874 L 765.891,-18.3458 L 765.167,-18.7639 L 764.545,-19.3235 L 764.054,-20
 L 763.714,-20.7639 L 763.54,-21.5819 L 763.54,-22.4181 L 763.714,-23.2361 L 764.054,-24 L 764.545,-24.6765
 L 765.167,-25.2361 L 766.041,-25.7173 L 848.737,-58.575 L 849.542,-58.8009 L 850.377,-58.8544 L 851.204,-58.7333
 L 851.988,-58.4427 L 852.695,-57.9955 L 853.293,-57.4111 L 853.757,-56.7152 L 854.066,-55.9381 L 854.214,-54.8577
 L 854.214,-22 L 854.127,-21.1684 L 853.868,-20.373 L 853.45,-19.6489 L 852.891,-19.0274 L 852.214,-18.5359
 L 851.45,-18.1958 L 850.214,-18 z
M 938.661,-18 L 937.829,-18.0874 L 937.034,-18.3458 L 936.309,-18.7639 L 935.688,-19.3235 L 935.196,-20
 L 934.856,-20.7639 L 934.682,-21.5819 L 934.682,-22.4181 L 934.856,-23.2361 L 935.196,-24 L 935.688,-24.6765
 L 936.309,-25.2361 L 937.184,-25.7173 L 1019.88,-58.575 L 1020.69,-58.8009 L 1021.52,-58.8544 L 1022.35,-58.7333
 L 1023.13,-58.4427 L 1023.84,-57.9955 L 1024.44,-57.4111 L 1024.9,-56.7152 L 1025.21,-55.9381 L 1025.36,-54.8577
 L 1025.36,-22 L 1025.27,-21.1684 L 1025.01,-20.373 L 1024.59,-19.6489 L 1024.03,-19.0274 L 1023.36,-18.5359
 L 1022.59,-18.1958 L 1021.36,-18 z
M 22,-18 L 20.7639,-18.1958 L 20,-18.5359 L 19.3235,-19.0274 L 18.7639,-19.6489 L 18.3458,-20.373
 L 18.0874,-21.1684 L 18,-22 L 18,-54.2617 L 18.1487,-55.3421 L 18.4574,-56.1192 L 18.921,-56.8152
 L 19.5192,-57.3995 L 20.2258,-57.8467 L 21.0099,-58.1373 L 21.8373,-58.2584 L 22.6718,-58.2049 L 23.477,-57.979
 L 104.674,-25.7173 L 105.548,-25.2361 L 106.169,-24.6765 L 106.661,-24 L 107.001,-23.2361 L 107.175,-22.4181
 L 107.175,-21.5819 L 107.001,-20.7639 L 106.661,-20 L 106.169,-19.3235 L 105.548,-18.7639 L 104.824,-18.3458
 L 104.028,-18.0874 L 103.197,-18 z
M 1109.8,-18 L 1108.97,-18.0874 L 1108.18,-18.3458 L 1107.45,-18.7639 L 1106.83,-19.3235 L 1106.34,-20
 L 1106,-20.7639 L 1105.83,-21.5819 L 1105.83,-22.4181 L 1106,-23.2361 L 1106.34,-24 L 1106.83,-24.6765
 L 1107.45,-25.2361 L 1108.33,-25.7173 L 1189.52,-57.979 L 1190.33,-58.2049 L 1191.16,-58.2584 L 1191.99,-58.1373
 L 1192.77,-57.8467 L 1193.48,-57.3995 L 1194.08,-56.8152 L 1194.54,-56.1192 L 1194.85,-55.3421 L 1195,-54.2617
 L 1195,-22 L 1194.91,-21.1684 L 1194.65,-20.373 L 1194.24,-19.6489 L 1193.68,-19.0274 L 1193,-18.5359
 L 1192.24,-18.1958 L 1191,-18 z
M 590.963,-18 L 589.973,-18.1245 L 589.189,-18.415 L 588.482,-18.8622 L 587.884,-19.4466 L 587.42,-20.1425
 L 587.112,-20.9197 L 586.971,-21.744 L 587.005,-22.5795 L 587.212,-23.3898 L 587.583,-24.1392 L 588.102,-24.7952
 L 588.745,-25.329 L 589.486,-25.7173 L 605.023,-31.8906 L 605.51,-32.0488 L 606.337,-32.17 L 607.172,-32.1165
 L 607.977,-31.8906 L 623.514,-25.7173 L 624.388,-25.2361 L 625.01,-24.6765 L 625.501,-24 L 625.841,-23.2361
 L 626.015,-22.4181 L 626.015,-21.5819 L 625.841,-20.7639 L 625.501,-20 L 625.01,-19.3235 L 624.388,-18.7639
 L 623.664,-18.3458 L 622.869,-18.0874 L 622.037,-18 z
" stroke="black" fill="lightgray" stroke-width="0.5"/>
</svg>
