<?xml version="1.0" standalone="no"?>
<!DOCTYPE svg PUBLIC "-//W3C//DTD SVG 1.1//EN" "http://www.w3.org/Graphics/SVG/1.1/DTD/svg11.dtd">
<svg width="1580mm" height="80mm" viewBox="0 -80 1580 80" xmlns="http://www.w3.org/2000/svg" version="1.1">
<title>OpenSCAD Model</title>
<path d="
M 1580,-80 L 0,-80 L 0,-0 L 4.95,-0 L 4.95,-6 L 5.00572,-6.53017
 L 5.17046,-7.03717 L 5.437,-7.49884 L 5.79372,-7.895 L 6.22499,-8.20836 L 6.71201,-8.42519 L 7.23344,-8.53603
 L 7.76654,-8.53603 L 8.28798,-8.42519 L 8.77499,-8.20836 L 9.20627,-7.895 L 9.56299,-7.49884 L 9.82953,-7.03717
 L 9.99426,-6.53017 L 10.05,-6 L 10.05,-0 L 200.575,-0 L 200.575,-6 L 200.631,-6.53017
 L 200.795,-7.03717 L 201.062,-7.49884 L 201.419,-7.895 L 201.85,-8.20836 L 202.337,-8.42519 L 202.858,-8.53603
 L 203.392,-8.53603 L 203.913,-8.42519 L 204.4,-8.20836 L 204.831,-7.895 L 205.188,-7.49884 L 205.455,-7.03717
 L 205.619,-6.53017 L 205.675,-6 L 205.675,-0 L 396.2,-0 L 396.2,-6 L 396.256,-6.53017
 L 396.42,-7.03717 L 396.687,-7.49884 L 397.044,-7.895 L 397.475,-8.20836 L 397.962,-8.42519 L 398.483,-8.53603
 L 399.017,-8.53603 L 399.538,-8.42519 L 400.025,-8.20836 L 400.456,-7.895 L 400.813,-7.49884 L 401.08,-7.03717
 L 401.244,-6.53017 L 401.3,-6 L 401.3,-0 L 591.825,-0 L 591.825,-6 L 591.881,-6.53017
 L 592.045,-7.03717 L 592.312,-7.49884 L 592.669,-7.895 L 593.1,-8.20836 L 593.587,-8.42519 L 594.108,-8.53603
 L 594.642,-8.53603 L 595.163,-8.42519 L 595.65,-8.20836 L 596.081,-7.895 L 596.438,-7.49884 L 596.705,-7.03717
 L 596.869,-6.53017 L 596.925,-6 L 596.925,-0 L 787.45,-0 L 787.45,-6 L 787.506,-6.53017
 L 787.67,-7.03717 L 787.937,-7.49884 L 788.294,-7.895 L 788.725,-8.20836 L 789.212,-8.42519 L 789.733,-8.53603
 L 790.267,-8.53603 L 790.788,-8.42519 L 791.275,-8.20836 L 791.706,-7.895 L 792.063,-7.49884 L 792.33,-7.03717
 L 792.494,-6.53017 L 792.55,-6 L 792.55,-0 L 983.075,-0 L 983.075,-6 L 983.131,-6.53017
 L 983.295,-7.03717 L 983.562,-7.49884 L 983.919,-7.895 L 984.35,-8.20836 L 984.837,-8.42519 L 985.358,-8.53603
 L 985.892,-8.53603 L 986.413,-8.42519 L 986.9,-8.20836 L 987.331,-7.895 L 987.688,-7.49884 L 987.955,-7.03717
 L 988.119,-6.53017 L 988.175,-6 L 988.175,-0 L 1178.7,-0 L 1178.7,-6 L 1178.76,-6.53017
 L 1178.92,-7.03717 L 1179.19,-7.49884 L 1179.54,-7.895 L 1179.97,-8.20836 L 1180.46,-8.42519 L 1180.98,-8.53603
 L 1181.52,-8.53603 L 1182.04,-8.42519 L 1182.52,-8.20836 L 1182.96,-7.895 L 1183.31,-7.49884 L 1183.58,-7.03717
 L 1183.74,-6.53017 L 1183.8,-6 L 1183.8,-0 L 1374.32,-0 L 1374.32,-6 L 1374.38,-6.53017
 L 1374.55,-7.03717 L 1374.81,-7.49884 L 1375.17,-7.895 L 1375.6,-8.20836 L 1376.09,-8.42519 L 1376.61,-8.53603
 L 1377.14,-8.53603 L 1377.66,-8.42519 L 1378.15,-8.20836 L 1378.58,-7.895 L 1378.94,-7.49884 L 1379.2,-7.03717
 L 1379.37,-6.53017 L 1379.42,-6 L 1379.42,-0 L 1569.95,-0 L 1569.95,-6 L 1570.01,-6.53017
 L 1570.17,-7.03717 L 1570.44,-7.49884 L 1570.79,-7.895 L 1571.22,-8.20836 L 1571.71,-8.42519 L 1572.23,-8.53603
 L 1572.77,-8.53603 L 1573.29,-8.42519 L 1573.77,-8.20836 L 1574.21,-7.895 L 1574.56,-7.49884 L 1574.83,-7.03717
 L 1574.99,-6.53017 L 1575.05,-6 L 1575.05,-0 L 1580,-0 z
M 202.611,-55.607 L 202.102,-55.6875 L 201.605,-55.8208 L 201.124,-56.0054 L 200.665,-56.2392 L 200.233,-56.5196
 L 199.833,-56.8437 L 199.469,-57.2079 L 199.145,-57.6081 L 198.864,-58.04 L 198.63,-58.4989 L 198.446,-58.9796
 L 198.313,-59.4771 L 198.232,-59.9857 L 198.205,-60.5 L 198.232,-61.0143 L 198.313,-61.5229 L 198.446,-62.0204
 L 198.63,-62.5011 L 198.864,-62.96 L 199.145,-63.3919 L 199.469,-63.7921 L 199.833,-64.1563 L 200.233,-64.4804
 L 200.575,-64.7024 L 200.575,-74 L 200.631,-74.5302 L 200.795,-75.0372 L 201.062,-75.4988 L 201.419,-75.895
 L 201.85,-76.2084 L 202.337,-76.4252 L 202.858,-76.536 L 203.392,-76.536 L 203.913,-76.4252 L 204.4,-76.2084
 L 204.831,-75.895 L 205.188,-75.4988 L 205.455,-75.0372 L 205.619,-74.5302 L 205.675,-74 L 205.675,-64.7024
 L 206.017,-64.4804 L 206.417,-64.1563 L 206.781,-63.7921 L 207.105,-63.3919 L 207.386,-62.96 L 207.62,-62.5011
 L 207.804,-62.0204 L 207.937,-61.5229 L 208.018,-61.0143 L 208.045,-60.5 L 208.018,-59.9857 L 207.937,-59.4771
 L 207.804,-58.9796 L 207.62,-58.4989 L 207.386,-58.04 L 207.105,-57.6081 L 206.781,-57.2079 L 206.417,-56.8437
 L 206.017,-56.5196 L 205.585,-56.2392 L 205.126,-56.0054 L 204.645,-55.8208 L 204.148,-55.6875 L 203.639,-55.607
 L 203.125,-55.58 z
M 1180.74,-55.607 L 1180.23,-55.6875 L 1179.73,-55.8208 L 1179.25,-56.0054 L 1178.79,-56.2392 L 1178.36,-56.5196
 L 1177.96,-56.8437 L 1177.59,-57.2079 L 1177.27,-57.6081 L 1176.99,-58.04 L 1176.76,-58.4989 L 1176.57,-58.9796
 L 1176.44,-59.4771 L 1176.36,-59.9857 L 1176.33,-60.5 L 1176.36,-61.0143 L 1176.44,-61.5229 L 1176.57,-62.0204
 L 1176.76,-62.5011 L 1176.99,-62.96 L 1177.27,-63.3919 L 1177.59,-63.7921 L 1177.96,-64.1563 L 1178.36,-64.4804
 L 1178.7,-64.7024 L 1178.7,-74 L 1178.76,-74.5302 L 1178.92,-75.0372 L 1179.19,-75.4988 L 1179.54,-75.895
 L 1179.98,-76.2084 L 1180.46,-76.4252 L 1180.98,-76.536 L 1181.52,-76.536 L 1182.04,-76.4252 L 1182.52,-76.2084
 L 1182.96,-75.895 L 1183.31,-75.4988 L 1183.58,-75.0372 L 1183.74,-74.5302 L 1183.8,-74 L 1183.8,-64.7024
 L 1184.14,-64.4804 L 1184.54,-64.1563 L 1184.91,-63.7921 L 1185.23,-63.3919 L 1185.51,-62.96 L 1185.74,-62.5011
 L 1185.93,-62.0204 L 1186.06,-61.5229 L 1186.14,-61.0143 L 1186.17,-60.5 L 1186.14,-59.9857 L 1186.06,-59.4771
 L 1185.93,-58.9796 L 1185.74,-58.4989 L 1185.51,-58.04 L 1185.23,-57.6081 L 1184.91,-57.2079 L 1184.54,-56.8437
 L 1184.14,-56.5196 L 1183.71,-56.2392 L 1183.25,-56.0054 L 1182.77,-55.8208 L 1182.27,-55.6875 L 1181.76,-55.607
 L 1181.25,-55.58 z
M 985.111,-55.607 L 984.602,-55.6875 L 984.105,-55.8208 L 983.624,-56.0054 L 983.165,-56.2392 L 982.733,-56.5196
 L 982.333,-56.8437 L 981.969,-57.2079 L 981.645,-57.6081 L 981.364,-58.04 L 981.13,-58.4989 L 980.946,-58.9796
 L 980.813,-59.4771 L 980.732,-59.9857 L 980.705,-60.5 L 980.732,-61.0143 L 980.813,-61.5229 L 980.946,-62.0204
 L 981.13,-62.5011 L 981.364,-62.96 L 981.645,-63.3919 L 981.969,-63.7921 L 982.333,-64.1563 L 982.733,-64.4804
 L 983.075,-64.7024 L 983.075,-74 L 983.131,-74.5302 L 983.295,-75.0372 L 983.562,-75.4988 L 983.919,-75.895
 L 984.35,-76.2084 L 984.837,-76.4252 L 985.358,-76.536 L 985.892,-76.536 L 986.413,-76.4252 L 986.9,-76.2084
 L 987.331,-75.895 L 987.688,-75.4988 L 987.955,-75.0372 L 988.119,-74.5302 L 988.175,-74 L 988.175,-64.7024
 L 988.517,-64.4804 L 988.917,-64.1563 L 989.281,-63.7921 L 989.605,-63.3919 L 989.886,-62.96 L 990.12,-62.5011
 L 990.304,-62.0204 L 990.437,-61.5229 L 990.518,-61.0143 L 990.545,-60.5 L 990.518,-59.9857 L 990.437,-59.4771
 L 990.304,-58.9796 L 990.12,-58.4989 L 989.886,-58.04 L 989.605,-57.6081 L 989.281,-57.2079 L 988.917,-56.8437
 L 988.517,-56.5196 L 988.085,-56.2392 L 987.626,-56.0054 L 987.145,-55.8208 L 986.648,-55.6875 L 986.139,-55.607
 L 985.625,-55.58 z
M 6.98573,-55.607 L 6.47708,-55.6875 L 5.97964,-55.8208 L 5.49887,-56.0054 L 5.04001,-56.2392 L 4.60811,-56.5196
 L 4.20789,-56.8437 L 3.84373,-57.2079 L 3.51964,-57.6081 L 3.23917,-58.04 L 3.00537,-58.4989 L 2.82082,-58.9796
 L 2.68752,-59.4771 L 2.60696,-59.9857 L 2.58,-60.5 L 2.60696,-61.0143 L 2.68752,-61.5229 L 2.82082,-62.0204
 L 3.00537,-62.5011 L 3.23917,-62.96 L 3.51964,-63.3919 L 3.84373,-63.7921 L 4.20789,-64.1563 L 4.60811,-64.4804
 L 4.95001,-64.7024 L 4.95001,-74 L 5.00574,-74.5302 L 5.17047,-75.0372 L 5.43701,-75.4988 L 5.79373,-75.895
 L 6.22501,-76.2084 L 6.71202,-76.4252 L 7.23346,-76.536 L 7.76654,-76.536 L 8.28798,-76.4252 L 8.77499,-76.2084
 L 9.20627,-75.895 L 9.56299,-75.4988 L 9.82953,-75.0372 L 9.99426,-74.5302 L 10.05,-74 L 10.05,-64.7024
 L 10.3919,-64.4804 L 10.7921,-64.1563 L 11.1563,-63.7921 L 11.4804,-63.3919 L 11.7608,-62.96 L 11.9946,-62.5011
 L 12.1792,-62.0204 L 12.3125,-61.5229 L 12.393,-61.0143 L 12.42,-60.5 L 12.393,-59.9857 L 12.3125,-59.4771
 L 12.1792,-58.9796 L 11.9946,-58.4989 L 11.7608,-58.04 L 11.4804,-57.6081 L 11.1563,-57.2079 L 10.7921,-56.8437
 L 10.3919,-56.5196 L 9.95999,-56.2392 L 9.50113,-56.0054 L 9.02036,-55.8208 L 8.52292,-55.6875 L 8.01427,-55.607
 L 7.5,-55.58 z
M 789.486,-55.607 L 788.977,-55.6875 L 788.48,-55.8208 L 787.999,-56.0054 L 787.54,-56.2392 L 787.108,-56.5196
 L 786.708,-56.8437 L 786.344,-57.2079 L 786.02,-57.6081 L 785.739,-58.04 L 785.505,-58.4989 L 785.321,-58.9796
 L 785.188,-59.4771 L 785.107,-59.9857 L 785.08,-60.5 L 785.107,-61.0143 L 785.188,-61.5229 L 785.321,-62.0204
 L 785.505,-62.5011 L 785.739,-62.96 L 786.02,-63.3919 L 786.344,-63.7921 L 786.708,-64.1563 L 787.108,-64.4804
 L 787.45,-64.7024 L 787.45,-74 L 787.506,-74.5302 L 787.67,-75.0372 L 787.937,-75.4988 L 788.294,-75.895
 L 788.725,-76.2084 L 789.212,-76.4252 L 789.733,-76.536 L 790.267,-76.536 L 790.788,-76.4252 L 791.275,-76.2084
 L 791.706,-75.895 L 792.063,-75.4988 L 792.33,-75.0372 L 792.494,-74.5302 L 792.55,-74 L 792.55,-64.7024
 L 792.892,-64.4804 L 793.292,-64.1563 L 793.656,-63.7921 L 793.98,-63.3919 L 794.261,-62.96 L 794.495,-62.5011
 L 794.679,-62.0204 L 794.812,-61.5229 L 794.893,-61.0143 L 794.92,-60.5 L 794.893,-59.9857 L 794.812,-59.4771
 L 794.679,-58.9796 L 794.495,-58.4989 L 794.261,-58.04 L 793.98,-57.6081 L 793.656,-57.2079 L 793.292,-56.8437
 L 792.892,-56.5196 L 792.46,-56.2392 L 792.001,-56.0054 L 791.52,-55.8208 L 791.023,-55.6875 L 790.514,-55.607
 L 790,-55.58 z
M 1376.36,-55.607 L 1375.85,-55.6875 L 1375.35,-55.8208 L 1374.87,-56.0054 L 1374.42,-56.2392 L 1373.98,-56.5196
 L 1373.58,-56.8437 L 1373.22,-57.2079 L 1372.89,-57.6081 L 1372.61,-58.04 L 1372.38,-58.4989 L 1372.2,-58.9796
 L 1372.06,-59.4771 L 1371.98,-59.9857 L 1371.96,-60.5 L 1371.98,-61.0143 L 1372.06,-61.5229 L 1372.2,-62.0204
 L 1372.38,-62.5011 L 1372.61,-62.96 L 1372.89,-63.3919 L 1373.22,-63.7921 L 1373.58,-64.1563 L 1373.98,-64.4804
 L 1374.33,-64.7024 L 1374.33,-74 L 1374.38,-74.5302 L 1374.55,-75.0372 L 1374.81,-75.4988 L 1375.17,-75.895
 L 1375.6,-76.2084 L 1376.09,-76.4252 L 1376.61,-76.536 L 1377.14,-76.536 L 1377.66,-76.4252 L 1378.15,-76.2084
 L 1378.58,-75.895 L 1378.94,-75.4988 L 1379.2,-75.0372 L 1379.37,-74.5302 L 1379.42,-74 L 1379.42,-64.7024
 L 1379.77,-64.4804 L 1380.17,-64.1563 L 1380.53,-63.7921 L 1380.86,-63.3919 L 1381.14,-62.96 L 1381.37,-62.5011
 L 1381.55,-62.0204 L 1381.69,-61.5229 L 1381.77,-61.0143 L 1381.79,-60.5 L 1381.77,-59.9857 L 1381.69,-59.4771
 L 1381.55,-58.9796 L 1381.37,-58.4989 L 1381.14,-58.04 L 1380.86,-57.6081 L 1380.53,-57.2079 L 1380.17,-56.8437
 L 1379.77,-56.5196 L 1379.33,-56.2392 L 1378.88,-56.0054 L 1378.4,-55.8208 L 1377.9,-55.6875 L 1377.39,-55.607
 L 1376.88,-55.58 z
M 593.861,-55.607 L 593.352,-55.6875 L 592.855,-55.8208 L 592.374,-56.0054 L 591.915,-56.2392 L 591.483,-56.5196
 L 591.083,-56.8437 L 590.719,-57.2079 L 590.395,-57.6081 L 590.114,-58.04 L 589.88,-58.4989 L 589.696,-58.9796
 L 589.563,-59.4771 L 589.482,-59.9857 L 589.455,-60.5 L 589.482,-61.0143 L 589.563,-61.5229 L 589.696,-62.0204
 L 589.88,-62.5011 L 590.114,-62.96 L 590.395,-63.3919 L 590.719,-63.7921 L 591.083,-64.1563 L 591.483,-64.4804
 L 591.825,-64.7024 L 591.825,-74 L 591.881,-74.5302 L 592.045,-75.0372 L 592.312,-75.4988 L 592.669,-75.895
 L 593.1,-76.2084 L 593.587,-76.4252 L 594.108,-76.536 L 594.642,-76.536 L 595.163,-76.4252 L 595.65,-76.2084
 L 596.081,-75.895 L 596.438,-75.4988 L 596.705,-75.0372 L 596.869,-74.5302 L 596.925,-74 L 596.925,-64.7024
 L 597.267,-64.4804 L 597.667,-64.1563 L 598.031,-63.7921 L 598.355,-63.3919 L 598.636,-62.96 L 598.87,-62.5011
 L 599.054,-62.0204 L 599.187,-61.5229 L 599.268,-61.0143 L 599.295,-60.5 L 599.268,-59.9857 L 599.187,-59.4771
 L 599.054,-58.9796 L 598.87,-58.4989 L 598.636,-58.04 L 598.355,-57.6081 L 598.031,-57.2079 L 597.667,-56.8437
 L 597.267,-56.5196 L 596.835,-56.2392 L 596.376,-56.0054 L 595.895,-55.8208 L 595.398,-55.6875 L 594.889,-55.607
 L 594.375,-55.58 z
M 398.236,-55.607 L 397.727,-55.6875 L 397.23,-55.8208 L 396.749,-56.0054 L 396.29,-56.2392 L 395.858,-56.5196
 L 395.458,-56.8437 L 395.094,-57.2079 L 394.77,-57.6081 L 394.489,-58.04 L 394.255,-58.4989 L 394.071,-58.9796
 L 393.938,-59.4771 L 393.857,-59.9857 L 393.83,-60.5 L 393.857,-61.0143 L 393.938,-61.5229 L 394.071,-62.0204
 L 394.255,-62.5011 L 394.489,-62.96 L 394.77,-63.3919 L 395.094,-63.7921 L 395.458,-64.1563 L 395.858,-64.4804
 L 396.2,-64.7024 L 396.2,-74 L 396.256,-74.5302 L 396.42,-75.0372 L 396.687,-75.4988 L 397.044,-75.895
 L 397.475,-76.2084 L 397.962,-76.4252 L 398.483,-76.536 L 399.017,-76.536 L 399.538,-76.4252 L 400.025,-76.2084
 L 400.456,-75.895 L 400.813,-75.4988 L 401.08,-75.0372 L 401.244,-74.5302 L 401.3,-74 L 401.3,-64.7024
 L 401.642,-64.4804 L 402.042,-64.1563 L 402.406,-63.7921 L 402.73,-63.3919 L 403.011,-62.96 L 403.245,-62.5011
 L 403.429,-62.0204 L 403.562,-61.5229 L 403.643,-61.0143 L 403.67,-60.5 L 403.643,-59.9857 L 403.562,-59.4771
 L 403.429,-58.9796 L 403.245,-58.4989 L 403.011,-58.04 L 402.73,-57.6081 L 402.406,-57.2079 L 402.042,-56.8437
 L 401.642,-56.5196 L 401.21,-56.2392 L 400.751,-56.0054 L 400.27,-55.8208 L 399.773,-55.6875 L 399.264,-55.607
 L 398.75,-55.58 z
M 1571.99,-55.607 L 1571.48,-55.6875 L 1570.98,-55.8208 L 1570.5,-56.0054 L 1570.04,-56.2392 L 1569.61,-56.5196
 L 1569.21,-56.8437 L 1568.84,-57.2079 L 1568.52,-57.6081 L 1568.24,-58.04 L 1568.01,-58.4989 L 1567.82,-58.9796
 L 1567.69,-59.4771 L 1567.61,-59.9857 L 1567.58,-60.5 L 1567.61,-61.0143 L 1567.69,-61.5229 L 1567.82,-62.0204
 L 1568.01,-62.5011 L 1568.24,-62.96 L 1568.52,-63.3919 L 1568.84,-63.7921 L 1569.21,-64.1563 L 1569.61,-64.4804
 L 1569.95,-64.7024 L 1569.95,-74 L 1570.01,-74.5302 L 1570.17,-75.0372 L 1570.44,-75.4988 L 1570.79,-75.895
 L 1571.23,-76.2084 L 1571.71,-76.4252 L 1572.23,-76.536 L 1572.77,-76.536 L 1573.29,-76.4252 L 1573.77,-76.2084
 L 1574.21,-75.895 L 1574.56,-75.4988 L 1574.83,-75.0372 L 1574.99,-74.5302 L 1575.05,-74 L 1575.05,-64.7024
 L 1575.39,-64.4804 L 1575.79,-64.1563 L 1576.16,-63.7921 L 1576.48,-63.3919 L 1576.76,-62.96 L 1576.99,-62.5011
 L 1577.18,-62.0204 L 1577.31,-61.5229 L 1577.39,-61.0143 L 1577.42,-60.5 L 1577.39,-59.9857 L 1577.31,-59.4771
 L 1577.18,-58.9796 L 1576.99,-58.4989 L 1576.76,-58.04 L 1576.48,-57.6081 L 1576.16,-57.2079 L 1575.79,-56.8437
 L 1575.39,-56.5196 L 1574.96,-56.2392 L 1574.5,-56.0054 L 1574.02,-55.8208 L 1573.52,-55.6875 L 1573.01,-55.607
 L 1572.5,-55.58 z
M 385.251,-20.3102 L 384.437,-20.5007 L 287.427,-54.2218 L 286.389,-54.7639 L 285.767,-55.3235 L 285.276,-56
 L 284.936,-56.7639 L 284.762,-57.5819 L 284.762,-58.4181 L 284.936,-59.2361 L 285.276,-60 L 285.767,-60.6765
 L 286.389,-61.2361 L 287.113,-61.6542 L 287.908,-61.9126 L 288.74,-62 L 385.75,-62 L 386.986,-61.8042
 L 387.75,-61.4641 L 388.427,-60.9726 L 388.986,-60.3511 L 389.404,-59.627 L 389.663,-58.8316 L 389.75,-58
 L 389.75,-24.279 L 389.645,-23.3678 L 389.37,-22.5779 L 388.937,-21.8624 L 388.365,-21.2525 L 387.679,-20.7748
 L 386.908,-20.4503 L 386.087,-20.2932 z
M 580.876,-20.3102 L 580.062,-20.5007 L 483.052,-54.2218 L 482.014,-54.7639 L 481.392,-55.3235 L 480.901,-56
 L 480.561,-56.7639 L 480.387,-57.5819 L 480.387,-58.4181 L 480.561,-59.2361 L 480.901,-60 L 481.392,-60.6765
 L 482.014,-61.2361 L 482.738,-61.6542 L 483.533,-61.9126 L 484.365,-62 L 581.375,-62 L 582.611,-61.8042
 L 583.375,-61.4641 L 584.052,-60.9726 L 584.611,-60.3511 L 585.029,-59.627 L 585.288,-58.8316 L 585.375,-58
 L 585.375,-24.279 L 585.27,-23.3678 L 584.995,-22.5779 L 584.562,-21.8624 L 583.99,-21.2525 L 583.304,-20.7748
 L 582.533,-20.4503 L 581.712,-20.2932 z
M 1388.72,-20.4503 L 1387.95,-20.7748 L 1387.26,-21.2525 L 1386.69,-21.8624 L 1386.25,-22.5779 L 1385.98,-23.3678
 L 1385.88,-24.279 L 1385.88,-58 L 1385.96,-58.8316 L 1386.22,-59.627 L 1386.64,-60.3511 L 1387.2,-60.9726
 L 1387.88,-61.4641 L 1388.64,-61.8042 L 1389.88,-62 L 1486.88,-62 L 1487.72,-61.9126 L 1488.51,-61.6542
 L 1489.24,-61.2361 L 1489.86,-60.6765 L 1490.35,-60 L 1490.69,-59.2361 L 1490.86,-58.4181 L 1490.86,-57.5819
 L 1490.69,-56.7639 L 1490.35,-56 L 1489.86,-55.3235 L 1489.24,-54.7639 L 1488.2,-54.2218 L 1391.19,-20.5007
 L 1390.37,-20.3102 L 1389.54,-20.2932 z
M 776.501,-20.3102 L 775.687,-20.5007 L 678.677,-54.2218 L 677.639,-54.7639 L 677.017,-55.3235 L 676.526,-56
 L 676.186,-56.7639 L 676.012,-57.5819 L 676.012,-58.4181 L 676.186,-59.2361 L 676.526,-60 L 677.017,-60.6765
 L 677.639,-61.2361 L 678.363,-61.6542 L 679.158,-61.9126 L 679.99,-62 L 777,-62 L 778.236,-61.8042
 L 779,-61.4641 L 779.677,-60.9726 L 780.236,-60.3511 L 780.654,-59.627 L 780.913,-58.8316 L 781,-58
 L 781,-24.279 L 780.895,-23.3678 L 780.62,-22.5779 L 780.187,-21.8624 L 779.615,-21.2525 L 778.929,-20.7748
 L 778.158,-20.4503 L 777.337,-20.2932 z
M 189.626,-20.3102 L 188.812,-20.5007 L 91.8017,-54.2218 L 90.7639,-54.7639 L 90.1425,-55.3235 L 89.651,-56
 L 89.3108,-56.7639 L 89.137,-57.5819 L 89.137,-58.4181 L 89.3108,-59.2361 L 89.651,-60 L 90.1425,-60.6765
 L 90.7639,-61.2361 L 91.4881,-61.6542 L 92.2834,-61.9126 L 93.1151,-62 L 190.125,-62 L 191.361,-61.8042
 L 192.125,-61.4641 L 192.802,-60.9726 L 193.361,-60.3511 L 193.779,-59.627 L 194.038,-58.8316 L 194.125,-58
 L 194.125,-24.279 L 194.02,-23.3678 L 193.745,-22.5779 L 193.312,-21.8624 L 192.74,-21.2525 L 192.054,-20.7748
 L 191.283,-20.4503 L 190.462,-20.2932 z
M 801.842,-20.4503 L 801.071,-20.7748 L 800.385,-21.2525 L 799.813,-21.8624 L 799.38,-22.5779 L 799.105,-23.3678
 L 799,-24.279 L 799,-58 L 799.087,-58.8316 L 799.346,-59.627 L 799.764,-60.3511 L 800.323,-60.9726
 L 801,-61.4641 L 801.764,-61.8042 L 803,-62 L 900.01,-62 L 900.842,-61.9126 L 901.637,-61.6542
 L 902.361,-61.2361 L 902.983,-60.6765 L 903.474,-60 L 903.814,-59.2361 L 903.988,-58.4181 L 903.988,-57.5819
 L 903.814,-56.7639 L 903.474,-56 L 902.983,-55.3235 L 902.361,-54.7639 L 901.323,-54.2218 L 804.313,-20.5007
 L 803.499,-20.3102 L 802.663,-20.2932 z
M 997.467,-20.4503 L 996.696,-20.7748 L 996.01,-21.2525 L 995.438,-21.8624 L 995.005,-22.5779 L 994.73,-23.3678
 L 994.625,-24.279 L 994.625,-58 L 994.712,-58.8316 L 994.971,-59.627 L 995.389,-60.3511 L 995.948,-60.9726
 L 996.625,-61.4641 L 997.389,-61.8042 L 998.625,-62 L 1095.63,-62 L 1096.47,-61.9126 L 1097.26,-61.6542
 L 1097.99,-61.2361 L 1098.61,-60.6765 L 1099.1,-60 L 1099.44,-59.2361 L 1099.61,-58.4181 L 1099.61,-57.5819
 L 1099.44,-56.7639 L 1099.1,-56 L 1098.61,-55.3235 L 1097.99,-54.7639 L 1096.95,-54.2218 L 999.938,-20.5007
 L 999.124,-20.3102 L 998.288,-20.2932 z
M 1193.09,-20.4503 L 1192.32,-20.7748 L 1191.63,-21.2525 L 1191.06,-21.8624 L 1190.63,-22.5779 L 1190.36,-23.3678
 L 1190.25,-24.279 L 1190.25,-58 L 1190.34,-58.8316 L 1190.6,-59.627 L 1191.01,-60.3511 L 1191.57,-60.9726
 L 1192.25,-61.4641 L 1193.01,-61.8042 L 1194.25,-62 L 1291.26,-62 L 1292.09,-61.9126 L 1292.89,-61.6542
 L 1293.61,-61.2361 L 1294.23,-60.6765 L 1294.72,-60 L 1295.06,-59.2361 L 1295.24,-58.4181 L 1295.24,-57.5819
 L 1295.06,-56.7639 L 1294.72,-56 L 1294.23,-55.3235 L 1293.61,-54.7639 L 1292.57,-54.2218 L 1195.56,-20.5007
 L 1194.75,-20.3102 L 1193.91,-20.2932 z
M 216.125,-18 L 214.889,-18.1958 L 214.125,-18.5359 L 213.448,-19.0274 L 212.889,-19.6489 L 212.471,-20.373
 L 212.212,-21.1684 L 212.125,-22 L 212.125,-55.721 L 212.23,-56.6322 L 212.505,-57.4221 L 212.938,-58.1376
 L 213.51,-58.7475 L 214.196,-59.2251 L 214.967,-59.5496 L 215.788,-59.7068 L 216.624,-59.6897 L 217.438,-59.4993
 L 314.448,-25.7782 L 315.486,-25.2361 L 316.107,-24.6765 L 316.599,-24 L 316.939,-23.2361 L 317.113,-22.4181
 L 317.113,-21.5819 L 316.939,-20.7639 L 316.599,-20 L 316.107,-19.3235 L 315.486,-18.7639 L 314.762,-18.3458
 L 313.967,-18.0874 L 313.135,-18 z
M 411.75,-18 L 410.514,-18.1958 L 409.75,-18.5359 L 409.073,-19.0274 L 408.514,-19.6489 L 408.096,-20.373
 L 407.837,-21.1684 L 407.75,-22 L 407.75,-55.721 L 407.855,-56.6322 L 408.13,-57.4221 L 408.563,-58.1376
 L 409.135,-58.7475 L 409.821,-59.2251 L 410.592,-59.5496 L 411.413,-59.7068 L 412.249,-59.6897 L 413.063,-59.4993
 L 510.073,-25.7782 L 511.111,-25.2361 L 511.732,-24.6765 L 512.224,-24 L 512.564,-23.2361 L 512.738,-22.4181
 L 512.738,-21.5819 L 512.564,-20.7639 L 512.224,-20 L 511.732,-19.3235 L 511.111,-18.7639 L 510.387,-18.3458
 L 509.592,-18.0874 L 508.76,-18 z
M 607.375,-18 L 606.139,-18.1958 L 605.375,-18.5359 L 604.698,-19.0274 L 604.139,-19.6489 L 603.721,-20.373
 L 603.462,-21.1684 L 603.375,-22 L 603.375,-55.721 L 603.48,-56.6322 L 603.755,-57.4221 L 604.188,-58.1376
 L 604.76,-58.7475 L 605.446,-59.2251 L 606.217,-59.5496 L 607.038,-59.7068 L 607.874,-59.6897 L 608.688,-59.4993
 L 705.698,-25.7782 L 706.736,-25.2361 L 707.357,-24.6765 L 707.849,-24 L 708.189,-23.2361 L 708.363,-22.4181
 L 708.363,-21.5819 L 708.189,-20.7639 L 707.849,-20 L 707.357,-19.3235 L 706.736,-18.7639 L 706.012,-18.3458
 L 705.217,-18.0874 L 704.385,-18 z
M 875.615,-18 L 874.783,-18.0874 L 873.988,-18.3458 L 873.264,-18.7639 L 872.643,-19.3235 L 872.151,-20
 L 871.811,-20.7639 L 871.637,-21.5819 L 871.637,-22.4181 L 871.811,-23.2361 L 872.151,-24 L 872.643,-24.6765
 L 873.264,-25.2361 L 874.302,-25.7782 L 971.312,-59.4993 L 972.126,-59.6897 L 972.962,-59.7068 L 973.783,-59.5496
 L 974.554,-59.2251 L 975.24,-58.7475 L 975.812,-58.1376 L 976.245,-57.4221 L 976.52,-56.6322 L 976.625,-55.721
 L 976.625,-22 L 976.538,-21.1684 L 976.279,-20.373 L 975.861,-19.6489 L 975.302,-19.0274 L 974.625,-18.5359
 L 973.861,-18.1958 L 972.625,-18 z
M 1071.24,-18 L 1070.41,-18.0874 L 1069.61,-18.3458 L 1068.89,-18.7639 L 1068.27,-19.3235 L 1067.78,-20
 L 1067.44,-20.7639 L 1067.26,-21.5819 L 1067.26,-22.4181 L 1067.44,-23.2361 L 1067.78,-24 L 1068.27,-24.6765
 L 1068.89,-25.2361 L 1069.93,-25.7782 L 1166.94,-59.4993 L 1167.75,-59.6897 L 1168.59,-59.7068 L 1169.41,-59.5496
 L 1170.18,-59.2251 L 1170.87,-58.7475 L 1171.44,-58.1376 L 1171.87,-57.4221 L 1172.14,-56.6322 L 1172.25,-55.721
 L 1172.25,-22 L 1172.16,-21.1684 L 1171.9,-20.373 L 1171.49,-19.6489 L 1170.93,-19.0274 L 1170.25,-18.5359
 L 1169.49,-18.1958 L 1168.25,-18 z
M 1266.87,-18 L 1266.03,-18.0874 L 1265.24,-18.3458 L 1264.51,-18.7639 L 1263.89,-19.3235 L 1263.4,-20
 L 1263.06,-20.7639 L 1262.89,-21.5819 L 1262.89,-22.4181 L 1263.06,-23.2361 L 1263.4,-24 L 1263.89,-24.6765
 L 1264.51,-25.2361 L 1265.55,-25.7782 L 1362.56,-59.4993 L 1363.38,-59.6897 L 1364.21,-59.7068 L 1365.03,-59.5496
 L 1365.8,-59.2251 L 1366.49,-58.7475 L 1367.06,-58.1376 L 1367.5,-57.4221 L 1367.77,-56.6322 L 1367.88,-55.721
 L 1367.88,-22 L 1367.79,-21.1684 L 1367.53,-20.373 L 1367.11,-19.6489 L 1366.55,-19.0274 L 1365.88,-18.5359
 L 1365.11,-18.1958 L 1363.88,-18 z
M 1462.49,-18 L 1461.66,-18.0874 L 1460.86,-18.3458 L 1460.14,-18.7639 L 1459.52,-19.3235 L 1459.03,-20
 L 1458.69,-20.7639 L 1458.51,-21.5819 L 1458.51,-22.4181 L 1458.69,-23.2361 L 1459.03,-24 L 1459.52,-24.6765
 L 1460.14,-25.2361 L 1461.18,-25.7782 L 1556.69,-58.9779 L 1557.5,-59.1684 L 1558.34,-59.1854 L 1559.16,-59.0282
 L 1559.93,-58.7038 L 1560.62,-58.2261 L 1561.19,-57.6162 L 1561.62,-56.9007 L 1561.89,-56.1108 L 1562,-55.1996
 L 1562,-22 L 1561.91,-21.1684 L 1561.65,-20.373 L 1561.24,-19.6489 L 1560.68,-19.0274 L 1560,-18.5359
 L 1559.24,-18.1958 L 1558,-18 z
M 22,-18 L 20.7639,-18.1958 L 20,-18.5359 L 19.3235,-19.0274 L 18.7639,-19.6489 L 18.3458,-20.373
 L 18.0874,-21.1684 L 18,-22 L 18,-55.1996 L 18.1052,-56.1108 L 18.3797,-56.9007 L 18.8125,-57.6162
 L 19.3846,-58.2261 L 20.071,-58.7038 L 20.8417,-59.0282 L 21.663,-59.1854 L 22.4991,-59.1684 L 23.3133,-58.9779
 L 118.823,-25.7782 L 119.861,-25.2361 L 120.482,-24.6765 L 120.974,-24 L 121.314,-23.2361 L 121.488,-22.4181
 L 121.488,-21.5819 L 121.314,-20.7639 L 120.974,-20 L 120.482,-19.3235 L 119.861,-18.7639 L 119.137,-18.3458
 L 118.342,-18.0874 L 117.51,-18 z
" stroke="black" fill="lightgray" stroke-width="0.5"/>
</svg>
