<?xml version="1.0" standalone="no"?>
<!DOCTYPE svg PUBLIC "-//W3C//DTD SVG 1.1//EN" "http://www.w3.org/Graphics/SVG/1.1/DTD/svg11.dtd">
<svg width="1004mm" height="80mm" viewBox="0 -80 1004 80" xmlns="http://www.w3.org/2000/svg" version="1.1">
<title>OpenSCAD Model</title>
<path d="
M 1004,-80 L 0,-80 L 0,-0 L 4.95,-0 L 4.95,-6 L 5.00572,-6.53017
 L 5.17046,-7.03717 L 5.437,-7.49884 L 5.79372,-7.895 L 6.22499,-8.20836 L 6.71201,-8.42519 L 7.23344,-8.53603
 L 7.76654,-8.53603 L 8.28798,-8.42519 L 8.77499,-8.20836 L 9.20627,-7.895 L 9.56299,-7.49884 L 9.82953,-7.03717
 L 9.99426,-6.53017 L 10.05,-6 L 10.05,-0 L 169.783,-0 L 169.783,-6 L 169.839,-6.53017
 L 170.004,-7.03717 L 170.27,-7.49884 L 170.627,-7.895 L 171.058,-8.20836 L 171.545,-8.42519 L 172.067,-8.53603
 L 172.6,-8.53603 L 173.121,-8.42519 L 173.608,-8.20836 L 174.04,-7.895 L 174.396,-7.49884 L 174.663,-7.03717
 L 174.828,-6.53017 L 174.883,-6 L 174.883,-0 L 334.617,-0 L 334.617,-6 L 334.672,-6.53017
 L 334.837,-7.03717 L 335.104,-7.49884 L 335.46,-7.895 L 335.892,-8.20836 L 336.379,-8.42519 L 336.9,-8.53603
 L 337.433,-8.53603 L 337.955,-8.42519 L 338.442,-8.20836 L 338.873,-7.895 L 339.23,-7.49884 L 339.496,-7.03717
 L 339.661,-6.53017 L 339.717,-6 L 339.717,-0 L 499.45,-0 L 499.45,-6 L 499.506,-6.53017
 L 499.67,-7.03717 L 499.937,-7.49884 L 500.294,-7.895 L 500.725,-8.20836 L 501.212,-8.42519 L 501.733,-8.53603
 L 502.267,-8.53603 L 502.788,-8.42519 L 503.275,-8.20836 L 503.706,-7.895 L 504.063,-7.49884 L 504.33,-7.03717
 L 504.494,-6.53017 L 504.55,-6 L 504.55,-0 L 664.283,-0 L 664.283,-6 L 664.339,-6.53017
 L 664.504,-7.03717 L 664.77,-7.49884 L 665.127,-7.895 L 665.558,-8.20836 L 666.045,-8.42519 L 666.567,-8.53603
 L 667.1,-8.53603 L 667.621,-8.42519 L 668.108,-8.20836 L 668.54,-7.895 L 668.896,-7.49884 L 669.163,-7.03717
 L 669.328,-6.53017 L 669.383,-6 L 669.383,-0 L 829.117,-0 L 829.117,-6 L 829.172,-6.53017
 L 829.337,-7.03717 L 829.604,-7.49884 L 829.96,-7.895 L 830.392,-8.20836 L 830.879,-8.42519 L 831.4,-8.53603
 L 831.933,-8.53603 L 832.455,-8.42519 L 832.942,-8.20836 L 833.373,-7.895 L 833.73,-7.49884 L 833.996,-7.03717
 L 834.161,-6.53017 L 834.217,-6 L 834.217,-0 L 993.95,-0 L 993.95,-6 L 994.006,-6.53017
 L 994.17,-7.03717 L 994.437,-7.49884 L 994.794,-7.895 L 995.225,-8.20836 L 995.712,-8.42519 L 996.233,-8.53603
 L 996.767,-8.53603 L 997.288,-8.42519 L 997.775,-8.20836 L 998.206,-7.895 L 998.563,-7.49884 L 998.83,-7.03717
 L 998.994,-6.53017 L 999.05,-6 L 999.05,-0 L 1004,-0 z
M 6.98573,-55.607 L 6.47708,-55.6875 L 5.97964,-55.8208 L 5.49887,-56.0054 L 5.04001,-56.2392 L 4.60811,-56.5196
 L 4.20789,-56.8437 L 3.84373,-57.2079 L 3.51964,-57.6081 L 3.23917,-58.04 L 3.00537,-58.4989 L 2.82082,-58.9796
 L 2.68752,-59.4771 L 2.60696,-59.9857 L 2.58,-60.5 L 2.60696,-61.0143 L 2.68752,-61.5229 L 2.82082,-62.0204
 L 3.00537,-62.5011 L 3.23917,-62.96 L 3.51964,-63.3919 L 3.84373,-63.7921 L 4.20789,-64.1563 L 4.60811,-64.4804
 L 4.95001,-64.7024 L 4.95001,-74 L 5.00574,-74.5302 L 5.17047,-75.0372 L 5.43701,-75.4988 L 5.79373,-75.895
 L 6.22501,-76.2084 L 6.71202,-76.4252 L 7.23346,-76.536 L 7.76654,-76.536 L 8.28798,-76.4252 L 8.77499,-76.2084
 L 9.20627,-75.895 L 9.56299,-75.4988 L 9.82953,-75.0372 L 9.99426,-74.5302 L 10.05,-74 L 10.05,-64.7024
 L 10.3919,-64.4804 L 10.7921,-64.1563 L 11.1563,-63.7921 L 11.4804,-63.3919 L 11.7608,-62.96 L 11.9946,-62.5011
 L 12.1792,-62.0204 L 12.3125,-61.5229 L 12.393,-61.0143 L 12.42,-60.5 L 12.393,-59.9857 L 12.3125,-59.4771
 L 12.1792,-58.9796 L 11.9946,-58.4989 L 11.7608,-58.04 L 11.4804,-57.6081 L 11.1563,-57.2079 L 10.7921,-56.8437
 L 10.3919,-56.5196 L 9.95999,-56.2392 L 9.50113,-56.0054 L 9.02036,-55.8208 L 8.52292,-55.6875 L 8.01427,-55.607
 L 7.5,-55.58 z
M 171.819,-55.607 L 171.31,-55.6875 L 170.813,-55.8208 L 170.332,-56.0054 L 169.873,-56.2392 L 169.441,-56.5196
 L 169.041,-56.8437 L 168.677,-57.2079 L 168.353,-57.6081 L 168.072,-58.04 L 167.839,-58.4989 L 167.654,-58.9796
 L 167.521,-59.4771 L 167.44,-59.9857 L 167.413,-60.5 L 167.44,-61.0143 L 167.521,-61.5229 L 167.654,-62.0204
 L 167.839,-62.5011 L 168.072,-62.96 L 168.353,-63.3919 L 168.677,-63.7921 L 169.041,-64.1563 L 169.441,-64.4804
 L 169.783,-64.7024 L 169.783,-74 L 169.839,-74.5302 L 170.004,-75.0372 L 170.27,-75.4988 L 170.627,-75.895
 L 171.058,-76.2084 L 171.545,-76.4252 L 172.067,-76.536 L 172.6,-76.536 L 173.121,-76.4252 L 173.608,-76.2084
 L 174.04,-75.895 L 174.396,-75.4988 L 174.663,-75.0372 L 174.828,-74.5302 L 174.883,-74 L 174.883,-64.7024
 L 175.225,-64.4804 L 175.625,-64.1563 L 175.99,-63.7921 L 176.314,-63.3919 L 176.594,-62.96 L 176.828,-62.5011
 L 177.013,-62.0204 L 177.146,-61.5229 L 177.226,-61.0143 L 177.253,-60.5 L 177.226,-59.9857 L 177.146,-59.4771
 L 177.013,-58.9796 L 176.828,-58.4989 L 176.594,-58.04 L 176.314,-57.6081 L 175.99,-57.2079 L 175.625,-56.8437
 L 175.225,-56.5196 L 174.793,-56.2392 L 174.334,-56.0054 L 173.854,-55.8208 L 173.356,-55.6875 L 172.848,-55.607
 L 172.333,-55.58 z
M 336.652,-55.607 L 336.144,-55.6875 L 335.646,-55.8208 L 335.166,-56.0054 L 334.707,-56.2392 L 334.275,-56.5196
 L 333.875,-56.8437 L 333.51,-57.2079 L 333.186,-57.6081 L 332.906,-58.04 L 332.672,-58.4989 L 332.487,-58.9796
 L 332.354,-59.4771 L 332.274,-59.9857 L 332.247,-60.5 L 332.274,-61.0143 L 332.354,-61.5229 L 332.487,-62.0204
 L 332.672,-62.5011 L 332.906,-62.96 L 333.186,-63.3919 L 333.51,-63.7921 L 333.875,-64.1563 L 334.275,-64.4804
 L 334.617,-64.7024 L 334.617,-74 L 334.672,-74.5302 L 334.837,-75.0372 L 335.104,-75.4988 L 335.46,-75.895
 L 335.892,-76.2084 L 336.379,-76.4252 L 336.9,-76.536 L 337.433,-76.536 L 337.955,-76.4252 L 338.442,-76.2084
 L 338.873,-75.895 L 339.23,-75.4988 L 339.496,-75.0372 L 339.661,-74.5302 L 339.717,-74 L 339.717,-64.7024
 L 340.059,-64.4804 L 340.459,-64.1563 L 340.823,-63.7921 L 341.147,-63.3919 L 341.427,-62.96 L 341.661,-62.5011
 L 341.846,-62.0204 L 341.979,-61.5229 L 342.06,-61.0143 L 342.087,-60.5 L 342.06,-59.9857 L 341.979,-59.4771
 L 341.846,-58.9796 L 341.661,-58.4989 L 341.427,-58.04 L 341.147,-57.6081 L 340.823,-57.2079 L 340.459,-56.8437
 L 340.059,-56.5196 L 339.627,-56.2392 L 339.168,-56.0054 L 338.687,-55.8208 L 338.19,-55.6875 L 337.681,-55.607
 L 337.167,-55.58 z
M 501.486,-55.607 L 500.977,-55.6875 L 500.48,-55.8208 L 499.999,-56.0054 L 499.54,-56.2392 L 499.108,-56.5196
 L 498.708,-56.8437 L 498.344,-57.2079 L 498.02,-57.6081 L 497.739,-58.04 L 497.505,-58.4989 L 497.321,-58.9796
 L 497.188,-59.4771 L 497.107,-59.9857 L 497.08,-60.5 L 497.107,-61.0143 L 497.188,-61.5229 L 497.321,-62.0204
 L 497.505,-62.5011 L 497.739,-62.96 L 498.02,-63.3919 L 498.344,-63.7921 L 498.708,-64.1563 L 499.108,-64.4804
 L 499.45,-64.7024 L 499.45,-74 L 499.506,-74.5302 L 499.67,-75.0372 L 499.937,-75.4988 L 500.294,-75.895
 L 500.725,-76.2084 L 501.212,-76.4252 L 501.733,-76.536 L 502.267,-76.536 L 502.788,-76.4252 L 503.275,-76.2084
 L 503.706,-75.895 L 504.063,-75.4988 L 504.33,-75.0372 L 504.494,-74.5302 L 504.55,-74 L 504.55,-64.7024
 L 504.892,-64.4804 L 505.292,-64.1563 L 505.656,-63.7921 L 505.98,-63.3919 L 506.261,-62.96 L 506.495,-62.5011
 L 506.679,-62.0204 L 506.812,-61.5229 L 506.893,-61.0143 L 506.92,-60.5 L 506.893,-59.9857 L 506.812,-59.4771
 L 506.679,-58.9796 L 506.495,-58.4989 L 506.261,-58.04 L 505.98,-57.6081 L 505.656,-57.2079 L 505.292,-56.8437
 L 504.892,-56.5196 L 504.46,-56.2392 L 504.001,-56.0054 L 503.52,-55.8208 L 503.023,-55.6875 L 502.514,-55.607
 L 502,-55.58 z
M 666.319,-55.607 L 665.81,-55.6875 L 665.313,-55.8208 L 664.832,-56.0054 L 664.373,-56.2392 L 663.941,-56.5196
 L 663.541,-56.8437 L 663.177,-57.2079 L 662.853,-57.6081 L 662.572,-58.04 L 662.339,-58.4989 L 662.154,-58.9796
 L 662.021,-59.4771 L 661.94,-59.9857 L 661.913,-60.5 L 661.94,-61.0143 L 662.021,-61.5229 L 662.154,-62.0204
 L 662.339,-62.5011 L 662.572,-62.96 L 662.853,-63.3919 L 663.177,-63.7921 L 663.541,-64.1563 L 663.941,-64.4804
 L 664.283,-64.7024 L 664.283,-74 L 664.339,-74.5302 L 664.504,-75.0372 L 664.77,-75.4988 L 665.127,-75.895
 L 665.558,-76.2084 L 666.045,-76.4252 L 666.567,-76.536 L 667.1,-76.536 L 667.621,-76.4252 L 668.108,-76.2084
 L 668.54,-75.895 L 668.896,-75.4988 L 669.163,-75.0372 L 669.328,-74.5302 L 669.383,-74 L 669.383,-64.7024
 L 669.725,-64.4804 L 670.125,-64.1563 L 670.49,-63.7921 L 670.814,-63.3919 L 671.094,-62.96 L 671.328,-62.5011
 L 671.513,-62.0204 L 671.646,-61.5229 L 671.726,-61.0143 L 671.753,-60.5 L 671.726,-59.9857 L 671.646,-59.4771
 L 671.513,-58.9796 L 671.328,-58.4989 L 671.094,-58.04 L 670.814,-57.6081 L 670.49,-57.2079 L 670.125,-56.8437
 L 669.725,-56.5196 L 669.293,-56.2392 L 668.834,-56.0054 L 668.354,-55.8208 L 667.856,-55.6875 L 667.348,-55.607
 L 666.833,-55.58 z
M 831.152,-55.607 L 830.644,-55.6875 L 830.146,-55.8208 L 829.666,-56.0054 L 829.207,-56.2392 L 828.775,-56.5196
 L 828.375,-56.8437 L 828.01,-57.2079 L 827.686,-57.6081 L 827.406,-58.04 L 827.172,-58.4989 L 826.987,-58.9796
 L 826.854,-59.4771 L 826.774,-59.9857 L 826.747,-60.5 L 826.774,-61.0143 L 826.854,-61.5229 L 826.987,-62.0204
 L 827.172,-62.5011 L 827.406,-62.96 L 827.686,-63.3919 L 828.01,-63.7921 L 828.375,-64.1563 L 828.775,-64.4804
 L 829.117,-64.7024 L 829.117,-74 L 829.172,-74.5302 L 829.337,-75.0372 L 829.604,-75.4988 L 829.96,-75.895
 L 830.392,-76.2084 L 830.879,-76.4252 L 831.4,-76.536 L 831.933,-76.536 L 832.455,-76.4252 L 832.942,-76.2084
 L 833.373,-75.895 L 833.73,-75.4988 L 833.996,-75.0372 L 834.161,-74.5302 L 834.217,-74 L 834.217,-64.7024
 L 834.559,-64.4804 L 834.959,-64.1563 L 835.323,-63.7921 L 835.647,-63.3919 L 835.927,-62.96 L 836.161,-62.5011
 L 836.346,-62.0204 L 836.479,-61.5229 L 836.56,-61.0143 L 836.587,-60.5 L 836.56,-59.9857 L 836.479,-59.4771
 L 836.346,-58.9796 L 836.161,-58.4989 L 835.927,-58.04 L 835.647,-57.6081 L 835.323,-57.2079 L 834.959,-56.8437
 L 834.559,-56.5196 L 834.127,-56.2392 L 833.668,-56.0054 L 833.187,-55.8208 L 832.69,-55.6875 L 832.181,-55.607
 L 831.667,-55.58 z
M 995.986,-55.607 L 995.477,-55.6875 L 994.98,-55.8208 L 994.499,-56.0054 L 994.04,-56.2392 L 993.608,-56.5196
 L 993.208,-56.8437 L 992.844,-57.2079 L 992.52,-57.6081 L 992.239,-58.04 L 992.005,-58.4989 L 991.821,-58.9796
 L 991.688,-59.4771 L 991.607,-59.9857 L 991.58,-60.5 L 991.607,-61.0143 L 991.688,-61.5229 L 991.821,-62.0204
 L 992.005,-62.5011 L 992.239,-62.96 L 992.52,-63.3919 L 992.844,-63.7921 L 993.208,-64.1563 L 993.608,-64.4804
 L 993.95,-64.7024 L 993.95,-74 L 994.006,-74.5302 L 994.17,-75.0372 L 994.437,-75.4988 L 994.794,-75.895
 L 995.225,-76.2084 L 995.712,-76.4252 L 996.233,-76.536 L 996.767,-76.536 L 997.288,-76.4252 L 997.775,-76.2084
 L 998.206,-75.895 L 998.563,-75.4988 L 998.83,-75.0372 L 998.994,-74.5302 L 999.05,-74 L 999.05,-64.7024
 L 999.392,-64.4804 L 999.792,-64.1563 L 1000.16,-63.7921 L 1000.48,-63.3919 L 1000.76,-62.96 L 1000.99,-62.5011
 L 1001.18,-62.0204 L 1001.31,-61.5229 L 1001.39,-61.0143 L 1001.42,-60.5 L 1001.39,-59.9857 L 1001.31,-59.4771
 L 1001.18,-58.9796 L 1000.99,-58.4989 L 1000.76,-58.04 L 1000.48,-57.6081 L 1000.16,-57.2079 L 999.792,-56.8437
 L 999.392,-56.5196 L 998.96,-56.2392 L 998.501,-56.0054 L 998.02,-55.8208 L 997.523,-55.6875 L 997.014,-55.607
 L 996.5,-55.58 z
M 843.727,-21.5323 L 842.939,-21.8125 L 842.227,-22.2505 L 841.621,-22.827 L 841.149,-23.5168 L 840.83,-24.2898
 L 840.667,-25.4204 L 840.667,-58 L 840.754,-58.8316 L 841.012,-59.627 L 841.431,-60.3511 L 841.99,-60.9726
 L 842.667,-61.4641 L 843.431,-61.8042 L 844.667,-62 L 923.64,-62 L 924.472,-61.9126 L 925.267,-61.6542
 L 925.991,-61.2361 L 926.613,-60.6765 L 927.104,-60 L 927.444,-59.2361 L 927.618,-58.4181 L 927.618,-57.5819
 L 927.444,-56.7639 L 927.104,-56 L 926.613,-55.3235 L 925.991,-54.7639 L 925.166,-54.3023 L 846.192,-21.7227
 L 845.39,-21.4863 L 844.556,-21.4219 z
M 323.443,-21.4863 L 322.641,-21.7227 L 243.668,-54.3023 L 242.842,-54.7639 L 242.22,-55.3235 L 241.729,-56
 L 241.389,-56.7639 L 241.215,-57.5819 L 241.215,-58.4181 L 241.389,-59.2361 L 241.729,-60 L 242.22,-60.6765
 L 242.842,-61.2361 L 243.566,-61.6542 L 244.361,-61.9126 L 245.193,-62 L 324.167,-62 L 325.403,-61.8042
 L 326.167,-61.4641 L 326.843,-60.9726 L 327.403,-60.3511 L 327.821,-59.627 L 328.079,-58.8316 L 328.167,-58
 L 328.167,-25.4204 L 328.004,-24.2898 L 327.685,-23.5168 L 327.212,-22.827 L 326.606,-22.2505 L 325.894,-21.8125
 L 325.106,-21.5323 L 324.277,-21.4219 z
M 158.61,-21.4863 L 157.808,-21.7227 L 78.8343,-54.3023 L 78.0086,-54.7639 L 77.3872,-55.3235 L 76.8956,-56
 L 76.5555,-56.7639 L 76.3817,-57.5819 L 76.3817,-58.4181 L 76.5555,-59.2361 L 76.8956,-60 L 77.3872,-60.6765
 L 78.0086,-61.2361 L 78.7328,-61.6542 L 79.5281,-61.9126 L 80.3597,-62 L 159.333,-62 L 160.569,-61.8042
 L 161.333,-61.4641 L 162.01,-60.9726 L 162.569,-60.3511 L 162.988,-59.627 L 163.246,-58.8316 L 163.333,-58
 L 163.333,-25.4204 L 163.17,-24.2898 L 162.851,-23.5168 L 162.379,-22.827 L 161.773,-22.2505 L 161.061,-21.8125
 L 160.273,-21.5323 L 159.444,-21.4219 z
M 488.277,-21.4863 L 487.475,-21.7227 L 408.501,-54.3023 L 407.675,-54.7639 L 407.054,-55.3235 L 406.562,-56
 L 406.222,-56.7639 L 406.048,-57.5819 L 406.048,-58.4181 L 406.222,-59.2361 L 406.562,-60 L 407.054,-60.6765
 L 407.675,-61.2361 L 408.399,-61.6542 L 409.195,-61.9126 L 410.026,-62 L 489,-62 L 490.236,-61.8042
 L 491,-61.4641 L 491.677,-60.9726 L 492.236,-60.3511 L 492.654,-59.627 L 492.913,-58.8316 L 493,-58
 L 493,-25.4204 L 492.837,-24.2898 L 492.518,-23.5168 L 492.045,-22.827 L 491.44,-22.2505 L 490.727,-21.8125
 L 489.939,-21.5323 L 489.11,-21.4219 z
M 514.061,-21.5323 L 513.273,-21.8125 L 512.56,-22.2505 L 511.955,-22.827 L 511.482,-23.5168 L 511.163,-24.2898
 L 511,-25.4204 L 511,-58 L 511.087,-58.8316 L 511.346,-59.627 L 511.764,-60.3511 L 512.323,-60.9726
 L 513,-61.4641 L 513.764,-61.8042 L 515,-62 L 593.974,-62 L 594.805,-61.9126 L 595.601,-61.6542
 L 596.325,-61.2361 L 596.946,-60.6765 L 597.438,-60 L 597.778,-59.2361 L 597.952,-58.4181 L 597.952,-57.5819
 L 597.778,-56.7639 L 597.438,-56 L 596.946,-55.3235 L 596.325,-54.7639 L 595.499,-54.3023 L 516.525,-21.7227
 L 515.723,-21.4863 L 514.89,-21.4219 z
M 678.894,-21.5323 L 678.106,-21.8125 L 677.394,-22.2505 L 676.788,-22.827 L 676.315,-23.5168 L 675.996,-24.2898
 L 675.833,-25.4204 L 675.833,-58 L 675.921,-58.8316 L 676.179,-59.627 L 676.597,-60.3511 L 677.157,-60.9726
 L 677.833,-61.4641 L 678.597,-61.8042 L 679.833,-62 L 758.807,-62 L 759.639,-61.9126 L 760.434,-61.6542
 L 761.158,-61.2361 L 761.779,-60.6765 L 762.271,-60 L 762.611,-59.2361 L 762.785,-58.4181 L 762.785,-57.5819
 L 762.611,-56.7639 L 762.271,-56 L 761.779,-55.3235 L 761.158,-54.7639 L 760.332,-54.3023 L 681.359,-21.7227
 L 680.557,-21.4863 L 679.723,-21.4219 z
M 185.333,-18 L 184.097,-18.1958 L 183.333,-18.5359 L 182.657,-19.0274 L 182.097,-19.6489 L 181.679,-20.373
 L 181.421,-21.1684 L 181.333,-22 L 181.333,-54.5796 L 181.496,-55.7102 L 181.815,-56.4832 L 182.288,-57.173
 L 182.894,-57.7495 L 183.606,-58.1875 L 184.394,-58.4677 L 185.223,-58.5781 L 186.057,-58.5136 L 186.859,-58.2773
 L 265.832,-25.6977 L 266.658,-25.2361 L 267.279,-24.6765 L 267.771,-24 L 268.111,-23.2361 L 268.285,-22.4181
 L 268.285,-21.5819 L 268.111,-20.7639 L 267.771,-20 L 267.279,-19.3235 L 266.658,-18.7639 L 265.934,-18.3458
 L 265.139,-18.0874 L 264.307,-18 z
M 350.167,-18 L 348.931,-18.1958 L 348.167,-18.5359 L 347.49,-19.0274 L 346.931,-19.6489 L 346.512,-20.373
 L 346.254,-21.1684 L 346.167,-22 L 346.167,-54.5796 L 346.33,-55.7102 L 346.649,-56.4832 L 347.121,-57.173
 L 347.727,-57.7495 L 348.439,-58.1875 L 349.227,-58.4677 L 350.056,-58.5781 L 350.89,-58.5136 L 351.692,-58.2773
 L 430.666,-25.6977 L 431.491,-25.2361 L 432.113,-24.6765 L 432.604,-24 L 432.944,-23.2361 L 433.118,-22.4181
 L 433.118,-21.5819 L 432.944,-20.7639 L 432.604,-20 L 432.113,-19.3235 L 431.491,-18.7639 L 430.767,-18.3458
 L 429.972,-18.0874 L 429.14,-18 z
M 574.86,-18 L 574.028,-18.0874 L 573.233,-18.3458 L 572.509,-18.7639 L 571.887,-19.3235 L 571.396,-20
 L 571.056,-20.7639 L 570.882,-21.5819 L 570.882,-22.4181 L 571.056,-23.2361 L 571.396,-24 L 571.887,-24.6765
 L 572.509,-25.2361 L 573.334,-25.6977 L 652.308,-58.2773 L 653.11,-58.5136 L 653.944,-58.5781 L 654.773,-58.4677
 L 655.561,-58.1875 L 656.273,-57.7495 L 656.879,-57.173 L 657.351,-56.4832 L 657.67,-55.7102 L 657.833,-54.5796
 L 657.833,-22 L 657.746,-21.1684 L 657.488,-20.373 L 657.069,-19.6489 L 656.51,-19.0274 L 655.833,-18.5359
 L 655.069,-18.1958 L 653.833,-18 z
M 739.693,-18 L 738.861,-18.0874 L 738.066,-18.3458 L 737.342,-18.7639 L 736.721,-19.3235 L 736.229,-20
 L 735.889,-20.7639 L 735.715,-21.5819 L 735.715,-22.4181 L 735.889,-23.2361 L 736.229,-24 L 736.721,-24.6765
 L 737.342,-25.2361 L 738.168,-25.6977 L 817.141,-58.2773 L 817.943,-58.5136 L 818.777,-58.5781 L 819.606,-58.4677
 L 820.394,-58.1875 L 821.106,-57.7495 L 821.712,-57.173 L 822.185,-56.4832 L 822.504,-55.7102 L 822.667,-54.5796
 L 822.667,-22 L 822.579,-21.1684 L 822.321,-20.373 L 821.903,-19.6489 L 821.343,-19.0274 L 820.667,-18.5359
 L 819.903,-18.1958 L 818.667,-18 z
M 904.526,-18 L 903.695,-18.0874 L 902.899,-18.3458 L 902.175,-18.7639 L 901.554,-19.3235 L 901.062,-20
 L 900.722,-20.7639 L 900.548,-21.5819 L 900.548,-22.4181 L 900.722,-23.2361 L 901.062,-24 L 901.554,-24.6765
 L 902.175,-25.2361 L 903.001,-25.6977 L 980.475,-57.6585 L 981.277,-57.8948 L 982.11,-57.9593 L 982.939,-57.8489
 L 983.727,-57.5687 L 984.44,-57.1307 L 985.045,-56.5542 L 985.518,-55.8644 L 985.837,-55.0914 L 986,-53.9608
 L 986,-22 L 985.913,-21.1684 L 985.654,-20.373 L 985.236,-19.6489 L 984.677,-19.0274 L 984,-18.5359
 L 983.236,-18.1958 L 982,-18 z
M 22,-18 L 20.7639,-18.1958 L 20,-18.5359 L 19.3235,-19.0274 L 18.7639,-19.6489 L 18.3458,-20.373
 L 18.0874,-21.1684 L 18,-22 L 18,-53.9608 L 18.1631,-55.0914 L 18.482,-55.8644 L 18.9547,-56.5542
 L 19.5604,-57.1307 L 20.2728,-57.5687 L 21.0607,-57.8489 L 21.8896,-57.9593 L 22.7233,-57.8948 L 23.5254,-57.6585
 L 100.999,-25.6977 L 101.825,-25.2361 L 102.446,-24.6765 L 102.938,-24 L 103.278,-23.2361 L 103.452,-22.4181
 L 103.452,-21.5819 L 103.278,-20.7639 L 102.938,-20 L 102.446,-19.3235 L 101.825,-18.7639 L 101.101,-18.3458
 L 100.305,-18.0874 L 99.4736,-18 z
" stroke="black" fill="lightgray" stroke-width="0.5"/>
</svg>
