<?xml version="1.0" standalone="no"?>
<!DOCTYPE svg PUBLIC "-//W3C//DTD SVG 1.1//EN" "http://www.w3.org/Graphics/SVG/1.1/DTD/svg11.dtd">
<svg width="1036mm" height="80mm" viewBox="0 -80 1036 80" xmlns="http://www.w3.org/2000/svg" version="1.1">
<title>OpenSCAD Model</title>
<path d="
M 1036,-80 L 0,-80 L 0,-0 L 4.95,-0 L 4.95,-6 L 5.00572,-6.53017
 L 5.17046,-7.03717 L 5.437,-7.49884 L 5.79372,-7.895 L 6.22499,-8.20836 L 6.71201,-8.42519 L 7.23344,-8.53603
 L 7.76654,-8.53603 L 8.28798,-8.42519 L 8.77499,-8.20836 L 9.20627,-7.895 L 9.56299,-7.49884 L 9.82953,-7.03717
 L 9.99426,-6.53017 L 10.05,-6 L 10.05,-0 L 175.117,-0 L 175.117,-6 L 175.172,-6.53017
 L 175.337,-7.03717 L 175.604,-7.49884 L 175.96,-7.895 L 176.392,-8.20836 L 176.879,-8.42519 L 177.4,-8.53603
 L 177.933,-8.53603 L 178.455,-8.42519 L 178.942,-8.20836 L 179.373,-7.895 L 179.73,-7.49884 L 179.996,-7.03717
 L 180.161,-6.53017 L 180.217,-6 L 180.217,-0 L 345.283,-0 L 345.283,-6 L 345.339,-6.53017
 L 345.504,-7.03717 L 345.77,-7.49884 L 346.127,-7.895 L 346.558,-8.20836 L 347.045,-8.42519 L 347.567,-8.53603
 L 348.1,-8.53603 L 348.621,-8.42519 L 349.108,-8.20836 L 349.54,-7.895 L 349.896,-7.49884 L 350.163,-7.03717
 L 350.328,-6.53017 L 350.383,-6 L 350.383,-0 L 515.45,-0 L 515.45,-6 L 515.506,-6.53017
 L 515.67,-7.03717 L 515.937,-7.49884 L 516.294,-7.895 L 516.725,-8.20836 L 517.212,-8.42519 L 517.733,-8.53603
 L 518.267,-8.53603 L 518.788,-8.42519 L 519.275,-8.20836 L 519.706,-7.895 L 520.063,-7.49884 L 520.33,-7.03717
 L 520.494,-6.53017 L 520.55,-6 L 520.55,-0 L 685.617,-0 L 685.617,-6 L 685.672,-6.53017
 L 685.837,-7.03717 L 686.104,-7.49884 L 686.46,-7.895 L 686.892,-8.20836 L 687.379,-8.42519 L 687.9,-8.53603
 L 688.433,-8.53603 L 688.955,-8.42519 L 689.442,-8.20836 L 689.873,-7.895 L 690.23,-7.49884 L 690.496,-7.03717
 L 690.661,-6.53017 L 690.717,-6 L 690.717,-0 L 855.783,-0 L 855.783,-6 L 855.839,-6.53017
 L 856.004,-7.03717 L 856.27,-7.49884 L 856.627,-7.895 L 857.058,-8.20836 L 857.545,-8.42519 L 858.067,-8.53603
 L 858.6,-8.53603 L 859.121,-8.42519 L 859.608,-8.20836 L 860.04,-7.895 L 860.396,-7.49884 L 860.663,-7.03717
 L 860.828,-6.53017 L 860.883,-6 L 860.883,-0 L 1025.95,-0 L 1025.95,-6 L 1026.01,-6.53017
 L 1026.17,-7.03717 L 1026.44,-7.49884 L 1026.79,-7.895 L 1027.22,-8.20836 L 1027.71,-8.42519 L 1028.23,-8.53603
 L 1028.77,-8.53603 L 1029.29,-8.42519 L 1029.77,-8.20836 L 1030.21,-7.895 L 1030.56,-7.49884 L 1030.83,-7.03717
 L 1030.99,-6.53017 L 1031.05,-6 L 1031.05,-0 L 1036,-0 z
M 6.98573,-55.607 L 6.47708,-55.6875 L 5.97964,-55.8208 L 5.49887,-56.0054 L 5.04001,-56.2392 L 4.60811,-56.5196
 L 4.20789,-56.8437 L 3.84373,-57.2079 L 3.51964,-57.6081 L 3.23917,-58.04 L 3.00537,-58.4989 L 2.82082,-58.9796
 L 2.68752,-59.4771 L 2.60696,-59.9857 L 2.58,-60.5 L 2.60696,-61.0143 L 2.68752,-61.5229 L 2.82082,-62.0204
 L 3.00537,-62.5011 L 3.23917,-62.96 L 3.51964,-63.3919 L 3.84373,-63.7921 L 4.20789,-64.1563 L 4.60811,-64.4804
 L 4.95001,-64.7024 L 4.95001,-74 L 5.00574,-74.5302 L 5.17047,-75.0372 L 5.43701,-75.4988 L 5.79373,-75.895
 L 6.22501,-76.2084 L 6.71202,-76.4252 L 7.23346,-76.536 L 7.76654,-76.536 L 8.28798,-76.4252 L 8.77499,-76.2084
 L 9.20627,-75.895 L 9.56299,-75.4988 L 9.82953,-75.0372 L 9.99426,-74.5302 L 10.05,-74 L 10.05,-64.7024
 L 10.3919,-64.4804 L 10.7921,-64.1563 L 11.1563,-63.7921 L 11.4804,-63.3919 L 11.7608,-62.96 L 11.9946,-62.5011
 L 12.1792,-62.0204 L 12.3125,-61.5229 L 12.393,-61.0143 L 12.42,-60.5 L 12.393,-59.9857 L 12.3125,-59.4771
 L 12.1792,-58.9796 L 11.9946,-58.4989 L 11.7608,-58.04 L 11.4804,-57.6081 L 11.1563,-57.2079 L 10.7921,-56.8437
 L 10.3919,-56.5196 L 9.95999,-56.2392 L 9.50113,-56.0054 L 9.02036,-55.8208 L 8.52292,-55.6875 L 8.01427,-55.607
 L 7.5,-55.58 z
M 177.152,-55.607 L 176.644,-55.6875 L 176.146,-55.8208 L 175.666,-56.0054 L 175.207,-56.2392 L 174.775,-56.5196
 L 174.375,-56.8437 L 174.01,-57.2079 L 173.686,-57.6081 L 173.406,-58.04 L 173.172,-58.4989 L 172.987,-58.9796
 L 172.854,-59.4771 L 172.774,-59.9857 L 172.747,-60.5 L 172.774,-61.0143 L 172.854,-61.5229 L 172.987,-62.0204
 L 173.172,-62.5011 L 173.406,-62.96 L 173.686,-63.3919 L 174.01,-63.7921 L 174.375,-64.1563 L 174.775,-64.4804
 L 175.117,-64.7024 L 175.117,-74 L 175.172,-74.5302 L 175.337,-75.0372 L 175.604,-75.4988 L 175.96,-75.895
 L 176.392,-76.2084 L 176.879,-76.4252 L 177.4,-76.536 L 177.933,-76.536 L 178.455,-76.4252 L 178.942,-76.2084
 L 179.373,-75.895 L 179.73,-75.4988 L 179.996,-75.0372 L 180.161,-74.5302 L 180.217,-74 L 180.217,-64.7024
 L 180.559,-64.4804 L 180.959,-64.1563 L 181.323,-63.7921 L 181.647,-63.3919 L 181.927,-62.96 L 182.161,-62.5011
 L 182.346,-62.0204 L 182.479,-61.5229 L 182.56,-61.0143 L 182.587,-60.5 L 182.56,-59.9857 L 182.479,-59.4771
 L 182.346,-58.9796 L 182.161,-58.4989 L 181.927,-58.04 L 181.647,-57.6081 L 181.323,-57.2079 L 180.959,-56.8437
 L 180.559,-56.5196 L 180.127,-56.2392 L 179.668,-56.0054 L 179.187,-55.8208 L 178.69,-55.6875 L 178.181,-55.607
 L 177.667,-55.58 z
M 347.319,-55.607 L 346.81,-55.6875 L 346.313,-55.8208 L 345.832,-56.0054 L 345.373,-56.2392 L 344.941,-56.5196
 L 344.541,-56.8437 L 344.177,-57.2079 L 343.853,-57.6081 L 343.572,-58.04 L 343.339,-58.4989 L 343.154,-58.9796
 L 343.021,-59.4771 L 342.94,-59.9857 L 342.913,-60.5 L 342.94,-61.0143 L 343.021,-61.5229 L 343.154,-62.0204
 L 343.339,-62.5011 L 343.572,-62.96 L 343.853,-63.3919 L 344.177,-63.7921 L 344.541,-64.1563 L 344.941,-64.4804
 L 345.283,-64.7024 L 345.283,-74 L 345.339,-74.5302 L 345.504,-75.0372 L 345.77,-75.4988 L 346.127,-75.895
 L 346.558,-76.2084 L 347.045,-76.4252 L 347.567,-76.536 L 348.1,-76.536 L 348.621,-76.4252 L 349.108,-76.2084
 L 349.54,-75.895 L 349.896,-75.4988 L 350.163,-75.0372 L 350.328,-74.5302 L 350.383,-74 L 350.383,-64.7024
 L 350.725,-64.4804 L 351.125,-64.1563 L 351.49,-63.7921 L 351.814,-63.3919 L 352.094,-62.96 L 352.328,-62.5011
 L 352.513,-62.0204 L 352.646,-61.5229 L 352.726,-61.0143 L 352.753,-60.5 L 352.726,-59.9857 L 352.646,-59.4771
 L 352.513,-58.9796 L 352.328,-58.4989 L 352.094,-58.04 L 351.814,-57.6081 L 351.49,-57.2079 L 351.125,-56.8437
 L 350.725,-56.5196 L 350.293,-56.2392 L 349.834,-56.0054 L 349.354,-55.8208 L 348.856,-55.6875 L 348.348,-55.607
 L 347.833,-55.58 z
M 517.486,-55.607 L 516.977,-55.6875 L 516.48,-55.8208 L 515.999,-56.0054 L 515.54,-56.2392 L 515.108,-56.5196
 L 514.708,-56.8437 L 514.344,-57.2079 L 514.02,-57.6081 L 513.739,-58.04 L 513.505,-58.4989 L 513.321,-58.9796
 L 513.188,-59.4771 L 513.107,-59.9857 L 513.08,-60.5 L 513.107,-61.0143 L 513.188,-61.5229 L 513.321,-62.0204
 L 513.505,-62.5011 L 513.739,-62.96 L 514.02,-63.3919 L 514.344,-63.7921 L 514.708,-64.1563 L 515.108,-64.4804
 L 515.45,-64.7024 L 515.45,-74 L 515.506,-74.5302 L 515.67,-75.0372 L 515.937,-75.4988 L 516.294,-75.895
 L 516.725,-76.2084 L 517.212,-76.4252 L 517.733,-76.536 L 518.267,-76.536 L 518.788,-76.4252 L 519.275,-76.2084
 L 519.706,-75.895 L 520.063,-75.4988 L 520.33,-75.0372 L 520.494,-74.5302 L 520.55,-74 L 520.55,-64.7024
 L 520.892,-64.4804 L 521.292,-64.1563 L 521.656,-63.7921 L 521.98,-63.3919 L 522.261,-62.96 L 522.495,-62.5011
 L 522.679,-62.0204 L 522.812,-61.5229 L 522.893,-61.0143 L 522.92,-60.5 L 522.893,-59.9857 L 522.812,-59.4771
 L 522.679,-58.9796 L 522.495,-58.4989 L 522.261,-58.04 L 521.98,-57.6081 L 521.656,-57.2079 L 521.292,-56.8437
 L 520.892,-56.5196 L 520.46,-56.2392 L 520.001,-56.0054 L 519.52,-55.8208 L 519.023,-55.6875 L 518.514,-55.607
 L 518,-55.58 z
M 687.652,-55.607 L 687.144,-55.6875 L 686.646,-55.8208 L 686.166,-56.0054 L 685.707,-56.2392 L 685.275,-56.5196
 L 684.875,-56.8437 L 684.51,-57.2079 L 684.186,-57.6081 L 683.906,-58.04 L 683.672,-58.4989 L 683.487,-58.9796
 L 683.354,-59.4771 L 683.274,-59.9857 L 683.247,-60.5 L 683.274,-61.0143 L 683.354,-61.5229 L 683.487,-62.0204
 L 683.672,-62.5011 L 683.906,-62.96 L 684.186,-63.3919 L 684.51,-63.7921 L 684.875,-64.1563 L 685.275,-64.4804
 L 685.617,-64.7024 L 685.617,-74 L 685.672,-74.5302 L 685.837,-75.0372 L 686.104,-75.4988 L 686.46,-75.895
 L 686.892,-76.2084 L 687.379,-76.4252 L 687.9,-76.536 L 688.433,-76.536 L 688.955,-76.4252 L 689.442,-76.2084
 L 689.873,-75.895 L 690.23,-75.4988 L 690.496,-75.0372 L 690.661,-74.5302 L 690.717,-74 L 690.717,-64.7024
 L 691.059,-64.4804 L 691.459,-64.1563 L 691.823,-63.7921 L 692.147,-63.3919 L 692.427,-62.96 L 692.661,-62.5011
 L 692.846,-62.0204 L 692.979,-61.5229 L 693.06,-61.0143 L 693.087,-60.5 L 693.06,-59.9857 L 692.979,-59.4771
 L 692.846,-58.9796 L 692.661,-58.4989 L 692.427,-58.04 L 692.147,-57.6081 L 691.823,-57.2079 L 691.459,-56.8437
 L 691.059,-56.5196 L 690.627,-56.2392 L 690.168,-56.0054 L 689.687,-55.8208 L 689.19,-55.6875 L 688.681,-55.607
 L 688.167,-55.58 z
M 857.819,-55.607 L 857.31,-55.6875 L 856.813,-55.8208 L 856.332,-56.0054 L 855.873,-56.2392 L 855.441,-56.5196
 L 855.041,-56.8437 L 854.677,-57.2079 L 854.353,-57.6081 L 854.072,-58.04 L 853.839,-58.4989 L 853.654,-58.9796
 L 853.521,-59.4771 L 853.44,-59.9857 L 853.413,-60.5 L 853.44,-61.0143 L 853.521,-61.5229 L 853.654,-62.0204
 L 853.839,-62.5011 L 854.072,-62.96 L 854.353,-63.3919 L 854.677,-63.7921 L 855.041,-64.1563 L 855.441,-64.4804
 L 855.783,-64.7024 L 855.783,-74 L 855.839,-74.5302 L 856.004,-75.0372 L 856.27,-75.4988 L 856.627,-75.895
 L 857.058,-76.2084 L 857.545,-76.4252 L 858.067,-76.536 L 858.6,-76.536 L 859.121,-76.4252 L 859.608,-76.2084
 L 860.04,-75.895 L 860.396,-75.4988 L 860.663,-75.0372 L 860.828,-74.5302 L 860.883,-74 L 860.883,-64.7024
 L 861.225,-64.4804 L 861.625,-64.1563 L 861.99,-63.7921 L 862.314,-63.3919 L 862.594,-62.96 L 862.828,-62.5011
 L 863.013,-62.0204 L 863.146,-61.5229 L 863.226,-61.0143 L 863.253,-60.5 L 863.226,-59.9857 L 863.146,-59.4771
 L 863.013,-58.9796 L 862.828,-58.4989 L 862.594,-58.04 L 862.314,-57.6081 L 861.99,-57.2079 L 861.625,-56.8437
 L 861.225,-56.5196 L 860.793,-56.2392 L 860.334,-56.0054 L 859.854,-55.8208 L 859.356,-55.6875 L 858.848,-55.607
 L 858.333,-55.58 z
M 1027.99,-55.607 L 1027.48,-55.6875 L 1026.98,-55.8208 L 1026.5,-56.0054 L 1026.04,-56.2392 L 1025.61,-56.5196
 L 1025.21,-56.8437 L 1024.84,-57.2079 L 1024.52,-57.6081 L 1024.24,-58.04 L 1024.01,-58.4989 L 1023.82,-58.9796
 L 1023.69,-59.4771 L 1023.61,-59.9857 L 1023.58,-60.5 L 1023.61,-61.0143 L 1023.69,-61.5229 L 1023.82,-62.0204
 L 1024.01,-62.5011 L 1024.24,-62.96 L 1024.52,-63.3919 L 1024.84,-63.7921 L 1025.21,-64.1563 L 1025.61,-64.4804
 L 1025.95,-64.7024 L 1025.95,-74 L 1026.01,-74.5302 L 1026.17,-75.0372 L 1026.44,-75.4988 L 1026.79,-75.895
 L 1027.23,-76.2084 L 1027.71,-76.4252 L 1028.23,-76.536 L 1028.77,-76.536 L 1029.29,-76.4252 L 1029.77,-76.2084
 L 1030.21,-75.895 L 1030.56,-75.4988 L 1030.83,-75.0372 L 1030.99,-74.5302 L 1031.05,-74 L 1031.05,-64.7024
 L 1031.39,-64.4804 L 1031.79,-64.1563 L 1032.16,-63.7921 L 1032.48,-63.3919 L 1032.76,-62.96 L 1032.99,-62.5011
 L 1033.18,-62.0204 L 1033.31,-61.5229 L 1033.39,-61.0143 L 1033.42,-60.5 L 1033.39,-59.9857 L 1033.31,-59.4771
 L 1033.18,-58.9796 L 1032.99,-58.4989 L 1032.76,-58.04 L 1032.48,-57.6081 L 1032.16,-57.2079 L 1031.79,-56.8437
 L 1031.39,-56.5196 L 1030.96,-56.2392 L 1030.5,-56.0054 L 1030.02,-55.8208 L 1029.52,-55.6875 L 1029.01,-55.607
 L 1028.5,-55.58 z
M 870.351,-21.3065 L 869.566,-21.5955 L 868.859,-22.0413 L 868.259,-22.6245 L 867.794,-23.3195 L 867.484,-24.096
 L 867.333,-25.1839 L 867.333,-58 L 867.421,-58.8316 L 867.679,-59.627 L 868.097,-60.3511 L 868.657,-60.9726
 L 869.333,-61.4641 L 870.097,-61.8042 L 871.333,-62 L 953.454,-62 L 954.286,-61.9126 L 955.081,-61.6542
 L 955.805,-61.2361 L 956.426,-60.6765 L 956.918,-60 L 957.258,-59.2361 L 957.432,-58.4181 L 957.432,-57.5819
 L 957.258,-56.7639 L 956.918,-56 L 956.426,-55.3235 L 955.805,-54.7639 L 954.938,-54.2856 L 872.818,-21.4695
 L 872.013,-21.2421 L 871.179,-21.1869 z
M 334.154,-21.2421 L 333.349,-21.4695 L 251.228,-54.2856 L 250.362,-54.7639 L 249.74,-55.3235 L 249.249,-56
 L 248.909,-56.7639 L 248.735,-57.5819 L 248.735,-58.4181 L 248.909,-59.2361 L 249.249,-60 L 249.74,-60.6765
 L 250.362,-61.2361 L 251.086,-61.6542 L 251.881,-61.9126 L 252.713,-62 L 334.833,-62 L 336.069,-61.8042
 L 336.833,-61.4641 L 337.51,-60.9726 L 338.069,-60.3511 L 338.487,-59.627 L 338.746,-58.8316 L 338.833,-58
 L 338.833,-25.1839 L 338.683,-24.096 L 338.372,-23.3195 L 337.907,-22.6245 L 337.308,-22.0413 L 336.6,-21.5955
 L 335.816,-21.3065 L 334.988,-21.1869 z
M 163.987,-21.2421 L 163.182,-21.4695 L 81.0618,-54.2856 L 80.195,-54.7639 L 79.5735,-55.3235 L 79.082,-56
 L 78.7419,-56.7639 L 78.568,-57.5819 L 78.568,-58.4181 L 78.7419,-59.2361 L 79.082,-60 L 79.5735,-60.6765
 L 80.195,-61.2361 L 80.9191,-61.6542 L 81.7144,-61.9126 L 82.5461,-62 L 164.667,-62 L 165.903,-61.8042
 L 166.667,-61.4641 L 167.343,-60.9726 L 167.903,-60.3511 L 168.321,-59.627 L 168.579,-58.8316 L 168.667,-58
 L 168.667,-25.1839 L 168.516,-24.096 L 168.206,-23.3195 L 167.741,-22.6245 L 167.141,-22.0413 L 166.434,-21.5955
 L 165.649,-21.3065 L 164.821,-21.1869 z
M 504.32,-21.2421 L 503.516,-21.4695 L 421.395,-54.2856 L 420.528,-54.7639 L 419.907,-55.3235 L 419.415,-56
 L 419.075,-56.7639 L 418.901,-57.5819 L 418.901,-58.4181 L 419.075,-59.2361 L 419.415,-60 L 419.907,-60.6765
 L 420.528,-61.2361 L 421.252,-61.6542 L 422.048,-61.9126 L 422.879,-62 L 505,-62 L 506.236,-61.8042
 L 507,-61.4641 L 507.677,-60.9726 L 508.236,-60.3511 L 508.654,-59.627 L 508.913,-58.8316 L 509,-58
 L 509,-25.1839 L 508.849,-24.096 L 508.539,-23.3195 L 508.074,-22.6245 L 507.475,-22.0413 L 506.767,-21.5955
 L 505.982,-21.3065 L 505.155,-21.1869 z
M 530.018,-21.3065 L 529.233,-21.5955 L 528.525,-22.0413 L 527.926,-22.6245 L 527.461,-23.3195 L 527.151,-24.096
 L 527,-25.1839 L 527,-58 L 527.087,-58.8316 L 527.346,-59.627 L 527.764,-60.3511 L 528.323,-60.9726
 L 529,-61.4641 L 529.764,-61.8042 L 531,-62 L 613.121,-62 L 613.952,-61.9126 L 614.748,-61.6542
 L 615.472,-61.2361 L 616.093,-60.6765 L 616.585,-60 L 616.925,-59.2361 L 617.099,-58.4181 L 617.099,-57.5819
 L 616.925,-56.7639 L 616.585,-56 L 616.093,-55.3235 L 615.472,-54.7639 L 614.605,-54.2856 L 532.484,-21.4695
 L 531.68,-21.2421 L 530.845,-21.1869 z
M 700.184,-21.3065 L 699.4,-21.5955 L 698.692,-22.0413 L 698.093,-22.6245 L 697.628,-23.3195 L 697.317,-24.096
 L 697.167,-25.1839 L 697.167,-58 L 697.254,-58.8316 L 697.512,-59.627 L 697.931,-60.3511 L 698.49,-60.9726
 L 699.167,-61.4641 L 699.931,-61.8042 L 701.167,-62 L 783.287,-62 L 784.119,-61.9126 L 784.914,-61.6542
 L 785.638,-61.2361 L 786.26,-60.6765 L 786.751,-60 L 787.091,-59.2361 L 787.265,-58.4181 L 787.265,-57.5819
 L 787.091,-56.7639 L 786.751,-56 L 786.26,-55.3235 L 785.638,-54.7639 L 784.772,-54.2856 L 702.651,-21.4695
 L 701.846,-21.2421 L 701.012,-21.1869 z
M 190.667,-18 L 189.431,-18.1958 L 188.667,-18.5359 L 187.99,-19.0274 L 187.431,-19.6489 L 187.012,-20.373
 L 186.754,-21.1684 L 186.667,-22 L 186.667,-54.816 L 186.817,-55.904 L 187.128,-56.6805 L 187.593,-57.3755
 L 188.192,-57.9587 L 188.9,-58.4045 L 189.684,-58.6935 L 190.512,-58.813 L 191.346,-58.7579 L 192.151,-58.5304
 L 274.272,-25.7144 L 275.138,-25.2361 L 275.76,-24.6765 L 276.251,-24 L 276.591,-23.2361 L 276.765,-22.4181
 L 276.765,-21.5819 L 276.591,-20.7639 L 276.251,-20 L 275.76,-19.3235 L 275.138,-18.7639 L 274.414,-18.3458
 L 273.619,-18.0874 L 272.787,-18 z
M 360.833,-18 L 359.597,-18.1958 L 358.833,-18.5359 L 358.157,-19.0274 L 357.597,-19.6489 L 357.179,-20.373
 L 356.921,-21.1684 L 356.833,-22 L 356.833,-54.816 L 356.984,-55.904 L 357.294,-56.6805 L 357.759,-57.3755
 L 358.359,-57.9587 L 359.066,-58.4045 L 359.851,-58.6935 L 360.679,-58.813 L 361.513,-58.7579 L 362.318,-58.5304
 L 444.438,-25.7144 L 445.305,-25.2361 L 445.926,-24.6765 L 446.418,-24 L 446.758,-23.2361 L 446.932,-22.4181
 L 446.932,-21.5819 L 446.758,-20.7639 L 446.418,-20 L 445.926,-19.3235 L 445.305,-18.7639 L 444.581,-18.3458
 L 443.786,-18.0874 L 442.954,-18 z
M 593.046,-18 L 592.214,-18.0874 L 591.419,-18.3458 L 590.695,-18.7639 L 590.074,-19.3235 L 589.582,-20
 L 589.242,-20.7639 L 589.068,-21.5819 L 589.068,-22.4181 L 589.242,-23.2361 L 589.582,-24 L 590.074,-24.6765
 L 590.695,-25.2361 L 591.562,-25.7144 L 673.682,-58.5304 L 674.487,-58.7579 L 675.321,-58.813 L 676.149,-58.6935
 L 676.934,-58.4045 L 677.641,-57.9587 L 678.241,-57.3755 L 678.706,-56.6805 L 679.016,-55.904 L 679.167,-54.816
 L 679.167,-22 L 679.079,-21.1684 L 678.821,-20.373 L 678.403,-19.6489 L 677.843,-19.0274 L 677.167,-18.5359
 L 676.403,-18.1958 L 675.167,-18 z
M 763.213,-18 L 762.381,-18.0874 L 761.586,-18.3458 L 760.862,-18.7639 L 760.24,-19.3235 L 759.749,-20
 L 759.409,-20.7639 L 759.235,-21.5819 L 759.235,-22.4181 L 759.409,-23.2361 L 759.749,-24 L 760.24,-24.6765
 L 760.862,-25.2361 L 761.728,-25.7144 L 843.849,-58.5304 L 844.654,-58.7579 L 845.488,-58.813 L 846.316,-58.6935
 L 847.1,-58.4045 L 847.808,-57.9587 L 848.407,-57.3755 L 848.872,-56.6805 L 849.183,-55.904 L 849.333,-54.816
 L 849.333,-22 L 849.246,-21.1684 L 848.988,-20.373 L 848.569,-19.6489 L 848.01,-19.0274 L 847.333,-18.5359
 L 846.569,-18.1958 L 845.333,-18 z
M 933.379,-18 L 932.548,-18.0874 L 931.752,-18.3458 L 931.028,-18.7639 L 930.407,-19.3235 L 929.915,-20
 L 929.575,-20.7639 L 929.401,-21.5819 L 929.401,-22.4181 L 929.575,-23.2361 L 929.915,-24 L 930.407,-24.6765
 L 931.028,-25.2361 L 931.895,-25.7144 L 1012.52,-57.931 L 1013.32,-58.1585 L 1014.15,-58.2136 L 1014.98,-58.0941
 L 1015.77,-57.8051 L 1016.47,-57.3593 L 1017.07,-56.7761 L 1017.54,-56.0811 L 1017.85,-55.3046 L 1018,-54.2166
 L 1018,-22 L 1017.91,-21.1684 L 1017.65,-20.373 L 1017.24,-19.6489 L 1016.68,-19.0274 L 1016,-18.5359
 L 1015.24,-18.1958 L 1014,-18 z
M 22,-18 L 20.7639,-18.1958 L 20,-18.5359 L 19.3235,-19.0274 L 18.7639,-19.6489 L 18.3458,-20.373
 L 18.0874,-21.1684 L 18,-22 L 18,-54.2166 L 18.1508,-55.3046 L 18.4611,-56.0811 L 18.9261,-56.7761
 L 19.5254,-57.3593 L 20.2328,-57.8051 L 21.0176,-58.0941 L 21.8452,-58.2136 L 22.6796,-58.1585 L 23.4843,-57.931
 L 104.105,-25.7144 L 104.972,-25.2361 L 105.593,-24.6765 L 106.085,-24 L 106.425,-23.2361 L 106.599,-22.4181
 L 106.599,-21.5819 L 106.425,-20.7639 L 106.085,-20 L 105.593,-19.3235 L 104.972,-18.7639 L 104.247,-18.3458
 L 103.452,-18.0874 L 102.621,-18 z
" stroke="black" fill="lightgray" stroke-width="0.5"/>
</svg>
