<?xml version="1.0" standalone="no"?>
<!DOCTYPE svg PUBLIC "-//W3C//DTD SVG 1.1//EN" "http://www.w3.org/Graphics/SVG/1.1/DTD/svg11.dtd">
<svg width="1181mm" height="80mm" viewBox="0 -80 1181 80" xmlns="http://www.w3.org/2000/svg" version="1.1">
<title>OpenSCAD Model</title>
<path d="
M 1181,-80 L 0,-80 L 0,-0 L 4.95,-0 L 4.95,-6 L 5.00572,-6.53017
 L 5.17046,-7.03717 L 5.437,-7.49884 L 5.79372,-7.895 L 6.22499,-8.20836 L 6.71201,-8.42519 L 7.23344,-8.53603
 L 7.76654,-8.53603 L 8.28798,-8.42519 L 8.77499,-8.20836 L 9.20627,-7.895 L 9.56299,-7.49884 L 9.82953,-7.03717
 L 9.99426,-6.53017 L 10.05,-6 L 10.05,-0 L 199.283,-0 L 199.283,-6 L 199.339,-6.53017
 L 199.504,-7.03717 L 199.77,-7.49884 L 200.127,-7.895 L 200.558,-8.20836 L 201.045,-8.42519 L 201.567,-8.53603
 L 202.1,-8.53603 L 202.621,-8.42519 L 203.108,-8.20836 L 203.54,-7.895 L 203.896,-7.49884 L 204.163,-7.03717
 L 204.328,-6.53017 L 204.383,-6 L 204.383,-0 L 393.617,-0 L 393.617,-6 L 393.672,-6.53017
 L 393.837,-7.03717 L 394.104,-7.49884 L 394.46,-7.895 L 394.892,-8.20836 L 395.379,-8.42519 L 395.9,-8.53603
 L 396.433,-8.53603 L 396.955,-8.42519 L 397.442,-8.20836 L 397.873,-7.895 L 398.23,-7.49884 L 398.496,-7.03717
 L 398.661,-6.53017 L 398.717,-6 L 398.717,-0 L 587.95,-0 L 587.95,-6 L 588.006,-6.53017
 L 588.17,-7.03717 L 588.437,-7.49884 L 588.794,-7.895 L 589.225,-8.20836 L 589.712,-8.42519 L 590.233,-8.53603
 L 590.767,-8.53603 L 591.288,-8.42519 L 591.775,-8.20836 L 592.206,-7.895 L 592.563,-7.49884 L 592.83,-7.03717
 L 592.994,-6.53017 L 593.05,-6 L 593.05,-0 L 782.283,-0 L 782.283,-6 L 782.339,-6.53017
 L 782.504,-7.03717 L 782.77,-7.49884 L 783.127,-7.895 L 783.558,-8.20836 L 784.045,-8.42519 L 784.567,-8.53603
 L 785.1,-8.53603 L 785.621,-8.42519 L 786.108,-8.20836 L 786.54,-7.895 L 786.896,-7.49884 L 787.163,-7.03717
 L 787.328,-6.53017 L 787.383,-6 L 787.383,-0 L 976.617,-0 L 976.617,-6 L 976.672,-6.53017
 L 976.837,-7.03717 L 977.104,-7.49884 L 977.46,-7.895 L 977.892,-8.20836 L 978.379,-8.42519 L 978.9,-8.53603
 L 979.433,-8.53603 L 979.955,-8.42519 L 980.442,-8.20836 L 980.873,-7.895 L 981.23,-7.49884 L 981.496,-7.03717
 L 981.661,-6.53017 L 981.717,-6 L 981.717,-0 L 1170.95,-0 L 1170.95,-6 L 1171.01,-6.53017
 L 1171.17,-7.03717 L 1171.44,-7.49884 L 1171.79,-7.895 L 1172.22,-8.20836 L 1172.71,-8.42519 L 1173.23,-8.53603
 L 1173.77,-8.53603 L 1174.29,-8.42519 L 1174.77,-8.20836 L 1175.21,-7.895 L 1175.56,-7.49884 L 1175.83,-7.03717
 L 1175.99,-6.53017 L 1176.05,-6 L 1176.05,-0 L 1181,-0 z
M 6.98573,-55.607 L 6.47708,-55.6875 L 5.97964,-55.8208 L 5.49887,-56.0054 L 5.04001,-56.2392 L 4.60811,-56.5196
 L 4.20789,-56.8437 L 3.84373,-57.2079 L 3.51964,-57.6081 L 3.23917,-58.04 L 3.00537,-58.4989 L 2.82082,-58.9796
 L 2.68752,-59.4771 L 2.60696,-59.9857 L 2.58,-60.5 L 2.60696,-61.0143 L 2.68752,-61.5229 L 2.82082,-62.0204
 L 3.00537,-62.5011 L 3.23917,-62.96 L 3.51964,-63.3919 L 3.84373,-63.7921 L 4.20789,-64.1563 L 4.60811,-64.4804
 L 4.95001,-64.7024 L 4.95001,-74 L 5.00574,-74.5302 L 5.17047,-75.0372 L 5.43701,-75.4988 L 5.79373,-75.895
 L 6.22501,-76.2084 L 6.71202,-76.4252 L 7.23346,-76.536 L 7.76654,-76.536 L 8.28798,-76.4252 L 8.77499,-76.2084
 L 9.20627,-75.895 L 9.56299,-75.4988 L 9.82953,-75.0372 L 9.99426,-74.5302 L 10.05,-74 L 10.05,-64.7024
 L 10.3919,-64.4804 L 10.7921,-64.1563 L 11.1563,-63.7921 L 11.4804,-63.3919 L 11.7608,-62.96 L 11.9946,-62.5011
 L 12.1792,-62.0204 L 12.3125,-61.5229 L 12.393,-61.0143 L 12.42,-60.5 L 12.393,-59.9857 L 12.3125,-59.4771
 L 12.1792,-58.9796 L 11.9946,-58.4989 L 11.7608,-58.04 L 11.4804,-57.6081 L 11.1563,-57.2079 L 10.7921,-56.8437
 L 10.3919,-56.5196 L 9.95999,-56.2392 L 9.50113,-56.0054 L 9.02036,-55.8208 L 8.52292,-55.6875 L 8.01427,-55.607
 L 7.5,-55.58 z
M 201.319,-55.607 L 200.81,-55.6875 L 200.313,-55.8208 L 199.832,-56.0054 L 199.373,-56.2392 L 198.941,-56.5196
 L 198.541,-56.8437 L 198.177,-57.2079 L 197.853,-57.6081 L 197.572,-58.04 L 197.339,-58.4989 L 197.154,-58.9796
 L 197.021,-59.4771 L 196.94,-59.9857 L 196.913,-60.5 L 196.94,-61.0143 L 197.021,-61.5229 L 197.154,-62.0204
 L 197.339,-62.5011 L 197.572,-62.96 L 197.853,-63.3919 L 198.177,-63.7921 L 198.541,-64.1563 L 198.941,-64.4804
 L 199.283,-64.7024 L 199.283,-74 L 199.339,-74.5302 L 199.504,-75.0372 L 199.77,-75.4988 L 200.127,-75.895
 L 200.558,-76.2084 L 201.045,-76.4252 L 201.567,-76.536 L 202.1,-76.536 L 202.621,-76.4252 L 203.108,-76.2084
 L 203.54,-75.895 L 203.896,-75.4988 L 204.163,-75.0372 L 204.328,-74.5302 L 204.383,-74 L 204.383,-64.7024
 L 204.725,-64.4804 L 205.125,-64.1563 L 205.49,-63.7921 L 205.814,-63.3919 L 206.094,-62.96 L 206.328,-62.5011
 L 206.513,-62.0204 L 206.646,-61.5229 L 206.726,-61.0143 L 206.753,-60.5 L 206.726,-59.9857 L 206.646,-59.4771
 L 206.513,-58.9796 L 206.328,-58.4989 L 206.094,-58.04 L 205.814,-57.6081 L 205.49,-57.2079 L 205.125,-56.8437
 L 204.725,-56.5196 L 204.293,-56.2392 L 203.834,-56.0054 L 203.354,-55.8208 L 202.856,-55.6875 L 202.348,-55.607
 L 201.833,-55.58 z
M 395.652,-55.607 L 395.144,-55.6875 L 394.646,-55.8208 L 394.166,-56.0054 L 393.707,-56.2392 L 393.275,-56.5196
 L 392.875,-56.8437 L 392.51,-57.2079 L 392.186,-57.6081 L 391.906,-58.04 L 391.672,-58.4989 L 391.487,-58.9796
 L 391.354,-59.4771 L 391.274,-59.9857 L 391.247,-60.5 L 391.274,-61.0143 L 391.354,-61.5229 L 391.487,-62.0204
 L 391.672,-62.5011 L 391.906,-62.96 L 392.186,-63.3919 L 392.51,-63.7921 L 392.875,-64.1563 L 393.275,-64.4804
 L 393.617,-64.7024 L 393.617,-74 L 393.672,-74.5302 L 393.837,-75.0372 L 394.104,-75.4988 L 394.46,-75.895
 L 394.892,-76.2084 L 395.379,-76.4252 L 395.9,-76.536 L 396.433,-76.536 L 396.955,-76.4252 L 397.442,-76.2084
 L 397.873,-75.895 L 398.23,-75.4988 L 398.496,-75.0372 L 398.661,-74.5302 L 398.717,-74 L 398.717,-64.7024
 L 399.059,-64.4804 L 399.459,-64.1563 L 399.823,-63.7921 L 400.147,-63.3919 L 400.427,-62.96 L 400.661,-62.5011
 L 400.846,-62.0204 L 400.979,-61.5229 L 401.06,-61.0143 L 401.087,-60.5 L 401.06,-59.9857 L 400.979,-59.4771
 L 400.846,-58.9796 L 400.661,-58.4989 L 400.427,-58.04 L 400.147,-57.6081 L 399.823,-57.2079 L 399.459,-56.8437
 L 399.059,-56.5196 L 398.627,-56.2392 L 398.168,-56.0054 L 397.687,-55.8208 L 397.19,-55.6875 L 396.681,-55.607
 L 396.167,-55.58 z
M 589.986,-55.607 L 589.477,-55.6875 L 588.98,-55.8208 L 588.499,-56.0054 L 588.04,-56.2392 L 587.608,-56.5196
 L 587.208,-56.8437 L 586.844,-57.2079 L 586.52,-57.6081 L 586.239,-58.04 L 586.005,-58.4989 L 585.821,-58.9796
 L 585.688,-59.4771 L 585.607,-59.9857 L 585.58,-60.5 L 585.607,-61.0143 L 585.688,-61.5229 L 585.821,-62.0204
 L 586.005,-62.5011 L 586.239,-62.96 L 586.52,-63.3919 L 586.844,-63.7921 L 587.208,-64.1563 L 587.608,-64.4804
 L 587.95,-64.7024 L 587.95,-74 L 588.006,-74.5302 L 588.17,-75.0372 L 588.437,-75.4988 L 588.794,-75.895
 L 589.225,-76.2084 L 589.712,-76.4252 L 590.233,-76.536 L 590.767,-76.536 L 591.288,-76.4252 L 591.775,-76.2084
 L 592.206,-75.895 L 592.563,-75.4988 L 592.83,-75.0372 L 592.994,-74.5302 L 593.05,-74 L 593.05,-64.7024
 L 593.392,-64.4804 L 593.792,-64.1563 L 594.156,-63.7921 L 594.48,-63.3919 L 594.761,-62.96 L 594.995,-62.5011
 L 595.179,-62.0204 L 595.312,-61.5229 L 595.393,-61.0143 L 595.42,-60.5 L 595.393,-59.9857 L 595.312,-59.4771
 L 595.179,-58.9796 L 594.995,-58.4989 L 594.761,-58.04 L 594.48,-57.6081 L 594.156,-57.2079 L 593.792,-56.8437
 L 593.392,-56.5196 L 592.96,-56.2392 L 592.501,-56.0054 L 592.02,-55.8208 L 591.523,-55.6875 L 591.014,-55.607
 L 590.5,-55.58 z
M 784.319,-55.607 L 783.81,-55.6875 L 783.313,-55.8208 L 782.832,-56.0054 L 782.373,-56.2392 L 781.941,-56.5196
 L 781.541,-56.8437 L 781.177,-57.2079 L 780.853,-57.6081 L 780.572,-58.04 L 780.339,-58.4989 L 780.154,-58.9796
 L 780.021,-59.4771 L 779.94,-59.9857 L 779.913,-60.5 L 779.94,-61.0143 L 780.021,-61.5229 L 780.154,-62.0204
 L 780.339,-62.5011 L 780.572,-62.96 L 780.853,-63.3919 L 781.177,-63.7921 L 781.541,-64.1563 L 781.941,-64.4804
 L 782.283,-64.7024 L 782.283,-74 L 782.339,-74.5302 L 782.504,-75.0372 L 782.77,-75.4988 L 783.127,-75.895
 L 783.558,-76.2084 L 784.045,-76.4252 L 784.567,-76.536 L 785.1,-76.536 L 785.621,-76.4252 L 786.108,-76.2084
 L 786.54,-75.895 L 786.896,-75.4988 L 787.163,-75.0372 L 787.328,-74.5302 L 787.383,-74 L 787.383,-64.7024
 L 787.725,-64.4804 L 788.125,-64.1563 L 788.49,-63.7921 L 788.814,-63.3919 L 789.094,-62.96 L 789.328,-62.5011
 L 789.513,-62.0204 L 789.646,-61.5229 L 789.726,-61.0143 L 789.753,-60.5 L 789.726,-59.9857 L 789.646,-59.4771
 L 789.513,-58.9796 L 789.328,-58.4989 L 789.094,-58.04 L 788.814,-57.6081 L 788.49,-57.2079 L 788.125,-56.8437
 L 787.725,-56.5196 L 787.293,-56.2392 L 786.834,-56.0054 L 786.354,-55.8208 L 785.856,-55.6875 L 785.348,-55.607
 L 784.833,-55.58 z
M 978.652,-55.607 L 978.144,-55.6875 L 977.646,-55.8208 L 977.166,-56.0054 L 976.707,-56.2392 L 976.275,-56.5196
 L 975.875,-56.8437 L 975.51,-57.2079 L 975.186,-57.6081 L 974.906,-58.04 L 974.672,-58.4989 L 974.487,-58.9796
 L 974.354,-59.4771 L 974.274,-59.9857 L 974.247,-60.5 L 974.274,-61.0143 L 974.354,-61.5229 L 974.487,-62.0204
 L 974.672,-62.5011 L 974.906,-62.96 L 975.186,-63.3919 L 975.51,-63.7921 L 975.875,-64.1563 L 976.275,-64.4804
 L 976.617,-64.7024 L 976.617,-74 L 976.672,-74.5302 L 976.837,-75.0372 L 977.104,-75.4988 L 977.46,-75.895
 L 977.892,-76.2084 L 978.379,-76.4252 L 978.9,-76.536 L 979.433,-76.536 L 979.955,-76.4252 L 980.442,-76.2084
 L 980.873,-75.895 L 981.23,-75.4988 L 981.496,-75.0372 L 981.661,-74.5302 L 981.717,-74 L 981.717,-64.7024
 L 982.059,-64.4804 L 982.459,-64.1563 L 982.823,-63.7921 L 983.147,-63.3919 L 983.427,-62.96 L 983.661,-62.5011
 L 983.846,-62.0204 L 983.979,-61.5229 L 984.06,-61.0143 L 984.087,-60.5 L 984.06,-59.9857 L 983.979,-59.4771
 L 983.846,-58.9796 L 983.661,-58.4989 L 983.427,-58.04 L 983.147,-57.6081 L 982.823,-57.2079 L 982.459,-56.8437
 L 982.059,-56.5196 L 981.627,-56.2392 L 981.168,-56.0054 L 980.687,-55.8208 L 980.19,-55.6875 L 979.681,-55.607
 L 979.167,-55.58 z
M 1172.99,-55.607 L 1172.48,-55.6875 L 1171.98,-55.8208 L 1171.5,-56.0054 L 1171.04,-56.2392 L 1170.61,-56.5196
 L 1170.21,-56.8437 L 1169.84,-57.2079 L 1169.52,-57.6081 L 1169.24,-58.04 L 1169.01,-58.4989 L 1168.82,-58.9796
 L 1168.69,-59.4771 L 1168.61,-59.9857 L 1168.58,-60.5 L 1168.61,-61.0143 L 1168.69,-61.5229 L 1168.82,-62.0204
 L 1169.01,-62.5011 L 1169.24,-62.96 L 1169.52,-63.3919 L 1169.84,-63.7921 L 1170.21,-64.1563 L 1170.61,-64.4804
 L 1170.95,-64.7024 L 1170.95,-74 L 1171.01,-74.5302 L 1171.17,-75.0372 L 1171.44,-75.4988 L 1171.79,-75.895
 L 1172.23,-76.2084 L 1172.71,-76.4252 L 1173.23,-76.536 L 1173.77,-76.536 L 1174.29,-76.4252 L 1174.77,-76.2084
 L 1175.21,-75.895 L 1175.56,-75.4988 L 1175.83,-75.0372 L 1175.99,-74.5302 L 1176.05,-74 L 1176.05,-64.7024
 L 1176.39,-64.4804 L 1176.79,-64.1563 L 1177.16,-63.7921 L 1177.48,-63.3919 L 1177.76,-62.96 L 1177.99,-62.5011
 L 1178.18,-62.0204 L 1178.31,-61.5229 L 1178.39,-61.0143 L 1178.42,-60.5 L 1178.39,-59.9857 L 1178.31,-59.4771
 L 1178.18,-58.9796 L 1177.99,-58.4989 L 1177.76,-58.04 L 1177.48,-57.6081 L 1177.16,-57.2079 L 1176.79,-56.8437
 L 1176.39,-56.5196 L 1175.96,-56.2392 L 1175.5,-56.0054 L 1175.02,-55.8208 L 1174.52,-55.6875 L 1174.01,-55.607
 L 1173.5,-55.58 z
M 991.016,-20.4873 L 990.245,-20.8102 L 989.558,-21.2864 L 988.984,-21.8951 L 988.55,-22.6098 L 988.274,-23.3991
 L 988.167,-24.3183 L 988.167,-58 L 988.254,-58.8316 L 988.512,-59.627 L 988.931,-60.3511 L 989.49,-60.9726
 L 990.167,-61.4641 L 990.931,-61.8042 L 992.167,-62 L 1088.42,-62 L 1089.26,-61.9126 L 1090.05,-61.6542
 L 1090.77,-61.2361 L 1091.4,-60.6765 L 1091.89,-60 L 1092.23,-59.2361 L 1092.4,-58.4181 L 1092.4,-57.5819
 L 1092.23,-56.7639 L 1091.89,-56 L 1091.4,-55.3235 L 1090.77,-54.7639 L 1089.74,-54.2245 L 993.488,-20.5428
 L 992.674,-20.3506 L 991.838,-20.3318 z
M 382.659,-20.3506 L 381.846,-20.5428 L 285.589,-54.2245 L 284.558,-54.7639 L 283.937,-55.3235 L 283.446,-56
 L 283.105,-56.7639 L 282.932,-57.5819 L 282.932,-58.4181 L 283.105,-59.2361 L 283.446,-60 L 283.937,-60.6765
 L 284.558,-61.2361 L 285.283,-61.6542 L 286.078,-61.9126 L 286.91,-62 L 383.167,-62 L 384.403,-61.8042
 L 385.167,-61.4641 L 385.843,-60.9726 L 386.403,-60.3511 L 386.821,-59.627 L 387.079,-58.8316 L 387.167,-58
 L 387.167,-24.3183 L 387.06,-23.3991 L 386.783,-22.6098 L 386.349,-21.8951 L 385.776,-21.2864 L 385.088,-20.8102
 L 384.317,-20.4873 L 383.495,-20.3318 z
M 188.326,-20.3506 L 187.512,-20.5428 L 91.2552,-54.2245 L 90.2251,-54.7639 L 89.6037,-55.3235 L 89.1122,-56
 L 88.772,-56.7639 L 88.5982,-57.5819 L 88.5982,-58.4181 L 88.772,-59.2361 L 89.1122,-60 L 89.6037,-60.6765
 L 90.2251,-61.2361 L 90.9493,-61.6542 L 91.7446,-61.9126 L 92.5763,-62 L 188.833,-62 L 190.069,-61.8042
 L 190.833,-61.4641 L 191.51,-60.9726 L 192.069,-60.3511 L 192.488,-59.627 L 192.746,-58.8316 L 192.833,-58
 L 192.833,-24.3183 L 192.726,-23.3991 L 192.45,-22.6098 L 192.016,-21.8951 L 191.442,-21.2864 L 190.755,-20.8102
 L 189.984,-20.4873 L 189.162,-20.3318 z
M 576.993,-20.3506 L 576.179,-20.5428 L 479.922,-54.2245 L 478.892,-54.7639 L 478.27,-55.3235 L 477.779,-56
 L 477.439,-56.7639 L 477.265,-57.5819 L 477.265,-58.4181 L 477.439,-59.2361 L 477.779,-60 L 478.27,-60.6765
 L 478.892,-61.2361 L 479.616,-61.6542 L 480.411,-61.9126 L 481.243,-62 L 577.5,-62 L 578.736,-61.8042
 L 579.5,-61.4641 L 580.177,-60.9726 L 580.736,-60.3511 L 581.154,-59.627 L 581.413,-58.8316 L 581.5,-58
 L 581.5,-24.3183 L 581.393,-23.3991 L 581.117,-22.6098 L 580.682,-21.8951 L 580.109,-21.2864 L 579.422,-20.8102
 L 578.65,-20.4873 L 577.829,-20.3318 z
M 602.35,-20.4873 L 601.578,-20.8102 L 600.891,-21.2864 L 600.318,-21.8951 L 599.883,-22.6098 L 599.607,-23.3991
 L 599.5,-24.3183 L 599.5,-58 L 599.587,-58.8316 L 599.846,-59.627 L 600.264,-60.3511 L 600.823,-60.9726
 L 601.5,-61.4641 L 602.264,-61.8042 L 603.5,-62 L 699.757,-62 L 700.589,-61.9126 L 701.384,-61.6542
 L 702.108,-61.2361 L 702.73,-60.6765 L 703.221,-60 L 703.561,-59.2361 L 703.735,-58.4181 L 703.735,-57.5819
 L 703.561,-56.7639 L 703.221,-56 L 702.73,-55.3235 L 702.108,-54.7639 L 701.078,-54.2245 L 604.821,-20.5428
 L 604.007,-20.3506 L 603.171,-20.3318 z
M 796.683,-20.4873 L 795.912,-20.8102 L 795.224,-21.2864 L 794.651,-21.8951 L 794.217,-22.6098 L 793.94,-23.3991
 L 793.833,-24.3183 L 793.833,-58 L 793.921,-58.8316 L 794.179,-59.627 L 794.597,-60.3511 L 795.157,-60.9726
 L 795.833,-61.4641 L 796.597,-61.8042 L 797.833,-62 L 894.09,-62 L 894.922,-61.9126 L 895.717,-61.6542
 L 896.442,-61.2361 L 897.063,-60.6765 L 897.554,-60 L 897.895,-59.2361 L 898.068,-58.4181 L 898.068,-57.5819
 L 897.895,-56.7639 L 897.554,-56 L 897.063,-55.3235 L 896.442,-54.7639 L 895.411,-54.2245 L 799.154,-20.5428
 L 798.341,-20.3506 L 797.505,-20.3318 z
M 214.833,-18 L 213.597,-18.1958 L 212.833,-18.5359 L 212.157,-19.0274 L 211.597,-19.6489 L 211.179,-20.373
 L 210.921,-21.1684 L 210.833,-22 L 210.833,-55.6817 L 210.94,-56.6009 L 211.217,-57.3902 L 211.651,-58.1049
 L 212.224,-58.7136 L 212.912,-59.1898 L 213.683,-59.5127 L 214.505,-59.6682 L 215.341,-59.6494 L 216.154,-59.4572
 L 312.411,-25.7755 L 313.441,-25.2361 L 314.063,-24.6765 L 314.554,-24 L 314.895,-23.2361 L 315.068,-22.4181
 L 315.068,-21.5819 L 314.895,-20.7639 L 314.554,-20 L 314.063,-19.3235 L 313.441,-18.7639 L 312.717,-18.3458
 L 311.922,-18.0874 L 311.09,-18 z
M 409.167,-18 L 407.931,-18.1958 L 407.167,-18.5359 L 406.49,-19.0274 L 405.931,-19.6489 L 405.512,-20.373
 L 405.254,-21.1684 L 405.167,-22 L 405.167,-55.6817 L 405.274,-56.6009 L 405.55,-57.3902 L 405.984,-58.1049
 L 406.558,-58.7136 L 407.245,-59.1898 L 408.016,-59.5127 L 408.838,-59.6682 L 409.674,-59.6494 L 410.488,-59.4572
 L 506.745,-25.7755 L 507.775,-25.2361 L 508.396,-24.6765 L 508.888,-24 L 509.228,-23.2361 L 509.402,-22.4181
 L 509.402,-21.5819 L 509.228,-20.7639 L 508.888,-20 L 508.396,-19.3235 L 507.775,-18.7639 L 507.051,-18.3458
 L 506.255,-18.0874 L 505.424,-18 z
M 675.576,-18 L 674.745,-18.0874 L 673.949,-18.3458 L 673.225,-18.7639 L 672.604,-19.3235 L 672.112,-20
 L 671.772,-20.7639 L 671.598,-21.5819 L 671.598,-22.4181 L 671.772,-23.2361 L 672.112,-24 L 672.604,-24.6765
 L 673.225,-25.2361 L 674.255,-25.7755 L 770.512,-59.4572 L 771.326,-59.6494 L 772.162,-59.6682 L 772.984,-59.5127
 L 773.755,-59.1898 L 774.442,-58.7136 L 775.016,-58.1049 L 775.45,-57.3902 L 775.726,-56.6009 L 775.833,-55.6817
 L 775.833,-22 L 775.746,-21.1684 L 775.488,-20.373 L 775.069,-19.6489 L 774.51,-19.0274 L 773.833,-18.5359
 L 773.069,-18.1958 L 771.833,-18 z
M 869.91,-18 L 869.078,-18.0874 L 868.283,-18.3458 L 867.559,-18.7639 L 866.937,-19.3235 L 866.446,-20
 L 866.105,-20.7639 L 865.932,-21.5819 L 865.932,-22.4181 L 866.105,-23.2361 L 866.446,-24 L 866.937,-24.6765
 L 867.559,-25.2361 L 868.589,-25.7755 L 964.846,-59.4572 L 965.659,-59.6494 L 966.495,-59.6682 L 967.317,-59.5127
 L 968.088,-59.1898 L 968.776,-58.7136 L 969.349,-58.1049 L 969.783,-57.3902 L 970.06,-56.6009 L 970.167,-55.6817
 L 970.167,-22 L 970.079,-21.1684 L 969.821,-20.373 L 969.403,-19.6489 L 968.843,-19.0274 L 968.167,-18.5359
 L 967.403,-18.1958 L 966.167,-18 z
M 1064.24,-18 L 1063.41,-18.0874 L 1062.62,-18.3458 L 1061.89,-18.7639 L 1061.27,-19.3235 L 1060.78,-20
 L 1060.44,-20.7639 L 1060.26,-21.5819 L 1060.26,-22.4181 L 1060.44,-23.2361 L 1060.78,-24 L 1061.27,-24.6765
 L 1061.89,-25.2361 L 1062.92,-25.7755 L 1157.68,-58.9324 L 1158.49,-59.1245 L 1159.33,-59.1433 L 1160.15,-58.9878
 L 1160.92,-58.6649 L 1161.61,-58.1887 L 1162.18,-57.58 L 1162.62,-56.8654 L 1162.89,-56.076 L 1163,-55.1568
 L 1163,-22 L 1162.91,-21.1684 L 1162.65,-20.373 L 1162.24,-19.6489 L 1161.68,-19.0274 L 1161,-18.5359
 L 1160.24,-18.1958 L 1159,-18 z
M 22,-18 L 20.7639,-18.1958 L 20,-18.5359 L 19.3235,-19.0274 L 18.7639,-19.6489 L 18.3458,-20.373
 L 18.0874,-21.1684 L 18,-22 L 18,-55.1568 L 18.1071,-56.076 L 18.3832,-56.8654 L 18.8175,-57.58
 L 19.3909,-58.1887 L 20.0782,-58.6649 L 20.8496,-58.9878 L 21.6712,-59.1433 L 22.5073,-59.1245 L 23.3211,-58.9324
 L 118.078,-25.7755 L 119.108,-25.2361 L 119.73,-24.6765 L 120.221,-24 L 120.561,-23.2361 L 120.735,-22.4181
 L 120.735,-21.5819 L 120.561,-20.7639 L 120.221,-20 L 119.73,-19.3235 L 119.108,-18.7639 L 118.384,-18.3458
 L 117.589,-18.0874 L 116.757,-18 z
" stroke="black" fill="lightgray" stroke-width="0.5"/>
</svg>
