<?xml version="1.0" standalone="no"?>
<!DOCTYPE svg PUBLIC "-//W3C//DTD SVG 1.1//EN" "http://www.w3.org/Graphics/SVG/1.1/DTD/svg11.dtd">
<svg width="1512mm" height="80mm" viewBox="0 -80 1512 80" xmlns="http://www.w3.org/2000/svg" version="1.1">
<title>OpenSCAD Model</title>
<path d="
M 1512,-80 L 0,-80 L 0,-0 L 4.95,-0 L 4.95,-6 L 5.00572,-6.53017
 L 5.17046,-7.03717 L 5.437,-7.49884 L 5.79372,-7.895 L 6.22499,-8.20836 L 6.71201,-8.42519 L 7.23344,-8.53603
 L 7.76654,-8.53603 L 8.28798,-8.42519 L 8.77499,-8.20836 L 9.20627,-7.895 L 9.56299,-7.49884 L 9.82953,-7.03717
 L 9.99426,-6.53017 L 10.05,-6 L 10.05,-0 L 192.075,-0 L 192.075,-6 L 192.131,-6.53017
 L 192.295,-7.03717 L 192.562,-7.49884 L 192.919,-7.895 L 193.35,-8.20836 L 193.837,-8.42519 L 194.358,-8.53603
 L 194.892,-8.53603 L 195.413,-8.42519 L 195.9,-8.20836 L 196.331,-7.895 L 196.688,-7.49884 L 196.955,-7.03717
 L 197.119,-6.53017 L 197.175,-6 L 197.175,-0 L 379.2,-0 L 379.2,-6 L 379.256,-6.53017
 L 379.42,-7.03717 L 379.687,-7.49884 L 380.044,-7.895 L 380.475,-8.20836 L 380.962,-8.42519 L 381.483,-8.53603
 L 382.017,-8.53603 L 382.538,-8.42519 L 383.025,-8.20836 L 383.456,-7.895 L 383.813,-7.49884 L 384.08,-7.03717
 L 384.244,-6.53017 L 384.3,-6 L 384.3,-0 L 566.325,-0 L 566.325,-6 L 566.381,-6.53017
 L 566.545,-7.03717 L 566.812,-7.49884 L 567.169,-7.895 L 567.6,-8.20836 L 568.087,-8.42519 L 568.608,-8.53603
 L 569.142,-8.53603 L 569.663,-8.42519 L 570.15,-8.20836 L 570.581,-7.895 L 570.938,-7.49884 L 571.205,-7.03717
 L 571.369,-6.53017 L 571.425,-6 L 571.425,-0 L 753.45,-0 L 753.45,-6 L 753.506,-6.53017
 L 753.67,-7.03717 L 753.937,-7.49884 L 754.294,-7.895 L 754.725,-8.20836 L 755.212,-8.42519 L 755.733,-8.53603
 L 756.267,-8.53603 L 756.788,-8.42519 L 757.275,-8.20836 L 757.706,-7.895 L 758.063,-7.49884 L 758.33,-7.03717
 L 758.494,-6.53017 L 758.55,-6 L 758.55,-0 L 940.575,-0 L 940.575,-6 L 940.631,-6.53017
 L 940.795,-7.03717 L 941.062,-7.49884 L 941.419,-7.895 L 941.85,-8.20836 L 942.337,-8.42519 L 942.858,-8.53603
 L 943.392,-8.53603 L 943.913,-8.42519 L 944.4,-8.20836 L 944.831,-7.895 L 945.188,-7.49884 L 945.455,-7.03717
 L 945.619,-6.53017 L 945.675,-6 L 945.675,-0 L 1127.7,-0 L 1127.7,-6 L 1127.76,-6.53017
 L 1127.92,-7.03717 L 1128.19,-7.49884 L 1128.54,-7.895 L 1128.97,-8.20836 L 1129.46,-8.42519 L 1129.98,-8.53603
 L 1130.52,-8.53603 L 1131.04,-8.42519 L 1131.52,-8.20836 L 1131.96,-7.895 L 1132.31,-7.49884 L 1132.58,-7.03717
 L 1132.74,-6.53017 L 1132.8,-6 L 1132.8,-0 L 1314.82,-0 L 1314.82,-6 L 1314.88,-6.53017
 L 1315.05,-7.03717 L 1315.31,-7.49884 L 1315.67,-7.895 L 1316.1,-8.20836 L 1316.59,-8.42519 L 1317.11,-8.53603
 L 1317.64,-8.53603 L 1318.16,-8.42519 L 1318.65,-8.20836 L 1319.08,-7.895 L 1319.44,-7.49884 L 1319.7,-7.03717
 L 1319.87,-6.53017 L 1319.92,-6 L 1319.92,-0 L 1501.95,-0 L 1501.95,-6 L 1502.01,-6.53017
 L 1502.17,-7.03717 L 1502.44,-7.49884 L 1502.79,-7.895 L 1503.22,-8.20836 L 1503.71,-8.42519 L 1504.23,-8.53603
 L 1504.77,-8.53603 L 1505.29,-8.42519 L 1505.77,-8.20836 L 1506.21,-7.895 L 1506.56,-7.49884 L 1506.83,-7.03717
 L 1506.99,-6.53017 L 1507.05,-6 L 1507.05,-0 L 1512,-0 z
M 194.111,-55.607 L 193.602,-55.6875 L 193.105,-55.8208 L 192.624,-56.0054 L 192.165,-56.2392 L 191.733,-56.5196
 L 191.333,-56.8437 L 190.969,-57.2079 L 190.645,-57.6081 L 190.364,-58.04 L 190.13,-58.4989 L 189.946,-58.9796
 L 189.813,-59.4771 L 189.732,-59.9857 L 189.705,-60.5 L 189.732,-61.0143 L 189.813,-61.5229 L 189.946,-62.0204
 L 190.13,-62.5011 L 190.364,-62.96 L 190.645,-63.3919 L 190.969,-63.7921 L 191.333,-64.1563 L 191.733,-64.4804
 L 192.075,-64.7024 L 192.075,-74 L 192.131,-74.5302 L 192.295,-75.0372 L 192.562,-75.4988 L 192.919,-75.895
 L 193.35,-76.2084 L 193.837,-76.4252 L 194.358,-76.536 L 194.892,-76.536 L 195.413,-76.4252 L 195.9,-76.2084
 L 196.331,-75.895 L 196.688,-75.4988 L 196.955,-75.0372 L 197.119,-74.5302 L 197.175,-74 L 197.175,-64.7024
 L 197.517,-64.4804 L 197.917,-64.1563 L 198.281,-63.7921 L 198.605,-63.3919 L 198.886,-62.96 L 199.12,-62.5011
 L 199.304,-62.0204 L 199.437,-61.5229 L 199.518,-61.0143 L 199.545,-60.5 L 199.518,-59.9857 L 199.437,-59.4771
 L 199.304,-58.9796 L 199.12,-58.4989 L 198.886,-58.04 L 198.605,-57.6081 L 198.281,-57.2079 L 197.917,-56.8437
 L 197.517,-56.5196 L 197.085,-56.2392 L 196.626,-56.0054 L 196.145,-55.8208 L 195.648,-55.6875 L 195.139,-55.607
 L 194.625,-55.58 z
M 1129.74,-55.607 L 1129.23,-55.6875 L 1128.73,-55.8208 L 1128.25,-56.0054 L 1127.79,-56.2392 L 1127.36,-56.5196
 L 1126.96,-56.8437 L 1126.59,-57.2079 L 1126.27,-57.6081 L 1125.99,-58.04 L 1125.76,-58.4989 L 1125.57,-58.9796
 L 1125.44,-59.4771 L 1125.36,-59.9857 L 1125.33,-60.5 L 1125.36,-61.0143 L 1125.44,-61.5229 L 1125.57,-62.0204
 L 1125.76,-62.5011 L 1125.99,-62.96 L 1126.27,-63.3919 L 1126.59,-63.7921 L 1126.96,-64.1563 L 1127.36,-64.4804
 L 1127.7,-64.7024 L 1127.7,-74 L 1127.76,-74.5302 L 1127.92,-75.0372 L 1128.19,-75.4988 L 1128.54,-75.895
 L 1128.98,-76.2084 L 1129.46,-76.4252 L 1129.98,-76.536 L 1130.52,-76.536 L 1131.04,-76.4252 L 1131.52,-76.2084
 L 1131.96,-75.895 L 1132.31,-75.4988 L 1132.58,-75.0372 L 1132.74,-74.5302 L 1132.8,-74 L 1132.8,-64.7024
 L 1133.14,-64.4804 L 1133.54,-64.1563 L 1133.91,-63.7921 L 1134.23,-63.3919 L 1134.51,-62.96 L 1134.74,-62.5011
 L 1134.93,-62.0204 L 1135.06,-61.5229 L 1135.14,-61.0143 L 1135.17,-60.5 L 1135.14,-59.9857 L 1135.06,-59.4771
 L 1134.93,-58.9796 L 1134.74,-58.4989 L 1134.51,-58.04 L 1134.23,-57.6081 L 1133.91,-57.2079 L 1133.54,-56.8437
 L 1133.14,-56.5196 L 1132.71,-56.2392 L 1132.25,-56.0054 L 1131.77,-55.8208 L 1131.27,-55.6875 L 1130.76,-55.607
 L 1130.25,-55.58 z
M 942.611,-55.607 L 942.102,-55.6875 L 941.605,-55.8208 L 941.124,-56.0054 L 940.665,-56.2392 L 940.233,-56.5196
 L 939.833,-56.8437 L 939.469,-57.2079 L 939.145,-57.6081 L 938.864,-58.04 L 938.63,-58.4989 L 938.446,-58.9796
 L 938.313,-59.4771 L 938.232,-59.9857 L 938.205,-60.5 L 938.232,-61.0143 L 938.313,-61.5229 L 938.446,-62.0204
 L 938.63,-62.5011 L 938.864,-62.96 L 939.145,-63.3919 L 939.469,-63.7921 L 939.833,-64.1563 L 940.233,-64.4804
 L 940.575,-64.7024 L 940.575,-74 L 940.631,-74.5302 L 940.795,-75.0372 L 941.062,-75.4988 L 941.419,-75.895
 L 941.85,-76.2084 L 942.337,-76.4252 L 942.858,-76.536 L 943.392,-76.536 L 943.913,-76.4252 L 944.4,-76.2084
 L 944.831,-75.895 L 945.188,-75.4988 L 945.455,-75.0372 L 945.619,-74.5302 L 945.675,-74 L 945.675,-64.7024
 L 946.017,-64.4804 L 946.417,-64.1563 L 946.781,-63.7921 L 947.105,-63.3919 L 947.386,-62.96 L 947.62,-62.5011
 L 947.804,-62.0204 L 947.937,-61.5229 L 948.018,-61.0143 L 948.045,-60.5 L 948.018,-59.9857 L 947.937,-59.4771
 L 947.804,-58.9796 L 947.62,-58.4989 L 947.386,-58.04 L 947.105,-57.6081 L 946.781,-57.2079 L 946.417,-56.8437
 L 946.017,-56.5196 L 945.585,-56.2392 L 945.126,-56.0054 L 944.645,-55.8208 L 944.148,-55.6875 L 943.639,-55.607
 L 943.125,-55.58 z
M 6.98573,-55.607 L 6.47708,-55.6875 L 5.97964,-55.8208 L 5.49887,-56.0054 L 5.04001,-56.2392 L 4.60811,-56.5196
 L 4.20789,-56.8437 L 3.84373,-57.2079 L 3.51964,-57.6081 L 3.23917,-58.04 L 3.00537,-58.4989 L 2.82082,-58.9796
 L 2.68752,-59.4771 L 2.60696,-59.9857 L 2.58,-60.5 L 2.60696,-61.0143 L 2.68752,-61.5229 L 2.82082,-62.0204
 L 3.00537,-62.5011 L 3.23917,-62.96 L 3.51964,-63.3919 L 3.84373,-63.7921 L 4.20789,-64.1563 L 4.60811,-64.4804
 L 4.95001,-64.7024 L 4.95001,-74 L 5.00574,-74.5302 L 5.17047,-75.0372 L 5.43701,-75.4988 L 5.79373,-75.895
 L 6.22501,-76.2084 L 6.71202,-76.4252 L 7.23346,-76.536 L 7.76654,-76.536 L 8.28798,-76.4252 L 8.77499,-76.2084
 L 9.20627,-75.895 L 9.56299,-75.4988 L 9.82953,-75.0372 L 9.99426,-74.5302 L 10.05,-74 L 10.05,-64.7024
 L 10.3919,-64.4804 L 10.7921,-64.1563 L 11.1563,-63.7921 L 11.4804,-63.3919 L 11.7608,-62.96 L 11.9946,-62.5011
 L 12.1792,-62.0204 L 12.3125,-61.5229 L 12.393,-61.0143 L 12.42,-60.5 L 12.393,-59.9857 L 12.3125,-59.4771
 L 12.1792,-58.9796 L 11.9946,-58.4989 L 11.7608,-58.04 L 11.4804,-57.6081 L 11.1563,-57.2079 L 10.7921,-56.8437
 L 10.3919,-56.5196 L 9.95999,-56.2392 L 9.50113,-56.0054 L 9.02036,-55.8208 L 8.52292,-55.6875 L 8.01427,-55.607
 L 7.5,-55.58 z
M 755.486,-55.607 L 754.977,-55.6875 L 754.48,-55.8208 L 753.999,-56.0054 L 753.54,-56.2392 L 753.108,-56.5196
 L 752.708,-56.8437 L 752.344,-57.2079 L 752.02,-57.6081 L 751.739,-58.04 L 751.505,-58.4989 L 751.321,-58.9796
 L 751.188,-59.4771 L 751.107,-59.9857 L 751.08,-60.5 L 751.107,-61.0143 L 751.188,-61.5229 L 751.321,-62.0204
 L 751.505,-62.5011 L 751.739,-62.96 L 752.02,-63.3919 L 752.344,-63.7921 L 752.708,-64.1563 L 753.108,-64.4804
 L 753.45,-64.7024 L 753.45,-74 L 753.506,-74.5302 L 753.67,-75.0372 L 753.937,-75.4988 L 754.294,-75.895
 L 754.725,-76.2084 L 755.212,-76.4252 L 755.733,-76.536 L 756.267,-76.536 L 756.788,-76.4252 L 757.275,-76.2084
 L 757.706,-75.895 L 758.063,-75.4988 L 758.33,-75.0372 L 758.494,-74.5302 L 758.55,-74 L 758.55,-64.7024
 L 758.892,-64.4804 L 759.292,-64.1563 L 759.656,-63.7921 L 759.98,-63.3919 L 760.261,-62.96 L 760.495,-62.5011
 L 760.679,-62.0204 L 760.812,-61.5229 L 760.893,-61.0143 L 760.92,-60.5 L 760.893,-59.9857 L 760.812,-59.4771
 L 760.679,-58.9796 L 760.495,-58.4989 L 760.261,-58.04 L 759.98,-57.6081 L 759.656,-57.2079 L 759.292,-56.8437
 L 758.892,-56.5196 L 758.46,-56.2392 L 758.001,-56.0054 L 757.52,-55.8208 L 757.023,-55.6875 L 756.514,-55.607
 L 756,-55.58 z
M 1316.86,-55.607 L 1316.35,-55.6875 L 1315.85,-55.8208 L 1315.37,-56.0054 L 1314.92,-56.2392 L 1314.48,-56.5196
 L 1314.08,-56.8437 L 1313.72,-57.2079 L 1313.39,-57.6081 L 1313.11,-58.04 L 1312.88,-58.4989 L 1312.7,-58.9796
 L 1312.56,-59.4771 L 1312.48,-59.9857 L 1312.46,-60.5 L 1312.48,-61.0143 L 1312.56,-61.5229 L 1312.7,-62.0204
 L 1312.88,-62.5011 L 1313.11,-62.96 L 1313.39,-63.3919 L 1313.72,-63.7921 L 1314.08,-64.1563 L 1314.48,-64.4804
 L 1314.83,-64.7024 L 1314.83,-74 L 1314.88,-74.5302 L 1315.05,-75.0372 L 1315.31,-75.4988 L 1315.67,-75.895
 L 1316.1,-76.2084 L 1316.59,-76.4252 L 1317.11,-76.536 L 1317.64,-76.536 L 1318.16,-76.4252 L 1318.65,-76.2084
 L 1319.08,-75.895 L 1319.44,-75.4988 L 1319.7,-75.0372 L 1319.87,-74.5302 L 1319.92,-74 L 1319.92,-64.7024
 L 1320.27,-64.4804 L 1320.67,-64.1563 L 1321.03,-63.7921 L 1321.36,-63.3919 L 1321.64,-62.96 L 1321.87,-62.5011
 L 1322.05,-62.0204 L 1322.19,-61.5229 L 1322.27,-61.0143 L 1322.29,-60.5 L 1322.27,-59.9857 L 1322.19,-59.4771
 L 1322.05,-58.9796 L 1321.87,-58.4989 L 1321.64,-58.04 L 1321.36,-57.6081 L 1321.03,-57.2079 L 1320.67,-56.8437
 L 1320.27,-56.5196 L 1319.83,-56.2392 L 1319.38,-56.0054 L 1318.9,-55.8208 L 1318.4,-55.6875 L 1317.89,-55.607
 L 1317.38,-55.58 z
M 568.361,-55.607 L 567.852,-55.6875 L 567.355,-55.8208 L 566.874,-56.0054 L 566.415,-56.2392 L 565.983,-56.5196
 L 565.583,-56.8437 L 565.219,-57.2079 L 564.895,-57.6081 L 564.614,-58.04 L 564.38,-58.4989 L 564.196,-58.9796
 L 564.063,-59.4771 L 563.982,-59.9857 L 563.955,-60.5 L 563.982,-61.0143 L 564.063,-61.5229 L 564.196,-62.0204
 L 564.38,-62.5011 L 564.614,-62.96 L 564.895,-63.3919 L 565.219,-63.7921 L 565.583,-64.1563 L 565.983,-64.4804
 L 566.325,-64.7024 L 566.325,-74 L 566.381,-74.5302 L 566.545,-75.0372 L 566.812,-75.4988 L 567.169,-75.895
 L 567.6,-76.2084 L 568.087,-76.4252 L 568.608,-76.536 L 569.142,-76.536 L 569.663,-76.4252 L 570.15,-76.2084
 L 570.581,-75.895 L 570.938,-75.4988 L 571.205,-75.0372 L 571.369,-74.5302 L 571.425,-74 L 571.425,-64.7024
 L 571.767,-64.4804 L 572.167,-64.1563 L 572.531,-63.7921 L 572.855,-63.3919 L 573.136,-62.96 L 573.37,-62.5011
 L 573.554,-62.0204 L 573.687,-61.5229 L 573.768,-61.0143 L 573.795,-60.5 L 573.768,-59.9857 L 573.687,-59.4771
 L 573.554,-58.9796 L 573.37,-58.4989 L 573.136,-58.04 L 572.855,-57.6081 L 572.531,-57.2079 L 572.167,-56.8437
 L 571.767,-56.5196 L 571.335,-56.2392 L 570.876,-56.0054 L 570.395,-55.8208 L 569.898,-55.6875 L 569.389,-55.607
 L 568.875,-55.58 z
M 381.236,-55.607 L 380.727,-55.6875 L 380.23,-55.8208 L 379.749,-56.0054 L 379.29,-56.2392 L 378.858,-56.5196
 L 378.458,-56.8437 L 378.094,-57.2079 L 377.77,-57.6081 L 377.489,-58.04 L 377.255,-58.4989 L 377.071,-58.9796
 L 376.938,-59.4771 L 376.857,-59.9857 L 376.83,-60.5 L 376.857,-61.0143 L 376.938,-61.5229 L 377.071,-62.0204
 L 377.255,-62.5011 L 377.489,-62.96 L 377.77,-63.3919 L 378.094,-63.7921 L 378.458,-64.1563 L 378.858,-64.4804
 L 379.2,-64.7024 L 379.2,-74 L 379.256,-74.5302 L 379.42,-75.0372 L 379.687,-75.4988 L 380.044,-75.895
 L 380.475,-76.2084 L 380.962,-76.4252 L 381.483,-76.536 L 382.017,-76.536 L 382.538,-76.4252 L 383.025,-76.2084
 L 383.456,-75.895 L 383.813,-75.4988 L 384.08,-75.0372 L 384.244,-74.5302 L 384.3,-74 L 384.3,-64.7024
 L 384.642,-64.4804 L 385.042,-64.1563 L 385.406,-63.7921 L 385.73,-63.3919 L 386.011,-62.96 L 386.245,-62.5011
 L 386.429,-62.0204 L 386.562,-61.5229 L 386.643,-61.0143 L 386.67,-60.5 L 386.643,-59.9857 L 386.562,-59.4771
 L 386.429,-58.9796 L 386.245,-58.4989 L 386.011,-58.04 L 385.73,-57.6081 L 385.406,-57.2079 L 385.042,-56.8437
 L 384.642,-56.5196 L 384.21,-56.2392 L 383.751,-56.0054 L 383.27,-55.8208 L 382.773,-55.6875 L 382.264,-55.607
 L 381.75,-55.58 z
M 1503.99,-55.607 L 1503.48,-55.6875 L 1502.98,-55.8208 L 1502.5,-56.0054 L 1502.04,-56.2392 L 1501.61,-56.5196
 L 1501.21,-56.8437 L 1500.84,-57.2079 L 1500.52,-57.6081 L 1500.24,-58.04 L 1500.01,-58.4989 L 1499.82,-58.9796
 L 1499.69,-59.4771 L 1499.61,-59.9857 L 1499.58,-60.5 L 1499.61,-61.0143 L 1499.69,-61.5229 L 1499.82,-62.0204
 L 1500.01,-62.5011 L 1500.24,-62.96 L 1500.52,-63.3919 L 1500.84,-63.7921 L 1501.21,-64.1563 L 1501.61,-64.4804
 L 1501.95,-64.7024 L 1501.95,-74 L 1502.01,-74.5302 L 1502.17,-75.0372 L 1502.44,-75.4988 L 1502.79,-75.895
 L 1503.23,-76.2084 L 1503.71,-76.4252 L 1504.23,-76.536 L 1504.77,-76.536 L 1505.29,-76.4252 L 1505.77,-76.2084
 L 1506.21,-75.895 L 1506.56,-75.4988 L 1506.83,-75.0372 L 1506.99,-74.5302 L 1507.05,-74 L 1507.05,-64.7024
 L 1507.39,-64.4804 L 1507.79,-64.1563 L 1508.16,-63.7921 L 1508.48,-63.3919 L 1508.76,-62.96 L 1508.99,-62.5011
 L 1509.18,-62.0204 L 1509.31,-61.5229 L 1509.39,-61.0143 L 1509.42,-60.5 L 1509.39,-59.9857 L 1509.31,-59.4771
 L 1509.18,-58.9796 L 1508.99,-58.4989 L 1508.76,-58.04 L 1508.48,-57.6081 L 1508.16,-57.2079 L 1507.79,-56.8437
 L 1507.39,-56.5196 L 1506.96,-56.2392 L 1506.5,-56.0054 L 1506.02,-55.8208 L 1505.52,-55.6875 L 1505.01,-55.607
 L 1504.5,-55.58 z
M 368.195,-20.5863 L 367.384,-20.7882 L 275.328,-54.2405 L 274.343,-54.7639 L 273.722,-55.3235 L 273.23,-56
 L 272.89,-56.7639 L 272.717,-57.5819 L 272.717,-58.4181 L 272.89,-59.2361 L 273.23,-60 L 273.722,-60.6765
 L 274.343,-61.2361 L 275.068,-61.6542 L 275.863,-61.9126 L 276.695,-62 L 368.75,-62 L 369.986,-61.8042
 L 370.75,-61.4641 L 371.427,-60.9726 L 371.986,-60.3511 L 372.404,-59.627 L 372.663,-58.8316 L 372.75,-58
 L 372.75,-24.5477 L 372.632,-23.582 L 372.346,-22.796 L 371.903,-22.0866 L 371.323,-21.4848 L 370.63,-21.0168
 L 369.855,-20.7032 L 369.031,-20.5576 z
M 555.32,-20.5863 L 554.509,-20.7882 L 462.453,-54.2405 L 461.468,-54.7639 L 460.847,-55.3235 L 460.355,-56
 L 460.015,-56.7639 L 459.842,-57.5819 L 459.842,-58.4181 L 460.015,-59.2361 L 460.355,-60 L 460.847,-60.6765
 L 461.468,-61.2361 L 462.193,-61.6542 L 462.988,-61.9126 L 463.82,-62 L 555.875,-62 L 557.111,-61.8042
 L 557.875,-61.4641 L 558.552,-60.9726 L 559.111,-60.3511 L 559.529,-59.627 L 559.788,-58.8316 L 559.875,-58
 L 559.875,-24.5477 L 559.757,-23.582 L 559.471,-22.796 L 559.028,-22.0866 L 558.448,-21.4848 L 557.755,-21.0168
 L 556.98,-20.7032 L 556.156,-20.5576 z
M 1329.27,-20.7032 L 1328.5,-21.0168 L 1327.8,-21.4848 L 1327.22,-22.0866 L 1326.78,-22.796 L 1326.49,-23.582
 L 1326.38,-24.5477 L 1326.38,-58 L 1326.46,-58.8316 L 1326.72,-59.627 L 1327.14,-60.3511 L 1327.7,-60.9726
 L 1328.38,-61.4641 L 1329.14,-61.8042 L 1330.38,-62 L 1422.43,-62 L 1423.26,-61.9126 L 1424.06,-61.6542
 L 1424.78,-61.2361 L 1425.4,-60.6765 L 1425.89,-60 L 1426.23,-59.2361 L 1426.41,-58.4181 L 1426.41,-57.5819
 L 1426.23,-56.7639 L 1425.89,-56 L 1425.4,-55.3235 L 1424.78,-54.7639 L 1423.8,-54.2405 L 1331.74,-20.7882
 L 1330.93,-20.5863 L 1330.09,-20.5576 z
M 742.445,-20.5863 L 741.634,-20.7882 L 649.578,-54.2405 L 648.593,-54.7639 L 647.972,-55.3235 L 647.48,-56
 L 647.14,-56.7639 L 646.967,-57.5819 L 646.967,-58.4181 L 647.14,-59.2361 L 647.48,-60 L 647.972,-60.6765
 L 648.593,-61.2361 L 649.318,-61.6542 L 650.113,-61.9126 L 650.945,-62 L 743,-62 L 744.236,-61.8042
 L 745,-61.4641 L 745.677,-60.9726 L 746.236,-60.3511 L 746.654,-59.627 L 746.913,-58.8316 L 747,-58
 L 747,-24.5477 L 746.882,-23.582 L 746.596,-22.796 L 746.153,-22.0866 L 745.573,-21.4848 L 744.88,-21.0168
 L 744.105,-20.7032 L 743.281,-20.5576 z
M 181.07,-20.5863 L 180.259,-20.7882 L 88.2034,-54.2405 L 87.2185,-54.7639 L 86.597,-55.3235 L 86.1055,-56
 L 85.7654,-56.7639 L 85.5915,-57.5819 L 85.5915,-58.4181 L 85.7654,-59.2361 L 86.1055,-60 L 86.597,-60.6765
 L 87.2185,-61.2361 L 87.9426,-61.6542 L 88.7379,-61.9126 L 89.5696,-62 L 181.625,-62 L 182.861,-61.8042
 L 183.625,-61.4641 L 184.302,-60.9726 L 184.861,-60.3511 L 185.279,-59.627 L 185.538,-58.8316 L 185.625,-58
 L 185.625,-24.5477 L 185.507,-23.582 L 185.221,-22.796 L 184.778,-22.0866 L 184.198,-21.4848 L 183.505,-21.0168
 L 182.73,-20.7032 L 181.906,-20.5576 z
M 767.895,-20.7032 L 767.12,-21.0168 L 766.427,-21.4848 L 765.847,-22.0866 L 765.404,-22.796 L 765.118,-23.582
 L 765,-24.5477 L 765,-58 L 765.087,-58.8316 L 765.346,-59.627 L 765.764,-60.3511 L 766.323,-60.9726
 L 767,-61.4641 L 767.764,-61.8042 L 769,-62 L 861.055,-62 L 861.887,-61.9126 L 862.682,-61.6542
 L 863.407,-61.2361 L 864.028,-60.6765 L 864.52,-60 L 864.86,-59.2361 L 865.033,-58.4181 L 865.033,-57.5819
 L 864.86,-56.7639 L 864.52,-56 L 864.028,-55.3235 L 863.407,-54.7639 L 862.422,-54.2405 L 770.366,-20.7882
 L 769.555,-20.5863 L 768.719,-20.5576 z
M 955.02,-20.7032 L 954.245,-21.0168 L 953.552,-21.4848 L 952.972,-22.0866 L 952.529,-22.796 L 952.243,-23.582
 L 952.125,-24.5477 L 952.125,-58 L 952.212,-58.8316 L 952.471,-59.627 L 952.889,-60.3511 L 953.448,-60.9726
 L 954.125,-61.4641 L 954.889,-61.8042 L 956.125,-62 L 1048.18,-62 L 1049.01,-61.9126 L 1049.81,-61.6542
 L 1050.53,-61.2361 L 1051.15,-60.6765 L 1051.64,-60 L 1051.98,-59.2361 L 1052.16,-58.4181 L 1052.16,-57.5819
 L 1051.98,-56.7639 L 1051.64,-56 L 1051.15,-55.3235 L 1050.53,-54.7639 L 1049.55,-54.2405 L 957.491,-20.7882
 L 956.68,-20.5863 L 955.844,-20.5576 z
M 1142.15,-20.7032 L 1141.37,-21.0168 L 1140.68,-21.4848 L 1140.1,-22.0866 L 1139.65,-22.796 L 1139.37,-23.582
 L 1139.25,-24.5477 L 1139.25,-58 L 1139.34,-58.8316 L 1139.6,-59.627 L 1140.01,-60.3511 L 1140.57,-60.9726
 L 1141.25,-61.4641 L 1142.01,-61.8042 L 1143.25,-62 L 1235.31,-62 L 1236.14,-61.9126 L 1236.93,-61.6542
 L 1237.66,-61.2361 L 1238.28,-60.6765 L 1238.77,-60 L 1239.11,-59.2361 L 1239.28,-58.4181 L 1239.28,-57.5819
 L 1239.11,-56.7639 L 1238.77,-56 L 1238.28,-55.3235 L 1237.66,-54.7639 L 1236.67,-54.2405 L 1144.62,-20.7882
 L 1143.8,-20.5863 L 1142.97,-20.5576 z
M 207.625,-18 L 206.389,-18.1958 L 205.625,-18.5359 L 204.948,-19.0274 L 204.389,-19.6489 L 203.971,-20.373
 L 203.712,-21.1684 L 203.625,-22 L 203.625,-55.4523 L 203.743,-56.418 L 204.029,-57.204 L 204.472,-57.9134
 L 205.052,-58.5152 L 205.745,-58.9832 L 206.52,-59.2968 L 207.344,-59.4424 L 208.18,-59.4137 L 208.991,-59.2118
 L 301.047,-25.7595 L 302.032,-25.2361 L 302.653,-24.6765 L 303.144,-24 L 303.485,-23.2361 L 303.658,-22.4181
 L 303.658,-21.5819 L 303.485,-20.7639 L 303.144,-20 L 302.653,-19.3235 L 302.032,-18.7639 L 301.307,-18.3458
 L 300.512,-18.0874 L 299.68,-18 z
M 394.75,-18 L 393.514,-18.1958 L 392.75,-18.5359 L 392.073,-19.0274 L 391.514,-19.6489 L 391.096,-20.373
 L 390.837,-21.1684 L 390.75,-22 L 390.75,-55.4523 L 390.868,-56.418 L 391.154,-57.204 L 391.597,-57.9134
 L 392.177,-58.5152 L 392.87,-58.9832 L 393.645,-59.2968 L 394.469,-59.4424 L 395.305,-59.4137 L 396.116,-59.2118
 L 488.172,-25.7595 L 489.157,-25.2361 L 489.778,-24.6765 L 490.269,-24 L 490.61,-23.2361 L 490.783,-22.4181
 L 490.783,-21.5819 L 490.61,-20.7639 L 490.269,-20 L 489.778,-19.3235 L 489.157,-18.7639 L 488.432,-18.3458
 L 487.637,-18.0874 L 486.805,-18 z
M 581.875,-18 L 580.639,-18.1958 L 579.875,-18.5359 L 579.198,-19.0274 L 578.639,-19.6489 L 578.221,-20.373
 L 577.962,-21.1684 L 577.875,-22 L 577.875,-55.4523 L 577.993,-56.418 L 578.279,-57.204 L 578.722,-57.9134
 L 579.302,-58.5152 L 579.995,-58.9832 L 580.77,-59.2968 L 581.594,-59.4424 L 582.43,-59.4137 L 583.241,-59.2118
 L 675.297,-25.7595 L 676.282,-25.2361 L 676.903,-24.6765 L 677.394,-24 L 677.735,-23.2361 L 677.908,-22.4181
 L 677.908,-21.5819 L 677.735,-20.7639 L 677.394,-20 L 676.903,-19.3235 L 676.282,-18.7639 L 675.557,-18.3458
 L 674.762,-18.0874 L 673.93,-18 z
M 838.07,-18 L 837.238,-18.0874 L 836.443,-18.3458 L 835.718,-18.7639 L 835.097,-19.3235 L 834.606,-20
 L 834.265,-20.7639 L 834.092,-21.5819 L 834.092,-22.4181 L 834.265,-23.2361 L 834.606,-24 L 835.097,-24.6765
 L 835.718,-25.2361 L 836.703,-25.7595 L 928.759,-59.2118 L 929.57,-59.4137 L 930.406,-59.4424 L 931.23,-59.2968
 L 932.005,-58.9832 L 932.698,-58.5152 L 933.278,-57.9134 L 933.721,-57.204 L 934.007,-56.418 L 934.125,-55.4523
 L 934.125,-22 L 934.038,-21.1684 L 933.779,-20.373 L 933.361,-19.6489 L 932.802,-19.0274 L 932.125,-18.5359
 L 931.361,-18.1958 L 930.125,-18 z
M 1025.19,-18 L 1024.36,-18.0874 L 1023.57,-18.3458 L 1022.84,-18.7639 L 1022.22,-19.3235 L 1021.73,-20
 L 1021.39,-20.7639 L 1021.22,-21.5819 L 1021.22,-22.4181 L 1021.39,-23.2361 L 1021.73,-24 L 1022.22,-24.6765
 L 1022.84,-25.2361 L 1023.83,-25.7595 L 1115.88,-59.2118 L 1116.7,-59.4137 L 1117.53,-59.4424 L 1118.35,-59.2968
 L 1119.13,-58.9832 L 1119.82,-58.5152 L 1120.4,-57.9134 L 1120.85,-57.204 L 1121.13,-56.418 L 1121.25,-55.4523
 L 1121.25,-22 L 1121.16,-21.1684 L 1120.9,-20.373 L 1120.49,-19.6489 L 1119.93,-19.0274 L 1119.25,-18.5359
 L 1118.49,-18.1958 L 1117.25,-18 z
M 1212.32,-18 L 1211.49,-18.0874 L 1210.69,-18.3458 L 1209.97,-18.7639 L 1209.35,-19.3235 L 1208.86,-20
 L 1208.52,-20.7639 L 1208.34,-21.5819 L 1208.34,-22.4181 L 1208.52,-23.2361 L 1208.86,-24 L 1209.35,-24.6765
 L 1209.97,-25.2361 L 1210.95,-25.7595 L 1303.01,-59.2118 L 1303.82,-59.4137 L 1304.66,-59.4424 L 1305.48,-59.2968
 L 1306.25,-58.9832 L 1306.95,-58.5152 L 1307.53,-57.9134 L 1307.97,-57.204 L 1308.26,-56.418 L 1308.38,-55.4523
 L 1308.38,-22 L 1308.29,-21.1684 L 1308.03,-20.373 L 1307.61,-19.6489 L 1307.05,-19.0274 L 1306.38,-18.5359
 L 1305.61,-18.1958 L 1304.38,-18 z
M 1399.44,-18 L 1398.61,-18.0874 L 1397.82,-18.3458 L 1397.09,-18.7639 L 1396.47,-19.3235 L 1395.98,-20
 L 1395.64,-20.7639 L 1395.47,-21.5819 L 1395.47,-22.4181 L 1395.64,-23.2361 L 1395.98,-24 L 1396.47,-24.6765
 L 1397.09,-25.2361 L 1398.08,-25.7595 L 1488.63,-58.6667 L 1489.45,-58.8686 L 1490.28,-58.8973 L 1491.1,-58.7517
 L 1491.88,-58.4381 L 1492.57,-57.9701 L 1493.15,-57.3683 L 1493.6,-56.6589 L 1493.88,-55.8729 L 1494,-54.9072
 L 1494,-22 L 1493.91,-21.1684 L 1493.65,-20.373 L 1493.24,-19.6489 L 1492.68,-19.0274 L 1492,-18.5359
 L 1491.24,-18.1958 L 1490,-18 z
M 22,-18 L 20.7639,-18.1958 L 20,-18.5359 L 19.3235,-19.0274 L 18.7639,-19.6489 L 18.3458,-20.373
 L 18.0874,-21.1684 L 18,-22 L 18,-54.9072 L 18.1183,-55.8729 L 18.4039,-56.6589 L 18.8467,-57.3683
 L 19.4273,-57.9701 L 20.1203,-58.4381 L 20.8955,-58.7517 L 21.7189,-58.8973 L 22.5547,-58.8686 L 23.3662,-58.6667
 L 113.922,-25.7595 L 114.907,-25.2361 L 115.528,-24.6765 L 116.019,-24 L 116.36,-23.2361 L 116.533,-22.4181
 L 116.533,-21.5819 L 116.36,-20.7639 L 116.019,-20 L 115.528,-19.3235 L 114.907,-18.7639 L 114.182,-18.3458
 L 113.387,-18.0874 L 112.555,-18 z
" stroke="black" fill="lightgray" stroke-width="0.5"/>
</svg>
