<?xml version="1.0" standalone="no"?>
<!DOCTYPE svg PUBLIC "-//W3C//DTD SVG 1.1//EN" "http://www.w3.org/Graphics/SVG/1.1/DTD/svg11.dtd">
<svg width="1255mm" height="80mm" viewBox="0 -80 1255 80" xmlns="http://www.w3.org/2000/svg" version="1.1">
<title>OpenSCAD Model</title>
<path d="
M 1255,-80 L 0,-80 L 0,-0 L 4.95,-0 L 4.95,-6 L 5.00572,-6.53017
 L 5.17046,-7.03717 L 5.437,-7.49884 L 5.79372,-7.895 L 6.22499,-8.20836 L 6.71201,-8.42519 L 7.23344,-8.53603
 L 7.76654,-8.53603 L 8.28798,-8.42519 L 8.77499,-8.20836 L 9.20627,-7.895 L 9.56299,-7.49884 L 9.82953,-7.03717
 L 9.99426,-6.53017 L 10.05,-6 L 10.05,-0 L 182.093,-0 L 182.093,-6 L 182.149,-6.53017
 L 182.313,-7.03717 L 182.58,-7.49884 L 182.937,-7.895 L 183.368,-8.20836 L 183.855,-8.42519 L 184.376,-8.53603
 L 184.909,-8.53603 L 185.431,-8.42519 L 185.918,-8.20836 L 186.349,-7.895 L 186.706,-7.49884 L 186.972,-7.03717
 L 187.137,-6.53017 L 187.193,-6 L 187.193,-0 L 359.236,-0 L 359.236,-6 L 359.291,-6.53017
 L 359.456,-7.03717 L 359.723,-7.49884 L 360.079,-7.895 L 360.511,-8.20836 L 360.998,-8.42519 L 361.519,-8.53603
 L 362.052,-8.53603 L 362.574,-8.42519 L 363.061,-8.20836 L 363.492,-7.895 L 363.849,-7.49884 L 364.115,-7.03717
 L 364.28,-6.53017 L 364.336,-6 L 364.336,-0 L 536.379,-0 L 536.379,-6 L 536.434,-6.53017
 L 536.599,-7.03717 L 536.866,-7.49884 L 537.222,-7.895 L 537.654,-8.20836 L 538.141,-8.42519 L 538.662,-8.53603
 L 539.195,-8.53603 L 539.717,-8.42519 L 540.204,-8.20836 L 540.635,-7.895 L 540.992,-7.49884 L 541.258,-7.03717
 L 541.423,-6.53017 L 541.479,-6 L 541.479,-0 L 713.521,-0 L 713.521,-6 L 713.577,-6.53017
 L 713.742,-7.03717 L 714.008,-7.49884 L 714.365,-7.895 L 714.796,-8.20836 L 715.283,-8.42519 L 715.805,-8.53603
 L 716.338,-8.53603 L 716.859,-8.42519 L 717.346,-8.20836 L 717.778,-7.895 L 718.134,-7.49884 L 718.401,-7.03717
 L 718.566,-6.53017 L 718.621,-6 L 718.621,-0 L 890.664,-0 L 890.664,-6 L 890.72,-6.53017
 L 890.885,-7.03717 L 891.151,-7.49884 L 891.508,-7.895 L 891.939,-8.20836 L 892.426,-8.42519 L 892.948,-8.53603
 L 893.481,-8.53603 L 894.002,-8.42519 L 894.489,-8.20836 L 894.921,-7.895 L 895.277,-7.49884 L 895.544,-7.03717
 L 895.709,-6.53017 L 895.764,-6 L 895.764,-0 L 1067.81,-0 L 1067.81,-6 L 1067.86,-6.53017
 L 1068.03,-7.03717 L 1068.29,-7.49884 L 1068.65,-7.895 L 1069.08,-8.20836 L 1069.57,-8.42519 L 1070.09,-8.53603
 L 1070.62,-8.53603 L 1071.15,-8.42519 L 1071.63,-8.20836 L 1072.06,-7.895 L 1072.42,-7.49884 L 1072.69,-7.03717
 L 1072.85,-6.53017 L 1072.91,-6 L 1072.91,-0 L 1244.95,-0 L 1244.95,-6 L 1245.01,-6.53017
 L 1245.17,-7.03717 L 1245.44,-7.49884 L 1245.79,-7.895 L 1246.22,-8.20836 L 1246.71,-8.42519 L 1247.23,-8.53603
 L 1247.77,-8.53603 L 1248.29,-8.42519 L 1248.77,-8.20836 L 1249.21,-7.895 L 1249.56,-7.49884 L 1249.83,-7.03717
 L 1249.99,-6.53017 L 1250.05,-6 L 1250.05,-0 L 1255,-0 z
M 6.98573,-55.607 L 6.47708,-55.6875 L 5.97964,-55.8208 L 5.49887,-56.0054 L 5.04001,-56.2392 L 4.60811,-56.5196
 L 4.20789,-56.8437 L 3.84373,-57.2079 L 3.51964,-57.6081 L 3.23917,-58.04 L 3.00537,-58.4989 L 2.82082,-58.9796
 L 2.68752,-59.4771 L 2.60696,-59.9857 L 2.58,-60.5 L 2.60696,-61.0143 L 2.68752,-61.5229 L 2.82082,-62.0204
 L 3.00537,-62.5011 L 3.23917,-62.96 L 3.51964,-63.3919 L 3.84373,-63.7921 L 4.20789,-64.1563 L 4.60811,-64.4804
 L 4.95001,-64.7024 L 4.95001,-74 L 5.00574,-74.5302 L 5.17047,-75.0372 L 5.43701,-75.4988 L 5.79373,-75.895
 L 6.22501,-76.2084 L 6.71202,-76.4252 L 7.23346,-76.536 L 7.76654,-76.536 L 8.28798,-76.4252 L 8.77499,-76.2084
 L 9.20627,-75.895 L 9.56299,-75.4988 L 9.82953,-75.0372 L 9.99426,-74.5302 L 10.05,-74 L 10.05,-64.7024
 L 10.3919,-64.4804 L 10.7921,-64.1563 L 11.1563,-63.7921 L 11.4804,-63.3919 L 11.7608,-62.96 L 11.9946,-62.5011
 L 12.1792,-62.0204 L 12.3125,-61.5229 L 12.393,-61.0143 L 12.42,-60.5 L 12.393,-59.9857 L 12.3125,-59.4771
 L 12.1792,-58.9796 L 11.9946,-58.4989 L 11.7608,-58.04 L 11.4804,-57.6081 L 11.1563,-57.2079 L 10.7921,-56.8437
 L 10.3919,-56.5196 L 9.95999,-56.2392 L 9.50113,-56.0054 L 9.02036,-55.8208 L 8.52292,-55.6875 L 8.01427,-55.607
 L 7.5,-55.58 z
M 184.129,-55.607 L 183.62,-55.6875 L 183.122,-55.8208 L 182.642,-56.0054 L 182.183,-56.2392 L 181.751,-56.5196
 L 181.351,-56.8437 L 180.987,-57.2079 L 180.662,-57.6081 L 180.382,-58.04 L 180.148,-58.4989 L 179.964,-58.9796
 L 179.83,-59.4771 L 179.75,-59.9857 L 179.723,-60.5 L 179.75,-61.0143 L 179.83,-61.5229 L 179.964,-62.0204
 L 180.148,-62.5011 L 180.382,-62.96 L 180.662,-63.3919 L 180.987,-63.7921 L 181.351,-64.1563 L 181.751,-64.4804
 L 182.093,-64.7024 L 182.093,-74 L 182.149,-74.5302 L 182.313,-75.0372 L 182.58,-75.4988 L 182.937,-75.895
 L 183.368,-76.2084 L 183.855,-76.4252 L 184.376,-76.536 L 184.909,-76.536 L 185.431,-76.4252 L 185.918,-76.2084
 L 186.349,-75.895 L 186.706,-75.4988 L 186.972,-75.0372 L 187.137,-74.5302 L 187.193,-74 L 187.193,-64.7024
 L 187.535,-64.4804 L 187.935,-64.1563 L 188.299,-63.7921 L 188.623,-63.3919 L 188.904,-62.96 L 189.137,-62.5011
 L 189.322,-62.0204 L 189.455,-61.5229 L 189.536,-61.0143 L 189.563,-60.5 L 189.536,-59.9857 L 189.455,-59.4771
 L 189.322,-58.9796 L 189.137,-58.4989 L 188.904,-58.04 L 188.623,-57.6081 L 188.299,-57.2079 L 187.935,-56.8437
 L 187.535,-56.5196 L 187.103,-56.2392 L 186.644,-56.0054 L 186.163,-55.8208 L 185.666,-55.6875 L 185.157,-55.607
 L 184.643,-55.58 z
M 361.271,-55.607 L 360.763,-55.6875 L 360.265,-55.8208 L 359.785,-56.0054 L 359.326,-56.2392 L 358.894,-56.5196
 L 358.494,-56.8437 L 358.129,-57.2079 L 357.805,-57.6081 L 357.525,-58.04 L 357.291,-58.4989 L 357.107,-58.9796
 L 356.973,-59.4771 L 356.893,-59.9857 L 356.866,-60.5 L 356.893,-61.0143 L 356.973,-61.5229 L 357.107,-62.0204
 L 357.291,-62.5011 L 357.525,-62.96 L 357.805,-63.3919 L 358.129,-63.7921 L 358.494,-64.1563 L 358.894,-64.4804
 L 359.236,-64.7024 L 359.236,-74 L 359.291,-74.5302 L 359.456,-75.0372 L 359.723,-75.4988 L 360.079,-75.895
 L 360.511,-76.2084 L 360.998,-76.4252 L 361.519,-76.536 L 362.052,-76.536 L 362.574,-76.4252 L 363.061,-76.2084
 L 363.492,-75.895 L 363.849,-75.4988 L 364.115,-75.0372 L 364.28,-74.5302 L 364.336,-74 L 364.336,-64.7024
 L 364.678,-64.4804 L 365.078,-64.1563 L 365.442,-63.7921 L 365.766,-63.3919 L 366.047,-62.96 L 366.28,-62.5011
 L 366.465,-62.0204 L 366.598,-61.5229 L 366.679,-61.0143 L 366.706,-60.5 L 366.679,-59.9857 L 366.598,-59.4771
 L 366.465,-58.9796 L 366.28,-58.4989 L 366.047,-58.04 L 365.766,-57.6081 L 365.442,-57.2079 L 365.078,-56.8437
 L 364.678,-56.5196 L 364.246,-56.2392 L 363.787,-56.0054 L 363.306,-55.8208 L 362.809,-55.6875 L 362.3,-55.607
 L 361.786,-55.58 z
M 538.414,-55.607 L 537.906,-55.6875 L 537.408,-55.8208 L 536.927,-56.0054 L 536.469,-56.2392 L 536.037,-56.5196
 L 535.636,-56.8437 L 535.272,-57.2079 L 534.948,-57.6081 L 534.668,-58.04 L 534.434,-58.4989 L 534.249,-58.9796
 L 534.116,-59.4771 L 534.036,-59.9857 L 534.009,-60.5 L 534.036,-61.0143 L 534.116,-61.5229 L 534.249,-62.0204
 L 534.434,-62.5011 L 534.668,-62.96 L 534.948,-63.3919 L 535.272,-63.7921 L 535.636,-64.1563 L 536.037,-64.4804
 L 536.379,-64.7024 L 536.379,-74 L 536.434,-74.5302 L 536.599,-75.0372 L 536.866,-75.4988 L 537.222,-75.895
 L 537.654,-76.2084 L 538.141,-76.4252 L 538.662,-76.536 L 539.195,-76.536 L 539.717,-76.4252 L 540.204,-76.2084
 L 540.635,-75.895 L 540.992,-75.4988 L 541.258,-75.0372 L 541.423,-74.5302 L 541.479,-74 L 541.479,-64.7024
 L 541.82,-64.4804 L 542.221,-64.1563 L 542.585,-63.7921 L 542.909,-63.3919 L 543.189,-62.96 L 543.423,-62.5011
 L 543.608,-62.0204 L 543.741,-61.5229 L 543.822,-61.0143 L 543.849,-60.5 L 543.822,-59.9857 L 543.741,-59.4771
 L 543.608,-58.9796 L 543.423,-58.4989 L 543.189,-58.04 L 542.909,-57.6081 L 542.585,-57.2079 L 542.221,-56.8437
 L 541.82,-56.5196 L 541.389,-56.2392 L 540.93,-56.0054 L 540.449,-55.8208 L 539.951,-55.6875 L 539.443,-55.607
 L 538.929,-55.58 z
M 715.557,-55.607 L 715.049,-55.6875 L 714.551,-55.8208 L 714.07,-56.0054 L 713.611,-56.2392 L 713.18,-56.5196
 L 712.779,-56.8437 L 712.415,-57.2079 L 712.091,-57.6081 L 711.811,-58.04 L 711.577,-58.4989 L 711.392,-58.9796
 L 711.259,-59.4771 L 711.178,-59.9857 L 711.151,-60.5 L 711.178,-61.0143 L 711.259,-61.5229 L 711.392,-62.0204
 L 711.577,-62.5011 L 711.811,-62.96 L 712.091,-63.3919 L 712.415,-63.7921 L 712.779,-64.1563 L 713.18,-64.4804
 L 713.521,-64.7024 L 713.521,-74 L 713.577,-74.5302 L 713.742,-75.0372 L 714.008,-75.4988 L 714.365,-75.895
 L 714.796,-76.2084 L 715.283,-76.4252 L 715.805,-76.536 L 716.338,-76.536 L 716.859,-76.4252 L 717.346,-76.2084
 L 717.778,-75.895 L 718.134,-75.4988 L 718.401,-75.0372 L 718.566,-74.5302 L 718.621,-74 L 718.621,-64.7024
 L 718.963,-64.4804 L 719.364,-64.1563 L 719.728,-63.7921 L 720.052,-63.3919 L 720.332,-62.96 L 720.566,-62.5011
 L 720.751,-62.0204 L 720.884,-61.5229 L 720.964,-61.0143 L 720.991,-60.5 L 720.964,-59.9857 L 720.884,-59.4771
 L 720.751,-58.9796 L 720.566,-58.4989 L 720.332,-58.04 L 720.052,-57.6081 L 719.728,-57.2079 L 719.364,-56.8437
 L 718.963,-56.5196 L 718.531,-56.2392 L 718.073,-56.0054 L 717.592,-55.8208 L 717.094,-55.6875 L 716.586,-55.607
 L 716.071,-55.58 z
M 892.7,-55.607 L 892.191,-55.6875 L 891.694,-55.8208 L 891.213,-56.0054 L 890.754,-56.2392 L 890.322,-56.5196
 L 889.922,-56.8437 L 889.558,-57.2079 L 889.234,-57.6081 L 888.953,-58.04 L 888.72,-58.4989 L 888.535,-58.9796
 L 888.402,-59.4771 L 888.321,-59.9857 L 888.294,-60.5 L 888.321,-61.0143 L 888.402,-61.5229 L 888.535,-62.0204
 L 888.72,-62.5011 L 888.953,-62.96 L 889.234,-63.3919 L 889.558,-63.7921 L 889.922,-64.1563 L 890.322,-64.4804
 L 890.664,-64.7024 L 890.664,-74 L 890.72,-74.5302 L 890.885,-75.0372 L 891.151,-75.4988 L 891.508,-75.895
 L 891.939,-76.2084 L 892.426,-76.4252 L 892.948,-76.536 L 893.481,-76.536 L 894.002,-76.4252 L 894.489,-76.2084
 L 894.921,-75.895 L 895.277,-75.4988 L 895.544,-75.0372 L 895.709,-74.5302 L 895.764,-74 L 895.764,-64.7024
 L 896.106,-64.4804 L 896.506,-64.1563 L 896.871,-63.7921 L 897.195,-63.3919 L 897.475,-62.96 L 897.709,-62.5011
 L 897.893,-62.0204 L 898.027,-61.5229 L 898.107,-61.0143 L 898.134,-60.5 L 898.107,-59.9857 L 898.027,-59.4771
 L 897.893,-58.9796 L 897.709,-58.4989 L 897.475,-58.04 L 897.195,-57.6081 L 896.871,-57.2079 L 896.506,-56.8437
 L 896.106,-56.5196 L 895.674,-56.2392 L 895.215,-56.0054 L 894.735,-55.8208 L 894.237,-55.6875 L 893.729,-55.607
 L 893.214,-55.58 z
M 1069.84,-55.607 L 1069.33,-55.6875 L 1068.84,-55.8208 L 1068.36,-56.0054 L 1067.9,-56.2392 L 1067.47,-56.5196
 L 1067.07,-56.8437 L 1066.7,-57.2079 L 1066.38,-57.6081 L 1066.1,-58.04 L 1065.86,-58.4989 L 1065.68,-58.9796
 L 1065.54,-59.4771 L 1065.46,-59.9857 L 1065.44,-60.5 L 1065.46,-61.0143 L 1065.54,-61.5229 L 1065.68,-62.0204
 L 1065.86,-62.5011 L 1066.1,-62.96 L 1066.38,-63.3919 L 1066.7,-63.7921 L 1067.07,-64.1563 L 1067.47,-64.4804
 L 1067.81,-64.7024 L 1067.81,-74 L 1067.86,-74.5302 L 1068.03,-75.0372 L 1068.29,-75.4988 L 1068.65,-75.895
 L 1069.08,-76.2084 L 1069.57,-76.4252 L 1070.09,-76.536 L 1070.62,-76.536 L 1071.15,-76.4252 L 1071.63,-76.2084
 L 1072.06,-75.895 L 1072.42,-75.4988 L 1072.69,-75.0372 L 1072.85,-74.5302 L 1072.91,-74 L 1072.91,-64.7024
 L 1073.25,-64.4804 L 1073.65,-64.1563 L 1074.01,-63.7921 L 1074.34,-63.3919 L 1074.62,-62.96 L 1074.85,-62.5011
 L 1075.04,-62.0204 L 1075.17,-61.5229 L 1075.25,-61.0143 L 1075.28,-60.5 L 1075.25,-59.9857 L 1075.17,-59.4771
 L 1075.04,-58.9796 L 1074.85,-58.4989 L 1074.62,-58.04 L 1074.34,-57.6081 L 1074.01,-57.2079 L 1073.65,-56.8437
 L 1073.25,-56.5196 L 1072.82,-56.2392 L 1072.36,-56.0054 L 1071.88,-55.8208 L 1071.38,-55.6875 L 1070.87,-55.607
 L 1070.36,-55.58 z
M 1246.99,-55.607 L 1246.48,-55.6875 L 1245.98,-55.8208 L 1245.5,-56.0054 L 1245.04,-56.2392 L 1244.61,-56.5196
 L 1244.21,-56.8437 L 1243.84,-57.2079 L 1243.52,-57.6081 L 1243.24,-58.04 L 1243.01,-58.4989 L 1242.82,-58.9796
 L 1242.69,-59.4771 L 1242.61,-59.9857 L 1242.58,-60.5 L 1242.61,-61.0143 L 1242.69,-61.5229 L 1242.82,-62.0204
 L 1243.01,-62.5011 L 1243.24,-62.96 L 1243.52,-63.3919 L 1243.84,-63.7921 L 1244.21,-64.1563 L 1244.61,-64.4804
 L 1244.95,-64.7024 L 1244.95,-74 L 1245.01,-74.5302 L 1245.17,-75.0372 L 1245.44,-75.4988 L 1245.79,-75.895
 L 1246.23,-76.2084 L 1246.71,-76.4252 L 1247.23,-76.536 L 1247.77,-76.536 L 1248.29,-76.4252 L 1248.77,-76.2084
 L 1249.21,-75.895 L 1249.56,-75.4988 L 1249.83,-75.0372 L 1249.99,-74.5302 L 1250.05,-74 L 1250.05,-64.7024
 L 1250.39,-64.4804 L 1250.79,-64.1563 L 1251.16,-63.7921 L 1251.48,-63.3919 L 1251.76,-62.96 L 1251.99,-62.5011
 L 1252.18,-62.0204 L 1252.31,-61.5229 L 1252.39,-61.0143 L 1252.42,-60.5 L 1252.39,-59.9857 L 1252.31,-59.4771
 L 1252.18,-58.9796 L 1251.99,-58.4989 L 1251.76,-58.04 L 1251.48,-57.6081 L 1251.16,-57.2079 L 1250.79,-56.8437
 L 1250.39,-56.5196 L 1249.96,-56.2392 L 1249.5,-56.0054 L 1249.02,-55.8208 L 1248.52,-55.6875 L 1248.01,-55.607
 L 1247.5,-55.58 z
M 728.036,-21.0324 L 727.255,-21.3321 L 726.554,-21.7876 L 725.963,-22.3788 L 725.507,-23.0802 L 725.208,-23.8609
 L 725.071,-24.8961 L 725.071,-58 L 725.159,-58.8316 L 725.417,-59.627 L 725.835,-60.3511 L 726.395,-60.9726
 L 727.071,-61.4641 L 727.835,-61.8042 L 729.071,-62 L 815.308,-62 L 816.14,-61.9126 L 816.935,-61.6542
 L 817.659,-61.2361 L 818.281,-60.6765 L 818.772,-60 L 819.113,-59.2361 L 819.286,-58.4181 L 819.286,-57.5819
 L 819.113,-56.7639 L 818.772,-56 L 818.281,-55.3235 L 817.659,-54.7639 L 816.742,-54.2657 L 730.505,-21.1618
 L 729.697,-20.9454 L 728.862,-20.9016 z
M 626.874,-47.8157 L 626.066,-48.0322 L 609.828,-54.2657 L 608.91,-54.7639 L 608.289,-55.3235 L 607.797,-56
 L 607.457,-56.7639 L 607.283,-57.5819 L 607.283,-58.4181 L 607.457,-59.2361 L 607.797,-60 L 608.289,-60.6765
 L 608.91,-61.2361 L 609.634,-61.6542 L 610.43,-61.9126 L 611.261,-62 L 643.739,-62 L 644.774,-61.8637
 L 645.555,-61.564 L 646.256,-61.1086 L 646.847,-60.5173 L 647.303,-59.816 L 647.602,-59.0353 L 647.733,-58.2094
 L 647.689,-57.3743 L 647.473,-56.5665 L 647.093,-55.8215 L 646.567,-55.1716 L 645.917,-54.6453 L 645.172,-54.2657
 L 628.933,-48.0322 L 628.535,-47.9028 L 627.709,-47.772 z
M 525.303,-20.9454 L 524.495,-21.1618 L 438.258,-54.2657 L 437.34,-54.7639 L 436.719,-55.3235 L 436.228,-56
 L 435.887,-56.7639 L 435.714,-57.5819 L 435.714,-58.4181 L 435.887,-59.2361 L 436.228,-60 L 436.719,-60.6765
 L 437.34,-61.2361 L 438.065,-61.6542 L 438.86,-61.9126 L 439.692,-62 L 525.929,-62 L 527.165,-61.8042
 L 527.929,-61.4641 L 528.605,-60.9726 L 529.165,-60.3511 L 529.583,-59.627 L 529.841,-58.8316 L 529.929,-58
 L 529.929,-24.8961 L 529.792,-23.8609 L 529.493,-23.0802 L 529.037,-22.3788 L 528.446,-21.7876 L 527.744,-21.3321
 L 526.964,-21.0324 L 526.138,-20.9016 z
M 348.16,-20.9454 L 347.352,-21.1618 L 261.115,-54.2657 L 260.198,-54.7639 L 259.576,-55.3235 L 259.085,-56
 L 258.745,-56.7639 L 258.571,-57.5819 L 258.571,-58.4181 L 258.745,-59.2361 L 259.085,-60 L 259.576,-60.6765
 L 260.198,-61.2361 L 260.922,-61.6542 L 261.717,-61.9126 L 262.549,-62 L 348.786,-62 L 350.022,-61.8042
 L 350.786,-61.4641 L 351.462,-60.9726 L 352.022,-60.3511 L 352.44,-59.627 L 352.698,-58.8316 L 352.786,-58
 L 352.786,-24.8961 L 352.649,-23.8609 L 352.35,-23.0802 L 351.894,-22.3788 L 351.303,-21.7876 L 350.602,-21.3321
 L 349.821,-21.0324 L 348.995,-20.9016 z
M 1082.32,-21.0324 L 1081.54,-21.3321 L 1080.84,-21.7876 L 1080.25,-22.3788 L 1079.79,-23.0802 L 1079.49,-23.8609
 L 1079.36,-24.8961 L 1079.36,-58 L 1079.44,-58.8316 L 1079.7,-59.627 L 1080.12,-60.3511 L 1080.68,-60.9726
 L 1081.36,-61.4641 L 1082.12,-61.8042 L 1083.36,-62 L 1169.59,-62 L 1170.43,-61.9126 L 1171.22,-61.6542
 L 1171.95,-61.2361 L 1172.57,-60.6765 L 1173.06,-60 L 1173.4,-59.2361 L 1173.57,-58.4181 L 1173.57,-57.5819
 L 1173.4,-56.7639 L 1173.06,-56 L 1172.57,-55.3235 L 1171.95,-54.7639 L 1171.03,-54.2657 L 1084.79,-21.1618
 L 1083.98,-20.9454 L 1083.15,-20.9016 z
M 171.017,-20.9454 L 170.209,-21.1618 L 83.9724,-54.2657 L 83.0548,-54.7639 L 82.4333,-55.3235 L 81.9418,-56
 L 81.6017,-56.7639 L 81.4278,-57.5819 L 81.4278,-58.4181 L 81.6017,-59.2361 L 81.9418,-60 L 82.4333,-60.6765
 L 83.0548,-61.2361 L 83.779,-61.6542 L 84.5743,-61.9126 L 85.4059,-62 L 171.643,-62 L 172.879,-61.8042
 L 173.643,-61.4641 L 174.319,-60.9726 L 174.879,-60.3511 L 175.297,-59.627 L 175.555,-58.8316 L 175.643,-58
 L 175.643,-24.8961 L 175.507,-23.8609 L 175.207,-23.0802 L 174.751,-22.3788 L 174.16,-21.7876 L 173.459,-21.3321
 L 172.678,-21.0324 L 171.852,-20.9016 z
M 905.179,-21.0324 L 904.398,-21.3321 L 903.697,-21.7876 L 903.106,-22.3788 L 902.65,-23.0802 L 902.351,-23.8609
 L 902.214,-24.8961 L 902.214,-58 L 902.302,-58.8316 L 902.56,-59.627 L 902.978,-60.3511 L 903.538,-60.9726
 L 904.214,-61.4641 L 904.978,-61.8042 L 906.214,-62 L 992.451,-62 L 993.283,-61.9126 L 994.078,-61.6542
 L 994.802,-61.2361 L 995.424,-60.6765 L 995.915,-60 L 996.255,-59.2361 L 996.429,-58.4181 L 996.429,-57.5819
 L 996.255,-56.7639 L 995.915,-56 L 995.424,-55.3235 L 994.802,-54.7639 L 993.885,-54.2657 L 907.648,-21.1618
 L 906.84,-20.9454 L 906.005,-20.9016 z
M 551.51,-18.7787 L 550.692,-18.9526 L 549.929,-19.2927 L 549.252,-19.7842 L 548.692,-20.4057 L 548.274,-21.1299
 L 548.016,-21.9252 L 547.929,-22.7568 L 547.929,-57.2432 L 548.065,-58.2785 L 548.365,-59.0592 L 548.82,-59.7605
 L 549.411,-60.3518 L 550.113,-60.8072 L 550.893,-61.1069 L 551.719,-61.2377 L 552.554,-61.1939 L 553.362,-60.9775
 L 598.281,-43.7343 L 599.365,-43.1086 L 599.956,-42.5173 L 600.412,-41.816 L 600.712,-41.0353 L 600.842,-40.2094
 L 600.799,-39.3743 L 600.582,-38.5665 L 600.202,-37.8215 L 599.676,-37.1716 L 599.026,-36.6453 L 598.281,-36.2657
 L 553.362,-19.0225 L 552.347,-18.7787 z
M 702.446,-18.806 L 701.638,-19.0225 L 656.719,-36.2657 L 655.635,-36.8914 L 655.044,-37.4827 L 654.588,-38.184
 L 654.288,-38.9647 L 654.158,-39.7906 L 654.201,-40.6257 L 654.418,-41.4335 L 654.797,-42.1785 L 655.324,-42.8284
 L 655.974,-43.3547 L 656.719,-43.7343 L 701.638,-60.9775 L 702.653,-61.2213 L 703.49,-61.2213 L 704.307,-61.0474
 L 705.071,-60.7073 L 705.748,-60.2158 L 706.307,-59.5943 L 706.726,-58.8702 L 706.984,-58.0749 L 707.071,-57.2432
 L 707.071,-22.7568 L 706.935,-21.7215 L 706.635,-20.9408 L 706.18,-20.2395 L 705.589,-19.6482 L 704.887,-19.1927
 L 704.107,-18.8931 L 703.281,-18.7623 z
M 197.643,-18 L 196.407,-18.1958 L 195.643,-18.5359 L 194.966,-19.0274 L 194.407,-19.6489 L 193.989,-20.373
 L 193.73,-21.1684 L 193.643,-22 L 193.643,-55.1038 L 193.779,-56.1391 L 194.079,-56.9198 L 194.534,-57.6211
 L 195.126,-58.2124 L 195.827,-58.6679 L 196.608,-58.9675 L 197.434,-59.0984 L 198.269,-59.0546 L 199.076,-58.8382
 L 285.313,-25.7343 L 286.231,-25.2361 L 286.852,-24.6765 L 287.344,-24 L 287.684,-23.2361 L 287.858,-22.4181
 L 287.858,-21.5819 L 287.684,-20.7639 L 287.344,-20 L 286.852,-19.3235 L 286.231,-18.7639 L 285.507,-18.3458
 L 284.711,-18.0874 L 283.88,-18 z
M 374.786,-18 L 373.55,-18.1958 L 372.786,-18.5359 L 372.109,-19.0274 L 371.55,-19.6489 L 371.132,-20.373
 L 370.873,-21.1684 L 370.786,-22 L 370.786,-55.1038 L 370.922,-56.1391 L 371.222,-56.9198 L 371.677,-57.6211
 L 372.268,-58.2124 L 372.97,-58.6679 L 373.75,-58.9675 L 374.576,-59.0984 L 375.411,-59.0546 L 376.219,-58.8382
 L 462.456,-25.7343 L 463.374,-25.2361 L 463.995,-24.6765 L 464.487,-24 L 464.827,-23.2361 L 465.001,-22.4181
 L 465.001,-21.5819 L 464.827,-20.7639 L 464.487,-20 L 463.995,-19.3235 L 463.374,-18.7639 L 462.65,-18.3458
 L 461.854,-18.0874 L 461.023,-18 z
M 793.977,-18 L 793.146,-18.0874 L 792.35,-18.3458 L 791.626,-18.7639 L 791.005,-19.3235 L 790.513,-20
 L 790.173,-20.7639 L 789.999,-21.5819 L 789.999,-22.4181 L 790.173,-23.2361 L 790.513,-24 L 791.005,-24.6765
 L 791.626,-25.2361 L 792.544,-25.7343 L 878.781,-58.8382 L 879.589,-59.0546 L 880.424,-59.0984 L 881.25,-58.9675
 L 882.03,-58.6679 L 882.732,-58.2124 L 883.323,-57.6211 L 883.778,-56.9198 L 884.078,-56.1391 L 884.214,-55.1038
 L 884.214,-22 L 884.127,-21.1684 L 883.868,-20.373 L 883.45,-19.6489 L 882.891,-19.0274 L 882.214,-18.5359
 L 881.45,-18.1958 L 880.214,-18 z
M 971.12,-18 L 970.289,-18.0874 L 969.493,-18.3458 L 968.769,-18.7639 L 968.148,-19.3235 L 967.656,-20
 L 967.316,-20.7639 L 967.142,-21.5819 L 967.142,-22.4181 L 967.316,-23.2361 L 967.656,-24 L 968.148,-24.6765
 L 968.769,-25.2361 L 969.687,-25.7343 L 1055.92,-58.8382 L 1056.73,-59.0546 L 1057.57,-59.0984 L 1058.39,-58.9675
 L 1059.17,-58.6679 L 1059.87,-58.2124 L 1060.47,-57.6211 L 1060.92,-56.9198 L 1061.22,-56.1391 L 1061.36,-55.1038
 L 1061.36,-22 L 1061.27,-21.1684 L 1061.01,-20.373 L 1060.59,-19.6489 L 1060.03,-19.0274 L 1059.36,-18.5359
 L 1058.59,-18.1958 L 1057.36,-18 z
M 22,-18 L 20.7639,-18.1958 L 20,-18.5359 L 19.3235,-19.0274 L 18.7639,-19.6489 L 18.3458,-20.373
 L 18.0874,-21.1684 L 18,-22 L 18,-54.528 L 18.1363,-55.5633 L 18.436,-56.344 L 18.8914,-57.0453
 L 19.4827,-57.6366 L 20.1841,-58.0921 L 20.9648,-58.3917 L 21.7907,-58.5226 L 22.6258,-58.4788 L 23.4335,-58.2623
 L 108.17,-25.7343 L 109.088,-25.2361 L 109.709,-24.6765 L 110.201,-24 L 110.541,-23.2361 L 110.715,-22.4181
 L 110.715,-21.5819 L 110.541,-20.7639 L 110.201,-20 L 109.709,-19.3235 L 109.088,-18.7639 L 108.364,-18.3458
 L 107.569,-18.0874 L 106.737,-18 z
M 1148.26,-18 L 1147.43,-18.0874 L 1146.64,-18.3458 L 1145.91,-18.7639 L 1145.29,-19.3235 L 1144.8,-20
 L 1144.46,-20.7639 L 1144.29,-21.5819 L 1144.29,-22.4181 L 1144.46,-23.2361 L 1144.8,-24 L 1145.29,-24.6765
 L 1145.91,-25.2361 L 1146.83,-25.7343 L 1231.57,-58.2623 L 1232.37,-58.4788 L 1233.21,-58.5226 L 1234.04,-58.3917
 L 1234.82,-58.0921 L 1235.52,-57.6366 L 1236.11,-57.0453 L 1236.56,-56.344 L 1236.86,-55.5633 L 1237,-54.528
 L 1237,-22 L 1236.91,-21.1684 L 1236.65,-20.373 L 1236.24,-19.6489 L 1235.68,-19.0274 L 1235,-18.5359
 L 1234.24,-18.1958 L 1233,-18 z
M 611.261,-18 L 610.226,-18.1363 L 609.445,-18.436 L 608.744,-18.8914 L 608.153,-19.4827 L 607.697,-20.184
 L 607.398,-20.9647 L 607.267,-21.7906 L 607.311,-22.6257 L 607.527,-23.4335 L 607.907,-24.1785 L 608.433,-24.8284
 L 609.083,-25.3547 L 609.828,-25.7343 L 626.066,-31.9678 L 626.465,-32.0972 L 627.291,-32.228 L 628.126,-32.1843
 L 628.933,-31.9678 L 645.172,-25.7343 L 646.09,-25.2361 L 646.711,-24.6765 L 647.203,-24 L 647.543,-23.2361
 L 647.717,-22.4181 L 647.717,-21.5819 L 647.543,-20.7639 L 647.203,-20 L 646.711,-19.3235 L 646.09,-18.7639
 L 645.366,-18.3458 L 644.57,-18.0874 L 643.739,-18 z
" stroke="black" fill="lightgray" stroke-width="0.5"/>
</svg>
