<?xml version="1.0" standalone="no"?>
<!DOCTYPE svg PUBLIC "-//W3C//DTD SVG 1.1//EN" "http://www.w3.org/Graphics/SVG/1.1/DTD/svg11.dtd">
<svg width="1237mm" height="80mm" viewBox="0 -80 1237 80" xmlns="http://www.w3.org/2000/svg" version="1.1">
<title>OpenSCAD Model</title>
<path d="
M 1237,-80 L 0,-80 L 0,-0 L 4.95,-0 L 4.95,-6 L 5.00572,-6.53017
 L 5.17046,-7.03717 L 5.437,-7.49884 L 5.79372,-7.895 L 6.22499,-8.20836 L 6.71201,-8.42519 L 7.23344,-8.53603
 L 7.76654,-8.53603 L 8.28798,-8.42519 L 8.77499,-8.20836 L 9.20627,-7.895 L 9.56299,-7.49884 L 9.82953,-7.03717
 L 9.99426,-6.53017 L 10.05,-6 L 10.05,-0 L 179.521,-0 L 179.521,-6 L 179.577,-6.53017
 L 179.742,-7.03717 L 180.008,-7.49884 L 180.365,-7.895 L 180.796,-8.20836 L 181.283,-8.42519 L 181.805,-8.53603
 L 182.338,-8.53603 L 182.859,-8.42519 L 183.346,-8.20836 L 183.778,-7.895 L 184.134,-7.49884 L 184.401,-7.03717
 L 184.566,-6.53017 L 184.621,-6 L 184.621,-0 L 354.093,-0 L 354.093,-6 L 354.149,-6.53017
 L 354.313,-7.03717 L 354.58,-7.49884 L 354.937,-7.895 L 355.368,-8.20836 L 355.855,-8.42519 L 356.376,-8.53603
 L 356.909,-8.53603 L 357.431,-8.42519 L 357.918,-8.20836 L 358.349,-7.895 L 358.706,-7.49884 L 358.972,-7.03717
 L 359.137,-6.53017 L 359.193,-6 L 359.193,-0 L 528.664,-0 L 528.664,-6 L 528.72,-6.53017
 L 528.885,-7.03717 L 529.151,-7.49884 L 529.508,-7.895 L 529.939,-8.20836 L 530.426,-8.42519 L 530.948,-8.53603
 L 531.481,-8.53603 L 532.002,-8.42519 L 532.489,-8.20836 L 532.921,-7.895 L 533.277,-7.49884 L 533.544,-7.03717
 L 533.709,-6.53017 L 533.764,-6 L 533.764,-0 L 703.236,-0 L 703.236,-6 L 703.291,-6.53017
 L 703.456,-7.03717 L 703.723,-7.49884 L 704.079,-7.895 L 704.511,-8.20836 L 704.998,-8.42519 L 705.519,-8.53603
 L 706.052,-8.53603 L 706.574,-8.42519 L 707.061,-8.20836 L 707.492,-7.895 L 707.849,-7.49884 L 708.115,-7.03717
 L 708.28,-6.53017 L 708.336,-6 L 708.336,-0 L 877.807,-0 L 877.807,-6 L 877.863,-6.53017
 L 878.028,-7.03717 L 878.294,-7.49884 L 878.651,-7.895 L 879.082,-8.20836 L 879.569,-8.42519 L 880.091,-8.53603
 L 880.624,-8.53603 L 881.145,-8.42519 L 881.632,-8.20836 L 882.063,-7.895 L 882.42,-7.49884 L 882.687,-7.03717
 L 882.851,-6.53017 L 882.907,-6 L 882.907,-0 L 1052.38,-0 L 1052.38,-6 L 1052.43,-6.53017
 L 1052.6,-7.03717 L 1052.87,-7.49884 L 1053.22,-7.895 L 1053.65,-8.20836 L 1054.14,-8.42519 L 1054.66,-8.53603
 L 1055.2,-8.53603 L 1055.72,-8.42519 L 1056.2,-8.20836 L 1056.63,-7.895 L 1056.99,-7.49884 L 1057.26,-7.03717
 L 1057.42,-6.53017 L 1057.48,-6 L 1057.48,-0 L 1226.95,-0 L 1226.95,-6 L 1227.01,-6.53017
 L 1227.17,-7.03717 L 1227.44,-7.49884 L 1227.79,-7.895 L 1228.22,-8.20836 L 1228.71,-8.42519 L 1229.23,-8.53603
 L 1229.77,-8.53603 L 1230.29,-8.42519 L 1230.77,-8.20836 L 1231.21,-7.895 L 1231.56,-7.49884 L 1231.83,-7.03717
 L 1231.99,-6.53017 L 1232.05,-6 L 1232.05,-0 L 1237,-0 z
M 6.98573,-55.607 L 6.47708,-55.6875 L 5.97964,-55.8208 L 5.49887,-56.0054 L 5.04001,-56.2392 L 4.60811,-56.5196
 L 4.20789,-56.8437 L 3.84373,-57.2079 L 3.51964,-57.6081 L 3.23917,-58.04 L 3.00537,-58.4989 L 2.82082,-58.9796
 L 2.68752,-59.4771 L 2.60696,-59.9857 L 2.58,-60.5 L 2.60696,-61.0143 L 2.68752,-61.5229 L 2.82082,-62.0204
 L 3.00537,-62.5011 L 3.23917,-62.96 L 3.51964,-63.3919 L 3.84373,-63.7921 L 4.20789,-64.1563 L 4.60811,-64.4804
 L 4.95001,-64.7024 L 4.95001,-74 L 5.00574,-74.5302 L 5.17047,-75.0372 L 5.43701,-75.4988 L 5.79373,-75.895
 L 6.22501,-76.2084 L 6.71202,-76.4252 L 7.23346,-76.536 L 7.76654,-76.536 L 8.28798,-76.4252 L 8.77499,-76.2084
 L 9.20627,-75.895 L 9.56299,-75.4988 L 9.82953,-75.0372 L 9.99426,-74.5302 L 10.05,-74 L 10.05,-64.7024
 L 10.3919,-64.4804 L 10.7921,-64.1563 L 11.1563,-63.7921 L 11.4804,-63.3919 L 11.7608,-62.96 L 11.9946,-62.5011
 L 12.1792,-62.0204 L 12.3125,-61.5229 L 12.393,-61.0143 L 12.42,-60.5 L 12.393,-59.9857 L 12.3125,-59.4771
 L 12.1792,-58.9796 L 11.9946,-58.4989 L 11.7608,-58.04 L 11.4804,-57.6081 L 11.1563,-57.2079 L 10.7921,-56.8437
 L 10.3919,-56.5196 L 9.95999,-56.2392 L 9.50113,-56.0054 L 9.02036,-55.8208 L 8.52292,-55.6875 L 8.01427,-55.607
 L 7.5,-55.58 z
M 181.557,-55.607 L 181.049,-55.6875 L 180.551,-55.8208 L 180.07,-56.0054 L 179.611,-56.2392 L 179.18,-56.5196
 L 178.779,-56.8437 L 178.415,-57.2079 L 178.091,-57.6081 L 177.811,-58.04 L 177.577,-58.4989 L 177.392,-58.9796
 L 177.259,-59.4771 L 177.178,-59.9857 L 177.151,-60.5 L 177.178,-61.0143 L 177.259,-61.5229 L 177.392,-62.0204
 L 177.577,-62.5011 L 177.811,-62.96 L 178.091,-63.3919 L 178.415,-63.7921 L 178.779,-64.1563 L 179.18,-64.4804
 L 179.521,-64.7024 L 179.521,-74 L 179.577,-74.5302 L 179.742,-75.0372 L 180.008,-75.4988 L 180.365,-75.895
 L 180.796,-76.2084 L 181.283,-76.4252 L 181.805,-76.536 L 182.338,-76.536 L 182.859,-76.4252 L 183.346,-76.2084
 L 183.778,-75.895 L 184.134,-75.4988 L 184.401,-75.0372 L 184.566,-74.5302 L 184.621,-74 L 184.621,-64.7024
 L 184.963,-64.4804 L 185.364,-64.1563 L 185.728,-63.7921 L 186.052,-63.3919 L 186.332,-62.96 L 186.566,-62.5011
 L 186.751,-62.0204 L 186.884,-61.5229 L 186.964,-61.0143 L 186.991,-60.5 L 186.964,-59.9857 L 186.884,-59.4771
 L 186.751,-58.9796 L 186.566,-58.4989 L 186.332,-58.04 L 186.052,-57.6081 L 185.728,-57.2079 L 185.364,-56.8437
 L 184.963,-56.5196 L 184.531,-56.2392 L 184.073,-56.0054 L 183.592,-55.8208 L 183.094,-55.6875 L 182.586,-55.607
 L 182.071,-55.58 z
M 356.129,-55.607 L 355.62,-55.6875 L 355.122,-55.8208 L 354.642,-56.0054 L 354.183,-56.2392 L 353.751,-56.5196
 L 353.351,-56.8437 L 352.987,-57.2079 L 352.662,-57.6081 L 352.382,-58.04 L 352.148,-58.4989 L 351.964,-58.9796
 L 351.83,-59.4771 L 351.75,-59.9857 L 351.723,-60.5 L 351.75,-61.0143 L 351.83,-61.5229 L 351.964,-62.0204
 L 352.148,-62.5011 L 352.382,-62.96 L 352.662,-63.3919 L 352.987,-63.7921 L 353.351,-64.1563 L 353.751,-64.4804
 L 354.093,-64.7024 L 354.093,-74 L 354.149,-74.5302 L 354.313,-75.0372 L 354.58,-75.4988 L 354.937,-75.895
 L 355.368,-76.2084 L 355.855,-76.4252 L 356.376,-76.536 L 356.909,-76.536 L 357.431,-76.4252 L 357.918,-76.2084
 L 358.349,-75.895 L 358.706,-75.4988 L 358.972,-75.0372 L 359.137,-74.5302 L 359.193,-74 L 359.193,-64.7024
 L 359.535,-64.4804 L 359.935,-64.1563 L 360.299,-63.7921 L 360.623,-63.3919 L 360.904,-62.96 L 361.137,-62.5011
 L 361.322,-62.0204 L 361.455,-61.5229 L 361.536,-61.0143 L 361.563,-60.5 L 361.536,-59.9857 L 361.455,-59.4771
 L 361.322,-58.9796 L 361.137,-58.4989 L 360.904,-58.04 L 360.623,-57.6081 L 360.299,-57.2079 L 359.935,-56.8437
 L 359.535,-56.5196 L 359.103,-56.2392 L 358.644,-56.0054 L 358.163,-55.8208 L 357.666,-55.6875 L 357.157,-55.607
 L 356.643,-55.58 z
M 530.7,-55.607 L 530.191,-55.6875 L 529.694,-55.8208 L 529.213,-56.0054 L 528.754,-56.2392 L 528.322,-56.5196
 L 527.922,-56.8437 L 527.558,-57.2079 L 527.234,-57.6081 L 526.953,-58.04 L 526.72,-58.4989 L 526.535,-58.9796
 L 526.402,-59.4771 L 526.321,-59.9857 L 526.294,-60.5 L 526.321,-61.0143 L 526.402,-61.5229 L 526.535,-62.0204
 L 526.72,-62.5011 L 526.953,-62.96 L 527.234,-63.3919 L 527.558,-63.7921 L 527.922,-64.1563 L 528.322,-64.4804
 L 528.664,-64.7024 L 528.664,-74 L 528.72,-74.5302 L 528.885,-75.0372 L 529.151,-75.4988 L 529.508,-75.895
 L 529.939,-76.2084 L 530.426,-76.4252 L 530.948,-76.536 L 531.481,-76.536 L 532.002,-76.4252 L 532.489,-76.2084
 L 532.921,-75.895 L 533.277,-75.4988 L 533.544,-75.0372 L 533.709,-74.5302 L 533.764,-74 L 533.764,-64.7024
 L 534.106,-64.4804 L 534.506,-64.1563 L 534.871,-63.7921 L 535.195,-63.3919 L 535.475,-62.96 L 535.709,-62.5011
 L 535.893,-62.0204 L 536.027,-61.5229 L 536.107,-61.0143 L 536.134,-60.5 L 536.107,-59.9857 L 536.027,-59.4771
 L 535.893,-58.9796 L 535.709,-58.4989 L 535.475,-58.04 L 535.195,-57.6081 L 534.871,-57.2079 L 534.506,-56.8437
 L 534.106,-56.5196 L 533.674,-56.2392 L 533.215,-56.0054 L 532.735,-55.8208 L 532.237,-55.6875 L 531.729,-55.607
 L 531.214,-55.58 z
M 705.271,-55.607 L 704.763,-55.6875 L 704.265,-55.8208 L 703.785,-56.0054 L 703.326,-56.2392 L 702.894,-56.5196
 L 702.494,-56.8437 L 702.129,-57.2079 L 701.805,-57.6081 L 701.525,-58.04 L 701.291,-58.4989 L 701.107,-58.9796
 L 700.973,-59.4771 L 700.893,-59.9857 L 700.866,-60.5 L 700.893,-61.0143 L 700.973,-61.5229 L 701.107,-62.0204
 L 701.291,-62.5011 L 701.525,-62.96 L 701.805,-63.3919 L 702.129,-63.7921 L 702.494,-64.1563 L 702.894,-64.4804
 L 703.236,-64.7024 L 703.236,-74 L 703.291,-74.5302 L 703.456,-75.0372 L 703.723,-75.4988 L 704.079,-75.895
 L 704.511,-76.2084 L 704.998,-76.4252 L 705.519,-76.536 L 706.052,-76.536 L 706.574,-76.4252 L 707.061,-76.2084
 L 707.492,-75.895 L 707.849,-75.4988 L 708.115,-75.0372 L 708.28,-74.5302 L 708.336,-74 L 708.336,-64.7024
 L 708.678,-64.4804 L 709.078,-64.1563 L 709.442,-63.7921 L 709.766,-63.3919 L 710.047,-62.96 L 710.28,-62.5011
 L 710.465,-62.0204 L 710.598,-61.5229 L 710.679,-61.0143 L 710.706,-60.5 L 710.679,-59.9857 L 710.598,-59.4771
 L 710.465,-58.9796 L 710.28,-58.4989 L 710.047,-58.04 L 709.766,-57.6081 L 709.442,-57.2079 L 709.078,-56.8437
 L 708.678,-56.5196 L 708.246,-56.2392 L 707.787,-56.0054 L 707.306,-55.8208 L 706.809,-55.6875 L 706.3,-55.607
 L 705.786,-55.58 z
M 879.843,-55.607 L 879.334,-55.6875 L 878.837,-55.8208 L 878.356,-56.0054 L 877.897,-56.2392 L 877.465,-56.5196
 L 877.065,-56.8437 L 876.701,-57.2079 L 876.377,-57.6081 L 876.096,-58.04 L 875.863,-58.4989 L 875.678,-58.9796
 L 875.545,-59.4771 L 875.464,-59.9857 L 875.437,-60.5 L 875.464,-61.0143 L 875.545,-61.5229 L 875.678,-62.0204
 L 875.863,-62.5011 L 876.096,-62.96 L 876.377,-63.3919 L 876.701,-63.7921 L 877.065,-64.1563 L 877.465,-64.4804
 L 877.807,-64.7024 L 877.807,-74 L 877.863,-74.5302 L 878.028,-75.0372 L 878.294,-75.4988 L 878.651,-75.895
 L 879.082,-76.2084 L 879.569,-76.4252 L 880.091,-76.536 L 880.624,-76.536 L 881.145,-76.4252 L 881.632,-76.2084
 L 882.063,-75.895 L 882.42,-75.4988 L 882.687,-75.0372 L 882.851,-74.5302 L 882.907,-74 L 882.907,-64.7024
 L 883.249,-64.4804 L 883.649,-64.1563 L 884.013,-63.7921 L 884.337,-63.3919 L 884.618,-62.96 L 884.852,-62.5011
 L 885.036,-62.0204 L 885.17,-61.5229 L 885.25,-61.0143 L 885.277,-60.5 L 885.25,-59.9857 L 885.17,-59.4771
 L 885.036,-58.9796 L 884.852,-58.4989 L 884.618,-58.04 L 884.337,-57.6081 L 884.013,-57.2079 L 883.649,-56.8437
 L 883.249,-56.5196 L 882.817,-56.2392 L 882.358,-56.0054 L 881.877,-55.8208 L 881.38,-55.6875 L 880.871,-55.607
 L 880.357,-55.58 z
M 1054.41,-55.607 L 1053.91,-55.6875 L 1053.41,-55.8208 L 1052.93,-56.0054 L 1052.47,-56.2392 L 1052.04,-56.5196
 L 1051.64,-56.8437 L 1051.27,-57.2079 L 1050.95,-57.6081 L 1050.67,-58.04 L 1050.43,-58.4989 L 1050.25,-58.9796
 L 1050.12,-59.4771 L 1050.04,-59.9857 L 1050.01,-60.5 L 1050.04,-61.0143 L 1050.12,-61.5229 L 1050.25,-62.0204
 L 1050.43,-62.5011 L 1050.67,-62.96 L 1050.95,-63.3919 L 1051.27,-63.7921 L 1051.64,-64.1563 L 1052.04,-64.4804
 L 1052.38,-64.7024 L 1052.38,-74 L 1052.43,-74.5302 L 1052.6,-75.0372 L 1052.87,-75.4988 L 1053.22,-75.895
 L 1053.65,-76.2084 L 1054.14,-76.4252 L 1054.66,-76.536 L 1055.2,-76.536 L 1055.72,-76.4252 L 1056.2,-76.2084
 L 1056.63,-75.895 L 1056.99,-75.4988 L 1057.26,-75.0372 L 1057.42,-74.5302 L 1057.48,-74 L 1057.48,-64.7024
 L 1057.82,-64.4804 L 1058.22,-64.1563 L 1058.58,-63.7921 L 1058.91,-63.3919 L 1059.19,-62.96 L 1059.42,-62.5011
 L 1059.61,-62.0204 L 1059.74,-61.5229 L 1059.82,-61.0143 L 1059.85,-60.5 L 1059.82,-59.9857 L 1059.74,-59.4771
 L 1059.61,-58.9796 L 1059.42,-58.4989 L 1059.19,-58.04 L 1058.91,-57.6081 L 1058.58,-57.2079 L 1058.22,-56.8437
 L 1057.82,-56.5196 L 1057.39,-56.2392 L 1056.93,-56.0054 L 1056.45,-55.8208 L 1055.95,-55.6875 L 1055.44,-55.607
 L 1054.93,-55.58 z
M 1228.99,-55.607 L 1228.48,-55.6875 L 1227.98,-55.8208 L 1227.5,-56.0054 L 1227.04,-56.2392 L 1226.61,-56.5196
 L 1226.21,-56.8437 L 1225.84,-57.2079 L 1225.52,-57.6081 L 1225.24,-58.04 L 1225.01,-58.4989 L 1224.82,-58.9796
 L 1224.69,-59.4771 L 1224.61,-59.9857 L 1224.58,-60.5 L 1224.61,-61.0143 L 1224.69,-61.5229 L 1224.82,-62.0204
 L 1225.01,-62.5011 L 1225.24,-62.96 L 1225.52,-63.3919 L 1225.84,-63.7921 L 1226.21,-64.1563 L 1226.61,-64.4804
 L 1226.95,-64.7024 L 1226.95,-74 L 1227.01,-74.5302 L 1227.17,-75.0372 L 1227.44,-75.4988 L 1227.79,-75.895
 L 1228.23,-76.2084 L 1228.71,-76.4252 L 1229.23,-76.536 L 1229.77,-76.536 L 1230.29,-76.4252 L 1230.77,-76.2084
 L 1231.21,-75.895 L 1231.56,-75.4988 L 1231.83,-75.0372 L 1231.99,-74.5302 L 1232.05,-74 L 1232.05,-64.7024
 L 1232.39,-64.4804 L 1232.79,-64.1563 L 1233.16,-63.7921 L 1233.48,-63.3919 L 1233.76,-62.96 L 1233.99,-62.5011
 L 1234.18,-62.0204 L 1234.31,-61.5229 L 1234.39,-61.0143 L 1234.42,-60.5 L 1234.39,-59.9857 L 1234.31,-59.4771
 L 1234.18,-58.9796 L 1233.99,-58.4989 L 1233.76,-58.04 L 1233.48,-57.6081 L 1233.16,-57.2079 L 1232.79,-56.8437
 L 1232.39,-56.5196 L 1231.96,-56.2392 L 1231.5,-56.0054 L 1231.02,-55.8208 L 1230.52,-55.6875 L 1230.01,-55.607
 L 1229.5,-55.58 z
M 717.769,-21.1308 L 716.987,-21.4266 L 716.284,-21.8786 L 715.69,-22.467 L 715.231,-23.1661 L 714.927,-23.9453
 L 714.786,-24.9996 L 714.786,-58 L 714.873,-58.8316 L 715.132,-59.627 L 715.55,-60.3511 L 716.109,-60.9726
 L 716.786,-61.4641 L 717.55,-61.8042 L 718.786,-62 L 803.505,-62 L 804.337,-61.9126 L 805.132,-61.6542
 L 805.856,-61.2361 L 806.478,-60.6765 L 806.969,-60 L 807.31,-59.2361 L 807.483,-58.4181 L 807.483,-57.5819
 L 807.31,-56.7639 L 806.969,-56 L 806.478,-55.3235 L 805.856,-54.7639 L 804.957,-54.2728 L 720.238,-21.2723
 L 719.431,-21.0519 L 718.596,-21.0041 z
M 617.855,-47.8442 L 617.048,-48.0646 L 601.11,-54.2728 L 600.211,-54.7639 L 599.589,-55.3235 L 599.098,-56
 L 598.758,-56.7639 L 598.584,-57.5819 L 598.584,-58.4181 L 598.758,-59.2361 L 599.098,-60 L 599.589,-60.6765
 L 600.211,-61.2361 L 600.935,-61.6542 L 601.73,-61.9126 L 602.562,-62 L 634.438,-62 L 635.454,-61.8688
 L 636.236,-61.5729 L 636.94,-61.1209 L 637.534,-60.5326 L 637.993,-59.8335 L 638.296,-59.0543 L 638.431,-58.229
 L 638.392,-57.3937 L 638.179,-56.5849 L 637.803,-55.838 L 637.28,-55.1855 L 636.633,-54.6561 L 635.89,-54.2728
 L 619.952,-48.0646 L 619.516,-47.923 L 618.69,-47.7963 z
M 517.569,-21.0519 L 516.762,-21.2723 L 432.043,-54.2728 L 431.144,-54.7639 L 430.522,-55.3235 L 430.031,-56
 L 429.69,-56.7639 L 429.517,-57.5819 L 429.517,-58.4181 L 429.69,-59.2361 L 430.031,-60 L 430.522,-60.6765
 L 431.144,-61.2361 L 431.868,-61.6542 L 432.663,-61.9126 L 433.495,-62 L 518.214,-62 L 519.45,-61.8042
 L 520.214,-61.4641 L 520.891,-60.9726 L 521.45,-60.3511 L 521.868,-59.627 L 522.127,-58.8316 L 522.214,-58
 L 522.214,-24.9996 L 522.073,-23.9453 L 521.769,-23.1661 L 521.31,-22.467 L 520.716,-21.8786 L 520.013,-21.4266
 L 519.231,-21.1308 L 518.404,-21.0041 z
M 342.998,-21.0519 L 342.191,-21.2723 L 257.471,-54.2728 L 256.572,-54.7639 L 255.951,-55.3235 L 255.459,-56
 L 255.119,-56.7639 L 254.945,-57.5819 L 254.945,-58.4181 L 255.119,-59.2361 L 255.459,-60 L 255.951,-60.6765
 L 256.572,-61.2361 L 257.296,-61.6542 L 258.092,-61.9126 L 258.923,-62 L 343.643,-62 L 344.879,-61.8042
 L 345.643,-61.4641 L 346.319,-60.9726 L 346.879,-60.3511 L 347.297,-59.627 L 347.555,-58.8316 L 347.643,-58
 L 347.643,-24.9996 L 347.501,-23.9453 L 347.198,-23.1661 L 346.739,-22.467 L 346.145,-21.8786 L 345.441,-21.4266
 L 344.659,-21.1308 L 343.833,-21.0041 z
M 1066.91,-21.1308 L 1066.13,-21.4266 L 1065.43,-21.8786 L 1064.83,-22.467 L 1064.37,-23.1661 L 1064.07,-23.9453
 L 1063.93,-24.9996 L 1063.93,-58 L 1064.02,-58.8316 L 1064.27,-59.627 L 1064.69,-60.3511 L 1065.25,-60.9726
 L 1065.93,-61.4641 L 1066.69,-61.8042 L 1067.93,-62 L 1152.65,-62 L 1153.48,-61.9126 L 1154.28,-61.6542
 L 1155,-61.2361 L 1155.62,-60.6765 L 1156.11,-60 L 1156.45,-59.2361 L 1156.63,-58.4181 L 1156.63,-57.5819
 L 1156.45,-56.7639 L 1156.11,-56 L 1155.62,-55.3235 L 1155,-54.7639 L 1154.1,-54.2728 L 1069.38,-21.2723
 L 1068.57,-21.0519 L 1067.74,-21.0041 z
M 168.426,-21.0519 L 167.62,-21.2723 L 82.8999,-54.2728 L 82.0007,-54.7639 L 81.3792,-55.3235 L 80.8877,-56
 L 80.5476,-56.7639 L 80.3737,-57.5819 L 80.3737,-58.4181 L 80.5476,-59.2361 L 80.8877,-60 L 81.3792,-60.6765
 L 82.0007,-61.2361 L 82.7248,-61.6542 L 83.5201,-61.9126 L 84.3518,-62 L 169.071,-62 L 170.307,-61.8042
 L 171.071,-61.4641 L 171.748,-60.9726 L 172.307,-60.3511 L 172.726,-59.627 L 172.984,-58.8316 L 173.071,-58
 L 173.071,-24.9996 L 172.93,-23.9453 L 172.626,-23.1661 L 172.168,-22.467 L 171.573,-21.8786 L 170.87,-21.4266
 L 170.088,-21.1308 L 169.261,-21.0041 z
M 892.341,-21.1308 L 891.559,-21.4266 L 890.855,-21.8786 L 890.261,-22.467 L 889.802,-23.1661 L 889.499,-23.9453
 L 889.357,-24.9996 L 889.357,-58 L 889.445,-58.8316 L 889.703,-59.627 L 890.121,-60.3511 L 890.681,-60.9726
 L 891.357,-61.4641 L 892.121,-61.8042 L 893.357,-62 L 978.077,-62 L 978.908,-61.9126 L 979.704,-61.6542
 L 980.428,-61.2361 L 981.049,-60.6765 L 981.541,-60 L 981.881,-59.2361 L 982.055,-58.4181 L 982.055,-57.5819
 L 981.881,-56.7639 L 981.541,-56 L 981.049,-55.3235 L 980.428,-54.7639 L 979.529,-54.2728 L 894.809,-21.2723
 L 894.002,-21.0519 L 893.167,-21.0041 z
M 543.796,-18.8775 L 542.978,-19.0514 L 542.214,-19.3915 L 541.538,-19.883 L 540.978,-20.5045 L 540.56,-21.2287
 L 540.302,-22.024 L 540.214,-22.8556 L 540.214,-57.1444 L 540.356,-58.1987 L 540.659,-58.9779 L 541.118,-59.677
 L 541.712,-60.2653 L 542.416,-60.7173 L 543.198,-61.0132 L 544.025,-61.1399 L 544.859,-61.092 L 545.666,-60.8716
 L 589.68,-43.7272 L 590.73,-43.1209 L 591.324,-42.5326 L 591.783,-41.8335 L 592.086,-41.0543 L 592.221,-40.229
 L 592.182,-39.3937 L 591.969,-38.5849 L 591.593,-37.838 L 591.07,-37.1855 L 590.423,-36.6561 L 589.68,-36.2728
 L 545.666,-19.1284 L 544.632,-18.8775 z
M 692.141,-18.908 L 691.334,-19.1284 L 647.32,-36.2728 L 646.27,-36.8791 L 645.676,-37.4674 L 645.217,-38.1665
 L 644.914,-38.9457 L 644.779,-39.771 L 644.818,-40.6063 L 645.031,-41.4151 L 645.407,-42.162 L 645.93,-42.8145
 L 646.577,-43.3439 L 647.32,-43.7272 L 691.334,-60.8716 L 692.368,-61.1225 L 693.204,-61.1225 L 694.022,-60.9486
 L 694.786,-60.6085 L 695.462,-60.117 L 696.022,-59.4955 L 696.44,-58.7714 L 696.698,-57.9761 L 696.786,-57.1444
 L 696.786,-22.8556 L 696.644,-21.8013 L 696.341,-21.0221 L 695.882,-20.323 L 695.288,-19.7346 L 694.584,-19.2827
 L 693.802,-18.9868 L 692.975,-18.8601 z
M 195.071,-18 L 193.835,-18.1958 L 193.071,-18.5359 L 192.395,-19.0274 L 191.835,-19.6489 L 191.417,-20.373
 L 191.159,-21.1684 L 191.071,-22 L 191.071,-55.0004 L 191.213,-56.0547 L 191.516,-56.8339 L 191.975,-57.533
 L 192.569,-58.1214 L 193.273,-58.5733 L 194.055,-58.8692 L 194.882,-58.9959 L 195.717,-58.948 L 196.523,-58.7276
 L 281.243,-25.7272 L 282.142,-25.2361 L 282.764,-24.6765 L 283.255,-24 L 283.595,-23.2361 L 283.769,-22.4181
 L 283.769,-21.5819 L 283.595,-20.7639 L 283.255,-20 L 282.764,-19.3235 L 282.142,-18.7639 L 281.418,-18.3458
 L 280.623,-18.0874 L 279.791,-18 z
M 369.643,-18 L 368.407,-18.1958 L 367.643,-18.5359 L 366.966,-19.0274 L 366.407,-19.6489 L 365.989,-20.373
 L 365.73,-21.1684 L 365.643,-22 L 365.643,-55.0004 L 365.784,-56.0547 L 366.088,-56.8339 L 366.547,-57.533
 L 367.141,-58.1214 L 367.844,-58.5733 L 368.627,-58.8692 L 369.453,-58.9959 L 370.288,-58.948 L 371.095,-58.7276
 L 455.814,-25.7272 L 456.714,-25.2361 L 457.335,-24.6765 L 457.827,-24 L 458.167,-23.2361 L 458.341,-22.4181
 L 458.341,-21.5819 L 458.167,-20.7639 L 457.827,-20 L 457.335,-19.3235 L 456.714,-18.7639 L 455.989,-18.3458
 L 455.194,-18.0874 L 454.362,-18 z
M 782.638,-18 L 781.806,-18.0874 L 781.011,-18.3458 L 780.286,-18.7639 L 779.665,-19.3235 L 779.173,-20
 L 778.833,-20.7639 L 778.659,-21.5819 L 778.659,-22.4181 L 778.833,-23.2361 L 779.173,-24 L 779.665,-24.6765
 L 780.286,-25.2361 L 781.186,-25.7272 L 865.905,-58.7276 L 866.712,-58.948 L 867.547,-58.9959 L 868.373,-58.8692
 L 869.156,-58.5733 L 869.859,-58.1214 L 870.453,-57.533 L 870.912,-56.8339 L 871.216,-56.0547 L 871.357,-55.0004
 L 871.357,-22 L 871.27,-21.1684 L 871.011,-20.373 L 870.593,-19.6489 L 870.034,-19.0274 L 869.357,-18.5359
 L 868.593,-18.1958 L 867.357,-18 z
M 957.209,-18 L 956.377,-18.0874 L 955.582,-18.3458 L 954.858,-18.7639 L 954.236,-19.3235 L 953.745,-20
 L 953.405,-20.7639 L 953.231,-21.5819 L 953.231,-22.4181 L 953.405,-23.2361 L 953.745,-24 L 954.236,-24.6765
 L 954.858,-25.2361 L 955.757,-25.7272 L 1040.48,-58.7276 L 1041.28,-58.948 L 1042.12,-58.9959 L 1042.94,-58.8692
 L 1043.73,-58.5733 L 1044.43,-58.1214 L 1045.02,-57.533 L 1045.48,-56.8339 L 1045.79,-56.0547 L 1045.93,-55.0004
 L 1045.93,-22 L 1045.84,-21.1684 L 1045.58,-20.373 L 1045.16,-19.6489 L 1044.61,-19.0274 L 1043.93,-18.5359
 L 1043.16,-18.1958 L 1041.93,-18 z
M 22,-18 L 20.7639,-18.1958 L 20,-18.5359 L 19.3235,-19.0274 L 18.7639,-19.6489 L 18.3458,-20.373
 L 18.0874,-21.1684 L 18,-22 L 18,-54.4161 L 18.1414,-55.4704 L 18.445,-56.2496 L 18.9039,-56.9487
 L 19.4981,-57.5371 L 20.2016,-57.9891 L 20.9838,-58.2849 L 21.8103,-58.4116 L 22.6452,-58.3638 L 23.4518,-58.1434
 L 106.671,-25.7272 L 107.571,-25.2361 L 108.192,-24.6765 L 108.684,-24 L 109.024,-23.2361 L 109.198,-22.4181
 L 109.198,-21.5819 L 109.024,-20.7639 L 108.684,-20 L 108.192,-19.3235 L 107.571,-18.7639 L 106.847,-18.3458
 L 106.051,-18.0874 L 105.22,-18 z
M 1131.78,-18 L 1130.95,-18.0874 L 1130.15,-18.3458 L 1129.43,-18.7639 L 1128.81,-19.3235 L 1128.32,-20
 L 1127.98,-20.7639 L 1127.8,-21.5819 L 1127.8,-22.4181 L 1127.98,-23.2361 L 1128.32,-24 L 1128.81,-24.6765
 L 1129.43,-25.2361 L 1130.33,-25.7272 L 1213.55,-58.1434 L 1214.35,-58.3638 L 1215.19,-58.4116 L 1216.02,-58.2849
 L 1216.8,-57.9891 L 1217.5,-57.5371 L 1218.1,-56.9487 L 1218.56,-56.2496 L 1218.86,-55.4704 L 1219,-54.4161
 L 1219,-22 L 1218.91,-21.1684 L 1218.65,-20.373 L 1218.24,-19.6489 L 1217.68,-19.0274 L 1217,-18.5359
 L 1216.24,-18.1958 L 1215,-18 z
M 602.562,-18 L 601.546,-18.1312 L 600.764,-18.4271 L 600.06,-18.8791 L 599.466,-19.4674 L 599.007,-20.1665
 L 598.704,-20.9457 L 598.569,-21.771 L 598.608,-22.6063 L 598.821,-23.4151 L 599.197,-24.162 L 599.72,-24.8145
 L 600.367,-25.3439 L 601.11,-25.7272 L 617.048,-31.9354 L 617.484,-32.077 L 618.31,-32.2037 L 619.145,-32.1558
 L 619.952,-31.9354 L 635.89,-25.7272 L 636.789,-25.2361 L 637.41,-24.6765 L 637.902,-24 L 638.242,-23.2361
 L 638.416,-22.4181 L 638.416,-21.5819 L 638.242,-20.7639 L 637.902,-20 L 637.41,-19.3235 L 636.789,-18.7639
 L 636.065,-18.3458 L 635.27,-18.0874 L 634.438,-18 z
" stroke="black" fill="lightgray" stroke-width="0.5"/>
</svg>
