<?xml version="1.0" standalone="no"?>
<!DOCTYPE svg PUBLIC "-//W3C//DTD SVG 1.1//EN" "http://www.w3.org/Graphics/SVG/1.1/DTD/svg11.dtd">
<svg width="1268mm" height="80mm" viewBox="0 -80 1268 80" xmlns="http://www.w3.org/2000/svg" version="1.1">
<title>OpenSCAD Model</title>
<path d="
M 1268,-80 L 0,-80 L 0,-0 L 4.95,-0 L 4.95,-6 L 5.00572,-6.53017
 L 5.17046,-7.03717 L 5.437,-7.49884 L 5.79372,-7.895 L 6.22499,-8.20836 L 6.71201,-8.42519 L 7.23344,-8.53603
 L 7.76654,-8.53603 L 8.28798,-8.42519 L 8.77499,-8.20836 L 9.20627,-7.895 L 9.56299,-7.49884 L 9.82953,-7.03717
 L 9.99426,-6.53017 L 10.05,-6 L 10.05,-0 L 183.95,-0 L 183.95,-6 L 184.006,-6.53017
 L 184.17,-7.03717 L 184.437,-7.49884 L 184.794,-7.895 L 185.225,-8.20836 L 185.712,-8.42519 L 186.233,-8.53603
 L 186.767,-8.53603 L 187.288,-8.42519 L 187.775,-8.20836 L 188.206,-7.895 L 188.563,-7.49884 L 188.83,-7.03717
 L 188.994,-6.53017 L 189.05,-6 L 189.05,-0 L 362.95,-0 L 362.95,-6 L 363.006,-6.53017
 L 363.17,-7.03717 L 363.437,-7.49884 L 363.794,-7.895 L 364.225,-8.20836 L 364.712,-8.42519 L 365.233,-8.53603
 L 365.767,-8.53603 L 366.288,-8.42519 L 366.775,-8.20836 L 367.206,-7.895 L 367.563,-7.49884 L 367.83,-7.03717
 L 367.994,-6.53017 L 368.05,-6 L 368.05,-0 L 541.95,-0 L 541.95,-6 L 542.006,-6.53017
 L 542.17,-7.03717 L 542.437,-7.49884 L 542.794,-7.895 L 543.225,-8.20836 L 543.712,-8.42519 L 544.233,-8.53603
 L 544.767,-8.53603 L 545.288,-8.42519 L 545.775,-8.20836 L 546.206,-7.895 L 546.563,-7.49884 L 546.83,-7.03717
 L 546.994,-6.53017 L 547.05,-6 L 547.05,-0 L 720.95,-0 L 720.95,-6 L 721.006,-6.53017
 L 721.17,-7.03717 L 721.437,-7.49884 L 721.794,-7.895 L 722.225,-8.20836 L 722.712,-8.42519 L 723.233,-8.53603
 L 723.767,-8.53603 L 724.288,-8.42519 L 724.775,-8.20836 L 725.206,-7.895 L 725.563,-7.49884 L 725.83,-7.03717
 L 725.994,-6.53017 L 726.05,-6 L 726.05,-0 L 899.95,-0 L 899.95,-6 L 900.006,-6.53017
 L 900.17,-7.03717 L 900.437,-7.49884 L 900.794,-7.895 L 901.225,-8.20836 L 901.712,-8.42519 L 902.233,-8.53603
 L 902.767,-8.53603 L 903.288,-8.42519 L 903.775,-8.20836 L 904.206,-7.895 L 904.563,-7.49884 L 904.83,-7.03717
 L 904.994,-6.53017 L 905.05,-6 L 905.05,-0 L 1078.95,-0 L 1078.95,-6 L 1079.01,-6.53017
 L 1079.17,-7.03717 L 1079.44,-7.49884 L 1079.79,-7.895 L 1080.22,-8.20836 L 1080.71,-8.42519 L 1081.23,-8.53603
 L 1081.77,-8.53603 L 1082.29,-8.42519 L 1082.77,-8.20836 L 1083.21,-7.895 L 1083.56,-7.49884 L 1083.83,-7.03717
 L 1083.99,-6.53017 L 1084.05,-6 L 1084.05,-0 L 1257.95,-0 L 1257.95,-6 L 1258.01,-6.53017
 L 1258.17,-7.03717 L 1258.44,-7.49884 L 1258.79,-7.895 L 1259.22,-8.20836 L 1259.71,-8.42519 L 1260.23,-8.53603
 L 1260.77,-8.53603 L 1261.29,-8.42519 L 1261.77,-8.20836 L 1262.21,-7.895 L 1262.56,-7.49884 L 1262.83,-7.03717
 L 1262.99,-6.53017 L 1263.05,-6 L 1263.05,-0 L 1268,-0 z
M 6.98573,-55.607 L 6.47708,-55.6875 L 5.97964,-55.8208 L 5.49887,-56.0054 L 5.04001,-56.2392 L 4.60811,-56.5196
 L 4.20789,-56.8437 L 3.84373,-57.2079 L 3.51964,-57.6081 L 3.23917,-58.04 L 3.00537,-58.4989 L 2.82082,-58.9796
 L 2.68752,-59.4771 L 2.60696,-59.9857 L 2.58,-60.5 L 2.60696,-61.0143 L 2.68752,-61.5229 L 2.82082,-62.0204
 L 3.00537,-62.5011 L 3.23917,-62.96 L 3.51964,-63.3919 L 3.84373,-63.7921 L 4.20789,-64.1563 L 4.60811,-64.4804
 L 4.95001,-64.7024 L 4.95001,-74 L 5.00574,-74.5302 L 5.17047,-75.0372 L 5.43701,-75.4988 L 5.79373,-75.895
 L 6.22501,-76.2084 L 6.71202,-76.4252 L 7.23346,-76.536 L 7.76654,-76.536 L 8.28798,-76.4252 L 8.77499,-76.2084
 L 9.20627,-75.895 L 9.56299,-75.4988 L 9.82953,-75.0372 L 9.99426,-74.5302 L 10.05,-74 L 10.05,-64.7024
 L 10.3919,-64.4804 L 10.7921,-64.1563 L 11.1563,-63.7921 L 11.4804,-63.3919 L 11.7608,-62.96 L 11.9946,-62.5011
 L 12.1792,-62.0204 L 12.3125,-61.5229 L 12.393,-61.0143 L 12.42,-60.5 L 12.393,-59.9857 L 12.3125,-59.4771
 L 12.1792,-58.9796 L 11.9946,-58.4989 L 11.7608,-58.04 L 11.4804,-57.6081 L 11.1563,-57.2079 L 10.7921,-56.8437
 L 10.3919,-56.5196 L 9.95999,-56.2392 L 9.50113,-56.0054 L 9.02036,-55.8208 L 8.52292,-55.6875 L 8.01427,-55.607
 L 7.5,-55.58 z
M 185.986,-55.607 L 185.477,-55.6875 L 184.98,-55.8208 L 184.499,-56.0054 L 184.04,-56.2392 L 183.608,-56.5196
 L 183.208,-56.8437 L 182.844,-57.2079 L 182.52,-57.6081 L 182.239,-58.04 L 182.005,-58.4989 L 181.821,-58.9796
 L 181.688,-59.4771 L 181.607,-59.9857 L 181.58,-60.5 L 181.607,-61.0143 L 181.688,-61.5229 L 181.821,-62.0204
 L 182.005,-62.5011 L 182.239,-62.96 L 182.52,-63.3919 L 182.844,-63.7921 L 183.208,-64.1563 L 183.608,-64.4804
 L 183.95,-64.7024 L 183.95,-74 L 184.006,-74.5302 L 184.17,-75.0372 L 184.437,-75.4988 L 184.794,-75.895
 L 185.225,-76.2084 L 185.712,-76.4252 L 186.233,-76.536 L 186.767,-76.536 L 187.288,-76.4252 L 187.775,-76.2084
 L 188.206,-75.895 L 188.563,-75.4988 L 188.83,-75.0372 L 188.994,-74.5302 L 189.05,-74 L 189.05,-64.7024
 L 189.392,-64.4804 L 189.792,-64.1563 L 190.156,-63.7921 L 190.48,-63.3919 L 190.761,-62.96 L 190.995,-62.5011
 L 191.179,-62.0204 L 191.312,-61.5229 L 191.393,-61.0143 L 191.42,-60.5 L 191.393,-59.9857 L 191.312,-59.4771
 L 191.179,-58.9796 L 190.995,-58.4989 L 190.761,-58.04 L 190.48,-57.6081 L 190.156,-57.2079 L 189.792,-56.8437
 L 189.392,-56.5196 L 188.96,-56.2392 L 188.501,-56.0054 L 188.02,-55.8208 L 187.523,-55.6875 L 187.014,-55.607
 L 186.5,-55.58 z
M 364.986,-55.607 L 364.477,-55.6875 L 363.98,-55.8208 L 363.499,-56.0054 L 363.04,-56.2392 L 362.608,-56.5196
 L 362.208,-56.8437 L 361.844,-57.2079 L 361.52,-57.6081 L 361.239,-58.04 L 361.005,-58.4989 L 360.821,-58.9796
 L 360.688,-59.4771 L 360.607,-59.9857 L 360.58,-60.5 L 360.607,-61.0143 L 360.688,-61.5229 L 360.821,-62.0204
 L 361.005,-62.5011 L 361.239,-62.96 L 361.52,-63.3919 L 361.844,-63.7921 L 362.208,-64.1563 L 362.608,-64.4804
 L 362.95,-64.7024 L 362.95,-74 L 363.006,-74.5302 L 363.17,-75.0372 L 363.437,-75.4988 L 363.794,-75.895
 L 364.225,-76.2084 L 364.712,-76.4252 L 365.233,-76.536 L 365.767,-76.536 L 366.288,-76.4252 L 366.775,-76.2084
 L 367.206,-75.895 L 367.563,-75.4988 L 367.83,-75.0372 L 367.994,-74.5302 L 368.05,-74 L 368.05,-64.7024
 L 368.392,-64.4804 L 368.792,-64.1563 L 369.156,-63.7921 L 369.48,-63.3919 L 369.761,-62.96 L 369.995,-62.5011
 L 370.179,-62.0204 L 370.312,-61.5229 L 370.393,-61.0143 L 370.42,-60.5 L 370.393,-59.9857 L 370.312,-59.4771
 L 370.179,-58.9796 L 369.995,-58.4989 L 369.761,-58.04 L 369.48,-57.6081 L 369.156,-57.2079 L 368.792,-56.8437
 L 368.392,-56.5196 L 367.96,-56.2392 L 367.501,-56.0054 L 367.02,-55.8208 L 366.523,-55.6875 L 366.014,-55.607
 L 365.5,-55.58 z
M 543.986,-55.607 L 543.477,-55.6875 L 542.98,-55.8208 L 542.499,-56.0054 L 542.04,-56.2392 L 541.608,-56.5196
 L 541.208,-56.8437 L 540.844,-57.2079 L 540.52,-57.6081 L 540.239,-58.04 L 540.005,-58.4989 L 539.821,-58.9796
 L 539.688,-59.4771 L 539.607,-59.9857 L 539.58,-60.5 L 539.607,-61.0143 L 539.688,-61.5229 L 539.821,-62.0204
 L 540.005,-62.5011 L 540.239,-62.96 L 540.52,-63.3919 L 540.844,-63.7921 L 541.208,-64.1563 L 541.608,-64.4804
 L 541.95,-64.7024 L 541.95,-74 L 542.006,-74.5302 L 542.17,-75.0372 L 542.437,-75.4988 L 542.794,-75.895
 L 543.225,-76.2084 L 543.712,-76.4252 L 544.233,-76.536 L 544.767,-76.536 L 545.288,-76.4252 L 545.775,-76.2084
 L 546.206,-75.895 L 546.563,-75.4988 L 546.83,-75.0372 L 546.994,-74.5302 L 547.05,-74 L 547.05,-64.7024
 L 547.392,-64.4804 L 547.792,-64.1563 L 548.156,-63.7921 L 548.48,-63.3919 L 548.761,-62.96 L 548.995,-62.5011
 L 549.179,-62.0204 L 549.312,-61.5229 L 549.393,-61.0143 L 549.42,-60.5 L 549.393,-59.9857 L 549.312,-59.4771
 L 549.179,-58.9796 L 548.995,-58.4989 L 548.761,-58.04 L 548.48,-57.6081 L 548.156,-57.2079 L 547.792,-56.8437
 L 547.392,-56.5196 L 546.96,-56.2392 L 546.501,-56.0054 L 546.02,-55.8208 L 545.523,-55.6875 L 545.014,-55.607
 L 544.5,-55.58 z
M 722.986,-55.607 L 722.477,-55.6875 L 721.98,-55.8208 L 721.499,-56.0054 L 721.04,-56.2392 L 720.608,-56.5196
 L 720.208,-56.8437 L 719.844,-57.2079 L 719.52,-57.6081 L 719.239,-58.04 L 719.005,-58.4989 L 718.821,-58.9796
 L 718.688,-59.4771 L 718.607,-59.9857 L 718.58,-60.5 L 718.607,-61.0143 L 718.688,-61.5229 L 718.821,-62.0204
 L 719.005,-62.5011 L 719.239,-62.96 L 719.52,-63.3919 L 719.844,-63.7921 L 720.208,-64.1563 L 720.608,-64.4804
 L 720.95,-64.7024 L 720.95,-74 L 721.006,-74.5302 L 721.17,-75.0372 L 721.437,-75.4988 L 721.794,-75.895
 L 722.225,-76.2084 L 722.712,-76.4252 L 723.233,-76.536 L 723.767,-76.536 L 724.288,-76.4252 L 724.775,-76.2084
 L 725.206,-75.895 L 725.563,-75.4988 L 725.83,-75.0372 L 725.994,-74.5302 L 726.05,-74 L 726.05,-64.7024
 L 726.392,-64.4804 L 726.792,-64.1563 L 727.156,-63.7921 L 727.48,-63.3919 L 727.761,-62.96 L 727.995,-62.5011
 L 728.179,-62.0204 L 728.312,-61.5229 L 728.393,-61.0143 L 728.42,-60.5 L 728.393,-59.9857 L 728.312,-59.4771
 L 728.179,-58.9796 L 727.995,-58.4989 L 727.761,-58.04 L 727.48,-57.6081 L 727.156,-57.2079 L 726.792,-56.8437
 L 726.392,-56.5196 L 725.96,-56.2392 L 725.501,-56.0054 L 725.02,-55.8208 L 724.523,-55.6875 L 724.014,-55.607
 L 723.5,-55.58 z
M 901.986,-55.607 L 901.477,-55.6875 L 900.98,-55.8208 L 900.499,-56.0054 L 900.04,-56.2392 L 899.608,-56.5196
 L 899.208,-56.8437 L 898.844,-57.2079 L 898.52,-57.6081 L 898.239,-58.04 L 898.005,-58.4989 L 897.821,-58.9796
 L 897.688,-59.4771 L 897.607,-59.9857 L 897.58,-60.5 L 897.607,-61.0143 L 897.688,-61.5229 L 897.821,-62.0204
 L 898.005,-62.5011 L 898.239,-62.96 L 898.52,-63.3919 L 898.844,-63.7921 L 899.208,-64.1563 L 899.608,-64.4804
 L 899.95,-64.7024 L 899.95,-74 L 900.006,-74.5302 L 900.17,-75.0372 L 900.437,-75.4988 L 900.794,-75.895
 L 901.225,-76.2084 L 901.712,-76.4252 L 902.233,-76.536 L 902.767,-76.536 L 903.288,-76.4252 L 903.775,-76.2084
 L 904.206,-75.895 L 904.563,-75.4988 L 904.83,-75.0372 L 904.994,-74.5302 L 905.05,-74 L 905.05,-64.7024
 L 905.392,-64.4804 L 905.792,-64.1563 L 906.156,-63.7921 L 906.48,-63.3919 L 906.761,-62.96 L 906.995,-62.5011
 L 907.179,-62.0204 L 907.312,-61.5229 L 907.393,-61.0143 L 907.42,-60.5 L 907.393,-59.9857 L 907.312,-59.4771
 L 907.179,-58.9796 L 906.995,-58.4989 L 906.761,-58.04 L 906.48,-57.6081 L 906.156,-57.2079 L 905.792,-56.8437
 L 905.392,-56.5196 L 904.96,-56.2392 L 904.501,-56.0054 L 904.02,-55.8208 L 903.523,-55.6875 L 903.014,-55.607
 L 902.5,-55.58 z
M 1080.99,-55.607 L 1080.48,-55.6875 L 1079.98,-55.8208 L 1079.5,-56.0054 L 1079.04,-56.2392 L 1078.61,-56.5196
 L 1078.21,-56.8437 L 1077.84,-57.2079 L 1077.52,-57.6081 L 1077.24,-58.04 L 1077.01,-58.4989 L 1076.82,-58.9796
 L 1076.69,-59.4771 L 1076.61,-59.9857 L 1076.58,-60.5 L 1076.61,-61.0143 L 1076.69,-61.5229 L 1076.82,-62.0204
 L 1077.01,-62.5011 L 1077.24,-62.96 L 1077.52,-63.3919 L 1077.84,-63.7921 L 1078.21,-64.1563 L 1078.61,-64.4804
 L 1078.95,-64.7024 L 1078.95,-74 L 1079.01,-74.5302 L 1079.17,-75.0372 L 1079.44,-75.4988 L 1079.79,-75.895
 L 1080.23,-76.2084 L 1080.71,-76.4252 L 1081.23,-76.536 L 1081.77,-76.536 L 1082.29,-76.4252 L 1082.77,-76.2084
 L 1083.21,-75.895 L 1083.56,-75.4988 L 1083.83,-75.0372 L 1083.99,-74.5302 L 1084.05,-74 L 1084.05,-64.7024
 L 1084.39,-64.4804 L 1084.79,-64.1563 L 1085.16,-63.7921 L 1085.48,-63.3919 L 1085.76,-62.96 L 1085.99,-62.5011
 L 1086.18,-62.0204 L 1086.31,-61.5229 L 1086.39,-61.0143 L 1086.42,-60.5 L 1086.39,-59.9857 L 1086.31,-59.4771
 L 1086.18,-58.9796 L 1085.99,-58.4989 L 1085.76,-58.04 L 1085.48,-57.6081 L 1085.16,-57.2079 L 1084.79,-56.8437
 L 1084.39,-56.5196 L 1083.96,-56.2392 L 1083.5,-56.0054 L 1083.02,-55.8208 L 1082.52,-55.6875 L 1082.01,-55.607
 L 1081.5,-55.58 z
M 1259.99,-55.607 L 1259.48,-55.6875 L 1258.98,-55.8208 L 1258.5,-56.0054 L 1258.04,-56.2392 L 1257.61,-56.5196
 L 1257.21,-56.8437 L 1256.84,-57.2079 L 1256.52,-57.6081 L 1256.24,-58.04 L 1256.01,-58.4989 L 1255.82,-58.9796
 L 1255.69,-59.4771 L 1255.61,-59.9857 L 1255.58,-60.5 L 1255.61,-61.0143 L 1255.69,-61.5229 L 1255.82,-62.0204
 L 1256.01,-62.5011 L 1256.24,-62.96 L 1256.52,-63.3919 L 1256.84,-63.7921 L 1257.21,-64.1563 L 1257.61,-64.4804
 L 1257.95,-64.7024 L 1257.95,-74 L 1258.01,-74.5302 L 1258.17,-75.0372 L 1258.44,-75.4988 L 1258.79,-75.895
 L 1259.23,-76.2084 L 1259.71,-76.4252 L 1260.23,-76.536 L 1260.77,-76.536 L 1261.29,-76.4252 L 1261.77,-76.2084
 L 1262.21,-75.895 L 1262.56,-75.4988 L 1262.83,-75.0372 L 1262.99,-74.5302 L 1263.05,-74 L 1263.05,-64.7024
 L 1263.39,-64.4804 L 1263.79,-64.1563 L 1264.16,-63.7921 L 1264.48,-63.3919 L 1264.76,-62.96 L 1264.99,-62.5011
 L 1265.18,-62.0204 L 1265.31,-61.5229 L 1265.39,-61.0143 L 1265.42,-60.5 L 1265.39,-59.9857 L 1265.31,-59.4771
 L 1265.18,-58.9796 L 1264.99,-58.4989 L 1264.76,-58.04 L 1264.48,-57.6081 L 1264.16,-57.2079 L 1263.79,-56.8437
 L 1263.39,-56.5196 L 1262.96,-56.2392 L 1262.5,-56.0054 L 1262.02,-55.8208 L 1261.52,-55.6875 L 1261.01,-55.607
 L 1260.5,-55.58 z
M 735.451,-20.9683 L 734.672,-21.2707 L 733.972,-21.7285 L 733.383,-22.3219 L 732.93,-23.0248 L 732.633,-23.8065
 L 732.5,-24.8284 L 732.5,-58 L 732.587,-58.8316 L 732.846,-59.627 L 733.264,-60.3511 L 733.823,-60.9726
 L 734.5,-61.4641 L 735.264,-61.8042 L 736.5,-62 L 823.819,-62 L 824.651,-61.9126 L 825.446,-61.6542
 L 826.171,-61.2361 L 826.792,-60.6765 L 827.284,-60 L 827.624,-59.2361 L 827.798,-58.4181 L 827.798,-57.5819
 L 827.624,-56.7639 L 827.284,-56 L 826.792,-55.3235 L 826.171,-54.7639 L 825.24,-54.2607 L 737.921,-21.0891
 L 737.112,-20.8755 L 736.277,-20.8346 z
M 633.388,-47.8 L 632.579,-48.0137 L 616.135,-54.2607 L 615.204,-54.7639 L 614.583,-55.3235 L 614.091,-56
 L 613.751,-56.7639 L 613.577,-57.5819 L 613.577,-58.4181 L 613.751,-59.2361 L 614.091,-60 L 614.583,-60.6765
 L 615.204,-61.2361 L 615.929,-61.6542 L 616.724,-61.9126 L 617.555,-62 L 650.444,-62 L 651.493,-61.8601
 L 652.273,-61.5577 L 652.973,-61.0998 L 653.562,-60.5065 L 654.015,-59.8036 L 654.312,-59.0219 L 654.44,-58.1955
 L 654.393,-57.3605 L 654.174,-56.5536 L 653.792,-55.8098 L 653.263,-55.1618 L 652.611,-54.6378 L 651.865,-54.2607
 L 635.42,-48.0137 L 634.223,-47.7592 z
M 530.888,-20.8755 L 530.079,-21.0891 L 442.76,-54.2607 L 441.829,-54.7639 L 441.208,-55.3235 L 440.716,-56
 L 440.376,-56.7639 L 440.202,-57.5819 L 440.202,-58.4181 L 440.376,-59.2361 L 440.716,-60 L 441.208,-60.6765
 L 441.829,-61.2361 L 442.554,-61.6542 L 443.349,-61.9126 L 444.181,-62 L 531.5,-62 L 532.736,-61.8042
 L 533.5,-61.4641 L 534.177,-60.9726 L 534.736,-60.3511 L 535.154,-59.627 L 535.413,-58.8316 L 535.5,-58
 L 535.5,-24.8284 L 535.367,-23.8065 L 535.07,-23.0248 L 534.617,-22.3219 L 534.028,-21.7285 L 533.328,-21.2707
 L 532.549,-20.9683 L 531.723,-20.8346 z
M 351.888,-20.8755 L 351.079,-21.0891 L 263.76,-54.2607 L 262.829,-54.7639 L 262.208,-55.3235 L 261.716,-56
 L 261.376,-56.7639 L 261.202,-57.5819 L 261.202,-58.4181 L 261.376,-59.2361 L 261.716,-60 L 262.208,-60.6765
 L 262.829,-61.2361 L 263.554,-61.6542 L 264.349,-61.9126 L 265.181,-62 L 352.5,-62 L 353.736,-61.8042
 L 354.5,-61.4641 L 355.177,-60.9726 L 355.736,-60.3511 L 356.154,-59.627 L 356.413,-58.8316 L 356.5,-58
 L 356.5,-24.8284 L 356.367,-23.8065 L 356.07,-23.0248 L 355.617,-22.3219 L 355.028,-21.7285 L 354.328,-21.2707
 L 353.549,-20.9683 L 352.723,-20.8346 z
M 1093.45,-20.9683 L 1092.67,-21.2707 L 1091.97,-21.7285 L 1091.38,-22.3219 L 1090.93,-23.0248 L 1090.63,-23.8065
 L 1090.5,-24.8284 L 1090.5,-58 L 1090.59,-58.8316 L 1090.85,-59.627 L 1091.26,-60.3511 L 1091.82,-60.9726
 L 1092.5,-61.4641 L 1093.26,-61.8042 L 1094.5,-62 L 1181.82,-62 L 1182.65,-61.9126 L 1183.45,-61.6542
 L 1184.17,-61.2361 L 1184.79,-60.6765 L 1185.28,-60 L 1185.62,-59.2361 L 1185.8,-58.4181 L 1185.8,-57.5819
 L 1185.62,-56.7639 L 1185.28,-56 L 1184.79,-55.3235 L 1184.17,-54.7639 L 1183.24,-54.2607 L 1095.92,-21.0891
 L 1095.11,-20.8755 L 1094.28,-20.8346 z
M 172.888,-20.8755 L 172.079,-21.0891 L 84.76,-54.2607 L 83.8294,-54.7639 L 83.208,-55.3235 L 82.7164,-56
 L 82.3763,-56.7639 L 82.2025,-57.5819 L 82.2025,-58.4181 L 82.3763,-59.2361 L 82.7164,-60 L 83.208,-60.6765
 L 83.8294,-61.2361 L 84.5536,-61.6542 L 85.3489,-61.9126 L 86.1805,-62 L 173.5,-62 L 174.736,-61.8042
 L 175.5,-61.4641 L 176.177,-60.9726 L 176.736,-60.3511 L 177.154,-59.627 L 177.413,-58.8316 L 177.5,-58
 L 177.5,-24.8284 L 177.367,-23.8065 L 177.07,-23.0248 L 176.617,-22.3219 L 176.028,-21.7285 L 175.328,-21.2707
 L 174.549,-20.9683 L 173.723,-20.8346 z
M 914.451,-20.9683 L 913.672,-21.2707 L 912.972,-21.7285 L 912.383,-22.3219 L 911.93,-23.0248 L 911.633,-23.8065
 L 911.5,-24.8284 L 911.5,-58 L 911.587,-58.8316 L 911.846,-59.627 L 912.264,-60.3511 L 912.823,-60.9726
 L 913.5,-61.4641 L 914.264,-61.8042 L 915.5,-62 L 1002.82,-62 L 1003.65,-61.9126 L 1004.45,-61.6542
 L 1005.17,-61.2361 L 1005.79,-60.6765 L 1006.28,-60 L 1006.62,-59.2361 L 1006.8,-58.4181 L 1006.8,-57.5819
 L 1006.62,-56.7639 L 1006.28,-56 L 1005.79,-55.3235 L 1005.17,-54.7639 L 1004.24,-54.2607 L 916.921,-21.0891
 L 916.112,-20.8755 L 915.277,-20.8346 z
M 557.082,-18.7134 L 556.264,-18.8873 L 555.5,-19.2274 L 554.823,-19.7189 L 554.264,-20.3403 L 553.846,-21.0645
 L 553.587,-21.8598 L 553.5,-22.6915 L 553.5,-57.3085 L 553.633,-58.3304 L 553.93,-59.1121 L 554.383,-59.815
 L 554.972,-60.4084 L 555.672,-60.8662 L 556.451,-61.1686 L 557.277,-61.3023 L 558.112,-61.2614 L 558.921,-61.0478
 L 604.483,-43.7393 L 604.89,-43.5577 L 605.59,-43.0998 L 606.179,-42.5065 L 606.632,-41.8036 L 606.929,-41.0219
 L 607.057,-40.1955 L 607.011,-39.3605 L 606.791,-38.5536 L 606.409,-37.8098 L 605.881,-37.1618 L 605.229,-36.6378
 L 604.483,-36.2607 L 558.921,-18.9522 L 557.918,-18.7134 z
M 709.888,-18.7386 L 709.079,-18.9522 L 663.517,-36.2607 L 663.11,-36.4423 L 662.41,-36.9002 L 661.821,-37.4935
 L 661.368,-38.1964 L 661.071,-38.9781 L 660.943,-39.8045 L 660.989,-40.6394 L 661.209,-41.4464 L 661.591,-42.1902
 L 662.119,-42.8382 L 662.771,-43.3622 L 663.517,-43.7393 L 709.079,-61.0478 L 710.082,-61.2866 L 710.918,-61.2866
 L 711.736,-61.1128 L 712.5,-60.7726 L 713.177,-60.2811 L 713.736,-59.6597 L 714.154,-58.9355 L 714.413,-58.1402
 L 714.5,-57.3085 L 714.5,-22.6915 L 714.367,-21.6696 L 714.07,-20.8879 L 713.617,-20.185 L 713.028,-19.5916
 L 712.328,-19.1338 L 711.549,-18.8314 L 710.723,-18.6977 z
M 199.5,-18 L 198.264,-18.1958 L 197.5,-18.5359 L 196.823,-19.0274 L 196.264,-19.6489 L 195.846,-20.373
 L 195.587,-21.1684 L 195.5,-22 L 195.5,-55.1716 L 195.633,-56.1935 L 195.93,-56.9752 L 196.383,-57.6781
 L 196.972,-58.2714 L 197.672,-58.7293 L 198.451,-59.0317 L 199.277,-59.1654 L 200.112,-59.1245 L 200.921,-58.9109
 L 288.24,-25.7393 L 289.171,-25.2361 L 289.792,-24.6765 L 290.284,-24 L 290.624,-23.2361 L 290.798,-22.4181
 L 290.798,-21.5819 L 290.624,-20.7639 L 290.284,-20 L 289.792,-19.3235 L 289.171,-18.7639 L 288.446,-18.3458
 L 287.651,-18.0874 L 286.819,-18 z
M 378.5,-18 L 377.264,-18.1958 L 376.5,-18.5359 L 375.823,-19.0274 L 375.264,-19.6489 L 374.846,-20.373
 L 374.587,-21.1684 L 374.5,-22 L 374.5,-55.1716 L 374.633,-56.1935 L 374.93,-56.9752 L 375.383,-57.6781
 L 375.972,-58.2714 L 376.672,-58.7293 L 377.451,-59.0317 L 378.277,-59.1654 L 379.112,-59.1245 L 379.921,-58.9109
 L 467.24,-25.7393 L 468.171,-25.2361 L 468.792,-24.6765 L 469.284,-24 L 469.624,-23.2361 L 469.798,-22.4181
 L 469.798,-21.5819 L 469.624,-20.7639 L 469.284,-20 L 468.792,-19.3235 L 468.171,-18.7639 L 467.446,-18.3458
 L 466.651,-18.0874 L 465.819,-18 z
M 802.181,-18 L 801.349,-18.0874 L 800.554,-18.3458 L 799.829,-18.7639 L 799.208,-19.3235 L 798.716,-20
 L 798.376,-20.7639 L 798.202,-21.5819 L 798.202,-22.4181 L 798.376,-23.2361 L 798.716,-24 L 799.208,-24.6765
 L 799.829,-25.2361 L 800.76,-25.7393 L 888.079,-58.9109 L 888.888,-59.1245 L 889.723,-59.1654 L 890.549,-59.0317
 L 891.328,-58.7293 L 892.028,-58.2714 L 892.617,-57.6781 L 893.07,-56.9752 L 893.367,-56.1935 L 893.5,-55.1716
 L 893.5,-22 L 893.413,-21.1684 L 893.154,-20.373 L 892.736,-19.6489 L 892.177,-19.0274 L 891.5,-18.5359
 L 890.736,-18.1958 L 889.5,-18 z
M 981.181,-18 L 980.349,-18.0874 L 979.554,-18.3458 L 978.829,-18.7639 L 978.208,-19.3235 L 977.716,-20
 L 977.376,-20.7639 L 977.202,-21.5819 L 977.202,-22.4181 L 977.376,-23.2361 L 977.716,-24 L 978.208,-24.6765
 L 978.829,-25.2361 L 979.76,-25.7393 L 1067.08,-58.9109 L 1067.89,-59.1245 L 1068.72,-59.1654 L 1069.55,-59.0317
 L 1070.33,-58.7293 L 1071.03,-58.2714 L 1071.62,-57.6781 L 1072.07,-56.9752 L 1072.37,-56.1935 L 1072.5,-55.1716
 L 1072.5,-22 L 1072.41,-21.1684 L 1072.15,-20.373 L 1071.74,-19.6489 L 1071.18,-19.0274 L 1070.5,-18.5359
 L 1069.74,-18.1958 L 1068.5,-18 z
M 22,-18 L 20.7639,-18.1958 L 20,-18.5359 L 19.3235,-19.0274 L 18.7639,-19.6489 L 18.3458,-20.373
 L 18.0874,-21.1684 L 18,-22 L 18,-54.6018 L 18.1327,-55.6237 L 18.4297,-56.4054 L 18.8827,-57.1083
 L 19.472,-57.7016 L 20.1717,-58.1595 L 20.9513,-58.4619 L 21.7768,-58.5956 L 22.612,-58.5547 L 23.4205,-58.3411
 L 109.24,-25.7393 L 110.171,-25.2361 L 110.792,-24.6765 L 111.284,-24 L 111.624,-23.2361 L 111.798,-22.4181
 L 111.798,-21.5819 L 111.624,-20.7639 L 111.284,-20 L 110.792,-19.3235 L 110.171,-18.7639 L 109.446,-18.3458
 L 108.651,-18.0874 L 107.819,-18 z
M 1160.18,-18 L 1159.35,-18.0874 L 1158.55,-18.3458 L 1157.83,-18.7639 L 1157.21,-19.3235 L 1156.72,-20
 L 1156.38,-20.7639 L 1156.2,-21.5819 L 1156.2,-22.4181 L 1156.38,-23.2361 L 1156.72,-24 L 1157.21,-24.6765
 L 1157.83,-25.2361 L 1158.76,-25.7393 L 1244.58,-58.3411 L 1245.39,-58.5547 L 1246.22,-58.5956 L 1247.05,-58.4619
 L 1247.83,-58.1595 L 1248.53,-57.7016 L 1249.12,-57.1083 L 1249.57,-56.4054 L 1249.87,-55.6237 L 1250,-54.6018
 L 1250,-22 L 1249.91,-21.1684 L 1249.65,-20.373 L 1249.24,-19.6489 L 1248.68,-19.0274 L 1248,-18.5359
 L 1247.24,-18.1958 L 1246,-18 z
M 617.555,-18 L 616.507,-18.1399 L 615.727,-18.4423 L 615.027,-18.9002 L 614.438,-19.4935 L 613.985,-20.1964
 L 613.688,-20.9781 L 613.56,-21.8045 L 613.607,-22.6395 L 613.826,-23.4464 L 614.208,-24.1902 L 614.737,-24.8382
 L 615.389,-25.3622 L 616.135,-25.7393 L 632.579,-31.9863 L 633.777,-32.2408 L 634.612,-32.2 L 635.42,-31.9863
 L 651.865,-25.7393 L 652.796,-25.2361 L 653.417,-24.6765 L 653.909,-24 L 654.249,-23.2361 L 654.423,-22.4181
 L 654.423,-21.5819 L 654.249,-20.7639 L 653.909,-20 L 653.417,-19.3235 L 652.796,-18.7639 L 652.071,-18.3458
 L 651.276,-18.0874 L 650.444,-18 z
" stroke="black" fill="lightgray" stroke-width="0.5"/>
</svg>
