<?xml version="1.0" standalone="no"?>
<!DOCTYPE svg PUBLIC "-//W3C//DTD SVG 1.1//EN" "http://www.w3.org/Graphics/SVG/1.1/DTD/svg11.dtd">
<svg width="1130mm" height="80mm" viewBox="0 -80 1130 80" xmlns="http://www.w3.org/2000/svg" version="1.1">
<title>OpenSCAD Model</title>
<path d="
M 1130,-80 L 0,-80 L 0,-0 L 4.95,-0 L 4.95,-6 L 5.00572,-6.53017
 L 5.17046,-7.03717 L 5.437,-7.49884 L 5.79372,-7.895 L 6.22499,-8.20836 L 6.71201,-8.42519 L 7.23344,-8.53603
 L 7.76654,-8.53603 L 8.28798,-8.42519 L 8.77499,-8.20836 L 9.20627,-7.895 L 9.56299,-7.49884 L 9.82953,-7.03717
 L 9.99426,-6.53017 L 10.05,-6 L 10.05,-0 L 190.783,-0 L 190.783,-6 L 190.839,-6.53017
 L 191.004,-7.03717 L 191.27,-7.49884 L 191.627,-7.895 L 192.058,-8.20836 L 192.545,-8.42519 L 193.067,-8.53603
 L 193.6,-8.53603 L 194.121,-8.42519 L 194.608,-8.20836 L 195.04,-7.895 L 195.396,-7.49884 L 195.663,-7.03717
 L 195.828,-6.53017 L 195.883,-6 L 195.883,-0 L 376.617,-0 L 376.617,-6 L 376.672,-6.53017
 L 376.837,-7.03717 L 377.104,-7.49884 L 377.46,-7.895 L 377.892,-8.20836 L 378.379,-8.42519 L 378.9,-8.53603
 L 379.433,-8.53603 L 379.955,-8.42519 L 380.442,-8.20836 L 380.873,-7.895 L 381.23,-7.49884 L 381.496,-7.03717
 L 381.661,-6.53017 L 381.717,-6 L 381.717,-0 L 562.45,-0 L 562.45,-6 L 562.506,-6.53017
 L 562.67,-7.03717 L 562.937,-7.49884 L 563.294,-7.895 L 563.725,-8.20836 L 564.212,-8.42519 L 564.733,-8.53603
 L 565.267,-8.53603 L 565.788,-8.42519 L 566.275,-8.20836 L 566.706,-7.895 L 567.063,-7.49884 L 567.33,-7.03717
 L 567.494,-6.53017 L 567.55,-6 L 567.55,-0 L 748.283,-0 L 748.283,-6 L 748.339,-6.53017
 L 748.504,-7.03717 L 748.77,-7.49884 L 749.127,-7.895 L 749.558,-8.20836 L 750.045,-8.42519 L 750.567,-8.53603
 L 751.1,-8.53603 L 751.621,-8.42519 L 752.108,-8.20836 L 752.54,-7.895 L 752.896,-7.49884 L 753.163,-7.03717
 L 753.328,-6.53017 L 753.383,-6 L 753.383,-0 L 934.117,-0 L 934.117,-6 L 934.172,-6.53017
 L 934.337,-7.03717 L 934.604,-7.49884 L 934.96,-7.895 L 935.392,-8.20836 L 935.879,-8.42519 L 936.4,-8.53603
 L 936.933,-8.53603 L 937.455,-8.42519 L 937.942,-8.20836 L 938.373,-7.895 L 938.73,-7.49884 L 938.996,-7.03717
 L 939.161,-6.53017 L 939.217,-6 L 939.217,-0 L 1119.95,-0 L 1119.95,-6 L 1120.01,-6.53017
 L 1120.17,-7.03717 L 1120.44,-7.49884 L 1120.79,-7.895 L 1121.22,-8.20836 L 1121.71,-8.42519 L 1122.23,-8.53603
 L 1122.77,-8.53603 L 1123.29,-8.42519 L 1123.77,-8.20836 L 1124.21,-7.895 L 1124.56,-7.49884 L 1124.83,-7.03717
 L 1124.99,-6.53017 L 1125.05,-6 L 1125.05,-0 L 1130,-0 z
M 6.98573,-55.607 L 6.47708,-55.6875 L 5.97964,-55.8208 L 5.49887,-56.0054 L 5.04001,-56.2392 L 4.60811,-56.5196
 L 4.20789,-56.8437 L 3.84373,-57.2079 L 3.51964,-57.6081 L 3.23917,-58.04 L 3.00537,-58.4989 L 2.82082,-58.9796
 L 2.68752,-59.4771 L 2.60696,-59.9857 L 2.58,-60.5 L 2.60696,-61.0143 L 2.68752,-61.5229 L 2.82082,-62.0204
 L 3.00537,-62.5011 L 3.23917,-62.96 L 3.51964,-63.3919 L 3.84373,-63.7921 L 4.20789,-64.1563 L 4.60811,-64.4804
 L 4.95001,-64.7024 L 4.95001,-74 L 5.00574,-74.5302 L 5.17047,-75.0372 L 5.43701,-75.4988 L 5.79373,-75.895
 L 6.22501,-76.2084 L 6.71202,-76.4252 L 7.23346,-76.536 L 7.76654,-76.536 L 8.28798,-76.4252 L 8.77499,-76.2084
 L 9.20627,-75.895 L 9.56299,-75.4988 L 9.82953,-75.0372 L 9.99426,-74.5302 L 10.05,-74 L 10.05,-64.7024
 L 10.3919,-64.4804 L 10.7921,-64.1563 L 11.1563,-63.7921 L 11.4804,-63.3919 L 11.7608,-62.96 L 11.9946,-62.5011
 L 12.1792,-62.0204 L 12.3125,-61.5229 L 12.393,-61.0143 L 12.42,-60.5 L 12.393,-59.9857 L 12.3125,-59.4771
 L 12.1792,-58.9796 L 11.9946,-58.4989 L 11.7608,-58.04 L 11.4804,-57.6081 L 11.1563,-57.2079 L 10.7921,-56.8437
 L 10.3919,-56.5196 L 9.95999,-56.2392 L 9.50113,-56.0054 L 9.02036,-55.8208 L 8.52292,-55.6875 L 8.01427,-55.607
 L 7.5,-55.58 z
M 192.819,-55.607 L 192.31,-55.6875 L 191.813,-55.8208 L 191.332,-56.0054 L 190.873,-56.2392 L 190.441,-56.5196
 L 190.041,-56.8437 L 189.677,-57.2079 L 189.353,-57.6081 L 189.072,-58.04 L 188.839,-58.4989 L 188.654,-58.9796
 L 188.521,-59.4771 L 188.44,-59.9857 L 188.413,-60.5 L 188.44,-61.0143 L 188.521,-61.5229 L 188.654,-62.0204
 L 188.839,-62.5011 L 189.072,-62.96 L 189.353,-63.3919 L 189.677,-63.7921 L 190.041,-64.1563 L 190.441,-64.4804
 L 190.783,-64.7024 L 190.783,-74 L 190.839,-74.5302 L 191.004,-75.0372 L 191.27,-75.4988 L 191.627,-75.895
 L 192.058,-76.2084 L 192.545,-76.4252 L 193.067,-76.536 L 193.6,-76.536 L 194.121,-76.4252 L 194.608,-76.2084
 L 195.04,-75.895 L 195.396,-75.4988 L 195.663,-75.0372 L 195.828,-74.5302 L 195.883,-74 L 195.883,-64.7024
 L 196.225,-64.4804 L 196.625,-64.1563 L 196.99,-63.7921 L 197.314,-63.3919 L 197.594,-62.96 L 197.828,-62.5011
 L 198.013,-62.0204 L 198.146,-61.5229 L 198.226,-61.0143 L 198.253,-60.5 L 198.226,-59.9857 L 198.146,-59.4771
 L 198.013,-58.9796 L 197.828,-58.4989 L 197.594,-58.04 L 197.314,-57.6081 L 196.99,-57.2079 L 196.625,-56.8437
 L 196.225,-56.5196 L 195.793,-56.2392 L 195.334,-56.0054 L 194.854,-55.8208 L 194.356,-55.6875 L 193.848,-55.607
 L 193.333,-55.58 z
M 378.652,-55.607 L 378.144,-55.6875 L 377.646,-55.8208 L 377.166,-56.0054 L 376.707,-56.2392 L 376.275,-56.5196
 L 375.875,-56.8437 L 375.51,-57.2079 L 375.186,-57.6081 L 374.906,-58.04 L 374.672,-58.4989 L 374.487,-58.9796
 L 374.354,-59.4771 L 374.274,-59.9857 L 374.247,-60.5 L 374.274,-61.0143 L 374.354,-61.5229 L 374.487,-62.0204
 L 374.672,-62.5011 L 374.906,-62.96 L 375.186,-63.3919 L 375.51,-63.7921 L 375.875,-64.1563 L 376.275,-64.4804
 L 376.617,-64.7024 L 376.617,-74 L 376.672,-74.5302 L 376.837,-75.0372 L 377.104,-75.4988 L 377.46,-75.895
 L 377.892,-76.2084 L 378.379,-76.4252 L 378.9,-76.536 L 379.433,-76.536 L 379.955,-76.4252 L 380.442,-76.2084
 L 380.873,-75.895 L 381.23,-75.4988 L 381.496,-75.0372 L 381.661,-74.5302 L 381.717,-74 L 381.717,-64.7024
 L 382.059,-64.4804 L 382.459,-64.1563 L 382.823,-63.7921 L 383.147,-63.3919 L 383.427,-62.96 L 383.661,-62.5011
 L 383.846,-62.0204 L 383.979,-61.5229 L 384.06,-61.0143 L 384.087,-60.5 L 384.06,-59.9857 L 383.979,-59.4771
 L 383.846,-58.9796 L 383.661,-58.4989 L 383.427,-58.04 L 383.147,-57.6081 L 382.823,-57.2079 L 382.459,-56.8437
 L 382.059,-56.5196 L 381.627,-56.2392 L 381.168,-56.0054 L 380.687,-55.8208 L 380.19,-55.6875 L 379.681,-55.607
 L 379.167,-55.58 z
M 564.486,-55.607 L 563.977,-55.6875 L 563.48,-55.8208 L 562.999,-56.0054 L 562.54,-56.2392 L 562.108,-56.5196
 L 561.708,-56.8437 L 561.344,-57.2079 L 561.02,-57.6081 L 560.739,-58.04 L 560.505,-58.4989 L 560.321,-58.9796
 L 560.188,-59.4771 L 560.107,-59.9857 L 560.08,-60.5 L 560.107,-61.0143 L 560.188,-61.5229 L 560.321,-62.0204
 L 560.505,-62.5011 L 560.739,-62.96 L 561.02,-63.3919 L 561.344,-63.7921 L 561.708,-64.1563 L 562.108,-64.4804
 L 562.45,-64.7024 L 562.45,-74 L 562.506,-74.5302 L 562.67,-75.0372 L 562.937,-75.4988 L 563.294,-75.895
 L 563.725,-76.2084 L 564.212,-76.4252 L 564.733,-76.536 L 565.267,-76.536 L 565.788,-76.4252 L 566.275,-76.2084
 L 566.706,-75.895 L 567.063,-75.4988 L 567.33,-75.0372 L 567.494,-74.5302 L 567.55,-74 L 567.55,-64.7024
 L 567.892,-64.4804 L 568.292,-64.1563 L 568.656,-63.7921 L 568.98,-63.3919 L 569.261,-62.96 L 569.495,-62.5011
 L 569.679,-62.0204 L 569.812,-61.5229 L 569.893,-61.0143 L 569.92,-60.5 L 569.893,-59.9857 L 569.812,-59.4771
 L 569.679,-58.9796 L 569.495,-58.4989 L 569.261,-58.04 L 568.98,-57.6081 L 568.656,-57.2079 L 568.292,-56.8437
 L 567.892,-56.5196 L 567.46,-56.2392 L 567.001,-56.0054 L 566.52,-55.8208 L 566.023,-55.6875 L 565.514,-55.607
 L 565,-55.58 z
M 750.319,-55.607 L 749.81,-55.6875 L 749.313,-55.8208 L 748.832,-56.0054 L 748.373,-56.2392 L 747.941,-56.5196
 L 747.541,-56.8437 L 747.177,-57.2079 L 746.853,-57.6081 L 746.572,-58.04 L 746.339,-58.4989 L 746.154,-58.9796
 L 746.021,-59.4771 L 745.94,-59.9857 L 745.913,-60.5 L 745.94,-61.0143 L 746.021,-61.5229 L 746.154,-62.0204
 L 746.339,-62.5011 L 746.572,-62.96 L 746.853,-63.3919 L 747.177,-63.7921 L 747.541,-64.1563 L 747.941,-64.4804
 L 748.283,-64.7024 L 748.283,-74 L 748.339,-74.5302 L 748.504,-75.0372 L 748.77,-75.4988 L 749.127,-75.895
 L 749.558,-76.2084 L 750.045,-76.4252 L 750.567,-76.536 L 751.1,-76.536 L 751.621,-76.4252 L 752.108,-76.2084
 L 752.54,-75.895 L 752.896,-75.4988 L 753.163,-75.0372 L 753.328,-74.5302 L 753.383,-74 L 753.383,-64.7024
 L 753.725,-64.4804 L 754.125,-64.1563 L 754.49,-63.7921 L 754.814,-63.3919 L 755.094,-62.96 L 755.328,-62.5011
 L 755.513,-62.0204 L 755.646,-61.5229 L 755.726,-61.0143 L 755.753,-60.5 L 755.726,-59.9857 L 755.646,-59.4771
 L 755.513,-58.9796 L 755.328,-58.4989 L 755.094,-58.04 L 754.814,-57.6081 L 754.49,-57.2079 L 754.125,-56.8437
 L 753.725,-56.5196 L 753.293,-56.2392 L 752.834,-56.0054 L 752.354,-55.8208 L 751.856,-55.6875 L 751.348,-55.607
 L 750.833,-55.58 z
M 936.152,-55.607 L 935.644,-55.6875 L 935.146,-55.8208 L 934.666,-56.0054 L 934.207,-56.2392 L 933.775,-56.5196
 L 933.375,-56.8437 L 933.01,-57.2079 L 932.686,-57.6081 L 932.406,-58.04 L 932.172,-58.4989 L 931.987,-58.9796
 L 931.854,-59.4771 L 931.774,-59.9857 L 931.747,-60.5 L 931.774,-61.0143 L 931.854,-61.5229 L 931.987,-62.0204
 L 932.172,-62.5011 L 932.406,-62.96 L 932.686,-63.3919 L 933.01,-63.7921 L 933.375,-64.1563 L 933.775,-64.4804
 L 934.117,-64.7024 L 934.117,-74 L 934.172,-74.5302 L 934.337,-75.0372 L 934.604,-75.4988 L 934.96,-75.895
 L 935.392,-76.2084 L 935.879,-76.4252 L 936.4,-76.536 L 936.933,-76.536 L 937.455,-76.4252 L 937.942,-76.2084
 L 938.373,-75.895 L 938.73,-75.4988 L 938.996,-75.0372 L 939.161,-74.5302 L 939.217,-74 L 939.217,-64.7024
 L 939.559,-64.4804 L 939.959,-64.1563 L 940.323,-63.7921 L 940.647,-63.3919 L 940.927,-62.96 L 941.161,-62.5011
 L 941.346,-62.0204 L 941.479,-61.5229 L 941.56,-61.0143 L 941.587,-60.5 L 941.56,-59.9857 L 941.479,-59.4771
 L 941.346,-58.9796 L 941.161,-58.4989 L 940.927,-58.04 L 940.647,-57.6081 L 940.323,-57.2079 L 939.959,-56.8437
 L 939.559,-56.5196 L 939.127,-56.2392 L 938.668,-56.0054 L 938.187,-55.8208 L 937.69,-55.6875 L 937.181,-55.607
 L 936.667,-55.58 z
M 1121.99,-55.607 L 1121.48,-55.6875 L 1120.98,-55.8208 L 1120.5,-56.0054 L 1120.04,-56.2392 L 1119.61,-56.5196
 L 1119.21,-56.8437 L 1118.84,-57.2079 L 1118.52,-57.6081 L 1118.24,-58.04 L 1118.01,-58.4989 L 1117.82,-58.9796
 L 1117.69,-59.4771 L 1117.61,-59.9857 L 1117.58,-60.5 L 1117.61,-61.0143 L 1117.69,-61.5229 L 1117.82,-62.0204
 L 1118.01,-62.5011 L 1118.24,-62.96 L 1118.52,-63.3919 L 1118.84,-63.7921 L 1119.21,-64.1563 L 1119.61,-64.4804
 L 1119.95,-64.7024 L 1119.95,-74 L 1120.01,-74.5302 L 1120.17,-75.0372 L 1120.44,-75.4988 L 1120.79,-75.895
 L 1121.23,-76.2084 L 1121.71,-76.4252 L 1122.23,-76.536 L 1122.77,-76.536 L 1123.29,-76.4252 L 1123.77,-76.2084
 L 1124.21,-75.895 L 1124.56,-75.4988 L 1124.83,-75.0372 L 1124.99,-74.5302 L 1125.05,-74 L 1125.05,-64.7024
 L 1125.39,-64.4804 L 1125.79,-64.1563 L 1126.16,-63.7921 L 1126.48,-63.3919 L 1126.76,-62.96 L 1126.99,-62.5011
 L 1127.18,-62.0204 L 1127.31,-61.5229 L 1127.39,-61.0143 L 1127.42,-60.5 L 1127.39,-59.9857 L 1127.31,-59.4771
 L 1127.18,-58.9796 L 1126.99,-58.4989 L 1126.76,-58.04 L 1126.48,-57.6081 L 1126.16,-57.2079 L 1125.79,-56.8437
 L 1125.39,-56.5196 L 1124.96,-56.2392 L 1124.5,-56.0054 L 1124.02,-55.8208 L 1123.52,-55.6875 L 1123.01,-55.607
 L 1122.5,-55.58 z
M 948.571,-20.7437 L 947.795,-21.0556 L 947.101,-21.5221 L 946.519,-22.1226 L 946.075,-22.831 L 945.787,-23.6163
 L 945.667,-24.5907 L 945.667,-58 L 945.754,-58.8316 L 946.012,-59.627 L 946.431,-60.3511 L 946.99,-60.9726
 L 947.667,-61.4641 L 948.431,-61.8042 L 949.667,-62 L 1040.97,-62 L 1041.8,-61.9126 L 1042.6,-61.6542
 L 1043.32,-61.2361 L 1043.94,-60.6765 L 1044.43,-60 L 1044.77,-59.2361 L 1044.95,-58.4181 L 1044.95,-57.5819
 L 1044.77,-56.7639 L 1044.43,-56 L 1043.94,-55.3235 L 1043.32,-54.7639 L 1042.34,-54.2436 L 951.041,-20.8342
 L 950.23,-20.6305 L 949.395,-20.5999 z
M 365.603,-20.6305 L 364.792,-20.8342 L 273.49,-54.2436 L 272.513,-54.7639 L 271.892,-55.3235 L 271.4,-56
 L 271.06,-56.7639 L 270.886,-57.5819 L 270.886,-58.4181 L 271.06,-59.2361 L 271.4,-60 L 271.892,-60.6765
 L 272.513,-61.2361 L 273.237,-61.6542 L 274.033,-61.9126 L 274.864,-62 L 366.167,-62 L 367.403,-61.8042
 L 368.167,-61.4641 L 368.843,-60.9726 L 369.403,-60.3511 L 369.821,-59.627 L 370.079,-58.8316 L 370.167,-58
 L 370.167,-24.5907 L 370.046,-23.6163 L 369.759,-22.831 L 369.314,-22.1226 L 368.733,-21.5221 L 368.038,-21.0556
 L 367.263,-20.7437 L 366.439,-20.5999 z
M 179.77,-20.6305 L 178.959,-20.8342 L 87.6563,-54.2436 L 86.6797,-54.7639 L 86.0582,-55.3235 L 85.5667,-56
 L 85.2266,-56.7639 L 85.0527,-57.5819 L 85.0527,-58.4181 L 85.2266,-59.2361 L 85.5667,-60 L 86.0582,-60.6765
 L 86.6797,-61.2361 L 87.4039,-61.6542 L 88.1992,-61.9126 L 89.0308,-62 L 180.333,-62 L 181.569,-61.8042
 L 182.333,-61.4641 L 183.01,-60.9726 L 183.569,-60.3511 L 183.988,-59.627 L 184.246,-58.8316 L 184.333,-58
 L 184.333,-24.5907 L 184.213,-23.6163 L 183.925,-22.831 L 183.481,-22.1226 L 182.899,-21.5221 L 182.205,-21.0556
 L 181.429,-20.7437 L 180.605,-20.5999 z
M 551.436,-20.6305 L 550.625,-20.8342 L 459.323,-54.2436 L 458.346,-54.7639 L 457.725,-55.3235 L 457.233,-56
 L 456.893,-56.7639 L 456.719,-57.5819 L 456.719,-58.4181 L 456.893,-59.2361 L 457.233,-60 L 457.725,-60.6765
 L 458.346,-61.2361 L 459.071,-61.6542 L 459.866,-61.9126 L 460.697,-62 L 552,-62 L 553.236,-61.8042
 L 554,-61.4641 L 554.677,-60.9726 L 555.236,-60.3511 L 555.654,-59.627 L 555.913,-58.8316 L 556,-58
 L 556,-24.5907 L 555.88,-23.6163 L 555.592,-22.831 L 555.148,-22.1226 L 554.566,-21.5221 L 553.872,-21.0556
 L 553.096,-20.7437 L 552.272,-20.5999 z
M 576.904,-20.7437 L 576.128,-21.0556 L 575.434,-21.5221 L 574.852,-22.1226 L 574.408,-22.831 L 574.12,-23.6163
 L 574,-24.5907 L 574,-58 L 574.087,-58.8316 L 574.346,-59.627 L 574.764,-60.3511 L 575.323,-60.9726
 L 576,-61.4641 L 576.764,-61.8042 L 578,-62 L 669.303,-62 L 670.134,-61.9126 L 670.929,-61.6542
 L 671.654,-61.2361 L 672.275,-60.6765 L 672.767,-60 L 673.107,-59.2361 L 673.281,-58.4181 L 673.281,-57.5819
 L 673.107,-56.7639 L 672.767,-56 L 672.275,-55.3235 L 671.654,-54.7639 L 670.677,-54.2436 L 579.375,-20.8342
 L 578.564,-20.6305 L 577.728,-20.5999 z
M 762.737,-20.7437 L 761.962,-21.0556 L 761.267,-21.5221 L 760.686,-22.1226 L 760.241,-22.831 L 759.954,-23.6163
 L 759.833,-24.5907 L 759.833,-58 L 759.921,-58.8316 L 760.179,-59.627 L 760.597,-60.3511 L 761.157,-60.9726
 L 761.833,-61.4641 L 762.597,-61.8042 L 763.833,-62 L 855.136,-62 L 855.967,-61.9126 L 856.763,-61.6542
 L 857.487,-61.2361 L 858.108,-60.6765 L 858.6,-60 L 858.94,-59.2361 L 859.114,-58.4181 L 859.114,-57.5819
 L 858.94,-56.7639 L 858.6,-56 L 858.108,-55.3235 L 857.487,-54.7639 L 856.51,-54.2436 L 765.208,-20.8342
 L 764.397,-20.6305 L 763.561,-20.5999 z
M 206.333,-18 L 205.097,-18.1958 L 204.333,-18.5359 L 203.657,-19.0274 L 203.097,-19.6489 L 202.679,-20.373
 L 202.421,-21.1684 L 202.333,-22 L 202.333,-55.4093 L 202.454,-56.3837 L 202.741,-57.169 L 203.186,-57.8774
 L 203.767,-58.4779 L 204.462,-58.9444 L 205.237,-59.2563 L 206.061,-59.4001 L 206.897,-59.3694 L 207.708,-59.1657
 L 299.01,-25.7564 L 299.987,-25.2361 L 300.608,-24.6765 L 301.1,-24 L 301.44,-23.2361 L 301.614,-22.4181
 L 301.614,-21.5819 L 301.44,-20.7639 L 301.1,-20 L 300.608,-19.3235 L 299.987,-18.7639 L 299.263,-18.3458
 L 298.467,-18.0874 L 297.636,-18 z
M 392.167,-18 L 390.931,-18.1958 L 390.167,-18.5359 L 389.49,-19.0274 L 388.931,-19.6489 L 388.512,-20.373
 L 388.254,-21.1684 L 388.167,-22 L 388.167,-55.4093 L 388.287,-56.3837 L 388.575,-57.169 L 389.019,-57.8774
 L 389.601,-58.4779 L 390.295,-58.9444 L 391.071,-59.2563 L 391.895,-59.4001 L 392.73,-59.3694 L 393.541,-59.1657
 L 484.844,-25.7564 L 485.82,-25.2361 L 486.442,-24.6765 L 486.933,-24 L 487.273,-23.2361 L 487.447,-22.4181
 L 487.447,-21.5819 L 487.273,-20.7639 L 486.933,-20 L 486.442,-19.3235 L 485.82,-18.7639 L 485.096,-18.3458
 L 484.301,-18.0874 L 483.469,-18 z
M 646.531,-18 L 645.699,-18.0874 L 644.904,-18.3458 L 644.18,-18.7639 L 643.558,-19.3235 L 643.067,-20
 L 642.727,-20.7639 L 642.553,-21.5819 L 642.553,-22.4181 L 642.727,-23.2361 L 643.067,-24 L 643.558,-24.6765
 L 644.18,-25.2361 L 645.156,-25.7564 L 736.459,-59.1657 L 737.27,-59.3694 L 738.105,-59.4001 L 738.929,-59.2563
 L 739.705,-58.9444 L 740.399,-58.4779 L 740.981,-57.8774 L 741.425,-57.169 L 741.713,-56.3837 L 741.833,-55.4093
 L 741.833,-22 L 741.746,-21.1684 L 741.488,-20.373 L 741.069,-19.6489 L 740.51,-19.0274 L 739.833,-18.5359
 L 739.069,-18.1958 L 737.833,-18 z
M 832.364,-18 L 831.533,-18.0874 L 830.737,-18.3458 L 830.013,-18.7639 L 829.392,-19.3235 L 828.9,-20
 L 828.56,-20.7639 L 828.386,-21.5819 L 828.386,-22.4181 L 828.56,-23.2361 L 828.9,-24 L 829.392,-24.6765
 L 830.013,-25.2361 L 830.99,-25.7564 L 922.292,-59.1657 L 923.103,-59.3694 L 923.939,-59.4001 L 924.763,-59.2563
 L 925.538,-58.9444 L 926.233,-58.4779 L 926.814,-57.8774 L 927.259,-57.169 L 927.546,-56.3837 L 927.667,-55.4093
 L 927.667,-22 L 927.579,-21.1684 L 927.321,-20.373 L 926.903,-19.6489 L 926.343,-19.0274 L 925.667,-18.5359
 L 924.903,-18.1958 L 923.667,-18 z
M 1018.2,-18 L 1017.37,-18.0874 L 1016.57,-18.3458 L 1015.85,-18.7639 L 1015.22,-19.3235 L 1014.73,-20
 L 1014.39,-20.7639 L 1014.22,-21.5819 L 1014.22,-22.4181 L 1014.39,-23.2361 L 1014.73,-24 L 1015.22,-24.6765
 L 1015.85,-25.2361 L 1016.82,-25.7564 L 1106.63,-58.6169 L 1107.44,-58.8206 L 1108.27,-58.8512 L 1109.1,-58.7074
 L 1109.87,-58.3955 L 1110.57,-57.929 L 1111.15,-57.3285 L 1111.59,-56.6201 L 1111.88,-55.8348 L 1112,-54.8605
 L 1112,-22 L 1111.91,-21.1684 L 1111.65,-20.373 L 1111.24,-19.6489 L 1110.68,-19.0274 L 1110,-18.5359
 L 1109.24,-18.1958 L 1108,-18 z
M 22,-18 L 20.7639,-18.1958 L 20,-18.5359 L 19.3235,-19.0274 L 18.7639,-19.6489 L 18.3458,-20.373
 L 18.0874,-21.1684 L 18,-22 L 18,-54.8605 L 18.1205,-55.8348 L 18.4079,-56.6201 L 18.8522,-57.3285
 L 19.4341,-57.929 L 20.1282,-58.3955 L 20.9041,-58.7074 L 21.7278,-58.8512 L 22.5635,-58.8206 L 23.3745,-58.6169
 L 113.177,-25.7564 L 114.154,-25.2361 L 114.775,-24.6765 L 115.267,-24 L 115.607,-23.2361 L 115.781,-22.4181
 L 115.781,-21.5819 L 115.607,-20.7639 L 115.267,-20 L 114.775,-19.3235 L 114.154,-18.7639 L 113.429,-18.3458
 L 112.634,-18.0874 L 111.802,-18 z
" stroke="black" fill="lightgray" stroke-width="0.5"/>
</svg>
