<?xml version="1.0" standalone="no"?>
<!DOCTYPE svg PUBLIC "-//W3C//DTD SVG 1.1//EN" "http://www.w3.org/Graphics/SVG/1.1/DTD/svg11.dtd">
<svg width="1141mm" height="80mm" viewBox="0 -80 1141 80" xmlns="http://www.w3.org/2000/svg" version="1.1">
<title>OpenSCAD Model</title>
<path d="
M 1141,-80 L 0,-80 L 0,-0 L 4.95,-0 L 4.95,-6 L 5.00572,-6.53017
 L 5.17046,-7.03717 L 5.437,-7.49884 L 5.79372,-7.895 L 6.22499,-8.20836 L 6.71201,-8.42519 L 7.23344,-8.53603
 L 7.76654,-8.53603 L 8.28798,-8.42519 L 8.77499,-8.20836 L 9.20627,-7.895 L 9.56299,-7.49884 L 9.82953,-7.03717
 L 9.99426,-6.53017 L 10.05,-6 L 10.05,-0 L 192.617,-0 L 192.617,-6 L 192.672,-6.53017
 L 192.837,-7.03717 L 193.104,-7.49884 L 193.46,-7.895 L 193.892,-8.20836 L 194.379,-8.42519 L 194.9,-8.53603
 L 195.433,-8.53603 L 195.955,-8.42519 L 196.442,-8.20836 L 196.873,-7.895 L 197.23,-7.49884 L 197.496,-7.03717
 L 197.661,-6.53017 L 197.717,-6 L 197.717,-0 L 380.283,-0 L 380.283,-6 L 380.339,-6.53017
 L 380.504,-7.03717 L 380.77,-7.49884 L 381.127,-7.895 L 381.558,-8.20836 L 382.045,-8.42519 L 382.567,-8.53603
 L 383.1,-8.53603 L 383.621,-8.42519 L 384.108,-8.20836 L 384.54,-7.895 L 384.896,-7.49884 L 385.163,-7.03717
 L 385.328,-6.53017 L 385.383,-6 L 385.383,-0 L 567.95,-0 L 567.95,-6 L 568.006,-6.53017
 L 568.17,-7.03717 L 568.437,-7.49884 L 568.794,-7.895 L 569.225,-8.20836 L 569.712,-8.42519 L 570.233,-8.53603
 L 570.767,-8.53603 L 571.288,-8.42519 L 571.775,-8.20836 L 572.206,-7.895 L 572.563,-7.49884 L 572.83,-7.03717
 L 572.994,-6.53017 L 573.05,-6 L 573.05,-0 L 755.617,-0 L 755.617,-6 L 755.672,-6.53017
 L 755.837,-7.03717 L 756.104,-7.49884 L 756.46,-7.895 L 756.892,-8.20836 L 757.379,-8.42519 L 757.9,-8.53603
 L 758.433,-8.53603 L 758.955,-8.42519 L 759.442,-8.20836 L 759.873,-7.895 L 760.23,-7.49884 L 760.496,-7.03717
 L 760.661,-6.53017 L 760.717,-6 L 760.717,-0 L 943.283,-0 L 943.283,-6 L 943.339,-6.53017
 L 943.504,-7.03717 L 943.77,-7.49884 L 944.127,-7.895 L 944.558,-8.20836 L 945.045,-8.42519 L 945.567,-8.53603
 L 946.1,-8.53603 L 946.621,-8.42519 L 947.108,-8.20836 L 947.54,-7.895 L 947.896,-7.49884 L 948.163,-7.03717
 L 948.328,-6.53017 L 948.383,-6 L 948.383,-0 L 1130.95,-0 L 1130.95,-6 L 1131.01,-6.53017
 L 1131.17,-7.03717 L 1131.44,-7.49884 L 1131.79,-7.895 L 1132.22,-8.20836 L 1132.71,-8.42519 L 1133.23,-8.53603
 L 1133.77,-8.53603 L 1134.29,-8.42519 L 1134.77,-8.20836 L 1135.21,-7.895 L 1135.56,-7.49884 L 1135.83,-7.03717
 L 1135.99,-6.53017 L 1136.05,-6 L 1136.05,-0 L 1141,-0 z
M 6.98573,-55.607 L 6.47708,-55.6875 L 5.97964,-55.8208 L 5.49887,-56.0054 L 5.04001,-56.2392 L 4.60811,-56.5196
 L 4.20789,-56.8437 L 3.84373,-57.2079 L 3.51964,-57.6081 L 3.23917,-58.04 L 3.00537,-58.4989 L 2.82082,-58.9796
 L 2.68752,-59.4771 L 2.60696,-59.9857 L 2.58,-60.5 L 2.60696,-61.0143 L 2.68752,-61.5229 L 2.82082,-62.0204
 L 3.00537,-62.5011 L 3.23917,-62.96 L 3.51964,-63.3919 L 3.84373,-63.7921 L 4.20789,-64.1563 L 4.60811,-64.4804
 L 4.95001,-64.7024 L 4.95001,-74 L 5.00574,-74.5302 L 5.17047,-75.0372 L 5.43701,-75.4988 L 5.79373,-75.895
 L 6.22501,-76.2084 L 6.71202,-76.4252 L 7.23346,-76.536 L 7.76654,-76.536 L 8.28798,-76.4252 L 8.77499,-76.2084
 L 9.20627,-75.895 L 9.56299,-75.4988 L 9.82953,-75.0372 L 9.99426,-74.5302 L 10.05,-74 L 10.05,-64.7024
 L 10.3919,-64.4804 L 10.7921,-64.1563 L 11.1563,-63.7921 L 11.4804,-63.3919 L 11.7608,-62.96 L 11.9946,-62.5011
 L 12.1792,-62.0204 L 12.3125,-61.5229 L 12.393,-61.0143 L 12.42,-60.5 L 12.393,-59.9857 L 12.3125,-59.4771
 L 12.1792,-58.9796 L 11.9946,-58.4989 L 11.7608,-58.04 L 11.4804,-57.6081 L 11.1563,-57.2079 L 10.7921,-56.8437
 L 10.3919,-56.5196 L 9.95999,-56.2392 L 9.50113,-56.0054 L 9.02036,-55.8208 L 8.52292,-55.6875 L 8.01427,-55.607
 L 7.5,-55.58 z
M 194.652,-55.607 L 194.144,-55.6875 L 193.646,-55.8208 L 193.166,-56.0054 L 192.707,-56.2392 L 192.275,-56.5196
 L 191.875,-56.8437 L 191.51,-57.2079 L 191.186,-57.6081 L 190.906,-58.04 L 190.672,-58.4989 L 190.487,-58.9796
 L 190.354,-59.4771 L 190.274,-59.9857 L 190.247,-60.5 L 190.274,-61.0143 L 190.354,-61.5229 L 190.487,-62.0204
 L 190.672,-62.5011 L 190.906,-62.96 L 191.186,-63.3919 L 191.51,-63.7921 L 191.875,-64.1563 L 192.275,-64.4804
 L 192.617,-64.7024 L 192.617,-74 L 192.672,-74.5302 L 192.837,-75.0372 L 193.104,-75.4988 L 193.46,-75.895
 L 193.892,-76.2084 L 194.379,-76.4252 L 194.9,-76.536 L 195.433,-76.536 L 195.955,-76.4252 L 196.442,-76.2084
 L 196.873,-75.895 L 197.23,-75.4988 L 197.496,-75.0372 L 197.661,-74.5302 L 197.717,-74 L 197.717,-64.7024
 L 198.059,-64.4804 L 198.459,-64.1563 L 198.823,-63.7921 L 199.147,-63.3919 L 199.427,-62.96 L 199.661,-62.5011
 L 199.846,-62.0204 L 199.979,-61.5229 L 200.06,-61.0143 L 200.087,-60.5 L 200.06,-59.9857 L 199.979,-59.4771
 L 199.846,-58.9796 L 199.661,-58.4989 L 199.427,-58.04 L 199.147,-57.6081 L 198.823,-57.2079 L 198.459,-56.8437
 L 198.059,-56.5196 L 197.627,-56.2392 L 197.168,-56.0054 L 196.687,-55.8208 L 196.19,-55.6875 L 195.681,-55.607
 L 195.167,-55.58 z
M 382.319,-55.607 L 381.81,-55.6875 L 381.313,-55.8208 L 380.832,-56.0054 L 380.373,-56.2392 L 379.941,-56.5196
 L 379.541,-56.8437 L 379.177,-57.2079 L 378.853,-57.6081 L 378.572,-58.04 L 378.339,-58.4989 L 378.154,-58.9796
 L 378.021,-59.4771 L 377.94,-59.9857 L 377.913,-60.5 L 377.94,-61.0143 L 378.021,-61.5229 L 378.154,-62.0204
 L 378.339,-62.5011 L 378.572,-62.96 L 378.853,-63.3919 L 379.177,-63.7921 L 379.541,-64.1563 L 379.941,-64.4804
 L 380.283,-64.7024 L 380.283,-74 L 380.339,-74.5302 L 380.504,-75.0372 L 380.77,-75.4988 L 381.127,-75.895
 L 381.558,-76.2084 L 382.045,-76.4252 L 382.567,-76.536 L 383.1,-76.536 L 383.621,-76.4252 L 384.108,-76.2084
 L 384.54,-75.895 L 384.896,-75.4988 L 385.163,-75.0372 L 385.328,-74.5302 L 385.383,-74 L 385.383,-64.7024
 L 385.725,-64.4804 L 386.125,-64.1563 L 386.49,-63.7921 L 386.814,-63.3919 L 387.094,-62.96 L 387.328,-62.5011
 L 387.513,-62.0204 L 387.646,-61.5229 L 387.726,-61.0143 L 387.753,-60.5 L 387.726,-59.9857 L 387.646,-59.4771
 L 387.513,-58.9796 L 387.328,-58.4989 L 387.094,-58.04 L 386.814,-57.6081 L 386.49,-57.2079 L 386.125,-56.8437
 L 385.725,-56.5196 L 385.293,-56.2392 L 384.834,-56.0054 L 384.354,-55.8208 L 383.856,-55.6875 L 383.348,-55.607
 L 382.833,-55.58 z
M 569.986,-55.607 L 569.477,-55.6875 L 568.98,-55.8208 L 568.499,-56.0054 L 568.04,-56.2392 L 567.608,-56.5196
 L 567.208,-56.8437 L 566.844,-57.2079 L 566.52,-57.6081 L 566.239,-58.04 L 566.005,-58.4989 L 565.821,-58.9796
 L 565.688,-59.4771 L 565.607,-59.9857 L 565.58,-60.5 L 565.607,-61.0143 L 565.688,-61.5229 L 565.821,-62.0204
 L 566.005,-62.5011 L 566.239,-62.96 L 566.52,-63.3919 L 566.844,-63.7921 L 567.208,-64.1563 L 567.608,-64.4804
 L 567.95,-64.7024 L 567.95,-74 L 568.006,-74.5302 L 568.17,-75.0372 L 568.437,-75.4988 L 568.794,-75.895
 L 569.225,-76.2084 L 569.712,-76.4252 L 570.233,-76.536 L 570.767,-76.536 L 571.288,-76.4252 L 571.775,-76.2084
 L 572.206,-75.895 L 572.563,-75.4988 L 572.83,-75.0372 L 572.994,-74.5302 L 573.05,-74 L 573.05,-64.7024
 L 573.392,-64.4804 L 573.792,-64.1563 L 574.156,-63.7921 L 574.48,-63.3919 L 574.761,-62.96 L 574.995,-62.5011
 L 575.179,-62.0204 L 575.312,-61.5229 L 575.393,-61.0143 L 575.42,-60.5 L 575.393,-59.9857 L 575.312,-59.4771
 L 575.179,-58.9796 L 574.995,-58.4989 L 574.761,-58.04 L 574.48,-57.6081 L 574.156,-57.2079 L 573.792,-56.8437
 L 573.392,-56.5196 L 572.96,-56.2392 L 572.501,-56.0054 L 572.02,-55.8208 L 571.523,-55.6875 L 571.014,-55.607
 L 570.5,-55.58 z
M 757.652,-55.607 L 757.144,-55.6875 L 756.646,-55.8208 L 756.166,-56.0054 L 755.707,-56.2392 L 755.275,-56.5196
 L 754.875,-56.8437 L 754.51,-57.2079 L 754.186,-57.6081 L 753.906,-58.04 L 753.672,-58.4989 L 753.487,-58.9796
 L 753.354,-59.4771 L 753.274,-59.9857 L 753.247,-60.5 L 753.274,-61.0143 L 753.354,-61.5229 L 753.487,-62.0204
 L 753.672,-62.5011 L 753.906,-62.96 L 754.186,-63.3919 L 754.51,-63.7921 L 754.875,-64.1563 L 755.275,-64.4804
 L 755.617,-64.7024 L 755.617,-74 L 755.672,-74.5302 L 755.837,-75.0372 L 756.104,-75.4988 L 756.46,-75.895
 L 756.892,-76.2084 L 757.379,-76.4252 L 757.9,-76.536 L 758.433,-76.536 L 758.955,-76.4252 L 759.442,-76.2084
 L 759.873,-75.895 L 760.23,-75.4988 L 760.496,-75.0372 L 760.661,-74.5302 L 760.717,-74 L 760.717,-64.7024
 L 761.059,-64.4804 L 761.459,-64.1563 L 761.823,-63.7921 L 762.147,-63.3919 L 762.427,-62.96 L 762.661,-62.5011
 L 762.846,-62.0204 L 762.979,-61.5229 L 763.06,-61.0143 L 763.087,-60.5 L 763.06,-59.9857 L 762.979,-59.4771
 L 762.846,-58.9796 L 762.661,-58.4989 L 762.427,-58.04 L 762.147,-57.6081 L 761.823,-57.2079 L 761.459,-56.8437
 L 761.059,-56.5196 L 760.627,-56.2392 L 760.168,-56.0054 L 759.687,-55.8208 L 759.19,-55.6875 L 758.681,-55.607
 L 758.167,-55.58 z
M 945.319,-55.607 L 944.81,-55.6875 L 944.313,-55.8208 L 943.832,-56.0054 L 943.373,-56.2392 L 942.941,-56.5196
 L 942.541,-56.8437 L 942.177,-57.2079 L 941.853,-57.6081 L 941.572,-58.04 L 941.339,-58.4989 L 941.154,-58.9796
 L 941.021,-59.4771 L 940.94,-59.9857 L 940.913,-60.5 L 940.94,-61.0143 L 941.021,-61.5229 L 941.154,-62.0204
 L 941.339,-62.5011 L 941.572,-62.96 L 941.853,-63.3919 L 942.177,-63.7921 L 942.541,-64.1563 L 942.941,-64.4804
 L 943.283,-64.7024 L 943.283,-74 L 943.339,-74.5302 L 943.504,-75.0372 L 943.77,-75.4988 L 944.127,-75.895
 L 944.558,-76.2084 L 945.045,-76.4252 L 945.567,-76.536 L 946.1,-76.536 L 946.621,-76.4252 L 947.108,-76.2084
 L 947.54,-75.895 L 947.896,-75.4988 L 948.163,-75.0372 L 948.328,-74.5302 L 948.383,-74 L 948.383,-64.7024
 L 948.725,-64.4804 L 949.125,-64.1563 L 949.49,-63.7921 L 949.814,-63.3919 L 950.094,-62.96 L 950.328,-62.5011
 L 950.513,-62.0204 L 950.646,-61.5229 L 950.726,-61.0143 L 950.753,-60.5 L 950.726,-59.9857 L 950.646,-59.4771
 L 950.513,-58.9796 L 950.328,-58.4989 L 950.094,-58.04 L 949.814,-57.6081 L 949.49,-57.2079 L 949.125,-56.8437
 L 948.725,-56.5196 L 948.293,-56.2392 L 947.834,-56.0054 L 947.354,-55.8208 L 946.856,-55.6875 L 946.348,-55.607
 L 945.833,-55.58 z
M 1132.99,-55.607 L 1132.48,-55.6875 L 1131.98,-55.8208 L 1131.5,-56.0054 L 1131.04,-56.2392 L 1130.61,-56.5196
 L 1130.21,-56.8437 L 1129.84,-57.2079 L 1129.52,-57.6081 L 1129.24,-58.04 L 1129.01,-58.4989 L 1128.82,-58.9796
 L 1128.69,-59.4771 L 1128.61,-59.9857 L 1128.58,-60.5 L 1128.61,-61.0143 L 1128.69,-61.5229 L 1128.82,-62.0204
 L 1129.01,-62.5011 L 1129.24,-62.96 L 1129.52,-63.3919 L 1129.84,-63.7921 L 1130.21,-64.1563 L 1130.61,-64.4804
 L 1130.95,-64.7024 L 1130.95,-74 L 1131.01,-74.5302 L 1131.17,-75.0372 L 1131.44,-75.4988 L 1131.79,-75.895
 L 1132.23,-76.2084 L 1132.71,-76.4252 L 1133.23,-76.536 L 1133.77,-76.536 L 1134.29,-76.4252 L 1134.77,-76.2084
 L 1135.21,-75.895 L 1135.56,-75.4988 L 1135.83,-75.0372 L 1135.99,-74.5302 L 1136.05,-74 L 1136.05,-64.7024
 L 1136.39,-64.4804 L 1136.79,-64.1563 L 1137.16,-63.7921 L 1137.48,-63.3919 L 1137.76,-62.96 L 1137.99,-62.5011
 L 1138.18,-62.0204 L 1138.31,-61.5229 L 1138.39,-61.0143 L 1138.42,-60.5 L 1138.39,-59.9857 L 1138.31,-59.4771
 L 1138.18,-58.9796 L 1137.99,-58.4989 L 1137.76,-58.04 L 1137.48,-57.6081 L 1137.16,-57.2079 L 1136.79,-56.8437
 L 1136.39,-56.5196 L 1135.96,-56.2392 L 1135.5,-56.0054 L 1135.02,-55.8208 L 1134.52,-55.6875 L 1134.01,-55.607
 L 1133.5,-55.58 z
M 957.725,-20.6864 L 956.95,-21.0007 L 956.258,-21.4693 L 955.678,-22.0717 L 955.236,-22.7815 L 954.951,-23.5677
 L 954.833,-24.5298 L 954.833,-58 L 954.921,-58.8316 L 955.179,-59.627 L 955.597,-60.3511 L 956.157,-60.9726
 L 956.833,-61.4641 L 957.597,-61.8042 L 958.833,-62 L 1051.2,-62 L 1052.04,-61.9126 L 1052.83,-61.6542
 L 1053.56,-61.2361 L 1054.18,-60.6765 L 1054.67,-60 L 1055.01,-59.2361 L 1055.18,-58.4181 L 1055.18,-57.5819
 L 1055.01,-56.7639 L 1054.67,-56 L 1054.18,-55.3235 L 1053.56,-54.7639 L 1052.57,-54.2393 L 960.196,-20.7691
 L 959.384,-20.568 L 958.549,-20.54 z
M 369.282,-20.568 L 368.471,-20.7691 L 276.1,-54.2393 L 275.111,-54.7639 L 274.49,-55.3235 L 273.998,-56
 L 273.658,-56.7639 L 273.484,-57.5819 L 273.484,-58.4181 L 273.658,-59.2361 L 273.998,-60 L 274.49,-60.6765
 L 275.111,-61.2361 L 275.835,-61.6542 L 276.631,-61.9126 L 277.462,-62 L 369.833,-62 L 371.069,-61.8042
 L 371.833,-61.4641 L 372.51,-60.9726 L 373.069,-60.3511 L 373.487,-59.627 L 373.746,-58.8316 L 373.833,-58
 L 373.833,-24.5298 L 373.716,-23.5677 L 373.431,-22.7815 L 372.989,-22.0717 L 372.409,-21.4693 L 371.716,-21.0007
 L 370.941,-20.6864 L 370.118,-20.54 z
M 181.616,-20.568 L 180.804,-20.7691 L 88.4328,-54.2393 L 87.4444,-54.7639 L 86.823,-55.3235 L 86.3314,-56
 L 85.9913,-56.7639 L 85.8174,-57.5819 L 85.8174,-58.4181 L 85.9913,-59.2361 L 86.3314,-60 L 86.823,-60.6765
 L 87.4444,-61.2361 L 88.1686,-61.6542 L 88.9639,-61.9126 L 89.7955,-62 L 182.167,-62 L 183.403,-61.8042
 L 184.167,-61.4641 L 184.843,-60.9726 L 185.403,-60.3511 L 185.821,-59.627 L 186.079,-58.8316 L 186.167,-58
 L 186.167,-24.5298 L 186.049,-23.5677 L 185.764,-22.7815 L 185.322,-22.0717 L 184.742,-21.4693 L 184.05,-21.0007
 L 183.275,-20.6864 L 182.451,-20.54 z
M 556.949,-20.568 L 556.137,-20.7691 L 463.766,-54.2393 L 462.778,-54.7639 L 462.156,-55.3235 L 461.665,-56
 L 461.325,-56.7639 L 461.151,-57.5819 L 461.151,-58.4181 L 461.325,-59.2361 L 461.665,-60 L 462.156,-60.6765
 L 462.778,-61.2361 L 463.502,-61.6542 L 464.297,-61.9126 L 465.129,-62 L 557.5,-62 L 558.736,-61.8042
 L 559.5,-61.4641 L 560.177,-60.9726 L 560.736,-60.3511 L 561.154,-59.627 L 561.413,-58.8316 L 561.5,-58
 L 561.5,-24.5298 L 561.383,-23.5677 L 561.098,-22.7815 L 560.656,-22.0717 L 560.076,-21.4693 L 559.383,-21.0007
 L 558.608,-20.6864 L 557.785,-20.54 z
M 582.392,-20.6864 L 581.617,-21.0007 L 580.924,-21.4693 L 580.344,-22.0717 L 579.902,-22.7815 L 579.617,-23.5677
 L 579.5,-24.5298 L 579.5,-58 L 579.587,-58.8316 L 579.846,-59.627 L 580.264,-60.3511 L 580.823,-60.9726
 L 581.5,-61.4641 L 582.264,-61.8042 L 583.5,-62 L 675.871,-62 L 676.703,-61.9126 L 677.498,-61.6542
 L 678.222,-61.2361 L 678.844,-60.6765 L 679.335,-60 L 679.675,-59.2361 L 679.849,-58.4181 L 679.849,-57.5819
 L 679.675,-56.7639 L 679.335,-56 L 678.844,-55.3235 L 678.222,-54.7639 L 677.234,-54.2393 L 584.863,-20.7691
 L 584.051,-20.568 L 583.215,-20.54 z
M 770.059,-20.6864 L 769.284,-21.0007 L 768.591,-21.4693 L 768.011,-22.0717 L 767.569,-22.7815 L 767.284,-23.5677
 L 767.167,-24.5298 L 767.167,-58 L 767.254,-58.8316 L 767.512,-59.627 L 767.931,-60.3511 L 768.49,-60.9726
 L 769.167,-61.4641 L 769.931,-61.8042 L 771.167,-62 L 863.538,-62 L 864.369,-61.9126 L 865.165,-61.6542
 L 865.889,-61.2361 L 866.51,-60.6765 L 867.002,-60 L 867.342,-59.2361 L 867.516,-58.4181 L 867.516,-57.5819
 L 867.342,-56.7639 L 867.002,-56 L 866.51,-55.3235 L 865.889,-54.7639 L 864.9,-54.2393 L 772.529,-20.7691
 L 771.718,-20.568 L 770.882,-20.54 z
M 208.167,-18 L 206.931,-18.1958 L 206.167,-18.5359 L 205.49,-19.0274 L 204.931,-19.6489 L 204.512,-20.373
 L 204.254,-21.1684 L 204.167,-22 L 204.167,-55.4702 L 204.284,-56.4323 L 204.569,-57.2185 L 205.011,-57.9283
 L 205.591,-58.5307 L 206.284,-58.9993 L 207.059,-59.3136 L 207.882,-59.46 L 208.718,-59.432 L 209.529,-59.2309
 L 301.9,-25.7607 L 302.889,-25.2361 L 303.51,-24.6765 L 304.002,-24 L 304.342,-23.2361 L 304.516,-22.4181
 L 304.516,-21.5819 L 304.342,-20.7639 L 304.002,-20 L 303.51,-19.3235 L 302.889,-18.7639 L 302.165,-18.3458
 L 301.369,-18.0874 L 300.538,-18 z
M 395.833,-18 L 394.597,-18.1958 L 393.833,-18.5359 L 393.157,-19.0274 L 392.597,-19.6489 L 392.179,-20.373
 L 391.921,-21.1684 L 391.833,-22 L 391.833,-55.4702 L 391.951,-56.4323 L 392.236,-57.2185 L 392.678,-57.9283
 L 393.258,-58.5307 L 393.95,-58.9993 L 394.725,-59.3136 L 395.549,-59.46 L 396.384,-59.432 L 397.196,-59.2309
 L 489.567,-25.7607 L 490.556,-25.2361 L 491.177,-24.6765 L 491.669,-24 L 492.009,-23.2361 L 492.183,-22.4181
 L 492.183,-21.5819 L 492.009,-20.7639 L 491.669,-20 L 491.177,-19.3235 L 490.556,-18.7639 L 489.831,-18.3458
 L 489.036,-18.0874 L 488.204,-18 z
M 652.796,-18 L 651.964,-18.0874 L 651.169,-18.3458 L 650.444,-18.7639 L 649.823,-19.3235 L 649.331,-20
 L 648.991,-20.7639 L 648.817,-21.5819 L 648.817,-22.4181 L 648.991,-23.2361 L 649.331,-24 L 649.823,-24.6765
 L 650.444,-25.2361 L 651.433,-25.7607 L 743.804,-59.2309 L 744.616,-59.432 L 745.451,-59.46 L 746.275,-59.3136
 L 747.05,-58.9993 L 747.742,-58.5307 L 748.322,-57.9283 L 748.764,-57.2185 L 749.049,-56.4323 L 749.167,-55.4702
 L 749.167,-22 L 749.079,-21.1684 L 748.821,-20.373 L 748.403,-19.6489 L 747.843,-19.0274 L 747.167,-18.5359
 L 746.403,-18.1958 L 745.167,-18 z
M 840.462,-18 L 839.631,-18.0874 L 838.835,-18.3458 L 838.111,-18.7639 L 837.49,-19.3235 L 836.998,-20
 L 836.658,-20.7639 L 836.484,-21.5819 L 836.484,-22.4181 L 836.658,-23.2361 L 836.998,-24 L 837.49,-24.6765
 L 838.111,-25.2361 L 839.1,-25.7607 L 931.471,-59.2309 L 932.282,-59.432 L 933.118,-59.46 L 933.941,-59.3136
 L 934.716,-58.9993 L 935.409,-58.5307 L 935.989,-57.9283 L 936.431,-57.2185 L 936.716,-56.4323 L 936.833,-55.4702
 L 936.833,-22 L 936.746,-21.1684 L 936.488,-20.373 L 936.069,-19.6489 L 935.51,-19.0274 L 934.833,-18.5359
 L 934.069,-18.1958 L 932.833,-18 z
M 1028.13,-18 L 1027.3,-18.0874 L 1026.5,-18.3458 L 1025.78,-18.7639 L 1025.16,-19.3235 L 1024.66,-20
 L 1024.32,-20.7639 L 1024.15,-21.5819 L 1024.15,-22.4181 L 1024.32,-23.2361 L 1024.66,-24 L 1025.16,-24.6765
 L 1025.78,-25.2361 L 1026.77,-25.7607 L 1117.64,-58.6874 L 1118.45,-58.8885 L 1119.28,-58.9165 L 1120.11,-58.7701
 L 1120.88,-58.4557 L 1121.58,-57.9871 L 1122.16,-57.3848 L 1122.6,-56.675 L 1122.88,-55.8888 L 1123,-54.9267
 L 1123,-22 L 1122.91,-21.1684 L 1122.65,-20.373 L 1122.24,-19.6489 L 1121.68,-19.0274 L 1121,-18.5359
 L 1120.24,-18.1958 L 1119,-18 z
M 22,-18 L 20.7639,-18.1958 L 20,-18.5359 L 19.3235,-19.0274 L 18.7639,-19.6489 L 18.3458,-20.373
 L 18.0874,-21.1684 L 18,-22 L 18,-54.9267 L 18.1174,-55.8888 L 18.4023,-56.675 L 18.8444,-57.3848
 L 19.4245,-57.9871 L 20.1171,-58.4557 L 20.8919,-58.7701 L 21.7152,-58.9165 L 22.551,-58.8885 L 23.3627,-58.6874
 L 114.234,-25.7607 L 115.222,-25.2361 L 115.844,-24.6765 L 116.335,-24 L 116.675,-23.2361 L 116.849,-22.4181
 L 116.849,-21.5819 L 116.675,-20.7639 L 116.335,-20 L 115.844,-19.3235 L 115.222,-18.7639 L 114.498,-18.3458
 L 113.703,-18.0874 L 112.871,-18 z
" stroke="black" fill="lightgray" stroke-width="0.5"/>
</svg>
