<?xml version="1.0" standalone="no"?>
<!DOCTYPE svg PUBLIC "-//W3C//DTD SVG 1.1//EN" "http://www.w3.org/Graphics/SVG/1.1/DTD/svg11.dtd">
<svg width="1612mm" height="80mm" viewBox="0 -80 1612 80" xmlns="http://www.w3.org/2000/svg" version="1.1">
<title>OpenSCAD Model</title>
<path d="
M 1612,-80 L 0,-80 L 0,-0 L 4.95,-0 L 4.95,-6 L 5.00572,-6.53017
 L 5.17046,-7.03717 L 5.437,-7.49884 L 5.79372,-7.895 L 6.22499,-8.20836 L 6.71201,-8.42519 L 7.23344,-8.53603
 L 7.76654,-8.53603 L 8.28798,-8.42519 L 8.77499,-8.20836 L 9.20627,-7.895 L 9.56299,-7.49884 L 9.82953,-7.03717
 L 9.99426,-6.53017 L 10.05,-6 L 10.05,-0 L 182.394,-0 L 182.394,-6 L 182.45,-6.53017
 L 182.615,-7.03717 L 182.881,-7.49884 L 183.238,-7.895 L 183.669,-8.20836 L 184.156,-8.42519 L 184.678,-8.53603
 L 185.211,-8.53603 L 185.732,-8.42519 L 186.219,-8.20836 L 186.651,-7.895 L 187.007,-7.49884 L 187.274,-7.03717
 L 187.439,-6.53017 L 187.494,-6 L 187.494,-0 L 359.839,-0 L 359.839,-6 L 359.895,-6.53017
 L 360.059,-7.03717 L 360.326,-7.49884 L 360.683,-7.895 L 361.114,-8.20836 L 361.601,-8.42519 L 362.122,-8.53603
 L 362.655,-8.53603 L 363.177,-8.42519 L 363.664,-8.20836 L 364.095,-7.895 L 364.452,-7.49884 L 364.718,-7.03717
 L 364.883,-6.53017 L 364.939,-6 L 364.939,-0 L 537.283,-0 L 537.283,-6 L 537.339,-6.53017
 L 537.504,-7.03717 L 537.77,-7.49884 L 538.127,-7.895 L 538.558,-8.20836 L 539.045,-8.42519 L 539.567,-8.53603
 L 540.1,-8.53603 L 540.621,-8.42519 L 541.108,-8.20836 L 541.54,-7.895 L 541.896,-7.49884 L 542.163,-7.03717
 L 542.328,-6.53017 L 542.383,-6 L 542.383,-0 L 714.728,-0 L 714.728,-6 L 714.783,-6.53017
 L 714.948,-7.03717 L 715.215,-7.49884 L 715.571,-7.895 L 716.003,-8.20836 L 716.49,-8.42519 L 717.011,-8.53603
 L 717.544,-8.53603 L 718.066,-8.42519 L 718.553,-8.20836 L 718.984,-7.895 L 719.341,-7.49884 L 719.607,-7.03717
 L 719.772,-6.53017 L 719.828,-6 L 719.828,-0 L 892.172,-0 L 892.172,-6 L 892.228,-6.53017
 L 892.393,-7.03717 L 892.659,-7.49884 L 893.016,-7.895 L 893.447,-8.20836 L 893.934,-8.42519 L 894.456,-8.53603
 L 894.989,-8.53603 L 895.51,-8.42519 L 895.997,-8.20836 L 896.428,-7.895 L 896.785,-7.49884 L 897.052,-7.03717
 L 897.216,-6.53017 L 897.272,-6 L 897.272,-0 L 1069.62,-0 L 1069.62,-6 L 1069.67,-6.53017
 L 1069.84,-7.03717 L 1070.1,-7.49884 L 1070.46,-7.895 L 1070.89,-8.20836 L 1071.38,-8.42519 L 1071.9,-8.53603
 L 1072.43,-8.53603 L 1072.95,-8.42519 L 1073.44,-8.20836 L 1073.87,-7.895 L 1074.23,-7.49884 L 1074.5,-7.03717
 L 1074.66,-6.53017 L 1074.72,-6 L 1074.72,-0 L 1247.06,-0 L 1247.06,-6 L 1247.12,-6.53017
 L 1247.28,-7.03717 L 1247.55,-7.49884 L 1247.9,-7.895 L 1248.34,-8.20836 L 1248.82,-8.42519 L 1249.34,-8.53603
 L 1249.88,-8.53603 L 1250.4,-8.42519 L 1250.89,-8.20836 L 1251.32,-7.895 L 1251.67,-7.49884 L 1251.94,-7.03717
 L 1252.11,-6.53017 L 1252.16,-6 L 1252.16,-0 L 1424.51,-0 L 1424.51,-6 L 1424.56,-6.53017
 L 1424.73,-7.03717 L 1424.99,-7.49884 L 1425.35,-7.895 L 1425.78,-8.20836 L 1426.27,-8.42519 L 1426.79,-8.53603
 L 1427.32,-8.53603 L 1427.84,-8.42519 L 1428.33,-8.20836 L 1428.76,-7.895 L 1429.12,-7.49884 L 1429.39,-7.03717
 L 1429.55,-6.53017 L 1429.61,-6 L 1429.61,-0 L 1601.95,-0 L 1601.95,-6 L 1602.01,-6.53017
 L 1602.17,-7.03717 L 1602.44,-7.49884 L 1602.79,-7.895 L 1603.22,-8.20836 L 1603.71,-8.42519 L 1604.23,-8.53603
 L 1604.77,-8.53603 L 1605.29,-8.42519 L 1605.77,-8.20836 L 1606.21,-7.895 L 1606.56,-7.49884 L 1606.83,-7.03717
 L 1606.99,-6.53017 L 1607.05,-6 L 1607.05,-0 L 1612,-0 z
M 6.98573,-55.607 L 6.47708,-55.6875 L 5.97964,-55.8208 L 5.49887,-56.0054 L 5.04001,-56.2392 L 4.60811,-56.5196
 L 4.20789,-56.8437 L 3.84373,-57.2079 L 3.51964,-57.6081 L 3.23917,-58.04 L 3.00537,-58.4989 L 2.82082,-58.9796
 L 2.68752,-59.4771 L 2.60696,-59.9857 L 2.58,-60.5 L 2.60696,-61.0143 L 2.68752,-61.5229 L 2.82082,-62.0204
 L 3.00537,-62.5011 L 3.23917,-62.96 L 3.51964,-63.3919 L 3.84373,-63.7921 L 4.20789,-64.1563 L 4.60811,-64.4804
 L 4.95001,-64.7024 L 4.95001,-74 L 5.00574,-74.5302 L 5.17047,-75.0372 L 5.43701,-75.4988 L 5.79373,-75.895
 L 6.22501,-76.2084 L 6.71202,-76.4252 L 7.23346,-76.536 L 7.76654,-76.536 L 8.28798,-76.4252 L 8.77499,-76.2084
 L 9.20627,-75.895 L 9.56299,-75.4988 L 9.82953,-75.0372 L 9.99426,-74.5302 L 10.05,-74 L 10.05,-64.7024
 L 10.3919,-64.4804 L 10.7921,-64.1563 L 11.1563,-63.7921 L 11.4804,-63.3919 L 11.7608,-62.96 L 11.9946,-62.5011
 L 12.1792,-62.0204 L 12.3125,-61.5229 L 12.393,-61.0143 L 12.42,-60.5 L 12.393,-59.9857 L 12.3125,-59.4771
 L 12.1792,-58.9796 L 11.9946,-58.4989 L 11.7608,-58.04 L 11.4804,-57.6081 L 11.1563,-57.2079 L 10.7921,-56.8437
 L 10.3919,-56.5196 L 9.95999,-56.2392 L 9.50113,-56.0054 L 9.02036,-55.8208 L 8.52292,-55.6875 L 8.01427,-55.607
 L 7.5,-55.58 z
M 1071.65,-55.607 L 1071.14,-55.6875 L 1070.65,-55.8208 L 1070.17,-56.0054 L 1069.71,-56.2392 L 1069.27,-56.5196
 L 1068.87,-56.8437 L 1068.51,-57.2079 L 1068.19,-57.6081 L 1067.91,-58.04 L 1067.67,-58.4989 L 1067.49,-58.9796
 L 1067.35,-59.4771 L 1067.27,-59.9857 L 1067.25,-60.5 L 1067.27,-61.0143 L 1067.35,-61.5229 L 1067.49,-62.0204
 L 1067.67,-62.5011 L 1067.91,-62.96 L 1068.19,-63.3919 L 1068.51,-63.7921 L 1068.87,-64.1563 L 1069.27,-64.4804
 L 1069.62,-64.7024 L 1069.62,-74 L 1069.67,-74.5302 L 1069.84,-75.0372 L 1070.1,-75.4988 L 1070.46,-75.895
 L 1070.89,-76.2084 L 1071.38,-76.4252 L 1071.9,-76.536 L 1072.43,-76.536 L 1072.95,-76.4252 L 1073.44,-76.2084
 L 1073.87,-75.895 L 1074.23,-75.4988 L 1074.5,-75.0372 L 1074.66,-74.5302 L 1074.72,-74 L 1074.72,-64.7024
 L 1075.06,-64.4804 L 1075.46,-64.1563 L 1075.82,-63.7921 L 1076.15,-63.3919 L 1076.43,-62.96 L 1076.66,-62.5011
 L 1076.85,-62.0204 L 1076.98,-61.5229 L 1077.06,-61.0143 L 1077.09,-60.5 L 1077.06,-59.9857 L 1076.98,-59.4771
 L 1076.85,-58.9796 L 1076.66,-58.4989 L 1076.43,-58.04 L 1076.15,-57.6081 L 1075.82,-57.2079 L 1075.46,-56.8437
 L 1075.06,-56.5196 L 1074.63,-56.2392 L 1074.17,-56.0054 L 1073.69,-55.8208 L 1073.19,-55.6875 L 1072.68,-55.607
 L 1072.17,-55.58 z
M 1249.1,-55.607 L 1248.59,-55.6875 L 1248.09,-55.8208 L 1247.61,-56.0054 L 1247.15,-56.2392 L 1246.72,-56.5196
 L 1246.32,-56.8437 L 1245.95,-57.2079 L 1245.63,-57.6081 L 1245.35,-58.04 L 1245.12,-58.4989 L 1244.93,-58.9796
 L 1244.8,-59.4771 L 1244.72,-59.9857 L 1244.69,-60.5 L 1244.72,-61.0143 L 1244.8,-61.5229 L 1244.93,-62.0204
 L 1245.12,-62.5011 L 1245.35,-62.96 L 1245.63,-63.3919 L 1245.95,-63.7921 L 1246.32,-64.1563 L 1246.72,-64.4804
 L 1247.06,-64.7024 L 1247.06,-74 L 1247.12,-74.5302 L 1247.28,-75.0372 L 1247.55,-75.4988 L 1247.9,-75.895
 L 1248.34,-76.2084 L 1248.82,-76.4252 L 1249.34,-76.536 L 1249.88,-76.536 L 1250.4,-76.4252 L 1250.89,-76.2084
 L 1251.32,-75.895 L 1251.67,-75.4988 L 1251.94,-75.0372 L 1252.11,-74.5302 L 1252.16,-74 L 1252.16,-64.7024
 L 1252.5,-64.4804 L 1252.9,-64.1563 L 1253.27,-63.7921 L 1253.59,-63.3919 L 1253.87,-62.96 L 1254.11,-62.5011
 L 1254.29,-62.0204 L 1254.42,-61.5229 L 1254.5,-61.0143 L 1254.53,-60.5 L 1254.5,-59.9857 L 1254.42,-59.4771
 L 1254.29,-58.9796 L 1254.11,-58.4989 L 1253.87,-58.04 L 1253.59,-57.6081 L 1253.27,-57.2079 L 1252.9,-56.8437
 L 1252.5,-56.5196 L 1252.07,-56.2392 L 1251.61,-56.0054 L 1251.13,-55.8208 L 1250.63,-55.6875 L 1250.13,-55.607
 L 1249.61,-55.58 z
M 894.208,-55.607 L 893.699,-55.6875 L 893.202,-55.8208 L 892.721,-56.0054 L 892.262,-56.2392 L 891.83,-56.5196
 L 891.43,-56.8437 L 891.066,-57.2079 L 890.742,-57.6081 L 890.461,-58.04 L 890.228,-58.4989 L 890.043,-58.9796
 L 889.91,-59.4771 L 889.829,-59.9857 L 889.802,-60.5 L 889.829,-61.0143 L 889.91,-61.5229 L 890.043,-62.0204
 L 890.228,-62.5011 L 890.461,-62.96 L 890.742,-63.3919 L 891.066,-63.7921 L 891.43,-64.1563 L 891.83,-64.4804
 L 892.172,-64.7024 L 892.172,-74 L 892.228,-74.5302 L 892.393,-75.0372 L 892.659,-75.4988 L 893.016,-75.895
 L 893.447,-76.2084 L 893.934,-76.4252 L 894.456,-76.536 L 894.989,-76.536 L 895.51,-76.4252 L 895.997,-76.2084
 L 896.428,-75.895 L 896.785,-75.4988 L 897.052,-75.0372 L 897.216,-74.5302 L 897.272,-74 L 897.272,-64.7024
 L 897.614,-64.4804 L 898.014,-64.1563 L 898.378,-63.7921 L 898.703,-63.3919 L 898.983,-62.96 L 899.217,-62.5011
 L 899.401,-62.0204 L 899.535,-61.5229 L 899.615,-61.0143 L 899.642,-60.5 L 899.615,-59.9857 L 899.535,-59.4771
 L 899.401,-58.9796 L 899.217,-58.4989 L 898.983,-58.04 L 898.703,-57.6081 L 898.378,-57.2079 L 898.014,-56.8437
 L 897.614,-56.5196 L 897.182,-56.2392 L 896.723,-56.0054 L 896.243,-55.8208 L 895.745,-55.6875 L 895.236,-55.607
 L 894.722,-55.58 z
M 716.764,-55.607 L 716.255,-55.6875 L 715.757,-55.8208 L 715.277,-56.0054 L 714.818,-56.2392 L 714.386,-56.5196
 L 713.986,-56.8437 L 713.622,-57.2079 L 713.297,-57.6081 L 713.017,-58.04 L 712.783,-58.4989 L 712.599,-58.9796
 L 712.465,-59.4771 L 712.385,-59.9857 L 712.358,-60.5 L 712.385,-61.0143 L 712.465,-61.5229 L 712.599,-62.0204
 L 712.783,-62.5011 L 713.017,-62.96 L 713.297,-63.3919 L 713.622,-63.7921 L 713.986,-64.1563 L 714.386,-64.4804
 L 714.728,-64.7024 L 714.728,-74 L 714.784,-74.5302 L 714.948,-75.0372 L 715.215,-75.4988 L 715.572,-75.895
 L 716.003,-76.2084 L 716.49,-76.4252 L 717.011,-76.536 L 717.544,-76.536 L 718.066,-76.4252 L 718.553,-76.2084
 L 718.984,-75.895 L 719.341,-75.4988 L 719.607,-75.0372 L 719.772,-74.5302 L 719.828,-74 L 719.828,-64.7024
 L 720.17,-64.4804 L 720.57,-64.1563 L 720.934,-63.7921 L 721.258,-63.3919 L 721.539,-62.96 L 721.772,-62.5011
 L 721.957,-62.0204 L 722.09,-61.5229 L 722.171,-61.0143 L 722.198,-60.5 L 722.171,-59.9857 L 722.09,-59.4771
 L 721.957,-58.9796 L 721.772,-58.4989 L 721.539,-58.04 L 721.258,-57.6081 L 720.934,-57.2079 L 720.57,-56.8437
 L 720.17,-56.5196 L 719.738,-56.2392 L 719.279,-56.0054 L 718.798,-55.8208 L 718.301,-55.6875 L 717.792,-55.607
 L 717.278,-55.58 z
M 1426.54,-55.607 L 1426.03,-55.6875 L 1425.54,-55.8208 L 1425.05,-56.0054 L 1424.6,-56.2392 L 1424.16,-56.5196
 L 1423.76,-56.8437 L 1423.4,-57.2079 L 1423.08,-57.6081 L 1422.79,-58.04 L 1422.56,-58.4989 L 1422.38,-58.9796
 L 1422.24,-59.4771 L 1422.16,-59.9857 L 1422.14,-60.5 L 1422.16,-61.0143 L 1422.24,-61.5229 L 1422.38,-62.0204
 L 1422.56,-62.5011 L 1422.79,-62.96 L 1423.08,-63.3919 L 1423.4,-63.7921 L 1423.76,-64.1563 L 1424.16,-64.4804
 L 1424.51,-64.7024 L 1424.51,-74 L 1424.56,-74.5302 L 1424.73,-75.0372 L 1424.99,-75.4988 L 1425.35,-75.895
 L 1425.78,-76.2084 L 1426.27,-76.4252 L 1426.79,-76.536 L 1427.32,-76.536 L 1427.84,-76.4252 L 1428.33,-76.2084
 L 1428.76,-75.895 L 1429.12,-75.4988 L 1429.39,-75.0372 L 1429.55,-74.5302 L 1429.61,-74 L 1429.61,-64.7024
 L 1429.95,-64.4804 L 1430.35,-64.1563 L 1430.71,-63.7921 L 1431.04,-63.3919 L 1431.32,-62.96 L 1431.55,-62.5011
 L 1431.73,-62.0204 L 1431.87,-61.5229 L 1431.95,-61.0143 L 1431.98,-60.5 L 1431.95,-59.9857 L 1431.87,-59.4771
 L 1431.73,-58.9796 L 1431.55,-58.4989 L 1431.32,-58.04 L 1431.04,-57.6081 L 1430.71,-57.2079 L 1430.35,-56.8437
 L 1429.95,-56.5196 L 1429.52,-56.2392 L 1429.06,-56.0054 L 1428.58,-55.8208 L 1428.08,-55.6875 L 1427.57,-55.607
 L 1427.06,-55.58 z
M 539.319,-55.607 L 538.81,-55.6875 L 538.313,-55.8208 L 537.832,-56.0054 L 537.373,-56.2392 L 536.941,-56.5196
 L 536.541,-56.8437 L 536.177,-57.2079 L 535.853,-57.6081 L 535.572,-58.04 L 535.339,-58.4989 L 535.154,-58.9796
 L 535.021,-59.4771 L 534.94,-59.9857 L 534.913,-60.5 L 534.94,-61.0143 L 535.021,-61.5229 L 535.154,-62.0204
 L 535.339,-62.5011 L 535.572,-62.96 L 535.853,-63.3919 L 536.177,-63.7921 L 536.541,-64.1563 L 536.941,-64.4804
 L 537.283,-64.7024 L 537.283,-74 L 537.339,-74.5302 L 537.504,-75.0372 L 537.77,-75.4988 L 538.127,-75.895
 L 538.558,-76.2084 L 539.045,-76.4252 L 539.567,-76.536 L 540.1,-76.536 L 540.621,-76.4252 L 541.108,-76.2084
 L 541.54,-75.895 L 541.896,-75.4988 L 542.163,-75.0372 L 542.328,-74.5302 L 542.383,-74 L 542.383,-64.7024
 L 542.725,-64.4804 L 543.125,-64.1563 L 543.49,-63.7921 L 543.814,-63.3919 L 544.094,-62.96 L 544.328,-62.5011
 L 544.513,-62.0204 L 544.646,-61.5229 L 544.726,-61.0143 L 544.753,-60.5 L 544.726,-59.9857 L 544.646,-59.4771
 L 544.513,-58.9796 L 544.328,-58.4989 L 544.094,-58.04 L 543.814,-57.6081 L 543.49,-57.2079 L 543.125,-56.8437
 L 542.725,-56.5196 L 542.293,-56.2392 L 541.834,-56.0054 L 541.354,-55.8208 L 540.856,-55.6875 L 540.348,-55.607
 L 539.833,-55.58 z
M 361.875,-55.607 L 361.366,-55.6875 L 360.869,-55.8208 L 360.388,-56.0054 L 359.929,-56.2392 L 359.497,-56.5196
 L 359.097,-56.8437 L 358.733,-57.2079 L 358.409,-57.6081 L 358.128,-58.04 L 357.894,-58.4989 L 357.71,-58.9796
 L 357.576,-59.4771 L 357.496,-59.9857 L 357.469,-60.5 L 357.496,-61.0143 L 357.576,-61.5229 L 357.71,-62.0204
 L 357.894,-62.5011 L 358.128,-62.96 L 358.409,-63.3919 L 358.733,-63.7921 L 359.097,-64.1563 L 359.497,-64.4804
 L 359.839,-64.7024 L 359.839,-74 L 359.895,-74.5302 L 360.059,-75.0372 L 360.326,-75.4988 L 360.683,-75.895
 L 361.114,-76.2084 L 361.601,-76.4252 L 362.122,-76.536 L 362.655,-76.536 L 363.177,-76.4252 L 363.664,-76.2084
 L 364.095,-75.895 L 364.452,-75.4988 L 364.718,-75.0372 L 364.883,-74.5302 L 364.939,-74 L 364.939,-64.7024
 L 365.281,-64.4804 L 365.681,-64.1563 L 366.045,-63.7921 L 366.369,-63.3919 L 366.65,-62.96 L 366.884,-62.5011
 L 367.068,-62.0204 L 367.201,-61.5229 L 367.282,-61.0143 L 367.309,-60.5 L 367.282,-59.9857 L 367.201,-59.4771
 L 367.068,-58.9796 L 366.884,-58.4989 L 366.65,-58.04 L 366.369,-57.6081 L 366.045,-57.2079 L 365.681,-56.8437
 L 365.281,-56.5196 L 364.849,-56.2392 L 364.39,-56.0054 L 363.909,-55.8208 L 363.412,-55.6875 L 362.903,-55.607
 L 362.389,-55.58 z
M 1603.99,-55.607 L 1603.48,-55.6875 L 1602.98,-55.8208 L 1602.5,-56.0054 L 1602.04,-56.2392 L 1601.61,-56.5196
 L 1601.21,-56.8437 L 1600.84,-57.2079 L 1600.52,-57.6081 L 1600.24,-58.04 L 1600.01,-58.4989 L 1599.82,-58.9796
 L 1599.69,-59.4771 L 1599.61,-59.9857 L 1599.58,-60.5 L 1599.61,-61.0143 L 1599.69,-61.5229 L 1599.82,-62.0204
 L 1600.01,-62.5011 L 1600.24,-62.96 L 1600.52,-63.3919 L 1600.84,-63.7921 L 1601.21,-64.1563 L 1601.61,-64.4804
 L 1601.95,-64.7024 L 1601.95,-74 L 1602.01,-74.5302 L 1602.17,-75.0372 L 1602.44,-75.4988 L 1602.79,-75.895
 L 1603.23,-76.2084 L 1603.71,-76.4252 L 1604.23,-76.536 L 1604.77,-76.536 L 1605.29,-76.4252 L 1605.77,-76.2084
 L 1606.21,-75.895 L 1606.56,-75.4988 L 1606.83,-75.0372 L 1606.99,-74.5302 L 1607.05,-74 L 1607.05,-64.7024
 L 1607.39,-64.4804 L 1607.79,-64.1563 L 1608.16,-63.7921 L 1608.48,-63.3919 L 1608.76,-62.96 L 1608.99,-62.5011
 L 1609.18,-62.0204 L 1609.31,-61.5229 L 1609.39,-61.0143 L 1609.42,-60.5 L 1609.39,-59.9857 L 1609.31,-59.4771
 L 1609.18,-58.9796 L 1608.99,-58.4989 L 1608.76,-58.04 L 1608.48,-57.6081 L 1608.16,-57.2079 L 1607.79,-56.8437
 L 1607.39,-56.5196 L 1606.96,-56.2392 L 1606.5,-56.0054 L 1606.02,-55.8208 L 1605.52,-55.6875 L 1605.01,-55.607
 L 1604.5,-55.58 z
M 184.43,-55.607 L 183.922,-55.6875 L 183.424,-55.8208 L 182.943,-56.0054 L 182.484,-56.2392 L 182.053,-56.5196
 L 181.652,-56.8437 L 181.288,-57.2079 L 180.964,-57.6081 L 180.684,-58.04 L 180.45,-58.4989 L 180.265,-58.9796
 L 180.132,-59.4771 L 180.051,-59.9857 L 180.024,-60.5 L 180.051,-61.0143 L 180.132,-61.5229 L 180.265,-62.0204
 L 180.45,-62.5011 L 180.684,-62.96 L 180.964,-63.3919 L 181.288,-63.7921 L 181.652,-64.1563 L 182.053,-64.4804
 L 182.394,-64.7024 L 182.394,-74 L 182.45,-74.5302 L 182.615,-75.0372 L 182.881,-75.4988 L 183.238,-75.895
 L 183.669,-76.2084 L 184.156,-76.4252 L 184.678,-76.536 L 185.211,-76.536 L 185.732,-76.4252 L 186.219,-76.2084
 L 186.651,-75.895 L 187.007,-75.4988 L 187.274,-75.0372 L 187.439,-74.5302 L 187.494,-74 L 187.494,-64.7024
 L 187.836,-64.4804 L 188.237,-64.1563 L 188.601,-63.7921 L 188.925,-63.3919 L 189.205,-62.96 L 189.439,-62.5011
 L 189.624,-62.0204 L 189.757,-61.5229 L 189.837,-61.0143 L 189.864,-60.5 L 189.837,-59.9857 L 189.757,-59.4771
 L 189.624,-58.9796 L 189.439,-58.4989 L 189.205,-58.04 L 188.925,-57.6081 L 188.601,-57.2079 L 188.237,-56.8437
 L 187.836,-56.5196 L 187.404,-56.2392 L 186.946,-56.0054 L 186.465,-55.8208 L 185.967,-55.6875 L 185.459,-55.607
 L 184.944,-55.58 z
M 1084.13,-21.0219 L 1083.35,-21.322 L 1082.65,-21.7779 L 1082.06,-22.3695 L 1081.6,-23.0711 L 1081.3,-23.8519
 L 1081.17,-24.885 L 1081.17,-58 L 1081.25,-58.8316 L 1081.51,-59.627 L 1081.93,-60.3511 L 1082.49,-60.9726
 L 1083.17,-61.4641 L 1083.93,-61.8042 L 1085.17,-62 L 1171.58,-62 L 1172.41,-61.9126 L 1173.21,-61.6542
 L 1173.93,-61.2361 L 1174.55,-60.6765 L 1175.04,-60 L 1175.38,-59.2361 L 1175.56,-58.4181 L 1175.56,-57.5819
 L 1175.38,-56.7639 L 1175.04,-56 L 1174.55,-55.3235 L 1173.93,-54.7639 L 1173.01,-54.2649 L 1086.6,-21.1499
 L 1085.79,-20.9339 L 1084.96,-20.8906 z
M 906.685,-21.0219 L 905.904,-21.322 L 905.203,-21.7779 L 904.612,-22.3695 L 904.157,-23.0711 L 903.858,-23.8519
 L 903.722,-24.885 L 903.722,-58 L 903.81,-58.8316 L 904.068,-59.627 L 904.486,-60.3511 L 905.046,-60.9726
 L 905.722,-61.4641 L 906.486,-61.8042 L 907.722,-62 L 994.135,-62 L 994.967,-61.9126 L 995.762,-61.6542
 L 996.486,-61.2361 L 997.108,-60.6765 L 997.599,-60 L 997.939,-59.2361 L 998.113,-58.4181 L 998.113,-57.5819
 L 997.939,-56.7639 L 997.599,-56 L 997.108,-55.3235 L 996.486,-54.7639 L 995.566,-54.2649 L 909.154,-21.1499
 L 908.346,-20.9339 L 907.511,-20.8906 z
M 805.376,-47.8131 L 804.569,-48.0291 L 788.297,-54.2649 L 787.377,-54.7639 L 786.755,-55.3235 L 786.264,-56
 L 785.924,-56.7639 L 785.75,-57.5819 L 785.75,-58.4181 L 785.924,-59.2361 L 786.264,-60 L 786.755,-60.6765
 L 787.377,-61.2361 L 788.101,-61.6542 L 788.896,-61.9126 L 789.728,-62 L 822.272,-62 L 823.309,-61.8631
 L 824.09,-61.563 L 824.791,-61.1072 L 825.382,-60.5155 L 825.837,-59.814 L 826.136,-59.0331 L 826.267,-58.2071
 L 826.222,-57.372 L 826.006,-56.5644 L 825.626,-55.8196 L 825.099,-55.17 L 824.449,-54.6441 L 823.703,-54.2649
 L 807.431,-48.0291 L 806.212,-47.7698 z
M 703.654,-20.9339 L 702.846,-21.1499 L 616.434,-54.2649 L 615.514,-54.7639 L 614.892,-55.3235 L 614.401,-56
 L 614.061,-56.7639 L 613.887,-57.5819 L 613.887,-58.4181 L 614.061,-59.2361 L 614.401,-60 L 614.892,-60.6765
 L 615.514,-61.2361 L 616.238,-61.6542 L 617.033,-61.9126 L 617.865,-62 L 704.278,-62 L 705.514,-61.8042
 L 706.278,-61.4641 L 706.954,-60.9726 L 707.514,-60.3511 L 707.932,-59.627 L 708.19,-58.8316 L 708.278,-58
 L 708.278,-24.885 L 708.142,-23.8519 L 707.843,-23.0711 L 707.388,-22.3695 L 706.797,-21.7779 L 706.096,-21.322
 L 705.315,-21.0219 L 704.489,-20.8906 z
M 526.21,-20.9339 L 525.402,-21.1499 L 438.989,-54.2649 L 438.069,-54.7639 L 437.448,-55.3235 L 436.956,-56
 L 436.616,-56.7639 L 436.442,-57.5819 L 436.442,-58.4181 L 436.616,-59.2361 L 436.956,-60 L 437.448,-60.6765
 L 438.069,-61.2361 L 438.794,-61.6542 L 439.589,-61.9126 L 440.421,-62 L 526.833,-62 L 528.069,-61.8042
 L 528.833,-61.4641 L 529.51,-60.9726 L 530.069,-60.3511 L 530.488,-59.627 L 530.746,-58.8316 L 530.833,-58
 L 530.833,-24.885 L 530.698,-23.8519 L 530.398,-23.0711 L 529.943,-22.3695 L 529.352,-21.7779 L 528.651,-21.322
 L 527.871,-21.0219 L 527.045,-20.8906 z
M 348.765,-20.9339 L 347.958,-21.1499 L 261.545,-54.2649 L 260.625,-54.7639 L 260.004,-55.3235 L 259.512,-56
 L 259.172,-56.7639 L 258.998,-57.5819 L 258.998,-58.4181 L 259.172,-59.2361 L 259.512,-60 L 260.004,-60.6765
 L 260.625,-61.2361 L 261.349,-61.6542 L 262.144,-61.9126 L 262.976,-62 L 349.389,-62 L 350.625,-61.8042
 L 351.389,-61.4641 L 352.065,-60.9726 L 352.625,-60.3511 L 353.043,-59.627 L 353.301,-58.8316 L 353.389,-58
 L 353.389,-24.885 L 353.253,-23.8519 L 352.954,-23.0711 L 352.499,-22.3695 L 351.908,-21.7779 L 351.207,-21.322
 L 350.426,-21.0219 L 349.6,-20.8906 z
M 1439.02,-21.0219 L 1438.24,-21.322 L 1437.54,-21.7779 L 1436.95,-22.3695 L 1436.49,-23.0711 L 1436.19,-23.8519
 L 1436.06,-24.885 L 1436.06,-58 L 1436.14,-58.8316 L 1436.4,-59.627 L 1436.82,-60.3511 L 1437.38,-60.9726
 L 1438.06,-61.4641 L 1438.82,-61.8042 L 1440.06,-62 L 1526.47,-62 L 1527.3,-61.9126 L 1528.1,-61.6542
 L 1528.82,-61.2361 L 1529.44,-60.6765 L 1529.93,-60 L 1530.27,-59.2361 L 1530.45,-58.4181 L 1530.45,-57.5819
 L 1530.27,-56.7639 L 1529.93,-56 L 1529.44,-55.3235 L 1528.82,-54.7639 L 1527.9,-54.2649 L 1441.49,-21.1499
 L 1440.68,-20.9339 L 1439.84,-20.8906 z
M 171.321,-20.9339 L 170.513,-21.1499 L 84.1003,-54.2649 L 83.1806,-54.7639 L 82.5591,-55.3235 L 82.0676,-56
 L 81.7275,-56.7639 L 81.5536,-57.5819 L 81.5536,-58.4181 L 81.7275,-59.2361 L 82.0676,-60 L 82.5591,-60.6765
 L 83.1806,-61.2361 L 83.9047,-61.6542 L 84.7,-61.9126 L 85.5317,-62 L 171.944,-62 L 173.181,-61.8042
 L 173.944,-61.4641 L 174.621,-60.9726 L 175.181,-60.3511 L 175.599,-59.627 L 175.857,-58.8316 L 175.944,-58
 L 175.944,-24.885 L 175.809,-23.8519 L 175.509,-23.0711 L 175.054,-22.3695 L 174.463,-21.7779 L 173.762,-21.322
 L 172.982,-21.0219 L 172.156,-20.8906 z
M 1261.57,-21.0219 L 1260.79,-21.322 L 1260.09,-21.7779 L 1259.5,-22.3695 L 1259.05,-23.0711 L 1258.75,-23.8519
 L 1258.61,-24.885 L 1258.61,-58 L 1258.7,-58.8316 L 1258.96,-59.627 L 1259.38,-60.3511 L 1259.93,-60.9726
 L 1260.61,-61.4641 L 1261.38,-61.8042 L 1262.61,-62 L 1349.02,-62 L 1349.86,-61.9126 L 1350.65,-61.6542
 L 1351.37,-61.2361 L 1352,-60.6765 L 1352.49,-60 L 1352.83,-59.2361 L 1353,-58.4181 L 1353,-57.5819
 L 1352.83,-56.7639 L 1352.49,-56 L 1352,-55.3235 L 1351.37,-54.7639 L 1350.46,-54.2649 L 1264.04,-21.1499
 L 1263.23,-20.9339 L 1262.4,-20.8906 z
M 729.86,-18.768 L 729.042,-18.9419 L 728.278,-19.282 L 727.601,-19.7735 L 727.042,-20.395 L 726.624,-21.1191
 L 726.365,-21.9144 L 726.278,-22.7461 L 726.278,-57.2539 L 726.413,-58.287 L 726.713,-59.0679 L 727.168,-59.7694
 L 727.759,-60.3611 L 728.46,-60.8169 L 729.24,-61.117 L 730.066,-61.2483 L 730.901,-61.205 L 731.709,-60.989
 L 776.733,-43.7351 L 777.119,-43.563 L 777.82,-43.1072 L 778.411,-42.5155 L 778.867,-41.8139 L 779.166,-41.0331
 L 779.296,-40.2071 L 779.252,-39.372 L 779.035,-38.5644 L 778.655,-37.8195 L 778.128,-37.17 L 777.478,-36.6441
 L 776.733,-36.2649 L 731.709,-19.011 L 730.696,-18.768 z
M 881.099,-18.795 L 880.291,-19.011 L 835.267,-36.2649 L 834.881,-36.437 L 834.179,-36.8928 L 833.589,-37.4845
 L 833.133,-38.1861 L 832.834,-38.9669 L 832.704,-39.7929 L 832.748,-40.628 L 832.965,-41.4356 L 833.345,-42.1805
 L 833.872,-42.83 L 834.522,-43.3559 L 835.267,-43.7351 L 880.291,-60.989 L 881.304,-61.232 L 882.14,-61.232
 L 882.958,-61.0582 L 883.722,-60.718 L 884.399,-60.2265 L 884.958,-59.6051 L 885.376,-58.8809 L 885.635,-58.0856
 L 885.722,-57.2539 L 885.722,-22.7461 L 885.587,-21.713 L 885.287,-20.9321 L 884.832,-20.2305 L 884.241,-19.6389
 L 883.54,-19.1831 L 882.76,-18.883 L 881.934,-18.7517 z
M 197.944,-18 L 196.708,-18.1958 L 195.944,-18.5359 L 195.268,-19.0274 L 194.708,-19.6489 L 194.29,-20.373
 L 194.032,-21.1684 L 193.944,-22 L 193.944,-55.1149 L 194.08,-56.148 L 194.379,-56.9289 L 194.834,-57.6305
 L 195.425,-58.2221 L 196.126,-58.6779 L 196.907,-58.9781 L 197.733,-59.1093 L 198.568,-59.0661 L 199.376,-58.8501
 L 285.789,-25.7351 L 286.708,-25.2361 L 287.33,-24.6765 L 287.821,-24 L 288.161,-23.2361 L 288.335,-22.4181
 L 288.335,-21.5819 L 288.161,-20.7639 L 287.821,-20 L 287.33,-19.3235 L 286.708,-18.7639 L 285.984,-18.3458
 L 285.189,-18.0874 L 284.357,-18 z
M 375.389,-18 L 374.153,-18.1958 L 373.389,-18.5359 L 372.712,-19.0274 L 372.153,-19.6489 L 371.735,-20.373
 L 371.476,-21.1684 L 371.389,-22 L 371.389,-55.1149 L 371.525,-56.148 L 371.824,-56.9289 L 372.279,-57.6305
 L 372.87,-58.2221 L 373.571,-58.6779 L 374.351,-58.9781 L 375.177,-59.1093 L 376.012,-59.0661 L 376.82,-58.8501
 L 463.233,-25.7351 L 464.153,-25.2361 L 464.774,-24.6765 L 465.266,-24 L 465.606,-23.2361 L 465.78,-22.4181
 L 465.78,-21.5819 L 465.606,-20.7639 L 465.266,-20 L 464.774,-19.3235 L 464.153,-18.7639 L 463.429,-18.3458
 L 462.633,-18.0874 L 461.802,-18 z
M 552.833,-18 L 551.597,-18.1958 L 550.833,-18.5359 L 550.157,-19.0274 L 549.597,-19.6489 L 549.179,-20.373
 L 548.921,-21.1684 L 548.833,-22 L 548.833,-55.1149 L 548.969,-56.148 L 549.268,-56.9289 L 549.723,-57.6305
 L 550.314,-58.2221 L 551.015,-58.6779 L 551.796,-58.9781 L 552.622,-59.1093 L 553.457,-59.0661 L 554.265,-58.8501
 L 640.677,-25.7351 L 641.597,-25.2361 L 642.219,-24.6765 L 642.71,-24 L 643.05,-23.2361 L 643.224,-22.4181
 L 643.224,-21.5819 L 643.05,-20.7639 L 642.71,-20 L 642.219,-19.3235 L 641.597,-18.7639 L 640.873,-18.3458
 L 640.078,-18.0874 L 639.246,-18 z
M 972.754,-18 L 971.922,-18.0874 L 971.127,-18.3458 L 970.403,-18.7639 L 969.781,-19.3235 L 969.29,-20
 L 968.95,-20.7639 L 968.776,-21.5819 L 968.776,-22.4181 L 968.95,-23.2361 L 969.29,-24 L 969.781,-24.6765
 L 970.403,-25.2361 L 971.323,-25.7351 L 1057.74,-58.8501 L 1058.54,-59.0661 L 1059.38,-59.1093 L 1060.2,-58.9781
 L 1060.98,-58.6779 L 1061.69,-58.2221 L 1062.28,-57.6305 L 1062.73,-56.9289 L 1063.03,-56.148 L 1063.17,-55.1149
 L 1063.17,-22 L 1063.08,-21.1684 L 1062.82,-20.373 L 1062.4,-19.6489 L 1061.84,-19.0274 L 1061.17,-18.5359
 L 1060.4,-18.1958 L 1059.17,-18 z
M 1150.2,-18 L 1149.37,-18.0874 L 1148.57,-18.3458 L 1147.85,-18.7639 L 1147.23,-19.3235 L 1146.73,-20
 L 1146.39,-20.7639 L 1146.22,-21.5819 L 1146.22,-22.4181 L 1146.39,-23.2361 L 1146.73,-24 L 1147.23,-24.6765
 L 1147.85,-25.2361 L 1148.77,-25.7351 L 1235.18,-58.8501 L 1235.99,-59.0661 L 1236.82,-59.1093 L 1237.65,-58.9781
 L 1238.43,-58.6779 L 1239.13,-58.2221 L 1239.72,-57.6305 L 1240.18,-56.9289 L 1240.48,-56.148 L 1240.61,-55.1149
 L 1240.61,-22 L 1240.52,-21.1684 L 1240.27,-20.373 L 1239.85,-19.6489 L 1239.29,-19.0274 L 1238.61,-18.5359
 L 1237.85,-18.1958 L 1236.61,-18 z
M 1327.64,-18 L 1326.81,-18.0874 L 1326.02,-18.3458 L 1325.29,-18.7639 L 1324.67,-19.3235 L 1324.18,-20
 L 1323.84,-20.7639 L 1323.66,-21.5819 L 1323.66,-22.4181 L 1323.84,-23.2361 L 1324.18,-24 L 1324.67,-24.6765
 L 1325.29,-25.2361 L 1326.21,-25.7351 L 1412.62,-58.8501 L 1413.43,-59.0661 L 1414.27,-59.1093 L 1415.09,-58.9781
 L 1415.87,-58.6779 L 1416.57,-58.2221 L 1417.17,-57.6305 L 1417.62,-56.9289 L 1417.92,-56.148 L 1418.06,-55.1149
 L 1418.06,-22 L 1417.97,-21.1684 L 1417.71,-20.373 L 1417.29,-19.6489 L 1416.73,-19.0274 L 1416.06,-18.5359
 L 1415.29,-18.1958 L 1414.06,-18 z
M 22,-18 L 20.7639,-18.1958 L 20,-18.5359 L 19.3235,-19.0274 L 18.7639,-19.6489 L 18.3458,-20.373
 L 18.0874,-21.1684 L 18,-22 L 18,-54.5401 L 18.1357,-55.5732 L 18.435,-56.3541 L 18.89,-57.0557
 L 19.481,-57.6473 L 20.182,-58.1031 L 20.9626,-58.4032 L 21.7884,-58.5345 L 22.6235,-58.4912 L 23.4314,-58.2753
 L 108.344,-25.7351 L 109.264,-25.2361 L 109.885,-24.6765 L 110.377,-24 L 110.717,-23.2361 L 110.891,-22.4181
 L 110.891,-21.5819 L 110.717,-20.7639 L 110.377,-20 L 109.885,-19.3235 L 109.264,-18.7639 L 108.54,-18.3458
 L 107.744,-18.0874 L 106.913,-18 z
M 1505.09,-18 L 1504.26,-18.0874 L 1503.46,-18.3458 L 1502.74,-18.7639 L 1502.11,-19.3235 L 1501.62,-20
 L 1501.28,-20.7639 L 1501.11,-21.5819 L 1501.11,-22.4181 L 1501.28,-23.2361 L 1501.62,-24 L 1502.11,-24.6765
 L 1502.74,-25.2361 L 1503.66,-25.7351 L 1588.57,-58.2753 L 1589.38,-58.4912 L 1590.21,-58.5345 L 1591.04,-58.4032
 L 1591.82,-58.1031 L 1592.52,-57.6473 L 1593.11,-57.0557 L 1593.57,-56.3541 L 1593.86,-55.5732 L 1594,-54.5401
 L 1594,-22 L 1593.91,-21.1684 L 1593.65,-20.373 L 1593.24,-19.6489 L 1592.68,-19.0274 L 1592,-18.5359
 L 1591.24,-18.1958 L 1590,-18 z
M 789.728,-18 L 788.69,-18.1369 L 787.91,-18.437 L 787.209,-18.8928 L 786.618,-19.4845 L 786.163,-20.186
 L 785.864,-20.9669 L 785.733,-21.7929 L 785.778,-22.628 L 785.994,-23.4356 L 786.374,-24.1804 L 786.901,-24.83
 L 787.551,-25.3559 L 788.297,-25.7351 L 804.569,-31.9709 L 805.788,-32.2302 L 806.624,-32.1869 L 807.431,-31.9709
 L 823.703,-25.7351 L 824.623,-25.2361 L 825.245,-24.6765 L 825.736,-24 L 826.076,-23.2361 L 826.25,-22.4181
 L 826.25,-21.5819 L 826.076,-20.7639 L 825.736,-20 L 825.245,-19.3235 L 824.623,-18.7639 L 823.899,-18.3458
 L 823.104,-18.0874 L 822.272,-18 z
" stroke="black" fill="lightgray" stroke-width="0.5"/>
</svg>
