<?xml version="1.0" standalone="no"?>
<!DOCTYPE svg PUBLIC "-//W3C//DTD SVG 1.1//EN" "http://www.w3.org/Graphics/SVG/1.1/DTD/svg11.dtd">
<svg width="1180mm" height="80mm" viewBox="0 -80 1180 80" xmlns="http://www.w3.org/2000/svg" version="1.1">
<title>OpenSCAD Model</title>
<path d="
M 1180,-80 L 0,-80 L 0,-0 L 4.95,-0 L 4.95,-6 L 5.00572,-6.53017
 L 5.17046,-7.03717 L 5.437,-7.49884 L 5.79372,-7.895 L 6.22499,-8.20836 L 6.71201,-8.42519 L 7.23344,-8.53603
 L 7.76654,-8.53603 L 8.28798,-8.42519 L 8.77499,-8.20836 L 9.20627,-7.895 L 9.56299,-7.49884 L 9.82953,-7.03717
 L 9.99426,-6.53017 L 10.05,-6 L 10.05,-0 L 199.117,-0 L 199.117,-6 L 199.172,-6.53017
 L 199.337,-7.03717 L 199.604,-7.49884 L 199.96,-7.895 L 200.392,-8.20836 L 200.879,-8.42519 L 201.4,-8.53603
 L 201.933,-8.53603 L 202.455,-8.42519 L 202.942,-8.20836 L 203.373,-7.895 L 203.73,-7.49884 L 203.996,-7.03717
 L 204.161,-6.53017 L 204.217,-6 L 204.217,-0 L 393.283,-0 L 393.283,-6 L 393.339,-6.53017
 L 393.504,-7.03717 L 393.77,-7.49884 L 394.127,-7.895 L 394.558,-8.20836 L 395.045,-8.42519 L 395.567,-8.53603
 L 396.1,-8.53603 L 396.621,-8.42519 L 397.108,-8.20836 L 397.54,-7.895 L 397.896,-7.49884 L 398.163,-7.03717
 L 398.328,-6.53017 L 398.383,-6 L 398.383,-0 L 587.45,-0 L 587.45,-6 L 587.506,-6.53017
 L 587.67,-7.03717 L 587.937,-7.49884 L 588.294,-7.895 L 588.725,-8.20836 L 589.212,-8.42519 L 589.733,-8.53603
 L 590.267,-8.53603 L 590.788,-8.42519 L 591.275,-8.20836 L 591.706,-7.895 L 592.063,-7.49884 L 592.33,-7.03717
 L 592.494,-6.53017 L 592.55,-6 L 592.55,-0 L 781.617,-0 L 781.617,-6 L 781.672,-6.53017
 L 781.837,-7.03717 L 782.104,-7.49884 L 782.46,-7.895 L 782.892,-8.20836 L 783.379,-8.42519 L 783.9,-8.53603
 L 784.433,-8.53603 L 784.955,-8.42519 L 785.442,-8.20836 L 785.873,-7.895 L 786.23,-7.49884 L 786.496,-7.03717
 L 786.661,-6.53017 L 786.717,-6 L 786.717,-0 L 975.783,-0 L 975.783,-6 L 975.839,-6.53017
 L 976.004,-7.03717 L 976.27,-7.49884 L 976.627,-7.895 L 977.058,-8.20836 L 977.545,-8.42519 L 978.067,-8.53603
 L 978.6,-8.53603 L 979.121,-8.42519 L 979.608,-8.20836 L 980.04,-7.895 L 980.396,-7.49884 L 980.663,-7.03717
 L 980.828,-6.53017 L 980.883,-6 L 980.883,-0 L 1169.95,-0 L 1169.95,-6 L 1170.01,-6.53017
 L 1170.17,-7.03717 L 1170.44,-7.49884 L 1170.79,-7.895 L 1171.22,-8.20836 L 1171.71,-8.42519 L 1172.23,-8.53603
 L 1172.77,-8.53603 L 1173.29,-8.42519 L 1173.77,-8.20836 L 1174.21,-7.895 L 1174.56,-7.49884 L 1174.83,-7.03717
 L 1174.99,-6.53017 L 1175.05,-6 L 1175.05,-0 L 1180,-0 z
M 6.98573,-55.607 L 6.47708,-55.6875 L 5.97964,-55.8208 L 5.49887,-56.0054 L 5.04001,-56.2392 L 4.60811,-56.5196
 L 4.20789,-56.8437 L 3.84373,-57.2079 L 3.51964,-57.6081 L 3.23917,-58.04 L 3.00537,-58.4989 L 2.82082,-58.9796
 L 2.68752,-59.4771 L 2.60696,-59.9857 L 2.58,-60.5 L 2.60696,-61.0143 L 2.68752,-61.5229 L 2.82082,-62.0204
 L 3.00537,-62.5011 L 3.23917,-62.96 L 3.51964,-63.3919 L 3.84373,-63.7921 L 4.20789,-64.1563 L 4.60811,-64.4804
 L 4.95001,-64.7024 L 4.95001,-74 L 5.00574,-74.5302 L 5.17047,-75.0372 L 5.43701,-75.4988 L 5.79373,-75.895
 L 6.22501,-76.2084 L 6.71202,-76.4252 L 7.23346,-76.536 L 7.76654,-76.536 L 8.28798,-76.4252 L 8.77499,-76.2084
 L 9.20627,-75.895 L 9.56299,-75.4988 L 9.82953,-75.0372 L 9.99426,-74.5302 L 10.05,-74 L 10.05,-64.7024
 L 10.3919,-64.4804 L 10.7921,-64.1563 L 11.1563,-63.7921 L 11.4804,-63.3919 L 11.7608,-62.96 L 11.9946,-62.5011
 L 12.1792,-62.0204 L 12.3125,-61.5229 L 12.393,-61.0143 L 12.42,-60.5 L 12.393,-59.9857 L 12.3125,-59.4771
 L 12.1792,-58.9796 L 11.9946,-58.4989 L 11.7608,-58.04 L 11.4804,-57.6081 L 11.1563,-57.2079 L 10.7921,-56.8437
 L 10.3919,-56.5196 L 9.95999,-56.2392 L 9.50113,-56.0054 L 9.02036,-55.8208 L 8.52292,-55.6875 L 8.01427,-55.607
 L 7.5,-55.58 z
M 201.152,-55.607 L 200.644,-55.6875 L 200.146,-55.8208 L 199.666,-56.0054 L 199.207,-56.2392 L 198.775,-56.5196
 L 198.375,-56.8437 L 198.01,-57.2079 L 197.686,-57.6081 L 197.406,-58.04 L 197.172,-58.4989 L 196.987,-58.9796
 L 196.854,-59.4771 L 196.774,-59.9857 L 196.747,-60.5 L 196.774,-61.0143 L 196.854,-61.5229 L 196.987,-62.0204
 L 197.172,-62.5011 L 197.406,-62.96 L 197.686,-63.3919 L 198.01,-63.7921 L 198.375,-64.1563 L 198.775,-64.4804
 L 199.117,-64.7024 L 199.117,-74 L 199.172,-74.5302 L 199.337,-75.0372 L 199.604,-75.4988 L 199.96,-75.895
 L 200.392,-76.2084 L 200.879,-76.4252 L 201.4,-76.536 L 201.933,-76.536 L 202.455,-76.4252 L 202.942,-76.2084
 L 203.373,-75.895 L 203.73,-75.4988 L 203.996,-75.0372 L 204.161,-74.5302 L 204.217,-74 L 204.217,-64.7024
 L 204.559,-64.4804 L 204.959,-64.1563 L 205.323,-63.7921 L 205.647,-63.3919 L 205.927,-62.96 L 206.161,-62.5011
 L 206.346,-62.0204 L 206.479,-61.5229 L 206.56,-61.0143 L 206.587,-60.5 L 206.56,-59.9857 L 206.479,-59.4771
 L 206.346,-58.9796 L 206.161,-58.4989 L 205.927,-58.04 L 205.647,-57.6081 L 205.323,-57.2079 L 204.959,-56.8437
 L 204.559,-56.5196 L 204.127,-56.2392 L 203.668,-56.0054 L 203.187,-55.8208 L 202.69,-55.6875 L 202.181,-55.607
 L 201.667,-55.58 z
M 395.319,-55.607 L 394.81,-55.6875 L 394.313,-55.8208 L 393.832,-56.0054 L 393.373,-56.2392 L 392.941,-56.5196
 L 392.541,-56.8437 L 392.177,-57.2079 L 391.853,-57.6081 L 391.572,-58.04 L 391.339,-58.4989 L 391.154,-58.9796
 L 391.021,-59.4771 L 390.94,-59.9857 L 390.913,-60.5 L 390.94,-61.0143 L 391.021,-61.5229 L 391.154,-62.0204
 L 391.339,-62.5011 L 391.572,-62.96 L 391.853,-63.3919 L 392.177,-63.7921 L 392.541,-64.1563 L 392.941,-64.4804
 L 393.283,-64.7024 L 393.283,-74 L 393.339,-74.5302 L 393.504,-75.0372 L 393.77,-75.4988 L 394.127,-75.895
 L 394.558,-76.2084 L 395.045,-76.4252 L 395.567,-76.536 L 396.1,-76.536 L 396.621,-76.4252 L 397.108,-76.2084
 L 397.54,-75.895 L 397.896,-75.4988 L 398.163,-75.0372 L 398.328,-74.5302 L 398.383,-74 L 398.383,-64.7024
 L 398.725,-64.4804 L 399.125,-64.1563 L 399.49,-63.7921 L 399.814,-63.3919 L 400.094,-62.96 L 400.328,-62.5011
 L 400.513,-62.0204 L 400.646,-61.5229 L 400.726,-61.0143 L 400.753,-60.5 L 400.726,-59.9857 L 400.646,-59.4771
 L 400.513,-58.9796 L 400.328,-58.4989 L 400.094,-58.04 L 399.814,-57.6081 L 399.49,-57.2079 L 399.125,-56.8437
 L 398.725,-56.5196 L 398.293,-56.2392 L 397.834,-56.0054 L 397.354,-55.8208 L 396.856,-55.6875 L 396.348,-55.607
 L 395.833,-55.58 z
M 589.486,-55.607 L 588.977,-55.6875 L 588.48,-55.8208 L 587.999,-56.0054 L 587.54,-56.2392 L 587.108,-56.5196
 L 586.708,-56.8437 L 586.344,-57.2079 L 586.02,-57.6081 L 585.739,-58.04 L 585.505,-58.4989 L 585.321,-58.9796
 L 585.188,-59.4771 L 585.107,-59.9857 L 585.08,-60.5 L 585.107,-61.0143 L 585.188,-61.5229 L 585.321,-62.0204
 L 585.505,-62.5011 L 585.739,-62.96 L 586.02,-63.3919 L 586.344,-63.7921 L 586.708,-64.1563 L 587.108,-64.4804
 L 587.45,-64.7024 L 587.45,-74 L 587.506,-74.5302 L 587.67,-75.0372 L 587.937,-75.4988 L 588.294,-75.895
 L 588.725,-76.2084 L 589.212,-76.4252 L 589.733,-76.536 L 590.267,-76.536 L 590.788,-76.4252 L 591.275,-76.2084
 L 591.706,-75.895 L 592.063,-75.4988 L 592.33,-75.0372 L 592.494,-74.5302 L 592.55,-74 L 592.55,-64.7024
 L 592.892,-64.4804 L 593.292,-64.1563 L 593.656,-63.7921 L 593.98,-63.3919 L 594.261,-62.96 L 594.495,-62.5011
 L 594.679,-62.0204 L 594.812,-61.5229 L 594.893,-61.0143 L 594.92,-60.5 L 594.893,-59.9857 L 594.812,-59.4771
 L 594.679,-58.9796 L 594.495,-58.4989 L 594.261,-58.04 L 593.98,-57.6081 L 593.656,-57.2079 L 593.292,-56.8437
 L 592.892,-56.5196 L 592.46,-56.2392 L 592.001,-56.0054 L 591.52,-55.8208 L 591.023,-55.6875 L 590.514,-55.607
 L 590,-55.58 z
M 783.652,-55.607 L 783.144,-55.6875 L 782.646,-55.8208 L 782.166,-56.0054 L 781.707,-56.2392 L 781.275,-56.5196
 L 780.875,-56.8437 L 780.51,-57.2079 L 780.186,-57.6081 L 779.906,-58.04 L 779.672,-58.4989 L 779.487,-58.9796
 L 779.354,-59.4771 L 779.274,-59.9857 L 779.247,-60.5 L 779.274,-61.0143 L 779.354,-61.5229 L 779.487,-62.0204
 L 779.672,-62.5011 L 779.906,-62.96 L 780.186,-63.3919 L 780.51,-63.7921 L 780.875,-64.1563 L 781.275,-64.4804
 L 781.617,-64.7024 L 781.617,-74 L 781.672,-74.5302 L 781.837,-75.0372 L 782.104,-75.4988 L 782.46,-75.895
 L 782.892,-76.2084 L 783.379,-76.4252 L 783.9,-76.536 L 784.433,-76.536 L 784.955,-76.4252 L 785.442,-76.2084
 L 785.873,-75.895 L 786.23,-75.4988 L 786.496,-75.0372 L 786.661,-74.5302 L 786.717,-74 L 786.717,-64.7024
 L 787.059,-64.4804 L 787.459,-64.1563 L 787.823,-63.7921 L 788.147,-63.3919 L 788.427,-62.96 L 788.661,-62.5011
 L 788.846,-62.0204 L 788.979,-61.5229 L 789.06,-61.0143 L 789.087,-60.5 L 789.06,-59.9857 L 788.979,-59.4771
 L 788.846,-58.9796 L 788.661,-58.4989 L 788.427,-58.04 L 788.147,-57.6081 L 787.823,-57.2079 L 787.459,-56.8437
 L 787.059,-56.5196 L 786.627,-56.2392 L 786.168,-56.0054 L 785.687,-55.8208 L 785.19,-55.6875 L 784.681,-55.607
 L 784.167,-55.58 z
M 977.819,-55.607 L 977.31,-55.6875 L 976.813,-55.8208 L 976.332,-56.0054 L 975.873,-56.2392 L 975.441,-56.5196
 L 975.041,-56.8437 L 974.677,-57.2079 L 974.353,-57.6081 L 974.072,-58.04 L 973.839,-58.4989 L 973.654,-58.9796
 L 973.521,-59.4771 L 973.44,-59.9857 L 973.413,-60.5 L 973.44,-61.0143 L 973.521,-61.5229 L 973.654,-62.0204
 L 973.839,-62.5011 L 974.072,-62.96 L 974.353,-63.3919 L 974.677,-63.7921 L 975.041,-64.1563 L 975.441,-64.4804
 L 975.783,-64.7024 L 975.783,-74 L 975.839,-74.5302 L 976.004,-75.0372 L 976.27,-75.4988 L 976.627,-75.895
 L 977.058,-76.2084 L 977.545,-76.4252 L 978.067,-76.536 L 978.6,-76.536 L 979.121,-76.4252 L 979.608,-76.2084
 L 980.04,-75.895 L 980.396,-75.4988 L 980.663,-75.0372 L 980.828,-74.5302 L 980.883,-74 L 980.883,-64.7024
 L 981.225,-64.4804 L 981.625,-64.1563 L 981.99,-63.7921 L 982.314,-63.3919 L 982.594,-62.96 L 982.828,-62.5011
 L 983.013,-62.0204 L 983.146,-61.5229 L 983.226,-61.0143 L 983.253,-60.5 L 983.226,-59.9857 L 983.146,-59.4771
 L 983.013,-58.9796 L 982.828,-58.4989 L 982.594,-58.04 L 982.314,-57.6081 L 981.99,-57.2079 L 981.625,-56.8437
 L 981.225,-56.5196 L 980.793,-56.2392 L 980.334,-56.0054 L 979.854,-55.8208 L 979.356,-55.6875 L 978.848,-55.607
 L 978.333,-55.58 z
M 1171.99,-55.607 L 1171.48,-55.6875 L 1170.98,-55.8208 L 1170.5,-56.0054 L 1170.04,-56.2392 L 1169.61,-56.5196
 L 1169.21,-56.8437 L 1168.84,-57.2079 L 1168.52,-57.6081 L 1168.24,-58.04 L 1168.01,-58.4989 L 1167.82,-58.9796
 L 1167.69,-59.4771 L 1167.61,-59.9857 L 1167.58,-60.5 L 1167.61,-61.0143 L 1167.69,-61.5229 L 1167.82,-62.0204
 L 1168.01,-62.5011 L 1168.24,-62.96 L 1168.52,-63.3919 L 1168.84,-63.7921 L 1169.21,-64.1563 L 1169.61,-64.4804
 L 1169.95,-64.7024 L 1169.95,-74 L 1170.01,-74.5302 L 1170.17,-75.0372 L 1170.44,-75.4988 L 1170.79,-75.895
 L 1171.23,-76.2084 L 1171.71,-76.4252 L 1172.23,-76.536 L 1172.77,-76.536 L 1173.29,-76.4252 L 1173.77,-76.2084
 L 1174.21,-75.895 L 1174.56,-75.4988 L 1174.83,-75.0372 L 1174.99,-74.5302 L 1175.05,-74 L 1175.05,-64.7024
 L 1175.39,-64.4804 L 1175.79,-64.1563 L 1176.16,-63.7921 L 1176.48,-63.3919 L 1176.76,-62.96 L 1176.99,-62.5011
 L 1177.18,-62.0204 L 1177.31,-61.5229 L 1177.39,-61.0143 L 1177.42,-60.5 L 1177.39,-59.9857 L 1177.31,-59.4771
 L 1177.18,-58.9796 L 1176.99,-58.4989 L 1176.76,-58.04 L 1176.48,-57.6081 L 1176.16,-57.2079 L 1175.79,-56.8437
 L 1175.39,-56.5196 L 1174.96,-56.2392 L 1174.5,-56.0054 L 1174.02,-55.8208 L 1173.52,-55.6875 L 1173.01,-55.607
 L 1172.5,-55.58 z
M 990.184,-20.4921 L 989.412,-20.8148 L 988.725,-21.2908 L 988.151,-21.8994 L 987.717,-22.6139 L 987.441,-23.4031
 L 987.333,-24.3234 L 987.333,-58 L 987.421,-58.8316 L 987.679,-59.627 L 988.097,-60.3511 L 988.657,-60.9726
 L 989.333,-61.4641 L 990.097,-61.8042 L 991.333,-62 L 1087.49,-62 L 1088.32,-61.9126 L 1089.12,-61.6542
 L 1089.84,-61.2361 L 1090.47,-60.6765 L 1090.96,-60 L 1091.3,-59.2361 L 1091.47,-58.4181 L 1091.47,-57.5819
 L 1091.3,-56.7639 L 1090.96,-56 L 1090.47,-55.3235 L 1089.84,-54.7639 L 1088.82,-54.2248 L 992.655,-20.5482
 L 991.842,-20.3558 L 991.006,-20.3369 z
M 382.325,-20.3558 L 381.511,-20.5482 L 285.351,-54.2248 L 284.322,-54.7639 L 283.701,-55.3235 L 283.209,-56
 L 282.869,-56.7639 L 282.695,-57.5819 L 282.695,-58.4181 L 282.869,-59.2361 L 283.209,-60 L 283.701,-60.6765
 L 284.322,-61.2361 L 285.046,-61.6542 L 285.842,-61.9126 L 286.673,-62 L 382.833,-62 L 384.069,-61.8042
 L 384.833,-61.4641 L 385.51,-60.9726 L 386.069,-60.3511 L 386.487,-59.627 L 386.746,-58.8316 L 386.833,-58
 L 386.833,-24.3234 L 386.726,-23.4031 L 386.45,-22.6139 L 386.015,-21.8994 L 385.442,-21.2908 L 384.754,-20.8148
 L 383.983,-20.4921 L 383.161,-20.3369 z
M 188.158,-20.3558 L 187.345,-20.5482 L 91.1846,-54.2248 L 90.1556,-54.7639 L 89.5342,-55.3235 L 89.0427,-56
 L 88.7025,-56.7639 L 88.5287,-57.5819 L 88.5287,-58.4181 L 88.7025,-59.2361 L 89.0427,-60 L 89.5342,-60.6765
 L 90.1556,-61.2361 L 90.8798,-61.6542 L 91.6751,-61.9126 L 92.5068,-62 L 188.667,-62 L 189.903,-61.8042
 L 190.667,-61.4641 L 191.343,-60.9726 L 191.903,-60.3511 L 192.321,-59.627 L 192.579,-58.8316 L 192.667,-58
 L 192.667,-24.3234 L 192.559,-23.4031 L 192.283,-22.6139 L 191.849,-21.8994 L 191.275,-21.2908 L 190.587,-20.8148
 L 189.816,-20.4921 L 188.994,-20.3369 z
M 576.492,-20.3558 L 575.678,-20.5482 L 479.518,-54.2248 L 478.489,-54.7639 L 477.868,-55.3235 L 477.376,-56
 L 477.036,-56.7639 L 476.862,-57.5819 L 476.862,-58.4181 L 477.036,-59.2361 L 477.376,-60 L 477.868,-60.6765
 L 478.489,-61.2361 L 479.213,-61.6542 L 480.008,-61.9126 L 480.84,-62 L 577,-62 L 578.236,-61.8042
 L 579,-61.4641 L 579.677,-60.9726 L 580.236,-60.3511 L 580.654,-59.627 L 580.913,-58.8316 L 581,-58
 L 581,-24.3234 L 580.893,-23.4031 L 580.616,-22.6139 L 580.182,-21.8994 L 579.608,-21.2908 L 578.921,-20.8148
 L 578.149,-20.4921 L 577.328,-20.3369 z
M 601.851,-20.4921 L 601.079,-20.8148 L 600.392,-21.2908 L 599.818,-21.8994 L 599.384,-22.6139 L 599.107,-23.4031
 L 599,-24.3234 L 599,-58 L 599.087,-58.8316 L 599.346,-59.627 L 599.764,-60.3511 L 600.323,-60.9726
 L 601,-61.4641 L 601.764,-61.8042 L 603,-62 L 699.16,-62 L 699.992,-61.9126 L 700.787,-61.6542
 L 701.511,-61.2361 L 702.132,-60.6765 L 702.624,-60 L 702.964,-59.2361 L 703.138,-58.4181 L 703.138,-57.5819
 L 702.964,-56.7639 L 702.624,-56 L 702.132,-55.3235 L 701.511,-54.7639 L 700.482,-54.2248 L 604.322,-20.5482
 L 603.508,-20.3558 L 602.672,-20.3369 z
M 796.017,-20.4921 L 795.246,-20.8148 L 794.558,-21.2908 L 793.985,-21.8994 L 793.55,-22.6139 L 793.274,-23.4031
 L 793.167,-24.3234 L 793.167,-58 L 793.254,-58.8316 L 793.512,-59.627 L 793.931,-60.3511 L 794.49,-60.9726
 L 795.167,-61.4641 L 795.931,-61.8042 L 797.167,-62 L 893.327,-62 L 894.158,-61.9126 L 894.954,-61.6542
 L 895.678,-61.2361 L 896.299,-60.6765 L 896.791,-60 L 897.131,-59.2361 L 897.305,-58.4181 L 897.305,-57.5819
 L 897.131,-56.7639 L 896.791,-56 L 896.299,-55.3235 L 895.678,-54.7639 L 894.649,-54.2248 L 798.489,-20.5482
 L 797.675,-20.3558 L 796.839,-20.3369 z
M 214.667,-18 L 213.431,-18.1958 L 212.667,-18.5359 L 211.99,-19.0274 L 211.431,-19.6489 L 211.012,-20.373
 L 210.754,-21.1684 L 210.667,-22 L 210.667,-55.6766 L 210.774,-56.5969 L 211.05,-57.3861 L 211.485,-58.1006
 L 212.058,-58.7092 L 212.746,-59.1852 L 213.517,-59.5079 L 214.339,-59.6631 L 215.175,-59.6442 L 215.989,-59.4518
 L 312.149,-25.7752 L 313.178,-25.2361 L 313.799,-24.6765 L 314.291,-24 L 314.631,-23.2361 L 314.805,-22.4181
 L 314.805,-21.5819 L 314.631,-20.7639 L 314.291,-20 L 313.799,-19.3235 L 313.178,-18.7639 L 312.453,-18.3458
 L 311.658,-18.0874 L 310.827,-18 z
M 408.833,-18 L 407.597,-18.1958 L 406.833,-18.5359 L 406.157,-19.0274 L 405.597,-19.6489 L 405.179,-20.373
 L 404.921,-21.1684 L 404.833,-22 L 404.833,-55.6766 L 404.941,-56.5969 L 405.217,-57.3861 L 405.651,-58.1006
 L 406.225,-58.7092 L 406.912,-59.1852 L 407.684,-59.5079 L 408.506,-59.6631 L 409.342,-59.6442 L 410.155,-59.4518
 L 506.315,-25.7752 L 507.344,-25.2361 L 507.966,-24.6765 L 508.457,-24 L 508.797,-23.2361 L 508.971,-22.4181
 L 508.971,-21.5819 L 508.797,-20.7639 L 508.457,-20 L 507.966,-19.3235 L 507.344,-18.7639 L 506.62,-18.3458
 L 505.825,-18.0874 L 504.993,-18 z
M 675.007,-18 L 674.175,-18.0874 L 673.38,-18.3458 L 672.656,-18.7639 L 672.034,-19.3235 L 671.543,-20
 L 671.203,-20.7639 L 671.029,-21.5819 L 671.029,-22.4181 L 671.203,-23.2361 L 671.543,-24 L 672.034,-24.6765
 L 672.656,-25.2361 L 673.685,-25.7752 L 769.845,-59.4518 L 770.658,-59.6442 L 771.494,-59.6631 L 772.316,-59.5079
 L 773.087,-59.1852 L 773.775,-58.7092 L 774.349,-58.1006 L 774.783,-57.3861 L 775.059,-56.5969 L 775.167,-55.6766
 L 775.167,-22 L 775.079,-21.1684 L 774.821,-20.373 L 774.403,-19.6489 L 773.843,-19.0274 L 773.167,-18.5359
 L 772.403,-18.1958 L 771.167,-18 z
M 869.173,-18 L 868.342,-18.0874 L 867.546,-18.3458 L 866.822,-18.7639 L 866.201,-19.3235 L 865.709,-20
 L 865.369,-20.7639 L 865.195,-21.5819 L 865.195,-22.4181 L 865.369,-23.2361 L 865.709,-24 L 866.201,-24.6765
 L 866.822,-25.2361 L 867.851,-25.7752 L 964.011,-59.4518 L 964.825,-59.6442 L 965.661,-59.6631 L 966.483,-59.5079
 L 967.254,-59.1852 L 967.942,-58.7092 L 968.515,-58.1006 L 968.95,-57.3861 L 969.226,-56.5969 L 969.333,-55.6766
 L 969.333,-22 L 969.246,-21.1684 L 968.988,-20.373 L 968.569,-19.6489 L 968.01,-19.0274 L 967.333,-18.5359
 L 966.569,-18.1958 L 965.333,-18 z
M 1063.34,-18 L 1062.51,-18.0874 L 1061.71,-18.3458 L 1060.99,-18.7639 L 1060.37,-19.3235 L 1059.88,-20
 L 1059.54,-20.7639 L 1059.36,-21.5819 L 1059.36,-22.4181 L 1059.54,-23.2361 L 1059.88,-24 L 1060.37,-24.6765
 L 1060.99,-25.2361 L 1062.02,-25.7752 L 1156.68,-58.9264 L 1157.49,-59.1188 L 1158.33,-59.1378 L 1159.15,-58.9826
 L 1159.92,-58.6599 L 1160.61,-58.1838 L 1161.18,-57.5753 L 1161.62,-56.8607 L 1161.89,-56.0715 L 1162,-55.1513
 L 1162,-22 L 1161.91,-21.1684 L 1161.65,-20.373 L 1161.24,-19.6489 L 1160.68,-19.0274 L 1160,-18.5359
 L 1159.24,-18.1958 L 1158,-18 z
M 22,-18 L 20.7639,-18.1958 L 20,-18.5359 L 19.3235,-19.0274 L 18.7639,-19.6489 L 18.3458,-20.373
 L 18.0874,-21.1684 L 18,-22 L 18,-55.1513 L 18.1073,-56.0715 L 18.3837,-56.8607 L 18.8181,-57.5753
 L 19.3917,-58.1838 L 20.0792,-58.6599 L 20.8506,-58.9826 L 21.6723,-59.1378 L 22.5083,-59.1188 L 23.3221,-58.9264
 L 117.982,-25.7752 L 119.011,-25.2361 L 119.632,-24.6765 L 120.124,-24 L 120.464,-23.2361 L 120.638,-22.4181
 L 120.638,-21.5819 L 120.464,-20.7639 L 120.124,-20 L 119.632,-19.3235 L 119.011,-18.7639 L 118.287,-18.3458
 L 117.492,-18.0874 L 116.66,-18 z
" stroke="black" fill="lightgray" stroke-width="0.5"/>
</svg>
