<?xml version="1.0" standalone="no"?>
<!DOCTYPE svg PUBLIC "-//W3C//DTD SVG 1.1//EN" "http://www.w3.org/Graphics/SVG/1.1/DTD/svg11.dtd">
<svg width="1106mm" height="80mm" viewBox="0 -80 1106 80" xmlns="http://www.w3.org/2000/svg" version="1.1">
<title>OpenSCAD Model</title>
<path d="
M 1106,-80 L 0,-80 L 0,-0 L 4.95,-0 L 4.95,-6 L 5.00572,-6.53017
 L 5.17046,-7.03717 L 5.437,-7.49884 L 5.79372,-7.895 L 6.22499,-8.20836 L 6.71201,-8.42519 L 7.23344,-8.53603
 L 7.76654,-8.53603 L 8.28798,-8.42519 L 8.77499,-8.20836 L 9.20627,-7.895 L 9.56299,-7.49884 L 9.82953,-7.03717
 L 9.99426,-6.53017 L 10.05,-6 L 10.05,-0 L 186.783,-0 L 186.783,-6 L 186.839,-6.53017
 L 187.004,-7.03717 L 187.27,-7.49884 L 187.627,-7.895 L 188.058,-8.20836 L 188.545,-8.42519 L 189.067,-8.53603
 L 189.6,-8.53603 L 190.121,-8.42519 L 190.608,-8.20836 L 191.04,-7.895 L 191.396,-7.49884 L 191.663,-7.03717
 L 191.828,-6.53017 L 191.883,-6 L 191.883,-0 L 368.617,-0 L 368.617,-6 L 368.672,-6.53017
 L 368.837,-7.03717 L 369.104,-7.49884 L 369.46,-7.895 L 369.892,-8.20836 L 370.379,-8.42519 L 370.9,-8.53603
 L 371.433,-8.53603 L 371.955,-8.42519 L 372.442,-8.20836 L 372.873,-7.895 L 373.23,-7.49884 L 373.496,-7.03717
 L 373.661,-6.53017 L 373.717,-6 L 373.717,-0 L 550.45,-0 L 550.45,-6 L 550.506,-6.53017
 L 550.67,-7.03717 L 550.937,-7.49884 L 551.294,-7.895 L 551.725,-8.20836 L 552.212,-8.42519 L 552.733,-8.53603
 L 553.267,-8.53603 L 553.788,-8.42519 L 554.275,-8.20836 L 554.706,-7.895 L 555.063,-7.49884 L 555.33,-7.03717
 L 555.494,-6.53017 L 555.55,-6 L 555.55,-0 L 732.283,-0 L 732.283,-6 L 732.339,-6.53017
 L 732.504,-7.03717 L 732.77,-7.49884 L 733.127,-7.895 L 733.558,-8.20836 L 734.045,-8.42519 L 734.567,-8.53603
 L 735.1,-8.53603 L 735.621,-8.42519 L 736.108,-8.20836 L 736.54,-7.895 L 736.896,-7.49884 L 737.163,-7.03717
 L 737.328,-6.53017 L 737.383,-6 L 737.383,-0 L 914.117,-0 L 914.117,-6 L 914.172,-6.53017
 L 914.337,-7.03717 L 914.604,-7.49884 L 914.96,-7.895 L 915.392,-8.20836 L 915.879,-8.42519 L 916.4,-8.53603
 L 916.933,-8.53603 L 917.455,-8.42519 L 917.942,-8.20836 L 918.373,-7.895 L 918.73,-7.49884 L 918.996,-7.03717
 L 919.161,-6.53017 L 919.217,-6 L 919.217,-0 L 1095.95,-0 L 1095.95,-6 L 1096.01,-6.53017
 L 1096.17,-7.03717 L 1096.44,-7.49884 L 1096.79,-7.895 L 1097.22,-8.20836 L 1097.71,-8.42519 L 1098.23,-8.53603
 L 1098.77,-8.53603 L 1099.29,-8.42519 L 1099.77,-8.20836 L 1100.21,-7.895 L 1100.56,-7.49884 L 1100.83,-7.03717
 L 1100.99,-6.53017 L 1101.05,-6 L 1101.05,-0 L 1106,-0 z
M 6.98573,-55.607 L 6.47708,-55.6875 L 5.97964,-55.8208 L 5.49887,-56.0054 L 5.04001,-56.2392 L 4.60811,-56.5196
 L 4.20789,-56.8437 L 3.84373,-57.2079 L 3.51964,-57.6081 L 3.23917,-58.04 L 3.00537,-58.4989 L 2.82082,-58.9796
 L 2.68752,-59.4771 L 2.60696,-59.9857 L 2.58,-60.5 L 2.60696,-61.0143 L 2.68752,-61.5229 L 2.82082,-62.0204
 L 3.00537,-62.5011 L 3.23917,-62.96 L 3.51964,-63.3919 L 3.84373,-63.7921 L 4.20789,-64.1563 L 4.60811,-64.4804
 L 4.95001,-64.7024 L 4.95001,-74 L 5.00574,-74.5302 L 5.17047,-75.0372 L 5.43701,-75.4988 L 5.79373,-75.895
 L 6.22501,-76.2084 L 6.71202,-76.4252 L 7.23346,-76.536 L 7.76654,-76.536 L 8.28798,-76.4252 L 8.77499,-76.2084
 L 9.20627,-75.895 L 9.56299,-75.4988 L 9.82953,-75.0372 L 9.99426,-74.5302 L 10.05,-74 L 10.05,-64.7024
 L 10.3919,-64.4804 L 10.7921,-64.1563 L 11.1563,-63.7921 L 11.4804,-63.3919 L 11.7608,-62.96 L 11.9946,-62.5011
 L 12.1792,-62.0204 L 12.3125,-61.5229 L 12.393,-61.0143 L 12.42,-60.5 L 12.393,-59.9857 L 12.3125,-59.4771
 L 12.1792,-58.9796 L 11.9946,-58.4989 L 11.7608,-58.04 L 11.4804,-57.6081 L 11.1563,-57.2079 L 10.7921,-56.8437
 L 10.3919,-56.5196 L 9.95999,-56.2392 L 9.50113,-56.0054 L 9.02036,-55.8208 L 8.52292,-55.6875 L 8.01427,-55.607
 L 7.5,-55.58 z
M 188.819,-55.607 L 188.31,-55.6875 L 187.813,-55.8208 L 187.332,-56.0054 L 186.873,-56.2392 L 186.441,-56.5196
 L 186.041,-56.8437 L 185.677,-57.2079 L 185.353,-57.6081 L 185.072,-58.04 L 184.839,-58.4989 L 184.654,-58.9796
 L 184.521,-59.4771 L 184.44,-59.9857 L 184.413,-60.5 L 184.44,-61.0143 L 184.521,-61.5229 L 184.654,-62.0204
 L 184.839,-62.5011 L 185.072,-62.96 L 185.353,-63.3919 L 185.677,-63.7921 L 186.041,-64.1563 L 186.441,-64.4804
 L 186.783,-64.7024 L 186.783,-74 L 186.839,-74.5302 L 187.004,-75.0372 L 187.27,-75.4988 L 187.627,-75.895
 L 188.058,-76.2084 L 188.545,-76.4252 L 189.067,-76.536 L 189.6,-76.536 L 190.121,-76.4252 L 190.608,-76.2084
 L 191.04,-75.895 L 191.396,-75.4988 L 191.663,-75.0372 L 191.828,-74.5302 L 191.883,-74 L 191.883,-64.7024
 L 192.225,-64.4804 L 192.625,-64.1563 L 192.99,-63.7921 L 193.314,-63.3919 L 193.594,-62.96 L 193.828,-62.5011
 L 194.013,-62.0204 L 194.146,-61.5229 L 194.226,-61.0143 L 194.253,-60.5 L 194.226,-59.9857 L 194.146,-59.4771
 L 194.013,-58.9796 L 193.828,-58.4989 L 193.594,-58.04 L 193.314,-57.6081 L 192.99,-57.2079 L 192.625,-56.8437
 L 192.225,-56.5196 L 191.793,-56.2392 L 191.334,-56.0054 L 190.854,-55.8208 L 190.356,-55.6875 L 189.848,-55.607
 L 189.333,-55.58 z
M 370.652,-55.607 L 370.144,-55.6875 L 369.646,-55.8208 L 369.166,-56.0054 L 368.707,-56.2392 L 368.275,-56.5196
 L 367.875,-56.8437 L 367.51,-57.2079 L 367.186,-57.6081 L 366.906,-58.04 L 366.672,-58.4989 L 366.487,-58.9796
 L 366.354,-59.4771 L 366.274,-59.9857 L 366.247,-60.5 L 366.274,-61.0143 L 366.354,-61.5229 L 366.487,-62.0204
 L 366.672,-62.5011 L 366.906,-62.96 L 367.186,-63.3919 L 367.51,-63.7921 L 367.875,-64.1563 L 368.275,-64.4804
 L 368.617,-64.7024 L 368.617,-74 L 368.672,-74.5302 L 368.837,-75.0372 L 369.104,-75.4988 L 369.46,-75.895
 L 369.892,-76.2084 L 370.379,-76.4252 L 370.9,-76.536 L 371.433,-76.536 L 371.955,-76.4252 L 372.442,-76.2084
 L 372.873,-75.895 L 373.23,-75.4988 L 373.496,-75.0372 L 373.661,-74.5302 L 373.717,-74 L 373.717,-64.7024
 L 374.059,-64.4804 L 374.459,-64.1563 L 374.823,-63.7921 L 375.147,-63.3919 L 375.427,-62.96 L 375.661,-62.5011
 L 375.846,-62.0204 L 375.979,-61.5229 L 376.06,-61.0143 L 376.087,-60.5 L 376.06,-59.9857 L 375.979,-59.4771
 L 375.846,-58.9796 L 375.661,-58.4989 L 375.427,-58.04 L 375.147,-57.6081 L 374.823,-57.2079 L 374.459,-56.8437
 L 374.059,-56.5196 L 373.627,-56.2392 L 373.168,-56.0054 L 372.687,-55.8208 L 372.19,-55.6875 L 371.681,-55.607
 L 371.167,-55.58 z
M 552.486,-55.607 L 551.977,-55.6875 L 551.48,-55.8208 L 550.999,-56.0054 L 550.54,-56.2392 L 550.108,-56.5196
 L 549.708,-56.8437 L 549.344,-57.2079 L 549.02,-57.6081 L 548.739,-58.04 L 548.505,-58.4989 L 548.321,-58.9796
 L 548.188,-59.4771 L 548.107,-59.9857 L 548.08,-60.5 L 548.107,-61.0143 L 548.188,-61.5229 L 548.321,-62.0204
 L 548.505,-62.5011 L 548.739,-62.96 L 549.02,-63.3919 L 549.344,-63.7921 L 549.708,-64.1563 L 550.108,-64.4804
 L 550.45,-64.7024 L 550.45,-74 L 550.506,-74.5302 L 550.67,-75.0372 L 550.937,-75.4988 L 551.294,-75.895
 L 551.725,-76.2084 L 552.212,-76.4252 L 552.733,-76.536 L 553.267,-76.536 L 553.788,-76.4252 L 554.275,-76.2084
 L 554.706,-75.895 L 555.063,-75.4988 L 555.33,-75.0372 L 555.494,-74.5302 L 555.55,-74 L 555.55,-64.7024
 L 555.892,-64.4804 L 556.292,-64.1563 L 556.656,-63.7921 L 556.98,-63.3919 L 557.261,-62.96 L 557.495,-62.5011
 L 557.679,-62.0204 L 557.812,-61.5229 L 557.893,-61.0143 L 557.92,-60.5 L 557.893,-59.9857 L 557.812,-59.4771
 L 557.679,-58.9796 L 557.495,-58.4989 L 557.261,-58.04 L 556.98,-57.6081 L 556.656,-57.2079 L 556.292,-56.8437
 L 555.892,-56.5196 L 555.46,-56.2392 L 555.001,-56.0054 L 554.52,-55.8208 L 554.023,-55.6875 L 553.514,-55.607
 L 553,-55.58 z
M 734.319,-55.607 L 733.81,-55.6875 L 733.313,-55.8208 L 732.832,-56.0054 L 732.373,-56.2392 L 731.941,-56.5196
 L 731.541,-56.8437 L 731.177,-57.2079 L 730.853,-57.6081 L 730.572,-58.04 L 730.339,-58.4989 L 730.154,-58.9796
 L 730.021,-59.4771 L 729.94,-59.9857 L 729.913,-60.5 L 729.94,-61.0143 L 730.021,-61.5229 L 730.154,-62.0204
 L 730.339,-62.5011 L 730.572,-62.96 L 730.853,-63.3919 L 731.177,-63.7921 L 731.541,-64.1563 L 731.941,-64.4804
 L 732.283,-64.7024 L 732.283,-74 L 732.339,-74.5302 L 732.504,-75.0372 L 732.77,-75.4988 L 733.127,-75.895
 L 733.558,-76.2084 L 734.045,-76.4252 L 734.567,-76.536 L 735.1,-76.536 L 735.621,-76.4252 L 736.108,-76.2084
 L 736.54,-75.895 L 736.896,-75.4988 L 737.163,-75.0372 L 737.328,-74.5302 L 737.383,-74 L 737.383,-64.7024
 L 737.725,-64.4804 L 738.125,-64.1563 L 738.49,-63.7921 L 738.814,-63.3919 L 739.094,-62.96 L 739.328,-62.5011
 L 739.513,-62.0204 L 739.646,-61.5229 L 739.726,-61.0143 L 739.753,-60.5 L 739.726,-59.9857 L 739.646,-59.4771
 L 739.513,-58.9796 L 739.328,-58.4989 L 739.094,-58.04 L 738.814,-57.6081 L 738.49,-57.2079 L 738.125,-56.8437
 L 737.725,-56.5196 L 737.293,-56.2392 L 736.834,-56.0054 L 736.354,-55.8208 L 735.856,-55.6875 L 735.348,-55.607
 L 734.833,-55.58 z
M 916.152,-55.607 L 915.644,-55.6875 L 915.146,-55.8208 L 914.666,-56.0054 L 914.207,-56.2392 L 913.775,-56.5196
 L 913.375,-56.8437 L 913.01,-57.2079 L 912.686,-57.6081 L 912.406,-58.04 L 912.172,-58.4989 L 911.987,-58.9796
 L 911.854,-59.4771 L 911.774,-59.9857 L 911.747,-60.5 L 911.774,-61.0143 L 911.854,-61.5229 L 911.987,-62.0204
 L 912.172,-62.5011 L 912.406,-62.96 L 912.686,-63.3919 L 913.01,-63.7921 L 913.375,-64.1563 L 913.775,-64.4804
 L 914.117,-64.7024 L 914.117,-74 L 914.172,-74.5302 L 914.337,-75.0372 L 914.604,-75.4988 L 914.96,-75.895
 L 915.392,-76.2084 L 915.879,-76.4252 L 916.4,-76.536 L 916.933,-76.536 L 917.455,-76.4252 L 917.942,-76.2084
 L 918.373,-75.895 L 918.73,-75.4988 L 918.996,-75.0372 L 919.161,-74.5302 L 919.217,-74 L 919.217,-64.7024
 L 919.559,-64.4804 L 919.959,-64.1563 L 920.323,-63.7921 L 920.647,-63.3919 L 920.927,-62.96 L 921.161,-62.5011
 L 921.346,-62.0204 L 921.479,-61.5229 L 921.56,-61.0143 L 921.587,-60.5 L 921.56,-59.9857 L 921.479,-59.4771
 L 921.346,-58.9796 L 921.161,-58.4989 L 920.927,-58.04 L 920.647,-57.6081 L 920.323,-57.2079 L 919.959,-56.8437
 L 919.559,-56.5196 L 919.127,-56.2392 L 918.668,-56.0054 L 918.187,-55.8208 L 917.69,-55.6875 L 917.181,-55.607
 L 916.667,-55.58 z
M 1097.99,-55.607 L 1097.48,-55.6875 L 1096.98,-55.8208 L 1096.5,-56.0054 L 1096.04,-56.2392 L 1095.61,-56.5196
 L 1095.21,-56.8437 L 1094.84,-57.2079 L 1094.52,-57.6081 L 1094.24,-58.04 L 1094.01,-58.4989 L 1093.82,-58.9796
 L 1093.69,-59.4771 L 1093.61,-59.9857 L 1093.58,-60.5 L 1093.61,-61.0143 L 1093.69,-61.5229 L 1093.82,-62.0204
 L 1094.01,-62.5011 L 1094.24,-62.96 L 1094.52,-63.3919 L 1094.84,-63.7921 L 1095.21,-64.1563 L 1095.61,-64.4804
 L 1095.95,-64.7024 L 1095.95,-74 L 1096.01,-74.5302 L 1096.17,-75.0372 L 1096.44,-75.4988 L 1096.79,-75.895
 L 1097.23,-76.2084 L 1097.71,-76.4252 L 1098.23,-76.536 L 1098.77,-76.536 L 1099.29,-76.4252 L 1099.77,-76.2084
 L 1100.21,-75.895 L 1100.56,-75.4988 L 1100.83,-75.0372 L 1100.99,-74.5302 L 1101.05,-74 L 1101.05,-64.7024
 L 1101.39,-64.4804 L 1101.79,-64.1563 L 1102.16,-63.7921 L 1102.48,-63.3919 L 1102.76,-62.96 L 1102.99,-62.5011
 L 1103.18,-62.0204 L 1103.31,-61.5229 L 1103.39,-61.0143 L 1103.42,-60.5 L 1103.39,-59.9857 L 1103.31,-59.4771
 L 1103.18,-58.9796 L 1102.99,-58.4989 L 1102.76,-58.04 L 1102.48,-57.6081 L 1102.16,-57.2079 L 1101.79,-56.8437
 L 1101.39,-56.5196 L 1100.96,-56.2392 L 1100.5,-56.0054 L 1100.02,-55.8208 L 1099.52,-55.6875 L 1099.01,-55.607
 L 1098.5,-55.58 z
M 928.598,-20.873 L 927.82,-21.1794 L 927.123,-21.6409 L 926.536,-22.2373 L 926.087,-22.9426 L 925.794,-23.7258
 L 925.667,-24.7276 L 925.667,-58 L 925.754,-58.8316 L 926.012,-59.627 L 926.431,-60.3511 L 926.99,-60.9726
 L 927.667,-61.4641 L 928.431,-61.8042 L 929.667,-62 L 1018.64,-62 L 1019.47,-61.9126 L 1020.26,-61.6542
 L 1020.99,-61.2361 L 1021.61,-60.6765 L 1022.1,-60 L 1022.44,-59.2361 L 1022.62,-58.4181 L 1022.62,-57.5819
 L 1022.44,-56.7639 L 1022.1,-56 L 1021.61,-55.3235 L 1020.99,-54.7639 L 1020.04,-54.2534 L 931.068,-20.981
 L 930.258,-20.7716 L 929.423,-20.7351 z
M 357.575,-20.7716 L 356.766,-20.981 L 267.795,-54.2534 L 266.845,-54.7639 L 266.223,-55.3235 L 265.732,-56
 L 265.391,-56.7639 L 265.218,-57.5819 L 265.218,-58.4181 L 265.391,-59.2361 L 265.732,-60 L 266.223,-60.6765
 L 266.845,-61.2361 L 267.569,-61.6542 L 268.364,-61.9126 L 269.196,-62 L 358.167,-62 L 359.403,-61.8042
 L 360.167,-61.4641 L 360.843,-60.9726 L 361.403,-60.3511 L 361.821,-59.627 L 362.079,-58.8316 L 362.167,-58
 L 362.167,-24.7276 L 362.039,-23.7258 L 361.746,-22.9426 L 361.297,-22.2373 L 360.711,-21.6409 L 360.013,-21.1794
 L 359.235,-20.873 L 358.411,-20.7351 z
M 175.742,-20.7716 L 174.932,-20.981 L 85.9613,-54.2534 L 85.0112,-54.7639 L 84.3898,-55.3235 L 83.8983,-56
 L 83.5581,-56.7639 L 83.3843,-57.5819 L 83.3843,-58.4181 L 83.5581,-59.2361 L 83.8983,-60 L 84.3898,-60.6765
 L 85.0112,-61.2361 L 85.7354,-61.6542 L 86.5307,-61.9126 L 87.3624,-62 L 176.333,-62 L 177.569,-61.8042
 L 178.333,-61.4641 L 179.01,-60.9726 L 179.569,-60.3511 L 179.988,-59.627 L 180.246,-58.8316 L 180.333,-58
 L 180.333,-24.7276 L 180.206,-23.7258 L 179.913,-22.9426 L 179.464,-22.2373 L 178.877,-21.6409 L 178.18,-21.1794
 L 177.402,-20.873 L 176.577,-20.7351 z
M 539.408,-20.7716 L 538.599,-20.981 L 449.628,-54.2534 L 448.678,-54.7639 L 448.056,-55.3235 L 447.565,-56
 L 447.225,-56.7639 L 447.051,-57.5819 L 447.051,-58.4181 L 447.225,-59.2361 L 447.565,-60 L 448.056,-60.6765
 L 448.678,-61.2361 L 449.402,-61.6542 L 450.197,-61.9126 L 451.029,-62 L 540,-62 L 541.236,-61.8042
 L 542,-61.4641 L 542.677,-60.9726 L 543.236,-60.3511 L 543.654,-59.627 L 543.913,-58.8316 L 544,-58
 L 544,-24.7276 L 543.872,-23.7258 L 543.58,-22.9426 L 543.13,-22.2373 L 542.544,-21.6409 L 541.847,-21.1794
 L 541.069,-20.873 L 540.244,-20.7351 z
M 564.931,-20.873 L 564.153,-21.1794 L 563.456,-21.6409 L 562.87,-22.2373 L 562.42,-22.9426 L 562.127,-23.7258
 L 562,-24.7276 L 562,-58 L 562.087,-58.8316 L 562.346,-59.627 L 562.764,-60.3511 L 563.323,-60.9726
 L 564,-61.4641 L 564.764,-61.8042 L 566,-62 L 654.971,-62 L 655.803,-61.9126 L 656.598,-61.6542
 L 657.322,-61.2361 L 657.944,-60.6765 L 658.435,-60 L 658.775,-59.2361 L 658.949,-58.4181 L 658.949,-57.5819
 L 658.775,-56.7639 L 658.435,-56 L 657.944,-55.3235 L 657.322,-54.7639 L 656.372,-54.2534 L 567.401,-20.981
 L 566.592,-20.7716 L 565.756,-20.7351 z
M 746.765,-20.873 L 745.987,-21.1794 L 745.289,-21.6409 L 744.703,-22.2373 L 744.254,-22.9426 L 743.961,-23.7258
 L 743.833,-24.7276 L 743.833,-58 L 743.921,-58.8316 L 744.179,-59.627 L 744.597,-60.3511 L 745.157,-60.9726
 L 745.833,-61.4641 L 746.597,-61.8042 L 747.833,-62 L 836.804,-62 L 837.636,-61.9126 L 838.431,-61.6542
 L 839.155,-61.2361 L 839.777,-60.6765 L 840.268,-60 L 840.609,-59.2361 L 840.782,-58.4181 L 840.782,-57.5819
 L 840.609,-56.7639 L 840.268,-56 L 839.777,-55.3235 L 839.155,-54.7639 L 838.205,-54.2534 L 749.234,-20.981
 L 748.425,-20.7716 L 747.589,-20.7351 z
M 202.333,-18 L 201.097,-18.1958 L 200.333,-18.5359 L 199.657,-19.0274 L 199.097,-19.6489 L 198.679,-20.373
 L 198.421,-21.1684 L 198.333,-22 L 198.333,-55.2724 L 198.461,-56.2742 L 198.754,-57.0574 L 199.203,-57.7626
 L 199.789,-58.359 L 200.487,-58.8205 L 201.265,-59.127 L 202.089,-59.2649 L 202.925,-59.2284 L 203.734,-59.0189
 L 292.705,-25.7466 L 293.655,-25.2361 L 294.277,-24.6765 L 294.768,-24 L 295.108,-23.2361 L 295.282,-22.4181
 L 295.282,-21.5819 L 295.108,-20.7639 L 294.768,-20 L 294.277,-19.3235 L 293.655,-18.7639 L 292.931,-18.3458
 L 292.136,-18.0874 L 291.304,-18 z
M 384.167,-18 L 382.931,-18.1958 L 382.167,-18.5359 L 381.49,-19.0274 L 380.931,-19.6489 L 380.512,-20.373
 L 380.254,-21.1684 L 380.167,-22 L 380.167,-55.2724 L 380.294,-56.2742 L 380.587,-57.0574 L 381.036,-57.7626
 L 381.623,-58.359 L 382.32,-58.8205 L 383.098,-59.127 L 383.923,-59.2649 L 384.758,-59.2284 L 385.568,-59.0189
 L 474.539,-25.7466 L 475.489,-25.2361 L 476.11,-24.6765 L 476.602,-24 L 476.942,-23.2361 L 477.116,-22.4181
 L 477.116,-21.5819 L 476.942,-20.7639 L 476.602,-20 L 476.11,-19.3235 L 475.489,-18.7639 L 474.765,-18.3458
 L 473.969,-18.0874 L 473.138,-18 z
M 632.862,-18 L 632.031,-18.0874 L 631.235,-18.3458 L 630.511,-18.7639 L 629.89,-19.3235 L 629.398,-20
 L 629.058,-20.7639 L 628.884,-21.5819 L 628.884,-22.4181 L 629.058,-23.2361 L 629.398,-24 L 629.89,-24.6765
 L 630.511,-25.2361 L 631.461,-25.7466 L 720.432,-59.0189 L 721.242,-59.2284 L 722.077,-59.2649 L 722.902,-59.127
 L 723.68,-58.8205 L 724.377,-58.359 L 724.964,-57.7626 L 725.413,-57.0574 L 725.706,-56.2742 L 725.833,-55.2724
 L 725.833,-22 L 725.746,-21.1684 L 725.488,-20.373 L 725.069,-19.6489 L 724.51,-19.0274 L 723.833,-18.5359
 L 723.069,-18.1958 L 721.833,-18 z
M 814.696,-18 L 813.864,-18.0874 L 813.069,-18.3458 L 812.345,-18.7639 L 811.723,-19.3235 L 811.232,-20
 L 810.891,-20.7639 L 810.718,-21.5819 L 810.718,-22.4181 L 810.891,-23.2361 L 811.232,-24 L 811.723,-24.6765
 L 812.345,-25.2361 L 813.295,-25.7466 L 902.266,-59.0189 L 903.075,-59.2284 L 903.911,-59.2649 L 904.735,-59.127
 L 905.513,-58.8205 L 906.211,-58.359 L 906.797,-57.7626 L 907.246,-57.0574 L 907.539,-56.2742 L 907.667,-55.2724
 L 907.667,-22 L 907.579,-21.1684 L 907.321,-20.373 L 906.903,-19.6489 L 906.343,-19.0274 L 905.667,-18.5359
 L 904.903,-18.1958 L 903.667,-18 z
M 996.529,-18 L 995.697,-18.0874 L 994.902,-18.3458 L 994.178,-18.7639 L 993.556,-19.3235 L 993.065,-20
 L 992.725,-20.7639 L 992.551,-21.5819 L 992.551,-22.4181 L 992.725,-23.2361 L 993.065,-24 L 993.556,-24.6765
 L 994.178,-25.2361 L 995.128,-25.7466 L 1082.6,-58.458 L 1083.41,-58.6674 L 1084.24,-58.7039 L 1085.07,-58.566
 L 1085.85,-58.2596 L 1086.54,-57.7981 L 1087.13,-57.2017 L 1087.58,-56.4964 L 1087.87,-55.7132 L 1088,-54.7114
 L 1088,-22 L 1087.91,-21.1684 L 1087.65,-20.373 L 1087.24,-19.6489 L 1086.68,-19.0274 L 1086,-18.5359
 L 1085.24,-18.1958 L 1084,-18 z
M 22,-18 L 20.7639,-18.1958 L 20,-18.5359 L 19.3235,-19.0274 L 18.7639,-19.6489 L 18.3458,-20.373
 L 18.0874,-21.1684 L 18,-22 L 18,-54.7114 L 18.1275,-55.7132 L 18.4204,-56.4964 L 18.8698,-57.2017
 L 19.4559,-57.7981 L 20.1533,-58.2596 L 20.9313,-58.566 L 21.7561,-58.7039 L 22.5915,-58.6674 L 23.4011,-58.458
 L 110.872,-25.7466 L 111.822,-25.2361 L 112.444,-24.6765 L 112.935,-24 L 113.275,-23.2361 L 113.449,-22.4181
 L 113.449,-21.5819 L 113.275,-20.7639 L 112.935,-20 L 112.444,-19.3235 L 111.822,-18.7639 L 111.098,-18.3458
 L 110.303,-18.0874 L 109.471,-18 z
" stroke="black" fill="lightgray" stroke-width="0.5"/>
</svg>
