<?xml version="1.0" standalone="no"?>
<!DOCTYPE svg PUBLIC "-//W3C//DTD SVG 1.1//EN" "http://www.w3.org/Graphics/SVG/1.1/DTD/svg11.dtd">
<svg width="1669mm" height="80mm" viewBox="0 -80 1669 80" xmlns="http://www.w3.org/2000/svg" version="1.1">
<title>OpenSCAD Model</title>
<path d="
M 1669,-80 L 0,-80 L 0,-0 L 4.95,-0 L 4.95,-6 L 5.00572,-6.53017
 L 5.17046,-7.03717 L 5.437,-7.49884 L 5.79372,-7.895 L 6.22499,-8.20836 L 6.71201,-8.42519 L 7.23344,-8.53603
 L 7.76654,-8.53603 L 8.28798,-8.42519 L 8.77499,-8.20836 L 9.20627,-7.895 L 9.56299,-7.49884 L 9.82953,-7.03717
 L 9.99426,-6.53017 L 10.05,-6 L 10.05,-0 L 188.728,-0 L 188.728,-6 L 188.783,-6.53017
 L 188.948,-7.03717 L 189.215,-7.49884 L 189.571,-7.895 L 190.003,-8.20836 L 190.49,-8.42519 L 191.011,-8.53603
 L 191.544,-8.53603 L 192.066,-8.42519 L 192.553,-8.20836 L 192.984,-7.895 L 193.341,-7.49884 L 193.607,-7.03717
 L 193.772,-6.53017 L 193.828,-6 L 193.828,-0 L 372.506,-0 L 372.506,-6 L 372.561,-6.53017
 L 372.726,-7.03717 L 372.993,-7.49884 L 373.349,-7.895 L 373.781,-8.20836 L 374.268,-8.42519 L 374.789,-8.53603
 L 375.322,-8.53603 L 375.844,-8.42519 L 376.331,-8.20836 L 376.762,-7.895 L 377.119,-7.49884 L 377.385,-7.03717
 L 377.55,-6.53017 L 377.606,-6 L 377.606,-0 L 556.283,-0 L 556.283,-6 L 556.339,-6.53017
 L 556.504,-7.03717 L 556.77,-7.49884 L 557.127,-7.895 L 557.558,-8.20836 L 558.045,-8.42519 L 558.567,-8.53603
 L 559.1,-8.53603 L 559.621,-8.42519 L 560.108,-8.20836 L 560.54,-7.895 L 560.896,-7.49884 L 561.163,-7.03717
 L 561.328,-6.53017 L 561.383,-6 L 561.383,-0 L 740.061,-0 L 740.061,-6 L 740.117,-6.53017
 L 740.282,-7.03717 L 740.548,-7.49884 L 740.905,-7.895 L 741.336,-8.20836 L 741.823,-8.42519 L 742.345,-8.53603
 L 742.878,-8.53603 L 743.399,-8.42519 L 743.886,-8.20836 L 744.317,-7.895 L 744.674,-7.49884 L 744.941,-7.03717
 L 745.105,-6.53017 L 745.161,-6 L 745.161,-0 L 923.839,-0 L 923.839,-6 L 923.895,-6.53017
 L 924.059,-7.03717 L 924.326,-7.49884 L 924.683,-7.895 L 925.114,-8.20836 L 925.601,-8.42519 L 926.122,-8.53603
 L 926.655,-8.53603 L 927.177,-8.42519 L 927.664,-8.20836 L 928.095,-7.895 L 928.452,-7.49884 L 928.718,-7.03717
 L 928.883,-6.53017 L 928.939,-6 L 928.939,-0 L 1107.62,-0 L 1107.62,-6 L 1107.67,-6.53017
 L 1107.84,-7.03717 L 1108.1,-7.49884 L 1108.46,-7.895 L 1108.89,-8.20836 L 1109.38,-8.42519 L 1109.9,-8.53603
 L 1110.43,-8.53603 L 1110.95,-8.42519 L 1111.44,-8.20836 L 1111.87,-7.895 L 1112.23,-7.49884 L 1112.5,-7.03717
 L 1112.66,-6.53017 L 1112.72,-6 L 1112.72,-0 L 1291.39,-0 L 1291.39,-6 L 1291.45,-6.53017
 L 1291.61,-7.03717 L 1291.88,-7.49884 L 1292.24,-7.895 L 1292.67,-8.20836 L 1293.16,-8.42519 L 1293.68,-8.53603
 L 1294.21,-8.53603 L 1294.73,-8.42519 L 1295.22,-8.20836 L 1295.65,-7.895 L 1296.01,-7.49884 L 1296.27,-7.03717
 L 1296.44,-6.53017 L 1296.49,-6 L 1296.49,-0 L 1475.17,-0 L 1475.17,-6 L 1475.23,-6.53017
 L 1475.39,-7.03717 L 1475.66,-7.49884 L 1476.02,-7.895 L 1476.45,-8.20836 L 1476.93,-8.42519 L 1477.46,-8.53603
 L 1477.99,-8.53603 L 1478.51,-8.42519 L 1479,-8.20836 L 1479.43,-7.895 L 1479.79,-7.49884 L 1480.05,-7.03717
 L 1480.22,-6.53017 L 1480.27,-6 L 1480.27,-0 L 1658.95,-0 L 1658.95,-6 L 1659.01,-6.53017
 L 1659.17,-7.03717 L 1659.44,-7.49884 L 1659.79,-7.895 L 1660.22,-8.20836 L 1660.71,-8.42519 L 1661.23,-8.53603
 L 1661.77,-8.53603 L 1662.29,-8.42519 L 1662.77,-8.20836 L 1663.21,-7.895 L 1663.56,-7.49884 L 1663.83,-7.03717
 L 1663.99,-6.53017 L 1664.05,-6 L 1664.05,-0 L 1669,-0 z
M 6.98573,-55.607 L 6.47708,-55.6875 L 5.97964,-55.8208 L 5.49887,-56.0054 L 5.04001,-56.2392 L 4.60811,-56.5196
 L 4.20789,-56.8437 L 3.84373,-57.2079 L 3.51964,-57.6081 L 3.23917,-58.04 L 3.00537,-58.4989 L 2.82082,-58.9796
 L 2.68752,-59.4771 L 2.60696,-59.9857 L 2.58,-60.5 L 2.60696,-61.0143 L 2.68752,-61.5229 L 2.82082,-62.0204
 L 3.00537,-62.5011 L 3.23917,-62.96 L 3.51964,-63.3919 L 3.84373,-63.7921 L 4.20789,-64.1563 L 4.60811,-64.4804
 L 4.95001,-64.7024 L 4.95001,-74 L 5.00574,-74.5302 L 5.17047,-75.0372 L 5.43701,-75.4988 L 5.79373,-75.895
 L 6.22501,-76.2084 L 6.71202,-76.4252 L 7.23346,-76.536 L 7.76654,-76.536 L 8.28798,-76.4252 L 8.77499,-76.2084
 L 9.20627,-75.895 L 9.56299,-75.4988 L 9.82953,-75.0372 L 9.99426,-74.5302 L 10.05,-74 L 10.05,-64.7024
 L 10.3919,-64.4804 L 10.7921,-64.1563 L 11.1563,-63.7921 L 11.4804,-63.3919 L 11.7608,-62.96 L 11.9946,-62.5011
 L 12.1792,-62.0204 L 12.3125,-61.5229 L 12.393,-61.0143 L 12.42,-60.5 L 12.393,-59.9857 L 12.3125,-59.4771
 L 12.1792,-58.9796 L 11.9946,-58.4989 L 11.7608,-58.04 L 11.4804,-57.6081 L 11.1563,-57.2079 L 10.7921,-56.8437
 L 10.3919,-56.5196 L 9.95999,-56.2392 L 9.50113,-56.0054 L 9.02036,-55.8208 L 8.52292,-55.6875 L 8.01427,-55.607
 L 7.5,-55.58 z
M 1109.65,-55.607 L 1109.14,-55.6875 L 1108.65,-55.8208 L 1108.17,-56.0054 L 1107.71,-56.2392 L 1107.27,-56.5196
 L 1106.87,-56.8437 L 1106.51,-57.2079 L 1106.19,-57.6081 L 1105.91,-58.04 L 1105.67,-58.4989 L 1105.49,-58.9796
 L 1105.35,-59.4771 L 1105.27,-59.9857 L 1105.25,-60.5 L 1105.27,-61.0143 L 1105.35,-61.5229 L 1105.49,-62.0204
 L 1105.67,-62.5011 L 1105.91,-62.96 L 1106.19,-63.3919 L 1106.51,-63.7921 L 1106.87,-64.1563 L 1107.27,-64.4804
 L 1107.62,-64.7024 L 1107.62,-74 L 1107.67,-74.5302 L 1107.84,-75.0372 L 1108.1,-75.4988 L 1108.46,-75.895
 L 1108.89,-76.2084 L 1109.38,-76.4252 L 1109.9,-76.536 L 1110.43,-76.536 L 1110.95,-76.4252 L 1111.44,-76.2084
 L 1111.87,-75.895 L 1112.23,-75.4988 L 1112.5,-75.0372 L 1112.66,-74.5302 L 1112.72,-74 L 1112.72,-64.7024
 L 1113.06,-64.4804 L 1113.46,-64.1563 L 1113.82,-63.7921 L 1114.15,-63.3919 L 1114.43,-62.96 L 1114.66,-62.5011
 L 1114.85,-62.0204 L 1114.98,-61.5229 L 1115.06,-61.0143 L 1115.09,-60.5 L 1115.06,-59.9857 L 1114.98,-59.4771
 L 1114.85,-58.9796 L 1114.66,-58.4989 L 1114.43,-58.04 L 1114.15,-57.6081 L 1113.82,-57.2079 L 1113.46,-56.8437
 L 1113.06,-56.5196 L 1112.63,-56.2392 L 1112.17,-56.0054 L 1111.69,-55.8208 L 1111.19,-55.6875 L 1110.68,-55.607
 L 1110.17,-55.58 z
M 1293.43,-55.607 L 1292.92,-55.6875 L 1292.42,-55.8208 L 1291.94,-56.0054 L 1291.48,-56.2392 L 1291.05,-56.5196
 L 1290.65,-56.8437 L 1290.29,-57.2079 L 1289.96,-57.6081 L 1289.68,-58.04 L 1289.45,-58.4989 L 1289.27,-58.9796
 L 1289.13,-59.4771 L 1289.05,-59.9857 L 1289.02,-60.5 L 1289.05,-61.0143 L 1289.13,-61.5229 L 1289.27,-62.0204
 L 1289.45,-62.5011 L 1289.68,-62.96 L 1289.96,-63.3919 L 1290.29,-63.7921 L 1290.65,-64.1563 L 1291.05,-64.4804
 L 1291.39,-64.7024 L 1291.39,-74 L 1291.45,-74.5302 L 1291.61,-75.0372 L 1291.88,-75.4988 L 1292.24,-75.895
 L 1292.67,-76.2084 L 1293.16,-76.4252 L 1293.68,-76.536 L 1294.21,-76.536 L 1294.73,-76.4252 L 1295.22,-76.2084
 L 1295.65,-75.895 L 1296.01,-75.4988 L 1296.27,-75.0372 L 1296.44,-74.5302 L 1296.49,-74 L 1296.49,-64.7024
 L 1296.84,-64.4804 L 1297.24,-64.1563 L 1297.6,-63.7921 L 1297.92,-63.3919 L 1298.21,-62.96 L 1298.44,-62.5011
 L 1298.62,-62.0204 L 1298.76,-61.5229 L 1298.84,-61.0143 L 1298.86,-60.5 L 1298.84,-59.9857 L 1298.76,-59.4771
 L 1298.62,-58.9796 L 1298.44,-58.4989 L 1298.21,-58.04 L 1297.92,-57.6081 L 1297.6,-57.2079 L 1297.24,-56.8437
 L 1296.84,-56.5196 L 1296.4,-56.2392 L 1295.95,-56.0054 L 1295.46,-55.8208 L 1294.97,-55.6875 L 1294.46,-55.607
 L 1293.94,-55.58 z
M 925.875,-55.607 L 925.366,-55.6875 L 924.869,-55.8208 L 924.388,-56.0054 L 923.929,-56.2392 L 923.497,-56.5196
 L 923.097,-56.8437 L 922.733,-57.2079 L 922.409,-57.6081 L 922.128,-58.04 L 921.894,-58.4989 L 921.71,-58.9796
 L 921.576,-59.4771 L 921.496,-59.9857 L 921.469,-60.5 L 921.496,-61.0143 L 921.576,-61.5229 L 921.71,-62.0204
 L 921.894,-62.5011 L 922.128,-62.96 L 922.409,-63.3919 L 922.733,-63.7921 L 923.097,-64.1563 L 923.497,-64.4804
 L 923.839,-64.7024 L 923.839,-74 L 923.895,-74.5302 L 924.059,-75.0372 L 924.326,-75.4988 L 924.683,-75.895
 L 925.114,-76.2084 L 925.601,-76.4252 L 926.122,-76.536 L 926.655,-76.536 L 927.177,-76.4252 L 927.664,-76.2084
 L 928.095,-75.895 L 928.452,-75.4988 L 928.718,-75.0372 L 928.883,-74.5302 L 928.939,-74 L 928.939,-64.7024
 L 929.281,-64.4804 L 929.681,-64.1563 L 930.045,-63.7921 L 930.369,-63.3919 L 930.65,-62.96 L 930.884,-62.5011
 L 931.068,-62.0204 L 931.201,-61.5229 L 931.282,-61.0143 L 931.309,-60.5 L 931.282,-59.9857 L 931.201,-59.4771
 L 931.068,-58.9796 L 930.884,-58.4989 L 930.65,-58.04 L 930.369,-57.6081 L 930.045,-57.2079 L 929.681,-56.8437
 L 929.281,-56.5196 L 928.849,-56.2392 L 928.39,-56.0054 L 927.909,-55.8208 L 927.412,-55.6875 L 926.903,-55.607
 L 926.389,-55.58 z
M 742.097,-55.607 L 741.588,-55.6875 L 741.091,-55.8208 L 740.61,-56.0054 L 740.151,-56.2392 L 739.719,-56.5196
 L 739.319,-56.8437 L 738.955,-57.2079 L 738.631,-57.6081 L 738.35,-58.04 L 738.116,-58.4989 L 737.932,-58.9796
 L 737.799,-59.4771 L 737.718,-59.9857 L 737.691,-60.5 L 737.718,-61.0143 L 737.799,-61.5229 L 737.932,-62.0204
 L 738.116,-62.5011 L 738.35,-62.96 L 738.631,-63.3919 L 738.955,-63.7921 L 739.319,-64.1563 L 739.719,-64.4804
 L 740.061,-64.7024 L 740.061,-74 L 740.117,-74.5302 L 740.282,-75.0372 L 740.548,-75.4988 L 740.905,-75.895
 L 741.336,-76.2084 L 741.823,-76.4252 L 742.345,-76.536 L 742.878,-76.536 L 743.399,-76.4252 L 743.886,-76.2084
 L 744.317,-75.895 L 744.674,-75.4988 L 744.941,-75.0372 L 745.105,-74.5302 L 745.161,-74 L 745.161,-64.7024
 L 745.503,-64.4804 L 745.903,-64.1563 L 746.267,-63.7921 L 746.591,-63.3919 L 746.872,-62.96 L 747.106,-62.5011
 L 747.29,-62.0204 L 747.424,-61.5229 L 747.504,-61.0143 L 747.531,-60.5 L 747.504,-59.9857 L 747.424,-59.4771
 L 747.29,-58.9796 L 747.106,-58.4989 L 746.872,-58.04 L 746.591,-57.6081 L 746.267,-57.2079 L 745.903,-56.8437
 L 745.503,-56.5196 L 745.071,-56.2392 L 744.612,-56.0054 L 744.131,-55.8208 L 743.634,-55.6875 L 743.125,-55.607
 L 742.611,-55.58 z
M 1477.21,-55.607 L 1476.7,-55.6875 L 1476.2,-55.8208 L 1475.72,-56.0054 L 1475.26,-56.2392 L 1474.83,-56.5196
 L 1474.43,-56.8437 L 1474.07,-57.2079 L 1473.74,-57.6081 L 1473.46,-58.04 L 1473.23,-58.4989 L 1473.04,-58.9796
 L 1472.91,-59.4771 L 1472.83,-59.9857 L 1472.8,-60.5 L 1472.83,-61.0143 L 1472.91,-61.5229 L 1473.04,-62.0204
 L 1473.23,-62.5011 L 1473.46,-62.96 L 1473.74,-63.3919 L 1474.07,-63.7921 L 1474.43,-64.1563 L 1474.83,-64.4804
 L 1475.17,-64.7024 L 1475.17,-74 L 1475.23,-74.5302 L 1475.39,-75.0372 L 1475.66,-75.4988 L 1476.02,-75.895
 L 1476.45,-76.2084 L 1476.93,-76.4252 L 1477.46,-76.536 L 1477.99,-76.536 L 1478.51,-76.4252 L 1479,-76.2084
 L 1479.43,-75.895 L 1479.79,-75.4988 L 1480.05,-75.0372 L 1480.22,-74.5302 L 1480.27,-74 L 1480.27,-64.7024
 L 1480.61,-64.4804 L 1481.01,-64.1563 L 1481.38,-63.7921 L 1481.7,-63.3919 L 1481.98,-62.96 L 1482.22,-62.5011
 L 1482.4,-62.0204 L 1482.53,-61.5229 L 1482.62,-61.0143 L 1482.64,-60.5 L 1482.62,-59.9857 L 1482.53,-59.4771
 L 1482.4,-58.9796 L 1482.22,-58.4989 L 1481.98,-58.04 L 1481.7,-57.6081 L 1481.38,-57.2079 L 1481.01,-56.8437
 L 1480.61,-56.5196 L 1480.18,-56.2392 L 1479.72,-56.0054 L 1479.24,-55.8208 L 1478.75,-55.6875 L 1478.24,-55.607
 L 1477.72,-55.58 z
M 558.319,-55.607 L 557.81,-55.6875 L 557.313,-55.8208 L 556.832,-56.0054 L 556.373,-56.2392 L 555.941,-56.5196
 L 555.541,-56.8437 L 555.177,-57.2079 L 554.853,-57.6081 L 554.572,-58.04 L 554.339,-58.4989 L 554.154,-58.9796
 L 554.021,-59.4771 L 553.94,-59.9857 L 553.913,-60.5 L 553.94,-61.0143 L 554.021,-61.5229 L 554.154,-62.0204
 L 554.339,-62.5011 L 554.572,-62.96 L 554.853,-63.3919 L 555.177,-63.7921 L 555.541,-64.1563 L 555.941,-64.4804
 L 556.283,-64.7024 L 556.283,-74 L 556.339,-74.5302 L 556.504,-75.0372 L 556.77,-75.4988 L 557.127,-75.895
 L 557.558,-76.2084 L 558.045,-76.4252 L 558.567,-76.536 L 559.1,-76.536 L 559.621,-76.4252 L 560.108,-76.2084
 L 560.54,-75.895 L 560.896,-75.4988 L 561.163,-75.0372 L 561.328,-74.5302 L 561.383,-74 L 561.383,-64.7024
 L 561.725,-64.4804 L 562.125,-64.1563 L 562.49,-63.7921 L 562.814,-63.3919 L 563.094,-62.96 L 563.328,-62.5011
 L 563.513,-62.0204 L 563.646,-61.5229 L 563.726,-61.0143 L 563.753,-60.5 L 563.726,-59.9857 L 563.646,-59.4771
 L 563.513,-58.9796 L 563.328,-58.4989 L 563.094,-58.04 L 562.814,-57.6081 L 562.49,-57.2079 L 562.125,-56.8437
 L 561.725,-56.5196 L 561.293,-56.2392 L 560.834,-56.0054 L 560.354,-55.8208 L 559.856,-55.6875 L 559.348,-55.607
 L 558.833,-55.58 z
M 374.541,-55.607 L 374.033,-55.6875 L 373.535,-55.8208 L 373.054,-56.0054 L 372.596,-56.2392 L 372.164,-56.5196
 L 371.763,-56.8437 L 371.399,-57.2079 L 371.075,-57.6081 L 370.795,-58.04 L 370.561,-58.4989 L 370.376,-58.9796
 L 370.243,-59.4771 L 370.163,-59.9857 L 370.136,-60.5 L 370.163,-61.0143 L 370.243,-61.5229 L 370.376,-62.0204
 L 370.561,-62.5011 L 370.795,-62.96 L 371.075,-63.3919 L 371.399,-63.7921 L 371.763,-64.1563 L 372.164,-64.4804
 L 372.506,-64.7024 L 372.506,-74 L 372.561,-74.5302 L 372.726,-75.0372 L 372.993,-75.4988 L 373.349,-75.895
 L 373.781,-76.2084 L 374.268,-76.4252 L 374.789,-76.536 L 375.322,-76.536 L 375.844,-76.4252 L 376.331,-76.2084
 L 376.762,-75.895 L 377.119,-75.4988 L 377.385,-75.0372 L 377.55,-74.5302 L 377.606,-74 L 377.606,-64.7024
 L 377.947,-64.4804 L 378.348,-64.1563 L 378.712,-63.7921 L 379.036,-63.3919 L 379.316,-62.96 L 379.55,-62.5011
 L 379.735,-62.0204 L 379.868,-61.5229 L 379.949,-61.0143 L 379.976,-60.5 L 379.949,-59.9857 L 379.868,-59.4771
 L 379.735,-58.9796 L 379.55,-58.4989 L 379.316,-58.04 L 379.036,-57.6081 L 378.712,-57.2079 L 378.348,-56.8437
 L 377.947,-56.5196 L 377.516,-56.2392 L 377.057,-56.0054 L 376.576,-55.8208 L 376.078,-55.6875 L 375.57,-55.607
 L 375.056,-55.58 z
M 1660.99,-55.607 L 1660.48,-55.6875 L 1659.98,-55.8208 L 1659.5,-56.0054 L 1659.04,-56.2392 L 1658.61,-56.5196
 L 1658.21,-56.8437 L 1657.84,-57.2079 L 1657.52,-57.6081 L 1657.24,-58.04 L 1657.01,-58.4989 L 1656.82,-58.9796
 L 1656.69,-59.4771 L 1656.61,-59.9857 L 1656.58,-60.5 L 1656.61,-61.0143 L 1656.69,-61.5229 L 1656.82,-62.0204
 L 1657.01,-62.5011 L 1657.24,-62.96 L 1657.52,-63.3919 L 1657.84,-63.7921 L 1658.21,-64.1563 L 1658.61,-64.4804
 L 1658.95,-64.7024 L 1658.95,-74 L 1659.01,-74.5302 L 1659.17,-75.0372 L 1659.44,-75.4988 L 1659.79,-75.895
 L 1660.23,-76.2084 L 1660.71,-76.4252 L 1661.23,-76.536 L 1661.77,-76.536 L 1662.29,-76.4252 L 1662.77,-76.2084
 L 1663.21,-75.895 L 1663.56,-75.4988 L 1663.83,-75.0372 L 1663.99,-74.5302 L 1664.05,-74 L 1664.05,-64.7024
 L 1664.39,-64.4804 L 1664.79,-64.1563 L 1665.16,-63.7921 L 1665.48,-63.3919 L 1665.76,-62.96 L 1665.99,-62.5011
 L 1666.18,-62.0204 L 1666.31,-61.5229 L 1666.39,-61.0143 L 1666.42,-60.5 L 1666.39,-59.9857 L 1666.31,-59.4771
 L 1666.18,-58.9796 L 1665.99,-58.4989 L 1665.76,-58.04 L 1665.48,-57.6081 L 1665.16,-57.2079 L 1664.79,-56.8437
 L 1664.39,-56.5196 L 1663.96,-56.2392 L 1663.5,-56.0054 L 1663.02,-55.8208 L 1662.52,-55.6875 L 1662.01,-55.607
 L 1661.5,-55.58 z
M 190.764,-55.607 L 190.255,-55.6875 L 189.757,-55.8208 L 189.277,-56.0054 L 188.818,-56.2392 L 188.386,-56.5196
 L 187.986,-56.8437 L 187.622,-57.2079 L 187.297,-57.6081 L 187.017,-58.04 L 186.783,-58.4989 L 186.599,-58.9796
 L 186.465,-59.4771 L 186.385,-59.9857 L 186.358,-60.5 L 186.385,-61.0143 L 186.465,-61.5229 L 186.599,-62.0204
 L 186.783,-62.5011 L 187.017,-62.96 L 187.297,-63.3919 L 187.622,-63.7921 L 187.986,-64.1563 L 188.386,-64.4804
 L 188.728,-64.7024 L 188.728,-74 L 188.784,-74.5302 L 188.948,-75.0372 L 189.215,-75.4988 L 189.572,-75.895
 L 190.003,-76.2084 L 190.49,-76.4252 L 191.011,-76.536 L 191.544,-76.536 L 192.066,-76.4252 L 192.553,-76.2084
 L 192.984,-75.895 L 193.341,-75.4988 L 193.607,-75.0372 L 193.772,-74.5302 L 193.828,-74 L 193.828,-64.7024
 L 194.17,-64.4804 L 194.57,-64.1563 L 194.934,-63.7921 L 195.258,-63.3919 L 195.539,-62.96 L 195.772,-62.5011
 L 195.957,-62.0204 L 196.09,-61.5229 L 196.171,-61.0143 L 196.198,-60.5 L 196.171,-59.9857 L 196.09,-59.4771
 L 195.957,-58.9796 L 195.772,-58.4989 L 195.539,-58.04 L 195.258,-57.6081 L 194.934,-57.2079 L 194.57,-56.8437
 L 194.17,-56.5196 L 193.738,-56.2392 L 193.279,-56.0054 L 192.798,-55.8208 L 192.301,-55.6875 L 191.792,-55.607
 L 191.278,-55.58 z
M 1122.08,-20.8094 L 1121.31,-21.1186 L 1120.61,-21.5825 L 1120.03,-22.1809 L 1119.58,-22.8877 L 1119.29,-23.672
 L 1119.17,-24.6603 L 1119.17,-58 L 1119.25,-58.8316 L 1119.51,-59.627 L 1119.93,-60.3511 L 1120.49,-60.9726
 L 1121.17,-61.4641 L 1121.93,-61.8042 L 1123.17,-62 L 1213.27,-62 L 1214.1,-61.9126 L 1214.9,-61.6542
 L 1215.62,-61.2361 L 1216.24,-60.6765 L 1216.74,-60 L 1217.08,-59.2361 L 1217.25,-58.4181 L 1217.25,-57.5819
 L 1217.08,-56.7639 L 1216.74,-56 L 1216.24,-55.3235 L 1215.62,-54.7639 L 1214.66,-54.2486 L 1124.55,-20.9089
 L 1123.74,-20.7023 L 1122.91,-20.6686 z
M 938.307,-20.8094 L 937.53,-21.1186 L 936.834,-21.5825 L 936.25,-22.1809 L 935.803,-22.8877 L 935.513,-23.672
 L 935.389,-24.6603 L 935.389,-58 L 935.476,-58.8316 L 935.735,-59.627 L 936.153,-60.3511 L 936.712,-60.9726
 L 937.389,-61.4641 L 938.153,-61.8042 L 939.389,-62 L 1029.49,-62 L 1030.32,-61.9126 L 1031.12,-61.6542
 L 1031.84,-61.2361 L 1032.47,-60.6765 L 1032.96,-60 L 1033.3,-59.2361 L 1033.47,-58.4181 L 1033.47,-57.5819
 L 1033.3,-56.7639 L 1032.96,-56 L 1032.47,-55.3235 L 1031.84,-54.7639 L 1030.88,-54.2486 L 940.777,-20.9089
 L 939.967,-20.7023 L 939.131,-20.6686 z
M 833.922,-47.7613 L 833.112,-47.9679 L 816.138,-54.2486 L 815.175,-54.7639 L 814.553,-55.3235 L 814.062,-56
 L 813.722,-56.7639 L 813.548,-57.5819 L 813.548,-58.4181 L 813.722,-59.2361 L 814.062,-60 L 814.553,-60.6765
 L 815.175,-61.2361 L 815.899,-61.6542 L 816.694,-61.9126 L 817.526,-62 L 851.474,-62 L 852.556,-61.8509
 L 853.333,-61.5417 L 854.029,-61.0778 L 854.613,-60.4794 L 855.06,-59.7726 L 855.35,-58.9883 L 855.471,-58.1609
 L 855.417,-57.3264 L 855.191,-56.5213 L 854.802,-55.7809 L 854.268,-55.1375 L 853.612,-54.6191 L 852.862,-54.2486
 L 835.888,-47.9679 L 834.758,-47.7277 z
M 729.033,-20.7023 L 728.223,-20.9089 L 638.119,-54.2486 L 637.156,-54.7639 L 636.534,-55.3235 L 636.043,-56
 L 635.703,-56.7639 L 635.529,-57.5819 L 635.529,-58.4181 L 635.703,-59.2361 L 636.043,-60 L 636.534,-60.6765
 L 637.156,-61.2361 L 637.88,-61.6542 L 638.675,-61.9126 L 639.507,-62 L 729.611,-62 L 730.847,-61.8042
 L 731.611,-61.4641 L 732.288,-60.9726 L 732.847,-60.3511 L 733.265,-59.627 L 733.524,-58.8316 L 733.611,-58
 L 733.611,-24.6603 L 733.487,-23.672 L 733.197,-22.8877 L 732.75,-22.1809 L 732.166,-21.5825 L 731.47,-21.1186
 L 730.693,-20.8094 L 729.869,-20.6686 z
M 545.256,-20.7023 L 544.445,-20.9089 L 454.341,-54.2486 L 453.378,-54.7639 L 452.756,-55.3235 L 452.265,-56
 L 451.925,-56.7639 L 451.751,-57.5819 L 451.751,-58.4181 L 451.925,-59.2361 L 452.265,-60 L 452.756,-60.6765
 L 453.378,-61.2361 L 454.102,-61.6542 L 454.897,-61.9126 L 455.729,-62 L 545.833,-62 L 547.069,-61.8042
 L 547.833,-61.4641 L 548.51,-60.9726 L 549.069,-60.3511 L 549.487,-59.627 L 549.746,-58.8316 L 549.833,-58
 L 549.833,-24.6603 L 549.709,-23.672 L 549.419,-22.8877 L 548.972,-22.1809 L 548.388,-21.5825 L 547.692,-21.1186
 L 546.915,-20.8094 L 546.091,-20.6686 z
M 361.478,-20.7023 L 360.667,-20.9089 L 270.563,-54.2486 L 269.6,-54.7639 L 268.979,-55.3235 L 268.487,-56
 L 268.147,-56.7639 L 267.973,-57.5819 L 267.973,-58.4181 L 268.147,-59.2361 L 268.487,-60 L 268.979,-60.6765
 L 269.6,-61.2361 L 270.324,-61.6542 L 271.12,-61.9126 L 271.951,-62 L 362.056,-62 L 363.292,-61.8042
 L 364.056,-61.4641 L 364.732,-60.9726 L 365.292,-60.3511 L 365.71,-59.627 L 365.968,-58.8316 L 366.056,-58
 L 366.056,-24.6603 L 365.932,-23.672 L 365.641,-22.8877 L 365.194,-22.1809 L 364.61,-21.5825 L 363.915,-21.1186
 L 363.138,-20.8094 L 362.313,-20.6686 z
M 1489.64,-20.8094 L 1488.86,-21.1186 L 1488.17,-21.5825 L 1487.58,-22.1809 L 1487.14,-22.8877 L 1486.85,-23.672
 L 1486.72,-24.6603 L 1486.72,-58 L 1486.81,-58.8316 L 1487.07,-59.627 L 1487.49,-60.3511 L 1488.05,-60.9726
 L 1488.72,-61.4641 L 1489.49,-61.8042 L 1490.72,-62 L 1580.83,-62 L 1581.66,-61.9126 L 1582.45,-61.6542
 L 1583.18,-61.2361 L 1583.8,-60.6765 L 1584.29,-60 L 1584.63,-59.2361 L 1584.8,-58.4181 L 1584.8,-57.5819
 L 1584.63,-56.7639 L 1584.29,-56 L 1583.8,-55.3235 L 1583.18,-54.7639 L 1582.21,-54.2486 L 1492.11,-20.9089
 L 1491.3,-20.7023 L 1490.46,-20.6686 z
M 177.7,-20.7023 L 176.89,-20.9089 L 86.7853,-54.2486 L 85.8223,-54.7639 L 85.2008,-55.3235 L 84.7093,-56
 L 84.3692,-56.7639 L 84.1953,-57.5819 L 84.1953,-58.4181 L 84.3692,-59.2361 L 84.7093,-60 L 85.2008,-60.6765
 L 85.8223,-61.2361 L 86.5465,-61.6542 L 87.3418,-61.9126 L 88.1734,-62 L 178.278,-62 L 179.514,-61.8042
 L 180.278,-61.4641 L 180.954,-60.9726 L 181.514,-60.3511 L 181.932,-59.627 L 182.19,-58.8316 L 182.278,-58
 L 182.278,-24.6603 L 182.154,-23.672 L 181.864,-22.8877 L 181.417,-22.1809 L 180.833,-21.5825 L 180.137,-21.1186
 L 179.36,-20.8094 L 178.536,-20.6686 z
M 1305.86,-20.8094 L 1305.09,-21.1186 L 1304.39,-21.5825 L 1303.81,-22.1809 L 1303.36,-22.8877 L 1303.07,-23.672
 L 1302.94,-24.6603 L 1302.94,-58 L 1303.03,-58.8316 L 1303.29,-59.627 L 1303.71,-60.3511 L 1304.27,-60.9726
 L 1304.94,-61.4641 L 1305.71,-61.8042 L 1306.94,-62 L 1397.05,-62 L 1397.88,-61.9126 L 1398.68,-61.6542
 L 1399.4,-61.2361 L 1400.02,-60.6765 L 1400.51,-60 L 1400.85,-59.2361 L 1401.03,-58.4181 L 1401.03,-57.5819
 L 1400.85,-56.7639 L 1400.51,-56 L 1400.02,-55.3235 L 1399.4,-54.7639 L 1398.44,-54.2486 L 1308.33,-20.9089
 L 1307.52,-20.7023 L 1306.69,-20.6686 z
M 755.193,-18.5514 L 754.375,-18.7253 L 753.611,-19.0654 L 752.935,-19.5569 L 752.375,-20.1784 L 751.957,-20.9026
 L 751.699,-21.6979 L 751.611,-22.5295 L 751.611,-57.4705 L 751.735,-58.4588 L 752.025,-59.2431 L 752.472,-59.9499
 L 753.056,-60.5483 L 753.752,-61.0122 L 754.529,-61.3213 L 755.353,-61.4622 L 756.189,-61.4285 L 756.999,-61.2219
 L 804.215,-43.7514 L 804.686,-43.5417 L 805.382,-43.0778 L 805.966,-42.4794 L 806.413,-41.7726 L 806.703,-40.9883
 L 806.824,-40.1609 L 806.77,-39.3264 L 806.544,-38.5213 L 806.155,-37.7809 L 805.621,-37.1375 L 804.965,-36.6191
 L 804.215,-36.2486 L 756.999,-18.7781 L 756.029,-18.5514 z
M 912.811,-18.5715 L 912.001,-18.7781 L 864.785,-36.2486 L 864.314,-36.4583 L 863.618,-36.9222 L 863.034,-37.5206
 L 862.587,-38.2274 L 862.297,-39.0117 L 862.176,-39.8391 L 862.23,-40.6736 L 862.456,-41.4787 L 862.845,-42.2191
 L 863.379,-42.8625 L 864.035,-43.3809 L 864.785,-43.7514 L 912.001,-61.2219 L 912.971,-61.4486 L 913.807,-61.4486
 L 914.625,-61.2747 L 915.389,-60.9346 L 916.065,-60.4431 L 916.625,-59.8216 L 917.043,-59.0974 L 917.301,-58.3021
 L 917.389,-57.4705 L 917.389,-22.5295 L 917.265,-21.5412 L 916.975,-20.7569 L 916.528,-20.0501 L 915.944,-19.4517
 L 915.248,-18.9878 L 914.471,-18.6786 L 913.647,-18.5378 z
M 204.278,-18 L 203.042,-18.1958 L 202.278,-18.5359 L 201.601,-19.0274 L 201.042,-19.6489 L 200.624,-20.373
 L 200.365,-21.1684 L 200.278,-22 L 200.278,-55.3397 L 200.402,-56.328 L 200.692,-57.1123 L 201.139,-57.8191
 L 201.723,-58.4175 L 202.419,-58.8814 L 203.196,-59.1906 L 204.02,-59.3314 L 204.856,-59.2977 L 205.666,-59.0911
 L 295.77,-25.7514 L 296.733,-25.2361 L 297.355,-24.6765 L 297.846,-24 L 298.186,-23.2361 L 298.36,-22.4181
 L 298.36,-21.5819 L 298.186,-20.7639 L 297.846,-20 L 297.355,-19.3235 L 296.733,-18.7639 L 296.009,-18.3458
 L 295.214,-18.0874 L 294.382,-18 z
M 388.056,-18 L 386.819,-18.1958 L 386.056,-18.5359 L 385.379,-19.0274 L 384.819,-19.6489 L 384.401,-20.373
 L 384.143,-21.1684 L 384.056,-22 L 384.056,-55.3397 L 384.18,-56.328 L 384.47,-57.1123 L 384.917,-57.8191
 L 385.501,-58.4175 L 386.196,-58.8814 L 386.973,-59.1906 L 387.798,-59.3314 L 388.633,-59.2977 L 389.444,-59.0911
 L 479.548,-25.7514 L 480.511,-25.2361 L 481.132,-24.6765 L 481.624,-24 L 481.964,-23.2361 L 482.138,-22.4181
 L 482.138,-21.5819 L 481.964,-20.7639 L 481.624,-20 L 481.132,-19.3235 L 480.511,-18.7639 L 479.787,-18.3458
 L 478.992,-18.0874 L 478.16,-18 z
M 571.833,-18 L 570.597,-18.1958 L 569.833,-18.5359 L 569.157,-19.0274 L 568.597,-19.6489 L 568.179,-20.373
 L 567.921,-21.1684 L 567.833,-22 L 567.833,-55.3397 L 567.957,-56.328 L 568.248,-57.1123 L 568.694,-57.8191
 L 569.279,-58.4175 L 569.974,-58.8814 L 570.751,-59.1906 L 571.576,-59.3314 L 572.411,-59.2977 L 573.221,-59.0911
 L 663.326,-25.7514 L 664.289,-25.2361 L 664.91,-24.6765 L 665.402,-24 L 665.742,-23.2361 L 665.916,-22.4181
 L 665.916,-21.5819 L 665.742,-20.7639 L 665.402,-20 L 664.91,-19.3235 L 664.289,-18.7639 L 663.565,-18.3458
 L 662.769,-18.0874 L 661.938,-18 z
M 1007.06,-18 L 1006.23,-18.0874 L 1005.44,-18.3458 L 1004.71,-18.7639 L 1004.09,-19.3235 L 1003.6,-20
 L 1003.26,-20.7639 L 1003.08,-21.5819 L 1003.08,-22.4181 L 1003.26,-23.2361 L 1003.6,-24 L 1004.09,-24.6765
 L 1004.71,-25.2361 L 1005.67,-25.7514 L 1095.78,-59.0911 L 1096.59,-59.2977 L 1097.42,-59.3314 L 1098.25,-59.1906
 L 1099.03,-58.8814 L 1099.72,-58.4175 L 1100.31,-57.8191 L 1100.75,-57.1123 L 1101.04,-56.328 L 1101.17,-55.3397
 L 1101.17,-22 L 1101.08,-21.1684 L 1100.82,-20.373 L 1100.4,-19.6489 L 1099.84,-19.0274 L 1099.17,-18.5359
 L 1098.4,-18.1958 L 1097.17,-18 z
M 1190.84,-18 L 1190.01,-18.0874 L 1189.21,-18.3458 L 1188.49,-18.7639 L 1187.87,-19.3235 L 1187.38,-20
 L 1187.04,-20.7639 L 1186.86,-21.5819 L 1186.86,-22.4181 L 1187.04,-23.2361 L 1187.38,-24 L 1187.87,-24.6765
 L 1188.49,-25.2361 L 1189.45,-25.7514 L 1279.56,-59.0911 L 1280.37,-59.2977 L 1281.2,-59.3314 L 1282.03,-59.1906
 L 1282.8,-58.8814 L 1283.5,-58.4175 L 1284.08,-57.8191 L 1284.53,-57.1123 L 1284.82,-56.328 L 1284.94,-55.3397
 L 1284.94,-22 L 1284.86,-21.1684 L 1284.6,-20.373 L 1284.18,-19.6489 L 1283.62,-19.0274 L 1282.94,-18.5359
 L 1282.18,-18.1958 L 1280.94,-18 z
M 1374.62,-18 L 1373.79,-18.0874 L 1372.99,-18.3458 L 1372.27,-18.7639 L 1371.65,-19.3235 L 1371.15,-20
 L 1370.81,-20.7639 L 1370.64,-21.5819 L 1370.64,-22.4181 L 1370.81,-23.2361 L 1371.15,-24 L 1371.65,-24.6765
 L 1372.27,-25.2361 L 1373.23,-25.7514 L 1463.33,-59.0911 L 1464.14,-59.2977 L 1464.98,-59.3314 L 1465.8,-59.1906
 L 1466.58,-58.8814 L 1467.28,-58.4175 L 1467.86,-57.8191 L 1468.31,-57.1123 L 1468.6,-56.328 L 1468.72,-55.3397
 L 1468.72,-22 L 1468.63,-21.1684 L 1468.38,-20.373 L 1467.96,-19.6489 L 1467.4,-19.0274 L 1466.72,-18.5359
 L 1465.96,-18.1958 L 1464.72,-18 z
M 22,-18 L 20.7639,-18.1958 L 20,-18.5359 L 19.3235,-19.0274 L 18.7639,-19.6489 L 18.3458,-20.373
 L 18.0874,-21.1684 L 18,-22 L 18,-54.7847 L 18.124,-55.773 L 18.4142,-56.5573 L 18.8611,-57.2641
 L 19.4452,-57.8625 L 20.1409,-58.3264 L 20.9179,-58.6355 L 21.7422,-58.7764 L 22.5778,-58.7427 L 23.3881,-58.5361
 L 111.992,-25.7514 L 112.955,-25.2361 L 113.577,-24.6765 L 114.068,-24 L 114.409,-23.2361 L 114.582,-22.4181
 L 114.582,-21.5819 L 114.409,-20.7639 L 114.068,-20 L 113.577,-19.3235 L 112.955,-18.7639 L 112.231,-18.3458
 L 111.436,-18.0874 L 110.604,-18 z
M 1558.4,-18 L 1557.56,-18.0874 L 1556.77,-18.3458 L 1556.04,-18.7639 L 1555.42,-19.3235 L 1554.93,-20
 L 1554.59,-20.7639 L 1554.42,-21.5819 L 1554.42,-22.4181 L 1554.59,-23.2361 L 1554.93,-24 L 1555.42,-24.6765
 L 1556.04,-25.2361 L 1557.01,-25.7514 L 1645.61,-58.5361 L 1646.42,-58.7427 L 1647.26,-58.7764 L 1648.08,-58.6355
 L 1648.86,-58.3264 L 1649.55,-57.8625 L 1650.14,-57.2641 L 1650.59,-56.5573 L 1650.88,-55.773 L 1651,-54.7847
 L 1651,-22 L 1650.91,-21.1684 L 1650.65,-20.373 L 1650.24,-19.6489 L 1649.68,-19.0274 L 1649,-18.5359
 L 1648.24,-18.1958 L 1647,-18 z
M 817.526,-18 L 816.444,-18.1491 L 815.667,-18.4583 L 814.971,-18.9222 L 814.387,-19.5206 L 813.94,-20.2274
 L 813.65,-21.0117 L 813.529,-21.8391 L 813.583,-22.6736 L 813.809,-23.4787 L 814.198,-24.2191 L 814.732,-24.8625
 L 815.388,-25.3809 L 816.138,-25.7514 L 833.112,-32.0321 L 834.242,-32.2723 L 835.078,-32.2387 L 835.888,-32.0321
 L 852.862,-25.7514 L 853.825,-25.2361 L 854.447,-24.6765 L 854.938,-24 L 855.278,-23.2361 L 855.452,-22.4181
 L 855.452,-21.5819 L 855.278,-20.7639 L 854.938,-20 L 854.447,-19.3235 L 853.825,-18.7639 L 853.101,-18.3458
 L 852.306,-18.0874 L 851.474,-18 z
" stroke="black" fill="lightgray" stroke-width="0.5"/>
</svg>
