<?xml version="1.0" standalone="no"?>
<!DOCTYPE svg PUBLIC "-//W3C//DTD SVG 1.1//EN" "http://www.w3.org/Graphics/SVG/1.1/DTD/svg11.dtd">
<svg width="1506mm" height="80mm" viewBox="0 -80 1506 80" xmlns="http://www.w3.org/2000/svg" version="1.1">
<title>OpenSCAD Model</title>
<path d="
M 1506,-80 L 0,-80 L 0,-0 L 4.95,-0 L 4.95,-6 L 5.00572,-6.53017
 L 5.17046,-7.03717 L 5.437,-7.49884 L 5.79372,-7.895 L 6.22499,-8.20836 L 6.71201,-8.42519 L 7.23344,-8.53603
 L 7.76654,-8.53603 L 8.28798,-8.42519 L 8.77499,-8.20836 L 9.20627,-7.895 L 9.56299,-7.49884 L 9.82953,-7.03717
 L 9.99426,-6.53017 L 10.05,-6 L 10.05,-0 L 191.325,-0 L 191.325,-6 L 191.381,-6.53017
 L 191.545,-7.03717 L 191.812,-7.49884 L 192.169,-7.895 L 192.6,-8.20836 L 193.087,-8.42519 L 193.608,-8.53603
 L 194.142,-8.53603 L 194.663,-8.42519 L 195.15,-8.20836 L 195.581,-7.895 L 195.938,-7.49884 L 196.205,-7.03717
 L 196.369,-6.53017 L 196.425,-6 L 196.425,-0 L 377.7,-0 L 377.7,-6 L 377.756,-6.53017
 L 377.92,-7.03717 L 378.187,-7.49884 L 378.544,-7.895 L 378.975,-8.20836 L 379.462,-8.42519 L 379.983,-8.53603
 L 380.517,-8.53603 L 381.038,-8.42519 L 381.525,-8.20836 L 381.956,-7.895 L 382.313,-7.49884 L 382.58,-7.03717
 L 382.744,-6.53017 L 382.8,-6 L 382.8,-0 L 564.075,-0 L 564.075,-6 L 564.131,-6.53017
 L 564.295,-7.03717 L 564.562,-7.49884 L 564.919,-7.895 L 565.35,-8.20836 L 565.837,-8.42519 L 566.358,-8.53603
 L 566.892,-8.53603 L 567.413,-8.42519 L 567.9,-8.20836 L 568.331,-7.895 L 568.688,-7.49884 L 568.955,-7.03717
 L 569.119,-6.53017 L 569.175,-6 L 569.175,-0 L 750.45,-0 L 750.45,-6 L 750.506,-6.53017
 L 750.67,-7.03717 L 750.937,-7.49884 L 751.294,-7.895 L 751.725,-8.20836 L 752.212,-8.42519 L 752.733,-8.53603
 L 753.267,-8.53603 L 753.788,-8.42519 L 754.275,-8.20836 L 754.706,-7.895 L 755.063,-7.49884 L 755.33,-7.03717
 L 755.494,-6.53017 L 755.55,-6 L 755.55,-0 L 936.825,-0 L 936.825,-6 L 936.881,-6.53017
 L 937.045,-7.03717 L 937.312,-7.49884 L 937.669,-7.895 L 938.1,-8.20836 L 938.587,-8.42519 L 939.108,-8.53603
 L 939.642,-8.53603 L 940.163,-8.42519 L 940.65,-8.20836 L 941.081,-7.895 L 941.438,-7.49884 L 941.705,-7.03717
 L 941.869,-6.53017 L 941.925,-6 L 941.925,-0 L 1123.2,-0 L 1123.2,-6 L 1123.26,-6.53017
 L 1123.42,-7.03717 L 1123.69,-7.49884 L 1124.04,-7.895 L 1124.47,-8.20836 L 1124.96,-8.42519 L 1125.48,-8.53603
 L 1126.02,-8.53603 L 1126.54,-8.42519 L 1127.02,-8.20836 L 1127.46,-7.895 L 1127.81,-7.49884 L 1128.08,-7.03717
 L 1128.24,-6.53017 L 1128.3,-6 L 1128.3,-0 L 1309.57,-0 L 1309.57,-6 L 1309.63,-6.53017
 L 1309.8,-7.03717 L 1310.06,-7.49884 L 1310.42,-7.895 L 1310.85,-8.20836 L 1311.34,-8.42519 L 1311.86,-8.53603
 L 1312.39,-8.53603 L 1312.91,-8.42519 L 1313.4,-8.20836 L 1313.83,-7.895 L 1314.19,-7.49884 L 1314.45,-7.03717
 L 1314.62,-6.53017 L 1314.67,-6 L 1314.67,-0 L 1495.95,-0 L 1495.95,-6 L 1496.01,-6.53017
 L 1496.17,-7.03717 L 1496.44,-7.49884 L 1496.79,-7.895 L 1497.22,-8.20836 L 1497.71,-8.42519 L 1498.23,-8.53603
 L 1498.77,-8.53603 L 1499.29,-8.42519 L 1499.77,-8.20836 L 1500.21,-7.895 L 1500.56,-7.49884 L 1500.83,-7.03717
 L 1500.99,-6.53017 L 1501.05,-6 L 1501.05,-0 L 1506,-0 z
M 193.361,-55.607 L 192.852,-55.6875 L 192.355,-55.8208 L 191.874,-56.0054 L 191.415,-56.2392 L 190.983,-56.5196
 L 190.583,-56.8437 L 190.219,-57.2079 L 189.895,-57.6081 L 189.614,-58.04 L 189.38,-58.4989 L 189.196,-58.9796
 L 189.063,-59.4771 L 188.982,-59.9857 L 188.955,-60.5 L 188.982,-61.0143 L 189.063,-61.5229 L 189.196,-62.0204
 L 189.38,-62.5011 L 189.614,-62.96 L 189.895,-63.3919 L 190.219,-63.7921 L 190.583,-64.1563 L 190.983,-64.4804
 L 191.325,-64.7024 L 191.325,-74 L 191.381,-74.5302 L 191.545,-75.0372 L 191.812,-75.4988 L 192.169,-75.895
 L 192.6,-76.2084 L 193.087,-76.4252 L 193.608,-76.536 L 194.142,-76.536 L 194.663,-76.4252 L 195.15,-76.2084
 L 195.581,-75.895 L 195.938,-75.4988 L 196.205,-75.0372 L 196.369,-74.5302 L 196.425,-74 L 196.425,-64.7024
 L 196.767,-64.4804 L 197.167,-64.1563 L 197.531,-63.7921 L 197.855,-63.3919 L 198.136,-62.96 L 198.37,-62.5011
 L 198.554,-62.0204 L 198.687,-61.5229 L 198.768,-61.0143 L 198.795,-60.5 L 198.768,-59.9857 L 198.687,-59.4771
 L 198.554,-58.9796 L 198.37,-58.4989 L 198.136,-58.04 L 197.855,-57.6081 L 197.531,-57.2079 L 197.167,-56.8437
 L 196.767,-56.5196 L 196.335,-56.2392 L 195.876,-56.0054 L 195.395,-55.8208 L 194.898,-55.6875 L 194.389,-55.607
 L 193.875,-55.58 z
M 1125.24,-55.607 L 1124.73,-55.6875 L 1124.23,-55.8208 L 1123.75,-56.0054 L 1123.29,-56.2392 L 1122.86,-56.5196
 L 1122.46,-56.8437 L 1122.09,-57.2079 L 1121.77,-57.6081 L 1121.49,-58.04 L 1121.26,-58.4989 L 1121.07,-58.9796
 L 1120.94,-59.4771 L 1120.86,-59.9857 L 1120.83,-60.5 L 1120.86,-61.0143 L 1120.94,-61.5229 L 1121.07,-62.0204
 L 1121.26,-62.5011 L 1121.49,-62.96 L 1121.77,-63.3919 L 1122.09,-63.7921 L 1122.46,-64.1563 L 1122.86,-64.4804
 L 1123.2,-64.7024 L 1123.2,-74 L 1123.26,-74.5302 L 1123.42,-75.0372 L 1123.69,-75.4988 L 1124.04,-75.895
 L 1124.48,-76.2084 L 1124.96,-76.4252 L 1125.48,-76.536 L 1126.02,-76.536 L 1126.54,-76.4252 L 1127.02,-76.2084
 L 1127.46,-75.895 L 1127.81,-75.4988 L 1128.08,-75.0372 L 1128.24,-74.5302 L 1128.3,-74 L 1128.3,-64.7024
 L 1128.64,-64.4804 L 1129.04,-64.1563 L 1129.41,-63.7921 L 1129.73,-63.3919 L 1130.01,-62.96 L 1130.24,-62.5011
 L 1130.43,-62.0204 L 1130.56,-61.5229 L 1130.64,-61.0143 L 1130.67,-60.5 L 1130.64,-59.9857 L 1130.56,-59.4771
 L 1130.43,-58.9796 L 1130.24,-58.4989 L 1130.01,-58.04 L 1129.73,-57.6081 L 1129.41,-57.2079 L 1129.04,-56.8437
 L 1128.64,-56.5196 L 1128.21,-56.2392 L 1127.75,-56.0054 L 1127.27,-55.8208 L 1126.77,-55.6875 L 1126.26,-55.607
 L 1125.75,-55.58 z
M 938.861,-55.607 L 938.352,-55.6875 L 937.855,-55.8208 L 937.374,-56.0054 L 936.915,-56.2392 L 936.483,-56.5196
 L 936.083,-56.8437 L 935.719,-57.2079 L 935.395,-57.6081 L 935.114,-58.04 L 934.88,-58.4989 L 934.696,-58.9796
 L 934.563,-59.4771 L 934.482,-59.9857 L 934.455,-60.5 L 934.482,-61.0143 L 934.563,-61.5229 L 934.696,-62.0204
 L 934.88,-62.5011 L 935.114,-62.96 L 935.395,-63.3919 L 935.719,-63.7921 L 936.083,-64.1563 L 936.483,-64.4804
 L 936.825,-64.7024 L 936.825,-74 L 936.881,-74.5302 L 937.045,-75.0372 L 937.312,-75.4988 L 937.669,-75.895
 L 938.1,-76.2084 L 938.587,-76.4252 L 939.108,-76.536 L 939.642,-76.536 L 940.163,-76.4252 L 940.65,-76.2084
 L 941.081,-75.895 L 941.438,-75.4988 L 941.705,-75.0372 L 941.869,-74.5302 L 941.925,-74 L 941.925,-64.7024
 L 942.267,-64.4804 L 942.667,-64.1563 L 943.031,-63.7921 L 943.355,-63.3919 L 943.636,-62.96 L 943.87,-62.5011
 L 944.054,-62.0204 L 944.187,-61.5229 L 944.268,-61.0143 L 944.295,-60.5 L 944.268,-59.9857 L 944.187,-59.4771
 L 944.054,-58.9796 L 943.87,-58.4989 L 943.636,-58.04 L 943.355,-57.6081 L 943.031,-57.2079 L 942.667,-56.8437
 L 942.267,-56.5196 L 941.835,-56.2392 L 941.376,-56.0054 L 940.895,-55.8208 L 940.398,-55.6875 L 939.889,-55.607
 L 939.375,-55.58 z
M 6.98573,-55.607 L 6.47708,-55.6875 L 5.97964,-55.8208 L 5.49887,-56.0054 L 5.04001,-56.2392 L 4.60811,-56.5196
 L 4.20789,-56.8437 L 3.84373,-57.2079 L 3.51964,-57.6081 L 3.23917,-58.04 L 3.00537,-58.4989 L 2.82082,-58.9796
 L 2.68752,-59.4771 L 2.60696,-59.9857 L 2.58,-60.5 L 2.60696,-61.0143 L 2.68752,-61.5229 L 2.82082,-62.0204
 L 3.00537,-62.5011 L 3.23917,-62.96 L 3.51964,-63.3919 L 3.84373,-63.7921 L 4.20789,-64.1563 L 4.60811,-64.4804
 L 4.95001,-64.7024 L 4.95001,-74 L 5.00574,-74.5302 L 5.17047,-75.0372 L 5.43701,-75.4988 L 5.79373,-75.895
 L 6.22501,-76.2084 L 6.71202,-76.4252 L 7.23346,-76.536 L 7.76654,-76.536 L 8.28798,-76.4252 L 8.77499,-76.2084
 L 9.20627,-75.895 L 9.56299,-75.4988 L 9.82953,-75.0372 L 9.99426,-74.5302 L 10.05,-74 L 10.05,-64.7024
 L 10.3919,-64.4804 L 10.7921,-64.1563 L 11.1563,-63.7921 L 11.4804,-63.3919 L 11.7608,-62.96 L 11.9946,-62.5011
 L 12.1792,-62.0204 L 12.3125,-61.5229 L 12.393,-61.0143 L 12.42,-60.5 L 12.393,-59.9857 L 12.3125,-59.4771
 L 12.1792,-58.9796 L 11.9946,-58.4989 L 11.7608,-58.04 L 11.4804,-57.6081 L 11.1563,-57.2079 L 10.7921,-56.8437
 L 10.3919,-56.5196 L 9.95999,-56.2392 L 9.50113,-56.0054 L 9.02036,-55.8208 L 8.52292,-55.6875 L 8.01427,-55.607
 L 7.5,-55.58 z
M 752.486,-55.607 L 751.977,-55.6875 L 751.48,-55.8208 L 750.999,-56.0054 L 750.54,-56.2392 L 750.108,-56.5196
 L 749.708,-56.8437 L 749.344,-57.2079 L 749.02,-57.6081 L 748.739,-58.04 L 748.505,-58.4989 L 748.321,-58.9796
 L 748.188,-59.4771 L 748.107,-59.9857 L 748.08,-60.5 L 748.107,-61.0143 L 748.188,-61.5229 L 748.321,-62.0204
 L 748.505,-62.5011 L 748.739,-62.96 L 749.02,-63.3919 L 749.344,-63.7921 L 749.708,-64.1563 L 750.108,-64.4804
 L 750.45,-64.7024 L 750.45,-74 L 750.506,-74.5302 L 750.67,-75.0372 L 750.937,-75.4988 L 751.294,-75.895
 L 751.725,-76.2084 L 752.212,-76.4252 L 752.733,-76.536 L 753.267,-76.536 L 753.788,-76.4252 L 754.275,-76.2084
 L 754.706,-75.895 L 755.063,-75.4988 L 755.33,-75.0372 L 755.494,-74.5302 L 755.55,-74 L 755.55,-64.7024
 L 755.892,-64.4804 L 756.292,-64.1563 L 756.656,-63.7921 L 756.98,-63.3919 L 757.261,-62.96 L 757.495,-62.5011
 L 757.679,-62.0204 L 757.812,-61.5229 L 757.893,-61.0143 L 757.92,-60.5 L 757.893,-59.9857 L 757.812,-59.4771
 L 757.679,-58.9796 L 757.495,-58.4989 L 757.261,-58.04 L 756.98,-57.6081 L 756.656,-57.2079 L 756.292,-56.8437
 L 755.892,-56.5196 L 755.46,-56.2392 L 755.001,-56.0054 L 754.52,-55.8208 L 754.023,-55.6875 L 753.514,-55.607
 L 753,-55.58 z
M 1311.61,-55.607 L 1311.1,-55.6875 L 1310.6,-55.8208 L 1310.12,-56.0054 L 1309.67,-56.2392 L 1309.23,-56.5196
 L 1308.83,-56.8437 L 1308.47,-57.2079 L 1308.14,-57.6081 L 1307.86,-58.04 L 1307.63,-58.4989 L 1307.45,-58.9796
 L 1307.31,-59.4771 L 1307.23,-59.9857 L 1307.21,-60.5 L 1307.23,-61.0143 L 1307.31,-61.5229 L 1307.45,-62.0204
 L 1307.63,-62.5011 L 1307.86,-62.96 L 1308.14,-63.3919 L 1308.47,-63.7921 L 1308.83,-64.1563 L 1309.23,-64.4804
 L 1309.58,-64.7024 L 1309.58,-74 L 1309.63,-74.5302 L 1309.8,-75.0372 L 1310.06,-75.4988 L 1310.42,-75.895
 L 1310.85,-76.2084 L 1311.34,-76.4252 L 1311.86,-76.536 L 1312.39,-76.536 L 1312.91,-76.4252 L 1313.4,-76.2084
 L 1313.83,-75.895 L 1314.19,-75.4988 L 1314.45,-75.0372 L 1314.62,-74.5302 L 1314.67,-74 L 1314.67,-64.7024
 L 1315.02,-64.4804 L 1315.42,-64.1563 L 1315.78,-63.7921 L 1316.11,-63.3919 L 1316.39,-62.96 L 1316.62,-62.5011
 L 1316.8,-62.0204 L 1316.94,-61.5229 L 1317.02,-61.0143 L 1317.04,-60.5 L 1317.02,-59.9857 L 1316.94,-59.4771
 L 1316.8,-58.9796 L 1316.62,-58.4989 L 1316.39,-58.04 L 1316.11,-57.6081 L 1315.78,-57.2079 L 1315.42,-56.8437
 L 1315.02,-56.5196 L 1314.58,-56.2392 L 1314.13,-56.0054 L 1313.65,-55.8208 L 1313.15,-55.6875 L 1312.64,-55.607
 L 1312.12,-55.58 z
M 566.111,-55.607 L 565.602,-55.6875 L 565.105,-55.8208 L 564.624,-56.0054 L 564.165,-56.2392 L 563.733,-56.5196
 L 563.333,-56.8437 L 562.969,-57.2079 L 562.645,-57.6081 L 562.364,-58.04 L 562.13,-58.4989 L 561.946,-58.9796
 L 561.813,-59.4771 L 561.732,-59.9857 L 561.705,-60.5 L 561.732,-61.0143 L 561.813,-61.5229 L 561.946,-62.0204
 L 562.13,-62.5011 L 562.364,-62.96 L 562.645,-63.3919 L 562.969,-63.7921 L 563.333,-64.1563 L 563.733,-64.4804
 L 564.075,-64.7024 L 564.075,-74 L 564.131,-74.5302 L 564.295,-75.0372 L 564.562,-75.4988 L 564.919,-75.895
 L 565.35,-76.2084 L 565.837,-76.4252 L 566.358,-76.536 L 566.892,-76.536 L 567.413,-76.4252 L 567.9,-76.2084
 L 568.331,-75.895 L 568.688,-75.4988 L 568.955,-75.0372 L 569.119,-74.5302 L 569.175,-74 L 569.175,-64.7024
 L 569.517,-64.4804 L 569.917,-64.1563 L 570.281,-63.7921 L 570.605,-63.3919 L 570.886,-62.96 L 571.12,-62.5011
 L 571.304,-62.0204 L 571.437,-61.5229 L 571.518,-61.0143 L 571.545,-60.5 L 571.518,-59.9857 L 571.437,-59.4771
 L 571.304,-58.9796 L 571.12,-58.4989 L 570.886,-58.04 L 570.605,-57.6081 L 570.281,-57.2079 L 569.917,-56.8437
 L 569.517,-56.5196 L 569.085,-56.2392 L 568.626,-56.0054 L 568.145,-55.8208 L 567.648,-55.6875 L 567.139,-55.607
 L 566.625,-55.58 z
M 379.736,-55.607 L 379.227,-55.6875 L 378.73,-55.8208 L 378.249,-56.0054 L 377.79,-56.2392 L 377.358,-56.5196
 L 376.958,-56.8437 L 376.594,-57.2079 L 376.27,-57.6081 L 375.989,-58.04 L 375.755,-58.4989 L 375.571,-58.9796
 L 375.438,-59.4771 L 375.357,-59.9857 L 375.33,-60.5 L 375.357,-61.0143 L 375.438,-61.5229 L 375.571,-62.0204
 L 375.755,-62.5011 L 375.989,-62.96 L 376.27,-63.3919 L 376.594,-63.7921 L 376.958,-64.1563 L 377.358,-64.4804
 L 377.7,-64.7024 L 377.7,-74 L 377.756,-74.5302 L 377.92,-75.0372 L 378.187,-75.4988 L 378.544,-75.895
 L 378.975,-76.2084 L 379.462,-76.4252 L 379.983,-76.536 L 380.517,-76.536 L 381.038,-76.4252 L 381.525,-76.2084
 L 381.956,-75.895 L 382.313,-75.4988 L 382.58,-75.0372 L 382.744,-74.5302 L 382.8,-74 L 382.8,-64.7024
 L 383.142,-64.4804 L 383.542,-64.1563 L 383.906,-63.7921 L 384.23,-63.3919 L 384.511,-62.96 L 384.745,-62.5011
 L 384.929,-62.0204 L 385.062,-61.5229 L 385.143,-61.0143 L 385.17,-60.5 L 385.143,-59.9857 L 385.062,-59.4771
 L 384.929,-58.9796 L 384.745,-58.4989 L 384.511,-58.04 L 384.23,-57.6081 L 383.906,-57.2079 L 383.542,-56.8437
 L 383.142,-56.5196 L 382.71,-56.2392 L 382.251,-56.0054 L 381.77,-55.8208 L 381.273,-55.6875 L 380.764,-55.607
 L 380.25,-55.58 z
M 1497.99,-55.607 L 1497.48,-55.6875 L 1496.98,-55.8208 L 1496.5,-56.0054 L 1496.04,-56.2392 L 1495.61,-56.5196
 L 1495.21,-56.8437 L 1494.84,-57.2079 L 1494.52,-57.6081 L 1494.24,-58.04 L 1494.01,-58.4989 L 1493.82,-58.9796
 L 1493.69,-59.4771 L 1493.61,-59.9857 L 1493.58,-60.5 L 1493.61,-61.0143 L 1493.69,-61.5229 L 1493.82,-62.0204
 L 1494.01,-62.5011 L 1494.24,-62.96 L 1494.52,-63.3919 L 1494.84,-63.7921 L 1495.21,-64.1563 L 1495.61,-64.4804
 L 1495.95,-64.7024 L 1495.95,-74 L 1496.01,-74.5302 L 1496.17,-75.0372 L 1496.44,-75.4988 L 1496.79,-75.895
 L 1497.23,-76.2084 L 1497.71,-76.4252 L 1498.23,-76.536 L 1498.77,-76.536 L 1499.29,-76.4252 L 1499.77,-76.2084
 L 1500.21,-75.895 L 1500.56,-75.4988 L 1500.83,-75.0372 L 1500.99,-74.5302 L 1501.05,-74 L 1501.05,-64.7024
 L 1501.39,-64.4804 L 1501.79,-64.1563 L 1502.16,-63.7921 L 1502.48,-63.3919 L 1502.76,-62.96 L 1502.99,-62.5011
 L 1503.18,-62.0204 L 1503.31,-61.5229 L 1503.39,-61.0143 L 1503.42,-60.5 L 1503.39,-59.9857 L 1503.31,-59.4771
 L 1503.18,-58.9796 L 1502.99,-58.4989 L 1502.76,-58.04 L 1502.48,-57.6081 L 1502.16,-57.2079 L 1501.79,-56.8437
 L 1501.39,-56.5196 L 1500.96,-56.2392 L 1500.5,-56.0054 L 1500.02,-55.8208 L 1499.52,-55.6875 L 1499.01,-55.607
 L 1498.5,-55.58 z
M 366.69,-20.6119 L 365.879,-20.8148 L 274.261,-54.2423 L 273.281,-54.7639 L 272.659,-55.3235 L 272.168,-56
 L 271.828,-56.7639 L 271.654,-57.5819 L 271.654,-58.4181 L 271.828,-59.2361 L 272.168,-60 L 272.659,-60.6765
 L 273.281,-61.2361 L 274.005,-61.6542 L 274.8,-61.9126 L 275.632,-62 L 367.25,-62 L 368.486,-61.8042
 L 369.25,-61.4641 L 369.927,-60.9726 L 370.486,-60.3511 L 370.904,-59.627 L 371.163,-58.8316 L 371.25,-58
 L 371.25,-24.5726 L 371.13,-23.6018 L 370.844,-22.8163 L 370.4,-22.1075 L 369.819,-21.5064 L 369.125,-21.0393
 L 368.35,-20.7267 L 367.526,-20.5821 z
M 553.065,-20.6119 L 552.254,-20.8148 L 460.636,-54.2423 L 459.656,-54.7639 L 459.034,-55.3235 L 458.543,-56
 L 458.203,-56.7639 L 458.029,-57.5819 L 458.029,-58.4181 L 458.203,-59.2361 L 458.543,-60 L 459.034,-60.6765
 L 459.656,-61.2361 L 460.38,-61.6542 L 461.175,-61.9126 L 462.007,-62 L 553.625,-62 L 554.861,-61.8042
 L 555.625,-61.4641 L 556.302,-60.9726 L 556.861,-60.3511 L 557.279,-59.627 L 557.538,-58.8316 L 557.625,-58
 L 557.625,-24.5726 L 557.505,-23.6018 L 557.219,-22.8163 L 556.775,-22.1075 L 556.194,-21.5064 L 555.5,-21.0393
 L 554.725,-20.7267 L 553.901,-20.5821 z
M 1324.03,-20.7267 L 1323.25,-21.0393 L 1322.56,-21.5064 L 1321.97,-22.1075 L 1321.53,-22.8163 L 1321.24,-23.6018
 L 1321.12,-24.5726 L 1321.12,-58 L 1321.21,-58.8316 L 1321.47,-59.627 L 1321.89,-60.3511 L 1322.45,-60.9726
 L 1323.12,-61.4641 L 1323.89,-61.8042 L 1325.12,-62 L 1416.74,-62 L 1417.57,-61.9126 L 1418.37,-61.6542
 L 1419.09,-61.2361 L 1419.72,-60.6765 L 1420.21,-60 L 1420.55,-59.2361 L 1420.72,-58.4181 L 1420.72,-57.5819
 L 1420.55,-56.7639 L 1420.21,-56 L 1419.72,-55.3235 L 1419.09,-54.7639 L 1418.11,-54.2423 L 1326.5,-20.8148
 L 1325.68,-20.6119 L 1324.85,-20.5821 z
M 739.44,-20.6119 L 738.629,-20.8148 L 647.011,-54.2423 L 646.031,-54.7639 L 645.409,-55.3235 L 644.918,-56
 L 644.578,-56.7639 L 644.404,-57.5819 L 644.404,-58.4181 L 644.578,-59.2361 L 644.918,-60 L 645.409,-60.6765
 L 646.031,-61.2361 L 646.755,-61.6542 L 647.55,-61.9126 L 648.382,-62 L 740,-62 L 741.236,-61.8042
 L 742,-61.4641 L 742.677,-60.9726 L 743.236,-60.3511 L 743.654,-59.627 L 743.913,-58.8316 L 744,-58
 L 744,-24.5726 L 743.88,-23.6018 L 743.594,-22.8163 L 743.15,-22.1075 L 742.569,-21.5064 L 741.875,-21.0393
 L 741.1,-20.7267 L 740.276,-20.5821 z
M 180.315,-20.6119 L 179.504,-20.8148 L 87.8857,-54.2423 L 86.9056,-54.7639 L 86.2842,-55.3235 L 85.7927,-56
 L 85.4525,-56.7639 L 85.2787,-57.5819 L 85.2787,-58.4181 L 85.4525,-59.2361 L 85.7927,-60 L 86.2842,-60.6765
 L 86.9056,-61.2361 L 87.6298,-61.6542 L 88.4251,-61.9126 L 89.2568,-62 L 180.875,-62 L 182.111,-61.8042
 L 182.875,-61.4641 L 183.552,-60.9726 L 184.111,-60.3511 L 184.529,-59.627 L 184.788,-58.8316 L 184.875,-58
 L 184.875,-24.5726 L 184.755,-23.6018 L 184.469,-22.8163 L 184.025,-22.1075 L 183.444,-21.5064 L 182.75,-21.0393
 L 181.975,-20.7267 L 181.151,-20.5821 z
M 764.9,-20.7267 L 764.125,-21.0393 L 763.431,-21.5064 L 762.85,-22.1075 L 762.406,-22.8163 L 762.12,-23.6018
 L 762,-24.5726 L 762,-58 L 762.087,-58.8316 L 762.346,-59.627 L 762.764,-60.3511 L 763.323,-60.9726
 L 764,-61.4641 L 764.764,-61.8042 L 766,-62 L 857.618,-62 L 858.45,-61.9126 L 859.245,-61.6542
 L 859.969,-61.2361 L 860.591,-60.6765 L 861.082,-60 L 861.422,-59.2361 L 861.596,-58.4181 L 861.596,-57.5819
 L 861.422,-56.7639 L 861.082,-56 L 860.591,-55.3235 L 859.969,-54.7639 L 858.989,-54.2423 L 767.371,-20.8148
 L 766.56,-20.6119 L 765.724,-20.5821 z
M 951.275,-20.7267 L 950.5,-21.0393 L 949.806,-21.5064 L 949.225,-22.1075 L 948.781,-22.8163 L 948.495,-23.6018
 L 948.375,-24.5726 L 948.375,-58 L 948.462,-58.8316 L 948.721,-59.627 L 949.139,-60.3511 L 949.698,-60.9726
 L 950.375,-61.4641 L 951.139,-61.8042 L 952.375,-62 L 1043.99,-62 L 1044.82,-61.9126 L 1045.62,-61.6542
 L 1046.34,-61.2361 L 1046.97,-60.6765 L 1047.46,-60 L 1047.8,-59.2361 L 1047.97,-58.4181 L 1047.97,-57.5819
 L 1047.8,-56.7639 L 1047.46,-56 L 1046.97,-55.3235 L 1046.34,-54.7639 L 1045.36,-54.2423 L 953.746,-20.8148
 L 952.935,-20.6119 L 952.099,-20.5821 z
M 1137.65,-20.7267 L 1136.87,-21.0393 L 1136.18,-21.5064 L 1135.6,-22.1075 L 1135.16,-22.8163 L 1134.87,-23.6018
 L 1134.75,-24.5726 L 1134.75,-58 L 1134.84,-58.8316 L 1135.1,-59.627 L 1135.51,-60.3511 L 1136.07,-60.9726
 L 1136.75,-61.4641 L 1137.51,-61.8042 L 1138.75,-62 L 1230.37,-62 L 1231.2,-61.9126 L 1232,-61.6542
 L 1232.72,-61.2361 L 1233.34,-60.6765 L 1233.83,-60 L 1234.17,-59.2361 L 1234.35,-58.4181 L 1234.35,-57.5819
 L 1234.17,-56.7639 L 1233.83,-56 L 1233.34,-55.3235 L 1232.72,-54.7639 L 1231.74,-54.2423 L 1140.12,-20.8148
 L 1139.31,-20.6119 L 1138.47,-20.5821 z
M 206.875,-18 L 205.639,-18.1958 L 204.875,-18.5359 L 204.198,-19.0274 L 203.639,-19.6489 L 203.221,-20.373
 L 202.962,-21.1684 L 202.875,-22 L 202.875,-55.4274 L 202.995,-56.3981 L 203.281,-57.1837 L 203.725,-57.8925
 L 204.306,-58.4936 L 205,-58.9607 L 205.775,-59.2733 L 206.599,-59.4179 L 207.435,-59.3881 L 208.246,-59.1851
 L 299.864,-25.7577 L 300.844,-25.2361 L 301.466,-24.6765 L 301.957,-24 L 302.297,-23.2361 L 302.471,-22.4181
 L 302.471,-21.5819 L 302.297,-20.7639 L 301.957,-20 L 301.466,-19.3235 L 300.844,-18.7639 L 300.12,-18.3458
 L 299.325,-18.0874 L 298.493,-18 z
M 393.25,-18 L 392.014,-18.1958 L 391.25,-18.5359 L 390.573,-19.0274 L 390.014,-19.6489 L 389.596,-20.373
 L 389.337,-21.1684 L 389.25,-22 L 389.25,-55.4274 L 389.37,-56.3981 L 389.656,-57.1837 L 390.1,-57.8925
 L 390.681,-58.4936 L 391.375,-58.9607 L 392.15,-59.2733 L 392.974,-59.4179 L 393.81,-59.3881 L 394.621,-59.1851
 L 486.239,-25.7577 L 487.219,-25.2361 L 487.841,-24.6765 L 488.332,-24 L 488.672,-23.2361 L 488.846,-22.4181
 L 488.846,-21.5819 L 488.672,-20.7639 L 488.332,-20 L 487.841,-19.3235 L 487.219,-18.7639 L 486.495,-18.3458
 L 485.7,-18.0874 L 484.868,-18 z
M 579.625,-18 L 578.389,-18.1958 L 577.625,-18.5359 L 576.948,-19.0274 L 576.389,-19.6489 L 575.971,-20.373
 L 575.712,-21.1684 L 575.625,-22 L 575.625,-55.4274 L 575.745,-56.3981 L 576.031,-57.1837 L 576.475,-57.8925
 L 577.056,-58.4936 L 577.75,-58.9607 L 578.525,-59.2733 L 579.349,-59.4179 L 580.185,-59.3881 L 580.996,-59.1851
 L 672.614,-25.7577 L 673.594,-25.2361 L 674.216,-24.6765 L 674.707,-24 L 675.047,-23.2361 L 675.221,-22.4181
 L 675.221,-21.5819 L 675.047,-20.7639 L 674.707,-20 L 674.216,-19.3235 L 673.594,-18.7639 L 672.87,-18.3458
 L 672.075,-18.0874 L 671.243,-18 z
M 834.757,-18 L 833.925,-18.0874 L 833.13,-18.3458 L 832.406,-18.7639 L 831.784,-19.3235 L 831.293,-20
 L 830.953,-20.7639 L 830.779,-21.5819 L 830.779,-22.4181 L 830.953,-23.2361 L 831.293,-24 L 831.784,-24.6765
 L 832.406,-25.2361 L 833.386,-25.7577 L 925.004,-59.1851 L 925.815,-59.3881 L 926.651,-59.4179 L 927.475,-59.2733
 L 928.25,-58.9607 L 928.944,-58.4936 L 929.525,-57.8925 L 929.969,-57.1837 L 930.255,-56.3981 L 930.375,-55.4274
 L 930.375,-22 L 930.288,-21.1684 L 930.029,-20.373 L 929.611,-19.6489 L 929.052,-19.0274 L 928.375,-18.5359
 L 927.611,-18.1958 L 926.375,-18 z
M 1021.13,-18 L 1020.3,-18.0874 L 1019.5,-18.3458 L 1018.78,-18.7639 L 1018.16,-19.3235 L 1017.67,-20
 L 1017.33,-20.7639 L 1017.15,-21.5819 L 1017.15,-22.4181 L 1017.33,-23.2361 L 1017.67,-24 L 1018.16,-24.6765
 L 1018.78,-25.2361 L 1019.76,-25.7577 L 1111.38,-59.1851 L 1112.19,-59.3881 L 1113.03,-59.4179 L 1113.85,-59.2733
 L 1114.63,-58.9607 L 1115.32,-58.4936 L 1115.9,-57.8925 L 1116.34,-57.1837 L 1116.63,-56.3981 L 1116.75,-55.4274
 L 1116.75,-22 L 1116.66,-21.1684 L 1116.4,-20.373 L 1115.99,-19.6489 L 1115.43,-19.0274 L 1114.75,-18.5359
 L 1113.99,-18.1958 L 1112.75,-18 z
M 1207.51,-18 L 1206.68,-18.0874 L 1205.88,-18.3458 L 1205.16,-18.7639 L 1204.53,-19.3235 L 1204.04,-20
 L 1203.7,-20.7639 L 1203.53,-21.5819 L 1203.53,-22.4181 L 1203.7,-23.2361 L 1204.04,-24 L 1204.53,-24.6765
 L 1205.16,-25.2361 L 1206.14,-25.7577 L 1297.75,-59.1851 L 1298.57,-59.3881 L 1299.4,-59.4179 L 1300.22,-59.2733
 L 1301,-58.9607 L 1301.69,-58.4936 L 1302.28,-57.8925 L 1302.72,-57.1837 L 1303.01,-56.3981 L 1303.12,-55.4274
 L 1303.12,-22 L 1303.04,-21.1684 L 1302.78,-20.373 L 1302.36,-19.6489 L 1301.8,-19.0274 L 1301.12,-18.5359
 L 1300.36,-18.1958 L 1299.12,-18 z
M 1393.88,-18 L 1393.05,-18.0874 L 1392.25,-18.3458 L 1391.53,-18.7639 L 1390.91,-19.3235 L 1390.42,-20
 L 1390.08,-20.7639 L 1389.9,-21.5819 L 1389.9,-22.4181 L 1390.08,-23.2361 L 1390.42,-24 L 1390.91,-24.6765
 L 1391.53,-25.2361 L 1392.51,-25.7577 L 1482.63,-58.6378 L 1483.44,-58.8408 L 1484.28,-58.8706 L 1485.1,-58.726
 L 1485.88,-58.4134 L 1486.57,-57.9463 L 1487.15,-57.3452 L 1487.59,-56.6364 L 1487.88,-55.8509 L 1488,-54.8801
 L 1488,-22 L 1487.91,-21.1684 L 1487.65,-20.373 L 1487.24,-19.6489 L 1486.68,-19.0274 L 1486,-18.5359
 L 1485.24,-18.1958 L 1484,-18 z
M 22,-18 L 20.7639,-18.1958 L 20,-18.5359 L 19.3235,-19.0274 L 18.7639,-19.6489 L 18.3458,-20.373
 L 18.0874,-21.1684 L 18,-22 L 18,-54.8801 L 18.1196,-55.8509 L 18.4062,-56.6364 L 18.8499,-57.3452
 L 19.4312,-57.9463 L 20.1249,-58.4134 L 20.9005,-58.726 L 21.7241,-58.8706 L 22.5598,-58.8408 L 23.371,-58.6378
 L 113.489,-25.7577 L 114.469,-25.2361 L 115.091,-24.6765 L 115.582,-24 L 115.922,-23.2361 L 116.096,-22.4181
 L 116.096,-21.5819 L 115.922,-20.7639 L 115.582,-20 L 115.091,-19.3235 L 114.469,-18.7639 L 113.745,-18.3458
 L 112.95,-18.0874 L 112.118,-18 z
" stroke="black" fill="lightgray" stroke-width="0.5"/>
</svg>
