<?xml version="1.0" standalone="no"?>
<!DOCTYPE svg PUBLIC "-//W3C//DTD SVG 1.1//EN" "http://www.w3.org/Graphics/SVG/1.1/DTD/svg11.dtd">
<svg width="1445mm" height="80mm" viewBox="0 -80 1445 80" xmlns="http://www.w3.org/2000/svg" version="1.1">
<title>OpenSCAD Model</title>
<path d="
M 1445,-80 L 0,-80 L 0,-0 L 4.95,-0 L 4.95,-6 L 5.00572,-6.53017
 L 5.17046,-7.03717 L 5.437,-7.49884 L 5.79372,-7.895 L 6.22499,-8.20836 L 6.71201,-8.42519 L 7.23344,-8.53603
 L 7.76654,-8.53603 L 8.28798,-8.42519 L 8.77499,-8.20836 L 9.20627,-7.895 L 9.56299,-7.49884 L 9.82953,-7.03717
 L 9.99426,-6.53017 L 10.05,-6 L 10.05,-0 L 183.7,-0 L 183.7,-6 L 183.756,-6.53017
 L 183.92,-7.03717 L 184.187,-7.49884 L 184.544,-7.895 L 184.975,-8.20836 L 185.462,-8.42519 L 185.983,-8.53603
 L 186.517,-8.53603 L 187.038,-8.42519 L 187.525,-8.20836 L 187.956,-7.895 L 188.313,-7.49884 L 188.58,-7.03717
 L 188.744,-6.53017 L 188.8,-6 L 188.8,-0 L 362.45,-0 L 362.45,-6 L 362.506,-6.53017
 L 362.67,-7.03717 L 362.937,-7.49884 L 363.294,-7.895 L 363.725,-8.20836 L 364.212,-8.42519 L 364.733,-8.53603
 L 365.267,-8.53603 L 365.788,-8.42519 L 366.275,-8.20836 L 366.706,-7.895 L 367.063,-7.49884 L 367.33,-7.03717
 L 367.494,-6.53017 L 367.55,-6 L 367.55,-0 L 541.2,-0 L 541.2,-6 L 541.256,-6.53017
 L 541.42,-7.03717 L 541.687,-7.49884 L 542.044,-7.895 L 542.475,-8.20836 L 542.962,-8.42519 L 543.483,-8.53603
 L 544.017,-8.53603 L 544.538,-8.42519 L 545.025,-8.20836 L 545.456,-7.895 L 545.813,-7.49884 L 546.08,-7.03717
 L 546.244,-6.53017 L 546.3,-6 L 546.3,-0 L 719.95,-0 L 719.95,-6 L 720.006,-6.53017
 L 720.17,-7.03717 L 720.437,-7.49884 L 720.794,-7.895 L 721.225,-8.20836 L 721.712,-8.42519 L 722.233,-8.53603
 L 722.767,-8.53603 L 723.288,-8.42519 L 723.775,-8.20836 L 724.206,-7.895 L 724.563,-7.49884 L 724.83,-7.03717
 L 724.994,-6.53017 L 725.05,-6 L 725.05,-0 L 898.7,-0 L 898.7,-6 L 898.756,-6.53017
 L 898.92,-7.03717 L 899.187,-7.49884 L 899.544,-7.895 L 899.975,-8.20836 L 900.462,-8.42519 L 900.983,-8.53603
 L 901.517,-8.53603 L 902.038,-8.42519 L 902.525,-8.20836 L 902.956,-7.895 L 903.313,-7.49884 L 903.58,-7.03717
 L 903.744,-6.53017 L 903.8,-6 L 903.8,-0 L 1077.45,-0 L 1077.45,-6 L 1077.51,-6.53017
 L 1077.67,-7.03717 L 1077.94,-7.49884 L 1078.29,-7.895 L 1078.72,-8.20836 L 1079.21,-8.42519 L 1079.73,-8.53603
 L 1080.27,-8.53603 L 1080.79,-8.42519 L 1081.27,-8.20836 L 1081.71,-7.895 L 1082.06,-7.49884 L 1082.33,-7.03717
 L 1082.49,-6.53017 L 1082.55,-6 L 1082.55,-0 L 1256.2,-0 L 1256.2,-6 L 1256.26,-6.53017
 L 1256.42,-7.03717 L 1256.69,-7.49884 L 1257.04,-7.895 L 1257.47,-8.20836 L 1257.96,-8.42519 L 1258.48,-8.53603
 L 1259.02,-8.53603 L 1259.54,-8.42519 L 1260.02,-8.20836 L 1260.46,-7.895 L 1260.81,-7.49884 L 1261.08,-7.03717
 L 1261.24,-6.53017 L 1261.3,-6 L 1261.3,-0 L 1434.95,-0 L 1434.95,-6 L 1435.01,-6.53017
 L 1435.17,-7.03717 L 1435.44,-7.49884 L 1435.79,-7.895 L 1436.22,-8.20836 L 1436.71,-8.42519 L 1437.23,-8.53603
 L 1437.77,-8.53603 L 1438.29,-8.42519 L 1438.77,-8.20836 L 1439.21,-7.895 L 1439.56,-7.49884 L 1439.83,-7.03717
 L 1439.99,-6.53017 L 1440.05,-6 L 1440.05,-0 L 1445,-0 z
M 185.736,-55.607 L 185.227,-55.6875 L 184.73,-55.8208 L 184.249,-56.0054 L 183.79,-56.2392 L 183.358,-56.5196
 L 182.958,-56.8437 L 182.594,-57.2079 L 182.27,-57.6081 L 181.989,-58.04 L 181.755,-58.4989 L 181.571,-58.9796
 L 181.438,-59.4771 L 181.357,-59.9857 L 181.33,-60.5 L 181.357,-61.0143 L 181.438,-61.5229 L 181.571,-62.0204
 L 181.755,-62.5011 L 181.989,-62.96 L 182.27,-63.3919 L 182.594,-63.7921 L 182.958,-64.1563 L 183.358,-64.4804
 L 183.7,-64.7024 L 183.7,-74 L 183.756,-74.5302 L 183.92,-75.0372 L 184.187,-75.4988 L 184.544,-75.895
 L 184.975,-76.2084 L 185.462,-76.4252 L 185.983,-76.536 L 186.517,-76.536 L 187.038,-76.4252 L 187.525,-76.2084
 L 187.956,-75.895 L 188.313,-75.4988 L 188.58,-75.0372 L 188.744,-74.5302 L 188.8,-74 L 188.8,-64.7024
 L 189.142,-64.4804 L 189.542,-64.1563 L 189.906,-63.7921 L 190.23,-63.3919 L 190.511,-62.96 L 190.745,-62.5011
 L 190.929,-62.0204 L 191.062,-61.5229 L 191.143,-61.0143 L 191.17,-60.5 L 191.143,-59.9857 L 191.062,-59.4771
 L 190.929,-58.9796 L 190.745,-58.4989 L 190.511,-58.04 L 190.23,-57.6081 L 189.906,-57.2079 L 189.542,-56.8437
 L 189.142,-56.5196 L 188.71,-56.2392 L 188.251,-56.0054 L 187.77,-55.8208 L 187.273,-55.6875 L 186.764,-55.607
 L 186.25,-55.58 z
M 1079.49,-55.607 L 1078.98,-55.6875 L 1078.48,-55.8208 L 1078,-56.0054 L 1077.54,-56.2392 L 1077.11,-56.5196
 L 1076.71,-56.8437 L 1076.34,-57.2079 L 1076.02,-57.6081 L 1075.74,-58.04 L 1075.51,-58.4989 L 1075.32,-58.9796
 L 1075.19,-59.4771 L 1075.11,-59.9857 L 1075.08,-60.5 L 1075.11,-61.0143 L 1075.19,-61.5229 L 1075.32,-62.0204
 L 1075.51,-62.5011 L 1075.74,-62.96 L 1076.02,-63.3919 L 1076.34,-63.7921 L 1076.71,-64.1563 L 1077.11,-64.4804
 L 1077.45,-64.7024 L 1077.45,-74 L 1077.51,-74.5302 L 1077.67,-75.0372 L 1077.94,-75.4988 L 1078.29,-75.895
 L 1078.73,-76.2084 L 1079.21,-76.4252 L 1079.73,-76.536 L 1080.27,-76.536 L 1080.79,-76.4252 L 1081.27,-76.2084
 L 1081.71,-75.895 L 1082.06,-75.4988 L 1082.33,-75.0372 L 1082.49,-74.5302 L 1082.55,-74 L 1082.55,-64.7024
 L 1082.89,-64.4804 L 1083.29,-64.1563 L 1083.66,-63.7921 L 1083.98,-63.3919 L 1084.26,-62.96 L 1084.49,-62.5011
 L 1084.68,-62.0204 L 1084.81,-61.5229 L 1084.89,-61.0143 L 1084.92,-60.5 L 1084.89,-59.9857 L 1084.81,-59.4771
 L 1084.68,-58.9796 L 1084.49,-58.4989 L 1084.26,-58.04 L 1083.98,-57.6081 L 1083.66,-57.2079 L 1083.29,-56.8437
 L 1082.89,-56.5196 L 1082.46,-56.2392 L 1082,-56.0054 L 1081.52,-55.8208 L 1081.02,-55.6875 L 1080.51,-55.607
 L 1080,-55.58 z
M 900.736,-55.607 L 900.227,-55.6875 L 899.73,-55.8208 L 899.249,-56.0054 L 898.79,-56.2392 L 898.358,-56.5196
 L 897.958,-56.8437 L 897.594,-57.2079 L 897.27,-57.6081 L 896.989,-58.04 L 896.755,-58.4989 L 896.571,-58.9796
 L 896.438,-59.4771 L 896.357,-59.9857 L 896.33,-60.5 L 896.357,-61.0143 L 896.438,-61.5229 L 896.571,-62.0204
 L 896.755,-62.5011 L 896.989,-62.96 L 897.27,-63.3919 L 897.594,-63.7921 L 897.958,-64.1563 L 898.358,-64.4804
 L 898.7,-64.7024 L 898.7,-74 L 898.756,-74.5302 L 898.92,-75.0372 L 899.187,-75.4988 L 899.544,-75.895
 L 899.975,-76.2084 L 900.462,-76.4252 L 900.983,-76.536 L 901.517,-76.536 L 902.038,-76.4252 L 902.525,-76.2084
 L 902.956,-75.895 L 903.313,-75.4988 L 903.58,-75.0372 L 903.744,-74.5302 L 903.8,-74 L 903.8,-64.7024
 L 904.142,-64.4804 L 904.542,-64.1563 L 904.906,-63.7921 L 905.23,-63.3919 L 905.511,-62.96 L 905.745,-62.5011
 L 905.929,-62.0204 L 906.062,-61.5229 L 906.143,-61.0143 L 906.17,-60.5 L 906.143,-59.9857 L 906.062,-59.4771
 L 905.929,-58.9796 L 905.745,-58.4989 L 905.511,-58.04 L 905.23,-57.6081 L 904.906,-57.2079 L 904.542,-56.8437
 L 904.142,-56.5196 L 903.71,-56.2392 L 903.251,-56.0054 L 902.77,-55.8208 L 902.273,-55.6875 L 901.764,-55.607
 L 901.25,-55.58 z
M 6.98573,-55.607 L 6.47708,-55.6875 L 5.97964,-55.8208 L 5.49887,-56.0054 L 5.04001,-56.2392 L 4.60811,-56.5196
 L 4.20789,-56.8437 L 3.84373,-57.2079 L 3.51964,-57.6081 L 3.23917,-58.04 L 3.00537,-58.4989 L 2.82082,-58.9796
 L 2.68752,-59.4771 L 2.60696,-59.9857 L 2.58,-60.5 L 2.60696,-61.0143 L 2.68752,-61.5229 L 2.82082,-62.0204
 L 3.00537,-62.5011 L 3.23917,-62.96 L 3.51964,-63.3919 L 3.84373,-63.7921 L 4.20789,-64.1563 L 4.60811,-64.4804
 L 4.95001,-64.7024 L 4.95001,-74 L 5.00574,-74.5302 L 5.17047,-75.0372 L 5.43701,-75.4988 L 5.79373,-75.895
 L 6.22501,-76.2084 L 6.71202,-76.4252 L 7.23346,-76.536 L 7.76654,-76.536 L 8.28798,-76.4252 L 8.77499,-76.2084
 L 9.20627,-75.895 L 9.56299,-75.4988 L 9.82953,-75.0372 L 9.99426,-74.5302 L 10.05,-74 L 10.05,-64.7024
 L 10.3919,-64.4804 L 10.7921,-64.1563 L 11.1563,-63.7921 L 11.4804,-63.3919 L 11.7608,-62.96 L 11.9946,-62.5011
 L 12.1792,-62.0204 L 12.3125,-61.5229 L 12.393,-61.0143 L 12.42,-60.5 L 12.393,-59.9857 L 12.3125,-59.4771
 L 12.1792,-58.9796 L 11.9946,-58.4989 L 11.7608,-58.04 L 11.4804,-57.6081 L 11.1563,-57.2079 L 10.7921,-56.8437
 L 10.3919,-56.5196 L 9.95999,-56.2392 L 9.50113,-56.0054 L 9.02036,-55.8208 L 8.52292,-55.6875 L 8.01427,-55.607
 L 7.5,-55.58 z
M 721.986,-55.607 L 721.477,-55.6875 L 720.98,-55.8208 L 720.499,-56.0054 L 720.04,-56.2392 L 719.608,-56.5196
 L 719.208,-56.8437 L 718.844,-57.2079 L 718.52,-57.6081 L 718.239,-58.04 L 718.005,-58.4989 L 717.821,-58.9796
 L 717.688,-59.4771 L 717.607,-59.9857 L 717.58,-60.5 L 717.607,-61.0143 L 717.688,-61.5229 L 717.821,-62.0204
 L 718.005,-62.5011 L 718.239,-62.96 L 718.52,-63.3919 L 718.844,-63.7921 L 719.208,-64.1563 L 719.608,-64.4804
 L 719.95,-64.7024 L 719.95,-74 L 720.006,-74.5302 L 720.17,-75.0372 L 720.437,-75.4988 L 720.794,-75.895
 L 721.225,-76.2084 L 721.712,-76.4252 L 722.233,-76.536 L 722.767,-76.536 L 723.288,-76.4252 L 723.775,-76.2084
 L 724.206,-75.895 L 724.563,-75.4988 L 724.83,-75.0372 L 724.994,-74.5302 L 725.05,-74 L 725.05,-64.7024
 L 725.392,-64.4804 L 725.792,-64.1563 L 726.156,-63.7921 L 726.48,-63.3919 L 726.761,-62.96 L 726.995,-62.5011
 L 727.179,-62.0204 L 727.312,-61.5229 L 727.393,-61.0143 L 727.42,-60.5 L 727.393,-59.9857 L 727.312,-59.4771
 L 727.179,-58.9796 L 726.995,-58.4989 L 726.761,-58.04 L 726.48,-57.6081 L 726.156,-57.2079 L 725.792,-56.8437
 L 725.392,-56.5196 L 724.96,-56.2392 L 724.501,-56.0054 L 724.02,-55.8208 L 723.523,-55.6875 L 723.014,-55.607
 L 722.5,-55.58 z
M 1258.24,-55.607 L 1257.73,-55.6875 L 1257.23,-55.8208 L 1256.75,-56.0054 L 1256.29,-56.2392 L 1255.86,-56.5196
 L 1255.46,-56.8437 L 1255.09,-57.2079 L 1254.77,-57.6081 L 1254.49,-58.04 L 1254.26,-58.4989 L 1254.07,-58.9796
 L 1253.94,-59.4771 L 1253.86,-59.9857 L 1253.83,-60.5 L 1253.86,-61.0143 L 1253.94,-61.5229 L 1254.07,-62.0204
 L 1254.26,-62.5011 L 1254.49,-62.96 L 1254.77,-63.3919 L 1255.09,-63.7921 L 1255.46,-64.1563 L 1255.86,-64.4804
 L 1256.2,-64.7024 L 1256.2,-74 L 1256.26,-74.5302 L 1256.42,-75.0372 L 1256.69,-75.4988 L 1257.04,-75.895
 L 1257.48,-76.2084 L 1257.96,-76.4252 L 1258.48,-76.536 L 1259.02,-76.536 L 1259.54,-76.4252 L 1260.02,-76.2084
 L 1260.46,-75.895 L 1260.81,-75.4988 L 1261.08,-75.0372 L 1261.24,-74.5302 L 1261.3,-74 L 1261.3,-64.7024
 L 1261.64,-64.4804 L 1262.04,-64.1563 L 1262.41,-63.7921 L 1262.73,-63.3919 L 1263.01,-62.96 L 1263.24,-62.5011
 L 1263.43,-62.0204 L 1263.56,-61.5229 L 1263.64,-61.0143 L 1263.67,-60.5 L 1263.64,-59.9857 L 1263.56,-59.4771
 L 1263.43,-58.9796 L 1263.24,-58.4989 L 1263.01,-58.04 L 1262.73,-57.6081 L 1262.41,-57.2079 L 1262.04,-56.8437
 L 1261.64,-56.5196 L 1261.21,-56.2392 L 1260.75,-56.0054 L 1260.27,-55.8208 L 1259.77,-55.6875 L 1259.26,-55.607
 L 1258.75,-55.58 z
M 543.236,-55.607 L 542.727,-55.6875 L 542.23,-55.8208 L 541.749,-56.0054 L 541.29,-56.2392 L 540.858,-56.5196
 L 540.458,-56.8437 L 540.094,-57.2079 L 539.77,-57.6081 L 539.489,-58.04 L 539.255,-58.4989 L 539.071,-58.9796
 L 538.938,-59.4771 L 538.857,-59.9857 L 538.83,-60.5 L 538.857,-61.0143 L 538.938,-61.5229 L 539.071,-62.0204
 L 539.255,-62.5011 L 539.489,-62.96 L 539.77,-63.3919 L 540.094,-63.7921 L 540.458,-64.1563 L 540.858,-64.4804
 L 541.2,-64.7024 L 541.2,-74 L 541.256,-74.5302 L 541.42,-75.0372 L 541.687,-75.4988 L 542.044,-75.895
 L 542.475,-76.2084 L 542.962,-76.4252 L 543.483,-76.536 L 544.017,-76.536 L 544.538,-76.4252 L 545.025,-76.2084
 L 545.456,-75.895 L 545.813,-75.4988 L 546.08,-75.0372 L 546.244,-74.5302 L 546.3,-74 L 546.3,-64.7024
 L 546.642,-64.4804 L 547.042,-64.1563 L 547.406,-63.7921 L 547.73,-63.3919 L 548.011,-62.96 L 548.245,-62.5011
 L 548.429,-62.0204 L 548.562,-61.5229 L 548.643,-61.0143 L 548.67,-60.5 L 548.643,-59.9857 L 548.562,-59.4771
 L 548.429,-58.9796 L 548.245,-58.4989 L 548.011,-58.04 L 547.73,-57.6081 L 547.406,-57.2079 L 547.042,-56.8437
 L 546.642,-56.5196 L 546.21,-56.2392 L 545.751,-56.0054 L 545.27,-55.8208 L 544.773,-55.6875 L 544.264,-55.607
 L 543.75,-55.58 z
M 364.486,-55.607 L 363.977,-55.6875 L 363.48,-55.8208 L 362.999,-56.0054 L 362.54,-56.2392 L 362.108,-56.5196
 L 361.708,-56.8437 L 361.344,-57.2079 L 361.02,-57.6081 L 360.739,-58.04 L 360.505,-58.4989 L 360.321,-58.9796
 L 360.188,-59.4771 L 360.107,-59.9857 L 360.08,-60.5 L 360.107,-61.0143 L 360.188,-61.5229 L 360.321,-62.0204
 L 360.505,-62.5011 L 360.739,-62.96 L 361.02,-63.3919 L 361.344,-63.7921 L 361.708,-64.1563 L 362.108,-64.4804
 L 362.45,-64.7024 L 362.45,-74 L 362.506,-74.5302 L 362.67,-75.0372 L 362.937,-75.4988 L 363.294,-75.895
 L 363.725,-76.2084 L 364.212,-76.4252 L 364.733,-76.536 L 365.267,-76.536 L 365.788,-76.4252 L 366.275,-76.2084
 L 366.706,-75.895 L 367.063,-75.4988 L 367.33,-75.0372 L 367.494,-74.5302 L 367.55,-74 L 367.55,-64.7024
 L 367.892,-64.4804 L 368.292,-64.1563 L 368.656,-63.7921 L 368.98,-63.3919 L 369.261,-62.96 L 369.495,-62.5011
 L 369.679,-62.0204 L 369.812,-61.5229 L 369.893,-61.0143 L 369.92,-60.5 L 369.893,-59.9857 L 369.812,-59.4771
 L 369.679,-58.9796 L 369.495,-58.4989 L 369.261,-58.04 L 368.98,-57.6081 L 368.656,-57.2079 L 368.292,-56.8437
 L 367.892,-56.5196 L 367.46,-56.2392 L 367.001,-56.0054 L 366.52,-55.8208 L 366.023,-55.6875 L 365.514,-55.607
 L 365,-55.58 z
M 1436.99,-55.607 L 1436.48,-55.6875 L 1435.98,-55.8208 L 1435.5,-56.0054 L 1435.04,-56.2392 L 1434.61,-56.5196
 L 1434.21,-56.8437 L 1433.84,-57.2079 L 1433.52,-57.6081 L 1433.24,-58.04 L 1433.01,-58.4989 L 1432.82,-58.9796
 L 1432.69,-59.4771 L 1432.61,-59.9857 L 1432.58,-60.5 L 1432.61,-61.0143 L 1432.69,-61.5229 L 1432.82,-62.0204
 L 1433.01,-62.5011 L 1433.24,-62.96 L 1433.52,-63.3919 L 1433.84,-63.7921 L 1434.21,-64.1563 L 1434.61,-64.4804
 L 1434.95,-64.7024 L 1434.95,-74 L 1435.01,-74.5302 L 1435.17,-75.0372 L 1435.44,-75.4988 L 1435.79,-75.895
 L 1436.23,-76.2084 L 1436.71,-76.4252 L 1437.23,-76.536 L 1437.77,-76.536 L 1438.29,-76.4252 L 1438.77,-76.2084
 L 1439.21,-75.895 L 1439.56,-75.4988 L 1439.83,-75.0372 L 1439.99,-74.5302 L 1440.05,-74 L 1440.05,-64.7024
 L 1440.39,-64.4804 L 1440.79,-64.1563 L 1441.16,-63.7921 L 1441.48,-63.3919 L 1441.76,-62.96 L 1441.99,-62.5011
 L 1442.18,-62.0204 L 1442.31,-61.5229 L 1442.39,-61.0143 L 1442.42,-60.5 L 1442.39,-59.9857 L 1442.31,-59.4771
 L 1442.18,-58.9796 L 1441.99,-58.4989 L 1441.76,-58.04 L 1441.48,-57.6081 L 1441.16,-57.2079 L 1440.79,-56.8437
 L 1440.39,-56.5196 L 1439.96,-56.2392 L 1439.5,-56.0054 L 1439.02,-55.8208 L 1438.52,-55.6875 L 1438.01,-55.607
 L 1437.5,-55.58 z
M 351.386,-20.8848 L 350.578,-21.0988 L 263.404,-54.2614 L 262.475,-54.7639 L 261.854,-55.3235 L 261.362,-56
 L 261.022,-56.7639 L 260.848,-57.5819 L 260.848,-58.4181 L 261.022,-59.2361 L 261.362,-60 L 261.854,-60.6765
 L 262.475,-61.2361 L 263.199,-61.6542 L 263.995,-61.9126 L 264.826,-62 L 352,-62 L 353.236,-61.8042
 L 354,-61.4641 L 354.677,-60.9726 L 355.236,-60.3511 L 355.654,-59.627 L 355.913,-58.8316 L 356,-58
 L 356,-24.8374 L 355.867,-23.8137 L 355.569,-23.0322 L 355.116,-22.3295 L 354.527,-21.7364 L 353.827,-21.2789
 L 353.047,-20.9768 L 352.221,-20.8435 z
M 530.136,-20.8848 L 529.328,-21.0988 L 442.154,-54.2614 L 441.225,-54.7639 L 440.604,-55.3235 L 440.112,-56
 L 439.772,-56.7639 L 439.598,-57.5819 L 439.598,-58.4181 L 439.772,-59.2361 L 440.112,-60 L 440.604,-60.6765
 L 441.225,-61.2361 L 441.949,-61.6542 L 442.745,-61.9126 L 443.576,-62 L 530.75,-62 L 531.986,-61.8042
 L 532.75,-61.4641 L 533.427,-60.9726 L 533.986,-60.3511 L 534.404,-59.627 L 534.663,-58.8316 L 534.75,-58
 L 534.75,-24.8374 L 534.617,-23.8137 L 534.319,-23.0322 L 533.866,-22.3295 L 533.277,-21.7364 L 532.577,-21.2789
 L 531.797,-20.9768 L 530.971,-20.8435 z
M 1270.7,-20.9768 L 1269.92,-21.2789 L 1269.22,-21.7364 L 1268.63,-22.3295 L 1268.18,-23.0322 L 1267.88,-23.8137
 L 1267.75,-24.8374 L 1267.75,-58 L 1267.84,-58.8316 L 1268.1,-59.627 L 1268.51,-60.3511 L 1269.07,-60.9726
 L 1269.75,-61.4641 L 1270.51,-61.8042 L 1271.75,-62 L 1358.92,-62 L 1359.76,-61.9126 L 1360.55,-61.6542
 L 1361.27,-61.2361 L 1361.9,-60.6765 L 1362.39,-60 L 1362.73,-59.2361 L 1362.9,-58.4181 L 1362.9,-57.5819
 L 1362.73,-56.7639 L 1362.39,-56 L 1361.9,-55.3235 L 1361.27,-54.7639 L 1360.35,-54.2614 L 1273.17,-21.0988
 L 1272.36,-20.8848 L 1271.53,-20.8435 z
M 708.886,-20.8848 L 708.078,-21.0988 L 620.904,-54.2614 L 619.975,-54.7639 L 619.354,-55.3235 L 618.862,-56
 L 618.522,-56.7639 L 618.348,-57.5819 L 618.348,-58.4181 L 618.522,-59.2361 L 618.862,-60 L 619.354,-60.6765
 L 619.975,-61.2361 L 620.699,-61.6542 L 621.495,-61.9126 L 622.326,-62 L 709.5,-62 L 710.736,-61.8042
 L 711.5,-61.4641 L 712.177,-60.9726 L 712.736,-60.3511 L 713.154,-59.627 L 713.413,-58.8316 L 713.5,-58
 L 713.5,-24.8374 L 713.367,-23.8137 L 713.069,-23.0322 L 712.616,-22.3295 L 712.027,-21.7364 L 711.327,-21.2789
 L 710.547,-20.9768 L 709.721,-20.8435 z
M 172.636,-20.8848 L 171.828,-21.0988 L 84.654,-54.2614 L 83.7251,-54.7639 L 83.1037,-55.3235 L 82.6122,-56
 L 82.272,-56.7639 L 82.0982,-57.5819 L 82.0982,-58.4181 L 82.272,-59.2361 L 82.6122,-60 L 83.1037,-60.6765
 L 83.7251,-61.2361 L 84.4493,-61.6542 L 85.2446,-61.9126 L 86.0763,-62 L 173.25,-62 L 174.486,-61.8042
 L 175.25,-61.4641 L 175.927,-60.9726 L 176.486,-60.3511 L 176.904,-59.627 L 177.163,-58.8316 L 177.25,-58
 L 177.25,-24.8374 L 177.117,-23.8137 L 176.819,-23.0322 L 176.366,-22.3295 L 175.777,-21.7364 L 175.077,-21.2789
 L 174.297,-20.9768 L 173.471,-20.8435 z
M 734.453,-20.9768 L 733.673,-21.2789 L 732.973,-21.7364 L 732.384,-22.3295 L 731.931,-23.0322 L 731.633,-23.8137
 L 731.5,-24.8374 L 731.5,-58 L 731.587,-58.8316 L 731.846,-59.627 L 732.264,-60.3511 L 732.823,-60.9726
 L 733.5,-61.4641 L 734.264,-61.8042 L 735.5,-62 L 822.674,-62 L 823.505,-61.9126 L 824.301,-61.6542
 L 825.025,-61.2361 L 825.646,-60.6765 L 826.138,-60 L 826.478,-59.2361 L 826.652,-58.4181 L 826.652,-57.5819
 L 826.478,-56.7639 L 826.138,-56 L 825.646,-55.3235 L 825.025,-54.7639 L 824.096,-54.2614 L 736.922,-21.0988
 L 736.114,-20.8848 L 735.279,-20.8435 z
M 913.203,-20.9768 L 912.423,-21.2789 L 911.723,-21.7364 L 911.134,-22.3295 L 910.681,-23.0322 L 910.383,-23.8137
 L 910.25,-24.8374 L 910.25,-58 L 910.337,-58.8316 L 910.596,-59.627 L 911.014,-60.3511 L 911.573,-60.9726
 L 912.25,-61.4641 L 913.014,-61.8042 L 914.25,-62 L 1001.42,-62 L 1002.26,-61.9126 L 1003.05,-61.6542
 L 1003.77,-61.2361 L 1004.4,-60.6765 L 1004.89,-60 L 1005.23,-59.2361 L 1005.4,-58.4181 L 1005.4,-57.5819
 L 1005.23,-56.7639 L 1004.89,-56 L 1004.4,-55.3235 L 1003.77,-54.7639 L 1002.85,-54.2614 L 915.672,-21.0988
 L 914.864,-20.8848 L 914.029,-20.8435 z
M 1091.95,-20.9768 L 1091.17,-21.2789 L 1090.47,-21.7364 L 1089.88,-22.3295 L 1089.43,-23.0322 L 1089.13,-23.8137
 L 1089,-24.8374 L 1089,-58 L 1089.09,-58.8316 L 1089.35,-59.627 L 1089.76,-60.3511 L 1090.32,-60.9726
 L 1091,-61.4641 L 1091.76,-61.8042 L 1093,-62 L 1180.17,-62 L 1181.01,-61.9126 L 1181.8,-61.6542
 L 1182.52,-61.2361 L 1183.15,-60.6765 L 1183.64,-60 L 1183.98,-59.2361 L 1184.15,-58.4181 L 1184.15,-57.5819
 L 1183.98,-56.7639 L 1183.64,-56 L 1183.15,-55.3235 L 1182.52,-54.7639 L 1181.6,-54.2614 L 1094.42,-21.0988
 L 1093.61,-20.8848 L 1092.78,-20.8435 z
M 199.25,-18 L 198.014,-18.1958 L 197.25,-18.5359 L 196.573,-19.0274 L 196.014,-19.6489 L 195.596,-20.373
 L 195.337,-21.1684 L 195.25,-22 L 195.25,-55.1626 L 195.383,-56.1862 L 195.681,-56.9678 L 196.134,-57.6705
 L 196.723,-58.2636 L 197.423,-58.7211 L 198.203,-59.0232 L 199.029,-59.1564 L 199.864,-59.1152 L 200.672,-58.9012
 L 287.846,-25.7386 L 288.775,-25.2361 L 289.396,-24.6765 L 289.888,-24 L 290.228,-23.2361 L 290.402,-22.4181
 L 290.402,-21.5819 L 290.228,-20.7639 L 289.888,-20 L 289.396,-19.3235 L 288.775,-18.7639 L 288.051,-18.3458
 L 287.255,-18.0874 L 286.424,-18 z
M 378,-18 L 376.764,-18.1958 L 376,-18.5359 L 375.323,-19.0274 L 374.764,-19.6489 L 374.346,-20.373
 L 374.087,-21.1684 L 374,-22 L 374,-55.1626 L 374.133,-56.1862 L 374.431,-56.9678 L 374.884,-57.6705
 L 375.473,-58.2636 L 376.173,-58.7211 L 376.953,-59.0232 L 377.779,-59.1564 L 378.614,-59.1152 L 379.422,-58.9012
 L 466.596,-25.7386 L 467.525,-25.2361 L 468.146,-24.6765 L 468.638,-24 L 468.978,-23.2361 L 469.152,-22.4181
 L 469.152,-21.5819 L 468.978,-20.7639 L 468.638,-20 L 468.146,-19.3235 L 467.525,-18.7639 L 466.801,-18.3458
 L 466.005,-18.0874 L 465.174,-18 z
M 556.75,-18 L 555.514,-18.1958 L 554.75,-18.5359 L 554.073,-19.0274 L 553.514,-19.6489 L 553.096,-20.373
 L 552.837,-21.1684 L 552.75,-22 L 552.75,-55.1626 L 552.883,-56.1862 L 553.181,-56.9678 L 553.634,-57.6705
 L 554.223,-58.2636 L 554.923,-58.7211 L 555.703,-59.0232 L 556.529,-59.1564 L 557.364,-59.1152 L 558.172,-58.9012
 L 645.346,-25.7386 L 646.275,-25.2361 L 646.896,-24.6765 L 647.388,-24 L 647.728,-23.2361 L 647.902,-22.4181
 L 647.902,-21.5819 L 647.728,-20.7639 L 647.388,-20 L 646.896,-19.3235 L 646.275,-18.7639 L 645.551,-18.3458
 L 644.755,-18.0874 L 643.924,-18 z
M 801.076,-18 L 800.245,-18.0874 L 799.449,-18.3458 L 798.725,-18.7639 L 798.104,-19.3235 L 797.612,-20
 L 797.272,-20.7639 L 797.098,-21.5819 L 797.098,-22.4181 L 797.272,-23.2361 L 797.612,-24 L 798.104,-24.6765
 L 798.725,-25.2361 L 799.654,-25.7386 L 886.828,-58.9012 L 887.636,-59.1152 L 888.471,-59.1564 L 889.297,-59.0232
 L 890.077,-58.7211 L 890.777,-58.2636 L 891.366,-57.6705 L 891.819,-56.9678 L 892.117,-56.1862 L 892.25,-55.1626
 L 892.25,-22 L 892.163,-21.1684 L 891.904,-20.373 L 891.486,-19.6489 L 890.927,-19.0274 L 890.25,-18.5359
 L 889.486,-18.1958 L 888.25,-18 z
M 979.826,-18 L 978.995,-18.0874 L 978.199,-18.3458 L 977.475,-18.7639 L 976.854,-19.3235 L 976.362,-20
 L 976.022,-20.7639 L 975.848,-21.5819 L 975.848,-22.4181 L 976.022,-23.2361 L 976.362,-24 L 976.854,-24.6765
 L 977.475,-25.2361 L 978.404,-25.7386 L 1065.58,-58.9012 L 1066.39,-59.1152 L 1067.22,-59.1564 L 1068.05,-59.0232
 L 1068.83,-58.7211 L 1069.53,-58.2636 L 1070.12,-57.6705 L 1070.57,-56.9678 L 1070.87,-56.1862 L 1071,-55.1626
 L 1071,-22 L 1070.91,-21.1684 L 1070.65,-20.373 L 1070.24,-19.6489 L 1069.68,-19.0274 L 1069,-18.5359
 L 1068.24,-18.1958 L 1067,-18 z
M 1158.58,-18 L 1157.74,-18.0874 L 1156.95,-18.3458 L 1156.23,-18.7639 L 1155.6,-19.3235 L 1155.11,-20
 L 1154.77,-20.7639 L 1154.6,-21.5819 L 1154.6,-22.4181 L 1154.77,-23.2361 L 1155.11,-24 L 1155.6,-24.6765
 L 1156.23,-25.2361 L 1157.15,-25.7386 L 1244.33,-58.9012 L 1245.14,-59.1152 L 1245.97,-59.1564 L 1246.8,-59.0232
 L 1247.58,-58.7211 L 1248.28,-58.2636 L 1248.87,-57.6705 L 1249.32,-56.9678 L 1249.62,-56.1862 L 1249.75,-55.1626
 L 1249.75,-22 L 1249.66,-21.1684 L 1249.4,-20.373 L 1248.99,-19.6489 L 1248.43,-19.0274 L 1247.75,-18.5359
 L 1246.99,-18.1958 L 1245.75,-18 z
M 1337.33,-18 L 1336.49,-18.0874 L 1335.7,-18.3458 L 1334.98,-18.7639 L 1334.35,-19.3235 L 1333.86,-20
 L 1333.52,-20.7639 L 1333.35,-21.5819 L 1333.35,-22.4181 L 1333.52,-23.2361 L 1333.86,-24 L 1334.35,-24.6765
 L 1334.98,-25.2361 L 1335.9,-25.7386 L 1421.58,-58.3306 L 1422.39,-58.5446 L 1423.22,-58.5858 L 1424.05,-58.4525
 L 1424.83,-58.1505 L 1425.53,-57.6929 L 1426.12,-57.0999 L 1426.57,-56.3972 L 1426.87,-55.6156 L 1427,-54.5919
 L 1427,-22 L 1426.91,-21.1684 L 1426.65,-20.373 L 1426.24,-19.6489 L 1425.68,-19.0274 L 1425,-18.5359
 L 1424.24,-18.1958 L 1423,-18 z
M 22,-18 L 20.7639,-18.1958 L 20,-18.5359 L 19.3235,-19.0274 L 18.7639,-19.6489 L 18.3458,-20.373
 L 18.0874,-21.1684 L 18,-22 L 18,-54.5919 L 18.1332,-55.6156 L 18.4305,-56.3972 L 18.8839,-57.0999
 L 19.4734,-57.6929 L 20.1733,-58.1505 L 20.9531,-58.4525 L 21.7787,-58.5858 L 22.6139,-58.5446 L 23.4222,-58.3306
 L 109.096,-25.7386 L 110.025,-25.2361 L 110.646,-24.6765 L 111.138,-24 L 111.478,-23.2361 L 111.652,-22.4181
 L 111.652,-21.5819 L 111.478,-20.7639 L 111.138,-20 L 110.646,-19.3235 L 110.025,-18.7639 L 109.301,-18.3458
 L 108.505,-18.0874 L 107.674,-18 z
" stroke="black" fill="lightgray" stroke-width="0.5"/>
</svg>
