<?xml version="1.0" standalone="no"?>
<!DOCTYPE svg PUBLIC "-//W3C//DTD SVG 1.1//EN" "http://www.w3.org/Graphics/SVG/1.1/DTD/svg11.dtd">
<svg width="1355mm" height="80mm" viewBox="0 -80 1355 80" xmlns="http://www.w3.org/2000/svg" version="1.1">
<title>OpenSCAD Model</title>
<path d="
M 1355,-80 L 0,-80 L 0,-0 L 4.95,-0 L 4.95,-6 L 5.00572,-6.53017
 L 5.17046,-7.03717 L 5.437,-7.49884 L 5.79372,-7.895 L 6.22499,-8.20836 L 6.71201,-8.42519 L 7.23344,-8.53603
 L 7.76654,-8.53603 L 8.28798,-8.42519 L 8.77499,-8.20836 L 9.20627,-7.895 L 9.56299,-7.49884 L 9.82953,-7.03717
 L 9.99426,-6.53017 L 10.05,-6 L 10.05,-0 L 196.379,-0 L 196.379,-6 L 196.434,-6.53017
 L 196.599,-7.03717 L 196.866,-7.49884 L 197.222,-7.895 L 197.654,-8.20836 L 198.141,-8.42519 L 198.662,-8.53603
 L 199.195,-8.53603 L 199.717,-8.42519 L 200.204,-8.20836 L 200.635,-7.895 L 200.992,-7.49884 L 201.258,-7.03717
 L 201.423,-6.53017 L 201.479,-6 L 201.479,-0 L 387.807,-0 L 387.807,-6 L 387.863,-6.53017
 L 388.028,-7.03717 L 388.294,-7.49884 L 388.651,-7.895 L 389.082,-8.20836 L 389.569,-8.42519 L 390.091,-8.53603
 L 390.624,-8.53603 L 391.145,-8.42519 L 391.632,-8.20836 L 392.063,-7.895 L 392.42,-7.49884 L 392.687,-7.03717
 L 392.851,-6.53017 L 392.907,-6 L 392.907,-0 L 579.236,-0 L 579.236,-6 L 579.291,-6.53017
 L 579.456,-7.03717 L 579.723,-7.49884 L 580.079,-7.895 L 580.511,-8.20836 L 580.998,-8.42519 L 581.519,-8.53603
 L 582.052,-8.53603 L 582.574,-8.42519 L 583.061,-8.20836 L 583.492,-7.895 L 583.849,-7.49884 L 584.115,-7.03717
 L 584.28,-6.53017 L 584.336,-6 L 584.336,-0 L 770.664,-0 L 770.664,-6 L 770.72,-6.53017
 L 770.885,-7.03717 L 771.151,-7.49884 L 771.508,-7.895 L 771.939,-8.20836 L 772.426,-8.42519 L 772.948,-8.53603
 L 773.481,-8.53603 L 774.002,-8.42519 L 774.489,-8.20836 L 774.921,-7.895 L 775.277,-7.49884 L 775.544,-7.03717
 L 775.709,-6.53017 L 775.764,-6 L 775.764,-0 L 962.093,-0 L 962.093,-6 L 962.149,-6.53017
 L 962.313,-7.03717 L 962.58,-7.49884 L 962.937,-7.895 L 963.368,-8.20836 L 963.855,-8.42519 L 964.376,-8.53603
 L 964.909,-8.53603 L 965.431,-8.42519 L 965.918,-8.20836 L 966.349,-7.895 L 966.706,-7.49884 L 966.972,-7.03717
 L 967.137,-6.53017 L 967.193,-6 L 967.193,-0 L 1153.52,-0 L 1153.52,-6 L 1153.58,-6.53017
 L 1153.74,-7.03717 L 1154.01,-7.49884 L 1154.37,-7.895 L 1154.8,-8.20836 L 1155.28,-8.42519 L 1155.8,-8.53603
 L 1156.34,-8.53603 L 1156.86,-8.42519 L 1157.35,-8.20836 L 1157.78,-7.895 L 1158.13,-7.49884 L 1158.4,-7.03717
 L 1158.57,-6.53017 L 1158.62,-6 L 1158.62,-0 L 1344.95,-0 L 1344.95,-6 L 1345.01,-6.53017
 L 1345.17,-7.03717 L 1345.44,-7.49884 L 1345.79,-7.895 L 1346.22,-8.20836 L 1346.71,-8.42519 L 1347.23,-8.53603
 L 1347.77,-8.53603 L 1348.29,-8.42519 L 1348.77,-8.20836 L 1349.21,-7.895 L 1349.56,-7.49884 L 1349.83,-7.03717
 L 1349.99,-6.53017 L 1350.05,-6 L 1350.05,-0 L 1355,-0 z
M 6.98573,-55.607 L 6.47708,-55.6875 L 5.97964,-55.8208 L 5.49887,-56.0054 L 5.04001,-56.2392 L 4.60811,-56.5196
 L 4.20789,-56.8437 L 3.84373,-57.2079 L 3.51964,-57.6081 L 3.23917,-58.04 L 3.00537,-58.4989 L 2.82082,-58.9796
 L 2.68752,-59.4771 L 2.60696,-59.9857 L 2.58,-60.5 L 2.60696,-61.0143 L 2.68752,-61.5229 L 2.82082,-62.0204
 L 3.00537,-62.5011 L 3.23917,-62.96 L 3.51964,-63.3919 L 3.84373,-63.7921 L 4.20789,-64.1563 L 4.60811,-64.4804
 L 4.95001,-64.7024 L 4.95001,-74 L 5.00574,-74.5302 L 5.17047,-75.0372 L 5.43701,-75.4988 L 5.79373,-75.895
 L 6.22501,-76.2084 L 6.71202,-76.4252 L 7.23346,-76.536 L 7.76654,-76.536 L 8.28798,-76.4252 L 8.77499,-76.2084
 L 9.20627,-75.895 L 9.56299,-75.4988 L 9.82953,-75.0372 L 9.99426,-74.5302 L 10.05,-74 L 10.05,-64.7024
 L 10.3919,-64.4804 L 10.7921,-64.1563 L 11.1563,-63.7921 L 11.4804,-63.3919 L 11.7608,-62.96 L 11.9946,-62.5011
 L 12.1792,-62.0204 L 12.3125,-61.5229 L 12.393,-61.0143 L 12.42,-60.5 L 12.393,-59.9857 L 12.3125,-59.4771
 L 12.1792,-58.9796 L 11.9946,-58.4989 L 11.7608,-58.04 L 11.4804,-57.6081 L 11.1563,-57.2079 L 10.7921,-56.8437
 L 10.3919,-56.5196 L 9.95999,-56.2392 L 9.50113,-56.0054 L 9.02036,-55.8208 L 8.52292,-55.6875 L 8.01427,-55.607
 L 7.5,-55.58 z
M 198.414,-55.607 L 197.906,-55.6875 L 197.408,-55.8208 L 196.927,-56.0054 L 196.469,-56.2392 L 196.037,-56.5196
 L 195.636,-56.8437 L 195.272,-57.2079 L 194.948,-57.6081 L 194.668,-58.04 L 194.434,-58.4989 L 194.249,-58.9796
 L 194.116,-59.4771 L 194.036,-59.9857 L 194.009,-60.5 L 194.036,-61.0143 L 194.116,-61.5229 L 194.249,-62.0204
 L 194.434,-62.5011 L 194.668,-62.96 L 194.948,-63.3919 L 195.272,-63.7921 L 195.636,-64.1563 L 196.037,-64.4804
 L 196.379,-64.7024 L 196.379,-74 L 196.434,-74.5302 L 196.599,-75.0372 L 196.866,-75.4988 L 197.222,-75.895
 L 197.654,-76.2084 L 198.141,-76.4252 L 198.662,-76.536 L 199.195,-76.536 L 199.717,-76.4252 L 200.204,-76.2084
 L 200.635,-75.895 L 200.992,-75.4988 L 201.258,-75.0372 L 201.423,-74.5302 L 201.479,-74 L 201.479,-64.7024
 L 201.82,-64.4804 L 202.221,-64.1563 L 202.585,-63.7921 L 202.909,-63.3919 L 203.189,-62.96 L 203.423,-62.5011
 L 203.608,-62.0204 L 203.741,-61.5229 L 203.822,-61.0143 L 203.849,-60.5 L 203.822,-59.9857 L 203.741,-59.4771
 L 203.608,-58.9796 L 203.423,-58.4989 L 203.189,-58.04 L 202.909,-57.6081 L 202.585,-57.2079 L 202.221,-56.8437
 L 201.82,-56.5196 L 201.389,-56.2392 L 200.93,-56.0054 L 200.449,-55.8208 L 199.951,-55.6875 L 199.443,-55.607
 L 198.929,-55.58 z
M 389.843,-55.607 L 389.334,-55.6875 L 388.837,-55.8208 L 388.356,-56.0054 L 387.897,-56.2392 L 387.465,-56.5196
 L 387.065,-56.8437 L 386.701,-57.2079 L 386.377,-57.6081 L 386.096,-58.04 L 385.863,-58.4989 L 385.678,-58.9796
 L 385.545,-59.4771 L 385.464,-59.9857 L 385.437,-60.5 L 385.464,-61.0143 L 385.545,-61.5229 L 385.678,-62.0204
 L 385.863,-62.5011 L 386.096,-62.96 L 386.377,-63.3919 L 386.701,-63.7921 L 387.065,-64.1563 L 387.465,-64.4804
 L 387.807,-64.7024 L 387.807,-74 L 387.863,-74.5302 L 388.028,-75.0372 L 388.294,-75.4988 L 388.651,-75.895
 L 389.082,-76.2084 L 389.569,-76.4252 L 390.091,-76.536 L 390.624,-76.536 L 391.145,-76.4252 L 391.632,-76.2084
 L 392.063,-75.895 L 392.42,-75.4988 L 392.687,-75.0372 L 392.851,-74.5302 L 392.907,-74 L 392.907,-64.7024
 L 393.249,-64.4804 L 393.649,-64.1563 L 394.013,-63.7921 L 394.337,-63.3919 L 394.618,-62.96 L 394.852,-62.5011
 L 395.036,-62.0204 L 395.17,-61.5229 L 395.25,-61.0143 L 395.277,-60.5 L 395.25,-59.9857 L 395.17,-59.4771
 L 395.036,-58.9796 L 394.852,-58.4989 L 394.618,-58.04 L 394.337,-57.6081 L 394.013,-57.2079 L 393.649,-56.8437
 L 393.249,-56.5196 L 392.817,-56.2392 L 392.358,-56.0054 L 391.877,-55.8208 L 391.38,-55.6875 L 390.871,-55.607
 L 390.357,-55.58 z
M 581.271,-55.607 L 580.763,-55.6875 L 580.265,-55.8208 L 579.785,-56.0054 L 579.326,-56.2392 L 578.894,-56.5196
 L 578.494,-56.8437 L 578.129,-57.2079 L 577.805,-57.6081 L 577.525,-58.04 L 577.291,-58.4989 L 577.107,-58.9796
 L 576.973,-59.4771 L 576.893,-59.9857 L 576.866,-60.5 L 576.893,-61.0143 L 576.973,-61.5229 L 577.107,-62.0204
 L 577.291,-62.5011 L 577.525,-62.96 L 577.805,-63.3919 L 578.129,-63.7921 L 578.494,-64.1563 L 578.894,-64.4804
 L 579.236,-64.7024 L 579.236,-74 L 579.291,-74.5302 L 579.456,-75.0372 L 579.723,-75.4988 L 580.079,-75.895
 L 580.511,-76.2084 L 580.998,-76.4252 L 581.519,-76.536 L 582.052,-76.536 L 582.574,-76.4252 L 583.061,-76.2084
 L 583.492,-75.895 L 583.849,-75.4988 L 584.115,-75.0372 L 584.28,-74.5302 L 584.336,-74 L 584.336,-64.7024
 L 584.678,-64.4804 L 585.078,-64.1563 L 585.442,-63.7921 L 585.766,-63.3919 L 586.047,-62.96 L 586.28,-62.5011
 L 586.465,-62.0204 L 586.598,-61.5229 L 586.679,-61.0143 L 586.706,-60.5 L 586.679,-59.9857 L 586.598,-59.4771
 L 586.465,-58.9796 L 586.28,-58.4989 L 586.047,-58.04 L 585.766,-57.6081 L 585.442,-57.2079 L 585.078,-56.8437
 L 584.678,-56.5196 L 584.246,-56.2392 L 583.787,-56.0054 L 583.306,-55.8208 L 582.809,-55.6875 L 582.3,-55.607
 L 581.786,-55.58 z
M 772.7,-55.607 L 772.191,-55.6875 L 771.694,-55.8208 L 771.213,-56.0054 L 770.754,-56.2392 L 770.322,-56.5196
 L 769.922,-56.8437 L 769.558,-57.2079 L 769.234,-57.6081 L 768.953,-58.04 L 768.72,-58.4989 L 768.535,-58.9796
 L 768.402,-59.4771 L 768.321,-59.9857 L 768.294,-60.5 L 768.321,-61.0143 L 768.402,-61.5229 L 768.535,-62.0204
 L 768.72,-62.5011 L 768.953,-62.96 L 769.234,-63.3919 L 769.558,-63.7921 L 769.922,-64.1563 L 770.322,-64.4804
 L 770.664,-64.7024 L 770.664,-74 L 770.72,-74.5302 L 770.885,-75.0372 L 771.151,-75.4988 L 771.508,-75.895
 L 771.939,-76.2084 L 772.426,-76.4252 L 772.948,-76.536 L 773.481,-76.536 L 774.002,-76.4252 L 774.489,-76.2084
 L 774.921,-75.895 L 775.277,-75.4988 L 775.544,-75.0372 L 775.709,-74.5302 L 775.764,-74 L 775.764,-64.7024
 L 776.106,-64.4804 L 776.506,-64.1563 L 776.871,-63.7921 L 777.195,-63.3919 L 777.475,-62.96 L 777.709,-62.5011
 L 777.893,-62.0204 L 778.027,-61.5229 L 778.107,-61.0143 L 778.134,-60.5 L 778.107,-59.9857 L 778.027,-59.4771
 L 777.893,-58.9796 L 777.709,-58.4989 L 777.475,-58.04 L 777.195,-57.6081 L 776.871,-57.2079 L 776.506,-56.8437
 L 776.106,-56.5196 L 775.674,-56.2392 L 775.215,-56.0054 L 774.735,-55.8208 L 774.237,-55.6875 L 773.729,-55.607
 L 773.214,-55.58 z
M 964.129,-55.607 L 963.62,-55.6875 L 963.122,-55.8208 L 962.642,-56.0054 L 962.183,-56.2392 L 961.751,-56.5196
 L 961.351,-56.8437 L 960.987,-57.2079 L 960.662,-57.6081 L 960.382,-58.04 L 960.148,-58.4989 L 959.964,-58.9796
 L 959.83,-59.4771 L 959.75,-59.9857 L 959.723,-60.5 L 959.75,-61.0143 L 959.83,-61.5229 L 959.964,-62.0204
 L 960.148,-62.5011 L 960.382,-62.96 L 960.662,-63.3919 L 960.987,-63.7921 L 961.351,-64.1563 L 961.751,-64.4804
 L 962.093,-64.7024 L 962.093,-74 L 962.149,-74.5302 L 962.313,-75.0372 L 962.58,-75.4988 L 962.937,-75.895
 L 963.368,-76.2084 L 963.855,-76.4252 L 964.376,-76.536 L 964.909,-76.536 L 965.431,-76.4252 L 965.918,-76.2084
 L 966.349,-75.895 L 966.706,-75.4988 L 966.972,-75.0372 L 967.137,-74.5302 L 967.193,-74 L 967.193,-64.7024
 L 967.535,-64.4804 L 967.935,-64.1563 L 968.299,-63.7921 L 968.623,-63.3919 L 968.904,-62.96 L 969.137,-62.5011
 L 969.322,-62.0204 L 969.455,-61.5229 L 969.536,-61.0143 L 969.563,-60.5 L 969.536,-59.9857 L 969.455,-59.4771
 L 969.322,-58.9796 L 969.137,-58.4989 L 968.904,-58.04 L 968.623,-57.6081 L 968.299,-57.2079 L 967.935,-56.8437
 L 967.535,-56.5196 L 967.103,-56.2392 L 966.644,-56.0054 L 966.163,-55.8208 L 965.666,-55.6875 L 965.157,-55.607
 L 964.643,-55.58 z
M 1155.56,-55.607 L 1155.05,-55.6875 L 1154.55,-55.8208 L 1154.07,-56.0054 L 1153.61,-56.2392 L 1153.18,-56.5196
 L 1152.78,-56.8437 L 1152.42,-57.2079 L 1152.09,-57.6081 L 1151.81,-58.04 L 1151.58,-58.4989 L 1151.39,-58.9796
 L 1151.26,-59.4771 L 1151.18,-59.9857 L 1151.15,-60.5 L 1151.18,-61.0143 L 1151.26,-61.5229 L 1151.39,-62.0204
 L 1151.58,-62.5011 L 1151.81,-62.96 L 1152.09,-63.3919 L 1152.42,-63.7921 L 1152.78,-64.1563 L 1153.18,-64.4804
 L 1153.52,-64.7024 L 1153.52,-74 L 1153.58,-74.5302 L 1153.74,-75.0372 L 1154.01,-75.4988 L 1154.37,-75.895
 L 1154.8,-76.2084 L 1155.28,-76.4252 L 1155.8,-76.536 L 1156.34,-76.536 L 1156.86,-76.4252 L 1157.35,-76.2084
 L 1157.78,-75.895 L 1158.13,-75.4988 L 1158.4,-75.0372 L 1158.57,-74.5302 L 1158.62,-74 L 1158.62,-64.7024
 L 1158.96,-64.4804 L 1159.36,-64.1563 L 1159.73,-63.7921 L 1160.05,-63.3919 L 1160.33,-62.96 L 1160.57,-62.5011
 L 1160.75,-62.0204 L 1160.88,-61.5229 L 1160.96,-61.0143 L 1160.99,-60.5 L 1160.96,-59.9857 L 1160.88,-59.4771
 L 1160.75,-58.9796 L 1160.57,-58.4989 L 1160.33,-58.04 L 1160.05,-57.6081 L 1159.73,-57.2079 L 1159.36,-56.8437
 L 1158.96,-56.5196 L 1158.53,-56.2392 L 1158.07,-56.0054 L 1157.59,-55.8208 L 1157.09,-55.6875 L 1156.59,-55.607
 L 1156.07,-55.58 z
M 1346.99,-55.607 L 1346.48,-55.6875 L 1345.98,-55.8208 L 1345.5,-56.0054 L 1345.04,-56.2392 L 1344.61,-56.5196
 L 1344.21,-56.8437 L 1343.84,-57.2079 L 1343.52,-57.6081 L 1343.24,-58.04 L 1343.01,-58.4989 L 1342.82,-58.9796
 L 1342.69,-59.4771 L 1342.61,-59.9857 L 1342.58,-60.5 L 1342.61,-61.0143 L 1342.69,-61.5229 L 1342.82,-62.0204
 L 1343.01,-62.5011 L 1343.24,-62.96 L 1343.52,-63.3919 L 1343.84,-63.7921 L 1344.21,-64.1563 L 1344.61,-64.4804
 L 1344.95,-64.7024 L 1344.95,-74 L 1345.01,-74.5302 L 1345.17,-75.0372 L 1345.44,-75.4988 L 1345.79,-75.895
 L 1346.23,-76.2084 L 1346.71,-76.4252 L 1347.23,-76.536 L 1347.77,-76.536 L 1348.29,-76.4252 L 1348.77,-76.2084
 L 1349.21,-75.895 L 1349.56,-75.4988 L 1349.83,-75.0372 L 1349.99,-74.5302 L 1350.05,-74 L 1350.05,-64.7024
 L 1350.39,-64.4804 L 1350.79,-64.1563 L 1351.16,-63.7921 L 1351.48,-63.3919 L 1351.76,-62.96 L 1351.99,-62.5011
 L 1352.18,-62.0204 L 1352.31,-61.5229 L 1352.39,-61.0143 L 1352.42,-60.5 L 1352.39,-59.9857 L 1352.31,-59.4771
 L 1352.18,-58.9796 L 1351.99,-58.4989 L 1351.76,-58.04 L 1351.48,-57.6081 L 1351.16,-57.2079 L 1350.79,-56.8437
 L 1350.39,-56.5196 L 1349.96,-56.2392 L 1349.5,-56.0054 L 1349.02,-55.8208 L 1348.52,-55.6875 L 1348.01,-55.607
 L 1347.5,-55.58 z
M 785.082,-20.5723 L 784.309,-20.8915 L 783.619,-21.3645 L 783.043,-21.9705 L 782.606,-22.6831 L 782.326,-23.471
 L 782.214,-24.4086 L 782.214,-58 L 782.302,-58.8316 L 782.56,-59.627 L 782.978,-60.3511 L 783.538,-60.9726
 L 784.214,-61.4641 L 784.978,-61.8042 L 786.214,-62 L 880.778,-62 L 881.61,-61.9126 L 882.405,-61.6542
 L 883.129,-61.2361 L 883.751,-60.6765 L 884.242,-60 L 884.582,-59.2361 L 884.756,-58.4181 L 884.756,-57.5819
 L 884.582,-56.7639 L 884.242,-56 L 883.751,-55.3235 L 883.129,-54.7639 L 882.117,-54.2307 L 787.553,-20.6394
 L 786.74,-20.4434 L 785.904,-20.4207 z
M 676.974,-47.7038 L 676.161,-47.8998 L 658.339,-54.2307 L 657.327,-54.7639 L 656.705,-55.3235 L 656.214,-56
 L 655.873,-56.7639 L 655.7,-57.5819 L 655.7,-58.4181 L 655.873,-59.2361 L 656.214,-60 L 656.705,-60.6765
 L 657.327,-61.2361 L 658.051,-61.6542 L 658.846,-61.9126 L 659.678,-62 L 695.322,-62 L 696.455,-61.8364
 L 697.227,-61.5171 L 697.917,-61.0442 L 698.493,-60.4382 L 698.931,-59.7256 L 699.211,-58.9376 L 699.321,-58.1086
 L 699.256,-57.2749 L 699.019,-56.4729 L 698.621,-55.7376 L 698.079,-55.1012 L 697.416,-54.5915 L 696.661,-54.2307
 L 678.839,-47.8998 L 677.81,-47.6811 z
M 568.26,-20.4434 L 567.447,-20.6394 L 472.883,-54.2307 L 471.871,-54.7639 L 471.249,-55.3235 L 470.758,-56
 L 470.418,-56.7639 L 470.244,-57.5819 L 470.244,-58.4181 L 470.418,-59.2361 L 470.758,-60 L 471.249,-60.6765
 L 471.871,-61.2361 L 472.595,-61.6542 L 473.39,-61.9126 L 474.222,-62 L 568.786,-62 L 570.022,-61.8042
 L 570.786,-61.4641 L 571.462,-60.9726 L 572.022,-60.3511 L 572.44,-59.627 L 572.698,-58.8316 L 572.786,-58
 L 572.786,-24.4086 L 572.674,-23.471 L 572.394,-22.6831 L 571.957,-21.9705 L 571.38,-21.3645 L 570.691,-20.8915
 L 569.918,-20.5723 L 569.096,-20.4207 z
M 376.831,-20.4434 L 376.018,-20.6394 L 281.454,-54.2307 L 280.442,-54.7639 L 279.821,-55.3235 L 279.329,-56
 L 278.989,-56.7639 L 278.815,-57.5819 L 278.815,-58.4181 L 278.989,-59.2361 L 279.329,-60 L 279.821,-60.6765
 L 280.442,-61.2361 L 281.166,-61.6542 L 281.962,-61.9126 L 282.793,-62 L 377.357,-62 L 378.593,-61.8042
 L 379.357,-61.4641 L 380.034,-60.9726 L 380.593,-60.3511 L 381.011,-59.627 L 381.27,-58.8316 L 381.357,-58
 L 381.357,-24.4086 L 381.246,-23.471 L 380.966,-22.6831 L 380.528,-21.9705 L 379.952,-21.3645 L 379.262,-20.8915
 L 378.489,-20.5723 L 377.667,-20.4207 z
M 1167.94,-20.5723 L 1167.17,-20.8915 L 1166.48,-21.3645 L 1165.9,-21.9705 L 1165.46,-22.6831 L 1165.18,-23.471
 L 1165.07,-24.4086 L 1165.07,-58 L 1165.16,-58.8316 L 1165.42,-59.627 L 1165.84,-60.3511 L 1166.39,-60.9726
 L 1167.07,-61.4641 L 1167.84,-61.8042 L 1169.07,-62 L 1263.64,-62 L 1264.47,-61.9126 L 1265.26,-61.6542
 L 1265.99,-61.2361 L 1266.61,-60.6765 L 1267.1,-60 L 1267.44,-59.2361 L 1267.61,-58.4181 L 1267.61,-57.5819
 L 1267.44,-56.7639 L 1267.1,-56 L 1266.61,-55.3235 L 1265.99,-54.7639 L 1264.97,-54.2307 L 1170.41,-20.6394
 L 1169.6,-20.4434 L 1168.76,-20.4207 z
M 185.403,-20.4434 L 184.59,-20.6394 L 90.0257,-54.2307 L 89.0135,-54.7639 L 88.3921,-55.3235 L 87.9006,-56
 L 87.5604,-56.7639 L 87.3866,-57.5819 L 87.3866,-58.4181 L 87.5604,-59.2361 L 87.9006,-60 L 88.3921,-60.6765
 L 89.0135,-61.2361 L 89.7377,-61.6542 L 90.533,-61.9126 L 91.3647,-62 L 185.929,-62 L 187.165,-61.8042
 L 187.929,-61.4641 L 188.605,-60.9726 L 189.165,-60.3511 L 189.583,-59.627 L 189.841,-58.8316 L 189.929,-58
 L 189.929,-24.4086 L 189.817,-23.471 L 189.537,-22.6831 L 189.1,-21.9705 L 188.523,-21.3645 L 187.834,-20.8915
 L 187.061,-20.5723 L 186.238,-20.4207 z
M 976.511,-20.5723 L 975.738,-20.8915 L 975.048,-21.3645 L 974.472,-21.9705 L 974.034,-22.6831 L 973.754,-23.471
 L 973.643,-24.4086 L 973.643,-58 L 973.73,-58.8316 L 973.989,-59.627 L 974.407,-60.3511 L 974.966,-60.9726
 L 975.643,-61.4641 L 976.407,-61.8042 L 977.643,-62 L 1072.21,-62 L 1073.04,-61.9126 L 1073.83,-61.6542
 L 1074.56,-61.2361 L 1075.18,-60.6765 L 1075.67,-60 L 1076.01,-59.2361 L 1076.18,-58.4181 L 1076.18,-57.5819
 L 1076.01,-56.7639 L 1075.67,-56 L 1075.18,-55.3235 L 1074.56,-54.7639 L 1073.55,-54.2307 L 978.982,-20.6394
 L 978.169,-20.4434 L 977.333,-20.4207 z
M 594.368,-18.3089 L 593.55,-18.4828 L 592.786,-18.8229 L 592.109,-19.3144 L 591.55,-19.9359 L 591.132,-20.66
 L 590.873,-21.4554 L 590.786,-22.287 L 590.786,-57.713 L 590.897,-58.6506 L 591.177,-59.4386 L 591.615,-60.1512
 L 592.191,-60.7572 L 592.881,-61.2301 L 593.653,-61.5494 L 594.476,-61.701 L 595.312,-61.6783 L 596.125,-61.4823
 L 645.989,-43.7693 L 646.555,-43.5171 L 647.245,-43.0442 L 647.821,-42.4382 L 648.259,-41.7256 L 648.539,-40.9376
 L 648.649,-40.1086 L 648.584,-39.2749 L 648.347,-38.4729 L 647.949,-37.7376 L 647.406,-37.1012 L 646.743,-36.5915
 L 645.989,-36.2307 L 596.125,-18.5177 L 595.204,-18.3089 z
M 759.688,-18.3217 L 758.875,-18.5177 L 709.011,-36.2307 L 708.445,-36.4829 L 707.755,-36.9558 L 707.179,-37.5618
 L 706.741,-38.2744 L 706.461,-39.0624 L 706.351,-39.8914 L 706.416,-40.7251 L 706.653,-41.5271 L 707.051,-42.2624
 L 707.594,-42.8988 L 708.257,-43.4085 L 709.011,-43.7693 L 758.875,-61.4823 L 759.796,-61.6911 L 760.632,-61.6911
 L 761.45,-61.5172 L 762.214,-61.1771 L 762.891,-60.6856 L 763.45,-60.0641 L 763.868,-59.34 L 764.127,-58.5447
 L 764.214,-57.713 L 764.214,-22.287 L 764.103,-21.3494 L 763.823,-20.5614 L 763.385,-19.8488 L 762.809,-19.2428
 L 762.119,-18.7699 L 761.347,-18.4506 L 760.524,-18.299 z
M 211.929,-18 L 210.692,-18.1958 L 209.929,-18.5359 L 209.252,-19.0274 L 208.692,-19.6489 L 208.274,-20.373
 L 208.016,-21.1684 L 207.929,-22 L 207.929,-55.5913 L 208.04,-56.5289 L 208.32,-57.3169 L 208.758,-58.0295
 L 209.334,-58.6355 L 210.023,-59.1085 L 210.796,-59.4277 L 211.619,-59.5793 L 212.455,-59.5566 L 213.267,-59.3606
 L 307.831,-25.7693 L 308.844,-25.2361 L 309.465,-24.6765 L 309.957,-24 L 310.297,-23.2361 L 310.471,-22.4181
 L 310.471,-21.5819 L 310.297,-20.7639 L 309.957,-20 L 309.465,-19.3235 L 308.844,-18.7639 L 308.119,-18.3458
 L 307.324,-18.0874 L 306.492,-18 z
M 403.357,-18 L 402.121,-18.1958 L 401.357,-18.5359 L 400.681,-19.0274 L 400.121,-19.6489 L 399.703,-20.373
 L 399.445,-21.1684 L 399.357,-22 L 399.357,-55.5913 L 399.469,-56.5289 L 399.748,-57.3169 L 400.186,-58.0295
 L 400.762,-58.6355 L 401.452,-59.1085 L 402.225,-59.4277 L 403.047,-59.5793 L 403.883,-59.5566 L 404.696,-59.3606
 L 499.26,-25.7693 L 500.272,-25.2361 L 500.894,-24.6765 L 501.385,-24 L 501.725,-23.2361 L 501.899,-22.4181
 L 501.899,-21.5819 L 501.725,-20.7639 L 501.385,-20 L 500.894,-19.3235 L 500.272,-18.7639 L 499.548,-18.3458
 L 498.753,-18.0874 L 497.921,-18 z
M 857.079,-18 L 856.247,-18.0874 L 855.452,-18.3458 L 854.728,-18.7639 L 854.106,-19.3235 L 853.615,-20
 L 853.275,-20.7639 L 853.101,-21.5819 L 853.101,-22.4181 L 853.275,-23.2361 L 853.615,-24 L 854.106,-24.6765
 L 854.728,-25.2361 L 855.74,-25.7693 L 950.304,-59.3606 L 951.117,-59.5566 L 951.953,-59.5793 L 952.775,-59.4277
 L 953.548,-59.1085 L 954.238,-58.6355 L 954.814,-58.0295 L 955.251,-57.3169 L 955.531,-56.5289 L 955.643,-55.5913
 L 955.643,-22 L 955.555,-21.1684 L 955.297,-20.373 L 954.879,-19.6489 L 954.319,-19.0274 L 953.643,-18.5359
 L 952.879,-18.1958 L 951.643,-18 z
M 1048.51,-18 L 1047.68,-18.0874 L 1046.88,-18.3458 L 1046.16,-18.7639 L 1045.53,-19.3235 L 1045.04,-20
 L 1044.7,-20.7639 L 1044.53,-21.5819 L 1044.53,-22.4181 L 1044.7,-23.2361 L 1045.04,-24 L 1045.53,-24.6765
 L 1046.16,-25.2361 L 1047.17,-25.7693 L 1141.73,-59.3606 L 1142.55,-59.5566 L 1143.38,-59.5793 L 1144.2,-59.4277
 L 1144.98,-59.1085 L 1145.67,-58.6355 L 1146.24,-58.0295 L 1146.68,-57.3169 L 1146.96,-56.5289 L 1147.07,-55.5913
 L 1147.07,-22 L 1146.98,-21.1684 L 1146.73,-20.373 L 1146.31,-19.6489 L 1145.75,-19.0274 L 1145.07,-18.5359
 L 1144.31,-18.1958 L 1143.07,-18 z
M 22,-18 L 20.7639,-18.1958 L 20,-18.5359 L 19.3235,-19.0274 L 18.7639,-19.6489 L 18.3458,-20.373
 L 18.0874,-21.1684 L 18,-22 L 18,-55.0585 L 18.1114,-55.9961 L 18.3914,-56.7841 L 18.829,-57.4967
 L 19.4052,-58.1027 L 20.0948,-58.5756 L 20.8677,-58.8949 L 21.6901,-59.0465 L 22.526,-59.0238 L 23.3389,-58.8278
 L 116.403,-25.7693 L 117.415,-25.2361 L 118.036,-24.6765 L 118.528,-24 L 118.868,-23.2361 L 119.042,-22.4181
 L 119.042,-21.5819 L 118.868,-20.7639 L 118.528,-20 L 118.036,-19.3235 L 117.415,-18.7639 L 116.691,-18.3458
 L 115.896,-18.0874 L 115.064,-18 z
M 1239.94,-18 L 1239.1,-18.0874 L 1238.31,-18.3458 L 1237.58,-18.7639 L 1236.96,-19.3235 L 1236.47,-20
 L 1236.13,-20.7639 L 1235.96,-21.5819 L 1235.96,-22.4181 L 1236.13,-23.2361 L 1236.47,-24 L 1236.96,-24.6765
 L 1237.58,-25.2361 L 1238.6,-25.7693 L 1331.66,-58.8278 L 1332.47,-59.0238 L 1333.31,-59.0465 L 1334.13,-58.8949
 L 1334.91,-58.5756 L 1335.59,-58.1027 L 1336.17,-57.4967 L 1336.61,-56.7841 L 1336.89,-55.9961 L 1337,-55.0585
 L 1337,-22 L 1336.91,-21.1684 L 1336.65,-20.373 L 1336.24,-19.6489 L 1335.68,-19.0274 L 1335,-18.5359
 L 1334.24,-18.1958 L 1333,-18 z
M 659.678,-18 L 658.545,-18.1636 L 657.772,-18.4829 L 657.083,-18.9558 L 656.507,-19.5618 L 656.069,-20.2744
 L 655.789,-21.0624 L 655.679,-21.8914 L 655.744,-22.7251 L 655.981,-23.5271 L 656.379,-24.2624 L 656.921,-24.8988
 L 657.584,-25.4085 L 658.339,-25.7693 L 676.161,-32.1002 L 677.19,-32.3189 L 678.026,-32.2962 L 678.839,-32.1002
 L 696.661,-25.7693 L 697.673,-25.2361 L 698.295,-24.6765 L 698.786,-24 L 699.127,-23.2361 L 699.3,-22.4181
 L 699.3,-21.5819 L 699.127,-20.7639 L 698.786,-20 L 698.295,-19.3235 L 697.673,-18.7639 L 696.949,-18.3458
 L 696.154,-18.0874 L 695.322,-18 z
" stroke="black" fill="lightgray" stroke-width="0.5"/>
</svg>
