<?xml version="1.0" standalone="no"?>
<!DOCTYPE svg PUBLIC "-//W3C//DTD SVG 1.1//EN" "http://www.w3.org/Graphics/SVG/1.1/DTD/svg11.dtd">
<svg width="1480mm" height="80mm" viewBox="0 -80 1480 80" xmlns="http://www.w3.org/2000/svg" version="1.1">
<title>OpenSCAD Model</title>
<path d="
M 1480,-80 L 0,-80 L 0,-0 L 4.95,-0 L 4.95,-6 L 5.00572,-6.53017
 L 5.17046,-7.03717 L 5.437,-7.49884 L 5.79372,-7.895 L 6.22499,-8.20836 L 6.71201,-8.42519 L 7.23344,-8.53603
 L 7.76654,-8.53603 L 8.28798,-8.42519 L 8.77499,-8.20836 L 9.20627,-7.895 L 9.56299,-7.49884 L 9.82953,-7.03717
 L 9.99426,-6.53017 L 10.05,-6 L 10.05,-0 L 188.075,-0 L 188.075,-6 L 188.131,-6.53017
 L 188.295,-7.03717 L 188.562,-7.49884 L 188.919,-7.895 L 189.35,-8.20836 L 189.837,-8.42519 L 190.358,-8.53603
 L 190.892,-8.53603 L 191.413,-8.42519 L 191.9,-8.20836 L 192.331,-7.895 L 192.688,-7.49884 L 192.955,-7.03717
 L 193.119,-6.53017 L 193.175,-6 L 193.175,-0 L 371.2,-0 L 371.2,-6 L 371.256,-6.53017
 L 371.42,-7.03717 L 371.687,-7.49884 L 372.044,-7.895 L 372.475,-8.20836 L 372.962,-8.42519 L 373.483,-8.53603
 L 374.017,-8.53603 L 374.538,-8.42519 L 375.025,-8.20836 L 375.456,-7.895 L 375.813,-7.49884 L 376.08,-7.03717
 L 376.244,-6.53017 L 376.3,-6 L 376.3,-0 L 554.325,-0 L 554.325,-6 L 554.381,-6.53017
 L 554.545,-7.03717 L 554.812,-7.49884 L 555.169,-7.895 L 555.6,-8.20836 L 556.087,-8.42519 L 556.608,-8.53603
 L 557.142,-8.53603 L 557.663,-8.42519 L 558.15,-8.20836 L 558.581,-7.895 L 558.938,-7.49884 L 559.205,-7.03717
 L 559.369,-6.53017 L 559.425,-6 L 559.425,-0 L 737.45,-0 L 737.45,-6 L 737.506,-6.53017
 L 737.67,-7.03717 L 737.937,-7.49884 L 738.294,-7.895 L 738.725,-8.20836 L 739.212,-8.42519 L 739.733,-8.53603
 L 740.267,-8.53603 L 740.788,-8.42519 L 741.275,-8.20836 L 741.706,-7.895 L 742.063,-7.49884 L 742.33,-7.03717
 L 742.494,-6.53017 L 742.55,-6 L 742.55,-0 L 920.575,-0 L 920.575,-6 L 920.631,-6.53017
 L 920.795,-7.03717 L 921.062,-7.49884 L 921.419,-7.895 L 921.85,-8.20836 L 922.337,-8.42519 L 922.858,-8.53603
 L 923.392,-8.53603 L 923.913,-8.42519 L 924.4,-8.20836 L 924.831,-7.895 L 925.188,-7.49884 L 925.455,-7.03717
 L 925.619,-6.53017 L 925.675,-6 L 925.675,-0 L 1103.7,-0 L 1103.7,-6 L 1103.76,-6.53017
 L 1103.92,-7.03717 L 1104.19,-7.49884 L 1104.54,-7.895 L 1104.97,-8.20836 L 1105.46,-8.42519 L 1105.98,-8.53603
 L 1106.52,-8.53603 L 1107.04,-8.42519 L 1107.52,-8.20836 L 1107.96,-7.895 L 1108.31,-7.49884 L 1108.58,-7.03717
 L 1108.74,-6.53017 L 1108.8,-6 L 1108.8,-0 L 1286.82,-0 L 1286.82,-6 L 1286.88,-6.53017
 L 1287.05,-7.03717 L 1287.31,-7.49884 L 1287.67,-7.895 L 1288.1,-8.20836 L 1288.59,-8.42519 L 1289.11,-8.53603
 L 1289.64,-8.53603 L 1290.16,-8.42519 L 1290.65,-8.20836 L 1291.08,-7.895 L 1291.44,-7.49884 L 1291.7,-7.03717
 L 1291.87,-6.53017 L 1291.92,-6 L 1291.92,-0 L 1469.95,-0 L 1469.95,-6 L 1470.01,-6.53017
 L 1470.17,-7.03717 L 1470.44,-7.49884 L 1470.79,-7.895 L 1471.22,-8.20836 L 1471.71,-8.42519 L 1472.23,-8.53603
 L 1472.77,-8.53603 L 1473.29,-8.42519 L 1473.77,-8.20836 L 1474.21,-7.895 L 1474.56,-7.49884 L 1474.83,-7.03717
 L 1474.99,-6.53017 L 1475.05,-6 L 1475.05,-0 L 1480,-0 z
M 190.111,-55.607 L 189.602,-55.6875 L 189.105,-55.8208 L 188.624,-56.0054 L 188.165,-56.2392 L 187.733,-56.5196
 L 187.333,-56.8437 L 186.969,-57.2079 L 186.645,-57.6081 L 186.364,-58.04 L 186.13,-58.4989 L 185.946,-58.9796
 L 185.813,-59.4771 L 185.732,-59.9857 L 185.705,-60.5 L 185.732,-61.0143 L 185.813,-61.5229 L 185.946,-62.0204
 L 186.13,-62.5011 L 186.364,-62.96 L 186.645,-63.3919 L 186.969,-63.7921 L 187.333,-64.1563 L 187.733,-64.4804
 L 188.075,-64.7024 L 188.075,-74 L 188.131,-74.5302 L 188.295,-75.0372 L 188.562,-75.4988 L 188.919,-75.895
 L 189.35,-76.2084 L 189.837,-76.4252 L 190.358,-76.536 L 190.892,-76.536 L 191.413,-76.4252 L 191.9,-76.2084
 L 192.331,-75.895 L 192.688,-75.4988 L 192.955,-75.0372 L 193.119,-74.5302 L 193.175,-74 L 193.175,-64.7024
 L 193.517,-64.4804 L 193.917,-64.1563 L 194.281,-63.7921 L 194.605,-63.3919 L 194.886,-62.96 L 195.12,-62.5011
 L 195.304,-62.0204 L 195.437,-61.5229 L 195.518,-61.0143 L 195.545,-60.5 L 195.518,-59.9857 L 195.437,-59.4771
 L 195.304,-58.9796 L 195.12,-58.4989 L 194.886,-58.04 L 194.605,-57.6081 L 194.281,-57.2079 L 193.917,-56.8437
 L 193.517,-56.5196 L 193.085,-56.2392 L 192.626,-56.0054 L 192.145,-55.8208 L 191.648,-55.6875 L 191.139,-55.607
 L 190.625,-55.58 z
M 1105.74,-55.607 L 1105.23,-55.6875 L 1104.73,-55.8208 L 1104.25,-56.0054 L 1103.79,-56.2392 L 1103.36,-56.5196
 L 1102.96,-56.8437 L 1102.59,-57.2079 L 1102.27,-57.6081 L 1101.99,-58.04 L 1101.76,-58.4989 L 1101.57,-58.9796
 L 1101.44,-59.4771 L 1101.36,-59.9857 L 1101.33,-60.5 L 1101.36,-61.0143 L 1101.44,-61.5229 L 1101.57,-62.0204
 L 1101.76,-62.5011 L 1101.99,-62.96 L 1102.27,-63.3919 L 1102.59,-63.7921 L 1102.96,-64.1563 L 1103.36,-64.4804
 L 1103.7,-64.7024 L 1103.7,-74 L 1103.76,-74.5302 L 1103.92,-75.0372 L 1104.19,-75.4988 L 1104.54,-75.895
 L 1104.98,-76.2084 L 1105.46,-76.4252 L 1105.98,-76.536 L 1106.52,-76.536 L 1107.04,-76.4252 L 1107.52,-76.2084
 L 1107.96,-75.895 L 1108.31,-75.4988 L 1108.58,-75.0372 L 1108.74,-74.5302 L 1108.8,-74 L 1108.8,-64.7024
 L 1109.14,-64.4804 L 1109.54,-64.1563 L 1109.91,-63.7921 L 1110.23,-63.3919 L 1110.51,-62.96 L 1110.74,-62.5011
 L 1110.93,-62.0204 L 1111.06,-61.5229 L 1111.14,-61.0143 L 1111.17,-60.5 L 1111.14,-59.9857 L 1111.06,-59.4771
 L 1110.93,-58.9796 L 1110.74,-58.4989 L 1110.51,-58.04 L 1110.23,-57.6081 L 1109.91,-57.2079 L 1109.54,-56.8437
 L 1109.14,-56.5196 L 1108.71,-56.2392 L 1108.25,-56.0054 L 1107.77,-55.8208 L 1107.27,-55.6875 L 1106.76,-55.607
 L 1106.25,-55.58 z
M 922.611,-55.607 L 922.102,-55.6875 L 921.605,-55.8208 L 921.124,-56.0054 L 920.665,-56.2392 L 920.233,-56.5196
 L 919.833,-56.8437 L 919.469,-57.2079 L 919.145,-57.6081 L 918.864,-58.04 L 918.63,-58.4989 L 918.446,-58.9796
 L 918.313,-59.4771 L 918.232,-59.9857 L 918.205,-60.5 L 918.232,-61.0143 L 918.313,-61.5229 L 918.446,-62.0204
 L 918.63,-62.5011 L 918.864,-62.96 L 919.145,-63.3919 L 919.469,-63.7921 L 919.833,-64.1563 L 920.233,-64.4804
 L 920.575,-64.7024 L 920.575,-74 L 920.631,-74.5302 L 920.795,-75.0372 L 921.062,-75.4988 L 921.419,-75.895
 L 921.85,-76.2084 L 922.337,-76.4252 L 922.858,-76.536 L 923.392,-76.536 L 923.913,-76.4252 L 924.4,-76.2084
 L 924.831,-75.895 L 925.188,-75.4988 L 925.455,-75.0372 L 925.619,-74.5302 L 925.675,-74 L 925.675,-64.7024
 L 926.017,-64.4804 L 926.417,-64.1563 L 926.781,-63.7921 L 927.105,-63.3919 L 927.386,-62.96 L 927.62,-62.5011
 L 927.804,-62.0204 L 927.937,-61.5229 L 928.018,-61.0143 L 928.045,-60.5 L 928.018,-59.9857 L 927.937,-59.4771
 L 927.804,-58.9796 L 927.62,-58.4989 L 927.386,-58.04 L 927.105,-57.6081 L 926.781,-57.2079 L 926.417,-56.8437
 L 926.017,-56.5196 L 925.585,-56.2392 L 925.126,-56.0054 L 924.645,-55.8208 L 924.148,-55.6875 L 923.639,-55.607
 L 923.125,-55.58 z
M 6.98573,-55.607 L 6.47708,-55.6875 L 5.97964,-55.8208 L 5.49887,-56.0054 L 5.04001,-56.2392 L 4.60811,-56.5196
 L 4.20789,-56.8437 L 3.84373,-57.2079 L 3.51964,-57.6081 L 3.23917,-58.04 L 3.00537,-58.4989 L 2.82082,-58.9796
 L 2.68752,-59.4771 L 2.60696,-59.9857 L 2.58,-60.5 L 2.60696,-61.0143 L 2.68752,-61.5229 L 2.82082,-62.0204
 L 3.00537,-62.5011 L 3.23917,-62.96 L 3.51964,-63.3919 L 3.84373,-63.7921 L 4.20789,-64.1563 L 4.60811,-64.4804
 L 4.95001,-64.7024 L 4.95001,-74 L 5.00574,-74.5302 L 5.17047,-75.0372 L 5.43701,-75.4988 L 5.79373,-75.895
 L 6.22501,-76.2084 L 6.71202,-76.4252 L 7.23346,-76.536 L 7.76654,-76.536 L 8.28798,-76.4252 L 8.77499,-76.2084
 L 9.20627,-75.895 L 9.56299,-75.4988 L 9.82953,-75.0372 L 9.99426,-74.5302 L 10.05,-74 L 10.05,-64.7024
 L 10.3919,-64.4804 L 10.7921,-64.1563 L 11.1563,-63.7921 L 11.4804,-63.3919 L 11.7608,-62.96 L 11.9946,-62.5011
 L 12.1792,-62.0204 L 12.3125,-61.5229 L 12.393,-61.0143 L 12.42,-60.5 L 12.393,-59.9857 L 12.3125,-59.4771
 L 12.1792,-58.9796 L 11.9946,-58.4989 L 11.7608,-58.04 L 11.4804,-57.6081 L 11.1563,-57.2079 L 10.7921,-56.8437
 L 10.3919,-56.5196 L 9.95999,-56.2392 L 9.50113,-56.0054 L 9.02036,-55.8208 L 8.52292,-55.6875 L 8.01427,-55.607
 L 7.5,-55.58 z
M 739.486,-55.607 L 738.977,-55.6875 L 738.48,-55.8208 L 737.999,-56.0054 L 737.54,-56.2392 L 737.108,-56.5196
 L 736.708,-56.8437 L 736.344,-57.2079 L 736.02,-57.6081 L 735.739,-58.04 L 735.505,-58.4989 L 735.321,-58.9796
 L 735.188,-59.4771 L 735.107,-59.9857 L 735.08,-60.5 L 735.107,-61.0143 L 735.188,-61.5229 L 735.321,-62.0204
 L 735.505,-62.5011 L 735.739,-62.96 L 736.02,-63.3919 L 736.344,-63.7921 L 736.708,-64.1563 L 737.108,-64.4804
 L 737.45,-64.7024 L 737.45,-74 L 737.506,-74.5302 L 737.67,-75.0372 L 737.937,-75.4988 L 738.294,-75.895
 L 738.725,-76.2084 L 739.212,-76.4252 L 739.733,-76.536 L 740.267,-76.536 L 740.788,-76.4252 L 741.275,-76.2084
 L 741.706,-75.895 L 742.063,-75.4988 L 742.33,-75.0372 L 742.494,-74.5302 L 742.55,-74 L 742.55,-64.7024
 L 742.892,-64.4804 L 743.292,-64.1563 L 743.656,-63.7921 L 743.98,-63.3919 L 744.261,-62.96 L 744.495,-62.5011
 L 744.679,-62.0204 L 744.812,-61.5229 L 744.893,-61.0143 L 744.92,-60.5 L 744.893,-59.9857 L 744.812,-59.4771
 L 744.679,-58.9796 L 744.495,-58.4989 L 744.261,-58.04 L 743.98,-57.6081 L 743.656,-57.2079 L 743.292,-56.8437
 L 742.892,-56.5196 L 742.46,-56.2392 L 742.001,-56.0054 L 741.52,-55.8208 L 741.023,-55.6875 L 740.514,-55.607
 L 740,-55.58 z
M 1288.86,-55.607 L 1288.35,-55.6875 L 1287.85,-55.8208 L 1287.37,-56.0054 L 1286.92,-56.2392 L 1286.48,-56.5196
 L 1286.08,-56.8437 L 1285.72,-57.2079 L 1285.39,-57.6081 L 1285.11,-58.04 L 1284.88,-58.4989 L 1284.7,-58.9796
 L 1284.56,-59.4771 L 1284.48,-59.9857 L 1284.46,-60.5 L 1284.48,-61.0143 L 1284.56,-61.5229 L 1284.7,-62.0204
 L 1284.88,-62.5011 L 1285.11,-62.96 L 1285.39,-63.3919 L 1285.72,-63.7921 L 1286.08,-64.1563 L 1286.48,-64.4804
 L 1286.83,-64.7024 L 1286.83,-74 L 1286.88,-74.5302 L 1287.05,-75.0372 L 1287.31,-75.4988 L 1287.67,-75.895
 L 1288.1,-76.2084 L 1288.59,-76.4252 L 1289.11,-76.536 L 1289.64,-76.536 L 1290.16,-76.4252 L 1290.65,-76.2084
 L 1291.08,-75.895 L 1291.44,-75.4988 L 1291.7,-75.0372 L 1291.87,-74.5302 L 1291.92,-74 L 1291.92,-64.7024
 L 1292.27,-64.4804 L 1292.67,-64.1563 L 1293.03,-63.7921 L 1293.36,-63.3919 L 1293.64,-62.96 L 1293.87,-62.5011
 L 1294.05,-62.0204 L 1294.19,-61.5229 L 1294.27,-61.0143 L 1294.29,-60.5 L 1294.27,-59.9857 L 1294.19,-59.4771
 L 1294.05,-58.9796 L 1293.87,-58.4989 L 1293.64,-58.04 L 1293.36,-57.6081 L 1293.03,-57.2079 L 1292.67,-56.8437
 L 1292.27,-56.5196 L 1291.83,-56.2392 L 1291.38,-56.0054 L 1290.9,-55.8208 L 1290.4,-55.6875 L 1289.89,-55.607
 L 1289.38,-55.58 z
M 556.361,-55.607 L 555.852,-55.6875 L 555.355,-55.8208 L 554.874,-56.0054 L 554.415,-56.2392 L 553.983,-56.5196
 L 553.583,-56.8437 L 553.219,-57.2079 L 552.895,-57.6081 L 552.614,-58.04 L 552.38,-58.4989 L 552.196,-58.9796
 L 552.063,-59.4771 L 551.982,-59.9857 L 551.955,-60.5 L 551.982,-61.0143 L 552.063,-61.5229 L 552.196,-62.0204
 L 552.38,-62.5011 L 552.614,-62.96 L 552.895,-63.3919 L 553.219,-63.7921 L 553.583,-64.1563 L 553.983,-64.4804
 L 554.325,-64.7024 L 554.325,-74 L 554.381,-74.5302 L 554.545,-75.0372 L 554.812,-75.4988 L 555.169,-75.895
 L 555.6,-76.2084 L 556.087,-76.4252 L 556.608,-76.536 L 557.142,-76.536 L 557.663,-76.4252 L 558.15,-76.2084
 L 558.581,-75.895 L 558.938,-75.4988 L 559.205,-75.0372 L 559.369,-74.5302 L 559.425,-74 L 559.425,-64.7024
 L 559.767,-64.4804 L 560.167,-64.1563 L 560.531,-63.7921 L 560.855,-63.3919 L 561.136,-62.96 L 561.37,-62.5011
 L 561.554,-62.0204 L 561.687,-61.5229 L 561.768,-61.0143 L 561.795,-60.5 L 561.768,-59.9857 L 561.687,-59.4771
 L 561.554,-58.9796 L 561.37,-58.4989 L 561.136,-58.04 L 560.855,-57.6081 L 560.531,-57.2079 L 560.167,-56.8437
 L 559.767,-56.5196 L 559.335,-56.2392 L 558.876,-56.0054 L 558.395,-55.8208 L 557.898,-55.6875 L 557.389,-55.607
 L 556.875,-55.58 z
M 373.236,-55.607 L 372.727,-55.6875 L 372.23,-55.8208 L 371.749,-56.0054 L 371.29,-56.2392 L 370.858,-56.5196
 L 370.458,-56.8437 L 370.094,-57.2079 L 369.77,-57.6081 L 369.489,-58.04 L 369.255,-58.4989 L 369.071,-58.9796
 L 368.938,-59.4771 L 368.857,-59.9857 L 368.83,-60.5 L 368.857,-61.0143 L 368.938,-61.5229 L 369.071,-62.0204
 L 369.255,-62.5011 L 369.489,-62.96 L 369.77,-63.3919 L 370.094,-63.7921 L 370.458,-64.1563 L 370.858,-64.4804
 L 371.2,-64.7024 L 371.2,-74 L 371.256,-74.5302 L 371.42,-75.0372 L 371.687,-75.4988 L 372.044,-75.895
 L 372.475,-76.2084 L 372.962,-76.4252 L 373.483,-76.536 L 374.017,-76.536 L 374.538,-76.4252 L 375.025,-76.2084
 L 375.456,-75.895 L 375.813,-75.4988 L 376.08,-75.0372 L 376.244,-74.5302 L 376.3,-74 L 376.3,-64.7024
 L 376.642,-64.4804 L 377.042,-64.1563 L 377.406,-63.7921 L 377.73,-63.3919 L 378.011,-62.96 L 378.245,-62.5011
 L 378.429,-62.0204 L 378.562,-61.5229 L 378.643,-61.0143 L 378.67,-60.5 L 378.643,-59.9857 L 378.562,-59.4771
 L 378.429,-58.9796 L 378.245,-58.4989 L 378.011,-58.04 L 377.73,-57.6081 L 377.406,-57.2079 L 377.042,-56.8437
 L 376.642,-56.5196 L 376.21,-56.2392 L 375.751,-56.0054 L 375.27,-55.8208 L 374.773,-55.6875 L 374.264,-55.607
 L 373.75,-55.58 z
M 1471.99,-55.607 L 1471.48,-55.6875 L 1470.98,-55.8208 L 1470.5,-56.0054 L 1470.04,-56.2392 L 1469.61,-56.5196
 L 1469.21,-56.8437 L 1468.84,-57.2079 L 1468.52,-57.6081 L 1468.24,-58.04 L 1468.01,-58.4989 L 1467.82,-58.9796
 L 1467.69,-59.4771 L 1467.61,-59.9857 L 1467.58,-60.5 L 1467.61,-61.0143 L 1467.69,-61.5229 L 1467.82,-62.0204
 L 1468.01,-62.5011 L 1468.24,-62.96 L 1468.52,-63.3919 L 1468.84,-63.7921 L 1469.21,-64.1563 L 1469.61,-64.4804
 L 1469.95,-64.7024 L 1469.95,-74 L 1470.01,-74.5302 L 1470.17,-75.0372 L 1470.44,-75.4988 L 1470.79,-75.895
 L 1471.23,-76.2084 L 1471.71,-76.4252 L 1472.23,-76.536 L 1472.77,-76.536 L 1473.29,-76.4252 L 1473.77,-76.2084
 L 1474.21,-75.895 L 1474.56,-75.4988 L 1474.83,-75.0372 L 1474.99,-74.5302 L 1475.05,-74 L 1475.05,-64.7024
 L 1475.39,-64.4804 L 1475.79,-64.1563 L 1476.16,-63.7921 L 1476.48,-63.3919 L 1476.76,-62.96 L 1476.99,-62.5011
 L 1477.18,-62.0204 L 1477.31,-61.5229 L 1477.39,-61.0143 L 1477.42,-60.5 L 1477.39,-59.9857 L 1477.31,-59.4771
 L 1477.18,-58.9796 L 1476.99,-58.4989 L 1476.76,-58.04 L 1476.48,-57.6081 L 1476.16,-57.2079 L 1475.79,-56.8437
 L 1475.39,-56.5196 L 1474.96,-56.2392 L 1474.5,-56.0054 L 1474.02,-55.8208 L 1473.52,-55.6875 L 1473.01,-55.607
 L 1472.5,-55.58 z
M 360.168,-20.7254 L 359.358,-20.9329 L 269.634,-54.2502 L 268.675,-54.7639 L 268.054,-55.3235 L 267.562,-56
 L 267.222,-56.7639 L 267.048,-57.5819 L 267.048,-58.4181 L 267.222,-59.2361 L 267.562,-60 L 268.054,-60.6765
 L 268.675,-61.2361 L 269.399,-61.6542 L 270.194,-61.9126 L 271.026,-62 L 360.75,-62 L 361.986,-61.8042
 L 362.75,-61.4641 L 363.427,-60.9726 L 363.986,-60.3511 L 364.404,-59.627 L 364.663,-58.8316 L 364.75,-58
 L 364.75,-24.6827 L 364.625,-23.6899 L 364.334,-22.906 L 363.886,-22.1997 L 363.301,-21.602 L 362.605,-21.1388
 L 361.828,-20.8306 L 361.003,-20.6908 z
M 543.293,-20.7254 L 542.483,-20.9329 L 452.759,-54.2502 L 451.8,-54.7639 L 451.179,-55.3235 L 450.687,-56
 L 450.347,-56.7639 L 450.173,-57.5819 L 450.173,-58.4181 L 450.347,-59.2361 L 450.687,-60 L 451.179,-60.6765
 L 451.8,-61.2361 L 452.524,-61.6542 L 453.319,-61.9126 L 454.151,-62 L 543.875,-62 L 545.111,-61.8042
 L 545.875,-61.4641 L 546.552,-60.9726 L 547.111,-60.3511 L 547.529,-59.627 L 547.788,-58.8316 L 547.875,-58
 L 547.875,-24.6827 L 547.75,-23.6899 L 547.459,-22.906 L 547.011,-22.1997 L 546.426,-21.602 L 545.73,-21.1388
 L 544.953,-20.8306 L 544.128,-20.6908 z
M 1301.3,-20.8306 L 1300.52,-21.1388 L 1299.82,-21.602 L 1299.24,-22.1997 L 1298.79,-22.906 L 1298.5,-23.6899
 L 1298.38,-24.6827 L 1298.38,-58 L 1298.46,-58.8316 L 1298.72,-59.627 L 1299.14,-60.3511 L 1299.7,-60.9726
 L 1300.38,-61.4641 L 1301.14,-61.8042 L 1302.38,-62 L 1392.1,-62 L 1392.93,-61.9126 L 1393.73,-61.6542
 L 1394.45,-61.2361 L 1395.07,-60.6765 L 1395.56,-60 L 1395.9,-59.2361 L 1396.08,-58.4181 L 1396.08,-57.5819
 L 1395.9,-56.7639 L 1395.56,-56 L 1395.07,-55.3235 L 1394.45,-54.7639 L 1393.49,-54.2502 L 1303.77,-20.9329
 L 1302.96,-20.7254 L 1302.12,-20.6908 z
M 726.418,-20.7254 L 725.608,-20.9329 L 635.884,-54.2502 L 634.925,-54.7639 L 634.304,-55.3235 L 633.812,-56
 L 633.472,-56.7639 L 633.298,-57.5819 L 633.298,-58.4181 L 633.472,-59.2361 L 633.812,-60 L 634.304,-60.6765
 L 634.925,-61.2361 L 635.649,-61.6542 L 636.444,-61.9126 L 637.276,-62 L 727,-62 L 728.236,-61.8042
 L 729,-61.4641 L 729.677,-60.9726 L 730.236,-60.3511 L 730.654,-59.627 L 730.913,-58.8316 L 731,-58
 L 731,-24.6827 L 730.875,-23.6899 L 730.584,-22.906 L 730.136,-22.1997 L 729.551,-21.602 L 728.855,-21.1388
 L 728.078,-20.8306 L 727.253,-20.6908 z
M 177.043,-20.7254 L 176.233,-20.9329 L 86.5087,-54.2502 L 85.55,-54.7639 L 84.9286,-55.3235 L 84.437,-56
 L 84.0969,-56.7639 L 83.923,-57.5819 L 83.923,-58.4181 L 84.0969,-59.2361 L 84.437,-60 L 84.9286,-60.6765
 L 85.55,-61.2361 L 86.2742,-61.6542 L 87.0695,-61.9126 L 87.9011,-62 L 177.625,-62 L 178.861,-61.8042
 L 179.625,-61.4641 L 180.302,-60.9726 L 180.861,-60.3511 L 181.279,-59.627 L 181.538,-58.8316 L 181.625,-58
 L 181.625,-24.6827 L 181.5,-23.6899 L 181.209,-22.906 L 180.761,-22.1997 L 180.176,-21.602 L 179.48,-21.1388
 L 178.703,-20.8306 L 177.878,-20.6908 z
M 751.922,-20.8306 L 751.145,-21.1388 L 750.449,-21.602 L 749.864,-22.1997 L 749.416,-22.906 L 749.125,-23.6899
 L 749,-24.6827 L 749,-58 L 749.087,-58.8316 L 749.346,-59.627 L 749.764,-60.3511 L 750.323,-60.9726
 L 751,-61.4641 L 751.764,-61.8042 L 753,-62 L 842.724,-62 L 843.556,-61.9126 L 844.351,-61.6542
 L 845.075,-61.2361 L 845.696,-60.6765 L 846.188,-60 L 846.528,-59.2361 L 846.702,-58.4181 L 846.702,-57.5819
 L 846.528,-56.7639 L 846.188,-56 L 845.696,-55.3235 L 845.075,-54.7639 L 844.116,-54.2502 L 754.392,-20.9329
 L 753.582,-20.7254 L 752.747,-20.6908 z
M 935.047,-20.8306 L 934.27,-21.1388 L 933.574,-21.602 L 932.989,-22.1997 L 932.541,-22.906 L 932.25,-23.6899
 L 932.125,-24.6827 L 932.125,-58 L 932.212,-58.8316 L 932.471,-59.627 L 932.889,-60.3511 L 933.448,-60.9726
 L 934.125,-61.4641 L 934.889,-61.8042 L 936.125,-62 L 1025.85,-62 L 1026.68,-61.9126 L 1027.48,-61.6542
 L 1028.2,-61.2361 L 1028.82,-60.6765 L 1029.31,-60 L 1029.65,-59.2361 L 1029.83,-58.4181 L 1029.83,-57.5819
 L 1029.65,-56.7639 L 1029.31,-56 L 1028.82,-55.3235 L 1028.2,-54.7639 L 1027.24,-54.2502 L 937.517,-20.9329
 L 936.707,-20.7254 L 935.872,-20.6908 z
M 1118.17,-20.8306 L 1117.4,-21.1388 L 1116.7,-21.602 L 1116.11,-22.1997 L 1115.67,-22.906 L 1115.38,-23.6899
 L 1115.25,-24.6827 L 1115.25,-58 L 1115.34,-58.8316 L 1115.6,-59.627 L 1116.01,-60.3511 L 1116.57,-60.9726
 L 1117.25,-61.4641 L 1118.01,-61.8042 L 1119.25,-62 L 1208.97,-62 L 1209.81,-61.9126 L 1210.6,-61.6542
 L 1211.32,-61.2361 L 1211.95,-60.6765 L 1212.44,-60 L 1212.78,-59.2361 L 1212.95,-58.4181 L 1212.95,-57.5819
 L 1212.78,-56.7639 L 1212.44,-56 L 1211.95,-55.3235 L 1211.32,-54.7639 L 1210.37,-54.2502 L 1120.64,-20.9329
 L 1119.83,-20.7254 L 1119,-20.6908 z
M 203.625,-18 L 202.389,-18.1958 L 201.625,-18.5359 L 200.948,-19.0274 L 200.389,-19.6489 L 199.971,-20.373
 L 199.712,-21.1684 L 199.625,-22 L 199.625,-55.3172 L 199.75,-56.3101 L 200.041,-57.094 L 200.489,-57.8003
 L 201.074,-58.398 L 201.77,-58.8611 L 202.547,-59.1694 L 203.372,-59.3092 L 204.207,-59.2746 L 205.017,-59.0671
 L 294.741,-25.7498 L 295.7,-25.2361 L 296.321,-24.6765 L 296.813,-24 L 297.153,-23.2361 L 297.327,-22.4181
 L 297.327,-21.5819 L 297.153,-20.7639 L 296.813,-20 L 296.321,-19.3235 L 295.7,-18.7639 L 294.976,-18.3458
 L 294.18,-18.0874 L 293.349,-18 z
M 386.75,-18 L 385.514,-18.1958 L 384.75,-18.5359 L 384.073,-19.0274 L 383.514,-19.6489 L 383.096,-20.373
 L 382.837,-21.1684 L 382.75,-22 L 382.75,-55.3172 L 382.875,-56.3101 L 383.166,-57.094 L 383.614,-57.8003
 L 384.199,-58.398 L 384.895,-58.8611 L 385.672,-59.1694 L 386.497,-59.3092 L 387.332,-59.2746 L 388.142,-59.0671
 L 477.866,-25.7498 L 478.825,-25.2361 L 479.446,-24.6765 L 479.938,-24 L 480.278,-23.2361 L 480.452,-22.4181
 L 480.452,-21.5819 L 480.278,-20.7639 L 479.938,-20 L 479.446,-19.3235 L 478.825,-18.7639 L 478.101,-18.3458
 L 477.305,-18.0874 L 476.474,-18 z
M 569.875,-18 L 568.639,-18.1958 L 567.875,-18.5359 L 567.198,-19.0274 L 566.639,-19.6489 L 566.221,-20.373
 L 565.962,-21.1684 L 565.875,-22 L 565.875,-55.3172 L 566,-56.3101 L 566.291,-57.094 L 566.739,-57.8003
 L 567.324,-58.398 L 568.02,-58.8611 L 568.797,-59.1694 L 569.622,-59.3092 L 570.457,-59.2746 L 571.267,-59.0671
 L 660.991,-25.7498 L 661.95,-25.2361 L 662.571,-24.6765 L 663.063,-24 L 663.403,-23.2361 L 663.577,-22.4181
 L 663.577,-21.5819 L 663.403,-20.7639 L 663.063,-20 L 662.571,-19.3235 L 661.95,-18.7639 L 661.226,-18.3458
 L 660.43,-18.0874 L 659.599,-18 z
M 820.401,-18 L 819.57,-18.0874 L 818.774,-18.3458 L 818.05,-18.7639 L 817.429,-19.3235 L 816.937,-20
 L 816.597,-20.7639 L 816.423,-21.5819 L 816.423,-22.4181 L 816.597,-23.2361 L 816.937,-24 L 817.429,-24.6765
 L 818.05,-25.2361 L 819.009,-25.7498 L 908.733,-59.0671 L 909.543,-59.2746 L 910.378,-59.3092 L 911.203,-59.1694
 L 911.98,-58.8611 L 912.676,-58.398 L 913.261,-57.8003 L 913.709,-57.094 L 914,-56.3101 L 914.125,-55.3172
 L 914.125,-22 L 914.038,-21.1684 L 913.779,-20.373 L 913.361,-19.6489 L 912.802,-19.0274 L 912.125,-18.5359
 L 911.361,-18.1958 L 910.125,-18 z
M 1003.53,-18 L 1002.69,-18.0874 L 1001.9,-18.3458 L 1001.18,-18.7639 L 1000.55,-19.3235 L 1000.06,-20
 L 999.722,-20.7639 L 999.548,-21.5819 L 999.548,-22.4181 L 999.722,-23.2361 L 1000.06,-24 L 1000.55,-24.6765
 L 1001.18,-25.2361 L 1002.13,-25.7498 L 1091.86,-59.0671 L 1092.67,-59.2746 L 1093.5,-59.3092 L 1094.33,-59.1694
 L 1095.1,-58.8611 L 1095.8,-58.398 L 1096.39,-57.8003 L 1096.83,-57.094 L 1097.12,-56.3101 L 1097.25,-55.3172
 L 1097.25,-22 L 1097.16,-21.1684 L 1096.9,-20.373 L 1096.49,-19.6489 L 1095.93,-19.0274 L 1095.25,-18.5359
 L 1094.49,-18.1958 L 1093.25,-18 z
M 1186.65,-18 L 1185.82,-18.0874 L 1185.02,-18.3458 L 1184.3,-18.7639 L 1183.68,-19.3235 L 1183.19,-20
 L 1182.85,-20.7639 L 1182.67,-21.5819 L 1182.67,-22.4181 L 1182.85,-23.2361 L 1183.19,-24 L 1183.68,-24.6765
 L 1184.3,-25.2361 L 1185.26,-25.7498 L 1274.98,-59.0671 L 1275.79,-59.2746 L 1276.63,-59.3092 L 1277.45,-59.1694
 L 1278.23,-58.8611 L 1278.93,-58.398 L 1279.51,-57.8003 L 1279.96,-57.094 L 1280.25,-56.3101 L 1280.38,-55.3172
 L 1280.38,-22 L 1280.29,-21.1684 L 1280.03,-20.373 L 1279.61,-19.6489 L 1279.05,-19.0274 L 1278.38,-18.5359
 L 1277.61,-18.1958 L 1276.38,-18 z
M 1369.78,-18 L 1368.94,-18.0874 L 1368.15,-18.3458 L 1367.43,-18.7639 L 1366.8,-19.3235 L 1366.31,-20
 L 1365.97,-20.7639 L 1365.8,-21.5819 L 1365.8,-22.4181 L 1365.97,-23.2361 L 1366.31,-24 L 1366.8,-24.6765
 L 1367.43,-25.2361 L 1368.38,-25.7498 L 1456.61,-58.5101 L 1457.42,-58.7176 L 1458.25,-58.7522 L 1459.08,-58.6124
 L 1459.85,-58.3041 L 1460.55,-57.841 L 1461.14,-57.2433 L 1461.58,-56.537 L 1461.87,-55.7531 L 1462,-54.7602
 L 1462,-22 L 1461.91,-21.1684 L 1461.65,-20.373 L 1461.24,-19.6489 L 1460.68,-19.0274 L 1460,-18.5359
 L 1459.24,-18.1958 L 1458,-18 z
M 22,-18 L 20.7639,-18.1958 L 20,-18.5359 L 19.3235,-19.0274 L 18.7639,-19.6489 L 18.3458,-20.373
 L 18.0874,-21.1684 L 18,-22 L 18,-54.7602 L 18.1252,-55.7531 L 18.4163,-56.537 L 18.864,-57.2433
 L 19.4488,-57.841 L 20.1451,-58.3041 L 20.9224,-58.6124 L 21.7469,-58.7522 L 22.5824,-58.7176 L 23.3924,-58.5101
 L 111.616,-25.7498 L 112.575,-25.2361 L 113.196,-24.6765 L 113.688,-24 L 114.028,-23.2361 L 114.202,-22.4181
 L 114.202,-21.5819 L 114.028,-20.7639 L 113.688,-20 L 113.196,-19.3235 L 112.575,-18.7639 L 111.851,-18.3458
 L 111.055,-18.0874 L 110.224,-18 z
" stroke="black" fill="lightgray" stroke-width="0.5"/>
</svg>
