<?xml version="1.0" standalone="no"?>
<!DOCTYPE svg PUBLIC "-//W3C//DTD SVG 1.1//EN" "http://www.w3.org/Graphics/SVG/1.1/DTD/svg11.dtd">
<svg width="1417mm" height="80mm" viewBox="0 -80 1417 80" xmlns="http://www.w3.org/2000/svg" version="1.1">
<title>OpenSCAD Model</title>
<path d="
M 1417,-80 L 0,-80 L 0,-0 L 4.95,-0 L 4.95,-6 L 5.00572,-6.53017
 L 5.17046,-7.03717 L 5.437,-7.49884 L 5.79372,-7.895 L 6.22499,-8.20836 L 6.71201,-8.42519 L 7.23344,-8.53603
 L 7.76654,-8.53603 L 8.28798,-8.42519 L 8.77499,-8.20836 L 9.20627,-7.895 L 9.56299,-7.49884 L 9.82953,-7.03717
 L 9.99426,-6.53017 L 10.05,-6 L 10.05,-0 L 180.2,-0 L 180.2,-6 L 180.256,-6.53017
 L 180.42,-7.03717 L 180.687,-7.49884 L 181.044,-7.895 L 181.475,-8.20836 L 181.962,-8.42519 L 182.483,-8.53603
 L 183.017,-8.53603 L 183.538,-8.42519 L 184.025,-8.20836 L 184.456,-7.895 L 184.813,-7.49884 L 185.08,-7.03717
 L 185.244,-6.53017 L 185.3,-6 L 185.3,-0 L 355.45,-0 L 355.45,-6 L 355.506,-6.53017
 L 355.67,-7.03717 L 355.937,-7.49884 L 356.294,-7.895 L 356.725,-8.20836 L 357.212,-8.42519 L 357.733,-8.53603
 L 358.267,-8.53603 L 358.788,-8.42519 L 359.275,-8.20836 L 359.706,-7.895 L 360.063,-7.49884 L 360.33,-7.03717
 L 360.494,-6.53017 L 360.55,-6 L 360.55,-0 L 530.7,-0 L 530.7,-6 L 530.756,-6.53017
 L 530.92,-7.03717 L 531.187,-7.49884 L 531.544,-7.895 L 531.975,-8.20836 L 532.462,-8.42519 L 532.983,-8.53603
 L 533.517,-8.53603 L 534.038,-8.42519 L 534.525,-8.20836 L 534.956,-7.895 L 535.313,-7.49884 L 535.58,-7.03717
 L 535.744,-6.53017 L 535.8,-6 L 535.8,-0 L 705.95,-0 L 705.95,-6 L 706.006,-6.53017
 L 706.17,-7.03717 L 706.437,-7.49884 L 706.794,-7.895 L 707.225,-8.20836 L 707.712,-8.42519 L 708.233,-8.53603
 L 708.767,-8.53603 L 709.288,-8.42519 L 709.775,-8.20836 L 710.206,-7.895 L 710.563,-7.49884 L 710.83,-7.03717
 L 710.994,-6.53017 L 711.05,-6 L 711.05,-0 L 881.2,-0 L 881.2,-6 L 881.256,-6.53017
 L 881.42,-7.03717 L 881.687,-7.49884 L 882.044,-7.895 L 882.475,-8.20836 L 882.962,-8.42519 L 883.483,-8.53603
 L 884.017,-8.53603 L 884.538,-8.42519 L 885.025,-8.20836 L 885.456,-7.895 L 885.813,-7.49884 L 886.08,-7.03717
 L 886.244,-6.53017 L 886.3,-6 L 886.3,-0 L 1056.45,-0 L 1056.45,-6 L 1056.51,-6.53017
 L 1056.67,-7.03717 L 1056.94,-7.49884 L 1057.29,-7.895 L 1057.72,-8.20836 L 1058.21,-8.42519 L 1058.73,-8.53603
 L 1059.27,-8.53603 L 1059.79,-8.42519 L 1060.27,-8.20836 L 1060.71,-7.895 L 1061.06,-7.49884 L 1061.33,-7.03717
 L 1061.49,-6.53017 L 1061.55,-6 L 1061.55,-0 L 1231.7,-0 L 1231.7,-6 L 1231.76,-6.53017
 L 1231.92,-7.03717 L 1232.19,-7.49884 L 1232.54,-7.895 L 1232.97,-8.20836 L 1233.46,-8.42519 L 1233.98,-8.53603
 L 1234.52,-8.53603 L 1235.04,-8.42519 L 1235.52,-8.20836 L 1235.96,-7.895 L 1236.31,-7.49884 L 1236.58,-7.03717
 L 1236.74,-6.53017 L 1236.8,-6 L 1236.8,-0 L 1406.95,-0 L 1406.95,-6 L 1407.01,-6.53017
 L 1407.17,-7.03717 L 1407.44,-7.49884 L 1407.79,-7.895 L 1408.22,-8.20836 L 1408.71,-8.42519 L 1409.23,-8.53603
 L 1409.77,-8.53603 L 1410.29,-8.42519 L 1410.77,-8.20836 L 1411.21,-7.895 L 1411.56,-7.49884 L 1411.83,-7.03717
 L 1411.99,-6.53017 L 1412.05,-6 L 1412.05,-0 L 1417,-0 z
M 182.236,-55.607 L 181.727,-55.6875 L 181.23,-55.8208 L 180.749,-56.0054 L 180.29,-56.2392 L 179.858,-56.5196
 L 179.458,-56.8437 L 179.094,-57.2079 L 178.77,-57.6081 L 178.489,-58.04 L 178.255,-58.4989 L 178.071,-58.9796
 L 177.938,-59.4771 L 177.857,-59.9857 L 177.83,-60.5 L 177.857,-61.0143 L 177.938,-61.5229 L 178.071,-62.0204
 L 178.255,-62.5011 L 178.489,-62.96 L 178.77,-63.3919 L 179.094,-63.7921 L 179.458,-64.1563 L 179.858,-64.4804
 L 180.2,-64.7024 L 180.2,-74 L 180.256,-74.5302 L 180.42,-75.0372 L 180.687,-75.4988 L 181.044,-75.895
 L 181.475,-76.2084 L 181.962,-76.4252 L 182.483,-76.536 L 183.017,-76.536 L 183.538,-76.4252 L 184.025,-76.2084
 L 184.456,-75.895 L 184.813,-75.4988 L 185.08,-75.0372 L 185.244,-74.5302 L 185.3,-74 L 185.3,-64.7024
 L 185.642,-64.4804 L 186.042,-64.1563 L 186.406,-63.7921 L 186.73,-63.3919 L 187.011,-62.96 L 187.245,-62.5011
 L 187.429,-62.0204 L 187.562,-61.5229 L 187.643,-61.0143 L 187.67,-60.5 L 187.643,-59.9857 L 187.562,-59.4771
 L 187.429,-58.9796 L 187.245,-58.4989 L 187.011,-58.04 L 186.73,-57.6081 L 186.406,-57.2079 L 186.042,-56.8437
 L 185.642,-56.5196 L 185.21,-56.2392 L 184.751,-56.0054 L 184.27,-55.8208 L 183.773,-55.6875 L 183.264,-55.607
 L 182.75,-55.58 z
M 1058.49,-55.607 L 1057.98,-55.6875 L 1057.48,-55.8208 L 1057,-56.0054 L 1056.54,-56.2392 L 1056.11,-56.5196
 L 1055.71,-56.8437 L 1055.34,-57.2079 L 1055.02,-57.6081 L 1054.74,-58.04 L 1054.51,-58.4989 L 1054.32,-58.9796
 L 1054.19,-59.4771 L 1054.11,-59.9857 L 1054.08,-60.5 L 1054.11,-61.0143 L 1054.19,-61.5229 L 1054.32,-62.0204
 L 1054.51,-62.5011 L 1054.74,-62.96 L 1055.02,-63.3919 L 1055.34,-63.7921 L 1055.71,-64.1563 L 1056.11,-64.4804
 L 1056.45,-64.7024 L 1056.45,-74 L 1056.51,-74.5302 L 1056.67,-75.0372 L 1056.94,-75.4988 L 1057.29,-75.895
 L 1057.73,-76.2084 L 1058.21,-76.4252 L 1058.73,-76.536 L 1059.27,-76.536 L 1059.79,-76.4252 L 1060.27,-76.2084
 L 1060.71,-75.895 L 1061.06,-75.4988 L 1061.33,-75.0372 L 1061.49,-74.5302 L 1061.55,-74 L 1061.55,-64.7024
 L 1061.89,-64.4804 L 1062.29,-64.1563 L 1062.66,-63.7921 L 1062.98,-63.3919 L 1063.26,-62.96 L 1063.49,-62.5011
 L 1063.68,-62.0204 L 1063.81,-61.5229 L 1063.89,-61.0143 L 1063.92,-60.5 L 1063.89,-59.9857 L 1063.81,-59.4771
 L 1063.68,-58.9796 L 1063.49,-58.4989 L 1063.26,-58.04 L 1062.98,-57.6081 L 1062.66,-57.2079 L 1062.29,-56.8437
 L 1061.89,-56.5196 L 1061.46,-56.2392 L 1061,-56.0054 L 1060.52,-55.8208 L 1060.02,-55.6875 L 1059.51,-55.607
 L 1059,-55.58 z
M 883.236,-55.607 L 882.727,-55.6875 L 882.23,-55.8208 L 881.749,-56.0054 L 881.29,-56.2392 L 880.858,-56.5196
 L 880.458,-56.8437 L 880.094,-57.2079 L 879.77,-57.6081 L 879.489,-58.04 L 879.255,-58.4989 L 879.071,-58.9796
 L 878.938,-59.4771 L 878.857,-59.9857 L 878.83,-60.5 L 878.857,-61.0143 L 878.938,-61.5229 L 879.071,-62.0204
 L 879.255,-62.5011 L 879.489,-62.96 L 879.77,-63.3919 L 880.094,-63.7921 L 880.458,-64.1563 L 880.858,-64.4804
 L 881.2,-64.7024 L 881.2,-74 L 881.256,-74.5302 L 881.42,-75.0372 L 881.687,-75.4988 L 882.044,-75.895
 L 882.475,-76.2084 L 882.962,-76.4252 L 883.483,-76.536 L 884.017,-76.536 L 884.538,-76.4252 L 885.025,-76.2084
 L 885.456,-75.895 L 885.813,-75.4988 L 886.08,-75.0372 L 886.244,-74.5302 L 886.3,-74 L 886.3,-64.7024
 L 886.642,-64.4804 L 887.042,-64.1563 L 887.406,-63.7921 L 887.73,-63.3919 L 888.011,-62.96 L 888.245,-62.5011
 L 888.429,-62.0204 L 888.562,-61.5229 L 888.643,-61.0143 L 888.67,-60.5 L 888.643,-59.9857 L 888.562,-59.4771
 L 888.429,-58.9796 L 888.245,-58.4989 L 888.011,-58.04 L 887.73,-57.6081 L 887.406,-57.2079 L 887.042,-56.8437
 L 886.642,-56.5196 L 886.21,-56.2392 L 885.751,-56.0054 L 885.27,-55.8208 L 884.773,-55.6875 L 884.264,-55.607
 L 883.75,-55.58 z
M 6.98573,-55.607 L 6.47708,-55.6875 L 5.97964,-55.8208 L 5.49887,-56.0054 L 5.04001,-56.2392 L 4.60811,-56.5196
 L 4.20789,-56.8437 L 3.84373,-57.2079 L 3.51964,-57.6081 L 3.23917,-58.04 L 3.00537,-58.4989 L 2.82082,-58.9796
 L 2.68752,-59.4771 L 2.60696,-59.9857 L 2.58,-60.5 L 2.60696,-61.0143 L 2.68752,-61.5229 L 2.82082,-62.0204
 L 3.00537,-62.5011 L 3.23917,-62.96 L 3.51964,-63.3919 L 3.84373,-63.7921 L 4.20789,-64.1563 L 4.60811,-64.4804
 L 4.95001,-64.7024 L 4.95001,-74 L 5.00574,-74.5302 L 5.17047,-75.0372 L 5.43701,-75.4988 L 5.79373,-75.895
 L 6.22501,-76.2084 L 6.71202,-76.4252 L 7.23346,-76.536 L 7.76654,-76.536 L 8.28798,-76.4252 L 8.77499,-76.2084
 L 9.20627,-75.895 L 9.56299,-75.4988 L 9.82953,-75.0372 L 9.99426,-74.5302 L 10.05,-74 L 10.05,-64.7024
 L 10.3919,-64.4804 L 10.7921,-64.1563 L 11.1563,-63.7921 L 11.4804,-63.3919 L 11.7608,-62.96 L 11.9946,-62.5011
 L 12.1792,-62.0204 L 12.3125,-61.5229 L 12.393,-61.0143 L 12.42,-60.5 L 12.393,-59.9857 L 12.3125,-59.4771
 L 12.1792,-58.9796 L 11.9946,-58.4989 L 11.7608,-58.04 L 11.4804,-57.6081 L 11.1563,-57.2079 L 10.7921,-56.8437
 L 10.3919,-56.5196 L 9.95999,-56.2392 L 9.50113,-56.0054 L 9.02036,-55.8208 L 8.52292,-55.6875 L 8.01427,-55.607
 L 7.5,-55.58 z
M 707.986,-55.607 L 707.477,-55.6875 L 706.98,-55.8208 L 706.499,-56.0054 L 706.04,-56.2392 L 705.608,-56.5196
 L 705.208,-56.8437 L 704.844,-57.2079 L 704.52,-57.6081 L 704.239,-58.04 L 704.005,-58.4989 L 703.821,-58.9796
 L 703.688,-59.4771 L 703.607,-59.9857 L 703.58,-60.5 L 703.607,-61.0143 L 703.688,-61.5229 L 703.821,-62.0204
 L 704.005,-62.5011 L 704.239,-62.96 L 704.52,-63.3919 L 704.844,-63.7921 L 705.208,-64.1563 L 705.608,-64.4804
 L 705.95,-64.7024 L 705.95,-74 L 706.006,-74.5302 L 706.17,-75.0372 L 706.437,-75.4988 L 706.794,-75.895
 L 707.225,-76.2084 L 707.712,-76.4252 L 708.233,-76.536 L 708.767,-76.536 L 709.288,-76.4252 L 709.775,-76.2084
 L 710.206,-75.895 L 710.563,-75.4988 L 710.83,-75.0372 L 710.994,-74.5302 L 711.05,-74 L 711.05,-64.7024
 L 711.392,-64.4804 L 711.792,-64.1563 L 712.156,-63.7921 L 712.48,-63.3919 L 712.761,-62.96 L 712.995,-62.5011
 L 713.179,-62.0204 L 713.312,-61.5229 L 713.393,-61.0143 L 713.42,-60.5 L 713.393,-59.9857 L 713.312,-59.4771
 L 713.179,-58.9796 L 712.995,-58.4989 L 712.761,-58.04 L 712.48,-57.6081 L 712.156,-57.2079 L 711.792,-56.8437
 L 711.392,-56.5196 L 710.96,-56.2392 L 710.501,-56.0054 L 710.02,-55.8208 L 709.523,-55.6875 L 709.014,-55.607
 L 708.5,-55.58 z
M 1233.74,-55.607 L 1233.23,-55.6875 L 1232.73,-55.8208 L 1232.25,-56.0054 L 1231.79,-56.2392 L 1231.36,-56.5196
 L 1230.96,-56.8437 L 1230.59,-57.2079 L 1230.27,-57.6081 L 1229.99,-58.04 L 1229.76,-58.4989 L 1229.57,-58.9796
 L 1229.44,-59.4771 L 1229.36,-59.9857 L 1229.33,-60.5 L 1229.36,-61.0143 L 1229.44,-61.5229 L 1229.57,-62.0204
 L 1229.76,-62.5011 L 1229.99,-62.96 L 1230.27,-63.3919 L 1230.59,-63.7921 L 1230.96,-64.1563 L 1231.36,-64.4804
 L 1231.7,-64.7024 L 1231.7,-74 L 1231.76,-74.5302 L 1231.92,-75.0372 L 1232.19,-75.4988 L 1232.54,-75.895
 L 1232.98,-76.2084 L 1233.46,-76.4252 L 1233.98,-76.536 L 1234.52,-76.536 L 1235.04,-76.4252 L 1235.52,-76.2084
 L 1235.96,-75.895 L 1236.31,-75.4988 L 1236.58,-75.0372 L 1236.74,-74.5302 L 1236.8,-74 L 1236.8,-64.7024
 L 1237.14,-64.4804 L 1237.54,-64.1563 L 1237.91,-63.7921 L 1238.23,-63.3919 L 1238.51,-62.96 L 1238.74,-62.5011
 L 1238.93,-62.0204 L 1239.06,-61.5229 L 1239.14,-61.0143 L 1239.17,-60.5 L 1239.14,-59.9857 L 1239.06,-59.4771
 L 1238.93,-58.9796 L 1238.74,-58.4989 L 1238.51,-58.04 L 1238.23,-57.6081 L 1237.91,-57.2079 L 1237.54,-56.8437
 L 1237.14,-56.5196 L 1236.71,-56.2392 L 1236.25,-56.0054 L 1235.77,-55.8208 L 1235.27,-55.6875 L 1234.76,-55.607
 L 1234.25,-55.58 z
M 532.736,-55.607 L 532.227,-55.6875 L 531.73,-55.8208 L 531.249,-56.0054 L 530.79,-56.2392 L 530.358,-56.5196
 L 529.958,-56.8437 L 529.594,-57.2079 L 529.27,-57.6081 L 528.989,-58.04 L 528.755,-58.4989 L 528.571,-58.9796
 L 528.438,-59.4771 L 528.357,-59.9857 L 528.33,-60.5 L 528.357,-61.0143 L 528.438,-61.5229 L 528.571,-62.0204
 L 528.755,-62.5011 L 528.989,-62.96 L 529.27,-63.3919 L 529.594,-63.7921 L 529.958,-64.1563 L 530.358,-64.4804
 L 530.7,-64.7024 L 530.7,-74 L 530.756,-74.5302 L 530.92,-75.0372 L 531.187,-75.4988 L 531.544,-75.895
 L 531.975,-76.2084 L 532.462,-76.4252 L 532.983,-76.536 L 533.517,-76.536 L 534.038,-76.4252 L 534.525,-76.2084
 L 534.956,-75.895 L 535.313,-75.4988 L 535.58,-75.0372 L 535.744,-74.5302 L 535.8,-74 L 535.8,-64.7024
 L 536.142,-64.4804 L 536.542,-64.1563 L 536.906,-63.7921 L 537.23,-63.3919 L 537.511,-62.96 L 537.745,-62.5011
 L 537.929,-62.0204 L 538.062,-61.5229 L 538.143,-61.0143 L 538.17,-60.5 L 538.143,-59.9857 L 538.062,-59.4771
 L 537.929,-58.9796 L 537.745,-58.4989 L 537.511,-58.04 L 537.23,-57.6081 L 536.906,-57.2079 L 536.542,-56.8437
 L 536.142,-56.5196 L 535.71,-56.2392 L 535.251,-56.0054 L 534.77,-55.8208 L 534.273,-55.6875 L 533.764,-55.607
 L 533.25,-55.58 z
M 357.486,-55.607 L 356.977,-55.6875 L 356.48,-55.8208 L 355.999,-56.0054 L 355.54,-56.2392 L 355.108,-56.5196
 L 354.708,-56.8437 L 354.344,-57.2079 L 354.02,-57.6081 L 353.739,-58.04 L 353.505,-58.4989 L 353.321,-58.9796
 L 353.188,-59.4771 L 353.107,-59.9857 L 353.08,-60.5 L 353.107,-61.0143 L 353.188,-61.5229 L 353.321,-62.0204
 L 353.505,-62.5011 L 353.739,-62.96 L 354.02,-63.3919 L 354.344,-63.7921 L 354.708,-64.1563 L 355.108,-64.4804
 L 355.45,-64.7024 L 355.45,-74 L 355.506,-74.5302 L 355.67,-75.0372 L 355.937,-75.4988 L 356.294,-75.895
 L 356.725,-76.2084 L 357.212,-76.4252 L 357.733,-76.536 L 358.267,-76.536 L 358.788,-76.4252 L 359.275,-76.2084
 L 359.706,-75.895 L 360.063,-75.4988 L 360.33,-75.0372 L 360.494,-74.5302 L 360.55,-74 L 360.55,-64.7024
 L 360.892,-64.4804 L 361.292,-64.1563 L 361.656,-63.7921 L 361.98,-63.3919 L 362.261,-62.96 L 362.495,-62.5011
 L 362.679,-62.0204 L 362.812,-61.5229 L 362.893,-61.0143 L 362.92,-60.5 L 362.893,-59.9857 L 362.812,-59.4771
 L 362.679,-58.9796 L 362.495,-58.4989 L 362.261,-58.04 L 361.98,-57.6081 L 361.656,-57.2079 L 361.292,-56.8437
 L 360.892,-56.5196 L 360.46,-56.2392 L 360.001,-56.0054 L 359.52,-55.8208 L 359.023,-55.6875 L 358.514,-55.607
 L 358,-55.58 z
M 1408.99,-55.607 L 1408.48,-55.6875 L 1407.98,-55.8208 L 1407.5,-56.0054 L 1407.04,-56.2392 L 1406.61,-56.5196
 L 1406.21,-56.8437 L 1405.84,-57.2079 L 1405.52,-57.6081 L 1405.24,-58.04 L 1405.01,-58.4989 L 1404.82,-58.9796
 L 1404.69,-59.4771 L 1404.61,-59.9857 L 1404.58,-60.5 L 1404.61,-61.0143 L 1404.69,-61.5229 L 1404.82,-62.0204
 L 1405.01,-62.5011 L 1405.24,-62.96 L 1405.52,-63.3919 L 1405.84,-63.7921 L 1406.21,-64.1563 L 1406.61,-64.4804
 L 1406.95,-64.7024 L 1406.95,-74 L 1407.01,-74.5302 L 1407.17,-75.0372 L 1407.44,-75.4988 L 1407.79,-75.895
 L 1408.23,-76.2084 L 1408.71,-76.4252 L 1409.23,-76.536 L 1409.77,-76.536 L 1410.29,-76.4252 L 1410.77,-76.2084
 L 1411.21,-75.895 L 1411.56,-75.4988 L 1411.83,-75.0372 L 1411.99,-74.5302 L 1412.05,-74 L 1412.05,-64.7024
 L 1412.39,-64.4804 L 1412.79,-64.1563 L 1413.16,-63.7921 L 1413.48,-63.3919 L 1413.76,-62.96 L 1413.99,-62.5011
 L 1414.18,-62.0204 L 1414.31,-61.5229 L 1414.39,-61.0143 L 1414.42,-60.5 L 1414.39,-59.9857 L 1414.31,-59.4771
 L 1414.18,-58.9796 L 1413.99,-58.4989 L 1413.76,-58.04 L 1413.48,-57.6081 L 1413.16,-57.2079 L 1412.79,-56.8437
 L 1412.39,-56.5196 L 1411.96,-56.2392 L 1411.5,-56.0054 L 1411.02,-55.8208 L 1410.52,-55.6875 L 1410.01,-55.607
 L 1409.5,-55.58 z
M 344.36,-21.0235 L 343.553,-21.2429 L 258.433,-54.2709 L 257.529,-54.7639 L 256.907,-55.3235 L 256.416,-56
 L 256.076,-56.7639 L 255.902,-57.5819 L 255.902,-58.4181 L 256.076,-59.2361 L 256.416,-60 L 256.907,-60.6765
 L 257.529,-61.2361 L 258.253,-61.6542 L 259.048,-61.9126 L 259.88,-62 L 345,-62 L 346.236,-61.8042
 L 347,-61.4641 L 347.677,-60.9726 L 348.236,-60.3511 L 348.654,-59.627 L 348.913,-58.8316 L 349,-58
 L 349,-24.972 L 348.86,-23.9227 L 348.557,-23.1431 L 348.099,-22.4435 L 347.506,-21.8543 L 346.803,-21.4014
 L 346.021,-21.1046 L 345.195,-20.9767 z
M 519.61,-21.0235 L 518.803,-21.2429 L 433.683,-54.2709 L 432.779,-54.7639 L 432.157,-55.3235 L 431.666,-56
 L 431.326,-56.7639 L 431.152,-57.5819 L 431.152,-58.4181 L 431.326,-59.2361 L 431.666,-60 L 432.157,-60.6765
 L 432.779,-61.2361 L 433.503,-61.6542 L 434.298,-61.9126 L 435.13,-62 L 520.25,-62 L 521.486,-61.8042
 L 522.25,-61.4641 L 522.927,-60.9726 L 523.486,-60.3511 L 523.904,-59.627 L 524.163,-58.8316 L 524.25,-58
 L 524.25,-24.972 L 524.11,-23.9227 L 523.807,-23.1431 L 523.349,-22.4435 L 522.756,-21.8543 L 522.053,-21.4014
 L 521.271,-21.1046 L 520.445,-20.9767 z
M 1246.23,-21.1046 L 1245.45,-21.4014 L 1244.74,-21.8543 L 1244.15,-22.4435 L 1243.69,-23.1431 L 1243.39,-23.9227
 L 1243.25,-24.972 L 1243.25,-58 L 1243.34,-58.8316 L 1243.6,-59.627 L 1244.01,-60.3511 L 1244.57,-60.9726
 L 1245.25,-61.4641 L 1246.01,-61.8042 L 1247.25,-62 L 1332.37,-62 L 1333.2,-61.9126 L 1334,-61.6542
 L 1334.72,-61.2361 L 1335.34,-60.6765 L 1335.83,-60 L 1336.17,-59.2361 L 1336.35,-58.4181 L 1336.35,-57.5819
 L 1336.17,-56.7639 L 1335.83,-56 L 1335.34,-55.3235 L 1334.72,-54.7639 L 1333.82,-54.2709 L 1248.7,-21.2429
 L 1247.89,-21.0235 L 1247.06,-20.9767 z
M 694.86,-21.0235 L 694.053,-21.2429 L 608.933,-54.2709 L 608.029,-54.7639 L 607.407,-55.3235 L 606.916,-56
 L 606.576,-56.7639 L 606.402,-57.5819 L 606.402,-58.4181 L 606.576,-59.2361 L 606.916,-60 L 607.407,-60.6765
 L 608.029,-61.2361 L 608.753,-61.6542 L 609.548,-61.9126 L 610.38,-62 L 695.5,-62 L 696.736,-61.8042
 L 697.5,-61.4641 L 698.177,-60.9726 L 698.736,-60.3511 L 699.154,-59.627 L 699.413,-58.8316 L 699.5,-58
 L 699.5,-24.972 L 699.36,-23.9227 L 699.057,-23.1431 L 698.599,-22.4435 L 698.006,-21.8543 L 697.303,-21.4014
 L 696.521,-21.1046 L 695.695,-20.9767 z
M 169.11,-21.0235 L 168.303,-21.2429 L 83.183,-54.2709 L 82.2788,-54.7639 L 81.6574,-55.3235 L 81.1659,-56
 L 80.8257,-56.7639 L 80.6519,-57.5819 L 80.6519,-58.4181 L 80.8257,-59.2361 L 81.1659,-60 L 81.6574,-60.6765
 L 82.2788,-61.2361 L 83.003,-61.6542 L 83.7983,-61.9126 L 84.63,-62 L 169.75,-62 L 170.986,-61.8042
 L 171.75,-61.4641 L 172.427,-60.9726 L 172.986,-60.3511 L 173.404,-59.627 L 173.663,-58.8316 L 173.75,-58
 L 173.75,-24.972 L 173.61,-23.9227 L 173.307,-23.1431 L 172.849,-22.4435 L 172.256,-21.8543 L 171.553,-21.4014
 L 170.771,-21.1046 L 169.945,-20.9767 z
M 720.479,-21.1046 L 719.697,-21.4014 L 718.994,-21.8543 L 718.401,-22.4435 L 717.943,-23.1431 L 717.64,-23.9227
 L 717.5,-24.972 L 717.5,-58 L 717.587,-58.8316 L 717.846,-59.627 L 718.264,-60.3511 L 718.823,-60.9726
 L 719.5,-61.4641 L 720.264,-61.8042 L 721.5,-62 L 806.62,-62 L 807.452,-61.9126 L 808.247,-61.6542
 L 808.971,-61.2361 L 809.593,-60.6765 L 810.084,-60 L 810.424,-59.2361 L 810.598,-58.4181 L 810.598,-57.5819
 L 810.424,-56.7639 L 810.084,-56 L 809.593,-55.3235 L 808.971,-54.7639 L 808.067,-54.2709 L 722.947,-21.2429
 L 722.14,-21.0235 L 721.305,-20.9767 z
M 895.729,-21.1046 L 894.947,-21.4014 L 894.244,-21.8543 L 893.651,-22.4435 L 893.193,-23.1431 L 892.89,-23.9227
 L 892.75,-24.972 L 892.75,-58 L 892.837,-58.8316 L 893.096,-59.627 L 893.514,-60.3511 L 894.073,-60.9726
 L 894.75,-61.4641 L 895.514,-61.8042 L 896.75,-62 L 981.87,-62 L 982.702,-61.9126 L 983.497,-61.6542
 L 984.221,-61.2361 L 984.843,-60.6765 L 985.334,-60 L 985.674,-59.2361 L 985.848,-58.4181 L 985.848,-57.5819
 L 985.674,-56.7639 L 985.334,-56 L 984.843,-55.3235 L 984.221,-54.7639 L 983.317,-54.2709 L 898.197,-21.2429
 L 897.39,-21.0235 L 896.555,-20.9767 z
M 1070.98,-21.1046 L 1070.2,-21.4014 L 1069.49,-21.8543 L 1068.9,-22.4435 L 1068.44,-23.1431 L 1068.14,-23.9227
 L 1068,-24.972 L 1068,-58 L 1068.09,-58.8316 L 1068.35,-59.627 L 1068.76,-60.3511 L 1069.32,-60.9726
 L 1070,-61.4641 L 1070.76,-61.8042 L 1072,-62 L 1157.12,-62 L 1157.95,-61.9126 L 1158.75,-61.6542
 L 1159.47,-61.2361 L 1160.09,-60.6765 L 1160.58,-60 L 1160.92,-59.2361 L 1161.1,-58.4181 L 1161.1,-57.5819
 L 1160.92,-56.7639 L 1160.58,-56 L 1160.09,-55.3235 L 1159.47,-54.7639 L 1158.57,-54.2709 L 1073.45,-21.2429
 L 1072.64,-21.0235 L 1071.81,-20.9767 z
M 195.75,-18 L 194.514,-18.1958 L 193.75,-18.5359 L 193.073,-19.0274 L 192.514,-19.6489 L 192.096,-20.373
 L 191.837,-21.1684 L 191.75,-22 L 191.75,-55.028 L 191.89,-56.0773 L 192.193,-56.8568 L 192.651,-57.5565
 L 193.244,-58.1457 L 193.947,-58.5986 L 194.729,-58.8954 L 195.555,-59.0233 L 196.39,-58.9765 L 197.197,-58.7571
 L 282.317,-25.7291 L 283.221,-25.2361 L 283.843,-24.6765 L 284.334,-24 L 284.674,-23.2361 L 284.848,-22.4181
 L 284.848,-21.5819 L 284.674,-20.7639 L 284.334,-20 L 283.843,-19.3235 L 283.221,-18.7639 L 282.497,-18.3458
 L 281.702,-18.0874 L 280.87,-18 z
M 371,-18 L 369.764,-18.1958 L 369,-18.5359 L 368.323,-19.0274 L 367.764,-19.6489 L 367.346,-20.373
 L 367.087,-21.1684 L 367,-22 L 367,-55.028 L 367.14,-56.0773 L 367.443,-56.8568 L 367.901,-57.5565
 L 368.494,-58.1457 L 369.197,-58.5986 L 369.979,-58.8954 L 370.805,-59.0233 L 371.64,-58.9765 L 372.447,-58.7571
 L 457.567,-25.7291 L 458.471,-25.2361 L 459.093,-24.6765 L 459.584,-24 L 459.924,-23.2361 L 460.098,-22.4181
 L 460.098,-21.5819 L 459.924,-20.7639 L 459.584,-20 L 459.093,-19.3235 L 458.471,-18.7639 L 457.747,-18.3458
 L 456.952,-18.0874 L 456.12,-18 z
M 546.25,-18 L 545.014,-18.1958 L 544.25,-18.5359 L 543.573,-19.0274 L 543.014,-19.6489 L 542.596,-20.373
 L 542.337,-21.1684 L 542.25,-22 L 542.25,-55.028 L 542.39,-56.0773 L 542.693,-56.8568 L 543.151,-57.5565
 L 543.744,-58.1457 L 544.447,-58.5986 L 545.229,-58.8954 L 546.055,-59.0233 L 546.89,-58.9765 L 547.697,-58.7571
 L 632.817,-25.7291 L 633.721,-25.2361 L 634.343,-24.6765 L 634.834,-24 L 635.174,-23.2361 L 635.348,-22.4181
 L 635.348,-21.5819 L 635.174,-20.7639 L 634.834,-20 L 634.343,-19.3235 L 633.721,-18.7639 L 632.997,-18.3458
 L 632.202,-18.0874 L 631.37,-18 z
M 785.63,-18 L 784.798,-18.0874 L 784.003,-18.3458 L 783.279,-18.7639 L 782.657,-19.3235 L 782.166,-20
 L 781.826,-20.7639 L 781.652,-21.5819 L 781.652,-22.4181 L 781.826,-23.2361 L 782.166,-24 L 782.657,-24.6765
 L 783.279,-25.2361 L 784.183,-25.7291 L 869.303,-58.7571 L 870.11,-58.9765 L 870.945,-59.0233 L 871.771,-58.8954
 L 872.553,-58.5986 L 873.256,-58.1457 L 873.849,-57.5565 L 874.307,-56.8568 L 874.61,-56.0773 L 874.75,-55.028
 L 874.75,-22 L 874.663,-21.1684 L 874.404,-20.373 L 873.986,-19.6489 L 873.427,-19.0274 L 872.75,-18.5359
 L 871.986,-18.1958 L 870.75,-18 z
M 960.88,-18 L 960.048,-18.0874 L 959.253,-18.3458 L 958.529,-18.7639 L 957.907,-19.3235 L 957.416,-20
 L 957.076,-20.7639 L 956.902,-21.5819 L 956.902,-22.4181 L 957.076,-23.2361 L 957.416,-24 L 957.907,-24.6765
 L 958.529,-25.2361 L 959.433,-25.7291 L 1044.55,-58.7571 L 1045.36,-58.9765 L 1046.19,-59.0233 L 1047.02,-58.8954
 L 1047.8,-58.5986 L 1048.51,-58.1457 L 1049.1,-57.5565 L 1049.56,-56.8568 L 1049.86,-56.0773 L 1050,-55.028
 L 1050,-22 L 1049.91,-21.1684 L 1049.65,-20.373 L 1049.24,-19.6489 L 1048.68,-19.0274 L 1048,-18.5359
 L 1047.24,-18.1958 L 1046,-18 z
M 1136.13,-18 L 1135.3,-18.0874 L 1134.5,-18.3458 L 1133.78,-18.7639 L 1133.16,-19.3235 L 1132.67,-20
 L 1132.33,-20.7639 L 1132.15,-21.5819 L 1132.15,-22.4181 L 1132.33,-23.2361 L 1132.67,-24 L 1133.16,-24.6765
 L 1133.78,-25.2361 L 1134.68,-25.7291 L 1219.8,-58.7571 L 1220.61,-58.9765 L 1221.44,-59.0233 L 1222.27,-58.8954
 L 1223.05,-58.5986 L 1223.76,-58.1457 L 1224.35,-57.5565 L 1224.81,-56.8568 L 1225.11,-56.0773 L 1225.25,-55.028
 L 1225.25,-22 L 1225.16,-21.1684 L 1224.9,-20.373 L 1224.49,-19.6489 L 1223.93,-19.0274 L 1223.25,-18.5359
 L 1222.49,-18.1958 L 1221.25,-18 z
M 1311.38,-18 L 1310.55,-18.0874 L 1309.75,-18.3458 L 1309.03,-18.7639 L 1308.41,-19.3235 L 1307.92,-20
 L 1307.58,-20.7639 L 1307.4,-21.5819 L 1307.4,-22.4181 L 1307.58,-23.2361 L 1307.92,-24 L 1308.41,-24.6765
 L 1309.03,-25.2361 L 1309.93,-25.7291 L 1393.55,-58.1751 L 1394.36,-58.3945 L 1395.19,-58.4412 L 1396.02,-58.3134
 L 1396.8,-58.0166 L 1397.51,-57.5636 L 1398.1,-56.9745 L 1398.56,-56.2748 L 1398.86,-55.4952 L 1399,-54.446
 L 1399,-22 L 1398.91,-21.1684 L 1398.65,-20.373 L 1398.24,-19.6489 L 1397.68,-19.0274 L 1397,-18.5359
 L 1396.24,-18.1958 L 1395,-18 z
M 22,-18 L 20.7639,-18.1958 L 20,-18.5359 L 19.3235,-19.0274 L 18.7639,-19.6489 L 18.3458,-20.373
 L 18.0874,-21.1684 L 18,-22 L 18,-54.446 L 18.1401,-55.4952 L 18.4426,-56.2748 L 18.9005,-56.9745
 L 19.494,-57.5636 L 20.1969,-58.0166 L 20.9787,-58.3134 L 21.8051,-58.4412 L 22.64,-58.3945 L 23.447,-58.1751
 L 107.067,-25.7291 L 107.971,-25.2361 L 108.593,-24.6765 L 109.084,-24 L 109.424,-23.2361 L 109.598,-22.4181
 L 109.598,-21.5819 L 109.424,-20.7639 L 109.084,-20 L 108.593,-19.3235 L 107.971,-18.7639 L 107.247,-18.3458
 L 106.452,-18.0874 L 105.62,-18 z
" stroke="black" fill="lightgray" stroke-width="0.5"/>
</svg>
