<?xml version="1.0" standalone="no"?>
<!DOCTYPE svg PUBLIC "-//W3C//DTD SVG 1.1//EN" "http://www.w3.org/Graphics/SVG/1.1/DTD/svg11.dtd">
<svg width="1024mm" height="80mm" viewBox="0 -80 1024 80" xmlns="http://www.w3.org/2000/svg" version="1.1">
<title>OpenSCAD Model</title>
<path d="
M 1024,-80 L 0,-80 L 0,-0 L 4.95,-0 L 4.95,-6 L 5.00572,-6.53017
 L 5.17046,-7.03717 L 5.437,-7.49884 L 5.79372,-7.895 L 6.22499,-8.20836 L 6.71201,-8.42519 L 7.23344,-8.53603
 L 7.76654,-8.53603 L 8.28798,-8.42519 L 8.77499,-8.20836 L 9.20627,-7.895 L 9.56299,-7.49884 L 9.82953,-7.03717
 L 9.99426,-6.53017 L 10.05,-6 L 10.05,-0 L 173.117,-0 L 173.117,-6 L 173.172,-6.53017
 L 173.337,-7.03717 L 173.604,-7.49884 L 173.96,-7.895 L 174.392,-8.20836 L 174.879,-8.42519 L 175.4,-8.53603
 L 175.933,-8.53603 L 176.455,-8.42519 L 176.942,-8.20836 L 177.373,-7.895 L 177.73,-7.49884 L 177.996,-7.03717
 L 178.161,-6.53017 L 178.217,-6 L 178.217,-0 L 341.283,-0 L 341.283,-6 L 341.339,-6.53017
 L 341.504,-7.03717 L 341.77,-7.49884 L 342.127,-7.895 L 342.558,-8.20836 L 343.045,-8.42519 L 343.567,-8.53603
 L 344.1,-8.53603 L 344.621,-8.42519 L 345.108,-8.20836 L 345.54,-7.895 L 345.896,-7.49884 L 346.163,-7.03717
 L 346.328,-6.53017 L 346.383,-6 L 346.383,-0 L 509.45,-0 L 509.45,-6 L 509.506,-6.53017
 L 509.67,-7.03717 L 509.937,-7.49884 L 510.294,-7.895 L 510.725,-8.20836 L 511.212,-8.42519 L 511.733,-8.53603
 L 512.267,-8.53603 L 512.788,-8.42519 L 513.275,-8.20836 L 513.706,-7.895 L 514.063,-7.49884 L 514.33,-7.03717
 L 514.494,-6.53017 L 514.55,-6 L 514.55,-0 L 677.617,-0 L 677.617,-6 L 677.672,-6.53017
 L 677.837,-7.03717 L 678.104,-7.49884 L 678.46,-7.895 L 678.892,-8.20836 L 679.379,-8.42519 L 679.9,-8.53603
 L 680.433,-8.53603 L 680.955,-8.42519 L 681.442,-8.20836 L 681.873,-7.895 L 682.23,-7.49884 L 682.496,-7.03717
 L 682.661,-6.53017 L 682.717,-6 L 682.717,-0 L 845.783,-0 L 845.783,-6 L 845.839,-6.53017
 L 846.004,-7.03717 L 846.27,-7.49884 L 846.627,-7.895 L 847.058,-8.20836 L 847.545,-8.42519 L 848.067,-8.53603
 L 848.6,-8.53603 L 849.121,-8.42519 L 849.608,-8.20836 L 850.04,-7.895 L 850.396,-7.49884 L 850.663,-7.03717
 L 850.828,-6.53017 L 850.883,-6 L 850.883,-0 L 1013.95,-0 L 1013.95,-6 L 1014.01,-6.53017
 L 1014.17,-7.03717 L 1014.44,-7.49884 L 1014.79,-7.895 L 1015.22,-8.20836 L 1015.71,-8.42519 L 1016.23,-8.53603
 L 1016.77,-8.53603 L 1017.29,-8.42519 L 1017.77,-8.20836 L 1018.21,-7.895 L 1018.56,-7.49884 L 1018.83,-7.03717
 L 1018.99,-6.53017 L 1019.05,-6 L 1019.05,-0 L 1024,-0 z
M 6.98573,-55.607 L 6.47708,-55.6875 L 5.97964,-55.8208 L 5.49887,-56.0054 L 5.04001,-56.2392 L 4.60811,-56.5196
 L 4.20789,-56.8437 L 3.84373,-57.2079 L 3.51964,-57.6081 L 3.23917,-58.04 L 3.00537,-58.4989 L 2.82082,-58.9796
 L 2.68752,-59.4771 L 2.60696,-59.9857 L 2.58,-60.5 L 2.60696,-61.0143 L 2.68752,-61.5229 L 2.82082,-62.0204
 L 3.00537,-62.5011 L 3.23917,-62.96 L 3.51964,-63.3919 L 3.84373,-63.7921 L 4.20789,-64.1563 L 4.60811,-64.4804
 L 4.95001,-64.7024 L 4.95001,-74 L 5.00574,-74.5302 L 5.17047,-75.0372 L 5.43701,-75.4988 L 5.79373,-75.895
 L 6.22501,-76.2084 L 6.71202,-76.4252 L 7.23346,-76.536 L 7.76654,-76.536 L 8.28798,-76.4252 L 8.77499,-76.2084
 L 9.20627,-75.895 L 9.56299,-75.4988 L 9.82953,-75.0372 L 9.99426,-74.5302 L 10.05,-74 L 10.05,-64.7024
 L 10.3919,-64.4804 L 10.7921,-64.1563 L 11.1563,-63.7921 L 11.4804,-63.3919 L 11.7608,-62.96 L 11.9946,-62.5011
 L 12.1792,-62.0204 L 12.3125,-61.5229 L 12.393,-61.0143 L 12.42,-60.5 L 12.393,-59.9857 L 12.3125,-59.4771
 L 12.1792,-58.9796 L 11.9946,-58.4989 L 11.7608,-58.04 L 11.4804,-57.6081 L 11.1563,-57.2079 L 10.7921,-56.8437
 L 10.3919,-56.5196 L 9.95999,-56.2392 L 9.50113,-56.0054 L 9.02036,-55.8208 L 8.52292,-55.6875 L 8.01427,-55.607
 L 7.5,-55.58 z
M 175.152,-55.607 L 174.644,-55.6875 L 174.146,-55.8208 L 173.666,-56.0054 L 173.207,-56.2392 L 172.775,-56.5196
 L 172.375,-56.8437 L 172.01,-57.2079 L 171.686,-57.6081 L 171.406,-58.04 L 171.172,-58.4989 L 170.987,-58.9796
 L 170.854,-59.4771 L 170.774,-59.9857 L 170.747,-60.5 L 170.774,-61.0143 L 170.854,-61.5229 L 170.987,-62.0204
 L 171.172,-62.5011 L 171.406,-62.96 L 171.686,-63.3919 L 172.01,-63.7921 L 172.375,-64.1563 L 172.775,-64.4804
 L 173.117,-64.7024 L 173.117,-74 L 173.172,-74.5302 L 173.337,-75.0372 L 173.604,-75.4988 L 173.96,-75.895
 L 174.392,-76.2084 L 174.879,-76.4252 L 175.4,-76.536 L 175.933,-76.536 L 176.455,-76.4252 L 176.942,-76.2084
 L 177.373,-75.895 L 177.73,-75.4988 L 177.996,-75.0372 L 178.161,-74.5302 L 178.217,-74 L 178.217,-64.7024
 L 178.559,-64.4804 L 178.959,-64.1563 L 179.323,-63.7921 L 179.647,-63.3919 L 179.927,-62.96 L 180.161,-62.5011
 L 180.346,-62.0204 L 180.479,-61.5229 L 180.56,-61.0143 L 180.587,-60.5 L 180.56,-59.9857 L 180.479,-59.4771
 L 180.346,-58.9796 L 180.161,-58.4989 L 179.927,-58.04 L 179.647,-57.6081 L 179.323,-57.2079 L 178.959,-56.8437
 L 178.559,-56.5196 L 178.127,-56.2392 L 177.668,-56.0054 L 177.187,-55.8208 L 176.69,-55.6875 L 176.181,-55.607
 L 175.667,-55.58 z
M 343.319,-55.607 L 342.81,-55.6875 L 342.313,-55.8208 L 341.832,-56.0054 L 341.373,-56.2392 L 340.941,-56.5196
 L 340.541,-56.8437 L 340.177,-57.2079 L 339.853,-57.6081 L 339.572,-58.04 L 339.339,-58.4989 L 339.154,-58.9796
 L 339.021,-59.4771 L 338.94,-59.9857 L 338.913,-60.5 L 338.94,-61.0143 L 339.021,-61.5229 L 339.154,-62.0204
 L 339.339,-62.5011 L 339.572,-62.96 L 339.853,-63.3919 L 340.177,-63.7921 L 340.541,-64.1563 L 340.941,-64.4804
 L 341.283,-64.7024 L 341.283,-74 L 341.339,-74.5302 L 341.504,-75.0372 L 341.77,-75.4988 L 342.127,-75.895
 L 342.558,-76.2084 L 343.045,-76.4252 L 343.567,-76.536 L 344.1,-76.536 L 344.621,-76.4252 L 345.108,-76.2084
 L 345.54,-75.895 L 345.896,-75.4988 L 346.163,-75.0372 L 346.328,-74.5302 L 346.383,-74 L 346.383,-64.7024
 L 346.725,-64.4804 L 347.125,-64.1563 L 347.49,-63.7921 L 347.814,-63.3919 L 348.094,-62.96 L 348.328,-62.5011
 L 348.513,-62.0204 L 348.646,-61.5229 L 348.726,-61.0143 L 348.753,-60.5 L 348.726,-59.9857 L 348.646,-59.4771
 L 348.513,-58.9796 L 348.328,-58.4989 L 348.094,-58.04 L 347.814,-57.6081 L 347.49,-57.2079 L 347.125,-56.8437
 L 346.725,-56.5196 L 346.293,-56.2392 L 345.834,-56.0054 L 345.354,-55.8208 L 344.856,-55.6875 L 344.348,-55.607
 L 343.833,-55.58 z
M 511.486,-55.607 L 510.977,-55.6875 L 510.48,-55.8208 L 509.999,-56.0054 L 509.54,-56.2392 L 509.108,-56.5196
 L 508.708,-56.8437 L 508.344,-57.2079 L 508.02,-57.6081 L 507.739,-58.04 L 507.505,-58.4989 L 507.321,-58.9796
 L 507.188,-59.4771 L 507.107,-59.9857 L 507.08,-60.5 L 507.107,-61.0143 L 507.188,-61.5229 L 507.321,-62.0204
 L 507.505,-62.5011 L 507.739,-62.96 L 508.02,-63.3919 L 508.344,-63.7921 L 508.708,-64.1563 L 509.108,-64.4804
 L 509.45,-64.7024 L 509.45,-74 L 509.506,-74.5302 L 509.67,-75.0372 L 509.937,-75.4988 L 510.294,-75.895
 L 510.725,-76.2084 L 511.212,-76.4252 L 511.733,-76.536 L 512.267,-76.536 L 512.788,-76.4252 L 513.275,-76.2084
 L 513.706,-75.895 L 514.063,-75.4988 L 514.33,-75.0372 L 514.494,-74.5302 L 514.55,-74 L 514.55,-64.7024
 L 514.892,-64.4804 L 515.292,-64.1563 L 515.656,-63.7921 L 515.98,-63.3919 L 516.261,-62.96 L 516.495,-62.5011
 L 516.679,-62.0204 L 516.812,-61.5229 L 516.893,-61.0143 L 516.92,-60.5 L 516.893,-59.9857 L 516.812,-59.4771
 L 516.679,-58.9796 L 516.495,-58.4989 L 516.261,-58.04 L 515.98,-57.6081 L 515.656,-57.2079 L 515.292,-56.8437
 L 514.892,-56.5196 L 514.46,-56.2392 L 514.001,-56.0054 L 513.52,-55.8208 L 513.023,-55.6875 L 512.514,-55.607
 L 512,-55.58 z
M 679.652,-55.607 L 679.144,-55.6875 L 678.646,-55.8208 L 678.166,-56.0054 L 677.707,-56.2392 L 677.275,-56.5196
 L 676.875,-56.8437 L 676.51,-57.2079 L 676.186,-57.6081 L 675.906,-58.04 L 675.672,-58.4989 L 675.487,-58.9796
 L 675.354,-59.4771 L 675.274,-59.9857 L 675.247,-60.5 L 675.274,-61.0143 L 675.354,-61.5229 L 675.487,-62.0204
 L 675.672,-62.5011 L 675.906,-62.96 L 676.186,-63.3919 L 676.51,-63.7921 L 676.875,-64.1563 L 677.275,-64.4804
 L 677.617,-64.7024 L 677.617,-74 L 677.672,-74.5302 L 677.837,-75.0372 L 678.104,-75.4988 L 678.46,-75.895
 L 678.892,-76.2084 L 679.379,-76.4252 L 679.9,-76.536 L 680.433,-76.536 L 680.955,-76.4252 L 681.442,-76.2084
 L 681.873,-75.895 L 682.23,-75.4988 L 682.496,-75.0372 L 682.661,-74.5302 L 682.717,-74 L 682.717,-64.7024
 L 683.059,-64.4804 L 683.459,-64.1563 L 683.823,-63.7921 L 684.147,-63.3919 L 684.427,-62.96 L 684.661,-62.5011
 L 684.846,-62.0204 L 684.979,-61.5229 L 685.06,-61.0143 L 685.087,-60.5 L 685.06,-59.9857 L 684.979,-59.4771
 L 684.846,-58.9796 L 684.661,-58.4989 L 684.427,-58.04 L 684.147,-57.6081 L 683.823,-57.2079 L 683.459,-56.8437
 L 683.059,-56.5196 L 682.627,-56.2392 L 682.168,-56.0054 L 681.687,-55.8208 L 681.19,-55.6875 L 680.681,-55.607
 L 680.167,-55.58 z
M 847.819,-55.607 L 847.31,-55.6875 L 846.813,-55.8208 L 846.332,-56.0054 L 845.873,-56.2392 L 845.441,-56.5196
 L 845.041,-56.8437 L 844.677,-57.2079 L 844.353,-57.6081 L 844.072,-58.04 L 843.839,-58.4989 L 843.654,-58.9796
 L 843.521,-59.4771 L 843.44,-59.9857 L 843.413,-60.5 L 843.44,-61.0143 L 843.521,-61.5229 L 843.654,-62.0204
 L 843.839,-62.5011 L 844.072,-62.96 L 844.353,-63.3919 L 844.677,-63.7921 L 845.041,-64.1563 L 845.441,-64.4804
 L 845.783,-64.7024 L 845.783,-74 L 845.839,-74.5302 L 846.004,-75.0372 L 846.27,-75.4988 L 846.627,-75.895
 L 847.058,-76.2084 L 847.545,-76.4252 L 848.067,-76.536 L 848.6,-76.536 L 849.121,-76.4252 L 849.608,-76.2084
 L 850.04,-75.895 L 850.396,-75.4988 L 850.663,-75.0372 L 850.828,-74.5302 L 850.883,-74 L 850.883,-64.7024
 L 851.225,-64.4804 L 851.625,-64.1563 L 851.99,-63.7921 L 852.314,-63.3919 L 852.594,-62.96 L 852.828,-62.5011
 L 853.013,-62.0204 L 853.146,-61.5229 L 853.226,-61.0143 L 853.253,-60.5 L 853.226,-59.9857 L 853.146,-59.4771
 L 853.013,-58.9796 L 852.828,-58.4989 L 852.594,-58.04 L 852.314,-57.6081 L 851.99,-57.2079 L 851.625,-56.8437
 L 851.225,-56.5196 L 850.793,-56.2392 L 850.334,-56.0054 L 849.854,-55.8208 L 849.356,-55.6875 L 848.848,-55.607
 L 848.333,-55.58 z
M 1015.99,-55.607 L 1015.48,-55.6875 L 1014.98,-55.8208 L 1014.5,-56.0054 L 1014.04,-56.2392 L 1013.61,-56.5196
 L 1013.21,-56.8437 L 1012.84,-57.2079 L 1012.52,-57.6081 L 1012.24,-58.04 L 1012.01,-58.4989 L 1011.82,-58.9796
 L 1011.69,-59.4771 L 1011.61,-59.9857 L 1011.58,-60.5 L 1011.61,-61.0143 L 1011.69,-61.5229 L 1011.82,-62.0204
 L 1012.01,-62.5011 L 1012.24,-62.96 L 1012.52,-63.3919 L 1012.84,-63.7921 L 1013.21,-64.1563 L 1013.61,-64.4804
 L 1013.95,-64.7024 L 1013.95,-74 L 1014.01,-74.5302 L 1014.17,-75.0372 L 1014.44,-75.4988 L 1014.79,-75.895
 L 1015.23,-76.2084 L 1015.71,-76.4252 L 1016.23,-76.536 L 1016.77,-76.536 L 1017.29,-76.4252 L 1017.77,-76.2084
 L 1018.21,-75.895 L 1018.56,-75.4988 L 1018.83,-75.0372 L 1018.99,-74.5302 L 1019.05,-74 L 1019.05,-64.7024
 L 1019.39,-64.4804 L 1019.79,-64.1563 L 1020.16,-63.7921 L 1020.48,-63.3919 L 1020.76,-62.96 L 1020.99,-62.5011
 L 1021.18,-62.0204 L 1021.31,-61.5229 L 1021.39,-61.0143 L 1021.42,-60.5 L 1021.39,-59.9857 L 1021.31,-59.4771
 L 1021.18,-58.9796 L 1020.99,-58.4989 L 1020.76,-58.04 L 1020.48,-57.6081 L 1020.16,-57.2079 L 1019.79,-56.8437
 L 1019.39,-56.5196 L 1018.96,-56.2392 L 1018.5,-56.0054 L 1018.02,-55.8208 L 1017.52,-55.6875 L 1017.01,-55.607
 L 1016.5,-55.58 z
M 860.367,-21.3894 L 859.581,-21.6752 L 858.872,-22.1181 L 858.27,-22.6988 L 857.802,-23.392 L 857.489,-24.1672
 L 857.333,-25.2709 L 857.333,-58 L 857.421,-58.8316 L 857.679,-59.627 L 858.097,-60.3511 L 858.657,-60.9726
 L 859.333,-61.4641 L 860.097,-61.8042 L 861.333,-62 L 942.274,-62 L 943.105,-61.9126 L 943.901,-61.6542
 L 944.625,-61.2361 L 945.246,-60.6765 L 945.738,-60 L 946.078,-59.2361 L 946.252,-58.4181 L 946.252,-57.5819
 L 946.078,-56.7639 L 945.738,-56 L 945.246,-55.3235 L 944.625,-54.7639 L 943.773,-54.2917 L 862.833,-21.5626
 L 862.029,-21.3318 L 861.195,-21.2733 z
M 330.138,-21.3318 L 329.334,-21.5626 L 248.393,-54.2917 L 247.542,-54.7639 L 246.92,-55.3235 L 246.429,-56
 L 246.089,-56.7639 L 245.915,-57.5819 L 245.915,-58.4181 L 246.089,-59.2361 L 246.429,-60 L 246.92,-60.6765
 L 247.542,-61.2361 L 248.266,-61.6542 L 249.061,-61.9126 L 249.893,-62 L 330.833,-62 L 332.069,-61.8042
 L 332.833,-61.4641 L 333.51,-60.9726 L 334.069,-60.3511 L 334.487,-59.627 L 334.746,-58.8316 L 334.833,-58
 L 334.833,-25.2709 L 334.678,-24.1672 L 334.365,-23.392 L 333.897,-22.6988 L 333.295,-22.1181 L 332.586,-21.6752
 L 331.8,-21.3894 L 330.972,-21.2733 z
M 161.971,-21.3318 L 161.167,-21.5626 L 80.2267,-54.2917 L 79.3751,-54.7639 L 78.7536,-55.3235 L 78.2621,-56
 L 77.922,-56.7639 L 77.7481,-57.5819 L 77.7481,-58.4181 L 77.922,-59.2361 L 78.2621,-60 L 78.7536,-60.6765
 L 79.3751,-61.2361 L 80.0993,-61.6542 L 80.8946,-61.9126 L 81.7262,-62 L 162.667,-62 L 163.903,-61.8042
 L 164.667,-61.4641 L 165.343,-60.9726 L 165.903,-60.3511 L 166.321,-59.627 L 166.579,-58.8316 L 166.667,-58
 L 166.667,-25.2709 L 166.511,-24.1672 L 166.198,-23.392 L 165.73,-22.6988 L 165.128,-22.1181 L 164.419,-21.6752
 L 163.633,-21.3894 L 162.805,-21.2733 z
M 498.304,-21.3318 L 497.5,-21.5626 L 416.56,-54.2917 L 415.708,-54.7639 L 415.087,-55.3235 L 414.595,-56
 L 414.255,-56.7639 L 414.081,-57.5819 L 414.081,-58.4181 L 414.255,-59.2361 L 414.595,-60 L 415.087,-60.6765
 L 415.708,-61.2361 L 416.433,-61.6542 L 417.228,-61.9126 L 418.06,-62 L 499,-62 L 500.236,-61.8042
 L 501,-61.4641 L 501.677,-60.9726 L 502.236,-60.3511 L 502.654,-59.627 L 502.913,-58.8316 L 503,-58
 L 503,-25.2709 L 502.845,-24.1672 L 502.531,-23.392 L 502.063,-22.6988 L 501.462,-22.1181 L 500.752,-21.6752
 L 499.967,-21.3894 L 499.138,-21.2733 z
M 524.033,-21.3894 L 523.248,-21.6752 L 522.538,-22.1181 L 521.937,-22.6988 L 521.469,-23.392 L 521.155,-24.1672
 L 521,-25.2709 L 521,-58 L 521.087,-58.8316 L 521.346,-59.627 L 521.764,-60.3511 L 522.323,-60.9726
 L 523,-61.4641 L 523.764,-61.8042 L 525,-62 L 605.94,-62 L 606.772,-61.9126 L 607.567,-61.6542
 L 608.292,-61.2361 L 608.913,-60.6765 L 609.405,-60 L 609.745,-59.2361 L 609.919,-58.4181 L 609.919,-57.5819
 L 609.745,-56.7639 L 609.405,-56 L 608.913,-55.3235 L 608.292,-54.7639 L 607.44,-54.2917 L 526.499,-21.5626
 L 525.696,-21.3318 L 524.862,-21.2733 z
M 692.2,-21.3894 L 691.414,-21.6752 L 690.705,-22.1181 L 690.103,-22.6988 L 689.635,-23.392 L 689.322,-24.1672
 L 689.167,-25.2709 L 689.167,-58 L 689.254,-58.8316 L 689.512,-59.627 L 689.931,-60.3511 L 690.49,-60.9726
 L 691.167,-61.4641 L 691.931,-61.8042 L 693.167,-62 L 774.107,-62 L 774.939,-61.9126 L 775.734,-61.6542
 L 776.458,-61.2361 L 777.08,-60.6765 L 777.571,-60 L 777.911,-59.2361 L 778.085,-58.4181 L 778.085,-57.5819
 L 777.911,-56.7639 L 777.571,-56 L 777.08,-55.3235 L 776.458,-54.7639 L 775.607,-54.2917 L 694.666,-21.5626
 L 693.862,-21.3318 L 693.028,-21.2733 z
M 188.667,-18 L 187.431,-18.1958 L 186.667,-18.5359 L 185.99,-19.0274 L 185.431,-19.6489 L 185.012,-20.373
 L 184.754,-21.1684 L 184.667,-22 L 184.667,-54.7291 L 184.822,-55.8328 L 185.135,-56.608 L 185.603,-57.3012
 L 186.205,-57.8819 L 186.914,-58.3248 L 187.7,-58.6106 L 188.528,-58.7267 L 189.362,-58.6682 L 190.166,-58.4374
 L 271.107,-25.7083 L 271.958,-25.2361 L 272.58,-24.6765 L 273.071,-24 L 273.411,-23.2361 L 273.585,-22.4181
 L 273.585,-21.5819 L 273.411,-20.7639 L 273.071,-20 L 272.58,-19.3235 L 271.958,-18.7639 L 271.234,-18.3458
 L 270.439,-18.0874 L 269.607,-18 z
M 356.833,-18 L 355.597,-18.1958 L 354.833,-18.5359 L 354.157,-19.0274 L 353.597,-19.6489 L 353.179,-20.373
 L 352.921,-21.1684 L 352.833,-22 L 352.833,-54.7291 L 352.989,-55.8328 L 353.302,-56.608 L 353.77,-57.3012
 L 354.372,-57.8819 L 355.081,-58.3248 L 355.867,-58.6106 L 356.695,-58.7267 L 357.529,-58.6682 L 358.333,-58.4374
 L 439.273,-25.7083 L 440.125,-25.2361 L 440.746,-24.6765 L 441.238,-24 L 441.578,-23.2361 L 441.752,-22.4181
 L 441.752,-21.5819 L 441.578,-20.7639 L 441.238,-20 L 440.746,-19.3235 L 440.125,-18.7639 L 439.401,-18.3458
 L 438.605,-18.0874 L 437.774,-18 z
M 586.226,-18 L 585.395,-18.0874 L 584.599,-18.3458 L 583.875,-18.7639 L 583.254,-19.3235 L 582.762,-20
 L 582.422,-20.7639 L 582.248,-21.5819 L 582.248,-22.4181 L 582.422,-23.2361 L 582.762,-24 L 583.254,-24.6765
 L 583.875,-25.2361 L 584.727,-25.7083 L 665.667,-58.4374 L 666.471,-58.6682 L 667.305,-58.7267 L 668.133,-58.6106
 L 668.919,-58.3248 L 669.628,-57.8819 L 670.23,-57.3012 L 670.698,-56.608 L 671.011,-55.8328 L 671.167,-54.7291
 L 671.167,-22 L 671.079,-21.1684 L 670.821,-20.373 L 670.403,-19.6489 L 669.843,-19.0274 L 669.167,-18.5359
 L 668.403,-18.1958 L 667.167,-18 z
M 754.393,-18 L 753.561,-18.0874 L 752.766,-18.3458 L 752.042,-18.7639 L 751.42,-19.3235 L 750.929,-20
 L 750.589,-20.7639 L 750.415,-21.5819 L 750.415,-22.4181 L 750.589,-23.2361 L 750.929,-24 L 751.42,-24.6765
 L 752.042,-25.2361 L 752.893,-25.7083 L 833.834,-58.4374 L 834.638,-58.6682 L 835.472,-58.7267 L 836.3,-58.6106
 L 837.086,-58.3248 L 837.795,-57.8819 L 838.397,-57.3012 L 838.865,-56.608 L 839.178,-55.8328 L 839.333,-54.7291
 L 839.333,-22 L 839.246,-21.1684 L 838.988,-20.373 L 838.569,-19.6489 L 838.01,-19.0274 L 837.333,-18.5359
 L 836.569,-18.1958 L 835.333,-18 z
M 922.56,-18 L 921.728,-18.0874 L 920.933,-18.3458 L 920.208,-18.7639 L 919.587,-19.3235 L 919.095,-20
 L 918.755,-20.7639 L 918.581,-21.5819 L 918.581,-22.4181 L 918.755,-23.2361 L 919.095,-24 L 919.587,-24.6765
 L 920.208,-25.2361 L 921.06,-25.7083 L 1000.5,-57.8309 L 1001.3,-58.0616 L 1002.14,-58.1202 L 1002.97,-58.004
 L 1003.75,-57.7183 L 1004.46,-57.2753 L 1005.06,-56.6946 L 1005.53,-56.0015 L 1005.84,-55.2262 L 1006,-54.1226
 L 1006,-22 L 1005.91,-21.1684 L 1005.65,-20.373 L 1005.24,-19.6489 L 1004.68,-19.0274 L 1004,-18.5359
 L 1003.24,-18.1958 L 1002,-18 z
M 22,-18 L 20.7639,-18.1958 L 20,-18.5359 L 19.3235,-19.0274 L 18.7639,-19.6489 L 18.3458,-20.373
 L 18.0874,-21.1684 L 18,-22 L 18,-54.1226 L 18.1553,-55.2262 L 18.4688,-56.0015 L 18.9366,-56.6946
 L 19.5383,-57.2753 L 20.2475,-57.7183 L 21.0334,-58.004 L 21.8616,-58.1202 L 22.6957,-58.0616 L 23.4995,-57.8309
 L 102.94,-25.7083 L 103.792,-25.2361 L 104.413,-24.6765 L 104.905,-24 L 105.245,-23.2361 L 105.419,-22.4181
 L 105.419,-21.5819 L 105.245,-20.7639 L 104.905,-20 L 104.413,-19.3235 L 103.792,-18.7639 L 103.067,-18.3458
 L 102.272,-18.0874 L 101.44,-18 z
" stroke="black" fill="lightgray" stroke-width="0.5"/>
</svg>
