<?xml version="1.0" standalone="no"?>
<!DOCTYPE svg PUBLIC "-//W3C//DTD SVG 1.1//EN" "http://www.w3.org/Graphics/SVG/1.1/DTD/svg11.dtd">
<svg width="1364mm" height="80mm" viewBox="0 -80 1364 80" xmlns="http://www.w3.org/2000/svg" version="1.1">
<title>OpenSCAD Model</title>
<path d="
M 1364,-80 L 0,-80 L 0,-0 L 4.95,-0 L 4.95,-6 L 5.00572,-6.53017
 L 5.17046,-7.03717 L 5.437,-7.49884 L 5.79372,-7.895 L 6.22499,-8.20836 L 6.71201,-8.42519 L 7.23344,-8.53603
 L 7.76654,-8.53603 L 8.28798,-8.42519 L 8.77499,-8.20836 L 9.20627,-7.895 L 9.56299,-7.49884 L 9.82953,-7.03717
 L 9.99426,-6.53017 L 10.05,-6 L 10.05,-0 L 197.664,-0 L 197.664,-6 L 197.72,-6.53017
 L 197.885,-7.03717 L 198.151,-7.49884 L 198.508,-7.895 L 198.939,-8.20836 L 199.426,-8.42519 L 199.948,-8.53603
 L 200.481,-8.53603 L 201.002,-8.42519 L 201.489,-8.20836 L 201.921,-7.895 L 202.277,-7.49884 L 202.544,-7.03717
 L 202.709,-6.53017 L 202.764,-6 L 202.764,-0 L 390.379,-0 L 390.379,-6 L 390.434,-6.53017
 L 390.599,-7.03717 L 390.866,-7.49884 L 391.222,-7.895 L 391.654,-8.20836 L 392.141,-8.42519 L 392.662,-8.53603
 L 393.195,-8.53603 L 393.717,-8.42519 L 394.204,-8.20836 L 394.635,-7.895 L 394.992,-7.49884 L 395.258,-7.03717
 L 395.423,-6.53017 L 395.479,-6 L 395.479,-0 L 583.093,-0 L 583.093,-6 L 583.149,-6.53017
 L 583.313,-7.03717 L 583.58,-7.49884 L 583.937,-7.895 L 584.368,-8.20836 L 584.855,-8.42519 L 585.376,-8.53603
 L 585.909,-8.53603 L 586.431,-8.42519 L 586.918,-8.20836 L 587.349,-7.895 L 587.706,-7.49884 L 587.972,-7.03717
 L 588.137,-6.53017 L 588.193,-6 L 588.193,-0 L 775.807,-0 L 775.807,-6 L 775.863,-6.53017
 L 776.028,-7.03717 L 776.294,-7.49884 L 776.651,-7.895 L 777.082,-8.20836 L 777.569,-8.42519 L 778.091,-8.53603
 L 778.624,-8.53603 L 779.145,-8.42519 L 779.632,-8.20836 L 780.063,-7.895 L 780.42,-7.49884 L 780.687,-7.03717
 L 780.851,-6.53017 L 780.907,-6 L 780.907,-0 L 968.521,-0 L 968.521,-6 L 968.577,-6.53017
 L 968.742,-7.03717 L 969.008,-7.49884 L 969.365,-7.895 L 969.796,-8.20836 L 970.283,-8.42519 L 970.805,-8.53603
 L 971.338,-8.53603 L 971.859,-8.42519 L 972.346,-8.20836 L 972.778,-7.895 L 973.134,-7.49884 L 973.401,-7.03717
 L 973.566,-6.53017 L 973.621,-6 L 973.621,-0 L 1161.24,-0 L 1161.24,-6 L 1161.29,-6.53017
 L 1161.46,-7.03717 L 1161.72,-7.49884 L 1162.08,-7.895 L 1162.51,-8.20836 L 1163,-8.42519 L 1163.52,-8.53603
 L 1164.05,-8.53603 L 1164.57,-8.42519 L 1165.06,-8.20836 L 1165.49,-7.895 L 1165.85,-7.49884 L 1166.12,-7.03717
 L 1166.28,-6.53017 L 1166.34,-6 L 1166.34,-0 L 1353.95,-0 L 1353.95,-6 L 1354.01,-6.53017
 L 1354.17,-7.03717 L 1354.44,-7.49884 L 1354.79,-7.895 L 1355.22,-8.20836 L 1355.71,-8.42519 L 1356.23,-8.53603
 L 1356.77,-8.53603 L 1357.29,-8.42519 L 1357.77,-8.20836 L 1358.21,-7.895 L 1358.56,-7.49884 L 1358.83,-7.03717
 L 1358.99,-6.53017 L 1359.05,-6 L 1359.05,-0 L 1364,-0 z
M 6.98573,-55.607 L 6.47708,-55.6875 L 5.97964,-55.8208 L 5.49887,-56.0054 L 5.04001,-56.2392 L 4.60811,-56.5196
 L 4.20789,-56.8437 L 3.84373,-57.2079 L 3.51964,-57.6081 L 3.23917,-58.04 L 3.00537,-58.4989 L 2.82082,-58.9796
 L 2.68752,-59.4771 L 2.60696,-59.9857 L 2.58,-60.5 L 2.60696,-61.0143 L 2.68752,-61.5229 L 2.82082,-62.0204
 L 3.00537,-62.5011 L 3.23917,-62.96 L 3.51964,-63.3919 L 3.84373,-63.7921 L 4.20789,-64.1563 L 4.60811,-64.4804
 L 4.95001,-64.7024 L 4.95001,-74 L 5.00574,-74.5302 L 5.17047,-75.0372 L 5.43701,-75.4988 L 5.79373,-75.895
 L 6.22501,-76.2084 L 6.71202,-76.4252 L 7.23346,-76.536 L 7.76654,-76.536 L 8.28798,-76.4252 L 8.77499,-76.2084
 L 9.20627,-75.895 L 9.56299,-75.4988 L 9.82953,-75.0372 L 9.99426,-74.5302 L 10.05,-74 L 10.05,-64.7024
 L 10.3919,-64.4804 L 10.7921,-64.1563 L 11.1563,-63.7921 L 11.4804,-63.3919 L 11.7608,-62.96 L 11.9946,-62.5011
 L 12.1792,-62.0204 L 12.3125,-61.5229 L 12.393,-61.0143 L 12.42,-60.5 L 12.393,-59.9857 L 12.3125,-59.4771
 L 12.1792,-58.9796 L 11.9946,-58.4989 L 11.7608,-58.04 L 11.4804,-57.6081 L 11.1563,-57.2079 L 10.7921,-56.8437
 L 10.3919,-56.5196 L 9.95999,-56.2392 L 9.50113,-56.0054 L 9.02036,-55.8208 L 8.52292,-55.6875 L 8.01427,-55.607
 L 7.5,-55.58 z
M 199.7,-55.607 L 199.191,-55.6875 L 198.694,-55.8208 L 198.213,-56.0054 L 197.754,-56.2392 L 197.322,-56.5196
 L 196.922,-56.8437 L 196.558,-57.2079 L 196.234,-57.6081 L 195.953,-58.04 L 195.72,-58.4989 L 195.535,-58.9796
 L 195.402,-59.4771 L 195.321,-59.9857 L 195.294,-60.5 L 195.321,-61.0143 L 195.402,-61.5229 L 195.535,-62.0204
 L 195.72,-62.5011 L 195.953,-62.96 L 196.234,-63.3919 L 196.558,-63.7921 L 196.922,-64.1563 L 197.322,-64.4804
 L 197.664,-64.7024 L 197.664,-74 L 197.72,-74.5302 L 197.885,-75.0372 L 198.151,-75.4988 L 198.508,-75.895
 L 198.939,-76.2084 L 199.426,-76.4252 L 199.948,-76.536 L 200.481,-76.536 L 201.002,-76.4252 L 201.489,-76.2084
 L 201.921,-75.895 L 202.277,-75.4988 L 202.544,-75.0372 L 202.709,-74.5302 L 202.764,-74 L 202.764,-64.7024
 L 203.106,-64.4804 L 203.506,-64.1563 L 203.871,-63.7921 L 204.195,-63.3919 L 204.475,-62.96 L 204.709,-62.5011
 L 204.893,-62.0204 L 205.027,-61.5229 L 205.107,-61.0143 L 205.134,-60.5 L 205.107,-59.9857 L 205.027,-59.4771
 L 204.893,-58.9796 L 204.709,-58.4989 L 204.475,-58.04 L 204.195,-57.6081 L 203.871,-57.2079 L 203.506,-56.8437
 L 203.106,-56.5196 L 202.674,-56.2392 L 202.215,-56.0054 L 201.735,-55.8208 L 201.237,-55.6875 L 200.729,-55.607
 L 200.214,-55.58 z
M 392.414,-55.607 L 391.906,-55.6875 L 391.408,-55.8208 L 390.927,-56.0054 L 390.469,-56.2392 L 390.037,-56.5196
 L 389.636,-56.8437 L 389.272,-57.2079 L 388.948,-57.6081 L 388.668,-58.04 L 388.434,-58.4989 L 388.249,-58.9796
 L 388.116,-59.4771 L 388.036,-59.9857 L 388.009,-60.5 L 388.036,-61.0143 L 388.116,-61.5229 L 388.249,-62.0204
 L 388.434,-62.5011 L 388.668,-62.96 L 388.948,-63.3919 L 389.272,-63.7921 L 389.636,-64.1563 L 390.037,-64.4804
 L 390.379,-64.7024 L 390.379,-74 L 390.434,-74.5302 L 390.599,-75.0372 L 390.866,-75.4988 L 391.222,-75.895
 L 391.654,-76.2084 L 392.141,-76.4252 L 392.662,-76.536 L 393.195,-76.536 L 393.717,-76.4252 L 394.204,-76.2084
 L 394.635,-75.895 L 394.992,-75.4988 L 395.258,-75.0372 L 395.423,-74.5302 L 395.479,-74 L 395.479,-64.7024
 L 395.82,-64.4804 L 396.221,-64.1563 L 396.585,-63.7921 L 396.909,-63.3919 L 397.189,-62.96 L 397.423,-62.5011
 L 397.608,-62.0204 L 397.741,-61.5229 L 397.822,-61.0143 L 397.849,-60.5 L 397.822,-59.9857 L 397.741,-59.4771
 L 397.608,-58.9796 L 397.423,-58.4989 L 397.189,-58.04 L 396.909,-57.6081 L 396.585,-57.2079 L 396.221,-56.8437
 L 395.82,-56.5196 L 395.389,-56.2392 L 394.93,-56.0054 L 394.449,-55.8208 L 393.951,-55.6875 L 393.443,-55.607
 L 392.929,-55.58 z
M 585.129,-55.607 L 584.62,-55.6875 L 584.122,-55.8208 L 583.642,-56.0054 L 583.183,-56.2392 L 582.751,-56.5196
 L 582.351,-56.8437 L 581.987,-57.2079 L 581.662,-57.6081 L 581.382,-58.04 L 581.148,-58.4989 L 580.964,-58.9796
 L 580.83,-59.4771 L 580.75,-59.9857 L 580.723,-60.5 L 580.75,-61.0143 L 580.83,-61.5229 L 580.964,-62.0204
 L 581.148,-62.5011 L 581.382,-62.96 L 581.662,-63.3919 L 581.987,-63.7921 L 582.351,-64.1563 L 582.751,-64.4804
 L 583.093,-64.7024 L 583.093,-74 L 583.149,-74.5302 L 583.313,-75.0372 L 583.58,-75.4988 L 583.937,-75.895
 L 584.368,-76.2084 L 584.855,-76.4252 L 585.376,-76.536 L 585.909,-76.536 L 586.431,-76.4252 L 586.918,-76.2084
 L 587.349,-75.895 L 587.706,-75.4988 L 587.972,-75.0372 L 588.137,-74.5302 L 588.193,-74 L 588.193,-64.7024
 L 588.535,-64.4804 L 588.935,-64.1563 L 589.299,-63.7921 L 589.623,-63.3919 L 589.904,-62.96 L 590.137,-62.5011
 L 590.322,-62.0204 L 590.455,-61.5229 L 590.536,-61.0143 L 590.563,-60.5 L 590.536,-59.9857 L 590.455,-59.4771
 L 590.322,-58.9796 L 590.137,-58.4989 L 589.904,-58.04 L 589.623,-57.6081 L 589.299,-57.2079 L 588.935,-56.8437
 L 588.535,-56.5196 L 588.103,-56.2392 L 587.644,-56.0054 L 587.163,-55.8208 L 586.666,-55.6875 L 586.157,-55.607
 L 585.643,-55.58 z
M 777.843,-55.607 L 777.334,-55.6875 L 776.837,-55.8208 L 776.356,-56.0054 L 775.897,-56.2392 L 775.465,-56.5196
 L 775.065,-56.8437 L 774.701,-57.2079 L 774.377,-57.6081 L 774.096,-58.04 L 773.863,-58.4989 L 773.678,-58.9796
 L 773.545,-59.4771 L 773.464,-59.9857 L 773.437,-60.5 L 773.464,-61.0143 L 773.545,-61.5229 L 773.678,-62.0204
 L 773.863,-62.5011 L 774.096,-62.96 L 774.377,-63.3919 L 774.701,-63.7921 L 775.065,-64.1563 L 775.465,-64.4804
 L 775.807,-64.7024 L 775.807,-74 L 775.863,-74.5302 L 776.028,-75.0372 L 776.294,-75.4988 L 776.651,-75.895
 L 777.082,-76.2084 L 777.569,-76.4252 L 778.091,-76.536 L 778.624,-76.536 L 779.145,-76.4252 L 779.632,-76.2084
 L 780.063,-75.895 L 780.42,-75.4988 L 780.687,-75.0372 L 780.851,-74.5302 L 780.907,-74 L 780.907,-64.7024
 L 781.249,-64.4804 L 781.649,-64.1563 L 782.013,-63.7921 L 782.337,-63.3919 L 782.618,-62.96 L 782.852,-62.5011
 L 783.036,-62.0204 L 783.17,-61.5229 L 783.25,-61.0143 L 783.277,-60.5 L 783.25,-59.9857 L 783.17,-59.4771
 L 783.036,-58.9796 L 782.852,-58.4989 L 782.618,-58.04 L 782.337,-57.6081 L 782.013,-57.2079 L 781.649,-56.8437
 L 781.249,-56.5196 L 780.817,-56.2392 L 780.358,-56.0054 L 779.877,-55.8208 L 779.38,-55.6875 L 778.871,-55.607
 L 778.357,-55.58 z
M 970.557,-55.607 L 970.049,-55.6875 L 969.551,-55.8208 L 969.07,-56.0054 L 968.611,-56.2392 L 968.18,-56.5196
 L 967.779,-56.8437 L 967.415,-57.2079 L 967.091,-57.6081 L 966.811,-58.04 L 966.577,-58.4989 L 966.392,-58.9796
 L 966.259,-59.4771 L 966.178,-59.9857 L 966.151,-60.5 L 966.178,-61.0143 L 966.259,-61.5229 L 966.392,-62.0204
 L 966.577,-62.5011 L 966.811,-62.96 L 967.091,-63.3919 L 967.415,-63.7921 L 967.779,-64.1563 L 968.18,-64.4804
 L 968.521,-64.7024 L 968.521,-74 L 968.577,-74.5302 L 968.742,-75.0372 L 969.008,-75.4988 L 969.365,-75.895
 L 969.796,-76.2084 L 970.283,-76.4252 L 970.805,-76.536 L 971.338,-76.536 L 971.859,-76.4252 L 972.346,-76.2084
 L 972.778,-75.895 L 973.134,-75.4988 L 973.401,-75.0372 L 973.566,-74.5302 L 973.621,-74 L 973.621,-64.7024
 L 973.963,-64.4804 L 974.364,-64.1563 L 974.728,-63.7921 L 975.052,-63.3919 L 975.332,-62.96 L 975.566,-62.5011
 L 975.751,-62.0204 L 975.884,-61.5229 L 975.964,-61.0143 L 975.991,-60.5 L 975.964,-59.9857 L 975.884,-59.4771
 L 975.751,-58.9796 L 975.566,-58.4989 L 975.332,-58.04 L 975.052,-57.6081 L 974.728,-57.2079 L 974.364,-56.8437
 L 973.963,-56.5196 L 973.531,-56.2392 L 973.073,-56.0054 L 972.592,-55.8208 L 972.094,-55.6875 L 971.586,-55.607
 L 971.071,-55.58 z
M 1163.27,-55.607 L 1162.76,-55.6875 L 1162.27,-55.8208 L 1161.78,-56.0054 L 1161.33,-56.2392 L 1160.89,-56.5196
 L 1160.49,-56.8437 L 1160.13,-57.2079 L 1159.81,-57.6081 L 1159.52,-58.04 L 1159.29,-58.4989 L 1159.11,-58.9796
 L 1158.97,-59.4771 L 1158.89,-59.9857 L 1158.87,-60.5 L 1158.89,-61.0143 L 1158.97,-61.5229 L 1159.11,-62.0204
 L 1159.29,-62.5011 L 1159.52,-62.96 L 1159.81,-63.3919 L 1160.13,-63.7921 L 1160.49,-64.1563 L 1160.89,-64.4804
 L 1161.24,-64.7024 L 1161.24,-74 L 1161.29,-74.5302 L 1161.46,-75.0372 L 1161.72,-75.4988 L 1162.08,-75.895
 L 1162.51,-76.2084 L 1163,-76.4252 L 1163.52,-76.536 L 1164.05,-76.536 L 1164.57,-76.4252 L 1165.06,-76.2084
 L 1165.49,-75.895 L 1165.85,-75.4988 L 1166.12,-75.0372 L 1166.28,-74.5302 L 1166.34,-74 L 1166.34,-64.7024
 L 1166.68,-64.4804 L 1167.08,-64.1563 L 1167.44,-63.7921 L 1167.77,-63.3919 L 1168.05,-62.96 L 1168.28,-62.5011
 L 1168.46,-62.0204 L 1168.6,-61.5229 L 1168.68,-61.0143 L 1168.71,-60.5 L 1168.68,-59.9857 L 1168.6,-59.4771
 L 1168.46,-58.9796 L 1168.28,-58.4989 L 1168.05,-58.04 L 1167.77,-57.6081 L 1167.44,-57.2079 L 1167.08,-56.8437
 L 1166.68,-56.5196 L 1166.25,-56.2392 L 1165.79,-56.0054 L 1165.31,-55.8208 L 1164.81,-55.6875 L 1164.3,-55.607
 L 1163.79,-55.58 z
M 1355.99,-55.607 L 1355.48,-55.6875 L 1354.98,-55.8208 L 1354.5,-56.0054 L 1354.04,-56.2392 L 1353.61,-56.5196
 L 1353.21,-56.8437 L 1352.84,-57.2079 L 1352.52,-57.6081 L 1352.24,-58.04 L 1352.01,-58.4989 L 1351.82,-58.9796
 L 1351.69,-59.4771 L 1351.61,-59.9857 L 1351.58,-60.5 L 1351.61,-61.0143 L 1351.69,-61.5229 L 1351.82,-62.0204
 L 1352.01,-62.5011 L 1352.24,-62.96 L 1352.52,-63.3919 L 1352.84,-63.7921 L 1353.21,-64.1563 L 1353.61,-64.4804
 L 1353.95,-64.7024 L 1353.95,-74 L 1354.01,-74.5302 L 1354.17,-75.0372 L 1354.44,-75.4988 L 1354.79,-75.895
 L 1355.23,-76.2084 L 1355.71,-76.4252 L 1356.23,-76.536 L 1356.77,-76.536 L 1357.29,-76.4252 L 1357.77,-76.2084
 L 1358.21,-75.895 L 1358.56,-75.4988 L 1358.83,-75.0372 L 1358.99,-74.5302 L 1359.05,-74 L 1359.05,-64.7024
 L 1359.39,-64.4804 L 1359.79,-64.1563 L 1360.16,-63.7921 L 1360.48,-63.3919 L 1360.76,-62.96 L 1360.99,-62.5011
 L 1361.18,-62.0204 L 1361.31,-61.5229 L 1361.39,-61.0143 L 1361.42,-60.5 L 1361.39,-59.9857 L 1361.31,-59.4771
 L 1361.18,-58.9796 L 1360.99,-58.4989 L 1360.76,-58.04 L 1360.48,-57.6081 L 1360.16,-57.2079 L 1359.79,-56.8437
 L 1359.39,-56.5196 L 1358.96,-56.2392 L 1358.5,-56.0054 L 1358.02,-55.8208 L 1357.52,-55.6875 L 1357.01,-55.607
 L 1356.5,-55.58 z
M 790.217,-20.5343 L 789.445,-20.8552 L 788.756,-21.3296 L 788.181,-21.9368 L 787.745,-22.6503 L 787.467,-23.4389
 L 787.357,-24.3683 L 787.357,-58 L 787.445,-58.8316 L 787.703,-59.627 L 788.121,-60.3511 L 788.681,-60.9726
 L 789.357,-61.4641 L 790.121,-61.8042 L 791.357,-62 L 886.67,-62 L 887.502,-61.9126 L 888.297,-61.6542
 L 889.022,-61.2361 L 889.643,-60.6765 L 890.135,-60 L 890.475,-59.2361 L 890.649,-58.4181 L 890.649,-57.5819
 L 890.475,-56.7639 L 890.135,-56 L 889.643,-55.3235 L 889.022,-54.7639 L 888.001,-54.2279 L 792.688,-20.5963
 L 791.875,-20.4019 L 791.039,-20.381 z
M 681.482,-47.6947 L 680.669,-47.889 L 662.704,-54.2279 L 661.684,-54.7639 L 661.063,-55.3235 L 660.571,-56
 L 660.231,-56.7639 L 660.057,-57.5819 L 660.057,-58.4181 L 660.231,-59.2361 L 660.571,-60 L 661.063,-60.6765
 L 661.684,-61.2361 L 662.408,-61.6542 L 663.203,-61.9126 L 664.035,-62 L 699.965,-62 L 701.105,-61.834
 L 701.877,-61.5131 L 702.566,-61.0387 L 703.141,-60.4315 L 703.577,-59.718 L 703.855,-58.9294 L 703.964,-58.1002
 L 703.897,-57.2666 L 703.659,-56.4651 L 703.259,-55.7307 L 702.715,-55.0954 L 702.051,-54.5871 L 701.296,-54.2279
 L 683.331,-47.889 L 682.318,-47.6737 z
M 572.125,-20.4019 L 571.312,-20.5963 L 475.999,-54.2279 L 474.978,-54.7639 L 474.357,-55.3235 L 473.865,-56
 L 473.525,-56.7639 L 473.351,-57.5819 L 473.351,-58.4181 L 473.525,-59.2361 L 473.865,-60 L 474.357,-60.6765
 L 474.978,-61.2361 L 475.703,-61.6542 L 476.498,-61.9126 L 477.33,-62 L 572.643,-62 L 573.879,-61.8042
 L 574.643,-61.4641 L 575.319,-60.9726 L 575.879,-60.3511 L 576.297,-59.627 L 576.555,-58.8316 L 576.643,-58
 L 576.643,-24.3683 L 576.533,-23.4389 L 576.255,-22.6503 L 575.819,-21.9368 L 575.244,-21.3296 L 574.555,-20.8552
 L 573.783,-20.5343 L 572.961,-20.381 z
M 379.411,-20.4019 L 378.598,-20.5963 L 283.284,-54.2279 L 282.264,-54.7639 L 281.643,-55.3235 L 281.151,-56
 L 280.811,-56.7639 L 280.637,-57.5819 L 280.637,-58.4181 L 280.811,-59.2361 L 281.151,-60 L 281.643,-60.6765
 L 282.264,-61.2361 L 282.988,-61.6542 L 283.784,-61.9126 L 284.615,-62 L 379.929,-62 L 381.165,-61.8042
 L 381.929,-61.4641 L 382.605,-60.9726 L 383.165,-60.3511 L 383.583,-59.627 L 383.841,-58.8316 L 383.929,-58
 L 383.929,-24.3683 L 383.819,-23.4389 L 383.541,-22.6503 L 383.105,-21.9368 L 382.53,-21.3296 L 381.841,-20.8552
 L 381.069,-20.5343 L 380.247,-20.381 z
M 1175.65,-20.5343 L 1174.87,-20.8552 L 1174.18,-21.3296 L 1173.61,-21.9368 L 1173.17,-22.6503 L 1172.9,-23.4389
 L 1172.79,-24.3683 L 1172.79,-58 L 1172.87,-58.8316 L 1173.13,-59.627 L 1173.55,-60.3511 L 1174.11,-60.9726
 L 1174.79,-61.4641 L 1175.55,-61.8042 L 1176.79,-62 L 1272.1,-62 L 1272.93,-61.9126 L 1273.73,-61.6542
 L 1274.45,-61.2361 L 1275.07,-60.6765 L 1275.56,-60 L 1275.9,-59.2361 L 1276.08,-58.4181 L 1276.08,-57.5819
 L 1275.9,-56.7639 L 1275.56,-56 L 1275.07,-55.3235 L 1274.45,-54.7639 L 1273.43,-54.2279 L 1178.12,-20.5963
 L 1177.3,-20.4019 L 1176.47,-20.381 z
M 186.697,-20.4019 L 185.883,-20.5963 L 90.57,-54.2279 L 89.5498,-54.7639 L 88.9284,-55.3235 L 88.4369,-56
 L 88.0967,-56.7639 L 87.9229,-57.5819 L 87.9229,-58.4181 L 88.0967,-59.2361 L 88.4369,-60 L 88.9284,-60.6765
 L 89.5498,-61.2361 L 90.274,-61.6542 L 91.0693,-61.9126 L 91.901,-62 L 187.214,-62 L 188.45,-61.8042
 L 189.214,-61.4641 L 189.891,-60.9726 L 190.45,-60.3511 L 190.868,-59.627 L 191.127,-58.8316 L 191.214,-58
 L 191.214,-24.3683 L 191.105,-23.4389 L 190.827,-22.6503 L 190.39,-21.9368 L 189.815,-21.3296 L 189.127,-20.8552
 L 188.355,-20.5343 L 187.533,-20.381 z
M 982.931,-20.5343 L 982.159,-20.8552 L 981.47,-21.3296 L 980.895,-21.9368 L 980.459,-22.6503 L 980.181,-23.4389
 L 980.071,-24.3683 L 980.071,-58 L 980.159,-58.8316 L 980.417,-59.627 L 980.835,-60.3511 L 981.395,-60.9726
 L 982.071,-61.4641 L 982.835,-61.8042 L 984.071,-62 L 1079.38,-62 L 1080.22,-61.9126 L 1081.01,-61.6542
 L 1081.74,-61.2361 L 1082.36,-60.6765 L 1082.85,-60 L 1083.19,-59.2361 L 1083.36,-58.4181 L 1083.36,-57.5819
 L 1083.19,-56.7639 L 1082.85,-56 L 1082.36,-55.3235 L 1081.74,-54.7639 L 1080.72,-54.2279 L 985.402,-20.5963
 L 984.589,-20.4019 L 983.753,-20.381 z
M 598.225,-18.2701 L 597.407,-18.4439 L 596.643,-18.784 L 595.966,-19.2756 L 595.407,-19.897 L 594.989,-20.6212
 L 594.73,-21.4165 L 594.643,-22.2481 L 594.643,-57.7519 L 594.752,-58.6813 L 595.031,-59.4698 L 595.467,-60.1833
 L 596.042,-60.7906 L 596.73,-61.265 L 597.502,-61.5859 L 598.325,-61.7392 L 599.16,-61.7182 L 599.974,-61.5239
 L 650.283,-43.7721 L 650.865,-43.5131 L 651.553,-43.0387 L 652.128,-42.4315 L 652.564,-41.718 L 652.843,-40.9294
 L 652.951,-40.1002 L 652.884,-39.2666 L 652.646,-38.4651 L 652.246,-37.7307 L 651.702,-37.0954 L 651.038,-36.5871
 L 650.283,-36.2279 L 599.974,-18.4761 L 599.061,-18.2701 z
M 764.839,-18.2818 L 764.026,-18.4761 L 713.717,-36.2279 L 713.135,-36.4869 L 712.447,-36.9613 L 711.872,-37.5685
 L 711.435,-38.282 L 711.157,-39.0706 L 711.049,-39.8998 L 711.116,-40.7334 L 711.354,-41.5349 L 711.754,-42.2693
 L 712.298,-42.9046 L 712.962,-43.4129 L 713.717,-43.7721 L 764.026,-61.5239 L 764.939,-61.73 L 765.775,-61.73
 L 766.593,-61.5561 L 767.357,-61.216 L 768.034,-60.7245 L 768.593,-60.103 L 769.011,-59.3788 L 769.27,-58.5835
 L 769.357,-57.7519 L 769.357,-22.2481 L 769.248,-21.3187 L 768.969,-20.5301 L 768.533,-19.8167 L 767.958,-19.2094
 L 767.27,-18.735 L 766.497,-18.4141 L 765.675,-18.2608 z
M 213.214,-18 L 211.978,-18.1958 L 211.214,-18.5359 L 210.538,-19.0274 L 209.978,-19.6489 L 209.56,-20.373
 L 209.302,-21.1684 L 209.214,-22 L 209.214,-55.6317 L 209.324,-56.5611 L 209.602,-57.3497 L 210.038,-58.0631
 L 210.613,-58.6704 L 211.302,-59.1448 L 212.074,-59.4657 L 212.896,-59.619 L 213.732,-59.598 L 214.545,-59.4037
 L 309.859,-25.7721 L 310.879,-25.2361 L 311.5,-24.6765 L 311.992,-24 L 312.332,-23.2361 L 312.506,-22.4181
 L 312.506,-21.5819 L 312.332,-20.7639 L 311.992,-20 L 311.5,-19.3235 L 310.879,-18.7639 L 310.155,-18.3458
 L 309.359,-18.0874 L 308.528,-18 z
M 405.929,-18 L 404.692,-18.1958 L 403.929,-18.5359 L 403.252,-19.0274 L 402.692,-19.6489 L 402.274,-20.373
 L 402.016,-21.1684 L 401.929,-22 L 401.929,-55.6317 L 402.038,-56.5611 L 402.316,-57.3497 L 402.752,-58.0631
 L 403.327,-58.6704 L 404.016,-59.1448 L 404.788,-59.4657 L 405.61,-59.619 L 406.446,-59.598 L 407.26,-59.4037
 L 502.573,-25.7721 L 503.593,-25.2361 L 504.214,-24.6765 L 504.706,-24 L 505.046,-23.2361 L 505.22,-22.4181
 L 505.22,-21.5819 L 505.046,-20.7639 L 504.706,-20 L 504.214,-19.3235 L 503.593,-18.7639 L 502.869,-18.3458
 L 502.074,-18.0874 L 501.242,-18 z
M 862.758,-18 L 861.926,-18.0874 L 861.131,-18.3458 L 860.407,-18.7639 L 859.786,-19.3235 L 859.294,-20
 L 858.954,-20.7639 L 858.78,-21.5819 L 858.78,-22.4181 L 858.954,-23.2361 L 859.294,-24 L 859.786,-24.6765
 L 860.407,-25.2361 L 861.427,-25.7721 L 956.74,-59.4037 L 957.554,-59.598 L 958.39,-59.619 L 959.212,-59.4657
 L 959.984,-59.1448 L 960.673,-58.6704 L 961.248,-58.0631 L 961.684,-57.3497 L 961.962,-56.5611 L 962.071,-55.6317
 L 962.071,-22 L 961.984,-21.1684 L 961.726,-20.373 L 961.307,-19.6489 L 960.748,-19.0274 L 960.071,-18.5359
 L 959.307,-18.1958 L 958.071,-18 z
M 1055.47,-18 L 1054.64,-18.0874 L 1053.85,-18.3458 L 1053.12,-18.7639 L 1052.5,-19.3235 L 1052.01,-20
 L 1051.67,-20.7639 L 1051.49,-21.5819 L 1051.49,-22.4181 L 1051.67,-23.2361 L 1052.01,-24 L 1052.5,-24.6765
 L 1053.12,-25.2361 L 1054.14,-25.7721 L 1149.45,-59.4037 L 1150.27,-59.598 L 1151.1,-59.619 L 1151.93,-59.4657
 L 1152.7,-59.1448 L 1153.39,-58.6704 L 1153.96,-58.0631 L 1154.4,-57.3497 L 1154.68,-56.5611 L 1154.79,-55.6317
 L 1154.79,-22 L 1154.7,-21.1684 L 1154.44,-20.373 L 1154.02,-19.6489 L 1153.46,-19.0274 L 1152.79,-18.5359
 L 1152.02,-18.1958 L 1150.79,-18 z
M 22,-18 L 20.7639,-18.1958 L 20,-18.5359 L 19.3235,-19.0274 L 18.7639,-19.6489 L 18.3458,-20.373
 L 18.0874,-21.1684 L 18,-22 L 18,-55.1024 L 18.1095,-56.0318 L 18.3877,-56.8204 L 18.8239,-57.5339
 L 19.3988,-58.1411 L 20.0874,-58.6155 L 20.8596,-58.9364 L 21.6817,-59.0897 L 22.5176,-59.0688 L 23.331,-58.8745
 L 117.144,-25.7721 L 118.164,-25.2361 L 118.786,-24.6765 L 119.277,-24 L 119.618,-23.2361 L 119.791,-22.4181
 L 119.791,-21.5819 L 119.618,-20.7639 L 119.277,-20 L 118.786,-19.3235 L 118.164,-18.7639 L 117.44,-18.3458
 L 116.645,-18.0874 L 115.813,-18 z
M 1248.19,-18 L 1247.36,-18.0874 L 1246.56,-18.3458 L 1245.84,-18.7639 L 1245.21,-19.3235 L 1244.72,-20
 L 1244.38,-20.7639 L 1244.21,-21.5819 L 1244.21,-22.4181 L 1244.38,-23.2361 L 1244.72,-24 L 1245.21,-24.6765
 L 1245.84,-25.2361 L 1246.86,-25.7721 L 1340.67,-58.8745 L 1341.48,-59.0688 L 1342.32,-59.0897 L 1343.14,-58.9364
 L 1343.91,-58.6155 L 1344.6,-58.1411 L 1345.18,-57.5339 L 1345.61,-56.8204 L 1345.89,-56.0318 L 1346,-55.1024
 L 1346,-22 L 1345.91,-21.1684 L 1345.65,-20.373 L 1345.24,-19.6489 L 1344.68,-19.0274 L 1344,-18.5359
 L 1343.24,-18.1958 L 1342,-18 z
M 664.035,-18 L 662.895,-18.166 L 662.123,-18.4869 L 661.434,-18.9613 L 660.859,-19.5685 L 660.423,-20.282
 L 660.145,-21.0706 L 660.036,-21.8998 L 660.103,-22.7334 L 660.341,-23.5349 L 660.741,-24.2693 L 661.285,-24.9046
 L 661.949,-25.4129 L 662.704,-25.7721 L 680.669,-32.111 L 681.682,-32.3263 L 682.518,-32.3053 L 683.331,-32.111
 L 701.296,-25.7721 L 702.316,-25.2361 L 702.937,-24.6765 L 703.429,-24 L 703.769,-23.2361 L 703.943,-22.4181
 L 703.943,-21.5819 L 703.769,-20.7639 L 703.429,-20 L 702.937,-19.3235 L 702.316,-18.7639 L 701.592,-18.3458
 L 700.796,-18.0874 L 699.965,-18 z
" stroke="black" fill="lightgray" stroke-width="0.5"/>
</svg>
