<?xml version="1.0" standalone="no"?>
<!DOCTYPE svg PUBLIC "-//W3C//DTD SVG 1.1//EN" "http://www.w3.org/Graphics/SVG/1.1/DTD/svg11.dtd">
<svg width="1201mm" height="80mm" viewBox="0 -80 1201 80" xmlns="http://www.w3.org/2000/svg" version="1.1">
<title>OpenSCAD Model</title>
<path d="
M 1201,-80 L 0,-80 L 0,-0 L 4.95,-0 L 4.95,-6 L 5.00572,-6.53017
 L 5.17046,-7.03717 L 5.437,-7.49884 L 5.79372,-7.895 L 6.22499,-8.20836 L 6.71201,-8.42519 L 7.23344,-8.53603
 L 7.76654,-8.53603 L 8.28798,-8.42519 L 8.77499,-8.20836 L 9.20627,-7.895 L 9.56299,-7.49884 L 9.82953,-7.03717
 L 9.99426,-6.53017 L 10.05,-6 L 10.05,-0 L 174.379,-0 L 174.379,-6 L 174.434,-6.53017
 L 174.599,-7.03717 L 174.866,-7.49884 L 175.222,-7.895 L 175.654,-8.20836 L 176.141,-8.42519 L 176.662,-8.53603
 L 177.195,-8.53603 L 177.717,-8.42519 L 178.204,-8.20836 L 178.635,-7.895 L 178.992,-7.49884 L 179.258,-7.03717
 L 179.423,-6.53017 L 179.479,-6 L 179.479,-0 L 343.807,-0 L 343.807,-6 L 343.863,-6.53017
 L 344.028,-7.03717 L 344.294,-7.49884 L 344.651,-7.895 L 345.082,-8.20836 L 345.569,-8.42519 L 346.091,-8.53603
 L 346.624,-8.53603 L 347.145,-8.42519 L 347.632,-8.20836 L 348.063,-7.895 L 348.42,-7.49884 L 348.687,-7.03717
 L 348.851,-6.53017 L 348.907,-6 L 348.907,-0 L 513.236,-0 L 513.236,-6 L 513.291,-6.53017
 L 513.456,-7.03717 L 513.723,-7.49884 L 514.079,-7.895 L 514.511,-8.20836 L 514.998,-8.42519 L 515.519,-8.53603
 L 516.052,-8.53603 L 516.574,-8.42519 L 517.061,-8.20836 L 517.492,-7.895 L 517.849,-7.49884 L 518.115,-7.03717
 L 518.28,-6.53017 L 518.336,-6 L 518.336,-0 L 682.664,-0 L 682.664,-6 L 682.72,-6.53017
 L 682.885,-7.03717 L 683.151,-7.49884 L 683.508,-7.895 L 683.939,-8.20836 L 684.426,-8.42519 L 684.948,-8.53603
 L 685.481,-8.53603 L 686.002,-8.42519 L 686.489,-8.20836 L 686.921,-7.895 L 687.277,-7.49884 L 687.544,-7.03717
 L 687.709,-6.53017 L 687.764,-6 L 687.764,-0 L 852.093,-0 L 852.093,-6 L 852.149,-6.53017
 L 852.313,-7.03717 L 852.58,-7.49884 L 852.937,-7.895 L 853.368,-8.20836 L 853.855,-8.42519 L 854.376,-8.53603
 L 854.909,-8.53603 L 855.431,-8.42519 L 855.918,-8.20836 L 856.349,-7.895 L 856.706,-7.49884 L 856.972,-7.03717
 L 857.137,-6.53017 L 857.193,-6 L 857.193,-0 L 1021.52,-0 L 1021.52,-6 L 1021.58,-6.53017
 L 1021.74,-7.03717 L 1022.01,-7.49884 L 1022.37,-7.895 L 1022.8,-8.20836 L 1023.28,-8.42519 L 1023.8,-8.53603
 L 1024.34,-8.53603 L 1024.86,-8.42519 L 1025.35,-8.20836 L 1025.78,-7.895 L 1026.13,-7.49884 L 1026.4,-7.03717
 L 1026.57,-6.53017 L 1026.62,-6 L 1026.62,-0 L 1190.95,-0 L 1190.95,-6 L 1191.01,-6.53017
 L 1191.17,-7.03717 L 1191.44,-7.49884 L 1191.79,-7.895 L 1192.22,-8.20836 L 1192.71,-8.42519 L 1193.23,-8.53603
 L 1193.77,-8.53603 L 1194.29,-8.42519 L 1194.77,-8.20836 L 1195.21,-7.895 L 1195.56,-7.49884 L 1195.83,-7.03717
 L 1195.99,-6.53017 L 1196.05,-6 L 1196.05,-0 L 1201,-0 z
M 6.98573,-55.607 L 6.47708,-55.6875 L 5.97964,-55.8208 L 5.49887,-56.0054 L 5.04001,-56.2392 L 4.60811,-56.5196
 L 4.20789,-56.8437 L 3.84373,-57.2079 L 3.51964,-57.6081 L 3.23917,-58.04 L 3.00537,-58.4989 L 2.82082,-58.9796
 L 2.68752,-59.4771 L 2.60696,-59.9857 L 2.58,-60.5 L 2.60696,-61.0143 L 2.68752,-61.5229 L 2.82082,-62.0204
 L 3.00537,-62.5011 L 3.23917,-62.96 L 3.51964,-63.3919 L 3.84373,-63.7921 L 4.20789,-64.1563 L 4.60811,-64.4804
 L 4.95001,-64.7024 L 4.95001,-74 L 5.00574,-74.5302 L 5.17047,-75.0372 L 5.43701,-75.4988 L 5.79373,-75.895
 L 6.22501,-76.2084 L 6.71202,-76.4252 L 7.23346,-76.536 L 7.76654,-76.536 L 8.28798,-76.4252 L 8.77499,-76.2084
 L 9.20627,-75.895 L 9.56299,-75.4988 L 9.82953,-75.0372 L 9.99426,-74.5302 L 10.05,-74 L 10.05,-64.7024
 L 10.3919,-64.4804 L 10.7921,-64.1563 L 11.1563,-63.7921 L 11.4804,-63.3919 L 11.7608,-62.96 L 11.9946,-62.5011
 L 12.1792,-62.0204 L 12.3125,-61.5229 L 12.393,-61.0143 L 12.42,-60.5 L 12.393,-59.9857 L 12.3125,-59.4771
 L 12.1792,-58.9796 L 11.9946,-58.4989 L 11.7608,-58.04 L 11.4804,-57.6081 L 11.1563,-57.2079 L 10.7921,-56.8437
 L 10.3919,-56.5196 L 9.95999,-56.2392 L 9.50113,-56.0054 L 9.02036,-55.8208 L 8.52292,-55.6875 L 8.01427,-55.607
 L 7.5,-55.58 z
M 176.414,-55.607 L 175.906,-55.6875 L 175.408,-55.8208 L 174.927,-56.0054 L 174.469,-56.2392 L 174.037,-56.5196
 L 173.636,-56.8437 L 173.272,-57.2079 L 172.948,-57.6081 L 172.668,-58.04 L 172.434,-58.4989 L 172.249,-58.9796
 L 172.116,-59.4771 L 172.036,-59.9857 L 172.009,-60.5 L 172.036,-61.0143 L 172.116,-61.5229 L 172.249,-62.0204
 L 172.434,-62.5011 L 172.668,-62.96 L 172.948,-63.3919 L 173.272,-63.7921 L 173.636,-64.1563 L 174.037,-64.4804
 L 174.379,-64.7024 L 174.379,-74 L 174.434,-74.5302 L 174.599,-75.0372 L 174.866,-75.4988 L 175.222,-75.895
 L 175.654,-76.2084 L 176.141,-76.4252 L 176.662,-76.536 L 177.195,-76.536 L 177.717,-76.4252 L 178.204,-76.2084
 L 178.635,-75.895 L 178.992,-75.4988 L 179.258,-75.0372 L 179.423,-74.5302 L 179.479,-74 L 179.479,-64.7024
 L 179.82,-64.4804 L 180.221,-64.1563 L 180.585,-63.7921 L 180.909,-63.3919 L 181.189,-62.96 L 181.423,-62.5011
 L 181.608,-62.0204 L 181.741,-61.5229 L 181.822,-61.0143 L 181.849,-60.5 L 181.822,-59.9857 L 181.741,-59.4771
 L 181.608,-58.9796 L 181.423,-58.4989 L 181.189,-58.04 L 180.909,-57.6081 L 180.585,-57.2079 L 180.221,-56.8437
 L 179.82,-56.5196 L 179.389,-56.2392 L 178.93,-56.0054 L 178.449,-55.8208 L 177.951,-55.6875 L 177.443,-55.607
 L 176.929,-55.58 z
M 345.843,-55.607 L 345.334,-55.6875 L 344.837,-55.8208 L 344.356,-56.0054 L 343.897,-56.2392 L 343.465,-56.5196
 L 343.065,-56.8437 L 342.701,-57.2079 L 342.377,-57.6081 L 342.096,-58.04 L 341.863,-58.4989 L 341.678,-58.9796
 L 341.545,-59.4771 L 341.464,-59.9857 L 341.437,-60.5 L 341.464,-61.0143 L 341.545,-61.5229 L 341.678,-62.0204
 L 341.863,-62.5011 L 342.096,-62.96 L 342.377,-63.3919 L 342.701,-63.7921 L 343.065,-64.1563 L 343.465,-64.4804
 L 343.807,-64.7024 L 343.807,-74 L 343.863,-74.5302 L 344.028,-75.0372 L 344.294,-75.4988 L 344.651,-75.895
 L 345.082,-76.2084 L 345.569,-76.4252 L 346.091,-76.536 L 346.624,-76.536 L 347.145,-76.4252 L 347.632,-76.2084
 L 348.063,-75.895 L 348.42,-75.4988 L 348.687,-75.0372 L 348.851,-74.5302 L 348.907,-74 L 348.907,-64.7024
 L 349.249,-64.4804 L 349.649,-64.1563 L 350.013,-63.7921 L 350.337,-63.3919 L 350.618,-62.96 L 350.852,-62.5011
 L 351.036,-62.0204 L 351.17,-61.5229 L 351.25,-61.0143 L 351.277,-60.5 L 351.25,-59.9857 L 351.17,-59.4771
 L 351.036,-58.9796 L 350.852,-58.4989 L 350.618,-58.04 L 350.337,-57.6081 L 350.013,-57.2079 L 349.649,-56.8437
 L 349.249,-56.5196 L 348.817,-56.2392 L 348.358,-56.0054 L 347.877,-55.8208 L 347.38,-55.6875 L 346.871,-55.607
 L 346.357,-55.58 z
M 515.271,-55.607 L 514.763,-55.6875 L 514.265,-55.8208 L 513.785,-56.0054 L 513.326,-56.2392 L 512.894,-56.5196
 L 512.494,-56.8437 L 512.129,-57.2079 L 511.805,-57.6081 L 511.525,-58.04 L 511.291,-58.4989 L 511.107,-58.9796
 L 510.973,-59.4771 L 510.893,-59.9857 L 510.866,-60.5 L 510.893,-61.0143 L 510.973,-61.5229 L 511.107,-62.0204
 L 511.291,-62.5011 L 511.525,-62.96 L 511.805,-63.3919 L 512.129,-63.7921 L 512.494,-64.1563 L 512.894,-64.4804
 L 513.236,-64.7024 L 513.236,-74 L 513.291,-74.5302 L 513.456,-75.0372 L 513.723,-75.4988 L 514.079,-75.895
 L 514.511,-76.2084 L 514.998,-76.4252 L 515.519,-76.536 L 516.052,-76.536 L 516.574,-76.4252 L 517.061,-76.2084
 L 517.492,-75.895 L 517.849,-75.4988 L 518.115,-75.0372 L 518.28,-74.5302 L 518.336,-74 L 518.336,-64.7024
 L 518.678,-64.4804 L 519.078,-64.1563 L 519.442,-63.7921 L 519.766,-63.3919 L 520.047,-62.96 L 520.28,-62.5011
 L 520.465,-62.0204 L 520.598,-61.5229 L 520.679,-61.0143 L 520.706,-60.5 L 520.679,-59.9857 L 520.598,-59.4771
 L 520.465,-58.9796 L 520.28,-58.4989 L 520.047,-58.04 L 519.766,-57.6081 L 519.442,-57.2079 L 519.078,-56.8437
 L 518.678,-56.5196 L 518.246,-56.2392 L 517.787,-56.0054 L 517.306,-55.8208 L 516.809,-55.6875 L 516.3,-55.607
 L 515.786,-55.58 z
M 684.7,-55.607 L 684.191,-55.6875 L 683.694,-55.8208 L 683.213,-56.0054 L 682.754,-56.2392 L 682.322,-56.5196
 L 681.922,-56.8437 L 681.558,-57.2079 L 681.234,-57.6081 L 680.953,-58.04 L 680.72,-58.4989 L 680.535,-58.9796
 L 680.402,-59.4771 L 680.321,-59.9857 L 680.294,-60.5 L 680.321,-61.0143 L 680.402,-61.5229 L 680.535,-62.0204
 L 680.72,-62.5011 L 680.953,-62.96 L 681.234,-63.3919 L 681.558,-63.7921 L 681.922,-64.1563 L 682.322,-64.4804
 L 682.664,-64.7024 L 682.664,-74 L 682.72,-74.5302 L 682.885,-75.0372 L 683.151,-75.4988 L 683.508,-75.895
 L 683.939,-76.2084 L 684.426,-76.4252 L 684.948,-76.536 L 685.481,-76.536 L 686.002,-76.4252 L 686.489,-76.2084
 L 686.921,-75.895 L 687.277,-75.4988 L 687.544,-75.0372 L 687.709,-74.5302 L 687.764,-74 L 687.764,-64.7024
 L 688.106,-64.4804 L 688.506,-64.1563 L 688.871,-63.7921 L 689.195,-63.3919 L 689.475,-62.96 L 689.709,-62.5011
 L 689.893,-62.0204 L 690.027,-61.5229 L 690.107,-61.0143 L 690.134,-60.5 L 690.107,-59.9857 L 690.027,-59.4771
 L 689.893,-58.9796 L 689.709,-58.4989 L 689.475,-58.04 L 689.195,-57.6081 L 688.871,-57.2079 L 688.506,-56.8437
 L 688.106,-56.5196 L 687.674,-56.2392 L 687.215,-56.0054 L 686.735,-55.8208 L 686.237,-55.6875 L 685.729,-55.607
 L 685.214,-55.58 z
M 854.129,-55.607 L 853.62,-55.6875 L 853.122,-55.8208 L 852.642,-56.0054 L 852.183,-56.2392 L 851.751,-56.5196
 L 851.351,-56.8437 L 850.987,-57.2079 L 850.662,-57.6081 L 850.382,-58.04 L 850.148,-58.4989 L 849.964,-58.9796
 L 849.83,-59.4771 L 849.75,-59.9857 L 849.723,-60.5 L 849.75,-61.0143 L 849.83,-61.5229 L 849.964,-62.0204
 L 850.148,-62.5011 L 850.382,-62.96 L 850.662,-63.3919 L 850.987,-63.7921 L 851.351,-64.1563 L 851.751,-64.4804
 L 852.093,-64.7024 L 852.093,-74 L 852.149,-74.5302 L 852.313,-75.0372 L 852.58,-75.4988 L 852.937,-75.895
 L 853.368,-76.2084 L 853.855,-76.4252 L 854.376,-76.536 L 854.909,-76.536 L 855.431,-76.4252 L 855.918,-76.2084
 L 856.349,-75.895 L 856.706,-75.4988 L 856.972,-75.0372 L 857.137,-74.5302 L 857.193,-74 L 857.193,-64.7024
 L 857.535,-64.4804 L 857.935,-64.1563 L 858.299,-63.7921 L 858.623,-63.3919 L 858.904,-62.96 L 859.137,-62.5011
 L 859.322,-62.0204 L 859.455,-61.5229 L 859.536,-61.0143 L 859.563,-60.5 L 859.536,-59.9857 L 859.455,-59.4771
 L 859.322,-58.9796 L 859.137,-58.4989 L 858.904,-58.04 L 858.623,-57.6081 L 858.299,-57.2079 L 857.935,-56.8437
 L 857.535,-56.5196 L 857.103,-56.2392 L 856.644,-56.0054 L 856.163,-55.8208 L 855.666,-55.6875 L 855.157,-55.607
 L 854.643,-55.58 z
M 1023.56,-55.607 L 1023.05,-55.6875 L 1022.55,-55.8208 L 1022.07,-56.0054 L 1021.61,-56.2392 L 1021.18,-56.5196
 L 1020.78,-56.8437 L 1020.42,-57.2079 L 1020.09,-57.6081 L 1019.81,-58.04 L 1019.58,-58.4989 L 1019.39,-58.9796
 L 1019.26,-59.4771 L 1019.18,-59.9857 L 1019.15,-60.5 L 1019.18,-61.0143 L 1019.26,-61.5229 L 1019.39,-62.0204
 L 1019.58,-62.5011 L 1019.81,-62.96 L 1020.09,-63.3919 L 1020.42,-63.7921 L 1020.78,-64.1563 L 1021.18,-64.4804
 L 1021.52,-64.7024 L 1021.52,-74 L 1021.58,-74.5302 L 1021.74,-75.0372 L 1022.01,-75.4988 L 1022.37,-75.895
 L 1022.8,-76.2084 L 1023.28,-76.4252 L 1023.8,-76.536 L 1024.34,-76.536 L 1024.86,-76.4252 L 1025.35,-76.2084
 L 1025.78,-75.895 L 1026.13,-75.4988 L 1026.4,-75.0372 L 1026.57,-74.5302 L 1026.62,-74 L 1026.62,-64.7024
 L 1026.96,-64.4804 L 1027.36,-64.1563 L 1027.73,-63.7921 L 1028.05,-63.3919 L 1028.33,-62.96 L 1028.57,-62.5011
 L 1028.75,-62.0204 L 1028.88,-61.5229 L 1028.96,-61.0143 L 1028.99,-60.5 L 1028.96,-59.9857 L 1028.88,-59.4771
 L 1028.75,-58.9796 L 1028.57,-58.4989 L 1028.33,-58.04 L 1028.05,-57.6081 L 1027.73,-57.2079 L 1027.36,-56.8437
 L 1026.96,-56.5196 L 1026.53,-56.2392 L 1026.07,-56.0054 L 1025.59,-55.8208 L 1025.09,-55.6875 L 1024.59,-55.607
 L 1024.07,-55.58 z
M 1192.99,-55.607 L 1192.48,-55.6875 L 1191.98,-55.8208 L 1191.5,-56.0054 L 1191.04,-56.2392 L 1190.61,-56.5196
 L 1190.21,-56.8437 L 1189.84,-57.2079 L 1189.52,-57.6081 L 1189.24,-58.04 L 1189.01,-58.4989 L 1188.82,-58.9796
 L 1188.69,-59.4771 L 1188.61,-59.9857 L 1188.58,-60.5 L 1188.61,-61.0143 L 1188.69,-61.5229 L 1188.82,-62.0204
 L 1189.01,-62.5011 L 1189.24,-62.96 L 1189.52,-63.3919 L 1189.84,-63.7921 L 1190.21,-64.1563 L 1190.61,-64.4804
 L 1190.95,-64.7024 L 1190.95,-74 L 1191.01,-74.5302 L 1191.17,-75.0372 L 1191.44,-75.4988 L 1191.79,-75.895
 L 1192.23,-76.2084 L 1192.71,-76.4252 L 1193.23,-76.536 L 1193.77,-76.536 L 1194.29,-76.4252 L 1194.77,-76.2084
 L 1195.21,-75.895 L 1195.56,-75.4988 L 1195.83,-75.0372 L 1195.99,-74.5302 L 1196.05,-74 L 1196.05,-64.7024
 L 1196.39,-64.4804 L 1196.79,-64.1563 L 1197.16,-63.7921 L 1197.48,-63.3919 L 1197.76,-62.96 L 1197.99,-62.5011
 L 1198.18,-62.0204 L 1198.31,-61.5229 L 1198.39,-61.0143 L 1198.42,-60.5 L 1198.39,-59.9857 L 1198.31,-59.4771
 L 1198.18,-58.9796 L 1197.99,-58.4989 L 1197.76,-58.04 L 1197.48,-57.6081 L 1197.16,-57.2079 L 1196.79,-56.8437
 L 1196.39,-56.5196 L 1195.96,-56.2392 L 1195.5,-56.0054 L 1195.02,-55.8208 L 1194.52,-55.6875 L 1194.01,-55.607
 L 1193.5,-55.58 z
M 697.238,-21.3369 L 696.453,-21.6247 L 695.744,-22.0694 L 695.144,-22.6517 L 694.678,-23.346 L 694.367,-24.1221
 L 694.214,-25.2158 L 694.214,-58 L 694.302,-58.8316 L 694.56,-59.627 L 694.978,-60.3511 L 695.538,-60.9726
 L 696.214,-61.4641 L 696.978,-61.8042 L 698.214,-62 L 779.899,-62 L 780.731,-61.9126 L 781.526,-61.6542
 L 782.25,-61.2361 L 782.872,-60.6765 L 783.363,-60 L 783.704,-59.2361 L 783.877,-58.4181 L 783.877,-57.5819
 L 783.704,-56.7639 L 783.363,-56 L 782.872,-55.3235 L 782.25,-54.7639 L 781.389,-54.2878 L 699.704,-21.5036
 L 698.9,-21.275 L 698.065,-21.2186 z
M 599.814,-47.9039 L 599.01,-48.1325 L 583.674,-54.2878 L 582.812,-54.7639 L 582.191,-55.3235 L 581.699,-56
 L 581.359,-56.7639 L 581.185,-57.5819 L 581.185,-58.4181 L 581.359,-59.2361 L 581.699,-60 L 582.191,-60.6765
 L 582.812,-61.2361 L 583.536,-61.6542 L 584.332,-61.9126 L 585.163,-62 L 615.837,-62 L 616.813,-61.8789
 L 617.598,-61.5911 L 618.306,-61.1464 L 618.907,-60.5641 L 619.373,-59.8698 L 619.684,-59.0937 L 619.827,-58.2698
 L 619.796,-57.4342 L 619.592,-56.6233 L 619.224,-55.8725 L 618.708,-55.2147 L 618.066,-54.6787 L 617.326,-54.2878
 L 601.99,-48.1325 L 601.477,-47.9657 L 600.649,-47.8474 z
M 502.1,-21.275 L 501.296,-21.5036 L 419.611,-54.2878 L 418.75,-54.7639 L 418.128,-55.3235 L 417.637,-56
 L 417.296,-56.7639 L 417.123,-57.5819 L 417.123,-58.4181 L 417.296,-59.2361 L 417.637,-60 L 418.128,-60.6765
 L 418.75,-61.2361 L 419.474,-61.6542 L 420.269,-61.9126 L 421.101,-62 L 502.786,-62 L 504.022,-61.8042
 L 504.786,-61.4641 L 505.462,-60.9726 L 506.022,-60.3511 L 506.44,-59.627 L 506.698,-58.8316 L 506.786,-58
 L 506.786,-25.2158 L 506.633,-24.1221 L 506.322,-23.346 L 505.856,-22.6517 L 505.256,-22.0694 L 504.547,-21.6247
 L 503.762,-21.3369 L 502.934,-21.2186 z
M 332.672,-21.275 L 331.867,-21.5036 L 250.182,-54.2878 L 249.321,-54.7639 L 248.7,-55.3235 L 248.208,-56
 L 247.868,-56.7639 L 247.694,-57.5819 L 247.694,-58.4181 L 247.868,-59.2361 L 248.208,-60 L 248.7,-60.6765
 L 249.321,-61.2361 L 250.045,-61.6542 L 250.84,-61.9126 L 251.672,-62 L 333.357,-62 L 334.593,-61.8042
 L 335.357,-61.4641 L 336.034,-60.9726 L 336.593,-60.3511 L 337.011,-59.627 L 337.27,-58.8316 L 337.357,-58
 L 337.357,-25.2158 L 337.205,-24.1221 L 336.893,-23.346 L 336.427,-22.6517 L 335.827,-22.0694 L 335.119,-21.6247
 L 334.334,-21.3369 L 333.506,-21.2186 z
M 1036.09,-21.3369 L 1035.31,-21.6247 L 1034.6,-22.0694 L 1034,-22.6517 L 1033.54,-23.346 L 1033.22,-24.1221
 L 1033.07,-25.2158 L 1033.07,-58 L 1033.16,-58.8316 L 1033.42,-59.627 L 1033.84,-60.3511 L 1034.39,-60.9726
 L 1035.07,-61.4641 L 1035.84,-61.8042 L 1037.07,-62 L 1118.76,-62 L 1119.59,-61.9126 L 1120.38,-61.6542
 L 1121.11,-61.2361 L 1121.73,-60.6765 L 1122.22,-60 L 1122.56,-59.2361 L 1122.73,-58.4181 L 1122.73,-57.5819
 L 1122.56,-56.7639 L 1122.22,-56 L 1121.73,-55.3235 L 1121.11,-54.7639 L 1120.25,-54.2878 L 1038.56,-21.5036
 L 1037.76,-21.275 L 1036.92,-21.2186 z
M 163.243,-21.275 L 162.439,-21.5036 L 80.7536,-54.2878 L 79.8924,-54.7639 L 79.271,-55.3235 L 78.7794,-56
 L 78.4393,-56.7639 L 78.2654,-57.5819 L 78.2654,-58.4181 L 78.4393,-59.2361 L 78.7794,-60 L 79.271,-60.6765
 L 79.8924,-61.2361 L 80.6166,-61.6542 L 81.4119,-61.9126 L 82.2435,-62 L 163.929,-62 L 165.165,-61.8042
 L 165.929,-61.4641 L 166.605,-60.9726 L 167.165,-60.3511 L 167.583,-59.627 L 167.841,-58.8316 L 167.929,-58
 L 167.929,-25.2158 L 167.776,-24.1221 L 167.465,-23.346 L 166.999,-22.6517 L 166.398,-22.0694 L 165.69,-21.6247
 L 164.905,-21.3369 L 164.077,-21.2186 z
M 866.666,-21.3369 L 865.881,-21.6247 L 865.173,-22.0694 L 864.573,-22.6517 L 864.107,-23.346 L 863.795,-24.1221
 L 863.643,-25.2158 L 863.643,-58 L 863.73,-58.8316 L 863.989,-59.627 L 864.407,-60.3511 L 864.966,-60.9726
 L 865.643,-61.4641 L 866.407,-61.8042 L 867.643,-62 L 949.328,-62 L 950.16,-61.9126 L 950.955,-61.6542
 L 951.679,-61.2361 L 952.3,-60.6765 L 952.792,-60 L 953.132,-59.2361 L 953.306,-58.4181 L 953.306,-57.5819
 L 953.132,-56.7639 L 952.792,-56 L 952.3,-55.3235 L 951.679,-54.7639 L 950.818,-54.2878 L 869.133,-21.5036
 L 868.328,-21.275 L 867.494,-21.2186 z
M 528.368,-19.0841 L 527.55,-19.258 L 526.786,-19.5981 L 526.109,-20.0896 L 525.55,-20.7111 L 525.132,-21.4353
 L 524.873,-22.2306 L 524.786,-23.0622 L 524.786,-56.9378 L 524.938,-58.0315 L 525.25,-58.8075 L 525.716,-59.5019
 L 526.316,-60.0841 L 527.024,-60.5289 L 527.809,-60.8167 L 528.637,-60.935 L 529.471,-60.8786 L 530.276,-60.6499
 L 572.478,-43.7122 L 573.458,-43.1464 L 574.058,-42.5641 L 574.524,-41.8698 L 574.835,-41.0937 L 574.979,-40.2698
 L 574.948,-39.4342 L 574.743,-38.6233 L 574.375,-37.8725 L 573.859,-37.2148 L 573.217,-36.6787 L 572.478,-36.2878
 L 530.276,-19.3501 L 529.204,-19.0841 z
M 671.529,-19.1214 L 670.724,-19.35 L 628.522,-36.2878 L 627.542,-36.8536 L 626.942,-37.4359 L 626.476,-38.1302
 L 626.165,-38.9063 L 626.021,-39.7302 L 626.052,-40.5658 L 626.257,-41.3767 L 626.625,-42.1275 L 627.141,-42.7852
 L 627.783,-43.3213 L 628.522,-43.7122 L 670.724,-60.65 L 671.796,-60.9159 L 672.632,-60.9159 L 673.45,-60.742
 L 674.214,-60.4019 L 674.891,-59.9104 L 675.45,-59.2889 L 675.868,-58.5647 L 676.127,-57.7694 L 676.214,-56.9378
 L 676.214,-23.0622 L 676.062,-21.9685 L 675.75,-21.1925 L 675.284,-20.4981 L 674.684,-19.9158 L 673.976,-19.4711
 L 673.191,-19.1833 L 672.363,-19.065 z
M 189.929,-18 L 188.692,-18.1958 L 187.929,-18.5359 L 187.252,-19.0274 L 186.692,-19.6489 L 186.274,-20.373
 L 186.016,-21.1684 L 185.929,-22 L 185.929,-54.7842 L 186.081,-55.8779 L 186.392,-56.654 L 186.858,-57.3483
 L 187.459,-57.9306 L 188.167,-58.3753 L 188.952,-58.6631 L 189.78,-58.7814 L 190.614,-58.725 L 191.418,-58.4964
 L 273.103,-25.7122 L 273.965,-25.2361 L 274.586,-24.6765 L 275.078,-24 L 275.418,-23.2361 L 275.592,-22.4181
 L 275.592,-21.5819 L 275.418,-20.7639 L 275.078,-20 L 274.586,-19.3235 L 273.965,-18.7639 L 273.241,-18.3458
 L 272.445,-18.0874 L 271.614,-18 z
M 359.357,-18 L 358.121,-18.1958 L 357.357,-18.5359 L 356.681,-19.0274 L 356.121,-19.6489 L 355.703,-20.373
 L 355.445,-21.1684 L 355.357,-22 L 355.357,-54.7842 L 355.51,-55.8779 L 355.821,-56.654 L 356.287,-57.3483
 L 356.887,-57.9306 L 357.595,-58.3753 L 358.381,-58.6631 L 359.208,-58.7814 L 360.043,-58.725 L 360.847,-58.4964
 L 442.532,-25.7122 L 443.393,-25.2361 L 444.015,-24.6765 L 444.506,-24 L 444.846,-23.2361 L 445.02,-22.4181
 L 445.02,-21.5819 L 444.846,-20.7639 L 444.506,-20 L 444.015,-19.3235 L 443.393,-18.7639 L 442.669,-18.3458
 L 441.874,-18.0874 L 441.042,-18 z
M 759.958,-18 L 759.126,-18.0874 L 758.331,-18.3458 L 757.607,-18.7639 L 756.985,-19.3235 L 756.494,-20
 L 756.154,-20.7639 L 755.98,-21.5819 L 755.98,-22.4181 L 756.154,-23.2361 L 756.494,-24 L 756.985,-24.6765
 L 757.607,-25.2361 L 758.468,-25.7122 L 840.153,-58.4964 L 840.957,-58.725 L 841.792,-58.7814 L 842.619,-58.6631
 L 843.405,-58.3753 L 844.113,-57.9306 L 844.713,-57.3483 L 845.179,-56.654 L 845.49,-55.8779 L 845.643,-54.7842
 L 845.643,-22 L 845.555,-21.1684 L 845.297,-20.373 L 844.879,-19.6489 L 844.319,-19.0274 L 843.643,-18.5359
 L 842.879,-18.1958 L 841.643,-18 z
M 929.386,-18 L 928.555,-18.0874 L 927.759,-18.3458 L 927.035,-18.7639 L 926.414,-19.3235 L 925.922,-20
 L 925.582,-20.7639 L 925.408,-21.5819 L 925.408,-22.4181 L 925.582,-23.2361 L 925.922,-24 L 926.414,-24.6765
 L 927.035,-25.2361 L 927.897,-25.7122 L 1009.58,-58.4964 L 1010.39,-58.725 L 1011.22,-58.7814 L 1012.05,-58.6631
 L 1012.83,-58.3753 L 1013.54,-57.9306 L 1014.14,-57.3483 L 1014.61,-56.654 L 1014.92,-55.8779 L 1015.07,-54.7842
 L 1015.07,-22 L 1014.98,-21.1684 L 1014.73,-20.373 L 1014.31,-19.6489 L 1013.75,-19.0274 L 1013.07,-18.5359
 L 1012.31,-18.1958 L 1011.07,-18 z
M 22,-18 L 20.7639,-18.1958 L 20,-18.5359 L 19.3235,-19.0274 L 18.7639,-19.6489 L 18.3458,-20.373
 L 18.0874,-21.1684 L 18,-22 L 18,-54.1822 L 18.1524,-55.2759 L 18.4639,-56.0519 L 18.9299,-56.7463
 L 19.5301,-57.3285 L 20.2382,-57.7733 L 21.0234,-58.0611 L 21.8512,-58.1794 L 22.6855,-58.123 L 23.4899,-57.8943
 L 103.675,-25.7122 L 104.536,-25.2361 L 105.158,-24.6765 L 105.649,-24 L 105.989,-23.2361 L 106.163,-22.4181
 L 106.163,-21.5819 L 105.989,-20.7639 L 105.649,-20 L 105.158,-19.3235 L 104.536,-18.7639 L 103.812,-18.3458
 L 103.017,-18.0874 L 102.185,-18 z
M 1098.81,-18 L 1097.98,-18.0874 L 1097.19,-18.3458 L 1096.46,-18.7639 L 1095.84,-19.3235 L 1095.35,-20
 L 1095.01,-20.7639 L 1094.84,-21.5819 L 1094.84,-22.4181 L 1095.01,-23.2361 L 1095.35,-24 L 1095.84,-24.6765
 L 1096.46,-25.2361 L 1097.33,-25.7122 L 1177.51,-57.8943 L 1178.31,-58.123 L 1179.15,-58.1794 L 1179.98,-58.0611
 L 1180.76,-57.7733 L 1181.47,-57.3285 L 1182.07,-56.7463 L 1182.54,-56.0519 L 1182.85,-55.2759 L 1183,-54.1822
 L 1183,-22 L 1182.91,-21.1684 L 1182.65,-20.373 L 1182.24,-19.6489 L 1181.68,-19.0274 L 1181,-18.5359
 L 1180.24,-18.1958 L 1179,-18 z
M 585.163,-18 L 584.187,-18.1211 L 583.402,-18.4089 L 582.693,-18.8536 L 582.093,-19.4359 L 581.627,-20.1302
 L 581.316,-20.9063 L 581.173,-21.7302 L 581.204,-22.5658 L 581.408,-23.3767 L 581.776,-24.1275 L 582.292,-24.7853
 L 582.934,-25.3213 L 583.674,-25.7122 L 599.01,-31.8675 L 599.523,-32.0343 L 600.351,-32.1526 L 601.186,-32.0961
 L 601.99,-31.8675 L 617.326,-25.7122 L 618.188,-25.2361 L 618.809,-24.6765 L 619.301,-24 L 619.641,-23.2361
 L 619.815,-22.4181 L 619.815,-21.5819 L 619.641,-20.7639 L 619.301,-20 L 618.809,-19.3235 L 618.188,-18.7639
 L 617.464,-18.3458 L 616.668,-18.0874 L 615.837,-18 z
" stroke="black" fill="lightgray" stroke-width="0.5"/>
</svg>
