<?xml version="1.0" standalone="no"?>
<!DOCTYPE svg PUBLIC "-//W3C//DTD SVG 1.1//EN" "http://www.w3.org/Graphics/SVG/1.1/DTD/svg11.dtd">
<svg width="1645mm" height="80mm" viewBox="0 -80 1645 80" xmlns="http://www.w3.org/2000/svg" version="1.1">
<title>OpenSCAD Model</title>
<path d="
M 1645,-80 L 0,-80 L 0,-0 L 4.95,-0 L 4.95,-6 L 5.00572,-6.53017
 L 5.17046,-7.03717 L 5.437,-7.49884 L 5.79372,-7.895 L 6.22499,-8.20836 L 6.71201,-8.42519 L 7.23344,-8.53603
 L 7.76654,-8.53603 L 8.28798,-8.42519 L 8.77499,-8.20836 L 9.20627,-7.895 L 9.56299,-7.49884 L 9.82953,-7.03717
 L 9.99426,-6.53017 L 10.05,-6 L 10.05,-0 L 186.061,-0 L 186.061,-6 L 186.117,-6.53017
 L 186.282,-7.03717 L 186.548,-7.49884 L 186.905,-7.895 L 187.336,-8.20836 L 187.823,-8.42519 L 188.345,-8.53603
 L 188.878,-8.53603 L 189.399,-8.42519 L 189.886,-8.20836 L 190.317,-7.895 L 190.674,-7.49884 L 190.941,-7.03717
 L 191.105,-6.53017 L 191.161,-6 L 191.161,-0 L 367.172,-0 L 367.172,-6 L 367.228,-6.53017
 L 367.393,-7.03717 L 367.659,-7.49884 L 368.016,-7.895 L 368.447,-8.20836 L 368.934,-8.42519 L 369.456,-8.53603
 L 369.989,-8.53603 L 370.51,-8.42519 L 370.997,-8.20836 L 371.428,-7.895 L 371.785,-7.49884 L 372.052,-7.03717
 L 372.216,-6.53017 L 372.272,-6 L 372.272,-0 L 548.283,-0 L 548.283,-6 L 548.339,-6.53017
 L 548.504,-7.03717 L 548.77,-7.49884 L 549.127,-7.895 L 549.558,-8.20836 L 550.045,-8.42519 L 550.567,-8.53603
 L 551.1,-8.53603 L 551.621,-8.42519 L 552.108,-8.20836 L 552.54,-7.895 L 552.896,-7.49884 L 553.163,-7.03717
 L 553.328,-6.53017 L 553.383,-6 L 553.383,-0 L 729.394,-0 L 729.394,-6 L 729.45,-6.53017
 L 729.615,-7.03717 L 729.881,-7.49884 L 730.238,-7.895 L 730.669,-8.20836 L 731.156,-8.42519 L 731.678,-8.53603
 L 732.211,-8.53603 L 732.732,-8.42519 L 733.219,-8.20836 L 733.651,-7.895 L 734.007,-7.49884 L 734.274,-7.03717
 L 734.439,-6.53017 L 734.494,-6 L 734.494,-0 L 910.506,-0 L 910.506,-6 L 910.561,-6.53017
 L 910.726,-7.03717 L 910.993,-7.49884 L 911.349,-7.895 L 911.781,-8.20836 L 912.268,-8.42519 L 912.789,-8.53603
 L 913.322,-8.53603 L 913.844,-8.42519 L 914.331,-8.20836 L 914.762,-7.895 L 915.119,-7.49884 L 915.385,-7.03717
 L 915.55,-6.53017 L 915.606,-6 L 915.606,-0 L 1091.62,-0 L 1091.62,-6 L 1091.67,-6.53017
 L 1091.84,-7.03717 L 1092.1,-7.49884 L 1092.46,-7.895 L 1092.89,-8.20836 L 1093.38,-8.42519 L 1093.9,-8.53603
 L 1094.43,-8.53603 L 1094.95,-8.42519 L 1095.44,-8.20836 L 1095.87,-7.895 L 1096.23,-7.49884 L 1096.5,-7.03717
 L 1096.66,-6.53017 L 1096.72,-6 L 1096.72,-0 L 1272.73,-0 L 1272.73,-6 L 1272.78,-6.53017
 L 1272.95,-7.03717 L 1273.21,-7.49884 L 1273.57,-7.895 L 1274,-8.20836 L 1274.49,-8.42519 L 1275.01,-8.53603
 L 1275.54,-8.53603 L 1276.07,-8.42519 L 1276.55,-8.20836 L 1276.98,-7.895 L 1277.34,-7.49884 L 1277.61,-7.03717
 L 1277.77,-6.53017 L 1277.83,-6 L 1277.83,-0 L 1453.84,-0 L 1453.84,-6 L 1453.89,-6.53017
 L 1454.06,-7.03717 L 1454.33,-7.49884 L 1454.68,-7.895 L 1455.11,-8.20836 L 1455.6,-8.42519 L 1456.12,-8.53603
 L 1456.66,-8.53603 L 1457.18,-8.42519 L 1457.66,-8.20836 L 1458.1,-7.895 L 1458.45,-7.49884 L 1458.72,-7.03717
 L 1458.88,-6.53017 L 1458.94,-6 L 1458.94,-0 L 1634.95,-0 L 1634.95,-6 L 1635.01,-6.53017
 L 1635.17,-7.03717 L 1635.44,-7.49884 L 1635.79,-7.895 L 1636.22,-8.20836 L 1636.71,-8.42519 L 1637.23,-8.53603
 L 1637.77,-8.53603 L 1638.29,-8.42519 L 1638.77,-8.20836 L 1639.21,-7.895 L 1639.56,-7.49884 L 1639.83,-7.03717
 L 1639.99,-6.53017 L 1640.05,-6 L 1640.05,-0 L 1645,-0 z
M 6.98573,-55.607 L 6.47708,-55.6875 L 5.97964,-55.8208 L 5.49887,-56.0054 L 5.04001,-56.2392 L 4.60811,-56.5196
 L 4.20789,-56.8437 L 3.84373,-57.2079 L 3.51964,-57.6081 L 3.23917,-58.04 L 3.00537,-58.4989 L 2.82082,-58.9796
 L 2.68752,-59.4771 L 2.60696,-59.9857 L 2.58,-60.5 L 2.60696,-61.0143 L 2.68752,-61.5229 L 2.82082,-62.0204
 L 3.00537,-62.5011 L 3.23917,-62.96 L 3.51964,-63.3919 L 3.84373,-63.7921 L 4.20789,-64.1563 L 4.60811,-64.4804
 L 4.95001,-64.7024 L 4.95001,-74 L 5.00574,-74.5302 L 5.17047,-75.0372 L 5.43701,-75.4988 L 5.79373,-75.895
 L 6.22501,-76.2084 L 6.71202,-76.4252 L 7.23346,-76.536 L 7.76654,-76.536 L 8.28798,-76.4252 L 8.77499,-76.2084
 L 9.20627,-75.895 L 9.56299,-75.4988 L 9.82953,-75.0372 L 9.99426,-74.5302 L 10.05,-74 L 10.05,-64.7024
 L 10.3919,-64.4804 L 10.7921,-64.1563 L 11.1563,-63.7921 L 11.4804,-63.3919 L 11.7608,-62.96 L 11.9946,-62.5011
 L 12.1792,-62.0204 L 12.3125,-61.5229 L 12.393,-61.0143 L 12.42,-60.5 L 12.393,-59.9857 L 12.3125,-59.4771
 L 12.1792,-58.9796 L 11.9946,-58.4989 L 11.7608,-58.04 L 11.4804,-57.6081 L 11.1563,-57.2079 L 10.7921,-56.8437
 L 10.3919,-56.5196 L 9.95999,-56.2392 L 9.50113,-56.0054 L 9.02036,-55.8208 L 8.52292,-55.6875 L 8.01427,-55.607
 L 7.5,-55.58 z
M 1093.65,-55.607 L 1093.14,-55.6875 L 1092.65,-55.8208 L 1092.17,-56.0054 L 1091.71,-56.2392 L 1091.27,-56.5196
 L 1090.87,-56.8437 L 1090.51,-57.2079 L 1090.19,-57.6081 L 1089.91,-58.04 L 1089.67,-58.4989 L 1089.49,-58.9796
 L 1089.35,-59.4771 L 1089.27,-59.9857 L 1089.25,-60.5 L 1089.27,-61.0143 L 1089.35,-61.5229 L 1089.49,-62.0204
 L 1089.67,-62.5011 L 1089.91,-62.96 L 1090.19,-63.3919 L 1090.51,-63.7921 L 1090.87,-64.1563 L 1091.27,-64.4804
 L 1091.62,-64.7024 L 1091.62,-74 L 1091.67,-74.5302 L 1091.84,-75.0372 L 1092.1,-75.4988 L 1092.46,-75.895
 L 1092.89,-76.2084 L 1093.38,-76.4252 L 1093.9,-76.536 L 1094.43,-76.536 L 1094.95,-76.4252 L 1095.44,-76.2084
 L 1095.87,-75.895 L 1096.23,-75.4988 L 1096.5,-75.0372 L 1096.66,-74.5302 L 1096.72,-74 L 1096.72,-64.7024
 L 1097.06,-64.4804 L 1097.46,-64.1563 L 1097.82,-63.7921 L 1098.15,-63.3919 L 1098.43,-62.96 L 1098.66,-62.5011
 L 1098.85,-62.0204 L 1098.98,-61.5229 L 1099.06,-61.0143 L 1099.09,-60.5 L 1099.06,-59.9857 L 1098.98,-59.4771
 L 1098.85,-58.9796 L 1098.66,-58.4989 L 1098.43,-58.04 L 1098.15,-57.6081 L 1097.82,-57.2079 L 1097.46,-56.8437
 L 1097.06,-56.5196 L 1096.63,-56.2392 L 1096.17,-56.0054 L 1095.69,-55.8208 L 1095.19,-55.6875 L 1094.68,-55.607
 L 1094.17,-55.58 z
M 1274.76,-55.607 L 1274.25,-55.6875 L 1273.76,-55.8208 L 1273.28,-56.0054 L 1272.82,-56.2392 L 1272.39,-56.5196
 L 1271.99,-56.8437 L 1271.62,-57.2079 L 1271.3,-57.6081 L 1271.02,-58.04 L 1270.78,-58.4989 L 1270.6,-58.9796
 L 1270.47,-59.4771 L 1270.38,-59.9857 L 1270.36,-60.5 L 1270.38,-61.0143 L 1270.47,-61.5229 L 1270.6,-62.0204
 L 1270.78,-62.5011 L 1271.02,-62.96 L 1271.3,-63.3919 L 1271.62,-63.7921 L 1271.99,-64.1563 L 1272.39,-64.4804
 L 1272.73,-64.7024 L 1272.73,-74 L 1272.78,-74.5302 L 1272.95,-75.0372 L 1273.21,-75.4988 L 1273.57,-75.895
 L 1274,-76.2084 L 1274.49,-76.4252 L 1275.01,-76.536 L 1275.54,-76.536 L 1276.07,-76.4252 L 1276.55,-76.2084
 L 1276.98,-75.895 L 1277.34,-75.4988 L 1277.61,-75.0372 L 1277.77,-74.5302 L 1277.83,-74 L 1277.83,-64.7024
 L 1278.17,-64.4804 L 1278.57,-64.1563 L 1278.93,-63.7921 L 1279.26,-63.3919 L 1279.54,-62.96 L 1279.77,-62.5011
 L 1279.96,-62.0204 L 1280.09,-61.5229 L 1280.17,-61.0143 L 1280.2,-60.5 L 1280.17,-59.9857 L 1280.09,-59.4771
 L 1279.96,-58.9796 L 1279.77,-58.4989 L 1279.54,-58.04 L 1279.26,-57.6081 L 1278.93,-57.2079 L 1278.57,-56.8437
 L 1278.17,-56.5196 L 1277.74,-56.2392 L 1277.28,-56.0054 L 1276.8,-55.8208 L 1276.3,-55.6875 L 1275.79,-55.607
 L 1275.28,-55.58 z
M 912.541,-55.607 L 912.033,-55.6875 L 911.535,-55.8208 L 911.054,-56.0054 L 910.596,-56.2392 L 910.164,-56.5196
 L 909.763,-56.8437 L 909.399,-57.2079 L 909.075,-57.6081 L 908.795,-58.04 L 908.561,-58.4989 L 908.376,-58.9796
 L 908.243,-59.4771 L 908.163,-59.9857 L 908.136,-60.5 L 908.163,-61.0143 L 908.243,-61.5229 L 908.376,-62.0204
 L 908.561,-62.5011 L 908.795,-62.96 L 909.075,-63.3919 L 909.399,-63.7921 L 909.763,-64.1563 L 910.164,-64.4804
 L 910.506,-64.7024 L 910.506,-74 L 910.561,-74.5302 L 910.726,-75.0372 L 910.993,-75.4988 L 911.349,-75.895
 L 911.781,-76.2084 L 912.268,-76.4252 L 912.789,-76.536 L 913.322,-76.536 L 913.844,-76.4252 L 914.331,-76.2084
 L 914.762,-75.895 L 915.119,-75.4988 L 915.385,-75.0372 L 915.55,-74.5302 L 915.606,-74 L 915.606,-64.7024
 L 915.947,-64.4804 L 916.348,-64.1563 L 916.712,-63.7921 L 917.036,-63.3919 L 917.316,-62.96 L 917.55,-62.5011
 L 917.735,-62.0204 L 917.868,-61.5229 L 917.949,-61.0143 L 917.976,-60.5 L 917.949,-59.9857 L 917.868,-59.4771
 L 917.735,-58.9796 L 917.55,-58.4989 L 917.316,-58.04 L 917.036,-57.6081 L 916.712,-57.2079 L 916.348,-56.8437
 L 915.947,-56.5196 L 915.516,-56.2392 L 915.057,-56.0054 L 914.576,-55.8208 L 914.078,-55.6875 L 913.57,-55.607
 L 913.056,-55.58 z
M 731.43,-55.607 L 730.922,-55.6875 L 730.424,-55.8208 L 729.943,-56.0054 L 729.484,-56.2392 L 729.053,-56.5196
 L 728.652,-56.8437 L 728.288,-57.2079 L 727.964,-57.6081 L 727.684,-58.04 L 727.45,-58.4989 L 727.265,-58.9796
 L 727.132,-59.4771 L 727.051,-59.9857 L 727.024,-60.5 L 727.051,-61.0143 L 727.132,-61.5229 L 727.265,-62.0204
 L 727.45,-62.5011 L 727.684,-62.96 L 727.964,-63.3919 L 728.288,-63.7921 L 728.652,-64.1563 L 729.053,-64.4804
 L 729.394,-64.7024 L 729.394,-74 L 729.45,-74.5302 L 729.615,-75.0372 L 729.881,-75.4988 L 730.238,-75.895
 L 730.669,-76.2084 L 731.156,-76.4252 L 731.678,-76.536 L 732.211,-76.536 L 732.732,-76.4252 L 733.219,-76.2084
 L 733.651,-75.895 L 734.007,-75.4988 L 734.274,-75.0372 L 734.439,-74.5302 L 734.494,-74 L 734.494,-64.7024
 L 734.836,-64.4804 L 735.237,-64.1563 L 735.601,-63.7921 L 735.925,-63.3919 L 736.205,-62.96 L 736.439,-62.5011
 L 736.624,-62.0204 L 736.757,-61.5229 L 736.837,-61.0143 L 736.864,-60.5 L 736.837,-59.9857 L 736.757,-59.4771
 L 736.624,-58.9796 L 736.439,-58.4989 L 736.205,-58.04 L 735.925,-57.6081 L 735.601,-57.2079 L 735.237,-56.8437
 L 734.836,-56.5196 L 734.404,-56.2392 L 733.946,-56.0054 L 733.465,-55.8208 L 732.967,-55.6875 L 732.459,-55.607
 L 731.944,-55.58 z
M 1455.87,-55.607 L 1455.37,-55.6875 L 1454.87,-55.8208 L 1454.39,-56.0054 L 1453.93,-56.2392 L 1453.5,-56.5196
 L 1453.1,-56.8437 L 1452.73,-57.2079 L 1452.41,-57.6081 L 1452.13,-58.04 L 1451.89,-58.4989 L 1451.71,-58.9796
 L 1451.58,-59.4771 L 1451.5,-59.9857 L 1451.47,-60.5 L 1451.5,-61.0143 L 1451.58,-61.5229 L 1451.71,-62.0204
 L 1451.89,-62.5011 L 1452.13,-62.96 L 1452.41,-63.3919 L 1452.73,-63.7921 L 1453.1,-64.1563 L 1453.5,-64.4804
 L 1453.84,-64.7024 L 1453.84,-74 L 1453.89,-74.5302 L 1454.06,-75.0372 L 1454.33,-75.4988 L 1454.68,-75.895
 L 1455.11,-76.2084 L 1455.6,-76.4252 L 1456.12,-76.536 L 1456.66,-76.536 L 1457.18,-76.4252 L 1457.66,-76.2084
 L 1458.1,-75.895 L 1458.45,-75.4988 L 1458.72,-75.0372 L 1458.88,-74.5302 L 1458.94,-74 L 1458.94,-64.7024
 L 1459.28,-64.4804 L 1459.68,-64.1563 L 1460.05,-63.7921 L 1460.37,-63.3919 L 1460.65,-62.96 L 1460.88,-62.5011
 L 1461.07,-62.0204 L 1461.2,-61.5229 L 1461.28,-61.0143 L 1461.31,-60.5 L 1461.28,-59.9857 L 1461.2,-59.4771
 L 1461.07,-58.9796 L 1460.88,-58.4989 L 1460.65,-58.04 L 1460.37,-57.6081 L 1460.05,-57.2079 L 1459.68,-56.8437
 L 1459.28,-56.5196 L 1458.85,-56.2392 L 1458.39,-56.0054 L 1457.91,-55.8208 L 1457.41,-55.6875 L 1456.9,-55.607
 L 1456.39,-55.58 z
M 550.319,-55.607 L 549.81,-55.6875 L 549.313,-55.8208 L 548.832,-56.0054 L 548.373,-56.2392 L 547.941,-56.5196
 L 547.541,-56.8437 L 547.177,-57.2079 L 546.853,-57.6081 L 546.572,-58.04 L 546.339,-58.4989 L 546.154,-58.9796
 L 546.021,-59.4771 L 545.94,-59.9857 L 545.913,-60.5 L 545.94,-61.0143 L 546.021,-61.5229 L 546.154,-62.0204
 L 546.339,-62.5011 L 546.572,-62.96 L 546.853,-63.3919 L 547.177,-63.7921 L 547.541,-64.1563 L 547.941,-64.4804
 L 548.283,-64.7024 L 548.283,-74 L 548.339,-74.5302 L 548.504,-75.0372 L 548.77,-75.4988 L 549.127,-75.895
 L 549.558,-76.2084 L 550.045,-76.4252 L 550.567,-76.536 L 551.1,-76.536 L 551.621,-76.4252 L 552.108,-76.2084
 L 552.54,-75.895 L 552.896,-75.4988 L 553.163,-75.0372 L 553.328,-74.5302 L 553.383,-74 L 553.383,-64.7024
 L 553.725,-64.4804 L 554.125,-64.1563 L 554.49,-63.7921 L 554.814,-63.3919 L 555.094,-62.96 L 555.328,-62.5011
 L 555.513,-62.0204 L 555.646,-61.5229 L 555.726,-61.0143 L 555.753,-60.5 L 555.726,-59.9857 L 555.646,-59.4771
 L 555.513,-58.9796 L 555.328,-58.4989 L 555.094,-58.04 L 554.814,-57.6081 L 554.49,-57.2079 L 554.125,-56.8437
 L 553.725,-56.5196 L 553.293,-56.2392 L 552.834,-56.0054 L 552.354,-55.8208 L 551.856,-55.6875 L 551.348,-55.607
 L 550.833,-55.58 z
M 369.208,-55.607 L 368.699,-55.6875 L 368.202,-55.8208 L 367.721,-56.0054 L 367.262,-56.2392 L 366.83,-56.5196
 L 366.43,-56.8437 L 366.066,-57.2079 L 365.742,-57.6081 L 365.461,-58.04 L 365.228,-58.4989 L 365.043,-58.9796
 L 364.91,-59.4771 L 364.829,-59.9857 L 364.802,-60.5 L 364.829,-61.0143 L 364.91,-61.5229 L 365.043,-62.0204
 L 365.228,-62.5011 L 365.461,-62.96 L 365.742,-63.3919 L 366.066,-63.7921 L 366.43,-64.1563 L 366.83,-64.4804
 L 367.172,-64.7024 L 367.172,-74 L 367.228,-74.5302 L 367.393,-75.0372 L 367.659,-75.4988 L 368.016,-75.895
 L 368.447,-76.2084 L 368.934,-76.4252 L 369.456,-76.536 L 369.989,-76.536 L 370.51,-76.4252 L 370.997,-76.2084
 L 371.428,-75.895 L 371.785,-75.4988 L 372.052,-75.0372 L 372.216,-74.5302 L 372.272,-74 L 372.272,-64.7024
 L 372.614,-64.4804 L 373.014,-64.1563 L 373.378,-63.7921 L 373.703,-63.3919 L 373.983,-62.96 L 374.217,-62.5011
 L 374.401,-62.0204 L 374.535,-61.5229 L 374.615,-61.0143 L 374.642,-60.5 L 374.615,-59.9857 L 374.535,-59.4771
 L 374.401,-58.9796 L 374.217,-58.4989 L 373.983,-58.04 L 373.703,-57.6081 L 373.378,-57.2079 L 373.014,-56.8437
 L 372.614,-56.5196 L 372.182,-56.2392 L 371.723,-56.0054 L 371.243,-55.8208 L 370.745,-55.6875 L 370.236,-55.607
 L 369.722,-55.58 z
M 1636.99,-55.607 L 1636.48,-55.6875 L 1635.98,-55.8208 L 1635.5,-56.0054 L 1635.04,-56.2392 L 1634.61,-56.5196
 L 1634.21,-56.8437 L 1633.84,-57.2079 L 1633.52,-57.6081 L 1633.24,-58.04 L 1633.01,-58.4989 L 1632.82,-58.9796
 L 1632.69,-59.4771 L 1632.61,-59.9857 L 1632.58,-60.5 L 1632.61,-61.0143 L 1632.69,-61.5229 L 1632.82,-62.0204
 L 1633.01,-62.5011 L 1633.24,-62.96 L 1633.52,-63.3919 L 1633.84,-63.7921 L 1634.21,-64.1563 L 1634.61,-64.4804
 L 1634.95,-64.7024 L 1634.95,-74 L 1635.01,-74.5302 L 1635.17,-75.0372 L 1635.44,-75.4988 L 1635.79,-75.895
 L 1636.23,-76.2084 L 1636.71,-76.4252 L 1637.23,-76.536 L 1637.77,-76.536 L 1638.29,-76.4252 L 1638.77,-76.2084
 L 1639.21,-75.895 L 1639.56,-75.4988 L 1639.83,-75.0372 L 1639.99,-74.5302 L 1640.05,-74 L 1640.05,-64.7024
 L 1640.39,-64.4804 L 1640.79,-64.1563 L 1641.16,-63.7921 L 1641.48,-63.3919 L 1641.76,-62.96 L 1641.99,-62.5011
 L 1642.18,-62.0204 L 1642.31,-61.5229 L 1642.39,-61.0143 L 1642.42,-60.5 L 1642.39,-59.9857 L 1642.31,-59.4771
 L 1642.18,-58.9796 L 1641.99,-58.4989 L 1641.76,-58.04 L 1641.48,-57.6081 L 1641.16,-57.2079 L 1640.79,-56.8437
 L 1640.39,-56.5196 L 1639.96,-56.2392 L 1639.5,-56.0054 L 1639.02,-55.8208 L 1638.52,-55.6875 L 1638.01,-55.607
 L 1637.5,-55.58 z
M 188.097,-55.607 L 187.588,-55.6875 L 187.091,-55.8208 L 186.61,-56.0054 L 186.151,-56.2392 L 185.719,-56.5196
 L 185.319,-56.8437 L 184.955,-57.2079 L 184.631,-57.6081 L 184.35,-58.04 L 184.116,-58.4989 L 183.932,-58.9796
 L 183.799,-59.4771 L 183.718,-59.9857 L 183.691,-60.5 L 183.718,-61.0143 L 183.799,-61.5229 L 183.932,-62.0204
 L 184.116,-62.5011 L 184.35,-62.96 L 184.631,-63.3919 L 184.955,-63.7921 L 185.319,-64.1563 L 185.719,-64.4804
 L 186.061,-64.7024 L 186.061,-74 L 186.117,-74.5302 L 186.282,-75.0372 L 186.548,-75.4988 L 186.905,-75.895
 L 187.336,-76.2084 L 187.823,-76.4252 L 188.345,-76.536 L 188.878,-76.536 L 189.399,-76.4252 L 189.886,-76.2084
 L 190.317,-75.895 L 190.674,-75.4988 L 190.941,-75.0372 L 191.105,-74.5302 L 191.161,-74 L 191.161,-64.7024
 L 191.503,-64.4804 L 191.903,-64.1563 L 192.267,-63.7921 L 192.591,-63.3919 L 192.872,-62.96 L 193.106,-62.5011
 L 193.29,-62.0204 L 193.424,-61.5229 L 193.504,-61.0143 L 193.531,-60.5 L 193.504,-59.9857 L 193.424,-59.4771
 L 193.29,-58.9796 L 193.106,-58.4989 L 192.872,-58.04 L 192.591,-57.6081 L 192.267,-57.2079 L 191.903,-56.8437
 L 191.503,-56.5196 L 191.071,-56.2392 L 190.612,-56.0054 L 190.131,-55.8208 L 189.634,-55.6875 L 189.125,-55.607
 L 188.611,-55.58 z
M 1106.1,-20.897 L 1105.32,-21.2024 L 1104.63,-21.663 L 1104.04,-22.2586 L 1103.59,-22.9633 L 1103.3,-23.7462
 L 1103.17,-24.753 L 1103.17,-58 L 1103.25,-58.8316 L 1103.51,-59.627 L 1103.93,-60.3511 L 1104.49,-60.9726
 L 1105.17,-61.4641 L 1105.93,-61.8042 L 1107.17,-62 L 1195.72,-62 L 1196.55,-61.9126 L 1197.34,-61.6542
 L 1198.07,-61.2361 L 1198.69,-60.6765 L 1199.18,-60 L 1199.52,-59.2361 L 1199.69,-58.4181 L 1199.69,-57.5819
 L 1199.52,-56.7639 L 1199.18,-56 L 1198.69,-55.3235 L 1198.07,-54.7639 L 1197.12,-54.2552 L 1108.57,-21.0083
 L 1107.76,-20.7978 L 1106.93,-20.7601 z
M 924.992,-20.897 L 924.213,-21.2024 L 923.516,-21.663 L 922.929,-22.2586 L 922.478,-22.9633 L 922.184,-23.7462
 L 922.056,-24.753 L 922.056,-58 L 922.143,-58.8316 L 922.401,-59.627 L 922.819,-60.3511 L 923.379,-60.9726
 L 924.056,-61.4641 L 924.819,-61.8042 L 926.056,-62 L 1014.61,-62 L 1015.44,-61.9126 L 1016.23,-61.6542
 L 1016.96,-61.2361 L 1017.58,-60.6765 L 1018.07,-60 L 1018.41,-59.2361 L 1018.58,-58.4181 L 1018.58,-57.5819
 L 1018.41,-56.7639 L 1018.07,-56 L 1017.58,-55.3235 L 1016.96,-54.7639 L 1016.01,-54.2552 L 927.462,-21.0083
 L 926.652,-20.7978 L 925.817,-20.7601 z
M 821.903,-47.7826 L 821.094,-47.9931 L 804.415,-54.2552 L 803.47,-54.7639 L 802.849,-55.3235 L 802.357,-56
 L 802.017,-56.7639 L 801.843,-57.5819 L 801.843,-58.4181 L 802.017,-59.2361 L 802.357,-60 L 802.849,-60.6765
 L 803.47,-61.2361 L 804.194,-61.6542 L 804.99,-61.9126 L 805.821,-62 L 839.179,-62 L 840.242,-61.856
 L 841.021,-61.5506 L 841.719,-61.09 L 842.306,-60.4944 L 842.756,-59.7897 L 843.05,-59.0069 L 843.174,-58.18
 L 843.125,-57.3453 L 842.902,-56.5391 L 842.517,-55.7969 L 841.986,-55.1509 L 841.332,-54.6294 L 840.585,-54.2552
 L 823.906,-47.9931 L 822.739,-47.745 z
M 718.348,-20.7978 L 717.538,-21.0083 L 628.988,-54.2552 L 628.043,-54.7639 L 627.422,-55.3235 L 626.93,-56
 L 626.59,-56.7639 L 626.416,-57.5819 L 626.416,-58.4181 L 626.59,-59.2361 L 626.93,-60 L 627.422,-60.6765
 L 628.043,-61.2361 L 628.767,-61.6542 L 629.563,-61.9126 L 630.394,-62 L 718.944,-62 L 720.18,-61.8042
 L 720.944,-61.4641 L 721.621,-60.9726 L 722.18,-60.3511 L 722.599,-59.627 L 722.857,-58.8316 L 722.944,-58
 L 722.944,-24.753 L 722.816,-23.7462 L 722.522,-22.9633 L 722.071,-22.2586 L 721.484,-21.663 L 720.787,-21.2024
 L 720.008,-20.897 L 719.183,-20.7601 z
M 537.237,-20.7978 L 536.427,-21.0083 L 447.877,-54.2552 L 446.932,-54.7639 L 446.311,-55.3235 L 445.819,-56
 L 445.479,-56.7639 L 445.305,-57.5819 L 445.305,-58.4181 L 445.479,-59.2361 L 445.819,-60 L 446.311,-60.6765
 L 446.932,-61.2361 L 447.656,-61.6542 L 448.452,-61.9126 L 449.283,-62 L 537.833,-62 L 539.069,-61.8042
 L 539.833,-61.4641 L 540.51,-60.9726 L 541.069,-60.3511 L 541.487,-59.627 L 541.746,-58.8316 L 541.833,-58
 L 541.833,-24.753 L 541.705,-23.7462 L 541.411,-22.9633 L 540.96,-22.2586 L 540.373,-21.663 L 539.675,-21.2024
 L 538.897,-20.897 L 538.072,-20.7601 z
M 356.126,-20.7978 L 355.316,-21.0083 L 266.766,-54.2552 L 265.821,-54.7639 L 265.2,-55.3235 L 264.708,-56
 L 264.368,-56.7639 L 264.194,-57.5819 L 264.194,-58.4181 L 264.368,-59.2361 L 264.708,-60 L 265.2,-60.6765
 L 265.821,-61.2361 L 266.545,-61.6542 L 267.341,-61.9126 L 268.172,-62 L 356.722,-62 L 357.958,-61.8042
 L 358.722,-61.4641 L 359.399,-60.9726 L 359.958,-60.3511 L 360.376,-59.627 L 360.635,-58.8316 L 360.722,-58
 L 360.722,-24.753 L 360.593,-23.7462 L 360.299,-22.9633 L 359.849,-22.2586 L 359.262,-21.663 L 358.564,-21.2024
 L 357.786,-20.897 L 356.961,-20.7601 z
M 1468.33,-20.897 L 1467.55,-21.2024 L 1466.85,-21.663 L 1466.26,-22.2586 L 1465.81,-22.9633 L 1465.52,-23.7462
 L 1465.39,-24.753 L 1465.39,-58 L 1465.48,-58.8316 L 1465.73,-59.627 L 1466.15,-60.3511 L 1466.71,-60.9726
 L 1467.39,-61.4641 L 1468.15,-61.8042 L 1469.39,-62 L 1557.94,-62 L 1558.77,-61.9126 L 1559.57,-61.6542
 L 1560.29,-61.2361 L 1560.91,-60.6765 L 1561.4,-60 L 1561.74,-59.2361 L 1561.92,-58.4181 L 1561.92,-57.5819
 L 1561.74,-56.7639 L 1561.4,-56 L 1560.91,-55.3235 L 1560.29,-54.7639 L 1559.34,-54.2552 L 1470.79,-21.0083
 L 1469.99,-20.7978 L 1469.15,-20.7601 z
M 175.014,-20.7978 L 174.205,-21.0083 L 85.6551,-54.2552 L 84.71,-54.7639 L 84.0885,-55.3235 L 83.597,-56
 L 83.2569,-56.7639 L 83.083,-57.5819 L 83.083,-58.4181 L 83.2569,-59.2361 L 83.597,-60 L 84.0885,-60.6765
 L 84.71,-61.2361 L 85.4342,-61.6542 L 86.2295,-61.9126 L 87.0611,-62 L 175.611,-62 L 176.847,-61.8042
 L 177.611,-61.4641 L 178.288,-60.9726 L 178.847,-60.3511 L 179.265,-59.627 L 179.524,-58.8316 L 179.611,-58
 L 179.611,-24.753 L 179.482,-23.7462 L 179.188,-22.9633 L 178.738,-22.2586 L 178.151,-21.663 L 177.453,-21.2024
 L 176.675,-20.897 L 175.85,-20.7601 z
M 1287.21,-20.897 L 1286.44,-21.2024 L 1285.74,-21.663 L 1285.15,-22.2586 L 1284.7,-22.9633 L 1284.41,-23.7462
 L 1284.28,-24.753 L 1284.28,-58 L 1284.37,-58.8316 L 1284.62,-59.627 L 1285.04,-60.3511 L 1285.6,-60.9726
 L 1286.28,-61.4641 L 1287.04,-61.8042 L 1288.28,-62 L 1376.83,-62 L 1377.66,-61.9126 L 1378.45,-61.6542
 L 1379.18,-61.2361 L 1379.8,-60.6765 L 1380.29,-60 L 1380.63,-59.2361 L 1380.81,-58.4181 L 1380.81,-57.5819
 L 1380.63,-56.7639 L 1380.29,-56 L 1379.8,-55.3235 L 1379.18,-54.7639 L 1378.23,-54.2552 L 1289.68,-21.0083
 L 1288.87,-20.7978 L 1288.04,-20.7601 z
M 744.526,-18.6408 L 743.708,-18.8146 L 742.944,-19.1548 L 742.268,-19.6463 L 741.708,-20.2677 L 741.29,-20.9919
 L 741.032,-21.7872 L 740.944,-22.6189 L 740.944,-57.3811 L 741.073,-58.388 L 741.367,-59.1709 L 741.817,-59.8755
 L 742.404,-60.4711 L 743.102,-60.9317 L 743.881,-61.2371 L 744.706,-61.374 L 745.541,-61.3364 L 746.35,-61.1259
 L 792.643,-43.7448 L 793.079,-43.5506 L 793.777,-43.09 L 794.364,-42.4944 L 794.815,-41.7897 L 795.109,-41.0069
 L 795.233,-40.18 L 795.183,-39.3453 L 794.961,-38.5391 L 794.576,-37.7969 L 794.045,-37.1509 L 793.391,-36.6294
 L 792.643,-36.2552 L 746.35,-18.8741 L 745.363,-18.6408 z
M 899.459,-18.6636 L 898.65,-18.8741 L 852.357,-36.2552 L 851.921,-36.4494 L 851.223,-36.91 L 850.636,-37.5056
 L 850.185,-38.2103 L 849.891,-38.9931 L 849.767,-39.82 L 849.817,-40.6547 L 850.039,-41.4609 L 850.424,-42.2031
 L 850.955,-42.8491 L 851.609,-43.3706 L 852.357,-43.7448 L 898.65,-61.1259 L 899.637,-61.3592 L 900.474,-61.3592
 L 901.292,-61.1854 L 902.056,-60.8452 L 902.732,-60.3537 L 903.292,-59.7323 L 903.71,-59.0081 L 903.968,-58.2128
 L 904.056,-57.3811 L 904.056,-22.6189 L 903.927,-21.612 L 903.633,-20.8291 L 903.183,-20.1245 L 902.596,-19.5288
 L 901.898,-19.0683 L 901.119,-18.7629 L 900.294,-18.626 z
M 201.611,-18 L 200.375,-18.1958 L 199.611,-18.5359 L 198.935,-19.0274 L 198.375,-19.6489 L 197.957,-20.373
 L 197.699,-21.1684 L 197.611,-22 L 197.611,-55.247 L 197.74,-56.2538 L 198.034,-57.0367 L 198.484,-57.7414
 L 199.071,-58.337 L 199.769,-58.7976 L 200.547,-59.103 L 201.372,-59.2399 L 202.208,-59.2022 L 203.017,-58.9917
 L 291.567,-25.7448 L 292.512,-25.2361 L 293.134,-24.6765 L 293.625,-24 L 293.965,-23.2361 L 294.139,-22.4181
 L 294.139,-21.5819 L 293.965,-20.7639 L 293.625,-20 L 293.134,-19.3235 L 292.512,-18.7639 L 291.788,-18.3458
 L 290.993,-18.0874 L 290.161,-18 z
M 382.722,-18 L 381.486,-18.1958 L 380.722,-18.5359 L 380.046,-19.0274 L 379.486,-19.6489 L 379.068,-20.373
 L 378.81,-21.1684 L 378.722,-22 L 378.722,-55.247 L 378.851,-56.2538 L 379.145,-57.0367 L 379.595,-57.7414
 L 380.182,-58.337 L 380.88,-58.7976 L 381.659,-59.103 L 382.484,-59.2399 L 383.319,-59.2022 L 384.128,-58.9917
 L 472.678,-25.7448 L 473.623,-25.2361 L 474.245,-24.6765 L 474.736,-24 L 475.076,-23.2361 L 475.25,-22.4181
 L 475.25,-21.5819 L 475.076,-20.7639 L 474.736,-20 L 474.245,-19.3235 L 473.623,-18.7639 L 472.899,-18.3458
 L 472.104,-18.0874 L 471.272,-18 z
M 563.833,-18 L 562.597,-18.1958 L 561.833,-18.5359 L 561.157,-19.0274 L 560.597,-19.6489 L 560.179,-20.373
 L 559.921,-21.1684 L 559.833,-22 L 559.833,-55.247 L 559.962,-56.2538 L 560.256,-57.0367 L 560.706,-57.7414
 L 561.293,-58.337 L 561.991,-58.7976 L 562.77,-59.103 L 563.595,-59.2399 L 564.43,-59.2022 L 565.239,-58.9917
 L 653.789,-25.7448 L 654.734,-25.2361 L 655.356,-24.6765 L 655.847,-24 L 656.188,-23.2361 L 656.361,-22.4181
 L 656.361,-21.5819 L 656.188,-20.7639 L 655.847,-20 L 655.356,-19.3235 L 654.734,-18.7639 L 654.01,-18.3458
 L 653.215,-18.0874 L 652.383,-18 z
M 992.617,-18 L 991.785,-18.0874 L 990.99,-18.3458 L 990.266,-18.7639 L 989.644,-19.3235 L 989.153,-20
 L 988.812,-20.7639 L 988.639,-21.5819 L 988.639,-22.4181 L 988.812,-23.2361 L 989.153,-24 L 989.644,-24.6765
 L 990.266,-25.2361 L 991.211,-25.7448 L 1079.76,-58.9917 L 1080.57,-59.2022 L 1081.41,-59.2399 L 1082.23,-59.103
 L 1083.01,-58.7976 L 1083.71,-58.337 L 1084.29,-57.7414 L 1084.74,-57.0367 L 1085.04,-56.2538 L 1085.17,-55.247
 L 1085.17,-22 L 1085.08,-21.1684 L 1084.82,-20.373 L 1084.4,-19.6489 L 1083.84,-19.0274 L 1083.17,-18.5359
 L 1082.4,-18.1958 L 1081.17,-18 z
M 1173.73,-18 L 1172.9,-18.0874 L 1172.1,-18.3458 L 1171.38,-18.7639 L 1170.76,-19.3235 L 1170.26,-20
 L 1169.92,-20.7639 L 1169.75,-21.5819 L 1169.75,-22.4181 L 1169.92,-23.2361 L 1170.26,-24 L 1170.76,-24.6765
 L 1171.38,-25.2361 L 1172.32,-25.7448 L 1260.87,-58.9917 L 1261.68,-59.2022 L 1262.52,-59.2399 L 1263.34,-59.103
 L 1264.12,-58.7976 L 1264.82,-58.337 L 1265.4,-57.7414 L 1265.86,-57.0367 L 1266.15,-56.2538 L 1266.28,-55.247
 L 1266.28,-22 L 1266.19,-21.1684 L 1265.93,-20.373 L 1265.51,-19.6489 L 1264.95,-19.0274 L 1264.28,-18.5359
 L 1263.51,-18.1958 L 1262.28,-18 z
M 1354.84,-18 L 1354.01,-18.0874 L 1353.21,-18.3458 L 1352.49,-18.7639 L 1351.87,-19.3235 L 1351.37,-20
 L 1351.03,-20.7639 L 1350.86,-21.5819 L 1350.86,-22.4181 L 1351.03,-23.2361 L 1351.37,-24 L 1351.87,-24.6765
 L 1352.49,-25.2361 L 1353.43,-25.7448 L 1441.98,-58.9917 L 1442.79,-59.2022 L 1443.63,-59.2399 L 1444.45,-59.103
 L 1445.23,-58.7976 L 1445.93,-58.337 L 1446.52,-57.7414 L 1446.97,-57.0367 L 1447.26,-56.2538 L 1447.39,-55.247
 L 1447.39,-22 L 1447.3,-21.1684 L 1447.04,-20.373 L 1446.62,-19.6489 L 1446.07,-19.0274 L 1445.39,-18.5359
 L 1444.62,-18.1958 L 1443.39,-18 z
M 22,-18 L 20.7639,-18.1958 L 20,-18.5359 L 19.3235,-19.0274 L 18.7639,-19.6489 L 18.3458,-20.373
 L 18.0874,-21.1684 L 18,-22 L 18,-54.6838 L 18.1288,-55.6907 L 18.4227,-56.4735 L 18.873,-57.1782
 L 19.46,-57.7738 L 20.1579,-58.2344 L 20.9364,-58.5398 L 21.7613,-58.6767 L 22.5967,-58.639 L 23.406,-58.4285
 L 110.456,-25.7448 L 111.401,-25.2361 L 112.023,-24.6765 L 112.514,-24 L 112.854,-23.2361 L 113.028,-22.4181
 L 113.028,-21.5819 L 112.854,-20.7639 L 112.514,-20 L 112.023,-19.3235 L 111.401,-18.7639 L 110.677,-18.3458
 L 109.882,-18.0874 L 109.05,-18 z
M 1535.95,-18 L 1535.12,-18.0874 L 1534.32,-18.3458 L 1533.6,-18.7639 L 1532.98,-19.3235 L 1532.49,-20
 L 1532.15,-20.7639 L 1531.97,-21.5819 L 1531.97,-22.4181 L 1532.15,-23.2361 L 1532.49,-24 L 1532.98,-24.6765
 L 1533.6,-25.2361 L 1534.54,-25.7448 L 1621.59,-58.4285 L 1622.4,-58.639 L 1623.24,-58.6767 L 1624.06,-58.5398
 L 1624.84,-58.2344 L 1625.54,-57.7738 L 1626.13,-57.1782 L 1626.58,-56.4735 L 1626.87,-55.6907 L 1627,-54.6838
 L 1627,-22 L 1626.91,-21.1684 L 1626.65,-20.373 L 1626.24,-19.6489 L 1625.68,-19.0274 L 1625,-18.5359
 L 1624.24,-18.1958 L 1623,-18 z
M 805.821,-18 L 804.758,-18.144 L 803.979,-18.4494 L 803.281,-18.91 L 802.694,-19.5056 L 802.244,-20.2103
 L 801.95,-20.9931 L 801.826,-21.82 L 801.875,-22.6547 L 802.098,-23.4609 L 802.483,-24.2031 L 803.014,-24.8491
 L 803.668,-25.3706 L 804.415,-25.7448 L 821.094,-32.0069 L 822.261,-32.255 L 823.097,-32.2174 L 823.906,-32.0069
 L 840.585,-25.7448 L 841.53,-25.2361 L 842.151,-24.6765 L 842.643,-24 L 842.983,-23.2361 L 843.157,-22.4181
 L 843.157,-21.5819 L 842.983,-20.7639 L 842.643,-20 L 842.151,-19.3235 L 841.53,-18.7639 L 840.805,-18.3458
 L 840.01,-18.0874 L 839.179,-18 z
" stroke="black" fill="lightgray" stroke-width="0.5"/>
</svg>
