<?xml version="1.0" standalone="no"?>
<!DOCTYPE svg PUBLIC "-//W3C//DTD SVG 1.1//EN" "http://www.w3.org/Graphics/SVG/1.1/DTD/svg11.dtd">
<svg width="1597mm" height="80mm" viewBox="0 -80 1597 80" xmlns="http://www.w3.org/2000/svg" version="1.1">
<title>OpenSCAD Model</title>
<path d="
M 1597,-80 L 0,-80 L 0,-0 L 4.95,-0 L 4.95,-6 L 5.00572,-6.53017
 L 5.17046,-7.03717 L 5.437,-7.49884 L 5.79372,-7.895 L 6.22499,-8.20836 L 6.71201,-8.42519 L 7.23344,-8.53603
 L 7.76654,-8.53603 L 8.28798,-8.42519 L 8.77499,-8.20836 L 9.20627,-7.895 L 9.56299,-7.49884 L 9.82953,-7.03717
 L 9.99426,-6.53017 L 10.05,-6 L 10.05,-0 L 202.7,-0 L 202.7,-6 L 202.756,-6.53017
 L 202.92,-7.03717 L 203.187,-7.49884 L 203.544,-7.895 L 203.975,-8.20836 L 204.462,-8.42519 L 204.983,-8.53603
 L 205.517,-8.53603 L 206.038,-8.42519 L 206.525,-8.20836 L 206.956,-7.895 L 207.313,-7.49884 L 207.58,-7.03717
 L 207.744,-6.53017 L 207.8,-6 L 207.8,-0 L 400.45,-0 L 400.45,-6 L 400.506,-6.53017
 L 400.67,-7.03717 L 400.937,-7.49884 L 401.294,-7.895 L 401.725,-8.20836 L 402.212,-8.42519 L 402.733,-8.53603
 L 403.267,-8.53603 L 403.788,-8.42519 L 404.275,-8.20836 L 404.706,-7.895 L 405.063,-7.49884 L 405.33,-7.03717
 L 405.494,-6.53017 L 405.55,-6 L 405.55,-0 L 598.2,-0 L 598.2,-6 L 598.256,-6.53017
 L 598.42,-7.03717 L 598.687,-7.49884 L 599.044,-7.895 L 599.475,-8.20836 L 599.962,-8.42519 L 600.483,-8.53603
 L 601.017,-8.53603 L 601.538,-8.42519 L 602.025,-8.20836 L 602.456,-7.895 L 602.813,-7.49884 L 603.08,-7.03717
 L 603.244,-6.53017 L 603.3,-6 L 603.3,-0 L 795.95,-0 L 795.95,-6 L 796.006,-6.53017
 L 796.17,-7.03717 L 796.437,-7.49884 L 796.794,-7.895 L 797.225,-8.20836 L 797.712,-8.42519 L 798.233,-8.53603
 L 798.767,-8.53603 L 799.288,-8.42519 L 799.775,-8.20836 L 800.206,-7.895 L 800.563,-7.49884 L 800.83,-7.03717
 L 800.994,-6.53017 L 801.05,-6 L 801.05,-0 L 993.7,-0 L 993.7,-6 L 993.756,-6.53017
 L 993.92,-7.03717 L 994.187,-7.49884 L 994.544,-7.895 L 994.975,-8.20836 L 995.462,-8.42519 L 995.983,-8.53603
 L 996.517,-8.53603 L 997.038,-8.42519 L 997.525,-8.20836 L 997.956,-7.895 L 998.313,-7.49884 L 998.58,-7.03717
 L 998.744,-6.53017 L 998.8,-6 L 998.8,-0 L 1191.45,-0 L 1191.45,-6 L 1191.51,-6.53017
 L 1191.67,-7.03717 L 1191.94,-7.49884 L 1192.29,-7.895 L 1192.72,-8.20836 L 1193.21,-8.42519 L 1193.73,-8.53603
 L 1194.27,-8.53603 L 1194.79,-8.42519 L 1195.27,-8.20836 L 1195.71,-7.895 L 1196.06,-7.49884 L 1196.33,-7.03717
 L 1196.49,-6.53017 L 1196.55,-6 L 1196.55,-0 L 1389.2,-0 L 1389.2,-6 L 1389.26,-6.53017
 L 1389.42,-7.03717 L 1389.69,-7.49884 L 1390.04,-7.895 L 1390.47,-8.20836 L 1390.96,-8.42519 L 1391.48,-8.53603
 L 1392.02,-8.53603 L 1392.54,-8.42519 L 1393.02,-8.20836 L 1393.46,-7.895 L 1393.81,-7.49884 L 1394.08,-7.03717
 L 1394.24,-6.53017 L 1394.3,-6 L 1394.3,-0 L 1586.95,-0 L 1586.95,-6 L 1587.01,-6.53017
 L 1587.17,-7.03717 L 1587.44,-7.49884 L 1587.79,-7.895 L 1588.22,-8.20836 L 1588.71,-8.42519 L 1589.23,-8.53603
 L 1589.77,-8.53603 L 1590.29,-8.42519 L 1590.77,-8.20836 L 1591.21,-7.895 L 1591.56,-7.49884 L 1591.83,-7.03717
 L 1591.99,-6.53017 L 1592.05,-6 L 1592.05,-0 L 1597,-0 z
M 204.736,-55.607 L 204.227,-55.6875 L 203.73,-55.8208 L 203.249,-56.0054 L 202.79,-56.2392 L 202.358,-56.5196
 L 201.958,-56.8437 L 201.594,-57.2079 L 201.27,-57.6081 L 200.989,-58.04 L 200.755,-58.4989 L 200.571,-58.9796
 L 200.438,-59.4771 L 200.357,-59.9857 L 200.33,-60.5 L 200.357,-61.0143 L 200.438,-61.5229 L 200.571,-62.0204
 L 200.755,-62.5011 L 200.989,-62.96 L 201.27,-63.3919 L 201.594,-63.7921 L 201.958,-64.1563 L 202.358,-64.4804
 L 202.7,-64.7024 L 202.7,-74 L 202.756,-74.5302 L 202.92,-75.0372 L 203.187,-75.4988 L 203.544,-75.895
 L 203.975,-76.2084 L 204.462,-76.4252 L 204.983,-76.536 L 205.517,-76.536 L 206.038,-76.4252 L 206.525,-76.2084
 L 206.956,-75.895 L 207.313,-75.4988 L 207.58,-75.0372 L 207.744,-74.5302 L 207.8,-74 L 207.8,-64.7024
 L 208.142,-64.4804 L 208.542,-64.1563 L 208.906,-63.7921 L 209.23,-63.3919 L 209.511,-62.96 L 209.745,-62.5011
 L 209.929,-62.0204 L 210.062,-61.5229 L 210.143,-61.0143 L 210.17,-60.5 L 210.143,-59.9857 L 210.062,-59.4771
 L 209.929,-58.9796 L 209.745,-58.4989 L 209.511,-58.04 L 209.23,-57.6081 L 208.906,-57.2079 L 208.542,-56.8437
 L 208.142,-56.5196 L 207.71,-56.2392 L 207.251,-56.0054 L 206.77,-55.8208 L 206.273,-55.6875 L 205.764,-55.607
 L 205.25,-55.58 z
M 1193.49,-55.607 L 1192.98,-55.6875 L 1192.48,-55.8208 L 1192,-56.0054 L 1191.54,-56.2392 L 1191.11,-56.5196
 L 1190.71,-56.8437 L 1190.34,-57.2079 L 1190.02,-57.6081 L 1189.74,-58.04 L 1189.51,-58.4989 L 1189.32,-58.9796
 L 1189.19,-59.4771 L 1189.11,-59.9857 L 1189.08,-60.5 L 1189.11,-61.0143 L 1189.19,-61.5229 L 1189.32,-62.0204
 L 1189.51,-62.5011 L 1189.74,-62.96 L 1190.02,-63.3919 L 1190.34,-63.7921 L 1190.71,-64.1563 L 1191.11,-64.4804
 L 1191.45,-64.7024 L 1191.45,-74 L 1191.51,-74.5302 L 1191.67,-75.0372 L 1191.94,-75.4988 L 1192.29,-75.895
 L 1192.73,-76.2084 L 1193.21,-76.4252 L 1193.73,-76.536 L 1194.27,-76.536 L 1194.79,-76.4252 L 1195.27,-76.2084
 L 1195.71,-75.895 L 1196.06,-75.4988 L 1196.33,-75.0372 L 1196.49,-74.5302 L 1196.55,-74 L 1196.55,-64.7024
 L 1196.89,-64.4804 L 1197.29,-64.1563 L 1197.66,-63.7921 L 1197.98,-63.3919 L 1198.26,-62.96 L 1198.49,-62.5011
 L 1198.68,-62.0204 L 1198.81,-61.5229 L 1198.89,-61.0143 L 1198.92,-60.5 L 1198.89,-59.9857 L 1198.81,-59.4771
 L 1198.68,-58.9796 L 1198.49,-58.4989 L 1198.26,-58.04 L 1197.98,-57.6081 L 1197.66,-57.2079 L 1197.29,-56.8437
 L 1196.89,-56.5196 L 1196.46,-56.2392 L 1196,-56.0054 L 1195.52,-55.8208 L 1195.02,-55.6875 L 1194.51,-55.607
 L 1194,-55.58 z
M 995.736,-55.607 L 995.227,-55.6875 L 994.73,-55.8208 L 994.249,-56.0054 L 993.79,-56.2392 L 993.358,-56.5196
 L 992.958,-56.8437 L 992.594,-57.2079 L 992.27,-57.6081 L 991.989,-58.04 L 991.755,-58.4989 L 991.571,-58.9796
 L 991.438,-59.4771 L 991.357,-59.9857 L 991.33,-60.5 L 991.357,-61.0143 L 991.438,-61.5229 L 991.571,-62.0204
 L 991.755,-62.5011 L 991.989,-62.96 L 992.27,-63.3919 L 992.594,-63.7921 L 992.958,-64.1563 L 993.358,-64.4804
 L 993.7,-64.7024 L 993.7,-74 L 993.756,-74.5302 L 993.92,-75.0372 L 994.187,-75.4988 L 994.544,-75.895
 L 994.975,-76.2084 L 995.462,-76.4252 L 995.983,-76.536 L 996.517,-76.536 L 997.038,-76.4252 L 997.525,-76.2084
 L 997.956,-75.895 L 998.313,-75.4988 L 998.58,-75.0372 L 998.744,-74.5302 L 998.8,-74 L 998.8,-64.7024
 L 999.142,-64.4804 L 999.542,-64.1563 L 999.906,-63.7921 L 1000.23,-63.3919 L 1000.51,-62.96 L 1000.74,-62.5011
 L 1000.93,-62.0204 L 1001.06,-61.5229 L 1001.14,-61.0143 L 1001.17,-60.5 L 1001.14,-59.9857 L 1001.06,-59.4771
 L 1000.93,-58.9796 L 1000.74,-58.4989 L 1000.51,-58.04 L 1000.23,-57.6081 L 999.906,-57.2079 L 999.542,-56.8437
 L 999.142,-56.5196 L 998.71,-56.2392 L 998.251,-56.0054 L 997.77,-55.8208 L 997.273,-55.6875 L 996.764,-55.607
 L 996.25,-55.58 z
M 6.98573,-55.607 L 6.47708,-55.6875 L 5.97964,-55.8208 L 5.49887,-56.0054 L 5.04001,-56.2392 L 4.60811,-56.5196
 L 4.20789,-56.8437 L 3.84373,-57.2079 L 3.51964,-57.6081 L 3.23917,-58.04 L 3.00537,-58.4989 L 2.82082,-58.9796
 L 2.68752,-59.4771 L 2.60696,-59.9857 L 2.58,-60.5 L 2.60696,-61.0143 L 2.68752,-61.5229 L 2.82082,-62.0204
 L 3.00537,-62.5011 L 3.23917,-62.96 L 3.51964,-63.3919 L 3.84373,-63.7921 L 4.20789,-64.1563 L 4.60811,-64.4804
 L 4.95001,-64.7024 L 4.95001,-74 L 5.00574,-74.5302 L 5.17047,-75.0372 L 5.43701,-75.4988 L 5.79373,-75.895
 L 6.22501,-76.2084 L 6.71202,-76.4252 L 7.23346,-76.536 L 7.76654,-76.536 L 8.28798,-76.4252 L 8.77499,-76.2084
 L 9.20627,-75.895 L 9.56299,-75.4988 L 9.82953,-75.0372 L 9.99426,-74.5302 L 10.05,-74 L 10.05,-64.7024
 L 10.3919,-64.4804 L 10.7921,-64.1563 L 11.1563,-63.7921 L 11.4804,-63.3919 L 11.7608,-62.96 L 11.9946,-62.5011
 L 12.1792,-62.0204 L 12.3125,-61.5229 L 12.393,-61.0143 L 12.42,-60.5 L 12.393,-59.9857 L 12.3125,-59.4771
 L 12.1792,-58.9796 L 11.9946,-58.4989 L 11.7608,-58.04 L 11.4804,-57.6081 L 11.1563,-57.2079 L 10.7921,-56.8437
 L 10.3919,-56.5196 L 9.95999,-56.2392 L 9.50113,-56.0054 L 9.02036,-55.8208 L 8.52292,-55.6875 L 8.01427,-55.607
 L 7.5,-55.58 z
M 797.986,-55.607 L 797.477,-55.6875 L 796.98,-55.8208 L 796.499,-56.0054 L 796.04,-56.2392 L 795.608,-56.5196
 L 795.208,-56.8437 L 794.844,-57.2079 L 794.52,-57.6081 L 794.239,-58.04 L 794.005,-58.4989 L 793.821,-58.9796
 L 793.688,-59.4771 L 793.607,-59.9857 L 793.58,-60.5 L 793.607,-61.0143 L 793.688,-61.5229 L 793.821,-62.0204
 L 794.005,-62.5011 L 794.239,-62.96 L 794.52,-63.3919 L 794.844,-63.7921 L 795.208,-64.1563 L 795.608,-64.4804
 L 795.95,-64.7024 L 795.95,-74 L 796.006,-74.5302 L 796.17,-75.0372 L 796.437,-75.4988 L 796.794,-75.895
 L 797.225,-76.2084 L 797.712,-76.4252 L 798.233,-76.536 L 798.767,-76.536 L 799.288,-76.4252 L 799.775,-76.2084
 L 800.206,-75.895 L 800.563,-75.4988 L 800.83,-75.0372 L 800.994,-74.5302 L 801.05,-74 L 801.05,-64.7024
 L 801.392,-64.4804 L 801.792,-64.1563 L 802.156,-63.7921 L 802.48,-63.3919 L 802.761,-62.96 L 802.995,-62.5011
 L 803.179,-62.0204 L 803.312,-61.5229 L 803.393,-61.0143 L 803.42,-60.5 L 803.393,-59.9857 L 803.312,-59.4771
 L 803.179,-58.9796 L 802.995,-58.4989 L 802.761,-58.04 L 802.48,-57.6081 L 802.156,-57.2079 L 801.792,-56.8437
 L 801.392,-56.5196 L 800.96,-56.2392 L 800.501,-56.0054 L 800.02,-55.8208 L 799.523,-55.6875 L 799.014,-55.607
 L 798.5,-55.58 z
M 1391.24,-55.607 L 1390.73,-55.6875 L 1390.23,-55.8208 L 1389.75,-56.0054 L 1389.29,-56.2392 L 1388.86,-56.5196
 L 1388.46,-56.8437 L 1388.09,-57.2079 L 1387.77,-57.6081 L 1387.49,-58.04 L 1387.26,-58.4989 L 1387.07,-58.9796
 L 1386.94,-59.4771 L 1386.86,-59.9857 L 1386.83,-60.5 L 1386.86,-61.0143 L 1386.94,-61.5229 L 1387.07,-62.0204
 L 1387.26,-62.5011 L 1387.49,-62.96 L 1387.77,-63.3919 L 1388.09,-63.7921 L 1388.46,-64.1563 L 1388.86,-64.4804
 L 1389.2,-64.7024 L 1389.2,-74 L 1389.26,-74.5302 L 1389.42,-75.0372 L 1389.69,-75.4988 L 1390.04,-75.895
 L 1390.48,-76.2084 L 1390.96,-76.4252 L 1391.48,-76.536 L 1392.02,-76.536 L 1392.54,-76.4252 L 1393.02,-76.2084
 L 1393.46,-75.895 L 1393.81,-75.4988 L 1394.08,-75.0372 L 1394.24,-74.5302 L 1394.3,-74 L 1394.3,-64.7024
 L 1394.64,-64.4804 L 1395.04,-64.1563 L 1395.41,-63.7921 L 1395.73,-63.3919 L 1396.01,-62.96 L 1396.24,-62.5011
 L 1396.43,-62.0204 L 1396.56,-61.5229 L 1396.64,-61.0143 L 1396.67,-60.5 L 1396.64,-59.9857 L 1396.56,-59.4771
 L 1396.43,-58.9796 L 1396.24,-58.4989 L 1396.01,-58.04 L 1395.73,-57.6081 L 1395.41,-57.2079 L 1395.04,-56.8437
 L 1394.64,-56.5196 L 1394.21,-56.2392 L 1393.75,-56.0054 L 1393.27,-55.8208 L 1392.77,-55.6875 L 1392.26,-55.607
 L 1391.75,-55.58 z
M 600.236,-55.607 L 599.727,-55.6875 L 599.23,-55.8208 L 598.749,-56.0054 L 598.29,-56.2392 L 597.858,-56.5196
 L 597.458,-56.8437 L 597.094,-57.2079 L 596.77,-57.6081 L 596.489,-58.04 L 596.255,-58.4989 L 596.071,-58.9796
 L 595.938,-59.4771 L 595.857,-59.9857 L 595.83,-60.5 L 595.857,-61.0143 L 595.938,-61.5229 L 596.071,-62.0204
 L 596.255,-62.5011 L 596.489,-62.96 L 596.77,-63.3919 L 597.094,-63.7921 L 597.458,-64.1563 L 597.858,-64.4804
 L 598.2,-64.7024 L 598.2,-74 L 598.256,-74.5302 L 598.42,-75.0372 L 598.687,-75.4988 L 599.044,-75.895
 L 599.475,-76.2084 L 599.962,-76.4252 L 600.483,-76.536 L 601.017,-76.536 L 601.538,-76.4252 L 602.025,-76.2084
 L 602.456,-75.895 L 602.813,-75.4988 L 603.08,-75.0372 L 603.244,-74.5302 L 603.3,-74 L 603.3,-64.7024
 L 603.642,-64.4804 L 604.042,-64.1563 L 604.406,-63.7921 L 604.73,-63.3919 L 605.011,-62.96 L 605.245,-62.5011
 L 605.429,-62.0204 L 605.562,-61.5229 L 605.643,-61.0143 L 605.67,-60.5 L 605.643,-59.9857 L 605.562,-59.4771
 L 605.429,-58.9796 L 605.245,-58.4989 L 605.011,-58.04 L 604.73,-57.6081 L 604.406,-57.2079 L 604.042,-56.8437
 L 603.642,-56.5196 L 603.21,-56.2392 L 602.751,-56.0054 L 602.27,-55.8208 L 601.773,-55.6875 L 601.264,-55.607
 L 600.75,-55.58 z
M 402.486,-55.607 L 401.977,-55.6875 L 401.48,-55.8208 L 400.999,-56.0054 L 400.54,-56.2392 L 400.108,-56.5196
 L 399.708,-56.8437 L 399.344,-57.2079 L 399.02,-57.6081 L 398.739,-58.04 L 398.505,-58.4989 L 398.321,-58.9796
 L 398.188,-59.4771 L 398.107,-59.9857 L 398.08,-60.5 L 398.107,-61.0143 L 398.188,-61.5229 L 398.321,-62.0204
 L 398.505,-62.5011 L 398.739,-62.96 L 399.02,-63.3919 L 399.344,-63.7921 L 399.708,-64.1563 L 400.108,-64.4804
 L 400.45,-64.7024 L 400.45,-74 L 400.506,-74.5302 L 400.67,-75.0372 L 400.937,-75.4988 L 401.294,-75.895
 L 401.725,-76.2084 L 402.212,-76.4252 L 402.733,-76.536 L 403.267,-76.536 L 403.788,-76.4252 L 404.275,-76.2084
 L 404.706,-75.895 L 405.063,-75.4988 L 405.33,-75.0372 L 405.494,-74.5302 L 405.55,-74 L 405.55,-64.7024
 L 405.892,-64.4804 L 406.292,-64.1563 L 406.656,-63.7921 L 406.98,-63.3919 L 407.261,-62.96 L 407.495,-62.5011
 L 407.679,-62.0204 L 407.812,-61.5229 L 407.893,-61.0143 L 407.92,-60.5 L 407.893,-59.9857 L 407.812,-59.4771
 L 407.679,-58.9796 L 407.495,-58.4989 L 407.261,-58.04 L 406.98,-57.6081 L 406.656,-57.2079 L 406.292,-56.8437
 L 405.892,-56.5196 L 405.46,-56.2392 L 405.001,-56.0054 L 404.52,-55.8208 L 404.023,-55.6875 L 403.514,-55.607
 L 403,-55.58 z
M 1588.99,-55.607 L 1588.48,-55.6875 L 1587.98,-55.8208 L 1587.5,-56.0054 L 1587.04,-56.2392 L 1586.61,-56.5196
 L 1586.21,-56.8437 L 1585.84,-57.2079 L 1585.52,-57.6081 L 1585.24,-58.04 L 1585.01,-58.4989 L 1584.82,-58.9796
 L 1584.69,-59.4771 L 1584.61,-59.9857 L 1584.58,-60.5 L 1584.61,-61.0143 L 1584.69,-61.5229 L 1584.82,-62.0204
 L 1585.01,-62.5011 L 1585.24,-62.96 L 1585.52,-63.3919 L 1585.84,-63.7921 L 1586.21,-64.1563 L 1586.61,-64.4804
 L 1586.95,-64.7024 L 1586.95,-74 L 1587.01,-74.5302 L 1587.17,-75.0372 L 1587.44,-75.4988 L 1587.79,-75.895
 L 1588.23,-76.2084 L 1588.71,-76.4252 L 1589.23,-76.536 L 1589.77,-76.536 L 1590.29,-76.4252 L 1590.77,-76.2084
 L 1591.21,-75.895 L 1591.56,-75.4988 L 1591.83,-75.0372 L 1591.99,-74.5302 L 1592.05,-74 L 1592.05,-64.7024
 L 1592.39,-64.4804 L 1592.79,-64.1563 L 1593.16,-63.7921 L 1593.48,-63.3919 L 1593.76,-62.96 L 1593.99,-62.5011
 L 1594.18,-62.0204 L 1594.31,-61.5229 L 1594.39,-61.0143 L 1594.42,-60.5 L 1594.39,-59.9857 L 1594.31,-59.4771
 L 1594.18,-58.9796 L 1593.99,-58.4989 L 1593.76,-58.04 L 1593.48,-57.6081 L 1593.16,-57.2079 L 1592.79,-56.8437
 L 1592.39,-56.5196 L 1591.96,-56.2392 L 1591.5,-56.0054 L 1591.02,-55.8208 L 1590.52,-55.6875 L 1590.01,-55.607
 L 1589.5,-55.58 z
M 389.514,-20.245 L 388.699,-20.4328 L 290.451,-54.2174 L 289.4,-54.7639 L 288.779,-55.3235 L 288.287,-56
 L 287.947,-56.7639 L 287.773,-57.5819 L 287.773,-58.4181 L 287.947,-59.2361 L 288.287,-60 L 288.779,-60.6765
 L 289.4,-61.2361 L 290.124,-61.6542 L 290.92,-61.9126 L 291.751,-62 L 390,-62 L 391.236,-61.8042
 L 392,-61.4641 L 392.677,-60.9726 L 393.236,-60.3511 L 393.654,-59.627 L 393.913,-58.8316 L 394,-58
 L 394,-24.2154 L 393.898,-23.3172 L 393.626,-22.5264 L 393.196,-21.8095 L 392.625,-21.1976 L 391.941,-20.7177
 L 391.171,-20.3907 L 390.35,-20.2308 z
M 587.264,-20.245 L 586.449,-20.4328 L 488.201,-54.2174 L 487.15,-54.7639 L 486.529,-55.3235 L 486.037,-56
 L 485.697,-56.7639 L 485.523,-57.5819 L 485.523,-58.4181 L 485.697,-59.2361 L 486.037,-60 L 486.529,-60.6765
 L 487.15,-61.2361 L 487.874,-61.6542 L 488.67,-61.9126 L 489.501,-62 L 587.75,-62 L 588.986,-61.8042
 L 589.75,-61.4641 L 590.427,-60.9726 L 590.986,-60.3511 L 591.404,-59.627 L 591.663,-58.8316 L 591.75,-58
 L 591.75,-24.2154 L 591.648,-23.3172 L 591.376,-22.5264 L 590.946,-21.8095 L 590.375,-21.1976 L 589.691,-20.7177
 L 588.921,-20.3907 L 588.1,-20.2308 z
M 1403.58,-20.3907 L 1402.81,-20.7177 L 1402.12,-21.1976 L 1401.55,-21.8095 L 1401.12,-22.5264 L 1400.85,-23.3172
 L 1400.75,-24.2154 L 1400.75,-58 L 1400.84,-58.8316 L 1401.1,-59.627 L 1401.51,-60.3511 L 1402.07,-60.9726
 L 1402.75,-61.4641 L 1403.51,-61.8042 L 1404.75,-62 L 1503,-62 L 1503.83,-61.9126 L 1504.63,-61.6542
 L 1505.35,-61.2361 L 1505.97,-60.6765 L 1506.46,-60 L 1506.8,-59.2361 L 1506.98,-58.4181 L 1506.98,-57.5819
 L 1506.8,-56.7639 L 1506.46,-56 L 1505.97,-55.3235 L 1505.35,-54.7639 L 1504.3,-54.2174 L 1406.05,-20.4328
 L 1405.24,-20.245 L 1404.4,-20.2308 z
M 785.014,-20.245 L 784.199,-20.4328 L 685.951,-54.2174 L 684.9,-54.7639 L 684.279,-55.3235 L 683.787,-56
 L 683.447,-56.7639 L 683.273,-57.5819 L 683.273,-58.4181 L 683.447,-59.2361 L 683.787,-60 L 684.279,-60.6765
 L 684.9,-61.2361 L 685.624,-61.6542 L 686.42,-61.9126 L 687.251,-62 L 785.5,-62 L 786.736,-61.8042
 L 787.5,-61.4641 L 788.177,-60.9726 L 788.736,-60.3511 L 789.154,-59.627 L 789.413,-58.8316 L 789.5,-58
 L 789.5,-24.2154 L 789.398,-23.3172 L 789.126,-22.5264 L 788.696,-21.8095 L 788.125,-21.1976 L 787.441,-20.7177
 L 786.671,-20.3907 L 785.85,-20.2308 z
M 191.764,-20.245 L 190.949,-20.4328 L 92.7007,-54.2174 L 91.6503,-54.7639 L 91.0288,-55.3235 L 90.5373,-56
 L 90.1972,-56.7639 L 90.0233,-57.5819 L 90.0233,-58.4181 L 90.1972,-59.2361 L 90.5373,-60 L 91.0288,-60.6765
 L 91.6503,-61.2361 L 92.3745,-61.6542 L 93.1698,-61.9126 L 94.0014,-62 L 192.25,-62 L 193.486,-61.8042
 L 194.25,-61.4641 L 194.927,-60.9726 L 195.486,-60.3511 L 195.904,-59.627 L 196.163,-58.8316 L 196.25,-58
 L 196.25,-24.2154 L 196.148,-23.3172 L 195.876,-22.5264 L 195.446,-21.8095 L 194.875,-21.1976 L 194.191,-20.7177
 L 193.421,-20.3907 L 192.6,-20.2308 z
M 810.329,-20.3907 L 809.559,-20.7177 L 808.875,-21.1976 L 808.304,-21.8095 L 807.874,-22.5264 L 807.602,-23.3172
 L 807.5,-24.2154 L 807.5,-58 L 807.587,-58.8316 L 807.846,-59.627 L 808.264,-60.3511 L 808.823,-60.9726
 L 809.5,-61.4641 L 810.264,-61.8042 L 811.5,-62 L 909.749,-62 L 910.58,-61.9126 L 911.376,-61.6542
 L 912.1,-61.2361 L 912.721,-60.6765 L 913.213,-60 L 913.553,-59.2361 L 913.727,-58.4181 L 913.727,-57.5819
 L 913.553,-56.7639 L 913.213,-56 L 912.721,-55.3235 L 912.1,-54.7639 L 911.049,-54.2174 L 812.801,-20.4328
 L 811.986,-20.245 L 811.15,-20.2308 z
M 1008.08,-20.3907 L 1007.31,-20.7177 L 1006.62,-21.1976 L 1006.05,-21.8095 L 1005.62,-22.5264 L 1005.35,-23.3172
 L 1005.25,-24.2154 L 1005.25,-58 L 1005.34,-58.8316 L 1005.6,-59.627 L 1006.01,-60.3511 L 1006.57,-60.9726
 L 1007.25,-61.4641 L 1008.01,-61.8042 L 1009.25,-62 L 1107.5,-62 L 1108.33,-61.9126 L 1109.13,-61.6542
 L 1109.85,-61.2361 L 1110.47,-60.6765 L 1110.96,-60 L 1111.3,-59.2361 L 1111.48,-58.4181 L 1111.48,-57.5819
 L 1111.3,-56.7639 L 1110.96,-56 L 1110.47,-55.3235 L 1109.85,-54.7639 L 1108.8,-54.2174 L 1010.55,-20.4328
 L 1009.74,-20.245 L 1008.9,-20.2308 z
M 1205.83,-20.3907 L 1205.06,-20.7177 L 1204.37,-21.1976 L 1203.8,-21.8095 L 1203.37,-22.5264 L 1203.1,-23.3172
 L 1203,-24.2154 L 1203,-58 L 1203.09,-58.8316 L 1203.35,-59.627 L 1203.76,-60.3511 L 1204.32,-60.9726
 L 1205,-61.4641 L 1205.76,-61.8042 L 1207,-62 L 1305.25,-62 L 1306.08,-61.9126 L 1306.88,-61.6542
 L 1307.6,-61.2361 L 1308.22,-60.6765 L 1308.71,-60 L 1309.05,-59.2361 L 1309.23,-58.4181 L 1309.23,-57.5819
 L 1309.05,-56.7639 L 1308.71,-56 L 1308.22,-55.3235 L 1307.6,-54.7639 L 1306.55,-54.2174 L 1208.3,-20.4328
 L 1207.49,-20.245 L 1206.65,-20.2308 z
M 218.25,-18 L 217.014,-18.1958 L 216.25,-18.5359 L 215.573,-19.0274 L 215.014,-19.6489 L 214.596,-20.373
 L 214.337,-21.1684 L 214.25,-22 L 214.25,-55.7846 L 214.352,-56.6828 L 214.624,-57.4736 L 215.054,-58.1905
 L 215.625,-58.8023 L 216.309,-59.2823 L 217.079,-59.6093 L 217.9,-59.7692 L 218.736,-59.755 L 219.551,-59.5672
 L 317.799,-25.7826 L 318.85,-25.2361 L 319.471,-24.6765 L 319.963,-24 L 320.303,-23.2361 L 320.477,-22.4181
 L 320.477,-21.5819 L 320.303,-20.7639 L 319.963,-20 L 319.471,-19.3235 L 318.85,-18.7639 L 318.126,-18.3458
 L 317.33,-18.0874 L 316.499,-18 z
M 416,-18 L 414.764,-18.1958 L 414,-18.5359 L 413.323,-19.0274 L 412.764,-19.6489 L 412.346,-20.373
 L 412.087,-21.1684 L 412,-22 L 412,-55.7846 L 412.102,-56.6828 L 412.374,-57.4736 L 412.804,-58.1905
 L 413.375,-58.8023 L 414.059,-59.2823 L 414.829,-59.6093 L 415.65,-59.7692 L 416.486,-59.755 L 417.301,-59.5672
 L 515.549,-25.7826 L 516.6,-25.2361 L 517.221,-24.6765 L 517.713,-24 L 518.053,-23.2361 L 518.227,-22.4181
 L 518.227,-21.5819 L 518.053,-20.7639 L 517.713,-20 L 517.221,-19.3235 L 516.6,-18.7639 L 515.876,-18.3458
 L 515.08,-18.0874 L 514.249,-18 z
M 613.75,-18 L 612.514,-18.1958 L 611.75,-18.5359 L 611.073,-19.0274 L 610.514,-19.6489 L 610.096,-20.373
 L 609.837,-21.1684 L 609.75,-22 L 609.75,-55.7846 L 609.852,-56.6828 L 610.124,-57.4736 L 610.554,-58.1905
 L 611.125,-58.8023 L 611.809,-59.2823 L 612.579,-59.6093 L 613.4,-59.7692 L 614.236,-59.755 L 615.051,-59.5672
 L 713.299,-25.7826 L 714.35,-25.2361 L 714.971,-24.6765 L 715.463,-24 L 715.803,-23.2361 L 715.977,-22.4181
 L 715.977,-21.5819 L 715.803,-20.7639 L 715.463,-20 L 714.971,-19.3235 L 714.35,-18.7639 L 713.626,-18.3458
 L 712.83,-18.0874 L 711.999,-18 z
M 885.001,-18 L 884.17,-18.0874 L 883.374,-18.3458 L 882.65,-18.7639 L 882.029,-19.3235 L 881.537,-20
 L 881.197,-20.7639 L 881.023,-21.5819 L 881.023,-22.4181 L 881.197,-23.2361 L 881.537,-24 L 882.029,-24.6765
 L 882.65,-25.2361 L 883.701,-25.7826 L 981.949,-59.5672 L 982.764,-59.755 L 983.6,-59.7692 L 984.421,-59.6093
 L 985.191,-59.2823 L 985.875,-58.8023 L 986.446,-58.1905 L 986.876,-57.4736 L 987.148,-56.6828 L 987.25,-55.7846
 L 987.25,-22 L 987.163,-21.1684 L 986.904,-20.373 L 986.486,-19.6489 L 985.927,-19.0274 L 985.25,-18.5359
 L 984.486,-18.1958 L 983.25,-18 z
M 1082.75,-18 L 1081.92,-18.0874 L 1081.12,-18.3458 L 1080.4,-18.7639 L 1079.78,-19.3235 L 1079.29,-20
 L 1078.95,-20.7639 L 1078.77,-21.5819 L 1078.77,-22.4181 L 1078.95,-23.2361 L 1079.29,-24 L 1079.78,-24.6765
 L 1080.4,-25.2361 L 1081.45,-25.7826 L 1179.7,-59.5672 L 1180.51,-59.755 L 1181.35,-59.7692 L 1182.17,-59.6093
 L 1182.94,-59.2823 L 1183.63,-58.8023 L 1184.2,-58.1905 L 1184.63,-57.4736 L 1184.9,-56.6828 L 1185,-55.7846
 L 1185,-22 L 1184.91,-21.1684 L 1184.65,-20.373 L 1184.24,-19.6489 L 1183.68,-19.0274 L 1183,-18.5359
 L 1182.24,-18.1958 L 1181,-18 z
M 1280.5,-18 L 1279.67,-18.0874 L 1278.87,-18.3458 L 1278.15,-18.7639 L 1277.53,-19.3235 L 1277.04,-20
 L 1276.7,-20.7639 L 1276.52,-21.5819 L 1276.52,-22.4181 L 1276.7,-23.2361 L 1277.04,-24 L 1277.53,-24.6765
 L 1278.15,-25.2361 L 1279.2,-25.7826 L 1377.45,-59.5672 L 1378.26,-59.755 L 1379.1,-59.7692 L 1379.92,-59.6093
 L 1380.69,-59.2823 L 1381.38,-58.8023 L 1381.95,-58.1905 L 1382.38,-57.4736 L 1382.65,-56.6828 L 1382.75,-55.7846
 L 1382.75,-22 L 1382.66,-21.1684 L 1382.4,-20.373 L 1381.99,-19.6489 L 1381.43,-19.0274 L 1380.75,-18.5359
 L 1379.99,-18.1958 L 1378.75,-18 z
M 1478.25,-18 L 1477.42,-18.0874 L 1476.62,-18.3458 L 1475.9,-18.7639 L 1475.28,-19.3235 L 1474.79,-20
 L 1474.45,-20.7639 L 1474.27,-21.5819 L 1474.27,-22.4181 L 1474.45,-23.2361 L 1474.79,-24 L 1475.28,-24.6765
 L 1475.9,-25.2361 L 1476.95,-25.7826 L 1573.7,-59.0514 L 1574.51,-59.2392 L 1575.35,-59.2534 L 1576.17,-59.0935
 L 1576.94,-58.7664 L 1577.63,-58.2865 L 1578.2,-57.6747 L 1578.63,-56.9577 L 1578.9,-56.167 L 1579,-55.2688
 L 1579,-22 L 1578.91,-21.1684 L 1578.65,-20.373 L 1578.24,-19.6489 L 1577.68,-19.0274 L 1577,-18.5359
 L 1576.24,-18.1958 L 1575,-18 z
M 22,-18 L 20.7639,-18.1958 L 20,-18.5359 L 19.3235,-19.0274 L 18.7639,-19.6489 L 18.3458,-20.373
 L 18.0874,-21.1684 L 18,-22 L 18,-55.2688 L 18.1022,-56.167 L 18.3741,-56.9577 L 18.8045,-57.6747
 L 19.3745,-58.2865 L 20.0593,-58.7664 L 20.8289,-59.0935 L 21.6497,-59.2534 L 22.4858,-59.2392 L 23.3007,-59.0514
 L 120.049,-25.7826 L 121.1,-25.2361 L 121.721,-24.6765 L 122.213,-24 L 122.553,-23.2361 L 122.727,-22.4181
 L 122.727,-21.5819 L 122.553,-20.7639 L 122.213,-20 L 121.721,-19.3235 L 121.1,-18.7639 L 120.376,-18.3458
 L 119.58,-18.0874 L 118.749,-18 z
" stroke="black" fill="lightgray" stroke-width="0.5"/>
</svg>
