<?xml version="1.0" standalone="no"?>
<!DOCTYPE svg PUBLIC "-//W3C//DTD SVG 1.1//EN" "http://www.w3.org/Graphics/SVG/1.1/DTD/svg11.dtd">
<svg width="1091mm" height="80mm" viewBox="0 -80 1091 80" xmlns="http://www.w3.org/2000/svg" version="1.1">
<title>OpenSCAD Model</title>
<path d="
M 1091,-80 L 0,-80 L 0,-0 L 4.95,-0 L 4.95,-6 L 5.00572,-6.53017
 L 5.17046,-7.03717 L 5.437,-7.49884 L 5.79372,-7.895 L 6.22499,-8.20836 L 6.71201,-8.42519 L 7.23344,-8.53603
 L 7.76654,-8.53603 L 8.28798,-8.42519 L 8.77499,-8.20836 L 9.20627,-7.895 L 9.56299,-7.49884 L 9.82953,-7.03717
 L 9.99426,-6.53017 L 10.05,-6 L 10.05,-0 L 184.283,-0 L 184.283,-6 L 184.339,-6.53017
 L 184.504,-7.03717 L 184.77,-7.49884 L 185.127,-7.895 L 185.558,-8.20836 L 186.045,-8.42519 L 186.567,-8.53603
 L 187.1,-8.53603 L 187.621,-8.42519 L 188.108,-8.20836 L 188.54,-7.895 L 188.896,-7.49884 L 189.163,-7.03717
 L 189.328,-6.53017 L 189.383,-6 L 189.383,-0 L 363.617,-0 L 363.617,-6 L 363.672,-6.53017
 L 363.837,-7.03717 L 364.104,-7.49884 L 364.46,-7.895 L 364.892,-8.20836 L 365.379,-8.42519 L 365.9,-8.53603
 L 366.433,-8.53603 L 366.955,-8.42519 L 367.442,-8.20836 L 367.873,-7.895 L 368.23,-7.49884 L 368.496,-7.03717
 L 368.661,-6.53017 L 368.717,-6 L 368.717,-0 L 542.95,-0 L 542.95,-6 L 543.006,-6.53017
 L 543.17,-7.03717 L 543.437,-7.49884 L 543.794,-7.895 L 544.225,-8.20836 L 544.712,-8.42519 L 545.233,-8.53603
 L 545.767,-8.53603 L 546.288,-8.42519 L 546.775,-8.20836 L 547.206,-7.895 L 547.563,-7.49884 L 547.83,-7.03717
 L 547.994,-6.53017 L 548.05,-6 L 548.05,-0 L 722.283,-0 L 722.283,-6 L 722.339,-6.53017
 L 722.504,-7.03717 L 722.77,-7.49884 L 723.127,-7.895 L 723.558,-8.20836 L 724.045,-8.42519 L 724.567,-8.53603
 L 725.1,-8.53603 L 725.621,-8.42519 L 726.108,-8.20836 L 726.54,-7.895 L 726.896,-7.49884 L 727.163,-7.03717
 L 727.328,-6.53017 L 727.383,-6 L 727.383,-0 L 901.617,-0 L 901.617,-6 L 901.672,-6.53017
 L 901.837,-7.03717 L 902.104,-7.49884 L 902.46,-7.895 L 902.892,-8.20836 L 903.379,-8.42519 L 903.9,-8.53603
 L 904.433,-8.53603 L 904.955,-8.42519 L 905.442,-8.20836 L 905.873,-7.895 L 906.23,-7.49884 L 906.496,-7.03717
 L 906.661,-6.53017 L 906.717,-6 L 906.717,-0 L 1080.95,-0 L 1080.95,-6 L 1081.01,-6.53017
 L 1081.17,-7.03717 L 1081.44,-7.49884 L 1081.79,-7.895 L 1082.22,-8.20836 L 1082.71,-8.42519 L 1083.23,-8.53603
 L 1083.77,-8.53603 L 1084.29,-8.42519 L 1084.77,-8.20836 L 1085.21,-7.895 L 1085.56,-7.49884 L 1085.83,-7.03717
 L 1085.99,-6.53017 L 1086.05,-6 L 1086.05,-0 L 1091,-0 z
M 6.98573,-55.607 L 6.47708,-55.6875 L 5.97964,-55.8208 L 5.49887,-56.0054 L 5.04001,-56.2392 L 4.60811,-56.5196
 L 4.20789,-56.8437 L 3.84373,-57.2079 L 3.51964,-57.6081 L 3.23917,-58.04 L 3.00537,-58.4989 L 2.82082,-58.9796
 L 2.68752,-59.4771 L 2.60696,-59.9857 L 2.58,-60.5 L 2.60696,-61.0143 L 2.68752,-61.5229 L 2.82082,-62.0204
 L 3.00537,-62.5011 L 3.23917,-62.96 L 3.51964,-63.3919 L 3.84373,-63.7921 L 4.20789,-64.1563 L 4.60811,-64.4804
 L 4.95001,-64.7024 L 4.95001,-74 L 5.00574,-74.5302 L 5.17047,-75.0372 L 5.43701,-75.4988 L 5.79373,-75.895
 L 6.22501,-76.2084 L 6.71202,-76.4252 L 7.23346,-76.536 L 7.76654,-76.536 L 8.28798,-76.4252 L 8.77499,-76.2084
 L 9.20627,-75.895 L 9.56299,-75.4988 L 9.82953,-75.0372 L 9.99426,-74.5302 L 10.05,-74 L 10.05,-64.7024
 L 10.3919,-64.4804 L 10.7921,-64.1563 L 11.1563,-63.7921 L 11.4804,-63.3919 L 11.7608,-62.96 L 11.9946,-62.5011
 L 12.1792,-62.0204 L 12.3125,-61.5229 L 12.393,-61.0143 L 12.42,-60.5 L 12.393,-59.9857 L 12.3125,-59.4771
 L 12.1792,-58.9796 L 11.9946,-58.4989 L 11.7608,-58.04 L 11.4804,-57.6081 L 11.1563,-57.2079 L 10.7921,-56.8437
 L 10.3919,-56.5196 L 9.95999,-56.2392 L 9.50113,-56.0054 L 9.02036,-55.8208 L 8.52292,-55.6875 L 8.01427,-55.607
 L 7.5,-55.58 z
M 186.319,-55.607 L 185.81,-55.6875 L 185.313,-55.8208 L 184.832,-56.0054 L 184.373,-56.2392 L 183.941,-56.5196
 L 183.541,-56.8437 L 183.177,-57.2079 L 182.853,-57.6081 L 182.572,-58.04 L 182.339,-58.4989 L 182.154,-58.9796
 L 182.021,-59.4771 L 181.94,-59.9857 L 181.913,-60.5 L 181.94,-61.0143 L 182.021,-61.5229 L 182.154,-62.0204
 L 182.339,-62.5011 L 182.572,-62.96 L 182.853,-63.3919 L 183.177,-63.7921 L 183.541,-64.1563 L 183.941,-64.4804
 L 184.283,-64.7024 L 184.283,-74 L 184.339,-74.5302 L 184.504,-75.0372 L 184.77,-75.4988 L 185.127,-75.895
 L 185.558,-76.2084 L 186.045,-76.4252 L 186.567,-76.536 L 187.1,-76.536 L 187.621,-76.4252 L 188.108,-76.2084
 L 188.54,-75.895 L 188.896,-75.4988 L 189.163,-75.0372 L 189.328,-74.5302 L 189.383,-74 L 189.383,-64.7024
 L 189.725,-64.4804 L 190.125,-64.1563 L 190.49,-63.7921 L 190.814,-63.3919 L 191.094,-62.96 L 191.328,-62.5011
 L 191.513,-62.0204 L 191.646,-61.5229 L 191.726,-61.0143 L 191.753,-60.5 L 191.726,-59.9857 L 191.646,-59.4771
 L 191.513,-58.9796 L 191.328,-58.4989 L 191.094,-58.04 L 190.814,-57.6081 L 190.49,-57.2079 L 190.125,-56.8437
 L 189.725,-56.5196 L 189.293,-56.2392 L 188.834,-56.0054 L 188.354,-55.8208 L 187.856,-55.6875 L 187.348,-55.607
 L 186.833,-55.58 z
M 365.652,-55.607 L 365.144,-55.6875 L 364.646,-55.8208 L 364.166,-56.0054 L 363.707,-56.2392 L 363.275,-56.5196
 L 362.875,-56.8437 L 362.51,-57.2079 L 362.186,-57.6081 L 361.906,-58.04 L 361.672,-58.4989 L 361.487,-58.9796
 L 361.354,-59.4771 L 361.274,-59.9857 L 361.247,-60.5 L 361.274,-61.0143 L 361.354,-61.5229 L 361.487,-62.0204
 L 361.672,-62.5011 L 361.906,-62.96 L 362.186,-63.3919 L 362.51,-63.7921 L 362.875,-64.1563 L 363.275,-64.4804
 L 363.617,-64.7024 L 363.617,-74 L 363.672,-74.5302 L 363.837,-75.0372 L 364.104,-75.4988 L 364.46,-75.895
 L 364.892,-76.2084 L 365.379,-76.4252 L 365.9,-76.536 L 366.433,-76.536 L 366.955,-76.4252 L 367.442,-76.2084
 L 367.873,-75.895 L 368.23,-75.4988 L 368.496,-75.0372 L 368.661,-74.5302 L 368.717,-74 L 368.717,-64.7024
 L 369.059,-64.4804 L 369.459,-64.1563 L 369.823,-63.7921 L 370.147,-63.3919 L 370.427,-62.96 L 370.661,-62.5011
 L 370.846,-62.0204 L 370.979,-61.5229 L 371.06,-61.0143 L 371.087,-60.5 L 371.06,-59.9857 L 370.979,-59.4771
 L 370.846,-58.9796 L 370.661,-58.4989 L 370.427,-58.04 L 370.147,-57.6081 L 369.823,-57.2079 L 369.459,-56.8437
 L 369.059,-56.5196 L 368.627,-56.2392 L 368.168,-56.0054 L 367.687,-55.8208 L 367.19,-55.6875 L 366.681,-55.607
 L 366.167,-55.58 z
M 544.986,-55.607 L 544.477,-55.6875 L 543.98,-55.8208 L 543.499,-56.0054 L 543.04,-56.2392 L 542.608,-56.5196
 L 542.208,-56.8437 L 541.844,-57.2079 L 541.52,-57.6081 L 541.239,-58.04 L 541.005,-58.4989 L 540.821,-58.9796
 L 540.688,-59.4771 L 540.607,-59.9857 L 540.58,-60.5 L 540.607,-61.0143 L 540.688,-61.5229 L 540.821,-62.0204
 L 541.005,-62.5011 L 541.239,-62.96 L 541.52,-63.3919 L 541.844,-63.7921 L 542.208,-64.1563 L 542.608,-64.4804
 L 542.95,-64.7024 L 542.95,-74 L 543.006,-74.5302 L 543.17,-75.0372 L 543.437,-75.4988 L 543.794,-75.895
 L 544.225,-76.2084 L 544.712,-76.4252 L 545.233,-76.536 L 545.767,-76.536 L 546.288,-76.4252 L 546.775,-76.2084
 L 547.206,-75.895 L 547.563,-75.4988 L 547.83,-75.0372 L 547.994,-74.5302 L 548.05,-74 L 548.05,-64.7024
 L 548.392,-64.4804 L 548.792,-64.1563 L 549.156,-63.7921 L 549.48,-63.3919 L 549.761,-62.96 L 549.995,-62.5011
 L 550.179,-62.0204 L 550.312,-61.5229 L 550.393,-61.0143 L 550.42,-60.5 L 550.393,-59.9857 L 550.312,-59.4771
 L 550.179,-58.9796 L 549.995,-58.4989 L 549.761,-58.04 L 549.48,-57.6081 L 549.156,-57.2079 L 548.792,-56.8437
 L 548.392,-56.5196 L 547.96,-56.2392 L 547.501,-56.0054 L 547.02,-55.8208 L 546.523,-55.6875 L 546.014,-55.607
 L 545.5,-55.58 z
M 724.319,-55.607 L 723.81,-55.6875 L 723.313,-55.8208 L 722.832,-56.0054 L 722.373,-56.2392 L 721.941,-56.5196
 L 721.541,-56.8437 L 721.177,-57.2079 L 720.853,-57.6081 L 720.572,-58.04 L 720.339,-58.4989 L 720.154,-58.9796
 L 720.021,-59.4771 L 719.94,-59.9857 L 719.913,-60.5 L 719.94,-61.0143 L 720.021,-61.5229 L 720.154,-62.0204
 L 720.339,-62.5011 L 720.572,-62.96 L 720.853,-63.3919 L 721.177,-63.7921 L 721.541,-64.1563 L 721.941,-64.4804
 L 722.283,-64.7024 L 722.283,-74 L 722.339,-74.5302 L 722.504,-75.0372 L 722.77,-75.4988 L 723.127,-75.895
 L 723.558,-76.2084 L 724.045,-76.4252 L 724.567,-76.536 L 725.1,-76.536 L 725.621,-76.4252 L 726.108,-76.2084
 L 726.54,-75.895 L 726.896,-75.4988 L 727.163,-75.0372 L 727.328,-74.5302 L 727.383,-74 L 727.383,-64.7024
 L 727.725,-64.4804 L 728.125,-64.1563 L 728.49,-63.7921 L 728.814,-63.3919 L 729.094,-62.96 L 729.328,-62.5011
 L 729.513,-62.0204 L 729.646,-61.5229 L 729.726,-61.0143 L 729.753,-60.5 L 729.726,-59.9857 L 729.646,-59.4771
 L 729.513,-58.9796 L 729.328,-58.4989 L 729.094,-58.04 L 728.814,-57.6081 L 728.49,-57.2079 L 728.125,-56.8437
 L 727.725,-56.5196 L 727.293,-56.2392 L 726.834,-56.0054 L 726.354,-55.8208 L 725.856,-55.6875 L 725.348,-55.607
 L 724.833,-55.58 z
M 903.652,-55.607 L 903.144,-55.6875 L 902.646,-55.8208 L 902.166,-56.0054 L 901.707,-56.2392 L 901.275,-56.5196
 L 900.875,-56.8437 L 900.51,-57.2079 L 900.186,-57.6081 L 899.906,-58.04 L 899.672,-58.4989 L 899.487,-58.9796
 L 899.354,-59.4771 L 899.274,-59.9857 L 899.247,-60.5 L 899.274,-61.0143 L 899.354,-61.5229 L 899.487,-62.0204
 L 899.672,-62.5011 L 899.906,-62.96 L 900.186,-63.3919 L 900.51,-63.7921 L 900.875,-64.1563 L 901.275,-64.4804
 L 901.617,-64.7024 L 901.617,-74 L 901.672,-74.5302 L 901.837,-75.0372 L 902.104,-75.4988 L 902.46,-75.895
 L 902.892,-76.2084 L 903.379,-76.4252 L 903.9,-76.536 L 904.433,-76.536 L 904.955,-76.4252 L 905.442,-76.2084
 L 905.873,-75.895 L 906.23,-75.4988 L 906.496,-75.0372 L 906.661,-74.5302 L 906.717,-74 L 906.717,-64.7024
 L 907.059,-64.4804 L 907.459,-64.1563 L 907.823,-63.7921 L 908.147,-63.3919 L 908.427,-62.96 L 908.661,-62.5011
 L 908.846,-62.0204 L 908.979,-61.5229 L 909.06,-61.0143 L 909.087,-60.5 L 909.06,-59.9857 L 908.979,-59.4771
 L 908.846,-58.9796 L 908.661,-58.4989 L 908.427,-58.04 L 908.147,-57.6081 L 907.823,-57.2079 L 907.459,-56.8437
 L 907.059,-56.5196 L 906.627,-56.2392 L 906.168,-56.0054 L 905.687,-55.8208 L 905.19,-55.6875 L 904.681,-55.607
 L 904.167,-55.58 z
M 1082.99,-55.607 L 1082.48,-55.6875 L 1081.98,-55.8208 L 1081.5,-56.0054 L 1081.04,-56.2392 L 1080.61,-56.5196
 L 1080.21,-56.8437 L 1079.84,-57.2079 L 1079.52,-57.6081 L 1079.24,-58.04 L 1079.01,-58.4989 L 1078.82,-58.9796
 L 1078.69,-59.4771 L 1078.61,-59.9857 L 1078.58,-60.5 L 1078.61,-61.0143 L 1078.69,-61.5229 L 1078.82,-62.0204
 L 1079.01,-62.5011 L 1079.24,-62.96 L 1079.52,-63.3919 L 1079.84,-63.7921 L 1080.21,-64.1563 L 1080.61,-64.4804
 L 1080.95,-64.7024 L 1080.95,-74 L 1081.01,-74.5302 L 1081.17,-75.0372 L 1081.44,-75.4988 L 1081.79,-75.895
 L 1082.23,-76.2084 L 1082.71,-76.4252 L 1083.23,-76.536 L 1083.77,-76.536 L 1084.29,-76.4252 L 1084.77,-76.2084
 L 1085.21,-75.895 L 1085.56,-75.4988 L 1085.83,-75.0372 L 1085.99,-74.5302 L 1086.05,-74 L 1086.05,-64.7024
 L 1086.39,-64.4804 L 1086.79,-64.1563 L 1087.16,-63.7921 L 1087.48,-63.3919 L 1087.76,-62.96 L 1087.99,-62.5011
 L 1088.18,-62.0204 L 1088.31,-61.5229 L 1088.39,-61.0143 L 1088.42,-60.5 L 1088.39,-59.9857 L 1088.31,-59.4771
 L 1088.18,-58.9796 L 1087.99,-58.4989 L 1087.76,-58.04 L 1087.48,-57.6081 L 1087.16,-57.2079 L 1086.79,-56.8437
 L 1086.39,-56.5196 L 1085.96,-56.2392 L 1085.5,-56.0054 L 1085.02,-55.8208 L 1084.52,-55.6875 L 1084.01,-55.607
 L 1083.5,-55.58 z
M 916.116,-20.9569 L 915.336,-21.2598 L 914.637,-21.7181 L 914.048,-22.3118 L 913.595,-23.015 L 913.299,-23.7969
 L 913.167,-24.8163 L 913.167,-58 L 913.254,-58.8316 L 913.512,-59.627 L 913.931,-60.3511 L 914.49,-60.9726
 L 915.167,-61.4641 L 915.931,-61.8042 L 917.167,-62 L 1004.68,-62 L 1005.51,-61.9126 L 1006.31,-61.6542
 L 1007.03,-61.2361 L 1007.65,-60.6765 L 1008.14,-60 L 1008.48,-59.2361 L 1008.66,-58.4181 L 1008.66,-57.5819
 L 1008.48,-56.7639 L 1008.14,-56 L 1007.65,-55.3235 L 1007.03,-54.7639 L 1006.1,-54.2599 L 918.585,-21.0762
 L 917.776,-20.8631 L 916.941,-20.8227 z
M 352.557,-20.8631 L 351.748,-21.0762 L 264.235,-54.2599 L 263.302,-54.7639 L 262.68,-55.3235 L 262.189,-56
 L 261.849,-56.7639 L 261.675,-57.5819 L 261.675,-58.4181 L 261.849,-59.2361 L 262.189,-60 L 262.68,-60.6765
 L 263.302,-61.2361 L 264.026,-61.6542 L 264.821,-61.9126 L 265.653,-62 L 353.167,-62 L 354.403,-61.8042
 L 355.167,-61.4641 L 355.843,-60.9726 L 356.403,-60.3511 L 356.821,-59.627 L 357.079,-58.8316 L 357.167,-58
 L 357.167,-24.8163 L 357.035,-23.7969 L 356.738,-23.015 L 356.286,-22.3118 L 355.697,-21.7181 L 354.997,-21.2598
 L 354.218,-20.9569 L 353.392,-20.8227 z
M 173.224,-20.8631 L 172.415,-21.0762 L 84.9014,-54.2599 L 83.9684,-54.7639 L 83.347,-55.3235 L 82.8555,-56
 L 82.5154,-56.7639 L 82.3415,-57.5819 L 82.3415,-58.4181 L 82.5154,-59.2361 L 82.8555,-60 L 83.347,-60.6765
 L 83.9684,-61.2361 L 84.6926,-61.6542 L 85.4879,-61.9126 L 86.3196,-62 L 173.833,-62 L 175.069,-61.8042
 L 175.833,-61.4641 L 176.51,-60.9726 L 177.069,-60.3511 L 177.488,-59.627 L 177.746,-58.8316 L 177.833,-58
 L 177.833,-24.8163 L 177.701,-23.7969 L 177.405,-23.015 L 176.952,-22.3118 L 176.363,-21.7181 L 175.664,-21.2598
 L 174.884,-20.9569 L 174.059,-20.8227 z
M 531.89,-20.8631 L 531.082,-21.0762 L 443.568,-54.2599 L 442.635,-54.7639 L 442.014,-55.3235 L 441.522,-56
 L 441.182,-56.7639 L 441.008,-57.5819 L 441.008,-58.4181 L 441.182,-59.2361 L 441.522,-60 L 442.014,-60.6765
 L 442.635,-61.2361 L 443.359,-61.6542 L 444.155,-61.9126 L 444.986,-62 L 532.5,-62 L 533.736,-61.8042
 L 534.5,-61.4641 L 535.177,-60.9726 L 535.736,-60.3511 L 536.154,-59.627 L 536.413,-58.8316 L 536.5,-58
 L 536.5,-24.8163 L 536.368,-23.7969 L 536.071,-23.015 L 535.619,-22.3118 L 535.03,-21.7181 L 534.33,-21.2598
 L 533.551,-20.9569 L 532.726,-20.8227 z
M 557.449,-20.9569 L 556.669,-21.2598 L 555.97,-21.7181 L 555.381,-22.3118 L 554.929,-23.015 L 554.632,-23.7969
 L 554.5,-24.8163 L 554.5,-58 L 554.587,-58.8316 L 554.846,-59.627 L 555.264,-60.3511 L 555.823,-60.9726
 L 556.5,-61.4641 L 557.264,-61.8042 L 558.5,-62 L 646.014,-62 L 646.845,-61.9126 L 647.641,-61.6542
 L 648.365,-61.2361 L 648.986,-60.6765 L 649.478,-60 L 649.818,-59.2361 L 649.992,-58.4181 L 649.992,-57.5819
 L 649.818,-56.7639 L 649.478,-56 L 648.986,-55.3235 L 648.365,-54.7639 L 647.432,-54.2599 L 559.918,-21.0762
 L 559.11,-20.8631 L 558.274,-20.8227 z
M 736.782,-20.9569 L 736.003,-21.2598 L 735.303,-21.7181 L 734.714,-22.3118 L 734.262,-23.015 L 733.965,-23.7969
 L 733.833,-24.8163 L 733.833,-58 L 733.921,-58.8316 L 734.179,-59.627 L 734.597,-60.3511 L 735.157,-60.9726
 L 735.833,-61.4641 L 736.597,-61.8042 L 737.833,-62 L 825.347,-62 L 826.179,-61.9126 L 826.974,-61.6542
 L 827.698,-61.2361 L 828.32,-60.6765 L 828.811,-60 L 829.151,-59.2361 L 829.325,-58.4181 L 829.325,-57.5819
 L 829.151,-56.7639 L 828.811,-56 L 828.32,-55.3235 L 827.698,-54.7639 L 826.765,-54.2599 L 739.252,-21.0762
 L 738.443,-20.8631 L 737.608,-20.8227 z
M 199.833,-18 L 198.597,-18.1958 L 197.833,-18.5359 L 197.157,-19.0274 L 196.597,-19.6489 L 196.179,-20.373
 L 195.921,-21.1684 L 195.833,-22 L 195.833,-55.1836 L 195.965,-56.2031 L 196.262,-56.985 L 196.714,-57.6882
 L 197.303,-58.2819 L 198.003,-58.7402 L 198.782,-59.0431 L 199.608,-59.1773 L 200.443,-59.1369 L 201.252,-58.9238
 L 288.765,-25.7401 L 289.698,-25.2361 L 290.32,-24.6765 L 290.811,-24 L 291.151,-23.2361 L 291.325,-22.4181
 L 291.325,-21.5819 L 291.151,-20.7639 L 290.811,-20 L 290.32,-19.3235 L 289.698,-18.7639 L 288.974,-18.3458
 L 288.179,-18.0874 L 287.347,-18 z
M 379.167,-18 L 377.931,-18.1958 L 377.167,-18.5359 L 376.49,-19.0274 L 375.931,-19.6489 L 375.512,-20.373
 L 375.254,-21.1684 L 375.167,-22 L 375.167,-55.1836 L 375.299,-56.2031 L 375.595,-56.985 L 376.048,-57.6882
 L 376.637,-58.2819 L 377.336,-58.7402 L 378.116,-59.0431 L 378.941,-59.1773 L 379.776,-59.1369 L 380.585,-58.9238
 L 468.099,-25.7401 L 469.032,-25.2361 L 469.653,-24.6765 L 470.144,-24 L 470.485,-23.2361 L 470.658,-22.4181
 L 470.658,-21.5819 L 470.485,-20.7639 L 470.144,-20 L 469.653,-19.3235 L 469.032,-18.7639 L 468.307,-18.3458
 L 467.512,-18.0874 L 466.68,-18 z
M 624.32,-18 L 623.488,-18.0874 L 622.693,-18.3458 L 621.968,-18.7639 L 621.347,-19.3235 L 620.856,-20
 L 620.515,-20.7639 L 620.342,-21.5819 L 620.342,-22.4181 L 620.515,-23.2361 L 620.856,-24 L 621.347,-24.6765
 L 621.968,-25.2361 L 622.901,-25.7401 L 710.415,-58.9238 L 711.224,-59.1369 L 712.059,-59.1773 L 712.884,-59.0431
 L 713.664,-58.7402 L 714.363,-58.2819 L 714.952,-57.6882 L 715.405,-56.985 L 715.701,-56.2031 L 715.833,-55.1836
 L 715.833,-22 L 715.746,-21.1684 L 715.488,-20.373 L 715.069,-19.6489 L 714.51,-19.0274 L 713.833,-18.5359
 L 713.069,-18.1958 L 711.833,-18 z
M 803.653,-18 L 802.821,-18.0874 L 802.026,-18.3458 L 801.302,-18.7639 L 800.68,-19.3235 L 800.189,-20
 L 799.849,-20.7639 L 799.675,-21.5819 L 799.675,-22.4181 L 799.849,-23.2361 L 800.189,-24 L 800.68,-24.6765
 L 801.302,-25.2361 L 802.235,-25.7401 L 889.748,-58.9238 L 890.557,-59.1369 L 891.392,-59.1773 L 892.218,-59.0431
 L 892.997,-58.7402 L 893.697,-58.2819 L 894.286,-57.6882 L 894.738,-56.985 L 895.035,-56.2031 L 895.167,-55.1836
 L 895.167,-22 L 895.079,-21.1684 L 894.821,-20.373 L 894.403,-19.6489 L 893.843,-19.0274 L 893.167,-18.5359
 L 892.403,-18.1958 L 891.167,-18 z
M 982.986,-18 L 982.155,-18.0874 L 981.359,-18.3458 L 980.635,-18.7639 L 980.014,-19.3235 L 979.522,-20
 L 979.182,-20.7639 L 979.008,-21.5819 L 979.008,-22.4181 L 979.182,-23.2361 L 979.522,-24 L 980.014,-24.6765
 L 980.635,-25.2361 L 981.568,-25.7401 L 1067.58,-58.355 L 1068.39,-58.5681 L 1069.23,-58.6085 L 1070.05,-58.4743
 L 1070.83,-58.1714 L 1071.53,-57.7131 L 1072.12,-57.1194 L 1072.57,-56.4162 L 1072.87,-55.6343 L 1073,-54.6149
 L 1073,-22 L 1072.91,-21.1684 L 1072.65,-20.373 L 1072.24,-19.6489 L 1071.68,-19.0274 L 1071,-18.5359
 L 1070.24,-18.1958 L 1069,-18 z
M 22,-18 L 20.7639,-18.1958 L 20,-18.5359 L 19.3235,-19.0274 L 18.7639,-19.6489 L 18.3458,-20.373
 L 18.0874,-21.1684 L 18,-22 L 18,-54.6149 L 18.1321,-55.6343 L 18.4286,-56.4162 L 18.8811,-57.1194
 L 19.47,-57.7131 L 20.1695,-58.1714 L 20.9489,-58.4743 L 21.7743,-58.6085 L 22.6096,-58.5681 L 23.4182,-58.355
 L 109.432,-25.7401 L 110.365,-25.2361 L 110.986,-24.6765 L 111.478,-24 L 111.818,-23.2361 L 111.992,-22.4181
 L 111.992,-21.5819 L 111.818,-20.7639 L 111.478,-20 L 110.986,-19.3235 L 110.365,-18.7639 L 109.641,-18.3458
 L 108.845,-18.0874 L 108.014,-18 z
" stroke="black" fill="lightgray" stroke-width="0.5"/>
</svg>
