<?xml version="1.0" standalone="no"?>
<!DOCTYPE svg PUBLIC "-//W3C//DTD SVG 1.1//EN" "http://www.w3.org/Graphics/SVG/1.1/DTD/svg11.dtd">
<svg width="1661mm" height="80mm" viewBox="0 -80 1661 80" xmlns="http://www.w3.org/2000/svg" version="1.1">
<title>OpenSCAD Model</title>
<path d="
M 1661,-80 L 0,-80 L 0,-0 L 4.95,-0 L 4.95,-6 L 5.00572,-6.53017
 L 5.17046,-7.03717 L 5.437,-7.49884 L 5.79372,-7.895 L 6.22499,-8.20836 L 6.71201,-8.42519 L 7.23344,-8.53603
 L 7.76654,-8.53603 L 8.28798,-8.42519 L 8.77499,-8.20836 L 9.20627,-7.895 L 9.56299,-7.49884 L 9.82953,-7.03717
 L 9.99426,-6.53017 L 10.05,-6 L 10.05,-0 L 187.839,-0 L 187.839,-6 L 187.895,-6.53017
 L 188.059,-7.03717 L 188.326,-7.49884 L 188.683,-7.895 L 189.114,-8.20836 L 189.601,-8.42519 L 190.122,-8.53603
 L 190.655,-8.53603 L 191.177,-8.42519 L 191.664,-8.20836 L 192.095,-7.895 L 192.452,-7.49884 L 192.718,-7.03717
 L 192.883,-6.53017 L 192.939,-6 L 192.939,-0 L 370.728,-0 L 370.728,-6 L 370.783,-6.53017
 L 370.948,-7.03717 L 371.215,-7.49884 L 371.571,-7.895 L 372.003,-8.20836 L 372.49,-8.42519 L 373.011,-8.53603
 L 373.544,-8.53603 L 374.066,-8.42519 L 374.553,-8.20836 L 374.984,-7.895 L 375.341,-7.49884 L 375.607,-7.03717
 L 375.772,-6.53017 L 375.828,-6 L 375.828,-0 L 553.617,-0 L 553.617,-6 L 553.672,-6.53017
 L 553.837,-7.03717 L 554.104,-7.49884 L 554.46,-7.895 L 554.892,-8.20836 L 555.379,-8.42519 L 555.9,-8.53603
 L 556.433,-8.53603 L 556.955,-8.42519 L 557.442,-8.20836 L 557.873,-7.895 L 558.23,-7.49884 L 558.496,-7.03717
 L 558.661,-6.53017 L 558.717,-6 L 558.717,-0 L 736.506,-0 L 736.506,-6 L 736.561,-6.53017
 L 736.726,-7.03717 L 736.993,-7.49884 L 737.349,-7.895 L 737.781,-8.20836 L 738.268,-8.42519 L 738.789,-8.53603
 L 739.322,-8.53603 L 739.844,-8.42519 L 740.331,-8.20836 L 740.762,-7.895 L 741.119,-7.49884 L 741.385,-7.03717
 L 741.55,-6.53017 L 741.606,-6 L 741.606,-0 L 919.394,-0 L 919.394,-6 L 919.45,-6.53017
 L 919.615,-7.03717 L 919.881,-7.49884 L 920.238,-7.895 L 920.669,-8.20836 L 921.156,-8.42519 L 921.678,-8.53603
 L 922.211,-8.53603 L 922.732,-8.42519 L 923.219,-8.20836 L 923.651,-7.895 L 924.007,-7.49884 L 924.274,-7.03717
 L 924.439,-6.53017 L 924.494,-6 L 924.494,-0 L 1102.28,-0 L 1102.28,-6 L 1102.34,-6.53017
 L 1102.5,-7.03717 L 1102.77,-7.49884 L 1103.13,-7.895 L 1103.56,-8.20836 L 1104.05,-8.42519 L 1104.57,-8.53603
 L 1105.1,-8.53603 L 1105.62,-8.42519 L 1106.11,-8.20836 L 1106.54,-7.895 L 1106.9,-7.49884 L 1107.16,-7.03717
 L 1107.33,-6.53017 L 1107.38,-6 L 1107.38,-0 L 1285.17,-0 L 1285.17,-6 L 1285.23,-6.53017
 L 1285.39,-7.03717 L 1285.66,-7.49884 L 1286.02,-7.895 L 1286.45,-8.20836 L 1286.93,-8.42519 L 1287.46,-8.53603
 L 1287.99,-8.53603 L 1288.51,-8.42519 L 1289,-8.20836 L 1289.43,-7.895 L 1289.79,-7.49884 L 1290.05,-7.03717
 L 1290.22,-6.53017 L 1290.27,-6 L 1290.27,-0 L 1468.06,-0 L 1468.06,-6 L 1468.12,-6.53017
 L 1468.28,-7.03717 L 1468.55,-7.49884 L 1468.9,-7.895 L 1469.34,-8.20836 L 1469.82,-8.42519 L 1470.34,-8.53603
 L 1470.88,-8.53603 L 1471.4,-8.42519 L 1471.89,-8.20836 L 1472.32,-7.895 L 1472.67,-7.49884 L 1472.94,-7.03717
 L 1473.11,-6.53017 L 1473.16,-6 L 1473.16,-0 L 1650.95,-0 L 1650.95,-6 L 1651.01,-6.53017
 L 1651.17,-7.03717 L 1651.44,-7.49884 L 1651.79,-7.895 L 1652.22,-8.20836 L 1652.71,-8.42519 L 1653.23,-8.53603
 L 1653.77,-8.53603 L 1654.29,-8.42519 L 1654.77,-8.20836 L 1655.21,-7.895 L 1655.56,-7.49884 L 1655.83,-7.03717
 L 1655.99,-6.53017 L 1656.05,-6 L 1656.05,-0 L 1661,-0 z
M 6.98573,-55.607 L 6.47708,-55.6875 L 5.97964,-55.8208 L 5.49887,-56.0054 L 5.04001,-56.2392 L 4.60811,-56.5196
 L 4.20789,-56.8437 L 3.84373,-57.2079 L 3.51964,-57.6081 L 3.23917,-58.04 L 3.00537,-58.4989 L 2.82082,-58.9796
 L 2.68752,-59.4771 L 2.60696,-59.9857 L 2.58,-60.5 L 2.60696,-61.0143 L 2.68752,-61.5229 L 2.82082,-62.0204
 L 3.00537,-62.5011 L 3.23917,-62.96 L 3.51964,-63.3919 L 3.84373,-63.7921 L 4.20789,-64.1563 L 4.60811,-64.4804
 L 4.95001,-64.7024 L 4.95001,-74 L 5.00574,-74.5302 L 5.17047,-75.0372 L 5.43701,-75.4988 L 5.79373,-75.895
 L 6.22501,-76.2084 L 6.71202,-76.4252 L 7.23346,-76.536 L 7.76654,-76.536 L 8.28798,-76.4252 L 8.77499,-76.2084
 L 9.20627,-75.895 L 9.56299,-75.4988 L 9.82953,-75.0372 L 9.99426,-74.5302 L 10.05,-74 L 10.05,-64.7024
 L 10.3919,-64.4804 L 10.7921,-64.1563 L 11.1563,-63.7921 L 11.4804,-63.3919 L 11.7608,-62.96 L 11.9946,-62.5011
 L 12.1792,-62.0204 L 12.3125,-61.5229 L 12.393,-61.0143 L 12.42,-60.5 L 12.393,-59.9857 L 12.3125,-59.4771
 L 12.1792,-58.9796 L 11.9946,-58.4989 L 11.7608,-58.04 L 11.4804,-57.6081 L 11.1563,-57.2079 L 10.7921,-56.8437
 L 10.3919,-56.5196 L 9.95999,-56.2392 L 9.50113,-56.0054 L 9.02036,-55.8208 L 8.52292,-55.6875 L 8.01427,-55.607
 L 7.5,-55.58 z
M 1104.32,-55.607 L 1103.81,-55.6875 L 1103.31,-55.8208 L 1102.83,-56.0054 L 1102.37,-56.2392 L 1101.94,-56.5196
 L 1101.54,-56.8437 L 1101.18,-57.2079 L 1100.85,-57.6081 L 1100.57,-58.04 L 1100.34,-58.4989 L 1100.15,-58.9796
 L 1100.02,-59.4771 L 1099.94,-59.9857 L 1099.91,-60.5 L 1099.94,-61.0143 L 1100.02,-61.5229 L 1100.15,-62.0204
 L 1100.34,-62.5011 L 1100.57,-62.96 L 1100.85,-63.3919 L 1101.18,-63.7921 L 1101.54,-64.1563 L 1101.94,-64.4804
 L 1102.28,-64.7024 L 1102.28,-74 L 1102.34,-74.5302 L 1102.5,-75.0372 L 1102.77,-75.4988 L 1103.13,-75.895
 L 1103.56,-76.2084 L 1104.05,-76.4252 L 1104.57,-76.536 L 1105.1,-76.536 L 1105.62,-76.4252 L 1106.11,-76.2084
 L 1106.54,-75.895 L 1106.9,-75.4988 L 1107.16,-75.0372 L 1107.33,-74.5302 L 1107.38,-74 L 1107.38,-64.7024
 L 1107.73,-64.4804 L 1108.13,-64.1563 L 1108.49,-63.7921 L 1108.81,-63.3919 L 1109.09,-62.96 L 1109.33,-62.5011
 L 1109.51,-62.0204 L 1109.65,-61.5229 L 1109.73,-61.0143 L 1109.75,-60.5 L 1109.73,-59.9857 L 1109.65,-59.4771
 L 1109.51,-58.9796 L 1109.33,-58.4989 L 1109.09,-58.04 L 1108.81,-57.6081 L 1108.49,-57.2079 L 1108.13,-56.8437
 L 1107.73,-56.5196 L 1107.29,-56.2392 L 1106.83,-56.0054 L 1106.35,-55.8208 L 1105.86,-55.6875 L 1105.35,-55.607
 L 1104.83,-55.58 z
M 1287.21,-55.607 L 1286.7,-55.6875 L 1286.2,-55.8208 L 1285.72,-56.0054 L 1285.26,-56.2392 L 1284.83,-56.5196
 L 1284.43,-56.8437 L 1284.07,-57.2079 L 1283.74,-57.6081 L 1283.46,-58.04 L 1283.23,-58.4989 L 1283.04,-58.9796
 L 1282.91,-59.4771 L 1282.83,-59.9857 L 1282.8,-60.5 L 1282.83,-61.0143 L 1282.91,-61.5229 L 1283.04,-62.0204
 L 1283.23,-62.5011 L 1283.46,-62.96 L 1283.74,-63.3919 L 1284.07,-63.7921 L 1284.43,-64.1563 L 1284.83,-64.4804
 L 1285.17,-64.7024 L 1285.17,-74 L 1285.23,-74.5302 L 1285.39,-75.0372 L 1285.66,-75.4988 L 1286.02,-75.895
 L 1286.45,-76.2084 L 1286.93,-76.4252 L 1287.46,-76.536 L 1287.99,-76.536 L 1288.51,-76.4252 L 1289,-76.2084
 L 1289.43,-75.895 L 1289.79,-75.4988 L 1290.05,-75.0372 L 1290.22,-74.5302 L 1290.27,-74 L 1290.27,-64.7024
 L 1290.61,-64.4804 L 1291.01,-64.1563 L 1291.38,-63.7921 L 1291.7,-63.3919 L 1291.98,-62.96 L 1292.22,-62.5011
 L 1292.4,-62.0204 L 1292.53,-61.5229 L 1292.62,-61.0143 L 1292.64,-60.5 L 1292.62,-59.9857 L 1292.53,-59.4771
 L 1292.4,-58.9796 L 1292.22,-58.4989 L 1291.98,-58.04 L 1291.7,-57.6081 L 1291.38,-57.2079 L 1291.01,-56.8437
 L 1290.61,-56.5196 L 1290.18,-56.2392 L 1289.72,-56.0054 L 1289.24,-55.8208 L 1288.75,-55.6875 L 1288.24,-55.607
 L 1287.72,-55.58 z
M 921.43,-55.607 L 920.922,-55.6875 L 920.424,-55.8208 L 919.943,-56.0054 L 919.484,-56.2392 L 919.053,-56.5196
 L 918.652,-56.8437 L 918.288,-57.2079 L 917.964,-57.6081 L 917.684,-58.04 L 917.45,-58.4989 L 917.265,-58.9796
 L 917.132,-59.4771 L 917.051,-59.9857 L 917.024,-60.5 L 917.051,-61.0143 L 917.132,-61.5229 L 917.265,-62.0204
 L 917.45,-62.5011 L 917.684,-62.96 L 917.964,-63.3919 L 918.288,-63.7921 L 918.652,-64.1563 L 919.053,-64.4804
 L 919.394,-64.7024 L 919.394,-74 L 919.45,-74.5302 L 919.615,-75.0372 L 919.881,-75.4988 L 920.238,-75.895
 L 920.669,-76.2084 L 921.156,-76.4252 L 921.678,-76.536 L 922.211,-76.536 L 922.732,-76.4252 L 923.219,-76.2084
 L 923.651,-75.895 L 924.007,-75.4988 L 924.274,-75.0372 L 924.439,-74.5302 L 924.494,-74 L 924.494,-64.7024
 L 924.836,-64.4804 L 925.237,-64.1563 L 925.601,-63.7921 L 925.925,-63.3919 L 926.205,-62.96 L 926.439,-62.5011
 L 926.624,-62.0204 L 926.757,-61.5229 L 926.837,-61.0143 L 926.864,-60.5 L 926.837,-59.9857 L 926.757,-59.4771
 L 926.624,-58.9796 L 926.439,-58.4989 L 926.205,-58.04 L 925.925,-57.6081 L 925.601,-57.2079 L 925.237,-56.8437
 L 924.836,-56.5196 L 924.404,-56.2392 L 923.946,-56.0054 L 923.465,-55.8208 L 922.967,-55.6875 L 922.459,-55.607
 L 921.944,-55.58 z
M 738.541,-55.607 L 738.033,-55.6875 L 737.535,-55.8208 L 737.054,-56.0054 L 736.596,-56.2392 L 736.164,-56.5196
 L 735.763,-56.8437 L 735.399,-57.2079 L 735.075,-57.6081 L 734.795,-58.04 L 734.561,-58.4989 L 734.376,-58.9796
 L 734.243,-59.4771 L 734.163,-59.9857 L 734.136,-60.5 L 734.163,-61.0143 L 734.243,-61.5229 L 734.376,-62.0204
 L 734.561,-62.5011 L 734.795,-62.96 L 735.075,-63.3919 L 735.399,-63.7921 L 735.763,-64.1563 L 736.164,-64.4804
 L 736.506,-64.7024 L 736.506,-74 L 736.561,-74.5302 L 736.726,-75.0372 L 736.993,-75.4988 L 737.349,-75.895
 L 737.781,-76.2084 L 738.268,-76.4252 L 738.789,-76.536 L 739.322,-76.536 L 739.844,-76.4252 L 740.331,-76.2084
 L 740.762,-75.895 L 741.119,-75.4988 L 741.385,-75.0372 L 741.55,-74.5302 L 741.606,-74 L 741.606,-64.7024
 L 741.947,-64.4804 L 742.348,-64.1563 L 742.712,-63.7921 L 743.036,-63.3919 L 743.316,-62.96 L 743.55,-62.5011
 L 743.735,-62.0204 L 743.868,-61.5229 L 743.949,-61.0143 L 743.976,-60.5 L 743.949,-59.9857 L 743.868,-59.4771
 L 743.735,-58.9796 L 743.55,-58.4989 L 743.316,-58.04 L 743.036,-57.6081 L 742.712,-57.2079 L 742.348,-56.8437
 L 741.947,-56.5196 L 741.516,-56.2392 L 741.057,-56.0054 L 740.576,-55.8208 L 740.078,-55.6875 L 739.57,-55.607
 L 739.056,-55.58 z
M 1470.1,-55.607 L 1469.59,-55.6875 L 1469.09,-55.8208 L 1468.61,-56.0054 L 1468.15,-56.2392 L 1467.72,-56.5196
 L 1467.32,-56.8437 L 1466.95,-57.2079 L 1466.63,-57.6081 L 1466.35,-58.04 L 1466.12,-58.4989 L 1465.93,-58.9796
 L 1465.8,-59.4771 L 1465.72,-59.9857 L 1465.69,-60.5 L 1465.72,-61.0143 L 1465.8,-61.5229 L 1465.93,-62.0204
 L 1466.12,-62.5011 L 1466.35,-62.96 L 1466.63,-63.3919 L 1466.95,-63.7921 L 1467.32,-64.1563 L 1467.72,-64.4804
 L 1468.06,-64.7024 L 1468.06,-74 L 1468.12,-74.5302 L 1468.28,-75.0372 L 1468.55,-75.4988 L 1468.9,-75.895
 L 1469.34,-76.2084 L 1469.82,-76.4252 L 1470.34,-76.536 L 1470.88,-76.536 L 1471.4,-76.4252 L 1471.89,-76.2084
 L 1472.32,-75.895 L 1472.67,-75.4988 L 1472.94,-75.0372 L 1473.11,-74.5302 L 1473.16,-74 L 1473.16,-64.7024
 L 1473.5,-64.4804 L 1473.9,-64.1563 L 1474.27,-63.7921 L 1474.59,-63.3919 L 1474.87,-62.96 L 1475.11,-62.5011
 L 1475.29,-62.0204 L 1475.42,-61.5229 L 1475.5,-61.0143 L 1475.53,-60.5 L 1475.5,-59.9857 L 1475.42,-59.4771
 L 1475.29,-58.9796 L 1475.11,-58.4989 L 1474.87,-58.04 L 1474.59,-57.6081 L 1474.27,-57.2079 L 1473.9,-56.8437
 L 1473.5,-56.5196 L 1473.07,-56.2392 L 1472.61,-56.0054 L 1472.13,-55.8208 L 1471.63,-55.6875 L 1471.13,-55.607
 L 1470.61,-55.58 z
M 555.652,-55.607 L 555.144,-55.6875 L 554.646,-55.8208 L 554.166,-56.0054 L 553.707,-56.2392 L 553.275,-56.5196
 L 552.875,-56.8437 L 552.51,-57.2079 L 552.186,-57.6081 L 551.906,-58.04 L 551.672,-58.4989 L 551.487,-58.9796
 L 551.354,-59.4771 L 551.274,-59.9857 L 551.247,-60.5 L 551.274,-61.0143 L 551.354,-61.5229 L 551.487,-62.0204
 L 551.672,-62.5011 L 551.906,-62.96 L 552.186,-63.3919 L 552.51,-63.7921 L 552.875,-64.1563 L 553.275,-64.4804
 L 553.617,-64.7024 L 553.617,-74 L 553.672,-74.5302 L 553.837,-75.0372 L 554.104,-75.4988 L 554.46,-75.895
 L 554.892,-76.2084 L 555.379,-76.4252 L 555.9,-76.536 L 556.433,-76.536 L 556.955,-76.4252 L 557.442,-76.2084
 L 557.873,-75.895 L 558.23,-75.4988 L 558.496,-75.0372 L 558.661,-74.5302 L 558.717,-74 L 558.717,-64.7024
 L 559.059,-64.4804 L 559.459,-64.1563 L 559.823,-63.7921 L 560.147,-63.3919 L 560.427,-62.96 L 560.661,-62.5011
 L 560.846,-62.0204 L 560.979,-61.5229 L 561.06,-61.0143 L 561.087,-60.5 L 561.06,-59.9857 L 560.979,-59.4771
 L 560.846,-58.9796 L 560.661,-58.4989 L 560.427,-58.04 L 560.147,-57.6081 L 559.823,-57.2079 L 559.459,-56.8437
 L 559.059,-56.5196 L 558.627,-56.2392 L 558.168,-56.0054 L 557.687,-55.8208 L 557.19,-55.6875 L 556.681,-55.607
 L 556.167,-55.58 z
M 372.764,-55.607 L 372.255,-55.6875 L 371.757,-55.8208 L 371.277,-56.0054 L 370.818,-56.2392 L 370.386,-56.5196
 L 369.986,-56.8437 L 369.622,-57.2079 L 369.297,-57.6081 L 369.017,-58.04 L 368.783,-58.4989 L 368.599,-58.9796
 L 368.465,-59.4771 L 368.385,-59.9857 L 368.358,-60.5 L 368.385,-61.0143 L 368.465,-61.5229 L 368.599,-62.0204
 L 368.783,-62.5011 L 369.017,-62.96 L 369.297,-63.3919 L 369.622,-63.7921 L 369.986,-64.1563 L 370.386,-64.4804
 L 370.728,-64.7024 L 370.728,-74 L 370.784,-74.5302 L 370.948,-75.0372 L 371.215,-75.4988 L 371.572,-75.895
 L 372.003,-76.2084 L 372.49,-76.4252 L 373.011,-76.536 L 373.544,-76.536 L 374.066,-76.4252 L 374.553,-76.2084
 L 374.984,-75.895 L 375.341,-75.4988 L 375.607,-75.0372 L 375.772,-74.5302 L 375.828,-74 L 375.828,-64.7024
 L 376.17,-64.4804 L 376.57,-64.1563 L 376.934,-63.7921 L 377.258,-63.3919 L 377.539,-62.96 L 377.772,-62.5011
 L 377.957,-62.0204 L 378.09,-61.5229 L 378.171,-61.0143 L 378.198,-60.5 L 378.171,-59.9857 L 378.09,-59.4771
 L 377.957,-58.9796 L 377.772,-58.4989 L 377.539,-58.04 L 377.258,-57.6081 L 376.934,-57.2079 L 376.57,-56.8437
 L 376.17,-56.5196 L 375.738,-56.2392 L 375.279,-56.0054 L 374.798,-55.8208 L 374.301,-55.6875 L 373.792,-55.607
 L 373.278,-55.58 z
M 1652.99,-55.607 L 1652.48,-55.6875 L 1651.98,-55.8208 L 1651.5,-56.0054 L 1651.04,-56.2392 L 1650.61,-56.5196
 L 1650.21,-56.8437 L 1649.84,-57.2079 L 1649.52,-57.6081 L 1649.24,-58.04 L 1649.01,-58.4989 L 1648.82,-58.9796
 L 1648.69,-59.4771 L 1648.61,-59.9857 L 1648.58,-60.5 L 1648.61,-61.0143 L 1648.69,-61.5229 L 1648.82,-62.0204
 L 1649.01,-62.5011 L 1649.24,-62.96 L 1649.52,-63.3919 L 1649.84,-63.7921 L 1650.21,-64.1563 L 1650.61,-64.4804
 L 1650.95,-64.7024 L 1650.95,-74 L 1651.01,-74.5302 L 1651.17,-75.0372 L 1651.44,-75.4988 L 1651.79,-75.895
 L 1652.23,-76.2084 L 1652.71,-76.4252 L 1653.23,-76.536 L 1653.77,-76.536 L 1654.29,-76.4252 L 1654.77,-76.2084
 L 1655.21,-75.895 L 1655.56,-75.4988 L 1655.83,-75.0372 L 1655.99,-74.5302 L 1656.05,-74 L 1656.05,-64.7024
 L 1656.39,-64.4804 L 1656.79,-64.1563 L 1657.16,-63.7921 L 1657.48,-63.3919 L 1657.76,-62.96 L 1657.99,-62.5011
 L 1658.18,-62.0204 L 1658.31,-61.5229 L 1658.39,-61.0143 L 1658.42,-60.5 L 1658.39,-59.9857 L 1658.31,-59.4771
 L 1658.18,-58.9796 L 1657.99,-58.4989 L 1657.76,-58.04 L 1657.48,-57.6081 L 1657.16,-57.2079 L 1656.79,-56.8437
 L 1656.39,-56.5196 L 1655.96,-56.2392 L 1655.5,-56.0054 L 1655.02,-55.8208 L 1654.52,-55.6875 L 1654.01,-55.607
 L 1653.5,-55.58 z
M 189.875,-55.607 L 189.366,-55.6875 L 188.869,-55.8208 L 188.388,-56.0054 L 187.929,-56.2392 L 187.497,-56.5196
 L 187.097,-56.8437 L 186.733,-57.2079 L 186.409,-57.6081 L 186.128,-58.04 L 185.894,-58.4989 L 185.71,-58.9796
 L 185.576,-59.4771 L 185.496,-59.9857 L 185.469,-60.5 L 185.496,-61.0143 L 185.576,-61.5229 L 185.71,-62.0204
 L 185.894,-62.5011 L 186.128,-62.96 L 186.409,-63.3919 L 186.733,-63.7921 L 187.097,-64.1563 L 187.497,-64.4804
 L 187.839,-64.7024 L 187.839,-74 L 187.895,-74.5302 L 188.059,-75.0372 L 188.326,-75.4988 L 188.683,-75.895
 L 189.114,-76.2084 L 189.601,-76.4252 L 190.122,-76.536 L 190.655,-76.536 L 191.177,-76.4252 L 191.664,-76.2084
 L 192.095,-75.895 L 192.452,-75.4988 L 192.718,-75.0372 L 192.883,-74.5302 L 192.939,-74 L 192.939,-64.7024
 L 193.281,-64.4804 L 193.681,-64.1563 L 194.045,-63.7921 L 194.369,-63.3919 L 194.65,-62.96 L 194.884,-62.5011
 L 195.068,-62.0204 L 195.201,-61.5229 L 195.282,-61.0143 L 195.309,-60.5 L 195.282,-59.9857 L 195.201,-59.4771
 L 195.068,-58.9796 L 194.884,-58.4989 L 194.65,-58.04 L 194.369,-57.6081 L 194.045,-57.2079 L 193.681,-56.8437
 L 193.281,-56.5196 L 192.849,-56.2392 L 192.39,-56.0054 L 191.909,-55.8208 L 191.412,-55.6875 L 190.903,-55.607
 L 190.389,-55.58 z
M 1116.76,-20.8383 L 1115.98,-21.1462 L 1115.28,-21.609 L 1114.7,-22.2065 L 1114.25,-22.9126 L 1113.96,-23.6964
 L 1113.83,-24.6909 L 1113.83,-58 L 1113.92,-58.8316 L 1114.18,-59.627 L 1114.6,-60.3511 L 1115.16,-60.9726
 L 1115.83,-61.4641 L 1116.6,-61.8042 L 1117.83,-62 L 1207.42,-62 L 1208.25,-61.9126 L 1209.05,-61.6542
 L 1209.77,-61.2361 L 1210.39,-60.6765 L 1210.88,-60 L 1211.22,-59.2361 L 1211.4,-58.4181 L 1211.4,-57.5819
 L 1211.22,-56.7639 L 1210.88,-56 L 1210.39,-55.3235 L 1209.77,-54.7639 L 1208.81,-54.2508 L 1119.23,-20.9417
 L 1118.42,-20.7338 L 1117.58,-20.6988 z
M 933.868,-20.8383 L 933.091,-21.1462 L 932.395,-21.609 L 931.809,-22.2065 L 931.361,-22.9126 L 931.07,-23.6964
 L 930.944,-24.6909 L 930.944,-58 L 931.032,-58.8316 L 931.29,-59.627 L 931.708,-60.3511 L 932.268,-60.9726
 L 932.944,-61.4641 L 933.708,-61.8042 L 934.944,-62 L 1024.53,-62 L 1025.36,-61.9126 L 1026.16,-61.6542
 L 1026.88,-61.2361 L 1027.5,-60.6765 L 1027.99,-60 L 1028.33,-59.2361 L 1028.51,-58.4181 L 1028.51,-57.5819
 L 1028.33,-56.7639 L 1027.99,-56 L 1027.5,-55.3235 L 1026.88,-54.7639 L 1025.92,-54.2508 L 936.338,-20.9417
 L 935.528,-20.7338 L 934.693,-20.6988 z
M 829.916,-47.7683 L 829.106,-47.9762 L 812.23,-54.2508 L 811.273,-54.7639 L 810.652,-55.3235 L 810.16,-56
 L 809.82,-56.7639 L 809.646,-57.5819 L 809.646,-58.4181 L 809.82,-59.2361 L 810.16,-60 L 810.652,-60.6765
 L 811.273,-61.2361 L 811.997,-61.6542 L 812.793,-61.9126 L 813.624,-62 L 847.376,-62 L 848.452,-61.8526
 L 849.229,-61.5447 L 849.926,-61.0819 L 850.511,-60.4844 L 850.959,-59.7783 L 851.25,-58.9945 L 851.372,-58.1672
 L 851.32,-57.3326 L 851.095,-56.5272 L 850.707,-55.7862 L 850.174,-55.1419 L 849.519,-54.6225 L 848.77,-54.2508
 L 831.894,-47.9762 L 830.751,-47.7334 z
M 725.472,-20.7338 L 724.662,-20.9417 L 635.075,-54.2508 L 634.118,-54.7639 L 633.497,-55.3235 L 633.005,-56
 L 632.665,-56.7639 L 632.491,-57.5819 L 632.491,-58.4181 L 632.665,-59.2361 L 633.005,-60 L 633.497,-60.6765
 L 634.118,-61.2361 L 634.842,-61.6542 L 635.638,-61.9126 L 636.469,-62 L 726.056,-62 L 727.292,-61.8042
 L 728.056,-61.4641 L 728.732,-60.9726 L 729.292,-60.3511 L 729.71,-59.627 L 729.968,-58.8316 L 730.056,-58
 L 730.056,-24.6909 L 729.93,-23.6964 L 729.639,-22.9126 L 729.191,-22.2065 L 728.605,-21.609 L 727.909,-21.1462
 L 727.132,-20.8383 L 726.307,-20.6988 z
M 542.583,-20.7338 L 541.773,-20.9417 L 452.186,-54.2508 L 451.229,-54.7639 L 450.608,-55.3235 L 450.116,-56
 L 449.776,-56.7639 L 449.602,-57.5819 L 449.602,-58.4181 L 449.776,-59.2361 L 450.116,-60 L 450.608,-60.6765
 L 451.229,-61.2361 L 451.953,-61.6542 L 452.749,-61.9126 L 453.58,-62 L 543.167,-62 L 544.403,-61.8042
 L 545.167,-61.4641 L 545.843,-60.9726 L 546.403,-60.3511 L 546.821,-59.627 L 547.079,-58.8316 L 547.167,-58
 L 547.167,-24.6909 L 547.041,-23.6964 L 546.75,-22.9126 L 546.302,-22.2065 L 545.717,-21.609 L 545.02,-21.1462
 L 544.243,-20.8383 L 543.418,-20.6988 z
M 359.694,-20.7338 L 358.884,-20.9417 L 269.298,-54.2508 L 268.34,-54.7639 L 267.719,-55.3235 L 267.227,-56
 L 266.887,-56.7639 L 266.713,-57.5819 L 266.713,-58.4181 L 266.887,-59.2361 L 267.227,-60 L 267.719,-60.6765
 L 268.34,-61.2361 L 269.065,-61.6542 L 269.86,-61.9126 L 270.692,-62 L 360.278,-62 L 361.514,-61.8042
 L 362.278,-61.4641 L 362.954,-60.9726 L 363.514,-60.3511 L 363.932,-59.627 L 364.19,-58.8316 L 364.278,-58
 L 364.278,-24.6909 L 364.152,-23.6964 L 363.861,-22.9126 L 363.413,-22.2065 L 362.828,-21.609 L 362.131,-21.1462
 L 361.354,-20.8383 L 360.529,-20.6988 z
M 1482.54,-20.8383 L 1481.76,-21.1462 L 1481.06,-21.609 L 1480.48,-22.2065 L 1480.03,-22.9126 L 1479.74,-23.6964
 L 1479.61,-24.6909 L 1479.61,-58 L 1479.7,-58.8316 L 1479.96,-59.627 L 1480.38,-60.3511 L 1480.93,-60.9726
 L 1481.61,-61.4641 L 1482.38,-61.8042 L 1483.61,-62 L 1573.2,-62 L 1574.03,-61.9126 L 1574.82,-61.6542
 L 1575.55,-61.2361 L 1576.17,-60.6765 L 1576.66,-60 L 1577,-59.2361 L 1577.18,-58.4181 L 1577.18,-57.5819
 L 1577,-56.7639 L 1576.66,-56 L 1576.17,-55.3235 L 1575.55,-54.7639 L 1574.59,-54.2508 L 1485.01,-20.9417
 L 1484.2,-20.7338 L 1483.36,-20.6988 z
M 176.805,-20.7338 L 175.995,-20.9417 L 86.4087,-54.2508 L 85.4515,-54.7639 L 84.8301,-55.3235 L 84.3386,-56
 L 83.9984,-56.7639 L 83.8246,-57.5819 L 83.8246,-58.4181 L 83.9984,-59.2361 L 84.3386,-60 L 84.8301,-60.6765
 L 85.4515,-61.2361 L 86.1757,-61.6542 L 86.971,-61.9126 L 87.8027,-62 L 177.389,-62 L 178.625,-61.8042
 L 179.389,-61.4641 L 180.065,-60.9726 L 180.625,-60.3511 L 181.043,-59.627 L 181.301,-58.8316 L 181.389,-58
 L 181.389,-24.6909 L 181.263,-23.6964 L 180.972,-22.9126 L 180.524,-22.2065 L 179.939,-21.609 L 179.242,-21.1462
 L 178.465,-20.8383 L 177.64,-20.6988 z
M 1299.65,-20.8383 L 1298.87,-21.1462 L 1298.17,-21.609 L 1297.59,-22.2065 L 1297.14,-22.9126 L 1296.85,-23.6964
 L 1296.72,-24.6909 L 1296.72,-58 L 1296.81,-58.8316 L 1297.07,-59.627 L 1297.49,-60.3511 L 1298.05,-60.9726
 L 1298.72,-61.4641 L 1299.49,-61.8042 L 1300.72,-62 L 1390.31,-62 L 1391.14,-61.9126 L 1391.94,-61.6542
 L 1392.66,-61.2361 L 1393.28,-60.6765 L 1393.77,-60 L 1394.11,-59.2361 L 1394.29,-58.4181 L 1394.29,-57.5819
 L 1394.11,-56.7639 L 1393.77,-56 L 1393.28,-55.3235 L 1392.66,-54.7639 L 1391.7,-54.2508 L 1302.12,-20.9417
 L 1301.31,-20.7338 L 1300.47,-20.6988 z
M 751.637,-18.5809 L 750.819,-18.7548 L 750.056,-19.0949 L 749.379,-19.5864 L 748.819,-20.2079 L 748.401,-20.9321
 L 748.143,-21.7274 L 748.056,-22.559 L 748.056,-57.441 L 748.181,-58.4355 L 748.473,-59.2193 L 748.921,-59.9254
 L 749.506,-60.5229 L 750.202,-60.9857 L 750.98,-61.2936 L 751.804,-61.4331 L 752.64,-61.3981 L 753.45,-61.1902
 L 800.358,-43.7492 L 800.817,-43.5447 L 801.514,-43.0819 L 802.099,-42.4844 L 802.547,-41.7783 L 802.838,-40.9945
 L 802.96,-40.1672 L 802.908,-39.3326 L 802.683,-38.5272 L 802.295,-37.7862 L 801.762,-37.1419 L 801.107,-36.6225
 L 800.358,-36.2508 L 753.45,-18.8098 L 752.474,-18.5809 z
M 908.36,-18.6019 L 907.55,-18.8098 L 860.642,-36.2508 L 860.183,-36.4553 L 859.486,-36.9181 L 858.901,-37.5156
 L 858.453,-38.2217 L 858.162,-39.0055 L 858.04,-39.8328 L 858.092,-40.6674 L 858.317,-41.4728 L 858.705,-42.2138
 L 859.238,-42.8581 L 859.893,-43.3775 L 860.642,-43.7492 L 907.55,-61.1902 L 908.526,-61.4191 L 909.363,-61.4191
 L 910.18,-61.2452 L 910.944,-60.9051 L 911.621,-60.4136 L 912.18,-59.7921 L 912.599,-59.068 L 912.857,-58.2727
 L 912.944,-57.441 L 912.944,-22.559 L 912.819,-21.5645 L 912.527,-20.7807 L 912.079,-20.0746 L 911.494,-19.4771
 L 910.798,-19.0143 L 910.02,-18.7064 L 909.196,-18.5669 z
M 203.389,-18 L 202.153,-18.1958 L 201.389,-18.5359 L 200.712,-19.0274 L 200.153,-19.6489 L 199.735,-20.373
 L 199.476,-21.1684 L 199.389,-22 L 199.389,-55.3091 L 199.514,-56.3035 L 199.806,-57.0874 L 200.254,-57.7934
 L 200.839,-58.3909 L 201.535,-58.8538 L 202.313,-59.1617 L 203.137,-59.3012 L 203.973,-59.2662 L 204.783,-59.0583
 L 294.369,-25.7492 L 295.326,-25.2361 L 295.948,-24.6765 L 296.439,-24 L 296.779,-23.2361 L 296.953,-22.4181
 L 296.953,-21.5819 L 296.779,-20.7639 L 296.439,-20 L 295.948,-19.3235 L 295.326,-18.7639 L 294.602,-18.3458
 L 293.807,-18.0874 L 292.975,-18 z
M 386.278,-18 L 385.042,-18.1958 L 384.278,-18.5359 L 383.601,-19.0274 L 383.042,-19.6489 L 382.624,-20.373
 L 382.365,-21.1684 L 382.278,-22 L 382.278,-55.3091 L 382.403,-56.3035 L 382.695,-57.0874 L 383.143,-57.7934
 L 383.728,-58.3909 L 384.424,-58.8538 L 385.202,-59.1617 L 386.026,-59.3012 L 386.862,-59.2662 L 387.672,-59.0583
 L 477.258,-25.7492 L 478.215,-25.2361 L 478.837,-24.6765 L 479.328,-24 L 479.668,-23.2361 L 479.842,-22.4181
 L 479.842,-21.5819 L 479.668,-20.7639 L 479.328,-20 L 478.837,-19.3235 L 478.215,-18.7639 L 477.491,-18.3458
 L 476.696,-18.0874 L 475.864,-18 z
M 569.167,-18 L 567.931,-18.1958 L 567.167,-18.5359 L 566.49,-19.0274 L 565.931,-19.6489 L 565.512,-20.373
 L 565.254,-21.1684 L 565.167,-22 L 565.167,-55.3091 L 565.292,-56.3035 L 565.584,-57.0874 L 566.032,-57.7934
 L 566.617,-58.3909 L 567.313,-58.8538 L 568.091,-59.1617 L 568.915,-59.3012 L 569.751,-59.2662 L 570.561,-59.0583
 L 660.147,-25.7492 L 661.104,-25.2361 L 661.725,-24.6765 L 662.217,-24 L 662.557,-23.2361 L 662.731,-22.4181
 L 662.731,-21.5819 L 662.557,-20.7639 L 662.217,-20 L 661.725,-19.3235 L 661.104,-18.7639 L 660.38,-18.3458
 L 659.585,-18.0874 L 658.753,-18 z
M 1002.25,-18 L 1001.42,-18.0874 L 1000.62,-18.3458 L 999.896,-18.7639 L 999.275,-19.3235 L 998.783,-20
 L 998.443,-20.7639 L 998.269,-21.5819 L 998.269,-22.4181 L 998.443,-23.2361 L 998.783,-24 L 999.275,-24.6765
 L 999.896,-25.2361 L 1000.85,-25.7492 L 1090.44,-59.0583 L 1091.25,-59.2662 L 1092.08,-59.3012 L 1092.91,-59.1617
 L 1093.69,-58.8538 L 1094.38,-58.3909 L 1094.97,-57.7934 L 1095.42,-57.0874 L 1095.71,-56.3035 L 1095.83,-55.3091
 L 1095.83,-22 L 1095.75,-21.1684 L 1095.49,-20.373 L 1095.07,-19.6489 L 1094.51,-19.0274 L 1093.83,-18.5359
 L 1093.07,-18.1958 L 1091.83,-18 z
M 1185.14,-18 L 1184.3,-18.0874 L 1183.51,-18.3458 L 1182.78,-18.7639 L 1182.16,-19.3235 L 1181.67,-20
 L 1181.33,-20.7639 L 1181.16,-21.5819 L 1181.16,-22.4181 L 1181.33,-23.2361 L 1181.67,-24 L 1182.16,-24.6765
 L 1182.78,-25.2361 L 1183.74,-25.7492 L 1273.33,-59.0583 L 1274.14,-59.2662 L 1274.97,-59.3012 L 1275.8,-59.1617
 L 1276.58,-58.8538 L 1277.27,-58.3909 L 1277.86,-57.7934 L 1278.31,-57.0874 L 1278.6,-56.3035 L 1278.72,-55.3091
 L 1278.72,-22 L 1278.63,-21.1684 L 1278.38,-20.373 L 1277.96,-19.6489 L 1277.4,-19.0274 L 1276.72,-18.5359
 L 1275.96,-18.1958 L 1274.72,-18 z
M 1368.02,-18 L 1367.19,-18.0874 L 1366.4,-18.3458 L 1365.67,-18.7639 L 1365.05,-19.3235 L 1364.56,-20
 L 1364.22,-20.7639 L 1364.05,-21.5819 L 1364.05,-22.4181 L 1364.22,-23.2361 L 1364.56,-24 L 1365.05,-24.6765
 L 1365.67,-25.2361 L 1366.63,-25.7492 L 1456.22,-59.0583 L 1457.03,-59.2662 L 1457.86,-59.3012 L 1458.69,-59.1617
 L 1459.46,-58.8538 L 1460.16,-58.3909 L 1460.75,-57.7934 L 1461.19,-57.0874 L 1461.49,-56.3035 L 1461.61,-55.3091
 L 1461.61,-22 L 1461.52,-21.1684 L 1461.27,-20.373 L 1460.85,-19.6489 L 1460.29,-19.0274 L 1459.61,-18.5359
 L 1458.85,-18.1958 L 1457.61,-18 z
M 22,-18 L 20.7639,-18.1958 L 20,-18.5359 L 19.3235,-19.0274 L 18.7639,-19.6489 L 18.3458,-20.373
 L 18.0874,-21.1684 L 18,-22 L 18,-54.7514 L 18.1256,-55.7458 L 18.417,-56.5296 L 18.865,-57.2357
 L 19.4501,-57.8332 L 20.1465,-58.2961 L 20.924,-58.6039 L 21.7485,-58.7435 L 22.584,-58.7085 L 23.394,-58.5006
 L 111.48,-25.7492 L 112.437,-25.2361 L 113.059,-24.6765 L 113.55,-24 L 113.89,-23.2361 L 114.064,-22.4181
 L 114.064,-21.5819 L 113.89,-20.7639 L 113.55,-20 L 113.059,-19.3235 L 112.437,-18.7639 L 111.713,-18.3458
 L 110.918,-18.0874 L 110.086,-18 z
M 1550.91,-18 L 1550.08,-18.0874 L 1549.29,-18.3458 L 1548.56,-18.7639 L 1547.94,-19.3235 L 1547.45,-20
 L 1547.11,-20.7639 L 1546.94,-21.5819 L 1546.94,-22.4181 L 1547.11,-23.2361 L 1547.45,-24 L 1547.94,-24.6765
 L 1548.56,-25.2361 L 1549.52,-25.7492 L 1637.61,-58.5006 L 1638.42,-58.7085 L 1639.25,-58.7435 L 1640.08,-58.6039
 L 1640.85,-58.2961 L 1641.55,-57.8332 L 1642.13,-57.2357 L 1642.58,-56.5296 L 1642.87,-55.7458 L 1643,-54.7514
 L 1643,-22 L 1642.91,-21.1684 L 1642.65,-20.373 L 1642.24,-19.6489 L 1641.68,-19.0274 L 1641,-18.5359
 L 1640.24,-18.1958 L 1639,-18 z
M 813.624,-18 L 812.548,-18.1474 L 811.771,-18.4553 L 811.074,-18.9181 L 810.489,-19.5156 L 810.041,-20.2217
 L 809.75,-21.0055 L 809.628,-21.8328 L 809.68,-22.6674 L 809.905,-23.4728 L 810.293,-24.2138 L 810.826,-24.8581
 L 811.481,-25.3775 L 812.23,-25.7492 L 829.106,-32.0238 L 830.249,-32.2666 L 831.084,-32.2317 L 831.894,-32.0238
 L 848.77,-25.7492 L 849.727,-25.2361 L 850.348,-24.6765 L 850.84,-24 L 851.18,-23.2361 L 851.354,-22.4181
 L 851.354,-21.5819 L 851.18,-20.7639 L 850.84,-20 L 850.348,-19.3235 L 849.727,-18.7639 L 849.003,-18.3458
 L 848.207,-18.0874 L 847.376,-18 z
" stroke="black" fill="lightgray" stroke-width="0.5"/>
</svg>
