<?xml version="1.0" standalone="no"?>
<!DOCTYPE svg PUBLIC "-//W3C//DTD SVG 1.1//EN" "http://www.w3.org/Graphics/SVG/1.1/DTD/svg11.dtd">
<svg width="1360mm" height="80mm" viewBox="0 -80 1360 80" xmlns="http://www.w3.org/2000/svg" version="1.1">
<title>OpenSCAD Model</title>
<path d="
M 1360,-80 L 0,-80 L 0,-0 L 4.95,-0 L 4.95,-6 L 5.00572,-6.53017
 L 5.17046,-7.03717 L 5.437,-7.49884 L 5.79372,-7.895 L 6.22499,-8.20836 L 6.71201,-8.42519 L 7.23344,-8.53603
 L 7.76654,-8.53603 L 8.28798,-8.42519 L 8.77499,-8.20836 L 9.20627,-7.895 L 9.56299,-7.49884 L 9.82953,-7.03717
 L 9.99426,-6.53017 L 10.05,-6 L 10.05,-0 L 197.093,-0 L 197.093,-6 L 197.149,-6.53017
 L 197.313,-7.03717 L 197.58,-7.49884 L 197.937,-7.895 L 198.368,-8.20836 L 198.855,-8.42519 L 199.376,-8.53603
 L 199.909,-8.53603 L 200.431,-8.42519 L 200.918,-8.20836 L 201.349,-7.895 L 201.706,-7.49884 L 201.972,-7.03717
 L 202.137,-6.53017 L 202.193,-6 L 202.193,-0 L 389.236,-0 L 389.236,-6 L 389.291,-6.53017
 L 389.456,-7.03717 L 389.723,-7.49884 L 390.079,-7.895 L 390.511,-8.20836 L 390.998,-8.42519 L 391.519,-8.53603
 L 392.052,-8.53603 L 392.574,-8.42519 L 393.061,-8.20836 L 393.492,-7.895 L 393.849,-7.49884 L 394.115,-7.03717
 L 394.28,-6.53017 L 394.336,-6 L 394.336,-0 L 581.379,-0 L 581.379,-6 L 581.434,-6.53017
 L 581.599,-7.03717 L 581.866,-7.49884 L 582.222,-7.895 L 582.654,-8.20836 L 583.141,-8.42519 L 583.662,-8.53603
 L 584.195,-8.53603 L 584.717,-8.42519 L 585.204,-8.20836 L 585.635,-7.895 L 585.992,-7.49884 L 586.258,-7.03717
 L 586.423,-6.53017 L 586.479,-6 L 586.479,-0 L 773.521,-0 L 773.521,-6 L 773.577,-6.53017
 L 773.742,-7.03717 L 774.008,-7.49884 L 774.365,-7.895 L 774.796,-8.20836 L 775.283,-8.42519 L 775.805,-8.53603
 L 776.338,-8.53603 L 776.859,-8.42519 L 777.346,-8.20836 L 777.778,-7.895 L 778.134,-7.49884 L 778.401,-7.03717
 L 778.566,-6.53017 L 778.621,-6 L 778.621,-0 L 965.664,-0 L 965.664,-6 L 965.72,-6.53017
 L 965.885,-7.03717 L 966.151,-7.49884 L 966.508,-7.895 L 966.939,-8.20836 L 967.426,-8.42519 L 967.948,-8.53603
 L 968.481,-8.53603 L 969.002,-8.42519 L 969.489,-8.20836 L 969.921,-7.895 L 970.277,-7.49884 L 970.544,-7.03717
 L 970.709,-6.53017 L 970.764,-6 L 970.764,-0 L 1157.81,-0 L 1157.81,-6 L 1157.86,-6.53017
 L 1158.03,-7.03717 L 1158.29,-7.49884 L 1158.65,-7.895 L 1159.08,-8.20836 L 1159.57,-8.42519 L 1160.09,-8.53603
 L 1160.62,-8.53603 L 1161.15,-8.42519 L 1161.63,-8.20836 L 1162.06,-7.895 L 1162.42,-7.49884 L 1162.69,-7.03717
 L 1162.85,-6.53017 L 1162.91,-6 L 1162.91,-0 L 1349.95,-0 L 1349.95,-6 L 1350.01,-6.53017
 L 1350.17,-7.03717 L 1350.44,-7.49884 L 1350.79,-7.895 L 1351.22,-8.20836 L 1351.71,-8.42519 L 1352.23,-8.53603
 L 1352.77,-8.53603 L 1353.29,-8.42519 L 1353.77,-8.20836 L 1354.21,-7.895 L 1354.56,-7.49884 L 1354.83,-7.03717
 L 1354.99,-6.53017 L 1355.05,-6 L 1355.05,-0 L 1360,-0 z
M 6.98573,-55.607 L 6.47708,-55.6875 L 5.97964,-55.8208 L 5.49887,-56.0054 L 5.04001,-56.2392 L 4.60811,-56.5196
 L 4.20789,-56.8437 L 3.84373,-57.2079 L 3.51964,-57.6081 L 3.23917,-58.04 L 3.00537,-58.4989 L 2.82082,-58.9796
 L 2.68752,-59.4771 L 2.60696,-59.9857 L 2.58,-60.5 L 2.60696,-61.0143 L 2.68752,-61.5229 L 2.82082,-62.0204
 L 3.00537,-62.5011 L 3.23917,-62.96 L 3.51964,-63.3919 L 3.84373,-63.7921 L 4.20789,-64.1563 L 4.60811,-64.4804
 L 4.95001,-64.7024 L 4.95001,-74 L 5.00574,-74.5302 L 5.17047,-75.0372 L 5.43701,-75.4988 L 5.79373,-75.895
 L 6.22501,-76.2084 L 6.71202,-76.4252 L 7.23346,-76.536 L 7.76654,-76.536 L 8.28798,-76.4252 L 8.77499,-76.2084
 L 9.20627,-75.895 L 9.56299,-75.4988 L 9.82953,-75.0372 L 9.99426,-74.5302 L 10.05,-74 L 10.05,-64.7024
 L 10.3919,-64.4804 L 10.7921,-64.1563 L 11.1563,-63.7921 L 11.4804,-63.3919 L 11.7608,-62.96 L 11.9946,-62.5011
 L 12.1792,-62.0204 L 12.3125,-61.5229 L 12.393,-61.0143 L 12.42,-60.5 L 12.393,-59.9857 L 12.3125,-59.4771
 L 12.1792,-58.9796 L 11.9946,-58.4989 L 11.7608,-58.04 L 11.4804,-57.6081 L 11.1563,-57.2079 L 10.7921,-56.8437
 L 10.3919,-56.5196 L 9.95999,-56.2392 L 9.50113,-56.0054 L 9.02036,-55.8208 L 8.52292,-55.6875 L 8.01427,-55.607
 L 7.5,-55.58 z
M 199.129,-55.607 L 198.62,-55.6875 L 198.122,-55.8208 L 197.642,-56.0054 L 197.183,-56.2392 L 196.751,-56.5196
 L 196.351,-56.8437 L 195.987,-57.2079 L 195.662,-57.6081 L 195.382,-58.04 L 195.148,-58.4989 L 194.964,-58.9796
 L 194.83,-59.4771 L 194.75,-59.9857 L 194.723,-60.5 L 194.75,-61.0143 L 194.83,-61.5229 L 194.964,-62.0204
 L 195.148,-62.5011 L 195.382,-62.96 L 195.662,-63.3919 L 195.987,-63.7921 L 196.351,-64.1563 L 196.751,-64.4804
 L 197.093,-64.7024 L 197.093,-74 L 197.149,-74.5302 L 197.313,-75.0372 L 197.58,-75.4988 L 197.937,-75.895
 L 198.368,-76.2084 L 198.855,-76.4252 L 199.376,-76.536 L 199.909,-76.536 L 200.431,-76.4252 L 200.918,-76.2084
 L 201.349,-75.895 L 201.706,-75.4988 L 201.972,-75.0372 L 202.137,-74.5302 L 202.193,-74 L 202.193,-64.7024
 L 202.535,-64.4804 L 202.935,-64.1563 L 203.299,-63.7921 L 203.623,-63.3919 L 203.904,-62.96 L 204.137,-62.5011
 L 204.322,-62.0204 L 204.455,-61.5229 L 204.536,-61.0143 L 204.563,-60.5 L 204.536,-59.9857 L 204.455,-59.4771
 L 204.322,-58.9796 L 204.137,-58.4989 L 203.904,-58.04 L 203.623,-57.6081 L 203.299,-57.2079 L 202.935,-56.8437
 L 202.535,-56.5196 L 202.103,-56.2392 L 201.644,-56.0054 L 201.163,-55.8208 L 200.666,-55.6875 L 200.157,-55.607
 L 199.643,-55.58 z
M 391.271,-55.607 L 390.763,-55.6875 L 390.265,-55.8208 L 389.785,-56.0054 L 389.326,-56.2392 L 388.894,-56.5196
 L 388.494,-56.8437 L 388.129,-57.2079 L 387.805,-57.6081 L 387.525,-58.04 L 387.291,-58.4989 L 387.107,-58.9796
 L 386.973,-59.4771 L 386.893,-59.9857 L 386.866,-60.5 L 386.893,-61.0143 L 386.973,-61.5229 L 387.107,-62.0204
 L 387.291,-62.5011 L 387.525,-62.96 L 387.805,-63.3919 L 388.129,-63.7921 L 388.494,-64.1563 L 388.894,-64.4804
 L 389.236,-64.7024 L 389.236,-74 L 389.291,-74.5302 L 389.456,-75.0372 L 389.723,-75.4988 L 390.079,-75.895
 L 390.511,-76.2084 L 390.998,-76.4252 L 391.519,-76.536 L 392.052,-76.536 L 392.574,-76.4252 L 393.061,-76.2084
 L 393.492,-75.895 L 393.849,-75.4988 L 394.115,-75.0372 L 394.28,-74.5302 L 394.336,-74 L 394.336,-64.7024
 L 394.678,-64.4804 L 395.078,-64.1563 L 395.442,-63.7921 L 395.766,-63.3919 L 396.047,-62.96 L 396.28,-62.5011
 L 396.465,-62.0204 L 396.598,-61.5229 L 396.679,-61.0143 L 396.706,-60.5 L 396.679,-59.9857 L 396.598,-59.4771
 L 396.465,-58.9796 L 396.28,-58.4989 L 396.047,-58.04 L 395.766,-57.6081 L 395.442,-57.2079 L 395.078,-56.8437
 L 394.678,-56.5196 L 394.246,-56.2392 L 393.787,-56.0054 L 393.306,-55.8208 L 392.809,-55.6875 L 392.3,-55.607
 L 391.786,-55.58 z
M 583.414,-55.607 L 582.906,-55.6875 L 582.408,-55.8208 L 581.927,-56.0054 L 581.469,-56.2392 L 581.037,-56.5196
 L 580.636,-56.8437 L 580.272,-57.2079 L 579.948,-57.6081 L 579.668,-58.04 L 579.434,-58.4989 L 579.249,-58.9796
 L 579.116,-59.4771 L 579.036,-59.9857 L 579.009,-60.5 L 579.036,-61.0143 L 579.116,-61.5229 L 579.249,-62.0204
 L 579.434,-62.5011 L 579.668,-62.96 L 579.948,-63.3919 L 580.272,-63.7921 L 580.636,-64.1563 L 581.037,-64.4804
 L 581.379,-64.7024 L 581.379,-74 L 581.434,-74.5302 L 581.599,-75.0372 L 581.866,-75.4988 L 582.222,-75.895
 L 582.654,-76.2084 L 583.141,-76.4252 L 583.662,-76.536 L 584.195,-76.536 L 584.717,-76.4252 L 585.204,-76.2084
 L 585.635,-75.895 L 585.992,-75.4988 L 586.258,-75.0372 L 586.423,-74.5302 L 586.479,-74 L 586.479,-64.7024
 L 586.82,-64.4804 L 587.221,-64.1563 L 587.585,-63.7921 L 587.909,-63.3919 L 588.189,-62.96 L 588.423,-62.5011
 L 588.608,-62.0204 L 588.741,-61.5229 L 588.822,-61.0143 L 588.849,-60.5 L 588.822,-59.9857 L 588.741,-59.4771
 L 588.608,-58.9796 L 588.423,-58.4989 L 588.189,-58.04 L 587.909,-57.6081 L 587.585,-57.2079 L 587.221,-56.8437
 L 586.82,-56.5196 L 586.389,-56.2392 L 585.93,-56.0054 L 585.449,-55.8208 L 584.951,-55.6875 L 584.443,-55.607
 L 583.929,-55.58 z
M 775.557,-55.607 L 775.049,-55.6875 L 774.551,-55.8208 L 774.07,-56.0054 L 773.611,-56.2392 L 773.18,-56.5196
 L 772.779,-56.8437 L 772.415,-57.2079 L 772.091,-57.6081 L 771.811,-58.04 L 771.577,-58.4989 L 771.392,-58.9796
 L 771.259,-59.4771 L 771.178,-59.9857 L 771.151,-60.5 L 771.178,-61.0143 L 771.259,-61.5229 L 771.392,-62.0204
 L 771.577,-62.5011 L 771.811,-62.96 L 772.091,-63.3919 L 772.415,-63.7921 L 772.779,-64.1563 L 773.18,-64.4804
 L 773.521,-64.7024 L 773.521,-74 L 773.577,-74.5302 L 773.742,-75.0372 L 774.008,-75.4988 L 774.365,-75.895
 L 774.796,-76.2084 L 775.283,-76.4252 L 775.805,-76.536 L 776.338,-76.536 L 776.859,-76.4252 L 777.346,-76.2084
 L 777.778,-75.895 L 778.134,-75.4988 L 778.401,-75.0372 L 778.566,-74.5302 L 778.621,-74 L 778.621,-64.7024
 L 778.963,-64.4804 L 779.364,-64.1563 L 779.728,-63.7921 L 780.052,-63.3919 L 780.332,-62.96 L 780.566,-62.5011
 L 780.751,-62.0204 L 780.884,-61.5229 L 780.964,-61.0143 L 780.991,-60.5 L 780.964,-59.9857 L 780.884,-59.4771
 L 780.751,-58.9796 L 780.566,-58.4989 L 780.332,-58.04 L 780.052,-57.6081 L 779.728,-57.2079 L 779.364,-56.8437
 L 778.963,-56.5196 L 778.531,-56.2392 L 778.073,-56.0054 L 777.592,-55.8208 L 777.094,-55.6875 L 776.586,-55.607
 L 776.071,-55.58 z
M 967.7,-55.607 L 967.191,-55.6875 L 966.694,-55.8208 L 966.213,-56.0054 L 965.754,-56.2392 L 965.322,-56.5196
 L 964.922,-56.8437 L 964.558,-57.2079 L 964.234,-57.6081 L 963.953,-58.04 L 963.72,-58.4989 L 963.535,-58.9796
 L 963.402,-59.4771 L 963.321,-59.9857 L 963.294,-60.5 L 963.321,-61.0143 L 963.402,-61.5229 L 963.535,-62.0204
 L 963.72,-62.5011 L 963.953,-62.96 L 964.234,-63.3919 L 964.558,-63.7921 L 964.922,-64.1563 L 965.322,-64.4804
 L 965.664,-64.7024 L 965.664,-74 L 965.72,-74.5302 L 965.885,-75.0372 L 966.151,-75.4988 L 966.508,-75.895
 L 966.939,-76.2084 L 967.426,-76.4252 L 967.948,-76.536 L 968.481,-76.536 L 969.002,-76.4252 L 969.489,-76.2084
 L 969.921,-75.895 L 970.277,-75.4988 L 970.544,-75.0372 L 970.709,-74.5302 L 970.764,-74 L 970.764,-64.7024
 L 971.106,-64.4804 L 971.506,-64.1563 L 971.871,-63.7921 L 972.195,-63.3919 L 972.475,-62.96 L 972.709,-62.5011
 L 972.893,-62.0204 L 973.027,-61.5229 L 973.107,-61.0143 L 973.134,-60.5 L 973.107,-59.9857 L 973.027,-59.4771
 L 972.893,-58.9796 L 972.709,-58.4989 L 972.475,-58.04 L 972.195,-57.6081 L 971.871,-57.2079 L 971.506,-56.8437
 L 971.106,-56.5196 L 970.674,-56.2392 L 970.215,-56.0054 L 969.735,-55.8208 L 969.237,-55.6875 L 968.729,-55.607
 L 968.214,-55.58 z
M 1159.84,-55.607 L 1159.33,-55.6875 L 1158.84,-55.8208 L 1158.36,-56.0054 L 1157.9,-56.2392 L 1157.47,-56.5196
 L 1157.07,-56.8437 L 1156.7,-57.2079 L 1156.38,-57.6081 L 1156.1,-58.04 L 1155.86,-58.4989 L 1155.68,-58.9796
 L 1155.54,-59.4771 L 1155.46,-59.9857 L 1155.44,-60.5 L 1155.46,-61.0143 L 1155.54,-61.5229 L 1155.68,-62.0204
 L 1155.86,-62.5011 L 1156.1,-62.96 L 1156.38,-63.3919 L 1156.7,-63.7921 L 1157.07,-64.1563 L 1157.47,-64.4804
 L 1157.81,-64.7024 L 1157.81,-74 L 1157.86,-74.5302 L 1158.03,-75.0372 L 1158.29,-75.4988 L 1158.65,-75.895
 L 1159.08,-76.2084 L 1159.57,-76.4252 L 1160.09,-76.536 L 1160.62,-76.536 L 1161.15,-76.4252 L 1161.63,-76.2084
 L 1162.06,-75.895 L 1162.42,-75.4988 L 1162.69,-75.0372 L 1162.85,-74.5302 L 1162.91,-74 L 1162.91,-64.7024
 L 1163.25,-64.4804 L 1163.65,-64.1563 L 1164.01,-63.7921 L 1164.34,-63.3919 L 1164.62,-62.96 L 1164.85,-62.5011
 L 1165.04,-62.0204 L 1165.17,-61.5229 L 1165.25,-61.0143 L 1165.28,-60.5 L 1165.25,-59.9857 L 1165.17,-59.4771
 L 1165.04,-58.9796 L 1164.85,-58.4989 L 1164.62,-58.04 L 1164.34,-57.6081 L 1164.01,-57.2079 L 1163.65,-56.8437
 L 1163.25,-56.5196 L 1162.82,-56.2392 L 1162.36,-56.0054 L 1161.88,-55.8208 L 1161.38,-55.6875 L 1160.87,-55.607
 L 1160.36,-55.58 z
M 1351.99,-55.607 L 1351.48,-55.6875 L 1350.98,-55.8208 L 1350.5,-56.0054 L 1350.04,-56.2392 L 1349.61,-56.5196
 L 1349.21,-56.8437 L 1348.84,-57.2079 L 1348.52,-57.6081 L 1348.24,-58.04 L 1348.01,-58.4989 L 1347.82,-58.9796
 L 1347.69,-59.4771 L 1347.61,-59.9857 L 1347.58,-60.5 L 1347.61,-61.0143 L 1347.69,-61.5229 L 1347.82,-62.0204
 L 1348.01,-62.5011 L 1348.24,-62.96 L 1348.52,-63.3919 L 1348.84,-63.7921 L 1349.21,-64.1563 L 1349.61,-64.4804
 L 1349.95,-64.7024 L 1349.95,-74 L 1350.01,-74.5302 L 1350.17,-75.0372 L 1350.44,-75.4988 L 1350.79,-75.895
 L 1351.23,-76.2084 L 1351.71,-76.4252 L 1352.23,-76.536 L 1352.77,-76.536 L 1353.29,-76.4252 L 1353.77,-76.2084
 L 1354.21,-75.895 L 1354.56,-75.4988 L 1354.83,-75.0372 L 1354.99,-74.5302 L 1355.05,-74 L 1355.05,-64.7024
 L 1355.39,-64.4804 L 1355.79,-64.1563 L 1356.16,-63.7921 L 1356.48,-63.3919 L 1356.76,-62.96 L 1356.99,-62.5011
 L 1357.18,-62.0204 L 1357.31,-61.5229 L 1357.39,-61.0143 L 1357.42,-60.5 L 1357.39,-59.9857 L 1357.31,-59.4771
 L 1357.18,-58.9796 L 1356.99,-58.4989 L 1356.76,-58.04 L 1356.48,-57.6081 L 1356.16,-57.2079 L 1355.79,-56.8437
 L 1355.39,-56.5196 L 1354.96,-56.2392 L 1354.5,-56.0054 L 1354.02,-55.8208 L 1353.52,-55.6875 L 1353.01,-55.607
 L 1352.5,-55.58 z
M 787.935,-20.5511 L 787.162,-20.8713 L 786.473,-21.345 L 785.898,-21.9517 L 785.461,-22.6648 L 785.182,-23.4531
 L 785.071,-24.3862 L 785.071,-58 L 785.159,-58.8316 L 785.417,-59.627 L 785.835,-60.3511 L 786.395,-60.9726
 L 787.071,-61.4641 L 787.835,-61.8042 L 789.071,-62 L 884.052,-62 L 884.883,-61.9126 L 885.679,-61.6542
 L 886.403,-61.2361 L 887.024,-60.6765 L 887.516,-60 L 887.856,-59.2361 L 888.03,-58.4181 L 888.03,-57.5819
 L 887.856,-56.7639 L 887.516,-56 L 887.024,-55.3235 L 886.403,-54.7639 L 885.386,-54.2292 L 790.406,-20.6153
 L 789.593,-20.4203 L 788.757,-20.3986 z
M 679.479,-47.6987 L 678.665,-47.8938 L 660.764,-54.2292 L 659.747,-54.7639 L 659.126,-55.3235 L 658.634,-56
 L 658.294,-56.7639 L 658.12,-57.5819 L 658.12,-58.4181 L 658.294,-59.2361 L 658.634,-60 L 659.126,-60.6765
 L 659.747,-61.2361 L 660.472,-61.6542 L 661.267,-61.9126 L 662.098,-62 L 697.901,-62 L 699.038,-61.8351
 L 699.811,-61.5149 L 700.5,-61.0411 L 701.075,-60.4344 L 701.512,-59.7214 L 701.791,-58.933 L 701.9,-58.1039
 L 701.834,-57.2703 L 701.597,-56.4686 L 701.198,-55.7337 L 700.654,-55.098 L 699.991,-54.589 L 699.236,-54.2292
 L 681.334,-47.8938 L 680.315,-47.677 z
M 570.407,-20.4203 L 569.594,-20.6153 L 474.614,-54.2292 L 473.597,-54.7639 L 472.976,-55.3235 L 472.484,-56
 L 472.144,-56.7639 L 471.97,-57.5819 L 471.97,-58.4181 L 472.144,-59.2361 L 472.484,-60 L 472.976,-60.6765
 L 473.597,-61.2361 L 474.321,-61.6542 L 475.117,-61.9126 L 475.948,-62 L 570.929,-62 L 572.165,-61.8042
 L 572.929,-61.4641 L 573.605,-60.9726 L 574.165,-60.3511 L 574.583,-59.627 L 574.841,-58.8316 L 574.929,-58
 L 574.929,-24.3862 L 574.818,-23.4531 L 574.539,-22.6648 L 574.102,-21.9517 L 573.527,-21.345 L 572.838,-20.8713
 L 572.065,-20.5511 L 571.243,-20.3986 z
M 378.264,-20.4203 L 377.451,-20.6153 L 282.471,-54.2292 L 281.454,-54.7639 L 280.833,-55.3235 L 280.341,-56
 L 280.001,-56.7639 L 279.827,-57.5819 L 279.827,-58.4181 L 280.001,-59.2361 L 280.341,-60 L 280.833,-60.6765
 L 281.454,-61.2361 L 282.179,-61.6542 L 282.974,-61.9126 L 283.805,-62 L 378.786,-62 L 380.022,-61.8042
 L 380.786,-61.4641 L 381.462,-60.9726 L 382.022,-60.3511 L 382.44,-59.627 L 382.698,-58.8316 L 382.786,-58
 L 382.786,-24.3862 L 382.675,-23.4531 L 382.396,-22.6648 L 381.96,-21.9517 L 381.384,-21.345 L 380.695,-20.8713
 L 379.923,-20.5511 L 379.1,-20.3986 z
M 1172.22,-20.5511 L 1171.45,-20.8713 L 1170.76,-21.345 L 1170.18,-21.9517 L 1169.75,-22.6648 L 1169.47,-23.4531
 L 1169.36,-24.3862 L 1169.36,-58 L 1169.44,-58.8316 L 1169.7,-59.627 L 1170.12,-60.3511 L 1170.68,-60.9726
 L 1171.36,-61.4641 L 1172.12,-61.8042 L 1173.36,-62 L 1268.34,-62 L 1269.17,-61.9126 L 1269.96,-61.6542
 L 1270.69,-61.2361 L 1271.31,-60.6765 L 1271.8,-60 L 1272.14,-59.2361 L 1272.32,-58.4181 L 1272.32,-57.5819
 L 1272.14,-56.7639 L 1271.8,-56 L 1271.31,-55.3235 L 1270.69,-54.7639 L 1269.67,-54.2292 L 1174.69,-20.6153
 L 1173.88,-20.4203 L 1173.04,-20.3986 z
M 186.122,-20.4203 L 185.308,-20.6153 L 90.3281,-54.2292 L 89.3115,-54.7639 L 88.69,-55.3235 L 88.1985,-56
 L 87.8584,-56.7639 L 87.6845,-57.5819 L 87.6845,-58.4181 L 87.8584,-59.2361 L 88.1985,-60 L 88.69,-60.6765
 L 89.3115,-61.2361 L 90.0357,-61.6542 L 90.831,-61.9126 L 91.6626,-62 L 186.643,-62 L 187.879,-61.8042
 L 188.643,-61.4641 L 189.319,-60.9726 L 189.879,-60.3511 L 190.297,-59.627 L 190.555,-58.8316 L 190.643,-58
 L 190.643,-24.3862 L 190.533,-23.4531 L 190.254,-22.6648 L 189.817,-21.9517 L 189.241,-21.345 L 188.552,-20.8713
 L 187.78,-20.5511 L 186.957,-20.3986 z
M 980.077,-20.5511 L 979.305,-20.8713 L 978.616,-21.345 L 978.04,-21.9517 L 977.604,-22.6648 L 977.325,-23.4531
 L 977.214,-24.3862 L 977.214,-58 L 977.302,-58.8316 L 977.56,-59.627 L 977.978,-60.3511 L 978.538,-60.9726
 L 979.214,-61.4641 L 979.978,-61.8042 L 981.214,-62 L 1076.19,-62 L 1077.03,-61.9126 L 1077.82,-61.6542
 L 1078.55,-61.2361 L 1079.17,-60.6765 L 1079.66,-60 L 1080,-59.2361 L 1080.17,-58.4181 L 1080.17,-57.5819
 L 1080,-56.7639 L 1079.66,-56 L 1079.17,-55.3235 L 1078.55,-54.7639 L 1077.53,-54.2292 L 982.549,-20.6153
 L 981.736,-20.4203 L 980.9,-20.3986 z
M 596.51,-18.2873 L 595.692,-18.4611 L 594.929,-18.8013 L 594.252,-19.2928 L 593.692,-19.9142 L 593.274,-20.6384
 L 593.016,-21.4337 L 592.929,-22.2654 L 592.929,-57.7346 L 593.039,-58.6677 L 593.318,-59.456 L 593.755,-60.1691
 L 594.33,-60.7758 L 595.019,-61.2496 L 595.792,-61.5697 L 596.614,-61.7223 L 597.45,-61.7005 L 598.263,-61.5055
 L 648.375,-43.7708 L 648.949,-43.5149 L 649.639,-43.0411 L 650.214,-42.4344 L 650.651,-41.7214 L 650.93,-40.933
 L 651.039,-40.1039 L 650.973,-39.2703 L 650.735,-38.4686 L 650.336,-37.7337 L 649.793,-37.098 L 649.129,-36.589
 L 648.375,-36.2292 L 598.263,-18.4945 L 597.347,-18.2873 z
M 762.55,-18.2995 L 761.737,-18.4945 L 711.625,-36.2292 L 711.051,-36.4851 L 710.361,-36.9589 L 709.786,-37.5656
 L 709.349,-38.2786 L 709.07,-39.067 L 708.961,-39.8961 L 709.027,-40.7297 L 709.265,-41.5314 L 709.664,-42.2663
 L 710.207,-42.902 L 710.87,-43.411 L 711.625,-43.7708 L 761.737,-61.5055 L 762.653,-61.7128 L 763.49,-61.7128
 L 764.307,-61.5389 L 765.071,-61.1988 L 765.748,-60.7072 L 766.307,-60.0858 L 766.726,-59.3616 L 766.984,-58.5663
 L 767.071,-57.7347 L 767.071,-22.2653 L 766.961,-21.3323 L 766.682,-20.544 L 766.245,-19.8309 L 765.67,-19.2242
 L 764.981,-18.7504 L 764.208,-18.4303 L 763.386,-18.2777 z
M 212.643,-18 L 211.407,-18.1958 L 210.643,-18.5359 L 209.966,-19.0274 L 209.407,-19.6489 L 208.989,-20.373
 L 208.73,-21.1684 L 208.643,-22 L 208.643,-55.6138 L 208.753,-56.5469 L 209.032,-57.3352 L 209.469,-58.0482
 L 210.044,-58.6549 L 210.734,-59.1287 L 211.506,-59.4489 L 212.328,-59.6014 L 213.164,-59.5797 L 213.977,-59.3846
 L 308.958,-25.7708 L 309.974,-25.2361 L 310.596,-24.6765 L 311.087,-24 L 311.427,-23.2361 L 311.601,-22.4181
 L 311.601,-21.5819 L 311.427,-20.7639 L 311.087,-20 L 310.596,-19.3235 L 309.974,-18.7639 L 309.25,-18.3458
 L 308.455,-18.0874 L 307.623,-18 z
M 404.786,-18 L 403.55,-18.1958 L 402.786,-18.5359 L 402.109,-19.0274 L 401.55,-19.6489 L 401.132,-20.373
 L 400.873,-21.1684 L 400.786,-22 L 400.786,-55.6138 L 400.896,-56.5469 L 401.175,-57.3352 L 401.612,-58.0482
 L 402.187,-58.6549 L 402.876,-59.1287 L 403.649,-59.4489 L 404.471,-59.6014 L 405.307,-59.5797 L 406.12,-59.3846
 L 501.1,-25.7708 L 502.117,-25.2361 L 502.739,-24.6765 L 503.23,-24 L 503.57,-23.2361 L 503.744,-22.4181
 L 503.744,-21.5819 L 503.57,-20.7639 L 503.23,-20 L 502.739,-19.3235 L 502.117,-18.7639 L 501.393,-18.3458
 L 500.598,-18.0874 L 499.766,-18 z
M 860.234,-18 L 859.402,-18.0874 L 858.607,-18.3458 L 857.883,-18.7639 L 857.261,-19.3235 L 856.77,-20
 L 856.43,-20.7639 L 856.256,-21.5819 L 856.256,-22.4181 L 856.43,-23.2361 L 856.77,-24 L 857.261,-24.6765
 L 857.883,-25.2361 L 858.9,-25.7708 L 953.88,-59.3846 L 954.693,-59.5797 L 955.529,-59.6014 L 956.351,-59.4489
 L 957.124,-59.1287 L 957.813,-58.6549 L 958.388,-58.0482 L 958.825,-57.3352 L 959.104,-56.5469 L 959.214,-55.6138
 L 959.214,-22 L 959.127,-21.1684 L 958.868,-20.373 L 958.45,-19.6489 L 957.891,-19.0274 L 957.214,-18.5359
 L 956.45,-18.1958 L 955.214,-18 z
M 1052.38,-18 L 1051.55,-18.0874 L 1050.75,-18.3458 L 1050.03,-18.7639 L 1049.4,-19.3235 L 1048.91,-20
 L 1048.57,-20.7639 L 1048.4,-21.5819 L 1048.4,-22.4181 L 1048.57,-23.2361 L 1048.91,-24 L 1049.4,-24.6765
 L 1050.03,-25.2361 L 1051.04,-25.7708 L 1146.02,-59.3846 L 1146.84,-59.5797 L 1147.67,-59.6014 L 1148.49,-59.4489
 L 1149.27,-59.1287 L 1149.96,-58.6549 L 1150.53,-58.0482 L 1150.97,-57.3352 L 1151.25,-56.5469 L 1151.36,-55.6138
 L 1151.36,-22 L 1151.27,-21.1684 L 1151.01,-20.373 L 1150.59,-19.6489 L 1150.03,-19.0274 L 1149.36,-18.5359
 L 1148.59,-18.1958 L 1147.36,-18 z
M 22,-18 L 20.7639,-18.1958 L 20,-18.5359 L 19.3235,-19.0274 L 18.7639,-19.6489 L 18.3458,-20.373
 L 18.0874,-21.1684 L 18,-22 L 18,-55.083 L 18.1103,-56.016 L 18.3893,-56.8043 L 18.8261,-57.5174
 L 19.4016,-58.1241 L 20.0907,-58.5979 L 20.8632,-58.918 L 21.6854,-59.0706 L 22.5213,-59.0488 L 23.3345,-58.8538
 L 116.815,-25.7708 L 117.831,-25.2361 L 118.453,-24.6765 L 118.944,-24 L 119.284,-23.2361 L 119.458,-22.4181
 L 119.458,-21.5819 L 119.284,-20.7639 L 118.944,-20 L 118.453,-19.3235 L 117.831,-18.7639 L 117.107,-18.3458
 L 116.312,-18.0874 L 115.48,-18 z
M 1244.52,-18 L 1243.69,-18.0874 L 1242.89,-18.3458 L 1242.17,-18.7639 L 1241.55,-19.3235 L 1241.06,-20
 L 1240.72,-20.7639 L 1240.54,-21.5819 L 1240.54,-22.4181 L 1240.72,-23.2361 L 1241.06,-24 L 1241.55,-24.6765
 L 1242.17,-25.2361 L 1243.19,-25.7708 L 1336.67,-58.8538 L 1337.48,-59.0488 L 1338.31,-59.0706 L 1339.14,-58.918
 L 1339.91,-58.5979 L 1340.6,-58.1241 L 1341.17,-57.5174 L 1341.61,-56.8043 L 1341.89,-56.016 L 1342,-55.083
 L 1342,-22 L 1341.91,-21.1684 L 1341.65,-20.373 L 1341.24,-19.6489 L 1340.68,-19.0274 L 1340,-18.5359
 L 1339.24,-18.1958 L 1338,-18 z
M 662.098,-18 L 660.962,-18.1649 L 660.189,-18.4851 L 659.5,-18.9589 L 658.925,-19.5656 L 658.488,-20.2786
 L 658.209,-21.067 L 658.1,-21.8961 L 658.166,-22.7297 L 658.403,-23.5314 L 658.802,-24.2663 L 659.346,-24.902
 L 660.009,-25.411 L 660.764,-25.7708 L 678.665,-32.1062 L 679.685,-32.323 L 680.521,-32.3013 L 681.334,-32.1062
 L 699.236,-25.7708 L 700.253,-25.2361 L 700.874,-24.6765 L 701.366,-24 L 701.706,-23.2361 L 701.88,-22.4181
 L 701.88,-21.5819 L 701.706,-20.7639 L 701.366,-20 L 700.874,-19.3235 L 700.253,-18.7639 L 699.528,-18.3458
 L 698.733,-18.0874 L 697.901,-18 z
" stroke="black" fill="lightgray" stroke-width="0.5"/>
</svg>
