<?xml version="1.0" standalone="no"?>
<!DOCTYPE svg PUBLIC "-//W3C//DTD SVG 1.1//EN" "http://www.w3.org/Graphics/SVG/1.1/DTD/svg11.dtd">
<svg width="1492mm" height="80mm" viewBox="0 -80 1492 80" xmlns="http://www.w3.org/2000/svg" version="1.1">
<title>OpenSCAD Model</title>
<path d="
M 1492,-80 L 0,-80 L 0,-0 L 4.95,-0 L 4.95,-6 L 5.00572,-6.53017
 L 5.17046,-7.03717 L 5.437,-7.49884 L 5.79372,-7.895 L 6.22499,-8.20836 L 6.71201,-8.42519 L 7.23344,-8.53603
 L 7.76654,-8.53603 L 8.28798,-8.42519 L 8.77499,-8.20836 L 9.20627,-7.895 L 9.56299,-7.49884 L 9.82953,-7.03717
 L 9.99426,-6.53017 L 10.05,-6 L 10.05,-0 L 189.575,-0 L 189.575,-6 L 189.631,-6.53017
 L 189.795,-7.03717 L 190.062,-7.49884 L 190.419,-7.895 L 190.85,-8.20836 L 191.337,-8.42519 L 191.858,-8.53603
 L 192.392,-8.53603 L 192.913,-8.42519 L 193.4,-8.20836 L 193.831,-7.895 L 194.188,-7.49884 L 194.455,-7.03717
 L 194.619,-6.53017 L 194.675,-6 L 194.675,-0 L 374.2,-0 L 374.2,-6 L 374.256,-6.53017
 L 374.42,-7.03717 L 374.687,-7.49884 L 375.044,-7.895 L 375.475,-8.20836 L 375.962,-8.42519 L 376.483,-8.53603
 L 377.017,-8.53603 L 377.538,-8.42519 L 378.025,-8.20836 L 378.456,-7.895 L 378.813,-7.49884 L 379.08,-7.03717
 L 379.244,-6.53017 L 379.3,-6 L 379.3,-0 L 558.825,-0 L 558.825,-6 L 558.881,-6.53017
 L 559.045,-7.03717 L 559.312,-7.49884 L 559.669,-7.895 L 560.1,-8.20836 L 560.587,-8.42519 L 561.108,-8.53603
 L 561.642,-8.53603 L 562.163,-8.42519 L 562.65,-8.20836 L 563.081,-7.895 L 563.438,-7.49884 L 563.705,-7.03717
 L 563.869,-6.53017 L 563.925,-6 L 563.925,-0 L 743.45,-0 L 743.45,-6 L 743.506,-6.53017
 L 743.67,-7.03717 L 743.937,-7.49884 L 744.294,-7.895 L 744.725,-8.20836 L 745.212,-8.42519 L 745.733,-8.53603
 L 746.267,-8.53603 L 746.788,-8.42519 L 747.275,-8.20836 L 747.706,-7.895 L 748.063,-7.49884 L 748.33,-7.03717
 L 748.494,-6.53017 L 748.55,-6 L 748.55,-0 L 928.075,-0 L 928.075,-6 L 928.131,-6.53017
 L 928.295,-7.03717 L 928.562,-7.49884 L 928.919,-7.895 L 929.35,-8.20836 L 929.837,-8.42519 L 930.358,-8.53603
 L 930.892,-8.53603 L 931.413,-8.42519 L 931.9,-8.20836 L 932.331,-7.895 L 932.688,-7.49884 L 932.955,-7.03717
 L 933.119,-6.53017 L 933.175,-6 L 933.175,-0 L 1112.7,-0 L 1112.7,-6 L 1112.76,-6.53017
 L 1112.92,-7.03717 L 1113.19,-7.49884 L 1113.54,-7.895 L 1113.97,-8.20836 L 1114.46,-8.42519 L 1114.98,-8.53603
 L 1115.52,-8.53603 L 1116.04,-8.42519 L 1116.52,-8.20836 L 1116.96,-7.895 L 1117.31,-7.49884 L 1117.58,-7.03717
 L 1117.74,-6.53017 L 1117.8,-6 L 1117.8,-0 L 1297.32,-0 L 1297.32,-6 L 1297.38,-6.53017
 L 1297.55,-7.03717 L 1297.81,-7.49884 L 1298.17,-7.895 L 1298.6,-8.20836 L 1299.09,-8.42519 L 1299.61,-8.53603
 L 1300.14,-8.53603 L 1300.66,-8.42519 L 1301.15,-8.20836 L 1301.58,-7.895 L 1301.94,-7.49884 L 1302.2,-7.03717
 L 1302.37,-6.53017 L 1302.42,-6 L 1302.42,-0 L 1481.95,-0 L 1481.95,-6 L 1482.01,-6.53017
 L 1482.17,-7.03717 L 1482.44,-7.49884 L 1482.79,-7.895 L 1483.22,-8.20836 L 1483.71,-8.42519 L 1484.23,-8.53603
 L 1484.77,-8.53603 L 1485.29,-8.42519 L 1485.77,-8.20836 L 1486.21,-7.895 L 1486.56,-7.49884 L 1486.83,-7.03717
 L 1486.99,-6.53017 L 1487.05,-6 L 1487.05,-0 L 1492,-0 z
M 191.611,-55.607 L 191.102,-55.6875 L 190.605,-55.8208 L 190.124,-56.0054 L 189.665,-56.2392 L 189.233,-56.5196
 L 188.833,-56.8437 L 188.469,-57.2079 L 188.145,-57.6081 L 187.864,-58.04 L 187.63,-58.4989 L 187.446,-58.9796
 L 187.313,-59.4771 L 187.232,-59.9857 L 187.205,-60.5 L 187.232,-61.0143 L 187.313,-61.5229 L 187.446,-62.0204
 L 187.63,-62.5011 L 187.864,-62.96 L 188.145,-63.3919 L 188.469,-63.7921 L 188.833,-64.1563 L 189.233,-64.4804
 L 189.575,-64.7024 L 189.575,-74 L 189.631,-74.5302 L 189.795,-75.0372 L 190.062,-75.4988 L 190.419,-75.895
 L 190.85,-76.2084 L 191.337,-76.4252 L 191.858,-76.536 L 192.392,-76.536 L 192.913,-76.4252 L 193.4,-76.2084
 L 193.831,-75.895 L 194.188,-75.4988 L 194.455,-75.0372 L 194.619,-74.5302 L 194.675,-74 L 194.675,-64.7024
 L 195.017,-64.4804 L 195.417,-64.1563 L 195.781,-63.7921 L 196.105,-63.3919 L 196.386,-62.96 L 196.62,-62.5011
 L 196.804,-62.0204 L 196.937,-61.5229 L 197.018,-61.0143 L 197.045,-60.5 L 197.018,-59.9857 L 196.937,-59.4771
 L 196.804,-58.9796 L 196.62,-58.4989 L 196.386,-58.04 L 196.105,-57.6081 L 195.781,-57.2079 L 195.417,-56.8437
 L 195.017,-56.5196 L 194.585,-56.2392 L 194.126,-56.0054 L 193.645,-55.8208 L 193.148,-55.6875 L 192.639,-55.607
 L 192.125,-55.58 z
M 1114.74,-55.607 L 1114.23,-55.6875 L 1113.73,-55.8208 L 1113.25,-56.0054 L 1112.79,-56.2392 L 1112.36,-56.5196
 L 1111.96,-56.8437 L 1111.59,-57.2079 L 1111.27,-57.6081 L 1110.99,-58.04 L 1110.76,-58.4989 L 1110.57,-58.9796
 L 1110.44,-59.4771 L 1110.36,-59.9857 L 1110.33,-60.5 L 1110.36,-61.0143 L 1110.44,-61.5229 L 1110.57,-62.0204
 L 1110.76,-62.5011 L 1110.99,-62.96 L 1111.27,-63.3919 L 1111.59,-63.7921 L 1111.96,-64.1563 L 1112.36,-64.4804
 L 1112.7,-64.7024 L 1112.7,-74 L 1112.76,-74.5302 L 1112.92,-75.0372 L 1113.19,-75.4988 L 1113.54,-75.895
 L 1113.98,-76.2084 L 1114.46,-76.4252 L 1114.98,-76.536 L 1115.52,-76.536 L 1116.04,-76.4252 L 1116.52,-76.2084
 L 1116.96,-75.895 L 1117.31,-75.4988 L 1117.58,-75.0372 L 1117.74,-74.5302 L 1117.8,-74 L 1117.8,-64.7024
 L 1118.14,-64.4804 L 1118.54,-64.1563 L 1118.91,-63.7921 L 1119.23,-63.3919 L 1119.51,-62.96 L 1119.74,-62.5011
 L 1119.93,-62.0204 L 1120.06,-61.5229 L 1120.14,-61.0143 L 1120.17,-60.5 L 1120.14,-59.9857 L 1120.06,-59.4771
 L 1119.93,-58.9796 L 1119.74,-58.4989 L 1119.51,-58.04 L 1119.23,-57.6081 L 1118.91,-57.2079 L 1118.54,-56.8437
 L 1118.14,-56.5196 L 1117.71,-56.2392 L 1117.25,-56.0054 L 1116.77,-55.8208 L 1116.27,-55.6875 L 1115.76,-55.607
 L 1115.25,-55.58 z
M 930.111,-55.607 L 929.602,-55.6875 L 929.105,-55.8208 L 928.624,-56.0054 L 928.165,-56.2392 L 927.733,-56.5196
 L 927.333,-56.8437 L 926.969,-57.2079 L 926.645,-57.6081 L 926.364,-58.04 L 926.13,-58.4989 L 925.946,-58.9796
 L 925.813,-59.4771 L 925.732,-59.9857 L 925.705,-60.5 L 925.732,-61.0143 L 925.813,-61.5229 L 925.946,-62.0204
 L 926.13,-62.5011 L 926.364,-62.96 L 926.645,-63.3919 L 926.969,-63.7921 L 927.333,-64.1563 L 927.733,-64.4804
 L 928.075,-64.7024 L 928.075,-74 L 928.131,-74.5302 L 928.295,-75.0372 L 928.562,-75.4988 L 928.919,-75.895
 L 929.35,-76.2084 L 929.837,-76.4252 L 930.358,-76.536 L 930.892,-76.536 L 931.413,-76.4252 L 931.9,-76.2084
 L 932.331,-75.895 L 932.688,-75.4988 L 932.955,-75.0372 L 933.119,-74.5302 L 933.175,-74 L 933.175,-64.7024
 L 933.517,-64.4804 L 933.917,-64.1563 L 934.281,-63.7921 L 934.605,-63.3919 L 934.886,-62.96 L 935.12,-62.5011
 L 935.304,-62.0204 L 935.437,-61.5229 L 935.518,-61.0143 L 935.545,-60.5 L 935.518,-59.9857 L 935.437,-59.4771
 L 935.304,-58.9796 L 935.12,-58.4989 L 934.886,-58.04 L 934.605,-57.6081 L 934.281,-57.2079 L 933.917,-56.8437
 L 933.517,-56.5196 L 933.085,-56.2392 L 932.626,-56.0054 L 932.145,-55.8208 L 931.648,-55.6875 L 931.139,-55.607
 L 930.625,-55.58 z
M 6.98573,-55.607 L 6.47708,-55.6875 L 5.97964,-55.8208 L 5.49887,-56.0054 L 5.04001,-56.2392 L 4.60811,-56.5196
 L 4.20789,-56.8437 L 3.84373,-57.2079 L 3.51964,-57.6081 L 3.23917,-58.04 L 3.00537,-58.4989 L 2.82082,-58.9796
 L 2.68752,-59.4771 L 2.60696,-59.9857 L 2.58,-60.5 L 2.60696,-61.0143 L 2.68752,-61.5229 L 2.82082,-62.0204
 L 3.00537,-62.5011 L 3.23917,-62.96 L 3.51964,-63.3919 L 3.84373,-63.7921 L 4.20789,-64.1563 L 4.60811,-64.4804
 L 4.95001,-64.7024 L 4.95001,-74 L 5.00574,-74.5302 L 5.17047,-75.0372 L 5.43701,-75.4988 L 5.79373,-75.895
 L 6.22501,-76.2084 L 6.71202,-76.4252 L 7.23346,-76.536 L 7.76654,-76.536 L 8.28798,-76.4252 L 8.77499,-76.2084
 L 9.20627,-75.895 L 9.56299,-75.4988 L 9.82953,-75.0372 L 9.99426,-74.5302 L 10.05,-74 L 10.05,-64.7024
 L 10.3919,-64.4804 L 10.7921,-64.1563 L 11.1563,-63.7921 L 11.4804,-63.3919 L 11.7608,-62.96 L 11.9946,-62.5011
 L 12.1792,-62.0204 L 12.3125,-61.5229 L 12.393,-61.0143 L 12.42,-60.5 L 12.393,-59.9857 L 12.3125,-59.4771
 L 12.1792,-58.9796 L 11.9946,-58.4989 L 11.7608,-58.04 L 11.4804,-57.6081 L 11.1563,-57.2079 L 10.7921,-56.8437
 L 10.3919,-56.5196 L 9.95999,-56.2392 L 9.50113,-56.0054 L 9.02036,-55.8208 L 8.52292,-55.6875 L 8.01427,-55.607
 L 7.5,-55.58 z
M 745.486,-55.607 L 744.977,-55.6875 L 744.48,-55.8208 L 743.999,-56.0054 L 743.54,-56.2392 L 743.108,-56.5196
 L 742.708,-56.8437 L 742.344,-57.2079 L 742.02,-57.6081 L 741.739,-58.04 L 741.505,-58.4989 L 741.321,-58.9796
 L 741.188,-59.4771 L 741.107,-59.9857 L 741.08,-60.5 L 741.107,-61.0143 L 741.188,-61.5229 L 741.321,-62.0204
 L 741.505,-62.5011 L 741.739,-62.96 L 742.02,-63.3919 L 742.344,-63.7921 L 742.708,-64.1563 L 743.108,-64.4804
 L 743.45,-64.7024 L 743.45,-74 L 743.506,-74.5302 L 743.67,-75.0372 L 743.937,-75.4988 L 744.294,-75.895
 L 744.725,-76.2084 L 745.212,-76.4252 L 745.733,-76.536 L 746.267,-76.536 L 746.788,-76.4252 L 747.275,-76.2084
 L 747.706,-75.895 L 748.063,-75.4988 L 748.33,-75.0372 L 748.494,-74.5302 L 748.55,-74 L 748.55,-64.7024
 L 748.892,-64.4804 L 749.292,-64.1563 L 749.656,-63.7921 L 749.98,-63.3919 L 750.261,-62.96 L 750.495,-62.5011
 L 750.679,-62.0204 L 750.812,-61.5229 L 750.893,-61.0143 L 750.92,-60.5 L 750.893,-59.9857 L 750.812,-59.4771
 L 750.679,-58.9796 L 750.495,-58.4989 L 750.261,-58.04 L 749.98,-57.6081 L 749.656,-57.2079 L 749.292,-56.8437
 L 748.892,-56.5196 L 748.46,-56.2392 L 748.001,-56.0054 L 747.52,-55.8208 L 747.023,-55.6875 L 746.514,-55.607
 L 746,-55.58 z
M 1299.36,-55.607 L 1298.85,-55.6875 L 1298.35,-55.8208 L 1297.87,-56.0054 L 1297.42,-56.2392 L 1296.98,-56.5196
 L 1296.58,-56.8437 L 1296.22,-57.2079 L 1295.89,-57.6081 L 1295.61,-58.04 L 1295.38,-58.4989 L 1295.2,-58.9796
 L 1295.06,-59.4771 L 1294.98,-59.9857 L 1294.96,-60.5 L 1294.98,-61.0143 L 1295.06,-61.5229 L 1295.2,-62.0204
 L 1295.38,-62.5011 L 1295.61,-62.96 L 1295.89,-63.3919 L 1296.22,-63.7921 L 1296.58,-64.1563 L 1296.98,-64.4804
 L 1297.33,-64.7024 L 1297.33,-74 L 1297.38,-74.5302 L 1297.55,-75.0372 L 1297.81,-75.4988 L 1298.17,-75.895
 L 1298.6,-76.2084 L 1299.09,-76.4252 L 1299.61,-76.536 L 1300.14,-76.536 L 1300.66,-76.4252 L 1301.15,-76.2084
 L 1301.58,-75.895 L 1301.94,-75.4988 L 1302.2,-75.0372 L 1302.37,-74.5302 L 1302.42,-74 L 1302.42,-64.7024
 L 1302.77,-64.4804 L 1303.17,-64.1563 L 1303.53,-63.7921 L 1303.86,-63.3919 L 1304.14,-62.96 L 1304.37,-62.5011
 L 1304.55,-62.0204 L 1304.69,-61.5229 L 1304.77,-61.0143 L 1304.79,-60.5 L 1304.77,-59.9857 L 1304.69,-59.4771
 L 1304.55,-58.9796 L 1304.37,-58.4989 L 1304.14,-58.04 L 1303.86,-57.6081 L 1303.53,-57.2079 L 1303.17,-56.8437
 L 1302.77,-56.5196 L 1302.33,-56.2392 L 1301.88,-56.0054 L 1301.4,-55.8208 L 1300.9,-55.6875 L 1300.39,-55.607
 L 1299.88,-55.58 z
M 560.861,-55.607 L 560.352,-55.6875 L 559.855,-55.8208 L 559.374,-56.0054 L 558.915,-56.2392 L 558.483,-56.5196
 L 558.083,-56.8437 L 557.719,-57.2079 L 557.395,-57.6081 L 557.114,-58.04 L 556.88,-58.4989 L 556.696,-58.9796
 L 556.563,-59.4771 L 556.482,-59.9857 L 556.455,-60.5 L 556.482,-61.0143 L 556.563,-61.5229 L 556.696,-62.0204
 L 556.88,-62.5011 L 557.114,-62.96 L 557.395,-63.3919 L 557.719,-63.7921 L 558.083,-64.1563 L 558.483,-64.4804
 L 558.825,-64.7024 L 558.825,-74 L 558.881,-74.5302 L 559.045,-75.0372 L 559.312,-75.4988 L 559.669,-75.895
 L 560.1,-76.2084 L 560.587,-76.4252 L 561.108,-76.536 L 561.642,-76.536 L 562.163,-76.4252 L 562.65,-76.2084
 L 563.081,-75.895 L 563.438,-75.4988 L 563.705,-75.0372 L 563.869,-74.5302 L 563.925,-74 L 563.925,-64.7024
 L 564.267,-64.4804 L 564.667,-64.1563 L 565.031,-63.7921 L 565.355,-63.3919 L 565.636,-62.96 L 565.87,-62.5011
 L 566.054,-62.0204 L 566.187,-61.5229 L 566.268,-61.0143 L 566.295,-60.5 L 566.268,-59.9857 L 566.187,-59.4771
 L 566.054,-58.9796 L 565.87,-58.4989 L 565.636,-58.04 L 565.355,-57.6081 L 565.031,-57.2079 L 564.667,-56.8437
 L 564.267,-56.5196 L 563.835,-56.2392 L 563.376,-56.0054 L 562.895,-55.8208 L 562.398,-55.6875 L 561.889,-55.607
 L 561.375,-55.58 z
M 376.236,-55.607 L 375.727,-55.6875 L 375.23,-55.8208 L 374.749,-56.0054 L 374.29,-56.2392 L 373.858,-56.5196
 L 373.458,-56.8437 L 373.094,-57.2079 L 372.77,-57.6081 L 372.489,-58.04 L 372.255,-58.4989 L 372.071,-58.9796
 L 371.938,-59.4771 L 371.857,-59.9857 L 371.83,-60.5 L 371.857,-61.0143 L 371.938,-61.5229 L 372.071,-62.0204
 L 372.255,-62.5011 L 372.489,-62.96 L 372.77,-63.3919 L 373.094,-63.7921 L 373.458,-64.1563 L 373.858,-64.4804
 L 374.2,-64.7024 L 374.2,-74 L 374.256,-74.5302 L 374.42,-75.0372 L 374.687,-75.4988 L 375.044,-75.895
 L 375.475,-76.2084 L 375.962,-76.4252 L 376.483,-76.536 L 377.017,-76.536 L 377.538,-76.4252 L 378.025,-76.2084
 L 378.456,-75.895 L 378.813,-75.4988 L 379.08,-75.0372 L 379.244,-74.5302 L 379.3,-74 L 379.3,-64.7024
 L 379.642,-64.4804 L 380.042,-64.1563 L 380.406,-63.7921 L 380.73,-63.3919 L 381.011,-62.96 L 381.245,-62.5011
 L 381.429,-62.0204 L 381.562,-61.5229 L 381.643,-61.0143 L 381.67,-60.5 L 381.643,-59.9857 L 381.562,-59.4771
 L 381.429,-58.9796 L 381.245,-58.4989 L 381.011,-58.04 L 380.73,-57.6081 L 380.406,-57.2079 L 380.042,-56.8437
 L 379.642,-56.5196 L 379.21,-56.2392 L 378.751,-56.0054 L 378.27,-55.8208 L 377.773,-55.6875 L 377.264,-55.607
 L 376.75,-55.58 z
M 1483.99,-55.607 L 1483.48,-55.6875 L 1482.98,-55.8208 L 1482.5,-56.0054 L 1482.04,-56.2392 L 1481.61,-56.5196
 L 1481.21,-56.8437 L 1480.84,-57.2079 L 1480.52,-57.6081 L 1480.24,-58.04 L 1480.01,-58.4989 L 1479.82,-58.9796
 L 1479.69,-59.4771 L 1479.61,-59.9857 L 1479.58,-60.5 L 1479.61,-61.0143 L 1479.69,-61.5229 L 1479.82,-62.0204
 L 1480.01,-62.5011 L 1480.24,-62.96 L 1480.52,-63.3919 L 1480.84,-63.7921 L 1481.21,-64.1563 L 1481.61,-64.4804
 L 1481.95,-64.7024 L 1481.95,-74 L 1482.01,-74.5302 L 1482.17,-75.0372 L 1482.44,-75.4988 L 1482.79,-75.895
 L 1483.23,-76.2084 L 1483.71,-76.4252 L 1484.23,-76.536 L 1484.77,-76.536 L 1485.29,-76.4252 L 1485.77,-76.2084
 L 1486.21,-75.895 L 1486.56,-75.4988 L 1486.83,-75.0372 L 1486.99,-74.5302 L 1487.05,-74 L 1487.05,-64.7024
 L 1487.39,-64.4804 L 1487.79,-64.1563 L 1488.16,-63.7921 L 1488.48,-63.3919 L 1488.76,-62.96 L 1488.99,-62.5011
 L 1489.18,-62.0204 L 1489.31,-61.5229 L 1489.39,-61.0143 L 1489.42,-60.5 L 1489.39,-59.9857 L 1489.31,-59.4771
 L 1489.18,-58.9796 L 1488.99,-58.4989 L 1488.76,-58.04 L 1488.48,-57.6081 L 1488.16,-57.2079 L 1487.79,-56.8437
 L 1487.39,-56.5196 L 1486.96,-56.2392 L 1486.5,-56.0054 L 1486.02,-55.8208 L 1485.52,-55.6875 L 1485.01,-55.607
 L 1484.5,-55.58 z
M 363.178,-20.6725 L 362.368,-20.8779 L 271.769,-54.2465 L 270.801,-54.7639 L 270.179,-55.3235 L 269.688,-56
 L 269.348,-56.7639 L 269.174,-57.5819 L 269.174,-58.4181 L 269.348,-59.2361 L 269.688,-60 L 270.179,-60.6765
 L 270.801,-61.2361 L 271.525,-61.6542 L 272.32,-61.9126 L 273.152,-62 L 363.75,-62 L 364.986,-61.8042
 L 365.75,-61.4641 L 366.427,-60.9726 L 366.986,-60.3511 L 367.404,-59.627 L 367.663,-58.8316 L 367.75,-58
 L 367.75,-24.6314 L 367.627,-23.6489 L 367.338,-22.8642 L 366.893,-22.1567 L 366.309,-21.5574 L 365.614,-21.0925
 L 364.838,-20.7822 L 364.014,-20.6401 z
M 547.803,-20.6725 L 546.993,-20.8779 L 456.394,-54.2465 L 455.426,-54.7639 L 454.804,-55.3235 L 454.313,-56
 L 453.973,-56.7639 L 453.799,-57.5819 L 453.799,-58.4181 L 453.973,-59.2361 L 454.313,-60 L 454.804,-60.6765
 L 455.426,-61.2361 L 456.15,-61.6542 L 456.945,-61.9126 L 457.777,-62 L 548.375,-62 L 549.611,-61.8042
 L 550.375,-61.4641 L 551.052,-60.9726 L 551.611,-60.3511 L 552.029,-59.627 L 552.288,-58.8316 L 552.375,-58
 L 552.375,-24.6314 L 552.252,-23.6489 L 551.963,-22.8642 L 551.518,-22.1567 L 550.934,-21.5574 L 550.239,-21.0925
 L 549.463,-20.7822 L 548.639,-20.6401 z
M 1311.79,-20.7822 L 1311.01,-21.0925 L 1310.32,-21.5574 L 1309.73,-22.1567 L 1309.29,-22.8642 L 1309,-23.6489
 L 1308.88,-24.6314 L 1308.88,-58 L 1308.96,-58.8316 L 1309.22,-59.627 L 1309.64,-60.3511 L 1310.2,-60.9726
 L 1310.88,-61.4641 L 1311.64,-61.8042 L 1312.88,-62 L 1403.47,-62 L 1404.3,-61.9126 L 1405.1,-61.6542
 L 1405.82,-61.2361 L 1406.45,-60.6765 L 1406.94,-60 L 1407.28,-59.2361 L 1407.45,-58.4181 L 1407.45,-57.5819
 L 1407.28,-56.7639 L 1406.94,-56 L 1406.45,-55.3235 L 1405.82,-54.7639 L 1404.86,-54.2465 L 1314.26,-20.8779
 L 1313.45,-20.6725 L 1312.61,-20.6401 z
M 732.428,-20.6725 L 731.618,-20.8779 L 641.019,-54.2465 L 640.051,-54.7639 L 639.429,-55.3235 L 638.938,-56
 L 638.598,-56.7639 L 638.424,-57.5819 L 638.424,-58.4181 L 638.598,-59.2361 L 638.938,-60 L 639.429,-60.6765
 L 640.051,-61.2361 L 640.775,-61.6542 L 641.57,-61.9126 L 642.402,-62 L 733,-62 L 734.236,-61.8042
 L 735,-61.4641 L 735.677,-60.9726 L 736.236,-60.3511 L 736.654,-59.627 L 736.913,-58.8316 L 737,-58
 L 737,-24.6314 L 736.877,-23.6489 L 736.588,-22.8642 L 736.143,-22.1567 L 735.559,-21.5574 L 734.864,-21.0925
 L 734.088,-20.7822 L 733.264,-20.6401 z
M 178.553,-20.6725 L 177.743,-20.8779 L 87.1443,-54.2465 L 86.1757,-54.7639 L 85.5542,-55.3235 L 85.0627,-56
 L 84.7226,-56.7639 L 84.5487,-57.5819 L 84.5487,-58.4181 L 84.7226,-59.2361 L 85.0627,-60 L 85.5542,-60.6765
 L 86.1757,-61.2361 L 86.8999,-61.6542 L 87.6952,-61.9126 L 88.5268,-62 L 179.125,-62 L 180.361,-61.8042
 L 181.125,-61.4641 L 181.802,-60.9726 L 182.361,-60.3511 L 182.779,-59.627 L 183.038,-58.8316 L 183.125,-58
 L 183.125,-24.6314 L 183.002,-23.6489 L 182.713,-22.8642 L 182.268,-22.1567 L 181.684,-21.5574 L 180.989,-21.0925
 L 180.213,-20.7822 L 179.389,-20.6401 z
M 757.912,-20.7822 L 757.136,-21.0925 L 756.441,-21.5574 L 755.857,-22.1567 L 755.412,-22.8642 L 755.123,-23.6489
 L 755,-24.6314 L 755,-58 L 755.087,-58.8316 L 755.346,-59.627 L 755.764,-60.3511 L 756.323,-60.9726
 L 757,-61.4641 L 757.764,-61.8042 L 759,-62 L 849.598,-62 L 850.43,-61.9126 L 851.225,-61.6542
 L 851.949,-61.2361 L 852.571,-60.6765 L 853.062,-60 L 853.402,-59.2361 L 853.576,-58.4181 L 853.576,-57.5819
 L 853.402,-56.7639 L 853.062,-56 L 852.571,-55.3235 L 851.949,-54.7639 L 850.981,-54.2465 L 760.382,-20.8779
 L 759.572,-20.6725 L 758.736,-20.6401 z
M 942.537,-20.7822 L 941.761,-21.0925 L 941.066,-21.5574 L 940.482,-22.1567 L 940.037,-22.8642 L 939.748,-23.6489
 L 939.625,-24.6314 L 939.625,-58 L 939.712,-58.8316 L 939.971,-59.627 L 940.389,-60.3511 L 940.948,-60.9726
 L 941.625,-61.4641 L 942.389,-61.8042 L 943.625,-62 L 1034.22,-62 L 1035.05,-61.9126 L 1035.85,-61.6542
 L 1036.57,-61.2361 L 1037.2,-60.6765 L 1037.69,-60 L 1038.03,-59.2361 L 1038.2,-58.4181 L 1038.2,-57.5819
 L 1038.03,-56.7639 L 1037.69,-56 L 1037.2,-55.3235 L 1036.57,-54.7639 L 1035.61,-54.2465 L 945.007,-20.8779
 L 944.197,-20.6725 L 943.361,-20.6401 z
M 1127.16,-20.7822 L 1126.39,-21.0925 L 1125.69,-21.5574 L 1125.11,-22.1567 L 1124.66,-22.8642 L 1124.37,-23.6489
 L 1124.25,-24.6314 L 1124.25,-58 L 1124.34,-58.8316 L 1124.6,-59.627 L 1125.01,-60.3511 L 1125.57,-60.9726
 L 1126.25,-61.4641 L 1127.01,-61.8042 L 1128.25,-62 L 1218.85,-62 L 1219.68,-61.9126 L 1220.48,-61.6542
 L 1221.2,-61.2361 L 1221.82,-60.6765 L 1222.31,-60 L 1222.65,-59.2361 L 1222.83,-58.4181 L 1222.83,-57.5819
 L 1222.65,-56.7639 L 1222.31,-56 L 1221.82,-55.3235 L 1221.2,-54.7639 L 1220.23,-54.2465 L 1129.63,-20.8779
 L 1128.82,-20.6725 L 1127.99,-20.6401 z
M 205.125,-18 L 203.889,-18.1958 L 203.125,-18.5359 L 202.448,-19.0274 L 201.889,-19.6489 L 201.471,-20.373
 L 201.212,-21.1684 L 201.125,-22 L 201.125,-55.3686 L 201.248,-56.3511 L 201.537,-57.1358 L 201.982,-57.8433
 L 202.566,-58.4426 L 203.261,-58.9075 L 204.037,-59.2178 L 204.861,-59.3599 L 205.697,-59.3275 L 206.507,-59.1221
 L 297.106,-25.7535 L 298.074,-25.2361 L 298.696,-24.6765 L 299.187,-24 L 299.527,-23.2361 L 299.701,-22.4181
 L 299.701,-21.5819 L 299.527,-20.7639 L 299.187,-20 L 298.696,-19.3235 L 298.074,-18.7639 L 297.35,-18.3458
 L 296.555,-18.0874 L 295.723,-18 z
M 389.75,-18 L 388.514,-18.1958 L 387.75,-18.5359 L 387.073,-19.0274 L 386.514,-19.6489 L 386.096,-20.373
 L 385.837,-21.1684 L 385.75,-22 L 385.75,-55.3686 L 385.873,-56.3511 L 386.162,-57.1358 L 386.607,-57.8433
 L 387.191,-58.4426 L 387.886,-58.9075 L 388.662,-59.2178 L 389.486,-59.3599 L 390.322,-59.3275 L 391.132,-59.1221
 L 481.731,-25.7535 L 482.699,-25.2361 L 483.321,-24.6765 L 483.812,-24 L 484.152,-23.2361 L 484.326,-22.4181
 L 484.326,-21.5819 L 484.152,-20.7639 L 483.812,-20 L 483.321,-19.3235 L 482.699,-18.7639 L 481.975,-18.3458
 L 481.18,-18.0874 L 480.348,-18 z
M 574.375,-18 L 573.139,-18.1958 L 572.375,-18.5359 L 571.698,-19.0274 L 571.139,-19.6489 L 570.721,-20.373
 L 570.462,-21.1684 L 570.375,-22 L 570.375,-55.3686 L 570.498,-56.3511 L 570.787,-57.1358 L 571.232,-57.8433
 L 571.816,-58.4426 L 572.511,-58.9075 L 573.287,-59.2178 L 574.111,-59.3599 L 574.947,-59.3275 L 575.757,-59.1221
 L 666.356,-25.7535 L 667.324,-25.2361 L 667.946,-24.6765 L 668.437,-24 L 668.777,-23.2361 L 668.951,-22.4181
 L 668.951,-21.5819 L 668.777,-20.7639 L 668.437,-20 L 667.946,-19.3235 L 667.324,-18.7639 L 666.6,-18.3458
 L 665.805,-18.0874 L 664.973,-18 z
M 827.027,-18 L 826.195,-18.0874 L 825.4,-18.3458 L 824.676,-18.7639 L 824.054,-19.3235 L 823.563,-20
 L 823.223,-20.7639 L 823.049,-21.5819 L 823.049,-22.4181 L 823.223,-23.2361 L 823.563,-24 L 824.054,-24.6765
 L 824.676,-25.2361 L 825.644,-25.7535 L 916.243,-59.1221 L 917.053,-59.3275 L 917.889,-59.3599 L 918.713,-59.2178
 L 919.489,-58.9075 L 920.184,-58.4426 L 920.768,-57.8433 L 921.213,-57.1358 L 921.502,-56.3511 L 921.625,-55.3686
 L 921.625,-22 L 921.538,-21.1684 L 921.279,-20.373 L 920.861,-19.6489 L 920.302,-19.0274 L 919.625,-18.5359
 L 918.861,-18.1958 L 917.625,-18 z
M 1011.65,-18 L 1010.82,-18.0874 L 1010.02,-18.3458 L 1009.3,-18.7639 L 1008.68,-19.3235 L 1008.19,-20
 L 1007.85,-20.7639 L 1007.67,-21.5819 L 1007.67,-22.4181 L 1007.85,-23.2361 L 1008.19,-24 L 1008.68,-24.6765
 L 1009.3,-25.2361 L 1010.27,-25.7535 L 1100.87,-59.1221 L 1101.68,-59.3275 L 1102.51,-59.3599 L 1103.34,-59.2178
 L 1104.11,-58.9075 L 1104.81,-58.4426 L 1105.39,-57.8433 L 1105.84,-57.1358 L 1106.13,-56.3511 L 1106.25,-55.3686
 L 1106.25,-22 L 1106.16,-21.1684 L 1105.9,-20.373 L 1105.49,-19.6489 L 1104.93,-19.0274 L 1104.25,-18.5359
 L 1103.49,-18.1958 L 1102.25,-18 z
M 1196.28,-18 L 1195.45,-18.0874 L 1194.65,-18.3458 L 1193.93,-18.7639 L 1193.3,-19.3235 L 1192.81,-20
 L 1192.47,-20.7639 L 1192.3,-21.5819 L 1192.3,-22.4181 L 1192.47,-23.2361 L 1192.81,-24 L 1193.3,-24.6765
 L 1193.93,-25.2361 L 1194.89,-25.7535 L 1285.49,-59.1221 L 1286.3,-59.3275 L 1287.14,-59.3599 L 1287.96,-59.2178
 L 1288.74,-58.9075 L 1289.43,-58.4426 L 1290.02,-57.8433 L 1290.46,-57.1358 L 1290.75,-56.3511 L 1290.88,-55.3686
 L 1290.88,-22 L 1290.79,-21.1684 L 1290.53,-20.373 L 1290.11,-19.6489 L 1289.55,-19.0274 L 1288.88,-18.5359
 L 1288.11,-18.1958 L 1286.88,-18 z
M 1380.9,-18 L 1380.07,-18.0874 L 1379.27,-18.3458 L 1378.55,-18.7639 L 1377.93,-19.3235 L 1377.44,-20
 L 1377.1,-20.7639 L 1376.92,-21.5819 L 1376.92,-22.4181 L 1377.1,-23.2361 L 1377.44,-24 L 1377.93,-24.6765
 L 1378.55,-25.2361 L 1379.52,-25.7535 L 1468.62,-58.5696 L 1469.43,-58.775 L 1470.26,-58.8074 L 1471.09,-58.6654
 L 1471.86,-58.3551 L 1472.56,-57.8901 L 1473.14,-57.2908 L 1473.59,-56.5834 L 1473.88,-55.7987 L 1474,-54.8161
 L 1474,-22 L 1473.91,-21.1684 L 1473.65,-20.373 L 1473.24,-19.6489 L 1472.68,-19.0274 L 1472,-18.5359
 L 1471.24,-18.1958 L 1470,-18 z
M 22,-18 L 20.7639,-18.1958 L 20,-18.5359 L 19.3235,-19.0274 L 18.7639,-19.6489 L 18.3458,-20.373
 L 18.0874,-21.1684 L 18,-22 L 18,-54.8161 L 18.1226,-55.7987 L 18.4116,-56.5834 L 18.8574,-57.2908
 L 19.4406,-57.8901 L 20.1357,-58.3551 L 20.9122,-58.6654 L 21.7363,-58.8074 L 22.5719,-58.775 L 23.3825,-58.5696
 L 112.481,-25.7535 L 113.449,-25.2361 L 114.071,-24.6765 L 114.562,-24 L 114.902,-23.2361 L 115.076,-22.4181
 L 115.076,-21.5819 L 114.902,-20.7639 L 114.562,-20 L 114.071,-19.3235 L 113.449,-18.7639 L 112.725,-18.3458
 L 111.93,-18.0874 L 111.098,-18 z
" stroke="black" fill="lightgray" stroke-width="0.5"/>
</svg>
