<?xml version="1.0" standalone="no"?>
<!DOCTYPE svg PUBLIC "-//W3C//DTD SVG 1.1//EN" "http://www.w3.org/Graphics/SVG/1.1/DTD/svg11.dtd">
<svg width="1088mm" height="80mm" viewBox="0 -80 1088 80" xmlns="http://www.w3.org/2000/svg" version="1.1">
<title>OpenSCAD Model</title>
<path d="
M 1088,-80 L 0,-80 L 0,-0 L 4.95,-0 L 4.95,-6 L 5.00572,-6.53017
 L 5.17046,-7.03717 L 5.437,-7.49884 L 5.79372,-7.895 L 6.22499,-8.20836 L 6.71201,-8.42519 L 7.23344,-8.53603
 L 7.76654,-8.53603 L 8.28798,-8.42519 L 8.77499,-8.20836 L 9.20627,-7.895 L 9.56299,-7.49884 L 9.82953,-7.03717
 L 9.99426,-6.53017 L 10.05,-6 L 10.05,-0 L 183.783,-0 L 183.783,-6 L 183.839,-6.53017
 L 184.004,-7.03717 L 184.27,-7.49884 L 184.627,-7.895 L 185.058,-8.20836 L 185.545,-8.42519 L 186.067,-8.53603
 L 186.6,-8.53603 L 187.121,-8.42519 L 187.608,-8.20836 L 188.04,-7.895 L 188.396,-7.49884 L 188.663,-7.03717
 L 188.828,-6.53017 L 188.883,-6 L 188.883,-0 L 362.617,-0 L 362.617,-6 L 362.672,-6.53017
 L 362.837,-7.03717 L 363.104,-7.49884 L 363.46,-7.895 L 363.892,-8.20836 L 364.379,-8.42519 L 364.9,-8.53603
 L 365.433,-8.53603 L 365.955,-8.42519 L 366.442,-8.20836 L 366.873,-7.895 L 367.23,-7.49884 L 367.496,-7.03717
 L 367.661,-6.53017 L 367.717,-6 L 367.717,-0 L 541.45,-0 L 541.45,-6 L 541.506,-6.53017
 L 541.67,-7.03717 L 541.937,-7.49884 L 542.294,-7.895 L 542.725,-8.20836 L 543.212,-8.42519 L 543.733,-8.53603
 L 544.267,-8.53603 L 544.788,-8.42519 L 545.275,-8.20836 L 545.706,-7.895 L 546.063,-7.49884 L 546.33,-7.03717
 L 546.494,-6.53017 L 546.55,-6 L 546.55,-0 L 720.283,-0 L 720.283,-6 L 720.339,-6.53017
 L 720.504,-7.03717 L 720.77,-7.49884 L 721.127,-7.895 L 721.558,-8.20836 L 722.045,-8.42519 L 722.567,-8.53603
 L 723.1,-8.53603 L 723.621,-8.42519 L 724.108,-8.20836 L 724.54,-7.895 L 724.896,-7.49884 L 725.163,-7.03717
 L 725.328,-6.53017 L 725.383,-6 L 725.383,-0 L 899.117,-0 L 899.117,-6 L 899.172,-6.53017
 L 899.337,-7.03717 L 899.604,-7.49884 L 899.96,-7.895 L 900.392,-8.20836 L 900.879,-8.42519 L 901.4,-8.53603
 L 901.933,-8.53603 L 902.455,-8.42519 L 902.942,-8.20836 L 903.373,-7.895 L 903.73,-7.49884 L 903.996,-7.03717
 L 904.161,-6.53017 L 904.217,-6 L 904.217,-0 L 1077.95,-0 L 1077.95,-6 L 1078.01,-6.53017
 L 1078.17,-7.03717 L 1078.44,-7.49884 L 1078.79,-7.895 L 1079.22,-8.20836 L 1079.71,-8.42519 L 1080.23,-8.53603
 L 1080.77,-8.53603 L 1081.29,-8.42519 L 1081.77,-8.20836 L 1082.21,-7.895 L 1082.56,-7.49884 L 1082.83,-7.03717
 L 1082.99,-6.53017 L 1083.05,-6 L 1083.05,-0 L 1088,-0 z
M 6.98573,-55.607 L 6.47708,-55.6875 L 5.97964,-55.8208 L 5.49887,-56.0054 L 5.04001,-56.2392 L 4.60811,-56.5196
 L 4.20789,-56.8437 L 3.84373,-57.2079 L 3.51964,-57.6081 L 3.23917,-58.04 L 3.00537,-58.4989 L 2.82082,-58.9796
 L 2.68752,-59.4771 L 2.60696,-59.9857 L 2.58,-60.5 L 2.60696,-61.0143 L 2.68752,-61.5229 L 2.82082,-62.0204
 L 3.00537,-62.5011 L 3.23917,-62.96 L 3.51964,-63.3919 L 3.84373,-63.7921 L 4.20789,-64.1563 L 4.60811,-64.4804
 L 4.95001,-64.7024 L 4.95001,-74 L 5.00574,-74.5302 L 5.17047,-75.0372 L 5.43701,-75.4988 L 5.79373,-75.895
 L 6.22501,-76.2084 L 6.71202,-76.4252 L 7.23346,-76.536 L 7.76654,-76.536 L 8.28798,-76.4252 L 8.77499,-76.2084
 L 9.20627,-75.895 L 9.56299,-75.4988 L 9.82953,-75.0372 L 9.99426,-74.5302 L 10.05,-74 L 10.05,-64.7024
 L 10.3919,-64.4804 L 10.7921,-64.1563 L 11.1563,-63.7921 L 11.4804,-63.3919 L 11.7608,-62.96 L 11.9946,-62.5011
 L 12.1792,-62.0204 L 12.3125,-61.5229 L 12.393,-61.0143 L 12.42,-60.5 L 12.393,-59.9857 L 12.3125,-59.4771
 L 12.1792,-58.9796 L 11.9946,-58.4989 L 11.7608,-58.04 L 11.4804,-57.6081 L 11.1563,-57.2079 L 10.7921,-56.8437
 L 10.3919,-56.5196 L 9.95999,-56.2392 L 9.50113,-56.0054 L 9.02036,-55.8208 L 8.52292,-55.6875 L 8.01427,-55.607
 L 7.5,-55.58 z
M 185.819,-55.607 L 185.31,-55.6875 L 184.813,-55.8208 L 184.332,-56.0054 L 183.873,-56.2392 L 183.441,-56.5196
 L 183.041,-56.8437 L 182.677,-57.2079 L 182.353,-57.6081 L 182.072,-58.04 L 181.839,-58.4989 L 181.654,-58.9796
 L 181.521,-59.4771 L 181.44,-59.9857 L 181.413,-60.5 L 181.44,-61.0143 L 181.521,-61.5229 L 181.654,-62.0204
 L 181.839,-62.5011 L 182.072,-62.96 L 182.353,-63.3919 L 182.677,-63.7921 L 183.041,-64.1563 L 183.441,-64.4804
 L 183.783,-64.7024 L 183.783,-74 L 183.839,-74.5302 L 184.004,-75.0372 L 184.27,-75.4988 L 184.627,-75.895
 L 185.058,-76.2084 L 185.545,-76.4252 L 186.067,-76.536 L 186.6,-76.536 L 187.121,-76.4252 L 187.608,-76.2084
 L 188.04,-75.895 L 188.396,-75.4988 L 188.663,-75.0372 L 188.828,-74.5302 L 188.883,-74 L 188.883,-64.7024
 L 189.225,-64.4804 L 189.625,-64.1563 L 189.99,-63.7921 L 190.314,-63.3919 L 190.594,-62.96 L 190.828,-62.5011
 L 191.013,-62.0204 L 191.146,-61.5229 L 191.226,-61.0143 L 191.253,-60.5 L 191.226,-59.9857 L 191.146,-59.4771
 L 191.013,-58.9796 L 190.828,-58.4989 L 190.594,-58.04 L 190.314,-57.6081 L 189.99,-57.2079 L 189.625,-56.8437
 L 189.225,-56.5196 L 188.793,-56.2392 L 188.334,-56.0054 L 187.854,-55.8208 L 187.356,-55.6875 L 186.848,-55.607
 L 186.333,-55.58 z
M 364.652,-55.607 L 364.144,-55.6875 L 363.646,-55.8208 L 363.166,-56.0054 L 362.707,-56.2392 L 362.275,-56.5196
 L 361.875,-56.8437 L 361.51,-57.2079 L 361.186,-57.6081 L 360.906,-58.04 L 360.672,-58.4989 L 360.487,-58.9796
 L 360.354,-59.4771 L 360.274,-59.9857 L 360.247,-60.5 L 360.274,-61.0143 L 360.354,-61.5229 L 360.487,-62.0204
 L 360.672,-62.5011 L 360.906,-62.96 L 361.186,-63.3919 L 361.51,-63.7921 L 361.875,-64.1563 L 362.275,-64.4804
 L 362.617,-64.7024 L 362.617,-74 L 362.672,-74.5302 L 362.837,-75.0372 L 363.104,-75.4988 L 363.46,-75.895
 L 363.892,-76.2084 L 364.379,-76.4252 L 364.9,-76.536 L 365.433,-76.536 L 365.955,-76.4252 L 366.442,-76.2084
 L 366.873,-75.895 L 367.23,-75.4988 L 367.496,-75.0372 L 367.661,-74.5302 L 367.717,-74 L 367.717,-64.7024
 L 368.059,-64.4804 L 368.459,-64.1563 L 368.823,-63.7921 L 369.147,-63.3919 L 369.427,-62.96 L 369.661,-62.5011
 L 369.846,-62.0204 L 369.979,-61.5229 L 370.06,-61.0143 L 370.087,-60.5 L 370.06,-59.9857 L 369.979,-59.4771
 L 369.846,-58.9796 L 369.661,-58.4989 L 369.427,-58.04 L 369.147,-57.6081 L 368.823,-57.2079 L 368.459,-56.8437
 L 368.059,-56.5196 L 367.627,-56.2392 L 367.168,-56.0054 L 366.687,-55.8208 L 366.19,-55.6875 L 365.681,-55.607
 L 365.167,-55.58 z
M 543.486,-55.607 L 542.977,-55.6875 L 542.48,-55.8208 L 541.999,-56.0054 L 541.54,-56.2392 L 541.108,-56.5196
 L 540.708,-56.8437 L 540.344,-57.2079 L 540.02,-57.6081 L 539.739,-58.04 L 539.505,-58.4989 L 539.321,-58.9796
 L 539.188,-59.4771 L 539.107,-59.9857 L 539.08,-60.5 L 539.107,-61.0143 L 539.188,-61.5229 L 539.321,-62.0204
 L 539.505,-62.5011 L 539.739,-62.96 L 540.02,-63.3919 L 540.344,-63.7921 L 540.708,-64.1563 L 541.108,-64.4804
 L 541.45,-64.7024 L 541.45,-74 L 541.506,-74.5302 L 541.67,-75.0372 L 541.937,-75.4988 L 542.294,-75.895
 L 542.725,-76.2084 L 543.212,-76.4252 L 543.733,-76.536 L 544.267,-76.536 L 544.788,-76.4252 L 545.275,-76.2084
 L 545.706,-75.895 L 546.063,-75.4988 L 546.33,-75.0372 L 546.494,-74.5302 L 546.55,-74 L 546.55,-64.7024
 L 546.892,-64.4804 L 547.292,-64.1563 L 547.656,-63.7921 L 547.98,-63.3919 L 548.261,-62.96 L 548.495,-62.5011
 L 548.679,-62.0204 L 548.812,-61.5229 L 548.893,-61.0143 L 548.92,-60.5 L 548.893,-59.9857 L 548.812,-59.4771
 L 548.679,-58.9796 L 548.495,-58.4989 L 548.261,-58.04 L 547.98,-57.6081 L 547.656,-57.2079 L 547.292,-56.8437
 L 546.892,-56.5196 L 546.46,-56.2392 L 546.001,-56.0054 L 545.52,-55.8208 L 545.023,-55.6875 L 544.514,-55.607
 L 544,-55.58 z
M 722.319,-55.607 L 721.81,-55.6875 L 721.313,-55.8208 L 720.832,-56.0054 L 720.373,-56.2392 L 719.941,-56.5196
 L 719.541,-56.8437 L 719.177,-57.2079 L 718.853,-57.6081 L 718.572,-58.04 L 718.339,-58.4989 L 718.154,-58.9796
 L 718.021,-59.4771 L 717.94,-59.9857 L 717.913,-60.5 L 717.94,-61.0143 L 718.021,-61.5229 L 718.154,-62.0204
 L 718.339,-62.5011 L 718.572,-62.96 L 718.853,-63.3919 L 719.177,-63.7921 L 719.541,-64.1563 L 719.941,-64.4804
 L 720.283,-64.7024 L 720.283,-74 L 720.339,-74.5302 L 720.504,-75.0372 L 720.77,-75.4988 L 721.127,-75.895
 L 721.558,-76.2084 L 722.045,-76.4252 L 722.567,-76.536 L 723.1,-76.536 L 723.621,-76.4252 L 724.108,-76.2084
 L 724.54,-75.895 L 724.896,-75.4988 L 725.163,-75.0372 L 725.328,-74.5302 L 725.383,-74 L 725.383,-64.7024
 L 725.725,-64.4804 L 726.125,-64.1563 L 726.49,-63.7921 L 726.814,-63.3919 L 727.094,-62.96 L 727.328,-62.5011
 L 727.513,-62.0204 L 727.646,-61.5229 L 727.726,-61.0143 L 727.753,-60.5 L 727.726,-59.9857 L 727.646,-59.4771
 L 727.513,-58.9796 L 727.328,-58.4989 L 727.094,-58.04 L 726.814,-57.6081 L 726.49,-57.2079 L 726.125,-56.8437
 L 725.725,-56.5196 L 725.293,-56.2392 L 724.834,-56.0054 L 724.354,-55.8208 L 723.856,-55.6875 L 723.348,-55.607
 L 722.833,-55.58 z
M 901.152,-55.607 L 900.644,-55.6875 L 900.146,-55.8208 L 899.666,-56.0054 L 899.207,-56.2392 L 898.775,-56.5196
 L 898.375,-56.8437 L 898.01,-57.2079 L 897.686,-57.6081 L 897.406,-58.04 L 897.172,-58.4989 L 896.987,-58.9796
 L 896.854,-59.4771 L 896.774,-59.9857 L 896.747,-60.5 L 896.774,-61.0143 L 896.854,-61.5229 L 896.987,-62.0204
 L 897.172,-62.5011 L 897.406,-62.96 L 897.686,-63.3919 L 898.01,-63.7921 L 898.375,-64.1563 L 898.775,-64.4804
 L 899.117,-64.7024 L 899.117,-74 L 899.172,-74.5302 L 899.337,-75.0372 L 899.604,-75.4988 L 899.96,-75.895
 L 900.392,-76.2084 L 900.879,-76.4252 L 901.4,-76.536 L 901.933,-76.536 L 902.455,-76.4252 L 902.942,-76.2084
 L 903.373,-75.895 L 903.73,-75.4988 L 903.996,-75.0372 L 904.161,-74.5302 L 904.217,-74 L 904.217,-64.7024
 L 904.559,-64.4804 L 904.959,-64.1563 L 905.323,-63.7921 L 905.647,-63.3919 L 905.927,-62.96 L 906.161,-62.5011
 L 906.346,-62.0204 L 906.479,-61.5229 L 906.56,-61.0143 L 906.587,-60.5 L 906.56,-59.9857 L 906.479,-59.4771
 L 906.346,-58.9796 L 906.161,-58.4989 L 905.927,-58.04 L 905.647,-57.6081 L 905.323,-57.2079 L 904.959,-56.8437
 L 904.559,-56.5196 L 904.127,-56.2392 L 903.668,-56.0054 L 903.187,-55.8208 L 902.69,-55.6875 L 902.181,-55.607
 L 901.667,-55.58 z
M 1079.99,-55.607 L 1079.48,-55.6875 L 1078.98,-55.8208 L 1078.5,-56.0054 L 1078.04,-56.2392 L 1077.61,-56.5196
 L 1077.21,-56.8437 L 1076.84,-57.2079 L 1076.52,-57.6081 L 1076.24,-58.04 L 1076.01,-58.4989 L 1075.82,-58.9796
 L 1075.69,-59.4771 L 1075.61,-59.9857 L 1075.58,-60.5 L 1075.61,-61.0143 L 1075.69,-61.5229 L 1075.82,-62.0204
 L 1076.01,-62.5011 L 1076.24,-62.96 L 1076.52,-63.3919 L 1076.84,-63.7921 L 1077.21,-64.1563 L 1077.61,-64.4804
 L 1077.95,-64.7024 L 1077.95,-74 L 1078.01,-74.5302 L 1078.17,-75.0372 L 1078.44,-75.4988 L 1078.79,-75.895
 L 1079.23,-76.2084 L 1079.71,-76.4252 L 1080.23,-76.536 L 1080.77,-76.536 L 1081.29,-76.4252 L 1081.77,-76.2084
 L 1082.21,-75.895 L 1082.56,-75.4988 L 1082.83,-75.0372 L 1082.99,-74.5302 L 1083.05,-74 L 1083.05,-64.7024
 L 1083.39,-64.4804 L 1083.79,-64.1563 L 1084.16,-63.7921 L 1084.48,-63.3919 L 1084.76,-62.96 L 1084.99,-62.5011
 L 1085.18,-62.0204 L 1085.31,-61.5229 L 1085.39,-61.0143 L 1085.42,-60.5 L 1085.39,-59.9857 L 1085.31,-59.4771
 L 1085.18,-58.9796 L 1084.99,-58.4989 L 1084.76,-58.04 L 1084.48,-57.6081 L 1084.16,-57.2079 L 1083.79,-56.8437
 L 1083.39,-56.5196 L 1082.96,-56.2392 L 1082.5,-56.0054 L 1082.02,-55.8208 L 1081.52,-55.6875 L 1081.01,-55.607
 L 1080.5,-55.58 z
M 913.619,-20.974 L 912.839,-21.2761 L 912.14,-21.7338 L 911.55,-22.3269 L 911.097,-23.0297 L 910.8,-23.8113
 L 910.667,-24.8344 L 910.667,-58 L 910.754,-58.8316 L 911.012,-59.627 L 911.431,-60.3511 L 911.99,-60.9726
 L 912.667,-61.4641 L 913.431,-61.8042 L 914.667,-62 L 1001.89,-62 L 1002.72,-61.9126 L 1003.52,-61.6542
 L 1004.24,-61.2361 L 1004.86,-60.6765 L 1005.35,-60 L 1005.69,-59.2361 L 1005.87,-58.4181 L 1005.87,-57.5819
 L 1005.69,-56.7639 L 1005.35,-56 L 1004.86,-55.3235 L 1004.24,-54.7639 L 1003.31,-54.2612 L 916.088,-21.0956
 L 915.28,-20.8817 L 914.445,-20.8405 z
M 351.553,-20.8817 L 350.745,-21.0956 L 263.523,-54.2612 L 262.593,-54.7639 L 261.972,-55.3235 L 261.48,-56
 L 261.14,-56.7639 L 260.966,-57.5819 L 260.966,-58.4181 L 261.14,-59.2361 L 261.48,-60 L 261.972,-60.6765
 L 262.593,-61.2361 L 263.317,-61.6542 L 264.113,-61.9126 L 264.944,-62 L 352.167,-62 L 353.403,-61.8042
 L 354.167,-61.4641 L 354.843,-60.9726 L 355.403,-60.3511 L 355.821,-59.627 L 356.079,-58.8316 L 356.167,-58
 L 356.167,-24.8344 L 356.034,-23.8113 L 355.736,-23.0297 L 355.283,-22.3269 L 354.694,-21.7338 L 353.994,-21.2761
 L 353.214,-20.974 L 352.389,-20.8405 z
M 172.72,-20.8817 L 171.912,-21.0956 L 84.6894,-54.2612 L 83.7599,-54.7639 L 83.1384,-55.3235 L 82.6469,-56
 L 82.3068,-56.7639 L 82.1329,-57.5819 L 82.1329,-58.4181 L 82.3068,-59.2361 L 82.6469,-60 L 83.1384,-60.6765
 L 83.7599,-61.2361 L 84.4841,-61.6542 L 85.2794,-61.9126 L 86.111,-62 L 173.333,-62 L 174.569,-61.8042
 L 175.333,-61.4641 L 176.01,-60.9726 L 176.569,-60.3511 L 176.988,-59.627 L 177.246,-58.8316 L 177.333,-58
 L 177.333,-24.8344 L 177.2,-23.8113 L 176.903,-23.0297 L 176.45,-22.3269 L 175.86,-21.7338 L 175.161,-21.2761
 L 174.381,-20.974 L 173.555,-20.8405 z
M 530.387,-20.8817 L 529.578,-21.0956 L 442.356,-54.2612 L 441.427,-54.7639 L 440.805,-55.3235 L 440.314,-56
 L 439.973,-56.7639 L 439.8,-57.5819 L 439.8,-58.4181 L 439.973,-59.2361 L 440.314,-60 L 440.805,-60.6765
 L 441.427,-61.2361 L 442.151,-61.6542 L 442.946,-61.9126 L 443.778,-62 L 531,-62 L 532.236,-61.8042
 L 533,-61.4641 L 533.677,-60.9726 L 534.236,-60.3511 L 534.654,-59.627 L 534.913,-58.8316 L 535,-58
 L 535,-24.8344 L 534.867,-23.8113 L 534.57,-23.0297 L 534.117,-22.3269 L 533.527,-21.7338 L 532.827,-21.2761
 L 532.047,-20.974 L 531.222,-20.8405 z
M 555.953,-20.974 L 555.173,-21.2761 L 554.473,-21.7338 L 553.883,-22.3269 L 553.43,-23.0297 L 553.133,-23.8113
 L 553,-24.8344 L 553,-58 L 553.087,-58.8316 L 553.346,-59.627 L 553.764,-60.3511 L 554.323,-60.9726
 L 555,-61.4641 L 555.764,-61.8042 L 557,-62 L 644.222,-62 L 645.054,-61.9126 L 645.849,-61.6542
 L 646.573,-61.2361 L 647.195,-60.6765 L 647.686,-60 L 648.027,-59.2361 L 648.2,-58.4181 L 648.2,-57.5819
 L 648.027,-56.7639 L 647.686,-56 L 647.195,-55.3235 L 646.573,-54.7639 L 645.644,-54.2612 L 558.422,-21.0956
 L 557.613,-20.8817 L 556.778,-20.8405 z
M 734.786,-20.974 L 734.006,-21.2761 L 733.306,-21.7338 L 732.717,-22.3269 L 732.264,-23.0297 L 731.966,-23.8113
 L 731.833,-24.8344 L 731.833,-58 L 731.921,-58.8316 L 732.179,-59.627 L 732.597,-60.3511 L 733.157,-60.9726
 L 733.833,-61.4641 L 734.597,-61.8042 L 735.833,-62 L 823.056,-62 L 823.887,-61.9126 L 824.683,-61.6542
 L 825.407,-61.2361 L 826.028,-60.6765 L 826.52,-60 L 826.86,-59.2361 L 827.034,-58.4181 L 827.034,-57.5819
 L 826.86,-56.7639 L 826.52,-56 L 826.028,-55.3235 L 825.407,-54.7639 L 824.477,-54.2612 L 737.255,-21.0956
 L 736.447,-20.8817 L 735.611,-20.8405 z
M 199.333,-18 L 198.097,-18.1958 L 197.333,-18.5359 L 196.657,-19.0274 L 196.097,-19.6489 L 195.679,-20.373
 L 195.421,-21.1684 L 195.333,-22 L 195.333,-55.1656 L 195.466,-56.1887 L 195.764,-56.9703 L 196.217,-57.673
 L 196.806,-58.2662 L 197.506,-58.7239 L 198.286,-59.026 L 199.111,-59.1594 L 199.947,-59.1183 L 200.755,-58.9044
 L 287.977,-25.7388 L 288.907,-25.2361 L 289.528,-24.6765 L 290.02,-24 L 290.36,-23.2361 L 290.534,-22.4181
 L 290.534,-21.5819 L 290.36,-20.7639 L 290.02,-20 L 289.528,-19.3235 L 288.907,-18.7639 L 288.183,-18.3458
 L 287.387,-18.0874 L 286.556,-18 z
M 378.167,-18 L 376.931,-18.1958 L 376.167,-18.5359 L 375.49,-19.0274 L 374.931,-19.6489 L 374.512,-20.373
 L 374.254,-21.1684 L 374.167,-22 L 374.167,-55.1656 L 374.3,-56.1887 L 374.597,-56.9703 L 375.05,-57.673
 L 375.64,-58.2662 L 376.339,-58.7239 L 377.119,-59.026 L 377.945,-59.1594 L 378.78,-59.1183 L 379.588,-58.9044
 L 466.811,-25.7388 L 467.74,-25.2361 L 468.362,-24.6765 L 468.853,-24 L 469.193,-23.2361 L 469.367,-22.4181
 L 469.367,-21.5819 L 469.193,-20.7639 L 468.853,-20 L 468.362,-19.3235 L 467.74,-18.7639 L 467.016,-18.3458
 L 466.221,-18.0874 L 465.389,-18 z
M 622.611,-18 L 621.779,-18.0874 L 620.984,-18.3458 L 620.26,-18.7639 L 619.638,-19.3235 L 619.147,-20
 L 618.807,-20.7639 L 618.633,-21.5819 L 618.633,-22.4181 L 618.807,-23.2361 L 619.147,-24 L 619.638,-24.6765
 L 620.26,-25.2361 L 621.189,-25.7388 L 708.412,-58.9044 L 709.22,-59.1183 L 710.055,-59.1594 L 710.881,-59.026
 L 711.661,-58.7239 L 712.36,-58.2662 L 712.95,-57.673 L 713.403,-56.9703 L 713.7,-56.1887 L 713.833,-55.1656
 L 713.833,-22 L 713.746,-21.1684 L 713.488,-20.373 L 713.069,-19.6489 L 712.51,-19.0274 L 711.833,-18.5359
 L 711.069,-18.1958 L 709.833,-18 z
M 801.444,-18 L 800.613,-18.0874 L 799.817,-18.3458 L 799.093,-18.7639 L 798.472,-19.3235 L 797.98,-20
 L 797.64,-20.7639 L 797.466,-21.5819 L 797.466,-22.4181 L 797.64,-23.2361 L 797.98,-24 L 798.472,-24.6765
 L 799.093,-25.2361 L 800.023,-25.7388 L 887.245,-58.9044 L 888.053,-59.1183 L 888.889,-59.1594 L 889.714,-59.026
 L 890.494,-58.7239 L 891.194,-58.2662 L 891.783,-57.673 L 892.236,-56.9703 L 892.534,-56.1887 L 892.667,-55.1656
 L 892.667,-22 L 892.579,-21.1684 L 892.321,-20.373 L 891.903,-19.6489 L 891.343,-19.0274 L 890.667,-18.5359
 L 889.903,-18.1958 L 888.667,-18 z
M 980.278,-18 L 979.446,-18.0874 L 978.651,-18.3458 L 977.927,-18.7639 L 977.305,-19.3235 L 976.814,-20
 L 976.473,-20.7639 L 976.3,-21.5819 L 976.3,-22.4181 L 976.473,-23.2361 L 976.814,-24 L 977.305,-24.6765
 L 977.927,-25.2361 L 978.856,-25.7388 L 1064.58,-58.3341 L 1065.39,-58.5479 L 1066.22,-58.5891 L 1067.05,-58.4556
 L 1067.83,-58.1535 L 1068.53,-57.6958 L 1069.12,-57.1027 L 1069.57,-56.3999 L 1069.87,-55.6183 L 1070,-54.5952
 L 1070,-22 L 1069.91,-21.1684 L 1069.65,-20.373 L 1069.24,-19.6489 L 1068.68,-19.0274 L 1068,-18.5359
 L 1067.24,-18.1958 L 1066,-18 z
M 22,-18 L 20.7639,-18.1958 L 20,-18.5359 L 19.3235,-19.0274 L 18.7639,-19.6489 L 18.3458,-20.373
 L 18.0874,-21.1684 L 18,-22 L 18,-54.5952 L 18.133,-55.6183 L 18.4303,-56.3999 L 18.8835,-57.1027
 L 19.4729,-57.6958 L 20.1728,-58.1535 L 20.9525,-58.4556 L 21.778,-58.5891 L 22.6133,-58.5479 L 23.4217,-58.3341
 L 109.144,-25.7388 L 110.073,-25.2361 L 110.695,-24.6765 L 111.186,-24 L 111.527,-23.2361 L 111.7,-22.4181
 L 111.7,-21.5819 L 111.527,-20.7639 L 111.186,-20 L 110.695,-19.3235 L 110.073,-18.7639 L 109.349,-18.3458
 L 108.554,-18.0874 L 107.722,-18 z
" stroke="black" fill="lightgray" stroke-width="0.5"/>
</svg>
