<?xml version="1.0" standalone="no"?>
<!DOCTYPE svg PUBLIC "-//W3C//DTD SVG 1.1//EN" "http://www.w3.org/Graphics/SVG/1.1/DTD/svg11.dtd">
<svg width="1048mm" height="80mm" viewBox="0 -80 1048 80" xmlns="http://www.w3.org/2000/svg" version="1.1">
<title>OpenSCAD Model</title>
<path d="
M 1048,-80 L 0,-80 L 0,-0 L 4.95,-0 L 4.95,-6 L 5.00572,-6.53017
 L 5.17046,-7.03717 L 5.437,-7.49884 L 5.79372,-7.895 L 6.22499,-8.20836 L 6.71201,-8.42519 L 7.23344,-8.53603
 L 7.76654,-8.53603 L 8.28798,-8.42519 L 8.77499,-8.20836 L 9.20627,-7.895 L 9.56299,-7.49884 L 9.82953,-7.03717
 L 9.99426,-6.53017 L 10.05,-6 L 10.05,-0 L 177.117,-0 L 177.117,-6 L 177.172,-6.53017
 L 177.337,-7.03717 L 177.604,-7.49884 L 177.96,-7.895 L 178.392,-8.20836 L 178.879,-8.42519 L 179.4,-8.53603
 L 179.933,-8.53603 L 180.455,-8.42519 L 180.942,-8.20836 L 181.373,-7.895 L 181.73,-7.49884 L 181.996,-7.03717
 L 182.161,-6.53017 L 182.217,-6 L 182.217,-0 L 349.283,-0 L 349.283,-6 L 349.339,-6.53017
 L 349.504,-7.03717 L 349.77,-7.49884 L 350.127,-7.895 L 350.558,-8.20836 L 351.045,-8.42519 L 351.567,-8.53603
 L 352.1,-8.53603 L 352.621,-8.42519 L 353.108,-8.20836 L 353.54,-7.895 L 353.896,-7.49884 L 354.163,-7.03717
 L 354.328,-6.53017 L 354.383,-6 L 354.383,-0 L 521.45,-0 L 521.45,-6 L 521.506,-6.53017
 L 521.67,-7.03717 L 521.937,-7.49884 L 522.294,-7.895 L 522.725,-8.20836 L 523.212,-8.42519 L 523.733,-8.53603
 L 524.267,-8.53603 L 524.788,-8.42519 L 525.275,-8.20836 L 525.706,-7.895 L 526.063,-7.49884 L 526.33,-7.03717
 L 526.494,-6.53017 L 526.55,-6 L 526.55,-0 L 693.617,-0 L 693.617,-6 L 693.672,-6.53017
 L 693.837,-7.03717 L 694.104,-7.49884 L 694.46,-7.895 L 694.892,-8.20836 L 695.379,-8.42519 L 695.9,-8.53603
 L 696.433,-8.53603 L 696.955,-8.42519 L 697.442,-8.20836 L 697.873,-7.895 L 698.23,-7.49884 L 698.496,-7.03717
 L 698.661,-6.53017 L 698.717,-6 L 698.717,-0 L 865.783,-0 L 865.783,-6 L 865.839,-6.53017
 L 866.004,-7.03717 L 866.27,-7.49884 L 866.627,-7.895 L 867.058,-8.20836 L 867.545,-8.42519 L 868.067,-8.53603
 L 868.6,-8.53603 L 869.121,-8.42519 L 869.608,-8.20836 L 870.04,-7.895 L 870.396,-7.49884 L 870.663,-7.03717
 L 870.828,-6.53017 L 870.883,-6 L 870.883,-0 L 1037.95,-0 L 1037.95,-6 L 1038.01,-6.53017
 L 1038.17,-7.03717 L 1038.44,-7.49884 L 1038.79,-7.895 L 1039.22,-8.20836 L 1039.71,-8.42519 L 1040.23,-8.53603
 L 1040.77,-8.53603 L 1041.29,-8.42519 L 1041.77,-8.20836 L 1042.21,-7.895 L 1042.56,-7.49884 L 1042.83,-7.03717
 L 1042.99,-6.53017 L 1043.05,-6 L 1043.05,-0 L 1048,-0 z
M 6.98573,-55.607 L 6.47708,-55.6875 L 5.97964,-55.8208 L 5.49887,-56.0054 L 5.04001,-56.2392 L 4.60811,-56.5196
 L 4.20789,-56.8437 L 3.84373,-57.2079 L 3.51964,-57.6081 L 3.23917,-58.04 L 3.00537,-58.4989 L 2.82082,-58.9796
 L 2.68752,-59.4771 L 2.60696,-59.9857 L 2.58,-60.5 L 2.60696,-61.0143 L 2.68752,-61.5229 L 2.82082,-62.0204
 L 3.00537,-62.5011 L 3.23917,-62.96 L 3.51964,-63.3919 L 3.84373,-63.7921 L 4.20789,-64.1563 L 4.60811,-64.4804
 L 4.95001,-64.7024 L 4.95001,-74 L 5.00574,-74.5302 L 5.17047,-75.0372 L 5.43701,-75.4988 L 5.79373,-75.895
 L 6.22501,-76.2084 L 6.71202,-76.4252 L 7.23346,-76.536 L 7.76654,-76.536 L 8.28798,-76.4252 L 8.77499,-76.2084
 L 9.20627,-75.895 L 9.56299,-75.4988 L 9.82953,-75.0372 L 9.99426,-74.5302 L 10.05,-74 L 10.05,-64.7024
 L 10.3919,-64.4804 L 10.7921,-64.1563 L 11.1563,-63.7921 L 11.4804,-63.3919 L 11.7608,-62.96 L 11.9946,-62.5011
 L 12.1792,-62.0204 L 12.3125,-61.5229 L 12.393,-61.0143 L 12.42,-60.5 L 12.393,-59.9857 L 12.3125,-59.4771
 L 12.1792,-58.9796 L 11.9946,-58.4989 L 11.7608,-58.04 L 11.4804,-57.6081 L 11.1563,-57.2079 L 10.7921,-56.8437
 L 10.3919,-56.5196 L 9.95999,-56.2392 L 9.50113,-56.0054 L 9.02036,-55.8208 L 8.52292,-55.6875 L 8.01427,-55.607
 L 7.5,-55.58 z
M 179.152,-55.607 L 178.644,-55.6875 L 178.146,-55.8208 L 177.666,-56.0054 L 177.207,-56.2392 L 176.775,-56.5196
 L 176.375,-56.8437 L 176.01,-57.2079 L 175.686,-57.6081 L 175.406,-58.04 L 175.172,-58.4989 L 174.987,-58.9796
 L 174.854,-59.4771 L 174.774,-59.9857 L 174.747,-60.5 L 174.774,-61.0143 L 174.854,-61.5229 L 174.987,-62.0204
 L 175.172,-62.5011 L 175.406,-62.96 L 175.686,-63.3919 L 176.01,-63.7921 L 176.375,-64.1563 L 176.775,-64.4804
 L 177.117,-64.7024 L 177.117,-74 L 177.172,-74.5302 L 177.337,-75.0372 L 177.604,-75.4988 L 177.96,-75.895
 L 178.392,-76.2084 L 178.879,-76.4252 L 179.4,-76.536 L 179.933,-76.536 L 180.455,-76.4252 L 180.942,-76.2084
 L 181.373,-75.895 L 181.73,-75.4988 L 181.996,-75.0372 L 182.161,-74.5302 L 182.217,-74 L 182.217,-64.7024
 L 182.559,-64.4804 L 182.959,-64.1563 L 183.323,-63.7921 L 183.647,-63.3919 L 183.927,-62.96 L 184.161,-62.5011
 L 184.346,-62.0204 L 184.479,-61.5229 L 184.56,-61.0143 L 184.587,-60.5 L 184.56,-59.9857 L 184.479,-59.4771
 L 184.346,-58.9796 L 184.161,-58.4989 L 183.927,-58.04 L 183.647,-57.6081 L 183.323,-57.2079 L 182.959,-56.8437
 L 182.559,-56.5196 L 182.127,-56.2392 L 181.668,-56.0054 L 181.187,-55.8208 L 180.69,-55.6875 L 180.181,-55.607
 L 179.667,-55.58 z
M 351.319,-55.607 L 350.81,-55.6875 L 350.313,-55.8208 L 349.832,-56.0054 L 349.373,-56.2392 L 348.941,-56.5196
 L 348.541,-56.8437 L 348.177,-57.2079 L 347.853,-57.6081 L 347.572,-58.04 L 347.339,-58.4989 L 347.154,-58.9796
 L 347.021,-59.4771 L 346.94,-59.9857 L 346.913,-60.5 L 346.94,-61.0143 L 347.021,-61.5229 L 347.154,-62.0204
 L 347.339,-62.5011 L 347.572,-62.96 L 347.853,-63.3919 L 348.177,-63.7921 L 348.541,-64.1563 L 348.941,-64.4804
 L 349.283,-64.7024 L 349.283,-74 L 349.339,-74.5302 L 349.504,-75.0372 L 349.77,-75.4988 L 350.127,-75.895
 L 350.558,-76.2084 L 351.045,-76.4252 L 351.567,-76.536 L 352.1,-76.536 L 352.621,-76.4252 L 353.108,-76.2084
 L 353.54,-75.895 L 353.896,-75.4988 L 354.163,-75.0372 L 354.328,-74.5302 L 354.383,-74 L 354.383,-64.7024
 L 354.725,-64.4804 L 355.125,-64.1563 L 355.49,-63.7921 L 355.814,-63.3919 L 356.094,-62.96 L 356.328,-62.5011
 L 356.513,-62.0204 L 356.646,-61.5229 L 356.726,-61.0143 L 356.753,-60.5 L 356.726,-59.9857 L 356.646,-59.4771
 L 356.513,-58.9796 L 356.328,-58.4989 L 356.094,-58.04 L 355.814,-57.6081 L 355.49,-57.2079 L 355.125,-56.8437
 L 354.725,-56.5196 L 354.293,-56.2392 L 353.834,-56.0054 L 353.354,-55.8208 L 352.856,-55.6875 L 352.348,-55.607
 L 351.833,-55.58 z
M 523.486,-55.607 L 522.977,-55.6875 L 522.48,-55.8208 L 521.999,-56.0054 L 521.54,-56.2392 L 521.108,-56.5196
 L 520.708,-56.8437 L 520.344,-57.2079 L 520.02,-57.6081 L 519.739,-58.04 L 519.505,-58.4989 L 519.321,-58.9796
 L 519.188,-59.4771 L 519.107,-59.9857 L 519.08,-60.5 L 519.107,-61.0143 L 519.188,-61.5229 L 519.321,-62.0204
 L 519.505,-62.5011 L 519.739,-62.96 L 520.02,-63.3919 L 520.344,-63.7921 L 520.708,-64.1563 L 521.108,-64.4804
 L 521.45,-64.7024 L 521.45,-74 L 521.506,-74.5302 L 521.67,-75.0372 L 521.937,-75.4988 L 522.294,-75.895
 L 522.725,-76.2084 L 523.212,-76.4252 L 523.733,-76.536 L 524.267,-76.536 L 524.788,-76.4252 L 525.275,-76.2084
 L 525.706,-75.895 L 526.063,-75.4988 L 526.33,-75.0372 L 526.494,-74.5302 L 526.55,-74 L 526.55,-64.7024
 L 526.892,-64.4804 L 527.292,-64.1563 L 527.656,-63.7921 L 527.98,-63.3919 L 528.261,-62.96 L 528.495,-62.5011
 L 528.679,-62.0204 L 528.812,-61.5229 L 528.893,-61.0143 L 528.92,-60.5 L 528.893,-59.9857 L 528.812,-59.4771
 L 528.679,-58.9796 L 528.495,-58.4989 L 528.261,-58.04 L 527.98,-57.6081 L 527.656,-57.2079 L 527.292,-56.8437
 L 526.892,-56.5196 L 526.46,-56.2392 L 526.001,-56.0054 L 525.52,-55.8208 L 525.023,-55.6875 L 524.514,-55.607
 L 524,-55.58 z
M 695.652,-55.607 L 695.144,-55.6875 L 694.646,-55.8208 L 694.166,-56.0054 L 693.707,-56.2392 L 693.275,-56.5196
 L 692.875,-56.8437 L 692.51,-57.2079 L 692.186,-57.6081 L 691.906,-58.04 L 691.672,-58.4989 L 691.487,-58.9796
 L 691.354,-59.4771 L 691.274,-59.9857 L 691.247,-60.5 L 691.274,-61.0143 L 691.354,-61.5229 L 691.487,-62.0204
 L 691.672,-62.5011 L 691.906,-62.96 L 692.186,-63.3919 L 692.51,-63.7921 L 692.875,-64.1563 L 693.275,-64.4804
 L 693.617,-64.7024 L 693.617,-74 L 693.672,-74.5302 L 693.837,-75.0372 L 694.104,-75.4988 L 694.46,-75.895
 L 694.892,-76.2084 L 695.379,-76.4252 L 695.9,-76.536 L 696.433,-76.536 L 696.955,-76.4252 L 697.442,-76.2084
 L 697.873,-75.895 L 698.23,-75.4988 L 698.496,-75.0372 L 698.661,-74.5302 L 698.717,-74 L 698.717,-64.7024
 L 699.059,-64.4804 L 699.459,-64.1563 L 699.823,-63.7921 L 700.147,-63.3919 L 700.427,-62.96 L 700.661,-62.5011
 L 700.846,-62.0204 L 700.979,-61.5229 L 701.06,-61.0143 L 701.087,-60.5 L 701.06,-59.9857 L 700.979,-59.4771
 L 700.846,-58.9796 L 700.661,-58.4989 L 700.427,-58.04 L 700.147,-57.6081 L 699.823,-57.2079 L 699.459,-56.8437
 L 699.059,-56.5196 L 698.627,-56.2392 L 698.168,-56.0054 L 697.687,-55.8208 L 697.19,-55.6875 L 696.681,-55.607
 L 696.167,-55.58 z
M 867.819,-55.607 L 867.31,-55.6875 L 866.813,-55.8208 L 866.332,-56.0054 L 865.873,-56.2392 L 865.441,-56.5196
 L 865.041,-56.8437 L 864.677,-57.2079 L 864.353,-57.6081 L 864.072,-58.04 L 863.839,-58.4989 L 863.654,-58.9796
 L 863.521,-59.4771 L 863.44,-59.9857 L 863.413,-60.5 L 863.44,-61.0143 L 863.521,-61.5229 L 863.654,-62.0204
 L 863.839,-62.5011 L 864.072,-62.96 L 864.353,-63.3919 L 864.677,-63.7921 L 865.041,-64.1563 L 865.441,-64.4804
 L 865.783,-64.7024 L 865.783,-74 L 865.839,-74.5302 L 866.004,-75.0372 L 866.27,-75.4988 L 866.627,-75.895
 L 867.058,-76.2084 L 867.545,-76.4252 L 868.067,-76.536 L 868.6,-76.536 L 869.121,-76.4252 L 869.608,-76.2084
 L 870.04,-75.895 L 870.396,-75.4988 L 870.663,-75.0372 L 870.828,-74.5302 L 870.883,-74 L 870.883,-64.7024
 L 871.225,-64.4804 L 871.625,-64.1563 L 871.99,-63.7921 L 872.314,-63.3919 L 872.594,-62.96 L 872.828,-62.5011
 L 873.013,-62.0204 L 873.146,-61.5229 L 873.226,-61.0143 L 873.253,-60.5 L 873.226,-59.9857 L 873.146,-59.4771
 L 873.013,-58.9796 L 872.828,-58.4989 L 872.594,-58.04 L 872.314,-57.6081 L 871.99,-57.2079 L 871.625,-56.8437
 L 871.225,-56.5196 L 870.793,-56.2392 L 870.334,-56.0054 L 869.854,-55.8208 L 869.356,-55.6875 L 868.848,-55.607
 L 868.333,-55.58 z
M 1039.99,-55.607 L 1039.48,-55.6875 L 1038.98,-55.8208 L 1038.5,-56.0054 L 1038.04,-56.2392 L 1037.61,-56.5196
 L 1037.21,-56.8437 L 1036.84,-57.2079 L 1036.52,-57.6081 L 1036.24,-58.04 L 1036.01,-58.4989 L 1035.82,-58.9796
 L 1035.69,-59.4771 L 1035.61,-59.9857 L 1035.58,-60.5 L 1035.61,-61.0143 L 1035.69,-61.5229 L 1035.82,-62.0204
 L 1036.01,-62.5011 L 1036.24,-62.96 L 1036.52,-63.3919 L 1036.84,-63.7921 L 1037.21,-64.1563 L 1037.61,-64.4804
 L 1037.95,-64.7024 L 1037.95,-74 L 1038.01,-74.5302 L 1038.17,-75.0372 L 1038.44,-75.4988 L 1038.79,-75.895
 L 1039.23,-76.2084 L 1039.71,-76.4252 L 1040.23,-76.536 L 1040.77,-76.536 L 1041.29,-76.4252 L 1041.77,-76.2084
 L 1042.21,-75.895 L 1042.56,-75.4988 L 1042.83,-75.0372 L 1042.99,-74.5302 L 1043.05,-74 L 1043.05,-64.7024
 L 1043.39,-64.4804 L 1043.79,-64.1563 L 1044.16,-63.7921 L 1044.48,-63.3919 L 1044.76,-62.96 L 1044.99,-62.5011
 L 1045.18,-62.0204 L 1045.31,-61.5229 L 1045.39,-61.0143 L 1045.42,-60.5 L 1045.39,-59.9857 L 1045.31,-59.4771
 L 1045.18,-58.9796 L 1044.99,-58.4989 L 1044.76,-58.04 L 1044.48,-57.6081 L 1044.16,-57.2079 L 1043.79,-56.8437
 L 1043.39,-56.5196 L 1042.96,-56.2392 L 1042.5,-56.0054 L 1042.02,-55.8208 L 1041.52,-55.6875 L 1041.01,-55.607
 L 1040.5,-55.58 z
M 880.335,-21.2256 L 879.552,-21.5177 L 878.846,-21.9664 L 878.249,-22.5519 L 877.787,-23.2488 L 877.48,-24.0266
 L 877.333,-25.0991 L 877.333,-58 L 877.421,-58.8316 L 877.679,-59.627 L 878.097,-60.3511 L 878.657,-60.9726
 L 879.333,-61.4641 L 880.097,-61.8042 L 881.333,-62 L 964.634,-62 L 965.466,-61.9126 L 966.261,-61.6542
 L 966.985,-61.2361 L 967.607,-60.6765 L 968.098,-60 L 968.438,-59.2361 L 968.612,-58.4181 L 968.612,-57.5819
 L 968.438,-56.7639 L 968.098,-56 L 967.607,-55.3235 L 966.985,-54.7639 L 966.103,-54.2797 L 882.803,-21.3787
 L 881.997,-21.1545 L 881.163,-21.1027 z
M 338.17,-21.1545 L 337.364,-21.3787 L 254.063,-54.2797 L 253.182,-54.7639 L 252.56,-55.3235 L 252.069,-56
 L 251.728,-56.7639 L 251.555,-57.5819 L 251.555,-58.4181 L 251.728,-59.2361 L 252.069,-60 L 252.56,-60.6765
 L 253.182,-61.2361 L 253.906,-61.6542 L 254.701,-61.9126 L 255.533,-62 L 338.833,-62 L 340.069,-61.8042
 L 340.833,-61.4641 L 341.51,-60.9726 L 342.069,-60.3511 L 342.487,-59.627 L 342.746,-58.8316 L 342.833,-58
 L 342.833,-25.0991 L 342.687,-24.0266 L 342.38,-23.2488 L 341.917,-22.5519 L 341.321,-21.9664 L 340.615,-21.5177
 L 339.831,-21.2256 L 339.004,-21.1027 z
M 166.003,-21.1545 L 165.197,-21.3787 L 81.8966,-54.2797 L 81.0148,-54.7639 L 80.3934,-55.3235 L 79.9019,-56
 L 79.5618,-56.7639 L 79.3879,-57.5819 L 79.3879,-58.4181 L 79.5618,-59.2361 L 79.9019,-60 L 80.3934,-60.6765
 L 81.0148,-61.2361 L 81.739,-61.6542 L 82.5343,-61.9126 L 83.366,-62 L 166.667,-62 L 167.903,-61.8042
 L 168.667,-61.4641 L 169.343,-60.9726 L 169.903,-60.3511 L 170.321,-59.627 L 170.579,-58.8316 L 170.667,-58
 L 170.667,-25.0991 L 170.52,-24.0266 L 170.213,-23.2488 L 169.751,-22.5519 L 169.154,-21.9664 L 168.448,-21.5177
 L 167.665,-21.2256 L 166.837,-21.1027 z
M 510.336,-21.1545 L 509.531,-21.3787 L 426.23,-54.2797 L 425.348,-54.7639 L 424.727,-55.3235 L 424.235,-56
 L 423.895,-56.7639 L 423.721,-57.5819 L 423.721,-58.4181 L 423.895,-59.2361 L 424.235,-60 L 424.727,-60.6765
 L 425.348,-61.2361 L 426.072,-61.6542 L 426.868,-61.9126 L 427.699,-62 L 511,-62 L 512.236,-61.8042
 L 513,-61.4641 L 513.677,-60.9726 L 514.236,-60.3511 L 514.654,-59.627 L 514.913,-58.8316 L 515,-58
 L 515,-25.0991 L 514.854,-24.0266 L 514.546,-23.2488 L 514.084,-22.5519 L 513.487,-21.9664 L 512.782,-21.5177
 L 511.998,-21.2256 L 511.171,-21.1027 z
M 536.002,-21.2256 L 535.218,-21.5177 L 534.513,-21.9664 L 533.916,-22.5519 L 533.454,-23.2488 L 533.146,-24.0266
 L 533,-25.0991 L 533,-58 L 533.087,-58.8316 L 533.346,-59.627 L 533.764,-60.3511 L 534.323,-60.9726
 L 535,-61.4641 L 535.764,-61.8042 L 537,-62 L 620.301,-62 L 621.132,-61.9126 L 621.928,-61.6542
 L 622.652,-61.2361 L 623.273,-60.6765 L 623.765,-60 L 624.105,-59.2361 L 624.279,-58.4181 L 624.279,-57.5819
 L 624.105,-56.7639 L 623.765,-56 L 623.273,-55.3235 L 622.652,-54.7639 L 621.77,-54.2797 L 538.469,-21.3787
 L 537.664,-21.1545 L 536.829,-21.1027 z
M 708.169,-21.2256 L 707.385,-21.5177 L 706.679,-21.9664 L 706.083,-22.5519 L 705.62,-23.2488 L 705.313,-24.0266
 L 705.167,-25.0991 L 705.167,-58 L 705.254,-58.8316 L 705.512,-59.627 L 705.931,-60.3511 L 706.49,-60.9726
 L 707.167,-61.4641 L 707.931,-61.8042 L 709.167,-62 L 792.467,-62 L 793.299,-61.9126 L 794.094,-61.6542
 L 794.818,-61.2361 L 795.44,-60.6765 L 795.931,-60 L 796.272,-59.2361 L 796.445,-58.4181 L 796.445,-57.5819
 L 796.272,-56.7639 L 795.931,-56 L 795.44,-55.3235 L 794.818,-54.7639 L 793.937,-54.2797 L 710.636,-21.3787
 L 709.83,-21.1545 L 708.996,-21.1027 z
M 192.667,-18 L 191.431,-18.1958 L 190.667,-18.5359 L 189.99,-19.0274 L 189.431,-19.6489 L 189.012,-20.373
 L 188.754,-21.1684 L 188.667,-22 L 188.667,-54.9009 L 188.813,-55.9734 L 189.12,-56.7512 L 189.582,-57.4481
 L 190.179,-58.0336 L 190.885,-58.4823 L 191.669,-58.7744 L 192.496,-58.8973 L 193.33,-58.8455 L 194.136,-58.6213
 L 277.437,-25.7203 L 278.318,-25.2361 L 278.94,-24.6765 L 279.431,-24 L 279.772,-23.2361 L 279.945,-22.4181
 L 279.945,-21.5819 L 279.772,-20.7639 L 279.431,-20 L 278.94,-19.3235 L 278.318,-18.7639 L 277.594,-18.3458
 L 276.799,-18.0874 L 275.967,-18 z
M 364.833,-18 L 363.597,-18.1958 L 362.833,-18.5359 L 362.157,-19.0274 L 361.597,-19.6489 L 361.179,-20.373
 L 360.921,-21.1684 L 360.833,-22 L 360.833,-54.9009 L 360.98,-55.9734 L 361.287,-56.7512 L 361.749,-57.4481
 L 362.346,-58.0336 L 363.052,-58.4823 L 363.835,-58.7744 L 364.663,-58.8973 L 365.497,-58.8455 L 366.303,-58.6213
 L 449.603,-25.7203 L 450.485,-25.2361 L 451.107,-24.6765 L 451.598,-24 L 451.938,-23.2361 L 452.112,-22.4181
 L 452.112,-21.5819 L 451.938,-20.7639 L 451.598,-20 L 451.107,-19.3235 L 450.485,-18.7639 L 449.761,-18.3458
 L 448.966,-18.0874 L 448.134,-18 z
M 599.866,-18 L 599.034,-18.0874 L 598.239,-18.3458 L 597.515,-18.7639 L 596.893,-19.3235 L 596.402,-20
 L 596.062,-20.7639 L 595.888,-21.5819 L 595.888,-22.4181 L 596.062,-23.2361 L 596.402,-24 L 596.893,-24.6765
 L 597.515,-25.2361 L 598.397,-25.7203 L 681.697,-58.6213 L 682.503,-58.8455 L 683.337,-58.8973 L 684.165,-58.7744
 L 684.948,-58.4823 L 685.654,-58.0336 L 686.251,-57.4481 L 686.713,-56.7512 L 687.02,-55.9734 L 687.167,-54.9009
 L 687.167,-22 L 687.079,-21.1684 L 686.821,-20.373 L 686.403,-19.6489 L 685.843,-19.0274 L 685.167,-18.5359
 L 684.403,-18.1958 L 683.167,-18 z
M 772.033,-18 L 771.201,-18.0874 L 770.406,-18.3458 L 769.682,-18.7639 L 769.06,-19.3235 L 768.569,-20
 L 768.228,-20.7639 L 768.055,-21.5819 L 768.055,-22.4181 L 768.228,-23.2361 L 768.569,-24 L 769.06,-24.6765
 L 769.682,-25.2361 L 770.563,-25.7203 L 853.864,-58.6213 L 854.67,-58.8455 L 855.504,-58.8973 L 856.331,-58.7744
 L 857.115,-58.4823 L 857.821,-58.0336 L 858.417,-57.4481 L 858.88,-56.7512 L 859.187,-55.9734 L 859.333,-54.9009
 L 859.333,-22 L 859.246,-21.1684 L 858.988,-20.373 L 858.569,-19.6489 L 858.01,-19.0274 L 857.333,-18.5359
 L 856.569,-18.1958 L 855.333,-18 z
M 944.199,-18 L 943.368,-18.0874 L 942.572,-18.3458 L 941.848,-18.7639 L 941.227,-19.3235 L 940.735,-20
 L 940.395,-20.7639 L 940.221,-21.5819 L 940.221,-22.4181 L 940.395,-23.2361 L 940.735,-24 L 941.227,-24.6765
 L 941.848,-25.2361 L 942.73,-25.7203 L 1024.53,-58.0288 L 1025.34,-58.253 L 1026.17,-58.3048 L 1027,-58.182
 L 1027.78,-57.8898 L 1028.49,-57.4412 L 1029.08,-56.8556 L 1029.55,-56.1587 L 1029.85,-55.381 L 1030,-54.3085
 L 1030,-22 L 1029.91,-21.1684 L 1029.65,-20.373 L 1029.24,-19.6489 L 1028.68,-19.0274 L 1028,-18.5359
 L 1027.24,-18.1958 L 1026,-18 z
M 22,-18 L 20.7639,-18.1958 L 20,-18.5359 L 19.3235,-19.0274 L 18.7639,-19.6489 L 18.3458,-20.373
 L 18.0874,-21.1684 L 18,-22 L 18,-54.3085 L 18.1465,-55.381 L 18.4536,-56.1587 L 18.9158,-56.8556
 L 19.5128,-57.4412 L 20.2185,-57.8898 L 21.002,-58.182 L 21.8292,-58.3048 L 22.6638,-58.253 L 23.4694,-58.0288
 L 105.27,-25.7203 L 106.152,-25.2361 L 106.773,-24.6765 L 107.265,-24 L 107.605,-23.2361 L 107.779,-22.4181
 L 107.779,-21.5819 L 107.605,-20.7639 L 107.265,-20 L 106.773,-19.3235 L 106.152,-18.7639 L 105.428,-18.3458
 L 104.632,-18.0874 L 103.801,-18 z
" stroke="black" fill="lightgray" stroke-width="0.5"/>
</svg>
