<?xml version="1.0" standalone="no"?>
<!DOCTYPE svg PUBLIC "-//W3C//DTD SVG 1.1//EN" "http://www.w3.org/Graphics/SVG/1.1/DTD/svg11.dtd">
<svg width="1609mm" height="80mm" viewBox="0 -80 1609 80" xmlns="http://www.w3.org/2000/svg" version="1.1">
<title>OpenSCAD Model</title>
<path d="
M 1609,-80 L 0,-80 L 0,-0 L 4.95,-0 L 4.95,-6 L 5.00572,-6.53017
 L 5.17046,-7.03717 L 5.437,-7.49884 L 5.79372,-7.895 L 6.22499,-8.20836 L 6.71201,-8.42519 L 7.23344,-8.53603
 L 7.76654,-8.53603 L 8.28798,-8.42519 L 8.77499,-8.20836 L 9.20627,-7.895 L 9.56299,-7.49884 L 9.82953,-7.03717
 L 9.99426,-6.53017 L 10.05,-6 L 10.05,-0 L 182.061,-0 L 182.061,-6 L 182.117,-6.53017
 L 182.282,-7.03717 L 182.548,-7.49884 L 182.905,-7.895 L 183.336,-8.20836 L 183.823,-8.42519 L 184.345,-8.53603
 L 184.878,-8.53603 L 185.399,-8.42519 L 185.886,-8.20836 L 186.317,-7.895 L 186.674,-7.49884 L 186.941,-7.03717
 L 187.105,-6.53017 L 187.161,-6 L 187.161,-0 L 359.172,-0 L 359.172,-6 L 359.228,-6.53017
 L 359.393,-7.03717 L 359.659,-7.49884 L 360.016,-7.895 L 360.447,-8.20836 L 360.934,-8.42519 L 361.456,-8.53603
 L 361.989,-8.53603 L 362.51,-8.42519 L 362.997,-8.20836 L 363.428,-7.895 L 363.785,-7.49884 L 364.052,-7.03717
 L 364.216,-6.53017 L 364.272,-6 L 364.272,-0 L 536.283,-0 L 536.283,-6 L 536.339,-6.53017
 L 536.504,-7.03717 L 536.77,-7.49884 L 537.127,-7.895 L 537.558,-8.20836 L 538.045,-8.42519 L 538.567,-8.53603
 L 539.1,-8.53603 L 539.621,-8.42519 L 540.108,-8.20836 L 540.54,-7.895 L 540.896,-7.49884 L 541.163,-7.03717
 L 541.328,-6.53017 L 541.383,-6 L 541.383,-0 L 713.394,-0 L 713.394,-6 L 713.45,-6.53017
 L 713.615,-7.03717 L 713.881,-7.49884 L 714.238,-7.895 L 714.669,-8.20836 L 715.156,-8.42519 L 715.678,-8.53603
 L 716.211,-8.53603 L 716.732,-8.42519 L 717.219,-8.20836 L 717.651,-7.895 L 718.007,-7.49884 L 718.274,-7.03717
 L 718.439,-6.53017 L 718.494,-6 L 718.494,-0 L 890.506,-0 L 890.506,-6 L 890.561,-6.53017
 L 890.726,-7.03717 L 890.993,-7.49884 L 891.349,-7.895 L 891.781,-8.20836 L 892.268,-8.42519 L 892.789,-8.53603
 L 893.322,-8.53603 L 893.844,-8.42519 L 894.331,-8.20836 L 894.762,-7.895 L 895.119,-7.49884 L 895.385,-7.03717
 L 895.55,-6.53017 L 895.606,-6 L 895.606,-0 L 1067.62,-0 L 1067.62,-6 L 1067.67,-6.53017
 L 1067.84,-7.03717 L 1068.1,-7.49884 L 1068.46,-7.895 L 1068.89,-8.20836 L 1069.38,-8.42519 L 1069.9,-8.53603
 L 1070.43,-8.53603 L 1070.95,-8.42519 L 1071.44,-8.20836 L 1071.87,-7.895 L 1072.23,-7.49884 L 1072.5,-7.03717
 L 1072.66,-6.53017 L 1072.72,-6 L 1072.72,-0 L 1244.73,-0 L 1244.73,-6 L 1244.78,-6.53017
 L 1244.95,-7.03717 L 1245.21,-7.49884 L 1245.57,-7.895 L 1246,-8.20836 L 1246.49,-8.42519 L 1247.01,-8.53603
 L 1247.54,-8.53603 L 1248.07,-8.42519 L 1248.55,-8.20836 L 1248.98,-7.895 L 1249.34,-7.49884 L 1249.61,-7.03717
 L 1249.77,-6.53017 L 1249.83,-6 L 1249.83,-0 L 1421.84,-0 L 1421.84,-6 L 1421.89,-6.53017
 L 1422.06,-7.03717 L 1422.33,-7.49884 L 1422.68,-7.895 L 1423.11,-8.20836 L 1423.6,-8.42519 L 1424.12,-8.53603
 L 1424.66,-8.53603 L 1425.18,-8.42519 L 1425.66,-8.20836 L 1426.1,-7.895 L 1426.45,-7.49884 L 1426.72,-7.03717
 L 1426.88,-6.53017 L 1426.94,-6 L 1426.94,-0 L 1598.95,-0 L 1598.95,-6 L 1599.01,-6.53017
 L 1599.17,-7.03717 L 1599.44,-7.49884 L 1599.79,-7.895 L 1600.22,-8.20836 L 1600.71,-8.42519 L 1601.23,-8.53603
 L 1601.77,-8.53603 L 1602.29,-8.42519 L 1602.77,-8.20836 L 1603.21,-7.895 L 1603.56,-7.49884 L 1603.83,-7.03717
 L 1603.99,-6.53017 L 1604.05,-6 L 1604.05,-0 L 1609,-0 z
M 6.98573,-55.607 L 6.47708,-55.6875 L 5.97964,-55.8208 L 5.49887,-56.0054 L 5.04001,-56.2392 L 4.60811,-56.5196
 L 4.20789,-56.8437 L 3.84373,-57.2079 L 3.51964,-57.6081 L 3.23917,-58.04 L 3.00537,-58.4989 L 2.82082,-58.9796
 L 2.68752,-59.4771 L 2.60696,-59.9857 L 2.58,-60.5 L 2.60696,-61.0143 L 2.68752,-61.5229 L 2.82082,-62.0204
 L 3.00537,-62.5011 L 3.23917,-62.96 L 3.51964,-63.3919 L 3.84373,-63.7921 L 4.20789,-64.1563 L 4.60811,-64.4804
 L 4.95001,-64.7024 L 4.95001,-74 L 5.00574,-74.5302 L 5.17047,-75.0372 L 5.43701,-75.4988 L 5.79373,-75.895
 L 6.22501,-76.2084 L 6.71202,-76.4252 L 7.23346,-76.536 L 7.76654,-76.536 L 8.28798,-76.4252 L 8.77499,-76.2084
 L 9.20627,-75.895 L 9.56299,-75.4988 L 9.82953,-75.0372 L 9.99426,-74.5302 L 10.05,-74 L 10.05,-64.7024
 L 10.3919,-64.4804 L 10.7921,-64.1563 L 11.1563,-63.7921 L 11.4804,-63.3919 L 11.7608,-62.96 L 11.9946,-62.5011
 L 12.1792,-62.0204 L 12.3125,-61.5229 L 12.393,-61.0143 L 12.42,-60.5 L 12.393,-59.9857 L 12.3125,-59.4771
 L 12.1792,-58.9796 L 11.9946,-58.4989 L 11.7608,-58.04 L 11.4804,-57.6081 L 11.1563,-57.2079 L 10.7921,-56.8437
 L 10.3919,-56.5196 L 9.95999,-56.2392 L 9.50113,-56.0054 L 9.02036,-55.8208 L 8.52292,-55.6875 L 8.01427,-55.607
 L 7.5,-55.58 z
M 1069.65,-55.607 L 1069.14,-55.6875 L 1068.65,-55.8208 L 1068.17,-56.0054 L 1067.71,-56.2392 L 1067.27,-56.5196
 L 1066.87,-56.8437 L 1066.51,-57.2079 L 1066.19,-57.6081 L 1065.91,-58.04 L 1065.67,-58.4989 L 1065.49,-58.9796
 L 1065.35,-59.4771 L 1065.27,-59.9857 L 1065.25,-60.5 L 1065.27,-61.0143 L 1065.35,-61.5229 L 1065.49,-62.0204
 L 1065.67,-62.5011 L 1065.91,-62.96 L 1066.19,-63.3919 L 1066.51,-63.7921 L 1066.87,-64.1563 L 1067.27,-64.4804
 L 1067.62,-64.7024 L 1067.62,-74 L 1067.67,-74.5302 L 1067.84,-75.0372 L 1068.1,-75.4988 L 1068.46,-75.895
 L 1068.89,-76.2084 L 1069.38,-76.4252 L 1069.9,-76.536 L 1070.43,-76.536 L 1070.95,-76.4252 L 1071.44,-76.2084
 L 1071.87,-75.895 L 1072.23,-75.4988 L 1072.5,-75.0372 L 1072.66,-74.5302 L 1072.72,-74 L 1072.72,-64.7024
 L 1073.06,-64.4804 L 1073.46,-64.1563 L 1073.82,-63.7921 L 1074.15,-63.3919 L 1074.43,-62.96 L 1074.66,-62.5011
 L 1074.85,-62.0204 L 1074.98,-61.5229 L 1075.06,-61.0143 L 1075.09,-60.5 L 1075.06,-59.9857 L 1074.98,-59.4771
 L 1074.85,-58.9796 L 1074.66,-58.4989 L 1074.43,-58.04 L 1074.15,-57.6081 L 1073.82,-57.2079 L 1073.46,-56.8437
 L 1073.06,-56.5196 L 1072.63,-56.2392 L 1072.17,-56.0054 L 1071.69,-55.8208 L 1071.19,-55.6875 L 1070.68,-55.607
 L 1070.17,-55.58 z
M 1246.76,-55.607 L 1246.25,-55.6875 L 1245.76,-55.8208 L 1245.28,-56.0054 L 1244.82,-56.2392 L 1244.39,-56.5196
 L 1243.99,-56.8437 L 1243.62,-57.2079 L 1243.3,-57.6081 L 1243.02,-58.04 L 1242.78,-58.4989 L 1242.6,-58.9796
 L 1242.47,-59.4771 L 1242.38,-59.9857 L 1242.36,-60.5 L 1242.38,-61.0143 L 1242.47,-61.5229 L 1242.6,-62.0204
 L 1242.78,-62.5011 L 1243.02,-62.96 L 1243.3,-63.3919 L 1243.62,-63.7921 L 1243.99,-64.1563 L 1244.39,-64.4804
 L 1244.73,-64.7024 L 1244.73,-74 L 1244.78,-74.5302 L 1244.95,-75.0372 L 1245.21,-75.4988 L 1245.57,-75.895
 L 1246,-76.2084 L 1246.49,-76.4252 L 1247.01,-76.536 L 1247.54,-76.536 L 1248.07,-76.4252 L 1248.55,-76.2084
 L 1248.98,-75.895 L 1249.34,-75.4988 L 1249.61,-75.0372 L 1249.77,-74.5302 L 1249.83,-74 L 1249.83,-64.7024
 L 1250.17,-64.4804 L 1250.57,-64.1563 L 1250.93,-63.7921 L 1251.26,-63.3919 L 1251.54,-62.96 L 1251.77,-62.5011
 L 1251.96,-62.0204 L 1252.09,-61.5229 L 1252.17,-61.0143 L 1252.2,-60.5 L 1252.17,-59.9857 L 1252.09,-59.4771
 L 1251.96,-58.9796 L 1251.77,-58.4989 L 1251.54,-58.04 L 1251.26,-57.6081 L 1250.93,-57.2079 L 1250.57,-56.8437
 L 1250.17,-56.5196 L 1249.74,-56.2392 L 1249.28,-56.0054 L 1248.8,-55.8208 L 1248.3,-55.6875 L 1247.79,-55.607
 L 1247.28,-55.58 z
M 892.541,-55.607 L 892.033,-55.6875 L 891.535,-55.8208 L 891.054,-56.0054 L 890.596,-56.2392 L 890.164,-56.5196
 L 889.763,-56.8437 L 889.399,-57.2079 L 889.075,-57.6081 L 888.795,-58.04 L 888.561,-58.4989 L 888.376,-58.9796
 L 888.243,-59.4771 L 888.163,-59.9857 L 888.136,-60.5 L 888.163,-61.0143 L 888.243,-61.5229 L 888.376,-62.0204
 L 888.561,-62.5011 L 888.795,-62.96 L 889.075,-63.3919 L 889.399,-63.7921 L 889.763,-64.1563 L 890.164,-64.4804
 L 890.506,-64.7024 L 890.506,-74 L 890.561,-74.5302 L 890.726,-75.0372 L 890.993,-75.4988 L 891.349,-75.895
 L 891.781,-76.2084 L 892.268,-76.4252 L 892.789,-76.536 L 893.322,-76.536 L 893.844,-76.4252 L 894.331,-76.2084
 L 894.762,-75.895 L 895.119,-75.4988 L 895.385,-75.0372 L 895.55,-74.5302 L 895.606,-74 L 895.606,-64.7024
 L 895.947,-64.4804 L 896.348,-64.1563 L 896.712,-63.7921 L 897.036,-63.3919 L 897.316,-62.96 L 897.55,-62.5011
 L 897.735,-62.0204 L 897.868,-61.5229 L 897.949,-61.0143 L 897.976,-60.5 L 897.949,-59.9857 L 897.868,-59.4771
 L 897.735,-58.9796 L 897.55,-58.4989 L 897.316,-58.04 L 897.036,-57.6081 L 896.712,-57.2079 L 896.348,-56.8437
 L 895.947,-56.5196 L 895.516,-56.2392 L 895.057,-56.0054 L 894.576,-55.8208 L 894.078,-55.6875 L 893.57,-55.607
 L 893.056,-55.58 z
M 715.43,-55.607 L 714.922,-55.6875 L 714.424,-55.8208 L 713.943,-56.0054 L 713.484,-56.2392 L 713.053,-56.5196
 L 712.652,-56.8437 L 712.288,-57.2079 L 711.964,-57.6081 L 711.684,-58.04 L 711.45,-58.4989 L 711.265,-58.9796
 L 711.132,-59.4771 L 711.051,-59.9857 L 711.024,-60.5 L 711.051,-61.0143 L 711.132,-61.5229 L 711.265,-62.0204
 L 711.45,-62.5011 L 711.684,-62.96 L 711.964,-63.3919 L 712.288,-63.7921 L 712.652,-64.1563 L 713.053,-64.4804
 L 713.394,-64.7024 L 713.394,-74 L 713.45,-74.5302 L 713.615,-75.0372 L 713.881,-75.4988 L 714.238,-75.895
 L 714.669,-76.2084 L 715.156,-76.4252 L 715.678,-76.536 L 716.211,-76.536 L 716.732,-76.4252 L 717.219,-76.2084
 L 717.651,-75.895 L 718.007,-75.4988 L 718.274,-75.0372 L 718.439,-74.5302 L 718.494,-74 L 718.494,-64.7024
 L 718.836,-64.4804 L 719.237,-64.1563 L 719.601,-63.7921 L 719.925,-63.3919 L 720.205,-62.96 L 720.439,-62.5011
 L 720.624,-62.0204 L 720.757,-61.5229 L 720.837,-61.0143 L 720.864,-60.5 L 720.837,-59.9857 L 720.757,-59.4771
 L 720.624,-58.9796 L 720.439,-58.4989 L 720.205,-58.04 L 719.925,-57.6081 L 719.601,-57.2079 L 719.237,-56.8437
 L 718.836,-56.5196 L 718.404,-56.2392 L 717.946,-56.0054 L 717.465,-55.8208 L 716.967,-55.6875 L 716.459,-55.607
 L 715.944,-55.58 z
M 1423.87,-55.607 L 1423.37,-55.6875 L 1422.87,-55.8208 L 1422.39,-56.0054 L 1421.93,-56.2392 L 1421.5,-56.5196
 L 1421.1,-56.8437 L 1420.73,-57.2079 L 1420.41,-57.6081 L 1420.13,-58.04 L 1419.89,-58.4989 L 1419.71,-58.9796
 L 1419.58,-59.4771 L 1419.5,-59.9857 L 1419.47,-60.5 L 1419.5,-61.0143 L 1419.58,-61.5229 L 1419.71,-62.0204
 L 1419.89,-62.5011 L 1420.13,-62.96 L 1420.41,-63.3919 L 1420.73,-63.7921 L 1421.1,-64.1563 L 1421.5,-64.4804
 L 1421.84,-64.7024 L 1421.84,-74 L 1421.89,-74.5302 L 1422.06,-75.0372 L 1422.33,-75.4988 L 1422.68,-75.895
 L 1423.11,-76.2084 L 1423.6,-76.4252 L 1424.12,-76.536 L 1424.66,-76.536 L 1425.18,-76.4252 L 1425.66,-76.2084
 L 1426.1,-75.895 L 1426.45,-75.4988 L 1426.72,-75.0372 L 1426.88,-74.5302 L 1426.94,-74 L 1426.94,-64.7024
 L 1427.28,-64.4804 L 1427.68,-64.1563 L 1428.05,-63.7921 L 1428.37,-63.3919 L 1428.65,-62.96 L 1428.88,-62.5011
 L 1429.07,-62.0204 L 1429.2,-61.5229 L 1429.28,-61.0143 L 1429.31,-60.5 L 1429.28,-59.9857 L 1429.2,-59.4771
 L 1429.07,-58.9796 L 1428.88,-58.4989 L 1428.65,-58.04 L 1428.37,-57.6081 L 1428.05,-57.2079 L 1427.68,-56.8437
 L 1427.28,-56.5196 L 1426.85,-56.2392 L 1426.39,-56.0054 L 1425.91,-55.8208 L 1425.41,-55.6875 L 1424.9,-55.607
 L 1424.39,-55.58 z
M 538.319,-55.607 L 537.81,-55.6875 L 537.313,-55.8208 L 536.832,-56.0054 L 536.373,-56.2392 L 535.941,-56.5196
 L 535.541,-56.8437 L 535.177,-57.2079 L 534.853,-57.6081 L 534.572,-58.04 L 534.339,-58.4989 L 534.154,-58.9796
 L 534.021,-59.4771 L 533.94,-59.9857 L 533.913,-60.5 L 533.94,-61.0143 L 534.021,-61.5229 L 534.154,-62.0204
 L 534.339,-62.5011 L 534.572,-62.96 L 534.853,-63.3919 L 535.177,-63.7921 L 535.541,-64.1563 L 535.941,-64.4804
 L 536.283,-64.7024 L 536.283,-74 L 536.339,-74.5302 L 536.504,-75.0372 L 536.77,-75.4988 L 537.127,-75.895
 L 537.558,-76.2084 L 538.045,-76.4252 L 538.567,-76.536 L 539.1,-76.536 L 539.621,-76.4252 L 540.108,-76.2084
 L 540.54,-75.895 L 540.896,-75.4988 L 541.163,-75.0372 L 541.328,-74.5302 L 541.383,-74 L 541.383,-64.7024
 L 541.725,-64.4804 L 542.125,-64.1563 L 542.49,-63.7921 L 542.814,-63.3919 L 543.094,-62.96 L 543.328,-62.5011
 L 543.513,-62.0204 L 543.646,-61.5229 L 543.726,-61.0143 L 543.753,-60.5 L 543.726,-59.9857 L 543.646,-59.4771
 L 543.513,-58.9796 L 543.328,-58.4989 L 543.094,-58.04 L 542.814,-57.6081 L 542.49,-57.2079 L 542.125,-56.8437
 L 541.725,-56.5196 L 541.293,-56.2392 L 540.834,-56.0054 L 540.354,-55.8208 L 539.856,-55.6875 L 539.348,-55.607
 L 538.833,-55.58 z
M 361.208,-55.607 L 360.699,-55.6875 L 360.202,-55.8208 L 359.721,-56.0054 L 359.262,-56.2392 L 358.83,-56.5196
 L 358.43,-56.8437 L 358.066,-57.2079 L 357.742,-57.6081 L 357.461,-58.04 L 357.228,-58.4989 L 357.043,-58.9796
 L 356.91,-59.4771 L 356.829,-59.9857 L 356.802,-60.5 L 356.829,-61.0143 L 356.91,-61.5229 L 357.043,-62.0204
 L 357.228,-62.5011 L 357.461,-62.96 L 357.742,-63.3919 L 358.066,-63.7921 L 358.43,-64.1563 L 358.83,-64.4804
 L 359.172,-64.7024 L 359.172,-74 L 359.228,-74.5302 L 359.393,-75.0372 L 359.659,-75.4988 L 360.016,-75.895
 L 360.447,-76.2084 L 360.934,-76.4252 L 361.456,-76.536 L 361.989,-76.536 L 362.51,-76.4252 L 362.997,-76.2084
 L 363.428,-75.895 L 363.785,-75.4988 L 364.052,-75.0372 L 364.216,-74.5302 L 364.272,-74 L 364.272,-64.7024
 L 364.614,-64.4804 L 365.014,-64.1563 L 365.378,-63.7921 L 365.703,-63.3919 L 365.983,-62.96 L 366.217,-62.5011
 L 366.401,-62.0204 L 366.535,-61.5229 L 366.615,-61.0143 L 366.642,-60.5 L 366.615,-59.9857 L 366.535,-59.4771
 L 366.401,-58.9796 L 366.217,-58.4989 L 365.983,-58.04 L 365.703,-57.6081 L 365.378,-57.2079 L 365.014,-56.8437
 L 364.614,-56.5196 L 364.182,-56.2392 L 363.723,-56.0054 L 363.243,-55.8208 L 362.745,-55.6875 L 362.236,-55.607
 L 361.722,-55.58 z
M 1600.99,-55.607 L 1600.48,-55.6875 L 1599.98,-55.8208 L 1599.5,-56.0054 L 1599.04,-56.2392 L 1598.61,-56.5196
 L 1598.21,-56.8437 L 1597.84,-57.2079 L 1597.52,-57.6081 L 1597.24,-58.04 L 1597.01,-58.4989 L 1596.82,-58.9796
 L 1596.69,-59.4771 L 1596.61,-59.9857 L 1596.58,-60.5 L 1596.61,-61.0143 L 1596.69,-61.5229 L 1596.82,-62.0204
 L 1597.01,-62.5011 L 1597.24,-62.96 L 1597.52,-63.3919 L 1597.84,-63.7921 L 1598.21,-64.1563 L 1598.61,-64.4804
 L 1598.95,-64.7024 L 1598.95,-74 L 1599.01,-74.5302 L 1599.17,-75.0372 L 1599.44,-75.4988 L 1599.79,-75.895
 L 1600.23,-76.2084 L 1600.71,-76.4252 L 1601.23,-76.536 L 1601.77,-76.536 L 1602.29,-76.4252 L 1602.77,-76.2084
 L 1603.21,-75.895 L 1603.56,-75.4988 L 1603.83,-75.0372 L 1603.99,-74.5302 L 1604.05,-74 L 1604.05,-64.7024
 L 1604.39,-64.4804 L 1604.79,-64.1563 L 1605.16,-63.7921 L 1605.48,-63.3919 L 1605.76,-62.96 L 1605.99,-62.5011
 L 1606.18,-62.0204 L 1606.31,-61.5229 L 1606.39,-61.0143 L 1606.42,-60.5 L 1606.39,-59.9857 L 1606.31,-59.4771
 L 1606.18,-58.9796 L 1605.99,-58.4989 L 1605.76,-58.04 L 1605.48,-57.6081 L 1605.16,-57.2079 L 1604.79,-56.8437
 L 1604.39,-56.5196 L 1603.96,-56.2392 L 1603.5,-56.0054 L 1603.02,-55.8208 L 1602.52,-55.6875 L 1602.01,-55.607
 L 1601.5,-55.58 z
M 184.097,-55.607 L 183.588,-55.6875 L 183.091,-55.8208 L 182.61,-56.0054 L 182.151,-56.2392 L 181.719,-56.5196
 L 181.319,-56.8437 L 180.955,-57.2079 L 180.631,-57.6081 L 180.35,-58.04 L 180.116,-58.4989 L 179.932,-58.9796
 L 179.799,-59.4771 L 179.718,-59.9857 L 179.691,-60.5 L 179.718,-61.0143 L 179.799,-61.5229 L 179.932,-62.0204
 L 180.116,-62.5011 L 180.35,-62.96 L 180.631,-63.3919 L 180.955,-63.7921 L 181.319,-64.1563 L 181.719,-64.4804
 L 182.061,-64.7024 L 182.061,-74 L 182.117,-74.5302 L 182.282,-75.0372 L 182.548,-75.4988 L 182.905,-75.895
 L 183.336,-76.2084 L 183.823,-76.4252 L 184.345,-76.536 L 184.878,-76.536 L 185.399,-76.4252 L 185.886,-76.2084
 L 186.317,-75.895 L 186.674,-75.4988 L 186.941,-75.0372 L 187.105,-74.5302 L 187.161,-74 L 187.161,-64.7024
 L 187.503,-64.4804 L 187.903,-64.1563 L 188.267,-63.7921 L 188.591,-63.3919 L 188.872,-62.96 L 189.106,-62.5011
 L 189.29,-62.0204 L 189.424,-61.5229 L 189.504,-61.0143 L 189.531,-60.5 L 189.504,-59.9857 L 189.424,-59.4771
 L 189.29,-58.9796 L 189.106,-58.4989 L 188.872,-58.04 L 188.591,-57.6081 L 188.267,-57.2079 L 187.903,-56.8437
 L 187.503,-56.5196 L 187.071,-56.2392 L 186.612,-56.0054 L 186.131,-55.8208 L 185.634,-55.6875 L 185.125,-55.607
 L 184.611,-55.58 z
M 1082.13,-21.0336 L 1081.35,-21.3333 L 1080.65,-21.7887 L 1080.06,-22.3799 L 1079.6,-23.0812 L 1079.3,-23.8619
 L 1079.17,-24.8974 L 1079.17,-58 L 1079.25,-58.8316 L 1079.51,-59.627 L 1079.93,-60.3511 L 1080.49,-60.9726
 L 1081.17,-61.4641 L 1081.93,-61.8042 L 1083.17,-62 L 1169.38,-62 L 1170.22,-61.9126 L 1171.01,-61.6542
 L 1171.74,-61.2361 L 1172.36,-60.6765 L 1172.85,-60 L 1173.19,-59.2361 L 1173.36,-58.4181 L 1173.36,-57.5819
 L 1173.19,-56.7639 L 1172.85,-56 L 1172.36,-55.3235 L 1171.74,-54.7639 L 1170.82,-54.2658 L 1084.6,-21.1632
 L 1083.79,-20.9467 L 1082.96,-20.9029 z
M 905.021,-21.0336 L 904.24,-21.3333 L 903.538,-21.7887 L 902.947,-22.3799 L 902.492,-23.0812 L 902.192,-23.8619
 L 902.056,-24.8974 L 902.056,-58 L 902.143,-58.8316 L 902.401,-59.627 L 902.819,-60.3511 L 903.379,-60.9726
 L 904.056,-61.4641 L 904.819,-61.8042 L 906.056,-62 L 992.274,-62 L 993.105,-61.9126 L 993.901,-61.6542
 L 994.625,-61.2361 L 995.246,-60.6765 L 995.738,-60 L 996.078,-59.2361 L 996.252,-58.4181 L 996.252,-57.5819
 L 996.078,-56.7639 L 995.738,-56 L 995.246,-55.3235 L 994.625,-54.7639 L 993.707,-54.2658 L 907.489,-21.1632
 L 906.682,-20.9467 L 905.846,-20.9029 z
M 803.874,-47.8161 L 803.066,-48.0326 L 786.831,-54.2658 L 785.914,-54.7639 L 785.293,-55.3235 L 784.801,-56
 L 784.461,-56.7639 L 784.287,-57.5819 L 784.287,-58.4181 L 784.461,-59.2361 L 784.801,-60 L 785.293,-60.6765
 L 785.914,-61.2361 L 786.638,-61.6542 L 787.433,-61.9126 L 788.265,-62 L 820.735,-62 L 821.77,-61.8638
 L 822.551,-61.5641 L 823.252,-61.1087 L 823.843,-60.5175 L 824.299,-59.8162 L 824.598,-59.0355 L 824.729,-58.2096
 L 824.686,-57.3745 L 824.469,-56.5668 L 824.09,-55.8217 L 823.563,-55.1718 L 822.914,-54.6455 L 822.169,-54.2658
 L 805.934,-48.0326 L 805.535,-47.903 L 804.709,-47.7722 z
M 702.318,-20.9467 L 701.511,-21.1632 L 615.293,-54.2658 L 614.375,-54.7639 L 613.754,-55.3235 L 613.262,-56
 L 612.922,-56.7639 L 612.748,-57.5819 L 612.748,-58.4181 L 612.922,-59.2361 L 613.262,-60 L 613.754,-60.6765
 L 614.375,-61.2361 L 615.099,-61.6542 L 615.895,-61.9126 L 616.726,-62 L 702.944,-62 L 704.18,-61.8042
 L 704.944,-61.4641 L 705.621,-60.9726 L 706.18,-60.3511 L 706.599,-59.627 L 706.857,-58.8316 L 706.944,-58
 L 706.944,-24.8974 L 706.808,-23.8619 L 706.508,-23.0812 L 706.053,-22.3799 L 705.462,-21.7887 L 704.76,-21.3333
 L 703.979,-21.0336 L 703.154,-20.9029 z
M 525.207,-20.9467 L 524.4,-21.1632 L 438.181,-54.2658 L 437.264,-54.7639 L 436.643,-55.3235 L 436.151,-56
 L 435.811,-56.7639 L 435.637,-57.5819 L 435.637,-58.4181 L 435.811,-59.2361 L 436.151,-60 L 436.643,-60.6765
 L 437.264,-61.2361 L 437.988,-61.6542 L 438.783,-61.9126 L 439.615,-62 L 525.833,-62 L 527.069,-61.8042
 L 527.833,-61.4641 L 528.51,-60.9726 L 529.069,-60.3511 L 529.487,-59.627 L 529.746,-58.8316 L 529.833,-58
 L 529.833,-24.8974 L 529.697,-23.8619 L 529.397,-23.0812 L 528.942,-22.3799 L 528.35,-21.7887 L 527.649,-21.3333
 L 526.868,-21.0336 L 526.042,-20.9029 z
M 348.096,-20.9467 L 347.288,-21.1632 L 261.07,-54.2658 L 260.153,-54.7639 L 259.531,-55.3235 L 259.04,-56
 L 258.7,-56.7639 L 258.526,-57.5819 L 258.526,-58.4181 L 258.7,-59.2361 L 259.04,-60 L 259.531,-60.6765
 L 260.153,-61.2361 L 260.877,-61.6542 L 261.672,-61.9126 L 262.504,-62 L 348.722,-62 L 349.958,-61.8042
 L 350.722,-61.4641 L 351.399,-60.9726 L 351.958,-60.3511 L 352.376,-59.627 L 352.635,-58.8316 L 352.722,-58
 L 352.722,-24.8974 L 352.586,-23.8619 L 352.286,-23.0812 L 351.831,-22.3799 L 351.239,-21.7887 L 350.538,-21.3333
 L 349.757,-21.0336 L 348.931,-20.9029 z
M 1436.35,-21.0336 L 1435.57,-21.3333 L 1434.87,-21.7887 L 1434.28,-22.3799 L 1433.82,-23.0812 L 1433.53,-23.8619
 L 1433.39,-24.8974 L 1433.39,-58 L 1433.48,-58.8316 L 1433.73,-59.627 L 1434.15,-60.3511 L 1434.71,-60.9726
 L 1435.39,-61.4641 L 1436.15,-61.8042 L 1437.39,-62 L 1523.61,-62 L 1524.44,-61.9126 L 1525.23,-61.6542
 L 1525.96,-61.2361 L 1526.58,-60.6765 L 1527.07,-60 L 1527.41,-59.2361 L 1527.59,-58.4181 L 1527.59,-57.5819
 L 1527.41,-56.7639 L 1527.07,-56 L 1526.58,-55.3235 L 1525.96,-54.7639 L 1525.04,-54.2658 L 1438.82,-21.1632
 L 1438.01,-20.9467 L 1437.18,-20.9029 z
M 170.985,-20.9467 L 170.177,-21.1632 L 83.9592,-54.2658 L 83.0418,-54.7639 L 82.4203,-55.3235 L 81.9288,-56
 L 81.5887,-56.7639 L 81.4148,-57.5819 L 81.4148,-58.4181 L 81.5887,-59.2361 L 81.9288,-60 L 82.4203,-60.6765
 L 83.0418,-61.2361 L 83.766,-61.6542 L 84.5613,-61.9126 L 85.3929,-62 L 171.611,-62 L 172.847,-61.8042
 L 173.611,-61.4641 L 174.288,-60.9726 L 174.847,-60.3511 L 175.265,-59.627 L 175.524,-58.8316 L 175.611,-58
 L 175.611,-24.8974 L 175.475,-23.8619 L 175.175,-23.0812 L 174.72,-22.3799 L 174.128,-21.7887 L 173.427,-21.3333
 L 172.646,-21.0336 L 171.82,-20.9029 z
M 1259.24,-21.0336 L 1258.46,-21.3333 L 1257.76,-21.7887 L 1257.17,-22.3799 L 1256.71,-23.0812 L 1256.41,-23.8619
 L 1256.28,-24.8974 L 1256.28,-58 L 1256.37,-58.8316 L 1256.62,-59.627 L 1257.04,-60.3511 L 1257.6,-60.9726
 L 1258.28,-61.4641 L 1259.04,-61.8042 L 1260.28,-62 L 1346.5,-62 L 1347.33,-61.9126 L 1348.12,-61.6542
 L 1348.85,-61.2361 L 1349.47,-60.6765 L 1349.96,-60 L 1350.3,-59.2361 L 1350.47,-58.4181 L 1350.47,-57.5819
 L 1350.3,-56.7639 L 1349.96,-56 L 1349.47,-55.3235 L 1348.85,-54.7639 L 1347.93,-54.2658 L 1261.71,-21.1632
 L 1260.9,-20.9467 L 1260.07,-20.9029 z
M 728.526,-18.7799 L 727.708,-18.9538 L 726.944,-19.2939 L 726.268,-19.7854 L 725.708,-20.4069 L 725.29,-21.1311
 L 725.032,-21.9264 L 724.944,-22.758 L 724.944,-57.242 L 725.081,-58.2775 L 725.381,-59.0582 L 725.836,-59.7595
 L 726.427,-60.3507 L 727.129,-60.8061 L 727.909,-61.1058 L 728.735,-61.2365 L 729.57,-61.1927 L 730.378,-60.9762
 L 775.286,-43.7342 L 776.37,-43.1087 L 776.961,-42.5175 L 777.416,-41.8162 L 777.716,-41.0355 L 777.847,-40.2096
 L 777.803,-39.3745 L 777.587,-38.5668 L 777.207,-37.8217 L 776.681,-37.1718 L 776.031,-36.6455 L 775.286,-36.2658
 L 730.378,-19.0238 L 729.363,-18.7799 z
M 879.43,-18.8073 L 878.622,-19.0238 L 833.714,-36.2658 L 832.63,-36.8913 L 832.039,-37.4825 L 831.584,-38.1838
 L 831.284,-38.9645 L 831.153,-39.7904 L 831.197,-40.6255 L 831.413,-41.4332 L 831.793,-42.1783 L 832.319,-42.8282
 L 832.969,-43.3545 L 833.714,-43.7342 L 878.622,-60.9762 L 879.637,-61.2201 L 880.474,-61.2201 L 881.292,-61.0462
 L 882.056,-60.7061 L 882.732,-60.2146 L 883.292,-59.5931 L 883.71,-58.869 L 883.968,-58.0737 L 884.056,-57.242
 L 884.056,-22.758 L 883.919,-21.7225 L 883.619,-20.9418 L 883.164,-20.2405 L 882.573,-19.6492 L 881.871,-19.1938
 L 881.091,-18.8942 L 880.265,-18.7635 z
M 197.611,-18 L 196.375,-18.1958 L 195.611,-18.5359 L 194.935,-19.0274 L 194.375,-19.6489 L 193.957,-20.373
 L 193.699,-21.1684 L 193.611,-22 L 193.611,-55.1026 L 193.747,-56.1381 L 194.047,-56.9188 L 194.503,-57.6201
 L 195.094,-58.2113 L 195.795,-58.6667 L 196.576,-58.9664 L 197.402,-59.0971 L 198.237,-59.0533 L 199.045,-58.8368
 L 285.263,-25.7342 L 286.18,-25.2361 L 286.802,-24.6765 L 287.293,-24 L 287.633,-23.2361 L 287.807,-22.4181
 L 287.807,-21.5819 L 287.633,-20.7639 L 287.293,-20 L 286.802,-19.3235 L 286.18,-18.7639 L 285.456,-18.3458
 L 284.661,-18.0874 L 283.829,-18 z
M 374.722,-18 L 373.486,-18.1958 L 372.722,-18.5359 L 372.046,-19.0274 L 371.486,-19.6489 L 371.068,-20.373
 L 370.81,-21.1684 L 370.722,-22 L 370.722,-55.1026 L 370.859,-56.1381 L 371.158,-56.9188 L 371.614,-57.6201
 L 372.205,-58.2113 L 372.906,-58.6667 L 373.687,-58.9664 L 374.513,-59.0971 L 375.348,-59.0533 L 376.156,-58.8368
 L 462.374,-25.7342 L 463.292,-25.2361 L 463.913,-24.6765 L 464.404,-24 L 464.745,-23.2361 L 464.918,-22.4181
 L 464.918,-21.5819 L 464.745,-20.7639 L 464.404,-20 L 463.913,-19.3235 L 463.292,-18.7639 L 462.567,-18.3458
 L 461.772,-18.0874 L 460.94,-18 z
M 551.833,-18 L 550.597,-18.1958 L 549.833,-18.5359 L 549.157,-19.0274 L 548.597,-19.6489 L 548.179,-20.373
 L 547.921,-21.1684 L 547.833,-22 L 547.833,-55.1026 L 547.97,-56.1381 L 548.269,-56.9188 L 548.725,-57.6201
 L 549.316,-58.2113 L 550.018,-58.6667 L 550.798,-58.9664 L 551.624,-59.0971 L 552.459,-59.0533 L 553.267,-58.8368
 L 639.485,-25.7342 L 640.403,-25.2361 L 641.024,-24.6765 L 641.516,-24 L 641.856,-23.2361 L 642.03,-22.4181
 L 642.03,-21.5819 L 641.856,-20.7639 L 641.516,-20 L 641.024,-19.3235 L 640.403,-18.7639 L 639.678,-18.3458
 L 638.883,-18.0874 L 638.051,-18 z
M 970.948,-18 L 970.117,-18.0874 L 969.322,-18.3458 L 968.597,-18.7639 L 967.976,-19.3235 L 967.484,-20
 L 967.144,-20.7639 L 966.97,-21.5819 L 966.97,-22.4181 L 967.144,-23.2361 L 967.484,-24 L 967.976,-24.6765
 L 968.597,-25.2361 L 969.515,-25.7342 L 1055.73,-58.8368 L 1056.54,-59.0533 L 1057.38,-59.0971 L 1058.2,-58.9664
 L 1058.98,-58.6667 L 1059.68,-58.2113 L 1060.28,-57.6201 L 1060.73,-56.9188 L 1061.03,-56.1381 L 1061.17,-55.1026
 L 1061.17,-22 L 1061.08,-21.1684 L 1060.82,-20.373 L 1060.4,-19.6489 L 1059.84,-19.0274 L 1059.17,-18.5359
 L 1058.4,-18.1958 L 1057.17,-18 z
M 1148.06,-18 L 1147.23,-18.0874 L 1146.43,-18.3458 L 1145.71,-18.7639 L 1145.09,-19.3235 L 1144.6,-20
 L 1144.26,-20.7639 L 1144.08,-21.5819 L 1144.08,-22.4181 L 1144.26,-23.2361 L 1144.6,-24 L 1145.09,-24.6765
 L 1145.71,-25.2361 L 1146.63,-25.7342 L 1232.84,-58.8368 L 1233.65,-59.0533 L 1234.49,-59.0971 L 1235.31,-58.9664
 L 1236.09,-58.6667 L 1236.79,-58.2113 L 1237.39,-57.6201 L 1237.84,-56.9188 L 1238.14,-56.1381 L 1238.28,-55.1026
 L 1238.28,-22 L 1238.19,-21.1684 L 1237.93,-20.373 L 1237.51,-19.6489 L 1236.95,-19.0274 L 1236.28,-18.5359
 L 1235.51,-18.1958 L 1234.28,-18 z
M 1325.17,-18 L 1324.34,-18.0874 L 1323.54,-18.3458 L 1322.82,-18.7639 L 1322.2,-19.3235 L 1321.71,-20
 L 1321.37,-20.7639 L 1321.19,-21.5819 L 1321.19,-22.4181 L 1321.37,-23.2361 L 1321.71,-24 L 1322.2,-24.6765
 L 1322.82,-25.2361 L 1323.74,-25.7342 L 1409.96,-58.8368 L 1410.76,-59.0533 L 1411.6,-59.0971 L 1412.42,-58.9664
 L 1413.2,-58.6667 L 1413.91,-58.2113 L 1414.5,-57.6201 L 1414.95,-56.9188 L 1415.25,-56.1381 L 1415.39,-55.1026
 L 1415.39,-22 L 1415.3,-21.1684 L 1415.04,-20.373 L 1414.62,-19.6489 L 1414.07,-19.0274 L 1413.39,-18.5359
 L 1412.62,-18.1958 L 1411.39,-18 z
M 22,-18 L 20.7639,-18.1958 L 20,-18.5359 L 19.3235,-19.0274 L 18.7639,-19.6489 L 18.3458,-20.373
 L 18.0874,-21.1684 L 18,-22 L 18,-54.5267 L 18.1364,-55.5622 L 18.4361,-56.3429 L 18.8916,-57.0442
 L 19.4829,-57.6354 L 20.1843,-58.0908 L 20.965,-58.3904 L 21.7909,-58.5212 L 22.626,-58.4774 L 23.4337,-58.2609
 L 108.152,-25.7342 L 109.069,-25.2361 L 109.691,-24.6765 L 110.182,-24 L 110.522,-23.2361 L 110.696,-22.4181
 L 110.696,-21.5819 L 110.522,-20.7639 L 110.182,-20 L 109.691,-19.3235 L 109.069,-18.7639 L 108.345,-18.3458
 L 107.55,-18.0874 L 106.718,-18 z
M 1502.28,-18 L 1501.45,-18.0874 L 1500.65,-18.3458 L 1499.93,-18.7639 L 1499.31,-19.3235 L 1498.82,-20
 L 1498.48,-20.7639 L 1498.3,-21.5819 L 1498.3,-22.4181 L 1498.48,-23.2361 L 1498.82,-24 L 1499.31,-24.6765
 L 1499.93,-25.2361 L 1500.85,-25.7342 L 1585.57,-58.2609 L 1586.37,-58.4774 L 1587.21,-58.5212 L 1588.04,-58.3904
 L 1588.82,-58.0908 L 1589.52,-57.6354 L 1590.11,-57.0442 L 1590.56,-56.3429 L 1590.86,-55.5622 L 1591,-54.5267
 L 1591,-22 L 1590.91,-21.1684 L 1590.65,-20.373 L 1590.24,-19.6489 L 1589.68,-19.0274 L 1589,-18.5359
 L 1588.24,-18.1958 L 1587,-18 z
M 788.265,-18 L 787.23,-18.1362 L 786.449,-18.4359 L 785.748,-18.8913 L 785.157,-19.4825 L 784.701,-20.1838
 L 784.401,-20.9645 L 784.271,-21.7904 L 784.314,-22.6255 L 784.531,-23.4332 L 784.91,-24.1783 L 785.436,-24.8282
 L 786.086,-25.3545 L 786.831,-25.7342 L 803.066,-31.9674 L 803.465,-32.097 L 804.291,-32.2278 L 805.126,-32.1839
 L 805.934,-31.9674 L 822.169,-25.7342 L 823.086,-25.2361 L 823.707,-24.6765 L 824.199,-24 L 824.539,-23.2361
 L 824.713,-22.4181 L 824.713,-21.5819 L 824.539,-20.7639 L 824.199,-20 L 823.707,-19.3235 L 823.086,-18.7639
 L 822.362,-18.3458 L 821.567,-18.0874 L 820.735,-18 z
" stroke="black" fill="lightgray" stroke-width="0.5"/>
</svg>
