<?xml version="1.0" standalone="no"?>
<!DOCTYPE svg PUBLIC "-//W3C//DTD SVG 1.1//EN" "http://www.w3.org/Graphics/SVG/1.1/DTD/svg11.dtd">
<svg width="1690mm" height="80mm" viewBox="0 -80 1690 80" xmlns="http://www.w3.org/2000/svg" version="1.1">
<title>OpenSCAD Model</title>
<path d="
M 1690,-80 L 0,-80 L 0,-0 L 4.95,-0 L 4.95,-6 L 5.00572,-6.53017
 L 5.17046,-7.03717 L 5.437,-7.49884 L 5.79372,-7.895 L 6.22499,-8.20836 L 6.71201,-8.42519 L 7.23344,-8.53603
 L 7.76654,-8.53603 L 8.28798,-8.42519 L 8.77499,-8.20836 L 9.20627,-7.895 L 9.56299,-7.49884 L 9.82953,-7.03717
 L 9.99426,-6.53017 L 10.05,-6 L 10.05,-0 L 191.061,-0 L 191.061,-6 L 191.117,-6.53017
 L 191.282,-7.03717 L 191.548,-7.49884 L 191.905,-7.895 L 192.336,-8.20836 L 192.823,-8.42519 L 193.345,-8.53603
 L 193.878,-8.53603 L 194.399,-8.42519 L 194.886,-8.20836 L 195.317,-7.895 L 195.674,-7.49884 L 195.941,-7.03717
 L 196.105,-6.53017 L 196.161,-6 L 196.161,-0 L 377.172,-0 L 377.172,-6 L 377.228,-6.53017
 L 377.393,-7.03717 L 377.659,-7.49884 L 378.016,-7.895 L 378.447,-8.20836 L 378.934,-8.42519 L 379.456,-8.53603
 L 379.989,-8.53603 L 380.51,-8.42519 L 380.997,-8.20836 L 381.428,-7.895 L 381.785,-7.49884 L 382.052,-7.03717
 L 382.216,-6.53017 L 382.272,-6 L 382.272,-0 L 563.283,-0 L 563.283,-6 L 563.339,-6.53017
 L 563.504,-7.03717 L 563.77,-7.49884 L 564.127,-7.895 L 564.558,-8.20836 L 565.045,-8.42519 L 565.567,-8.53603
 L 566.1,-8.53603 L 566.621,-8.42519 L 567.108,-8.20836 L 567.54,-7.895 L 567.896,-7.49884 L 568.163,-7.03717
 L 568.328,-6.53017 L 568.383,-6 L 568.383,-0 L 749.394,-0 L 749.394,-6 L 749.45,-6.53017
 L 749.615,-7.03717 L 749.881,-7.49884 L 750.238,-7.895 L 750.669,-8.20836 L 751.156,-8.42519 L 751.678,-8.53603
 L 752.211,-8.53603 L 752.732,-8.42519 L 753.219,-8.20836 L 753.651,-7.895 L 754.007,-7.49884 L 754.274,-7.03717
 L 754.439,-6.53017 L 754.494,-6 L 754.494,-0 L 935.506,-0 L 935.506,-6 L 935.561,-6.53017
 L 935.726,-7.03717 L 935.993,-7.49884 L 936.349,-7.895 L 936.781,-8.20836 L 937.268,-8.42519 L 937.789,-8.53603
 L 938.322,-8.53603 L 938.844,-8.42519 L 939.331,-8.20836 L 939.762,-7.895 L 940.119,-7.49884 L 940.385,-7.03717
 L 940.55,-6.53017 L 940.606,-6 L 940.606,-0 L 1121.62,-0 L 1121.62,-6 L 1121.67,-6.53017
 L 1121.84,-7.03717 L 1122.1,-7.49884 L 1122.46,-7.895 L 1122.89,-8.20836 L 1123.38,-8.42519 L 1123.9,-8.53603
 L 1124.43,-8.53603 L 1124.95,-8.42519 L 1125.44,-8.20836 L 1125.87,-7.895 L 1126.23,-7.49884 L 1126.5,-7.03717
 L 1126.66,-6.53017 L 1126.72,-6 L 1126.72,-0 L 1307.73,-0 L 1307.73,-6 L 1307.78,-6.53017
 L 1307.95,-7.03717 L 1308.21,-7.49884 L 1308.57,-7.895 L 1309,-8.20836 L 1309.49,-8.42519 L 1310.01,-8.53603
 L 1310.54,-8.53603 L 1311.07,-8.42519 L 1311.55,-8.20836 L 1311.98,-7.895 L 1312.34,-7.49884 L 1312.61,-7.03717
 L 1312.77,-6.53017 L 1312.83,-6 L 1312.83,-0 L 1493.84,-0 L 1493.84,-6 L 1493.89,-6.53017
 L 1494.06,-7.03717 L 1494.33,-7.49884 L 1494.68,-7.895 L 1495.11,-8.20836 L 1495.6,-8.42519 L 1496.12,-8.53603
 L 1496.66,-8.53603 L 1497.18,-8.42519 L 1497.66,-8.20836 L 1498.1,-7.895 L 1498.45,-7.49884 L 1498.72,-7.03717
 L 1498.88,-6.53017 L 1498.94,-6 L 1498.94,-0 L 1679.95,-0 L 1679.95,-6 L 1680.01,-6.53017
 L 1680.17,-7.03717 L 1680.44,-7.49884 L 1680.79,-7.895 L 1681.22,-8.20836 L 1681.71,-8.42519 L 1682.23,-8.53603
 L 1682.77,-8.53603 L 1683.29,-8.42519 L 1683.77,-8.20836 L 1684.21,-7.895 L 1684.56,-7.49884 L 1684.83,-7.03717
 L 1684.99,-6.53017 L 1685.05,-6 L 1685.05,-0 L 1690,-0 z
M 6.98573,-55.607 L 6.47708,-55.6875 L 5.97964,-55.8208 L 5.49887,-56.0054 L 5.04001,-56.2392 L 4.60811,-56.5196
 L 4.20789,-56.8437 L 3.84373,-57.2079 L 3.51964,-57.6081 L 3.23917,-58.04 L 3.00537,-58.4989 L 2.82082,-58.9796
 L 2.68752,-59.4771 L 2.60696,-59.9857 L 2.58,-60.5 L 2.60696,-61.0143 L 2.68752,-61.5229 L 2.82082,-62.0204
 L 3.00537,-62.5011 L 3.23917,-62.96 L 3.51964,-63.3919 L 3.84373,-63.7921 L 4.20789,-64.1563 L 4.60811,-64.4804
 L 4.95001,-64.7024 L 4.95001,-74 L 5.00574,-74.5302 L 5.17047,-75.0372 L 5.43701,-75.4988 L 5.79373,-75.895
 L 6.22501,-76.2084 L 6.71202,-76.4252 L 7.23346,-76.536 L 7.76654,-76.536 L 8.28798,-76.4252 L 8.77499,-76.2084
 L 9.20627,-75.895 L 9.56299,-75.4988 L 9.82953,-75.0372 L 9.99426,-74.5302 L 10.05,-74 L 10.05,-64.7024
 L 10.3919,-64.4804 L 10.7921,-64.1563 L 11.1563,-63.7921 L 11.4804,-63.3919 L 11.7608,-62.96 L 11.9946,-62.5011
 L 12.1792,-62.0204 L 12.3125,-61.5229 L 12.393,-61.0143 L 12.42,-60.5 L 12.393,-59.9857 L 12.3125,-59.4771
 L 12.1792,-58.9796 L 11.9946,-58.4989 L 11.7608,-58.04 L 11.4804,-57.6081 L 11.1563,-57.2079 L 10.7921,-56.8437
 L 10.3919,-56.5196 L 9.95999,-56.2392 L 9.50113,-56.0054 L 9.02036,-55.8208 L 8.52292,-55.6875 L 8.01427,-55.607
 L 7.5,-55.58 z
M 1123.65,-55.607 L 1123.14,-55.6875 L 1122.65,-55.8208 L 1122.17,-56.0054 L 1121.71,-56.2392 L 1121.27,-56.5196
 L 1120.87,-56.8437 L 1120.51,-57.2079 L 1120.19,-57.6081 L 1119.91,-58.04 L 1119.67,-58.4989 L 1119.49,-58.9796
 L 1119.35,-59.4771 L 1119.27,-59.9857 L 1119.25,-60.5 L 1119.27,-61.0143 L 1119.35,-61.5229 L 1119.49,-62.0204
 L 1119.67,-62.5011 L 1119.91,-62.96 L 1120.19,-63.3919 L 1120.51,-63.7921 L 1120.87,-64.1563 L 1121.27,-64.4804
 L 1121.62,-64.7024 L 1121.62,-74 L 1121.67,-74.5302 L 1121.84,-75.0372 L 1122.1,-75.4988 L 1122.46,-75.895
 L 1122.89,-76.2084 L 1123.38,-76.4252 L 1123.9,-76.536 L 1124.43,-76.536 L 1124.95,-76.4252 L 1125.44,-76.2084
 L 1125.87,-75.895 L 1126.23,-75.4988 L 1126.5,-75.0372 L 1126.66,-74.5302 L 1126.72,-74 L 1126.72,-64.7024
 L 1127.06,-64.4804 L 1127.46,-64.1563 L 1127.82,-63.7921 L 1128.15,-63.3919 L 1128.43,-62.96 L 1128.66,-62.5011
 L 1128.85,-62.0204 L 1128.98,-61.5229 L 1129.06,-61.0143 L 1129.09,-60.5 L 1129.06,-59.9857 L 1128.98,-59.4771
 L 1128.85,-58.9796 L 1128.66,-58.4989 L 1128.43,-58.04 L 1128.15,-57.6081 L 1127.82,-57.2079 L 1127.46,-56.8437
 L 1127.06,-56.5196 L 1126.63,-56.2392 L 1126.17,-56.0054 L 1125.69,-55.8208 L 1125.19,-55.6875 L 1124.68,-55.607
 L 1124.17,-55.58 z
M 1309.76,-55.607 L 1309.25,-55.6875 L 1308.76,-55.8208 L 1308.28,-56.0054 L 1307.82,-56.2392 L 1307.39,-56.5196
 L 1306.99,-56.8437 L 1306.62,-57.2079 L 1306.3,-57.6081 L 1306.02,-58.04 L 1305.78,-58.4989 L 1305.6,-58.9796
 L 1305.47,-59.4771 L 1305.38,-59.9857 L 1305.36,-60.5 L 1305.38,-61.0143 L 1305.47,-61.5229 L 1305.6,-62.0204
 L 1305.78,-62.5011 L 1306.02,-62.96 L 1306.3,-63.3919 L 1306.62,-63.7921 L 1306.99,-64.1563 L 1307.39,-64.4804
 L 1307.73,-64.7024 L 1307.73,-74 L 1307.78,-74.5302 L 1307.95,-75.0372 L 1308.21,-75.4988 L 1308.57,-75.895
 L 1309,-76.2084 L 1309.49,-76.4252 L 1310.01,-76.536 L 1310.54,-76.536 L 1311.07,-76.4252 L 1311.55,-76.2084
 L 1311.98,-75.895 L 1312.34,-75.4988 L 1312.61,-75.0372 L 1312.77,-74.5302 L 1312.83,-74 L 1312.83,-64.7024
 L 1313.17,-64.4804 L 1313.57,-64.1563 L 1313.93,-63.7921 L 1314.26,-63.3919 L 1314.54,-62.96 L 1314.77,-62.5011
 L 1314.96,-62.0204 L 1315.09,-61.5229 L 1315.17,-61.0143 L 1315.2,-60.5 L 1315.17,-59.9857 L 1315.09,-59.4771
 L 1314.96,-58.9796 L 1314.77,-58.4989 L 1314.54,-58.04 L 1314.26,-57.6081 L 1313.93,-57.2079 L 1313.57,-56.8437
 L 1313.17,-56.5196 L 1312.74,-56.2392 L 1312.28,-56.0054 L 1311.8,-55.8208 L 1311.3,-55.6875 L 1310.79,-55.607
 L 1310.28,-55.58 z
M 937.541,-55.607 L 937.033,-55.6875 L 936.535,-55.8208 L 936.054,-56.0054 L 935.596,-56.2392 L 935.164,-56.5196
 L 934.763,-56.8437 L 934.399,-57.2079 L 934.075,-57.6081 L 933.795,-58.04 L 933.561,-58.4989 L 933.376,-58.9796
 L 933.243,-59.4771 L 933.163,-59.9857 L 933.136,-60.5 L 933.163,-61.0143 L 933.243,-61.5229 L 933.376,-62.0204
 L 933.561,-62.5011 L 933.795,-62.96 L 934.075,-63.3919 L 934.399,-63.7921 L 934.763,-64.1563 L 935.164,-64.4804
 L 935.506,-64.7024 L 935.506,-74 L 935.561,-74.5302 L 935.726,-75.0372 L 935.993,-75.4988 L 936.349,-75.895
 L 936.781,-76.2084 L 937.268,-76.4252 L 937.789,-76.536 L 938.322,-76.536 L 938.844,-76.4252 L 939.331,-76.2084
 L 939.762,-75.895 L 940.119,-75.4988 L 940.385,-75.0372 L 940.55,-74.5302 L 940.606,-74 L 940.606,-64.7024
 L 940.947,-64.4804 L 941.348,-64.1563 L 941.712,-63.7921 L 942.036,-63.3919 L 942.316,-62.96 L 942.55,-62.5011
 L 942.735,-62.0204 L 942.868,-61.5229 L 942.949,-61.0143 L 942.976,-60.5 L 942.949,-59.9857 L 942.868,-59.4771
 L 942.735,-58.9796 L 942.55,-58.4989 L 942.316,-58.04 L 942.036,-57.6081 L 941.712,-57.2079 L 941.348,-56.8437
 L 940.947,-56.5196 L 940.516,-56.2392 L 940.057,-56.0054 L 939.576,-55.8208 L 939.078,-55.6875 L 938.57,-55.607
 L 938.056,-55.58 z
M 751.43,-55.607 L 750.922,-55.6875 L 750.424,-55.8208 L 749.943,-56.0054 L 749.484,-56.2392 L 749.053,-56.5196
 L 748.652,-56.8437 L 748.288,-57.2079 L 747.964,-57.6081 L 747.684,-58.04 L 747.45,-58.4989 L 747.265,-58.9796
 L 747.132,-59.4771 L 747.051,-59.9857 L 747.024,-60.5 L 747.051,-61.0143 L 747.132,-61.5229 L 747.265,-62.0204
 L 747.45,-62.5011 L 747.684,-62.96 L 747.964,-63.3919 L 748.288,-63.7921 L 748.652,-64.1563 L 749.053,-64.4804
 L 749.394,-64.7024 L 749.394,-74 L 749.45,-74.5302 L 749.615,-75.0372 L 749.881,-75.4988 L 750.238,-75.895
 L 750.669,-76.2084 L 751.156,-76.4252 L 751.678,-76.536 L 752.211,-76.536 L 752.732,-76.4252 L 753.219,-76.2084
 L 753.651,-75.895 L 754.007,-75.4988 L 754.274,-75.0372 L 754.439,-74.5302 L 754.494,-74 L 754.494,-64.7024
 L 754.836,-64.4804 L 755.237,-64.1563 L 755.601,-63.7921 L 755.925,-63.3919 L 756.205,-62.96 L 756.439,-62.5011
 L 756.624,-62.0204 L 756.757,-61.5229 L 756.837,-61.0143 L 756.864,-60.5 L 756.837,-59.9857 L 756.757,-59.4771
 L 756.624,-58.9796 L 756.439,-58.4989 L 756.205,-58.04 L 755.925,-57.6081 L 755.601,-57.2079 L 755.237,-56.8437
 L 754.836,-56.5196 L 754.404,-56.2392 L 753.946,-56.0054 L 753.465,-55.8208 L 752.967,-55.6875 L 752.459,-55.607
 L 751.944,-55.58 z
M 1495.87,-55.607 L 1495.37,-55.6875 L 1494.87,-55.8208 L 1494.39,-56.0054 L 1493.93,-56.2392 L 1493.5,-56.5196
 L 1493.1,-56.8437 L 1492.73,-57.2079 L 1492.41,-57.6081 L 1492.13,-58.04 L 1491.89,-58.4989 L 1491.71,-58.9796
 L 1491.58,-59.4771 L 1491.5,-59.9857 L 1491.47,-60.5 L 1491.5,-61.0143 L 1491.58,-61.5229 L 1491.71,-62.0204
 L 1491.89,-62.5011 L 1492.13,-62.96 L 1492.41,-63.3919 L 1492.73,-63.7921 L 1493.1,-64.1563 L 1493.5,-64.4804
 L 1493.84,-64.7024 L 1493.84,-74 L 1493.89,-74.5302 L 1494.06,-75.0372 L 1494.33,-75.4988 L 1494.68,-75.895
 L 1495.11,-76.2084 L 1495.6,-76.4252 L 1496.12,-76.536 L 1496.66,-76.536 L 1497.18,-76.4252 L 1497.66,-76.2084
 L 1498.1,-75.895 L 1498.45,-75.4988 L 1498.72,-75.0372 L 1498.88,-74.5302 L 1498.94,-74 L 1498.94,-64.7024
 L 1499.28,-64.4804 L 1499.68,-64.1563 L 1500.05,-63.7921 L 1500.37,-63.3919 L 1500.65,-62.96 L 1500.88,-62.5011
 L 1501.07,-62.0204 L 1501.2,-61.5229 L 1501.28,-61.0143 L 1501.31,-60.5 L 1501.28,-59.9857 L 1501.2,-59.4771
 L 1501.07,-58.9796 L 1500.88,-58.4989 L 1500.65,-58.04 L 1500.37,-57.6081 L 1500.05,-57.2079 L 1499.68,-56.8437
 L 1499.28,-56.5196 L 1498.85,-56.2392 L 1498.39,-56.0054 L 1497.91,-55.8208 L 1497.41,-55.6875 L 1496.9,-55.607
 L 1496.39,-55.58 z
M 565.319,-55.607 L 564.81,-55.6875 L 564.313,-55.8208 L 563.832,-56.0054 L 563.373,-56.2392 L 562.941,-56.5196
 L 562.541,-56.8437 L 562.177,-57.2079 L 561.853,-57.6081 L 561.572,-58.04 L 561.339,-58.4989 L 561.154,-58.9796
 L 561.021,-59.4771 L 560.94,-59.9857 L 560.913,-60.5 L 560.94,-61.0143 L 561.021,-61.5229 L 561.154,-62.0204
 L 561.339,-62.5011 L 561.572,-62.96 L 561.853,-63.3919 L 562.177,-63.7921 L 562.541,-64.1563 L 562.941,-64.4804
 L 563.283,-64.7024 L 563.283,-74 L 563.339,-74.5302 L 563.504,-75.0372 L 563.77,-75.4988 L 564.127,-75.895
 L 564.558,-76.2084 L 565.045,-76.4252 L 565.567,-76.536 L 566.1,-76.536 L 566.621,-76.4252 L 567.108,-76.2084
 L 567.54,-75.895 L 567.896,-75.4988 L 568.163,-75.0372 L 568.328,-74.5302 L 568.383,-74 L 568.383,-64.7024
 L 568.725,-64.4804 L 569.125,-64.1563 L 569.49,-63.7921 L 569.814,-63.3919 L 570.094,-62.96 L 570.328,-62.5011
 L 570.513,-62.0204 L 570.646,-61.5229 L 570.726,-61.0143 L 570.753,-60.5 L 570.726,-59.9857 L 570.646,-59.4771
 L 570.513,-58.9796 L 570.328,-58.4989 L 570.094,-58.04 L 569.814,-57.6081 L 569.49,-57.2079 L 569.125,-56.8437
 L 568.725,-56.5196 L 568.293,-56.2392 L 567.834,-56.0054 L 567.354,-55.8208 L 566.856,-55.6875 L 566.348,-55.607
 L 565.833,-55.58 z
M 379.208,-55.607 L 378.699,-55.6875 L 378.202,-55.8208 L 377.721,-56.0054 L 377.262,-56.2392 L 376.83,-56.5196
 L 376.43,-56.8437 L 376.066,-57.2079 L 375.742,-57.6081 L 375.461,-58.04 L 375.228,-58.4989 L 375.043,-58.9796
 L 374.91,-59.4771 L 374.829,-59.9857 L 374.802,-60.5 L 374.829,-61.0143 L 374.91,-61.5229 L 375.043,-62.0204
 L 375.228,-62.5011 L 375.461,-62.96 L 375.742,-63.3919 L 376.066,-63.7921 L 376.43,-64.1563 L 376.83,-64.4804
 L 377.172,-64.7024 L 377.172,-74 L 377.228,-74.5302 L 377.393,-75.0372 L 377.659,-75.4988 L 378.016,-75.895
 L 378.447,-76.2084 L 378.934,-76.4252 L 379.456,-76.536 L 379.989,-76.536 L 380.51,-76.4252 L 380.997,-76.2084
 L 381.428,-75.895 L 381.785,-75.4988 L 382.052,-75.0372 L 382.216,-74.5302 L 382.272,-74 L 382.272,-64.7024
 L 382.614,-64.4804 L 383.014,-64.1563 L 383.378,-63.7921 L 383.703,-63.3919 L 383.983,-62.96 L 384.217,-62.5011
 L 384.401,-62.0204 L 384.535,-61.5229 L 384.615,-61.0143 L 384.642,-60.5 L 384.615,-59.9857 L 384.535,-59.4771
 L 384.401,-58.9796 L 384.217,-58.4989 L 383.983,-58.04 L 383.703,-57.6081 L 383.378,-57.2079 L 383.014,-56.8437
 L 382.614,-56.5196 L 382.182,-56.2392 L 381.723,-56.0054 L 381.243,-55.8208 L 380.745,-55.6875 L 380.236,-55.607
 L 379.722,-55.58 z
M 1681.99,-55.607 L 1681.48,-55.6875 L 1680.98,-55.8208 L 1680.5,-56.0054 L 1680.04,-56.2392 L 1679.61,-56.5196
 L 1679.21,-56.8437 L 1678.84,-57.2079 L 1678.52,-57.6081 L 1678.24,-58.04 L 1678.01,-58.4989 L 1677.82,-58.9796
 L 1677.69,-59.4771 L 1677.61,-59.9857 L 1677.58,-60.5 L 1677.61,-61.0143 L 1677.69,-61.5229 L 1677.82,-62.0204
 L 1678.01,-62.5011 L 1678.24,-62.96 L 1678.52,-63.3919 L 1678.84,-63.7921 L 1679.21,-64.1563 L 1679.61,-64.4804
 L 1679.95,-64.7024 L 1679.95,-74 L 1680.01,-74.5302 L 1680.17,-75.0372 L 1680.44,-75.4988 L 1680.79,-75.895
 L 1681.23,-76.2084 L 1681.71,-76.4252 L 1682.23,-76.536 L 1682.77,-76.536 L 1683.29,-76.4252 L 1683.77,-76.2084
 L 1684.21,-75.895 L 1684.56,-75.4988 L 1684.83,-75.0372 L 1684.99,-74.5302 L 1685.05,-74 L 1685.05,-64.7024
 L 1685.39,-64.4804 L 1685.79,-64.1563 L 1686.16,-63.7921 L 1686.48,-63.3919 L 1686.76,-62.96 L 1686.99,-62.5011
 L 1687.18,-62.0204 L 1687.31,-61.5229 L 1687.39,-61.0143 L 1687.42,-60.5 L 1687.39,-59.9857 L 1687.31,-59.4771
 L 1687.18,-58.9796 L 1686.99,-58.4989 L 1686.76,-58.04 L 1686.48,-57.6081 L 1686.16,-57.2079 L 1685.79,-56.8437
 L 1685.39,-56.5196 L 1684.96,-56.2392 L 1684.5,-56.0054 L 1684.02,-55.8208 L 1683.52,-55.6875 L 1683.01,-55.607
 L 1682.5,-55.58 z
M 193.097,-55.607 L 192.588,-55.6875 L 192.091,-55.8208 L 191.61,-56.0054 L 191.151,-56.2392 L 190.719,-56.5196
 L 190.319,-56.8437 L 189.955,-57.2079 L 189.631,-57.6081 L 189.35,-58.04 L 189.116,-58.4989 L 188.932,-58.9796
 L 188.799,-59.4771 L 188.718,-59.9857 L 188.691,-60.5 L 188.718,-61.0143 L 188.799,-61.5229 L 188.932,-62.0204
 L 189.116,-62.5011 L 189.35,-62.96 L 189.631,-63.3919 L 189.955,-63.7921 L 190.319,-64.1563 L 190.719,-64.4804
 L 191.061,-64.7024 L 191.061,-74 L 191.117,-74.5302 L 191.282,-75.0372 L 191.548,-75.4988 L 191.905,-75.895
 L 192.336,-76.2084 L 192.823,-76.4252 L 193.345,-76.536 L 193.878,-76.536 L 194.399,-76.4252 L 194.886,-76.2084
 L 195.317,-75.895 L 195.674,-75.4988 L 195.941,-75.0372 L 196.105,-74.5302 L 196.161,-74 L 196.161,-64.7024
 L 196.503,-64.4804 L 196.903,-64.1563 L 197.267,-63.7921 L 197.591,-63.3919 L 197.872,-62.96 L 198.106,-62.5011
 L 198.29,-62.0204 L 198.424,-61.5229 L 198.504,-61.0143 L 198.531,-60.5 L 198.504,-59.9857 L 198.424,-59.4771
 L 198.29,-58.9796 L 198.106,-58.4989 L 197.872,-58.04 L 197.591,-57.6081 L 197.267,-57.2079 L 196.903,-56.8437
 L 196.503,-56.5196 L 196.071,-56.2392 L 195.612,-56.0054 L 195.131,-55.8208 L 194.634,-55.6875 L 194.125,-55.607
 L 193.611,-55.58 z
M 1136.07,-20.735 L 1135.29,-21.0472 L 1134.6,-21.514 L 1134.02,-22.1148 L 1133.57,-22.8234 L 1133.29,-23.6089
 L 1133.17,-24.5814 L 1133.17,-58 L 1133.25,-58.8316 L 1133.51,-59.627 L 1133.93,-60.3511 L 1134.49,-60.9726
 L 1135.17,-61.4641 L 1135.93,-61.8042 L 1137.17,-62 L 1228.63,-62 L 1229.46,-61.9126 L 1230.26,-61.6542
 L 1230.98,-61.2361 L 1231.6,-60.6765 L 1232.1,-60 L 1232.44,-59.2361 L 1232.61,-58.4181 L 1232.61,-57.5819
 L 1232.44,-56.7639 L 1232.1,-56 L 1231.6,-55.3235 L 1230.98,-54.7639 L 1230,-54.2429 L 1138.54,-20.8243
 L 1137.73,-20.621 L 1136.89,-20.5908 z
M 949.958,-20.735 L 949.182,-21.0472 L 948.488,-21.514 L 947.907,-22.1148 L 947.463,-22.8234 L 947.176,-23.6089
 L 947.056,-24.5814 L 947.056,-58 L 947.143,-58.8316 L 947.401,-59.627 L 947.819,-60.3511 L 948.379,-60.9726
 L 949.056,-61.4641 L 949.819,-61.8042 L 951.056,-62 L 1042.52,-62 L 1043.35,-61.9126 L 1044.15,-61.6542
 L 1044.87,-61.2361 L 1045.49,-60.6765 L 1045.98,-60 L 1046.32,-59.2361 L 1046.5,-58.4181 L 1046.5,-57.5819
 L 1046.32,-56.7639 L 1045.98,-56 L 1045.49,-55.3235 L 1044.87,-54.7639 L 1043.89,-54.2429 L 952.428,-20.8243
 L 951.617,-20.621 L 950.781,-20.5908 z
M 844.438,-47.7432 L 843.627,-47.9465 L 826.394,-54.2429 L 825.416,-54.7639 L 824.795,-55.3235 L 824.303,-56
 L 823.963,-56.7639 L 823.789,-57.5819 L 823.789,-58.4181 L 823.963,-59.2361 L 824.303,-60 L 824.795,-60.6765
 L 825.416,-61.2361 L 826.14,-61.6542 L 826.936,-61.9126 L 827.767,-62 L 862.233,-62 L 863.331,-61.8464
 L 864.106,-61.5341 L 864.8,-61.0674 L 865.382,-60.4666 L 865.826,-59.7579 L 866.113,-58.9725 L 866.23,-58.1445
 L 866.173,-57.3103 L 865.943,-56.5062 L 865.552,-55.7673 L 865.015,-55.1261 L 864.357,-54.6104 L 863.606,-54.2429
 L 846.373,-47.9465 L 845.274,-47.713 z
M 738.383,-20.621 L 737.572,-20.8243 L 646.107,-54.2429 L 645.129,-54.7639 L 644.507,-55.3235 L 644.016,-56
 L 643.676,-56.7639 L 643.502,-57.5819 L 643.502,-58.4181 L 643.676,-59.2361 L 644.016,-60 L 644.507,-60.6765
 L 645.129,-61.2361 L 645.853,-61.6542 L 646.648,-61.9126 L 647.48,-62 L 738.944,-62 L 740.18,-61.8042
 L 740.944,-61.4641 L 741.621,-60.9726 L 742.18,-60.3511 L 742.599,-59.627 L 742.857,-58.8316 L 742.944,-58
 L 742.944,-24.5814 L 742.824,-23.6089 L 742.537,-22.8234 L 742.093,-22.1148 L 741.512,-21.514 L 740.818,-21.0472
 L 740.042,-20.735 L 739.219,-20.5908 z
M 552.272,-20.621 L 551.461,-20.8243 L 459.996,-54.2429 L 459.018,-54.7639 L 458.396,-55.3235 L 457.905,-56
 L 457.565,-56.7639 L 457.391,-57.5819 L 457.391,-58.4181 L 457.565,-59.2361 L 457.905,-60 L 458.396,-60.6765
 L 459.018,-61.2361 L 459.742,-61.6542 L 460.537,-61.9126 L 461.369,-62 L 552.833,-62 L 554.069,-61.8042
 L 554.833,-61.4641 L 555.51,-60.9726 L 556.069,-60.3511 L 556.487,-59.627 L 556.746,-58.8316 L 556.833,-58
 L 556.833,-24.5814 L 556.713,-23.6089 L 556.426,-22.8234 L 555.982,-22.1148 L 555.401,-21.514 L 554.707,-21.0472
 L 553.931,-20.735 L 553.107,-20.5908 z
M 366.161,-20.621 L 365.349,-20.8243 L 273.885,-54.2429 L 272.907,-54.7639 L 272.285,-55.3235 L 271.794,-56
 L 271.454,-56.7639 L 271.28,-57.5819 L 271.28,-58.4181 L 271.454,-59.2361 L 271.794,-60 L 272.285,-60.6765
 L 272.907,-61.2361 L 273.631,-61.6542 L 274.426,-61.9126 L 275.258,-62 L 366.722,-62 L 367.958,-61.8042
 L 368.722,-61.4641 L 369.399,-60.9726 L 369.958,-60.3511 L 370.376,-59.627 L 370.635,-58.8316 L 370.722,-58
 L 370.722,-24.5814 L 370.602,-23.6089 L 370.315,-22.8234 L 369.871,-22.1148 L 369.29,-21.514 L 368.596,-21.0472
 L 367.82,-20.735 L 366.996,-20.5908 z
M 1508.29,-20.735 L 1507.52,-21.0472 L 1506.82,-21.514 L 1506.24,-22.1148 L 1505.8,-22.8234 L 1505.51,-23.6089
 L 1505.39,-24.5814 L 1505.39,-58 L 1505.48,-58.8316 L 1505.73,-59.627 L 1506.15,-60.3511 L 1506.71,-60.9726
 L 1507.39,-61.4641 L 1508.15,-61.8042 L 1509.39,-62 L 1600.85,-62 L 1601.68,-61.9126 L 1602.48,-61.6542
 L 1603.2,-61.2361 L 1603.83,-60.6765 L 1604.32,-60 L 1604.66,-59.2361 L 1604.83,-58.4181 L 1604.83,-57.5819
 L 1604.66,-56.7639 L 1604.32,-56 L 1603.83,-55.3235 L 1603.2,-54.7639 L 1602.23,-54.2429 L 1510.76,-20.8243
 L 1509.95,-20.621 L 1509.11,-20.5908 z
M 180.049,-20.621 L 179.238,-20.8243 L 87.774,-54.2429 L 86.7955,-54.7639 L 86.1741,-55.3235 L 85.6826,-56
 L 85.3425,-56.7639 L 85.1686,-57.5819 L 85.1686,-58.4181 L 85.3425,-59.2361 L 85.6826,-60 L 86.1741,-60.6765
 L 86.7955,-61.2361 L 87.5197,-61.6542 L 88.315,-61.9126 L 89.1467,-62 L 180.611,-62 L 181.847,-61.8042
 L 182.611,-61.4641 L 183.288,-60.9726 L 183.847,-60.3511 L 184.265,-59.627 L 184.524,-58.8316 L 184.611,-58
 L 184.611,-24.5814 L 184.491,-23.6089 L 184.204,-22.8234 L 183.76,-22.1148 L 183.178,-21.514 L 182.485,-21.0472
 L 181.709,-20.735 L 180.885,-20.5908 z
M 1322.18,-20.735 L 1321.4,-21.0472 L 1320.71,-21.514 L 1320.13,-22.1148 L 1319.68,-22.8234 L 1319.4,-23.6089
 L 1319.28,-24.5814 L 1319.28,-58 L 1319.37,-58.8316 L 1319.62,-59.627 L 1320.04,-60.3511 L 1320.6,-60.9726
 L 1321.28,-61.4641 L 1322.04,-61.8042 L 1323.28,-62 L 1414.74,-62 L 1415.57,-61.9126 L 1416.37,-61.6542
 L 1417.09,-61.2361 L 1417.71,-60.6765 L 1418.21,-60 L 1418.55,-59.2361 L 1418.72,-58.4181 L 1418.72,-57.5819
 L 1418.55,-56.7639 L 1418.21,-56 L 1417.71,-55.3235 L 1417.09,-54.7639 L 1416.11,-54.2429 L 1324.65,-20.8243
 L 1323.84,-20.621 L 1323,-20.5908 z
M 764.526,-18.4754 L 763.708,-18.6492 L 762.944,-18.9893 L 762.268,-19.4809 L 761.708,-20.1023 L 761.29,-20.8265
 L 761.032,-21.6218 L 760.944,-22.4534 L 760.944,-57.5466 L 761.064,-58.519 L 761.351,-59.3045 L 761.795,-60.0131
 L 762.377,-60.6139 L 763.071,-61.0807 L 763.847,-61.393 L 764.67,-61.5372 L 765.506,-61.5069 L 766.317,-61.3036
 L 814.341,-43.7571 L 814.842,-43.5341 L 815.535,-43.0674 L 816.117,-42.4666 L 816.561,-41.7579 L 816.848,-40.9725
 L 816.965,-40.1445 L 816.908,-39.3103 L 816.679,-38.5062 L 816.287,-37.7673 L 815.75,-37.1261 L 815.092,-36.6104
 L 814.341,-36.2429 L 766.317,-18.6964 L 765.363,-18.4754 z
M 924.494,-18.4931 L 923.683,-18.6964 L 875.659,-36.2429 L 875.158,-36.4659 L 874.464,-36.9326 L 873.883,-37.5334
 L 873.439,-38.2421 L 873.152,-39.0275 L 873.034,-39.8555 L 873.092,-40.6897 L 873.321,-41.4938 L 873.713,-42.2327
 L 874.25,-42.8739 L 874.908,-43.3896 L 875.659,-43.7571 L 923.683,-61.3036 L 924.637,-61.5247 L 925.474,-61.5247
 L 926.292,-61.3508 L 927.056,-61.0107 L 927.732,-60.5191 L 928.292,-59.8977 L 928.71,-59.1735 L 928.968,-58.3782
 L 929.056,-57.5466 L 929.056,-22.4534 L 928.936,-21.4809 L 928.649,-20.6955 L 928.205,-19.9869 L 927.623,-19.3861
 L 926.929,-18.9193 L 926.153,-18.607 L 925.33,-18.4628 z
M 206.611,-18 L 205.375,-18.1958 L 204.611,-18.5359 L 203.935,-19.0274 L 203.375,-19.6489 L 202.957,-20.373
 L 202.699,-21.1684 L 202.611,-22 L 202.611,-55.4186 L 202.731,-56.3911 L 203.018,-57.1766 L 203.462,-57.8852
 L 204.044,-58.486 L 204.738,-58.9527 L 205.513,-59.265 L 206.337,-59.4092 L 207.173,-59.379 L 207.984,-59.1757
 L 299.448,-25.7571 L 300.427,-25.2361 L 301.048,-24.6765 L 301.54,-24 L 301.88,-23.2361 L 302.054,-22.4181
 L 302.054,-21.5819 L 301.88,-20.7639 L 301.54,-20 L 301.048,-19.3235 L 300.427,-18.7639 L 299.702,-18.3458
 L 298.907,-18.0874 L 298.076,-18 z
M 392.722,-18 L 391.486,-18.1958 L 390.722,-18.5359 L 390.046,-19.0274 L 389.486,-19.6489 L 389.068,-20.373
 L 388.81,-21.1684 L 388.722,-22 L 388.722,-55.4186 L 388.842,-56.3911 L 389.129,-57.1766 L 389.573,-57.8852
 L 390.155,-58.486 L 390.849,-58.9527 L 391.624,-59.265 L 392.448,-59.4092 L 393.284,-59.379 L 394.095,-59.1757
 L 485.559,-25.7571 L 486.538,-25.2361 L 487.159,-24.6765 L 487.651,-24 L 487.991,-23.2361 L 488.165,-22.4181
 L 488.165,-21.5819 L 487.991,-20.7639 L 487.651,-20 L 487.159,-19.3235 L 486.538,-18.7639 L 485.814,-18.3458
 L 485.018,-18.0874 L 484.187,-18 z
M 578.833,-18 L 577.597,-18.1958 L 576.833,-18.5359 L 576.157,-19.0274 L 575.597,-19.6489 L 575.179,-20.373
 L 574.921,-21.1684 L 574.833,-22 L 574.833,-55.4186 L 574.953,-56.3911 L 575.24,-57.1766 L 575.684,-57.8852
 L 576.266,-58.486 L 576.96,-58.9527 L 577.736,-59.265 L 578.559,-59.4092 L 579.395,-59.379 L 580.206,-59.1757
 L 671.67,-25.7571 L 672.649,-25.2361 L 673.27,-24.6765 L 673.762,-24 L 674.102,-23.2361 L 674.276,-22.4181
 L 674.276,-21.5819 L 674.102,-20.7639 L 673.762,-20 L 673.27,-19.3235 L 672.649,-18.7639 L 671.925,-18.3458
 L 671.129,-18.0874 L 670.298,-18 z
M 1019.7,-18 L 1018.87,-18.0874 L 1018.08,-18.3458 L 1017.35,-18.7639 L 1016.73,-19.3235 L 1016.24,-20
 L 1015.9,-20.7639 L 1015.72,-21.5819 L 1015.72,-22.4181 L 1015.9,-23.2361 L 1016.24,-24 L 1016.73,-24.6765
 L 1017.35,-25.2361 L 1018.33,-25.7571 L 1109.79,-59.1757 L 1110.61,-59.379 L 1111.44,-59.4092 L 1112.26,-59.265
 L 1113.04,-58.9527 L 1113.73,-58.486 L 1114.32,-57.8852 L 1114.76,-57.1766 L 1115.05,-56.3911 L 1115.17,-55.4186
 L 1115.17,-22 L 1115.08,-21.1684 L 1114.82,-20.373 L 1114.4,-19.6489 L 1113.84,-19.0274 L 1113.17,-18.5359
 L 1112.4,-18.1958 L 1111.17,-18 z
M 1205.81,-18 L 1204.98,-18.0874 L 1204.19,-18.3458 L 1203.46,-18.7639 L 1202.84,-19.3235 L 1202.35,-20
 L 1202.01,-20.7639 L 1201.84,-21.5819 L 1201.84,-22.4181 L 1202.01,-23.2361 L 1202.35,-24 L 1202.84,-24.6765
 L 1203.46,-25.2361 L 1204.44,-25.7571 L 1295.91,-59.1757 L 1296.72,-59.379 L 1297.55,-59.4092 L 1298.38,-59.265
 L 1299.15,-58.9527 L 1299.85,-58.486 L 1300.43,-57.8852 L 1300.87,-57.1766 L 1301.16,-56.3911 L 1301.28,-55.4186
 L 1301.28,-22 L 1301.19,-21.1684 L 1300.93,-20.373 L 1300.51,-19.6489 L 1299.95,-19.0274 L 1299.28,-18.5359
 L 1298.51,-18.1958 L 1297.28,-18 z
M 1391.92,-18 L 1391.09,-18.0874 L 1390.3,-18.3458 L 1389.57,-18.7639 L 1388.95,-19.3235 L 1388.46,-20
 L 1388.12,-20.7639 L 1387.95,-21.5819 L 1387.95,-22.4181 L 1388.12,-23.2361 L 1388.46,-24 L 1388.95,-24.6765
 L 1389.57,-25.2361 L 1390.55,-25.7571 L 1482.02,-59.1757 L 1482.83,-59.379 L 1483.66,-59.4092 L 1484.49,-59.265
 L 1485.26,-58.9527 L 1485.96,-58.486 L 1486.54,-57.8852 L 1486.98,-57.1766 L 1487.27,-56.3911 L 1487.39,-55.4186
 L 1487.39,-22 L 1487.3,-21.1684 L 1487.04,-20.373 L 1486.62,-19.6489 L 1486.07,-19.0274 L 1485.39,-18.5359
 L 1484.62,-18.1958 L 1483.39,-18 z
M 22,-18 L 20.7639,-18.1958 L 20,-18.5359 L 19.3235,-19.0274 L 18.7639,-19.6489 L 18.3458,-20.373
 L 18.0874,-21.1684 L 18,-22 L 18,-54.8706 L 18.12,-55.8431 L 18.407,-56.6285 L 18.851,-57.3371
 L 19.4326,-57.9379 L 20.1265,-58.4047 L 20.9022,-58.717 L 21.7259,-58.8612 L 22.5616,-58.8309 L 23.3727,-58.6277
 L 113.337,-25.7571 L 114.316,-25.2361 L 114.937,-24.6765 L 115.428,-24 L 115.769,-23.2361 L 115.942,-22.4181
 L 115.942,-21.5819 L 115.769,-20.7639 L 115.428,-20 L 114.937,-19.3235 L 114.316,-18.7639 L 113.591,-18.3458
 L 112.796,-18.0874 L 111.964,-18 z
M 1578.04,-18 L 1577.2,-18.0874 L 1576.41,-18.3458 L 1575.68,-18.7639 L 1575.06,-19.3235 L 1574.57,-20
 L 1574.23,-20.7639 L 1574.06,-21.5819 L 1574.06,-22.4181 L 1574.23,-23.2361 L 1574.57,-24 L 1575.06,-24.6765
 L 1575.68,-25.2361 L 1576.66,-25.7571 L 1666.63,-58.6277 L 1667.44,-58.8309 L 1668.27,-58.8612 L 1669.1,-58.717
 L 1669.87,-58.4047 L 1670.57,-57.9379 L 1671.15,-57.3371 L 1671.59,-56.6285 L 1671.88,-55.8431 L 1672,-54.8706
 L 1672,-22 L 1671.91,-21.1684 L 1671.65,-20.373 L 1671.24,-19.6489 L 1670.68,-19.0274 L 1670,-18.5359
 L 1669.24,-18.1958 L 1668,-18 z
M 827.767,-18 L 826.669,-18.1536 L 825.894,-18.4659 L 825.2,-18.9326 L 824.618,-19.5334 L 824.174,-20.2421
 L 823.887,-21.0275 L 823.77,-21.8555 L 823.827,-22.6897 L 824.057,-23.4938 L 824.448,-24.2327 L 824.985,-24.8739
 L 825.643,-25.3896 L 826.394,-25.7571 L 843.627,-32.0535 L 844.726,-32.287 L 845.562,-32.2568 L 846.373,-32.0535
 L 863.606,-25.7571 L 864.584,-25.2361 L 865.205,-24.6765 L 865.697,-24 L 866.037,-23.2361 L 866.211,-22.4181
 L 866.211,-21.5819 L 866.037,-20.7639 L 865.697,-20 L 865.205,-19.3235 L 864.584,-18.7639 L 863.86,-18.3458
 L 863.064,-18.0874 L 862.233,-18 z
" stroke="black" fill="lightgray" stroke-width="0.5"/>
</svg>
