<?xml version="1.0" standalone="no"?>
<!DOCTYPE svg PUBLIC "-//W3C//DTD SVG 1.1//EN" "http://www.w3.org/Graphics/SVG/1.1/DTD/svg11.dtd">
<svg width="1344mm" height="80mm" viewBox="0 -80 1344 80" xmlns="http://www.w3.org/2000/svg" version="1.1">
<title>OpenSCAD Model</title>
<path d="
M 1344,-80 L 0,-80 L 0,-0 L 4.95,-0 L 4.95,-6 L 5.00572,-6.53017
 L 5.17046,-7.03717 L 5.437,-7.49884 L 5.79372,-7.895 L 6.22499,-8.20836 L 6.71201,-8.42519 L 7.23344,-8.53603
 L 7.76654,-8.53603 L 8.28798,-8.42519 L 8.77499,-8.20836 L 9.20627,-7.895 L 9.56299,-7.49884 L 9.82953,-7.03717
 L 9.99426,-6.53017 L 10.05,-6 L 10.05,-0 L 194.807,-0 L 194.807,-6 L 194.863,-6.53017
 L 195.028,-7.03717 L 195.294,-7.49884 L 195.651,-7.895 L 196.082,-8.20836 L 196.569,-8.42519 L 197.091,-8.53603
 L 197.624,-8.53603 L 198.145,-8.42519 L 198.632,-8.20836 L 199.063,-7.895 L 199.42,-7.49884 L 199.687,-7.03717
 L 199.851,-6.53017 L 199.907,-6 L 199.907,-0 L 384.664,-0 L 384.664,-6 L 384.72,-6.53017
 L 384.885,-7.03717 L 385.151,-7.49884 L 385.508,-7.895 L 385.939,-8.20836 L 386.426,-8.42519 L 386.948,-8.53603
 L 387.481,-8.53603 L 388.002,-8.42519 L 388.489,-8.20836 L 388.921,-7.895 L 389.277,-7.49884 L 389.544,-7.03717
 L 389.709,-6.53017 L 389.764,-6 L 389.764,-0 L 574.521,-0 L 574.521,-6 L 574.577,-6.53017
 L 574.742,-7.03717 L 575.008,-7.49884 L 575.365,-7.895 L 575.796,-8.20836 L 576.283,-8.42519 L 576.805,-8.53603
 L 577.338,-8.53603 L 577.859,-8.42519 L 578.346,-8.20836 L 578.778,-7.895 L 579.134,-7.49884 L 579.401,-7.03717
 L 579.566,-6.53017 L 579.621,-6 L 579.621,-0 L 764.379,-0 L 764.379,-6 L 764.434,-6.53017
 L 764.599,-7.03717 L 764.866,-7.49884 L 765.222,-7.895 L 765.654,-8.20836 L 766.141,-8.42519 L 766.662,-8.53603
 L 767.195,-8.53603 L 767.717,-8.42519 L 768.204,-8.20836 L 768.635,-7.895 L 768.992,-7.49884 L 769.258,-7.03717
 L 769.423,-6.53017 L 769.479,-6 L 769.479,-0 L 954.236,-0 L 954.236,-6 L 954.291,-6.53017
 L 954.456,-7.03717 L 954.723,-7.49884 L 955.079,-7.895 L 955.511,-8.20836 L 955.998,-8.42519 L 956.519,-8.53603
 L 957.052,-8.53603 L 957.574,-8.42519 L 958.061,-8.20836 L 958.492,-7.895 L 958.849,-7.49884 L 959.115,-7.03717
 L 959.28,-6.53017 L 959.336,-6 L 959.336,-0 L 1144.09,-0 L 1144.09,-6 L 1144.15,-6.53017
 L 1144.31,-7.03717 L 1144.58,-7.49884 L 1144.94,-7.895 L 1145.37,-8.20836 L 1145.85,-8.42519 L 1146.38,-8.53603
 L 1146.91,-8.53603 L 1147.43,-8.42519 L 1147.92,-8.20836 L 1148.35,-7.895 L 1148.71,-7.49884 L 1148.97,-7.03717
 L 1149.14,-6.53017 L 1149.19,-6 L 1149.19,-0 L 1333.95,-0 L 1333.95,-6 L 1334.01,-6.53017
 L 1334.17,-7.03717 L 1334.44,-7.49884 L 1334.79,-7.895 L 1335.22,-8.20836 L 1335.71,-8.42519 L 1336.23,-8.53603
 L 1336.77,-8.53603 L 1337.29,-8.42519 L 1337.77,-8.20836 L 1338.21,-7.895 L 1338.56,-7.49884 L 1338.83,-7.03717
 L 1338.99,-6.53017 L 1339.05,-6 L 1339.05,-0 L 1344,-0 z
M 6.98573,-55.607 L 6.47708,-55.6875 L 5.97964,-55.8208 L 5.49887,-56.0054 L 5.04001,-56.2392 L 4.60811,-56.5196
 L 4.20789,-56.8437 L 3.84373,-57.2079 L 3.51964,-57.6081 L 3.23917,-58.04 L 3.00537,-58.4989 L 2.82082,-58.9796
 L 2.68752,-59.4771 L 2.60696,-59.9857 L 2.58,-60.5 L 2.60696,-61.0143 L 2.68752,-61.5229 L 2.82082,-62.0204
 L 3.00537,-62.5011 L 3.23917,-62.96 L 3.51964,-63.3919 L 3.84373,-63.7921 L 4.20789,-64.1563 L 4.60811,-64.4804
 L 4.95001,-64.7024 L 4.95001,-74 L 5.00574,-74.5302 L 5.17047,-75.0372 L 5.43701,-75.4988 L 5.79373,-75.895
 L 6.22501,-76.2084 L 6.71202,-76.4252 L 7.23346,-76.536 L 7.76654,-76.536 L 8.28798,-76.4252 L 8.77499,-76.2084
 L 9.20627,-75.895 L 9.56299,-75.4988 L 9.82953,-75.0372 L 9.99426,-74.5302 L 10.05,-74 L 10.05,-64.7024
 L 10.3919,-64.4804 L 10.7921,-64.1563 L 11.1563,-63.7921 L 11.4804,-63.3919 L 11.7608,-62.96 L 11.9946,-62.5011
 L 12.1792,-62.0204 L 12.3125,-61.5229 L 12.393,-61.0143 L 12.42,-60.5 L 12.393,-59.9857 L 12.3125,-59.4771
 L 12.1792,-58.9796 L 11.9946,-58.4989 L 11.7608,-58.04 L 11.4804,-57.6081 L 11.1563,-57.2079 L 10.7921,-56.8437
 L 10.3919,-56.5196 L 9.95999,-56.2392 L 9.50113,-56.0054 L 9.02036,-55.8208 L 8.52292,-55.6875 L 8.01427,-55.607
 L 7.5,-55.58 z
M 196.843,-55.607 L 196.334,-55.6875 L 195.837,-55.8208 L 195.356,-56.0054 L 194.897,-56.2392 L 194.465,-56.5196
 L 194.065,-56.8437 L 193.701,-57.2079 L 193.377,-57.6081 L 193.096,-58.04 L 192.863,-58.4989 L 192.678,-58.9796
 L 192.545,-59.4771 L 192.464,-59.9857 L 192.437,-60.5 L 192.464,-61.0143 L 192.545,-61.5229 L 192.678,-62.0204
 L 192.863,-62.5011 L 193.096,-62.96 L 193.377,-63.3919 L 193.701,-63.7921 L 194.065,-64.1563 L 194.465,-64.4804
 L 194.807,-64.7024 L 194.807,-74 L 194.863,-74.5302 L 195.028,-75.0372 L 195.294,-75.4988 L 195.651,-75.895
 L 196.082,-76.2084 L 196.569,-76.4252 L 197.091,-76.536 L 197.624,-76.536 L 198.145,-76.4252 L 198.632,-76.2084
 L 199.063,-75.895 L 199.42,-75.4988 L 199.687,-75.0372 L 199.851,-74.5302 L 199.907,-74 L 199.907,-64.7024
 L 200.249,-64.4804 L 200.649,-64.1563 L 201.013,-63.7921 L 201.337,-63.3919 L 201.618,-62.96 L 201.852,-62.5011
 L 202.036,-62.0204 L 202.17,-61.5229 L 202.25,-61.0143 L 202.277,-60.5 L 202.25,-59.9857 L 202.17,-59.4771
 L 202.036,-58.9796 L 201.852,-58.4989 L 201.618,-58.04 L 201.337,-57.6081 L 201.013,-57.2079 L 200.649,-56.8437
 L 200.249,-56.5196 L 199.817,-56.2392 L 199.358,-56.0054 L 198.877,-55.8208 L 198.38,-55.6875 L 197.871,-55.607
 L 197.357,-55.58 z
M 386.7,-55.607 L 386.191,-55.6875 L 385.694,-55.8208 L 385.213,-56.0054 L 384.754,-56.2392 L 384.322,-56.5196
 L 383.922,-56.8437 L 383.558,-57.2079 L 383.234,-57.6081 L 382.953,-58.04 L 382.72,-58.4989 L 382.535,-58.9796
 L 382.402,-59.4771 L 382.321,-59.9857 L 382.294,-60.5 L 382.321,-61.0143 L 382.402,-61.5229 L 382.535,-62.0204
 L 382.72,-62.5011 L 382.953,-62.96 L 383.234,-63.3919 L 383.558,-63.7921 L 383.922,-64.1563 L 384.322,-64.4804
 L 384.664,-64.7024 L 384.664,-74 L 384.72,-74.5302 L 384.885,-75.0372 L 385.151,-75.4988 L 385.508,-75.895
 L 385.939,-76.2084 L 386.426,-76.4252 L 386.948,-76.536 L 387.481,-76.536 L 388.002,-76.4252 L 388.489,-76.2084
 L 388.921,-75.895 L 389.277,-75.4988 L 389.544,-75.0372 L 389.709,-74.5302 L 389.764,-74 L 389.764,-64.7024
 L 390.106,-64.4804 L 390.506,-64.1563 L 390.871,-63.7921 L 391.195,-63.3919 L 391.475,-62.96 L 391.709,-62.5011
 L 391.893,-62.0204 L 392.027,-61.5229 L 392.107,-61.0143 L 392.134,-60.5 L 392.107,-59.9857 L 392.027,-59.4771
 L 391.893,-58.9796 L 391.709,-58.4989 L 391.475,-58.04 L 391.195,-57.6081 L 390.871,-57.2079 L 390.506,-56.8437
 L 390.106,-56.5196 L 389.674,-56.2392 L 389.215,-56.0054 L 388.735,-55.8208 L 388.237,-55.6875 L 387.729,-55.607
 L 387.214,-55.58 z
M 576.557,-55.607 L 576.049,-55.6875 L 575.551,-55.8208 L 575.07,-56.0054 L 574.611,-56.2392 L 574.18,-56.5196
 L 573.779,-56.8437 L 573.415,-57.2079 L 573.091,-57.6081 L 572.811,-58.04 L 572.577,-58.4989 L 572.392,-58.9796
 L 572.259,-59.4771 L 572.178,-59.9857 L 572.151,-60.5 L 572.178,-61.0143 L 572.259,-61.5229 L 572.392,-62.0204
 L 572.577,-62.5011 L 572.811,-62.96 L 573.091,-63.3919 L 573.415,-63.7921 L 573.779,-64.1563 L 574.18,-64.4804
 L 574.521,-64.7024 L 574.521,-74 L 574.577,-74.5302 L 574.742,-75.0372 L 575.008,-75.4988 L 575.365,-75.895
 L 575.796,-76.2084 L 576.283,-76.4252 L 576.805,-76.536 L 577.338,-76.536 L 577.859,-76.4252 L 578.346,-76.2084
 L 578.778,-75.895 L 579.134,-75.4988 L 579.401,-75.0372 L 579.566,-74.5302 L 579.621,-74 L 579.621,-64.7024
 L 579.963,-64.4804 L 580.364,-64.1563 L 580.728,-63.7921 L 581.052,-63.3919 L 581.332,-62.96 L 581.566,-62.5011
 L 581.751,-62.0204 L 581.884,-61.5229 L 581.964,-61.0143 L 581.991,-60.5 L 581.964,-59.9857 L 581.884,-59.4771
 L 581.751,-58.9796 L 581.566,-58.4989 L 581.332,-58.04 L 581.052,-57.6081 L 580.728,-57.2079 L 580.364,-56.8437
 L 579.963,-56.5196 L 579.531,-56.2392 L 579.073,-56.0054 L 578.592,-55.8208 L 578.094,-55.6875 L 577.586,-55.607
 L 577.071,-55.58 z
M 766.414,-55.607 L 765.906,-55.6875 L 765.408,-55.8208 L 764.927,-56.0054 L 764.469,-56.2392 L 764.037,-56.5196
 L 763.636,-56.8437 L 763.272,-57.2079 L 762.948,-57.6081 L 762.668,-58.04 L 762.434,-58.4989 L 762.249,-58.9796
 L 762.116,-59.4771 L 762.036,-59.9857 L 762.009,-60.5 L 762.036,-61.0143 L 762.116,-61.5229 L 762.249,-62.0204
 L 762.434,-62.5011 L 762.668,-62.96 L 762.948,-63.3919 L 763.272,-63.7921 L 763.636,-64.1563 L 764.037,-64.4804
 L 764.379,-64.7024 L 764.379,-74 L 764.434,-74.5302 L 764.599,-75.0372 L 764.866,-75.4988 L 765.222,-75.895
 L 765.654,-76.2084 L 766.141,-76.4252 L 766.662,-76.536 L 767.195,-76.536 L 767.717,-76.4252 L 768.204,-76.2084
 L 768.635,-75.895 L 768.992,-75.4988 L 769.258,-75.0372 L 769.423,-74.5302 L 769.479,-74 L 769.479,-64.7024
 L 769.82,-64.4804 L 770.221,-64.1563 L 770.585,-63.7921 L 770.909,-63.3919 L 771.189,-62.96 L 771.423,-62.5011
 L 771.608,-62.0204 L 771.741,-61.5229 L 771.822,-61.0143 L 771.849,-60.5 L 771.822,-59.9857 L 771.741,-59.4771
 L 771.608,-58.9796 L 771.423,-58.4989 L 771.189,-58.04 L 770.909,-57.6081 L 770.585,-57.2079 L 770.221,-56.8437
 L 769.82,-56.5196 L 769.389,-56.2392 L 768.93,-56.0054 L 768.449,-55.8208 L 767.951,-55.6875 L 767.443,-55.607
 L 766.929,-55.58 z
M 956.271,-55.607 L 955.763,-55.6875 L 955.265,-55.8208 L 954.785,-56.0054 L 954.326,-56.2392 L 953.894,-56.5196
 L 953.494,-56.8437 L 953.129,-57.2079 L 952.805,-57.6081 L 952.525,-58.04 L 952.291,-58.4989 L 952.107,-58.9796
 L 951.973,-59.4771 L 951.893,-59.9857 L 951.866,-60.5 L 951.893,-61.0143 L 951.973,-61.5229 L 952.107,-62.0204
 L 952.291,-62.5011 L 952.525,-62.96 L 952.805,-63.3919 L 953.129,-63.7921 L 953.494,-64.1563 L 953.894,-64.4804
 L 954.236,-64.7024 L 954.236,-74 L 954.291,-74.5302 L 954.456,-75.0372 L 954.723,-75.4988 L 955.079,-75.895
 L 955.511,-76.2084 L 955.998,-76.4252 L 956.519,-76.536 L 957.052,-76.536 L 957.574,-76.4252 L 958.061,-76.2084
 L 958.492,-75.895 L 958.849,-75.4988 L 959.115,-75.0372 L 959.28,-74.5302 L 959.336,-74 L 959.336,-64.7024
 L 959.678,-64.4804 L 960.078,-64.1563 L 960.442,-63.7921 L 960.766,-63.3919 L 961.047,-62.96 L 961.28,-62.5011
 L 961.465,-62.0204 L 961.598,-61.5229 L 961.679,-61.0143 L 961.706,-60.5 L 961.679,-59.9857 L 961.598,-59.4771
 L 961.465,-58.9796 L 961.28,-58.4989 L 961.047,-58.04 L 960.766,-57.6081 L 960.442,-57.2079 L 960.078,-56.8437
 L 959.678,-56.5196 L 959.246,-56.2392 L 958.787,-56.0054 L 958.306,-55.8208 L 957.809,-55.6875 L 957.3,-55.607
 L 956.786,-55.58 z
M 1146.13,-55.607 L 1145.62,-55.6875 L 1145.12,-55.8208 L 1144.64,-56.0054 L 1144.18,-56.2392 L 1143.75,-56.5196
 L 1143.35,-56.8437 L 1142.99,-57.2079 L 1142.66,-57.6081 L 1142.38,-58.04 L 1142.15,-58.4989 L 1141.96,-58.9796
 L 1141.83,-59.4771 L 1141.75,-59.9857 L 1141.72,-60.5 L 1141.75,-61.0143 L 1141.83,-61.5229 L 1141.96,-62.0204
 L 1142.15,-62.5011 L 1142.38,-62.96 L 1142.66,-63.3919 L 1142.99,-63.7921 L 1143.35,-64.1563 L 1143.75,-64.4804
 L 1144.09,-64.7024 L 1144.09,-74 L 1144.15,-74.5302 L 1144.31,-75.0372 L 1144.58,-75.4988 L 1144.94,-75.895
 L 1145.37,-76.2084 L 1145.85,-76.4252 L 1146.38,-76.536 L 1146.91,-76.536 L 1147.43,-76.4252 L 1147.92,-76.2084
 L 1148.35,-75.895 L 1148.71,-75.4988 L 1148.97,-75.0372 L 1149.14,-74.5302 L 1149.19,-74 L 1149.19,-64.7024
 L 1149.53,-64.4804 L 1149.93,-64.1563 L 1150.3,-63.7921 L 1150.62,-63.3919 L 1150.9,-62.96 L 1151.14,-62.5011
 L 1151.32,-62.0204 L 1151.46,-61.5229 L 1151.54,-61.0143 L 1151.56,-60.5 L 1151.54,-59.9857 L 1151.46,-59.4771
 L 1151.32,-58.9796 L 1151.14,-58.4989 L 1150.9,-58.04 L 1150.62,-57.6081 L 1150.3,-57.2079 L 1149.93,-56.8437
 L 1149.53,-56.5196 L 1149.1,-56.2392 L 1148.64,-56.0054 L 1148.16,-55.8208 L 1147.67,-55.6875 L 1147.16,-55.607
 L 1146.64,-55.58 z
M 1335.99,-55.607 L 1335.48,-55.6875 L 1334.98,-55.8208 L 1334.5,-56.0054 L 1334.04,-56.2392 L 1333.61,-56.5196
 L 1333.21,-56.8437 L 1332.84,-57.2079 L 1332.52,-57.6081 L 1332.24,-58.04 L 1332.01,-58.4989 L 1331.82,-58.9796
 L 1331.69,-59.4771 L 1331.61,-59.9857 L 1331.58,-60.5 L 1331.61,-61.0143 L 1331.69,-61.5229 L 1331.82,-62.0204
 L 1332.01,-62.5011 L 1332.24,-62.96 L 1332.52,-63.3919 L 1332.84,-63.7921 L 1333.21,-64.1563 L 1333.61,-64.4804
 L 1333.95,-64.7024 L 1333.95,-74 L 1334.01,-74.5302 L 1334.17,-75.0372 L 1334.44,-75.4988 L 1334.79,-75.895
 L 1335.23,-76.2084 L 1335.71,-76.4252 L 1336.23,-76.536 L 1336.77,-76.536 L 1337.29,-76.4252 L 1337.77,-76.2084
 L 1338.21,-75.895 L 1338.56,-75.4988 L 1338.83,-75.0372 L 1338.99,-74.5302 L 1339.05,-74 L 1339.05,-64.7024
 L 1339.39,-64.4804 L 1339.79,-64.1563 L 1340.16,-63.7921 L 1340.48,-63.3919 L 1340.76,-62.96 L 1340.99,-62.5011
 L 1341.18,-62.0204 L 1341.31,-61.5229 L 1341.39,-61.0143 L 1341.42,-60.5 L 1341.39,-59.9857 L 1341.31,-59.4771
 L 1341.18,-58.9796 L 1340.99,-58.4989 L 1340.76,-58.04 L 1340.48,-57.6081 L 1340.16,-57.2079 L 1339.79,-56.8437
 L 1339.39,-56.5196 L 1338.96,-56.2392 L 1338.5,-56.0054 L 1338.02,-55.8208 L 1337.52,-55.6875 L 1337.01,-55.607
 L 1336.5,-55.58 z
M 778.806,-20.6193 L 778.033,-20.9366 L 777.342,-21.4077 L 776.764,-22.0123 L 776.324,-22.7237 L 776.042,-23.5109
 L 775.929,-24.4587 L 775.929,-58 L 776.016,-58.8316 L 776.274,-59.627 L 776.693,-60.3511 L 777.252,-60.9726
 L 777.929,-61.4641 L 778.693,-61.8042 L 779.929,-62 L 873.576,-62 L 874.408,-61.9126 L 875.203,-61.6542
 L 875.928,-61.2361 L 876.549,-60.6765 L 877.041,-60 L 877.381,-59.2361 L 877.555,-58.4181 L 877.555,-57.5819
 L 877.381,-56.7639 L 877.041,-56 L 876.549,-55.3235 L 875.928,-54.7639 L 874.925,-54.2343 L 781.277,-20.6929
 L 780.465,-20.4948 L 779.629,-20.4699 z
M 671.464,-47.7152 L 670.651,-47.9133 L 653.003,-54.2343 L 652.001,-54.7639 L 651.379,-55.3235 L 650.888,-56
 L 650.548,-56.7639 L 650.374,-57.5819 L 650.374,-58.4181 L 650.548,-59.2361 L 650.888,-60 L 651.379,-60.6765
 L 652.001,-61.2361 L 652.725,-61.6542 L 653.52,-61.9126 L 654.352,-62 L 689.648,-62 L 690.77,-61.8393
 L 691.544,-61.5221 L 692.235,-61.0509 L 692.813,-60.4464 L 693.252,-59.735 L 693.534,-58.9477 L 693.646,-58.1191
 L 693.584,-57.2852 L 693.349,-56.4825 L 692.953,-55.7462 L 692.412,-55.1084 L 691.75,-54.597 L 690.997,-54.2343
 L 673.349,-47.9133 L 672.299,-47.6903 z
M 563.535,-20.4948 L 562.723,-20.6929 L 469.075,-54.2343 L 468.072,-54.7639 L 467.451,-55.3235 L 466.959,-56
 L 466.619,-56.7639 L 466.445,-57.5819 L 466.445,-58.4181 L 466.619,-59.2361 L 466.959,-60 L 467.451,-60.6765
 L 468.072,-61.2361 L 468.797,-61.6542 L 469.592,-61.9126 L 470.423,-62 L 564.071,-62 L 565.307,-61.8042
 L 566.071,-61.4641 L 566.748,-60.9726 L 567.307,-60.3511 L 567.726,-59.627 L 567.984,-58.8316 L 568.071,-58
 L 568.071,-24.4587 L 567.958,-23.5109 L 567.676,-22.7237 L 567.236,-22.0123 L 566.658,-21.4077 L 565.967,-20.9366
 L 565.194,-20.6193 L 564.371,-20.4699 z
M 373.678,-20.4948 L 372.866,-20.6929 L 279.218,-54.2343 L 278.215,-54.7639 L 277.594,-55.3235 L 277.102,-56
 L 276.762,-56.7639 L 276.588,-57.5819 L 276.588,-58.4181 L 276.762,-59.2361 L 277.102,-60 L 277.594,-60.6765
 L 278.215,-61.2361 L 278.939,-61.6542 L 279.735,-61.9126 L 280.566,-62 L 374.214,-62 L 375.45,-61.8042
 L 376.214,-61.4641 L 376.891,-60.9726 L 377.45,-60.3511 L 377.868,-59.627 L 378.127,-58.8316 L 378.214,-58
 L 378.214,-24.4587 L 378.1,-23.5109 L 377.818,-22.7237 L 377.379,-22.0123 L 376.801,-21.4077 L 376.11,-20.9366
 L 375.337,-20.6193 L 374.514,-20.4699 z
M 1158.52,-20.6193 L 1157.75,-20.9366 L 1157.06,-21.4077 L 1156.48,-22.0123 L 1156.04,-22.7237 L 1155.76,-23.5109
 L 1155.64,-24.4587 L 1155.64,-58 L 1155.73,-58.8316 L 1155.99,-59.627 L 1156.41,-60.3511 L 1156.97,-60.9726
 L 1157.64,-61.4641 L 1158.41,-61.8042 L 1159.64,-62 L 1253.29,-62 L 1254.12,-61.9126 L 1254.92,-61.6542
 L 1255.64,-61.2361 L 1256.26,-60.6765 L 1256.75,-60 L 1257.1,-59.2361 L 1257.27,-58.4181 L 1257.27,-57.5819
 L 1257.1,-56.7639 L 1256.75,-56 L 1256.26,-55.3235 L 1255.64,-54.7639 L 1254.64,-54.2343 L 1160.99,-20.6929
 L 1160.18,-20.4948 L 1159.34,-20.4699 z
M 183.821,-20.4948 L 183.008,-20.6929 L 89.3605,-54.2343 L 88.3581,-54.7639 L 87.7366,-55.3235 L 87.2451,-56
 L 86.905,-56.7639 L 86.7311,-57.5819 L 86.7311,-58.4181 L 86.905,-59.2361 L 87.2451,-60 L 87.7366,-60.6765
 L 88.3581,-61.2361 L 89.0823,-61.6542 L 89.8776,-61.9126 L 90.7092,-62 L 184.357,-62 L 185.593,-61.8042
 L 186.357,-61.4641 L 187.034,-60.9726 L 187.593,-60.3511 L 188.011,-59.627 L 188.27,-58.8316 L 188.357,-58
 L 188.357,-24.4587 L 188.243,-23.5109 L 187.961,-22.7237 L 187.522,-22.0123 L 186.944,-21.4077 L 186.253,-20.9366
 L 185.479,-20.6193 L 184.657,-20.4699 z
M 968.663,-20.6193 L 967.89,-20.9366 L 967.199,-21.4077 L 966.621,-22.0123 L 966.182,-22.7237 L 965.9,-23.5109
 L 965.786,-24.4587 L 965.786,-58 L 965.873,-58.8316 L 966.132,-59.627 L 966.55,-60.3511 L 967.109,-60.9726
 L 967.786,-61.4641 L 968.55,-61.8042 L 969.786,-62 L 1063.43,-62 L 1064.27,-61.9126 L 1065.06,-61.6542
 L 1065.78,-61.2361 L 1066.41,-60.6765 L 1066.9,-60 L 1067.24,-59.2361 L 1067.41,-58.4181 L 1067.41,-57.5819
 L 1067.24,-56.7639 L 1066.9,-56 L 1066.41,-55.3235 L 1065.78,-54.7639 L 1064.78,-54.2343 L 971.134,-20.6929
 L 970.322,-20.4948 L 969.486,-20.4699 z
M 589.653,-18.3571 L 588.835,-18.531 L 588.071,-18.8711 L 587.395,-19.3626 L 586.835,-19.9841 L 586.417,-20.7083
 L 586.159,-21.5036 L 586.071,-22.3352 L 586.071,-57.6648 L 586.185,-58.6125 L 586.467,-59.3998 L 586.907,-60.1112
 L 587.485,-60.7157 L 588.175,-61.1869 L 588.949,-61.5041 L 589.772,-61.6535 L 590.608,-61.6287 L 591.42,-61.4305
 L 640.741,-43.7657 L 641.288,-43.5221 L 641.979,-43.0509 L 642.556,-42.4464 L 642.996,-41.735 L 643.278,-40.9477
 L 643.39,-40.1191 L 643.327,-39.2852 L 643.093,-38.4825 L 642.696,-37.7462 L 642.156,-37.1084 L 641.494,-36.597
 L 640.741,-36.2343 L 591.42,-18.5695 L 590.49,-18.3571 z
M 753.392,-18.3713 L 752.58,-18.5695 L 703.259,-36.2343 L 702.712,-36.4779 L 702.021,-36.9491 L 701.444,-37.5536
 L 701.004,-38.265 L 700.722,-39.0523 L 700.61,-39.8809 L 700.673,-40.7148 L 700.907,-41.5175 L 701.304,-42.2538
 L 701.844,-42.8916 L 702.506,-43.403 L 703.259,-43.7657 L 752.58,-61.4305 L 753.51,-61.6429 L 754.347,-61.6429
 L 755.165,-61.469 L 755.929,-61.1289 L 756.605,-60.6374 L 757.165,-60.0159 L 757.583,-59.2917 L 757.841,-58.4964
 L 757.929,-57.6648 L 757.929,-22.3352 L 757.815,-21.3875 L 757.533,-20.6002 L 757.093,-19.8888 L 756.515,-19.2843
 L 755.825,-18.8131 L 755.051,-18.4959 L 754.228,-18.3464 z
M 210.357,-18 L 209.121,-18.1958 L 208.357,-18.5359 L 207.681,-19.0274 L 207.121,-19.6489 L 206.703,-20.373
 L 206.445,-21.1684 L 206.357,-22 L 206.357,-55.5413 L 206.471,-56.489 L 206.753,-57.2763 L 207.192,-57.9877
 L 207.77,-58.5922 L 208.461,-59.0634 L 209.235,-59.3806 L 210.058,-59.5301 L 210.893,-59.5052 L 211.706,-59.3071
 L 305.354,-25.7657 L 306.356,-25.2361 L 306.978,-24.6765 L 307.469,-24 L 307.809,-23.2361 L 307.983,-22.4181
 L 307.983,-21.5819 L 307.809,-20.7639 L 307.469,-20 L 306.978,-19.3235 L 306.356,-18.7639 L 305.632,-18.3458
 L 304.837,-18.0874 L 304.005,-18 z
M 400.214,-18 L 398.978,-18.1958 L 398.214,-18.5359 L 397.538,-19.0274 L 396.978,-19.6489 L 396.56,-20.373
 L 396.302,-21.1684 L 396.214,-22 L 396.214,-55.5413 L 396.328,-56.489 L 396.61,-57.2763 L 397.05,-57.9877
 L 397.627,-58.5922 L 398.318,-59.0634 L 399.092,-59.3806 L 399.915,-59.5301 L 400.751,-59.5052 L 401.563,-59.3071
 L 495.211,-25.7657 L 496.213,-25.2361 L 496.835,-24.6765 L 497.326,-24 L 497.666,-23.2361 L 497.84,-22.4181
 L 497.84,-21.5819 L 497.666,-20.7639 L 497.326,-20 L 496.835,-19.3235 L 496.213,-18.7639 L 495.489,-18.3458
 L 494.694,-18.0874 L 493.862,-18 z
M 850.138,-18 L 849.306,-18.0874 L 848.511,-18.3458 L 847.787,-18.7639 L 847.165,-19.3235 L 846.674,-20
 L 846.334,-20.7639 L 846.16,-21.5819 L 846.16,-22.4181 L 846.334,-23.2361 L 846.674,-24 L 847.165,-24.6765
 L 847.787,-25.2361 L 848.789,-25.7657 L 942.437,-59.3071 L 943.249,-59.5052 L 944.085,-59.5301 L 944.908,-59.3806
 L 945.682,-59.0634 L 946.373,-58.5922 L 946.95,-57.9877 L 947.39,-57.2763 L 947.672,-56.489 L 947.786,-55.5413
 L 947.786,-22 L 947.698,-21.1684 L 947.44,-20.373 L 947.022,-19.6489 L 946.462,-19.0274 L 945.786,-18.5359
 L 945.022,-18.1958 L 943.786,-18 z
M 1039.99,-18 L 1039.16,-18.0874 L 1038.37,-18.3458 L 1037.64,-18.7639 L 1037.02,-19.3235 L 1036.53,-20
 L 1036.19,-20.7639 L 1036.02,-21.5819 L 1036.02,-22.4181 L 1036.19,-23.2361 L 1036.53,-24 L 1037.02,-24.6765
 L 1037.64,-25.2361 L 1038.65,-25.7657 L 1132.29,-59.3071 L 1133.11,-59.5052 L 1133.94,-59.5301 L 1134.77,-59.3806
 L 1135.54,-59.0634 L 1136.23,-58.5922 L 1136.81,-57.9877 L 1137.25,-57.2763 L 1137.53,-56.489 L 1137.64,-55.5413
 L 1137.64,-22 L 1137.56,-21.1684 L 1137.3,-20.373 L 1136.88,-19.6489 L 1136.32,-19.0274 L 1135.64,-18.5359
 L 1134.88,-18.1958 L 1133.64,-18 z
M 22,-18 L 20.7639,-18.1958 L 20,-18.5359 L 19.3235,-19.0274 L 18.7639,-19.6489 L 18.3458,-20.373
 L 18.0874,-21.1684 L 18,-22 L 18,-55.0041 L 18.1139,-55.9518 L 18.3959,-56.7391 L 18.8353,-57.4505
 L 19.4131,-58.055 L 20.104,-58.5262 L 20.8777,-58.8434 L 21.7005,-58.9928 L 22.5363,-58.9679 L 23.3488,-58.7698
 L 115.497,-25.7657 L 116.499,-25.2361 L 117.12,-24.6765 L 117.612,-24 L 117.952,-23.2361 L 118.126,-22.4181
 L 118.126,-21.5819 L 117.952,-20.7639 L 117.612,-20 L 117.12,-19.3235 L 116.499,-18.7639 L 115.775,-18.3458
 L 114.98,-18.0874 L 114.148,-18 z
M 1229.85,-18 L 1229.02,-18.0874 L 1228.23,-18.3458 L 1227.5,-18.7639 L 1226.88,-19.3235 L 1226.39,-20
 L 1226.05,-20.7639 L 1225.87,-21.5819 L 1225.87,-22.4181 L 1226.05,-23.2361 L 1226.39,-24 L 1226.88,-24.6765
 L 1227.5,-25.2361 L 1228.5,-25.7657 L 1320.65,-58.7698 L 1321.46,-58.9679 L 1322.3,-58.9928 L 1323.12,-58.8434
 L 1323.9,-58.5262 L 1324.59,-58.055 L 1325.16,-57.4505 L 1325.6,-56.7391 L 1325.89,-55.9518 L 1326,-55.0041
 L 1326,-22 L 1325.91,-21.1684 L 1325.65,-20.373 L 1325.24,-19.6489 L 1324.68,-19.0274 L 1324,-18.5359
 L 1323.24,-18.1958 L 1322,-18 z
M 654.352,-18 L 653.23,-18.1607 L 652.456,-18.4779 L 651.765,-18.9491 L 651.187,-19.5536 L 650.748,-20.265
 L 650.466,-21.0523 L 650.354,-21.8809 L 650.416,-22.7148 L 650.651,-23.5175 L 651.047,-24.2538 L 651.588,-24.8916
 L 652.25,-25.403 L 653.003,-25.7657 L 670.651,-32.0867 L 671.7,-32.3097 L 672.536,-32.2848 L 673.349,-32.0867
 L 690.997,-25.7657 L 691.999,-25.2361 L 692.621,-24.6765 L 693.112,-24 L 693.452,-23.2361 L 693.626,-22.4181
 L 693.626,-21.5819 L 693.452,-20.7639 L 693.112,-20 L 692.621,-19.3235 L 691.999,-18.7639 L 691.275,-18.3458
 L 690.48,-18.0874 L 689.648,-18 z
" stroke="black" fill="lightgray" stroke-width="0.5"/>
</svg>
