<?xml version="1.0" standalone="no"?>
<!DOCTYPE svg PUBLIC "-//W3C//DTD SVG 1.1//EN" "http://www.w3.org/Graphics/SVG/1.1/DTD/svg11.dtd">
<svg width="1321mm" height="80mm" viewBox="0 -80 1321 80" xmlns="http://www.w3.org/2000/svg" version="1.1">
<title>OpenSCAD Model</title>
<path d="
M 1321,-80 L 0,-80 L 0,-0 L 4.95,-0 L 4.95,-6 L 5.00572,-6.53017
 L 5.17046,-7.03717 L 5.437,-7.49884 L 5.79372,-7.895 L 6.22499,-8.20836 L 6.71201,-8.42519 L 7.23344,-8.53603
 L 7.76654,-8.53603 L 8.28798,-8.42519 L 8.77499,-8.20836 L 9.20627,-7.895 L 9.56299,-7.49884 L 9.82953,-7.03717
 L 9.99426,-6.53017 L 10.05,-6 L 10.05,-0 L 191.521,-0 L 191.521,-6 L 191.577,-6.53017
 L 191.742,-7.03717 L 192.008,-7.49884 L 192.365,-7.895 L 192.796,-8.20836 L 193.283,-8.42519 L 193.805,-8.53603
 L 194.338,-8.53603 L 194.859,-8.42519 L 195.346,-8.20836 L 195.778,-7.895 L 196.134,-7.49884 L 196.401,-7.03717
 L 196.566,-6.53017 L 196.621,-6 L 196.621,-0 L 378.093,-0 L 378.093,-6 L 378.149,-6.53017
 L 378.313,-7.03717 L 378.58,-7.49884 L 378.937,-7.895 L 379.368,-8.20836 L 379.855,-8.42519 L 380.376,-8.53603
 L 380.909,-8.53603 L 381.431,-8.42519 L 381.918,-8.20836 L 382.349,-7.895 L 382.706,-7.49884 L 382.972,-7.03717
 L 383.137,-6.53017 L 383.193,-6 L 383.193,-0 L 564.664,-0 L 564.664,-6 L 564.72,-6.53017
 L 564.885,-7.03717 L 565.151,-7.49884 L 565.508,-7.895 L 565.939,-8.20836 L 566.426,-8.42519 L 566.948,-8.53603
 L 567.481,-8.53603 L 568.002,-8.42519 L 568.489,-8.20836 L 568.921,-7.895 L 569.277,-7.49884 L 569.544,-7.03717
 L 569.709,-6.53017 L 569.764,-6 L 569.764,-0 L 751.236,-0 L 751.236,-6 L 751.291,-6.53017
 L 751.456,-7.03717 L 751.723,-7.49884 L 752.079,-7.895 L 752.511,-8.20836 L 752.998,-8.42519 L 753.519,-8.53603
 L 754.052,-8.53603 L 754.574,-8.42519 L 755.061,-8.20836 L 755.492,-7.895 L 755.849,-7.49884 L 756.115,-7.03717
 L 756.28,-6.53017 L 756.336,-6 L 756.336,-0 L 937.807,-0 L 937.807,-6 L 937.863,-6.53017
 L 938.028,-7.03717 L 938.294,-7.49884 L 938.651,-7.895 L 939.082,-8.20836 L 939.569,-8.42519 L 940.091,-8.53603
 L 940.624,-8.53603 L 941.145,-8.42519 L 941.632,-8.20836 L 942.063,-7.895 L 942.42,-7.49884 L 942.687,-7.03717
 L 942.851,-6.53017 L 942.907,-6 L 942.907,-0 L 1124.38,-0 L 1124.38,-6 L 1124.43,-6.53017
 L 1124.6,-7.03717 L 1124.87,-7.49884 L 1125.22,-7.895 L 1125.65,-8.20836 L 1126.14,-8.42519 L 1126.66,-8.53603
 L 1127.2,-8.53603 L 1127.72,-8.42519 L 1128.2,-8.20836 L 1128.63,-7.895 L 1128.99,-7.49884 L 1129.26,-7.03717
 L 1129.42,-6.53017 L 1129.48,-6 L 1129.48,-0 L 1310.95,-0 L 1310.95,-6 L 1311.01,-6.53017
 L 1311.17,-7.03717 L 1311.44,-7.49884 L 1311.79,-7.895 L 1312.22,-8.20836 L 1312.71,-8.42519 L 1313.23,-8.53603
 L 1313.77,-8.53603 L 1314.29,-8.42519 L 1314.77,-8.20836 L 1315.21,-7.895 L 1315.56,-7.49884 L 1315.83,-7.03717
 L 1315.99,-6.53017 L 1316.05,-6 L 1316.05,-0 L 1321,-0 z
M 6.98573,-55.607 L 6.47708,-55.6875 L 5.97964,-55.8208 L 5.49887,-56.0054 L 5.04001,-56.2392 L 4.60811,-56.5196
 L 4.20789,-56.8437 L 3.84373,-57.2079 L 3.51964,-57.6081 L 3.23917,-58.04 L 3.00537,-58.4989 L 2.82082,-58.9796
 L 2.68752,-59.4771 L 2.60696,-59.9857 L 2.58,-60.5 L 2.60696,-61.0143 L 2.68752,-61.5229 L 2.82082,-62.0204
 L 3.00537,-62.5011 L 3.23917,-62.96 L 3.51964,-63.3919 L 3.84373,-63.7921 L 4.20789,-64.1563 L 4.60811,-64.4804
 L 4.95001,-64.7024 L 4.95001,-74 L 5.00574,-74.5302 L 5.17047,-75.0372 L 5.43701,-75.4988 L 5.79373,-75.895
 L 6.22501,-76.2084 L 6.71202,-76.4252 L 7.23346,-76.536 L 7.76654,-76.536 L 8.28798,-76.4252 L 8.77499,-76.2084
 L 9.20627,-75.895 L 9.56299,-75.4988 L 9.82953,-75.0372 L 9.99426,-74.5302 L 10.05,-74 L 10.05,-64.7024
 L 10.3919,-64.4804 L 10.7921,-64.1563 L 11.1563,-63.7921 L 11.4804,-63.3919 L 11.7608,-62.96 L 11.9946,-62.5011
 L 12.1792,-62.0204 L 12.3125,-61.5229 L 12.393,-61.0143 L 12.42,-60.5 L 12.393,-59.9857 L 12.3125,-59.4771
 L 12.1792,-58.9796 L 11.9946,-58.4989 L 11.7608,-58.04 L 11.4804,-57.6081 L 11.1563,-57.2079 L 10.7921,-56.8437
 L 10.3919,-56.5196 L 9.95999,-56.2392 L 9.50113,-56.0054 L 9.02036,-55.8208 L 8.52292,-55.6875 L 8.01427,-55.607
 L 7.5,-55.58 z
M 193.557,-55.607 L 193.049,-55.6875 L 192.551,-55.8208 L 192.07,-56.0054 L 191.611,-56.2392 L 191.18,-56.5196
 L 190.779,-56.8437 L 190.415,-57.2079 L 190.091,-57.6081 L 189.811,-58.04 L 189.577,-58.4989 L 189.392,-58.9796
 L 189.259,-59.4771 L 189.178,-59.9857 L 189.151,-60.5 L 189.178,-61.0143 L 189.259,-61.5229 L 189.392,-62.0204
 L 189.577,-62.5011 L 189.811,-62.96 L 190.091,-63.3919 L 190.415,-63.7921 L 190.779,-64.1563 L 191.18,-64.4804
 L 191.521,-64.7024 L 191.521,-74 L 191.577,-74.5302 L 191.742,-75.0372 L 192.008,-75.4988 L 192.365,-75.895
 L 192.796,-76.2084 L 193.283,-76.4252 L 193.805,-76.536 L 194.338,-76.536 L 194.859,-76.4252 L 195.346,-76.2084
 L 195.778,-75.895 L 196.134,-75.4988 L 196.401,-75.0372 L 196.566,-74.5302 L 196.621,-74 L 196.621,-64.7024
 L 196.963,-64.4804 L 197.364,-64.1563 L 197.728,-63.7921 L 198.052,-63.3919 L 198.332,-62.96 L 198.566,-62.5011
 L 198.751,-62.0204 L 198.884,-61.5229 L 198.964,-61.0143 L 198.991,-60.5 L 198.964,-59.9857 L 198.884,-59.4771
 L 198.751,-58.9796 L 198.566,-58.4989 L 198.332,-58.04 L 198.052,-57.6081 L 197.728,-57.2079 L 197.364,-56.8437
 L 196.963,-56.5196 L 196.531,-56.2392 L 196.073,-56.0054 L 195.592,-55.8208 L 195.094,-55.6875 L 194.586,-55.607
 L 194.071,-55.58 z
M 380.129,-55.607 L 379.62,-55.6875 L 379.122,-55.8208 L 378.642,-56.0054 L 378.183,-56.2392 L 377.751,-56.5196
 L 377.351,-56.8437 L 376.987,-57.2079 L 376.662,-57.6081 L 376.382,-58.04 L 376.148,-58.4989 L 375.964,-58.9796
 L 375.83,-59.4771 L 375.75,-59.9857 L 375.723,-60.5 L 375.75,-61.0143 L 375.83,-61.5229 L 375.964,-62.0204
 L 376.148,-62.5011 L 376.382,-62.96 L 376.662,-63.3919 L 376.987,-63.7921 L 377.351,-64.1563 L 377.751,-64.4804
 L 378.093,-64.7024 L 378.093,-74 L 378.149,-74.5302 L 378.313,-75.0372 L 378.58,-75.4988 L 378.937,-75.895
 L 379.368,-76.2084 L 379.855,-76.4252 L 380.376,-76.536 L 380.909,-76.536 L 381.431,-76.4252 L 381.918,-76.2084
 L 382.349,-75.895 L 382.706,-75.4988 L 382.972,-75.0372 L 383.137,-74.5302 L 383.193,-74 L 383.193,-64.7024
 L 383.535,-64.4804 L 383.935,-64.1563 L 384.299,-63.7921 L 384.623,-63.3919 L 384.904,-62.96 L 385.137,-62.5011
 L 385.322,-62.0204 L 385.455,-61.5229 L 385.536,-61.0143 L 385.563,-60.5 L 385.536,-59.9857 L 385.455,-59.4771
 L 385.322,-58.9796 L 385.137,-58.4989 L 384.904,-58.04 L 384.623,-57.6081 L 384.299,-57.2079 L 383.935,-56.8437
 L 383.535,-56.5196 L 383.103,-56.2392 L 382.644,-56.0054 L 382.163,-55.8208 L 381.666,-55.6875 L 381.157,-55.607
 L 380.643,-55.58 z
M 566.7,-55.607 L 566.191,-55.6875 L 565.694,-55.8208 L 565.213,-56.0054 L 564.754,-56.2392 L 564.322,-56.5196
 L 563.922,-56.8437 L 563.558,-57.2079 L 563.234,-57.6081 L 562.953,-58.04 L 562.72,-58.4989 L 562.535,-58.9796
 L 562.402,-59.4771 L 562.321,-59.9857 L 562.294,-60.5 L 562.321,-61.0143 L 562.402,-61.5229 L 562.535,-62.0204
 L 562.72,-62.5011 L 562.953,-62.96 L 563.234,-63.3919 L 563.558,-63.7921 L 563.922,-64.1563 L 564.322,-64.4804
 L 564.664,-64.7024 L 564.664,-74 L 564.72,-74.5302 L 564.885,-75.0372 L 565.151,-75.4988 L 565.508,-75.895
 L 565.939,-76.2084 L 566.426,-76.4252 L 566.948,-76.536 L 567.481,-76.536 L 568.002,-76.4252 L 568.489,-76.2084
 L 568.921,-75.895 L 569.277,-75.4988 L 569.544,-75.0372 L 569.709,-74.5302 L 569.764,-74 L 569.764,-64.7024
 L 570.106,-64.4804 L 570.506,-64.1563 L 570.871,-63.7921 L 571.195,-63.3919 L 571.475,-62.96 L 571.709,-62.5011
 L 571.893,-62.0204 L 572.027,-61.5229 L 572.107,-61.0143 L 572.134,-60.5 L 572.107,-59.9857 L 572.027,-59.4771
 L 571.893,-58.9796 L 571.709,-58.4989 L 571.475,-58.04 L 571.195,-57.6081 L 570.871,-57.2079 L 570.506,-56.8437
 L 570.106,-56.5196 L 569.674,-56.2392 L 569.215,-56.0054 L 568.735,-55.8208 L 568.237,-55.6875 L 567.729,-55.607
 L 567.214,-55.58 z
M 753.271,-55.607 L 752.763,-55.6875 L 752.265,-55.8208 L 751.785,-56.0054 L 751.326,-56.2392 L 750.894,-56.5196
 L 750.494,-56.8437 L 750.129,-57.2079 L 749.805,-57.6081 L 749.525,-58.04 L 749.291,-58.4989 L 749.107,-58.9796
 L 748.973,-59.4771 L 748.893,-59.9857 L 748.866,-60.5 L 748.893,-61.0143 L 748.973,-61.5229 L 749.107,-62.0204
 L 749.291,-62.5011 L 749.525,-62.96 L 749.805,-63.3919 L 750.129,-63.7921 L 750.494,-64.1563 L 750.894,-64.4804
 L 751.236,-64.7024 L 751.236,-74 L 751.291,-74.5302 L 751.456,-75.0372 L 751.723,-75.4988 L 752.079,-75.895
 L 752.511,-76.2084 L 752.998,-76.4252 L 753.519,-76.536 L 754.052,-76.536 L 754.574,-76.4252 L 755.061,-76.2084
 L 755.492,-75.895 L 755.849,-75.4988 L 756.115,-75.0372 L 756.28,-74.5302 L 756.336,-74 L 756.336,-64.7024
 L 756.678,-64.4804 L 757.078,-64.1563 L 757.442,-63.7921 L 757.766,-63.3919 L 758.047,-62.96 L 758.28,-62.5011
 L 758.465,-62.0204 L 758.598,-61.5229 L 758.679,-61.0143 L 758.706,-60.5 L 758.679,-59.9857 L 758.598,-59.4771
 L 758.465,-58.9796 L 758.28,-58.4989 L 758.047,-58.04 L 757.766,-57.6081 L 757.442,-57.2079 L 757.078,-56.8437
 L 756.678,-56.5196 L 756.246,-56.2392 L 755.787,-56.0054 L 755.306,-55.8208 L 754.809,-55.6875 L 754.3,-55.607
 L 753.786,-55.58 z
M 939.843,-55.607 L 939.334,-55.6875 L 938.837,-55.8208 L 938.356,-56.0054 L 937.897,-56.2392 L 937.465,-56.5196
 L 937.065,-56.8437 L 936.701,-57.2079 L 936.377,-57.6081 L 936.096,-58.04 L 935.863,-58.4989 L 935.678,-58.9796
 L 935.545,-59.4771 L 935.464,-59.9857 L 935.437,-60.5 L 935.464,-61.0143 L 935.545,-61.5229 L 935.678,-62.0204
 L 935.863,-62.5011 L 936.096,-62.96 L 936.377,-63.3919 L 936.701,-63.7921 L 937.065,-64.1563 L 937.465,-64.4804
 L 937.807,-64.7024 L 937.807,-74 L 937.863,-74.5302 L 938.028,-75.0372 L 938.294,-75.4988 L 938.651,-75.895
 L 939.082,-76.2084 L 939.569,-76.4252 L 940.091,-76.536 L 940.624,-76.536 L 941.145,-76.4252 L 941.632,-76.2084
 L 942.063,-75.895 L 942.42,-75.4988 L 942.687,-75.0372 L 942.851,-74.5302 L 942.907,-74 L 942.907,-64.7024
 L 943.249,-64.4804 L 943.649,-64.1563 L 944.013,-63.7921 L 944.337,-63.3919 L 944.618,-62.96 L 944.852,-62.5011
 L 945.036,-62.0204 L 945.17,-61.5229 L 945.25,-61.0143 L 945.277,-60.5 L 945.25,-59.9857 L 945.17,-59.4771
 L 945.036,-58.9796 L 944.852,-58.4989 L 944.618,-58.04 L 944.337,-57.6081 L 944.013,-57.2079 L 943.649,-56.8437
 L 943.249,-56.5196 L 942.817,-56.2392 L 942.358,-56.0054 L 941.877,-55.8208 L 941.38,-55.6875 L 940.871,-55.607
 L 940.357,-55.58 z
M 1126.41,-55.607 L 1125.91,-55.6875 L 1125.41,-55.8208 L 1124.93,-56.0054 L 1124.47,-56.2392 L 1124.04,-56.5196
 L 1123.64,-56.8437 L 1123.27,-57.2079 L 1122.95,-57.6081 L 1122.67,-58.04 L 1122.43,-58.4989 L 1122.25,-58.9796
 L 1122.12,-59.4771 L 1122.04,-59.9857 L 1122.01,-60.5 L 1122.04,-61.0143 L 1122.12,-61.5229 L 1122.25,-62.0204
 L 1122.43,-62.5011 L 1122.67,-62.96 L 1122.95,-63.3919 L 1123.27,-63.7921 L 1123.64,-64.1563 L 1124.04,-64.4804
 L 1124.38,-64.7024 L 1124.38,-74 L 1124.43,-74.5302 L 1124.6,-75.0372 L 1124.87,-75.4988 L 1125.22,-75.895
 L 1125.65,-76.2084 L 1126.14,-76.4252 L 1126.66,-76.536 L 1127.2,-76.536 L 1127.72,-76.4252 L 1128.2,-76.2084
 L 1128.63,-75.895 L 1128.99,-75.4988 L 1129.26,-75.0372 L 1129.42,-74.5302 L 1129.48,-74 L 1129.48,-64.7024
 L 1129.82,-64.4804 L 1130.22,-64.1563 L 1130.58,-63.7921 L 1130.91,-63.3919 L 1131.19,-62.96 L 1131.42,-62.5011
 L 1131.61,-62.0204 L 1131.74,-61.5229 L 1131.82,-61.0143 L 1131.85,-60.5 L 1131.82,-59.9857 L 1131.74,-59.4771
 L 1131.61,-58.9796 L 1131.42,-58.4989 L 1131.19,-58.04 L 1130.91,-57.6081 L 1130.58,-57.2079 L 1130.22,-56.8437
 L 1129.82,-56.5196 L 1129.39,-56.2392 L 1128.93,-56.0054 L 1128.45,-55.8208 L 1127.95,-55.6875 L 1127.44,-55.607
 L 1126.93,-55.58 z
M 1312.99,-55.607 L 1312.48,-55.6875 L 1311.98,-55.8208 L 1311.5,-56.0054 L 1311.04,-56.2392 L 1310.61,-56.5196
 L 1310.21,-56.8437 L 1309.84,-57.2079 L 1309.52,-57.6081 L 1309.24,-58.04 L 1309.01,-58.4989 L 1308.82,-58.9796
 L 1308.69,-59.4771 L 1308.61,-59.9857 L 1308.58,-60.5 L 1308.61,-61.0143 L 1308.69,-61.5229 L 1308.82,-62.0204
 L 1309.01,-62.5011 L 1309.24,-62.96 L 1309.52,-63.3919 L 1309.84,-63.7921 L 1310.21,-64.1563 L 1310.61,-64.4804
 L 1310.95,-64.7024 L 1310.95,-74 L 1311.01,-74.5302 L 1311.17,-75.0372 L 1311.44,-75.4988 L 1311.79,-75.895
 L 1312.23,-76.2084 L 1312.71,-76.4252 L 1313.23,-76.536 L 1313.77,-76.536 L 1314.29,-76.4252 L 1314.77,-76.2084
 L 1315.21,-75.895 L 1315.56,-75.4988 L 1315.83,-75.0372 L 1315.99,-74.5302 L 1316.05,-74 L 1316.05,-64.7024
 L 1316.39,-64.4804 L 1316.79,-64.1563 L 1317.16,-63.7921 L 1317.48,-63.3919 L 1317.76,-62.96 L 1317.99,-62.5011
 L 1318.18,-62.0204 L 1318.31,-61.5229 L 1318.39,-61.0143 L 1318.42,-60.5 L 1318.39,-59.9857 L 1318.31,-59.4771
 L 1318.18,-58.9796 L 1317.99,-58.4989 L 1317.76,-58.04 L 1317.48,-57.6081 L 1317.16,-57.2079 L 1316.79,-56.8437
 L 1316.39,-56.5196 L 1315.96,-56.2392 L 1315.5,-56.0054 L 1315.02,-55.8208 L 1314.52,-55.6875 L 1314.01,-55.607
 L 1313.5,-55.58 z
M 765.685,-20.7205 L 764.909,-21.0334 L 764.216,-21.5007 L 763.635,-22.102 L 763.191,-22.8109 L 762.905,-23.5966
 L 762.786,-24.566 L 762.786,-58 L 762.873,-58.8316 L 763.132,-59.627 L 763.55,-60.3511 L 764.109,-60.9726
 L 764.786,-61.4641 L 765.55,-61.8042 L 766.786,-62 L 858.518,-62 L 859.35,-61.9126 L 860.145,-61.6542
 L 860.87,-61.2361 L 861.491,-60.6765 L 861.983,-60 L 862.323,-59.2361 L 862.497,-58.4181 L 862.497,-57.5819
 L 862.323,-56.7639 L 861.983,-56 L 861.491,-55.3235 L 860.87,-54.7639 L 859.888,-54.2418 L 768.155,-20.8078
 L 767.344,-20.6052 L 766.508,-20.5756 z
M 659.942,-47.7397 L 659.13,-47.9424 L 641.846,-54.2418 L 640.865,-54.7639 L 640.244,-55.3235 L 639.752,-56
 L 639.412,-56.7639 L 639.238,-57.5819 L 639.238,-58.4181 L 639.412,-59.2361 L 639.752,-60 L 640.244,-60.6765
 L 640.865,-61.2361 L 641.589,-61.6542 L 642.384,-61.9126 L 643.216,-62 L 677.784,-62 L 678.885,-61.8455
 L 679.66,-61.5326 L 680.354,-61.0653 L 680.935,-60.464 L 681.378,-59.7551 L 681.665,-58.9694 L 681.781,-58.1414
 L 681.723,-57.3071 L 681.493,-56.5032 L 681.101,-55.7647 L 680.564,-55.1239 L 679.905,-54.6087 L 679.154,-54.2418
 L 661.87,-47.9424 L 660.777,-47.7101 z
M 553.656,-20.6052 L 552.845,-20.8078 L 461.112,-54.2418 L 460.13,-54.7639 L 459.509,-55.3235 L 459.017,-56
 L 458.677,-56.7639 L 458.503,-57.5819 L 458.503,-58.4181 L 458.677,-59.2361 L 459.017,-60 L 459.509,-60.6765
 L 460.13,-61.2361 L 460.855,-61.6542 L 461.65,-61.9126 L 462.482,-62 L 554.214,-62 L 555.45,-61.8042
 L 556.214,-61.4641 L 556.891,-60.9726 L 557.45,-60.3511 L 557.868,-59.627 L 558.127,-58.8316 L 558.214,-58
 L 558.214,-24.566 L 558.095,-23.5966 L 557.809,-22.8109 L 557.365,-22.102 L 556.784,-21.5007 L 556.091,-21.0334
 L 555.315,-20.7205 L 554.492,-20.5756 z
M 367.084,-20.6052 L 366.273,-20.8078 L 274.54,-54.2418 L 273.559,-54.7639 L 272.938,-55.3235 L 272.446,-56
 L 272.106,-56.7639 L 271.932,-57.5819 L 271.932,-58.4181 L 272.106,-59.2361 L 272.446,-60 L 272.938,-60.6765
 L 273.559,-61.2361 L 274.283,-61.6542 L 275.078,-61.9126 L 275.91,-62 L 367.643,-62 L 368.879,-61.8042
 L 369.643,-61.4641 L 370.319,-60.9726 L 370.879,-60.3511 L 371.297,-59.627 L 371.555,-58.8316 L 371.643,-58
 L 371.643,-24.566 L 371.524,-23.5966 L 371.237,-22.8109 L 370.794,-22.102 L 370.213,-21.5007 L 369.519,-21.0334
 L 368.744,-20.7205 L 367.92,-20.5756 z
M 1138.83,-20.7205 L 1138.05,-21.0334 L 1137.36,-21.5007 L 1136.78,-22.102 L 1136.33,-22.8109 L 1136.05,-23.5966
 L 1135.93,-24.566 L 1135.93,-58 L 1136.02,-58.8316 L 1136.27,-59.627 L 1136.69,-60.3511 L 1137.25,-60.9726
 L 1137.93,-61.4641 L 1138.69,-61.8042 L 1139.93,-62 L 1231.66,-62 L 1232.49,-61.9126 L 1233.29,-61.6542
 L 1234.01,-61.2361 L 1234.63,-60.6765 L 1235.13,-60 L 1235.47,-59.2361 L 1235.64,-58.4181 L 1235.64,-57.5819
 L 1235.47,-56.7639 L 1235.13,-56 L 1234.63,-55.3235 L 1234.01,-54.7639 L 1233.03,-54.2418 L 1141.3,-20.8078
 L 1140.49,-20.6052 L 1139.65,-20.5756 z
M 180.513,-20.6052 L 179.702,-20.8078 L 87.9689,-54.2418 L 86.9875,-54.7639 L 86.3661,-55.3235 L 85.8746,-56
 L 85.5345,-56.7639 L 85.3606,-57.5819 L 85.3606,-58.4181 L 85.5345,-59.2361 L 85.8746,-60 L 86.3661,-60.6765
 L 86.9875,-61.2361 L 87.7117,-61.6542 L 88.507,-61.9126 L 89.3387,-62 L 181.071,-62 L 182.307,-61.8042
 L 183.071,-61.4641 L 183.748,-60.9726 L 184.307,-60.3511 L 184.726,-59.627 L 184.984,-58.8316 L 185.071,-58
 L 185.071,-24.566 L 184.952,-23.5966 L 184.666,-22.8109 L 184.222,-22.102 L 183.641,-21.5007 L 182.948,-21.0334
 L 182.172,-20.7205 L 181.349,-20.5756 z
M 952.256,-20.7205 L 951.481,-21.0334 L 950.787,-21.5007 L 950.206,-22.102 L 949.763,-22.8109 L 949.476,-23.5966
 L 949.357,-24.566 L 949.357,-58 L 949.445,-58.8316 L 949.703,-59.627 L 950.121,-60.3511 L 950.681,-60.9726
 L 951.357,-61.4641 L 952.121,-61.8042 L 953.357,-62 L 1045.09,-62 L 1045.92,-61.9126 L 1046.72,-61.6542
 L 1047.44,-61.2361 L 1048.06,-60.6765 L 1048.55,-60 L 1048.89,-59.2361 L 1049.07,-58.4181 L 1049.07,-57.5819
 L 1048.89,-56.7639 L 1048.55,-56 L 1048.06,-55.3235 L 1047.44,-54.7639 L 1046.46,-54.2418 L 954.727,-20.8078
 L 953.916,-20.6052 L 953.08,-20.5756 z
M 579.796,-18.4606 L 578.978,-18.6344 L 578.214,-18.9746 L 577.538,-19.4661 L 576.978,-20.0875 L 576.56,-20.8117
 L 576.302,-21.607 L 576.214,-22.4387 L 576.214,-57.5613 L 576.334,-58.5307 L 576.62,-59.3164 L 577.063,-60.0254
 L 577.644,-60.6267 L 578.338,-61.094 L 579.113,-61.4069 L 579.937,-61.5517 L 580.773,-61.5222 L 581.584,-61.3195
 L 629.767,-43.7582 L 630.274,-43.5326 L 630.967,-43.0653 L 631.548,-42.464 L 631.992,-41.7551 L 632.278,-40.9694
 L 632.395,-40.1414 L 632.337,-39.3071 L 632.107,-38.5032 L 631.714,-37.7647 L 631.177,-37.1239 L 630.518,-36.6087
 L 629.767,-36.2418 L 581.584,-18.6805 L 580.632,-18.4606 z
M 740.227,-18.4778 L 739.416,-18.6805 L 691.233,-36.2418 L 690.726,-36.4674 L 690.033,-36.9347 L 689.452,-37.536
 L 689.008,-38.2449 L 688.722,-39.0306 L 688.605,-39.8586 L 688.663,-40.6929 L 688.893,-41.4968 L 689.286,-42.2353
 L 689.823,-42.8761 L 690.481,-43.3913 L 691.233,-43.7582 L 739.416,-61.3195 L 740.368,-61.5394 L 741.204,-61.5394
 L 742.022,-61.3656 L 742.786,-61.0255 L 743.462,-60.5339 L 744.022,-59.9125 L 744.44,-59.1883 L 744.698,-58.393
 L 744.786,-57.5614 L 744.786,-22.4386 L 744.666,-21.4692 L 744.38,-20.6836 L 743.937,-19.9746 L 743.355,-19.3733
 L 742.662,-18.906 L 741.887,-18.5931 L 741.063,-18.4483 z
M 207.071,-18 L 205.835,-18.1958 L 205.071,-18.5359 L 204.395,-19.0274 L 203.835,-19.6489 L 203.417,-20.373
 L 203.159,-21.1684 L 203.071,-22 L 203.071,-55.434 L 203.191,-56.4034 L 203.477,-57.1891 L 203.92,-57.898
 L 204.502,-58.4993 L 205.195,-58.9666 L 205.971,-59.2795 L 206.794,-59.4244 L 207.63,-59.3948 L 208.441,-59.1921
 L 300.174,-25.7582 L 301.155,-25.2361 L 301.777,-24.6765 L 302.268,-24 L 302.608,-23.2361 L 302.782,-22.4181
 L 302.782,-21.5819 L 302.608,-20.7639 L 302.268,-20 L 301.777,-19.3235 L 301.155,-18.7639 L 300.431,-18.3458
 L 299.636,-18.0874 L 298.804,-18 z
M 393.643,-18 L 392.407,-18.1958 L 391.643,-18.5359 L 390.966,-19.0274 L 390.407,-19.6489 L 389.989,-20.373
 L 389.73,-21.1684 L 389.643,-22 L 389.643,-55.434 L 389.762,-56.4034 L 390.048,-57.1891 L 390.492,-57.898
 L 391.073,-58.4993 L 391.767,-58.9666 L 392.542,-59.2795 L 393.366,-59.4244 L 394.201,-59.3948 L 395.013,-59.1921
 L 486.745,-25.7582 L 487.727,-25.2361 L 488.348,-24.6765 L 488.84,-24 L 489.18,-23.2361 L 489.354,-22.4181
 L 489.354,-21.5819 L 489.18,-20.7639 L 488.84,-20 L 488.348,-19.3235 L 487.727,-18.7639 L 487.003,-18.3458
 L 486.207,-18.0874 L 485.376,-18 z
M 835.624,-18 L 834.793,-18.0874 L 833.997,-18.3458 L 833.273,-18.7639 L 832.652,-19.3235 L 832.16,-20
 L 831.82,-20.7639 L 831.646,-21.5819 L 831.646,-22.4181 L 831.82,-23.2361 L 832.16,-24 L 832.652,-24.6765
 L 833.273,-25.2361 L 834.255,-25.7582 L 925.987,-59.1921 L 926.799,-59.3948 L 927.634,-59.4244 L 928.458,-59.2795
 L 929.233,-58.9666 L 929.927,-58.4993 L 930.508,-57.898 L 930.952,-57.1891 L 931.238,-56.4034 L 931.357,-55.434
 L 931.357,-22 L 931.27,-21.1684 L 931.011,-20.373 L 930.593,-19.6489 L 930.034,-19.0274 L 929.357,-18.5359
 L 928.593,-18.1958 L 927.357,-18 z
M 1022.2,-18 L 1021.36,-18.0874 L 1020.57,-18.3458 L 1019.84,-18.7639 L 1019.22,-19.3235 L 1018.73,-20
 L 1018.39,-20.7639 L 1018.22,-21.5819 L 1018.22,-22.4181 L 1018.39,-23.2361 L 1018.73,-24 L 1019.22,-24.6765
 L 1019.84,-25.2361 L 1020.83,-25.7582 L 1112.56,-59.1921 L 1113.37,-59.3948 L 1114.21,-59.4244 L 1115.03,-59.2795
 L 1115.8,-58.9666 L 1116.5,-58.4993 L 1117.08,-57.898 L 1117.52,-57.1891 L 1117.81,-56.4034 L 1117.93,-55.434
 L 1117.93,-22 L 1117.84,-21.1684 L 1117.58,-20.373 L 1117.16,-19.6489 L 1116.61,-19.0274 L 1115.93,-18.5359
 L 1115.16,-18.1958 L 1113.93,-18 z
M 22,-18 L 20.7639,-18.1958 L 20,-18.5359 L 19.3235,-19.0274 L 18.7639,-19.6489 L 18.3458,-20.373
 L 18.0874,-21.1684 L 18,-22 L 18,-54.8873 L 18.1192,-55.8567 L 18.4056,-56.6423 L 18.849,-57.3513
 L 19.4302,-57.9526 L 20.1237,-58.4199 L 20.8992,-58.7328 L 21.7227,-58.8777 L 22.5584,-58.8481 L 23.3698,-58.6454
 L 113.602,-25.7582 L 114.584,-25.2361 L 115.205,-24.6765 L 115.697,-24 L 116.037,-23.2361 L 116.211,-22.4181
 L 116.211,-21.5819 L 116.037,-20.7639 L 115.697,-20 L 115.205,-19.3235 L 114.584,-18.7639 L 113.86,-18.3458
 L 113.064,-18.0874 L 112.233,-18 z
M 1208.77,-18 L 1207.94,-18.0874 L 1207.14,-18.3458 L 1206.42,-18.7639 L 1205.79,-19.3235 L 1205.3,-20
 L 1204.96,-20.7639 L 1204.79,-21.5819 L 1204.79,-22.4181 L 1204.96,-23.2361 L 1205.3,-24 L 1205.79,-24.6765
 L 1206.42,-25.2361 L 1207.4,-25.7582 L 1297.63,-58.6454 L 1298.44,-58.8481 L 1299.28,-58.8777 L 1300.1,-58.7328
 L 1300.88,-58.4199 L 1301.57,-57.9526 L 1302.15,-57.3513 L 1302.59,-56.6423 L 1302.88,-55.8567 L 1303,-54.8873
 L 1303,-22 L 1302.91,-21.1684 L 1302.65,-20.373 L 1302.24,-19.6489 L 1301.68,-19.0274 L 1301,-18.5359
 L 1300.24,-18.1958 L 1299,-18 z
M 643.216,-18 L 642.115,-18.1545 L 641.34,-18.4674 L 640.646,-18.9347 L 640.065,-19.536 L 639.622,-20.2449
 L 639.335,-21.0306 L 639.219,-21.8586 L 639.277,-22.6929 L 639.507,-23.4968 L 639.899,-24.2353 L 640.436,-24.8761
 L 641.095,-25.3913 L 641.846,-25.7582 L 659.13,-32.0576 L 660.223,-32.2899 L 661.058,-32.2603 L 661.87,-32.0576
 L 679.154,-25.7582 L 680.135,-25.2361 L 680.756,-24.6765 L 681.248,-24 L 681.588,-23.2361 L 681.762,-22.4181
 L 681.762,-21.5819 L 681.588,-20.7639 L 681.248,-20 L 680.756,-19.3235 L 680.135,-18.7639 L 679.411,-18.3458
 L 678.616,-18.0874 L 677.784,-18 z
" stroke="black" fill="lightgray" stroke-width="0.5"/>
</svg>
