<?xml version="1.0" standalone="no"?>
<!DOCTYPE svg PUBLIC "-//W3C//DTD SVG 1.1//EN" "http://www.w3.org/Graphics/SVG/1.1/DTD/svg11.dtd">
<svg width="1333mm" height="80mm" viewBox="0 -80 1333 80" xmlns="http://www.w3.org/2000/svg" version="1.1">
<title>OpenSCAD Model</title>
<path d="
M 1333,-80 L 0,-80 L 0,-0 L 4.95,-0 L 4.95,-6 L 5.00572,-6.53017
 L 5.17046,-7.03717 L 5.437,-7.49884 L 5.79372,-7.895 L 6.22499,-8.20836 L 6.71201,-8.42519 L 7.23344,-8.53603
 L 7.76654,-8.53603 L 8.28798,-8.42519 L 8.77499,-8.20836 L 9.20627,-7.895 L 9.56299,-7.49884 L 9.82953,-7.03717
 L 9.99426,-6.53017 L 10.05,-6 L 10.05,-0 L 193.236,-0 L 193.236,-6 L 193.291,-6.53017
 L 193.456,-7.03717 L 193.723,-7.49884 L 194.079,-7.895 L 194.511,-8.20836 L 194.998,-8.42519 L 195.519,-8.53603
 L 196.052,-8.53603 L 196.574,-8.42519 L 197.061,-8.20836 L 197.492,-7.895 L 197.849,-7.49884 L 198.115,-7.03717
 L 198.28,-6.53017 L 198.336,-6 L 198.336,-0 L 381.521,-0 L 381.521,-6 L 381.577,-6.53017
 L 381.742,-7.03717 L 382.008,-7.49884 L 382.365,-7.895 L 382.796,-8.20836 L 383.283,-8.42519 L 383.805,-8.53603
 L 384.338,-8.53603 L 384.859,-8.42519 L 385.346,-8.20836 L 385.778,-7.895 L 386.134,-7.49884 L 386.401,-7.03717
 L 386.566,-6.53017 L 386.621,-6 L 386.621,-0 L 569.807,-0 L 569.807,-6 L 569.863,-6.53017
 L 570.028,-7.03717 L 570.294,-7.49884 L 570.651,-7.895 L 571.082,-8.20836 L 571.569,-8.42519 L 572.091,-8.53603
 L 572.624,-8.53603 L 573.145,-8.42519 L 573.632,-8.20836 L 574.063,-7.895 L 574.42,-7.49884 L 574.687,-7.03717
 L 574.851,-6.53017 L 574.907,-6 L 574.907,-0 L 758.093,-0 L 758.093,-6 L 758.149,-6.53017
 L 758.313,-7.03717 L 758.58,-7.49884 L 758.937,-7.895 L 759.368,-8.20836 L 759.855,-8.42519 L 760.376,-8.53603
 L 760.909,-8.53603 L 761.431,-8.42519 L 761.918,-8.20836 L 762.349,-7.895 L 762.706,-7.49884 L 762.972,-7.03717
 L 763.137,-6.53017 L 763.193,-6 L 763.193,-0 L 946.379,-0 L 946.379,-6 L 946.434,-6.53017
 L 946.599,-7.03717 L 946.866,-7.49884 L 947.222,-7.895 L 947.654,-8.20836 L 948.141,-8.42519 L 948.662,-8.53603
 L 949.195,-8.53603 L 949.717,-8.42519 L 950.204,-8.20836 L 950.635,-7.895 L 950.992,-7.49884 L 951.258,-7.03717
 L 951.423,-6.53017 L 951.479,-6 L 951.479,-0 L 1134.66,-0 L 1134.66,-6 L 1134.72,-6.53017
 L 1134.88,-7.03717 L 1135.15,-7.49884 L 1135.51,-7.895 L 1135.94,-8.20836 L 1136.43,-8.42519 L 1136.95,-8.53603
 L 1137.48,-8.53603 L 1138,-8.42519 L 1138.49,-8.20836 L 1138.92,-7.895 L 1139.28,-7.49884 L 1139.54,-7.03717
 L 1139.71,-6.53017 L 1139.76,-6 L 1139.76,-0 L 1322.95,-0 L 1322.95,-6 L 1323.01,-6.53017
 L 1323.17,-7.03717 L 1323.44,-7.49884 L 1323.79,-7.895 L 1324.22,-8.20836 L 1324.71,-8.42519 L 1325.23,-8.53603
 L 1325.77,-8.53603 L 1326.29,-8.42519 L 1326.77,-8.20836 L 1327.21,-7.895 L 1327.56,-7.49884 L 1327.83,-7.03717
 L 1327.99,-6.53017 L 1328.05,-6 L 1328.05,-0 L 1333,-0 z
M 6.98573,-55.607 L 6.47708,-55.6875 L 5.97964,-55.8208 L 5.49887,-56.0054 L 5.04001,-56.2392 L 4.60811,-56.5196
 L 4.20789,-56.8437 L 3.84373,-57.2079 L 3.51964,-57.6081 L 3.23917,-58.04 L 3.00537,-58.4989 L 2.82082,-58.9796
 L 2.68752,-59.4771 L 2.60696,-59.9857 L 2.58,-60.5 L 2.60696,-61.0143 L 2.68752,-61.5229 L 2.82082,-62.0204
 L 3.00537,-62.5011 L 3.23917,-62.96 L 3.51964,-63.3919 L 3.84373,-63.7921 L 4.20789,-64.1563 L 4.60811,-64.4804
 L 4.95001,-64.7024 L 4.95001,-74 L 5.00574,-74.5302 L 5.17047,-75.0372 L 5.43701,-75.4988 L 5.79373,-75.895
 L 6.22501,-76.2084 L 6.71202,-76.4252 L 7.23346,-76.536 L 7.76654,-76.536 L 8.28798,-76.4252 L 8.77499,-76.2084
 L 9.20627,-75.895 L 9.56299,-75.4988 L 9.82953,-75.0372 L 9.99426,-74.5302 L 10.05,-74 L 10.05,-64.7024
 L 10.3919,-64.4804 L 10.7921,-64.1563 L 11.1563,-63.7921 L 11.4804,-63.3919 L 11.7608,-62.96 L 11.9946,-62.5011
 L 12.1792,-62.0204 L 12.3125,-61.5229 L 12.393,-61.0143 L 12.42,-60.5 L 12.393,-59.9857 L 12.3125,-59.4771
 L 12.1792,-58.9796 L 11.9946,-58.4989 L 11.7608,-58.04 L 11.4804,-57.6081 L 11.1563,-57.2079 L 10.7921,-56.8437
 L 10.3919,-56.5196 L 9.95999,-56.2392 L 9.50113,-56.0054 L 9.02036,-55.8208 L 8.52292,-55.6875 L 8.01427,-55.607
 L 7.5,-55.58 z
M 195.271,-55.607 L 194.763,-55.6875 L 194.265,-55.8208 L 193.785,-56.0054 L 193.326,-56.2392 L 192.894,-56.5196
 L 192.494,-56.8437 L 192.129,-57.2079 L 191.805,-57.6081 L 191.525,-58.04 L 191.291,-58.4989 L 191.107,-58.9796
 L 190.973,-59.4771 L 190.893,-59.9857 L 190.866,-60.5 L 190.893,-61.0143 L 190.973,-61.5229 L 191.107,-62.0204
 L 191.291,-62.5011 L 191.525,-62.96 L 191.805,-63.3919 L 192.129,-63.7921 L 192.494,-64.1563 L 192.894,-64.4804
 L 193.236,-64.7024 L 193.236,-74 L 193.291,-74.5302 L 193.456,-75.0372 L 193.723,-75.4988 L 194.079,-75.895
 L 194.511,-76.2084 L 194.998,-76.4252 L 195.519,-76.536 L 196.052,-76.536 L 196.574,-76.4252 L 197.061,-76.2084
 L 197.492,-75.895 L 197.849,-75.4988 L 198.115,-75.0372 L 198.28,-74.5302 L 198.336,-74 L 198.336,-64.7024
 L 198.678,-64.4804 L 199.078,-64.1563 L 199.442,-63.7921 L 199.766,-63.3919 L 200.047,-62.96 L 200.28,-62.5011
 L 200.465,-62.0204 L 200.598,-61.5229 L 200.679,-61.0143 L 200.706,-60.5 L 200.679,-59.9857 L 200.598,-59.4771
 L 200.465,-58.9796 L 200.28,-58.4989 L 200.047,-58.04 L 199.766,-57.6081 L 199.442,-57.2079 L 199.078,-56.8437
 L 198.678,-56.5196 L 198.246,-56.2392 L 197.787,-56.0054 L 197.306,-55.8208 L 196.809,-55.6875 L 196.3,-55.607
 L 195.786,-55.58 z
M 383.557,-55.607 L 383.049,-55.6875 L 382.551,-55.8208 L 382.07,-56.0054 L 381.611,-56.2392 L 381.18,-56.5196
 L 380.779,-56.8437 L 380.415,-57.2079 L 380.091,-57.6081 L 379.811,-58.04 L 379.577,-58.4989 L 379.392,-58.9796
 L 379.259,-59.4771 L 379.178,-59.9857 L 379.151,-60.5 L 379.178,-61.0143 L 379.259,-61.5229 L 379.392,-62.0204
 L 379.577,-62.5011 L 379.811,-62.96 L 380.091,-63.3919 L 380.415,-63.7921 L 380.779,-64.1563 L 381.18,-64.4804
 L 381.521,-64.7024 L 381.521,-74 L 381.577,-74.5302 L 381.742,-75.0372 L 382.008,-75.4988 L 382.365,-75.895
 L 382.796,-76.2084 L 383.283,-76.4252 L 383.805,-76.536 L 384.338,-76.536 L 384.859,-76.4252 L 385.346,-76.2084
 L 385.778,-75.895 L 386.134,-75.4988 L 386.401,-75.0372 L 386.566,-74.5302 L 386.621,-74 L 386.621,-64.7024
 L 386.963,-64.4804 L 387.364,-64.1563 L 387.728,-63.7921 L 388.052,-63.3919 L 388.332,-62.96 L 388.566,-62.5011
 L 388.751,-62.0204 L 388.884,-61.5229 L 388.964,-61.0143 L 388.991,-60.5 L 388.964,-59.9857 L 388.884,-59.4771
 L 388.751,-58.9796 L 388.566,-58.4989 L 388.332,-58.04 L 388.052,-57.6081 L 387.728,-57.2079 L 387.364,-56.8437
 L 386.963,-56.5196 L 386.531,-56.2392 L 386.073,-56.0054 L 385.592,-55.8208 L 385.094,-55.6875 L 384.586,-55.607
 L 384.071,-55.58 z
M 571.843,-55.607 L 571.334,-55.6875 L 570.837,-55.8208 L 570.356,-56.0054 L 569.897,-56.2392 L 569.465,-56.5196
 L 569.065,-56.8437 L 568.701,-57.2079 L 568.377,-57.6081 L 568.096,-58.04 L 567.863,-58.4989 L 567.678,-58.9796
 L 567.545,-59.4771 L 567.464,-59.9857 L 567.437,-60.5 L 567.464,-61.0143 L 567.545,-61.5229 L 567.678,-62.0204
 L 567.863,-62.5011 L 568.096,-62.96 L 568.377,-63.3919 L 568.701,-63.7921 L 569.065,-64.1563 L 569.465,-64.4804
 L 569.807,-64.7024 L 569.807,-74 L 569.863,-74.5302 L 570.028,-75.0372 L 570.294,-75.4988 L 570.651,-75.895
 L 571.082,-76.2084 L 571.569,-76.4252 L 572.091,-76.536 L 572.624,-76.536 L 573.145,-76.4252 L 573.632,-76.2084
 L 574.063,-75.895 L 574.42,-75.4988 L 574.687,-75.0372 L 574.851,-74.5302 L 574.907,-74 L 574.907,-64.7024
 L 575.249,-64.4804 L 575.649,-64.1563 L 576.013,-63.7921 L 576.337,-63.3919 L 576.618,-62.96 L 576.852,-62.5011
 L 577.036,-62.0204 L 577.17,-61.5229 L 577.25,-61.0143 L 577.277,-60.5 L 577.25,-59.9857 L 577.17,-59.4771
 L 577.036,-58.9796 L 576.852,-58.4989 L 576.618,-58.04 L 576.337,-57.6081 L 576.013,-57.2079 L 575.649,-56.8437
 L 575.249,-56.5196 L 574.817,-56.2392 L 574.358,-56.0054 L 573.877,-55.8208 L 573.38,-55.6875 L 572.871,-55.607
 L 572.357,-55.58 z
M 760.129,-55.607 L 759.62,-55.6875 L 759.122,-55.8208 L 758.642,-56.0054 L 758.183,-56.2392 L 757.751,-56.5196
 L 757.351,-56.8437 L 756.987,-57.2079 L 756.662,-57.6081 L 756.382,-58.04 L 756.148,-58.4989 L 755.964,-58.9796
 L 755.83,-59.4771 L 755.75,-59.9857 L 755.723,-60.5 L 755.75,-61.0143 L 755.83,-61.5229 L 755.964,-62.0204
 L 756.148,-62.5011 L 756.382,-62.96 L 756.662,-63.3919 L 756.987,-63.7921 L 757.351,-64.1563 L 757.751,-64.4804
 L 758.093,-64.7024 L 758.093,-74 L 758.149,-74.5302 L 758.313,-75.0372 L 758.58,-75.4988 L 758.937,-75.895
 L 759.368,-76.2084 L 759.855,-76.4252 L 760.376,-76.536 L 760.909,-76.536 L 761.431,-76.4252 L 761.918,-76.2084
 L 762.349,-75.895 L 762.706,-75.4988 L 762.972,-75.0372 L 763.137,-74.5302 L 763.193,-74 L 763.193,-64.7024
 L 763.535,-64.4804 L 763.935,-64.1563 L 764.299,-63.7921 L 764.623,-63.3919 L 764.904,-62.96 L 765.137,-62.5011
 L 765.322,-62.0204 L 765.455,-61.5229 L 765.536,-61.0143 L 765.563,-60.5 L 765.536,-59.9857 L 765.455,-59.4771
 L 765.322,-58.9796 L 765.137,-58.4989 L 764.904,-58.04 L 764.623,-57.6081 L 764.299,-57.2079 L 763.935,-56.8437
 L 763.535,-56.5196 L 763.103,-56.2392 L 762.644,-56.0054 L 762.163,-55.8208 L 761.666,-55.6875 L 761.157,-55.607
 L 760.643,-55.58 z
M 948.414,-55.607 L 947.906,-55.6875 L 947.408,-55.8208 L 946.927,-56.0054 L 946.469,-56.2392 L 946.037,-56.5196
 L 945.636,-56.8437 L 945.272,-57.2079 L 944.948,-57.6081 L 944.668,-58.04 L 944.434,-58.4989 L 944.249,-58.9796
 L 944.116,-59.4771 L 944.036,-59.9857 L 944.009,-60.5 L 944.036,-61.0143 L 944.116,-61.5229 L 944.249,-62.0204
 L 944.434,-62.5011 L 944.668,-62.96 L 944.948,-63.3919 L 945.272,-63.7921 L 945.636,-64.1563 L 946.037,-64.4804
 L 946.379,-64.7024 L 946.379,-74 L 946.434,-74.5302 L 946.599,-75.0372 L 946.866,-75.4988 L 947.222,-75.895
 L 947.654,-76.2084 L 948.141,-76.4252 L 948.662,-76.536 L 949.195,-76.536 L 949.717,-76.4252 L 950.204,-76.2084
 L 950.635,-75.895 L 950.992,-75.4988 L 951.258,-75.0372 L 951.423,-74.5302 L 951.479,-74 L 951.479,-64.7024
 L 951.82,-64.4804 L 952.221,-64.1563 L 952.585,-63.7921 L 952.909,-63.3919 L 953.189,-62.96 L 953.423,-62.5011
 L 953.608,-62.0204 L 953.741,-61.5229 L 953.822,-61.0143 L 953.849,-60.5 L 953.822,-59.9857 L 953.741,-59.4771
 L 953.608,-58.9796 L 953.423,-58.4989 L 953.189,-58.04 L 952.909,-57.6081 L 952.585,-57.2079 L 952.221,-56.8437
 L 951.82,-56.5196 L 951.389,-56.2392 L 950.93,-56.0054 L 950.449,-55.8208 L 949.951,-55.6875 L 949.443,-55.607
 L 948.929,-55.58 z
M 1136.7,-55.607 L 1136.19,-55.6875 L 1135.69,-55.8208 L 1135.21,-56.0054 L 1134.75,-56.2392 L 1134.32,-56.5196
 L 1133.92,-56.8437 L 1133.56,-57.2079 L 1133.23,-57.6081 L 1132.95,-58.04 L 1132.72,-58.4989 L 1132.54,-58.9796
 L 1132.4,-59.4771 L 1132.32,-59.9857 L 1132.29,-60.5 L 1132.32,-61.0143 L 1132.4,-61.5229 L 1132.54,-62.0204
 L 1132.72,-62.5011 L 1132.95,-62.96 L 1133.23,-63.3919 L 1133.56,-63.7921 L 1133.92,-64.1563 L 1134.32,-64.4804
 L 1134.66,-64.7024 L 1134.66,-74 L 1134.72,-74.5302 L 1134.88,-75.0372 L 1135.15,-75.4988 L 1135.51,-75.895
 L 1135.94,-76.2084 L 1136.43,-76.4252 L 1136.95,-76.536 L 1137.48,-76.536 L 1138,-76.4252 L 1138.49,-76.2084
 L 1138.92,-75.895 L 1139.28,-75.4988 L 1139.54,-75.0372 L 1139.71,-74.5302 L 1139.76,-74 L 1139.76,-64.7024
 L 1140.11,-64.4804 L 1140.51,-64.1563 L 1140.87,-63.7921 L 1141.19,-63.3919 L 1141.48,-62.96 L 1141.71,-62.5011
 L 1141.89,-62.0204 L 1142.03,-61.5229 L 1142.11,-61.0143 L 1142.13,-60.5 L 1142.11,-59.9857 L 1142.03,-59.4771
 L 1141.89,-58.9796 L 1141.71,-58.4989 L 1141.48,-58.04 L 1141.19,-57.6081 L 1140.87,-57.2079 L 1140.51,-56.8437
 L 1140.11,-56.5196 L 1139.67,-56.2392 L 1139.22,-56.0054 L 1138.73,-55.8208 L 1138.24,-55.6875 L 1137.73,-55.607
 L 1137.21,-55.58 z
M 1324.99,-55.607 L 1324.48,-55.6875 L 1323.98,-55.8208 L 1323.5,-56.0054 L 1323.04,-56.2392 L 1322.61,-56.5196
 L 1322.21,-56.8437 L 1321.84,-57.2079 L 1321.52,-57.6081 L 1321.24,-58.04 L 1321.01,-58.4989 L 1320.82,-58.9796
 L 1320.69,-59.4771 L 1320.61,-59.9857 L 1320.58,-60.5 L 1320.61,-61.0143 L 1320.69,-61.5229 L 1320.82,-62.0204
 L 1321.01,-62.5011 L 1321.24,-62.96 L 1321.52,-63.3919 L 1321.84,-63.7921 L 1322.21,-64.1563 L 1322.61,-64.4804
 L 1322.95,-64.7024 L 1322.95,-74 L 1323.01,-74.5302 L 1323.17,-75.0372 L 1323.44,-75.4988 L 1323.79,-75.895
 L 1324.23,-76.2084 L 1324.71,-76.4252 L 1325.23,-76.536 L 1325.77,-76.536 L 1326.29,-76.4252 L 1326.77,-76.2084
 L 1327.21,-75.895 L 1327.56,-75.4988 L 1327.83,-75.0372 L 1327.99,-74.5302 L 1328.05,-74 L 1328.05,-64.7024
 L 1328.39,-64.4804 L 1328.79,-64.1563 L 1329.16,-63.7921 L 1329.48,-63.3919 L 1329.76,-62.96 L 1329.99,-62.5011
 L 1330.18,-62.0204 L 1330.31,-61.5229 L 1330.39,-61.0143 L 1330.42,-60.5 L 1330.39,-59.9857 L 1330.31,-59.4771
 L 1330.18,-58.9796 L 1329.99,-58.4989 L 1329.76,-58.04 L 1329.48,-57.6081 L 1329.16,-57.2079 L 1328.79,-56.8437
 L 1328.39,-56.5196 L 1327.96,-56.2392 L 1327.5,-56.0054 L 1327.02,-55.8208 L 1326.52,-55.6875 L 1326.01,-55.607
 L 1325.5,-55.58 z
M 772.531,-20.6673 L 771.756,-20.9825 L 771.064,-21.4518 L 770.485,-22.0548 L 770.043,-22.765 L 769.759,-23.5515
 L 769.643,-24.5096 L 769.643,-58 L 769.73,-58.8316 L 769.989,-59.627 L 770.407,-60.3511 L 770.966,-60.9726
 L 771.643,-61.4641 L 772.407,-61.8042 L 773.643,-62 L 866.375,-62 L 867.206,-61.9126 L 868.002,-61.6542
 L 868.726,-61.2361 L 869.347,-60.6765 L 869.839,-60 L 870.179,-59.2361 L 870.353,-58.4181 L 870.353,-57.5819
 L 870.179,-56.7639 L 869.839,-56 L 869.347,-55.3235 L 868.726,-54.7639 L 867.734,-54.2378 L 775.002,-20.7474
 L 774.19,-20.5471 L 773.354,-20.52 z
M 665.953,-47.7268 L 665.141,-47.9271 L 647.667,-54.2378 L 646.675,-54.7639 L 646.053,-55.3235 L 645.562,-56
 L 645.222,-56.7639 L 645.048,-57.5819 L 645.048,-58.4181 L 645.222,-59.2361 L 645.562,-60 L 646.053,-60.6765
 L 646.675,-61.2361 L 647.399,-61.6542 L 648.194,-61.9126 L 649.026,-62 L 683.974,-62 L 685.086,-61.8423
 L 685.861,-61.5271 L 686.553,-61.0578 L 687.132,-60.4548 L 687.573,-59.7445 L 687.857,-58.958 L 687.972,-58.1296
 L 687.911,-57.2956 L 687.679,-56.4923 L 687.284,-55.755 L 686.745,-55.1157 L 686.085,-54.6025 L 685.333,-54.2378
 L 667.859,-47.9271 L 666.789,-47.6997 z
M 558.81,-20.5471 L 557.998,-20.7474 L 465.266,-54.2378 L 464.274,-54.7639 L 463.653,-55.3235 L 463.161,-56
 L 462.821,-56.7639 L 462.647,-57.5819 L 462.647,-58.4181 L 462.821,-59.2361 L 463.161,-60 L 463.653,-60.6765
 L 464.274,-61.2361 L 464.998,-61.6542 L 465.794,-61.9126 L 466.625,-62 L 559.357,-62 L 560.593,-61.8042
 L 561.357,-61.4641 L 562.034,-60.9726 L 562.593,-60.3511 L 563.011,-59.627 L 563.27,-58.8316 L 563.357,-58
 L 563.357,-24.5096 L 563.241,-23.5515 L 562.957,-22.765 L 562.515,-22.0548 L 561.936,-21.4518 L 561.244,-20.9825
 L 560.469,-20.6673 L 559.646,-20.52 z
M 370.525,-20.5471 L 369.713,-20.7474 L 276.981,-54.2378 L 275.988,-54.7639 L 275.367,-55.3235 L 274.875,-56
 L 274.535,-56.7639 L 274.361,-57.5819 L 274.361,-58.4181 L 274.535,-59.2361 L 274.875,-60 L 275.367,-60.6765
 L 275.988,-61.2361 L 276.712,-61.6542 L 277.508,-61.9126 L 278.339,-62 L 371.071,-62 L 372.307,-61.8042
 L 373.071,-61.4641 L 373.748,-60.9726 L 374.307,-60.3511 L 374.726,-59.627 L 374.984,-58.8316 L 375.071,-58
 L 375.071,-24.5096 L 374.955,-23.5515 L 374.671,-22.765 L 374.23,-22.0548 L 373.65,-21.4518 L 372.958,-20.9825
 L 372.184,-20.6673 L 371.36,-20.52 z
M 1149.1,-20.6673 L 1148.33,-20.9825 L 1147.64,-21.4518 L 1147.06,-22.0548 L 1146.61,-22.765 L 1146.33,-23.5515
 L 1146.21,-24.5096 L 1146.21,-58 L 1146.3,-58.8316 L 1146.56,-59.627 L 1146.98,-60.3511 L 1147.54,-60.9726
 L 1148.21,-61.4641 L 1148.98,-61.8042 L 1150.21,-62 L 1242.95,-62 L 1243.78,-61.9126 L 1244.57,-61.6542
 L 1245.3,-61.2361 L 1245.92,-60.6765 L 1246.41,-60 L 1246.75,-59.2361 L 1246.92,-58.4181 L 1246.92,-57.5819
 L 1246.75,-56.7639 L 1246.41,-56 L 1245.92,-55.3235 L 1245.3,-54.7639 L 1244.3,-54.2378 L 1151.57,-20.7474
 L 1150.76,-20.5471 L 1149.93,-20.52 z
M 182.239,-20.5471 L 181.427,-20.7474 L 88.695,-54.2378 L 87.7026,-54.7639 L 87.0812,-55.3235 L 86.5896,-56
 L 86.2495,-56.7639 L 86.0757,-57.5819 L 86.0757,-58.4181 L 86.2495,-59.2361 L 86.5896,-60 L 87.0812,-60.6765
 L 87.7026,-61.2361 L 88.4268,-61.6542 L 89.2221,-61.9126 L 90.0537,-62 L 182.786,-62 L 184.022,-61.8042
 L 184.786,-61.4641 L 185.462,-60.9726 L 186.022,-60.3511 L 186.44,-59.627 L 186.698,-58.8316 L 186.786,-58
 L 186.786,-24.5096 L 186.669,-23.5515 L 186.385,-22.765 L 185.944,-22.0548 L 185.364,-21.4518 L 184.672,-20.9825
 L 183.898,-20.6673 L 183.075,-20.52 z
M 960.816,-20.6673 L 960.042,-20.9825 L 959.35,-21.4518 L 958.77,-22.0548 L 958.329,-22.765 L 958.045,-23.5515
 L 957.929,-24.5096 L 957.929,-58 L 958.016,-58.8316 L 958.274,-59.627 L 958.693,-60.3511 L 959.252,-60.9726
 L 959.929,-61.4641 L 960.693,-61.8042 L 961.929,-62 L 1054.66,-62 L 1055.49,-61.9126 L 1056.29,-61.6542
 L 1057.01,-61.2361 L 1057.63,-60.6765 L 1058.12,-60 L 1058.46,-59.2361 L 1058.64,-58.4181 L 1058.64,-57.5819
 L 1058.46,-56.7639 L 1058.12,-56 L 1057.63,-55.3235 L 1057.01,-54.7639 L 1056.02,-54.2378 L 963.287,-20.7474
 L 962.475,-20.5471 L 961.64,-20.52 z
M 584.939,-18.4062 L 584.121,-18.58 L 583.357,-18.9202 L 582.681,-19.4117 L 582.121,-20.0331 L 581.703,-20.7573
 L 581.445,-21.5526 L 581.357,-22.3842 L 581.357,-57.6158 L 581.474,-58.5738 L 581.758,-59.3603 L 582.199,-60.0705
 L 582.778,-60.6735 L 583.47,-61.1429 L 584.245,-61.458 L 585.068,-61.6053 L 585.904,-61.5782 L 586.716,-61.3779
 L 635.492,-43.7622 L 636.02,-43.5271 L 636.712,-43.0578 L 637.292,-42.4548 L 637.733,-41.7445 L 638.017,-40.958
 L 638.131,-40.1296 L 638.071,-39.2956 L 637.839,-38.4923 L 637.444,-37.755 L 636.905,-37.1157 L 636.245,-36.6025
 L 635.492,-36.2378 L 586.716,-18.6221 L 585.775,-18.4062 z
M 747.096,-18.4218 L 746.284,-18.6221 L 697.508,-36.2378 L 696.98,-36.4729 L 696.288,-36.9422 L 695.708,-37.5452
 L 695.267,-38.2555 L 694.983,-39.042 L 694.868,-39.8704 L 694.929,-40.7044 L 695.161,-41.5077 L 695.556,-42.245
 L 696.095,-42.8843 L 696.755,-43.3975 L 697.508,-43.7622 L 746.284,-61.3779 L 747.225,-61.5939 L 748.061,-61.5939
 L 748.879,-61.42 L 749.643,-61.0799 L 750.319,-60.5883 L 750.879,-59.9669 L 751.297,-59.2427 L 751.555,-58.4474
 L 751.643,-57.6158 L 751.643,-22.3842 L 751.526,-21.4262 L 751.242,-20.6397 L 750.801,-19.9294 L 750.222,-19.3265
 L 749.53,-18.8571 L 748.755,-18.5419 L 747.932,-18.3947 z
M 208.786,-18 L 207.55,-18.1958 L 206.786,-18.5359 L 206.109,-19.0274 L 205.55,-19.6489 L 205.132,-20.373
 L 204.873,-21.1684 L 204.786,-22 L 204.786,-55.4904 L 204.902,-56.4485 L 205.186,-57.235 L 205.628,-57.9452
 L 206.207,-58.5482 L 206.899,-59.0175 L 207.674,-59.3327 L 208.497,-59.48 L 209.333,-59.4529 L 210.144,-59.2526
 L 302.876,-25.7622 L 303.869,-25.2361 L 304.49,-24.6765 L 304.982,-24 L 305.322,-23.2361 L 305.496,-22.4181
 L 305.496,-21.5819 L 305.322,-20.7639 L 304.982,-20 L 304.49,-19.3235 L 303.869,-18.7639 L 303.145,-18.3458
 L 302.349,-18.0874 L 301.518,-18 z
M 397.071,-18 L 395.835,-18.1958 L 395.071,-18.5359 L 394.395,-19.0274 L 393.835,-19.6489 L 393.417,-20.373
 L 393.159,-21.1684 L 393.071,-22 L 393.071,-55.4904 L 393.188,-56.4485 L 393.472,-57.235 L 393.913,-57.9452
 L 394.493,-58.5482 L 395.185,-59.0175 L 395.959,-59.3327 L 396.782,-59.48 L 397.618,-59.4529 L 398.43,-59.2526
 L 491.162,-25.7622 L 492.155,-25.2361 L 492.776,-24.6765 L 493.267,-24 L 493.608,-23.2361 L 493.781,-22.4181
 L 493.781,-21.5819 L 493.608,-20.7639 L 493.267,-20 L 492.776,-19.3235 L 492.155,-18.7639 L 491.43,-18.3458
 L 490.635,-18.0874 L 489.803,-18 z
M 843.197,-18 L 842.365,-18.0874 L 841.57,-18.3458 L 840.845,-18.7639 L 840.224,-19.3235 L 839.733,-20
 L 839.392,-20.7639 L 839.219,-21.5819 L 839.219,-22.4181 L 839.392,-23.2361 L 839.733,-24 L 840.224,-24.6765
 L 840.845,-25.2361 L 841.838,-25.7622 L 934.57,-59.2526 L 935.382,-59.4529 L 936.218,-59.48 L 937.041,-59.3327
 L 937.815,-59.0175 L 938.507,-58.5482 L 939.087,-57.9452 L 939.528,-57.235 L 939.812,-56.4485 L 939.929,-55.4904
 L 939.929,-22 L 939.841,-21.1684 L 939.583,-20.373 L 939.165,-19.6489 L 938.605,-19.0274 L 937.929,-18.5359
 L 937.165,-18.1958 L 935.929,-18 z
M 1031.48,-18 L 1030.65,-18.0874 L 1029.86,-18.3458 L 1029.13,-18.7639 L 1028.51,-19.3235 L 1028.02,-20
 L 1027.68,-20.7639 L 1027.5,-21.5819 L 1027.5,-22.4181 L 1027.68,-23.2361 L 1028.02,-24 L 1028.51,-24.6765
 L 1029.13,-25.2361 L 1030.12,-25.7622 L 1122.86,-59.2526 L 1123.67,-59.4529 L 1124.5,-59.48 L 1125.33,-59.3327
 L 1126.1,-59.0175 L 1126.79,-58.5482 L 1127.37,-57.9452 L 1127.81,-57.235 L 1128.1,-56.4485 L 1128.21,-55.4904
 L 1128.21,-22 L 1128.13,-21.1684 L 1127.87,-20.373 L 1127.45,-19.6489 L 1126.89,-19.0274 L 1126.21,-18.5359
 L 1125.45,-18.1958 L 1124.21,-18 z
M 22,-18 L 20.7639,-18.1958 L 20,-18.5359 L 19.3235,-19.0274 L 18.7639,-19.6489 L 18.3458,-20.373
 L 18.0874,-21.1684 L 18,-22 L 18,-54.9487 L 18.1164,-55.9067 L 18.4005,-56.6932 L 18.8418,-57.4035
 L 19.4212,-58.0065 L 20.1133,-58.4758 L 20.8879,-58.791 L 21.711,-58.9383 L 22.5468,-58.9112 L 23.3587,-58.7109
 L 114.591,-25.7622 L 115.583,-25.2361 L 116.205,-24.6765 L 116.696,-24 L 117.036,-23.2361 L 117.21,-22.4181
 L 117.21,-21.5819 L 117.036,-20.7639 L 116.696,-20 L 116.205,-19.3235 L 115.583,-18.7639 L 114.859,-18.3458
 L 114.064,-18.0874 L 113.232,-18 z
M 1219.77,-18 L 1218.94,-18.0874 L 1218.14,-18.3458 L 1217.42,-18.7639 L 1216.8,-19.3235 L 1216.3,-20
 L 1215.96,-20.7639 L 1215.79,-21.5819 L 1215.79,-22.4181 L 1215.96,-23.2361 L 1216.3,-24 L 1216.8,-24.6765
 L 1217.42,-25.2361 L 1218.41,-25.7622 L 1309.64,-58.7109 L 1310.45,-58.9112 L 1311.29,-58.9383 L 1312.11,-58.791
 L 1312.89,-58.4758 L 1313.58,-58.0065 L 1314.16,-57.4035 L 1314.6,-56.6932 L 1314.88,-55.9067 L 1315,-54.9487
 L 1315,-22 L 1314.91,-21.1684 L 1314.65,-20.373 L 1314.24,-19.6489 L 1313.68,-19.0274 L 1313,-18.5359
 L 1312.24,-18.1958 L 1311,-18 z
M 649.026,-18 L 647.914,-18.1577 L 647.139,-18.4729 L 646.447,-18.9422 L 645.868,-19.5452 L 645.427,-20.2555
 L 645.142,-21.042 L 645.028,-21.8704 L 645.089,-22.7044 L 645.321,-23.5077 L 645.715,-24.245 L 646.255,-24.8843
 L 646.915,-25.3975 L 647.667,-25.7622 L 665.141,-32.0729 L 666.211,-32.3003 L 667.047,-32.2732 L 667.859,-32.0729
 L 685.333,-25.7622 L 686.325,-25.2361 L 686.946,-24.6765 L 687.438,-24 L 687.778,-23.2361 L 687.952,-22.4181
 L 687.952,-21.5819 L 687.778,-20.7639 L 687.438,-20 L 686.946,-19.3235 L 686.325,-18.7639 L 685.601,-18.3458
 L 684.806,-18.0874 L 683.974,-18 z
" stroke="black" fill="lightgray" stroke-width="0.5"/>
</svg>
