<?xml version="1.0" standalone="no"?>
<!DOCTYPE svg PUBLIC "-//W3C//DTD SVG 1.1//EN" "http://www.w3.org/Graphics/SVG/1.1/DTD/svg11.dtd">
<svg width="1202mm" height="80mm" viewBox="0 -80 1202 80" xmlns="http://www.w3.org/2000/svg" version="1.1">
<title>OpenSCAD Model</title>
<path d="
M 1202,-80 L 0,-80 L 0,-0 L 4.95,-0 L 4.95,-6 L 5.00572,-6.53017
 L 5.17046,-7.03717 L 5.437,-7.49884 L 5.79372,-7.895 L 6.22499,-8.20836 L 6.71201,-8.42519 L 7.23344,-8.53603
 L 7.76654,-8.53603 L 8.28798,-8.42519 L 8.77499,-8.20836 L 9.20627,-7.895 L 9.56299,-7.49884 L 9.82953,-7.03717
 L 9.99426,-6.53017 L 10.05,-6 L 10.05,-0 L 174.521,-0 L 174.521,-6 L 174.577,-6.53017
 L 174.742,-7.03717 L 175.008,-7.49884 L 175.365,-7.895 L 175.796,-8.20836 L 176.283,-8.42519 L 176.805,-8.53603
 L 177.338,-8.53603 L 177.859,-8.42519 L 178.346,-8.20836 L 178.778,-7.895 L 179.134,-7.49884 L 179.401,-7.03717
 L 179.566,-6.53017 L 179.621,-6 L 179.621,-0 L 344.093,-0 L 344.093,-6 L 344.149,-6.53017
 L 344.313,-7.03717 L 344.58,-7.49884 L 344.937,-7.895 L 345.368,-8.20836 L 345.855,-8.42519 L 346.376,-8.53603
 L 346.909,-8.53603 L 347.431,-8.42519 L 347.918,-8.20836 L 348.349,-7.895 L 348.706,-7.49884 L 348.972,-7.03717
 L 349.137,-6.53017 L 349.193,-6 L 349.193,-0 L 513.664,-0 L 513.664,-6 L 513.72,-6.53017
 L 513.885,-7.03717 L 514.151,-7.49884 L 514.508,-7.895 L 514.939,-8.20836 L 515.426,-8.42519 L 515.948,-8.53603
 L 516.481,-8.53603 L 517.002,-8.42519 L 517.489,-8.20836 L 517.921,-7.895 L 518.277,-7.49884 L 518.544,-7.03717
 L 518.709,-6.53017 L 518.764,-6 L 518.764,-0 L 683.236,-0 L 683.236,-6 L 683.291,-6.53017
 L 683.456,-7.03717 L 683.723,-7.49884 L 684.079,-7.895 L 684.511,-8.20836 L 684.998,-8.42519 L 685.519,-8.53603
 L 686.052,-8.53603 L 686.574,-8.42519 L 687.061,-8.20836 L 687.492,-7.895 L 687.849,-7.49884 L 688.115,-7.03717
 L 688.28,-6.53017 L 688.336,-6 L 688.336,-0 L 852.807,-0 L 852.807,-6 L 852.863,-6.53017
 L 853.028,-7.03717 L 853.294,-7.49884 L 853.651,-7.895 L 854.082,-8.20836 L 854.569,-8.42519 L 855.091,-8.53603
 L 855.624,-8.53603 L 856.145,-8.42519 L 856.632,-8.20836 L 857.063,-7.895 L 857.42,-7.49884 L 857.687,-7.03717
 L 857.851,-6.53017 L 857.907,-6 L 857.907,-0 L 1022.38,-0 L 1022.38,-6 L 1022.43,-6.53017
 L 1022.6,-7.03717 L 1022.87,-7.49884 L 1023.22,-7.895 L 1023.65,-8.20836 L 1024.14,-8.42519 L 1024.66,-8.53603
 L 1025.2,-8.53603 L 1025.72,-8.42519 L 1026.2,-8.20836 L 1026.63,-7.895 L 1026.99,-7.49884 L 1027.26,-7.03717
 L 1027.42,-6.53017 L 1027.48,-6 L 1027.48,-0 L 1191.95,-0 L 1191.95,-6 L 1192.01,-6.53017
 L 1192.17,-7.03717 L 1192.44,-7.49884 L 1192.79,-7.895 L 1193.22,-8.20836 L 1193.71,-8.42519 L 1194.23,-8.53603
 L 1194.77,-8.53603 L 1195.29,-8.42519 L 1195.77,-8.20836 L 1196.21,-7.895 L 1196.56,-7.49884 L 1196.83,-7.03717
 L 1196.99,-6.53017 L 1197.05,-6 L 1197.05,-0 L 1202,-0 z
M 6.98573,-55.607 L 6.47708,-55.6875 L 5.97964,-55.8208 L 5.49887,-56.0054 L 5.04001,-56.2392 L 4.60811,-56.5196
 L 4.20789,-56.8437 L 3.84373,-57.2079 L 3.51964,-57.6081 L 3.23917,-58.04 L 3.00537,-58.4989 L 2.82082,-58.9796
 L 2.68752,-59.4771 L 2.60696,-59.9857 L 2.58,-60.5 L 2.60696,-61.0143 L 2.68752,-61.5229 L 2.82082,-62.0204
 L 3.00537,-62.5011 L 3.23917,-62.96 L 3.51964,-63.3919 L 3.84373,-63.7921 L 4.20789,-64.1563 L 4.60811,-64.4804
 L 4.95001,-64.7024 L 4.95001,-74 L 5.00574,-74.5302 L 5.17047,-75.0372 L 5.43701,-75.4988 L 5.79373,-75.895
 L 6.22501,-76.2084 L 6.71202,-76.4252 L 7.23346,-76.536 L 7.76654,-76.536 L 8.28798,-76.4252 L 8.77499,-76.2084
 L 9.20627,-75.895 L 9.56299,-75.4988 L 9.82953,-75.0372 L 9.99426,-74.5302 L 10.05,-74 L 10.05,-64.7024
 L 10.3919,-64.4804 L 10.7921,-64.1563 L 11.1563,-63.7921 L 11.4804,-63.3919 L 11.7608,-62.96 L 11.9946,-62.5011
 L 12.1792,-62.0204 L 12.3125,-61.5229 L 12.393,-61.0143 L 12.42,-60.5 L 12.393,-59.9857 L 12.3125,-59.4771
 L 12.1792,-58.9796 L 11.9946,-58.4989 L 11.7608,-58.04 L 11.4804,-57.6081 L 11.1563,-57.2079 L 10.7921,-56.8437
 L 10.3919,-56.5196 L 9.95999,-56.2392 L 9.50113,-56.0054 L 9.02036,-55.8208 L 8.52292,-55.6875 L 8.01427,-55.607
 L 7.5,-55.58 z
M 176.557,-55.607 L 176.049,-55.6875 L 175.551,-55.8208 L 175.07,-56.0054 L 174.611,-56.2392 L 174.18,-56.5196
 L 173.779,-56.8437 L 173.415,-57.2079 L 173.091,-57.6081 L 172.811,-58.04 L 172.577,-58.4989 L 172.392,-58.9796
 L 172.259,-59.4771 L 172.178,-59.9857 L 172.151,-60.5 L 172.178,-61.0143 L 172.259,-61.5229 L 172.392,-62.0204
 L 172.577,-62.5011 L 172.811,-62.96 L 173.091,-63.3919 L 173.415,-63.7921 L 173.779,-64.1563 L 174.18,-64.4804
 L 174.521,-64.7024 L 174.521,-74 L 174.577,-74.5302 L 174.742,-75.0372 L 175.008,-75.4988 L 175.365,-75.895
 L 175.796,-76.2084 L 176.283,-76.4252 L 176.805,-76.536 L 177.338,-76.536 L 177.859,-76.4252 L 178.346,-76.2084
 L 178.778,-75.895 L 179.134,-75.4988 L 179.401,-75.0372 L 179.566,-74.5302 L 179.621,-74 L 179.621,-64.7024
 L 179.963,-64.4804 L 180.364,-64.1563 L 180.728,-63.7921 L 181.052,-63.3919 L 181.332,-62.96 L 181.566,-62.5011
 L 181.751,-62.0204 L 181.884,-61.5229 L 181.964,-61.0143 L 181.991,-60.5 L 181.964,-59.9857 L 181.884,-59.4771
 L 181.751,-58.9796 L 181.566,-58.4989 L 181.332,-58.04 L 181.052,-57.6081 L 180.728,-57.2079 L 180.364,-56.8437
 L 179.963,-56.5196 L 179.531,-56.2392 L 179.073,-56.0054 L 178.592,-55.8208 L 178.094,-55.6875 L 177.586,-55.607
 L 177.071,-55.58 z
M 346.129,-55.607 L 345.62,-55.6875 L 345.122,-55.8208 L 344.642,-56.0054 L 344.183,-56.2392 L 343.751,-56.5196
 L 343.351,-56.8437 L 342.987,-57.2079 L 342.662,-57.6081 L 342.382,-58.04 L 342.148,-58.4989 L 341.964,-58.9796
 L 341.83,-59.4771 L 341.75,-59.9857 L 341.723,-60.5 L 341.75,-61.0143 L 341.83,-61.5229 L 341.964,-62.0204
 L 342.148,-62.5011 L 342.382,-62.96 L 342.662,-63.3919 L 342.987,-63.7921 L 343.351,-64.1563 L 343.751,-64.4804
 L 344.093,-64.7024 L 344.093,-74 L 344.149,-74.5302 L 344.313,-75.0372 L 344.58,-75.4988 L 344.937,-75.895
 L 345.368,-76.2084 L 345.855,-76.4252 L 346.376,-76.536 L 346.909,-76.536 L 347.431,-76.4252 L 347.918,-76.2084
 L 348.349,-75.895 L 348.706,-75.4988 L 348.972,-75.0372 L 349.137,-74.5302 L 349.193,-74 L 349.193,-64.7024
 L 349.535,-64.4804 L 349.935,-64.1563 L 350.299,-63.7921 L 350.623,-63.3919 L 350.904,-62.96 L 351.137,-62.5011
 L 351.322,-62.0204 L 351.455,-61.5229 L 351.536,-61.0143 L 351.563,-60.5 L 351.536,-59.9857 L 351.455,-59.4771
 L 351.322,-58.9796 L 351.137,-58.4989 L 350.904,-58.04 L 350.623,-57.6081 L 350.299,-57.2079 L 349.935,-56.8437
 L 349.535,-56.5196 L 349.103,-56.2392 L 348.644,-56.0054 L 348.163,-55.8208 L 347.666,-55.6875 L 347.157,-55.607
 L 346.643,-55.58 z
M 515.7,-55.607 L 515.191,-55.6875 L 514.694,-55.8208 L 514.213,-56.0054 L 513.754,-56.2392 L 513.322,-56.5196
 L 512.922,-56.8437 L 512.558,-57.2079 L 512.234,-57.6081 L 511.953,-58.04 L 511.72,-58.4989 L 511.535,-58.9796
 L 511.402,-59.4771 L 511.321,-59.9857 L 511.294,-60.5 L 511.321,-61.0143 L 511.402,-61.5229 L 511.535,-62.0204
 L 511.72,-62.5011 L 511.953,-62.96 L 512.234,-63.3919 L 512.558,-63.7921 L 512.922,-64.1563 L 513.322,-64.4804
 L 513.664,-64.7024 L 513.664,-74 L 513.72,-74.5302 L 513.885,-75.0372 L 514.151,-75.4988 L 514.508,-75.895
 L 514.939,-76.2084 L 515.426,-76.4252 L 515.948,-76.536 L 516.481,-76.536 L 517.002,-76.4252 L 517.489,-76.2084
 L 517.921,-75.895 L 518.277,-75.4988 L 518.544,-75.0372 L 518.709,-74.5302 L 518.764,-74 L 518.764,-64.7024
 L 519.106,-64.4804 L 519.506,-64.1563 L 519.871,-63.7921 L 520.195,-63.3919 L 520.475,-62.96 L 520.709,-62.5011
 L 520.893,-62.0204 L 521.027,-61.5229 L 521.107,-61.0143 L 521.134,-60.5 L 521.107,-59.9857 L 521.027,-59.4771
 L 520.893,-58.9796 L 520.709,-58.4989 L 520.475,-58.04 L 520.195,-57.6081 L 519.871,-57.2079 L 519.506,-56.8437
 L 519.106,-56.5196 L 518.674,-56.2392 L 518.215,-56.0054 L 517.735,-55.8208 L 517.237,-55.6875 L 516.729,-55.607
 L 516.214,-55.58 z
M 685.271,-55.607 L 684.763,-55.6875 L 684.265,-55.8208 L 683.785,-56.0054 L 683.326,-56.2392 L 682.894,-56.5196
 L 682.494,-56.8437 L 682.129,-57.2079 L 681.805,-57.6081 L 681.525,-58.04 L 681.291,-58.4989 L 681.107,-58.9796
 L 680.973,-59.4771 L 680.893,-59.9857 L 680.866,-60.5 L 680.893,-61.0143 L 680.973,-61.5229 L 681.107,-62.0204
 L 681.291,-62.5011 L 681.525,-62.96 L 681.805,-63.3919 L 682.129,-63.7921 L 682.494,-64.1563 L 682.894,-64.4804
 L 683.236,-64.7024 L 683.236,-74 L 683.291,-74.5302 L 683.456,-75.0372 L 683.723,-75.4988 L 684.079,-75.895
 L 684.511,-76.2084 L 684.998,-76.4252 L 685.519,-76.536 L 686.052,-76.536 L 686.574,-76.4252 L 687.061,-76.2084
 L 687.492,-75.895 L 687.849,-75.4988 L 688.115,-75.0372 L 688.28,-74.5302 L 688.336,-74 L 688.336,-64.7024
 L 688.678,-64.4804 L 689.078,-64.1563 L 689.442,-63.7921 L 689.766,-63.3919 L 690.047,-62.96 L 690.28,-62.5011
 L 690.465,-62.0204 L 690.598,-61.5229 L 690.679,-61.0143 L 690.706,-60.5 L 690.679,-59.9857 L 690.598,-59.4771
 L 690.465,-58.9796 L 690.28,-58.4989 L 690.047,-58.04 L 689.766,-57.6081 L 689.442,-57.2079 L 689.078,-56.8437
 L 688.678,-56.5196 L 688.246,-56.2392 L 687.787,-56.0054 L 687.306,-55.8208 L 686.809,-55.6875 L 686.3,-55.607
 L 685.786,-55.58 z
M 854.843,-55.607 L 854.334,-55.6875 L 853.837,-55.8208 L 853.356,-56.0054 L 852.897,-56.2392 L 852.465,-56.5196
 L 852.065,-56.8437 L 851.701,-57.2079 L 851.377,-57.6081 L 851.096,-58.04 L 850.863,-58.4989 L 850.678,-58.9796
 L 850.545,-59.4771 L 850.464,-59.9857 L 850.437,-60.5 L 850.464,-61.0143 L 850.545,-61.5229 L 850.678,-62.0204
 L 850.863,-62.5011 L 851.096,-62.96 L 851.377,-63.3919 L 851.701,-63.7921 L 852.065,-64.1563 L 852.465,-64.4804
 L 852.807,-64.7024 L 852.807,-74 L 852.863,-74.5302 L 853.028,-75.0372 L 853.294,-75.4988 L 853.651,-75.895
 L 854.082,-76.2084 L 854.569,-76.4252 L 855.091,-76.536 L 855.624,-76.536 L 856.145,-76.4252 L 856.632,-76.2084
 L 857.063,-75.895 L 857.42,-75.4988 L 857.687,-75.0372 L 857.851,-74.5302 L 857.907,-74 L 857.907,-64.7024
 L 858.249,-64.4804 L 858.649,-64.1563 L 859.013,-63.7921 L 859.337,-63.3919 L 859.618,-62.96 L 859.852,-62.5011
 L 860.036,-62.0204 L 860.17,-61.5229 L 860.25,-61.0143 L 860.277,-60.5 L 860.25,-59.9857 L 860.17,-59.4771
 L 860.036,-58.9796 L 859.852,-58.4989 L 859.618,-58.04 L 859.337,-57.6081 L 859.013,-57.2079 L 858.649,-56.8437
 L 858.249,-56.5196 L 857.817,-56.2392 L 857.358,-56.0054 L 856.877,-55.8208 L 856.38,-55.6875 L 855.871,-55.607
 L 855.357,-55.58 z
M 1024.41,-55.607 L 1023.91,-55.6875 L 1023.41,-55.8208 L 1022.93,-56.0054 L 1022.47,-56.2392 L 1022.04,-56.5196
 L 1021.64,-56.8437 L 1021.27,-57.2079 L 1020.95,-57.6081 L 1020.67,-58.04 L 1020.43,-58.4989 L 1020.25,-58.9796
 L 1020.12,-59.4771 L 1020.04,-59.9857 L 1020.01,-60.5 L 1020.04,-61.0143 L 1020.12,-61.5229 L 1020.25,-62.0204
 L 1020.43,-62.5011 L 1020.67,-62.96 L 1020.95,-63.3919 L 1021.27,-63.7921 L 1021.64,-64.1563 L 1022.04,-64.4804
 L 1022.38,-64.7024 L 1022.38,-74 L 1022.43,-74.5302 L 1022.6,-75.0372 L 1022.87,-75.4988 L 1023.22,-75.895
 L 1023.65,-76.2084 L 1024.14,-76.4252 L 1024.66,-76.536 L 1025.2,-76.536 L 1025.72,-76.4252 L 1026.2,-76.2084
 L 1026.63,-75.895 L 1026.99,-75.4988 L 1027.26,-75.0372 L 1027.42,-74.5302 L 1027.48,-74 L 1027.48,-64.7024
 L 1027.82,-64.4804 L 1028.22,-64.1563 L 1028.58,-63.7921 L 1028.91,-63.3919 L 1029.19,-62.96 L 1029.42,-62.5011
 L 1029.61,-62.0204 L 1029.74,-61.5229 L 1029.82,-61.0143 L 1029.85,-60.5 L 1029.82,-59.9857 L 1029.74,-59.4771
 L 1029.61,-58.9796 L 1029.42,-58.4989 L 1029.19,-58.04 L 1028.91,-57.6081 L 1028.58,-57.2079 L 1028.22,-56.8437
 L 1027.82,-56.5196 L 1027.39,-56.2392 L 1026.93,-56.0054 L 1026.45,-55.8208 L 1025.95,-55.6875 L 1025.44,-55.607
 L 1024.93,-55.58 z
M 1193.99,-55.607 L 1193.48,-55.6875 L 1192.98,-55.8208 L 1192.5,-56.0054 L 1192.04,-56.2392 L 1191.61,-56.5196
 L 1191.21,-56.8437 L 1190.84,-57.2079 L 1190.52,-57.6081 L 1190.24,-58.04 L 1190.01,-58.4989 L 1189.82,-58.9796
 L 1189.69,-59.4771 L 1189.61,-59.9857 L 1189.58,-60.5 L 1189.61,-61.0143 L 1189.69,-61.5229 L 1189.82,-62.0204
 L 1190.01,-62.5011 L 1190.24,-62.96 L 1190.52,-63.3919 L 1190.84,-63.7921 L 1191.21,-64.1563 L 1191.61,-64.4804
 L 1191.95,-64.7024 L 1191.95,-74 L 1192.01,-74.5302 L 1192.17,-75.0372 L 1192.44,-75.4988 L 1192.79,-75.895
 L 1193.23,-76.2084 L 1193.71,-76.4252 L 1194.23,-76.536 L 1194.77,-76.536 L 1195.29,-76.4252 L 1195.77,-76.2084
 L 1196.21,-75.895 L 1196.56,-75.4988 L 1196.83,-75.0372 L 1196.99,-74.5302 L 1197.05,-74 L 1197.05,-64.7024
 L 1197.39,-64.4804 L 1197.79,-64.1563 L 1198.16,-63.7921 L 1198.48,-63.3919 L 1198.76,-62.96 L 1198.99,-62.5011
 L 1199.18,-62.0204 L 1199.31,-61.5229 L 1199.39,-61.0143 L 1199.42,-60.5 L 1199.39,-59.9857 L 1199.31,-59.4771
 L 1199.18,-58.9796 L 1198.99,-58.4989 L 1198.76,-58.04 L 1198.48,-57.6081 L 1198.16,-57.2079 L 1197.79,-56.8437
 L 1197.39,-56.5196 L 1196.96,-56.2392 L 1196.5,-56.0054 L 1196.02,-55.8208 L 1195.52,-55.6875 L 1195.01,-55.607
 L 1194.5,-55.58 z
M 697.808,-21.3309 L 697.023,-21.619 L 696.315,-22.0639 L 695.715,-22.6464 L 695.249,-23.3409 L 694.938,-24.117
 L 694.786,-25.2096 L 694.786,-58 L 694.873,-58.8316 L 695.132,-59.627 L 695.55,-60.3511 L 696.109,-60.9726
 L 696.786,-61.4641 L 697.55,-61.8042 L 698.786,-62 L 780.555,-62 L 781.387,-61.9126 L 782.182,-61.6542
 L 782.906,-61.2361 L 783.528,-60.6765 L 784.019,-60 L 784.359,-59.2361 L 784.533,-58.4181 L 784.533,-57.5819
 L 784.359,-56.7639 L 784.019,-56 L 783.528,-55.3235 L 782.906,-54.7639 L 782.044,-54.2874 L 700.275,-21.497
 L 699.47,-21.2686 L 698.636,-21.2124 z
M 600.316,-47.9021 L 599.511,-48.1305 L 584.158,-54.2874 L 583.296,-54.7639 L 582.674,-55.3235 L 582.183,-56
 L 581.842,-56.7639 L 581.669,-57.5819 L 581.669,-58.4181 L 581.842,-59.2361 L 582.183,-60 L 582.674,-60.6765
 L 583.296,-61.2361 L 584.02,-61.6542 L 584.815,-61.9126 L 585.647,-62 L 616.353,-62 L 617.331,-61.8787
 L 618.116,-61.5906 L 618.824,-61.1456 L 619.424,-60.5632 L 619.89,-59.8687 L 620.201,-59.0926 L 620.344,-58.2687
 L 620.313,-57.433 L 620.108,-56.6222 L 619.74,-55.8715 L 619.223,-55.2139 L 618.581,-54.6781 L 617.842,-54.2874
 L 602.489,-48.1305 L 601.978,-47.9645 L 601.15,-47.846 z
M 502.53,-21.2686 L 501.725,-21.497 L 419.956,-54.2874 L 419.094,-54.7639 L 418.472,-55.3235 L 417.981,-56
 L 417.641,-56.7639 L 417.467,-57.5819 L 417.467,-58.4181 L 417.641,-59.2361 L 417.981,-60 L 418.472,-60.6765
 L 419.094,-61.2361 L 419.818,-61.6542 L 420.613,-61.9126 L 421.445,-62 L 503.214,-62 L 504.45,-61.8042
 L 505.214,-61.4641 L 505.891,-60.9726 L 506.45,-60.3511 L 506.868,-59.627 L 507.127,-58.8316 L 507.214,-58
 L 507.214,-25.2096 L 507.062,-24.117 L 506.751,-23.3409 L 506.285,-22.6464 L 505.685,-22.0639 L 504.977,-21.619
 L 504.192,-21.3309 L 503.364,-21.2124 z
M 332.958,-21.2686 L 332.154,-21.497 L 250.385,-54.2874 L 249.522,-54.7639 L 248.901,-55.3235 L 248.409,-56
 L 248.069,-56.7639 L 247.895,-57.5819 L 247.895,-58.4181 L 248.069,-59.2361 L 248.409,-60 L 248.901,-60.6765
 L 249.522,-61.2361 L 250.247,-61.6542 L 251.042,-61.9126 L 251.874,-62 L 333.643,-62 L 334.879,-61.8042
 L 335.643,-61.4641 L 336.319,-60.9726 L 336.879,-60.3511 L 337.297,-59.627 L 337.555,-58.8316 L 337.643,-58
 L 337.643,-25.2096 L 337.491,-24.117 L 337.18,-23.3409 L 336.714,-22.6464 L 336.114,-22.0639 L 335.406,-21.619
 L 334.621,-21.3309 L 333.793,-21.2124 z
M 1036.95,-21.3309 L 1036.17,-21.619 L 1035.46,-22.0639 L 1034.86,-22.6464 L 1034.39,-23.3409 L 1034.08,-24.117
 L 1033.93,-25.2096 L 1033.93,-58 L 1034.02,-58.8316 L 1034.27,-59.627 L 1034.69,-60.3511 L 1035.25,-60.9726
 L 1035.93,-61.4641 L 1036.69,-61.8042 L 1037.93,-62 L 1119.7,-62 L 1120.53,-61.9126 L 1121.32,-61.6542
 L 1122.05,-61.2361 L 1122.67,-60.6765 L 1123.16,-60 L 1123.5,-59.2361 L 1123.68,-58.4181 L 1123.68,-57.5819
 L 1123.5,-56.7639 L 1123.16,-56 L 1122.67,-55.3235 L 1122.05,-54.7639 L 1121.19,-54.2874 L 1039.42,-21.497
 L 1038.61,-21.2686 L 1037.78,-21.2124 z
M 163.387,-21.2686 L 162.583,-21.497 L 80.8133,-54.2874 L 79.9509,-54.7639 L 79.3295,-55.3235 L 78.838,-56
 L 78.4978,-56.7639 L 78.324,-57.5819 L 78.324,-58.4181 L 78.4978,-59.2361 L 78.838,-60 L 79.3295,-60.6765
 L 79.9509,-61.2361 L 80.6751,-61.6542 L 81.4704,-61.9126 L 82.3021,-62 L 164.071,-62 L 165.307,-61.8042
 L 166.071,-61.4641 L 166.748,-60.9726 L 167.307,-60.3511 L 167.726,-59.627 L 167.984,-58.8316 L 168.071,-58
 L 168.071,-25.2096 L 167.919,-24.117 L 167.608,-23.3409 L 167.142,-22.6464 L 166.542,-22.0639 L 165.834,-21.619
 L 165.049,-21.3309 L 164.221,-21.2124 z
M 867.379,-21.3309 L 866.594,-21.619 L 865.886,-22.0639 L 865.286,-22.6464 L 864.82,-23.3409 L 864.509,-24.117
 L 864.357,-25.2096 L 864.357,-58 L 864.445,-58.8316 L 864.703,-59.627 L 865.121,-60.3511 L 865.681,-60.9726
 L 866.357,-61.4641 L 867.121,-61.8042 L 868.357,-62 L 950.126,-62 L 950.958,-61.9126 L 951.753,-61.6542
 L 952.478,-61.2361 L 953.099,-60.6765 L 953.591,-60 L 953.931,-59.2361 L 954.105,-58.4181 L 954.105,-57.5819
 L 953.931,-56.7639 L 953.591,-56 L 953.099,-55.3235 L 952.478,-54.7639 L 951.615,-54.2874 L 869.846,-21.497
 L 869.042,-21.2686 L 868.207,-21.2124 z
M 528.796,-19.0782 L 527.978,-19.2521 L 527.214,-19.5922 L 526.538,-20.0837 L 525.978,-20.7052 L 525.56,-21.4294
 L 525.302,-22.2247 L 525.214,-23.0563 L 525.214,-56.9437 L 525.366,-58.0363 L 525.678,-58.8124 L 526.143,-59.5069
 L 526.743,-60.0893 L 527.451,-60.5343 L 528.237,-60.8224 L 529.064,-60.9409 L 529.899,-60.8847 L 530.703,-60.6563
 L 572.956,-43.7126 L 573.938,-43.1456 L 574.538,-42.5632 L 575.003,-41.8687 L 575.315,-41.0926 L 575.458,-40.2687
 L 575.426,-39.433 L 575.222,-38.6222 L 574.853,-37.8715 L 574.337,-37.2139 L 573.695,-36.6781 L 572.956,-36.2874
 L 530.703,-19.3437 L 529.632,-19.0782 z
M 672.101,-19.1153 L 671.297,-19.3437 L 629.044,-36.2874 L 628.062,-36.8544 L 627.462,-37.4368 L 626.997,-38.1313
 L 626.685,-38.9074 L 626.542,-39.7313 L 626.574,-40.567 L 626.778,-41.3778 L 627.147,-42.1285 L 627.663,-42.7861
 L 628.305,-43.3219 L 629.044,-43.7126 L 671.297,-60.6563 L 672.368,-60.9218 L 673.204,-60.9218 L 674.022,-60.7479
 L 674.786,-60.4078 L 675.462,-59.9163 L 676.022,-59.2948 L 676.44,-58.5706 L 676.698,-57.7753 L 676.786,-56.9437
 L 676.786,-23.0563 L 676.634,-21.9637 L 676.322,-21.1876 L 675.857,-20.4931 L 675.257,-19.9107 L 674.549,-19.4657
 L 673.763,-19.1776 L 672.936,-19.0591 z
M 190.071,-18 L 188.835,-18.1958 L 188.071,-18.5359 L 187.395,-19.0274 L 186.835,-19.6489 L 186.417,-20.373
 L 186.159,-21.1684 L 186.071,-22 L 186.071,-54.7904 L 186.224,-55.883 L 186.535,-56.6591 L 187.001,-57.3536
 L 187.601,-57.936 L 188.309,-58.381 L 189.094,-58.6691 L 189.921,-58.7876 L 190.756,-58.7314 L 191.56,-58.503
 L 273.33,-25.7126 L 274.192,-25.2361 L 274.813,-24.6765 L 275.305,-24 L 275.645,-23.2361 L 275.819,-22.4181
 L 275.819,-21.5819 L 275.645,-20.7639 L 275.305,-20 L 274.813,-19.3235 L 274.192,-18.7639 L 273.468,-18.3458
 L 272.672,-18.0874 L 271.841,-18 z
M 359.643,-18 L 358.407,-18.1958 L 357.643,-18.5359 L 356.966,-19.0274 L 356.407,-19.6489 L 355.989,-20.373
 L 355.73,-21.1684 L 355.643,-22 L 355.643,-54.7904 L 355.795,-55.883 L 356.106,-56.6591 L 356.572,-57.3536
 L 357.172,-57.936 L 357.88,-58.381 L 358.665,-58.6691 L 359.493,-58.7876 L 360.327,-58.7314 L 361.132,-58.503
 L 442.901,-25.7126 L 443.763,-25.2361 L 444.385,-24.6765 L 444.876,-24 L 445.216,-23.2361 L 445.39,-22.4181
 L 445.39,-21.5819 L 445.216,-20.7639 L 444.876,-20 L 444.385,-19.3235 L 443.763,-18.7639 L 443.039,-18.3458
 L 442.244,-18.0874 L 441.412,-18 z
M 760.588,-18 L 759.756,-18.0874 L 758.961,-18.3458 L 758.237,-18.7639 L 757.615,-19.3235 L 757.124,-20
 L 756.784,-20.7639 L 756.61,-21.5819 L 756.61,-22.4181 L 756.784,-23.2361 L 757.124,-24 L 757.615,-24.6765
 L 758.237,-25.2361 L 759.099,-25.7126 L 840.868,-58.503 L 841.673,-58.7314 L 842.507,-58.7876 L 843.335,-58.6691
 L 844.12,-58.381 L 844.828,-57.936 L 845.428,-57.3536 L 845.894,-56.6591 L 846.205,-55.883 L 846.357,-54.7904
 L 846.357,-22 L 846.27,-21.1684 L 846.011,-20.373 L 845.593,-19.6489 L 845.034,-19.0274 L 844.357,-18.5359
 L 843.593,-18.1958 L 842.357,-18 z
M 930.159,-18 L 929.328,-18.0874 L 928.532,-18.3458 L 927.808,-18.7639 L 927.187,-19.3235 L 926.695,-20
 L 926.355,-20.7639 L 926.181,-21.5819 L 926.181,-22.4181 L 926.355,-23.2361 L 926.695,-24 L 927.187,-24.6765
 L 927.808,-25.2361 L 928.67,-25.7126 L 1010.44,-58.503 L 1011.24,-58.7314 L 1012.08,-58.7876 L 1012.91,-58.6691
 L 1013.69,-58.381 L 1014.4,-57.936 L 1015,-57.3536 L 1015.47,-56.6591 L 1015.78,-55.883 L 1015.93,-54.7904
 L 1015.93,-22 L 1015.84,-21.1684 L 1015.58,-20.373 L 1015.16,-19.6489 L 1014.61,-19.0274 L 1013.93,-18.5359
 L 1013.16,-18.1958 L 1011.93,-18 z
M 22,-18 L 20.7639,-18.1958 L 20,-18.5359 L 19.3235,-19.0274 L 18.7639,-19.6489 L 18.3458,-20.373
 L 18.0874,-21.1684 L 18,-22 L 18,-54.1889 L 18.1521,-55.2814 L 18.4633,-56.0576 L 18.9292,-56.7521
 L 19.5292,-57.3345 L 20.2372,-57.7795 L 21.0222,-58.0675 L 21.85,-58.1861 L 22.6844,-58.1299 L 23.4888,-57.9015
 L 103.758,-25.7126 L 104.62,-25.2361 L 105.242,-24.6765 L 105.733,-24 L 106.074,-23.2361 L 106.247,-22.4181
 L 106.247,-21.5819 L 106.074,-20.7639 L 105.733,-20 L 105.242,-19.3235 L 104.62,-18.7639 L 103.896,-18.3458
 L 103.101,-18.0874 L 102.269,-18 z
M 1099.73,-18 L 1098.9,-18.0874 L 1098.1,-18.3458 L 1097.38,-18.7639 L 1096.76,-19.3235 L 1096.27,-20
 L 1095.93,-20.7639 L 1095.75,-21.5819 L 1095.75,-22.4181 L 1095.93,-23.2361 L 1096.27,-24 L 1096.76,-24.6765
 L 1097.38,-25.2361 L 1098.24,-25.7126 L 1178.51,-57.9015 L 1179.32,-58.1299 L 1180.15,-58.1861 L 1180.98,-58.0675
 L 1181.76,-57.7795 L 1182.47,-57.3345 L 1183.07,-56.7521 L 1183.54,-56.0576 L 1183.85,-55.2814 L 1184,-54.1889
 L 1184,-22 L 1183.91,-21.1684 L 1183.65,-20.373 L 1183.24,-19.6489 L 1182.68,-19.0274 L 1182,-18.5359
 L 1181.24,-18.1958 L 1180,-18 z
M 585.647,-18 L 584.669,-18.1213 L 583.884,-18.4094 L 583.176,-18.8544 L 582.576,-19.4368 L 582.11,-20.1313
 L 581.799,-20.9074 L 581.656,-21.7313 L 581.687,-22.567 L 581.891,-23.3778 L 582.26,-24.1285 L 582.777,-24.7861
 L 583.419,-25.3219 L 584.158,-25.7126 L 599.511,-31.8695 L 600.022,-32.0355 L 600.85,-32.154 L 601.684,-32.0979
 L 602.489,-31.8695 L 617.842,-25.7126 L 618.704,-25.2361 L 619.326,-24.6765 L 619.817,-24 L 620.158,-23.2361
 L 620.331,-22.4181 L 620.331,-21.5819 L 620.158,-20.7639 L 619.817,-20 L 619.326,-19.3235 L 618.704,-18.7639
 L 617.98,-18.3458 L 617.185,-18.0874 L 616.353,-18 z
" stroke="black" fill="lightgray" stroke-width="0.5"/>
</svg>
