<?xml version="1.0" standalone="no"?>
<!DOCTYPE svg PUBLIC "-//W3C//DTD SVG 1.1//EN" "http://www.w3.org/Graphics/SVG/1.1/DTD/svg11.dtd">
<svg width="1039mm" height="80mm" viewBox="0 -80 1039 80" xmlns="http://www.w3.org/2000/svg" version="1.1">
<title>OpenSCAD Model</title>
<path d="
M 1039,-80 L 0,-80 L 0,-0 L 4.95,-0 L 4.95,-6 L 5.00572,-6.53017
 L 5.17046,-7.03717 L 5.437,-7.49884 L 5.79372,-7.895 L 6.22499,-8.20836 L 6.71201,-8.42519 L 7.23344,-8.53603
 L 7.76654,-8.53603 L 8.28798,-8.42519 L 8.77499,-8.20836 L 9.20627,-7.895 L 9.56299,-7.49884 L 9.82953,-7.03717
 L 9.99426,-6.53017 L 10.05,-6 L 10.05,-0 L 175.617,-0 L 175.617,-6 L 175.672,-6.53017
 L 175.837,-7.03717 L 176.104,-7.49884 L 176.46,-7.895 L 176.892,-8.20836 L 177.379,-8.42519 L 177.9,-8.53603
 L 178.433,-8.53603 L 178.955,-8.42519 L 179.442,-8.20836 L 179.873,-7.895 L 180.23,-7.49884 L 180.496,-7.03717
 L 180.661,-6.53017 L 180.717,-6 L 180.717,-0 L 346.283,-0 L 346.283,-6 L 346.339,-6.53017
 L 346.504,-7.03717 L 346.77,-7.49884 L 347.127,-7.895 L 347.558,-8.20836 L 348.045,-8.42519 L 348.567,-8.53603
 L 349.1,-8.53603 L 349.621,-8.42519 L 350.108,-8.20836 L 350.54,-7.895 L 350.896,-7.49884 L 351.163,-7.03717
 L 351.328,-6.53017 L 351.383,-6 L 351.383,-0 L 516.95,-0 L 516.95,-6 L 517.006,-6.53017
 L 517.17,-7.03717 L 517.437,-7.49884 L 517.794,-7.895 L 518.225,-8.20836 L 518.712,-8.42519 L 519.233,-8.53603
 L 519.767,-8.53603 L 520.288,-8.42519 L 520.775,-8.20836 L 521.206,-7.895 L 521.563,-7.49884 L 521.83,-7.03717
 L 521.994,-6.53017 L 522.05,-6 L 522.05,-0 L 687.617,-0 L 687.617,-6 L 687.672,-6.53017
 L 687.837,-7.03717 L 688.104,-7.49884 L 688.46,-7.895 L 688.892,-8.20836 L 689.379,-8.42519 L 689.9,-8.53603
 L 690.433,-8.53603 L 690.955,-8.42519 L 691.442,-8.20836 L 691.873,-7.895 L 692.23,-7.49884 L 692.496,-7.03717
 L 692.661,-6.53017 L 692.717,-6 L 692.717,-0 L 858.283,-0 L 858.283,-6 L 858.339,-6.53017
 L 858.504,-7.03717 L 858.77,-7.49884 L 859.127,-7.895 L 859.558,-8.20836 L 860.045,-8.42519 L 860.567,-8.53603
 L 861.1,-8.53603 L 861.621,-8.42519 L 862.108,-8.20836 L 862.54,-7.895 L 862.896,-7.49884 L 863.163,-7.03717
 L 863.328,-6.53017 L 863.383,-6 L 863.383,-0 L 1028.95,-0 L 1028.95,-6 L 1029.01,-6.53017
 L 1029.17,-7.03717 L 1029.44,-7.49884 L 1029.79,-7.895 L 1030.22,-8.20836 L 1030.71,-8.42519 L 1031.23,-8.53603
 L 1031.77,-8.53603 L 1032.29,-8.42519 L 1032.77,-8.20836 L 1033.21,-7.895 L 1033.56,-7.49884 L 1033.83,-7.03717
 L 1033.99,-6.53017 L 1034.05,-6 L 1034.05,-0 L 1039,-0 z
M 6.98573,-55.607 L 6.47708,-55.6875 L 5.97964,-55.8208 L 5.49887,-56.0054 L 5.04001,-56.2392 L 4.60811,-56.5196
 L 4.20789,-56.8437 L 3.84373,-57.2079 L 3.51964,-57.6081 L 3.23917,-58.04 L 3.00537,-58.4989 L 2.82082,-58.9796
 L 2.68752,-59.4771 L 2.60696,-59.9857 L 2.58,-60.5 L 2.60696,-61.0143 L 2.68752,-61.5229 L 2.82082,-62.0204
 L 3.00537,-62.5011 L 3.23917,-62.96 L 3.51964,-63.3919 L 3.84373,-63.7921 L 4.20789,-64.1563 L 4.60811,-64.4804
 L 4.95001,-64.7024 L 4.95001,-74 L 5.00574,-74.5302 L 5.17047,-75.0372 L 5.43701,-75.4988 L 5.79373,-75.895
 L 6.22501,-76.2084 L 6.71202,-76.4252 L 7.23346,-76.536 L 7.76654,-76.536 L 8.28798,-76.4252 L 8.77499,-76.2084
 L 9.20627,-75.895 L 9.56299,-75.4988 L 9.82953,-75.0372 L 9.99426,-74.5302 L 10.05,-74 L 10.05,-64.7024
 L 10.3919,-64.4804 L 10.7921,-64.1563 L 11.1563,-63.7921 L 11.4804,-63.3919 L 11.7608,-62.96 L 11.9946,-62.5011
 L 12.1792,-62.0204 L 12.3125,-61.5229 L 12.393,-61.0143 L 12.42,-60.5 L 12.393,-59.9857 L 12.3125,-59.4771
 L 12.1792,-58.9796 L 11.9946,-58.4989 L 11.7608,-58.04 L 11.4804,-57.6081 L 11.1563,-57.2079 L 10.7921,-56.8437
 L 10.3919,-56.5196 L 9.95999,-56.2392 L 9.50113,-56.0054 L 9.02036,-55.8208 L 8.52292,-55.6875 L 8.01427,-55.607
 L 7.5,-55.58 z
M 177.652,-55.607 L 177.144,-55.6875 L 176.646,-55.8208 L 176.166,-56.0054 L 175.707,-56.2392 L 175.275,-56.5196
 L 174.875,-56.8437 L 174.51,-57.2079 L 174.186,-57.6081 L 173.906,-58.04 L 173.672,-58.4989 L 173.487,-58.9796
 L 173.354,-59.4771 L 173.274,-59.9857 L 173.247,-60.5 L 173.274,-61.0143 L 173.354,-61.5229 L 173.487,-62.0204
 L 173.672,-62.5011 L 173.906,-62.96 L 174.186,-63.3919 L 174.51,-63.7921 L 174.875,-64.1563 L 175.275,-64.4804
 L 175.617,-64.7024 L 175.617,-74 L 175.672,-74.5302 L 175.837,-75.0372 L 176.104,-75.4988 L 176.46,-75.895
 L 176.892,-76.2084 L 177.379,-76.4252 L 177.9,-76.536 L 178.433,-76.536 L 178.955,-76.4252 L 179.442,-76.2084
 L 179.873,-75.895 L 180.23,-75.4988 L 180.496,-75.0372 L 180.661,-74.5302 L 180.717,-74 L 180.717,-64.7024
 L 181.059,-64.4804 L 181.459,-64.1563 L 181.823,-63.7921 L 182.147,-63.3919 L 182.427,-62.96 L 182.661,-62.5011
 L 182.846,-62.0204 L 182.979,-61.5229 L 183.06,-61.0143 L 183.087,-60.5 L 183.06,-59.9857 L 182.979,-59.4771
 L 182.846,-58.9796 L 182.661,-58.4989 L 182.427,-58.04 L 182.147,-57.6081 L 181.823,-57.2079 L 181.459,-56.8437
 L 181.059,-56.5196 L 180.627,-56.2392 L 180.168,-56.0054 L 179.687,-55.8208 L 179.19,-55.6875 L 178.681,-55.607
 L 178.167,-55.58 z
M 348.319,-55.607 L 347.81,-55.6875 L 347.313,-55.8208 L 346.832,-56.0054 L 346.373,-56.2392 L 345.941,-56.5196
 L 345.541,-56.8437 L 345.177,-57.2079 L 344.853,-57.6081 L 344.572,-58.04 L 344.339,-58.4989 L 344.154,-58.9796
 L 344.021,-59.4771 L 343.94,-59.9857 L 343.913,-60.5 L 343.94,-61.0143 L 344.021,-61.5229 L 344.154,-62.0204
 L 344.339,-62.5011 L 344.572,-62.96 L 344.853,-63.3919 L 345.177,-63.7921 L 345.541,-64.1563 L 345.941,-64.4804
 L 346.283,-64.7024 L 346.283,-74 L 346.339,-74.5302 L 346.504,-75.0372 L 346.77,-75.4988 L 347.127,-75.895
 L 347.558,-76.2084 L 348.045,-76.4252 L 348.567,-76.536 L 349.1,-76.536 L 349.621,-76.4252 L 350.108,-76.2084
 L 350.54,-75.895 L 350.896,-75.4988 L 351.163,-75.0372 L 351.328,-74.5302 L 351.383,-74 L 351.383,-64.7024
 L 351.725,-64.4804 L 352.125,-64.1563 L 352.49,-63.7921 L 352.814,-63.3919 L 353.094,-62.96 L 353.328,-62.5011
 L 353.513,-62.0204 L 353.646,-61.5229 L 353.726,-61.0143 L 353.753,-60.5 L 353.726,-59.9857 L 353.646,-59.4771
 L 353.513,-58.9796 L 353.328,-58.4989 L 353.094,-58.04 L 352.814,-57.6081 L 352.49,-57.2079 L 352.125,-56.8437
 L 351.725,-56.5196 L 351.293,-56.2392 L 350.834,-56.0054 L 350.354,-55.8208 L 349.856,-55.6875 L 349.348,-55.607
 L 348.833,-55.58 z
M 518.986,-55.607 L 518.477,-55.6875 L 517.98,-55.8208 L 517.499,-56.0054 L 517.04,-56.2392 L 516.608,-56.5196
 L 516.208,-56.8437 L 515.844,-57.2079 L 515.52,-57.6081 L 515.239,-58.04 L 515.005,-58.4989 L 514.821,-58.9796
 L 514.688,-59.4771 L 514.607,-59.9857 L 514.58,-60.5 L 514.607,-61.0143 L 514.688,-61.5229 L 514.821,-62.0204
 L 515.005,-62.5011 L 515.239,-62.96 L 515.52,-63.3919 L 515.844,-63.7921 L 516.208,-64.1563 L 516.608,-64.4804
 L 516.95,-64.7024 L 516.95,-74 L 517.006,-74.5302 L 517.17,-75.0372 L 517.437,-75.4988 L 517.794,-75.895
 L 518.225,-76.2084 L 518.712,-76.4252 L 519.233,-76.536 L 519.767,-76.536 L 520.288,-76.4252 L 520.775,-76.2084
 L 521.206,-75.895 L 521.563,-75.4988 L 521.83,-75.0372 L 521.994,-74.5302 L 522.05,-74 L 522.05,-64.7024
 L 522.392,-64.4804 L 522.792,-64.1563 L 523.156,-63.7921 L 523.48,-63.3919 L 523.761,-62.96 L 523.995,-62.5011
 L 524.179,-62.0204 L 524.312,-61.5229 L 524.393,-61.0143 L 524.42,-60.5 L 524.393,-59.9857 L 524.312,-59.4771
 L 524.179,-58.9796 L 523.995,-58.4989 L 523.761,-58.04 L 523.48,-57.6081 L 523.156,-57.2079 L 522.792,-56.8437
 L 522.392,-56.5196 L 521.96,-56.2392 L 521.501,-56.0054 L 521.02,-55.8208 L 520.523,-55.6875 L 520.014,-55.607
 L 519.5,-55.58 z
M 689.652,-55.607 L 689.144,-55.6875 L 688.646,-55.8208 L 688.166,-56.0054 L 687.707,-56.2392 L 687.275,-56.5196
 L 686.875,-56.8437 L 686.51,-57.2079 L 686.186,-57.6081 L 685.906,-58.04 L 685.672,-58.4989 L 685.487,-58.9796
 L 685.354,-59.4771 L 685.274,-59.9857 L 685.247,-60.5 L 685.274,-61.0143 L 685.354,-61.5229 L 685.487,-62.0204
 L 685.672,-62.5011 L 685.906,-62.96 L 686.186,-63.3919 L 686.51,-63.7921 L 686.875,-64.1563 L 687.275,-64.4804
 L 687.617,-64.7024 L 687.617,-74 L 687.672,-74.5302 L 687.837,-75.0372 L 688.104,-75.4988 L 688.46,-75.895
 L 688.892,-76.2084 L 689.379,-76.4252 L 689.9,-76.536 L 690.433,-76.536 L 690.955,-76.4252 L 691.442,-76.2084
 L 691.873,-75.895 L 692.23,-75.4988 L 692.496,-75.0372 L 692.661,-74.5302 L 692.717,-74 L 692.717,-64.7024
 L 693.059,-64.4804 L 693.459,-64.1563 L 693.823,-63.7921 L 694.147,-63.3919 L 694.427,-62.96 L 694.661,-62.5011
 L 694.846,-62.0204 L 694.979,-61.5229 L 695.06,-61.0143 L 695.087,-60.5 L 695.06,-59.9857 L 694.979,-59.4771
 L 694.846,-58.9796 L 694.661,-58.4989 L 694.427,-58.04 L 694.147,-57.6081 L 693.823,-57.2079 L 693.459,-56.8437
 L 693.059,-56.5196 L 692.627,-56.2392 L 692.168,-56.0054 L 691.687,-55.8208 L 691.19,-55.6875 L 690.681,-55.607
 L 690.167,-55.58 z
M 860.319,-55.607 L 859.81,-55.6875 L 859.313,-55.8208 L 858.832,-56.0054 L 858.373,-56.2392 L 857.941,-56.5196
 L 857.541,-56.8437 L 857.177,-57.2079 L 856.853,-57.6081 L 856.572,-58.04 L 856.339,-58.4989 L 856.154,-58.9796
 L 856.021,-59.4771 L 855.94,-59.9857 L 855.913,-60.5 L 855.94,-61.0143 L 856.021,-61.5229 L 856.154,-62.0204
 L 856.339,-62.5011 L 856.572,-62.96 L 856.853,-63.3919 L 857.177,-63.7921 L 857.541,-64.1563 L 857.941,-64.4804
 L 858.283,-64.7024 L 858.283,-74 L 858.339,-74.5302 L 858.504,-75.0372 L 858.77,-75.4988 L 859.127,-75.895
 L 859.558,-76.2084 L 860.045,-76.4252 L 860.567,-76.536 L 861.1,-76.536 L 861.621,-76.4252 L 862.108,-76.2084
 L 862.54,-75.895 L 862.896,-75.4988 L 863.163,-75.0372 L 863.328,-74.5302 L 863.383,-74 L 863.383,-64.7024
 L 863.725,-64.4804 L 864.125,-64.1563 L 864.49,-63.7921 L 864.814,-63.3919 L 865.094,-62.96 L 865.328,-62.5011
 L 865.513,-62.0204 L 865.646,-61.5229 L 865.726,-61.0143 L 865.753,-60.5 L 865.726,-59.9857 L 865.646,-59.4771
 L 865.513,-58.9796 L 865.328,-58.4989 L 865.094,-58.04 L 864.814,-57.6081 L 864.49,-57.2079 L 864.125,-56.8437
 L 863.725,-56.5196 L 863.293,-56.2392 L 862.834,-56.0054 L 862.354,-55.8208 L 861.856,-55.6875 L 861.348,-55.607
 L 860.833,-55.58 z
M 1030.99,-55.607 L 1030.48,-55.6875 L 1029.98,-55.8208 L 1029.5,-56.0054 L 1029.04,-56.2392 L 1028.61,-56.5196
 L 1028.21,-56.8437 L 1027.84,-57.2079 L 1027.52,-57.6081 L 1027.24,-58.04 L 1027.01,-58.4989 L 1026.82,-58.9796
 L 1026.69,-59.4771 L 1026.61,-59.9857 L 1026.58,-60.5 L 1026.61,-61.0143 L 1026.69,-61.5229 L 1026.82,-62.0204
 L 1027.01,-62.5011 L 1027.24,-62.96 L 1027.52,-63.3919 L 1027.84,-63.7921 L 1028.21,-64.1563 L 1028.61,-64.4804
 L 1028.95,-64.7024 L 1028.95,-74 L 1029.01,-74.5302 L 1029.17,-75.0372 L 1029.44,-75.4988 L 1029.79,-75.895
 L 1030.23,-76.2084 L 1030.71,-76.4252 L 1031.23,-76.536 L 1031.77,-76.536 L 1032.29,-76.4252 L 1032.77,-76.2084
 L 1033.21,-75.895 L 1033.56,-75.4988 L 1033.83,-75.0372 L 1033.99,-74.5302 L 1034.05,-74 L 1034.05,-64.7024
 L 1034.39,-64.4804 L 1034.79,-64.1563 L 1035.16,-63.7921 L 1035.48,-63.3919 L 1035.76,-62.96 L 1035.99,-62.5011
 L 1036.18,-62.0204 L 1036.31,-61.5229 L 1036.39,-61.0143 L 1036.42,-60.5 L 1036.39,-59.9857 L 1036.31,-59.4771
 L 1036.18,-58.9796 L 1035.99,-58.4989 L 1035.76,-58.04 L 1035.48,-57.6081 L 1035.16,-57.2079 L 1034.79,-56.8437
 L 1034.39,-56.5196 L 1033.96,-56.2392 L 1033.5,-56.0054 L 1033.02,-55.8208 L 1032.52,-55.6875 L 1032.01,-55.607
 L 1031.5,-55.58 z
M 872.847,-21.2861 L 872.063,-21.5758 L 871.356,-22.0224 L 870.757,-22.6062 L 870.293,-23.3017 L 869.983,-24.0785
 L 869.833,-25.1625 L 869.833,-58 L 869.921,-58.8316 L 870.179,-59.627 L 870.597,-60.3511 L 871.157,-60.9726
 L 871.833,-61.4641 L 872.597,-61.8042 L 873.833,-62 L 956.249,-62 L 957.081,-61.9126 L 957.876,-61.6542
 L 958.6,-61.2361 L 959.221,-60.6765 L 959.713,-60 L 960.053,-59.2361 L 960.227,-58.4181 L 960.227,-57.5819
 L 960.053,-56.7639 L 959.713,-56 L 959.221,-55.3235 L 958.6,-54.7639 L 957.729,-54.2841 L 875.314,-21.4466
 L 874.509,-21.22 L 873.674,-21.1657 z
M 335.158,-21.22 L 334.353,-21.4466 L 251.937,-54.2841 L 251.067,-54.7639 L 250.445,-55.3235 L 249.954,-56
 L 249.613,-56.7639 L 249.44,-57.5819 L 249.44,-58.4181 L 249.613,-59.2361 L 249.954,-60 L 250.445,-60.6765
 L 251.067,-61.2361 L 251.791,-61.6542 L 252.586,-61.9126 L 253.418,-62 L 335.833,-62 L 337.069,-61.8042
 L 337.833,-61.4641 L 338.51,-60.9726 L 339.069,-60.3511 L 339.487,-59.627 L 339.746,-58.8316 L 339.833,-58
 L 339.833,-25.1625 L 339.684,-24.0785 L 339.374,-23.3017 L 338.91,-22.6062 L 338.311,-22.0224 L 337.604,-21.5758
 L 336.82,-21.2861 L 335.992,-21.1657 z
M 164.491,-21.22 L 163.686,-21.4466 L 81.2705,-54.2841 L 80.3999,-54.7639 L 79.7785,-55.3235 L 79.287,-56
 L 78.9468,-56.7639 L 78.773,-57.5819 L 78.773,-58.4181 L 78.9468,-59.2361 L 79.287,-60 L 79.7785,-60.6765
 L 80.3999,-61.2361 L 81.1241,-61.6542 L 81.9194,-61.9126 L 82.7511,-62 L 165.167,-62 L 166.403,-61.8042
 L 167.167,-61.4641 L 167.843,-60.9726 L 168.403,-60.3511 L 168.821,-59.627 L 169.079,-58.8316 L 169.167,-58
 L 169.167,-25.1625 L 169.017,-24.0785 L 168.707,-23.3017 L 168.243,-22.6062 L 167.644,-22.0224 L 166.937,-21.5758
 L 166.153,-21.2861 L 165.326,-21.1657 z
M 505.824,-21.22 L 505.019,-21.4466 L 422.604,-54.2841 L 421.733,-54.7639 L 421.112,-55.3235 L 420.62,-56
 L 420.28,-56.7639 L 420.106,-57.5819 L 420.106,-58.4181 L 420.28,-59.2361 L 420.62,-60 L 421.112,-60.6765
 L 421.733,-61.2361 L 422.457,-61.6542 L 423.253,-61.9126 L 424.084,-62 L 506.5,-62 L 507.736,-61.8042
 L 508.5,-61.4641 L 509.177,-60.9726 L 509.736,-60.3511 L 510.154,-59.627 L 510.413,-58.8316 L 510.5,-58
 L 510.5,-25.1625 L 510.35,-24.0785 L 510.041,-23.3017 L 509.577,-22.6062 L 508.978,-22.0224 L 508.271,-21.5758
 L 507.486,-21.2861 L 506.659,-21.1657 z
M 531.514,-21.2861 L 530.729,-21.5758 L 530.022,-22.0224 L 529.423,-22.6062 L 528.959,-23.3017 L 528.65,-24.0785
 L 528.5,-25.1625 L 528.5,-58 L 528.587,-58.8316 L 528.846,-59.627 L 529.264,-60.3511 L 529.823,-60.9726
 L 530.5,-61.4641 L 531.264,-61.8042 L 532.5,-62 L 614.916,-62 L 615.747,-61.9126 L 616.543,-61.6542
 L 617.267,-61.2361 L 617.888,-60.6765 L 618.38,-60 L 618.72,-59.2361 L 618.894,-58.4181 L 618.894,-57.5819
 L 618.72,-56.7639 L 618.38,-56 L 617.888,-55.3235 L 617.267,-54.7639 L 616.396,-54.2841 L 533.981,-21.4466
 L 533.176,-21.22 L 532.341,-21.1657 z
M 702.18,-21.2861 L 701.396,-21.5758 L 700.689,-22.0224 L 700.09,-22.6062 L 699.626,-23.3017 L 699.316,-24.0785
 L 699.167,-25.1625 L 699.167,-58 L 699.254,-58.8316 L 699.512,-59.627 L 699.931,-60.3511 L 700.49,-60.9726
 L 701.167,-61.4641 L 701.931,-61.8042 L 703.167,-62 L 785.582,-62 L 786.414,-61.9126 L 787.209,-61.6542
 L 787.933,-61.2361 L 788.555,-60.6765 L 789.046,-60 L 789.386,-59.2361 L 789.56,-58.4181 L 789.56,-57.5819
 L 789.386,-56.7639 L 789.046,-56 L 788.555,-55.3235 L 787.933,-54.7639 L 787.063,-54.2841 L 704.647,-21.4466
 L 703.842,-21.22 L 703.008,-21.1657 z
M 191.167,-18 L 189.931,-18.1958 L 189.167,-18.5359 L 188.49,-19.0274 L 187.931,-19.6489 L 187.512,-20.373
 L 187.254,-21.1684 L 187.167,-22 L 187.167,-54.8374 L 187.316,-55.9215 L 187.626,-56.6983 L 188.09,-57.3938
 L 188.689,-57.9776 L 189.396,-58.4241 L 190.18,-58.7139 L 191.008,-58.8343 L 191.842,-58.78 L 192.647,-58.5534
 L 275.063,-25.7159 L 275.933,-25.2361 L 276.555,-24.6765 L 277.046,-24 L 277.386,-23.2361 L 277.56,-22.4181
 L 277.56,-21.5819 L 277.386,-20.7639 L 277.046,-20 L 276.555,-19.3235 L 275.933,-18.7639 L 275.209,-18.3458
 L 274.414,-18.0874 L 273.582,-18 z
M 361.833,-18 L 360.597,-18.1958 L 359.833,-18.5359 L 359.157,-19.0274 L 358.597,-19.6489 L 358.179,-20.373
 L 357.921,-21.1684 L 357.833,-22 L 357.833,-54.8374 L 357.983,-55.9215 L 358.293,-56.6983 L 358.757,-57.3938
 L 359.356,-57.9776 L 360.063,-58.4241 L 360.847,-58.7139 L 361.674,-58.8343 L 362.509,-58.78 L 363.314,-58.5534
 L 445.729,-25.7159 L 446.6,-25.2361 L 447.221,-24.6765 L 447.713,-24 L 448.053,-23.2361 L 448.227,-22.4181
 L 448.227,-21.5819 L 448.053,-20.7639 L 447.713,-20 L 447.221,-19.3235 L 446.6,-18.7639 L 445.876,-18.3458
 L 445.081,-18.0874 L 444.249,-18 z
M 594.751,-18 L 593.919,-18.0874 L 593.124,-18.3458 L 592.4,-18.7639 L 591.779,-19.3235 L 591.287,-20
 L 590.947,-20.7639 L 590.773,-21.5819 L 590.773,-22.4181 L 590.947,-23.2361 L 591.287,-24 L 591.779,-24.6765
 L 592.4,-25.2361 L 593.271,-25.7159 L 675.686,-58.5534 L 676.491,-58.78 L 677.326,-58.8343 L 678.153,-58.7139
 L 678.937,-58.4241 L 679.644,-57.9776 L 680.243,-57.3938 L 680.707,-56.6983 L 681.017,-55.9215 L 681.167,-54.8374
 L 681.167,-22 L 681.079,-21.1684 L 680.821,-20.373 L 680.403,-19.6489 L 679.843,-19.0274 L 679.167,-18.5359
 L 678.403,-18.1958 L 677.167,-18 z
M 765.418,-18 L 764.586,-18.0874 L 763.791,-18.3458 L 763.067,-18.7639 L 762.445,-19.3235 L 761.954,-20
 L 761.614,-20.7639 L 761.44,-21.5819 L 761.44,-22.4181 L 761.614,-23.2361 L 761.954,-24 L 762.445,-24.6765
 L 763.067,-25.2361 L 763.937,-25.7159 L 846.353,-58.5534 L 847.158,-58.78 L 847.992,-58.8343 L 848.82,-58.7139
 L 849.604,-58.4241 L 850.311,-57.9776 L 850.91,-57.3938 L 851.374,-56.6983 L 851.684,-55.9215 L 851.833,-54.8374
 L 851.833,-22 L 851.746,-21.1684 L 851.488,-20.373 L 851.069,-19.6489 L 850.51,-19.0274 L 849.833,-18.5359
 L 849.069,-18.1958 L 847.833,-18 z
M 936.084,-18 L 935.253,-18.0874 L 934.457,-18.3458 L 933.733,-18.7639 L 933.112,-19.3235 L 932.62,-20
 L 932.28,-20.7639 L 932.106,-21.5819 L 932.106,-22.4181 L 932.28,-23.2361 L 932.62,-24 L 933.112,-24.6765
 L 933.733,-25.2361 L 934.604,-25.7159 L 1015.52,-57.9557 L 1016.32,-58.1823 L 1017.16,-58.2366 L 1017.99,-58.1163
 L 1018.77,-57.8265 L 1019.48,-57.3799 L 1020.08,-56.7962 L 1020.54,-56.1007 L 1020.85,-55.3238 L 1021,-54.2398
 L 1021,-22 L 1020.91,-21.1684 L 1020.65,-20.373 L 1020.24,-19.6489 L 1019.68,-19.0274 L 1019,-18.5359
 L 1018.24,-18.1958 L 1017,-18 z
M 22,-18 L 20.7639,-18.1958 L 20,-18.5359 L 19.3235,-19.0274 L 18.7639,-19.6489 L 18.3458,-20.373
 L 18.0874,-21.1684 L 18,-22 L 18,-54.2398 L 18.1497,-55.3238 L 18.4592,-56.1007 L 18.9235,-56.7962
 L 19.5222,-57.3799 L 20.2292,-57.8265 L 21.0136,-58.1163 L 21.8412,-58.2366 L 22.6756,-58.1823 L 23.4806,-57.9557
 L 104.396,-25.7159 L 105.267,-25.2361 L 105.888,-24.6765 L 106.38,-24 L 106.72,-23.2361 L 106.894,-22.4181
 L 106.894,-21.5819 L 106.72,-20.7639 L 106.38,-20 L 105.888,-19.3235 L 105.267,-18.7639 L 104.543,-18.3458
 L 103.747,-18.0874 L 102.916,-18 z
" stroke="black" fill="lightgray" stroke-width="0.5"/>
</svg>
