<?xml version="1.0" standalone="no"?>
<!DOCTYPE svg PUBLIC "-//W3C//DTD SVG 1.1//EN" "http://www.w3.org/Graphics/SVG/1.1/DTD/svg11.dtd">
<svg width="1249mm" height="80mm" viewBox="0 -80 1249 80" xmlns="http://www.w3.org/2000/svg" version="1.1">
<title>OpenSCAD Model</title>
<path d="
M 1249,-80 L 0,-80 L 0,-0 L 4.95,-0 L 4.95,-6 L 5.00572,-6.53017
 L 5.17046,-7.03717 L 5.437,-7.49884 L 5.79372,-7.895 L 6.22499,-8.20836 L 6.71201,-8.42519 L 7.23344,-8.53603
 L 7.76654,-8.53603 L 8.28798,-8.42519 L 8.77499,-8.20836 L 9.20627,-7.895 L 9.56299,-7.49884 L 9.82953,-7.03717
 L 9.99426,-6.53017 L 10.05,-6 L 10.05,-0 L 181.236,-0 L 181.236,-6 L 181.291,-6.53017
 L 181.456,-7.03717 L 181.723,-7.49884 L 182.079,-7.895 L 182.511,-8.20836 L 182.998,-8.42519 L 183.519,-8.53603
 L 184.052,-8.53603 L 184.574,-8.42519 L 185.061,-8.20836 L 185.492,-7.895 L 185.849,-7.49884 L 186.115,-7.03717
 L 186.28,-6.53017 L 186.336,-6 L 186.336,-0 L 357.521,-0 L 357.521,-6 L 357.577,-6.53017
 L 357.742,-7.03717 L 358.008,-7.49884 L 358.365,-7.895 L 358.796,-8.20836 L 359.283,-8.42519 L 359.805,-8.53603
 L 360.338,-8.53603 L 360.859,-8.42519 L 361.346,-8.20836 L 361.778,-7.895 L 362.134,-7.49884 L 362.401,-7.03717
 L 362.566,-6.53017 L 362.621,-6 L 362.621,-0 L 533.807,-0 L 533.807,-6 L 533.863,-6.53017
 L 534.028,-7.03717 L 534.294,-7.49884 L 534.651,-7.895 L 535.082,-8.20836 L 535.569,-8.42519 L 536.091,-8.53603
 L 536.624,-8.53603 L 537.145,-8.42519 L 537.632,-8.20836 L 538.063,-7.895 L 538.42,-7.49884 L 538.687,-7.03717
 L 538.851,-6.53017 L 538.907,-6 L 538.907,-0 L 710.093,-0 L 710.093,-6 L 710.149,-6.53017
 L 710.313,-7.03717 L 710.58,-7.49884 L 710.937,-7.895 L 711.368,-8.20836 L 711.855,-8.42519 L 712.376,-8.53603
 L 712.909,-8.53603 L 713.431,-8.42519 L 713.918,-8.20836 L 714.349,-7.895 L 714.706,-7.49884 L 714.972,-7.03717
 L 715.137,-6.53017 L 715.193,-6 L 715.193,-0 L 886.379,-0 L 886.379,-6 L 886.434,-6.53017
 L 886.599,-7.03717 L 886.866,-7.49884 L 887.222,-7.895 L 887.654,-8.20836 L 888.141,-8.42519 L 888.662,-8.53603
 L 889.195,-8.53603 L 889.717,-8.42519 L 890.204,-8.20836 L 890.635,-7.895 L 890.992,-7.49884 L 891.258,-7.03717
 L 891.423,-6.53017 L 891.479,-6 L 891.479,-0 L 1062.66,-0 L 1062.66,-6 L 1062.72,-6.53017
 L 1062.88,-7.03717 L 1063.15,-7.49884 L 1063.51,-7.895 L 1063.94,-8.20836 L 1064.43,-8.42519 L 1064.95,-8.53603
 L 1065.48,-8.53603 L 1066,-8.42519 L 1066.49,-8.20836 L 1066.92,-7.895 L 1067.28,-7.49884 L 1067.54,-7.03717
 L 1067.71,-6.53017 L 1067.76,-6 L 1067.76,-0 L 1238.95,-0 L 1238.95,-6 L 1239.01,-6.53017
 L 1239.17,-7.03717 L 1239.44,-7.49884 L 1239.79,-7.895 L 1240.22,-8.20836 L 1240.71,-8.42519 L 1241.23,-8.53603
 L 1241.77,-8.53603 L 1242.29,-8.42519 L 1242.77,-8.20836 L 1243.21,-7.895 L 1243.56,-7.49884 L 1243.83,-7.03717
 L 1243.99,-6.53017 L 1244.05,-6 L 1244.05,-0 L 1249,-0 z
M 6.98573,-55.607 L 6.47708,-55.6875 L 5.97964,-55.8208 L 5.49887,-56.0054 L 5.04001,-56.2392 L 4.60811,-56.5196
 L 4.20789,-56.8437 L 3.84373,-57.2079 L 3.51964,-57.6081 L 3.23917,-58.04 L 3.00537,-58.4989 L 2.82082,-58.9796
 L 2.68752,-59.4771 L 2.60696,-59.9857 L 2.58,-60.5 L 2.60696,-61.0143 L 2.68752,-61.5229 L 2.82082,-62.0204
 L 3.00537,-62.5011 L 3.23917,-62.96 L 3.51964,-63.3919 L 3.84373,-63.7921 L 4.20789,-64.1563 L 4.60811,-64.4804
 L 4.95001,-64.7024 L 4.95001,-74 L 5.00574,-74.5302 L 5.17047,-75.0372 L 5.43701,-75.4988 L 5.79373,-75.895
 L 6.22501,-76.2084 L 6.71202,-76.4252 L 7.23346,-76.536 L 7.76654,-76.536 L 8.28798,-76.4252 L 8.77499,-76.2084
 L 9.20627,-75.895 L 9.56299,-75.4988 L 9.82953,-75.0372 L 9.99426,-74.5302 L 10.05,-74 L 10.05,-64.7024
 L 10.3919,-64.4804 L 10.7921,-64.1563 L 11.1563,-63.7921 L 11.4804,-63.3919 L 11.7608,-62.96 L 11.9946,-62.5011
 L 12.1792,-62.0204 L 12.3125,-61.5229 L 12.393,-61.0143 L 12.42,-60.5 L 12.393,-59.9857 L 12.3125,-59.4771
 L 12.1792,-58.9796 L 11.9946,-58.4989 L 11.7608,-58.04 L 11.4804,-57.6081 L 11.1563,-57.2079 L 10.7921,-56.8437
 L 10.3919,-56.5196 L 9.95999,-56.2392 L 9.50113,-56.0054 L 9.02036,-55.8208 L 8.52292,-55.6875 L 8.01427,-55.607
 L 7.5,-55.58 z
M 183.271,-55.607 L 182.763,-55.6875 L 182.265,-55.8208 L 181.785,-56.0054 L 181.326,-56.2392 L 180.894,-56.5196
 L 180.494,-56.8437 L 180.129,-57.2079 L 179.805,-57.6081 L 179.525,-58.04 L 179.291,-58.4989 L 179.107,-58.9796
 L 178.973,-59.4771 L 178.893,-59.9857 L 178.866,-60.5 L 178.893,-61.0143 L 178.973,-61.5229 L 179.107,-62.0204
 L 179.291,-62.5011 L 179.525,-62.96 L 179.805,-63.3919 L 180.129,-63.7921 L 180.494,-64.1563 L 180.894,-64.4804
 L 181.236,-64.7024 L 181.236,-74 L 181.291,-74.5302 L 181.456,-75.0372 L 181.723,-75.4988 L 182.079,-75.895
 L 182.511,-76.2084 L 182.998,-76.4252 L 183.519,-76.536 L 184.052,-76.536 L 184.574,-76.4252 L 185.061,-76.2084
 L 185.492,-75.895 L 185.849,-75.4988 L 186.115,-75.0372 L 186.28,-74.5302 L 186.336,-74 L 186.336,-64.7024
 L 186.678,-64.4804 L 187.078,-64.1563 L 187.442,-63.7921 L 187.766,-63.3919 L 188.047,-62.96 L 188.28,-62.5011
 L 188.465,-62.0204 L 188.598,-61.5229 L 188.679,-61.0143 L 188.706,-60.5 L 188.679,-59.9857 L 188.598,-59.4771
 L 188.465,-58.9796 L 188.28,-58.4989 L 188.047,-58.04 L 187.766,-57.6081 L 187.442,-57.2079 L 187.078,-56.8437
 L 186.678,-56.5196 L 186.246,-56.2392 L 185.787,-56.0054 L 185.306,-55.8208 L 184.809,-55.6875 L 184.3,-55.607
 L 183.786,-55.58 z
M 359.557,-55.607 L 359.049,-55.6875 L 358.551,-55.8208 L 358.07,-56.0054 L 357.611,-56.2392 L 357.18,-56.5196
 L 356.779,-56.8437 L 356.415,-57.2079 L 356.091,-57.6081 L 355.811,-58.04 L 355.577,-58.4989 L 355.392,-58.9796
 L 355.259,-59.4771 L 355.178,-59.9857 L 355.151,-60.5 L 355.178,-61.0143 L 355.259,-61.5229 L 355.392,-62.0204
 L 355.577,-62.5011 L 355.811,-62.96 L 356.091,-63.3919 L 356.415,-63.7921 L 356.779,-64.1563 L 357.18,-64.4804
 L 357.521,-64.7024 L 357.521,-74 L 357.577,-74.5302 L 357.742,-75.0372 L 358.008,-75.4988 L 358.365,-75.895
 L 358.796,-76.2084 L 359.283,-76.4252 L 359.805,-76.536 L 360.338,-76.536 L 360.859,-76.4252 L 361.346,-76.2084
 L 361.778,-75.895 L 362.134,-75.4988 L 362.401,-75.0372 L 362.566,-74.5302 L 362.621,-74 L 362.621,-64.7024
 L 362.963,-64.4804 L 363.364,-64.1563 L 363.728,-63.7921 L 364.052,-63.3919 L 364.332,-62.96 L 364.566,-62.5011
 L 364.751,-62.0204 L 364.884,-61.5229 L 364.964,-61.0143 L 364.991,-60.5 L 364.964,-59.9857 L 364.884,-59.4771
 L 364.751,-58.9796 L 364.566,-58.4989 L 364.332,-58.04 L 364.052,-57.6081 L 363.728,-57.2079 L 363.364,-56.8437
 L 362.963,-56.5196 L 362.531,-56.2392 L 362.073,-56.0054 L 361.592,-55.8208 L 361.094,-55.6875 L 360.586,-55.607
 L 360.071,-55.58 z
M 535.843,-55.607 L 535.334,-55.6875 L 534.837,-55.8208 L 534.356,-56.0054 L 533.897,-56.2392 L 533.465,-56.5196
 L 533.065,-56.8437 L 532.701,-57.2079 L 532.377,-57.6081 L 532.096,-58.04 L 531.863,-58.4989 L 531.678,-58.9796
 L 531.545,-59.4771 L 531.464,-59.9857 L 531.437,-60.5 L 531.464,-61.0143 L 531.545,-61.5229 L 531.678,-62.0204
 L 531.863,-62.5011 L 532.096,-62.96 L 532.377,-63.3919 L 532.701,-63.7921 L 533.065,-64.1563 L 533.465,-64.4804
 L 533.807,-64.7024 L 533.807,-74 L 533.863,-74.5302 L 534.028,-75.0372 L 534.294,-75.4988 L 534.651,-75.895
 L 535.082,-76.2084 L 535.569,-76.4252 L 536.091,-76.536 L 536.624,-76.536 L 537.145,-76.4252 L 537.632,-76.2084
 L 538.063,-75.895 L 538.42,-75.4988 L 538.687,-75.0372 L 538.851,-74.5302 L 538.907,-74 L 538.907,-64.7024
 L 539.249,-64.4804 L 539.649,-64.1563 L 540.013,-63.7921 L 540.337,-63.3919 L 540.618,-62.96 L 540.852,-62.5011
 L 541.036,-62.0204 L 541.17,-61.5229 L 541.25,-61.0143 L 541.277,-60.5 L 541.25,-59.9857 L 541.17,-59.4771
 L 541.036,-58.9796 L 540.852,-58.4989 L 540.618,-58.04 L 540.337,-57.6081 L 540.013,-57.2079 L 539.649,-56.8437
 L 539.249,-56.5196 L 538.817,-56.2392 L 538.358,-56.0054 L 537.877,-55.8208 L 537.38,-55.6875 L 536.871,-55.607
 L 536.357,-55.58 z
M 712.129,-55.607 L 711.62,-55.6875 L 711.122,-55.8208 L 710.642,-56.0054 L 710.183,-56.2392 L 709.751,-56.5196
 L 709.351,-56.8437 L 708.987,-57.2079 L 708.662,-57.6081 L 708.382,-58.04 L 708.148,-58.4989 L 707.964,-58.9796
 L 707.83,-59.4771 L 707.75,-59.9857 L 707.723,-60.5 L 707.75,-61.0143 L 707.83,-61.5229 L 707.964,-62.0204
 L 708.148,-62.5011 L 708.382,-62.96 L 708.662,-63.3919 L 708.987,-63.7921 L 709.351,-64.1563 L 709.751,-64.4804
 L 710.093,-64.7024 L 710.093,-74 L 710.149,-74.5302 L 710.313,-75.0372 L 710.58,-75.4988 L 710.937,-75.895
 L 711.368,-76.2084 L 711.855,-76.4252 L 712.376,-76.536 L 712.909,-76.536 L 713.431,-76.4252 L 713.918,-76.2084
 L 714.349,-75.895 L 714.706,-75.4988 L 714.972,-75.0372 L 715.137,-74.5302 L 715.193,-74 L 715.193,-64.7024
 L 715.535,-64.4804 L 715.935,-64.1563 L 716.299,-63.7921 L 716.623,-63.3919 L 716.904,-62.96 L 717.137,-62.5011
 L 717.322,-62.0204 L 717.455,-61.5229 L 717.536,-61.0143 L 717.563,-60.5 L 717.536,-59.9857 L 717.455,-59.4771
 L 717.322,-58.9796 L 717.137,-58.4989 L 716.904,-58.04 L 716.623,-57.6081 L 716.299,-57.2079 L 715.935,-56.8437
 L 715.535,-56.5196 L 715.103,-56.2392 L 714.644,-56.0054 L 714.163,-55.8208 L 713.666,-55.6875 L 713.157,-55.607
 L 712.643,-55.58 z
M 888.414,-55.607 L 887.906,-55.6875 L 887.408,-55.8208 L 886.927,-56.0054 L 886.469,-56.2392 L 886.037,-56.5196
 L 885.636,-56.8437 L 885.272,-57.2079 L 884.948,-57.6081 L 884.668,-58.04 L 884.434,-58.4989 L 884.249,-58.9796
 L 884.116,-59.4771 L 884.036,-59.9857 L 884.009,-60.5 L 884.036,-61.0143 L 884.116,-61.5229 L 884.249,-62.0204
 L 884.434,-62.5011 L 884.668,-62.96 L 884.948,-63.3919 L 885.272,-63.7921 L 885.636,-64.1563 L 886.037,-64.4804
 L 886.379,-64.7024 L 886.379,-74 L 886.434,-74.5302 L 886.599,-75.0372 L 886.866,-75.4988 L 887.222,-75.895
 L 887.654,-76.2084 L 888.141,-76.4252 L 888.662,-76.536 L 889.195,-76.536 L 889.717,-76.4252 L 890.204,-76.2084
 L 890.635,-75.895 L 890.992,-75.4988 L 891.258,-75.0372 L 891.423,-74.5302 L 891.479,-74 L 891.479,-64.7024
 L 891.82,-64.4804 L 892.221,-64.1563 L 892.585,-63.7921 L 892.909,-63.3919 L 893.189,-62.96 L 893.423,-62.5011
 L 893.608,-62.0204 L 893.741,-61.5229 L 893.822,-61.0143 L 893.849,-60.5 L 893.822,-59.9857 L 893.741,-59.4771
 L 893.608,-58.9796 L 893.423,-58.4989 L 893.189,-58.04 L 892.909,-57.6081 L 892.585,-57.2079 L 892.221,-56.8437
 L 891.82,-56.5196 L 891.389,-56.2392 L 890.93,-56.0054 L 890.449,-55.8208 L 889.951,-55.6875 L 889.443,-55.607
 L 888.929,-55.58 z
M 1064.7,-55.607 L 1064.19,-55.6875 L 1063.69,-55.8208 L 1063.21,-56.0054 L 1062.75,-56.2392 L 1062.32,-56.5196
 L 1061.92,-56.8437 L 1061.56,-57.2079 L 1061.23,-57.6081 L 1060.95,-58.04 L 1060.72,-58.4989 L 1060.54,-58.9796
 L 1060.4,-59.4771 L 1060.32,-59.9857 L 1060.29,-60.5 L 1060.32,-61.0143 L 1060.4,-61.5229 L 1060.54,-62.0204
 L 1060.72,-62.5011 L 1060.95,-62.96 L 1061.23,-63.3919 L 1061.56,-63.7921 L 1061.92,-64.1563 L 1062.32,-64.4804
 L 1062.66,-64.7024 L 1062.66,-74 L 1062.72,-74.5302 L 1062.88,-75.0372 L 1063.15,-75.4988 L 1063.51,-75.895
 L 1063.94,-76.2084 L 1064.43,-76.4252 L 1064.95,-76.536 L 1065.48,-76.536 L 1066,-76.4252 L 1066.49,-76.2084
 L 1066.92,-75.895 L 1067.28,-75.4988 L 1067.54,-75.0372 L 1067.71,-74.5302 L 1067.76,-74 L 1067.76,-64.7024
 L 1068.11,-64.4804 L 1068.51,-64.1563 L 1068.87,-63.7921 L 1069.19,-63.3919 L 1069.48,-62.96 L 1069.71,-62.5011
 L 1069.89,-62.0204 L 1070.03,-61.5229 L 1070.11,-61.0143 L 1070.13,-60.5 L 1070.11,-59.9857 L 1070.03,-59.4771
 L 1069.89,-58.9796 L 1069.71,-58.4989 L 1069.48,-58.04 L 1069.19,-57.6081 L 1068.87,-57.2079 L 1068.51,-56.8437
 L 1068.11,-56.5196 L 1067.67,-56.2392 L 1067.22,-56.0054 L 1066.73,-55.8208 L 1066.24,-55.6875 L 1065.73,-55.607
 L 1065.21,-55.58 z
M 1240.99,-55.607 L 1240.48,-55.6875 L 1239.98,-55.8208 L 1239.5,-56.0054 L 1239.04,-56.2392 L 1238.61,-56.5196
 L 1238.21,-56.8437 L 1237.84,-57.2079 L 1237.52,-57.6081 L 1237.24,-58.04 L 1237.01,-58.4989 L 1236.82,-58.9796
 L 1236.69,-59.4771 L 1236.61,-59.9857 L 1236.58,-60.5 L 1236.61,-61.0143 L 1236.69,-61.5229 L 1236.82,-62.0204
 L 1237.01,-62.5011 L 1237.24,-62.96 L 1237.52,-63.3919 L 1237.84,-63.7921 L 1238.21,-64.1563 L 1238.61,-64.4804
 L 1238.95,-64.7024 L 1238.95,-74 L 1239.01,-74.5302 L 1239.17,-75.0372 L 1239.44,-75.4988 L 1239.79,-75.895
 L 1240.23,-76.2084 L 1240.71,-76.4252 L 1241.23,-76.536 L 1241.77,-76.536 L 1242.29,-76.4252 L 1242.77,-76.2084
 L 1243.21,-75.895 L 1243.56,-75.4988 L 1243.83,-75.0372 L 1243.99,-74.5302 L 1244.05,-74 L 1244.05,-64.7024
 L 1244.39,-64.4804 L 1244.79,-64.1563 L 1245.16,-63.7921 L 1245.48,-63.3919 L 1245.76,-62.96 L 1245.99,-62.5011
 L 1246.18,-62.0204 L 1246.31,-61.5229 L 1246.39,-61.0143 L 1246.42,-60.5 L 1246.39,-59.9857 L 1246.31,-59.4771
 L 1246.18,-58.9796 L 1245.99,-58.4989 L 1245.76,-58.04 L 1245.48,-57.6081 L 1245.16,-57.2079 L 1244.79,-56.8437
 L 1244.39,-56.5196 L 1243.96,-56.2392 L 1243.5,-56.0054 L 1243.02,-55.8208 L 1242.52,-55.6875 L 1242.01,-55.607
 L 1241.5,-55.58 z
M 724.614,-21.0649 L 723.833,-21.3633 L 723.131,-21.8176 L 722.538,-22.4079 L 722.082,-23.1085 L 721.781,-23.8887
 L 721.643,-24.9303 L 721.643,-58 L 721.73,-58.8316 L 721.989,-59.627 L 722.407,-60.3511 L 722.966,-60.9726
 L 723.643,-61.4641 L 724.407,-61.8042 L 725.643,-62 L 811.374,-62 L 812.206,-61.9126 L 813.001,-61.6542
 L 813.725,-61.2361 L 814.347,-60.6765 L 814.838,-60 L 815.178,-59.2361 L 815.352,-58.4181 L 815.352,-57.5819
 L 815.178,-56.7639 L 814.838,-56 L 814.347,-55.3235 L 813.725,-54.7639 L 812.814,-54.268 L 727.082,-21.1983
 L 726.275,-20.9806 L 725.44,-20.9354 z
M 623.868,-47.8251 L 623.06,-48.0428 L 606.922,-54.268 L 606.01,-54.7639 L 605.389,-55.3235 L 604.898,-56
 L 604.557,-56.7639 L 604.384,-57.5819 L 604.384,-58.4181 L 604.557,-59.2361 L 604.898,-60 L 605.389,-60.6765
 L 606.01,-61.2361 L 606.735,-61.6542 L 607.53,-61.9126 L 608.362,-62 L 640.638,-62 L 641.667,-61.8654
 L 642.449,-61.567 L 643.151,-61.1127 L 643.743,-60.5224 L 644.199,-59.8218 L 644.5,-59.0416 L 644.633,-58.2159
 L 644.59,-57.3807 L 644.375,-56.5726 L 643.997,-55.8269 L 643.471,-55.1762 L 642.822,-54.6489 L 642.078,-54.268
 L 625.94,-48.0428 L 625.529,-47.9094 L 624.703,-47.78 z
M 522.725,-20.9806 L 521.918,-21.1983 L 436.186,-54.268 L 435.275,-54.7639 L 434.653,-55.3235 L 434.162,-56
 L 433.822,-56.7639 L 433.648,-57.5819 L 433.648,-58.4181 L 433.822,-59.2361 L 434.162,-60 L 434.653,-60.6765
 L 435.275,-61.2361 L 435.999,-61.6542 L 436.794,-61.9126 L 437.626,-62 L 523.357,-62 L 524.593,-61.8042
 L 525.357,-61.4641 L 526.034,-60.9726 L 526.593,-60.3511 L 527.011,-59.627 L 527.27,-58.8316 L 527.357,-58
 L 527.357,-24.9303 L 527.219,-23.8887 L 526.918,-23.1085 L 526.462,-22.4079 L 525.869,-21.8176 L 525.167,-21.3633
 L 524.386,-21.0649 L 523.56,-20.9354 z
M 346.439,-20.9806 L 345.632,-21.1983 L 259.901,-54.268 L 258.989,-54.7639 L 258.368,-55.3235 L 257.876,-56
 L 257.536,-56.7639 L 257.362,-57.5819 L 257.362,-58.4181 L 257.536,-59.2361 L 257.876,-60 L 258.368,-60.6765
 L 258.989,-61.2361 L 259.713,-61.6542 L 260.509,-61.9126 L 261.34,-62 L 347.071,-62 L 348.307,-61.8042
 L 349.071,-61.4641 L 349.748,-60.9726 L 350.307,-60.3511 L 350.726,-59.627 L 350.984,-58.8316 L 351.071,-58
 L 351.071,-24.9303 L 350.933,-23.8887 L 350.632,-23.1085 L 350.176,-22.4079 L 349.584,-21.8176 L 348.882,-21.3633
 L 348.1,-21.0649 L 347.274,-20.9354 z
M 1077.19,-21.0649 L 1076.4,-21.3633 L 1075.7,-21.8176 L 1075.11,-22.4079 L 1074.65,-23.1085 L 1074.35,-23.8887
 L 1074.21,-24.9303 L 1074.21,-58 L 1074.3,-58.8316 L 1074.56,-59.627 L 1074.98,-60.3511 L 1075.54,-60.9726
 L 1076.21,-61.4641 L 1076.98,-61.8042 L 1078.21,-62 L 1163.95,-62 L 1164.78,-61.9126 L 1165.57,-61.6542
 L 1166.3,-61.2361 L 1166.92,-60.6765 L 1167.41,-60 L 1167.75,-59.2361 L 1167.92,-58.4181 L 1167.92,-57.5819
 L 1167.75,-56.7639 L 1167.41,-56 L 1166.92,-55.3235 L 1166.3,-54.7639 L 1165.38,-54.268 L 1079.65,-21.1983
 L 1078.85,-20.9806 L 1078.01,-20.9354 z
M 170.154,-20.9806 L 169.346,-21.1983 L 83.615,-54.268 L 82.7034,-54.7639 L 82.082,-55.3235 L 81.5905,-56
 L 81.2503,-56.7639 L 81.0765,-57.5819 L 81.0765,-58.4181 L 81.2503,-59.2361 L 81.5905,-60 L 82.082,-60.6765
 L 82.7034,-61.2361 L 83.4276,-61.6542 L 84.2229,-61.9126 L 85.0546,-62 L 170.786,-62 L 172.022,-61.8042
 L 172.786,-61.4641 L 173.462,-60.9726 L 174.022,-60.3511 L 174.44,-59.627 L 174.698,-58.8316 L 174.786,-58
 L 174.786,-24.9303 L 174.648,-23.8887 L 174.347,-23.1085 L 173.89,-22.4079 L 173.298,-21.8176 L 172.596,-21.3633
 L 171.815,-21.0649 L 170.989,-20.9354 z
M 900.9,-21.0649 L 900.118,-21.3633 L 899.416,-21.8176 L 898.824,-22.4079 L 898.368,-23.1085 L 898.067,-23.8887
 L 897.929,-24.9303 L 897.929,-58 L 898.016,-58.8316 L 898.274,-59.627 L 898.693,-60.3511 L 899.252,-60.9726
 L 899.929,-61.4641 L 900.693,-61.8042 L 901.929,-62 L 987.66,-62 L 988.491,-61.9126 L 989.287,-61.6542
 L 990.011,-61.2361 L 990.632,-60.6765 L 991.124,-60 L 991.464,-59.2361 L 991.638,-58.4181 L 991.638,-57.5819
 L 991.464,-56.7639 L 991.124,-56 L 990.632,-55.3235 L 990.011,-54.7639 L 989.099,-54.268 L 903.368,-21.1983
 L 902.561,-20.9806 L 901.726,-20.9354 z
M 548.939,-18.8113 L 548.121,-18.9852 L 547.357,-19.3253 L 546.681,-19.8168 L 546.121,-20.4383 L 545.703,-21.1625
 L 545.445,-21.9578 L 545.357,-22.7894 L 545.357,-57.2106 L 545.495,-58.2522 L 545.796,-59.0323 L 546.253,-59.7329
 L 546.845,-60.3233 L 547.547,-60.7776 L 548.328,-61.076 L 549.154,-61.2054 L 549.989,-61.1603 L 550.797,-60.9426
 L 595.414,-43.732 L 596.487,-43.1127 L 597.079,-42.5224 L 597.536,-41.8218 L 597.836,-41.0416 L 597.969,-40.2159
 L 597.926,-39.3807 L 597.711,-38.5726 L 597.333,-37.8269 L 596.808,-37.1762 L 596.158,-36.6489 L 595.414,-36.268
 L 550.797,-19.0574 L 549.775,-18.8113 z
M 699.011,-18.8397 L 698.203,-19.0574 L 653.586,-36.268 L 652.513,-36.8873 L 651.921,-37.4776 L 651.464,-38.1782
 L 651.163,-38.9584 L 651.031,-39.7841 L 651.074,-40.6193 L 651.289,-41.4274 L 651.667,-42.1731 L 652.192,-42.8238
 L 652.841,-43.3511 L 653.586,-43.732 L 698.203,-60.9426 L 699.225,-61.1887 L 700.061,-61.1887 L 700.879,-61.0148
 L 701.643,-60.6747 L 702.319,-60.1832 L 702.879,-59.5617 L 703.297,-58.8375 L 703.555,-58.0422 L 703.643,-57.2106
 L 703.643,-22.7894 L 703.505,-21.7478 L 703.204,-20.9676 L 702.747,-20.2671 L 702.155,-19.6767 L 701.453,-19.2224
 L 700.672,-18.924 L 699.846,-18.7946 z
M 196.786,-18 L 195.55,-18.1958 L 194.786,-18.5359 L 194.109,-19.0274 L 193.55,-19.6489 L 193.132,-20.373
 L 192.873,-21.1684 L 192.786,-22 L 192.786,-55.0697 L 192.924,-56.1113 L 193.225,-56.8915 L 193.681,-57.5921
 L 194.273,-58.1824 L 194.976,-58.6367 L 195.757,-58.9351 L 196.583,-59.0646 L 197.418,-59.0194 L 198.225,-58.8017
 L 283.956,-25.732 L 284.868,-25.2361 L 285.489,-24.6765 L 285.981,-24 L 286.321,-23.2361 L 286.495,-22.4181
 L 286.495,-21.5819 L 286.321,-20.7639 L 285.981,-20 L 285.489,-19.3235 L 284.868,-18.7639 L 284.144,-18.3458
 L 283.348,-18.0874 L 282.517,-18 z
M 373.071,-18 L 371.835,-18.1958 L 371.071,-18.5359 L 370.395,-19.0274 L 369.835,-19.6489 L 369.417,-20.373
 L 369.159,-21.1684 L 369.071,-22 L 369.071,-55.0697 L 369.209,-56.1113 L 369.51,-56.8915 L 369.967,-57.5921
 L 370.559,-58.1824 L 371.261,-58.6367 L 372.042,-58.9351 L 372.869,-59.0646 L 373.704,-59.0194 L 374.511,-58.8017
 L 460.242,-25.732 L 461.154,-25.2361 L 461.775,-24.6765 L 462.267,-24 L 462.607,-23.2361 L 462.781,-22.4181
 L 462.781,-21.5819 L 462.607,-20.7639 L 462.267,-20 L 461.775,-19.3235 L 461.154,-18.7639 L 460.43,-18.3458
 L 459.634,-18.0874 L 458.803,-18 z
M 790.197,-18 L 789.366,-18.0874 L 788.57,-18.3458 L 787.846,-18.7639 L 787.225,-19.3235 L 786.733,-20
 L 786.393,-20.7639 L 786.219,-21.5819 L 786.219,-22.4181 L 786.393,-23.2361 L 786.733,-24 L 787.225,-24.6765
 L 787.846,-25.2361 L 788.758,-25.732 L 874.489,-58.8017 L 875.296,-59.0194 L 876.131,-59.0646 L 876.958,-58.9351
 L 877.739,-58.6367 L 878.441,-58.1824 L 879.033,-57.5921 L 879.49,-56.8915 L 879.791,-56.1113 L 879.929,-55.0697
 L 879.929,-22 L 879.841,-21.1684 L 879.583,-20.373 L 879.165,-19.6489 L 878.605,-19.0274 L 877.929,-18.5359
 L 877.165,-18.1958 L 875.929,-18 z
M 966.483,-18 L 965.652,-18.0874 L 964.856,-18.3458 L 964.132,-18.7639 L 963.511,-19.3235 L 963.019,-20
 L 962.679,-20.7639 L 962.505,-21.5819 L 962.505,-22.4181 L 962.679,-23.2361 L 963.019,-24 L 963.511,-24.6765
 L 964.132,-25.2361 L 965.044,-25.732 L 1050.77,-58.8017 L 1051.58,-59.0194 L 1052.42,-59.0646 L 1053.24,-58.9351
 L 1054.02,-58.6367 L 1054.73,-58.1824 L 1055.32,-57.5921 L 1055.78,-56.8915 L 1056.08,-56.1113 L 1056.21,-55.0697
 L 1056.21,-22 L 1056.13,-21.1684 L 1055.87,-20.373 L 1055.45,-19.6489 L 1054.89,-19.0274 L 1054.21,-18.5359
 L 1053.45,-18.1958 L 1052.21,-18 z
M 22,-18 L 20.7639,-18.1958 L 20,-18.5359 L 19.3235,-19.0274 L 18.7639,-19.6489 L 18.3458,-20.373
 L 18.0874,-21.1684 L 18,-22 L 18,-54.4911 L 18.138,-55.5327 L 18.4389,-56.3129 L 18.8955,-57.0135
 L 19.4878,-57.6038 L 20.1898,-58.0581 L 20.971,-58.3565 L 21.7972,-58.486 L 22.6322,-58.4408 L 23.4396,-58.2231
 L 107.671,-25.732 L 108.582,-25.2361 L 109.204,-24.6765 L 109.695,-24 L 110.035,-23.2361 L 110.209,-22.4181
 L 110.209,-21.5819 L 110.035,-20.7639 L 109.695,-20 L 109.204,-19.3235 L 108.582,-18.7639 L 107.858,-18.3458
 L 107.063,-18.0874 L 106.231,-18 z
M 1142.77,-18 L 1141.94,-18.0874 L 1141.14,-18.3458 L 1140.42,-18.7639 L 1139.8,-19.3235 L 1139.3,-20
 L 1138.96,-20.7639 L 1138.79,-21.5819 L 1138.79,-22.4181 L 1138.96,-23.2361 L 1139.3,-24 L 1139.8,-24.6765
 L 1140.42,-25.2361 L 1141.33,-25.732 L 1225.56,-58.2231 L 1226.37,-58.4408 L 1227.2,-58.486 L 1228.03,-58.3565
 L 1228.81,-58.0581 L 1229.51,-57.6038 L 1230.1,-57.0135 L 1230.56,-56.3129 L 1230.86,-55.5327 L 1231,-54.4911
 L 1231,-22 L 1230.91,-21.1684 L 1230.65,-20.373 L 1230.24,-19.6489 L 1229.68,-19.0274 L 1229,-18.5359
 L 1228.24,-18.1958 L 1227,-18 z
M 608.362,-18 L 607.333,-18.1346 L 606.551,-18.433 L 605.849,-18.8873 L 605.257,-19.4776 L 604.801,-20.1782
 L 604.5,-20.9584 L 604.367,-21.7841 L 604.41,-22.6193 L 604.625,-23.4274 L 605.003,-24.1731 L 605.529,-24.8238
 L 606.178,-25.3511 L 606.922,-25.732 L 623.06,-31.9572 L 623.471,-32.0906 L 624.297,-32.22 L 625.132,-32.1749
 L 625.94,-31.9572 L 642.078,-25.732 L 642.989,-25.2361 L 643.611,-24.6765 L 644.102,-24 L 644.443,-23.2361
 L 644.616,-22.4181 L 644.616,-21.5819 L 644.443,-20.7639 L 644.102,-20 L 643.611,-19.3235 L 642.989,-18.7639
 L 642.265,-18.3458 L 641.47,-18.0874 L 640.638,-18 z
" stroke="black" fill="lightgray" stroke-width="0.5"/>
</svg>
