<?xml version="1.0" standalone="no"?>
<!DOCTYPE svg PUBLIC "-//W3C//DTD SVG 1.1//EN" "http://www.w3.org/Graphics/SVG/1.1/DTD/svg11.dtd">
<svg width="1224mm" height="80mm" viewBox="0 -80 1224 80" xmlns="http://www.w3.org/2000/svg" version="1.1">
<title>OpenSCAD Model</title>
<path d="
M 1224,-80 L 0,-80 L 0,-0 L 4.95,-0 L 4.95,-6 L 5.00572,-6.53017
 L 5.17046,-7.03717 L 5.437,-7.49884 L 5.79372,-7.895 L 6.22499,-8.20836 L 6.71201,-8.42519 L 7.23344,-8.53603
 L 7.76654,-8.53603 L 8.28798,-8.42519 L 8.77499,-8.20836 L 9.20627,-7.895 L 9.56299,-7.49884 L 9.82953,-7.03717
 L 9.99426,-6.53017 L 10.05,-6 L 10.05,-0 L 177.664,-0 L 177.664,-6 L 177.72,-6.53017
 L 177.885,-7.03717 L 178.151,-7.49884 L 178.508,-7.895 L 178.939,-8.20836 L 179.426,-8.42519 L 179.948,-8.53603
 L 180.481,-8.53603 L 181.002,-8.42519 L 181.489,-8.20836 L 181.921,-7.895 L 182.277,-7.49884 L 182.544,-7.03717
 L 182.709,-6.53017 L 182.764,-6 L 182.764,-0 L 350.379,-0 L 350.379,-6 L 350.434,-6.53017
 L 350.599,-7.03717 L 350.866,-7.49884 L 351.222,-7.895 L 351.654,-8.20836 L 352.141,-8.42519 L 352.662,-8.53603
 L 353.195,-8.53603 L 353.717,-8.42519 L 354.204,-8.20836 L 354.635,-7.895 L 354.992,-7.49884 L 355.258,-7.03717
 L 355.423,-6.53017 L 355.479,-6 L 355.479,-0 L 523.093,-0 L 523.093,-6 L 523.149,-6.53017
 L 523.313,-7.03717 L 523.58,-7.49884 L 523.937,-7.895 L 524.368,-8.20836 L 524.855,-8.42519 L 525.376,-8.53603
 L 525.909,-8.53603 L 526.431,-8.42519 L 526.918,-8.20836 L 527.349,-7.895 L 527.706,-7.49884 L 527.972,-7.03717
 L 528.137,-6.53017 L 528.193,-6 L 528.193,-0 L 695.807,-0 L 695.807,-6 L 695.863,-6.53017
 L 696.028,-7.03717 L 696.294,-7.49884 L 696.651,-7.895 L 697.082,-8.20836 L 697.569,-8.42519 L 698.091,-8.53603
 L 698.624,-8.53603 L 699.145,-8.42519 L 699.632,-8.20836 L 700.063,-7.895 L 700.42,-7.49884 L 700.687,-7.03717
 L 700.851,-6.53017 L 700.907,-6 L 700.907,-0 L 868.521,-0 L 868.521,-6 L 868.577,-6.53017
 L 868.742,-7.03717 L 869.008,-7.49884 L 869.365,-7.895 L 869.796,-8.20836 L 870.283,-8.42519 L 870.805,-8.53603
 L 871.338,-8.53603 L 871.859,-8.42519 L 872.346,-8.20836 L 872.778,-7.895 L 873.134,-7.49884 L 873.401,-7.03717
 L 873.566,-6.53017 L 873.621,-6 L 873.621,-0 L 1041.24,-0 L 1041.24,-6 L 1041.29,-6.53017
 L 1041.46,-7.03717 L 1041.72,-7.49884 L 1042.08,-7.895 L 1042.51,-8.20836 L 1043,-8.42519 L 1043.52,-8.53603
 L 1044.05,-8.53603 L 1044.57,-8.42519 L 1045.06,-8.20836 L 1045.49,-7.895 L 1045.85,-7.49884 L 1046.12,-7.03717
 L 1046.28,-6.53017 L 1046.34,-6 L 1046.34,-0 L 1213.95,-0 L 1213.95,-6 L 1214.01,-6.53017
 L 1214.17,-7.03717 L 1214.44,-7.49884 L 1214.79,-7.895 L 1215.22,-8.20836 L 1215.71,-8.42519 L 1216.23,-8.53603
 L 1216.77,-8.53603 L 1217.29,-8.42519 L 1217.77,-8.20836 L 1218.21,-7.895 L 1218.56,-7.49884 L 1218.83,-7.03717
 L 1218.99,-6.53017 L 1219.05,-6 L 1219.05,-0 L 1224,-0 z
M 6.98573,-55.607 L 6.47708,-55.6875 L 5.97964,-55.8208 L 5.49887,-56.0054 L 5.04001,-56.2392 L 4.60811,-56.5196
 L 4.20789,-56.8437 L 3.84373,-57.2079 L 3.51964,-57.6081 L 3.23917,-58.04 L 3.00537,-58.4989 L 2.82082,-58.9796
 L 2.68752,-59.4771 L 2.60696,-59.9857 L 2.58,-60.5 L 2.60696,-61.0143 L 2.68752,-61.5229 L 2.82082,-62.0204
 L 3.00537,-62.5011 L 3.23917,-62.96 L 3.51964,-63.3919 L 3.84373,-63.7921 L 4.20789,-64.1563 L 4.60811,-64.4804
 L 4.95001,-64.7024 L 4.95001,-74 L 5.00574,-74.5302 L 5.17047,-75.0372 L 5.43701,-75.4988 L 5.79373,-75.895
 L 6.22501,-76.2084 L 6.71202,-76.4252 L 7.23346,-76.536 L 7.76654,-76.536 L 8.28798,-76.4252 L 8.77499,-76.2084
 L 9.20627,-75.895 L 9.56299,-75.4988 L 9.82953,-75.0372 L 9.99426,-74.5302 L 10.05,-74 L 10.05,-64.7024
 L 10.3919,-64.4804 L 10.7921,-64.1563 L 11.1563,-63.7921 L 11.4804,-63.3919 L 11.7608,-62.96 L 11.9946,-62.5011
 L 12.1792,-62.0204 L 12.3125,-61.5229 L 12.393,-61.0143 L 12.42,-60.5 L 12.393,-59.9857 L 12.3125,-59.4771
 L 12.1792,-58.9796 L 11.9946,-58.4989 L 11.7608,-58.04 L 11.4804,-57.6081 L 11.1563,-57.2079 L 10.7921,-56.8437
 L 10.3919,-56.5196 L 9.95999,-56.2392 L 9.50113,-56.0054 L 9.02036,-55.8208 L 8.52292,-55.6875 L 8.01427,-55.607
 L 7.5,-55.58 z
M 179.7,-55.607 L 179.191,-55.6875 L 178.694,-55.8208 L 178.213,-56.0054 L 177.754,-56.2392 L 177.322,-56.5196
 L 176.922,-56.8437 L 176.558,-57.2079 L 176.234,-57.6081 L 175.953,-58.04 L 175.72,-58.4989 L 175.535,-58.9796
 L 175.402,-59.4771 L 175.321,-59.9857 L 175.294,-60.5 L 175.321,-61.0143 L 175.402,-61.5229 L 175.535,-62.0204
 L 175.72,-62.5011 L 175.953,-62.96 L 176.234,-63.3919 L 176.558,-63.7921 L 176.922,-64.1563 L 177.322,-64.4804
 L 177.664,-64.7024 L 177.664,-74 L 177.72,-74.5302 L 177.885,-75.0372 L 178.151,-75.4988 L 178.508,-75.895
 L 178.939,-76.2084 L 179.426,-76.4252 L 179.948,-76.536 L 180.481,-76.536 L 181.002,-76.4252 L 181.489,-76.2084
 L 181.921,-75.895 L 182.277,-75.4988 L 182.544,-75.0372 L 182.709,-74.5302 L 182.764,-74 L 182.764,-64.7024
 L 183.106,-64.4804 L 183.506,-64.1563 L 183.871,-63.7921 L 184.195,-63.3919 L 184.475,-62.96 L 184.709,-62.5011
 L 184.893,-62.0204 L 185.027,-61.5229 L 185.107,-61.0143 L 185.134,-60.5 L 185.107,-59.9857 L 185.027,-59.4771
 L 184.893,-58.9796 L 184.709,-58.4989 L 184.475,-58.04 L 184.195,-57.6081 L 183.871,-57.2079 L 183.506,-56.8437
 L 183.106,-56.5196 L 182.674,-56.2392 L 182.215,-56.0054 L 181.735,-55.8208 L 181.237,-55.6875 L 180.729,-55.607
 L 180.214,-55.58 z
M 352.414,-55.607 L 351.906,-55.6875 L 351.408,-55.8208 L 350.927,-56.0054 L 350.469,-56.2392 L 350.037,-56.5196
 L 349.636,-56.8437 L 349.272,-57.2079 L 348.948,-57.6081 L 348.668,-58.04 L 348.434,-58.4989 L 348.249,-58.9796
 L 348.116,-59.4771 L 348.036,-59.9857 L 348.009,-60.5 L 348.036,-61.0143 L 348.116,-61.5229 L 348.249,-62.0204
 L 348.434,-62.5011 L 348.668,-62.96 L 348.948,-63.3919 L 349.272,-63.7921 L 349.636,-64.1563 L 350.037,-64.4804
 L 350.379,-64.7024 L 350.379,-74 L 350.434,-74.5302 L 350.599,-75.0372 L 350.866,-75.4988 L 351.222,-75.895
 L 351.654,-76.2084 L 352.141,-76.4252 L 352.662,-76.536 L 353.195,-76.536 L 353.717,-76.4252 L 354.204,-76.2084
 L 354.635,-75.895 L 354.992,-75.4988 L 355.258,-75.0372 L 355.423,-74.5302 L 355.479,-74 L 355.479,-64.7024
 L 355.82,-64.4804 L 356.221,-64.1563 L 356.585,-63.7921 L 356.909,-63.3919 L 357.189,-62.96 L 357.423,-62.5011
 L 357.608,-62.0204 L 357.741,-61.5229 L 357.822,-61.0143 L 357.849,-60.5 L 357.822,-59.9857 L 357.741,-59.4771
 L 357.608,-58.9796 L 357.423,-58.4989 L 357.189,-58.04 L 356.909,-57.6081 L 356.585,-57.2079 L 356.221,-56.8437
 L 355.82,-56.5196 L 355.389,-56.2392 L 354.93,-56.0054 L 354.449,-55.8208 L 353.951,-55.6875 L 353.443,-55.607
 L 352.929,-55.58 z
M 525.129,-55.607 L 524.62,-55.6875 L 524.122,-55.8208 L 523.642,-56.0054 L 523.183,-56.2392 L 522.751,-56.5196
 L 522.351,-56.8437 L 521.987,-57.2079 L 521.662,-57.6081 L 521.382,-58.04 L 521.148,-58.4989 L 520.964,-58.9796
 L 520.83,-59.4771 L 520.75,-59.9857 L 520.723,-60.5 L 520.75,-61.0143 L 520.83,-61.5229 L 520.964,-62.0204
 L 521.148,-62.5011 L 521.382,-62.96 L 521.662,-63.3919 L 521.987,-63.7921 L 522.351,-64.1563 L 522.751,-64.4804
 L 523.093,-64.7024 L 523.093,-74 L 523.149,-74.5302 L 523.313,-75.0372 L 523.58,-75.4988 L 523.937,-75.895
 L 524.368,-76.2084 L 524.855,-76.4252 L 525.376,-76.536 L 525.909,-76.536 L 526.431,-76.4252 L 526.918,-76.2084
 L 527.349,-75.895 L 527.706,-75.4988 L 527.972,-75.0372 L 528.137,-74.5302 L 528.193,-74 L 528.193,-64.7024
 L 528.535,-64.4804 L 528.935,-64.1563 L 529.299,-63.7921 L 529.623,-63.3919 L 529.904,-62.96 L 530.137,-62.5011
 L 530.322,-62.0204 L 530.455,-61.5229 L 530.536,-61.0143 L 530.563,-60.5 L 530.536,-59.9857 L 530.455,-59.4771
 L 530.322,-58.9796 L 530.137,-58.4989 L 529.904,-58.04 L 529.623,-57.6081 L 529.299,-57.2079 L 528.935,-56.8437
 L 528.535,-56.5196 L 528.103,-56.2392 L 527.644,-56.0054 L 527.163,-55.8208 L 526.666,-55.6875 L 526.157,-55.607
 L 525.643,-55.58 z
M 697.843,-55.607 L 697.334,-55.6875 L 696.837,-55.8208 L 696.356,-56.0054 L 695.897,-56.2392 L 695.465,-56.5196
 L 695.065,-56.8437 L 694.701,-57.2079 L 694.377,-57.6081 L 694.096,-58.04 L 693.863,-58.4989 L 693.678,-58.9796
 L 693.545,-59.4771 L 693.464,-59.9857 L 693.437,-60.5 L 693.464,-61.0143 L 693.545,-61.5229 L 693.678,-62.0204
 L 693.863,-62.5011 L 694.096,-62.96 L 694.377,-63.3919 L 694.701,-63.7921 L 695.065,-64.1563 L 695.465,-64.4804
 L 695.807,-64.7024 L 695.807,-74 L 695.863,-74.5302 L 696.028,-75.0372 L 696.294,-75.4988 L 696.651,-75.895
 L 697.082,-76.2084 L 697.569,-76.4252 L 698.091,-76.536 L 698.624,-76.536 L 699.145,-76.4252 L 699.632,-76.2084
 L 700.063,-75.895 L 700.42,-75.4988 L 700.687,-75.0372 L 700.851,-74.5302 L 700.907,-74 L 700.907,-64.7024
 L 701.249,-64.4804 L 701.649,-64.1563 L 702.013,-63.7921 L 702.337,-63.3919 L 702.618,-62.96 L 702.852,-62.5011
 L 703.036,-62.0204 L 703.17,-61.5229 L 703.25,-61.0143 L 703.277,-60.5 L 703.25,-59.9857 L 703.17,-59.4771
 L 703.036,-58.9796 L 702.852,-58.4989 L 702.618,-58.04 L 702.337,-57.6081 L 702.013,-57.2079 L 701.649,-56.8437
 L 701.249,-56.5196 L 700.817,-56.2392 L 700.358,-56.0054 L 699.877,-55.8208 L 699.38,-55.6875 L 698.871,-55.607
 L 698.357,-55.58 z
M 870.557,-55.607 L 870.049,-55.6875 L 869.551,-55.8208 L 869.07,-56.0054 L 868.611,-56.2392 L 868.18,-56.5196
 L 867.779,-56.8437 L 867.415,-57.2079 L 867.091,-57.6081 L 866.811,-58.04 L 866.577,-58.4989 L 866.392,-58.9796
 L 866.259,-59.4771 L 866.178,-59.9857 L 866.151,-60.5 L 866.178,-61.0143 L 866.259,-61.5229 L 866.392,-62.0204
 L 866.577,-62.5011 L 866.811,-62.96 L 867.091,-63.3919 L 867.415,-63.7921 L 867.779,-64.1563 L 868.18,-64.4804
 L 868.521,-64.7024 L 868.521,-74 L 868.577,-74.5302 L 868.742,-75.0372 L 869.008,-75.4988 L 869.365,-75.895
 L 869.796,-76.2084 L 870.283,-76.4252 L 870.805,-76.536 L 871.338,-76.536 L 871.859,-76.4252 L 872.346,-76.2084
 L 872.778,-75.895 L 873.134,-75.4988 L 873.401,-75.0372 L 873.566,-74.5302 L 873.621,-74 L 873.621,-64.7024
 L 873.963,-64.4804 L 874.364,-64.1563 L 874.728,-63.7921 L 875.052,-63.3919 L 875.332,-62.96 L 875.566,-62.5011
 L 875.751,-62.0204 L 875.884,-61.5229 L 875.964,-61.0143 L 875.991,-60.5 L 875.964,-59.9857 L 875.884,-59.4771
 L 875.751,-58.9796 L 875.566,-58.4989 L 875.332,-58.04 L 875.052,-57.6081 L 874.728,-57.2079 L 874.364,-56.8437
 L 873.963,-56.5196 L 873.531,-56.2392 L 873.073,-56.0054 L 872.592,-55.8208 L 872.094,-55.6875 L 871.586,-55.607
 L 871.071,-55.58 z
M 1043.27,-55.607 L 1042.76,-55.6875 L 1042.27,-55.8208 L 1041.78,-56.0054 L 1041.33,-56.2392 L 1040.89,-56.5196
 L 1040.49,-56.8437 L 1040.13,-57.2079 L 1039.81,-57.6081 L 1039.52,-58.04 L 1039.29,-58.4989 L 1039.11,-58.9796
 L 1038.97,-59.4771 L 1038.89,-59.9857 L 1038.87,-60.5 L 1038.89,-61.0143 L 1038.97,-61.5229 L 1039.11,-62.0204
 L 1039.29,-62.5011 L 1039.52,-62.96 L 1039.81,-63.3919 L 1040.13,-63.7921 L 1040.49,-64.1563 L 1040.89,-64.4804
 L 1041.24,-64.7024 L 1041.24,-74 L 1041.29,-74.5302 L 1041.46,-75.0372 L 1041.72,-75.4988 L 1042.08,-75.895
 L 1042.51,-76.2084 L 1043,-76.4252 L 1043.52,-76.536 L 1044.05,-76.536 L 1044.57,-76.4252 L 1045.06,-76.2084
 L 1045.49,-75.895 L 1045.85,-75.4988 L 1046.12,-75.0372 L 1046.28,-74.5302 L 1046.34,-74 L 1046.34,-64.7024
 L 1046.68,-64.4804 L 1047.08,-64.1563 L 1047.44,-63.7921 L 1047.77,-63.3919 L 1048.05,-62.96 L 1048.28,-62.5011
 L 1048.46,-62.0204 L 1048.6,-61.5229 L 1048.68,-61.0143 L 1048.71,-60.5 L 1048.68,-59.9857 L 1048.6,-59.4771
 L 1048.46,-58.9796 L 1048.28,-58.4989 L 1048.05,-58.04 L 1047.77,-57.6081 L 1047.44,-57.2079 L 1047.08,-56.8437
 L 1046.68,-56.5196 L 1046.25,-56.2392 L 1045.79,-56.0054 L 1045.31,-55.8208 L 1044.81,-55.6875 L 1044.3,-55.607
 L 1043.79,-55.58 z
M 1215.99,-55.607 L 1215.48,-55.6875 L 1214.98,-55.8208 L 1214.5,-56.0054 L 1214.04,-56.2392 L 1213.61,-56.5196
 L 1213.21,-56.8437 L 1212.84,-57.2079 L 1212.52,-57.6081 L 1212.24,-58.04 L 1212.01,-58.4989 L 1211.82,-58.9796
 L 1211.69,-59.4771 L 1211.61,-59.9857 L 1211.58,-60.5 L 1211.61,-61.0143 L 1211.69,-61.5229 L 1211.82,-62.0204
 L 1212.01,-62.5011 L 1212.24,-62.96 L 1212.52,-63.3919 L 1212.84,-63.7921 L 1213.21,-64.1563 L 1213.61,-64.4804
 L 1213.95,-64.7024 L 1213.95,-74 L 1214.01,-74.5302 L 1214.17,-75.0372 L 1214.44,-75.4988 L 1214.79,-75.895
 L 1215.23,-76.2084 L 1215.71,-76.4252 L 1216.23,-76.536 L 1216.77,-76.536 L 1217.29,-76.4252 L 1217.77,-76.2084
 L 1218.21,-75.895 L 1218.56,-75.4988 L 1218.83,-75.0372 L 1218.99,-74.5302 L 1219.05,-74 L 1219.05,-64.7024
 L 1219.39,-64.4804 L 1219.79,-64.1563 L 1220.16,-63.7921 L 1220.48,-63.3919 L 1220.76,-62.96 L 1220.99,-62.5011
 L 1221.18,-62.0204 L 1221.31,-61.5229 L 1221.39,-61.0143 L 1221.42,-60.5 L 1221.39,-59.9857 L 1221.31,-59.4771
 L 1221.18,-58.9796 L 1220.99,-58.4989 L 1220.76,-58.04 L 1220.48,-57.6081 L 1220.16,-57.2079 L 1219.79,-56.8437
 L 1219.39,-56.5196 L 1218.96,-56.2392 L 1218.5,-56.0054 L 1218.02,-55.8208 L 1217.52,-55.6875 L 1217.01,-55.607
 L 1216.5,-55.58 z
M 710.355,-21.2037 L 709.572,-21.4967 L 708.867,-21.9462 L 708.27,-22.5324 L 707.809,-23.2298 L 707.502,-24.0079
 L 707.357,-25.0762 L 707.357,-58 L 707.445,-58.8316 L 707.703,-59.627 L 708.121,-60.3511 L 708.681,-60.9726
 L 709.357,-61.4641 L 710.121,-61.8042 L 711.357,-62 L 794.981,-62 L 795.813,-61.9126 L 796.608,-61.6542
 L 797.332,-61.2361 L 797.954,-60.6765 L 798.445,-60 L 798.785,-59.2361 L 798.959,-58.4181 L 798.959,-57.5819
 L 798.785,-56.7639 L 798.445,-56 L 797.954,-55.3235 L 797.332,-54.7639 L 796.446,-54.2781 L 712.823,-21.3542
 L 712.017,-21.1309 L 711.182,-21.08 z
M 611.34,-47.8653 L 610.535,-48.0886 L 594.814,-54.2781 L 593.928,-54.7639 L 593.307,-55.3235 L 592.815,-56
 L 592.475,-56.7639 L 592.301,-57.5819 L 592.301,-58.4181 L 592.475,-59.2361 L 592.815,-60 L 593.307,-60.6765
 L 593.928,-61.2361 L 594.652,-61.6542 L 595.448,-61.9126 L 596.279,-62 L 627.721,-62 L 628.723,-61.8724
 L 629.506,-61.5794 L 630.211,-61.13 L 630.808,-60.5438 L 631.269,-59.8464 L 631.575,-59.0683 L 631.713,-58.2435
 L 631.677,-57.4081 L 631.467,-56.5985 L 631.094,-55.8502 L 630.573,-55.1959 L 629.928,-54.6641 L 629.186,-54.2781
 L 613.465,-48.0886 L 613.002,-47.9381 L 612.175,-47.8143 z
M 511.983,-21.1309 L 511.177,-21.3542 L 427.554,-54.2781 L 426.668,-54.7639 L 426.046,-55.3235 L 425.555,-56
 L 425.215,-56.7639 L 425.041,-57.5819 L 425.041,-58.4181 L 425.215,-59.2361 L 425.555,-60 L 426.046,-60.6765
 L 426.668,-61.2361 L 427.392,-61.6542 L 428.187,-61.9126 L 429.019,-62 L 512.643,-62 L 513.879,-61.8042
 L 514.643,-61.4641 L 515.319,-60.9726 L 515.879,-60.3511 L 516.297,-59.627 L 516.555,-58.8316 L 516.643,-58
 L 516.643,-25.0762 L 516.498,-24.0079 L 516.191,-23.2298 L 515.73,-22.5324 L 515.133,-21.9462 L 514.428,-21.4967
 L 513.645,-21.2037 L 512.818,-21.08 z
M 339.269,-21.1309 L 338.463,-21.3542 L 254.839,-54.2781 L 253.954,-54.7639 L 253.332,-55.3235 L 252.841,-56
 L 252.501,-56.7639 L 252.327,-57.5819 L 252.327,-58.4181 L 252.501,-59.2361 L 252.841,-60 L 253.332,-60.6765
 L 253.954,-61.2361 L 254.678,-61.6542 L 255.473,-61.9126 L 256.305,-62 L 339.929,-62 L 341.165,-61.8042
 L 341.929,-61.4641 L 342.605,-60.9726 L 343.165,-60.3511 L 343.583,-59.627 L 343.841,-58.8316 L 343.929,-58
 L 343.929,-25.0762 L 343.783,-24.0079 L 343.477,-23.2298 L 343.015,-22.5324 L 342.419,-21.9462 L 341.714,-21.4967
 L 340.931,-21.2037 L 340.104,-21.08 z
M 1055.78,-21.2037 L 1055,-21.4967 L 1054.3,-21.9462 L 1053.7,-22.5324 L 1053.24,-23.2298 L 1052.93,-24.0079
 L 1052.79,-25.0762 L 1052.79,-58 L 1052.87,-58.8316 L 1053.13,-59.627 L 1053.55,-60.3511 L 1054.11,-60.9726
 L 1054.79,-61.4641 L 1055.55,-61.8042 L 1056.79,-62 L 1140.41,-62 L 1141.24,-61.9126 L 1142.04,-61.6542
 L 1142.76,-61.2361 L 1143.38,-60.6765 L 1143.87,-60 L 1144.21,-59.2361 L 1144.39,-58.4181 L 1144.39,-57.5819
 L 1144.21,-56.7639 L 1143.87,-56 L 1143.38,-55.3235 L 1142.76,-54.7639 L 1141.87,-54.2781 L 1058.25,-21.3542
 L 1057.45,-21.1309 L 1056.61,-21.08 z
M 166.555,-21.1309 L 165.749,-21.3542 L 82.1251,-54.2781 L 81.2393,-54.7639 L 80.6179,-55.3235 L 80.1264,-56
 L 79.7863,-56.7639 L 79.6124,-57.5819 L 79.6124,-58.4181 L 79.7863,-59.2361 L 80.1264,-60 L 80.6179,-60.6765
 L 81.2393,-61.2361 L 81.9635,-61.6542 L 82.7588,-61.9126 L 83.5905,-62 L 167.214,-62 L 168.45,-61.8042
 L 169.214,-61.4641 L 169.891,-60.9726 L 170.45,-60.3511 L 170.868,-59.627 L 171.127,-58.8316 L 171.214,-58
 L 171.214,-25.0762 L 171.069,-24.0079 L 170.763,-23.2298 L 170.301,-22.5324 L 169.705,-21.9462 L 169,-21.4967
 L 168.216,-21.2037 L 167.389,-21.08 z
M 883.069,-21.2037 L 882.286,-21.4967 L 881.581,-21.9462 L 880.984,-22.5324 L 880.523,-23.2298 L 880.217,-24.0079
 L 880.071,-25.0762 L 880.071,-58 L 880.159,-58.8316 L 880.417,-59.627 L 880.835,-60.3511 L 881.395,-60.9726
 L 882.071,-61.4641 L 882.835,-61.8042 L 884.071,-62 L 967.695,-62 L 968.527,-61.9126 L 969.322,-61.6542
 L 970.046,-61.2361 L 970.668,-60.6765 L 971.159,-60 L 971.499,-59.2361 L 971.673,-58.4181 L 971.673,-57.5819
 L 971.499,-56.7639 L 971.159,-56 L 970.668,-55.3235 L 970.046,-54.7639 L 969.161,-54.2781 L 885.537,-21.3542
 L 884.731,-21.1309 L 883.896,-21.08 z
M 538.225,-18.9507 L 537.407,-19.1246 L 536.643,-19.4647 L 535.966,-19.9562 L 535.407,-20.5777 L 534.989,-21.3018
 L 534.73,-22.0972 L 534.643,-22.9288 L 534.643,-57.0712 L 534.788,-58.1395 L 535.094,-58.9176 L 535.556,-59.615
 L 536.152,-60.2012 L 536.857,-60.6506 L 537.641,-60.9436 L 538.468,-61.0674 L 539.302,-61.0164 L 540.108,-60.7931
 L 583.468,-43.7219 L 584.493,-43.13 L 585.089,-42.5438 L 585.551,-41.8464 L 585.857,-41.0683 L 585.995,-40.2435
 L 585.958,-39.4081 L 585.749,-38.5985 L 585.375,-37.8502 L 584.855,-37.1959 L 584.209,-36.6641 L 583.468,-36.2781
 L 540.108,-19.2069 L 539.061,-18.9507 z
M 684.698,-18.9835 L 683.892,-19.2069 L 640.532,-36.2781 L 639.507,-36.87 L 638.911,-37.4562 L 638.449,-38.1536
 L 638.143,-38.9317 L 638.005,-39.7565 L 638.042,-40.5919 L 638.251,-41.4015 L 638.624,-42.1498 L 639.145,-42.8041
 L 639.791,-43.3359 L 640.532,-43.7219 L 683.892,-60.7931 L 684.939,-61.0493 L 685.775,-61.0493 L 686.593,-60.8754
 L 687.357,-60.5353 L 688.034,-60.0438 L 688.593,-59.4223 L 689.011,-58.6982 L 689.27,-57.9029 L 689.357,-57.0712
 L 689.357,-22.9288 L 689.212,-21.8605 L 688.905,-21.0824 L 688.444,-20.385 L 687.848,-19.7988 L 687.143,-19.3493
 L 686.359,-19.0564 L 685.532,-18.9326 z
M 193.214,-18 L 191.978,-18.1958 L 191.214,-18.5359 L 190.538,-19.0274 L 189.978,-19.6489 L 189.56,-20.373
 L 189.302,-21.1684 L 189.214,-22 L 189.214,-54.9238 L 189.36,-55.9921 L 189.666,-56.7702 L 190.127,-57.4676
 L 190.724,-58.0538 L 191.429,-58.5033 L 192.212,-58.7962 L 193.039,-58.92 L 193.874,-58.8691 L 194.68,-58.6458
 L 278.303,-25.7219 L 279.189,-25.2361 L 279.811,-24.6765 L 280.302,-24 L 280.642,-23.2361 L 280.816,-22.4181
 L 280.816,-21.5819 L 280.642,-20.7639 L 280.302,-20 L 279.811,-19.3235 L 279.189,-18.7639 L 278.465,-18.3458
 L 277.67,-18.0874 L 276.838,-18 z
M 365.929,-18 L 364.692,-18.1958 L 363.929,-18.5359 L 363.252,-19.0274 L 362.692,-19.6489 L 362.274,-20.373
 L 362.016,-21.1684 L 361.929,-22 L 361.929,-54.9238 L 362.074,-55.9921 L 362.38,-56.7702 L 362.842,-57.4676
 L 363.438,-58.0538 L 364.143,-58.5033 L 364.926,-58.7962 L 365.753,-58.92 L 366.588,-58.8691 L 367.394,-58.6458
 L 451.018,-25.7219 L 451.903,-25.2361 L 452.525,-24.6765 L 453.016,-24 L 453.357,-23.2361 L 453.53,-22.4181
 L 453.53,-21.5819 L 453.357,-20.7639 L 453.016,-20 L 452.525,-19.3235 L 451.903,-18.7639 L 451.179,-18.3458
 L 450.384,-18.0874 L 449.552,-18 z
M 774.448,-18 L 773.616,-18.0874 L 772.821,-18.3458 L 772.097,-18.7639 L 771.475,-19.3235 L 770.984,-20
 L 770.643,-20.7639 L 770.47,-21.5819 L 770.47,-22.4181 L 770.643,-23.2361 L 770.984,-24 L 771.475,-24.6765
 L 772.097,-25.2361 L 772.982,-25.7219 L 856.606,-58.6458 L 857.412,-58.8691 L 858.247,-58.92 L 859.074,-58.7962
 L 859.857,-58.5033 L 860.562,-58.0538 L 861.158,-57.4676 L 861.62,-56.7702 L 861.926,-55.9921 L 862.071,-54.9238
 L 862.071,-22 L 861.984,-21.1684 L 861.726,-20.373 L 861.307,-19.6489 L 860.748,-19.0274 L 860.071,-18.5359
 L 859.307,-18.1958 L 858.071,-18 z
M 947.162,-18 L 946.33,-18.0874 L 945.535,-18.3458 L 944.811,-18.7639 L 944.189,-19.3235 L 943.698,-20
 L 943.358,-20.7639 L 943.184,-21.5819 L 943.184,-22.4181 L 943.358,-23.2361 L 943.698,-24 L 944.189,-24.6765
 L 944.811,-25.2361 L 945.697,-25.7219 L 1029.32,-58.6458 L 1030.13,-58.8691 L 1030.96,-58.92 L 1031.79,-58.7962
 L 1032.57,-58.5033 L 1033.28,-58.0538 L 1033.87,-57.4676 L 1034.33,-56.7702 L 1034.64,-55.9921 L 1034.79,-54.9238
 L 1034.79,-22 L 1034.7,-21.1684 L 1034.44,-20.373 L 1034.02,-19.6489 L 1033.46,-19.0274 L 1032.79,-18.5359
 L 1032.02,-18.1958 L 1030.79,-18 z
M 22,-18 L 20.7639,-18.1958 L 20,-18.5359 L 19.3235,-19.0274 L 18.7639,-19.6489 L 18.3458,-20.373
 L 18.0874,-21.1684 L 18,-22 L 18,-54.3333 L 18.1453,-55.4016 L 18.4516,-56.1797 L 18.9131,-56.8771
 L 19.5094,-57.4633 L 20.2146,-57.9127 L 20.9978,-58.2057 L 21.8248,-58.3294 L 22.6595,-58.2785 L 23.4654,-58.0552
 L 105.589,-25.7219 L 106.475,-25.2361 L 107.096,-24.6765 L 107.588,-24 L 107.928,-23.2361 L 108.102,-22.4181
 L 108.102,-21.5819 L 107.928,-20.7639 L 107.588,-20 L 107.096,-19.3235 L 106.475,-18.7639 L 105.751,-18.3458
 L 104.955,-18.0874 L 104.124,-18 z
M 1119.88,-18 L 1119.04,-18.0874 L 1118.25,-18.3458 L 1117.53,-18.7639 L 1116.9,-19.3235 L 1116.41,-20
 L 1116.07,-20.7639 L 1115.9,-21.5819 L 1115.9,-22.4181 L 1116.07,-23.2361 L 1116.41,-24 L 1116.9,-24.6765
 L 1117.53,-25.2361 L 1118.41,-25.7219 L 1200.53,-58.0552 L 1201.34,-58.2785 L 1202.18,-58.3294 L 1203,-58.2057
 L 1203.79,-57.9127 L 1204.49,-57.4633 L 1205.09,-56.8771 L 1205.55,-56.1797 L 1205.85,-55.4016 L 1206,-54.3333
 L 1206,-22 L 1205.91,-21.1684 L 1205.65,-20.373 L 1205.24,-19.6489 L 1204.68,-19.0274 L 1204,-18.5359
 L 1203.24,-18.1958 L 1202,-18 z
M 596.279,-18 L 595.277,-18.1276 L 594.494,-18.4206 L 593.789,-18.87 L 593.192,-19.4562 L 592.731,-20.1536
 L 592.424,-20.9317 L 592.287,-21.7565 L 592.323,-22.5919 L 592.533,-23.4015 L 592.906,-24.1498 L 593.427,-24.8041
 L 594.072,-25.3359 L 594.814,-25.7219 L 610.535,-31.9114 L 610.998,-32.0619 L 611.825,-32.1857 L 612.66,-32.1347
 L 613.465,-31.9114 L 629.186,-25.7219 L 630.072,-25.2361 L 630.693,-24.6765 L 631.185,-24 L 631.525,-23.2361
 L 631.699,-22.4181 L 631.699,-21.5819 L 631.525,-20.7639 L 631.185,-20 L 630.693,-19.3235 L 630.072,-18.7639
 L 629.348,-18.3458 L 628.552,-18.0874 L 627.721,-18 z
" stroke="black" fill="lightgray" stroke-width="0.5"/>
</svg>
