<?xml version="1.0" standalone="no"?>
<!DOCTYPE svg PUBLIC "-//W3C//DTD SVG 1.1//EN" "http://www.w3.org/Graphics/SVG/1.1/DTD/svg11.dtd">
<svg width="1030mm" height="80mm" viewBox="0 -80 1030 80" xmlns="http://www.w3.org/2000/svg" version="1.1">
<title>OpenSCAD Model</title>
<path d="
M 1030,-80 L 0,-80 L 0,-0 L 4.95,-0 L 4.95,-6 L 5.00572,-6.53017
 L 5.17046,-7.03717 L 5.437,-7.49884 L 5.79372,-7.895 L 6.22499,-8.20836 L 6.71201,-8.42519 L 7.23344,-8.53603
 L 7.76654,-8.53603 L 8.28798,-8.42519 L 8.77499,-8.20836 L 9.20627,-7.895 L 9.56299,-7.49884 L 9.82953,-7.03717
 L 9.99426,-6.53017 L 10.05,-6 L 10.05,-0 L 174.117,-0 L 174.117,-6 L 174.172,-6.53017
 L 174.337,-7.03717 L 174.604,-7.49884 L 174.96,-7.895 L 175.392,-8.20836 L 175.879,-8.42519 L 176.4,-8.53603
 L 176.933,-8.53603 L 177.455,-8.42519 L 177.942,-8.20836 L 178.373,-7.895 L 178.73,-7.49884 L 178.996,-7.03717
 L 179.161,-6.53017 L 179.217,-6 L 179.217,-0 L 343.283,-0 L 343.283,-6 L 343.339,-6.53017
 L 343.504,-7.03717 L 343.77,-7.49884 L 344.127,-7.895 L 344.558,-8.20836 L 345.045,-8.42519 L 345.567,-8.53603
 L 346.1,-8.53603 L 346.621,-8.42519 L 347.108,-8.20836 L 347.54,-7.895 L 347.896,-7.49884 L 348.163,-7.03717
 L 348.328,-6.53017 L 348.383,-6 L 348.383,-0 L 512.45,-0 L 512.45,-6 L 512.506,-6.53017
 L 512.67,-7.03717 L 512.937,-7.49884 L 513.294,-7.895 L 513.725,-8.20836 L 514.212,-8.42519 L 514.733,-8.53603
 L 515.267,-8.53603 L 515.788,-8.42519 L 516.275,-8.20836 L 516.706,-7.895 L 517.063,-7.49884 L 517.33,-7.03717
 L 517.494,-6.53017 L 517.55,-6 L 517.55,-0 L 681.617,-0 L 681.617,-6 L 681.672,-6.53017
 L 681.837,-7.03717 L 682.104,-7.49884 L 682.46,-7.895 L 682.892,-8.20836 L 683.379,-8.42519 L 683.9,-8.53603
 L 684.433,-8.53603 L 684.955,-8.42519 L 685.442,-8.20836 L 685.873,-7.895 L 686.23,-7.49884 L 686.496,-7.03717
 L 686.661,-6.53017 L 686.717,-6 L 686.717,-0 L 850.783,-0 L 850.783,-6 L 850.839,-6.53017
 L 851.004,-7.03717 L 851.27,-7.49884 L 851.627,-7.895 L 852.058,-8.20836 L 852.545,-8.42519 L 853.067,-8.53603
 L 853.6,-8.53603 L 854.121,-8.42519 L 854.608,-8.20836 L 855.04,-7.895 L 855.396,-7.49884 L 855.663,-7.03717
 L 855.828,-6.53017 L 855.883,-6 L 855.883,-0 L 1019.95,-0 L 1019.95,-6 L 1020.01,-6.53017
 L 1020.17,-7.03717 L 1020.44,-7.49884 L 1020.79,-7.895 L 1021.22,-8.20836 L 1021.71,-8.42519 L 1022.23,-8.53603
 L 1022.77,-8.53603 L 1023.29,-8.42519 L 1023.77,-8.20836 L 1024.21,-7.895 L 1024.56,-7.49884 L 1024.83,-7.03717
 L 1024.99,-6.53017 L 1025.05,-6 L 1025.05,-0 L 1030,-0 z
M 6.98573,-55.607 L 6.47708,-55.6875 L 5.97964,-55.8208 L 5.49887,-56.0054 L 5.04001,-56.2392 L 4.60811,-56.5196
 L 4.20789,-56.8437 L 3.84373,-57.2079 L 3.51964,-57.6081 L 3.23917,-58.04 L 3.00537,-58.4989 L 2.82082,-58.9796
 L 2.68752,-59.4771 L 2.60696,-59.9857 L 2.58,-60.5 L 2.60696,-61.0143 L 2.68752,-61.5229 L 2.82082,-62.0204
 L 3.00537,-62.5011 L 3.23917,-62.96 L 3.51964,-63.3919 L 3.84373,-63.7921 L 4.20789,-64.1563 L 4.60811,-64.4804
 L 4.95001,-64.7024 L 4.95001,-74 L 5.00574,-74.5302 L 5.17047,-75.0372 L 5.43701,-75.4988 L 5.79373,-75.895
 L 6.22501,-76.2084 L 6.71202,-76.4252 L 7.23346,-76.536 L 7.76654,-76.536 L 8.28798,-76.4252 L 8.77499,-76.2084
 L 9.20627,-75.895 L 9.56299,-75.4988 L 9.82953,-75.0372 L 9.99426,-74.5302 L 10.05,-74 L 10.05,-64.7024
 L 10.3919,-64.4804 L 10.7921,-64.1563 L 11.1563,-63.7921 L 11.4804,-63.3919 L 11.7608,-62.96 L 11.9946,-62.5011
 L 12.1792,-62.0204 L 12.3125,-61.5229 L 12.393,-61.0143 L 12.42,-60.5 L 12.393,-59.9857 L 12.3125,-59.4771
 L 12.1792,-58.9796 L 11.9946,-58.4989 L 11.7608,-58.04 L 11.4804,-57.6081 L 11.1563,-57.2079 L 10.7921,-56.8437
 L 10.3919,-56.5196 L 9.95999,-56.2392 L 9.50113,-56.0054 L 9.02036,-55.8208 L 8.52292,-55.6875 L 8.01427,-55.607
 L 7.5,-55.58 z
M 176.152,-55.607 L 175.644,-55.6875 L 175.146,-55.8208 L 174.666,-56.0054 L 174.207,-56.2392 L 173.775,-56.5196
 L 173.375,-56.8437 L 173.01,-57.2079 L 172.686,-57.6081 L 172.406,-58.04 L 172.172,-58.4989 L 171.987,-58.9796
 L 171.854,-59.4771 L 171.774,-59.9857 L 171.747,-60.5 L 171.774,-61.0143 L 171.854,-61.5229 L 171.987,-62.0204
 L 172.172,-62.5011 L 172.406,-62.96 L 172.686,-63.3919 L 173.01,-63.7921 L 173.375,-64.1563 L 173.775,-64.4804
 L 174.117,-64.7024 L 174.117,-74 L 174.172,-74.5302 L 174.337,-75.0372 L 174.604,-75.4988 L 174.96,-75.895
 L 175.392,-76.2084 L 175.879,-76.4252 L 176.4,-76.536 L 176.933,-76.536 L 177.455,-76.4252 L 177.942,-76.2084
 L 178.373,-75.895 L 178.73,-75.4988 L 178.996,-75.0372 L 179.161,-74.5302 L 179.217,-74 L 179.217,-64.7024
 L 179.559,-64.4804 L 179.959,-64.1563 L 180.323,-63.7921 L 180.647,-63.3919 L 180.927,-62.96 L 181.161,-62.5011
 L 181.346,-62.0204 L 181.479,-61.5229 L 181.56,-61.0143 L 181.587,-60.5 L 181.56,-59.9857 L 181.479,-59.4771
 L 181.346,-58.9796 L 181.161,-58.4989 L 180.927,-58.04 L 180.647,-57.6081 L 180.323,-57.2079 L 179.959,-56.8437
 L 179.559,-56.5196 L 179.127,-56.2392 L 178.668,-56.0054 L 178.187,-55.8208 L 177.69,-55.6875 L 177.181,-55.607
 L 176.667,-55.58 z
M 345.319,-55.607 L 344.81,-55.6875 L 344.313,-55.8208 L 343.832,-56.0054 L 343.373,-56.2392 L 342.941,-56.5196
 L 342.541,-56.8437 L 342.177,-57.2079 L 341.853,-57.6081 L 341.572,-58.04 L 341.339,-58.4989 L 341.154,-58.9796
 L 341.021,-59.4771 L 340.94,-59.9857 L 340.913,-60.5 L 340.94,-61.0143 L 341.021,-61.5229 L 341.154,-62.0204
 L 341.339,-62.5011 L 341.572,-62.96 L 341.853,-63.3919 L 342.177,-63.7921 L 342.541,-64.1563 L 342.941,-64.4804
 L 343.283,-64.7024 L 343.283,-74 L 343.339,-74.5302 L 343.504,-75.0372 L 343.77,-75.4988 L 344.127,-75.895
 L 344.558,-76.2084 L 345.045,-76.4252 L 345.567,-76.536 L 346.1,-76.536 L 346.621,-76.4252 L 347.108,-76.2084
 L 347.54,-75.895 L 347.896,-75.4988 L 348.163,-75.0372 L 348.328,-74.5302 L 348.383,-74 L 348.383,-64.7024
 L 348.725,-64.4804 L 349.125,-64.1563 L 349.49,-63.7921 L 349.814,-63.3919 L 350.094,-62.96 L 350.328,-62.5011
 L 350.513,-62.0204 L 350.646,-61.5229 L 350.726,-61.0143 L 350.753,-60.5 L 350.726,-59.9857 L 350.646,-59.4771
 L 350.513,-58.9796 L 350.328,-58.4989 L 350.094,-58.04 L 349.814,-57.6081 L 349.49,-57.2079 L 349.125,-56.8437
 L 348.725,-56.5196 L 348.293,-56.2392 L 347.834,-56.0054 L 347.354,-55.8208 L 346.856,-55.6875 L 346.348,-55.607
 L 345.833,-55.58 z
M 514.486,-55.607 L 513.977,-55.6875 L 513.48,-55.8208 L 512.999,-56.0054 L 512.54,-56.2392 L 512.108,-56.5196
 L 511.708,-56.8437 L 511.344,-57.2079 L 511.02,-57.6081 L 510.739,-58.04 L 510.505,-58.4989 L 510.321,-58.9796
 L 510.188,-59.4771 L 510.107,-59.9857 L 510.08,-60.5 L 510.107,-61.0143 L 510.188,-61.5229 L 510.321,-62.0204
 L 510.505,-62.5011 L 510.739,-62.96 L 511.02,-63.3919 L 511.344,-63.7921 L 511.708,-64.1563 L 512.108,-64.4804
 L 512.45,-64.7024 L 512.45,-74 L 512.506,-74.5302 L 512.67,-75.0372 L 512.937,-75.4988 L 513.294,-75.895
 L 513.725,-76.2084 L 514.212,-76.4252 L 514.733,-76.536 L 515.267,-76.536 L 515.788,-76.4252 L 516.275,-76.2084
 L 516.706,-75.895 L 517.063,-75.4988 L 517.33,-75.0372 L 517.494,-74.5302 L 517.55,-74 L 517.55,-64.7024
 L 517.892,-64.4804 L 518.292,-64.1563 L 518.656,-63.7921 L 518.98,-63.3919 L 519.261,-62.96 L 519.495,-62.5011
 L 519.679,-62.0204 L 519.812,-61.5229 L 519.893,-61.0143 L 519.92,-60.5 L 519.893,-59.9857 L 519.812,-59.4771
 L 519.679,-58.9796 L 519.495,-58.4989 L 519.261,-58.04 L 518.98,-57.6081 L 518.656,-57.2079 L 518.292,-56.8437
 L 517.892,-56.5196 L 517.46,-56.2392 L 517.001,-56.0054 L 516.52,-55.8208 L 516.023,-55.6875 L 515.514,-55.607
 L 515,-55.58 z
M 683.652,-55.607 L 683.144,-55.6875 L 682.646,-55.8208 L 682.166,-56.0054 L 681.707,-56.2392 L 681.275,-56.5196
 L 680.875,-56.8437 L 680.51,-57.2079 L 680.186,-57.6081 L 679.906,-58.04 L 679.672,-58.4989 L 679.487,-58.9796
 L 679.354,-59.4771 L 679.274,-59.9857 L 679.247,-60.5 L 679.274,-61.0143 L 679.354,-61.5229 L 679.487,-62.0204
 L 679.672,-62.5011 L 679.906,-62.96 L 680.186,-63.3919 L 680.51,-63.7921 L 680.875,-64.1563 L 681.275,-64.4804
 L 681.617,-64.7024 L 681.617,-74 L 681.672,-74.5302 L 681.837,-75.0372 L 682.104,-75.4988 L 682.46,-75.895
 L 682.892,-76.2084 L 683.379,-76.4252 L 683.9,-76.536 L 684.433,-76.536 L 684.955,-76.4252 L 685.442,-76.2084
 L 685.873,-75.895 L 686.23,-75.4988 L 686.496,-75.0372 L 686.661,-74.5302 L 686.717,-74 L 686.717,-64.7024
 L 687.059,-64.4804 L 687.459,-64.1563 L 687.823,-63.7921 L 688.147,-63.3919 L 688.427,-62.96 L 688.661,-62.5011
 L 688.846,-62.0204 L 688.979,-61.5229 L 689.06,-61.0143 L 689.087,-60.5 L 689.06,-59.9857 L 688.979,-59.4771
 L 688.846,-58.9796 L 688.661,-58.4989 L 688.427,-58.04 L 688.147,-57.6081 L 687.823,-57.2079 L 687.459,-56.8437
 L 687.059,-56.5196 L 686.627,-56.2392 L 686.168,-56.0054 L 685.687,-55.8208 L 685.19,-55.6875 L 684.681,-55.607
 L 684.167,-55.58 z
M 852.819,-55.607 L 852.31,-55.6875 L 851.813,-55.8208 L 851.332,-56.0054 L 850.873,-56.2392 L 850.441,-56.5196
 L 850.041,-56.8437 L 849.677,-57.2079 L 849.353,-57.6081 L 849.072,-58.04 L 848.839,-58.4989 L 848.654,-58.9796
 L 848.521,-59.4771 L 848.44,-59.9857 L 848.413,-60.5 L 848.44,-61.0143 L 848.521,-61.5229 L 848.654,-62.0204
 L 848.839,-62.5011 L 849.072,-62.96 L 849.353,-63.3919 L 849.677,-63.7921 L 850.041,-64.1563 L 850.441,-64.4804
 L 850.783,-64.7024 L 850.783,-74 L 850.839,-74.5302 L 851.004,-75.0372 L 851.27,-75.4988 L 851.627,-75.895
 L 852.058,-76.2084 L 852.545,-76.4252 L 853.067,-76.536 L 853.6,-76.536 L 854.121,-76.4252 L 854.608,-76.2084
 L 855.04,-75.895 L 855.396,-75.4988 L 855.663,-75.0372 L 855.828,-74.5302 L 855.883,-74 L 855.883,-64.7024
 L 856.225,-64.4804 L 856.625,-64.1563 L 856.99,-63.7921 L 857.314,-63.3919 L 857.594,-62.96 L 857.828,-62.5011
 L 858.013,-62.0204 L 858.146,-61.5229 L 858.226,-61.0143 L 858.253,-60.5 L 858.226,-59.9857 L 858.146,-59.4771
 L 858.013,-58.9796 L 857.828,-58.4989 L 857.594,-58.04 L 857.314,-57.6081 L 856.99,-57.2079 L 856.625,-56.8437
 L 856.225,-56.5196 L 855.793,-56.2392 L 855.334,-56.0054 L 854.854,-55.8208 L 854.356,-55.6875 L 853.848,-55.607
 L 853.333,-55.58 z
M 1021.99,-55.607 L 1021.48,-55.6875 L 1020.98,-55.8208 L 1020.5,-56.0054 L 1020.04,-56.2392 L 1019.61,-56.5196
 L 1019.21,-56.8437 L 1018.84,-57.2079 L 1018.52,-57.6081 L 1018.24,-58.04 L 1018.01,-58.4989 L 1017.82,-58.9796
 L 1017.69,-59.4771 L 1017.61,-59.9857 L 1017.58,-60.5 L 1017.61,-61.0143 L 1017.69,-61.5229 L 1017.82,-62.0204
 L 1018.01,-62.5011 L 1018.24,-62.96 L 1018.52,-63.3919 L 1018.84,-63.7921 L 1019.21,-64.1563 L 1019.61,-64.4804
 L 1019.95,-64.7024 L 1019.95,-74 L 1020.01,-74.5302 L 1020.17,-75.0372 L 1020.44,-75.4988 L 1020.79,-75.895
 L 1021.23,-76.2084 L 1021.71,-76.4252 L 1022.23,-76.536 L 1022.77,-76.536 L 1023.29,-76.4252 L 1023.77,-76.2084
 L 1024.21,-75.895 L 1024.56,-75.4988 L 1024.83,-75.0372 L 1024.99,-74.5302 L 1025.05,-74 L 1025.05,-64.7024
 L 1025.39,-64.4804 L 1025.79,-64.1563 L 1026.16,-63.7921 L 1026.48,-63.3919 L 1026.76,-62.96 L 1026.99,-62.5011
 L 1027.18,-62.0204 L 1027.31,-61.5229 L 1027.39,-61.0143 L 1027.42,-60.5 L 1027.39,-59.9857 L 1027.31,-59.4771
 L 1027.18,-58.9796 L 1026.99,-58.4989 L 1026.76,-58.04 L 1026.48,-57.6081 L 1026.16,-57.2079 L 1025.79,-56.8437
 L 1025.39,-56.5196 L 1024.96,-56.2392 L 1024.5,-56.0054 L 1024.02,-55.8208 L 1023.52,-55.6875 L 1023.01,-55.607
 L 1022.5,-55.58 z
M 865.359,-21.3477 L 864.573,-21.6351 L 863.865,-22.0795 L 863.265,-22.6614 L 862.798,-23.3555 L 862.486,-24.1314
 L 862.333,-25.2272 L 862.333,-58 L 862.421,-58.8316 L 862.679,-59.627 L 863.097,-60.3511 L 863.657,-60.9726
 L 864.333,-61.4641 L 865.097,-61.8042 L 866.333,-62 L 947.864,-62 L 948.695,-61.9126 L 949.491,-61.6542
 L 950.215,-61.2361 L 950.836,-60.6765 L 951.328,-60 L 951.668,-59.2361 L 951.842,-58.4181 L 951.842,-57.5819
 L 951.668,-56.7639 L 951.328,-56 L 950.836,-55.3235 L 950.215,-54.7639 L 949.356,-54.2886 L 867.825,-21.5158
 L 867.021,-21.2867 L 866.187,-21.2298 z
M 332.146,-21.2867 L 331.341,-21.5158 L 249.811,-54.2886 L 248.952,-54.7639 L 248.33,-55.3235 L 247.839,-56
 L 247.499,-56.7639 L 247.325,-57.5819 L 247.325,-58.4181 L 247.499,-59.2361 L 247.839,-60 L 248.33,-60.6765
 L 248.952,-61.2361 L 249.676,-61.6542 L 250.471,-61.9126 L 251.303,-62 L 332.833,-62 L 334.069,-61.8042
 L 334.833,-61.4641 L 335.51,-60.9726 L 336.069,-60.3511 L 336.487,-59.627 L 336.746,-58.8316 L 336.833,-58
 L 336.833,-25.2272 L 336.68,-24.1314 L 336.368,-23.3555 L 335.902,-22.6614 L 335.302,-22.0795 L 334.593,-21.6351
 L 333.808,-21.3477 L 332.98,-21.2298 z
M 162.979,-21.2867 L 162.175,-21.5158 L 80.6443,-54.2886 L 79.785,-54.7639 L 79.1636,-55.3235 L 78.6721,-56
 L 78.3319,-56.7639 L 78.1581,-57.5819 L 78.1581,-58.4181 L 78.3319,-59.2361 L 78.6721,-60 L 79.1636,-60.6765
 L 79.785,-61.2361 L 80.5092,-61.6542 L 81.3045,-61.9126 L 82.1362,-62 L 163.667,-62 L 164.903,-61.8042
 L 165.667,-61.4641 L 166.343,-60.9726 L 166.903,-60.3511 L 167.321,-59.627 L 167.579,-58.8316 L 167.667,-58
 L 167.667,-25.2272 L 167.514,-24.1314 L 167.202,-23.3555 L 166.735,-22.6614 L 166.135,-22.0795 L 165.426,-21.6351
 L 164.641,-21.3477 L 163.813,-21.2298 z
M 501.312,-21.2867 L 500.508,-21.5158 L 418.978,-54.2886 L 418.118,-54.7639 L 417.497,-55.3235 L 417.005,-56
 L 416.665,-56.7639 L 416.491,-57.5819 L 416.491,-58.4181 L 416.665,-59.2361 L 417.005,-60 L 417.497,-60.6765
 L 418.118,-61.2361 L 418.843,-61.6542 L 419.638,-61.9126 L 420.469,-62 L 502,-62 L 503.236,-61.8042
 L 504,-61.4641 L 504.677,-60.9726 L 505.236,-60.3511 L 505.654,-59.627 L 505.913,-58.8316 L 506,-58
 L 506,-25.2272 L 505.847,-24.1314 L 505.535,-23.3555 L 505.069,-22.6614 L 504.468,-22.0795 L 503.76,-21.6351
 L 502.975,-21.3477 L 502.147,-21.2298 z
M 527.025,-21.3477 L 526.24,-21.6351 L 525.532,-22.0795 L 524.931,-22.6614 L 524.465,-23.3555 L 524.153,-24.1314
 L 524,-25.2272 L 524,-58 L 524.087,-58.8316 L 524.346,-59.627 L 524.764,-60.3511 L 525.323,-60.9726
 L 526,-61.4641 L 526.764,-61.8042 L 528,-62 L 609.531,-62 L 610.362,-61.9126 L 611.157,-61.6542
 L 611.882,-61.2361 L 612.503,-60.6765 L 612.995,-60 L 613.335,-59.2361 L 613.509,-58.4181 L 613.509,-57.5819
 L 613.335,-56.7639 L 612.995,-56 L 612.503,-55.3235 L 611.882,-54.7639 L 611.022,-54.2886 L 529.492,-21.5158
 L 528.688,-21.2867 L 527.853,-21.2298 z
M 696.192,-21.3477 L 695.407,-21.6351 L 694.698,-22.0795 L 694.098,-22.6614 L 693.632,-23.3555 L 693.32,-24.1314
 L 693.167,-25.2272 L 693.167,-58 L 693.254,-58.8316 L 693.512,-59.627 L 693.931,-60.3511 L 694.49,-60.9726
 L 695.167,-61.4641 L 695.931,-61.8042 L 697.167,-62 L 778.697,-62 L 779.529,-61.9126 L 780.324,-61.6542
 L 781.048,-61.2361 L 781.67,-60.6765 L 782.161,-60 L 782.501,-59.2361 L 782.675,-58.4181 L 782.675,-57.5819
 L 782.501,-56.7639 L 782.161,-56 L 781.67,-55.3235 L 781.048,-54.7639 L 780.189,-54.2886 L 698.659,-21.5158
 L 697.854,-21.2867 L 697.02,-21.2298 z
M 189.667,-18 L 188.431,-18.1958 L 187.667,-18.5359 L 186.99,-19.0274 L 186.431,-19.6489 L 186.012,-20.373
 L 185.754,-21.1684 L 185.667,-22 L 185.667,-54.7728 L 185.82,-55.8686 L 186.132,-56.6445 L 186.598,-57.3386
 L 187.198,-57.9205 L 187.907,-58.3649 L 188.692,-58.6523 L 189.52,-58.7702 L 190.354,-58.7133 L 191.159,-58.4842
 L 272.689,-25.7114 L 273.548,-25.2361 L 274.17,-24.6765 L 274.661,-24 L 275.001,-23.2361 L 275.175,-22.4181
 L 275.175,-21.5819 L 275.001,-20.7639 L 274.661,-20 L 274.17,-19.3235 L 273.548,-18.7639 L 272.824,-18.3458
 L 272.029,-18.0874 L 271.197,-18 z
M 358.833,-18 L 357.597,-18.1958 L 356.833,-18.5359 L 356.157,-19.0274 L 355.597,-19.6489 L 355.179,-20.373
 L 354.921,-21.1684 L 354.833,-22 L 354.833,-54.7728 L 354.986,-55.8686 L 355.298,-56.6445 L 355.765,-57.3386
 L 356.365,-57.9205 L 357.073,-58.3649 L 357.859,-58.6523 L 358.687,-58.7702 L 359.521,-58.7133 L 360.325,-58.4842
 L 441.856,-25.7114 L 442.715,-25.2361 L 443.336,-24.6765 L 443.828,-24 L 444.168,-23.2361 L 444.342,-22.4181
 L 444.342,-21.5819 L 444.168,-20.7639 L 443.828,-20 L 443.336,-19.3235 L 442.715,-18.7639 L 441.991,-18.3458
 L 441.195,-18.0874 L 440.364,-18 z
M 589.636,-18 L 588.805,-18.0874 L 588.009,-18.3458 L 587.285,-18.7639 L 586.664,-19.3235 L 586.172,-20
 L 585.832,-20.7639 L 585.658,-21.5819 L 585.658,-22.4181 L 585.832,-23.2361 L 586.172,-24 L 586.664,-24.6765
 L 587.285,-25.2361 L 588.144,-25.7114 L 669.675,-58.4842 L 670.479,-58.7133 L 671.313,-58.7702 L 672.141,-58.6523
 L 672.926,-58.3649 L 673.635,-57.9205 L 674.235,-57.3386 L 674.702,-56.6445 L 675.014,-55.8686 L 675.167,-54.7728
 L 675.167,-22 L 675.079,-21.1684 L 674.821,-20.373 L 674.403,-19.6489 L 673.843,-19.0274 L 673.167,-18.5359
 L 672.403,-18.1958 L 671.167,-18 z
M 758.803,-18 L 757.971,-18.0874 L 757.176,-18.3458 L 756.452,-18.7639 L 755.83,-19.3235 L 755.339,-20
 L 754.999,-20.7639 L 754.825,-21.5819 L 754.825,-22.4181 L 754.999,-23.2361 L 755.339,-24 L 755.83,-24.6765
 L 756.452,-25.2361 L 757.311,-25.7114 L 838.841,-58.4842 L 839.646,-58.7133 L 840.48,-58.7702 L 841.308,-58.6523
 L 842.093,-58.3649 L 842.802,-57.9205 L 843.402,-57.3386 L 843.868,-56.6445 L 844.18,-55.8686 L 844.333,-54.7728
 L 844.333,-22 L 844.246,-21.1684 L 843.988,-20.373 L 843.569,-19.6489 L 843.01,-19.0274 L 842.333,-18.5359
 L 841.569,-18.1958 L 840.333,-18 z
M 927.969,-18 L 927.138,-18.0874 L 926.343,-18.3458 L 925.618,-18.7639 L 924.997,-19.3235 L 924.505,-20
 L 924.165,-20.7639 L 923.991,-21.5819 L 923.991,-22.4181 L 924.165,-23.2361 L 924.505,-24 L 924.997,-24.6765
 L 925.618,-25.2361 L 926.478,-25.7114 L 1006.51,-57.8813 L 1007.31,-58.1104 L 1008.15,-58.1672 L 1008.97,-58.0494
 L 1009.76,-57.762 L 1010.47,-57.3176 L 1011.07,-56.7356 L 1011.54,-56.0415 L 1011.85,-55.2656 L 1012,-54.1699
 L 1012,-22 L 1011.91,-21.1684 L 1011.65,-20.373 L 1011.24,-19.6489 L 1010.68,-19.0274 L 1010,-18.5359
 L 1009.24,-18.1958 L 1008,-18 z
M 22,-18 L 20.7639,-18.1958 L 20,-18.5359 L 19.3235,-19.0274 L 18.7639,-19.6489 L 18.3458,-20.373
 L 18.0874,-21.1684 L 18,-22 L 18,-54.1699 L 18.153,-55.2656 L 18.4649,-56.0415 L 18.9313,-56.7356
 L 19.5318,-57.3176 L 20.2402,-57.762 L 21.0255,-58.0494 L 21.8533,-58.1672 L 22.6876,-58.1104 L 23.4919,-57.8813
 L 103.522,-25.7114 L 104.382,-25.2361 L 105.003,-24.6765 L 105.495,-24 L 105.835,-23.2361 L 106.009,-22.4181
 L 106.009,-21.5819 L 105.835,-20.7639 L 105.495,-20 L 105.003,-19.3235 L 104.382,-18.7639 L 103.657,-18.3458
 L 102.862,-18.0874 L 102.03,-18 z
" stroke="black" fill="lightgray" stroke-width="0.5"/>
</svg>
