<?xml version="1.0" standalone="no"?>
<!DOCTYPE svg PUBLIC "-//W3C//DTD SVG 1.1//EN" "http://www.w3.org/Graphics/SVG/1.1/DTD/svg11.dtd">
<svg width="1426mm" height="80mm" viewBox="0 -80 1426 80" xmlns="http://www.w3.org/2000/svg" version="1.1">
<title>OpenSCAD Model</title>
<path d="
M 1426,-80 L 0,-80 L 0,-0 L 4.95,-0 L 4.95,-6 L 5.00572,-6.53017
 L 5.17046,-7.03717 L 5.437,-7.49884 L 5.79372,-7.895 L 6.22499,-8.20836 L 6.71201,-8.42519 L 7.23344,-8.53603
 L 7.76654,-8.53603 L 8.28798,-8.42519 L 8.77499,-8.20836 L 9.20627,-7.895 L 9.56299,-7.49884 L 9.82953,-7.03717
 L 9.99426,-6.53017 L 10.05,-6 L 10.05,-0 L 181.325,-0 L 181.325,-6 L 181.381,-6.53017
 L 181.545,-7.03717 L 181.812,-7.49884 L 182.169,-7.895 L 182.6,-8.20836 L 183.087,-8.42519 L 183.608,-8.53603
 L 184.142,-8.53603 L 184.663,-8.42519 L 185.15,-8.20836 L 185.581,-7.895 L 185.938,-7.49884 L 186.205,-7.03717
 L 186.369,-6.53017 L 186.425,-6 L 186.425,-0 L 357.7,-0 L 357.7,-6 L 357.756,-6.53017
 L 357.92,-7.03717 L 358.187,-7.49884 L 358.544,-7.895 L 358.975,-8.20836 L 359.462,-8.42519 L 359.983,-8.53603
 L 360.517,-8.53603 L 361.038,-8.42519 L 361.525,-8.20836 L 361.956,-7.895 L 362.313,-7.49884 L 362.58,-7.03717
 L 362.744,-6.53017 L 362.8,-6 L 362.8,-0 L 534.075,-0 L 534.075,-6 L 534.131,-6.53017
 L 534.295,-7.03717 L 534.562,-7.49884 L 534.919,-7.895 L 535.35,-8.20836 L 535.837,-8.42519 L 536.358,-8.53603
 L 536.892,-8.53603 L 537.413,-8.42519 L 537.9,-8.20836 L 538.331,-7.895 L 538.688,-7.49884 L 538.955,-7.03717
 L 539.119,-6.53017 L 539.175,-6 L 539.175,-0 L 710.45,-0 L 710.45,-6 L 710.506,-6.53017
 L 710.67,-7.03717 L 710.937,-7.49884 L 711.294,-7.895 L 711.725,-8.20836 L 712.212,-8.42519 L 712.733,-8.53603
 L 713.267,-8.53603 L 713.788,-8.42519 L 714.275,-8.20836 L 714.706,-7.895 L 715.063,-7.49884 L 715.33,-7.03717
 L 715.494,-6.53017 L 715.55,-6 L 715.55,-0 L 886.825,-0 L 886.825,-6 L 886.881,-6.53017
 L 887.045,-7.03717 L 887.312,-7.49884 L 887.669,-7.895 L 888.1,-8.20836 L 888.587,-8.42519 L 889.108,-8.53603
 L 889.642,-8.53603 L 890.163,-8.42519 L 890.65,-8.20836 L 891.081,-7.895 L 891.438,-7.49884 L 891.705,-7.03717
 L 891.869,-6.53017 L 891.925,-6 L 891.925,-0 L 1063.2,-0 L 1063.2,-6 L 1063.26,-6.53017
 L 1063.42,-7.03717 L 1063.69,-7.49884 L 1064.04,-7.895 L 1064.47,-8.20836 L 1064.96,-8.42519 L 1065.48,-8.53603
 L 1066.02,-8.53603 L 1066.54,-8.42519 L 1067.02,-8.20836 L 1067.46,-7.895 L 1067.81,-7.49884 L 1068.08,-7.03717
 L 1068.24,-6.53017 L 1068.3,-6 L 1068.3,-0 L 1239.57,-0 L 1239.57,-6 L 1239.63,-6.53017
 L 1239.8,-7.03717 L 1240.06,-7.49884 L 1240.42,-7.895 L 1240.85,-8.20836 L 1241.34,-8.42519 L 1241.86,-8.53603
 L 1242.39,-8.53603 L 1242.91,-8.42519 L 1243.4,-8.20836 L 1243.83,-7.895 L 1244.19,-7.49884 L 1244.45,-7.03717
 L 1244.62,-6.53017 L 1244.67,-6 L 1244.67,-0 L 1415.95,-0 L 1415.95,-6 L 1416.01,-6.53017
 L 1416.17,-7.03717 L 1416.44,-7.49884 L 1416.79,-7.895 L 1417.22,-8.20836 L 1417.71,-8.42519 L 1418.23,-8.53603
 L 1418.77,-8.53603 L 1419.29,-8.42519 L 1419.77,-8.20836 L 1420.21,-7.895 L 1420.56,-7.49884 L 1420.83,-7.03717
 L 1420.99,-6.53017 L 1421.05,-6 L 1421.05,-0 L 1426,-0 z
M 183.361,-55.607 L 182.852,-55.6875 L 182.355,-55.8208 L 181.874,-56.0054 L 181.415,-56.2392 L 180.983,-56.5196
 L 180.583,-56.8437 L 180.219,-57.2079 L 179.895,-57.6081 L 179.614,-58.04 L 179.38,-58.4989 L 179.196,-58.9796
 L 179.063,-59.4771 L 178.982,-59.9857 L 178.955,-60.5 L 178.982,-61.0143 L 179.063,-61.5229 L 179.196,-62.0204
 L 179.38,-62.5011 L 179.614,-62.96 L 179.895,-63.3919 L 180.219,-63.7921 L 180.583,-64.1563 L 180.983,-64.4804
 L 181.325,-64.7024 L 181.325,-74 L 181.381,-74.5302 L 181.545,-75.0372 L 181.812,-75.4988 L 182.169,-75.895
 L 182.6,-76.2084 L 183.087,-76.4252 L 183.608,-76.536 L 184.142,-76.536 L 184.663,-76.4252 L 185.15,-76.2084
 L 185.581,-75.895 L 185.938,-75.4988 L 186.205,-75.0372 L 186.369,-74.5302 L 186.425,-74 L 186.425,-64.7024
 L 186.767,-64.4804 L 187.167,-64.1563 L 187.531,-63.7921 L 187.855,-63.3919 L 188.136,-62.96 L 188.37,-62.5011
 L 188.554,-62.0204 L 188.687,-61.5229 L 188.768,-61.0143 L 188.795,-60.5 L 188.768,-59.9857 L 188.687,-59.4771
 L 188.554,-58.9796 L 188.37,-58.4989 L 188.136,-58.04 L 187.855,-57.6081 L 187.531,-57.2079 L 187.167,-56.8437
 L 186.767,-56.5196 L 186.335,-56.2392 L 185.876,-56.0054 L 185.395,-55.8208 L 184.898,-55.6875 L 184.389,-55.607
 L 183.875,-55.58 z
M 1065.24,-55.607 L 1064.73,-55.6875 L 1064.23,-55.8208 L 1063.75,-56.0054 L 1063.29,-56.2392 L 1062.86,-56.5196
 L 1062.46,-56.8437 L 1062.09,-57.2079 L 1061.77,-57.6081 L 1061.49,-58.04 L 1061.26,-58.4989 L 1061.07,-58.9796
 L 1060.94,-59.4771 L 1060.86,-59.9857 L 1060.83,-60.5 L 1060.86,-61.0143 L 1060.94,-61.5229 L 1061.07,-62.0204
 L 1061.26,-62.5011 L 1061.49,-62.96 L 1061.77,-63.3919 L 1062.09,-63.7921 L 1062.46,-64.1563 L 1062.86,-64.4804
 L 1063.2,-64.7024 L 1063.2,-74 L 1063.26,-74.5302 L 1063.42,-75.0372 L 1063.69,-75.4988 L 1064.04,-75.895
 L 1064.48,-76.2084 L 1064.96,-76.4252 L 1065.48,-76.536 L 1066.02,-76.536 L 1066.54,-76.4252 L 1067.02,-76.2084
 L 1067.46,-75.895 L 1067.81,-75.4988 L 1068.08,-75.0372 L 1068.24,-74.5302 L 1068.3,-74 L 1068.3,-64.7024
 L 1068.64,-64.4804 L 1069.04,-64.1563 L 1069.41,-63.7921 L 1069.73,-63.3919 L 1070.01,-62.96 L 1070.24,-62.5011
 L 1070.43,-62.0204 L 1070.56,-61.5229 L 1070.64,-61.0143 L 1070.67,-60.5 L 1070.64,-59.9857 L 1070.56,-59.4771
 L 1070.43,-58.9796 L 1070.24,-58.4989 L 1070.01,-58.04 L 1069.73,-57.6081 L 1069.41,-57.2079 L 1069.04,-56.8437
 L 1068.64,-56.5196 L 1068.21,-56.2392 L 1067.75,-56.0054 L 1067.27,-55.8208 L 1066.77,-55.6875 L 1066.26,-55.607
 L 1065.75,-55.58 z
M 888.861,-55.607 L 888.352,-55.6875 L 887.855,-55.8208 L 887.374,-56.0054 L 886.915,-56.2392 L 886.483,-56.5196
 L 886.083,-56.8437 L 885.719,-57.2079 L 885.395,-57.6081 L 885.114,-58.04 L 884.88,-58.4989 L 884.696,-58.9796
 L 884.563,-59.4771 L 884.482,-59.9857 L 884.455,-60.5 L 884.482,-61.0143 L 884.563,-61.5229 L 884.696,-62.0204
 L 884.88,-62.5011 L 885.114,-62.96 L 885.395,-63.3919 L 885.719,-63.7921 L 886.083,-64.1563 L 886.483,-64.4804
 L 886.825,-64.7024 L 886.825,-74 L 886.881,-74.5302 L 887.045,-75.0372 L 887.312,-75.4988 L 887.669,-75.895
 L 888.1,-76.2084 L 888.587,-76.4252 L 889.108,-76.536 L 889.642,-76.536 L 890.163,-76.4252 L 890.65,-76.2084
 L 891.081,-75.895 L 891.438,-75.4988 L 891.705,-75.0372 L 891.869,-74.5302 L 891.925,-74 L 891.925,-64.7024
 L 892.267,-64.4804 L 892.667,-64.1563 L 893.031,-63.7921 L 893.355,-63.3919 L 893.636,-62.96 L 893.87,-62.5011
 L 894.054,-62.0204 L 894.187,-61.5229 L 894.268,-61.0143 L 894.295,-60.5 L 894.268,-59.9857 L 894.187,-59.4771
 L 894.054,-58.9796 L 893.87,-58.4989 L 893.636,-58.04 L 893.355,-57.6081 L 893.031,-57.2079 L 892.667,-56.8437
 L 892.267,-56.5196 L 891.835,-56.2392 L 891.376,-56.0054 L 890.895,-55.8208 L 890.398,-55.6875 L 889.889,-55.607
 L 889.375,-55.58 z
M 6.98573,-55.607 L 6.47708,-55.6875 L 5.97964,-55.8208 L 5.49887,-56.0054 L 5.04001,-56.2392 L 4.60811,-56.5196
 L 4.20789,-56.8437 L 3.84373,-57.2079 L 3.51964,-57.6081 L 3.23917,-58.04 L 3.00537,-58.4989 L 2.82082,-58.9796
 L 2.68752,-59.4771 L 2.60696,-59.9857 L 2.58,-60.5 L 2.60696,-61.0143 L 2.68752,-61.5229 L 2.82082,-62.0204
 L 3.00537,-62.5011 L 3.23917,-62.96 L 3.51964,-63.3919 L 3.84373,-63.7921 L 4.20789,-64.1563 L 4.60811,-64.4804
 L 4.95001,-64.7024 L 4.95001,-74 L 5.00574,-74.5302 L 5.17047,-75.0372 L 5.43701,-75.4988 L 5.79373,-75.895
 L 6.22501,-76.2084 L 6.71202,-76.4252 L 7.23346,-76.536 L 7.76654,-76.536 L 8.28798,-76.4252 L 8.77499,-76.2084
 L 9.20627,-75.895 L 9.56299,-75.4988 L 9.82953,-75.0372 L 9.99426,-74.5302 L 10.05,-74 L 10.05,-64.7024
 L 10.3919,-64.4804 L 10.7921,-64.1563 L 11.1563,-63.7921 L 11.4804,-63.3919 L 11.7608,-62.96 L 11.9946,-62.5011
 L 12.1792,-62.0204 L 12.3125,-61.5229 L 12.393,-61.0143 L 12.42,-60.5 L 12.393,-59.9857 L 12.3125,-59.4771
 L 12.1792,-58.9796 L 11.9946,-58.4989 L 11.7608,-58.04 L 11.4804,-57.6081 L 11.1563,-57.2079 L 10.7921,-56.8437
 L 10.3919,-56.5196 L 9.95999,-56.2392 L 9.50113,-56.0054 L 9.02036,-55.8208 L 8.52292,-55.6875 L 8.01427,-55.607
 L 7.5,-55.58 z
M 712.486,-55.607 L 711.977,-55.6875 L 711.48,-55.8208 L 710.999,-56.0054 L 710.54,-56.2392 L 710.108,-56.5196
 L 709.708,-56.8437 L 709.344,-57.2079 L 709.02,-57.6081 L 708.739,-58.04 L 708.505,-58.4989 L 708.321,-58.9796
 L 708.188,-59.4771 L 708.107,-59.9857 L 708.08,-60.5 L 708.107,-61.0143 L 708.188,-61.5229 L 708.321,-62.0204
 L 708.505,-62.5011 L 708.739,-62.96 L 709.02,-63.3919 L 709.344,-63.7921 L 709.708,-64.1563 L 710.108,-64.4804
 L 710.45,-64.7024 L 710.45,-74 L 710.506,-74.5302 L 710.67,-75.0372 L 710.937,-75.4988 L 711.294,-75.895
 L 711.725,-76.2084 L 712.212,-76.4252 L 712.733,-76.536 L 713.267,-76.536 L 713.788,-76.4252 L 714.275,-76.2084
 L 714.706,-75.895 L 715.063,-75.4988 L 715.33,-75.0372 L 715.494,-74.5302 L 715.55,-74 L 715.55,-64.7024
 L 715.892,-64.4804 L 716.292,-64.1563 L 716.656,-63.7921 L 716.98,-63.3919 L 717.261,-62.96 L 717.495,-62.5011
 L 717.679,-62.0204 L 717.812,-61.5229 L 717.893,-61.0143 L 717.92,-60.5 L 717.893,-59.9857 L 717.812,-59.4771
 L 717.679,-58.9796 L 717.495,-58.4989 L 717.261,-58.04 L 716.98,-57.6081 L 716.656,-57.2079 L 716.292,-56.8437
 L 715.892,-56.5196 L 715.46,-56.2392 L 715.001,-56.0054 L 714.52,-55.8208 L 714.023,-55.6875 L 713.514,-55.607
 L 713,-55.58 z
M 1241.61,-55.607 L 1241.1,-55.6875 L 1240.6,-55.8208 L 1240.12,-56.0054 L 1239.67,-56.2392 L 1239.23,-56.5196
 L 1238.83,-56.8437 L 1238.47,-57.2079 L 1238.14,-57.6081 L 1237.86,-58.04 L 1237.63,-58.4989 L 1237.45,-58.9796
 L 1237.31,-59.4771 L 1237.23,-59.9857 L 1237.21,-60.5 L 1237.23,-61.0143 L 1237.31,-61.5229 L 1237.45,-62.0204
 L 1237.63,-62.5011 L 1237.86,-62.96 L 1238.14,-63.3919 L 1238.47,-63.7921 L 1238.83,-64.1563 L 1239.23,-64.4804
 L 1239.58,-64.7024 L 1239.58,-74 L 1239.63,-74.5302 L 1239.8,-75.0372 L 1240.06,-75.4988 L 1240.42,-75.895
 L 1240.85,-76.2084 L 1241.34,-76.4252 L 1241.86,-76.536 L 1242.39,-76.536 L 1242.91,-76.4252 L 1243.4,-76.2084
 L 1243.83,-75.895 L 1244.19,-75.4988 L 1244.45,-75.0372 L 1244.62,-74.5302 L 1244.67,-74 L 1244.67,-64.7024
 L 1245.02,-64.4804 L 1245.42,-64.1563 L 1245.78,-63.7921 L 1246.11,-63.3919 L 1246.39,-62.96 L 1246.62,-62.5011
 L 1246.8,-62.0204 L 1246.94,-61.5229 L 1247.02,-61.0143 L 1247.04,-60.5 L 1247.02,-59.9857 L 1246.94,-59.4771
 L 1246.8,-58.9796 L 1246.62,-58.4989 L 1246.39,-58.04 L 1246.11,-57.6081 L 1245.78,-57.2079 L 1245.42,-56.8437
 L 1245.02,-56.5196 L 1244.58,-56.2392 L 1244.13,-56.0054 L 1243.65,-55.8208 L 1243.15,-55.6875 L 1242.64,-55.607
 L 1242.12,-55.58 z
M 536.111,-55.607 L 535.602,-55.6875 L 535.105,-55.8208 L 534.624,-56.0054 L 534.165,-56.2392 L 533.733,-56.5196
 L 533.333,-56.8437 L 532.969,-57.2079 L 532.645,-57.6081 L 532.364,-58.04 L 532.13,-58.4989 L 531.946,-58.9796
 L 531.813,-59.4771 L 531.732,-59.9857 L 531.705,-60.5 L 531.732,-61.0143 L 531.813,-61.5229 L 531.946,-62.0204
 L 532.13,-62.5011 L 532.364,-62.96 L 532.645,-63.3919 L 532.969,-63.7921 L 533.333,-64.1563 L 533.733,-64.4804
 L 534.075,-64.7024 L 534.075,-74 L 534.131,-74.5302 L 534.295,-75.0372 L 534.562,-75.4988 L 534.919,-75.895
 L 535.35,-76.2084 L 535.837,-76.4252 L 536.358,-76.536 L 536.892,-76.536 L 537.413,-76.4252 L 537.9,-76.2084
 L 538.331,-75.895 L 538.688,-75.4988 L 538.955,-75.0372 L 539.119,-74.5302 L 539.175,-74 L 539.175,-64.7024
 L 539.517,-64.4804 L 539.917,-64.1563 L 540.281,-63.7921 L 540.605,-63.3919 L 540.886,-62.96 L 541.12,-62.5011
 L 541.304,-62.0204 L 541.437,-61.5229 L 541.518,-61.0143 L 541.545,-60.5 L 541.518,-59.9857 L 541.437,-59.4771
 L 541.304,-58.9796 L 541.12,-58.4989 L 540.886,-58.04 L 540.605,-57.6081 L 540.281,-57.2079 L 539.917,-56.8437
 L 539.517,-56.5196 L 539.085,-56.2392 L 538.626,-56.0054 L 538.145,-55.8208 L 537.648,-55.6875 L 537.139,-55.607
 L 536.625,-55.58 z
M 359.736,-55.607 L 359.227,-55.6875 L 358.73,-55.8208 L 358.249,-56.0054 L 357.79,-56.2392 L 357.358,-56.5196
 L 356.958,-56.8437 L 356.594,-57.2079 L 356.27,-57.6081 L 355.989,-58.04 L 355.755,-58.4989 L 355.571,-58.9796
 L 355.438,-59.4771 L 355.357,-59.9857 L 355.33,-60.5 L 355.357,-61.0143 L 355.438,-61.5229 L 355.571,-62.0204
 L 355.755,-62.5011 L 355.989,-62.96 L 356.27,-63.3919 L 356.594,-63.7921 L 356.958,-64.1563 L 357.358,-64.4804
 L 357.7,-64.7024 L 357.7,-74 L 357.756,-74.5302 L 357.92,-75.0372 L 358.187,-75.4988 L 358.544,-75.895
 L 358.975,-76.2084 L 359.462,-76.4252 L 359.983,-76.536 L 360.517,-76.536 L 361.038,-76.4252 L 361.525,-76.2084
 L 361.956,-75.895 L 362.313,-75.4988 L 362.58,-75.0372 L 362.744,-74.5302 L 362.8,-74 L 362.8,-64.7024
 L 363.142,-64.4804 L 363.542,-64.1563 L 363.906,-63.7921 L 364.23,-63.3919 L 364.511,-62.96 L 364.745,-62.5011
 L 364.929,-62.0204 L 365.062,-61.5229 L 365.143,-61.0143 L 365.17,-60.5 L 365.143,-59.9857 L 365.062,-59.4771
 L 364.929,-58.9796 L 364.745,-58.4989 L 364.511,-58.04 L 364.23,-57.6081 L 363.906,-57.2079 L 363.542,-56.8437
 L 363.142,-56.5196 L 362.71,-56.2392 L 362.251,-56.0054 L 361.77,-55.8208 L 361.273,-55.6875 L 360.764,-55.607
 L 360.25,-55.58 z
M 1417.99,-55.607 L 1417.48,-55.6875 L 1416.98,-55.8208 L 1416.5,-56.0054 L 1416.04,-56.2392 L 1415.61,-56.5196
 L 1415.21,-56.8437 L 1414.84,-57.2079 L 1414.52,-57.6081 L 1414.24,-58.04 L 1414.01,-58.4989 L 1413.82,-58.9796
 L 1413.69,-59.4771 L 1413.61,-59.9857 L 1413.58,-60.5 L 1413.61,-61.0143 L 1413.69,-61.5229 L 1413.82,-62.0204
 L 1414.01,-62.5011 L 1414.24,-62.96 L 1414.52,-63.3919 L 1414.84,-63.7921 L 1415.21,-64.1563 L 1415.61,-64.4804
 L 1415.95,-64.7024 L 1415.95,-74 L 1416.01,-74.5302 L 1416.17,-75.0372 L 1416.44,-75.4988 L 1416.79,-75.895
 L 1417.23,-76.2084 L 1417.71,-76.4252 L 1418.23,-76.536 L 1418.77,-76.536 L 1419.29,-76.4252 L 1419.77,-76.2084
 L 1420.21,-75.895 L 1420.56,-75.4988 L 1420.83,-75.0372 L 1420.99,-74.5302 L 1421.05,-74 L 1421.05,-64.7024
 L 1421.39,-64.4804 L 1421.79,-64.1563 L 1422.16,-63.7921 L 1422.48,-63.3919 L 1422.76,-62.96 L 1422.99,-62.5011
 L 1423.18,-62.0204 L 1423.31,-61.5229 L 1423.39,-61.0143 L 1423.42,-60.5 L 1423.39,-59.9857 L 1423.31,-59.4771
 L 1423.18,-58.9796 L 1422.99,-58.4989 L 1422.76,-58.04 L 1422.48,-57.6081 L 1422.16,-57.2079 L 1421.79,-56.8437
 L 1421.39,-56.5196 L 1420.96,-56.2392 L 1420.5,-56.0054 L 1420.02,-55.8208 L 1419.52,-55.6875 L 1419.01,-55.607
 L 1418.5,-55.58 z
M 346.618,-20.9769 L 345.811,-21.1945 L 260.027,-54.2678 L 259.115,-54.7639 L 258.494,-55.3235 L 258.002,-56
 L 257.662,-56.7639 L 257.488,-57.5819 L 257.488,-58.4181 L 257.662,-59.2361 L 258.002,-60 L 258.494,-60.6765
 L 259.115,-61.2361 L 259.839,-61.6542 L 260.635,-61.9126 L 261.466,-62 L 347.25,-62 L 348.486,-61.8042
 L 349.25,-61.4641 L 349.927,-60.9726 L 350.486,-60.3511 L 350.904,-59.627 L 351.163,-58.8316 L 351.25,-58
 L 351.25,-24.9267 L 351.112,-23.8858 L 350.811,-23.1055 L 350.355,-22.4049 L 349.763,-21.8145 L 349.061,-21.36
 L 348.28,-21.0615 L 347.454,-20.9319 z
M 522.993,-20.9769 L 522.186,-21.1945 L 436.402,-54.2678 L 435.49,-54.7639 L 434.869,-55.3235 L 434.377,-56
 L 434.037,-56.7639 L 433.863,-57.5819 L 433.863,-58.4181 L 434.037,-59.2361 L 434.377,-60 L 434.869,-60.6765
 L 435.49,-61.2361 L 436.214,-61.6542 L 437.01,-61.9126 L 437.841,-62 L 523.625,-62 L 524.861,-61.8042
 L 525.625,-61.4641 L 526.302,-60.9726 L 526.861,-60.3511 L 527.279,-59.627 L 527.538,-58.8316 L 527.625,-58
 L 527.625,-24.9267 L 527.487,-23.8858 L 527.186,-23.1055 L 526.73,-22.4049 L 526.138,-21.8145 L 525.436,-21.36
 L 524.655,-21.0615 L 523.829,-20.9319 z
M 1254.1,-21.0615 L 1253.31,-21.36 L 1252.61,-21.8145 L 1252.02,-22.4049 L 1251.56,-23.1055 L 1251.26,-23.8858
 L 1251.12,-24.9267 L 1251.12,-58 L 1251.21,-58.8316 L 1251.47,-59.627 L 1251.89,-60.3511 L 1252.45,-60.9726
 L 1253.12,-61.4641 L 1253.89,-61.8042 L 1255.12,-62 L 1340.91,-62 L 1341.74,-61.9126 L 1342.54,-61.6542
 L 1343.26,-61.2361 L 1343.88,-60.6765 L 1344.37,-60 L 1344.71,-59.2361 L 1344.89,-58.4181 L 1344.89,-57.5819
 L 1344.71,-56.7639 L 1344.37,-56 L 1343.88,-55.3235 L 1343.26,-54.7639 L 1342.35,-54.2678 L 1256.56,-21.1945
 L 1255.76,-20.9769 L 1254.92,-20.9319 z
M 699.368,-20.9769 L 698.561,-21.1945 L 612.777,-54.2678 L 611.865,-54.7639 L 611.244,-55.3235 L 610.752,-56
 L 610.412,-56.7639 L 610.238,-57.5819 L 610.238,-58.4181 L 610.412,-59.2361 L 610.752,-60 L 611.244,-60.6765
 L 611.865,-61.2361 L 612.589,-61.6542 L 613.385,-61.9126 L 614.216,-62 L 700,-62 L 701.236,-61.8042
 L 702,-61.4641 L 702.677,-60.9726 L 703.236,-60.3511 L 703.654,-59.627 L 703.913,-58.8316 L 704,-58
 L 704,-24.9267 L 703.862,-23.8858 L 703.561,-23.1055 L 703.105,-22.4049 L 702.513,-21.8145 L 701.811,-21.36
 L 701.03,-21.0615 L 700.204,-20.9319 z
M 170.243,-20.9769 L 169.436,-21.1945 L 83.6522,-54.2678 L 82.74,-54.7639 L 82.1186,-55.3235 L 81.6271,-56
 L 81.2869,-56.7639 L 81.1131,-57.5819 L 81.1131,-58.4181 L 81.2869,-59.2361 L 81.6271,-60 L 82.1186,-60.6765
 L 82.74,-61.2361 L 83.4642,-61.6542 L 84.2595,-61.9126 L 85.0912,-62 L 170.875,-62 L 172.111,-61.8042
 L 172.875,-61.4641 L 173.552,-60.9726 L 174.111,-60.3511 L 174.529,-59.627 L 174.788,-58.8316 L 174.875,-58
 L 174.875,-24.9267 L 174.737,-23.8858 L 174.436,-23.1055 L 173.98,-22.4049 L 173.388,-21.8145 L 172.686,-21.36
 L 171.905,-21.0615 L 171.079,-20.9319 z
M 724.97,-21.0615 L 724.189,-21.36 L 723.487,-21.8145 L 722.895,-22.4049 L 722.439,-23.1055 L 722.138,-23.8858
 L 722,-24.9267 L 722,-58 L 722.087,-58.8316 L 722.346,-59.627 L 722.764,-60.3511 L 723.323,-60.9726
 L 724,-61.4641 L 724.764,-61.8042 L 726,-62 L 811.784,-62 L 812.615,-61.9126 L 813.411,-61.6542
 L 814.135,-61.2361 L 814.756,-60.6765 L 815.248,-60 L 815.588,-59.2361 L 815.762,-58.4181 L 815.762,-57.5819
 L 815.588,-56.7639 L 815.248,-56 L 814.756,-55.3235 L 814.135,-54.7639 L 813.223,-54.2678 L 727.439,-21.1945
 L 726.632,-20.9769 L 725.796,-20.9319 z
M 901.345,-21.0615 L 900.564,-21.36 L 899.862,-21.8145 L 899.27,-22.4049 L 898.814,-23.1055 L 898.513,-23.8858
 L 898.375,-24.9267 L 898.375,-58 L 898.462,-58.8316 L 898.721,-59.627 L 899.139,-60.3511 L 899.698,-60.9726
 L 900.375,-61.4641 L 901.139,-61.8042 L 902.375,-62 L 988.159,-62 L 988.99,-61.9126 L 989.786,-61.6542
 L 990.51,-61.2361 L 991.131,-60.6765 L 991.623,-60 L 991.963,-59.2361 L 992.137,-58.4181 L 992.137,-57.5819
 L 991.963,-56.7639 L 991.623,-56 L 991.131,-55.3235 L 990.51,-54.7639 L 989.598,-54.2678 L 903.814,-21.1945
 L 903.007,-20.9769 L 902.171,-20.9319 z
M 1077.72,-21.0615 L 1076.94,-21.36 L 1076.24,-21.8145 L 1075.65,-22.4049 L 1075.19,-23.1055 L 1074.89,-23.8858
 L 1074.75,-24.9267 L 1074.75,-58 L 1074.84,-58.8316 L 1075.1,-59.627 L 1075.51,-60.3511 L 1076.07,-60.9726
 L 1076.75,-61.4641 L 1077.51,-61.8042 L 1078.75,-62 L 1164.53,-62 L 1165.37,-61.9126 L 1166.16,-61.6542
 L 1166.88,-61.2361 L 1167.51,-60.6765 L 1168,-60 L 1168.34,-59.2361 L 1168.51,-58.4181 L 1168.51,-57.5819
 L 1168.34,-56.7639 L 1168,-56 L 1167.51,-55.3235 L 1166.88,-54.7639 L 1165.97,-54.2678 L 1080.19,-21.1945
 L 1079.38,-20.9769 L 1078.55,-20.9319 z
M 196.875,-18 L 195.639,-18.1958 L 194.875,-18.5359 L 194.198,-19.0274 L 193.639,-19.6489 L 193.221,-20.373
 L 192.962,-21.1684 L 192.875,-22 L 192.875,-55.0733 L 193.013,-56.1142 L 193.314,-56.8944 L 193.77,-57.5951
 L 194.362,-58.1855 L 195.064,-58.64 L 195.845,-58.9385 L 196.671,-59.0681 L 197.507,-59.0231 L 198.314,-58.8055
 L 284.098,-25.7322 L 285.01,-25.2361 L 285.631,-24.6765 L 286.123,-24 L 286.463,-23.2361 L 286.637,-22.4181
 L 286.637,-21.5819 L 286.463,-20.7639 L 286.123,-20 L 285.631,-19.3235 L 285.01,-18.7639 L 284.286,-18.3458
 L 283.49,-18.0874 L 282.659,-18 z
M 373.25,-18 L 372.014,-18.1958 L 371.25,-18.5359 L 370.573,-19.0274 L 370.014,-19.6489 L 369.596,-20.373
 L 369.337,-21.1684 L 369.25,-22 L 369.25,-55.0733 L 369.388,-56.1142 L 369.689,-56.8944 L 370.145,-57.5951
 L 370.737,-58.1855 L 371.439,-58.64 L 372.22,-58.9385 L 373.046,-59.0681 L 373.882,-59.0231 L 374.689,-58.8055
 L 460.473,-25.7322 L 461.385,-25.2361 L 462.006,-24.6765 L 462.498,-24 L 462.838,-23.2361 L 463.012,-22.4181
 L 463.012,-21.5819 L 462.838,-20.7639 L 462.498,-20 L 462.006,-19.3235 L 461.385,-18.7639 L 460.661,-18.3458
 L 459.865,-18.0874 L 459.034,-18 z
M 549.625,-18 L 548.389,-18.1958 L 547.625,-18.5359 L 546.948,-19.0274 L 546.389,-19.6489 L 545.971,-20.373
 L 545.712,-21.1684 L 545.625,-22 L 545.625,-55.0733 L 545.763,-56.1142 L 546.064,-56.8944 L 546.52,-57.5951
 L 547.112,-58.1855 L 547.814,-58.64 L 548.595,-58.9385 L 549.421,-59.0681 L 550.257,-59.0231 L 551.064,-58.8055
 L 636.848,-25.7322 L 637.76,-25.2361 L 638.381,-24.6765 L 638.873,-24 L 639.213,-23.2361 L 639.387,-22.4181
 L 639.387,-21.5819 L 639.213,-20.7639 L 638.873,-20 L 638.381,-19.3235 L 637.76,-18.7639 L 637.036,-18.3458
 L 636.24,-18.0874 L 635.409,-18 z
M 790.591,-18 L 789.76,-18.0874 L 788.964,-18.3458 L 788.24,-18.7639 L 787.619,-19.3235 L 787.127,-20
 L 786.787,-20.7639 L 786.613,-21.5819 L 786.613,-22.4181 L 786.787,-23.2361 L 787.127,-24 L 787.619,-24.6765
 L 788.24,-25.2361 L 789.152,-25.7322 L 874.936,-58.8055 L 875.743,-59.0231 L 876.579,-59.0681 L 877.405,-58.9385
 L 878.186,-58.64 L 878.888,-58.1855 L 879.48,-57.5951 L 879.936,-56.8944 L 880.237,-56.1142 L 880.375,-55.0733
 L 880.375,-22 L 880.288,-21.1684 L 880.029,-20.373 L 879.611,-19.6489 L 879.052,-19.0274 L 878.375,-18.5359
 L 877.611,-18.1958 L 876.375,-18 z
M 966.966,-18 L 966.135,-18.0874 L 965.339,-18.3458 L 964.615,-18.7639 L 963.994,-19.3235 L 963.502,-20
 L 963.162,-20.7639 L 962.988,-21.5819 L 962.988,-22.4181 L 963.162,-23.2361 L 963.502,-24 L 963.994,-24.6765
 L 964.615,-25.2361 L 965.527,-25.7322 L 1051.31,-58.8055 L 1052.12,-59.0231 L 1052.95,-59.0681 L 1053.78,-58.9385
 L 1054.56,-58.64 L 1055.26,-58.1855 L 1055.85,-57.5951 L 1056.31,-56.8944 L 1056.61,-56.1142 L 1056.75,-55.0733
 L 1056.75,-22 L 1056.66,-21.1684 L 1056.4,-20.373 L 1055.99,-19.6489 L 1055.43,-19.0274 L 1054.75,-18.5359
 L 1053.99,-18.1958 L 1052.75,-18 z
M 1143.34,-18 L 1142.51,-18.0874 L 1141.71,-18.3458 L 1140.99,-18.7639 L 1140.37,-19.3235 L 1139.88,-20
 L 1139.54,-20.7639 L 1139.36,-21.5819 L 1139.36,-22.4181 L 1139.54,-23.2361 L 1139.88,-24 L 1140.37,-24.6765
 L 1140.99,-25.2361 L 1141.9,-25.7322 L 1227.69,-58.8055 L 1228.49,-59.0231 L 1229.33,-59.0681 L 1230.15,-58.9385
 L 1230.94,-58.64 L 1231.64,-58.1855 L 1232.23,-57.5951 L 1232.69,-56.8944 L 1232.99,-56.1142 L 1233.12,-55.0733
 L 1233.12,-22 L 1233.04,-21.1684 L 1232.78,-20.373 L 1232.36,-19.6489 L 1231.8,-19.0274 L 1231.12,-18.5359
 L 1230.36,-18.1958 L 1229.12,-18 z
M 1319.72,-18 L 1318.88,-18.0874 L 1318.09,-18.3458 L 1317.37,-18.7639 L 1316.74,-19.3235 L 1316.25,-20
 L 1315.91,-20.7639 L 1315.74,-21.5819 L 1315.74,-22.4181 L 1315.91,-23.2361 L 1316.25,-24 L 1316.74,-24.6765
 L 1317.37,-25.2361 L 1318.28,-25.7322 L 1402.56,-58.2272 L 1403.37,-58.4448 L 1404.2,-58.4898 L 1405.03,-58.3602
 L 1405.81,-58.0616 L 1406.51,-57.6072 L 1407.1,-57.0168 L 1407.56,-56.3161 L 1407.86,-55.5359 L 1408,-54.495
 L 1408,-22 L 1407.91,-21.1684 L 1407.65,-20.373 L 1407.24,-19.6489 L 1406.68,-19.0274 L 1406,-18.5359
 L 1405.24,-18.1958 L 1404,-18 z
M 22,-18 L 20.7639,-18.1958 L 20,-18.5359 L 19.3235,-19.0274 L 18.7639,-19.6489 L 18.3458,-20.373
 L 18.0874,-21.1684 L 18,-22 L 18,-54.495 L 18.1378,-55.5359 L 18.4386,-56.3161 L 18.8951,-57.0168
 L 19.4873,-57.6072 L 20.1893,-58.0616 L 20.9704,-58.3602 L 21.7965,-58.4898 L 22.6315,-58.4448 L 23.4389,-58.2272
 L 107.723,-25.7322 L 108.635,-25.2361 L 109.256,-24.6765 L 109.748,-24 L 110.088,-23.2361 L 110.262,-22.4181
 L 110.262,-21.5819 L 110.088,-20.7639 L 109.748,-20 L 109.256,-19.3235 L 108.635,-18.7639 L 107.911,-18.3458
 L 107.115,-18.0874 L 106.284,-18 z
" stroke="black" fill="lightgray" stroke-width="0.5"/>
</svg>
