<?xml version="1.0" standalone="no"?>
<!DOCTYPE svg PUBLIC "-//W3C//DTD SVG 1.1//EN" "http://www.w3.org/Graphics/SVG/1.1/DTD/svg11.dtd">
<svg width="1329mm" height="80mm" viewBox="0 -80 1329 80" xmlns="http://www.w3.org/2000/svg" version="1.1">
<title>OpenSCAD Model</title>
<path d="
M 1329,-80 L 0,-80 L 0,-0 L 4.95,-0 L 4.95,-6 L 5.00572,-6.53017
 L 5.17046,-7.03717 L 5.437,-7.49884 L 5.79372,-7.895 L 6.22499,-8.20836 L 6.71201,-8.42519 L 7.23344,-8.53603
 L 7.76654,-8.53603 L 8.28798,-8.42519 L 8.77499,-8.20836 L 9.20627,-7.895 L 9.56299,-7.49884 L 9.82953,-7.03717
 L 9.99426,-6.53017 L 10.05,-6 L 10.05,-0 L 192.664,-0 L 192.664,-6 L 192.72,-6.53017
 L 192.885,-7.03717 L 193.151,-7.49884 L 193.508,-7.895 L 193.939,-8.20836 L 194.426,-8.42519 L 194.948,-8.53603
 L 195.481,-8.53603 L 196.002,-8.42519 L 196.489,-8.20836 L 196.921,-7.895 L 197.277,-7.49884 L 197.544,-7.03717
 L 197.709,-6.53017 L 197.764,-6 L 197.764,-0 L 380.379,-0 L 380.379,-6 L 380.434,-6.53017
 L 380.599,-7.03717 L 380.866,-7.49884 L 381.222,-7.895 L 381.654,-8.20836 L 382.141,-8.42519 L 382.662,-8.53603
 L 383.195,-8.53603 L 383.717,-8.42519 L 384.204,-8.20836 L 384.635,-7.895 L 384.992,-7.49884 L 385.258,-7.03717
 L 385.423,-6.53017 L 385.479,-6 L 385.479,-0 L 568.093,-0 L 568.093,-6 L 568.149,-6.53017
 L 568.313,-7.03717 L 568.58,-7.49884 L 568.937,-7.895 L 569.368,-8.20836 L 569.855,-8.42519 L 570.376,-8.53603
 L 570.909,-8.53603 L 571.431,-8.42519 L 571.918,-8.20836 L 572.349,-7.895 L 572.706,-7.49884 L 572.972,-7.03717
 L 573.137,-6.53017 L 573.193,-6 L 573.193,-0 L 755.807,-0 L 755.807,-6 L 755.863,-6.53017
 L 756.028,-7.03717 L 756.294,-7.49884 L 756.651,-7.895 L 757.082,-8.20836 L 757.569,-8.42519 L 758.091,-8.53603
 L 758.624,-8.53603 L 759.145,-8.42519 L 759.632,-8.20836 L 760.063,-7.895 L 760.42,-7.49884 L 760.687,-7.03717
 L 760.851,-6.53017 L 760.907,-6 L 760.907,-0 L 943.521,-0 L 943.521,-6 L 943.577,-6.53017
 L 943.742,-7.03717 L 944.008,-7.49884 L 944.365,-7.895 L 944.796,-8.20836 L 945.283,-8.42519 L 945.805,-8.53603
 L 946.338,-8.53603 L 946.859,-8.42519 L 947.346,-8.20836 L 947.778,-7.895 L 948.134,-7.49884 L 948.401,-7.03717
 L 948.566,-6.53017 L 948.621,-6 L 948.621,-0 L 1131.24,-0 L 1131.24,-6 L 1131.29,-6.53017
 L 1131.46,-7.03717 L 1131.72,-7.49884 L 1132.08,-7.895 L 1132.51,-8.20836 L 1133,-8.42519 L 1133.52,-8.53603
 L 1134.05,-8.53603 L 1134.57,-8.42519 L 1135.06,-8.20836 L 1135.49,-7.895 L 1135.85,-7.49884 L 1136.12,-7.03717
 L 1136.28,-6.53017 L 1136.34,-6 L 1136.34,-0 L 1318.95,-0 L 1318.95,-6 L 1319.01,-6.53017
 L 1319.17,-7.03717 L 1319.44,-7.49884 L 1319.79,-7.895 L 1320.22,-8.20836 L 1320.71,-8.42519 L 1321.23,-8.53603
 L 1321.77,-8.53603 L 1322.29,-8.42519 L 1322.77,-8.20836 L 1323.21,-7.895 L 1323.56,-7.49884 L 1323.83,-7.03717
 L 1323.99,-6.53017 L 1324.05,-6 L 1324.05,-0 L 1329,-0 z
M 6.98573,-55.607 L 6.47708,-55.6875 L 5.97964,-55.8208 L 5.49887,-56.0054 L 5.04001,-56.2392 L 4.60811,-56.5196
 L 4.20789,-56.8437 L 3.84373,-57.2079 L 3.51964,-57.6081 L 3.23917,-58.04 L 3.00537,-58.4989 L 2.82082,-58.9796
 L 2.68752,-59.4771 L 2.60696,-59.9857 L 2.58,-60.5 L 2.60696,-61.0143 L 2.68752,-61.5229 L 2.82082,-62.0204
 L 3.00537,-62.5011 L 3.23917,-62.96 L 3.51964,-63.3919 L 3.84373,-63.7921 L 4.20789,-64.1563 L 4.60811,-64.4804
 L 4.95001,-64.7024 L 4.95001,-74 L 5.00574,-74.5302 L 5.17047,-75.0372 L 5.43701,-75.4988 L 5.79373,-75.895
 L 6.22501,-76.2084 L 6.71202,-76.4252 L 7.23346,-76.536 L 7.76654,-76.536 L 8.28798,-76.4252 L 8.77499,-76.2084
 L 9.20627,-75.895 L 9.56299,-75.4988 L 9.82953,-75.0372 L 9.99426,-74.5302 L 10.05,-74 L 10.05,-64.7024
 L 10.3919,-64.4804 L 10.7921,-64.1563 L 11.1563,-63.7921 L 11.4804,-63.3919 L 11.7608,-62.96 L 11.9946,-62.5011
 L 12.1792,-62.0204 L 12.3125,-61.5229 L 12.393,-61.0143 L 12.42,-60.5 L 12.393,-59.9857 L 12.3125,-59.4771
 L 12.1792,-58.9796 L 11.9946,-58.4989 L 11.7608,-58.04 L 11.4804,-57.6081 L 11.1563,-57.2079 L 10.7921,-56.8437
 L 10.3919,-56.5196 L 9.95999,-56.2392 L 9.50113,-56.0054 L 9.02036,-55.8208 L 8.52292,-55.6875 L 8.01427,-55.607
 L 7.5,-55.58 z
M 194.7,-55.607 L 194.191,-55.6875 L 193.694,-55.8208 L 193.213,-56.0054 L 192.754,-56.2392 L 192.322,-56.5196
 L 191.922,-56.8437 L 191.558,-57.2079 L 191.234,-57.6081 L 190.953,-58.04 L 190.72,-58.4989 L 190.535,-58.9796
 L 190.402,-59.4771 L 190.321,-59.9857 L 190.294,-60.5 L 190.321,-61.0143 L 190.402,-61.5229 L 190.535,-62.0204
 L 190.72,-62.5011 L 190.953,-62.96 L 191.234,-63.3919 L 191.558,-63.7921 L 191.922,-64.1563 L 192.322,-64.4804
 L 192.664,-64.7024 L 192.664,-74 L 192.72,-74.5302 L 192.885,-75.0372 L 193.151,-75.4988 L 193.508,-75.895
 L 193.939,-76.2084 L 194.426,-76.4252 L 194.948,-76.536 L 195.481,-76.536 L 196.002,-76.4252 L 196.489,-76.2084
 L 196.921,-75.895 L 197.277,-75.4988 L 197.544,-75.0372 L 197.709,-74.5302 L 197.764,-74 L 197.764,-64.7024
 L 198.106,-64.4804 L 198.506,-64.1563 L 198.871,-63.7921 L 199.195,-63.3919 L 199.475,-62.96 L 199.709,-62.5011
 L 199.893,-62.0204 L 200.027,-61.5229 L 200.107,-61.0143 L 200.134,-60.5 L 200.107,-59.9857 L 200.027,-59.4771
 L 199.893,-58.9796 L 199.709,-58.4989 L 199.475,-58.04 L 199.195,-57.6081 L 198.871,-57.2079 L 198.506,-56.8437
 L 198.106,-56.5196 L 197.674,-56.2392 L 197.215,-56.0054 L 196.735,-55.8208 L 196.237,-55.6875 L 195.729,-55.607
 L 195.214,-55.58 z
M 382.414,-55.607 L 381.906,-55.6875 L 381.408,-55.8208 L 380.927,-56.0054 L 380.469,-56.2392 L 380.037,-56.5196
 L 379.636,-56.8437 L 379.272,-57.2079 L 378.948,-57.6081 L 378.668,-58.04 L 378.434,-58.4989 L 378.249,-58.9796
 L 378.116,-59.4771 L 378.036,-59.9857 L 378.009,-60.5 L 378.036,-61.0143 L 378.116,-61.5229 L 378.249,-62.0204
 L 378.434,-62.5011 L 378.668,-62.96 L 378.948,-63.3919 L 379.272,-63.7921 L 379.636,-64.1563 L 380.037,-64.4804
 L 380.379,-64.7024 L 380.379,-74 L 380.434,-74.5302 L 380.599,-75.0372 L 380.866,-75.4988 L 381.222,-75.895
 L 381.654,-76.2084 L 382.141,-76.4252 L 382.662,-76.536 L 383.195,-76.536 L 383.717,-76.4252 L 384.204,-76.2084
 L 384.635,-75.895 L 384.992,-75.4988 L 385.258,-75.0372 L 385.423,-74.5302 L 385.479,-74 L 385.479,-64.7024
 L 385.82,-64.4804 L 386.221,-64.1563 L 386.585,-63.7921 L 386.909,-63.3919 L 387.189,-62.96 L 387.423,-62.5011
 L 387.608,-62.0204 L 387.741,-61.5229 L 387.822,-61.0143 L 387.849,-60.5 L 387.822,-59.9857 L 387.741,-59.4771
 L 387.608,-58.9796 L 387.423,-58.4989 L 387.189,-58.04 L 386.909,-57.6081 L 386.585,-57.2079 L 386.221,-56.8437
 L 385.82,-56.5196 L 385.389,-56.2392 L 384.93,-56.0054 L 384.449,-55.8208 L 383.951,-55.6875 L 383.443,-55.607
 L 382.929,-55.58 z
M 570.129,-55.607 L 569.62,-55.6875 L 569.122,-55.8208 L 568.642,-56.0054 L 568.183,-56.2392 L 567.751,-56.5196
 L 567.351,-56.8437 L 566.987,-57.2079 L 566.662,-57.6081 L 566.382,-58.04 L 566.148,-58.4989 L 565.964,-58.9796
 L 565.83,-59.4771 L 565.75,-59.9857 L 565.723,-60.5 L 565.75,-61.0143 L 565.83,-61.5229 L 565.964,-62.0204
 L 566.148,-62.5011 L 566.382,-62.96 L 566.662,-63.3919 L 566.987,-63.7921 L 567.351,-64.1563 L 567.751,-64.4804
 L 568.093,-64.7024 L 568.093,-74 L 568.149,-74.5302 L 568.313,-75.0372 L 568.58,-75.4988 L 568.937,-75.895
 L 569.368,-76.2084 L 569.855,-76.4252 L 570.376,-76.536 L 570.909,-76.536 L 571.431,-76.4252 L 571.918,-76.2084
 L 572.349,-75.895 L 572.706,-75.4988 L 572.972,-75.0372 L 573.137,-74.5302 L 573.193,-74 L 573.193,-64.7024
 L 573.535,-64.4804 L 573.935,-64.1563 L 574.299,-63.7921 L 574.623,-63.3919 L 574.904,-62.96 L 575.137,-62.5011
 L 575.322,-62.0204 L 575.455,-61.5229 L 575.536,-61.0143 L 575.563,-60.5 L 575.536,-59.9857 L 575.455,-59.4771
 L 575.322,-58.9796 L 575.137,-58.4989 L 574.904,-58.04 L 574.623,-57.6081 L 574.299,-57.2079 L 573.935,-56.8437
 L 573.535,-56.5196 L 573.103,-56.2392 L 572.644,-56.0054 L 572.163,-55.8208 L 571.666,-55.6875 L 571.157,-55.607
 L 570.643,-55.58 z
M 757.843,-55.607 L 757.334,-55.6875 L 756.837,-55.8208 L 756.356,-56.0054 L 755.897,-56.2392 L 755.465,-56.5196
 L 755.065,-56.8437 L 754.701,-57.2079 L 754.377,-57.6081 L 754.096,-58.04 L 753.863,-58.4989 L 753.678,-58.9796
 L 753.545,-59.4771 L 753.464,-59.9857 L 753.437,-60.5 L 753.464,-61.0143 L 753.545,-61.5229 L 753.678,-62.0204
 L 753.863,-62.5011 L 754.096,-62.96 L 754.377,-63.3919 L 754.701,-63.7921 L 755.065,-64.1563 L 755.465,-64.4804
 L 755.807,-64.7024 L 755.807,-74 L 755.863,-74.5302 L 756.028,-75.0372 L 756.294,-75.4988 L 756.651,-75.895
 L 757.082,-76.2084 L 757.569,-76.4252 L 758.091,-76.536 L 758.624,-76.536 L 759.145,-76.4252 L 759.632,-76.2084
 L 760.063,-75.895 L 760.42,-75.4988 L 760.687,-75.0372 L 760.851,-74.5302 L 760.907,-74 L 760.907,-64.7024
 L 761.249,-64.4804 L 761.649,-64.1563 L 762.013,-63.7921 L 762.337,-63.3919 L 762.618,-62.96 L 762.852,-62.5011
 L 763.036,-62.0204 L 763.17,-61.5229 L 763.25,-61.0143 L 763.277,-60.5 L 763.25,-59.9857 L 763.17,-59.4771
 L 763.036,-58.9796 L 762.852,-58.4989 L 762.618,-58.04 L 762.337,-57.6081 L 762.013,-57.2079 L 761.649,-56.8437
 L 761.249,-56.5196 L 760.817,-56.2392 L 760.358,-56.0054 L 759.877,-55.8208 L 759.38,-55.6875 L 758.871,-55.607
 L 758.357,-55.58 z
M 945.557,-55.607 L 945.049,-55.6875 L 944.551,-55.8208 L 944.07,-56.0054 L 943.611,-56.2392 L 943.18,-56.5196
 L 942.779,-56.8437 L 942.415,-57.2079 L 942.091,-57.6081 L 941.811,-58.04 L 941.577,-58.4989 L 941.392,-58.9796
 L 941.259,-59.4771 L 941.178,-59.9857 L 941.151,-60.5 L 941.178,-61.0143 L 941.259,-61.5229 L 941.392,-62.0204
 L 941.577,-62.5011 L 941.811,-62.96 L 942.091,-63.3919 L 942.415,-63.7921 L 942.779,-64.1563 L 943.18,-64.4804
 L 943.521,-64.7024 L 943.521,-74 L 943.577,-74.5302 L 943.742,-75.0372 L 944.008,-75.4988 L 944.365,-75.895
 L 944.796,-76.2084 L 945.283,-76.4252 L 945.805,-76.536 L 946.338,-76.536 L 946.859,-76.4252 L 947.346,-76.2084
 L 947.778,-75.895 L 948.134,-75.4988 L 948.401,-75.0372 L 948.566,-74.5302 L 948.621,-74 L 948.621,-64.7024
 L 948.963,-64.4804 L 949.364,-64.1563 L 949.728,-63.7921 L 950.052,-63.3919 L 950.332,-62.96 L 950.566,-62.5011
 L 950.751,-62.0204 L 950.884,-61.5229 L 950.964,-61.0143 L 950.991,-60.5 L 950.964,-59.9857 L 950.884,-59.4771
 L 950.751,-58.9796 L 950.566,-58.4989 L 950.332,-58.04 L 950.052,-57.6081 L 949.728,-57.2079 L 949.364,-56.8437
 L 948.963,-56.5196 L 948.531,-56.2392 L 948.073,-56.0054 L 947.592,-55.8208 L 947.094,-55.6875 L 946.586,-55.607
 L 946.071,-55.58 z
M 1133.27,-55.607 L 1132.76,-55.6875 L 1132.27,-55.8208 L 1131.78,-56.0054 L 1131.33,-56.2392 L 1130.89,-56.5196
 L 1130.49,-56.8437 L 1130.13,-57.2079 L 1129.81,-57.6081 L 1129.52,-58.04 L 1129.29,-58.4989 L 1129.11,-58.9796
 L 1128.97,-59.4771 L 1128.89,-59.9857 L 1128.87,-60.5 L 1128.89,-61.0143 L 1128.97,-61.5229 L 1129.11,-62.0204
 L 1129.29,-62.5011 L 1129.52,-62.96 L 1129.81,-63.3919 L 1130.13,-63.7921 L 1130.49,-64.1563 L 1130.89,-64.4804
 L 1131.24,-64.7024 L 1131.24,-74 L 1131.29,-74.5302 L 1131.46,-75.0372 L 1131.72,-75.4988 L 1132.08,-75.895
 L 1132.51,-76.2084 L 1133,-76.4252 L 1133.52,-76.536 L 1134.05,-76.536 L 1134.57,-76.4252 L 1135.06,-76.2084
 L 1135.49,-75.895 L 1135.85,-75.4988 L 1136.12,-75.0372 L 1136.28,-74.5302 L 1136.34,-74 L 1136.34,-64.7024
 L 1136.68,-64.4804 L 1137.08,-64.1563 L 1137.44,-63.7921 L 1137.77,-63.3919 L 1138.05,-62.96 L 1138.28,-62.5011
 L 1138.46,-62.0204 L 1138.6,-61.5229 L 1138.68,-61.0143 L 1138.71,-60.5 L 1138.68,-59.9857 L 1138.6,-59.4771
 L 1138.46,-58.9796 L 1138.28,-58.4989 L 1138.05,-58.04 L 1137.77,-57.6081 L 1137.44,-57.2079 L 1137.08,-56.8437
 L 1136.68,-56.5196 L 1136.25,-56.2392 L 1135.79,-56.0054 L 1135.31,-55.8208 L 1134.81,-55.6875 L 1134.3,-55.607
 L 1133.79,-55.58 z
M 1320.99,-55.607 L 1320.48,-55.6875 L 1319.98,-55.8208 L 1319.5,-56.0054 L 1319.04,-56.2392 L 1318.61,-56.5196
 L 1318.21,-56.8437 L 1317.84,-57.2079 L 1317.52,-57.6081 L 1317.24,-58.04 L 1317.01,-58.4989 L 1316.82,-58.9796
 L 1316.69,-59.4771 L 1316.61,-59.9857 L 1316.58,-60.5 L 1316.61,-61.0143 L 1316.69,-61.5229 L 1316.82,-62.0204
 L 1317.01,-62.5011 L 1317.24,-62.96 L 1317.52,-63.3919 L 1317.84,-63.7921 L 1318.21,-64.1563 L 1318.61,-64.4804
 L 1318.95,-64.7024 L 1318.95,-74 L 1319.01,-74.5302 L 1319.17,-75.0372 L 1319.44,-75.4988 L 1319.79,-75.895
 L 1320.23,-76.2084 L 1320.71,-76.4252 L 1321.23,-76.536 L 1321.77,-76.536 L 1322.29,-76.4252 L 1322.77,-76.2084
 L 1323.21,-75.895 L 1323.56,-75.4988 L 1323.83,-75.0372 L 1323.99,-74.5302 L 1324.05,-74 L 1324.05,-64.7024
 L 1324.39,-64.4804 L 1324.79,-64.1563 L 1325.16,-63.7921 L 1325.48,-63.3919 L 1325.76,-62.96 L 1325.99,-62.5011
 L 1326.18,-62.0204 L 1326.31,-61.5229 L 1326.39,-61.0143 L 1326.42,-60.5 L 1326.39,-59.9857 L 1326.31,-59.4771
 L 1326.18,-58.9796 L 1325.99,-58.4989 L 1325.76,-58.04 L 1325.48,-57.6081 L 1325.16,-57.2079 L 1324.79,-56.8437
 L 1324.39,-56.5196 L 1323.96,-56.2392 L 1323.5,-56.0054 L 1323.02,-55.8208 L 1322.52,-55.6875 L 1322.01,-55.607
 L 1321.5,-55.58 z
M 770.249,-20.6849 L 769.474,-20.9993 L 768.781,-21.468 L 768.201,-22.0704 L 767.759,-22.7802 L 767.475,-23.5665
 L 767.357,-24.5283 L 767.357,-58 L 767.445,-58.8316 L 767.703,-59.627 L 768.121,-60.3511 L 768.681,-60.9726
 L 769.357,-61.4641 L 770.121,-61.8042 L 771.357,-62 L 863.756,-62 L 864.588,-61.9126 L 865.383,-61.6542
 L 866.107,-61.2361 L 866.729,-60.6765 L 867.22,-60 L 867.56,-59.2361 L 867.734,-58.4181 L 867.734,-57.5819
 L 867.56,-56.7639 L 867.22,-56 L 866.729,-55.3235 L 866.107,-54.7639 L 865.118,-54.2392 L 772.72,-20.7674
 L 771.908,-20.5663 L 771.072,-20.5384 z
M 663.949,-47.7311 L 663.138,-47.9321 L 645.727,-54.2392 L 644.738,-54.7639 L 644.117,-55.3235 L 643.625,-56
 L 643.285,-56.7639 L 643.111,-57.5819 L 643.111,-58.4181 L 643.285,-59.2361 L 643.625,-60 L 644.117,-60.6765
 L 644.738,-61.2361 L 645.462,-61.6542 L 646.258,-61.9126 L 647.089,-62 L 681.911,-62 L 683.019,-61.8434
 L 683.794,-61.5289 L 684.486,-61.0603 L 685.066,-60.4579 L 685.508,-59.748 L 685.793,-58.9618 L 685.908,-58.1335
 L 685.849,-57.2994 L 685.617,-56.4959 L 685.223,-55.7582 L 684.685,-55.1184 L 684.025,-54.6046 L 683.273,-54.2392
 L 665.862,-47.9321 L 664.785,-47.7032 z
M 557.092,-20.5663 L 556.28,-20.7674 L 463.882,-54.2392 L 462.893,-54.7639 L 462.271,-55.3235 L 461.78,-56
 L 461.44,-56.7639 L 461.266,-57.5819 L 461.266,-58.4181 L 461.44,-59.2361 L 461.78,-60 L 462.271,-60.6765
 L 462.893,-61.2361 L 463.617,-61.6542 L 464.412,-61.9126 L 465.244,-62 L 557.643,-62 L 558.879,-61.8042
 L 559.643,-61.4641 L 560.319,-60.9726 L 560.879,-60.3511 L 561.297,-59.627 L 561.555,-58.8316 L 561.643,-58
 L 561.643,-24.5283 L 561.525,-23.5665 L 561.241,-22.7802 L 560.799,-22.0704 L 560.219,-21.468 L 559.526,-20.9993
 L 558.751,-20.6849 L 557.928,-20.5384 z
M 369.378,-20.5663 L 368.566,-20.7674 L 276.167,-54.2392 L 275.179,-54.7639 L 274.557,-55.3235 L 274.066,-56
 L 273.725,-56.7639 L 273.552,-57.5819 L 273.552,-58.4181 L 273.725,-59.2361 L 274.066,-60 L 274.557,-60.6765
 L 275.179,-61.2361 L 275.903,-61.6542 L 276.698,-61.9126 L 277.53,-62 L 369.929,-62 L 371.165,-61.8042
 L 371.929,-61.4641 L 372.605,-60.9726 L 373.165,-60.3511 L 373.583,-59.627 L 373.841,-58.8316 L 373.929,-58
 L 373.929,-24.5283 L 373.811,-23.5665 L 373.526,-22.7802 L 373.084,-22.0704 L 372.504,-21.468 L 371.812,-20.9993
 L 371.037,-20.6849 L 370.214,-20.5384 z
M 1145.68,-20.6849 L 1144.9,-20.9993 L 1144.21,-21.468 L 1143.63,-22.0704 L 1143.19,-22.7802 L 1142.9,-23.5665
 L 1142.79,-24.5283 L 1142.79,-58 L 1142.87,-58.8316 L 1143.13,-59.627 L 1143.55,-60.3511 L 1144.11,-60.9726
 L 1144.79,-61.4641 L 1145.55,-61.8042 L 1146.79,-62 L 1239.18,-62 L 1240.02,-61.9126 L 1240.81,-61.6542
 L 1241.54,-61.2361 L 1242.16,-60.6765 L 1242.65,-60 L 1242.99,-59.2361 L 1243.16,-58.4181 L 1243.16,-57.5819
 L 1242.99,-56.7639 L 1242.65,-56 L 1242.16,-55.3235 L 1241.54,-54.7639 L 1240.55,-54.2392 L 1148.15,-20.7674
 L 1147.34,-20.5663 L 1146.5,-20.5384 z
M 181.664,-20.5663 L 180.852,-20.7674 L 88.453,-54.2392 L 87.4643,-54.7639 L 86.8428,-55.3235 L 86.3513,-56
 L 86.0112,-56.7639 L 85.8373,-57.5819 L 85.8373,-58.4181 L 86.0112,-59.2361 L 86.3513,-60 L 86.8428,-60.6765
 L 87.4643,-61.2361 L 88.1884,-61.6542 L 88.9837,-61.9126 L 89.8154,-62 L 182.214,-62 L 183.45,-61.8042
 L 184.214,-61.4641 L 184.891,-60.9726 L 185.45,-60.3511 L 185.868,-59.627 L 186.127,-58.8316 L 186.214,-58
 L 186.214,-24.5283 L 186.097,-23.5665 L 185.812,-22.7802 L 185.37,-22.0704 L 184.79,-21.468 L 184.098,-20.9993
 L 183.323,-20.6849 L 182.499,-20.5384 z
M 957.963,-20.6849 L 957.188,-20.9993 L 956.496,-21.468 L 955.916,-22.0704 L 955.474,-22.7802 L 955.189,-23.5665
 L 955.071,-24.5283 L 955.071,-58 L 955.159,-58.8316 L 955.417,-59.627 L 955.835,-60.3511 L 956.395,-60.9726
 L 957.071,-61.4641 L 957.835,-61.8042 L 959.071,-62 L 1051.47,-62 L 1052.3,-61.9126 L 1053.1,-61.6542
 L 1053.82,-61.2361 L 1054.44,-60.6765 L 1054.93,-60 L 1055.27,-59.2361 L 1055.45,-58.4181 L 1055.45,-57.5819
 L 1055.27,-56.7639 L 1054.93,-56 L 1054.44,-55.3235 L 1053.82,-54.7639 L 1052.83,-54.2392 L 960.434,-20.7674
 L 959.622,-20.5663 L 958.786,-20.5384 z
M 583.225,-18.4242 L 582.407,-18.598 L 581.643,-18.9382 L 580.966,-19.4297 L 580.407,-20.0511 L 579.989,-20.7753
 L 579.73,-21.5706 L 579.643,-22.4023 L 579.643,-57.5977 L 579.76,-58.5595 L 580.045,-59.3458 L 580.487,-60.0556
 L 581.067,-60.658 L 581.76,-61.1267 L 582.534,-61.4411 L 583.358,-61.5876 L 584.194,-61.5596 L 585.005,-61.3586
 L 633.584,-43.7608 L 634.105,-43.5289 L 634.797,-43.0603 L 635.377,-42.4579 L 635.819,-41.748 L 636.104,-40.9618
 L 636.219,-40.1335 L 636.16,-39.2994 L 635.928,-38.4959 L 635.534,-37.7582 L 634.996,-37.1184 L 634.336,-36.6046
 L 633.584,-36.2392 L 585.005,-18.6414 L 584.061,-18.4242 z
M 744.806,-18.4403 L 743.995,-18.6414 L 695.416,-36.2392 L 694.895,-36.4711 L 694.203,-36.9397 L 693.623,-37.5421
 L 693.181,-38.252 L 692.896,-39.0382 L 692.781,-39.8665 L 692.84,-40.7006 L 693.072,-41.5041 L 693.466,-42.2418
 L 694.004,-42.8816 L 694.664,-43.3954 L 695.416,-43.7608 L 743.995,-61.3586 L 744.939,-61.5758 L 745.775,-61.5758
 L 746.593,-61.402 L 747.357,-61.0618 L 748.034,-60.5703 L 748.593,-59.9489 L 749.011,-59.2247 L 749.27,-58.4294
 L 749.357,-57.5977 L 749.357,-22.4023 L 749.24,-21.4405 L 748.955,-20.6542 L 748.513,-19.9444 L 747.933,-19.342
 L 747.24,-18.8733 L 746.466,-18.5589 L 745.642,-18.4124 z
M 208.214,-18 L 206.978,-18.1958 L 206.214,-18.5359 L 205.538,-19.0274 L 204.978,-19.6489 L 204.56,-20.373
 L 204.302,-21.1684 L 204.214,-22 L 204.214,-55.4717 L 204.332,-56.4335 L 204.616,-57.2198 L 205.059,-57.9296
 L 205.638,-58.532 L 206.331,-59.0007 L 207.106,-59.3151 L 207.929,-59.4615 L 208.765,-59.4336 L 209.577,-59.2326
 L 301.976,-25.7608 L 302.964,-25.2361 L 303.586,-24.6765 L 304.077,-24 L 304.417,-23.2361 L 304.591,-22.4181
 L 304.591,-21.5819 L 304.417,-20.7639 L 304.077,-20 L 303.586,-19.3235 L 302.964,-18.7639 L 302.24,-18.3458
 L 301.445,-18.0874 L 300.613,-18 z
M 395.929,-18 L 394.692,-18.1958 L 393.929,-18.5359 L 393.252,-19.0274 L 392.692,-19.6489 L 392.274,-20.373
 L 392.016,-21.1684 L 391.929,-22 L 391.929,-55.4717 L 392.046,-56.4335 L 392.331,-57.2198 L 392.773,-57.9296
 L 393.353,-58.532 L 394.045,-59.0007 L 394.82,-59.3151 L 395.643,-59.4615 L 396.479,-59.4336 L 397.291,-59.2326
 L 489.69,-25.7608 L 490.679,-25.2361 L 491.3,-24.6765 L 491.792,-24 L 492.132,-23.2361 L 492.306,-22.4181
 L 492.306,-21.5819 L 492.132,-20.7639 L 491.792,-20 L 491.3,-19.3235 L 490.679,-18.7639 L 489.954,-18.3458
 L 489.159,-18.0874 L 488.327,-18 z
M 840.673,-18 L 839.841,-18.0874 L 839.046,-18.3458 L 838.321,-18.7639 L 837.7,-19.3235 L 837.208,-20
 L 836.868,-20.7639 L 836.694,-21.5819 L 836.694,-22.4181 L 836.868,-23.2361 L 837.208,-24 L 837.7,-24.6765
 L 838.321,-25.2361 L 839.31,-25.7608 L 931.709,-59.2326 L 932.521,-59.4336 L 933.357,-59.4615 L 934.18,-59.3151
 L 934.955,-59.0007 L 935.647,-58.532 L 936.227,-57.9296 L 936.669,-57.2198 L 936.954,-56.4335 L 937.071,-55.4717
 L 937.071,-22 L 936.984,-21.1684 L 936.726,-20.373 L 936.307,-19.6489 L 935.748,-19.0274 L 935.071,-18.5359
 L 934.307,-18.1958 L 933.071,-18 z
M 1028.39,-18 L 1027.56,-18.0874 L 1026.76,-18.3458 L 1026.04,-18.7639 L 1025.41,-19.3235 L 1024.92,-20
 L 1024.58,-20.7639 L 1024.41,-21.5819 L 1024.41,-22.4181 L 1024.58,-23.2361 L 1024.92,-24 L 1025.41,-24.6765
 L 1026.04,-25.2361 L 1027.02,-25.7608 L 1119.42,-59.2326 L 1120.24,-59.4336 L 1121.07,-59.4615 L 1121.89,-59.3151
 L 1122.67,-59.0007 L 1123.36,-58.532 L 1123.94,-57.9296 L 1124.38,-57.2198 L 1124.67,-56.4335 L 1124.79,-55.4717
 L 1124.79,-22 L 1124.7,-21.1684 L 1124.44,-20.373 L 1124.02,-19.6489 L 1123.46,-19.0274 L 1122.79,-18.5359
 L 1122.02,-18.1958 L 1120.79,-18 z
M 22,-18 L 20.7639,-18.1958 L 20,-18.5359 L 19.3235,-19.0274 L 18.7639,-19.6489 L 18.3458,-20.373
 L 18.0874,-21.1684 L 18,-22 L 18,-54.9284 L 18.1174,-55.8902 L 18.4022,-56.6764 L 18.8442,-57.3862
 L 19.4242,-57.9886 L 20.1168,-58.4573 L 20.8916,-58.7717 L 21.7149,-58.9182 L 22.5507,-58.8903 L 23.3624,-58.6892
 L 114.261,-25.7608 L 115.25,-25.2361 L 115.871,-24.6765 L 116.363,-24 L 116.703,-23.2361 L 116.877,-22.4181
 L 116.877,-21.5819 L 116.703,-20.7639 L 116.363,-20 L 115.871,-19.3235 L 115.25,-18.7639 L 114.526,-18.3458
 L 113.731,-18.0874 L 112.899,-18 z
M 1216.1,-18 L 1215.27,-18.0874 L 1214.47,-18.3458 L 1213.75,-18.7639 L 1213.13,-19.3235 L 1212.64,-20
 L 1212.3,-20.7639 L 1212.12,-21.5819 L 1212.12,-22.4181 L 1212.3,-23.2361 L 1212.64,-24 L 1213.13,-24.6765
 L 1213.75,-25.2361 L 1214.74,-25.7608 L 1305.64,-58.6892 L 1306.45,-58.8903 L 1307.29,-58.9182 L 1308.11,-58.7717
 L 1308.88,-58.4573 L 1309.58,-57.9886 L 1310.16,-57.3862 L 1310.6,-56.6764 L 1310.88,-55.8902 L 1311,-54.9284
 L 1311,-22 L 1310.91,-21.1684 L 1310.65,-20.373 L 1310.24,-19.6489 L 1309.68,-19.0274 L 1309,-18.5359
 L 1308.24,-18.1958 L 1307,-18 z
M 647.089,-18 L 645.981,-18.1566 L 645.206,-18.4711 L 644.514,-18.9397 L 643.934,-19.5421 L 643.492,-20.252
 L 643.207,-21.0382 L 643.092,-21.8665 L 643.151,-22.7006 L 643.383,-23.5041 L 643.777,-24.2418 L 644.315,-24.8816
 L 644.975,-25.3954 L 645.727,-25.7608 L 663.138,-32.0679 L 664.215,-32.2968 L 665.051,-32.2689 L 665.862,-32.0679
 L 683.273,-25.7608 L 684.262,-25.2361 L 684.883,-24.6765 L 685.375,-24 L 685.715,-23.2361 L 685.889,-22.4181
 L 685.889,-21.5819 L 685.715,-20.7639 L 685.375,-20 L 684.883,-19.3235 L 684.262,-18.7639 L 683.538,-18.3458
 L 682.742,-18.0874 L 681.911,-18 z
" stroke="black" fill="lightgray" stroke-width="0.5"/>
</svg>
