<?xml version="1.0" standalone="no"?>
<!DOCTYPE svg PUBLIC "-//W3C//DTD SVG 1.1//EN" "http://www.w3.org/Graphics/SVG/1.1/DTD/svg11.dtd">
<svg width="1552mm" height="80mm" viewBox="0 -80 1552 80" xmlns="http://www.w3.org/2000/svg" version="1.1">
<title>OpenSCAD Model</title>
<path d="
M 1552,-80 L 0,-80 L 0,-0 L 4.95,-0 L 4.95,-6 L 5.00572,-6.53017
 L 5.17046,-7.03717 L 5.437,-7.49884 L 5.79372,-7.895 L 6.22499,-8.20836 L 6.71201,-8.42519 L 7.23344,-8.53603
 L 7.76654,-8.53603 L 8.28798,-8.42519 L 8.77499,-8.20836 L 9.20627,-7.895 L 9.56299,-7.49884 L 9.82953,-7.03717
 L 9.99426,-6.53017 L 10.05,-6 L 10.05,-0 L 197.075,-0 L 197.075,-6 L 197.131,-6.53017
 L 197.295,-7.03717 L 197.562,-7.49884 L 197.919,-7.895 L 198.35,-8.20836 L 198.837,-8.42519 L 199.358,-8.53603
 L 199.892,-8.53603 L 200.413,-8.42519 L 200.9,-8.20836 L 201.331,-7.895 L 201.688,-7.49884 L 201.955,-7.03717
 L 202.119,-6.53017 L 202.175,-6 L 202.175,-0 L 389.2,-0 L 389.2,-6 L 389.256,-6.53017
 L 389.42,-7.03717 L 389.687,-7.49884 L 390.044,-7.895 L 390.475,-8.20836 L 390.962,-8.42519 L 391.483,-8.53603
 L 392.017,-8.53603 L 392.538,-8.42519 L 393.025,-8.20836 L 393.456,-7.895 L 393.813,-7.49884 L 394.08,-7.03717
 L 394.244,-6.53017 L 394.3,-6 L 394.3,-0 L 581.325,-0 L 581.325,-6 L 581.381,-6.53017
 L 581.545,-7.03717 L 581.812,-7.49884 L 582.169,-7.895 L 582.6,-8.20836 L 583.087,-8.42519 L 583.608,-8.53603
 L 584.142,-8.53603 L 584.663,-8.42519 L 585.15,-8.20836 L 585.581,-7.895 L 585.938,-7.49884 L 586.205,-7.03717
 L 586.369,-6.53017 L 586.425,-6 L 586.425,-0 L 773.45,-0 L 773.45,-6 L 773.506,-6.53017
 L 773.67,-7.03717 L 773.937,-7.49884 L 774.294,-7.895 L 774.725,-8.20836 L 775.212,-8.42519 L 775.733,-8.53603
 L 776.267,-8.53603 L 776.788,-8.42519 L 777.275,-8.20836 L 777.706,-7.895 L 778.063,-7.49884 L 778.33,-7.03717
 L 778.494,-6.53017 L 778.55,-6 L 778.55,-0 L 965.575,-0 L 965.575,-6 L 965.631,-6.53017
 L 965.795,-7.03717 L 966.062,-7.49884 L 966.419,-7.895 L 966.85,-8.20836 L 967.337,-8.42519 L 967.858,-8.53603
 L 968.392,-8.53603 L 968.913,-8.42519 L 969.4,-8.20836 L 969.831,-7.895 L 970.188,-7.49884 L 970.455,-7.03717
 L 970.619,-6.53017 L 970.675,-6 L 970.675,-0 L 1157.7,-0 L 1157.7,-6 L 1157.76,-6.53017
 L 1157.92,-7.03717 L 1158.19,-7.49884 L 1158.54,-7.895 L 1158.97,-8.20836 L 1159.46,-8.42519 L 1159.98,-8.53603
 L 1160.52,-8.53603 L 1161.04,-8.42519 L 1161.52,-8.20836 L 1161.96,-7.895 L 1162.31,-7.49884 L 1162.58,-7.03717
 L 1162.74,-6.53017 L 1162.8,-6 L 1162.8,-0 L 1349.82,-0 L 1349.82,-6 L 1349.88,-6.53017
 L 1350.05,-7.03717 L 1350.31,-7.49884 L 1350.67,-7.895 L 1351.1,-8.20836 L 1351.59,-8.42519 L 1352.11,-8.53603
 L 1352.64,-8.53603 L 1353.16,-8.42519 L 1353.65,-8.20836 L 1354.08,-7.895 L 1354.44,-7.49884 L 1354.7,-7.03717
 L 1354.87,-6.53017 L 1354.92,-6 L 1354.92,-0 L 1541.95,-0 L 1541.95,-6 L 1542.01,-6.53017
 L 1542.17,-7.03717 L 1542.44,-7.49884 L 1542.79,-7.895 L 1543.22,-8.20836 L 1543.71,-8.42519 L 1544.23,-8.53603
 L 1544.77,-8.53603 L 1545.29,-8.42519 L 1545.77,-8.20836 L 1546.21,-7.895 L 1546.56,-7.49884 L 1546.83,-7.03717
 L 1546.99,-6.53017 L 1547.05,-6 L 1547.05,-0 L 1552,-0 z
M 199.111,-55.607 L 198.602,-55.6875 L 198.105,-55.8208 L 197.624,-56.0054 L 197.165,-56.2392 L 196.733,-56.5196
 L 196.333,-56.8437 L 195.969,-57.2079 L 195.645,-57.6081 L 195.364,-58.04 L 195.13,-58.4989 L 194.946,-58.9796
 L 194.813,-59.4771 L 194.732,-59.9857 L 194.705,-60.5 L 194.732,-61.0143 L 194.813,-61.5229 L 194.946,-62.0204
 L 195.13,-62.5011 L 195.364,-62.96 L 195.645,-63.3919 L 195.969,-63.7921 L 196.333,-64.1563 L 196.733,-64.4804
 L 197.075,-64.7024 L 197.075,-74 L 197.131,-74.5302 L 197.295,-75.0372 L 197.562,-75.4988 L 197.919,-75.895
 L 198.35,-76.2084 L 198.837,-76.4252 L 199.358,-76.536 L 199.892,-76.536 L 200.413,-76.4252 L 200.9,-76.2084
 L 201.331,-75.895 L 201.688,-75.4988 L 201.955,-75.0372 L 202.119,-74.5302 L 202.175,-74 L 202.175,-64.7024
 L 202.517,-64.4804 L 202.917,-64.1563 L 203.281,-63.7921 L 203.605,-63.3919 L 203.886,-62.96 L 204.12,-62.5011
 L 204.304,-62.0204 L 204.437,-61.5229 L 204.518,-61.0143 L 204.545,-60.5 L 204.518,-59.9857 L 204.437,-59.4771
 L 204.304,-58.9796 L 204.12,-58.4989 L 203.886,-58.04 L 203.605,-57.6081 L 203.281,-57.2079 L 202.917,-56.8437
 L 202.517,-56.5196 L 202.085,-56.2392 L 201.626,-56.0054 L 201.145,-55.8208 L 200.648,-55.6875 L 200.139,-55.607
 L 199.625,-55.58 z
M 1159.74,-55.607 L 1159.23,-55.6875 L 1158.73,-55.8208 L 1158.25,-56.0054 L 1157.79,-56.2392 L 1157.36,-56.5196
 L 1156.96,-56.8437 L 1156.59,-57.2079 L 1156.27,-57.6081 L 1155.99,-58.04 L 1155.76,-58.4989 L 1155.57,-58.9796
 L 1155.44,-59.4771 L 1155.36,-59.9857 L 1155.33,-60.5 L 1155.36,-61.0143 L 1155.44,-61.5229 L 1155.57,-62.0204
 L 1155.76,-62.5011 L 1155.99,-62.96 L 1156.27,-63.3919 L 1156.59,-63.7921 L 1156.96,-64.1563 L 1157.36,-64.4804
 L 1157.7,-64.7024 L 1157.7,-74 L 1157.76,-74.5302 L 1157.92,-75.0372 L 1158.19,-75.4988 L 1158.54,-75.895
 L 1158.98,-76.2084 L 1159.46,-76.4252 L 1159.98,-76.536 L 1160.52,-76.536 L 1161.04,-76.4252 L 1161.52,-76.2084
 L 1161.96,-75.895 L 1162.31,-75.4988 L 1162.58,-75.0372 L 1162.74,-74.5302 L 1162.8,-74 L 1162.8,-64.7024
 L 1163.14,-64.4804 L 1163.54,-64.1563 L 1163.91,-63.7921 L 1164.23,-63.3919 L 1164.51,-62.96 L 1164.74,-62.5011
 L 1164.93,-62.0204 L 1165.06,-61.5229 L 1165.14,-61.0143 L 1165.17,-60.5 L 1165.14,-59.9857 L 1165.06,-59.4771
 L 1164.93,-58.9796 L 1164.74,-58.4989 L 1164.51,-58.04 L 1164.23,-57.6081 L 1163.91,-57.2079 L 1163.54,-56.8437
 L 1163.14,-56.5196 L 1162.71,-56.2392 L 1162.25,-56.0054 L 1161.77,-55.8208 L 1161.27,-55.6875 L 1160.76,-55.607
 L 1160.25,-55.58 z
M 967.611,-55.607 L 967.102,-55.6875 L 966.605,-55.8208 L 966.124,-56.0054 L 965.665,-56.2392 L 965.233,-56.5196
 L 964.833,-56.8437 L 964.469,-57.2079 L 964.145,-57.6081 L 963.864,-58.04 L 963.63,-58.4989 L 963.446,-58.9796
 L 963.313,-59.4771 L 963.232,-59.9857 L 963.205,-60.5 L 963.232,-61.0143 L 963.313,-61.5229 L 963.446,-62.0204
 L 963.63,-62.5011 L 963.864,-62.96 L 964.145,-63.3919 L 964.469,-63.7921 L 964.833,-64.1563 L 965.233,-64.4804
 L 965.575,-64.7024 L 965.575,-74 L 965.631,-74.5302 L 965.795,-75.0372 L 966.062,-75.4988 L 966.419,-75.895
 L 966.85,-76.2084 L 967.337,-76.4252 L 967.858,-76.536 L 968.392,-76.536 L 968.913,-76.4252 L 969.4,-76.2084
 L 969.831,-75.895 L 970.188,-75.4988 L 970.455,-75.0372 L 970.619,-74.5302 L 970.675,-74 L 970.675,-64.7024
 L 971.017,-64.4804 L 971.417,-64.1563 L 971.781,-63.7921 L 972.105,-63.3919 L 972.386,-62.96 L 972.62,-62.5011
 L 972.804,-62.0204 L 972.937,-61.5229 L 973.018,-61.0143 L 973.045,-60.5 L 973.018,-59.9857 L 972.937,-59.4771
 L 972.804,-58.9796 L 972.62,-58.4989 L 972.386,-58.04 L 972.105,-57.6081 L 971.781,-57.2079 L 971.417,-56.8437
 L 971.017,-56.5196 L 970.585,-56.2392 L 970.126,-56.0054 L 969.645,-55.8208 L 969.148,-55.6875 L 968.639,-55.607
 L 968.125,-55.58 z
M 6.98573,-55.607 L 6.47708,-55.6875 L 5.97964,-55.8208 L 5.49887,-56.0054 L 5.04001,-56.2392 L 4.60811,-56.5196
 L 4.20789,-56.8437 L 3.84373,-57.2079 L 3.51964,-57.6081 L 3.23917,-58.04 L 3.00537,-58.4989 L 2.82082,-58.9796
 L 2.68752,-59.4771 L 2.60696,-59.9857 L 2.58,-60.5 L 2.60696,-61.0143 L 2.68752,-61.5229 L 2.82082,-62.0204
 L 3.00537,-62.5011 L 3.23917,-62.96 L 3.51964,-63.3919 L 3.84373,-63.7921 L 4.20789,-64.1563 L 4.60811,-64.4804
 L 4.95001,-64.7024 L 4.95001,-74 L 5.00574,-74.5302 L 5.17047,-75.0372 L 5.43701,-75.4988 L 5.79373,-75.895
 L 6.22501,-76.2084 L 6.71202,-76.4252 L 7.23346,-76.536 L 7.76654,-76.536 L 8.28798,-76.4252 L 8.77499,-76.2084
 L 9.20627,-75.895 L 9.56299,-75.4988 L 9.82953,-75.0372 L 9.99426,-74.5302 L 10.05,-74 L 10.05,-64.7024
 L 10.3919,-64.4804 L 10.7921,-64.1563 L 11.1563,-63.7921 L 11.4804,-63.3919 L 11.7608,-62.96 L 11.9946,-62.5011
 L 12.1792,-62.0204 L 12.3125,-61.5229 L 12.393,-61.0143 L 12.42,-60.5 L 12.393,-59.9857 L 12.3125,-59.4771
 L 12.1792,-58.9796 L 11.9946,-58.4989 L 11.7608,-58.04 L 11.4804,-57.6081 L 11.1563,-57.2079 L 10.7921,-56.8437
 L 10.3919,-56.5196 L 9.95999,-56.2392 L 9.50113,-56.0054 L 9.02036,-55.8208 L 8.52292,-55.6875 L 8.01427,-55.607
 L 7.5,-55.58 z
M 775.486,-55.607 L 774.977,-55.6875 L 774.48,-55.8208 L 773.999,-56.0054 L 773.54,-56.2392 L 773.108,-56.5196
 L 772.708,-56.8437 L 772.344,-57.2079 L 772.02,-57.6081 L 771.739,-58.04 L 771.505,-58.4989 L 771.321,-58.9796
 L 771.188,-59.4771 L 771.107,-59.9857 L 771.08,-60.5 L 771.107,-61.0143 L 771.188,-61.5229 L 771.321,-62.0204
 L 771.505,-62.5011 L 771.739,-62.96 L 772.02,-63.3919 L 772.344,-63.7921 L 772.708,-64.1563 L 773.108,-64.4804
 L 773.45,-64.7024 L 773.45,-74 L 773.506,-74.5302 L 773.67,-75.0372 L 773.937,-75.4988 L 774.294,-75.895
 L 774.725,-76.2084 L 775.212,-76.4252 L 775.733,-76.536 L 776.267,-76.536 L 776.788,-76.4252 L 777.275,-76.2084
 L 777.706,-75.895 L 778.063,-75.4988 L 778.33,-75.0372 L 778.494,-74.5302 L 778.55,-74 L 778.55,-64.7024
 L 778.892,-64.4804 L 779.292,-64.1563 L 779.656,-63.7921 L 779.98,-63.3919 L 780.261,-62.96 L 780.495,-62.5011
 L 780.679,-62.0204 L 780.812,-61.5229 L 780.893,-61.0143 L 780.92,-60.5 L 780.893,-59.9857 L 780.812,-59.4771
 L 780.679,-58.9796 L 780.495,-58.4989 L 780.261,-58.04 L 779.98,-57.6081 L 779.656,-57.2079 L 779.292,-56.8437
 L 778.892,-56.5196 L 778.46,-56.2392 L 778.001,-56.0054 L 777.52,-55.8208 L 777.023,-55.6875 L 776.514,-55.607
 L 776,-55.58 z
M 1351.86,-55.607 L 1351.35,-55.6875 L 1350.85,-55.8208 L 1350.37,-56.0054 L 1349.92,-56.2392 L 1349.48,-56.5196
 L 1349.08,-56.8437 L 1348.72,-57.2079 L 1348.39,-57.6081 L 1348.11,-58.04 L 1347.88,-58.4989 L 1347.7,-58.9796
 L 1347.56,-59.4771 L 1347.48,-59.9857 L 1347.46,-60.5 L 1347.48,-61.0143 L 1347.56,-61.5229 L 1347.7,-62.0204
 L 1347.88,-62.5011 L 1348.11,-62.96 L 1348.39,-63.3919 L 1348.72,-63.7921 L 1349.08,-64.1563 L 1349.48,-64.4804
 L 1349.83,-64.7024 L 1349.83,-74 L 1349.88,-74.5302 L 1350.05,-75.0372 L 1350.31,-75.4988 L 1350.67,-75.895
 L 1351.1,-76.2084 L 1351.59,-76.4252 L 1352.11,-76.536 L 1352.64,-76.536 L 1353.16,-76.4252 L 1353.65,-76.2084
 L 1354.08,-75.895 L 1354.44,-75.4988 L 1354.7,-75.0372 L 1354.87,-74.5302 L 1354.92,-74 L 1354.92,-64.7024
 L 1355.27,-64.4804 L 1355.67,-64.1563 L 1356.03,-63.7921 L 1356.36,-63.3919 L 1356.64,-62.96 L 1356.87,-62.5011
 L 1357.05,-62.0204 L 1357.19,-61.5229 L 1357.27,-61.0143 L 1357.29,-60.5 L 1357.27,-59.9857 L 1357.19,-59.4771
 L 1357.05,-58.9796 L 1356.87,-58.4989 L 1356.64,-58.04 L 1356.36,-57.6081 L 1356.03,-57.2079 L 1355.67,-56.8437
 L 1355.27,-56.5196 L 1354.83,-56.2392 L 1354.38,-56.0054 L 1353.9,-55.8208 L 1353.4,-55.6875 L 1352.89,-55.607
 L 1352.38,-55.58 z
M 583.361,-55.607 L 582.852,-55.6875 L 582.355,-55.8208 L 581.874,-56.0054 L 581.415,-56.2392 L 580.983,-56.5196
 L 580.583,-56.8437 L 580.219,-57.2079 L 579.895,-57.6081 L 579.614,-58.04 L 579.38,-58.4989 L 579.196,-58.9796
 L 579.063,-59.4771 L 578.982,-59.9857 L 578.955,-60.5 L 578.982,-61.0143 L 579.063,-61.5229 L 579.196,-62.0204
 L 579.38,-62.5011 L 579.614,-62.96 L 579.895,-63.3919 L 580.219,-63.7921 L 580.583,-64.1563 L 580.983,-64.4804
 L 581.325,-64.7024 L 581.325,-74 L 581.381,-74.5302 L 581.545,-75.0372 L 581.812,-75.4988 L 582.169,-75.895
 L 582.6,-76.2084 L 583.087,-76.4252 L 583.608,-76.536 L 584.142,-76.536 L 584.663,-76.4252 L 585.15,-76.2084
 L 585.581,-75.895 L 585.938,-75.4988 L 586.205,-75.0372 L 586.369,-74.5302 L 586.425,-74 L 586.425,-64.7024
 L 586.767,-64.4804 L 587.167,-64.1563 L 587.531,-63.7921 L 587.855,-63.3919 L 588.136,-62.96 L 588.37,-62.5011
 L 588.554,-62.0204 L 588.687,-61.5229 L 588.768,-61.0143 L 588.795,-60.5 L 588.768,-59.9857 L 588.687,-59.4771
 L 588.554,-58.9796 L 588.37,-58.4989 L 588.136,-58.04 L 587.855,-57.6081 L 587.531,-57.2079 L 587.167,-56.8437
 L 586.767,-56.5196 L 586.335,-56.2392 L 585.876,-56.0054 L 585.395,-55.8208 L 584.898,-55.6875 L 584.389,-55.607
 L 583.875,-55.58 z
M 391.236,-55.607 L 390.727,-55.6875 L 390.23,-55.8208 L 389.749,-56.0054 L 389.29,-56.2392 L 388.858,-56.5196
 L 388.458,-56.8437 L 388.094,-57.2079 L 387.77,-57.6081 L 387.489,-58.04 L 387.255,-58.4989 L 387.071,-58.9796
 L 386.938,-59.4771 L 386.857,-59.9857 L 386.83,-60.5 L 386.857,-61.0143 L 386.938,-61.5229 L 387.071,-62.0204
 L 387.255,-62.5011 L 387.489,-62.96 L 387.77,-63.3919 L 388.094,-63.7921 L 388.458,-64.1563 L 388.858,-64.4804
 L 389.2,-64.7024 L 389.2,-74 L 389.256,-74.5302 L 389.42,-75.0372 L 389.687,-75.4988 L 390.044,-75.895
 L 390.475,-76.2084 L 390.962,-76.4252 L 391.483,-76.536 L 392.017,-76.536 L 392.538,-76.4252 L 393.025,-76.2084
 L 393.456,-75.895 L 393.813,-75.4988 L 394.08,-75.0372 L 394.244,-74.5302 L 394.3,-74 L 394.3,-64.7024
 L 394.642,-64.4804 L 395.042,-64.1563 L 395.406,-63.7921 L 395.73,-63.3919 L 396.011,-62.96 L 396.245,-62.5011
 L 396.429,-62.0204 L 396.562,-61.5229 L 396.643,-61.0143 L 396.67,-60.5 L 396.643,-59.9857 L 396.562,-59.4771
 L 396.429,-58.9796 L 396.245,-58.4989 L 396.011,-58.04 L 395.73,-57.6081 L 395.406,-57.2079 L 395.042,-56.8437
 L 394.642,-56.5196 L 394.21,-56.2392 L 393.751,-56.0054 L 393.27,-55.8208 L 392.773,-55.6875 L 392.264,-55.607
 L 391.75,-55.58 z
M 1543.99,-55.607 L 1543.48,-55.6875 L 1542.98,-55.8208 L 1542.5,-56.0054 L 1542.04,-56.2392 L 1541.61,-56.5196
 L 1541.21,-56.8437 L 1540.84,-57.2079 L 1540.52,-57.6081 L 1540.24,-58.04 L 1540.01,-58.4989 L 1539.82,-58.9796
 L 1539.69,-59.4771 L 1539.61,-59.9857 L 1539.58,-60.5 L 1539.61,-61.0143 L 1539.69,-61.5229 L 1539.82,-62.0204
 L 1540.01,-62.5011 L 1540.24,-62.96 L 1540.52,-63.3919 L 1540.84,-63.7921 L 1541.21,-64.1563 L 1541.61,-64.4804
 L 1541.95,-64.7024 L 1541.95,-74 L 1542.01,-74.5302 L 1542.17,-75.0372 L 1542.44,-75.4988 L 1542.79,-75.895
 L 1543.23,-76.2084 L 1543.71,-76.4252 L 1544.23,-76.536 L 1544.77,-76.536 L 1545.29,-76.4252 L 1545.77,-76.2084
 L 1546.21,-75.895 L 1546.56,-75.4988 L 1546.83,-75.0372 L 1546.99,-74.5302 L 1547.05,-74 L 1547.05,-64.7024
 L 1547.39,-64.4804 L 1547.79,-64.1563 L 1548.16,-63.7921 L 1548.48,-63.3919 L 1548.76,-62.96 L 1548.99,-62.5011
 L 1549.18,-62.0204 L 1549.31,-61.5229 L 1549.39,-61.0143 L 1549.42,-60.5 L 1549.39,-59.9857 L 1549.31,-59.4771
 L 1549.18,-58.9796 L 1548.99,-58.4989 L 1548.76,-58.04 L 1548.48,-57.6081 L 1548.16,-57.2079 L 1547.79,-56.8437
 L 1547.39,-56.5196 L 1546.96,-56.2392 L 1546.5,-56.0054 L 1546.02,-55.8208 L 1545.52,-55.6875 L 1545.01,-55.607
 L 1544.5,-55.58 z
M 378.229,-20.4209 L 377.415,-20.616 L 282.446,-54.2292 L 281.429,-54.7639 L 280.808,-55.3235 L 280.316,-56
 L 279.976,-56.7639 L 279.802,-57.5819 L 279.802,-58.4181 L 279.976,-59.2361 L 280.316,-60 L 280.808,-60.6765
 L 281.429,-61.2361 L 282.153,-61.6542 L 282.949,-61.9126 L 283.78,-62 L 378.75,-62 L 379.986,-61.8042
 L 380.75,-61.4641 L 381.427,-60.9726 L 381.986,-60.3511 L 382.404,-59.627 L 382.663,-58.8316 L 382.75,-58
 L 382.75,-24.3867 L 382.64,-23.4536 L 382.361,-22.6653 L 381.924,-21.9522 L 381.348,-21.3455 L 380.659,-20.8718
 L 379.887,-20.5516 L 379.064,-20.3991 z
M 570.354,-20.4209 L 569.54,-20.616 L 474.571,-54.2292 L 473.554,-54.7639 L 472.933,-55.3235 L 472.441,-56
 L 472.101,-56.7639 L 471.927,-57.5819 L 471.927,-58.4181 L 472.101,-59.2361 L 472.441,-60 L 472.933,-60.6765
 L 473.554,-61.2361 L 474.278,-61.6542 L 475.074,-61.9126 L 475.905,-62 L 570.875,-62 L 572.111,-61.8042
 L 572.875,-61.4641 L 573.552,-60.9726 L 574.111,-60.3511 L 574.529,-59.627 L 574.788,-58.8316 L 574.875,-58
 L 574.875,-24.3867 L 574.765,-23.4536 L 574.486,-22.6653 L 574.049,-21.9522 L 573.473,-21.3455 L 572.784,-20.8718
 L 572.012,-20.5516 L 571.189,-20.3991 z
M 1364.24,-20.5516 L 1363.47,-20.8718 L 1362.78,-21.3455 L 1362.2,-21.9522 L 1361.76,-22.6653 L 1361.49,-23.4536
 L 1361.38,-24.3867 L 1361.38,-58 L 1361.46,-58.8316 L 1361.72,-59.627 L 1362.14,-60.3511 L 1362.7,-60.9726
 L 1363.38,-61.4641 L 1364.14,-61.8042 L 1365.38,-62 L 1460.34,-62 L 1461.18,-61.9126 L 1461.97,-61.6542
 L 1462.7,-61.2361 L 1463.32,-60.6765 L 1463.81,-60 L 1464.15,-59.2361 L 1464.32,-58.4181 L 1464.32,-57.5819
 L 1464.15,-56.7639 L 1463.81,-56 L 1463.32,-55.3235 L 1462.7,-54.7639 L 1461.68,-54.2292 L 1366.71,-20.616
 L 1365.9,-20.4209 L 1365.06,-20.3991 z
M 762.479,-20.4209 L 761.665,-20.616 L 666.696,-54.2292 L 665.679,-54.7639 L 665.058,-55.3235 L 664.566,-56
 L 664.226,-56.7639 L 664.052,-57.5819 L 664.052,-58.4181 L 664.226,-59.2361 L 664.566,-60 L 665.058,-60.6765
 L 665.679,-61.2361 L 666.403,-61.6542 L 667.199,-61.9126 L 668.03,-62 L 763,-62 L 764.236,-61.8042
 L 765,-61.4641 L 765.677,-60.9726 L 766.236,-60.3511 L 766.654,-59.627 L 766.913,-58.8316 L 767,-58
 L 767,-24.3867 L 766.89,-23.4536 L 766.611,-22.6653 L 766.174,-21.9522 L 765.598,-21.3455 L 764.909,-20.8718
 L 764.137,-20.5516 L 763.314,-20.3991 z
M 186.104,-20.4209 L 185.29,-20.616 L 90.3206,-54.2292 L 89.304,-54.7639 L 88.6826,-55.3235 L 88.1911,-56
 L 87.8509,-56.7639 L 87.6771,-57.5819 L 87.6771,-58.4181 L 87.8509,-59.2361 L 88.1911,-60 L 88.6826,-60.6765
 L 89.304,-61.2361 L 90.0282,-61.6542 L 90.8235,-61.9126 L 91.6552,-62 L 186.625,-62 L 187.861,-61.8042
 L 188.625,-61.4641 L 189.302,-60.9726 L 189.861,-60.3511 L 190.279,-59.627 L 190.538,-58.8316 L 190.625,-58
 L 190.625,-24.3867 L 190.515,-23.4536 L 190.236,-22.6653 L 189.799,-21.9522 L 189.223,-21.3455 L 188.534,-20.8718
 L 187.762,-20.5516 L 186.939,-20.3991 z
M 787.863,-20.5516 L 787.091,-20.8718 L 786.402,-21.3455 L 785.826,-21.9522 L 785.389,-22.6653 L 785.11,-23.4536
 L 785,-24.3867 L 785,-58 L 785.087,-58.8316 L 785.346,-59.627 L 785.764,-60.3511 L 786.323,-60.9726
 L 787,-61.4641 L 787.764,-61.8042 L 789,-62 L 883.97,-62 L 884.801,-61.9126 L 885.597,-61.6542
 L 886.321,-61.2361 L 886.942,-60.6765 L 887.434,-60 L 887.774,-59.2361 L 887.948,-58.4181 L 887.948,-57.5819
 L 887.774,-56.7639 L 887.434,-56 L 886.942,-55.3235 L 886.321,-54.7639 L 885.304,-54.2292 L 790.335,-20.616
 L 789.521,-20.4209 L 788.686,-20.3991 z
M 979.988,-20.5516 L 979.216,-20.8718 L 978.527,-21.3455 L 977.951,-21.9522 L 977.514,-22.6653 L 977.235,-23.4536
 L 977.125,-24.3867 L 977.125,-58 L 977.212,-58.8316 L 977.471,-59.627 L 977.889,-60.3511 L 978.448,-60.9726
 L 979.125,-61.4641 L 979.889,-61.8042 L 981.125,-62 L 1076.09,-62 L 1076.93,-61.9126 L 1077.72,-61.6542
 L 1078.45,-61.2361 L 1079.07,-60.6765 L 1079.56,-60 L 1079.9,-59.2361 L 1080.07,-58.4181 L 1080.07,-57.5819
 L 1079.9,-56.7639 L 1079.56,-56 L 1079.07,-55.3235 L 1078.45,-54.7639 L 1077.43,-54.2292 L 982.46,-20.616
 L 981.646,-20.4209 L 980.811,-20.3991 z
M 1172.11,-20.5516 L 1171.34,-20.8718 L 1170.65,-21.3455 L 1170.08,-21.9522 L 1169.64,-22.6653 L 1169.36,-23.4536
 L 1169.25,-24.3867 L 1169.25,-58 L 1169.34,-58.8316 L 1169.6,-59.627 L 1170.01,-60.3511 L 1170.57,-60.9726
 L 1171.25,-61.4641 L 1172.01,-61.8042 L 1173.25,-62 L 1268.22,-62 L 1269.05,-61.9126 L 1269.85,-61.6542
 L 1270.57,-61.2361 L 1271.19,-60.6765 L 1271.68,-60 L 1272.02,-59.2361 L 1272.2,-58.4181 L 1272.2,-57.5819
 L 1272.02,-56.7639 L 1271.68,-56 L 1271.19,-55.3235 L 1270.57,-54.7639 L 1269.55,-54.2292 L 1174.58,-20.616
 L 1173.77,-20.4209 L 1172.94,-20.3991 z
M 212.625,-18 L 211.389,-18.1958 L 210.625,-18.5359 L 209.948,-19.0274 L 209.389,-19.6489 L 208.971,-20.373
 L 208.712,-21.1684 L 208.625,-22 L 208.625,-55.6133 L 208.735,-56.5464 L 209.014,-57.3347 L 209.451,-58.0478
 L 210.027,-58.6544 L 210.716,-59.1282 L 211.488,-59.4483 L 212.311,-59.6009 L 213.146,-59.5791 L 213.96,-59.384
 L 308.929,-25.7708 L 309.946,-25.2361 L 310.567,-24.6765 L 311.059,-24 L 311.399,-23.2361 L 311.573,-22.4181
 L 311.573,-21.5819 L 311.399,-20.7639 L 311.059,-20 L 310.567,-19.3235 L 309.946,-18.7639 L 309.222,-18.3458
 L 308.426,-18.0874 L 307.595,-18 z
M 404.75,-18 L 403.514,-18.1958 L 402.75,-18.5359 L 402.073,-19.0274 L 401.514,-19.6489 L 401.096,-20.373
 L 400.837,-21.1684 L 400.75,-22 L 400.75,-55.6133 L 400.86,-56.5464 L 401.139,-57.3347 L 401.576,-58.0478
 L 402.152,-58.6544 L 402.841,-59.1282 L 403.613,-59.4483 L 404.436,-59.6009 L 405.271,-59.5791 L 406.085,-59.384
 L 501.054,-25.7708 L 502.071,-25.2361 L 502.692,-24.6765 L 503.184,-24 L 503.524,-23.2361 L 503.698,-22.4181
 L 503.698,-21.5819 L 503.524,-20.7639 L 503.184,-20 L 502.692,-19.3235 L 502.071,-18.7639 L 501.347,-18.3458
 L 500.551,-18.0874 L 499.72,-18 z
M 596.875,-18 L 595.639,-18.1958 L 594.875,-18.5359 L 594.198,-19.0274 L 593.639,-19.6489 L 593.221,-20.373
 L 592.962,-21.1684 L 592.875,-22 L 592.875,-55.6133 L 592.985,-56.5464 L 593.264,-57.3347 L 593.701,-58.0478
 L 594.277,-58.6544 L 594.966,-59.1282 L 595.738,-59.4483 L 596.561,-59.6009 L 597.396,-59.5791 L 598.21,-59.384
 L 693.179,-25.7708 L 694.196,-25.2361 L 694.817,-24.6765 L 695.309,-24 L 695.649,-23.2361 L 695.823,-22.4181
 L 695.823,-21.5819 L 695.649,-20.7639 L 695.309,-20 L 694.817,-19.3235 L 694.196,-18.7639 L 693.472,-18.3458
 L 692.676,-18.0874 L 691.845,-18 z
M 860.155,-18 L 859.324,-18.0874 L 858.528,-18.3458 L 857.804,-18.7639 L 857.183,-19.3235 L 856.691,-20
 L 856.351,-20.7639 L 856.177,-21.5819 L 856.177,-22.4181 L 856.351,-23.2361 L 856.691,-24 L 857.183,-24.6765
 L 857.804,-25.2361 L 858.821,-25.7708 L 953.79,-59.384 L 954.604,-59.5791 L 955.439,-59.6009 L 956.262,-59.4483
 L 957.034,-59.1282 L 957.723,-58.6544 L 958.299,-58.0478 L 958.736,-57.3347 L 959.015,-56.5464 L 959.125,-55.6133
 L 959.125,-22 L 959.038,-21.1684 L 958.779,-20.373 L 958.361,-19.6489 L 957.802,-19.0274 L 957.125,-18.5359
 L 956.361,-18.1958 L 955.125,-18 z
M 1052.28,-18 L 1051.45,-18.0874 L 1050.65,-18.3458 L 1049.93,-18.7639 L 1049.31,-19.3235 L 1048.82,-20
 L 1048.48,-20.7639 L 1048.3,-21.5819 L 1048.3,-22.4181 L 1048.48,-23.2361 L 1048.82,-24 L 1049.31,-24.6765
 L 1049.93,-25.2361 L 1050.95,-25.7708 L 1145.92,-59.384 L 1146.73,-59.5791 L 1147.56,-59.6009 L 1148.39,-59.4483
 L 1149.16,-59.1282 L 1149.85,-58.6544 L 1150.42,-58.0478 L 1150.86,-57.3347 L 1151.14,-56.5464 L 1151.25,-55.6133
 L 1151.25,-22 L 1151.16,-21.1684 L 1150.9,-20.373 L 1150.49,-19.6489 L 1149.93,-19.0274 L 1149.25,-18.5359
 L 1148.49,-18.1958 L 1147.25,-18 z
M 1244.41,-18 L 1243.57,-18.0874 L 1242.78,-18.3458 L 1242.05,-18.7639 L 1241.43,-19.3235 L 1240.94,-20
 L 1240.6,-20.7639 L 1240.43,-21.5819 L 1240.43,-22.4181 L 1240.6,-23.2361 L 1240.94,-24 L 1241.43,-24.6765
 L 1242.05,-25.2361 L 1243.07,-25.7708 L 1338.04,-59.384 L 1338.85,-59.5791 L 1339.69,-59.6009 L 1340.51,-59.4483
 L 1341.28,-59.1282 L 1341.97,-58.6544 L 1342.55,-58.0478 L 1342.99,-57.3347 L 1343.26,-56.5464 L 1343.38,-55.6133
 L 1343.38,-22 L 1343.29,-21.1684 L 1343.03,-20.373 L 1342.61,-19.6489 L 1342.05,-19.0274 L 1341.38,-18.5359
 L 1340.61,-18.1958 L 1339.38,-18 z
M 1436.53,-18 L 1435.7,-18.0874 L 1434.9,-18.3458 L 1434.18,-18.7639 L 1433.56,-19.3235 L 1433.07,-20
 L 1432.73,-20.7639 L 1432.55,-21.5819 L 1432.55,-22.4181 L 1432.73,-23.2361 L 1433.07,-24 L 1433.56,-24.6765
 L 1434.18,-25.2361 L 1435.2,-25.7708 L 1528.67,-58.8531 L 1529.48,-59.0482 L 1530.31,-59.07 L 1531.14,-58.9174
 L 1531.91,-58.5973 L 1532.6,-58.1236 L 1533.17,-57.5169 L 1533.61,-56.8038 L 1533.89,-56.0155 L 1534,-55.0824
 L 1534,-22 L 1533.91,-21.1684 L 1533.65,-20.373 L 1533.24,-19.6489 L 1532.68,-19.0274 L 1532,-18.5359
 L 1531.24,-18.1958 L 1530,-18 z
M 22,-18 L 20.7639,-18.1958 L 20,-18.5359 L 19.3235,-19.0274 L 18.7639,-19.6489 L 18.3458,-20.373
 L 18.0874,-21.1684 L 18,-22 L 18,-55.0824 L 18.1104,-56.0155 L 18.3894,-56.8038 L 18.8262,-57.5169
 L 19.4017,-58.1236 L 20.0908,-58.5973 L 20.8633,-58.9174 L 21.6855,-59.07 L 22.5215,-59.0482 L 23.3346,-58.8531
 L 116.804,-25.7708 L 117.821,-25.2361 L 118.442,-24.6765 L 118.934,-24 L 119.274,-23.2361 L 119.448,-22.4181
 L 119.448,-21.5819 L 119.274,-20.7639 L 118.934,-20 L 118.442,-19.3235 L 117.821,-18.7639 L 117.097,-18.3458
 L 116.301,-18.0874 L 115.47,-18 z
" stroke="black" fill="lightgray" stroke-width="0.5"/>
</svg>
