<?xml version="1.0" standalone="no"?>
<!DOCTYPE svg PUBLIC "-//W3C//DTD SVG 1.1//EN" "http://www.w3.org/Graphics/SVG/1.1/DTD/svg11.dtd">
<svg width="1209mm" height="80mm" viewBox="0 -80 1209 80" xmlns="http://www.w3.org/2000/svg" version="1.1">
<title>OpenSCAD Model</title>
<path d="
M 1209,-80 L 0,-80 L 0,-0 L 4.95,-0 L 4.95,-6 L 5.00572,-6.53017
 L 5.17046,-7.03717 L 5.437,-7.49884 L 5.79372,-7.895 L 6.22499,-8.20836 L 6.71201,-8.42519 L 7.23344,-8.53603
 L 7.76654,-8.53603 L 8.28798,-8.42519 L 8.77499,-8.20836 L 9.20627,-7.895 L 9.56299,-7.49884 L 9.82953,-7.03717
 L 9.99426,-6.53017 L 10.05,-6 L 10.05,-0 L 175.521,-0 L 175.521,-6 L 175.577,-6.53017
 L 175.742,-7.03717 L 176.008,-7.49884 L 176.365,-7.895 L 176.796,-8.20836 L 177.283,-8.42519 L 177.805,-8.53603
 L 178.338,-8.53603 L 178.859,-8.42519 L 179.346,-8.20836 L 179.778,-7.895 L 180.134,-7.49884 L 180.401,-7.03717
 L 180.566,-6.53017 L 180.621,-6 L 180.621,-0 L 346.093,-0 L 346.093,-6 L 346.149,-6.53017
 L 346.313,-7.03717 L 346.58,-7.49884 L 346.937,-7.895 L 347.368,-8.20836 L 347.855,-8.42519 L 348.376,-8.53603
 L 348.909,-8.53603 L 349.431,-8.42519 L 349.918,-8.20836 L 350.349,-7.895 L 350.706,-7.49884 L 350.972,-7.03717
 L 351.137,-6.53017 L 351.193,-6 L 351.193,-0 L 516.664,-0 L 516.664,-6 L 516.72,-6.53017
 L 516.885,-7.03717 L 517.151,-7.49884 L 517.508,-7.895 L 517.939,-8.20836 L 518.426,-8.42519 L 518.948,-8.53603
 L 519.481,-8.53603 L 520.002,-8.42519 L 520.489,-8.20836 L 520.921,-7.895 L 521.277,-7.49884 L 521.544,-7.03717
 L 521.709,-6.53017 L 521.764,-6 L 521.764,-0 L 687.236,-0 L 687.236,-6 L 687.291,-6.53017
 L 687.456,-7.03717 L 687.723,-7.49884 L 688.079,-7.895 L 688.511,-8.20836 L 688.998,-8.42519 L 689.519,-8.53603
 L 690.052,-8.53603 L 690.574,-8.42519 L 691.061,-8.20836 L 691.492,-7.895 L 691.849,-7.49884 L 692.115,-7.03717
 L 692.28,-6.53017 L 692.336,-6 L 692.336,-0 L 857.807,-0 L 857.807,-6 L 857.863,-6.53017
 L 858.028,-7.03717 L 858.294,-7.49884 L 858.651,-7.895 L 859.082,-8.20836 L 859.569,-8.42519 L 860.091,-8.53603
 L 860.624,-8.53603 L 861.145,-8.42519 L 861.632,-8.20836 L 862.063,-7.895 L 862.42,-7.49884 L 862.687,-7.03717
 L 862.851,-6.53017 L 862.907,-6 L 862.907,-0 L 1028.38,-0 L 1028.38,-6 L 1028.43,-6.53017
 L 1028.6,-7.03717 L 1028.87,-7.49884 L 1029.22,-7.895 L 1029.65,-8.20836 L 1030.14,-8.42519 L 1030.66,-8.53603
 L 1031.2,-8.53603 L 1031.72,-8.42519 L 1032.2,-8.20836 L 1032.63,-7.895 L 1032.99,-7.49884 L 1033.26,-7.03717
 L 1033.42,-6.53017 L 1033.48,-6 L 1033.48,-0 L 1198.95,-0 L 1198.95,-6 L 1199.01,-6.53017
 L 1199.17,-7.03717 L 1199.44,-7.49884 L 1199.79,-7.895 L 1200.22,-8.20836 L 1200.71,-8.42519 L 1201.23,-8.53603
 L 1201.77,-8.53603 L 1202.29,-8.42519 L 1202.77,-8.20836 L 1203.21,-7.895 L 1203.56,-7.49884 L 1203.83,-7.03717
 L 1203.99,-6.53017 L 1204.05,-6 L 1204.05,-0 L 1209,-0 z
M 6.98573,-55.607 L 6.47708,-55.6875 L 5.97964,-55.8208 L 5.49887,-56.0054 L 5.04001,-56.2392 L 4.60811,-56.5196
 L 4.20789,-56.8437 L 3.84373,-57.2079 L 3.51964,-57.6081 L 3.23917,-58.04 L 3.00537,-58.4989 L 2.82082,-58.9796
 L 2.68752,-59.4771 L 2.60696,-59.9857 L 2.58,-60.5 L 2.60696,-61.0143 L 2.68752,-61.5229 L 2.82082,-62.0204
 L 3.00537,-62.5011 L 3.23917,-62.96 L 3.51964,-63.3919 L 3.84373,-63.7921 L 4.20789,-64.1563 L 4.60811,-64.4804
 L 4.95001,-64.7024 L 4.95001,-74 L 5.00574,-74.5302 L 5.17047,-75.0372 L 5.43701,-75.4988 L 5.79373,-75.895
 L 6.22501,-76.2084 L 6.71202,-76.4252 L 7.23346,-76.536 L 7.76654,-76.536 L 8.28798,-76.4252 L 8.77499,-76.2084
 L 9.20627,-75.895 L 9.56299,-75.4988 L 9.82953,-75.0372 L 9.99426,-74.5302 L 10.05,-74 L 10.05,-64.7024
 L 10.3919,-64.4804 L 10.7921,-64.1563 L 11.1563,-63.7921 L 11.4804,-63.3919 L 11.7608,-62.96 L 11.9946,-62.5011
 L 12.1792,-62.0204 L 12.3125,-61.5229 L 12.393,-61.0143 L 12.42,-60.5 L 12.393,-59.9857 L 12.3125,-59.4771
 L 12.1792,-58.9796 L 11.9946,-58.4989 L 11.7608,-58.04 L 11.4804,-57.6081 L 11.1563,-57.2079 L 10.7921,-56.8437
 L 10.3919,-56.5196 L 9.95999,-56.2392 L 9.50113,-56.0054 L 9.02036,-55.8208 L 8.52292,-55.6875 L 8.01427,-55.607
 L 7.5,-55.58 z
M 177.557,-55.607 L 177.049,-55.6875 L 176.551,-55.8208 L 176.07,-56.0054 L 175.611,-56.2392 L 175.18,-56.5196
 L 174.779,-56.8437 L 174.415,-57.2079 L 174.091,-57.6081 L 173.811,-58.04 L 173.577,-58.4989 L 173.392,-58.9796
 L 173.259,-59.4771 L 173.178,-59.9857 L 173.151,-60.5 L 173.178,-61.0143 L 173.259,-61.5229 L 173.392,-62.0204
 L 173.577,-62.5011 L 173.811,-62.96 L 174.091,-63.3919 L 174.415,-63.7921 L 174.779,-64.1563 L 175.18,-64.4804
 L 175.521,-64.7024 L 175.521,-74 L 175.577,-74.5302 L 175.742,-75.0372 L 176.008,-75.4988 L 176.365,-75.895
 L 176.796,-76.2084 L 177.283,-76.4252 L 177.805,-76.536 L 178.338,-76.536 L 178.859,-76.4252 L 179.346,-76.2084
 L 179.778,-75.895 L 180.134,-75.4988 L 180.401,-75.0372 L 180.566,-74.5302 L 180.621,-74 L 180.621,-64.7024
 L 180.963,-64.4804 L 181.364,-64.1563 L 181.728,-63.7921 L 182.052,-63.3919 L 182.332,-62.96 L 182.566,-62.5011
 L 182.751,-62.0204 L 182.884,-61.5229 L 182.964,-61.0143 L 182.991,-60.5 L 182.964,-59.9857 L 182.884,-59.4771
 L 182.751,-58.9796 L 182.566,-58.4989 L 182.332,-58.04 L 182.052,-57.6081 L 181.728,-57.2079 L 181.364,-56.8437
 L 180.963,-56.5196 L 180.531,-56.2392 L 180.073,-56.0054 L 179.592,-55.8208 L 179.094,-55.6875 L 178.586,-55.607
 L 178.071,-55.58 z
M 348.129,-55.607 L 347.62,-55.6875 L 347.122,-55.8208 L 346.642,-56.0054 L 346.183,-56.2392 L 345.751,-56.5196
 L 345.351,-56.8437 L 344.987,-57.2079 L 344.662,-57.6081 L 344.382,-58.04 L 344.148,-58.4989 L 343.964,-58.9796
 L 343.83,-59.4771 L 343.75,-59.9857 L 343.723,-60.5 L 343.75,-61.0143 L 343.83,-61.5229 L 343.964,-62.0204
 L 344.148,-62.5011 L 344.382,-62.96 L 344.662,-63.3919 L 344.987,-63.7921 L 345.351,-64.1563 L 345.751,-64.4804
 L 346.093,-64.7024 L 346.093,-74 L 346.149,-74.5302 L 346.313,-75.0372 L 346.58,-75.4988 L 346.937,-75.895
 L 347.368,-76.2084 L 347.855,-76.4252 L 348.376,-76.536 L 348.909,-76.536 L 349.431,-76.4252 L 349.918,-76.2084
 L 350.349,-75.895 L 350.706,-75.4988 L 350.972,-75.0372 L 351.137,-74.5302 L 351.193,-74 L 351.193,-64.7024
 L 351.535,-64.4804 L 351.935,-64.1563 L 352.299,-63.7921 L 352.623,-63.3919 L 352.904,-62.96 L 353.137,-62.5011
 L 353.322,-62.0204 L 353.455,-61.5229 L 353.536,-61.0143 L 353.563,-60.5 L 353.536,-59.9857 L 353.455,-59.4771
 L 353.322,-58.9796 L 353.137,-58.4989 L 352.904,-58.04 L 352.623,-57.6081 L 352.299,-57.2079 L 351.935,-56.8437
 L 351.535,-56.5196 L 351.103,-56.2392 L 350.644,-56.0054 L 350.163,-55.8208 L 349.666,-55.6875 L 349.157,-55.607
 L 348.643,-55.58 z
M 518.7,-55.607 L 518.191,-55.6875 L 517.694,-55.8208 L 517.213,-56.0054 L 516.754,-56.2392 L 516.322,-56.5196
 L 515.922,-56.8437 L 515.558,-57.2079 L 515.234,-57.6081 L 514.953,-58.04 L 514.72,-58.4989 L 514.535,-58.9796
 L 514.402,-59.4771 L 514.321,-59.9857 L 514.294,-60.5 L 514.321,-61.0143 L 514.402,-61.5229 L 514.535,-62.0204
 L 514.72,-62.5011 L 514.953,-62.96 L 515.234,-63.3919 L 515.558,-63.7921 L 515.922,-64.1563 L 516.322,-64.4804
 L 516.664,-64.7024 L 516.664,-74 L 516.72,-74.5302 L 516.885,-75.0372 L 517.151,-75.4988 L 517.508,-75.895
 L 517.939,-76.2084 L 518.426,-76.4252 L 518.948,-76.536 L 519.481,-76.536 L 520.002,-76.4252 L 520.489,-76.2084
 L 520.921,-75.895 L 521.277,-75.4988 L 521.544,-75.0372 L 521.709,-74.5302 L 521.764,-74 L 521.764,-64.7024
 L 522.106,-64.4804 L 522.506,-64.1563 L 522.871,-63.7921 L 523.195,-63.3919 L 523.475,-62.96 L 523.709,-62.5011
 L 523.893,-62.0204 L 524.027,-61.5229 L 524.107,-61.0143 L 524.134,-60.5 L 524.107,-59.9857 L 524.027,-59.4771
 L 523.893,-58.9796 L 523.709,-58.4989 L 523.475,-58.04 L 523.195,-57.6081 L 522.871,-57.2079 L 522.506,-56.8437
 L 522.106,-56.5196 L 521.674,-56.2392 L 521.215,-56.0054 L 520.735,-55.8208 L 520.237,-55.6875 L 519.729,-55.607
 L 519.214,-55.58 z
M 689.271,-55.607 L 688.763,-55.6875 L 688.265,-55.8208 L 687.785,-56.0054 L 687.326,-56.2392 L 686.894,-56.5196
 L 686.494,-56.8437 L 686.129,-57.2079 L 685.805,-57.6081 L 685.525,-58.04 L 685.291,-58.4989 L 685.107,-58.9796
 L 684.973,-59.4771 L 684.893,-59.9857 L 684.866,-60.5 L 684.893,-61.0143 L 684.973,-61.5229 L 685.107,-62.0204
 L 685.291,-62.5011 L 685.525,-62.96 L 685.805,-63.3919 L 686.129,-63.7921 L 686.494,-64.1563 L 686.894,-64.4804
 L 687.236,-64.7024 L 687.236,-74 L 687.291,-74.5302 L 687.456,-75.0372 L 687.723,-75.4988 L 688.079,-75.895
 L 688.511,-76.2084 L 688.998,-76.4252 L 689.519,-76.536 L 690.052,-76.536 L 690.574,-76.4252 L 691.061,-76.2084
 L 691.492,-75.895 L 691.849,-75.4988 L 692.115,-75.0372 L 692.28,-74.5302 L 692.336,-74 L 692.336,-64.7024
 L 692.678,-64.4804 L 693.078,-64.1563 L 693.442,-63.7921 L 693.766,-63.3919 L 694.047,-62.96 L 694.28,-62.5011
 L 694.465,-62.0204 L 694.598,-61.5229 L 694.679,-61.0143 L 694.706,-60.5 L 694.679,-59.9857 L 694.598,-59.4771
 L 694.465,-58.9796 L 694.28,-58.4989 L 694.047,-58.04 L 693.766,-57.6081 L 693.442,-57.2079 L 693.078,-56.8437
 L 692.678,-56.5196 L 692.246,-56.2392 L 691.787,-56.0054 L 691.306,-55.8208 L 690.809,-55.6875 L 690.3,-55.607
 L 689.786,-55.58 z
M 859.843,-55.607 L 859.334,-55.6875 L 858.837,-55.8208 L 858.356,-56.0054 L 857.897,-56.2392 L 857.465,-56.5196
 L 857.065,-56.8437 L 856.701,-57.2079 L 856.377,-57.6081 L 856.096,-58.04 L 855.863,-58.4989 L 855.678,-58.9796
 L 855.545,-59.4771 L 855.464,-59.9857 L 855.437,-60.5 L 855.464,-61.0143 L 855.545,-61.5229 L 855.678,-62.0204
 L 855.863,-62.5011 L 856.096,-62.96 L 856.377,-63.3919 L 856.701,-63.7921 L 857.065,-64.1563 L 857.465,-64.4804
 L 857.807,-64.7024 L 857.807,-74 L 857.863,-74.5302 L 858.028,-75.0372 L 858.294,-75.4988 L 858.651,-75.895
 L 859.082,-76.2084 L 859.569,-76.4252 L 860.091,-76.536 L 860.624,-76.536 L 861.145,-76.4252 L 861.632,-76.2084
 L 862.063,-75.895 L 862.42,-75.4988 L 862.687,-75.0372 L 862.851,-74.5302 L 862.907,-74 L 862.907,-64.7024
 L 863.249,-64.4804 L 863.649,-64.1563 L 864.013,-63.7921 L 864.337,-63.3919 L 864.618,-62.96 L 864.852,-62.5011
 L 865.036,-62.0204 L 865.17,-61.5229 L 865.25,-61.0143 L 865.277,-60.5 L 865.25,-59.9857 L 865.17,-59.4771
 L 865.036,-58.9796 L 864.852,-58.4989 L 864.618,-58.04 L 864.337,-57.6081 L 864.013,-57.2079 L 863.649,-56.8437
 L 863.249,-56.5196 L 862.817,-56.2392 L 862.358,-56.0054 L 861.877,-55.8208 L 861.38,-55.6875 L 860.871,-55.607
 L 860.357,-55.58 z
M 1030.41,-55.607 L 1029.91,-55.6875 L 1029.41,-55.8208 L 1028.93,-56.0054 L 1028.47,-56.2392 L 1028.04,-56.5196
 L 1027.64,-56.8437 L 1027.27,-57.2079 L 1026.95,-57.6081 L 1026.67,-58.04 L 1026.43,-58.4989 L 1026.25,-58.9796
 L 1026.12,-59.4771 L 1026.04,-59.9857 L 1026.01,-60.5 L 1026.04,-61.0143 L 1026.12,-61.5229 L 1026.25,-62.0204
 L 1026.43,-62.5011 L 1026.67,-62.96 L 1026.95,-63.3919 L 1027.27,-63.7921 L 1027.64,-64.1563 L 1028.04,-64.4804
 L 1028.38,-64.7024 L 1028.38,-74 L 1028.43,-74.5302 L 1028.6,-75.0372 L 1028.87,-75.4988 L 1029.22,-75.895
 L 1029.65,-76.2084 L 1030.14,-76.4252 L 1030.66,-76.536 L 1031.2,-76.536 L 1031.72,-76.4252 L 1032.2,-76.2084
 L 1032.63,-75.895 L 1032.99,-75.4988 L 1033.26,-75.0372 L 1033.42,-74.5302 L 1033.48,-74 L 1033.48,-64.7024
 L 1033.82,-64.4804 L 1034.22,-64.1563 L 1034.58,-63.7921 L 1034.91,-63.3919 L 1035.19,-62.96 L 1035.42,-62.5011
 L 1035.61,-62.0204 L 1035.74,-61.5229 L 1035.82,-61.0143 L 1035.85,-60.5 L 1035.82,-59.9857 L 1035.74,-59.4771
 L 1035.61,-58.9796 L 1035.42,-58.4989 L 1035.19,-58.04 L 1034.91,-57.6081 L 1034.58,-57.2079 L 1034.22,-56.8437
 L 1033.82,-56.5196 L 1033.39,-56.2392 L 1032.93,-56.0054 L 1032.45,-55.8208 L 1031.95,-55.6875 L 1031.44,-55.607
 L 1030.93,-55.58 z
M 1200.99,-55.607 L 1200.48,-55.6875 L 1199.98,-55.8208 L 1199.5,-56.0054 L 1199.04,-56.2392 L 1198.61,-56.5196
 L 1198.21,-56.8437 L 1197.84,-57.2079 L 1197.52,-57.6081 L 1197.24,-58.04 L 1197.01,-58.4989 L 1196.82,-58.9796
 L 1196.69,-59.4771 L 1196.61,-59.9857 L 1196.58,-60.5 L 1196.61,-61.0143 L 1196.69,-61.5229 L 1196.82,-62.0204
 L 1197.01,-62.5011 L 1197.24,-62.96 L 1197.52,-63.3919 L 1197.84,-63.7921 L 1198.21,-64.1563 L 1198.61,-64.4804
 L 1198.95,-64.7024 L 1198.95,-74 L 1199.01,-74.5302 L 1199.17,-75.0372 L 1199.44,-75.4988 L 1199.79,-75.895
 L 1200.23,-76.2084 L 1200.71,-76.4252 L 1201.23,-76.536 L 1201.77,-76.536 L 1202.29,-76.4252 L 1202.77,-76.2084
 L 1203.21,-75.895 L 1203.56,-75.4988 L 1203.83,-75.0372 L 1203.99,-74.5302 L 1204.05,-74 L 1204.05,-64.7024
 L 1204.39,-64.4804 L 1204.79,-64.1563 L 1205.16,-63.7921 L 1205.48,-63.3919 L 1205.76,-62.96 L 1205.99,-62.5011
 L 1206.18,-62.0204 L 1206.31,-61.5229 L 1206.39,-61.0143 L 1206.42,-60.5 L 1206.39,-59.9857 L 1206.31,-59.4771
 L 1206.18,-58.9796 L 1205.99,-58.4989 L 1205.76,-58.04 L 1205.48,-57.6081 L 1205.16,-57.2079 L 1204.79,-56.8437
 L 1204.39,-56.5196 L 1203.96,-56.2392 L 1203.5,-56.0054 L 1203.02,-55.8208 L 1202.52,-55.6875 L 1202.01,-55.607
 L 1201.5,-55.58 z
M 701.8,-21.2899 L 701.016,-21.5796 L 700.309,-22.026 L 699.71,-22.6096 L 699.245,-23.3051 L 698.936,-24.0818
 L 698.786,-25.1666 L 698.786,-58 L 698.873,-58.8316 L 699.132,-59.627 L 699.55,-60.3511 L 700.109,-60.9726
 L 700.786,-61.4641 L 701.55,-61.8042 L 702.786,-62 L 785.145,-62 L 785.977,-61.9126 L 786.772,-61.6542
 L 787.496,-61.2361 L 788.118,-60.6765 L 788.609,-60 L 788.949,-59.2361 L 789.123,-58.4181 L 789.123,-57.5819
 L 788.949,-56.7639 L 788.609,-56 L 788.118,-55.3235 L 787.496,-54.7639 L 786.626,-54.2844 L 704.267,-21.451
 L 703.462,-21.2242 L 702.628,-21.1697 z
M 603.824,-47.8902 L 603.019,-48.117 L 587.548,-54.2844 L 586.679,-54.7639 L 586.057,-55.3235 L 585.566,-56
 L 585.226,-56.7639 L 585.052,-57.5819 L 585.052,-58.4181 L 585.226,-59.2361 L 585.566,-60 L 586.057,-60.6765
 L 586.679,-61.2361 L 587.403,-61.6542 L 588.198,-61.9126 L 589.03,-62 L 619.97,-62 L 620.956,-61.8767
 L 621.74,-61.587 L 622.447,-61.1406 L 623.046,-60.557 L 623.511,-59.8615 L 623.82,-59.0848 L 623.962,-58.2606
 L 623.929,-57.425 L 623.723,-56.6146 L 623.353,-55.8647 L 622.835,-55.2081 L 622.192,-54.6736 L 621.451,-54.2844
 L 605.981,-48.117 L 605.486,-47.956 L 604.658,-47.8358 z
M 505.538,-21.2242 L 504.733,-21.451 L 422.374,-54.2844 L 421.504,-54.7639 L 420.882,-55.3235 L 420.391,-56
 L 420.051,-56.7639 L 419.877,-57.5819 L 419.877,-58.4181 L 420.051,-59.2361 L 420.391,-60 L 420.882,-60.6765
 L 421.504,-61.2361 L 422.228,-61.6542 L 423.023,-61.9126 L 423.855,-62 L 506.214,-62 L 507.45,-61.8042
 L 508.214,-61.4641 L 508.891,-60.9726 L 509.45,-60.3511 L 509.868,-59.627 L 510.127,-58.8316 L 510.214,-58
 L 510.214,-25.1666 L 510.064,-24.0818 L 509.755,-23.3051 L 509.29,-22.6096 L 508.691,-22.026 L 507.984,-21.5796
 L 507.2,-21.2899 L 506.372,-21.1697 z
M 334.966,-21.2242 L 334.162,-21.451 L 251.802,-54.2844 L 250.932,-54.7639 L 250.311,-55.3235 L 249.819,-56
 L 249.479,-56.7639 L 249.305,-57.5819 L 249.305,-58.4181 L 249.479,-59.2361 L 249.819,-60 L 250.311,-60.6765
 L 250.932,-61.2361 L 251.656,-61.6542 L 252.452,-61.9126 L 253.283,-62 L 335.643,-62 L 336.879,-61.8042
 L 337.643,-61.4641 L 338.319,-60.9726 L 338.879,-60.3511 L 339.297,-59.627 L 339.555,-58.8316 L 339.643,-58
 L 339.643,-25.1666 L 339.493,-24.0818 L 339.183,-23.3051 L 338.719,-22.6096 L 338.12,-22.026 L 337.413,-21.5796
 L 336.628,-21.2899 L 335.801,-21.1697 z
M 1042.94,-21.2899 L 1042.16,-21.5796 L 1041.45,-22.026 L 1040.85,-22.6096 L 1040.39,-23.3051 L 1040.08,-24.0818
 L 1039.93,-25.1666 L 1039.93,-58 L 1040.02,-58.8316 L 1040.27,-59.627 L 1040.69,-60.3511 L 1041.25,-60.9726
 L 1041.93,-61.4641 L 1042.69,-61.8042 L 1043.93,-62 L 1126.29,-62 L 1127.12,-61.9126 L 1127.91,-61.6542
 L 1128.64,-61.2361 L 1129.26,-60.6765 L 1129.75,-60 L 1130.09,-59.2361 L 1130.27,-58.4181 L 1130.27,-57.5819
 L 1130.09,-56.7639 L 1129.75,-56 L 1129.26,-55.3235 L 1128.64,-54.7639 L 1127.77,-54.2844 L 1045.41,-21.451
 L 1044.6,-21.2242 L 1043.77,-21.1697 z
M 164.395,-21.2242 L 163.59,-21.451 L 81.2308,-54.2844 L 80.3609,-54.7639 L 79.7394,-55.3235 L 79.2479,-56
 L 78.9078,-56.7639 L 78.7339,-57.5819 L 78.7339,-58.4181 L 78.9078,-59.2361 L 79.2479,-60 L 79.7394,-60.6765
 L 80.3609,-61.2361 L 81.0851,-61.6542 L 81.8804,-61.9126 L 82.712,-62 L 165.071,-62 L 166.307,-61.8042
 L 167.071,-61.4641 L 167.748,-60.9726 L 168.307,-60.3511 L 168.726,-59.627 L 168.984,-58.8316 L 169.071,-58
 L 169.071,-25.1666 L 168.922,-24.0818 L 168.612,-23.3051 L 168.147,-22.6096 L 167.549,-22.026 L 166.842,-21.5796
 L 166.057,-21.2899 L 165.229,-21.1697 z
M 872.372,-21.2899 L 871.587,-21.5796 L 870.88,-22.026 L 870.281,-22.6096 L 869.817,-23.3051 L 869.507,-24.0818
 L 869.357,-25.1666 L 869.357,-58 L 869.445,-58.8316 L 869.703,-59.627 L 870.121,-60.3511 L 870.681,-60.9726
 L 871.357,-61.4641 L 872.121,-61.8042 L 873.357,-62 L 955.717,-62 L 956.548,-61.9126 L 957.343,-61.6542
 L 958.068,-61.2361 L 958.689,-60.6765 L 959.181,-60 L 959.521,-59.2361 L 959.695,-58.4181 L 959.695,-57.5819
 L 959.521,-56.7639 L 959.181,-56 L 958.689,-55.3235 L 958.068,-54.7639 L 957.198,-54.2844 L 874.838,-21.451
 L 874.034,-21.2242 L 873.199,-21.1697 z
M 531.796,-19.0371 L 530.978,-19.211 L 530.214,-19.5511 L 529.538,-20.0426 L 528.978,-20.6641 L 528.56,-21.3883
 L 528.302,-22.1836 L 528.214,-23.0152 L 528.214,-56.9848 L 528.364,-58.0695 L 528.674,-58.8463 L 529.138,-59.5417
 L 529.737,-60.1254 L 530.444,-60.5718 L 531.229,-60.8614 L 532.056,-60.9816 L 532.891,-60.9272 L 533.696,-60.7004
 L 576.3,-43.7156 L 577.296,-43.1406 L 577.895,-42.557 L 578.359,-41.8615 L 578.669,-41.0848 L 578.81,-40.2606
 L 578.777,-39.425 L 578.571,-38.6146 L 578.201,-37.8647 L 577.683,-37.2081 L 577.04,-36.6736 L 576.3,-36.2844
 L 533.696,-19.2996 L 532.632,-19.0371 z
M 676.109,-19.0728 L 675.304,-19.2996 L 632.7,-36.2844 L 631.704,-36.8594 L 631.105,-37.443 L 630.641,-38.1385
 L 630.331,-38.9152 L 630.19,-39.7394 L 630.223,-40.575 L 630.429,-41.3854 L 630.799,-42.1353 L 631.317,-42.7919
 L 631.96,-43.3264 L 632.7,-43.7156 L 675.304,-60.7004 L 676.368,-60.9629 L 677.204,-60.9629 L 678.022,-60.789
 L 678.786,-60.4489 L 679.462,-59.9574 L 680.022,-59.3359 L 680.44,-58.6117 L 680.698,-57.8164 L 680.786,-56.9848
 L 680.786,-23.0152 L 680.636,-21.9305 L 680.326,-21.1537 L 679.862,-20.4583 L 679.263,-19.8746 L 678.556,-19.4282
 L 677.771,-19.1385 L 676.944,-19.0183 z
M 191.071,-18 L 189.835,-18.1958 L 189.071,-18.5359 L 188.395,-19.0274 L 187.835,-19.6489 L 187.417,-20.373
 L 187.159,-21.1684 L 187.071,-22 L 187.071,-54.8334 L 187.221,-55.9181 L 187.531,-56.6949 L 187.995,-57.3903
 L 188.594,-57.974 L 189.301,-58.4204 L 190.086,-58.71 L 190.913,-58.8302 L 191.748,-58.7758 L 192.553,-58.549
 L 274.912,-25.7156 L 275.782,-25.2361 L 276.403,-24.6765 L 276.895,-24 L 277.235,-23.2361 L 277.409,-22.4181
 L 277.409,-21.5819 L 277.235,-20.7639 L 276.895,-20 L 276.403,-19.3235 L 275.782,-18.7639 L 275.058,-18.3458
 L 274.262,-18.0874 L 273.431,-18 z
M 361.643,-18 L 360.407,-18.1958 L 359.643,-18.5359 L 358.966,-19.0274 L 358.407,-19.6489 L 357.989,-20.373
 L 357.73,-21.1684 L 357.643,-22 L 357.643,-54.8334 L 357.793,-55.9181 L 358.102,-56.6949 L 358.567,-57.3903
 L 359.166,-57.974 L 359.873,-58.4204 L 360.657,-58.71 L 361.485,-58.8302 L 362.319,-58.7758 L 363.124,-58.549
 L 445.483,-25.7156 L 446.353,-25.2361 L 446.975,-24.6765 L 447.466,-24 L 447.806,-23.2361 L 447.98,-22.4181
 L 447.98,-21.5819 L 447.806,-20.7639 L 447.466,-20 L 446.975,-19.3235 L 446.353,-18.7639 L 445.629,-18.3458
 L 444.834,-18.0874 L 444.002,-18 z
M 764.998,-18 L 764.166,-18.0874 L 763.371,-18.3458 L 762.647,-18.7639 L 762.025,-19.3235 L 761.534,-20
 L 761.194,-20.7639 L 761.02,-21.5819 L 761.02,-22.4181 L 761.194,-23.2361 L 761.534,-24 L 762.025,-24.6765
 L 762.647,-25.2361 L 763.516,-25.7156 L 845.876,-58.549 L 846.681,-58.7758 L 847.515,-58.8302 L 848.343,-58.71
 L 849.127,-58.4204 L 849.834,-57.974 L 850.433,-57.3903 L 850.898,-56.6949 L 851.207,-55.9181 L 851.357,-54.8334
 L 851.357,-22 L 851.27,-21.1684 L 851.011,-20.373 L 850.593,-19.6489 L 850.034,-19.0274 L 849.357,-18.5359
 L 848.593,-18.1958 L 847.357,-18 z
M 935.569,-18 L 934.738,-18.0874 L 933.942,-18.3458 L 933.218,-18.7639 L 932.597,-19.3235 L 932.105,-20
 L 931.765,-20.7639 L 931.591,-21.5819 L 931.591,-22.4181 L 931.765,-23.2361 L 932.105,-24 L 932.597,-24.6765
 L 933.218,-25.2361 L 934.088,-25.7156 L 1016.45,-58.549 L 1017.25,-58.7758 L 1018.09,-58.8302 L 1018.91,-58.71
 L 1019.7,-58.4204 L 1020.41,-57.974 L 1021,-57.3903 L 1021.47,-56.6949 L 1021.78,-55.9181 L 1021.93,-54.8334
 L 1021.93,-22 L 1021.84,-21.1684 L 1021.58,-20.373 L 1021.16,-19.6489 L 1020.61,-19.0274 L 1019.93,-18.5359
 L 1019.16,-18.1958 L 1017.93,-18 z
M 22,-18 L 20.7639,-18.1958 L 20,-18.5359 L 19.3235,-19.0274 L 18.7639,-19.6489 L 18.3458,-20.373
 L 18.0874,-21.1684 L 18,-22 L 18,-54.2354 L 18.1499,-55.3202 L 18.4596,-56.0969 L 18.924,-56.7924
 L 19.5228,-57.376 L 20.2299,-57.8224 L 21.0144,-58.1121 L 21.8419,-58.2323 L 22.6764,-58.1778 L 23.4813,-57.951
 L 104.341,-25.7156 L 105.211,-25.2361 L 105.832,-24.6765 L 106.323,-24 L 106.664,-23.2361 L 106.837,-22.4181
 L 106.837,-21.5819 L 106.664,-20.7639 L 106.323,-20 L 105.832,-19.3235 L 105.211,-18.7639 L 104.486,-18.3458
 L 103.691,-18.0874 L 102.859,-18 z
M 1106.14,-18 L 1105.31,-18.0874 L 1104.51,-18.3458 L 1103.79,-18.7639 L 1103.17,-19.3235 L 1102.68,-20
 L 1102.34,-20.7639 L 1102.16,-21.5819 L 1102.16,-22.4181 L 1102.34,-23.2361 L 1102.68,-24 L 1103.17,-24.6765
 L 1103.79,-25.2361 L 1104.66,-25.7156 L 1185.52,-57.951 L 1186.32,-58.1778 L 1187.16,-58.2323 L 1187.99,-58.1121
 L 1188.77,-57.8224 L 1189.48,-57.376 L 1190.08,-56.7924 L 1190.54,-56.0969 L 1190.85,-55.3202 L 1191,-54.2354
 L 1191,-22 L 1190.91,-21.1684 L 1190.65,-20.373 L 1190.24,-19.6489 L 1189.68,-19.0274 L 1189,-18.5359
 L 1188.24,-18.1958 L 1187,-18 z
M 589.03,-18 L 588.044,-18.1233 L 587.26,-18.413 L 586.553,-18.8594 L 585.954,-19.443 L 585.489,-20.1385
 L 585.18,-20.9152 L 585.038,-21.7394 L 585.071,-22.575 L 585.277,-23.3854 L 585.647,-24.1353 L 586.165,-24.7919
 L 586.808,-25.3264 L 587.548,-25.7156 L 603.019,-31.883 L 603.514,-32.044 L 604.342,-32.1642 L 605.176,-32.1098
 L 605.981,-31.883 L 621.451,-25.7156 L 622.321,-25.2361 L 622.943,-24.6765 L 623.434,-24 L 623.774,-23.2361
 L 623.948,-22.4181 L 623.948,-21.5819 L 623.774,-20.7639 L 623.434,-20 L 622.943,-19.3235 L 622.321,-18.7639
 L 621.597,-18.3458 L 620.802,-18.0874 L 619.97,-18 z
" stroke="black" fill="lightgray" stroke-width="0.5"/>
</svg>
