<?xml version="1.0" standalone="no"?>
<!DOCTYPE svg PUBLIC "-//W3C//DTD SVG 1.1//EN" "http://www.w3.org/Graphics/SVG/1.1/DTD/svg11.dtd">
<svg width="1246mm" height="80mm" viewBox="0 -80 1246 80" xmlns="http://www.w3.org/2000/svg" version="1.1">
<title>OpenSCAD Model</title>
<path d="
M 1246,-80 L 0,-80 L 0,-0 L 4.95,-0 L 4.95,-6 L 5.00572,-6.53017
 L 5.17046,-7.03717 L 5.437,-7.49884 L 5.79372,-7.895 L 6.22499,-8.20836 L 6.71201,-8.42519 L 7.23344,-8.53603
 L 7.76654,-8.53603 L 8.28798,-8.42519 L 8.77499,-8.20836 L 9.20627,-7.895 L 9.56299,-7.49884 L 9.82953,-7.03717
 L 9.99426,-6.53017 L 10.05,-6 L 10.05,-0 L 180.807,-0 L 180.807,-6 L 180.863,-6.53017
 L 181.028,-7.03717 L 181.294,-7.49884 L 181.651,-7.895 L 182.082,-8.20836 L 182.569,-8.42519 L 183.091,-8.53603
 L 183.624,-8.53603 L 184.145,-8.42519 L 184.632,-8.20836 L 185.063,-7.895 L 185.42,-7.49884 L 185.687,-7.03717
 L 185.851,-6.53017 L 185.907,-6 L 185.907,-0 L 356.664,-0 L 356.664,-6 L 356.72,-6.53017
 L 356.885,-7.03717 L 357.151,-7.49884 L 357.508,-7.895 L 357.939,-8.20836 L 358.426,-8.42519 L 358.948,-8.53603
 L 359.481,-8.53603 L 360.002,-8.42519 L 360.489,-8.20836 L 360.921,-7.895 L 361.277,-7.49884 L 361.544,-7.03717
 L 361.709,-6.53017 L 361.764,-6 L 361.764,-0 L 532.521,-0 L 532.521,-6 L 532.577,-6.53017
 L 532.742,-7.03717 L 533.008,-7.49884 L 533.365,-7.895 L 533.796,-8.20836 L 534.283,-8.42519 L 534.805,-8.53603
 L 535.338,-8.53603 L 535.859,-8.42519 L 536.346,-8.20836 L 536.778,-7.895 L 537.134,-7.49884 L 537.401,-7.03717
 L 537.566,-6.53017 L 537.621,-6 L 537.621,-0 L 708.379,-0 L 708.379,-6 L 708.434,-6.53017
 L 708.599,-7.03717 L 708.866,-7.49884 L 709.222,-7.895 L 709.654,-8.20836 L 710.141,-8.42519 L 710.662,-8.53603
 L 711.195,-8.53603 L 711.717,-8.42519 L 712.204,-8.20836 L 712.635,-7.895 L 712.992,-7.49884 L 713.258,-7.03717
 L 713.423,-6.53017 L 713.479,-6 L 713.479,-0 L 884.236,-0 L 884.236,-6 L 884.291,-6.53017
 L 884.456,-7.03717 L 884.723,-7.49884 L 885.079,-7.895 L 885.511,-8.20836 L 885.998,-8.42519 L 886.519,-8.53603
 L 887.052,-8.53603 L 887.574,-8.42519 L 888.061,-8.20836 L 888.492,-7.895 L 888.849,-7.49884 L 889.115,-7.03717
 L 889.28,-6.53017 L 889.336,-6 L 889.336,-0 L 1060.09,-0 L 1060.09,-6 L 1060.15,-6.53017
 L 1060.31,-7.03717 L 1060.58,-7.49884 L 1060.94,-7.895 L 1061.37,-8.20836 L 1061.85,-8.42519 L 1062.38,-8.53603
 L 1062.91,-8.53603 L 1063.43,-8.42519 L 1063.92,-8.20836 L 1064.35,-7.895 L 1064.71,-7.49884 L 1064.97,-7.03717
 L 1065.14,-6.53017 L 1065.19,-6 L 1065.19,-0 L 1235.95,-0 L 1235.95,-6 L 1236.01,-6.53017
 L 1236.17,-7.03717 L 1236.44,-7.49884 L 1236.79,-7.895 L 1237.22,-8.20836 L 1237.71,-8.42519 L 1238.23,-8.53603
 L 1238.77,-8.53603 L 1239.29,-8.42519 L 1239.77,-8.20836 L 1240.21,-7.895 L 1240.56,-7.49884 L 1240.83,-7.03717
 L 1240.99,-6.53017 L 1241.05,-6 L 1241.05,-0 L 1246,-0 z
M 6.98573,-55.607 L 6.47708,-55.6875 L 5.97964,-55.8208 L 5.49887,-56.0054 L 5.04001,-56.2392 L 4.60811,-56.5196
 L 4.20789,-56.8437 L 3.84373,-57.2079 L 3.51964,-57.6081 L 3.23917,-58.04 L 3.00537,-58.4989 L 2.82082,-58.9796
 L 2.68752,-59.4771 L 2.60696,-59.9857 L 2.58,-60.5 L 2.60696,-61.0143 L 2.68752,-61.5229 L 2.82082,-62.0204
 L 3.00537,-62.5011 L 3.23917,-62.96 L 3.51964,-63.3919 L 3.84373,-63.7921 L 4.20789,-64.1563 L 4.60811,-64.4804
 L 4.95001,-64.7024 L 4.95001,-74 L 5.00574,-74.5302 L 5.17047,-75.0372 L 5.43701,-75.4988 L 5.79373,-75.895
 L 6.22501,-76.2084 L 6.71202,-76.4252 L 7.23346,-76.536 L 7.76654,-76.536 L 8.28798,-76.4252 L 8.77499,-76.2084
 L 9.20627,-75.895 L 9.56299,-75.4988 L 9.82953,-75.0372 L 9.99426,-74.5302 L 10.05,-74 L 10.05,-64.7024
 L 10.3919,-64.4804 L 10.7921,-64.1563 L 11.1563,-63.7921 L 11.4804,-63.3919 L 11.7608,-62.96 L 11.9946,-62.5011
 L 12.1792,-62.0204 L 12.3125,-61.5229 L 12.393,-61.0143 L 12.42,-60.5 L 12.393,-59.9857 L 12.3125,-59.4771
 L 12.1792,-58.9796 L 11.9946,-58.4989 L 11.7608,-58.04 L 11.4804,-57.6081 L 11.1563,-57.2079 L 10.7921,-56.8437
 L 10.3919,-56.5196 L 9.95999,-56.2392 L 9.50113,-56.0054 L 9.02036,-55.8208 L 8.52292,-55.6875 L 8.01427,-55.607
 L 7.5,-55.58 z
M 182.843,-55.607 L 182.334,-55.6875 L 181.837,-55.8208 L 181.356,-56.0054 L 180.897,-56.2392 L 180.465,-56.5196
 L 180.065,-56.8437 L 179.701,-57.2079 L 179.377,-57.6081 L 179.096,-58.04 L 178.863,-58.4989 L 178.678,-58.9796
 L 178.545,-59.4771 L 178.464,-59.9857 L 178.437,-60.5 L 178.464,-61.0143 L 178.545,-61.5229 L 178.678,-62.0204
 L 178.863,-62.5011 L 179.096,-62.96 L 179.377,-63.3919 L 179.701,-63.7921 L 180.065,-64.1563 L 180.465,-64.4804
 L 180.807,-64.7024 L 180.807,-74 L 180.863,-74.5302 L 181.028,-75.0372 L 181.294,-75.4988 L 181.651,-75.895
 L 182.082,-76.2084 L 182.569,-76.4252 L 183.091,-76.536 L 183.624,-76.536 L 184.145,-76.4252 L 184.632,-76.2084
 L 185.063,-75.895 L 185.42,-75.4988 L 185.687,-75.0372 L 185.851,-74.5302 L 185.907,-74 L 185.907,-64.7024
 L 186.249,-64.4804 L 186.649,-64.1563 L 187.013,-63.7921 L 187.337,-63.3919 L 187.618,-62.96 L 187.852,-62.5011
 L 188.036,-62.0204 L 188.17,-61.5229 L 188.25,-61.0143 L 188.277,-60.5 L 188.25,-59.9857 L 188.17,-59.4771
 L 188.036,-58.9796 L 187.852,-58.4989 L 187.618,-58.04 L 187.337,-57.6081 L 187.013,-57.2079 L 186.649,-56.8437
 L 186.249,-56.5196 L 185.817,-56.2392 L 185.358,-56.0054 L 184.877,-55.8208 L 184.38,-55.6875 L 183.871,-55.607
 L 183.357,-55.58 z
M 358.7,-55.607 L 358.191,-55.6875 L 357.694,-55.8208 L 357.213,-56.0054 L 356.754,-56.2392 L 356.322,-56.5196
 L 355.922,-56.8437 L 355.558,-57.2079 L 355.234,-57.6081 L 354.953,-58.04 L 354.72,-58.4989 L 354.535,-58.9796
 L 354.402,-59.4771 L 354.321,-59.9857 L 354.294,-60.5 L 354.321,-61.0143 L 354.402,-61.5229 L 354.535,-62.0204
 L 354.72,-62.5011 L 354.953,-62.96 L 355.234,-63.3919 L 355.558,-63.7921 L 355.922,-64.1563 L 356.322,-64.4804
 L 356.664,-64.7024 L 356.664,-74 L 356.72,-74.5302 L 356.885,-75.0372 L 357.151,-75.4988 L 357.508,-75.895
 L 357.939,-76.2084 L 358.426,-76.4252 L 358.948,-76.536 L 359.481,-76.536 L 360.002,-76.4252 L 360.489,-76.2084
 L 360.921,-75.895 L 361.277,-75.4988 L 361.544,-75.0372 L 361.709,-74.5302 L 361.764,-74 L 361.764,-64.7024
 L 362.106,-64.4804 L 362.506,-64.1563 L 362.871,-63.7921 L 363.195,-63.3919 L 363.475,-62.96 L 363.709,-62.5011
 L 363.893,-62.0204 L 364.027,-61.5229 L 364.107,-61.0143 L 364.134,-60.5 L 364.107,-59.9857 L 364.027,-59.4771
 L 363.893,-58.9796 L 363.709,-58.4989 L 363.475,-58.04 L 363.195,-57.6081 L 362.871,-57.2079 L 362.506,-56.8437
 L 362.106,-56.5196 L 361.674,-56.2392 L 361.215,-56.0054 L 360.735,-55.8208 L 360.237,-55.6875 L 359.729,-55.607
 L 359.214,-55.58 z
M 534.557,-55.607 L 534.049,-55.6875 L 533.551,-55.8208 L 533.07,-56.0054 L 532.611,-56.2392 L 532.18,-56.5196
 L 531.779,-56.8437 L 531.415,-57.2079 L 531.091,-57.6081 L 530.811,-58.04 L 530.577,-58.4989 L 530.392,-58.9796
 L 530.259,-59.4771 L 530.178,-59.9857 L 530.151,-60.5 L 530.178,-61.0143 L 530.259,-61.5229 L 530.392,-62.0204
 L 530.577,-62.5011 L 530.811,-62.96 L 531.091,-63.3919 L 531.415,-63.7921 L 531.779,-64.1563 L 532.18,-64.4804
 L 532.521,-64.7024 L 532.521,-74 L 532.577,-74.5302 L 532.742,-75.0372 L 533.008,-75.4988 L 533.365,-75.895
 L 533.796,-76.2084 L 534.283,-76.4252 L 534.805,-76.536 L 535.338,-76.536 L 535.859,-76.4252 L 536.346,-76.2084
 L 536.778,-75.895 L 537.134,-75.4988 L 537.401,-75.0372 L 537.566,-74.5302 L 537.621,-74 L 537.621,-64.7024
 L 537.963,-64.4804 L 538.364,-64.1563 L 538.728,-63.7921 L 539.052,-63.3919 L 539.332,-62.96 L 539.566,-62.5011
 L 539.751,-62.0204 L 539.884,-61.5229 L 539.964,-61.0143 L 539.991,-60.5 L 539.964,-59.9857 L 539.884,-59.4771
 L 539.751,-58.9796 L 539.566,-58.4989 L 539.332,-58.04 L 539.052,-57.6081 L 538.728,-57.2079 L 538.364,-56.8437
 L 537.963,-56.5196 L 537.531,-56.2392 L 537.073,-56.0054 L 536.592,-55.8208 L 536.094,-55.6875 L 535.586,-55.607
 L 535.071,-55.58 z
M 710.414,-55.607 L 709.906,-55.6875 L 709.408,-55.8208 L 708.927,-56.0054 L 708.469,-56.2392 L 708.037,-56.5196
 L 707.636,-56.8437 L 707.272,-57.2079 L 706.948,-57.6081 L 706.668,-58.04 L 706.434,-58.4989 L 706.249,-58.9796
 L 706.116,-59.4771 L 706.036,-59.9857 L 706.009,-60.5 L 706.036,-61.0143 L 706.116,-61.5229 L 706.249,-62.0204
 L 706.434,-62.5011 L 706.668,-62.96 L 706.948,-63.3919 L 707.272,-63.7921 L 707.636,-64.1563 L 708.037,-64.4804
 L 708.379,-64.7024 L 708.379,-74 L 708.434,-74.5302 L 708.599,-75.0372 L 708.866,-75.4988 L 709.222,-75.895
 L 709.654,-76.2084 L 710.141,-76.4252 L 710.662,-76.536 L 711.195,-76.536 L 711.717,-76.4252 L 712.204,-76.2084
 L 712.635,-75.895 L 712.992,-75.4988 L 713.258,-75.0372 L 713.423,-74.5302 L 713.479,-74 L 713.479,-64.7024
 L 713.82,-64.4804 L 714.221,-64.1563 L 714.585,-63.7921 L 714.909,-63.3919 L 715.189,-62.96 L 715.423,-62.5011
 L 715.608,-62.0204 L 715.741,-61.5229 L 715.822,-61.0143 L 715.849,-60.5 L 715.822,-59.9857 L 715.741,-59.4771
 L 715.608,-58.9796 L 715.423,-58.4989 L 715.189,-58.04 L 714.909,-57.6081 L 714.585,-57.2079 L 714.221,-56.8437
 L 713.82,-56.5196 L 713.389,-56.2392 L 712.93,-56.0054 L 712.449,-55.8208 L 711.951,-55.6875 L 711.443,-55.607
 L 710.929,-55.58 z
M 886.271,-55.607 L 885.763,-55.6875 L 885.265,-55.8208 L 884.785,-56.0054 L 884.326,-56.2392 L 883.894,-56.5196
 L 883.494,-56.8437 L 883.129,-57.2079 L 882.805,-57.6081 L 882.525,-58.04 L 882.291,-58.4989 L 882.107,-58.9796
 L 881.973,-59.4771 L 881.893,-59.9857 L 881.866,-60.5 L 881.893,-61.0143 L 881.973,-61.5229 L 882.107,-62.0204
 L 882.291,-62.5011 L 882.525,-62.96 L 882.805,-63.3919 L 883.129,-63.7921 L 883.494,-64.1563 L 883.894,-64.4804
 L 884.236,-64.7024 L 884.236,-74 L 884.291,-74.5302 L 884.456,-75.0372 L 884.723,-75.4988 L 885.079,-75.895
 L 885.511,-76.2084 L 885.998,-76.4252 L 886.519,-76.536 L 887.052,-76.536 L 887.574,-76.4252 L 888.061,-76.2084
 L 888.492,-75.895 L 888.849,-75.4988 L 889.115,-75.0372 L 889.28,-74.5302 L 889.336,-74 L 889.336,-64.7024
 L 889.678,-64.4804 L 890.078,-64.1563 L 890.442,-63.7921 L 890.766,-63.3919 L 891.047,-62.96 L 891.28,-62.5011
 L 891.465,-62.0204 L 891.598,-61.5229 L 891.679,-61.0143 L 891.706,-60.5 L 891.679,-59.9857 L 891.598,-59.4771
 L 891.465,-58.9796 L 891.28,-58.4989 L 891.047,-58.04 L 890.766,-57.6081 L 890.442,-57.2079 L 890.078,-56.8437
 L 889.678,-56.5196 L 889.246,-56.2392 L 888.787,-56.0054 L 888.306,-55.8208 L 887.809,-55.6875 L 887.3,-55.607
 L 886.786,-55.58 z
M 1062.13,-55.607 L 1061.62,-55.6875 L 1061.12,-55.8208 L 1060.64,-56.0054 L 1060.18,-56.2392 L 1059.75,-56.5196
 L 1059.35,-56.8437 L 1058.99,-57.2079 L 1058.66,-57.6081 L 1058.38,-58.04 L 1058.15,-58.4989 L 1057.96,-58.9796
 L 1057.83,-59.4771 L 1057.75,-59.9857 L 1057.72,-60.5 L 1057.75,-61.0143 L 1057.83,-61.5229 L 1057.96,-62.0204
 L 1058.15,-62.5011 L 1058.38,-62.96 L 1058.66,-63.3919 L 1058.99,-63.7921 L 1059.35,-64.1563 L 1059.75,-64.4804
 L 1060.09,-64.7024 L 1060.09,-74 L 1060.15,-74.5302 L 1060.31,-75.0372 L 1060.58,-75.4988 L 1060.94,-75.895
 L 1061.37,-76.2084 L 1061.85,-76.4252 L 1062.38,-76.536 L 1062.91,-76.536 L 1063.43,-76.4252 L 1063.92,-76.2084
 L 1064.35,-75.895 L 1064.71,-75.4988 L 1064.97,-75.0372 L 1065.14,-74.5302 L 1065.19,-74 L 1065.19,-64.7024
 L 1065.53,-64.4804 L 1065.93,-64.1563 L 1066.3,-63.7921 L 1066.62,-63.3919 L 1066.9,-62.96 L 1067.14,-62.5011
 L 1067.32,-62.0204 L 1067.46,-61.5229 L 1067.54,-61.0143 L 1067.56,-60.5 L 1067.54,-59.9857 L 1067.46,-59.4771
 L 1067.32,-58.9796 L 1067.14,-58.4989 L 1066.9,-58.04 L 1066.62,-57.6081 L 1066.3,-57.2079 L 1065.93,-56.8437
 L 1065.53,-56.5196 L 1065.1,-56.2392 L 1064.64,-56.0054 L 1064.16,-55.8208 L 1063.67,-55.6875 L 1063.16,-55.607
 L 1062.64,-55.58 z
M 1237.99,-55.607 L 1237.48,-55.6875 L 1236.98,-55.8208 L 1236.5,-56.0054 L 1236.04,-56.2392 L 1235.61,-56.5196
 L 1235.21,-56.8437 L 1234.84,-57.2079 L 1234.52,-57.6081 L 1234.24,-58.04 L 1234.01,-58.4989 L 1233.82,-58.9796
 L 1233.69,-59.4771 L 1233.61,-59.9857 L 1233.58,-60.5 L 1233.61,-61.0143 L 1233.69,-61.5229 L 1233.82,-62.0204
 L 1234.01,-62.5011 L 1234.24,-62.96 L 1234.52,-63.3919 L 1234.84,-63.7921 L 1235.21,-64.1563 L 1235.61,-64.4804
 L 1235.95,-64.7024 L 1235.95,-74 L 1236.01,-74.5302 L 1236.17,-75.0372 L 1236.44,-75.4988 L 1236.79,-75.895
 L 1237.23,-76.2084 L 1237.71,-76.4252 L 1238.23,-76.536 L 1238.77,-76.536 L 1239.29,-76.4252 L 1239.77,-76.2084
 L 1240.21,-75.895 L 1240.56,-75.4988 L 1240.83,-75.0372 L 1240.99,-74.5302 L 1241.05,-74 L 1241.05,-64.7024
 L 1241.39,-64.4804 L 1241.79,-64.1563 L 1242.16,-63.7921 L 1242.48,-63.3919 L 1242.76,-62.96 L 1242.99,-62.5011
 L 1243.18,-62.0204 L 1243.31,-61.5229 L 1243.39,-61.0143 L 1243.42,-60.5 L 1243.39,-59.9857 L 1243.31,-59.4771
 L 1243.18,-58.9796 L 1242.99,-58.4989 L 1242.76,-58.04 L 1242.48,-57.6081 L 1242.16,-57.2079 L 1241.79,-56.8437
 L 1241.39,-56.5196 L 1240.96,-56.2392 L 1240.5,-56.0054 L 1240.02,-55.8208 L 1239.52,-55.6875 L 1239.01,-55.607
 L 1238.5,-55.58 z
M 722.903,-21.0813 L 722.121,-21.379 L 721.419,-21.8327 L 720.826,-22.4226 L 720.369,-23.1228 L 720.067,-23.9027
 L 719.929,-24.9475 L 719.929,-58 L 720.016,-58.8316 L 720.274,-59.627 L 720.693,-60.3511 L 721.252,-60.9726
 L 721.929,-61.4641 L 722.693,-61.8042 L 723.929,-62 L 809.407,-62 L 810.238,-61.9126 L 811.034,-61.6542
 L 811.758,-61.2361 L 812.379,-60.6765 L 812.871,-60 L 813.211,-59.2361 L 813.385,-58.4181 L 813.385,-57.5819
 L 813.211,-56.7639 L 812.871,-56 L 812.379,-55.3235 L 811.758,-54.7639 L 810.849,-54.2692 L 725.371,-21.2167
 L 724.564,-20.9983 L 723.729,-20.9525 z
M 622.365,-47.8298 L 621.557,-48.0482 L 605.469,-54.2692 L 604.561,-54.7639 L 603.939,-55.3235 L 603.448,-56
 L 603.107,-56.7639 L 602.934,-57.5819 L 602.934,-58.4181 L 603.107,-59.2361 L 603.448,-60 L 603.939,-60.6765
 L 604.561,-61.2361 L 605.285,-61.6542 L 606.08,-61.9126 L 606.912,-62 L 639.088,-62 L 640.114,-61.8662
 L 640.895,-61.5685 L 641.598,-61.1147 L 642.191,-60.5249 L 642.648,-59.8247 L 642.949,-59.0447 L 643.082,-58.2191
 L 643.041,-57.3839 L 642.826,-56.5757 L 642.448,-55.8297 L 641.924,-55.1785 L 641.275,-54.6507 L 640.531,-54.2692
 L 624.443,-48.0482 L 624.026,-47.9128 L 623.2,-47.784 z
M 521.436,-20.9983 L 520.629,-21.2167 L 435.151,-54.2692 L 434.242,-54.7639 L 433.621,-55.3235 L 433.129,-56
 L 432.789,-56.7639 L 432.615,-57.5819 L 432.615,-58.4181 L 432.789,-59.2361 L 433.129,-60 L 433.621,-60.6765
 L 434.242,-61.2361 L 434.966,-61.6542 L 435.762,-61.9126 L 436.593,-62 L 522.071,-62 L 523.307,-61.8042
 L 524.071,-61.4641 L 524.748,-60.9726 L 525.307,-60.3511 L 525.726,-59.627 L 525.984,-58.8316 L 526.071,-58
 L 526.071,-24.9475 L 525.933,-23.9027 L 525.631,-23.1228 L 525.174,-22.4226 L 524.581,-21.8327 L 523.879,-21.379
 L 523.097,-21.0813 L 522.271,-20.9525 z
M 345.579,-20.9983 L 344.772,-21.2167 L 259.293,-54.2692 L 258.385,-54.7639 L 257.763,-55.3235 L 257.272,-56
 L 256.932,-56.7639 L 256.758,-57.5819 L 256.758,-58.4181 L 256.932,-59.2361 L 257.272,-60 L 257.763,-60.6765
 L 258.385,-61.2361 L 259.109,-61.6542 L 259.904,-61.9126 L 260.736,-62 L 346.214,-62 L 347.45,-61.8042
 L 348.214,-61.4641 L 348.891,-60.9726 L 349.45,-60.3511 L 349.868,-59.627 L 350.127,-58.8316 L 350.214,-58
 L 350.214,-24.9475 L 350.075,-23.9027 L 349.774,-23.1228 L 349.317,-22.4226 L 348.724,-21.8327 L 348.021,-21.379
 L 347.24,-21.0813 L 346.414,-20.9525 z
M 1074.62,-21.0813 L 1073.84,-21.379 L 1073.13,-21.8327 L 1072.54,-22.4226 L 1072.08,-23.1228 L 1071.78,-23.9027
 L 1071.64,-24.9475 L 1071.64,-58 L 1071.73,-58.8316 L 1071.99,-59.627 L 1072.41,-60.3511 L 1072.97,-60.9726
 L 1073.64,-61.4641 L 1074.41,-61.8042 L 1075.64,-62 L 1161.12,-62 L 1161.95,-61.9126 L 1162.75,-61.6542
 L 1163.47,-61.2361 L 1164.09,-60.6765 L 1164.59,-60 L 1164.93,-59.2361 L 1165.1,-58.4181 L 1165.1,-57.5819
 L 1164.93,-56.7639 L 1164.59,-56 L 1164.09,-55.3235 L 1163.47,-54.7639 L 1162.56,-54.2692 L 1077.09,-21.2167
 L 1076.28,-20.9983 L 1075.44,-20.9525 z
M 169.722,-20.9983 L 168.915,-21.2167 L 83.4363,-54.2692 L 82.5277,-54.7639 L 81.9063,-55.3235 L 81.4148,-56
 L 81.0746,-56.7639 L 80.9008,-57.5819 L 80.9008,-58.4181 L 81.0746,-59.2361 L 81.4148,-60 L 81.9063,-60.6765
 L 82.5277,-61.2361 L 83.2519,-61.6542 L 84.0472,-61.9126 L 84.8789,-62 L 170.357,-62 L 171.593,-61.8042
 L 172.357,-61.4641 L 173.034,-60.9726 L 173.593,-60.3511 L 174.011,-59.627 L 174.27,-58.8316 L 174.357,-58
 L 174.357,-24.9475 L 174.218,-23.9027 L 173.917,-23.1228 L 173.46,-22.4226 L 172.867,-21.8327 L 172.164,-21.379
 L 171.383,-21.0813 L 170.557,-20.9525 z
M 898.76,-21.0813 L 897.979,-21.379 L 897.276,-21.8327 L 896.683,-22.4226 L 896.226,-23.1228 L 895.925,-23.9027
 L 895.786,-24.9475 L 895.786,-58 L 895.873,-58.8316 L 896.132,-59.627 L 896.55,-60.3511 L 897.109,-60.9726
 L 897.786,-61.4641 L 898.55,-61.8042 L 899.786,-62 L 985.264,-62 L 986.096,-61.9126 L 986.891,-61.6542
 L 987.615,-61.2361 L 988.237,-60.6765 L 988.728,-60 L 989.068,-59.2361 L 989.242,-58.4181 L 989.242,-57.5819
 L 989.068,-56.7639 L 988.728,-56 L 988.237,-55.3235 L 987.615,-54.7639 L 986.707,-54.2692 L 901.228,-21.2167
 L 900.421,-20.9983 L 899.586,-20.9525 z
M 547.653,-18.8278 L 546.835,-19.0016 L 546.071,-19.3418 L 545.395,-19.8333 L 544.835,-20.4547 L 544.417,-21.1789
 L 544.159,-21.9742 L 544.071,-22.8058 L 544.071,-57.1942 L 544.21,-58.2389 L 544.512,-59.0188 L 544.969,-59.719
 L 545.562,-60.3089 L 546.264,-60.7626 L 547.046,-61.0604 L 547.872,-61.1892 L 548.707,-61.1434 L 549.514,-60.925
 L 593.98,-43.7308 L 595.047,-43.1147 L 595.64,-42.5249 L 596.097,-41.8247 L 596.399,-41.0447 L 596.532,-40.2191
 L 596.49,-39.3839 L 596.276,-38.5757 L 595.898,-37.8297 L 595.373,-37.1785 L 594.725,-36.6507 L 593.98,-36.2692
 L 549.514,-19.075 L 548.49,-18.8278 z
M 697.293,-18.8566 L 696.486,-19.075 L 652.02,-36.2692 L 650.952,-36.8853 L 650.36,-37.4751 L 649.903,-38.1753
 L 649.601,-38.9553 L 649.468,-39.7809 L 649.51,-40.6161 L 649.724,-41.4243 L 650.102,-42.1703 L 650.627,-42.8215
 L 651.275,-43.3493 L 652.02,-43.7308 L 696.486,-60.925 L 697.51,-61.1723 L 698.347,-61.1723 L 699.165,-60.9984
 L 699.929,-60.6583 L 700.605,-60.1667 L 701.165,-59.5453 L 701.583,-58.8211 L 701.841,-58.0258 L 701.929,-57.1942
 L 701.929,-22.8058 L 701.79,-21.7611 L 701.488,-20.9811 L 701.031,-20.2809 L 700.438,-19.6911 L 699.736,-19.2374
 L 698.954,-18.9396 L 698.128,-18.8108 z
M 196.357,-18 L 195.121,-18.1958 L 194.357,-18.5359 L 193.681,-19.0274 L 193.121,-19.6489 L 192.703,-20.373
 L 192.445,-21.1684 L 192.357,-22 L 192.357,-55.0525 L 192.496,-56.0972 L 192.798,-56.8772 L 193.255,-57.5774
 L 193.847,-58.1673 L 194.55,-58.621 L 195.331,-58.9187 L 196.158,-59.0475 L 196.993,-59.0017 L 197.8,-58.7833
 L 283.278,-25.7308 L 284.187,-25.2361 L 284.808,-24.6765 L 285.299,-24 L 285.64,-23.2361 L 285.813,-22.4181
 L 285.813,-21.5819 L 285.64,-20.7639 L 285.299,-20 L 284.808,-19.3235 L 284.187,-18.7639 L 283.462,-18.3458
 L 282.667,-18.0874 L 281.835,-18 z
M 372.214,-18 L 370.978,-18.1958 L 370.214,-18.5359 L 369.538,-19.0274 L 368.978,-19.6489 L 368.56,-20.373
 L 368.302,-21.1684 L 368.214,-22 L 368.214,-55.0525 L 368.353,-56.0972 L 368.655,-56.8772 L 369.112,-57.5774
 L 369.705,-58.1673 L 370.407,-58.621 L 371.188,-58.9187 L 372.015,-59.0475 L 372.85,-59.0017 L 373.657,-58.7833
 L 459.135,-25.7308 L 460.044,-25.2361 L 460.665,-24.6765 L 461.157,-24 L 461.497,-23.2361 L 461.671,-22.4181
 L 461.671,-21.5819 L 461.497,-20.7639 L 461.157,-20 L 460.665,-19.3235 L 460.044,-18.7639 L 459.319,-18.3458
 L 458.524,-18.0874 L 457.693,-18 z
M 788.307,-18 L 787.476,-18.0874 L 786.68,-18.3458 L 785.956,-18.7639 L 785.335,-19.3235 L 784.843,-20
 L 784.503,-20.7639 L 784.329,-21.5819 L 784.329,-22.4181 L 784.503,-23.2361 L 784.843,-24 L 785.335,-24.6765
 L 785.956,-25.2361 L 786.865,-25.7308 L 872.343,-58.7833 L 873.15,-59.0017 L 873.985,-59.0475 L 874.812,-58.9187
 L 875.593,-58.621 L 876.295,-58.1673 L 876.888,-57.5774 L 877.345,-56.8772 L 877.647,-56.0972 L 877.786,-55.0525
 L 877.786,-22 L 877.698,-21.1684 L 877.44,-20.373 L 877.022,-19.6489 L 876.462,-19.0274 L 875.786,-18.5359
 L 875.022,-18.1958 L 873.786,-18 z
M 964.165,-18 L 963.333,-18.0874 L 962.538,-18.3458 L 961.813,-18.7639 L 961.192,-19.3235 L 960.701,-20
 L 960.36,-20.7639 L 960.187,-21.5819 L 960.187,-22.4181 L 960.36,-23.2361 L 960.701,-24 L 961.192,-24.6765
 L 961.813,-25.2361 L 962.722,-25.7308 L 1048.2,-58.7833 L 1049.01,-59.0017 L 1049.84,-59.0475 L 1050.67,-58.9187
 L 1051.45,-58.621 L 1052.15,-58.1673 L 1052.75,-57.5774 L 1053.2,-56.8772 L 1053.5,-56.0972 L 1053.64,-55.0525
 L 1053.64,-22 L 1053.56,-21.1684 L 1053.3,-20.373 L 1052.88,-19.6489 L 1052.32,-19.0274 L 1051.64,-18.5359
 L 1050.88,-18.1958 L 1049.64,-18 z
M 22,-18 L 20.7639,-18.1958 L 20,-18.5359 L 19.3235,-19.0274 L 18.7639,-19.6489 L 18.3458,-20.373
 L 18.0874,-21.1684 L 18,-22 L 18,-54.4725 L 18.1388,-55.5172 L 18.4404,-56.2972 L 18.8976,-56.9974
 L 19.4903,-57.5872 L 20.1928,-58.041 L 20.9742,-58.3387 L 21.8004,-58.4675 L 22.6354,-58.4217 L 23.4426,-58.2033
 L 107.421,-25.7308 L 108.329,-25.2361 L 108.951,-24.6765 L 109.442,-24 L 109.782,-23.2361 L 109.956,-22.4181
 L 109.956,-21.5819 L 109.782,-20.7639 L 109.442,-20 L 108.951,-19.3235 L 108.329,-18.7639 L 107.605,-18.3458
 L 106.81,-18.0874 L 105.978,-18 z
M 1140.02,-18 L 1139.19,-18.0874 L 1138.39,-18.3458 L 1137.67,-18.7639 L 1137.05,-19.3235 L 1136.56,-20
 L 1136.22,-20.7639 L 1136.04,-21.5819 L 1136.04,-22.4181 L 1136.22,-23.2361 L 1136.56,-24 L 1137.05,-24.6765
 L 1137.67,-25.2361 L 1138.58,-25.7308 L 1222.56,-58.2033 L 1223.36,-58.4217 L 1224.2,-58.4675 L 1225.03,-58.3387
 L 1225.81,-58.041 L 1226.51,-57.5872 L 1227.1,-56.9974 L 1227.56,-56.2972 L 1227.86,-55.5172 L 1228,-54.4725
 L 1228,-22 L 1227.91,-21.1684 L 1227.65,-20.373 L 1227.24,-19.6489 L 1226.68,-19.0274 L 1226,-18.5359
 L 1225.24,-18.1958 L 1224,-18 z
M 606.912,-18 L 605.886,-18.1338 L 605.105,-18.4315 L 604.402,-18.8853 L 603.809,-19.4751 L 603.352,-20.1753
 L 603.051,-20.9553 L 602.918,-21.7809 L 602.959,-22.6161 L 603.174,-23.4243 L 603.552,-24.1703 L 604.076,-24.8215
 L 604.725,-25.3493 L 605.469,-25.7308 L 621.557,-31.9518 L 621.974,-32.0872 L 622.8,-32.216 L 623.635,-32.1702
 L 624.443,-31.9518 L 640.531,-25.7308 L 641.439,-25.2361 L 642.061,-24.6765 L 642.552,-24 L 642.892,-23.2361
 L 643.066,-22.4181 L 643.066,-21.5819 L 642.892,-20.7639 L 642.552,-20 L 642.061,-19.3235 L 641.439,-18.7639
 L 640.715,-18.3458 L 639.92,-18.0874 L 639.088,-18 z
" stroke="black" fill="lightgray" stroke-width="0.5"/>
</svg>
