<?xml version="1.0" standalone="no"?>
<!DOCTYPE svg PUBLIC "-//W3C//DTD SVG 1.1//EN" "http://www.w3.org/Graphics/SVG/1.1/DTD/svg11.dtd">
<svg width="1332mm" height="80mm" viewBox="0 -80 1332 80" xmlns="http://www.w3.org/2000/svg" version="1.1">
<title>OpenSCAD Model</title>
<path d="
M 1332,-80 L 0,-80 L 0,-0 L 4.95,-0 L 4.95,-6 L 5.00572,-6.53017
 L 5.17046,-7.03717 L 5.437,-7.49884 L 5.79372,-7.895 L 6.22499,-8.20836 L 6.71201,-8.42519 L 7.23344,-8.53603
 L 7.76654,-8.53603 L 8.28798,-8.42519 L 8.77499,-8.20836 L 9.20627,-7.895 L 9.56299,-7.49884 L 9.82953,-7.03717
 L 9.99426,-6.53017 L 10.05,-6 L 10.05,-0 L 193.093,-0 L 193.093,-6 L 193.149,-6.53017
 L 193.313,-7.03717 L 193.58,-7.49884 L 193.937,-7.895 L 194.368,-8.20836 L 194.855,-8.42519 L 195.376,-8.53603
 L 195.909,-8.53603 L 196.431,-8.42519 L 196.918,-8.20836 L 197.349,-7.895 L 197.706,-7.49884 L 197.972,-7.03717
 L 198.137,-6.53017 L 198.193,-6 L 198.193,-0 L 381.236,-0 L 381.236,-6 L 381.291,-6.53017
 L 381.456,-7.03717 L 381.723,-7.49884 L 382.079,-7.895 L 382.511,-8.20836 L 382.998,-8.42519 L 383.519,-8.53603
 L 384.052,-8.53603 L 384.574,-8.42519 L 385.061,-8.20836 L 385.492,-7.895 L 385.849,-7.49884 L 386.115,-7.03717
 L 386.28,-6.53017 L 386.336,-6 L 386.336,-0 L 569.379,-0 L 569.379,-6 L 569.434,-6.53017
 L 569.599,-7.03717 L 569.866,-7.49884 L 570.222,-7.895 L 570.654,-8.20836 L 571.141,-8.42519 L 571.662,-8.53603
 L 572.195,-8.53603 L 572.717,-8.42519 L 573.204,-8.20836 L 573.635,-7.895 L 573.992,-7.49884 L 574.258,-7.03717
 L 574.423,-6.53017 L 574.479,-6 L 574.479,-0 L 757.521,-0 L 757.521,-6 L 757.577,-6.53017
 L 757.742,-7.03717 L 758.008,-7.49884 L 758.365,-7.895 L 758.796,-8.20836 L 759.283,-8.42519 L 759.805,-8.53603
 L 760.338,-8.53603 L 760.859,-8.42519 L 761.346,-8.20836 L 761.778,-7.895 L 762.134,-7.49884 L 762.401,-7.03717
 L 762.566,-6.53017 L 762.621,-6 L 762.621,-0 L 945.664,-0 L 945.664,-6 L 945.72,-6.53017
 L 945.885,-7.03717 L 946.151,-7.49884 L 946.508,-7.895 L 946.939,-8.20836 L 947.426,-8.42519 L 947.948,-8.53603
 L 948.481,-8.53603 L 949.002,-8.42519 L 949.489,-8.20836 L 949.921,-7.895 L 950.277,-7.49884 L 950.544,-7.03717
 L 950.709,-6.53017 L 950.764,-6 L 950.764,-0 L 1133.81,-0 L 1133.81,-6 L 1133.86,-6.53017
 L 1134.03,-7.03717 L 1134.29,-7.49884 L 1134.65,-7.895 L 1135.08,-8.20836 L 1135.57,-8.42519 L 1136.09,-8.53603
 L 1136.62,-8.53603 L 1137.15,-8.42519 L 1137.63,-8.20836 L 1138.06,-7.895 L 1138.42,-7.49884 L 1138.69,-7.03717
 L 1138.85,-6.53017 L 1138.91,-6 L 1138.91,-0 L 1321.95,-0 L 1321.95,-6 L 1322.01,-6.53017
 L 1322.17,-7.03717 L 1322.44,-7.49884 L 1322.79,-7.895 L 1323.22,-8.20836 L 1323.71,-8.42519 L 1324.23,-8.53603
 L 1324.77,-8.53603 L 1325.29,-8.42519 L 1325.77,-8.20836 L 1326.21,-7.895 L 1326.56,-7.49884 L 1326.83,-7.03717
 L 1326.99,-6.53017 L 1327.05,-6 L 1327.05,-0 L 1332,-0 z
M 6.98573,-55.607 L 6.47708,-55.6875 L 5.97964,-55.8208 L 5.49887,-56.0054 L 5.04001,-56.2392 L 4.60811,-56.5196
 L 4.20789,-56.8437 L 3.84373,-57.2079 L 3.51964,-57.6081 L 3.23917,-58.04 L 3.00537,-58.4989 L 2.82082,-58.9796
 L 2.68752,-59.4771 L 2.60696,-59.9857 L 2.58,-60.5 L 2.60696,-61.0143 L 2.68752,-61.5229 L 2.82082,-62.0204
 L 3.00537,-62.5011 L 3.23917,-62.96 L 3.51964,-63.3919 L 3.84373,-63.7921 L 4.20789,-64.1563 L 4.60811,-64.4804
 L 4.95001,-64.7024 L 4.95001,-74 L 5.00574,-74.5302 L 5.17047,-75.0372 L 5.43701,-75.4988 L 5.79373,-75.895
 L 6.22501,-76.2084 L 6.71202,-76.4252 L 7.23346,-76.536 L 7.76654,-76.536 L 8.28798,-76.4252 L 8.77499,-76.2084
 L 9.20627,-75.895 L 9.56299,-75.4988 L 9.82953,-75.0372 L 9.99426,-74.5302 L 10.05,-74 L 10.05,-64.7024
 L 10.3919,-64.4804 L 10.7921,-64.1563 L 11.1563,-63.7921 L 11.4804,-63.3919 L 11.7608,-62.96 L 11.9946,-62.5011
 L 12.1792,-62.0204 L 12.3125,-61.5229 L 12.393,-61.0143 L 12.42,-60.5 L 12.393,-59.9857 L 12.3125,-59.4771
 L 12.1792,-58.9796 L 11.9946,-58.4989 L 11.7608,-58.04 L 11.4804,-57.6081 L 11.1563,-57.2079 L 10.7921,-56.8437
 L 10.3919,-56.5196 L 9.95999,-56.2392 L 9.50113,-56.0054 L 9.02036,-55.8208 L 8.52292,-55.6875 L 8.01427,-55.607
 L 7.5,-55.58 z
M 195.129,-55.607 L 194.62,-55.6875 L 194.122,-55.8208 L 193.642,-56.0054 L 193.183,-56.2392 L 192.751,-56.5196
 L 192.351,-56.8437 L 191.987,-57.2079 L 191.662,-57.6081 L 191.382,-58.04 L 191.148,-58.4989 L 190.964,-58.9796
 L 190.83,-59.4771 L 190.75,-59.9857 L 190.723,-60.5 L 190.75,-61.0143 L 190.83,-61.5229 L 190.964,-62.0204
 L 191.148,-62.5011 L 191.382,-62.96 L 191.662,-63.3919 L 191.987,-63.7921 L 192.351,-64.1563 L 192.751,-64.4804
 L 193.093,-64.7024 L 193.093,-74 L 193.149,-74.5302 L 193.313,-75.0372 L 193.58,-75.4988 L 193.937,-75.895
 L 194.368,-76.2084 L 194.855,-76.4252 L 195.376,-76.536 L 195.909,-76.536 L 196.431,-76.4252 L 196.918,-76.2084
 L 197.349,-75.895 L 197.706,-75.4988 L 197.972,-75.0372 L 198.137,-74.5302 L 198.193,-74 L 198.193,-64.7024
 L 198.535,-64.4804 L 198.935,-64.1563 L 199.299,-63.7921 L 199.623,-63.3919 L 199.904,-62.96 L 200.137,-62.5011
 L 200.322,-62.0204 L 200.455,-61.5229 L 200.536,-61.0143 L 200.563,-60.5 L 200.536,-59.9857 L 200.455,-59.4771
 L 200.322,-58.9796 L 200.137,-58.4989 L 199.904,-58.04 L 199.623,-57.6081 L 199.299,-57.2079 L 198.935,-56.8437
 L 198.535,-56.5196 L 198.103,-56.2392 L 197.644,-56.0054 L 197.163,-55.8208 L 196.666,-55.6875 L 196.157,-55.607
 L 195.643,-55.58 z
M 383.271,-55.607 L 382.763,-55.6875 L 382.265,-55.8208 L 381.785,-56.0054 L 381.326,-56.2392 L 380.894,-56.5196
 L 380.494,-56.8437 L 380.129,-57.2079 L 379.805,-57.6081 L 379.525,-58.04 L 379.291,-58.4989 L 379.107,-58.9796
 L 378.973,-59.4771 L 378.893,-59.9857 L 378.866,-60.5 L 378.893,-61.0143 L 378.973,-61.5229 L 379.107,-62.0204
 L 379.291,-62.5011 L 379.525,-62.96 L 379.805,-63.3919 L 380.129,-63.7921 L 380.494,-64.1563 L 380.894,-64.4804
 L 381.236,-64.7024 L 381.236,-74 L 381.291,-74.5302 L 381.456,-75.0372 L 381.723,-75.4988 L 382.079,-75.895
 L 382.511,-76.2084 L 382.998,-76.4252 L 383.519,-76.536 L 384.052,-76.536 L 384.574,-76.4252 L 385.061,-76.2084
 L 385.492,-75.895 L 385.849,-75.4988 L 386.115,-75.0372 L 386.28,-74.5302 L 386.336,-74 L 386.336,-64.7024
 L 386.678,-64.4804 L 387.078,-64.1563 L 387.442,-63.7921 L 387.766,-63.3919 L 388.047,-62.96 L 388.28,-62.5011
 L 388.465,-62.0204 L 388.598,-61.5229 L 388.679,-61.0143 L 388.706,-60.5 L 388.679,-59.9857 L 388.598,-59.4771
 L 388.465,-58.9796 L 388.28,-58.4989 L 388.047,-58.04 L 387.766,-57.6081 L 387.442,-57.2079 L 387.078,-56.8437
 L 386.678,-56.5196 L 386.246,-56.2392 L 385.787,-56.0054 L 385.306,-55.8208 L 384.809,-55.6875 L 384.3,-55.607
 L 383.786,-55.58 z
M 571.414,-55.607 L 570.906,-55.6875 L 570.408,-55.8208 L 569.927,-56.0054 L 569.469,-56.2392 L 569.037,-56.5196
 L 568.636,-56.8437 L 568.272,-57.2079 L 567.948,-57.6081 L 567.668,-58.04 L 567.434,-58.4989 L 567.249,-58.9796
 L 567.116,-59.4771 L 567.036,-59.9857 L 567.009,-60.5 L 567.036,-61.0143 L 567.116,-61.5229 L 567.249,-62.0204
 L 567.434,-62.5011 L 567.668,-62.96 L 567.948,-63.3919 L 568.272,-63.7921 L 568.636,-64.1563 L 569.037,-64.4804
 L 569.379,-64.7024 L 569.379,-74 L 569.434,-74.5302 L 569.599,-75.0372 L 569.866,-75.4988 L 570.222,-75.895
 L 570.654,-76.2084 L 571.141,-76.4252 L 571.662,-76.536 L 572.195,-76.536 L 572.717,-76.4252 L 573.204,-76.2084
 L 573.635,-75.895 L 573.992,-75.4988 L 574.258,-75.0372 L 574.423,-74.5302 L 574.479,-74 L 574.479,-64.7024
 L 574.82,-64.4804 L 575.221,-64.1563 L 575.585,-63.7921 L 575.909,-63.3919 L 576.189,-62.96 L 576.423,-62.5011
 L 576.608,-62.0204 L 576.741,-61.5229 L 576.822,-61.0143 L 576.849,-60.5 L 576.822,-59.9857 L 576.741,-59.4771
 L 576.608,-58.9796 L 576.423,-58.4989 L 576.189,-58.04 L 575.909,-57.6081 L 575.585,-57.2079 L 575.221,-56.8437
 L 574.82,-56.5196 L 574.389,-56.2392 L 573.93,-56.0054 L 573.449,-55.8208 L 572.951,-55.6875 L 572.443,-55.607
 L 571.929,-55.58 z
M 759.557,-55.607 L 759.049,-55.6875 L 758.551,-55.8208 L 758.07,-56.0054 L 757.611,-56.2392 L 757.18,-56.5196
 L 756.779,-56.8437 L 756.415,-57.2079 L 756.091,-57.6081 L 755.811,-58.04 L 755.577,-58.4989 L 755.392,-58.9796
 L 755.259,-59.4771 L 755.178,-59.9857 L 755.151,-60.5 L 755.178,-61.0143 L 755.259,-61.5229 L 755.392,-62.0204
 L 755.577,-62.5011 L 755.811,-62.96 L 756.091,-63.3919 L 756.415,-63.7921 L 756.779,-64.1563 L 757.18,-64.4804
 L 757.521,-64.7024 L 757.521,-74 L 757.577,-74.5302 L 757.742,-75.0372 L 758.008,-75.4988 L 758.365,-75.895
 L 758.796,-76.2084 L 759.283,-76.4252 L 759.805,-76.536 L 760.338,-76.536 L 760.859,-76.4252 L 761.346,-76.2084
 L 761.778,-75.895 L 762.134,-75.4988 L 762.401,-75.0372 L 762.566,-74.5302 L 762.621,-74 L 762.621,-64.7024
 L 762.963,-64.4804 L 763.364,-64.1563 L 763.728,-63.7921 L 764.052,-63.3919 L 764.332,-62.96 L 764.566,-62.5011
 L 764.751,-62.0204 L 764.884,-61.5229 L 764.964,-61.0143 L 764.991,-60.5 L 764.964,-59.9857 L 764.884,-59.4771
 L 764.751,-58.9796 L 764.566,-58.4989 L 764.332,-58.04 L 764.052,-57.6081 L 763.728,-57.2079 L 763.364,-56.8437
 L 762.963,-56.5196 L 762.531,-56.2392 L 762.073,-56.0054 L 761.592,-55.8208 L 761.094,-55.6875 L 760.586,-55.607
 L 760.071,-55.58 z
M 947.7,-55.607 L 947.191,-55.6875 L 946.694,-55.8208 L 946.213,-56.0054 L 945.754,-56.2392 L 945.322,-56.5196
 L 944.922,-56.8437 L 944.558,-57.2079 L 944.234,-57.6081 L 943.953,-58.04 L 943.72,-58.4989 L 943.535,-58.9796
 L 943.402,-59.4771 L 943.321,-59.9857 L 943.294,-60.5 L 943.321,-61.0143 L 943.402,-61.5229 L 943.535,-62.0204
 L 943.72,-62.5011 L 943.953,-62.96 L 944.234,-63.3919 L 944.558,-63.7921 L 944.922,-64.1563 L 945.322,-64.4804
 L 945.664,-64.7024 L 945.664,-74 L 945.72,-74.5302 L 945.885,-75.0372 L 946.151,-75.4988 L 946.508,-75.895
 L 946.939,-76.2084 L 947.426,-76.4252 L 947.948,-76.536 L 948.481,-76.536 L 949.002,-76.4252 L 949.489,-76.2084
 L 949.921,-75.895 L 950.277,-75.4988 L 950.544,-75.0372 L 950.709,-74.5302 L 950.764,-74 L 950.764,-64.7024
 L 951.106,-64.4804 L 951.506,-64.1563 L 951.871,-63.7921 L 952.195,-63.3919 L 952.475,-62.96 L 952.709,-62.5011
 L 952.893,-62.0204 L 953.027,-61.5229 L 953.107,-61.0143 L 953.134,-60.5 L 953.107,-59.9857 L 953.027,-59.4771
 L 952.893,-58.9796 L 952.709,-58.4989 L 952.475,-58.04 L 952.195,-57.6081 L 951.871,-57.2079 L 951.506,-56.8437
 L 951.106,-56.5196 L 950.674,-56.2392 L 950.215,-56.0054 L 949.735,-55.8208 L 949.237,-55.6875 L 948.729,-55.607
 L 948.214,-55.58 z
M 1135.84,-55.607 L 1135.33,-55.6875 L 1134.84,-55.8208 L 1134.36,-56.0054 L 1133.9,-56.2392 L 1133.47,-56.5196
 L 1133.07,-56.8437 L 1132.7,-57.2079 L 1132.38,-57.6081 L 1132.1,-58.04 L 1131.86,-58.4989 L 1131.68,-58.9796
 L 1131.54,-59.4771 L 1131.46,-59.9857 L 1131.44,-60.5 L 1131.46,-61.0143 L 1131.54,-61.5229 L 1131.68,-62.0204
 L 1131.86,-62.5011 L 1132.1,-62.96 L 1132.38,-63.3919 L 1132.7,-63.7921 L 1133.07,-64.1563 L 1133.47,-64.4804
 L 1133.81,-64.7024 L 1133.81,-74 L 1133.86,-74.5302 L 1134.03,-75.0372 L 1134.29,-75.4988 L 1134.65,-75.895
 L 1135.08,-76.2084 L 1135.57,-76.4252 L 1136.09,-76.536 L 1136.62,-76.536 L 1137.15,-76.4252 L 1137.63,-76.2084
 L 1138.06,-75.895 L 1138.42,-75.4988 L 1138.69,-75.0372 L 1138.85,-74.5302 L 1138.91,-74 L 1138.91,-64.7024
 L 1139.25,-64.4804 L 1139.65,-64.1563 L 1140.01,-63.7921 L 1140.34,-63.3919 L 1140.62,-62.96 L 1140.85,-62.5011
 L 1141.04,-62.0204 L 1141.17,-61.5229 L 1141.25,-61.0143 L 1141.28,-60.5 L 1141.25,-59.9857 L 1141.17,-59.4771
 L 1141.04,-58.9796 L 1140.85,-58.4989 L 1140.62,-58.04 L 1140.34,-57.6081 L 1140.01,-57.2079 L 1139.65,-56.8437
 L 1139.25,-56.5196 L 1138.82,-56.2392 L 1138.36,-56.0054 L 1137.88,-55.8208 L 1137.38,-55.6875 L 1136.87,-55.607
 L 1136.36,-55.58 z
M 1323.99,-55.607 L 1323.48,-55.6875 L 1322.98,-55.8208 L 1322.5,-56.0054 L 1322.04,-56.2392 L 1321.61,-56.5196
 L 1321.21,-56.8437 L 1320.84,-57.2079 L 1320.52,-57.6081 L 1320.24,-58.04 L 1320.01,-58.4989 L 1319.82,-58.9796
 L 1319.69,-59.4771 L 1319.61,-59.9857 L 1319.58,-60.5 L 1319.61,-61.0143 L 1319.69,-61.5229 L 1319.82,-62.0204
 L 1320.01,-62.5011 L 1320.24,-62.96 L 1320.52,-63.3919 L 1320.84,-63.7921 L 1321.21,-64.1563 L 1321.61,-64.4804
 L 1321.95,-64.7024 L 1321.95,-74 L 1322.01,-74.5302 L 1322.17,-75.0372 L 1322.44,-75.4988 L 1322.79,-75.895
 L 1323.23,-76.2084 L 1323.71,-76.4252 L 1324.23,-76.536 L 1324.77,-76.536 L 1325.29,-76.4252 L 1325.77,-76.2084
 L 1326.21,-75.895 L 1326.56,-75.4988 L 1326.83,-75.0372 L 1326.99,-74.5302 L 1327.05,-74 L 1327.05,-64.7024
 L 1327.39,-64.4804 L 1327.79,-64.1563 L 1328.16,-63.7921 L 1328.48,-63.3919 L 1328.76,-62.96 L 1328.99,-62.5011
 L 1329.18,-62.0204 L 1329.31,-61.5229 L 1329.39,-61.0143 L 1329.42,-60.5 L 1329.39,-59.9857 L 1329.31,-59.4771
 L 1329.18,-58.9796 L 1328.99,-58.4989 L 1328.76,-58.04 L 1328.48,-57.6081 L 1328.16,-57.2079 L 1327.79,-56.8437
 L 1327.39,-56.5196 L 1326.96,-56.2392 L 1326.5,-56.0054 L 1326.02,-55.8208 L 1325.52,-55.6875 L 1325.01,-55.607
 L 1324.5,-55.58 z
M 771.96,-20.6716 L 771.186,-20.9866 L 770.493,-21.4558 L 769.914,-22.0587 L 769.472,-22.7688 L 769.188,-23.5552
 L 769.071,-24.5142 L 769.071,-58 L 769.159,-58.8316 L 769.417,-59.627 L 769.835,-60.3511 L 770.395,-60.9726
 L 771.071,-61.4641 L 771.835,-61.8042 L 773.071,-62 L 865.72,-62 L 866.552,-61.9126 L 867.347,-61.6542
 L 868.071,-61.2361 L 868.693,-60.6765 L 869.184,-60 L 869.524,-59.2361 L 869.698,-58.4181 L 869.698,-57.5819
 L 869.524,-56.7639 L 869.184,-56 L 868.693,-55.3235 L 868.071,-54.7639 L 867.08,-54.2382 L 774.431,-20.7524
 L 773.619,-20.5519 L 772.783,-20.5246 z
M 665.452,-47.7279 L 664.64,-47.9283 L 647.182,-54.2382 L 646.191,-54.7639 L 645.569,-55.3235 L 645.078,-56
 L 644.738,-56.7639 L 644.564,-57.5819 L 644.564,-58.4181 L 644.738,-59.2361 L 645.078,-60 L 645.569,-60.6765
 L 646.191,-61.2361 L 646.915,-61.6542 L 647.71,-61.9126 L 648.542,-62 L 683.458,-62 L 684.569,-61.8426
 L 685.344,-61.5276 L 686.036,-61.0584 L 686.616,-60.4556 L 687.057,-59.7454 L 687.341,-58.959 L 687.456,-58.1306
 L 687.396,-57.2966 L 687.163,-56.4932 L 686.769,-55.7558 L 686.23,-55.1164 L 685.57,-54.6031 L 684.818,-54.2382
 L 667.36,-47.9283 L 666.288,-47.7005 z
M 558.381,-20.5519 L 557.569,-20.7524 L 464.92,-54.2382 L 463.929,-54.7639 L 463.307,-55.3235 L 462.816,-56
 L 462.476,-56.7639 L 462.302,-57.5819 L 462.302,-58.4181 L 462.476,-59.2361 L 462.816,-60 L 463.307,-60.6765
 L 463.929,-61.2361 L 464.653,-61.6542 L 465.448,-61.9126 L 466.28,-62 L 558.929,-62 L 560.165,-61.8042
 L 560.929,-61.4641 L 561.605,-60.9726 L 562.165,-60.3511 L 562.583,-59.627 L 562.841,-58.8316 L 562.929,-58
 L 562.929,-24.5142 L 562.812,-23.5552 L 562.528,-22.7688 L 562.086,-22.0587 L 561.507,-21.4558 L 560.814,-20.9866
 L 560.04,-20.6716 L 559.217,-20.5246 z
M 370.238,-20.5519 L 369.426,-20.7524 L 276.777,-54.2382 L 275.786,-54.7639 L 275.164,-55.3235 L 274.673,-56
 L 274.333,-56.7639 L 274.159,-57.5819 L 274.159,-58.4181 L 274.333,-59.2361 L 274.673,-60 L 275.164,-60.6765
 L 275.786,-61.2361 L 276.51,-61.6542 L 277.305,-61.9126 L 278.137,-62 L 370.786,-62 L 372.022,-61.8042
 L 372.786,-61.4641 L 373.462,-60.9726 L 374.022,-60.3511 L 374.44,-59.627 L 374.698,-58.8316 L 374.786,-58
 L 374.786,-24.5142 L 374.669,-23.5552 L 374.385,-22.7688 L 373.943,-22.0587 L 373.364,-21.4558 L 372.672,-20.9866
 L 371.897,-20.6716 L 371.074,-20.5246 z
M 1148.25,-20.6716 L 1147.47,-20.9866 L 1146.78,-21.4558 L 1146.2,-22.0587 L 1145.76,-22.7688 L 1145.47,-23.5552
 L 1145.36,-24.5142 L 1145.36,-58 L 1145.44,-58.8316 L 1145.7,-59.627 L 1146.12,-60.3511 L 1146.68,-60.9726
 L 1147.36,-61.4641 L 1148.12,-61.8042 L 1149.36,-62 L 1242.01,-62 L 1242.84,-61.9126 L 1243.63,-61.6542
 L 1244.36,-61.2361 L 1244.98,-60.6765 L 1245.47,-60 L 1245.81,-59.2361 L 1245.98,-58.4181 L 1245.98,-57.5819
 L 1245.81,-56.7639 L 1245.47,-56 L 1244.98,-55.3235 L 1244.36,-54.7639 L 1243.37,-54.2382 L 1150.72,-20.7524
 L 1149.9,-20.5519 L 1149.07,-20.5246 z
M 182.095,-20.5519 L 181.283,-20.7524 L 88.6345,-54.2382 L 87.643,-54.7639 L 87.0216,-55.3235 L 86.5301,-56
 L 86.1899,-56.7639 L 86.0161,-57.5819 L 86.0161,-58.4181 L 86.1899,-59.2361 L 86.5301,-60 L 87.0216,-60.6765
 L 87.643,-61.2361 L 88.3672,-61.6542 L 89.1625,-61.9126 L 89.9942,-62 L 182.643,-62 L 183.879,-61.8042
 L 184.643,-61.4641 L 185.319,-60.9726 L 185.879,-60.3511 L 186.297,-59.627 L 186.555,-58.8316 L 186.643,-58
 L 186.643,-24.5142 L 186.526,-23.5552 L 186.242,-22.7688 L 185.8,-22.0587 L 185.221,-21.4558 L 184.529,-20.9866
 L 183.754,-20.6716 L 182.931,-20.5246 z
M 960.103,-20.6716 L 959.328,-20.9866 L 958.636,-21.4558 L 958.057,-22.0587 L 957.615,-22.7688 L 957.331,-23.5552
 L 957.214,-24.5142 L 957.214,-58 L 957.302,-58.8316 L 957.56,-59.627 L 957.978,-60.3511 L 958.538,-60.9726
 L 959.214,-61.4641 L 959.978,-61.8042 L 961.214,-62 L 1053.86,-62 L 1054.69,-61.9126 L 1055.49,-61.6542
 L 1056.21,-61.2361 L 1056.84,-60.6765 L 1057.33,-60 L 1057.67,-59.2361 L 1057.84,-58.4181 L 1057.84,-57.5819
 L 1057.67,-56.7639 L 1057.33,-56 L 1056.84,-55.3235 L 1056.21,-54.7639 L 1055.22,-54.2382 L 962.574,-20.7524
 L 961.762,-20.5519 L 960.926,-20.5246 z
M 584.51,-18.4106 L 583.692,-18.5845 L 582.929,-18.9246 L 582.252,-19.4162 L 581.692,-20.0376 L 581.274,-20.7618
 L 581.016,-21.5571 L 580.929,-22.3887 L 580.929,-57.6113 L 581.045,-58.5702 L 581.329,-59.3567 L 581.771,-60.0668
 L 582.351,-60.6697 L 583.043,-61.1388 L 583.817,-61.4538 L 584.641,-61.6009 L 585.476,-61.5736 L 586.288,-61.3731
 L 635.015,-43.7618 L 635.541,-43.5276 L 636.234,-43.0584 L 636.813,-42.4556 L 637.255,-41.7454 L 637.539,-40.959
 L 637.653,-40.1306 L 637.593,-39.2966 L 637.361,-38.4932 L 636.967,-37.7558 L 636.428,-37.1164 L 635.768,-36.6031
 L 635.015,-36.2382 L 586.288,-18.6269 L 585.347,-18.4106 z
M 746.524,-18.4264 L 745.712,-18.6269 L 696.985,-36.2382 L 696.459,-36.4724 L 695.766,-36.9416 L 695.187,-37.5444
 L 694.745,-38.2546 L 694.461,-39.041 L 694.347,-39.8694 L 694.407,-40.7034 L 694.639,-41.5068 L 695.033,-42.2442
 L 695.572,-42.8836 L 696.232,-43.3969 L 696.985,-43.7618 L 745.712,-61.3731 L 746.653,-61.5894 L 747.49,-61.5894
 L 748.307,-61.4155 L 749.071,-61.0754 L 749.748,-60.5838 L 750.307,-59.9624 L 750.726,-59.2382 L 750.984,-58.4429
 L 751.071,-57.6113 L 751.071,-22.3887 L 750.955,-21.4298 L 750.671,-20.6433 L 750.229,-19.9332 L 749.649,-19.3303
 L 748.957,-18.8612 L 748.183,-18.5462 L 747.359,-18.3991 z
M 208.643,-18 L 207.407,-18.1958 L 206.643,-18.5359 L 205.966,-19.0274 L 205.407,-19.6489 L 204.989,-20.373
 L 204.73,-21.1684 L 204.643,-22 L 204.643,-55.4858 L 204.76,-56.4447 L 205.044,-57.2312 L 205.485,-57.9413
 L 206.065,-58.5442 L 206.757,-59.0133 L 207.532,-59.3283 L 208.355,-59.4754 L 209.191,-59.4481 L 210.002,-59.2476
 L 302.651,-25.7618 L 303.643,-25.2361 L 304.264,-24.6765 L 304.756,-24 L 305.096,-23.2361 L 305.27,-22.4181
 L 305.27,-21.5819 L 305.096,-20.7639 L 304.756,-20 L 304.264,-19.3235 L 303.643,-18.7639 L 302.918,-18.3458
 L 302.123,-18.0874 L 301.292,-18 z
M 396.786,-18 L 395.55,-18.1958 L 394.786,-18.5359 L 394.109,-19.0274 L 393.55,-19.6489 L 393.132,-20.373
 L 392.873,-21.1684 L 392.786,-22 L 392.786,-55.4858 L 392.902,-56.4447 L 393.187,-57.2312 L 393.628,-57.9413
 L 394.208,-58.5442 L 394.9,-59.0133 L 395.675,-59.3283 L 396.498,-59.4754 L 397.333,-59.4481 L 398.145,-59.2476
 L 490.794,-25.7618 L 491.786,-25.2361 L 492.407,-24.6765 L 492.898,-24 L 493.239,-23.2361 L 493.412,-22.4181
 L 493.412,-21.5819 L 493.239,-20.7639 L 492.898,-20 L 492.407,-19.3235 L 491.786,-18.7639 L 491.061,-18.3458
 L 490.266,-18.0874 L 489.434,-18 z
M 842.566,-18 L 841.734,-18.0874 L 840.939,-18.3458 L 840.214,-18.7639 L 839.593,-19.3235 L 839.102,-20
 L 838.761,-20.7639 L 838.588,-21.5819 L 838.588,-22.4181 L 838.761,-23.2361 L 839.102,-24 L 839.593,-24.6765
 L 840.214,-25.2361 L 841.206,-25.7618 L 933.855,-59.2476 L 934.666,-59.4481 L 935.502,-59.4754 L 936.325,-59.3283
 L 937.1,-59.0133 L 937.792,-58.5442 L 938.372,-57.9413 L 938.813,-57.2312 L 939.098,-56.4447 L 939.214,-55.4858
 L 939.214,-22 L 939.127,-21.1684 L 938.868,-20.373 L 938.45,-19.6489 L 937.891,-19.0274 L 937.214,-18.5359
 L 936.45,-18.1958 L 935.214,-18 z
M 1030.71,-18 L 1029.88,-18.0874 L 1029.08,-18.3458 L 1028.36,-18.7639 L 1027.74,-19.3235 L 1027.24,-20
 L 1026.9,-20.7639 L 1026.73,-21.5819 L 1026.73,-22.4181 L 1026.9,-23.2361 L 1027.24,-24 L 1027.74,-24.6765
 L 1028.36,-25.2361 L 1029.35,-25.7618 L 1122,-59.2476 L 1122.81,-59.4481 L 1123.65,-59.4754 L 1124.47,-59.3283
 L 1125.24,-59.0133 L 1125.94,-58.5442 L 1126.51,-57.9413 L 1126.96,-57.2312 L 1127.24,-56.4447 L 1127.36,-55.4858
 L 1127.36,-22 L 1127.27,-21.1684 L 1127.01,-20.373 L 1126.59,-19.6489 L 1126.03,-19.0274 L 1125.36,-18.5359
 L 1124.59,-18.1958 L 1123.36,-18 z
M 22,-18 L 20.7639,-18.1958 L 20,-18.5359 L 19.3235,-19.0274 L 18.7639,-19.6489 L 18.3458,-20.373
 L 18.0874,-21.1684 L 18,-22 L 18,-54.9436 L 18.1167,-55.9026 L 18.4009,-56.689 L 18.8424,-57.3992
 L 19.422,-58.002 L 20.1142,-58.4712 L 20.8888,-58.7862 L 21.712,-58.9333 L 22.5478,-58.9059 L 23.3596,-58.7055
 L 114.508,-25.7618 L 115.5,-25.2361 L 116.121,-24.6765 L 116.613,-24 L 116.953,-23.2361 L 117.127,-22.4181
 L 117.127,-21.5819 L 116.953,-20.7639 L 116.613,-20 L 116.121,-19.3235 L 115.5,-18.7639 L 114.776,-18.3458
 L 113.98,-18.0874 L 113.149,-18 z
M 1218.85,-18 L 1218.02,-18.0874 L 1217.22,-18.3458 L 1216.5,-18.7639 L 1215.88,-19.3235 L 1215.39,-20
 L 1215.05,-20.7639 L 1214.87,-21.5819 L 1214.87,-22.4181 L 1215.05,-23.2361 L 1215.39,-24 L 1215.88,-24.6765
 L 1216.5,-25.2361 L 1217.49,-25.7618 L 1308.64,-58.7055 L 1309.45,-58.9059 L 1310.29,-58.9333 L 1311.11,-58.7862
 L 1311.89,-58.4712 L 1312.58,-58.002 L 1313.16,-57.3992 L 1313.6,-56.689 L 1313.88,-55.9026 L 1314,-54.9436
 L 1314,-22 L 1313.91,-21.1684 L 1313.65,-20.373 L 1313.24,-19.6489 L 1312.68,-19.0274 L 1312,-18.5359
 L 1311.24,-18.1958 L 1310,-18 z
M 648.542,-18 L 647.431,-18.1574 L 646.656,-18.4724 L 645.964,-18.9416 L 645.384,-19.5444 L 644.943,-20.2546
 L 644.659,-21.041 L 644.544,-21.8694 L 644.604,-22.7034 L 644.837,-23.5068 L 645.231,-24.2442 L 645.77,-24.8836
 L 646.43,-25.3969 L 647.182,-25.7618 L 664.64,-32.0717 L 665.712,-32.2995 L 666.548,-32.2721 L 667.36,-32.0717
 L 684.818,-25.7618 L 685.809,-25.2361 L 686.431,-24.6765 L 686.922,-24 L 687.262,-23.2361 L 687.436,-22.4181
 L 687.436,-21.5819 L 687.262,-20.7639 L 686.922,-20 L 686.431,-19.3235 L 685.809,-18.7639 L 685.085,-18.3458
 L 684.29,-18.0874 L 683.458,-18 z
" stroke="black" fill="lightgray" stroke-width="0.5"/>
</svg>
