<?xml version="1.0" standalone="no"?>
<!DOCTYPE svg PUBLIC "-//W3C//DTD SVG 1.1//EN" "http://www.w3.org/Graphics/SVG/1.1/DTD/svg11.dtd">
<svg width="1577mm" height="80mm" viewBox="0 -80 1577 80" xmlns="http://www.w3.org/2000/svg" version="1.1">
<title>OpenSCAD Model</title>
<path d="
M 1577,-80 L 0,-80 L 0,-0 L 4.95,-0 L 4.95,-6 L 5.00572,-6.53017
 L 5.17046,-7.03717 L 5.437,-7.49884 L 5.79372,-7.895 L 6.22499,-8.20836 L 6.71201,-8.42519 L 7.23344,-8.53603
 L 7.76654,-8.53603 L 8.28798,-8.42519 L 8.77499,-8.20836 L 9.20627,-7.895 L 9.56299,-7.49884 L 9.82953,-7.03717
 L 9.99426,-6.53017 L 10.05,-6 L 10.05,-0 L 200.2,-0 L 200.2,-6 L 200.256,-6.53017
 L 200.42,-7.03717 L 200.687,-7.49884 L 201.044,-7.895 L 201.475,-8.20836 L 201.962,-8.42519 L 202.483,-8.53603
 L 203.017,-8.53603 L 203.538,-8.42519 L 204.025,-8.20836 L 204.456,-7.895 L 204.813,-7.49884 L 205.08,-7.03717
 L 205.244,-6.53017 L 205.3,-6 L 205.3,-0 L 395.45,-0 L 395.45,-6 L 395.506,-6.53017
 L 395.67,-7.03717 L 395.937,-7.49884 L 396.294,-7.895 L 396.725,-8.20836 L 397.212,-8.42519 L 397.733,-8.53603
 L 398.267,-8.53603 L 398.788,-8.42519 L 399.275,-8.20836 L 399.706,-7.895 L 400.063,-7.49884 L 400.33,-7.03717
 L 400.494,-6.53017 L 400.55,-6 L 400.55,-0 L 590.7,-0 L 590.7,-6 L 590.756,-6.53017
 L 590.92,-7.03717 L 591.187,-7.49884 L 591.544,-7.895 L 591.975,-8.20836 L 592.462,-8.42519 L 592.983,-8.53603
 L 593.517,-8.53603 L 594.038,-8.42519 L 594.525,-8.20836 L 594.956,-7.895 L 595.313,-7.49884 L 595.58,-7.03717
 L 595.744,-6.53017 L 595.8,-6 L 595.8,-0 L 785.95,-0 L 785.95,-6 L 786.006,-6.53017
 L 786.17,-7.03717 L 786.437,-7.49884 L 786.794,-7.895 L 787.225,-8.20836 L 787.712,-8.42519 L 788.233,-8.53603
 L 788.767,-8.53603 L 789.288,-8.42519 L 789.775,-8.20836 L 790.206,-7.895 L 790.563,-7.49884 L 790.83,-7.03717
 L 790.994,-6.53017 L 791.05,-6 L 791.05,-0 L 981.2,-0 L 981.2,-6 L 981.256,-6.53017
 L 981.42,-7.03717 L 981.687,-7.49884 L 982.044,-7.895 L 982.475,-8.20836 L 982.962,-8.42519 L 983.483,-8.53603
 L 984.017,-8.53603 L 984.538,-8.42519 L 985.025,-8.20836 L 985.456,-7.895 L 985.813,-7.49884 L 986.08,-7.03717
 L 986.244,-6.53017 L 986.3,-6 L 986.3,-0 L 1176.45,-0 L 1176.45,-6 L 1176.51,-6.53017
 L 1176.67,-7.03717 L 1176.94,-7.49884 L 1177.29,-7.895 L 1177.72,-8.20836 L 1178.21,-8.42519 L 1178.73,-8.53603
 L 1179.27,-8.53603 L 1179.79,-8.42519 L 1180.27,-8.20836 L 1180.71,-7.895 L 1181.06,-7.49884 L 1181.33,-7.03717
 L 1181.49,-6.53017 L 1181.55,-6 L 1181.55,-0 L 1371.7,-0 L 1371.7,-6 L 1371.76,-6.53017
 L 1371.92,-7.03717 L 1372.19,-7.49884 L 1372.54,-7.895 L 1372.97,-8.20836 L 1373.46,-8.42519 L 1373.98,-8.53603
 L 1374.52,-8.53603 L 1375.04,-8.42519 L 1375.52,-8.20836 L 1375.96,-7.895 L 1376.31,-7.49884 L 1376.58,-7.03717
 L 1376.74,-6.53017 L 1376.8,-6 L 1376.8,-0 L 1566.95,-0 L 1566.95,-6 L 1567.01,-6.53017
 L 1567.17,-7.03717 L 1567.44,-7.49884 L 1567.79,-7.895 L 1568.22,-8.20836 L 1568.71,-8.42519 L 1569.23,-8.53603
 L 1569.77,-8.53603 L 1570.29,-8.42519 L 1570.77,-8.20836 L 1571.21,-7.895 L 1571.56,-7.49884 L 1571.83,-7.03717
 L 1571.99,-6.53017 L 1572.05,-6 L 1572.05,-0 L 1577,-0 z
M 202.236,-55.607 L 201.727,-55.6875 L 201.23,-55.8208 L 200.749,-56.0054 L 200.29,-56.2392 L 199.858,-56.5196
 L 199.458,-56.8437 L 199.094,-57.2079 L 198.77,-57.6081 L 198.489,-58.04 L 198.255,-58.4989 L 198.071,-58.9796
 L 197.938,-59.4771 L 197.857,-59.9857 L 197.83,-60.5 L 197.857,-61.0143 L 197.938,-61.5229 L 198.071,-62.0204
 L 198.255,-62.5011 L 198.489,-62.96 L 198.77,-63.3919 L 199.094,-63.7921 L 199.458,-64.1563 L 199.858,-64.4804
 L 200.2,-64.7024 L 200.2,-74 L 200.256,-74.5302 L 200.42,-75.0372 L 200.687,-75.4988 L 201.044,-75.895
 L 201.475,-76.2084 L 201.962,-76.4252 L 202.483,-76.536 L 203.017,-76.536 L 203.538,-76.4252 L 204.025,-76.2084
 L 204.456,-75.895 L 204.813,-75.4988 L 205.08,-75.0372 L 205.244,-74.5302 L 205.3,-74 L 205.3,-64.7024
 L 205.642,-64.4804 L 206.042,-64.1563 L 206.406,-63.7921 L 206.73,-63.3919 L 207.011,-62.96 L 207.245,-62.5011
 L 207.429,-62.0204 L 207.562,-61.5229 L 207.643,-61.0143 L 207.67,-60.5 L 207.643,-59.9857 L 207.562,-59.4771
 L 207.429,-58.9796 L 207.245,-58.4989 L 207.011,-58.04 L 206.73,-57.6081 L 206.406,-57.2079 L 206.042,-56.8437
 L 205.642,-56.5196 L 205.21,-56.2392 L 204.751,-56.0054 L 204.27,-55.8208 L 203.773,-55.6875 L 203.264,-55.607
 L 202.75,-55.58 z
M 1178.49,-55.607 L 1177.98,-55.6875 L 1177.48,-55.8208 L 1177,-56.0054 L 1176.54,-56.2392 L 1176.11,-56.5196
 L 1175.71,-56.8437 L 1175.34,-57.2079 L 1175.02,-57.6081 L 1174.74,-58.04 L 1174.51,-58.4989 L 1174.32,-58.9796
 L 1174.19,-59.4771 L 1174.11,-59.9857 L 1174.08,-60.5 L 1174.11,-61.0143 L 1174.19,-61.5229 L 1174.32,-62.0204
 L 1174.51,-62.5011 L 1174.74,-62.96 L 1175.02,-63.3919 L 1175.34,-63.7921 L 1175.71,-64.1563 L 1176.11,-64.4804
 L 1176.45,-64.7024 L 1176.45,-74 L 1176.51,-74.5302 L 1176.67,-75.0372 L 1176.94,-75.4988 L 1177.29,-75.895
 L 1177.73,-76.2084 L 1178.21,-76.4252 L 1178.73,-76.536 L 1179.27,-76.536 L 1179.79,-76.4252 L 1180.27,-76.2084
 L 1180.71,-75.895 L 1181.06,-75.4988 L 1181.33,-75.0372 L 1181.49,-74.5302 L 1181.55,-74 L 1181.55,-64.7024
 L 1181.89,-64.4804 L 1182.29,-64.1563 L 1182.66,-63.7921 L 1182.98,-63.3919 L 1183.26,-62.96 L 1183.49,-62.5011
 L 1183.68,-62.0204 L 1183.81,-61.5229 L 1183.89,-61.0143 L 1183.92,-60.5 L 1183.89,-59.9857 L 1183.81,-59.4771
 L 1183.68,-58.9796 L 1183.49,-58.4989 L 1183.26,-58.04 L 1182.98,-57.6081 L 1182.66,-57.2079 L 1182.29,-56.8437
 L 1181.89,-56.5196 L 1181.46,-56.2392 L 1181,-56.0054 L 1180.52,-55.8208 L 1180.02,-55.6875 L 1179.51,-55.607
 L 1179,-55.58 z
M 983.236,-55.607 L 982.727,-55.6875 L 982.23,-55.8208 L 981.749,-56.0054 L 981.29,-56.2392 L 980.858,-56.5196
 L 980.458,-56.8437 L 980.094,-57.2079 L 979.77,-57.6081 L 979.489,-58.04 L 979.255,-58.4989 L 979.071,-58.9796
 L 978.938,-59.4771 L 978.857,-59.9857 L 978.83,-60.5 L 978.857,-61.0143 L 978.938,-61.5229 L 979.071,-62.0204
 L 979.255,-62.5011 L 979.489,-62.96 L 979.77,-63.3919 L 980.094,-63.7921 L 980.458,-64.1563 L 980.858,-64.4804
 L 981.2,-64.7024 L 981.2,-74 L 981.256,-74.5302 L 981.42,-75.0372 L 981.687,-75.4988 L 982.044,-75.895
 L 982.475,-76.2084 L 982.962,-76.4252 L 983.483,-76.536 L 984.017,-76.536 L 984.538,-76.4252 L 985.025,-76.2084
 L 985.456,-75.895 L 985.813,-75.4988 L 986.08,-75.0372 L 986.244,-74.5302 L 986.3,-74 L 986.3,-64.7024
 L 986.642,-64.4804 L 987.042,-64.1563 L 987.406,-63.7921 L 987.73,-63.3919 L 988.011,-62.96 L 988.245,-62.5011
 L 988.429,-62.0204 L 988.562,-61.5229 L 988.643,-61.0143 L 988.67,-60.5 L 988.643,-59.9857 L 988.562,-59.4771
 L 988.429,-58.9796 L 988.245,-58.4989 L 988.011,-58.04 L 987.73,-57.6081 L 987.406,-57.2079 L 987.042,-56.8437
 L 986.642,-56.5196 L 986.21,-56.2392 L 985.751,-56.0054 L 985.27,-55.8208 L 984.773,-55.6875 L 984.264,-55.607
 L 983.75,-55.58 z
M 6.98573,-55.607 L 6.47708,-55.6875 L 5.97964,-55.8208 L 5.49887,-56.0054 L 5.04001,-56.2392 L 4.60811,-56.5196
 L 4.20789,-56.8437 L 3.84373,-57.2079 L 3.51964,-57.6081 L 3.23917,-58.04 L 3.00537,-58.4989 L 2.82082,-58.9796
 L 2.68752,-59.4771 L 2.60696,-59.9857 L 2.58,-60.5 L 2.60696,-61.0143 L 2.68752,-61.5229 L 2.82082,-62.0204
 L 3.00537,-62.5011 L 3.23917,-62.96 L 3.51964,-63.3919 L 3.84373,-63.7921 L 4.20789,-64.1563 L 4.60811,-64.4804
 L 4.95001,-64.7024 L 4.95001,-74 L 5.00574,-74.5302 L 5.17047,-75.0372 L 5.43701,-75.4988 L 5.79373,-75.895
 L 6.22501,-76.2084 L 6.71202,-76.4252 L 7.23346,-76.536 L 7.76654,-76.536 L 8.28798,-76.4252 L 8.77499,-76.2084
 L 9.20627,-75.895 L 9.56299,-75.4988 L 9.82953,-75.0372 L 9.99426,-74.5302 L 10.05,-74 L 10.05,-64.7024
 L 10.3919,-64.4804 L 10.7921,-64.1563 L 11.1563,-63.7921 L 11.4804,-63.3919 L 11.7608,-62.96 L 11.9946,-62.5011
 L 12.1792,-62.0204 L 12.3125,-61.5229 L 12.393,-61.0143 L 12.42,-60.5 L 12.393,-59.9857 L 12.3125,-59.4771
 L 12.1792,-58.9796 L 11.9946,-58.4989 L 11.7608,-58.04 L 11.4804,-57.6081 L 11.1563,-57.2079 L 10.7921,-56.8437
 L 10.3919,-56.5196 L 9.95999,-56.2392 L 9.50113,-56.0054 L 9.02036,-55.8208 L 8.52292,-55.6875 L 8.01427,-55.607
 L 7.5,-55.58 z
M 787.986,-55.607 L 787.477,-55.6875 L 786.98,-55.8208 L 786.499,-56.0054 L 786.04,-56.2392 L 785.608,-56.5196
 L 785.208,-56.8437 L 784.844,-57.2079 L 784.52,-57.6081 L 784.239,-58.04 L 784.005,-58.4989 L 783.821,-58.9796
 L 783.688,-59.4771 L 783.607,-59.9857 L 783.58,-60.5 L 783.607,-61.0143 L 783.688,-61.5229 L 783.821,-62.0204
 L 784.005,-62.5011 L 784.239,-62.96 L 784.52,-63.3919 L 784.844,-63.7921 L 785.208,-64.1563 L 785.608,-64.4804
 L 785.95,-64.7024 L 785.95,-74 L 786.006,-74.5302 L 786.17,-75.0372 L 786.437,-75.4988 L 786.794,-75.895
 L 787.225,-76.2084 L 787.712,-76.4252 L 788.233,-76.536 L 788.767,-76.536 L 789.288,-76.4252 L 789.775,-76.2084
 L 790.206,-75.895 L 790.563,-75.4988 L 790.83,-75.0372 L 790.994,-74.5302 L 791.05,-74 L 791.05,-64.7024
 L 791.392,-64.4804 L 791.792,-64.1563 L 792.156,-63.7921 L 792.48,-63.3919 L 792.761,-62.96 L 792.995,-62.5011
 L 793.179,-62.0204 L 793.312,-61.5229 L 793.393,-61.0143 L 793.42,-60.5 L 793.393,-59.9857 L 793.312,-59.4771
 L 793.179,-58.9796 L 792.995,-58.4989 L 792.761,-58.04 L 792.48,-57.6081 L 792.156,-57.2079 L 791.792,-56.8437
 L 791.392,-56.5196 L 790.96,-56.2392 L 790.501,-56.0054 L 790.02,-55.8208 L 789.523,-55.6875 L 789.014,-55.607
 L 788.5,-55.58 z
M 1373.74,-55.607 L 1373.23,-55.6875 L 1372.73,-55.8208 L 1372.25,-56.0054 L 1371.79,-56.2392 L 1371.36,-56.5196
 L 1370.96,-56.8437 L 1370.59,-57.2079 L 1370.27,-57.6081 L 1369.99,-58.04 L 1369.76,-58.4989 L 1369.57,-58.9796
 L 1369.44,-59.4771 L 1369.36,-59.9857 L 1369.33,-60.5 L 1369.36,-61.0143 L 1369.44,-61.5229 L 1369.57,-62.0204
 L 1369.76,-62.5011 L 1369.99,-62.96 L 1370.27,-63.3919 L 1370.59,-63.7921 L 1370.96,-64.1563 L 1371.36,-64.4804
 L 1371.7,-64.7024 L 1371.7,-74 L 1371.76,-74.5302 L 1371.92,-75.0372 L 1372.19,-75.4988 L 1372.54,-75.895
 L 1372.98,-76.2084 L 1373.46,-76.4252 L 1373.98,-76.536 L 1374.52,-76.536 L 1375.04,-76.4252 L 1375.52,-76.2084
 L 1375.96,-75.895 L 1376.31,-75.4988 L 1376.58,-75.0372 L 1376.74,-74.5302 L 1376.8,-74 L 1376.8,-64.7024
 L 1377.14,-64.4804 L 1377.54,-64.1563 L 1377.91,-63.7921 L 1378.23,-63.3919 L 1378.51,-62.96 L 1378.74,-62.5011
 L 1378.93,-62.0204 L 1379.06,-61.5229 L 1379.14,-61.0143 L 1379.17,-60.5 L 1379.14,-59.9857 L 1379.06,-59.4771
 L 1378.93,-58.9796 L 1378.74,-58.4989 L 1378.51,-58.04 L 1378.23,-57.6081 L 1377.91,-57.2079 L 1377.54,-56.8437
 L 1377.14,-56.5196 L 1376.71,-56.2392 L 1376.25,-56.0054 L 1375.77,-55.8208 L 1375.27,-55.6875 L 1374.76,-55.607
 L 1374.25,-55.58 z
M 592.736,-55.607 L 592.227,-55.6875 L 591.73,-55.8208 L 591.249,-56.0054 L 590.79,-56.2392 L 590.358,-56.5196
 L 589.958,-56.8437 L 589.594,-57.2079 L 589.27,-57.6081 L 588.989,-58.04 L 588.755,-58.4989 L 588.571,-58.9796
 L 588.438,-59.4771 L 588.357,-59.9857 L 588.33,-60.5 L 588.357,-61.0143 L 588.438,-61.5229 L 588.571,-62.0204
 L 588.755,-62.5011 L 588.989,-62.96 L 589.27,-63.3919 L 589.594,-63.7921 L 589.958,-64.1563 L 590.358,-64.4804
 L 590.7,-64.7024 L 590.7,-74 L 590.756,-74.5302 L 590.92,-75.0372 L 591.187,-75.4988 L 591.544,-75.895
 L 591.975,-76.2084 L 592.462,-76.4252 L 592.983,-76.536 L 593.517,-76.536 L 594.038,-76.4252 L 594.525,-76.2084
 L 594.956,-75.895 L 595.313,-75.4988 L 595.58,-75.0372 L 595.744,-74.5302 L 595.8,-74 L 595.8,-64.7024
 L 596.142,-64.4804 L 596.542,-64.1563 L 596.906,-63.7921 L 597.23,-63.3919 L 597.511,-62.96 L 597.745,-62.5011
 L 597.929,-62.0204 L 598.062,-61.5229 L 598.143,-61.0143 L 598.17,-60.5 L 598.143,-59.9857 L 598.062,-59.4771
 L 597.929,-58.9796 L 597.745,-58.4989 L 597.511,-58.04 L 597.23,-57.6081 L 596.906,-57.2079 L 596.542,-56.8437
 L 596.142,-56.5196 L 595.71,-56.2392 L 595.251,-56.0054 L 594.77,-55.8208 L 594.273,-55.6875 L 593.764,-55.607
 L 593.25,-55.58 z
M 397.486,-55.607 L 396.977,-55.6875 L 396.48,-55.8208 L 395.999,-56.0054 L 395.54,-56.2392 L 395.108,-56.5196
 L 394.708,-56.8437 L 394.344,-57.2079 L 394.02,-57.6081 L 393.739,-58.04 L 393.505,-58.4989 L 393.321,-58.9796
 L 393.188,-59.4771 L 393.107,-59.9857 L 393.08,-60.5 L 393.107,-61.0143 L 393.188,-61.5229 L 393.321,-62.0204
 L 393.505,-62.5011 L 393.739,-62.96 L 394.02,-63.3919 L 394.344,-63.7921 L 394.708,-64.1563 L 395.108,-64.4804
 L 395.45,-64.7024 L 395.45,-74 L 395.506,-74.5302 L 395.67,-75.0372 L 395.937,-75.4988 L 396.294,-75.895
 L 396.725,-76.2084 L 397.212,-76.4252 L 397.733,-76.536 L 398.267,-76.536 L 398.788,-76.4252 L 399.275,-76.2084
 L 399.706,-75.895 L 400.063,-75.4988 L 400.33,-75.0372 L 400.494,-74.5302 L 400.55,-74 L 400.55,-64.7024
 L 400.892,-64.4804 L 401.292,-64.1563 L 401.656,-63.7921 L 401.98,-63.3919 L 402.261,-62.96 L 402.495,-62.5011
 L 402.679,-62.0204 L 402.812,-61.5229 L 402.893,-61.0143 L 402.92,-60.5 L 402.893,-59.9857 L 402.812,-59.4771
 L 402.679,-58.9796 L 402.495,-58.4989 L 402.261,-58.04 L 401.98,-57.6081 L 401.656,-57.2079 L 401.292,-56.8437
 L 400.892,-56.5196 L 400.46,-56.2392 L 400.001,-56.0054 L 399.52,-55.8208 L 399.023,-55.6875 L 398.514,-55.607
 L 398,-55.58 z
M 1568.99,-55.607 L 1568.48,-55.6875 L 1567.98,-55.8208 L 1567.5,-56.0054 L 1567.04,-56.2392 L 1566.61,-56.5196
 L 1566.21,-56.8437 L 1565.84,-57.2079 L 1565.52,-57.6081 L 1565.24,-58.04 L 1565.01,-58.4989 L 1564.82,-58.9796
 L 1564.69,-59.4771 L 1564.61,-59.9857 L 1564.58,-60.5 L 1564.61,-61.0143 L 1564.69,-61.5229 L 1564.82,-62.0204
 L 1565.01,-62.5011 L 1565.24,-62.96 L 1565.52,-63.3919 L 1565.84,-63.7921 L 1566.21,-64.1563 L 1566.61,-64.4804
 L 1566.95,-64.7024 L 1566.95,-74 L 1567.01,-74.5302 L 1567.17,-75.0372 L 1567.44,-75.4988 L 1567.79,-75.895
 L 1568.23,-76.2084 L 1568.71,-76.4252 L 1569.23,-76.536 L 1569.77,-76.536 L 1570.29,-76.4252 L 1570.77,-76.2084
 L 1571.21,-75.895 L 1571.56,-75.4988 L 1571.83,-75.0372 L 1571.99,-74.5302 L 1572.05,-74 L 1572.05,-64.7024
 L 1572.39,-64.4804 L 1572.79,-64.1563 L 1573.16,-63.7921 L 1573.48,-63.3919 L 1573.76,-62.96 L 1573.99,-62.5011
 L 1574.18,-62.0204 L 1574.31,-61.5229 L 1574.39,-61.0143 L 1574.42,-60.5 L 1574.39,-59.9857 L 1574.31,-59.4771
 L 1574.18,-58.9796 L 1573.99,-58.4989 L 1573.76,-58.04 L 1573.48,-57.6081 L 1573.16,-57.2079 L 1572.79,-56.8437
 L 1572.39,-56.5196 L 1571.96,-56.2392 L 1571.5,-56.0054 L 1571.02,-55.8208 L 1570.52,-55.6875 L 1570.01,-55.607
 L 1569.5,-55.58 z
M 384.499,-20.3219 L 383.684,-20.5129 L 286.893,-54.2225 L 285.857,-54.7639 L 285.236,-55.3235 L 284.745,-56
 L 284.404,-56.7639 L 284.231,-57.5819 L 284.231,-58.4181 L 284.404,-59.2361 L 284.745,-60 L 285.236,-60.6765
 L 285.857,-61.2361 L 286.582,-61.6542 L 287.377,-61.9126 L 288.209,-62 L 385,-62 L 386.236,-61.8042
 L 387,-61.4641 L 387.677,-60.9726 L 388.236,-60.3511 L 388.654,-59.627 L 388.913,-58.8316 L 389,-58
 L 389,-24.2903 L 388.894,-23.3768 L 388.619,-22.5871 L 388.186,-21.8718 L 387.614,-21.2623 L 386.927,-20.785
 L 386.156,-20.461 L 385.335,-20.3044 z
M 579.749,-20.3219 L 578.934,-20.5129 L 482.143,-54.2225 L 481.107,-54.7639 L 480.486,-55.3235 L 479.995,-56
 L 479.654,-56.7639 L 479.481,-57.5819 L 479.481,-58.4181 L 479.654,-59.2361 L 479.995,-60 L 480.486,-60.6765
 L 481.107,-61.2361 L 481.832,-61.6542 L 482.627,-61.9126 L 483.459,-62 L 580.25,-62 L 581.486,-61.8042
 L 582.25,-61.4641 L 582.927,-60.9726 L 583.486,-60.3511 L 583.904,-59.627 L 584.163,-58.8316 L 584.25,-58
 L 584.25,-24.2903 L 584.144,-23.3768 L 583.869,-22.5871 L 583.436,-21.8718 L 582.864,-21.2623 L 582.177,-20.785
 L 581.406,-20.461 L 580.585,-20.3044 z
M 1386.09,-20.461 L 1385.32,-20.785 L 1384.64,-21.2623 L 1384.06,-21.8718 L 1383.63,-22.5871 L 1383.36,-23.3768
 L 1383.25,-24.2903 L 1383.25,-58 L 1383.34,-58.8316 L 1383.6,-59.627 L 1384.01,-60.3511 L 1384.57,-60.9726
 L 1385.25,-61.4641 L 1386.01,-61.8042 L 1387.25,-62 L 1484.04,-62 L 1484.87,-61.9126 L 1485.67,-61.6542
 L 1486.39,-61.2361 L 1487.01,-60.6765 L 1487.51,-60 L 1487.85,-59.2361 L 1488.02,-58.4181 L 1488.02,-57.5819
 L 1487.85,-56.7639 L 1487.51,-56 L 1487.01,-55.3235 L 1486.39,-54.7639 L 1485.36,-54.2225 L 1388.57,-20.5129
 L 1387.75,-20.3219 L 1386.92,-20.3044 z
M 774.999,-20.3219 L 774.184,-20.5129 L 677.393,-54.2225 L 676.357,-54.7639 L 675.736,-55.3235 L 675.245,-56
 L 674.904,-56.7639 L 674.731,-57.5819 L 674.731,-58.4181 L 674.904,-59.2361 L 675.245,-60 L 675.736,-60.6765
 L 676.357,-61.2361 L 677.082,-61.6542 L 677.877,-61.9126 L 678.709,-62 L 775.5,-62 L 776.736,-61.8042
 L 777.5,-61.4641 L 778.177,-60.9726 L 778.736,-60.3511 L 779.154,-59.627 L 779.413,-58.8316 L 779.5,-58
 L 779.5,-24.2903 L 779.394,-23.3768 L 779.119,-22.5871 L 778.686,-21.8718 L 778.114,-21.2623 L 777.427,-20.785
 L 776.656,-20.461 L 775.835,-20.3044 z
M 189.249,-20.3219 L 188.434,-20.5129 L 91.6431,-54.2225 L 90.6075,-54.7639 L 89.9861,-55.3235 L 89.4945,-56
 L 89.1544,-56.7639 L 88.9805,-57.5819 L 88.9805,-58.4181 L 89.1544,-59.2361 L 89.4945,-60 L 89.9861,-60.6765
 L 90.6075,-61.2361 L 91.3317,-61.6542 L 92.127,-61.9126 L 92.9586,-62 L 189.75,-62 L 190.986,-61.8042
 L 191.75,-61.4641 L 192.427,-60.9726 L 192.986,-60.3511 L 193.404,-59.627 L 193.663,-58.8316 L 193.75,-58
 L 193.75,-24.2903 L 193.644,-23.3768 L 193.369,-22.5871 L 192.936,-21.8718 L 192.364,-21.2623 L 191.677,-20.785
 L 190.906,-20.461 L 190.085,-20.3044 z
M 800.344,-20.461 L 799.573,-20.785 L 798.886,-21.2623 L 798.314,-21.8718 L 797.881,-22.5871 L 797.606,-23.3768
 L 797.5,-24.2903 L 797.5,-58 L 797.587,-58.8316 L 797.846,-59.627 L 798.264,-60.3511 L 798.823,-60.9726
 L 799.5,-61.4641 L 800.264,-61.8042 L 801.5,-62 L 898.291,-62 L 899.123,-61.9126 L 899.918,-61.6542
 L 900.643,-61.2361 L 901.264,-60.6765 L 901.755,-60 L 902.096,-59.2361 L 902.269,-58.4181 L 902.269,-57.5819
 L 902.096,-56.7639 L 901.755,-56 L 901.264,-55.3235 L 900.643,-54.7639 L 899.607,-54.2225 L 802.816,-20.5129
 L 802.001,-20.3219 L 801.165,-20.3044 z
M 995.594,-20.461 L 994.823,-20.785 L 994.136,-21.2623 L 993.564,-21.8718 L 993.131,-22.5871 L 992.856,-23.3768
 L 992.75,-24.2903 L 992.75,-58 L 992.837,-58.8316 L 993.096,-59.627 L 993.514,-60.3511 L 994.073,-60.9726
 L 994.75,-61.4641 L 995.514,-61.8042 L 996.75,-62 L 1093.54,-62 L 1094.37,-61.9126 L 1095.17,-61.6542
 L 1095.89,-61.2361 L 1096.51,-60.6765 L 1097.01,-60 L 1097.35,-59.2361 L 1097.52,-58.4181 L 1097.52,-57.5819
 L 1097.35,-56.7639 L 1097.01,-56 L 1096.51,-55.3235 L 1095.89,-54.7639 L 1094.86,-54.2225 L 998.066,-20.5129
 L 997.251,-20.3219 L 996.415,-20.3044 z
M 1190.84,-20.461 L 1190.07,-20.785 L 1189.39,-21.2623 L 1188.81,-21.8718 L 1188.38,-22.5871 L 1188.11,-23.3768
 L 1188,-24.2903 L 1188,-58 L 1188.09,-58.8316 L 1188.35,-59.627 L 1188.76,-60.3511 L 1189.32,-60.9726
 L 1190,-61.4641 L 1190.76,-61.8042 L 1192,-62 L 1288.79,-62 L 1289.62,-61.9126 L 1290.42,-61.6542
 L 1291.14,-61.2361 L 1291.76,-60.6765 L 1292.26,-60 L 1292.6,-59.2361 L 1292.77,-58.4181 L 1292.77,-57.5819
 L 1292.6,-56.7639 L 1292.26,-56 L 1291.76,-55.3235 L 1291.14,-54.7639 L 1290.11,-54.2225 L 1193.32,-20.5129
 L 1192.5,-20.3219 L 1191.67,-20.3044 z
M 215.75,-18 L 214.514,-18.1958 L 213.75,-18.5359 L 213.073,-19.0274 L 212.514,-19.6489 L 212.096,-20.373
 L 211.837,-21.1684 L 211.75,-22 L 211.75,-55.7097 L 211.856,-56.6232 L 212.131,-57.4129 L 212.564,-58.1281
 L 213.136,-58.7377 L 213.823,-59.2149 L 214.594,-59.539 L 215.415,-59.6956 L 216.251,-59.6781 L 217.066,-59.4871
 L 313.857,-25.7775 L 314.892,-25.2361 L 315.514,-24.6765 L 316.005,-24 L 316.346,-23.2361 L 316.519,-22.4181
 L 316.519,-21.5819 L 316.346,-20.7639 L 316.005,-20 L 315.514,-19.3235 L 314.892,-18.7639 L 314.168,-18.3458
 L 313.373,-18.0874 L 312.541,-18 z
M 411,-18 L 409.764,-18.1958 L 409,-18.5359 L 408.323,-19.0274 L 407.764,-19.6489 L 407.346,-20.373
 L 407.087,-21.1684 L 407,-22 L 407,-55.7097 L 407.106,-56.6232 L 407.381,-57.4129 L 407.814,-58.1281
 L 408.386,-58.7377 L 409.073,-59.2149 L 409.844,-59.539 L 410.665,-59.6956 L 411.501,-59.6781 L 412.316,-59.4871
 L 509.107,-25.7775 L 510.142,-25.2361 L 510.764,-24.6765 L 511.255,-24 L 511.596,-23.2361 L 511.769,-22.4181
 L 511.769,-21.5819 L 511.596,-20.7639 L 511.255,-20 L 510.764,-19.3235 L 510.142,-18.7639 L 509.418,-18.3458
 L 508.623,-18.0874 L 507.791,-18 z
M 606.25,-18 L 605.014,-18.1958 L 604.25,-18.5359 L 603.573,-19.0274 L 603.014,-19.6489 L 602.596,-20.373
 L 602.337,-21.1684 L 602.25,-22 L 602.25,-55.7097 L 602.356,-56.6232 L 602.631,-57.4129 L 603.064,-58.1281
 L 603.636,-58.7377 L 604.323,-59.2149 L 605.094,-59.539 L 605.915,-59.6956 L 606.751,-59.6781 L 607.566,-59.4871
 L 704.357,-25.7775 L 705.392,-25.2361 L 706.014,-24.6765 L 706.505,-24 L 706.846,-23.2361 L 707.019,-22.4181
 L 707.019,-21.5819 L 706.846,-20.7639 L 706.505,-20 L 706.014,-19.3235 L 705.392,-18.7639 L 704.668,-18.3458
 L 703.873,-18.0874 L 703.041,-18 z
M 873.959,-18 L 873.127,-18.0874 L 872.332,-18.3458 L 871.608,-18.7639 L 870.986,-19.3235 L 870.495,-20
 L 870.154,-20.7639 L 869.981,-21.5819 L 869.981,-22.4181 L 870.154,-23.2361 L 870.495,-24 L 870.986,-24.6765
 L 871.608,-25.2361 L 872.643,-25.7775 L 969.434,-59.4871 L 970.249,-59.6781 L 971.085,-59.6956 L 971.906,-59.539
 L 972.677,-59.2149 L 973.364,-58.7377 L 973.936,-58.1281 L 974.369,-57.4129 L 974.644,-56.6232 L 974.75,-55.7097
 L 974.75,-22 L 974.663,-21.1684 L 974.404,-20.373 L 973.986,-19.6489 L 973.427,-19.0274 L 972.75,-18.5359
 L 971.986,-18.1958 L 970.75,-18 z
M 1069.21,-18 L 1068.38,-18.0874 L 1067.58,-18.3458 L 1066.86,-18.7639 L 1066.24,-19.3235 L 1065.74,-20
 L 1065.4,-20.7639 L 1065.23,-21.5819 L 1065.23,-22.4181 L 1065.4,-23.2361 L 1065.74,-24 L 1066.24,-24.6765
 L 1066.86,-25.2361 L 1067.89,-25.7775 L 1164.68,-59.4871 L 1165.5,-59.6781 L 1166.33,-59.6956 L 1167.16,-59.539
 L 1167.93,-59.2149 L 1168.61,-58.7377 L 1169.19,-58.1281 L 1169.62,-57.4129 L 1169.89,-56.6232 L 1170,-55.7097
 L 1170,-22 L 1169.91,-21.1684 L 1169.65,-20.373 L 1169.24,-19.6489 L 1168.68,-19.0274 L 1168,-18.5359
 L 1167.24,-18.1958 L 1166,-18 z
M 1264.46,-18 L 1263.63,-18.0874 L 1262.83,-18.3458 L 1262.11,-18.7639 L 1261.49,-19.3235 L 1260.99,-20
 L 1260.65,-20.7639 L 1260.48,-21.5819 L 1260.48,-22.4181 L 1260.65,-23.2361 L 1260.99,-24 L 1261.49,-24.6765
 L 1262.11,-25.2361 L 1263.14,-25.7775 L 1359.93,-59.4871 L 1360.75,-59.6781 L 1361.58,-59.6956 L 1362.41,-59.539
 L 1363.18,-59.2149 L 1363.86,-58.7377 L 1364.44,-58.1281 L 1364.87,-57.4129 L 1365.14,-56.6232 L 1365.25,-55.7097
 L 1365.25,-22 L 1365.16,-21.1684 L 1364.9,-20.373 L 1364.49,-19.6489 L 1363.93,-19.0274 L 1363.25,-18.5359
 L 1362.49,-18.1958 L 1361.25,-18 z
M 1459.71,-18 L 1458.88,-18.0874 L 1458.08,-18.3458 L 1457.36,-18.7639 L 1456.74,-19.3235 L 1456.24,-20
 L 1455.9,-20.7639 L 1455.73,-21.5819 L 1455.73,-22.4181 L 1455.9,-23.2361 L 1456.24,-24 L 1456.74,-24.6765
 L 1457.36,-25.2361 L 1458.39,-25.7775 L 1553.68,-58.9647 L 1554.5,-59.1557 L 1555.33,-59.1732 L 1556.16,-59.0166
 L 1556.93,-58.6925 L 1557.61,-58.2153 L 1558.19,-57.6057 L 1558.62,-56.8905 L 1558.89,-56.1008 L 1559,-55.1872
 L 1559,-22 L 1558.91,-21.1684 L 1558.65,-20.373 L 1558.24,-19.6489 L 1557.68,-19.0274 L 1557,-18.5359
 L 1556.24,-18.1958 L 1555,-18 z
M 22,-18 L 20.7639,-18.1958 L 20,-18.5359 L 19.3235,-19.0274 L 18.7639,-19.6489 L 18.3458,-20.373
 L 18.0874,-21.1684 L 18,-22 L 18,-55.1872 L 18.1057,-56.1008 L 18.3807,-56.8905 L 18.8139,-57.6057
 L 19.3864,-58.2153 L 20.0731,-58.6925 L 20.844,-59.0166 L 21.6654,-59.1732 L 22.5014,-59.1557 L 23.3156,-58.9647
 L 118.607,-25.7775 L 119.642,-25.2361 L 120.264,-24.6765 L 120.755,-24 L 121.096,-23.2361 L 121.269,-22.4181
 L 121.269,-21.5819 L 121.096,-20.7639 L 120.755,-20 L 120.264,-19.3235 L 119.642,-18.7639 L 118.918,-18.3458
 L 118.123,-18.0874 L 117.291,-18 z
" stroke="black" fill="lightgray" stroke-width="0.5"/>
</svg>
