<?xml version="1.0" standalone="no"?>
<!DOCTYPE svg PUBLIC "-//W3C//DTD SVG 1.1//EN" "http://www.w3.org/Graphics/SVG/1.1/DTD/svg11.dtd">
<svg width="1589mm" height="80mm" viewBox="0 -80 1589 80" xmlns="http://www.w3.org/2000/svg" version="1.1">
<title>OpenSCAD Model</title>
<path d="
M 1589,-80 L 0,-80 L 0,-0 L 4.95,-0 L 4.95,-6 L 5.00572,-6.53017
 L 5.17046,-7.03717 L 5.437,-7.49884 L 5.79372,-7.895 L 6.22499,-8.20836 L 6.71201,-8.42519 L 7.23344,-8.53603
 L 7.76654,-8.53603 L 8.28798,-8.42519 L 8.77499,-8.20836 L 9.20627,-7.895 L 9.56299,-7.49884 L 9.82953,-7.03717
 L 9.99426,-6.53017 L 10.05,-6 L 10.05,-0 L 201.7,-0 L 201.7,-6 L 201.756,-6.53017
 L 201.92,-7.03717 L 202.187,-7.49884 L 202.544,-7.895 L 202.975,-8.20836 L 203.462,-8.42519 L 203.983,-8.53603
 L 204.517,-8.53603 L 205.038,-8.42519 L 205.525,-8.20836 L 205.956,-7.895 L 206.313,-7.49884 L 206.58,-7.03717
 L 206.744,-6.53017 L 206.8,-6 L 206.8,-0 L 398.45,-0 L 398.45,-6 L 398.506,-6.53017
 L 398.67,-7.03717 L 398.937,-7.49884 L 399.294,-7.895 L 399.725,-8.20836 L 400.212,-8.42519 L 400.733,-8.53603
 L 401.267,-8.53603 L 401.788,-8.42519 L 402.275,-8.20836 L 402.706,-7.895 L 403.063,-7.49884 L 403.33,-7.03717
 L 403.494,-6.53017 L 403.55,-6 L 403.55,-0 L 595.2,-0 L 595.2,-6 L 595.256,-6.53017
 L 595.42,-7.03717 L 595.687,-7.49884 L 596.044,-7.895 L 596.475,-8.20836 L 596.962,-8.42519 L 597.483,-8.53603
 L 598.017,-8.53603 L 598.538,-8.42519 L 599.025,-8.20836 L 599.456,-7.895 L 599.813,-7.49884 L 600.08,-7.03717
 L 600.244,-6.53017 L 600.3,-6 L 600.3,-0 L 791.95,-0 L 791.95,-6 L 792.006,-6.53017
 L 792.17,-7.03717 L 792.437,-7.49884 L 792.794,-7.895 L 793.225,-8.20836 L 793.712,-8.42519 L 794.233,-8.53603
 L 794.767,-8.53603 L 795.288,-8.42519 L 795.775,-8.20836 L 796.206,-7.895 L 796.563,-7.49884 L 796.83,-7.03717
 L 796.994,-6.53017 L 797.05,-6 L 797.05,-0 L 988.7,-0 L 988.7,-6 L 988.756,-6.53017
 L 988.92,-7.03717 L 989.187,-7.49884 L 989.544,-7.895 L 989.975,-8.20836 L 990.462,-8.42519 L 990.983,-8.53603
 L 991.517,-8.53603 L 992.038,-8.42519 L 992.525,-8.20836 L 992.956,-7.895 L 993.313,-7.49884 L 993.58,-7.03717
 L 993.744,-6.53017 L 993.8,-6 L 993.8,-0 L 1185.45,-0 L 1185.45,-6 L 1185.51,-6.53017
 L 1185.67,-7.03717 L 1185.94,-7.49884 L 1186.29,-7.895 L 1186.72,-8.20836 L 1187.21,-8.42519 L 1187.73,-8.53603
 L 1188.27,-8.53603 L 1188.79,-8.42519 L 1189.27,-8.20836 L 1189.71,-7.895 L 1190.06,-7.49884 L 1190.33,-7.03717
 L 1190.49,-6.53017 L 1190.55,-6 L 1190.55,-0 L 1382.2,-0 L 1382.2,-6 L 1382.26,-6.53017
 L 1382.42,-7.03717 L 1382.69,-7.49884 L 1383.04,-7.895 L 1383.47,-8.20836 L 1383.96,-8.42519 L 1384.48,-8.53603
 L 1385.02,-8.53603 L 1385.54,-8.42519 L 1386.02,-8.20836 L 1386.46,-7.895 L 1386.81,-7.49884 L 1387.08,-7.03717
 L 1387.24,-6.53017 L 1387.3,-6 L 1387.3,-0 L 1578.95,-0 L 1578.95,-6 L 1579.01,-6.53017
 L 1579.17,-7.03717 L 1579.44,-7.49884 L 1579.79,-7.895 L 1580.22,-8.20836 L 1580.71,-8.42519 L 1581.23,-8.53603
 L 1581.77,-8.53603 L 1582.29,-8.42519 L 1582.77,-8.20836 L 1583.21,-7.895 L 1583.56,-7.49884 L 1583.83,-7.03717
 L 1583.99,-6.53017 L 1584.05,-6 L 1584.05,-0 L 1589,-0 z
M 203.736,-55.607 L 203.227,-55.6875 L 202.73,-55.8208 L 202.249,-56.0054 L 201.79,-56.2392 L 201.358,-56.5196
 L 200.958,-56.8437 L 200.594,-57.2079 L 200.27,-57.6081 L 199.989,-58.04 L 199.755,-58.4989 L 199.571,-58.9796
 L 199.438,-59.4771 L 199.357,-59.9857 L 199.33,-60.5 L 199.357,-61.0143 L 199.438,-61.5229 L 199.571,-62.0204
 L 199.755,-62.5011 L 199.989,-62.96 L 200.27,-63.3919 L 200.594,-63.7921 L 200.958,-64.1563 L 201.358,-64.4804
 L 201.7,-64.7024 L 201.7,-74 L 201.756,-74.5302 L 201.92,-75.0372 L 202.187,-75.4988 L 202.544,-75.895
 L 202.975,-76.2084 L 203.462,-76.4252 L 203.983,-76.536 L 204.517,-76.536 L 205.038,-76.4252 L 205.525,-76.2084
 L 205.956,-75.895 L 206.313,-75.4988 L 206.58,-75.0372 L 206.744,-74.5302 L 206.8,-74 L 206.8,-64.7024
 L 207.142,-64.4804 L 207.542,-64.1563 L 207.906,-63.7921 L 208.23,-63.3919 L 208.511,-62.96 L 208.745,-62.5011
 L 208.929,-62.0204 L 209.062,-61.5229 L 209.143,-61.0143 L 209.17,-60.5 L 209.143,-59.9857 L 209.062,-59.4771
 L 208.929,-58.9796 L 208.745,-58.4989 L 208.511,-58.04 L 208.23,-57.6081 L 207.906,-57.2079 L 207.542,-56.8437
 L 207.142,-56.5196 L 206.71,-56.2392 L 206.251,-56.0054 L 205.77,-55.8208 L 205.273,-55.6875 L 204.764,-55.607
 L 204.25,-55.58 z
M 1187.49,-55.607 L 1186.98,-55.6875 L 1186.48,-55.8208 L 1186,-56.0054 L 1185.54,-56.2392 L 1185.11,-56.5196
 L 1184.71,-56.8437 L 1184.34,-57.2079 L 1184.02,-57.6081 L 1183.74,-58.04 L 1183.51,-58.4989 L 1183.32,-58.9796
 L 1183.19,-59.4771 L 1183.11,-59.9857 L 1183.08,-60.5 L 1183.11,-61.0143 L 1183.19,-61.5229 L 1183.32,-62.0204
 L 1183.51,-62.5011 L 1183.74,-62.96 L 1184.02,-63.3919 L 1184.34,-63.7921 L 1184.71,-64.1563 L 1185.11,-64.4804
 L 1185.45,-64.7024 L 1185.45,-74 L 1185.51,-74.5302 L 1185.67,-75.0372 L 1185.94,-75.4988 L 1186.29,-75.895
 L 1186.73,-76.2084 L 1187.21,-76.4252 L 1187.73,-76.536 L 1188.27,-76.536 L 1188.79,-76.4252 L 1189.27,-76.2084
 L 1189.71,-75.895 L 1190.06,-75.4988 L 1190.33,-75.0372 L 1190.49,-74.5302 L 1190.55,-74 L 1190.55,-64.7024
 L 1190.89,-64.4804 L 1191.29,-64.1563 L 1191.66,-63.7921 L 1191.98,-63.3919 L 1192.26,-62.96 L 1192.49,-62.5011
 L 1192.68,-62.0204 L 1192.81,-61.5229 L 1192.89,-61.0143 L 1192.92,-60.5 L 1192.89,-59.9857 L 1192.81,-59.4771
 L 1192.68,-58.9796 L 1192.49,-58.4989 L 1192.26,-58.04 L 1191.98,-57.6081 L 1191.66,-57.2079 L 1191.29,-56.8437
 L 1190.89,-56.5196 L 1190.46,-56.2392 L 1190,-56.0054 L 1189.52,-55.8208 L 1189.02,-55.6875 L 1188.51,-55.607
 L 1188,-55.58 z
M 990.736,-55.607 L 990.227,-55.6875 L 989.73,-55.8208 L 989.249,-56.0054 L 988.79,-56.2392 L 988.358,-56.5196
 L 987.958,-56.8437 L 987.594,-57.2079 L 987.27,-57.6081 L 986.989,-58.04 L 986.755,-58.4989 L 986.571,-58.9796
 L 986.438,-59.4771 L 986.357,-59.9857 L 986.33,-60.5 L 986.357,-61.0143 L 986.438,-61.5229 L 986.571,-62.0204
 L 986.755,-62.5011 L 986.989,-62.96 L 987.27,-63.3919 L 987.594,-63.7921 L 987.958,-64.1563 L 988.358,-64.4804
 L 988.7,-64.7024 L 988.7,-74 L 988.756,-74.5302 L 988.92,-75.0372 L 989.187,-75.4988 L 989.544,-75.895
 L 989.975,-76.2084 L 990.462,-76.4252 L 990.983,-76.536 L 991.517,-76.536 L 992.038,-76.4252 L 992.525,-76.2084
 L 992.956,-75.895 L 993.313,-75.4988 L 993.58,-75.0372 L 993.744,-74.5302 L 993.8,-74 L 993.8,-64.7024
 L 994.142,-64.4804 L 994.542,-64.1563 L 994.906,-63.7921 L 995.23,-63.3919 L 995.511,-62.96 L 995.745,-62.5011
 L 995.929,-62.0204 L 996.062,-61.5229 L 996.143,-61.0143 L 996.17,-60.5 L 996.143,-59.9857 L 996.062,-59.4771
 L 995.929,-58.9796 L 995.745,-58.4989 L 995.511,-58.04 L 995.23,-57.6081 L 994.906,-57.2079 L 994.542,-56.8437
 L 994.142,-56.5196 L 993.71,-56.2392 L 993.251,-56.0054 L 992.77,-55.8208 L 992.273,-55.6875 L 991.764,-55.607
 L 991.25,-55.58 z
M 6.98573,-55.607 L 6.47708,-55.6875 L 5.97964,-55.8208 L 5.49887,-56.0054 L 5.04001,-56.2392 L 4.60811,-56.5196
 L 4.20789,-56.8437 L 3.84373,-57.2079 L 3.51964,-57.6081 L 3.23917,-58.04 L 3.00537,-58.4989 L 2.82082,-58.9796
 L 2.68752,-59.4771 L 2.60696,-59.9857 L 2.58,-60.5 L 2.60696,-61.0143 L 2.68752,-61.5229 L 2.82082,-62.0204
 L 3.00537,-62.5011 L 3.23917,-62.96 L 3.51964,-63.3919 L 3.84373,-63.7921 L 4.20789,-64.1563 L 4.60811,-64.4804
 L 4.95001,-64.7024 L 4.95001,-74 L 5.00574,-74.5302 L 5.17047,-75.0372 L 5.43701,-75.4988 L 5.79373,-75.895
 L 6.22501,-76.2084 L 6.71202,-76.4252 L 7.23346,-76.536 L 7.76654,-76.536 L 8.28798,-76.4252 L 8.77499,-76.2084
 L 9.20627,-75.895 L 9.56299,-75.4988 L 9.82953,-75.0372 L 9.99426,-74.5302 L 10.05,-74 L 10.05,-64.7024
 L 10.3919,-64.4804 L 10.7921,-64.1563 L 11.1563,-63.7921 L 11.4804,-63.3919 L 11.7608,-62.96 L 11.9946,-62.5011
 L 12.1792,-62.0204 L 12.3125,-61.5229 L 12.393,-61.0143 L 12.42,-60.5 L 12.393,-59.9857 L 12.3125,-59.4771
 L 12.1792,-58.9796 L 11.9946,-58.4989 L 11.7608,-58.04 L 11.4804,-57.6081 L 11.1563,-57.2079 L 10.7921,-56.8437
 L 10.3919,-56.5196 L 9.95999,-56.2392 L 9.50113,-56.0054 L 9.02036,-55.8208 L 8.52292,-55.6875 L 8.01427,-55.607
 L 7.5,-55.58 z
M 793.986,-55.607 L 793.477,-55.6875 L 792.98,-55.8208 L 792.499,-56.0054 L 792.04,-56.2392 L 791.608,-56.5196
 L 791.208,-56.8437 L 790.844,-57.2079 L 790.52,-57.6081 L 790.239,-58.04 L 790.005,-58.4989 L 789.821,-58.9796
 L 789.688,-59.4771 L 789.607,-59.9857 L 789.58,-60.5 L 789.607,-61.0143 L 789.688,-61.5229 L 789.821,-62.0204
 L 790.005,-62.5011 L 790.239,-62.96 L 790.52,-63.3919 L 790.844,-63.7921 L 791.208,-64.1563 L 791.608,-64.4804
 L 791.95,-64.7024 L 791.95,-74 L 792.006,-74.5302 L 792.17,-75.0372 L 792.437,-75.4988 L 792.794,-75.895
 L 793.225,-76.2084 L 793.712,-76.4252 L 794.233,-76.536 L 794.767,-76.536 L 795.288,-76.4252 L 795.775,-76.2084
 L 796.206,-75.895 L 796.563,-75.4988 L 796.83,-75.0372 L 796.994,-74.5302 L 797.05,-74 L 797.05,-64.7024
 L 797.392,-64.4804 L 797.792,-64.1563 L 798.156,-63.7921 L 798.48,-63.3919 L 798.761,-62.96 L 798.995,-62.5011
 L 799.179,-62.0204 L 799.312,-61.5229 L 799.393,-61.0143 L 799.42,-60.5 L 799.393,-59.9857 L 799.312,-59.4771
 L 799.179,-58.9796 L 798.995,-58.4989 L 798.761,-58.04 L 798.48,-57.6081 L 798.156,-57.2079 L 797.792,-56.8437
 L 797.392,-56.5196 L 796.96,-56.2392 L 796.501,-56.0054 L 796.02,-55.8208 L 795.523,-55.6875 L 795.014,-55.607
 L 794.5,-55.58 z
M 1384.24,-55.607 L 1383.73,-55.6875 L 1383.23,-55.8208 L 1382.75,-56.0054 L 1382.29,-56.2392 L 1381.86,-56.5196
 L 1381.46,-56.8437 L 1381.09,-57.2079 L 1380.77,-57.6081 L 1380.49,-58.04 L 1380.26,-58.4989 L 1380.07,-58.9796
 L 1379.94,-59.4771 L 1379.86,-59.9857 L 1379.83,-60.5 L 1379.86,-61.0143 L 1379.94,-61.5229 L 1380.07,-62.0204
 L 1380.26,-62.5011 L 1380.49,-62.96 L 1380.77,-63.3919 L 1381.09,-63.7921 L 1381.46,-64.1563 L 1381.86,-64.4804
 L 1382.2,-64.7024 L 1382.2,-74 L 1382.26,-74.5302 L 1382.42,-75.0372 L 1382.69,-75.4988 L 1383.04,-75.895
 L 1383.48,-76.2084 L 1383.96,-76.4252 L 1384.48,-76.536 L 1385.02,-76.536 L 1385.54,-76.4252 L 1386.02,-76.2084
 L 1386.46,-75.895 L 1386.81,-75.4988 L 1387.08,-75.0372 L 1387.24,-74.5302 L 1387.3,-74 L 1387.3,-64.7024
 L 1387.64,-64.4804 L 1388.04,-64.1563 L 1388.41,-63.7921 L 1388.73,-63.3919 L 1389.01,-62.96 L 1389.24,-62.5011
 L 1389.43,-62.0204 L 1389.56,-61.5229 L 1389.64,-61.0143 L 1389.67,-60.5 L 1389.64,-59.9857 L 1389.56,-59.4771
 L 1389.43,-58.9796 L 1389.24,-58.4989 L 1389.01,-58.04 L 1388.73,-57.6081 L 1388.41,-57.2079 L 1388.04,-56.8437
 L 1387.64,-56.5196 L 1387.21,-56.2392 L 1386.75,-56.0054 L 1386.27,-55.8208 L 1385.77,-55.6875 L 1385.26,-55.607
 L 1384.75,-55.58 z
M 597.236,-55.607 L 596.727,-55.6875 L 596.23,-55.8208 L 595.749,-56.0054 L 595.29,-56.2392 L 594.858,-56.5196
 L 594.458,-56.8437 L 594.094,-57.2079 L 593.77,-57.6081 L 593.489,-58.04 L 593.255,-58.4989 L 593.071,-58.9796
 L 592.938,-59.4771 L 592.857,-59.9857 L 592.83,-60.5 L 592.857,-61.0143 L 592.938,-61.5229 L 593.071,-62.0204
 L 593.255,-62.5011 L 593.489,-62.96 L 593.77,-63.3919 L 594.094,-63.7921 L 594.458,-64.1563 L 594.858,-64.4804
 L 595.2,-64.7024 L 595.2,-74 L 595.256,-74.5302 L 595.42,-75.0372 L 595.687,-75.4988 L 596.044,-75.895
 L 596.475,-76.2084 L 596.962,-76.4252 L 597.483,-76.536 L 598.017,-76.536 L 598.538,-76.4252 L 599.025,-76.2084
 L 599.456,-75.895 L 599.813,-75.4988 L 600.08,-75.0372 L 600.244,-74.5302 L 600.3,-74 L 600.3,-64.7024
 L 600.642,-64.4804 L 601.042,-64.1563 L 601.406,-63.7921 L 601.73,-63.3919 L 602.011,-62.96 L 602.245,-62.5011
 L 602.429,-62.0204 L 602.562,-61.5229 L 602.643,-61.0143 L 602.67,-60.5 L 602.643,-59.9857 L 602.562,-59.4771
 L 602.429,-58.9796 L 602.245,-58.4989 L 602.011,-58.04 L 601.73,-57.6081 L 601.406,-57.2079 L 601.042,-56.8437
 L 600.642,-56.5196 L 600.21,-56.2392 L 599.751,-56.0054 L 599.27,-55.8208 L 598.773,-55.6875 L 598.264,-55.607
 L 597.75,-55.58 z
M 400.486,-55.607 L 399.977,-55.6875 L 399.48,-55.8208 L 398.999,-56.0054 L 398.54,-56.2392 L 398.108,-56.5196
 L 397.708,-56.8437 L 397.344,-57.2079 L 397.02,-57.6081 L 396.739,-58.04 L 396.505,-58.4989 L 396.321,-58.9796
 L 396.188,-59.4771 L 396.107,-59.9857 L 396.08,-60.5 L 396.107,-61.0143 L 396.188,-61.5229 L 396.321,-62.0204
 L 396.505,-62.5011 L 396.739,-62.96 L 397.02,-63.3919 L 397.344,-63.7921 L 397.708,-64.1563 L 398.108,-64.4804
 L 398.45,-64.7024 L 398.45,-74 L 398.506,-74.5302 L 398.67,-75.0372 L 398.937,-75.4988 L 399.294,-75.895
 L 399.725,-76.2084 L 400.212,-76.4252 L 400.733,-76.536 L 401.267,-76.536 L 401.788,-76.4252 L 402.275,-76.2084
 L 402.706,-75.895 L 403.063,-75.4988 L 403.33,-75.0372 L 403.494,-74.5302 L 403.55,-74 L 403.55,-64.7024
 L 403.892,-64.4804 L 404.292,-64.1563 L 404.656,-63.7921 L 404.98,-63.3919 L 405.261,-62.96 L 405.495,-62.5011
 L 405.679,-62.0204 L 405.812,-61.5229 L 405.893,-61.0143 L 405.92,-60.5 L 405.893,-59.9857 L 405.812,-59.4771
 L 405.679,-58.9796 L 405.495,-58.4989 L 405.261,-58.04 L 404.98,-57.6081 L 404.656,-57.2079 L 404.292,-56.8437
 L 403.892,-56.5196 L 403.46,-56.2392 L 403.001,-56.0054 L 402.52,-55.8208 L 402.023,-55.6875 L 401.514,-55.607
 L 401,-55.58 z
M 1580.99,-55.607 L 1580.48,-55.6875 L 1579.98,-55.8208 L 1579.5,-56.0054 L 1579.04,-56.2392 L 1578.61,-56.5196
 L 1578.21,-56.8437 L 1577.84,-57.2079 L 1577.52,-57.6081 L 1577.24,-58.04 L 1577.01,-58.4989 L 1576.82,-58.9796
 L 1576.69,-59.4771 L 1576.61,-59.9857 L 1576.58,-60.5 L 1576.61,-61.0143 L 1576.69,-61.5229 L 1576.82,-62.0204
 L 1577.01,-62.5011 L 1577.24,-62.96 L 1577.52,-63.3919 L 1577.84,-63.7921 L 1578.21,-64.1563 L 1578.61,-64.4804
 L 1578.95,-64.7024 L 1578.95,-74 L 1579.01,-74.5302 L 1579.17,-75.0372 L 1579.44,-75.4988 L 1579.79,-75.895
 L 1580.23,-76.2084 L 1580.71,-76.4252 L 1581.23,-76.536 L 1581.77,-76.536 L 1582.29,-76.4252 L 1582.77,-76.2084
 L 1583.21,-75.895 L 1583.56,-75.4988 L 1583.83,-75.0372 L 1583.99,-74.5302 L 1584.05,-74 L 1584.05,-64.7024
 L 1584.39,-64.4804 L 1584.79,-64.1563 L 1585.16,-63.7921 L 1585.48,-63.3919 L 1585.76,-62.96 L 1585.99,-62.5011
 L 1586.18,-62.0204 L 1586.31,-61.5229 L 1586.39,-61.0143 L 1586.42,-60.5 L 1586.39,-59.9857 L 1586.31,-59.4771
 L 1586.18,-58.9796 L 1585.99,-58.4989 L 1585.76,-58.04 L 1585.48,-57.6081 L 1585.16,-57.2079 L 1584.79,-56.8437
 L 1584.39,-56.5196 L 1583.96,-56.2392 L 1583.5,-56.0054 L 1583.02,-55.8208 L 1582.52,-55.6875 L 1582.01,-55.607
 L 1581.5,-55.58 z
M 387.508,-20.2755 L 386.693,-20.4646 L 289.028,-54.2194 L 287.983,-54.7639 L 287.362,-55.3235 L 286.87,-56
 L 286.53,-56.7639 L 286.356,-57.5819 L 286.356,-58.4181 L 286.53,-59.2361 L 286.87,-60 L 287.362,-60.6765
 L 287.983,-61.2361 L 288.707,-61.6542 L 289.503,-61.9126 L 290.334,-62 L 388,-62 L 389.236,-61.8042
 L 390,-61.4641 L 390.677,-60.9726 L 391.236,-60.3511 L 391.654,-59.627 L 391.913,-58.8316 L 392,-58
 L 392,-24.2451 L 391.896,-23.3409 L 391.623,-22.5505 L 391.192,-21.8342 L 390.621,-21.2233 L 389.935,-20.7444
 L 389.165,-20.4186 L 388.344,-20.26 z
M 584.258,-20.2755 L 583.443,-20.4646 L 485.778,-54.2194 L 484.733,-54.7639 L 484.112,-55.3235 L 483.62,-56
 L 483.28,-56.7639 L 483.106,-57.5819 L 483.106,-58.4181 L 483.28,-59.2361 L 483.62,-60 L 484.112,-60.6765
 L 484.733,-61.2361 L 485.457,-61.6542 L 486.253,-61.9126 L 487.084,-62 L 584.75,-62 L 585.986,-61.8042
 L 586.75,-61.4641 L 587.427,-60.9726 L 587.986,-60.3511 L 588.404,-59.627 L 588.663,-58.8316 L 588.75,-58
 L 588.75,-24.2451 L 588.646,-23.3409 L 588.373,-22.5505 L 587.942,-21.8342 L 587.371,-21.2233 L 586.685,-20.7444
 L 585.915,-20.4186 L 585.094,-20.26 z
M 1396.58,-20.4186 L 1395.81,-20.7444 L 1395.13,-21.2233 L 1394.56,-21.8342 L 1394.13,-22.5505 L 1393.85,-23.3409
 L 1393.75,-24.2451 L 1393.75,-58 L 1393.84,-58.8316 L 1394.1,-59.627 L 1394.51,-60.3511 L 1395.07,-60.9726
 L 1395.75,-61.4641 L 1396.51,-61.8042 L 1397.75,-62 L 1495.42,-62 L 1496.25,-61.9126 L 1497.04,-61.6542
 L 1497.77,-61.2361 L 1498.39,-60.6765 L 1498.88,-60 L 1499.22,-59.2361 L 1499.39,-58.4181 L 1499.39,-57.5819
 L 1499.22,-56.7639 L 1498.88,-56 L 1498.39,-55.3235 L 1497.77,-54.7639 L 1496.72,-54.2194 L 1399.06,-20.4646
 L 1398.24,-20.2755 L 1397.41,-20.26 z
M 781.008,-20.2755 L 780.193,-20.4646 L 682.528,-54.2194 L 681.483,-54.7639 L 680.862,-55.3235 L 680.37,-56
 L 680.03,-56.7639 L 679.856,-57.5819 L 679.856,-58.4181 L 680.03,-59.2361 L 680.37,-60 L 680.862,-60.6765
 L 681.483,-61.2361 L 682.207,-61.6542 L 683.003,-61.9126 L 683.834,-62 L 781.5,-62 L 782.736,-61.8042
 L 783.5,-61.4641 L 784.177,-60.9726 L 784.736,-60.3511 L 785.154,-59.627 L 785.413,-58.8316 L 785.5,-58
 L 785.5,-24.2451 L 785.396,-23.3409 L 785.123,-22.5505 L 784.692,-21.8342 L 784.121,-21.2233 L 783.435,-20.7444
 L 782.665,-20.4186 L 781.844,-20.26 z
M 190.758,-20.2755 L 189.943,-20.4646 L 92.2777,-54.2194 L 91.2332,-54.7639 L 90.6117,-55.3235 L 90.1202,-56
 L 89.7801,-56.7639 L 89.6062,-57.5819 L 89.6062,-58.4181 L 89.7801,-59.2361 L 90.1202,-60 L 90.6117,-60.6765
 L 91.2332,-61.2361 L 91.9574,-61.6542 L 92.7527,-61.9126 L 93.5843,-62 L 191.25,-62 L 192.486,-61.8042
 L 193.25,-61.4641 L 193.927,-60.9726 L 194.486,-60.3511 L 194.904,-59.627 L 195.163,-58.8316 L 195.25,-58
 L 195.25,-24.2451 L 195.146,-23.3409 L 194.873,-22.5505 L 194.442,-21.8342 L 193.871,-21.2233 L 193.185,-20.7444
 L 192.415,-20.4186 L 191.594,-20.26 z
M 806.335,-20.4186 L 805.565,-20.7444 L 804.879,-21.2233 L 804.308,-21.8342 L 803.877,-22.5505 L 803.604,-23.3409
 L 803.5,-24.2451 L 803.5,-58 L 803.587,-58.8316 L 803.846,-59.627 L 804.264,-60.3511 L 804.823,-60.9726
 L 805.5,-61.4641 L 806.264,-61.8042 L 807.5,-62 L 905.166,-62 L 905.997,-61.9126 L 906.793,-61.6542
 L 907.517,-61.2361 L 908.138,-60.6765 L 908.63,-60 L 908.97,-59.2361 L 909.144,-58.4181 L 909.144,-57.5819
 L 908.97,-56.7639 L 908.63,-56 L 908.138,-55.3235 L 907.517,-54.7639 L 906.472,-54.2194 L 808.807,-20.4646
 L 807.992,-20.2755 L 807.156,-20.26 z
M 1003.08,-20.4186 L 1002.31,-20.7444 L 1001.63,-21.2233 L 1001.06,-21.8342 L 1000.63,-22.5505 L 1000.35,-23.3409
 L 1000.25,-24.2451 L 1000.25,-58 L 1000.34,-58.8316 L 1000.6,-59.627 L 1001.01,-60.3511 L 1001.57,-60.9726
 L 1002.25,-61.4641 L 1003.01,-61.8042 L 1004.25,-62 L 1101.92,-62 L 1102.75,-61.9126 L 1103.54,-61.6542
 L 1104.27,-61.2361 L 1104.89,-60.6765 L 1105.38,-60 L 1105.72,-59.2361 L 1105.89,-58.4181 L 1105.89,-57.5819
 L 1105.72,-56.7639 L 1105.38,-56 L 1104.89,-55.3235 L 1104.27,-54.7639 L 1103.22,-54.2194 L 1005.56,-20.4646
 L 1004.74,-20.2755 L 1003.91,-20.26 z
M 1199.83,-20.4186 L 1199.06,-20.7444 L 1198.38,-21.2233 L 1197.81,-21.8342 L 1197.38,-22.5505 L 1197.1,-23.3409
 L 1197,-24.2451 L 1197,-58 L 1197.09,-58.8316 L 1197.35,-59.627 L 1197.76,-60.3511 L 1198.32,-60.9726
 L 1199,-61.4641 L 1199.76,-61.8042 L 1201,-62 L 1298.67,-62 L 1299.5,-61.9126 L 1300.29,-61.6542
 L 1301.02,-61.2361 L 1301.64,-60.6765 L 1302.13,-60 L 1302.47,-59.2361 L 1302.64,-58.4181 L 1302.64,-57.5819
 L 1302.47,-56.7639 L 1302.13,-56 L 1301.64,-55.3235 L 1301.02,-54.7639 L 1299.97,-54.2194 L 1202.31,-20.4646
 L 1201.49,-20.2755 L 1200.66,-20.26 z
M 217.25,-18 L 216.014,-18.1958 L 215.25,-18.5359 L 214.573,-19.0274 L 214.014,-19.6489 L 213.596,-20.373
 L 213.337,-21.1684 L 213.25,-22 L 213.25,-55.7548 L 213.354,-56.6591 L 213.627,-57.4495 L 214.058,-58.1658
 L 214.629,-58.7767 L 215.315,-59.2556 L 216.085,-59.5814 L 216.906,-59.74 L 217.742,-59.7245 L 218.557,-59.5354
 L 316.222,-25.7806 L 317.267,-25.2361 L 317.888,-24.6765 L 318.38,-24 L 318.72,-23.2361 L 318.894,-22.4181
 L 318.894,-21.5819 L 318.72,-20.7639 L 318.38,-20 L 317.888,-19.3235 L 317.267,-18.7639 L 316.543,-18.3458
 L 315.747,-18.0874 L 314.916,-18 z
M 414,-18 L 412.764,-18.1958 L 412,-18.5359 L 411.323,-19.0274 L 410.764,-19.6489 L 410.346,-20.373
 L 410.087,-21.1684 L 410,-22 L 410,-55.7548 L 410.104,-56.6591 L 410.377,-57.4495 L 410.808,-58.1658
 L 411.379,-58.7767 L 412.065,-59.2556 L 412.835,-59.5814 L 413.656,-59.74 L 414.492,-59.7245 L 415.307,-59.5354
 L 512.972,-25.7806 L 514.017,-25.2361 L 514.638,-24.6765 L 515.13,-24 L 515.47,-23.2361 L 515.644,-22.4181
 L 515.644,-21.5819 L 515.47,-20.7639 L 515.13,-20 L 514.638,-19.3235 L 514.017,-18.7639 L 513.293,-18.3458
 L 512.497,-18.0874 L 511.666,-18 z
M 610.75,-18 L 609.514,-18.1958 L 608.75,-18.5359 L 608.073,-19.0274 L 607.514,-19.6489 L 607.096,-20.373
 L 606.837,-21.1684 L 606.75,-22 L 606.75,-55.7548 L 606.854,-56.6591 L 607.127,-57.4495 L 607.558,-58.1658
 L 608.129,-58.7767 L 608.815,-59.2556 L 609.585,-59.5814 L 610.406,-59.74 L 611.242,-59.7245 L 612.057,-59.5354
 L 709.722,-25.7806 L 710.767,-25.2361 L 711.388,-24.6765 L 711.88,-24 L 712.22,-23.2361 L 712.394,-22.4181
 L 712.394,-21.5819 L 712.22,-20.7639 L 711.88,-20 L 711.388,-19.3235 L 710.767,-18.7639 L 710.043,-18.3458
 L 709.247,-18.0874 L 708.416,-18 z
M 880.584,-18 L 879.753,-18.0874 L 878.957,-18.3458 L 878.233,-18.7639 L 877.612,-19.3235 L 877.12,-20
 L 876.78,-20.7639 L 876.606,-21.5819 L 876.606,-22.4181 L 876.78,-23.2361 L 877.12,-24 L 877.612,-24.6765
 L 878.233,-25.2361 L 879.278,-25.7806 L 976.943,-59.5354 L 977.758,-59.7245 L 978.594,-59.74 L 979.415,-59.5814
 L 980.185,-59.2556 L 980.871,-58.7767 L 981.442,-58.1658 L 981.873,-57.4495 L 982.146,-56.6591 L 982.25,-55.7548
 L 982.25,-22 L 982.163,-21.1684 L 981.904,-20.373 L 981.486,-19.6489 L 980.927,-19.0274 L 980.25,-18.5359
 L 979.486,-18.1958 L 978.25,-18 z
M 1077.33,-18 L 1076.5,-18.0874 L 1075.71,-18.3458 L 1074.98,-18.7639 L 1074.36,-19.3235 L 1073.87,-20
 L 1073.53,-20.7639 L 1073.36,-21.5819 L 1073.36,-22.4181 L 1073.53,-23.2361 L 1073.87,-24 L 1074.36,-24.6765
 L 1074.98,-25.2361 L 1076.03,-25.7806 L 1173.69,-59.5354 L 1174.51,-59.7245 L 1175.34,-59.74 L 1176.17,-59.5814
 L 1176.94,-59.2556 L 1177.62,-58.7767 L 1178.19,-58.1658 L 1178.62,-57.4495 L 1178.9,-56.6591 L 1179,-55.7548
 L 1179,-22 L 1178.91,-21.1684 L 1178.65,-20.373 L 1178.24,-19.6489 L 1177.68,-19.0274 L 1177,-18.5359
 L 1176.24,-18.1958 L 1175,-18 z
M 1274.08,-18 L 1273.25,-18.0874 L 1272.46,-18.3458 L 1271.73,-18.7639 L 1271.11,-19.3235 L 1270.62,-20
 L 1270.28,-20.7639 L 1270.11,-21.5819 L 1270.11,-22.4181 L 1270.28,-23.2361 L 1270.62,-24 L 1271.11,-24.6765
 L 1271.73,-25.2361 L 1272.78,-25.7806 L 1370.44,-59.5354 L 1371.26,-59.7245 L 1372.09,-59.74 L 1372.92,-59.5814
 L 1373.69,-59.2556 L 1374.37,-58.7767 L 1374.94,-58.1658 L 1375.37,-57.4495 L 1375.65,-56.6591 L 1375.75,-55.7548
 L 1375.75,-22 L 1375.66,-21.1684 L 1375.4,-20.373 L 1374.99,-19.6489 L 1374.43,-19.0274 L 1373.75,-18.5359
 L 1372.99,-18.1958 L 1371.75,-18 z
M 1470.83,-18 L 1470,-18.0874 L 1469.21,-18.3458 L 1468.48,-18.7639 L 1467.86,-19.3235 L 1467.37,-20
 L 1467.03,-20.7639 L 1466.86,-21.5819 L 1466.86,-22.4181 L 1467.03,-23.2361 L 1467.37,-24 L 1467.86,-24.6765
 L 1468.48,-25.2361 L 1469.53,-25.7806 L 1565.69,-59.017 L 1566.51,-59.206 L 1567.34,-59.2216 L 1568.17,-59.063
 L 1568.94,-58.7371 L 1569.62,-58.2583 L 1570.19,-57.6474 L 1570.62,-56.9311 L 1570.9,-56.1407 L 1571,-55.2364
 L 1571,-22 L 1570.91,-21.1684 L 1570.65,-20.373 L 1570.24,-19.6489 L 1569.68,-19.0274 L 1569,-18.5359
 L 1568.24,-18.1958 L 1567,-18 z
M 22,-18 L 20.7639,-18.1958 L 20,-18.5359 L 19.3235,-19.0274 L 18.7639,-19.6489 L 18.3458,-20.373
 L 18.0874,-21.1684 L 18,-22 L 18,-55.2364 L 18.1036,-56.1407 L 18.3767,-56.9311 L 18.8082,-57.6474
 L 19.3792,-58.2583 L 20.0648,-58.7371 L 20.8349,-59.063 L 21.656,-59.2216 L 22.4921,-59.206 L 23.3066,-59.017
 L 119.472,-25.7806 L 120.517,-25.2361 L 121.138,-24.6765 L 121.63,-24 L 121.97,-23.2361 L 122.144,-22.4181
 L 122.144,-21.5819 L 121.97,-20.7639 L 121.63,-20 L 121.138,-19.3235 L 120.517,-18.7639 L 119.793,-18.3458
 L 118.997,-18.0874 L 118.166,-18 z
" stroke="black" fill="lightgray" stroke-width="0.5"/>
</svg>
