<?xml version="1.0" standalone="no"?>
<!DOCTYPE svg PUBLIC "-//W3C//DTD SVG 1.1//EN" "http://www.w3.org/Graphics/SVG/1.1/DTD/svg11.dtd">
<svg width="1025mm" height="80mm" viewBox="0 -80 1025 80" xmlns="http://www.w3.org/2000/svg" version="1.1">
<title>OpenSCAD Model</title>
<path d="
M 1025,-80 L 0,-80 L 0,-0 L 4.95,-0 L 4.95,-6 L 5.00572,-6.53017
 L 5.17046,-7.03717 L 5.437,-7.49884 L 5.79372,-7.895 L 6.22499,-8.20836 L 6.71201,-8.42519 L 7.23344,-8.53603
 L 7.76654,-8.53603 L 8.28798,-8.42519 L 8.77499,-8.20836 L 9.20627,-7.895 L 9.56299,-7.49884 L 9.82953,-7.03717
 L 9.99426,-6.53017 L 10.05,-6 L 10.05,-0 L 173.283,-0 L 173.283,-6 L 173.339,-6.53017
 L 173.504,-7.03717 L 173.77,-7.49884 L 174.127,-7.895 L 174.558,-8.20836 L 175.045,-8.42519 L 175.567,-8.53603
 L 176.1,-8.53603 L 176.621,-8.42519 L 177.108,-8.20836 L 177.54,-7.895 L 177.896,-7.49884 L 178.163,-7.03717
 L 178.328,-6.53017 L 178.383,-6 L 178.383,-0 L 341.617,-0 L 341.617,-6 L 341.672,-6.53017
 L 341.837,-7.03717 L 342.104,-7.49884 L 342.46,-7.895 L 342.892,-8.20836 L 343.379,-8.42519 L 343.9,-8.53603
 L 344.433,-8.53603 L 344.955,-8.42519 L 345.442,-8.20836 L 345.873,-7.895 L 346.23,-7.49884 L 346.496,-7.03717
 L 346.661,-6.53017 L 346.717,-6 L 346.717,-0 L 509.95,-0 L 509.95,-6 L 510.006,-6.53017
 L 510.17,-7.03717 L 510.437,-7.49884 L 510.794,-7.895 L 511.225,-8.20836 L 511.712,-8.42519 L 512.233,-8.53603
 L 512.767,-8.53603 L 513.288,-8.42519 L 513.775,-8.20836 L 514.206,-7.895 L 514.563,-7.49884 L 514.83,-7.03717
 L 514.994,-6.53017 L 515.05,-6 L 515.05,-0 L 678.283,-0 L 678.283,-6 L 678.339,-6.53017
 L 678.504,-7.03717 L 678.77,-7.49884 L 679.127,-7.895 L 679.558,-8.20836 L 680.045,-8.42519 L 680.567,-8.53603
 L 681.1,-8.53603 L 681.621,-8.42519 L 682.108,-8.20836 L 682.54,-7.895 L 682.896,-7.49884 L 683.163,-7.03717
 L 683.328,-6.53017 L 683.383,-6 L 683.383,-0 L 846.617,-0 L 846.617,-6 L 846.672,-6.53017
 L 846.837,-7.03717 L 847.104,-7.49884 L 847.46,-7.895 L 847.892,-8.20836 L 848.379,-8.42519 L 848.9,-8.53603
 L 849.433,-8.53603 L 849.955,-8.42519 L 850.442,-8.20836 L 850.873,-7.895 L 851.23,-7.49884 L 851.496,-7.03717
 L 851.661,-6.53017 L 851.717,-6 L 851.717,-0 L 1014.95,-0 L 1014.95,-6 L 1015.01,-6.53017
 L 1015.17,-7.03717 L 1015.44,-7.49884 L 1015.79,-7.895 L 1016.22,-8.20836 L 1016.71,-8.42519 L 1017.23,-8.53603
 L 1017.77,-8.53603 L 1018.29,-8.42519 L 1018.77,-8.20836 L 1019.21,-7.895 L 1019.56,-7.49884 L 1019.83,-7.03717
 L 1019.99,-6.53017 L 1020.05,-6 L 1020.05,-0 L 1025,-0 z
M 6.98573,-55.607 L 6.47708,-55.6875 L 5.97964,-55.8208 L 5.49887,-56.0054 L 5.04001,-56.2392 L 4.60811,-56.5196
 L 4.20789,-56.8437 L 3.84373,-57.2079 L 3.51964,-57.6081 L 3.23917,-58.04 L 3.00537,-58.4989 L 2.82082,-58.9796
 L 2.68752,-59.4771 L 2.60696,-59.9857 L 2.58,-60.5 L 2.60696,-61.0143 L 2.68752,-61.5229 L 2.82082,-62.0204
 L 3.00537,-62.5011 L 3.23917,-62.96 L 3.51964,-63.3919 L 3.84373,-63.7921 L 4.20789,-64.1563 L 4.60811,-64.4804
 L 4.95001,-64.7024 L 4.95001,-74 L 5.00574,-74.5302 L 5.17047,-75.0372 L 5.43701,-75.4988 L 5.79373,-75.895
 L 6.22501,-76.2084 L 6.71202,-76.4252 L 7.23346,-76.536 L 7.76654,-76.536 L 8.28798,-76.4252 L 8.77499,-76.2084
 L 9.20627,-75.895 L 9.56299,-75.4988 L 9.82953,-75.0372 L 9.99426,-74.5302 L 10.05,-74 L 10.05,-64.7024
 L 10.3919,-64.4804 L 10.7921,-64.1563 L 11.1563,-63.7921 L 11.4804,-63.3919 L 11.7608,-62.96 L 11.9946,-62.5011
 L 12.1792,-62.0204 L 12.3125,-61.5229 L 12.393,-61.0143 L 12.42,-60.5 L 12.393,-59.9857 L 12.3125,-59.4771
 L 12.1792,-58.9796 L 11.9946,-58.4989 L 11.7608,-58.04 L 11.4804,-57.6081 L 11.1563,-57.2079 L 10.7921,-56.8437
 L 10.3919,-56.5196 L 9.95999,-56.2392 L 9.50113,-56.0054 L 9.02036,-55.8208 L 8.52292,-55.6875 L 8.01427,-55.607
 L 7.5,-55.58 z
M 175.319,-55.607 L 174.81,-55.6875 L 174.313,-55.8208 L 173.832,-56.0054 L 173.373,-56.2392 L 172.941,-56.5196
 L 172.541,-56.8437 L 172.177,-57.2079 L 171.853,-57.6081 L 171.572,-58.04 L 171.339,-58.4989 L 171.154,-58.9796
 L 171.021,-59.4771 L 170.94,-59.9857 L 170.913,-60.5 L 170.94,-61.0143 L 171.021,-61.5229 L 171.154,-62.0204
 L 171.339,-62.5011 L 171.572,-62.96 L 171.853,-63.3919 L 172.177,-63.7921 L 172.541,-64.1563 L 172.941,-64.4804
 L 173.283,-64.7024 L 173.283,-74 L 173.339,-74.5302 L 173.504,-75.0372 L 173.77,-75.4988 L 174.127,-75.895
 L 174.558,-76.2084 L 175.045,-76.4252 L 175.567,-76.536 L 176.1,-76.536 L 176.621,-76.4252 L 177.108,-76.2084
 L 177.54,-75.895 L 177.896,-75.4988 L 178.163,-75.0372 L 178.328,-74.5302 L 178.383,-74 L 178.383,-64.7024
 L 178.725,-64.4804 L 179.125,-64.1563 L 179.49,-63.7921 L 179.814,-63.3919 L 180.094,-62.96 L 180.328,-62.5011
 L 180.513,-62.0204 L 180.646,-61.5229 L 180.726,-61.0143 L 180.753,-60.5 L 180.726,-59.9857 L 180.646,-59.4771
 L 180.513,-58.9796 L 180.328,-58.4989 L 180.094,-58.04 L 179.814,-57.6081 L 179.49,-57.2079 L 179.125,-56.8437
 L 178.725,-56.5196 L 178.293,-56.2392 L 177.834,-56.0054 L 177.354,-55.8208 L 176.856,-55.6875 L 176.348,-55.607
 L 175.833,-55.58 z
M 343.652,-55.607 L 343.144,-55.6875 L 342.646,-55.8208 L 342.166,-56.0054 L 341.707,-56.2392 L 341.275,-56.5196
 L 340.875,-56.8437 L 340.51,-57.2079 L 340.186,-57.6081 L 339.906,-58.04 L 339.672,-58.4989 L 339.487,-58.9796
 L 339.354,-59.4771 L 339.274,-59.9857 L 339.247,-60.5 L 339.274,-61.0143 L 339.354,-61.5229 L 339.487,-62.0204
 L 339.672,-62.5011 L 339.906,-62.96 L 340.186,-63.3919 L 340.51,-63.7921 L 340.875,-64.1563 L 341.275,-64.4804
 L 341.617,-64.7024 L 341.617,-74 L 341.672,-74.5302 L 341.837,-75.0372 L 342.104,-75.4988 L 342.46,-75.895
 L 342.892,-76.2084 L 343.379,-76.4252 L 343.9,-76.536 L 344.433,-76.536 L 344.955,-76.4252 L 345.442,-76.2084
 L 345.873,-75.895 L 346.23,-75.4988 L 346.496,-75.0372 L 346.661,-74.5302 L 346.717,-74 L 346.717,-64.7024
 L 347.059,-64.4804 L 347.459,-64.1563 L 347.823,-63.7921 L 348.147,-63.3919 L 348.427,-62.96 L 348.661,-62.5011
 L 348.846,-62.0204 L 348.979,-61.5229 L 349.06,-61.0143 L 349.087,-60.5 L 349.06,-59.9857 L 348.979,-59.4771
 L 348.846,-58.9796 L 348.661,-58.4989 L 348.427,-58.04 L 348.147,-57.6081 L 347.823,-57.2079 L 347.459,-56.8437
 L 347.059,-56.5196 L 346.627,-56.2392 L 346.168,-56.0054 L 345.687,-55.8208 L 345.19,-55.6875 L 344.681,-55.607
 L 344.167,-55.58 z
M 511.986,-55.607 L 511.477,-55.6875 L 510.98,-55.8208 L 510.499,-56.0054 L 510.04,-56.2392 L 509.608,-56.5196
 L 509.208,-56.8437 L 508.844,-57.2079 L 508.52,-57.6081 L 508.239,-58.04 L 508.005,-58.4989 L 507.821,-58.9796
 L 507.688,-59.4771 L 507.607,-59.9857 L 507.58,-60.5 L 507.607,-61.0143 L 507.688,-61.5229 L 507.821,-62.0204
 L 508.005,-62.5011 L 508.239,-62.96 L 508.52,-63.3919 L 508.844,-63.7921 L 509.208,-64.1563 L 509.608,-64.4804
 L 509.95,-64.7024 L 509.95,-74 L 510.006,-74.5302 L 510.17,-75.0372 L 510.437,-75.4988 L 510.794,-75.895
 L 511.225,-76.2084 L 511.712,-76.4252 L 512.233,-76.536 L 512.767,-76.536 L 513.288,-76.4252 L 513.775,-76.2084
 L 514.206,-75.895 L 514.563,-75.4988 L 514.83,-75.0372 L 514.994,-74.5302 L 515.05,-74 L 515.05,-64.7024
 L 515.392,-64.4804 L 515.792,-64.1563 L 516.156,-63.7921 L 516.48,-63.3919 L 516.761,-62.96 L 516.995,-62.5011
 L 517.179,-62.0204 L 517.312,-61.5229 L 517.393,-61.0143 L 517.42,-60.5 L 517.393,-59.9857 L 517.312,-59.4771
 L 517.179,-58.9796 L 516.995,-58.4989 L 516.761,-58.04 L 516.48,-57.6081 L 516.156,-57.2079 L 515.792,-56.8437
 L 515.392,-56.5196 L 514.96,-56.2392 L 514.501,-56.0054 L 514.02,-55.8208 L 513.523,-55.6875 L 513.014,-55.607
 L 512.5,-55.58 z
M 680.319,-55.607 L 679.81,-55.6875 L 679.313,-55.8208 L 678.832,-56.0054 L 678.373,-56.2392 L 677.941,-56.5196
 L 677.541,-56.8437 L 677.177,-57.2079 L 676.853,-57.6081 L 676.572,-58.04 L 676.339,-58.4989 L 676.154,-58.9796
 L 676.021,-59.4771 L 675.94,-59.9857 L 675.913,-60.5 L 675.94,-61.0143 L 676.021,-61.5229 L 676.154,-62.0204
 L 676.339,-62.5011 L 676.572,-62.96 L 676.853,-63.3919 L 677.177,-63.7921 L 677.541,-64.1563 L 677.941,-64.4804
 L 678.283,-64.7024 L 678.283,-74 L 678.339,-74.5302 L 678.504,-75.0372 L 678.77,-75.4988 L 679.127,-75.895
 L 679.558,-76.2084 L 680.045,-76.4252 L 680.567,-76.536 L 681.1,-76.536 L 681.621,-76.4252 L 682.108,-76.2084
 L 682.54,-75.895 L 682.896,-75.4988 L 683.163,-75.0372 L 683.328,-74.5302 L 683.383,-74 L 683.383,-64.7024
 L 683.725,-64.4804 L 684.125,-64.1563 L 684.49,-63.7921 L 684.814,-63.3919 L 685.094,-62.96 L 685.328,-62.5011
 L 685.513,-62.0204 L 685.646,-61.5229 L 685.726,-61.0143 L 685.753,-60.5 L 685.726,-59.9857 L 685.646,-59.4771
 L 685.513,-58.9796 L 685.328,-58.4989 L 685.094,-58.04 L 684.814,-57.6081 L 684.49,-57.2079 L 684.125,-56.8437
 L 683.725,-56.5196 L 683.293,-56.2392 L 682.834,-56.0054 L 682.354,-55.8208 L 681.856,-55.6875 L 681.348,-55.607
 L 680.833,-55.58 z
M 848.652,-55.607 L 848.144,-55.6875 L 847.646,-55.8208 L 847.166,-56.0054 L 846.707,-56.2392 L 846.275,-56.5196
 L 845.875,-56.8437 L 845.51,-57.2079 L 845.186,-57.6081 L 844.906,-58.04 L 844.672,-58.4989 L 844.487,-58.9796
 L 844.354,-59.4771 L 844.274,-59.9857 L 844.247,-60.5 L 844.274,-61.0143 L 844.354,-61.5229 L 844.487,-62.0204
 L 844.672,-62.5011 L 844.906,-62.96 L 845.186,-63.3919 L 845.51,-63.7921 L 845.875,-64.1563 L 846.275,-64.4804
 L 846.617,-64.7024 L 846.617,-74 L 846.672,-74.5302 L 846.837,-75.0372 L 847.104,-75.4988 L 847.46,-75.895
 L 847.892,-76.2084 L 848.379,-76.4252 L 848.9,-76.536 L 849.433,-76.536 L 849.955,-76.4252 L 850.442,-76.2084
 L 850.873,-75.895 L 851.23,-75.4988 L 851.496,-75.0372 L 851.661,-74.5302 L 851.717,-74 L 851.717,-64.7024
 L 852.059,-64.4804 L 852.459,-64.1563 L 852.823,-63.7921 L 853.147,-63.3919 L 853.427,-62.96 L 853.661,-62.5011
 L 853.846,-62.0204 L 853.979,-61.5229 L 854.06,-61.0143 L 854.087,-60.5 L 854.06,-59.9857 L 853.979,-59.4771
 L 853.846,-58.9796 L 853.661,-58.4989 L 853.427,-58.04 L 853.147,-57.6081 L 852.823,-57.2079 L 852.459,-56.8437
 L 852.059,-56.5196 L 851.627,-56.2392 L 851.168,-56.0054 L 850.687,-55.8208 L 850.19,-55.6875 L 849.681,-55.607
 L 849.167,-55.58 z
M 1016.99,-55.607 L 1016.48,-55.6875 L 1015.98,-55.8208 L 1015.5,-56.0054 L 1015.04,-56.2392 L 1014.61,-56.5196
 L 1014.21,-56.8437 L 1013.84,-57.2079 L 1013.52,-57.6081 L 1013.24,-58.04 L 1013.01,-58.4989 L 1012.82,-58.9796
 L 1012.69,-59.4771 L 1012.61,-59.9857 L 1012.58,-60.5 L 1012.61,-61.0143 L 1012.69,-61.5229 L 1012.82,-62.0204
 L 1013.01,-62.5011 L 1013.24,-62.96 L 1013.52,-63.3919 L 1013.84,-63.7921 L 1014.21,-64.1563 L 1014.61,-64.4804
 L 1014.95,-64.7024 L 1014.95,-74 L 1015.01,-74.5302 L 1015.17,-75.0372 L 1015.44,-75.4988 L 1015.79,-75.895
 L 1016.23,-76.2084 L 1016.71,-76.4252 L 1017.23,-76.536 L 1017.77,-76.536 L 1018.29,-76.4252 L 1018.77,-76.2084
 L 1019.21,-75.895 L 1019.56,-75.4988 L 1019.83,-75.0372 L 1019.99,-74.5302 L 1020.05,-74 L 1020.05,-64.7024
 L 1020.39,-64.4804 L 1020.79,-64.1563 L 1021.16,-63.7921 L 1021.48,-63.3919 L 1021.76,-62.96 L 1021.99,-62.5011
 L 1022.18,-62.0204 L 1022.31,-61.5229 L 1022.39,-61.0143 L 1022.42,-60.5 L 1022.39,-59.9857 L 1022.31,-59.4771
 L 1022.18,-58.9796 L 1021.99,-58.4989 L 1021.76,-58.04 L 1021.48,-57.6081 L 1021.16,-57.2079 L 1020.79,-56.8437
 L 1020.39,-56.5196 L 1019.96,-56.2392 L 1019.5,-56.0054 L 1019.02,-55.8208 L 1018.52,-55.6875 L 1018.01,-55.607
 L 1017.5,-55.58 z
M 861.199,-21.3824 L 860.413,-21.6685 L 859.704,-22.1116 L 859.102,-22.6926 L 858.635,-23.3858 L 858.322,-24.1612
 L 858.167,-25.2635 L 858.167,-58 L 858.254,-58.8316 L 858.512,-59.627 L 858.931,-60.3511 L 859.49,-60.9726
 L 860.167,-61.4641 L 860.931,-61.8042 L 862.167,-62 L 943.205,-62 L 944.037,-61.9126 L 944.832,-61.6542
 L 945.557,-61.2361 L 946.178,-60.6765 L 946.67,-60 L 947.01,-59.2361 L 947.184,-58.4181 L 947.184,-57.5819
 L 947.01,-56.7639 L 946.67,-56 L 946.178,-55.3235 L 945.557,-54.7639 L 944.704,-54.2912 L 863.665,-21.5547
 L 862.861,-21.3243 L 862.027,-21.266 z
M 330.472,-21.3243 L 329.668,-21.5547 L 248.63,-54.2912 L 247.777,-54.7639 L 247.155,-55.3235 L 246.664,-56
 L 246.324,-56.7639 L 246.15,-57.5819 L 246.15,-58.4181 L 246.324,-59.2361 L 246.664,-60 L 247.155,-60.6765
 L 247.777,-61.2361 L 248.501,-61.6542 L 249.296,-61.9126 L 250.128,-62 L 331.167,-62 L 332.403,-61.8042
 L 333.167,-61.4641 L 333.843,-60.9726 L 334.403,-60.3511 L 334.821,-59.627 L 335.079,-58.8316 L 335.167,-58
 L 335.167,-25.2635 L 335.012,-24.1612 L 334.699,-23.3858 L 334.231,-22.6926 L 333.629,-22.1116 L 332.92,-21.6685
 L 332.135,-21.3824 L 331.306,-21.266 z
M 162.139,-21.3243 L 161.335,-21.5547 L 80.2963,-54.2912 L 79.4434,-54.7639 L 78.822,-55.3235 L 78.3304,-56
 L 77.9903,-56.7639 L 77.8165,-57.5819 L 77.8165,-58.4181 L 77.9903,-59.2361 L 78.3304,-60 L 78.822,-60.6765
 L 79.4434,-61.2361 L 80.1676,-61.6542 L 80.9629,-61.9126 L 81.7945,-62 L 162.833,-62 L 164.069,-61.8042
 L 164.833,-61.4641 L 165.51,-60.9726 L 166.069,-60.3511 L 166.488,-59.627 L 166.746,-58.8316 L 166.833,-58
 L 166.833,-25.2635 L 166.678,-24.1612 L 166.365,-23.3858 L 165.898,-22.6926 L 165.296,-22.1116 L 164.587,-21.6685
 L 163.801,-21.3824 L 162.973,-21.266 z
M 498.806,-21.3243 L 498.002,-21.5547 L 416.963,-54.2912 L 416.11,-54.7639 L 415.489,-55.3235 L 414.997,-56
 L 414.657,-56.7639 L 414.483,-57.5819 L 414.483,-58.4181 L 414.657,-59.2361 L 414.997,-60 L 415.489,-60.6765
 L 416.11,-61.2361 L 416.834,-61.6542 L 417.63,-61.9126 L 418.461,-62 L 499.5,-62 L 500.736,-61.8042
 L 501.5,-61.4641 L 502.177,-60.9726 L 502.736,-60.3511 L 503.154,-59.627 L 503.413,-58.8316 L 503.5,-58
 L 503.5,-25.2635 L 503.345,-24.1612 L 503.032,-23.3858 L 502.564,-22.6926 L 501.963,-22.1116 L 501.254,-21.6685
 L 500.468,-21.3824 L 499.64,-21.266 z
M 524.532,-21.3824 L 523.746,-21.6685 L 523.037,-22.1116 L 522.436,-22.6926 L 521.968,-23.3858 L 521.655,-24.1612
 L 521.5,-25.2635 L 521.5,-58 L 521.587,-58.8316 L 521.846,-59.627 L 522.264,-60.3511 L 522.823,-60.9726
 L 523.5,-61.4641 L 524.264,-61.8042 L 525.5,-62 L 606.539,-62 L 607.37,-61.9126 L 608.166,-61.6542
 L 608.89,-61.2361 L 609.511,-60.6765 L 610.003,-60 L 610.343,-59.2361 L 610.517,-58.4181 L 610.517,-57.5819
 L 610.343,-56.7639 L 610.003,-56 L 609.511,-55.3235 L 608.89,-54.7639 L 608.037,-54.2912 L 526.998,-21.5547
 L 526.194,-21.3243 L 525.36,-21.266 z
M 692.865,-21.3824 L 692.08,-21.6685 L 691.37,-22.1116 L 690.769,-22.6926 L 690.301,-23.3858 L 689.988,-24.1612
 L 689.833,-25.2635 L 689.833,-58 L 689.921,-58.8316 L 690.179,-59.627 L 690.597,-60.3511 L 691.157,-60.9726
 L 691.833,-61.4641 L 692.597,-61.8042 L 693.833,-62 L 774.872,-62 L 775.704,-61.9126 L 776.499,-61.6542
 L 777.223,-61.2361 L 777.845,-60.6765 L 778.336,-60 L 778.676,-59.2361 L 778.85,-58.4181 L 778.85,-57.5819
 L 778.676,-56.7639 L 778.336,-56 L 777.845,-55.3235 L 777.223,-54.7639 L 776.37,-54.2912 L 695.332,-21.5547
 L 694.528,-21.3243 L 693.693,-21.266 z
M 188.833,-18 L 187.597,-18.1958 L 186.833,-18.5359 L 186.157,-19.0274 L 185.597,-19.6489 L 185.179,-20.373
 L 184.921,-21.1684 L 184.833,-22 L 184.833,-54.7365 L 184.988,-55.8388 L 185.301,-56.6141 L 185.769,-57.3074
 L 186.37,-57.8884 L 187.08,-58.3315 L 187.865,-58.6176 L 188.693,-58.734 L 189.528,-58.6757 L 190.332,-58.4453
 L 271.37,-25.7088 L 272.223,-25.2361 L 272.845,-24.6765 L 273.336,-24 L 273.676,-23.2361 L 273.85,-22.4181
 L 273.85,-21.5819 L 273.676,-20.7639 L 273.336,-20 L 272.845,-19.3235 L 272.223,-18.7639 L 271.499,-18.3458
 L 270.704,-18.0874 L 269.872,-18 z
M 357.167,-18 L 355.931,-18.1958 L 355.167,-18.5359 L 354.49,-19.0274 L 353.931,-19.6489 L 353.512,-20.373
 L 353.254,-21.1684 L 353.167,-22 L 353.167,-54.7365 L 353.322,-55.8388 L 353.635,-56.6141 L 354.102,-57.3074
 L 354.704,-57.8884 L 355.413,-58.3315 L 356.199,-58.6176 L 357.027,-58.734 L 357.861,-58.6757 L 358.665,-58.4453
 L 439.704,-25.7088 L 440.557,-25.2361 L 441.178,-24.6765 L 441.67,-24 L 442.01,-23.2361 L 442.184,-22.4181
 L 442.184,-21.5819 L 442.01,-20.7639 L 441.67,-20 L 441.178,-19.3235 L 440.557,-18.7639 L 439.832,-18.3458
 L 439.037,-18.0874 L 438.205,-18 z
M 586.795,-18 L 585.963,-18.0874 L 585.168,-18.3458 L 584.443,-18.7639 L 583.822,-19.3235 L 583.33,-20
 L 582.99,-20.7639 L 582.816,-21.5819 L 582.816,-22.4181 L 582.99,-23.2361 L 583.33,-24 L 583.822,-24.6765
 L 584.443,-25.2361 L 585.296,-25.7088 L 666.335,-58.4453 L 667.139,-58.6757 L 667.973,-58.734 L 668.801,-58.6176
 L 669.587,-58.3315 L 670.296,-57.8884 L 670.898,-57.3074 L 671.365,-56.6141 L 671.678,-55.8388 L 671.833,-54.7365
 L 671.833,-22 L 671.746,-21.1684 L 671.488,-20.373 L 671.069,-19.6489 L 670.51,-19.0274 L 669.833,-18.5359
 L 669.069,-18.1958 L 667.833,-18 z
M 755.128,-18 L 754.296,-18.0874 L 753.501,-18.3458 L 752.777,-18.7639 L 752.155,-19.3235 L 751.664,-20
 L 751.324,-20.7639 L 751.15,-21.5819 L 751.15,-22.4181 L 751.324,-23.2361 L 751.664,-24 L 752.155,-24.6765
 L 752.777,-25.2361 L 753.63,-25.7088 L 834.668,-58.4453 L 835.472,-58.6757 L 836.306,-58.734 L 837.135,-58.6176
 L 837.92,-58.3315 L 838.629,-57.8884 L 839.231,-57.3074 L 839.699,-56.6141 L 840.012,-55.8388 L 840.167,-54.7365
 L 840.167,-22 L 840.079,-21.1684 L 839.821,-20.373 L 839.403,-19.6489 L 838.843,-19.0274 L 838.167,-18.5359
 L 837.403,-18.1958 L 836.167,-18 z
M 923.461,-18 L 922.63,-18.0874 L 921.834,-18.3458 L 921.11,-18.7639 L 920.489,-19.3235 L 919.997,-20
 L 919.657,-20.7639 L 919.483,-21.5819 L 919.483,-22.4181 L 919.657,-23.2361 L 919.997,-24 L 920.489,-24.6765
 L 921.11,-25.2361 L 921.963,-25.7088 L 1001.5,-57.8393 L 1002.31,-58.0698 L 1003.14,-58.1281 L 1003.97,-58.0116
 L 1004.75,-57.7256 L 1005.46,-57.2824 L 1006.06,-56.7015 L 1006.53,-56.0082 L 1006.85,-55.2328 L 1007,-54.1305
 L 1007,-22 L 1006.91,-21.1684 L 1006.65,-20.373 L 1006.24,-19.6489 L 1005.68,-19.0274 L 1005,-18.5359
 L 1004.24,-18.1958 L 1003,-18 z
M 22,-18 L 20.7639,-18.1958 L 20,-18.5359 L 19.3235,-19.0274 L 18.7639,-19.6489 L 18.3458,-20.373
 L 18.0874,-21.1684 L 18,-22 L 18,-54.1305 L 18.1549,-55.2328 L 18.4681,-56.0082 L 18.9357,-56.7015
 L 19.5372,-57.2824 L 20.2463,-57.7256 L 21.0321,-58.0116 L 21.8602,-58.1281 L 22.6944,-58.0698 L 23.4982,-57.8393
 L 103.037,-25.7088 L 103.89,-25.2361 L 104.511,-24.6765 L 105.003,-24 L 105.343,-23.2361 L 105.517,-22.4181
 L 105.517,-21.5819 L 105.343,-20.7639 L 105.003,-20 L 104.511,-19.3235 L 103.89,-18.7639 L 103.166,-18.3458
 L 102.37,-18.0874 L 101.539,-18 z
" stroke="black" fill="lightgray" stroke-width="0.5"/>
</svg>
