<?xml version="1.0" standalone="no"?>
<!DOCTYPE svg PUBLIC "-//W3C//DTD SVG 1.1//EN" "http://www.w3.org/Graphics/SVG/1.1/DTD/svg11.dtd">
<svg width="1320mm" height="80mm" viewBox="0 -80 1320 80" xmlns="http://www.w3.org/2000/svg" version="1.1">
<title>OpenSCAD Model</title>
<path d="
M 1320,-80 L 0,-80 L 0,-0 L 4.95,-0 L 4.95,-6 L 5.00572,-6.53017
 L 5.17046,-7.03717 L 5.437,-7.49884 L 5.79372,-7.895 L 6.22499,-8.20836 L 6.71201,-8.42519 L 7.23344,-8.53603
 L 7.76654,-8.53603 L 8.28798,-8.42519 L 8.77499,-8.20836 L 9.20627,-7.895 L 9.56299,-7.49884 L 9.82953,-7.03717
 L 9.99426,-6.53017 L 10.05,-6 L 10.05,-0 L 191.379,-0 L 191.379,-6 L 191.434,-6.53017
 L 191.599,-7.03717 L 191.866,-7.49884 L 192.222,-7.895 L 192.654,-8.20836 L 193.141,-8.42519 L 193.662,-8.53603
 L 194.195,-8.53603 L 194.717,-8.42519 L 195.204,-8.20836 L 195.635,-7.895 L 195.992,-7.49884 L 196.258,-7.03717
 L 196.423,-6.53017 L 196.479,-6 L 196.479,-0 L 377.807,-0 L 377.807,-6 L 377.863,-6.53017
 L 378.028,-7.03717 L 378.294,-7.49884 L 378.651,-7.895 L 379.082,-8.20836 L 379.569,-8.42519 L 380.091,-8.53603
 L 380.624,-8.53603 L 381.145,-8.42519 L 381.632,-8.20836 L 382.063,-7.895 L 382.42,-7.49884 L 382.687,-7.03717
 L 382.851,-6.53017 L 382.907,-6 L 382.907,-0 L 564.236,-0 L 564.236,-6 L 564.291,-6.53017
 L 564.456,-7.03717 L 564.723,-7.49884 L 565.079,-7.895 L 565.511,-8.20836 L 565.998,-8.42519 L 566.519,-8.53603
 L 567.052,-8.53603 L 567.574,-8.42519 L 568.061,-8.20836 L 568.492,-7.895 L 568.849,-7.49884 L 569.115,-7.03717
 L 569.28,-6.53017 L 569.336,-6 L 569.336,-0 L 750.664,-0 L 750.664,-6 L 750.72,-6.53017
 L 750.885,-7.03717 L 751.151,-7.49884 L 751.508,-7.895 L 751.939,-8.20836 L 752.426,-8.42519 L 752.948,-8.53603
 L 753.481,-8.53603 L 754.002,-8.42519 L 754.489,-8.20836 L 754.921,-7.895 L 755.277,-7.49884 L 755.544,-7.03717
 L 755.709,-6.53017 L 755.764,-6 L 755.764,-0 L 937.093,-0 L 937.093,-6 L 937.149,-6.53017
 L 937.313,-7.03717 L 937.58,-7.49884 L 937.937,-7.895 L 938.368,-8.20836 L 938.855,-8.42519 L 939.376,-8.53603
 L 939.909,-8.53603 L 940.431,-8.42519 L 940.918,-8.20836 L 941.349,-7.895 L 941.706,-7.49884 L 941.972,-7.03717
 L 942.137,-6.53017 L 942.193,-6 L 942.193,-0 L 1123.52,-0 L 1123.52,-6 L 1123.58,-6.53017
 L 1123.74,-7.03717 L 1124.01,-7.49884 L 1124.37,-7.895 L 1124.8,-8.20836 L 1125.28,-8.42519 L 1125.8,-8.53603
 L 1126.34,-8.53603 L 1126.86,-8.42519 L 1127.35,-8.20836 L 1127.78,-7.895 L 1128.13,-7.49884 L 1128.4,-7.03717
 L 1128.57,-6.53017 L 1128.62,-6 L 1128.62,-0 L 1309.95,-0 L 1309.95,-6 L 1310.01,-6.53017
 L 1310.17,-7.03717 L 1310.44,-7.49884 L 1310.79,-7.895 L 1311.22,-8.20836 L 1311.71,-8.42519 L 1312.23,-8.53603
 L 1312.77,-8.53603 L 1313.29,-8.42519 L 1313.77,-8.20836 L 1314.21,-7.895 L 1314.56,-7.49884 L 1314.83,-7.03717
 L 1314.99,-6.53017 L 1315.05,-6 L 1315.05,-0 L 1320,-0 z
M 6.98573,-55.607 L 6.47708,-55.6875 L 5.97964,-55.8208 L 5.49887,-56.0054 L 5.04001,-56.2392 L 4.60811,-56.5196
 L 4.20789,-56.8437 L 3.84373,-57.2079 L 3.51964,-57.6081 L 3.23917,-58.04 L 3.00537,-58.4989 L 2.82082,-58.9796
 L 2.68752,-59.4771 L 2.60696,-59.9857 L 2.58,-60.5 L 2.60696,-61.0143 L 2.68752,-61.5229 L 2.82082,-62.0204
 L 3.00537,-62.5011 L 3.23917,-62.96 L 3.51964,-63.3919 L 3.84373,-63.7921 L 4.20789,-64.1563 L 4.60811,-64.4804
 L 4.95001,-64.7024 L 4.95001,-74 L 5.00574,-74.5302 L 5.17047,-75.0372 L 5.43701,-75.4988 L 5.79373,-75.895
 L 6.22501,-76.2084 L 6.71202,-76.4252 L 7.23346,-76.536 L 7.76654,-76.536 L 8.28798,-76.4252 L 8.77499,-76.2084
 L 9.20627,-75.895 L 9.56299,-75.4988 L 9.82953,-75.0372 L 9.99426,-74.5302 L 10.05,-74 L 10.05,-64.7024
 L 10.3919,-64.4804 L 10.7921,-64.1563 L 11.1563,-63.7921 L 11.4804,-63.3919 L 11.7608,-62.96 L 11.9946,-62.5011
 L 12.1792,-62.0204 L 12.3125,-61.5229 L 12.393,-61.0143 L 12.42,-60.5 L 12.393,-59.9857 L 12.3125,-59.4771
 L 12.1792,-58.9796 L 11.9946,-58.4989 L 11.7608,-58.04 L 11.4804,-57.6081 L 11.1563,-57.2079 L 10.7921,-56.8437
 L 10.3919,-56.5196 L 9.95999,-56.2392 L 9.50113,-56.0054 L 9.02036,-55.8208 L 8.52292,-55.6875 L 8.01427,-55.607
 L 7.5,-55.58 z
M 193.414,-55.607 L 192.906,-55.6875 L 192.408,-55.8208 L 191.927,-56.0054 L 191.469,-56.2392 L 191.037,-56.5196
 L 190.636,-56.8437 L 190.272,-57.2079 L 189.948,-57.6081 L 189.668,-58.04 L 189.434,-58.4989 L 189.249,-58.9796
 L 189.116,-59.4771 L 189.036,-59.9857 L 189.009,-60.5 L 189.036,-61.0143 L 189.116,-61.5229 L 189.249,-62.0204
 L 189.434,-62.5011 L 189.668,-62.96 L 189.948,-63.3919 L 190.272,-63.7921 L 190.636,-64.1563 L 191.037,-64.4804
 L 191.379,-64.7024 L 191.379,-74 L 191.434,-74.5302 L 191.599,-75.0372 L 191.866,-75.4988 L 192.222,-75.895
 L 192.654,-76.2084 L 193.141,-76.4252 L 193.662,-76.536 L 194.195,-76.536 L 194.717,-76.4252 L 195.204,-76.2084
 L 195.635,-75.895 L 195.992,-75.4988 L 196.258,-75.0372 L 196.423,-74.5302 L 196.479,-74 L 196.479,-64.7024
 L 196.82,-64.4804 L 197.221,-64.1563 L 197.585,-63.7921 L 197.909,-63.3919 L 198.189,-62.96 L 198.423,-62.5011
 L 198.608,-62.0204 L 198.741,-61.5229 L 198.822,-61.0143 L 198.849,-60.5 L 198.822,-59.9857 L 198.741,-59.4771
 L 198.608,-58.9796 L 198.423,-58.4989 L 198.189,-58.04 L 197.909,-57.6081 L 197.585,-57.2079 L 197.221,-56.8437
 L 196.82,-56.5196 L 196.389,-56.2392 L 195.93,-56.0054 L 195.449,-55.8208 L 194.951,-55.6875 L 194.443,-55.607
 L 193.929,-55.58 z
M 379.843,-55.607 L 379.334,-55.6875 L 378.837,-55.8208 L 378.356,-56.0054 L 377.897,-56.2392 L 377.465,-56.5196
 L 377.065,-56.8437 L 376.701,-57.2079 L 376.377,-57.6081 L 376.096,-58.04 L 375.863,-58.4989 L 375.678,-58.9796
 L 375.545,-59.4771 L 375.464,-59.9857 L 375.437,-60.5 L 375.464,-61.0143 L 375.545,-61.5229 L 375.678,-62.0204
 L 375.863,-62.5011 L 376.096,-62.96 L 376.377,-63.3919 L 376.701,-63.7921 L 377.065,-64.1563 L 377.465,-64.4804
 L 377.807,-64.7024 L 377.807,-74 L 377.863,-74.5302 L 378.028,-75.0372 L 378.294,-75.4988 L 378.651,-75.895
 L 379.082,-76.2084 L 379.569,-76.4252 L 380.091,-76.536 L 380.624,-76.536 L 381.145,-76.4252 L 381.632,-76.2084
 L 382.063,-75.895 L 382.42,-75.4988 L 382.687,-75.0372 L 382.851,-74.5302 L 382.907,-74 L 382.907,-64.7024
 L 383.249,-64.4804 L 383.649,-64.1563 L 384.013,-63.7921 L 384.337,-63.3919 L 384.618,-62.96 L 384.852,-62.5011
 L 385.036,-62.0204 L 385.17,-61.5229 L 385.25,-61.0143 L 385.277,-60.5 L 385.25,-59.9857 L 385.17,-59.4771
 L 385.036,-58.9796 L 384.852,-58.4989 L 384.618,-58.04 L 384.337,-57.6081 L 384.013,-57.2079 L 383.649,-56.8437
 L 383.249,-56.5196 L 382.817,-56.2392 L 382.358,-56.0054 L 381.877,-55.8208 L 381.38,-55.6875 L 380.871,-55.607
 L 380.357,-55.58 z
M 566.271,-55.607 L 565.763,-55.6875 L 565.265,-55.8208 L 564.785,-56.0054 L 564.326,-56.2392 L 563.894,-56.5196
 L 563.494,-56.8437 L 563.129,-57.2079 L 562.805,-57.6081 L 562.525,-58.04 L 562.291,-58.4989 L 562.107,-58.9796
 L 561.973,-59.4771 L 561.893,-59.9857 L 561.866,-60.5 L 561.893,-61.0143 L 561.973,-61.5229 L 562.107,-62.0204
 L 562.291,-62.5011 L 562.525,-62.96 L 562.805,-63.3919 L 563.129,-63.7921 L 563.494,-64.1563 L 563.894,-64.4804
 L 564.236,-64.7024 L 564.236,-74 L 564.291,-74.5302 L 564.456,-75.0372 L 564.723,-75.4988 L 565.079,-75.895
 L 565.511,-76.2084 L 565.998,-76.4252 L 566.519,-76.536 L 567.052,-76.536 L 567.574,-76.4252 L 568.061,-76.2084
 L 568.492,-75.895 L 568.849,-75.4988 L 569.115,-75.0372 L 569.28,-74.5302 L 569.336,-74 L 569.336,-64.7024
 L 569.678,-64.4804 L 570.078,-64.1563 L 570.442,-63.7921 L 570.766,-63.3919 L 571.047,-62.96 L 571.28,-62.5011
 L 571.465,-62.0204 L 571.598,-61.5229 L 571.679,-61.0143 L 571.706,-60.5 L 571.679,-59.9857 L 571.598,-59.4771
 L 571.465,-58.9796 L 571.28,-58.4989 L 571.047,-58.04 L 570.766,-57.6081 L 570.442,-57.2079 L 570.078,-56.8437
 L 569.678,-56.5196 L 569.246,-56.2392 L 568.787,-56.0054 L 568.306,-55.8208 L 567.809,-55.6875 L 567.3,-55.607
 L 566.786,-55.58 z
M 752.7,-55.607 L 752.191,-55.6875 L 751.694,-55.8208 L 751.213,-56.0054 L 750.754,-56.2392 L 750.322,-56.5196
 L 749.922,-56.8437 L 749.558,-57.2079 L 749.234,-57.6081 L 748.953,-58.04 L 748.72,-58.4989 L 748.535,-58.9796
 L 748.402,-59.4771 L 748.321,-59.9857 L 748.294,-60.5 L 748.321,-61.0143 L 748.402,-61.5229 L 748.535,-62.0204
 L 748.72,-62.5011 L 748.953,-62.96 L 749.234,-63.3919 L 749.558,-63.7921 L 749.922,-64.1563 L 750.322,-64.4804
 L 750.664,-64.7024 L 750.664,-74 L 750.72,-74.5302 L 750.885,-75.0372 L 751.151,-75.4988 L 751.508,-75.895
 L 751.939,-76.2084 L 752.426,-76.4252 L 752.948,-76.536 L 753.481,-76.536 L 754.002,-76.4252 L 754.489,-76.2084
 L 754.921,-75.895 L 755.277,-75.4988 L 755.544,-75.0372 L 755.709,-74.5302 L 755.764,-74 L 755.764,-64.7024
 L 756.106,-64.4804 L 756.506,-64.1563 L 756.871,-63.7921 L 757.195,-63.3919 L 757.475,-62.96 L 757.709,-62.5011
 L 757.893,-62.0204 L 758.027,-61.5229 L 758.107,-61.0143 L 758.134,-60.5 L 758.107,-59.9857 L 758.027,-59.4771
 L 757.893,-58.9796 L 757.709,-58.4989 L 757.475,-58.04 L 757.195,-57.6081 L 756.871,-57.2079 L 756.506,-56.8437
 L 756.106,-56.5196 L 755.674,-56.2392 L 755.215,-56.0054 L 754.735,-55.8208 L 754.237,-55.6875 L 753.729,-55.607
 L 753.214,-55.58 z
M 939.129,-55.607 L 938.62,-55.6875 L 938.122,-55.8208 L 937.642,-56.0054 L 937.183,-56.2392 L 936.751,-56.5196
 L 936.351,-56.8437 L 935.987,-57.2079 L 935.662,-57.6081 L 935.382,-58.04 L 935.148,-58.4989 L 934.964,-58.9796
 L 934.83,-59.4771 L 934.75,-59.9857 L 934.723,-60.5 L 934.75,-61.0143 L 934.83,-61.5229 L 934.964,-62.0204
 L 935.148,-62.5011 L 935.382,-62.96 L 935.662,-63.3919 L 935.987,-63.7921 L 936.351,-64.1563 L 936.751,-64.4804
 L 937.093,-64.7024 L 937.093,-74 L 937.149,-74.5302 L 937.313,-75.0372 L 937.58,-75.4988 L 937.937,-75.895
 L 938.368,-76.2084 L 938.855,-76.4252 L 939.376,-76.536 L 939.909,-76.536 L 940.431,-76.4252 L 940.918,-76.2084
 L 941.349,-75.895 L 941.706,-75.4988 L 941.972,-75.0372 L 942.137,-74.5302 L 942.193,-74 L 942.193,-64.7024
 L 942.535,-64.4804 L 942.935,-64.1563 L 943.299,-63.7921 L 943.623,-63.3919 L 943.904,-62.96 L 944.137,-62.5011
 L 944.322,-62.0204 L 944.455,-61.5229 L 944.536,-61.0143 L 944.563,-60.5 L 944.536,-59.9857 L 944.455,-59.4771
 L 944.322,-58.9796 L 944.137,-58.4989 L 943.904,-58.04 L 943.623,-57.6081 L 943.299,-57.2079 L 942.935,-56.8437
 L 942.535,-56.5196 L 942.103,-56.2392 L 941.644,-56.0054 L 941.163,-55.8208 L 940.666,-55.6875 L 940.157,-55.607
 L 939.643,-55.58 z
M 1125.56,-55.607 L 1125.05,-55.6875 L 1124.55,-55.8208 L 1124.07,-56.0054 L 1123.61,-56.2392 L 1123.18,-56.5196
 L 1122.78,-56.8437 L 1122.42,-57.2079 L 1122.09,-57.6081 L 1121.81,-58.04 L 1121.58,-58.4989 L 1121.39,-58.9796
 L 1121.26,-59.4771 L 1121.18,-59.9857 L 1121.15,-60.5 L 1121.18,-61.0143 L 1121.26,-61.5229 L 1121.39,-62.0204
 L 1121.58,-62.5011 L 1121.81,-62.96 L 1122.09,-63.3919 L 1122.42,-63.7921 L 1122.78,-64.1563 L 1123.18,-64.4804
 L 1123.52,-64.7024 L 1123.52,-74 L 1123.58,-74.5302 L 1123.74,-75.0372 L 1124.01,-75.4988 L 1124.37,-75.895
 L 1124.8,-76.2084 L 1125.28,-76.4252 L 1125.8,-76.536 L 1126.34,-76.536 L 1126.86,-76.4252 L 1127.35,-76.2084
 L 1127.78,-75.895 L 1128.13,-75.4988 L 1128.4,-75.0372 L 1128.57,-74.5302 L 1128.62,-74 L 1128.62,-64.7024
 L 1128.96,-64.4804 L 1129.36,-64.1563 L 1129.73,-63.7921 L 1130.05,-63.3919 L 1130.33,-62.96 L 1130.57,-62.5011
 L 1130.75,-62.0204 L 1130.88,-61.5229 L 1130.96,-61.0143 L 1130.99,-60.5 L 1130.96,-59.9857 L 1130.88,-59.4771
 L 1130.75,-58.9796 L 1130.57,-58.4989 L 1130.33,-58.04 L 1130.05,-57.6081 L 1129.73,-57.2079 L 1129.36,-56.8437
 L 1128.96,-56.5196 L 1128.53,-56.2392 L 1128.07,-56.0054 L 1127.59,-55.8208 L 1127.09,-55.6875 L 1126.59,-55.607
 L 1126.07,-55.58 z
M 1311.99,-55.607 L 1311.48,-55.6875 L 1310.98,-55.8208 L 1310.5,-56.0054 L 1310.04,-56.2392 L 1309.61,-56.5196
 L 1309.21,-56.8437 L 1308.84,-57.2079 L 1308.52,-57.6081 L 1308.24,-58.04 L 1308.01,-58.4989 L 1307.82,-58.9796
 L 1307.69,-59.4771 L 1307.61,-59.9857 L 1307.58,-60.5 L 1307.61,-61.0143 L 1307.69,-61.5229 L 1307.82,-62.0204
 L 1308.01,-62.5011 L 1308.24,-62.96 L 1308.52,-63.3919 L 1308.84,-63.7921 L 1309.21,-64.1563 L 1309.61,-64.4804
 L 1309.95,-64.7024 L 1309.95,-74 L 1310.01,-74.5302 L 1310.17,-75.0372 L 1310.44,-75.4988 L 1310.79,-75.895
 L 1311.23,-76.2084 L 1311.71,-76.4252 L 1312.23,-76.536 L 1312.77,-76.536 L 1313.29,-76.4252 L 1313.77,-76.2084
 L 1314.21,-75.895 L 1314.56,-75.4988 L 1314.83,-75.0372 L 1314.99,-74.5302 L 1315.05,-74 L 1315.05,-64.7024
 L 1315.39,-64.4804 L 1315.79,-64.1563 L 1316.16,-63.7921 L 1316.48,-63.3919 L 1316.76,-62.96 L 1316.99,-62.5011
 L 1317.18,-62.0204 L 1317.31,-61.5229 L 1317.39,-61.0143 L 1317.42,-60.5 L 1317.39,-59.9857 L 1317.31,-59.4771
 L 1317.18,-58.9796 L 1316.99,-58.4989 L 1316.76,-58.04 L 1316.48,-57.6081 L 1316.16,-57.2079 L 1315.79,-56.8437
 L 1315.39,-56.5196 L 1314.96,-56.2392 L 1314.5,-56.0054 L 1314.02,-55.8208 L 1313.52,-55.6875 L 1313.01,-55.607
 L 1312.5,-55.58 z
M 765.114,-20.725 L 764.339,-21.0377 L 763.645,-21.5048 L 763.064,-22.106 L 762.62,-22.8148 L 762.334,-23.6004
 L 762.214,-24.5708 L 762.214,-58 L 762.302,-58.8316 L 762.56,-59.627 L 762.978,-60.3511 L 763.538,-60.9726
 L 764.214,-61.4641 L 764.978,-61.8042 L 766.214,-62 L 857.864,-62 L 858.695,-61.9126 L 859.491,-61.6542
 L 860.215,-61.2361 L 860.836,-60.6765 L 861.328,-60 L 861.668,-59.2361 L 861.842,-58.4181 L 861.842,-57.5819
 L 861.668,-56.7639 L 861.328,-56 L 860.836,-55.3235 L 860.215,-54.7639 L 859.234,-54.2422 L 767.585,-20.8129
 L 766.774,-20.6101 L 765.938,-20.5803 z
M 659.441,-47.7408 L 658.629,-47.9436 L 641.361,-54.2422 L 640.381,-54.7639 L 639.759,-55.3235 L 639.268,-56
 L 638.928,-56.7639 L 638.754,-57.5819 L 638.754,-58.4181 L 638.928,-59.2361 L 639.268,-60 L 639.759,-60.6765
 L 640.381,-61.2361 L 641.105,-61.6542 L 641.9,-61.9126 L 642.732,-62 L 677.268,-62 L 678.368,-61.8458
 L 679.143,-61.5331 L 679.837,-61.0659 L 680.418,-60.4648 L 680.862,-59.756 L 681.149,-58.9704 L 681.265,-58.1423
 L 681.208,-57.3081 L 680.978,-56.5041 L 680.586,-55.7655 L 680.049,-55.1246 L 679.39,-54.6093 L 678.639,-54.2422
 L 661.371,-47.9436 L 660.276,-47.711 z
M 553.226,-20.6101 L 552.415,-20.8129 L 460.766,-54.2422 L 459.785,-54.7639 L 459.164,-55.3235 L 458.672,-56
 L 458.332,-56.7639 L 458.158,-57.5819 L 458.158,-58.4181 L 458.332,-59.2361 L 458.672,-60 L 459.164,-60.6765
 L 459.785,-61.2361 L 460.509,-61.6542 L 461.305,-61.9126 L 462.136,-62 L 553.786,-62 L 555.022,-61.8042
 L 555.786,-61.4641 L 556.462,-60.9726 L 557.022,-60.3511 L 557.44,-59.627 L 557.698,-58.8316 L 557.786,-58
 L 557.786,-24.5708 L 557.666,-23.6004 L 557.38,-22.8148 L 556.936,-22.106 L 556.355,-21.5048 L 555.661,-21.0377
 L 554.886,-20.725 L 554.062,-20.5803 z
M 366.798,-20.6101 L 365.986,-20.8129 L 274.337,-54.2422 L 273.357,-54.7639 L 272.735,-55.3235 L 272.244,-56
 L 271.903,-56.7639 L 271.73,-57.5819 L 271.73,-58.4181 L 271.903,-59.2361 L 272.244,-60 L 272.735,-60.6765
 L 273.357,-61.2361 L 274.081,-61.6542 L 274.876,-61.9126 L 275.708,-62 L 367.357,-62 L 368.593,-61.8042
 L 369.357,-61.4641 L 370.034,-60.9726 L 370.593,-60.3511 L 371.011,-59.627 L 371.27,-58.8316 L 371.357,-58
 L 371.357,-24.5708 L 371.238,-23.6004 L 370.951,-22.8148 L 370.507,-22.106 L 369.926,-21.5048 L 369.233,-21.0377
 L 368.457,-20.725 L 367.633,-20.5803 z
M 1137.97,-20.725 L 1137.2,-21.0377 L 1136.5,-21.5048 L 1135.92,-22.106 L 1135.48,-22.8148 L 1135.19,-23.6004
 L 1135.07,-24.5708 L 1135.07,-58 L 1135.16,-58.8316 L 1135.42,-59.627 L 1135.84,-60.3511 L 1136.39,-60.9726
 L 1137.07,-61.4641 L 1137.84,-61.8042 L 1139.07,-62 L 1230.72,-62 L 1231.55,-61.9126 L 1232.35,-61.6542
 L 1233.07,-61.2361 L 1233.69,-60.6765 L 1234.18,-60 L 1234.53,-59.2361 L 1234.7,-58.4181 L 1234.7,-57.5819
 L 1234.53,-56.7639 L 1234.18,-56 L 1233.69,-55.3235 L 1233.07,-54.7639 L 1232.09,-54.2422 L 1140.44,-20.8129
 L 1139.63,-20.6101 L 1138.8,-20.5803 z
M 180.369,-20.6101 L 179.558,-20.8129 L 87.9084,-54.2422 L 86.928,-54.7639 L 86.3065,-55.3235 L 85.815,-56
 L 85.4749,-56.7639 L 85.301,-57.5819 L 85.301,-58.4181 L 85.4749,-59.2361 L 85.815,-60 L 86.3065,-60.6765
 L 86.928,-61.2361 L 87.6521,-61.6542 L 88.4474,-61.9126 L 89.2791,-62 L 180.929,-62 L 182.165,-61.8042
 L 182.929,-61.4641 L 183.605,-60.9726 L 184.165,-60.3511 L 184.583,-59.627 L 184.841,-58.8316 L 184.929,-58
 L 184.929,-24.5708 L 184.809,-23.6004 L 184.523,-22.8148 L 184.079,-22.106 L 183.498,-21.5048 L 182.804,-21.0377
 L 182.028,-20.725 L 181.205,-20.5803 z
M 951.543,-20.725 L 950.767,-21.0377 L 950.074,-21.5048 L 949.493,-22.106 L 949.049,-22.8148 L 948.762,-23.6004
 L 948.643,-24.5708 L 948.643,-58 L 948.73,-58.8316 L 948.989,-59.627 L 949.407,-60.3511 L 949.966,-60.9726
 L 950.643,-61.4641 L 951.407,-61.8042 L 952.643,-62 L 1044.29,-62 L 1045.12,-61.9126 L 1045.92,-61.6542
 L 1046.64,-61.2361 L 1047.26,-60.6765 L 1047.76,-60 L 1048.1,-59.2361 L 1048.27,-58.4181 L 1048.27,-57.5819
 L 1048.1,-56.7639 L 1047.76,-56 L 1047.26,-55.3235 L 1046.64,-54.7639 L 1045.66,-54.2422 L 954.014,-20.8129
 L 953.202,-20.6101 L 952.367,-20.5803 z
M 579.368,-18.4651 L 578.55,-18.639 L 577.786,-18.9791 L 577.109,-19.4707 L 576.55,-20.0921 L 576.132,-20.8163
 L 575.873,-21.6116 L 575.786,-22.4432 L 575.786,-57.5568 L 575.905,-58.5271 L 576.192,-59.3127 L 576.635,-60.0216
 L 577.217,-60.6227 L 577.91,-61.0898 L 578.686,-61.4026 L 579.509,-61.5472 L 580.345,-61.5175 L 581.156,-61.3146
 L 629.29,-43.7578 L 629.795,-43.5331 L 630.488,-43.0659 L 631.07,-42.4648 L 631.513,-41.756 L 631.8,-40.9704
 L 631.917,-40.1423 L 631.859,-39.3081 L 631.629,-38.5041 L 631.237,-37.7655 L 630.7,-37.1246 L 630.041,-36.6093
 L 629.29,-36.2422 L 581.156,-18.6854 L 580.204,-18.4651 z
M 739.655,-18.4825 L 738.844,-18.6854 L 690.71,-36.2422 L 690.205,-36.4669 L 689.512,-36.9341 L 688.93,-37.5352
 L 688.487,-38.244 L 688.2,-39.0296 L 688.083,-39.8577 L 688.141,-40.6919 L 688.371,-41.4959 L 688.763,-42.2345
 L 689.3,-42.8754 L 689.959,-43.3907 L 690.71,-43.7578 L 738.844,-61.3146 L 739.796,-61.5349 L 740.632,-61.5349
 L 741.45,-61.361 L 742.214,-61.0209 L 742.891,-60.5294 L 743.45,-59.9079 L 743.868,-59.1837 L 744.127,-58.3884
 L 744.214,-57.5568 L 744.214,-22.4432 L 744.095,-21.4729 L 743.808,-20.6873 L 743.365,-19.9784 L 742.783,-19.3773
 L 742.09,-18.9101 L 741.314,-18.5974 L 740.491,-18.4528 z
M 206.929,-18 L 205.692,-18.1958 L 204.929,-18.5359 L 204.252,-19.0274 L 203.692,-19.6489 L 203.274,-20.373
 L 203.016,-21.1684 L 202.929,-22 L 202.929,-55.4292 L 203.048,-56.3996 L 203.335,-57.1852 L 203.778,-57.894
 L 204.36,-58.4952 L 205.053,-58.9623 L 205.829,-59.275 L 206.652,-59.4197 L 207.488,-59.3899 L 208.299,-59.187
 L 299.949,-25.7578 L 300.929,-25.2361 L 301.551,-24.6765 L 302.042,-24 L 302.382,-23.2361 L 302.556,-22.4181
 L 302.556,-21.5819 L 302.382,-20.7639 L 302.042,-20 L 301.551,-19.3235 L 300.929,-18.7639 L 300.205,-18.3458
 L 299.41,-18.0874 L 298.578,-18 z
M 393.357,-18 L 392.121,-18.1958 L 391.357,-18.5359 L 390.681,-19.0274 L 390.121,-19.6489 L 389.703,-20.373
 L 389.445,-21.1684 L 389.357,-22 L 389.357,-55.4292 L 389.477,-56.3996 L 389.763,-57.1852 L 390.207,-57.894
 L 390.788,-58.4952 L 391.482,-58.9623 L 392.257,-59.275 L 393.081,-59.4197 L 393.917,-59.3899 L 394.728,-59.187
 L 486.377,-25.7578 L 487.358,-25.2361 L 487.979,-24.6765 L 488.471,-24 L 488.811,-23.2361 L 488.985,-22.4181
 L 488.985,-21.5819 L 488.811,-20.7639 L 488.471,-20 L 487.979,-19.3235 L 487.358,-18.7639 L 486.634,-18.3458
 L 485.838,-18.0874 L 485.007,-18 z
M 834.993,-18 L 834.162,-18.0874 L 833.366,-18.3458 L 832.642,-18.7639 L 832.021,-19.3235 L 831.529,-20
 L 831.189,-20.7639 L 831.015,-21.5819 L 831.015,-22.4181 L 831.189,-23.2361 L 831.529,-24 L 832.021,-24.6765
 L 832.642,-25.2361 L 833.623,-25.7578 L 925.272,-59.187 L 926.083,-59.3899 L 926.919,-59.4197 L 927.743,-59.275
 L 928.518,-58.9623 L 929.212,-58.4952 L 929.793,-57.894 L 930.237,-57.1852 L 930.523,-56.3996 L 930.643,-55.4292
 L 930.643,-22 L 930.555,-21.1684 L 930.297,-20.373 L 929.879,-19.6489 L 929.319,-19.0274 L 928.643,-18.5359
 L 927.879,-18.1958 L 926.643,-18 z
M 1021.42,-18 L 1020.59,-18.0874 L 1019.8,-18.3458 L 1019.07,-18.7639 L 1018.45,-19.3235 L 1017.96,-20
 L 1017.62,-20.7639 L 1017.44,-21.5819 L 1017.44,-22.4181 L 1017.62,-23.2361 L 1017.96,-24 L 1018.45,-24.6765
 L 1019.07,-25.2361 L 1020.05,-25.7578 L 1111.7,-59.187 L 1112.51,-59.3899 L 1113.35,-59.4197 L 1114.17,-59.275
 L 1114.95,-58.9623 L 1115.64,-58.4952 L 1116.22,-57.894 L 1116.67,-57.1852 L 1116.95,-56.3996 L 1117.07,-55.4292
 L 1117.07,-22 L 1116.98,-21.1684 L 1116.73,-20.373 L 1116.31,-19.6489 L 1115.75,-19.0274 L 1115.07,-18.5359
 L 1114.31,-18.1958 L 1113.07,-18 z
M 22,-18 L 20.7639,-18.1958 L 20,-18.5359 L 19.3235,-19.0274 L 18.7639,-19.6489 L 18.3458,-20.373
 L 18.0874,-21.1684 L 18,-22 L 18,-54.8821 L 18.1195,-55.8525 L 18.406,-56.6381 L 18.8497,-57.3469
 L 19.431,-57.948 L 20.1245,-58.4152 L 20.9001,-58.7279 L 21.7237,-58.8725 L 22.5594,-58.8428 L 23.3707,-58.6399
 L 113.52,-25.7578 L 114.501,-25.2361 L 115.122,-24.6765 L 115.614,-24 L 115.954,-23.2361 L 116.128,-22.4181
 L 116.128,-21.5819 L 115.954,-20.7639 L 115.614,-20 L 115.122,-19.3235 L 114.501,-18.7639 L 113.776,-18.3458
 L 112.981,-18.0874 L 112.149,-18 z
M 1207.85,-18 L 1207.02,-18.0874 L 1206.22,-18.3458 L 1205.5,-18.7639 L 1204.88,-19.3235 L 1204.39,-20
 L 1204.05,-20.7639 L 1203.87,-21.5819 L 1203.87,-22.4181 L 1204.05,-23.2361 L 1204.39,-24 L 1204.88,-24.6765
 L 1205.5,-25.2361 L 1206.48,-25.7578 L 1296.63,-58.6399 L 1297.44,-58.8428 L 1298.28,-58.8725 L 1299.1,-58.7279
 L 1299.88,-58.4152 L 1300.57,-57.948 L 1301.15,-57.3469 L 1301.59,-56.6381 L 1301.88,-55.8525 L 1302,-54.8821
 L 1302,-22 L 1301.91,-21.1684 L 1301.65,-20.373 L 1301.24,-19.6489 L 1300.68,-19.0274 L 1300,-18.5359
 L 1299.24,-18.1958 L 1298,-18 z
M 642.732,-18 L 641.632,-18.1542 L 640.857,-18.4669 L 640.163,-18.9341 L 639.582,-19.5352 L 639.138,-20.244
 L 638.851,-21.0296 L 638.734,-21.8577 L 638.792,-22.6919 L 639.022,-23.4959 L 639.414,-24.2345 L 639.951,-24.8754
 L 640.61,-25.3907 L 641.361,-25.7578 L 658.629,-32.0564 L 659.724,-32.289 L 660.559,-32.2592 L 661.371,-32.0564
 L 678.639,-25.7578 L 679.619,-25.2361 L 680.241,-24.6765 L 680.732,-24 L 681.072,-23.2361 L 681.246,-22.4181
 L 681.246,-21.5819 L 681.072,-20.7639 L 680.732,-20 L 680.241,-19.3235 L 679.619,-18.7639 L 678.895,-18.3458
 L 678.1,-18.0874 L 677.268,-18 z
" stroke="black" fill="lightgray" stroke-width="0.5"/>
</svg>
