<?xml version="1.0" standalone="no"?>
<!DOCTYPE svg PUBLIC "-//W3C//DTD SVG 1.1//EN" "http://www.w3.org/Graphics/SVG/1.1/DTD/svg11.dtd">
<svg width="1216mm" height="80mm" viewBox="0 -80 1216 80" xmlns="http://www.w3.org/2000/svg" version="1.1">
<title>OpenSCAD Model</title>
<path d="
M 1216,-80 L 0,-80 L 0,-0 L 4.95,-0 L 4.95,-6 L 5.00572,-6.53017
 L 5.17046,-7.03717 L 5.437,-7.49884 L 5.79372,-7.895 L 6.22499,-8.20836 L 6.71201,-8.42519 L 7.23344,-8.53603
 L 7.76654,-8.53603 L 8.28798,-8.42519 L 8.77499,-8.20836 L 9.20627,-7.895 L 9.56299,-7.49884 L 9.82953,-7.03717
 L 9.99426,-6.53017 L 10.05,-6 L 10.05,-0 L 176.521,-0 L 176.521,-6 L 176.577,-6.53017
 L 176.742,-7.03717 L 177.008,-7.49884 L 177.365,-7.895 L 177.796,-8.20836 L 178.283,-8.42519 L 178.805,-8.53603
 L 179.338,-8.53603 L 179.859,-8.42519 L 180.346,-8.20836 L 180.778,-7.895 L 181.134,-7.49884 L 181.401,-7.03717
 L 181.566,-6.53017 L 181.621,-6 L 181.621,-0 L 348.093,-0 L 348.093,-6 L 348.149,-6.53017
 L 348.313,-7.03717 L 348.58,-7.49884 L 348.937,-7.895 L 349.368,-8.20836 L 349.855,-8.42519 L 350.376,-8.53603
 L 350.909,-8.53603 L 351.431,-8.42519 L 351.918,-8.20836 L 352.349,-7.895 L 352.706,-7.49884 L 352.972,-7.03717
 L 353.137,-6.53017 L 353.193,-6 L 353.193,-0 L 519.664,-0 L 519.664,-6 L 519.72,-6.53017
 L 519.885,-7.03717 L 520.151,-7.49884 L 520.508,-7.895 L 520.939,-8.20836 L 521.426,-8.42519 L 521.948,-8.53603
 L 522.481,-8.53603 L 523.002,-8.42519 L 523.489,-8.20836 L 523.921,-7.895 L 524.277,-7.49884 L 524.544,-7.03717
 L 524.709,-6.53017 L 524.764,-6 L 524.764,-0 L 691.236,-0 L 691.236,-6 L 691.291,-6.53017
 L 691.456,-7.03717 L 691.723,-7.49884 L 692.079,-7.895 L 692.511,-8.20836 L 692.998,-8.42519 L 693.519,-8.53603
 L 694.052,-8.53603 L 694.574,-8.42519 L 695.061,-8.20836 L 695.492,-7.895 L 695.849,-7.49884 L 696.115,-7.03717
 L 696.28,-6.53017 L 696.336,-6 L 696.336,-0 L 862.807,-0 L 862.807,-6 L 862.863,-6.53017
 L 863.028,-7.03717 L 863.294,-7.49884 L 863.651,-7.895 L 864.082,-8.20836 L 864.569,-8.42519 L 865.091,-8.53603
 L 865.624,-8.53603 L 866.145,-8.42519 L 866.632,-8.20836 L 867.063,-7.895 L 867.42,-7.49884 L 867.687,-7.03717
 L 867.851,-6.53017 L 867.907,-6 L 867.907,-0 L 1034.38,-0 L 1034.38,-6 L 1034.43,-6.53017
 L 1034.6,-7.03717 L 1034.87,-7.49884 L 1035.22,-7.895 L 1035.65,-8.20836 L 1036.14,-8.42519 L 1036.66,-8.53603
 L 1037.2,-8.53603 L 1037.72,-8.42519 L 1038.2,-8.20836 L 1038.63,-7.895 L 1038.99,-7.49884 L 1039.26,-7.03717
 L 1039.42,-6.53017 L 1039.48,-6 L 1039.48,-0 L 1205.95,-0 L 1205.95,-6 L 1206.01,-6.53017
 L 1206.17,-7.03717 L 1206.44,-7.49884 L 1206.79,-7.895 L 1207.22,-8.20836 L 1207.71,-8.42519 L 1208.23,-8.53603
 L 1208.77,-8.53603 L 1209.29,-8.42519 L 1209.77,-8.20836 L 1210.21,-7.895 L 1210.56,-7.49884 L 1210.83,-7.03717
 L 1210.99,-6.53017 L 1211.05,-6 L 1211.05,-0 L 1216,-0 z
M 6.98573,-55.607 L 6.47708,-55.6875 L 5.97964,-55.8208 L 5.49887,-56.0054 L 5.04001,-56.2392 L 4.60811,-56.5196
 L 4.20789,-56.8437 L 3.84373,-57.2079 L 3.51964,-57.6081 L 3.23917,-58.04 L 3.00537,-58.4989 L 2.82082,-58.9796
 L 2.68752,-59.4771 L 2.60696,-59.9857 L 2.58,-60.5 L 2.60696,-61.0143 L 2.68752,-61.5229 L 2.82082,-62.0204
 L 3.00537,-62.5011 L 3.23917,-62.96 L 3.51964,-63.3919 L 3.84373,-63.7921 L 4.20789,-64.1563 L 4.60811,-64.4804
 L 4.95001,-64.7024 L 4.95001,-74 L 5.00574,-74.5302 L 5.17047,-75.0372 L 5.43701,-75.4988 L 5.79373,-75.895
 L 6.22501,-76.2084 L 6.71202,-76.4252 L 7.23346,-76.536 L 7.76654,-76.536 L 8.28798,-76.4252 L 8.77499,-76.2084
 L 9.20627,-75.895 L 9.56299,-75.4988 L 9.82953,-75.0372 L 9.99426,-74.5302 L 10.05,-74 L 10.05,-64.7024
 L 10.3919,-64.4804 L 10.7921,-64.1563 L 11.1563,-63.7921 L 11.4804,-63.3919 L 11.7608,-62.96 L 11.9946,-62.5011
 L 12.1792,-62.0204 L 12.3125,-61.5229 L 12.393,-61.0143 L 12.42,-60.5 L 12.393,-59.9857 L 12.3125,-59.4771
 L 12.1792,-58.9796 L 11.9946,-58.4989 L 11.7608,-58.04 L 11.4804,-57.6081 L 11.1563,-57.2079 L 10.7921,-56.8437
 L 10.3919,-56.5196 L 9.95999,-56.2392 L 9.50113,-56.0054 L 9.02036,-55.8208 L 8.52292,-55.6875 L 8.01427,-55.607
 L 7.5,-55.58 z
M 178.557,-55.607 L 178.049,-55.6875 L 177.551,-55.8208 L 177.07,-56.0054 L 176.611,-56.2392 L 176.18,-56.5196
 L 175.779,-56.8437 L 175.415,-57.2079 L 175.091,-57.6081 L 174.811,-58.04 L 174.577,-58.4989 L 174.392,-58.9796
 L 174.259,-59.4771 L 174.178,-59.9857 L 174.151,-60.5 L 174.178,-61.0143 L 174.259,-61.5229 L 174.392,-62.0204
 L 174.577,-62.5011 L 174.811,-62.96 L 175.091,-63.3919 L 175.415,-63.7921 L 175.779,-64.1563 L 176.18,-64.4804
 L 176.521,-64.7024 L 176.521,-74 L 176.577,-74.5302 L 176.742,-75.0372 L 177.008,-75.4988 L 177.365,-75.895
 L 177.796,-76.2084 L 178.283,-76.4252 L 178.805,-76.536 L 179.338,-76.536 L 179.859,-76.4252 L 180.346,-76.2084
 L 180.778,-75.895 L 181.134,-75.4988 L 181.401,-75.0372 L 181.566,-74.5302 L 181.621,-74 L 181.621,-64.7024
 L 181.963,-64.4804 L 182.364,-64.1563 L 182.728,-63.7921 L 183.052,-63.3919 L 183.332,-62.96 L 183.566,-62.5011
 L 183.751,-62.0204 L 183.884,-61.5229 L 183.964,-61.0143 L 183.991,-60.5 L 183.964,-59.9857 L 183.884,-59.4771
 L 183.751,-58.9796 L 183.566,-58.4989 L 183.332,-58.04 L 183.052,-57.6081 L 182.728,-57.2079 L 182.364,-56.8437
 L 181.963,-56.5196 L 181.531,-56.2392 L 181.073,-56.0054 L 180.592,-55.8208 L 180.094,-55.6875 L 179.586,-55.607
 L 179.071,-55.58 z
M 350.129,-55.607 L 349.62,-55.6875 L 349.122,-55.8208 L 348.642,-56.0054 L 348.183,-56.2392 L 347.751,-56.5196
 L 347.351,-56.8437 L 346.987,-57.2079 L 346.662,-57.6081 L 346.382,-58.04 L 346.148,-58.4989 L 345.964,-58.9796
 L 345.83,-59.4771 L 345.75,-59.9857 L 345.723,-60.5 L 345.75,-61.0143 L 345.83,-61.5229 L 345.964,-62.0204
 L 346.148,-62.5011 L 346.382,-62.96 L 346.662,-63.3919 L 346.987,-63.7921 L 347.351,-64.1563 L 347.751,-64.4804
 L 348.093,-64.7024 L 348.093,-74 L 348.149,-74.5302 L 348.313,-75.0372 L 348.58,-75.4988 L 348.937,-75.895
 L 349.368,-76.2084 L 349.855,-76.4252 L 350.376,-76.536 L 350.909,-76.536 L 351.431,-76.4252 L 351.918,-76.2084
 L 352.349,-75.895 L 352.706,-75.4988 L 352.972,-75.0372 L 353.137,-74.5302 L 353.193,-74 L 353.193,-64.7024
 L 353.535,-64.4804 L 353.935,-64.1563 L 354.299,-63.7921 L 354.623,-63.3919 L 354.904,-62.96 L 355.137,-62.5011
 L 355.322,-62.0204 L 355.455,-61.5229 L 355.536,-61.0143 L 355.563,-60.5 L 355.536,-59.9857 L 355.455,-59.4771
 L 355.322,-58.9796 L 355.137,-58.4989 L 354.904,-58.04 L 354.623,-57.6081 L 354.299,-57.2079 L 353.935,-56.8437
 L 353.535,-56.5196 L 353.103,-56.2392 L 352.644,-56.0054 L 352.163,-55.8208 L 351.666,-55.6875 L 351.157,-55.607
 L 350.643,-55.58 z
M 521.7,-55.607 L 521.191,-55.6875 L 520.694,-55.8208 L 520.213,-56.0054 L 519.754,-56.2392 L 519.322,-56.5196
 L 518.922,-56.8437 L 518.558,-57.2079 L 518.234,-57.6081 L 517.953,-58.04 L 517.72,-58.4989 L 517.535,-58.9796
 L 517.402,-59.4771 L 517.321,-59.9857 L 517.294,-60.5 L 517.321,-61.0143 L 517.402,-61.5229 L 517.535,-62.0204
 L 517.72,-62.5011 L 517.953,-62.96 L 518.234,-63.3919 L 518.558,-63.7921 L 518.922,-64.1563 L 519.322,-64.4804
 L 519.664,-64.7024 L 519.664,-74 L 519.72,-74.5302 L 519.885,-75.0372 L 520.151,-75.4988 L 520.508,-75.895
 L 520.939,-76.2084 L 521.426,-76.4252 L 521.948,-76.536 L 522.481,-76.536 L 523.002,-76.4252 L 523.489,-76.2084
 L 523.921,-75.895 L 524.277,-75.4988 L 524.544,-75.0372 L 524.709,-74.5302 L 524.764,-74 L 524.764,-64.7024
 L 525.106,-64.4804 L 525.506,-64.1563 L 525.871,-63.7921 L 526.195,-63.3919 L 526.475,-62.96 L 526.709,-62.5011
 L 526.893,-62.0204 L 527.027,-61.5229 L 527.107,-61.0143 L 527.134,-60.5 L 527.107,-59.9857 L 527.027,-59.4771
 L 526.893,-58.9796 L 526.709,-58.4989 L 526.475,-58.04 L 526.195,-57.6081 L 525.871,-57.2079 L 525.506,-56.8437
 L 525.106,-56.5196 L 524.674,-56.2392 L 524.215,-56.0054 L 523.735,-55.8208 L 523.237,-55.6875 L 522.729,-55.607
 L 522.214,-55.58 z
M 693.271,-55.607 L 692.763,-55.6875 L 692.265,-55.8208 L 691.785,-56.0054 L 691.326,-56.2392 L 690.894,-56.5196
 L 690.494,-56.8437 L 690.129,-57.2079 L 689.805,-57.6081 L 689.525,-58.04 L 689.291,-58.4989 L 689.107,-58.9796
 L 688.973,-59.4771 L 688.893,-59.9857 L 688.866,-60.5 L 688.893,-61.0143 L 688.973,-61.5229 L 689.107,-62.0204
 L 689.291,-62.5011 L 689.525,-62.96 L 689.805,-63.3919 L 690.129,-63.7921 L 690.494,-64.1563 L 690.894,-64.4804
 L 691.236,-64.7024 L 691.236,-74 L 691.291,-74.5302 L 691.456,-75.0372 L 691.723,-75.4988 L 692.079,-75.895
 L 692.511,-76.2084 L 692.998,-76.4252 L 693.519,-76.536 L 694.052,-76.536 L 694.574,-76.4252 L 695.061,-76.2084
 L 695.492,-75.895 L 695.849,-75.4988 L 696.115,-75.0372 L 696.28,-74.5302 L 696.336,-74 L 696.336,-64.7024
 L 696.678,-64.4804 L 697.078,-64.1563 L 697.442,-63.7921 L 697.766,-63.3919 L 698.047,-62.96 L 698.28,-62.5011
 L 698.465,-62.0204 L 698.598,-61.5229 L 698.679,-61.0143 L 698.706,-60.5 L 698.679,-59.9857 L 698.598,-59.4771
 L 698.465,-58.9796 L 698.28,-58.4989 L 698.047,-58.04 L 697.766,-57.6081 L 697.442,-57.2079 L 697.078,-56.8437
 L 696.678,-56.5196 L 696.246,-56.2392 L 695.787,-56.0054 L 695.306,-55.8208 L 694.809,-55.6875 L 694.3,-55.607
 L 693.786,-55.58 z
M 864.843,-55.607 L 864.334,-55.6875 L 863.837,-55.8208 L 863.356,-56.0054 L 862.897,-56.2392 L 862.465,-56.5196
 L 862.065,-56.8437 L 861.701,-57.2079 L 861.377,-57.6081 L 861.096,-58.04 L 860.863,-58.4989 L 860.678,-58.9796
 L 860.545,-59.4771 L 860.464,-59.9857 L 860.437,-60.5 L 860.464,-61.0143 L 860.545,-61.5229 L 860.678,-62.0204
 L 860.863,-62.5011 L 861.096,-62.96 L 861.377,-63.3919 L 861.701,-63.7921 L 862.065,-64.1563 L 862.465,-64.4804
 L 862.807,-64.7024 L 862.807,-74 L 862.863,-74.5302 L 863.028,-75.0372 L 863.294,-75.4988 L 863.651,-75.895
 L 864.082,-76.2084 L 864.569,-76.4252 L 865.091,-76.536 L 865.624,-76.536 L 866.145,-76.4252 L 866.632,-76.2084
 L 867.063,-75.895 L 867.42,-75.4988 L 867.687,-75.0372 L 867.851,-74.5302 L 867.907,-74 L 867.907,-64.7024
 L 868.249,-64.4804 L 868.649,-64.1563 L 869.013,-63.7921 L 869.337,-63.3919 L 869.618,-62.96 L 869.852,-62.5011
 L 870.036,-62.0204 L 870.17,-61.5229 L 870.25,-61.0143 L 870.277,-60.5 L 870.25,-59.9857 L 870.17,-59.4771
 L 870.036,-58.9796 L 869.852,-58.4989 L 869.618,-58.04 L 869.337,-57.6081 L 869.013,-57.2079 L 868.649,-56.8437
 L 868.249,-56.5196 L 867.817,-56.2392 L 867.358,-56.0054 L 866.877,-55.8208 L 866.38,-55.6875 L 865.871,-55.607
 L 865.357,-55.58 z
M 1036.41,-55.607 L 1035.91,-55.6875 L 1035.41,-55.8208 L 1034.93,-56.0054 L 1034.47,-56.2392 L 1034.04,-56.5196
 L 1033.64,-56.8437 L 1033.27,-57.2079 L 1032.95,-57.6081 L 1032.67,-58.04 L 1032.43,-58.4989 L 1032.25,-58.9796
 L 1032.12,-59.4771 L 1032.04,-59.9857 L 1032.01,-60.5 L 1032.04,-61.0143 L 1032.12,-61.5229 L 1032.25,-62.0204
 L 1032.43,-62.5011 L 1032.67,-62.96 L 1032.95,-63.3919 L 1033.27,-63.7921 L 1033.64,-64.1563 L 1034.04,-64.4804
 L 1034.38,-64.7024 L 1034.38,-74 L 1034.43,-74.5302 L 1034.6,-75.0372 L 1034.87,-75.4988 L 1035.22,-75.895
 L 1035.65,-76.2084 L 1036.14,-76.4252 L 1036.66,-76.536 L 1037.2,-76.536 L 1037.72,-76.4252 L 1038.2,-76.2084
 L 1038.63,-75.895 L 1038.99,-75.4988 L 1039.26,-75.0372 L 1039.42,-74.5302 L 1039.48,-74 L 1039.48,-64.7024
 L 1039.82,-64.4804 L 1040.22,-64.1563 L 1040.58,-63.7921 L 1040.91,-63.3919 L 1041.19,-62.96 L 1041.42,-62.5011
 L 1041.61,-62.0204 L 1041.74,-61.5229 L 1041.82,-61.0143 L 1041.85,-60.5 L 1041.82,-59.9857 L 1041.74,-59.4771
 L 1041.61,-58.9796 L 1041.42,-58.4989 L 1041.19,-58.04 L 1040.91,-57.6081 L 1040.58,-57.2079 L 1040.22,-56.8437
 L 1039.82,-56.5196 L 1039.39,-56.2392 L 1038.93,-56.0054 L 1038.45,-55.8208 L 1037.95,-55.6875 L 1037.44,-55.607
 L 1036.93,-55.58 z
M 1207.99,-55.607 L 1207.48,-55.6875 L 1206.98,-55.8208 L 1206.5,-56.0054 L 1206.04,-56.2392 L 1205.61,-56.5196
 L 1205.21,-56.8437 L 1204.84,-57.2079 L 1204.52,-57.6081 L 1204.24,-58.04 L 1204.01,-58.4989 L 1203.82,-58.9796
 L 1203.69,-59.4771 L 1203.61,-59.9857 L 1203.58,-60.5 L 1203.61,-61.0143 L 1203.69,-61.5229 L 1203.82,-62.0204
 L 1204.01,-62.5011 L 1204.24,-62.96 L 1204.52,-63.3919 L 1204.84,-63.7921 L 1205.21,-64.1563 L 1205.61,-64.4804
 L 1205.95,-64.7024 L 1205.95,-74 L 1206.01,-74.5302 L 1206.17,-75.0372 L 1206.44,-75.4988 L 1206.79,-75.895
 L 1207.23,-76.2084 L 1207.71,-76.4252 L 1208.23,-76.536 L 1208.77,-76.536 L 1209.29,-76.4252 L 1209.77,-76.2084
 L 1210.21,-75.895 L 1210.56,-75.4988 L 1210.83,-75.0372 L 1210.99,-74.5302 L 1211.05,-74 L 1211.05,-64.7024
 L 1211.39,-64.4804 L 1211.79,-64.1563 L 1212.16,-63.7921 L 1212.48,-63.3919 L 1212.76,-62.96 L 1212.99,-62.5011
 L 1213.18,-62.0204 L 1213.31,-61.5229 L 1213.39,-61.0143 L 1213.42,-60.5 L 1213.39,-59.9857 L 1213.31,-59.4771
 L 1213.18,-58.9796 L 1212.99,-58.4989 L 1212.76,-58.04 L 1212.48,-57.6081 L 1212.16,-57.2079 L 1211.79,-56.8437
 L 1211.39,-56.5196 L 1210.96,-56.2392 L 1210.5,-56.0054 L 1210.02,-55.8208 L 1209.52,-55.6875 L 1209.01,-55.607
 L 1208.5,-55.58 z
M 705.792,-21.2494 L 705.008,-21.5406 L 704.302,-21.9885 L 703.705,-22.5733 L 703.242,-23.2697 L 702.933,-24.0471
 L 702.786,-25.1241 L 702.786,-58 L 702.873,-58.8316 L 703.132,-59.627 L 703.55,-60.3511 L 704.109,-60.9726
 L 704.786,-61.4641 L 705.55,-61.8042 L 706.786,-62 L 789.735,-62 L 790.567,-61.9126 L 791.362,-61.6542
 L 792.086,-61.2361 L 792.708,-60.6765 L 793.199,-60 L 793.539,-59.2361 L 793.713,-58.4181 L 793.713,-57.5819
 L 793.539,-56.7639 L 793.199,-56 L 792.708,-55.3235 L 792.086,-54.7639 L 791.209,-54.2814 L 708.26,-21.4055
 L 707.454,-21.1804 L 706.62,-21.1276 z
M 607.331,-47.8785 L 606.526,-48.1037 L 590.939,-54.2814 L 590.062,-54.7639 L 589.44,-55.3235 L 588.949,-56
 L 588.609,-56.7639 L 588.435,-57.5819 L 588.435,-58.4181 L 588.609,-59.2361 L 588.949,-60 L 589.44,-60.6765
 L 590.062,-61.2361 L 590.786,-61.6542 L 591.581,-61.9126 L 592.413,-62 L 623.587,-62 L 624.581,-61.8747
 L 625.364,-61.5835 L 626.071,-61.1357 L 626.668,-60.5508 L 627.131,-59.8544 L 627.439,-59.077 L 627.579,-58.2526
 L 627.544,-57.4171 L 627.337,-56.607 L 626.965,-55.8579 L 626.446,-55.2023 L 625.802,-54.6691 L 625.061,-54.2814
 L 609.474,-48.1037 L 608.993,-47.9476 L 608.166,-47.8257 z
M 508.546,-21.1804 L 507.74,-21.4055 L 424.791,-54.2814 L 423.914,-54.7639 L 423.292,-55.3235 L 422.801,-56
 L 422.461,-56.7639 L 422.287,-57.5819 L 422.287,-58.4181 L 422.461,-59.2361 L 422.801,-60 L 423.292,-60.6765
 L 423.914,-61.2361 L 424.638,-61.6542 L 425.433,-61.9126 L 426.265,-62 L 509.214,-62 L 510.45,-61.8042
 L 511.214,-61.4641 L 511.891,-60.9726 L 512.45,-60.3511 L 512.868,-59.627 L 513.127,-58.8316 L 513.214,-58
 L 513.214,-25.1241 L 513.067,-24.0471 L 512.758,-23.2697 L 512.295,-22.5733 L 511.698,-21.9885 L 510.992,-21.5406
 L 510.208,-21.2494 L 509.38,-21.1276 z
M 336.974,-21.1804 L 336.169,-21.4055 L 253.22,-54.2814 L 252.342,-54.7639 L 251.721,-55.3235 L 251.229,-56
 L 250.889,-56.7639 L 250.715,-57.5819 L 250.715,-58.4181 L 250.889,-59.2361 L 251.229,-60 L 251.721,-60.6765
 L 252.342,-61.2361 L 253.066,-61.6542 L 253.862,-61.9126 L 254.693,-62 L 337.643,-62 L 338.879,-61.8042
 L 339.643,-61.4641 L 340.319,-60.9726 L 340.879,-60.3511 L 341.297,-59.627 L 341.555,-58.8316 L 341.643,-58
 L 341.643,-25.1241 L 341.495,-24.0471 L 341.187,-23.2697 L 340.724,-22.5733 L 340.126,-21.9885 L 339.42,-21.5406
 L 338.636,-21.2494 L 337.809,-21.1276 z
M 1048.94,-21.2494 L 1048.15,-21.5406 L 1047.45,-21.9885 L 1046.85,-22.5733 L 1046.38,-23.2697 L 1046.08,-24.0471
 L 1045.93,-25.1241 L 1045.93,-58 L 1046.02,-58.8316 L 1046.27,-59.627 L 1046.69,-60.3511 L 1047.25,-60.9726
 L 1047.93,-61.4641 L 1048.69,-61.8042 L 1049.93,-62 L 1132.88,-62 L 1133.71,-61.9126 L 1134.5,-61.6542
 L 1135.23,-61.2361 L 1135.85,-60.6765 L 1136.34,-60 L 1136.68,-59.2361 L 1136.86,-58.4181 L 1136.86,-57.5819
 L 1136.68,-56.7639 L 1136.34,-56 L 1135.85,-55.3235 L 1135.23,-54.7639 L 1134.35,-54.2814 L 1051.4,-21.4055
 L 1050.6,-21.1804 L 1049.76,-21.1276 z
M 165.403,-21.1804 L 164.598,-21.4055 L 81.6481,-54.2814 L 80.7708,-54.7639 L 80.1494,-55.3235 L 79.6579,-56
 L 79.3177,-56.7639 L 79.1439,-57.5819 L 79.1439,-58.4181 L 79.3177,-59.2361 L 79.6579,-60 L 80.1494,-60.6765
 L 80.7708,-61.2361 L 81.495,-61.6542 L 82.2903,-61.9126 L 83.122,-62 L 166.071,-62 L 167.307,-61.8042
 L 168.071,-61.4641 L 168.748,-60.9726 L 169.307,-60.3511 L 169.726,-59.627 L 169.984,-58.8316 L 170.071,-58
 L 170.071,-25.1241 L 169.924,-24.0471 L 169.616,-23.2697 L 169.153,-22.5733 L 168.555,-21.9885 L 167.849,-21.5406
 L 167.065,-21.2494 L 166.238,-21.1276 z
M 877.364,-21.2494 L 876.58,-21.5406 L 875.874,-21.9885 L 875.276,-22.5733 L 874.813,-23.2697 L 874.505,-24.0471
 L 874.357,-25.1241 L 874.357,-58 L 874.445,-58.8316 L 874.703,-59.627 L 875.121,-60.3511 L 875.681,-60.9726
 L 876.357,-61.4641 L 877.121,-61.8042 L 878.357,-62 L 961.307,-62 L 962.138,-61.9126 L 962.934,-61.6542
 L 963.658,-61.2361 L 964.279,-60.6765 L 964.771,-60 L 965.111,-59.2361 L 965.285,-58.4181 L 965.285,-57.5819
 L 965.111,-56.7639 L 964.771,-56 L 964.279,-55.3235 L 963.658,-54.7639 L 962.78,-54.2814 L 879.831,-21.4055
 L 879.026,-21.1804 L 878.191,-21.1276 z
M 534.796,-18.9965 L 533.978,-19.1704 L 533.214,-19.5105 L 532.538,-20.002 L 531.978,-20.6235 L 531.56,-21.3477
 L 531.302,-22.143 L 531.214,-22.9746 L 531.214,-57.0254 L 531.362,-58.1024 L 531.67,-58.8798 L 532.133,-59.5762
 L 532.731,-60.161 L 533.437,-60.6089 L 534.221,-60.9001 L 535.048,-61.0219 L 535.883,-60.9691 L 536.688,-60.744
 L 579.645,-43.7186 L 580.655,-43.1357 L 581.252,-42.5508 L 581.715,-41.8544 L 582.023,-41.077 L 582.163,-40.2526
 L 582.128,-39.4171 L 581.921,-38.607 L 581.549,-37.8579 L 581.03,-37.2024 L 580.386,-36.6691 L 579.645,-36.2814
 L 536.688,-19.256 L 535.632,-18.9965 z
M 680.117,-19.0309 L 679.312,-19.256 L 636.355,-36.2814 L 635.345,-36.8643 L 634.748,-37.4492 L 634.285,-38.1456
 L 633.977,-38.923 L 633.837,-39.7474 L 633.872,-40.5829 L 634.079,-41.393 L 634.451,-42.1421 L 634.97,-42.7976
 L 635.614,-43.3309 L 636.355,-43.7186 L 679.312,-60.744 L 680.368,-61.0035 L 681.204,-61.0035 L 682.022,-60.8296
 L 682.786,-60.4895 L 683.462,-59.998 L 684.022,-59.3765 L 684.44,-58.6523 L 684.698,-57.857 L 684.786,-57.0254
 L 684.786,-22.9746 L 684.638,-21.8976 L 684.33,-21.1202 L 683.867,-20.4238 L 683.269,-19.839 L 682.563,-19.3911
 L 681.779,-19.0999 L 680.952,-18.9781 z
M 192.071,-18 L 190.835,-18.1958 L 190.071,-18.5359 L 189.395,-19.0274 L 188.835,-19.6489 L 188.417,-20.373
 L 188.159,-21.1684 L 188.071,-22 L 188.071,-54.8759 L 188.219,-55.9529 L 188.527,-56.7303 L 188.99,-57.4267
 L 189.588,-58.0115 L 190.294,-58.4594 L 191.078,-58.7505 L 191.905,-58.8724 L 192.74,-58.8196 L 193.545,-58.5945
 L 276.495,-25.7186 L 277.372,-25.2361 L 277.993,-24.6765 L 278.485,-24 L 278.825,-23.2361 L 278.999,-22.4181
 L 278.999,-21.5819 L 278.825,-20.7639 L 278.485,-20 L 277.993,-19.3235 L 277.372,-18.7639 L 276.648,-18.3458
 L 275.853,-18.0874 L 275.021,-18 z
M 363.643,-18 L 362.407,-18.1958 L 361.643,-18.5359 L 360.966,-19.0274 L 360.407,-19.6489 L 359.989,-20.373
 L 359.73,-21.1684 L 359.643,-22 L 359.643,-54.8759 L 359.791,-55.9529 L 360.099,-56.7303 L 360.562,-57.4267
 L 361.159,-58.0115 L 361.866,-58.4594 L 362.649,-58.7505 L 363.477,-58.8724 L 364.311,-58.8196 L 365.117,-58.5945
 L 448.066,-25.7186 L 448.943,-25.2361 L 449.565,-24.6765 L 450.056,-24 L 450.397,-23.2361 L 450.57,-22.4181
 L 450.57,-21.5819 L 450.397,-20.7639 L 450.056,-20 L 449.565,-19.3235 L 448.943,-18.7639 L 448.219,-18.3458
 L 447.424,-18.0874 L 446.592,-18 z
M 769.408,-18 L 768.576,-18.0874 L 767.781,-18.3458 L 767.057,-18.7639 L 766.435,-19.3235 L 765.944,-20
 L 765.603,-20.7639 L 765.43,-21.5819 L 765.43,-22.4181 L 765.603,-23.2361 L 765.944,-24 L 766.435,-24.6765
 L 767.057,-25.2361 L 767.934,-25.7186 L 850.883,-58.5945 L 851.689,-58.8196 L 852.523,-58.8724 L 853.351,-58.7505
 L 854.134,-58.4594 L 854.841,-58.0115 L 855.438,-57.4267 L 855.901,-56.7303 L 856.209,-55.9529 L 856.357,-54.8759
 L 856.357,-22 L 856.27,-21.1684 L 856.011,-20.373 L 855.593,-19.6489 L 855.034,-19.0274 L 854.357,-18.5359
 L 853.593,-18.1958 L 852.357,-18 z
M 940.979,-18 L 940.147,-18.0874 L 939.352,-18.3458 L 938.628,-18.7639 L 938.007,-19.3235 L 937.515,-20
 L 937.175,-20.7639 L 937.001,-21.5819 L 937.001,-22.4181 L 937.175,-23.2361 L 937.515,-24 L 938.007,-24.6765
 L 938.628,-25.2361 L 939.505,-25.7186 L 1022.45,-58.5945 L 1023.26,-58.8196 L 1024.09,-58.8724 L 1024.92,-58.7505
 L 1025.71,-58.4594 L 1026.41,-58.0115 L 1027.01,-57.4267 L 1027.47,-56.7303 L 1027.78,-55.9529 L 1027.93,-54.8759
 L 1027.93,-22 L 1027.84,-21.1684 L 1027.58,-20.373 L 1027.16,-19.6489 L 1026.61,-19.0274 L 1025.93,-18.5359
 L 1025.16,-18.1958 L 1023.93,-18 z
M 22,-18 L 20.7639,-18.1958 L 20,-18.5359 L 19.3235,-19.0274 L 18.7639,-19.6489 L 18.3458,-20.373
 L 18.0874,-21.1684 L 18,-22 L 18,-54.2814 L 18.1477,-55.3584 L 18.4558,-56.1358 L 18.9189,-56.8322
 L 19.5165,-57.417 L 20.2227,-57.8649 L 21.0066,-58.1561 L 21.8339,-58.2779 L 22.6685,-58.2251 L 23.4738,-58
 L 104.923,-25.7186 L 105.801,-25.2361 L 106.422,-24.6765 L 106.914,-24 L 107.254,-23.2361 L 107.428,-22.4181
 L 107.428,-21.5819 L 107.254,-20.7639 L 106.914,-20 L 106.422,-19.3235 L 105.801,-18.7639 L 105.076,-18.3458
 L 104.281,-18.0874 L 103.449,-18 z
M 1112.55,-18 L 1111.72,-18.0874 L 1110.92,-18.3458 L 1110.2,-18.7639 L 1109.58,-19.3235 L 1109.09,-20
 L 1108.75,-20.7639 L 1108.57,-21.5819 L 1108.57,-22.4181 L 1108.75,-23.2361 L 1109.09,-24 L 1109.58,-24.6765
 L 1110.2,-25.2361 L 1111.08,-25.7186 L 1192.53,-58 L 1193.33,-58.2251 L 1194.17,-58.2779 L 1194.99,-58.1561
 L 1195.78,-57.8649 L 1196.48,-57.417 L 1197.08,-56.8322 L 1197.54,-56.1358 L 1197.85,-55.3584 L 1198,-54.2814
 L 1198,-22 L 1197.91,-21.1684 L 1197.65,-20.373 L 1197.24,-19.6489 L 1196.68,-19.0274 L 1196,-18.5359
 L 1195.24,-18.1958 L 1194,-18 z
M 592.413,-18 L 591.419,-18.1253 L 590.636,-18.4165 L 589.929,-18.8643 L 589.332,-19.4492 L 588.869,-20.1456
 L 588.561,-20.923 L 588.421,-21.7474 L 588.456,-22.5829 L 588.663,-23.393 L 589.035,-24.1421 L 589.554,-24.7976
 L 590.198,-25.3309 L 590.939,-25.7186 L 606.526,-31.8963 L 607.007,-32.0524 L 607.834,-32.1743 L 608.668,-32.1215
 L 609.474,-31.8963 L 625.061,-25.7186 L 625.938,-25.2361 L 626.56,-24.6765 L 627.051,-24 L 627.391,-23.2361
 L 627.565,-22.4181 L 627.565,-21.5819 L 627.391,-20.7639 L 627.051,-20 L 626.56,-19.3235 L 625.938,-18.7639
 L 625.214,-18.3458 L 624.419,-18.0874 L 623.587,-18 z
" stroke="black" fill="lightgray" stroke-width="0.5"/>
</svg>
