<?xml version="1.0" standalone="no"?>
<!DOCTYPE svg PUBLIC "-//W3C//DTD SVG 1.1//EN" "http://www.w3.org/Graphics/SVG/1.1/DTD/svg11.dtd">
<svg width="1136mm" height="80mm" viewBox="0 -80 1136 80" xmlns="http://www.w3.org/2000/svg" version="1.1">
<title>OpenSCAD Model</title>
<path d="
M 1136,-80 L 0,-80 L 0,-0 L 4.95,-0 L 4.95,-6 L 5.00572,-6.53017
 L 5.17046,-7.03717 L 5.437,-7.49884 L 5.79372,-7.895 L 6.22499,-8.20836 L 6.71201,-8.42519 L 7.23344,-8.53603
 L 7.76654,-8.53603 L 8.28798,-8.42519 L 8.77499,-8.20836 L 9.20627,-7.895 L 9.56299,-7.49884 L 9.82953,-7.03717
 L 9.99426,-6.53017 L 10.05,-6 L 10.05,-0 L 191.783,-0 L 191.783,-6 L 191.839,-6.53017
 L 192.004,-7.03717 L 192.27,-7.49884 L 192.627,-7.895 L 193.058,-8.20836 L 193.545,-8.42519 L 194.067,-8.53603
 L 194.6,-8.53603 L 195.121,-8.42519 L 195.608,-8.20836 L 196.04,-7.895 L 196.396,-7.49884 L 196.663,-7.03717
 L 196.828,-6.53017 L 196.883,-6 L 196.883,-0 L 378.617,-0 L 378.617,-6 L 378.672,-6.53017
 L 378.837,-7.03717 L 379.104,-7.49884 L 379.46,-7.895 L 379.892,-8.20836 L 380.379,-8.42519 L 380.9,-8.53603
 L 381.433,-8.53603 L 381.955,-8.42519 L 382.442,-8.20836 L 382.873,-7.895 L 383.23,-7.49884 L 383.496,-7.03717
 L 383.661,-6.53017 L 383.717,-6 L 383.717,-0 L 565.45,-0 L 565.45,-6 L 565.506,-6.53017
 L 565.67,-7.03717 L 565.937,-7.49884 L 566.294,-7.895 L 566.725,-8.20836 L 567.212,-8.42519 L 567.733,-8.53603
 L 568.267,-8.53603 L 568.788,-8.42519 L 569.275,-8.20836 L 569.706,-7.895 L 570.063,-7.49884 L 570.33,-7.03717
 L 570.494,-6.53017 L 570.55,-6 L 570.55,-0 L 752.283,-0 L 752.283,-6 L 752.339,-6.53017
 L 752.504,-7.03717 L 752.77,-7.49884 L 753.127,-7.895 L 753.558,-8.20836 L 754.045,-8.42519 L 754.567,-8.53603
 L 755.1,-8.53603 L 755.621,-8.42519 L 756.108,-8.20836 L 756.54,-7.895 L 756.896,-7.49884 L 757.163,-7.03717
 L 757.328,-6.53017 L 757.383,-6 L 757.383,-0 L 939.117,-0 L 939.117,-6 L 939.172,-6.53017
 L 939.337,-7.03717 L 939.604,-7.49884 L 939.96,-7.895 L 940.392,-8.20836 L 940.879,-8.42519 L 941.4,-8.53603
 L 941.933,-8.53603 L 942.455,-8.42519 L 942.942,-8.20836 L 943.373,-7.895 L 943.73,-7.49884 L 943.996,-7.03717
 L 944.161,-6.53017 L 944.217,-6 L 944.217,-0 L 1125.95,-0 L 1125.95,-6 L 1126.01,-6.53017
 L 1126.17,-7.03717 L 1126.44,-7.49884 L 1126.79,-7.895 L 1127.22,-8.20836 L 1127.71,-8.42519 L 1128.23,-8.53603
 L 1128.77,-8.53603 L 1129.29,-8.42519 L 1129.77,-8.20836 L 1130.21,-7.895 L 1130.56,-7.49884 L 1130.83,-7.03717
 L 1130.99,-6.53017 L 1131.05,-6 L 1131.05,-0 L 1136,-0 z
M 6.98573,-55.607 L 6.47708,-55.6875 L 5.97964,-55.8208 L 5.49887,-56.0054 L 5.04001,-56.2392 L 4.60811,-56.5196
 L 4.20789,-56.8437 L 3.84373,-57.2079 L 3.51964,-57.6081 L 3.23917,-58.04 L 3.00537,-58.4989 L 2.82082,-58.9796
 L 2.68752,-59.4771 L 2.60696,-59.9857 L 2.58,-60.5 L 2.60696,-61.0143 L 2.68752,-61.5229 L 2.82082,-62.0204
 L 3.00537,-62.5011 L 3.23917,-62.96 L 3.51964,-63.3919 L 3.84373,-63.7921 L 4.20789,-64.1563 L 4.60811,-64.4804
 L 4.95001,-64.7024 L 4.95001,-74 L 5.00574,-74.5302 L 5.17047,-75.0372 L 5.43701,-75.4988 L 5.79373,-75.895
 L 6.22501,-76.2084 L 6.71202,-76.4252 L 7.23346,-76.536 L 7.76654,-76.536 L 8.28798,-76.4252 L 8.77499,-76.2084
 L 9.20627,-75.895 L 9.56299,-75.4988 L 9.82953,-75.0372 L 9.99426,-74.5302 L 10.05,-74 L 10.05,-64.7024
 L 10.3919,-64.4804 L 10.7921,-64.1563 L 11.1563,-63.7921 L 11.4804,-63.3919 L 11.7608,-62.96 L 11.9946,-62.5011
 L 12.1792,-62.0204 L 12.3125,-61.5229 L 12.393,-61.0143 L 12.42,-60.5 L 12.393,-59.9857 L 12.3125,-59.4771
 L 12.1792,-58.9796 L 11.9946,-58.4989 L 11.7608,-58.04 L 11.4804,-57.6081 L 11.1563,-57.2079 L 10.7921,-56.8437
 L 10.3919,-56.5196 L 9.95999,-56.2392 L 9.50113,-56.0054 L 9.02036,-55.8208 L 8.52292,-55.6875 L 8.01427,-55.607
 L 7.5,-55.58 z
M 193.819,-55.607 L 193.31,-55.6875 L 192.813,-55.8208 L 192.332,-56.0054 L 191.873,-56.2392 L 191.441,-56.5196
 L 191.041,-56.8437 L 190.677,-57.2079 L 190.353,-57.6081 L 190.072,-58.04 L 189.839,-58.4989 L 189.654,-58.9796
 L 189.521,-59.4771 L 189.44,-59.9857 L 189.413,-60.5 L 189.44,-61.0143 L 189.521,-61.5229 L 189.654,-62.0204
 L 189.839,-62.5011 L 190.072,-62.96 L 190.353,-63.3919 L 190.677,-63.7921 L 191.041,-64.1563 L 191.441,-64.4804
 L 191.783,-64.7024 L 191.783,-74 L 191.839,-74.5302 L 192.004,-75.0372 L 192.27,-75.4988 L 192.627,-75.895
 L 193.058,-76.2084 L 193.545,-76.4252 L 194.067,-76.536 L 194.6,-76.536 L 195.121,-76.4252 L 195.608,-76.2084
 L 196.04,-75.895 L 196.396,-75.4988 L 196.663,-75.0372 L 196.828,-74.5302 L 196.883,-74 L 196.883,-64.7024
 L 197.225,-64.4804 L 197.625,-64.1563 L 197.99,-63.7921 L 198.314,-63.3919 L 198.594,-62.96 L 198.828,-62.5011
 L 199.013,-62.0204 L 199.146,-61.5229 L 199.226,-61.0143 L 199.253,-60.5 L 199.226,-59.9857 L 199.146,-59.4771
 L 199.013,-58.9796 L 198.828,-58.4989 L 198.594,-58.04 L 198.314,-57.6081 L 197.99,-57.2079 L 197.625,-56.8437
 L 197.225,-56.5196 L 196.793,-56.2392 L 196.334,-56.0054 L 195.854,-55.8208 L 195.356,-55.6875 L 194.848,-55.607
 L 194.333,-55.58 z
M 380.652,-55.607 L 380.144,-55.6875 L 379.646,-55.8208 L 379.166,-56.0054 L 378.707,-56.2392 L 378.275,-56.5196
 L 377.875,-56.8437 L 377.51,-57.2079 L 377.186,-57.6081 L 376.906,-58.04 L 376.672,-58.4989 L 376.487,-58.9796
 L 376.354,-59.4771 L 376.274,-59.9857 L 376.247,-60.5 L 376.274,-61.0143 L 376.354,-61.5229 L 376.487,-62.0204
 L 376.672,-62.5011 L 376.906,-62.96 L 377.186,-63.3919 L 377.51,-63.7921 L 377.875,-64.1563 L 378.275,-64.4804
 L 378.617,-64.7024 L 378.617,-74 L 378.672,-74.5302 L 378.837,-75.0372 L 379.104,-75.4988 L 379.46,-75.895
 L 379.892,-76.2084 L 380.379,-76.4252 L 380.9,-76.536 L 381.433,-76.536 L 381.955,-76.4252 L 382.442,-76.2084
 L 382.873,-75.895 L 383.23,-75.4988 L 383.496,-75.0372 L 383.661,-74.5302 L 383.717,-74 L 383.717,-64.7024
 L 384.059,-64.4804 L 384.459,-64.1563 L 384.823,-63.7921 L 385.147,-63.3919 L 385.427,-62.96 L 385.661,-62.5011
 L 385.846,-62.0204 L 385.979,-61.5229 L 386.06,-61.0143 L 386.087,-60.5 L 386.06,-59.9857 L 385.979,-59.4771
 L 385.846,-58.9796 L 385.661,-58.4989 L 385.427,-58.04 L 385.147,-57.6081 L 384.823,-57.2079 L 384.459,-56.8437
 L 384.059,-56.5196 L 383.627,-56.2392 L 383.168,-56.0054 L 382.687,-55.8208 L 382.19,-55.6875 L 381.681,-55.607
 L 381.167,-55.58 z
M 567.486,-55.607 L 566.977,-55.6875 L 566.48,-55.8208 L 565.999,-56.0054 L 565.54,-56.2392 L 565.108,-56.5196
 L 564.708,-56.8437 L 564.344,-57.2079 L 564.02,-57.6081 L 563.739,-58.04 L 563.505,-58.4989 L 563.321,-58.9796
 L 563.188,-59.4771 L 563.107,-59.9857 L 563.08,-60.5 L 563.107,-61.0143 L 563.188,-61.5229 L 563.321,-62.0204
 L 563.505,-62.5011 L 563.739,-62.96 L 564.02,-63.3919 L 564.344,-63.7921 L 564.708,-64.1563 L 565.108,-64.4804
 L 565.45,-64.7024 L 565.45,-74 L 565.506,-74.5302 L 565.67,-75.0372 L 565.937,-75.4988 L 566.294,-75.895
 L 566.725,-76.2084 L 567.212,-76.4252 L 567.733,-76.536 L 568.267,-76.536 L 568.788,-76.4252 L 569.275,-76.2084
 L 569.706,-75.895 L 570.063,-75.4988 L 570.33,-75.0372 L 570.494,-74.5302 L 570.55,-74 L 570.55,-64.7024
 L 570.892,-64.4804 L 571.292,-64.1563 L 571.656,-63.7921 L 571.98,-63.3919 L 572.261,-62.96 L 572.495,-62.5011
 L 572.679,-62.0204 L 572.812,-61.5229 L 572.893,-61.0143 L 572.92,-60.5 L 572.893,-59.9857 L 572.812,-59.4771
 L 572.679,-58.9796 L 572.495,-58.4989 L 572.261,-58.04 L 571.98,-57.6081 L 571.656,-57.2079 L 571.292,-56.8437
 L 570.892,-56.5196 L 570.46,-56.2392 L 570.001,-56.0054 L 569.52,-55.8208 L 569.023,-55.6875 L 568.514,-55.607
 L 568,-55.58 z
M 754.319,-55.607 L 753.81,-55.6875 L 753.313,-55.8208 L 752.832,-56.0054 L 752.373,-56.2392 L 751.941,-56.5196
 L 751.541,-56.8437 L 751.177,-57.2079 L 750.853,-57.6081 L 750.572,-58.04 L 750.339,-58.4989 L 750.154,-58.9796
 L 750.021,-59.4771 L 749.94,-59.9857 L 749.913,-60.5 L 749.94,-61.0143 L 750.021,-61.5229 L 750.154,-62.0204
 L 750.339,-62.5011 L 750.572,-62.96 L 750.853,-63.3919 L 751.177,-63.7921 L 751.541,-64.1563 L 751.941,-64.4804
 L 752.283,-64.7024 L 752.283,-74 L 752.339,-74.5302 L 752.504,-75.0372 L 752.77,-75.4988 L 753.127,-75.895
 L 753.558,-76.2084 L 754.045,-76.4252 L 754.567,-76.536 L 755.1,-76.536 L 755.621,-76.4252 L 756.108,-76.2084
 L 756.54,-75.895 L 756.896,-75.4988 L 757.163,-75.0372 L 757.328,-74.5302 L 757.383,-74 L 757.383,-64.7024
 L 757.725,-64.4804 L 758.125,-64.1563 L 758.49,-63.7921 L 758.814,-63.3919 L 759.094,-62.96 L 759.328,-62.5011
 L 759.513,-62.0204 L 759.646,-61.5229 L 759.726,-61.0143 L 759.753,-60.5 L 759.726,-59.9857 L 759.646,-59.4771
 L 759.513,-58.9796 L 759.328,-58.4989 L 759.094,-58.04 L 758.814,-57.6081 L 758.49,-57.2079 L 758.125,-56.8437
 L 757.725,-56.5196 L 757.293,-56.2392 L 756.834,-56.0054 L 756.354,-55.8208 L 755.856,-55.6875 L 755.348,-55.607
 L 754.833,-55.58 z
M 941.152,-55.607 L 940.644,-55.6875 L 940.146,-55.8208 L 939.666,-56.0054 L 939.207,-56.2392 L 938.775,-56.5196
 L 938.375,-56.8437 L 938.01,-57.2079 L 937.686,-57.6081 L 937.406,-58.04 L 937.172,-58.4989 L 936.987,-58.9796
 L 936.854,-59.4771 L 936.774,-59.9857 L 936.747,-60.5 L 936.774,-61.0143 L 936.854,-61.5229 L 936.987,-62.0204
 L 937.172,-62.5011 L 937.406,-62.96 L 937.686,-63.3919 L 938.01,-63.7921 L 938.375,-64.1563 L 938.775,-64.4804
 L 939.117,-64.7024 L 939.117,-74 L 939.172,-74.5302 L 939.337,-75.0372 L 939.604,-75.4988 L 939.96,-75.895
 L 940.392,-76.2084 L 940.879,-76.4252 L 941.4,-76.536 L 941.933,-76.536 L 942.455,-76.4252 L 942.942,-76.2084
 L 943.373,-75.895 L 943.73,-75.4988 L 943.996,-75.0372 L 944.161,-74.5302 L 944.217,-74 L 944.217,-64.7024
 L 944.559,-64.4804 L 944.959,-64.1563 L 945.323,-63.7921 L 945.647,-63.3919 L 945.927,-62.96 L 946.161,-62.5011
 L 946.346,-62.0204 L 946.479,-61.5229 L 946.56,-61.0143 L 946.587,-60.5 L 946.56,-59.9857 L 946.479,-59.4771
 L 946.346,-58.9796 L 946.161,-58.4989 L 945.927,-58.04 L 945.647,-57.6081 L 945.323,-57.2079 L 944.959,-56.8437
 L 944.559,-56.5196 L 944.127,-56.2392 L 943.668,-56.0054 L 943.187,-55.8208 L 942.69,-55.6875 L 942.181,-55.607
 L 941.667,-55.58 z
M 1127.99,-55.607 L 1127.48,-55.6875 L 1126.98,-55.8208 L 1126.5,-56.0054 L 1126.04,-56.2392 L 1125.61,-56.5196
 L 1125.21,-56.8437 L 1124.84,-57.2079 L 1124.52,-57.6081 L 1124.24,-58.04 L 1124.01,-58.4989 L 1123.82,-58.9796
 L 1123.69,-59.4771 L 1123.61,-59.9857 L 1123.58,-60.5 L 1123.61,-61.0143 L 1123.69,-61.5229 L 1123.82,-62.0204
 L 1124.01,-62.5011 L 1124.24,-62.96 L 1124.52,-63.3919 L 1124.84,-63.7921 L 1125.21,-64.1563 L 1125.61,-64.4804
 L 1125.95,-64.7024 L 1125.95,-74 L 1126.01,-74.5302 L 1126.17,-75.0372 L 1126.44,-75.4988 L 1126.79,-75.895
 L 1127.23,-76.2084 L 1127.71,-76.4252 L 1128.23,-76.536 L 1128.77,-76.536 L 1129.29,-76.4252 L 1129.77,-76.2084
 L 1130.21,-75.895 L 1130.56,-75.4988 L 1130.83,-75.0372 L 1130.99,-74.5302 L 1131.05,-74 L 1131.05,-64.7024
 L 1131.39,-64.4804 L 1131.79,-64.1563 L 1132.16,-63.7921 L 1132.48,-63.3919 L 1132.76,-62.96 L 1132.99,-62.5011
 L 1133.18,-62.0204 L 1133.31,-61.5229 L 1133.39,-61.0143 L 1133.42,-60.5 L 1133.39,-59.9857 L 1133.31,-59.4771
 L 1133.18,-58.9796 L 1132.99,-58.4989 L 1132.76,-58.04 L 1132.48,-57.6081 L 1132.16,-57.2079 L 1131.79,-56.8437
 L 1131.39,-56.5196 L 1130.96,-56.2392 L 1130.5,-56.0054 L 1130.02,-55.8208 L 1129.52,-55.6875 L 1129.01,-55.607
 L 1128.5,-55.58 z
M 953.564,-20.7123 L 952.789,-21.0256 L 952.095,-21.4932 L 951.515,-22.0947 L 951.071,-22.8039 L 950.785,-23.5897
 L 950.667,-24.5573 L 950.667,-58 L 950.754,-58.8316 L 951.012,-59.627 L 951.431,-60.3511 L 951.99,-60.9726
 L 952.667,-61.4641 L 953.431,-61.8042 L 954.667,-62 L 1046.55,-62 L 1047.38,-61.9126 L 1048.18,-61.6542
 L 1048.9,-61.2361 L 1049.52,-60.6765 L 1050.02,-60 L 1050.36,-59.2361 L 1050.53,-58.4181 L 1050.53,-57.5819
 L 1050.36,-56.7639 L 1050.02,-56 L 1049.52,-55.3235 L 1048.9,-54.7639 L 1047.92,-54.2412 L 956.035,-20.7985
 L 955.223,-20.5963 L 954.388,-20.5671 z
M 367.61,-20.5963 L 366.799,-20.7985 L 274.913,-54.2412 L 273.93,-54.7639 L 273.309,-55.3235 L 272.817,-56
 L 272.477,-56.7639 L 272.303,-57.5819 L 272.303,-58.4181 L 272.477,-59.2361 L 272.817,-60 L 273.309,-60.6765
 L 273.93,-61.2361 L 274.654,-61.6542 L 275.45,-61.9126 L 276.281,-62 L 368.167,-62 L 369.403,-61.8042
 L 370.167,-61.4641 L 370.843,-60.9726 L 371.403,-60.3511 L 371.821,-59.627 L 372.079,-58.8316 L 372.167,-58
 L 372.167,-24.5573 L 372.048,-23.5897 L 371.762,-22.8039 L 371.319,-22.0947 L 370.738,-21.4932 L 370.045,-21.0256
 L 369.269,-20.7123 L 368.446,-20.5671 z
M 180.777,-20.5963 L 179.965,-20.7985 L 88.0799,-54.2412 L 87.0968,-54.7639 L 86.4754,-55.3235 L 85.9838,-56
 L 85.6437,-56.7639 L 85.4698,-57.5819 L 85.4698,-58.4181 L 85.6437,-59.2361 L 85.9838,-60 L 86.4754,-60.6765
 L 87.0968,-61.2361 L 87.821,-61.6542 L 88.6163,-61.9126 L 89.4479,-62 L 181.333,-62 L 182.569,-61.8042
 L 183.333,-61.4641 L 184.01,-60.9726 L 184.569,-60.3511 L 184.988,-59.627 L 185.246,-58.8316 L 185.333,-58
 L 185.333,-24.5573 L 185.215,-23.5897 L 184.929,-22.8039 L 184.485,-22.0947 L 183.905,-21.4932 L 183.211,-21.0256
 L 182.436,-20.7123 L 181.612,-20.5671 z
M 554.443,-20.5963 L 553.632,-20.7985 L 461.747,-54.2412 L 460.763,-54.7639 L 460.142,-55.3235 L 459.65,-56
 L 459.31,-56.7639 L 459.137,-57.5819 L 459.137,-58.4181 L 459.31,-59.2361 L 459.65,-60 L 460.142,-60.6765
 L 460.763,-61.2361 L 461.488,-61.6542 L 462.283,-61.9126 L 463.115,-62 L 555,-62 L 556.236,-61.8042
 L 557,-61.4641 L 557.677,-60.9726 L 558.236,-60.3511 L 558.654,-59.627 L 558.913,-58.8316 L 559,-58
 L 559,-24.5573 L 558.881,-23.5897 L 558.595,-22.8039 L 558.152,-22.0947 L 557.571,-21.4932 L 556.878,-21.0256
 L 556.103,-20.7123 L 555.279,-20.5671 z
M 579.897,-20.7123 L 579.122,-21.0256 L 578.429,-21.4932 L 577.848,-22.0947 L 577.405,-22.8039 L 577.119,-23.5897
 L 577,-24.5573 L 577,-58 L 577.087,-58.8316 L 577.346,-59.627 L 577.764,-60.3511 L 578.323,-60.9726
 L 579,-61.4641 L 579.764,-61.8042 L 581,-62 L 672.885,-62 L 673.717,-61.9126 L 674.512,-61.6542
 L 675.237,-61.2361 L 675.858,-60.6765 L 676.349,-60 L 676.69,-59.2361 L 676.863,-58.4181 L 676.863,-57.5819
 L 676.69,-56.7639 L 676.349,-56 L 675.858,-55.3235 L 675.237,-54.7639 L 674.253,-54.2412 L 582.368,-20.7985
 L 581.557,-20.5963 L 580.721,-20.5671 z
M 766.731,-20.7123 L 765.955,-21.0256 L 765.262,-21.4932 L 764.681,-22.0947 L 764.238,-22.8039 L 763.952,-23.5897
 L 763.833,-24.5573 L 763.833,-58 L 763.921,-58.8316 L 764.179,-59.627 L 764.597,-60.3511 L 765.157,-60.9726
 L 765.833,-61.4641 L 766.597,-61.8042 L 767.833,-62 L 859.719,-62 L 860.55,-61.9126 L 861.346,-61.6542
 L 862.07,-61.2361 L 862.691,-60.6765 L 863.183,-60 L 863.523,-59.2361 L 863.697,-58.4181 L 863.697,-57.5819
 L 863.523,-56.7639 L 863.183,-56 L 862.691,-55.3235 L 862.07,-54.7639 L 861.087,-54.2412 L 769.201,-20.7985
 L 768.39,-20.5963 L 767.554,-20.5671 z
M 207.333,-18 L 206.097,-18.1958 L 205.333,-18.5359 L 204.657,-19.0274 L 204.097,-19.6489 L 203.679,-20.373
 L 203.421,-21.1684 L 203.333,-22 L 203.333,-55.4427 L 203.452,-56.4103 L 203.738,-57.1961 L 204.181,-57.9053
 L 204.762,-58.5068 L 205.455,-58.9744 L 206.231,-59.2877 L 207.054,-59.4329 L 207.89,-59.4037 L 208.701,-59.2014
 L 300.587,-25.7588 L 301.57,-25.2361 L 302.191,-24.6765 L 302.683,-24 L 303.023,-23.2361 L 303.197,-22.4181
 L 303.197,-21.5819 L 303.023,-20.7639 L 302.683,-20 L 302.191,-19.3235 L 301.57,-18.7639 L 300.846,-18.3458
 L 300.05,-18.0874 L 299.219,-18 z
M 394.167,-18 L 392.931,-18.1958 L 392.167,-18.5359 L 391.49,-19.0274 L 390.931,-19.6489 L 390.512,-20.373
 L 390.254,-21.1684 L 390.167,-22 L 390.167,-55.4427 L 390.285,-56.4103 L 390.571,-57.1961 L 391.015,-57.9053
 L 391.595,-58.5068 L 392.289,-58.9744 L 393.064,-59.2877 L 393.888,-59.4329 L 394.723,-59.4037 L 395.535,-59.2014
 L 487.42,-25.7588 L 488.403,-25.2361 L 489.025,-24.6765 L 489.516,-24 L 489.856,-23.2361 L 490.03,-22.4181
 L 490.03,-21.5819 L 489.856,-20.7639 L 489.516,-20 L 489.025,-19.3235 L 488.403,-18.7639 L 487.679,-18.3458
 L 486.884,-18.0874 L 486.052,-18 z
M 649.948,-18 L 649.116,-18.0874 L 648.321,-18.3458 L 647.597,-18.7639 L 646.975,-19.3235 L 646.484,-20
 L 646.144,-20.7639 L 645.97,-21.5819 L 645.97,-22.4181 L 646.144,-23.2361 L 646.484,-24 L 646.975,-24.6765
 L 647.597,-25.2361 L 648.58,-25.7588 L 740.465,-59.2014 L 741.277,-59.4037 L 742.112,-59.4329 L 742.936,-59.2877
 L 743.711,-58.9744 L 744.405,-58.5068 L 744.985,-57.9053 L 745.429,-57.1961 L 745.715,-56.4103 L 745.833,-55.4427
 L 745.833,-22 L 745.746,-21.1684 L 745.488,-20.373 L 745.069,-19.6489 L 744.51,-19.0274 L 743.833,-18.5359
 L 743.069,-18.1958 L 741.833,-18 z
M 836.781,-18 L 835.95,-18.0874 L 835.154,-18.3458 L 834.43,-18.7639 L 833.809,-19.3235 L 833.317,-20
 L 832.977,-20.7639 L 832.803,-21.5819 L 832.803,-22.4181 L 832.977,-23.2361 L 833.317,-24 L 833.809,-24.6765
 L 834.43,-25.2361 L 835.413,-25.7588 L 927.299,-59.2014 L 928.11,-59.4037 L 928.946,-59.4329 L 929.769,-59.2877
 L 930.545,-58.9744 L 931.238,-58.5068 L 931.819,-57.9053 L 932.262,-57.1961 L 932.548,-56.4103 L 932.667,-55.4427
 L 932.667,-22 L 932.579,-21.1684 L 932.321,-20.373 L 931.903,-19.6489 L 931.343,-19.0274 L 930.667,-18.5359
 L 929.903,-18.1958 L 928.667,-18 z
M 1023.61,-18 L 1022.78,-18.0874 L 1021.99,-18.3458 L 1021.26,-18.7639 L 1020.64,-19.3235 L 1020.15,-20
 L 1019.81,-20.7639 L 1019.64,-21.5819 L 1019.64,-22.4181 L 1019.81,-23.2361 L 1020.15,-24 L 1020.64,-24.6765
 L 1021.26,-25.2361 L 1022.25,-25.7588 L 1112.63,-58.6555 L 1113.44,-58.8578 L 1114.28,-58.887 L 1115.1,-58.7418
 L 1115.88,-58.4285 L 1116.57,-57.9609 L 1117.15,-57.3593 L 1117.6,-56.6502 L 1117.88,-55.8644 L 1118,-54.8967
 L 1118,-22 L 1117.91,-21.1684 L 1117.65,-20.373 L 1117.24,-19.6489 L 1116.68,-19.0274 L 1116,-18.5359
 L 1115.24,-18.1958 L 1114,-18 z
M 22,-18 L 20.7639,-18.1958 L 20,-18.5359 L 19.3235,-19.0274 L 18.7639,-19.6489 L 18.3458,-20.373
 L 18.0874,-21.1684 L 18,-22 L 18,-54.8967 L 18.1188,-55.8644 L 18.4048,-56.6502 L 18.8479,-57.3593
 L 19.4288,-57.9609 L 20.1221,-58.4285 L 20.8974,-58.7418 L 21.7209,-58.887 L 22.5567,-58.8578 L 23.368,-58.6555
 L 113.753,-25.7588 L 114.737,-25.2361 L 115.358,-24.6765 L 115.849,-24 L 116.19,-23.2361 L 116.363,-22.4181
 L 116.363,-21.5819 L 116.19,-20.7639 L 115.849,-20 L 115.358,-19.3235 L 114.737,-18.7639 L 114.012,-18.3458
 L 113.217,-18.0874 L 112.385,-18 z
" stroke="black" fill="lightgray" stroke-width="0.5"/>
</svg>
