<?xml version="1.0" standalone="no"?>
<!DOCTYPE svg PUBLIC "-//W3C//DTD SVG 1.1//EN" "http://www.w3.org/Graphics/SVG/1.1/DTD/svg11.dtd">
<svg width="1533mm" height="80mm" viewBox="0 -80 1533 80" xmlns="http://www.w3.org/2000/svg" version="1.1">
<title>OpenSCAD Model</title>
<path d="
M 1533,-80 L 0,-80 L 0,-0 L 4.95,-0 L 4.95,-6 L 5.00572,-6.53017
 L 5.17046,-7.03717 L 5.437,-7.49884 L 5.79372,-7.895 L 6.22499,-8.20836 L 6.71201,-8.42519 L 7.23344,-8.53603
 L 7.76654,-8.53603 L 8.28798,-8.42519 L 8.77499,-8.20836 L 9.20627,-7.895 L 9.56299,-7.49884 L 9.82953,-7.03717
 L 9.99426,-6.53017 L 10.05,-6 L 10.05,-0 L 194.7,-0 L 194.7,-6 L 194.756,-6.53017
 L 194.92,-7.03717 L 195.187,-7.49884 L 195.544,-7.895 L 195.975,-8.20836 L 196.462,-8.42519 L 196.983,-8.53603
 L 197.517,-8.53603 L 198.038,-8.42519 L 198.525,-8.20836 L 198.956,-7.895 L 199.313,-7.49884 L 199.58,-7.03717
 L 199.744,-6.53017 L 199.8,-6 L 199.8,-0 L 384.45,-0 L 384.45,-6 L 384.506,-6.53017
 L 384.67,-7.03717 L 384.937,-7.49884 L 385.294,-7.895 L 385.725,-8.20836 L 386.212,-8.42519 L 386.733,-8.53603
 L 387.267,-8.53603 L 387.788,-8.42519 L 388.275,-8.20836 L 388.706,-7.895 L 389.063,-7.49884 L 389.33,-7.03717
 L 389.494,-6.53017 L 389.55,-6 L 389.55,-0 L 574.2,-0 L 574.2,-6 L 574.256,-6.53017
 L 574.42,-7.03717 L 574.687,-7.49884 L 575.044,-7.895 L 575.475,-8.20836 L 575.962,-8.42519 L 576.483,-8.53603
 L 577.017,-8.53603 L 577.538,-8.42519 L 578.025,-8.20836 L 578.456,-7.895 L 578.813,-7.49884 L 579.08,-7.03717
 L 579.244,-6.53017 L 579.3,-6 L 579.3,-0 L 763.95,-0 L 763.95,-6 L 764.006,-6.53017
 L 764.17,-7.03717 L 764.437,-7.49884 L 764.794,-7.895 L 765.225,-8.20836 L 765.712,-8.42519 L 766.233,-8.53603
 L 766.767,-8.53603 L 767.288,-8.42519 L 767.775,-8.20836 L 768.206,-7.895 L 768.563,-7.49884 L 768.83,-7.03717
 L 768.994,-6.53017 L 769.05,-6 L 769.05,-0 L 953.7,-0 L 953.7,-6 L 953.756,-6.53017
 L 953.92,-7.03717 L 954.187,-7.49884 L 954.544,-7.895 L 954.975,-8.20836 L 955.462,-8.42519 L 955.983,-8.53603
 L 956.517,-8.53603 L 957.038,-8.42519 L 957.525,-8.20836 L 957.956,-7.895 L 958.313,-7.49884 L 958.58,-7.03717
 L 958.744,-6.53017 L 958.8,-6 L 958.8,-0 L 1143.45,-0 L 1143.45,-6 L 1143.51,-6.53017
 L 1143.67,-7.03717 L 1143.94,-7.49884 L 1144.29,-7.895 L 1144.72,-8.20836 L 1145.21,-8.42519 L 1145.73,-8.53603
 L 1146.27,-8.53603 L 1146.79,-8.42519 L 1147.27,-8.20836 L 1147.71,-7.895 L 1148.06,-7.49884 L 1148.33,-7.03717
 L 1148.49,-6.53017 L 1148.55,-6 L 1148.55,-0 L 1333.2,-0 L 1333.2,-6 L 1333.26,-6.53017
 L 1333.42,-7.03717 L 1333.69,-7.49884 L 1334.04,-7.895 L 1334.47,-8.20836 L 1334.96,-8.42519 L 1335.48,-8.53603
 L 1336.02,-8.53603 L 1336.54,-8.42519 L 1337.02,-8.20836 L 1337.46,-7.895 L 1337.81,-7.49884 L 1338.08,-7.03717
 L 1338.24,-6.53017 L 1338.3,-6 L 1338.3,-0 L 1522.95,-0 L 1522.95,-6 L 1523.01,-6.53017
 L 1523.17,-7.03717 L 1523.44,-7.49884 L 1523.79,-7.895 L 1524.22,-8.20836 L 1524.71,-8.42519 L 1525.23,-8.53603
 L 1525.77,-8.53603 L 1526.29,-8.42519 L 1526.77,-8.20836 L 1527.21,-7.895 L 1527.56,-7.49884 L 1527.83,-7.03717
 L 1527.99,-6.53017 L 1528.05,-6 L 1528.05,-0 L 1533,-0 z
M 196.736,-55.607 L 196.227,-55.6875 L 195.73,-55.8208 L 195.249,-56.0054 L 194.79,-56.2392 L 194.358,-56.5196
 L 193.958,-56.8437 L 193.594,-57.2079 L 193.27,-57.6081 L 192.989,-58.04 L 192.755,-58.4989 L 192.571,-58.9796
 L 192.438,-59.4771 L 192.357,-59.9857 L 192.33,-60.5 L 192.357,-61.0143 L 192.438,-61.5229 L 192.571,-62.0204
 L 192.755,-62.5011 L 192.989,-62.96 L 193.27,-63.3919 L 193.594,-63.7921 L 193.958,-64.1563 L 194.358,-64.4804
 L 194.7,-64.7024 L 194.7,-74 L 194.756,-74.5302 L 194.92,-75.0372 L 195.187,-75.4988 L 195.544,-75.895
 L 195.975,-76.2084 L 196.462,-76.4252 L 196.983,-76.536 L 197.517,-76.536 L 198.038,-76.4252 L 198.525,-76.2084
 L 198.956,-75.895 L 199.313,-75.4988 L 199.58,-75.0372 L 199.744,-74.5302 L 199.8,-74 L 199.8,-64.7024
 L 200.142,-64.4804 L 200.542,-64.1563 L 200.906,-63.7921 L 201.23,-63.3919 L 201.511,-62.96 L 201.745,-62.5011
 L 201.929,-62.0204 L 202.062,-61.5229 L 202.143,-61.0143 L 202.17,-60.5 L 202.143,-59.9857 L 202.062,-59.4771
 L 201.929,-58.9796 L 201.745,-58.4989 L 201.511,-58.04 L 201.23,-57.6081 L 200.906,-57.2079 L 200.542,-56.8437
 L 200.142,-56.5196 L 199.71,-56.2392 L 199.251,-56.0054 L 198.77,-55.8208 L 198.273,-55.6875 L 197.764,-55.607
 L 197.25,-55.58 z
M 1145.49,-55.607 L 1144.98,-55.6875 L 1144.48,-55.8208 L 1144,-56.0054 L 1143.54,-56.2392 L 1143.11,-56.5196
 L 1142.71,-56.8437 L 1142.34,-57.2079 L 1142.02,-57.6081 L 1141.74,-58.04 L 1141.51,-58.4989 L 1141.32,-58.9796
 L 1141.19,-59.4771 L 1141.11,-59.9857 L 1141.08,-60.5 L 1141.11,-61.0143 L 1141.19,-61.5229 L 1141.32,-62.0204
 L 1141.51,-62.5011 L 1141.74,-62.96 L 1142.02,-63.3919 L 1142.34,-63.7921 L 1142.71,-64.1563 L 1143.11,-64.4804
 L 1143.45,-64.7024 L 1143.45,-74 L 1143.51,-74.5302 L 1143.67,-75.0372 L 1143.94,-75.4988 L 1144.29,-75.895
 L 1144.73,-76.2084 L 1145.21,-76.4252 L 1145.73,-76.536 L 1146.27,-76.536 L 1146.79,-76.4252 L 1147.27,-76.2084
 L 1147.71,-75.895 L 1148.06,-75.4988 L 1148.33,-75.0372 L 1148.49,-74.5302 L 1148.55,-74 L 1148.55,-64.7024
 L 1148.89,-64.4804 L 1149.29,-64.1563 L 1149.66,-63.7921 L 1149.98,-63.3919 L 1150.26,-62.96 L 1150.49,-62.5011
 L 1150.68,-62.0204 L 1150.81,-61.5229 L 1150.89,-61.0143 L 1150.92,-60.5 L 1150.89,-59.9857 L 1150.81,-59.4771
 L 1150.68,-58.9796 L 1150.49,-58.4989 L 1150.26,-58.04 L 1149.98,-57.6081 L 1149.66,-57.2079 L 1149.29,-56.8437
 L 1148.89,-56.5196 L 1148.46,-56.2392 L 1148,-56.0054 L 1147.52,-55.8208 L 1147.02,-55.6875 L 1146.51,-55.607
 L 1146,-55.58 z
M 955.736,-55.607 L 955.227,-55.6875 L 954.73,-55.8208 L 954.249,-56.0054 L 953.79,-56.2392 L 953.358,-56.5196
 L 952.958,-56.8437 L 952.594,-57.2079 L 952.27,-57.6081 L 951.989,-58.04 L 951.755,-58.4989 L 951.571,-58.9796
 L 951.438,-59.4771 L 951.357,-59.9857 L 951.33,-60.5 L 951.357,-61.0143 L 951.438,-61.5229 L 951.571,-62.0204
 L 951.755,-62.5011 L 951.989,-62.96 L 952.27,-63.3919 L 952.594,-63.7921 L 952.958,-64.1563 L 953.358,-64.4804
 L 953.7,-64.7024 L 953.7,-74 L 953.756,-74.5302 L 953.92,-75.0372 L 954.187,-75.4988 L 954.544,-75.895
 L 954.975,-76.2084 L 955.462,-76.4252 L 955.983,-76.536 L 956.517,-76.536 L 957.038,-76.4252 L 957.525,-76.2084
 L 957.956,-75.895 L 958.313,-75.4988 L 958.58,-75.0372 L 958.744,-74.5302 L 958.8,-74 L 958.8,-64.7024
 L 959.142,-64.4804 L 959.542,-64.1563 L 959.906,-63.7921 L 960.23,-63.3919 L 960.511,-62.96 L 960.745,-62.5011
 L 960.929,-62.0204 L 961.062,-61.5229 L 961.143,-61.0143 L 961.17,-60.5 L 961.143,-59.9857 L 961.062,-59.4771
 L 960.929,-58.9796 L 960.745,-58.4989 L 960.511,-58.04 L 960.23,-57.6081 L 959.906,-57.2079 L 959.542,-56.8437
 L 959.142,-56.5196 L 958.71,-56.2392 L 958.251,-56.0054 L 957.77,-55.8208 L 957.273,-55.6875 L 956.764,-55.607
 L 956.25,-55.58 z
M 6.98573,-55.607 L 6.47708,-55.6875 L 5.97964,-55.8208 L 5.49887,-56.0054 L 5.04001,-56.2392 L 4.60811,-56.5196
 L 4.20789,-56.8437 L 3.84373,-57.2079 L 3.51964,-57.6081 L 3.23917,-58.04 L 3.00537,-58.4989 L 2.82082,-58.9796
 L 2.68752,-59.4771 L 2.60696,-59.9857 L 2.58,-60.5 L 2.60696,-61.0143 L 2.68752,-61.5229 L 2.82082,-62.0204
 L 3.00537,-62.5011 L 3.23917,-62.96 L 3.51964,-63.3919 L 3.84373,-63.7921 L 4.20789,-64.1563 L 4.60811,-64.4804
 L 4.95001,-64.7024 L 4.95001,-74 L 5.00574,-74.5302 L 5.17047,-75.0372 L 5.43701,-75.4988 L 5.79373,-75.895
 L 6.22501,-76.2084 L 6.71202,-76.4252 L 7.23346,-76.536 L 7.76654,-76.536 L 8.28798,-76.4252 L 8.77499,-76.2084
 L 9.20627,-75.895 L 9.56299,-75.4988 L 9.82953,-75.0372 L 9.99426,-74.5302 L 10.05,-74 L 10.05,-64.7024
 L 10.3919,-64.4804 L 10.7921,-64.1563 L 11.1563,-63.7921 L 11.4804,-63.3919 L 11.7608,-62.96 L 11.9946,-62.5011
 L 12.1792,-62.0204 L 12.3125,-61.5229 L 12.393,-61.0143 L 12.42,-60.5 L 12.393,-59.9857 L 12.3125,-59.4771
 L 12.1792,-58.9796 L 11.9946,-58.4989 L 11.7608,-58.04 L 11.4804,-57.6081 L 11.1563,-57.2079 L 10.7921,-56.8437
 L 10.3919,-56.5196 L 9.95999,-56.2392 L 9.50113,-56.0054 L 9.02036,-55.8208 L 8.52292,-55.6875 L 8.01427,-55.607
 L 7.5,-55.58 z
M 765.986,-55.607 L 765.477,-55.6875 L 764.98,-55.8208 L 764.499,-56.0054 L 764.04,-56.2392 L 763.608,-56.5196
 L 763.208,-56.8437 L 762.844,-57.2079 L 762.52,-57.6081 L 762.239,-58.04 L 762.005,-58.4989 L 761.821,-58.9796
 L 761.688,-59.4771 L 761.607,-59.9857 L 761.58,-60.5 L 761.607,-61.0143 L 761.688,-61.5229 L 761.821,-62.0204
 L 762.005,-62.5011 L 762.239,-62.96 L 762.52,-63.3919 L 762.844,-63.7921 L 763.208,-64.1563 L 763.608,-64.4804
 L 763.95,-64.7024 L 763.95,-74 L 764.006,-74.5302 L 764.17,-75.0372 L 764.437,-75.4988 L 764.794,-75.895
 L 765.225,-76.2084 L 765.712,-76.4252 L 766.233,-76.536 L 766.767,-76.536 L 767.288,-76.4252 L 767.775,-76.2084
 L 768.206,-75.895 L 768.563,-75.4988 L 768.83,-75.0372 L 768.994,-74.5302 L 769.05,-74 L 769.05,-64.7024
 L 769.392,-64.4804 L 769.792,-64.1563 L 770.156,-63.7921 L 770.48,-63.3919 L 770.761,-62.96 L 770.995,-62.5011
 L 771.179,-62.0204 L 771.312,-61.5229 L 771.393,-61.0143 L 771.42,-60.5 L 771.393,-59.9857 L 771.312,-59.4771
 L 771.179,-58.9796 L 770.995,-58.4989 L 770.761,-58.04 L 770.48,-57.6081 L 770.156,-57.2079 L 769.792,-56.8437
 L 769.392,-56.5196 L 768.96,-56.2392 L 768.501,-56.0054 L 768.02,-55.8208 L 767.523,-55.6875 L 767.014,-55.607
 L 766.5,-55.58 z
M 1335.24,-55.607 L 1334.73,-55.6875 L 1334.23,-55.8208 L 1333.75,-56.0054 L 1333.29,-56.2392 L 1332.86,-56.5196
 L 1332.46,-56.8437 L 1332.09,-57.2079 L 1331.77,-57.6081 L 1331.49,-58.04 L 1331.26,-58.4989 L 1331.07,-58.9796
 L 1330.94,-59.4771 L 1330.86,-59.9857 L 1330.83,-60.5 L 1330.86,-61.0143 L 1330.94,-61.5229 L 1331.07,-62.0204
 L 1331.26,-62.5011 L 1331.49,-62.96 L 1331.77,-63.3919 L 1332.09,-63.7921 L 1332.46,-64.1563 L 1332.86,-64.4804
 L 1333.2,-64.7024 L 1333.2,-74 L 1333.26,-74.5302 L 1333.42,-75.0372 L 1333.69,-75.4988 L 1334.04,-75.895
 L 1334.48,-76.2084 L 1334.96,-76.4252 L 1335.48,-76.536 L 1336.02,-76.536 L 1336.54,-76.4252 L 1337.02,-76.2084
 L 1337.46,-75.895 L 1337.81,-75.4988 L 1338.08,-75.0372 L 1338.24,-74.5302 L 1338.3,-74 L 1338.3,-64.7024
 L 1338.64,-64.4804 L 1339.04,-64.1563 L 1339.41,-63.7921 L 1339.73,-63.3919 L 1340.01,-62.96 L 1340.24,-62.5011
 L 1340.43,-62.0204 L 1340.56,-61.5229 L 1340.64,-61.0143 L 1340.67,-60.5 L 1340.64,-59.9857 L 1340.56,-59.4771
 L 1340.43,-58.9796 L 1340.24,-58.4989 L 1340.01,-58.04 L 1339.73,-57.6081 L 1339.41,-57.2079 L 1339.04,-56.8437
 L 1338.64,-56.5196 L 1338.21,-56.2392 L 1337.75,-56.0054 L 1337.27,-55.8208 L 1336.77,-55.6875 L 1336.26,-55.607
 L 1335.75,-55.58 z
M 576.236,-55.607 L 575.727,-55.6875 L 575.23,-55.8208 L 574.749,-56.0054 L 574.29,-56.2392 L 573.858,-56.5196
 L 573.458,-56.8437 L 573.094,-57.2079 L 572.77,-57.6081 L 572.489,-58.04 L 572.255,-58.4989 L 572.071,-58.9796
 L 571.938,-59.4771 L 571.857,-59.9857 L 571.83,-60.5 L 571.857,-61.0143 L 571.938,-61.5229 L 572.071,-62.0204
 L 572.255,-62.5011 L 572.489,-62.96 L 572.77,-63.3919 L 573.094,-63.7921 L 573.458,-64.1563 L 573.858,-64.4804
 L 574.2,-64.7024 L 574.2,-74 L 574.256,-74.5302 L 574.42,-75.0372 L 574.687,-75.4988 L 575.044,-75.895
 L 575.475,-76.2084 L 575.962,-76.4252 L 576.483,-76.536 L 577.017,-76.536 L 577.538,-76.4252 L 578.025,-76.2084
 L 578.456,-75.895 L 578.813,-75.4988 L 579.08,-75.0372 L 579.244,-74.5302 L 579.3,-74 L 579.3,-64.7024
 L 579.642,-64.4804 L 580.042,-64.1563 L 580.406,-63.7921 L 580.73,-63.3919 L 581.011,-62.96 L 581.245,-62.5011
 L 581.429,-62.0204 L 581.562,-61.5229 L 581.643,-61.0143 L 581.67,-60.5 L 581.643,-59.9857 L 581.562,-59.4771
 L 581.429,-58.9796 L 581.245,-58.4989 L 581.011,-58.04 L 580.73,-57.6081 L 580.406,-57.2079 L 580.042,-56.8437
 L 579.642,-56.5196 L 579.21,-56.2392 L 578.751,-56.0054 L 578.27,-55.8208 L 577.773,-55.6875 L 577.264,-55.607
 L 576.75,-55.58 z
M 386.486,-55.607 L 385.977,-55.6875 L 385.48,-55.8208 L 384.999,-56.0054 L 384.54,-56.2392 L 384.108,-56.5196
 L 383.708,-56.8437 L 383.344,-57.2079 L 383.02,-57.6081 L 382.739,-58.04 L 382.505,-58.4989 L 382.321,-58.9796
 L 382.188,-59.4771 L 382.107,-59.9857 L 382.08,-60.5 L 382.107,-61.0143 L 382.188,-61.5229 L 382.321,-62.0204
 L 382.505,-62.5011 L 382.739,-62.96 L 383.02,-63.3919 L 383.344,-63.7921 L 383.708,-64.1563 L 384.108,-64.4804
 L 384.45,-64.7024 L 384.45,-74 L 384.506,-74.5302 L 384.67,-75.0372 L 384.937,-75.4988 L 385.294,-75.895
 L 385.725,-76.2084 L 386.212,-76.4252 L 386.733,-76.536 L 387.267,-76.536 L 387.788,-76.4252 L 388.275,-76.2084
 L 388.706,-75.895 L 389.063,-75.4988 L 389.33,-75.0372 L 389.494,-74.5302 L 389.55,-74 L 389.55,-64.7024
 L 389.892,-64.4804 L 390.292,-64.1563 L 390.656,-63.7921 L 390.98,-63.3919 L 391.261,-62.96 L 391.495,-62.5011
 L 391.679,-62.0204 L 391.812,-61.5229 L 391.893,-61.0143 L 391.92,-60.5 L 391.893,-59.9857 L 391.812,-59.4771
 L 391.679,-58.9796 L 391.495,-58.4989 L 391.261,-58.04 L 390.98,-57.6081 L 390.656,-57.2079 L 390.292,-56.8437
 L 389.892,-56.5196 L 389.46,-56.2392 L 389.001,-56.0054 L 388.52,-55.8208 L 388.023,-55.6875 L 387.514,-55.607
 L 387,-55.58 z
M 1524.99,-55.607 L 1524.48,-55.6875 L 1523.98,-55.8208 L 1523.5,-56.0054 L 1523.04,-56.2392 L 1522.61,-56.5196
 L 1522.21,-56.8437 L 1521.84,-57.2079 L 1521.52,-57.6081 L 1521.24,-58.04 L 1521.01,-58.4989 L 1520.82,-58.9796
 L 1520.69,-59.4771 L 1520.61,-59.9857 L 1520.58,-60.5 L 1520.61,-61.0143 L 1520.69,-61.5229 L 1520.82,-62.0204
 L 1521.01,-62.5011 L 1521.24,-62.96 L 1521.52,-63.3919 L 1521.84,-63.7921 L 1522.21,-64.1563 L 1522.61,-64.4804
 L 1522.95,-64.7024 L 1522.95,-74 L 1523.01,-74.5302 L 1523.17,-75.0372 L 1523.44,-75.4988 L 1523.79,-75.895
 L 1524.23,-76.2084 L 1524.71,-76.4252 L 1525.23,-76.536 L 1525.77,-76.536 L 1526.29,-76.4252 L 1526.77,-76.2084
 L 1527.21,-75.895 L 1527.56,-75.4988 L 1527.83,-75.0372 L 1527.99,-74.5302 L 1528.05,-74 L 1528.05,-64.7024
 L 1528.39,-64.4804 L 1528.79,-64.1563 L 1529.16,-63.7921 L 1529.48,-63.3919 L 1529.76,-62.96 L 1529.99,-62.5011
 L 1530.18,-62.0204 L 1530.31,-61.5229 L 1530.39,-61.0143 L 1530.42,-60.5 L 1530.39,-59.9857 L 1530.31,-59.4771
 L 1530.18,-58.9796 L 1529.99,-58.4989 L 1529.76,-58.04 L 1529.48,-57.6081 L 1529.16,-57.2079 L 1528.79,-56.8437
 L 1528.39,-56.5196 L 1527.96,-56.2392 L 1527.5,-56.0054 L 1527.02,-55.8208 L 1526.52,-55.6875 L 1526.01,-55.607
 L 1525.5,-55.58 z
M 373.463,-20.4983 L 372.651,-20.6966 L 279.065,-54.2345 L 278.063,-54.7639 L 277.442,-55.3235 L 276.95,-56
 L 276.61,-56.7639 L 276.436,-57.5819 L 276.436,-58.4181 L 276.61,-59.2361 L 276.95,-60 L 277.442,-60.6765
 L 278.063,-61.2361 L 278.788,-61.6542 L 279.583,-61.9126 L 280.415,-62 L 374,-62 L 375.236,-61.8042
 L 376,-61.4641 L 376.677,-60.9726 L 377.236,-60.3511 L 377.654,-59.627 L 377.913,-58.8316 L 378,-58
 L 378,-24.4621 L 377.886,-23.5137 L 377.604,-22.7265 L 377.164,-22.0151 L 376.586,-21.4107 L 375.895,-20.9397
 L 375.122,-20.6226 L 374.299,-20.4733 z
M 563.213,-20.4983 L 562.401,-20.6966 L 468.815,-54.2345 L 467.813,-54.7639 L 467.192,-55.3235 L 466.7,-56
 L 466.36,-56.7639 L 466.186,-57.5819 L 466.186,-58.4181 L 466.36,-59.2361 L 466.7,-60 L 467.192,-60.6765
 L 467.813,-61.2361 L 468.538,-61.6542 L 469.333,-61.9126 L 470.165,-62 L 563.75,-62 L 564.986,-61.8042
 L 565.75,-61.4641 L 566.427,-60.9726 L 566.986,-60.3511 L 567.404,-59.627 L 567.663,-58.8316 L 567.75,-58
 L 567.75,-24.4621 L 567.636,-23.5137 L 567.354,-22.7265 L 566.914,-22.0151 L 566.336,-21.4107 L 565.645,-20.9397
 L 564.872,-20.6226 L 564.049,-20.4733 z
M 1347.63,-20.6226 L 1346.85,-20.9397 L 1346.16,-21.4107 L 1345.59,-22.0151 L 1345.15,-22.7265 L 1344.86,-23.5137
 L 1344.75,-24.4621 L 1344.75,-58 L 1344.84,-58.8316 L 1345.1,-59.627 L 1345.51,-60.3511 L 1346.07,-60.9726
 L 1346.75,-61.4641 L 1347.51,-61.8042 L 1348.75,-62 L 1442.34,-62 L 1443.17,-61.9126 L 1443.96,-61.6542
 L 1444.69,-61.2361 L 1445.31,-60.6765 L 1445.8,-60 L 1446.14,-59.2361 L 1446.31,-58.4181 L 1446.31,-57.5819
 L 1446.14,-56.7639 L 1445.8,-56 L 1445.31,-55.3235 L 1444.69,-54.7639 L 1443.68,-54.2345 L 1350.1,-20.6966
 L 1349.29,-20.4983 L 1348.45,-20.4733 z
M 752.963,-20.4983 L 752.151,-20.6966 L 658.565,-54.2345 L 657.563,-54.7639 L 656.942,-55.3235 L 656.45,-56
 L 656.11,-56.7639 L 655.936,-57.5819 L 655.936,-58.4181 L 656.11,-59.2361 L 656.45,-60 L 656.942,-60.6765
 L 657.563,-61.2361 L 658.288,-61.6542 L 659.083,-61.9126 L 659.915,-62 L 753.5,-62 L 754.736,-61.8042
 L 755.5,-61.4641 L 756.177,-60.9726 L 756.736,-60.3511 L 757.154,-59.627 L 757.413,-58.8316 L 757.5,-58
 L 757.5,-24.4621 L 757.386,-23.5137 L 757.104,-22.7265 L 756.664,-22.0151 L 756.086,-21.4107 L 755.395,-20.9397
 L 754.622,-20.6226 L 753.799,-20.4733 z
M 183.713,-20.4983 L 182.901,-20.6966 L 89.3151,-54.2345 L 88.3134,-54.7639 L 87.6919,-55.3235 L 87.2004,-56
 L 86.8603,-56.7639 L 86.6864,-57.5819 L 86.6864,-58.4181 L 86.8603,-59.2361 L 87.2004,-60 L 87.6919,-60.6765
 L 88.3134,-61.2361 L 89.0376,-61.6542 L 89.8329,-61.9126 L 90.6645,-62 L 184.25,-62 L 185.486,-61.8042
 L 186.25,-61.4641 L 186.927,-60.9726 L 187.486,-60.3511 L 187.904,-59.627 L 188.163,-58.8316 L 188.25,-58
 L 188.25,-24.4621 L 188.136,-23.5137 L 187.854,-22.7265 L 187.414,-22.0151 L 186.836,-21.4107 L 186.145,-20.9397
 L 185.372,-20.6226 L 184.549,-20.4733 z
M 778.378,-20.6226 L 777.605,-20.9397 L 776.914,-21.4107 L 776.336,-22.0151 L 775.896,-22.7265 L 775.614,-23.5137
 L 775.5,-24.4621 L 775.5,-58 L 775.587,-58.8316 L 775.846,-59.627 L 776.264,-60.3511 L 776.823,-60.9726
 L 777.5,-61.4641 L 778.264,-61.8042 L 779.5,-62 L 873.085,-62 L 873.917,-61.9126 L 874.712,-61.6542
 L 875.437,-61.2361 L 876.058,-60.6765 L 876.55,-60 L 876.89,-59.2361 L 877.064,-58.4181 L 877.064,-57.5819
 L 876.89,-56.7639 L 876.55,-56 L 876.058,-55.3235 L 875.437,-54.7639 L 874.435,-54.2345 L 780.849,-20.6966
 L 780.037,-20.4983 L 779.201,-20.4733 z
M 968.128,-20.6226 L 967.355,-20.9397 L 966.664,-21.4107 L 966.086,-22.0151 L 965.646,-22.7265 L 965.364,-23.5137
 L 965.25,-24.4621 L 965.25,-58 L 965.337,-58.8316 L 965.596,-59.627 L 966.014,-60.3511 L 966.573,-60.9726
 L 967.25,-61.4641 L 968.014,-61.8042 L 969.25,-62 L 1062.84,-62 L 1063.67,-61.9126 L 1064.46,-61.6542
 L 1065.19,-61.2361 L 1065.81,-60.6765 L 1066.3,-60 L 1066.64,-59.2361 L 1066.81,-58.4181 L 1066.81,-57.5819
 L 1066.64,-56.7639 L 1066.3,-56 L 1065.81,-55.3235 L 1065.19,-54.7639 L 1064.18,-54.2345 L 970.599,-20.6966
 L 969.787,-20.4983 L 968.951,-20.4733 z
M 1157.88,-20.6226 L 1157.1,-20.9397 L 1156.41,-21.4107 L 1155.84,-22.0151 L 1155.4,-22.7265 L 1155.11,-23.5137
 L 1155,-24.4621 L 1155,-58 L 1155.09,-58.8316 L 1155.35,-59.627 L 1155.76,-60.3511 L 1156.32,-60.9726
 L 1157,-61.4641 L 1157.76,-61.8042 L 1159,-62 L 1252.59,-62 L 1253.42,-61.9126 L 1254.21,-61.6542
 L 1254.94,-61.2361 L 1255.56,-60.6765 L 1256.05,-60 L 1256.39,-59.2361 L 1256.56,-58.4181 L 1256.56,-57.5819
 L 1256.39,-56.7639 L 1256.05,-56 L 1255.56,-55.3235 L 1254.94,-54.7639 L 1253.93,-54.2345 L 1160.35,-20.6966
 L 1159.54,-20.4983 L 1158.7,-20.4733 z
M 210.25,-18 L 209.014,-18.1958 L 208.25,-18.5359 L 207.573,-19.0274 L 207.014,-19.6489 L 206.596,-20.373
 L 206.337,-21.1684 L 206.25,-22 L 206.25,-55.5379 L 206.364,-56.4863 L 206.646,-57.2735 L 207.086,-57.9849
 L 207.664,-58.5893 L 208.355,-59.0603 L 209.128,-59.3774 L 209.951,-59.5267 L 210.787,-59.5017 L 211.599,-59.3034
 L 305.185,-25.7655 L 306.187,-25.2361 L 306.808,-24.6765 L 307.3,-24 L 307.64,-23.2361 L 307.814,-22.4181
 L 307.814,-21.5819 L 307.64,-20.7639 L 307.3,-20 L 306.808,-19.3235 L 306.187,-18.7639 L 305.462,-18.3458
 L 304.667,-18.0874 L 303.835,-18 z
M 400,-18 L 398.764,-18.1958 L 398,-18.5359 L 397.323,-19.0274 L 396.764,-19.6489 L 396.346,-20.373
 L 396.087,-21.1684 L 396,-22 L 396,-55.5379 L 396.114,-56.4863 L 396.396,-57.2735 L 396.836,-57.9849
 L 397.414,-58.5893 L 398.105,-59.0603 L 398.878,-59.3774 L 399.701,-59.5267 L 400.537,-59.5017 L 401.349,-59.3034
 L 494.935,-25.7655 L 495.937,-25.2361 L 496.558,-24.6765 L 497.05,-24 L 497.39,-23.2361 L 497.564,-22.4181
 L 497.564,-21.5819 L 497.39,-20.7639 L 497.05,-20 L 496.558,-19.3235 L 495.937,-18.7639 L 495.212,-18.3458
 L 494.417,-18.0874 L 493.585,-18 z
M 589.75,-18 L 588.514,-18.1958 L 587.75,-18.5359 L 587.073,-19.0274 L 586.514,-19.6489 L 586.096,-20.373
 L 585.837,-21.1684 L 585.75,-22 L 585.75,-55.5379 L 585.864,-56.4863 L 586.146,-57.2735 L 586.586,-57.9849
 L 587.164,-58.5893 L 587.855,-59.0603 L 588.628,-59.3774 L 589.451,-59.5267 L 590.287,-59.5017 L 591.099,-59.3034
 L 684.685,-25.7655 L 685.687,-25.2361 L 686.308,-24.6765 L 686.8,-24 L 687.14,-23.2361 L 687.314,-22.4181
 L 687.314,-21.5819 L 687.14,-20.7639 L 686.8,-20 L 686.308,-19.3235 L 685.687,-18.7639 L 684.962,-18.3458
 L 684.167,-18.0874 L 683.335,-18 z
M 849.665,-18 L 848.833,-18.0874 L 848.038,-18.3458 L 847.313,-18.7639 L 846.692,-19.3235 L 846.2,-20
 L 845.86,-20.7639 L 845.686,-21.5819 L 845.686,-22.4181 L 845.86,-23.2361 L 846.2,-24 L 846.692,-24.6765
 L 847.313,-25.2361 L 848.315,-25.7655 L 941.901,-59.3034 L 942.713,-59.5017 L 943.549,-59.5267 L 944.372,-59.3774
 L 945.145,-59.0603 L 945.836,-58.5893 L 946.414,-57.9849 L 946.854,-57.2735 L 947.136,-56.4863 L 947.25,-55.5379
 L 947.25,-22 L 947.163,-21.1684 L 946.904,-20.373 L 946.486,-19.6489 L 945.927,-19.0274 L 945.25,-18.5359
 L 944.486,-18.1958 L 943.25,-18 z
M 1039.41,-18 L 1038.58,-18.0874 L 1037.79,-18.3458 L 1037.06,-18.7639 L 1036.44,-19.3235 L 1035.95,-20
 L 1035.61,-20.7639 L 1035.44,-21.5819 L 1035.44,-22.4181 L 1035.61,-23.2361 L 1035.95,-24 L 1036.44,-24.6765
 L 1037.06,-25.2361 L 1038.07,-25.7655 L 1131.65,-59.3034 L 1132.46,-59.5017 L 1133.3,-59.5267 L 1134.12,-59.3774
 L 1134.9,-59.0603 L 1135.59,-58.5893 L 1136.16,-57.9849 L 1136.6,-57.2735 L 1136.89,-56.4863 L 1137,-55.5379
 L 1137,-22 L 1136.91,-21.1684 L 1136.65,-20.373 L 1136.24,-19.6489 L 1135.68,-19.0274 L 1135,-18.5359
 L 1134.24,-18.1958 L 1133,-18 z
M 1229.16,-18 L 1228.33,-18.0874 L 1227.54,-18.3458 L 1226.81,-18.7639 L 1226.19,-19.3235 L 1225.7,-20
 L 1225.36,-20.7639 L 1225.19,-21.5819 L 1225.19,-22.4181 L 1225.36,-23.2361 L 1225.7,-24 L 1226.19,-24.6765
 L 1226.81,-25.2361 L 1227.82,-25.7655 L 1321.4,-59.3034 L 1322.21,-59.5017 L 1323.05,-59.5267 L 1323.87,-59.3774
 L 1324.65,-59.0603 L 1325.34,-58.5893 L 1325.91,-57.9849 L 1326.35,-57.2735 L 1326.64,-56.4863 L 1326.75,-55.5379
 L 1326.75,-22 L 1326.66,-21.1684 L 1326.4,-20.373 L 1325.99,-19.6489 L 1325.43,-19.0274 L 1324.75,-18.5359
 L 1323.99,-18.1958 L 1322.75,-18 z
M 1418.91,-18 L 1418.08,-18.0874 L 1417.29,-18.3458 L 1416.56,-18.7639 L 1415.94,-19.3235 L 1415.45,-20
 L 1415.11,-20.7639 L 1414.94,-21.5819 L 1414.94,-22.4181 L 1415.11,-23.2361 L 1415.45,-24 L 1415.94,-24.6765
 L 1416.56,-25.2361 L 1417.57,-25.7655 L 1509.65,-58.7658 L 1510.46,-58.9641 L 1511.3,-58.9892 L 1512.12,-58.8399
 L 1512.9,-58.5228 L 1513.59,-58.0517 L 1514.16,-57.4473 L 1514.6,-56.736 L 1514.89,-55.9488 L 1515,-55.0003
 L 1515,-22 L 1514.91,-21.1684 L 1514.65,-20.373 L 1514.24,-19.6489 L 1513.68,-19.0274 L 1513,-18.5359
 L 1512.24,-18.1958 L 1511,-18 z
M 22,-18 L 20.7639,-18.1958 L 20,-18.5359 L 19.3235,-19.0274 L 18.7639,-19.6489 L 18.3458,-20.373
 L 18.0874,-21.1684 L 18,-22 L 18,-55.0003 L 18.1141,-55.9488 L 18.3962,-56.736 L 18.8358,-57.4473
 L 19.4137,-58.0517 L 20.1046,-58.5228 L 20.8784,-58.8399 L 21.7012,-58.9892 L 22.537,-58.9641 L 23.3494,-58.7658
 L 115.435,-25.7655 L 116.437,-25.2361 L 117.058,-24.6765 L 117.55,-24 L 117.89,-23.2361 L 118.064,-22.4181
 L 118.064,-21.5819 L 117.89,-20.7639 L 117.55,-20 L 117.058,-19.3235 L 116.437,-18.7639 L 115.712,-18.3458
 L 114.917,-18.0874 L 114.085,-18 z
" stroke="black" fill="lightgray" stroke-width="0.5"/>
</svg>
