<?xml version="1.0" standalone="no"?>
<!DOCTYPE svg PUBLIC "-//W3C//DTD SVG 1.1//EN" "http://www.w3.org/Graphics/SVG/1.1/DTD/svg11.dtd">
<svg width="1654mm" height="80mm" viewBox="0 -80 1654 80" xmlns="http://www.w3.org/2000/svg" version="1.1">
<title>OpenSCAD Model</title>
<path d="
M 1654,-80 L 0,-80 L 0,-0 L 4.95,-0 L 4.95,-6 L 5.00572,-6.53017
 L 5.17046,-7.03717 L 5.437,-7.49884 L 5.79372,-7.895 L 6.22499,-8.20836 L 6.71201,-8.42519 L 7.23344,-8.53603
 L 7.76654,-8.53603 L 8.28798,-8.42519 L 8.77499,-8.20836 L 9.20627,-7.895 L 9.56299,-7.49884 L 9.82953,-7.03717
 L 9.99426,-6.53017 L 10.05,-6 L 10.05,-0 L 187.061,-0 L 187.061,-6 L 187.117,-6.53017
 L 187.282,-7.03717 L 187.548,-7.49884 L 187.905,-7.895 L 188.336,-8.20836 L 188.823,-8.42519 L 189.345,-8.53603
 L 189.878,-8.53603 L 190.399,-8.42519 L 190.886,-8.20836 L 191.317,-7.895 L 191.674,-7.49884 L 191.941,-7.03717
 L 192.105,-6.53017 L 192.161,-6 L 192.161,-0 L 369.172,-0 L 369.172,-6 L 369.228,-6.53017
 L 369.393,-7.03717 L 369.659,-7.49884 L 370.016,-7.895 L 370.447,-8.20836 L 370.934,-8.42519 L 371.456,-8.53603
 L 371.989,-8.53603 L 372.51,-8.42519 L 372.997,-8.20836 L 373.428,-7.895 L 373.785,-7.49884 L 374.052,-7.03717
 L 374.216,-6.53017 L 374.272,-6 L 374.272,-0 L 551.283,-0 L 551.283,-6 L 551.339,-6.53017
 L 551.504,-7.03717 L 551.77,-7.49884 L 552.127,-7.895 L 552.558,-8.20836 L 553.045,-8.42519 L 553.567,-8.53603
 L 554.1,-8.53603 L 554.621,-8.42519 L 555.108,-8.20836 L 555.54,-7.895 L 555.896,-7.49884 L 556.163,-7.03717
 L 556.328,-6.53017 L 556.383,-6 L 556.383,-0 L 733.394,-0 L 733.394,-6 L 733.45,-6.53017
 L 733.615,-7.03717 L 733.881,-7.49884 L 734.238,-7.895 L 734.669,-8.20836 L 735.156,-8.42519 L 735.678,-8.53603
 L 736.211,-8.53603 L 736.732,-8.42519 L 737.219,-8.20836 L 737.651,-7.895 L 738.007,-7.49884 L 738.274,-7.03717
 L 738.439,-6.53017 L 738.494,-6 L 738.494,-0 L 915.506,-0 L 915.506,-6 L 915.561,-6.53017
 L 915.726,-7.03717 L 915.993,-7.49884 L 916.349,-7.895 L 916.781,-8.20836 L 917.268,-8.42519 L 917.789,-8.53603
 L 918.322,-8.53603 L 918.844,-8.42519 L 919.331,-8.20836 L 919.762,-7.895 L 920.119,-7.49884 L 920.385,-7.03717
 L 920.55,-6.53017 L 920.606,-6 L 920.606,-0 L 1097.62,-0 L 1097.62,-6 L 1097.67,-6.53017
 L 1097.84,-7.03717 L 1098.1,-7.49884 L 1098.46,-7.895 L 1098.89,-8.20836 L 1099.38,-8.42519 L 1099.9,-8.53603
 L 1100.43,-8.53603 L 1100.95,-8.42519 L 1101.44,-8.20836 L 1101.87,-7.895 L 1102.23,-7.49884 L 1102.5,-7.03717
 L 1102.66,-6.53017 L 1102.72,-6 L 1102.72,-0 L 1279.73,-0 L 1279.73,-6 L 1279.78,-6.53017
 L 1279.95,-7.03717 L 1280.21,-7.49884 L 1280.57,-7.895 L 1281,-8.20836 L 1281.49,-8.42519 L 1282.01,-8.53603
 L 1282.54,-8.53603 L 1283.07,-8.42519 L 1283.55,-8.20836 L 1283.98,-7.895 L 1284.34,-7.49884 L 1284.61,-7.03717
 L 1284.77,-6.53017 L 1284.83,-6 L 1284.83,-0 L 1461.84,-0 L 1461.84,-6 L 1461.89,-6.53017
 L 1462.06,-7.03717 L 1462.33,-7.49884 L 1462.68,-7.895 L 1463.11,-8.20836 L 1463.6,-8.42519 L 1464.12,-8.53603
 L 1464.66,-8.53603 L 1465.18,-8.42519 L 1465.66,-8.20836 L 1466.1,-7.895 L 1466.45,-7.49884 L 1466.72,-7.03717
 L 1466.88,-6.53017 L 1466.94,-6 L 1466.94,-0 L 1643.95,-0 L 1643.95,-6 L 1644.01,-6.53017
 L 1644.17,-7.03717 L 1644.44,-7.49884 L 1644.79,-7.895 L 1645.22,-8.20836 L 1645.71,-8.42519 L 1646.23,-8.53603
 L 1646.77,-8.53603 L 1647.29,-8.42519 L 1647.77,-8.20836 L 1648.21,-7.895 L 1648.56,-7.49884 L 1648.83,-7.03717
 L 1648.99,-6.53017 L 1649.05,-6 L 1649.05,-0 L 1654,-0 z
M 6.98573,-55.607 L 6.47708,-55.6875 L 5.97964,-55.8208 L 5.49887,-56.0054 L 5.04001,-56.2392 L 4.60811,-56.5196
 L 4.20789,-56.8437 L 3.84373,-57.2079 L 3.51964,-57.6081 L 3.23917,-58.04 L 3.00537,-58.4989 L 2.82082,-58.9796
 L 2.68752,-59.4771 L 2.60696,-59.9857 L 2.58,-60.5 L 2.60696,-61.0143 L 2.68752,-61.5229 L 2.82082,-62.0204
 L 3.00537,-62.5011 L 3.23917,-62.96 L 3.51964,-63.3919 L 3.84373,-63.7921 L 4.20789,-64.1563 L 4.60811,-64.4804
 L 4.95001,-64.7024 L 4.95001,-74 L 5.00574,-74.5302 L 5.17047,-75.0372 L 5.43701,-75.4988 L 5.79373,-75.895
 L 6.22501,-76.2084 L 6.71202,-76.4252 L 7.23346,-76.536 L 7.76654,-76.536 L 8.28798,-76.4252 L 8.77499,-76.2084
 L 9.20627,-75.895 L 9.56299,-75.4988 L 9.82953,-75.0372 L 9.99426,-74.5302 L 10.05,-74 L 10.05,-64.7024
 L 10.3919,-64.4804 L 10.7921,-64.1563 L 11.1563,-63.7921 L 11.4804,-63.3919 L 11.7608,-62.96 L 11.9946,-62.5011
 L 12.1792,-62.0204 L 12.3125,-61.5229 L 12.393,-61.0143 L 12.42,-60.5 L 12.393,-59.9857 L 12.3125,-59.4771
 L 12.1792,-58.9796 L 11.9946,-58.4989 L 11.7608,-58.04 L 11.4804,-57.6081 L 11.1563,-57.2079 L 10.7921,-56.8437
 L 10.3919,-56.5196 L 9.95999,-56.2392 L 9.50113,-56.0054 L 9.02036,-55.8208 L 8.52292,-55.6875 L 8.01427,-55.607
 L 7.5,-55.58 z
M 1099.65,-55.607 L 1099.14,-55.6875 L 1098.65,-55.8208 L 1098.17,-56.0054 L 1097.71,-56.2392 L 1097.27,-56.5196
 L 1096.87,-56.8437 L 1096.51,-57.2079 L 1096.19,-57.6081 L 1095.91,-58.04 L 1095.67,-58.4989 L 1095.49,-58.9796
 L 1095.35,-59.4771 L 1095.27,-59.9857 L 1095.25,-60.5 L 1095.27,-61.0143 L 1095.35,-61.5229 L 1095.49,-62.0204
 L 1095.67,-62.5011 L 1095.91,-62.96 L 1096.19,-63.3919 L 1096.51,-63.7921 L 1096.87,-64.1563 L 1097.27,-64.4804
 L 1097.62,-64.7024 L 1097.62,-74 L 1097.67,-74.5302 L 1097.84,-75.0372 L 1098.1,-75.4988 L 1098.46,-75.895
 L 1098.89,-76.2084 L 1099.38,-76.4252 L 1099.9,-76.536 L 1100.43,-76.536 L 1100.95,-76.4252 L 1101.44,-76.2084
 L 1101.87,-75.895 L 1102.23,-75.4988 L 1102.5,-75.0372 L 1102.66,-74.5302 L 1102.72,-74 L 1102.72,-64.7024
 L 1103.06,-64.4804 L 1103.46,-64.1563 L 1103.82,-63.7921 L 1104.15,-63.3919 L 1104.43,-62.96 L 1104.66,-62.5011
 L 1104.85,-62.0204 L 1104.98,-61.5229 L 1105.06,-61.0143 L 1105.09,-60.5 L 1105.06,-59.9857 L 1104.98,-59.4771
 L 1104.85,-58.9796 L 1104.66,-58.4989 L 1104.43,-58.04 L 1104.15,-57.6081 L 1103.82,-57.2079 L 1103.46,-56.8437
 L 1103.06,-56.5196 L 1102.63,-56.2392 L 1102.17,-56.0054 L 1101.69,-55.8208 L 1101.19,-55.6875 L 1100.68,-55.607
 L 1100.17,-55.58 z
M 1281.76,-55.607 L 1281.25,-55.6875 L 1280.76,-55.8208 L 1280.28,-56.0054 L 1279.82,-56.2392 L 1279.39,-56.5196
 L 1278.99,-56.8437 L 1278.62,-57.2079 L 1278.3,-57.6081 L 1278.02,-58.04 L 1277.78,-58.4989 L 1277.6,-58.9796
 L 1277.47,-59.4771 L 1277.38,-59.9857 L 1277.36,-60.5 L 1277.38,-61.0143 L 1277.47,-61.5229 L 1277.6,-62.0204
 L 1277.78,-62.5011 L 1278.02,-62.96 L 1278.3,-63.3919 L 1278.62,-63.7921 L 1278.99,-64.1563 L 1279.39,-64.4804
 L 1279.73,-64.7024 L 1279.73,-74 L 1279.78,-74.5302 L 1279.95,-75.0372 L 1280.21,-75.4988 L 1280.57,-75.895
 L 1281,-76.2084 L 1281.49,-76.4252 L 1282.01,-76.536 L 1282.54,-76.536 L 1283.07,-76.4252 L 1283.55,-76.2084
 L 1283.98,-75.895 L 1284.34,-75.4988 L 1284.61,-75.0372 L 1284.77,-74.5302 L 1284.83,-74 L 1284.83,-64.7024
 L 1285.17,-64.4804 L 1285.57,-64.1563 L 1285.93,-63.7921 L 1286.26,-63.3919 L 1286.54,-62.96 L 1286.77,-62.5011
 L 1286.96,-62.0204 L 1287.09,-61.5229 L 1287.17,-61.0143 L 1287.2,-60.5 L 1287.17,-59.9857 L 1287.09,-59.4771
 L 1286.96,-58.9796 L 1286.77,-58.4989 L 1286.54,-58.04 L 1286.26,-57.6081 L 1285.93,-57.2079 L 1285.57,-56.8437
 L 1285.17,-56.5196 L 1284.74,-56.2392 L 1284.28,-56.0054 L 1283.8,-55.8208 L 1283.3,-55.6875 L 1282.79,-55.607
 L 1282.28,-55.58 z
M 917.541,-55.607 L 917.033,-55.6875 L 916.535,-55.8208 L 916.054,-56.0054 L 915.596,-56.2392 L 915.164,-56.5196
 L 914.763,-56.8437 L 914.399,-57.2079 L 914.075,-57.6081 L 913.795,-58.04 L 913.561,-58.4989 L 913.376,-58.9796
 L 913.243,-59.4771 L 913.163,-59.9857 L 913.136,-60.5 L 913.163,-61.0143 L 913.243,-61.5229 L 913.376,-62.0204
 L 913.561,-62.5011 L 913.795,-62.96 L 914.075,-63.3919 L 914.399,-63.7921 L 914.763,-64.1563 L 915.164,-64.4804
 L 915.506,-64.7024 L 915.506,-74 L 915.561,-74.5302 L 915.726,-75.0372 L 915.993,-75.4988 L 916.349,-75.895
 L 916.781,-76.2084 L 917.268,-76.4252 L 917.789,-76.536 L 918.322,-76.536 L 918.844,-76.4252 L 919.331,-76.2084
 L 919.762,-75.895 L 920.119,-75.4988 L 920.385,-75.0372 L 920.55,-74.5302 L 920.606,-74 L 920.606,-64.7024
 L 920.947,-64.4804 L 921.348,-64.1563 L 921.712,-63.7921 L 922.036,-63.3919 L 922.316,-62.96 L 922.55,-62.5011
 L 922.735,-62.0204 L 922.868,-61.5229 L 922.949,-61.0143 L 922.976,-60.5 L 922.949,-59.9857 L 922.868,-59.4771
 L 922.735,-58.9796 L 922.55,-58.4989 L 922.316,-58.04 L 922.036,-57.6081 L 921.712,-57.2079 L 921.348,-56.8437
 L 920.947,-56.5196 L 920.516,-56.2392 L 920.057,-56.0054 L 919.576,-55.8208 L 919.078,-55.6875 L 918.57,-55.607
 L 918.056,-55.58 z
M 735.43,-55.607 L 734.922,-55.6875 L 734.424,-55.8208 L 733.943,-56.0054 L 733.484,-56.2392 L 733.053,-56.5196
 L 732.652,-56.8437 L 732.288,-57.2079 L 731.964,-57.6081 L 731.684,-58.04 L 731.45,-58.4989 L 731.265,-58.9796
 L 731.132,-59.4771 L 731.051,-59.9857 L 731.024,-60.5 L 731.051,-61.0143 L 731.132,-61.5229 L 731.265,-62.0204
 L 731.45,-62.5011 L 731.684,-62.96 L 731.964,-63.3919 L 732.288,-63.7921 L 732.652,-64.1563 L 733.053,-64.4804
 L 733.394,-64.7024 L 733.394,-74 L 733.45,-74.5302 L 733.615,-75.0372 L 733.881,-75.4988 L 734.238,-75.895
 L 734.669,-76.2084 L 735.156,-76.4252 L 735.678,-76.536 L 736.211,-76.536 L 736.732,-76.4252 L 737.219,-76.2084
 L 737.651,-75.895 L 738.007,-75.4988 L 738.274,-75.0372 L 738.439,-74.5302 L 738.494,-74 L 738.494,-64.7024
 L 738.836,-64.4804 L 739.237,-64.1563 L 739.601,-63.7921 L 739.925,-63.3919 L 740.205,-62.96 L 740.439,-62.5011
 L 740.624,-62.0204 L 740.757,-61.5229 L 740.837,-61.0143 L 740.864,-60.5 L 740.837,-59.9857 L 740.757,-59.4771
 L 740.624,-58.9796 L 740.439,-58.4989 L 740.205,-58.04 L 739.925,-57.6081 L 739.601,-57.2079 L 739.237,-56.8437
 L 738.836,-56.5196 L 738.404,-56.2392 L 737.946,-56.0054 L 737.465,-55.8208 L 736.967,-55.6875 L 736.459,-55.607
 L 735.944,-55.58 z
M 1463.87,-55.607 L 1463.37,-55.6875 L 1462.87,-55.8208 L 1462.39,-56.0054 L 1461.93,-56.2392 L 1461.5,-56.5196
 L 1461.1,-56.8437 L 1460.73,-57.2079 L 1460.41,-57.6081 L 1460.13,-58.04 L 1459.89,-58.4989 L 1459.71,-58.9796
 L 1459.58,-59.4771 L 1459.5,-59.9857 L 1459.47,-60.5 L 1459.5,-61.0143 L 1459.58,-61.5229 L 1459.71,-62.0204
 L 1459.89,-62.5011 L 1460.13,-62.96 L 1460.41,-63.3919 L 1460.73,-63.7921 L 1461.1,-64.1563 L 1461.5,-64.4804
 L 1461.84,-64.7024 L 1461.84,-74 L 1461.89,-74.5302 L 1462.06,-75.0372 L 1462.33,-75.4988 L 1462.68,-75.895
 L 1463.11,-76.2084 L 1463.6,-76.4252 L 1464.12,-76.536 L 1464.66,-76.536 L 1465.18,-76.4252 L 1465.66,-76.2084
 L 1466.1,-75.895 L 1466.45,-75.4988 L 1466.72,-75.0372 L 1466.88,-74.5302 L 1466.94,-74 L 1466.94,-64.7024
 L 1467.28,-64.4804 L 1467.68,-64.1563 L 1468.05,-63.7921 L 1468.37,-63.3919 L 1468.65,-62.96 L 1468.88,-62.5011
 L 1469.07,-62.0204 L 1469.2,-61.5229 L 1469.28,-61.0143 L 1469.31,-60.5 L 1469.28,-59.9857 L 1469.2,-59.4771
 L 1469.07,-58.9796 L 1468.88,-58.4989 L 1468.65,-58.04 L 1468.37,-57.6081 L 1468.05,-57.2079 L 1467.68,-56.8437
 L 1467.28,-56.5196 L 1466.85,-56.2392 L 1466.39,-56.0054 L 1465.91,-55.8208 L 1465.41,-55.6875 L 1464.9,-55.607
 L 1464.39,-55.58 z
M 553.319,-55.607 L 552.81,-55.6875 L 552.313,-55.8208 L 551.832,-56.0054 L 551.373,-56.2392 L 550.941,-56.5196
 L 550.541,-56.8437 L 550.177,-57.2079 L 549.853,-57.6081 L 549.572,-58.04 L 549.339,-58.4989 L 549.154,-58.9796
 L 549.021,-59.4771 L 548.94,-59.9857 L 548.913,-60.5 L 548.94,-61.0143 L 549.021,-61.5229 L 549.154,-62.0204
 L 549.339,-62.5011 L 549.572,-62.96 L 549.853,-63.3919 L 550.177,-63.7921 L 550.541,-64.1563 L 550.941,-64.4804
 L 551.283,-64.7024 L 551.283,-74 L 551.339,-74.5302 L 551.504,-75.0372 L 551.77,-75.4988 L 552.127,-75.895
 L 552.558,-76.2084 L 553.045,-76.4252 L 553.567,-76.536 L 554.1,-76.536 L 554.621,-76.4252 L 555.108,-76.2084
 L 555.54,-75.895 L 555.896,-75.4988 L 556.163,-75.0372 L 556.328,-74.5302 L 556.383,-74 L 556.383,-64.7024
 L 556.725,-64.4804 L 557.125,-64.1563 L 557.49,-63.7921 L 557.814,-63.3919 L 558.094,-62.96 L 558.328,-62.5011
 L 558.513,-62.0204 L 558.646,-61.5229 L 558.726,-61.0143 L 558.753,-60.5 L 558.726,-59.9857 L 558.646,-59.4771
 L 558.513,-58.9796 L 558.328,-58.4989 L 558.094,-58.04 L 557.814,-57.6081 L 557.49,-57.2079 L 557.125,-56.8437
 L 556.725,-56.5196 L 556.293,-56.2392 L 555.834,-56.0054 L 555.354,-55.8208 L 554.856,-55.6875 L 554.348,-55.607
 L 553.833,-55.58 z
M 371.208,-55.607 L 370.699,-55.6875 L 370.202,-55.8208 L 369.721,-56.0054 L 369.262,-56.2392 L 368.83,-56.5196
 L 368.43,-56.8437 L 368.066,-57.2079 L 367.742,-57.6081 L 367.461,-58.04 L 367.228,-58.4989 L 367.043,-58.9796
 L 366.91,-59.4771 L 366.829,-59.9857 L 366.802,-60.5 L 366.829,-61.0143 L 366.91,-61.5229 L 367.043,-62.0204
 L 367.228,-62.5011 L 367.461,-62.96 L 367.742,-63.3919 L 368.066,-63.7921 L 368.43,-64.1563 L 368.83,-64.4804
 L 369.172,-64.7024 L 369.172,-74 L 369.228,-74.5302 L 369.393,-75.0372 L 369.659,-75.4988 L 370.016,-75.895
 L 370.447,-76.2084 L 370.934,-76.4252 L 371.456,-76.536 L 371.989,-76.536 L 372.51,-76.4252 L 372.997,-76.2084
 L 373.428,-75.895 L 373.785,-75.4988 L 374.052,-75.0372 L 374.216,-74.5302 L 374.272,-74 L 374.272,-64.7024
 L 374.614,-64.4804 L 375.014,-64.1563 L 375.378,-63.7921 L 375.703,-63.3919 L 375.983,-62.96 L 376.217,-62.5011
 L 376.401,-62.0204 L 376.535,-61.5229 L 376.615,-61.0143 L 376.642,-60.5 L 376.615,-59.9857 L 376.535,-59.4771
 L 376.401,-58.9796 L 376.217,-58.4989 L 375.983,-58.04 L 375.703,-57.6081 L 375.378,-57.2079 L 375.014,-56.8437
 L 374.614,-56.5196 L 374.182,-56.2392 L 373.723,-56.0054 L 373.243,-55.8208 L 372.745,-55.6875 L 372.236,-55.607
 L 371.722,-55.58 z
M 1645.99,-55.607 L 1645.48,-55.6875 L 1644.98,-55.8208 L 1644.5,-56.0054 L 1644.04,-56.2392 L 1643.61,-56.5196
 L 1643.21,-56.8437 L 1642.84,-57.2079 L 1642.52,-57.6081 L 1642.24,-58.04 L 1642.01,-58.4989 L 1641.82,-58.9796
 L 1641.69,-59.4771 L 1641.61,-59.9857 L 1641.58,-60.5 L 1641.61,-61.0143 L 1641.69,-61.5229 L 1641.82,-62.0204
 L 1642.01,-62.5011 L 1642.24,-62.96 L 1642.52,-63.3919 L 1642.84,-63.7921 L 1643.21,-64.1563 L 1643.61,-64.4804
 L 1643.95,-64.7024 L 1643.95,-74 L 1644.01,-74.5302 L 1644.17,-75.0372 L 1644.44,-75.4988 L 1644.79,-75.895
 L 1645.23,-76.2084 L 1645.71,-76.4252 L 1646.23,-76.536 L 1646.77,-76.536 L 1647.29,-76.4252 L 1647.77,-76.2084
 L 1648.21,-75.895 L 1648.56,-75.4988 L 1648.83,-75.0372 L 1648.99,-74.5302 L 1649.05,-74 L 1649.05,-64.7024
 L 1649.39,-64.4804 L 1649.79,-64.1563 L 1650.16,-63.7921 L 1650.48,-63.3919 L 1650.76,-62.96 L 1650.99,-62.5011
 L 1651.18,-62.0204 L 1651.31,-61.5229 L 1651.39,-61.0143 L 1651.42,-60.5 L 1651.39,-59.9857 L 1651.31,-59.4771
 L 1651.18,-58.9796 L 1650.99,-58.4989 L 1650.76,-58.04 L 1650.48,-57.6081 L 1650.16,-57.2079 L 1649.79,-56.8437
 L 1649.39,-56.5196 L 1648.96,-56.2392 L 1648.5,-56.0054 L 1648.02,-55.8208 L 1647.52,-55.6875 L 1647.01,-55.607
 L 1646.5,-55.58 z
M 189.097,-55.607 L 188.588,-55.6875 L 188.091,-55.8208 L 187.61,-56.0054 L 187.151,-56.2392 L 186.719,-56.5196
 L 186.319,-56.8437 L 185.955,-57.2079 L 185.631,-57.6081 L 185.35,-58.04 L 185.116,-58.4989 L 184.932,-58.9796
 L 184.799,-59.4771 L 184.718,-59.9857 L 184.691,-60.5 L 184.718,-61.0143 L 184.799,-61.5229 L 184.932,-62.0204
 L 185.116,-62.5011 L 185.35,-62.96 L 185.631,-63.3919 L 185.955,-63.7921 L 186.319,-64.1563 L 186.719,-64.4804
 L 187.061,-64.7024 L 187.061,-74 L 187.117,-74.5302 L 187.282,-75.0372 L 187.548,-75.4988 L 187.905,-75.895
 L 188.336,-76.2084 L 188.823,-76.4252 L 189.345,-76.536 L 189.878,-76.536 L 190.399,-76.4252 L 190.886,-76.2084
 L 191.317,-75.895 L 191.674,-75.4988 L 191.941,-75.0372 L 192.105,-74.5302 L 192.161,-74 L 192.161,-64.7024
 L 192.503,-64.4804 L 192.903,-64.1563 L 193.267,-63.7921 L 193.591,-63.3919 L 193.872,-62.96 L 194.106,-62.5011
 L 194.29,-62.0204 L 194.424,-61.5229 L 194.504,-61.0143 L 194.531,-60.5 L 194.504,-59.9857 L 194.424,-59.4771
 L 194.29,-58.9796 L 194.106,-58.4989 L 193.872,-58.04 L 193.591,-57.6081 L 193.267,-57.2079 L 192.903,-56.8437
 L 192.503,-56.5196 L 192.071,-56.2392 L 191.612,-56.0054 L 191.131,-55.8208 L 190.634,-55.6875 L 190.125,-55.607
 L 189.611,-55.58 z
M 1112.1,-20.8639 L 1111.32,-21.1707 L 1110.62,-21.6325 L 1110.04,-22.2292 L 1109.59,-22.9347 L 1109.29,-23.7181
 L 1109.17,-24.7179 L 1109.17,-58 L 1109.25,-58.8316 L 1109.51,-59.627 L 1109.93,-60.3511 L 1110.49,-60.9726
 L 1111.17,-61.4641 L 1111.93,-61.8042 L 1113.17,-62 L 1202.3,-62 L 1203.13,-61.9126 L 1203.93,-61.6542
 L 1204.65,-61.2361 L 1205.27,-60.6765 L 1205.76,-60 L 1206.1,-59.2361 L 1206.28,-58.4181 L 1206.28,-57.5819
 L 1206.1,-56.7639 L 1205.76,-56 L 1205.27,-55.3235 L 1204.65,-54.7639 L 1203.7,-54.2527 L 1114.57,-20.9706
 L 1113.76,-20.7616 L 1112.92,-20.7255 z
M 929.985,-20.8639 L 929.207,-21.1707 L 928.51,-21.6325 L 927.924,-22.2292 L 927.475,-22.9347 L 927.183,-23.7181
 L 927.056,-24.7179 L 927.056,-58 L 927.143,-58.8316 L 927.401,-59.627 L 927.819,-60.3511 L 928.379,-60.9726
 L 929.056,-61.4641 L 929.819,-61.8042 L 931.056,-62 L 1020.19,-62 L 1021.02,-61.9126 L 1021.82,-61.6542
 L 1022.54,-61.2361 L 1023.16,-60.6765 L 1023.65,-60 L 1023.99,-59.2361 L 1024.17,-58.4181 L 1024.17,-57.5819
 L 1023.99,-56.7639 L 1023.65,-56 L 1023.16,-55.3235 L 1022.54,-54.7639 L 1021.59,-54.2527 L 932.455,-20.9706
 L 931.645,-20.7616 L 930.81,-20.7255 z
M 826.41,-47.7746 L 825.601,-47.9836 L 808.811,-54.2527 L 807.859,-54.7639 L 807.238,-55.3235 L 806.746,-56
 L 806.406,-56.7639 L 806.232,-57.5819 L 806.232,-58.4181 L 806.406,-59.2361 L 806.746,-60 L 807.238,-60.6765
 L 807.859,-61.2361 L 808.584,-61.6542 L 809.379,-61.9126 L 810.211,-62 L 843.789,-62 L 844.86,-61.8541
 L 845.638,-61.5473 L 846.335,-61.0854 L 846.921,-60.4887 L 847.37,-59.7833 L 847.662,-58.9999 L 847.786,-58.1728
 L 847.734,-57.3381 L 847.51,-56.5324 L 847.124,-55.7908 L 846.592,-55.1458 L 845.937,-54.6255 L 845.189,-54.2527
 L 828.399,-47.9836 L 827.246,-47.7384 z
M 722.355,-20.7616 L 721.545,-20.9706 L 632.412,-54.2527 L 631.46,-54.7639 L 630.839,-55.3235 L 630.347,-56
 L 630.007,-56.7639 L 629.833,-57.5819 L 629.833,-58.4181 L 630.007,-59.2361 L 630.347,-60 L 630.839,-60.6765
 L 631.46,-61.2361 L 632.185,-61.6542 L 632.98,-61.9126 L 633.812,-62 L 722.944,-62 L 724.18,-61.8042
 L 724.944,-61.4641 L 725.621,-60.9726 L 726.18,-60.3511 L 726.599,-59.627 L 726.857,-58.8316 L 726.944,-58
 L 726.944,-24.7179 L 726.817,-23.7181 L 726.525,-22.9347 L 726.076,-22.2292 L 725.49,-21.6325 L 724.793,-21.1707
 L 724.015,-20.8639 L 723.19,-20.7255 z
M 540.244,-20.7616 L 539.434,-20.9706 L 450.301,-54.2527 L 449.349,-54.7639 L 448.728,-55.3235 L 448.236,-56
 L 447.896,-56.7639 L 447.722,-57.5819 L 447.722,-58.4181 L 447.896,-59.2361 L 448.236,-60 L 448.728,-60.6765
 L 449.349,-61.2361 L 450.073,-61.6542 L 450.869,-61.9126 L 451.7,-62 L 540.833,-62 L 542.069,-61.8042
 L 542.833,-61.4641 L 543.51,-60.9726 L 544.069,-60.3511 L 544.487,-59.627 L 544.746,-58.8316 L 544.833,-58
 L 544.833,-24.7179 L 544.706,-23.7181 L 544.414,-22.9347 L 543.965,-22.2292 L 543.379,-21.6325 L 542.682,-21.1707
 L 541.904,-20.8639 L 541.079,-20.7255 z
M 358.133,-20.7616 L 357.323,-20.9706 L 268.19,-54.2527 L 267.238,-54.7639 L 266.617,-55.3235 L 266.125,-56
 L 265.785,-56.7639 L 265.611,-57.5819 L 265.611,-58.4181 L 265.785,-59.2361 L 266.125,-60 L 266.617,-60.6765
 L 267.238,-61.2361 L 267.962,-61.6542 L 268.758,-61.9126 L 269.589,-62 L 358.722,-62 L 359.958,-61.8042
 L 360.722,-61.4641 L 361.399,-60.9726 L 361.958,-60.3511 L 362.376,-59.627 L 362.635,-58.8316 L 362.722,-58
 L 362.722,-24.7179 L 362.595,-23.7181 L 362.303,-22.9347 L 361.854,-22.2292 L 361.268,-21.6325 L 360.571,-21.1707
 L 359.793,-20.8639 L 358.968,-20.7255 z
M 1476.32,-20.8639 L 1475.54,-21.1707 L 1474.84,-21.6325 L 1474.26,-22.2292 L 1473.81,-22.9347 L 1473.52,-23.7181
 L 1473.39,-24.7179 L 1473.39,-58 L 1473.48,-58.8316 L 1473.73,-59.627 L 1474.15,-60.3511 L 1474.71,-60.9726
 L 1475.39,-61.4641 L 1476.15,-61.8042 L 1477.39,-62 L 1566.52,-62 L 1567.35,-61.9126 L 1568.15,-61.6542
 L 1568.87,-61.2361 L 1569.49,-60.6765 L 1569.99,-60 L 1570.33,-59.2361 L 1570.5,-58.4181 L 1570.5,-57.5819
 L 1570.33,-56.7639 L 1569.99,-56 L 1569.49,-55.3235 L 1568.87,-54.7639 L 1567.92,-54.2527 L 1478.79,-20.9706
 L 1477.98,-20.7616 L 1477.14,-20.7255 z
M 176.022,-20.7616 L 175.212,-20.9706 L 86.079,-54.2527 L 85.1271,-54.7639 L 84.5056,-55.3235 L 84.0141,-56
 L 83.674,-56.7639 L 83.5001,-57.5819 L 83.5001,-58.4181 L 83.674,-59.2361 L 84.0141,-60 L 84.5056,-60.6765
 L 85.1271,-61.2361 L 85.8513,-61.6542 L 86.6466,-61.9126 L 87.4782,-62 L 176.611,-62 L 177.847,-61.8042
 L 178.611,-61.4641 L 179.288,-60.9726 L 179.847,-60.3511 L 180.265,-59.627 L 180.524,-58.8316 L 180.611,-58
 L 180.611,-24.7179 L 180.484,-23.7181 L 180.192,-22.9347 L 179.743,-22.2292 L 179.157,-21.6325 L 178.46,-21.1707
 L 177.682,-20.8639 L 176.857,-20.7255 z
M 1294.21,-20.8639 L 1293.43,-21.1707 L 1292.73,-21.6325 L 1292.15,-22.2292 L 1291.7,-22.9347 L 1291.4,-23.7181
 L 1291.28,-24.7179 L 1291.28,-58 L 1291.37,-58.8316 L 1291.62,-59.627 L 1292.04,-60.3511 L 1292.6,-60.9726
 L 1293.28,-61.4641 L 1294.04,-61.8042 L 1295.28,-62 L 1384.41,-62 L 1385.24,-61.9126 L 1386.04,-61.6542
 L 1386.76,-61.2361 L 1387.38,-60.6765 L 1387.87,-60 L 1388.21,-59.2361 L 1388.39,-58.4181 L 1388.39,-57.5819
 L 1388.21,-56.7639 L 1387.87,-56 L 1387.38,-55.3235 L 1386.76,-54.7639 L 1385.81,-54.2527 L 1296.68,-20.9706
 L 1295.87,-20.7616 L 1295.03,-20.7255 z
M 748.526,-18.607 L 747.708,-18.7808 L 746.944,-19.121 L 746.268,-19.6125 L 745.708,-20.2339 L 745.29,-20.9581
 L 745.032,-21.7534 L 744.944,-22.5851 L 744.944,-57.4149 L 745.071,-58.4148 L 745.364,-59.1982 L 745.813,-59.9037
 L 746.399,-60.5004 L 747.096,-60.9622 L 747.874,-61.269 L 748.699,-61.4074 L 749.534,-61.3713 L 750.344,-61.1622
 L 796.983,-43.7473 L 797.432,-43.5473 L 798.129,-43.0854 L 798.715,-42.4887 L 799.164,-41.7833 L 799.457,-40.9999
 L 799.58,-40.1728 L 799.528,-39.3381 L 799.305,-38.5324 L 798.918,-37.7908 L 798.386,-37.1458 L 797.731,-36.6255
 L 796.983,-36.2527 L 750.344,-18.8378 L 749.363,-18.607 z
M 904.466,-18.6287 L 903.656,-18.8378 L 857.017,-36.2527 L 856.568,-36.4527 L 855.871,-36.9146 L 855.285,-37.5113
 L 854.836,-38.2167 L 854.543,-39.0001 L 854.42,-39.8272 L 854.472,-40.6619 L 854.695,-41.4676 L 855.082,-42.2092
 L 855.614,-42.8542 L 856.269,-43.3745 L 857.017,-43.7473 L 903.656,-61.1622 L 904.637,-61.3931 L 905.474,-61.3931
 L 906.292,-61.2192 L 907.056,-60.8791 L 907.732,-60.3875 L 908.292,-59.7661 L 908.71,-59.0419 L 908.968,-58.2466
 L 909.056,-57.415 L 909.056,-22.585 L 908.929,-21.5852 L 908.636,-20.8018 L 908.187,-20.0963 L 907.601,-19.4996
 L 906.904,-19.0378 L 906.126,-18.731 L 905.301,-18.5926 z
M 202.611,-18 L 201.375,-18.1958 L 200.611,-18.5359 L 199.935,-19.0274 L 199.375,-19.6489 L 198.957,-20.373
 L 198.699,-21.1684 L 198.611,-22 L 198.611,-55.2821 L 198.738,-56.2819 L 199.031,-57.0653 L 199.48,-57.7708
 L 200.065,-58.3675 L 200.763,-58.8293 L 201.54,-59.1361 L 202.365,-59.2745 L 203.201,-59.2384 L 204.01,-59.0293
 L 293.143,-25.7473 L 294.095,-25.2361 L 294.717,-24.6765 L 295.208,-24 L 295.548,-23.2361 L 295.722,-22.4181
 L 295.722,-21.5819 L 295.548,-20.7639 L 295.208,-20 L 294.717,-19.3235 L 294.095,-18.7639 L 293.371,-18.3458
 L 292.576,-18.0874 L 291.744,-18 z
M 384.722,-18 L 383.486,-18.1958 L 382.722,-18.5359 L 382.046,-19.0274 L 381.486,-19.6489 L 381.068,-20.373
 L 380.81,-21.1684 L 380.722,-22 L 380.722,-55.2821 L 380.849,-56.2819 L 381.142,-57.0653 L 381.591,-57.7708
 L 382.177,-58.3675 L 382.874,-58.8293 L 383.652,-59.1361 L 384.476,-59.2745 L 385.312,-59.2384 L 386.121,-59.0293
 L 475.254,-25.7473 L 476.206,-25.2361 L 476.828,-24.6765 L 477.319,-24 L 477.659,-23.2361 L 477.833,-22.4181
 L 477.833,-21.5819 L 477.659,-20.7639 L 477.319,-20 L 476.828,-19.3235 L 476.206,-18.7639 L 475.482,-18.3458
 L 474.687,-18.0874 L 473.855,-18 z
M 566.833,-18 L 565.597,-18.1958 L 564.833,-18.5359 L 564.157,-19.0274 L 563.597,-19.6489 L 563.179,-20.373
 L 562.921,-21.1684 L 562.833,-22 L 562.833,-55.2821 L 562.96,-56.2819 L 563.253,-57.0653 L 563.702,-57.7708
 L 564.288,-58.3675 L 564.985,-58.8293 L 565.763,-59.1361 L 566.587,-59.2745 L 567.423,-59.2384 L 568.233,-59.0293
 L 657.365,-25.7473 L 658.317,-25.2361 L 658.939,-24.6765 L 659.43,-24 L 659.77,-23.2361 L 659.944,-22.4181
 L 659.944,-21.5819 L 659.77,-20.7639 L 659.43,-20 L 658.939,-19.3235 L 658.317,-18.7639 L 657.593,-18.3458
 L 656.798,-18.0874 L 655.966,-18 z
M 998.034,-18 L 997.202,-18.0874 L 996.407,-18.3458 L 995.683,-18.7639 L 995.061,-19.3235 L 994.57,-20
 L 994.23,-20.7639 L 994.056,-21.5819 L 994.056,-22.4181 L 994.23,-23.2361 L 994.57,-24 L 995.061,-24.6765
 L 995.683,-25.2361 L 996.635,-25.7473 L 1085.77,-59.0293 L 1086.58,-59.2384 L 1087.41,-59.2745 L 1088.24,-59.1361
 L 1089.02,-58.8293 L 1089.71,-58.3675 L 1090.3,-57.7708 L 1090.75,-57.0653 L 1091.04,-56.2819 L 1091.17,-55.2821
 L 1091.17,-22 L 1091.08,-21.1684 L 1090.82,-20.373 L 1090.4,-19.6489 L 1089.84,-19.0274 L 1089.17,-18.5359
 L 1088.4,-18.1958 L 1087.17,-18 z
M 1180.14,-18 L 1179.31,-18.0874 L 1178.52,-18.3458 L 1177.79,-18.7639 L 1177.17,-19.3235 L 1176.68,-20
 L 1176.34,-20.7639 L 1176.17,-21.5819 L 1176.17,-22.4181 L 1176.34,-23.2361 L 1176.68,-24 L 1177.17,-24.6765
 L 1177.79,-25.2361 L 1178.75,-25.7473 L 1267.88,-59.0293 L 1268.69,-59.2384 L 1269.52,-59.2745 L 1270.35,-59.1361
 L 1271.13,-58.8293 L 1271.82,-58.3675 L 1272.41,-57.7708 L 1272.86,-57.0653 L 1273.15,-56.2819 L 1273.28,-55.2821
 L 1273.28,-22 L 1273.19,-21.1684 L 1272.93,-20.373 L 1272.51,-19.6489 L 1271.95,-19.0274 L 1271.28,-18.5359
 L 1270.51,-18.1958 L 1269.28,-18 z
M 1362.26,-18 L 1361.42,-18.0874 L 1360.63,-18.3458 L 1359.9,-18.7639 L 1359.28,-19.3235 L 1358.79,-20
 L 1358.45,-20.7639 L 1358.28,-21.5819 L 1358.28,-22.4181 L 1358.45,-23.2361 L 1358.79,-24 L 1359.28,-24.6765
 L 1359.9,-25.2361 L 1360.86,-25.7473 L 1449.99,-59.0293 L 1450.8,-59.2384 L 1451.63,-59.2745 L 1452.46,-59.1361
 L 1453.24,-58.8293 L 1453.93,-58.3675 L 1454.52,-57.7708 L 1454.97,-57.0653 L 1455.26,-56.2819 L 1455.39,-55.2821
 L 1455.39,-22 L 1455.3,-21.1684 L 1455.04,-20.373 L 1454.62,-19.6489 L 1454.07,-19.0274 L 1453.39,-18.5359
 L 1452.62,-18.1958 L 1451.39,-18 z
M 22,-18 L 20.7639,-18.1958 L 20,-18.5359 L 19.3235,-19.0274 L 18.7639,-19.6489 L 18.3458,-20.373
 L 18.0874,-21.1684 L 18,-22 L 18,-54.722 L 18.127,-55.7218 L 18.4195,-56.5052 L 18.8685,-57.2107
 L 19.4544,-57.8074 L 20.1515,-58.2692 L 20.9294,-58.576 L 21.7541,-58.7144 L 22.5896,-58.6783 L 23.3992,-58.4693
 L 111.032,-25.7473 L 111.984,-25.2361 L 112.605,-24.6765 L 113.097,-24 L 113.437,-23.2361 L 113.611,-22.4181
 L 113.611,-21.5819 L 113.437,-20.7639 L 113.097,-20 L 112.605,-19.3235 L 111.984,-18.7639 L 111.26,-18.3458
 L 110.465,-18.0874 L 109.633,-18 z
M 1544.37,-18 L 1543.54,-18.0874 L 1542.74,-18.3458 L 1542.02,-18.7639 L 1541.39,-19.3235 L 1540.9,-20
 L 1540.56,-20.7639 L 1540.39,-21.5819 L 1540.39,-22.4181 L 1540.56,-23.2361 L 1540.9,-24 L 1541.39,-24.6765
 L 1542.02,-25.2361 L 1542.97,-25.7473 L 1630.6,-58.4693 L 1631.41,-58.6783 L 1632.25,-58.7144 L 1633.07,-58.576
 L 1633.85,-58.2692 L 1634.55,-57.8074 L 1635.13,-57.2107 L 1635.58,-56.5052 L 1635.87,-55.7218 L 1636,-54.722
 L 1636,-22 L 1635.91,-21.1684 L 1635.65,-20.373 L 1635.24,-19.6489 L 1634.68,-19.0274 L 1634,-18.5359
 L 1633.24,-18.1958 L 1632,-18 z
M 810.211,-18 L 809.14,-18.1459 L 808.362,-18.4527 L 807.665,-18.9146 L 807.079,-19.5113 L 806.63,-20.2167
 L 806.338,-21.0001 L 806.214,-21.8272 L 806.266,-22.6619 L 806.49,-23.4676 L 806.876,-24.2092 L 807.408,-24.8542
 L 808.063,-25.3745 L 808.811,-25.7473 L 825.601,-32.0164 L 826.754,-32.2616 L 827.59,-32.2254 L 828.399,-32.0164
 L 845.189,-25.7473 L 846.141,-25.2361 L 846.762,-24.6765 L 847.253,-24 L 847.594,-23.2361 L 847.767,-22.4181
 L 847.767,-21.5819 L 847.594,-20.7639 L 847.253,-20 L 846.762,-19.3235 L 846.141,-18.7639 L 845.416,-18.3458
 L 844.621,-18.0874 L 843.789,-18 z
" stroke="black" fill="lightgray" stroke-width="0.5"/>
</svg>
