<?xml version="1.0" standalone="no"?>
<!DOCTYPE svg PUBLIC "-//W3C//DTD SVG 1.1//EN" "http://www.w3.org/Graphics/SVG/1.1/DTD/svg11.dtd">
<svg width="1598mm" height="80mm" viewBox="0 -80 1598 80" xmlns="http://www.w3.org/2000/svg" version="1.1">
<title>OpenSCAD Model</title>
<path d="
M 1598,-80 L 0,-80 L 0,-0 L 4.95,-0 L 4.95,-6 L 5.00572,-6.53017
 L 5.17046,-7.03717 L 5.437,-7.49884 L 5.79372,-7.895 L 6.22499,-8.20836 L 6.71201,-8.42519 L 7.23344,-8.53603
 L 7.76654,-8.53603 L 8.28798,-8.42519 L 8.77499,-8.20836 L 9.20627,-7.895 L 9.56299,-7.49884 L 9.82953,-7.03717
 L 9.99426,-6.53017 L 10.05,-6 L 10.05,-0 L 202.825,-0 L 202.825,-6 L 202.881,-6.53017
 L 203.045,-7.03717 L 203.312,-7.49884 L 203.669,-7.895 L 204.1,-8.20836 L 204.587,-8.42519 L 205.108,-8.53603
 L 205.642,-8.53603 L 206.163,-8.42519 L 206.65,-8.20836 L 207.081,-7.895 L 207.438,-7.49884 L 207.705,-7.03717
 L 207.869,-6.53017 L 207.925,-6 L 207.925,-0 L 400.7,-0 L 400.7,-6 L 400.756,-6.53017
 L 400.92,-7.03717 L 401.187,-7.49884 L 401.544,-7.895 L 401.975,-8.20836 L 402.462,-8.42519 L 402.983,-8.53603
 L 403.517,-8.53603 L 404.038,-8.42519 L 404.525,-8.20836 L 404.956,-7.895 L 405.313,-7.49884 L 405.58,-7.03717
 L 405.744,-6.53017 L 405.8,-6 L 405.8,-0 L 598.575,-0 L 598.575,-6 L 598.631,-6.53017
 L 598.795,-7.03717 L 599.062,-7.49884 L 599.419,-7.895 L 599.85,-8.20836 L 600.337,-8.42519 L 600.858,-8.53603
 L 601.392,-8.53603 L 601.913,-8.42519 L 602.4,-8.20836 L 602.831,-7.895 L 603.188,-7.49884 L 603.455,-7.03717
 L 603.619,-6.53017 L 603.675,-6 L 603.675,-0 L 796.45,-0 L 796.45,-6 L 796.506,-6.53017
 L 796.67,-7.03717 L 796.937,-7.49884 L 797.294,-7.895 L 797.725,-8.20836 L 798.212,-8.42519 L 798.733,-8.53603
 L 799.267,-8.53603 L 799.788,-8.42519 L 800.275,-8.20836 L 800.706,-7.895 L 801.063,-7.49884 L 801.33,-7.03717
 L 801.494,-6.53017 L 801.55,-6 L 801.55,-0 L 994.325,-0 L 994.325,-6 L 994.381,-6.53017
 L 994.545,-7.03717 L 994.812,-7.49884 L 995.169,-7.895 L 995.6,-8.20836 L 996.087,-8.42519 L 996.608,-8.53603
 L 997.142,-8.53603 L 997.663,-8.42519 L 998.15,-8.20836 L 998.581,-7.895 L 998.938,-7.49884 L 999.205,-7.03717
 L 999.369,-6.53017 L 999.425,-6 L 999.425,-0 L 1192.2,-0 L 1192.2,-6 L 1192.26,-6.53017
 L 1192.42,-7.03717 L 1192.69,-7.49884 L 1193.04,-7.895 L 1193.47,-8.20836 L 1193.96,-8.42519 L 1194.48,-8.53603
 L 1195.02,-8.53603 L 1195.54,-8.42519 L 1196.02,-8.20836 L 1196.46,-7.895 L 1196.81,-7.49884 L 1197.08,-7.03717
 L 1197.24,-6.53017 L 1197.3,-6 L 1197.3,-0 L 1390.07,-0 L 1390.07,-6 L 1390.13,-6.53017
 L 1390.3,-7.03717 L 1390.56,-7.49884 L 1390.92,-7.895 L 1391.35,-8.20836 L 1391.84,-8.42519 L 1392.36,-8.53603
 L 1392.89,-8.53603 L 1393.41,-8.42519 L 1393.9,-8.20836 L 1394.33,-7.895 L 1394.69,-7.49884 L 1394.95,-7.03717
 L 1395.12,-6.53017 L 1395.17,-6 L 1395.17,-0 L 1587.95,-0 L 1587.95,-6 L 1588.01,-6.53017
 L 1588.17,-7.03717 L 1588.44,-7.49884 L 1588.79,-7.895 L 1589.22,-8.20836 L 1589.71,-8.42519 L 1590.23,-8.53603
 L 1590.77,-8.53603 L 1591.29,-8.42519 L 1591.77,-8.20836 L 1592.21,-7.895 L 1592.56,-7.49884 L 1592.83,-7.03717
 L 1592.99,-6.53017 L 1593.05,-6 L 1593.05,-0 L 1598,-0 z
M 204.861,-55.607 L 204.352,-55.6875 L 203.855,-55.8208 L 203.374,-56.0054 L 202.915,-56.2392 L 202.483,-56.5196
 L 202.083,-56.8437 L 201.719,-57.2079 L 201.395,-57.6081 L 201.114,-58.04 L 200.88,-58.4989 L 200.696,-58.9796
 L 200.563,-59.4771 L 200.482,-59.9857 L 200.455,-60.5 L 200.482,-61.0143 L 200.563,-61.5229 L 200.696,-62.0204
 L 200.88,-62.5011 L 201.114,-62.96 L 201.395,-63.3919 L 201.719,-63.7921 L 202.083,-64.1563 L 202.483,-64.4804
 L 202.825,-64.7024 L 202.825,-74 L 202.881,-74.5302 L 203.045,-75.0372 L 203.312,-75.4988 L 203.669,-75.895
 L 204.1,-76.2084 L 204.587,-76.4252 L 205.108,-76.536 L 205.642,-76.536 L 206.163,-76.4252 L 206.65,-76.2084
 L 207.081,-75.895 L 207.438,-75.4988 L 207.705,-75.0372 L 207.869,-74.5302 L 207.925,-74 L 207.925,-64.7024
 L 208.267,-64.4804 L 208.667,-64.1563 L 209.031,-63.7921 L 209.355,-63.3919 L 209.636,-62.96 L 209.87,-62.5011
 L 210.054,-62.0204 L 210.187,-61.5229 L 210.268,-61.0143 L 210.295,-60.5 L 210.268,-59.9857 L 210.187,-59.4771
 L 210.054,-58.9796 L 209.87,-58.4989 L 209.636,-58.04 L 209.355,-57.6081 L 209.031,-57.2079 L 208.667,-56.8437
 L 208.267,-56.5196 L 207.835,-56.2392 L 207.376,-56.0054 L 206.895,-55.8208 L 206.398,-55.6875 L 205.889,-55.607
 L 205.375,-55.58 z
M 1194.24,-55.607 L 1193.73,-55.6875 L 1193.23,-55.8208 L 1192.75,-56.0054 L 1192.29,-56.2392 L 1191.86,-56.5196
 L 1191.46,-56.8437 L 1191.09,-57.2079 L 1190.77,-57.6081 L 1190.49,-58.04 L 1190.26,-58.4989 L 1190.07,-58.9796
 L 1189.94,-59.4771 L 1189.86,-59.9857 L 1189.83,-60.5 L 1189.86,-61.0143 L 1189.94,-61.5229 L 1190.07,-62.0204
 L 1190.26,-62.5011 L 1190.49,-62.96 L 1190.77,-63.3919 L 1191.09,-63.7921 L 1191.46,-64.1563 L 1191.86,-64.4804
 L 1192.2,-64.7024 L 1192.2,-74 L 1192.26,-74.5302 L 1192.42,-75.0372 L 1192.69,-75.4988 L 1193.04,-75.895
 L 1193.48,-76.2084 L 1193.96,-76.4252 L 1194.48,-76.536 L 1195.02,-76.536 L 1195.54,-76.4252 L 1196.02,-76.2084
 L 1196.46,-75.895 L 1196.81,-75.4988 L 1197.08,-75.0372 L 1197.24,-74.5302 L 1197.3,-74 L 1197.3,-64.7024
 L 1197.64,-64.4804 L 1198.04,-64.1563 L 1198.41,-63.7921 L 1198.73,-63.3919 L 1199.01,-62.96 L 1199.24,-62.5011
 L 1199.43,-62.0204 L 1199.56,-61.5229 L 1199.64,-61.0143 L 1199.67,-60.5 L 1199.64,-59.9857 L 1199.56,-59.4771
 L 1199.43,-58.9796 L 1199.24,-58.4989 L 1199.01,-58.04 L 1198.73,-57.6081 L 1198.41,-57.2079 L 1198.04,-56.8437
 L 1197.64,-56.5196 L 1197.21,-56.2392 L 1196.75,-56.0054 L 1196.27,-55.8208 L 1195.77,-55.6875 L 1195.26,-55.607
 L 1194.75,-55.58 z
M 996.361,-55.607 L 995.852,-55.6875 L 995.355,-55.8208 L 994.874,-56.0054 L 994.415,-56.2392 L 993.983,-56.5196
 L 993.583,-56.8437 L 993.219,-57.2079 L 992.895,-57.6081 L 992.614,-58.04 L 992.38,-58.4989 L 992.196,-58.9796
 L 992.063,-59.4771 L 991.982,-59.9857 L 991.955,-60.5 L 991.982,-61.0143 L 992.063,-61.5229 L 992.196,-62.0204
 L 992.38,-62.5011 L 992.614,-62.96 L 992.895,-63.3919 L 993.219,-63.7921 L 993.583,-64.1563 L 993.983,-64.4804
 L 994.325,-64.7024 L 994.325,-74 L 994.381,-74.5302 L 994.545,-75.0372 L 994.812,-75.4988 L 995.169,-75.895
 L 995.6,-76.2084 L 996.087,-76.4252 L 996.608,-76.536 L 997.142,-76.536 L 997.663,-76.4252 L 998.15,-76.2084
 L 998.581,-75.895 L 998.938,-75.4988 L 999.205,-75.0372 L 999.369,-74.5302 L 999.425,-74 L 999.425,-64.7024
 L 999.767,-64.4804 L 1000.17,-64.1563 L 1000.53,-63.7921 L 1000.86,-63.3919 L 1001.14,-62.96 L 1001.37,-62.5011
 L 1001.55,-62.0204 L 1001.69,-61.5229 L 1001.77,-61.0143 L 1001.79,-60.5 L 1001.77,-59.9857 L 1001.69,-59.4771
 L 1001.55,-58.9796 L 1001.37,-58.4989 L 1001.14,-58.04 L 1000.86,-57.6081 L 1000.53,-57.2079 L 1000.17,-56.8437
 L 999.767,-56.5196 L 999.335,-56.2392 L 998.876,-56.0054 L 998.395,-55.8208 L 997.898,-55.6875 L 997.389,-55.607
 L 996.875,-55.58 z
M 6.98573,-55.607 L 6.47708,-55.6875 L 5.97964,-55.8208 L 5.49887,-56.0054 L 5.04001,-56.2392 L 4.60811,-56.5196
 L 4.20789,-56.8437 L 3.84373,-57.2079 L 3.51964,-57.6081 L 3.23917,-58.04 L 3.00537,-58.4989 L 2.82082,-58.9796
 L 2.68752,-59.4771 L 2.60696,-59.9857 L 2.58,-60.5 L 2.60696,-61.0143 L 2.68752,-61.5229 L 2.82082,-62.0204
 L 3.00537,-62.5011 L 3.23917,-62.96 L 3.51964,-63.3919 L 3.84373,-63.7921 L 4.20789,-64.1563 L 4.60811,-64.4804
 L 4.95001,-64.7024 L 4.95001,-74 L 5.00574,-74.5302 L 5.17047,-75.0372 L 5.43701,-75.4988 L 5.79373,-75.895
 L 6.22501,-76.2084 L 6.71202,-76.4252 L 7.23346,-76.536 L 7.76654,-76.536 L 8.28798,-76.4252 L 8.77499,-76.2084
 L 9.20627,-75.895 L 9.56299,-75.4988 L 9.82953,-75.0372 L 9.99426,-74.5302 L 10.05,-74 L 10.05,-64.7024
 L 10.3919,-64.4804 L 10.7921,-64.1563 L 11.1563,-63.7921 L 11.4804,-63.3919 L 11.7608,-62.96 L 11.9946,-62.5011
 L 12.1792,-62.0204 L 12.3125,-61.5229 L 12.393,-61.0143 L 12.42,-60.5 L 12.393,-59.9857 L 12.3125,-59.4771
 L 12.1792,-58.9796 L 11.9946,-58.4989 L 11.7608,-58.04 L 11.4804,-57.6081 L 11.1563,-57.2079 L 10.7921,-56.8437
 L 10.3919,-56.5196 L 9.95999,-56.2392 L 9.50113,-56.0054 L 9.02036,-55.8208 L 8.52292,-55.6875 L 8.01427,-55.607
 L 7.5,-55.58 z
M 798.486,-55.607 L 797.977,-55.6875 L 797.48,-55.8208 L 796.999,-56.0054 L 796.54,-56.2392 L 796.108,-56.5196
 L 795.708,-56.8437 L 795.344,-57.2079 L 795.02,-57.6081 L 794.739,-58.04 L 794.505,-58.4989 L 794.321,-58.9796
 L 794.188,-59.4771 L 794.107,-59.9857 L 794.08,-60.5 L 794.107,-61.0143 L 794.188,-61.5229 L 794.321,-62.0204
 L 794.505,-62.5011 L 794.739,-62.96 L 795.02,-63.3919 L 795.344,-63.7921 L 795.708,-64.1563 L 796.108,-64.4804
 L 796.45,-64.7024 L 796.45,-74 L 796.506,-74.5302 L 796.67,-75.0372 L 796.937,-75.4988 L 797.294,-75.895
 L 797.725,-76.2084 L 798.212,-76.4252 L 798.733,-76.536 L 799.267,-76.536 L 799.788,-76.4252 L 800.275,-76.2084
 L 800.706,-75.895 L 801.063,-75.4988 L 801.33,-75.0372 L 801.494,-74.5302 L 801.55,-74 L 801.55,-64.7024
 L 801.892,-64.4804 L 802.292,-64.1563 L 802.656,-63.7921 L 802.98,-63.3919 L 803.261,-62.96 L 803.495,-62.5011
 L 803.679,-62.0204 L 803.812,-61.5229 L 803.893,-61.0143 L 803.92,-60.5 L 803.893,-59.9857 L 803.812,-59.4771
 L 803.679,-58.9796 L 803.495,-58.4989 L 803.261,-58.04 L 802.98,-57.6081 L 802.656,-57.2079 L 802.292,-56.8437
 L 801.892,-56.5196 L 801.46,-56.2392 L 801.001,-56.0054 L 800.52,-55.8208 L 800.023,-55.6875 L 799.514,-55.607
 L 799,-55.58 z
M 1392.11,-55.607 L 1391.6,-55.6875 L 1391.1,-55.8208 L 1390.62,-56.0054 L 1390.17,-56.2392 L 1389.73,-56.5196
 L 1389.33,-56.8437 L 1388.97,-57.2079 L 1388.64,-57.6081 L 1388.36,-58.04 L 1388.13,-58.4989 L 1387.95,-58.9796
 L 1387.81,-59.4771 L 1387.73,-59.9857 L 1387.71,-60.5 L 1387.73,-61.0143 L 1387.81,-61.5229 L 1387.95,-62.0204
 L 1388.13,-62.5011 L 1388.36,-62.96 L 1388.64,-63.3919 L 1388.97,-63.7921 L 1389.33,-64.1563 L 1389.73,-64.4804
 L 1390.08,-64.7024 L 1390.08,-74 L 1390.13,-74.5302 L 1390.3,-75.0372 L 1390.56,-75.4988 L 1390.92,-75.895
 L 1391.35,-76.2084 L 1391.84,-76.4252 L 1392.36,-76.536 L 1392.89,-76.536 L 1393.41,-76.4252 L 1393.9,-76.2084
 L 1394.33,-75.895 L 1394.69,-75.4988 L 1394.95,-75.0372 L 1395.12,-74.5302 L 1395.17,-74 L 1395.17,-64.7024
 L 1395.52,-64.4804 L 1395.92,-64.1563 L 1396.28,-63.7921 L 1396.61,-63.3919 L 1396.89,-62.96 L 1397.12,-62.5011
 L 1397.3,-62.0204 L 1397.44,-61.5229 L 1397.52,-61.0143 L 1397.54,-60.5 L 1397.52,-59.9857 L 1397.44,-59.4771
 L 1397.3,-58.9796 L 1397.12,-58.4989 L 1396.89,-58.04 L 1396.61,-57.6081 L 1396.28,-57.2079 L 1395.92,-56.8437
 L 1395.52,-56.5196 L 1395.08,-56.2392 L 1394.63,-56.0054 L 1394.15,-55.8208 L 1393.65,-55.6875 L 1393.14,-55.607
 L 1392.62,-55.58 z
M 600.611,-55.607 L 600.102,-55.6875 L 599.605,-55.8208 L 599.124,-56.0054 L 598.665,-56.2392 L 598.233,-56.5196
 L 597.833,-56.8437 L 597.469,-57.2079 L 597.145,-57.6081 L 596.864,-58.04 L 596.63,-58.4989 L 596.446,-58.9796
 L 596.313,-59.4771 L 596.232,-59.9857 L 596.205,-60.5 L 596.232,-61.0143 L 596.313,-61.5229 L 596.446,-62.0204
 L 596.63,-62.5011 L 596.864,-62.96 L 597.145,-63.3919 L 597.469,-63.7921 L 597.833,-64.1563 L 598.233,-64.4804
 L 598.575,-64.7024 L 598.575,-74 L 598.631,-74.5302 L 598.795,-75.0372 L 599.062,-75.4988 L 599.419,-75.895
 L 599.85,-76.2084 L 600.337,-76.4252 L 600.858,-76.536 L 601.392,-76.536 L 601.913,-76.4252 L 602.4,-76.2084
 L 602.831,-75.895 L 603.188,-75.4988 L 603.455,-75.0372 L 603.619,-74.5302 L 603.675,-74 L 603.675,-64.7024
 L 604.017,-64.4804 L 604.417,-64.1563 L 604.781,-63.7921 L 605.105,-63.3919 L 605.386,-62.96 L 605.62,-62.5011
 L 605.804,-62.0204 L 605.937,-61.5229 L 606.018,-61.0143 L 606.045,-60.5 L 606.018,-59.9857 L 605.937,-59.4771
 L 605.804,-58.9796 L 605.62,-58.4989 L 605.386,-58.04 L 605.105,-57.6081 L 604.781,-57.2079 L 604.417,-56.8437
 L 604.017,-56.5196 L 603.585,-56.2392 L 603.126,-56.0054 L 602.645,-55.8208 L 602.148,-55.6875 L 601.639,-55.607
 L 601.125,-55.58 z
M 402.736,-55.607 L 402.227,-55.6875 L 401.73,-55.8208 L 401.249,-56.0054 L 400.79,-56.2392 L 400.358,-56.5196
 L 399.958,-56.8437 L 399.594,-57.2079 L 399.27,-57.6081 L 398.989,-58.04 L 398.755,-58.4989 L 398.571,-58.9796
 L 398.438,-59.4771 L 398.357,-59.9857 L 398.33,-60.5 L 398.357,-61.0143 L 398.438,-61.5229 L 398.571,-62.0204
 L 398.755,-62.5011 L 398.989,-62.96 L 399.27,-63.3919 L 399.594,-63.7921 L 399.958,-64.1563 L 400.358,-64.4804
 L 400.7,-64.7024 L 400.7,-74 L 400.756,-74.5302 L 400.92,-75.0372 L 401.187,-75.4988 L 401.544,-75.895
 L 401.975,-76.2084 L 402.462,-76.4252 L 402.983,-76.536 L 403.517,-76.536 L 404.038,-76.4252 L 404.525,-76.2084
 L 404.956,-75.895 L 405.313,-75.4988 L 405.58,-75.0372 L 405.744,-74.5302 L 405.8,-74 L 405.8,-64.7024
 L 406.142,-64.4804 L 406.542,-64.1563 L 406.906,-63.7921 L 407.23,-63.3919 L 407.511,-62.96 L 407.745,-62.5011
 L 407.929,-62.0204 L 408.062,-61.5229 L 408.143,-61.0143 L 408.17,-60.5 L 408.143,-59.9857 L 408.062,-59.4771
 L 407.929,-58.9796 L 407.745,-58.4989 L 407.511,-58.04 L 407.23,-57.6081 L 406.906,-57.2079 L 406.542,-56.8437
 L 406.142,-56.5196 L 405.71,-56.2392 L 405.251,-56.0054 L 404.77,-55.8208 L 404.273,-55.6875 L 403.764,-55.607
 L 403.25,-55.58 z
M 1589.99,-55.607 L 1589.48,-55.6875 L 1588.98,-55.8208 L 1588.5,-56.0054 L 1588.04,-56.2392 L 1587.61,-56.5196
 L 1587.21,-56.8437 L 1586.84,-57.2079 L 1586.52,-57.6081 L 1586.24,-58.04 L 1586.01,-58.4989 L 1585.82,-58.9796
 L 1585.69,-59.4771 L 1585.61,-59.9857 L 1585.58,-60.5 L 1585.61,-61.0143 L 1585.69,-61.5229 L 1585.82,-62.0204
 L 1586.01,-62.5011 L 1586.24,-62.96 L 1586.52,-63.3919 L 1586.84,-63.7921 L 1587.21,-64.1563 L 1587.61,-64.4804
 L 1587.95,-64.7024 L 1587.95,-74 L 1588.01,-74.5302 L 1588.17,-75.0372 L 1588.44,-75.4988 L 1588.79,-75.895
 L 1589.23,-76.2084 L 1589.71,-76.4252 L 1590.23,-76.536 L 1590.77,-76.536 L 1591.29,-76.4252 L 1591.77,-76.2084
 L 1592.21,-75.895 L 1592.56,-75.4988 L 1592.83,-75.0372 L 1592.99,-74.5302 L 1593.05,-74 L 1593.05,-64.7024
 L 1593.39,-64.4804 L 1593.79,-64.1563 L 1594.16,-63.7921 L 1594.48,-63.3919 L 1594.76,-62.96 L 1594.99,-62.5011
 L 1595.18,-62.0204 L 1595.31,-61.5229 L 1595.39,-61.0143 L 1595.42,-60.5 L 1595.39,-59.9857 L 1595.31,-59.4771
 L 1595.18,-58.9796 L 1594.99,-58.4989 L 1594.76,-58.04 L 1594.48,-57.6081 L 1594.16,-57.2079 L 1593.79,-56.8437
 L 1593.39,-56.5196 L 1592.96,-56.2392 L 1592.5,-56.0054 L 1592.02,-55.8208 L 1591.52,-55.6875 L 1591.01,-55.607
 L 1590.5,-55.58 z
M 389.765,-20.2412 L 388.95,-20.4288 L 290.629,-54.2171 L 289.577,-54.7639 L 288.956,-55.3235 L 288.464,-56
 L 288.124,-56.7639 L 287.95,-57.5819 L 287.95,-58.4181 L 288.124,-59.2361 L 288.464,-60 L 288.956,-60.6765
 L 289.577,-61.2361 L 290.302,-61.6542 L 291.097,-61.9126 L 291.929,-62 L 390.25,-62 L 391.486,-61.8042
 L 392.25,-61.4641 L 392.927,-60.9726 L 393.486,-60.3511 L 393.904,-59.627 L 394.163,-58.8316 L 394.25,-58
 L 394.25,-24.2117 L 394.148,-23.3143 L 393.876,-22.5234 L 393.446,-21.8064 L 392.876,-21.1945 L 392.191,-20.7144
 L 391.422,-20.3872 L 390.601,-20.2271 z
M 587.64,-20.2412 L 586.825,-20.4288 L 488.504,-54.2171 L 487.452,-54.7639 L 486.831,-55.3235 L 486.339,-56
 L 485.999,-56.7639 L 485.825,-57.5819 L 485.825,-58.4181 L 485.999,-59.2361 L 486.339,-60 L 486.831,-60.6765
 L 487.452,-61.2361 L 488.177,-61.6542 L 488.972,-61.9126 L 489.804,-62 L 588.125,-62 L 589.361,-61.8042
 L 590.125,-61.4641 L 590.802,-60.9726 L 591.361,-60.3511 L 591.779,-59.627 L 592.038,-58.8316 L 592.125,-58
 L 592.125,-24.2117 L 592.023,-23.3143 L 591.751,-22.5234 L 591.321,-21.8064 L 590.751,-21.1945 L 590.066,-20.7144
 L 589.297,-20.3872 L 588.476,-20.2271 z
M 1404.45,-20.3872 L 1403.68,-20.7144 L 1403,-21.1945 L 1402.43,-21.8064 L 1402,-22.5234 L 1401.73,-23.3143
 L 1401.62,-24.2117 L 1401.62,-58 L 1401.71,-58.8316 L 1401.97,-59.627 L 1402.39,-60.3511 L 1402.95,-60.9726
 L 1403.62,-61.4641 L 1404.39,-61.8042 L 1405.62,-62 L 1503.95,-62 L 1504.78,-61.9126 L 1505.57,-61.6542
 L 1506.3,-61.2361 L 1506.92,-60.6765 L 1507.41,-60 L 1507.75,-59.2361 L 1507.92,-58.4181 L 1507.92,-57.5819
 L 1507.75,-56.7639 L 1507.41,-56 L 1506.92,-55.3235 L 1506.3,-54.7639 L 1505.25,-54.2171 L 1406.92,-20.4288
 L 1406.11,-20.2412 L 1405.27,-20.2271 z
M 785.515,-20.2412 L 784.7,-20.4288 L 686.379,-54.2171 L 685.327,-54.7639 L 684.706,-55.3235 L 684.214,-56
 L 683.874,-56.7639 L 683.7,-57.5819 L 683.7,-58.4181 L 683.874,-59.2361 L 684.214,-60 L 684.706,-60.6765
 L 685.327,-61.2361 L 686.052,-61.6542 L 686.847,-61.9126 L 687.679,-62 L 786,-62 L 787.236,-61.8042
 L 788,-61.4641 L 788.677,-60.9726 L 789.236,-60.3511 L 789.654,-59.627 L 789.913,-58.8316 L 790,-58
 L 790,-24.2117 L 789.898,-23.3143 L 789.626,-22.5234 L 789.196,-21.8064 L 788.626,-21.1945 L 787.941,-20.7144
 L 787.172,-20.3872 L 786.351,-20.2271 z
M 191.89,-20.2412 L 191.075,-20.4288 L 92.7536,-54.2171 L 91.7024,-54.7639 L 91.081,-55.3235 L 90.5895,-56
 L 90.2493,-56.7639 L 90.0755,-57.5819 L 90.0755,-58.4181 L 90.2493,-59.2361 L 90.5895,-60 L 91.081,-60.6765
 L 91.7024,-61.2361 L 92.4266,-61.6542 L 93.2219,-61.9126 L 94.0536,-62 L 192.375,-62 L 193.611,-61.8042
 L 194.375,-61.4641 L 195.052,-60.9726 L 195.611,-60.3511 L 196.029,-59.627 L 196.288,-58.8316 L 196.375,-58
 L 196.375,-24.2117 L 196.273,-23.3143 L 196.001,-22.5234 L 195.571,-21.8064 L 195.001,-21.1945 L 194.316,-20.7144
 L 193.547,-20.3872 L 192.726,-20.2271 z
M 810.828,-20.3872 L 810.059,-20.7144 L 809.374,-21.1945 L 808.804,-21.8064 L 808.374,-22.5234 L 808.102,-23.3143
 L 808,-24.2117 L 808,-58 L 808.087,-58.8316 L 808.346,-59.627 L 808.764,-60.3511 L 809.323,-60.9726
 L 810,-61.4641 L 810.764,-61.8042 L 812,-62 L 910.321,-62 L 911.153,-61.9126 L 911.948,-61.6542
 L 912.673,-61.2361 L 913.294,-60.6765 L 913.786,-60 L 914.126,-59.2361 L 914.3,-58.4181 L 914.3,-57.5819
 L 914.126,-56.7639 L 913.786,-56 L 913.294,-55.3235 L 912.673,-54.7639 L 911.621,-54.2171 L 813.3,-20.4288
 L 812.485,-20.2412 L 811.649,-20.2271 z
M 1008.7,-20.3872 L 1007.93,-20.7144 L 1007.25,-21.1945 L 1006.68,-21.8064 L 1006.25,-22.5234 L 1005.98,-23.3143
 L 1005.88,-24.2117 L 1005.88,-58 L 1005.96,-58.8316 L 1006.22,-59.627 L 1006.64,-60.3511 L 1007.2,-60.9726
 L 1007.88,-61.4641 L 1008.64,-61.8042 L 1009.88,-62 L 1108.2,-62 L 1109.03,-61.9126 L 1109.82,-61.6542
 L 1110.55,-61.2361 L 1111.17,-60.6765 L 1111.66,-60 L 1112,-59.2361 L 1112.17,-58.4181 L 1112.17,-57.5819
 L 1112,-56.7639 L 1111.66,-56 L 1111.17,-55.3235 L 1110.55,-54.7639 L 1109.5,-54.2171 L 1011.17,-20.4288
 L 1010.36,-20.2412 L 1009.52,-20.2271 z
M 1206.58,-20.3872 L 1205.81,-20.7144 L 1205.12,-21.1945 L 1204.55,-21.8064 L 1204.12,-22.5234 L 1203.85,-23.3143
 L 1203.75,-24.2117 L 1203.75,-58 L 1203.84,-58.8316 L 1204.1,-59.627 L 1204.51,-60.3511 L 1205.07,-60.9726
 L 1205.75,-61.4641 L 1206.51,-61.8042 L 1207.75,-62 L 1306.07,-62 L 1306.9,-61.9126 L 1307.7,-61.6542
 L 1308.42,-61.2361 L 1309.04,-60.6765 L 1309.54,-60 L 1309.88,-59.2361 L 1310.05,-58.4181 L 1310.05,-57.5819
 L 1309.88,-56.7639 L 1309.54,-56 L 1309.04,-55.3235 L 1308.42,-54.7639 L 1307.37,-54.2171 L 1209.05,-20.4288
 L 1208.24,-20.2412 L 1207.4,-20.2271 z
M 218.375,-18 L 217.139,-18.1958 L 216.375,-18.5359 L 215.698,-19.0274 L 215.139,-19.6489 L 214.721,-20.373
 L 214.462,-21.1684 L 214.375,-22 L 214.375,-55.7883 L 214.477,-56.6857 L 214.749,-57.4765 L 215.179,-58.1936
 L 215.749,-58.8055 L 216.434,-59.2856 L 217.203,-59.6128 L 218.024,-59.7728 L 218.86,-59.7587 L 219.675,-59.5711
 L 317.996,-25.7829 L 319.048,-25.2361 L 319.669,-24.6765 L 320.161,-24 L 320.501,-23.2361 L 320.674,-22.4181
 L 320.674,-21.5819 L 320.501,-20.7639 L 320.161,-20 L 319.669,-19.3235 L 319.048,-18.7639 L 318.323,-18.3458
 L 317.528,-18.0874 L 316.696,-18 z
M 416.25,-18 L 415.014,-18.1958 L 414.25,-18.5359 L 413.573,-19.0274 L 413.014,-19.6489 L 412.596,-20.373
 L 412.337,-21.1684 L 412.25,-22 L 412.25,-55.7883 L 412.352,-56.6857 L 412.624,-57.4765 L 413.054,-58.1936
 L 413.624,-58.8055 L 414.309,-59.2856 L 415.078,-59.6128 L 415.899,-59.7728 L 416.735,-59.7587 L 417.55,-59.5711
 L 515.871,-25.7829 L 516.923,-25.2361 L 517.544,-24.6765 L 518.036,-24 L 518.376,-23.2361 L 518.549,-22.4181
 L 518.549,-21.5819 L 518.376,-20.7639 L 518.036,-20 L 517.544,-19.3235 L 516.923,-18.7639 L 516.198,-18.3458
 L 515.403,-18.0874 L 514.571,-18 z
M 614.125,-18 L 612.889,-18.1958 L 612.125,-18.5359 L 611.448,-19.0274 L 610.889,-19.6489 L 610.471,-20.373
 L 610.212,-21.1684 L 610.125,-22 L 610.125,-55.7883 L 610.227,-56.6857 L 610.499,-57.4765 L 610.929,-58.1936
 L 611.499,-58.8055 L 612.184,-59.2856 L 612.953,-59.6128 L 613.774,-59.7728 L 614.61,-59.7587 L 615.425,-59.5711
 L 713.746,-25.7829 L 714.798,-25.2361 L 715.419,-24.6765 L 715.911,-24 L 716.251,-23.2361 L 716.424,-22.4181
 L 716.424,-21.5819 L 716.251,-20.7639 L 715.911,-20 L 715.419,-19.3235 L 714.798,-18.7639 L 714.073,-18.3458
 L 713.278,-18.0874 L 712.446,-18 z
M 885.554,-18 L 884.722,-18.0874 L 883.927,-18.3458 L 883.202,-18.7639 L 882.581,-19.3235 L 882.089,-20
 L 881.749,-20.7639 L 881.576,-21.5819 L 881.576,-22.4181 L 881.749,-23.2361 L 882.089,-24 L 882.581,-24.6765
 L 883.202,-25.2361 L 884.254,-25.7829 L 982.575,-59.5711 L 983.39,-59.7587 L 984.226,-59.7728 L 985.047,-59.6128
 L 985.816,-59.2856 L 986.501,-58.8055 L 987.071,-58.1936 L 987.501,-57.4765 L 987.773,-56.6857 L 987.875,-55.7883
 L 987.875,-22 L 987.788,-21.1684 L 987.529,-20.373 L 987.111,-19.6489 L 986.552,-19.0274 L 985.875,-18.5359
 L 985.111,-18.1958 L 983.875,-18 z
M 1083.43,-18 L 1082.6,-18.0874 L 1081.8,-18.3458 L 1081.08,-18.7639 L 1080.46,-19.3235 L 1079.96,-20
 L 1079.62,-20.7639 L 1079.45,-21.5819 L 1079.45,-22.4181 L 1079.62,-23.2361 L 1079.96,-24 L 1080.46,-24.6765
 L 1081.08,-25.2361 L 1082.13,-25.7829 L 1180.45,-59.5711 L 1181.26,-59.7587 L 1182.1,-59.7728 L 1182.92,-59.6128
 L 1183.69,-59.2856 L 1184.38,-58.8055 L 1184.95,-58.1936 L 1185.38,-57.4765 L 1185.65,-56.6857 L 1185.75,-55.7883
 L 1185.75,-22 L 1185.66,-21.1684 L 1185.4,-20.373 L 1184.99,-19.6489 L 1184.43,-19.0274 L 1183.75,-18.5359
 L 1182.99,-18.1958 L 1181.75,-18 z
M 1281.3,-18 L 1280.47,-18.0874 L 1279.68,-18.3458 L 1278.95,-18.7639 L 1278.33,-19.3235 L 1277.84,-20
 L 1277.5,-20.7639 L 1277.33,-21.5819 L 1277.33,-22.4181 L 1277.5,-23.2361 L 1277.84,-24 L 1278.33,-24.6765
 L 1278.95,-25.2361 L 1280,-25.7829 L 1378.33,-59.5711 L 1379.14,-59.7587 L 1379.98,-59.7728 L 1380.8,-59.6128
 L 1381.57,-59.2856 L 1382.25,-58.8055 L 1382.82,-58.1936 L 1383.25,-57.4765 L 1383.52,-56.6857 L 1383.62,-55.7883
 L 1383.62,-22 L 1383.54,-21.1684 L 1383.28,-20.373 L 1382.86,-19.6489 L 1382.3,-19.0274 L 1381.62,-18.5359
 L 1380.86,-18.1958 L 1379.62,-18 z
M 1479.18,-18 L 1478.35,-18.0874 L 1477.55,-18.3458 L 1476.83,-18.7639 L 1476.21,-19.3235 L 1475.71,-20
 L 1475.37,-20.7639 L 1475.2,-21.5819 L 1475.2,-22.4181 L 1475.37,-23.2361 L 1475.71,-24 L 1476.21,-24.6765
 L 1476.83,-25.2361 L 1477.88,-25.7829 L 1574.7,-59.0557 L 1575.51,-59.2433 L 1576.35,-59.2574 L 1577.17,-59.0973
 L 1577.94,-58.7701 L 1578.63,-58.2901 L 1579.2,-57.6781 L 1579.63,-56.9611 L 1579.9,-56.1702 L 1580,-55.2728
 L 1580,-22 L 1579.91,-21.1684 L 1579.65,-20.373 L 1579.24,-19.6489 L 1578.68,-19.0274 L 1578,-18.5359
 L 1577.24,-18.1958 L 1576,-18 z
M 22,-18 L 20.7639,-18.1958 L 20,-18.5359 L 19.3235,-19.0274 L 18.7639,-19.6489 L 18.3458,-20.373
 L 18.0874,-21.1684 L 18,-22 L 18,-55.2728 L 18.102,-56.1702 L 18.3737,-56.9611 L 18.804,-57.6781
 L 19.3739,-58.2901 L 20.0586,-58.7701 L 20.8282,-59.0973 L 21.649,-59.2574 L 22.4851,-59.2433 L 23.3,-59.0557
 L 120.121,-25.7829 L 121.173,-25.2361 L 121.794,-24.6765 L 122.286,-24 L 122.626,-23.2361 L 122.799,-22.4181
 L 122.799,-21.5819 L 122.626,-20.7639 L 122.286,-20 L 121.794,-19.3235 L 121.173,-18.7639 L 120.448,-18.3458
 L 119.653,-18.0874 L 118.821,-18 z
" stroke="black" fill="lightgray" stroke-width="0.5"/>
</svg>
