<?xml version="1.0" standalone="no"?>
<!DOCTYPE svg PUBLIC "-//W3C//DTD SVG 1.1//EN" "http://www.w3.org/Graphics/SVG/1.1/DTD/svg11.dtd">
<svg width="1425mm" height="80mm" viewBox="0 -80 1425 80" xmlns="http://www.w3.org/2000/svg" version="1.1">
<title>OpenSCAD Model</title>
<path d="
M 1425,-80 L 0,-80 L 0,-0 L 4.95,-0 L 4.95,-6 L 5.00572,-6.53017
 L 5.17046,-7.03717 L 5.437,-7.49884 L 5.79372,-7.895 L 6.22499,-8.20836 L 6.71201,-8.42519 L 7.23344,-8.53603
 L 7.76654,-8.53603 L 8.28798,-8.42519 L 8.77499,-8.20836 L 9.20627,-7.895 L 9.56299,-7.49884 L 9.82953,-7.03717
 L 9.99426,-6.53017 L 10.05,-6 L 10.05,-0 L 181.2,-0 L 181.2,-6 L 181.256,-6.53017
 L 181.42,-7.03717 L 181.687,-7.49884 L 182.044,-7.895 L 182.475,-8.20836 L 182.962,-8.42519 L 183.483,-8.53603
 L 184.017,-8.53603 L 184.538,-8.42519 L 185.025,-8.20836 L 185.456,-7.895 L 185.813,-7.49884 L 186.08,-7.03717
 L 186.244,-6.53017 L 186.3,-6 L 186.3,-0 L 357.45,-0 L 357.45,-6 L 357.506,-6.53017
 L 357.67,-7.03717 L 357.937,-7.49884 L 358.294,-7.895 L 358.725,-8.20836 L 359.212,-8.42519 L 359.733,-8.53603
 L 360.267,-8.53603 L 360.788,-8.42519 L 361.275,-8.20836 L 361.706,-7.895 L 362.063,-7.49884 L 362.33,-7.03717
 L 362.494,-6.53017 L 362.55,-6 L 362.55,-0 L 533.7,-0 L 533.7,-6 L 533.756,-6.53017
 L 533.92,-7.03717 L 534.187,-7.49884 L 534.544,-7.895 L 534.975,-8.20836 L 535.462,-8.42519 L 535.983,-8.53603
 L 536.517,-8.53603 L 537.038,-8.42519 L 537.525,-8.20836 L 537.956,-7.895 L 538.313,-7.49884 L 538.58,-7.03717
 L 538.744,-6.53017 L 538.8,-6 L 538.8,-0 L 709.95,-0 L 709.95,-6 L 710.006,-6.53017
 L 710.17,-7.03717 L 710.437,-7.49884 L 710.794,-7.895 L 711.225,-8.20836 L 711.712,-8.42519 L 712.233,-8.53603
 L 712.767,-8.53603 L 713.288,-8.42519 L 713.775,-8.20836 L 714.206,-7.895 L 714.563,-7.49884 L 714.83,-7.03717
 L 714.994,-6.53017 L 715.05,-6 L 715.05,-0 L 886.2,-0 L 886.2,-6 L 886.256,-6.53017
 L 886.42,-7.03717 L 886.687,-7.49884 L 887.044,-7.895 L 887.475,-8.20836 L 887.962,-8.42519 L 888.483,-8.53603
 L 889.017,-8.53603 L 889.538,-8.42519 L 890.025,-8.20836 L 890.456,-7.895 L 890.813,-7.49884 L 891.08,-7.03717
 L 891.244,-6.53017 L 891.3,-6 L 891.3,-0 L 1062.45,-0 L 1062.45,-6 L 1062.51,-6.53017
 L 1062.67,-7.03717 L 1062.94,-7.49884 L 1063.29,-7.895 L 1063.72,-8.20836 L 1064.21,-8.42519 L 1064.73,-8.53603
 L 1065.27,-8.53603 L 1065.79,-8.42519 L 1066.27,-8.20836 L 1066.71,-7.895 L 1067.06,-7.49884 L 1067.33,-7.03717
 L 1067.49,-6.53017 L 1067.55,-6 L 1067.55,-0 L 1238.7,-0 L 1238.7,-6 L 1238.76,-6.53017
 L 1238.92,-7.03717 L 1239.19,-7.49884 L 1239.54,-7.895 L 1239.97,-8.20836 L 1240.46,-8.42519 L 1240.98,-8.53603
 L 1241.52,-8.53603 L 1242.04,-8.42519 L 1242.52,-8.20836 L 1242.96,-7.895 L 1243.31,-7.49884 L 1243.58,-7.03717
 L 1243.74,-6.53017 L 1243.8,-6 L 1243.8,-0 L 1414.95,-0 L 1414.95,-6 L 1415.01,-6.53017
 L 1415.17,-7.03717 L 1415.44,-7.49884 L 1415.79,-7.895 L 1416.22,-8.20836 L 1416.71,-8.42519 L 1417.23,-8.53603
 L 1417.77,-8.53603 L 1418.29,-8.42519 L 1418.77,-8.20836 L 1419.21,-7.895 L 1419.56,-7.49884 L 1419.83,-7.03717
 L 1419.99,-6.53017 L 1420.05,-6 L 1420.05,-0 L 1425,-0 z
M 183.236,-55.607 L 182.727,-55.6875 L 182.23,-55.8208 L 181.749,-56.0054 L 181.29,-56.2392 L 180.858,-56.5196
 L 180.458,-56.8437 L 180.094,-57.2079 L 179.77,-57.6081 L 179.489,-58.04 L 179.255,-58.4989 L 179.071,-58.9796
 L 178.938,-59.4771 L 178.857,-59.9857 L 178.83,-60.5 L 178.857,-61.0143 L 178.938,-61.5229 L 179.071,-62.0204
 L 179.255,-62.5011 L 179.489,-62.96 L 179.77,-63.3919 L 180.094,-63.7921 L 180.458,-64.1563 L 180.858,-64.4804
 L 181.2,-64.7024 L 181.2,-74 L 181.256,-74.5302 L 181.42,-75.0372 L 181.687,-75.4988 L 182.044,-75.895
 L 182.475,-76.2084 L 182.962,-76.4252 L 183.483,-76.536 L 184.017,-76.536 L 184.538,-76.4252 L 185.025,-76.2084
 L 185.456,-75.895 L 185.813,-75.4988 L 186.08,-75.0372 L 186.244,-74.5302 L 186.3,-74 L 186.3,-64.7024
 L 186.642,-64.4804 L 187.042,-64.1563 L 187.406,-63.7921 L 187.73,-63.3919 L 188.011,-62.96 L 188.245,-62.5011
 L 188.429,-62.0204 L 188.562,-61.5229 L 188.643,-61.0143 L 188.67,-60.5 L 188.643,-59.9857 L 188.562,-59.4771
 L 188.429,-58.9796 L 188.245,-58.4989 L 188.011,-58.04 L 187.73,-57.6081 L 187.406,-57.2079 L 187.042,-56.8437
 L 186.642,-56.5196 L 186.21,-56.2392 L 185.751,-56.0054 L 185.27,-55.8208 L 184.773,-55.6875 L 184.264,-55.607
 L 183.75,-55.58 z
M 1064.49,-55.607 L 1063.98,-55.6875 L 1063.48,-55.8208 L 1063,-56.0054 L 1062.54,-56.2392 L 1062.11,-56.5196
 L 1061.71,-56.8437 L 1061.34,-57.2079 L 1061.02,-57.6081 L 1060.74,-58.04 L 1060.51,-58.4989 L 1060.32,-58.9796
 L 1060.19,-59.4771 L 1060.11,-59.9857 L 1060.08,-60.5 L 1060.11,-61.0143 L 1060.19,-61.5229 L 1060.32,-62.0204
 L 1060.51,-62.5011 L 1060.74,-62.96 L 1061.02,-63.3919 L 1061.34,-63.7921 L 1061.71,-64.1563 L 1062.11,-64.4804
 L 1062.45,-64.7024 L 1062.45,-74 L 1062.51,-74.5302 L 1062.67,-75.0372 L 1062.94,-75.4988 L 1063.29,-75.895
 L 1063.73,-76.2084 L 1064.21,-76.4252 L 1064.73,-76.536 L 1065.27,-76.536 L 1065.79,-76.4252 L 1066.27,-76.2084
 L 1066.71,-75.895 L 1067.06,-75.4988 L 1067.33,-75.0372 L 1067.49,-74.5302 L 1067.55,-74 L 1067.55,-64.7024
 L 1067.89,-64.4804 L 1068.29,-64.1563 L 1068.66,-63.7921 L 1068.98,-63.3919 L 1069.26,-62.96 L 1069.49,-62.5011
 L 1069.68,-62.0204 L 1069.81,-61.5229 L 1069.89,-61.0143 L 1069.92,-60.5 L 1069.89,-59.9857 L 1069.81,-59.4771
 L 1069.68,-58.9796 L 1069.49,-58.4989 L 1069.26,-58.04 L 1068.98,-57.6081 L 1068.66,-57.2079 L 1068.29,-56.8437
 L 1067.89,-56.5196 L 1067.46,-56.2392 L 1067,-56.0054 L 1066.52,-55.8208 L 1066.02,-55.6875 L 1065.51,-55.607
 L 1065,-55.58 z
M 888.236,-55.607 L 887.727,-55.6875 L 887.23,-55.8208 L 886.749,-56.0054 L 886.29,-56.2392 L 885.858,-56.5196
 L 885.458,-56.8437 L 885.094,-57.2079 L 884.77,-57.6081 L 884.489,-58.04 L 884.255,-58.4989 L 884.071,-58.9796
 L 883.938,-59.4771 L 883.857,-59.9857 L 883.83,-60.5 L 883.857,-61.0143 L 883.938,-61.5229 L 884.071,-62.0204
 L 884.255,-62.5011 L 884.489,-62.96 L 884.77,-63.3919 L 885.094,-63.7921 L 885.458,-64.1563 L 885.858,-64.4804
 L 886.2,-64.7024 L 886.2,-74 L 886.256,-74.5302 L 886.42,-75.0372 L 886.687,-75.4988 L 887.044,-75.895
 L 887.475,-76.2084 L 887.962,-76.4252 L 888.483,-76.536 L 889.017,-76.536 L 889.538,-76.4252 L 890.025,-76.2084
 L 890.456,-75.895 L 890.813,-75.4988 L 891.08,-75.0372 L 891.244,-74.5302 L 891.3,-74 L 891.3,-64.7024
 L 891.642,-64.4804 L 892.042,-64.1563 L 892.406,-63.7921 L 892.73,-63.3919 L 893.011,-62.96 L 893.245,-62.5011
 L 893.429,-62.0204 L 893.562,-61.5229 L 893.643,-61.0143 L 893.67,-60.5 L 893.643,-59.9857 L 893.562,-59.4771
 L 893.429,-58.9796 L 893.245,-58.4989 L 893.011,-58.04 L 892.73,-57.6081 L 892.406,-57.2079 L 892.042,-56.8437
 L 891.642,-56.5196 L 891.21,-56.2392 L 890.751,-56.0054 L 890.27,-55.8208 L 889.773,-55.6875 L 889.264,-55.607
 L 888.75,-55.58 z
M 6.98573,-55.607 L 6.47708,-55.6875 L 5.97964,-55.8208 L 5.49887,-56.0054 L 5.04001,-56.2392 L 4.60811,-56.5196
 L 4.20789,-56.8437 L 3.84373,-57.2079 L 3.51964,-57.6081 L 3.23917,-58.04 L 3.00537,-58.4989 L 2.82082,-58.9796
 L 2.68752,-59.4771 L 2.60696,-59.9857 L 2.58,-60.5 L 2.60696,-61.0143 L 2.68752,-61.5229 L 2.82082,-62.0204
 L 3.00537,-62.5011 L 3.23917,-62.96 L 3.51964,-63.3919 L 3.84373,-63.7921 L 4.20789,-64.1563 L 4.60811,-64.4804
 L 4.95001,-64.7024 L 4.95001,-74 L 5.00574,-74.5302 L 5.17047,-75.0372 L 5.43701,-75.4988 L 5.79373,-75.895
 L 6.22501,-76.2084 L 6.71202,-76.4252 L 7.23346,-76.536 L 7.76654,-76.536 L 8.28798,-76.4252 L 8.77499,-76.2084
 L 9.20627,-75.895 L 9.56299,-75.4988 L 9.82953,-75.0372 L 9.99426,-74.5302 L 10.05,-74 L 10.05,-64.7024
 L 10.3919,-64.4804 L 10.7921,-64.1563 L 11.1563,-63.7921 L 11.4804,-63.3919 L 11.7608,-62.96 L 11.9946,-62.5011
 L 12.1792,-62.0204 L 12.3125,-61.5229 L 12.393,-61.0143 L 12.42,-60.5 L 12.393,-59.9857 L 12.3125,-59.4771
 L 12.1792,-58.9796 L 11.9946,-58.4989 L 11.7608,-58.04 L 11.4804,-57.6081 L 11.1563,-57.2079 L 10.7921,-56.8437
 L 10.3919,-56.5196 L 9.95999,-56.2392 L 9.50113,-56.0054 L 9.02036,-55.8208 L 8.52292,-55.6875 L 8.01427,-55.607
 L 7.5,-55.58 z
M 711.986,-55.607 L 711.477,-55.6875 L 710.98,-55.8208 L 710.499,-56.0054 L 710.04,-56.2392 L 709.608,-56.5196
 L 709.208,-56.8437 L 708.844,-57.2079 L 708.52,-57.6081 L 708.239,-58.04 L 708.005,-58.4989 L 707.821,-58.9796
 L 707.688,-59.4771 L 707.607,-59.9857 L 707.58,-60.5 L 707.607,-61.0143 L 707.688,-61.5229 L 707.821,-62.0204
 L 708.005,-62.5011 L 708.239,-62.96 L 708.52,-63.3919 L 708.844,-63.7921 L 709.208,-64.1563 L 709.608,-64.4804
 L 709.95,-64.7024 L 709.95,-74 L 710.006,-74.5302 L 710.17,-75.0372 L 710.437,-75.4988 L 710.794,-75.895
 L 711.225,-76.2084 L 711.712,-76.4252 L 712.233,-76.536 L 712.767,-76.536 L 713.288,-76.4252 L 713.775,-76.2084
 L 714.206,-75.895 L 714.563,-75.4988 L 714.83,-75.0372 L 714.994,-74.5302 L 715.05,-74 L 715.05,-64.7024
 L 715.392,-64.4804 L 715.792,-64.1563 L 716.156,-63.7921 L 716.48,-63.3919 L 716.761,-62.96 L 716.995,-62.5011
 L 717.179,-62.0204 L 717.312,-61.5229 L 717.393,-61.0143 L 717.42,-60.5 L 717.393,-59.9857 L 717.312,-59.4771
 L 717.179,-58.9796 L 716.995,-58.4989 L 716.761,-58.04 L 716.48,-57.6081 L 716.156,-57.2079 L 715.792,-56.8437
 L 715.392,-56.5196 L 714.96,-56.2392 L 714.501,-56.0054 L 714.02,-55.8208 L 713.523,-55.6875 L 713.014,-55.607
 L 712.5,-55.58 z
M 1240.74,-55.607 L 1240.23,-55.6875 L 1239.73,-55.8208 L 1239.25,-56.0054 L 1238.79,-56.2392 L 1238.36,-56.5196
 L 1237.96,-56.8437 L 1237.59,-57.2079 L 1237.27,-57.6081 L 1236.99,-58.04 L 1236.76,-58.4989 L 1236.57,-58.9796
 L 1236.44,-59.4771 L 1236.36,-59.9857 L 1236.33,-60.5 L 1236.36,-61.0143 L 1236.44,-61.5229 L 1236.57,-62.0204
 L 1236.76,-62.5011 L 1236.99,-62.96 L 1237.27,-63.3919 L 1237.59,-63.7921 L 1237.96,-64.1563 L 1238.36,-64.4804
 L 1238.7,-64.7024 L 1238.7,-74 L 1238.76,-74.5302 L 1238.92,-75.0372 L 1239.19,-75.4988 L 1239.54,-75.895
 L 1239.98,-76.2084 L 1240.46,-76.4252 L 1240.98,-76.536 L 1241.52,-76.536 L 1242.04,-76.4252 L 1242.52,-76.2084
 L 1242.96,-75.895 L 1243.31,-75.4988 L 1243.58,-75.0372 L 1243.74,-74.5302 L 1243.8,-74 L 1243.8,-64.7024
 L 1244.14,-64.4804 L 1244.54,-64.1563 L 1244.91,-63.7921 L 1245.23,-63.3919 L 1245.51,-62.96 L 1245.74,-62.5011
 L 1245.93,-62.0204 L 1246.06,-61.5229 L 1246.14,-61.0143 L 1246.17,-60.5 L 1246.14,-59.9857 L 1246.06,-59.4771
 L 1245.93,-58.9796 L 1245.74,-58.4989 L 1245.51,-58.04 L 1245.23,-57.6081 L 1244.91,-57.2079 L 1244.54,-56.8437
 L 1244.14,-56.5196 L 1243.71,-56.2392 L 1243.25,-56.0054 L 1242.77,-55.8208 L 1242.27,-55.6875 L 1241.76,-55.607
 L 1241.25,-55.58 z
M 535.736,-55.607 L 535.227,-55.6875 L 534.73,-55.8208 L 534.249,-56.0054 L 533.79,-56.2392 L 533.358,-56.5196
 L 532.958,-56.8437 L 532.594,-57.2079 L 532.27,-57.6081 L 531.989,-58.04 L 531.755,-58.4989 L 531.571,-58.9796
 L 531.438,-59.4771 L 531.357,-59.9857 L 531.33,-60.5 L 531.357,-61.0143 L 531.438,-61.5229 L 531.571,-62.0204
 L 531.755,-62.5011 L 531.989,-62.96 L 532.27,-63.3919 L 532.594,-63.7921 L 532.958,-64.1563 L 533.358,-64.4804
 L 533.7,-64.7024 L 533.7,-74 L 533.756,-74.5302 L 533.92,-75.0372 L 534.187,-75.4988 L 534.544,-75.895
 L 534.975,-76.2084 L 535.462,-76.4252 L 535.983,-76.536 L 536.517,-76.536 L 537.038,-76.4252 L 537.525,-76.2084
 L 537.956,-75.895 L 538.313,-75.4988 L 538.58,-75.0372 L 538.744,-74.5302 L 538.8,-74 L 538.8,-64.7024
 L 539.142,-64.4804 L 539.542,-64.1563 L 539.906,-63.7921 L 540.23,-63.3919 L 540.511,-62.96 L 540.745,-62.5011
 L 540.929,-62.0204 L 541.062,-61.5229 L 541.143,-61.0143 L 541.17,-60.5 L 541.143,-59.9857 L 541.062,-59.4771
 L 540.929,-58.9796 L 540.745,-58.4989 L 540.511,-58.04 L 540.23,-57.6081 L 539.906,-57.2079 L 539.542,-56.8437
 L 539.142,-56.5196 L 538.71,-56.2392 L 538.251,-56.0054 L 537.77,-55.8208 L 537.273,-55.6875 L 536.764,-55.607
 L 536.25,-55.58 z
M 359.486,-55.607 L 358.977,-55.6875 L 358.48,-55.8208 L 357.999,-56.0054 L 357.54,-56.2392 L 357.108,-56.5196
 L 356.708,-56.8437 L 356.344,-57.2079 L 356.02,-57.6081 L 355.739,-58.04 L 355.505,-58.4989 L 355.321,-58.9796
 L 355.188,-59.4771 L 355.107,-59.9857 L 355.08,-60.5 L 355.107,-61.0143 L 355.188,-61.5229 L 355.321,-62.0204
 L 355.505,-62.5011 L 355.739,-62.96 L 356.02,-63.3919 L 356.344,-63.7921 L 356.708,-64.1563 L 357.108,-64.4804
 L 357.45,-64.7024 L 357.45,-74 L 357.506,-74.5302 L 357.67,-75.0372 L 357.937,-75.4988 L 358.294,-75.895
 L 358.725,-76.2084 L 359.212,-76.4252 L 359.733,-76.536 L 360.267,-76.536 L 360.788,-76.4252 L 361.275,-76.2084
 L 361.706,-75.895 L 362.063,-75.4988 L 362.33,-75.0372 L 362.494,-74.5302 L 362.55,-74 L 362.55,-64.7024
 L 362.892,-64.4804 L 363.292,-64.1563 L 363.656,-63.7921 L 363.98,-63.3919 L 364.261,-62.96 L 364.495,-62.5011
 L 364.679,-62.0204 L 364.812,-61.5229 L 364.893,-61.0143 L 364.92,-60.5 L 364.893,-59.9857 L 364.812,-59.4771
 L 364.679,-58.9796 L 364.495,-58.4989 L 364.261,-58.04 L 363.98,-57.6081 L 363.656,-57.2079 L 363.292,-56.8437
 L 362.892,-56.5196 L 362.46,-56.2392 L 362.001,-56.0054 L 361.52,-55.8208 L 361.023,-55.6875 L 360.514,-55.607
 L 360,-55.58 z
M 1416.99,-55.607 L 1416.48,-55.6875 L 1415.98,-55.8208 L 1415.5,-56.0054 L 1415.04,-56.2392 L 1414.61,-56.5196
 L 1414.21,-56.8437 L 1413.84,-57.2079 L 1413.52,-57.6081 L 1413.24,-58.04 L 1413.01,-58.4989 L 1412.82,-58.9796
 L 1412.69,-59.4771 L 1412.61,-59.9857 L 1412.58,-60.5 L 1412.61,-61.0143 L 1412.69,-61.5229 L 1412.82,-62.0204
 L 1413.01,-62.5011 L 1413.24,-62.96 L 1413.52,-63.3919 L 1413.84,-63.7921 L 1414.21,-64.1563 L 1414.61,-64.4804
 L 1414.95,-64.7024 L 1414.95,-74 L 1415.01,-74.5302 L 1415.17,-75.0372 L 1415.44,-75.4988 L 1415.79,-75.895
 L 1416.23,-76.2084 L 1416.71,-76.4252 L 1417.23,-76.536 L 1417.77,-76.536 L 1418.29,-76.4252 L 1418.77,-76.2084
 L 1419.21,-75.895 L 1419.56,-75.4988 L 1419.83,-75.0372 L 1419.99,-74.5302 L 1420.05,-74 L 1420.05,-64.7024
 L 1420.39,-64.4804 L 1420.79,-64.1563 L 1421.16,-63.7921 L 1421.48,-63.3919 L 1421.76,-62.96 L 1421.99,-62.5011
 L 1422.18,-62.0204 L 1422.31,-61.5229 L 1422.39,-61.0143 L 1422.42,-60.5 L 1422.39,-59.9857 L 1422.31,-59.4771
 L 1422.18,-58.9796 L 1421.99,-58.4989 L 1421.76,-58.04 L 1421.48,-57.6081 L 1421.16,-57.2079 L 1420.79,-56.8437
 L 1420.39,-56.5196 L 1419.96,-56.2392 L 1419.5,-56.0054 L 1419.02,-55.8208 L 1418.52,-55.6875 L 1418.01,-55.607
 L 1417.5,-55.58 z
M 346.368,-20.982 L 345.56,-21.1998 L 259.85,-54.2681 L 258.939,-54.7639 L 258.317,-55.3235 L 257.826,-56
 L 257.486,-56.7639 L 257.312,-57.5819 L 257.312,-58.4181 L 257.486,-59.2361 L 257.826,-60 L 258.317,-60.6765
 L 258.939,-61.2361 L 259.663,-61.6542 L 260.458,-61.9126 L 261.29,-62 L 347,-62 L 348.236,-61.8042
 L 349,-61.4641 L 349.677,-60.9726 L 350.236,-60.3511 L 350.654,-59.627 L 350.913,-58.8316 L 351,-58
 L 351,-24.9317 L 350.862,-23.8899 L 350.561,-23.1097 L 350.104,-22.4091 L 349.512,-21.8189 L 348.81,-21.3646
 L 348.029,-21.0663 L 347.203,-20.9368 z
M 522.618,-20.982 L 521.81,-21.1998 L 436.1,-54.2681 L 435.189,-54.7639 L 434.567,-55.3235 L 434.076,-56
 L 433.736,-56.7639 L 433.562,-57.5819 L 433.562,-58.4181 L 433.736,-59.2361 L 434.076,-60 L 434.567,-60.6765
 L 435.189,-61.2361 L 435.913,-61.6542 L 436.708,-61.9126 L 437.54,-62 L 523.25,-62 L 524.486,-61.8042
 L 525.25,-61.4641 L 525.927,-60.9726 L 526.486,-60.3511 L 526.904,-59.627 L 527.163,-58.8316 L 527.25,-58
 L 527.25,-24.9317 L 527.112,-23.8899 L 526.811,-23.1097 L 526.354,-22.4091 L 525.762,-21.8189 L 525.06,-21.3646
 L 524.279,-21.0663 L 523.453,-20.9368 z
M 1253.22,-21.0663 L 1252.44,-21.3646 L 1251.74,-21.8189 L 1251.15,-22.4091 L 1250.69,-23.1097 L 1250.39,-23.8899
 L 1250.25,-24.9317 L 1250.25,-58 L 1250.34,-58.8316 L 1250.6,-59.627 L 1251.01,-60.3511 L 1251.57,-60.9726
 L 1252.25,-61.4641 L 1253.01,-61.8042 L 1254.25,-62 L 1339.96,-62 L 1340.79,-61.9126 L 1341.59,-61.6542
 L 1342.31,-61.2361 L 1342.93,-60.6765 L 1343.42,-60 L 1343.76,-59.2361 L 1343.94,-58.4181 L 1343.94,-57.5819
 L 1343.76,-56.7639 L 1343.42,-56 L 1342.93,-55.3235 L 1342.31,-54.7639 L 1341.4,-54.2681 L 1255.69,-21.1998
 L 1254.88,-20.982 L 1254.05,-20.9368 z
M 698.868,-20.982 L 698.06,-21.1998 L 612.35,-54.2681 L 611.439,-54.7639 L 610.817,-55.3235 L 610.326,-56
 L 609.986,-56.7639 L 609.812,-57.5819 L 609.812,-58.4181 L 609.986,-59.2361 L 610.326,-60 L 610.817,-60.6765
 L 611.439,-61.2361 L 612.163,-61.6542 L 612.958,-61.9126 L 613.79,-62 L 699.5,-62 L 700.736,-61.8042
 L 701.5,-61.4641 L 702.177,-60.9726 L 702.736,-60.3511 L 703.154,-59.627 L 703.413,-58.8316 L 703.5,-58
 L 703.5,-24.9317 L 703.362,-23.8899 L 703.061,-23.1097 L 702.604,-22.4091 L 702.012,-21.8189 L 701.31,-21.3646
 L 700.529,-21.0663 L 699.703,-20.9368 z
M 170.118,-20.982 L 169.31,-21.1998 L 83.6001,-54.2681 L 82.6888,-54.7639 L 82.0673,-55.3235 L 81.5758,-56
 L 81.2357,-56.7639 L 81.0618,-57.5819 L 81.0618,-58.4181 L 81.2357,-59.2361 L 81.5758,-60 L 82.0673,-60.6765
 L 82.6888,-61.2361 L 83.413,-61.6542 L 84.2083,-61.9126 L 85.0399,-62 L 170.75,-62 L 171.986,-61.8042
 L 172.75,-61.4641 L 173.427,-60.9726 L 173.986,-60.3511 L 174.404,-59.627 L 174.663,-58.8316 L 174.75,-58
 L 174.75,-24.9317 L 174.612,-23.8899 L 174.311,-23.1097 L 173.854,-22.4091 L 173.262,-21.8189 L 172.56,-21.3646
 L 171.779,-21.0663 L 170.953,-20.9368 z
M 724.471,-21.0663 L 723.69,-21.3646 L 722.988,-21.8189 L 722.396,-22.4091 L 721.939,-23.1097 L 721.638,-23.8899
 L 721.5,-24.9317 L 721.5,-58 L 721.587,-58.8316 L 721.846,-59.627 L 722.264,-60.3511 L 722.823,-60.9726
 L 723.5,-61.4641 L 724.264,-61.8042 L 725.5,-62 L 811.21,-62 L 812.042,-61.9126 L 812.837,-61.6542
 L 813.561,-61.2361 L 814.183,-60.6765 L 814.674,-60 L 815.014,-59.2361 L 815.188,-58.4181 L 815.188,-57.5819
 L 815.014,-56.7639 L 814.674,-56 L 814.183,-55.3235 L 813.561,-54.7639 L 812.65,-54.2681 L 726.94,-21.1998
 L 726.132,-20.982 L 725.297,-20.9368 z
M 900.721,-21.0663 L 899.94,-21.3646 L 899.238,-21.8189 L 898.646,-22.4091 L 898.189,-23.1097 L 897.888,-23.8899
 L 897.75,-24.9317 L 897.75,-58 L 897.837,-58.8316 L 898.096,-59.627 L 898.514,-60.3511 L 899.073,-60.9726
 L 899.75,-61.4641 L 900.514,-61.8042 L 901.75,-62 L 987.46,-62 L 988.292,-61.9126 L 989.087,-61.6542
 L 989.811,-61.2361 L 990.433,-60.6765 L 990.924,-60 L 991.264,-59.2361 L 991.438,-58.4181 L 991.438,-57.5819
 L 991.264,-56.7639 L 990.924,-56 L 990.433,-55.3235 L 989.811,-54.7639 L 988.9,-54.2681 L 903.19,-21.1998
 L 902.382,-20.982 L 901.547,-20.9368 z
M 1076.97,-21.0663 L 1076.19,-21.3646 L 1075.49,-21.8189 L 1074.9,-22.4091 L 1074.44,-23.1097 L 1074.14,-23.8899
 L 1074,-24.9317 L 1074,-58 L 1074.09,-58.8316 L 1074.35,-59.627 L 1074.76,-60.3511 L 1075.32,-60.9726
 L 1076,-61.4641 L 1076.76,-61.8042 L 1078,-62 L 1163.71,-62 L 1164.54,-61.9126 L 1165.34,-61.6542
 L 1166.06,-61.2361 L 1166.68,-60.6765 L 1167.17,-60 L 1167.51,-59.2361 L 1167.69,-58.4181 L 1167.69,-57.5819
 L 1167.51,-56.7639 L 1167.17,-56 L 1166.68,-55.3235 L 1166.06,-54.7639 L 1165.15,-54.2681 L 1079.44,-21.1998
 L 1078.63,-20.982 L 1077.8,-20.9368 z
M 196.75,-18 L 195.514,-18.1958 L 194.75,-18.5359 L 194.073,-19.0274 L 193.514,-19.6489 L 193.096,-20.373
 L 192.837,-21.1684 L 192.75,-22 L 192.75,-55.0683 L 192.888,-56.1101 L 193.189,-56.8903 L 193.646,-57.5908
 L 194.238,-58.1811 L 194.94,-58.6354 L 195.721,-58.9337 L 196.547,-59.0631 L 197.382,-59.0179 L 198.19,-58.8001
 L 283.9,-25.7319 L 284.811,-25.2361 L 285.433,-24.6765 L 285.924,-24 L 286.264,-23.2361 L 286.438,-22.4181
 L 286.438,-21.5819 L 286.264,-20.7639 L 285.924,-20 L 285.433,-19.3235 L 284.811,-18.7639 L 284.087,-18.3458
 L 283.292,-18.0874 L 282.46,-18 z
M 373,-18 L 371.764,-18.1958 L 371,-18.5359 L 370.323,-19.0274 L 369.764,-19.6489 L 369.346,-20.373
 L 369.087,-21.1684 L 369,-22 L 369,-55.0683 L 369.138,-56.1101 L 369.439,-56.8903 L 369.896,-57.5908
 L 370.488,-58.1811 L 371.19,-58.6354 L 371.971,-58.9337 L 372.797,-59.0631 L 373.632,-59.0179 L 374.44,-58.8001
 L 460.15,-25.7319 L 461.061,-25.2361 L 461.683,-24.6765 L 462.174,-24 L 462.514,-23.2361 L 462.688,-22.4181
 L 462.688,-21.5819 L 462.514,-20.7639 L 462.174,-20 L 461.683,-19.3235 L 461.061,-18.7639 L 460.337,-18.3458
 L 459.542,-18.0874 L 458.71,-18 z
M 549.25,-18 L 548.014,-18.1958 L 547.25,-18.5359 L 546.573,-19.0274 L 546.014,-19.6489 L 545.596,-20.373
 L 545.337,-21.1684 L 545.25,-22 L 545.25,-55.0683 L 545.388,-56.1101 L 545.689,-56.8903 L 546.146,-57.5908
 L 546.738,-58.1811 L 547.44,-58.6354 L 548.221,-58.9337 L 549.047,-59.0631 L 549.882,-59.0179 L 550.69,-58.8001
 L 636.4,-25.7319 L 637.311,-25.2361 L 637.933,-24.6765 L 638.424,-24 L 638.764,-23.2361 L 638.938,-22.4181
 L 638.938,-21.5819 L 638.764,-20.7639 L 638.424,-20 L 637.933,-19.3235 L 637.311,-18.7639 L 636.587,-18.3458
 L 635.792,-18.0874 L 634.96,-18 z
M 790.04,-18 L 789.208,-18.0874 L 788.413,-18.3458 L 787.689,-18.7639 L 787.067,-19.3235 L 786.576,-20
 L 786.236,-20.7639 L 786.062,-21.5819 L 786.062,-22.4181 L 786.236,-23.2361 L 786.576,-24 L 787.067,-24.6765
 L 787.689,-25.2361 L 788.6,-25.7319 L 874.31,-58.8001 L 875.118,-59.0179 L 875.953,-59.0631 L 876.779,-58.9337
 L 877.56,-58.6354 L 878.262,-58.1811 L 878.854,-57.5908 L 879.311,-56.8903 L 879.612,-56.1101 L 879.75,-55.0683
 L 879.75,-22 L 879.663,-21.1684 L 879.404,-20.373 L 878.986,-19.6489 L 878.427,-19.0274 L 877.75,-18.5359
 L 876.986,-18.1958 L 875.75,-18 z
M 966.29,-18 L 965.458,-18.0874 L 964.663,-18.3458 L 963.939,-18.7639 L 963.317,-19.3235 L 962.826,-20
 L 962.486,-20.7639 L 962.312,-21.5819 L 962.312,-22.4181 L 962.486,-23.2361 L 962.826,-24 L 963.317,-24.6765
 L 963.939,-25.2361 L 964.85,-25.7319 L 1050.56,-58.8001 L 1051.37,-59.0179 L 1052.2,-59.0631 L 1053.03,-58.9337
 L 1053.81,-58.6354 L 1054.51,-58.1811 L 1055.1,-57.5908 L 1055.56,-56.8903 L 1055.86,-56.1101 L 1056,-55.0683
 L 1056,-22 L 1055.91,-21.1684 L 1055.65,-20.373 L 1055.24,-19.6489 L 1054.68,-19.0274 L 1054,-18.5359
 L 1053.24,-18.1958 L 1052,-18 z
M 1142.54,-18 L 1141.71,-18.0874 L 1140.91,-18.3458 L 1140.19,-18.7639 L 1139.57,-19.3235 L 1139.08,-20
 L 1138.74,-20.7639 L 1138.56,-21.5819 L 1138.56,-22.4181 L 1138.74,-23.2361 L 1139.08,-24 L 1139.57,-24.6765
 L 1140.19,-25.2361 L 1141.1,-25.7319 L 1226.81,-58.8001 L 1227.62,-59.0179 L 1228.45,-59.0631 L 1229.28,-58.9337
 L 1230.06,-58.6354 L 1230.76,-58.1811 L 1231.35,-57.5908 L 1231.81,-56.8903 L 1232.11,-56.1101 L 1232.25,-55.0683
 L 1232.25,-22 L 1232.16,-21.1684 L 1231.9,-20.373 L 1231.49,-19.6489 L 1230.93,-19.0274 L 1230.25,-18.5359
 L 1229.49,-18.1958 L 1228.25,-18 z
M 1318.79,-18 L 1317.96,-18.0874 L 1317.16,-18.3458 L 1316.44,-18.7639 L 1315.82,-19.3235 L 1315.33,-20
 L 1314.99,-20.7639 L 1314.81,-21.5819 L 1314.81,-22.4181 L 1314.99,-23.2361 L 1315.33,-24 L 1315.82,-24.6765
 L 1316.44,-25.2361 L 1317.35,-25.7319 L 1401.56,-58.2214 L 1402.37,-58.4392 L 1403.2,-58.4844 L 1404.03,-58.355
 L 1404.81,-58.0567 L 1405.51,-57.6024 L 1406.1,-57.0121 L 1406.56,-56.3116 L 1406.86,-55.5314 L 1407,-54.4895
 L 1407,-22 L 1406.91,-21.1684 L 1406.65,-20.373 L 1406.24,-19.6489 L 1405.68,-19.0274 L 1405,-18.5359
 L 1404.24,-18.1958 L 1403,-18 z
M 22,-18 L 20.7639,-18.1958 L 20,-18.5359 L 19.3235,-19.0274 L 18.7639,-19.6489 L 18.3458,-20.373
 L 18.0874,-21.1684 L 18,-22 L 18,-54.4895 L 18.1381,-55.5314 L 18.4391,-56.3116 L 18.8957,-57.0121
 L 19.488,-57.6024 L 20.1901,-58.0567 L 20.9713,-58.355 L 21.7974,-58.4844 L 22.6324,-58.4392 L 23.4398,-58.2214
 L 107.65,-25.7319 L 108.561,-25.2361 L 109.183,-24.6765 L 109.674,-24 L 110.014,-23.2361 L 110.188,-22.4181
 L 110.188,-21.5819 L 110.014,-20.7639 L 109.674,-20 L 109.183,-19.3235 L 108.561,-18.7639 L 107.837,-18.3458
 L 107.042,-18.0874 L 106.21,-18 z
" stroke="black" fill="lightgray" stroke-width="0.5"/>
</svg>
