<?xml version="1.0" standalone="no"?>
<!DOCTYPE svg PUBLIC "-//W3C//DTD SVG 1.1//EN" "http://www.w3.org/Graphics/SVG/1.1/DTD/svg11.dtd">
<svg width="1371mm" height="80mm" viewBox="0 -80 1371 80" xmlns="http://www.w3.org/2000/svg" version="1.1">
<title>OpenSCAD Model</title>
<path d="
M 1371,-80 L 0,-80 L 0,-0 L 4.95,-0 L 4.95,-6 L 5.00572,-6.53017
 L 5.17046,-7.03717 L 5.437,-7.49884 L 5.79372,-7.895 L 6.22499,-8.20836 L 6.71201,-8.42519 L 7.23344,-8.53603
 L 7.76654,-8.53603 L 8.28798,-8.42519 L 8.77499,-8.20836 L 9.20627,-7.895 L 9.56299,-7.49884 L 9.82953,-7.03717
 L 9.99426,-6.53017 L 10.05,-6 L 10.05,-0 L 198.664,-0 L 198.664,-6 L 198.72,-6.53017
 L 198.885,-7.03717 L 199.151,-7.49884 L 199.508,-7.895 L 199.939,-8.20836 L 200.426,-8.42519 L 200.948,-8.53603
 L 201.481,-8.53603 L 202.002,-8.42519 L 202.489,-8.20836 L 202.921,-7.895 L 203.277,-7.49884 L 203.544,-7.03717
 L 203.709,-6.53017 L 203.764,-6 L 203.764,-0 L 392.379,-0 L 392.379,-6 L 392.434,-6.53017
 L 392.599,-7.03717 L 392.866,-7.49884 L 393.222,-7.895 L 393.654,-8.20836 L 394.141,-8.42519 L 394.662,-8.53603
 L 395.195,-8.53603 L 395.717,-8.42519 L 396.204,-8.20836 L 396.635,-7.895 L 396.992,-7.49884 L 397.258,-7.03717
 L 397.423,-6.53017 L 397.479,-6 L 397.479,-0 L 586.093,-0 L 586.093,-6 L 586.149,-6.53017
 L 586.313,-7.03717 L 586.58,-7.49884 L 586.937,-7.895 L 587.368,-8.20836 L 587.855,-8.42519 L 588.376,-8.53603
 L 588.909,-8.53603 L 589.431,-8.42519 L 589.918,-8.20836 L 590.349,-7.895 L 590.706,-7.49884 L 590.972,-7.03717
 L 591.137,-6.53017 L 591.193,-6 L 591.193,-0 L 779.807,-0 L 779.807,-6 L 779.863,-6.53017
 L 780.028,-7.03717 L 780.294,-7.49884 L 780.651,-7.895 L 781.082,-8.20836 L 781.569,-8.42519 L 782.091,-8.53603
 L 782.624,-8.53603 L 783.145,-8.42519 L 783.632,-8.20836 L 784.063,-7.895 L 784.42,-7.49884 L 784.687,-7.03717
 L 784.851,-6.53017 L 784.907,-6 L 784.907,-0 L 973.521,-0 L 973.521,-6 L 973.577,-6.53017
 L 973.742,-7.03717 L 974.008,-7.49884 L 974.365,-7.895 L 974.796,-8.20836 L 975.283,-8.42519 L 975.805,-8.53603
 L 976.338,-8.53603 L 976.859,-8.42519 L 977.346,-8.20836 L 977.778,-7.895 L 978.134,-7.49884 L 978.401,-7.03717
 L 978.566,-6.53017 L 978.621,-6 L 978.621,-0 L 1167.24,-0 L 1167.24,-6 L 1167.29,-6.53017
 L 1167.46,-7.03717 L 1167.72,-7.49884 L 1168.08,-7.895 L 1168.51,-8.20836 L 1169,-8.42519 L 1169.52,-8.53603
 L 1170.05,-8.53603 L 1170.57,-8.42519 L 1171.06,-8.20836 L 1171.49,-7.895 L 1171.85,-7.49884 L 1172.12,-7.03717
 L 1172.28,-6.53017 L 1172.34,-6 L 1172.34,-0 L 1360.95,-0 L 1360.95,-6 L 1361.01,-6.53017
 L 1361.17,-7.03717 L 1361.44,-7.49884 L 1361.79,-7.895 L 1362.22,-8.20836 L 1362.71,-8.42519 L 1363.23,-8.53603
 L 1363.77,-8.53603 L 1364.29,-8.42519 L 1364.77,-8.20836 L 1365.21,-7.895 L 1365.56,-7.49884 L 1365.83,-7.03717
 L 1365.99,-6.53017 L 1366.05,-6 L 1366.05,-0 L 1371,-0 z
M 6.98573,-55.607 L 6.47708,-55.6875 L 5.97964,-55.8208 L 5.49887,-56.0054 L 5.04001,-56.2392 L 4.60811,-56.5196
 L 4.20789,-56.8437 L 3.84373,-57.2079 L 3.51964,-57.6081 L 3.23917,-58.04 L 3.00537,-58.4989 L 2.82082,-58.9796
 L 2.68752,-59.4771 L 2.60696,-59.9857 L 2.58,-60.5 L 2.60696,-61.0143 L 2.68752,-61.5229 L 2.82082,-62.0204
 L 3.00537,-62.5011 L 3.23917,-62.96 L 3.51964,-63.3919 L 3.84373,-63.7921 L 4.20789,-64.1563 L 4.60811,-64.4804
 L 4.95001,-64.7024 L 4.95001,-74 L 5.00574,-74.5302 L 5.17047,-75.0372 L 5.43701,-75.4988 L 5.79373,-75.895
 L 6.22501,-76.2084 L 6.71202,-76.4252 L 7.23346,-76.536 L 7.76654,-76.536 L 8.28798,-76.4252 L 8.77499,-76.2084
 L 9.20627,-75.895 L 9.56299,-75.4988 L 9.82953,-75.0372 L 9.99426,-74.5302 L 10.05,-74 L 10.05,-64.7024
 L 10.3919,-64.4804 L 10.7921,-64.1563 L 11.1563,-63.7921 L 11.4804,-63.3919 L 11.7608,-62.96 L 11.9946,-62.5011
 L 12.1792,-62.0204 L 12.3125,-61.5229 L 12.393,-61.0143 L 12.42,-60.5 L 12.393,-59.9857 L 12.3125,-59.4771
 L 12.1792,-58.9796 L 11.9946,-58.4989 L 11.7608,-58.04 L 11.4804,-57.6081 L 11.1563,-57.2079 L 10.7921,-56.8437
 L 10.3919,-56.5196 L 9.95999,-56.2392 L 9.50113,-56.0054 L 9.02036,-55.8208 L 8.52292,-55.6875 L 8.01427,-55.607
 L 7.5,-55.58 z
M 200.7,-55.607 L 200.191,-55.6875 L 199.694,-55.8208 L 199.213,-56.0054 L 198.754,-56.2392 L 198.322,-56.5196
 L 197.922,-56.8437 L 197.558,-57.2079 L 197.234,-57.6081 L 196.953,-58.04 L 196.72,-58.4989 L 196.535,-58.9796
 L 196.402,-59.4771 L 196.321,-59.9857 L 196.294,-60.5 L 196.321,-61.0143 L 196.402,-61.5229 L 196.535,-62.0204
 L 196.72,-62.5011 L 196.953,-62.96 L 197.234,-63.3919 L 197.558,-63.7921 L 197.922,-64.1563 L 198.322,-64.4804
 L 198.664,-64.7024 L 198.664,-74 L 198.72,-74.5302 L 198.885,-75.0372 L 199.151,-75.4988 L 199.508,-75.895
 L 199.939,-76.2084 L 200.426,-76.4252 L 200.948,-76.536 L 201.481,-76.536 L 202.002,-76.4252 L 202.489,-76.2084
 L 202.921,-75.895 L 203.277,-75.4988 L 203.544,-75.0372 L 203.709,-74.5302 L 203.764,-74 L 203.764,-64.7024
 L 204.106,-64.4804 L 204.506,-64.1563 L 204.871,-63.7921 L 205.195,-63.3919 L 205.475,-62.96 L 205.709,-62.5011
 L 205.893,-62.0204 L 206.027,-61.5229 L 206.107,-61.0143 L 206.134,-60.5 L 206.107,-59.9857 L 206.027,-59.4771
 L 205.893,-58.9796 L 205.709,-58.4989 L 205.475,-58.04 L 205.195,-57.6081 L 204.871,-57.2079 L 204.506,-56.8437
 L 204.106,-56.5196 L 203.674,-56.2392 L 203.215,-56.0054 L 202.735,-55.8208 L 202.237,-55.6875 L 201.729,-55.607
 L 201.214,-55.58 z
M 394.414,-55.607 L 393.906,-55.6875 L 393.408,-55.8208 L 392.927,-56.0054 L 392.469,-56.2392 L 392.037,-56.5196
 L 391.636,-56.8437 L 391.272,-57.2079 L 390.948,-57.6081 L 390.668,-58.04 L 390.434,-58.4989 L 390.249,-58.9796
 L 390.116,-59.4771 L 390.036,-59.9857 L 390.009,-60.5 L 390.036,-61.0143 L 390.116,-61.5229 L 390.249,-62.0204
 L 390.434,-62.5011 L 390.668,-62.96 L 390.948,-63.3919 L 391.272,-63.7921 L 391.636,-64.1563 L 392.037,-64.4804
 L 392.379,-64.7024 L 392.379,-74 L 392.434,-74.5302 L 392.599,-75.0372 L 392.866,-75.4988 L 393.222,-75.895
 L 393.654,-76.2084 L 394.141,-76.4252 L 394.662,-76.536 L 395.195,-76.536 L 395.717,-76.4252 L 396.204,-76.2084
 L 396.635,-75.895 L 396.992,-75.4988 L 397.258,-75.0372 L 397.423,-74.5302 L 397.479,-74 L 397.479,-64.7024
 L 397.82,-64.4804 L 398.221,-64.1563 L 398.585,-63.7921 L 398.909,-63.3919 L 399.189,-62.96 L 399.423,-62.5011
 L 399.608,-62.0204 L 399.741,-61.5229 L 399.822,-61.0143 L 399.849,-60.5 L 399.822,-59.9857 L 399.741,-59.4771
 L 399.608,-58.9796 L 399.423,-58.4989 L 399.189,-58.04 L 398.909,-57.6081 L 398.585,-57.2079 L 398.221,-56.8437
 L 397.82,-56.5196 L 397.389,-56.2392 L 396.93,-56.0054 L 396.449,-55.8208 L 395.951,-55.6875 L 395.443,-55.607
 L 394.929,-55.58 z
M 588.129,-55.607 L 587.62,-55.6875 L 587.122,-55.8208 L 586.642,-56.0054 L 586.183,-56.2392 L 585.751,-56.5196
 L 585.351,-56.8437 L 584.987,-57.2079 L 584.662,-57.6081 L 584.382,-58.04 L 584.148,-58.4989 L 583.964,-58.9796
 L 583.83,-59.4771 L 583.75,-59.9857 L 583.723,-60.5 L 583.75,-61.0143 L 583.83,-61.5229 L 583.964,-62.0204
 L 584.148,-62.5011 L 584.382,-62.96 L 584.662,-63.3919 L 584.987,-63.7921 L 585.351,-64.1563 L 585.751,-64.4804
 L 586.093,-64.7024 L 586.093,-74 L 586.149,-74.5302 L 586.313,-75.0372 L 586.58,-75.4988 L 586.937,-75.895
 L 587.368,-76.2084 L 587.855,-76.4252 L 588.376,-76.536 L 588.909,-76.536 L 589.431,-76.4252 L 589.918,-76.2084
 L 590.349,-75.895 L 590.706,-75.4988 L 590.972,-75.0372 L 591.137,-74.5302 L 591.193,-74 L 591.193,-64.7024
 L 591.535,-64.4804 L 591.935,-64.1563 L 592.299,-63.7921 L 592.623,-63.3919 L 592.904,-62.96 L 593.137,-62.5011
 L 593.322,-62.0204 L 593.455,-61.5229 L 593.536,-61.0143 L 593.563,-60.5 L 593.536,-59.9857 L 593.455,-59.4771
 L 593.322,-58.9796 L 593.137,-58.4989 L 592.904,-58.04 L 592.623,-57.6081 L 592.299,-57.2079 L 591.935,-56.8437
 L 591.535,-56.5196 L 591.103,-56.2392 L 590.644,-56.0054 L 590.163,-55.8208 L 589.666,-55.6875 L 589.157,-55.607
 L 588.643,-55.58 z
M 781.843,-55.607 L 781.334,-55.6875 L 780.837,-55.8208 L 780.356,-56.0054 L 779.897,-56.2392 L 779.465,-56.5196
 L 779.065,-56.8437 L 778.701,-57.2079 L 778.377,-57.6081 L 778.096,-58.04 L 777.863,-58.4989 L 777.678,-58.9796
 L 777.545,-59.4771 L 777.464,-59.9857 L 777.437,-60.5 L 777.464,-61.0143 L 777.545,-61.5229 L 777.678,-62.0204
 L 777.863,-62.5011 L 778.096,-62.96 L 778.377,-63.3919 L 778.701,-63.7921 L 779.065,-64.1563 L 779.465,-64.4804
 L 779.807,-64.7024 L 779.807,-74 L 779.863,-74.5302 L 780.028,-75.0372 L 780.294,-75.4988 L 780.651,-75.895
 L 781.082,-76.2084 L 781.569,-76.4252 L 782.091,-76.536 L 782.624,-76.536 L 783.145,-76.4252 L 783.632,-76.2084
 L 784.063,-75.895 L 784.42,-75.4988 L 784.687,-75.0372 L 784.851,-74.5302 L 784.907,-74 L 784.907,-64.7024
 L 785.249,-64.4804 L 785.649,-64.1563 L 786.013,-63.7921 L 786.337,-63.3919 L 786.618,-62.96 L 786.852,-62.5011
 L 787.036,-62.0204 L 787.17,-61.5229 L 787.25,-61.0143 L 787.277,-60.5 L 787.25,-59.9857 L 787.17,-59.4771
 L 787.036,-58.9796 L 786.852,-58.4989 L 786.618,-58.04 L 786.337,-57.6081 L 786.013,-57.2079 L 785.649,-56.8437
 L 785.249,-56.5196 L 784.817,-56.2392 L 784.358,-56.0054 L 783.877,-55.8208 L 783.38,-55.6875 L 782.871,-55.607
 L 782.357,-55.58 z
M 975.557,-55.607 L 975.049,-55.6875 L 974.551,-55.8208 L 974.07,-56.0054 L 973.611,-56.2392 L 973.18,-56.5196
 L 972.779,-56.8437 L 972.415,-57.2079 L 972.091,-57.6081 L 971.811,-58.04 L 971.577,-58.4989 L 971.392,-58.9796
 L 971.259,-59.4771 L 971.178,-59.9857 L 971.151,-60.5 L 971.178,-61.0143 L 971.259,-61.5229 L 971.392,-62.0204
 L 971.577,-62.5011 L 971.811,-62.96 L 972.091,-63.3919 L 972.415,-63.7921 L 972.779,-64.1563 L 973.18,-64.4804
 L 973.521,-64.7024 L 973.521,-74 L 973.577,-74.5302 L 973.742,-75.0372 L 974.008,-75.4988 L 974.365,-75.895
 L 974.796,-76.2084 L 975.283,-76.4252 L 975.805,-76.536 L 976.338,-76.536 L 976.859,-76.4252 L 977.346,-76.2084
 L 977.778,-75.895 L 978.134,-75.4988 L 978.401,-75.0372 L 978.566,-74.5302 L 978.621,-74 L 978.621,-64.7024
 L 978.963,-64.4804 L 979.364,-64.1563 L 979.728,-63.7921 L 980.052,-63.3919 L 980.332,-62.96 L 980.566,-62.5011
 L 980.751,-62.0204 L 980.884,-61.5229 L 980.964,-61.0143 L 980.991,-60.5 L 980.964,-59.9857 L 980.884,-59.4771
 L 980.751,-58.9796 L 980.566,-58.4989 L 980.332,-58.04 L 980.052,-57.6081 L 979.728,-57.2079 L 979.364,-56.8437
 L 978.963,-56.5196 L 978.531,-56.2392 L 978.073,-56.0054 L 977.592,-55.8208 L 977.094,-55.6875 L 976.586,-55.607
 L 976.071,-55.58 z
M 1169.27,-55.607 L 1168.76,-55.6875 L 1168.27,-55.8208 L 1167.78,-56.0054 L 1167.33,-56.2392 L 1166.89,-56.5196
 L 1166.49,-56.8437 L 1166.13,-57.2079 L 1165.81,-57.6081 L 1165.52,-58.04 L 1165.29,-58.4989 L 1165.11,-58.9796
 L 1164.97,-59.4771 L 1164.89,-59.9857 L 1164.87,-60.5 L 1164.89,-61.0143 L 1164.97,-61.5229 L 1165.11,-62.0204
 L 1165.29,-62.5011 L 1165.52,-62.96 L 1165.81,-63.3919 L 1166.13,-63.7921 L 1166.49,-64.1563 L 1166.89,-64.4804
 L 1167.24,-64.7024 L 1167.24,-74 L 1167.29,-74.5302 L 1167.46,-75.0372 L 1167.72,-75.4988 L 1168.08,-75.895
 L 1168.51,-76.2084 L 1169,-76.4252 L 1169.52,-76.536 L 1170.05,-76.536 L 1170.57,-76.4252 L 1171.06,-76.2084
 L 1171.49,-75.895 L 1171.85,-75.4988 L 1172.12,-75.0372 L 1172.28,-74.5302 L 1172.34,-74 L 1172.34,-64.7024
 L 1172.68,-64.4804 L 1173.08,-64.1563 L 1173.44,-63.7921 L 1173.77,-63.3919 L 1174.05,-62.96 L 1174.28,-62.5011
 L 1174.46,-62.0204 L 1174.6,-61.5229 L 1174.68,-61.0143 L 1174.71,-60.5 L 1174.68,-59.9857 L 1174.6,-59.4771
 L 1174.46,-58.9796 L 1174.28,-58.4989 L 1174.05,-58.04 L 1173.77,-57.6081 L 1173.44,-57.2079 L 1173.08,-56.8437
 L 1172.68,-56.5196 L 1172.25,-56.2392 L 1171.79,-56.0054 L 1171.31,-55.8208 L 1170.81,-55.6875 L 1170.3,-55.607
 L 1169.79,-55.58 z
M 1362.99,-55.607 L 1362.48,-55.6875 L 1361.98,-55.8208 L 1361.5,-56.0054 L 1361.04,-56.2392 L 1360.61,-56.5196
 L 1360.21,-56.8437 L 1359.84,-57.2079 L 1359.52,-57.6081 L 1359.24,-58.04 L 1359.01,-58.4989 L 1358.82,-58.9796
 L 1358.69,-59.4771 L 1358.61,-59.9857 L 1358.58,-60.5 L 1358.61,-61.0143 L 1358.69,-61.5229 L 1358.82,-62.0204
 L 1359.01,-62.5011 L 1359.24,-62.96 L 1359.52,-63.3919 L 1359.84,-63.7921 L 1360.21,-64.1563 L 1360.61,-64.4804
 L 1360.95,-64.7024 L 1360.95,-74 L 1361.01,-74.5302 L 1361.17,-75.0372 L 1361.44,-75.4988 L 1361.79,-75.895
 L 1362.23,-76.2084 L 1362.71,-76.4252 L 1363.23,-76.536 L 1363.77,-76.536 L 1364.29,-76.4252 L 1364.77,-76.2084
 L 1365.21,-75.895 L 1365.56,-75.4988 L 1365.83,-75.0372 L 1365.99,-74.5302 L 1366.05,-74 L 1366.05,-64.7024
 L 1366.39,-64.4804 L 1366.79,-64.1563 L 1367.16,-63.7921 L 1367.48,-63.3919 L 1367.76,-62.96 L 1367.99,-62.5011
 L 1368.18,-62.0204 L 1368.31,-61.5229 L 1368.39,-61.0143 L 1368.42,-60.5 L 1368.39,-59.9857 L 1368.31,-59.4771
 L 1368.18,-58.9796 L 1367.99,-58.4989 L 1367.76,-58.04 L 1367.48,-57.6081 L 1367.16,-57.2079 L 1366.79,-56.8437
 L 1366.39,-56.5196 L 1365.96,-56.2392 L 1365.5,-56.0054 L 1365.02,-55.8208 L 1364.52,-55.6875 L 1364.01,-55.607
 L 1363.5,-55.58 z
M 794.211,-20.5052 L 793.439,-20.8273 L 792.751,-21.3028 L 792.177,-21.911 L 791.742,-22.6252 L 791.465,-23.4142
 L 791.357,-24.3373 L 791.357,-58 L 791.445,-58.8316 L 791.703,-59.627 L 792.121,-60.3511 L 792.681,-60.9726
 L 793.357,-61.4641 L 794.121,-61.8042 L 795.357,-62 L 891.253,-62 L 892.085,-61.9126 L 892.88,-61.6542
 L 893.604,-61.2361 L 894.226,-60.6765 L 894.717,-60 L 895.058,-59.2361 L 895.231,-58.4181 L 895.231,-57.5819
 L 895.058,-56.7639 L 894.717,-56 L 894.226,-55.3235 L 893.604,-54.7639 L 892.578,-54.2258 L 796.682,-20.5631
 L 795.868,-20.3701 L 795.032,-20.3505 z
M 684.989,-47.6876 L 684.175,-47.8806 L 666.099,-54.2258 L 665.073,-54.7639 L 664.452,-55.3235 L 663.96,-56
 L 663.62,-56.7639 L 663.446,-57.5819 L 663.446,-58.4181 L 663.62,-59.2361 L 663.96,-60 L 664.452,-60.6765
 L 665.073,-61.2361 L 665.797,-61.6542 L 666.593,-61.9126 L 667.424,-62 L 703.576,-62 L 704.722,-61.8322
 L 705.494,-61.51 L 706.182,-61.0345 L 706.756,-60.4263 L 707.191,-59.7121 L 707.468,-58.9231 L 707.575,-58.0937
 L 707.507,-57.2603 L 707.267,-56.4591 L 706.866,-55.7253 L 706.321,-55.091 L 705.656,-54.5837 L 704.901,-54.2258
 L 686.825,-47.8806 L 685.825,-47.668 z
M 575.132,-20.3701 L 574.318,-20.5631 L 478.422,-54.2258 L 477.395,-54.7639 L 476.774,-55.3235 L 476.283,-56
 L 475.942,-56.7639 L 475.769,-57.5819 L 475.769,-58.4181 L 475.942,-59.2361 L 476.283,-60 L 476.774,-60.6765
 L 477.395,-61.2361 L 478.12,-61.6542 L 478.915,-61.9126 L 479.747,-62 L 575.643,-62 L 576.879,-61.8042
 L 577.643,-61.4641 L 578.319,-60.9726 L 578.879,-60.3511 L 579.297,-59.627 L 579.555,-58.8316 L 579.643,-58
 L 579.643,-24.3373 L 579.535,-23.4142 L 579.258,-22.6252 L 578.823,-21.911 L 578.249,-21.3028 L 577.561,-20.8273
 L 576.789,-20.5052 L 575.968,-20.3505 z
M 381.417,-20.3701 L 380.604,-20.5631 L 284.707,-54.2258 L 283.681,-54.7639 L 283.06,-55.3235 L 282.568,-56
 L 282.228,-56.7639 L 282.054,-57.5819 L 282.054,-58.4181 L 282.228,-59.2361 L 282.568,-60 L 283.06,-60.6765
 L 283.681,-61.2361 L 284.405,-61.6542 L 285.201,-61.9126 L 286.032,-62 L 381.929,-62 L 383.165,-61.8042
 L 383.929,-61.4641 L 384.605,-60.9726 L 385.165,-60.3511 L 385.583,-59.627 L 385.841,-58.8316 L 385.929,-58
 L 385.929,-24.3373 L 385.821,-23.4142 L 385.544,-22.6252 L 385.109,-21.911 L 384.535,-21.3028 L 383.847,-20.8273
 L 383.075,-20.5052 L 382.253,-20.3505 z
M 1181.64,-20.5052 L 1180.87,-20.8273 L 1180.18,-21.3028 L 1179.61,-21.911 L 1179.17,-22.6252 L 1178.89,-23.4142
 L 1178.79,-24.3373 L 1178.79,-58 L 1178.87,-58.8316 L 1179.13,-59.627 L 1179.55,-60.3511 L 1180.11,-60.9726
 L 1180.79,-61.4641 L 1181.55,-61.8042 L 1182.79,-62 L 1278.68,-62 L 1279.51,-61.9126 L 1280.31,-61.6542
 L 1281.03,-61.2361 L 1281.65,-60.6765 L 1282.15,-60 L 1282.49,-59.2361 L 1282.66,-58.4181 L 1282.66,-57.5819
 L 1282.49,-56.7639 L 1282.15,-56 L 1281.65,-55.3235 L 1281.03,-54.7639 L 1280.01,-54.2258 L 1184.11,-20.5631
 L 1183.3,-20.3701 L 1182.46,-20.3505 z
M 187.703,-20.3701 L 186.889,-20.5631 L 90.9932,-54.2258 L 89.9669,-54.7639 L 89.3455,-55.3235 L 88.854,-56
 L 88.5138,-56.7639 L 88.34,-57.5819 L 88.34,-58.4181 L 88.5138,-59.2361 L 88.854,-60 L 89.3455,-60.6765
 L 89.9669,-61.2361 L 90.6911,-61.6542 L 91.4864,-61.9126 L 92.3181,-62 L 188.214,-62 L 189.45,-61.8042
 L 190.214,-61.4641 L 190.891,-60.9726 L 191.45,-60.3511 L 191.868,-59.627 L 192.127,-58.8316 L 192.214,-58
 L 192.214,-24.3373 L 192.106,-23.4142 L 191.829,-22.6252 L 191.394,-21.911 L 190.82,-21.3028 L 190.133,-20.8273
 L 189.361,-20.5052 L 188.539,-20.3505 z
M 987.925,-20.5052 L 987.153,-20.8273 L 986.465,-21.3028 L 985.891,-21.911 L 985.456,-22.6252 L 985.179,-23.4142
 L 985.071,-24.3373 L 985.071,-58 L 985.159,-58.8316 L 985.417,-59.627 L 985.835,-60.3511 L 986.395,-60.9726
 L 987.071,-61.4641 L 987.835,-61.8042 L 989.071,-62 L 1084.97,-62 L 1085.8,-61.9126 L 1086.59,-61.6542
 L 1087.32,-61.2361 L 1087.94,-60.6765 L 1088.43,-60 L 1088.77,-59.2361 L 1088.95,-58.4181 L 1088.95,-57.5819
 L 1088.77,-56.7639 L 1088.43,-56 L 1087.94,-55.3235 L 1087.32,-54.7639 L 1086.29,-54.2258 L 990.396,-20.5631
 L 989.583,-20.3701 L 988.747,-20.3505 z
M 601.225,-18.2402 L 600.407,-18.414 L 599.643,-18.7542 L 598.966,-19.2457 L 598.407,-19.8671 L 597.989,-20.5913
 L 597.73,-21.3866 L 597.643,-22.2183 L 597.643,-57.7817 L 597.751,-58.7048 L 598.028,-59.4939 L 598.463,-60.2081
 L 599.037,-60.8162 L 599.725,-61.2917 L 600.496,-61.6139 L 601.318,-61.7685 L 602.154,-61.7489 L 602.968,-61.556
 L 653.623,-43.7742 L 654.217,-43.51 L 654.905,-43.0345 L 655.478,-42.4263 L 655.913,-41.7121 L 656.19,-40.9231
 L 656.297,-40.0937 L 656.229,-39.2603 L 655.99,-38.4591 L 655.589,-37.7253 L 655.044,-37.091 L 654.379,-36.5837
 L 653.623,-36.2258 L 602.968,-18.444 L 602.061,-18.2402 z
M 768.846,-18.2511 L 768.032,-18.444 L 717.377,-36.2258 L 716.783,-36.49 L 716.095,-36.9655 L 715.521,-37.5737
 L 715.087,-38.2879 L 714.81,-39.0769 L 714.703,-39.9063 L 714.771,-40.7397 L 715.01,-41.5409 L 715.411,-42.2747
 L 715.956,-42.909 L 716.621,-43.4163 L 717.377,-43.7742 L 768.032,-61.556 L 768.939,-61.7598 L 769.775,-61.7598
 L 770.593,-61.586 L 771.357,-61.2458 L 772.034,-60.7543 L 772.593,-60.1329 L 773.011,-59.4087 L 773.27,-58.6134
 L 773.357,-57.7817 L 773.357,-22.2183 L 773.249,-21.2952 L 772.972,-20.5061 L 772.537,-19.7919 L 771.963,-19.1838
 L 771.275,-18.7083 L 770.504,-18.3861 L 769.682,-18.2315 z
M 214.214,-18 L 212.978,-18.1958 L 212.214,-18.5359 L 211.538,-19.0274 L 210.978,-19.6489 L 210.56,-20.373
 L 210.302,-21.1684 L 210.214,-22 L 210.214,-55.6627 L 210.322,-56.5858 L 210.599,-57.3748 L 211.034,-58.089
 L 211.608,-58.6972 L 212.296,-59.1727 L 213.068,-59.4948 L 213.889,-59.6495 L 214.725,-59.6299 L 215.539,-59.4369
 L 311.435,-25.7742 L 312.462,-25.2361 L 313.083,-24.6765 L 313.575,-24 L 313.915,-23.2361 L 314.089,-22.4181
 L 314.089,-21.5819 L 313.915,-20.7639 L 313.575,-20 L 313.083,-19.3235 L 312.462,-18.7639 L 311.737,-18.3458
 L 310.942,-18.0874 L 310.11,-18 z
M 407.929,-18 L 406.692,-18.1958 L 405.929,-18.5359 L 405.252,-19.0274 L 404.692,-19.6489 L 404.274,-20.373
 L 404.016,-21.1684 L 403.929,-22 L 403.929,-55.6627 L 404.037,-56.5858 L 404.314,-57.3748 L 404.748,-58.089
 L 405.322,-58.6972 L 406.01,-59.1727 L 406.782,-59.4948 L 407.604,-59.6495 L 408.44,-59.6299 L 409.253,-59.4369
 L 505.15,-25.7742 L 506.176,-25.2361 L 506.797,-24.6765 L 507.289,-24 L 507.629,-23.2361 L 507.803,-22.4181
 L 507.803,-21.5819 L 507.629,-20.7639 L 507.289,-20 L 506.797,-19.3235 L 506.176,-18.7639 L 505.452,-18.3458
 L 504.656,-18.0874 L 503.825,-18 z
M 867.175,-18 L 866.344,-18.0874 L 865.548,-18.3458 L 864.824,-18.7639 L 864.203,-19.3235 L 863.711,-20
 L 863.371,-20.7639 L 863.197,-21.5819 L 863.197,-22.4181 L 863.371,-23.2361 L 863.711,-24 L 864.203,-24.6765
 L 864.824,-25.2361 L 865.85,-25.7742 L 961.747,-59.4369 L 962.56,-59.6299 L 963.396,-59.6495 L 964.218,-59.4948
 L 964.99,-59.1727 L 965.678,-58.6972 L 966.252,-58.089 L 966.686,-57.3748 L 966.963,-56.5858 L 967.071,-55.6627
 L 967.071,-22 L 966.984,-21.1684 L 966.726,-20.373 L 966.307,-19.6489 L 965.748,-19.0274 L 965.071,-18.5359
 L 964.307,-18.1958 L 963.071,-18 z
M 1060.89,-18 L 1060.06,-18.0874 L 1059.26,-18.3458 L 1058.54,-18.7639 L 1057.92,-19.3235 L 1057.43,-20
 L 1057.09,-20.7639 L 1056.91,-21.5819 L 1056.91,-22.4181 L 1057.09,-23.2361 L 1057.43,-24 L 1057.92,-24.6765
 L 1058.54,-25.2361 L 1059.56,-25.7742 L 1155.46,-59.4369 L 1156.27,-59.6299 L 1157.11,-59.6495 L 1157.93,-59.4948
 L 1158.7,-59.1727 L 1159.39,-58.6972 L 1159.97,-58.089 L 1160.4,-57.3748 L 1160.68,-56.5858 L 1160.79,-55.6627
 L 1160.79,-22 L 1160.7,-21.1684 L 1160.44,-20.373 L 1160.02,-19.6489 L 1159.46,-19.0274 L 1158.79,-18.5359
 L 1158.02,-18.1958 L 1156.79,-18 z
M 22,-18 L 20.7639,-18.1958 L 20,-18.5359 L 19.3235,-19.0274 L 18.7639,-19.6489 L 18.3458,-20.373
 L 18.0874,-21.1684 L 18,-22 L 18,-55.1361 L 18.108,-56.0592 L 18.3849,-56.8483 L 18.8199,-57.5625
 L 19.3939,-58.1706 L 20.0817,-58.6461 L 20.8534,-58.9683 L 21.6752,-59.1229 L 22.5112,-59.1033 L 23.3249,-58.9103
 L 117.721,-25.7742 L 118.747,-25.2361 L 119.369,-24.6765 L 119.86,-24 L 120.2,-23.2361 L 120.374,-22.4181
 L 120.374,-21.5819 L 120.2,-20.7639 L 119.86,-20 L 119.369,-19.3235 L 118.747,-18.7639 L 118.023,-18.3458
 L 117.228,-18.0874 L 116.396,-18 z
M 1254.6,-18 L 1253.77,-18.0874 L 1252.98,-18.3458 L 1252.25,-18.7639 L 1251.63,-19.3235 L 1251.14,-20
 L 1250.8,-20.7639 L 1250.63,-21.5819 L 1250.63,-22.4181 L 1250.8,-23.2361 L 1251.14,-24 L 1251.63,-24.6765
 L 1252.25,-25.2361 L 1253.28,-25.7742 L 1347.68,-58.9103 L 1348.49,-59.1033 L 1349.32,-59.1229 L 1350.15,-58.9683
 L 1350.92,-58.6461 L 1351.61,-58.1706 L 1352.18,-57.5625 L 1352.62,-56.8483 L 1352.89,-56.0592 L 1353,-55.1361
 L 1353,-22 L 1352.91,-21.1684 L 1352.65,-20.373 L 1352.24,-19.6489 L 1351.68,-19.0274 L 1351,-18.5359
 L 1350.24,-18.1958 L 1349,-18 z
M 667.424,-18 L 666.278,-18.1678 L 665.506,-18.49 L 664.818,-18.9655 L 664.244,-19.5737 L 663.809,-20.2879
 L 663.532,-21.0769 L 663.425,-21.9063 L 663.493,-22.7397 L 663.733,-23.5409 L 664.134,-24.2747 L 664.679,-24.909
 L 665.344,-25.4163 L 666.099,-25.7742 L 684.175,-32.1194 L 685.175,-32.332 L 686.011,-32.3124 L 686.825,-32.1194
 L 704.901,-25.7742 L 705.927,-25.2361 L 706.548,-24.6765 L 707.04,-24 L 707.38,-23.2361 L 707.554,-22.4181
 L 707.554,-21.5819 L 707.38,-20.7639 L 707.04,-20 L 706.548,-19.3235 L 705.927,-18.7639 L 705.203,-18.3458
 L 704.407,-18.0874 L 703.576,-18 z
" stroke="black" fill="lightgray" stroke-width="0.5"/>
</svg>
