<?xml version="1.0" standalone="no"?>
<!DOCTYPE svg PUBLIC "-//W3C//DTD SVG 1.1//EN" "http://www.w3.org/Graphics/SVG/1.1/DTD/svg11.dtd">
<svg width="1488mm" height="80mm" viewBox="0 -80 1488 80" xmlns="http://www.w3.org/2000/svg" version="1.1">
<title>OpenSCAD Model</title>
<path d="
M 1488,-80 L 0,-80 L 0,-0 L 4.95,-0 L 4.95,-6 L 5.00572,-6.53017
 L 5.17046,-7.03717 L 5.437,-7.49884 L 5.79372,-7.895 L 6.22499,-8.20836 L 6.71201,-8.42519 L 7.23344,-8.53603
 L 7.76654,-8.53603 L 8.28798,-8.42519 L 8.77499,-8.20836 L 9.20627,-7.895 L 9.56299,-7.49884 L 9.82953,-7.03717
 L 9.99426,-6.53017 L 10.05,-6 L 10.05,-0 L 189.075,-0 L 189.075,-6 L 189.131,-6.53017
 L 189.295,-7.03717 L 189.562,-7.49884 L 189.919,-7.895 L 190.35,-8.20836 L 190.837,-8.42519 L 191.358,-8.53603
 L 191.892,-8.53603 L 192.413,-8.42519 L 192.9,-8.20836 L 193.331,-7.895 L 193.688,-7.49884 L 193.955,-7.03717
 L 194.119,-6.53017 L 194.175,-6 L 194.175,-0 L 373.2,-0 L 373.2,-6 L 373.256,-6.53017
 L 373.42,-7.03717 L 373.687,-7.49884 L 374.044,-7.895 L 374.475,-8.20836 L 374.962,-8.42519 L 375.483,-8.53603
 L 376.017,-8.53603 L 376.538,-8.42519 L 377.025,-8.20836 L 377.456,-7.895 L 377.813,-7.49884 L 378.08,-7.03717
 L 378.244,-6.53017 L 378.3,-6 L 378.3,-0 L 557.325,-0 L 557.325,-6 L 557.381,-6.53017
 L 557.545,-7.03717 L 557.812,-7.49884 L 558.169,-7.895 L 558.6,-8.20836 L 559.087,-8.42519 L 559.608,-8.53603
 L 560.142,-8.53603 L 560.663,-8.42519 L 561.15,-8.20836 L 561.581,-7.895 L 561.938,-7.49884 L 562.205,-7.03717
 L 562.369,-6.53017 L 562.425,-6 L 562.425,-0 L 741.45,-0 L 741.45,-6 L 741.506,-6.53017
 L 741.67,-7.03717 L 741.937,-7.49884 L 742.294,-7.895 L 742.725,-8.20836 L 743.212,-8.42519 L 743.733,-8.53603
 L 744.267,-8.53603 L 744.788,-8.42519 L 745.275,-8.20836 L 745.706,-7.895 L 746.063,-7.49884 L 746.33,-7.03717
 L 746.494,-6.53017 L 746.55,-6 L 746.55,-0 L 925.575,-0 L 925.575,-6 L 925.631,-6.53017
 L 925.795,-7.03717 L 926.062,-7.49884 L 926.419,-7.895 L 926.85,-8.20836 L 927.337,-8.42519 L 927.858,-8.53603
 L 928.392,-8.53603 L 928.913,-8.42519 L 929.4,-8.20836 L 929.831,-7.895 L 930.188,-7.49884 L 930.455,-7.03717
 L 930.619,-6.53017 L 930.675,-6 L 930.675,-0 L 1109.7,-0 L 1109.7,-6 L 1109.76,-6.53017
 L 1109.92,-7.03717 L 1110.19,-7.49884 L 1110.54,-7.895 L 1110.97,-8.20836 L 1111.46,-8.42519 L 1111.98,-8.53603
 L 1112.52,-8.53603 L 1113.04,-8.42519 L 1113.52,-8.20836 L 1113.96,-7.895 L 1114.31,-7.49884 L 1114.58,-7.03717
 L 1114.74,-6.53017 L 1114.8,-6 L 1114.8,-0 L 1293.82,-0 L 1293.82,-6 L 1293.88,-6.53017
 L 1294.05,-7.03717 L 1294.31,-7.49884 L 1294.67,-7.895 L 1295.1,-8.20836 L 1295.59,-8.42519 L 1296.11,-8.53603
 L 1296.64,-8.53603 L 1297.16,-8.42519 L 1297.65,-8.20836 L 1298.08,-7.895 L 1298.44,-7.49884 L 1298.7,-7.03717
 L 1298.87,-6.53017 L 1298.92,-6 L 1298.92,-0 L 1477.95,-0 L 1477.95,-6 L 1478.01,-6.53017
 L 1478.17,-7.03717 L 1478.44,-7.49884 L 1478.79,-7.895 L 1479.22,-8.20836 L 1479.71,-8.42519 L 1480.23,-8.53603
 L 1480.77,-8.53603 L 1481.29,-8.42519 L 1481.77,-8.20836 L 1482.21,-7.895 L 1482.56,-7.49884 L 1482.83,-7.03717
 L 1482.99,-6.53017 L 1483.05,-6 L 1483.05,-0 L 1488,-0 z
M 191.111,-55.607 L 190.602,-55.6875 L 190.105,-55.8208 L 189.624,-56.0054 L 189.165,-56.2392 L 188.733,-56.5196
 L 188.333,-56.8437 L 187.969,-57.2079 L 187.645,-57.6081 L 187.364,-58.04 L 187.13,-58.4989 L 186.946,-58.9796
 L 186.813,-59.4771 L 186.732,-59.9857 L 186.705,-60.5 L 186.732,-61.0143 L 186.813,-61.5229 L 186.946,-62.0204
 L 187.13,-62.5011 L 187.364,-62.96 L 187.645,-63.3919 L 187.969,-63.7921 L 188.333,-64.1563 L 188.733,-64.4804
 L 189.075,-64.7024 L 189.075,-74 L 189.131,-74.5302 L 189.295,-75.0372 L 189.562,-75.4988 L 189.919,-75.895
 L 190.35,-76.2084 L 190.837,-76.4252 L 191.358,-76.536 L 191.892,-76.536 L 192.413,-76.4252 L 192.9,-76.2084
 L 193.331,-75.895 L 193.688,-75.4988 L 193.955,-75.0372 L 194.119,-74.5302 L 194.175,-74 L 194.175,-64.7024
 L 194.517,-64.4804 L 194.917,-64.1563 L 195.281,-63.7921 L 195.605,-63.3919 L 195.886,-62.96 L 196.12,-62.5011
 L 196.304,-62.0204 L 196.437,-61.5229 L 196.518,-61.0143 L 196.545,-60.5 L 196.518,-59.9857 L 196.437,-59.4771
 L 196.304,-58.9796 L 196.12,-58.4989 L 195.886,-58.04 L 195.605,-57.6081 L 195.281,-57.2079 L 194.917,-56.8437
 L 194.517,-56.5196 L 194.085,-56.2392 L 193.626,-56.0054 L 193.145,-55.8208 L 192.648,-55.6875 L 192.139,-55.607
 L 191.625,-55.58 z
M 1111.74,-55.607 L 1111.23,-55.6875 L 1110.73,-55.8208 L 1110.25,-56.0054 L 1109.79,-56.2392 L 1109.36,-56.5196
 L 1108.96,-56.8437 L 1108.59,-57.2079 L 1108.27,-57.6081 L 1107.99,-58.04 L 1107.76,-58.4989 L 1107.57,-58.9796
 L 1107.44,-59.4771 L 1107.36,-59.9857 L 1107.33,-60.5 L 1107.36,-61.0143 L 1107.44,-61.5229 L 1107.57,-62.0204
 L 1107.76,-62.5011 L 1107.99,-62.96 L 1108.27,-63.3919 L 1108.59,-63.7921 L 1108.96,-64.1563 L 1109.36,-64.4804
 L 1109.7,-64.7024 L 1109.7,-74 L 1109.76,-74.5302 L 1109.92,-75.0372 L 1110.19,-75.4988 L 1110.54,-75.895
 L 1110.98,-76.2084 L 1111.46,-76.4252 L 1111.98,-76.536 L 1112.52,-76.536 L 1113.04,-76.4252 L 1113.52,-76.2084
 L 1113.96,-75.895 L 1114.31,-75.4988 L 1114.58,-75.0372 L 1114.74,-74.5302 L 1114.8,-74 L 1114.8,-64.7024
 L 1115.14,-64.4804 L 1115.54,-64.1563 L 1115.91,-63.7921 L 1116.23,-63.3919 L 1116.51,-62.96 L 1116.74,-62.5011
 L 1116.93,-62.0204 L 1117.06,-61.5229 L 1117.14,-61.0143 L 1117.17,-60.5 L 1117.14,-59.9857 L 1117.06,-59.4771
 L 1116.93,-58.9796 L 1116.74,-58.4989 L 1116.51,-58.04 L 1116.23,-57.6081 L 1115.91,-57.2079 L 1115.54,-56.8437
 L 1115.14,-56.5196 L 1114.71,-56.2392 L 1114.25,-56.0054 L 1113.77,-55.8208 L 1113.27,-55.6875 L 1112.76,-55.607
 L 1112.25,-55.58 z
M 927.611,-55.607 L 927.102,-55.6875 L 926.605,-55.8208 L 926.124,-56.0054 L 925.665,-56.2392 L 925.233,-56.5196
 L 924.833,-56.8437 L 924.469,-57.2079 L 924.145,-57.6081 L 923.864,-58.04 L 923.63,-58.4989 L 923.446,-58.9796
 L 923.313,-59.4771 L 923.232,-59.9857 L 923.205,-60.5 L 923.232,-61.0143 L 923.313,-61.5229 L 923.446,-62.0204
 L 923.63,-62.5011 L 923.864,-62.96 L 924.145,-63.3919 L 924.469,-63.7921 L 924.833,-64.1563 L 925.233,-64.4804
 L 925.575,-64.7024 L 925.575,-74 L 925.631,-74.5302 L 925.795,-75.0372 L 926.062,-75.4988 L 926.419,-75.895
 L 926.85,-76.2084 L 927.337,-76.4252 L 927.858,-76.536 L 928.392,-76.536 L 928.913,-76.4252 L 929.4,-76.2084
 L 929.831,-75.895 L 930.188,-75.4988 L 930.455,-75.0372 L 930.619,-74.5302 L 930.675,-74 L 930.675,-64.7024
 L 931.017,-64.4804 L 931.417,-64.1563 L 931.781,-63.7921 L 932.105,-63.3919 L 932.386,-62.96 L 932.62,-62.5011
 L 932.804,-62.0204 L 932.937,-61.5229 L 933.018,-61.0143 L 933.045,-60.5 L 933.018,-59.9857 L 932.937,-59.4771
 L 932.804,-58.9796 L 932.62,-58.4989 L 932.386,-58.04 L 932.105,-57.6081 L 931.781,-57.2079 L 931.417,-56.8437
 L 931.017,-56.5196 L 930.585,-56.2392 L 930.126,-56.0054 L 929.645,-55.8208 L 929.148,-55.6875 L 928.639,-55.607
 L 928.125,-55.58 z
M 6.98573,-55.607 L 6.47708,-55.6875 L 5.97964,-55.8208 L 5.49887,-56.0054 L 5.04001,-56.2392 L 4.60811,-56.5196
 L 4.20789,-56.8437 L 3.84373,-57.2079 L 3.51964,-57.6081 L 3.23917,-58.04 L 3.00537,-58.4989 L 2.82082,-58.9796
 L 2.68752,-59.4771 L 2.60696,-59.9857 L 2.58,-60.5 L 2.60696,-61.0143 L 2.68752,-61.5229 L 2.82082,-62.0204
 L 3.00537,-62.5011 L 3.23917,-62.96 L 3.51964,-63.3919 L 3.84373,-63.7921 L 4.20789,-64.1563 L 4.60811,-64.4804
 L 4.95001,-64.7024 L 4.95001,-74 L 5.00574,-74.5302 L 5.17047,-75.0372 L 5.43701,-75.4988 L 5.79373,-75.895
 L 6.22501,-76.2084 L 6.71202,-76.4252 L 7.23346,-76.536 L 7.76654,-76.536 L 8.28798,-76.4252 L 8.77499,-76.2084
 L 9.20627,-75.895 L 9.56299,-75.4988 L 9.82953,-75.0372 L 9.99426,-74.5302 L 10.05,-74 L 10.05,-64.7024
 L 10.3919,-64.4804 L 10.7921,-64.1563 L 11.1563,-63.7921 L 11.4804,-63.3919 L 11.7608,-62.96 L 11.9946,-62.5011
 L 12.1792,-62.0204 L 12.3125,-61.5229 L 12.393,-61.0143 L 12.42,-60.5 L 12.393,-59.9857 L 12.3125,-59.4771
 L 12.1792,-58.9796 L 11.9946,-58.4989 L 11.7608,-58.04 L 11.4804,-57.6081 L 11.1563,-57.2079 L 10.7921,-56.8437
 L 10.3919,-56.5196 L 9.95999,-56.2392 L 9.50113,-56.0054 L 9.02036,-55.8208 L 8.52292,-55.6875 L 8.01427,-55.607
 L 7.5,-55.58 z
M 743.486,-55.607 L 742.977,-55.6875 L 742.48,-55.8208 L 741.999,-56.0054 L 741.54,-56.2392 L 741.108,-56.5196
 L 740.708,-56.8437 L 740.344,-57.2079 L 740.02,-57.6081 L 739.739,-58.04 L 739.505,-58.4989 L 739.321,-58.9796
 L 739.188,-59.4771 L 739.107,-59.9857 L 739.08,-60.5 L 739.107,-61.0143 L 739.188,-61.5229 L 739.321,-62.0204
 L 739.505,-62.5011 L 739.739,-62.96 L 740.02,-63.3919 L 740.344,-63.7921 L 740.708,-64.1563 L 741.108,-64.4804
 L 741.45,-64.7024 L 741.45,-74 L 741.506,-74.5302 L 741.67,-75.0372 L 741.937,-75.4988 L 742.294,-75.895
 L 742.725,-76.2084 L 743.212,-76.4252 L 743.733,-76.536 L 744.267,-76.536 L 744.788,-76.4252 L 745.275,-76.2084
 L 745.706,-75.895 L 746.063,-75.4988 L 746.33,-75.0372 L 746.494,-74.5302 L 746.55,-74 L 746.55,-64.7024
 L 746.892,-64.4804 L 747.292,-64.1563 L 747.656,-63.7921 L 747.98,-63.3919 L 748.261,-62.96 L 748.495,-62.5011
 L 748.679,-62.0204 L 748.812,-61.5229 L 748.893,-61.0143 L 748.92,-60.5 L 748.893,-59.9857 L 748.812,-59.4771
 L 748.679,-58.9796 L 748.495,-58.4989 L 748.261,-58.04 L 747.98,-57.6081 L 747.656,-57.2079 L 747.292,-56.8437
 L 746.892,-56.5196 L 746.46,-56.2392 L 746.001,-56.0054 L 745.52,-55.8208 L 745.023,-55.6875 L 744.514,-55.607
 L 744,-55.58 z
M 1295.86,-55.607 L 1295.35,-55.6875 L 1294.85,-55.8208 L 1294.37,-56.0054 L 1293.92,-56.2392 L 1293.48,-56.5196
 L 1293.08,-56.8437 L 1292.72,-57.2079 L 1292.39,-57.6081 L 1292.11,-58.04 L 1291.88,-58.4989 L 1291.7,-58.9796
 L 1291.56,-59.4771 L 1291.48,-59.9857 L 1291.46,-60.5 L 1291.48,-61.0143 L 1291.56,-61.5229 L 1291.7,-62.0204
 L 1291.88,-62.5011 L 1292.11,-62.96 L 1292.39,-63.3919 L 1292.72,-63.7921 L 1293.08,-64.1563 L 1293.48,-64.4804
 L 1293.83,-64.7024 L 1293.83,-74 L 1293.88,-74.5302 L 1294.05,-75.0372 L 1294.31,-75.4988 L 1294.67,-75.895
 L 1295.1,-76.2084 L 1295.59,-76.4252 L 1296.11,-76.536 L 1296.64,-76.536 L 1297.16,-76.4252 L 1297.65,-76.2084
 L 1298.08,-75.895 L 1298.44,-75.4988 L 1298.7,-75.0372 L 1298.87,-74.5302 L 1298.92,-74 L 1298.92,-64.7024
 L 1299.27,-64.4804 L 1299.67,-64.1563 L 1300.03,-63.7921 L 1300.36,-63.3919 L 1300.64,-62.96 L 1300.87,-62.5011
 L 1301.05,-62.0204 L 1301.19,-61.5229 L 1301.27,-61.0143 L 1301.29,-60.5 L 1301.27,-59.9857 L 1301.19,-59.4771
 L 1301.05,-58.9796 L 1300.87,-58.4989 L 1300.64,-58.04 L 1300.36,-57.6081 L 1300.03,-57.2079 L 1299.67,-56.8437
 L 1299.27,-56.5196 L 1298.83,-56.2392 L 1298.38,-56.0054 L 1297.9,-55.8208 L 1297.4,-55.6875 L 1296.89,-55.607
 L 1296.38,-55.58 z
M 559.361,-55.607 L 558.852,-55.6875 L 558.355,-55.8208 L 557.874,-56.0054 L 557.415,-56.2392 L 556.983,-56.5196
 L 556.583,-56.8437 L 556.219,-57.2079 L 555.895,-57.6081 L 555.614,-58.04 L 555.38,-58.4989 L 555.196,-58.9796
 L 555.063,-59.4771 L 554.982,-59.9857 L 554.955,-60.5 L 554.982,-61.0143 L 555.063,-61.5229 L 555.196,-62.0204
 L 555.38,-62.5011 L 555.614,-62.96 L 555.895,-63.3919 L 556.219,-63.7921 L 556.583,-64.1563 L 556.983,-64.4804
 L 557.325,-64.7024 L 557.325,-74 L 557.381,-74.5302 L 557.545,-75.0372 L 557.812,-75.4988 L 558.169,-75.895
 L 558.6,-76.2084 L 559.087,-76.4252 L 559.608,-76.536 L 560.142,-76.536 L 560.663,-76.4252 L 561.15,-76.2084
 L 561.581,-75.895 L 561.938,-75.4988 L 562.205,-75.0372 L 562.369,-74.5302 L 562.425,-74 L 562.425,-64.7024
 L 562.767,-64.4804 L 563.167,-64.1563 L 563.531,-63.7921 L 563.855,-63.3919 L 564.136,-62.96 L 564.37,-62.5011
 L 564.554,-62.0204 L 564.687,-61.5229 L 564.768,-61.0143 L 564.795,-60.5 L 564.768,-59.9857 L 564.687,-59.4771
 L 564.554,-58.9796 L 564.37,-58.4989 L 564.136,-58.04 L 563.855,-57.6081 L 563.531,-57.2079 L 563.167,-56.8437
 L 562.767,-56.5196 L 562.335,-56.2392 L 561.876,-56.0054 L 561.395,-55.8208 L 560.898,-55.6875 L 560.389,-55.607
 L 559.875,-55.58 z
M 375.236,-55.607 L 374.727,-55.6875 L 374.23,-55.8208 L 373.749,-56.0054 L 373.29,-56.2392 L 372.858,-56.5196
 L 372.458,-56.8437 L 372.094,-57.2079 L 371.77,-57.6081 L 371.489,-58.04 L 371.255,-58.4989 L 371.071,-58.9796
 L 370.938,-59.4771 L 370.857,-59.9857 L 370.83,-60.5 L 370.857,-61.0143 L 370.938,-61.5229 L 371.071,-62.0204
 L 371.255,-62.5011 L 371.489,-62.96 L 371.77,-63.3919 L 372.094,-63.7921 L 372.458,-64.1563 L 372.858,-64.4804
 L 373.2,-64.7024 L 373.2,-74 L 373.256,-74.5302 L 373.42,-75.0372 L 373.687,-75.4988 L 374.044,-75.895
 L 374.475,-76.2084 L 374.962,-76.4252 L 375.483,-76.536 L 376.017,-76.536 L 376.538,-76.4252 L 377.025,-76.2084
 L 377.456,-75.895 L 377.813,-75.4988 L 378.08,-75.0372 L 378.244,-74.5302 L 378.3,-74 L 378.3,-64.7024
 L 378.642,-64.4804 L 379.042,-64.1563 L 379.406,-63.7921 L 379.73,-63.3919 L 380.011,-62.96 L 380.245,-62.5011
 L 380.429,-62.0204 L 380.562,-61.5229 L 380.643,-61.0143 L 380.67,-60.5 L 380.643,-59.9857 L 380.562,-59.4771
 L 380.429,-58.9796 L 380.245,-58.4989 L 380.011,-58.04 L 379.73,-57.6081 L 379.406,-57.2079 L 379.042,-56.8437
 L 378.642,-56.5196 L 378.21,-56.2392 L 377.751,-56.0054 L 377.27,-55.8208 L 376.773,-55.6875 L 376.264,-55.607
 L 375.75,-55.58 z
M 1479.99,-55.607 L 1479.48,-55.6875 L 1478.98,-55.8208 L 1478.5,-56.0054 L 1478.04,-56.2392 L 1477.61,-56.5196
 L 1477.21,-56.8437 L 1476.84,-57.2079 L 1476.52,-57.6081 L 1476.24,-58.04 L 1476.01,-58.4989 L 1475.82,-58.9796
 L 1475.69,-59.4771 L 1475.61,-59.9857 L 1475.58,-60.5 L 1475.61,-61.0143 L 1475.69,-61.5229 L 1475.82,-62.0204
 L 1476.01,-62.5011 L 1476.24,-62.96 L 1476.52,-63.3919 L 1476.84,-63.7921 L 1477.21,-64.1563 L 1477.61,-64.4804
 L 1477.95,-64.7024 L 1477.95,-74 L 1478.01,-74.5302 L 1478.17,-75.0372 L 1478.44,-75.4988 L 1478.79,-75.895
 L 1479.23,-76.2084 L 1479.71,-76.4252 L 1480.23,-76.536 L 1480.77,-76.536 L 1481.29,-76.4252 L 1481.77,-76.2084
 L 1482.21,-75.895 L 1482.56,-75.4988 L 1482.83,-75.0372 L 1482.99,-74.5302 L 1483.05,-74 L 1483.05,-64.7024
 L 1483.39,-64.4804 L 1483.79,-64.1563 L 1484.16,-63.7921 L 1484.48,-63.3919 L 1484.76,-62.96 L 1484.99,-62.5011
 L 1485.18,-62.0204 L 1485.31,-61.5229 L 1485.39,-61.0143 L 1485.42,-60.5 L 1485.39,-59.9857 L 1485.31,-59.4771
 L 1485.18,-58.9796 L 1484.99,-58.4989 L 1484.76,-58.04 L 1484.48,-57.6081 L 1484.16,-57.2079 L 1483.79,-56.8437
 L 1483.39,-56.5196 L 1482.96,-56.2392 L 1482.5,-56.0054 L 1482.02,-55.8208 L 1481.52,-55.6875 L 1481.01,-55.607
 L 1480.5,-55.58 z
M 362.175,-20.69 L 361.364,-20.8961 L 271.057,-54.2477 L 270.092,-54.7639 L 269.471,-55.3235 L 268.979,-56
 L 268.639,-56.7639 L 268.465,-57.5819 L 268.465,-58.4181 L 268.639,-59.2361 L 268.979,-60 L 269.471,-60.6765
 L 270.092,-61.2361 L 270.816,-61.6542 L 271.612,-61.9126 L 272.443,-62 L 362.75,-62 L 363.986,-61.8042
 L 364.75,-61.4641 L 365.427,-60.9726 L 365.986,-60.3511 L 366.404,-59.627 L 366.663,-58.8316 L 366.75,-58
 L 366.75,-24.6484 L 366.627,-23.6625 L 366.337,-22.878 L 365.89,-22.171 L 365.307,-21.5722 L 364.611,-21.1078
 L 363.834,-20.7982 L 363.01,-20.6569 z
M 546.3,-20.69 L 545.489,-20.8961 L 455.182,-54.2477 L 454.217,-54.7639 L 453.596,-55.3235 L 453.104,-56
 L 452.764,-56.7639 L 452.59,-57.5819 L 452.59,-58.4181 L 452.764,-59.2361 L 453.104,-60 L 453.596,-60.6765
 L 454.217,-61.2361 L 454.941,-61.6542 L 455.737,-61.9126 L 456.568,-62 L 546.875,-62 L 548.111,-61.8042
 L 548.875,-61.4641 L 549.552,-60.9726 L 550.111,-60.3511 L 550.529,-59.627 L 550.788,-58.8316 L 550.875,-58
 L 550.875,-24.6484 L 550.752,-23.6625 L 550.462,-22.878 L 550.015,-22.171 L 549.432,-21.5722 L 548.736,-21.1078
 L 547.959,-20.7982 L 547.135,-20.6569 z
M 1308.29,-20.7982 L 1307.51,-21.1078 L 1306.82,-21.5722 L 1306.23,-22.171 L 1305.79,-22.878 L 1305.5,-23.6625
 L 1305.38,-24.6484 L 1305.38,-58 L 1305.46,-58.8316 L 1305.72,-59.627 L 1306.14,-60.3511 L 1306.7,-60.9726
 L 1307.38,-61.4641 L 1308.14,-61.8042 L 1309.38,-62 L 1399.68,-62 L 1400.51,-61.9126 L 1401.31,-61.6542
 L 1402.03,-61.2361 L 1402.65,-60.6765 L 1403.15,-60 L 1403.49,-59.2361 L 1403.66,-58.4181 L 1403.66,-57.5819
 L 1403.49,-56.7639 L 1403.15,-56 L 1402.65,-55.3235 L 1402.03,-54.7639 L 1401.07,-54.2477 L 1310.76,-20.8961
 L 1309.95,-20.69 L 1309.11,-20.6569 z
M 730.425,-20.69 L 729.614,-20.8961 L 639.307,-54.2477 L 638.342,-54.7639 L 637.721,-55.3235 L 637.229,-56
 L 636.889,-56.7639 L 636.715,-57.5819 L 636.715,-58.4181 L 636.889,-59.2361 L 637.229,-60 L 637.721,-60.6765
 L 638.342,-61.2361 L 639.066,-61.6542 L 639.862,-61.9126 L 640.693,-62 L 731,-62 L 732.236,-61.8042
 L 733,-61.4641 L 733.677,-60.9726 L 734.236,-60.3511 L 734.654,-59.627 L 734.913,-58.8316 L 735,-58
 L 735,-24.6484 L 734.877,-23.6625 L 734.587,-22.878 L 734.14,-22.171 L 733.557,-21.5722 L 732.861,-21.1078
 L 732.084,-20.7982 L 731.26,-20.6569 z
M 178.05,-20.69 L 177.239,-20.8961 L 86.9325,-54.2477 L 85.9671,-54.7639 L 85.3457,-55.3235 L 84.8542,-56
 L 84.514,-56.7639 L 84.3402,-57.5819 L 84.3402,-58.4181 L 84.514,-59.2361 L 84.8542,-60 L 85.3457,-60.6765
 L 85.9671,-61.2361 L 86.6913,-61.6542 L 87.4866,-61.9126 L 88.3183,-62 L 178.625,-62 L 179.861,-61.8042
 L 180.625,-61.4641 L 181.302,-60.9726 L 181.861,-60.3511 L 182.279,-59.627 L 182.538,-58.8316 L 182.625,-58
 L 182.625,-24.6484 L 182.502,-23.6625 L 182.212,-22.878 L 181.765,-22.171 L 181.182,-21.5722 L 180.486,-21.1078
 L 179.709,-20.7982 L 178.885,-20.6569 z
M 755.916,-20.7982 L 755.139,-21.1078 L 754.443,-21.5722 L 753.86,-22.171 L 753.413,-22.878 L 753.123,-23.6625
 L 753,-24.6484 L 753,-58 L 753.087,-58.8316 L 753.346,-59.627 L 753.764,-60.3511 L 754.323,-60.9726
 L 755,-61.4641 L 755.764,-61.8042 L 757,-62 L 847.307,-62 L 848.138,-61.9126 L 848.934,-61.6542
 L 849.658,-61.2361 L 850.279,-60.6765 L 850.771,-60 L 851.111,-59.2361 L 851.285,-58.4181 L 851.285,-57.5819
 L 851.111,-56.7639 L 850.771,-56 L 850.279,-55.3235 L 849.658,-54.7639 L 848.693,-54.2477 L 758.386,-20.8961
 L 757.575,-20.69 L 756.74,-20.6569 z
M 940.041,-20.7982 L 939.264,-21.1078 L 938.568,-21.5722 L 937.985,-22.171 L 937.538,-22.878 L 937.248,-23.6625
 L 937.125,-24.6484 L 937.125,-58 L 937.212,-58.8316 L 937.471,-59.627 L 937.889,-60.3511 L 938.448,-60.9726
 L 939.125,-61.4641 L 939.889,-61.8042 L 941.125,-62 L 1031.43,-62 L 1032.26,-61.9126 L 1033.06,-61.6542
 L 1033.78,-61.2361 L 1034.4,-60.6765 L 1034.9,-60 L 1035.24,-59.2361 L 1035.41,-58.4181 L 1035.41,-57.5819
 L 1035.24,-56.7639 L 1034.9,-56 L 1034.4,-55.3235 L 1033.78,-54.7639 L 1032.82,-54.2477 L 942.511,-20.8961
 L 941.7,-20.69 L 940.865,-20.6569 z
M 1124.17,-20.7982 L 1123.39,-21.1078 L 1122.69,-21.5722 L 1122.11,-22.171 L 1121.66,-22.878 L 1121.37,-23.6625
 L 1121.25,-24.6484 L 1121.25,-58 L 1121.34,-58.8316 L 1121.6,-59.627 L 1122.01,-60.3511 L 1122.57,-60.9726
 L 1123.25,-61.4641 L 1124.01,-61.8042 L 1125.25,-62 L 1215.56,-62 L 1216.39,-61.9126 L 1217.18,-61.6542
 L 1217.91,-61.2361 L 1218.53,-60.6765 L 1219.02,-60 L 1219.36,-59.2361 L 1219.53,-58.4181 L 1219.53,-57.5819
 L 1219.36,-56.7639 L 1219.02,-56 L 1218.53,-55.3235 L 1217.91,-54.7639 L 1216.94,-54.2477 L 1126.64,-20.8961
 L 1125.83,-20.69 L 1124.99,-20.6569 z
M 204.625,-18 L 203.389,-18.1958 L 202.625,-18.5359 L 201.948,-19.0274 L 201.389,-19.6489 L 200.971,-20.373
 L 200.712,-21.1684 L 200.625,-22 L 200.625,-55.3516 L 200.748,-56.3375 L 201.038,-57.122 L 201.485,-57.829
 L 202.068,-58.4278 L 202.764,-58.8922 L 203.541,-59.2018 L 204.365,-59.3431 L 205.2,-59.31 L 206.011,-59.1039
 L 296.317,-25.7523 L 297.283,-25.2361 L 297.904,-24.6765 L 298.396,-24 L 298.736,-23.2361 L 298.91,-22.4181
 L 298.91,-21.5819 L 298.736,-20.7639 L 298.396,-20 L 297.904,-19.3235 L 297.283,-18.7639 L 296.559,-18.3458
 L 295.763,-18.0874 L 294.932,-18 z
M 388.75,-18 L 387.514,-18.1958 L 386.75,-18.5359 L 386.073,-19.0274 L 385.514,-19.6489 L 385.096,-20.373
 L 384.837,-21.1684 L 384.75,-22 L 384.75,-55.3516 L 384.873,-56.3375 L 385.163,-57.122 L 385.61,-57.829
 L 386.193,-58.4278 L 386.889,-58.8922 L 387.666,-59.2018 L 388.49,-59.3431 L 389.325,-59.31 L 390.136,-59.1039
 L 480.442,-25.7523 L 481.408,-25.2361 L 482.029,-24.6765 L 482.521,-24 L 482.861,-23.2361 L 483.035,-22.4181
 L 483.035,-21.5819 L 482.861,-20.7639 L 482.521,-20 L 482.029,-19.3235 L 481.408,-18.7639 L 480.684,-18.3458
 L 479.888,-18.0874 L 479.057,-18 z
M 572.875,-18 L 571.639,-18.1958 L 570.875,-18.5359 L 570.198,-19.0274 L 569.639,-19.6489 L 569.221,-20.373
 L 568.962,-21.1684 L 568.875,-22 L 568.875,-55.3516 L 568.998,-56.3375 L 569.288,-57.122 L 569.735,-57.829
 L 570.318,-58.4278 L 571.014,-58.8922 L 571.791,-59.2018 L 572.615,-59.3431 L 573.45,-59.31 L 574.261,-59.1039
 L 664.567,-25.7523 L 665.533,-25.2361 L 666.154,-24.6765 L 666.646,-24 L 666.986,-23.2361 L 667.16,-22.4181
 L 667.16,-21.5819 L 666.986,-20.7639 L 666.646,-20 L 666.154,-19.3235 L 665.533,-18.7639 L 664.809,-18.3458
 L 664.013,-18.0874 L 663.182,-18 z
M 824.818,-18 L 823.987,-18.0874 L 823.191,-18.3458 L 822.467,-18.7639 L 821.846,-19.3235 L 821.354,-20
 L 821.014,-20.7639 L 820.84,-21.5819 L 820.84,-22.4181 L 821.014,-23.2361 L 821.354,-24 L 821.846,-24.6765
 L 822.467,-25.2361 L 823.433,-25.7523 L 913.739,-59.1039 L 914.55,-59.31 L 915.385,-59.3431 L 916.209,-59.2018
 L 916.986,-58.8922 L 917.682,-58.4278 L 918.265,-57.829 L 918.712,-57.122 L 919.002,-56.3375 L 919.125,-55.3516
 L 919.125,-22 L 919.038,-21.1684 L 918.779,-20.373 L 918.361,-19.6489 L 917.802,-19.0274 L 917.125,-18.5359
 L 916.361,-18.1958 L 915.125,-18 z
M 1008.94,-18 L 1008.11,-18.0874 L 1007.32,-18.3458 L 1006.59,-18.7639 L 1005.97,-19.3235 L 1005.48,-20
 L 1005.14,-20.7639 L 1004.97,-21.5819 L 1004.97,-22.4181 L 1005.14,-23.2361 L 1005.48,-24 L 1005.97,-24.6765
 L 1006.59,-25.2361 L 1007.56,-25.7523 L 1097.86,-59.1039 L 1098.67,-59.31 L 1099.51,-59.3431 L 1100.33,-59.2018
 L 1101.11,-58.8922 L 1101.81,-58.4278 L 1102.39,-57.829 L 1102.84,-57.122 L 1103.13,-56.3375 L 1103.25,-55.3516
 L 1103.25,-22 L 1103.16,-21.1684 L 1102.9,-20.373 L 1102.49,-19.6489 L 1101.93,-19.0274 L 1101.25,-18.5359
 L 1100.49,-18.1958 L 1099.25,-18 z
M 1193.07,-18 L 1192.24,-18.0874 L 1191.44,-18.3458 L 1190.72,-18.7639 L 1190.1,-19.3235 L 1189.6,-20
 L 1189.26,-20.7639 L 1189.09,-21.5819 L 1189.09,-22.4181 L 1189.26,-23.2361 L 1189.6,-24 L 1190.1,-24.6765
 L 1190.72,-25.2361 L 1191.68,-25.7523 L 1281.99,-59.1039 L 1282.8,-59.31 L 1283.64,-59.3431 L 1284.46,-59.2018
 L 1285.24,-58.8922 L 1285.93,-58.4278 L 1286.52,-57.829 L 1286.96,-57.122 L 1287.25,-56.3375 L 1287.38,-55.3516
 L 1287.38,-22 L 1287.29,-21.1684 L 1287.03,-20.373 L 1286.61,-19.6489 L 1286.05,-19.0274 L 1285.38,-18.5359
 L 1284.61,-18.1958 L 1283.38,-18 z
M 1377.19,-18 L 1376.36,-18.0874 L 1375.57,-18.3458 L 1374.84,-18.7639 L 1374.22,-19.3235 L 1373.73,-20
 L 1373.39,-20.7639 L 1373.22,-21.5819 L 1373.22,-22.4181 L 1373.39,-23.2361 L 1373.73,-24 L 1374.22,-24.6765
 L 1374.84,-25.2361 L 1375.81,-25.7523 L 1464.61,-58.5499 L 1465.42,-58.756 L 1466.26,-58.7891 L 1467.08,-58.6478
 L 1467.86,-58.3382 L 1468.56,-57.8739 L 1469.14,-57.2751 L 1469.59,-56.568 L 1469.88,-55.7836 L 1470,-54.7976
 L 1470,-22 L 1469.91,-21.1684 L 1469.65,-20.373 L 1469.24,-19.6489 L 1468.68,-19.0274 L 1468,-18.5359
 L 1467.24,-18.1958 L 1466,-18 z
M 22,-18 L 20.7639,-18.1958 L 20,-18.5359 L 19.3235,-19.0274 L 18.7639,-19.6489 L 18.3458,-20.373
 L 18.0874,-21.1684 L 18,-22 L 18,-54.7976 L 18.1234,-55.7836 L 18.4131,-56.568 L 18.8596,-57.2751
 L 19.4433,-57.8739 L 20.1388,-58.3382 L 20.9156,-58.6478 L 21.7398,-58.7891 L 22.5753,-58.756 L 23.3858,-58.5499
 L 112.192,-25.7523 L 113.158,-25.2361 L 113.779,-24.6765 L 114.271,-24 L 114.611,-23.2361 L 114.785,-22.4181
 L 114.785,-21.5819 L 114.611,-20.7639 L 114.271,-20 L 113.779,-19.3235 L 113.158,-18.7639 L 112.434,-18.3458
 L 111.638,-18.0874 L 110.807,-18 z
" stroke="black" fill="lightgray" stroke-width="0.5"/>
</svg>
