<?xml version="1.0" standalone="no"?>
<!DOCTYPE svg PUBLIC "-//W3C//DTD SVG 1.1//EN" "http://www.w3.org/Graphics/SVG/1.1/DTD/svg11.dtd">
<svg width="1005mm" height="80mm" viewBox="0 -80 1005 80" xmlns="http://www.w3.org/2000/svg" version="1.1">
<title>OpenSCAD Model</title>
<path d="
M 1005,-80 L 0,-80 L 0,-0 L 4.95,-0 L 4.95,-6 L 5.00572,-6.53017
 L 5.17046,-7.03717 L 5.437,-7.49884 L 5.79372,-7.895 L 6.22499,-8.20836 L 6.71201,-8.42519 L 7.23344,-8.53603
 L 7.76654,-8.53603 L 8.28798,-8.42519 L 8.77499,-8.20836 L 9.20627,-7.895 L 9.56299,-7.49884 L 9.82953,-7.03717
 L 9.99426,-6.53017 L 10.05,-6 L 10.05,-0 L 169.95,-0 L 169.95,-6 L 170.006,-6.53017
 L 170.17,-7.03717 L 170.437,-7.49884 L 170.794,-7.895 L 171.225,-8.20836 L 171.712,-8.42519 L 172.233,-8.53603
 L 172.767,-8.53603 L 173.288,-8.42519 L 173.775,-8.20836 L 174.206,-7.895 L 174.563,-7.49884 L 174.83,-7.03717
 L 174.994,-6.53017 L 175.05,-6 L 175.05,-0 L 334.95,-0 L 334.95,-6 L 335.006,-6.53017
 L 335.17,-7.03717 L 335.437,-7.49884 L 335.794,-7.895 L 336.225,-8.20836 L 336.712,-8.42519 L 337.233,-8.53603
 L 337.767,-8.53603 L 338.288,-8.42519 L 338.775,-8.20836 L 339.206,-7.895 L 339.563,-7.49884 L 339.83,-7.03717
 L 339.994,-6.53017 L 340.05,-6 L 340.05,-0 L 499.95,-0 L 499.95,-6 L 500.006,-6.53017
 L 500.17,-7.03717 L 500.437,-7.49884 L 500.794,-7.895 L 501.225,-8.20836 L 501.712,-8.42519 L 502.233,-8.53603
 L 502.767,-8.53603 L 503.288,-8.42519 L 503.775,-8.20836 L 504.206,-7.895 L 504.563,-7.49884 L 504.83,-7.03717
 L 504.994,-6.53017 L 505.05,-6 L 505.05,-0 L 664.95,-0 L 664.95,-6 L 665.006,-6.53017
 L 665.17,-7.03717 L 665.437,-7.49884 L 665.794,-7.895 L 666.225,-8.20836 L 666.712,-8.42519 L 667.233,-8.53603
 L 667.767,-8.53603 L 668.288,-8.42519 L 668.775,-8.20836 L 669.206,-7.895 L 669.563,-7.49884 L 669.83,-7.03717
 L 669.994,-6.53017 L 670.05,-6 L 670.05,-0 L 829.95,-0 L 829.95,-6 L 830.006,-6.53017
 L 830.17,-7.03717 L 830.437,-7.49884 L 830.794,-7.895 L 831.225,-8.20836 L 831.712,-8.42519 L 832.233,-8.53603
 L 832.767,-8.53603 L 833.288,-8.42519 L 833.775,-8.20836 L 834.206,-7.895 L 834.563,-7.49884 L 834.83,-7.03717
 L 834.994,-6.53017 L 835.05,-6 L 835.05,-0 L 994.95,-0 L 994.95,-6 L 995.006,-6.53017
 L 995.17,-7.03717 L 995.437,-7.49884 L 995.794,-7.895 L 996.225,-8.20836 L 996.712,-8.42519 L 997.233,-8.53603
 L 997.767,-8.53603 L 998.288,-8.42519 L 998.775,-8.20836 L 999.206,-7.895 L 999.563,-7.49884 L 999.83,-7.03717
 L 999.994,-6.53017 L 1000.05,-6 L 1000.05,-0 L 1005,-0 z
M 6.98573,-55.607 L 6.47708,-55.6875 L 5.97964,-55.8208 L 5.49887,-56.0054 L 5.04001,-56.2392 L 4.60811,-56.5196
 L 4.20789,-56.8437 L 3.84373,-57.2079 L 3.51964,-57.6081 L 3.23917,-58.04 L 3.00537,-58.4989 L 2.82082,-58.9796
 L 2.68752,-59.4771 L 2.60696,-59.9857 L 2.58,-60.5 L 2.60696,-61.0143 L 2.68752,-61.5229 L 2.82082,-62.0204
 L 3.00537,-62.5011 L 3.23917,-62.96 L 3.51964,-63.3919 L 3.84373,-63.7921 L 4.20789,-64.1563 L 4.60811,-64.4804
 L 4.95001,-64.7024 L 4.95001,-74 L 5.00574,-74.5302 L 5.17047,-75.0372 L 5.43701,-75.4988 L 5.79373,-75.895
 L 6.22501,-76.2084 L 6.71202,-76.4252 L 7.23346,-76.536 L 7.76654,-76.536 L 8.28798,-76.4252 L 8.77499,-76.2084
 L 9.20627,-75.895 L 9.56299,-75.4988 L 9.82953,-75.0372 L 9.99426,-74.5302 L 10.05,-74 L 10.05,-64.7024
 L 10.3919,-64.4804 L 10.7921,-64.1563 L 11.1563,-63.7921 L 11.4804,-63.3919 L 11.7608,-62.96 L 11.9946,-62.5011
 L 12.1792,-62.0204 L 12.3125,-61.5229 L 12.393,-61.0143 L 12.42,-60.5 L 12.393,-59.9857 L 12.3125,-59.4771
 L 12.1792,-58.9796 L 11.9946,-58.4989 L 11.7608,-58.04 L 11.4804,-57.6081 L 11.1563,-57.2079 L 10.7921,-56.8437
 L 10.3919,-56.5196 L 9.95999,-56.2392 L 9.50113,-56.0054 L 9.02036,-55.8208 L 8.52292,-55.6875 L 8.01427,-55.607
 L 7.5,-55.58 z
M 171.986,-55.607 L 171.477,-55.6875 L 170.98,-55.8208 L 170.499,-56.0054 L 170.04,-56.2392 L 169.608,-56.5196
 L 169.208,-56.8437 L 168.844,-57.2079 L 168.52,-57.6081 L 168.239,-58.04 L 168.005,-58.4989 L 167.821,-58.9796
 L 167.688,-59.4771 L 167.607,-59.9857 L 167.58,-60.5 L 167.607,-61.0143 L 167.688,-61.5229 L 167.821,-62.0204
 L 168.005,-62.5011 L 168.239,-62.96 L 168.52,-63.3919 L 168.844,-63.7921 L 169.208,-64.1563 L 169.608,-64.4804
 L 169.95,-64.7024 L 169.95,-74 L 170.006,-74.5302 L 170.17,-75.0372 L 170.437,-75.4988 L 170.794,-75.895
 L 171.225,-76.2084 L 171.712,-76.4252 L 172.233,-76.536 L 172.767,-76.536 L 173.288,-76.4252 L 173.775,-76.2084
 L 174.206,-75.895 L 174.563,-75.4988 L 174.83,-75.0372 L 174.994,-74.5302 L 175.05,-74 L 175.05,-64.7024
 L 175.392,-64.4804 L 175.792,-64.1563 L 176.156,-63.7921 L 176.48,-63.3919 L 176.761,-62.96 L 176.995,-62.5011
 L 177.179,-62.0204 L 177.312,-61.5229 L 177.393,-61.0143 L 177.42,-60.5 L 177.393,-59.9857 L 177.312,-59.4771
 L 177.179,-58.9796 L 176.995,-58.4989 L 176.761,-58.04 L 176.48,-57.6081 L 176.156,-57.2079 L 175.792,-56.8437
 L 175.392,-56.5196 L 174.96,-56.2392 L 174.501,-56.0054 L 174.02,-55.8208 L 173.523,-55.6875 L 173.014,-55.607
 L 172.5,-55.58 z
M 336.986,-55.607 L 336.477,-55.6875 L 335.98,-55.8208 L 335.499,-56.0054 L 335.04,-56.2392 L 334.608,-56.5196
 L 334.208,-56.8437 L 333.844,-57.2079 L 333.52,-57.6081 L 333.239,-58.04 L 333.005,-58.4989 L 332.821,-58.9796
 L 332.688,-59.4771 L 332.607,-59.9857 L 332.58,-60.5 L 332.607,-61.0143 L 332.688,-61.5229 L 332.821,-62.0204
 L 333.005,-62.5011 L 333.239,-62.96 L 333.52,-63.3919 L 333.844,-63.7921 L 334.208,-64.1563 L 334.608,-64.4804
 L 334.95,-64.7024 L 334.95,-74 L 335.006,-74.5302 L 335.17,-75.0372 L 335.437,-75.4988 L 335.794,-75.895
 L 336.225,-76.2084 L 336.712,-76.4252 L 337.233,-76.536 L 337.767,-76.536 L 338.288,-76.4252 L 338.775,-76.2084
 L 339.206,-75.895 L 339.563,-75.4988 L 339.83,-75.0372 L 339.994,-74.5302 L 340.05,-74 L 340.05,-64.7024
 L 340.392,-64.4804 L 340.792,-64.1563 L 341.156,-63.7921 L 341.48,-63.3919 L 341.761,-62.96 L 341.995,-62.5011
 L 342.179,-62.0204 L 342.312,-61.5229 L 342.393,-61.0143 L 342.42,-60.5 L 342.393,-59.9857 L 342.312,-59.4771
 L 342.179,-58.9796 L 341.995,-58.4989 L 341.761,-58.04 L 341.48,-57.6081 L 341.156,-57.2079 L 340.792,-56.8437
 L 340.392,-56.5196 L 339.96,-56.2392 L 339.501,-56.0054 L 339.02,-55.8208 L 338.523,-55.6875 L 338.014,-55.607
 L 337.5,-55.58 z
M 501.986,-55.607 L 501.477,-55.6875 L 500.98,-55.8208 L 500.499,-56.0054 L 500.04,-56.2392 L 499.608,-56.5196
 L 499.208,-56.8437 L 498.844,-57.2079 L 498.52,-57.6081 L 498.239,-58.04 L 498.005,-58.4989 L 497.821,-58.9796
 L 497.688,-59.4771 L 497.607,-59.9857 L 497.58,-60.5 L 497.607,-61.0143 L 497.688,-61.5229 L 497.821,-62.0204
 L 498.005,-62.5011 L 498.239,-62.96 L 498.52,-63.3919 L 498.844,-63.7921 L 499.208,-64.1563 L 499.608,-64.4804
 L 499.95,-64.7024 L 499.95,-74 L 500.006,-74.5302 L 500.17,-75.0372 L 500.437,-75.4988 L 500.794,-75.895
 L 501.225,-76.2084 L 501.712,-76.4252 L 502.233,-76.536 L 502.767,-76.536 L 503.288,-76.4252 L 503.775,-76.2084
 L 504.206,-75.895 L 504.563,-75.4988 L 504.83,-75.0372 L 504.994,-74.5302 L 505.05,-74 L 505.05,-64.7024
 L 505.392,-64.4804 L 505.792,-64.1563 L 506.156,-63.7921 L 506.48,-63.3919 L 506.761,-62.96 L 506.995,-62.5011
 L 507.179,-62.0204 L 507.312,-61.5229 L 507.393,-61.0143 L 507.42,-60.5 L 507.393,-59.9857 L 507.312,-59.4771
 L 507.179,-58.9796 L 506.995,-58.4989 L 506.761,-58.04 L 506.48,-57.6081 L 506.156,-57.2079 L 505.792,-56.8437
 L 505.392,-56.5196 L 504.96,-56.2392 L 504.501,-56.0054 L 504.02,-55.8208 L 503.523,-55.6875 L 503.014,-55.607
 L 502.5,-55.58 z
M 666.986,-55.607 L 666.477,-55.6875 L 665.98,-55.8208 L 665.499,-56.0054 L 665.04,-56.2392 L 664.608,-56.5196
 L 664.208,-56.8437 L 663.844,-57.2079 L 663.52,-57.6081 L 663.239,-58.04 L 663.005,-58.4989 L 662.821,-58.9796
 L 662.688,-59.4771 L 662.607,-59.9857 L 662.58,-60.5 L 662.607,-61.0143 L 662.688,-61.5229 L 662.821,-62.0204
 L 663.005,-62.5011 L 663.239,-62.96 L 663.52,-63.3919 L 663.844,-63.7921 L 664.208,-64.1563 L 664.608,-64.4804
 L 664.95,-64.7024 L 664.95,-74 L 665.006,-74.5302 L 665.17,-75.0372 L 665.437,-75.4988 L 665.794,-75.895
 L 666.225,-76.2084 L 666.712,-76.4252 L 667.233,-76.536 L 667.767,-76.536 L 668.288,-76.4252 L 668.775,-76.2084
 L 669.206,-75.895 L 669.563,-75.4988 L 669.83,-75.0372 L 669.994,-74.5302 L 670.05,-74 L 670.05,-64.7024
 L 670.392,-64.4804 L 670.792,-64.1563 L 671.156,-63.7921 L 671.48,-63.3919 L 671.761,-62.96 L 671.995,-62.5011
 L 672.179,-62.0204 L 672.312,-61.5229 L 672.393,-61.0143 L 672.42,-60.5 L 672.393,-59.9857 L 672.312,-59.4771
 L 672.179,-58.9796 L 671.995,-58.4989 L 671.761,-58.04 L 671.48,-57.6081 L 671.156,-57.2079 L 670.792,-56.8437
 L 670.392,-56.5196 L 669.96,-56.2392 L 669.501,-56.0054 L 669.02,-55.8208 L 668.523,-55.6875 L 668.014,-55.607
 L 667.5,-55.58 z
M 831.986,-55.607 L 831.477,-55.6875 L 830.98,-55.8208 L 830.499,-56.0054 L 830.04,-56.2392 L 829.608,-56.5196
 L 829.208,-56.8437 L 828.844,-57.2079 L 828.52,-57.6081 L 828.239,-58.04 L 828.005,-58.4989 L 827.821,-58.9796
 L 827.688,-59.4771 L 827.607,-59.9857 L 827.58,-60.5 L 827.607,-61.0143 L 827.688,-61.5229 L 827.821,-62.0204
 L 828.005,-62.5011 L 828.239,-62.96 L 828.52,-63.3919 L 828.844,-63.7921 L 829.208,-64.1563 L 829.608,-64.4804
 L 829.95,-64.7024 L 829.95,-74 L 830.006,-74.5302 L 830.17,-75.0372 L 830.437,-75.4988 L 830.794,-75.895
 L 831.225,-76.2084 L 831.712,-76.4252 L 832.233,-76.536 L 832.767,-76.536 L 833.288,-76.4252 L 833.775,-76.2084
 L 834.206,-75.895 L 834.563,-75.4988 L 834.83,-75.0372 L 834.994,-74.5302 L 835.05,-74 L 835.05,-64.7024
 L 835.392,-64.4804 L 835.792,-64.1563 L 836.156,-63.7921 L 836.48,-63.3919 L 836.761,-62.96 L 836.995,-62.5011
 L 837.179,-62.0204 L 837.312,-61.5229 L 837.393,-61.0143 L 837.42,-60.5 L 837.393,-59.9857 L 837.312,-59.4771
 L 837.179,-58.9796 L 836.995,-58.4989 L 836.761,-58.04 L 836.48,-57.6081 L 836.156,-57.2079 L 835.792,-56.8437
 L 835.392,-56.5196 L 834.96,-56.2392 L 834.501,-56.0054 L 834.02,-55.8208 L 833.523,-55.6875 L 833.014,-55.607
 L 832.5,-55.58 z
M 996.986,-55.607 L 996.477,-55.6875 L 995.98,-55.8208 L 995.499,-56.0054 L 995.04,-56.2392 L 994.608,-56.5196
 L 994.208,-56.8437 L 993.844,-57.2079 L 993.52,-57.6081 L 993.239,-58.04 L 993.005,-58.4989 L 992.821,-58.9796
 L 992.688,-59.4771 L 992.607,-59.9857 L 992.58,-60.5 L 992.607,-61.0143 L 992.688,-61.5229 L 992.821,-62.0204
 L 993.005,-62.5011 L 993.239,-62.96 L 993.52,-63.3919 L 993.844,-63.7921 L 994.208,-64.1563 L 994.608,-64.4804
 L 994.95,-64.7024 L 994.95,-74 L 995.006,-74.5302 L 995.17,-75.0372 L 995.437,-75.4988 L 995.794,-75.895
 L 996.225,-76.2084 L 996.712,-76.4252 L 997.233,-76.536 L 997.767,-76.536 L 998.288,-76.4252 L 998.775,-76.2084
 L 999.206,-75.895 L 999.563,-75.4988 L 999.83,-75.0372 L 999.994,-74.5302 L 1000.05,-74 L 1000.05,-64.7024
 L 1000.39,-64.4804 L 1000.79,-64.1563 L 1001.16,-63.7921 L 1001.48,-63.3919 L 1001.76,-62.96 L 1001.99,-62.5011
 L 1002.18,-62.0204 L 1002.31,-61.5229 L 1002.39,-61.0143 L 1002.42,-60.5 L 1002.39,-59.9857 L 1002.31,-59.4771
 L 1002.18,-58.9796 L 1001.99,-58.4989 L 1001.76,-58.04 L 1001.48,-57.6081 L 1001.16,-57.2079 L 1000.79,-56.8437
 L 1000.39,-56.5196 L 999.96,-56.2392 L 999.501,-56.0054 L 999.02,-55.8208 L 998.523,-55.6875 L 998.014,-55.607
 L 997.5,-55.58 z
M 844.559,-21.525 L 843.771,-21.8055 L 843.059,-22.2437 L 842.454,-22.8204 L 841.981,-23.5104 L 841.663,-24.2836
 L 841.5,-25.4128 L 841.5,-58 L 841.587,-58.8316 L 841.846,-59.627 L 842.264,-60.3511 L 842.823,-60.9726
 L 843.5,-61.4641 L 844.264,-61.8042 L 845.5,-62 L 924.572,-62 L 925.404,-61.9126 L 926.199,-61.6542
 L 926.923,-61.2361 L 927.545,-60.6765 L 928.036,-60 L 928.376,-59.2361 L 928.55,-58.4181 L 928.55,-57.5819
 L 928.376,-56.7639 L 928.036,-56 L 927.545,-55.3235 L 926.923,-54.7639 L 926.096,-54.3018 L 847.024,-21.7145
 L 846.222,-21.4785 L 845.388,-21.4144 z
M 323.778,-21.4785 L 322.976,-21.7145 L 243.904,-54.3018 L 243.077,-54.7639 L 242.455,-55.3235 L 241.964,-56
 L 241.624,-56.7639 L 241.45,-57.5819 L 241.45,-58.4181 L 241.624,-59.2361 L 241.964,-60 L 242.455,-60.6765
 L 243.077,-61.2361 L 243.801,-61.6542 L 244.596,-61.9126 L 245.428,-62 L 324.5,-62 L 325.736,-61.8042
 L 326.5,-61.4641 L 327.177,-60.9726 L 327.736,-60.3511 L 328.154,-59.627 L 328.413,-58.8316 L 328.5,-58
 L 328.5,-25.4128 L 328.337,-24.2836 L 328.019,-23.5104 L 327.546,-22.8204 L 326.941,-22.2437 L 326.229,-21.8055
 L 325.441,-21.525 L 324.612,-21.4144 z
M 158.778,-21.4785 L 157.976,-21.7145 L 78.9039,-54.3018 L 78.0769,-54.7639 L 77.4555,-55.3235 L 76.964,-56
 L 76.6238,-56.7639 L 76.45,-57.5819 L 76.45,-58.4181 L 76.6238,-59.2361 L 76.964,-60 L 77.4555,-60.6765
 L 78.0769,-61.2361 L 78.8011,-61.6542 L 79.5964,-61.9126 L 80.4281,-62 L 159.5,-62 L 160.736,-61.8042
 L 161.5,-61.4641 L 162.177,-60.9726 L 162.736,-60.3511 L 163.154,-59.627 L 163.413,-58.8316 L 163.5,-58
 L 163.5,-25.4128 L 163.337,-24.2836 L 163.019,-23.5104 L 162.546,-22.8204 L 161.941,-22.2437 L 161.229,-21.8055
 L 160.441,-21.525 L 159.612,-21.4144 z
M 488.778,-21.4785 L 487.976,-21.7145 L 408.904,-54.3018 L 408.077,-54.7639 L 407.455,-55.3235 L 406.964,-56
 L 406.624,-56.7639 L 406.45,-57.5819 L 406.45,-58.4181 L 406.624,-59.2361 L 406.964,-60 L 407.455,-60.6765
 L 408.077,-61.2361 L 408.801,-61.6542 L 409.596,-61.9126 L 410.428,-62 L 489.5,-62 L 490.736,-61.8042
 L 491.5,-61.4641 L 492.177,-60.9726 L 492.736,-60.3511 L 493.154,-59.627 L 493.413,-58.8316 L 493.5,-58
 L 493.5,-25.4128 L 493.337,-24.2836 L 493.019,-23.5104 L 492.546,-22.8204 L 491.941,-22.2437 L 491.229,-21.8055
 L 490.441,-21.525 L 489.612,-21.4144 z
M 514.559,-21.525 L 513.771,-21.8055 L 513.059,-22.2437 L 512.454,-22.8204 L 511.981,-23.5104 L 511.663,-24.2836
 L 511.5,-25.4128 L 511.5,-58 L 511.587,-58.8316 L 511.846,-59.627 L 512.264,-60.3511 L 512.823,-60.9726
 L 513.5,-61.4641 L 514.264,-61.8042 L 515.5,-62 L 594.572,-62 L 595.404,-61.9126 L 596.199,-61.6542
 L 596.923,-61.2361 L 597.545,-60.6765 L 598.036,-60 L 598.376,-59.2361 L 598.55,-58.4181 L 598.55,-57.5819
 L 598.376,-56.7639 L 598.036,-56 L 597.545,-55.3235 L 596.923,-54.7639 L 596.096,-54.3018 L 517.024,-21.7145
 L 516.222,-21.4785 L 515.388,-21.4144 z
M 679.559,-21.525 L 678.771,-21.8055 L 678.059,-22.2437 L 677.454,-22.8204 L 676.981,-23.5104 L 676.663,-24.2836
 L 676.5,-25.4128 L 676.5,-58 L 676.587,-58.8316 L 676.846,-59.627 L 677.264,-60.3511 L 677.823,-60.9726
 L 678.5,-61.4641 L 679.264,-61.8042 L 680.5,-62 L 759.572,-62 L 760.404,-61.9126 L 761.199,-61.6542
 L 761.923,-61.2361 L 762.545,-60.6765 L 763.036,-60 L 763.376,-59.2361 L 763.55,-58.4181 L 763.55,-57.5819
 L 763.376,-56.7639 L 763.036,-56 L 762.545,-55.3235 L 761.923,-54.7639 L 761.096,-54.3018 L 682.024,-21.7145
 L 681.222,-21.4785 L 680.388,-21.4144 z
M 185.5,-18 L 184.264,-18.1958 L 183.5,-18.5359 L 182.823,-19.0274 L 182.264,-19.6489 L 181.846,-20.373
 L 181.587,-21.1684 L 181.5,-22 L 181.5,-54.5872 L 181.663,-55.7164 L 181.981,-56.4895 L 182.454,-57.1796
 L 183.059,-57.7563 L 183.771,-58.1945 L 184.559,-58.475 L 185.388,-58.5856 L 186.222,-58.5215 L 187.024,-58.2854
 L 266.096,-25.6982 L 266.923,-25.2361 L 267.544,-24.6765 L 268.036,-24 L 268.376,-23.2361 L 268.55,-22.4181
 L 268.55,-21.5819 L 268.376,-20.7639 L 268.036,-20 L 267.544,-19.3235 L 266.923,-18.7639 L 266.199,-18.3458
 L 265.404,-18.0874 L 264.572,-18 z
M 350.5,-18 L 349.264,-18.1958 L 348.5,-18.5359 L 347.823,-19.0274 L 347.264,-19.6489 L 346.846,-20.373
 L 346.587,-21.1684 L 346.5,-22 L 346.5,-54.5872 L 346.663,-55.7164 L 346.981,-56.4895 L 347.454,-57.1796
 L 348.059,-57.7563 L 348.771,-58.1945 L 349.559,-58.475 L 350.388,-58.5856 L 351.222,-58.5215 L 352.024,-58.2854
 L 431.096,-25.6982 L 431.923,-25.2361 L 432.544,-24.6765 L 433.036,-24 L 433.376,-23.2361 L 433.55,-22.4181
 L 433.55,-21.5819 L 433.376,-20.7639 L 433.036,-20 L 432.544,-19.3235 L 431.923,-18.7639 L 431.199,-18.3458
 L 430.404,-18.0874 L 429.572,-18 z
M 575.428,-18 L 574.596,-18.0874 L 573.801,-18.3458 L 573.077,-18.7639 L 572.456,-19.3235 L 571.964,-20
 L 571.624,-20.7639 L 571.45,-21.5819 L 571.45,-22.4181 L 571.624,-23.2361 L 571.964,-24 L 572.456,-24.6765
 L 573.077,-25.2361 L 573.904,-25.6982 L 652.976,-58.2854 L 653.778,-58.5215 L 654.612,-58.5856 L 655.441,-58.475
 L 656.229,-58.1945 L 656.941,-57.7563 L 657.546,-57.1796 L 658.019,-56.4895 L 658.337,-55.7164 L 658.5,-54.5872
 L 658.5,-22 L 658.413,-21.1684 L 658.154,-20.373 L 657.736,-19.6489 L 657.177,-19.0274 L 656.5,-18.5359
 L 655.736,-18.1958 L 654.5,-18 z
M 740.428,-18 L 739.596,-18.0874 L 738.801,-18.3458 L 738.077,-18.7639 L 737.456,-19.3235 L 736.964,-20
 L 736.624,-20.7639 L 736.45,-21.5819 L 736.45,-22.4181 L 736.624,-23.2361 L 736.964,-24 L 737.456,-24.6765
 L 738.077,-25.2361 L 738.904,-25.6982 L 817.976,-58.2854 L 818.778,-58.5215 L 819.612,-58.5856 L 820.441,-58.475
 L 821.229,-58.1945 L 821.941,-57.7563 L 822.546,-57.1796 L 823.019,-56.4895 L 823.337,-55.7164 L 823.5,-54.5872
 L 823.5,-22 L 823.413,-21.1684 L 823.154,-20.373 L 822.736,-19.6489 L 822.177,-19.0274 L 821.5,-18.5359
 L 820.736,-18.1958 L 819.5,-18 z
M 905.428,-18 L 904.596,-18.0874 L 903.801,-18.3458 L 903.077,-18.7639 L 902.456,-19.3235 L 901.964,-20
 L 901.624,-20.7639 L 901.45,-21.5819 L 901.45,-22.4181 L 901.624,-23.2361 L 901.964,-24 L 902.456,-24.6765
 L 903.077,-25.2361 L 903.904,-25.6982 L 981.476,-57.6673 L 982.278,-57.9033 L 983.112,-57.9675 L 983.941,-57.8568
 L 984.729,-57.5763 L 985.441,-57.1381 L 986.046,-56.5614 L 986.519,-55.8714 L 986.837,-55.0982 L 987,-53.969
 L 987,-22 L 986.913,-21.1684 L 986.654,-20.373 L 986.236,-19.6489 L 985.677,-19.0274 L 985,-18.5359
 L 984.236,-18.1958 L 983,-18 z
M 22,-18 L 20.7639,-18.1958 L 20,-18.5359 L 19.3235,-19.0274 L 18.7639,-19.6489 L 18.3458,-20.373
 L 18.0874,-21.1684 L 18,-22 L 18,-53.969 L 18.1627,-55.0982 L 18.4813,-55.8714 L 18.9537,-56.5614
 L 19.5593,-57.1381 L 20.2715,-57.5763 L 21.0593,-57.8568 L 21.8882,-57.9675 L 22.7219,-57.9033 L 23.5241,-57.6673
 L 101.096,-25.6982 L 101.923,-25.2361 L 102.544,-24.6765 L 103.036,-24 L 103.376,-23.2361 L 103.55,-22.4181
 L 103.55,-21.5819 L 103.376,-20.7639 L 103.036,-20 L 102.544,-19.3235 L 101.923,-18.7639 L 101.199,-18.3458
 L 100.404,-18.0874 L 99.5719,-18 z
" stroke="black" fill="lightgray" stroke-width="0.5"/>
</svg>
