<?xml version="1.0" standalone="no"?>
<!DOCTYPE svg PUBLIC "-//W3C//DTD SVG 1.1//EN" "http://www.w3.org/Graphics/SVG/1.1/DTD/svg11.dtd">
<svg width="1052mm" height="80mm" viewBox="0 -80 1052 80" xmlns="http://www.w3.org/2000/svg" version="1.1">
<title>OpenSCAD Model</title>
<path d="
M 1052,-80 L 0,-80 L 0,-0 L 4.95,-0 L 4.95,-6 L 5.00572,-6.53017
 L 5.17046,-7.03717 L 5.437,-7.49884 L 5.79372,-7.895 L 6.22499,-8.20836 L 6.71201,-8.42519 L 7.23344,-8.53603
 L 7.76654,-8.53603 L 8.28798,-8.42519 L 8.77499,-8.20836 L 9.20627,-7.895 L 9.56299,-7.49884 L 9.82953,-7.03717
 L 9.99426,-6.53017 L 10.05,-6 L 10.05,-0 L 177.783,-0 L 177.783,-6 L 177.839,-6.53017
 L 178.004,-7.03717 L 178.27,-7.49884 L 178.627,-7.895 L 179.058,-8.20836 L 179.545,-8.42519 L 180.067,-8.53603
 L 180.6,-8.53603 L 181.121,-8.42519 L 181.608,-8.20836 L 182.04,-7.895 L 182.396,-7.49884 L 182.663,-7.03717
 L 182.828,-6.53017 L 182.883,-6 L 182.883,-0 L 350.617,-0 L 350.617,-6 L 350.672,-6.53017
 L 350.837,-7.03717 L 351.104,-7.49884 L 351.46,-7.895 L 351.892,-8.20836 L 352.379,-8.42519 L 352.9,-8.53603
 L 353.433,-8.53603 L 353.955,-8.42519 L 354.442,-8.20836 L 354.873,-7.895 L 355.23,-7.49884 L 355.496,-7.03717
 L 355.661,-6.53017 L 355.717,-6 L 355.717,-0 L 523.45,-0 L 523.45,-6 L 523.506,-6.53017
 L 523.67,-7.03717 L 523.937,-7.49884 L 524.294,-7.895 L 524.725,-8.20836 L 525.212,-8.42519 L 525.733,-8.53603
 L 526.267,-8.53603 L 526.788,-8.42519 L 527.275,-8.20836 L 527.706,-7.895 L 528.063,-7.49884 L 528.33,-7.03717
 L 528.494,-6.53017 L 528.55,-6 L 528.55,-0 L 696.283,-0 L 696.283,-6 L 696.339,-6.53017
 L 696.504,-7.03717 L 696.77,-7.49884 L 697.127,-7.895 L 697.558,-8.20836 L 698.045,-8.42519 L 698.567,-8.53603
 L 699.1,-8.53603 L 699.621,-8.42519 L 700.108,-8.20836 L 700.54,-7.895 L 700.896,-7.49884 L 701.163,-7.03717
 L 701.328,-6.53017 L 701.383,-6 L 701.383,-0 L 869.117,-0 L 869.117,-6 L 869.172,-6.53017
 L 869.337,-7.03717 L 869.604,-7.49884 L 869.96,-7.895 L 870.392,-8.20836 L 870.879,-8.42519 L 871.4,-8.53603
 L 871.933,-8.53603 L 872.455,-8.42519 L 872.942,-8.20836 L 873.373,-7.895 L 873.73,-7.49884 L 873.996,-7.03717
 L 874.161,-6.53017 L 874.217,-6 L 874.217,-0 L 1041.95,-0 L 1041.95,-6 L 1042.01,-6.53017
 L 1042.17,-7.03717 L 1042.44,-7.49884 L 1042.79,-7.895 L 1043.22,-8.20836 L 1043.71,-8.42519 L 1044.23,-8.53603
 L 1044.77,-8.53603 L 1045.29,-8.42519 L 1045.77,-8.20836 L 1046.21,-7.895 L 1046.56,-7.49884 L 1046.83,-7.03717
 L 1046.99,-6.53017 L 1047.05,-6 L 1047.05,-0 L 1052,-0 z
M 6.98573,-55.607 L 6.47708,-55.6875 L 5.97964,-55.8208 L 5.49887,-56.0054 L 5.04001,-56.2392 L 4.60811,-56.5196
 L 4.20789,-56.8437 L 3.84373,-57.2079 L 3.51964,-57.6081 L 3.23917,-58.04 L 3.00537,-58.4989 L 2.82082,-58.9796
 L 2.68752,-59.4771 L 2.60696,-59.9857 L 2.58,-60.5 L 2.60696,-61.0143 L 2.68752,-61.5229 L 2.82082,-62.0204
 L 3.00537,-62.5011 L 3.23917,-62.96 L 3.51964,-63.3919 L 3.84373,-63.7921 L 4.20789,-64.1563 L 4.60811,-64.4804
 L 4.95001,-64.7024 L 4.95001,-74 L 5.00574,-74.5302 L 5.17047,-75.0372 L 5.43701,-75.4988 L 5.79373,-75.895
 L 6.22501,-76.2084 L 6.71202,-76.4252 L 7.23346,-76.536 L 7.76654,-76.536 L 8.28798,-76.4252 L 8.77499,-76.2084
 L 9.20627,-75.895 L 9.56299,-75.4988 L 9.82953,-75.0372 L 9.99426,-74.5302 L 10.05,-74 L 10.05,-64.7024
 L 10.3919,-64.4804 L 10.7921,-64.1563 L 11.1563,-63.7921 L 11.4804,-63.3919 L 11.7608,-62.96 L 11.9946,-62.5011
 L 12.1792,-62.0204 L 12.3125,-61.5229 L 12.393,-61.0143 L 12.42,-60.5 L 12.393,-59.9857 L 12.3125,-59.4771
 L 12.1792,-58.9796 L 11.9946,-58.4989 L 11.7608,-58.04 L 11.4804,-57.6081 L 11.1563,-57.2079 L 10.7921,-56.8437
 L 10.3919,-56.5196 L 9.95999,-56.2392 L 9.50113,-56.0054 L 9.02036,-55.8208 L 8.52292,-55.6875 L 8.01427,-55.607
 L 7.5,-55.58 z
M 179.819,-55.607 L 179.31,-55.6875 L 178.813,-55.8208 L 178.332,-56.0054 L 177.873,-56.2392 L 177.441,-56.5196
 L 177.041,-56.8437 L 176.677,-57.2079 L 176.353,-57.6081 L 176.072,-58.04 L 175.839,-58.4989 L 175.654,-58.9796
 L 175.521,-59.4771 L 175.44,-59.9857 L 175.413,-60.5 L 175.44,-61.0143 L 175.521,-61.5229 L 175.654,-62.0204
 L 175.839,-62.5011 L 176.072,-62.96 L 176.353,-63.3919 L 176.677,-63.7921 L 177.041,-64.1563 L 177.441,-64.4804
 L 177.783,-64.7024 L 177.783,-74 L 177.839,-74.5302 L 178.004,-75.0372 L 178.27,-75.4988 L 178.627,-75.895
 L 179.058,-76.2084 L 179.545,-76.4252 L 180.067,-76.536 L 180.6,-76.536 L 181.121,-76.4252 L 181.608,-76.2084
 L 182.04,-75.895 L 182.396,-75.4988 L 182.663,-75.0372 L 182.828,-74.5302 L 182.883,-74 L 182.883,-64.7024
 L 183.225,-64.4804 L 183.625,-64.1563 L 183.99,-63.7921 L 184.314,-63.3919 L 184.594,-62.96 L 184.828,-62.5011
 L 185.013,-62.0204 L 185.146,-61.5229 L 185.226,-61.0143 L 185.253,-60.5 L 185.226,-59.9857 L 185.146,-59.4771
 L 185.013,-58.9796 L 184.828,-58.4989 L 184.594,-58.04 L 184.314,-57.6081 L 183.99,-57.2079 L 183.625,-56.8437
 L 183.225,-56.5196 L 182.793,-56.2392 L 182.334,-56.0054 L 181.854,-55.8208 L 181.356,-55.6875 L 180.848,-55.607
 L 180.333,-55.58 z
M 352.652,-55.607 L 352.144,-55.6875 L 351.646,-55.8208 L 351.166,-56.0054 L 350.707,-56.2392 L 350.275,-56.5196
 L 349.875,-56.8437 L 349.51,-57.2079 L 349.186,-57.6081 L 348.906,-58.04 L 348.672,-58.4989 L 348.487,-58.9796
 L 348.354,-59.4771 L 348.274,-59.9857 L 348.247,-60.5 L 348.274,-61.0143 L 348.354,-61.5229 L 348.487,-62.0204
 L 348.672,-62.5011 L 348.906,-62.96 L 349.186,-63.3919 L 349.51,-63.7921 L 349.875,-64.1563 L 350.275,-64.4804
 L 350.617,-64.7024 L 350.617,-74 L 350.672,-74.5302 L 350.837,-75.0372 L 351.104,-75.4988 L 351.46,-75.895
 L 351.892,-76.2084 L 352.379,-76.4252 L 352.9,-76.536 L 353.433,-76.536 L 353.955,-76.4252 L 354.442,-76.2084
 L 354.873,-75.895 L 355.23,-75.4988 L 355.496,-75.0372 L 355.661,-74.5302 L 355.717,-74 L 355.717,-64.7024
 L 356.059,-64.4804 L 356.459,-64.1563 L 356.823,-63.7921 L 357.147,-63.3919 L 357.427,-62.96 L 357.661,-62.5011
 L 357.846,-62.0204 L 357.979,-61.5229 L 358.06,-61.0143 L 358.087,-60.5 L 358.06,-59.9857 L 357.979,-59.4771
 L 357.846,-58.9796 L 357.661,-58.4989 L 357.427,-58.04 L 357.147,-57.6081 L 356.823,-57.2079 L 356.459,-56.8437
 L 356.059,-56.5196 L 355.627,-56.2392 L 355.168,-56.0054 L 354.687,-55.8208 L 354.19,-55.6875 L 353.681,-55.607
 L 353.167,-55.58 z
M 525.486,-55.607 L 524.977,-55.6875 L 524.48,-55.8208 L 523.999,-56.0054 L 523.54,-56.2392 L 523.108,-56.5196
 L 522.708,-56.8437 L 522.344,-57.2079 L 522.02,-57.6081 L 521.739,-58.04 L 521.505,-58.4989 L 521.321,-58.9796
 L 521.188,-59.4771 L 521.107,-59.9857 L 521.08,-60.5 L 521.107,-61.0143 L 521.188,-61.5229 L 521.321,-62.0204
 L 521.505,-62.5011 L 521.739,-62.96 L 522.02,-63.3919 L 522.344,-63.7921 L 522.708,-64.1563 L 523.108,-64.4804
 L 523.45,-64.7024 L 523.45,-74 L 523.506,-74.5302 L 523.67,-75.0372 L 523.937,-75.4988 L 524.294,-75.895
 L 524.725,-76.2084 L 525.212,-76.4252 L 525.733,-76.536 L 526.267,-76.536 L 526.788,-76.4252 L 527.275,-76.2084
 L 527.706,-75.895 L 528.063,-75.4988 L 528.33,-75.0372 L 528.494,-74.5302 L 528.55,-74 L 528.55,-64.7024
 L 528.892,-64.4804 L 529.292,-64.1563 L 529.656,-63.7921 L 529.98,-63.3919 L 530.261,-62.96 L 530.495,-62.5011
 L 530.679,-62.0204 L 530.812,-61.5229 L 530.893,-61.0143 L 530.92,-60.5 L 530.893,-59.9857 L 530.812,-59.4771
 L 530.679,-58.9796 L 530.495,-58.4989 L 530.261,-58.04 L 529.98,-57.6081 L 529.656,-57.2079 L 529.292,-56.8437
 L 528.892,-56.5196 L 528.46,-56.2392 L 528.001,-56.0054 L 527.52,-55.8208 L 527.023,-55.6875 L 526.514,-55.607
 L 526,-55.58 z
M 698.319,-55.607 L 697.81,-55.6875 L 697.313,-55.8208 L 696.832,-56.0054 L 696.373,-56.2392 L 695.941,-56.5196
 L 695.541,-56.8437 L 695.177,-57.2079 L 694.853,-57.6081 L 694.572,-58.04 L 694.339,-58.4989 L 694.154,-58.9796
 L 694.021,-59.4771 L 693.94,-59.9857 L 693.913,-60.5 L 693.94,-61.0143 L 694.021,-61.5229 L 694.154,-62.0204
 L 694.339,-62.5011 L 694.572,-62.96 L 694.853,-63.3919 L 695.177,-63.7921 L 695.541,-64.1563 L 695.941,-64.4804
 L 696.283,-64.7024 L 696.283,-74 L 696.339,-74.5302 L 696.504,-75.0372 L 696.77,-75.4988 L 697.127,-75.895
 L 697.558,-76.2084 L 698.045,-76.4252 L 698.567,-76.536 L 699.1,-76.536 L 699.621,-76.4252 L 700.108,-76.2084
 L 700.54,-75.895 L 700.896,-75.4988 L 701.163,-75.0372 L 701.328,-74.5302 L 701.383,-74 L 701.383,-64.7024
 L 701.725,-64.4804 L 702.125,-64.1563 L 702.49,-63.7921 L 702.814,-63.3919 L 703.094,-62.96 L 703.328,-62.5011
 L 703.513,-62.0204 L 703.646,-61.5229 L 703.726,-61.0143 L 703.753,-60.5 L 703.726,-59.9857 L 703.646,-59.4771
 L 703.513,-58.9796 L 703.328,-58.4989 L 703.094,-58.04 L 702.814,-57.6081 L 702.49,-57.2079 L 702.125,-56.8437
 L 701.725,-56.5196 L 701.293,-56.2392 L 700.834,-56.0054 L 700.354,-55.8208 L 699.856,-55.6875 L 699.348,-55.607
 L 698.833,-55.58 z
M 871.152,-55.607 L 870.644,-55.6875 L 870.146,-55.8208 L 869.666,-56.0054 L 869.207,-56.2392 L 868.775,-56.5196
 L 868.375,-56.8437 L 868.01,-57.2079 L 867.686,-57.6081 L 867.406,-58.04 L 867.172,-58.4989 L 866.987,-58.9796
 L 866.854,-59.4771 L 866.774,-59.9857 L 866.747,-60.5 L 866.774,-61.0143 L 866.854,-61.5229 L 866.987,-62.0204
 L 867.172,-62.5011 L 867.406,-62.96 L 867.686,-63.3919 L 868.01,-63.7921 L 868.375,-64.1563 L 868.775,-64.4804
 L 869.117,-64.7024 L 869.117,-74 L 869.172,-74.5302 L 869.337,-75.0372 L 869.604,-75.4988 L 869.96,-75.895
 L 870.392,-76.2084 L 870.879,-76.4252 L 871.4,-76.536 L 871.933,-76.536 L 872.455,-76.4252 L 872.942,-76.2084
 L 873.373,-75.895 L 873.73,-75.4988 L 873.996,-75.0372 L 874.161,-74.5302 L 874.217,-74 L 874.217,-64.7024
 L 874.559,-64.4804 L 874.959,-64.1563 L 875.323,-63.7921 L 875.647,-63.3919 L 875.927,-62.96 L 876.161,-62.5011
 L 876.346,-62.0204 L 876.479,-61.5229 L 876.56,-61.0143 L 876.587,-60.5 L 876.56,-59.9857 L 876.479,-59.4771
 L 876.346,-58.9796 L 876.161,-58.4989 L 875.927,-58.04 L 875.647,-57.6081 L 875.323,-57.2079 L 874.959,-56.8437
 L 874.559,-56.5196 L 874.127,-56.2392 L 873.668,-56.0054 L 873.187,-55.8208 L 872.69,-55.6875 L 872.181,-55.607
 L 871.667,-55.58 z
M 1043.99,-55.607 L 1043.48,-55.6875 L 1042.98,-55.8208 L 1042.5,-56.0054 L 1042.04,-56.2392 L 1041.61,-56.5196
 L 1041.21,-56.8437 L 1040.84,-57.2079 L 1040.52,-57.6081 L 1040.24,-58.04 L 1040.01,-58.4989 L 1039.82,-58.9796
 L 1039.69,-59.4771 L 1039.61,-59.9857 L 1039.58,-60.5 L 1039.61,-61.0143 L 1039.69,-61.5229 L 1039.82,-62.0204
 L 1040.01,-62.5011 L 1040.24,-62.96 L 1040.52,-63.3919 L 1040.84,-63.7921 L 1041.21,-64.1563 L 1041.61,-64.4804
 L 1041.95,-64.7024 L 1041.95,-74 L 1042.01,-74.5302 L 1042.17,-75.0372 L 1042.44,-75.4988 L 1042.79,-75.895
 L 1043.23,-76.2084 L 1043.71,-76.4252 L 1044.23,-76.536 L 1044.77,-76.536 L 1045.29,-76.4252 L 1045.77,-76.2084
 L 1046.21,-75.895 L 1046.56,-75.4988 L 1046.83,-75.0372 L 1046.99,-74.5302 L 1047.05,-74 L 1047.05,-64.7024
 L 1047.39,-64.4804 L 1047.79,-64.1563 L 1048.16,-63.7921 L 1048.48,-63.3919 L 1048.76,-62.96 L 1048.99,-62.5011
 L 1049.18,-62.0204 L 1049.31,-61.5229 L 1049.39,-61.0143 L 1049.42,-60.5 L 1049.39,-59.9857 L 1049.31,-59.4771
 L 1049.18,-58.9796 L 1048.99,-58.4989 L 1048.76,-58.04 L 1048.48,-57.6081 L 1048.16,-57.2079 L 1047.79,-56.8437
 L 1047.39,-56.5196 L 1046.96,-56.2392 L 1046.5,-56.0054 L 1046.02,-55.8208 L 1045.52,-55.6875 L 1045.01,-55.607
 L 1044.5,-55.58 z
M 883.664,-21.199 L 882.88,-21.4922 L 882.175,-21.9418 L 881.579,-22.5281 L 881.118,-23.2256 L 880.812,-24.0038
 L 880.667,-25.0712 L 880.667,-58 L 880.754,-58.8316 L 881.012,-59.627 L 881.431,-60.3511 L 881.99,-60.9726
 L 882.667,-61.4641 L 883.431,-61.8042 L 884.667,-62 L 968.361,-62 L 969.192,-61.9126 L 969.988,-61.6542
 L 970.712,-61.2361 L 971.333,-60.6765 L 971.825,-60 L 972.165,-59.2361 L 972.339,-58.4181 L 972.339,-57.5819
 L 972.165,-56.7639 L 971.825,-56 L 971.333,-55.3235 L 970.712,-54.7639 L 969.825,-54.2777 L 886.131,-21.3489
 L 885.325,-21.1258 L 884.491,-21.0751 z
M 339.508,-21.1258 L 338.702,-21.3489 L 255.008,-54.2777 L 254.121,-54.7639 L 253.5,-55.3235 L 253.009,-56
 L 252.668,-56.7639 L 252.495,-57.5819 L 252.495,-58.4181 L 252.668,-59.2361 L 253.009,-60 L 253.5,-60.6765
 L 254.121,-61.2361 L 254.846,-61.6542 L 255.641,-61.9126 L 256.473,-62 L 340.167,-62 L 341.403,-61.8042
 L 342.167,-61.4641 L 342.843,-60.9726 L 343.403,-60.3511 L 343.821,-59.627 L 344.079,-58.8316 L 344.167,-58
 L 344.167,-25.0712 L 344.022,-24.0038 L 343.715,-23.2256 L 343.254,-22.5281 L 342.658,-21.9418 L 341.953,-21.4922
 L 341.17,-21.199 L 340.343,-21.0751 z
M 166.675,-21.1258 L 165.869,-21.3489 L 82.1748,-54.2777 L 81.2881,-54.7639 L 80.6667,-55.3235 L 80.1752,-56
 L 79.8351,-56.7639 L 79.6612,-57.5819 L 79.6612,-58.4181 L 79.8351,-59.2361 L 80.1752,-60 L 80.6667,-60.6765
 L 81.2881,-61.2361 L 82.0123,-61.6542 L 82.8076,-61.9126 L 83.6393,-62 L 167.333,-62 L 168.569,-61.8042
 L 169.333,-61.4641 L 170.01,-60.9726 L 170.569,-60.3511 L 170.988,-59.627 L 171.246,-58.8316 L 171.333,-58
 L 171.333,-25.0712 L 171.188,-24.0038 L 170.882,-23.2256 L 170.421,-22.5281 L 169.825,-21.9418 L 169.12,-21.4922
 L 168.336,-21.199 L 167.509,-21.0751 z
M 512.341,-21.1258 L 511.535,-21.3489 L 427.841,-54.2777 L 426.955,-54.7639 L 426.333,-55.3235 L 425.842,-56
 L 425.502,-56.7639 L 425.328,-57.5819 L 425.328,-58.4181 L 425.502,-59.2361 L 425.842,-60 L 426.333,-60.6765
 L 426.955,-61.2361 L 427.679,-61.6542 L 428.474,-61.9126 L 429.306,-62 L 513,-62 L 514.236,-61.8042
 L 515,-61.4641 L 515.677,-60.9726 L 516.236,-60.3511 L 516.654,-59.627 L 516.913,-58.8316 L 517,-58
 L 517,-25.0712 L 516.855,-24.0038 L 516.549,-23.2256 L 516.088,-22.5281 L 515.491,-21.9418 L 514.786,-21.4922
 L 514.003,-21.199 L 513.176,-21.0751 z
M 537.997,-21.199 L 537.214,-21.4922 L 536.509,-21.9418 L 535.912,-22.5281 L 535.451,-23.2256 L 535.145,-24.0038
 L 535,-25.0712 L 535,-58 L 535.087,-58.8316 L 535.346,-59.627 L 535.764,-60.3511 L 536.323,-60.9726
 L 537,-61.4641 L 537.764,-61.8042 L 539,-62 L 622.694,-62 L 623.526,-61.9126 L 624.321,-61.6542
 L 625.045,-61.2361 L 625.667,-60.6765 L 626.158,-60 L 626.498,-59.2361 L 626.672,-58.4181 L 626.672,-57.5819
 L 626.498,-56.7639 L 626.158,-56 L 625.667,-55.3235 L 625.045,-54.7639 L 624.159,-54.2777 L 540.464,-21.3489
 L 539.659,-21.1258 L 538.824,-21.0751 z
M 710.83,-21.199 L 710.047,-21.4922 L 709.342,-21.9418 L 708.746,-22.5281 L 708.285,-23.2256 L 707.978,-24.0038
 L 707.833,-25.0712 L 707.833,-58 L 707.921,-58.8316 L 708.179,-59.627 L 708.597,-60.3511 L 709.157,-60.9726
 L 709.833,-61.4641 L 710.597,-61.8042 L 711.833,-62 L 795.527,-62 L 796.359,-61.9126 L 797.154,-61.6542
 L 797.879,-61.2361 L 798.5,-60.6765 L 798.991,-60 L 799.332,-59.2361 L 799.505,-58.4181 L 799.505,-57.5819
 L 799.332,-56.7639 L 798.991,-56 L 798.5,-55.3235 L 797.879,-54.7639 L 796.992,-54.2777 L 713.298,-21.3489
 L 712.492,-21.1258 L 711.657,-21.0751 z
M 193.333,-18 L 192.097,-18.1958 L 191.333,-18.5359 L 190.657,-19.0274 L 190.097,-19.6489 L 189.679,-20.373
 L 189.421,-21.1684 L 189.333,-22 L 189.333,-54.9288 L 189.478,-55.9962 L 189.785,-56.7743 L 190.246,-57.4718
 L 190.842,-58.0582 L 191.547,-58.5078 L 192.33,-58.801 L 193.157,-58.9249 L 193.992,-58.8742 L 194.798,-58.651
 L 278.492,-25.7223 L 279.378,-25.2361 L 280,-24.6765 L 280.491,-24 L 280.832,-23.2361 L 281.005,-22.4181
 L 281.005,-21.5819 L 280.832,-20.7639 L 280.491,-20 L 280,-19.3235 L 279.378,-18.7639 L 278.654,-18.3458
 L 277.859,-18.0874 L 277.027,-18 z
M 366.167,-18 L 364.931,-18.1958 L 364.167,-18.5359 L 363.49,-19.0274 L 362.931,-19.6489 L 362.512,-20.373
 L 362.254,-21.1684 L 362.167,-22 L 362.167,-54.9288 L 362.312,-55.9962 L 362.618,-56.7743 L 363.079,-57.4718
 L 363.675,-58.0582 L 364.38,-58.5078 L 365.164,-58.801 L 365.991,-58.9249 L 366.825,-58.8742 L 367.631,-58.651
 L 451.325,-25.7223 L 452.212,-25.2361 L 452.833,-24.6765 L 453.325,-24 L 453.665,-23.2361 L 453.839,-22.4181
 L 453.839,-21.5819 L 453.665,-20.7639 L 453.325,-20 L 452.833,-19.3235 L 452.212,-18.7639 L 451.488,-18.3458
 L 450.692,-18.0874 L 449.861,-18 z
M 602.139,-18 L 601.308,-18.0874 L 600.512,-18.3458 L 599.788,-18.7639 L 599.167,-19.3235 L 598.675,-20
 L 598.335,-20.7639 L 598.161,-21.5819 L 598.161,-22.4181 L 598.335,-23.2361 L 598.675,-24 L 599.167,-24.6765
 L 599.788,-25.2361 L 600.675,-25.7223 L 684.369,-58.651 L 685.175,-58.8742 L 686.009,-58.9249 L 686.836,-58.801
 L 687.62,-58.5078 L 688.325,-58.0582 L 688.921,-57.4718 L 689.382,-56.7743 L 689.688,-55.9962 L 689.833,-54.9288
 L 689.833,-22 L 689.746,-21.1684 L 689.488,-20.373 L 689.069,-19.6489 L 688.51,-19.0274 L 687.833,-18.5359
 L 687.069,-18.1958 L 685.833,-18 z
M 774.973,-18 L 774.141,-18.0874 L 773.346,-18.3458 L 772.621,-18.7639 L 772,-19.3235 L 771.509,-20
 L 771.168,-20.7639 L 770.995,-21.5819 L 770.995,-22.4181 L 771.168,-23.2361 L 771.509,-24 L 772,-24.6765
 L 772.621,-25.2361 L 773.508,-25.7223 L 857.202,-58.651 L 858.008,-58.8742 L 858.843,-58.9249 L 859.67,-58.801
 L 860.453,-58.5078 L 861.158,-58.0582 L 861.754,-57.4718 L 862.215,-56.7743 L 862.522,-55.9962 L 862.667,-54.9288
 L 862.667,-22 L 862.579,-21.1684 L 862.321,-20.373 L 861.903,-19.6489 L 861.343,-19.0274 L 860.667,-18.5359
 L 859.903,-18.1958 L 858.667,-18 z
M 947.806,-18 L 946.974,-18.0874 L 946.179,-18.3458 L 945.455,-18.7639 L 944.833,-19.3235 L 944.342,-20
 L 944.002,-20.7639 L 943.828,-21.5819 L 943.828,-22.4181 L 944.002,-23.2361 L 944.342,-24 L 944.833,-24.6765
 L 945.455,-25.2361 L 946.341,-25.7223 L 1028.54,-58.0609 L 1029.34,-58.284 L 1030.18,-58.3347 L 1031,-58.2108
 L 1031.79,-57.9176 L 1032.49,-57.468 L 1033.09,-56.8817 L 1033.55,-56.1842 L 1033.85,-55.406 L 1034,-54.3386
 L 1034,-22 L 1033.91,-21.1684 L 1033.65,-20.373 L 1033.24,-19.6489 L 1032.68,-19.0274 L 1032,-18.5359
 L 1031.24,-18.1958 L 1030,-18 z
M 22,-18 L 20.7639,-18.1958 L 20,-18.5359 L 19.3235,-19.0274 L 18.7639,-19.6489 L 18.3458,-20.373
 L 18.0874,-21.1684 L 18,-22 L 18,-54.3386 L 18.1451,-55.406 L 18.4512,-56.1842 L 18.9125,-56.8817
 L 19.5087,-57.468 L 20.2138,-57.9176 L 20.9969,-58.2108 L 21.8239,-58.3347 L 22.6586,-58.284 L 23.4645,-58.0609
 L 105.659,-25.7223 L 106.545,-25.2361 L 107.167,-24.6765 L 107.658,-24 L 107.998,-23.2361 L 108.172,-22.4181
 L 108.172,-21.5819 L 107.998,-20.7639 L 107.658,-20 L 107.167,-19.3235 L 106.545,-18.7639 L 105.821,-18.3458
 L 105.026,-18.0874 L 104.194,-18 z
" stroke="black" fill="lightgray" stroke-width="0.5"/>
</svg>
