<?xml version="1.0" standalone="no"?>
<!DOCTYPE svg PUBLIC "-//W3C//DTD SVG 1.1//EN" "http://www.w3.org/Graphics/SVG/1.1/DTD/svg11.dtd">
<svg width="1446mm" height="80mm" viewBox="0 -80 1446 80" xmlns="http://www.w3.org/2000/svg" version="1.1">
<title>OpenSCAD Model</title>
<path d="
M 1446,-80 L 0,-80 L 0,-0 L 4.95,-0 L 4.95,-6 L 5.00572,-6.53017
 L 5.17046,-7.03717 L 5.437,-7.49884 L 5.79372,-7.895 L 6.22499,-8.20836 L 6.71201,-8.42519 L 7.23344,-8.53603
 L 7.76654,-8.53603 L 8.28798,-8.42519 L 8.77499,-8.20836 L 9.20627,-7.895 L 9.56299,-7.49884 L 9.82953,-7.03717
 L 9.99426,-6.53017 L 10.05,-6 L 10.05,-0 L 183.825,-0 L 183.825,-6 L 183.881,-6.53017
 L 184.045,-7.03717 L 184.312,-7.49884 L 184.669,-7.895 L 185.1,-8.20836 L 185.587,-8.42519 L 186.108,-8.53603
 L 186.642,-8.53603 L 187.163,-8.42519 L 187.65,-8.20836 L 188.081,-7.895 L 188.438,-7.49884 L 188.705,-7.03717
 L 188.869,-6.53017 L 188.925,-6 L 188.925,-0 L 362.7,-0 L 362.7,-6 L 362.756,-6.53017
 L 362.92,-7.03717 L 363.187,-7.49884 L 363.544,-7.895 L 363.975,-8.20836 L 364.462,-8.42519 L 364.983,-8.53603
 L 365.517,-8.53603 L 366.038,-8.42519 L 366.525,-8.20836 L 366.956,-7.895 L 367.313,-7.49884 L 367.58,-7.03717
 L 367.744,-6.53017 L 367.8,-6 L 367.8,-0 L 541.575,-0 L 541.575,-6 L 541.631,-6.53017
 L 541.795,-7.03717 L 542.062,-7.49884 L 542.419,-7.895 L 542.85,-8.20836 L 543.337,-8.42519 L 543.858,-8.53603
 L 544.392,-8.53603 L 544.913,-8.42519 L 545.4,-8.20836 L 545.831,-7.895 L 546.188,-7.49884 L 546.455,-7.03717
 L 546.619,-6.53017 L 546.675,-6 L 546.675,-0 L 720.45,-0 L 720.45,-6 L 720.506,-6.53017
 L 720.67,-7.03717 L 720.937,-7.49884 L 721.294,-7.895 L 721.725,-8.20836 L 722.212,-8.42519 L 722.733,-8.53603
 L 723.267,-8.53603 L 723.788,-8.42519 L 724.275,-8.20836 L 724.706,-7.895 L 725.063,-7.49884 L 725.33,-7.03717
 L 725.494,-6.53017 L 725.55,-6 L 725.55,-0 L 899.325,-0 L 899.325,-6 L 899.381,-6.53017
 L 899.545,-7.03717 L 899.812,-7.49884 L 900.169,-7.895 L 900.6,-8.20836 L 901.087,-8.42519 L 901.608,-8.53603
 L 902.142,-8.53603 L 902.663,-8.42519 L 903.15,-8.20836 L 903.581,-7.895 L 903.938,-7.49884 L 904.205,-7.03717
 L 904.369,-6.53017 L 904.425,-6 L 904.425,-0 L 1078.2,-0 L 1078.2,-6 L 1078.26,-6.53017
 L 1078.42,-7.03717 L 1078.69,-7.49884 L 1079.04,-7.895 L 1079.47,-8.20836 L 1079.96,-8.42519 L 1080.48,-8.53603
 L 1081.02,-8.53603 L 1081.54,-8.42519 L 1082.02,-8.20836 L 1082.46,-7.895 L 1082.81,-7.49884 L 1083.08,-7.03717
 L 1083.24,-6.53017 L 1083.3,-6 L 1083.3,-0 L 1257.07,-0 L 1257.07,-6 L 1257.13,-6.53017
 L 1257.3,-7.03717 L 1257.56,-7.49884 L 1257.92,-7.895 L 1258.35,-8.20836 L 1258.84,-8.42519 L 1259.36,-8.53603
 L 1259.89,-8.53603 L 1260.41,-8.42519 L 1260.9,-8.20836 L 1261.33,-7.895 L 1261.69,-7.49884 L 1261.95,-7.03717
 L 1262.12,-6.53017 L 1262.17,-6 L 1262.17,-0 L 1435.95,-0 L 1435.95,-6 L 1436.01,-6.53017
 L 1436.17,-7.03717 L 1436.44,-7.49884 L 1436.79,-7.895 L 1437.22,-8.20836 L 1437.71,-8.42519 L 1438.23,-8.53603
 L 1438.77,-8.53603 L 1439.29,-8.42519 L 1439.77,-8.20836 L 1440.21,-7.895 L 1440.56,-7.49884 L 1440.83,-7.03717
 L 1440.99,-6.53017 L 1441.05,-6 L 1441.05,-0 L 1446,-0 z
M 185.861,-55.607 L 185.352,-55.6875 L 184.855,-55.8208 L 184.374,-56.0054 L 183.915,-56.2392 L 183.483,-56.5196
 L 183.083,-56.8437 L 182.719,-57.2079 L 182.395,-57.6081 L 182.114,-58.04 L 181.88,-58.4989 L 181.696,-58.9796
 L 181.563,-59.4771 L 181.482,-59.9857 L 181.455,-60.5 L 181.482,-61.0143 L 181.563,-61.5229 L 181.696,-62.0204
 L 181.88,-62.5011 L 182.114,-62.96 L 182.395,-63.3919 L 182.719,-63.7921 L 183.083,-64.1563 L 183.483,-64.4804
 L 183.825,-64.7024 L 183.825,-74 L 183.881,-74.5302 L 184.045,-75.0372 L 184.312,-75.4988 L 184.669,-75.895
 L 185.1,-76.2084 L 185.587,-76.4252 L 186.108,-76.536 L 186.642,-76.536 L 187.163,-76.4252 L 187.65,-76.2084
 L 188.081,-75.895 L 188.438,-75.4988 L 188.705,-75.0372 L 188.869,-74.5302 L 188.925,-74 L 188.925,-64.7024
 L 189.267,-64.4804 L 189.667,-64.1563 L 190.031,-63.7921 L 190.355,-63.3919 L 190.636,-62.96 L 190.87,-62.5011
 L 191.054,-62.0204 L 191.187,-61.5229 L 191.268,-61.0143 L 191.295,-60.5 L 191.268,-59.9857 L 191.187,-59.4771
 L 191.054,-58.9796 L 190.87,-58.4989 L 190.636,-58.04 L 190.355,-57.6081 L 190.031,-57.2079 L 189.667,-56.8437
 L 189.267,-56.5196 L 188.835,-56.2392 L 188.376,-56.0054 L 187.895,-55.8208 L 187.398,-55.6875 L 186.889,-55.607
 L 186.375,-55.58 z
M 1080.24,-55.607 L 1079.73,-55.6875 L 1079.23,-55.8208 L 1078.75,-56.0054 L 1078.29,-56.2392 L 1077.86,-56.5196
 L 1077.46,-56.8437 L 1077.09,-57.2079 L 1076.77,-57.6081 L 1076.49,-58.04 L 1076.26,-58.4989 L 1076.07,-58.9796
 L 1075.94,-59.4771 L 1075.86,-59.9857 L 1075.83,-60.5 L 1075.86,-61.0143 L 1075.94,-61.5229 L 1076.07,-62.0204
 L 1076.26,-62.5011 L 1076.49,-62.96 L 1076.77,-63.3919 L 1077.09,-63.7921 L 1077.46,-64.1563 L 1077.86,-64.4804
 L 1078.2,-64.7024 L 1078.2,-74 L 1078.26,-74.5302 L 1078.42,-75.0372 L 1078.69,-75.4988 L 1079.04,-75.895
 L 1079.48,-76.2084 L 1079.96,-76.4252 L 1080.48,-76.536 L 1081.02,-76.536 L 1081.54,-76.4252 L 1082.02,-76.2084
 L 1082.46,-75.895 L 1082.81,-75.4988 L 1083.08,-75.0372 L 1083.24,-74.5302 L 1083.3,-74 L 1083.3,-64.7024
 L 1083.64,-64.4804 L 1084.04,-64.1563 L 1084.41,-63.7921 L 1084.73,-63.3919 L 1085.01,-62.96 L 1085.24,-62.5011
 L 1085.43,-62.0204 L 1085.56,-61.5229 L 1085.64,-61.0143 L 1085.67,-60.5 L 1085.64,-59.9857 L 1085.56,-59.4771
 L 1085.43,-58.9796 L 1085.24,-58.4989 L 1085.01,-58.04 L 1084.73,-57.6081 L 1084.41,-57.2079 L 1084.04,-56.8437
 L 1083.64,-56.5196 L 1083.21,-56.2392 L 1082.75,-56.0054 L 1082.27,-55.8208 L 1081.77,-55.6875 L 1081.26,-55.607
 L 1080.75,-55.58 z
M 901.361,-55.607 L 900.852,-55.6875 L 900.355,-55.8208 L 899.874,-56.0054 L 899.415,-56.2392 L 898.983,-56.5196
 L 898.583,-56.8437 L 898.219,-57.2079 L 897.895,-57.6081 L 897.614,-58.04 L 897.38,-58.4989 L 897.196,-58.9796
 L 897.063,-59.4771 L 896.982,-59.9857 L 896.955,-60.5 L 896.982,-61.0143 L 897.063,-61.5229 L 897.196,-62.0204
 L 897.38,-62.5011 L 897.614,-62.96 L 897.895,-63.3919 L 898.219,-63.7921 L 898.583,-64.1563 L 898.983,-64.4804
 L 899.325,-64.7024 L 899.325,-74 L 899.381,-74.5302 L 899.545,-75.0372 L 899.812,-75.4988 L 900.169,-75.895
 L 900.6,-76.2084 L 901.087,-76.4252 L 901.608,-76.536 L 902.142,-76.536 L 902.663,-76.4252 L 903.15,-76.2084
 L 903.581,-75.895 L 903.938,-75.4988 L 904.205,-75.0372 L 904.369,-74.5302 L 904.425,-74 L 904.425,-64.7024
 L 904.767,-64.4804 L 905.167,-64.1563 L 905.531,-63.7921 L 905.855,-63.3919 L 906.136,-62.96 L 906.37,-62.5011
 L 906.554,-62.0204 L 906.687,-61.5229 L 906.768,-61.0143 L 906.795,-60.5 L 906.768,-59.9857 L 906.687,-59.4771
 L 906.554,-58.9796 L 906.37,-58.4989 L 906.136,-58.04 L 905.855,-57.6081 L 905.531,-57.2079 L 905.167,-56.8437
 L 904.767,-56.5196 L 904.335,-56.2392 L 903.876,-56.0054 L 903.395,-55.8208 L 902.898,-55.6875 L 902.389,-55.607
 L 901.875,-55.58 z
M 6.98573,-55.607 L 6.47708,-55.6875 L 5.97964,-55.8208 L 5.49887,-56.0054 L 5.04001,-56.2392 L 4.60811,-56.5196
 L 4.20789,-56.8437 L 3.84373,-57.2079 L 3.51964,-57.6081 L 3.23917,-58.04 L 3.00537,-58.4989 L 2.82082,-58.9796
 L 2.68752,-59.4771 L 2.60696,-59.9857 L 2.58,-60.5 L 2.60696,-61.0143 L 2.68752,-61.5229 L 2.82082,-62.0204
 L 3.00537,-62.5011 L 3.23917,-62.96 L 3.51964,-63.3919 L 3.84373,-63.7921 L 4.20789,-64.1563 L 4.60811,-64.4804
 L 4.95001,-64.7024 L 4.95001,-74 L 5.00574,-74.5302 L 5.17047,-75.0372 L 5.43701,-75.4988 L 5.79373,-75.895
 L 6.22501,-76.2084 L 6.71202,-76.4252 L 7.23346,-76.536 L 7.76654,-76.536 L 8.28798,-76.4252 L 8.77499,-76.2084
 L 9.20627,-75.895 L 9.56299,-75.4988 L 9.82953,-75.0372 L 9.99426,-74.5302 L 10.05,-74 L 10.05,-64.7024
 L 10.3919,-64.4804 L 10.7921,-64.1563 L 11.1563,-63.7921 L 11.4804,-63.3919 L 11.7608,-62.96 L 11.9946,-62.5011
 L 12.1792,-62.0204 L 12.3125,-61.5229 L 12.393,-61.0143 L 12.42,-60.5 L 12.393,-59.9857 L 12.3125,-59.4771
 L 12.1792,-58.9796 L 11.9946,-58.4989 L 11.7608,-58.04 L 11.4804,-57.6081 L 11.1563,-57.2079 L 10.7921,-56.8437
 L 10.3919,-56.5196 L 9.95999,-56.2392 L 9.50113,-56.0054 L 9.02036,-55.8208 L 8.52292,-55.6875 L 8.01427,-55.607
 L 7.5,-55.58 z
M 722.486,-55.607 L 721.977,-55.6875 L 721.48,-55.8208 L 720.999,-56.0054 L 720.54,-56.2392 L 720.108,-56.5196
 L 719.708,-56.8437 L 719.344,-57.2079 L 719.02,-57.6081 L 718.739,-58.04 L 718.505,-58.4989 L 718.321,-58.9796
 L 718.188,-59.4771 L 718.107,-59.9857 L 718.08,-60.5 L 718.107,-61.0143 L 718.188,-61.5229 L 718.321,-62.0204
 L 718.505,-62.5011 L 718.739,-62.96 L 719.02,-63.3919 L 719.344,-63.7921 L 719.708,-64.1563 L 720.108,-64.4804
 L 720.45,-64.7024 L 720.45,-74 L 720.506,-74.5302 L 720.67,-75.0372 L 720.937,-75.4988 L 721.294,-75.895
 L 721.725,-76.2084 L 722.212,-76.4252 L 722.733,-76.536 L 723.267,-76.536 L 723.788,-76.4252 L 724.275,-76.2084
 L 724.706,-75.895 L 725.063,-75.4988 L 725.33,-75.0372 L 725.494,-74.5302 L 725.55,-74 L 725.55,-64.7024
 L 725.892,-64.4804 L 726.292,-64.1563 L 726.656,-63.7921 L 726.98,-63.3919 L 727.261,-62.96 L 727.495,-62.5011
 L 727.679,-62.0204 L 727.812,-61.5229 L 727.893,-61.0143 L 727.92,-60.5 L 727.893,-59.9857 L 727.812,-59.4771
 L 727.679,-58.9796 L 727.495,-58.4989 L 727.261,-58.04 L 726.98,-57.6081 L 726.656,-57.2079 L 726.292,-56.8437
 L 725.892,-56.5196 L 725.46,-56.2392 L 725.001,-56.0054 L 724.52,-55.8208 L 724.023,-55.6875 L 723.514,-55.607
 L 723,-55.58 z
M 1259.11,-55.607 L 1258.6,-55.6875 L 1258.1,-55.8208 L 1257.62,-56.0054 L 1257.17,-56.2392 L 1256.73,-56.5196
 L 1256.33,-56.8437 L 1255.97,-57.2079 L 1255.64,-57.6081 L 1255.36,-58.04 L 1255.13,-58.4989 L 1254.95,-58.9796
 L 1254.81,-59.4771 L 1254.73,-59.9857 L 1254.71,-60.5 L 1254.73,-61.0143 L 1254.81,-61.5229 L 1254.95,-62.0204
 L 1255.13,-62.5011 L 1255.36,-62.96 L 1255.64,-63.3919 L 1255.97,-63.7921 L 1256.33,-64.1563 L 1256.73,-64.4804
 L 1257.08,-64.7024 L 1257.08,-74 L 1257.13,-74.5302 L 1257.3,-75.0372 L 1257.56,-75.4988 L 1257.92,-75.895
 L 1258.35,-76.2084 L 1258.84,-76.4252 L 1259.36,-76.536 L 1259.89,-76.536 L 1260.41,-76.4252 L 1260.9,-76.2084
 L 1261.33,-75.895 L 1261.69,-75.4988 L 1261.95,-75.0372 L 1262.12,-74.5302 L 1262.17,-74 L 1262.17,-64.7024
 L 1262.52,-64.4804 L 1262.92,-64.1563 L 1263.28,-63.7921 L 1263.61,-63.3919 L 1263.89,-62.96 L 1264.12,-62.5011
 L 1264.3,-62.0204 L 1264.44,-61.5229 L 1264.52,-61.0143 L 1264.54,-60.5 L 1264.52,-59.9857 L 1264.44,-59.4771
 L 1264.3,-58.9796 L 1264.12,-58.4989 L 1263.89,-58.04 L 1263.61,-57.6081 L 1263.28,-57.2079 L 1262.92,-56.8437
 L 1262.52,-56.5196 L 1262.08,-56.2392 L 1261.63,-56.0054 L 1261.15,-55.8208 L 1260.65,-55.6875 L 1260.14,-55.607
 L 1259.62,-55.58 z
M 543.611,-55.607 L 543.102,-55.6875 L 542.605,-55.8208 L 542.124,-56.0054 L 541.665,-56.2392 L 541.233,-56.5196
 L 540.833,-56.8437 L 540.469,-57.2079 L 540.145,-57.6081 L 539.864,-58.04 L 539.63,-58.4989 L 539.446,-58.9796
 L 539.313,-59.4771 L 539.232,-59.9857 L 539.205,-60.5 L 539.232,-61.0143 L 539.313,-61.5229 L 539.446,-62.0204
 L 539.63,-62.5011 L 539.864,-62.96 L 540.145,-63.3919 L 540.469,-63.7921 L 540.833,-64.1563 L 541.233,-64.4804
 L 541.575,-64.7024 L 541.575,-74 L 541.631,-74.5302 L 541.795,-75.0372 L 542.062,-75.4988 L 542.419,-75.895
 L 542.85,-76.2084 L 543.337,-76.4252 L 543.858,-76.536 L 544.392,-76.536 L 544.913,-76.4252 L 545.4,-76.2084
 L 545.831,-75.895 L 546.188,-75.4988 L 546.455,-75.0372 L 546.619,-74.5302 L 546.675,-74 L 546.675,-64.7024
 L 547.017,-64.4804 L 547.417,-64.1563 L 547.781,-63.7921 L 548.105,-63.3919 L 548.386,-62.96 L 548.62,-62.5011
 L 548.804,-62.0204 L 548.937,-61.5229 L 549.018,-61.0143 L 549.045,-60.5 L 549.018,-59.9857 L 548.937,-59.4771
 L 548.804,-58.9796 L 548.62,-58.4989 L 548.386,-58.04 L 548.105,-57.6081 L 547.781,-57.2079 L 547.417,-56.8437
 L 547.017,-56.5196 L 546.585,-56.2392 L 546.126,-56.0054 L 545.645,-55.8208 L 545.148,-55.6875 L 544.639,-55.607
 L 544.125,-55.58 z
M 364.736,-55.607 L 364.227,-55.6875 L 363.73,-55.8208 L 363.249,-56.0054 L 362.79,-56.2392 L 362.358,-56.5196
 L 361.958,-56.8437 L 361.594,-57.2079 L 361.27,-57.6081 L 360.989,-58.04 L 360.755,-58.4989 L 360.571,-58.9796
 L 360.438,-59.4771 L 360.357,-59.9857 L 360.33,-60.5 L 360.357,-61.0143 L 360.438,-61.5229 L 360.571,-62.0204
 L 360.755,-62.5011 L 360.989,-62.96 L 361.27,-63.3919 L 361.594,-63.7921 L 361.958,-64.1563 L 362.358,-64.4804
 L 362.7,-64.7024 L 362.7,-74 L 362.756,-74.5302 L 362.92,-75.0372 L 363.187,-75.4988 L 363.544,-75.895
 L 363.975,-76.2084 L 364.462,-76.4252 L 364.983,-76.536 L 365.517,-76.536 L 366.038,-76.4252 L 366.525,-76.2084
 L 366.956,-75.895 L 367.313,-75.4988 L 367.58,-75.0372 L 367.744,-74.5302 L 367.8,-74 L 367.8,-64.7024
 L 368.142,-64.4804 L 368.542,-64.1563 L 368.906,-63.7921 L 369.23,-63.3919 L 369.511,-62.96 L 369.745,-62.5011
 L 369.929,-62.0204 L 370.062,-61.5229 L 370.143,-61.0143 L 370.17,-60.5 L 370.143,-59.9857 L 370.062,-59.4771
 L 369.929,-58.9796 L 369.745,-58.4989 L 369.511,-58.04 L 369.23,-57.6081 L 368.906,-57.2079 L 368.542,-56.8437
 L 368.142,-56.5196 L 367.71,-56.2392 L 367.251,-56.0054 L 366.77,-55.8208 L 366.273,-55.6875 L 365.764,-55.607
 L 365.25,-55.58 z
M 1437.99,-55.607 L 1437.48,-55.6875 L 1436.98,-55.8208 L 1436.5,-56.0054 L 1436.04,-56.2392 L 1435.61,-56.5196
 L 1435.21,-56.8437 L 1434.84,-57.2079 L 1434.52,-57.6081 L 1434.24,-58.04 L 1434.01,-58.4989 L 1433.82,-58.9796
 L 1433.69,-59.4771 L 1433.61,-59.9857 L 1433.58,-60.5 L 1433.61,-61.0143 L 1433.69,-61.5229 L 1433.82,-62.0204
 L 1434.01,-62.5011 L 1434.24,-62.96 L 1434.52,-63.3919 L 1434.84,-63.7921 L 1435.21,-64.1563 L 1435.61,-64.4804
 L 1435.95,-64.7024 L 1435.95,-74 L 1436.01,-74.5302 L 1436.17,-75.0372 L 1436.44,-75.4988 L 1436.79,-75.895
 L 1437.23,-76.2084 L 1437.71,-76.4252 L 1438.23,-76.536 L 1438.77,-76.536 L 1439.29,-76.4252 L 1439.77,-76.2084
 L 1440.21,-75.895 L 1440.56,-75.4988 L 1440.83,-75.0372 L 1440.99,-74.5302 L 1441.05,-74 L 1441.05,-64.7024
 L 1441.39,-64.4804 L 1441.79,-64.1563 L 1442.16,-63.7921 L 1442.48,-63.3919 L 1442.76,-62.96 L 1442.99,-62.5011
 L 1443.18,-62.0204 L 1443.31,-61.5229 L 1443.39,-61.0143 L 1443.42,-60.5 L 1443.39,-59.9857 L 1443.31,-59.4771
 L 1443.18,-58.9796 L 1442.99,-58.4989 L 1442.76,-58.04 L 1442.48,-57.6081 L 1442.16,-57.2079 L 1441.79,-56.8437
 L 1441.39,-56.5196 L 1440.96,-56.2392 L 1440.5,-56.0054 L 1440.02,-55.8208 L 1439.52,-55.6875 L 1439.01,-55.607
 L 1438.5,-55.58 z
M 351.637,-20.8801 L 350.829,-21.0939 L 263.582,-54.2611 L 262.652,-54.7639 L 262.031,-55.3235 L 261.539,-56
 L 261.199,-56.7639 L 261.025,-57.5819 L 261.025,-58.4181 L 261.199,-59.2361 L 261.539,-60 L 262.031,-60.6765
 L 262.652,-61.2361 L 263.376,-61.6542 L 264.172,-61.9126 L 265.003,-62 L 352.25,-62 L 353.486,-61.8042
 L 354.25,-61.4641 L 354.927,-60.9726 L 355.486,-60.3511 L 355.904,-59.627 L 356.163,-58.8316 L 356.25,-58
 L 356.25,-24.8329 L 356.117,-23.8101 L 355.82,-23.0285 L 355.367,-22.3257 L 354.777,-21.7325 L 354.077,-21.2748
 L 353.298,-20.9725 L 352.472,-20.8391 z
M 530.512,-20.8801 L 529.704,-21.0939 L 442.457,-54.2611 L 441.527,-54.7639 L 440.906,-55.3235 L 440.414,-56
 L 440.074,-56.7639 L 439.9,-57.5819 L 439.9,-58.4181 L 440.074,-59.2361 L 440.414,-60 L 440.906,-60.6765
 L 441.527,-61.2361 L 442.251,-61.6542 L 443.047,-61.9126 L 443.878,-62 L 531.125,-62 L 532.361,-61.8042
 L 533.125,-61.4641 L 533.802,-60.9726 L 534.361,-60.3511 L 534.779,-59.627 L 535.038,-58.8316 L 535.125,-58
 L 535.125,-24.8329 L 534.992,-23.8101 L 534.695,-23.0285 L 534.242,-22.3257 L 533.652,-21.7325 L 532.952,-21.2748
 L 532.173,-20.9725 L 531.347,-20.8391 z
M 1271.58,-20.9725 L 1270.8,-21.2748 L 1270.1,-21.7325 L 1269.51,-22.3257 L 1269.06,-23.0285 L 1268.76,-23.8101
 L 1268.62,-24.8329 L 1268.62,-58 L 1268.71,-58.8316 L 1268.97,-59.627 L 1269.39,-60.3511 L 1269.95,-60.9726
 L 1270.62,-61.4641 L 1271.39,-61.8042 L 1272.62,-62 L 1359.87,-62 L 1360.7,-61.9126 L 1361.5,-61.6542
 L 1362.22,-61.2361 L 1362.84,-60.6765 L 1363.34,-60 L 1363.68,-59.2361 L 1363.85,-58.4181 L 1363.85,-57.5819
 L 1363.68,-56.7639 L 1363.34,-56 L 1362.84,-55.3235 L 1362.22,-54.7639 L 1361.29,-54.2611 L 1274.05,-21.0939
 L 1273.24,-20.8801 L 1272.4,-20.8391 z
M 709.387,-20.8801 L 708.579,-21.0939 L 621.332,-54.2611 L 620.402,-54.7639 L 619.781,-55.3235 L 619.289,-56
 L 618.949,-56.7639 L 618.775,-57.5819 L 618.775,-58.4181 L 618.949,-59.2361 L 619.289,-60 L 619.781,-60.6765
 L 620.402,-61.2361 L 621.126,-61.6542 L 621.922,-61.9126 L 622.753,-62 L 710,-62 L 711.236,-61.8042
 L 712,-61.4641 L 712.677,-60.9726 L 713.236,-60.3511 L 713.654,-59.627 L 713.913,-58.8316 L 714,-58
 L 714,-24.8329 L 713.867,-23.8101 L 713.57,-23.0285 L 713.117,-22.3257 L 712.527,-21.7325 L 711.827,-21.2748
 L 711.048,-20.9725 L 710.222,-20.8391 z
M 172.762,-20.8801 L 171.954,-21.0939 L 84.707,-54.2611 L 83.7773,-54.7639 L 83.1558,-55.3235 L 82.6643,-56
 L 82.3242,-56.7639 L 82.1503,-57.5819 L 82.1503,-58.4181 L 82.3242,-59.2361 L 82.6643,-60 L 83.1558,-60.6765
 L 83.7773,-61.2361 L 84.5014,-61.6542 L 85.2968,-61.9126 L 86.1284,-62 L 173.375,-62 L 174.611,-61.8042
 L 175.375,-61.4641 L 176.052,-60.9726 L 176.611,-60.3511 L 177.029,-59.627 L 177.288,-58.8316 L 177.375,-58
 L 177.375,-24.8329 L 177.242,-23.8101 L 176.945,-23.0285 L 176.492,-22.3257 L 175.902,-21.7325 L 175.202,-21.2748
 L 174.423,-20.9725 L 173.597,-20.8391 z
M 734.952,-20.9725 L 734.173,-21.2748 L 733.473,-21.7325 L 732.883,-22.3257 L 732.43,-23.0285 L 732.133,-23.8101
 L 732,-24.8329 L 732,-58 L 732.087,-58.8316 L 732.346,-59.627 L 732.764,-60.3511 L 733.323,-60.9726
 L 734,-61.4641 L 734.764,-61.8042 L 736,-62 L 823.247,-62 L 824.078,-61.9126 L 824.874,-61.6542
 L 825.598,-61.2361 L 826.219,-60.6765 L 826.711,-60 L 827.051,-59.2361 L 827.225,-58.4181 L 827.225,-57.5819
 L 827.051,-56.7639 L 826.711,-56 L 826.219,-55.3235 L 825.598,-54.7639 L 824.668,-54.2611 L 737.421,-21.0939
 L 736.613,-20.8801 L 735.778,-20.8391 z
M 913.827,-20.9725 L 913.048,-21.2748 L 912.348,-21.7325 L 911.758,-22.3257 L 911.305,-23.0285 L 911.008,-23.8101
 L 910.875,-24.8329 L 910.875,-58 L 910.962,-58.8316 L 911.221,-59.627 L 911.639,-60.3511 L 912.198,-60.9726
 L 912.875,-61.4641 L 913.639,-61.8042 L 914.875,-62 L 1002.12,-62 L 1002.95,-61.9126 L 1003.75,-61.6542
 L 1004.47,-61.2361 L 1005.09,-60.6765 L 1005.59,-60 L 1005.93,-59.2361 L 1006.1,-58.4181 L 1006.1,-57.5819
 L 1005.93,-56.7639 L 1005.59,-56 L 1005.09,-55.3235 L 1004.47,-54.7639 L 1003.54,-54.2611 L 916.296,-21.0939
 L 915.488,-20.8801 L 914.653,-20.8391 z
M 1092.7,-20.9725 L 1091.92,-21.2748 L 1091.22,-21.7325 L 1090.63,-22.3257 L 1090.18,-23.0285 L 1089.88,-23.8101
 L 1089.75,-24.8329 L 1089.75,-58 L 1089.84,-58.8316 L 1090.1,-59.627 L 1090.51,-60.3511 L 1091.07,-60.9726
 L 1091.75,-61.4641 L 1092.51,-61.8042 L 1093.75,-62 L 1181,-62 L 1181.83,-61.9126 L 1182.62,-61.6542
 L 1183.35,-61.2361 L 1183.97,-60.6765 L 1184.46,-60 L 1184.8,-59.2361 L 1184.97,-58.4181 L 1184.97,-57.5819
 L 1184.8,-56.7639 L 1184.46,-56 L 1183.97,-55.3235 L 1183.35,-54.7639 L 1182.42,-54.2611 L 1095.17,-21.0939
 L 1094.36,-20.8801 L 1093.53,-20.8391 z
M 199.375,-18 L 198.139,-18.1958 L 197.375,-18.5359 L 196.698,-19.0274 L 196.139,-19.6489 L 195.721,-20.373
 L 195.462,-21.1684 L 195.375,-22 L 195.375,-55.1671 L 195.508,-56.1899 L 195.805,-56.9715 L 196.258,-57.6743
 L 196.848,-58.2675 L 197.548,-58.7252 L 198.327,-59.0274 L 199.153,-59.1609 L 199.988,-59.1199 L 200.796,-58.906
 L 288.043,-25.7389 L 288.973,-25.2361 L 289.594,-24.6765 L 290.086,-24 L 290.426,-23.2361 L 290.6,-22.4181
 L 290.6,-21.5819 L 290.426,-20.7639 L 290.086,-20 L 289.594,-19.3235 L 288.973,-18.7639 L 288.249,-18.3458
 L 287.453,-18.0874 L 286.622,-18 z
M 378.25,-18 L 377.014,-18.1958 L 376.25,-18.5359 L 375.573,-19.0274 L 375.014,-19.6489 L 374.596,-20.373
 L 374.337,-21.1684 L 374.25,-22 L 374.25,-55.1671 L 374.383,-56.1899 L 374.68,-56.9715 L 375.133,-57.6743
 L 375.723,-58.2675 L 376.423,-58.7252 L 377.202,-59.0274 L 378.028,-59.1609 L 378.863,-59.1199 L 379.671,-58.906
 L 466.918,-25.7389 L 467.848,-25.2361 L 468.469,-24.6765 L 468.961,-24 L 469.301,-23.2361 L 469.475,-22.4181
 L 469.475,-21.5819 L 469.301,-20.7639 L 468.961,-20 L 468.469,-19.3235 L 467.848,-18.7639 L 467.124,-18.3458
 L 466.328,-18.0874 L 465.497,-18 z
M 557.125,-18 L 555.889,-18.1958 L 555.125,-18.5359 L 554.448,-19.0274 L 553.889,-19.6489 L 553.471,-20.373
 L 553.212,-21.1684 L 553.125,-22 L 553.125,-55.1671 L 553.258,-56.1899 L 553.555,-56.9715 L 554.008,-57.6743
 L 554.598,-58.2675 L 555.298,-58.7252 L 556.077,-59.0274 L 556.903,-59.1609 L 557.738,-59.1199 L 558.546,-58.906
 L 645.793,-25.7389 L 646.723,-25.2361 L 647.344,-24.6765 L 647.836,-24 L 648.176,-23.2361 L 648.35,-22.4181
 L 648.35,-21.5819 L 648.176,-20.7639 L 647.836,-20 L 647.344,-19.3235 L 646.723,-18.7639 L 645.999,-18.3458
 L 645.203,-18.0874 L 644.372,-18 z
M 801.628,-18 L 800.797,-18.0874 L 800.001,-18.3458 L 799.277,-18.7639 L 798.656,-19.3235 L 798.164,-20
 L 797.824,-20.7639 L 797.65,-21.5819 L 797.65,-22.4181 L 797.824,-23.2361 L 798.164,-24 L 798.656,-24.6765
 L 799.277,-25.2361 L 800.207,-25.7389 L 887.454,-58.906 L 888.262,-59.1199 L 889.097,-59.1609 L 889.923,-59.0274
 L 890.702,-58.7252 L 891.402,-58.2675 L 891.992,-57.6743 L 892.445,-56.9715 L 892.742,-56.1899 L 892.875,-55.1671
 L 892.875,-22 L 892.788,-21.1684 L 892.529,-20.373 L 892.111,-19.6489 L 891.552,-19.0274 L 890.875,-18.5359
 L 890.111,-18.1958 L 888.875,-18 z
M 980.503,-18 L 979.672,-18.0874 L 978.876,-18.3458 L 978.152,-18.7639 L 977.531,-19.3235 L 977.039,-20
 L 976.699,-20.7639 L 976.525,-21.5819 L 976.525,-22.4181 L 976.699,-23.2361 L 977.039,-24 L 977.531,-24.6765
 L 978.152,-25.2361 L 979.082,-25.7389 L 1066.33,-58.906 L 1067.14,-59.1199 L 1067.97,-59.1609 L 1068.8,-59.0274
 L 1069.58,-58.7252 L 1070.28,-58.2675 L 1070.87,-57.6743 L 1071.32,-56.9715 L 1071.62,-56.1899 L 1071.75,-55.1671
 L 1071.75,-22 L 1071.66,-21.1684 L 1071.4,-20.373 L 1070.99,-19.6489 L 1070.43,-19.0274 L 1069.75,-18.5359
 L 1068.99,-18.1958 L 1067.75,-18 z
M 1159.38,-18 L 1158.55,-18.0874 L 1157.75,-18.3458 L 1157.03,-18.7639 L 1156.41,-19.3235 L 1155.91,-20
 L 1155.57,-20.7639 L 1155.4,-21.5819 L 1155.4,-22.4181 L 1155.57,-23.2361 L 1155.91,-24 L 1156.41,-24.6765
 L 1157.03,-25.2361 L 1157.96,-25.7389 L 1245.2,-58.906 L 1246.01,-59.1199 L 1246.85,-59.1609 L 1247.67,-59.0274
 L 1248.45,-58.7252 L 1249.15,-58.2675 L 1249.74,-57.6743 L 1250.19,-56.9715 L 1250.49,-56.1899 L 1250.62,-55.1671
 L 1250.62,-22 L 1250.54,-21.1684 L 1250.28,-20.373 L 1249.86,-19.6489 L 1249.3,-19.0274 L 1248.62,-18.5359
 L 1247.86,-18.1958 L 1246.62,-18 z
M 1338.25,-18 L 1337.42,-18.0874 L 1336.63,-18.3458 L 1335.9,-18.7639 L 1335.28,-19.3235 L 1334.79,-20
 L 1334.45,-20.7639 L 1334.28,-21.5819 L 1334.28,-22.4181 L 1334.45,-23.2361 L 1334.79,-24 L 1335.28,-24.6765
 L 1335.9,-25.2361 L 1336.83,-25.7389 L 1422.58,-58.3358 L 1423.39,-58.5496 L 1424.22,-58.5907 L 1425.05,-58.4572
 L 1425.83,-58.155 L 1426.53,-57.6973 L 1427.12,-57.1041 L 1427.57,-56.4013 L 1427.87,-55.6196 L 1428,-54.5969
 L 1428,-22 L 1427.91,-21.1684 L 1427.65,-20.373 L 1427.24,-19.6489 L 1426.68,-19.0274 L 1426,-18.5359
 L 1425.24,-18.1958 L 1424,-18 z
M 22,-18 L 20.7639,-18.1958 L 20,-18.5359 L 19.3235,-19.0274 L 18.7639,-19.6489 L 18.3458,-20.373
 L 18.0874,-21.1684 L 18,-22 L 18,-54.5969 L 18.133,-55.6196 L 18.4301,-56.4013 L 18.8833,-57.1041
 L 19.4727,-57.6973 L 20.1725,-58.155 L 20.9522,-58.4572 L 21.7777,-58.5907 L 22.6129,-58.5496 L 23.4214,-58.3358
 L 109.168,-25.7389 L 110.098,-25.2361 L 110.719,-24.6765 L 111.211,-24 L 111.551,-23.2361 L 111.725,-22.4181
 L 111.725,-21.5819 L 111.551,-20.7639 L 111.211,-20 L 110.719,-19.3235 L 110.098,-18.7639 L 109.374,-18.3458
 L 108.578,-18.0874 L 107.747,-18 z
" stroke="black" fill="lightgray" stroke-width="0.5"/>
</svg>
