<?xml version="1.0" standalone="no"?>
<!DOCTYPE svg PUBLIC "-//W3C//DTD SVG 1.1//EN" "http://www.w3.org/Graphics/SVG/1.1/DTD/svg11.dtd">
<svg width="1602mm" height="80mm" viewBox="0 -80 1602 80" xmlns="http://www.w3.org/2000/svg" version="1.1">
<title>OpenSCAD Model</title>
<path d="
M 1602,-80 L 0,-80 L 0,-0 L 4.95,-0 L 4.95,-6 L 5.00572,-6.53017
 L 5.17046,-7.03717 L 5.437,-7.49884 L 5.79372,-7.895 L 6.22499,-8.20836 L 6.71201,-8.42519 L 7.23344,-8.53603
 L 7.76654,-8.53603 L 8.28798,-8.42519 L 8.77499,-8.20836 L 9.20627,-7.895 L 9.56299,-7.49884 L 9.82953,-7.03717
 L 9.99426,-6.53017 L 10.05,-6 L 10.05,-0 L 181.283,-0 L 181.283,-6 L 181.339,-6.53017
 L 181.504,-7.03717 L 181.77,-7.49884 L 182.127,-7.895 L 182.558,-8.20836 L 183.045,-8.42519 L 183.567,-8.53603
 L 184.1,-8.53603 L 184.621,-8.42519 L 185.108,-8.20836 L 185.54,-7.895 L 185.896,-7.49884 L 186.163,-7.03717
 L 186.328,-6.53017 L 186.383,-6 L 186.383,-0 L 357.617,-0 L 357.617,-6 L 357.672,-6.53017
 L 357.837,-7.03717 L 358.104,-7.49884 L 358.46,-7.895 L 358.892,-8.20836 L 359.379,-8.42519 L 359.9,-8.53603
 L 360.433,-8.53603 L 360.955,-8.42519 L 361.442,-8.20836 L 361.873,-7.895 L 362.23,-7.49884 L 362.496,-7.03717
 L 362.661,-6.53017 L 362.717,-6 L 362.717,-0 L 533.95,-0 L 533.95,-6 L 534.006,-6.53017
 L 534.17,-7.03717 L 534.437,-7.49884 L 534.794,-7.895 L 535.225,-8.20836 L 535.712,-8.42519 L 536.233,-8.53603
 L 536.767,-8.53603 L 537.288,-8.42519 L 537.775,-8.20836 L 538.206,-7.895 L 538.563,-7.49884 L 538.83,-7.03717
 L 538.994,-6.53017 L 539.05,-6 L 539.05,-0 L 710.283,-0 L 710.283,-6 L 710.339,-6.53017
 L 710.504,-7.03717 L 710.77,-7.49884 L 711.127,-7.895 L 711.558,-8.20836 L 712.045,-8.42519 L 712.567,-8.53603
 L 713.1,-8.53603 L 713.621,-8.42519 L 714.108,-8.20836 L 714.54,-7.895 L 714.896,-7.49884 L 715.163,-7.03717
 L 715.328,-6.53017 L 715.383,-6 L 715.383,-0 L 886.617,-0 L 886.617,-6 L 886.672,-6.53017
 L 886.837,-7.03717 L 887.104,-7.49884 L 887.46,-7.895 L 887.892,-8.20836 L 888.379,-8.42519 L 888.9,-8.53603
 L 889.433,-8.53603 L 889.955,-8.42519 L 890.442,-8.20836 L 890.873,-7.895 L 891.23,-7.49884 L 891.496,-7.03717
 L 891.661,-6.53017 L 891.717,-6 L 891.717,-0 L 1062.95,-0 L 1062.95,-6 L 1063.01,-6.53017
 L 1063.17,-7.03717 L 1063.44,-7.49884 L 1063.79,-7.895 L 1064.22,-8.20836 L 1064.71,-8.42519 L 1065.23,-8.53603
 L 1065.77,-8.53603 L 1066.29,-8.42519 L 1066.77,-8.20836 L 1067.21,-7.895 L 1067.56,-7.49884 L 1067.83,-7.03717
 L 1067.99,-6.53017 L 1068.05,-6 L 1068.05,-0 L 1239.28,-0 L 1239.28,-6 L 1239.34,-6.53017
 L 1239.5,-7.03717 L 1239.77,-7.49884 L 1240.13,-7.895 L 1240.56,-8.20836 L 1241.05,-8.42519 L 1241.57,-8.53603
 L 1242.1,-8.53603 L 1242.62,-8.42519 L 1243.11,-8.20836 L 1243.54,-7.895 L 1243.9,-7.49884 L 1244.16,-7.03717
 L 1244.33,-6.53017 L 1244.38,-6 L 1244.38,-0 L 1415.62,-0 L 1415.62,-6 L 1415.67,-6.53017
 L 1415.84,-7.03717 L 1416.1,-7.49884 L 1416.46,-7.895 L 1416.89,-8.20836 L 1417.38,-8.42519 L 1417.9,-8.53603
 L 1418.43,-8.53603 L 1418.95,-8.42519 L 1419.44,-8.20836 L 1419.87,-7.895 L 1420.23,-7.49884 L 1420.5,-7.03717
 L 1420.66,-6.53017 L 1420.72,-6 L 1420.72,-0 L 1591.95,-0 L 1591.95,-6 L 1592.01,-6.53017
 L 1592.17,-7.03717 L 1592.44,-7.49884 L 1592.79,-7.895 L 1593.22,-8.20836 L 1593.71,-8.42519 L 1594.23,-8.53603
 L 1594.77,-8.53603 L 1595.29,-8.42519 L 1595.77,-8.20836 L 1596.21,-7.895 L 1596.56,-7.49884 L 1596.83,-7.03717
 L 1596.99,-6.53017 L 1597.05,-6 L 1597.05,-0 L 1602,-0 z
M 6.98573,-55.607 L 6.47708,-55.6875 L 5.97964,-55.8208 L 5.49887,-56.0054 L 5.04001,-56.2392 L 4.60811,-56.5196
 L 4.20789,-56.8437 L 3.84373,-57.2079 L 3.51964,-57.6081 L 3.23917,-58.04 L 3.00537,-58.4989 L 2.82082,-58.9796
 L 2.68752,-59.4771 L 2.60696,-59.9857 L 2.58,-60.5 L 2.60696,-61.0143 L 2.68752,-61.5229 L 2.82082,-62.0204
 L 3.00537,-62.5011 L 3.23917,-62.96 L 3.51964,-63.3919 L 3.84373,-63.7921 L 4.20789,-64.1563 L 4.60811,-64.4804
 L 4.95001,-64.7024 L 4.95001,-74 L 5.00574,-74.5302 L 5.17047,-75.0372 L 5.43701,-75.4988 L 5.79373,-75.895
 L 6.22501,-76.2084 L 6.71202,-76.4252 L 7.23346,-76.536 L 7.76654,-76.536 L 8.28798,-76.4252 L 8.77499,-76.2084
 L 9.20627,-75.895 L 9.56299,-75.4988 L 9.82953,-75.0372 L 9.99426,-74.5302 L 10.05,-74 L 10.05,-64.7024
 L 10.3919,-64.4804 L 10.7921,-64.1563 L 11.1563,-63.7921 L 11.4804,-63.3919 L 11.7608,-62.96 L 11.9946,-62.5011
 L 12.1792,-62.0204 L 12.3125,-61.5229 L 12.393,-61.0143 L 12.42,-60.5 L 12.393,-59.9857 L 12.3125,-59.4771
 L 12.1792,-58.9796 L 11.9946,-58.4989 L 11.7608,-58.04 L 11.4804,-57.6081 L 11.1563,-57.2079 L 10.7921,-56.8437
 L 10.3919,-56.5196 L 9.95999,-56.2392 L 9.50113,-56.0054 L 9.02036,-55.8208 L 8.52292,-55.6875 L 8.01427,-55.607
 L 7.5,-55.58 z
M 1064.99,-55.607 L 1064.48,-55.6875 L 1063.98,-55.8208 L 1063.5,-56.0054 L 1063.04,-56.2392 L 1062.61,-56.5196
 L 1062.21,-56.8437 L 1061.84,-57.2079 L 1061.52,-57.6081 L 1061.24,-58.04 L 1061.01,-58.4989 L 1060.82,-58.9796
 L 1060.69,-59.4771 L 1060.61,-59.9857 L 1060.58,-60.5 L 1060.61,-61.0143 L 1060.69,-61.5229 L 1060.82,-62.0204
 L 1061.01,-62.5011 L 1061.24,-62.96 L 1061.52,-63.3919 L 1061.84,-63.7921 L 1062.21,-64.1563 L 1062.61,-64.4804
 L 1062.95,-64.7024 L 1062.95,-74 L 1063.01,-74.5302 L 1063.17,-75.0372 L 1063.44,-75.4988 L 1063.79,-75.895
 L 1064.23,-76.2084 L 1064.71,-76.4252 L 1065.23,-76.536 L 1065.77,-76.536 L 1066.29,-76.4252 L 1066.77,-76.2084
 L 1067.21,-75.895 L 1067.56,-75.4988 L 1067.83,-75.0372 L 1067.99,-74.5302 L 1068.05,-74 L 1068.05,-64.7024
 L 1068.39,-64.4804 L 1068.79,-64.1563 L 1069.16,-63.7921 L 1069.48,-63.3919 L 1069.76,-62.96 L 1069.99,-62.5011
 L 1070.18,-62.0204 L 1070.31,-61.5229 L 1070.39,-61.0143 L 1070.42,-60.5 L 1070.39,-59.9857 L 1070.31,-59.4771
 L 1070.18,-58.9796 L 1069.99,-58.4989 L 1069.76,-58.04 L 1069.48,-57.6081 L 1069.16,-57.2079 L 1068.79,-56.8437
 L 1068.39,-56.5196 L 1067.96,-56.2392 L 1067.5,-56.0054 L 1067.02,-55.8208 L 1066.52,-55.6875 L 1066.01,-55.607
 L 1065.5,-55.58 z
M 1241.32,-55.607 L 1240.81,-55.6875 L 1240.31,-55.8208 L 1239.83,-56.0054 L 1239.37,-56.2392 L 1238.94,-56.5196
 L 1238.54,-56.8437 L 1238.18,-57.2079 L 1237.85,-57.6081 L 1237.57,-58.04 L 1237.34,-58.4989 L 1237.15,-58.9796
 L 1237.02,-59.4771 L 1236.94,-59.9857 L 1236.91,-60.5 L 1236.94,-61.0143 L 1237.02,-61.5229 L 1237.15,-62.0204
 L 1237.34,-62.5011 L 1237.57,-62.96 L 1237.85,-63.3919 L 1238.18,-63.7921 L 1238.54,-64.1563 L 1238.94,-64.4804
 L 1239.28,-64.7024 L 1239.28,-74 L 1239.34,-74.5302 L 1239.5,-75.0372 L 1239.77,-75.4988 L 1240.13,-75.895
 L 1240.56,-76.2084 L 1241.05,-76.4252 L 1241.57,-76.536 L 1242.1,-76.536 L 1242.62,-76.4252 L 1243.11,-76.2084
 L 1243.54,-75.895 L 1243.9,-75.4988 L 1244.16,-75.0372 L 1244.33,-74.5302 L 1244.38,-74 L 1244.38,-64.7024
 L 1244.73,-64.4804 L 1245.13,-64.1563 L 1245.49,-63.7921 L 1245.81,-63.3919 L 1246.09,-62.96 L 1246.33,-62.5011
 L 1246.51,-62.0204 L 1246.65,-61.5229 L 1246.73,-61.0143 L 1246.75,-60.5 L 1246.73,-59.9857 L 1246.65,-59.4771
 L 1246.51,-58.9796 L 1246.33,-58.4989 L 1246.09,-58.04 L 1245.81,-57.6081 L 1245.49,-57.2079 L 1245.13,-56.8437
 L 1244.73,-56.5196 L 1244.29,-56.2392 L 1243.83,-56.0054 L 1243.35,-55.8208 L 1242.86,-55.6875 L 1242.35,-55.607
 L 1241.83,-55.58 z
M 888.652,-55.607 L 888.144,-55.6875 L 887.646,-55.8208 L 887.166,-56.0054 L 886.707,-56.2392 L 886.275,-56.5196
 L 885.875,-56.8437 L 885.51,-57.2079 L 885.186,-57.6081 L 884.906,-58.04 L 884.672,-58.4989 L 884.487,-58.9796
 L 884.354,-59.4771 L 884.274,-59.9857 L 884.247,-60.5 L 884.274,-61.0143 L 884.354,-61.5229 L 884.487,-62.0204
 L 884.672,-62.5011 L 884.906,-62.96 L 885.186,-63.3919 L 885.51,-63.7921 L 885.875,-64.1563 L 886.275,-64.4804
 L 886.617,-64.7024 L 886.617,-74 L 886.672,-74.5302 L 886.837,-75.0372 L 887.104,-75.4988 L 887.46,-75.895
 L 887.892,-76.2084 L 888.379,-76.4252 L 888.9,-76.536 L 889.433,-76.536 L 889.955,-76.4252 L 890.442,-76.2084
 L 890.873,-75.895 L 891.23,-75.4988 L 891.496,-75.0372 L 891.661,-74.5302 L 891.717,-74 L 891.717,-64.7024
 L 892.059,-64.4804 L 892.459,-64.1563 L 892.823,-63.7921 L 893.147,-63.3919 L 893.427,-62.96 L 893.661,-62.5011
 L 893.846,-62.0204 L 893.979,-61.5229 L 894.06,-61.0143 L 894.087,-60.5 L 894.06,-59.9857 L 893.979,-59.4771
 L 893.846,-58.9796 L 893.661,-58.4989 L 893.427,-58.04 L 893.147,-57.6081 L 892.823,-57.2079 L 892.459,-56.8437
 L 892.059,-56.5196 L 891.627,-56.2392 L 891.168,-56.0054 L 890.687,-55.8208 L 890.19,-55.6875 L 889.681,-55.607
 L 889.167,-55.58 z
M 712.319,-55.607 L 711.81,-55.6875 L 711.313,-55.8208 L 710.832,-56.0054 L 710.373,-56.2392 L 709.941,-56.5196
 L 709.541,-56.8437 L 709.177,-57.2079 L 708.853,-57.6081 L 708.572,-58.04 L 708.339,-58.4989 L 708.154,-58.9796
 L 708.021,-59.4771 L 707.94,-59.9857 L 707.913,-60.5 L 707.94,-61.0143 L 708.021,-61.5229 L 708.154,-62.0204
 L 708.339,-62.5011 L 708.572,-62.96 L 708.853,-63.3919 L 709.177,-63.7921 L 709.541,-64.1563 L 709.941,-64.4804
 L 710.283,-64.7024 L 710.283,-74 L 710.339,-74.5302 L 710.504,-75.0372 L 710.77,-75.4988 L 711.127,-75.895
 L 711.558,-76.2084 L 712.045,-76.4252 L 712.567,-76.536 L 713.1,-76.536 L 713.621,-76.4252 L 714.108,-76.2084
 L 714.54,-75.895 L 714.896,-75.4988 L 715.163,-75.0372 L 715.328,-74.5302 L 715.383,-74 L 715.383,-64.7024
 L 715.725,-64.4804 L 716.125,-64.1563 L 716.49,-63.7921 L 716.814,-63.3919 L 717.094,-62.96 L 717.328,-62.5011
 L 717.513,-62.0204 L 717.646,-61.5229 L 717.726,-61.0143 L 717.753,-60.5 L 717.726,-59.9857 L 717.646,-59.4771
 L 717.513,-58.9796 L 717.328,-58.4989 L 717.094,-58.04 L 716.814,-57.6081 L 716.49,-57.2079 L 716.125,-56.8437
 L 715.725,-56.5196 L 715.293,-56.2392 L 714.834,-56.0054 L 714.354,-55.8208 L 713.856,-55.6875 L 713.348,-55.607
 L 712.833,-55.58 z
M 1417.65,-55.607 L 1417.14,-55.6875 L 1416.65,-55.8208 L 1416.17,-56.0054 L 1415.71,-56.2392 L 1415.27,-56.5196
 L 1414.87,-56.8437 L 1414.51,-57.2079 L 1414.19,-57.6081 L 1413.91,-58.04 L 1413.67,-58.4989 L 1413.49,-58.9796
 L 1413.35,-59.4771 L 1413.27,-59.9857 L 1413.25,-60.5 L 1413.27,-61.0143 L 1413.35,-61.5229 L 1413.49,-62.0204
 L 1413.67,-62.5011 L 1413.91,-62.96 L 1414.19,-63.3919 L 1414.51,-63.7921 L 1414.87,-64.1563 L 1415.27,-64.4804
 L 1415.62,-64.7024 L 1415.62,-74 L 1415.67,-74.5302 L 1415.84,-75.0372 L 1416.1,-75.4988 L 1416.46,-75.895
 L 1416.89,-76.2084 L 1417.38,-76.4252 L 1417.9,-76.536 L 1418.43,-76.536 L 1418.95,-76.4252 L 1419.44,-76.2084
 L 1419.87,-75.895 L 1420.23,-75.4988 L 1420.5,-75.0372 L 1420.66,-74.5302 L 1420.72,-74 L 1420.72,-64.7024
 L 1421.06,-64.4804 L 1421.46,-64.1563 L 1421.82,-63.7921 L 1422.15,-63.3919 L 1422.43,-62.96 L 1422.66,-62.5011
 L 1422.85,-62.0204 L 1422.98,-61.5229 L 1423.06,-61.0143 L 1423.09,-60.5 L 1423.06,-59.9857 L 1422.98,-59.4771
 L 1422.85,-58.9796 L 1422.66,-58.4989 L 1422.43,-58.04 L 1422.15,-57.6081 L 1421.82,-57.2079 L 1421.46,-56.8437
 L 1421.06,-56.5196 L 1420.63,-56.2392 L 1420.17,-56.0054 L 1419.69,-55.8208 L 1419.19,-55.6875 L 1418.68,-55.607
 L 1418.17,-55.58 z
M 535.986,-55.607 L 535.477,-55.6875 L 534.98,-55.8208 L 534.499,-56.0054 L 534.04,-56.2392 L 533.608,-56.5196
 L 533.208,-56.8437 L 532.844,-57.2079 L 532.52,-57.6081 L 532.239,-58.04 L 532.005,-58.4989 L 531.821,-58.9796
 L 531.688,-59.4771 L 531.607,-59.9857 L 531.58,-60.5 L 531.607,-61.0143 L 531.688,-61.5229 L 531.821,-62.0204
 L 532.005,-62.5011 L 532.239,-62.96 L 532.52,-63.3919 L 532.844,-63.7921 L 533.208,-64.1563 L 533.608,-64.4804
 L 533.95,-64.7024 L 533.95,-74 L 534.006,-74.5302 L 534.17,-75.0372 L 534.437,-75.4988 L 534.794,-75.895
 L 535.225,-76.2084 L 535.712,-76.4252 L 536.233,-76.536 L 536.767,-76.536 L 537.288,-76.4252 L 537.775,-76.2084
 L 538.206,-75.895 L 538.563,-75.4988 L 538.83,-75.0372 L 538.994,-74.5302 L 539.05,-74 L 539.05,-64.7024
 L 539.392,-64.4804 L 539.792,-64.1563 L 540.156,-63.7921 L 540.48,-63.3919 L 540.761,-62.96 L 540.995,-62.5011
 L 541.179,-62.0204 L 541.312,-61.5229 L 541.393,-61.0143 L 541.42,-60.5 L 541.393,-59.9857 L 541.312,-59.4771
 L 541.179,-58.9796 L 540.995,-58.4989 L 540.761,-58.04 L 540.48,-57.6081 L 540.156,-57.2079 L 539.792,-56.8437
 L 539.392,-56.5196 L 538.96,-56.2392 L 538.501,-56.0054 L 538.02,-55.8208 L 537.523,-55.6875 L 537.014,-55.607
 L 536.5,-55.58 z
M 359.652,-55.607 L 359.144,-55.6875 L 358.646,-55.8208 L 358.166,-56.0054 L 357.707,-56.2392 L 357.275,-56.5196
 L 356.875,-56.8437 L 356.51,-57.2079 L 356.186,-57.6081 L 355.906,-58.04 L 355.672,-58.4989 L 355.487,-58.9796
 L 355.354,-59.4771 L 355.274,-59.9857 L 355.247,-60.5 L 355.274,-61.0143 L 355.354,-61.5229 L 355.487,-62.0204
 L 355.672,-62.5011 L 355.906,-62.96 L 356.186,-63.3919 L 356.51,-63.7921 L 356.875,-64.1563 L 357.275,-64.4804
 L 357.617,-64.7024 L 357.617,-74 L 357.672,-74.5302 L 357.837,-75.0372 L 358.104,-75.4988 L 358.46,-75.895
 L 358.892,-76.2084 L 359.379,-76.4252 L 359.9,-76.536 L 360.433,-76.536 L 360.955,-76.4252 L 361.442,-76.2084
 L 361.873,-75.895 L 362.23,-75.4988 L 362.496,-75.0372 L 362.661,-74.5302 L 362.717,-74 L 362.717,-64.7024
 L 363.059,-64.4804 L 363.459,-64.1563 L 363.823,-63.7921 L 364.147,-63.3919 L 364.427,-62.96 L 364.661,-62.5011
 L 364.846,-62.0204 L 364.979,-61.5229 L 365.06,-61.0143 L 365.087,-60.5 L 365.06,-59.9857 L 364.979,-59.4771
 L 364.846,-58.9796 L 364.661,-58.4989 L 364.427,-58.04 L 364.147,-57.6081 L 363.823,-57.2079 L 363.459,-56.8437
 L 363.059,-56.5196 L 362.627,-56.2392 L 362.168,-56.0054 L 361.687,-55.8208 L 361.19,-55.6875 L 360.681,-55.607
 L 360.167,-55.58 z
M 1593.99,-55.607 L 1593.48,-55.6875 L 1592.98,-55.8208 L 1592.5,-56.0054 L 1592.04,-56.2392 L 1591.61,-56.5196
 L 1591.21,-56.8437 L 1590.84,-57.2079 L 1590.52,-57.6081 L 1590.24,-58.04 L 1590.01,-58.4989 L 1589.82,-58.9796
 L 1589.69,-59.4771 L 1589.61,-59.9857 L 1589.58,-60.5 L 1589.61,-61.0143 L 1589.69,-61.5229 L 1589.82,-62.0204
 L 1590.01,-62.5011 L 1590.24,-62.96 L 1590.52,-63.3919 L 1590.84,-63.7921 L 1591.21,-64.1563 L 1591.61,-64.4804
 L 1591.95,-64.7024 L 1591.95,-74 L 1592.01,-74.5302 L 1592.17,-75.0372 L 1592.44,-75.4988 L 1592.79,-75.895
 L 1593.23,-76.2084 L 1593.71,-76.4252 L 1594.23,-76.536 L 1594.77,-76.536 L 1595.29,-76.4252 L 1595.77,-76.2084
 L 1596.21,-75.895 L 1596.56,-75.4988 L 1596.83,-75.0372 L 1596.99,-74.5302 L 1597.05,-74 L 1597.05,-64.7024
 L 1597.39,-64.4804 L 1597.79,-64.1563 L 1598.16,-63.7921 L 1598.48,-63.3919 L 1598.76,-62.96 L 1598.99,-62.5011
 L 1599.18,-62.0204 L 1599.31,-61.5229 L 1599.39,-61.0143 L 1599.42,-60.5 L 1599.39,-59.9857 L 1599.31,-59.4771
 L 1599.18,-58.9796 L 1598.99,-58.4989 L 1598.76,-58.04 L 1598.48,-57.6081 L 1598.16,-57.2079 L 1597.79,-56.8437
 L 1597.39,-56.5196 L 1596.96,-56.2392 L 1596.5,-56.0054 L 1596.02,-55.8208 L 1595.52,-55.6875 L 1595.01,-55.607
 L 1594.5,-55.58 z
M 183.319,-55.607 L 182.81,-55.6875 L 182.313,-55.8208 L 181.832,-56.0054 L 181.373,-56.2392 L 180.941,-56.5196
 L 180.541,-56.8437 L 180.177,-57.2079 L 179.853,-57.6081 L 179.572,-58.04 L 179.339,-58.4989 L 179.154,-58.9796
 L 179.021,-59.4771 L 178.94,-59.9857 L 178.913,-60.5 L 178.94,-61.0143 L 179.021,-61.5229 L 179.154,-62.0204
 L 179.339,-62.5011 L 179.572,-62.96 L 179.853,-63.3919 L 180.177,-63.7921 L 180.541,-64.1563 L 180.941,-64.4804
 L 181.283,-64.7024 L 181.283,-74 L 181.339,-74.5302 L 181.504,-75.0372 L 181.77,-75.4988 L 182.127,-75.895
 L 182.558,-76.2084 L 183.045,-76.4252 L 183.567,-76.536 L 184.1,-76.536 L 184.621,-76.4252 L 185.108,-76.2084
 L 185.54,-75.895 L 185.896,-75.4988 L 186.163,-75.0372 L 186.328,-74.5302 L 186.383,-74 L 186.383,-64.7024
 L 186.725,-64.4804 L 187.125,-64.1563 L 187.49,-63.7921 L 187.814,-63.3919 L 188.094,-62.96 L 188.328,-62.5011
 L 188.513,-62.0204 L 188.646,-61.5229 L 188.726,-61.0143 L 188.753,-60.5 L 188.726,-59.9857 L 188.646,-59.4771
 L 188.513,-58.9796 L 188.328,-58.4989 L 188.094,-58.04 L 187.814,-57.6081 L 187.49,-57.2079 L 187.125,-56.8437
 L 186.725,-56.5196 L 186.293,-56.2392 L 185.834,-56.0054 L 185.354,-55.8208 L 184.856,-55.6875 L 184.348,-55.607
 L 183.833,-55.58 z
M 1077.47,-21.0631 L 1076.69,-21.3616 L 1075.99,-21.8159 L 1075.4,-22.4063 L 1074.94,-23.1069 L 1074.64,-23.8871
 L 1074.5,-24.9284 L 1074.5,-58 L 1074.59,-58.8316 L 1074.85,-59.627 L 1075.26,-60.3511 L 1075.82,-60.9726
 L 1076.5,-61.4641 L 1077.26,-61.8042 L 1078.5,-62 L 1164.26,-62 L 1165.09,-61.9126 L 1165.89,-61.6542
 L 1166.61,-61.2361 L 1167.23,-60.6765 L 1167.72,-60 L 1168.06,-59.2361 L 1168.24,-58.4181 L 1168.24,-57.5819
 L 1168.06,-56.7639 L 1167.72,-56 L 1167.23,-55.3235 L 1166.61,-54.7639 L 1165.7,-54.2679 L 1079.94,-21.1963
 L 1079.13,-20.9786 L 1078.3,-20.9335 z
M 901.137,-21.0631 L 900.356,-21.3616 L 899.654,-21.8159 L 899.062,-22.4063 L 898.605,-23.1069 L 898.305,-23.8871
 L 898.167,-24.9284 L 898.167,-58 L 898.254,-58.8316 L 898.512,-59.627 L 898.931,-60.3511 L 899.49,-60.9726
 L 900.167,-61.4641 L 900.931,-61.8042 L 902.167,-62 L 987.926,-62 L 988.758,-61.9126 L 989.553,-61.6542
 L 990.277,-61.2361 L 990.898,-60.6765 L 991.39,-60 L 991.73,-59.2361 L 991.904,-58.4181 L 991.904,-57.5819
 L 991.73,-56.7639 L 991.39,-56 L 990.898,-55.3235 L 990.277,-54.7639 L 989.365,-54.2679 L 903.606,-21.1963
 L 902.798,-20.9786 L 901.963,-20.9335 z
M 800.368,-47.8246 L 799.561,-48.0423 L 783.417,-54.2679 L 782.505,-54.7639 L 781.883,-55.3235 L 781.392,-56
 L 781.052,-56.7639 L 780.878,-57.5819 L 780.878,-58.4181 L 781.052,-59.2361 L 781.392,-60 L 781.883,-60.6765
 L 782.505,-61.2361 L 783.229,-61.6542 L 784.024,-61.9126 L 784.856,-62 L 817.144,-62 L 818.173,-61.8653
 L 818.954,-61.5668 L 819.656,-61.1125 L 820.249,-60.5221 L 820.705,-59.8215 L 821.006,-59.0412 L 821.138,-58.2155
 L 821.096,-57.3804 L 820.88,-56.5723 L 820.502,-55.8266 L 819.977,-55.1759 L 819.328,-54.6487 L 818.583,-54.2679
 L 802.439,-48.0423 L 802.029,-47.9091 L 801.203,-47.7795 z
M 699.202,-20.9786 L 698.394,-21.1963 L 612.635,-54.2679 L 611.723,-54.7639 L 611.102,-55.3235 L 610.61,-56
 L 610.27,-56.7639 L 610.096,-57.5819 L 610.096,-58.4181 L 610.27,-59.2361 L 610.61,-60 L 611.102,-60.6765
 L 611.723,-61.2361 L 612.447,-61.6542 L 613.242,-61.9126 L 614.074,-62 L 699.833,-62 L 701.069,-61.8042
 L 701.833,-61.4641 L 702.51,-60.9726 L 703.069,-60.3511 L 703.488,-59.627 L 703.746,-58.8316 L 703.833,-58
 L 703.833,-24.9284 L 703.695,-23.8871 L 703.395,-23.1069 L 702.938,-22.4063 L 702.346,-21.8159 L 701.644,-21.3616
 L 700.863,-21.0631 L 700.037,-20.9335 z
M 522.868,-20.9786 L 522.061,-21.1963 L 436.302,-54.2679 L 435.39,-54.7639 L 434.768,-55.3235 L 434.277,-56
 L 433.937,-56.7639 L 433.763,-57.5819 L 433.763,-58.4181 L 433.937,-59.2361 L 434.277,-60 L 434.768,-60.6765
 L 435.39,-61.2361 L 436.114,-61.6542 L 436.909,-61.9126 L 437.741,-62 L 523.5,-62 L 524.736,-61.8042
 L 525.5,-61.4641 L 526.177,-60.9726 L 526.736,-60.3511 L 527.154,-59.627 L 527.413,-58.8316 L 527.5,-58
 L 527.5,-24.9284 L 527.362,-23.8871 L 527.061,-23.1069 L 526.605,-22.4063 L 526.012,-21.8159 L 525.31,-21.3616
 L 524.529,-21.0631 L 523.703,-20.9335 z
M 346.535,-20.9786 L 345.727,-21.1963 L 259.968,-54.2679 L 259.056,-54.7639 L 258.435,-55.3235 L 257.943,-56
 L 257.603,-56.7639 L 257.429,-57.5819 L 257.429,-58.4181 L 257.603,-59.2361 L 257.943,-60 L 258.435,-60.6765
 L 259.056,-61.2361 L 259.78,-61.6542 L 260.576,-61.9126 L 261.407,-62 L 347.167,-62 L 348.403,-61.8042
 L 349.167,-61.4641 L 349.843,-60.9726 L 350.403,-60.3511 L 350.821,-59.627 L 351.079,-58.8316 L 351.167,-58
 L 351.167,-24.9284 L 351.029,-23.8871 L 350.728,-23.1069 L 350.271,-22.4063 L 349.679,-21.8159 L 348.977,-21.3616
 L 348.196,-21.0631 L 347.37,-20.9335 z
M 1430.14,-21.0631 L 1429.36,-21.3616 L 1428.65,-21.8159 L 1428.06,-22.4063 L 1427.61,-23.1069 L 1427.3,-23.8871
 L 1427.17,-24.9284 L 1427.17,-58 L 1427.25,-58.8316 L 1427.51,-59.627 L 1427.93,-60.3511 L 1428.49,-60.9726
 L 1429.17,-61.4641 L 1429.93,-61.8042 L 1431.17,-62 L 1516.93,-62 L 1517.76,-61.9126 L 1518.55,-61.6542
 L 1519.28,-61.2361 L 1519.9,-60.6765 L 1520.39,-60 L 1520.73,-59.2361 L 1520.9,-58.4181 L 1520.9,-57.5819
 L 1520.73,-56.7639 L 1520.39,-56 L 1519.9,-55.3235 L 1519.28,-54.7639 L 1518.37,-54.2679 L 1432.61,-21.1963
 L 1431.8,-20.9786 L 1430.96,-20.9335 z
M 170.202,-20.9786 L 169.394,-21.1963 L 83.6349,-54.2679 L 82.7229,-54.7639 L 82.1015,-55.3235 L 81.61,-56
 L 81.2699,-56.7639 L 81.096,-57.5819 L 81.096,-58.4181 L 81.2699,-59.2361 L 81.61,-60 L 82.1015,-60.6765
 L 82.7229,-61.2361 L 83.4471,-61.6542 L 84.2424,-61.9126 L 85.0741,-62 L 170.833,-62 L 172.069,-61.8042
 L 172.833,-61.4641 L 173.51,-60.9726 L 174.069,-60.3511 L 174.488,-59.627 L 174.746,-58.8316 L 174.833,-58
 L 174.833,-24.9284 L 174.695,-23.8871 L 174.395,-23.1069 L 173.938,-22.4063 L 173.346,-21.8159 L 172.644,-21.3616
 L 171.863,-21.0631 L 171.037,-20.9335 z
M 1253.8,-21.0631 L 1253.02,-21.3616 L 1252.32,-21.8159 L 1251.73,-22.4063 L 1251.27,-23.1069 L 1250.97,-23.8871
 L 1250.83,-24.9284 L 1250.83,-58 L 1250.92,-58.8316 L 1251.18,-59.627 L 1251.6,-60.3511 L 1252.16,-60.9726
 L 1252.83,-61.4641 L 1253.6,-61.8042 L 1254.83,-62 L 1340.59,-62 L 1341.42,-61.9126 L 1342.22,-61.6542
 L 1342.94,-61.2361 L 1343.57,-60.6765 L 1344.06,-60 L 1344.4,-59.2361 L 1344.57,-58.4181 L 1344.57,-57.5819
 L 1344.4,-56.7639 L 1344.06,-56 L 1343.57,-55.3235 L 1342.94,-54.7639 L 1342.03,-54.2679 L 1256.27,-21.1963
 L 1255.47,-20.9786 L 1254.63,-20.9335 z
M 725.415,-18.8095 L 724.597,-18.9834 L 723.833,-19.3235 L 723.157,-19.815 L 722.597,-20.4365 L 722.179,-21.1606
 L 721.921,-21.9559 L 721.833,-22.7876 L 721.833,-57.2124 L 721.971,-58.2536 L 722.272,-59.0339 L 722.729,-59.7345
 L 723.321,-60.3249 L 724.023,-60.7792 L 724.804,-61.0777 L 725.63,-61.2072 L 726.465,-61.1622 L 727.273,-60.9445
 L 771.907,-43.7321 L 772.98,-43.1125 L 773.572,-42.5221 L 774.029,-41.8215 L 774.33,-41.0412 L 774.462,-40.2155
 L 774.419,-39.3804 L 774.204,-38.5723 L 773.825,-37.8266 L 773.3,-37.1759 L 772.651,-36.6487 L 771.907,-36.2679
 L 727.273,-19.0555 L 726.251,-18.8095 z
M 875.535,-18.8378 L 874.727,-19.0555 L 830.093,-36.2679 L 829.02,-36.8875 L 828.428,-37.4779 L 827.971,-38.1785
 L 827.67,-38.9588 L 827.538,-39.7845 L 827.581,-40.6196 L 827.796,-41.4277 L 828.174,-42.1734 L 828.7,-42.8241
 L 829.349,-43.3513 L 830.093,-43.7321 L 874.727,-60.9445 L 875.749,-61.1905 L 876.585,-61.1905 L 877.403,-61.0166
 L 878.167,-60.6765 L 878.843,-60.185 L 879.403,-59.5635 L 879.821,-58.8394 L 880.079,-58.0441 L 880.167,-57.2124
 L 880.167,-22.7876 L 880.029,-21.7464 L 879.728,-20.9661 L 879.271,-20.2655 L 878.679,-19.6751 L 877.977,-19.2208
 L 877.196,-18.9223 L 876.37,-18.7928 z
M 196.833,-18 L 195.597,-18.1958 L 194.833,-18.5359 L 194.157,-19.0274 L 193.597,-19.6489 L 193.179,-20.373
 L 192.921,-21.1684 L 192.833,-22 L 192.833,-55.0716 L 192.971,-56.1128 L 193.272,-56.8931 L 193.729,-57.5937
 L 194.321,-58.1841 L 195.023,-58.6384 L 195.804,-58.9369 L 196.63,-59.0665 L 197.465,-59.0214 L 198.273,-58.8037
 L 284.032,-25.7321 L 284.944,-25.2361 L 285.565,-24.6765 L 286.057,-24 L 286.397,-23.2361 L 286.571,-22.4181
 L 286.571,-21.5819 L 286.397,-20.7639 L 286.057,-20 L 285.565,-19.3235 L 284.944,-18.7639 L 284.22,-18.3458
 L 283.424,-18.0874 L 282.593,-18 z
M 373.167,-18 L 371.931,-18.1958 L 371.167,-18.5359 L 370.49,-19.0274 L 369.931,-19.6489 L 369.512,-20.373
 L 369.254,-21.1684 L 369.167,-22 L 369.167,-55.0716 L 369.305,-56.1128 L 369.605,-56.8931 L 370.062,-57.5937
 L 370.654,-58.1841 L 371.356,-58.6384 L 372.137,-58.9369 L 372.963,-59.0665 L 373.798,-59.0214 L 374.606,-58.8037
 L 460.365,-25.7321 L 461.277,-25.2361 L 461.898,-24.6765 L 462.39,-24 L 462.73,-23.2361 L 462.904,-22.4181
 L 462.904,-21.5819 L 462.73,-20.7639 L 462.39,-20 L 461.898,-19.3235 L 461.277,-18.7639 L 460.553,-18.3458
 L 459.758,-18.0874 L 458.926,-18 z
M 549.5,-18 L 548.264,-18.1958 L 547.5,-18.5359 L 546.823,-19.0274 L 546.264,-19.6489 L 545.846,-20.373
 L 545.587,-21.1684 L 545.5,-22 L 545.5,-55.0716 L 545.638,-56.1128 L 545.939,-56.8931 L 546.395,-57.5937
 L 546.988,-58.1841 L 547.69,-58.6384 L 548.471,-58.9369 L 549.297,-59.0665 L 550.132,-59.0214 L 550.939,-58.8037
 L 636.698,-25.7321 L 637.61,-25.2361 L 638.232,-24.6765 L 638.723,-24 L 639.063,-23.2361 L 639.237,-22.4181
 L 639.237,-21.5819 L 639.063,-20.7639 L 638.723,-20 L 638.232,-19.3235 L 637.61,-18.7639 L 636.886,-18.3458
 L 636.091,-18.0874 L 635.259,-18 z
M 966.741,-18 L 965.909,-18.0874 L 965.114,-18.3458 L 964.39,-18.7639 L 963.768,-19.3235 L 963.277,-20
 L 962.937,-20.7639 L 962.763,-21.5819 L 962.763,-22.4181 L 962.937,-23.2361 L 963.277,-24 L 963.768,-24.6765
 L 964.39,-25.2361 L 965.302,-25.7321 L 1051.06,-58.8037 L 1051.87,-59.0214 L 1052.7,-59.0665 L 1053.53,-58.9369
 L 1054.31,-58.6384 L 1055.01,-58.1841 L 1055.6,-57.5937 L 1056.06,-56.8931 L 1056.36,-56.1128 L 1056.5,-55.0716
 L 1056.5,-22 L 1056.41,-21.1684 L 1056.15,-20.373 L 1055.74,-19.6489 L 1055.18,-19.0274 L 1054.5,-18.5359
 L 1053.74,-18.1958 L 1052.5,-18 z
M 1143.07,-18 L 1142.24,-18.0874 L 1141.45,-18.3458 L 1140.72,-18.7639 L 1140.1,-19.3235 L 1139.61,-20
 L 1139.27,-20.7639 L 1139.1,-21.5819 L 1139.1,-22.4181 L 1139.27,-23.2361 L 1139.61,-24 L 1140.1,-24.6765
 L 1140.72,-25.2361 L 1141.63,-25.7321 L 1227.39,-58.8037 L 1228.2,-59.0214 L 1229.04,-59.0665 L 1229.86,-58.9369
 L 1230.64,-58.6384 L 1231.35,-58.1841 L 1231.94,-57.5937 L 1232.39,-56.8931 L 1232.7,-56.1128 L 1232.83,-55.0716
 L 1232.83,-22 L 1232.75,-21.1684 L 1232.49,-20.373 L 1232.07,-19.6489 L 1231.51,-19.0274 L 1230.83,-18.5359
 L 1230.07,-18.1958 L 1228.83,-18 z
M 1319.41,-18 L 1318.58,-18.0874 L 1317.78,-18.3458 L 1317.06,-18.7639 L 1316.43,-19.3235 L 1315.94,-20
 L 1315.6,-20.7639 L 1315.43,-21.5819 L 1315.43,-22.4181 L 1315.6,-23.2361 L 1315.94,-24 L 1316.43,-24.6765
 L 1317.06,-25.2361 L 1317.97,-25.7321 L 1403.73,-58.8037 L 1404.53,-59.0214 L 1405.37,-59.0665 L 1406.2,-58.9369
 L 1406.98,-58.6384 L 1407.68,-58.1841 L 1408.27,-57.5937 L 1408.73,-56.8931 L 1409.03,-56.1128 L 1409.17,-55.0716
 L 1409.17,-22 L 1409.08,-21.1684 L 1408.82,-20.373 L 1408.4,-19.6489 L 1407.84,-19.0274 L 1407.17,-18.5359
 L 1406.4,-18.1958 L 1405.17,-18 z
M 22,-18 L 20.7639,-18.1958 L 20,-18.5359 L 19.3235,-19.0274 L 18.7639,-19.6489 L 18.3458,-20.373
 L 18.0874,-21.1684 L 18,-22 L 18,-54.4932 L 18.1379,-55.5344 L 18.4388,-56.3146 L 18.8953,-57.0152
 L 19.4875,-57.6056 L 20.1895,-58.06 L 20.9707,-58.3585 L 21.7968,-58.488 L 22.6318,-58.4429 L 23.4392,-58.2253
 L 107.698,-25.7321 L 108.61,-25.2361 L 109.232,-24.6765 L 109.723,-24 L 110.063,-23.2361 L 110.237,-22.4181
 L 110.237,-21.5819 L 110.063,-20.7639 L 109.723,-20 L 109.232,-19.3235 L 108.61,-18.7639 L 107.886,-18.3458
 L 107.091,-18.0874 L 106.259,-18 z
M 1495.74,-18 L 1494.91,-18.0874 L 1494.11,-18.3458 L 1493.39,-18.7639 L 1492.77,-19.3235 L 1492.28,-20
 L 1491.94,-20.7639 L 1491.76,-21.5819 L 1491.76,-22.4181 L 1491.94,-23.2361 L 1492.28,-24 L 1492.77,-24.6765
 L 1493.39,-25.2361 L 1494.3,-25.7321 L 1578.56,-58.2253 L 1579.37,-58.4429 L 1580.2,-58.488 L 1581.03,-58.3585
 L 1581.81,-58.06 L 1582.51,-57.6056 L 1583.1,-57.0152 L 1583.56,-56.3146 L 1583.86,-55.5344 L 1584,-54.4932
 L 1584,-22 L 1583.91,-21.1684 L 1583.65,-20.373 L 1583.24,-19.6489 L 1582.68,-19.0274 L 1582,-18.5359
 L 1581.24,-18.1958 L 1580,-18 z
M 784.856,-18 L 783.827,-18.1347 L 783.046,-18.4332 L 782.344,-18.8875 L 781.751,-19.4779 L 781.295,-20.1785
 L 780.994,-20.9588 L 780.862,-21.7845 L 780.904,-22.6196 L 781.12,-23.4277 L 781.498,-24.1734 L 782.023,-24.8241
 L 782.672,-25.3513 L 783.417,-25.7321 L 799.561,-31.9577 L 799.971,-32.0909 L 800.797,-32.2205 L 801.632,-32.1754
 L 802.439,-31.9577 L 818.583,-25.7321 L 819.495,-25.2361 L 820.117,-24.6765 L 820.608,-24 L 820.948,-23.2361
 L 821.122,-22.4181 L 821.122,-21.5819 L 820.948,-20.7639 L 820.608,-20 L 820.117,-19.3235 L 819.495,-18.7639
 L 818.771,-18.3458 L 817.976,-18.0874 L 817.144,-18 z
" stroke="black" fill="lightgray" stroke-width="0.5"/>
</svg>
