<?xml version="1.0" standalone="no"?>
<!DOCTYPE svg PUBLIC "-//W3C//DTD SVG 1.1//EN" "http://www.w3.org/Graphics/SVG/1.1/DTD/svg11.dtd">
<svg width="1413mm" height="80mm" viewBox="0 -80 1413 80" xmlns="http://www.w3.org/2000/svg" version="1.1">
<title>OpenSCAD Model</title>
<path d="
M 1413,-80 L 0,-80 L 0,-0 L 4.95,-0 L 4.95,-6 L 5.00572,-6.53017
 L 5.17046,-7.03717 L 5.437,-7.49884 L 5.79372,-7.895 L 6.22499,-8.20836 L 6.71201,-8.42519 L 7.23344,-8.53603
 L 7.76654,-8.53603 L 8.28798,-8.42519 L 8.77499,-8.20836 L 9.20627,-7.895 L 9.56299,-7.49884 L 9.82953,-7.03717
 L 9.99426,-6.53017 L 10.05,-6 L 10.05,-0 L 179.7,-0 L 179.7,-6 L 179.756,-6.53017
 L 179.92,-7.03717 L 180.187,-7.49884 L 180.544,-7.895 L 180.975,-8.20836 L 181.462,-8.42519 L 181.983,-8.53603
 L 182.517,-8.53603 L 183.038,-8.42519 L 183.525,-8.20836 L 183.956,-7.895 L 184.313,-7.49884 L 184.58,-7.03717
 L 184.744,-6.53017 L 184.8,-6 L 184.8,-0 L 354.45,-0 L 354.45,-6 L 354.506,-6.53017
 L 354.67,-7.03717 L 354.937,-7.49884 L 355.294,-7.895 L 355.725,-8.20836 L 356.212,-8.42519 L 356.733,-8.53603
 L 357.267,-8.53603 L 357.788,-8.42519 L 358.275,-8.20836 L 358.706,-7.895 L 359.063,-7.49884 L 359.33,-7.03717
 L 359.494,-6.53017 L 359.55,-6 L 359.55,-0 L 529.2,-0 L 529.2,-6 L 529.256,-6.53017
 L 529.42,-7.03717 L 529.687,-7.49884 L 530.044,-7.895 L 530.475,-8.20836 L 530.962,-8.42519 L 531.483,-8.53603
 L 532.017,-8.53603 L 532.538,-8.42519 L 533.025,-8.20836 L 533.456,-7.895 L 533.813,-7.49884 L 534.08,-7.03717
 L 534.244,-6.53017 L 534.3,-6 L 534.3,-0 L 703.95,-0 L 703.95,-6 L 704.006,-6.53017
 L 704.17,-7.03717 L 704.437,-7.49884 L 704.794,-7.895 L 705.225,-8.20836 L 705.712,-8.42519 L 706.233,-8.53603
 L 706.767,-8.53603 L 707.288,-8.42519 L 707.775,-8.20836 L 708.206,-7.895 L 708.563,-7.49884 L 708.83,-7.03717
 L 708.994,-6.53017 L 709.05,-6 L 709.05,-0 L 878.7,-0 L 878.7,-6 L 878.756,-6.53017
 L 878.92,-7.03717 L 879.187,-7.49884 L 879.544,-7.895 L 879.975,-8.20836 L 880.462,-8.42519 L 880.983,-8.53603
 L 881.517,-8.53603 L 882.038,-8.42519 L 882.525,-8.20836 L 882.956,-7.895 L 883.313,-7.49884 L 883.58,-7.03717
 L 883.744,-6.53017 L 883.8,-6 L 883.8,-0 L 1053.45,-0 L 1053.45,-6 L 1053.51,-6.53017
 L 1053.67,-7.03717 L 1053.94,-7.49884 L 1054.29,-7.895 L 1054.72,-8.20836 L 1055.21,-8.42519 L 1055.73,-8.53603
 L 1056.27,-8.53603 L 1056.79,-8.42519 L 1057.27,-8.20836 L 1057.71,-7.895 L 1058.06,-7.49884 L 1058.33,-7.03717
 L 1058.49,-6.53017 L 1058.55,-6 L 1058.55,-0 L 1228.2,-0 L 1228.2,-6 L 1228.26,-6.53017
 L 1228.42,-7.03717 L 1228.69,-7.49884 L 1229.04,-7.895 L 1229.47,-8.20836 L 1229.96,-8.42519 L 1230.48,-8.53603
 L 1231.02,-8.53603 L 1231.54,-8.42519 L 1232.02,-8.20836 L 1232.46,-7.895 L 1232.81,-7.49884 L 1233.08,-7.03717
 L 1233.24,-6.53017 L 1233.3,-6 L 1233.3,-0 L 1402.95,-0 L 1402.95,-6 L 1403.01,-6.53017
 L 1403.17,-7.03717 L 1403.44,-7.49884 L 1403.79,-7.895 L 1404.22,-8.20836 L 1404.71,-8.42519 L 1405.23,-8.53603
 L 1405.77,-8.53603 L 1406.29,-8.42519 L 1406.77,-8.20836 L 1407.21,-7.895 L 1407.56,-7.49884 L 1407.83,-7.03717
 L 1407.99,-6.53017 L 1408.05,-6 L 1408.05,-0 L 1413,-0 z
M 181.736,-55.607 L 181.227,-55.6875 L 180.73,-55.8208 L 180.249,-56.0054 L 179.79,-56.2392 L 179.358,-56.5196
 L 178.958,-56.8437 L 178.594,-57.2079 L 178.27,-57.6081 L 177.989,-58.04 L 177.755,-58.4989 L 177.571,-58.9796
 L 177.438,-59.4771 L 177.357,-59.9857 L 177.33,-60.5 L 177.357,-61.0143 L 177.438,-61.5229 L 177.571,-62.0204
 L 177.755,-62.5011 L 177.989,-62.96 L 178.27,-63.3919 L 178.594,-63.7921 L 178.958,-64.1563 L 179.358,-64.4804
 L 179.7,-64.7024 L 179.7,-74 L 179.756,-74.5302 L 179.92,-75.0372 L 180.187,-75.4988 L 180.544,-75.895
 L 180.975,-76.2084 L 181.462,-76.4252 L 181.983,-76.536 L 182.517,-76.536 L 183.038,-76.4252 L 183.525,-76.2084
 L 183.956,-75.895 L 184.313,-75.4988 L 184.58,-75.0372 L 184.744,-74.5302 L 184.8,-74 L 184.8,-64.7024
 L 185.142,-64.4804 L 185.542,-64.1563 L 185.906,-63.7921 L 186.23,-63.3919 L 186.511,-62.96 L 186.745,-62.5011
 L 186.929,-62.0204 L 187.062,-61.5229 L 187.143,-61.0143 L 187.17,-60.5 L 187.143,-59.9857 L 187.062,-59.4771
 L 186.929,-58.9796 L 186.745,-58.4989 L 186.511,-58.04 L 186.23,-57.6081 L 185.906,-57.2079 L 185.542,-56.8437
 L 185.142,-56.5196 L 184.71,-56.2392 L 184.251,-56.0054 L 183.77,-55.8208 L 183.273,-55.6875 L 182.764,-55.607
 L 182.25,-55.58 z
M 1055.49,-55.607 L 1054.98,-55.6875 L 1054.48,-55.8208 L 1054,-56.0054 L 1053.54,-56.2392 L 1053.11,-56.5196
 L 1052.71,-56.8437 L 1052.34,-57.2079 L 1052.02,-57.6081 L 1051.74,-58.04 L 1051.51,-58.4989 L 1051.32,-58.9796
 L 1051.19,-59.4771 L 1051.11,-59.9857 L 1051.08,-60.5 L 1051.11,-61.0143 L 1051.19,-61.5229 L 1051.32,-62.0204
 L 1051.51,-62.5011 L 1051.74,-62.96 L 1052.02,-63.3919 L 1052.34,-63.7921 L 1052.71,-64.1563 L 1053.11,-64.4804
 L 1053.45,-64.7024 L 1053.45,-74 L 1053.51,-74.5302 L 1053.67,-75.0372 L 1053.94,-75.4988 L 1054.29,-75.895
 L 1054.73,-76.2084 L 1055.21,-76.4252 L 1055.73,-76.536 L 1056.27,-76.536 L 1056.79,-76.4252 L 1057.27,-76.2084
 L 1057.71,-75.895 L 1058.06,-75.4988 L 1058.33,-75.0372 L 1058.49,-74.5302 L 1058.55,-74 L 1058.55,-64.7024
 L 1058.89,-64.4804 L 1059.29,-64.1563 L 1059.66,-63.7921 L 1059.98,-63.3919 L 1060.26,-62.96 L 1060.49,-62.5011
 L 1060.68,-62.0204 L 1060.81,-61.5229 L 1060.89,-61.0143 L 1060.92,-60.5 L 1060.89,-59.9857 L 1060.81,-59.4771
 L 1060.68,-58.9796 L 1060.49,-58.4989 L 1060.26,-58.04 L 1059.98,-57.6081 L 1059.66,-57.2079 L 1059.29,-56.8437
 L 1058.89,-56.5196 L 1058.46,-56.2392 L 1058,-56.0054 L 1057.52,-55.8208 L 1057.02,-55.6875 L 1056.51,-55.607
 L 1056,-55.58 z
M 880.736,-55.607 L 880.227,-55.6875 L 879.73,-55.8208 L 879.249,-56.0054 L 878.79,-56.2392 L 878.358,-56.5196
 L 877.958,-56.8437 L 877.594,-57.2079 L 877.27,-57.6081 L 876.989,-58.04 L 876.755,-58.4989 L 876.571,-58.9796
 L 876.438,-59.4771 L 876.357,-59.9857 L 876.33,-60.5 L 876.357,-61.0143 L 876.438,-61.5229 L 876.571,-62.0204
 L 876.755,-62.5011 L 876.989,-62.96 L 877.27,-63.3919 L 877.594,-63.7921 L 877.958,-64.1563 L 878.358,-64.4804
 L 878.7,-64.7024 L 878.7,-74 L 878.756,-74.5302 L 878.92,-75.0372 L 879.187,-75.4988 L 879.544,-75.895
 L 879.975,-76.2084 L 880.462,-76.4252 L 880.983,-76.536 L 881.517,-76.536 L 882.038,-76.4252 L 882.525,-76.2084
 L 882.956,-75.895 L 883.313,-75.4988 L 883.58,-75.0372 L 883.744,-74.5302 L 883.8,-74 L 883.8,-64.7024
 L 884.142,-64.4804 L 884.542,-64.1563 L 884.906,-63.7921 L 885.23,-63.3919 L 885.511,-62.96 L 885.745,-62.5011
 L 885.929,-62.0204 L 886.062,-61.5229 L 886.143,-61.0143 L 886.17,-60.5 L 886.143,-59.9857 L 886.062,-59.4771
 L 885.929,-58.9796 L 885.745,-58.4989 L 885.511,-58.04 L 885.23,-57.6081 L 884.906,-57.2079 L 884.542,-56.8437
 L 884.142,-56.5196 L 883.71,-56.2392 L 883.251,-56.0054 L 882.77,-55.8208 L 882.273,-55.6875 L 881.764,-55.607
 L 881.25,-55.58 z
M 6.98573,-55.607 L 6.47708,-55.6875 L 5.97964,-55.8208 L 5.49887,-56.0054 L 5.04001,-56.2392 L 4.60811,-56.5196
 L 4.20789,-56.8437 L 3.84373,-57.2079 L 3.51964,-57.6081 L 3.23917,-58.04 L 3.00537,-58.4989 L 2.82082,-58.9796
 L 2.68752,-59.4771 L 2.60696,-59.9857 L 2.58,-60.5 L 2.60696,-61.0143 L 2.68752,-61.5229 L 2.82082,-62.0204
 L 3.00537,-62.5011 L 3.23917,-62.96 L 3.51964,-63.3919 L 3.84373,-63.7921 L 4.20789,-64.1563 L 4.60811,-64.4804
 L 4.95001,-64.7024 L 4.95001,-74 L 5.00574,-74.5302 L 5.17047,-75.0372 L 5.43701,-75.4988 L 5.79373,-75.895
 L 6.22501,-76.2084 L 6.71202,-76.4252 L 7.23346,-76.536 L 7.76654,-76.536 L 8.28798,-76.4252 L 8.77499,-76.2084
 L 9.20627,-75.895 L 9.56299,-75.4988 L 9.82953,-75.0372 L 9.99426,-74.5302 L 10.05,-74 L 10.05,-64.7024
 L 10.3919,-64.4804 L 10.7921,-64.1563 L 11.1563,-63.7921 L 11.4804,-63.3919 L 11.7608,-62.96 L 11.9946,-62.5011
 L 12.1792,-62.0204 L 12.3125,-61.5229 L 12.393,-61.0143 L 12.42,-60.5 L 12.393,-59.9857 L 12.3125,-59.4771
 L 12.1792,-58.9796 L 11.9946,-58.4989 L 11.7608,-58.04 L 11.4804,-57.6081 L 11.1563,-57.2079 L 10.7921,-56.8437
 L 10.3919,-56.5196 L 9.95999,-56.2392 L 9.50113,-56.0054 L 9.02036,-55.8208 L 8.52292,-55.6875 L 8.01427,-55.607
 L 7.5,-55.58 z
M 705.986,-55.607 L 705.477,-55.6875 L 704.98,-55.8208 L 704.499,-56.0054 L 704.04,-56.2392 L 703.608,-56.5196
 L 703.208,-56.8437 L 702.844,-57.2079 L 702.52,-57.6081 L 702.239,-58.04 L 702.005,-58.4989 L 701.821,-58.9796
 L 701.688,-59.4771 L 701.607,-59.9857 L 701.58,-60.5 L 701.607,-61.0143 L 701.688,-61.5229 L 701.821,-62.0204
 L 702.005,-62.5011 L 702.239,-62.96 L 702.52,-63.3919 L 702.844,-63.7921 L 703.208,-64.1563 L 703.608,-64.4804
 L 703.95,-64.7024 L 703.95,-74 L 704.006,-74.5302 L 704.17,-75.0372 L 704.437,-75.4988 L 704.794,-75.895
 L 705.225,-76.2084 L 705.712,-76.4252 L 706.233,-76.536 L 706.767,-76.536 L 707.288,-76.4252 L 707.775,-76.2084
 L 708.206,-75.895 L 708.563,-75.4988 L 708.83,-75.0372 L 708.994,-74.5302 L 709.05,-74 L 709.05,-64.7024
 L 709.392,-64.4804 L 709.792,-64.1563 L 710.156,-63.7921 L 710.48,-63.3919 L 710.761,-62.96 L 710.995,-62.5011
 L 711.179,-62.0204 L 711.312,-61.5229 L 711.393,-61.0143 L 711.42,-60.5 L 711.393,-59.9857 L 711.312,-59.4771
 L 711.179,-58.9796 L 710.995,-58.4989 L 710.761,-58.04 L 710.48,-57.6081 L 710.156,-57.2079 L 709.792,-56.8437
 L 709.392,-56.5196 L 708.96,-56.2392 L 708.501,-56.0054 L 708.02,-55.8208 L 707.523,-55.6875 L 707.014,-55.607
 L 706.5,-55.58 z
M 1230.24,-55.607 L 1229.73,-55.6875 L 1229.23,-55.8208 L 1228.75,-56.0054 L 1228.29,-56.2392 L 1227.86,-56.5196
 L 1227.46,-56.8437 L 1227.09,-57.2079 L 1226.77,-57.6081 L 1226.49,-58.04 L 1226.26,-58.4989 L 1226.07,-58.9796
 L 1225.94,-59.4771 L 1225.86,-59.9857 L 1225.83,-60.5 L 1225.86,-61.0143 L 1225.94,-61.5229 L 1226.07,-62.0204
 L 1226.26,-62.5011 L 1226.49,-62.96 L 1226.77,-63.3919 L 1227.09,-63.7921 L 1227.46,-64.1563 L 1227.86,-64.4804
 L 1228.2,-64.7024 L 1228.2,-74 L 1228.26,-74.5302 L 1228.42,-75.0372 L 1228.69,-75.4988 L 1229.04,-75.895
 L 1229.48,-76.2084 L 1229.96,-76.4252 L 1230.48,-76.536 L 1231.02,-76.536 L 1231.54,-76.4252 L 1232.02,-76.2084
 L 1232.46,-75.895 L 1232.81,-75.4988 L 1233.08,-75.0372 L 1233.24,-74.5302 L 1233.3,-74 L 1233.3,-64.7024
 L 1233.64,-64.4804 L 1234.04,-64.1563 L 1234.41,-63.7921 L 1234.73,-63.3919 L 1235.01,-62.96 L 1235.24,-62.5011
 L 1235.43,-62.0204 L 1235.56,-61.5229 L 1235.64,-61.0143 L 1235.67,-60.5 L 1235.64,-59.9857 L 1235.56,-59.4771
 L 1235.43,-58.9796 L 1235.24,-58.4989 L 1235.01,-58.04 L 1234.73,-57.6081 L 1234.41,-57.2079 L 1234.04,-56.8437
 L 1233.64,-56.5196 L 1233.21,-56.2392 L 1232.75,-56.0054 L 1232.27,-55.8208 L 1231.77,-55.6875 L 1231.26,-55.607
 L 1230.75,-55.58 z
M 531.236,-55.607 L 530.727,-55.6875 L 530.23,-55.8208 L 529.749,-56.0054 L 529.29,-56.2392 L 528.858,-56.5196
 L 528.458,-56.8437 L 528.094,-57.2079 L 527.77,-57.6081 L 527.489,-58.04 L 527.255,-58.4989 L 527.071,-58.9796
 L 526.938,-59.4771 L 526.857,-59.9857 L 526.83,-60.5 L 526.857,-61.0143 L 526.938,-61.5229 L 527.071,-62.0204
 L 527.255,-62.5011 L 527.489,-62.96 L 527.77,-63.3919 L 528.094,-63.7921 L 528.458,-64.1563 L 528.858,-64.4804
 L 529.2,-64.7024 L 529.2,-74 L 529.256,-74.5302 L 529.42,-75.0372 L 529.687,-75.4988 L 530.044,-75.895
 L 530.475,-76.2084 L 530.962,-76.4252 L 531.483,-76.536 L 532.017,-76.536 L 532.538,-76.4252 L 533.025,-76.2084
 L 533.456,-75.895 L 533.813,-75.4988 L 534.08,-75.0372 L 534.244,-74.5302 L 534.3,-74 L 534.3,-64.7024
 L 534.642,-64.4804 L 535.042,-64.1563 L 535.406,-63.7921 L 535.73,-63.3919 L 536.011,-62.96 L 536.245,-62.5011
 L 536.429,-62.0204 L 536.562,-61.5229 L 536.643,-61.0143 L 536.67,-60.5 L 536.643,-59.9857 L 536.562,-59.4771
 L 536.429,-58.9796 L 536.245,-58.4989 L 536.011,-58.04 L 535.73,-57.6081 L 535.406,-57.2079 L 535.042,-56.8437
 L 534.642,-56.5196 L 534.21,-56.2392 L 533.751,-56.0054 L 533.27,-55.8208 L 532.773,-55.6875 L 532.264,-55.607
 L 531.75,-55.58 z
M 356.486,-55.607 L 355.977,-55.6875 L 355.48,-55.8208 L 354.999,-56.0054 L 354.54,-56.2392 L 354.108,-56.5196
 L 353.708,-56.8437 L 353.344,-57.2079 L 353.02,-57.6081 L 352.739,-58.04 L 352.505,-58.4989 L 352.321,-58.9796
 L 352.188,-59.4771 L 352.107,-59.9857 L 352.08,-60.5 L 352.107,-61.0143 L 352.188,-61.5229 L 352.321,-62.0204
 L 352.505,-62.5011 L 352.739,-62.96 L 353.02,-63.3919 L 353.344,-63.7921 L 353.708,-64.1563 L 354.108,-64.4804
 L 354.45,-64.7024 L 354.45,-74 L 354.506,-74.5302 L 354.67,-75.0372 L 354.937,-75.4988 L 355.294,-75.895
 L 355.725,-76.2084 L 356.212,-76.4252 L 356.733,-76.536 L 357.267,-76.536 L 357.788,-76.4252 L 358.275,-76.2084
 L 358.706,-75.895 L 359.063,-75.4988 L 359.33,-75.0372 L 359.494,-74.5302 L 359.55,-74 L 359.55,-64.7024
 L 359.892,-64.4804 L 360.292,-64.1563 L 360.656,-63.7921 L 360.98,-63.3919 L 361.261,-62.96 L 361.495,-62.5011
 L 361.679,-62.0204 L 361.812,-61.5229 L 361.893,-61.0143 L 361.92,-60.5 L 361.893,-59.9857 L 361.812,-59.4771
 L 361.679,-58.9796 L 361.495,-58.4989 L 361.261,-58.04 L 360.98,-57.6081 L 360.656,-57.2079 L 360.292,-56.8437
 L 359.892,-56.5196 L 359.46,-56.2392 L 359.001,-56.0054 L 358.52,-55.8208 L 358.023,-55.6875 L 357.514,-55.607
 L 357,-55.58 z
M 1404.99,-55.607 L 1404.48,-55.6875 L 1403.98,-55.8208 L 1403.5,-56.0054 L 1403.04,-56.2392 L 1402.61,-56.5196
 L 1402.21,-56.8437 L 1401.84,-57.2079 L 1401.52,-57.6081 L 1401.24,-58.04 L 1401.01,-58.4989 L 1400.82,-58.9796
 L 1400.69,-59.4771 L 1400.61,-59.9857 L 1400.58,-60.5 L 1400.61,-61.0143 L 1400.69,-61.5229 L 1400.82,-62.0204
 L 1401.01,-62.5011 L 1401.24,-62.96 L 1401.52,-63.3919 L 1401.84,-63.7921 L 1402.21,-64.1563 L 1402.61,-64.4804
 L 1402.95,-64.7024 L 1402.95,-74 L 1403.01,-74.5302 L 1403.17,-75.0372 L 1403.44,-75.4988 L 1403.79,-75.895
 L 1404.23,-76.2084 L 1404.71,-76.4252 L 1405.23,-76.536 L 1405.77,-76.536 L 1406.29,-76.4252 L 1406.77,-76.2084
 L 1407.21,-75.895 L 1407.56,-75.4988 L 1407.83,-75.0372 L 1407.99,-74.5302 L 1408.05,-74 L 1408.05,-64.7024
 L 1408.39,-64.4804 L 1408.79,-64.1563 L 1409.16,-63.7921 L 1409.48,-63.3919 L 1409.76,-62.96 L 1409.99,-62.5011
 L 1410.18,-62.0204 L 1410.31,-61.5229 L 1410.39,-61.0143 L 1410.42,-60.5 L 1410.39,-59.9857 L 1410.31,-59.4771
 L 1410.18,-58.9796 L 1409.99,-58.4989 L 1409.76,-58.04 L 1409.48,-57.6081 L 1409.16,-57.2079 L 1408.79,-56.8437
 L 1408.39,-56.5196 L 1407.96,-56.2392 L 1407.5,-56.0054 L 1407.02,-55.8208 L 1406.52,-55.6875 L 1406.01,-55.607
 L 1405.5,-55.58 z
M 343.356,-21.0444 L 342.549,-21.2646 L 257.724,-54.2723 L 256.824,-54.7639 L 256.202,-55.3235 L 255.711,-56
 L 255.371,-56.7639 L 255.197,-57.5819 L 255.197,-58.4181 L 255.371,-59.2361 L 255.711,-60 L 256.202,-60.6765
 L 256.824,-61.2361 L 257.548,-61.6542 L 258.343,-61.9126 L 259.175,-62 L 344,-62 L 345.236,-61.8042
 L 346,-61.4641 L 346.677,-60.9726 L 347.236,-60.3511 L 347.654,-59.627 L 347.913,-58.8316 L 348,-58
 L 348,-24.9923 L 347.859,-23.9393 L 347.556,-23.16 L 347.097,-22.4608 L 346.503,-21.8722 L 345.8,-21.42
 L 345.018,-21.1239 L 344.191,-20.9968 z
M 518.106,-21.0444 L 517.299,-21.2646 L 432.474,-54.2723 L 431.574,-54.7639 L 430.952,-55.3235 L 430.461,-56
 L 430.121,-56.7639 L 429.947,-57.5819 L 429.947,-58.4181 L 430.121,-59.2361 L 430.461,-60 L 430.952,-60.6765
 L 431.574,-61.2361 L 432.298,-61.6542 L 433.093,-61.9126 L 433.925,-62 L 518.75,-62 L 519.986,-61.8042
 L 520.75,-61.4641 L 521.427,-60.9726 L 521.986,-60.3511 L 522.404,-59.627 L 522.663,-58.8316 L 522.75,-58
 L 522.75,-24.9923 L 522.609,-23.9393 L 522.306,-23.16 L 521.847,-22.4608 L 521.253,-21.8722 L 520.55,-21.42
 L 519.768,-21.1239 L 518.941,-20.9968 z
M 1242.73,-21.1239 L 1241.95,-21.42 L 1241.25,-21.8722 L 1240.65,-22.4608 L 1240.19,-23.16 L 1239.89,-23.9393
 L 1239.75,-24.9923 L 1239.75,-58 L 1239.84,-58.8316 L 1240.1,-59.627 L 1240.51,-60.3511 L 1241.07,-60.9726
 L 1241.75,-61.4641 L 1242.51,-61.8042 L 1243.75,-62 L 1328.57,-62 L 1329.41,-61.9126 L 1330.2,-61.6542
 L 1330.93,-61.2361 L 1331.55,-60.6765 L 1332.04,-60 L 1332.38,-59.2361 L 1332.55,-58.4181 L 1332.55,-57.5819
 L 1332.38,-56.7639 L 1332.04,-56 L 1331.55,-55.3235 L 1330.93,-54.7639 L 1330.03,-54.2723 L 1245.2,-21.2646
 L 1244.39,-21.0444 L 1243.56,-20.9968 z
M 692.856,-21.0444 L 692.049,-21.2646 L 607.224,-54.2723 L 606.324,-54.7639 L 605.702,-55.3235 L 605.211,-56
 L 604.871,-56.7639 L 604.697,-57.5819 L 604.697,-58.4181 L 604.871,-59.2361 L 605.211,-60 L 605.702,-60.6765
 L 606.324,-61.2361 L 607.048,-61.6542 L 607.843,-61.9126 L 608.675,-62 L 693.5,-62 L 694.736,-61.8042
 L 695.5,-61.4641 L 696.177,-60.9726 L 696.736,-60.3511 L 697.154,-59.627 L 697.413,-58.8316 L 697.5,-58
 L 697.5,-24.9923 L 697.359,-23.9393 L 697.056,-23.16 L 696.597,-22.4608 L 696.003,-21.8722 L 695.3,-21.42
 L 694.518,-21.1239 L 693.691,-20.9968 z
M 168.606,-21.0444 L 167.799,-21.2646 L 82.9744,-54.2723 L 82.0739,-54.7639 L 81.4524,-55.3235 L 80.9609,-56
 L 80.6208,-56.7639 L 80.4469,-57.5819 L 80.4469,-58.4181 L 80.6208,-59.2361 L 80.9609,-60 L 81.4524,-60.6765
 L 82.0739,-61.2361 L 82.798,-61.6542 L 83.5934,-61.9126 L 84.425,-62 L 169.25,-62 L 170.486,-61.8042
 L 171.25,-61.4641 L 171.927,-60.9726 L 172.486,-60.3511 L 172.904,-59.627 L 173.163,-58.8316 L 173.25,-58
 L 173.25,-24.9923 L 173.109,-23.9393 L 172.806,-23.16 L 172.347,-22.4608 L 171.753,-21.8722 L 171.05,-21.42
 L 170.268,-21.1239 L 169.441,-20.9968 z
M 718.482,-21.1239 L 717.7,-21.42 L 716.997,-21.8722 L 716.403,-22.4608 L 715.944,-23.16 L 715.641,-23.9393
 L 715.5,-24.9923 L 715.5,-58 L 715.587,-58.8316 L 715.846,-59.627 L 716.264,-60.3511 L 716.823,-60.9726
 L 717.5,-61.4641 L 718.264,-61.8042 L 719.5,-62 L 804.325,-62 L 805.157,-61.9126 L 805.952,-61.6542
 L 806.676,-61.2361 L 807.298,-60.6765 L 807.789,-60 L 808.129,-59.2361 L 808.303,-58.4181 L 808.303,-57.5819
 L 808.129,-56.7639 L 807.789,-56 L 807.298,-55.3235 L 806.676,-54.7639 L 805.776,-54.2723 L 720.951,-21.2646
 L 720.144,-21.0444 L 719.309,-20.9968 z
M 893.232,-21.1239 L 892.45,-21.42 L 891.747,-21.8722 L 891.153,-22.4608 L 890.694,-23.16 L 890.391,-23.9393
 L 890.25,-24.9923 L 890.25,-58 L 890.337,-58.8316 L 890.596,-59.627 L 891.014,-60.3511 L 891.573,-60.9726
 L 892.25,-61.4641 L 893.014,-61.8042 L 894.25,-62 L 979.075,-62 L 979.907,-61.9126 L 980.702,-61.6542
 L 981.426,-61.2361 L 982.048,-60.6765 L 982.539,-60 L 982.879,-59.2361 L 983.053,-58.4181 L 983.053,-57.5819
 L 982.879,-56.7639 L 982.539,-56 L 982.048,-55.3235 L 981.426,-54.7639 L 980.526,-54.2723 L 895.701,-21.2646
 L 894.894,-21.0444 L 894.059,-20.9968 z
M 1067.98,-21.1239 L 1067.2,-21.42 L 1066.5,-21.8722 L 1065.9,-22.4608 L 1065.44,-23.16 L 1065.14,-23.9393
 L 1065,-24.9923 L 1065,-58 L 1065.09,-58.8316 L 1065.35,-59.627 L 1065.76,-60.3511 L 1066.32,-60.9726
 L 1067,-61.4641 L 1067.76,-61.8042 L 1069,-62 L 1153.82,-62 L 1154.66,-61.9126 L 1155.45,-61.6542
 L 1156.18,-61.2361 L 1156.8,-60.6765 L 1157.29,-60 L 1157.63,-59.2361 L 1157.8,-58.4181 L 1157.8,-57.5819
 L 1157.63,-56.7639 L 1157.29,-56 L 1156.8,-55.3235 L 1156.18,-54.7639 L 1155.28,-54.2723 L 1070.45,-21.2646
 L 1069.64,-21.0444 L 1068.81,-20.9968 z
M 195.25,-18 L 194.014,-18.1958 L 193.25,-18.5359 L 192.573,-19.0274 L 192.014,-19.6489 L 191.596,-20.373
 L 191.337,-21.1684 L 191.25,-22 L 191.25,-55.0077 L 191.391,-56.0607 L 191.694,-56.84 L 192.153,-57.5392
 L 192.747,-58.1278 L 193.45,-58.58 L 194.232,-58.8761 L 195.059,-59.0031 L 195.894,-58.9556 L 196.701,-58.7354
 L 281.526,-25.7277 L 282.426,-25.2361 L 283.048,-24.6765 L 283.539,-24 L 283.879,-23.2361 L 284.053,-22.4181
 L 284.053,-21.5819 L 283.879,-20.7639 L 283.539,-20 L 283.048,-19.3235 L 282.426,-18.7639 L 281.702,-18.3458
 L 280.907,-18.0874 L 280.075,-18 z
M 370,-18 L 368.764,-18.1958 L 368,-18.5359 L 367.323,-19.0274 L 366.764,-19.6489 L 366.346,-20.373
 L 366.087,-21.1684 L 366,-22 L 366,-55.0077 L 366.141,-56.0607 L 366.444,-56.84 L 366.903,-57.5392
 L 367.497,-58.1278 L 368.2,-58.58 L 368.982,-58.8761 L 369.809,-59.0031 L 370.644,-58.9556 L 371.451,-58.7354
 L 456.276,-25.7277 L 457.176,-25.2361 L 457.798,-24.6765 L 458.289,-24 L 458.629,-23.2361 L 458.803,-22.4181
 L 458.803,-21.5819 L 458.629,-20.7639 L 458.289,-20 L 457.798,-19.3235 L 457.176,-18.7639 L 456.452,-18.3458
 L 455.657,-18.0874 L 454.825,-18 z
M 544.75,-18 L 543.514,-18.1958 L 542.75,-18.5359 L 542.073,-19.0274 L 541.514,-19.6489 L 541.096,-20.373
 L 540.837,-21.1684 L 540.75,-22 L 540.75,-55.0077 L 540.891,-56.0607 L 541.194,-56.84 L 541.653,-57.5392
 L 542.247,-58.1278 L 542.95,-58.58 L 543.732,-58.8761 L 544.559,-59.0031 L 545.394,-58.9556 L 546.201,-58.7354
 L 631.026,-25.7277 L 631.926,-25.2361 L 632.548,-24.6765 L 633.039,-24 L 633.379,-23.2361 L 633.553,-22.4181
 L 633.553,-21.5819 L 633.379,-20.7639 L 633.039,-20 L 632.548,-19.3235 L 631.926,-18.7639 L 631.202,-18.3458
 L 630.407,-18.0874 L 629.575,-18 z
M 783.425,-18 L 782.593,-18.0874 L 781.798,-18.3458 L 781.074,-18.7639 L 780.452,-19.3235 L 779.961,-20
 L 779.621,-20.7639 L 779.447,-21.5819 L 779.447,-22.4181 L 779.621,-23.2361 L 779.961,-24 L 780.452,-24.6765
 L 781.074,-25.2361 L 781.974,-25.7277 L 866.799,-58.7354 L 867.606,-58.9556 L 868.441,-59.0031 L 869.268,-58.8761
 L 870.05,-58.58 L 870.753,-58.1278 L 871.347,-57.5392 L 871.806,-56.84 L 872.109,-56.0607 L 872.25,-55.0077
 L 872.25,-22 L 872.163,-21.1684 L 871.904,-20.373 L 871.486,-19.6489 L 870.927,-19.0274 L 870.25,-18.5359
 L 869.486,-18.1958 L 868.25,-18 z
M 958.175,-18 L 957.343,-18.0874 L 956.548,-18.3458 L 955.824,-18.7639 L 955.202,-19.3235 L 954.711,-20
 L 954.371,-20.7639 L 954.197,-21.5819 L 954.197,-22.4181 L 954.371,-23.2361 L 954.711,-24 L 955.202,-24.6765
 L 955.824,-25.2361 L 956.724,-25.7277 L 1041.55,-58.7354 L 1042.36,-58.9556 L 1043.19,-59.0031 L 1044.02,-58.8761
 L 1044.8,-58.58 L 1045.5,-58.1278 L 1046.1,-57.5392 L 1046.56,-56.84 L 1046.86,-56.0607 L 1047,-55.0077
 L 1047,-22 L 1046.91,-21.1684 L 1046.65,-20.373 L 1046.24,-19.6489 L 1045.68,-19.0274 L 1045,-18.5359
 L 1044.24,-18.1958 L 1043,-18 z
M 1132.93,-18 L 1132.09,-18.0874 L 1131.3,-18.3458 L 1130.57,-18.7639 L 1129.95,-19.3235 L 1129.46,-20
 L 1129.12,-20.7639 L 1128.95,-21.5819 L 1128.95,-22.4181 L 1129.12,-23.2361 L 1129.46,-24 L 1129.95,-24.6765
 L 1130.57,-25.2361 L 1131.47,-25.7277 L 1216.3,-58.7354 L 1217.11,-58.9556 L 1217.94,-59.0031 L 1218.77,-58.8761
 L 1219.55,-58.58 L 1220.25,-58.1278 L 1220.85,-57.5392 L 1221.31,-56.84 L 1221.61,-56.0607 L 1221.75,-55.0077
 L 1221.75,-22 L 1221.66,-21.1684 L 1221.4,-20.373 L 1220.99,-19.6489 L 1220.43,-19.0274 L 1219.75,-18.5359
 L 1218.99,-18.1958 L 1217.75,-18 z
M 1307.68,-18 L 1306.84,-18.0874 L 1306.05,-18.3458 L 1305.32,-18.7639 L 1304.7,-19.3235 L 1304.21,-20
 L 1303.87,-20.7639 L 1303.7,-21.5819 L 1303.7,-22.4181 L 1303.87,-23.2361 L 1304.21,-24 L 1304.7,-24.6765
 L 1305.32,-25.2361 L 1306.22,-25.7277 L 1389.55,-58.1517 L 1390.36,-58.3719 L 1391.19,-58.4195 L 1392.02,-58.2924
 L 1392.8,-57.9963 L 1393.5,-57.5441 L 1394.1,-56.9555 L 1394.56,-56.2563 L 1394.86,-55.477 L 1395,-54.424
 L 1395,-22 L 1394.91,-21.1684 L 1394.65,-20.373 L 1394.24,-19.6489 L 1393.68,-19.0274 L 1393,-18.5359
 L 1392.24,-18.1958 L 1391,-18 z
M 22,-18 L 20.7639,-18.1958 L 20,-18.5359 L 19.3235,-19.0274 L 18.7639,-19.6489 L 18.3458,-20.373
 L 18.0874,-21.1684 L 18,-22 L 18,-54.424 L 18.1411,-55.477 L 18.4443,-56.2563 L 18.903,-56.9555
 L 19.497,-57.5441 L 20.2004,-57.9963 L 20.9824,-58.2924 L 21.8089,-58.4195 L 22.6438,-58.3719 L 23.4506,-58.1517
 L 106.776,-25.7277 L 107.676,-25.2361 L 108.298,-24.6765 L 108.789,-24 L 109.129,-23.2361 L 109.303,-22.4181
 L 109.303,-21.5819 L 109.129,-20.7639 L 108.789,-20 L 108.298,-19.3235 L 107.676,-18.7639 L 106.952,-18.3458
 L 106.157,-18.0874 L 105.325,-18 z
" stroke="black" fill="lightgray" stroke-width="0.5"/>
</svg>
