<?xml version="1.0" standalone="no"?>
<!DOCTYPE svg PUBLIC "-//W3C//DTD SVG 1.1//EN" "http://www.w3.org/Graphics/SVG/1.1/DTD/svg11.dtd">
<svg width="1222mm" height="80mm" viewBox="0 -80 1222 80" xmlns="http://www.w3.org/2000/svg" version="1.1">
<title>OpenSCAD Model</title>
<path d="
M 1222,-80 L 0,-80 L 0,-0 L 4.95,-0 L 4.95,-6 L 5.00572,-6.53017
 L 5.17046,-7.03717 L 5.437,-7.49884 L 5.79372,-7.895 L 6.22499,-8.20836 L 6.71201,-8.42519 L 7.23344,-8.53603
 L 7.76654,-8.53603 L 8.28798,-8.42519 L 8.77499,-8.20836 L 9.20627,-7.895 L 9.56299,-7.49884 L 9.82953,-7.03717
 L 9.99426,-6.53017 L 10.05,-6 L 10.05,-0 L 177.379,-0 L 177.379,-6 L 177.434,-6.53017
 L 177.599,-7.03717 L 177.866,-7.49884 L 178.222,-7.895 L 178.654,-8.20836 L 179.141,-8.42519 L 179.662,-8.53603
 L 180.195,-8.53603 L 180.717,-8.42519 L 181.204,-8.20836 L 181.635,-7.895 L 181.992,-7.49884 L 182.258,-7.03717
 L 182.423,-6.53017 L 182.479,-6 L 182.479,-0 L 349.807,-0 L 349.807,-6 L 349.863,-6.53017
 L 350.028,-7.03717 L 350.294,-7.49884 L 350.651,-7.895 L 351.082,-8.20836 L 351.569,-8.42519 L 352.091,-8.53603
 L 352.624,-8.53603 L 353.145,-8.42519 L 353.632,-8.20836 L 354.063,-7.895 L 354.42,-7.49884 L 354.687,-7.03717
 L 354.851,-6.53017 L 354.907,-6 L 354.907,-0 L 522.236,-0 L 522.236,-6 L 522.291,-6.53017
 L 522.456,-7.03717 L 522.723,-7.49884 L 523.079,-7.895 L 523.511,-8.20836 L 523.998,-8.42519 L 524.519,-8.53603
 L 525.052,-8.53603 L 525.574,-8.42519 L 526.061,-8.20836 L 526.492,-7.895 L 526.849,-7.49884 L 527.115,-7.03717
 L 527.28,-6.53017 L 527.336,-6 L 527.336,-0 L 694.664,-0 L 694.664,-6 L 694.72,-6.53017
 L 694.885,-7.03717 L 695.151,-7.49884 L 695.508,-7.895 L 695.939,-8.20836 L 696.426,-8.42519 L 696.948,-8.53603
 L 697.481,-8.53603 L 698.002,-8.42519 L 698.489,-8.20836 L 698.921,-7.895 L 699.277,-7.49884 L 699.544,-7.03717
 L 699.709,-6.53017 L 699.764,-6 L 699.764,-0 L 867.093,-0 L 867.093,-6 L 867.149,-6.53017
 L 867.313,-7.03717 L 867.58,-7.49884 L 867.937,-7.895 L 868.368,-8.20836 L 868.855,-8.42519 L 869.376,-8.53603
 L 869.909,-8.53603 L 870.431,-8.42519 L 870.918,-8.20836 L 871.349,-7.895 L 871.706,-7.49884 L 871.972,-7.03717
 L 872.137,-6.53017 L 872.193,-6 L 872.193,-0 L 1039.52,-0 L 1039.52,-6 L 1039.58,-6.53017
 L 1039.74,-7.03717 L 1040.01,-7.49884 L 1040.37,-7.895 L 1040.8,-8.20836 L 1041.28,-8.42519 L 1041.8,-8.53603
 L 1042.34,-8.53603 L 1042.86,-8.42519 L 1043.35,-8.20836 L 1043.78,-7.895 L 1044.13,-7.49884 L 1044.4,-7.03717
 L 1044.57,-6.53017 L 1044.62,-6 L 1044.62,-0 L 1211.95,-0 L 1211.95,-6 L 1212.01,-6.53017
 L 1212.17,-7.03717 L 1212.44,-7.49884 L 1212.79,-7.895 L 1213.22,-8.20836 L 1213.71,-8.42519 L 1214.23,-8.53603
 L 1214.77,-8.53603 L 1215.29,-8.42519 L 1215.77,-8.20836 L 1216.21,-7.895 L 1216.56,-7.49884 L 1216.83,-7.03717
 L 1216.99,-6.53017 L 1217.05,-6 L 1217.05,-0 L 1222,-0 z
M 6.98573,-55.607 L 6.47708,-55.6875 L 5.97964,-55.8208 L 5.49887,-56.0054 L 5.04001,-56.2392 L 4.60811,-56.5196
 L 4.20789,-56.8437 L 3.84373,-57.2079 L 3.51964,-57.6081 L 3.23917,-58.04 L 3.00537,-58.4989 L 2.82082,-58.9796
 L 2.68752,-59.4771 L 2.60696,-59.9857 L 2.58,-60.5 L 2.60696,-61.0143 L 2.68752,-61.5229 L 2.82082,-62.0204
 L 3.00537,-62.5011 L 3.23917,-62.96 L 3.51964,-63.3919 L 3.84373,-63.7921 L 4.20789,-64.1563 L 4.60811,-64.4804
 L 4.95001,-64.7024 L 4.95001,-74 L 5.00574,-74.5302 L 5.17047,-75.0372 L 5.43701,-75.4988 L 5.79373,-75.895
 L 6.22501,-76.2084 L 6.71202,-76.4252 L 7.23346,-76.536 L 7.76654,-76.536 L 8.28798,-76.4252 L 8.77499,-76.2084
 L 9.20627,-75.895 L 9.56299,-75.4988 L 9.82953,-75.0372 L 9.99426,-74.5302 L 10.05,-74 L 10.05,-64.7024
 L 10.3919,-64.4804 L 10.7921,-64.1563 L 11.1563,-63.7921 L 11.4804,-63.3919 L 11.7608,-62.96 L 11.9946,-62.5011
 L 12.1792,-62.0204 L 12.3125,-61.5229 L 12.393,-61.0143 L 12.42,-60.5 L 12.393,-59.9857 L 12.3125,-59.4771
 L 12.1792,-58.9796 L 11.9946,-58.4989 L 11.7608,-58.04 L 11.4804,-57.6081 L 11.1563,-57.2079 L 10.7921,-56.8437
 L 10.3919,-56.5196 L 9.95999,-56.2392 L 9.50113,-56.0054 L 9.02036,-55.8208 L 8.52292,-55.6875 L 8.01427,-55.607
 L 7.5,-55.58 z
M 179.414,-55.607 L 178.906,-55.6875 L 178.408,-55.8208 L 177.927,-56.0054 L 177.469,-56.2392 L 177.037,-56.5196
 L 176.636,-56.8437 L 176.272,-57.2079 L 175.948,-57.6081 L 175.668,-58.04 L 175.434,-58.4989 L 175.249,-58.9796
 L 175.116,-59.4771 L 175.036,-59.9857 L 175.009,-60.5 L 175.036,-61.0143 L 175.116,-61.5229 L 175.249,-62.0204
 L 175.434,-62.5011 L 175.668,-62.96 L 175.948,-63.3919 L 176.272,-63.7921 L 176.636,-64.1563 L 177.037,-64.4804
 L 177.379,-64.7024 L 177.379,-74 L 177.434,-74.5302 L 177.599,-75.0372 L 177.866,-75.4988 L 178.222,-75.895
 L 178.654,-76.2084 L 179.141,-76.4252 L 179.662,-76.536 L 180.195,-76.536 L 180.717,-76.4252 L 181.204,-76.2084
 L 181.635,-75.895 L 181.992,-75.4988 L 182.258,-75.0372 L 182.423,-74.5302 L 182.479,-74 L 182.479,-64.7024
 L 182.82,-64.4804 L 183.221,-64.1563 L 183.585,-63.7921 L 183.909,-63.3919 L 184.189,-62.96 L 184.423,-62.5011
 L 184.608,-62.0204 L 184.741,-61.5229 L 184.822,-61.0143 L 184.849,-60.5 L 184.822,-59.9857 L 184.741,-59.4771
 L 184.608,-58.9796 L 184.423,-58.4989 L 184.189,-58.04 L 183.909,-57.6081 L 183.585,-57.2079 L 183.221,-56.8437
 L 182.82,-56.5196 L 182.389,-56.2392 L 181.93,-56.0054 L 181.449,-55.8208 L 180.951,-55.6875 L 180.443,-55.607
 L 179.929,-55.58 z
M 351.843,-55.607 L 351.334,-55.6875 L 350.837,-55.8208 L 350.356,-56.0054 L 349.897,-56.2392 L 349.465,-56.5196
 L 349.065,-56.8437 L 348.701,-57.2079 L 348.377,-57.6081 L 348.096,-58.04 L 347.863,-58.4989 L 347.678,-58.9796
 L 347.545,-59.4771 L 347.464,-59.9857 L 347.437,-60.5 L 347.464,-61.0143 L 347.545,-61.5229 L 347.678,-62.0204
 L 347.863,-62.5011 L 348.096,-62.96 L 348.377,-63.3919 L 348.701,-63.7921 L 349.065,-64.1563 L 349.465,-64.4804
 L 349.807,-64.7024 L 349.807,-74 L 349.863,-74.5302 L 350.028,-75.0372 L 350.294,-75.4988 L 350.651,-75.895
 L 351.082,-76.2084 L 351.569,-76.4252 L 352.091,-76.536 L 352.624,-76.536 L 353.145,-76.4252 L 353.632,-76.2084
 L 354.063,-75.895 L 354.42,-75.4988 L 354.687,-75.0372 L 354.851,-74.5302 L 354.907,-74 L 354.907,-64.7024
 L 355.249,-64.4804 L 355.649,-64.1563 L 356.013,-63.7921 L 356.337,-63.3919 L 356.618,-62.96 L 356.852,-62.5011
 L 357.036,-62.0204 L 357.17,-61.5229 L 357.25,-61.0143 L 357.277,-60.5 L 357.25,-59.9857 L 357.17,-59.4771
 L 357.036,-58.9796 L 356.852,-58.4989 L 356.618,-58.04 L 356.337,-57.6081 L 356.013,-57.2079 L 355.649,-56.8437
 L 355.249,-56.5196 L 354.817,-56.2392 L 354.358,-56.0054 L 353.877,-55.8208 L 353.38,-55.6875 L 352.871,-55.607
 L 352.357,-55.58 z
M 524.271,-55.607 L 523.763,-55.6875 L 523.265,-55.8208 L 522.785,-56.0054 L 522.326,-56.2392 L 521.894,-56.5196
 L 521.494,-56.8437 L 521.129,-57.2079 L 520.805,-57.6081 L 520.525,-58.04 L 520.291,-58.4989 L 520.107,-58.9796
 L 519.973,-59.4771 L 519.893,-59.9857 L 519.866,-60.5 L 519.893,-61.0143 L 519.973,-61.5229 L 520.107,-62.0204
 L 520.291,-62.5011 L 520.525,-62.96 L 520.805,-63.3919 L 521.129,-63.7921 L 521.494,-64.1563 L 521.894,-64.4804
 L 522.236,-64.7024 L 522.236,-74 L 522.291,-74.5302 L 522.456,-75.0372 L 522.723,-75.4988 L 523.079,-75.895
 L 523.511,-76.2084 L 523.998,-76.4252 L 524.519,-76.536 L 525.052,-76.536 L 525.574,-76.4252 L 526.061,-76.2084
 L 526.492,-75.895 L 526.849,-75.4988 L 527.115,-75.0372 L 527.28,-74.5302 L 527.336,-74 L 527.336,-64.7024
 L 527.678,-64.4804 L 528.078,-64.1563 L 528.442,-63.7921 L 528.766,-63.3919 L 529.047,-62.96 L 529.28,-62.5011
 L 529.465,-62.0204 L 529.598,-61.5229 L 529.679,-61.0143 L 529.706,-60.5 L 529.679,-59.9857 L 529.598,-59.4771
 L 529.465,-58.9796 L 529.28,-58.4989 L 529.047,-58.04 L 528.766,-57.6081 L 528.442,-57.2079 L 528.078,-56.8437
 L 527.678,-56.5196 L 527.246,-56.2392 L 526.787,-56.0054 L 526.306,-55.8208 L 525.809,-55.6875 L 525.3,-55.607
 L 524.786,-55.58 z
M 696.7,-55.607 L 696.191,-55.6875 L 695.694,-55.8208 L 695.213,-56.0054 L 694.754,-56.2392 L 694.322,-56.5196
 L 693.922,-56.8437 L 693.558,-57.2079 L 693.234,-57.6081 L 692.953,-58.04 L 692.72,-58.4989 L 692.535,-58.9796
 L 692.402,-59.4771 L 692.321,-59.9857 L 692.294,-60.5 L 692.321,-61.0143 L 692.402,-61.5229 L 692.535,-62.0204
 L 692.72,-62.5011 L 692.953,-62.96 L 693.234,-63.3919 L 693.558,-63.7921 L 693.922,-64.1563 L 694.322,-64.4804
 L 694.664,-64.7024 L 694.664,-74 L 694.72,-74.5302 L 694.885,-75.0372 L 695.151,-75.4988 L 695.508,-75.895
 L 695.939,-76.2084 L 696.426,-76.4252 L 696.948,-76.536 L 697.481,-76.536 L 698.002,-76.4252 L 698.489,-76.2084
 L 698.921,-75.895 L 699.277,-75.4988 L 699.544,-75.0372 L 699.709,-74.5302 L 699.764,-74 L 699.764,-64.7024
 L 700.106,-64.4804 L 700.506,-64.1563 L 700.871,-63.7921 L 701.195,-63.3919 L 701.475,-62.96 L 701.709,-62.5011
 L 701.893,-62.0204 L 702.027,-61.5229 L 702.107,-61.0143 L 702.134,-60.5 L 702.107,-59.9857 L 702.027,-59.4771
 L 701.893,-58.9796 L 701.709,-58.4989 L 701.475,-58.04 L 701.195,-57.6081 L 700.871,-57.2079 L 700.506,-56.8437
 L 700.106,-56.5196 L 699.674,-56.2392 L 699.215,-56.0054 L 698.735,-55.8208 L 698.237,-55.6875 L 697.729,-55.607
 L 697.214,-55.58 z
M 869.129,-55.607 L 868.62,-55.6875 L 868.122,-55.8208 L 867.642,-56.0054 L 867.183,-56.2392 L 866.751,-56.5196
 L 866.351,-56.8437 L 865.987,-57.2079 L 865.662,-57.6081 L 865.382,-58.04 L 865.148,-58.4989 L 864.964,-58.9796
 L 864.83,-59.4771 L 864.75,-59.9857 L 864.723,-60.5 L 864.75,-61.0143 L 864.83,-61.5229 L 864.964,-62.0204
 L 865.148,-62.5011 L 865.382,-62.96 L 865.662,-63.3919 L 865.987,-63.7921 L 866.351,-64.1563 L 866.751,-64.4804
 L 867.093,-64.7024 L 867.093,-74 L 867.149,-74.5302 L 867.313,-75.0372 L 867.58,-75.4988 L 867.937,-75.895
 L 868.368,-76.2084 L 868.855,-76.4252 L 869.376,-76.536 L 869.909,-76.536 L 870.431,-76.4252 L 870.918,-76.2084
 L 871.349,-75.895 L 871.706,-75.4988 L 871.972,-75.0372 L 872.137,-74.5302 L 872.193,-74 L 872.193,-64.7024
 L 872.535,-64.4804 L 872.935,-64.1563 L 873.299,-63.7921 L 873.623,-63.3919 L 873.904,-62.96 L 874.137,-62.5011
 L 874.322,-62.0204 L 874.455,-61.5229 L 874.536,-61.0143 L 874.563,-60.5 L 874.536,-59.9857 L 874.455,-59.4771
 L 874.322,-58.9796 L 874.137,-58.4989 L 873.904,-58.04 L 873.623,-57.6081 L 873.299,-57.2079 L 872.935,-56.8437
 L 872.535,-56.5196 L 872.103,-56.2392 L 871.644,-56.0054 L 871.163,-55.8208 L 870.666,-55.6875 L 870.157,-55.607
 L 869.643,-55.58 z
M 1041.56,-55.607 L 1041.05,-55.6875 L 1040.55,-55.8208 L 1040.07,-56.0054 L 1039.61,-56.2392 L 1039.18,-56.5196
 L 1038.78,-56.8437 L 1038.42,-57.2079 L 1038.09,-57.6081 L 1037.81,-58.04 L 1037.58,-58.4989 L 1037.39,-58.9796
 L 1037.26,-59.4771 L 1037.18,-59.9857 L 1037.15,-60.5 L 1037.18,-61.0143 L 1037.26,-61.5229 L 1037.39,-62.0204
 L 1037.58,-62.5011 L 1037.81,-62.96 L 1038.09,-63.3919 L 1038.42,-63.7921 L 1038.78,-64.1563 L 1039.18,-64.4804
 L 1039.52,-64.7024 L 1039.52,-74 L 1039.58,-74.5302 L 1039.74,-75.0372 L 1040.01,-75.4988 L 1040.37,-75.895
 L 1040.8,-76.2084 L 1041.28,-76.4252 L 1041.8,-76.536 L 1042.34,-76.536 L 1042.86,-76.4252 L 1043.35,-76.2084
 L 1043.78,-75.895 L 1044.13,-75.4988 L 1044.4,-75.0372 L 1044.57,-74.5302 L 1044.62,-74 L 1044.62,-64.7024
 L 1044.96,-64.4804 L 1045.36,-64.1563 L 1045.73,-63.7921 L 1046.05,-63.3919 L 1046.33,-62.96 L 1046.57,-62.5011
 L 1046.75,-62.0204 L 1046.88,-61.5229 L 1046.96,-61.0143 L 1046.99,-60.5 L 1046.96,-59.9857 L 1046.88,-59.4771
 L 1046.75,-58.9796 L 1046.57,-58.4989 L 1046.33,-58.04 L 1046.05,-57.6081 L 1045.73,-57.2079 L 1045.36,-56.8437
 L 1044.96,-56.5196 L 1044.53,-56.2392 L 1044.07,-56.0054 L 1043.59,-55.8208 L 1043.09,-55.6875 L 1042.59,-55.607
 L 1042.07,-55.58 z
M 1213.99,-55.607 L 1213.48,-55.6875 L 1212.98,-55.8208 L 1212.5,-56.0054 L 1212.04,-56.2392 L 1211.61,-56.5196
 L 1211.21,-56.8437 L 1210.84,-57.2079 L 1210.52,-57.6081 L 1210.24,-58.04 L 1210.01,-58.4989 L 1209.82,-58.9796
 L 1209.69,-59.4771 L 1209.61,-59.9857 L 1209.58,-60.5 L 1209.61,-61.0143 L 1209.69,-61.5229 L 1209.82,-62.0204
 L 1210.01,-62.5011 L 1210.24,-62.96 L 1210.52,-63.3919 L 1210.84,-63.7921 L 1211.21,-64.1563 L 1211.61,-64.4804
 L 1211.95,-64.7024 L 1211.95,-74 L 1212.01,-74.5302 L 1212.17,-75.0372 L 1212.44,-75.4988 L 1212.79,-75.895
 L 1213.23,-76.2084 L 1213.71,-76.4252 L 1214.23,-76.536 L 1214.77,-76.536 L 1215.29,-76.4252 L 1215.77,-76.2084
 L 1216.21,-75.895 L 1216.56,-75.4988 L 1216.83,-75.0372 L 1216.99,-74.5302 L 1217.05,-74 L 1217.05,-64.7024
 L 1217.39,-64.4804 L 1217.79,-64.1563 L 1218.16,-63.7921 L 1218.48,-63.3919 L 1218.76,-62.96 L 1218.99,-62.5011
 L 1219.18,-62.0204 L 1219.31,-61.5229 L 1219.39,-61.0143 L 1219.42,-60.5 L 1219.39,-59.9857 L 1219.31,-59.4771
 L 1219.18,-58.9796 L 1218.99,-58.4989 L 1218.76,-58.04 L 1218.48,-57.6081 L 1218.16,-57.2079 L 1217.79,-56.8437
 L 1217.39,-56.5196 L 1216.96,-56.2392 L 1216.5,-56.0054 L 1216.02,-55.8208 L 1215.52,-55.6875 L 1215.01,-55.607
 L 1214.5,-55.58 z
M 709.214,-21.2151 L 708.431,-21.5076 L 707.725,-21.9567 L 707.129,-22.5426 L 706.667,-23.2397 L 706.36,-24.0176
 L 706.214,-25.0881 L 706.214,-58 L 706.302,-58.8316 L 706.56,-59.627 L 706.978,-60.3511 L 707.538,-60.9726
 L 708.214,-61.4641 L 708.978,-61.8042 L 710.214,-62 L 793.669,-62 L 794.501,-61.9126 L 795.296,-61.6542
 L 796.021,-61.2361 L 796.642,-60.6765 L 797.134,-60 L 797.474,-59.2361 L 797.648,-58.4181 L 797.648,-57.5819
 L 797.474,-56.7639 L 797.134,-56 L 796.642,-55.3235 L 796.021,-54.7639 L 795.137,-54.2789 L 711.682,-21.367
 L 710.876,-21.1432 L 710.041,-21.0918 z
M 610.338,-47.8685 L 609.533,-48.0923 L 593.845,-54.2789 L 592.961,-54.7639 L 592.34,-55.3235 L 591.849,-56
 L 591.508,-56.7639 L 591.335,-57.5819 L 591.335,-58.4181 L 591.508,-59.2361 L 591.849,-60 L 592.34,-60.6765
 L 592.961,-61.2361 L 593.686,-61.6542 L 594.481,-61.9126 L 595.313,-62 L 626.687,-62 L 627.687,-61.873
 L 628.471,-61.5804 L 629.176,-61.1314 L 629.773,-60.5455 L 630.235,-59.8484 L 630.541,-59.0705 L 630.68,-58.2458
 L 630.644,-57.4103 L 630.435,-56.6006 L 630.062,-55.8521 L 629.541,-55.1975 L 628.896,-54.6653 L 628.155,-54.2789
 L 612.467,-48.0923 L 612,-47.9404 L 611.173,-47.8172 z
M 511.124,-21.1432 L 510.318,-21.367 L 426.863,-54.2789 L 425.979,-54.7639 L 425.358,-55.3235 L 424.866,-56
 L 424.526,-56.7639 L 424.352,-57.5819 L 424.352,-58.4181 L 424.526,-59.2361 L 424.866,-60 L 425.358,-60.6765
 L 425.979,-61.2361 L 426.704,-61.6542 L 427.499,-61.9126 L 428.33,-62 L 511.786,-62 L 513.022,-61.8042
 L 513.786,-61.4641 L 514.462,-60.9726 L 515.022,-60.3511 L 515.44,-59.627 L 515.698,-58.8316 L 515.786,-58
 L 515.786,-25.0881 L 515.64,-24.0176 L 515.333,-23.2397 L 514.871,-22.5426 L 514.275,-21.9567 L 513.569,-21.5076
 L 512.786,-21.2151 L 511.959,-21.0918 z
M 338.695,-21.1432 L 337.89,-21.367 L 254.434,-54.2789 L 253.551,-54.7639 L 252.929,-55.3235 L 252.438,-56
 L 252.098,-56.7639 L 251.924,-57.5819 L 251.924,-58.4181 L 252.098,-59.2361 L 252.438,-60 L 252.929,-60.6765
 L 253.551,-61.2361 L 254.275,-61.6542 L 255.07,-61.9126 L 255.902,-62 L 339.357,-62 L 340.593,-61.8042
 L 341.357,-61.4641 L 342.034,-60.9726 L 342.593,-60.3511 L 343.011,-59.627 L 343.27,-58.8316 L 343.357,-58
 L 343.357,-25.0881 L 343.211,-24.0176 L 342.904,-23.2397 L 342.443,-22.5426 L 341.846,-21.9567 L 341.141,-21.5076
 L 340.357,-21.2151 L 339.53,-21.0918 z
M 1054.07,-21.2151 L 1053.29,-21.5076 L 1052.58,-21.9567 L 1051.99,-22.5426 L 1051.52,-23.2397 L 1051.22,-24.0176
 L 1051.07,-25.0881 L 1051.07,-58 L 1051.16,-58.8316 L 1051.42,-59.627 L 1051.84,-60.3511 L 1052.39,-60.9726
 L 1053.07,-61.4641 L 1053.84,-61.8042 L 1055.07,-62 L 1138.53,-62 L 1139.36,-61.9126 L 1140.15,-61.6542
 L 1140.88,-61.2361 L 1141.5,-60.6765 L 1141.99,-60 L 1142.33,-59.2361 L 1142.5,-58.4181 L 1142.5,-57.5819
 L 1142.33,-56.7639 L 1141.99,-56 L 1141.5,-55.3235 L 1140.88,-54.7639 L 1139.99,-54.2789 L 1056.54,-21.367
 L 1055.73,-21.1432 L 1054.9,-21.0918 z
M 166.267,-21.1432 L 165.461,-21.367 L 82.0059,-54.2789 L 81.1222,-54.7639 L 80.5008,-55.3235 L 80.0093,-56
 L 79.6691,-56.7639 L 79.4953,-57.5819 L 79.4953,-58.4181 L 79.6691,-59.2361 L 80.0093,-60 L 80.5008,-60.6765
 L 81.1222,-61.2361 L 81.8464,-61.6542 L 82.6417,-61.9126 L 83.4734,-62 L 166.929,-62 L 168.165,-61.8042
 L 168.929,-61.4641 L 169.605,-60.9726 L 170.165,-60.3511 L 170.583,-59.627 L 170.841,-58.8316 L 170.929,-58
 L 170.929,-25.0881 L 170.783,-24.0176 L 170.476,-23.2397 L 170.014,-22.5426 L 169.417,-21.9567 L 168.712,-21.5076
 L 167.929,-21.2151 L 167.101,-21.0918 z
M 881.643,-21.2151 L 880.859,-21.5076 L 880.154,-21.9567 L 879.557,-22.5426 L 879.096,-23.2397 L 878.789,-24.0176
 L 878.643,-25.0881 L 878.643,-58 L 878.73,-58.8316 L 878.989,-59.627 L 879.407,-60.3511 L 879.966,-60.9726
 L 880.643,-61.4641 L 881.407,-61.8042 L 882.643,-62 L 966.098,-62 L 966.93,-61.9126 L 967.725,-61.6542
 L 968.449,-61.2361 L 969.071,-60.6765 L 969.562,-60 L 969.902,-59.2361 L 970.076,-58.4181 L 970.076,-57.5819
 L 969.902,-56.7639 L 969.562,-56 L 969.071,-55.3235 L 968.449,-54.7639 L 967.566,-54.2789 L 884.11,-21.367
 L 883.305,-21.1432 L 882.47,-21.0918 z
M 537.368,-18.9621 L 536.55,-19.136 L 535.786,-19.4761 L 535.109,-19.9676 L 534.55,-20.5891 L 534.132,-21.3132
 L 533.873,-22.1086 L 533.786,-22.9402 L 533.786,-57.0598 L 533.932,-58.1303 L 534.238,-58.9082 L 534.7,-59.6053
 L 535.297,-60.1912 L 536.002,-60.6402 L 536.786,-60.9328 L 537.613,-61.0561 L 538.447,-61.0047 L 539.253,-60.7809
 L 582.512,-43.7211 L 583.533,-43.1314 L 584.13,-42.5455 L 584.592,-41.8484 L 584.899,-41.0705 L 585.037,-40.2458
 L 585.001,-39.4103 L 584.792,-38.6006 L 584.419,-37.8521 L 583.899,-37.1975 L 583.254,-36.6653 L 582.512,-36.2789
 L 539.253,-19.2191 L 538.204,-18.9621 z
M 683.553,-18.9953 L 682.747,-19.2191 L 639.488,-36.2789 L 638.467,-36.8686 L 637.87,-37.4545 L 637.408,-38.1516
 L 637.101,-38.9295 L 636.963,-39.7542 L 636.999,-40.5897 L 637.208,-41.3994 L 637.581,-42.1479 L 638.101,-42.8025
 L 638.746,-43.3347 L 639.488,-43.7211 L 682.747,-60.7809 L 683.796,-61.0379 L 684.632,-61.0379 L 685.45,-60.864
 L 686.214,-60.5239 L 686.891,-60.0324 L 687.45,-59.4109 L 687.868,-58.6868 L 688.127,-57.8915 L 688.214,-57.0598
 L 688.214,-22.9402 L 688.068,-21.8697 L 687.762,-21.0918 L 687.3,-20.3947 L 686.703,-19.8088 L 685.998,-19.3597
 L 685.214,-19.0672 L 684.387,-18.9439 z
M 192.929,-18 L 191.692,-18.1958 L 190.929,-18.5359 L 190.252,-19.0274 L 189.692,-19.6489 L 189.274,-20.373
 L 189.016,-21.1684 L 188.929,-22 L 188.929,-54.9119 L 189.074,-55.9824 L 189.381,-56.7603 L 189.843,-57.4574
 L 190.44,-58.0433 L 191.145,-58.4924 L 191.929,-58.7849 L 192.756,-58.9082 L 193.59,-58.8568 L 194.396,-58.633
 L 277.851,-25.7211 L 278.735,-25.2361 L 279.356,-24.6765 L 279.848,-24 L 280.188,-23.2361 L 280.362,-22.4181
 L 280.362,-21.5819 L 280.188,-20.7639 L 279.848,-20 L 279.356,-19.3235 L 278.735,-18.7639 L 278.011,-18.3458
 L 277.215,-18.0874 L 276.384,-18 z
M 365.357,-18 L 364.121,-18.1958 L 363.357,-18.5359 L 362.681,-19.0274 L 362.121,-19.6489 L 361.703,-20.373
 L 361.445,-21.1684 L 361.357,-22 L 361.357,-54.9119 L 361.503,-55.9824 L 361.81,-56.7603 L 362.272,-57.4574
 L 362.868,-58.0433 L 363.574,-58.4924 L 364.357,-58.7849 L 365.184,-58.9082 L 366.019,-58.8568 L 366.825,-58.633
 L 450.28,-25.7211 L 451.163,-25.2361 L 451.785,-24.6765 L 452.276,-24 L 452.617,-23.2361 L 452.79,-22.4181
 L 452.79,-21.5819 L 452.617,-20.7639 L 452.276,-20 L 451.785,-19.3235 L 451.163,-18.7639 L 450.439,-18.3458
 L 449.644,-18.0874 L 448.812,-18 z
M 773.188,-18 L 772.356,-18.0874 L 771.561,-18.3458 L 770.837,-18.7639 L 770.215,-19.3235 L 769.724,-20
 L 769.383,-20.7639 L 769.21,-21.5819 L 769.21,-22.4181 L 769.383,-23.2361 L 769.724,-24 L 770.215,-24.6765
 L 770.837,-25.2361 L 771.72,-25.7211 L 855.175,-58.633 L 855.981,-58.8568 L 856.816,-58.9082 L 857.643,-58.7849
 L 858.426,-58.4924 L 859.132,-58.0433 L 859.728,-57.4574 L 860.19,-56.7603 L 860.497,-55.9824 L 860.643,-54.9119
 L 860.643,-22 L 860.555,-21.1684 L 860.297,-20.373 L 859.879,-19.6489 L 859.319,-19.0274 L 858.643,-18.5359
 L 857.879,-18.1958 L 856.643,-18 z
M 945.616,-18 L 944.785,-18.0874 L 943.989,-18.3458 L 943.265,-18.7639 L 942.644,-19.3235 L 942.152,-20
 L 941.812,-20.7639 L 941.638,-21.5819 L 941.638,-22.4181 L 941.812,-23.2361 L 942.152,-24 L 942.644,-24.6765
 L 943.265,-25.2361 L 944.149,-25.7211 L 1027.6,-58.633 L 1028.41,-58.8568 L 1029.24,-58.9082 L 1030.07,-58.7849
 L 1030.85,-58.4924 L 1031.56,-58.0433 L 1032.16,-57.4574 L 1032.62,-56.7603 L 1032.93,-55.9824 L 1033.07,-54.9119
 L 1033.07,-22 L 1032.98,-21.1684 L 1032.73,-20.373 L 1032.31,-19.6489 L 1031.75,-19.0274 L 1031.07,-18.5359
 L 1030.31,-18.1958 L 1029.07,-18 z
M 22,-18 L 20.7639,-18.1958 L 20,-18.5359 L 19.3235,-19.0274 L 18.7639,-19.6489 L 18.3458,-20.373
 L 18.0874,-21.1684 L 18,-22 L 18,-54.3204 L 18.1459,-55.3908 L 18.4527,-56.1687 L 18.9145,-56.8659
 L 19.5112,-57.4518 L 20.2166,-57.9008 L 21,-58.1933 L 21.8271,-58.3166 L 22.6617,-58.2652 L 23.4675,-58.0414
 L 105.423,-25.7211 L 106.306,-25.2361 L 106.928,-24.6765 L 107.419,-24 L 107.759,-23.2361 L 107.933,-22.4181
 L 107.933,-21.5819 L 107.759,-20.7639 L 107.419,-20 L 106.928,-19.3235 L 106.306,-18.7639 L 105.582,-18.3458
 L 104.787,-18.0874 L 103.955,-18 z
M 1118.04,-18 L 1117.21,-18.0874 L 1116.42,-18.3458 L 1115.69,-18.7639 L 1115.07,-19.3235 L 1114.58,-20
 L 1114.24,-20.7639 L 1114.07,-21.5819 L 1114.07,-22.4181 L 1114.24,-23.2361 L 1114.58,-24 L 1115.07,-24.6765
 L 1115.69,-25.2361 L 1116.58,-25.7211 L 1198.53,-58.0414 L 1199.34,-58.2652 L 1200.17,-58.3166 L 1201,-58.1933
 L 1201.78,-57.9008 L 1202.49,-57.4518 L 1203.09,-56.8659 L 1203.55,-56.1687 L 1203.85,-55.3908 L 1204,-54.3204
 L 1204,-22 L 1203.91,-21.1684 L 1203.65,-20.373 L 1203.24,-19.6489 L 1202.68,-19.0274 L 1202,-18.5359
 L 1201.24,-18.1958 L 1200,-18 z
M 595.313,-18 L 594.313,-18.127 L 593.529,-18.4196 L 592.824,-18.8686 L 592.227,-19.4545 L 591.765,-20.1516
 L 591.459,-20.9295 L 591.32,-21.7542 L 591.356,-22.5897 L 591.565,-23.3994 L 591.938,-24.1479 L 592.458,-24.8025
 L 593.104,-25.3347 L 593.845,-25.7211 L 609.533,-31.9077 L 610,-32.0596 L 610.827,-32.1828 L 611.662,-32.1315
 L 612.467,-31.9077 L 628.155,-25.7211 L 629.038,-25.2361 L 629.66,-24.6765 L 630.151,-24 L 630.492,-23.2361
 L 630.665,-22.4181 L 630.665,-21.5819 L 630.492,-20.7639 L 630.151,-20 L 629.66,-19.3235 L 629.038,-18.7639
 L 628.314,-18.3458 L 627.519,-18.0874 L 626.687,-18 z
" stroke="black" fill="lightgray" stroke-width="0.5"/>
</svg>
