<?xml version="1.0" standalone="no"?>
<!DOCTYPE svg PUBLIC "-//W3C//DTD SVG 1.1//EN" "http://www.w3.org/Graphics/SVG/1.1/DTD/svg11.dtd">
<svg width="1090mm" height="80mm" viewBox="0 -80 1090 80" xmlns="http://www.w3.org/2000/svg" version="1.1">
<title>OpenSCAD Model</title>
<path d="
M 1090,-80 L 0,-80 L 0,-0 L 4.95,-0 L 4.95,-6 L 5.00572,-6.53017
 L 5.17046,-7.03717 L 5.437,-7.49884 L 5.79372,-7.895 L 6.22499,-8.20836 L 6.71201,-8.42519 L 7.23344,-8.53603
 L 7.76654,-8.53603 L 8.28798,-8.42519 L 8.77499,-8.20836 L 9.20627,-7.895 L 9.56299,-7.49884 L 9.82953,-7.03717
 L 9.99426,-6.53017 L 10.05,-6 L 10.05,-0 L 184.117,-0 L 184.117,-6 L 184.172,-6.53017
 L 184.337,-7.03717 L 184.604,-7.49884 L 184.96,-7.895 L 185.392,-8.20836 L 185.879,-8.42519 L 186.4,-8.53603
 L 186.933,-8.53603 L 187.455,-8.42519 L 187.942,-8.20836 L 188.373,-7.895 L 188.73,-7.49884 L 188.996,-7.03717
 L 189.161,-6.53017 L 189.217,-6 L 189.217,-0 L 363.283,-0 L 363.283,-6 L 363.339,-6.53017
 L 363.504,-7.03717 L 363.77,-7.49884 L 364.127,-7.895 L 364.558,-8.20836 L 365.045,-8.42519 L 365.567,-8.53603
 L 366.1,-8.53603 L 366.621,-8.42519 L 367.108,-8.20836 L 367.54,-7.895 L 367.896,-7.49884 L 368.163,-7.03717
 L 368.328,-6.53017 L 368.383,-6 L 368.383,-0 L 542.45,-0 L 542.45,-6 L 542.506,-6.53017
 L 542.67,-7.03717 L 542.937,-7.49884 L 543.294,-7.895 L 543.725,-8.20836 L 544.212,-8.42519 L 544.733,-8.53603
 L 545.267,-8.53603 L 545.788,-8.42519 L 546.275,-8.20836 L 546.706,-7.895 L 547.063,-7.49884 L 547.33,-7.03717
 L 547.494,-6.53017 L 547.55,-6 L 547.55,-0 L 721.617,-0 L 721.617,-6 L 721.672,-6.53017
 L 721.837,-7.03717 L 722.104,-7.49884 L 722.46,-7.895 L 722.892,-8.20836 L 723.379,-8.42519 L 723.9,-8.53603
 L 724.433,-8.53603 L 724.955,-8.42519 L 725.442,-8.20836 L 725.873,-7.895 L 726.23,-7.49884 L 726.496,-7.03717
 L 726.661,-6.53017 L 726.717,-6 L 726.717,-0 L 900.783,-0 L 900.783,-6 L 900.839,-6.53017
 L 901.004,-7.03717 L 901.27,-7.49884 L 901.627,-7.895 L 902.058,-8.20836 L 902.545,-8.42519 L 903.067,-8.53603
 L 903.6,-8.53603 L 904.121,-8.42519 L 904.608,-8.20836 L 905.04,-7.895 L 905.396,-7.49884 L 905.663,-7.03717
 L 905.828,-6.53017 L 905.883,-6 L 905.883,-0 L 1079.95,-0 L 1079.95,-6 L 1080.01,-6.53017
 L 1080.17,-7.03717 L 1080.44,-7.49884 L 1080.79,-7.895 L 1081.22,-8.20836 L 1081.71,-8.42519 L 1082.23,-8.53603
 L 1082.77,-8.53603 L 1083.29,-8.42519 L 1083.77,-8.20836 L 1084.21,-7.895 L 1084.56,-7.49884 L 1084.83,-7.03717
 L 1084.99,-6.53017 L 1085.05,-6 L 1085.05,-0 L 1090,-0 z
M 6.98573,-55.607 L 6.47708,-55.6875 L 5.97964,-55.8208 L 5.49887,-56.0054 L 5.04001,-56.2392 L 4.60811,-56.5196
 L 4.20789,-56.8437 L 3.84373,-57.2079 L 3.51964,-57.6081 L 3.23917,-58.04 L 3.00537,-58.4989 L 2.82082,-58.9796
 L 2.68752,-59.4771 L 2.60696,-59.9857 L 2.58,-60.5 L 2.60696,-61.0143 L 2.68752,-61.5229 L 2.82082,-62.0204
 L 3.00537,-62.5011 L 3.23917,-62.96 L 3.51964,-63.3919 L 3.84373,-63.7921 L 4.20789,-64.1563 L 4.60811,-64.4804
 L 4.95001,-64.7024 L 4.95001,-74 L 5.00574,-74.5302 L 5.17047,-75.0372 L 5.43701,-75.4988 L 5.79373,-75.895
 L 6.22501,-76.2084 L 6.71202,-76.4252 L 7.23346,-76.536 L 7.76654,-76.536 L 8.28798,-76.4252 L 8.77499,-76.2084
 L 9.20627,-75.895 L 9.56299,-75.4988 L 9.82953,-75.0372 L 9.99426,-74.5302 L 10.05,-74 L 10.05,-64.7024
 L 10.3919,-64.4804 L 10.7921,-64.1563 L 11.1563,-63.7921 L 11.4804,-63.3919 L 11.7608,-62.96 L 11.9946,-62.5011
 L 12.1792,-62.0204 L 12.3125,-61.5229 L 12.393,-61.0143 L 12.42,-60.5 L 12.393,-59.9857 L 12.3125,-59.4771
 L 12.1792,-58.9796 L 11.9946,-58.4989 L 11.7608,-58.04 L 11.4804,-57.6081 L 11.1563,-57.2079 L 10.7921,-56.8437
 L 10.3919,-56.5196 L 9.95999,-56.2392 L 9.50113,-56.0054 L 9.02036,-55.8208 L 8.52292,-55.6875 L 8.01427,-55.607
 L 7.5,-55.58 z
M 186.152,-55.607 L 185.644,-55.6875 L 185.146,-55.8208 L 184.666,-56.0054 L 184.207,-56.2392 L 183.775,-56.5196
 L 183.375,-56.8437 L 183.01,-57.2079 L 182.686,-57.6081 L 182.406,-58.04 L 182.172,-58.4989 L 181.987,-58.9796
 L 181.854,-59.4771 L 181.774,-59.9857 L 181.747,-60.5 L 181.774,-61.0143 L 181.854,-61.5229 L 181.987,-62.0204
 L 182.172,-62.5011 L 182.406,-62.96 L 182.686,-63.3919 L 183.01,-63.7921 L 183.375,-64.1563 L 183.775,-64.4804
 L 184.117,-64.7024 L 184.117,-74 L 184.172,-74.5302 L 184.337,-75.0372 L 184.604,-75.4988 L 184.96,-75.895
 L 185.392,-76.2084 L 185.879,-76.4252 L 186.4,-76.536 L 186.933,-76.536 L 187.455,-76.4252 L 187.942,-76.2084
 L 188.373,-75.895 L 188.73,-75.4988 L 188.996,-75.0372 L 189.161,-74.5302 L 189.217,-74 L 189.217,-64.7024
 L 189.559,-64.4804 L 189.959,-64.1563 L 190.323,-63.7921 L 190.647,-63.3919 L 190.927,-62.96 L 191.161,-62.5011
 L 191.346,-62.0204 L 191.479,-61.5229 L 191.56,-61.0143 L 191.587,-60.5 L 191.56,-59.9857 L 191.479,-59.4771
 L 191.346,-58.9796 L 191.161,-58.4989 L 190.927,-58.04 L 190.647,-57.6081 L 190.323,-57.2079 L 189.959,-56.8437
 L 189.559,-56.5196 L 189.127,-56.2392 L 188.668,-56.0054 L 188.187,-55.8208 L 187.69,-55.6875 L 187.181,-55.607
 L 186.667,-55.58 z
M 365.319,-55.607 L 364.81,-55.6875 L 364.313,-55.8208 L 363.832,-56.0054 L 363.373,-56.2392 L 362.941,-56.5196
 L 362.541,-56.8437 L 362.177,-57.2079 L 361.853,-57.6081 L 361.572,-58.04 L 361.339,-58.4989 L 361.154,-58.9796
 L 361.021,-59.4771 L 360.94,-59.9857 L 360.913,-60.5 L 360.94,-61.0143 L 361.021,-61.5229 L 361.154,-62.0204
 L 361.339,-62.5011 L 361.572,-62.96 L 361.853,-63.3919 L 362.177,-63.7921 L 362.541,-64.1563 L 362.941,-64.4804
 L 363.283,-64.7024 L 363.283,-74 L 363.339,-74.5302 L 363.504,-75.0372 L 363.77,-75.4988 L 364.127,-75.895
 L 364.558,-76.2084 L 365.045,-76.4252 L 365.567,-76.536 L 366.1,-76.536 L 366.621,-76.4252 L 367.108,-76.2084
 L 367.54,-75.895 L 367.896,-75.4988 L 368.163,-75.0372 L 368.328,-74.5302 L 368.383,-74 L 368.383,-64.7024
 L 368.725,-64.4804 L 369.125,-64.1563 L 369.49,-63.7921 L 369.814,-63.3919 L 370.094,-62.96 L 370.328,-62.5011
 L 370.513,-62.0204 L 370.646,-61.5229 L 370.726,-61.0143 L 370.753,-60.5 L 370.726,-59.9857 L 370.646,-59.4771
 L 370.513,-58.9796 L 370.328,-58.4989 L 370.094,-58.04 L 369.814,-57.6081 L 369.49,-57.2079 L 369.125,-56.8437
 L 368.725,-56.5196 L 368.293,-56.2392 L 367.834,-56.0054 L 367.354,-55.8208 L 366.856,-55.6875 L 366.348,-55.607
 L 365.833,-55.58 z
M 544.486,-55.607 L 543.977,-55.6875 L 543.48,-55.8208 L 542.999,-56.0054 L 542.54,-56.2392 L 542.108,-56.5196
 L 541.708,-56.8437 L 541.344,-57.2079 L 541.02,-57.6081 L 540.739,-58.04 L 540.505,-58.4989 L 540.321,-58.9796
 L 540.188,-59.4771 L 540.107,-59.9857 L 540.08,-60.5 L 540.107,-61.0143 L 540.188,-61.5229 L 540.321,-62.0204
 L 540.505,-62.5011 L 540.739,-62.96 L 541.02,-63.3919 L 541.344,-63.7921 L 541.708,-64.1563 L 542.108,-64.4804
 L 542.45,-64.7024 L 542.45,-74 L 542.506,-74.5302 L 542.67,-75.0372 L 542.937,-75.4988 L 543.294,-75.895
 L 543.725,-76.2084 L 544.212,-76.4252 L 544.733,-76.536 L 545.267,-76.536 L 545.788,-76.4252 L 546.275,-76.2084
 L 546.706,-75.895 L 547.063,-75.4988 L 547.33,-75.0372 L 547.494,-74.5302 L 547.55,-74 L 547.55,-64.7024
 L 547.892,-64.4804 L 548.292,-64.1563 L 548.656,-63.7921 L 548.98,-63.3919 L 549.261,-62.96 L 549.495,-62.5011
 L 549.679,-62.0204 L 549.812,-61.5229 L 549.893,-61.0143 L 549.92,-60.5 L 549.893,-59.9857 L 549.812,-59.4771
 L 549.679,-58.9796 L 549.495,-58.4989 L 549.261,-58.04 L 548.98,-57.6081 L 548.656,-57.2079 L 548.292,-56.8437
 L 547.892,-56.5196 L 547.46,-56.2392 L 547.001,-56.0054 L 546.52,-55.8208 L 546.023,-55.6875 L 545.514,-55.607
 L 545,-55.58 z
M 723.652,-55.607 L 723.144,-55.6875 L 722.646,-55.8208 L 722.166,-56.0054 L 721.707,-56.2392 L 721.275,-56.5196
 L 720.875,-56.8437 L 720.51,-57.2079 L 720.186,-57.6081 L 719.906,-58.04 L 719.672,-58.4989 L 719.487,-58.9796
 L 719.354,-59.4771 L 719.274,-59.9857 L 719.247,-60.5 L 719.274,-61.0143 L 719.354,-61.5229 L 719.487,-62.0204
 L 719.672,-62.5011 L 719.906,-62.96 L 720.186,-63.3919 L 720.51,-63.7921 L 720.875,-64.1563 L 721.275,-64.4804
 L 721.617,-64.7024 L 721.617,-74 L 721.672,-74.5302 L 721.837,-75.0372 L 722.104,-75.4988 L 722.46,-75.895
 L 722.892,-76.2084 L 723.379,-76.4252 L 723.9,-76.536 L 724.433,-76.536 L 724.955,-76.4252 L 725.442,-76.2084
 L 725.873,-75.895 L 726.23,-75.4988 L 726.496,-75.0372 L 726.661,-74.5302 L 726.717,-74 L 726.717,-64.7024
 L 727.059,-64.4804 L 727.459,-64.1563 L 727.823,-63.7921 L 728.147,-63.3919 L 728.427,-62.96 L 728.661,-62.5011
 L 728.846,-62.0204 L 728.979,-61.5229 L 729.06,-61.0143 L 729.087,-60.5 L 729.06,-59.9857 L 728.979,-59.4771
 L 728.846,-58.9796 L 728.661,-58.4989 L 728.427,-58.04 L 728.147,-57.6081 L 727.823,-57.2079 L 727.459,-56.8437
 L 727.059,-56.5196 L 726.627,-56.2392 L 726.168,-56.0054 L 725.687,-55.8208 L 725.19,-55.6875 L 724.681,-55.607
 L 724.167,-55.58 z
M 902.819,-55.607 L 902.31,-55.6875 L 901.813,-55.8208 L 901.332,-56.0054 L 900.873,-56.2392 L 900.441,-56.5196
 L 900.041,-56.8437 L 899.677,-57.2079 L 899.353,-57.6081 L 899.072,-58.04 L 898.839,-58.4989 L 898.654,-58.9796
 L 898.521,-59.4771 L 898.44,-59.9857 L 898.413,-60.5 L 898.44,-61.0143 L 898.521,-61.5229 L 898.654,-62.0204
 L 898.839,-62.5011 L 899.072,-62.96 L 899.353,-63.3919 L 899.677,-63.7921 L 900.041,-64.1563 L 900.441,-64.4804
 L 900.783,-64.7024 L 900.783,-74 L 900.839,-74.5302 L 901.004,-75.0372 L 901.27,-75.4988 L 901.627,-75.895
 L 902.058,-76.2084 L 902.545,-76.4252 L 903.067,-76.536 L 903.6,-76.536 L 904.121,-76.4252 L 904.608,-76.2084
 L 905.04,-75.895 L 905.396,-75.4988 L 905.663,-75.0372 L 905.828,-74.5302 L 905.883,-74 L 905.883,-64.7024
 L 906.225,-64.4804 L 906.625,-64.1563 L 906.99,-63.7921 L 907.314,-63.3919 L 907.594,-62.96 L 907.828,-62.5011
 L 908.013,-62.0204 L 908.146,-61.5229 L 908.226,-61.0143 L 908.253,-60.5 L 908.226,-59.9857 L 908.146,-59.4771
 L 908.013,-58.9796 L 907.828,-58.4989 L 907.594,-58.04 L 907.314,-57.6081 L 906.99,-57.2079 L 906.625,-56.8437
 L 906.225,-56.5196 L 905.793,-56.2392 L 905.334,-56.0054 L 904.854,-55.8208 L 904.356,-55.6875 L 903.848,-55.607
 L 903.333,-55.58 z
M 1081.99,-55.607 L 1081.48,-55.6875 L 1080.98,-55.8208 L 1080.5,-56.0054 L 1080.04,-56.2392 L 1079.61,-56.5196
 L 1079.21,-56.8437 L 1078.84,-57.2079 L 1078.52,-57.6081 L 1078.24,-58.04 L 1078.01,-58.4989 L 1077.82,-58.9796
 L 1077.69,-59.4771 L 1077.61,-59.9857 L 1077.58,-60.5 L 1077.61,-61.0143 L 1077.69,-61.5229 L 1077.82,-62.0204
 L 1078.01,-62.5011 L 1078.24,-62.96 L 1078.52,-63.3919 L 1078.84,-63.7921 L 1079.21,-64.1563 L 1079.61,-64.4804
 L 1079.95,-64.7024 L 1079.95,-74 L 1080.01,-74.5302 L 1080.17,-75.0372 L 1080.44,-75.4988 L 1080.79,-75.895
 L 1081.23,-76.2084 L 1081.71,-76.4252 L 1082.23,-76.536 L 1082.77,-76.536 L 1083.29,-76.4252 L 1083.77,-76.2084
 L 1084.21,-75.895 L 1084.56,-75.4988 L 1084.83,-75.0372 L 1084.99,-74.5302 L 1085.05,-74 L 1085.05,-64.7024
 L 1085.39,-64.4804 L 1085.79,-64.1563 L 1086.16,-63.7921 L 1086.48,-63.3919 L 1086.76,-62.96 L 1086.99,-62.5011
 L 1087.18,-62.0204 L 1087.31,-61.5229 L 1087.39,-61.0143 L 1087.42,-60.5 L 1087.39,-59.9857 L 1087.31,-59.4771
 L 1087.18,-58.9796 L 1086.99,-58.4989 L 1086.76,-58.04 L 1086.48,-57.6081 L 1086.16,-57.2079 L 1085.79,-56.8437
 L 1085.39,-56.5196 L 1084.96,-56.2392 L 1084.5,-56.0054 L 1084.02,-55.8208 L 1083.52,-55.6875 L 1083.01,-55.607
 L 1082.5,-55.58 z
M 915.283,-20.9626 L 914.504,-21.2652 L 913.804,-21.7233 L 913.215,-22.3168 L 912.762,-23.0199 L 912.466,-23.8017
 L 912.333,-24.8224 L 912.333,-58 L 912.421,-58.8316 L 912.679,-59.627 L 913.097,-60.3511 L 913.657,-60.9726
 L 914.333,-61.4641 L 915.097,-61.8042 L 916.333,-62 L 1003.75,-62 L 1004.58,-61.9126 L 1005.38,-61.6542
 L 1006.1,-61.2361 L 1006.72,-60.6765 L 1007.21,-60 L 1007.55,-59.2361 L 1007.73,-58.4181 L 1007.73,-57.5819
 L 1007.55,-56.7639 L 1007.21,-56 L 1006.72,-55.3235 L 1006.1,-54.7639 L 1005.17,-54.2603 L 917.753,-21.0826
 L 916.944,-20.8693 L 916.109,-20.8287 z
M 352.223,-20.8693 L 351.414,-21.0826 L 263.997,-54.2603 L 263.066,-54.7639 L 262.444,-55.3235 L 261.953,-56
 L 261.612,-56.7639 L 261.439,-57.5819 L 261.439,-58.4181 L 261.612,-59.2361 L 261.953,-60 L 262.444,-60.6765
 L 263.066,-61.2361 L 263.79,-61.6542 L 264.585,-61.9126 L 265.417,-62 L 352.833,-62 L 354.069,-61.8042
 L 354.833,-61.4641 L 355.51,-60.9726 L 356.069,-60.3511 L 356.487,-59.627 L 356.746,-58.8316 L 356.833,-58
 L 356.833,-24.8224 L 356.701,-23.8017 L 356.404,-23.0199 L 355.951,-22.3168 L 355.362,-21.7233 L 354.663,-21.2652
 L 353.883,-20.9626 L 353.058,-20.8287 z
M 173.056,-20.8693 L 172.247,-21.0826 L 84.8307,-54.2603 L 83.8989,-54.7639 L 83.2775,-55.3235 L 82.786,-56
 L 82.4458,-56.7639 L 82.272,-57.5819 L 82.272,-58.4181 L 82.4458,-59.2361 L 82.786,-60 L 83.2775,-60.6765
 L 83.8989,-61.2361 L 84.6231,-61.6542 L 85.4184,-61.9126 L 86.2501,-62 L 173.667,-62 L 174.903,-61.8042
 L 175.667,-61.4641 L 176.343,-60.9726 L 176.903,-60.3511 L 177.321,-59.627 L 177.579,-58.8316 L 177.667,-58
 L 177.667,-24.8224 L 177.534,-23.8017 L 177.238,-23.0199 L 176.785,-22.3168 L 176.196,-21.7233 L 175.496,-21.2652
 L 174.717,-20.9626 L 173.891,-20.8287 z
M 531.389,-20.8693 L 530.581,-21.0826 L 443.164,-54.2603 L 442.232,-54.7639 L 441.611,-55.3235 L 441.119,-56
 L 440.779,-56.7639 L 440.605,-57.5819 L 440.605,-58.4181 L 440.779,-59.2361 L 441.119,-60 L 441.611,-60.6765
 L 442.232,-61.2361 L 442.956,-61.6542 L 443.752,-61.9126 L 444.583,-62 L 532,-62 L 533.236,-61.8042
 L 534,-61.4641 L 534.677,-60.9726 L 535.236,-60.3511 L 535.654,-59.627 L 535.913,-58.8316 L 536,-58
 L 536,-24.8224 L 535.868,-23.8017 L 535.571,-23.0199 L 535.118,-22.3168 L 534.529,-21.7233 L 533.829,-21.2652
 L 533.05,-20.9626 L 532.224,-20.8287 z
M 556.95,-20.9626 L 556.171,-21.2652 L 555.471,-21.7233 L 554.882,-22.3168 L 554.429,-23.0199 L 554.132,-23.8017
 L 554,-24.8224 L 554,-58 L 554.087,-58.8316 L 554.346,-59.627 L 554.764,-60.3511 L 555.323,-60.9726
 L 556,-61.4641 L 556.764,-61.8042 L 558,-62 L 645.417,-62 L 646.248,-61.9126 L 647.044,-61.6542
 L 647.768,-61.2361 L 648.389,-60.6765 L 648.881,-60 L 649.221,-59.2361 L 649.395,-58.4181 L 649.395,-57.5819
 L 649.221,-56.7639 L 648.881,-56 L 648.389,-55.3235 L 647.768,-54.7639 L 646.836,-54.2603 L 559.419,-21.0826
 L 558.611,-20.8693 L 557.776,-20.8287 z
M 736.117,-20.9626 L 735.337,-21.2652 L 734.638,-21.7233 L 734.049,-22.3168 L 733.596,-23.0199 L 733.299,-23.8017
 L 733.167,-24.8224 L 733.167,-58 L 733.254,-58.8316 L 733.512,-59.627 L 733.931,-60.3511 L 734.49,-60.9726
 L 735.167,-61.4641 L 735.931,-61.8042 L 737.167,-62 L 824.583,-62 L 825.415,-61.9126 L 826.21,-61.6542
 L 826.934,-61.2361 L 827.556,-60.6765 L 828.047,-60 L 828.387,-59.2361 L 828.561,-58.4181 L 828.561,-57.5819
 L 828.387,-56.7639 L 828.047,-56 L 827.556,-55.3235 L 826.934,-54.7639 L 826.003,-54.2603 L 738.586,-21.0826
 L 737.777,-20.8693 L 736.942,-20.8287 z
M 199.667,-18 L 198.431,-18.1958 L 197.667,-18.5359 L 196.99,-19.0274 L 196.431,-19.6489 L 196.012,-20.373
 L 195.754,-21.1684 L 195.667,-22 L 195.667,-55.1776 L 195.799,-56.1983 L 196.096,-56.9801 L 196.549,-57.6832
 L 197.138,-58.2767 L 197.837,-58.7348 L 198.617,-59.0374 L 199.442,-59.1713 L 200.277,-59.1307 L 201.086,-58.9174
 L 288.503,-25.7397 L 289.434,-25.2361 L 290.056,-24.6765 L 290.547,-24 L 290.887,-23.2361 L 291.061,-22.4181
 L 291.061,-21.5819 L 290.887,-20.7639 L 290.547,-20 L 290.056,-19.3235 L 289.434,-18.7639 L 288.71,-18.3458
 L 287.915,-18.0874 L 287.083,-18 z
M 378.833,-18 L 377.597,-18.1958 L 376.833,-18.5359 L 376.157,-19.0274 L 375.597,-19.6489 L 375.179,-20.373
 L 374.921,-21.1684 L 374.833,-22 L 374.833,-55.1776 L 374.966,-56.1983 L 375.262,-56.9801 L 375.715,-57.6832
 L 376.304,-58.2767 L 377.004,-58.7348 L 377.783,-59.0374 L 378.609,-59.1713 L 379.444,-59.1307 L 380.253,-58.9174
 L 467.669,-25.7397 L 468.601,-25.2361 L 469.222,-24.6765 L 469.714,-24 L 470.054,-23.2361 L 470.228,-22.4181
 L 470.228,-21.5819 L 470.054,-20.7639 L 469.714,-20 L 469.222,-19.3235 L 468.601,-18.7639 L 467.877,-18.3458
 L 467.082,-18.0874 L 466.25,-18 z
M 623.75,-18 L 622.918,-18.0874 L 622.123,-18.3458 L 621.399,-18.7639 L 620.777,-19.3235 L 620.286,-20
 L 619.946,-20.7639 L 619.772,-21.5819 L 619.772,-22.4181 L 619.946,-23.2361 L 620.286,-24 L 620.777,-24.6765
 L 621.399,-25.2361 L 622.331,-25.7397 L 709.747,-58.9174 L 710.556,-59.1307 L 711.391,-59.1713 L 712.217,-59.0374
 L 712.996,-58.7348 L 713.696,-58.2767 L 714.285,-57.6832 L 714.738,-56.9801 L 715.034,-56.1983 L 715.167,-55.1776
 L 715.167,-22 L 715.079,-21.1684 L 714.821,-20.373 L 714.403,-19.6489 L 713.843,-19.0274 L 713.167,-18.5359
 L 712.403,-18.1958 L 711.167,-18 z
M 802.917,-18 L 802.085,-18.0874 L 801.29,-18.3458 L 800.566,-18.7639 L 799.944,-19.3235 L 799.453,-20
 L 799.113,-20.7639 L 798.939,-21.5819 L 798.939,-22.4181 L 799.113,-23.2361 L 799.453,-24 L 799.944,-24.6765
 L 800.566,-25.2361 L 801.497,-25.7397 L 888.914,-58.9174 L 889.723,-59.1307 L 890.558,-59.1713 L 891.383,-59.0374
 L 892.163,-58.7348 L 892.862,-58.2767 L 893.451,-57.6832 L 893.904,-56.9801 L 894.201,-56.1983 L 894.333,-55.1776
 L 894.333,-22 L 894.246,-21.1684 L 893.988,-20.373 L 893.569,-19.6489 L 893.01,-19.0274 L 892.333,-18.5359
 L 891.569,-18.1958 L 890.333,-18 z
M 982.083,-18 L 981.252,-18.0874 L 980.456,-18.3458 L 979.732,-18.7639 L 979.111,-19.3235 L 978.619,-20
 L 978.279,-20.7639 L 978.105,-21.5819 L 978.105,-22.4181 L 978.279,-23.2361 L 978.619,-24 L 979.111,-24.6765
 L 979.732,-25.2361 L 980.664,-25.7397 L 1066.58,-58.3481 L 1067.39,-58.5614 L 1068.22,-58.602 L 1069.05,-58.4681
 L 1069.83,-58.1655 L 1070.53,-57.7074 L 1071.12,-57.1139 L 1071.57,-56.4108 L 1071.87,-55.629 L 1072,-54.6083
 L 1072,-22 L 1071.91,-21.1684 L 1071.65,-20.373 L 1071.24,-19.6489 L 1070.68,-19.0274 L 1070,-18.5359
 L 1069.24,-18.1958 L 1068,-18 z
M 22,-18 L 20.7639,-18.1958 L 20,-18.5359 L 19.3235,-19.0274 L 18.7639,-19.6489 L 18.3458,-20.373
 L 18.0874,-21.1684 L 18,-22 L 18,-54.6083 L 18.1324,-55.629 L 18.4291,-56.4108 L 18.8819,-57.1139
 L 19.471,-57.7074 L 20.1706,-58.1655 L 20.9501,-58.4681 L 21.7756,-58.602 L 22.6108,-58.5614 L 23.4194,-58.3481
 L 109.336,-25.7397 L 110.268,-25.2361 L 110.889,-24.6765 L 111.381,-24 L 111.721,-23.2361 L 111.895,-22.4181
 L 111.895,-21.5819 L 111.721,-20.7639 L 111.381,-20 L 110.889,-19.3235 L 110.268,-18.7639 L 109.544,-18.3458
 L 108.748,-18.0874 L 107.917,-18 z
" stroke="black" fill="lightgray" stroke-width="0.5"/>
</svg>
