<?xml version="1.0" standalone="no"?>
<!DOCTYPE svg PUBLIC "-//W3C//DTD SVG 1.1//EN" "http://www.w3.org/Graphics/SVG/1.1/DTD/svg11.dtd">
<svg width="1522mm" height="80mm" viewBox="0 -80 1522 80" xmlns="http://www.w3.org/2000/svg" version="1.1">
<title>OpenSCAD Model</title>
<path d="
M 1522,-80 L 0,-80 L 0,-0 L 4.95,-0 L 4.95,-6 L 5.00572,-6.53017
 L 5.17046,-7.03717 L 5.437,-7.49884 L 5.79372,-7.895 L 6.22499,-8.20836 L 6.71201,-8.42519 L 7.23344,-8.53603
 L 7.76654,-8.53603 L 8.28798,-8.42519 L 8.77499,-8.20836 L 9.20627,-7.895 L 9.56299,-7.49884 L 9.82953,-7.03717
 L 9.99426,-6.53017 L 10.05,-6 L 10.05,-0 L 193.325,-0 L 193.325,-6 L 193.381,-6.53017
 L 193.545,-7.03717 L 193.812,-7.49884 L 194.169,-7.895 L 194.6,-8.20836 L 195.087,-8.42519 L 195.608,-8.53603
 L 196.142,-8.53603 L 196.663,-8.42519 L 197.15,-8.20836 L 197.581,-7.895 L 197.938,-7.49884 L 198.205,-7.03717
 L 198.369,-6.53017 L 198.425,-6 L 198.425,-0 L 381.7,-0 L 381.7,-6 L 381.756,-6.53017
 L 381.92,-7.03717 L 382.187,-7.49884 L 382.544,-7.895 L 382.975,-8.20836 L 383.462,-8.42519 L 383.983,-8.53603
 L 384.517,-8.53603 L 385.038,-8.42519 L 385.525,-8.20836 L 385.956,-7.895 L 386.313,-7.49884 L 386.58,-7.03717
 L 386.744,-6.53017 L 386.8,-6 L 386.8,-0 L 570.075,-0 L 570.075,-6 L 570.131,-6.53017
 L 570.295,-7.03717 L 570.562,-7.49884 L 570.919,-7.895 L 571.35,-8.20836 L 571.837,-8.42519 L 572.358,-8.53603
 L 572.892,-8.53603 L 573.413,-8.42519 L 573.9,-8.20836 L 574.331,-7.895 L 574.688,-7.49884 L 574.955,-7.03717
 L 575.119,-6.53017 L 575.175,-6 L 575.175,-0 L 758.45,-0 L 758.45,-6 L 758.506,-6.53017
 L 758.67,-7.03717 L 758.937,-7.49884 L 759.294,-7.895 L 759.725,-8.20836 L 760.212,-8.42519 L 760.733,-8.53603
 L 761.267,-8.53603 L 761.788,-8.42519 L 762.275,-8.20836 L 762.706,-7.895 L 763.063,-7.49884 L 763.33,-7.03717
 L 763.494,-6.53017 L 763.55,-6 L 763.55,-0 L 946.825,-0 L 946.825,-6 L 946.881,-6.53017
 L 947.045,-7.03717 L 947.312,-7.49884 L 947.669,-7.895 L 948.1,-8.20836 L 948.587,-8.42519 L 949.108,-8.53603
 L 949.642,-8.53603 L 950.163,-8.42519 L 950.65,-8.20836 L 951.081,-7.895 L 951.438,-7.49884 L 951.705,-7.03717
 L 951.869,-6.53017 L 951.925,-6 L 951.925,-0 L 1135.2,-0 L 1135.2,-6 L 1135.26,-6.53017
 L 1135.42,-7.03717 L 1135.69,-7.49884 L 1136.04,-7.895 L 1136.47,-8.20836 L 1136.96,-8.42519 L 1137.48,-8.53603
 L 1138.02,-8.53603 L 1138.54,-8.42519 L 1139.02,-8.20836 L 1139.46,-7.895 L 1139.81,-7.49884 L 1140.08,-7.03717
 L 1140.24,-6.53017 L 1140.3,-6 L 1140.3,-0 L 1323.57,-0 L 1323.57,-6 L 1323.63,-6.53017
 L 1323.8,-7.03717 L 1324.06,-7.49884 L 1324.42,-7.895 L 1324.85,-8.20836 L 1325.34,-8.42519 L 1325.86,-8.53603
 L 1326.39,-8.53603 L 1326.91,-8.42519 L 1327.4,-8.20836 L 1327.83,-7.895 L 1328.19,-7.49884 L 1328.45,-7.03717
 L 1328.62,-6.53017 L 1328.67,-6 L 1328.67,-0 L 1511.95,-0 L 1511.95,-6 L 1512.01,-6.53017
 L 1512.17,-7.03717 L 1512.44,-7.49884 L 1512.79,-7.895 L 1513.22,-8.20836 L 1513.71,-8.42519 L 1514.23,-8.53603
 L 1514.77,-8.53603 L 1515.29,-8.42519 L 1515.77,-8.20836 L 1516.21,-7.895 L 1516.56,-7.49884 L 1516.83,-7.03717
 L 1516.99,-6.53017 L 1517.05,-6 L 1517.05,-0 L 1522,-0 z
M 195.361,-55.607 L 194.852,-55.6875 L 194.355,-55.8208 L 193.874,-56.0054 L 193.415,-56.2392 L 192.983,-56.5196
 L 192.583,-56.8437 L 192.219,-57.2079 L 191.895,-57.6081 L 191.614,-58.04 L 191.38,-58.4989 L 191.196,-58.9796
 L 191.063,-59.4771 L 190.982,-59.9857 L 190.955,-60.5 L 190.982,-61.0143 L 191.063,-61.5229 L 191.196,-62.0204
 L 191.38,-62.5011 L 191.614,-62.96 L 191.895,-63.3919 L 192.219,-63.7921 L 192.583,-64.1563 L 192.983,-64.4804
 L 193.325,-64.7024 L 193.325,-74 L 193.381,-74.5302 L 193.545,-75.0372 L 193.812,-75.4988 L 194.169,-75.895
 L 194.6,-76.2084 L 195.087,-76.4252 L 195.608,-76.536 L 196.142,-76.536 L 196.663,-76.4252 L 197.15,-76.2084
 L 197.581,-75.895 L 197.938,-75.4988 L 198.205,-75.0372 L 198.369,-74.5302 L 198.425,-74 L 198.425,-64.7024
 L 198.767,-64.4804 L 199.167,-64.1563 L 199.531,-63.7921 L 199.855,-63.3919 L 200.136,-62.96 L 200.37,-62.5011
 L 200.554,-62.0204 L 200.687,-61.5229 L 200.768,-61.0143 L 200.795,-60.5 L 200.768,-59.9857 L 200.687,-59.4771
 L 200.554,-58.9796 L 200.37,-58.4989 L 200.136,-58.04 L 199.855,-57.6081 L 199.531,-57.2079 L 199.167,-56.8437
 L 198.767,-56.5196 L 198.335,-56.2392 L 197.876,-56.0054 L 197.395,-55.8208 L 196.898,-55.6875 L 196.389,-55.607
 L 195.875,-55.58 z
M 1137.24,-55.607 L 1136.73,-55.6875 L 1136.23,-55.8208 L 1135.75,-56.0054 L 1135.29,-56.2392 L 1134.86,-56.5196
 L 1134.46,-56.8437 L 1134.09,-57.2079 L 1133.77,-57.6081 L 1133.49,-58.04 L 1133.26,-58.4989 L 1133.07,-58.9796
 L 1132.94,-59.4771 L 1132.86,-59.9857 L 1132.83,-60.5 L 1132.86,-61.0143 L 1132.94,-61.5229 L 1133.07,-62.0204
 L 1133.26,-62.5011 L 1133.49,-62.96 L 1133.77,-63.3919 L 1134.09,-63.7921 L 1134.46,-64.1563 L 1134.86,-64.4804
 L 1135.2,-64.7024 L 1135.2,-74 L 1135.26,-74.5302 L 1135.42,-75.0372 L 1135.69,-75.4988 L 1136.04,-75.895
 L 1136.48,-76.2084 L 1136.96,-76.4252 L 1137.48,-76.536 L 1138.02,-76.536 L 1138.54,-76.4252 L 1139.02,-76.2084
 L 1139.46,-75.895 L 1139.81,-75.4988 L 1140.08,-75.0372 L 1140.24,-74.5302 L 1140.3,-74 L 1140.3,-64.7024
 L 1140.64,-64.4804 L 1141.04,-64.1563 L 1141.41,-63.7921 L 1141.73,-63.3919 L 1142.01,-62.96 L 1142.24,-62.5011
 L 1142.43,-62.0204 L 1142.56,-61.5229 L 1142.64,-61.0143 L 1142.67,-60.5 L 1142.64,-59.9857 L 1142.56,-59.4771
 L 1142.43,-58.9796 L 1142.24,-58.4989 L 1142.01,-58.04 L 1141.73,-57.6081 L 1141.41,-57.2079 L 1141.04,-56.8437
 L 1140.64,-56.5196 L 1140.21,-56.2392 L 1139.75,-56.0054 L 1139.27,-55.8208 L 1138.77,-55.6875 L 1138.26,-55.607
 L 1137.75,-55.58 z
M 948.861,-55.607 L 948.352,-55.6875 L 947.855,-55.8208 L 947.374,-56.0054 L 946.915,-56.2392 L 946.483,-56.5196
 L 946.083,-56.8437 L 945.719,-57.2079 L 945.395,-57.6081 L 945.114,-58.04 L 944.88,-58.4989 L 944.696,-58.9796
 L 944.563,-59.4771 L 944.482,-59.9857 L 944.455,-60.5 L 944.482,-61.0143 L 944.563,-61.5229 L 944.696,-62.0204
 L 944.88,-62.5011 L 945.114,-62.96 L 945.395,-63.3919 L 945.719,-63.7921 L 946.083,-64.1563 L 946.483,-64.4804
 L 946.825,-64.7024 L 946.825,-74 L 946.881,-74.5302 L 947.045,-75.0372 L 947.312,-75.4988 L 947.669,-75.895
 L 948.1,-76.2084 L 948.587,-76.4252 L 949.108,-76.536 L 949.642,-76.536 L 950.163,-76.4252 L 950.65,-76.2084
 L 951.081,-75.895 L 951.438,-75.4988 L 951.705,-75.0372 L 951.869,-74.5302 L 951.925,-74 L 951.925,-64.7024
 L 952.267,-64.4804 L 952.667,-64.1563 L 953.031,-63.7921 L 953.355,-63.3919 L 953.636,-62.96 L 953.87,-62.5011
 L 954.054,-62.0204 L 954.187,-61.5229 L 954.268,-61.0143 L 954.295,-60.5 L 954.268,-59.9857 L 954.187,-59.4771
 L 954.054,-58.9796 L 953.87,-58.4989 L 953.636,-58.04 L 953.355,-57.6081 L 953.031,-57.2079 L 952.667,-56.8437
 L 952.267,-56.5196 L 951.835,-56.2392 L 951.376,-56.0054 L 950.895,-55.8208 L 950.398,-55.6875 L 949.889,-55.607
 L 949.375,-55.58 z
M 6.98573,-55.607 L 6.47708,-55.6875 L 5.97964,-55.8208 L 5.49887,-56.0054 L 5.04001,-56.2392 L 4.60811,-56.5196
 L 4.20789,-56.8437 L 3.84373,-57.2079 L 3.51964,-57.6081 L 3.23917,-58.04 L 3.00537,-58.4989 L 2.82082,-58.9796
 L 2.68752,-59.4771 L 2.60696,-59.9857 L 2.58,-60.5 L 2.60696,-61.0143 L 2.68752,-61.5229 L 2.82082,-62.0204
 L 3.00537,-62.5011 L 3.23917,-62.96 L 3.51964,-63.3919 L 3.84373,-63.7921 L 4.20789,-64.1563 L 4.60811,-64.4804
 L 4.95001,-64.7024 L 4.95001,-74 L 5.00574,-74.5302 L 5.17047,-75.0372 L 5.43701,-75.4988 L 5.79373,-75.895
 L 6.22501,-76.2084 L 6.71202,-76.4252 L 7.23346,-76.536 L 7.76654,-76.536 L 8.28798,-76.4252 L 8.77499,-76.2084
 L 9.20627,-75.895 L 9.56299,-75.4988 L 9.82953,-75.0372 L 9.99426,-74.5302 L 10.05,-74 L 10.05,-64.7024
 L 10.3919,-64.4804 L 10.7921,-64.1563 L 11.1563,-63.7921 L 11.4804,-63.3919 L 11.7608,-62.96 L 11.9946,-62.5011
 L 12.1792,-62.0204 L 12.3125,-61.5229 L 12.393,-61.0143 L 12.42,-60.5 L 12.393,-59.9857 L 12.3125,-59.4771
 L 12.1792,-58.9796 L 11.9946,-58.4989 L 11.7608,-58.04 L 11.4804,-57.6081 L 11.1563,-57.2079 L 10.7921,-56.8437
 L 10.3919,-56.5196 L 9.95999,-56.2392 L 9.50113,-56.0054 L 9.02036,-55.8208 L 8.52292,-55.6875 L 8.01427,-55.607
 L 7.5,-55.58 z
M 760.486,-55.607 L 759.977,-55.6875 L 759.48,-55.8208 L 758.999,-56.0054 L 758.54,-56.2392 L 758.108,-56.5196
 L 757.708,-56.8437 L 757.344,-57.2079 L 757.02,-57.6081 L 756.739,-58.04 L 756.505,-58.4989 L 756.321,-58.9796
 L 756.188,-59.4771 L 756.107,-59.9857 L 756.08,-60.5 L 756.107,-61.0143 L 756.188,-61.5229 L 756.321,-62.0204
 L 756.505,-62.5011 L 756.739,-62.96 L 757.02,-63.3919 L 757.344,-63.7921 L 757.708,-64.1563 L 758.108,-64.4804
 L 758.45,-64.7024 L 758.45,-74 L 758.506,-74.5302 L 758.67,-75.0372 L 758.937,-75.4988 L 759.294,-75.895
 L 759.725,-76.2084 L 760.212,-76.4252 L 760.733,-76.536 L 761.267,-76.536 L 761.788,-76.4252 L 762.275,-76.2084
 L 762.706,-75.895 L 763.063,-75.4988 L 763.33,-75.0372 L 763.494,-74.5302 L 763.55,-74 L 763.55,-64.7024
 L 763.892,-64.4804 L 764.292,-64.1563 L 764.656,-63.7921 L 764.98,-63.3919 L 765.261,-62.96 L 765.495,-62.5011
 L 765.679,-62.0204 L 765.812,-61.5229 L 765.893,-61.0143 L 765.92,-60.5 L 765.893,-59.9857 L 765.812,-59.4771
 L 765.679,-58.9796 L 765.495,-58.4989 L 765.261,-58.04 L 764.98,-57.6081 L 764.656,-57.2079 L 764.292,-56.8437
 L 763.892,-56.5196 L 763.46,-56.2392 L 763.001,-56.0054 L 762.52,-55.8208 L 762.023,-55.6875 L 761.514,-55.607
 L 761,-55.58 z
M 1325.61,-55.607 L 1325.1,-55.6875 L 1324.6,-55.8208 L 1324.12,-56.0054 L 1323.67,-56.2392 L 1323.23,-56.5196
 L 1322.83,-56.8437 L 1322.47,-57.2079 L 1322.14,-57.6081 L 1321.86,-58.04 L 1321.63,-58.4989 L 1321.45,-58.9796
 L 1321.31,-59.4771 L 1321.23,-59.9857 L 1321.21,-60.5 L 1321.23,-61.0143 L 1321.31,-61.5229 L 1321.45,-62.0204
 L 1321.63,-62.5011 L 1321.86,-62.96 L 1322.14,-63.3919 L 1322.47,-63.7921 L 1322.83,-64.1563 L 1323.23,-64.4804
 L 1323.58,-64.7024 L 1323.58,-74 L 1323.63,-74.5302 L 1323.8,-75.0372 L 1324.06,-75.4988 L 1324.42,-75.895
 L 1324.85,-76.2084 L 1325.34,-76.4252 L 1325.86,-76.536 L 1326.39,-76.536 L 1326.91,-76.4252 L 1327.4,-76.2084
 L 1327.83,-75.895 L 1328.19,-75.4988 L 1328.45,-75.0372 L 1328.62,-74.5302 L 1328.67,-74 L 1328.67,-64.7024
 L 1329.02,-64.4804 L 1329.42,-64.1563 L 1329.78,-63.7921 L 1330.11,-63.3919 L 1330.39,-62.96 L 1330.62,-62.5011
 L 1330.8,-62.0204 L 1330.94,-61.5229 L 1331.02,-61.0143 L 1331.04,-60.5 L 1331.02,-59.9857 L 1330.94,-59.4771
 L 1330.8,-58.9796 L 1330.62,-58.4989 L 1330.39,-58.04 L 1330.11,-57.6081 L 1329.78,-57.2079 L 1329.42,-56.8437
 L 1329.02,-56.5196 L 1328.58,-56.2392 L 1328.13,-56.0054 L 1327.65,-55.8208 L 1327.15,-55.6875 L 1326.64,-55.607
 L 1326.12,-55.58 z
M 572.111,-55.607 L 571.602,-55.6875 L 571.105,-55.8208 L 570.624,-56.0054 L 570.165,-56.2392 L 569.733,-56.5196
 L 569.333,-56.8437 L 568.969,-57.2079 L 568.645,-57.6081 L 568.364,-58.04 L 568.13,-58.4989 L 567.946,-58.9796
 L 567.813,-59.4771 L 567.732,-59.9857 L 567.705,-60.5 L 567.732,-61.0143 L 567.813,-61.5229 L 567.946,-62.0204
 L 568.13,-62.5011 L 568.364,-62.96 L 568.645,-63.3919 L 568.969,-63.7921 L 569.333,-64.1563 L 569.733,-64.4804
 L 570.075,-64.7024 L 570.075,-74 L 570.131,-74.5302 L 570.295,-75.0372 L 570.562,-75.4988 L 570.919,-75.895
 L 571.35,-76.2084 L 571.837,-76.4252 L 572.358,-76.536 L 572.892,-76.536 L 573.413,-76.4252 L 573.9,-76.2084
 L 574.331,-75.895 L 574.688,-75.4988 L 574.955,-75.0372 L 575.119,-74.5302 L 575.175,-74 L 575.175,-64.7024
 L 575.517,-64.4804 L 575.917,-64.1563 L 576.281,-63.7921 L 576.605,-63.3919 L 576.886,-62.96 L 577.12,-62.5011
 L 577.304,-62.0204 L 577.437,-61.5229 L 577.518,-61.0143 L 577.545,-60.5 L 577.518,-59.9857 L 577.437,-59.4771
 L 577.304,-58.9796 L 577.12,-58.4989 L 576.886,-58.04 L 576.605,-57.6081 L 576.281,-57.2079 L 575.917,-56.8437
 L 575.517,-56.5196 L 575.085,-56.2392 L 574.626,-56.0054 L 574.145,-55.8208 L 573.648,-55.6875 L 573.139,-55.607
 L 572.625,-55.58 z
M 383.736,-55.607 L 383.227,-55.6875 L 382.73,-55.8208 L 382.249,-56.0054 L 381.79,-56.2392 L 381.358,-56.5196
 L 380.958,-56.8437 L 380.594,-57.2079 L 380.27,-57.6081 L 379.989,-58.04 L 379.755,-58.4989 L 379.571,-58.9796
 L 379.438,-59.4771 L 379.357,-59.9857 L 379.33,-60.5 L 379.357,-61.0143 L 379.438,-61.5229 L 379.571,-62.0204
 L 379.755,-62.5011 L 379.989,-62.96 L 380.27,-63.3919 L 380.594,-63.7921 L 380.958,-64.1563 L 381.358,-64.4804
 L 381.7,-64.7024 L 381.7,-74 L 381.756,-74.5302 L 381.92,-75.0372 L 382.187,-75.4988 L 382.544,-75.895
 L 382.975,-76.2084 L 383.462,-76.4252 L 383.983,-76.536 L 384.517,-76.536 L 385.038,-76.4252 L 385.525,-76.2084
 L 385.956,-75.895 L 386.313,-75.4988 L 386.58,-75.0372 L 386.744,-74.5302 L 386.8,-74 L 386.8,-64.7024
 L 387.142,-64.4804 L 387.542,-64.1563 L 387.906,-63.7921 L 388.23,-63.3919 L 388.511,-62.96 L 388.745,-62.5011
 L 388.929,-62.0204 L 389.062,-61.5229 L 389.143,-61.0143 L 389.17,-60.5 L 389.143,-59.9857 L 389.062,-59.4771
 L 388.929,-58.9796 L 388.745,-58.4989 L 388.511,-58.04 L 388.23,-57.6081 L 387.906,-57.2079 L 387.542,-56.8437
 L 387.142,-56.5196 L 386.71,-56.2392 L 386.251,-56.0054 L 385.77,-55.8208 L 385.273,-55.6875 L 384.764,-55.607
 L 384.25,-55.58 z
M 1513.99,-55.607 L 1513.48,-55.6875 L 1512.98,-55.8208 L 1512.5,-56.0054 L 1512.04,-56.2392 L 1511.61,-56.5196
 L 1511.21,-56.8437 L 1510.84,-57.2079 L 1510.52,-57.6081 L 1510.24,-58.04 L 1510.01,-58.4989 L 1509.82,-58.9796
 L 1509.69,-59.4771 L 1509.61,-59.9857 L 1509.58,-60.5 L 1509.61,-61.0143 L 1509.69,-61.5229 L 1509.82,-62.0204
 L 1510.01,-62.5011 L 1510.24,-62.96 L 1510.52,-63.3919 L 1510.84,-63.7921 L 1511.21,-64.1563 L 1511.61,-64.4804
 L 1511.95,-64.7024 L 1511.95,-74 L 1512.01,-74.5302 L 1512.17,-75.0372 L 1512.44,-75.4988 L 1512.79,-75.895
 L 1513.23,-76.2084 L 1513.71,-76.4252 L 1514.23,-76.536 L 1514.77,-76.536 L 1515.29,-76.4252 L 1515.77,-76.2084
 L 1516.21,-75.895 L 1516.56,-75.4988 L 1516.83,-75.0372 L 1516.99,-74.5302 L 1517.05,-74 L 1517.05,-64.7024
 L 1517.39,-64.4804 L 1517.79,-64.1563 L 1518.16,-63.7921 L 1518.48,-63.3919 L 1518.76,-62.96 L 1518.99,-62.5011
 L 1519.18,-62.0204 L 1519.31,-61.5229 L 1519.39,-61.0143 L 1519.42,-60.5 L 1519.39,-59.9857 L 1519.31,-59.4771
 L 1519.18,-58.9796 L 1518.99,-58.4989 L 1518.76,-58.04 L 1518.48,-57.6081 L 1518.16,-57.2079 L 1517.79,-56.8437
 L 1517.39,-56.5196 L 1516.96,-56.2392 L 1516.5,-56.0054 L 1516.02,-55.8208 L 1515.52,-55.6875 L 1515.01,-55.607
 L 1514.5,-55.58 z
M 370.704,-20.5441 L 369.892,-20.7443 L 277.108,-54.2376 L 276.115,-54.7639 L 275.493,-55.3235 L 275.002,-56
 L 274.662,-56.7639 L 274.488,-57.5819 L 274.488,-58.4181 L 274.662,-59.2361 L 275.002,-60 L 275.493,-60.6765
 L 276.115,-61.2361 L 276.839,-61.6542 L 277.634,-61.9126 L 278.466,-62 L 371.25,-62 L 372.486,-61.8042
 L 373.25,-61.4641 L 373.927,-60.9726 L 374.486,-60.3511 L 374.904,-59.627 L 375.163,-58.8316 L 375.25,-58
 L 375.25,-24.5066 L 375.134,-23.5492 L 374.85,-22.7626 L 374.409,-22.0523 L 373.829,-21.4493 L 373.137,-20.9798
 L 372.363,-20.6645 L 371.54,-20.5171 z
M 559.079,-20.5441 L 558.267,-20.7443 L 465.483,-54.2376 L 464.49,-54.7639 L 463.868,-55.3235 L 463.377,-56
 L 463.037,-56.7639 L 462.863,-57.5819 L 462.863,-58.4181 L 463.037,-59.2361 L 463.377,-60 L 463.868,-60.6765
 L 464.49,-61.2361 L 465.214,-61.6542 L 466.009,-61.9126 L 466.841,-62 L 559.625,-62 L 560.861,-61.8042
 L 561.625,-61.4641 L 562.302,-60.9726 L 562.861,-60.3511 L 563.279,-59.627 L 563.538,-58.8316 L 563.625,-58
 L 563.625,-24.5066 L 563.509,-23.5492 L 563.225,-22.7626 L 562.784,-22.0523 L 562.204,-21.4493 L 561.512,-20.9798
 L 560.738,-20.6645 L 559.915,-20.5171 z
M 1338.01,-20.6645 L 1337.24,-20.9798 L 1336.55,-21.4493 L 1335.97,-22.0523 L 1335.53,-22.7626 L 1335.24,-23.5492
 L 1335.12,-24.5066 L 1335.12,-58 L 1335.21,-58.8316 L 1335.47,-59.627 L 1335.89,-60.3511 L 1336.45,-60.9726
 L 1337.12,-61.4641 L 1337.89,-61.8042 L 1339.12,-62 L 1431.91,-62 L 1432.74,-61.9126 L 1433.54,-61.6542
 L 1434.26,-61.2361 L 1434.88,-60.6765 L 1435.37,-60 L 1435.71,-59.2361 L 1435.89,-58.4181 L 1435.89,-57.5819
 L 1435.71,-56.7639 L 1435.37,-56 L 1434.88,-55.3235 L 1434.26,-54.7639 L 1433.27,-54.2376 L 1340.48,-20.7443
 L 1339.67,-20.5441 L 1338.84,-20.5171 z
M 747.454,-20.5441 L 746.642,-20.7443 L 653.858,-54.2376 L 652.865,-54.7639 L 652.243,-55.3235 L 651.752,-56
 L 651.412,-56.7639 L 651.238,-57.5819 L 651.238,-58.4181 L 651.412,-59.2361 L 651.752,-60 L 652.243,-60.6765
 L 652.865,-61.2361 L 653.589,-61.6542 L 654.384,-61.9126 L 655.216,-62 L 748,-62 L 749.236,-61.8042
 L 750,-61.4641 L 750.677,-60.9726 L 751.236,-60.3511 L 751.654,-59.627 L 751.913,-58.8316 L 752,-58
 L 752,-24.5066 L 751.884,-23.5492 L 751.6,-22.7626 L 751.159,-22.0523 L 750.579,-21.4493 L 749.887,-20.9798
 L 749.113,-20.6645 L 748.29,-20.5171 z
M 182.329,-20.5441 L 181.517,-20.7443 L 88.7328,-54.2376 L 87.7399,-54.7639 L 87.1184,-55.3235 L 86.6269,-56
 L 86.2868,-56.7639 L 86.1129,-57.5819 L 86.1129,-58.4181 L 86.2868,-59.2361 L 86.6269,-60 L 87.1184,-60.6765
 L 87.7399,-61.2361 L 88.464,-61.6542 L 89.2593,-61.9126 L 90.091,-62 L 182.875,-62 L 184.111,-61.8042
 L 184.875,-61.4641 L 185.552,-60.9726 L 186.111,-60.3511 L 186.529,-59.627 L 186.788,-58.8316 L 186.875,-58
 L 186.875,-24.5066 L 186.759,-23.5492 L 186.475,-22.7626 L 186.034,-22.0523 L 185.454,-21.4493 L 184.762,-20.9798
 L 183.988,-20.6645 L 183.165,-20.5171 z
M 772.887,-20.6645 L 772.113,-20.9798 L 771.421,-21.4493 L 770.841,-22.0523 L 770.4,-22.7626 L 770.116,-23.5492
 L 770,-24.5066 L 770,-58 L 770.087,-58.8316 L 770.346,-59.627 L 770.764,-60.3511 L 771.323,-60.9726
 L 772,-61.4641 L 772.764,-61.8042 L 774,-62 L 866.784,-62 L 867.616,-61.9126 L 868.411,-61.6542
 L 869.135,-61.2361 L 869.757,-60.6765 L 870.248,-60 L 870.588,-59.2361 L 870.762,-58.4181 L 870.762,-57.5819
 L 870.588,-56.7639 L 870.248,-56 L 869.757,-55.3235 L 869.135,-54.7639 L 868.142,-54.2376 L 775.358,-20.7443
 L 774.546,-20.5441 L 773.71,-20.5171 z
M 961.262,-20.6645 L 960.488,-20.9798 L 959.796,-21.4493 L 959.216,-22.0523 L 958.775,-22.7626 L 958.491,-23.5492
 L 958.375,-24.5066 L 958.375,-58 L 958.462,-58.8316 L 958.721,-59.627 L 959.139,-60.3511 L 959.698,-60.9726
 L 960.375,-61.4641 L 961.139,-61.8042 L 962.375,-62 L 1055.16,-62 L 1055.99,-61.9126 L 1056.79,-61.6542
 L 1057.51,-61.2361 L 1058.13,-60.6765 L 1058.62,-60 L 1058.96,-59.2361 L 1059.14,-58.4181 L 1059.14,-57.5819
 L 1058.96,-56.7639 L 1058.62,-56 L 1058.13,-55.3235 L 1057.51,-54.7639 L 1056.52,-54.2376 L 963.733,-20.7443
 L 962.921,-20.5441 L 962.085,-20.5171 z
M 1149.64,-20.6645 L 1148.86,-20.9798 L 1148.17,-21.4493 L 1147.59,-22.0523 L 1147.15,-22.7626 L 1146.87,-23.5492
 L 1146.75,-24.5066 L 1146.75,-58 L 1146.84,-58.8316 L 1147.1,-59.627 L 1147.51,-60.3511 L 1148.07,-60.9726
 L 1148.75,-61.4641 L 1149.51,-61.8042 L 1150.75,-62 L 1243.53,-62 L 1244.37,-61.9126 L 1245.16,-61.6542
 L 1245.89,-61.2361 L 1246.51,-60.6765 L 1247,-60 L 1247.34,-59.2361 L 1247.51,-58.4181 L 1247.51,-57.5819
 L 1247.34,-56.7639 L 1247,-56 L 1246.51,-55.3235 L 1245.89,-54.7639 L 1244.89,-54.2376 L 1152.11,-20.7443
 L 1151.3,-20.5441 L 1150.46,-20.5171 z
M 208.875,-18 L 207.639,-18.1958 L 206.875,-18.5359 L 206.198,-19.0274 L 205.639,-19.6489 L 205.221,-20.373
 L 204.962,-21.1684 L 204.875,-22 L 204.875,-55.4933 L 204.991,-56.4508 L 205.275,-57.2373 L 205.716,-57.9477
 L 206.296,-58.5507 L 206.988,-59.0202 L 207.762,-59.3355 L 208.585,-59.4828 L 209.421,-59.4559 L 210.233,-59.2557
 L 303.017,-25.7624 L 304.01,-25.2361 L 304.632,-24.6765 L 305.123,-24 L 305.463,-23.2361 L 305.637,-22.4181
 L 305.637,-21.5819 L 305.463,-20.7639 L 305.123,-20 L 304.632,-19.3235 L 304.01,-18.7639 L 303.286,-18.3458
 L 302.491,-18.0874 L 301.659,-18 z
M 397.25,-18 L 396.014,-18.1958 L 395.25,-18.5359 L 394.573,-19.0274 L 394.014,-19.6489 L 393.596,-20.373
 L 393.337,-21.1684 L 393.25,-22 L 393.25,-55.4933 L 393.366,-56.4508 L 393.65,-57.2373 L 394.091,-57.9477
 L 394.671,-58.5507 L 395.363,-59.0202 L 396.137,-59.3355 L 396.96,-59.4828 L 397.796,-59.4559 L 398.608,-59.2557
 L 491.392,-25.7624 L 492.385,-25.2361 L 493.007,-24.6765 L 493.498,-24 L 493.838,-23.2361 L 494.012,-22.4181
 L 494.012,-21.5819 L 493.838,-20.7639 L 493.498,-20 L 493.007,-19.3235 L 492.385,-18.7639 L 491.661,-18.3458
 L 490.866,-18.0874 L 490.034,-18 z
M 585.625,-18 L 584.389,-18.1958 L 583.625,-18.5359 L 582.948,-19.0274 L 582.389,-19.6489 L 581.971,-20.373
 L 581.712,-21.1684 L 581.625,-22 L 581.625,-55.4933 L 581.741,-56.4508 L 582.025,-57.2373 L 582.466,-57.9477
 L 583.046,-58.5507 L 583.738,-59.0202 L 584.512,-59.3355 L 585.335,-59.4828 L 586.171,-59.4559 L 586.983,-59.2557
 L 679.767,-25.7624 L 680.76,-25.2361 L 681.382,-24.6765 L 681.873,-24 L 682.213,-23.2361 L 682.387,-22.4181
 L 682.387,-21.5819 L 682.213,-20.7639 L 681.873,-20 L 681.382,-19.3235 L 680.76,-18.7639 L 680.036,-18.3458
 L 679.241,-18.0874 L 678.409,-18 z
M 843.591,-18 L 842.759,-18.0874 L 841.964,-18.3458 L 841.24,-18.7639 L 840.618,-19.3235 L 840.127,-20
 L 839.787,-20.7639 L 839.613,-21.5819 L 839.613,-22.4181 L 839.787,-23.2361 L 840.127,-24 L 840.618,-24.6765
 L 841.24,-25.2361 L 842.233,-25.7624 L 935.017,-59.2557 L 935.829,-59.4559 L 936.665,-59.4828 L 937.488,-59.3355
 L 938.262,-59.0202 L 938.954,-58.5507 L 939.534,-57.9477 L 939.975,-57.2373 L 940.259,-56.4508 L 940.375,-55.4933
 L 940.375,-22 L 940.288,-21.1684 L 940.029,-20.373 L 939.611,-19.6489 L 939.052,-19.0274 L 938.375,-18.5359
 L 937.611,-18.1958 L 936.375,-18 z
M 1031.97,-18 L 1031.13,-18.0874 L 1030.34,-18.3458 L 1029.61,-18.7639 L 1028.99,-19.3235 L 1028.5,-20
 L 1028.16,-20.7639 L 1027.99,-21.5819 L 1027.99,-22.4181 L 1028.16,-23.2361 L 1028.5,-24 L 1028.99,-24.6765
 L 1029.61,-25.2361 L 1030.61,-25.7624 L 1123.39,-59.2557 L 1124.2,-59.4559 L 1125.04,-59.4828 L 1125.86,-59.3355
 L 1126.64,-59.0202 L 1127.33,-58.5507 L 1127.91,-57.9477 L 1128.35,-57.2373 L 1128.63,-56.4508 L 1128.75,-55.4933
 L 1128.75,-22 L 1128.66,-21.1684 L 1128.4,-20.373 L 1127.99,-19.6489 L 1127.43,-19.0274 L 1126.75,-18.5359
 L 1125.99,-18.1958 L 1124.75,-18 z
M 1220.34,-18 L 1219.51,-18.0874 L 1218.71,-18.3458 L 1217.99,-18.7639 L 1217.37,-19.3235 L 1216.88,-20
 L 1216.54,-20.7639 L 1216.36,-21.5819 L 1216.36,-22.4181 L 1216.54,-23.2361 L 1216.88,-24 L 1217.37,-24.6765
 L 1217.99,-25.2361 L 1218.98,-25.7624 L 1311.77,-59.2557 L 1312.58,-59.4559 L 1313.41,-59.4828 L 1314.24,-59.3355
 L 1315.01,-59.0202 L 1315.7,-58.5507 L 1316.28,-57.9477 L 1316.72,-57.2373 L 1317.01,-56.4508 L 1317.12,-55.4933
 L 1317.12,-22 L 1317.04,-21.1684 L 1316.78,-20.373 L 1316.36,-19.6489 L 1315.8,-19.0274 L 1315.12,-18.5359
 L 1314.36,-18.1958 L 1313.12,-18 z
M 1408.72,-18 L 1407.88,-18.0874 L 1407.09,-18.3458 L 1406.36,-18.7639 L 1405.74,-19.3235 L 1405.25,-20
 L 1404.91,-20.7639 L 1404.74,-21.5819 L 1404.74,-22.4181 L 1404.91,-23.2361 L 1405.25,-24 L 1405.74,-24.6765
 L 1406.36,-25.2361 L 1407.36,-25.7624 L 1498.64,-58.7142 L 1499.45,-58.9144 L 1500.29,-58.9414 L 1501.11,-58.794
 L 1501.89,-58.4787 L 1502.58,-58.0092 L 1503.16,-57.4062 L 1503.6,-56.6959 L 1503.88,-55.9093 L 1504,-54.9519
 L 1504,-22 L 1503.91,-21.1684 L 1503.65,-20.373 L 1503.24,-19.6489 L 1502.68,-19.0274 L 1502,-18.5359
 L 1501.24,-18.1958 L 1500,-18 z
M 22,-18 L 20.7639,-18.1958 L 20,-18.5359 L 19.3235,-19.0274 L 18.7639,-19.6489 L 18.3458,-20.373
 L 18.0874,-21.1684 L 18,-22 L 18,-54.9519 L 18.1163,-55.9093 L 18.4002,-56.6959 L 18.8415,-57.4062
 L 19.4208,-58.0092 L 20.1128,-58.4787 L 20.8873,-58.794 L 21.7104,-58.9414 L 22.5462,-58.9144 L 23.3582,-58.7142
 L 114.642,-25.7624 L 115.635,-25.2361 L 116.257,-24.6765 L 116.748,-24 L 117.088,-23.2361 L 117.262,-22.4181
 L 117.262,-21.5819 L 117.088,-20.7639 L 116.748,-20 L 116.257,-19.3235 L 115.635,-18.7639 L 114.911,-18.3458
 L 114.116,-18.0874 L 113.284,-18 z
" stroke="black" fill="lightgray" stroke-width="0.5"/>
</svg>
