<?xml version="1.0" standalone="no"?>
<!DOCTYPE svg PUBLIC "-//W3C//DTD SVG 1.1//EN" "http://www.w3.org/Graphics/SVG/1.1/DTD/svg11.dtd">
<svg width="1117mm" height="80mm" viewBox="0 -80 1117 80" xmlns="http://www.w3.org/2000/svg" version="1.1">
<title>OpenSCAD Model</title>
<path d="
M 1117,-80 L 0,-80 L 0,-0 L 4.95,-0 L 4.95,-6 L 5.00572,-6.53017
 L 5.17046,-7.03717 L 5.437,-7.49884 L 5.79372,-7.895 L 6.22499,-8.20836 L 6.71201,-8.42519 L 7.23344,-8.53603
 L 7.76654,-8.53603 L 8.28798,-8.42519 L 8.77499,-8.20836 L 9.20627,-7.895 L 9.56299,-7.49884 L 9.82953,-7.03717
 L 9.99426,-6.53017 L 10.05,-6 L 10.05,-0 L 188.617,-0 L 188.617,-6 L 188.672,-6.53017
 L 188.837,-7.03717 L 189.104,-7.49884 L 189.46,-7.895 L 189.892,-8.20836 L 190.379,-8.42519 L 190.9,-8.53603
 L 191.433,-8.53603 L 191.955,-8.42519 L 192.442,-8.20836 L 192.873,-7.895 L 193.23,-7.49884 L 193.496,-7.03717
 L 193.661,-6.53017 L 193.717,-6 L 193.717,-0 L 372.283,-0 L 372.283,-6 L 372.339,-6.53017
 L 372.504,-7.03717 L 372.77,-7.49884 L 373.127,-7.895 L 373.558,-8.20836 L 374.045,-8.42519 L 374.567,-8.53603
 L 375.1,-8.53603 L 375.621,-8.42519 L 376.108,-8.20836 L 376.54,-7.895 L 376.896,-7.49884 L 377.163,-7.03717
 L 377.328,-6.53017 L 377.383,-6 L 377.383,-0 L 555.95,-0 L 555.95,-6 L 556.006,-6.53017
 L 556.17,-7.03717 L 556.437,-7.49884 L 556.794,-7.895 L 557.225,-8.20836 L 557.712,-8.42519 L 558.233,-8.53603
 L 558.767,-8.53603 L 559.288,-8.42519 L 559.775,-8.20836 L 560.206,-7.895 L 560.563,-7.49884 L 560.83,-7.03717
 L 560.994,-6.53017 L 561.05,-6 L 561.05,-0 L 739.617,-0 L 739.617,-6 L 739.672,-6.53017
 L 739.837,-7.03717 L 740.104,-7.49884 L 740.46,-7.895 L 740.892,-8.20836 L 741.379,-8.42519 L 741.9,-8.53603
 L 742.433,-8.53603 L 742.955,-8.42519 L 743.442,-8.20836 L 743.873,-7.895 L 744.23,-7.49884 L 744.496,-7.03717
 L 744.661,-6.53017 L 744.717,-6 L 744.717,-0 L 923.283,-0 L 923.283,-6 L 923.339,-6.53017
 L 923.504,-7.03717 L 923.77,-7.49884 L 924.127,-7.895 L 924.558,-8.20836 L 925.045,-8.42519 L 925.567,-8.53603
 L 926.1,-8.53603 L 926.621,-8.42519 L 927.108,-8.20836 L 927.54,-7.895 L 927.896,-7.49884 L 928.163,-7.03717
 L 928.328,-6.53017 L 928.383,-6 L 928.383,-0 L 1106.95,-0 L 1106.95,-6 L 1107.01,-6.53017
 L 1107.17,-7.03717 L 1107.44,-7.49884 L 1107.79,-7.895 L 1108.22,-8.20836 L 1108.71,-8.42519 L 1109.23,-8.53603
 L 1109.77,-8.53603 L 1110.29,-8.42519 L 1110.77,-8.20836 L 1111.21,-7.895 L 1111.56,-7.49884 L 1111.83,-7.03717
 L 1111.99,-6.53017 L 1112.05,-6 L 1112.05,-0 L 1117,-0 z
M 6.98573,-55.607 L 6.47708,-55.6875 L 5.97964,-55.8208 L 5.49887,-56.0054 L 5.04001,-56.2392 L 4.60811,-56.5196
 L 4.20789,-56.8437 L 3.84373,-57.2079 L 3.51964,-57.6081 L 3.23917,-58.04 L 3.00537,-58.4989 L 2.82082,-58.9796
 L 2.68752,-59.4771 L 2.60696,-59.9857 L 2.58,-60.5 L 2.60696,-61.0143 L 2.68752,-61.5229 L 2.82082,-62.0204
 L 3.00537,-62.5011 L 3.23917,-62.96 L 3.51964,-63.3919 L 3.84373,-63.7921 L 4.20789,-64.1563 L 4.60811,-64.4804
 L 4.95001,-64.7024 L 4.95001,-74 L 5.00574,-74.5302 L 5.17047,-75.0372 L 5.43701,-75.4988 L 5.79373,-75.895
 L 6.22501,-76.2084 L 6.71202,-76.4252 L 7.23346,-76.536 L 7.76654,-76.536 L 8.28798,-76.4252 L 8.77499,-76.2084
 L 9.20627,-75.895 L 9.56299,-75.4988 L 9.82953,-75.0372 L 9.99426,-74.5302 L 10.05,-74 L 10.05,-64.7024
 L 10.3919,-64.4804 L 10.7921,-64.1563 L 11.1563,-63.7921 L 11.4804,-63.3919 L 11.7608,-62.96 L 11.9946,-62.5011
 L 12.1792,-62.0204 L 12.3125,-61.5229 L 12.393,-61.0143 L 12.42,-60.5 L 12.393,-59.9857 L 12.3125,-59.4771
 L 12.1792,-58.9796 L 11.9946,-58.4989 L 11.7608,-58.04 L 11.4804,-57.6081 L 11.1563,-57.2079 L 10.7921,-56.8437
 L 10.3919,-56.5196 L 9.95999,-56.2392 L 9.50113,-56.0054 L 9.02036,-55.8208 L 8.52292,-55.6875 L 8.01427,-55.607
 L 7.5,-55.58 z
M 190.652,-55.607 L 190.144,-55.6875 L 189.646,-55.8208 L 189.166,-56.0054 L 188.707,-56.2392 L 188.275,-56.5196
 L 187.875,-56.8437 L 187.51,-57.2079 L 187.186,-57.6081 L 186.906,-58.04 L 186.672,-58.4989 L 186.487,-58.9796
 L 186.354,-59.4771 L 186.274,-59.9857 L 186.247,-60.5 L 186.274,-61.0143 L 186.354,-61.5229 L 186.487,-62.0204
 L 186.672,-62.5011 L 186.906,-62.96 L 187.186,-63.3919 L 187.51,-63.7921 L 187.875,-64.1563 L 188.275,-64.4804
 L 188.617,-64.7024 L 188.617,-74 L 188.672,-74.5302 L 188.837,-75.0372 L 189.104,-75.4988 L 189.46,-75.895
 L 189.892,-76.2084 L 190.379,-76.4252 L 190.9,-76.536 L 191.433,-76.536 L 191.955,-76.4252 L 192.442,-76.2084
 L 192.873,-75.895 L 193.23,-75.4988 L 193.496,-75.0372 L 193.661,-74.5302 L 193.717,-74 L 193.717,-64.7024
 L 194.059,-64.4804 L 194.459,-64.1563 L 194.823,-63.7921 L 195.147,-63.3919 L 195.427,-62.96 L 195.661,-62.5011
 L 195.846,-62.0204 L 195.979,-61.5229 L 196.06,-61.0143 L 196.087,-60.5 L 196.06,-59.9857 L 195.979,-59.4771
 L 195.846,-58.9796 L 195.661,-58.4989 L 195.427,-58.04 L 195.147,-57.6081 L 194.823,-57.2079 L 194.459,-56.8437
 L 194.059,-56.5196 L 193.627,-56.2392 L 193.168,-56.0054 L 192.687,-55.8208 L 192.19,-55.6875 L 191.681,-55.607
 L 191.167,-55.58 z
M 374.319,-55.607 L 373.81,-55.6875 L 373.313,-55.8208 L 372.832,-56.0054 L 372.373,-56.2392 L 371.941,-56.5196
 L 371.541,-56.8437 L 371.177,-57.2079 L 370.853,-57.6081 L 370.572,-58.04 L 370.339,-58.4989 L 370.154,-58.9796
 L 370.021,-59.4771 L 369.94,-59.9857 L 369.913,-60.5 L 369.94,-61.0143 L 370.021,-61.5229 L 370.154,-62.0204
 L 370.339,-62.5011 L 370.572,-62.96 L 370.853,-63.3919 L 371.177,-63.7921 L 371.541,-64.1563 L 371.941,-64.4804
 L 372.283,-64.7024 L 372.283,-74 L 372.339,-74.5302 L 372.504,-75.0372 L 372.77,-75.4988 L 373.127,-75.895
 L 373.558,-76.2084 L 374.045,-76.4252 L 374.567,-76.536 L 375.1,-76.536 L 375.621,-76.4252 L 376.108,-76.2084
 L 376.54,-75.895 L 376.896,-75.4988 L 377.163,-75.0372 L 377.328,-74.5302 L 377.383,-74 L 377.383,-64.7024
 L 377.725,-64.4804 L 378.125,-64.1563 L 378.49,-63.7921 L 378.814,-63.3919 L 379.094,-62.96 L 379.328,-62.5011
 L 379.513,-62.0204 L 379.646,-61.5229 L 379.726,-61.0143 L 379.753,-60.5 L 379.726,-59.9857 L 379.646,-59.4771
 L 379.513,-58.9796 L 379.328,-58.4989 L 379.094,-58.04 L 378.814,-57.6081 L 378.49,-57.2079 L 378.125,-56.8437
 L 377.725,-56.5196 L 377.293,-56.2392 L 376.834,-56.0054 L 376.354,-55.8208 L 375.856,-55.6875 L 375.348,-55.607
 L 374.833,-55.58 z
M 557.986,-55.607 L 557.477,-55.6875 L 556.98,-55.8208 L 556.499,-56.0054 L 556.04,-56.2392 L 555.608,-56.5196
 L 555.208,-56.8437 L 554.844,-57.2079 L 554.52,-57.6081 L 554.239,-58.04 L 554.005,-58.4989 L 553.821,-58.9796
 L 553.688,-59.4771 L 553.607,-59.9857 L 553.58,-60.5 L 553.607,-61.0143 L 553.688,-61.5229 L 553.821,-62.0204
 L 554.005,-62.5011 L 554.239,-62.96 L 554.52,-63.3919 L 554.844,-63.7921 L 555.208,-64.1563 L 555.608,-64.4804
 L 555.95,-64.7024 L 555.95,-74 L 556.006,-74.5302 L 556.17,-75.0372 L 556.437,-75.4988 L 556.794,-75.895
 L 557.225,-76.2084 L 557.712,-76.4252 L 558.233,-76.536 L 558.767,-76.536 L 559.288,-76.4252 L 559.775,-76.2084
 L 560.206,-75.895 L 560.563,-75.4988 L 560.83,-75.0372 L 560.994,-74.5302 L 561.05,-74 L 561.05,-64.7024
 L 561.392,-64.4804 L 561.792,-64.1563 L 562.156,-63.7921 L 562.48,-63.3919 L 562.761,-62.96 L 562.995,-62.5011
 L 563.179,-62.0204 L 563.312,-61.5229 L 563.393,-61.0143 L 563.42,-60.5 L 563.393,-59.9857 L 563.312,-59.4771
 L 563.179,-58.9796 L 562.995,-58.4989 L 562.761,-58.04 L 562.48,-57.6081 L 562.156,-57.2079 L 561.792,-56.8437
 L 561.392,-56.5196 L 560.96,-56.2392 L 560.501,-56.0054 L 560.02,-55.8208 L 559.523,-55.6875 L 559.014,-55.607
 L 558.5,-55.58 z
M 741.652,-55.607 L 741.144,-55.6875 L 740.646,-55.8208 L 740.166,-56.0054 L 739.707,-56.2392 L 739.275,-56.5196
 L 738.875,-56.8437 L 738.51,-57.2079 L 738.186,-57.6081 L 737.906,-58.04 L 737.672,-58.4989 L 737.487,-58.9796
 L 737.354,-59.4771 L 737.274,-59.9857 L 737.247,-60.5 L 737.274,-61.0143 L 737.354,-61.5229 L 737.487,-62.0204
 L 737.672,-62.5011 L 737.906,-62.96 L 738.186,-63.3919 L 738.51,-63.7921 L 738.875,-64.1563 L 739.275,-64.4804
 L 739.617,-64.7024 L 739.617,-74 L 739.672,-74.5302 L 739.837,-75.0372 L 740.104,-75.4988 L 740.46,-75.895
 L 740.892,-76.2084 L 741.379,-76.4252 L 741.9,-76.536 L 742.433,-76.536 L 742.955,-76.4252 L 743.442,-76.2084
 L 743.873,-75.895 L 744.23,-75.4988 L 744.496,-75.0372 L 744.661,-74.5302 L 744.717,-74 L 744.717,-64.7024
 L 745.059,-64.4804 L 745.459,-64.1563 L 745.823,-63.7921 L 746.147,-63.3919 L 746.427,-62.96 L 746.661,-62.5011
 L 746.846,-62.0204 L 746.979,-61.5229 L 747.06,-61.0143 L 747.087,-60.5 L 747.06,-59.9857 L 746.979,-59.4771
 L 746.846,-58.9796 L 746.661,-58.4989 L 746.427,-58.04 L 746.147,-57.6081 L 745.823,-57.2079 L 745.459,-56.8437
 L 745.059,-56.5196 L 744.627,-56.2392 L 744.168,-56.0054 L 743.687,-55.8208 L 743.19,-55.6875 L 742.681,-55.607
 L 742.167,-55.58 z
M 925.319,-55.607 L 924.81,-55.6875 L 924.313,-55.8208 L 923.832,-56.0054 L 923.373,-56.2392 L 922.941,-56.5196
 L 922.541,-56.8437 L 922.177,-57.2079 L 921.853,-57.6081 L 921.572,-58.04 L 921.339,-58.4989 L 921.154,-58.9796
 L 921.021,-59.4771 L 920.94,-59.9857 L 920.913,-60.5 L 920.94,-61.0143 L 921.021,-61.5229 L 921.154,-62.0204
 L 921.339,-62.5011 L 921.572,-62.96 L 921.853,-63.3919 L 922.177,-63.7921 L 922.541,-64.1563 L 922.941,-64.4804
 L 923.283,-64.7024 L 923.283,-74 L 923.339,-74.5302 L 923.504,-75.0372 L 923.77,-75.4988 L 924.127,-75.895
 L 924.558,-76.2084 L 925.045,-76.4252 L 925.567,-76.536 L 926.1,-76.536 L 926.621,-76.4252 L 927.108,-76.2084
 L 927.54,-75.895 L 927.896,-75.4988 L 928.163,-75.0372 L 928.328,-74.5302 L 928.383,-74 L 928.383,-64.7024
 L 928.725,-64.4804 L 929.125,-64.1563 L 929.49,-63.7921 L 929.814,-63.3919 L 930.094,-62.96 L 930.328,-62.5011
 L 930.513,-62.0204 L 930.646,-61.5229 L 930.726,-61.0143 L 930.753,-60.5 L 930.726,-59.9857 L 930.646,-59.4771
 L 930.513,-58.9796 L 930.328,-58.4989 L 930.094,-58.04 L 929.814,-57.6081 L 929.49,-57.2079 L 929.125,-56.8437
 L 928.725,-56.5196 L 928.293,-56.2392 L 927.834,-56.0054 L 927.354,-55.8208 L 926.856,-55.6875 L 926.348,-55.607
 L 925.833,-55.58 z
M 1108.99,-55.607 L 1108.48,-55.6875 L 1107.98,-55.8208 L 1107.5,-56.0054 L 1107.04,-56.2392 L 1106.61,-56.5196
 L 1106.21,-56.8437 L 1105.84,-57.2079 L 1105.52,-57.6081 L 1105.24,-58.04 L 1105.01,-58.4989 L 1104.82,-58.9796
 L 1104.69,-59.4771 L 1104.61,-59.9857 L 1104.58,-60.5 L 1104.61,-61.0143 L 1104.69,-61.5229 L 1104.82,-62.0204
 L 1105.01,-62.5011 L 1105.24,-62.96 L 1105.52,-63.3919 L 1105.84,-63.7921 L 1106.21,-64.1563 L 1106.61,-64.4804
 L 1106.95,-64.7024 L 1106.95,-74 L 1107.01,-74.5302 L 1107.17,-75.0372 L 1107.44,-75.4988 L 1107.79,-75.895
 L 1108.23,-76.2084 L 1108.71,-76.4252 L 1109.23,-76.536 L 1109.77,-76.536 L 1110.29,-76.4252 L 1110.77,-76.2084
 L 1111.21,-75.895 L 1111.56,-75.4988 L 1111.83,-75.0372 L 1111.99,-74.5302 L 1112.05,-74 L 1112.05,-64.7024
 L 1112.39,-64.4804 L 1112.79,-64.1563 L 1113.16,-63.7921 L 1113.48,-63.3919 L 1113.76,-62.96 L 1113.99,-62.5011
 L 1114.18,-62.0204 L 1114.31,-61.5229 L 1114.39,-61.0143 L 1114.42,-60.5 L 1114.39,-59.9857 L 1114.31,-59.4771
 L 1114.18,-58.9796 L 1113.99,-58.4989 L 1113.76,-58.04 L 1113.48,-57.6081 L 1113.16,-57.2079 L 1112.79,-56.8437
 L 1112.39,-56.5196 L 1111.96,-56.2392 L 1111.5,-56.0054 L 1111.02,-55.8208 L 1110.52,-55.6875 L 1110.01,-55.607
 L 1109.5,-55.58 z
M 937.752,-20.813 L 936.975,-21.122 L 936.279,-21.5858 L 935.695,-22.1841 L 935.248,-22.8908 L 934.958,-23.675
 L 934.833,-24.6641 L 934.833,-58 L 934.921,-58.8316 L 935.179,-59.627 L 935.597,-60.3511 L 936.157,-60.9726
 L 936.833,-61.4641 L 937.597,-61.8042 L 938.833,-62 L 1028.87,-62 L 1029.7,-61.9126 L 1030.5,-61.6542
 L 1031.22,-61.2361 L 1031.85,-60.6765 L 1032.34,-60 L 1032.68,-59.2361 L 1032.85,-58.4181 L 1032.85,-57.5819
 L 1032.68,-56.7639 L 1032.34,-56 L 1031.85,-55.3235 L 1031.22,-54.7639 L 1030.26,-54.2488 L 940.222,-20.9129
 L 939.412,-20.7062 L 938.576,-20.6724 z
M 361.255,-20.7062 L 360.445,-20.9129 L 270.405,-54.2488 L 269.443,-54.7639 L 268.821,-55.3235 L 268.33,-56
 L 267.99,-56.7639 L 267.816,-57.5819 L 267.816,-58.4181 L 267.99,-59.2361 L 268.33,-60 L 268.821,-60.6765
 L 269.443,-61.2361 L 270.167,-61.6542 L 270.962,-61.9126 L 271.794,-62 L 361.833,-62 L 363.069,-61.8042
 L 363.833,-61.4641 L 364.51,-60.9726 L 365.069,-60.3511 L 365.487,-59.627 L 365.746,-58.8316 L 365.833,-58
 L 365.833,-24.6641 L 365.709,-23.675 L 365.419,-22.8908 L 364.972,-22.1841 L 364.388,-21.5858 L 363.692,-21.122
 L 362.915,-20.813 L 362.09,-20.6724 z
M 177.588,-20.7062 L 176.778,-20.9129 L 86.7383,-54.2488 L 85.7759,-54.7639 L 85.1545,-55.3235 L 84.663,-56
 L 84.3228,-56.7639 L 84.149,-57.5819 L 84.149,-58.4181 L 84.3228,-59.2361 L 84.663,-60 L 85.1545,-60.6765
 L 85.7759,-61.2361 L 86.5001,-61.6542 L 87.2954,-61.9126 L 88.1271,-62 L 178.167,-62 L 179.403,-61.8042
 L 180.167,-61.4641 L 180.843,-60.9726 L 181.403,-60.3511 L 181.821,-59.627 L 182.079,-58.8316 L 182.167,-58
 L 182.167,-24.6641 L 182.042,-23.675 L 181.752,-22.8908 L 181.305,-22.1841 L 180.721,-21.5858 L 180.025,-21.122
 L 179.248,-20.813 L 178.424,-20.6724 z
M 544.921,-20.7062 L 544.111,-20.9129 L 454.072,-54.2488 L 453.109,-54.7639 L 452.488,-55.3235 L 451.996,-56
 L 451.656,-56.7639 L 451.482,-57.5819 L 451.482,-58.4181 L 451.656,-59.2361 L 451.996,-60 L 452.488,-60.6765
 L 453.109,-61.2361 L 453.833,-61.6542 L 454.629,-61.9126 L 455.46,-62 L 545.5,-62 L 546.736,-61.8042
 L 547.5,-61.4641 L 548.177,-60.9726 L 548.736,-60.3511 L 549.154,-59.627 L 549.413,-58.8316 L 549.5,-58
 L 549.5,-24.6641 L 549.376,-23.675 L 549.085,-22.8908 L 548.638,-22.1841 L 548.054,-21.5858 L 547.358,-21.122
 L 546.581,-20.813 L 545.757,-20.6724 z
M 570.419,-20.813 L 569.642,-21.122 L 568.946,-21.5858 L 568.362,-22.1841 L 567.915,-22.8908 L 567.624,-23.675
 L 567.5,-24.6641 L 567.5,-58 L 567.587,-58.8316 L 567.846,-59.627 L 568.264,-60.3511 L 568.823,-60.9726
 L 569.5,-61.4641 L 570.264,-61.8042 L 571.5,-62 L 661.54,-62 L 662.371,-61.9126 L 663.167,-61.6542
 L 663.891,-61.2361 L 664.512,-60.6765 L 665.004,-60 L 665.344,-59.2361 L 665.518,-58.4181 L 665.518,-57.5819
 L 665.344,-56.7639 L 665.004,-56 L 664.512,-55.3235 L 663.891,-54.7639 L 662.928,-54.2488 L 572.889,-20.9129
 L 572.079,-20.7062 L 571.243,-20.6724 z
M 754.085,-20.813 L 753.308,-21.122 L 752.612,-21.5858 L 752.028,-22.1841 L 751.581,-22.8908 L 751.291,-23.675
 L 751.167,-24.6641 L 751.167,-58 L 751.254,-58.8316 L 751.512,-59.627 L 751.931,-60.3511 L 752.49,-60.9726
 L 753.167,-61.4641 L 753.931,-61.8042 L 755.167,-62 L 845.206,-62 L 846.038,-61.9126 L 846.833,-61.6542
 L 847.557,-61.2361 L 848.179,-60.6765 L 848.67,-60 L 849.01,-59.2361 L 849.184,-58.4181 L 849.184,-57.5819
 L 849.01,-56.7639 L 848.67,-56 L 848.179,-55.3235 L 847.557,-54.7639 L 846.595,-54.2488 L 756.555,-20.9129
 L 755.745,-20.7062 L 754.91,-20.6724 z
M 204.167,-18 L 202.931,-18.1958 L 202.167,-18.5359 L 201.49,-19.0274 L 200.931,-19.6489 L 200.512,-20.373
 L 200.254,-21.1684 L 200.167,-22 L 200.167,-55.3359 L 200.291,-56.325 L 200.581,-57.1092 L 201.028,-57.8159
 L 201.612,-58.4142 L 202.308,-58.878 L 203.085,-59.187 L 203.91,-59.3276 L 204.745,-59.2938 L 205.555,-59.087
 L 295.595,-25.7512 L 296.557,-25.2361 L 297.179,-24.6765 L 297.67,-24 L 298.01,-23.2361 L 298.184,-22.4181
 L 298.184,-21.5819 L 298.01,-20.7639 L 297.67,-20 L 297.179,-19.3235 L 296.557,-18.7639 L 295.833,-18.3458
 L 295.038,-18.0874 L 294.206,-18 z
M 387.833,-18 L 386.597,-18.1958 L 385.833,-18.5359 L 385.157,-19.0274 L 384.597,-19.6489 L 384.179,-20.373
 L 383.921,-21.1684 L 383.833,-22 L 383.833,-55.3359 L 383.958,-56.325 L 384.248,-57.1092 L 384.695,-57.8159
 L 385.279,-58.4142 L 385.975,-58.878 L 386.752,-59.187 L 387.576,-59.3276 L 388.412,-59.2938 L 389.222,-59.087
 L 479.262,-25.7512 L 480.224,-25.2361 L 480.845,-24.6765 L 481.337,-24 L 481.677,-23.2361 L 481.851,-22.4181
 L 481.851,-21.5819 L 481.677,-20.7639 L 481.337,-20 L 480.845,-19.3235 L 480.224,-18.7639 L 479.5,-18.3458
 L 478.705,-18.0874 L 477.873,-18 z
M 639.127,-18 L 638.295,-18.0874 L 637.5,-18.3458 L 636.776,-18.7639 L 636.155,-19.3235 L 635.663,-20
 L 635.323,-20.7639 L 635.149,-21.5819 L 635.149,-22.4181 L 635.323,-23.2361 L 635.663,-24 L 636.155,-24.6765
 L 636.776,-25.2361 L 637.738,-25.7512 L 727.778,-59.087 L 728.588,-59.2938 L 729.424,-59.3276 L 730.248,-59.187
 L 731.025,-58.878 L 731.721,-58.4142 L 732.305,-57.8159 L 732.752,-57.1092 L 733.042,-56.325 L 733.167,-55.3359
 L 733.167,-22 L 733.079,-21.1684 L 732.821,-20.373 L 732.403,-19.6489 L 731.843,-19.0274 L 731.167,-18.5359
 L 730.403,-18.1958 L 729.167,-18 z
M 822.794,-18 L 821.962,-18.0874 L 821.167,-18.3458 L 820.443,-18.7639 L 819.821,-19.3235 L 819.33,-20
 L 818.99,-20.7639 L 818.816,-21.5819 L 818.816,-22.4181 L 818.99,-23.2361 L 819.33,-24 L 819.821,-24.6765
 L 820.443,-25.2361 L 821.405,-25.7512 L 911.445,-59.087 L 912.255,-59.2938 L 913.09,-59.3276 L 913.915,-59.187
 L 914.692,-58.878 L 915.388,-58.4142 L 915.972,-57.8159 L 916.419,-57.1092 L 916.709,-56.325 L 916.833,-55.3359
 L 916.833,-22 L 916.746,-21.1684 L 916.488,-20.373 L 916.069,-19.6489 L 915.51,-19.0274 L 914.833,-18.5359
 L 914.069,-18.1958 L 912.833,-18 z
M 1006.46,-18 L 1005.63,-18.0874 L 1004.83,-18.3458 L 1004.11,-18.7639 L 1003.49,-19.3235 L 1003,-20
 L 1002.66,-20.7639 L 1002.48,-21.5819 L 1002.48,-22.4181 L 1002.66,-23.2361 L 1003,-24 L 1003.49,-24.6765
 L 1004.11,-25.2361 L 1005.07,-25.7512 L 1093.61,-58.5317 L 1094.42,-58.7384 L 1095.26,-58.7722 L 1096.08,-58.6316
 L 1096.86,-58.3226 L 1097.55,-57.8588 L 1098.14,-57.2605 L 1098.59,-56.5538 L 1098.88,-55.7696 L 1099,-54.7805
 L 1099,-22 L 1098.91,-21.1684 L 1098.65,-20.373 L 1098.24,-19.6489 L 1097.68,-19.0274 L 1097,-18.5359
 L 1096.24,-18.1958 L 1095,-18 z
M 22,-18 L 20.7639,-18.1958 L 20,-18.5359 L 19.3235,-19.0274 L 18.7639,-19.6489 L 18.3458,-20.373
 L 18.0874,-21.1684 L 18,-22 L 18,-54.7805 L 18.1242,-55.7696 L 18.4146,-56.5538 L 18.8616,-57.2605
 L 19.4458,-57.8588 L 20.1416,-58.3226 L 20.9187,-58.6316 L 21.743,-58.7722 L 22.5786,-58.7384 L 23.3888,-58.5317
 L 111.928,-25.7512 L 112.891,-25.2361 L 113.512,-24.6765 L 114.004,-24 L 114.344,-23.2361 L 114.518,-22.4181
 L 114.518,-21.5819 L 114.344,-20.7639 L 114.004,-20 L 113.512,-19.3235 L 112.891,-18.7639 L 112.167,-18.3458
 L 111.371,-18.0874 L 110.54,-18 z
" stroke="black" fill="lightgray" stroke-width="0.5"/>
</svg>
