<?xml version="1.0" standalone="no"?>
<!DOCTYPE svg PUBLIC "-//W3C//DTD SVG 1.1//EN" "http://www.w3.org/Graphics/SVG/1.1/DTD/svg11.dtd">
<svg width="1073mm" height="80mm" viewBox="0 -80 1073 80" xmlns="http://www.w3.org/2000/svg" version="1.1">
<title>OpenSCAD Model</title>
<path d="
M 1073,-80 L 0,-80 L 0,-0 L 4.95,-0 L 4.95,-6 L 5.00572,-6.53017
 L 5.17046,-7.03717 L 5.437,-7.49884 L 5.79372,-7.895 L 6.22499,-8.20836 L 6.71201,-8.42519 L 7.23344,-8.53603
 L 7.76654,-8.53603 L 8.28798,-8.42519 L 8.77499,-8.20836 L 9.20627,-7.895 L 9.56299,-7.49884 L 9.82953,-7.03717
 L 9.99426,-6.53017 L 10.05,-6 L 10.05,-0 L 181.283,-0 L 181.283,-6 L 181.339,-6.53017
 L 181.504,-7.03717 L 181.77,-7.49884 L 182.127,-7.895 L 182.558,-8.20836 L 183.045,-8.42519 L 183.567,-8.53603
 L 184.1,-8.53603 L 184.621,-8.42519 L 185.108,-8.20836 L 185.54,-7.895 L 185.896,-7.49884 L 186.163,-7.03717
 L 186.328,-6.53017 L 186.383,-6 L 186.383,-0 L 357.617,-0 L 357.617,-6 L 357.672,-6.53017
 L 357.837,-7.03717 L 358.104,-7.49884 L 358.46,-7.895 L 358.892,-8.20836 L 359.379,-8.42519 L 359.9,-8.53603
 L 360.433,-8.53603 L 360.955,-8.42519 L 361.442,-8.20836 L 361.873,-7.895 L 362.23,-7.49884 L 362.496,-7.03717
 L 362.661,-6.53017 L 362.717,-6 L 362.717,-0 L 533.95,-0 L 533.95,-6 L 534.006,-6.53017
 L 534.17,-7.03717 L 534.437,-7.49884 L 534.794,-7.895 L 535.225,-8.20836 L 535.712,-8.42519 L 536.233,-8.53603
 L 536.767,-8.53603 L 537.288,-8.42519 L 537.775,-8.20836 L 538.206,-7.895 L 538.563,-7.49884 L 538.83,-7.03717
 L 538.994,-6.53017 L 539.05,-6 L 539.05,-0 L 710.283,-0 L 710.283,-6 L 710.339,-6.53017
 L 710.504,-7.03717 L 710.77,-7.49884 L 711.127,-7.895 L 711.558,-8.20836 L 712.045,-8.42519 L 712.567,-8.53603
 L 713.1,-8.53603 L 713.621,-8.42519 L 714.108,-8.20836 L 714.54,-7.895 L 714.896,-7.49884 L 715.163,-7.03717
 L 715.328,-6.53017 L 715.383,-6 L 715.383,-0 L 886.617,-0 L 886.617,-6 L 886.672,-6.53017
 L 886.837,-7.03717 L 887.104,-7.49884 L 887.46,-7.895 L 887.892,-8.20836 L 888.379,-8.42519 L 888.9,-8.53603
 L 889.433,-8.53603 L 889.955,-8.42519 L 890.442,-8.20836 L 890.873,-7.895 L 891.23,-7.49884 L 891.496,-7.03717
 L 891.661,-6.53017 L 891.717,-6 L 891.717,-0 L 1062.95,-0 L 1062.95,-6 L 1063.01,-6.53017
 L 1063.17,-7.03717 L 1063.44,-7.49884 L 1063.79,-7.895 L 1064.22,-8.20836 L 1064.71,-8.42519 L 1065.23,-8.53603
 L 1065.77,-8.53603 L 1066.29,-8.42519 L 1066.77,-8.20836 L 1067.21,-7.895 L 1067.56,-7.49884 L 1067.83,-7.03717
 L 1067.99,-6.53017 L 1068.05,-6 L 1068.05,-0 L 1073,-0 z
M 6.98573,-55.607 L 6.47708,-55.6875 L 5.97964,-55.8208 L 5.49887,-56.0054 L 5.04001,-56.2392 L 4.60811,-56.5196
 L 4.20789,-56.8437 L 3.84373,-57.2079 L 3.51964,-57.6081 L 3.23917,-58.04 L 3.00537,-58.4989 L 2.82082,-58.9796
 L 2.68752,-59.4771 L 2.60696,-59.9857 L 2.58,-60.5 L 2.60696,-61.0143 L 2.68752,-61.5229 L 2.82082,-62.0204
 L 3.00537,-62.5011 L 3.23917,-62.96 L 3.51964,-63.3919 L 3.84373,-63.7921 L 4.20789,-64.1563 L 4.60811,-64.4804
 L 4.95001,-64.7024 L 4.95001,-74 L 5.00574,-74.5302 L 5.17047,-75.0372 L 5.43701,-75.4988 L 5.79373,-75.895
 L 6.22501,-76.2084 L 6.71202,-76.4252 L 7.23346,-76.536 L 7.76654,-76.536 L 8.28798,-76.4252 L 8.77499,-76.2084
 L 9.20627,-75.895 L 9.56299,-75.4988 L 9.82953,-75.0372 L 9.99426,-74.5302 L 10.05,-74 L 10.05,-64.7024
 L 10.3919,-64.4804 L 10.7921,-64.1563 L 11.1563,-63.7921 L 11.4804,-63.3919 L 11.7608,-62.96 L 11.9946,-62.5011
 L 12.1792,-62.0204 L 12.3125,-61.5229 L 12.393,-61.0143 L 12.42,-60.5 L 12.393,-59.9857 L 12.3125,-59.4771
 L 12.1792,-58.9796 L 11.9946,-58.4989 L 11.7608,-58.04 L 11.4804,-57.6081 L 11.1563,-57.2079 L 10.7921,-56.8437
 L 10.3919,-56.5196 L 9.95999,-56.2392 L 9.50113,-56.0054 L 9.02036,-55.8208 L 8.52292,-55.6875 L 8.01427,-55.607
 L 7.5,-55.58 z
M 183.319,-55.607 L 182.81,-55.6875 L 182.313,-55.8208 L 181.832,-56.0054 L 181.373,-56.2392 L 180.941,-56.5196
 L 180.541,-56.8437 L 180.177,-57.2079 L 179.853,-57.6081 L 179.572,-58.04 L 179.339,-58.4989 L 179.154,-58.9796
 L 179.021,-59.4771 L 178.94,-59.9857 L 178.913,-60.5 L 178.94,-61.0143 L 179.021,-61.5229 L 179.154,-62.0204
 L 179.339,-62.5011 L 179.572,-62.96 L 179.853,-63.3919 L 180.177,-63.7921 L 180.541,-64.1563 L 180.941,-64.4804
 L 181.283,-64.7024 L 181.283,-74 L 181.339,-74.5302 L 181.504,-75.0372 L 181.77,-75.4988 L 182.127,-75.895
 L 182.558,-76.2084 L 183.045,-76.4252 L 183.567,-76.536 L 184.1,-76.536 L 184.621,-76.4252 L 185.108,-76.2084
 L 185.54,-75.895 L 185.896,-75.4988 L 186.163,-75.0372 L 186.328,-74.5302 L 186.383,-74 L 186.383,-64.7024
 L 186.725,-64.4804 L 187.125,-64.1563 L 187.49,-63.7921 L 187.814,-63.3919 L 188.094,-62.96 L 188.328,-62.5011
 L 188.513,-62.0204 L 188.646,-61.5229 L 188.726,-61.0143 L 188.753,-60.5 L 188.726,-59.9857 L 188.646,-59.4771
 L 188.513,-58.9796 L 188.328,-58.4989 L 188.094,-58.04 L 187.814,-57.6081 L 187.49,-57.2079 L 187.125,-56.8437
 L 186.725,-56.5196 L 186.293,-56.2392 L 185.834,-56.0054 L 185.354,-55.8208 L 184.856,-55.6875 L 184.348,-55.607
 L 183.833,-55.58 z
M 359.652,-55.607 L 359.144,-55.6875 L 358.646,-55.8208 L 358.166,-56.0054 L 357.707,-56.2392 L 357.275,-56.5196
 L 356.875,-56.8437 L 356.51,-57.2079 L 356.186,-57.6081 L 355.906,-58.04 L 355.672,-58.4989 L 355.487,-58.9796
 L 355.354,-59.4771 L 355.274,-59.9857 L 355.247,-60.5 L 355.274,-61.0143 L 355.354,-61.5229 L 355.487,-62.0204
 L 355.672,-62.5011 L 355.906,-62.96 L 356.186,-63.3919 L 356.51,-63.7921 L 356.875,-64.1563 L 357.275,-64.4804
 L 357.617,-64.7024 L 357.617,-74 L 357.672,-74.5302 L 357.837,-75.0372 L 358.104,-75.4988 L 358.46,-75.895
 L 358.892,-76.2084 L 359.379,-76.4252 L 359.9,-76.536 L 360.433,-76.536 L 360.955,-76.4252 L 361.442,-76.2084
 L 361.873,-75.895 L 362.23,-75.4988 L 362.496,-75.0372 L 362.661,-74.5302 L 362.717,-74 L 362.717,-64.7024
 L 363.059,-64.4804 L 363.459,-64.1563 L 363.823,-63.7921 L 364.147,-63.3919 L 364.427,-62.96 L 364.661,-62.5011
 L 364.846,-62.0204 L 364.979,-61.5229 L 365.06,-61.0143 L 365.087,-60.5 L 365.06,-59.9857 L 364.979,-59.4771
 L 364.846,-58.9796 L 364.661,-58.4989 L 364.427,-58.04 L 364.147,-57.6081 L 363.823,-57.2079 L 363.459,-56.8437
 L 363.059,-56.5196 L 362.627,-56.2392 L 362.168,-56.0054 L 361.687,-55.8208 L 361.19,-55.6875 L 360.681,-55.607
 L 360.167,-55.58 z
M 535.986,-55.607 L 535.477,-55.6875 L 534.98,-55.8208 L 534.499,-56.0054 L 534.04,-56.2392 L 533.608,-56.5196
 L 533.208,-56.8437 L 532.844,-57.2079 L 532.52,-57.6081 L 532.239,-58.04 L 532.005,-58.4989 L 531.821,-58.9796
 L 531.688,-59.4771 L 531.607,-59.9857 L 531.58,-60.5 L 531.607,-61.0143 L 531.688,-61.5229 L 531.821,-62.0204
 L 532.005,-62.5011 L 532.239,-62.96 L 532.52,-63.3919 L 532.844,-63.7921 L 533.208,-64.1563 L 533.608,-64.4804
 L 533.95,-64.7024 L 533.95,-74 L 534.006,-74.5302 L 534.17,-75.0372 L 534.437,-75.4988 L 534.794,-75.895
 L 535.225,-76.2084 L 535.712,-76.4252 L 536.233,-76.536 L 536.767,-76.536 L 537.288,-76.4252 L 537.775,-76.2084
 L 538.206,-75.895 L 538.563,-75.4988 L 538.83,-75.0372 L 538.994,-74.5302 L 539.05,-74 L 539.05,-64.7024
 L 539.392,-64.4804 L 539.792,-64.1563 L 540.156,-63.7921 L 540.48,-63.3919 L 540.761,-62.96 L 540.995,-62.5011
 L 541.179,-62.0204 L 541.312,-61.5229 L 541.393,-61.0143 L 541.42,-60.5 L 541.393,-59.9857 L 541.312,-59.4771
 L 541.179,-58.9796 L 540.995,-58.4989 L 540.761,-58.04 L 540.48,-57.6081 L 540.156,-57.2079 L 539.792,-56.8437
 L 539.392,-56.5196 L 538.96,-56.2392 L 538.501,-56.0054 L 538.02,-55.8208 L 537.523,-55.6875 L 537.014,-55.607
 L 536.5,-55.58 z
M 712.319,-55.607 L 711.81,-55.6875 L 711.313,-55.8208 L 710.832,-56.0054 L 710.373,-56.2392 L 709.941,-56.5196
 L 709.541,-56.8437 L 709.177,-57.2079 L 708.853,-57.6081 L 708.572,-58.04 L 708.339,-58.4989 L 708.154,-58.9796
 L 708.021,-59.4771 L 707.94,-59.9857 L 707.913,-60.5 L 707.94,-61.0143 L 708.021,-61.5229 L 708.154,-62.0204
 L 708.339,-62.5011 L 708.572,-62.96 L 708.853,-63.3919 L 709.177,-63.7921 L 709.541,-64.1563 L 709.941,-64.4804
 L 710.283,-64.7024 L 710.283,-74 L 710.339,-74.5302 L 710.504,-75.0372 L 710.77,-75.4988 L 711.127,-75.895
 L 711.558,-76.2084 L 712.045,-76.4252 L 712.567,-76.536 L 713.1,-76.536 L 713.621,-76.4252 L 714.108,-76.2084
 L 714.54,-75.895 L 714.896,-75.4988 L 715.163,-75.0372 L 715.328,-74.5302 L 715.383,-74 L 715.383,-64.7024
 L 715.725,-64.4804 L 716.125,-64.1563 L 716.49,-63.7921 L 716.814,-63.3919 L 717.094,-62.96 L 717.328,-62.5011
 L 717.513,-62.0204 L 717.646,-61.5229 L 717.726,-61.0143 L 717.753,-60.5 L 717.726,-59.9857 L 717.646,-59.4771
 L 717.513,-58.9796 L 717.328,-58.4989 L 717.094,-58.04 L 716.814,-57.6081 L 716.49,-57.2079 L 716.125,-56.8437
 L 715.725,-56.5196 L 715.293,-56.2392 L 714.834,-56.0054 L 714.354,-55.8208 L 713.856,-55.6875 L 713.348,-55.607
 L 712.833,-55.58 z
M 888.652,-55.607 L 888.144,-55.6875 L 887.646,-55.8208 L 887.166,-56.0054 L 886.707,-56.2392 L 886.275,-56.5196
 L 885.875,-56.8437 L 885.51,-57.2079 L 885.186,-57.6081 L 884.906,-58.04 L 884.672,-58.4989 L 884.487,-58.9796
 L 884.354,-59.4771 L 884.274,-59.9857 L 884.247,-60.5 L 884.274,-61.0143 L 884.354,-61.5229 L 884.487,-62.0204
 L 884.672,-62.5011 L 884.906,-62.96 L 885.186,-63.3919 L 885.51,-63.7921 L 885.875,-64.1563 L 886.275,-64.4804
 L 886.617,-64.7024 L 886.617,-74 L 886.672,-74.5302 L 886.837,-75.0372 L 887.104,-75.4988 L 887.46,-75.895
 L 887.892,-76.2084 L 888.379,-76.4252 L 888.9,-76.536 L 889.433,-76.536 L 889.955,-76.4252 L 890.442,-76.2084
 L 890.873,-75.895 L 891.23,-75.4988 L 891.496,-75.0372 L 891.661,-74.5302 L 891.717,-74 L 891.717,-64.7024
 L 892.059,-64.4804 L 892.459,-64.1563 L 892.823,-63.7921 L 893.147,-63.3919 L 893.427,-62.96 L 893.661,-62.5011
 L 893.846,-62.0204 L 893.979,-61.5229 L 894.06,-61.0143 L 894.087,-60.5 L 894.06,-59.9857 L 893.979,-59.4771
 L 893.846,-58.9796 L 893.661,-58.4989 L 893.427,-58.04 L 893.147,-57.6081 L 892.823,-57.2079 L 892.459,-56.8437
 L 892.059,-56.5196 L 891.627,-56.2392 L 891.168,-56.0054 L 890.687,-55.8208 L 890.19,-55.6875 L 889.681,-55.607
 L 889.167,-55.58 z
M 1064.99,-55.607 L 1064.48,-55.6875 L 1063.98,-55.8208 L 1063.5,-56.0054 L 1063.04,-56.2392 L 1062.61,-56.5196
 L 1062.21,-56.8437 L 1061.84,-57.2079 L 1061.52,-57.6081 L 1061.24,-58.04 L 1061.01,-58.4989 L 1060.82,-58.9796
 L 1060.69,-59.4771 L 1060.61,-59.9857 L 1060.58,-60.5 L 1060.61,-61.0143 L 1060.69,-61.5229 L 1060.82,-62.0204
 L 1061.01,-62.5011 L 1061.24,-62.96 L 1061.52,-63.3919 L 1061.84,-63.7921 L 1062.21,-64.1563 L 1062.61,-64.4804
 L 1062.95,-64.7024 L 1062.95,-74 L 1063.01,-74.5302 L 1063.17,-75.0372 L 1063.44,-75.4988 L 1063.79,-75.895
 L 1064.23,-76.2084 L 1064.71,-76.4252 L 1065.23,-76.536 L 1065.77,-76.536 L 1066.29,-76.4252 L 1066.77,-76.2084
 L 1067.21,-75.895 L 1067.56,-75.4988 L 1067.83,-75.0372 L 1067.99,-74.5302 L 1068.05,-74 L 1068.05,-64.7024
 L 1068.39,-64.4804 L 1068.79,-64.1563 L 1069.16,-63.7921 L 1069.48,-63.3919 L 1069.76,-62.96 L 1069.99,-62.5011
 L 1070.18,-62.0204 L 1070.31,-61.5229 L 1070.39,-61.0143 L 1070.42,-60.5 L 1070.39,-59.9857 L 1070.31,-59.4771
 L 1070.18,-58.9796 L 1069.99,-58.4989 L 1069.76,-58.04 L 1069.48,-57.6081 L 1069.16,-57.2079 L 1068.79,-56.8437
 L 1068.39,-56.5196 L 1067.96,-56.2392 L 1067.5,-56.0054 L 1067.02,-55.8208 L 1066.52,-55.6875 L 1066.01,-55.607
 L 1065.5,-55.58 z
M 901.137,-21.0631 L 900.356,-21.3616 L 899.654,-21.8159 L 899.062,-22.4063 L 898.605,-23.1069 L 898.305,-23.8871
 L 898.167,-24.9284 L 898.167,-58 L 898.254,-58.8316 L 898.512,-59.627 L 898.931,-60.3511 L 899.49,-60.9726
 L 900.167,-61.4641 L 900.931,-61.8042 L 902.167,-62 L 987.926,-62 L 988.758,-61.9126 L 989.553,-61.6542
 L 990.277,-61.2361 L 990.898,-60.6765 L 991.39,-60 L 991.73,-59.2361 L 991.904,-58.4181 L 991.904,-57.5819
 L 991.73,-56.7639 L 991.39,-56 L 990.898,-55.3235 L 990.277,-54.7639 L 989.365,-54.2679 L 903.606,-21.1963
 L 902.798,-20.9786 L 901.963,-20.9335 z
M 346.535,-20.9786 L 345.727,-21.1963 L 259.968,-54.2679 L 259.056,-54.7639 L 258.435,-55.3235 L 257.943,-56
 L 257.603,-56.7639 L 257.429,-57.5819 L 257.429,-58.4181 L 257.603,-59.2361 L 257.943,-60 L 258.435,-60.6765
 L 259.056,-61.2361 L 259.78,-61.6542 L 260.576,-61.9126 L 261.407,-62 L 347.167,-62 L 348.403,-61.8042
 L 349.167,-61.4641 L 349.843,-60.9726 L 350.403,-60.3511 L 350.821,-59.627 L 351.079,-58.8316 L 351.167,-58
 L 351.167,-24.9284 L 351.029,-23.8871 L 350.728,-23.1069 L 350.271,-22.4063 L 349.679,-21.8159 L 348.977,-21.3616
 L 348.196,-21.0631 L 347.37,-20.9335 z
M 170.202,-20.9786 L 169.394,-21.1963 L 83.6349,-54.2679 L 82.7229,-54.7639 L 82.1015,-55.3235 L 81.61,-56
 L 81.2699,-56.7639 L 81.096,-57.5819 L 81.096,-58.4181 L 81.2699,-59.2361 L 81.61,-60 L 82.1015,-60.6765
 L 82.7229,-61.2361 L 83.4471,-61.6542 L 84.2424,-61.9126 L 85.0741,-62 L 170.833,-62 L 172.069,-61.8042
 L 172.833,-61.4641 L 173.51,-60.9726 L 174.069,-60.3511 L 174.488,-59.627 L 174.746,-58.8316 L 174.833,-58
 L 174.833,-24.9284 L 174.695,-23.8871 L 174.395,-23.1069 L 173.938,-22.4063 L 173.346,-21.8159 L 172.644,-21.3616
 L 171.863,-21.0631 L 171.037,-20.9335 z
M 522.868,-20.9786 L 522.061,-21.1963 L 436.302,-54.2679 L 435.39,-54.7639 L 434.768,-55.3235 L 434.277,-56
 L 433.937,-56.7639 L 433.763,-57.5819 L 433.763,-58.4181 L 433.937,-59.2361 L 434.277,-60 L 434.768,-60.6765
 L 435.39,-61.2361 L 436.114,-61.6542 L 436.909,-61.9126 L 437.741,-62 L 523.5,-62 L 524.736,-61.8042
 L 525.5,-61.4641 L 526.177,-60.9726 L 526.736,-60.3511 L 527.154,-59.627 L 527.413,-58.8316 L 527.5,-58
 L 527.5,-24.9284 L 527.362,-23.8871 L 527.061,-23.1069 L 526.605,-22.4063 L 526.012,-21.8159 L 525.31,-21.3616
 L 524.529,-21.0631 L 523.703,-20.9335 z
M 548.471,-21.0631 L 547.69,-21.3616 L 546.988,-21.8159 L 546.395,-22.4063 L 545.939,-23.1069 L 545.638,-23.8871
 L 545.5,-24.9284 L 545.5,-58 L 545.587,-58.8316 L 545.846,-59.627 L 546.264,-60.3511 L 546.823,-60.9726
 L 547.5,-61.4641 L 548.264,-61.8042 L 549.5,-62 L 635.259,-62 L 636.091,-61.9126 L 636.886,-61.6542
 L 637.61,-61.2361 L 638.232,-60.6765 L 638.723,-60 L 639.063,-59.2361 L 639.237,-58.4181 L 639.237,-57.5819
 L 639.063,-56.7639 L 638.723,-56 L 638.232,-55.3235 L 637.61,-54.7639 L 636.698,-54.2679 L 550.939,-21.1963
 L 550.132,-20.9786 L 549.297,-20.9335 z
M 724.804,-21.0631 L 724.023,-21.3616 L 723.321,-21.8159 L 722.729,-22.4063 L 722.272,-23.1069 L 721.971,-23.8871
 L 721.833,-24.9284 L 721.833,-58 L 721.921,-58.8316 L 722.179,-59.627 L 722.597,-60.3511 L 723.157,-60.9726
 L 723.833,-61.4641 L 724.597,-61.8042 L 725.833,-62 L 811.593,-62 L 812.424,-61.9126 L 813.22,-61.6542
 L 813.944,-61.2361 L 814.565,-60.6765 L 815.057,-60 L 815.397,-59.2361 L 815.571,-58.4181 L 815.571,-57.5819
 L 815.397,-56.7639 L 815.057,-56 L 814.565,-55.3235 L 813.944,-54.7639 L 813.032,-54.2679 L 727.273,-21.1963
 L 726.465,-20.9786 L 725.63,-20.9335 z
M 196.833,-18 L 195.597,-18.1958 L 194.833,-18.5359 L 194.157,-19.0274 L 193.597,-19.6489 L 193.179,-20.373
 L 192.921,-21.1684 L 192.833,-22 L 192.833,-55.0716 L 192.971,-56.1128 L 193.272,-56.8931 L 193.729,-57.5937
 L 194.321,-58.1841 L 195.023,-58.6384 L 195.804,-58.9369 L 196.63,-59.0665 L 197.465,-59.0214 L 198.273,-58.8037
 L 284.032,-25.7321 L 284.944,-25.2361 L 285.565,-24.6765 L 286.057,-24 L 286.397,-23.2361 L 286.571,-22.4181
 L 286.571,-21.5819 L 286.397,-20.7639 L 286.057,-20 L 285.565,-19.3235 L 284.944,-18.7639 L 284.22,-18.3458
 L 283.424,-18.0874 L 282.593,-18 z
M 373.167,-18 L 371.931,-18.1958 L 371.167,-18.5359 L 370.49,-19.0274 L 369.931,-19.6489 L 369.512,-20.373
 L 369.254,-21.1684 L 369.167,-22 L 369.167,-55.0716 L 369.305,-56.1128 L 369.605,-56.8931 L 370.062,-57.5937
 L 370.654,-58.1841 L 371.356,-58.6384 L 372.137,-58.9369 L 372.963,-59.0665 L 373.798,-59.0214 L 374.606,-58.8037
 L 460.365,-25.7321 L 461.277,-25.2361 L 461.898,-24.6765 L 462.39,-24 L 462.73,-23.2361 L 462.904,-22.4181
 L 462.904,-21.5819 L 462.73,-20.7639 L 462.39,-20 L 461.898,-19.3235 L 461.277,-18.7639 L 460.553,-18.3458
 L 459.758,-18.0874 L 458.926,-18 z
M 614.074,-18 L 613.242,-18.0874 L 612.447,-18.3458 L 611.723,-18.7639 L 611.102,-19.3235 L 610.61,-20
 L 610.27,-20.7639 L 610.096,-21.5819 L 610.096,-22.4181 L 610.27,-23.2361 L 610.61,-24 L 611.102,-24.6765
 L 611.723,-25.2361 L 612.635,-25.7321 L 698.394,-58.8037 L 699.202,-59.0214 L 700.037,-59.0665 L 700.863,-58.9369
 L 701.644,-58.6384 L 702.346,-58.1841 L 702.938,-57.5937 L 703.395,-56.8931 L 703.695,-56.1128 L 703.833,-55.0716
 L 703.833,-22 L 703.746,-21.1684 L 703.488,-20.373 L 703.069,-19.6489 L 702.51,-19.0274 L 701.833,-18.5359
 L 701.069,-18.1958 L 699.833,-18 z
M 790.407,-18 L 789.576,-18.0874 L 788.78,-18.3458 L 788.056,-18.7639 L 787.435,-19.3235 L 786.943,-20
 L 786.603,-20.7639 L 786.429,-21.5819 L 786.429,-22.4181 L 786.603,-23.2361 L 786.943,-24 L 787.435,-24.6765
 L 788.056,-25.2361 L 788.968,-25.7321 L 874.727,-58.8037 L 875.535,-59.0214 L 876.37,-59.0665 L 877.196,-58.9369
 L 877.977,-58.6384 L 878.679,-58.1841 L 879.271,-57.5937 L 879.728,-56.8931 L 880.029,-56.1128 L 880.167,-55.0716
 L 880.167,-22 L 880.079,-21.1684 L 879.821,-20.373 L 879.403,-19.6489 L 878.843,-19.0274 L 878.167,-18.5359
 L 877.403,-18.1958 L 876.167,-18 z
M 966.741,-18 L 965.909,-18.0874 L 965.114,-18.3458 L 964.39,-18.7639 L 963.768,-19.3235 L 963.277,-20
 L 962.937,-20.7639 L 962.763,-21.5819 L 962.763,-22.4181 L 962.937,-23.2361 L 963.277,-24 L 963.768,-24.6765
 L 964.39,-25.2361 L 965.302,-25.7321 L 1049.56,-58.2253 L 1050.37,-58.4429 L 1051.2,-58.488 L 1052.03,-58.3585
 L 1052.81,-58.06 L 1053.51,-57.6056 L 1054.1,-57.0152 L 1054.56,-56.3146 L 1054.86,-55.5344 L 1055,-54.4932
 L 1055,-22 L 1054.91,-21.1684 L 1054.65,-20.373 L 1054.24,-19.6489 L 1053.68,-19.0274 L 1053,-18.5359
 L 1052.24,-18.1958 L 1051,-18 z
M 22,-18 L 20.7639,-18.1958 L 20,-18.5359 L 19.3235,-19.0274 L 18.7639,-19.6489 L 18.3458,-20.373
 L 18.0874,-21.1684 L 18,-22 L 18,-54.4932 L 18.1379,-55.5344 L 18.4388,-56.3146 L 18.8953,-57.0152
 L 19.4875,-57.6056 L 20.1895,-58.06 L 20.9707,-58.3585 L 21.7968,-58.488 L 22.6318,-58.4429 L 23.4392,-58.2253
 L 107.698,-25.7321 L 108.61,-25.2361 L 109.232,-24.6765 L 109.723,-24 L 110.063,-23.2361 L 110.237,-22.4181
 L 110.237,-21.5819 L 110.063,-20.7639 L 109.723,-20 L 109.232,-19.3235 L 108.61,-18.7639 L 107.886,-18.3458
 L 107.091,-18.0874 L 106.259,-18 z
" stroke="black" fill="lightgray" stroke-width="0.5"/>
</svg>
