<?xml version="1.0" standalone="no"?>
<!DOCTYPE svg PUBLIC "-//W3C//DTD SVG 1.1//EN" "http://www.w3.org/Graphics/SVG/1.1/DTD/svg11.dtd">
<svg width="1449mm" height="80mm" viewBox="0 -80 1449 80" xmlns="http://www.w3.org/2000/svg" version="1.1">
<title>OpenSCAD Model</title>
<path d="
M 1449,-80 L 0,-80 L 0,-0 L 4.95,-0 L 4.95,-6 L 5.00572,-6.53017
 L 5.17046,-7.03717 L 5.437,-7.49884 L 5.79372,-7.895 L 6.22499,-8.20836 L 6.71201,-8.42519 L 7.23344,-8.53603
 L 7.76654,-8.53603 L 8.28798,-8.42519 L 8.77499,-8.20836 L 9.20627,-7.895 L 9.56299,-7.49884 L 9.82953,-7.03717
 L 9.99426,-6.53017 L 10.05,-6 L 10.05,-0 L 184.2,-0 L 184.2,-6 L 184.256,-6.53017
 L 184.42,-7.03717 L 184.687,-7.49884 L 185.044,-7.895 L 185.475,-8.20836 L 185.962,-8.42519 L 186.483,-8.53603
 L 187.017,-8.53603 L 187.538,-8.42519 L 188.025,-8.20836 L 188.456,-7.895 L 188.813,-7.49884 L 189.08,-7.03717
 L 189.244,-6.53017 L 189.3,-6 L 189.3,-0 L 363.45,-0 L 363.45,-6 L 363.506,-6.53017
 L 363.67,-7.03717 L 363.937,-7.49884 L 364.294,-7.895 L 364.725,-8.20836 L 365.212,-8.42519 L 365.733,-8.53603
 L 366.267,-8.53603 L 366.788,-8.42519 L 367.275,-8.20836 L 367.706,-7.895 L 368.063,-7.49884 L 368.33,-7.03717
 L 368.494,-6.53017 L 368.55,-6 L 368.55,-0 L 542.7,-0 L 542.7,-6 L 542.756,-6.53017
 L 542.92,-7.03717 L 543.187,-7.49884 L 543.544,-7.895 L 543.975,-8.20836 L 544.462,-8.42519 L 544.983,-8.53603
 L 545.517,-8.53603 L 546.038,-8.42519 L 546.525,-8.20836 L 546.956,-7.895 L 547.313,-7.49884 L 547.58,-7.03717
 L 547.744,-6.53017 L 547.8,-6 L 547.8,-0 L 721.95,-0 L 721.95,-6 L 722.006,-6.53017
 L 722.17,-7.03717 L 722.437,-7.49884 L 722.794,-7.895 L 723.225,-8.20836 L 723.712,-8.42519 L 724.233,-8.53603
 L 724.767,-8.53603 L 725.288,-8.42519 L 725.775,-8.20836 L 726.206,-7.895 L 726.563,-7.49884 L 726.83,-7.03717
 L 726.994,-6.53017 L 727.05,-6 L 727.05,-0 L 901.2,-0 L 901.2,-6 L 901.256,-6.53017
 L 901.42,-7.03717 L 901.687,-7.49884 L 902.044,-7.895 L 902.475,-8.20836 L 902.962,-8.42519 L 903.483,-8.53603
 L 904.017,-8.53603 L 904.538,-8.42519 L 905.025,-8.20836 L 905.456,-7.895 L 905.813,-7.49884 L 906.08,-7.03717
 L 906.244,-6.53017 L 906.3,-6 L 906.3,-0 L 1080.45,-0 L 1080.45,-6 L 1080.51,-6.53017
 L 1080.67,-7.03717 L 1080.94,-7.49884 L 1081.29,-7.895 L 1081.72,-8.20836 L 1082.21,-8.42519 L 1082.73,-8.53603
 L 1083.27,-8.53603 L 1083.79,-8.42519 L 1084.27,-8.20836 L 1084.71,-7.895 L 1085.06,-7.49884 L 1085.33,-7.03717
 L 1085.49,-6.53017 L 1085.55,-6 L 1085.55,-0 L 1259.7,-0 L 1259.7,-6 L 1259.76,-6.53017
 L 1259.92,-7.03717 L 1260.19,-7.49884 L 1260.54,-7.895 L 1260.97,-8.20836 L 1261.46,-8.42519 L 1261.98,-8.53603
 L 1262.52,-8.53603 L 1263.04,-8.42519 L 1263.52,-8.20836 L 1263.96,-7.895 L 1264.31,-7.49884 L 1264.58,-7.03717
 L 1264.74,-6.53017 L 1264.8,-6 L 1264.8,-0 L 1438.95,-0 L 1438.95,-6 L 1439.01,-6.53017
 L 1439.17,-7.03717 L 1439.44,-7.49884 L 1439.79,-7.895 L 1440.22,-8.20836 L 1440.71,-8.42519 L 1441.23,-8.53603
 L 1441.77,-8.53603 L 1442.29,-8.42519 L 1442.77,-8.20836 L 1443.21,-7.895 L 1443.56,-7.49884 L 1443.83,-7.03717
 L 1443.99,-6.53017 L 1444.05,-6 L 1444.05,-0 L 1449,-0 z
M 186.236,-55.607 L 185.727,-55.6875 L 185.23,-55.8208 L 184.749,-56.0054 L 184.29,-56.2392 L 183.858,-56.5196
 L 183.458,-56.8437 L 183.094,-57.2079 L 182.77,-57.6081 L 182.489,-58.04 L 182.255,-58.4989 L 182.071,-58.9796
 L 181.938,-59.4771 L 181.857,-59.9857 L 181.83,-60.5 L 181.857,-61.0143 L 181.938,-61.5229 L 182.071,-62.0204
 L 182.255,-62.5011 L 182.489,-62.96 L 182.77,-63.3919 L 183.094,-63.7921 L 183.458,-64.1563 L 183.858,-64.4804
 L 184.2,-64.7024 L 184.2,-74 L 184.256,-74.5302 L 184.42,-75.0372 L 184.687,-75.4988 L 185.044,-75.895
 L 185.475,-76.2084 L 185.962,-76.4252 L 186.483,-76.536 L 187.017,-76.536 L 187.538,-76.4252 L 188.025,-76.2084
 L 188.456,-75.895 L 188.813,-75.4988 L 189.08,-75.0372 L 189.244,-74.5302 L 189.3,-74 L 189.3,-64.7024
 L 189.642,-64.4804 L 190.042,-64.1563 L 190.406,-63.7921 L 190.73,-63.3919 L 191.011,-62.96 L 191.245,-62.5011
 L 191.429,-62.0204 L 191.562,-61.5229 L 191.643,-61.0143 L 191.67,-60.5 L 191.643,-59.9857 L 191.562,-59.4771
 L 191.429,-58.9796 L 191.245,-58.4989 L 191.011,-58.04 L 190.73,-57.6081 L 190.406,-57.2079 L 190.042,-56.8437
 L 189.642,-56.5196 L 189.21,-56.2392 L 188.751,-56.0054 L 188.27,-55.8208 L 187.773,-55.6875 L 187.264,-55.607
 L 186.75,-55.58 z
M 1082.49,-55.607 L 1081.98,-55.6875 L 1081.48,-55.8208 L 1081,-56.0054 L 1080.54,-56.2392 L 1080.11,-56.5196
 L 1079.71,-56.8437 L 1079.34,-57.2079 L 1079.02,-57.6081 L 1078.74,-58.04 L 1078.51,-58.4989 L 1078.32,-58.9796
 L 1078.19,-59.4771 L 1078.11,-59.9857 L 1078.08,-60.5 L 1078.11,-61.0143 L 1078.19,-61.5229 L 1078.32,-62.0204
 L 1078.51,-62.5011 L 1078.74,-62.96 L 1079.02,-63.3919 L 1079.34,-63.7921 L 1079.71,-64.1563 L 1080.11,-64.4804
 L 1080.45,-64.7024 L 1080.45,-74 L 1080.51,-74.5302 L 1080.67,-75.0372 L 1080.94,-75.4988 L 1081.29,-75.895
 L 1081.73,-76.2084 L 1082.21,-76.4252 L 1082.73,-76.536 L 1083.27,-76.536 L 1083.79,-76.4252 L 1084.27,-76.2084
 L 1084.71,-75.895 L 1085.06,-75.4988 L 1085.33,-75.0372 L 1085.49,-74.5302 L 1085.55,-74 L 1085.55,-64.7024
 L 1085.89,-64.4804 L 1086.29,-64.1563 L 1086.66,-63.7921 L 1086.98,-63.3919 L 1087.26,-62.96 L 1087.49,-62.5011
 L 1087.68,-62.0204 L 1087.81,-61.5229 L 1087.89,-61.0143 L 1087.92,-60.5 L 1087.89,-59.9857 L 1087.81,-59.4771
 L 1087.68,-58.9796 L 1087.49,-58.4989 L 1087.26,-58.04 L 1086.98,-57.6081 L 1086.66,-57.2079 L 1086.29,-56.8437
 L 1085.89,-56.5196 L 1085.46,-56.2392 L 1085,-56.0054 L 1084.52,-55.8208 L 1084.02,-55.6875 L 1083.51,-55.607
 L 1083,-55.58 z
M 903.236,-55.607 L 902.727,-55.6875 L 902.23,-55.8208 L 901.749,-56.0054 L 901.29,-56.2392 L 900.858,-56.5196
 L 900.458,-56.8437 L 900.094,-57.2079 L 899.77,-57.6081 L 899.489,-58.04 L 899.255,-58.4989 L 899.071,-58.9796
 L 898.938,-59.4771 L 898.857,-59.9857 L 898.83,-60.5 L 898.857,-61.0143 L 898.938,-61.5229 L 899.071,-62.0204
 L 899.255,-62.5011 L 899.489,-62.96 L 899.77,-63.3919 L 900.094,-63.7921 L 900.458,-64.1563 L 900.858,-64.4804
 L 901.2,-64.7024 L 901.2,-74 L 901.256,-74.5302 L 901.42,-75.0372 L 901.687,-75.4988 L 902.044,-75.895
 L 902.475,-76.2084 L 902.962,-76.4252 L 903.483,-76.536 L 904.017,-76.536 L 904.538,-76.4252 L 905.025,-76.2084
 L 905.456,-75.895 L 905.813,-75.4988 L 906.08,-75.0372 L 906.244,-74.5302 L 906.3,-74 L 906.3,-64.7024
 L 906.642,-64.4804 L 907.042,-64.1563 L 907.406,-63.7921 L 907.73,-63.3919 L 908.011,-62.96 L 908.245,-62.5011
 L 908.429,-62.0204 L 908.562,-61.5229 L 908.643,-61.0143 L 908.67,-60.5 L 908.643,-59.9857 L 908.562,-59.4771
 L 908.429,-58.9796 L 908.245,-58.4989 L 908.011,-58.04 L 907.73,-57.6081 L 907.406,-57.2079 L 907.042,-56.8437
 L 906.642,-56.5196 L 906.21,-56.2392 L 905.751,-56.0054 L 905.27,-55.8208 L 904.773,-55.6875 L 904.264,-55.607
 L 903.75,-55.58 z
M 6.98573,-55.607 L 6.47708,-55.6875 L 5.97964,-55.8208 L 5.49887,-56.0054 L 5.04001,-56.2392 L 4.60811,-56.5196
 L 4.20789,-56.8437 L 3.84373,-57.2079 L 3.51964,-57.6081 L 3.23917,-58.04 L 3.00537,-58.4989 L 2.82082,-58.9796
 L 2.68752,-59.4771 L 2.60696,-59.9857 L 2.58,-60.5 L 2.60696,-61.0143 L 2.68752,-61.5229 L 2.82082,-62.0204
 L 3.00537,-62.5011 L 3.23917,-62.96 L 3.51964,-63.3919 L 3.84373,-63.7921 L 4.20789,-64.1563 L 4.60811,-64.4804
 L 4.95001,-64.7024 L 4.95001,-74 L 5.00574,-74.5302 L 5.17047,-75.0372 L 5.43701,-75.4988 L 5.79373,-75.895
 L 6.22501,-76.2084 L 6.71202,-76.4252 L 7.23346,-76.536 L 7.76654,-76.536 L 8.28798,-76.4252 L 8.77499,-76.2084
 L 9.20627,-75.895 L 9.56299,-75.4988 L 9.82953,-75.0372 L 9.99426,-74.5302 L 10.05,-74 L 10.05,-64.7024
 L 10.3919,-64.4804 L 10.7921,-64.1563 L 11.1563,-63.7921 L 11.4804,-63.3919 L 11.7608,-62.96 L 11.9946,-62.5011
 L 12.1792,-62.0204 L 12.3125,-61.5229 L 12.393,-61.0143 L 12.42,-60.5 L 12.393,-59.9857 L 12.3125,-59.4771
 L 12.1792,-58.9796 L 11.9946,-58.4989 L 11.7608,-58.04 L 11.4804,-57.6081 L 11.1563,-57.2079 L 10.7921,-56.8437
 L 10.3919,-56.5196 L 9.95999,-56.2392 L 9.50113,-56.0054 L 9.02036,-55.8208 L 8.52292,-55.6875 L 8.01427,-55.607
 L 7.5,-55.58 z
M 723.986,-55.607 L 723.477,-55.6875 L 722.98,-55.8208 L 722.499,-56.0054 L 722.04,-56.2392 L 721.608,-56.5196
 L 721.208,-56.8437 L 720.844,-57.2079 L 720.52,-57.6081 L 720.239,-58.04 L 720.005,-58.4989 L 719.821,-58.9796
 L 719.688,-59.4771 L 719.607,-59.9857 L 719.58,-60.5 L 719.607,-61.0143 L 719.688,-61.5229 L 719.821,-62.0204
 L 720.005,-62.5011 L 720.239,-62.96 L 720.52,-63.3919 L 720.844,-63.7921 L 721.208,-64.1563 L 721.608,-64.4804
 L 721.95,-64.7024 L 721.95,-74 L 722.006,-74.5302 L 722.17,-75.0372 L 722.437,-75.4988 L 722.794,-75.895
 L 723.225,-76.2084 L 723.712,-76.4252 L 724.233,-76.536 L 724.767,-76.536 L 725.288,-76.4252 L 725.775,-76.2084
 L 726.206,-75.895 L 726.563,-75.4988 L 726.83,-75.0372 L 726.994,-74.5302 L 727.05,-74 L 727.05,-64.7024
 L 727.392,-64.4804 L 727.792,-64.1563 L 728.156,-63.7921 L 728.48,-63.3919 L 728.761,-62.96 L 728.995,-62.5011
 L 729.179,-62.0204 L 729.312,-61.5229 L 729.393,-61.0143 L 729.42,-60.5 L 729.393,-59.9857 L 729.312,-59.4771
 L 729.179,-58.9796 L 728.995,-58.4989 L 728.761,-58.04 L 728.48,-57.6081 L 728.156,-57.2079 L 727.792,-56.8437
 L 727.392,-56.5196 L 726.96,-56.2392 L 726.501,-56.0054 L 726.02,-55.8208 L 725.523,-55.6875 L 725.014,-55.607
 L 724.5,-55.58 z
M 1261.74,-55.607 L 1261.23,-55.6875 L 1260.73,-55.8208 L 1260.25,-56.0054 L 1259.79,-56.2392 L 1259.36,-56.5196
 L 1258.96,-56.8437 L 1258.59,-57.2079 L 1258.27,-57.6081 L 1257.99,-58.04 L 1257.76,-58.4989 L 1257.57,-58.9796
 L 1257.44,-59.4771 L 1257.36,-59.9857 L 1257.33,-60.5 L 1257.36,-61.0143 L 1257.44,-61.5229 L 1257.57,-62.0204
 L 1257.76,-62.5011 L 1257.99,-62.96 L 1258.27,-63.3919 L 1258.59,-63.7921 L 1258.96,-64.1563 L 1259.36,-64.4804
 L 1259.7,-64.7024 L 1259.7,-74 L 1259.76,-74.5302 L 1259.92,-75.0372 L 1260.19,-75.4988 L 1260.54,-75.895
 L 1260.98,-76.2084 L 1261.46,-76.4252 L 1261.98,-76.536 L 1262.52,-76.536 L 1263.04,-76.4252 L 1263.52,-76.2084
 L 1263.96,-75.895 L 1264.31,-75.4988 L 1264.58,-75.0372 L 1264.74,-74.5302 L 1264.8,-74 L 1264.8,-64.7024
 L 1265.14,-64.4804 L 1265.54,-64.1563 L 1265.91,-63.7921 L 1266.23,-63.3919 L 1266.51,-62.96 L 1266.74,-62.5011
 L 1266.93,-62.0204 L 1267.06,-61.5229 L 1267.14,-61.0143 L 1267.17,-60.5 L 1267.14,-59.9857 L 1267.06,-59.4771
 L 1266.93,-58.9796 L 1266.74,-58.4989 L 1266.51,-58.04 L 1266.23,-57.6081 L 1265.91,-57.2079 L 1265.54,-56.8437
 L 1265.14,-56.5196 L 1264.71,-56.2392 L 1264.25,-56.0054 L 1263.77,-55.8208 L 1263.27,-55.6875 L 1262.76,-55.607
 L 1262.25,-55.58 z
M 544.736,-55.607 L 544.227,-55.6875 L 543.73,-55.8208 L 543.249,-56.0054 L 542.79,-56.2392 L 542.358,-56.5196
 L 541.958,-56.8437 L 541.594,-57.2079 L 541.27,-57.6081 L 540.989,-58.04 L 540.755,-58.4989 L 540.571,-58.9796
 L 540.438,-59.4771 L 540.357,-59.9857 L 540.33,-60.5 L 540.357,-61.0143 L 540.438,-61.5229 L 540.571,-62.0204
 L 540.755,-62.5011 L 540.989,-62.96 L 541.27,-63.3919 L 541.594,-63.7921 L 541.958,-64.1563 L 542.358,-64.4804
 L 542.7,-64.7024 L 542.7,-74 L 542.756,-74.5302 L 542.92,-75.0372 L 543.187,-75.4988 L 543.544,-75.895
 L 543.975,-76.2084 L 544.462,-76.4252 L 544.983,-76.536 L 545.517,-76.536 L 546.038,-76.4252 L 546.525,-76.2084
 L 546.956,-75.895 L 547.313,-75.4988 L 547.58,-75.0372 L 547.744,-74.5302 L 547.8,-74 L 547.8,-64.7024
 L 548.142,-64.4804 L 548.542,-64.1563 L 548.906,-63.7921 L 549.23,-63.3919 L 549.511,-62.96 L 549.745,-62.5011
 L 549.929,-62.0204 L 550.062,-61.5229 L 550.143,-61.0143 L 550.17,-60.5 L 550.143,-59.9857 L 550.062,-59.4771
 L 549.929,-58.9796 L 549.745,-58.4989 L 549.511,-58.04 L 549.23,-57.6081 L 548.906,-57.2079 L 548.542,-56.8437
 L 548.142,-56.5196 L 547.71,-56.2392 L 547.251,-56.0054 L 546.77,-55.8208 L 546.273,-55.6875 L 545.764,-55.607
 L 545.25,-55.58 z
M 365.486,-55.607 L 364.977,-55.6875 L 364.48,-55.8208 L 363.999,-56.0054 L 363.54,-56.2392 L 363.108,-56.5196
 L 362.708,-56.8437 L 362.344,-57.2079 L 362.02,-57.6081 L 361.739,-58.04 L 361.505,-58.4989 L 361.321,-58.9796
 L 361.188,-59.4771 L 361.107,-59.9857 L 361.08,-60.5 L 361.107,-61.0143 L 361.188,-61.5229 L 361.321,-62.0204
 L 361.505,-62.5011 L 361.739,-62.96 L 362.02,-63.3919 L 362.344,-63.7921 L 362.708,-64.1563 L 363.108,-64.4804
 L 363.45,-64.7024 L 363.45,-74 L 363.506,-74.5302 L 363.67,-75.0372 L 363.937,-75.4988 L 364.294,-75.895
 L 364.725,-76.2084 L 365.212,-76.4252 L 365.733,-76.536 L 366.267,-76.536 L 366.788,-76.4252 L 367.275,-76.2084
 L 367.706,-75.895 L 368.063,-75.4988 L 368.33,-75.0372 L 368.494,-74.5302 L 368.55,-74 L 368.55,-64.7024
 L 368.892,-64.4804 L 369.292,-64.1563 L 369.656,-63.7921 L 369.98,-63.3919 L 370.261,-62.96 L 370.495,-62.5011
 L 370.679,-62.0204 L 370.812,-61.5229 L 370.893,-61.0143 L 370.92,-60.5 L 370.893,-59.9857 L 370.812,-59.4771
 L 370.679,-58.9796 L 370.495,-58.4989 L 370.261,-58.04 L 369.98,-57.6081 L 369.656,-57.2079 L 369.292,-56.8437
 L 368.892,-56.5196 L 368.46,-56.2392 L 368.001,-56.0054 L 367.52,-55.8208 L 367.023,-55.6875 L 366.514,-55.607
 L 366,-55.58 z
M 1440.99,-55.607 L 1440.48,-55.6875 L 1439.98,-55.8208 L 1439.5,-56.0054 L 1439.04,-56.2392 L 1438.61,-56.5196
 L 1438.21,-56.8437 L 1437.84,-57.2079 L 1437.52,-57.6081 L 1437.24,-58.04 L 1437.01,-58.4989 L 1436.82,-58.9796
 L 1436.69,-59.4771 L 1436.61,-59.9857 L 1436.58,-60.5 L 1436.61,-61.0143 L 1436.69,-61.5229 L 1436.82,-62.0204
 L 1437.01,-62.5011 L 1437.24,-62.96 L 1437.52,-63.3919 L 1437.84,-63.7921 L 1438.21,-64.1563 L 1438.61,-64.4804
 L 1438.95,-64.7024 L 1438.95,-74 L 1439.01,-74.5302 L 1439.17,-75.0372 L 1439.44,-75.4988 L 1439.79,-75.895
 L 1440.23,-76.2084 L 1440.71,-76.4252 L 1441.23,-76.536 L 1441.77,-76.536 L 1442.29,-76.4252 L 1442.77,-76.2084
 L 1443.21,-75.895 L 1443.56,-75.4988 L 1443.83,-75.0372 L 1443.99,-74.5302 L 1444.05,-74 L 1444.05,-64.7024
 L 1444.39,-64.4804 L 1444.79,-64.1563 L 1445.16,-63.7921 L 1445.48,-63.3919 L 1445.76,-62.96 L 1445.99,-62.5011
 L 1446.18,-62.0204 L 1446.31,-61.5229 L 1446.39,-61.0143 L 1446.42,-60.5 L 1446.39,-59.9857 L 1446.31,-59.4771
 L 1446.18,-58.9796 L 1445.99,-58.4989 L 1445.76,-58.04 L 1445.48,-57.6081 L 1445.16,-57.2079 L 1444.79,-56.8437
 L 1444.39,-56.5196 L 1443.96,-56.2392 L 1443.5,-56.0054 L 1443.02,-55.8208 L 1442.52,-55.6875 L 1442.01,-55.607
 L 1441.5,-55.58 z
M 352.39,-20.8662 L 351.581,-21.0794 L 264.116,-54.2601 L 263.184,-54.7639 L 262.562,-55.3235 L 262.071,-56
 L 261.731,-56.7639 L 261.557,-57.5819 L 261.557,-58.4181 L 261.731,-59.2361 L 262.071,-60 L 262.562,-60.6765
 L 263.184,-61.2361 L 263.908,-61.6542 L 264.703,-61.9126 L 265.535,-62 L 353,-62 L 354.236,-61.8042
 L 355,-61.4641 L 355.677,-60.9726 L 356.236,-60.3511 L 356.654,-59.627 L 356.913,-58.8316 L 357,-58
 L 357,-24.8194 L 356.868,-23.7993 L 356.571,-23.0174 L 356.118,-22.3143 L 355.529,-21.7207 L 354.83,-21.2625
 L 354.05,-20.9597 L 353.225,-20.8257 z
M 531.64,-20.8662 L 530.831,-21.0794 L 443.366,-54.2601 L 442.434,-54.7639 L 441.812,-55.3235 L 441.321,-56
 L 440.981,-56.7639 L 440.807,-57.5819 L 440.807,-58.4181 L 440.981,-59.2361 L 441.321,-60 L 441.812,-60.6765
 L 442.434,-61.2361 L 443.158,-61.6542 L 443.953,-61.9126 L 444.785,-62 L 532.25,-62 L 533.486,-61.8042
 L 534.25,-61.4641 L 534.927,-60.9726 L 535.486,-60.3511 L 535.904,-59.627 L 536.163,-58.8316 L 536.25,-58
 L 536.25,-24.8194 L 536.118,-23.7993 L 535.821,-23.0174 L 535.368,-22.3143 L 534.779,-21.7207 L 534.08,-21.2625
 L 533.3,-20.9597 L 532.475,-20.8257 z
M 1274.2,-20.9597 L 1273.42,-21.2625 L 1272.72,-21.7207 L 1272.13,-22.3143 L 1271.68,-23.0174 L 1271.38,-23.7993
 L 1271.25,-24.8194 L 1271.25,-58 L 1271.34,-58.8316 L 1271.6,-59.627 L 1272.01,-60.3511 L 1272.57,-60.9726
 L 1273.25,-61.4641 L 1274.01,-61.8042 L 1275.25,-62 L 1362.72,-62 L 1363.55,-61.9126 L 1364.34,-61.6542
 L 1365.07,-61.2361 L 1365.69,-60.6765 L 1366.18,-60 L 1366.52,-59.2361 L 1366.69,-58.4181 L 1366.69,-57.5819
 L 1366.52,-56.7639 L 1366.18,-56 L 1365.69,-55.3235 L 1365.07,-54.7639 L 1364.13,-54.2601 L 1276.67,-21.0794
 L 1275.86,-20.8662 L 1275.02,-20.8257 z
M 710.89,-20.8662 L 710.081,-21.0794 L 622.616,-54.2601 L 621.684,-54.7639 L 621.062,-55.3235 L 620.571,-56
 L 620.231,-56.7639 L 620.057,-57.5819 L 620.057,-58.4181 L 620.231,-59.2361 L 620.571,-60 L 621.062,-60.6765
 L 621.684,-61.2361 L 622.408,-61.6542 L 623.203,-61.9126 L 624.035,-62 L 711.5,-62 L 712.736,-61.8042
 L 713.5,-61.4641 L 714.177,-60.9726 L 714.736,-60.3511 L 715.154,-59.627 L 715.413,-58.8316 L 715.5,-58
 L 715.5,-24.8194 L 715.368,-23.7993 L 715.071,-23.0174 L 714.618,-22.3143 L 714.029,-21.7207 L 713.33,-21.2625
 L 712.55,-20.9597 L 711.725,-20.8257 z
M 173.14,-20.8662 L 172.331,-21.0794 L 84.866,-54.2601 L 83.9337,-54.7639 L 83.3122,-55.3235 L 82.8207,-56
 L 82.4806,-56.7639 L 82.3067,-57.5819 L 82.3067,-58.4181 L 82.4806,-59.2361 L 82.8207,-60 L 83.3122,-60.6765
 L 83.9337,-61.2361 L 84.6579,-61.6542 L 85.4532,-61.9126 L 86.2848,-62 L 173.75,-62 L 174.986,-61.8042
 L 175.75,-61.4641 L 176.427,-60.9726 L 176.986,-60.3511 L 177.404,-59.627 L 177.663,-58.8316 L 177.75,-58
 L 177.75,-24.8194 L 177.618,-23.7993 L 177.321,-23.0174 L 176.868,-22.3143 L 176.279,-21.7207 L 175.58,-21.2625
 L 174.8,-20.9597 L 173.975,-20.8257 z
M 736.45,-20.9597 L 735.67,-21.2625 L 734.971,-21.7207 L 734.382,-22.3143 L 733.929,-23.0174 L 733.632,-23.7993
 L 733.5,-24.8194 L 733.5,-58 L 733.587,-58.8316 L 733.846,-59.627 L 734.264,-60.3511 L 734.823,-60.9726
 L 735.5,-61.4641 L 736.264,-61.8042 L 737.5,-62 L 824.965,-62 L 825.797,-61.9126 L 826.592,-61.6542
 L 827.316,-61.2361 L 827.938,-60.6765 L 828.429,-60 L 828.769,-59.2361 L 828.943,-58.4181 L 828.943,-57.5819
 L 828.769,-56.7639 L 828.429,-56 L 827.938,-55.3235 L 827.316,-54.7639 L 826.384,-54.2601 L 738.919,-21.0794
 L 738.11,-20.8662 L 737.275,-20.8257 z
M 915.7,-20.9597 L 914.92,-21.2625 L 914.221,-21.7207 L 913.632,-22.3143 L 913.179,-23.0174 L 912.882,-23.7993
 L 912.75,-24.8194 L 912.75,-58 L 912.837,-58.8316 L 913.096,-59.627 L 913.514,-60.3511 L 914.073,-60.9726
 L 914.75,-61.4641 L 915.514,-61.8042 L 916.75,-62 L 1004.22,-62 L 1005.05,-61.9126 L 1005.84,-61.6542
 L 1006.57,-61.2361 L 1007.19,-60.6765 L 1007.68,-60 L 1008.02,-59.2361 L 1008.19,-58.4181 L 1008.19,-57.5819
 L 1008.02,-56.7639 L 1007.68,-56 L 1007.19,-55.3235 L 1006.57,-54.7639 L 1005.63,-54.2601 L 918.169,-21.0794
 L 917.36,-20.8662 L 916.525,-20.8257 z
M 1094.95,-20.9597 L 1094.17,-21.2625 L 1093.47,-21.7207 L 1092.88,-22.3143 L 1092.43,-23.0174 L 1092.13,-23.7993
 L 1092,-24.8194 L 1092,-58 L 1092.09,-58.8316 L 1092.35,-59.627 L 1092.76,-60.3511 L 1093.32,-60.9726
 L 1094,-61.4641 L 1094.76,-61.8042 L 1096,-62 L 1183.47,-62 L 1184.3,-61.9126 L 1185.09,-61.6542
 L 1185.82,-61.2361 L 1186.44,-60.6765 L 1186.93,-60 L 1187.27,-59.2361 L 1187.44,-58.4181 L 1187.44,-57.5819
 L 1187.27,-56.7639 L 1186.93,-56 L 1186.44,-55.3235 L 1185.82,-54.7639 L 1184.88,-54.2601 L 1097.42,-21.0794
 L 1096.61,-20.8662 L 1095.77,-20.8257 z
M 199.75,-18 L 198.514,-18.1958 L 197.75,-18.5359 L 197.073,-19.0274 L 196.514,-19.6489 L 196.096,-20.373
 L 195.837,-21.1684 L 195.75,-22 L 195.75,-55.1806 L 195.882,-56.2007 L 196.179,-56.9826 L 196.632,-57.6857
 L 197.221,-58.2793 L 197.92,-58.7375 L 198.7,-59.0402 L 199.525,-59.1743 L 200.36,-59.1338 L 201.169,-58.9206
 L 288.634,-25.7399 L 289.566,-25.2361 L 290.188,-24.6765 L 290.679,-24 L 291.019,-23.2361 L 291.193,-22.4181
 L 291.193,-21.5819 L 291.019,-20.7639 L 290.679,-20 L 290.188,-19.3235 L 289.566,-18.7639 L 288.842,-18.3458
 L 288.047,-18.0874 L 287.215,-18 z
M 379,-18 L 377.764,-18.1958 L 377,-18.5359 L 376.323,-19.0274 L 375.764,-19.6489 L 375.346,-20.373
 L 375.087,-21.1684 L 375,-22 L 375,-55.1806 L 375.132,-56.2007 L 375.429,-56.9826 L 375.882,-57.6857
 L 376.471,-58.2793 L 377.17,-58.7375 L 377.95,-59.0402 L 378.775,-59.1743 L 379.61,-59.1338 L 380.419,-58.9206
 L 467.884,-25.7399 L 468.816,-25.2361 L 469.438,-24.6765 L 469.929,-24 L 470.269,-23.2361 L 470.443,-22.4181
 L 470.443,-21.5819 L 470.269,-20.7639 L 469.929,-20 L 469.438,-19.3235 L 468.816,-18.7639 L 468.092,-18.3458
 L 467.297,-18.0874 L 466.465,-18 z
M 558.25,-18 L 557.014,-18.1958 L 556.25,-18.5359 L 555.573,-19.0274 L 555.014,-19.6489 L 554.596,-20.373
 L 554.337,-21.1684 L 554.25,-22 L 554.25,-55.1806 L 554.382,-56.2007 L 554.679,-56.9826 L 555.132,-57.6857
 L 555.721,-58.2793 L 556.42,-58.7375 L 557.2,-59.0402 L 558.025,-59.1743 L 558.86,-59.1338 L 559.669,-58.9206
 L 647.134,-25.7399 L 648.066,-25.2361 L 648.688,-24.6765 L 649.179,-24 L 649.519,-23.2361 L 649.693,-22.4181
 L 649.693,-21.5819 L 649.519,-20.7639 L 649.179,-20 L 648.688,-19.3235 L 648.066,-18.7639 L 647.342,-18.3458
 L 646.547,-18.0874 L 645.715,-18 z
M 803.285,-18 L 802.453,-18.0874 L 801.658,-18.3458 L 800.934,-18.7639 L 800.312,-19.3235 L 799.821,-20
 L 799.481,-20.7639 L 799.307,-21.5819 L 799.307,-22.4181 L 799.481,-23.2361 L 799.821,-24 L 800.312,-24.6765
 L 800.934,-25.2361 L 801.866,-25.7399 L 889.331,-58.9206 L 890.14,-59.1338 L 890.975,-59.1743 L 891.8,-59.0402
 L 892.58,-58.7375 L 893.279,-58.2793 L 893.868,-57.6857 L 894.321,-56.9826 L 894.618,-56.2007 L 894.75,-55.1806
 L 894.75,-22 L 894.663,-21.1684 L 894.404,-20.373 L 893.986,-19.6489 L 893.427,-19.0274 L 892.75,-18.5359
 L 891.986,-18.1958 L 890.75,-18 z
M 982.535,-18 L 981.703,-18.0874 L 980.908,-18.3458 L 980.184,-18.7639 L 979.562,-19.3235 L 979.071,-20
 L 978.731,-20.7639 L 978.557,-21.5819 L 978.557,-22.4181 L 978.731,-23.2361 L 979.071,-24 L 979.562,-24.6765
 L 980.184,-25.2361 L 981.116,-25.7399 L 1068.58,-58.9206 L 1069.39,-59.1338 L 1070.23,-59.1743 L 1071.05,-59.0402
 L 1071.83,-58.7375 L 1072.53,-58.2793 L 1073.12,-57.6857 L 1073.57,-56.9826 L 1073.87,-56.2007 L 1074,-55.1806
 L 1074,-22 L 1073.91,-21.1684 L 1073.65,-20.373 L 1073.24,-19.6489 L 1072.68,-19.0274 L 1072,-18.5359
 L 1071.24,-18.1958 L 1070,-18 z
M 1161.78,-18 L 1160.95,-18.0874 L 1160.16,-18.3458 L 1159.43,-18.7639 L 1158.81,-19.3235 L 1158.32,-20
 L 1157.98,-20.7639 L 1157.81,-21.5819 L 1157.81,-22.4181 L 1157.98,-23.2361 L 1158.32,-24 L 1158.81,-24.6765
 L 1159.43,-25.2361 L 1160.37,-25.7399 L 1247.83,-58.9206 L 1248.64,-59.1338 L 1249.48,-59.1743 L 1250.3,-59.0402
 L 1251.08,-58.7375 L 1251.78,-58.2793 L 1252.37,-57.6857 L 1252.82,-56.9826 L 1253.12,-56.2007 L 1253.25,-55.1806
 L 1253.25,-22 L 1253.16,-21.1684 L 1252.9,-20.373 L 1252.49,-19.6489 L 1251.93,-19.0274 L 1251.25,-18.5359
 L 1250.49,-18.1958 L 1249.25,-18 z
M 1341.03,-18 L 1340.2,-18.0874 L 1339.41,-18.3458 L 1338.68,-18.7639 L 1338.06,-19.3235 L 1337.57,-20
 L 1337.23,-20.7639 L 1337.06,-21.5819 L 1337.06,-22.4181 L 1337.23,-23.2361 L 1337.57,-24 L 1338.06,-24.6765
 L 1338.68,-25.2361 L 1339.62,-25.7399 L 1425.58,-58.3515 L 1426.39,-58.5648 L 1427.23,-58.6053 L 1428.05,-58.4712
 L 1428.83,-58.1685 L 1429.53,-57.7103 L 1430.12,-57.1166 L 1430.57,-56.4135 L 1430.87,-55.6317 L 1431,-54.6116
 L 1431,-22 L 1430.91,-21.1684 L 1430.65,-20.373 L 1430.24,-19.6489 L 1429.68,-19.0274 L 1429,-18.5359
 L 1428.24,-18.1958 L 1427,-18 z
M 22,-18 L 20.7639,-18.1958 L 20,-18.5359 L 19.3235,-19.0274 L 18.7639,-19.6489 L 18.3458,-20.373
 L 18.0874,-21.1684 L 18,-22 L 18,-54.6116 L 18.1322,-55.6317 L 18.4289,-56.4135 L 18.8815,-57.1166
 L 19.4705,-57.7103 L 20.17,-58.1685 L 20.9495,-58.4712 L 21.7749,-58.6053 L 22.6102,-58.5648 L 23.4188,-58.3515
 L 109.384,-25.7399 L 110.316,-25.2361 L 110.938,-24.6765 L 111.429,-24 L 111.769,-23.2361 L 111.943,-22.4181
 L 111.943,-21.5819 L 111.769,-20.7639 L 111.429,-20 L 110.938,-19.3235 L 110.316,-18.7639 L 109.592,-18.3458
 L 108.797,-18.0874 L 107.965,-18 z
" stroke="black" fill="lightgray" stroke-width="0.5"/>
</svg>
