<?xml version="1.0" standalone="no"?>
<!DOCTYPE svg PUBLIC "-//W3C//DTD SVG 1.1//EN" "http://www.w3.org/Graphics/SVG/1.1/DTD/svg11.dtd">
<svg width="1424mm" height="80mm" viewBox="0 -80 1424 80" xmlns="http://www.w3.org/2000/svg" version="1.1">
<title>OpenSCAD Model</title>
<path d="
M 1424,-80 L 0,-80 L 0,-0 L 4.95,-0 L 4.95,-6 L 5.00572,-6.53017
 L 5.17046,-7.03717 L 5.437,-7.49884 L 5.79372,-7.895 L 6.22499,-8.20836 L 6.71201,-8.42519 L 7.23344,-8.53603
 L 7.76654,-8.53603 L 8.28798,-8.42519 L 8.77499,-8.20836 L 9.20627,-7.895 L 9.56299,-7.49884 L 9.82953,-7.03717
 L 9.99426,-6.53017 L 10.05,-6 L 10.05,-0 L 181.075,-0 L 181.075,-6 L 181.131,-6.53017
 L 181.295,-7.03717 L 181.562,-7.49884 L 181.919,-7.895 L 182.35,-8.20836 L 182.837,-8.42519 L 183.358,-8.53603
 L 183.892,-8.53603 L 184.413,-8.42519 L 184.9,-8.20836 L 185.331,-7.895 L 185.688,-7.49884 L 185.955,-7.03717
 L 186.119,-6.53017 L 186.175,-6 L 186.175,-0 L 357.2,-0 L 357.2,-6 L 357.256,-6.53017
 L 357.42,-7.03717 L 357.687,-7.49884 L 358.044,-7.895 L 358.475,-8.20836 L 358.962,-8.42519 L 359.483,-8.53603
 L 360.017,-8.53603 L 360.538,-8.42519 L 361.025,-8.20836 L 361.456,-7.895 L 361.813,-7.49884 L 362.08,-7.03717
 L 362.244,-6.53017 L 362.3,-6 L 362.3,-0 L 533.325,-0 L 533.325,-6 L 533.381,-6.53017
 L 533.545,-7.03717 L 533.812,-7.49884 L 534.169,-7.895 L 534.6,-8.20836 L 535.087,-8.42519 L 535.608,-8.53603
 L 536.142,-8.53603 L 536.663,-8.42519 L 537.15,-8.20836 L 537.581,-7.895 L 537.938,-7.49884 L 538.205,-7.03717
 L 538.369,-6.53017 L 538.425,-6 L 538.425,-0 L 709.45,-0 L 709.45,-6 L 709.506,-6.53017
 L 709.67,-7.03717 L 709.937,-7.49884 L 710.294,-7.895 L 710.725,-8.20836 L 711.212,-8.42519 L 711.733,-8.53603
 L 712.267,-8.53603 L 712.788,-8.42519 L 713.275,-8.20836 L 713.706,-7.895 L 714.063,-7.49884 L 714.33,-7.03717
 L 714.494,-6.53017 L 714.55,-6 L 714.55,-0 L 885.575,-0 L 885.575,-6 L 885.631,-6.53017
 L 885.795,-7.03717 L 886.062,-7.49884 L 886.419,-7.895 L 886.85,-8.20836 L 887.337,-8.42519 L 887.858,-8.53603
 L 888.392,-8.53603 L 888.913,-8.42519 L 889.4,-8.20836 L 889.831,-7.895 L 890.188,-7.49884 L 890.455,-7.03717
 L 890.619,-6.53017 L 890.675,-6 L 890.675,-0 L 1061.7,-0 L 1061.7,-6 L 1061.76,-6.53017
 L 1061.92,-7.03717 L 1062.19,-7.49884 L 1062.54,-7.895 L 1062.97,-8.20836 L 1063.46,-8.42519 L 1063.98,-8.53603
 L 1064.52,-8.53603 L 1065.04,-8.42519 L 1065.52,-8.20836 L 1065.96,-7.895 L 1066.31,-7.49884 L 1066.58,-7.03717
 L 1066.74,-6.53017 L 1066.8,-6 L 1066.8,-0 L 1237.82,-0 L 1237.82,-6 L 1237.88,-6.53017
 L 1238.05,-7.03717 L 1238.31,-7.49884 L 1238.67,-7.895 L 1239.1,-8.20836 L 1239.59,-8.42519 L 1240.11,-8.53603
 L 1240.64,-8.53603 L 1241.16,-8.42519 L 1241.65,-8.20836 L 1242.08,-7.895 L 1242.44,-7.49884 L 1242.7,-7.03717
 L 1242.87,-6.53017 L 1242.92,-6 L 1242.92,-0 L 1413.95,-0 L 1413.95,-6 L 1414.01,-6.53017
 L 1414.17,-7.03717 L 1414.44,-7.49884 L 1414.79,-7.895 L 1415.22,-8.20836 L 1415.71,-8.42519 L 1416.23,-8.53603
 L 1416.77,-8.53603 L 1417.29,-8.42519 L 1417.77,-8.20836 L 1418.21,-7.895 L 1418.56,-7.49884 L 1418.83,-7.03717
 L 1418.99,-6.53017 L 1419.05,-6 L 1419.05,-0 L 1424,-0 z
M 183.111,-55.607 L 182.602,-55.6875 L 182.105,-55.8208 L 181.624,-56.0054 L 181.165,-56.2392 L 180.733,-56.5196
 L 180.333,-56.8437 L 179.969,-57.2079 L 179.645,-57.6081 L 179.364,-58.04 L 179.13,-58.4989 L 178.946,-58.9796
 L 178.813,-59.4771 L 178.732,-59.9857 L 178.705,-60.5 L 178.732,-61.0143 L 178.813,-61.5229 L 178.946,-62.0204
 L 179.13,-62.5011 L 179.364,-62.96 L 179.645,-63.3919 L 179.969,-63.7921 L 180.333,-64.1563 L 180.733,-64.4804
 L 181.075,-64.7024 L 181.075,-74 L 181.131,-74.5302 L 181.295,-75.0372 L 181.562,-75.4988 L 181.919,-75.895
 L 182.35,-76.2084 L 182.837,-76.4252 L 183.358,-76.536 L 183.892,-76.536 L 184.413,-76.4252 L 184.9,-76.2084
 L 185.331,-75.895 L 185.688,-75.4988 L 185.955,-75.0372 L 186.119,-74.5302 L 186.175,-74 L 186.175,-64.7024
 L 186.517,-64.4804 L 186.917,-64.1563 L 187.281,-63.7921 L 187.605,-63.3919 L 187.886,-62.96 L 188.12,-62.5011
 L 188.304,-62.0204 L 188.437,-61.5229 L 188.518,-61.0143 L 188.545,-60.5 L 188.518,-59.9857 L 188.437,-59.4771
 L 188.304,-58.9796 L 188.12,-58.4989 L 187.886,-58.04 L 187.605,-57.6081 L 187.281,-57.2079 L 186.917,-56.8437
 L 186.517,-56.5196 L 186.085,-56.2392 L 185.626,-56.0054 L 185.145,-55.8208 L 184.648,-55.6875 L 184.139,-55.607
 L 183.625,-55.58 z
M 1063.74,-55.607 L 1063.23,-55.6875 L 1062.73,-55.8208 L 1062.25,-56.0054 L 1061.79,-56.2392 L 1061.36,-56.5196
 L 1060.96,-56.8437 L 1060.59,-57.2079 L 1060.27,-57.6081 L 1059.99,-58.04 L 1059.76,-58.4989 L 1059.57,-58.9796
 L 1059.44,-59.4771 L 1059.36,-59.9857 L 1059.33,-60.5 L 1059.36,-61.0143 L 1059.44,-61.5229 L 1059.57,-62.0204
 L 1059.76,-62.5011 L 1059.99,-62.96 L 1060.27,-63.3919 L 1060.59,-63.7921 L 1060.96,-64.1563 L 1061.36,-64.4804
 L 1061.7,-64.7024 L 1061.7,-74 L 1061.76,-74.5302 L 1061.92,-75.0372 L 1062.19,-75.4988 L 1062.54,-75.895
 L 1062.98,-76.2084 L 1063.46,-76.4252 L 1063.98,-76.536 L 1064.52,-76.536 L 1065.04,-76.4252 L 1065.52,-76.2084
 L 1065.96,-75.895 L 1066.31,-75.4988 L 1066.58,-75.0372 L 1066.74,-74.5302 L 1066.8,-74 L 1066.8,-64.7024
 L 1067.14,-64.4804 L 1067.54,-64.1563 L 1067.91,-63.7921 L 1068.23,-63.3919 L 1068.51,-62.96 L 1068.74,-62.5011
 L 1068.93,-62.0204 L 1069.06,-61.5229 L 1069.14,-61.0143 L 1069.17,-60.5 L 1069.14,-59.9857 L 1069.06,-59.4771
 L 1068.93,-58.9796 L 1068.74,-58.4989 L 1068.51,-58.04 L 1068.23,-57.6081 L 1067.91,-57.2079 L 1067.54,-56.8437
 L 1067.14,-56.5196 L 1066.71,-56.2392 L 1066.25,-56.0054 L 1065.77,-55.8208 L 1065.27,-55.6875 L 1064.76,-55.607
 L 1064.25,-55.58 z
M 887.611,-55.607 L 887.102,-55.6875 L 886.605,-55.8208 L 886.124,-56.0054 L 885.665,-56.2392 L 885.233,-56.5196
 L 884.833,-56.8437 L 884.469,-57.2079 L 884.145,-57.6081 L 883.864,-58.04 L 883.63,-58.4989 L 883.446,-58.9796
 L 883.313,-59.4771 L 883.232,-59.9857 L 883.205,-60.5 L 883.232,-61.0143 L 883.313,-61.5229 L 883.446,-62.0204
 L 883.63,-62.5011 L 883.864,-62.96 L 884.145,-63.3919 L 884.469,-63.7921 L 884.833,-64.1563 L 885.233,-64.4804
 L 885.575,-64.7024 L 885.575,-74 L 885.631,-74.5302 L 885.795,-75.0372 L 886.062,-75.4988 L 886.419,-75.895
 L 886.85,-76.2084 L 887.337,-76.4252 L 887.858,-76.536 L 888.392,-76.536 L 888.913,-76.4252 L 889.4,-76.2084
 L 889.831,-75.895 L 890.188,-75.4988 L 890.455,-75.0372 L 890.619,-74.5302 L 890.675,-74 L 890.675,-64.7024
 L 891.017,-64.4804 L 891.417,-64.1563 L 891.781,-63.7921 L 892.105,-63.3919 L 892.386,-62.96 L 892.62,-62.5011
 L 892.804,-62.0204 L 892.937,-61.5229 L 893.018,-61.0143 L 893.045,-60.5 L 893.018,-59.9857 L 892.937,-59.4771
 L 892.804,-58.9796 L 892.62,-58.4989 L 892.386,-58.04 L 892.105,-57.6081 L 891.781,-57.2079 L 891.417,-56.8437
 L 891.017,-56.5196 L 890.585,-56.2392 L 890.126,-56.0054 L 889.645,-55.8208 L 889.148,-55.6875 L 888.639,-55.607
 L 888.125,-55.58 z
M 6.98573,-55.607 L 6.47708,-55.6875 L 5.97964,-55.8208 L 5.49887,-56.0054 L 5.04001,-56.2392 L 4.60811,-56.5196
 L 4.20789,-56.8437 L 3.84373,-57.2079 L 3.51964,-57.6081 L 3.23917,-58.04 L 3.00537,-58.4989 L 2.82082,-58.9796
 L 2.68752,-59.4771 L 2.60696,-59.9857 L 2.58,-60.5 L 2.60696,-61.0143 L 2.68752,-61.5229 L 2.82082,-62.0204
 L 3.00537,-62.5011 L 3.23917,-62.96 L 3.51964,-63.3919 L 3.84373,-63.7921 L 4.20789,-64.1563 L 4.60811,-64.4804
 L 4.95001,-64.7024 L 4.95001,-74 L 5.00574,-74.5302 L 5.17047,-75.0372 L 5.43701,-75.4988 L 5.79373,-75.895
 L 6.22501,-76.2084 L 6.71202,-76.4252 L 7.23346,-76.536 L 7.76654,-76.536 L 8.28798,-76.4252 L 8.77499,-76.2084
 L 9.20627,-75.895 L 9.56299,-75.4988 L 9.82953,-75.0372 L 9.99426,-74.5302 L 10.05,-74 L 10.05,-64.7024
 L 10.3919,-64.4804 L 10.7921,-64.1563 L 11.1563,-63.7921 L 11.4804,-63.3919 L 11.7608,-62.96 L 11.9946,-62.5011
 L 12.1792,-62.0204 L 12.3125,-61.5229 L 12.393,-61.0143 L 12.42,-60.5 L 12.393,-59.9857 L 12.3125,-59.4771
 L 12.1792,-58.9796 L 11.9946,-58.4989 L 11.7608,-58.04 L 11.4804,-57.6081 L 11.1563,-57.2079 L 10.7921,-56.8437
 L 10.3919,-56.5196 L 9.95999,-56.2392 L 9.50113,-56.0054 L 9.02036,-55.8208 L 8.52292,-55.6875 L 8.01427,-55.607
 L 7.5,-55.58 z
M 711.486,-55.607 L 710.977,-55.6875 L 710.48,-55.8208 L 709.999,-56.0054 L 709.54,-56.2392 L 709.108,-56.5196
 L 708.708,-56.8437 L 708.344,-57.2079 L 708.02,-57.6081 L 707.739,-58.04 L 707.505,-58.4989 L 707.321,-58.9796
 L 707.188,-59.4771 L 707.107,-59.9857 L 707.08,-60.5 L 707.107,-61.0143 L 707.188,-61.5229 L 707.321,-62.0204
 L 707.505,-62.5011 L 707.739,-62.96 L 708.02,-63.3919 L 708.344,-63.7921 L 708.708,-64.1563 L 709.108,-64.4804
 L 709.45,-64.7024 L 709.45,-74 L 709.506,-74.5302 L 709.67,-75.0372 L 709.937,-75.4988 L 710.294,-75.895
 L 710.725,-76.2084 L 711.212,-76.4252 L 711.733,-76.536 L 712.267,-76.536 L 712.788,-76.4252 L 713.275,-76.2084
 L 713.706,-75.895 L 714.063,-75.4988 L 714.33,-75.0372 L 714.494,-74.5302 L 714.55,-74 L 714.55,-64.7024
 L 714.892,-64.4804 L 715.292,-64.1563 L 715.656,-63.7921 L 715.98,-63.3919 L 716.261,-62.96 L 716.495,-62.5011
 L 716.679,-62.0204 L 716.812,-61.5229 L 716.893,-61.0143 L 716.92,-60.5 L 716.893,-59.9857 L 716.812,-59.4771
 L 716.679,-58.9796 L 716.495,-58.4989 L 716.261,-58.04 L 715.98,-57.6081 L 715.656,-57.2079 L 715.292,-56.8437
 L 714.892,-56.5196 L 714.46,-56.2392 L 714.001,-56.0054 L 713.52,-55.8208 L 713.023,-55.6875 L 712.514,-55.607
 L 712,-55.58 z
M 1239.86,-55.607 L 1239.35,-55.6875 L 1238.85,-55.8208 L 1238.37,-56.0054 L 1237.92,-56.2392 L 1237.48,-56.5196
 L 1237.08,-56.8437 L 1236.72,-57.2079 L 1236.39,-57.6081 L 1236.11,-58.04 L 1235.88,-58.4989 L 1235.7,-58.9796
 L 1235.56,-59.4771 L 1235.48,-59.9857 L 1235.46,-60.5 L 1235.48,-61.0143 L 1235.56,-61.5229 L 1235.7,-62.0204
 L 1235.88,-62.5011 L 1236.11,-62.96 L 1236.39,-63.3919 L 1236.72,-63.7921 L 1237.08,-64.1563 L 1237.48,-64.4804
 L 1237.83,-64.7024 L 1237.83,-74 L 1237.88,-74.5302 L 1238.05,-75.0372 L 1238.31,-75.4988 L 1238.67,-75.895
 L 1239.1,-76.2084 L 1239.59,-76.4252 L 1240.11,-76.536 L 1240.64,-76.536 L 1241.16,-76.4252 L 1241.65,-76.2084
 L 1242.08,-75.895 L 1242.44,-75.4988 L 1242.7,-75.0372 L 1242.87,-74.5302 L 1242.92,-74 L 1242.92,-64.7024
 L 1243.27,-64.4804 L 1243.67,-64.1563 L 1244.03,-63.7921 L 1244.36,-63.3919 L 1244.64,-62.96 L 1244.87,-62.5011
 L 1245.05,-62.0204 L 1245.19,-61.5229 L 1245.27,-61.0143 L 1245.29,-60.5 L 1245.27,-59.9857 L 1245.19,-59.4771
 L 1245.05,-58.9796 L 1244.87,-58.4989 L 1244.64,-58.04 L 1244.36,-57.6081 L 1244.03,-57.2079 L 1243.67,-56.8437
 L 1243.27,-56.5196 L 1242.83,-56.2392 L 1242.38,-56.0054 L 1241.9,-55.8208 L 1241.4,-55.6875 L 1240.89,-55.607
 L 1240.38,-55.58 z
M 535.361,-55.607 L 534.852,-55.6875 L 534.355,-55.8208 L 533.874,-56.0054 L 533.415,-56.2392 L 532.983,-56.5196
 L 532.583,-56.8437 L 532.219,-57.2079 L 531.895,-57.6081 L 531.614,-58.04 L 531.38,-58.4989 L 531.196,-58.9796
 L 531.063,-59.4771 L 530.982,-59.9857 L 530.955,-60.5 L 530.982,-61.0143 L 531.063,-61.5229 L 531.196,-62.0204
 L 531.38,-62.5011 L 531.614,-62.96 L 531.895,-63.3919 L 532.219,-63.7921 L 532.583,-64.1563 L 532.983,-64.4804
 L 533.325,-64.7024 L 533.325,-74 L 533.381,-74.5302 L 533.545,-75.0372 L 533.812,-75.4988 L 534.169,-75.895
 L 534.6,-76.2084 L 535.087,-76.4252 L 535.608,-76.536 L 536.142,-76.536 L 536.663,-76.4252 L 537.15,-76.2084
 L 537.581,-75.895 L 537.938,-75.4988 L 538.205,-75.0372 L 538.369,-74.5302 L 538.425,-74 L 538.425,-64.7024
 L 538.767,-64.4804 L 539.167,-64.1563 L 539.531,-63.7921 L 539.855,-63.3919 L 540.136,-62.96 L 540.37,-62.5011
 L 540.554,-62.0204 L 540.687,-61.5229 L 540.768,-61.0143 L 540.795,-60.5 L 540.768,-59.9857 L 540.687,-59.4771
 L 540.554,-58.9796 L 540.37,-58.4989 L 540.136,-58.04 L 539.855,-57.6081 L 539.531,-57.2079 L 539.167,-56.8437
 L 538.767,-56.5196 L 538.335,-56.2392 L 537.876,-56.0054 L 537.395,-55.8208 L 536.898,-55.6875 L 536.389,-55.607
 L 535.875,-55.58 z
M 359.236,-55.607 L 358.727,-55.6875 L 358.23,-55.8208 L 357.749,-56.0054 L 357.29,-56.2392 L 356.858,-56.5196
 L 356.458,-56.8437 L 356.094,-57.2079 L 355.77,-57.6081 L 355.489,-58.04 L 355.255,-58.4989 L 355.071,-58.9796
 L 354.938,-59.4771 L 354.857,-59.9857 L 354.83,-60.5 L 354.857,-61.0143 L 354.938,-61.5229 L 355.071,-62.0204
 L 355.255,-62.5011 L 355.489,-62.96 L 355.77,-63.3919 L 356.094,-63.7921 L 356.458,-64.1563 L 356.858,-64.4804
 L 357.2,-64.7024 L 357.2,-74 L 357.256,-74.5302 L 357.42,-75.0372 L 357.687,-75.4988 L 358.044,-75.895
 L 358.475,-76.2084 L 358.962,-76.4252 L 359.483,-76.536 L 360.017,-76.536 L 360.538,-76.4252 L 361.025,-76.2084
 L 361.456,-75.895 L 361.813,-75.4988 L 362.08,-75.0372 L 362.244,-74.5302 L 362.3,-74 L 362.3,-64.7024
 L 362.642,-64.4804 L 363.042,-64.1563 L 363.406,-63.7921 L 363.73,-63.3919 L 364.011,-62.96 L 364.245,-62.5011
 L 364.429,-62.0204 L 364.562,-61.5229 L 364.643,-61.0143 L 364.67,-60.5 L 364.643,-59.9857 L 364.562,-59.4771
 L 364.429,-58.9796 L 364.245,-58.4989 L 364.011,-58.04 L 363.73,-57.6081 L 363.406,-57.2079 L 363.042,-56.8437
 L 362.642,-56.5196 L 362.21,-56.2392 L 361.751,-56.0054 L 361.27,-55.8208 L 360.773,-55.6875 L 360.264,-55.607
 L 359.75,-55.58 z
M 1415.99,-55.607 L 1415.48,-55.6875 L 1414.98,-55.8208 L 1414.5,-56.0054 L 1414.04,-56.2392 L 1413.61,-56.5196
 L 1413.21,-56.8437 L 1412.84,-57.2079 L 1412.52,-57.6081 L 1412.24,-58.04 L 1412.01,-58.4989 L 1411.82,-58.9796
 L 1411.69,-59.4771 L 1411.61,-59.9857 L 1411.58,-60.5 L 1411.61,-61.0143 L 1411.69,-61.5229 L 1411.82,-62.0204
 L 1412.01,-62.5011 L 1412.24,-62.96 L 1412.52,-63.3919 L 1412.84,-63.7921 L 1413.21,-64.1563 L 1413.61,-64.4804
 L 1413.95,-64.7024 L 1413.95,-74 L 1414.01,-74.5302 L 1414.17,-75.0372 L 1414.44,-75.4988 L 1414.79,-75.895
 L 1415.23,-76.2084 L 1415.71,-76.4252 L 1416.23,-76.536 L 1416.77,-76.536 L 1417.29,-76.4252 L 1417.77,-76.2084
 L 1418.21,-75.895 L 1418.56,-75.4988 L 1418.83,-75.0372 L 1418.99,-74.5302 L 1419.05,-74 L 1419.05,-64.7024
 L 1419.39,-64.4804 L 1419.79,-64.1563 L 1420.16,-63.7921 L 1420.48,-63.3919 L 1420.76,-62.96 L 1420.99,-62.5011
 L 1421.18,-62.0204 L 1421.31,-61.5229 L 1421.39,-61.0143 L 1421.42,-60.5 L 1421.39,-59.9857 L 1421.31,-59.4771
 L 1421.18,-58.9796 L 1420.99,-58.4989 L 1420.76,-58.04 L 1420.48,-57.6081 L 1420.16,-57.2079 L 1419.79,-56.8437
 L 1419.39,-56.5196 L 1418.96,-56.2392 L 1418.5,-56.0054 L 1418.02,-55.8208 L 1417.52,-55.6875 L 1417.01,-55.607
 L 1416.5,-55.58 z
M 346.117,-20.9872 L 345.309,-21.2052 L 259.673,-54.2685 L 258.763,-54.7639 L 258.141,-55.3235 L 257.65,-56
 L 257.309,-56.7639 L 257.136,-57.5819 L 257.136,-58.4181 L 257.309,-59.2361 L 257.65,-60 L 258.141,-60.6765
 L 258.763,-61.2361 L 259.487,-61.6542 L 260.282,-61.9126 L 261.114,-62 L 346.75,-62 L 347.986,-61.8042
 L 348.75,-61.4641 L 349.427,-60.9726 L 349.986,-60.3511 L 350.404,-59.627 L 350.663,-58.8316 L 350.75,-58
 L 350.75,-24.9367 L 350.612,-23.894 L 350.311,-23.1139 L 349.854,-22.4134 L 349.261,-21.8233 L 348.559,-21.3692
 L 347.778,-21.071 L 346.952,-20.9418 z
M 522.242,-20.9872 L 521.434,-21.2052 L 435.798,-54.2685 L 434.888,-54.7639 L 434.266,-55.3235 L 433.775,-56
 L 433.434,-56.7639 L 433.261,-57.5819 L 433.261,-58.4181 L 433.434,-59.2361 L 433.775,-60 L 434.266,-60.6765
 L 434.888,-61.2361 L 435.612,-61.6542 L 436.407,-61.9126 L 437.239,-62 L 522.875,-62 L 524.111,-61.8042
 L 524.875,-61.4641 L 525.552,-60.9726 L 526.111,-60.3511 L 526.529,-59.627 L 526.788,-58.8316 L 526.875,-58
 L 526.875,-24.9367 L 526.737,-23.894 L 526.436,-23.1139 L 525.979,-22.4134 L 525.386,-21.8233 L 524.684,-21.3692
 L 523.903,-21.071 L 523.077,-20.9418 z
M 1252.35,-21.071 L 1251.57,-21.3692 L 1250.86,-21.8233 L 1250.27,-22.4134 L 1249.81,-23.1139 L 1249.51,-23.894
 L 1249.38,-24.9367 L 1249.38,-58 L 1249.46,-58.8316 L 1249.72,-59.627 L 1250.14,-60.3511 L 1250.7,-60.9726
 L 1251.38,-61.4641 L 1252.14,-61.8042 L 1253.38,-62 L 1339.01,-62 L 1339.84,-61.9126 L 1340.64,-61.6542
 L 1341.36,-61.2361 L 1341.98,-60.6765 L 1342.48,-60 L 1342.82,-59.2361 L 1342.99,-58.4181 L 1342.99,-57.5819
 L 1342.82,-56.7639 L 1342.48,-56 L 1341.98,-55.3235 L 1341.36,-54.7639 L 1340.45,-54.2685 L 1254.82,-21.2052
 L 1254.01,-20.9872 L 1253.17,-20.9418 z
M 698.367,-20.9872 L 697.559,-21.2052 L 611.923,-54.2685 L 611.013,-54.7639 L 610.391,-55.3235 L 609.9,-56
 L 609.559,-56.7639 L 609.386,-57.5819 L 609.386,-58.4181 L 609.559,-59.2361 L 609.9,-60 L 610.391,-60.6765
 L 611.013,-61.2361 L 611.737,-61.6542 L 612.532,-61.9126 L 613.364,-62 L 699,-62 L 700.236,-61.8042
 L 701,-61.4641 L 701.677,-60.9726 L 702.236,-60.3511 L 702.654,-59.627 L 702.913,-58.8316 L 703,-58
 L 703,-24.9367 L 702.862,-23.894 L 702.561,-23.1139 L 702.104,-22.4134 L 701.511,-21.8233 L 700.809,-21.3692
 L 700.028,-21.071 L 699.202,-20.9418 z
M 169.992,-20.9872 L 169.184,-21.2052 L 83.548,-54.2685 L 82.6375,-54.7639 L 82.0161,-55.3235 L 81.5246,-56
 L 81.1844,-56.7639 L 81.0106,-57.5819 L 81.0106,-58.4181 L 81.1844,-59.2361 L 81.5246,-60 L 82.0161,-60.6765
 L 82.6375,-61.2361 L 83.3617,-61.6542 L 84.157,-61.9126 L 84.9887,-62 L 170.625,-62 L 171.861,-61.8042
 L 172.625,-61.4641 L 173.302,-60.9726 L 173.861,-60.3511 L 174.279,-59.627 L 174.538,-58.8316 L 174.625,-58
 L 174.625,-24.9367 L 174.487,-23.894 L 174.186,-23.1139 L 173.729,-22.4134 L 173.136,-21.8233 L 172.434,-21.3692
 L 171.653,-21.071 L 170.827,-20.9418 z
M 723.972,-21.071 L 723.191,-21.3692 L 722.489,-21.8233 L 721.896,-22.4134 L 721.439,-23.1139 L 721.138,-23.894
 L 721,-24.9367 L 721,-58 L 721.087,-58.8316 L 721.346,-59.627 L 721.764,-60.3511 L 722.323,-60.9726
 L 723,-61.4641 L 723.764,-61.8042 L 725,-62 L 810.636,-62 L 811.468,-61.9126 L 812.263,-61.6542
 L 812.987,-61.2361 L 813.609,-60.6765 L 814.1,-60 L 814.441,-59.2361 L 814.614,-58.4181 L 814.614,-57.5819
 L 814.441,-56.7639 L 814.1,-56 L 813.609,-55.3235 L 812.987,-54.7639 L 812.077,-54.2685 L 726.441,-21.2052
 L 725.633,-20.9872 L 724.798,-20.9418 z
M 900.097,-21.071 L 899.316,-21.3692 L 898.614,-21.8233 L 898.021,-22.4134 L 897.564,-23.1139 L 897.263,-23.894
 L 897.125,-24.9367 L 897.125,-58 L 897.212,-58.8316 L 897.471,-59.627 L 897.889,-60.3511 L 898.448,-60.9726
 L 899.125,-61.4641 L 899.889,-61.8042 L 901.125,-62 L 986.761,-62 L 987.593,-61.9126 L 988.388,-61.6542
 L 989.112,-61.2361 L 989.734,-60.6765 L 990.225,-60 L 990.566,-59.2361 L 990.739,-58.4181 L 990.739,-57.5819
 L 990.566,-56.7639 L 990.225,-56 L 989.734,-55.3235 L 989.112,-54.7639 L 988.202,-54.2685 L 902.566,-21.2052
 L 901.758,-20.9872 L 900.923,-20.9418 z
M 1076.22,-21.071 L 1075.44,-21.3692 L 1074.74,-21.8233 L 1074.15,-22.4134 L 1073.69,-23.1139 L 1073.39,-23.894
 L 1073.25,-24.9367 L 1073.25,-58 L 1073.34,-58.8316 L 1073.6,-59.627 L 1074.01,-60.3511 L 1074.57,-60.9726
 L 1075.25,-61.4641 L 1076.01,-61.8042 L 1077.25,-62 L 1162.89,-62 L 1163.72,-61.9126 L 1164.51,-61.6542
 L 1165.24,-61.2361 L 1165.86,-60.6765 L 1166.35,-60 L 1166.69,-59.2361 L 1166.86,-58.4181 L 1166.86,-57.5819
 L 1166.69,-56.7639 L 1166.35,-56 L 1165.86,-55.3235 L 1165.24,-54.7639 L 1164.33,-54.2685 L 1078.69,-21.2052
 L 1077.88,-20.9872 L 1077.05,-20.9418 z
M 196.625,-18 L 195.389,-18.1958 L 194.625,-18.5359 L 193.948,-19.0274 L 193.389,-19.6489 L 192.971,-20.373
 L 192.712,-21.1684 L 192.625,-22 L 192.625,-55.0633 L 192.763,-56.106 L 193.064,-56.8861 L 193.521,-57.5866
 L 194.114,-58.1767 L 194.816,-58.6308 L 195.597,-58.929 L 196.423,-59.0582 L 197.258,-59.0128 L 198.066,-58.7948
 L 283.702,-25.7315 L 284.612,-25.2361 L 285.234,-24.6765 L 285.725,-24 L 286.066,-23.2361 L 286.239,-22.4181
 L 286.239,-21.5819 L 286.066,-20.7639 L 285.725,-20 L 285.234,-19.3235 L 284.612,-18.7639 L 283.888,-18.3458
 L 283.093,-18.0874 L 282.261,-18 z
M 372.75,-18 L 371.514,-18.1958 L 370.75,-18.5359 L 370.073,-19.0274 L 369.514,-19.6489 L 369.096,-20.373
 L 368.837,-21.1684 L 368.75,-22 L 368.75,-55.0633 L 368.888,-56.106 L 369.189,-56.8861 L 369.646,-57.5866
 L 370.239,-58.1767 L 370.941,-58.6308 L 371.722,-58.929 L 372.548,-59.0582 L 373.383,-59.0128 L 374.191,-58.7948
 L 459.827,-25.7315 L 460.737,-25.2361 L 461.359,-24.6765 L 461.85,-24 L 462.191,-23.2361 L 462.364,-22.4181
 L 462.364,-21.5819 L 462.191,-20.7639 L 461.85,-20 L 461.359,-19.3235 L 460.737,-18.7639 L 460.013,-18.3458
 L 459.218,-18.0874 L 458.386,-18 z
M 548.875,-18 L 547.639,-18.1958 L 546.875,-18.5359 L 546.198,-19.0274 L 545.639,-19.6489 L 545.221,-20.373
 L 544.962,-21.1684 L 544.875,-22 L 544.875,-55.0633 L 545.013,-56.106 L 545.314,-56.8861 L 545.771,-57.5866
 L 546.364,-58.1767 L 547.066,-58.6308 L 547.847,-58.929 L 548.673,-59.0582 L 549.508,-59.0128 L 550.316,-58.7948
 L 635.952,-25.7315 L 636.862,-25.2361 L 637.484,-24.6765 L 637.975,-24 L 638.316,-23.2361 L 638.489,-22.4181
 L 638.489,-21.5819 L 638.316,-20.7639 L 637.975,-20 L 637.484,-19.3235 L 636.862,-18.7639 L 636.138,-18.3458
 L 635.343,-18.0874 L 634.511,-18 z
M 789.489,-18 L 788.657,-18.0874 L 787.862,-18.3458 L 787.138,-18.7639 L 786.516,-19.3235 L 786.025,-20
 L 785.684,-20.7639 L 785.511,-21.5819 L 785.511,-22.4181 L 785.684,-23.2361 L 786.025,-24 L 786.516,-24.6765
 L 787.138,-25.2361 L 788.048,-25.7315 L 873.684,-58.7948 L 874.492,-59.0128 L 875.327,-59.0582 L 876.153,-58.929
 L 876.934,-58.6308 L 877.636,-58.1767 L 878.229,-57.5866 L 878.686,-56.8861 L 878.987,-56.106 L 879.125,-55.0633
 L 879.125,-22 L 879.038,-21.1684 L 878.779,-20.373 L 878.361,-19.6489 L 877.802,-19.0274 L 877.125,-18.5359
 L 876.361,-18.1958 L 875.125,-18 z
M 965.614,-18 L 964.782,-18.0874 L 963.987,-18.3458 L 963.263,-18.7639 L 962.641,-19.3235 L 962.15,-20
 L 961.809,-20.7639 L 961.636,-21.5819 L 961.636,-22.4181 L 961.809,-23.2361 L 962.15,-24 L 962.641,-24.6765
 L 963.263,-25.2361 L 964.173,-25.7315 L 1049.81,-58.7948 L 1050.62,-59.0128 L 1051.45,-59.0582 L 1052.28,-58.929
 L 1053.06,-58.6308 L 1053.76,-58.1767 L 1054.35,-57.5866 L 1054.81,-56.8861 L 1055.11,-56.106 L 1055.25,-55.0633
 L 1055.25,-22 L 1055.16,-21.1684 L 1054.9,-20.373 L 1054.49,-19.6489 L 1053.93,-19.0274 L 1053.25,-18.5359
 L 1052.49,-18.1958 L 1051.25,-18 z
M 1141.74,-18 L 1140.91,-18.0874 L 1140.11,-18.3458 L 1139.39,-18.7639 L 1138.77,-19.3235 L 1138.27,-20
 L 1137.93,-20.7639 L 1137.76,-21.5819 L 1137.76,-22.4181 L 1137.93,-23.2361 L 1138.27,-24 L 1138.77,-24.6765
 L 1139.39,-25.2361 L 1140.3,-25.7315 L 1225.93,-58.7948 L 1226.74,-59.0128 L 1227.58,-59.0582 L 1228.4,-58.929
 L 1229.18,-58.6308 L 1229.89,-58.1767 L 1230.48,-57.5866 L 1230.94,-56.8861 L 1231.24,-56.106 L 1231.38,-55.0633
 L 1231.38,-22 L 1231.29,-21.1684 L 1231.03,-20.373 L 1230.61,-19.6489 L 1230.05,-19.0274 L 1229.38,-18.5359
 L 1228.61,-18.1958 L 1227.38,-18 z
M 1317.86,-18 L 1317.03,-18.0874 L 1316.24,-18.3458 L 1315.51,-18.7639 L 1314.89,-19.3235 L 1314.4,-20
 L 1314.06,-20.7639 L 1313.89,-21.5819 L 1313.89,-22.4181 L 1314.06,-23.2361 L 1314.4,-24 L 1314.89,-24.6765
 L 1315.51,-25.2361 L 1316.42,-25.7315 L 1400.56,-58.2157 L 1401.37,-58.4337 L 1402.2,-58.479 L 1403.03,-58.3498
 L 1403.81,-58.0517 L 1404.51,-57.5976 L 1405.1,-57.0074 L 1405.56,-56.307 L 1405.86,-55.5269 L 1406,-54.4841
 L 1406,-22 L 1405.91,-21.1684 L 1405.65,-20.373 L 1405.24,-19.6489 L 1404.68,-19.0274 L 1404,-18.5359
 L 1403.24,-18.1958 L 1402,-18 z
M 22,-18 L 20.7639,-18.1958 L 20,-18.5359 L 19.3235,-19.0274 L 18.7639,-19.6489 L 18.3458,-20.373
 L 18.0874,-21.1684 L 18,-22 L 18,-54.4841 L 18.1383,-55.5269 L 18.4395,-56.307 L 18.8963,-57.0074
 L 19.4888,-57.5976 L 20.1909,-58.0517 L 20.9722,-58.3498 L 21.7984,-58.479 L 22.6334,-58.4337 L 23.4407,-58.2157
 L 107.577,-25.7315 L 108.487,-25.2361 L 109.109,-24.6765 L 109.6,-24 L 109.941,-23.2361 L 110.114,-22.4181
 L 110.114,-21.5819 L 109.941,-20.7639 L 109.6,-20 L 109.109,-19.3235 L 108.487,-18.7639 L 107.763,-18.3458
 L 106.968,-18.0874 L 106.136,-18 z
" stroke="black" fill="lightgray" stroke-width="0.5"/>
</svg>
