<?xml version="1.0" standalone="no"?>
<!DOCTYPE svg PUBLIC "-//W3C//DTD SVG 1.1//EN" "http://www.w3.org/Graphics/SVG/1.1/DTD/svg11.dtd">
<svg width="1085mm" height="80mm" viewBox="0 -80 1085 80" xmlns="http://www.w3.org/2000/svg" version="1.1">
<title>OpenSCAD Model</title>
<path d="
M 1085,-80 L 0,-80 L 0,-0 L 4.95,-0 L 4.95,-6 L 5.00572,-6.53017
 L 5.17046,-7.03717 L 5.437,-7.49884 L 5.79372,-7.895 L 6.22499,-8.20836 L 6.71201,-8.42519 L 7.23344,-8.53603
 L 7.76654,-8.53603 L 8.28798,-8.42519 L 8.77499,-8.20836 L 9.20627,-7.895 L 9.56299,-7.49884 L 9.82953,-7.03717
 L 9.99426,-6.53017 L 10.05,-6 L 10.05,-0 L 183.283,-0 L 183.283,-6 L 183.339,-6.53017
 L 183.504,-7.03717 L 183.77,-7.49884 L 184.127,-7.895 L 184.558,-8.20836 L 185.045,-8.42519 L 185.567,-8.53603
 L 186.1,-8.53603 L 186.621,-8.42519 L 187.108,-8.20836 L 187.54,-7.895 L 187.896,-7.49884 L 188.163,-7.03717
 L 188.328,-6.53017 L 188.383,-6 L 188.383,-0 L 361.617,-0 L 361.617,-6 L 361.672,-6.53017
 L 361.837,-7.03717 L 362.104,-7.49884 L 362.46,-7.895 L 362.892,-8.20836 L 363.379,-8.42519 L 363.9,-8.53603
 L 364.433,-8.53603 L 364.955,-8.42519 L 365.442,-8.20836 L 365.873,-7.895 L 366.23,-7.49884 L 366.496,-7.03717
 L 366.661,-6.53017 L 366.717,-6 L 366.717,-0 L 539.95,-0 L 539.95,-6 L 540.006,-6.53017
 L 540.17,-7.03717 L 540.437,-7.49884 L 540.794,-7.895 L 541.225,-8.20836 L 541.712,-8.42519 L 542.233,-8.53603
 L 542.767,-8.53603 L 543.288,-8.42519 L 543.775,-8.20836 L 544.206,-7.895 L 544.563,-7.49884 L 544.83,-7.03717
 L 544.994,-6.53017 L 545.05,-6 L 545.05,-0 L 718.283,-0 L 718.283,-6 L 718.339,-6.53017
 L 718.504,-7.03717 L 718.77,-7.49884 L 719.127,-7.895 L 719.558,-8.20836 L 720.045,-8.42519 L 720.567,-8.53603
 L 721.1,-8.53603 L 721.621,-8.42519 L 722.108,-8.20836 L 722.54,-7.895 L 722.896,-7.49884 L 723.163,-7.03717
 L 723.328,-6.53017 L 723.383,-6 L 723.383,-0 L 896.617,-0 L 896.617,-6 L 896.672,-6.53017
 L 896.837,-7.03717 L 897.104,-7.49884 L 897.46,-7.895 L 897.892,-8.20836 L 898.379,-8.42519 L 898.9,-8.53603
 L 899.433,-8.53603 L 899.955,-8.42519 L 900.442,-8.20836 L 900.873,-7.895 L 901.23,-7.49884 L 901.496,-7.03717
 L 901.661,-6.53017 L 901.717,-6 L 901.717,-0 L 1074.95,-0 L 1074.95,-6 L 1075.01,-6.53017
 L 1075.17,-7.03717 L 1075.44,-7.49884 L 1075.79,-7.895 L 1076.22,-8.20836 L 1076.71,-8.42519 L 1077.23,-8.53603
 L 1077.77,-8.53603 L 1078.29,-8.42519 L 1078.77,-8.20836 L 1079.21,-7.895 L 1079.56,-7.49884 L 1079.83,-7.03717
 L 1079.99,-6.53017 L 1080.05,-6 L 1080.05,-0 L 1085,-0 z
M 6.98573,-55.607 L 6.47708,-55.6875 L 5.97964,-55.8208 L 5.49887,-56.0054 L 5.04001,-56.2392 L 4.60811,-56.5196
 L 4.20789,-56.8437 L 3.84373,-57.2079 L 3.51964,-57.6081 L 3.23917,-58.04 L 3.00537,-58.4989 L 2.82082,-58.9796
 L 2.68752,-59.4771 L 2.60696,-59.9857 L 2.58,-60.5 L 2.60696,-61.0143 L 2.68752,-61.5229 L 2.82082,-62.0204
 L 3.00537,-62.5011 L 3.23917,-62.96 L 3.51964,-63.3919 L 3.84373,-63.7921 L 4.20789,-64.1563 L 4.60811,-64.4804
 L 4.95001,-64.7024 L 4.95001,-74 L 5.00574,-74.5302 L 5.17047,-75.0372 L 5.43701,-75.4988 L 5.79373,-75.895
 L 6.22501,-76.2084 L 6.71202,-76.4252 L 7.23346,-76.536 L 7.76654,-76.536 L 8.28798,-76.4252 L 8.77499,-76.2084
 L 9.20627,-75.895 L 9.56299,-75.4988 L 9.82953,-75.0372 L 9.99426,-74.5302 L 10.05,-74 L 10.05,-64.7024
 L 10.3919,-64.4804 L 10.7921,-64.1563 L 11.1563,-63.7921 L 11.4804,-63.3919 L 11.7608,-62.96 L 11.9946,-62.5011
 L 12.1792,-62.0204 L 12.3125,-61.5229 L 12.393,-61.0143 L 12.42,-60.5 L 12.393,-59.9857 L 12.3125,-59.4771
 L 12.1792,-58.9796 L 11.9946,-58.4989 L 11.7608,-58.04 L 11.4804,-57.6081 L 11.1563,-57.2079 L 10.7921,-56.8437
 L 10.3919,-56.5196 L 9.95999,-56.2392 L 9.50113,-56.0054 L 9.02036,-55.8208 L 8.52292,-55.6875 L 8.01427,-55.607
 L 7.5,-55.58 z
M 185.319,-55.607 L 184.81,-55.6875 L 184.313,-55.8208 L 183.832,-56.0054 L 183.373,-56.2392 L 182.941,-56.5196
 L 182.541,-56.8437 L 182.177,-57.2079 L 181.853,-57.6081 L 181.572,-58.04 L 181.339,-58.4989 L 181.154,-58.9796
 L 181.021,-59.4771 L 180.94,-59.9857 L 180.913,-60.5 L 180.94,-61.0143 L 181.021,-61.5229 L 181.154,-62.0204
 L 181.339,-62.5011 L 181.572,-62.96 L 181.853,-63.3919 L 182.177,-63.7921 L 182.541,-64.1563 L 182.941,-64.4804
 L 183.283,-64.7024 L 183.283,-74 L 183.339,-74.5302 L 183.504,-75.0372 L 183.77,-75.4988 L 184.127,-75.895
 L 184.558,-76.2084 L 185.045,-76.4252 L 185.567,-76.536 L 186.1,-76.536 L 186.621,-76.4252 L 187.108,-76.2084
 L 187.54,-75.895 L 187.896,-75.4988 L 188.163,-75.0372 L 188.328,-74.5302 L 188.383,-74 L 188.383,-64.7024
 L 188.725,-64.4804 L 189.125,-64.1563 L 189.49,-63.7921 L 189.814,-63.3919 L 190.094,-62.96 L 190.328,-62.5011
 L 190.513,-62.0204 L 190.646,-61.5229 L 190.726,-61.0143 L 190.753,-60.5 L 190.726,-59.9857 L 190.646,-59.4771
 L 190.513,-58.9796 L 190.328,-58.4989 L 190.094,-58.04 L 189.814,-57.6081 L 189.49,-57.2079 L 189.125,-56.8437
 L 188.725,-56.5196 L 188.293,-56.2392 L 187.834,-56.0054 L 187.354,-55.8208 L 186.856,-55.6875 L 186.348,-55.607
 L 185.833,-55.58 z
M 363.652,-55.607 L 363.144,-55.6875 L 362.646,-55.8208 L 362.166,-56.0054 L 361.707,-56.2392 L 361.275,-56.5196
 L 360.875,-56.8437 L 360.51,-57.2079 L 360.186,-57.6081 L 359.906,-58.04 L 359.672,-58.4989 L 359.487,-58.9796
 L 359.354,-59.4771 L 359.274,-59.9857 L 359.247,-60.5 L 359.274,-61.0143 L 359.354,-61.5229 L 359.487,-62.0204
 L 359.672,-62.5011 L 359.906,-62.96 L 360.186,-63.3919 L 360.51,-63.7921 L 360.875,-64.1563 L 361.275,-64.4804
 L 361.617,-64.7024 L 361.617,-74 L 361.672,-74.5302 L 361.837,-75.0372 L 362.104,-75.4988 L 362.46,-75.895
 L 362.892,-76.2084 L 363.379,-76.4252 L 363.9,-76.536 L 364.433,-76.536 L 364.955,-76.4252 L 365.442,-76.2084
 L 365.873,-75.895 L 366.23,-75.4988 L 366.496,-75.0372 L 366.661,-74.5302 L 366.717,-74 L 366.717,-64.7024
 L 367.059,-64.4804 L 367.459,-64.1563 L 367.823,-63.7921 L 368.147,-63.3919 L 368.427,-62.96 L 368.661,-62.5011
 L 368.846,-62.0204 L 368.979,-61.5229 L 369.06,-61.0143 L 369.087,-60.5 L 369.06,-59.9857 L 368.979,-59.4771
 L 368.846,-58.9796 L 368.661,-58.4989 L 368.427,-58.04 L 368.147,-57.6081 L 367.823,-57.2079 L 367.459,-56.8437
 L 367.059,-56.5196 L 366.627,-56.2392 L 366.168,-56.0054 L 365.687,-55.8208 L 365.19,-55.6875 L 364.681,-55.607
 L 364.167,-55.58 z
M 541.986,-55.607 L 541.477,-55.6875 L 540.98,-55.8208 L 540.499,-56.0054 L 540.04,-56.2392 L 539.608,-56.5196
 L 539.208,-56.8437 L 538.844,-57.2079 L 538.52,-57.6081 L 538.239,-58.04 L 538.005,-58.4989 L 537.821,-58.9796
 L 537.688,-59.4771 L 537.607,-59.9857 L 537.58,-60.5 L 537.607,-61.0143 L 537.688,-61.5229 L 537.821,-62.0204
 L 538.005,-62.5011 L 538.239,-62.96 L 538.52,-63.3919 L 538.844,-63.7921 L 539.208,-64.1563 L 539.608,-64.4804
 L 539.95,-64.7024 L 539.95,-74 L 540.006,-74.5302 L 540.17,-75.0372 L 540.437,-75.4988 L 540.794,-75.895
 L 541.225,-76.2084 L 541.712,-76.4252 L 542.233,-76.536 L 542.767,-76.536 L 543.288,-76.4252 L 543.775,-76.2084
 L 544.206,-75.895 L 544.563,-75.4988 L 544.83,-75.0372 L 544.994,-74.5302 L 545.05,-74 L 545.05,-64.7024
 L 545.392,-64.4804 L 545.792,-64.1563 L 546.156,-63.7921 L 546.48,-63.3919 L 546.761,-62.96 L 546.995,-62.5011
 L 547.179,-62.0204 L 547.312,-61.5229 L 547.393,-61.0143 L 547.42,-60.5 L 547.393,-59.9857 L 547.312,-59.4771
 L 547.179,-58.9796 L 546.995,-58.4989 L 546.761,-58.04 L 546.48,-57.6081 L 546.156,-57.2079 L 545.792,-56.8437
 L 545.392,-56.5196 L 544.96,-56.2392 L 544.501,-56.0054 L 544.02,-55.8208 L 543.523,-55.6875 L 543.014,-55.607
 L 542.5,-55.58 z
M 720.319,-55.607 L 719.81,-55.6875 L 719.313,-55.8208 L 718.832,-56.0054 L 718.373,-56.2392 L 717.941,-56.5196
 L 717.541,-56.8437 L 717.177,-57.2079 L 716.853,-57.6081 L 716.572,-58.04 L 716.339,-58.4989 L 716.154,-58.9796
 L 716.021,-59.4771 L 715.94,-59.9857 L 715.913,-60.5 L 715.94,-61.0143 L 716.021,-61.5229 L 716.154,-62.0204
 L 716.339,-62.5011 L 716.572,-62.96 L 716.853,-63.3919 L 717.177,-63.7921 L 717.541,-64.1563 L 717.941,-64.4804
 L 718.283,-64.7024 L 718.283,-74 L 718.339,-74.5302 L 718.504,-75.0372 L 718.77,-75.4988 L 719.127,-75.895
 L 719.558,-76.2084 L 720.045,-76.4252 L 720.567,-76.536 L 721.1,-76.536 L 721.621,-76.4252 L 722.108,-76.2084
 L 722.54,-75.895 L 722.896,-75.4988 L 723.163,-75.0372 L 723.328,-74.5302 L 723.383,-74 L 723.383,-64.7024
 L 723.725,-64.4804 L 724.125,-64.1563 L 724.49,-63.7921 L 724.814,-63.3919 L 725.094,-62.96 L 725.328,-62.5011
 L 725.513,-62.0204 L 725.646,-61.5229 L 725.726,-61.0143 L 725.753,-60.5 L 725.726,-59.9857 L 725.646,-59.4771
 L 725.513,-58.9796 L 725.328,-58.4989 L 725.094,-58.04 L 724.814,-57.6081 L 724.49,-57.2079 L 724.125,-56.8437
 L 723.725,-56.5196 L 723.293,-56.2392 L 722.834,-56.0054 L 722.354,-55.8208 L 721.856,-55.6875 L 721.348,-55.607
 L 720.833,-55.58 z
M 898.652,-55.607 L 898.144,-55.6875 L 897.646,-55.8208 L 897.166,-56.0054 L 896.707,-56.2392 L 896.275,-56.5196
 L 895.875,-56.8437 L 895.51,-57.2079 L 895.186,-57.6081 L 894.906,-58.04 L 894.672,-58.4989 L 894.487,-58.9796
 L 894.354,-59.4771 L 894.274,-59.9857 L 894.247,-60.5 L 894.274,-61.0143 L 894.354,-61.5229 L 894.487,-62.0204
 L 894.672,-62.5011 L 894.906,-62.96 L 895.186,-63.3919 L 895.51,-63.7921 L 895.875,-64.1563 L 896.275,-64.4804
 L 896.617,-64.7024 L 896.617,-74 L 896.672,-74.5302 L 896.837,-75.0372 L 897.104,-75.4988 L 897.46,-75.895
 L 897.892,-76.2084 L 898.379,-76.4252 L 898.9,-76.536 L 899.433,-76.536 L 899.955,-76.4252 L 900.442,-76.2084
 L 900.873,-75.895 L 901.23,-75.4988 L 901.496,-75.0372 L 901.661,-74.5302 L 901.717,-74 L 901.717,-64.7024
 L 902.059,-64.4804 L 902.459,-64.1563 L 902.823,-63.7921 L 903.147,-63.3919 L 903.427,-62.96 L 903.661,-62.5011
 L 903.846,-62.0204 L 903.979,-61.5229 L 904.06,-61.0143 L 904.087,-60.5 L 904.06,-59.9857 L 903.979,-59.4771
 L 903.846,-58.9796 L 903.661,-58.4989 L 903.427,-58.04 L 903.147,-57.6081 L 902.823,-57.2079 L 902.459,-56.8437
 L 902.059,-56.5196 L 901.627,-56.2392 L 901.168,-56.0054 L 900.687,-55.8208 L 900.19,-55.6875 L 899.681,-55.607
 L 899.167,-55.58 z
M 1076.99,-55.607 L 1076.48,-55.6875 L 1075.98,-55.8208 L 1075.5,-56.0054 L 1075.04,-56.2392 L 1074.61,-56.5196
 L 1074.21,-56.8437 L 1073.84,-57.2079 L 1073.52,-57.6081 L 1073.24,-58.04 L 1073.01,-58.4989 L 1072.82,-58.9796
 L 1072.69,-59.4771 L 1072.61,-59.9857 L 1072.58,-60.5 L 1072.61,-61.0143 L 1072.69,-61.5229 L 1072.82,-62.0204
 L 1073.01,-62.5011 L 1073.24,-62.96 L 1073.52,-63.3919 L 1073.84,-63.7921 L 1074.21,-64.1563 L 1074.61,-64.4804
 L 1074.95,-64.7024 L 1074.95,-74 L 1075.01,-74.5302 L 1075.17,-75.0372 L 1075.44,-75.4988 L 1075.79,-75.895
 L 1076.23,-76.2084 L 1076.71,-76.4252 L 1077.23,-76.536 L 1077.77,-76.536 L 1078.29,-76.4252 L 1078.77,-76.2084
 L 1079.21,-75.895 L 1079.56,-75.4988 L 1079.83,-75.0372 L 1079.99,-74.5302 L 1080.05,-74 L 1080.05,-64.7024
 L 1080.39,-64.4804 L 1080.79,-64.1563 L 1081.16,-63.7921 L 1081.48,-63.3919 L 1081.76,-62.96 L 1081.99,-62.5011
 L 1082.18,-62.0204 L 1082.31,-61.5229 L 1082.39,-61.0143 L 1082.42,-60.5 L 1082.39,-59.9857 L 1082.31,-59.4771
 L 1082.18,-58.9796 L 1081.99,-58.4989 L 1081.76,-58.04 L 1081.48,-57.6081 L 1081.16,-57.2079 L 1080.79,-56.8437
 L 1080.39,-56.5196 L 1079.96,-56.2392 L 1079.5,-56.0054 L 1079.02,-55.8208 L 1078.52,-55.6875 L 1078.01,-55.607
 L 1077.5,-55.58 z
M 911.123,-20.9911 L 910.343,-21.2926 L 909.642,-21.7496 L 909.052,-22.3422 L 908.599,-23.0445 L 908.301,-23.8259
 L 908.167,-24.8525 L 908.167,-58 L 908.254,-58.8316 L 908.512,-59.627 L 908.931,-60.3511 L 909.49,-60.9726
 L 910.167,-61.4641 L 910.931,-61.8042 L 912.167,-62 L 999.098,-62 L 999.929,-61.9126 L 1000.72,-61.6542
 L 1001.45,-61.2361 L 1002.07,-60.6765 L 1002.56,-60 L 1002.9,-59.2361 L 1003.08,-58.4181 L 1003.08,-57.5819
 L 1002.9,-56.7639 L 1002.56,-56 L 1002.07,-55.3235 L 1001.45,-54.7639 L 1000.52,-54.2625 L 913.592,-21.115
 L 912.784,-20.9004 L 911.948,-20.8585 z
M 350.55,-20.9004 L 349.742,-21.115 L 262.811,-54.2625 L 261.885,-54.7639 L 261.263,-55.3235 L 260.772,-56
 L 260.432,-56.7639 L 260.258,-57.5819 L 260.258,-58.4181 L 260.432,-59.2361 L 260.772,-60 L 261.263,-60.6765
 L 261.885,-61.2361 L 262.609,-61.6542 L 263.404,-61.9126 L 264.236,-62 L 351.167,-62 L 352.403,-61.8042
 L 353.167,-61.4641 L 353.843,-60.9726 L 354.403,-60.3511 L 354.821,-59.627 L 355.079,-58.8316 L 355.167,-58
 L 355.167,-24.8525 L 355.033,-23.8259 L 354.735,-23.0445 L 354.281,-22.3422 L 353.691,-21.7496 L 352.991,-21.2926
 L 352.211,-20.9911 L 351.385,-20.8585 z
M 172.216,-20.9004 L 171.408,-21.115 L 84.4773,-54.2625 L 83.5513,-54.7639 L 82.9299,-55.3235 L 82.4384,-56
 L 82.0982,-56.7639 L 81.9244,-57.5819 L 81.9244,-58.4181 L 82.0982,-59.2361 L 82.4384,-60 L 82.9299,-60.6765
 L 83.5513,-61.2361 L 84.2755,-61.6542 L 85.0708,-61.9126 L 85.9025,-62 L 172.833,-62 L 174.069,-61.8042
 L 174.833,-61.4641 L 175.51,-60.9726 L 176.069,-60.3511 L 176.488,-59.627 L 176.746,-58.8316 L 176.833,-58
 L 176.833,-24.8525 L 176.699,-23.8259 L 176.401,-23.0445 L 175.948,-22.3422 L 175.358,-21.7496 L 174.657,-21.2926
 L 173.877,-20.9911 L 173.052,-20.8585 z
M 528.883,-20.9004 L 528.075,-21.115 L 441.144,-54.2625 L 440.218,-54.7639 L 439.597,-55.3235 L 439.105,-56
 L 438.765,-56.7639 L 438.591,-57.5819 L 438.591,-58.4181 L 438.765,-59.2361 L 439.105,-60 L 439.597,-60.6765
 L 440.218,-61.2361 L 440.942,-61.6542 L 441.737,-61.9126 L 442.569,-62 L 529.5,-62 L 530.736,-61.8042
 L 531.5,-61.4641 L 532.177,-60.9726 L 532.736,-60.3511 L 533.154,-59.627 L 533.413,-58.8316 L 533.5,-58
 L 533.5,-24.8525 L 533.366,-23.8259 L 533.068,-23.0445 L 532.614,-22.3422 L 532.024,-21.7496 L 531.324,-21.2926
 L 530.544,-20.9911 L 529.718,-20.8585 z
M 554.456,-20.9911 L 553.676,-21.2926 L 552.976,-21.7496 L 552.386,-22.3422 L 551.932,-23.0445 L 551.634,-23.8259
 L 551.5,-24.8525 L 551.5,-58 L 551.587,-58.8316 L 551.846,-59.627 L 552.264,-60.3511 L 552.823,-60.9726
 L 553.5,-61.4641 L 554.264,-61.8042 L 555.5,-62 L 642.431,-62 L 643.263,-61.9126 L 644.058,-61.6542
 L 644.782,-61.2361 L 645.403,-60.6765 L 645.895,-60 L 646.235,-59.2361 L 646.409,-58.4181 L 646.409,-57.5819
 L 646.235,-56.7639 L 645.895,-56 L 645.403,-55.3235 L 644.782,-54.7639 L 643.856,-54.2625 L 556.925,-21.115
 L 556.117,-20.9004 L 555.282,-20.8585 z
M 732.789,-20.9911 L 732.009,-21.2926 L 731.309,-21.7496 L 730.719,-22.3422 L 730.265,-23.0445 L 729.967,-23.8259
 L 729.833,-24.8525 L 729.833,-58 L 729.921,-58.8316 L 730.179,-59.627 L 730.597,-60.3511 L 731.157,-60.9726
 L 731.833,-61.4641 L 732.597,-61.8042 L 733.833,-62 L 820.764,-62 L 821.596,-61.9126 L 822.391,-61.6542
 L 823.115,-61.2361 L 823.737,-60.6765 L 824.228,-60 L 824.568,-59.2361 L 824.742,-58.4181 L 824.742,-57.5819
 L 824.568,-56.7639 L 824.228,-56 L 823.737,-55.3235 L 823.115,-54.7639 L 822.189,-54.2625 L 735.258,-21.115
 L 734.45,-20.9004 L 733.615,-20.8585 z
M 198.833,-18 L 197.597,-18.1958 L 196.833,-18.5359 L 196.157,-19.0274 L 195.597,-19.6489 L 195.179,-20.373
 L 194.921,-21.1684 L 194.833,-22 L 194.833,-55.1475 L 194.967,-56.1741 L 195.265,-56.9555 L 195.719,-57.6578
 L 196.309,-58.2504 L 197.009,-58.7074 L 197.789,-59.0089 L 198.615,-59.1415 L 199.45,-59.0996 L 200.258,-58.885
 L 287.189,-25.7375 L 288.115,-25.2361 L 288.737,-24.6765 L 289.228,-24 L 289.568,-23.2361 L 289.742,-22.4181
 L 289.742,-21.5819 L 289.568,-20.7639 L 289.228,-20 L 288.737,-19.3235 L 288.115,-18.7639 L 287.391,-18.3458
 L 286.596,-18.0874 L 285.764,-18 z
M 377.167,-18 L 375.931,-18.1958 L 375.167,-18.5359 L 374.49,-19.0274 L 373.931,-19.6489 L 373.512,-20.373
 L 373.254,-21.1684 L 373.167,-22 L 373.167,-55.1475 L 373.301,-56.1741 L 373.599,-56.9555 L 374.052,-57.6578
 L 374.642,-58.2504 L 375.343,-58.7074 L 376.123,-59.0089 L 376.948,-59.1415 L 377.784,-59.0996 L 378.592,-58.885
 L 465.523,-25.7375 L 466.449,-25.2361 L 467.07,-24.6765 L 467.562,-24 L 467.902,-23.2361 L 468.076,-22.4181
 L 468.076,-21.5819 L 467.902,-20.7639 L 467.562,-20 L 467.07,-19.3235 L 466.449,-18.7639 L 465.724,-18.3458
 L 464.929,-18.0874 L 464.097,-18 z
M 620.902,-18 L 620.071,-18.0874 L 619.276,-18.3458 L 618.551,-18.7639 L 617.93,-19.3235 L 617.438,-20
 L 617.098,-20.7639 L 616.924,-21.5819 L 616.924,-22.4181 L 617.098,-23.2361 L 617.438,-24 L 617.93,-24.6765
 L 618.551,-25.2361 L 619.477,-25.7375 L 706.408,-58.885 L 707.216,-59.0996 L 708.052,-59.1415 L 708.877,-59.0089
 L 709.657,-58.7074 L 710.358,-58.2504 L 710.948,-57.6578 L 711.401,-56.9555 L 711.699,-56.1741 L 711.833,-55.1475
 L 711.833,-22 L 711.746,-21.1684 L 711.488,-20.373 L 711.069,-19.6489 L 710.51,-19.0274 L 709.833,-18.5359
 L 709.069,-18.1958 L 707.833,-18 z
M 799.236,-18 L 798.404,-18.0874 L 797.609,-18.3458 L 796.885,-18.7639 L 796.263,-19.3235 L 795.772,-20
 L 795.432,-20.7639 L 795.258,-21.5819 L 795.258,-22.4181 L 795.432,-23.2361 L 795.772,-24 L 796.263,-24.6765
 L 796.885,-25.2361 L 797.811,-25.7375 L 884.742,-58.885 L 885.55,-59.0996 L 886.385,-59.1415 L 887.211,-59.0089
 L 887.991,-58.7074 L 888.691,-58.2504 L 889.281,-57.6578 L 889.735,-56.9555 L 890.033,-56.1741 L 890.167,-55.1475
 L 890.167,-22 L 890.079,-21.1684 L 889.821,-20.373 L 889.403,-19.6489 L 888.843,-19.0274 L 888.167,-18.5359
 L 887.403,-18.1958 L 886.167,-18 z
M 977.569,-18 L 976.738,-18.0874 L 975.942,-18.3458 L 975.218,-18.7639 L 974.597,-19.3235 L 974.105,-20
 L 973.765,-20.7639 L 973.591,-21.5819 L 973.591,-22.4181 L 973.765,-23.2361 L 974.105,-24 L 974.597,-24.6765
 L 975.218,-25.2361 L 976.144,-25.7375 L 1061.57,-58.313 L 1062.38,-58.5276 L 1063.22,-58.5695 L 1064.04,-58.4369
 L 1064.82,-58.1355 L 1065.52,-57.6785 L 1066.11,-57.0858 L 1066.57,-56.3835 L 1066.87,-55.6022 L 1067,-54.5755
 L 1067,-22 L 1066.91,-21.1684 L 1066.65,-20.373 L 1066.24,-19.6489 L 1065.68,-19.0274 L 1065,-18.5359
 L 1064.24,-18.1958 L 1063,-18 z
M 22,-18 L 20.7639,-18.1958 L 20,-18.5359 L 19.3235,-19.0274 L 18.7639,-19.6489 L 18.3458,-20.373
 L 18.0874,-21.1684 L 18,-22 L 18,-54.5755 L 18.134,-55.6022 L 18.4319,-56.3835 L 18.8858,-57.0858
 L 19.4758,-57.6785 L 20.1761,-58.1355 L 20.9561,-58.4369 L 21.7818,-58.5695 L 22.6169,-58.5276 L 23.4251,-58.313
 L 108.856,-25.7375 L 109.782,-25.2361 L 110.403,-24.6765 L 110.895,-24 L 111.235,-23.2361 L 111.409,-22.4181
 L 111.409,-21.5819 L 111.235,-20.7639 L 110.895,-20 L 110.403,-19.3235 L 109.782,-18.7639 L 109.058,-18.3458
 L 108.262,-18.0874 L 107.431,-18 z
" stroke="black" fill="lightgray" stroke-width="0.5"/>
</svg>
