<?xml version="1.0" standalone="no"?>
<!DOCTYPE svg PUBLIC "-//W3C//DTD SVG 1.1//EN" "http://www.w3.org/Graphics/SVG/1.1/DTD/svg11.dtd">
<svg width="1128mm" height="80mm" viewBox="0 -80 1128 80" xmlns="http://www.w3.org/2000/svg" version="1.1">
<title>OpenSCAD Model</title>
<path d="
M 1128,-80 L 0,-80 L 0,-0 L 4.95,-0 L 4.95,-6 L 5.00572,-6.53017
 L 5.17046,-7.03717 L 5.437,-7.49884 L 5.79372,-7.895 L 6.22499,-8.20836 L 6.71201,-8.42519 L 7.23344,-8.53603
 L 7.76654,-8.53603 L 8.28798,-8.42519 L 8.77499,-8.20836 L 9.20627,-7.895 L 9.56299,-7.49884 L 9.82953,-7.03717
 L 9.99426,-6.53017 L 10.05,-6 L 10.05,-0 L 190.45,-0 L 190.45,-6 L 190.506,-6.53017
 L 190.67,-7.03717 L 190.937,-7.49884 L 191.294,-7.895 L 191.725,-8.20836 L 192.212,-8.42519 L 192.733,-8.53603
 L 193.267,-8.53603 L 193.788,-8.42519 L 194.275,-8.20836 L 194.706,-7.895 L 195.063,-7.49884 L 195.33,-7.03717
 L 195.494,-6.53017 L 195.55,-6 L 195.55,-0 L 375.95,-0 L 375.95,-6 L 376.006,-6.53017
 L 376.17,-7.03717 L 376.437,-7.49884 L 376.794,-7.895 L 377.225,-8.20836 L 377.712,-8.42519 L 378.233,-8.53603
 L 378.767,-8.53603 L 379.288,-8.42519 L 379.775,-8.20836 L 380.206,-7.895 L 380.563,-7.49884 L 380.83,-7.03717
 L 380.994,-6.53017 L 381.05,-6 L 381.05,-0 L 561.45,-0 L 561.45,-6 L 561.506,-6.53017
 L 561.67,-7.03717 L 561.937,-7.49884 L 562.294,-7.895 L 562.725,-8.20836 L 563.212,-8.42519 L 563.733,-8.53603
 L 564.267,-8.53603 L 564.788,-8.42519 L 565.275,-8.20836 L 565.706,-7.895 L 566.063,-7.49884 L 566.33,-7.03717
 L 566.494,-6.53017 L 566.55,-6 L 566.55,-0 L 746.95,-0 L 746.95,-6 L 747.006,-6.53017
 L 747.17,-7.03717 L 747.437,-7.49884 L 747.794,-7.895 L 748.225,-8.20836 L 748.712,-8.42519 L 749.233,-8.53603
 L 749.767,-8.53603 L 750.288,-8.42519 L 750.775,-8.20836 L 751.206,-7.895 L 751.563,-7.49884 L 751.83,-7.03717
 L 751.994,-6.53017 L 752.05,-6 L 752.05,-0 L 932.45,-0 L 932.45,-6 L 932.506,-6.53017
 L 932.67,-7.03717 L 932.937,-7.49884 L 933.294,-7.895 L 933.725,-8.20836 L 934.212,-8.42519 L 934.733,-8.53603
 L 935.267,-8.53603 L 935.788,-8.42519 L 936.275,-8.20836 L 936.706,-7.895 L 937.063,-7.49884 L 937.33,-7.03717
 L 937.494,-6.53017 L 937.55,-6 L 937.55,-0 L 1117.95,-0 L 1117.95,-6 L 1118.01,-6.53017
 L 1118.17,-7.03717 L 1118.44,-7.49884 L 1118.79,-7.895 L 1119.22,-8.20836 L 1119.71,-8.42519 L 1120.23,-8.53603
 L 1120.77,-8.53603 L 1121.29,-8.42519 L 1121.77,-8.20836 L 1122.21,-7.895 L 1122.56,-7.49884 L 1122.83,-7.03717
 L 1122.99,-6.53017 L 1123.05,-6 L 1123.05,-0 L 1128,-0 z
M 6.98573,-55.607 L 6.47708,-55.6875 L 5.97964,-55.8208 L 5.49887,-56.0054 L 5.04001,-56.2392 L 4.60811,-56.5196
 L 4.20789,-56.8437 L 3.84373,-57.2079 L 3.51964,-57.6081 L 3.23917,-58.04 L 3.00537,-58.4989 L 2.82082,-58.9796
 L 2.68752,-59.4771 L 2.60696,-59.9857 L 2.58,-60.5 L 2.60696,-61.0143 L 2.68752,-61.5229 L 2.82082,-62.0204
 L 3.00537,-62.5011 L 3.23917,-62.96 L 3.51964,-63.3919 L 3.84373,-63.7921 L 4.20789,-64.1563 L 4.60811,-64.4804
 L 4.95001,-64.7024 L 4.95001,-74 L 5.00574,-74.5302 L 5.17047,-75.0372 L 5.43701,-75.4988 L 5.79373,-75.895
 L 6.22501,-76.2084 L 6.71202,-76.4252 L 7.23346,-76.536 L 7.76654,-76.536 L 8.28798,-76.4252 L 8.77499,-76.2084
 L 9.20627,-75.895 L 9.56299,-75.4988 L 9.82953,-75.0372 L 9.99426,-74.5302 L 10.05,-74 L 10.05,-64.7024
 L 10.3919,-64.4804 L 10.7921,-64.1563 L 11.1563,-63.7921 L 11.4804,-63.3919 L 11.7608,-62.96 L 11.9946,-62.5011
 L 12.1792,-62.0204 L 12.3125,-61.5229 L 12.393,-61.0143 L 12.42,-60.5 L 12.393,-59.9857 L 12.3125,-59.4771
 L 12.1792,-58.9796 L 11.9946,-58.4989 L 11.7608,-58.04 L 11.4804,-57.6081 L 11.1563,-57.2079 L 10.7921,-56.8437
 L 10.3919,-56.5196 L 9.95999,-56.2392 L 9.50113,-56.0054 L 9.02036,-55.8208 L 8.52292,-55.6875 L 8.01427,-55.607
 L 7.5,-55.58 z
M 192.486,-55.607 L 191.977,-55.6875 L 191.48,-55.8208 L 190.999,-56.0054 L 190.54,-56.2392 L 190.108,-56.5196
 L 189.708,-56.8437 L 189.344,-57.2079 L 189.02,-57.6081 L 188.739,-58.04 L 188.505,-58.4989 L 188.321,-58.9796
 L 188.188,-59.4771 L 188.107,-59.9857 L 188.08,-60.5 L 188.107,-61.0143 L 188.188,-61.5229 L 188.321,-62.0204
 L 188.505,-62.5011 L 188.739,-62.96 L 189.02,-63.3919 L 189.344,-63.7921 L 189.708,-64.1563 L 190.108,-64.4804
 L 190.45,-64.7024 L 190.45,-74 L 190.506,-74.5302 L 190.67,-75.0372 L 190.937,-75.4988 L 191.294,-75.895
 L 191.725,-76.2084 L 192.212,-76.4252 L 192.733,-76.536 L 193.267,-76.536 L 193.788,-76.4252 L 194.275,-76.2084
 L 194.706,-75.895 L 195.063,-75.4988 L 195.33,-75.0372 L 195.494,-74.5302 L 195.55,-74 L 195.55,-64.7024
 L 195.892,-64.4804 L 196.292,-64.1563 L 196.656,-63.7921 L 196.98,-63.3919 L 197.261,-62.96 L 197.495,-62.5011
 L 197.679,-62.0204 L 197.812,-61.5229 L 197.893,-61.0143 L 197.92,-60.5 L 197.893,-59.9857 L 197.812,-59.4771
 L 197.679,-58.9796 L 197.495,-58.4989 L 197.261,-58.04 L 196.98,-57.6081 L 196.656,-57.2079 L 196.292,-56.8437
 L 195.892,-56.5196 L 195.46,-56.2392 L 195.001,-56.0054 L 194.52,-55.8208 L 194.023,-55.6875 L 193.514,-55.607
 L 193,-55.58 z
M 377.986,-55.607 L 377.477,-55.6875 L 376.98,-55.8208 L 376.499,-56.0054 L 376.04,-56.2392 L 375.608,-56.5196
 L 375.208,-56.8437 L 374.844,-57.2079 L 374.52,-57.6081 L 374.239,-58.04 L 374.005,-58.4989 L 373.821,-58.9796
 L 373.688,-59.4771 L 373.607,-59.9857 L 373.58,-60.5 L 373.607,-61.0143 L 373.688,-61.5229 L 373.821,-62.0204
 L 374.005,-62.5011 L 374.239,-62.96 L 374.52,-63.3919 L 374.844,-63.7921 L 375.208,-64.1563 L 375.608,-64.4804
 L 375.95,-64.7024 L 375.95,-74 L 376.006,-74.5302 L 376.17,-75.0372 L 376.437,-75.4988 L 376.794,-75.895
 L 377.225,-76.2084 L 377.712,-76.4252 L 378.233,-76.536 L 378.767,-76.536 L 379.288,-76.4252 L 379.775,-76.2084
 L 380.206,-75.895 L 380.563,-75.4988 L 380.83,-75.0372 L 380.994,-74.5302 L 381.05,-74 L 381.05,-64.7024
 L 381.392,-64.4804 L 381.792,-64.1563 L 382.156,-63.7921 L 382.48,-63.3919 L 382.761,-62.96 L 382.995,-62.5011
 L 383.179,-62.0204 L 383.312,-61.5229 L 383.393,-61.0143 L 383.42,-60.5 L 383.393,-59.9857 L 383.312,-59.4771
 L 383.179,-58.9796 L 382.995,-58.4989 L 382.761,-58.04 L 382.48,-57.6081 L 382.156,-57.2079 L 381.792,-56.8437
 L 381.392,-56.5196 L 380.96,-56.2392 L 380.501,-56.0054 L 380.02,-55.8208 L 379.523,-55.6875 L 379.014,-55.607
 L 378.5,-55.58 z
M 563.486,-55.607 L 562.977,-55.6875 L 562.48,-55.8208 L 561.999,-56.0054 L 561.54,-56.2392 L 561.108,-56.5196
 L 560.708,-56.8437 L 560.344,-57.2079 L 560.02,-57.6081 L 559.739,-58.04 L 559.505,-58.4989 L 559.321,-58.9796
 L 559.188,-59.4771 L 559.107,-59.9857 L 559.08,-60.5 L 559.107,-61.0143 L 559.188,-61.5229 L 559.321,-62.0204
 L 559.505,-62.5011 L 559.739,-62.96 L 560.02,-63.3919 L 560.344,-63.7921 L 560.708,-64.1563 L 561.108,-64.4804
 L 561.45,-64.7024 L 561.45,-74 L 561.506,-74.5302 L 561.67,-75.0372 L 561.937,-75.4988 L 562.294,-75.895
 L 562.725,-76.2084 L 563.212,-76.4252 L 563.733,-76.536 L 564.267,-76.536 L 564.788,-76.4252 L 565.275,-76.2084
 L 565.706,-75.895 L 566.063,-75.4988 L 566.33,-75.0372 L 566.494,-74.5302 L 566.55,-74 L 566.55,-64.7024
 L 566.892,-64.4804 L 567.292,-64.1563 L 567.656,-63.7921 L 567.98,-63.3919 L 568.261,-62.96 L 568.495,-62.5011
 L 568.679,-62.0204 L 568.812,-61.5229 L 568.893,-61.0143 L 568.92,-60.5 L 568.893,-59.9857 L 568.812,-59.4771
 L 568.679,-58.9796 L 568.495,-58.4989 L 568.261,-58.04 L 567.98,-57.6081 L 567.656,-57.2079 L 567.292,-56.8437
 L 566.892,-56.5196 L 566.46,-56.2392 L 566.001,-56.0054 L 565.52,-55.8208 L 565.023,-55.6875 L 564.514,-55.607
 L 564,-55.58 z
M 748.986,-55.607 L 748.477,-55.6875 L 747.98,-55.8208 L 747.499,-56.0054 L 747.04,-56.2392 L 746.608,-56.5196
 L 746.208,-56.8437 L 745.844,-57.2079 L 745.52,-57.6081 L 745.239,-58.04 L 745.005,-58.4989 L 744.821,-58.9796
 L 744.688,-59.4771 L 744.607,-59.9857 L 744.58,-60.5 L 744.607,-61.0143 L 744.688,-61.5229 L 744.821,-62.0204
 L 745.005,-62.5011 L 745.239,-62.96 L 745.52,-63.3919 L 745.844,-63.7921 L 746.208,-64.1563 L 746.608,-64.4804
 L 746.95,-64.7024 L 746.95,-74 L 747.006,-74.5302 L 747.17,-75.0372 L 747.437,-75.4988 L 747.794,-75.895
 L 748.225,-76.2084 L 748.712,-76.4252 L 749.233,-76.536 L 749.767,-76.536 L 750.288,-76.4252 L 750.775,-76.2084
 L 751.206,-75.895 L 751.563,-75.4988 L 751.83,-75.0372 L 751.994,-74.5302 L 752.05,-74 L 752.05,-64.7024
 L 752.392,-64.4804 L 752.792,-64.1563 L 753.156,-63.7921 L 753.48,-63.3919 L 753.761,-62.96 L 753.995,-62.5011
 L 754.179,-62.0204 L 754.312,-61.5229 L 754.393,-61.0143 L 754.42,-60.5 L 754.393,-59.9857 L 754.312,-59.4771
 L 754.179,-58.9796 L 753.995,-58.4989 L 753.761,-58.04 L 753.48,-57.6081 L 753.156,-57.2079 L 752.792,-56.8437
 L 752.392,-56.5196 L 751.96,-56.2392 L 751.501,-56.0054 L 751.02,-55.8208 L 750.523,-55.6875 L 750.014,-55.607
 L 749.5,-55.58 z
M 934.486,-55.607 L 933.977,-55.6875 L 933.48,-55.8208 L 932.999,-56.0054 L 932.54,-56.2392 L 932.108,-56.5196
 L 931.708,-56.8437 L 931.344,-57.2079 L 931.02,-57.6081 L 930.739,-58.04 L 930.505,-58.4989 L 930.321,-58.9796
 L 930.188,-59.4771 L 930.107,-59.9857 L 930.08,-60.5 L 930.107,-61.0143 L 930.188,-61.5229 L 930.321,-62.0204
 L 930.505,-62.5011 L 930.739,-62.96 L 931.02,-63.3919 L 931.344,-63.7921 L 931.708,-64.1563 L 932.108,-64.4804
 L 932.45,-64.7024 L 932.45,-74 L 932.506,-74.5302 L 932.67,-75.0372 L 932.937,-75.4988 L 933.294,-75.895
 L 933.725,-76.2084 L 934.212,-76.4252 L 934.733,-76.536 L 935.267,-76.536 L 935.788,-76.4252 L 936.275,-76.2084
 L 936.706,-75.895 L 937.063,-75.4988 L 937.33,-75.0372 L 937.494,-74.5302 L 937.55,-74 L 937.55,-64.7024
 L 937.892,-64.4804 L 938.292,-64.1563 L 938.656,-63.7921 L 938.98,-63.3919 L 939.261,-62.96 L 939.495,-62.5011
 L 939.679,-62.0204 L 939.812,-61.5229 L 939.893,-61.0143 L 939.92,-60.5 L 939.893,-59.9857 L 939.812,-59.4771
 L 939.679,-58.9796 L 939.495,-58.4989 L 939.261,-58.04 L 938.98,-57.6081 L 938.656,-57.2079 L 938.292,-56.8437
 L 937.892,-56.5196 L 937.46,-56.2392 L 937.001,-56.0054 L 936.52,-55.8208 L 936.023,-55.6875 L 935.514,-55.607
 L 935,-55.58 z
M 1119.99,-55.607 L 1119.48,-55.6875 L 1118.98,-55.8208 L 1118.5,-56.0054 L 1118.04,-56.2392 L 1117.61,-56.5196
 L 1117.21,-56.8437 L 1116.84,-57.2079 L 1116.52,-57.6081 L 1116.24,-58.04 L 1116.01,-58.4989 L 1115.82,-58.9796
 L 1115.69,-59.4771 L 1115.61,-59.9857 L 1115.58,-60.5 L 1115.61,-61.0143 L 1115.69,-61.5229 L 1115.82,-62.0204
 L 1116.01,-62.5011 L 1116.24,-62.96 L 1116.52,-63.3919 L 1116.84,-63.7921 L 1117.21,-64.1563 L 1117.61,-64.4804
 L 1117.95,-64.7024 L 1117.95,-74 L 1118.01,-74.5302 L 1118.17,-75.0372 L 1118.44,-75.4988 L 1118.79,-75.895
 L 1119.23,-76.2084 L 1119.71,-76.4252 L 1120.23,-76.536 L 1120.77,-76.536 L 1121.29,-76.4252 L 1121.77,-76.2084
 L 1122.21,-75.895 L 1122.56,-75.4988 L 1122.83,-75.0372 L 1122.99,-74.5302 L 1123.05,-74 L 1123.05,-64.7024
 L 1123.39,-64.4804 L 1123.79,-64.1563 L 1124.16,-63.7921 L 1124.48,-63.3919 L 1124.76,-62.96 L 1124.99,-62.5011
 L 1125.18,-62.0204 L 1125.31,-61.5229 L 1125.39,-61.0143 L 1125.42,-60.5 L 1125.39,-59.9857 L 1125.31,-59.4771
 L 1125.18,-58.9796 L 1124.99,-58.4989 L 1124.76,-58.04 L 1124.48,-57.6081 L 1124.16,-57.2079 L 1123.79,-56.8437
 L 1123.39,-56.5196 L 1122.96,-56.2392 L 1122.5,-56.0054 L 1122.02,-55.8208 L 1121.52,-55.6875 L 1121.01,-55.607
 L 1120.5,-55.58 z
M 946.906,-20.7543 L 946.13,-21.0657 L 945.436,-21.5318 L 944.854,-22.1319 L 944.409,-22.8401 L 944.121,-23.6252
 L 944,-24.6018 L 944,-58 L 944.087,-58.8316 L 944.346,-59.627 L 944.764,-60.3511 L 945.323,-60.9726
 L 946,-61.4641 L 946.764,-61.8042 L 948,-62 L 1039.11,-62 L 1039.94,-61.9126 L 1040.74,-61.6542
 L 1041.46,-61.2361 L 1042.08,-60.6765 L 1042.57,-60 L 1042.91,-59.2361 L 1043.09,-58.4181 L 1043.09,-57.5819
 L 1042.91,-56.7639 L 1042.57,-56 L 1042.08,-55.3235 L 1041.46,-54.7639 L 1040.48,-54.2444 L 949.377,-20.8462
 L 948.566,-20.6421 L 947.73,-20.6109 z
M 364.934,-20.6421 L 364.123,-20.8462 L 273.015,-54.2444 L 272.041,-54.7639 L 271.419,-55.3235 L 270.928,-56
 L 270.588,-56.7639 L 270.414,-57.5819 L 270.414,-58.4181 L 270.588,-59.2361 L 270.928,-60 L 271.419,-60.6765
 L 272.041,-61.2361 L 272.765,-61.6542 L 273.56,-61.9126 L 274.392,-62 L 365.5,-62 L 366.736,-61.8042
 L 367.5,-61.4641 L 368.177,-60.9726 L 368.736,-60.3511 L 369.154,-59.627 L 369.413,-58.8316 L 369.5,-58
 L 369.5,-24.6018 L 369.379,-23.6252 L 369.091,-22.8401 L 368.646,-22.1319 L 368.064,-21.5318 L 367.37,-21.0657
 L 366.594,-20.7543 L 365.77,-20.6109 z
M 179.434,-20.6421 L 178.623,-20.8462 L 87.5151,-54.2444 L 86.5406,-54.7639 L 85.9192,-55.3235 L 85.4277,-56
 L 85.0876,-56.7639 L 84.9137,-57.5819 L 84.9137,-58.4181 L 85.0876,-59.2361 L 85.4277,-60 L 85.9192,-60.6765
 L 86.5406,-61.2361 L 87.2648,-61.6542 L 88.0601,-61.9126 L 88.8918,-62 L 180,-62 L 181.236,-61.8042
 L 182,-61.4641 L 182.677,-60.9726 L 183.236,-60.3511 L 183.654,-59.627 L 183.913,-58.8316 L 184,-58
 L 184,-24.6018 L 183.879,-23.6252 L 183.591,-22.8401 L 183.146,-22.1319 L 182.564,-21.5318 L 181.87,-21.0657
 L 181.094,-20.7543 L 180.27,-20.6109 z
M 550.434,-20.6421 L 549.623,-20.8462 L 458.515,-54.2444 L 457.541,-54.7639 L 456.919,-55.3235 L 456.428,-56
 L 456.088,-56.7639 L 455.914,-57.5819 L 455.914,-58.4181 L 456.088,-59.2361 L 456.428,-60 L 456.919,-60.6765
 L 457.541,-61.2361 L 458.265,-61.6542 L 459.06,-61.9126 L 459.892,-62 L 551,-62 L 552.236,-61.8042
 L 553,-61.4641 L 553.677,-60.9726 L 554.236,-60.3511 L 554.654,-59.627 L 554.913,-58.8316 L 555,-58
 L 555,-24.6018 L 554.879,-23.6252 L 554.591,-22.8401 L 554.146,-22.1319 L 553.564,-21.5318 L 552.87,-21.0657
 L 552.094,-20.7543 L 551.27,-20.6109 z
M 575.906,-20.7543 L 575.13,-21.0657 L 574.436,-21.5318 L 573.854,-22.1319 L 573.409,-22.8401 L 573.121,-23.6252
 L 573,-24.6018 L 573,-58 L 573.087,-58.8316 L 573.346,-59.627 L 573.764,-60.3511 L 574.323,-60.9726
 L 575,-61.4641 L 575.764,-61.8042 L 577,-62 L 668.108,-62 L 668.94,-61.9126 L 669.735,-61.6542
 L 670.459,-61.2361 L 671.081,-60.6765 L 671.572,-60 L 671.912,-59.2361 L 672.086,-58.4181 L 672.086,-57.5819
 L 671.912,-56.7639 L 671.572,-56 L 671.081,-55.3235 L 670.459,-54.7639 L 669.485,-54.2444 L 578.377,-20.8462
 L 577.566,-20.6421 L 576.73,-20.6109 z
M 761.406,-20.7543 L 760.63,-21.0657 L 759.936,-21.5318 L 759.354,-22.1319 L 758.909,-22.8401 L 758.621,-23.6252
 L 758.5,-24.6018 L 758.5,-58 L 758.587,-58.8316 L 758.846,-59.627 L 759.264,-60.3511 L 759.823,-60.9726
 L 760.5,-61.4641 L 761.264,-61.8042 L 762.5,-62 L 853.608,-62 L 854.44,-61.9126 L 855.235,-61.6542
 L 855.959,-61.2361 L 856.581,-60.6765 L 857.072,-60 L 857.412,-59.2361 L 857.586,-58.4181 L 857.586,-57.5819
 L 857.412,-56.7639 L 857.072,-56 L 856.581,-55.3235 L 855.959,-54.7639 L 854.985,-54.2444 L 763.877,-20.8462
 L 763.066,-20.6421 L 762.23,-20.6109 z
M 206,-18 L 204.764,-18.1958 L 204,-18.5359 L 203.323,-19.0274 L 202.764,-19.6489 L 202.346,-20.373
 L 202.087,-21.1684 L 202,-22 L 202,-55.3981 L 202.121,-56.3748 L 202.409,-57.1599 L 202.854,-57.868
 L 203.436,-58.4682 L 204.13,-58.9342 L 204.906,-59.2457 L 205.73,-59.389 L 206.566,-59.3579 L 207.377,-59.1538
 L 298.485,-25.7556 L 299.459,-25.2361 L 300.081,-24.6765 L 300.572,-24 L 300.912,-23.2361 L 301.086,-22.4181
 L 301.086,-21.5819 L 300.912,-20.7639 L 300.572,-20 L 300.081,-19.3235 L 299.459,-18.7639 L 298.735,-18.3458
 L 297.94,-18.0874 L 297.108,-18 z
M 391.5,-18 L 390.264,-18.1958 L 389.5,-18.5359 L 388.823,-19.0274 L 388.264,-19.6489 L 387.846,-20.373
 L 387.587,-21.1684 L 387.5,-22 L 387.5,-55.3981 L 387.621,-56.3748 L 387.909,-57.1599 L 388.354,-57.868
 L 388.936,-58.4682 L 389.63,-58.9342 L 390.406,-59.2457 L 391.23,-59.389 L 392.066,-59.3579 L 392.877,-59.1538
 L 483.985,-25.7556 L 484.959,-25.2361 L 485.581,-24.6765 L 486.072,-24 L 486.412,-23.2361 L 486.586,-22.4181
 L 486.586,-21.5819 L 486.412,-20.7639 L 486.072,-20 L 485.581,-19.3235 L 484.959,-18.7639 L 484.235,-18.3458
 L 483.44,-18.0874 L 482.608,-18 z
M 645.392,-18 L 644.56,-18.0874 L 643.765,-18.3458 L 643.041,-18.7639 L 642.419,-19.3235 L 641.928,-20
 L 641.588,-20.7639 L 641.414,-21.5819 L 641.414,-22.4181 L 641.588,-23.2361 L 641.928,-24 L 642.419,-24.6765
 L 643.041,-25.2361 L 644.015,-25.7556 L 735.123,-59.1538 L 735.934,-59.3579 L 736.77,-59.389 L 737.594,-59.2457
 L 738.37,-58.9342 L 739.064,-58.4682 L 739.646,-57.868 L 740.091,-57.1599 L 740.379,-56.3748 L 740.5,-55.3981
 L 740.5,-22 L 740.413,-21.1684 L 740.154,-20.373 L 739.736,-19.6489 L 739.177,-19.0274 L 738.5,-18.5359
 L 737.736,-18.1958 L 736.5,-18 z
M 830.892,-18 L 830.06,-18.0874 L 829.265,-18.3458 L 828.541,-18.7639 L 827.919,-19.3235 L 827.428,-20
 L 827.088,-20.7639 L 826.914,-21.5819 L 826.914,-22.4181 L 827.088,-23.2361 L 827.428,-24 L 827.919,-24.6765
 L 828.541,-25.2361 L 829.515,-25.7556 L 920.623,-59.1538 L 921.434,-59.3579 L 922.27,-59.389 L 923.094,-59.2457
 L 923.87,-58.9342 L 924.564,-58.4682 L 925.146,-57.868 L 925.591,-57.1599 L 925.879,-56.3748 L 926,-55.3981
 L 926,-22 L 925.913,-21.1684 L 925.654,-20.373 L 925.236,-19.6489 L 924.677,-19.0274 L 924,-18.5359
 L 923.236,-18.1958 L 922,-18 z
M 1016.39,-18 L 1015.56,-18.0874 L 1014.76,-18.3458 L 1014.04,-18.7639 L 1013.42,-19.3235 L 1012.93,-20
 L 1012.59,-20.7639 L 1012.41,-21.5819 L 1012.41,-22.4181 L 1012.59,-23.2361 L 1012.93,-24 L 1013.42,-24.6765
 L 1014.04,-25.2361 L 1015.02,-25.7556 L 1104.62,-58.6039 L 1105.43,-58.8081 L 1106.27,-58.8392 L 1107.09,-58.6958
 L 1107.87,-58.3844 L 1108.56,-57.9184 L 1109.15,-57.3182 L 1109.59,-56.61 L 1109.88,-55.8249 L 1110,-54.8483
 L 1110,-22 L 1109.91,-21.1684 L 1109.65,-20.373 L 1109.24,-19.6489 L 1108.68,-19.0274 L 1108,-18.5359
 L 1107.24,-18.1958 L 1106,-18 z
M 22,-18 L 20.7639,-18.1958 L 20,-18.5359 L 19.3235,-19.0274 L 18.7639,-19.6489 L 18.3458,-20.373
 L 18.0874,-21.1684 L 18,-22 L 18,-54.8483 L 18.121,-55.8249 L 18.4089,-56.61 L 18.8536,-57.3182
 L 19.4359,-57.9184 L 20.1302,-58.3844 L 20.9063,-58.6958 L 21.7301,-58.8392 L 22.5658,-58.8081 L 23.3767,-58.6039
 L 112.985,-25.7556 L 113.959,-25.2361 L 114.581,-24.6765 L 115.072,-24 L 115.412,-23.2361 L 115.586,-22.4181
 L 115.586,-21.5819 L 115.412,-20.7639 L 115.072,-20 L 114.581,-19.3235 L 113.959,-18.7639 L 113.235,-18.3458
 L 112.44,-18.0874 L 111.608,-18 z
" stroke="black" fill="lightgray" stroke-width="0.5"/>
</svg>
