<?xml version="1.0" standalone="no"?>
<!DOCTYPE svg PUBLIC "-//W3C//DTD SVG 1.1//EN" "http://www.w3.org/Graphics/SVG/1.1/DTD/svg11.dtd">
<svg width="1595mm" height="80mm" viewBox="0 -80 1595 80" xmlns="http://www.w3.org/2000/svg" version="1.1">
<title>OpenSCAD Model</title>
<path d="
M 1595,-80 L 0,-80 L 0,-0 L 4.95,-0 L 4.95,-6 L 5.00572,-6.53017
 L 5.17046,-7.03717 L 5.437,-7.49884 L 5.79372,-7.895 L 6.22499,-8.20836 L 6.71201,-8.42519 L 7.23344,-8.53603
 L 7.76654,-8.53603 L 8.28798,-8.42519 L 8.77499,-8.20836 L 9.20627,-7.895 L 9.56299,-7.49884 L 9.82953,-7.03717
 L 9.99426,-6.53017 L 10.05,-6 L 10.05,-0 L 202.45,-0 L 202.45,-6 L 202.506,-6.53017
 L 202.67,-7.03717 L 202.937,-7.49884 L 203.294,-7.895 L 203.725,-8.20836 L 204.212,-8.42519 L 204.733,-8.53603
 L 205.267,-8.53603 L 205.788,-8.42519 L 206.275,-8.20836 L 206.706,-7.895 L 207.063,-7.49884 L 207.33,-7.03717
 L 207.494,-6.53017 L 207.55,-6 L 207.55,-0 L 399.95,-0 L 399.95,-6 L 400.006,-6.53017
 L 400.17,-7.03717 L 400.437,-7.49884 L 400.794,-7.895 L 401.225,-8.20836 L 401.712,-8.42519 L 402.233,-8.53603
 L 402.767,-8.53603 L 403.288,-8.42519 L 403.775,-8.20836 L 404.206,-7.895 L 404.563,-7.49884 L 404.83,-7.03717
 L 404.994,-6.53017 L 405.05,-6 L 405.05,-0 L 597.45,-0 L 597.45,-6 L 597.506,-6.53017
 L 597.67,-7.03717 L 597.937,-7.49884 L 598.294,-7.895 L 598.725,-8.20836 L 599.212,-8.42519 L 599.733,-8.53603
 L 600.267,-8.53603 L 600.788,-8.42519 L 601.275,-8.20836 L 601.706,-7.895 L 602.063,-7.49884 L 602.33,-7.03717
 L 602.494,-6.53017 L 602.55,-6 L 602.55,-0 L 794.95,-0 L 794.95,-6 L 795.006,-6.53017
 L 795.17,-7.03717 L 795.437,-7.49884 L 795.794,-7.895 L 796.225,-8.20836 L 796.712,-8.42519 L 797.233,-8.53603
 L 797.767,-8.53603 L 798.288,-8.42519 L 798.775,-8.20836 L 799.206,-7.895 L 799.563,-7.49884 L 799.83,-7.03717
 L 799.994,-6.53017 L 800.05,-6 L 800.05,-0 L 992.45,-0 L 992.45,-6 L 992.506,-6.53017
 L 992.67,-7.03717 L 992.937,-7.49884 L 993.294,-7.895 L 993.725,-8.20836 L 994.212,-8.42519 L 994.733,-8.53603
 L 995.267,-8.53603 L 995.788,-8.42519 L 996.275,-8.20836 L 996.706,-7.895 L 997.063,-7.49884 L 997.33,-7.03717
 L 997.494,-6.53017 L 997.55,-6 L 997.55,-0 L 1189.95,-0 L 1189.95,-6 L 1190.01,-6.53017
 L 1190.17,-7.03717 L 1190.44,-7.49884 L 1190.79,-7.895 L 1191.22,-8.20836 L 1191.71,-8.42519 L 1192.23,-8.53603
 L 1192.77,-8.53603 L 1193.29,-8.42519 L 1193.77,-8.20836 L 1194.21,-7.895 L 1194.56,-7.49884 L 1194.83,-7.03717
 L 1194.99,-6.53017 L 1195.05,-6 L 1195.05,-0 L 1387.45,-0 L 1387.45,-6 L 1387.51,-6.53017
 L 1387.67,-7.03717 L 1387.94,-7.49884 L 1388.29,-7.895 L 1388.72,-8.20836 L 1389.21,-8.42519 L 1389.73,-8.53603
 L 1390.27,-8.53603 L 1390.79,-8.42519 L 1391.27,-8.20836 L 1391.71,-7.895 L 1392.06,-7.49884 L 1392.33,-7.03717
 L 1392.49,-6.53017 L 1392.55,-6 L 1392.55,-0 L 1584.95,-0 L 1584.95,-6 L 1585.01,-6.53017
 L 1585.17,-7.03717 L 1585.44,-7.49884 L 1585.79,-7.895 L 1586.22,-8.20836 L 1586.71,-8.42519 L 1587.23,-8.53603
 L 1587.77,-8.53603 L 1588.29,-8.42519 L 1588.77,-8.20836 L 1589.21,-7.895 L 1589.56,-7.49884 L 1589.83,-7.03717
 L 1589.99,-6.53017 L 1590.05,-6 L 1590.05,-0 L 1595,-0 z
M 204.486,-55.607 L 203.977,-55.6875 L 203.48,-55.8208 L 202.999,-56.0054 L 202.54,-56.2392 L 202.108,-56.5196
 L 201.708,-56.8437 L 201.344,-57.2079 L 201.02,-57.6081 L 200.739,-58.04 L 200.505,-58.4989 L 200.321,-58.9796
 L 200.188,-59.4771 L 200.107,-59.9857 L 200.08,-60.5 L 200.107,-61.0143 L 200.188,-61.5229 L 200.321,-62.0204
 L 200.505,-62.5011 L 200.739,-62.96 L 201.02,-63.3919 L 201.344,-63.7921 L 201.708,-64.1563 L 202.108,-64.4804
 L 202.45,-64.7024 L 202.45,-74 L 202.506,-74.5302 L 202.67,-75.0372 L 202.937,-75.4988 L 203.294,-75.895
 L 203.725,-76.2084 L 204.212,-76.4252 L 204.733,-76.536 L 205.267,-76.536 L 205.788,-76.4252 L 206.275,-76.2084
 L 206.706,-75.895 L 207.063,-75.4988 L 207.33,-75.0372 L 207.494,-74.5302 L 207.55,-74 L 207.55,-64.7024
 L 207.892,-64.4804 L 208.292,-64.1563 L 208.656,-63.7921 L 208.98,-63.3919 L 209.261,-62.96 L 209.495,-62.5011
 L 209.679,-62.0204 L 209.812,-61.5229 L 209.893,-61.0143 L 209.92,-60.5 L 209.893,-59.9857 L 209.812,-59.4771
 L 209.679,-58.9796 L 209.495,-58.4989 L 209.261,-58.04 L 208.98,-57.6081 L 208.656,-57.2079 L 208.292,-56.8437
 L 207.892,-56.5196 L 207.46,-56.2392 L 207.001,-56.0054 L 206.52,-55.8208 L 206.023,-55.6875 L 205.514,-55.607
 L 205,-55.58 z
M 1191.99,-55.607 L 1191.48,-55.6875 L 1190.98,-55.8208 L 1190.5,-56.0054 L 1190.04,-56.2392 L 1189.61,-56.5196
 L 1189.21,-56.8437 L 1188.84,-57.2079 L 1188.52,-57.6081 L 1188.24,-58.04 L 1188.01,-58.4989 L 1187.82,-58.9796
 L 1187.69,-59.4771 L 1187.61,-59.9857 L 1187.58,-60.5 L 1187.61,-61.0143 L 1187.69,-61.5229 L 1187.82,-62.0204
 L 1188.01,-62.5011 L 1188.24,-62.96 L 1188.52,-63.3919 L 1188.84,-63.7921 L 1189.21,-64.1563 L 1189.61,-64.4804
 L 1189.95,-64.7024 L 1189.95,-74 L 1190.01,-74.5302 L 1190.17,-75.0372 L 1190.44,-75.4988 L 1190.79,-75.895
 L 1191.23,-76.2084 L 1191.71,-76.4252 L 1192.23,-76.536 L 1192.77,-76.536 L 1193.29,-76.4252 L 1193.77,-76.2084
 L 1194.21,-75.895 L 1194.56,-75.4988 L 1194.83,-75.0372 L 1194.99,-74.5302 L 1195.05,-74 L 1195.05,-64.7024
 L 1195.39,-64.4804 L 1195.79,-64.1563 L 1196.16,-63.7921 L 1196.48,-63.3919 L 1196.76,-62.96 L 1196.99,-62.5011
 L 1197.18,-62.0204 L 1197.31,-61.5229 L 1197.39,-61.0143 L 1197.42,-60.5 L 1197.39,-59.9857 L 1197.31,-59.4771
 L 1197.18,-58.9796 L 1196.99,-58.4989 L 1196.76,-58.04 L 1196.48,-57.6081 L 1196.16,-57.2079 L 1195.79,-56.8437
 L 1195.39,-56.5196 L 1194.96,-56.2392 L 1194.5,-56.0054 L 1194.02,-55.8208 L 1193.52,-55.6875 L 1193.01,-55.607
 L 1192.5,-55.58 z
M 994.486,-55.607 L 993.977,-55.6875 L 993.48,-55.8208 L 992.999,-56.0054 L 992.54,-56.2392 L 992.108,-56.5196
 L 991.708,-56.8437 L 991.344,-57.2079 L 991.02,-57.6081 L 990.739,-58.04 L 990.505,-58.4989 L 990.321,-58.9796
 L 990.188,-59.4771 L 990.107,-59.9857 L 990.08,-60.5 L 990.107,-61.0143 L 990.188,-61.5229 L 990.321,-62.0204
 L 990.505,-62.5011 L 990.739,-62.96 L 991.02,-63.3919 L 991.344,-63.7921 L 991.708,-64.1563 L 992.108,-64.4804
 L 992.45,-64.7024 L 992.45,-74 L 992.506,-74.5302 L 992.67,-75.0372 L 992.937,-75.4988 L 993.294,-75.895
 L 993.725,-76.2084 L 994.212,-76.4252 L 994.733,-76.536 L 995.267,-76.536 L 995.788,-76.4252 L 996.275,-76.2084
 L 996.706,-75.895 L 997.063,-75.4988 L 997.33,-75.0372 L 997.494,-74.5302 L 997.55,-74 L 997.55,-64.7024
 L 997.892,-64.4804 L 998.292,-64.1563 L 998.656,-63.7921 L 998.98,-63.3919 L 999.261,-62.96 L 999.495,-62.5011
 L 999.679,-62.0204 L 999.812,-61.5229 L 999.893,-61.0143 L 999.92,-60.5 L 999.893,-59.9857 L 999.812,-59.4771
 L 999.679,-58.9796 L 999.495,-58.4989 L 999.261,-58.04 L 998.98,-57.6081 L 998.656,-57.2079 L 998.292,-56.8437
 L 997.892,-56.5196 L 997.46,-56.2392 L 997.001,-56.0054 L 996.52,-55.8208 L 996.023,-55.6875 L 995.514,-55.607
 L 995,-55.58 z
M 6.98573,-55.607 L 6.47708,-55.6875 L 5.97964,-55.8208 L 5.49887,-56.0054 L 5.04001,-56.2392 L 4.60811,-56.5196
 L 4.20789,-56.8437 L 3.84373,-57.2079 L 3.51964,-57.6081 L 3.23917,-58.04 L 3.00537,-58.4989 L 2.82082,-58.9796
 L 2.68752,-59.4771 L 2.60696,-59.9857 L 2.58,-60.5 L 2.60696,-61.0143 L 2.68752,-61.5229 L 2.82082,-62.0204
 L 3.00537,-62.5011 L 3.23917,-62.96 L 3.51964,-63.3919 L 3.84373,-63.7921 L 4.20789,-64.1563 L 4.60811,-64.4804
 L 4.95001,-64.7024 L 4.95001,-74 L 5.00574,-74.5302 L 5.17047,-75.0372 L 5.43701,-75.4988 L 5.79373,-75.895
 L 6.22501,-76.2084 L 6.71202,-76.4252 L 7.23346,-76.536 L 7.76654,-76.536 L 8.28798,-76.4252 L 8.77499,-76.2084
 L 9.20627,-75.895 L 9.56299,-75.4988 L 9.82953,-75.0372 L 9.99426,-74.5302 L 10.05,-74 L 10.05,-64.7024
 L 10.3919,-64.4804 L 10.7921,-64.1563 L 11.1563,-63.7921 L 11.4804,-63.3919 L 11.7608,-62.96 L 11.9946,-62.5011
 L 12.1792,-62.0204 L 12.3125,-61.5229 L 12.393,-61.0143 L 12.42,-60.5 L 12.393,-59.9857 L 12.3125,-59.4771
 L 12.1792,-58.9796 L 11.9946,-58.4989 L 11.7608,-58.04 L 11.4804,-57.6081 L 11.1563,-57.2079 L 10.7921,-56.8437
 L 10.3919,-56.5196 L 9.95999,-56.2392 L 9.50113,-56.0054 L 9.02036,-55.8208 L 8.52292,-55.6875 L 8.01427,-55.607
 L 7.5,-55.58 z
M 796.986,-55.607 L 796.477,-55.6875 L 795.98,-55.8208 L 795.499,-56.0054 L 795.04,-56.2392 L 794.608,-56.5196
 L 794.208,-56.8437 L 793.844,-57.2079 L 793.52,-57.6081 L 793.239,-58.04 L 793.005,-58.4989 L 792.821,-58.9796
 L 792.688,-59.4771 L 792.607,-59.9857 L 792.58,-60.5 L 792.607,-61.0143 L 792.688,-61.5229 L 792.821,-62.0204
 L 793.005,-62.5011 L 793.239,-62.96 L 793.52,-63.3919 L 793.844,-63.7921 L 794.208,-64.1563 L 794.608,-64.4804
 L 794.95,-64.7024 L 794.95,-74 L 795.006,-74.5302 L 795.17,-75.0372 L 795.437,-75.4988 L 795.794,-75.895
 L 796.225,-76.2084 L 796.712,-76.4252 L 797.233,-76.536 L 797.767,-76.536 L 798.288,-76.4252 L 798.775,-76.2084
 L 799.206,-75.895 L 799.563,-75.4988 L 799.83,-75.0372 L 799.994,-74.5302 L 800.05,-74 L 800.05,-64.7024
 L 800.392,-64.4804 L 800.792,-64.1563 L 801.156,-63.7921 L 801.48,-63.3919 L 801.761,-62.96 L 801.995,-62.5011
 L 802.179,-62.0204 L 802.312,-61.5229 L 802.393,-61.0143 L 802.42,-60.5 L 802.393,-59.9857 L 802.312,-59.4771
 L 802.179,-58.9796 L 801.995,-58.4989 L 801.761,-58.04 L 801.48,-57.6081 L 801.156,-57.2079 L 800.792,-56.8437
 L 800.392,-56.5196 L 799.96,-56.2392 L 799.501,-56.0054 L 799.02,-55.8208 L 798.523,-55.6875 L 798.014,-55.607
 L 797.5,-55.58 z
M 1389.49,-55.607 L 1388.98,-55.6875 L 1388.48,-55.8208 L 1388,-56.0054 L 1387.54,-56.2392 L 1387.11,-56.5196
 L 1386.71,-56.8437 L 1386.34,-57.2079 L 1386.02,-57.6081 L 1385.74,-58.04 L 1385.51,-58.4989 L 1385.32,-58.9796
 L 1385.19,-59.4771 L 1385.11,-59.9857 L 1385.08,-60.5 L 1385.11,-61.0143 L 1385.19,-61.5229 L 1385.32,-62.0204
 L 1385.51,-62.5011 L 1385.74,-62.96 L 1386.02,-63.3919 L 1386.34,-63.7921 L 1386.71,-64.1563 L 1387.11,-64.4804
 L 1387.45,-64.7024 L 1387.45,-74 L 1387.51,-74.5302 L 1387.67,-75.0372 L 1387.94,-75.4988 L 1388.29,-75.895
 L 1388.73,-76.2084 L 1389.21,-76.4252 L 1389.73,-76.536 L 1390.27,-76.536 L 1390.79,-76.4252 L 1391.27,-76.2084
 L 1391.71,-75.895 L 1392.06,-75.4988 L 1392.33,-75.0372 L 1392.49,-74.5302 L 1392.55,-74 L 1392.55,-64.7024
 L 1392.89,-64.4804 L 1393.29,-64.1563 L 1393.66,-63.7921 L 1393.98,-63.3919 L 1394.26,-62.96 L 1394.49,-62.5011
 L 1394.68,-62.0204 L 1394.81,-61.5229 L 1394.89,-61.0143 L 1394.92,-60.5 L 1394.89,-59.9857 L 1394.81,-59.4771
 L 1394.68,-58.9796 L 1394.49,-58.4989 L 1394.26,-58.04 L 1393.98,-57.6081 L 1393.66,-57.2079 L 1393.29,-56.8437
 L 1392.89,-56.5196 L 1392.46,-56.2392 L 1392,-56.0054 L 1391.52,-55.8208 L 1391.02,-55.6875 L 1390.51,-55.607
 L 1390,-55.58 z
M 599.486,-55.607 L 598.977,-55.6875 L 598.48,-55.8208 L 597.999,-56.0054 L 597.54,-56.2392 L 597.108,-56.5196
 L 596.708,-56.8437 L 596.344,-57.2079 L 596.02,-57.6081 L 595.739,-58.04 L 595.505,-58.4989 L 595.321,-58.9796
 L 595.188,-59.4771 L 595.107,-59.9857 L 595.08,-60.5 L 595.107,-61.0143 L 595.188,-61.5229 L 595.321,-62.0204
 L 595.505,-62.5011 L 595.739,-62.96 L 596.02,-63.3919 L 596.344,-63.7921 L 596.708,-64.1563 L 597.108,-64.4804
 L 597.45,-64.7024 L 597.45,-74 L 597.506,-74.5302 L 597.67,-75.0372 L 597.937,-75.4988 L 598.294,-75.895
 L 598.725,-76.2084 L 599.212,-76.4252 L 599.733,-76.536 L 600.267,-76.536 L 600.788,-76.4252 L 601.275,-76.2084
 L 601.706,-75.895 L 602.063,-75.4988 L 602.33,-75.0372 L 602.494,-74.5302 L 602.55,-74 L 602.55,-64.7024
 L 602.892,-64.4804 L 603.292,-64.1563 L 603.656,-63.7921 L 603.98,-63.3919 L 604.261,-62.96 L 604.495,-62.5011
 L 604.679,-62.0204 L 604.812,-61.5229 L 604.893,-61.0143 L 604.92,-60.5 L 604.893,-59.9857 L 604.812,-59.4771
 L 604.679,-58.9796 L 604.495,-58.4989 L 604.261,-58.04 L 603.98,-57.6081 L 603.656,-57.2079 L 603.292,-56.8437
 L 602.892,-56.5196 L 602.46,-56.2392 L 602.001,-56.0054 L 601.52,-55.8208 L 601.023,-55.6875 L 600.514,-55.607
 L 600,-55.58 z
M 401.986,-55.607 L 401.477,-55.6875 L 400.98,-55.8208 L 400.499,-56.0054 L 400.04,-56.2392 L 399.608,-56.5196
 L 399.208,-56.8437 L 398.844,-57.2079 L 398.52,-57.6081 L 398.239,-58.04 L 398.005,-58.4989 L 397.821,-58.9796
 L 397.688,-59.4771 L 397.607,-59.9857 L 397.58,-60.5 L 397.607,-61.0143 L 397.688,-61.5229 L 397.821,-62.0204
 L 398.005,-62.5011 L 398.239,-62.96 L 398.52,-63.3919 L 398.844,-63.7921 L 399.208,-64.1563 L 399.608,-64.4804
 L 399.95,-64.7024 L 399.95,-74 L 400.006,-74.5302 L 400.17,-75.0372 L 400.437,-75.4988 L 400.794,-75.895
 L 401.225,-76.2084 L 401.712,-76.4252 L 402.233,-76.536 L 402.767,-76.536 L 403.288,-76.4252 L 403.775,-76.2084
 L 404.206,-75.895 L 404.563,-75.4988 L 404.83,-75.0372 L 404.994,-74.5302 L 405.05,-74 L 405.05,-64.7024
 L 405.392,-64.4804 L 405.792,-64.1563 L 406.156,-63.7921 L 406.48,-63.3919 L 406.761,-62.96 L 406.995,-62.5011
 L 407.179,-62.0204 L 407.312,-61.5229 L 407.393,-61.0143 L 407.42,-60.5 L 407.393,-59.9857 L 407.312,-59.4771
 L 407.179,-58.9796 L 406.995,-58.4989 L 406.761,-58.04 L 406.48,-57.6081 L 406.156,-57.2079 L 405.792,-56.8437
 L 405.392,-56.5196 L 404.96,-56.2392 L 404.501,-56.0054 L 404.02,-55.8208 L 403.523,-55.6875 L 403.014,-55.607
 L 402.5,-55.58 z
M 1586.99,-55.607 L 1586.48,-55.6875 L 1585.98,-55.8208 L 1585.5,-56.0054 L 1585.04,-56.2392 L 1584.61,-56.5196
 L 1584.21,-56.8437 L 1583.84,-57.2079 L 1583.52,-57.6081 L 1583.24,-58.04 L 1583.01,-58.4989 L 1582.82,-58.9796
 L 1582.69,-59.4771 L 1582.61,-59.9857 L 1582.58,-60.5 L 1582.61,-61.0143 L 1582.69,-61.5229 L 1582.82,-62.0204
 L 1583.01,-62.5011 L 1583.24,-62.96 L 1583.52,-63.3919 L 1583.84,-63.7921 L 1584.21,-64.1563 L 1584.61,-64.4804
 L 1584.95,-64.7024 L 1584.95,-74 L 1585.01,-74.5302 L 1585.17,-75.0372 L 1585.44,-75.4988 L 1585.79,-75.895
 L 1586.23,-76.2084 L 1586.71,-76.4252 L 1587.23,-76.536 L 1587.77,-76.536 L 1588.29,-76.4252 L 1588.77,-76.2084
 L 1589.21,-75.895 L 1589.56,-75.4988 L 1589.83,-75.0372 L 1589.99,-74.5302 L 1590.05,-74 L 1590.05,-64.7024
 L 1590.39,-64.4804 L 1590.79,-64.1563 L 1591.16,-63.7921 L 1591.48,-63.3919 L 1591.76,-62.96 L 1591.99,-62.5011
 L 1592.18,-62.0204 L 1592.31,-61.5229 L 1592.39,-61.0143 L 1592.42,-60.5 L 1592.39,-59.9857 L 1592.31,-59.4771
 L 1592.18,-58.9796 L 1591.99,-58.4989 L 1591.76,-58.04 L 1591.48,-57.6081 L 1591.16,-57.2079 L 1590.79,-56.8437
 L 1590.39,-56.5196 L 1589.96,-56.2392 L 1589.5,-56.0054 L 1589.02,-55.8208 L 1588.52,-55.6875 L 1588.01,-55.607
 L 1587.5,-55.58 z
M 389.013,-20.2526 L 388.198,-20.4407 L 290.095,-54.2179 L 289.046,-54.7639 L 288.425,-55.3235 L 287.933,-56
 L 287.593,-56.7639 L 287.419,-57.5819 L 287.419,-58.4181 L 287.593,-59.2361 L 287.933,-60 L 288.425,-60.6765
 L 289.046,-61.2361 L 289.77,-61.6542 L 290.565,-61.9126 L 291.397,-62 L 389.5,-62 L 390.736,-61.8042
 L 391.5,-61.4641 L 392.177,-60.9726 L 392.736,-60.3511 L 393.154,-59.627 L 393.413,-58.8316 L 393.5,-58
 L 393.5,-24.2228 L 393.398,-23.3231 L 393.125,-22.5324 L 392.695,-21.8156 L 392.124,-21.204 L 391.439,-20.7244
 L 390.67,-20.3976 L 389.849,-20.238 z
M 586.513,-20.2526 L 585.698,-20.4407 L 487.595,-54.2179 L 486.546,-54.7639 L 485.925,-55.3235 L 485.433,-56
 L 485.093,-56.7639 L 484.919,-57.5819 L 484.919,-58.4181 L 485.093,-59.2361 L 485.433,-60 L 485.925,-60.6765
 L 486.546,-61.2361 L 487.27,-61.6542 L 488.065,-61.9126 L 488.897,-62 L 587,-62 L 588.236,-61.8042
 L 589,-61.4641 L 589.677,-60.9726 L 590.236,-60.3511 L 590.654,-59.627 L 590.913,-58.8316 L 591,-58
 L 591,-24.2228 L 590.898,-23.3231 L 590.625,-22.5324 L 590.195,-21.8156 L 589.624,-21.204 L 588.939,-20.7244
 L 588.17,-20.3976 L 587.349,-20.238 z
M 1401.83,-20.3976 L 1401.06,-20.7244 L 1400.38,-21.204 L 1399.81,-21.8156 L 1399.37,-22.5324 L 1399.1,-23.3231
 L 1399,-24.2228 L 1399,-58 L 1399.09,-58.8316 L 1399.35,-59.627 L 1399.76,-60.3511 L 1400.32,-60.9726
 L 1401,-61.4641 L 1401.76,-61.8042 L 1403,-62 L 1501.1,-62 L 1501.93,-61.9126 L 1502.73,-61.6542
 L 1503.45,-61.2361 L 1504.08,-60.6765 L 1504.57,-60 L 1504.91,-59.2361 L 1505.08,-58.4181 L 1505.08,-57.5819
 L 1504.91,-56.7639 L 1504.57,-56 L 1504.08,-55.3235 L 1503.45,-54.7639 L 1502.41,-54.2179 L 1404.3,-20.4407
 L 1403.49,-20.2526 L 1402.65,-20.238 z
M 784.013,-20.2526 L 783.198,-20.4407 L 685.095,-54.2179 L 684.046,-54.7639 L 683.425,-55.3235 L 682.933,-56
 L 682.593,-56.7639 L 682.419,-57.5819 L 682.419,-58.4181 L 682.593,-59.2361 L 682.933,-60 L 683.425,-60.6765
 L 684.046,-61.2361 L 684.77,-61.6542 L 685.565,-61.9126 L 686.397,-62 L 784.5,-62 L 785.736,-61.8042
 L 786.5,-61.4641 L 787.177,-60.9726 L 787.736,-60.3511 L 788.154,-59.627 L 788.413,-58.8316 L 788.5,-58
 L 788.5,-24.2228 L 788.398,-23.3231 L 788.125,-22.5324 L 787.695,-21.8156 L 787.124,-21.204 L 786.439,-20.7244
 L 785.67,-20.3976 L 784.849,-20.238 z
M 191.513,-20.2526 L 190.698,-20.4407 L 92.595,-54.2179 L 91.546,-54.7639 L 90.9246,-55.3235 L 90.433,-56
 L 90.0929,-56.7639 L 89.9191,-57.5819 L 89.9191,-58.4181 L 90.0929,-59.2361 L 90.433,-60 L 90.9246,-60.6765
 L 91.546,-61.2361 L 92.2702,-61.6542 L 93.0655,-61.9126 L 93.8971,-62 L 192,-62 L 193.236,-61.8042
 L 194,-61.4641 L 194.677,-60.9726 L 195.236,-60.3511 L 195.654,-59.627 L 195.913,-58.8316 L 196,-58
 L 196,-24.2228 L 195.898,-23.3231 L 195.625,-22.5324 L 195.195,-21.8156 L 194.624,-21.204 L 193.939,-20.7244
 L 193.17,-20.3976 L 192.349,-20.238 z
M 809.33,-20.3976 L 808.561,-20.7244 L 807.876,-21.204 L 807.305,-21.8156 L 806.875,-22.5324 L 806.602,-23.3231
 L 806.5,-24.2228 L 806.5,-58 L 806.587,-58.8316 L 806.846,-59.627 L 807.264,-60.3511 L 807.823,-60.9726
 L 808.5,-61.4641 L 809.264,-61.8042 L 810.5,-62 L 908.603,-62 L 909.435,-61.9126 L 910.23,-61.6542
 L 910.954,-61.2361 L 911.575,-60.6765 L 912.067,-60 L 912.407,-59.2361 L 912.581,-58.4181 L 912.581,-57.5819
 L 912.407,-56.7639 L 912.067,-56 L 911.575,-55.3235 L 910.954,-54.7639 L 909.905,-54.2179 L 811.802,-20.4407
 L 810.987,-20.2526 L 810.151,-20.238 z
M 1006.83,-20.3976 L 1006.06,-20.7244 L 1005.38,-21.204 L 1004.81,-21.8156 L 1004.37,-22.5324 L 1004.1,-23.3231
 L 1004,-24.2228 L 1004,-58 L 1004.09,-58.8316 L 1004.35,-59.627 L 1004.76,-60.3511 L 1005.32,-60.9726
 L 1006,-61.4641 L 1006.76,-61.8042 L 1008,-62 L 1106.1,-62 L 1106.93,-61.9126 L 1107.73,-61.6542
 L 1108.45,-61.2361 L 1109.08,-60.6765 L 1109.57,-60 L 1109.91,-59.2361 L 1110.08,-58.4181 L 1110.08,-57.5819
 L 1109.91,-56.7639 L 1109.57,-56 L 1109.08,-55.3235 L 1108.45,-54.7639 L 1107.41,-54.2179 L 1009.3,-20.4407
 L 1008.49,-20.2526 L 1007.65,-20.238 z
M 1204.33,-20.3976 L 1203.56,-20.7244 L 1202.88,-21.204 L 1202.31,-21.8156 L 1201.87,-22.5324 L 1201.6,-23.3231
 L 1201.5,-24.2228 L 1201.5,-58 L 1201.59,-58.8316 L 1201.85,-59.627 L 1202.26,-60.3511 L 1202.82,-60.9726
 L 1203.5,-61.4641 L 1204.26,-61.8042 L 1205.5,-62 L 1303.6,-62 L 1304.43,-61.9126 L 1305.23,-61.6542
 L 1305.95,-61.2361 L 1306.58,-60.6765 L 1307.07,-60 L 1307.41,-59.2361 L 1307.58,-58.4181 L 1307.58,-57.5819
 L 1307.41,-56.7639 L 1307.07,-56 L 1306.58,-55.3235 L 1305.95,-54.7639 L 1304.91,-54.2179 L 1206.8,-20.4407
 L 1205.99,-20.2526 L 1205.15,-20.238 z
M 218,-18 L 216.764,-18.1958 L 216,-18.5359 L 215.323,-19.0274 L 214.764,-19.6489 L 214.346,-20.373
 L 214.087,-21.1684 L 214,-22 L 214,-55.7772 L 214.102,-56.6769 L 214.375,-57.4676 L 214.805,-58.1844
 L 215.376,-58.796 L 216.061,-59.2756 L 216.83,-59.6024 L 217.651,-59.7619 L 218.487,-59.7474 L 219.302,-59.5593
 L 317.405,-25.7821 L 318.454,-25.2361 L 319.075,-24.6765 L 319.567,-24 L 319.907,-23.2361 L 320.081,-22.4181
 L 320.081,-21.5819 L 319.907,-20.7639 L 319.567,-20 L 319.075,-19.3235 L 318.454,-18.7639 L 317.73,-18.3458
 L 316.934,-18.0874 L 316.103,-18 z
M 415.5,-18 L 414.264,-18.1958 L 413.5,-18.5359 L 412.823,-19.0274 L 412.264,-19.6489 L 411.846,-20.373
 L 411.587,-21.1684 L 411.5,-22 L 411.5,-55.7772 L 411.602,-56.6769 L 411.875,-57.4676 L 412.305,-58.1844
 L 412.876,-58.796 L 413.561,-59.2756 L 414.33,-59.6024 L 415.151,-59.7619 L 415.987,-59.7474 L 416.802,-59.5593
 L 514.905,-25.7821 L 515.954,-25.2361 L 516.575,-24.6765 L 517.067,-24 L 517.407,-23.2361 L 517.581,-22.4181
 L 517.581,-21.5819 L 517.407,-20.7639 L 517.067,-20 L 516.575,-19.3235 L 515.954,-18.7639 L 515.23,-18.3458
 L 514.434,-18.0874 L 513.603,-18 z
M 613,-18 L 611.764,-18.1958 L 611,-18.5359 L 610.323,-19.0274 L 609.764,-19.6489 L 609.346,-20.373
 L 609.087,-21.1684 L 609,-22 L 609,-55.7772 L 609.102,-56.6769 L 609.375,-57.4676 L 609.805,-58.1844
 L 610.376,-58.796 L 611.061,-59.2756 L 611.83,-59.6024 L 612.651,-59.7619 L 613.487,-59.7474 L 614.302,-59.5593
 L 712.405,-25.7821 L 713.454,-25.2361 L 714.075,-24.6765 L 714.567,-24 L 714.907,-23.2361 L 715.081,-22.4181
 L 715.081,-21.5819 L 714.907,-20.7639 L 714.567,-20 L 714.075,-19.3235 L 713.454,-18.7639 L 712.73,-18.3458
 L 711.934,-18.0874 L 711.103,-18 z
M 883.897,-18 L 883.066,-18.0874 L 882.27,-18.3458 L 881.546,-18.7639 L 880.925,-19.3235 L 880.433,-20
 L 880.093,-20.7639 L 879.919,-21.5819 L 879.919,-22.4181 L 880.093,-23.2361 L 880.433,-24 L 880.925,-24.6765
 L 881.546,-25.2361 L 882.595,-25.7821 L 980.698,-59.5593 L 981.513,-59.7474 L 982.349,-59.7619 L 983.17,-59.6024
 L 983.939,-59.2756 L 984.624,-58.796 L 985.195,-58.1844 L 985.625,-57.4676 L 985.898,-56.6769 L 986,-55.7772
 L 986,-22 L 985.913,-21.1684 L 985.654,-20.373 L 985.236,-19.6489 L 984.677,-19.0274 L 984,-18.5359
 L 983.236,-18.1958 L 982,-18 z
M 1081.4,-18 L 1080.57,-18.0874 L 1079.77,-18.3458 L 1079.05,-18.7639 L 1078.42,-19.3235 L 1077.93,-20
 L 1077.59,-20.7639 L 1077.42,-21.5819 L 1077.42,-22.4181 L 1077.59,-23.2361 L 1077.93,-24 L 1078.42,-24.6765
 L 1079.05,-25.2361 L 1080.09,-25.7821 L 1178.2,-59.5593 L 1179.01,-59.7474 L 1179.85,-59.7619 L 1180.67,-59.6024
 L 1181.44,-59.2756 L 1182.12,-58.796 L 1182.69,-58.1844 L 1183.13,-57.4676 L 1183.4,-56.6769 L 1183.5,-55.7772
 L 1183.5,-22 L 1183.41,-21.1684 L 1183.15,-20.373 L 1182.74,-19.6489 L 1182.18,-19.0274 L 1181.5,-18.5359
 L 1180.74,-18.1958 L 1179.5,-18 z
M 1278.9,-18 L 1278.07,-18.0874 L 1277.27,-18.3458 L 1276.55,-18.7639 L 1275.92,-19.3235 L 1275.43,-20
 L 1275.09,-20.7639 L 1274.92,-21.5819 L 1274.92,-22.4181 L 1275.09,-23.2361 L 1275.43,-24 L 1275.92,-24.6765
 L 1276.55,-25.2361 L 1277.59,-25.7821 L 1375.7,-59.5593 L 1376.51,-59.7474 L 1377.35,-59.7619 L 1378.17,-59.6024
 L 1378.94,-59.2756 L 1379.62,-58.796 L 1380.19,-58.1844 L 1380.63,-57.4676 L 1380.9,-56.6769 L 1381,-55.7772
 L 1381,-22 L 1380.91,-21.1684 L 1380.65,-20.373 L 1380.24,-19.6489 L 1379.68,-19.0274 L 1379,-18.5359
 L 1378.24,-18.1958 L 1377,-18 z
M 1476.4,-18 L 1475.57,-18.0874 L 1474.77,-18.3458 L 1474.05,-18.7639 L 1473.42,-19.3235 L 1472.93,-20
 L 1472.59,-20.7639 L 1472.42,-21.5819 L 1472.42,-22.4181 L 1472.59,-23.2361 L 1472.93,-24 L 1473.42,-24.6765
 L 1474.05,-25.2361 L 1475.09,-25.7821 L 1571.7,-59.0428 L 1572.51,-59.2309 L 1573.35,-59.2455 L 1574.17,-59.0859
 L 1574.94,-58.7592 L 1575.62,-58.2795 L 1576.19,-57.6679 L 1576.63,-56.9511 L 1576.9,-56.1604 L 1577,-55.2607
 L 1577,-22 L 1576.91,-21.1684 L 1576.65,-20.373 L 1576.24,-19.6489 L 1575.68,-19.0274 L 1575,-18.5359
 L 1574.24,-18.1958 L 1573,-18 z
M 22,-18 L 20.7639,-18.1958 L 20,-18.5359 L 19.3235,-19.0274 L 18.7639,-19.6489 L 18.3458,-20.373
 L 18.0874,-21.1684 L 18,-22 L 18,-55.2607 L 18.1025,-56.1604 L 18.3747,-56.9511 L 18.8054,-57.6679
 L 19.3757,-58.2795 L 20.0607,-58.7592 L 20.8304,-59.0859 L 21.6513,-59.2455 L 22.4874,-59.2309 L 23.3022,-59.0428
 L 119.905,-25.7821 L 120.954,-25.2361 L 121.575,-24.6765 L 122.067,-24 L 122.407,-23.2361 L 122.581,-22.4181
 L 122.581,-21.5819 L 122.407,-20.7639 L 122.067,-20 L 121.575,-19.3235 L 120.954,-18.7639 L 120.23,-18.3458
 L 119.434,-18.0874 L 118.603,-18 z
" stroke="black" fill="lightgray" stroke-width="0.5"/>
</svg>
