<?xml version="1.0" standalone="no"?>
<!DOCTYPE svg PUBLIC "-//W3C//DTD SVG 1.1//EN" "http://www.w3.org/Graphics/SVG/1.1/DTD/svg11.dtd">
<svg width="1297mm" height="80mm" viewBox="0 -80 1297 80" xmlns="http://www.w3.org/2000/svg" version="1.1">
<title>OpenSCAD Model</title>
<path d="
M 1297,-80 L 0,-80 L 0,-0 L 4.95,-0 L 4.95,-6 L 5.00572,-6.53017
 L 5.17046,-7.03717 L 5.437,-7.49884 L 5.79372,-7.895 L 6.22499,-8.20836 L 6.71201,-8.42519 L 7.23344,-8.53603
 L 7.76654,-8.53603 L 8.28798,-8.42519 L 8.77499,-8.20836 L 9.20627,-7.895 L 9.56299,-7.49884 L 9.82953,-7.03717
 L 9.99426,-6.53017 L 10.05,-6 L 10.05,-0 L 188.093,-0 L 188.093,-6 L 188.149,-6.53017
 L 188.313,-7.03717 L 188.58,-7.49884 L 188.937,-7.895 L 189.368,-8.20836 L 189.855,-8.42519 L 190.376,-8.53603
 L 190.909,-8.53603 L 191.431,-8.42519 L 191.918,-8.20836 L 192.349,-7.895 L 192.706,-7.49884 L 192.972,-7.03717
 L 193.137,-6.53017 L 193.193,-6 L 193.193,-0 L 371.236,-0 L 371.236,-6 L 371.291,-6.53017
 L 371.456,-7.03717 L 371.723,-7.49884 L 372.079,-7.895 L 372.511,-8.20836 L 372.998,-8.42519 L 373.519,-8.53603
 L 374.052,-8.53603 L 374.574,-8.42519 L 375.061,-8.20836 L 375.492,-7.895 L 375.849,-7.49884 L 376.115,-7.03717
 L 376.28,-6.53017 L 376.336,-6 L 376.336,-0 L 554.379,-0 L 554.379,-6 L 554.434,-6.53017
 L 554.599,-7.03717 L 554.866,-7.49884 L 555.222,-7.895 L 555.654,-8.20836 L 556.141,-8.42519 L 556.662,-8.53603
 L 557.195,-8.53603 L 557.717,-8.42519 L 558.204,-8.20836 L 558.635,-7.895 L 558.992,-7.49884 L 559.258,-7.03717
 L 559.423,-6.53017 L 559.479,-6 L 559.479,-0 L 737.521,-0 L 737.521,-6 L 737.577,-6.53017
 L 737.742,-7.03717 L 738.008,-7.49884 L 738.365,-7.895 L 738.796,-8.20836 L 739.283,-8.42519 L 739.805,-8.53603
 L 740.338,-8.53603 L 740.859,-8.42519 L 741.346,-8.20836 L 741.778,-7.895 L 742.134,-7.49884 L 742.401,-7.03717
 L 742.566,-6.53017 L 742.621,-6 L 742.621,-0 L 920.664,-0 L 920.664,-6 L 920.72,-6.53017
 L 920.885,-7.03717 L 921.151,-7.49884 L 921.508,-7.895 L 921.939,-8.20836 L 922.426,-8.42519 L 922.948,-8.53603
 L 923.481,-8.53603 L 924.002,-8.42519 L 924.489,-8.20836 L 924.921,-7.895 L 925.277,-7.49884 L 925.544,-7.03717
 L 925.709,-6.53017 L 925.764,-6 L 925.764,-0 L 1103.81,-0 L 1103.81,-6 L 1103.86,-6.53017
 L 1104.03,-7.03717 L 1104.29,-7.49884 L 1104.65,-7.895 L 1105.08,-8.20836 L 1105.57,-8.42519 L 1106.09,-8.53603
 L 1106.62,-8.53603 L 1107.15,-8.42519 L 1107.63,-8.20836 L 1108.06,-7.895 L 1108.42,-7.49884 L 1108.69,-7.03717
 L 1108.85,-6.53017 L 1108.91,-6 L 1108.91,-0 L 1286.95,-0 L 1286.95,-6 L 1287.01,-6.53017
 L 1287.17,-7.03717 L 1287.44,-7.49884 L 1287.79,-7.895 L 1288.22,-8.20836 L 1288.71,-8.42519 L 1289.23,-8.53603
 L 1289.77,-8.53603 L 1290.29,-8.42519 L 1290.77,-8.20836 L 1291.21,-7.895 L 1291.56,-7.49884 L 1291.83,-7.03717
 L 1291.99,-6.53017 L 1292.05,-6 L 1292.05,-0 L 1297,-0 z
M 6.98573,-55.607 L 6.47708,-55.6875 L 5.97964,-55.8208 L 5.49887,-56.0054 L 5.04001,-56.2392 L 4.60811,-56.5196
 L 4.20789,-56.8437 L 3.84373,-57.2079 L 3.51964,-57.6081 L 3.23917,-58.04 L 3.00537,-58.4989 L 2.82082,-58.9796
 L 2.68752,-59.4771 L 2.60696,-59.9857 L 2.58,-60.5 L 2.60696,-61.0143 L 2.68752,-61.5229 L 2.82082,-62.0204
 L 3.00537,-62.5011 L 3.23917,-62.96 L 3.51964,-63.3919 L 3.84373,-63.7921 L 4.20789,-64.1563 L 4.60811,-64.4804
 L 4.95001,-64.7024 L 4.95001,-74 L 5.00574,-74.5302 L 5.17047,-75.0372 L 5.43701,-75.4988 L 5.79373,-75.895
 L 6.22501,-76.2084 L 6.71202,-76.4252 L 7.23346,-76.536 L 7.76654,-76.536 L 8.28798,-76.4252 L 8.77499,-76.2084
 L 9.20627,-75.895 L 9.56299,-75.4988 L 9.82953,-75.0372 L 9.99426,-74.5302 L 10.05,-74 L 10.05,-64.7024
 L 10.3919,-64.4804 L 10.7921,-64.1563 L 11.1563,-63.7921 L 11.4804,-63.3919 L 11.7608,-62.96 L 11.9946,-62.5011
 L 12.1792,-62.0204 L 12.3125,-61.5229 L 12.393,-61.0143 L 12.42,-60.5 L 12.393,-59.9857 L 12.3125,-59.4771
 L 12.1792,-58.9796 L 11.9946,-58.4989 L 11.7608,-58.04 L 11.4804,-57.6081 L 11.1563,-57.2079 L 10.7921,-56.8437
 L 10.3919,-56.5196 L 9.95999,-56.2392 L 9.50113,-56.0054 L 9.02036,-55.8208 L 8.52292,-55.6875 L 8.01427,-55.607
 L 7.5,-55.58 z
M 190.129,-55.607 L 189.62,-55.6875 L 189.122,-55.8208 L 188.642,-56.0054 L 188.183,-56.2392 L 187.751,-56.5196
 L 187.351,-56.8437 L 186.987,-57.2079 L 186.662,-57.6081 L 186.382,-58.04 L 186.148,-58.4989 L 185.964,-58.9796
 L 185.83,-59.4771 L 185.75,-59.9857 L 185.723,-60.5 L 185.75,-61.0143 L 185.83,-61.5229 L 185.964,-62.0204
 L 186.148,-62.5011 L 186.382,-62.96 L 186.662,-63.3919 L 186.987,-63.7921 L 187.351,-64.1563 L 187.751,-64.4804
 L 188.093,-64.7024 L 188.093,-74 L 188.149,-74.5302 L 188.313,-75.0372 L 188.58,-75.4988 L 188.937,-75.895
 L 189.368,-76.2084 L 189.855,-76.4252 L 190.376,-76.536 L 190.909,-76.536 L 191.431,-76.4252 L 191.918,-76.2084
 L 192.349,-75.895 L 192.706,-75.4988 L 192.972,-75.0372 L 193.137,-74.5302 L 193.193,-74 L 193.193,-64.7024
 L 193.535,-64.4804 L 193.935,-64.1563 L 194.299,-63.7921 L 194.623,-63.3919 L 194.904,-62.96 L 195.137,-62.5011
 L 195.322,-62.0204 L 195.455,-61.5229 L 195.536,-61.0143 L 195.563,-60.5 L 195.536,-59.9857 L 195.455,-59.4771
 L 195.322,-58.9796 L 195.137,-58.4989 L 194.904,-58.04 L 194.623,-57.6081 L 194.299,-57.2079 L 193.935,-56.8437
 L 193.535,-56.5196 L 193.103,-56.2392 L 192.644,-56.0054 L 192.163,-55.8208 L 191.666,-55.6875 L 191.157,-55.607
 L 190.643,-55.58 z
M 373.271,-55.607 L 372.763,-55.6875 L 372.265,-55.8208 L 371.785,-56.0054 L 371.326,-56.2392 L 370.894,-56.5196
 L 370.494,-56.8437 L 370.129,-57.2079 L 369.805,-57.6081 L 369.525,-58.04 L 369.291,-58.4989 L 369.107,-58.9796
 L 368.973,-59.4771 L 368.893,-59.9857 L 368.866,-60.5 L 368.893,-61.0143 L 368.973,-61.5229 L 369.107,-62.0204
 L 369.291,-62.5011 L 369.525,-62.96 L 369.805,-63.3919 L 370.129,-63.7921 L 370.494,-64.1563 L 370.894,-64.4804
 L 371.236,-64.7024 L 371.236,-74 L 371.291,-74.5302 L 371.456,-75.0372 L 371.723,-75.4988 L 372.079,-75.895
 L 372.511,-76.2084 L 372.998,-76.4252 L 373.519,-76.536 L 374.052,-76.536 L 374.574,-76.4252 L 375.061,-76.2084
 L 375.492,-75.895 L 375.849,-75.4988 L 376.115,-75.0372 L 376.28,-74.5302 L 376.336,-74 L 376.336,-64.7024
 L 376.678,-64.4804 L 377.078,-64.1563 L 377.442,-63.7921 L 377.766,-63.3919 L 378.047,-62.96 L 378.28,-62.5011
 L 378.465,-62.0204 L 378.598,-61.5229 L 378.679,-61.0143 L 378.706,-60.5 L 378.679,-59.9857 L 378.598,-59.4771
 L 378.465,-58.9796 L 378.28,-58.4989 L 378.047,-58.04 L 377.766,-57.6081 L 377.442,-57.2079 L 377.078,-56.8437
 L 376.678,-56.5196 L 376.246,-56.2392 L 375.787,-56.0054 L 375.306,-55.8208 L 374.809,-55.6875 L 374.3,-55.607
 L 373.786,-55.58 z
M 556.414,-55.607 L 555.906,-55.6875 L 555.408,-55.8208 L 554.927,-56.0054 L 554.469,-56.2392 L 554.037,-56.5196
 L 553.636,-56.8437 L 553.272,-57.2079 L 552.948,-57.6081 L 552.668,-58.04 L 552.434,-58.4989 L 552.249,-58.9796
 L 552.116,-59.4771 L 552.036,-59.9857 L 552.009,-60.5 L 552.036,-61.0143 L 552.116,-61.5229 L 552.249,-62.0204
 L 552.434,-62.5011 L 552.668,-62.96 L 552.948,-63.3919 L 553.272,-63.7921 L 553.636,-64.1563 L 554.037,-64.4804
 L 554.379,-64.7024 L 554.379,-74 L 554.434,-74.5302 L 554.599,-75.0372 L 554.866,-75.4988 L 555.222,-75.895
 L 555.654,-76.2084 L 556.141,-76.4252 L 556.662,-76.536 L 557.195,-76.536 L 557.717,-76.4252 L 558.204,-76.2084
 L 558.635,-75.895 L 558.992,-75.4988 L 559.258,-75.0372 L 559.423,-74.5302 L 559.479,-74 L 559.479,-64.7024
 L 559.82,-64.4804 L 560.221,-64.1563 L 560.585,-63.7921 L 560.909,-63.3919 L 561.189,-62.96 L 561.423,-62.5011
 L 561.608,-62.0204 L 561.741,-61.5229 L 561.822,-61.0143 L 561.849,-60.5 L 561.822,-59.9857 L 561.741,-59.4771
 L 561.608,-58.9796 L 561.423,-58.4989 L 561.189,-58.04 L 560.909,-57.6081 L 560.585,-57.2079 L 560.221,-56.8437
 L 559.82,-56.5196 L 559.389,-56.2392 L 558.93,-56.0054 L 558.449,-55.8208 L 557.951,-55.6875 L 557.443,-55.607
 L 556.929,-55.58 z
M 739.557,-55.607 L 739.049,-55.6875 L 738.551,-55.8208 L 738.07,-56.0054 L 737.611,-56.2392 L 737.18,-56.5196
 L 736.779,-56.8437 L 736.415,-57.2079 L 736.091,-57.6081 L 735.811,-58.04 L 735.577,-58.4989 L 735.392,-58.9796
 L 735.259,-59.4771 L 735.178,-59.9857 L 735.151,-60.5 L 735.178,-61.0143 L 735.259,-61.5229 L 735.392,-62.0204
 L 735.577,-62.5011 L 735.811,-62.96 L 736.091,-63.3919 L 736.415,-63.7921 L 736.779,-64.1563 L 737.18,-64.4804
 L 737.521,-64.7024 L 737.521,-74 L 737.577,-74.5302 L 737.742,-75.0372 L 738.008,-75.4988 L 738.365,-75.895
 L 738.796,-76.2084 L 739.283,-76.4252 L 739.805,-76.536 L 740.338,-76.536 L 740.859,-76.4252 L 741.346,-76.2084
 L 741.778,-75.895 L 742.134,-75.4988 L 742.401,-75.0372 L 742.566,-74.5302 L 742.621,-74 L 742.621,-64.7024
 L 742.963,-64.4804 L 743.364,-64.1563 L 743.728,-63.7921 L 744.052,-63.3919 L 744.332,-62.96 L 744.566,-62.5011
 L 744.751,-62.0204 L 744.884,-61.5229 L 744.964,-61.0143 L 744.991,-60.5 L 744.964,-59.9857 L 744.884,-59.4771
 L 744.751,-58.9796 L 744.566,-58.4989 L 744.332,-58.04 L 744.052,-57.6081 L 743.728,-57.2079 L 743.364,-56.8437
 L 742.963,-56.5196 L 742.531,-56.2392 L 742.073,-56.0054 L 741.592,-55.8208 L 741.094,-55.6875 L 740.586,-55.607
 L 740.071,-55.58 z
M 922.7,-55.607 L 922.191,-55.6875 L 921.694,-55.8208 L 921.213,-56.0054 L 920.754,-56.2392 L 920.322,-56.5196
 L 919.922,-56.8437 L 919.558,-57.2079 L 919.234,-57.6081 L 918.953,-58.04 L 918.72,-58.4989 L 918.535,-58.9796
 L 918.402,-59.4771 L 918.321,-59.9857 L 918.294,-60.5 L 918.321,-61.0143 L 918.402,-61.5229 L 918.535,-62.0204
 L 918.72,-62.5011 L 918.953,-62.96 L 919.234,-63.3919 L 919.558,-63.7921 L 919.922,-64.1563 L 920.322,-64.4804
 L 920.664,-64.7024 L 920.664,-74 L 920.72,-74.5302 L 920.885,-75.0372 L 921.151,-75.4988 L 921.508,-75.895
 L 921.939,-76.2084 L 922.426,-76.4252 L 922.948,-76.536 L 923.481,-76.536 L 924.002,-76.4252 L 924.489,-76.2084
 L 924.921,-75.895 L 925.277,-75.4988 L 925.544,-75.0372 L 925.709,-74.5302 L 925.764,-74 L 925.764,-64.7024
 L 926.106,-64.4804 L 926.506,-64.1563 L 926.871,-63.7921 L 927.195,-63.3919 L 927.475,-62.96 L 927.709,-62.5011
 L 927.893,-62.0204 L 928.027,-61.5229 L 928.107,-61.0143 L 928.134,-60.5 L 928.107,-59.9857 L 928.027,-59.4771
 L 927.893,-58.9796 L 927.709,-58.4989 L 927.475,-58.04 L 927.195,-57.6081 L 926.871,-57.2079 L 926.506,-56.8437
 L 926.106,-56.5196 L 925.674,-56.2392 L 925.215,-56.0054 L 924.735,-55.8208 L 924.237,-55.6875 L 923.729,-55.607
 L 923.214,-55.58 z
M 1105.84,-55.607 L 1105.33,-55.6875 L 1104.84,-55.8208 L 1104.36,-56.0054 L 1103.9,-56.2392 L 1103.47,-56.5196
 L 1103.07,-56.8437 L 1102.7,-57.2079 L 1102.38,-57.6081 L 1102.1,-58.04 L 1101.86,-58.4989 L 1101.68,-58.9796
 L 1101.54,-59.4771 L 1101.46,-59.9857 L 1101.44,-60.5 L 1101.46,-61.0143 L 1101.54,-61.5229 L 1101.68,-62.0204
 L 1101.86,-62.5011 L 1102.1,-62.96 L 1102.38,-63.3919 L 1102.7,-63.7921 L 1103.07,-64.1563 L 1103.47,-64.4804
 L 1103.81,-64.7024 L 1103.81,-74 L 1103.86,-74.5302 L 1104.03,-75.0372 L 1104.29,-75.4988 L 1104.65,-75.895
 L 1105.08,-76.2084 L 1105.57,-76.4252 L 1106.09,-76.536 L 1106.62,-76.536 L 1107.15,-76.4252 L 1107.63,-76.2084
 L 1108.06,-75.895 L 1108.42,-75.4988 L 1108.69,-75.0372 L 1108.85,-74.5302 L 1108.91,-74 L 1108.91,-64.7024
 L 1109.25,-64.4804 L 1109.65,-64.1563 L 1110.01,-63.7921 L 1110.34,-63.3919 L 1110.62,-62.96 L 1110.85,-62.5011
 L 1111.04,-62.0204 L 1111.17,-61.5229 L 1111.25,-61.0143 L 1111.28,-60.5 L 1111.25,-59.9857 L 1111.17,-59.4771
 L 1111.04,-58.9796 L 1110.85,-58.4989 L 1110.62,-58.04 L 1110.34,-57.6081 L 1110.01,-57.2079 L 1109.65,-56.8437
 L 1109.25,-56.5196 L 1108.82,-56.2392 L 1108.36,-56.0054 L 1107.88,-55.8208 L 1107.38,-55.6875 L 1106.87,-55.607
 L 1106.36,-55.58 z
M 1288.99,-55.607 L 1288.48,-55.6875 L 1287.98,-55.8208 L 1287.5,-56.0054 L 1287.04,-56.2392 L 1286.61,-56.5196
 L 1286.21,-56.8437 L 1285.84,-57.2079 L 1285.52,-57.6081 L 1285.24,-58.04 L 1285.01,-58.4989 L 1284.82,-58.9796
 L 1284.69,-59.4771 L 1284.61,-59.9857 L 1284.58,-60.5 L 1284.61,-61.0143 L 1284.69,-61.5229 L 1284.82,-62.0204
 L 1285.01,-62.5011 L 1285.24,-62.96 L 1285.52,-63.3919 L 1285.84,-63.7921 L 1286.21,-64.1563 L 1286.61,-64.4804
 L 1286.95,-64.7024 L 1286.95,-74 L 1287.01,-74.5302 L 1287.17,-75.0372 L 1287.44,-75.4988 L 1287.79,-75.895
 L 1288.23,-76.2084 L 1288.71,-76.4252 L 1289.23,-76.536 L 1289.77,-76.536 L 1290.29,-76.4252 L 1290.77,-76.2084
 L 1291.21,-75.895 L 1291.56,-75.4988 L 1291.83,-75.0372 L 1291.99,-74.5302 L 1292.05,-74 L 1292.05,-64.7024
 L 1292.39,-64.4804 L 1292.79,-64.1563 L 1293.16,-63.7921 L 1293.48,-63.3919 L 1293.76,-62.96 L 1293.99,-62.5011
 L 1294.18,-62.0204 L 1294.31,-61.5229 L 1294.39,-61.0143 L 1294.42,-60.5 L 1294.39,-59.9857 L 1294.31,-59.4771
 L 1294.18,-58.9796 L 1293.99,-58.4989 L 1293.76,-58.04 L 1293.48,-57.6081 L 1293.16,-57.2079 L 1292.79,-56.8437
 L 1292.39,-56.5196 L 1291.96,-56.2392 L 1291.5,-56.0054 L 1291.02,-55.8208 L 1290.52,-55.6875 L 1290.01,-55.607
 L 1289.5,-55.58 z
M 751.994,-20.83 L 751.216,-21.1383 L 750.52,-21.6014 L 749.935,-22.1992 L 749.488,-22.9055 L 749.197,-23.6894
 L 749.071,-24.6821 L 749.071,-58 L 749.159,-58.8316 L 749.417,-59.627 L 749.835,-60.3511 L 750.395,-60.9726
 L 751.071,-61.4641 L 751.835,-61.8042 L 753.071,-62 L 842.806,-62 L 843.637,-61.9126 L 844.433,-61.6542
 L 845.157,-61.2361 L 845.778,-60.6765 L 846.27,-60 L 846.61,-59.2361 L 846.784,-58.4181 L 846.784,-57.5819
 L 846.61,-56.7639 L 846.27,-56 L 845.778,-55.3235 L 845.157,-54.7639 L 844.198,-54.2501 L 754.464,-20.9323
 L 753.654,-20.7247 L 752.818,-20.6902 z
M 647.918,-47.7663 L 647.108,-47.9738 L 630.204,-54.2501 L 629.245,-54.7639 L 628.624,-55.3235 L 628.132,-56
 L 627.792,-56.7639 L 627.618,-57.5819 L 627.618,-58.4181 L 627.792,-59.2361 L 628.132,-60 L 628.624,-60.6765
 L 629.245,-61.2361 L 629.969,-61.6542 L 630.765,-61.9126 L 631.596,-62 L 665.404,-62 L 666.481,-61.8521
 L 667.259,-61.5438 L 667.955,-61.0807 L 668.54,-60.4829 L 668.988,-59.7766 L 669.279,-58.9927 L 669.4,-58.1654
 L 669.347,-57.3308 L 669.122,-56.5255 L 668.734,-55.7847 L 668.201,-55.1406 L 667.545,-54.6216 L 666.796,-54.2501
 L 649.892,-47.9738 L 648.753,-47.7317 z
M 543.346,-20.7247 L 542.536,-20.9323 L 452.802,-54.2501 L 451.843,-54.7639 L 451.222,-55.3235 L 450.73,-56
 L 450.39,-56.7639 L 450.216,-57.5819 L 450.216,-58.4181 L 450.39,-59.2361 L 450.73,-60 L 451.222,-60.6765
 L 451.843,-61.2361 L 452.567,-61.6542 L 453.363,-61.9126 L 454.194,-62 L 543.929,-62 L 545.165,-61.8042
 L 545.929,-61.4641 L 546.605,-60.9726 L 547.165,-60.3511 L 547.583,-59.627 L 547.841,-58.8316 L 547.929,-58
 L 547.929,-24.6821 L 547.803,-23.6894 L 547.512,-22.9055 L 547.065,-22.1992 L 546.48,-21.6014 L 545.784,-21.1383
 L 545.006,-20.83 L 544.182,-20.6902 z
M 360.203,-20.7247 L 359.393,-20.9323 L 269.659,-54.2501 L 268.7,-54.7639 L 268.079,-55.3235 L 267.587,-56
 L 267.247,-56.7639 L 267.073,-57.5819 L 267.073,-58.4181 L 267.247,-59.2361 L 267.587,-60 L 268.079,-60.6765
 L 268.7,-61.2361 L 269.424,-61.6542 L 270.22,-61.9126 L 271.051,-62 L 360.786,-62 L 362.022,-61.8042
 L 362.786,-61.4641 L 363.462,-60.9726 L 364.022,-60.3511 L 364.44,-59.627 L 364.698,-58.8316 L 364.786,-58
 L 364.786,-24.6821 L 364.661,-23.6894 L 364.369,-22.9055 L 363.922,-22.1992 L 363.337,-21.6014 L 362.641,-21.1383
 L 361.863,-20.83 L 361.039,-20.6902 z
M 1118.28,-20.83 L 1117.5,-21.1383 L 1116.81,-21.6014 L 1116.22,-22.1992 L 1115.77,-22.9055 L 1115.48,-23.6894
 L 1115.36,-24.6821 L 1115.36,-58 L 1115.44,-58.8316 L 1115.7,-59.627 L 1116.12,-60.3511 L 1116.68,-60.9726
 L 1117.36,-61.4641 L 1118.12,-61.8042 L 1119.36,-62 L 1209.09,-62 L 1209.92,-61.9126 L 1210.72,-61.6542
 L 1211.44,-61.2361 L 1212.06,-60.6765 L 1212.56,-60 L 1212.9,-59.2361 L 1213.07,-58.4181 L 1213.07,-57.5819
 L 1212.9,-56.7639 L 1212.56,-56 L 1212.06,-55.3235 L 1211.44,-54.7639 L 1210.48,-54.2501 L 1120.75,-20.9323
 L 1119.94,-20.7247 L 1119.1,-20.6902 z
M 177.061,-20.7247 L 176.251,-20.9323 L 86.5163,-54.2501 L 85.5574,-54.7639 L 84.936,-55.3235 L 84.4445,-56
 L 84.1044,-56.7639 L 83.9305,-57.5819 L 83.9305,-58.4181 L 84.1044,-59.2361 L 84.4445,-60 L 84.936,-60.6765
 L 85.5574,-61.2361 L 86.2816,-61.6542 L 87.0769,-61.9126 L 87.9086,-62 L 177.643,-62 L 178.879,-61.8042
 L 179.643,-61.4641 L 180.319,-60.9726 L 180.879,-60.3511 L 181.297,-59.627 L 181.555,-58.8316 L 181.643,-58
 L 181.643,-24.6821 L 181.518,-23.6894 L 181.227,-22.9055 L 180.779,-22.1992 L 180.194,-21.6014 L 179.498,-21.1383
 L 178.721,-20.83 L 177.896,-20.6902 z
M 935.137,-20.83 L 934.359,-21.1383 L 933.663,-21.6014 L 933.078,-22.1992 L 932.63,-22.9055 L 932.339,-23.6894
 L 932.214,-24.6821 L 932.214,-58 L 932.302,-58.8316 L 932.56,-59.627 L 932.978,-60.3511 L 933.538,-60.9726
 L 934.214,-61.4641 L 934.978,-61.8042 L 936.214,-62 L 1025.95,-62 L 1026.78,-61.9126 L 1027.58,-61.6542
 L 1028.3,-61.2361 L 1028.92,-60.6765 L 1029.41,-60 L 1029.75,-59.2361 L 1029.93,-58.4181 L 1029.93,-57.5819
 L 1029.75,-56.7639 L 1029.41,-56 L 1028.92,-55.3235 L 1028.3,-54.7639 L 1027.34,-54.2501 L 937.607,-20.9323
 L 936.797,-20.7247 L 935.961,-20.6902 z
M 569.51,-18.5725 L 568.692,-18.7463 L 567.929,-19.0865 L 567.252,-19.578 L 566.692,-20.1994 L 566.274,-20.9236
 L 566.016,-21.7189 L 565.929,-22.5506 L 565.929,-57.4494 L 566.054,-58.4422 L 566.345,-59.2261 L 566.792,-59.9324
 L 567.377,-60.5302 L 568.074,-60.9933 L 568.851,-61.3015 L 569.675,-61.4414 L 570.511,-61.4068 L 571.321,-61.1993
 L 618.317,-43.7499 L 618.78,-43.5438 L 619.476,-43.0807 L 620.061,-42.4829 L 620.509,-41.7766 L 620.8,-40.9927
 L 620.921,-40.1654 L 620.868,-39.3308 L 620.643,-38.5255 L 620.255,-37.7847 L 619.722,-37.1406 L 619.066,-36.6216
 L 618.317,-36.2501 L 571.321,-18.8007 L 570.347,-18.5725 z
M 726.489,-18.5931 L 725.679,-18.8007 L 678.683,-36.2501 L 678.22,-36.4562 L 677.524,-36.9193 L 676.939,-37.5171
 L 676.491,-38.2234 L 676.2,-39.0073 L 676.079,-39.8346 L 676.132,-40.6692 L 676.357,-41.4745 L 676.745,-42.2153
 L 677.278,-42.8594 L 677.934,-43.3784 L 678.683,-43.7499 L 725.679,-61.1993 L 726.653,-61.4276 L 727.49,-61.4276
 L 728.307,-61.2537 L 729.071,-60.9136 L 729.748,-60.422 L 730.307,-59.8006 L 730.726,-59.0764 L 730.984,-58.2811
 L 731.071,-57.4495 L 731.071,-22.5505 L 730.946,-21.5578 L 730.655,-20.7739 L 730.208,-20.0676 L 729.623,-19.4698
 L 728.926,-19.0067 L 728.149,-18.6985 L 727.325,-18.5586 z
M 203.643,-18 L 202.407,-18.1958 L 201.643,-18.5359 L 200.966,-19.0274 L 200.407,-19.6489 L 199.989,-20.373
 L 199.73,-21.1684 L 199.643,-22 L 199.643,-55.3179 L 199.768,-56.3106 L 200.059,-57.0945 L 200.507,-57.8008
 L 201.092,-58.3986 L 201.788,-58.8617 L 202.565,-59.1699 L 203.39,-59.3098 L 204.225,-59.2753 L 205.035,-59.0677
 L 294.769,-25.7499 L 295.728,-25.2361 L 296.35,-24.6765 L 296.841,-24 L 297.181,-23.2361 L 297.355,-22.4181
 L 297.355,-21.5819 L 297.181,-20.7639 L 296.841,-20 L 296.35,-19.3235 L 295.728,-18.7639 L 295.004,-18.3458
 L 294.209,-18.0874 L 293.377,-18 z
M 386.786,-18 L 385.55,-18.1958 L 384.786,-18.5359 L 384.109,-19.0274 L 383.55,-19.6489 L 383.132,-20.373
 L 382.873,-21.1684 L 382.786,-22 L 382.786,-55.3179 L 382.911,-56.3106 L 383.202,-57.0945 L 383.65,-57.8008
 L 384.234,-58.3986 L 384.931,-58.8617 L 385.708,-59.1699 L 386.532,-59.3098 L 387.368,-59.2753 L 388.178,-59.0677
 L 477.912,-25.7499 L 478.871,-25.2361 L 479.493,-24.6765 L 479.984,-24 L 480.324,-23.2361 L 480.498,-22.4181
 L 480.498,-21.5819 L 480.324,-20.7639 L 479.984,-20 L 479.493,-19.3235 L 478.871,-18.7639 L 478.147,-18.3458
 L 477.352,-18.0874 L 476.52,-18 z
M 820.48,-18 L 819.648,-18.0874 L 818.853,-18.3458 L 818.129,-18.7639 L 817.507,-19.3235 L 817.016,-20
 L 816.676,-20.7639 L 816.502,-21.5819 L 816.502,-22.4181 L 816.676,-23.2361 L 817.016,-24 L 817.507,-24.6765
 L 818.129,-25.2361 L 819.088,-25.7499 L 908.822,-59.0677 L 909.632,-59.2753 L 910.468,-59.3098 L 911.292,-59.1699
 L 912.069,-58.8617 L 912.766,-58.3986 L 913.35,-57.8008 L 913.798,-57.0945 L 914.089,-56.3106 L 914.214,-55.3179
 L 914.214,-22 L 914.127,-21.1684 L 913.868,-20.373 L 913.45,-19.6489 L 912.891,-19.0274 L 912.214,-18.5359
 L 911.45,-18.1958 L 910.214,-18 z
M 1003.62,-18 L 1002.79,-18.0874 L 1002,-18.3458 L 1001.27,-18.7639 L 1000.65,-19.3235 L 1000.16,-20
 L 999.819,-20.7639 L 999.645,-21.5819 L 999.645,-22.4181 L 999.819,-23.2361 L 1000.16,-24 L 1000.65,-24.6765
 L 1001.27,-25.2361 L 1002.23,-25.7499 L 1091.96,-59.0677 L 1092.77,-59.2753 L 1093.61,-59.3098 L 1094.43,-59.1699
 L 1095.21,-58.8617 L 1095.91,-58.3986 L 1096.49,-57.8008 L 1096.94,-57.0945 L 1097.23,-56.3106 L 1097.36,-55.3179
 L 1097.36,-22 L 1097.27,-21.1684 L 1097.01,-20.373 L 1096.59,-19.6489 L 1096.03,-19.0274 L 1095.36,-18.5359
 L 1094.59,-18.1958 L 1093.36,-18 z
M 22,-18 L 20.7639,-18.1958 L 20,-18.5359 L 19.3235,-19.0274 L 18.7639,-19.6489 L 18.3458,-20.373
 L 18.0874,-21.1684 L 18,-22 L 18,-54.7609 L 18.1251,-55.7536 L 18.4162,-56.5376 L 18.8639,-57.2438
 L 19.4487,-57.8416 L 20.1449,-58.3047 L 20.9223,-58.613 L 21.7467,-58.7529 L 22.5822,-58.7183 L 23.3923,-58.5108
 L 111.627,-25.7499 L 112.585,-25.2361 L 113.207,-24.6765 L 113.698,-24 L 114.038,-23.2361 L 114.212,-22.4181
 L 114.212,-21.5819 L 114.038,-20.7639 L 113.698,-20 L 113.207,-19.3235 L 112.585,-18.7639 L 111.861,-18.3458
 L 111.066,-18.0874 L 110.234,-18 z
M 1186.77,-18 L 1185.93,-18.0874 L 1185.14,-18.3458 L 1184.41,-18.7639 L 1183.79,-19.3235 L 1183.3,-20
 L 1182.96,-20.7639 L 1182.79,-21.5819 L 1182.79,-22.4181 L 1182.96,-23.2361 L 1183.3,-24 L 1183.79,-24.6765
 L 1184.41,-25.2361 L 1185.37,-25.7499 L 1273.61,-58.5108 L 1274.42,-58.7183 L 1275.25,-58.7529 L 1276.08,-58.613
 L 1276.86,-58.3047 L 1277.55,-57.8416 L 1278.14,-57.2438 L 1278.58,-56.5376 L 1278.87,-55.7536 L 1279,-54.7609
 L 1279,-22 L 1278.91,-21.1684 L 1278.65,-20.373 L 1278.24,-19.6489 L 1277.68,-19.0274 L 1277,-18.5359
 L 1276.24,-18.1958 L 1275,-18 z
M 631.596,-18 L 630.518,-18.1479 L 629.741,-18.4562 L 629.045,-18.9193 L 628.46,-19.5171 L 628.012,-20.2234
 L 627.721,-21.0073 L 627.6,-21.8346 L 627.653,-22.6692 L 627.878,-23.4745 L 628.266,-24.2153 L 628.799,-24.8594
 L 629.455,-25.3784 L 630.204,-25.7499 L 647.108,-32.0262 L 648.247,-32.2683 L 649.082,-32.2337 L 649.892,-32.0262
 L 666.796,-25.7499 L 667.755,-25.2361 L 668.376,-24.6765 L 668.868,-24 L 669.208,-23.2361 L 669.382,-22.4181
 L 669.382,-21.5819 L 669.208,-20.7639 L 668.868,-20 L 668.376,-19.3235 L 667.755,-18.7639 L 667.031,-18.3458
 L 666.235,-18.0874 L 665.404,-18 z
" stroke="black" fill="lightgray" stroke-width="0.5"/>
</svg>
