<?xml version="1.0" standalone="no"?>
<!DOCTYPE svg PUBLIC "-//W3C//DTD SVG 1.1//EN" "http://www.w3.org/Graphics/SVG/1.1/DTD/svg11.dtd">
<svg width="1651mm" height="80mm" viewBox="0 -80 1651 80" xmlns="http://www.w3.org/2000/svg" version="1.1">
<title>OpenSCAD Model</title>
<path d="
M 1651,-80 L 0,-80 L 0,-0 L 4.95,-0 L 4.95,-6 L 5.00572,-6.53017
 L 5.17046,-7.03717 L 5.437,-7.49884 L 5.79372,-7.895 L 6.22499,-8.20836 L 6.71201,-8.42519 L 7.23344,-8.53603
 L 7.76654,-8.53603 L 8.28798,-8.42519 L 8.77499,-8.20836 L 9.20627,-7.895 L 9.56299,-7.49884 L 9.82953,-7.03717
 L 9.99426,-6.53017 L 10.05,-6 L 10.05,-0 L 186.728,-0 L 186.728,-6 L 186.783,-6.53017
 L 186.948,-7.03717 L 187.215,-7.49884 L 187.571,-7.895 L 188.003,-8.20836 L 188.49,-8.42519 L 189.011,-8.53603
 L 189.544,-8.53603 L 190.066,-8.42519 L 190.553,-8.20836 L 190.984,-7.895 L 191.341,-7.49884 L 191.607,-7.03717
 L 191.772,-6.53017 L 191.828,-6 L 191.828,-0 L 368.506,-0 L 368.506,-6 L 368.561,-6.53017
 L 368.726,-7.03717 L 368.993,-7.49884 L 369.349,-7.895 L 369.781,-8.20836 L 370.268,-8.42519 L 370.789,-8.53603
 L 371.322,-8.53603 L 371.844,-8.42519 L 372.331,-8.20836 L 372.762,-7.895 L 373.119,-7.49884 L 373.385,-7.03717
 L 373.55,-6.53017 L 373.606,-6 L 373.606,-0 L 550.283,-0 L 550.283,-6 L 550.339,-6.53017
 L 550.504,-7.03717 L 550.77,-7.49884 L 551.127,-7.895 L 551.558,-8.20836 L 552.045,-8.42519 L 552.567,-8.53603
 L 553.1,-8.53603 L 553.621,-8.42519 L 554.108,-8.20836 L 554.54,-7.895 L 554.896,-7.49884 L 555.163,-7.03717
 L 555.328,-6.53017 L 555.383,-6 L 555.383,-0 L 732.061,-0 L 732.061,-6 L 732.117,-6.53017
 L 732.282,-7.03717 L 732.548,-7.49884 L 732.905,-7.895 L 733.336,-8.20836 L 733.823,-8.42519 L 734.345,-8.53603
 L 734.878,-8.53603 L 735.399,-8.42519 L 735.886,-8.20836 L 736.317,-7.895 L 736.674,-7.49884 L 736.941,-7.03717
 L 737.105,-6.53017 L 737.161,-6 L 737.161,-0 L 913.839,-0 L 913.839,-6 L 913.895,-6.53017
 L 914.059,-7.03717 L 914.326,-7.49884 L 914.683,-7.895 L 915.114,-8.20836 L 915.601,-8.42519 L 916.122,-8.53603
 L 916.655,-8.53603 L 917.177,-8.42519 L 917.664,-8.20836 L 918.095,-7.895 L 918.452,-7.49884 L 918.718,-7.03717
 L 918.883,-6.53017 L 918.939,-6 L 918.939,-0 L 1095.62,-0 L 1095.62,-6 L 1095.67,-6.53017
 L 1095.84,-7.03717 L 1096.1,-7.49884 L 1096.46,-7.895 L 1096.89,-8.20836 L 1097.38,-8.42519 L 1097.9,-8.53603
 L 1098.43,-8.53603 L 1098.95,-8.42519 L 1099.44,-8.20836 L 1099.87,-7.895 L 1100.23,-7.49884 L 1100.5,-7.03717
 L 1100.66,-6.53017 L 1100.72,-6 L 1100.72,-0 L 1277.39,-0 L 1277.39,-6 L 1277.45,-6.53017
 L 1277.61,-7.03717 L 1277.88,-7.49884 L 1278.24,-7.895 L 1278.67,-8.20836 L 1279.16,-8.42519 L 1279.68,-8.53603
 L 1280.21,-8.53603 L 1280.73,-8.42519 L 1281.22,-8.20836 L 1281.65,-7.895 L 1282.01,-7.49884 L 1282.27,-7.03717
 L 1282.44,-6.53017 L 1282.49,-6 L 1282.49,-0 L 1459.17,-0 L 1459.17,-6 L 1459.23,-6.53017
 L 1459.39,-7.03717 L 1459.66,-7.49884 L 1460.02,-7.895 L 1460.45,-8.20836 L 1460.93,-8.42519 L 1461.46,-8.53603
 L 1461.99,-8.53603 L 1462.51,-8.42519 L 1463,-8.20836 L 1463.43,-7.895 L 1463.79,-7.49884 L 1464.05,-7.03717
 L 1464.22,-6.53017 L 1464.27,-6 L 1464.27,-0 L 1640.95,-0 L 1640.95,-6 L 1641.01,-6.53017
 L 1641.17,-7.03717 L 1641.44,-7.49884 L 1641.79,-7.895 L 1642.22,-8.20836 L 1642.71,-8.42519 L 1643.23,-8.53603
 L 1643.77,-8.53603 L 1644.29,-8.42519 L 1644.77,-8.20836 L 1645.21,-7.895 L 1645.56,-7.49884 L 1645.83,-7.03717
 L 1645.99,-6.53017 L 1646.05,-6 L 1646.05,-0 L 1651,-0 z
M 6.98573,-55.607 L 6.47708,-55.6875 L 5.97964,-55.8208 L 5.49887,-56.0054 L 5.04001,-56.2392 L 4.60811,-56.5196
 L 4.20789,-56.8437 L 3.84373,-57.2079 L 3.51964,-57.6081 L 3.23917,-58.04 L 3.00537,-58.4989 L 2.82082,-58.9796
 L 2.68752,-59.4771 L 2.60696,-59.9857 L 2.58,-60.5 L 2.60696,-61.0143 L 2.68752,-61.5229 L 2.82082,-62.0204
 L 3.00537,-62.5011 L 3.23917,-62.96 L 3.51964,-63.3919 L 3.84373,-63.7921 L 4.20789,-64.1563 L 4.60811,-64.4804
 L 4.95001,-64.7024 L 4.95001,-74 L 5.00574,-74.5302 L 5.17047,-75.0372 L 5.43701,-75.4988 L 5.79373,-75.895
 L 6.22501,-76.2084 L 6.71202,-76.4252 L 7.23346,-76.536 L 7.76654,-76.536 L 8.28798,-76.4252 L 8.77499,-76.2084
 L 9.20627,-75.895 L 9.56299,-75.4988 L 9.82953,-75.0372 L 9.99426,-74.5302 L 10.05,-74 L 10.05,-64.7024
 L 10.3919,-64.4804 L 10.7921,-64.1563 L 11.1563,-63.7921 L 11.4804,-63.3919 L 11.7608,-62.96 L 11.9946,-62.5011
 L 12.1792,-62.0204 L 12.3125,-61.5229 L 12.393,-61.0143 L 12.42,-60.5 L 12.393,-59.9857 L 12.3125,-59.4771
 L 12.1792,-58.9796 L 11.9946,-58.4989 L 11.7608,-58.04 L 11.4804,-57.6081 L 11.1563,-57.2079 L 10.7921,-56.8437
 L 10.3919,-56.5196 L 9.95999,-56.2392 L 9.50113,-56.0054 L 9.02036,-55.8208 L 8.52292,-55.6875 L 8.01427,-55.607
 L 7.5,-55.58 z
M 1097.65,-55.607 L 1097.14,-55.6875 L 1096.65,-55.8208 L 1096.17,-56.0054 L 1095.71,-56.2392 L 1095.27,-56.5196
 L 1094.87,-56.8437 L 1094.51,-57.2079 L 1094.19,-57.6081 L 1093.91,-58.04 L 1093.67,-58.4989 L 1093.49,-58.9796
 L 1093.35,-59.4771 L 1093.27,-59.9857 L 1093.25,-60.5 L 1093.27,-61.0143 L 1093.35,-61.5229 L 1093.49,-62.0204
 L 1093.67,-62.5011 L 1093.91,-62.96 L 1094.19,-63.3919 L 1094.51,-63.7921 L 1094.87,-64.1563 L 1095.27,-64.4804
 L 1095.62,-64.7024 L 1095.62,-74 L 1095.67,-74.5302 L 1095.84,-75.0372 L 1096.1,-75.4988 L 1096.46,-75.895
 L 1096.89,-76.2084 L 1097.38,-76.4252 L 1097.9,-76.536 L 1098.43,-76.536 L 1098.95,-76.4252 L 1099.44,-76.2084
 L 1099.87,-75.895 L 1100.23,-75.4988 L 1100.5,-75.0372 L 1100.66,-74.5302 L 1100.72,-74 L 1100.72,-64.7024
 L 1101.06,-64.4804 L 1101.46,-64.1563 L 1101.82,-63.7921 L 1102.15,-63.3919 L 1102.43,-62.96 L 1102.66,-62.5011
 L 1102.85,-62.0204 L 1102.98,-61.5229 L 1103.06,-61.0143 L 1103.09,-60.5 L 1103.06,-59.9857 L 1102.98,-59.4771
 L 1102.85,-58.9796 L 1102.66,-58.4989 L 1102.43,-58.04 L 1102.15,-57.6081 L 1101.82,-57.2079 L 1101.46,-56.8437
 L 1101.06,-56.5196 L 1100.63,-56.2392 L 1100.17,-56.0054 L 1099.69,-55.8208 L 1099.19,-55.6875 L 1098.68,-55.607
 L 1098.17,-55.58 z
M 1279.43,-55.607 L 1278.92,-55.6875 L 1278.42,-55.8208 L 1277.94,-56.0054 L 1277.48,-56.2392 L 1277.05,-56.5196
 L 1276.65,-56.8437 L 1276.29,-57.2079 L 1275.96,-57.6081 L 1275.68,-58.04 L 1275.45,-58.4989 L 1275.27,-58.9796
 L 1275.13,-59.4771 L 1275.05,-59.9857 L 1275.02,-60.5 L 1275.05,-61.0143 L 1275.13,-61.5229 L 1275.27,-62.0204
 L 1275.45,-62.5011 L 1275.68,-62.96 L 1275.96,-63.3919 L 1276.29,-63.7921 L 1276.65,-64.1563 L 1277.05,-64.4804
 L 1277.39,-64.7024 L 1277.39,-74 L 1277.45,-74.5302 L 1277.61,-75.0372 L 1277.88,-75.4988 L 1278.24,-75.895
 L 1278.67,-76.2084 L 1279.16,-76.4252 L 1279.68,-76.536 L 1280.21,-76.536 L 1280.73,-76.4252 L 1281.22,-76.2084
 L 1281.65,-75.895 L 1282.01,-75.4988 L 1282.27,-75.0372 L 1282.44,-74.5302 L 1282.49,-74 L 1282.49,-64.7024
 L 1282.84,-64.4804 L 1283.24,-64.1563 L 1283.6,-63.7921 L 1283.92,-63.3919 L 1284.21,-62.96 L 1284.44,-62.5011
 L 1284.62,-62.0204 L 1284.76,-61.5229 L 1284.84,-61.0143 L 1284.86,-60.5 L 1284.84,-59.9857 L 1284.76,-59.4771
 L 1284.62,-58.9796 L 1284.44,-58.4989 L 1284.21,-58.04 L 1283.92,-57.6081 L 1283.6,-57.2079 L 1283.24,-56.8437
 L 1282.84,-56.5196 L 1282.4,-56.2392 L 1281.95,-56.0054 L 1281.46,-55.8208 L 1280.97,-55.6875 L 1280.46,-55.607
 L 1279.94,-55.58 z
M 915.875,-55.607 L 915.366,-55.6875 L 914.869,-55.8208 L 914.388,-56.0054 L 913.929,-56.2392 L 913.497,-56.5196
 L 913.097,-56.8437 L 912.733,-57.2079 L 912.409,-57.6081 L 912.128,-58.04 L 911.894,-58.4989 L 911.71,-58.9796
 L 911.576,-59.4771 L 911.496,-59.9857 L 911.469,-60.5 L 911.496,-61.0143 L 911.576,-61.5229 L 911.71,-62.0204
 L 911.894,-62.5011 L 912.128,-62.96 L 912.409,-63.3919 L 912.733,-63.7921 L 913.097,-64.1563 L 913.497,-64.4804
 L 913.839,-64.7024 L 913.839,-74 L 913.895,-74.5302 L 914.059,-75.0372 L 914.326,-75.4988 L 914.683,-75.895
 L 915.114,-76.2084 L 915.601,-76.4252 L 916.122,-76.536 L 916.655,-76.536 L 917.177,-76.4252 L 917.664,-76.2084
 L 918.095,-75.895 L 918.452,-75.4988 L 918.718,-75.0372 L 918.883,-74.5302 L 918.939,-74 L 918.939,-64.7024
 L 919.281,-64.4804 L 919.681,-64.1563 L 920.045,-63.7921 L 920.369,-63.3919 L 920.65,-62.96 L 920.884,-62.5011
 L 921.068,-62.0204 L 921.201,-61.5229 L 921.282,-61.0143 L 921.309,-60.5 L 921.282,-59.9857 L 921.201,-59.4771
 L 921.068,-58.9796 L 920.884,-58.4989 L 920.65,-58.04 L 920.369,-57.6081 L 920.045,-57.2079 L 919.681,-56.8437
 L 919.281,-56.5196 L 918.849,-56.2392 L 918.39,-56.0054 L 917.909,-55.8208 L 917.412,-55.6875 L 916.903,-55.607
 L 916.389,-55.58 z
M 734.097,-55.607 L 733.588,-55.6875 L 733.091,-55.8208 L 732.61,-56.0054 L 732.151,-56.2392 L 731.719,-56.5196
 L 731.319,-56.8437 L 730.955,-57.2079 L 730.631,-57.6081 L 730.35,-58.04 L 730.116,-58.4989 L 729.932,-58.9796
 L 729.799,-59.4771 L 729.718,-59.9857 L 729.691,-60.5 L 729.718,-61.0143 L 729.799,-61.5229 L 729.932,-62.0204
 L 730.116,-62.5011 L 730.35,-62.96 L 730.631,-63.3919 L 730.955,-63.7921 L 731.319,-64.1563 L 731.719,-64.4804
 L 732.061,-64.7024 L 732.061,-74 L 732.117,-74.5302 L 732.282,-75.0372 L 732.548,-75.4988 L 732.905,-75.895
 L 733.336,-76.2084 L 733.823,-76.4252 L 734.345,-76.536 L 734.878,-76.536 L 735.399,-76.4252 L 735.886,-76.2084
 L 736.317,-75.895 L 736.674,-75.4988 L 736.941,-75.0372 L 737.105,-74.5302 L 737.161,-74 L 737.161,-64.7024
 L 737.503,-64.4804 L 737.903,-64.1563 L 738.267,-63.7921 L 738.591,-63.3919 L 738.872,-62.96 L 739.106,-62.5011
 L 739.29,-62.0204 L 739.424,-61.5229 L 739.504,-61.0143 L 739.531,-60.5 L 739.504,-59.9857 L 739.424,-59.4771
 L 739.29,-58.9796 L 739.106,-58.4989 L 738.872,-58.04 L 738.591,-57.6081 L 738.267,-57.2079 L 737.903,-56.8437
 L 737.503,-56.5196 L 737.071,-56.2392 L 736.612,-56.0054 L 736.131,-55.8208 L 735.634,-55.6875 L 735.125,-55.607
 L 734.611,-55.58 z
M 1461.21,-55.607 L 1460.7,-55.6875 L 1460.2,-55.8208 L 1459.72,-56.0054 L 1459.26,-56.2392 L 1458.83,-56.5196
 L 1458.43,-56.8437 L 1458.07,-57.2079 L 1457.74,-57.6081 L 1457.46,-58.04 L 1457.23,-58.4989 L 1457.04,-58.9796
 L 1456.91,-59.4771 L 1456.83,-59.9857 L 1456.8,-60.5 L 1456.83,-61.0143 L 1456.91,-61.5229 L 1457.04,-62.0204
 L 1457.23,-62.5011 L 1457.46,-62.96 L 1457.74,-63.3919 L 1458.07,-63.7921 L 1458.43,-64.1563 L 1458.83,-64.4804
 L 1459.17,-64.7024 L 1459.17,-74 L 1459.23,-74.5302 L 1459.39,-75.0372 L 1459.66,-75.4988 L 1460.02,-75.895
 L 1460.45,-76.2084 L 1460.93,-76.4252 L 1461.46,-76.536 L 1461.99,-76.536 L 1462.51,-76.4252 L 1463,-76.2084
 L 1463.43,-75.895 L 1463.79,-75.4988 L 1464.05,-75.0372 L 1464.22,-74.5302 L 1464.27,-74 L 1464.27,-64.7024
 L 1464.61,-64.4804 L 1465.01,-64.1563 L 1465.38,-63.7921 L 1465.7,-63.3919 L 1465.98,-62.96 L 1466.22,-62.5011
 L 1466.4,-62.0204 L 1466.53,-61.5229 L 1466.62,-61.0143 L 1466.64,-60.5 L 1466.62,-59.9857 L 1466.53,-59.4771
 L 1466.4,-58.9796 L 1466.22,-58.4989 L 1465.98,-58.04 L 1465.7,-57.6081 L 1465.38,-57.2079 L 1465.01,-56.8437
 L 1464.61,-56.5196 L 1464.18,-56.2392 L 1463.72,-56.0054 L 1463.24,-55.8208 L 1462.75,-55.6875 L 1462.24,-55.607
 L 1461.72,-55.58 z
M 552.319,-55.607 L 551.81,-55.6875 L 551.313,-55.8208 L 550.832,-56.0054 L 550.373,-56.2392 L 549.941,-56.5196
 L 549.541,-56.8437 L 549.177,-57.2079 L 548.853,-57.6081 L 548.572,-58.04 L 548.339,-58.4989 L 548.154,-58.9796
 L 548.021,-59.4771 L 547.94,-59.9857 L 547.913,-60.5 L 547.94,-61.0143 L 548.021,-61.5229 L 548.154,-62.0204
 L 548.339,-62.5011 L 548.572,-62.96 L 548.853,-63.3919 L 549.177,-63.7921 L 549.541,-64.1563 L 549.941,-64.4804
 L 550.283,-64.7024 L 550.283,-74 L 550.339,-74.5302 L 550.504,-75.0372 L 550.77,-75.4988 L 551.127,-75.895
 L 551.558,-76.2084 L 552.045,-76.4252 L 552.567,-76.536 L 553.1,-76.536 L 553.621,-76.4252 L 554.108,-76.2084
 L 554.54,-75.895 L 554.896,-75.4988 L 555.163,-75.0372 L 555.328,-74.5302 L 555.383,-74 L 555.383,-64.7024
 L 555.725,-64.4804 L 556.125,-64.1563 L 556.49,-63.7921 L 556.814,-63.3919 L 557.094,-62.96 L 557.328,-62.5011
 L 557.513,-62.0204 L 557.646,-61.5229 L 557.726,-61.0143 L 557.753,-60.5 L 557.726,-59.9857 L 557.646,-59.4771
 L 557.513,-58.9796 L 557.328,-58.4989 L 557.094,-58.04 L 556.814,-57.6081 L 556.49,-57.2079 L 556.125,-56.8437
 L 555.725,-56.5196 L 555.293,-56.2392 L 554.834,-56.0054 L 554.354,-55.8208 L 553.856,-55.6875 L 553.348,-55.607
 L 552.833,-55.58 z
M 370.541,-55.607 L 370.033,-55.6875 L 369.535,-55.8208 L 369.054,-56.0054 L 368.596,-56.2392 L 368.164,-56.5196
 L 367.763,-56.8437 L 367.399,-57.2079 L 367.075,-57.6081 L 366.795,-58.04 L 366.561,-58.4989 L 366.376,-58.9796
 L 366.243,-59.4771 L 366.163,-59.9857 L 366.136,-60.5 L 366.163,-61.0143 L 366.243,-61.5229 L 366.376,-62.0204
 L 366.561,-62.5011 L 366.795,-62.96 L 367.075,-63.3919 L 367.399,-63.7921 L 367.763,-64.1563 L 368.164,-64.4804
 L 368.506,-64.7024 L 368.506,-74 L 368.561,-74.5302 L 368.726,-75.0372 L 368.993,-75.4988 L 369.349,-75.895
 L 369.781,-76.2084 L 370.268,-76.4252 L 370.789,-76.536 L 371.322,-76.536 L 371.844,-76.4252 L 372.331,-76.2084
 L 372.762,-75.895 L 373.119,-75.4988 L 373.385,-75.0372 L 373.55,-74.5302 L 373.606,-74 L 373.606,-64.7024
 L 373.947,-64.4804 L 374.348,-64.1563 L 374.712,-63.7921 L 375.036,-63.3919 L 375.316,-62.96 L 375.55,-62.5011
 L 375.735,-62.0204 L 375.868,-61.5229 L 375.949,-61.0143 L 375.976,-60.5 L 375.949,-59.9857 L 375.868,-59.4771
 L 375.735,-58.9796 L 375.55,-58.4989 L 375.316,-58.04 L 375.036,-57.6081 L 374.712,-57.2079 L 374.348,-56.8437
 L 373.947,-56.5196 L 373.516,-56.2392 L 373.057,-56.0054 L 372.576,-55.8208 L 372.078,-55.6875 L 371.57,-55.607
 L 371.056,-55.58 z
M 1642.99,-55.607 L 1642.48,-55.6875 L 1641.98,-55.8208 L 1641.5,-56.0054 L 1641.04,-56.2392 L 1640.61,-56.5196
 L 1640.21,-56.8437 L 1639.84,-57.2079 L 1639.52,-57.6081 L 1639.24,-58.04 L 1639.01,-58.4989 L 1638.82,-58.9796
 L 1638.69,-59.4771 L 1638.61,-59.9857 L 1638.58,-60.5 L 1638.61,-61.0143 L 1638.69,-61.5229 L 1638.82,-62.0204
 L 1639.01,-62.5011 L 1639.24,-62.96 L 1639.52,-63.3919 L 1639.84,-63.7921 L 1640.21,-64.1563 L 1640.61,-64.4804
 L 1640.95,-64.7024 L 1640.95,-74 L 1641.01,-74.5302 L 1641.17,-75.0372 L 1641.44,-75.4988 L 1641.79,-75.895
 L 1642.23,-76.2084 L 1642.71,-76.4252 L 1643.23,-76.536 L 1643.77,-76.536 L 1644.29,-76.4252 L 1644.77,-76.2084
 L 1645.21,-75.895 L 1645.56,-75.4988 L 1645.83,-75.0372 L 1645.99,-74.5302 L 1646.05,-74 L 1646.05,-64.7024
 L 1646.39,-64.4804 L 1646.79,-64.1563 L 1647.16,-63.7921 L 1647.48,-63.3919 L 1647.76,-62.96 L 1647.99,-62.5011
 L 1648.18,-62.0204 L 1648.31,-61.5229 L 1648.39,-61.0143 L 1648.42,-60.5 L 1648.39,-59.9857 L 1648.31,-59.4771
 L 1648.18,-58.9796 L 1647.99,-58.4989 L 1647.76,-58.04 L 1647.48,-57.6081 L 1647.16,-57.2079 L 1646.79,-56.8437
 L 1646.39,-56.5196 L 1645.96,-56.2392 L 1645.5,-56.0054 L 1645.02,-55.8208 L 1644.52,-55.6875 L 1644.01,-55.607
 L 1643.5,-55.58 z
M 188.764,-55.607 L 188.255,-55.6875 L 187.757,-55.8208 L 187.277,-56.0054 L 186.818,-56.2392 L 186.386,-56.5196
 L 185.986,-56.8437 L 185.622,-57.2079 L 185.297,-57.6081 L 185.017,-58.04 L 184.783,-58.4989 L 184.599,-58.9796
 L 184.465,-59.4771 L 184.385,-59.9857 L 184.358,-60.5 L 184.385,-61.0143 L 184.465,-61.5229 L 184.599,-62.0204
 L 184.783,-62.5011 L 185.017,-62.96 L 185.297,-63.3919 L 185.622,-63.7921 L 185.986,-64.1563 L 186.386,-64.4804
 L 186.728,-64.7024 L 186.728,-74 L 186.784,-74.5302 L 186.948,-75.0372 L 187.215,-75.4988 L 187.572,-75.895
 L 188.003,-76.2084 L 188.49,-76.4252 L 189.011,-76.536 L 189.544,-76.536 L 190.066,-76.4252 L 190.553,-76.2084
 L 190.984,-75.895 L 191.341,-75.4988 L 191.607,-75.0372 L 191.772,-74.5302 L 191.828,-74 L 191.828,-64.7024
 L 192.17,-64.4804 L 192.57,-64.1563 L 192.934,-63.7921 L 193.258,-63.3919 L 193.539,-62.96 L 193.772,-62.5011
 L 193.957,-62.0204 L 194.09,-61.5229 L 194.171,-61.0143 L 194.198,-60.5 L 194.171,-59.9857 L 194.09,-59.4771
 L 193.957,-58.9796 L 193.772,-58.4989 L 193.539,-58.04 L 193.258,-57.6081 L 192.934,-57.2079 L 192.57,-56.8437
 L 192.17,-56.5196 L 191.738,-56.2392 L 191.279,-56.0054 L 190.798,-55.8208 L 190.301,-55.6875 L 189.792,-55.607
 L 189.278,-55.58 z
M 1110.1,-20.8749 L 1109.32,-21.1812 L 1108.62,-21.6426 L 1108.04,-22.239 L 1107.59,-22.9442 L 1107.29,-23.7274
 L 1107.17,-24.7296 L 1107.17,-58 L 1107.25,-58.8316 L 1107.51,-59.627 L 1107.93,-60.3511 L 1108.49,-60.9726
 L 1109.17,-61.4641 L 1109.93,-61.8042 L 1111.17,-62 L 1200.11,-62 L 1200.94,-61.9126 L 1201.73,-61.6542
 L 1202.46,-61.2361 L 1203.08,-60.6765 L 1203.57,-60 L 1203.91,-59.2361 L 1204.08,-58.4181 L 1204.08,-57.5819
 L 1203.91,-56.7639 L 1203.57,-56 L 1203.08,-55.3235 L 1202.46,-54.7639 L 1201.51,-54.2536 L 1112.57,-20.9831
 L 1111.76,-20.7736 L 1110.92,-20.737 z
M 928.321,-20.8749 L 927.543,-21.1812 L 926.845,-21.6426 L 926.259,-22.239 L 925.809,-22.9442 L 925.516,-23.7274
 L 925.389,-24.7296 L 925.389,-58 L 925.476,-58.8316 L 925.735,-59.627 L 926.153,-60.3511 L 926.712,-60.9726
 L 927.389,-61.4641 L 928.153,-61.8042 L 929.389,-62 L 1018.33,-62 L 1019.16,-61.9126 L 1019.95,-61.6542
 L 1020.68,-61.2361 L 1021.3,-60.6765 L 1021.79,-60 L 1022.13,-59.2361 L 1022.31,-58.4181 L 1022.31,-57.5819
 L 1022.13,-56.7639 L 1021.79,-56 L 1021.3,-55.3235 L 1020.68,-54.7639 L 1019.73,-54.2536 L 930.79,-20.9831
 L 929.981,-20.7736 L 929.145,-20.737 z
M 824.908,-47.7772 L 824.098,-47.9867 L 807.346,-54.2536 L 806.396,-54.7639 L 805.775,-55.3235 L 805.283,-56
 L 804.943,-56.7639 L 804.769,-57.5819 L 804.769,-58.4181 L 804.943,-59.2361 L 805.283,-60 L 805.775,-60.6765
 L 806.396,-61.2361 L 807.121,-61.6542 L 807.916,-61.9126 L 808.748,-62 L 842.252,-62 L 843.321,-61.8547
 L 844.099,-61.5484 L 844.796,-61.0869 L 845.382,-60.4906 L 845.832,-59.7854 L 846.125,-59.0022 L 846.249,-58.1752
 L 846.198,-57.3405 L 845.974,-56.5346 L 845.588,-55.7928 L 845.057,-55.1475 L 844.402,-54.6268 L 843.654,-54.2536
 L 826.901,-47.9867 L 825.743,-47.7406 z
M 721.019,-20.7736 L 720.21,-20.9831 L 631.271,-54.2536 L 630.321,-54.7639 L 629.7,-55.3235 L 629.208,-56
 L 628.868,-56.7639 L 628.694,-57.5819 L 628.694,-58.4181 L 628.868,-59.2361 L 629.208,-60 L 629.7,-60.6765
 L 630.321,-61.2361 L 631.046,-61.6542 L 631.841,-61.9126 L 632.673,-62 L 721.611,-62 L 722.847,-61.8042
 L 723.611,-61.4641 L 724.288,-60.9726 L 724.847,-60.3511 L 725.265,-59.627 L 725.524,-58.8316 L 725.611,-58
 L 725.611,-24.7296 L 725.484,-23.7274 L 725.191,-22.9442 L 724.741,-22.239 L 724.155,-21.6426 L 723.457,-21.1812
 L 722.679,-20.8749 L 721.855,-20.737 z
M 539.241,-20.7736 L 538.432,-20.9831 L 449.493,-54.2536 L 448.544,-54.7639 L 447.922,-55.3235 L 447.431,-56
 L 447.091,-56.7639 L 446.917,-57.5819 L 446.917,-58.4181 L 447.091,-59.2361 L 447.431,-60 L 447.922,-60.6765
 L 448.544,-61.2361 L 449.268,-61.6542 L 450.063,-61.9126 L 450.895,-62 L 539.833,-62 L 541.069,-61.8042
 L 541.833,-61.4641 L 542.51,-60.9726 L 543.069,-60.3511 L 543.487,-59.627 L 543.746,-58.8316 L 543.833,-58
 L 543.833,-24.7296 L 543.706,-23.7274 L 543.413,-22.9442 L 542.963,-22.239 L 542.377,-21.6426 L 541.68,-21.1812
 L 540.902,-20.8749 L 540.077,-20.737 z
M 357.464,-20.7736 L 356.654,-20.9831 L 267.715,-54.2536 L 266.766,-54.7639 L 266.144,-55.3235 L 265.653,-56
 L 265.313,-56.7639 L 265.139,-57.5819 L 265.139,-58.4181 L 265.313,-59.2361 L 265.653,-60 L 266.144,-60.6765
 L 266.766,-61.2361 L 267.49,-61.6542 L 268.285,-61.9126 L 269.117,-62 L 358.056,-62 L 359.292,-61.8042
 L 360.056,-61.4641 L 360.732,-60.9726 L 361.292,-60.3511 L 361.71,-59.627 L 361.968,-58.8316 L 362.056,-58
 L 362.056,-24.7296 L 361.928,-23.7274 L 361.635,-22.9442 L 361.186,-22.239 L 360.599,-21.6426 L 359.902,-21.1812
 L 359.124,-20.8749 L 358.299,-20.737 z
M 1473.65,-20.8749 L 1472.88,-21.1812 L 1472.18,-21.6426 L 1471.59,-22.239 L 1471.14,-22.9442 L 1470.85,-23.7274
 L 1470.72,-24.7296 L 1470.72,-58 L 1470.81,-58.8316 L 1471.07,-59.627 L 1471.49,-60.3511 L 1472.05,-60.9726
 L 1472.72,-61.4641 L 1473.49,-61.8042 L 1474.72,-62 L 1563.66,-62 L 1564.49,-61.9126 L 1565.29,-61.6542
 L 1566.01,-61.2361 L 1566.63,-60.6765 L 1567.12,-60 L 1567.47,-59.2361 L 1567.64,-58.4181 L 1567.64,-57.5819
 L 1567.47,-56.7639 L 1567.12,-56 L 1566.63,-55.3235 L 1566.01,-54.7639 L 1565.06,-54.2536 L 1476.12,-20.9831
 L 1475.31,-20.7736 L 1474.48,-20.737 z
M 175.686,-20.7736 L 174.876,-20.9831 L 85.9377,-54.2536 L 84.9881,-54.7639 L 84.3666,-55.3235 L 83.8751,-56
 L 83.535,-56.7639 L 83.3611,-57.5819 L 83.3611,-58.4181 L 83.535,-59.2361 L 83.8751,-60 L 84.3666,-60.6765
 L 84.9881,-61.2361 L 85.7122,-61.6542 L 86.5076,-61.9126 L 87.3392,-62 L 176.278,-62 L 177.514,-61.8042
 L 178.278,-61.4641 L 178.954,-60.9726 L 179.514,-60.3511 L 179.932,-59.627 L 180.19,-58.8316 L 180.278,-58
 L 180.278,-24.7296 L 180.15,-23.7274 L 179.857,-22.9442 L 179.408,-22.239 L 178.822,-21.6426 L 178.124,-21.1812
 L 177.346,-20.8749 L 176.521,-20.737 z
M 1291.88,-20.8749 L 1291.1,-21.1812 L 1290.4,-21.6426 L 1289.81,-22.239 L 1289.37,-22.9442 L 1289.07,-23.7274
 L 1288.94,-24.7296 L 1288.94,-58 L 1289.03,-58.8316 L 1289.29,-59.627 L 1289.71,-60.3511 L 1290.27,-60.9726
 L 1290.94,-61.4641 L 1291.71,-61.8042 L 1292.94,-62 L 1381.88,-62 L 1382.71,-61.9126 L 1383.51,-61.6542
 L 1384.23,-61.2361 L 1384.86,-60.6765 L 1385.35,-60 L 1385.69,-59.2361 L 1385.86,-58.4181 L 1385.86,-57.5819
 L 1385.69,-56.7639 L 1385.35,-56 L 1384.86,-55.3235 L 1384.23,-54.7639 L 1383.28,-54.2536 L 1294.35,-20.9831
 L 1293.54,-20.7736 L 1292.7,-20.737 z
M 747.193,-18.6182 L 746.375,-18.7921 L 745.611,-19.1322 L 744.935,-19.6237 L 744.375,-20.2451 L 743.957,-20.9693
 L 743.699,-21.7646 L 743.611,-22.5963 L 743.611,-57.4037 L 743.739,-58.4059 L 744.032,-59.1891 L 744.481,-59.8943
 L 745.067,-60.4907 L 745.765,-60.9521 L 746.543,-61.2584 L 747.368,-61.3963 L 748.203,-61.3597 L 749.013,-61.1502
 L 795.536,-43.7464 L 795.981,-43.5484 L 796.679,-43.0869 L 797.265,-42.4906 L 797.714,-41.7854 L 798.007,-41.0022
 L 798.131,-40.1752 L 798.08,-39.3405 L 797.857,-38.5346 L 797.471,-37.7928 L 796.939,-37.1475 L 796.285,-36.6268
 L 795.536,-36.2536 L 749.013,-18.8498 L 748.029,-18.6182 z
M 902.797,-18.6403 L 901.987,-18.8498 L 855.464,-36.2536 L 855.019,-36.4516 L 854.321,-36.9131 L 853.735,-37.5094
 L 853.286,-38.2146 L 852.993,-38.9978 L 852.869,-39.8248 L 852.92,-40.6595 L 853.143,-41.4654 L 853.529,-42.2072
 L 854.061,-42.8525 L 854.715,-43.3732 L 855.464,-43.7464 L 901.987,-61.1502 L 902.971,-61.3818 L 903.807,-61.3818
 L 904.625,-61.208 L 905.389,-60.8678 L 906.065,-60.3763 L 906.625,-59.7549 L 907.043,-59.0307 L 907.301,-58.2354
 L 907.389,-57.4037 L 907.389,-22.5963 L 907.261,-21.5941 L 906.968,-20.8109 L 906.519,-20.1057 L 905.933,-19.5093
 L 905.235,-19.0479 L 904.457,-18.7416 L 903.632,-18.6037 z
M 202.278,-18 L 201.042,-18.1958 L 200.278,-18.5359 L 199.601,-19.0274 L 199.042,-19.6489 L 198.624,-20.373
 L 198.365,-21.1684 L 198.278,-22 L 198.278,-55.2704 L 198.405,-56.2726 L 198.698,-57.0558 L 199.148,-57.761
 L 199.734,-58.3574 L 200.431,-58.8188 L 201.209,-59.1251 L 202.034,-59.263 L 202.87,-59.2264 L 203.679,-59.0169
 L 292.618,-25.7464 L 293.567,-25.2361 L 294.189,-24.6765 L 294.68,-24 L 295.021,-23.2361 L 295.194,-22.4181
 L 295.194,-21.5819 L 295.021,-20.7639 L 294.68,-20 L 294.189,-19.3235 L 293.567,-18.7639 L 292.843,-18.3458
 L 292.048,-18.0874 L 291.216,-18 z
M 384.056,-18 L 382.819,-18.1958 L 382.056,-18.5359 L 381.379,-19.0274 L 380.819,-19.6489 L 380.401,-20.373
 L 380.143,-21.1684 L 380.056,-22 L 380.056,-55.2704 L 380.183,-56.2726 L 380.476,-57.0558 L 380.926,-57.761
 L 381.512,-58.3574 L 382.209,-58.8188 L 382.987,-59.1251 L 383.812,-59.263 L 384.647,-59.2264 L 385.457,-59.0169
 L 474.396,-25.7464 L 475.345,-25.2361 L 475.967,-24.6765 L 476.458,-24 L 476.798,-23.2361 L 476.972,-22.4181
 L 476.972,-21.5819 L 476.798,-20.7639 L 476.458,-20 L 475.967,-19.3235 L 475.345,-18.7639 L 474.621,-18.3458
 L 473.826,-18.0874 L 472.994,-18 z
M 565.833,-18 L 564.597,-18.1958 L 563.833,-18.5359 L 563.157,-19.0274 L 562.597,-19.6489 L 562.179,-20.373
 L 561.921,-21.1684 L 561.833,-22 L 561.833,-55.2704 L 561.961,-56.2726 L 562.254,-57.0558 L 562.703,-57.761
 L 563.29,-58.3574 L 563.987,-58.8188 L 564.765,-59.1251 L 565.59,-59.263 L 566.425,-59.2264 L 567.235,-59.0169
 L 656.173,-25.7464 L 657.123,-25.2361 L 657.744,-24.6765 L 658.236,-24 L 658.576,-23.2361 L 658.75,-22.4181
 L 658.75,-21.5819 L 658.576,-20.7639 L 658.236,-20 L 657.744,-19.3235 L 657.123,-18.7639 L 656.399,-18.3458
 L 655.604,-18.0874 L 654.772,-18 z
M 996.228,-18 L 995.396,-18.0874 L 994.601,-18.3458 L 993.877,-18.7639 L 993.256,-19.3235 L 992.764,-20
 L 992.424,-20.7639 L 992.25,-21.5819 L 992.25,-22.4181 L 992.424,-23.2361 L 992.764,-24 L 993.256,-24.6765
 L 993.877,-25.2361 L 994.827,-25.7464 L 1083.77,-59.0169 L 1084.57,-59.2264 L 1085.41,-59.263 L 1086.23,-59.1251
 L 1087.01,-58.8188 L 1087.71,-58.3574 L 1088.3,-57.761 L 1088.75,-57.0558 L 1089.04,-56.2726 L 1089.17,-55.2704
 L 1089.17,-22 L 1089.08,-21.1684 L 1088.82,-20.373 L 1088.4,-19.6489 L 1087.84,-19.0274 L 1087.17,-18.5359
 L 1086.4,-18.1958 L 1085.17,-18 z
M 1178.01,-18 L 1177.17,-18.0874 L 1176.38,-18.3458 L 1175.65,-18.7639 L 1175.03,-19.3235 L 1174.54,-20
 L 1174.2,-20.7639 L 1174.03,-21.5819 L 1174.03,-22.4181 L 1174.2,-23.2361 L 1174.54,-24 L 1175.03,-24.6765
 L 1175.65,-25.2361 L 1176.6,-25.7464 L 1265.54,-59.0169 L 1266.35,-59.2264 L 1267.19,-59.263 L 1268.01,-59.1251
 L 1268.79,-58.8188 L 1269.49,-58.3574 L 1270.07,-57.761 L 1270.52,-57.0558 L 1270.82,-56.2726 L 1270.94,-55.2704
 L 1270.94,-22 L 1270.86,-21.1684 L 1270.6,-20.373 L 1270.18,-19.6489 L 1269.62,-19.0274 L 1268.94,-18.5359
 L 1268.18,-18.1958 L 1266.94,-18 z
M 1359.78,-18 L 1358.95,-18.0874 L 1358.16,-18.3458 L 1357.43,-18.7639 L 1356.81,-19.3235 L 1356.32,-20
 L 1355.98,-20.7639 L 1355.81,-21.5819 L 1355.81,-22.4181 L 1355.98,-23.2361 L 1356.32,-24 L 1356.81,-24.6765
 L 1357.43,-25.2361 L 1358.38,-25.7464 L 1447.32,-59.0169 L 1448.13,-59.2264 L 1448.97,-59.263 L 1449.79,-59.1251
 L 1450.57,-58.8188 L 1451.27,-58.3574 L 1451.85,-57.761 L 1452.3,-57.0558 L 1452.59,-56.2726 L 1452.72,-55.2704
 L 1452.72,-22 L 1452.63,-21.1684 L 1452.38,-20.373 L 1451.96,-19.6489 L 1451.4,-19.0274 L 1450.72,-18.5359
 L 1449.96,-18.1958 L 1448.72,-18 z
M 22,-18 L 20.7639,-18.1958 L 20,-18.5359 L 19.3235,-19.0274 L 18.7639,-19.6489 L 18.3458,-20.373
 L 18.0874,-21.1684 L 18,-22 L 18,-54.7093 L 18.1276,-55.7115 L 18.4206,-56.4947 L 18.87,-57.1999
 L 19.4562,-57.7962 L 20.1536,-58.2577 L 20.9317,-58.564 L 21.7565,-58.7019 L 22.5919,-58.6653 L 23.4015,-58.4557
 L 110.84,-25.7464 L 111.79,-25.2361 L 112.411,-24.6765 L 112.903,-24 L 113.243,-23.2361 L 113.417,-22.4181
 L 113.417,-21.5819 L 113.243,-20.7639 L 112.903,-20 L 112.411,-19.3235 L 111.79,-18.7639 L 111.066,-18.3458
 L 110.27,-18.0874 L 109.439,-18 z
M 1541.56,-18 L 1540.73,-18.0874 L 1539.93,-18.3458 L 1539.21,-18.7639 L 1538.59,-19.3235 L 1538.1,-20
 L 1537.76,-20.7639 L 1537.58,-21.5819 L 1537.58,-22.4181 L 1537.76,-23.2361 L 1538.1,-24 L 1538.59,-24.6765
 L 1539.21,-25.2361 L 1540.16,-25.7464 L 1627.6,-58.4557 L 1628.41,-58.6653 L 1629.24,-58.7019 L 1630.07,-58.564
 L 1630.85,-58.2577 L 1631.54,-57.7962 L 1632.13,-57.1999 L 1632.58,-56.4947 L 1632.87,-55.7115 L 1633,-54.7093
 L 1633,-22 L 1632.91,-21.1684 L 1632.65,-20.373 L 1632.24,-19.6489 L 1631.68,-19.0274 L 1631,-18.5359
 L 1630.24,-18.1958 L 1629,-18 z
M 808.748,-18 L 807.679,-18.1453 L 806.901,-18.4516 L 806.204,-18.9131 L 805.618,-19.5094 L 805.168,-20.2146
 L 804.875,-20.9978 L 804.751,-21.8248 L 804.802,-22.6595 L 805.026,-23.4654 L 805.412,-24.2072 L 805.943,-24.8525
 L 806.598,-25.3732 L 807.346,-25.7464 L 824.098,-32.0133 L 825.256,-32.2594 L 826.092,-32.2228 L 826.901,-32.0133
 L 843.654,-25.7464 L 844.604,-25.2361 L 845.225,-24.6765 L 845.717,-24 L 846.057,-23.2361 L 846.231,-22.4181
 L 846.231,-21.5819 L 846.057,-20.7639 L 845.717,-20 L 845.225,-19.3235 L 844.604,-18.7639 L 843.879,-18.3458
 L 843.084,-18.0874 L 842.252,-18 z
" stroke="black" fill="lightgray" stroke-width="0.5"/>
</svg>
