<?xml version="1.0" standalone="no"?>
<!DOCTYPE svg PUBLIC "-//W3C//DTD SVG 1.1//EN" "http://www.w3.org/Graphics/SVG/1.1/DTD/svg11.dtd">
<svg width="1190mm" height="80mm" viewBox="0 -80 1190 80" xmlns="http://www.w3.org/2000/svg" version="1.1">
<title>OpenSCAD Model</title>
<path d="
M 1190,-80 L 0,-80 L 0,-0 L 4.95,-0 L 4.95,-6 L 5.00572,-6.53017
 L 5.17046,-7.03717 L 5.437,-7.49884 L 5.79372,-7.895 L 6.22499,-8.20836 L 6.71201,-8.42519 L 7.23344,-8.53603
 L 7.76654,-8.53603 L 8.28798,-8.42519 L 8.77499,-8.20836 L 9.20627,-7.895 L 9.56299,-7.49884 L 9.82953,-7.03717
 L 9.99426,-6.53017 L 10.05,-6 L 10.05,-0 L 200.783,-0 L 200.783,-6 L 200.839,-6.53017
 L 201.004,-7.03717 L 201.27,-7.49884 L 201.627,-7.895 L 202.058,-8.20836 L 202.545,-8.42519 L 203.067,-8.53603
 L 203.6,-8.53603 L 204.121,-8.42519 L 204.608,-8.20836 L 205.04,-7.895 L 205.396,-7.49884 L 205.663,-7.03717
 L 205.828,-6.53017 L 205.883,-6 L 205.883,-0 L 396.617,-0 L 396.617,-6 L 396.672,-6.53017
 L 396.837,-7.03717 L 397.104,-7.49884 L 397.46,-7.895 L 397.892,-8.20836 L 398.379,-8.42519 L 398.9,-8.53603
 L 399.433,-8.53603 L 399.955,-8.42519 L 400.442,-8.20836 L 400.873,-7.895 L 401.23,-7.49884 L 401.496,-7.03717
 L 401.661,-6.53017 L 401.717,-6 L 401.717,-0 L 592.45,-0 L 592.45,-6 L 592.506,-6.53017
 L 592.67,-7.03717 L 592.937,-7.49884 L 593.294,-7.895 L 593.725,-8.20836 L 594.212,-8.42519 L 594.733,-8.53603
 L 595.267,-8.53603 L 595.788,-8.42519 L 596.275,-8.20836 L 596.706,-7.895 L 597.063,-7.49884 L 597.33,-7.03717
 L 597.494,-6.53017 L 597.55,-6 L 597.55,-0 L 788.283,-0 L 788.283,-6 L 788.339,-6.53017
 L 788.504,-7.03717 L 788.77,-7.49884 L 789.127,-7.895 L 789.558,-8.20836 L 790.045,-8.42519 L 790.567,-8.53603
 L 791.1,-8.53603 L 791.621,-8.42519 L 792.108,-8.20836 L 792.54,-7.895 L 792.896,-7.49884 L 793.163,-7.03717
 L 793.328,-6.53017 L 793.383,-6 L 793.383,-0 L 984.117,-0 L 984.117,-6 L 984.172,-6.53017
 L 984.337,-7.03717 L 984.604,-7.49884 L 984.96,-7.895 L 985.392,-8.20836 L 985.879,-8.42519 L 986.4,-8.53603
 L 986.933,-8.53603 L 987.455,-8.42519 L 987.942,-8.20836 L 988.373,-7.895 L 988.73,-7.49884 L 988.996,-7.03717
 L 989.161,-6.53017 L 989.217,-6 L 989.217,-0 L 1179.95,-0 L 1179.95,-6 L 1180.01,-6.53017
 L 1180.17,-7.03717 L 1180.44,-7.49884 L 1180.79,-7.895 L 1181.22,-8.20836 L 1181.71,-8.42519 L 1182.23,-8.53603
 L 1182.77,-8.53603 L 1183.29,-8.42519 L 1183.77,-8.20836 L 1184.21,-7.895 L 1184.56,-7.49884 L 1184.83,-7.03717
 L 1184.99,-6.53017 L 1185.05,-6 L 1185.05,-0 L 1190,-0 z
M 6.98573,-55.607 L 6.47708,-55.6875 L 5.97964,-55.8208 L 5.49887,-56.0054 L 5.04001,-56.2392 L 4.60811,-56.5196
 L 4.20789,-56.8437 L 3.84373,-57.2079 L 3.51964,-57.6081 L 3.23917,-58.04 L 3.00537,-58.4989 L 2.82082,-58.9796
 L 2.68752,-59.4771 L 2.60696,-59.9857 L 2.58,-60.5 L 2.60696,-61.0143 L 2.68752,-61.5229 L 2.82082,-62.0204
 L 3.00537,-62.5011 L 3.23917,-62.96 L 3.51964,-63.3919 L 3.84373,-63.7921 L 4.20789,-64.1563 L 4.60811,-64.4804
 L 4.95001,-64.7024 L 4.95001,-74 L 5.00574,-74.5302 L 5.17047,-75.0372 L 5.43701,-75.4988 L 5.79373,-75.895
 L 6.22501,-76.2084 L 6.71202,-76.4252 L 7.23346,-76.536 L 7.76654,-76.536 L 8.28798,-76.4252 L 8.77499,-76.2084
 L 9.20627,-75.895 L 9.56299,-75.4988 L 9.82953,-75.0372 L 9.99426,-74.5302 L 10.05,-74 L 10.05,-64.7024
 L 10.3919,-64.4804 L 10.7921,-64.1563 L 11.1563,-63.7921 L 11.4804,-63.3919 L 11.7608,-62.96 L 11.9946,-62.5011
 L 12.1792,-62.0204 L 12.3125,-61.5229 L 12.393,-61.0143 L 12.42,-60.5 L 12.393,-59.9857 L 12.3125,-59.4771
 L 12.1792,-58.9796 L 11.9946,-58.4989 L 11.7608,-58.04 L 11.4804,-57.6081 L 11.1563,-57.2079 L 10.7921,-56.8437
 L 10.3919,-56.5196 L 9.95999,-56.2392 L 9.50113,-56.0054 L 9.02036,-55.8208 L 8.52292,-55.6875 L 8.01427,-55.607
 L 7.5,-55.58 z
M 202.819,-55.607 L 202.31,-55.6875 L 201.813,-55.8208 L 201.332,-56.0054 L 200.873,-56.2392 L 200.441,-56.5196
 L 200.041,-56.8437 L 199.677,-57.2079 L 199.353,-57.6081 L 199.072,-58.04 L 198.839,-58.4989 L 198.654,-58.9796
 L 198.521,-59.4771 L 198.44,-59.9857 L 198.413,-60.5 L 198.44,-61.0143 L 198.521,-61.5229 L 198.654,-62.0204
 L 198.839,-62.5011 L 199.072,-62.96 L 199.353,-63.3919 L 199.677,-63.7921 L 200.041,-64.1563 L 200.441,-64.4804
 L 200.783,-64.7024 L 200.783,-74 L 200.839,-74.5302 L 201.004,-75.0372 L 201.27,-75.4988 L 201.627,-75.895
 L 202.058,-76.2084 L 202.545,-76.4252 L 203.067,-76.536 L 203.6,-76.536 L 204.121,-76.4252 L 204.608,-76.2084
 L 205.04,-75.895 L 205.396,-75.4988 L 205.663,-75.0372 L 205.828,-74.5302 L 205.883,-74 L 205.883,-64.7024
 L 206.225,-64.4804 L 206.625,-64.1563 L 206.99,-63.7921 L 207.314,-63.3919 L 207.594,-62.96 L 207.828,-62.5011
 L 208.013,-62.0204 L 208.146,-61.5229 L 208.226,-61.0143 L 208.253,-60.5 L 208.226,-59.9857 L 208.146,-59.4771
 L 208.013,-58.9796 L 207.828,-58.4989 L 207.594,-58.04 L 207.314,-57.6081 L 206.99,-57.2079 L 206.625,-56.8437
 L 206.225,-56.5196 L 205.793,-56.2392 L 205.334,-56.0054 L 204.854,-55.8208 L 204.356,-55.6875 L 203.848,-55.607
 L 203.333,-55.58 z
M 398.652,-55.607 L 398.144,-55.6875 L 397.646,-55.8208 L 397.166,-56.0054 L 396.707,-56.2392 L 396.275,-56.5196
 L 395.875,-56.8437 L 395.51,-57.2079 L 395.186,-57.6081 L 394.906,-58.04 L 394.672,-58.4989 L 394.487,-58.9796
 L 394.354,-59.4771 L 394.274,-59.9857 L 394.247,-60.5 L 394.274,-61.0143 L 394.354,-61.5229 L 394.487,-62.0204
 L 394.672,-62.5011 L 394.906,-62.96 L 395.186,-63.3919 L 395.51,-63.7921 L 395.875,-64.1563 L 396.275,-64.4804
 L 396.617,-64.7024 L 396.617,-74 L 396.672,-74.5302 L 396.837,-75.0372 L 397.104,-75.4988 L 397.46,-75.895
 L 397.892,-76.2084 L 398.379,-76.4252 L 398.9,-76.536 L 399.433,-76.536 L 399.955,-76.4252 L 400.442,-76.2084
 L 400.873,-75.895 L 401.23,-75.4988 L 401.496,-75.0372 L 401.661,-74.5302 L 401.717,-74 L 401.717,-64.7024
 L 402.059,-64.4804 L 402.459,-64.1563 L 402.823,-63.7921 L 403.147,-63.3919 L 403.427,-62.96 L 403.661,-62.5011
 L 403.846,-62.0204 L 403.979,-61.5229 L 404.06,-61.0143 L 404.087,-60.5 L 404.06,-59.9857 L 403.979,-59.4771
 L 403.846,-58.9796 L 403.661,-58.4989 L 403.427,-58.04 L 403.147,-57.6081 L 402.823,-57.2079 L 402.459,-56.8437
 L 402.059,-56.5196 L 401.627,-56.2392 L 401.168,-56.0054 L 400.687,-55.8208 L 400.19,-55.6875 L 399.681,-55.607
 L 399.167,-55.58 z
M 594.486,-55.607 L 593.977,-55.6875 L 593.48,-55.8208 L 592.999,-56.0054 L 592.54,-56.2392 L 592.108,-56.5196
 L 591.708,-56.8437 L 591.344,-57.2079 L 591.02,-57.6081 L 590.739,-58.04 L 590.505,-58.4989 L 590.321,-58.9796
 L 590.188,-59.4771 L 590.107,-59.9857 L 590.08,-60.5 L 590.107,-61.0143 L 590.188,-61.5229 L 590.321,-62.0204
 L 590.505,-62.5011 L 590.739,-62.96 L 591.02,-63.3919 L 591.344,-63.7921 L 591.708,-64.1563 L 592.108,-64.4804
 L 592.45,-64.7024 L 592.45,-74 L 592.506,-74.5302 L 592.67,-75.0372 L 592.937,-75.4988 L 593.294,-75.895
 L 593.725,-76.2084 L 594.212,-76.4252 L 594.733,-76.536 L 595.267,-76.536 L 595.788,-76.4252 L 596.275,-76.2084
 L 596.706,-75.895 L 597.063,-75.4988 L 597.33,-75.0372 L 597.494,-74.5302 L 597.55,-74 L 597.55,-64.7024
 L 597.892,-64.4804 L 598.292,-64.1563 L 598.656,-63.7921 L 598.98,-63.3919 L 599.261,-62.96 L 599.495,-62.5011
 L 599.679,-62.0204 L 599.812,-61.5229 L 599.893,-61.0143 L 599.92,-60.5 L 599.893,-59.9857 L 599.812,-59.4771
 L 599.679,-58.9796 L 599.495,-58.4989 L 599.261,-58.04 L 598.98,-57.6081 L 598.656,-57.2079 L 598.292,-56.8437
 L 597.892,-56.5196 L 597.46,-56.2392 L 597.001,-56.0054 L 596.52,-55.8208 L 596.023,-55.6875 L 595.514,-55.607
 L 595,-55.58 z
M 790.319,-55.607 L 789.81,-55.6875 L 789.313,-55.8208 L 788.832,-56.0054 L 788.373,-56.2392 L 787.941,-56.5196
 L 787.541,-56.8437 L 787.177,-57.2079 L 786.853,-57.6081 L 786.572,-58.04 L 786.339,-58.4989 L 786.154,-58.9796
 L 786.021,-59.4771 L 785.94,-59.9857 L 785.913,-60.5 L 785.94,-61.0143 L 786.021,-61.5229 L 786.154,-62.0204
 L 786.339,-62.5011 L 786.572,-62.96 L 786.853,-63.3919 L 787.177,-63.7921 L 787.541,-64.1563 L 787.941,-64.4804
 L 788.283,-64.7024 L 788.283,-74 L 788.339,-74.5302 L 788.504,-75.0372 L 788.77,-75.4988 L 789.127,-75.895
 L 789.558,-76.2084 L 790.045,-76.4252 L 790.567,-76.536 L 791.1,-76.536 L 791.621,-76.4252 L 792.108,-76.2084
 L 792.54,-75.895 L 792.896,-75.4988 L 793.163,-75.0372 L 793.328,-74.5302 L 793.383,-74 L 793.383,-64.7024
 L 793.725,-64.4804 L 794.125,-64.1563 L 794.49,-63.7921 L 794.814,-63.3919 L 795.094,-62.96 L 795.328,-62.5011
 L 795.513,-62.0204 L 795.646,-61.5229 L 795.726,-61.0143 L 795.753,-60.5 L 795.726,-59.9857 L 795.646,-59.4771
 L 795.513,-58.9796 L 795.328,-58.4989 L 795.094,-58.04 L 794.814,-57.6081 L 794.49,-57.2079 L 794.125,-56.8437
 L 793.725,-56.5196 L 793.293,-56.2392 L 792.834,-56.0054 L 792.354,-55.8208 L 791.856,-55.6875 L 791.348,-55.607
 L 790.833,-55.58 z
M 986.152,-55.607 L 985.644,-55.6875 L 985.146,-55.8208 L 984.666,-56.0054 L 984.207,-56.2392 L 983.775,-56.5196
 L 983.375,-56.8437 L 983.01,-57.2079 L 982.686,-57.6081 L 982.406,-58.04 L 982.172,-58.4989 L 981.987,-58.9796
 L 981.854,-59.4771 L 981.774,-59.9857 L 981.747,-60.5 L 981.774,-61.0143 L 981.854,-61.5229 L 981.987,-62.0204
 L 982.172,-62.5011 L 982.406,-62.96 L 982.686,-63.3919 L 983.01,-63.7921 L 983.375,-64.1563 L 983.775,-64.4804
 L 984.117,-64.7024 L 984.117,-74 L 984.172,-74.5302 L 984.337,-75.0372 L 984.604,-75.4988 L 984.96,-75.895
 L 985.392,-76.2084 L 985.879,-76.4252 L 986.4,-76.536 L 986.933,-76.536 L 987.455,-76.4252 L 987.942,-76.2084
 L 988.373,-75.895 L 988.73,-75.4988 L 988.996,-75.0372 L 989.161,-74.5302 L 989.217,-74 L 989.217,-64.7024
 L 989.559,-64.4804 L 989.959,-64.1563 L 990.323,-63.7921 L 990.647,-63.3919 L 990.927,-62.96 L 991.161,-62.5011
 L 991.346,-62.0204 L 991.479,-61.5229 L 991.56,-61.0143 L 991.587,-60.5 L 991.56,-59.9857 L 991.479,-59.4771
 L 991.346,-58.9796 L 991.161,-58.4989 L 990.927,-58.04 L 990.647,-57.6081 L 990.323,-57.2079 L 989.959,-56.8437
 L 989.559,-56.5196 L 989.127,-56.2392 L 988.668,-56.0054 L 988.187,-55.8208 L 987.69,-55.6875 L 987.181,-55.607
 L 986.667,-55.58 z
M 1181.99,-55.607 L 1181.48,-55.6875 L 1180.98,-55.8208 L 1180.5,-56.0054 L 1180.04,-56.2392 L 1179.61,-56.5196
 L 1179.21,-56.8437 L 1178.84,-57.2079 L 1178.52,-57.6081 L 1178.24,-58.04 L 1178.01,-58.4989 L 1177.82,-58.9796
 L 1177.69,-59.4771 L 1177.61,-59.9857 L 1177.58,-60.5 L 1177.61,-61.0143 L 1177.69,-61.5229 L 1177.82,-62.0204
 L 1178.01,-62.5011 L 1178.24,-62.96 L 1178.52,-63.3919 L 1178.84,-63.7921 L 1179.21,-64.1563 L 1179.61,-64.4804
 L 1179.95,-64.7024 L 1179.95,-74 L 1180.01,-74.5302 L 1180.17,-75.0372 L 1180.44,-75.4988 L 1180.79,-75.895
 L 1181.23,-76.2084 L 1181.71,-76.4252 L 1182.23,-76.536 L 1182.77,-76.536 L 1183.29,-76.4252 L 1183.77,-76.2084
 L 1184.21,-75.895 L 1184.56,-75.4988 L 1184.83,-75.0372 L 1184.99,-74.5302 L 1185.05,-74 L 1185.05,-64.7024
 L 1185.39,-64.4804 L 1185.79,-64.1563 L 1186.16,-63.7921 L 1186.48,-63.3919 L 1186.76,-62.96 L 1186.99,-62.5011
 L 1187.18,-62.0204 L 1187.31,-61.5229 L 1187.39,-61.0143 L 1187.42,-60.5 L 1187.39,-59.9857 L 1187.31,-59.4771
 L 1187.18,-58.9796 L 1186.99,-58.4989 L 1186.76,-58.04 L 1186.48,-57.6081 L 1186.16,-57.2079 L 1185.79,-56.8437
 L 1185.39,-56.5196 L 1184.96,-56.2392 L 1184.5,-56.0054 L 1184.02,-55.8208 L 1183.52,-55.6875 L 1183.01,-55.607
 L 1182.5,-55.58 z
M 998.507,-20.4444 L 997.737,-20.7692 L 997.05,-21.247 L 996.478,-21.8571 L 996.046,-22.5728 L 995.772,-23.3628
 L 995.667,-24.2727 L 995.667,-58 L 995.754,-58.8316 L 996.012,-59.627 L 996.431,-60.3511 L 996.99,-60.9726
 L 997.667,-61.4641 L 998.431,-61.8042 L 999.667,-62 L 1096.8,-62 L 1097.63,-61.9126 L 1098.43,-61.6542
 L 1099.15,-61.2361 L 1099.77,-60.6765 L 1100.26,-60 L 1100.6,-59.2361 L 1100.78,-58.4181 L 1100.78,-57.5819
 L 1100.6,-56.7639 L 1100.26,-56 L 1099.77,-55.3235 L 1099.15,-54.7639 L 1098.11,-54.2213 L 1000.98,-20.494
 L 1000.16,-20.3038 L 999.328,-20.287 z
M 385.669,-20.3038 L 384.855,-20.494 L 287.723,-54.2213 L 286.684,-54.7639 L 286.063,-55.3235 L 285.571,-56
 L 285.231,-56.7639 L 285.057,-57.5819 L 285.057,-58.4181 L 285.231,-59.2361 L 285.571,-60 L 286.063,-60.6765
 L 286.684,-61.2361 L 287.408,-61.6542 L 288.204,-61.9126 L 289.035,-62 L 386.167,-62 L 387.403,-61.8042
 L 388.167,-61.4641 L 388.843,-60.9726 L 389.403,-60.3511 L 389.821,-59.627 L 390.079,-58.8316 L 390.167,-58
 L 390.167,-24.2727 L 390.062,-23.3628 L 389.787,-22.5728 L 389.355,-21.8571 L 388.783,-21.247 L 388.097,-20.7692
 L 387.326,-20.4444 L 386.505,-20.287 z
M 189.836,-20.3038 L 189.021,-20.494 L 91.8899,-54.2213 L 90.8508,-54.7639 L 90.2294,-55.3235 L 89.7379,-56
 L 89.3977,-56.7639 L 89.2239,-57.5819 L 89.2239,-58.4181 L 89.3977,-59.2361 L 89.7379,-60 L 90.2294,-60.6765
 L 90.8508,-61.2361 L 91.575,-61.6542 L 92.3703,-61.9126 L 93.202,-62 L 190.333,-62 L 191.569,-61.8042
 L 192.333,-61.4641 L 193.01,-60.9726 L 193.569,-60.3511 L 193.988,-59.627 L 194.246,-58.8316 L 194.333,-58
 L 194.333,-24.2727 L 194.228,-23.3628 L 193.954,-22.5728 L 193.522,-21.8571 L 192.95,-21.247 L 192.263,-20.7692
 L 191.493,-20.4444 L 190.672,-20.287 z
M 581.502,-20.3038 L 580.688,-20.494 L 483.557,-54.2213 L 482.517,-54.7639 L 481.896,-55.3235 L 481.405,-56
 L 481.064,-56.7639 L 480.891,-57.5819 L 480.891,-58.4181 L 481.064,-59.2361 L 481.405,-60 L 481.896,-60.6765
 L 482.517,-61.2361 L 483.242,-61.6542 L 484.037,-61.9126 L 484.869,-62 L 582,-62 L 583.236,-61.8042
 L 584,-61.4641 L 584.677,-60.9726 L 585.236,-60.3511 L 585.654,-59.627 L 585.913,-58.8316 L 586,-58
 L 586,-24.2727 L 585.895,-23.3628 L 585.621,-22.5728 L 585.188,-21.8571 L 584.616,-21.247 L 583.93,-20.7692
 L 583.16,-20.4444 L 582.338,-20.287 z
M 606.84,-20.4444 L 606.07,-20.7692 L 605.384,-21.247 L 604.812,-21.8571 L 604.379,-22.5728 L 604.105,-23.3628
 L 604,-24.2727 L 604,-58 L 604.087,-58.8316 L 604.346,-59.627 L 604.764,-60.3511 L 605.323,-60.9726
 L 606,-61.4641 L 606.764,-61.8042 L 608,-62 L 705.131,-62 L 705.963,-61.9126 L 706.758,-61.6542
 L 707.483,-61.2361 L 708.104,-60.6765 L 708.595,-60 L 708.936,-59.2361 L 709.109,-58.4181 L 709.109,-57.5819
 L 708.936,-56.7639 L 708.595,-56 L 708.104,-55.3235 L 707.483,-54.7639 L 706.443,-54.2213 L 609.312,-20.494
 L 608.498,-20.3038 L 607.662,-20.287 z
M 802.674,-20.4444 L 801.903,-20.7692 L 801.217,-21.247 L 800.645,-21.8571 L 800.212,-22.5728 L 799.938,-23.3628
 L 799.833,-24.2727 L 799.833,-58 L 799.921,-58.8316 L 800.179,-59.627 L 800.597,-60.3511 L 801.157,-60.9726
 L 801.833,-61.4641 L 802.597,-61.8042 L 803.833,-62 L 900.965,-62 L 901.796,-61.9126 L 902.592,-61.6542
 L 903.316,-61.2361 L 903.937,-60.6765 L 904.429,-60 L 904.769,-59.2361 L 904.943,-58.4181 L 904.943,-57.5819
 L 904.769,-56.7639 L 904.429,-56 L 903.937,-55.3235 L 903.316,-54.7639 L 902.277,-54.2213 L 805.145,-20.494
 L 804.331,-20.3038 L 803.495,-20.287 z
M 216.333,-18 L 215.097,-18.1958 L 214.333,-18.5359 L 213.657,-19.0274 L 213.097,-19.6489 L 212.679,-20.373
 L 212.421,-21.1684 L 212.333,-22 L 212.333,-55.7273 L 212.438,-56.6372 L 212.712,-57.4272 L 213.145,-58.1429
 L 213.717,-58.7529 L 214.403,-59.2308 L 215.174,-59.5556 L 215.995,-59.713 L 216.831,-59.6962 L 217.645,-59.506
 L 314.777,-25.7787 L 315.816,-25.2361 L 316.437,-24.6765 L 316.929,-24 L 317.269,-23.2361 L 317.443,-22.4181
 L 317.443,-21.5819 L 317.269,-20.7639 L 316.929,-20 L 316.437,-19.3235 L 315.816,-18.7639 L 315.092,-18.3458
 L 314.296,-18.0874 L 313.465,-18 z
M 412.167,-18 L 410.931,-18.1958 L 410.167,-18.5359 L 409.49,-19.0274 L 408.931,-19.6489 L 408.512,-20.373
 L 408.254,-21.1684 L 408.167,-22 L 408.167,-55.7273 L 408.272,-56.6372 L 408.546,-57.4272 L 408.978,-58.1429
 L 409.55,-58.7529 L 410.237,-59.2308 L 411.007,-59.5556 L 411.828,-59.713 L 412.664,-59.6962 L 413.479,-59.506
 L 510.61,-25.7787 L 511.649,-25.2361 L 512.271,-24.6765 L 512.762,-24 L 513.102,-23.2361 L 513.276,-22.4181
 L 513.276,-21.5819 L 513.102,-20.7639 L 512.762,-20 L 512.271,-19.3235 L 511.649,-18.7639 L 510.925,-18.3458
 L 510.13,-18.0874 L 509.298,-18 z
M 680.702,-18 L 679.87,-18.0874 L 679.075,-18.3458 L 678.351,-18.7639 L 677.729,-19.3235 L 677.238,-20
 L 676.898,-20.7639 L 676.724,-21.5819 L 676.724,-22.4181 L 676.898,-23.2361 L 677.238,-24 L 677.729,-24.6765
 L 678.351,-25.2361 L 679.39,-25.7787 L 776.521,-59.506 L 777.336,-59.6962 L 778.172,-59.713 L 778.993,-59.5556
 L 779.763,-59.2308 L 780.45,-58.7529 L 781.022,-58.1429 L 781.454,-57.4272 L 781.728,-56.6372 L 781.833,-55.7273
 L 781.833,-22 L 781.746,-21.1684 L 781.488,-20.373 L 781.069,-19.6489 L 780.51,-19.0274 L 779.833,-18.5359
 L 779.069,-18.1958 L 777.833,-18 z
M 876.535,-18 L 875.704,-18.0874 L 874.908,-18.3458 L 874.184,-18.7639 L 873.563,-19.3235 L 873.071,-20
 L 872.731,-20.7639 L 872.557,-21.5819 L 872.557,-22.4181 L 872.731,-23.2361 L 873.071,-24 L 873.563,-24.6765
 L 874.184,-25.2361 L 875.223,-25.7787 L 972.355,-59.506 L 973.169,-59.6962 L 974.005,-59.713 L 974.826,-59.5556
 L 975.597,-59.2308 L 976.283,-58.7529 L 976.855,-58.1429 L 977.287,-57.4272 L 977.562,-56.6372 L 977.667,-55.7273
 L 977.667,-22 L 977.579,-21.1684 L 977.321,-20.373 L 976.903,-19.6489 L 976.343,-19.0274 L 975.667,-18.5359
 L 974.903,-18.1958 L 973.667,-18 z
M 1072.37,-18 L 1071.54,-18.0874 L 1070.74,-18.3458 L 1070.02,-18.7639 L 1069.4,-19.3235 L 1068.9,-20
 L 1068.56,-20.7639 L 1068.39,-21.5819 L 1068.39,-22.4181 L 1068.56,-23.2361 L 1068.9,-24 L 1069.4,-24.6765
 L 1070.02,-25.2361 L 1071.06,-25.7787 L 1166.69,-58.9851 L 1167.5,-59.1754 L 1168.34,-59.1921 L 1169.16,-59.0347
 L 1169.93,-58.7099 L 1170.62,-58.2321 L 1171.19,-57.622 L 1171.62,-56.9063 L 1171.9,-56.1164 L 1172,-55.2065
 L 1172,-22 L 1171.91,-21.1684 L 1171.65,-20.373 L 1171.24,-19.6489 L 1170.68,-19.0274 L 1170,-18.5359
 L 1169.24,-18.1958 L 1168,-18 z
M 22,-18 L 20.7639,-18.1958 L 20,-18.5359 L 19.3235,-19.0274 L 18.7639,-19.6489 L 18.3458,-20.373
 L 18.0874,-21.1684 L 18,-22 L 18,-55.2065 L 18.1049,-56.1164 L 18.3792,-56.9063 L 18.8117,-57.622
 L 19.3836,-58.2321 L 20.0699,-58.7099 L 20.8405,-59.0347 L 21.6617,-59.1921 L 22.4978,-59.1754 L 23.3121,-58.9851
 L 118.943,-25.7787 L 119.982,-25.2361 L 120.604,-24.6765 L 121.095,-24 L 121.436,-23.2361 L 121.609,-22.4181
 L 121.609,-21.5819 L 121.436,-20.7639 L 121.095,-20 L 120.604,-19.3235 L 119.982,-18.7639 L 119.258,-18.3458
 L 118.463,-18.0874 L 117.631,-18 z
" stroke="black" fill="lightgray" stroke-width="0.5"/>
</svg>
