<?xml version="1.0" standalone="no"?>
<!DOCTYPE svg PUBLIC "-//W3C//DTD SVG 1.1//EN" "http://www.w3.org/Graphics/SVG/1.1/DTD/svg11.dtd">
<svg width="1019mm" height="80mm" viewBox="0 -80 1019 80" xmlns="http://www.w3.org/2000/svg" version="1.1">
<title>OpenSCAD Model</title>
<path d="
M 1019,-80 L 0,-80 L 0,-0 L 4.95,-0 L 4.95,-6 L 5.00572,-6.53017
 L 5.17046,-7.03717 L 5.437,-7.49884 L 5.79372,-7.895 L 6.22499,-8.20836 L 6.71201,-8.42519 L 7.23344,-8.53603
 L 7.76654,-8.53603 L 8.28798,-8.42519 L 8.77499,-8.20836 L 9.20627,-7.895 L 9.56299,-7.49884 L 9.82953,-7.03717
 L 9.99426,-6.53017 L 10.05,-6 L 10.05,-0 L 172.283,-0 L 172.283,-6 L 172.339,-6.53017
 L 172.504,-7.03717 L 172.77,-7.49884 L 173.127,-7.895 L 173.558,-8.20836 L 174.045,-8.42519 L 174.567,-8.53603
 L 175.1,-8.53603 L 175.621,-8.42519 L 176.108,-8.20836 L 176.54,-7.895 L 176.896,-7.49884 L 177.163,-7.03717
 L 177.328,-6.53017 L 177.383,-6 L 177.383,-0 L 339.617,-0 L 339.617,-6 L 339.672,-6.53017
 L 339.837,-7.03717 L 340.104,-7.49884 L 340.46,-7.895 L 340.892,-8.20836 L 341.379,-8.42519 L 341.9,-8.53603
 L 342.433,-8.53603 L 342.955,-8.42519 L 343.442,-8.20836 L 343.873,-7.895 L 344.23,-7.49884 L 344.496,-7.03717
 L 344.661,-6.53017 L 344.717,-6 L 344.717,-0 L 506.95,-0 L 506.95,-6 L 507.006,-6.53017
 L 507.17,-7.03717 L 507.437,-7.49884 L 507.794,-7.895 L 508.225,-8.20836 L 508.712,-8.42519 L 509.233,-8.53603
 L 509.767,-8.53603 L 510.288,-8.42519 L 510.775,-8.20836 L 511.206,-7.895 L 511.563,-7.49884 L 511.83,-7.03717
 L 511.994,-6.53017 L 512.05,-6 L 512.05,-0 L 674.283,-0 L 674.283,-6 L 674.339,-6.53017
 L 674.504,-7.03717 L 674.77,-7.49884 L 675.127,-7.895 L 675.558,-8.20836 L 676.045,-8.42519 L 676.567,-8.53603
 L 677.1,-8.53603 L 677.621,-8.42519 L 678.108,-8.20836 L 678.54,-7.895 L 678.896,-7.49884 L 679.163,-7.03717
 L 679.328,-6.53017 L 679.383,-6 L 679.383,-0 L 841.617,-0 L 841.617,-6 L 841.672,-6.53017
 L 841.837,-7.03717 L 842.104,-7.49884 L 842.46,-7.895 L 842.892,-8.20836 L 843.379,-8.42519 L 843.9,-8.53603
 L 844.433,-8.53603 L 844.955,-8.42519 L 845.442,-8.20836 L 845.873,-7.895 L 846.23,-7.49884 L 846.496,-7.03717
 L 846.661,-6.53017 L 846.717,-6 L 846.717,-0 L 1008.95,-0 L 1008.95,-6 L 1009.01,-6.53017
 L 1009.17,-7.03717 L 1009.44,-7.49884 L 1009.79,-7.895 L 1010.22,-8.20836 L 1010.71,-8.42519 L 1011.23,-8.53603
 L 1011.77,-8.53603 L 1012.29,-8.42519 L 1012.77,-8.20836 L 1013.21,-7.895 L 1013.56,-7.49884 L 1013.83,-7.03717
 L 1013.99,-6.53017 L 1014.05,-6 L 1014.05,-0 L 1019,-0 z
M 6.98573,-55.607 L 6.47708,-55.6875 L 5.97964,-55.8208 L 5.49887,-56.0054 L 5.04001,-56.2392 L 4.60811,-56.5196
 L 4.20789,-56.8437 L 3.84373,-57.2079 L 3.51964,-57.6081 L 3.23917,-58.04 L 3.00537,-58.4989 L 2.82082,-58.9796
 L 2.68752,-59.4771 L 2.60696,-59.9857 L 2.58,-60.5 L 2.60696,-61.0143 L 2.68752,-61.5229 L 2.82082,-62.0204
 L 3.00537,-62.5011 L 3.23917,-62.96 L 3.51964,-63.3919 L 3.84373,-63.7921 L 4.20789,-64.1563 L 4.60811,-64.4804
 L 4.95001,-64.7024 L 4.95001,-74 L 5.00574,-74.5302 L 5.17047,-75.0372 L 5.43701,-75.4988 L 5.79373,-75.895
 L 6.22501,-76.2084 L 6.71202,-76.4252 L 7.23346,-76.536 L 7.76654,-76.536 L 8.28798,-76.4252 L 8.77499,-76.2084
 L 9.20627,-75.895 L 9.56299,-75.4988 L 9.82953,-75.0372 L 9.99426,-74.5302 L 10.05,-74 L 10.05,-64.7024
 L 10.3919,-64.4804 L 10.7921,-64.1563 L 11.1563,-63.7921 L 11.4804,-63.3919 L 11.7608,-62.96 L 11.9946,-62.5011
 L 12.1792,-62.0204 L 12.3125,-61.5229 L 12.393,-61.0143 L 12.42,-60.5 L 12.393,-59.9857 L 12.3125,-59.4771
 L 12.1792,-58.9796 L 11.9946,-58.4989 L 11.7608,-58.04 L 11.4804,-57.6081 L 11.1563,-57.2079 L 10.7921,-56.8437
 L 10.3919,-56.5196 L 9.95999,-56.2392 L 9.50113,-56.0054 L 9.02036,-55.8208 L 8.52292,-55.6875 L 8.01427,-55.607
 L 7.5,-55.58 z
M 174.319,-55.607 L 173.81,-55.6875 L 173.313,-55.8208 L 172.832,-56.0054 L 172.373,-56.2392 L 171.941,-56.5196
 L 171.541,-56.8437 L 171.177,-57.2079 L 170.853,-57.6081 L 170.572,-58.04 L 170.339,-58.4989 L 170.154,-58.9796
 L 170.021,-59.4771 L 169.94,-59.9857 L 169.913,-60.5 L 169.94,-61.0143 L 170.021,-61.5229 L 170.154,-62.0204
 L 170.339,-62.5011 L 170.572,-62.96 L 170.853,-63.3919 L 171.177,-63.7921 L 171.541,-64.1563 L 171.941,-64.4804
 L 172.283,-64.7024 L 172.283,-74 L 172.339,-74.5302 L 172.504,-75.0372 L 172.77,-75.4988 L 173.127,-75.895
 L 173.558,-76.2084 L 174.045,-76.4252 L 174.567,-76.536 L 175.1,-76.536 L 175.621,-76.4252 L 176.108,-76.2084
 L 176.54,-75.895 L 176.896,-75.4988 L 177.163,-75.0372 L 177.328,-74.5302 L 177.383,-74 L 177.383,-64.7024
 L 177.725,-64.4804 L 178.125,-64.1563 L 178.49,-63.7921 L 178.814,-63.3919 L 179.094,-62.96 L 179.328,-62.5011
 L 179.513,-62.0204 L 179.646,-61.5229 L 179.726,-61.0143 L 179.753,-60.5 L 179.726,-59.9857 L 179.646,-59.4771
 L 179.513,-58.9796 L 179.328,-58.4989 L 179.094,-58.04 L 178.814,-57.6081 L 178.49,-57.2079 L 178.125,-56.8437
 L 177.725,-56.5196 L 177.293,-56.2392 L 176.834,-56.0054 L 176.354,-55.8208 L 175.856,-55.6875 L 175.348,-55.607
 L 174.833,-55.58 z
M 341.652,-55.607 L 341.144,-55.6875 L 340.646,-55.8208 L 340.166,-56.0054 L 339.707,-56.2392 L 339.275,-56.5196
 L 338.875,-56.8437 L 338.51,-57.2079 L 338.186,-57.6081 L 337.906,-58.04 L 337.672,-58.4989 L 337.487,-58.9796
 L 337.354,-59.4771 L 337.274,-59.9857 L 337.247,-60.5 L 337.274,-61.0143 L 337.354,-61.5229 L 337.487,-62.0204
 L 337.672,-62.5011 L 337.906,-62.96 L 338.186,-63.3919 L 338.51,-63.7921 L 338.875,-64.1563 L 339.275,-64.4804
 L 339.617,-64.7024 L 339.617,-74 L 339.672,-74.5302 L 339.837,-75.0372 L 340.104,-75.4988 L 340.46,-75.895
 L 340.892,-76.2084 L 341.379,-76.4252 L 341.9,-76.536 L 342.433,-76.536 L 342.955,-76.4252 L 343.442,-76.2084
 L 343.873,-75.895 L 344.23,-75.4988 L 344.496,-75.0372 L 344.661,-74.5302 L 344.717,-74 L 344.717,-64.7024
 L 345.059,-64.4804 L 345.459,-64.1563 L 345.823,-63.7921 L 346.147,-63.3919 L 346.427,-62.96 L 346.661,-62.5011
 L 346.846,-62.0204 L 346.979,-61.5229 L 347.06,-61.0143 L 347.087,-60.5 L 347.06,-59.9857 L 346.979,-59.4771
 L 346.846,-58.9796 L 346.661,-58.4989 L 346.427,-58.04 L 346.147,-57.6081 L 345.823,-57.2079 L 345.459,-56.8437
 L 345.059,-56.5196 L 344.627,-56.2392 L 344.168,-56.0054 L 343.687,-55.8208 L 343.19,-55.6875 L 342.681,-55.607
 L 342.167,-55.58 z
M 508.986,-55.607 L 508.477,-55.6875 L 507.98,-55.8208 L 507.499,-56.0054 L 507.04,-56.2392 L 506.608,-56.5196
 L 506.208,-56.8437 L 505.844,-57.2079 L 505.52,-57.6081 L 505.239,-58.04 L 505.005,-58.4989 L 504.821,-58.9796
 L 504.688,-59.4771 L 504.607,-59.9857 L 504.58,-60.5 L 504.607,-61.0143 L 504.688,-61.5229 L 504.821,-62.0204
 L 505.005,-62.5011 L 505.239,-62.96 L 505.52,-63.3919 L 505.844,-63.7921 L 506.208,-64.1563 L 506.608,-64.4804
 L 506.95,-64.7024 L 506.95,-74 L 507.006,-74.5302 L 507.17,-75.0372 L 507.437,-75.4988 L 507.794,-75.895
 L 508.225,-76.2084 L 508.712,-76.4252 L 509.233,-76.536 L 509.767,-76.536 L 510.288,-76.4252 L 510.775,-76.2084
 L 511.206,-75.895 L 511.563,-75.4988 L 511.83,-75.0372 L 511.994,-74.5302 L 512.05,-74 L 512.05,-64.7024
 L 512.392,-64.4804 L 512.792,-64.1563 L 513.156,-63.7921 L 513.48,-63.3919 L 513.761,-62.96 L 513.995,-62.5011
 L 514.179,-62.0204 L 514.312,-61.5229 L 514.393,-61.0143 L 514.42,-60.5 L 514.393,-59.9857 L 514.312,-59.4771
 L 514.179,-58.9796 L 513.995,-58.4989 L 513.761,-58.04 L 513.48,-57.6081 L 513.156,-57.2079 L 512.792,-56.8437
 L 512.392,-56.5196 L 511.96,-56.2392 L 511.501,-56.0054 L 511.02,-55.8208 L 510.523,-55.6875 L 510.014,-55.607
 L 509.5,-55.58 z
M 676.319,-55.607 L 675.81,-55.6875 L 675.313,-55.8208 L 674.832,-56.0054 L 674.373,-56.2392 L 673.941,-56.5196
 L 673.541,-56.8437 L 673.177,-57.2079 L 672.853,-57.6081 L 672.572,-58.04 L 672.339,-58.4989 L 672.154,-58.9796
 L 672.021,-59.4771 L 671.94,-59.9857 L 671.913,-60.5 L 671.94,-61.0143 L 672.021,-61.5229 L 672.154,-62.0204
 L 672.339,-62.5011 L 672.572,-62.96 L 672.853,-63.3919 L 673.177,-63.7921 L 673.541,-64.1563 L 673.941,-64.4804
 L 674.283,-64.7024 L 674.283,-74 L 674.339,-74.5302 L 674.504,-75.0372 L 674.77,-75.4988 L 675.127,-75.895
 L 675.558,-76.2084 L 676.045,-76.4252 L 676.567,-76.536 L 677.1,-76.536 L 677.621,-76.4252 L 678.108,-76.2084
 L 678.54,-75.895 L 678.896,-75.4988 L 679.163,-75.0372 L 679.328,-74.5302 L 679.383,-74 L 679.383,-64.7024
 L 679.725,-64.4804 L 680.125,-64.1563 L 680.49,-63.7921 L 680.814,-63.3919 L 681.094,-62.96 L 681.328,-62.5011
 L 681.513,-62.0204 L 681.646,-61.5229 L 681.726,-61.0143 L 681.753,-60.5 L 681.726,-59.9857 L 681.646,-59.4771
 L 681.513,-58.9796 L 681.328,-58.4989 L 681.094,-58.04 L 680.814,-57.6081 L 680.49,-57.2079 L 680.125,-56.8437
 L 679.725,-56.5196 L 679.293,-56.2392 L 678.834,-56.0054 L 678.354,-55.8208 L 677.856,-55.6875 L 677.348,-55.607
 L 676.833,-55.58 z
M 843.652,-55.607 L 843.144,-55.6875 L 842.646,-55.8208 L 842.166,-56.0054 L 841.707,-56.2392 L 841.275,-56.5196
 L 840.875,-56.8437 L 840.51,-57.2079 L 840.186,-57.6081 L 839.906,-58.04 L 839.672,-58.4989 L 839.487,-58.9796
 L 839.354,-59.4771 L 839.274,-59.9857 L 839.247,-60.5 L 839.274,-61.0143 L 839.354,-61.5229 L 839.487,-62.0204
 L 839.672,-62.5011 L 839.906,-62.96 L 840.186,-63.3919 L 840.51,-63.7921 L 840.875,-64.1563 L 841.275,-64.4804
 L 841.617,-64.7024 L 841.617,-74 L 841.672,-74.5302 L 841.837,-75.0372 L 842.104,-75.4988 L 842.46,-75.895
 L 842.892,-76.2084 L 843.379,-76.4252 L 843.9,-76.536 L 844.433,-76.536 L 844.955,-76.4252 L 845.442,-76.2084
 L 845.873,-75.895 L 846.23,-75.4988 L 846.496,-75.0372 L 846.661,-74.5302 L 846.717,-74 L 846.717,-64.7024
 L 847.059,-64.4804 L 847.459,-64.1563 L 847.823,-63.7921 L 848.147,-63.3919 L 848.427,-62.96 L 848.661,-62.5011
 L 848.846,-62.0204 L 848.979,-61.5229 L 849.06,-61.0143 L 849.087,-60.5 L 849.06,-59.9857 L 848.979,-59.4771
 L 848.846,-58.9796 L 848.661,-58.4989 L 848.427,-58.04 L 848.147,-57.6081 L 847.823,-57.2079 L 847.459,-56.8437
 L 847.059,-56.5196 L 846.627,-56.2392 L 846.168,-56.0054 L 845.687,-55.8208 L 845.19,-55.6875 L 844.681,-55.607
 L 844.167,-55.58 z
M 1010.99,-55.607 L 1010.48,-55.6875 L 1009.98,-55.8208 L 1009.5,-56.0054 L 1009.04,-56.2392 L 1008.61,-56.5196
 L 1008.21,-56.8437 L 1007.84,-57.2079 L 1007.52,-57.6081 L 1007.24,-58.04 L 1007.01,-58.4989 L 1006.82,-58.9796
 L 1006.69,-59.4771 L 1006.61,-59.9857 L 1006.58,-60.5 L 1006.61,-61.0143 L 1006.69,-61.5229 L 1006.82,-62.0204
 L 1007.01,-62.5011 L 1007.24,-62.96 L 1007.52,-63.3919 L 1007.84,-63.7921 L 1008.21,-64.1563 L 1008.61,-64.4804
 L 1008.95,-64.7024 L 1008.95,-74 L 1009.01,-74.5302 L 1009.17,-75.0372 L 1009.44,-75.4988 L 1009.79,-75.895
 L 1010.23,-76.2084 L 1010.71,-76.4252 L 1011.23,-76.536 L 1011.77,-76.536 L 1012.29,-76.4252 L 1012.77,-76.2084
 L 1013.21,-75.895 L 1013.56,-75.4988 L 1013.83,-75.0372 L 1013.99,-74.5302 L 1014.05,-74 L 1014.05,-64.7024
 L 1014.39,-64.4804 L 1014.79,-64.1563 L 1015.16,-63.7921 L 1015.48,-63.3919 L 1015.76,-62.96 L 1015.99,-62.5011
 L 1016.18,-62.0204 L 1016.31,-61.5229 L 1016.39,-61.0143 L 1016.42,-60.5 L 1016.39,-59.9857 L 1016.31,-59.4771
 L 1016.18,-58.9796 L 1015.99,-58.4989 L 1015.76,-58.04 L 1015.48,-57.6081 L 1015.16,-57.2079 L 1014.79,-56.8437
 L 1014.39,-56.5196 L 1013.96,-56.2392 L 1013.5,-56.0054 L 1013.02,-55.8208 L 1012.52,-55.6875 L 1012.01,-55.607
 L 1011.5,-55.58 z
M 856.207,-21.4245 L 855.42,-21.709 L 854.71,-22.1507 L 854.108,-22.7303 L 853.639,-23.4227 L 853.324,-24.1974
 L 853.167,-25.3077 L 853.167,-58 L 853.254,-58.8316 L 853.512,-59.627 L 853.931,-60.3511 L 854.49,-60.9726
 L 855.167,-61.4641 L 855.931,-61.8042 L 857.167,-62 L 937.615,-62 L 938.447,-61.9126 L 939.242,-61.6542
 L 939.967,-61.2361 L 940.588,-60.6765 L 941.079,-60 L 941.42,-59.2361 L 941.593,-58.4181 L 941.593,-57.5819
 L 941.42,-56.7639 L 941.079,-56 L 940.588,-55.3235 L 939.967,-54.7639 L 939.121,-54.2943 L 858.673,-21.602
 L 857.869,-21.3699 L 857.035,-21.3098 z
M 328.464,-21.3699 L 327.661,-21.602 L 247.212,-54.2943 L 246.367,-54.7639 L 245.745,-55.3235 L 245.254,-56
 L 244.914,-56.7639 L 244.74,-57.5819 L 244.74,-58.4181 L 244.914,-59.2361 L 245.254,-60 L 245.745,-60.6765
 L 246.367,-61.2361 L 247.091,-61.6542 L 247.886,-61.9126 L 248.718,-62 L 329.167,-62 L 330.403,-61.8042
 L 331.167,-61.4641 L 331.843,-60.9726 L 332.403,-60.3511 L 332.821,-59.627 L 333.079,-58.8316 L 333.167,-58
 L 333.167,-25.3077 L 333.009,-24.1974 L 332.695,-23.4227 L 332.226,-22.7303 L 331.623,-22.1507 L 330.913,-21.709
 L 330.127,-21.4245 L 329.298,-21.3098 z
M 161.131,-21.3699 L 160.327,-21.602 L 79.8787,-54.2943 L 79.0335,-54.7639 L 78.412,-55.3235 L 77.9205,-56
 L 77.5804,-56.7639 L 77.4065,-57.5819 L 77.4065,-58.4181 L 77.5804,-59.2361 L 77.9205,-60 L 78.412,-60.6765
 L 79.0335,-61.2361 L 79.7576,-61.6542 L 80.5529,-61.9126 L 81.3846,-62 L 161.833,-62 L 163.069,-61.8042
 L 163.833,-61.4641 L 164.51,-60.9726 L 165.069,-60.3511 L 165.488,-59.627 L 165.746,-58.8316 L 165.833,-58
 L 165.833,-25.3077 L 165.676,-24.1974 L 165.361,-23.4227 L 164.892,-22.7303 L 164.29,-22.1507 L 163.58,-21.709
 L 162.793,-21.4245 L 161.965,-21.3098 z
M 495.797,-21.3699 L 494.994,-21.602 L 414.545,-54.2943 L 413.7,-54.7639 L 413.079,-55.3235 L 412.587,-56
 L 412.247,-56.7639 L 412.073,-57.5819 L 412.073,-58.4181 L 412.247,-59.2361 L 412.587,-60 L 413.079,-60.6765
 L 413.7,-61.2361 L 414.424,-61.6542 L 415.22,-61.9126 L 416.051,-62 L 496.5,-62 L 497.736,-61.8042
 L 498.5,-61.4641 L 499.177,-60.9726 L 499.736,-60.3511 L 500.154,-59.627 L 500.413,-58.8316 L 500.5,-58
 L 500.5,-25.3077 L 500.343,-24.1974 L 500.028,-23.4227 L 499.559,-22.7303 L 498.956,-22.1507 L 498.246,-21.709
 L 497.46,-21.4245 L 496.632,-21.3098 z
M 521.54,-21.4245 L 520.754,-21.709 L 520.044,-22.1507 L 519.441,-22.7303 L 518.972,-23.4227 L 518.657,-24.1974
 L 518.5,-25.3077 L 518.5,-58 L 518.587,-58.8316 L 518.846,-59.627 L 519.264,-60.3511 L 519.823,-60.9726
 L 520.5,-61.4641 L 521.264,-61.8042 L 522.5,-62 L 602.949,-62 L 603.78,-61.9126 L 604.576,-61.6542
 L 605.3,-61.2361 L 605.921,-60.6765 L 606.413,-60 L 606.753,-59.2361 L 606.927,-58.4181 L 606.927,-57.5819
 L 606.753,-56.7639 L 606.413,-56 L 605.921,-55.3235 L 605.3,-54.7639 L 604.455,-54.2943 L 524.006,-21.602
 L 523.203,-21.3699 L 522.368,-21.3098 z
M 688.873,-21.4245 L 688.087,-21.709 L 687.377,-22.1507 L 686.774,-22.7303 L 686.305,-23.4227 L 685.991,-24.1974
 L 685.833,-25.3077 L 685.833,-58 L 685.921,-58.8316 L 686.179,-59.627 L 686.597,-60.3511 L 687.157,-60.9726
 L 687.833,-61.4641 L 688.597,-61.8042 L 689.833,-62 L 770.282,-62 L 771.114,-61.9126 L 771.909,-61.6542
 L 772.633,-61.2361 L 773.255,-60.6765 L 773.746,-60 L 774.086,-59.2361 L 774.26,-58.4181 L 774.26,-57.5819
 L 774.086,-56.7639 L 773.746,-56 L 773.255,-55.3235 L 772.633,-54.7639 L 771.788,-54.2943 L 691.339,-21.602
 L 690.536,-21.3699 L 689.702,-21.3098 z
M 187.833,-18 L 186.597,-18.1958 L 185.833,-18.5359 L 185.157,-19.0274 L 184.597,-19.6489 L 184.179,-20.373
 L 183.921,-21.1684 L 183.833,-22 L 183.833,-54.6923 L 183.991,-55.8026 L 184.305,-56.5773 L 184.774,-57.2696
 L 185.377,-57.8493 L 186.087,-58.291 L 186.873,-58.5754 L 187.702,-58.6901 L 188.536,-58.6301 L 189.339,-58.398
 L 269.788,-25.7057 L 270.633,-25.2361 L 271.255,-24.6765 L 271.746,-24 L 272.086,-23.2361 L 272.26,-22.4181
 L 272.26,-21.5819 L 272.086,-20.7639 L 271.746,-20 L 271.255,-19.3235 L 270.633,-18.7639 L 269.909,-18.3458
 L 269.114,-18.0874 L 268.282,-18 z
M 355.167,-18 L 353.931,-18.1958 L 353.167,-18.5359 L 352.49,-19.0274 L 351.931,-19.6489 L 351.512,-20.373
 L 351.254,-21.1684 L 351.167,-22 L 351.167,-54.6923 L 351.324,-55.8026 L 351.639,-56.5773 L 352.108,-57.2696
 L 352.71,-57.8493 L 353.42,-58.291 L 354.207,-58.5754 L 355.035,-58.6901 L 355.869,-58.6301 L 356.673,-58.398
 L 437.121,-25.7057 L 437.967,-25.2361 L 438.588,-24.6765 L 439.079,-24 L 439.42,-23.2361 L 439.593,-22.4181
 L 439.593,-21.5819 L 439.42,-20.7639 L 439.079,-20 L 438.588,-19.3235 L 437.967,-18.7639 L 437.242,-18.3458
 L 436.447,-18.0874 L 435.615,-18 z
M 583.385,-18 L 582.553,-18.0874 L 581.758,-18.3458 L 581.033,-18.7639 L 580.412,-19.3235 L 579.921,-20
 L 579.58,-20.7639 L 579.407,-21.5819 L 579.407,-22.4181 L 579.58,-23.2361 L 579.921,-24 L 580.412,-24.6765
 L 581.033,-25.2361 L 581.879,-25.7057 L 662.327,-58.398 L 663.131,-58.6301 L 663.965,-58.6901 L 664.793,-58.5754
 L 665.58,-58.291 L 666.29,-57.8493 L 666.892,-57.2696 L 667.361,-56.5773 L 667.676,-55.8026 L 667.833,-54.6923
 L 667.833,-22 L 667.746,-21.1684 L 667.488,-20.373 L 667.069,-19.6489 L 666.51,-19.0274 L 665.833,-18.5359
 L 665.069,-18.1958 L 663.833,-18 z
M 750.718,-18 L 749.886,-18.0874 L 749.091,-18.3458 L 748.367,-18.7639 L 747.745,-19.3235 L 747.254,-20
 L 746.914,-20.7639 L 746.74,-21.5819 L 746.74,-22.4181 L 746.914,-23.2361 L 747.254,-24 L 747.745,-24.6765
 L 748.367,-25.2361 L 749.212,-25.7057 L 829.661,-58.398 L 830.464,-58.6301 L 831.298,-58.6901 L 832.127,-58.5754
 L 832.913,-58.291 L 833.623,-57.8493 L 834.226,-57.2696 L 834.695,-56.5773 L 835.009,-55.8026 L 835.167,-54.6923
 L 835.167,-22 L 835.079,-21.1684 L 834.821,-20.373 L 834.403,-19.6489 L 833.843,-19.0274 L 833.167,-18.5359
 L 832.403,-18.1958 L 831.167,-18 z
M 918.051,-18 L 917.22,-18.0874 L 916.424,-18.3458 L 915.7,-18.7639 L 915.079,-19.3235 L 914.587,-20
 L 914.247,-20.7639 L 914.073,-21.5819 L 914.073,-22.4181 L 914.247,-23.2361 L 914.587,-24 L 915.079,-24.6765
 L 915.7,-25.2361 L 916.545,-25.7057 L 995.494,-57.7884 L 996.297,-58.0206 L 997.132,-58.0806 L 997.96,-57.9659
 L 998.746,-57.6814 L 999.456,-57.2397 L 1000.06,-56.6601 L 1000.53,-55.9677 L 1000.84,-55.193 L 1001,-54.0827
 L 1001,-22 L 1000.91,-21.1684 L 1000.65,-20.373 L 1000.24,-19.6489 L 999.677,-19.0274 L 999,-18.5359
 L 998.236,-18.1958 L 997,-18 z
M 22,-18 L 20.7639,-18.1958 L 20,-18.5359 L 19.3235,-19.0274 L 18.7639,-19.6489 L 18.3458,-20.373
 L 18.0874,-21.1684 L 18,-22 L 18,-54.0827 L 18.1572,-55.193 L 18.472,-55.9677 L 18.941,-56.6601
 L 19.5437,-57.2397 L 20.2538,-57.6814 L 21.0401,-57.9659 L 21.8685,-58.0806 L 22.7025,-58.0206 L 23.5059,-57.7884
 L 102.455,-25.7057 L 103.3,-25.2361 L 103.921,-24.6765 L 104.413,-24 L 104.753,-23.2361 L 104.927,-22.4181
 L 104.927,-21.5819 L 104.753,-20.7639 L 104.413,-20 L 103.921,-19.3235 L 103.3,-18.7639 L 102.576,-18.3458
 L 101.78,-18.0874 L 100.949,-18 z
" stroke="black" fill="lightgray" stroke-width="0.5"/>
</svg>
