<?xml version="1.0" standalone="no"?>
<!DOCTYPE svg PUBLIC "-//W3C//DTD SVG 1.1//EN" "http://www.w3.org/Graphics/SVG/1.1/DTD/svg11.dtd">
<svg width="1584mm" height="80mm" viewBox="0 -80 1584 80" xmlns="http://www.w3.org/2000/svg" version="1.1">
<title>OpenSCAD Model</title>
<path d="
M 1584,-80 L 0,-80 L 0,-0 L 4.95,-0 L 4.95,-6 L 5.00572,-6.53017
 L 5.17046,-7.03717 L 5.437,-7.49884 L 5.79372,-7.895 L 6.22499,-8.20836 L 6.71201,-8.42519 L 7.23344,-8.53603
 L 7.76654,-8.53603 L 8.28798,-8.42519 L 8.77499,-8.20836 L 9.20627,-7.895 L 9.56299,-7.49884 L 9.82953,-7.03717
 L 9.99426,-6.53017 L 10.05,-6 L 10.05,-0 L 201.075,-0 L 201.075,-6 L 201.131,-6.53017
 L 201.295,-7.03717 L 201.562,-7.49884 L 201.919,-7.895 L 202.35,-8.20836 L 202.837,-8.42519 L 203.358,-8.53603
 L 203.892,-8.53603 L 204.413,-8.42519 L 204.9,-8.20836 L 205.331,-7.895 L 205.688,-7.49884 L 205.955,-7.03717
 L 206.119,-6.53017 L 206.175,-6 L 206.175,-0 L 397.2,-0 L 397.2,-6 L 397.256,-6.53017
 L 397.42,-7.03717 L 397.687,-7.49884 L 398.044,-7.895 L 398.475,-8.20836 L 398.962,-8.42519 L 399.483,-8.53603
 L 400.017,-8.53603 L 400.538,-8.42519 L 401.025,-8.20836 L 401.456,-7.895 L 401.813,-7.49884 L 402.08,-7.03717
 L 402.244,-6.53017 L 402.3,-6 L 402.3,-0 L 593.325,-0 L 593.325,-6 L 593.381,-6.53017
 L 593.545,-7.03717 L 593.812,-7.49884 L 594.169,-7.895 L 594.6,-8.20836 L 595.087,-8.42519 L 595.608,-8.53603
 L 596.142,-8.53603 L 596.663,-8.42519 L 597.15,-8.20836 L 597.581,-7.895 L 597.938,-7.49884 L 598.205,-7.03717
 L 598.369,-6.53017 L 598.425,-6 L 598.425,-0 L 789.45,-0 L 789.45,-6 L 789.506,-6.53017
 L 789.67,-7.03717 L 789.937,-7.49884 L 790.294,-7.895 L 790.725,-8.20836 L 791.212,-8.42519 L 791.733,-8.53603
 L 792.267,-8.53603 L 792.788,-8.42519 L 793.275,-8.20836 L 793.706,-7.895 L 794.063,-7.49884 L 794.33,-7.03717
 L 794.494,-6.53017 L 794.55,-6 L 794.55,-0 L 985.575,-0 L 985.575,-6 L 985.631,-6.53017
 L 985.795,-7.03717 L 986.062,-7.49884 L 986.419,-7.895 L 986.85,-8.20836 L 987.337,-8.42519 L 987.858,-8.53603
 L 988.392,-8.53603 L 988.913,-8.42519 L 989.4,-8.20836 L 989.831,-7.895 L 990.188,-7.49884 L 990.455,-7.03717
 L 990.619,-6.53017 L 990.675,-6 L 990.675,-0 L 1181.7,-0 L 1181.7,-6 L 1181.76,-6.53017
 L 1181.92,-7.03717 L 1182.19,-7.49884 L 1182.54,-7.895 L 1182.97,-8.20836 L 1183.46,-8.42519 L 1183.98,-8.53603
 L 1184.52,-8.53603 L 1185.04,-8.42519 L 1185.52,-8.20836 L 1185.96,-7.895 L 1186.31,-7.49884 L 1186.58,-7.03717
 L 1186.74,-6.53017 L 1186.8,-6 L 1186.8,-0 L 1377.82,-0 L 1377.82,-6 L 1377.88,-6.53017
 L 1378.05,-7.03717 L 1378.31,-7.49884 L 1378.67,-7.895 L 1379.1,-8.20836 L 1379.59,-8.42519 L 1380.11,-8.53603
 L 1380.64,-8.53603 L 1381.16,-8.42519 L 1381.65,-8.20836 L 1382.08,-7.895 L 1382.44,-7.49884 L 1382.7,-7.03717
 L 1382.87,-6.53017 L 1382.92,-6 L 1382.92,-0 L 1573.95,-0 L 1573.95,-6 L 1574.01,-6.53017
 L 1574.17,-7.03717 L 1574.44,-7.49884 L 1574.79,-7.895 L 1575.22,-8.20836 L 1575.71,-8.42519 L 1576.23,-8.53603
 L 1576.77,-8.53603 L 1577.29,-8.42519 L 1577.77,-8.20836 L 1578.21,-7.895 L 1578.56,-7.49884 L 1578.83,-7.03717
 L 1578.99,-6.53017 L 1579.05,-6 L 1579.05,-0 L 1584,-0 z
M 203.111,-55.607 L 202.602,-55.6875 L 202.105,-55.8208 L 201.624,-56.0054 L 201.165,-56.2392 L 200.733,-56.5196
 L 200.333,-56.8437 L 199.969,-57.2079 L 199.645,-57.6081 L 199.364,-58.04 L 199.13,-58.4989 L 198.946,-58.9796
 L 198.813,-59.4771 L 198.732,-59.9857 L 198.705,-60.5 L 198.732,-61.0143 L 198.813,-61.5229 L 198.946,-62.0204
 L 199.13,-62.5011 L 199.364,-62.96 L 199.645,-63.3919 L 199.969,-63.7921 L 200.333,-64.1563 L 200.733,-64.4804
 L 201.075,-64.7024 L 201.075,-74 L 201.131,-74.5302 L 201.295,-75.0372 L 201.562,-75.4988 L 201.919,-75.895
 L 202.35,-76.2084 L 202.837,-76.4252 L 203.358,-76.536 L 203.892,-76.536 L 204.413,-76.4252 L 204.9,-76.2084
 L 205.331,-75.895 L 205.688,-75.4988 L 205.955,-75.0372 L 206.119,-74.5302 L 206.175,-74 L 206.175,-64.7024
 L 206.517,-64.4804 L 206.917,-64.1563 L 207.281,-63.7921 L 207.605,-63.3919 L 207.886,-62.96 L 208.12,-62.5011
 L 208.304,-62.0204 L 208.437,-61.5229 L 208.518,-61.0143 L 208.545,-60.5 L 208.518,-59.9857 L 208.437,-59.4771
 L 208.304,-58.9796 L 208.12,-58.4989 L 207.886,-58.04 L 207.605,-57.6081 L 207.281,-57.2079 L 206.917,-56.8437
 L 206.517,-56.5196 L 206.085,-56.2392 L 205.626,-56.0054 L 205.145,-55.8208 L 204.648,-55.6875 L 204.139,-55.607
 L 203.625,-55.58 z
M 1183.74,-55.607 L 1183.23,-55.6875 L 1182.73,-55.8208 L 1182.25,-56.0054 L 1181.79,-56.2392 L 1181.36,-56.5196
 L 1180.96,-56.8437 L 1180.59,-57.2079 L 1180.27,-57.6081 L 1179.99,-58.04 L 1179.76,-58.4989 L 1179.57,-58.9796
 L 1179.44,-59.4771 L 1179.36,-59.9857 L 1179.33,-60.5 L 1179.36,-61.0143 L 1179.44,-61.5229 L 1179.57,-62.0204
 L 1179.76,-62.5011 L 1179.99,-62.96 L 1180.27,-63.3919 L 1180.59,-63.7921 L 1180.96,-64.1563 L 1181.36,-64.4804
 L 1181.7,-64.7024 L 1181.7,-74 L 1181.76,-74.5302 L 1181.92,-75.0372 L 1182.19,-75.4988 L 1182.54,-75.895
 L 1182.98,-76.2084 L 1183.46,-76.4252 L 1183.98,-76.536 L 1184.52,-76.536 L 1185.04,-76.4252 L 1185.52,-76.2084
 L 1185.96,-75.895 L 1186.31,-75.4988 L 1186.58,-75.0372 L 1186.74,-74.5302 L 1186.8,-74 L 1186.8,-64.7024
 L 1187.14,-64.4804 L 1187.54,-64.1563 L 1187.91,-63.7921 L 1188.23,-63.3919 L 1188.51,-62.96 L 1188.74,-62.5011
 L 1188.93,-62.0204 L 1189.06,-61.5229 L 1189.14,-61.0143 L 1189.17,-60.5 L 1189.14,-59.9857 L 1189.06,-59.4771
 L 1188.93,-58.9796 L 1188.74,-58.4989 L 1188.51,-58.04 L 1188.23,-57.6081 L 1187.91,-57.2079 L 1187.54,-56.8437
 L 1187.14,-56.5196 L 1186.71,-56.2392 L 1186.25,-56.0054 L 1185.77,-55.8208 L 1185.27,-55.6875 L 1184.76,-55.607
 L 1184.25,-55.58 z
M 987.611,-55.607 L 987.102,-55.6875 L 986.605,-55.8208 L 986.124,-56.0054 L 985.665,-56.2392 L 985.233,-56.5196
 L 984.833,-56.8437 L 984.469,-57.2079 L 984.145,-57.6081 L 983.864,-58.04 L 983.63,-58.4989 L 983.446,-58.9796
 L 983.313,-59.4771 L 983.232,-59.9857 L 983.205,-60.5 L 983.232,-61.0143 L 983.313,-61.5229 L 983.446,-62.0204
 L 983.63,-62.5011 L 983.864,-62.96 L 984.145,-63.3919 L 984.469,-63.7921 L 984.833,-64.1563 L 985.233,-64.4804
 L 985.575,-64.7024 L 985.575,-74 L 985.631,-74.5302 L 985.795,-75.0372 L 986.062,-75.4988 L 986.419,-75.895
 L 986.85,-76.2084 L 987.337,-76.4252 L 987.858,-76.536 L 988.392,-76.536 L 988.913,-76.4252 L 989.4,-76.2084
 L 989.831,-75.895 L 990.188,-75.4988 L 990.455,-75.0372 L 990.619,-74.5302 L 990.675,-74 L 990.675,-64.7024
 L 991.017,-64.4804 L 991.417,-64.1563 L 991.781,-63.7921 L 992.105,-63.3919 L 992.386,-62.96 L 992.62,-62.5011
 L 992.804,-62.0204 L 992.937,-61.5229 L 993.018,-61.0143 L 993.045,-60.5 L 993.018,-59.9857 L 992.937,-59.4771
 L 992.804,-58.9796 L 992.62,-58.4989 L 992.386,-58.04 L 992.105,-57.6081 L 991.781,-57.2079 L 991.417,-56.8437
 L 991.017,-56.5196 L 990.585,-56.2392 L 990.126,-56.0054 L 989.645,-55.8208 L 989.148,-55.6875 L 988.639,-55.607
 L 988.125,-55.58 z
M 6.98573,-55.607 L 6.47708,-55.6875 L 5.97964,-55.8208 L 5.49887,-56.0054 L 5.04001,-56.2392 L 4.60811,-56.5196
 L 4.20789,-56.8437 L 3.84373,-57.2079 L 3.51964,-57.6081 L 3.23917,-58.04 L 3.00537,-58.4989 L 2.82082,-58.9796
 L 2.68752,-59.4771 L 2.60696,-59.9857 L 2.58,-60.5 L 2.60696,-61.0143 L 2.68752,-61.5229 L 2.82082,-62.0204
 L 3.00537,-62.5011 L 3.23917,-62.96 L 3.51964,-63.3919 L 3.84373,-63.7921 L 4.20789,-64.1563 L 4.60811,-64.4804
 L 4.95001,-64.7024 L 4.95001,-74 L 5.00574,-74.5302 L 5.17047,-75.0372 L 5.43701,-75.4988 L 5.79373,-75.895
 L 6.22501,-76.2084 L 6.71202,-76.4252 L 7.23346,-76.536 L 7.76654,-76.536 L 8.28798,-76.4252 L 8.77499,-76.2084
 L 9.20627,-75.895 L 9.56299,-75.4988 L 9.82953,-75.0372 L 9.99426,-74.5302 L 10.05,-74 L 10.05,-64.7024
 L 10.3919,-64.4804 L 10.7921,-64.1563 L 11.1563,-63.7921 L 11.4804,-63.3919 L 11.7608,-62.96 L 11.9946,-62.5011
 L 12.1792,-62.0204 L 12.3125,-61.5229 L 12.393,-61.0143 L 12.42,-60.5 L 12.393,-59.9857 L 12.3125,-59.4771
 L 12.1792,-58.9796 L 11.9946,-58.4989 L 11.7608,-58.04 L 11.4804,-57.6081 L 11.1563,-57.2079 L 10.7921,-56.8437
 L 10.3919,-56.5196 L 9.95999,-56.2392 L 9.50113,-56.0054 L 9.02036,-55.8208 L 8.52292,-55.6875 L 8.01427,-55.607
 L 7.5,-55.58 z
M 791.486,-55.607 L 790.977,-55.6875 L 790.48,-55.8208 L 789.999,-56.0054 L 789.54,-56.2392 L 789.108,-56.5196
 L 788.708,-56.8437 L 788.344,-57.2079 L 788.02,-57.6081 L 787.739,-58.04 L 787.505,-58.4989 L 787.321,-58.9796
 L 787.188,-59.4771 L 787.107,-59.9857 L 787.08,-60.5 L 787.107,-61.0143 L 787.188,-61.5229 L 787.321,-62.0204
 L 787.505,-62.5011 L 787.739,-62.96 L 788.02,-63.3919 L 788.344,-63.7921 L 788.708,-64.1563 L 789.108,-64.4804
 L 789.45,-64.7024 L 789.45,-74 L 789.506,-74.5302 L 789.67,-75.0372 L 789.937,-75.4988 L 790.294,-75.895
 L 790.725,-76.2084 L 791.212,-76.4252 L 791.733,-76.536 L 792.267,-76.536 L 792.788,-76.4252 L 793.275,-76.2084
 L 793.706,-75.895 L 794.063,-75.4988 L 794.33,-75.0372 L 794.494,-74.5302 L 794.55,-74 L 794.55,-64.7024
 L 794.892,-64.4804 L 795.292,-64.1563 L 795.656,-63.7921 L 795.98,-63.3919 L 796.261,-62.96 L 796.495,-62.5011
 L 796.679,-62.0204 L 796.812,-61.5229 L 796.893,-61.0143 L 796.92,-60.5 L 796.893,-59.9857 L 796.812,-59.4771
 L 796.679,-58.9796 L 796.495,-58.4989 L 796.261,-58.04 L 795.98,-57.6081 L 795.656,-57.2079 L 795.292,-56.8437
 L 794.892,-56.5196 L 794.46,-56.2392 L 794.001,-56.0054 L 793.52,-55.8208 L 793.023,-55.6875 L 792.514,-55.607
 L 792,-55.58 z
M 1379.86,-55.607 L 1379.35,-55.6875 L 1378.85,-55.8208 L 1378.37,-56.0054 L 1377.92,-56.2392 L 1377.48,-56.5196
 L 1377.08,-56.8437 L 1376.72,-57.2079 L 1376.39,-57.6081 L 1376.11,-58.04 L 1375.88,-58.4989 L 1375.7,-58.9796
 L 1375.56,-59.4771 L 1375.48,-59.9857 L 1375.46,-60.5 L 1375.48,-61.0143 L 1375.56,-61.5229 L 1375.7,-62.0204
 L 1375.88,-62.5011 L 1376.11,-62.96 L 1376.39,-63.3919 L 1376.72,-63.7921 L 1377.08,-64.1563 L 1377.48,-64.4804
 L 1377.83,-64.7024 L 1377.83,-74 L 1377.88,-74.5302 L 1378.05,-75.0372 L 1378.31,-75.4988 L 1378.67,-75.895
 L 1379.1,-76.2084 L 1379.59,-76.4252 L 1380.11,-76.536 L 1380.64,-76.536 L 1381.16,-76.4252 L 1381.65,-76.2084
 L 1382.08,-75.895 L 1382.44,-75.4988 L 1382.7,-75.0372 L 1382.87,-74.5302 L 1382.92,-74 L 1382.92,-64.7024
 L 1383.27,-64.4804 L 1383.67,-64.1563 L 1384.03,-63.7921 L 1384.36,-63.3919 L 1384.64,-62.96 L 1384.87,-62.5011
 L 1385.05,-62.0204 L 1385.19,-61.5229 L 1385.27,-61.0143 L 1385.29,-60.5 L 1385.27,-59.9857 L 1385.19,-59.4771
 L 1385.05,-58.9796 L 1384.87,-58.4989 L 1384.64,-58.04 L 1384.36,-57.6081 L 1384.03,-57.2079 L 1383.67,-56.8437
 L 1383.27,-56.5196 L 1382.83,-56.2392 L 1382.38,-56.0054 L 1381.9,-55.8208 L 1381.4,-55.6875 L 1380.89,-55.607
 L 1380.38,-55.58 z
M 595.361,-55.607 L 594.852,-55.6875 L 594.355,-55.8208 L 593.874,-56.0054 L 593.415,-56.2392 L 592.983,-56.5196
 L 592.583,-56.8437 L 592.219,-57.2079 L 591.895,-57.6081 L 591.614,-58.04 L 591.38,-58.4989 L 591.196,-58.9796
 L 591.063,-59.4771 L 590.982,-59.9857 L 590.955,-60.5 L 590.982,-61.0143 L 591.063,-61.5229 L 591.196,-62.0204
 L 591.38,-62.5011 L 591.614,-62.96 L 591.895,-63.3919 L 592.219,-63.7921 L 592.583,-64.1563 L 592.983,-64.4804
 L 593.325,-64.7024 L 593.325,-74 L 593.381,-74.5302 L 593.545,-75.0372 L 593.812,-75.4988 L 594.169,-75.895
 L 594.6,-76.2084 L 595.087,-76.4252 L 595.608,-76.536 L 596.142,-76.536 L 596.663,-76.4252 L 597.15,-76.2084
 L 597.581,-75.895 L 597.938,-75.4988 L 598.205,-75.0372 L 598.369,-74.5302 L 598.425,-74 L 598.425,-64.7024
 L 598.767,-64.4804 L 599.167,-64.1563 L 599.531,-63.7921 L 599.855,-63.3919 L 600.136,-62.96 L 600.37,-62.5011
 L 600.554,-62.0204 L 600.687,-61.5229 L 600.768,-61.0143 L 600.795,-60.5 L 600.768,-59.9857 L 600.687,-59.4771
 L 600.554,-58.9796 L 600.37,-58.4989 L 600.136,-58.04 L 599.855,-57.6081 L 599.531,-57.2079 L 599.167,-56.8437
 L 598.767,-56.5196 L 598.335,-56.2392 L 597.876,-56.0054 L 597.395,-55.8208 L 596.898,-55.6875 L 596.389,-55.607
 L 595.875,-55.58 z
M 399.236,-55.607 L 398.727,-55.6875 L 398.23,-55.8208 L 397.749,-56.0054 L 397.29,-56.2392 L 396.858,-56.5196
 L 396.458,-56.8437 L 396.094,-57.2079 L 395.77,-57.6081 L 395.489,-58.04 L 395.255,-58.4989 L 395.071,-58.9796
 L 394.938,-59.4771 L 394.857,-59.9857 L 394.83,-60.5 L 394.857,-61.0143 L 394.938,-61.5229 L 395.071,-62.0204
 L 395.255,-62.5011 L 395.489,-62.96 L 395.77,-63.3919 L 396.094,-63.7921 L 396.458,-64.1563 L 396.858,-64.4804
 L 397.2,-64.7024 L 397.2,-74 L 397.256,-74.5302 L 397.42,-75.0372 L 397.687,-75.4988 L 398.044,-75.895
 L 398.475,-76.2084 L 398.962,-76.4252 L 399.483,-76.536 L 400.017,-76.536 L 400.538,-76.4252 L 401.025,-76.2084
 L 401.456,-75.895 L 401.813,-75.4988 L 402.08,-75.0372 L 402.244,-74.5302 L 402.3,-74 L 402.3,-64.7024
 L 402.642,-64.4804 L 403.042,-64.1563 L 403.406,-63.7921 L 403.73,-63.3919 L 404.011,-62.96 L 404.245,-62.5011
 L 404.429,-62.0204 L 404.562,-61.5229 L 404.643,-61.0143 L 404.67,-60.5 L 404.643,-59.9857 L 404.562,-59.4771
 L 404.429,-58.9796 L 404.245,-58.4989 L 404.011,-58.04 L 403.73,-57.6081 L 403.406,-57.2079 L 403.042,-56.8437
 L 402.642,-56.5196 L 402.21,-56.2392 L 401.751,-56.0054 L 401.27,-55.8208 L 400.773,-55.6875 L 400.264,-55.607
 L 399.75,-55.58 z
M 1575.99,-55.607 L 1575.48,-55.6875 L 1574.98,-55.8208 L 1574.5,-56.0054 L 1574.04,-56.2392 L 1573.61,-56.5196
 L 1573.21,-56.8437 L 1572.84,-57.2079 L 1572.52,-57.6081 L 1572.24,-58.04 L 1572.01,-58.4989 L 1571.82,-58.9796
 L 1571.69,-59.4771 L 1571.61,-59.9857 L 1571.58,-60.5 L 1571.61,-61.0143 L 1571.69,-61.5229 L 1571.82,-62.0204
 L 1572.01,-62.5011 L 1572.24,-62.96 L 1572.52,-63.3919 L 1572.84,-63.7921 L 1573.21,-64.1563 L 1573.61,-64.4804
 L 1573.95,-64.7024 L 1573.95,-74 L 1574.01,-74.5302 L 1574.17,-75.0372 L 1574.44,-75.4988 L 1574.79,-75.895
 L 1575.23,-76.2084 L 1575.71,-76.4252 L 1576.23,-76.536 L 1576.77,-76.536 L 1577.29,-76.4252 L 1577.77,-76.2084
 L 1578.21,-75.895 L 1578.56,-75.4988 L 1578.83,-75.0372 L 1578.99,-74.5302 L 1579.05,-74 L 1579.05,-64.7024
 L 1579.39,-64.4804 L 1579.79,-64.1563 L 1580.16,-63.7921 L 1580.48,-63.3919 L 1580.76,-62.96 L 1580.99,-62.5011
 L 1581.18,-62.0204 L 1581.31,-61.5229 L 1581.39,-61.0143 L 1581.42,-60.5 L 1581.39,-59.9857 L 1581.31,-59.4771
 L 1581.18,-58.9796 L 1580.99,-58.4989 L 1580.76,-58.04 L 1580.48,-57.6081 L 1580.16,-57.2079 L 1579.79,-56.8437
 L 1579.39,-56.5196 L 1578.96,-56.2392 L 1578.5,-56.0054 L 1578.02,-55.8208 L 1577.52,-55.6875 L 1577.01,-55.607
 L 1576.5,-55.58 z
M 386.254,-20.2948 L 385.44,-20.4846 L 288.138,-54.2207 L 287.097,-54.7639 L 286.476,-55.3235 L 285.985,-56
 L 285.644,-56.7639 L 285.471,-57.5819 L 285.471,-58.4181 L 285.644,-59.2361 L 285.985,-60 L 286.476,-60.6765
 L 287.097,-61.2361 L 287.822,-61.6542 L 288.617,-61.9126 L 289.449,-62 L 386.75,-62 L 387.986,-61.8042
 L 388.75,-61.4641 L 389.427,-60.9726 L 389.986,-60.3511 L 390.404,-59.627 L 390.663,-58.8316 L 390.75,-58
 L 390.75,-24.2639 L 390.646,-23.3558 L 390.372,-22.5657 L 389.939,-21.8498 L 389.368,-21.2395 L 388.682,-20.7613
 L 387.911,-20.4362 L 387.09,-20.2784 z
M 582.379,-20.2948 L 581.565,-20.4846 L 484.263,-54.2207 L 483.222,-54.7639 L 482.601,-55.3235 L 482.11,-56
 L 481.769,-56.7639 L 481.596,-57.5819 L 481.596,-58.4181 L 481.769,-59.2361 L 482.11,-60 L 482.601,-60.6765
 L 483.222,-61.2361 L 483.947,-61.6542 L 484.742,-61.9126 L 485.574,-62 L 582.875,-62 L 584.111,-61.8042
 L 584.875,-61.4641 L 585.552,-60.9726 L 586.111,-60.3511 L 586.529,-59.627 L 586.788,-58.8316 L 586.875,-58
 L 586.875,-24.2639 L 586.771,-23.3558 L 586.497,-22.5657 L 586.064,-21.8498 L 585.493,-21.2395 L 584.807,-20.7613
 L 584.036,-20.4362 L 583.215,-20.2784 z
M 1392.21,-20.4362 L 1391.44,-20.7613 L 1390.76,-21.2395 L 1390.19,-21.8498 L 1389.75,-22.5657 L 1389.48,-23.3558
 L 1389.38,-24.2639 L 1389.38,-58 L 1389.46,-58.8316 L 1389.72,-59.627 L 1390.14,-60.3511 L 1390.7,-60.9726
 L 1391.38,-61.4641 L 1392.14,-61.8042 L 1393.38,-62 L 1490.68,-62 L 1491.51,-61.9126 L 1492.3,-61.6542
 L 1493.03,-61.2361 L 1493.65,-60.6765 L 1494.14,-60 L 1494.48,-59.2361 L 1494.65,-58.4181 L 1494.65,-57.5819
 L 1494.48,-56.7639 L 1494.14,-56 L 1493.65,-55.3235 L 1493.03,-54.7639 L 1491.99,-54.2207 L 1394.69,-20.4846
 L 1393.87,-20.2948 L 1393.03,-20.2784 z
M 778.504,-20.2948 L 777.69,-20.4846 L 680.388,-54.2207 L 679.347,-54.7639 L 678.726,-55.3235 L 678.235,-56
 L 677.894,-56.7639 L 677.721,-57.5819 L 677.721,-58.4181 L 677.894,-59.2361 L 678.235,-60 L 678.726,-60.6765
 L 679.347,-61.2361 L 680.072,-61.6542 L 680.867,-61.9126 L 681.699,-62 L 779,-62 L 780.236,-61.8042
 L 781,-61.4641 L 781.677,-60.9726 L 782.236,-60.3511 L 782.654,-59.627 L 782.913,-58.8316 L 783,-58
 L 783,-24.2639 L 782.896,-23.3558 L 782.622,-22.5657 L 782.189,-21.8498 L 781.618,-21.2395 L 780.932,-20.7613
 L 780.161,-20.4362 L 779.34,-20.2784 z
M 190.129,-20.2948 L 189.315,-20.4846 L 92.0133,-54.2207 L 90.9725,-54.7639 L 90.351,-55.3235 L 89.8595,-56
 L 89.5194,-56.7639 L 89.3455,-57.5819 L 89.3455,-58.4181 L 89.5194,-59.2361 L 89.8595,-60 L 90.351,-60.6765
 L 90.9725,-61.2361 L 91.6967,-61.6542 L 92.492,-61.9126 L 93.3236,-62 L 190.625,-62 L 191.861,-61.8042
 L 192.625,-61.4641 L 193.302,-60.9726 L 193.861,-60.3511 L 194.279,-59.627 L 194.538,-58.8316 L 194.625,-58
 L 194.625,-24.2639 L 194.521,-23.3558 L 194.247,-22.5657 L 193.814,-21.8498 L 193.243,-21.2395 L 192.557,-20.7613
 L 191.786,-20.4362 L 190.965,-20.2784 z
M 803.839,-20.4362 L 803.068,-20.7613 L 802.382,-21.2395 L 801.811,-21.8498 L 801.378,-22.5657 L 801.104,-23.3558
 L 801,-24.2639 L 801,-58 L 801.087,-58.8316 L 801.346,-59.627 L 801.764,-60.3511 L 802.323,-60.9726
 L 803,-61.4641 L 803.764,-61.8042 L 805,-62 L 902.301,-62 L 903.133,-61.9126 L 903.928,-61.6542
 L 904.653,-61.2361 L 905.274,-60.6765 L 905.765,-60 L 906.106,-59.2361 L 906.279,-58.4181 L 906.279,-57.5819
 L 906.106,-56.7639 L 905.765,-56 L 905.274,-55.3235 L 904.653,-54.7639 L 903.612,-54.2207 L 806.31,-20.4846
 L 805.496,-20.2948 L 804.66,-20.2784 z
M 999.964,-20.4362 L 999.193,-20.7613 L 998.507,-21.2395 L 997.936,-21.8498 L 997.503,-22.5657 L 997.229,-23.3558
 L 997.125,-24.2639 L 997.125,-58 L 997.212,-58.8316 L 997.471,-59.627 L 997.889,-60.3511 L 998.448,-60.9726
 L 999.125,-61.4641 L 999.889,-61.8042 L 1001.12,-62 L 1098.43,-62 L 1099.26,-61.9126 L 1100.05,-61.6542
 L 1100.78,-61.2361 L 1101.4,-60.6765 L 1101.89,-60 L 1102.23,-59.2361 L 1102.4,-58.4181 L 1102.4,-57.5819
 L 1102.23,-56.7639 L 1101.89,-56 L 1101.4,-55.3235 L 1100.78,-54.7639 L 1099.74,-54.2207 L 1002.44,-20.4846
 L 1001.62,-20.2948 L 1000.78,-20.2784 z
M 1196.09,-20.4362 L 1195.32,-20.7613 L 1194.63,-21.2395 L 1194.06,-21.8498 L 1193.63,-22.5657 L 1193.35,-23.3558
 L 1193.25,-24.2639 L 1193.25,-58 L 1193.34,-58.8316 L 1193.6,-59.627 L 1194.01,-60.3511 L 1194.57,-60.9726
 L 1195.25,-61.4641 L 1196.01,-61.8042 L 1197.25,-62 L 1294.55,-62 L 1295.38,-61.9126 L 1296.18,-61.6542
 L 1296.9,-61.2361 L 1297.52,-60.6765 L 1298.02,-60 L 1298.36,-59.2361 L 1298.53,-58.4181 L 1298.53,-57.5819
 L 1298.36,-56.7639 L 1298.02,-56 L 1297.52,-55.3235 L 1296.9,-54.7639 L 1295.86,-54.2207 L 1198.56,-20.4846
 L 1197.75,-20.2948 L 1196.91,-20.2784 z
M 216.625,-18 L 215.389,-18.1958 L 214.625,-18.5359 L 213.948,-19.0274 L 213.389,-19.6489 L 212.971,-20.373
 L 212.712,-21.1684 L 212.625,-22 L 212.625,-55.7361 L 212.729,-56.6442 L 213.003,-57.4343 L 213.436,-58.1502
 L 214.007,-58.7605 L 214.693,-59.2387 L 215.464,-59.5638 L 216.285,-59.7216 L 217.121,-59.7052 L 217.935,-59.5154
 L 315.237,-25.7793 L 316.277,-25.2361 L 316.899,-24.6765 L 317.39,-24 L 317.731,-23.2361 L 317.904,-22.4181
 L 317.904,-21.5819 L 317.731,-20.7639 L 317.39,-20 L 316.899,-19.3235 L 316.277,-18.7639 L 315.553,-18.3458
 L 314.758,-18.0874 L 313.926,-18 z
M 412.75,-18 L 411.514,-18.1958 L 410.75,-18.5359 L 410.073,-19.0274 L 409.514,-19.6489 L 409.096,-20.373
 L 408.837,-21.1684 L 408.75,-22 L 408.75,-55.7361 L 408.854,-56.6442 L 409.128,-57.4343 L 409.561,-58.1502
 L 410.132,-58.7605 L 410.818,-59.2387 L 411.589,-59.5638 L 412.41,-59.7216 L 413.246,-59.7052 L 414.06,-59.5154
 L 511.362,-25.7793 L 512.402,-25.2361 L 513.024,-24.6765 L 513.515,-24 L 513.856,-23.2361 L 514.029,-22.4181
 L 514.029,-21.5819 L 513.856,-20.7639 L 513.515,-20 L 513.024,-19.3235 L 512.402,-18.7639 L 511.678,-18.3458
 L 510.883,-18.0874 L 510.051,-18 z
M 608.875,-18 L 607.639,-18.1958 L 606.875,-18.5359 L 606.198,-19.0274 L 605.639,-19.6489 L 605.221,-20.373
 L 604.962,-21.1684 L 604.875,-22 L 604.875,-55.7361 L 604.979,-56.6442 L 605.253,-57.4343 L 605.686,-58.1502
 L 606.257,-58.7605 L 606.943,-59.2387 L 607.714,-59.5638 L 608.535,-59.7216 L 609.371,-59.7052 L 610.185,-59.5154
 L 707.487,-25.7793 L 708.527,-25.2361 L 709.149,-24.6765 L 709.64,-24 L 709.981,-23.2361 L 710.154,-22.4181
 L 710.154,-21.5819 L 709.981,-20.7639 L 709.64,-20 L 709.149,-19.3235 L 708.527,-18.7639 L 707.803,-18.3458
 L 707.008,-18.0874 L 706.176,-18 z
M 877.824,-18 L 876.992,-18.0874 L 876.197,-18.3458 L 875.473,-18.7639 L 874.851,-19.3235 L 874.36,-20
 L 874.019,-20.7639 L 873.846,-21.5819 L 873.846,-22.4181 L 874.019,-23.2361 L 874.36,-24 L 874.851,-24.6765
 L 875.473,-25.2361 L 876.513,-25.7793 L 973.815,-59.5154 L 974.629,-59.7052 L 975.465,-59.7216 L 976.286,-59.5638
 L 977.057,-59.2387 L 977.743,-58.7605 L 978.314,-58.1502 L 978.747,-57.4343 L 979.021,-56.6442 L 979.125,-55.7361
 L 979.125,-22 L 979.038,-21.1684 L 978.779,-20.373 L 978.361,-19.6489 L 977.802,-19.0274 L 977.125,-18.5359
 L 976.361,-18.1958 L 975.125,-18 z
M 1073.95,-18 L 1073.12,-18.0874 L 1072.32,-18.3458 L 1071.6,-18.7639 L 1070.98,-19.3235 L 1070.48,-20
 L 1070.14,-20.7639 L 1069.97,-21.5819 L 1069.97,-22.4181 L 1070.14,-23.2361 L 1070.48,-24 L 1070.98,-24.6765
 L 1071.6,-25.2361 L 1072.64,-25.7793 L 1169.94,-59.5154 L 1170.75,-59.7052 L 1171.59,-59.7216 L 1172.41,-59.5638
 L 1173.18,-59.2387 L 1173.87,-58.7605 L 1174.44,-58.1502 L 1174.87,-57.4343 L 1175.15,-56.6442 L 1175.25,-55.7361
 L 1175.25,-22 L 1175.16,-21.1684 L 1174.9,-20.373 L 1174.49,-19.6489 L 1173.93,-19.0274 L 1173.25,-18.5359
 L 1172.49,-18.1958 L 1171.25,-18 z
M 1270.07,-18 L 1269.24,-18.0874 L 1268.45,-18.3458 L 1267.72,-18.7639 L 1267.1,-19.3235 L 1266.61,-20
 L 1266.27,-20.7639 L 1266.1,-21.5819 L 1266.1,-22.4181 L 1266.27,-23.2361 L 1266.61,-24 L 1267.1,-24.6765
 L 1267.72,-25.2361 L 1268.76,-25.7793 L 1366.06,-59.5154 L 1366.88,-59.7052 L 1367.72,-59.7216 L 1368.54,-59.5638
 L 1369.31,-59.2387 L 1369.99,-58.7605 L 1370.56,-58.1502 L 1371,-57.4343 L 1371.27,-56.6442 L 1371.38,-55.7361
 L 1371.38,-22 L 1371.29,-21.1684 L 1371.03,-20.373 L 1370.61,-19.6489 L 1370.05,-19.0274 L 1369.38,-18.5359
 L 1368.61,-18.1958 L 1367.38,-18 z
M 1466.2,-18 L 1465.37,-18.0874 L 1464.57,-18.3458 L 1463.85,-18.7639 L 1463.23,-19.3235 L 1462.73,-20
 L 1462.39,-20.7639 L 1462.22,-21.5819 L 1462.22,-22.4181 L 1462.39,-23.2361 L 1462.73,-24 L 1463.23,-24.6765
 L 1463.85,-25.2361 L 1464.89,-25.7793 L 1560.69,-58.9953 L 1561.5,-59.1852 L 1562.34,-59.2015 L 1563.16,-59.0437
 L 1563.93,-58.7186 L 1564.62,-58.2404 L 1565.19,-57.6301 L 1565.62,-56.9142 L 1565.9,-56.1241 L 1566,-55.216
 L 1566,-22 L 1565.91,-21.1684 L 1565.65,-20.373 L 1565.24,-19.6489 L 1564.68,-19.0274 L 1564,-18.5359
 L 1563.24,-18.1958 L 1562,-18 z
M 22,-18 L 20.7639,-18.1958 L 20,-18.5359 L 19.3235,-19.0274 L 18.7639,-19.6489 L 18.3458,-20.373
 L 18.0874,-21.1684 L 18,-22 L 18,-55.216 L 18.1044,-56.1241 L 18.3784,-56.9142 L 18.8106,-57.6301
 L 19.3822,-58.2404 L 20.0682,-58.7186 L 20.8387,-59.0437 L 21.6599,-59.2015 L 22.496,-59.1852 L 23.3103,-58.9953
 L 119.112,-25.7793 L 120.152,-25.2361 L 120.774,-24.6765 L 121.265,-24 L 121.606,-23.2361 L 121.779,-22.4181
 L 121.779,-21.5819 L 121.606,-20.7639 L 121.265,-20 L 120.774,-19.3235 L 120.152,-18.7639 L 119.428,-18.3458
 L 118.633,-18.0874 L 117.801,-18 z
" stroke="black" fill="lightgray" stroke-width="0.5"/>
</svg>
