<?xml version="1.0" standalone="no"?>
<!DOCTYPE svg PUBLIC "-//W3C//DTD SVG 1.1//EN" "http://www.w3.org/Graphics/SVG/1.1/DTD/svg11.dtd">
<svg width="1386mm" height="80mm" viewBox="0 -80 1386 80" xmlns="http://www.w3.org/2000/svg" version="1.1">
<title>OpenSCAD Model</title>
<path d="
M 1386,-80 L 0,-80 L 0,-0 L 4.95,-0 L 4.95,-6 L 5.00572,-6.53017
 L 5.17046,-7.03717 L 5.437,-7.49884 L 5.79372,-7.895 L 6.22499,-8.20836 L 6.71201,-8.42519 L 7.23344,-8.53603
 L 7.76654,-8.53603 L 8.28798,-8.42519 L 8.77499,-8.20836 L 9.20627,-7.895 L 9.56299,-7.49884 L 9.82953,-7.03717
 L 9.99426,-6.53017 L 10.05,-6 L 10.05,-0 L 200.807,-0 L 200.807,-6 L 200.863,-6.53017
 L 201.028,-7.03717 L 201.294,-7.49884 L 201.651,-7.895 L 202.082,-8.20836 L 202.569,-8.42519 L 203.091,-8.53603
 L 203.624,-8.53603 L 204.145,-8.42519 L 204.632,-8.20836 L 205.063,-7.895 L 205.42,-7.49884 L 205.687,-7.03717
 L 205.851,-6.53017 L 205.907,-6 L 205.907,-0 L 396.664,-0 L 396.664,-6 L 396.72,-6.53017
 L 396.885,-7.03717 L 397.151,-7.49884 L 397.508,-7.895 L 397.939,-8.20836 L 398.426,-8.42519 L 398.948,-8.53603
 L 399.481,-8.53603 L 400.002,-8.42519 L 400.489,-8.20836 L 400.921,-7.895 L 401.277,-7.49884 L 401.544,-7.03717
 L 401.709,-6.53017 L 401.764,-6 L 401.764,-0 L 592.521,-0 L 592.521,-6 L 592.577,-6.53017
 L 592.742,-7.03717 L 593.008,-7.49884 L 593.365,-7.895 L 593.796,-8.20836 L 594.283,-8.42519 L 594.805,-8.53603
 L 595.338,-8.53603 L 595.859,-8.42519 L 596.346,-8.20836 L 596.778,-7.895 L 597.134,-7.49884 L 597.401,-7.03717
 L 597.566,-6.53017 L 597.621,-6 L 597.621,-0 L 788.379,-0 L 788.379,-6 L 788.434,-6.53017
 L 788.599,-7.03717 L 788.866,-7.49884 L 789.222,-7.895 L 789.654,-8.20836 L 790.141,-8.42519 L 790.662,-8.53603
 L 791.195,-8.53603 L 791.717,-8.42519 L 792.204,-8.20836 L 792.635,-7.895 L 792.992,-7.49884 L 793.258,-7.03717
 L 793.423,-6.53017 L 793.479,-6 L 793.479,-0 L 984.236,-0 L 984.236,-6 L 984.291,-6.53017
 L 984.456,-7.03717 L 984.723,-7.49884 L 985.079,-7.895 L 985.511,-8.20836 L 985.998,-8.42519 L 986.519,-8.53603
 L 987.052,-8.53603 L 987.574,-8.42519 L 988.061,-8.20836 L 988.492,-7.895 L 988.849,-7.49884 L 989.115,-7.03717
 L 989.28,-6.53017 L 989.336,-6 L 989.336,-0 L 1180.09,-0 L 1180.09,-6 L 1180.15,-6.53017
 L 1180.31,-7.03717 L 1180.58,-7.49884 L 1180.94,-7.895 L 1181.37,-8.20836 L 1181.85,-8.42519 L 1182.38,-8.53603
 L 1182.91,-8.53603 L 1183.43,-8.42519 L 1183.92,-8.20836 L 1184.35,-7.895 L 1184.71,-7.49884 L 1184.97,-7.03717
 L 1185.14,-6.53017 L 1185.19,-6 L 1185.19,-0 L 1375.95,-0 L 1375.95,-6 L 1376.01,-6.53017
 L 1376.17,-7.03717 L 1376.44,-7.49884 L 1376.79,-7.895 L 1377.22,-8.20836 L 1377.71,-8.42519 L 1378.23,-8.53603
 L 1378.77,-8.53603 L 1379.29,-8.42519 L 1379.77,-8.20836 L 1380.21,-7.895 L 1380.56,-7.49884 L 1380.83,-7.03717
 L 1380.99,-6.53017 L 1381.05,-6 L 1381.05,-0 L 1386,-0 z
M 6.98573,-55.607 L 6.47708,-55.6875 L 5.97964,-55.8208 L 5.49887,-56.0054 L 5.04001,-56.2392 L 4.60811,-56.5196
 L 4.20789,-56.8437 L 3.84373,-57.2079 L 3.51964,-57.6081 L 3.23917,-58.04 L 3.00537,-58.4989 L 2.82082,-58.9796
 L 2.68752,-59.4771 L 2.60696,-59.9857 L 2.58,-60.5 L 2.60696,-61.0143 L 2.68752,-61.5229 L 2.82082,-62.0204
 L 3.00537,-62.5011 L 3.23917,-62.96 L 3.51964,-63.3919 L 3.84373,-63.7921 L 4.20789,-64.1563 L 4.60811,-64.4804
 L 4.95001,-64.7024 L 4.95001,-74 L 5.00574,-74.5302 L 5.17047,-75.0372 L 5.43701,-75.4988 L 5.79373,-75.895
 L 6.22501,-76.2084 L 6.71202,-76.4252 L 7.23346,-76.536 L 7.76654,-76.536 L 8.28798,-76.4252 L 8.77499,-76.2084
 L 9.20627,-75.895 L 9.56299,-75.4988 L 9.82953,-75.0372 L 9.99426,-74.5302 L 10.05,-74 L 10.05,-64.7024
 L 10.3919,-64.4804 L 10.7921,-64.1563 L 11.1563,-63.7921 L 11.4804,-63.3919 L 11.7608,-62.96 L 11.9946,-62.5011
 L 12.1792,-62.0204 L 12.3125,-61.5229 L 12.393,-61.0143 L 12.42,-60.5 L 12.393,-59.9857 L 12.3125,-59.4771
 L 12.1792,-58.9796 L 11.9946,-58.4989 L 11.7608,-58.04 L 11.4804,-57.6081 L 11.1563,-57.2079 L 10.7921,-56.8437
 L 10.3919,-56.5196 L 9.95999,-56.2392 L 9.50113,-56.0054 L 9.02036,-55.8208 L 8.52292,-55.6875 L 8.01427,-55.607
 L 7.5,-55.58 z
M 202.843,-55.607 L 202.334,-55.6875 L 201.837,-55.8208 L 201.356,-56.0054 L 200.897,-56.2392 L 200.465,-56.5196
 L 200.065,-56.8437 L 199.701,-57.2079 L 199.377,-57.6081 L 199.096,-58.04 L 198.863,-58.4989 L 198.678,-58.9796
 L 198.545,-59.4771 L 198.464,-59.9857 L 198.437,-60.5 L 198.464,-61.0143 L 198.545,-61.5229 L 198.678,-62.0204
 L 198.863,-62.5011 L 199.096,-62.96 L 199.377,-63.3919 L 199.701,-63.7921 L 200.065,-64.1563 L 200.465,-64.4804
 L 200.807,-64.7024 L 200.807,-74 L 200.863,-74.5302 L 201.028,-75.0372 L 201.294,-75.4988 L 201.651,-75.895
 L 202.082,-76.2084 L 202.569,-76.4252 L 203.091,-76.536 L 203.624,-76.536 L 204.145,-76.4252 L 204.632,-76.2084
 L 205.063,-75.895 L 205.42,-75.4988 L 205.687,-75.0372 L 205.851,-74.5302 L 205.907,-74 L 205.907,-64.7024
 L 206.249,-64.4804 L 206.649,-64.1563 L 207.013,-63.7921 L 207.337,-63.3919 L 207.618,-62.96 L 207.852,-62.5011
 L 208.036,-62.0204 L 208.17,-61.5229 L 208.25,-61.0143 L 208.277,-60.5 L 208.25,-59.9857 L 208.17,-59.4771
 L 208.036,-58.9796 L 207.852,-58.4989 L 207.618,-58.04 L 207.337,-57.6081 L 207.013,-57.2079 L 206.649,-56.8437
 L 206.249,-56.5196 L 205.817,-56.2392 L 205.358,-56.0054 L 204.877,-55.8208 L 204.38,-55.6875 L 203.871,-55.607
 L 203.357,-55.58 z
M 398.7,-55.607 L 398.191,-55.6875 L 397.694,-55.8208 L 397.213,-56.0054 L 396.754,-56.2392 L 396.322,-56.5196
 L 395.922,-56.8437 L 395.558,-57.2079 L 395.234,-57.6081 L 394.953,-58.04 L 394.72,-58.4989 L 394.535,-58.9796
 L 394.402,-59.4771 L 394.321,-59.9857 L 394.294,-60.5 L 394.321,-61.0143 L 394.402,-61.5229 L 394.535,-62.0204
 L 394.72,-62.5011 L 394.953,-62.96 L 395.234,-63.3919 L 395.558,-63.7921 L 395.922,-64.1563 L 396.322,-64.4804
 L 396.664,-64.7024 L 396.664,-74 L 396.72,-74.5302 L 396.885,-75.0372 L 397.151,-75.4988 L 397.508,-75.895
 L 397.939,-76.2084 L 398.426,-76.4252 L 398.948,-76.536 L 399.481,-76.536 L 400.002,-76.4252 L 400.489,-76.2084
 L 400.921,-75.895 L 401.277,-75.4988 L 401.544,-75.0372 L 401.709,-74.5302 L 401.764,-74 L 401.764,-64.7024
 L 402.106,-64.4804 L 402.506,-64.1563 L 402.871,-63.7921 L 403.195,-63.3919 L 403.475,-62.96 L 403.709,-62.5011
 L 403.893,-62.0204 L 404.027,-61.5229 L 404.107,-61.0143 L 404.134,-60.5 L 404.107,-59.9857 L 404.027,-59.4771
 L 403.893,-58.9796 L 403.709,-58.4989 L 403.475,-58.04 L 403.195,-57.6081 L 402.871,-57.2079 L 402.506,-56.8437
 L 402.106,-56.5196 L 401.674,-56.2392 L 401.215,-56.0054 L 400.735,-55.8208 L 400.237,-55.6875 L 399.729,-55.607
 L 399.214,-55.58 z
M 594.557,-55.607 L 594.049,-55.6875 L 593.551,-55.8208 L 593.07,-56.0054 L 592.611,-56.2392 L 592.18,-56.5196
 L 591.779,-56.8437 L 591.415,-57.2079 L 591.091,-57.6081 L 590.811,-58.04 L 590.577,-58.4989 L 590.392,-58.9796
 L 590.259,-59.4771 L 590.178,-59.9857 L 590.151,-60.5 L 590.178,-61.0143 L 590.259,-61.5229 L 590.392,-62.0204
 L 590.577,-62.5011 L 590.811,-62.96 L 591.091,-63.3919 L 591.415,-63.7921 L 591.779,-64.1563 L 592.18,-64.4804
 L 592.521,-64.7024 L 592.521,-74 L 592.577,-74.5302 L 592.742,-75.0372 L 593.008,-75.4988 L 593.365,-75.895
 L 593.796,-76.2084 L 594.283,-76.4252 L 594.805,-76.536 L 595.338,-76.536 L 595.859,-76.4252 L 596.346,-76.2084
 L 596.778,-75.895 L 597.134,-75.4988 L 597.401,-75.0372 L 597.566,-74.5302 L 597.621,-74 L 597.621,-64.7024
 L 597.963,-64.4804 L 598.364,-64.1563 L 598.728,-63.7921 L 599.052,-63.3919 L 599.332,-62.96 L 599.566,-62.5011
 L 599.751,-62.0204 L 599.884,-61.5229 L 599.964,-61.0143 L 599.991,-60.5 L 599.964,-59.9857 L 599.884,-59.4771
 L 599.751,-58.9796 L 599.566,-58.4989 L 599.332,-58.04 L 599.052,-57.6081 L 598.728,-57.2079 L 598.364,-56.8437
 L 597.963,-56.5196 L 597.531,-56.2392 L 597.073,-56.0054 L 596.592,-55.8208 L 596.094,-55.6875 L 595.586,-55.607
 L 595.071,-55.58 z
M 790.414,-55.607 L 789.906,-55.6875 L 789.408,-55.8208 L 788.927,-56.0054 L 788.469,-56.2392 L 788.037,-56.5196
 L 787.636,-56.8437 L 787.272,-57.2079 L 786.948,-57.6081 L 786.668,-58.04 L 786.434,-58.4989 L 786.249,-58.9796
 L 786.116,-59.4771 L 786.036,-59.9857 L 786.009,-60.5 L 786.036,-61.0143 L 786.116,-61.5229 L 786.249,-62.0204
 L 786.434,-62.5011 L 786.668,-62.96 L 786.948,-63.3919 L 787.272,-63.7921 L 787.636,-64.1563 L 788.037,-64.4804
 L 788.379,-64.7024 L 788.379,-74 L 788.434,-74.5302 L 788.599,-75.0372 L 788.866,-75.4988 L 789.222,-75.895
 L 789.654,-76.2084 L 790.141,-76.4252 L 790.662,-76.536 L 791.195,-76.536 L 791.717,-76.4252 L 792.204,-76.2084
 L 792.635,-75.895 L 792.992,-75.4988 L 793.258,-75.0372 L 793.423,-74.5302 L 793.479,-74 L 793.479,-64.7024
 L 793.82,-64.4804 L 794.221,-64.1563 L 794.585,-63.7921 L 794.909,-63.3919 L 795.189,-62.96 L 795.423,-62.5011
 L 795.608,-62.0204 L 795.741,-61.5229 L 795.822,-61.0143 L 795.849,-60.5 L 795.822,-59.9857 L 795.741,-59.4771
 L 795.608,-58.9796 L 795.423,-58.4989 L 795.189,-58.04 L 794.909,-57.6081 L 794.585,-57.2079 L 794.221,-56.8437
 L 793.82,-56.5196 L 793.389,-56.2392 L 792.93,-56.0054 L 792.449,-55.8208 L 791.951,-55.6875 L 791.443,-55.607
 L 790.929,-55.58 z
M 986.271,-55.607 L 985.763,-55.6875 L 985.265,-55.8208 L 984.785,-56.0054 L 984.326,-56.2392 L 983.894,-56.5196
 L 983.494,-56.8437 L 983.129,-57.2079 L 982.805,-57.6081 L 982.525,-58.04 L 982.291,-58.4989 L 982.107,-58.9796
 L 981.973,-59.4771 L 981.893,-59.9857 L 981.866,-60.5 L 981.893,-61.0143 L 981.973,-61.5229 L 982.107,-62.0204
 L 982.291,-62.5011 L 982.525,-62.96 L 982.805,-63.3919 L 983.129,-63.7921 L 983.494,-64.1563 L 983.894,-64.4804
 L 984.236,-64.7024 L 984.236,-74 L 984.291,-74.5302 L 984.456,-75.0372 L 984.723,-75.4988 L 985.079,-75.895
 L 985.511,-76.2084 L 985.998,-76.4252 L 986.519,-76.536 L 987.052,-76.536 L 987.574,-76.4252 L 988.061,-76.2084
 L 988.492,-75.895 L 988.849,-75.4988 L 989.115,-75.0372 L 989.28,-74.5302 L 989.336,-74 L 989.336,-64.7024
 L 989.678,-64.4804 L 990.078,-64.1563 L 990.442,-63.7921 L 990.766,-63.3919 L 991.047,-62.96 L 991.28,-62.5011
 L 991.465,-62.0204 L 991.598,-61.5229 L 991.679,-61.0143 L 991.706,-60.5 L 991.679,-59.9857 L 991.598,-59.4771
 L 991.465,-58.9796 L 991.28,-58.4989 L 991.047,-58.04 L 990.766,-57.6081 L 990.442,-57.2079 L 990.078,-56.8437
 L 989.678,-56.5196 L 989.246,-56.2392 L 988.787,-56.0054 L 988.306,-55.8208 L 987.809,-55.6875 L 987.3,-55.607
 L 986.786,-55.58 z
M 1182.13,-55.607 L 1181.62,-55.6875 L 1181.12,-55.8208 L 1180.64,-56.0054 L 1180.18,-56.2392 L 1179.75,-56.5196
 L 1179.35,-56.8437 L 1178.99,-57.2079 L 1178.66,-57.6081 L 1178.38,-58.04 L 1178.15,-58.4989 L 1177.96,-58.9796
 L 1177.83,-59.4771 L 1177.75,-59.9857 L 1177.72,-60.5 L 1177.75,-61.0143 L 1177.83,-61.5229 L 1177.96,-62.0204
 L 1178.15,-62.5011 L 1178.38,-62.96 L 1178.66,-63.3919 L 1178.99,-63.7921 L 1179.35,-64.1563 L 1179.75,-64.4804
 L 1180.09,-64.7024 L 1180.09,-74 L 1180.15,-74.5302 L 1180.31,-75.0372 L 1180.58,-75.4988 L 1180.94,-75.895
 L 1181.37,-76.2084 L 1181.85,-76.4252 L 1182.38,-76.536 L 1182.91,-76.536 L 1183.43,-76.4252 L 1183.92,-76.2084
 L 1184.35,-75.895 L 1184.71,-75.4988 L 1184.97,-75.0372 L 1185.14,-74.5302 L 1185.19,-74 L 1185.19,-64.7024
 L 1185.53,-64.4804 L 1185.93,-64.1563 L 1186.3,-63.7921 L 1186.62,-63.3919 L 1186.9,-62.96 L 1187.14,-62.5011
 L 1187.32,-62.0204 L 1187.46,-61.5229 L 1187.54,-61.0143 L 1187.56,-60.5 L 1187.54,-59.9857 L 1187.46,-59.4771
 L 1187.32,-58.9796 L 1187.14,-58.4989 L 1186.9,-58.04 L 1186.62,-57.6081 L 1186.3,-57.2079 L 1185.93,-56.8437
 L 1185.53,-56.5196 L 1185.1,-56.2392 L 1184.64,-56.0054 L 1184.16,-55.8208 L 1183.67,-55.6875 L 1183.16,-55.607
 L 1182.64,-55.58 z
M 1377.99,-55.607 L 1377.48,-55.6875 L 1376.98,-55.8208 L 1376.5,-56.0054 L 1376.04,-56.2392 L 1375.61,-56.5196
 L 1375.21,-56.8437 L 1374.84,-57.2079 L 1374.52,-57.6081 L 1374.24,-58.04 L 1374.01,-58.4989 L 1373.82,-58.9796
 L 1373.69,-59.4771 L 1373.61,-59.9857 L 1373.58,-60.5 L 1373.61,-61.0143 L 1373.69,-61.5229 L 1373.82,-62.0204
 L 1374.01,-62.5011 L 1374.24,-62.96 L 1374.52,-63.3919 L 1374.84,-63.7921 L 1375.21,-64.1563 L 1375.61,-64.4804
 L 1375.95,-64.7024 L 1375.95,-74 L 1376.01,-74.5302 L 1376.17,-75.0372 L 1376.44,-75.4988 L 1376.79,-75.895
 L 1377.23,-76.2084 L 1377.71,-76.4252 L 1378.23,-76.536 L 1378.77,-76.536 L 1379.29,-76.4252 L 1379.77,-76.2084
 L 1380.21,-75.895 L 1380.56,-75.4988 L 1380.83,-75.0372 L 1380.99,-74.5302 L 1381.05,-74 L 1381.05,-64.7024
 L 1381.39,-64.4804 L 1381.79,-64.1563 L 1382.16,-63.7921 L 1382.48,-63.3919 L 1382.76,-62.96 L 1382.99,-62.5011
 L 1383.18,-62.0204 L 1383.31,-61.5229 L 1383.39,-61.0143 L 1383.42,-60.5 L 1383.39,-59.9857 L 1383.31,-59.4771
 L 1383.18,-58.9796 L 1382.99,-58.4989 L 1382.76,-58.04 L 1382.48,-57.6081 L 1382.16,-57.2079 L 1381.79,-56.8437
 L 1381.39,-56.5196 L 1380.96,-56.2392 L 1380.5,-56.0054 L 1380.02,-55.8208 L 1379.52,-55.6875 L 1379.01,-55.607
 L 1378.5,-55.58 z
M 802.769,-20.4438 L 801.998,-20.7685 L 801.312,-21.2464 L 800.74,-21.8566 L 800.308,-22.5722 L 800.033,-23.3622
 L 799.929,-24.272 L 799.929,-58 L 800.016,-58.8316 L 800.274,-59.627 L 800.693,-60.3511 L 801.252,-60.9726
 L 801.929,-61.4641 L 802.693,-61.8042 L 803.929,-62 L 901.074,-62 L 901.905,-61.9126 L 902.701,-61.6542
 L 903.425,-61.2361 L 904.046,-60.6765 L 904.538,-60 L 904.878,-59.2361 L 905.052,-58.4181 L 905.052,-57.5819
 L 904.878,-56.7639 L 904.538,-56 L 904.046,-55.3235 L 903.425,-54.7639 L 902.386,-54.2213 L 805.241,-20.4932
 L 804.426,-20.3031 L 803.59,-20.2863 z
M 692.502,-47.6729 L 691.688,-47.8631 L 673.375,-54.2213 L 672.336,-54.7639 L 671.714,-55.3235 L 671.223,-56
 L 670.882,-56.7639 L 670.709,-57.5819 L 670.709,-58.4181 L 670.882,-59.2361 L 671.223,-60 L 671.714,-60.6765
 L 672.336,-61.2361 L 673.06,-61.6542 L 673.855,-61.9126 L 674.687,-62 L 711.313,-62 L 712.473,-61.8282
 L 713.244,-61.5034 L 713.93,-61.0255 L 714.502,-60.4154 L 714.934,-59.6997 L 715.208,-58.9098 L 715.312,-58.08
 L 715.242,-57.2468 L 714.999,-56.4465 L 714.596,-55.7141 L 714.049,-55.0816 L 713.382,-54.5766 L 712.625,-54.2213
 L 694.312,-47.8631 L 693.338,-47.6561 z
M 581.574,-20.3031 L 580.759,-20.4932 L 483.614,-54.2213 L 482.575,-54.7639 L 481.954,-55.3235 L 481.462,-56
 L 481.122,-56.7639 L 480.948,-57.5819 L 480.948,-58.4181 L 481.122,-59.2361 L 481.462,-60 L 481.954,-60.6765
 L 482.575,-61.2361 L 483.299,-61.6542 L 484.095,-61.9126 L 484.926,-62 L 582.071,-62 L 583.307,-61.8042
 L 584.071,-61.4641 L 584.748,-60.9726 L 585.307,-60.3511 L 585.726,-59.627 L 585.984,-58.8316 L 586.071,-58
 L 586.071,-24.272 L 585.967,-23.3622 L 585.692,-22.5722 L 585.26,-21.8566 L 584.688,-21.2464 L 584.002,-20.7685
 L 583.231,-20.4438 L 582.41,-20.2863 z
M 385.717,-20.3031 L 384.902,-20.4932 L 287.757,-54.2213 L 286.718,-54.7639 L 286.096,-55.3235 L 285.605,-56
 L 285.265,-56.7639 L 285.091,-57.5819 L 285.091,-58.4181 L 285.265,-59.2361 L 285.605,-60 L 286.096,-60.6765
 L 286.718,-61.2361 L 287.442,-61.6542 L 288.237,-61.9126 L 289.069,-62 L 386.214,-62 L 387.45,-61.8042
 L 388.214,-61.4641 L 388.891,-60.9726 L 389.45,-60.3511 L 389.868,-59.627 L 390.127,-58.8316 L 390.214,-58
 L 390.214,-24.272 L 390.109,-23.3622 L 389.835,-22.5722 L 389.403,-21.8566 L 388.831,-21.2464 L 388.145,-20.7685
 L 387.374,-20.4438 L 386.553,-20.2863 z
M 1194.48,-20.4438 L 1193.71,-20.7685 L 1193.03,-21.2464 L 1192.45,-21.8566 L 1192.02,-22.5722 L 1191.75,-23.3622
 L 1191.64,-24.272 L 1191.64,-58 L 1191.73,-58.8316 L 1191.99,-59.627 L 1192.41,-60.3511 L 1192.97,-60.9726
 L 1193.64,-61.4641 L 1194.41,-61.8042 L 1195.64,-62 L 1292.79,-62 L 1293.62,-61.9126 L 1294.42,-61.6542
 L 1295.14,-61.2361 L 1295.76,-60.6765 L 1296.25,-60 L 1296.59,-59.2361 L 1296.77,-58.4181 L 1296.77,-57.5819
 L 1296.59,-56.7639 L 1296.25,-56 L 1295.76,-55.3235 L 1295.14,-54.7639 L 1294.1,-54.2213 L 1196.95,-20.4932
 L 1196.14,-20.3031 L 1195.3,-20.2863 z
M 189.859,-20.3031 L 189.045,-20.4932 L 91.8999,-54.2213 L 90.8607,-54.7639 L 90.2393,-55.3235 L 89.7478,-56
 L 89.4077,-56.7639 L 89.2338,-57.5819 L 89.2338,-58.4181 L 89.4077,-59.2361 L 89.7478,-60 L 90.2393,-60.6765
 L 90.8607,-61.2361 L 91.5849,-61.6542 L 92.3802,-61.9126 L 93.2119,-62 L 190.357,-62 L 191.593,-61.8042
 L 192.357,-61.4641 L 193.034,-60.9726 L 193.593,-60.3511 L 194.011,-59.627 L 194.27,-58.8316 L 194.357,-58
 L 194.357,-24.272 L 194.252,-23.3622 L 193.978,-22.5722 L 193.546,-21.8566 L 192.974,-21.2464 L 192.287,-20.7685
 L 191.517,-20.4438 L 190.696,-20.2863 z
M 998.626,-20.4438 L 997.855,-20.7685 L 997.169,-21.2464 L 996.597,-21.8566 L 996.165,-22.5722 L 995.891,-23.3622
 L 995.786,-24.272 L 995.786,-58 L 995.873,-58.8316 L 996.132,-59.627 L 996.55,-60.3511 L 997.109,-60.9726
 L 997.786,-61.4641 L 998.55,-61.8042 L 999.786,-62 L 1096.93,-62 L 1097.76,-61.9126 L 1098.56,-61.6542
 L 1099.28,-61.2361 L 1099.9,-60.6765 L 1100.4,-60 L 1100.74,-59.2361 L 1100.91,-58.4181 L 1100.91,-57.5819
 L 1100.74,-56.7639 L 1100.4,-56 L 1099.9,-55.3235 L 1099.28,-54.7639 L 1098.24,-54.2213 L 1001.1,-20.4932
 L 1000.28,-20.3031 L 999.447,-20.2863 z
M 607.653,-18.1772 L 606.835,-18.3511 L 606.071,-18.6912 L 605.395,-19.1827 L 604.835,-19.8042 L 604.417,-20.5283
 L 604.159,-21.3236 L 604.071,-22.1553 L 604.071,-57.8447 L 604.176,-58.7545 L 604.451,-59.5444 L 604.883,-60.2601
 L 605.455,-60.8703 L 606.141,-61.3481 L 606.912,-61.6729 L 607.733,-61.8304 L 608.569,-61.8136 L 609.383,-61.6234
 L 660.781,-43.7787 L 661.399,-43.5034 L 662.085,-43.0255 L 662.657,-42.4154 L 663.09,-41.6997 L 663.364,-40.9098
 L 663.468,-40.08 L 663.397,-39.2468 L 663.155,-38.4465 L 662.751,-37.7141 L 662.204,-37.0816 L 661.538,-36.5766
 L 660.781,-36.2213 L 609.383,-18.3766 L 608.49,-18.1772 z
M 777.431,-18.1864 L 776.617,-18.3765 L 725.219,-36.2213 L 724.601,-36.4966 L 723.915,-36.9745 L 723.343,-37.5846
 L 722.91,-38.3003 L 722.636,-39.0902 L 722.532,-39.92 L 722.603,-40.7532 L 722.845,-41.5535 L 723.249,-42.2859
 L 723.796,-42.9184 L 724.462,-43.4234 L 725.219,-43.7787 L 776.617,-61.6235 L 777.51,-61.8228 L 778.347,-61.8228
 L 779.165,-61.649 L 779.929,-61.3088 L 780.605,-60.8173 L 781.165,-60.1959 L 781.583,-59.4717 L 781.841,-58.6764
 L 781.929,-57.8447 L 781.929,-22.1553 L 781.824,-21.2455 L 781.549,-20.4555 L 781.117,-19.7399 L 780.545,-19.1297
 L 779.859,-18.6518 L 779.088,-18.3271 L 778.267,-18.1696 z
M 216.357,-18 L 215.121,-18.1958 L 214.357,-18.5359 L 213.681,-19.0274 L 213.121,-19.6489 L 212.703,-20.373
 L 212.445,-21.1684 L 212.357,-22 L 212.357,-55.728 L 212.462,-56.6378 L 212.736,-57.4278 L 213.169,-58.1434
 L 213.741,-58.7536 L 214.427,-59.2315 L 215.197,-59.5562 L 216.019,-59.7137 L 216.855,-59.6969 L 217.669,-59.5068
 L 314.814,-25.7787 L 315.854,-25.2361 L 316.475,-24.6765 L 316.966,-24 L 317.307,-23.2361 L 317.48,-22.4181
 L 317.48,-21.5819 L 317.307,-20.7639 L 316.966,-20 L 316.475,-19.3235 L 315.854,-18.7639 L 315.129,-18.3458
 L 314.334,-18.0874 L 313.502,-18 z
M 412.214,-18 L 410.978,-18.1958 L 410.214,-18.5359 L 409.538,-19.0274 L 408.978,-19.6489 L 408.56,-20.373
 L 408.302,-21.1684 L 408.214,-22 L 408.214,-55.728 L 408.319,-56.6378 L 408.593,-57.4278 L 409.026,-58.1434
 L 409.598,-58.7536 L 410.284,-59.2315 L 411.055,-59.5562 L 411.876,-59.7137 L 412.712,-59.6969 L 413.526,-59.5068
 L 510.671,-25.7787 L 511.711,-25.2361 L 512.332,-24.6765 L 512.824,-24 L 513.164,-23.2361 L 513.338,-22.4181
 L 513.338,-21.5819 L 513.164,-20.7639 L 512.824,-20 L 512.332,-19.3235 L 511.711,-18.7639 L 510.986,-18.3458
 L 510.191,-18.0874 L 509.36,-18 z
M 876.64,-18 L 875.809,-18.0874 L 875.014,-18.3458 L 874.289,-18.7639 L 873.668,-19.3235 L 873.176,-20
 L 872.836,-20.7639 L 872.662,-21.5819 L 872.662,-22.4181 L 872.836,-23.2361 L 873.176,-24 L 873.668,-24.6765
 L 874.289,-25.2361 L 875.329,-25.7787 L 972.474,-59.5068 L 973.288,-59.6969 L 974.124,-59.7137 L 974.945,-59.5562
 L 975.716,-59.2315 L 976.402,-58.7536 L 976.974,-58.1434 L 977.407,-57.4278 L 977.681,-56.6378 L 977.786,-55.728
 L 977.786,-22 L 977.698,-21.1684 L 977.44,-20.373 L 977.022,-19.6489 L 976.462,-19.0274 L 975.786,-18.5359
 L 975.022,-18.1958 L 973.786,-18 z
M 1072.5,-18 L 1071.67,-18.0874 L 1070.87,-18.3458 L 1070.15,-18.7639 L 1069.53,-19.3235 L 1069.03,-20
 L 1068.69,-20.7639 L 1068.52,-21.5819 L 1068.52,-22.4181 L 1068.69,-23.2361 L 1069.03,-24 L 1069.53,-24.6765
 L 1070.15,-25.2361 L 1071.19,-25.7787 L 1168.33,-59.5068 L 1169.15,-59.6969 L 1169.98,-59.7137 L 1170.8,-59.5562
 L 1171.57,-59.2315 L 1172.26,-58.7536 L 1172.83,-58.1434 L 1173.26,-57.4278 L 1173.54,-56.6378 L 1173.64,-55.728
 L 1173.64,-22 L 1173.56,-21.1684 L 1173.3,-20.373 L 1172.88,-19.6489 L 1172.32,-19.0274 L 1171.64,-18.5359
 L 1170.88,-18.1958 L 1169.64,-18 z
M 22,-18 L 20.7639,-18.1958 L 20,-18.5359 L 19.3235,-19.0274 L 18.7639,-19.6489 L 18.3458,-20.373
 L 18.0874,-21.1684 L 18,-22 L 18,-55.2072 L 18.1048,-56.117 L 18.3791,-56.907 L 18.8116,-57.6227
 L 19.3835,-58.2328 L 20.0697,-58.7107 L 20.8403,-59.0354 L 21.6616,-59.1929 L 22.4976,-59.1762 L 23.312,-58.986
 L 118.957,-25.7787 L 119.996,-25.2361 L 120.618,-24.6765 L 121.109,-24 L 121.449,-23.2361 L 121.623,-22.4181
 L 121.623,-21.5819 L 121.449,-20.7639 L 121.109,-20 L 120.618,-19.3235 L 119.996,-18.7639 L 119.272,-18.3458
 L 118.477,-18.0874 L 117.645,-18 z
M 1268.35,-18 L 1267.52,-18.0874 L 1266.73,-18.3458 L 1266,-18.7639 L 1265.38,-19.3235 L 1264.89,-20
 L 1264.55,-20.7639 L 1264.38,-21.5819 L 1264.38,-22.4181 L 1264.55,-23.2361 L 1264.89,-24 L 1265.38,-24.6765
 L 1266,-25.2361 L 1267.04,-25.7787 L 1362.69,-58.986 L 1363.5,-59.1762 L 1364.34,-59.1929 L 1365.16,-59.0354
 L 1365.93,-58.7107 L 1366.62,-58.2328 L 1367.19,-57.6227 L 1367.62,-56.907 L 1367.9,-56.117 L 1368,-55.2072
 L 1368,-22 L 1367.91,-21.1684 L 1367.65,-20.373 L 1367.24,-19.6489 L 1366.68,-19.0274 L 1366,-18.5359
 L 1365.24,-18.1958 L 1364,-18 z
M 674.687,-18 L 673.527,-18.1718 L 672.756,-18.4966 L 672.07,-18.9745 L 671.498,-19.5846 L 671.066,-20.3003
 L 670.792,-21.0902 L 670.688,-21.92 L 670.758,-22.7532 L 671.001,-23.5535 L 671.404,-24.2859 L 671.951,-24.9184
 L 672.618,-25.4234 L 673.375,-25.7787 L 691.688,-32.1369 L 692.662,-32.3439 L 693.498,-32.3271 L 694.312,-32.1369
 L 712.625,-25.7787 L 713.664,-25.2361 L 714.286,-24.6765 L 714.777,-24 L 715.117,-23.2361 L 715.291,-22.4181
 L 715.291,-21.5819 L 715.117,-20.7639 L 714.777,-20 L 714.286,-19.3235 L 713.664,-18.7639 L 712.94,-18.3458
 L 712.145,-18.0874 L 711.313,-18 z
" stroke="black" fill="lightgray" stroke-width="0.5"/>
</svg>
