<?xml version="1.0" standalone="no"?>
<!DOCTYPE svg PUBLIC "-//W3C//DTD SVG 1.1//EN" "http://www.w3.org/Graphics/SVG/1.1/DTD/svg11.dtd">
<svg width="1226mm" height="80mm" viewBox="0 -80 1226 80" xmlns="http://www.w3.org/2000/svg" version="1.1">
<title>OpenSCAD Model</title>
<path d="
M 1226,-80 L 0,-80 L 0,-0 L 4.95,-0 L 4.95,-6 L 5.00572,-6.53017
 L 5.17046,-7.03717 L 5.437,-7.49884 L 5.79372,-7.895 L 6.22499,-8.20836 L 6.71201,-8.42519 L 7.23344,-8.53603
 L 7.76654,-8.53603 L 8.28798,-8.42519 L 8.77499,-8.20836 L 9.20627,-7.895 L 9.56299,-7.49884 L 9.82953,-7.03717
 L 9.99426,-6.53017 L 10.05,-6 L 10.05,-0 L 177.95,-0 L 177.95,-6 L 178.006,-6.53017
 L 178.17,-7.03717 L 178.437,-7.49884 L 178.794,-7.895 L 179.225,-8.20836 L 179.712,-8.42519 L 180.233,-8.53603
 L 180.767,-8.53603 L 181.288,-8.42519 L 181.775,-8.20836 L 182.206,-7.895 L 182.563,-7.49884 L 182.83,-7.03717
 L 182.994,-6.53017 L 183.05,-6 L 183.05,-0 L 350.95,-0 L 350.95,-6 L 351.006,-6.53017
 L 351.17,-7.03717 L 351.437,-7.49884 L 351.794,-7.895 L 352.225,-8.20836 L 352.712,-8.42519 L 353.233,-8.53603
 L 353.767,-8.53603 L 354.288,-8.42519 L 354.775,-8.20836 L 355.206,-7.895 L 355.563,-7.49884 L 355.83,-7.03717
 L 355.994,-6.53017 L 356.05,-6 L 356.05,-0 L 523.95,-0 L 523.95,-6 L 524.006,-6.53017
 L 524.17,-7.03717 L 524.437,-7.49884 L 524.794,-7.895 L 525.225,-8.20836 L 525.712,-8.42519 L 526.233,-8.53603
 L 526.767,-8.53603 L 527.288,-8.42519 L 527.775,-8.20836 L 528.206,-7.895 L 528.563,-7.49884 L 528.83,-7.03717
 L 528.994,-6.53017 L 529.05,-6 L 529.05,-0 L 696.95,-0 L 696.95,-6 L 697.006,-6.53017
 L 697.17,-7.03717 L 697.437,-7.49884 L 697.794,-7.895 L 698.225,-8.20836 L 698.712,-8.42519 L 699.233,-8.53603
 L 699.767,-8.53603 L 700.288,-8.42519 L 700.775,-8.20836 L 701.206,-7.895 L 701.563,-7.49884 L 701.83,-7.03717
 L 701.994,-6.53017 L 702.05,-6 L 702.05,-0 L 869.95,-0 L 869.95,-6 L 870.006,-6.53017
 L 870.17,-7.03717 L 870.437,-7.49884 L 870.794,-7.895 L 871.225,-8.20836 L 871.712,-8.42519 L 872.233,-8.53603
 L 872.767,-8.53603 L 873.288,-8.42519 L 873.775,-8.20836 L 874.206,-7.895 L 874.563,-7.49884 L 874.83,-7.03717
 L 874.994,-6.53017 L 875.05,-6 L 875.05,-0 L 1042.95,-0 L 1042.95,-6 L 1043.01,-6.53017
 L 1043.17,-7.03717 L 1043.44,-7.49884 L 1043.79,-7.895 L 1044.22,-8.20836 L 1044.71,-8.42519 L 1045.23,-8.53603
 L 1045.77,-8.53603 L 1046.29,-8.42519 L 1046.77,-8.20836 L 1047.21,-7.895 L 1047.56,-7.49884 L 1047.83,-7.03717
 L 1047.99,-6.53017 L 1048.05,-6 L 1048.05,-0 L 1215.95,-0 L 1215.95,-6 L 1216.01,-6.53017
 L 1216.17,-7.03717 L 1216.44,-7.49884 L 1216.79,-7.895 L 1217.22,-8.20836 L 1217.71,-8.42519 L 1218.23,-8.53603
 L 1218.77,-8.53603 L 1219.29,-8.42519 L 1219.77,-8.20836 L 1220.21,-7.895 L 1220.56,-7.49884 L 1220.83,-7.03717
 L 1220.99,-6.53017 L 1221.05,-6 L 1221.05,-0 L 1226,-0 z
M 6.98573,-55.607 L 6.47708,-55.6875 L 5.97964,-55.8208 L 5.49887,-56.0054 L 5.04001,-56.2392 L 4.60811,-56.5196
 L 4.20789,-56.8437 L 3.84373,-57.2079 L 3.51964,-57.6081 L 3.23917,-58.04 L 3.00537,-58.4989 L 2.82082,-58.9796
 L 2.68752,-59.4771 L 2.60696,-59.9857 L 2.58,-60.5 L 2.60696,-61.0143 L 2.68752,-61.5229 L 2.82082,-62.0204
 L 3.00537,-62.5011 L 3.23917,-62.96 L 3.51964,-63.3919 L 3.84373,-63.7921 L 4.20789,-64.1563 L 4.60811,-64.4804
 L 4.95001,-64.7024 L 4.95001,-74 L 5.00574,-74.5302 L 5.17047,-75.0372 L 5.43701,-75.4988 L 5.79373,-75.895
 L 6.22501,-76.2084 L 6.71202,-76.4252 L 7.23346,-76.536 L 7.76654,-76.536 L 8.28798,-76.4252 L 8.77499,-76.2084
 L 9.20627,-75.895 L 9.56299,-75.4988 L 9.82953,-75.0372 L 9.99426,-74.5302 L 10.05,-74 L 10.05,-64.7024
 L 10.3919,-64.4804 L 10.7921,-64.1563 L 11.1563,-63.7921 L 11.4804,-63.3919 L 11.7608,-62.96 L 11.9946,-62.5011
 L 12.1792,-62.0204 L 12.3125,-61.5229 L 12.393,-61.0143 L 12.42,-60.5 L 12.393,-59.9857 L 12.3125,-59.4771
 L 12.1792,-58.9796 L 11.9946,-58.4989 L 11.7608,-58.04 L 11.4804,-57.6081 L 11.1563,-57.2079 L 10.7921,-56.8437
 L 10.3919,-56.5196 L 9.95999,-56.2392 L 9.50113,-56.0054 L 9.02036,-55.8208 L 8.52292,-55.6875 L 8.01427,-55.607
 L 7.5,-55.58 z
M 179.986,-55.607 L 179.477,-55.6875 L 178.98,-55.8208 L 178.499,-56.0054 L 178.04,-56.2392 L 177.608,-56.5196
 L 177.208,-56.8437 L 176.844,-57.2079 L 176.52,-57.6081 L 176.239,-58.04 L 176.005,-58.4989 L 175.821,-58.9796
 L 175.688,-59.4771 L 175.607,-59.9857 L 175.58,-60.5 L 175.607,-61.0143 L 175.688,-61.5229 L 175.821,-62.0204
 L 176.005,-62.5011 L 176.239,-62.96 L 176.52,-63.3919 L 176.844,-63.7921 L 177.208,-64.1563 L 177.608,-64.4804
 L 177.95,-64.7024 L 177.95,-74 L 178.006,-74.5302 L 178.17,-75.0372 L 178.437,-75.4988 L 178.794,-75.895
 L 179.225,-76.2084 L 179.712,-76.4252 L 180.233,-76.536 L 180.767,-76.536 L 181.288,-76.4252 L 181.775,-76.2084
 L 182.206,-75.895 L 182.563,-75.4988 L 182.83,-75.0372 L 182.994,-74.5302 L 183.05,-74 L 183.05,-64.7024
 L 183.392,-64.4804 L 183.792,-64.1563 L 184.156,-63.7921 L 184.48,-63.3919 L 184.761,-62.96 L 184.995,-62.5011
 L 185.179,-62.0204 L 185.312,-61.5229 L 185.393,-61.0143 L 185.42,-60.5 L 185.393,-59.9857 L 185.312,-59.4771
 L 185.179,-58.9796 L 184.995,-58.4989 L 184.761,-58.04 L 184.48,-57.6081 L 184.156,-57.2079 L 183.792,-56.8437
 L 183.392,-56.5196 L 182.96,-56.2392 L 182.501,-56.0054 L 182.02,-55.8208 L 181.523,-55.6875 L 181.014,-55.607
 L 180.5,-55.58 z
M 352.986,-55.607 L 352.477,-55.6875 L 351.98,-55.8208 L 351.499,-56.0054 L 351.04,-56.2392 L 350.608,-56.5196
 L 350.208,-56.8437 L 349.844,-57.2079 L 349.52,-57.6081 L 349.239,-58.04 L 349.005,-58.4989 L 348.821,-58.9796
 L 348.688,-59.4771 L 348.607,-59.9857 L 348.58,-60.5 L 348.607,-61.0143 L 348.688,-61.5229 L 348.821,-62.0204
 L 349.005,-62.5011 L 349.239,-62.96 L 349.52,-63.3919 L 349.844,-63.7921 L 350.208,-64.1563 L 350.608,-64.4804
 L 350.95,-64.7024 L 350.95,-74 L 351.006,-74.5302 L 351.17,-75.0372 L 351.437,-75.4988 L 351.794,-75.895
 L 352.225,-76.2084 L 352.712,-76.4252 L 353.233,-76.536 L 353.767,-76.536 L 354.288,-76.4252 L 354.775,-76.2084
 L 355.206,-75.895 L 355.563,-75.4988 L 355.83,-75.0372 L 355.994,-74.5302 L 356.05,-74 L 356.05,-64.7024
 L 356.392,-64.4804 L 356.792,-64.1563 L 357.156,-63.7921 L 357.48,-63.3919 L 357.761,-62.96 L 357.995,-62.5011
 L 358.179,-62.0204 L 358.312,-61.5229 L 358.393,-61.0143 L 358.42,-60.5 L 358.393,-59.9857 L 358.312,-59.4771
 L 358.179,-58.9796 L 357.995,-58.4989 L 357.761,-58.04 L 357.48,-57.6081 L 357.156,-57.2079 L 356.792,-56.8437
 L 356.392,-56.5196 L 355.96,-56.2392 L 355.501,-56.0054 L 355.02,-55.8208 L 354.523,-55.6875 L 354.014,-55.607
 L 353.5,-55.58 z
M 525.986,-55.607 L 525.477,-55.6875 L 524.98,-55.8208 L 524.499,-56.0054 L 524.04,-56.2392 L 523.608,-56.5196
 L 523.208,-56.8437 L 522.844,-57.2079 L 522.52,-57.6081 L 522.239,-58.04 L 522.005,-58.4989 L 521.821,-58.9796
 L 521.688,-59.4771 L 521.607,-59.9857 L 521.58,-60.5 L 521.607,-61.0143 L 521.688,-61.5229 L 521.821,-62.0204
 L 522.005,-62.5011 L 522.239,-62.96 L 522.52,-63.3919 L 522.844,-63.7921 L 523.208,-64.1563 L 523.608,-64.4804
 L 523.95,-64.7024 L 523.95,-74 L 524.006,-74.5302 L 524.17,-75.0372 L 524.437,-75.4988 L 524.794,-75.895
 L 525.225,-76.2084 L 525.712,-76.4252 L 526.233,-76.536 L 526.767,-76.536 L 527.288,-76.4252 L 527.775,-76.2084
 L 528.206,-75.895 L 528.563,-75.4988 L 528.83,-75.0372 L 528.994,-74.5302 L 529.05,-74 L 529.05,-64.7024
 L 529.392,-64.4804 L 529.792,-64.1563 L 530.156,-63.7921 L 530.48,-63.3919 L 530.761,-62.96 L 530.995,-62.5011
 L 531.179,-62.0204 L 531.312,-61.5229 L 531.393,-61.0143 L 531.42,-60.5 L 531.393,-59.9857 L 531.312,-59.4771
 L 531.179,-58.9796 L 530.995,-58.4989 L 530.761,-58.04 L 530.48,-57.6081 L 530.156,-57.2079 L 529.792,-56.8437
 L 529.392,-56.5196 L 528.96,-56.2392 L 528.501,-56.0054 L 528.02,-55.8208 L 527.523,-55.6875 L 527.014,-55.607
 L 526.5,-55.58 z
M 698.986,-55.607 L 698.477,-55.6875 L 697.98,-55.8208 L 697.499,-56.0054 L 697.04,-56.2392 L 696.608,-56.5196
 L 696.208,-56.8437 L 695.844,-57.2079 L 695.52,-57.6081 L 695.239,-58.04 L 695.005,-58.4989 L 694.821,-58.9796
 L 694.688,-59.4771 L 694.607,-59.9857 L 694.58,-60.5 L 694.607,-61.0143 L 694.688,-61.5229 L 694.821,-62.0204
 L 695.005,-62.5011 L 695.239,-62.96 L 695.52,-63.3919 L 695.844,-63.7921 L 696.208,-64.1563 L 696.608,-64.4804
 L 696.95,-64.7024 L 696.95,-74 L 697.006,-74.5302 L 697.17,-75.0372 L 697.437,-75.4988 L 697.794,-75.895
 L 698.225,-76.2084 L 698.712,-76.4252 L 699.233,-76.536 L 699.767,-76.536 L 700.288,-76.4252 L 700.775,-76.2084
 L 701.206,-75.895 L 701.563,-75.4988 L 701.83,-75.0372 L 701.994,-74.5302 L 702.05,-74 L 702.05,-64.7024
 L 702.392,-64.4804 L 702.792,-64.1563 L 703.156,-63.7921 L 703.48,-63.3919 L 703.761,-62.96 L 703.995,-62.5011
 L 704.179,-62.0204 L 704.312,-61.5229 L 704.393,-61.0143 L 704.42,-60.5 L 704.393,-59.9857 L 704.312,-59.4771
 L 704.179,-58.9796 L 703.995,-58.4989 L 703.761,-58.04 L 703.48,-57.6081 L 703.156,-57.2079 L 702.792,-56.8437
 L 702.392,-56.5196 L 701.96,-56.2392 L 701.501,-56.0054 L 701.02,-55.8208 L 700.523,-55.6875 L 700.014,-55.607
 L 699.5,-55.58 z
M 871.986,-55.607 L 871.477,-55.6875 L 870.98,-55.8208 L 870.499,-56.0054 L 870.04,-56.2392 L 869.608,-56.5196
 L 869.208,-56.8437 L 868.844,-57.2079 L 868.52,-57.6081 L 868.239,-58.04 L 868.005,-58.4989 L 867.821,-58.9796
 L 867.688,-59.4771 L 867.607,-59.9857 L 867.58,-60.5 L 867.607,-61.0143 L 867.688,-61.5229 L 867.821,-62.0204
 L 868.005,-62.5011 L 868.239,-62.96 L 868.52,-63.3919 L 868.844,-63.7921 L 869.208,-64.1563 L 869.608,-64.4804
 L 869.95,-64.7024 L 869.95,-74 L 870.006,-74.5302 L 870.17,-75.0372 L 870.437,-75.4988 L 870.794,-75.895
 L 871.225,-76.2084 L 871.712,-76.4252 L 872.233,-76.536 L 872.767,-76.536 L 873.288,-76.4252 L 873.775,-76.2084
 L 874.206,-75.895 L 874.563,-75.4988 L 874.83,-75.0372 L 874.994,-74.5302 L 875.05,-74 L 875.05,-64.7024
 L 875.392,-64.4804 L 875.792,-64.1563 L 876.156,-63.7921 L 876.48,-63.3919 L 876.761,-62.96 L 876.995,-62.5011
 L 877.179,-62.0204 L 877.312,-61.5229 L 877.393,-61.0143 L 877.42,-60.5 L 877.393,-59.9857 L 877.312,-59.4771
 L 877.179,-58.9796 L 876.995,-58.4989 L 876.761,-58.04 L 876.48,-57.6081 L 876.156,-57.2079 L 875.792,-56.8437
 L 875.392,-56.5196 L 874.96,-56.2392 L 874.501,-56.0054 L 874.02,-55.8208 L 873.523,-55.6875 L 873.014,-55.607
 L 872.5,-55.58 z
M 1044.99,-55.607 L 1044.48,-55.6875 L 1043.98,-55.8208 L 1043.5,-56.0054 L 1043.04,-56.2392 L 1042.61,-56.5196
 L 1042.21,-56.8437 L 1041.84,-57.2079 L 1041.52,-57.6081 L 1041.24,-58.04 L 1041.01,-58.4989 L 1040.82,-58.9796
 L 1040.69,-59.4771 L 1040.61,-59.9857 L 1040.58,-60.5 L 1040.61,-61.0143 L 1040.69,-61.5229 L 1040.82,-62.0204
 L 1041.01,-62.5011 L 1041.24,-62.96 L 1041.52,-63.3919 L 1041.84,-63.7921 L 1042.21,-64.1563 L 1042.61,-64.4804
 L 1042.95,-64.7024 L 1042.95,-74 L 1043.01,-74.5302 L 1043.17,-75.0372 L 1043.44,-75.4988 L 1043.79,-75.895
 L 1044.23,-76.2084 L 1044.71,-76.4252 L 1045.23,-76.536 L 1045.77,-76.536 L 1046.29,-76.4252 L 1046.77,-76.2084
 L 1047.21,-75.895 L 1047.56,-75.4988 L 1047.83,-75.0372 L 1047.99,-74.5302 L 1048.05,-74 L 1048.05,-64.7024
 L 1048.39,-64.4804 L 1048.79,-64.1563 L 1049.16,-63.7921 L 1049.48,-63.3919 L 1049.76,-62.96 L 1049.99,-62.5011
 L 1050.18,-62.0204 L 1050.31,-61.5229 L 1050.39,-61.0143 L 1050.42,-60.5 L 1050.39,-59.9857 L 1050.31,-59.4771
 L 1050.18,-58.9796 L 1049.99,-58.4989 L 1049.76,-58.04 L 1049.48,-57.6081 L 1049.16,-57.2079 L 1048.79,-56.8437
 L 1048.39,-56.5196 L 1047.96,-56.2392 L 1047.5,-56.0054 L 1047.02,-55.8208 L 1046.52,-55.6875 L 1046.01,-55.607
 L 1045.5,-55.58 z
M 1217.99,-55.607 L 1217.48,-55.6875 L 1216.98,-55.8208 L 1216.5,-56.0054 L 1216.04,-56.2392 L 1215.61,-56.5196
 L 1215.21,-56.8437 L 1214.84,-57.2079 L 1214.52,-57.6081 L 1214.24,-58.04 L 1214.01,-58.4989 L 1213.82,-58.9796
 L 1213.69,-59.4771 L 1213.61,-59.9857 L 1213.58,-60.5 L 1213.61,-61.0143 L 1213.69,-61.5229 L 1213.82,-62.0204
 L 1214.01,-62.5011 L 1214.24,-62.96 L 1214.52,-63.3919 L 1214.84,-63.7921 L 1215.21,-64.1563 L 1215.61,-64.4804
 L 1215.95,-64.7024 L 1215.95,-74 L 1216.01,-74.5302 L 1216.17,-75.0372 L 1216.44,-75.4988 L 1216.79,-75.895
 L 1217.23,-76.2084 L 1217.71,-76.4252 L 1218.23,-76.536 L 1218.77,-76.536 L 1219.29,-76.4252 L 1219.77,-76.2084
 L 1220.21,-75.895 L 1220.56,-75.4988 L 1220.83,-75.0372 L 1220.99,-74.5302 L 1221.05,-74 L 1221.05,-64.7024
 L 1221.39,-64.4804 L 1221.79,-64.1563 L 1222.16,-63.7921 L 1222.48,-63.3919 L 1222.76,-62.96 L 1222.99,-62.5011
 L 1223.18,-62.0204 L 1223.31,-61.5229 L 1223.39,-61.0143 L 1223.42,-60.5 L 1223.39,-59.9857 L 1223.31,-59.4771
 L 1223.18,-58.9796 L 1222.99,-58.4989 L 1222.76,-58.04 L 1222.48,-57.6081 L 1222.16,-57.2079 L 1221.79,-56.8437
 L 1221.39,-56.5196 L 1220.96,-56.2392 L 1220.5,-56.0054 L 1220.02,-55.8208 L 1219.52,-55.6875 L 1219.01,-55.607
 L 1218.5,-55.58 z
M 711.496,-21.1924 L 710.713,-21.4858 L 710.008,-21.9357 L 709.412,-22.5222 L 708.951,-23.2199 L 708.645,-23.9981
 L 708.5,-25.0643 L 708.5,-58 L 708.587,-58.8316 L 708.846,-59.627 L 709.264,-60.3511 L 709.823,-60.9726
 L 710.5,-61.4641 L 711.264,-61.8042 L 712.5,-62 L 796.292,-62 L 797.124,-61.9126 L 797.919,-61.6542
 L 798.644,-61.2361 L 799.265,-60.6765 L 799.757,-60 L 800.097,-59.2361 L 800.27,-58.4181 L 800.27,-57.5819
 L 800.097,-56.7639 L 799.757,-56 L 799.265,-55.3235 L 798.644,-54.7639 L 797.756,-54.2773 L 713.963,-21.3415
 L 713.157,-21.1186 L 712.323,-21.0682 z
M 612.343,-47.862 L 611.537,-48.0849 L 595.783,-54.2773 L 594.895,-54.7639 L 594.273,-55.3235 L 593.782,-56
 L 593.442,-56.7639 L 593.268,-57.5819 L 593.268,-58.4181 L 593.442,-59.2361 L 593.782,-60 L 594.273,-60.6765
 L 594.895,-61.2361 L 595.619,-61.6542 L 596.414,-61.9126 L 597.246,-62 L 628.754,-62 L 629.759,-61.8719
 L 630.542,-61.5784 L 631.247,-61.1286 L 631.843,-60.5421 L 632.304,-59.8444 L 632.609,-59.0661 L 632.747,-58.2413
 L 632.71,-57.4059 L 632.5,-56.5964 L 632.126,-55.8483 L 631.605,-55.1943 L 630.959,-54.6628 L 630.217,-54.2773
 L 614.463,-48.0849 L 614.004,-47.9357 L 613.177,-47.8115 z
M 512.843,-21.1186 L 512.037,-21.3415 L 428.244,-54.2773 L 427.356,-54.7639 L 426.735,-55.3235 L 426.243,-56
 L 425.903,-56.7639 L 425.73,-57.5819 L 425.73,-58.4181 L 425.903,-59.2361 L 426.243,-60 L 426.735,-60.6765
 L 427.356,-61.2361 L 428.081,-61.6542 L 428.876,-61.9126 L 429.708,-62 L 513.5,-62 L 514.736,-61.8042
 L 515.5,-61.4641 L 516.177,-60.9726 L 516.736,-60.3511 L 517.154,-59.627 L 517.413,-58.8316 L 517.5,-58
 L 517.5,-25.0643 L 517.355,-23.9981 L 517.049,-23.2199 L 516.588,-22.5222 L 515.992,-21.9357 L 515.287,-21.4858
 L 514.504,-21.1924 L 513.677,-21.0682 z
M 339.843,-21.1186 L 339.037,-21.3415 L 255.244,-54.2773 L 254.356,-54.7639 L 253.735,-55.3235 L 253.243,-56
 L 252.903,-56.7639 L 252.73,-57.5819 L 252.73,-58.4181 L 252.903,-59.2361 L 253.243,-60 L 253.735,-60.6765
 L 254.356,-61.2361 L 255.081,-61.6542 L 255.876,-61.9126 L 256.708,-62 L 340.5,-62 L 341.736,-61.8042
 L 342.5,-61.4641 L 343.177,-60.9726 L 343.736,-60.3511 L 344.154,-59.627 L 344.413,-58.8316 L 344.5,-58
 L 344.5,-25.0643 L 344.355,-23.9981 L 344.049,-23.2199 L 343.588,-22.5222 L 342.992,-21.9357 L 342.287,-21.4858
 L 341.504,-21.1924 L 340.677,-21.0682 z
M 1057.5,-21.1924 L 1056.71,-21.4858 L 1056.01,-21.9357 L 1055.41,-22.5222 L 1054.95,-23.2199 L 1054.64,-23.9981
 L 1054.5,-25.0643 L 1054.5,-58 L 1054.59,-58.8316 L 1054.85,-59.627 L 1055.26,-60.3511 L 1055.82,-60.9726
 L 1056.5,-61.4641 L 1057.26,-61.8042 L 1058.5,-62 L 1142.29,-62 L 1143.12,-61.9126 L 1143.92,-61.6542
 L 1144.64,-61.2361 L 1145.26,-60.6765 L 1145.76,-60 L 1146.1,-59.2361 L 1146.27,-58.4181 L 1146.27,-57.5819
 L 1146.1,-56.7639 L 1145.76,-56 L 1145.26,-55.3235 L 1144.64,-54.7639 L 1143.76,-54.2773 L 1059.96,-21.3415
 L 1059.16,-21.1186 L 1058.32,-21.0682 z
M 166.843,-21.1186 L 166.037,-21.3415 L 82.2443,-54.2773 L 81.3565,-54.7639 L 80.735,-55.3235 L 80.2435,-56
 L 79.9034,-56.7639 L 79.7295,-57.5819 L 79.7295,-58.4181 L 79.9034,-59.2361 L 80.2435,-60 L 80.735,-60.6765
 L 81.3565,-61.2361 L 82.0806,-61.6542 L 82.8759,-61.9126 L 83.7076,-62 L 167.5,-62 L 168.736,-61.8042
 L 169.5,-61.4641 L 170.177,-60.9726 L 170.736,-60.3511 L 171.154,-59.627 L 171.413,-58.8316 L 171.5,-58
 L 171.5,-25.0643 L 171.355,-23.9981 L 171.049,-23.2199 L 170.588,-22.5222 L 169.992,-21.9357 L 169.287,-21.4858
 L 168.504,-21.1924 L 167.677,-21.0682 z
M 884.496,-21.1924 L 883.713,-21.4858 L 883.008,-21.9357 L 882.412,-22.5222 L 881.951,-23.2199 L 881.645,-23.9981
 L 881.5,-25.0643 L 881.5,-58 L 881.587,-58.8316 L 881.846,-59.627 L 882.264,-60.3511 L 882.823,-60.9726
 L 883.5,-61.4641 L 884.264,-61.8042 L 885.5,-62 L 969.292,-62 L 970.124,-61.9126 L 970.919,-61.6542
 L 971.644,-61.2361 L 972.265,-60.6765 L 972.757,-60 L 973.097,-59.2361 L 973.27,-58.4181 L 973.27,-57.5819
 L 973.097,-56.7639 L 972.757,-56 L 972.265,-55.3235 L 971.644,-54.7639 L 970.756,-54.2773 L 886.963,-21.3415
 L 886.157,-21.1186 L 885.323,-21.0682 z
M 539.082,-18.9393 L 538.264,-19.1132 L 537.5,-19.4533 L 536.823,-19.9449 L 536.264,-20.5663 L 535.846,-21.2905
 L 535.587,-22.0858 L 535.5,-22.9174 L 535.5,-57.0826 L 535.645,-58.1487 L 535.951,-58.927 L 536.412,-59.6246
 L 537.008,-60.2112 L 537.713,-60.661 L 538.496,-60.9544 L 539.323,-61.0786 L 540.157,-61.0282 L 540.963,-60.8053
 L 584.423,-43.7227 L 585.452,-43.1286 L 586.048,-42.5421 L 586.509,-41.8444 L 586.815,-41.0661 L 586.953,-40.2413
 L 586.916,-39.4059 L 586.706,-38.5964 L 586.332,-37.8483 L 585.811,-37.1943 L 585.165,-36.6628 L 584.423,-36.2773
 L 540.963,-19.1947 L 539.918,-18.9393 z
M 685.843,-18.9718 L 685.037,-19.1947 L 641.577,-36.2773 L 640.548,-36.8714 L 639.952,-37.4579 L 639.491,-38.1556
 L 639.185,-38.9339 L 639.047,-39.7587 L 639.084,-40.5941 L 639.294,-41.4036 L 639.668,-42.1517 L 640.189,-42.8057
 L 640.835,-43.3372 L 641.577,-43.7227 L 685.037,-60.8053 L 686.082,-61.0607 L 686.918,-61.0607 L 687.736,-60.8868
 L 688.5,-60.5467 L 689.177,-60.0552 L 689.736,-59.4337 L 690.154,-58.7095 L 690.413,-57.9142 L 690.5,-57.0826
 L 690.5,-22.9174 L 690.355,-21.8513 L 690.049,-21.073 L 689.588,-20.3754 L 688.992,-19.7888 L 688.287,-19.339
 L 687.504,-19.0456 L 686.677,-18.9214 z
M 193.5,-18 L 192.264,-18.1958 L 191.5,-18.5359 L 190.823,-19.0274 L 190.264,-19.6489 L 189.846,-20.373
 L 189.587,-21.1684 L 189.5,-22 L 189.5,-54.9357 L 189.645,-56.0019 L 189.951,-56.7801 L 190.412,-57.4778
 L 191.008,-58.0643 L 191.713,-58.5142 L 192.496,-58.8076 L 193.323,-58.9318 L 194.157,-58.8814 L 194.963,-58.6585
 L 278.756,-25.7227 L 279.644,-25.2361 L 280.265,-24.6765 L 280.756,-24 L 281.097,-23.2361 L 281.27,-22.4181
 L 281.27,-21.5819 L 281.097,-20.7639 L 280.756,-20 L 280.265,-19.3235 L 279.644,-18.7639 L 278.919,-18.3458
 L 278.124,-18.0874 L 277.292,-18 z
M 366.5,-18 L 365.264,-18.1958 L 364.5,-18.5359 L 363.823,-19.0274 L 363.264,-19.6489 L 362.846,-20.373
 L 362.587,-21.1684 L 362.5,-22 L 362.5,-54.9357 L 362.645,-56.0019 L 362.951,-56.7801 L 363.412,-57.4778
 L 364.008,-58.0643 L 364.713,-58.5142 L 365.496,-58.8076 L 366.323,-58.9318 L 367.157,-58.8814 L 367.963,-58.6585
 L 451.756,-25.7227 L 452.644,-25.2361 L 453.265,-24.6765 L 453.756,-24 L 454.097,-23.2361 L 454.27,-22.4181
 L 454.27,-21.5819 L 454.097,-20.7639 L 453.756,-20 L 453.265,-19.3235 L 452.644,-18.7639 L 451.919,-18.3458
 L 451.124,-18.0874 L 450.292,-18 z
M 775.708,-18 L 774.876,-18.0874 L 774.081,-18.3458 L 773.356,-18.7639 L 772.735,-19.3235 L 772.244,-20
 L 771.903,-20.7639 L 771.73,-21.5819 L 771.73,-22.4181 L 771.903,-23.2361 L 772.244,-24 L 772.735,-24.6765
 L 773.356,-25.2361 L 774.244,-25.7227 L 858.037,-58.6585 L 858.843,-58.8814 L 859.677,-58.9318 L 860.504,-58.8076
 L 861.287,-58.5142 L 861.992,-58.0643 L 862.588,-57.4778 L 863.049,-56.7801 L 863.355,-56.0019 L 863.5,-54.9357
 L 863.5,-22 L 863.413,-21.1684 L 863.154,-20.373 L 862.736,-19.6489 L 862.177,-19.0274 L 861.5,-18.5359
 L 860.736,-18.1958 L 859.5,-18 z
M 948.708,-18 L 947.876,-18.0874 L 947.081,-18.3458 L 946.356,-18.7639 L 945.735,-19.3235 L 945.244,-20
 L 944.903,-20.7639 L 944.73,-21.5819 L 944.73,-22.4181 L 944.903,-23.2361 L 945.244,-24 L 945.735,-24.6765
 L 946.356,-25.2361 L 947.244,-25.7227 L 1031.04,-58.6585 L 1031.84,-58.8814 L 1032.68,-58.9318 L 1033.5,-58.8076
 L 1034.29,-58.5142 L 1034.99,-58.0643 L 1035.59,-57.4778 L 1036.05,-56.7801 L 1036.36,-56.0019 L 1036.5,-54.9357
 L 1036.5,-22 L 1036.41,-21.1684 L 1036.15,-20.373 L 1035.74,-19.6489 L 1035.18,-19.0274 L 1034.5,-18.5359
 L 1033.74,-18.1958 L 1032.5,-18 z
M 22,-18 L 20.7639,-18.1958 L 20,-18.5359 L 19.3235,-19.0274 L 18.7639,-19.6489 L 18.3458,-20.373
 L 18.0874,-21.1684 L 18,-22 L 18,-54.3461 L 18.1447,-55.4123 L 18.4506,-56.1905 L 18.9116,-56.8882
 L 19.5076,-57.4747 L 20.2126,-57.9246 L 20.9956,-58.218 L 21.8226,-58.3422 L 22.6573,-58.2918 L 23.4633,-58.0689
 L 105.756,-25.7227 L 106.644,-25.2361 L 107.265,-24.6765 L 107.756,-24 L 108.097,-23.2361 L 108.27,-22.4181
 L 108.27,-21.5819 L 108.097,-20.7639 L 107.756,-20 L 107.265,-19.3235 L 106.644,-18.7639 L 105.919,-18.3458
 L 105.124,-18.0874 L 104.292,-18 z
M 1121.71,-18 L 1120.88,-18.0874 L 1120.08,-18.3458 L 1119.36,-18.7639 L 1118.74,-19.3235 L 1118.24,-20
 L 1117.9,-20.7639 L 1117.73,-21.5819 L 1117.73,-22.4181 L 1117.9,-23.2361 L 1118.24,-24 L 1118.74,-24.6765
 L 1119.36,-25.2361 L 1120.24,-25.7227 L 1202.54,-58.0689 L 1203.34,-58.2918 L 1204.18,-58.3422 L 1205,-58.218
 L 1205.79,-57.9246 L 1206.49,-57.4747 L 1207.09,-56.8882 L 1207.55,-56.1905 L 1207.86,-55.4123 L 1208,-54.3461
 L 1208,-22 L 1207.91,-21.1684 L 1207.65,-20.373 L 1207.24,-19.6489 L 1206.68,-19.0274 L 1206,-18.5359
 L 1205.24,-18.1958 L 1204,-18 z
M 597.246,-18 L 596.241,-18.1281 L 595.458,-18.4216 L 594.753,-18.8714 L 594.157,-19.4579 L 593.696,-20.1556
 L 593.391,-20.9339 L 593.253,-21.7587 L 593.29,-22.5941 L 593.5,-23.4036 L 593.874,-24.1517 L 594.395,-24.8057
 L 595.04,-25.3372 L 595.783,-25.7227 L 611.537,-31.9151 L 611.996,-32.0643 L 612.823,-32.1885 L 613.657,-32.138
 L 614.463,-31.9151 L 630.217,-25.7227 L 631.105,-25.2361 L 631.727,-24.6765 L 632.218,-24 L 632.558,-23.2361
 L 632.732,-22.4181 L 632.732,-21.5819 L 632.558,-20.7639 L 632.218,-20 L 631.727,-19.3235 L 631.105,-18.7639
 L 630.381,-18.3458 L 629.586,-18.0874 L 628.754,-18 z
" stroke="black" fill="lightgray" stroke-width="0.5"/>
</svg>
