<?xml version="1.0" standalone="no"?>
<!DOCTYPE svg PUBLIC "-//W3C//DTD SVG 1.1//EN" "http://www.w3.org/Graphics/SVG/1.1/DTD/svg11.dtd">
<svg width="1290mm" height="80mm" viewBox="0 -80 1290 80" xmlns="http://www.w3.org/2000/svg" version="1.1">
<title>OpenSCAD Model</title>
<path d="
M 1290,-80 L 0,-80 L 0,-0 L 4.95,-0 L 4.95,-6 L 5.00572,-6.53017
 L 5.17046,-7.03717 L 5.437,-7.49884 L 5.79372,-7.895 L 6.22499,-8.20836 L 6.71201,-8.42519 L 7.23344,-8.53603
 L 7.76654,-8.53603 L 8.28798,-8.42519 L 8.77499,-8.20836 L 9.20627,-7.895 L 9.56299,-7.49884 L 9.82953,-7.03717
 L 9.99426,-6.53017 L 10.05,-6 L 10.05,-0 L 187.093,-0 L 187.093,-6 L 187.149,-6.53017
 L 187.313,-7.03717 L 187.58,-7.49884 L 187.937,-7.895 L 188.368,-8.20836 L 188.855,-8.42519 L 189.376,-8.53603
 L 189.909,-8.53603 L 190.431,-8.42519 L 190.918,-8.20836 L 191.349,-7.895 L 191.706,-7.49884 L 191.972,-7.03717
 L 192.137,-6.53017 L 192.193,-6 L 192.193,-0 L 369.236,-0 L 369.236,-6 L 369.291,-6.53017
 L 369.456,-7.03717 L 369.723,-7.49884 L 370.079,-7.895 L 370.511,-8.20836 L 370.998,-8.42519 L 371.519,-8.53603
 L 372.052,-8.53603 L 372.574,-8.42519 L 373.061,-8.20836 L 373.492,-7.895 L 373.849,-7.49884 L 374.115,-7.03717
 L 374.28,-6.53017 L 374.336,-6 L 374.336,-0 L 551.379,-0 L 551.379,-6 L 551.434,-6.53017
 L 551.599,-7.03717 L 551.866,-7.49884 L 552.222,-7.895 L 552.654,-8.20836 L 553.141,-8.42519 L 553.662,-8.53603
 L 554.195,-8.53603 L 554.717,-8.42519 L 555.204,-8.20836 L 555.635,-7.895 L 555.992,-7.49884 L 556.258,-7.03717
 L 556.423,-6.53017 L 556.479,-6 L 556.479,-0 L 733.521,-0 L 733.521,-6 L 733.577,-6.53017
 L 733.742,-7.03717 L 734.008,-7.49884 L 734.365,-7.895 L 734.796,-8.20836 L 735.283,-8.42519 L 735.805,-8.53603
 L 736.338,-8.53603 L 736.859,-8.42519 L 737.346,-8.20836 L 737.778,-7.895 L 738.134,-7.49884 L 738.401,-7.03717
 L 738.566,-6.53017 L 738.621,-6 L 738.621,-0 L 915.664,-0 L 915.664,-6 L 915.72,-6.53017
 L 915.885,-7.03717 L 916.151,-7.49884 L 916.508,-7.895 L 916.939,-8.20836 L 917.426,-8.42519 L 917.948,-8.53603
 L 918.481,-8.53603 L 919.002,-8.42519 L 919.489,-8.20836 L 919.921,-7.895 L 920.277,-7.49884 L 920.544,-7.03717
 L 920.709,-6.53017 L 920.764,-6 L 920.764,-0 L 1097.81,-0 L 1097.81,-6 L 1097.86,-6.53017
 L 1098.03,-7.03717 L 1098.29,-7.49884 L 1098.65,-7.895 L 1099.08,-8.20836 L 1099.57,-8.42519 L 1100.09,-8.53603
 L 1100.62,-8.53603 L 1101.15,-8.42519 L 1101.63,-8.20836 L 1102.06,-7.895 L 1102.42,-7.49884 L 1102.69,-7.03717
 L 1102.85,-6.53017 L 1102.91,-6 L 1102.91,-0 L 1279.95,-0 L 1279.95,-6 L 1280.01,-6.53017
 L 1280.17,-7.03717 L 1280.44,-7.49884 L 1280.79,-7.895 L 1281.22,-8.20836 L 1281.71,-8.42519 L 1282.23,-8.53603
 L 1282.77,-8.53603 L 1283.29,-8.42519 L 1283.77,-8.20836 L 1284.21,-7.895 L 1284.56,-7.49884 L 1284.83,-7.03717
 L 1284.99,-6.53017 L 1285.05,-6 L 1285.05,-0 L 1290,-0 z
M 6.98573,-55.607 L 6.47708,-55.6875 L 5.97964,-55.8208 L 5.49887,-56.0054 L 5.04001,-56.2392 L 4.60811,-56.5196
 L 4.20789,-56.8437 L 3.84373,-57.2079 L 3.51964,-57.6081 L 3.23917,-58.04 L 3.00537,-58.4989 L 2.82082,-58.9796
 L 2.68752,-59.4771 L 2.60696,-59.9857 L 2.58,-60.5 L 2.60696,-61.0143 L 2.68752,-61.5229 L 2.82082,-62.0204
 L 3.00537,-62.5011 L 3.23917,-62.96 L 3.51964,-63.3919 L 3.84373,-63.7921 L 4.20789,-64.1563 L 4.60811,-64.4804
 L 4.95001,-64.7024 L 4.95001,-74 L 5.00574,-74.5302 L 5.17047,-75.0372 L 5.43701,-75.4988 L 5.79373,-75.895
 L 6.22501,-76.2084 L 6.71202,-76.4252 L 7.23346,-76.536 L 7.76654,-76.536 L 8.28798,-76.4252 L 8.77499,-76.2084
 L 9.20627,-75.895 L 9.56299,-75.4988 L 9.82953,-75.0372 L 9.99426,-74.5302 L 10.05,-74 L 10.05,-64.7024
 L 10.3919,-64.4804 L 10.7921,-64.1563 L 11.1563,-63.7921 L 11.4804,-63.3919 L 11.7608,-62.96 L 11.9946,-62.5011
 L 12.1792,-62.0204 L 12.3125,-61.5229 L 12.393,-61.0143 L 12.42,-60.5 L 12.393,-59.9857 L 12.3125,-59.4771
 L 12.1792,-58.9796 L 11.9946,-58.4989 L 11.7608,-58.04 L 11.4804,-57.6081 L 11.1563,-57.2079 L 10.7921,-56.8437
 L 10.3919,-56.5196 L 9.95999,-56.2392 L 9.50113,-56.0054 L 9.02036,-55.8208 L 8.52292,-55.6875 L 8.01427,-55.607
 L 7.5,-55.58 z
M 189.129,-55.607 L 188.62,-55.6875 L 188.122,-55.8208 L 187.642,-56.0054 L 187.183,-56.2392 L 186.751,-56.5196
 L 186.351,-56.8437 L 185.987,-57.2079 L 185.662,-57.6081 L 185.382,-58.04 L 185.148,-58.4989 L 184.964,-58.9796
 L 184.83,-59.4771 L 184.75,-59.9857 L 184.723,-60.5 L 184.75,-61.0143 L 184.83,-61.5229 L 184.964,-62.0204
 L 185.148,-62.5011 L 185.382,-62.96 L 185.662,-63.3919 L 185.987,-63.7921 L 186.351,-64.1563 L 186.751,-64.4804
 L 187.093,-64.7024 L 187.093,-74 L 187.149,-74.5302 L 187.313,-75.0372 L 187.58,-75.4988 L 187.937,-75.895
 L 188.368,-76.2084 L 188.855,-76.4252 L 189.376,-76.536 L 189.909,-76.536 L 190.431,-76.4252 L 190.918,-76.2084
 L 191.349,-75.895 L 191.706,-75.4988 L 191.972,-75.0372 L 192.137,-74.5302 L 192.193,-74 L 192.193,-64.7024
 L 192.535,-64.4804 L 192.935,-64.1563 L 193.299,-63.7921 L 193.623,-63.3919 L 193.904,-62.96 L 194.137,-62.5011
 L 194.322,-62.0204 L 194.455,-61.5229 L 194.536,-61.0143 L 194.563,-60.5 L 194.536,-59.9857 L 194.455,-59.4771
 L 194.322,-58.9796 L 194.137,-58.4989 L 193.904,-58.04 L 193.623,-57.6081 L 193.299,-57.2079 L 192.935,-56.8437
 L 192.535,-56.5196 L 192.103,-56.2392 L 191.644,-56.0054 L 191.163,-55.8208 L 190.666,-55.6875 L 190.157,-55.607
 L 189.643,-55.58 z
M 371.271,-55.607 L 370.763,-55.6875 L 370.265,-55.8208 L 369.785,-56.0054 L 369.326,-56.2392 L 368.894,-56.5196
 L 368.494,-56.8437 L 368.129,-57.2079 L 367.805,-57.6081 L 367.525,-58.04 L 367.291,-58.4989 L 367.107,-58.9796
 L 366.973,-59.4771 L 366.893,-59.9857 L 366.866,-60.5 L 366.893,-61.0143 L 366.973,-61.5229 L 367.107,-62.0204
 L 367.291,-62.5011 L 367.525,-62.96 L 367.805,-63.3919 L 368.129,-63.7921 L 368.494,-64.1563 L 368.894,-64.4804
 L 369.236,-64.7024 L 369.236,-74 L 369.291,-74.5302 L 369.456,-75.0372 L 369.723,-75.4988 L 370.079,-75.895
 L 370.511,-76.2084 L 370.998,-76.4252 L 371.519,-76.536 L 372.052,-76.536 L 372.574,-76.4252 L 373.061,-76.2084
 L 373.492,-75.895 L 373.849,-75.4988 L 374.115,-75.0372 L 374.28,-74.5302 L 374.336,-74 L 374.336,-64.7024
 L 374.678,-64.4804 L 375.078,-64.1563 L 375.442,-63.7921 L 375.766,-63.3919 L 376.047,-62.96 L 376.28,-62.5011
 L 376.465,-62.0204 L 376.598,-61.5229 L 376.679,-61.0143 L 376.706,-60.5 L 376.679,-59.9857 L 376.598,-59.4771
 L 376.465,-58.9796 L 376.28,-58.4989 L 376.047,-58.04 L 375.766,-57.6081 L 375.442,-57.2079 L 375.078,-56.8437
 L 374.678,-56.5196 L 374.246,-56.2392 L 373.787,-56.0054 L 373.306,-55.8208 L 372.809,-55.6875 L 372.3,-55.607
 L 371.786,-55.58 z
M 553.414,-55.607 L 552.906,-55.6875 L 552.408,-55.8208 L 551.927,-56.0054 L 551.469,-56.2392 L 551.037,-56.5196
 L 550.636,-56.8437 L 550.272,-57.2079 L 549.948,-57.6081 L 549.668,-58.04 L 549.434,-58.4989 L 549.249,-58.9796
 L 549.116,-59.4771 L 549.036,-59.9857 L 549.009,-60.5 L 549.036,-61.0143 L 549.116,-61.5229 L 549.249,-62.0204
 L 549.434,-62.5011 L 549.668,-62.96 L 549.948,-63.3919 L 550.272,-63.7921 L 550.636,-64.1563 L 551.037,-64.4804
 L 551.379,-64.7024 L 551.379,-74 L 551.434,-74.5302 L 551.599,-75.0372 L 551.866,-75.4988 L 552.222,-75.895
 L 552.654,-76.2084 L 553.141,-76.4252 L 553.662,-76.536 L 554.195,-76.536 L 554.717,-76.4252 L 555.204,-76.2084
 L 555.635,-75.895 L 555.992,-75.4988 L 556.258,-75.0372 L 556.423,-74.5302 L 556.479,-74 L 556.479,-64.7024
 L 556.82,-64.4804 L 557.221,-64.1563 L 557.585,-63.7921 L 557.909,-63.3919 L 558.189,-62.96 L 558.423,-62.5011
 L 558.608,-62.0204 L 558.741,-61.5229 L 558.822,-61.0143 L 558.849,-60.5 L 558.822,-59.9857 L 558.741,-59.4771
 L 558.608,-58.9796 L 558.423,-58.4989 L 558.189,-58.04 L 557.909,-57.6081 L 557.585,-57.2079 L 557.221,-56.8437
 L 556.82,-56.5196 L 556.389,-56.2392 L 555.93,-56.0054 L 555.449,-55.8208 L 554.951,-55.6875 L 554.443,-55.607
 L 553.929,-55.58 z
M 735.557,-55.607 L 735.049,-55.6875 L 734.551,-55.8208 L 734.07,-56.0054 L 733.611,-56.2392 L 733.18,-56.5196
 L 732.779,-56.8437 L 732.415,-57.2079 L 732.091,-57.6081 L 731.811,-58.04 L 731.577,-58.4989 L 731.392,-58.9796
 L 731.259,-59.4771 L 731.178,-59.9857 L 731.151,-60.5 L 731.178,-61.0143 L 731.259,-61.5229 L 731.392,-62.0204
 L 731.577,-62.5011 L 731.811,-62.96 L 732.091,-63.3919 L 732.415,-63.7921 L 732.779,-64.1563 L 733.18,-64.4804
 L 733.521,-64.7024 L 733.521,-74 L 733.577,-74.5302 L 733.742,-75.0372 L 734.008,-75.4988 L 734.365,-75.895
 L 734.796,-76.2084 L 735.283,-76.4252 L 735.805,-76.536 L 736.338,-76.536 L 736.859,-76.4252 L 737.346,-76.2084
 L 737.778,-75.895 L 738.134,-75.4988 L 738.401,-75.0372 L 738.566,-74.5302 L 738.621,-74 L 738.621,-64.7024
 L 738.963,-64.4804 L 739.364,-64.1563 L 739.728,-63.7921 L 740.052,-63.3919 L 740.332,-62.96 L 740.566,-62.5011
 L 740.751,-62.0204 L 740.884,-61.5229 L 740.964,-61.0143 L 740.991,-60.5 L 740.964,-59.9857 L 740.884,-59.4771
 L 740.751,-58.9796 L 740.566,-58.4989 L 740.332,-58.04 L 740.052,-57.6081 L 739.728,-57.2079 L 739.364,-56.8437
 L 738.963,-56.5196 L 738.531,-56.2392 L 738.073,-56.0054 L 737.592,-55.8208 L 737.094,-55.6875 L 736.586,-55.607
 L 736.071,-55.58 z
M 917.7,-55.607 L 917.191,-55.6875 L 916.694,-55.8208 L 916.213,-56.0054 L 915.754,-56.2392 L 915.322,-56.5196
 L 914.922,-56.8437 L 914.558,-57.2079 L 914.234,-57.6081 L 913.953,-58.04 L 913.72,-58.4989 L 913.535,-58.9796
 L 913.402,-59.4771 L 913.321,-59.9857 L 913.294,-60.5 L 913.321,-61.0143 L 913.402,-61.5229 L 913.535,-62.0204
 L 913.72,-62.5011 L 913.953,-62.96 L 914.234,-63.3919 L 914.558,-63.7921 L 914.922,-64.1563 L 915.322,-64.4804
 L 915.664,-64.7024 L 915.664,-74 L 915.72,-74.5302 L 915.885,-75.0372 L 916.151,-75.4988 L 916.508,-75.895
 L 916.939,-76.2084 L 917.426,-76.4252 L 917.948,-76.536 L 918.481,-76.536 L 919.002,-76.4252 L 919.489,-76.2084
 L 919.921,-75.895 L 920.277,-75.4988 L 920.544,-75.0372 L 920.709,-74.5302 L 920.764,-74 L 920.764,-64.7024
 L 921.106,-64.4804 L 921.506,-64.1563 L 921.871,-63.7921 L 922.195,-63.3919 L 922.475,-62.96 L 922.709,-62.5011
 L 922.893,-62.0204 L 923.027,-61.5229 L 923.107,-61.0143 L 923.134,-60.5 L 923.107,-59.9857 L 923.027,-59.4771
 L 922.893,-58.9796 L 922.709,-58.4989 L 922.475,-58.04 L 922.195,-57.6081 L 921.871,-57.2079 L 921.506,-56.8437
 L 921.106,-56.5196 L 920.674,-56.2392 L 920.215,-56.0054 L 919.735,-55.8208 L 919.237,-55.6875 L 918.729,-55.607
 L 918.214,-55.58 z
M 1099.84,-55.607 L 1099.33,-55.6875 L 1098.84,-55.8208 L 1098.36,-56.0054 L 1097.9,-56.2392 L 1097.47,-56.5196
 L 1097.07,-56.8437 L 1096.7,-57.2079 L 1096.38,-57.6081 L 1096.1,-58.04 L 1095.86,-58.4989 L 1095.68,-58.9796
 L 1095.54,-59.4771 L 1095.46,-59.9857 L 1095.44,-60.5 L 1095.46,-61.0143 L 1095.54,-61.5229 L 1095.68,-62.0204
 L 1095.86,-62.5011 L 1096.1,-62.96 L 1096.38,-63.3919 L 1096.7,-63.7921 L 1097.07,-64.1563 L 1097.47,-64.4804
 L 1097.81,-64.7024 L 1097.81,-74 L 1097.86,-74.5302 L 1098.03,-75.0372 L 1098.29,-75.4988 L 1098.65,-75.895
 L 1099.08,-76.2084 L 1099.57,-76.4252 L 1100.09,-76.536 L 1100.62,-76.536 L 1101.15,-76.4252 L 1101.63,-76.2084
 L 1102.06,-75.895 L 1102.42,-75.4988 L 1102.69,-75.0372 L 1102.85,-74.5302 L 1102.91,-74 L 1102.91,-64.7024
 L 1103.25,-64.4804 L 1103.65,-64.1563 L 1104.01,-63.7921 L 1104.34,-63.3919 L 1104.62,-62.96 L 1104.85,-62.5011
 L 1105.04,-62.0204 L 1105.17,-61.5229 L 1105.25,-61.0143 L 1105.28,-60.5 L 1105.25,-59.9857 L 1105.17,-59.4771
 L 1105.04,-58.9796 L 1104.85,-58.4989 L 1104.62,-58.04 L 1104.34,-57.6081 L 1104.01,-57.2079 L 1103.65,-56.8437
 L 1103.25,-56.5196 L 1102.82,-56.2392 L 1102.36,-56.0054 L 1101.88,-55.8208 L 1101.38,-55.6875 L 1100.87,-55.607
 L 1100.36,-55.58 z
M 1281.99,-55.607 L 1281.48,-55.6875 L 1280.98,-55.8208 L 1280.5,-56.0054 L 1280.04,-56.2392 L 1279.61,-56.5196
 L 1279.21,-56.8437 L 1278.84,-57.2079 L 1278.52,-57.6081 L 1278.24,-58.04 L 1278.01,-58.4989 L 1277.82,-58.9796
 L 1277.69,-59.4771 L 1277.61,-59.9857 L 1277.58,-60.5 L 1277.61,-61.0143 L 1277.69,-61.5229 L 1277.82,-62.0204
 L 1278.01,-62.5011 L 1278.24,-62.96 L 1278.52,-63.3919 L 1278.84,-63.7921 L 1279.21,-64.1563 L 1279.61,-64.4804
 L 1279.95,-64.7024 L 1279.95,-74 L 1280.01,-74.5302 L 1280.17,-75.0372 L 1280.44,-75.4988 L 1280.79,-75.895
 L 1281.23,-76.2084 L 1281.71,-76.4252 L 1282.23,-76.536 L 1282.77,-76.536 L 1283.29,-76.4252 L 1283.77,-76.2084
 L 1284.21,-75.895 L 1284.56,-75.4988 L 1284.83,-75.0372 L 1284.99,-74.5302 L 1285.05,-74 L 1285.05,-64.7024
 L 1285.39,-64.4804 L 1285.79,-64.1563 L 1286.16,-63.7921 L 1286.48,-63.3919 L 1286.76,-62.96 L 1286.99,-62.5011
 L 1287.18,-62.0204 L 1287.31,-61.5229 L 1287.39,-61.0143 L 1287.42,-60.5 L 1287.39,-59.9857 L 1287.31,-59.4771
 L 1287.18,-58.9796 L 1286.99,-58.4989 L 1286.76,-58.04 L 1286.48,-57.6081 L 1286.16,-57.2079 L 1285.79,-56.8437
 L 1285.39,-56.5196 L 1284.96,-56.2392 L 1284.5,-56.0054 L 1284.02,-55.8208 L 1283.52,-55.6875 L 1283.01,-55.607
 L 1282.5,-55.58 z
M 748.001,-20.8628 L 747.223,-21.1697 L 746.526,-21.6315 L 745.94,-22.2283 L 745.491,-22.9337 L 745.198,-23.7172
 L 745.071,-24.7168 L 745.071,-58 L 745.159,-58.8316 L 745.417,-59.627 L 745.835,-60.3511 L 746.395,-60.9726
 L 747.071,-61.4641 L 747.835,-61.8042 L 749.071,-62 L 838.223,-62 L 839.054,-61.9126 L 839.85,-61.6542
 L 840.574,-61.2361 L 841.195,-60.6765 L 841.687,-60 L 842.027,-59.2361 L 842.201,-58.4181 L 842.201,-57.5819
 L 842.027,-56.7639 L 841.687,-56 L 841.195,-55.3235 L 840.574,-54.7639 L 839.622,-54.2526 L 750.47,-20.9695
 L 749.661,-20.7605 L 748.825,-20.7244 z
M 644.411,-47.7743 L 643.601,-47.9833 L 626.808,-54.2526 L 625.856,-54.7639 L 625.234,-55.3235 L 624.743,-56
 L 624.403,-56.7639 L 624.229,-57.5819 L 624.229,-58.4181 L 624.403,-59.2361 L 624.743,-60 L 625.234,-60.6765
 L 625.856,-61.2361 L 626.58,-61.6542 L 627.375,-61.9126 L 628.207,-62 L 661.793,-62 L 662.864,-61.854
 L 663.642,-61.5471 L 664.339,-61.0853 L 664.925,-60.4885 L 665.374,-59.7831 L 665.666,-58.9996 L 665.789,-58.1725
 L 665.738,-57.3379 L 665.514,-56.5322 L 665.127,-55.7906 L 664.595,-55.1456 L 663.94,-54.6254 L 663.192,-54.2526
 L 646.399,-47.9833 L 645.246,-47.7382 z
M 540.339,-20.7605 L 539.53,-20.9695 L 450.378,-54.2526 L 449.426,-54.7639 L 448.805,-55.3235 L 448.313,-56
 L 447.973,-56.7639 L 447.799,-57.5819 L 447.799,-58.4181 L 447.973,-59.2361 L 448.313,-60 L 448.805,-60.6765
 L 449.426,-61.2361 L 450.15,-61.6542 L 450.946,-61.9126 L 451.777,-62 L 540.929,-62 L 542.165,-61.8042
 L 542.929,-61.4641 L 543.605,-60.9726 L 544.165,-60.3511 L 544.583,-59.627 L 544.841,-58.8316 L 544.929,-58
 L 544.929,-24.7168 L 544.802,-23.7172 L 544.509,-22.9337 L 544.06,-22.2283 L 543.474,-21.6315 L 542.777,-21.1697
 L 541.999,-20.8628 L 541.175,-20.7244 z
M 358.196,-20.7605 L 357.387,-20.9695 L 268.235,-54.2526 L 267.283,-54.7639 L 266.662,-55.3235 L 266.17,-56
 L 265.83,-56.7639 L 265.656,-57.5819 L 265.656,-58.4181 L 265.83,-59.2361 L 266.17,-60 L 266.662,-60.6765
 L 267.283,-61.2361 L 268.007,-61.6542 L 268.803,-61.9126 L 269.634,-62 L 358.786,-62 L 360.022,-61.8042
 L 360.786,-61.4641 L 361.462,-60.9726 L 362.022,-60.3511 L 362.44,-59.627 L 362.698,-58.8316 L 362.786,-58
 L 362.786,-24.7168 L 362.659,-23.7172 L 362.366,-22.9337 L 361.917,-22.2283 L 361.332,-21.6315 L 360.634,-21.1697
 L 359.857,-20.8628 L 359.032,-20.7244 z
M 1112.29,-20.8628 L 1111.51,-21.1697 L 1110.81,-21.6315 L 1110.23,-22.2283 L 1109.78,-22.9337 L 1109.48,-23.7172
 L 1109.36,-24.7168 L 1109.36,-58 L 1109.44,-58.8316 L 1109.7,-59.627 L 1110.12,-60.3511 L 1110.68,-60.9726
 L 1111.36,-61.4641 L 1112.12,-61.8042 L 1113.36,-62 L 1202.51,-62 L 1203.34,-61.9126 L 1204.14,-61.6542
 L 1204.86,-61.2361 L 1205.48,-60.6765 L 1205.97,-60 L 1206.31,-59.2361 L 1206.49,-58.4181 L 1206.49,-57.5819
 L 1206.31,-56.7639 L 1205.97,-56 L 1205.48,-55.3235 L 1204.86,-54.7639 L 1203.91,-54.2526 L 1114.76,-20.9695
 L 1113.95,-20.7605 L 1113.11,-20.7244 z
M 176.054,-20.7605 L 175.244,-20.9695 L 86.0925,-54.2526 L 85.1403,-54.7639 L 84.5189,-55.3235 L 84.0274,-56
 L 83.6872,-56.7639 L 83.5134,-57.5819 L 83.5134,-58.4181 L 83.6872,-59.2361 L 84.0274,-60 L 84.5189,-60.6765
 L 85.1403,-61.2361 L 85.8645,-61.6542 L 86.6598,-61.9126 L 87.4915,-62 L 176.643,-62 L 177.879,-61.8042
 L 178.643,-61.4641 L 179.319,-60.9726 L 179.879,-60.3511 L 180.297,-59.627 L 180.555,-58.8316 L 180.643,-58
 L 180.643,-24.7168 L 180.516,-23.7172 L 180.223,-22.9337 L 179.774,-22.2283 L 179.189,-21.6315 L 178.492,-21.1697
 L 177.714,-20.8628 L 176.889,-20.7244 z
M 930.143,-20.8628 L 929.366,-21.1697 L 928.668,-21.6315 L 928.083,-22.2283 L 927.634,-22.9337 L 927.341,-23.7172
 L 927.214,-24.7168 L 927.214,-58 L 927.302,-58.8316 L 927.56,-59.627 L 927.978,-60.3511 L 928.538,-60.9726
 L 929.214,-61.4641 L 929.978,-61.8042 L 931.214,-62 L 1020.37,-62 L 1021.2,-61.9126 L 1021.99,-61.6542
 L 1022.72,-61.2361 L 1023.34,-60.6765 L 1023.83,-60 L 1024.17,-59.2361 L 1024.34,-58.4181 L 1024.34,-57.5819
 L 1024.17,-56.7639 L 1023.83,-56 L 1023.34,-55.3235 L 1022.72,-54.7639 L 1021.76,-54.2526 L 932.613,-20.9695
 L 931.804,-20.7605 L 930.968,-20.7244 z
M 566.51,-18.6059 L 565.692,-18.7798 L 564.929,-19.1199 L 564.252,-19.6114 L 563.692,-20.2328 L 563.274,-20.957
 L 563.016,-21.7523 L 562.929,-22.584 L 562.929,-57.416 L 563.055,-58.4157 L 563.348,-59.1991 L 563.797,-59.9046
 L 564.383,-60.5013 L 565.08,-60.9632 L 565.858,-61.27 L 566.682,-61.4084 L 567.518,-61.3724 L 568.328,-61.1634
 L 614.978,-43.7474 L 615.427,-43.5471 L 616.124,-43.0853 L 616.71,-42.4885 L 617.159,-41.7831 L 617.452,-40.9996
 L 617.575,-40.1725 L 617.523,-39.3379 L 617.3,-38.5322 L 616.913,-37.7906 L 616.381,-37.1456 L 615.726,-36.6254
 L 614.978,-36.2526 L 568.328,-18.8366 L 567.347,-18.6059 z
M 722.482,-18.6276 L 721.672,-18.8366 L 675.022,-36.2526 L 674.573,-36.4529 L 673.876,-36.9147 L 673.29,-37.5115
 L 672.841,-38.2169 L 672.548,-39.0004 L 672.425,-39.8275 L 672.477,-40.6621 L 672.7,-41.4678 L 673.087,-42.2094
 L 673.619,-42.8544 L 674.274,-43.3746 L 675.022,-43.7474 L 721.672,-61.1634 L 722.653,-61.3941 L 723.49,-61.3941
 L 724.307,-61.2203 L 725.071,-60.8801 L 725.748,-60.3886 L 726.307,-59.7672 L 726.726,-59.043 L 726.984,-58.2477
 L 727.071,-57.416 L 727.071,-22.584 L 726.944,-21.5843 L 726.652,-20.8009 L 726.203,-20.0954 L 725.617,-19.4987
 L 724.92,-19.0368 L 724.142,-18.73 L 723.318,-18.5916 z
M 202.643,-18 L 201.407,-18.1958 L 200.643,-18.5359 L 199.966,-19.0274 L 199.407,-19.6489 L 198.989,-20.373
 L 198.73,-21.1684 L 198.643,-22 L 198.643,-55.2832 L 198.77,-56.2828 L 199.062,-57.0662 L 199.511,-57.7717
 L 200.097,-58.3684 L 200.794,-58.8303 L 201.572,-59.1372 L 202.397,-59.2756 L 203.232,-59.2395 L 204.042,-59.0305
 L 293.193,-25.7474 L 294.145,-25.2361 L 294.767,-24.6765 L 295.258,-24 L 295.598,-23.2361 L 295.772,-22.4181
 L 295.772,-21.5819 L 295.598,-20.7639 L 295.258,-20 L 294.767,-19.3235 L 294.145,-18.7639 L 293.421,-18.3458
 L 292.626,-18.0874 L 291.794,-18 z
M 384.786,-18 L 383.55,-18.1958 L 382.786,-18.5359 L 382.109,-19.0274 L 381.55,-19.6489 L 381.132,-20.373
 L 380.873,-21.1684 L 380.786,-22 L 380.786,-55.2832 L 380.913,-56.2828 L 381.205,-57.0662 L 381.654,-57.7717
 L 382.24,-58.3684 L 382.937,-58.8303 L 383.715,-59.1372 L 384.54,-59.2756 L 385.375,-59.2395 L 386.185,-59.0305
 L 475.336,-25.7474 L 476.288,-25.2361 L 476.91,-24.6765 L 477.401,-24 L 477.741,-23.2361 L 477.915,-22.4181
 L 477.915,-21.5819 L 477.741,-20.7639 L 477.401,-20 L 476.91,-19.3235 L 476.288,-18.7639 L 475.564,-18.3458
 L 474.769,-18.0874 L 473.937,-18 z
M 816.063,-18 L 815.231,-18.0874 L 814.436,-18.3458 L 813.712,-18.7639 L 813.09,-19.3235 L 812.599,-20
 L 812.259,-20.7639 L 812.085,-21.5819 L 812.085,-22.4181 L 812.259,-23.2361 L 812.599,-24 L 813.09,-24.6765
 L 813.712,-25.2361 L 814.664,-25.7474 L 903.815,-59.0305 L 904.625,-59.2395 L 905.46,-59.2756 L 906.285,-59.1372
 L 907.063,-58.8303 L 907.76,-58.3684 L 908.346,-57.7717 L 908.795,-57.0662 L 909.087,-56.2828 L 909.214,-55.2832
 L 909.214,-22 L 909.127,-21.1684 L 908.868,-20.373 L 908.45,-19.6489 L 907.891,-19.0274 L 907.214,-18.5359
 L 906.45,-18.1958 L 905.214,-18 z
M 998.206,-18 L 997.374,-18.0874 L 996.579,-18.3458 L 995.855,-18.7639 L 995.233,-19.3235 L 994.742,-20
 L 994.402,-20.7639 L 994.228,-21.5819 L 994.228,-22.4181 L 994.402,-23.2361 L 994.742,-24 L 995.233,-24.6765
 L 995.855,-25.2361 L 996.807,-25.7474 L 1085.96,-59.0305 L 1086.77,-59.2395 L 1087.6,-59.2756 L 1088.43,-59.1372
 L 1089.21,-58.8303 L 1089.9,-58.3684 L 1090.49,-57.7717 L 1090.94,-57.0662 L 1091.23,-56.2828 L 1091.36,-55.2832
 L 1091.36,-22 L 1091.27,-21.1684 L 1091.01,-20.373 L 1090.59,-19.6489 L 1090.03,-19.0274 L 1089.36,-18.5359
 L 1088.59,-18.1958 L 1087.36,-18 z
M 22,-18 L 20.7639,-18.1958 L 20,-18.5359 L 19.3235,-19.0274 L 18.7639,-19.6489 L 18.3458,-20.373
 L 18.0874,-21.1684 L 18,-22 L 18,-54.7232 L 18.1269,-55.7228 L 18.4194,-56.5062 L 18.8684,-57.2117
 L 19.4542,-57.8084 L 20.1513,-58.2703 L 20.9292,-58.5772 L 21.7539,-58.7156 L 22.5893,-58.6795 L 23.399,-58.4705
 L 111.05,-25.7474 L 112.002,-25.2361 L 112.624,-24.6765 L 113.115,-24 L 113.456,-23.2361 L 113.629,-22.4181
 L 113.629,-21.5819 L 113.456,-20.7639 L 113.115,-20 L 112.624,-19.3235 L 112.002,-18.7639 L 111.278,-18.3458
 L 110.483,-18.0874 L 109.651,-18 z
M 1180.35,-18 L 1179.52,-18.0874 L 1178.72,-18.3458 L 1178,-18.7639 L 1177.38,-19.3235 L 1176.88,-20
 L 1176.54,-20.7639 L 1176.37,-21.5819 L 1176.37,-22.4181 L 1176.54,-23.2361 L 1176.88,-24 L 1177.38,-24.6765
 L 1178,-25.2361 L 1178.95,-25.7474 L 1266.6,-58.4705 L 1267.41,-58.6795 L 1268.25,-58.7156 L 1269.07,-58.5772
 L 1269.85,-58.2703 L 1270.55,-57.8084 L 1271.13,-57.2117 L 1271.58,-56.5062 L 1271.87,-55.7228 L 1272,-54.7232
 L 1272,-22 L 1271.91,-21.1684 L 1271.65,-20.373 L 1271.24,-19.6489 L 1270.68,-19.0274 L 1270,-18.5359
 L 1269.24,-18.1958 L 1268,-18 z
M 628.207,-18 L 627.136,-18.146 L 626.358,-18.4529 L 625.661,-18.9147 L 625.075,-19.5115 L 624.626,-20.2169
 L 624.334,-21.0004 L 624.211,-21.8275 L 624.262,-22.6621 L 624.486,-23.4678 L 624.873,-24.2094 L 625.405,-24.8544
 L 626.059,-25.3746 L 626.808,-25.7474 L 643.601,-32.0167 L 644.754,-32.2618 L 645.589,-32.2257 L 646.399,-32.0167
 L 663.192,-25.7474 L 664.144,-25.2361 L 664.765,-24.6765 L 665.257,-24 L 665.597,-23.2361 L 665.771,-22.4181
 L 665.771,-21.5819 L 665.597,-20.7639 L 665.257,-20 L 664.765,-19.3235 L 664.144,-18.7639 L 663.42,-18.3458
 L 662.625,-18.0874 L 661.793,-18 z
" stroke="black" fill="lightgray" stroke-width="0.5"/>
</svg>
