<?xml version="1.0" standalone="no"?>
<!DOCTYPE svg PUBLIC "-//W3C//DTD SVG 1.1//EN" "http://www.w3.org/Graphics/SVG/1.1/DTD/svg11.dtd">
<svg width="1540mm" height="80mm" viewBox="0 -80 1540 80" xmlns="http://www.w3.org/2000/svg" version="1.1">
<title>OpenSCAD Model</title>
<path d="
M 1540,-80 L 0,-80 L 0,-0 L 4.95,-0 L 4.95,-6 L 5.00572,-6.53017
 L 5.17046,-7.03717 L 5.437,-7.49884 L 5.79372,-7.895 L 6.22499,-8.20836 L 6.71201,-8.42519 L 7.23344,-8.53603
 L 7.76654,-8.53603 L 8.28798,-8.42519 L 8.77499,-8.20836 L 9.20627,-7.895 L 9.56299,-7.49884 L 9.82953,-7.03717
 L 9.99426,-6.53017 L 10.05,-6 L 10.05,-0 L 195.575,-0 L 195.575,-6 L 195.631,-6.53017
 L 195.795,-7.03717 L 196.062,-7.49884 L 196.419,-7.895 L 196.85,-8.20836 L 197.337,-8.42519 L 197.858,-8.53603
 L 198.392,-8.53603 L 198.913,-8.42519 L 199.4,-8.20836 L 199.831,-7.895 L 200.188,-7.49884 L 200.455,-7.03717
 L 200.619,-6.53017 L 200.675,-6 L 200.675,-0 L 386.2,-0 L 386.2,-6 L 386.256,-6.53017
 L 386.42,-7.03717 L 386.687,-7.49884 L 387.044,-7.895 L 387.475,-8.20836 L 387.962,-8.42519 L 388.483,-8.53603
 L 389.017,-8.53603 L 389.538,-8.42519 L 390.025,-8.20836 L 390.456,-7.895 L 390.813,-7.49884 L 391.08,-7.03717
 L 391.244,-6.53017 L 391.3,-6 L 391.3,-0 L 576.825,-0 L 576.825,-6 L 576.881,-6.53017
 L 577.045,-7.03717 L 577.312,-7.49884 L 577.669,-7.895 L 578.1,-8.20836 L 578.587,-8.42519 L 579.108,-8.53603
 L 579.642,-8.53603 L 580.163,-8.42519 L 580.65,-8.20836 L 581.081,-7.895 L 581.438,-7.49884 L 581.705,-7.03717
 L 581.869,-6.53017 L 581.925,-6 L 581.925,-0 L 767.45,-0 L 767.45,-6 L 767.506,-6.53017
 L 767.67,-7.03717 L 767.937,-7.49884 L 768.294,-7.895 L 768.725,-8.20836 L 769.212,-8.42519 L 769.733,-8.53603
 L 770.267,-8.53603 L 770.788,-8.42519 L 771.275,-8.20836 L 771.706,-7.895 L 772.063,-7.49884 L 772.33,-7.03717
 L 772.494,-6.53017 L 772.55,-6 L 772.55,-0 L 958.075,-0 L 958.075,-6 L 958.131,-6.53017
 L 958.295,-7.03717 L 958.562,-7.49884 L 958.919,-7.895 L 959.35,-8.20836 L 959.837,-8.42519 L 960.358,-8.53603
 L 960.892,-8.53603 L 961.413,-8.42519 L 961.9,-8.20836 L 962.331,-7.895 L 962.688,-7.49884 L 962.955,-7.03717
 L 963.119,-6.53017 L 963.175,-6 L 963.175,-0 L 1148.7,-0 L 1148.7,-6 L 1148.76,-6.53017
 L 1148.92,-7.03717 L 1149.19,-7.49884 L 1149.54,-7.895 L 1149.97,-8.20836 L 1150.46,-8.42519 L 1150.98,-8.53603
 L 1151.52,-8.53603 L 1152.04,-8.42519 L 1152.52,-8.20836 L 1152.96,-7.895 L 1153.31,-7.49884 L 1153.58,-7.03717
 L 1153.74,-6.53017 L 1153.8,-6 L 1153.8,-0 L 1339.32,-0 L 1339.32,-6 L 1339.38,-6.53017
 L 1339.55,-7.03717 L 1339.81,-7.49884 L 1340.17,-7.895 L 1340.6,-8.20836 L 1341.09,-8.42519 L 1341.61,-8.53603
 L 1342.14,-8.53603 L 1342.66,-8.42519 L 1343.15,-8.20836 L 1343.58,-7.895 L 1343.94,-7.49884 L 1344.2,-7.03717
 L 1344.37,-6.53017 L 1344.42,-6 L 1344.42,-0 L 1529.95,-0 L 1529.95,-6 L 1530.01,-6.53017
 L 1530.17,-7.03717 L 1530.44,-7.49884 L 1530.79,-7.895 L 1531.22,-8.20836 L 1531.71,-8.42519 L 1532.23,-8.53603
 L 1532.77,-8.53603 L 1533.29,-8.42519 L 1533.77,-8.20836 L 1534.21,-7.895 L 1534.56,-7.49884 L 1534.83,-7.03717
 L 1534.99,-6.53017 L 1535.05,-6 L 1535.05,-0 L 1540,-0 z
M 197.611,-55.607 L 197.102,-55.6875 L 196.605,-55.8208 L 196.124,-56.0054 L 195.665,-56.2392 L 195.233,-56.5196
 L 194.833,-56.8437 L 194.469,-57.2079 L 194.145,-57.6081 L 193.864,-58.04 L 193.63,-58.4989 L 193.446,-58.9796
 L 193.313,-59.4771 L 193.232,-59.9857 L 193.205,-60.5 L 193.232,-61.0143 L 193.313,-61.5229 L 193.446,-62.0204
 L 193.63,-62.5011 L 193.864,-62.96 L 194.145,-63.3919 L 194.469,-63.7921 L 194.833,-64.1563 L 195.233,-64.4804
 L 195.575,-64.7024 L 195.575,-74 L 195.631,-74.5302 L 195.795,-75.0372 L 196.062,-75.4988 L 196.419,-75.895
 L 196.85,-76.2084 L 197.337,-76.4252 L 197.858,-76.536 L 198.392,-76.536 L 198.913,-76.4252 L 199.4,-76.2084
 L 199.831,-75.895 L 200.188,-75.4988 L 200.455,-75.0372 L 200.619,-74.5302 L 200.675,-74 L 200.675,-64.7024
 L 201.017,-64.4804 L 201.417,-64.1563 L 201.781,-63.7921 L 202.105,-63.3919 L 202.386,-62.96 L 202.62,-62.5011
 L 202.804,-62.0204 L 202.937,-61.5229 L 203.018,-61.0143 L 203.045,-60.5 L 203.018,-59.9857 L 202.937,-59.4771
 L 202.804,-58.9796 L 202.62,-58.4989 L 202.386,-58.04 L 202.105,-57.6081 L 201.781,-57.2079 L 201.417,-56.8437
 L 201.017,-56.5196 L 200.585,-56.2392 L 200.126,-56.0054 L 199.645,-55.8208 L 199.148,-55.6875 L 198.639,-55.607
 L 198.125,-55.58 z
M 1150.74,-55.607 L 1150.23,-55.6875 L 1149.73,-55.8208 L 1149.25,-56.0054 L 1148.79,-56.2392 L 1148.36,-56.5196
 L 1147.96,-56.8437 L 1147.59,-57.2079 L 1147.27,-57.6081 L 1146.99,-58.04 L 1146.76,-58.4989 L 1146.57,-58.9796
 L 1146.44,-59.4771 L 1146.36,-59.9857 L 1146.33,-60.5 L 1146.36,-61.0143 L 1146.44,-61.5229 L 1146.57,-62.0204
 L 1146.76,-62.5011 L 1146.99,-62.96 L 1147.27,-63.3919 L 1147.59,-63.7921 L 1147.96,-64.1563 L 1148.36,-64.4804
 L 1148.7,-64.7024 L 1148.7,-74 L 1148.76,-74.5302 L 1148.92,-75.0372 L 1149.19,-75.4988 L 1149.54,-75.895
 L 1149.98,-76.2084 L 1150.46,-76.4252 L 1150.98,-76.536 L 1151.52,-76.536 L 1152.04,-76.4252 L 1152.52,-76.2084
 L 1152.96,-75.895 L 1153.31,-75.4988 L 1153.58,-75.0372 L 1153.74,-74.5302 L 1153.8,-74 L 1153.8,-64.7024
 L 1154.14,-64.4804 L 1154.54,-64.1563 L 1154.91,-63.7921 L 1155.23,-63.3919 L 1155.51,-62.96 L 1155.74,-62.5011
 L 1155.93,-62.0204 L 1156.06,-61.5229 L 1156.14,-61.0143 L 1156.17,-60.5 L 1156.14,-59.9857 L 1156.06,-59.4771
 L 1155.93,-58.9796 L 1155.74,-58.4989 L 1155.51,-58.04 L 1155.23,-57.6081 L 1154.91,-57.2079 L 1154.54,-56.8437
 L 1154.14,-56.5196 L 1153.71,-56.2392 L 1153.25,-56.0054 L 1152.77,-55.8208 L 1152.27,-55.6875 L 1151.76,-55.607
 L 1151.25,-55.58 z
M 960.111,-55.607 L 959.602,-55.6875 L 959.105,-55.8208 L 958.624,-56.0054 L 958.165,-56.2392 L 957.733,-56.5196
 L 957.333,-56.8437 L 956.969,-57.2079 L 956.645,-57.6081 L 956.364,-58.04 L 956.13,-58.4989 L 955.946,-58.9796
 L 955.813,-59.4771 L 955.732,-59.9857 L 955.705,-60.5 L 955.732,-61.0143 L 955.813,-61.5229 L 955.946,-62.0204
 L 956.13,-62.5011 L 956.364,-62.96 L 956.645,-63.3919 L 956.969,-63.7921 L 957.333,-64.1563 L 957.733,-64.4804
 L 958.075,-64.7024 L 958.075,-74 L 958.131,-74.5302 L 958.295,-75.0372 L 958.562,-75.4988 L 958.919,-75.895
 L 959.35,-76.2084 L 959.837,-76.4252 L 960.358,-76.536 L 960.892,-76.536 L 961.413,-76.4252 L 961.9,-76.2084
 L 962.331,-75.895 L 962.688,-75.4988 L 962.955,-75.0372 L 963.119,-74.5302 L 963.175,-74 L 963.175,-64.7024
 L 963.517,-64.4804 L 963.917,-64.1563 L 964.281,-63.7921 L 964.605,-63.3919 L 964.886,-62.96 L 965.12,-62.5011
 L 965.304,-62.0204 L 965.437,-61.5229 L 965.518,-61.0143 L 965.545,-60.5 L 965.518,-59.9857 L 965.437,-59.4771
 L 965.304,-58.9796 L 965.12,-58.4989 L 964.886,-58.04 L 964.605,-57.6081 L 964.281,-57.2079 L 963.917,-56.8437
 L 963.517,-56.5196 L 963.085,-56.2392 L 962.626,-56.0054 L 962.145,-55.8208 L 961.648,-55.6875 L 961.139,-55.607
 L 960.625,-55.58 z
M 6.98573,-55.607 L 6.47708,-55.6875 L 5.97964,-55.8208 L 5.49887,-56.0054 L 5.04001,-56.2392 L 4.60811,-56.5196
 L 4.20789,-56.8437 L 3.84373,-57.2079 L 3.51964,-57.6081 L 3.23917,-58.04 L 3.00537,-58.4989 L 2.82082,-58.9796
 L 2.68752,-59.4771 L 2.60696,-59.9857 L 2.58,-60.5 L 2.60696,-61.0143 L 2.68752,-61.5229 L 2.82082,-62.0204
 L 3.00537,-62.5011 L 3.23917,-62.96 L 3.51964,-63.3919 L 3.84373,-63.7921 L 4.20789,-64.1563 L 4.60811,-64.4804
 L 4.95001,-64.7024 L 4.95001,-74 L 5.00574,-74.5302 L 5.17047,-75.0372 L 5.43701,-75.4988 L 5.79373,-75.895
 L 6.22501,-76.2084 L 6.71202,-76.4252 L 7.23346,-76.536 L 7.76654,-76.536 L 8.28798,-76.4252 L 8.77499,-76.2084
 L 9.20627,-75.895 L 9.56299,-75.4988 L 9.82953,-75.0372 L 9.99426,-74.5302 L 10.05,-74 L 10.05,-64.7024
 L 10.3919,-64.4804 L 10.7921,-64.1563 L 11.1563,-63.7921 L 11.4804,-63.3919 L 11.7608,-62.96 L 11.9946,-62.5011
 L 12.1792,-62.0204 L 12.3125,-61.5229 L 12.393,-61.0143 L 12.42,-60.5 L 12.393,-59.9857 L 12.3125,-59.4771
 L 12.1792,-58.9796 L 11.9946,-58.4989 L 11.7608,-58.04 L 11.4804,-57.6081 L 11.1563,-57.2079 L 10.7921,-56.8437
 L 10.3919,-56.5196 L 9.95999,-56.2392 L 9.50113,-56.0054 L 9.02036,-55.8208 L 8.52292,-55.6875 L 8.01427,-55.607
 L 7.5,-55.58 z
M 769.486,-55.607 L 768.977,-55.6875 L 768.48,-55.8208 L 767.999,-56.0054 L 767.54,-56.2392 L 767.108,-56.5196
 L 766.708,-56.8437 L 766.344,-57.2079 L 766.02,-57.6081 L 765.739,-58.04 L 765.505,-58.4989 L 765.321,-58.9796
 L 765.188,-59.4771 L 765.107,-59.9857 L 765.08,-60.5 L 765.107,-61.0143 L 765.188,-61.5229 L 765.321,-62.0204
 L 765.505,-62.5011 L 765.739,-62.96 L 766.02,-63.3919 L 766.344,-63.7921 L 766.708,-64.1563 L 767.108,-64.4804
 L 767.45,-64.7024 L 767.45,-74 L 767.506,-74.5302 L 767.67,-75.0372 L 767.937,-75.4988 L 768.294,-75.895
 L 768.725,-76.2084 L 769.212,-76.4252 L 769.733,-76.536 L 770.267,-76.536 L 770.788,-76.4252 L 771.275,-76.2084
 L 771.706,-75.895 L 772.063,-75.4988 L 772.33,-75.0372 L 772.494,-74.5302 L 772.55,-74 L 772.55,-64.7024
 L 772.892,-64.4804 L 773.292,-64.1563 L 773.656,-63.7921 L 773.98,-63.3919 L 774.261,-62.96 L 774.495,-62.5011
 L 774.679,-62.0204 L 774.812,-61.5229 L 774.893,-61.0143 L 774.92,-60.5 L 774.893,-59.9857 L 774.812,-59.4771
 L 774.679,-58.9796 L 774.495,-58.4989 L 774.261,-58.04 L 773.98,-57.6081 L 773.656,-57.2079 L 773.292,-56.8437
 L 772.892,-56.5196 L 772.46,-56.2392 L 772.001,-56.0054 L 771.52,-55.8208 L 771.023,-55.6875 L 770.514,-55.607
 L 770,-55.58 z
M 1341.36,-55.607 L 1340.85,-55.6875 L 1340.35,-55.8208 L 1339.87,-56.0054 L 1339.42,-56.2392 L 1338.98,-56.5196
 L 1338.58,-56.8437 L 1338.22,-57.2079 L 1337.89,-57.6081 L 1337.61,-58.04 L 1337.38,-58.4989 L 1337.2,-58.9796
 L 1337.06,-59.4771 L 1336.98,-59.9857 L 1336.96,-60.5 L 1336.98,-61.0143 L 1337.06,-61.5229 L 1337.2,-62.0204
 L 1337.38,-62.5011 L 1337.61,-62.96 L 1337.89,-63.3919 L 1338.22,-63.7921 L 1338.58,-64.1563 L 1338.98,-64.4804
 L 1339.33,-64.7024 L 1339.33,-74 L 1339.38,-74.5302 L 1339.55,-75.0372 L 1339.81,-75.4988 L 1340.17,-75.895
 L 1340.6,-76.2084 L 1341.09,-76.4252 L 1341.61,-76.536 L 1342.14,-76.536 L 1342.66,-76.4252 L 1343.15,-76.2084
 L 1343.58,-75.895 L 1343.94,-75.4988 L 1344.2,-75.0372 L 1344.37,-74.5302 L 1344.42,-74 L 1344.42,-64.7024
 L 1344.77,-64.4804 L 1345.17,-64.1563 L 1345.53,-63.7921 L 1345.86,-63.3919 L 1346.14,-62.96 L 1346.37,-62.5011
 L 1346.55,-62.0204 L 1346.69,-61.5229 L 1346.77,-61.0143 L 1346.79,-60.5 L 1346.77,-59.9857 L 1346.69,-59.4771
 L 1346.55,-58.9796 L 1346.37,-58.4989 L 1346.14,-58.04 L 1345.86,-57.6081 L 1345.53,-57.2079 L 1345.17,-56.8437
 L 1344.77,-56.5196 L 1344.33,-56.2392 L 1343.88,-56.0054 L 1343.4,-55.8208 L 1342.9,-55.6875 L 1342.39,-55.607
 L 1341.88,-55.58 z
M 578.861,-55.607 L 578.352,-55.6875 L 577.855,-55.8208 L 577.374,-56.0054 L 576.915,-56.2392 L 576.483,-56.5196
 L 576.083,-56.8437 L 575.719,-57.2079 L 575.395,-57.6081 L 575.114,-58.04 L 574.88,-58.4989 L 574.696,-58.9796
 L 574.563,-59.4771 L 574.482,-59.9857 L 574.455,-60.5 L 574.482,-61.0143 L 574.563,-61.5229 L 574.696,-62.0204
 L 574.88,-62.5011 L 575.114,-62.96 L 575.395,-63.3919 L 575.719,-63.7921 L 576.083,-64.1563 L 576.483,-64.4804
 L 576.825,-64.7024 L 576.825,-74 L 576.881,-74.5302 L 577.045,-75.0372 L 577.312,-75.4988 L 577.669,-75.895
 L 578.1,-76.2084 L 578.587,-76.4252 L 579.108,-76.536 L 579.642,-76.536 L 580.163,-76.4252 L 580.65,-76.2084
 L 581.081,-75.895 L 581.438,-75.4988 L 581.705,-75.0372 L 581.869,-74.5302 L 581.925,-74 L 581.925,-64.7024
 L 582.267,-64.4804 L 582.667,-64.1563 L 583.031,-63.7921 L 583.355,-63.3919 L 583.636,-62.96 L 583.87,-62.5011
 L 584.054,-62.0204 L 584.187,-61.5229 L 584.268,-61.0143 L 584.295,-60.5 L 584.268,-59.9857 L 584.187,-59.4771
 L 584.054,-58.9796 L 583.87,-58.4989 L 583.636,-58.04 L 583.355,-57.6081 L 583.031,-57.2079 L 582.667,-56.8437
 L 582.267,-56.5196 L 581.835,-56.2392 L 581.376,-56.0054 L 580.895,-55.8208 L 580.398,-55.6875 L 579.889,-55.607
 L 579.375,-55.58 z
M 388.236,-55.607 L 387.727,-55.6875 L 387.23,-55.8208 L 386.749,-56.0054 L 386.29,-56.2392 L 385.858,-56.5196
 L 385.458,-56.8437 L 385.094,-57.2079 L 384.77,-57.6081 L 384.489,-58.04 L 384.255,-58.4989 L 384.071,-58.9796
 L 383.938,-59.4771 L 383.857,-59.9857 L 383.83,-60.5 L 383.857,-61.0143 L 383.938,-61.5229 L 384.071,-62.0204
 L 384.255,-62.5011 L 384.489,-62.96 L 384.77,-63.3919 L 385.094,-63.7921 L 385.458,-64.1563 L 385.858,-64.4804
 L 386.2,-64.7024 L 386.2,-74 L 386.256,-74.5302 L 386.42,-75.0372 L 386.687,-75.4988 L 387.044,-75.895
 L 387.475,-76.2084 L 387.962,-76.4252 L 388.483,-76.536 L 389.017,-76.536 L 389.538,-76.4252 L 390.025,-76.2084
 L 390.456,-75.895 L 390.813,-75.4988 L 391.08,-75.0372 L 391.244,-74.5302 L 391.3,-74 L 391.3,-64.7024
 L 391.642,-64.4804 L 392.042,-64.1563 L 392.406,-63.7921 L 392.73,-63.3919 L 393.011,-62.96 L 393.245,-62.5011
 L 393.429,-62.0204 L 393.562,-61.5229 L 393.643,-61.0143 L 393.67,-60.5 L 393.643,-59.9857 L 393.562,-59.4771
 L 393.429,-58.9796 L 393.245,-58.4989 L 393.011,-58.04 L 392.73,-57.6081 L 392.406,-57.2079 L 392.042,-56.8437
 L 391.642,-56.5196 L 391.21,-56.2392 L 390.751,-56.0054 L 390.27,-55.8208 L 389.773,-55.6875 L 389.264,-55.607
 L 388.75,-55.58 z
M 1531.99,-55.607 L 1531.48,-55.6875 L 1530.98,-55.8208 L 1530.5,-56.0054 L 1530.04,-56.2392 L 1529.61,-56.5196
 L 1529.21,-56.8437 L 1528.84,-57.2079 L 1528.52,-57.6081 L 1528.24,-58.04 L 1528.01,-58.4989 L 1527.82,-58.9796
 L 1527.69,-59.4771 L 1527.61,-59.9857 L 1527.58,-60.5 L 1527.61,-61.0143 L 1527.69,-61.5229 L 1527.82,-62.0204
 L 1528.01,-62.5011 L 1528.24,-62.96 L 1528.52,-63.3919 L 1528.84,-63.7921 L 1529.21,-64.1563 L 1529.61,-64.4804
 L 1529.95,-64.7024 L 1529.95,-74 L 1530.01,-74.5302 L 1530.17,-75.0372 L 1530.44,-75.4988 L 1530.79,-75.895
 L 1531.23,-76.2084 L 1531.71,-76.4252 L 1532.23,-76.536 L 1532.77,-76.536 L 1533.29,-76.4252 L 1533.77,-76.2084
 L 1534.21,-75.895 L 1534.56,-75.4988 L 1534.83,-75.0372 L 1534.99,-74.5302 L 1535.05,-74 L 1535.05,-64.7024
 L 1535.39,-64.4804 L 1535.79,-64.1563 L 1536.16,-63.7921 L 1536.48,-63.3919 L 1536.76,-62.96 L 1536.99,-62.5011
 L 1537.18,-62.0204 L 1537.31,-61.5229 L 1537.39,-61.0143 L 1537.42,-60.5 L 1537.39,-59.9857 L 1537.31,-59.4771
 L 1537.18,-58.9796 L 1536.99,-58.4989 L 1536.76,-58.04 L 1536.48,-57.6081 L 1536.16,-57.2079 L 1535.79,-56.8437
 L 1535.39,-56.5196 L 1534.96,-56.2392 L 1534.5,-56.0054 L 1534.02,-55.8208 L 1533.52,-55.6875 L 1533.01,-55.607
 L 1532.5,-55.58 z
M 375.219,-20.4696 L 374.406,-20.6667 L 280.311,-54.2325 L 279.303,-54.7639 L 278.682,-55.3235 L 278.19,-56
 L 277.85,-56.7639 L 277.676,-57.5819 L 277.676,-58.4181 L 277.85,-59.2361 L 278.19,-60 L 278.682,-60.6765
 L 279.303,-61.2361 L 280.028,-61.6542 L 280.823,-61.9126 L 281.654,-62 L 375.75,-62 L 376.986,-61.8042
 L 377.75,-61.4641 L 378.427,-60.9726 L 378.986,-60.3511 L 379.404,-59.627 L 379.663,-58.8316 L 379.75,-58
 L 379.75,-24.4341 L 379.637,-23.4914 L 379.356,-22.7038 L 378.918,-21.9918 L 378.341,-21.3865 L 377.651,-20.9145
 L 376.877,-20.5962 L 376.055,-20.4457 z
M 565.844,-20.4696 L 565.031,-20.6667 L 470.936,-54.2325 L 469.928,-54.7639 L 469.307,-55.3235 L 468.815,-56
 L 468.475,-56.7639 L 468.301,-57.5819 L 468.301,-58.4181 L 468.475,-59.2361 L 468.815,-60 L 469.307,-60.6765
 L 469.928,-61.2361 L 470.653,-61.6542 L 471.448,-61.9126 L 472.279,-62 L 566.375,-62 L 567.611,-61.8042
 L 568.375,-61.4641 L 569.052,-60.9726 L 569.611,-60.3511 L 570.029,-59.627 L 570.288,-58.8316 L 570.375,-58
 L 570.375,-24.4341 L 570.262,-23.4914 L 569.981,-22.7038 L 569.543,-21.9918 L 568.966,-21.3865 L 568.276,-20.9145
 L 567.502,-20.5962 L 566.68,-20.4457 z
M 1353.75,-20.5962 L 1352.97,-20.9145 L 1352.28,-21.3865 L 1351.71,-21.9918 L 1351.27,-22.7038 L 1350.99,-23.4914
 L 1350.88,-24.4341 L 1350.88,-58 L 1350.96,-58.8316 L 1351.22,-59.627 L 1351.64,-60.3511 L 1352.2,-60.9726
 L 1352.88,-61.4641 L 1353.64,-61.8042 L 1354.88,-62 L 1448.97,-62 L 1449.8,-61.9126 L 1450.6,-61.6542
 L 1451.32,-61.2361 L 1451.94,-60.6765 L 1452.43,-60 L 1452.77,-59.2361 L 1452.95,-58.4181 L 1452.95,-57.5819
 L 1452.77,-56.7639 L 1452.43,-56 L 1451.94,-55.3235 L 1451.32,-54.7639 L 1450.31,-54.2325 L 1356.22,-20.6667
 L 1355.41,-20.4696 L 1354.57,-20.4457 z
M 756.469,-20.4696 L 755.656,-20.6667 L 661.561,-54.2325 L 660.553,-54.7639 L 659.932,-55.3235 L 659.44,-56
 L 659.1,-56.7639 L 658.926,-57.5819 L 658.926,-58.4181 L 659.1,-59.2361 L 659.44,-60 L 659.932,-60.6765
 L 660.553,-61.2361 L 661.278,-61.6542 L 662.073,-61.9126 L 662.904,-62 L 757,-62 L 758.236,-61.8042
 L 759,-61.4641 L 759.677,-60.9726 L 760.236,-60.3511 L 760.654,-59.627 L 760.913,-58.8316 L 761,-58
 L 761,-24.4341 L 760.887,-23.4914 L 760.606,-22.7038 L 760.168,-21.9918 L 759.591,-21.3865 L 758.901,-20.9145
 L 758.127,-20.5962 L 757.305,-20.4457 z
M 184.594,-20.4696 L 183.781,-20.6667 L 89.6856,-54.2325 L 88.6784,-54.7639 L 88.0569,-55.3235 L 87.5654,-56
 L 87.2253,-56.7639 L 87.0514,-57.5819 L 87.0514,-58.4181 L 87.2253,-59.2361 L 87.5654,-60 L 88.0569,-60.6765
 L 88.6784,-61.2361 L 89.4025,-61.6542 L 90.1978,-61.9126 L 91.0295,-62 L 185.125,-62 L 186.361,-61.8042
 L 187.125,-61.4641 L 187.802,-60.9726 L 188.361,-60.3511 L 188.779,-59.627 L 189.038,-58.8316 L 189.125,-58
 L 189.125,-24.4341 L 189.012,-23.4914 L 188.731,-22.7038 L 188.293,-21.9918 L 187.716,-21.3865 L 187.026,-20.9145
 L 186.252,-20.5962 L 185.43,-20.4457 z
M 781.873,-20.5962 L 781.099,-20.9145 L 780.409,-21.3865 L 779.832,-21.9918 L 779.394,-22.7038 L 779.113,-23.4914
 L 779,-24.4341 L 779,-58 L 779.087,-58.8316 L 779.346,-59.627 L 779.764,-60.3511 L 780.323,-60.9726
 L 781,-61.4641 L 781.764,-61.8042 L 783,-62 L 877.096,-62 L 877.927,-61.9126 L 878.722,-61.6542
 L 879.447,-61.2361 L 880.068,-60.6765 L 880.56,-60 L 880.9,-59.2361 L 881.074,-58.4181 L 881.074,-57.5819
 L 880.9,-56.7639 L 880.56,-56 L 880.068,-55.3235 L 879.447,-54.7639 L 878.439,-54.2325 L 784.344,-20.6667
 L 783.531,-20.4696 L 782.695,-20.4457 z
M 972.498,-20.5962 L 971.724,-20.9145 L 971.034,-21.3865 L 970.457,-21.9918 L 970.019,-22.7038 L 969.738,-23.4914
 L 969.625,-24.4341 L 969.625,-58 L 969.712,-58.8316 L 969.971,-59.627 L 970.389,-60.3511 L 970.948,-60.9726
 L 971.625,-61.4641 L 972.389,-61.8042 L 973.625,-62 L 1067.72,-62 L 1068.55,-61.9126 L 1069.35,-61.6542
 L 1070.07,-61.2361 L 1070.69,-60.6765 L 1071.18,-60 L 1071.52,-59.2361 L 1071.7,-58.4181 L 1071.7,-57.5819
 L 1071.52,-56.7639 L 1071.18,-56 L 1070.69,-55.3235 L 1070.07,-54.7639 L 1069.06,-54.2325 L 974.969,-20.6667
 L 974.156,-20.4696 L 973.32,-20.4457 z
M 1163.12,-20.5962 L 1162.35,-20.9145 L 1161.66,-21.3865 L 1161.08,-21.9918 L 1160.64,-22.7038 L 1160.36,-23.4914
 L 1160.25,-24.4341 L 1160.25,-58 L 1160.34,-58.8316 L 1160.6,-59.627 L 1161.01,-60.3511 L 1161.57,-60.9726
 L 1162.25,-61.4641 L 1163.01,-61.8042 L 1164.25,-62 L 1258.35,-62 L 1259.18,-61.9126 L 1259.97,-61.6542
 L 1260.7,-61.2361 L 1261.32,-60.6765 L 1261.81,-60 L 1262.15,-59.2361 L 1262.32,-58.4181 L 1262.32,-57.5819
 L 1262.15,-56.7639 L 1261.81,-56 L 1261.32,-55.3235 L 1260.7,-54.7639 L 1259.69,-54.2325 L 1165.59,-20.6667
 L 1164.78,-20.4696 L 1163.95,-20.4457 z
M 211.125,-18 L 209.889,-18.1958 L 209.125,-18.5359 L 208.448,-19.0274 L 207.889,-19.6489 L 207.471,-20.373
 L 207.212,-21.1684 L 207.125,-22 L 207.125,-55.5659 L 207.238,-56.5086 L 207.519,-57.2962 L 207.957,-58.0082
 L 208.534,-58.6135 L 209.224,-59.0855 L 209.998,-59.4037 L 210.82,-59.5542 L 211.656,-59.5304 L 212.469,-59.3333
 L 306.564,-25.7675 L 307.572,-25.2361 L 308.193,-24.6765 L 308.685,-24 L 309.025,-23.2361 L 309.199,-22.4181
 L 309.199,-21.5819 L 309.025,-20.7639 L 308.685,-20 L 308.193,-19.3235 L 307.572,-18.7639 L 306.847,-18.3458
 L 306.052,-18.0874 L 305.22,-18 z
M 401.75,-18 L 400.514,-18.1958 L 399.75,-18.5359 L 399.073,-19.0274 L 398.514,-19.6489 L 398.096,-20.373
 L 397.837,-21.1684 L 397.75,-22 L 397.75,-55.5659 L 397.863,-56.5086 L 398.144,-57.2962 L 398.582,-58.0082
 L 399.159,-58.6135 L 399.849,-59.0855 L 400.623,-59.4037 L 401.445,-59.5542 L 402.281,-59.5304 L 403.094,-59.3333
 L 497.189,-25.7675 L 498.197,-25.2361 L 498.818,-24.6765 L 499.31,-24 L 499.65,-23.2361 L 499.824,-22.4181
 L 499.824,-21.5819 L 499.65,-20.7639 L 499.31,-20 L 498.818,-19.3235 L 498.197,-18.7639 L 497.472,-18.3458
 L 496.677,-18.0874 L 495.845,-18 z
M 592.375,-18 L 591.139,-18.1958 L 590.375,-18.5359 L 589.698,-19.0274 L 589.139,-19.6489 L 588.721,-20.373
 L 588.462,-21.1684 L 588.375,-22 L 588.375,-55.5659 L 588.488,-56.5086 L 588.769,-57.2962 L 589.207,-58.0082
 L 589.784,-58.6135 L 590.474,-59.0855 L 591.248,-59.4037 L 592.07,-59.5542 L 592.906,-59.5304 L 593.719,-59.3333
 L 687.814,-25.7675 L 688.822,-25.2361 L 689.443,-24.6765 L 689.935,-24 L 690.275,-23.2361 L 690.449,-22.4181
 L 690.449,-21.5819 L 690.275,-20.7639 L 689.935,-20 L 689.443,-19.3235 L 688.822,-18.7639 L 688.097,-18.3458
 L 687.302,-18.0874 L 686.47,-18 z
M 853.53,-18 L 852.698,-18.0874 L 851.903,-18.3458 L 851.178,-18.7639 L 850.557,-19.3235 L 850.065,-20
 L 849.725,-20.7639 L 849.551,-21.5819 L 849.551,-22.4181 L 849.725,-23.2361 L 850.065,-24 L 850.557,-24.6765
 L 851.178,-25.2361 L 852.186,-25.7675 L 946.281,-59.3333 L 947.094,-59.5304 L 947.93,-59.5542 L 948.752,-59.4037
 L 949.526,-59.0855 L 950.216,-58.6135 L 950.793,-58.0082 L 951.231,-57.2962 L 951.512,-56.5086 L 951.625,-55.5659
 L 951.625,-22 L 951.538,-21.1684 L 951.279,-20.373 L 950.861,-19.6489 L 950.302,-19.0274 L 949.625,-18.5359
 L 948.861,-18.1958 L 947.625,-18 z
M 1044.15,-18 L 1043.32,-18.0874 L 1042.53,-18.3458 L 1041.8,-18.7639 L 1041.18,-19.3235 L 1040.69,-20
 L 1040.35,-20.7639 L 1040.18,-21.5819 L 1040.18,-22.4181 L 1040.35,-23.2361 L 1040.69,-24 L 1041.18,-24.6765
 L 1041.8,-25.2361 L 1042.81,-25.7675 L 1136.91,-59.3333 L 1137.72,-59.5304 L 1138.55,-59.5542 L 1139.38,-59.4037
 L 1140.15,-59.0855 L 1140.84,-58.6135 L 1141.42,-58.0082 L 1141.86,-57.2962 L 1142.14,-56.5086 L 1142.25,-55.5659
 L 1142.25,-22 L 1142.16,-21.1684 L 1141.9,-20.373 L 1141.49,-19.6489 L 1140.93,-19.0274 L 1140.25,-18.5359
 L 1139.49,-18.1958 L 1138.25,-18 z
M 1234.78,-18 L 1233.95,-18.0874 L 1233.15,-18.3458 L 1232.43,-18.7639 L 1231.81,-19.3235 L 1231.32,-20
 L 1230.98,-20.7639 L 1230.8,-21.5819 L 1230.8,-22.4181 L 1230.98,-23.2361 L 1231.32,-24 L 1231.81,-24.6765
 L 1232.43,-25.2361 L 1233.44,-25.7675 L 1327.53,-59.3333 L 1328.34,-59.5304 L 1329.18,-59.5542 L 1330,-59.4037
 L 1330.78,-59.0855 L 1331.47,-58.6135 L 1332.04,-58.0082 L 1332.48,-57.2962 L 1332.76,-56.5086 L 1332.88,-55.5659
 L 1332.88,-22 L 1332.79,-21.1684 L 1332.53,-20.373 L 1332.11,-19.6489 L 1331.55,-19.0274 L 1330.88,-18.5359
 L 1330.11,-18.1958 L 1328.88,-18 z
M 1425.4,-18 L 1424.57,-18.0874 L 1423.78,-18.3458 L 1423.05,-18.7639 L 1422.43,-19.3235 L 1421.94,-20
 L 1421.6,-20.7639 L 1421.43,-21.5819 L 1421.43,-22.4181 L 1421.6,-23.2361 L 1421.94,-24 L 1422.43,-24.6765
 L 1423.05,-25.2361 L 1424.06,-25.7675 L 1516.66,-58.7982 L 1517.47,-58.9953 L 1518.3,-59.0192 L 1519.13,-58.8687
 L 1519.9,-58.5504 L 1520.59,-58.0784 L 1521.17,-57.4731 L 1521.61,-56.7612 L 1521.89,-55.9735 L 1522,-55.0308
 L 1522,-22 L 1521.91,-21.1684 L 1521.65,-20.373 L 1521.24,-19.6489 L 1520.68,-19.0274 L 1520,-18.5359
 L 1519.24,-18.1958 L 1518,-18 z
M 22,-18 L 20.7639,-18.1958 L 20,-18.5359 L 19.3235,-19.0274 L 18.7639,-19.6489 L 18.3458,-20.373
 L 18.0874,-21.1684 L 18,-22 L 18,-55.0308 L 18.1127,-55.9735 L 18.3936,-56.7612 L 18.8322,-57.4731
 L 19.4092,-58.0784 L 20.0995,-58.5504 L 20.8728,-58.8687 L 21.6954,-59.0192 L 22.5313,-58.9953 L 23.3439,-58.7982
 L 115.939,-25.7675 L 116.947,-25.2361 L 117.568,-24.6765 L 118.06,-24 L 118.4,-23.2361 L 118.574,-22.4181
 L 118.574,-21.5819 L 118.4,-20.7639 L 118.06,-20 L 117.568,-19.3235 L 116.947,-18.7639 L 116.222,-18.3458
 L 115.427,-18.0874 L 114.595,-18 z
" stroke="black" fill="lightgray" stroke-width="0.5"/>
</svg>
