<?xml version="1.0" standalone="no"?>
<!DOCTYPE svg PUBLIC "-//W3C//DTD SVG 1.1//EN" "http://www.w3.org/Graphics/SVG/1.1/DTD/svg11.dtd">
<svg width="1103mm" height="80mm" viewBox="0 -80 1103 80" xmlns="http://www.w3.org/2000/svg" version="1.1">
<title>OpenSCAD Model</title>
<path d="
M 1103,-80 L 0,-80 L 0,-0 L 4.95,-0 L 4.95,-6 L 5.00572,-6.53017
 L 5.17046,-7.03717 L 5.437,-7.49884 L 5.79372,-7.895 L 6.22499,-8.20836 L 6.71201,-8.42519 L 7.23344,-8.53603
 L 7.76654,-8.53603 L 8.28798,-8.42519 L 8.77499,-8.20836 L 9.20627,-7.895 L 9.56299,-7.49884 L 9.82953,-7.03717
 L 9.99426,-6.53017 L 10.05,-6 L 10.05,-0 L 186.283,-0 L 186.283,-6 L 186.339,-6.53017
 L 186.504,-7.03717 L 186.77,-7.49884 L 187.127,-7.895 L 187.558,-8.20836 L 188.045,-8.42519 L 188.567,-8.53603
 L 189.1,-8.53603 L 189.621,-8.42519 L 190.108,-8.20836 L 190.54,-7.895 L 190.896,-7.49884 L 191.163,-7.03717
 L 191.328,-6.53017 L 191.383,-6 L 191.383,-0 L 367.617,-0 L 367.617,-6 L 367.672,-6.53017
 L 367.837,-7.03717 L 368.104,-7.49884 L 368.46,-7.895 L 368.892,-8.20836 L 369.379,-8.42519 L 369.9,-8.53603
 L 370.433,-8.53603 L 370.955,-8.42519 L 371.442,-8.20836 L 371.873,-7.895 L 372.23,-7.49884 L 372.496,-7.03717
 L 372.661,-6.53017 L 372.717,-6 L 372.717,-0 L 548.95,-0 L 548.95,-6 L 549.006,-6.53017
 L 549.17,-7.03717 L 549.437,-7.49884 L 549.794,-7.895 L 550.225,-8.20836 L 550.712,-8.42519 L 551.233,-8.53603
 L 551.767,-8.53603 L 552.288,-8.42519 L 552.775,-8.20836 L 553.206,-7.895 L 553.563,-7.49884 L 553.83,-7.03717
 L 553.994,-6.53017 L 554.05,-6 L 554.05,-0 L 730.283,-0 L 730.283,-6 L 730.339,-6.53017
 L 730.504,-7.03717 L 730.77,-7.49884 L 731.127,-7.895 L 731.558,-8.20836 L 732.045,-8.42519 L 732.567,-8.53603
 L 733.1,-8.53603 L 733.621,-8.42519 L 734.108,-8.20836 L 734.54,-7.895 L 734.896,-7.49884 L 735.163,-7.03717
 L 735.328,-6.53017 L 735.383,-6 L 735.383,-0 L 911.617,-0 L 911.617,-6 L 911.672,-6.53017
 L 911.837,-7.03717 L 912.104,-7.49884 L 912.46,-7.895 L 912.892,-8.20836 L 913.379,-8.42519 L 913.9,-8.53603
 L 914.433,-8.53603 L 914.955,-8.42519 L 915.442,-8.20836 L 915.873,-7.895 L 916.23,-7.49884 L 916.496,-7.03717
 L 916.661,-6.53017 L 916.717,-6 L 916.717,-0 L 1092.95,-0 L 1092.95,-6 L 1093.01,-6.53017
 L 1093.17,-7.03717 L 1093.44,-7.49884 L 1093.79,-7.895 L 1094.22,-8.20836 L 1094.71,-8.42519 L 1095.23,-8.53603
 L 1095.77,-8.53603 L 1096.29,-8.42519 L 1096.77,-8.20836 L 1097.21,-7.895 L 1097.56,-7.49884 L 1097.83,-7.03717
 L 1097.99,-6.53017 L 1098.05,-6 L 1098.05,-0 L 1103,-0 z
M 6.98573,-55.607 L 6.47708,-55.6875 L 5.97964,-55.8208 L 5.49887,-56.0054 L 5.04001,-56.2392 L 4.60811,-56.5196
 L 4.20789,-56.8437 L 3.84373,-57.2079 L 3.51964,-57.6081 L 3.23917,-58.04 L 3.00537,-58.4989 L 2.82082,-58.9796
 L 2.68752,-59.4771 L 2.60696,-59.9857 L 2.58,-60.5 L 2.60696,-61.0143 L 2.68752,-61.5229 L 2.82082,-62.0204
 L 3.00537,-62.5011 L 3.23917,-62.96 L 3.51964,-63.3919 L 3.84373,-63.7921 L 4.20789,-64.1563 L 4.60811,-64.4804
 L 4.95001,-64.7024 L 4.95001,-74 L 5.00574,-74.5302 L 5.17047,-75.0372 L 5.43701,-75.4988 L 5.79373,-75.895
 L 6.22501,-76.2084 L 6.71202,-76.4252 L 7.23346,-76.536 L 7.76654,-76.536 L 8.28798,-76.4252 L 8.77499,-76.2084
 L 9.20627,-75.895 L 9.56299,-75.4988 L 9.82953,-75.0372 L 9.99426,-74.5302 L 10.05,-74 L 10.05,-64.7024
 L 10.3919,-64.4804 L 10.7921,-64.1563 L 11.1563,-63.7921 L 11.4804,-63.3919 L 11.7608,-62.96 L 11.9946,-62.5011
 L 12.1792,-62.0204 L 12.3125,-61.5229 L 12.393,-61.0143 L 12.42,-60.5 L 12.393,-59.9857 L 12.3125,-59.4771
 L 12.1792,-58.9796 L 11.9946,-58.4989 L 11.7608,-58.04 L 11.4804,-57.6081 L 11.1563,-57.2079 L 10.7921,-56.8437
 L 10.3919,-56.5196 L 9.95999,-56.2392 L 9.50113,-56.0054 L 9.02036,-55.8208 L 8.52292,-55.6875 L 8.01427,-55.607
 L 7.5,-55.58 z
M 188.319,-55.607 L 187.81,-55.6875 L 187.313,-55.8208 L 186.832,-56.0054 L 186.373,-56.2392 L 185.941,-56.5196
 L 185.541,-56.8437 L 185.177,-57.2079 L 184.853,-57.6081 L 184.572,-58.04 L 184.339,-58.4989 L 184.154,-58.9796
 L 184.021,-59.4771 L 183.94,-59.9857 L 183.913,-60.5 L 183.94,-61.0143 L 184.021,-61.5229 L 184.154,-62.0204
 L 184.339,-62.5011 L 184.572,-62.96 L 184.853,-63.3919 L 185.177,-63.7921 L 185.541,-64.1563 L 185.941,-64.4804
 L 186.283,-64.7024 L 186.283,-74 L 186.339,-74.5302 L 186.504,-75.0372 L 186.77,-75.4988 L 187.127,-75.895
 L 187.558,-76.2084 L 188.045,-76.4252 L 188.567,-76.536 L 189.1,-76.536 L 189.621,-76.4252 L 190.108,-76.2084
 L 190.54,-75.895 L 190.896,-75.4988 L 191.163,-75.0372 L 191.328,-74.5302 L 191.383,-74 L 191.383,-64.7024
 L 191.725,-64.4804 L 192.125,-64.1563 L 192.49,-63.7921 L 192.814,-63.3919 L 193.094,-62.96 L 193.328,-62.5011
 L 193.513,-62.0204 L 193.646,-61.5229 L 193.726,-61.0143 L 193.753,-60.5 L 193.726,-59.9857 L 193.646,-59.4771
 L 193.513,-58.9796 L 193.328,-58.4989 L 193.094,-58.04 L 192.814,-57.6081 L 192.49,-57.2079 L 192.125,-56.8437
 L 191.725,-56.5196 L 191.293,-56.2392 L 190.834,-56.0054 L 190.354,-55.8208 L 189.856,-55.6875 L 189.348,-55.607
 L 188.833,-55.58 z
M 369.652,-55.607 L 369.144,-55.6875 L 368.646,-55.8208 L 368.166,-56.0054 L 367.707,-56.2392 L 367.275,-56.5196
 L 366.875,-56.8437 L 366.51,-57.2079 L 366.186,-57.6081 L 365.906,-58.04 L 365.672,-58.4989 L 365.487,-58.9796
 L 365.354,-59.4771 L 365.274,-59.9857 L 365.247,-60.5 L 365.274,-61.0143 L 365.354,-61.5229 L 365.487,-62.0204
 L 365.672,-62.5011 L 365.906,-62.96 L 366.186,-63.3919 L 366.51,-63.7921 L 366.875,-64.1563 L 367.275,-64.4804
 L 367.617,-64.7024 L 367.617,-74 L 367.672,-74.5302 L 367.837,-75.0372 L 368.104,-75.4988 L 368.46,-75.895
 L 368.892,-76.2084 L 369.379,-76.4252 L 369.9,-76.536 L 370.433,-76.536 L 370.955,-76.4252 L 371.442,-76.2084
 L 371.873,-75.895 L 372.23,-75.4988 L 372.496,-75.0372 L 372.661,-74.5302 L 372.717,-74 L 372.717,-64.7024
 L 373.059,-64.4804 L 373.459,-64.1563 L 373.823,-63.7921 L 374.147,-63.3919 L 374.427,-62.96 L 374.661,-62.5011
 L 374.846,-62.0204 L 374.979,-61.5229 L 375.06,-61.0143 L 375.087,-60.5 L 375.06,-59.9857 L 374.979,-59.4771
 L 374.846,-58.9796 L 374.661,-58.4989 L 374.427,-58.04 L 374.147,-57.6081 L 373.823,-57.2079 L 373.459,-56.8437
 L 373.059,-56.5196 L 372.627,-56.2392 L 372.168,-56.0054 L 371.687,-55.8208 L 371.19,-55.6875 L 370.681,-55.607
 L 370.167,-55.58 z
M 550.986,-55.607 L 550.477,-55.6875 L 549.98,-55.8208 L 549.499,-56.0054 L 549.04,-56.2392 L 548.608,-56.5196
 L 548.208,-56.8437 L 547.844,-57.2079 L 547.52,-57.6081 L 547.239,-58.04 L 547.005,-58.4989 L 546.821,-58.9796
 L 546.688,-59.4771 L 546.607,-59.9857 L 546.58,-60.5 L 546.607,-61.0143 L 546.688,-61.5229 L 546.821,-62.0204
 L 547.005,-62.5011 L 547.239,-62.96 L 547.52,-63.3919 L 547.844,-63.7921 L 548.208,-64.1563 L 548.608,-64.4804
 L 548.95,-64.7024 L 548.95,-74 L 549.006,-74.5302 L 549.17,-75.0372 L 549.437,-75.4988 L 549.794,-75.895
 L 550.225,-76.2084 L 550.712,-76.4252 L 551.233,-76.536 L 551.767,-76.536 L 552.288,-76.4252 L 552.775,-76.2084
 L 553.206,-75.895 L 553.563,-75.4988 L 553.83,-75.0372 L 553.994,-74.5302 L 554.05,-74 L 554.05,-64.7024
 L 554.392,-64.4804 L 554.792,-64.1563 L 555.156,-63.7921 L 555.48,-63.3919 L 555.761,-62.96 L 555.995,-62.5011
 L 556.179,-62.0204 L 556.312,-61.5229 L 556.393,-61.0143 L 556.42,-60.5 L 556.393,-59.9857 L 556.312,-59.4771
 L 556.179,-58.9796 L 555.995,-58.4989 L 555.761,-58.04 L 555.48,-57.6081 L 555.156,-57.2079 L 554.792,-56.8437
 L 554.392,-56.5196 L 553.96,-56.2392 L 553.501,-56.0054 L 553.02,-55.8208 L 552.523,-55.6875 L 552.014,-55.607
 L 551.5,-55.58 z
M 732.319,-55.607 L 731.81,-55.6875 L 731.313,-55.8208 L 730.832,-56.0054 L 730.373,-56.2392 L 729.941,-56.5196
 L 729.541,-56.8437 L 729.177,-57.2079 L 728.853,-57.6081 L 728.572,-58.04 L 728.339,-58.4989 L 728.154,-58.9796
 L 728.021,-59.4771 L 727.94,-59.9857 L 727.913,-60.5 L 727.94,-61.0143 L 728.021,-61.5229 L 728.154,-62.0204
 L 728.339,-62.5011 L 728.572,-62.96 L 728.853,-63.3919 L 729.177,-63.7921 L 729.541,-64.1563 L 729.941,-64.4804
 L 730.283,-64.7024 L 730.283,-74 L 730.339,-74.5302 L 730.504,-75.0372 L 730.77,-75.4988 L 731.127,-75.895
 L 731.558,-76.2084 L 732.045,-76.4252 L 732.567,-76.536 L 733.1,-76.536 L 733.621,-76.4252 L 734.108,-76.2084
 L 734.54,-75.895 L 734.896,-75.4988 L 735.163,-75.0372 L 735.328,-74.5302 L 735.383,-74 L 735.383,-64.7024
 L 735.725,-64.4804 L 736.125,-64.1563 L 736.49,-63.7921 L 736.814,-63.3919 L 737.094,-62.96 L 737.328,-62.5011
 L 737.513,-62.0204 L 737.646,-61.5229 L 737.726,-61.0143 L 737.753,-60.5 L 737.726,-59.9857 L 737.646,-59.4771
 L 737.513,-58.9796 L 737.328,-58.4989 L 737.094,-58.04 L 736.814,-57.6081 L 736.49,-57.2079 L 736.125,-56.8437
 L 735.725,-56.5196 L 735.293,-56.2392 L 734.834,-56.0054 L 734.354,-55.8208 L 733.856,-55.6875 L 733.348,-55.607
 L 732.833,-55.58 z
M 913.652,-55.607 L 913.144,-55.6875 L 912.646,-55.8208 L 912.166,-56.0054 L 911.707,-56.2392 L 911.275,-56.5196
 L 910.875,-56.8437 L 910.51,-57.2079 L 910.186,-57.6081 L 909.906,-58.04 L 909.672,-58.4989 L 909.487,-58.9796
 L 909.354,-59.4771 L 909.274,-59.9857 L 909.247,-60.5 L 909.274,-61.0143 L 909.354,-61.5229 L 909.487,-62.0204
 L 909.672,-62.5011 L 909.906,-62.96 L 910.186,-63.3919 L 910.51,-63.7921 L 910.875,-64.1563 L 911.275,-64.4804
 L 911.617,-64.7024 L 911.617,-74 L 911.672,-74.5302 L 911.837,-75.0372 L 912.104,-75.4988 L 912.46,-75.895
 L 912.892,-76.2084 L 913.379,-76.4252 L 913.9,-76.536 L 914.433,-76.536 L 914.955,-76.4252 L 915.442,-76.2084
 L 915.873,-75.895 L 916.23,-75.4988 L 916.496,-75.0372 L 916.661,-74.5302 L 916.717,-74 L 916.717,-64.7024
 L 917.059,-64.4804 L 917.459,-64.1563 L 917.823,-63.7921 L 918.147,-63.3919 L 918.427,-62.96 L 918.661,-62.5011
 L 918.846,-62.0204 L 918.979,-61.5229 L 919.06,-61.0143 L 919.087,-60.5 L 919.06,-59.9857 L 918.979,-59.4771
 L 918.846,-58.9796 L 918.661,-58.4989 L 918.427,-58.04 L 918.147,-57.6081 L 917.823,-57.2079 L 917.459,-56.8437
 L 917.059,-56.5196 L 916.627,-56.2392 L 916.168,-56.0054 L 915.687,-55.8208 L 915.19,-55.6875 L 914.681,-55.607
 L 914.167,-55.58 z
M 1094.99,-55.607 L 1094.48,-55.6875 L 1093.98,-55.8208 L 1093.5,-56.0054 L 1093.04,-56.2392 L 1092.61,-56.5196
 L 1092.21,-56.8437 L 1091.84,-57.2079 L 1091.52,-57.6081 L 1091.24,-58.04 L 1091.01,-58.4989 L 1090.82,-58.9796
 L 1090.69,-59.4771 L 1090.61,-59.9857 L 1090.58,-60.5 L 1090.61,-61.0143 L 1090.69,-61.5229 L 1090.82,-62.0204
 L 1091.01,-62.5011 L 1091.24,-62.96 L 1091.52,-63.3919 L 1091.84,-63.7921 L 1092.21,-64.1563 L 1092.61,-64.4804
 L 1092.95,-64.7024 L 1092.95,-74 L 1093.01,-74.5302 L 1093.17,-75.0372 L 1093.44,-75.4988 L 1093.79,-75.895
 L 1094.23,-76.2084 L 1094.71,-76.4252 L 1095.23,-76.536 L 1095.77,-76.536 L 1096.29,-76.4252 L 1096.77,-76.2084
 L 1097.21,-75.895 L 1097.56,-75.4988 L 1097.83,-75.0372 L 1097.99,-74.5302 L 1098.05,-74 L 1098.05,-64.7024
 L 1098.39,-64.4804 L 1098.79,-64.1563 L 1099.16,-63.7921 L 1099.48,-63.3919 L 1099.76,-62.96 L 1099.99,-62.5011
 L 1100.18,-62.0204 L 1100.31,-61.5229 L 1100.39,-61.0143 L 1100.42,-60.5 L 1100.39,-59.9857 L 1100.31,-59.4771
 L 1100.18,-58.9796 L 1099.99,-58.4989 L 1099.76,-58.04 L 1099.48,-57.6081 L 1099.16,-57.2079 L 1098.79,-56.8437
 L 1098.39,-56.5196 L 1097.96,-56.2392 L 1097.5,-56.0054 L 1097.02,-55.8208 L 1096.52,-55.6875 L 1096.01,-55.607
 L 1095.5,-55.58 z
M 926.101,-20.8896 L 925.323,-21.1953 L 924.625,-21.6562 L 924.039,-22.2521 L 923.589,-22.9569 L 923.295,-23.7399
 L 923.167,-24.7452 L 923.167,-58 L 923.254,-58.8316 L 923.512,-59.627 L 923.931,-60.3511 L 924.49,-60.9726
 L 925.167,-61.4641 L 925.931,-61.8042 L 927.167,-62 L 1015.85,-62 L 1016.68,-61.9126 L 1017.47,-61.6542
 L 1018.2,-61.2361 L 1018.82,-60.6765 L 1019.31,-60 L 1019.65,-59.2361 L 1019.82,-58.4181 L 1019.82,-57.5819
 L 1019.65,-56.7639 L 1019.31,-56 L 1018.82,-55.3235 L 1018.2,-54.7639 L 1017.25,-54.2547 L 928.571,-20.9999
 L 927.762,-20.7897 L 926.926,-20.7524 z
M 356.572,-20.7897 L 355.762,-20.9999 L 267.083,-54.2547 L 266.136,-54.7639 L 265.515,-55.3235 L 265.023,-56
 L 264.683,-56.7639 L 264.509,-57.5819 L 264.509,-58.4181 L 264.683,-59.2361 L 265.023,-60 L 265.515,-60.6765
 L 266.136,-61.2361 L 266.86,-61.6542 L 267.655,-61.9126 L 268.487,-62 L 357.167,-62 L 358.403,-61.8042
 L 359.167,-61.4641 L 359.843,-60.9726 L 360.403,-60.3511 L 360.821,-59.627 L 361.079,-58.8316 L 361.167,-58
 L 361.167,-24.7452 L 361.038,-23.7399 L 360.745,-22.9569 L 360.295,-22.2521 L 359.708,-21.6562 L 359.01,-21.1953
 L 358.232,-20.8896 L 357.407,-20.7524 z
M 175.238,-20.7897 L 174.429,-20.9999 L 85.7493,-54.2547 L 84.8027,-54.7639 L 84.1812,-55.3235 L 83.6897,-56
 L 83.3496,-56.7639 L 83.1757,-57.5819 L 83.1757,-58.4181 L 83.3496,-59.2361 L 83.6897,-60 L 84.1812,-60.6765
 L 84.8027,-61.2361 L 85.5269,-61.6542 L 86.3222,-61.9126 L 87.1538,-62 L 175.833,-62 L 177.069,-61.8042
 L 177.833,-61.4641 L 178.51,-60.9726 L 179.069,-60.3511 L 179.488,-59.627 L 179.746,-58.8316 L 179.833,-58
 L 179.833,-24.7452 L 179.705,-23.7399 L 179.411,-22.9569 L 178.961,-22.2521 L 178.375,-21.6562 L 177.677,-21.1953
 L 176.899,-20.8896 L 176.074,-20.7524 z
M 537.905,-20.7897 L 537.095,-20.9999 L 448.416,-54.2547 L 447.469,-54.7639 L 446.848,-55.3235 L 446.356,-56
 L 446.016,-56.7639 L 445.842,-57.5819 L 445.842,-58.4181 L 446.016,-59.2361 L 446.356,-60 L 446.848,-60.6765
 L 447.469,-61.2361 L 448.194,-61.6542 L 448.989,-61.9126 L 449.82,-62 L 538.5,-62 L 539.736,-61.8042
 L 540.5,-61.4641 L 541.177,-60.9726 L 541.736,-60.3511 L 542.154,-59.627 L 542.413,-58.8316 L 542.5,-58
 L 542.5,-24.7452 L 542.372,-23.7399 L 542.078,-22.9569 L 541.628,-22.2521 L 541.041,-21.6562 L 540.344,-21.1953
 L 539.565,-20.8896 L 538.74,-20.7524 z
M 563.435,-20.8896 L 562.656,-21.1953 L 561.959,-21.6562 L 561.372,-22.2521 L 560.922,-22.9569 L 560.628,-23.7399
 L 560.5,-24.7452 L 560.5,-58 L 560.587,-58.8316 L 560.846,-59.627 L 561.264,-60.3511 L 561.823,-60.9726
 L 562.5,-61.4641 L 563.264,-61.8042 L 564.5,-62 L 653.18,-62 L 654.011,-61.9126 L 654.806,-61.6542
 L 655.531,-61.2361 L 656.152,-60.6765 L 656.644,-60 L 656.984,-59.2361 L 657.158,-58.4181 L 657.158,-57.5819
 L 656.984,-56.7639 L 656.644,-56 L 656.152,-55.3235 L 655.531,-54.7639 L 654.584,-54.2547 L 565.904,-20.9999
 L 565.095,-20.7897 L 564.26,-20.7524 z
M 744.768,-20.8896 L 743.99,-21.1953 L 743.292,-21.6562 L 742.705,-22.2521 L 742.255,-22.9569 L 741.962,-23.7399
 L 741.833,-24.7452 L 741.833,-58 L 741.921,-58.8316 L 742.179,-59.627 L 742.597,-60.3511 L 743.157,-60.9726
 L 743.833,-61.4641 L 744.597,-61.8042 L 745.833,-62 L 834.513,-62 L 835.344,-61.9126 L 836.14,-61.6542
 L 836.864,-61.2361 L 837.485,-60.6765 L 837.977,-60 L 838.317,-59.2361 L 838.491,-58.4181 L 838.491,-57.5819
 L 838.317,-56.7639 L 837.977,-56 L 837.485,-55.3235 L 836.864,-54.7639 L 835.917,-54.2547 L 747.238,-20.9999
 L 746.428,-20.7897 L 745.593,-20.7524 z
M 201.833,-18 L 200.597,-18.1958 L 199.833,-18.5359 L 199.157,-19.0274 L 198.597,-19.6489 L 198.179,-20.373
 L 197.921,-21.1684 L 197.833,-22 L 197.833,-55.2548 L 197.962,-56.2601 L 198.255,-57.0431 L 198.705,-57.7479
 L 199.292,-58.3438 L 199.99,-58.8047 L 200.768,-59.1104 L 201.593,-59.2476 L 202.428,-59.2103 L 203.238,-59.0001
 L 291.917,-25.7453 L 292.864,-25.2361 L 293.485,-24.6765 L 293.977,-24 L 294.317,-23.2361 L 294.491,-22.4181
 L 294.491,-21.5819 L 294.317,-20.7639 L 293.977,-20 L 293.485,-19.3235 L 292.864,-18.7639 L 292.14,-18.3458
 L 291.344,-18.0874 L 290.513,-18 z
M 383.167,-18 L 381.931,-18.1958 L 381.167,-18.5359 L 380.49,-19.0274 L 379.931,-19.6489 L 379.512,-20.373
 L 379.254,-21.1684 L 379.167,-22 L 379.167,-55.2548 L 379.295,-56.2601 L 379.589,-57.0431 L 380.039,-57.7479
 L 380.625,-58.3438 L 381.323,-58.8047 L 382.101,-59.1104 L 382.926,-59.2476 L 383.762,-59.2103 L 384.571,-59.0001
 L 473.251,-25.7453 L 474.197,-25.2361 L 474.819,-24.6765 L 475.31,-24 L 475.65,-23.2361 L 475.824,-22.4181
 L 475.824,-21.5819 L 475.65,-20.7639 L 475.31,-20 L 474.819,-19.3235 L 474.197,-18.7639 L 473.473,-18.3458
 L 472.678,-18.0874 L 471.846,-18 z
M 631.154,-18 L 630.322,-18.0874 L 629.527,-18.3458 L 628.803,-18.7639 L 628.181,-19.3235 L 627.69,-20
 L 627.35,-20.7639 L 627.176,-21.5819 L 627.176,-22.4181 L 627.35,-23.2361 L 627.69,-24 L 628.181,-24.6765
 L 628.803,-25.2361 L 629.749,-25.7453 L 718.429,-59.0001 L 719.238,-59.2103 L 720.074,-59.2476 L 720.899,-59.1104
 L 721.677,-58.8047 L 722.375,-58.3438 L 722.961,-57.7479 L 723.411,-57.0431 L 723.705,-56.2601 L 723.833,-55.2548
 L 723.833,-22 L 723.746,-21.1684 L 723.488,-20.373 L 723.069,-19.6489 L 722.51,-19.0274 L 721.833,-18.5359
 L 721.069,-18.1958 L 719.833,-18 z
M 812.487,-18 L 811.656,-18.0874 L 810.86,-18.3458 L 810.136,-18.7639 L 809.515,-19.3235 L 809.023,-20
 L 808.683,-20.7639 L 808.509,-21.5819 L 808.509,-22.4181 L 808.683,-23.2361 L 809.023,-24 L 809.515,-24.6765
 L 810.136,-25.2361 L 811.083,-25.7453 L 899.762,-59.0001 L 900.572,-59.2103 L 901.407,-59.2476 L 902.232,-59.1104
 L 903.01,-58.8047 L 903.708,-58.3438 L 904.295,-57.7479 L 904.745,-57.0431 L 905.038,-56.2601 L 905.167,-55.2548
 L 905.167,-22 L 905.079,-21.1684 L 904.821,-20.373 L 904.403,-19.6489 L 903.843,-19.0274 L 903.167,-18.5359
 L 902.403,-18.1958 L 901.167,-18 z
M 993.821,-18 L 992.989,-18.0874 L 992.194,-18.3458 L 991.469,-18.7639 L 990.848,-19.3235 L 990.356,-20
 L 990.016,-20.7639 L 989.842,-21.5819 L 989.842,-22.4181 L 990.016,-23.2361 L 990.356,-24 L 990.848,-24.6765
 L 991.469,-25.2361 L 992.416,-25.7453 L 1079.6,-58.4376 L 1080.4,-58.6478 L 1081.24,-58.6851 L 1082.07,-58.5479
 L 1082.84,-58.2422 L 1083.54,-57.7813 L 1084.13,-57.1854 L 1084.58,-56.4806 L 1084.87,-55.6976 L 1085,-54.6923
 L 1085,-22 L 1084.91,-21.1684 L 1084.65,-20.373 L 1084.24,-19.6489 L 1083.68,-19.0274 L 1083,-18.5359
 L 1082.24,-18.1958 L 1081,-18 z
M 22,-18 L 20.7639,-18.1958 L 20,-18.5359 L 19.3235,-19.0274 L 18.7639,-19.6489 L 18.3458,-20.373
 L 18.0874,-21.1684 L 18,-22 L 18,-54.6923 L 18.1284,-55.6976 L 18.422,-56.4806 L 18.872,-57.1854
 L 19.4587,-57.7813 L 20.1565,-58.2422 L 20.9348,-58.5479 L 21.7597,-58.6851 L 22.5951,-58.6478 L 23.4045,-58.4376
 L 110.584,-25.7453 L 111.531,-25.2361 L 112.152,-24.6765 L 112.644,-24 L 112.984,-23.2361 L 113.158,-22.4181
 L 113.158,-21.5819 L 112.984,-20.7639 L 112.644,-20 L 112.152,-19.3235 L 111.531,-18.7639 L 110.806,-18.3458
 L 110.011,-18.0874 L 109.179,-18 z
" stroke="black" fill="lightgray" stroke-width="0.5"/>
</svg>
