<?xml version="1.0" standalone="no"?>
<!DOCTYPE svg PUBLIC "-//W3C//DTD SVG 1.1//EN" "http://www.w3.org/Graphics/SVG/1.1/DTD/svg11.dtd">
<svg width="1462mm" height="80mm" viewBox="0 -80 1462 80" xmlns="http://www.w3.org/2000/svg" version="1.1">
<title>OpenSCAD Model</title>
<path d="
M 1462,-80 L 0,-80 L 0,-0 L 4.95,-0 L 4.95,-6 L 5.00572,-6.53017
 L 5.17046,-7.03717 L 5.437,-7.49884 L 5.79372,-7.895 L 6.22499,-8.20836 L 6.71201,-8.42519 L 7.23344,-8.53603
 L 7.76654,-8.53603 L 8.28798,-8.42519 L 8.77499,-8.20836 L 9.20627,-7.895 L 9.56299,-7.49884 L 9.82953,-7.03717
 L 9.99426,-6.53017 L 10.05,-6 L 10.05,-0 L 185.825,-0 L 185.825,-6 L 185.881,-6.53017
 L 186.045,-7.03717 L 186.312,-7.49884 L 186.669,-7.895 L 187.1,-8.20836 L 187.587,-8.42519 L 188.108,-8.53603
 L 188.642,-8.53603 L 189.163,-8.42519 L 189.65,-8.20836 L 190.081,-7.895 L 190.438,-7.49884 L 190.705,-7.03717
 L 190.869,-6.53017 L 190.925,-6 L 190.925,-0 L 366.7,-0 L 366.7,-6 L 366.756,-6.53017
 L 366.92,-7.03717 L 367.187,-7.49884 L 367.544,-7.895 L 367.975,-8.20836 L 368.462,-8.42519 L 368.983,-8.53603
 L 369.517,-8.53603 L 370.038,-8.42519 L 370.525,-8.20836 L 370.956,-7.895 L 371.313,-7.49884 L 371.58,-7.03717
 L 371.744,-6.53017 L 371.8,-6 L 371.8,-0 L 547.575,-0 L 547.575,-6 L 547.631,-6.53017
 L 547.795,-7.03717 L 548.062,-7.49884 L 548.419,-7.895 L 548.85,-8.20836 L 549.337,-8.42519 L 549.858,-8.53603
 L 550.392,-8.53603 L 550.913,-8.42519 L 551.4,-8.20836 L 551.831,-7.895 L 552.188,-7.49884 L 552.455,-7.03717
 L 552.619,-6.53017 L 552.675,-6 L 552.675,-0 L 728.45,-0 L 728.45,-6 L 728.506,-6.53017
 L 728.67,-7.03717 L 728.937,-7.49884 L 729.294,-7.895 L 729.725,-8.20836 L 730.212,-8.42519 L 730.733,-8.53603
 L 731.267,-8.53603 L 731.788,-8.42519 L 732.275,-8.20836 L 732.706,-7.895 L 733.063,-7.49884 L 733.33,-7.03717
 L 733.494,-6.53017 L 733.55,-6 L 733.55,-0 L 909.325,-0 L 909.325,-6 L 909.381,-6.53017
 L 909.545,-7.03717 L 909.812,-7.49884 L 910.169,-7.895 L 910.6,-8.20836 L 911.087,-8.42519 L 911.608,-8.53603
 L 912.142,-8.53603 L 912.663,-8.42519 L 913.15,-8.20836 L 913.581,-7.895 L 913.938,-7.49884 L 914.205,-7.03717
 L 914.369,-6.53017 L 914.425,-6 L 914.425,-0 L 1090.2,-0 L 1090.2,-6 L 1090.26,-6.53017
 L 1090.42,-7.03717 L 1090.69,-7.49884 L 1091.04,-7.895 L 1091.47,-8.20836 L 1091.96,-8.42519 L 1092.48,-8.53603
 L 1093.02,-8.53603 L 1093.54,-8.42519 L 1094.02,-8.20836 L 1094.46,-7.895 L 1094.81,-7.49884 L 1095.08,-7.03717
 L 1095.24,-6.53017 L 1095.3,-6 L 1095.3,-0 L 1271.07,-0 L 1271.07,-6 L 1271.13,-6.53017
 L 1271.3,-7.03717 L 1271.56,-7.49884 L 1271.92,-7.895 L 1272.35,-8.20836 L 1272.84,-8.42519 L 1273.36,-8.53603
 L 1273.89,-8.53603 L 1274.41,-8.42519 L 1274.9,-8.20836 L 1275.33,-7.895 L 1275.69,-7.49884 L 1275.95,-7.03717
 L 1276.12,-6.53017 L 1276.17,-6 L 1276.17,-0 L 1451.95,-0 L 1451.95,-6 L 1452.01,-6.53017
 L 1452.17,-7.03717 L 1452.44,-7.49884 L 1452.79,-7.895 L 1453.22,-8.20836 L 1453.71,-8.42519 L 1454.23,-8.53603
 L 1454.77,-8.53603 L 1455.29,-8.42519 L 1455.77,-8.20836 L 1456.21,-7.895 L 1456.56,-7.49884 L 1456.83,-7.03717
 L 1456.99,-6.53017 L 1457.05,-6 L 1457.05,-0 L 1462,-0 z
M 187.861,-55.607 L 187.352,-55.6875 L 186.855,-55.8208 L 186.374,-56.0054 L 185.915,-56.2392 L 185.483,-56.5196
 L 185.083,-56.8437 L 184.719,-57.2079 L 184.395,-57.6081 L 184.114,-58.04 L 183.88,-58.4989 L 183.696,-58.9796
 L 183.563,-59.4771 L 183.482,-59.9857 L 183.455,-60.5 L 183.482,-61.0143 L 183.563,-61.5229 L 183.696,-62.0204
 L 183.88,-62.5011 L 184.114,-62.96 L 184.395,-63.3919 L 184.719,-63.7921 L 185.083,-64.1563 L 185.483,-64.4804
 L 185.825,-64.7024 L 185.825,-74 L 185.881,-74.5302 L 186.045,-75.0372 L 186.312,-75.4988 L 186.669,-75.895
 L 187.1,-76.2084 L 187.587,-76.4252 L 188.108,-76.536 L 188.642,-76.536 L 189.163,-76.4252 L 189.65,-76.2084
 L 190.081,-75.895 L 190.438,-75.4988 L 190.705,-75.0372 L 190.869,-74.5302 L 190.925,-74 L 190.925,-64.7024
 L 191.267,-64.4804 L 191.667,-64.1563 L 192.031,-63.7921 L 192.355,-63.3919 L 192.636,-62.96 L 192.87,-62.5011
 L 193.054,-62.0204 L 193.187,-61.5229 L 193.268,-61.0143 L 193.295,-60.5 L 193.268,-59.9857 L 193.187,-59.4771
 L 193.054,-58.9796 L 192.87,-58.4989 L 192.636,-58.04 L 192.355,-57.6081 L 192.031,-57.2079 L 191.667,-56.8437
 L 191.267,-56.5196 L 190.835,-56.2392 L 190.376,-56.0054 L 189.895,-55.8208 L 189.398,-55.6875 L 188.889,-55.607
 L 188.375,-55.58 z
M 1092.24,-55.607 L 1091.73,-55.6875 L 1091.23,-55.8208 L 1090.75,-56.0054 L 1090.29,-56.2392 L 1089.86,-56.5196
 L 1089.46,-56.8437 L 1089.09,-57.2079 L 1088.77,-57.6081 L 1088.49,-58.04 L 1088.26,-58.4989 L 1088.07,-58.9796
 L 1087.94,-59.4771 L 1087.86,-59.9857 L 1087.83,-60.5 L 1087.86,-61.0143 L 1087.94,-61.5229 L 1088.07,-62.0204
 L 1088.26,-62.5011 L 1088.49,-62.96 L 1088.77,-63.3919 L 1089.09,-63.7921 L 1089.46,-64.1563 L 1089.86,-64.4804
 L 1090.2,-64.7024 L 1090.2,-74 L 1090.26,-74.5302 L 1090.42,-75.0372 L 1090.69,-75.4988 L 1091.04,-75.895
 L 1091.48,-76.2084 L 1091.96,-76.4252 L 1092.48,-76.536 L 1093.02,-76.536 L 1093.54,-76.4252 L 1094.02,-76.2084
 L 1094.46,-75.895 L 1094.81,-75.4988 L 1095.08,-75.0372 L 1095.24,-74.5302 L 1095.3,-74 L 1095.3,-64.7024
 L 1095.64,-64.4804 L 1096.04,-64.1563 L 1096.41,-63.7921 L 1096.73,-63.3919 L 1097.01,-62.96 L 1097.24,-62.5011
 L 1097.43,-62.0204 L 1097.56,-61.5229 L 1097.64,-61.0143 L 1097.67,-60.5 L 1097.64,-59.9857 L 1097.56,-59.4771
 L 1097.43,-58.9796 L 1097.24,-58.4989 L 1097.01,-58.04 L 1096.73,-57.6081 L 1096.41,-57.2079 L 1096.04,-56.8437
 L 1095.64,-56.5196 L 1095.21,-56.2392 L 1094.75,-56.0054 L 1094.27,-55.8208 L 1093.77,-55.6875 L 1093.26,-55.607
 L 1092.75,-55.58 z
M 911.361,-55.607 L 910.852,-55.6875 L 910.355,-55.8208 L 909.874,-56.0054 L 909.415,-56.2392 L 908.983,-56.5196
 L 908.583,-56.8437 L 908.219,-57.2079 L 907.895,-57.6081 L 907.614,-58.04 L 907.38,-58.4989 L 907.196,-58.9796
 L 907.063,-59.4771 L 906.982,-59.9857 L 906.955,-60.5 L 906.982,-61.0143 L 907.063,-61.5229 L 907.196,-62.0204
 L 907.38,-62.5011 L 907.614,-62.96 L 907.895,-63.3919 L 908.219,-63.7921 L 908.583,-64.1563 L 908.983,-64.4804
 L 909.325,-64.7024 L 909.325,-74 L 909.381,-74.5302 L 909.545,-75.0372 L 909.812,-75.4988 L 910.169,-75.895
 L 910.6,-76.2084 L 911.087,-76.4252 L 911.608,-76.536 L 912.142,-76.536 L 912.663,-76.4252 L 913.15,-76.2084
 L 913.581,-75.895 L 913.938,-75.4988 L 914.205,-75.0372 L 914.369,-74.5302 L 914.425,-74 L 914.425,-64.7024
 L 914.767,-64.4804 L 915.167,-64.1563 L 915.531,-63.7921 L 915.855,-63.3919 L 916.136,-62.96 L 916.37,-62.5011
 L 916.554,-62.0204 L 916.687,-61.5229 L 916.768,-61.0143 L 916.795,-60.5 L 916.768,-59.9857 L 916.687,-59.4771
 L 916.554,-58.9796 L 916.37,-58.4989 L 916.136,-58.04 L 915.855,-57.6081 L 915.531,-57.2079 L 915.167,-56.8437
 L 914.767,-56.5196 L 914.335,-56.2392 L 913.876,-56.0054 L 913.395,-55.8208 L 912.898,-55.6875 L 912.389,-55.607
 L 911.875,-55.58 z
M 6.98573,-55.607 L 6.47708,-55.6875 L 5.97964,-55.8208 L 5.49887,-56.0054 L 5.04001,-56.2392 L 4.60811,-56.5196
 L 4.20789,-56.8437 L 3.84373,-57.2079 L 3.51964,-57.6081 L 3.23917,-58.04 L 3.00537,-58.4989 L 2.82082,-58.9796
 L 2.68752,-59.4771 L 2.60696,-59.9857 L 2.58,-60.5 L 2.60696,-61.0143 L 2.68752,-61.5229 L 2.82082,-62.0204
 L 3.00537,-62.5011 L 3.23917,-62.96 L 3.51964,-63.3919 L 3.84373,-63.7921 L 4.20789,-64.1563 L 4.60811,-64.4804
 L 4.95001,-64.7024 L 4.95001,-74 L 5.00574,-74.5302 L 5.17047,-75.0372 L 5.43701,-75.4988 L 5.79373,-75.895
 L 6.22501,-76.2084 L 6.71202,-76.4252 L 7.23346,-76.536 L 7.76654,-76.536 L 8.28798,-76.4252 L 8.77499,-76.2084
 L 9.20627,-75.895 L 9.56299,-75.4988 L 9.82953,-75.0372 L 9.99426,-74.5302 L 10.05,-74 L 10.05,-64.7024
 L 10.3919,-64.4804 L 10.7921,-64.1563 L 11.1563,-63.7921 L 11.4804,-63.3919 L 11.7608,-62.96 L 11.9946,-62.5011
 L 12.1792,-62.0204 L 12.3125,-61.5229 L 12.393,-61.0143 L 12.42,-60.5 L 12.393,-59.9857 L 12.3125,-59.4771
 L 12.1792,-58.9796 L 11.9946,-58.4989 L 11.7608,-58.04 L 11.4804,-57.6081 L 11.1563,-57.2079 L 10.7921,-56.8437
 L 10.3919,-56.5196 L 9.95999,-56.2392 L 9.50113,-56.0054 L 9.02036,-55.8208 L 8.52292,-55.6875 L 8.01427,-55.607
 L 7.5,-55.58 z
M 730.486,-55.607 L 729.977,-55.6875 L 729.48,-55.8208 L 728.999,-56.0054 L 728.54,-56.2392 L 728.108,-56.5196
 L 727.708,-56.8437 L 727.344,-57.2079 L 727.02,-57.6081 L 726.739,-58.04 L 726.505,-58.4989 L 726.321,-58.9796
 L 726.188,-59.4771 L 726.107,-59.9857 L 726.08,-60.5 L 726.107,-61.0143 L 726.188,-61.5229 L 726.321,-62.0204
 L 726.505,-62.5011 L 726.739,-62.96 L 727.02,-63.3919 L 727.344,-63.7921 L 727.708,-64.1563 L 728.108,-64.4804
 L 728.45,-64.7024 L 728.45,-74 L 728.506,-74.5302 L 728.67,-75.0372 L 728.937,-75.4988 L 729.294,-75.895
 L 729.725,-76.2084 L 730.212,-76.4252 L 730.733,-76.536 L 731.267,-76.536 L 731.788,-76.4252 L 732.275,-76.2084
 L 732.706,-75.895 L 733.063,-75.4988 L 733.33,-75.0372 L 733.494,-74.5302 L 733.55,-74 L 733.55,-64.7024
 L 733.892,-64.4804 L 734.292,-64.1563 L 734.656,-63.7921 L 734.98,-63.3919 L 735.261,-62.96 L 735.495,-62.5011
 L 735.679,-62.0204 L 735.812,-61.5229 L 735.893,-61.0143 L 735.92,-60.5 L 735.893,-59.9857 L 735.812,-59.4771
 L 735.679,-58.9796 L 735.495,-58.4989 L 735.261,-58.04 L 734.98,-57.6081 L 734.656,-57.2079 L 734.292,-56.8437
 L 733.892,-56.5196 L 733.46,-56.2392 L 733.001,-56.0054 L 732.52,-55.8208 L 732.023,-55.6875 L 731.514,-55.607
 L 731,-55.58 z
M 1273.11,-55.607 L 1272.6,-55.6875 L 1272.1,-55.8208 L 1271.62,-56.0054 L 1271.17,-56.2392 L 1270.73,-56.5196
 L 1270.33,-56.8437 L 1269.97,-57.2079 L 1269.64,-57.6081 L 1269.36,-58.04 L 1269.13,-58.4989 L 1268.95,-58.9796
 L 1268.81,-59.4771 L 1268.73,-59.9857 L 1268.71,-60.5 L 1268.73,-61.0143 L 1268.81,-61.5229 L 1268.95,-62.0204
 L 1269.13,-62.5011 L 1269.36,-62.96 L 1269.64,-63.3919 L 1269.97,-63.7921 L 1270.33,-64.1563 L 1270.73,-64.4804
 L 1271.08,-64.7024 L 1271.08,-74 L 1271.13,-74.5302 L 1271.3,-75.0372 L 1271.56,-75.4988 L 1271.92,-75.895
 L 1272.35,-76.2084 L 1272.84,-76.4252 L 1273.36,-76.536 L 1273.89,-76.536 L 1274.41,-76.4252 L 1274.9,-76.2084
 L 1275.33,-75.895 L 1275.69,-75.4988 L 1275.95,-75.0372 L 1276.12,-74.5302 L 1276.17,-74 L 1276.17,-64.7024
 L 1276.52,-64.4804 L 1276.92,-64.1563 L 1277.28,-63.7921 L 1277.61,-63.3919 L 1277.89,-62.96 L 1278.12,-62.5011
 L 1278.3,-62.0204 L 1278.44,-61.5229 L 1278.52,-61.0143 L 1278.54,-60.5 L 1278.52,-59.9857 L 1278.44,-59.4771
 L 1278.3,-58.9796 L 1278.12,-58.4989 L 1277.89,-58.04 L 1277.61,-57.6081 L 1277.28,-57.2079 L 1276.92,-56.8437
 L 1276.52,-56.5196 L 1276.08,-56.2392 L 1275.63,-56.0054 L 1275.15,-55.8208 L 1274.65,-55.6875 L 1274.14,-55.607
 L 1273.62,-55.58 z
M 549.611,-55.607 L 549.102,-55.6875 L 548.605,-55.8208 L 548.124,-56.0054 L 547.665,-56.2392 L 547.233,-56.5196
 L 546.833,-56.8437 L 546.469,-57.2079 L 546.145,-57.6081 L 545.864,-58.04 L 545.63,-58.4989 L 545.446,-58.9796
 L 545.313,-59.4771 L 545.232,-59.9857 L 545.205,-60.5 L 545.232,-61.0143 L 545.313,-61.5229 L 545.446,-62.0204
 L 545.63,-62.5011 L 545.864,-62.96 L 546.145,-63.3919 L 546.469,-63.7921 L 546.833,-64.1563 L 547.233,-64.4804
 L 547.575,-64.7024 L 547.575,-74 L 547.631,-74.5302 L 547.795,-75.0372 L 548.062,-75.4988 L 548.419,-75.895
 L 548.85,-76.2084 L 549.337,-76.4252 L 549.858,-76.536 L 550.392,-76.536 L 550.913,-76.4252 L 551.4,-76.2084
 L 551.831,-75.895 L 552.188,-75.4988 L 552.455,-75.0372 L 552.619,-74.5302 L 552.675,-74 L 552.675,-64.7024
 L 553.017,-64.4804 L 553.417,-64.1563 L 553.781,-63.7921 L 554.105,-63.3919 L 554.386,-62.96 L 554.62,-62.5011
 L 554.804,-62.0204 L 554.937,-61.5229 L 555.018,-61.0143 L 555.045,-60.5 L 555.018,-59.9857 L 554.937,-59.4771
 L 554.804,-58.9796 L 554.62,-58.4989 L 554.386,-58.04 L 554.105,-57.6081 L 553.781,-57.2079 L 553.417,-56.8437
 L 553.017,-56.5196 L 552.585,-56.2392 L 552.126,-56.0054 L 551.645,-55.8208 L 551.148,-55.6875 L 550.639,-55.607
 L 550.125,-55.58 z
M 368.736,-55.607 L 368.227,-55.6875 L 367.73,-55.8208 L 367.249,-56.0054 L 366.79,-56.2392 L 366.358,-56.5196
 L 365.958,-56.8437 L 365.594,-57.2079 L 365.27,-57.6081 L 364.989,-58.04 L 364.755,-58.4989 L 364.571,-58.9796
 L 364.438,-59.4771 L 364.357,-59.9857 L 364.33,-60.5 L 364.357,-61.0143 L 364.438,-61.5229 L 364.571,-62.0204
 L 364.755,-62.5011 L 364.989,-62.96 L 365.27,-63.3919 L 365.594,-63.7921 L 365.958,-64.1563 L 366.358,-64.4804
 L 366.7,-64.7024 L 366.7,-74 L 366.756,-74.5302 L 366.92,-75.0372 L 367.187,-75.4988 L 367.544,-75.895
 L 367.975,-76.2084 L 368.462,-76.4252 L 368.983,-76.536 L 369.517,-76.536 L 370.038,-76.4252 L 370.525,-76.2084
 L 370.956,-75.895 L 371.313,-75.4988 L 371.58,-75.0372 L 371.744,-74.5302 L 371.8,-74 L 371.8,-64.7024
 L 372.142,-64.4804 L 372.542,-64.1563 L 372.906,-63.7921 L 373.23,-63.3919 L 373.511,-62.96 L 373.745,-62.5011
 L 373.929,-62.0204 L 374.062,-61.5229 L 374.143,-61.0143 L 374.17,-60.5 L 374.143,-59.9857 L 374.062,-59.4771
 L 373.929,-58.9796 L 373.745,-58.4989 L 373.511,-58.04 L 373.23,-57.6081 L 372.906,-57.2079 L 372.542,-56.8437
 L 372.142,-56.5196 L 371.71,-56.2392 L 371.251,-56.0054 L 370.77,-55.8208 L 370.273,-55.6875 L 369.764,-55.607
 L 369.25,-55.58 z
M 1453.99,-55.607 L 1453.48,-55.6875 L 1452.98,-55.8208 L 1452.5,-56.0054 L 1452.04,-56.2392 L 1451.61,-56.5196
 L 1451.21,-56.8437 L 1450.84,-57.2079 L 1450.52,-57.6081 L 1450.24,-58.04 L 1450.01,-58.4989 L 1449.82,-58.9796
 L 1449.69,-59.4771 L 1449.61,-59.9857 L 1449.58,-60.5 L 1449.61,-61.0143 L 1449.69,-61.5229 L 1449.82,-62.0204
 L 1450.01,-62.5011 L 1450.24,-62.96 L 1450.52,-63.3919 L 1450.84,-63.7921 L 1451.21,-64.1563 L 1451.61,-64.4804
 L 1451.95,-64.7024 L 1451.95,-74 L 1452.01,-74.5302 L 1452.17,-75.0372 L 1452.44,-75.4988 L 1452.79,-75.895
 L 1453.23,-76.2084 L 1453.71,-76.4252 L 1454.23,-76.536 L 1454.77,-76.536 L 1455.29,-76.4252 L 1455.77,-76.2084
 L 1456.21,-75.895 L 1456.56,-75.4988 L 1456.83,-75.0372 L 1456.99,-74.5302 L 1457.05,-74 L 1457.05,-64.7024
 L 1457.39,-64.4804 L 1457.79,-64.1563 L 1458.16,-63.7921 L 1458.48,-63.3919 L 1458.76,-62.96 L 1458.99,-62.5011
 L 1459.18,-62.0204 L 1459.31,-61.5229 L 1459.39,-61.0143 L 1459.42,-60.5 L 1459.39,-59.9857 L 1459.31,-59.4771
 L 1459.18,-58.9796 L 1458.99,-58.4989 L 1458.76,-58.04 L 1458.48,-57.6081 L 1458.16,-57.2079 L 1457.79,-56.8437
 L 1457.39,-56.5196 L 1456.96,-56.2392 L 1456.5,-56.0054 L 1456.02,-55.8208 L 1455.52,-55.6875 L 1455.01,-55.607
 L 1454.5,-55.58 z
M 355.652,-20.8064 L 354.842,-21.0172 L 266.43,-54.2559 L 265.486,-54.7639 L 264.865,-55.3235 L 264.374,-56
 L 264.033,-56.7639 L 263.86,-57.5819 L 263.86,-58.4181 L 264.033,-59.2361 L 264.374,-60 L 264.865,-60.6765
 L 265.486,-61.2361 L 266.211,-61.6542 L 267.006,-61.9126 L 267.838,-62 L 356.25,-62 L 357.486,-61.8042
 L 358.25,-61.4641 L 358.927,-60.9726 L 359.486,-60.3511 L 359.904,-59.627 L 360.163,-58.8316 L 360.25,-58
 L 360.25,-24.7614 L 360.121,-23.7528 L 359.826,-22.9701 L 359.376,-22.2656 L 358.789,-21.6703 L 358.091,-21.21
 L 357.312,-20.9049 L 356.487,-20.7684 z
M 536.527,-20.8064 L 535.717,-21.0172 L 447.305,-54.2559 L 446.361,-54.7639 L 445.74,-55.3235 L 445.249,-56
 L 444.908,-56.7639 L 444.735,-57.5819 L 444.735,-58.4181 L 444.908,-59.2361 L 445.249,-60 L 445.74,-60.6765
 L 446.361,-61.2361 L 447.086,-61.6542 L 447.881,-61.9126 L 448.713,-62 L 537.125,-62 L 538.361,-61.8042
 L 539.125,-61.4641 L 539.802,-60.9726 L 540.361,-60.3511 L 540.779,-59.627 L 541.038,-58.8316 L 541.125,-58
 L 541.125,-24.7614 L 540.996,-23.7528 L 540.701,-22.9701 L 540.251,-22.2656 L 539.664,-21.6703 L 538.966,-21.21
 L 538.187,-20.9049 L 537.362,-20.7684 z
M 1285.56,-20.9049 L 1284.78,-21.21 L 1284.09,-21.6703 L 1283.5,-22.2656 L 1283.05,-22.9701 L 1282.75,-23.7528
 L 1282.62,-24.7614 L 1282.62,-58 L 1282.71,-58.8316 L 1282.97,-59.627 L 1283.39,-60.3511 L 1283.95,-60.9726
 L 1284.62,-61.4641 L 1285.39,-61.8042 L 1286.62,-62 L 1375.04,-62 L 1375.87,-61.9126 L 1376.66,-61.6542
 L 1377.39,-61.2361 L 1378.01,-60.6765 L 1378.5,-60 L 1378.84,-59.2361 L 1379.02,-58.4181 L 1379.02,-57.5819
 L 1378.84,-56.7639 L 1378.5,-56 L 1378.01,-55.3235 L 1377.39,-54.7639 L 1376.44,-54.2559 L 1288.03,-21.0172
 L 1287.22,-20.8064 L 1286.39,-20.7684 z
M 717.402,-20.8064 L 716.592,-21.0172 L 628.18,-54.2559 L 627.236,-54.7639 L 626.615,-55.3235 L 626.124,-56
 L 625.783,-56.7639 L 625.61,-57.5819 L 625.61,-58.4181 L 625.783,-59.2361 L 626.124,-60 L 626.615,-60.6765
 L 627.236,-61.2361 L 627.961,-61.6542 L 628.756,-61.9126 L 629.588,-62 L 718,-62 L 719.236,-61.8042
 L 720,-61.4641 L 720.677,-60.9726 L 721.236,-60.3511 L 721.654,-59.627 L 721.913,-58.8316 L 722,-58
 L 722,-24.7614 L 721.871,-23.7528 L 721.576,-22.9701 L 721.126,-22.2656 L 720.539,-21.6703 L 719.841,-21.21
 L 719.062,-20.9049 L 718.237,-20.7684 z
M 174.777,-20.8064 L 173.967,-21.0172 L 85.555,-54.2559 L 84.6115,-54.7639 L 83.9901,-55.3235 L 83.4985,-56
 L 83.1584,-56.7639 L 82.9845,-57.5819 L 82.9845,-58.4181 L 83.1584,-59.2361 L 83.4985,-60 L 83.9901,-60.6765
 L 84.6115,-61.2361 L 85.3357,-61.6542 L 86.131,-61.9126 L 86.9626,-62 L 175.375,-62 L 176.611,-61.8042
 L 177.375,-61.4641 L 178.052,-60.9726 L 178.611,-60.3511 L 179.029,-59.627 L 179.288,-58.8316 L 179.375,-58
 L 179.375,-24.7614 L 179.246,-23.7528 L 178.951,-22.9701 L 178.501,-22.2656 L 177.914,-21.6703 L 177.216,-21.21
 L 176.437,-20.9049 L 175.612,-20.7684 z
M 742.938,-20.9049 L 742.159,-21.21 L 741.461,-21.6703 L 740.874,-22.2656 L 740.424,-22.9701 L 740.129,-23.7528
 L 740,-24.7614 L 740,-58 L 740.087,-58.8316 L 740.346,-59.627 L 740.764,-60.3511 L 741.323,-60.9726
 L 742,-61.4641 L 742.764,-61.8042 L 744,-62 L 832.412,-62 L 833.244,-61.9126 L 834.039,-61.6542
 L 834.764,-61.2361 L 835.385,-60.6765 L 835.876,-60 L 836.217,-59.2361 L 836.39,-58.4181 L 836.39,-57.5819
 L 836.217,-56.7639 L 835.876,-56 L 835.385,-55.3235 L 834.764,-54.7639 L 833.82,-54.2559 L 745.408,-21.0172
 L 744.598,-20.8064 L 743.763,-20.7684 z
M 923.813,-20.9049 L 923.034,-21.21 L 922.336,-21.6703 L 921.749,-22.2656 L 921.299,-22.9701 L 921.004,-23.7528
 L 920.875,-24.7614 L 920.875,-58 L 920.962,-58.8316 L 921.221,-59.627 L 921.639,-60.3511 L 922.198,-60.9726
 L 922.875,-61.4641 L 923.639,-61.8042 L 924.875,-62 L 1013.29,-62 L 1014.12,-61.9126 L 1014.91,-61.6542
 L 1015.64,-61.2361 L 1016.26,-60.6765 L 1016.75,-60 L 1017.09,-59.2361 L 1017.27,-58.4181 L 1017.27,-57.5819
 L 1017.09,-56.7639 L 1016.75,-56 L 1016.26,-55.3235 L 1015.64,-54.7639 L 1014.69,-54.2559 L 926.283,-21.0172
 L 925.473,-20.8064 L 924.638,-20.7684 z
M 1104.69,-20.9049 L 1103.91,-21.21 L 1103.21,-21.6703 L 1102.62,-22.2656 L 1102.17,-22.9701 L 1101.88,-23.7528
 L 1101.75,-24.7614 L 1101.75,-58 L 1101.84,-58.8316 L 1102.1,-59.627 L 1102.51,-60.3511 L 1103.07,-60.9726
 L 1103.75,-61.4641 L 1104.51,-61.8042 L 1105.75,-62 L 1194.16,-62 L 1194.99,-61.9126 L 1195.79,-61.6542
 L 1196.51,-61.2361 L 1197.13,-60.6765 L 1197.63,-60 L 1197.97,-59.2361 L 1198.14,-58.4181 L 1198.14,-57.5819
 L 1197.97,-56.7639 L 1197.63,-56 L 1197.13,-55.3235 L 1196.51,-54.7639 L 1195.57,-54.2559 L 1107.16,-21.0172
 L 1106.35,-20.8064 L 1105.51,-20.7684 z
M 201.375,-18 L 200.139,-18.1958 L 199.375,-18.5359 L 198.698,-19.0274 L 198.139,-19.6489 L 197.721,-20.373
 L 197.462,-21.1684 L 197.375,-22 L 197.375,-55.2386 L 197.504,-56.2472 L 197.799,-57.0299 L 198.249,-57.7344
 L 198.836,-58.3297 L 199.534,-58.79 L 200.313,-59.0951 L 201.138,-59.2316 L 201.973,-59.1936 L 202.783,-58.9828
 L 291.195,-25.7441 L 292.138,-25.2361 L 292.76,-24.6765 L 293.251,-24 L 293.592,-23.2361 L 293.765,-22.4181
 L 293.765,-21.5819 L 293.592,-20.7639 L 293.251,-20 L 292.76,-19.3235 L 292.138,-18.7639 L 291.414,-18.3458
 L 290.619,-18.0874 L 289.787,-18 z
M 382.25,-18 L 381.014,-18.1958 L 380.25,-18.5359 L 379.573,-19.0274 L 379.014,-19.6489 L 378.596,-20.373
 L 378.337,-21.1684 L 378.25,-22 L 378.25,-55.2386 L 378.379,-56.2472 L 378.674,-57.0299 L 379.124,-57.7344
 L 379.711,-58.3297 L 380.409,-58.79 L 381.188,-59.0951 L 382.013,-59.2316 L 382.848,-59.1936 L 383.658,-58.9828
 L 472.07,-25.7441 L 473.013,-25.2361 L 473.635,-24.6765 L 474.126,-24 L 474.467,-23.2361 L 474.64,-22.4181
 L 474.64,-21.5819 L 474.467,-20.7639 L 474.126,-20 L 473.635,-19.3235 L 473.013,-18.7639 L 472.289,-18.3458
 L 471.494,-18.0874 L 470.662,-18 z
M 563.125,-18 L 561.889,-18.1958 L 561.125,-18.5359 L 560.448,-19.0274 L 559.889,-19.6489 L 559.471,-20.373
 L 559.212,-21.1684 L 559.125,-22 L 559.125,-55.2386 L 559.254,-56.2472 L 559.549,-57.0299 L 559.999,-57.7344
 L 560.586,-58.3297 L 561.284,-58.79 L 562.063,-59.0951 L 562.888,-59.2316 L 563.723,-59.1936 L 564.533,-58.9828
 L 652.945,-25.7441 L 653.888,-25.2361 L 654.51,-24.6765 L 655.001,-24 L 655.342,-23.2361 L 655.515,-22.4181
 L 655.515,-21.5819 L 655.342,-20.7639 L 655.001,-20 L 654.51,-19.3235 L 653.888,-18.7639 L 653.164,-18.3458
 L 652.369,-18.0874 L 651.537,-18 z
M 810.463,-18 L 809.631,-18.0874 L 808.836,-18.3458 L 808.112,-18.7639 L 807.49,-19.3235 L 806.999,-20
 L 806.658,-20.7639 L 806.485,-21.5819 L 806.485,-22.4181 L 806.658,-23.2361 L 806.999,-24 L 807.49,-24.6765
 L 808.112,-25.2361 L 809.055,-25.7441 L 897.467,-58.9828 L 898.277,-59.1936 L 899.112,-59.2316 L 899.937,-59.0951
 L 900.716,-58.79 L 901.414,-58.3297 L 902.001,-57.7344 L 902.451,-57.0299 L 902.746,-56.2472 L 902.875,-55.2386
 L 902.875,-22 L 902.788,-21.1684 L 902.529,-20.373 L 902.111,-19.6489 L 901.552,-19.0274 L 900.875,-18.5359
 L 900.111,-18.1958 L 898.875,-18 z
M 991.338,-18 L 990.506,-18.0874 L 989.711,-18.3458 L 988.987,-18.7639 L 988.365,-19.3235 L 987.874,-20
 L 987.533,-20.7639 L 987.36,-21.5819 L 987.36,-22.4181 L 987.533,-23.2361 L 987.874,-24 L 988.365,-24.6765
 L 988.987,-25.2361 L 989.93,-25.7441 L 1078.34,-58.9828 L 1079.15,-59.1936 L 1079.99,-59.2316 L 1080.81,-59.0951
 L 1081.59,-58.79 L 1082.29,-58.3297 L 1082.88,-57.7344 L 1083.33,-57.0299 L 1083.62,-56.2472 L 1083.75,-55.2386
 L 1083.75,-22 L 1083.66,-21.1684 L 1083.4,-20.373 L 1082.99,-19.6489 L 1082.43,-19.0274 L 1081.75,-18.5359
 L 1080.99,-18.1958 L 1079.75,-18 z
M 1172.21,-18 L 1171.38,-18.0874 L 1170.59,-18.3458 L 1169.86,-18.7639 L 1169.24,-19.3235 L 1168.75,-20
 L 1168.41,-20.7639 L 1168.23,-21.5819 L 1168.23,-22.4181 L 1168.41,-23.2361 L 1168.75,-24 L 1169.24,-24.6765
 L 1169.86,-25.2361 L 1170.81,-25.7441 L 1259.22,-58.9828 L 1260.03,-59.1936 L 1260.86,-59.2316 L 1261.69,-59.0951
 L 1262.47,-58.79 L 1263.16,-58.3297 L 1263.75,-57.7344 L 1264.2,-57.0299 L 1264.5,-56.2472 L 1264.62,-55.2386
 L 1264.62,-22 L 1264.54,-21.1684 L 1264.28,-20.373 L 1263.86,-19.6489 L 1263.3,-19.0274 L 1262.62,-18.5359
 L 1261.86,-18.1958 L 1260.62,-18 z
M 1353.09,-18 L 1352.26,-18.0874 L 1351.46,-18.3458 L 1350.74,-18.7639 L 1350.12,-19.3235 L 1349.62,-20
 L 1349.28,-20.7639 L 1349.11,-21.5819 L 1349.11,-22.4181 L 1349.28,-23.2361 L 1349.62,-24 L 1350.12,-24.6765
 L 1350.74,-25.2361 L 1351.68,-25.7441 L 1438.59,-58.4189 L 1439.4,-58.6297 L 1440.24,-58.6677 L 1441.06,-58.5312
 L 1441.84,-58.2261 L 1442.54,-57.7658 L 1443.13,-57.1704 L 1443.58,-56.466 L 1443.87,-55.6832 L 1444,-54.6747
 L 1444,-22 L 1443.91,-21.1684 L 1443.65,-20.373 L 1443.24,-19.6489 L 1442.68,-19.0274 L 1442,-18.5359
 L 1441.24,-18.1958 L 1440,-18 z
M 22,-18 L 20.7639,-18.1958 L 20,-18.5359 L 19.3235,-19.0274 L 18.7639,-19.6489 L 18.3458,-20.373
 L 18.0874,-21.1684 L 18,-22 L 18,-54.6747 L 18.1292,-55.6832 L 18.4235,-56.466 L 18.8741,-57.1704
 L 19.4613,-57.7658 L 20.1594,-58.2261 L 20.938,-58.5312 L 21.763,-58.6677 L 22.5984,-58.6297 L 23.4076,-58.4189
 L 110.32,-25.7441 L 111.263,-25.2361 L 111.885,-24.6765 L 112.376,-24 L 112.717,-23.2361 L 112.89,-22.4181
 L 112.89,-21.5819 L 112.717,-20.7639 L 112.376,-20 L 111.885,-19.3235 L 111.263,-18.7639 L 110.539,-18.3458
 L 109.744,-18.0874 L 108.912,-18 z
" stroke="black" fill="lightgray" stroke-width="0.5"/>
</svg>
