<?xml version="1.0" standalone="no"?>
<!DOCTYPE svg PUBLIC "-//W3C//DTD SVG 1.1//EN" "http://www.w3.org/Graphics/SVG/1.1/DTD/svg11.dtd">
<svg width="1576mm" height="80mm" viewBox="0 -80 1576 80" xmlns="http://www.w3.org/2000/svg" version="1.1">
<title>OpenSCAD Model</title>
<path d="
M 1576,-80 L 0,-80 L 0,-0 L 4.95,-0 L 4.95,-6 L 5.00572,-6.53017
 L 5.17046,-7.03717 L 5.437,-7.49884 L 5.79372,-7.895 L 6.22499,-8.20836 L 6.71201,-8.42519 L 7.23344,-8.53603
 L 7.76654,-8.53603 L 8.28798,-8.42519 L 8.77499,-8.20836 L 9.20627,-7.895 L 9.56299,-7.49884 L 9.82953,-7.03717
 L 9.99426,-6.53017 L 10.05,-6 L 10.05,-0 L 200.075,-0 L 200.075,-6 L 200.131,-6.53017
 L 200.295,-7.03717 L 200.562,-7.49884 L 200.919,-7.895 L 201.35,-8.20836 L 201.837,-8.42519 L 202.358,-8.53603
 L 202.892,-8.53603 L 203.413,-8.42519 L 203.9,-8.20836 L 204.331,-7.895 L 204.688,-7.49884 L 204.955,-7.03717
 L 205.119,-6.53017 L 205.175,-6 L 205.175,-0 L 395.2,-0 L 395.2,-6 L 395.256,-6.53017
 L 395.42,-7.03717 L 395.687,-7.49884 L 396.044,-7.895 L 396.475,-8.20836 L 396.962,-8.42519 L 397.483,-8.53603
 L 398.017,-8.53603 L 398.538,-8.42519 L 399.025,-8.20836 L 399.456,-7.895 L 399.813,-7.49884 L 400.08,-7.03717
 L 400.244,-6.53017 L 400.3,-6 L 400.3,-0 L 590.325,-0 L 590.325,-6 L 590.381,-6.53017
 L 590.545,-7.03717 L 590.812,-7.49884 L 591.169,-7.895 L 591.6,-8.20836 L 592.087,-8.42519 L 592.608,-8.53603
 L 593.142,-8.53603 L 593.663,-8.42519 L 594.15,-8.20836 L 594.581,-7.895 L 594.938,-7.49884 L 595.205,-7.03717
 L 595.369,-6.53017 L 595.425,-6 L 595.425,-0 L 785.45,-0 L 785.45,-6 L 785.506,-6.53017
 L 785.67,-7.03717 L 785.937,-7.49884 L 786.294,-7.895 L 786.725,-8.20836 L 787.212,-8.42519 L 787.733,-8.53603
 L 788.267,-8.53603 L 788.788,-8.42519 L 789.275,-8.20836 L 789.706,-7.895 L 790.063,-7.49884 L 790.33,-7.03717
 L 790.494,-6.53017 L 790.55,-6 L 790.55,-0 L 980.575,-0 L 980.575,-6 L 980.631,-6.53017
 L 980.795,-7.03717 L 981.062,-7.49884 L 981.419,-7.895 L 981.85,-8.20836 L 982.337,-8.42519 L 982.858,-8.53603
 L 983.392,-8.53603 L 983.913,-8.42519 L 984.4,-8.20836 L 984.831,-7.895 L 985.188,-7.49884 L 985.455,-7.03717
 L 985.619,-6.53017 L 985.675,-6 L 985.675,-0 L 1175.7,-0 L 1175.7,-6 L 1175.76,-6.53017
 L 1175.92,-7.03717 L 1176.19,-7.49884 L 1176.54,-7.895 L 1176.97,-8.20836 L 1177.46,-8.42519 L 1177.98,-8.53603
 L 1178.52,-8.53603 L 1179.04,-8.42519 L 1179.52,-8.20836 L 1179.96,-7.895 L 1180.31,-7.49884 L 1180.58,-7.03717
 L 1180.74,-6.53017 L 1180.8,-6 L 1180.8,-0 L 1370.82,-0 L 1370.82,-6 L 1370.88,-6.53017
 L 1371.05,-7.03717 L 1371.31,-7.49884 L 1371.67,-7.895 L 1372.1,-8.20836 L 1372.59,-8.42519 L 1373.11,-8.53603
 L 1373.64,-8.53603 L 1374.16,-8.42519 L 1374.65,-8.20836 L 1375.08,-7.895 L 1375.44,-7.49884 L 1375.7,-7.03717
 L 1375.87,-6.53017 L 1375.92,-6 L 1375.92,-0 L 1565.95,-0 L 1565.95,-6 L 1566.01,-6.53017
 L 1566.17,-7.03717 L 1566.44,-7.49884 L 1566.79,-7.895 L 1567.22,-8.20836 L 1567.71,-8.42519 L 1568.23,-8.53603
 L 1568.77,-8.53603 L 1569.29,-8.42519 L 1569.77,-8.20836 L 1570.21,-7.895 L 1570.56,-7.49884 L 1570.83,-7.03717
 L 1570.99,-6.53017 L 1571.05,-6 L 1571.05,-0 L 1576,-0 z
M 202.111,-55.607 L 201.602,-55.6875 L 201.105,-55.8208 L 200.624,-56.0054 L 200.165,-56.2392 L 199.733,-56.5196
 L 199.333,-56.8437 L 198.969,-57.2079 L 198.645,-57.6081 L 198.364,-58.04 L 198.13,-58.4989 L 197.946,-58.9796
 L 197.813,-59.4771 L 197.732,-59.9857 L 197.705,-60.5 L 197.732,-61.0143 L 197.813,-61.5229 L 197.946,-62.0204
 L 198.13,-62.5011 L 198.364,-62.96 L 198.645,-63.3919 L 198.969,-63.7921 L 199.333,-64.1563 L 199.733,-64.4804
 L 200.075,-64.7024 L 200.075,-74 L 200.131,-74.5302 L 200.295,-75.0372 L 200.562,-75.4988 L 200.919,-75.895
 L 201.35,-76.2084 L 201.837,-76.4252 L 202.358,-76.536 L 202.892,-76.536 L 203.413,-76.4252 L 203.9,-76.2084
 L 204.331,-75.895 L 204.688,-75.4988 L 204.955,-75.0372 L 205.119,-74.5302 L 205.175,-74 L 205.175,-64.7024
 L 205.517,-64.4804 L 205.917,-64.1563 L 206.281,-63.7921 L 206.605,-63.3919 L 206.886,-62.96 L 207.12,-62.5011
 L 207.304,-62.0204 L 207.437,-61.5229 L 207.518,-61.0143 L 207.545,-60.5 L 207.518,-59.9857 L 207.437,-59.4771
 L 207.304,-58.9796 L 207.12,-58.4989 L 206.886,-58.04 L 206.605,-57.6081 L 206.281,-57.2079 L 205.917,-56.8437
 L 205.517,-56.5196 L 205.085,-56.2392 L 204.626,-56.0054 L 204.145,-55.8208 L 203.648,-55.6875 L 203.139,-55.607
 L 202.625,-55.58 z
M 1177.74,-55.607 L 1177.23,-55.6875 L 1176.73,-55.8208 L 1176.25,-56.0054 L 1175.79,-56.2392 L 1175.36,-56.5196
 L 1174.96,-56.8437 L 1174.59,-57.2079 L 1174.27,-57.6081 L 1173.99,-58.04 L 1173.76,-58.4989 L 1173.57,-58.9796
 L 1173.44,-59.4771 L 1173.36,-59.9857 L 1173.33,-60.5 L 1173.36,-61.0143 L 1173.44,-61.5229 L 1173.57,-62.0204
 L 1173.76,-62.5011 L 1173.99,-62.96 L 1174.27,-63.3919 L 1174.59,-63.7921 L 1174.96,-64.1563 L 1175.36,-64.4804
 L 1175.7,-64.7024 L 1175.7,-74 L 1175.76,-74.5302 L 1175.92,-75.0372 L 1176.19,-75.4988 L 1176.54,-75.895
 L 1176.98,-76.2084 L 1177.46,-76.4252 L 1177.98,-76.536 L 1178.52,-76.536 L 1179.04,-76.4252 L 1179.52,-76.2084
 L 1179.96,-75.895 L 1180.31,-75.4988 L 1180.58,-75.0372 L 1180.74,-74.5302 L 1180.8,-74 L 1180.8,-64.7024
 L 1181.14,-64.4804 L 1181.54,-64.1563 L 1181.91,-63.7921 L 1182.23,-63.3919 L 1182.51,-62.96 L 1182.74,-62.5011
 L 1182.93,-62.0204 L 1183.06,-61.5229 L 1183.14,-61.0143 L 1183.17,-60.5 L 1183.14,-59.9857 L 1183.06,-59.4771
 L 1182.93,-58.9796 L 1182.74,-58.4989 L 1182.51,-58.04 L 1182.23,-57.6081 L 1181.91,-57.2079 L 1181.54,-56.8437
 L 1181.14,-56.5196 L 1180.71,-56.2392 L 1180.25,-56.0054 L 1179.77,-55.8208 L 1179.27,-55.6875 L 1178.76,-55.607
 L 1178.25,-55.58 z
M 982.611,-55.607 L 982.102,-55.6875 L 981.605,-55.8208 L 981.124,-56.0054 L 980.665,-56.2392 L 980.233,-56.5196
 L 979.833,-56.8437 L 979.469,-57.2079 L 979.145,-57.6081 L 978.864,-58.04 L 978.63,-58.4989 L 978.446,-58.9796
 L 978.313,-59.4771 L 978.232,-59.9857 L 978.205,-60.5 L 978.232,-61.0143 L 978.313,-61.5229 L 978.446,-62.0204
 L 978.63,-62.5011 L 978.864,-62.96 L 979.145,-63.3919 L 979.469,-63.7921 L 979.833,-64.1563 L 980.233,-64.4804
 L 980.575,-64.7024 L 980.575,-74 L 980.631,-74.5302 L 980.795,-75.0372 L 981.062,-75.4988 L 981.419,-75.895
 L 981.85,-76.2084 L 982.337,-76.4252 L 982.858,-76.536 L 983.392,-76.536 L 983.913,-76.4252 L 984.4,-76.2084
 L 984.831,-75.895 L 985.188,-75.4988 L 985.455,-75.0372 L 985.619,-74.5302 L 985.675,-74 L 985.675,-64.7024
 L 986.017,-64.4804 L 986.417,-64.1563 L 986.781,-63.7921 L 987.105,-63.3919 L 987.386,-62.96 L 987.62,-62.5011
 L 987.804,-62.0204 L 987.937,-61.5229 L 988.018,-61.0143 L 988.045,-60.5 L 988.018,-59.9857 L 987.937,-59.4771
 L 987.804,-58.9796 L 987.62,-58.4989 L 987.386,-58.04 L 987.105,-57.6081 L 986.781,-57.2079 L 986.417,-56.8437
 L 986.017,-56.5196 L 985.585,-56.2392 L 985.126,-56.0054 L 984.645,-55.8208 L 984.148,-55.6875 L 983.639,-55.607
 L 983.125,-55.58 z
M 6.98573,-55.607 L 6.47708,-55.6875 L 5.97964,-55.8208 L 5.49887,-56.0054 L 5.04001,-56.2392 L 4.60811,-56.5196
 L 4.20789,-56.8437 L 3.84373,-57.2079 L 3.51964,-57.6081 L 3.23917,-58.04 L 3.00537,-58.4989 L 2.82082,-58.9796
 L 2.68752,-59.4771 L 2.60696,-59.9857 L 2.58,-60.5 L 2.60696,-61.0143 L 2.68752,-61.5229 L 2.82082,-62.0204
 L 3.00537,-62.5011 L 3.23917,-62.96 L 3.51964,-63.3919 L 3.84373,-63.7921 L 4.20789,-64.1563 L 4.60811,-64.4804
 L 4.95001,-64.7024 L 4.95001,-74 L 5.00574,-74.5302 L 5.17047,-75.0372 L 5.43701,-75.4988 L 5.79373,-75.895
 L 6.22501,-76.2084 L 6.71202,-76.4252 L 7.23346,-76.536 L 7.76654,-76.536 L 8.28798,-76.4252 L 8.77499,-76.2084
 L 9.20627,-75.895 L 9.56299,-75.4988 L 9.82953,-75.0372 L 9.99426,-74.5302 L 10.05,-74 L 10.05,-64.7024
 L 10.3919,-64.4804 L 10.7921,-64.1563 L 11.1563,-63.7921 L 11.4804,-63.3919 L 11.7608,-62.96 L 11.9946,-62.5011
 L 12.1792,-62.0204 L 12.3125,-61.5229 L 12.393,-61.0143 L 12.42,-60.5 L 12.393,-59.9857 L 12.3125,-59.4771
 L 12.1792,-58.9796 L 11.9946,-58.4989 L 11.7608,-58.04 L 11.4804,-57.6081 L 11.1563,-57.2079 L 10.7921,-56.8437
 L 10.3919,-56.5196 L 9.95999,-56.2392 L 9.50113,-56.0054 L 9.02036,-55.8208 L 8.52292,-55.6875 L 8.01427,-55.607
 L 7.5,-55.58 z
M 787.486,-55.607 L 786.977,-55.6875 L 786.48,-55.8208 L 785.999,-56.0054 L 785.54,-56.2392 L 785.108,-56.5196
 L 784.708,-56.8437 L 784.344,-57.2079 L 784.02,-57.6081 L 783.739,-58.04 L 783.505,-58.4989 L 783.321,-58.9796
 L 783.188,-59.4771 L 783.107,-59.9857 L 783.08,-60.5 L 783.107,-61.0143 L 783.188,-61.5229 L 783.321,-62.0204
 L 783.505,-62.5011 L 783.739,-62.96 L 784.02,-63.3919 L 784.344,-63.7921 L 784.708,-64.1563 L 785.108,-64.4804
 L 785.45,-64.7024 L 785.45,-74 L 785.506,-74.5302 L 785.67,-75.0372 L 785.937,-75.4988 L 786.294,-75.895
 L 786.725,-76.2084 L 787.212,-76.4252 L 787.733,-76.536 L 788.267,-76.536 L 788.788,-76.4252 L 789.275,-76.2084
 L 789.706,-75.895 L 790.063,-75.4988 L 790.33,-75.0372 L 790.494,-74.5302 L 790.55,-74 L 790.55,-64.7024
 L 790.892,-64.4804 L 791.292,-64.1563 L 791.656,-63.7921 L 791.98,-63.3919 L 792.261,-62.96 L 792.495,-62.5011
 L 792.679,-62.0204 L 792.812,-61.5229 L 792.893,-61.0143 L 792.92,-60.5 L 792.893,-59.9857 L 792.812,-59.4771
 L 792.679,-58.9796 L 792.495,-58.4989 L 792.261,-58.04 L 791.98,-57.6081 L 791.656,-57.2079 L 791.292,-56.8437
 L 790.892,-56.5196 L 790.46,-56.2392 L 790.001,-56.0054 L 789.52,-55.8208 L 789.023,-55.6875 L 788.514,-55.607
 L 788,-55.58 z
M 1372.86,-55.607 L 1372.35,-55.6875 L 1371.85,-55.8208 L 1371.37,-56.0054 L 1370.92,-56.2392 L 1370.48,-56.5196
 L 1370.08,-56.8437 L 1369.72,-57.2079 L 1369.39,-57.6081 L 1369.11,-58.04 L 1368.88,-58.4989 L 1368.7,-58.9796
 L 1368.56,-59.4771 L 1368.48,-59.9857 L 1368.46,-60.5 L 1368.48,-61.0143 L 1368.56,-61.5229 L 1368.7,-62.0204
 L 1368.88,-62.5011 L 1369.11,-62.96 L 1369.39,-63.3919 L 1369.72,-63.7921 L 1370.08,-64.1563 L 1370.48,-64.4804
 L 1370.83,-64.7024 L 1370.83,-74 L 1370.88,-74.5302 L 1371.05,-75.0372 L 1371.31,-75.4988 L 1371.67,-75.895
 L 1372.1,-76.2084 L 1372.59,-76.4252 L 1373.11,-76.536 L 1373.64,-76.536 L 1374.16,-76.4252 L 1374.65,-76.2084
 L 1375.08,-75.895 L 1375.44,-75.4988 L 1375.7,-75.0372 L 1375.87,-74.5302 L 1375.92,-74 L 1375.92,-64.7024
 L 1376.27,-64.4804 L 1376.67,-64.1563 L 1377.03,-63.7921 L 1377.36,-63.3919 L 1377.64,-62.96 L 1377.87,-62.5011
 L 1378.05,-62.0204 L 1378.19,-61.5229 L 1378.27,-61.0143 L 1378.29,-60.5 L 1378.27,-59.9857 L 1378.19,-59.4771
 L 1378.05,-58.9796 L 1377.87,-58.4989 L 1377.64,-58.04 L 1377.36,-57.6081 L 1377.03,-57.2079 L 1376.67,-56.8437
 L 1376.27,-56.5196 L 1375.83,-56.2392 L 1375.38,-56.0054 L 1374.9,-55.8208 L 1374.4,-55.6875 L 1373.89,-55.607
 L 1373.38,-55.58 z
M 592.361,-55.607 L 591.852,-55.6875 L 591.355,-55.8208 L 590.874,-56.0054 L 590.415,-56.2392 L 589.983,-56.5196
 L 589.583,-56.8437 L 589.219,-57.2079 L 588.895,-57.6081 L 588.614,-58.04 L 588.38,-58.4989 L 588.196,-58.9796
 L 588.063,-59.4771 L 587.982,-59.9857 L 587.955,-60.5 L 587.982,-61.0143 L 588.063,-61.5229 L 588.196,-62.0204
 L 588.38,-62.5011 L 588.614,-62.96 L 588.895,-63.3919 L 589.219,-63.7921 L 589.583,-64.1563 L 589.983,-64.4804
 L 590.325,-64.7024 L 590.325,-74 L 590.381,-74.5302 L 590.545,-75.0372 L 590.812,-75.4988 L 591.169,-75.895
 L 591.6,-76.2084 L 592.087,-76.4252 L 592.608,-76.536 L 593.142,-76.536 L 593.663,-76.4252 L 594.15,-76.2084
 L 594.581,-75.895 L 594.938,-75.4988 L 595.205,-75.0372 L 595.369,-74.5302 L 595.425,-74 L 595.425,-64.7024
 L 595.767,-64.4804 L 596.167,-64.1563 L 596.531,-63.7921 L 596.855,-63.3919 L 597.136,-62.96 L 597.37,-62.5011
 L 597.554,-62.0204 L 597.687,-61.5229 L 597.768,-61.0143 L 597.795,-60.5 L 597.768,-59.9857 L 597.687,-59.4771
 L 597.554,-58.9796 L 597.37,-58.4989 L 597.136,-58.04 L 596.855,-57.6081 L 596.531,-57.2079 L 596.167,-56.8437
 L 595.767,-56.5196 L 595.335,-56.2392 L 594.876,-56.0054 L 594.395,-55.8208 L 593.898,-55.6875 L 593.389,-55.607
 L 592.875,-55.58 z
M 397.236,-55.607 L 396.727,-55.6875 L 396.23,-55.8208 L 395.749,-56.0054 L 395.29,-56.2392 L 394.858,-56.5196
 L 394.458,-56.8437 L 394.094,-57.2079 L 393.77,-57.6081 L 393.489,-58.04 L 393.255,-58.4989 L 393.071,-58.9796
 L 392.938,-59.4771 L 392.857,-59.9857 L 392.83,-60.5 L 392.857,-61.0143 L 392.938,-61.5229 L 393.071,-62.0204
 L 393.255,-62.5011 L 393.489,-62.96 L 393.77,-63.3919 L 394.094,-63.7921 L 394.458,-64.1563 L 394.858,-64.4804
 L 395.2,-64.7024 L 395.2,-74 L 395.256,-74.5302 L 395.42,-75.0372 L 395.687,-75.4988 L 396.044,-75.895
 L 396.475,-76.2084 L 396.962,-76.4252 L 397.483,-76.536 L 398.017,-76.536 L 398.538,-76.4252 L 399.025,-76.2084
 L 399.456,-75.895 L 399.813,-75.4988 L 400.08,-75.0372 L 400.244,-74.5302 L 400.3,-74 L 400.3,-64.7024
 L 400.642,-64.4804 L 401.042,-64.1563 L 401.406,-63.7921 L 401.73,-63.3919 L 402.011,-62.96 L 402.245,-62.5011
 L 402.429,-62.0204 L 402.562,-61.5229 L 402.643,-61.0143 L 402.67,-60.5 L 402.643,-59.9857 L 402.562,-59.4771
 L 402.429,-58.9796 L 402.245,-58.4989 L 402.011,-58.04 L 401.73,-57.6081 L 401.406,-57.2079 L 401.042,-56.8437
 L 400.642,-56.5196 L 400.21,-56.2392 L 399.751,-56.0054 L 399.27,-55.8208 L 398.773,-55.6875 L 398.264,-55.607
 L 397.75,-55.58 z
M 1567.99,-55.607 L 1567.48,-55.6875 L 1566.98,-55.8208 L 1566.5,-56.0054 L 1566.04,-56.2392 L 1565.61,-56.5196
 L 1565.21,-56.8437 L 1564.84,-57.2079 L 1564.52,-57.6081 L 1564.24,-58.04 L 1564.01,-58.4989 L 1563.82,-58.9796
 L 1563.69,-59.4771 L 1563.61,-59.9857 L 1563.58,-60.5 L 1563.61,-61.0143 L 1563.69,-61.5229 L 1563.82,-62.0204
 L 1564.01,-62.5011 L 1564.24,-62.96 L 1564.52,-63.3919 L 1564.84,-63.7921 L 1565.21,-64.1563 L 1565.61,-64.4804
 L 1565.95,-64.7024 L 1565.95,-74 L 1566.01,-74.5302 L 1566.17,-75.0372 L 1566.44,-75.4988 L 1566.79,-75.895
 L 1567.23,-76.2084 L 1567.71,-76.4252 L 1568.23,-76.536 L 1568.77,-76.536 L 1569.29,-76.4252 L 1569.77,-76.2084
 L 1570.21,-75.895 L 1570.56,-75.4988 L 1570.83,-75.0372 L 1570.99,-74.5302 L 1571.05,-74 L 1571.05,-64.7024
 L 1571.39,-64.4804 L 1571.79,-64.1563 L 1572.16,-63.7921 L 1572.48,-63.3919 L 1572.76,-62.96 L 1572.99,-62.5011
 L 1573.18,-62.0204 L 1573.31,-61.5229 L 1573.39,-61.0143 L 1573.42,-60.5 L 1573.39,-59.9857 L 1573.31,-59.4771
 L 1573.18,-58.9796 L 1572.99,-58.4989 L 1572.76,-58.04 L 1572.48,-57.6081 L 1572.16,-57.2079 L 1571.79,-56.8437
 L 1571.39,-56.5196 L 1570.96,-56.2392 L 1570.5,-56.0054 L 1570.02,-55.8208 L 1569.52,-55.6875 L 1569.01,-55.607
 L 1568.5,-55.58 z
M 384.248,-20.3258 L 383.434,-20.5169 L 286.715,-54.2228 L 285.68,-54.7639 L 285.059,-55.3235 L 284.567,-56
 L 284.227,-56.7639 L 284.053,-57.5819 L 284.053,-58.4181 L 284.227,-59.2361 L 284.567,-60 L 285.059,-60.6765
 L 285.68,-61.2361 L 286.405,-61.6542 L 287.2,-61.9126 L 288.031,-62 L 384.75,-62 L 385.986,-61.8042
 L 386.75,-61.4641 L 387.427,-60.9726 L 387.986,-60.3511 L 388.404,-59.627 L 388.663,-58.8316 L 388.75,-58
 L 388.75,-24.2941 L 388.644,-23.3798 L 388.369,-22.5902 L 387.936,-21.875 L 387.363,-21.2655 L 386.676,-20.7885
 L 385.905,-20.4646 L 385.084,-20.3081 z
M 579.373,-20.3258 L 578.559,-20.5169 L 481.84,-54.2228 L 480.805,-54.7639 L 480.184,-55.3235 L 479.692,-56
 L 479.352,-56.7639 L 479.178,-57.5819 L 479.178,-58.4181 L 479.352,-59.2361 L 479.692,-60 L 480.184,-60.6765
 L 480.805,-61.2361 L 481.53,-61.6542 L 482.325,-61.9126 L 483.156,-62 L 579.875,-62 L 581.111,-61.8042
 L 581.875,-61.4641 L 582.552,-60.9726 L 583.111,-60.3511 L 583.529,-59.627 L 583.788,-58.8316 L 583.875,-58
 L 583.875,-24.2941 L 583.769,-23.3798 L 583.494,-22.5902 L 583.061,-21.875 L 582.488,-21.2655 L 581.801,-20.7885
 L 581.03,-20.4646 L 580.209,-20.3081 z
M 1385.22,-20.4646 L 1384.45,-20.7885 L 1383.76,-21.2655 L 1383.19,-21.875 L 1382.76,-22.5902 L 1382.48,-23.3798
 L 1382.38,-24.2941 L 1382.38,-58 L 1382.46,-58.8316 L 1382.72,-59.627 L 1383.14,-60.3511 L 1383.7,-60.9726
 L 1384.38,-61.4641 L 1385.14,-61.8042 L 1386.38,-62 L 1483.09,-62 L 1483.93,-61.9126 L 1484.72,-61.6542
 L 1485.44,-61.2361 L 1486.07,-60.6765 L 1486.56,-60 L 1486.9,-59.2361 L 1487.07,-58.4181 L 1487.07,-57.5819
 L 1486.9,-56.7639 L 1486.56,-56 L 1486.07,-55.3235 L 1485.44,-54.7639 L 1484.41,-54.2228 L 1387.69,-20.5169
 L 1386.88,-20.3258 L 1386.04,-20.3081 z
M 774.498,-20.3258 L 773.684,-20.5169 L 676.965,-54.2228 L 675.93,-54.7639 L 675.309,-55.3235 L 674.817,-56
 L 674.477,-56.7639 L 674.303,-57.5819 L 674.303,-58.4181 L 674.477,-59.2361 L 674.817,-60 L 675.309,-60.6765
 L 675.93,-61.2361 L 676.655,-61.6542 L 677.45,-61.9126 L 678.281,-62 L 775,-62 L 776.236,-61.8042
 L 777,-61.4641 L 777.677,-60.9726 L 778.236,-60.3511 L 778.654,-59.627 L 778.913,-58.8316 L 779,-58
 L 779,-24.2941 L 778.894,-23.3798 L 778.619,-22.5902 L 778.186,-21.875 L 777.613,-21.2655 L 776.926,-20.7885
 L 776.155,-20.4646 L 775.334,-20.3081 z
M 189.123,-20.3258 L 188.309,-20.5169 L 91.5902,-54.2228 L 90.5554,-54.7639 L 89.9339,-55.3235 L 89.4424,-56
 L 89.1023,-56.7639 L 88.9284,-57.5819 L 88.9284,-58.4181 L 89.1023,-59.2361 L 89.4424,-60 L 89.9339,-60.6765
 L 90.5554,-61.2361 L 91.2795,-61.6542 L 92.0748,-61.9126 L 92.9065,-62 L 189.625,-62 L 190.861,-61.8042
 L 191.625,-61.4641 L 192.302,-60.9726 L 192.861,-60.3511 L 193.279,-59.627 L 193.538,-58.8316 L 193.625,-58
 L 193.625,-24.2941 L 193.519,-23.3798 L 193.244,-22.5902 L 192.811,-21.875 L 192.238,-21.2655 L 191.551,-20.7885
 L 190.78,-20.4646 L 189.959,-20.3081 z
M 799.845,-20.4646 L 799.074,-20.7885 L 798.387,-21.2655 L 797.814,-21.875 L 797.381,-22.5902 L 797.106,-23.3798
 L 797,-24.2941 L 797,-58 L 797.087,-58.8316 L 797.346,-59.627 L 797.764,-60.3511 L 798.323,-60.9726
 L 799,-61.4641 L 799.764,-61.8042 L 801,-62 L 897.719,-62 L 898.55,-61.9126 L 899.345,-61.6542
 L 900.07,-61.2361 L 900.691,-60.6765 L 901.183,-60 L 901.523,-59.2361 L 901.697,-58.4181 L 901.697,-57.5819
 L 901.523,-56.7639 L 901.183,-56 L 900.691,-55.3235 L 900.07,-54.7639 L 899.035,-54.2228 L 802.316,-20.5169
 L 801.502,-20.3258 L 800.666,-20.3081 z
M 994.97,-20.4646 L 994.199,-20.7885 L 993.512,-21.2655 L 992.939,-21.875 L 992.506,-22.5902 L 992.231,-23.3798
 L 992.125,-24.2941 L 992.125,-58 L 992.212,-58.8316 L 992.471,-59.627 L 992.889,-60.3511 L 993.448,-60.9726
 L 994.125,-61.4641 L 994.889,-61.8042 L 996.125,-62 L 1092.84,-62 L 1093.68,-61.9126 L 1094.47,-61.6542
 L 1095.19,-61.2361 L 1095.82,-60.6765 L 1096.31,-60 L 1096.65,-59.2361 L 1096.82,-58.4181 L 1096.82,-57.5819
 L 1096.65,-56.7639 L 1096.31,-56 L 1095.82,-55.3235 L 1095.19,-54.7639 L 1094.16,-54.2228 L 997.441,-20.5169
 L 996.627,-20.3258 L 995.791,-20.3081 z
M 1190.09,-20.4646 L 1189.32,-20.7885 L 1188.64,-21.2655 L 1188.06,-21.875 L 1187.63,-22.5902 L 1187.36,-23.3798
 L 1187.25,-24.2941 L 1187.25,-58 L 1187.34,-58.8316 L 1187.6,-59.627 L 1188.01,-60.3511 L 1188.57,-60.9726
 L 1189.25,-61.4641 L 1190.01,-61.8042 L 1191.25,-62 L 1287.97,-62 L 1288.8,-61.9126 L 1289.6,-61.6542
 L 1290.32,-61.2361 L 1290.94,-60.6765 L 1291.43,-60 L 1291.77,-59.2361 L 1291.95,-58.4181 L 1291.95,-57.5819
 L 1291.77,-56.7639 L 1291.43,-56 L 1290.94,-55.3235 L 1290.32,-54.7639 L 1289.28,-54.2228 L 1192.57,-20.5169
 L 1191.75,-20.3258 L 1190.92,-20.3081 z
M 215.625,-18 L 214.389,-18.1958 L 213.625,-18.5359 L 212.948,-19.0274 L 212.389,-19.6489 L 211.971,-20.373
 L 211.712,-21.1684 L 211.625,-22 L 211.625,-55.7059 L 211.731,-56.6201 L 212.006,-57.4098 L 212.439,-58.125
 L 213.012,-58.7344 L 213.699,-59.2115 L 214.47,-59.5354 L 215.291,-59.6919 L 216.127,-59.6742 L 216.941,-59.4831
 L 313.66,-25.7772 L 314.695,-25.2361 L 315.316,-24.6765 L 315.808,-24 L 316.148,-23.2361 L 316.322,-22.4181
 L 316.322,-21.5819 L 316.148,-20.7639 L 315.808,-20 L 315.316,-19.3235 L 314.695,-18.7639 L 313.97,-18.3458
 L 313.175,-18.0874 L 312.343,-18 z
M 410.75,-18 L 409.514,-18.1958 L 408.75,-18.5359 L 408.073,-19.0274 L 407.514,-19.6489 L 407.096,-20.373
 L 406.837,-21.1684 L 406.75,-22 L 406.75,-55.7059 L 406.856,-56.6201 L 407.131,-57.4098 L 407.564,-58.125
 L 408.137,-58.7344 L 408.824,-59.2115 L 409.595,-59.5354 L 410.416,-59.6919 L 411.252,-59.6742 L 412.066,-59.4831
 L 508.785,-25.7772 L 509.82,-25.2361 L 510.441,-24.6765 L 510.933,-24 L 511.273,-23.2361 L 511.447,-22.4181
 L 511.447,-21.5819 L 511.273,-20.7639 L 510.933,-20 L 510.441,-19.3235 L 509.82,-18.7639 L 509.095,-18.3458
 L 508.3,-18.0874 L 507.468,-18 z
M 605.875,-18 L 604.639,-18.1958 L 603.875,-18.5359 L 603.198,-19.0274 L 602.639,-19.6489 L 602.221,-20.373
 L 601.962,-21.1684 L 601.875,-22 L 601.875,-55.7059 L 601.981,-56.6201 L 602.256,-57.4098 L 602.689,-58.125
 L 603.262,-58.7344 L 603.949,-59.2115 L 604.72,-59.5354 L 605.541,-59.6919 L 606.377,-59.6742 L 607.191,-59.4831
 L 703.91,-25.7772 L 704.945,-25.2361 L 705.566,-24.6765 L 706.058,-24 L 706.398,-23.2361 L 706.572,-22.4181
 L 706.572,-21.5819 L 706.398,-20.7639 L 706.058,-20 L 705.566,-19.3235 L 704.945,-18.7639 L 704.22,-18.3458
 L 703.425,-18.0874 L 702.593,-18 z
M 873.407,-18 L 872.575,-18.0874 L 871.78,-18.3458 L 871.055,-18.7639 L 870.434,-19.3235 L 869.942,-20
 L 869.602,-20.7639 L 869.428,-21.5819 L 869.428,-22.4181 L 869.602,-23.2361 L 869.942,-24 L 870.434,-24.6765
 L 871.055,-25.2361 L 872.09,-25.7772 L 968.809,-59.4831 L 969.623,-59.6742 L 970.459,-59.6919 L 971.28,-59.5354
 L 972.051,-59.2115 L 972.738,-58.7344 L 973.311,-58.125 L 973.744,-57.4098 L 974.019,-56.6201 L 974.125,-55.7059
 L 974.125,-22 L 974.038,-21.1684 L 973.779,-20.373 L 973.361,-19.6489 L 972.802,-19.0274 L 972.125,-18.5359
 L 971.361,-18.1958 L 970.125,-18 z
M 1068.53,-18 L 1067.7,-18.0874 L 1066.9,-18.3458 L 1066.18,-18.7639 L 1065.56,-19.3235 L 1065.07,-20
 L 1064.73,-20.7639 L 1064.55,-21.5819 L 1064.55,-22.4181 L 1064.73,-23.2361 L 1065.07,-24 L 1065.56,-24.6765
 L 1066.18,-25.2361 L 1067.22,-25.7772 L 1163.93,-59.4831 L 1164.75,-59.6742 L 1165.58,-59.6919 L 1166.41,-59.5354
 L 1167.18,-59.2115 L 1167.86,-58.7344 L 1168.44,-58.125 L 1168.87,-57.4098 L 1169.14,-56.6201 L 1169.25,-55.7059
 L 1169.25,-22 L 1169.16,-21.1684 L 1168.9,-20.373 L 1168.49,-19.6489 L 1167.93,-19.0274 L 1167.25,-18.5359
 L 1166.49,-18.1958 L 1165.25,-18 z
M 1263.66,-18 L 1262.82,-18.0874 L 1262.03,-18.3458 L 1261.31,-18.7639 L 1260.68,-19.3235 L 1260.19,-20
 L 1259.85,-20.7639 L 1259.68,-21.5819 L 1259.68,-22.4181 L 1259.85,-23.2361 L 1260.19,-24 L 1260.68,-24.6765
 L 1261.31,-25.2361 L 1262.34,-25.7772 L 1359.06,-59.4831 L 1359.87,-59.6742 L 1360.71,-59.6919 L 1361.53,-59.5354
 L 1362.3,-59.2115 L 1362.99,-58.7344 L 1363.56,-58.125 L 1363.99,-57.4098 L 1364.27,-56.6201 L 1364.38,-55.7059
 L 1364.38,-22 L 1364.29,-21.1684 L 1364.03,-20.373 L 1363.61,-19.6489 L 1363.05,-19.0274 L 1362.38,-18.5359
 L 1361.61,-18.1958 L 1360.38,-18 z
M 1458.78,-18 L 1457.95,-18.0874 L 1457.15,-18.3458 L 1456.43,-18.7639 L 1455.81,-19.3235 L 1455.32,-20
 L 1454.98,-20.7639 L 1454.8,-21.5819 L 1454.8,-22.4181 L 1454.98,-23.2361 L 1455.32,-24 L 1455.81,-24.6765
 L 1456.43,-25.2361 L 1457.47,-25.7772 L 1552.68,-58.9603 L 1553.5,-59.1515 L 1554.33,-59.1692 L 1555.16,-59.0127
 L 1555.93,-58.6888 L 1556.61,-58.2117 L 1557.19,-57.6022 L 1557.62,-56.8871 L 1557.89,-56.0974 L 1558,-55.1831
 L 1558,-22 L 1557.91,-21.1684 L 1557.65,-20.373 L 1557.24,-19.6489 L 1556.68,-19.0274 L 1556,-18.5359
 L 1555.24,-18.1958 L 1554,-18 z
M 22,-18 L 20.7639,-18.1958 L 20,-18.5359 L 19.3235,-19.0274 L 18.7639,-19.6489 L 18.3458,-20.373
 L 18.0874,-21.1684 L 18,-22 L 18,-55.1831 L 18.1059,-56.0974 L 18.3811,-56.8871 L 18.8144,-57.6022
 L 19.387,-58.2117 L 20.0738,-58.6888 L 20.8448,-59.0127 L 21.6662,-59.1692 L 22.5022,-59.1515 L 23.3163,-58.9603
 L 118.535,-25.7772 L 119.57,-25.2361 L 120.191,-24.6765 L 120.683,-24 L 121.023,-23.2361 L 121.197,-22.4181
 L 121.197,-21.5819 L 121.023,-20.7639 L 120.683,-20 L 120.191,-19.3235 L 119.57,-18.7639 L 118.845,-18.3458
 L 118.05,-18.0874 L 117.218,-18 z
" stroke="black" fill="lightgray" stroke-width="0.5"/>
</svg>
