<?xml version="1.0" encoding="UTF-8" standalone="no"?>
<svg
   viewBox="0 0 2986.8268 303.36223"
   width="790.26459mm"
   height="80.264587mm"
   version="1.1"
   id="svg906"
   sodipodi:docname="Strut Plate 790mm.inkscape.svg"
   inkscape:version="1.1.2 (b8e25be833, 2022-02-05)"
   xmlns:inkscape="http://www.inkscape.org/namespaces/inkscape"
   xmlns:sodipodi="http://sodipodi.sourceforge.net/DTD/sodipodi-0.dtd"
   xmlns="http://www.w3.org/2000/svg"
   xmlns:svg="http://www.w3.org/2000/svg">
  <sodipodi:namedview
     id="namedview908"
     pagecolor="#ffffff"
     bordercolor="#666666"
     borderopacity="1.0"
     inkscape:pageshadow="2"
     inkscape:pageopacity="0.0"
     inkscape:pagecheckerboard="0"
     showgrid="false"
     inkscape:document-units="mm"
     units="mm"
     fit-margin-top="0"
     fit-margin-left="0"
     fit-margin-right="0"
     fit-margin-bottom="0"
     inkscape:zoom="0.28315272"
     inkscape:cx="1757.0023"
     inkscape:cy="365.52712"
     inkscape:window-width="1920"
     inkscape:window-height="1121"
     inkscape:window-x="-9"
     inkscape:window-y="-9"
     inkscape:window-maximized="1"
     inkscape:current-layer="g904" />
  <desc
     id="desc824">Strut Plate 790mm.dxf - scale = 1.0, origin = (0.0, 0.0), method = manual</desc>
  <defs
     id="defs838">
    <marker
       id="DistanceX"
       orient="auto"
       refX="0"
       refY="0"
       style="overflow:visible">
      <path
         d="M 3,-3 -3,3 M 0,-5 V 5"
         style="stroke:#000000;stroke-width:0.5"
         id="path826" />
    </marker>
    <pattern
       id="Hatch"
       patternUnits="userSpaceOnUse"
       width="8"
       height="8"
       x="0"
       y="0">
      <path
         d="M8 4 l-4,4"
         stroke="#000000"
         stroke-width="0.25"
         linecap="square"
         id="path829" />
      <path
         d="M6 2 l-4,4"
         stroke="#000000"
         stroke-width="0.25"
         linecap="square"
         id="path831" />
      <path
         d="M4 0 l-4,4"
         stroke="#000000"
         stroke-width="0.25"
         linecap="square"
         id="path833" />
    </pattern>
    <symbol
       id="*MODEL_SPACE" />
    <symbol
       id="*PAPER_SPACE" />
  </defs>
  <g
     inkscape:groupmode="layer"
     inkscape:label="0"
     id="g904"
     transform="translate(0.5,-819.65748)">
    <path
       d="M 580.15748,1024.6328 V 903.30709 A 15.11811,15.11811 0 0 0 565.03937,888.18898 H 288.48812 a 15.11811,15.11811 0 0 0 -6.07368,28.96252 l 276.55125,121.3257 a 15.11811,15.11811 0 0 0 21.19179,-13.8444 z"
       style="fill:none;stroke:#000000"
       id="path840" />
    <path
       d="m 1498.9871,939.78327 51.5871,-22.63177 a 15.11811,15.11811 0 0 0 -6.0737,-28.96252 h -103.1742 a 15.11811,15.11811 0 0 0 -6.0737,28.96252 l 51.5871,22.63177 a 15.11811,15.11811 0 0 0 12.1474,0 z"
       style="fill:none;stroke:#000000"
       id="path842" />
    <path
       d="m 868.24121,917.1515 276.55129,121.3257 a 15.11811,15.11811 0 0 0 21.1918,-13.8444 V 903.30709 a 15.11811,15.11811 0 0 0 -15.1182,-15.11811 H 874.31489 a 15.11811,15.11811 0 0 0 -6.07368,28.96252 z"
       style="fill:none;stroke:#000000"
       id="path844" />
    <path
       d="m 2426.8611,1038.4772 276.5512,-121.3257 a 15.11811,15.11811 0 0 0 -6.0736,-28.96252 h -276.5513 a 15.11811,15.11811 0 0 0 -15.1181,15.11811 v 121.32571 a 15.11811,15.11811 0 0 0 21.1918,13.8444 z"
       style="fill:none;stroke:#000000"
       id="path846" />
    <path
       d="m 1819.8425,903.30709 v 121.32571 a 15.11811,15.11811 0 0 0 21.1918,13.8444 l 276.5513,-121.3257 a 15.11811,15.11811 0 0 0 -6.0737,-28.96252 h -276.5513 a 15.11811,15.11811 0 0 0 -15.1181,15.11811 z"
       style="fill:none;stroke:#000000"
       id="path848" />
    <path
       d="m 648.18898,918.04437 v 121.32573 a 15.11811,15.11811 0 0 0 15.11811,15.1181 h 276.55125 a 15.11811,15.11811 0 0 0 6.07368,-28.9625 L 669.38076,904.19996 a 15.11811,15.11811 0 0 0 -21.19178,13.84441 z"
       style="fill:none;stroke:#000000"
       id="path850" />
    <path
       d="m 2631.7952,1054.4882 h 270.882 a 15.11811,15.11811 0 0 0 15.1181,-15.1181 V 920.53154 a 15.11811,15.11811 0 0 0 -21.1918,-13.84441 l -270.882,118.83857 a 15.11811,15.11811 0 0 0 6.0737,28.9625 z"
       style="fill:none;stroke:#000000"
       id="path852" />
    <path
       d="m 1395.5024,957.49417 -140.2949,-61.54871 a 15.11811,15.11811 0 0 0 -21.1918,13.84441 v 123.09743 a 15.11811,15.11811 0 0 0 21.1918,13.8444 l 140.2949,-61.54871 a 15.11811,15.11811 0 0 0 0,-27.68882 z"
       style="fill:none;stroke:#000000"
       id="path854" />
    <path
       d="m 1486.8397,1002.8939 -51.5871,22.6318 a 15.11811,15.11811 0 0 0 6.0737,28.9625 h 103.1742 a 15.11811,15.11811 0 0 0 6.0737,-28.9625 l -51.5871,-22.6318 a 15.11811,15.11811 0 0 0 -12.1474,0 z"
       style="fill:none;stroke:#000000"
       id="path856" />
    <path
       d="m 2316.446,904.19996 -276.5512,121.32574 a 15.11811,15.11811 0 0 0 6.0736,28.9625 h 276.5513 a 15.11811,15.11811 0 0 0 15.1181,-15.1181 V 918.04437 a 15.11811,15.11811 0 0 0 -21.1918,-13.84441 z"
       style="fill:none;stroke:#000000"
       id="path858" />
    <path
       d="m 1590.3244,985.18299 140.2948,61.54871 a 15.11811,15.11811 0 0 0 21.1918,-13.8444 V 909.78987 a 15.11811,15.11811 0 0 0 -21.1918,-13.84441 l -140.2948,61.54871 a 15.11811,15.11811 0 0 0 0,27.68882 z"
       style="fill:none;stroke:#000000"
       id="path860" />
    <path
       d="M 360.10525,1025.5257 89.223283,906.68713 a 15.11811,15.11811 0 0 0 -21.191787,13.84441 v 118.83856 a 15.11811,15.11811 0 0 0 15.11811,15.1181 H 354.03157 a 15.11811,15.11811 0 0 0 6.07368,-28.9625 z"
       style="fill:none;stroke:#000000"
       id="path862" />
    <path
       d="m 0,820.15748 h 2985.8268 v 302.36222 h -18.7087 v -22.6772 a 9.6378,9.6378 0 0 0 -19.2756,0 v 22.6772 h -566.5512 v -22.6772 a 9.6378,9.6378 0 0 0 -19.2756,0 v 22.6772 h -566.5511 v -22.6772 a 9.6378,9.6378 0 0 0 -19.2756,0 v 22.6772 h -566.5512 v -22.6772 a 9.6378,9.6378 0 0 0 -19.2756,0 v 22.6772 H 623.81102 v -22.6772 a 9.6377955,9.6377955 0 0 0 -19.27559,0 v 22.6772 H 37.984252 v -22.6772 a 9.6377955,9.6377955 0 0 0 -19.275591,0 v 22.6772 H 0 Z"
       style="fill:none;stroke:#000000"
       id="path864" />
    <path
       d="m 18.708661,842.83465 a 9.6377955,9.6377955 0 0 1 19.275591,0 v 35.09878 a 18.614173,18.614173 0 1 1 -19.275591,0 z"
       style="fill:none;stroke:#000000"
       id="path866" />
    <path
       d="m 2381.2913,877.93343 v -35.09878 a 9.6378,9.6378 0 0 0 -19.2756,0 v 35.09878 a 18.614173,18.614173 0 1 0 19.2756,0 z"
       style="fill:none;stroke:#000000"
       id="path868" />
    <path
       d="m 1209.6378,877.93343 v -35.09878 a 9.6378,9.6378 0 0 0 -19.2756,0 v 35.09878 a 18.614173,18.614173 0 1 0 19.2756,0 z"
       style="fill:none;stroke:#000000"
       id="path870" />
    <path
       d="m 623.81102,877.93343 v -35.09878 a 9.6377955,9.6377955 0 0 0 -19.27559,0 v 35.09878 a 18.614173,18.614173 0 1 0 19.27559,0 z"
       style="fill:none;stroke:#000000"
       id="path872" />
    <path
       d="m 2967.1181,877.93343 v -35.09878 a 9.6378,9.6378 0 0 0 -19.2756,0 v 35.09878 a 18.614173,18.614173 0 1 0 19.2756,0 z"
       style="fill:none;stroke:#000000"
       id="path874" />
    <path
       d="m 1795.4646,877.93343 v -35.09878 a 9.6378,9.6378 0 0 0 -19.2756,0 v 35.09878 a 18.614173,18.614173 0 1 0 19.2756,0 z"
       style="fill:none;stroke:#000000"
       id="path876" />
    <path
       d="m 1391.5011,1082.9366 c 0.277,1.1737 -0.2488,2.3901 -1.2931,2.993"
       style="fill:none;stroke:#000000"
       id="path878" />
    <path
       style="fill:none;stroke:#000000"
       d="m 1390.21,1085.93 -14.59,8.42"
       id="path880" />
    <path
       d="m 1375.6228,1094.3507 c -1.0444,0.603 -2.3605,0.4499 -3.2385,-0.3768"
       style="fill:none;stroke:#000000"
       id="path882" />
    <path
       d="m 1372.3843,1093.9739 c -12.6528,-11.9133 -27.9045,-20.7193 -44.5482,-25.7203"
       style="fill:none;stroke:#000000"
       id="path884" />
    <path
       d="m 1327.8361,1068.2536 c -1.1549,-0.347 -1.9459,-1.4103 -1.9459,-2.6162"
       style="fill:none;stroke:#000000"
       id="path886" />
    <path
       style="fill:none;stroke:#000000"
       d="M 1325.89,1065.64 V 1048.8"
       id="path888" />
    <path
       d="m 1325.8902,1048.7958 c 0,-1.2059 0.791,-2.2692 1.9459,-2.6162"
       style="fill:none;stroke:#000000"
       id="path890" />
    <path
       d="m 1327.8361,1046.1796 c 16.6437,-5.001 31.8954,-13.8069 44.5482,-25.7203"
       style="fill:none;stroke:#000000"
       id="path892" />
    <path
       d="m 1372.3843,1020.4593 c 0.4939,-0.465 1.1259,-0.7166 1.7707,-0.7406"
       style="fill:none;stroke:#000000"
       id="path894" />
    <path
       d="m 1374.155,1019.7187 c 0.5015,-0.019 1.0109,0.1001 1.4678,0.3638"
       style="fill:none;stroke:#000000"
       id="path896" />
    <path
       style="fill:none;stroke:#000000"
       d="m 1375.62,1020.08 14.59,8.42"
       id="path898" />
    <path
       d="m 1390.208,1028.5036 c 1.0443,0.603 1.5701,1.8193 1.2931,2.993"
       style="fill:none;stroke:#000000"
       id="path900" />
    <path
       d="m 1391.5011,1031.4966 c -3.9908,16.9144 -3.9908,34.5256 0,51.44"
       style="fill:none;stroke:#000000"
       id="path902" />
  </g>
</svg>
