<?xml version="1.0" encoding="UTF-8"?><svg id="_0" xmlns="http://www.w3.org/2000/svg" viewBox="0 0 790.71 80.71"><defs><style>.cls-1{fill:none;stroke:#000;stroke-linecap:round;stroke-linejoin:round;stroke-width:.71px;}</style></defs><g id="LWPOLYLINE"><path class="cls-1" d="M153.85,54.46V22.35c0-2.21-1.79-4-4-4H76.68c-2.21,0-4,1.79-4,4,0,1.59,.94,3.03,2.39,3.66l73.17,32.1c2.02,.89,4.38-.03,5.27-2.06,.22-.51,.34-1.05,.34-1.61Z"/></g><g id="LWPOLYLINE-2"><path class="cls-1" d="M396.96,32.01l13.65-5.99c2.02-.89,2.94-3.25,2.06-5.27-.64-1.45-2.08-2.39-3.66-2.39h-27.3c-2.21,0-4,1.79-4,4,0,1.59,.94,3.03,2.39,3.66l13.65,5.99c1.02,.45,2.19,.45,3.21,0Z"/></g><g id="LWPOLYLINE-3"><path class="cls-1" d="M230.08,26.02l73.17,32.1c2.02,.89,4.38-.03,5.27-2.06,.22-.51,.34-1.05,.34-1.61V22.35c0-2.21-1.79-4-4-4h-73.17c-2.21,0-4,1.79-4,4,0,1.59,.94,3.03,2.39,3.66Z"/></g><g id="LWPOLYLINE-4"><path class="cls-1" d="M642.46,58.12l73.17-32.1c2.02-.89,2.94-3.25,2.06-5.27-.64-1.45-2.08-2.39-3.66-2.39h-73.17c-2.21,0-4,1.79-4,4V54.46c0,2.21,1.79,4,4,4,.55,0,1.1-.11,1.61-.34Z"/></g><g id="LWPOLYLINE-5"><path class="cls-1" d="M481.85,22.35V54.46c0,2.21,1.79,4,4,4,.55,0,1.1-.11,1.61-.34l73.17-32.1c2.02-.89,2.94-3.25,2.06-5.27-.64-1.45-2.08-2.39-3.66-2.39h-73.17c-2.21,0-4,1.79-4,4Z"/></g><g id="LWPOLYLINE-6"><path class="cls-1" d="M171.85,26.25V58.35c0,2.21,1.79,4,4,4h73.17c2.21,0,4-1.79,4-4,0-1.59-.94-3.03-2.39-3.66L177.46,22.59c-2.02-.89-4.38,.03-5.27,2.06-.22,.51-.34,1.05-.34,1.61Z"/></g><g id="LWPOLYLINE-7"><path class="cls-1" d="M696.68,62.35h71.67c2.21,0,4-1.79,4-4V26.91c0-2.21-1.79-4-4-4-.55,0-1.1,.11-1.61,.34l-71.67,31.44c-2.02,.89-2.94,3.25-2.06,5.27,.64,1.45,2.08,2.39,3.66,2.39Z"/></g><g id="LWPOLYLINE-8"><path class="cls-1" d="M369.58,36.69l-37.12-16.28c-2.02-.89-4.38,.03-5.27,2.06-.22,.51-.34,1.05-.34,1.61V56.64c0,2.21,1.79,4,4,4,.55,0,1.1-.11,1.61-.34l37.12-16.28c2.02-.89,2.94-3.25,2.06-5.27-.4-.92-1.14-1.65-2.06-2.06Z"/></g><g id="LWPOLYLINE-9"><path class="cls-1" d="M393.75,48.7l-13.65,5.99c-2.02,.89-2.94,3.25-2.06,5.27,.64,1.45,2.08,2.39,3.66,2.39h27.3c2.21,0,4-1.79,4-4,0-1.59-.94-3.03-2.39-3.66l-13.65-5.99c-1.02-.45-2.19-.45-3.21,0Z"/></g><g id="LWPOLYLINE-10"><path class="cls-1" d="M613.25,22.59l-73.17,32.1c-2.02,.89-2.94,3.25-2.06,5.27,.64,1.45,2.08,2.39,3.66,2.39h73.17c2.21,0,4-1.79,4-4V26.25c0-2.21-1.79-4-4-4-.55,0-1.1,.11-1.61,.34Z"/></g><g id="LWPOLYLINE-11"><path class="cls-1" d="M421.13,44.02l37.12,16.28c2.02,.89,4.38-.03,5.27-2.06,.22-.51,.34-1.05,.34-1.61V24.07c0-2.21-1.79-4-4-4-.55,0-1.1,.11-1.61,.34l-37.12,16.28c-2.02,.89-2.94,3.25-2.06,5.27,.4,.92,1.14,1.65,2.06,2.06Z"/></g><g id="LWPOLYLINE-12"><path class="cls-1" d="M95.63,54.69L23.96,23.25c-2.02-.89-4.38,.03-5.27,2.06-.22,.51-.34,1.05-.34,1.61v31.44c0,2.21,1.79,4,4,4H94.03c2.21,0,4-1.79,4-4,0-1.59-.94-3.03-2.39-3.66Z"/></g><g id="LWPOLYLINE-13"><path class="cls-1" d="M.35,.35H790.35V80.35h-4.95v-6c0-1.41-1.14-2.55-2.55-2.55s-2.55,1.14-2.55,2.55v6h-149.9v-6c0-1.41-1.14-2.55-2.55-2.55s-2.55,1.14-2.55,2.55v6h-149.9v-6c0-1.41-1.14-2.55-2.55-2.55s-2.55,1.14-2.55,2.55v6h-149.9v-6c0-1.41-1.14-2.55-2.55-2.55s-2.55,1.14-2.55,2.55v6H165.4v-6c0-1.41-1.14-2.55-2.55-2.55s-2.55,1.14-2.55,2.55v6H10.4v-6c0-1.41-1.14-2.55-2.55-2.55s-2.55,1.14-2.55,2.55v6H.35V.35Z"/></g><g id="LWPOLYLINE-14"><path class="cls-1" d="M5.3,6.35c0-1.41,1.14-2.55,2.55-2.55s2.55,1.14,2.55,2.55V15.64c.68,.41,1.25,.98,1.66,1.66,1.41,2.33,.66,5.36-1.66,6.76s-5.36,.66-6.76-1.66-.66-5.36,1.66-6.76V6.35Z"/></g><g id="LWPOLYLINE-15"><path class="cls-1" d="M630.4,15.64V6.35c0-1.41-1.14-2.55-2.55-2.55s-2.55,1.14-2.55,2.55V15.64c-2.33,1.41-3.07,4.44-1.66,6.76s4.44,3.07,6.76,1.66,3.07-4.44,1.66-6.76c-.41-.68-.98-1.25-1.66-1.66Z"/></g><g id="LWPOLYLINE-16"><path class="cls-1" d="M320.4,15.64V6.35c0-1.41-1.14-2.55-2.55-2.55s-2.55,1.14-2.55,2.55V15.64c-2.33,1.41-3.07,4.44-1.66,6.76s4.44,3.07,6.76,1.66,3.07-4.44,1.66-6.76c-.41-.68-.98-1.25-1.66-1.66Z"/></g><g id="LWPOLYLINE-17"><path class="cls-1" d="M165.4,15.64V6.35c0-1.41-1.14-2.55-2.55-2.55s-2.55,1.14-2.55,2.55V15.64c-2.33,1.41-3.07,4.44-1.66,6.76s4.44,3.07,6.76,1.66,3.07-4.44,1.66-6.76c-.41-.68-.98-1.25-1.66-1.66Z"/></g><g id="LWPOLYLINE-18"><path class="cls-1" d="M785.4,15.64V6.35c0-1.41-1.14-2.55-2.55-2.55s-2.55,1.14-2.55,2.55V15.64c-2.33,1.41-3.07,4.44-1.66,6.76s4.44,3.07,6.76,1.66,3.07-4.44,1.66-6.76c-.41-.68-.98-1.25-1.66-1.66Z"/></g><g id="LWPOLYLINE-19"><path class="cls-1" d="M475.4,15.64V6.35c0-1.41-1.14-2.55-2.55-2.55s-2.55,1.14-2.55,2.55V15.64c-2.33,1.41-3.07,4.44-1.66,6.76s4.44,3.07,6.76,1.66,3.07-4.44,1.66-6.76c-.41-.68-.98-1.25-1.66-1.66Z"/></g><g id="SPLINE"><path class="cls-1" d="M368.52,69.88c.07,.31-.07,.63-.34,.79"/></g><g id="LINE"><line class="cls-1" x1="368.18" y1="70.67" x2="364.32" y2="72.9"/></g><g id="SPLINE-2"><path class="cls-1" d="M364.32,72.9c-.28,.16-.62,.12-.86-.1"/></g><g id="SPLINE-3"><path class="cls-1" d="M363.46,72.8c-3.35-3.15-7.38-5.48-11.79-6.81"/></g><g id="SPLINE-4"><path class="cls-1" d="M351.68,66c-.31-.09-.51-.37-.51-.69"/></g><g id="LINE-2"><line class="cls-1" x1="351.16" y1="65.3" x2="351.16" y2="60.85"/></g><g id="SPLINE-5"><path class="cls-1" d="M351.16,60.85c0-.32,.21-.6,.51-.69"/></g><g id="SPLINE-6"><path class="cls-1" d="M351.68,60.16c4.4-1.32,8.44-3.65,11.79-6.81"/></g><g id="SPLINE-7"><path class="cls-1" d="M363.46,53.35c.13-.12,.3-.19,.47-.2"/></g><g id="SPLINE-8"><path class="cls-1" d="M363.93,53.15c.13,0,.27,.03,.39,.1"/></g><g id="LINE-3"><line class="cls-1" x1="364.32" y1="53.25" x2="368.18" y2="55.48"/></g><g id="SPLINE-9"><path class="cls-1" d="M368.18,55.48c.28,.16,.42,.48,.34,.79"/></g><g id="SPLINE-10"><path class="cls-1" d="M368.52,56.27c-1.06,4.48-1.06,9.13,0,13.61"/></g></svg>