<?xml version="1.0" encoding="UTF-8"?>
<!DOCTYPE svg PUBLIC "-//W3C//DTD SVG 1.1//EN" "http://www.w3.org/Graphics/SVG/1.1/DTD/svg11.dtd">
<!-- Creator: CorelDRAW 2018 (64-Bit) -->
<svg xmlns="http://www.w3.org/2000/svg" xml:space="preserve" width="914.4mm" height="609.6mm" version="1.1" style="shape-rendering:geometricPrecision; text-rendering:geometricPrecision; image-rendering:optimizeQuality; fill-rule:evenodd; clip-rule:evenodd"
viewBox="0 0 914.4 609.6"
 xmlns:xlink="http://www.w3.org/1999/xlink">
 <defs>
  <style type="text/css">
   <![CDATA[
    .str0 {stroke:black;stroke-width:0.0762;stroke-linejoin:bevel;stroke-miterlimit:2.61313}
    .fil0 {fill:none}
   ]]>
  </style>
 </defs>
 <g id="Layer_x0020_1">
  <metadata id="CorelCorpID_0Corel-Layer"/>
  <g id="_1234875768624">
   <path class="fil0 str0" d="M19.9961 105.9602c0.3795,-2.2215 -0.26,-4.4959 -1.7416,-6.194"/>
   <path class="fil0 str0" d="M17.7622 98.4014c-0.0126,0.5005 0.1631,0.9875 0.4923,1.3648"/>
   <line class="fil0 str0" x1="17.7622" y1="98.4014" x2="17.9232" y2= "91.9612" />
   <path class="fil0 str0" d="M18.5587 90.5483c-0.3931,0.3665 -0.6221,0.8757 -0.6355,1.4129"/>
   <path class="fil0 str0" d="M18.5587 90.5483c2.2646,-2.1114 3.1075,-5.3399 2.1641,-8.2889"/>
   <path class="fil0 str0" d="M21.2263 80.2231c-0.5389,0.5292 -0.7337,1.3169 -0.5035,2.0363"/>
   <line class="fil0 str0" x1="21.2263" y1="80.2231" x2="22.4837" y2= "78.9881" />
   <path class="fil0 str0" d="M24.5287 78.5214c-0.7151,-0.243 -1.5062,-0.0625 -2.045,0.4667"/>
   <path class="fil0 str0" d="M24.5287 78.5214c4.0983,1.393 8.5612,-0.7264 10.0716,-4.7828"/>
   <path class="fil0 str0" d="M35.661 72.6094c-0.4909,0.2186 -0.8732,0.6256 -1.0607,1.1292"/>
   <line class="fil0 str0" x1="35.661" y1="72.6094" x2="55.27" y2= "63.8773" />
   <path class="fil0 str0" d="M56.7193 63.8081c-0.4747,-0.1592 -0.9919,-0.1345 -1.4493,0.0692"/>
   <path class="fil0 str0" d="M56.7193 63.8081c1.1738,0.3935 2.4268,0.4903 3.6471,0.2818"/>
   <path class="fil0 str0" d="M62.7032 66.0613c0,-0.5893 -0.2599,-1.1487 -0.7104,-1.5287 -0.4504,-0.38 -1.0455,-0.542 -1.6264,-0.4427"/>
   <line class="fil0 str0" x1="62.7032" y1="66.0613" x2="62.7032" y2= "76.0827" />
   <path class="fil0 str0" d="M60.3664 78.0541c0.5809,0.0993 1.176,-0.0627 1.6264,-0.4427 0.4505,-0.38 0.7104,-0.9394 0.7104,-1.5287"/>
   <path class="fil0 str0" d="M60.3664 78.0541c-2.3982,-0.4097 -4.8462,0.3693 -6.5665,2.0896"/>
   <line class="fil0 str0" x1="53.7999" y1="80.1437" x2="34.5499" y2= "99.3937" />
   <path class="fil0 str0" d="M34.5499 99.3937c-1.7203,1.7203 -2.4993,4.1683 -2.0896,6.5665"/>
   <path class="fil0 str0" d="M30.4889 108.297c0.5893,0 1.1487,-0.2599 1.5287,-0.7104 0.38,-0.4504 0.542,-1.0455 0.4427,-1.6264"/>
   <line class="fil0 str0" x1="30.4889" y1="108.297" x2="21.9675" y2= "108.297" />
   <path class="fil0 str0" d="M19.9961 105.9602c-0.0993,0.5809 0.0627,1.176 0.4427,1.6264 0.38,0.4505 0.9394,0.7104 1.5287,0.7104"/>
   <path class="fil0 str0" d="M50.6193 60.475l-14.5655 6.4862c-0.8676,0.3868 -1.8885,0.1082 -2.441,-0.6645 -2.0535,-2.8724 -5.7414,-4.0616 -9.0841,-2.9241 -0.7148,0.2431 -1.5062,0.0622 -2.045,-0.4667l-1.2574 -1.235c-0.5388,-0.5289 -0.7334,-1.3171 -0.5035,-2.0363 0.3928,-1.2281 0.4831,-2.5324 0.263,-3.8029 -0.1005,-0.5773 0.0574,-1.1695 0.4318,-1.6201 0.3745,-0.4506 0.9313,-0.7143 1.5171,-0.7212l26.7655 -0.2909c0.5889,-0.0069 1.1508,0.2462 1.5358,0.6918 0.385,0.4456 0.5533,1.0418 0.461,1.6234 -0.1443,0.904 -0.122,1.8265 0.0661,2.7225 0.1938,0.9217 -0.2836,1.8543 -1.1438,2.2378z"/>
   <path class="fil0 str0" d="M11.4232 65.0186c1.4147,0.3038 2.8845,0.2185 4.2545,-0.2472 0.7148,-0.2431 1.5062,-0.0622 2.045,0.4667l1.2574 1.235c0.5388,0.5289 0.7334,1.3171 0.5035,2.0363 -0.5072,1.5858 -0.5074,3.2894 0,4.8752 0.2302,0.7191 0.0351,1.5071 -0.5035,2.0363l-1.2574 1.235c-0.5385,0.5291 -1.3301,0.7095 -2.045,0.4667 -1.37,-0.4656 -2.8398,-0.5511 -4.2545,-0.2472 -0.5901,0.1273 -1.2061,-0.0189 -1.6761,-0.3978 -0.4699,-0.379 -0.7433,-0.9539 -0.7439,-1.5576l0 -7.946c-0.0006,-0.6037 0.2717,-1.1753 0.7409,-1.5551 0.4692,-0.3799 1.0888,-0.5265 1.6791,-0.4003z"/>
   <path class="fil0 str0" d="M60.7032 56.697c0,-0.8837 -0.7163,-1.6 -1.6,-1.6 -0.8837,0 -1.6,0.7163 -1.6,1.6 0,0.8837 0.7163,1.6 1.6,1.6 0.8836,0 1.6,-0.7163 1.6,-1.6z"/>
   <path class="fil0 str0" d="M60.7032 85.447c0,-0.8837 -0.7163,-1.6 -1.6,-1.6 -0.8837,0 -1.6,0.7163 -1.6,1.6 0,0.8837 0.7163,1.6 1.6,1.6 0.8836,0 1.6,-0.7163 1.6,-1.6z"/>
   <path class="fil0 str0" d="M15.7032 84.697c0,-1.4359 -1.1641,-2.6 -2.6,-2.6 -1.4359,0 -2.6,1.1641 -2.6,2.6 0,1.4359 1.1641,2.6 2.6,2.6 1.4359,0 2.6,-1.164 2.6,-2.6z"/>
   <path class="fil0 str0" d="M29.7032 70.947c0,-1.4359 -1.1641,-2.6 -2.6,-2.6 -1.4359,0 -2.6,1.1641 -2.6,2.6 0,1.4359 1.1641,2.6 2.6,2.6 1.4359,0 2.6,-1.164 2.6,-2.6z"/>
   <path class="fil0 str0" d="M15.7032 57.197c0,-1.4359 -1.1641,-2.6 -2.6,-2.6 -1.4359,0 -2.6,1.1641 -2.6,2.6 0,1.4359 1.1641,2.6 2.6,2.6 1.4359,0 2.6,-1.164 2.6,-2.6z"/>
   <path class="fil0 str0" d="M14.2032 104.697c0,-0.8837 -0.7163,-1.6 -1.6,-1.6 -0.8837,0 -1.6,0.7163 -1.6,1.6 0,0.8837 0.7163,1.6 1.6,1.6 0.8836,0 1.6,-0.7163 1.6,-1.6z"/>
   <path class="fil0 str0" d="M41.4532 104.697c0,-0.8837 -0.7163,-1.6 -1.6,-1.6 -0.8837,0 -1.6,0.7163 -1.6,1.6 0,0.8837 0.7163,1.6 1.6,1.6 0.8836,0 1.6,-0.7163 1.6,-1.6z"/>
   <path class="fil0 str0" d="M59.1032 94.047c2.2823,-0.0014 4.4706,-0.9095 6.0834,-2.5243 1.6128,-1.6149 2.518,-3.7934 2.5166,-6.0757l0 -28.75c-0.0014,-2.2823 -0.9095,-4.4706 -2.5243,-6.0834 -1.6149,-1.6128 -3.7934,-2.518 -6.0757,-2.5166l-46 0c-2.415,0.0015 -4.7305,0.9623 -6.4371,2.6711 -1.7065,1.7087 -2.6644,4.0139 -2.6629,6.4289l0 47.5c0.0014,2.2823 0.9095,4.4706 2.5243,6.0834 1.6149,1.6128 3.7934,2.518 6.0757,2.5166l27.25 0c2.2823,-0.0014 4.4706,-0.9095 6.0834,-2.5243 1.6128,-1.6149 2.518,-3.7934 2.5166,-6.0757l0 -10c-0.0001,-0.1723 0.0682,-0.3376 0.19,-0.4594 0.1217,-0.1219 0.2877,-0.1905 0.46,-0.1906l10 0z"/>
   <path class="fil0 str0" d="M8.3131 97.022c0.3322,-1.4237 0.3323,-2.9041 0,-4.3277 -0.0231,-0.0988 0.0213,-0.2011 0.1091,-0.2518l1.2318 -0.7112c0.0878,-0.0508 0.1986,-0.038 0.2727,0.0314 1.0668,0.9995 2.3488,1.7398 3.7479,2.1638 0.0971,0.0294 0.1635,0.119 0.1635,0.2205l0 1.4223c0,0.1015 -0.0665,0.191 -0.1635,0.2205 -1.3991,0.4241 -2.6812,1.1642 -3.7479,2.1638 -0.074,0.0694 -0.1848,0.0821 -0.2727,0.0314l-1.2318 -0.7112c-0.0879,-0.0506 -0.1322,-0.153 -0.1091,-0.2518z"/>
  </g>
  <g id="_1234875558752">
   <path class="fil0 str0" d="M77.1013 103.014c2.2215,0.3795 4.4959,-0.26 6.194,-1.7416"/>
   <path class="fil0 str0" d="M84.6601 100.7801c-0.5005,-0.0126 -0.9875,0.1631 -1.3648,0.4923"/>
   <line class="fil0 str0" x1="84.6601" y1="100.7801" x2="91.1003" y2= "100.9411" />
   <path class="fil0 str0" d="M92.5132 101.5766c-0.3665,-0.3931 -0.8757,-0.6221 -1.4129,-0.6355"/>
   <path class="fil0 str0" d="M92.5132 101.5766c2.1114,2.2646 5.3399,3.1075 8.2889,2.1641"/>
   <path class="fil0 str0" d="M102.8384 104.2442c-0.5292,-0.5389 -1.3169,-0.7337 -2.0363,-0.5035"/>
   <line class="fil0 str0" x1="102.8384" y1="104.2442" x2="104.0734" y2= "105.5016" />
   <path class="fil0 str0" d="M104.5401 107.5466c0.243,-0.7151 0.0625,-1.5062 -0.4667,-2.045"/>
   <path class="fil0 str0" d="M104.5401 107.5466c-1.393,4.0983 0.7264,8.5612 4.7828,10.0716"/>
   <path class="fil0 str0" d="M110.4521 118.6789c-0.2186,-0.4909 -0.6256,-0.8732 -1.1292,-1.0607"/>
   <line class="fil0 str0" x1="110.4521" y1="118.6789" x2="119.1842" y2= "138.2879" />
   <path class="fil0 str0" d="M119.2534 139.7372c0.1592,-0.4747 0.1345,-0.9919 -0.0692,-1.4493"/>
   <path class="fil0 str0" d="M119.2534 139.7372c-0.3935,1.1738 -0.4903,2.4268 -0.2818,3.6471"/>
   <path class="fil0 str0" d="M117.0002 145.7211c0.5893,0 1.1487,-0.2599 1.5287,-0.7104 0.38,-0.4504 0.542,-1.0455 0.4427,-1.6264"/>
   <line class="fil0 str0" x1="117.0002" y1="145.7211" x2="106.9788" y2= "145.7211" />
   <path class="fil0 str0" d="M105.0074 143.3843c-0.0993,0.5809 0.0627,1.176 0.4427,1.6264 0.38,0.4505 0.9394,0.7104 1.5287,0.7104"/>
   <path class="fil0 str0" d="M105.0074 143.3843c0.4097,-2.3982 -0.3693,-4.8462 -2.0896,-6.5665"/>
   <line class="fil0 str0" x1="102.9178" y1="136.8178" x2="83.6678" y2= "117.5678" />
   <path class="fil0 str0" d="M83.6678 117.5678c-1.7203,-1.7203 -4.1683,-2.4993 -6.5665,-2.0896"/>
   <path class="fil0 str0" d="M74.7645 113.5068c0,0.5893 0.2599,1.1487 0.7104,1.5287 0.4504,0.38 1.0455,0.542 1.6264,0.4427"/>
   <line class="fil0 str0" x1="74.7645" y1="113.5068" x2="74.7645" y2= "104.9854" />
   <path class="fil0 str0" d="M122.5865 133.6372l-6.4862 -14.5655c-0.3868,-0.8676 -0.1082,-1.8885 0.6645,-2.441 2.8724,-2.0535 4.0616,-5.7414 2.9241,-9.0841 -0.2431,-0.7148 -0.0622,-1.5062 0.4667,-2.045l1.235 -1.2574c0.5289,-0.5388 1.3171,-0.7334 2.0363,-0.5035 1.2281,0.3928 2.5324,0.4831 3.8029,0.263 0.5773,-0.1005 1.1695,0.0574 1.6201,0.4318 0.4506,0.3745 0.7143,0.9313 0.7212,1.5171l0.2909 26.7655c0.0069,0.5889 -0.2462,1.1508 -0.6918,1.5358 -0.4456,0.385 -1.0418,0.5533 -1.6234,0.461 -0.904,-0.1443 -1.8265,-0.122 -2.7225,0.0661 -0.9217,0.1938 -1.8543,-0.2836 -2.2378,-1.1438z"/>
   <path class="fil0 str0" d="M118.0429 94.4411c-0.3038,1.4147 -0.2185,2.8845 0.2472,4.2545 0.2431,0.7148 0.0622,1.5062 -0.4667,2.045l-1.235 1.2574c-0.5289,0.5388 -1.3171,0.7334 -2.0363,0.5035 -1.5858,-0.5072 -3.2894,-0.5074 -4.8752,0 -0.7191,0.2302 -1.5071,0.0351 -2.0363,-0.5035l-1.235 -1.2574c-0.5291,-0.5385 -0.7095,-1.3301 -0.4667,-2.045 0.4656,-1.37 0.5511,-2.8398 0.2472,-4.2545 -0.1273,-0.5901 0.0189,-1.2061 0.3978,-1.6761 0.379,-0.4699 0.9539,-0.7433 1.5576,-0.7439l7.946 0c0.6037,-0.0006 1.1753,0.2717 1.5551,0.7409 0.3799,0.4692 0.5265,1.0888 0.4003,1.6791z"/>
   <path class="fil0 str0" d="M78.3645 97.2211c0.8837,0 1.6,-0.7163 1.6,-1.6 0,-0.8837 -0.7163,-1.6 -1.6,-1.6 -0.8837,0 -1.6,0.7163 -1.6,1.6 0,0.8836 0.7163,1.6 1.6,1.6z"/>
   <path class="fil0 str0" d="M78.3645 124.4711c0.8837,0 1.6,-0.7163 1.6,-1.6 0,-0.8837 -0.7163,-1.6 -1.6,-1.6 -0.8837,0 -1.6,0.7163 -1.6,1.6 0,0.8836 0.7163,1.6 1.6,1.6z"/>
   <path class="fil0 str0" d="M97.6145 143.7211c0.8837,0 1.6,-0.7163 1.6,-1.6 0,-0.8837 -0.7163,-1.6 -1.6,-1.6 -0.8837,0 -1.6,0.7163 -1.6,1.6 0,0.8836 0.7163,1.6 1.6,1.6z"/>
   <path class="fil0 str0" d="M125.8645 98.7211c1.4359,0 2.6,-1.1641 2.6,-2.6 0,-1.4359 -1.1641,-2.6 -2.6,-2.6 -1.4359,0 -2.6,1.1641 -2.6,2.6 0,1.4359 1.164,2.6 2.6,2.6z"/>
   <path class="fil0 str0" d="M98.3645 98.7211c1.4359,0 2.6,-1.1641 2.6,-2.6 0,-1.4359 -1.1641,-2.6 -2.6,-2.6 -1.4359,0 -2.6,1.1641 -2.6,2.6 0,1.4359 1.164,2.6 2.6,2.6z"/>
   <path class="fil0 str0" d="M107.8645 80.6211c6.3513,0 11.5,-5.1487 11.5,-11.5 0,-6.3513 -5.1487,-11.5 -11.5,-11.5 -6.3512,0 -11.5,5.1487 -11.5,11.5 0,6.3512 5.1487,11.5 11.4999,11.5z"/>
   <path class="fil0 str0" d="M92.3645 86.2211c0.8837,0 1.6,-0.7163 1.6,-1.6 0,-0.8837 -0.7163,-1.6 -1.6,-1.6 -0.8837,0 -1.6,0.7163 -1.6,1.6 0,0.8836 0.7163,1.6 1.6,1.6z"/>
   <path class="fil0 str0" d="M92.3645 55.2211c0.8837,0 1.6,-0.7163 1.6,-1.6 0,-0.8837 -0.7163,-1.6 -1.6,-1.6 -0.8837,0 -1.6,0.7163 -1.6,1.6 0,0.8836 0.7163,1.6 1.6,1.6z"/>
   <path class="fil0 str0" d="M123.3645 55.2211c0.8837,0 1.6,-0.7163 1.6,-1.6 0,-0.8837 -0.7163,-1.6 -1.6,-1.6 -0.8837,0 -1.6,0.7163 -1.6,1.6 0,0.8836 0.7163,1.6 1.6,1.6z"/>
   <path class="fil0 str0" d="M126.3645 143.7211c0.8837,0 1.6,-0.7163 1.6,-1.6 0,-0.8837 -0.7163,-1.6 -1.6,-1.6 -0.8837,0 -1.6,0.7163 -1.6,1.6 0,0.8836 0.7163,1.6 1.6,1.6z"/>
   <path class="fil0 str0" d="M78.3645 58.3211c0.8837,0 1.6,-0.7163 1.6,-1.6 0,-0.8837 -0.7163,-1.6 -1.6,-1.6 -0.8837,0 -1.6,0.7163 -1.6,1.6 0,0.8836 0.7163,1.6 1.6,1.6z"/>
   <path class="fil0 str0" d="M112.1145 112.7211c1.4359,0 2.6,-1.1641 2.6,-2.6 0,-1.4359 -1.1641,-2.6 -2.6,-2.6 -1.4359,0 -2.6,1.1641 -2.6,2.6 0,1.4359 1.164,2.6 2.6,2.6z"/>
   <path class="fil0 str0" d="M123.3645 86.2211c0.8837,0 1.6,-0.7163 1.6,-1.6 0,-0.8837 -0.7163,-1.6 -1.6,-1.6 -0.8837,0 -1.6,0.7163 -1.6,1.6 0,0.8836 0.7163,1.6 1.6,1.6z"/>
   <path class="fil0 str0" d="M89.0145 142.1211c0.0014,2.2823 0.9095,4.4706 2.5243,6.0834 1.6149,1.6128 3.7934,2.518 6.0757,2.5166l28.75 0c2.2823,-0.0014 4.4706,-0.9095 6.0834,-2.5243 1.6128,-1.6149 2.518,-3.7934 2.5166,-6.0757l0 -46c-0.0004,-2.8393 -1.3234,-5.5141 -3.5813,-7.2356 -1.5869,-1.21 -2.5184,-3.0932 -2.5187,-5.0888l0 -32.6756 -3 -3 -47.5 0c-2.2823,0.0014 -4.4706,0.9095 -6.0834,2.5243 -1.6128,1.6149 -2.518,3.7934 -2.5166,6.0757l0 66.15c0.0014,2.2823 0.9095,4.4706 2.5243,6.0834 1.6149,1.6128 3.7934,2.518 6.0757,2.5166l10 0c0.1723,-0.0001 0.3376,0.0682 0.4594,0.19 0.1219,0.1217 0.1905,0.2877 0.1906,0.46l0 10z"/>
   <path class="fil0 str0" d="M77.1013 103.014c-0.5809,-0.0993 -1.176,0.0627 -1.6264,0.4427 -0.4505,0.38 -0.7104,0.9394 -0.7104,1.5287"/>
   <path class="fil0 str0" d="M86.0395 91.331c1.4237,0.3322 2.9041,0.3323 4.3277,0 0.0988,-0.0231 0.2011,0.0213 0.2518,0.1091l0.7112 1.2318c0.0508,0.0878 0.038,0.1986 -0.0314,0.2727 -0.9995,1.0668 -1.7398,2.3488 -2.1638,3.7479 -0.0294,0.0971 -0.119,0.1635 -0.2205,0.1635l-1.4223 0c-0.1015,0 -0.191,-0.0665 -0.2205,-0.1635 -0.4241,-1.3991 -1.1642,-2.6812 -2.1638,-3.7479 -0.0694,-0.074 -0.0821,-0.1848 -0.0314,-0.2727l0.7112 -1.2318c0.0506,-0.0879 0.153,-0.1322 0.2518,-0.1091z"/>
   <path class="fil0 str0" d="M120.7841 60.05c1.4236,0.3322 2.904,0.3323 4.3277,0 0.0988,-0.0231 0.2011,0.0213 0.2518,0.1091l0.7112 1.2319c0.0507,0.0878 0.0379,0.1986 -0.0314,0.2726 -0.9995,1.0668 -1.7398,2.3489 -2.1639,3.7479 -0.0293,0.0971 -0.119,0.1635 -0.2204,0.1636l-1.4224 0c-0.1014,0 -0.1909,-0.0665 -0.2204,-0.1636 -0.4241,-1.399 -1.1642,-2.6811 -2.1638,-3.7479 -0.0694,-0.074 -0.0821,-0.1848 -0.0314,-0.2726l0.7111 -1.2319c0.0507,-0.0878 0.1531,-0.1321 0.2519,-0.1091z"/>
  </g>
  <g id="_1234875555808">
   <path class="fil0 str0" d="M144.262 214.6111c0.4703,0 0.9253,-0.1656 1.2855,-0.4679l5.147 -4.3189c1.7673,-1.4972 2.4094,-3.9398 1.6069,-6.1126 -0.8024,-2.1727 -2.826,-3.6116 -5.1422,-3.6006l-68.6 0 0 8 5.625 0c0.8415,-0.0005 1.6488,0.3333 2.2442,0.9279 0.5955,0.5947 0.9303,1.4056 0.9308,2.2471l0 2.65c0.0005,0.8415 -0.3333,1.6488 -0.9279,2.2442 -0.5947,0.5955 -1.4056,0.9303 -2.2471,0.9308l-5.625 0 0 11 5.625 0c0.8415,-0.0005 1.6488,0.3333 2.2442,0.9279 0.5955,0.5947 0.9303,1.4056 0.9308,2.2471l0 2.65c0.0005,0.8415 -0.3333,1.6488 -0.9279,2.2442 -0.5947,0.5955 -1.4056,0.9303 -2.2471,0.9308l-5.625 0 0 8 15.4574 0c0.6512,-0.0001 1.2613,-0.3167 1.6359,-0.8495l18.4629 -26.2526c1.4973,-2.1298 3.9404,-3.3975 6.5438,-3.3979l23.6028 0z"/>
   <path class="fil0 str0" d="M95.2592 234.6111c0,-1.4359 -1.1641,-2.6 -2.6,-2.6 -1.4359,0 -2.6,1.1641 -2.6,2.6 0,1.4359 1.1641,2.6 2.6,2.6 1.4359,0 2.6,-1.164 2.6,-2.6z"/>
   <path class="fil0 str0" d="M95.2592 210.6111c0,-1.4359 -1.1641,-2.6 -2.6,-2.6 -1.4359,0 -2.6,1.1641 -2.6,2.6 0,1.4359 1.1641,2.6 2.6,2.6 1.4359,0 2.6,-1.164 2.6,-2.6z"/>
   <path class="fil0 str0" d="M86.9592 222.6111c0,-1.4359 -1.1641,-2.6 -2.6,-2.6 -1.4359,0 -2.6,1.1641 -2.6,2.6 0,1.4359 1.1641,2.6 2.6,2.6 1.4359,0 2.6,-1.164 2.6,-2.6z"/>
   <path class="fil0 str0" d="M107.8655 218.2042c0.4504,-0.6446 0.4819,-1.4931 0.0805,-2.1693 -0.4013,-0.6762 -1.149,-1.0563 -1.9305,-0.9698 -1.4417,0.1553 -2.8992,-0.0846 -4.2153,-0.6934 -0.8928,-0.4125 -1.952,-0.1166 -2.5,0.7 -1.2536,1.8668 -3.237,3.12 -5.461,3.4519 -0.5471,0.082 -1.0358,0.3868 -1.3502,0.842 -0.3143,0.4551 -0.4269,1.0173 -0.3098,1.558 0.24,1.112 0.2399,2.2629 0,3.375 -0.1163,0.5408 -0.0036,1.1057 0.3114,1.5604 0.3151,0.4548 0.8014,0.7584 1.3486,0.8396 1.5,0.2236 2.9063,0.8697 4.0534,1.8618 0.4281,0.3696 0.9926,0.5409 1.554,0.4714 0.5613,-0.0694 1.0653,-0.3707 1.3903,-0.8336l7.0286 -9.994z"/>
   <path class="fil0 str0" d="M108.4092 207.1111c0,-1.7949 -1.4551,-3.25 -3.25,-3.25 -1.7949,0 -3.25,1.4551 -3.25,3.25 0,1.7949 1.4551,3.25 3.25,3.25 1.7949,0 3.25,-1.4551 3.25,-3.25z"/>
   <path class="fil0 str0" d="M139.4092 207.1111c0,-1.7949 -1.4551,-3.25 -3.25,-3.25 -1.7949,0 -3.25,1.4551 -3.25,3.25 0,1.7949 1.4551,3.25 3.25,3.25 1.7949,0 3.25,-1.4551 3.25,-3.25z"/>
   <path class="fil0 str0" d="M149.7592 205.6111c0,-1.4359 -1.1641,-2.6 -2.6,-2.6 -1.4359,0 -2.6,1.1641 -2.6,2.6 0,1.4359 1.1641,2.6 2.6,2.6 1.4359,0 2.6,-1.164 2.6,-2.6z"/>
  </g>
  <g id="_1234875553024">
   <path class="fil0 str0" d="M179.1438 229.7795l0.0926 11.6925c0.0113,1.3268 0.5494,2.5949 1.4956,3.5251 0.9463,0.9302 2.217,1.4464 3.5439,1.4351l39.9987 -0.3168c2.8553,-0.0294 5.4537,-1.6549 6.7293,-4.2095 1.2756,-2.5546 1.0353,-5.5789 -0.6566,-7.879l-4.725 -6.4555c-1.4447,-1.9732 -3.7477,-3.1308 -6.193,-3.1111l-35.3252 0.2798c-1.3269,0.0113 -2.595,0.5493 -3.5251,1.4956 -0.9302,0.9463 -1.4465,2.217 -1.4352,3.5438z"/>
   <path class="fil0 str0" d="M195.6138 239.843c-0.2964,-1.1096 -0.8769,-2.1222 -1.6848,-2.9386 -0.7623,-0.7696 -0.7712,-2.0081 -0.0221,-2.7905 0.7948,-0.8293 1.3593,-1.8509 1.638,-2.965 0.2209,-0.8841 1.0132,-1.507 1.9244,-1.5145l12.4187 -0.0984c0.5517,-0.0047 1.0808,0.2188 1.4621,0.6177 0.3813,0.3989 0.5805,0.9405 0.5507,1.4915 -0.0958,1.754 0.4183,3.4861 1.4558,4.9036l1.0803 1.4759c0.4441,0.6038 0.5129,1.4054 0.1781,2.076 -0.3349,0.6706 -1.0267,1.0974 -1.7762,1.1051l-15.2769 0.121c-0.9112,0.0077 -1.7127,-0.6034 -1.9481,-1.4838z"/>
   <path class="fil0 str0" d="M189.1296 227.9468c-0.8836,0.007 -1.5942,0.729 -1.5872,1.6126 0.007,0.8837 0.7289,1.5943 1.6126,1.5873 0.8836,-0.007 1.5943,-0.7289 1.5873,-1.6126 -0.007,-0.8836 -0.729,-1.5943 -1.6127,-1.5873z"/>
   <path class="fil0 str0" d="M189.2247 239.9464c-0.8837,0.007 -1.5943,0.729 -1.5873,1.6126 0.007,0.8837 0.7289,1.5943 1.6126,1.5873 0.8837,-0.007 1.5943,-0.7289 1.5873,-1.6126 -0.007,-0.8836 -0.729,-1.5943 -1.6126,-1.5873z"/>
   <path class="fil0 str0" d="M221.5876 230.5244l4.7249 6.4557c0.5486,0.7496 0.6557,1.7349 0.2808,2.5848 -0.3748,0.8498 -1.1745,1.4352 -2.098,1.5355 -0.9235,0.1004 -1.8303,-0.2996 -2.379,-1.0491l-4.7248 -6.4557c-0.5487,-0.7495 -0.6558,-1.7348 -0.2809,-2.5847 0.3749,-0.8499 1.1745,-1.4353 2.0981,-1.5356 0.9234,-0.1004 1.8302,0.2996 2.3789,1.0491z"/>
  </g>
  <g id="_1234875279584">
   <path class="fil0 str0" d="M207.3477 1.64l-11.9128 0c-1.3269,0.0008 -2.5991,0.5288 -3.5368,1.4676 -0.9377,0.9389 -1.464,2.2055 -1.4632,3.5324l0 35.648c0.0005,2.5765 1.3035,4.9759 3.4657,6.3771l6.7127 4.352c2.3431,1.512 5.3257,1.6211 7.773,0.2843 2.4473,-1.3368 3.9673,-3.8728 3.9614,-6.6614l0 -40c-0.0009,-1.3269 -0.5288,-2.5992 -1.4677,-3.5368 -0.9388,-0.9377 -2.2054,-1.464 -3.5323,-1.4632z"/>
   <path class="fil0 str0" d="M206.2947 26.4946c-2.6232,0.7952 -5.0272,2.1829 -7.0273,4.0572 -0.1388,0.1301 -0.3466,0.1539 -0.5113,0.0589l-2.3096 -1.3335c-0.1647,-0.095 -0.2478,-0.287 -0.2047,-0.4722 0.623,-2.6694 0.6231,-5.4451 0,-8.1145 -0.0432,-0.1851 0.04,-0.377 0.2047,-0.4721l2.3096 -1.3335c0.1647,-0.0952 0.3724,-0.0711 0.5113,0.0589 2.0002,1.8741 4.404,3.2621 7.0273,4.0572 0.182,0.0551 0.3065,0.2231 0.3066,0.4133l0 2.6669c0.0001,0.1902 -0.1246,0.3581 -0.3066,0.4134z"/>
   <path class="fil0 str0" d="M208.9913 11.64c0,-0.8837 -0.7163,-1.6 -1.6,-1.6 -0.8837,0 -1.6,0.7163 -1.6,1.6 0,0.8837 0.7163,1.6 1.6,1.6 0.8836,0 1.6,-0.7163 1.6,-1.6z"/>
   <path class="fil0 str0" d="M196.9913 11.64c0,-0.8837 -0.7163,-1.6 -1.6,-1.6 -0.8837,0 -1.6,0.7163 -1.6,1.6 0,0.8837 0.7163,1.6 1.6,1.6 0.8836,0 1.6,-0.7163 1.6,-1.6z"/>
   <path class="fil0 str0" d="M203.3333 48.8216l-6.7127 -4.3519c-0.7795,-0.5053 -1.2301,-1.3881 -1.1822,-2.3157 0.0479,-0.9277 0.5871,-1.7593 1.4144,-2.1817 0.8273,-0.4223 1.8171,-0.3712 2.5965,0.1341l6.7127 4.352c0.7795,0.5053 1.2301,1.388 1.1822,2.3157 -0.0479,0.9276 -0.5871,1.7593 -1.4144,2.1816 -0.8273,0.4224 -1.8171,0.3712 -2.5965,-0.1341z"/>
  </g>
  <g id="_1234875278528">
   <path class="fil0 str0" d="M178.7385 205.3895l0 13.0542c0.0008,1.3269 0.5287,2.5992 1.4676,3.5368 0.9389,0.9377 2.2055,1.464 3.5324,1.4632l41.5204 0c2.2704,-0.0021 4.4212,-1.0184 5.8644,-2.7711 1.4433,-1.7527 2.0307,-4.0447 1.5971,-6.2733l-1.5204 -7.8542c-0.6938,-3.5757 -3.8192,-6.1572 -7.4615,-6.1556l-40 0c-1.3269,0.0008 -2.5992,0.5288 -3.5369,1.4676 -0.9376,0.9389 -1.464,2.2055 -1.4631,3.5324z"/>
   <path class="fil0 str0" d="M190.3385 217.9166c0,-0.8837 -0.7164,-1.6 -1.6,-1.6 -0.8837,0 -1.6,0.7163 -1.6,1.6 0,0.8837 0.7163,1.6 1.6,1.6 0.8836,0 1.6,-0.7163 1.6,-1.6z"/>
   <path class="fil0 str0" d="M215.5968 218.4437c0.5975,-0.0006 1.1635,-0.268 1.5433,-0.7292 0.3798,-0.4613 0.5344,-1.0644 0.4203,-1.6509l-1.2834 -6.6297c-0.1223,-0.6319 -0.1639,-1.277 -0.1237,-1.9194 0.0342,-0.5514 -0.1612,-1.0925 -0.5397,-1.4949 -0.3786,-0.4025 -0.9038,-0.6305 -1.4564,-0.6301l-16.8187 0c-0.5308,0.0003 -1.0397,0.2115 -1.4148,0.5871 -0.375,0.3755 -0.5856,0.8821 -0.5852,1.4129l0 9.0542c0.0003,0.5308 0.2115,1.0397 0.587,1.4147 0.3756,0.3751 0.8822,0.5856 1.413,0.5853l18.2583 0z"/>
   <path class="fil0 str0" d="M190.3385 205.9166c0,-0.8837 -0.7164,-1.6 -1.6,-1.6 -0.8837,0 -1.6,0.7163 -1.6,1.6 0,0.8837 0.7163,1.6 1.6,1.6 0.8836,0 1.6,-0.7163 1.6,-1.6z"/>
   <path class="fil0 str0" d="M222.7063 216.3378l-1.5204 -7.8542c-0.1766,-0.9119 0.1468,-1.8488 0.8483,-2.4576 0.7015,-0.6089 1.6746,-0.7973 2.5526,-0.4942 0.8781,0.3031 1.5278,1.0516 1.7043,1.9636l1.5204 7.8542c0.1766,0.9119 -0.1468,1.8488 -0.8483,2.4576 -0.7015,0.6089 -1.6746,0.7973 -2.5526,0.4942 -0.8781,-0.3031 -1.5278,-1.0516 -1.7043,-1.9636z"/>
  </g>
  <g id="_1234875276992">
   <path class="fil0 str0" d="M33.6461 227.1458l-12.8377 0c-0.5889,0.0005 -1.148,-0.2587 -1.5282,-0.7085 -0.3801,-0.4498 -0.5419,-1.0478 -0.4432,-1.6284 0.3561,-2.0861 -0.1842,-4.2241 -1.4899,-5.8897 -0.5679,-0.7239 -0.5673,-1.7431 0,-2.4674 0.7842,-1.0007 1.3011,-2.1837 1.5024,-3.439 0.0927,-0.5815 0.4372,-1.0926 0.9415,-1.3967 0.5043,-0.3041 1.1204,-0.3692 1.678,-0.1798l13.9898 4.7644c0.5682,0.1929 1.0197,0.631 1.2297,1.1932 0.2099,0.5621 0.1542,1.1922 -0.1485,1.7104 -0.9959,1.7017 -1.3288,3.7097 -0.9343,5.6415 0.1206,0.5879 -0.0294,1.1988 -0.4085,1.664 -0.3791,0.4652 -0.951,0.7354 -1.5511,0.736z"/>
   <path class="fil0 str0" d="M13.0441 223.5458c0,-0.8837 -0.7163,-1.6 -1.6,-1.6 -0.8837,0 -1.6,0.7163 -1.6,1.6 0,0.8836 0.7163,1.6 1.6,1.6 0.8836,0 1.6,-0.7163 1.6,-1.6z"/>
   <path class="fil0 str0" d="M13.0441 211.8252c0,-0.8836 -0.7163,-1.6 -1.6,-1.6 -0.8837,0 -1.6,0.7163 -1.6,1.6 0,0.8837 0.7163,1.6 1.6,1.6 0.8836,0 1.6,-0.7163 1.6,-1.6z"/>
   <path class="fil0 str0" d="M46.0441 223.1458c0,-1.4359 -1.1641,-2.6 -2.6,-2.6 -1.4359,0 -2.6,1.164 -2.6,2.6 0,1.4359 1.1641,2.6 2.6,2.6 1.4359,0 2.6,-1.1641 2.6,-2.6z"/>
   <path class="fil0 str0" d="M14.2166 203.6844c-2.6296,-0.892 -5.5279,-0.4606 -7.7838,1.1584 -2.2558,1.6191 -3.5921,4.2057 -3.5887,6.9824l0 11.7206c0.0014,2.2823 0.9095,4.4705 2.5243,6.0834 1.6149,1.6128 3.7934,2.518 6.0757,2.5166l32 0c4.4188,-0.0953 8.12,-3.3737 8.7479,-7.7487 0.628,-4.375 -1.6328,-8.4365 -5.8465,-9.7708l-32.1289 -10.9419z"/>
  </g>
  <g id="_1234875274240">
   <path class="fil0 str0" d="M118.5269 38.9524l0 7.9 -77.5 0c-0.7951,0.0005 -1.5579,-0.3149 -2.1205,-0.8768 -0.5626,-0.5619 -0.879,-1.3281 -0.8795,-2.1232l0 -6.001c-0.0005,-0.7951 0.3149,-1.5579 0.8768,-2.1205 0.5619,-0.5626 1.3281,-0.879 2.1232,-0.8795l42.05 0c0.7962,-0.0005 1.5595,-0.3173 2.1221,-0.8806 0.5626,-0.5633 0.8784,-1.3232 0.8779,-2.1194l0 -16.699c-0.0011,-3.8304 2.3042,-7.2885 5.8382,-8.7659l11.8118 -4.9341 14.8 0 0 7.9 -4.5 0c-1.0085,0.0006 -1.9754,0.4019 -2.688,1.1154 -0.7126,0.7135 -1.1126,1.6761 -1.112,2.6846l0 22c0.0006,1.0085 0.4019,1.9754 1.1154,2.688 0.7135,0.7126 1.6761,1.1126 2.6846,1.112l4.5 0z"/>
   <path class="fil0 str0" d="M105.5269 41.7524c0,1.4359 1.1641,2.6 2.6,2.6 1.4359,0 2.6,-1.1641 2.6,-2.6 0,-1.4359 -1.1641,-2.6 -2.6,-2.6 -1.4359,0 -2.6,1.164 -2.6,2.6z"/>
   <path class="fil0 str0" d="M45.0269 39.2514l-2 0c-0.5716,0 -1.0998,0.305 -1.3856,0.8 -0.2859,0.495 -0.2859,1.105 0,1.6 0.2858,0.495 0.814,0.8 1.3856,0.8l2 0c0.5716,0 1.0998,-0.305 1.3856,-0.8 0.2859,-0.495 0.2859,-1.105 0,-1.6 -0.2858,-0.495 -0.814,-0.8 -1.3856,-0.8z"/>
   <path class="fil0 str0" d="M92.9269 34.1523c0,1.436 1.1641,2.6 2.6,2.6 1.4359,0 2.6,-1.164 2.6,-2.6 0,-1.4359 -1.1641,-2.6 -2.6,-2.6 -1.4359,0 -2.6,1.1641 -2.6,2.6z"/>
   <path class="fil0 str0" d="M92.9769 15.1524c0,1.4359 1.1641,2.6 2.6,2.6 1.4359,0 2.6,-1.1641 2.6,-2.6 0,-1.4359 -1.1641,-2.6 -2.6,-2.6 -1.4359,0 -2.6,1.164 -2.6,2.6z"/>
   <path class="fil0 str0" d="M68.0269 42.4514l2 0c0.5716,0 1.0998,-0.305 1.3856,-0.8 0.2859,-0.495 0.2859,-1.105 0,-1.6 -0.2858,-0.495 -0.814,-0.8 -1.3856,-0.8l-2 0c-0.5716,0 -1.0998,0.305 -1.3856,0.8 -0.2859,0.495 -0.2859,1.105 0,1.6 0.2858,0.495 0.814,0.8 1.3856,0.8z"/>
   <path class="fil0 str0" d="M105.5269 6.5524c0,1.4359 1.1641,2.6 2.6,2.6 1.4359,0 2.6,-1.1641 2.6,-2.6 0,-1.4359 -1.1641,-2.6 -2.6,-2.6 -1.4359,0 -2.6,1.164 -2.6,2.6z"/>
  </g>
  <g id="_1234875265760">
   <line class="fil0 str0" x1="121.2576" y1="46.6037" x2="153.7076" y2= "46.6037" />
   <line class="fil0 str0" x1="153.7076" y1="46.6037" x2="153.7076" y2= "38.7037" />
   <line class="fil0 str0" x1="153.7076" y1="38.7037" x2="149.2076" y2= "38.7037" />
   <path class="fil0 str0" d="M145.4076 34.9037c0,1.0078 0.4004,1.9744 1.113,2.687 0.7126,0.7126 1.6792,1.113 2.687,1.113"/>
   <line class="fil0 str0" x1="145.4076" y1="34.9037" x2="145.4076" y2= "12.9037" />
   <path class="fil0 str0" d="M149.2076 9.1037c-1.0078,0 -1.9744,0.4004 -2.687,1.113 -0.7126,0.7126 -1.113,1.6792 -1.113,2.687"/>
   <line class="fil0 str0" x1="149.2076" y1="9.1037" x2="153.7076" y2= "9.1037" />
   <line class="fil0 str0" x1="153.7076" y1="9.1037" x2="153.7076" y2= "1.2037" />
   <line class="fil0 str0" x1="153.7076" y1="1.2037" x2="138.9076" y2= "1.2037" />
   <line class="fil0 str0" x1="138.9076" y1="1.2037" x2="127.0958" y2= "6.1378" />
   <path class="fil0 str0" d="M127.0958 6.1378c-3.5359,1.477 -5.8382,4.9339 -5.8382,8.7659"/>
   <line class="fil0 str0" x1="121.2576" y1="14.9037" x2="121.2576" y2= "46.6037" />
   <path class="fil0 str0" d="M133.3076 33.9036c0,-1.4359 -1.1641,-2.6 -2.6,-2.6 -1.4359,0 -2.6,1.1641 -2.6,2.6 0,1.436 1.1641,2.6 2.6,2.6 1.4359,0 2.6,-1.164 2.6,-2.6z"/>
   <path class="fil0 str0" d="M133.3576 14.9037c0,-1.4359 -1.1641,-2.6 -2.6,-2.6 -1.4359,0 -2.6,1.1641 -2.6,2.6 0,1.4359 1.1641,2.6 2.6,2.6 1.4359,0 2.6,-1.164 2.6,-2.6z"/>
   <path class="fil0 str0" d="M145.9076 41.5037c0,-1.4359 -1.1641,-2.6 -2.6,-2.6 -1.4359,0 -2.6,1.1641 -2.6,2.6 0,1.4359 1.1641,2.6 2.6,2.6 1.4359,0 2.6,-1.164 2.6,-2.6z"/>
   <path class="fil0 str0" d="M145.9076 6.3037c0,-1.4359 -1.1641,-2.6 -2.6,-2.6 -1.4359,0 -2.6,1.1641 -2.6,2.6 0,1.4359 1.1641,2.6 2.6,2.6 1.4359,0 2.6,-1.164 2.6,-2.6z"/>
   <path class="fil0 str0" d="M138.0112 32.1568c0.1852,0.1735 0.4619,0.2055 0.6816,0.0785l3.0795 -1.7779c0.2198,-0.127 0.3307,-0.3825 0.2729,-0.6296 -0.8306,-3.5581 -0.8303,-7.2612 0,-10.8193 0.0576,-0.2472 -0.053,-0.5028 -0.2729,-0.6296l-3.0795 -1.7779c-0.2198,-0.1269 -0.4965,-0.0952 -0.6816,0.0784 -2.6661,2.4984 -5.8732,4.3497 -9.3698,5.4097 -0.2429,0.0737 -0.4089,0.2973 -0.4088,0.5511l0 3.5559c0.0001,0.2538 0.1659,0.4775 0.4088,0.5511 3.4966,1.0597 6.7035,2.9115 9.3698,5.4096z"/>
  </g>
  <g id="_1234874258208">
   <path class="fil0 str0" d="M213.5789 60.2297c0.0001,0.5305 0.2106,1.0391 0.5858,1.4142l3.3284 3.3284c0.3752,0.3751 0.8837,0.5859 1.4142,0.5858l21.4442 0c0.591,-0.0001 1.1521,0.2617 1.5321,0.7144l6.9821 8.3209c1.4972,1.7673 3.9398,2.4094 6.1126,1.6069 2.1727,-0.8024 3.6116,-2.826 3.6006,-5.1422l0 -68.6 -8 0 0 5.625c0.0005,0.8415 -0.3333,1.6488 -0.9279,2.2442 -0.5947,0.5955 -1.4056,0.9303 -2.2471,0.9308l-2.65 0c-0.8415,0.0005 -1.6488,-0.3333 -2.2442,-0.9279 -0.5955,-0.5947 -0.9303,-1.4056 -0.9308,-2.2471l0 -5.625 -11 0 0 5.625c0.0005,0.8415 -0.3333,1.6488 -0.9279,2.2442 -0.5947,0.5955 -1.4056,0.9303 -2.2471,0.9308l-2.65 0c-0.8415,0.0005 -1.6488,-0.3333 -2.2442,-0.9279 -0.5955,-0.5947 -0.9303,-1.4056 -0.9308,-2.2471l0 -5.625 -8 0 0 57.7716z"/>
   <path class="fil0 str0" d="M216.1204 51.6108c1.2494,-1.3336 2.1748,-2.9361 2.7048,-4.6849 0.0367,-0.1214 0.1488,-0.2044 0.2755,-0.2044l1.778 0c0.1268,-0.0001 0.2387,0.083 0.2755,0.2044 0.5302,1.7488 1.4553,3.3514 2.7049,4.6849 0.0867,0.0924 0.1026,0.231 0.0392,0.3408l-0.889 1.5397c-0.0633,0.1099 -0.1913,0.1652 -0.3148,0.1365 -1.7795,-0.4153 -3.63,-0.4154 -5.4096,0 -0.1235,0.0288 -0.2514,-0.0267 -0.3148,-0.1365l-0.889 -1.5397c-0.0634,-0.1098 -0.0474,-0.2483 0.0393,-0.3408z"/>
   <path class="fil0 str0" d="M220.5789 30.6581c0.8837,0 1.6,-0.7163 1.6,-1.6 0,-0.8837 -0.7163,-1.6 -1.6,-1.6 -0.8837,0 -1.6,0.7163 -1.6,1.6 0,0.8836 0.7163,1.6 1.6,1.6z"/>
   <path class="fil0 str0" d="M220.5789 61.6581c0.8837,0 1.6,-0.7163 1.6,-1.6 0,-0.8837 -0.7163,-1.6 -1.6,-1.6 -0.8837,0 -1.6,0.7163 -1.6,1.6 0,0.8836 0.7163,1.6 1.6,1.6z"/>
   <path class="fil0 str0" d="M253.0789 73.6581c1.4359,0 2.6,-1.1641 2.6,-2.6 0,-1.4359 -1.1641,-2.6 -2.6,-2.6 -1.4359,0 -2.6,1.1641 -2.6,2.6 0,1.4359 1.164,2.6 2.6,2.6z"/>
   <path class="fil0 str0" d="M224.0789 19.1581c1.4359,0 2.6,-1.1641 2.6,-2.6 0,-1.4359 -1.1641,-2.6 -2.6,-2.6 -1.4359,0 -2.6,1.1641 -2.6,2.6 0,1.4359 1.164,2.6 2.6,2.6z"/>
   <path class="fil0 str0" d="M248.0789 19.1581c1.4359,0 2.6,-1.1641 2.6,-2.6 0,-1.4359 -1.1641,-2.6 -2.6,-2.6 -1.4359,0 -2.6,1.1641 -2.6,2.6 0,1.4359 1.164,2.6 2.6,2.6z"/>
   <path class="fil0 str0" d="M236.0789 56.0581c6.3513,0 11.5,-5.1487 11.5,-11.5 0,-6.3513 -5.1487,-11.5 -11.5,-11.5 -6.3512,0 -11.5,5.1487 -11.5,11.5 0,6.3512 5.1487,11.5 11.4999,11.5z"/>
   <path class="fil0 str0" d="M234.7002 27.6954l-4.2084 -2.9596c-0.4623,-0.3246 -0.7656,-0.8296 -0.835,-1.3902 -0.0694,-0.5605 0.1037,-1.1266 0.4728,-1.5541 0.9925,-1.1476 1.6381,-2.5528 1.8618,-4.0534 0.0811,-0.5465 0.3847,-1.035 0.8389,-1.3496 0.4541,-0.3146 1.021,-0.4265 1.5611,-0.3104 1.1124,0.24 2.2627,0.2401 3.375,0 0.5399,-0.1169 1.1042,-0.0051 1.5588,0.3088 0.4545,0.3139 0.7593,0.8049 0.8412,1.3512 0.3321,2.2252 1.584,4.2067 3.4519,5.461 0.8157,0.5474 1.112,1.6081 0.7,2.5 -0.2494,0.539 -0.4379,1.1039 -0.5622,1.6846 -0.118,0.5536 -0.4653,1.0311 -0.9555,1.3141 -0.4902,0.283 -1.0803,0.3439 -1.6187,0.1692 -1.7131,-0.5571 -3.5053,-0.8299 -5.3065,-0.8076 -0.4202,0.0052 -0.8315,-0.1223 -1.1752,-0.364z"/>
   <path class="fil0 str0" d="M236.0789 10.8581c1.4359,0 2.6,-1.1641 2.6,-2.6 0,-1.4359 -1.1641,-2.6 -2.6,-2.6 -1.4359,0 -2.6,1.1641 -2.6,2.6 0,1.4359 1.164,2.6 2.6,2.6z"/>
   <path class="fil0 str0" d="M251.5789 30.6581c0.8837,0 1.6,-0.7163 1.6,-1.6 0,-0.8837 -0.7163,-1.6 -1.6,-1.6 -0.8837,0 -1.6,0.7163 -1.6,1.6 0,0.8836 0.7163,1.6 1.6,1.6z"/>
   <path class="fil0 str0" d="M251.5789 61.6581c0.8837,0 1.6,-0.7163 1.6,-1.6 0,-0.8837 -0.7163,-1.6 -1.6,-1.6 -0.8837,0 -1.6,0.7163 -1.6,1.6 0,0.8836 0.7163,1.6 1.6,1.6z"/>
  </g>
  <g id="_1234874254944">
   <path class="fil0 str0" d="M218.4273 70.4497c0,-0.4703 -0.1656,-0.9253 -0.4679,-1.2855l-4.3189 -5.147c-1.4972,-1.7673 -3.9398,-2.4094 -6.1126,-1.6069 -2.1727,0.8024 -3.6116,2.826 -3.6006,5.1422l0 68.6 8 0 0 -5.625c-0.0005,-0.8415 0.3333,-1.6488 0.9279,-2.2442 0.5947,-0.5955 1.4056,-0.9303 2.2471,-0.9308l2.65 0c0.8415,-0.0005 1.6488,0.3333 2.2442,0.9279 0.5955,0.5947 0.9303,1.4056 0.9308,2.2471l0 5.625 11 0 0 -5.625c-0.0005,-0.8415 0.3333,-1.6488 0.9279,-2.2442 0.5947,-0.5955 1.4056,-0.9303 2.2471,-0.9308l2.65 0c0.8415,-0.0005 1.6488,0.3333 2.2442,0.9279 0.5955,0.5947 0.9303,1.4056 0.9308,2.2471l0 5.625 8 0 0 -15.4574c-0.0001,-0.6512 -0.3167,-1.2613 -0.8495,-1.6359l-26.2526 -18.4629c-2.1298,-1.4973 -3.3975,-3.9404 -3.3979,-6.5438l0 -23.6028z"/>
   <path class="fil0 str0" d="M238.4273 119.4525c-1.4359,0 -2.6,1.1641 -2.6,2.6 0,1.4359 1.1641,2.6 2.6,2.6 1.4359,0 2.6,-1.1641 2.6,-2.6 0,-1.4359 -1.164,-2.6 -2.6,-2.6z"/>
   <path class="fil0 str0" d="M214.4273 119.4525c-1.4359,0 -2.6,1.1641 -2.6,2.6 0,1.4359 1.1641,2.6 2.6,2.6 1.4359,0 2.6,-1.1641 2.6,-2.6 0,-1.4359 -1.164,-2.6 -2.6,-2.6z"/>
   <path class="fil0 str0" d="M226.4273 127.7525c-1.4359,0 -2.6,1.1641 -2.6,2.6 0,1.4359 1.1641,2.6 2.6,2.6 1.4359,0 2.6,-1.1641 2.6,-2.6 0,-1.4359 -1.164,-2.6 -2.6,-2.6z"/>
   <path class="fil0 str0" d="M222.0204 106.8462c-0.6446,-0.4504 -1.4931,-0.4819 -2.1693,-0.0805 -0.6762,0.4013 -1.0563,1.149 -0.9698,1.9305 0.1553,1.4417 -0.0846,2.8992 -0.6934,4.2153 -0.4125,0.8928 -0.1166,1.952 0.7,2.5 1.8668,1.2536 3.12,3.237 3.4519,5.461 0.082,0.5471 0.3868,1.0358 0.842,1.3502 0.4551,0.3143 1.0173,0.4269 1.558,0.3098 1.112,-0.24 2.2629,-0.2399 3.375,0 0.5408,0.1163 1.1057,0.0036 1.5604,-0.3114 0.4548,-0.3151 0.7584,-0.8014 0.8396,-1.3486 0.2236,-1.5 0.8697,-2.9063 1.8618,-4.0534 0.3696,-0.4281 0.5409,-0.9926 0.4714,-1.554 -0.0694,-0.5613 -0.3707,-1.0653 -0.8336,-1.3903l-9.994 -7.0286z"/>
   <path class="fil0 str0" d="M210.9273 106.3025c-1.7949,0 -3.25,1.4551 -3.25,3.25 0,1.7949 1.4551,3.25 3.25,3.25 1.7949,0 3.25,-1.4551 3.25,-3.25 0,-1.7949 -1.4551,-3.25 -3.25,-3.25z"/>
   <path class="fil0 str0" d="M210.9273 75.3025c-1.7949,0 -3.25,1.4551 -3.25,3.25 0,1.7949 1.4551,3.25 3.25,3.25 1.7949,0 3.25,-1.4551 3.25,-3.25 0,-1.7949 -1.4551,-3.25 -3.25,-3.25z"/>
   <path class="fil0 str0" d="M209.4273 64.9525c-1.4359,0 -2.6,1.1641 -2.6,2.6 0,1.4359 1.1641,2.6 2.6,2.6 1.4359,0 2.6,-1.1641 2.6,-2.6 0,-1.4359 -1.164,-2.6 -2.6,-2.6z"/>
  </g>
  <g id="_1234874251840">
   <path class="fil0 str0" d="M1.7125 9.6631l0 -7.9 77.5 0c0.7951,-0.0005 1.5579,0.3149 2.1205,0.8768 0.5626,0.5619 0.879,1.3281 0.8795,2.1232l0 6.001c0.0005,0.7951 -0.3149,1.5579 -0.8768,2.1205 -0.5619,0.5626 -1.3281,0.879 -2.1232,0.8795l-42.05 0c-0.7962,0.0005 -1.5595,0.3173 -2.1221,0.8806 -0.5626,0.5633 -0.8784,1.3232 -0.8779,2.1194l0 16.699c0.0011,3.8304 -2.3042,7.2885 -5.8382,8.7659l-11.8118 4.9341 -14.8 0 0 -7.9 4.5 0c1.0085,-0.0006 1.9754,-0.4019 2.688,-1.1154 0.7126,-0.7135 1.1126,-1.6761 1.112,-2.6846l0 -22c-0.0006,-1.0085 -0.4019,-1.9754 -1.1154,-2.688 -0.7135,-0.7126 -1.6761,-1.1126 -2.6846,-1.112l-4.5 0z"/>
   <path class="fil0 str0" d="M14.7125 6.8631c0,-1.4359 -1.1641,-2.6 -2.6,-2.6 -1.4359,0 -2.6,1.1641 -2.6,2.6 0,1.4359 1.1641,2.6 2.6,2.6 1.4359,0 2.6,-1.164 2.6,-2.6z"/>
   <path class="fil0 str0" d="M75.2125 9.3641l2 0c0.5716,0 1.0998,-0.305 1.3856,-0.8 0.2859,-0.495 0.2859,-1.105 0,-1.6 -0.2858,-0.495 -0.814,-0.8 -1.3856,-0.8l-2 0c-0.5716,0 -1.0998,0.305 -1.3856,0.8 -0.2859,0.495 -0.2859,1.105 0,1.6 0.2858,0.495 0.814,0.8 1.3856,0.8z"/>
   <path class="fil0 str0" d="M27.3125 14.4632c0,-1.436 -1.1641,-2.6 -2.6,-2.6 -1.4359,0 -2.6,1.164 -2.6,2.6 0,1.4359 1.1641,2.6 2.6,2.6 1.4359,0 2.6,-1.1641 2.6,-2.6z"/>
   <path class="fil0 str0" d="M27.2625 33.4631c0,-1.4359 -1.1641,-2.6 -2.6,-2.6 -1.4359,0 -2.6,1.1641 -2.6,2.6 0,1.4359 1.1641,2.6 2.6,2.6 1.4359,0 2.6,-1.164 2.6,-2.6z"/>
   <path class="fil0 str0" d="M52.2125 6.1641l-2 0c-0.5716,0 -1.0998,0.305 -1.3856,0.8 -0.2859,0.495 -0.2859,1.105 0,1.6 0.2858,0.495 0.814,0.8 1.3856,0.8l2 0c0.5716,0 1.0998,-0.305 1.3856,-0.8 0.2859,-0.495 0.2859,-1.105 0,-1.6 -0.2858,-0.495 -0.814,-0.8 -1.3856,-0.8z"/>
   <path class="fil0 str0" d="M14.7125 42.0631c0,-1.4359 -1.1641,-2.6 -2.6,-2.6 -1.4359,0 -2.6,1.1641 -2.6,2.6 0,1.4359 1.1641,2.6 2.6,2.6 1.4359,0 2.6,-1.164 2.6,-2.6z"/>
  </g>
  <g id="_1234875004352">
   <path class="fil0 str0" d="M61.9091 165.0168c-2.2215,-0.3795 -4.4959,0.26 -6.194,1.7416"/>
   <path class="fil0 str0" d="M54.3503 167.2507c0.5005,0.0126 0.9875,-0.1631 1.3648,-0.4923"/>
   <line class="fil0 str0" x1="54.3503" y1="167.2507" x2="47.9101" y2= "167.0897" />
   <path class="fil0 str0" d="M46.4972 166.4542c0.3665,0.3931 0.8757,0.6221 1.4129,0.6355"/>
   <path class="fil0 str0" d="M46.4972 166.4542c-2.1114,-2.2646 -5.3399,-3.1075 -8.2889,-2.1641"/>
   <path class="fil0 str0" d="M36.172 163.7866c0.5292,0.5389 1.3169,0.7337 2.0363,0.5035"/>
   <line class="fil0 str0" x1="36.172" y1="163.7866" x2="34.937" y2= "162.5292" />
   <path class="fil0 str0" d="M34.4703 160.4842c-0.243,0.7151 -0.0625,1.5062 0.4667,2.045"/>
   <path class="fil0 str0" d="M34.4703 160.4842c1.393,-4.0983 -0.7264,-8.5612 -4.7828,-10.0716"/>
   <path class="fil0 str0" d="M28.5583 149.3519c0.2186,0.4909 0.6256,0.8732 1.1292,1.0607"/>
   <line class="fil0 str0" x1="28.5583" y1="149.3519" x2="19.8262" y2= "129.7429" />
   <path class="fil0 str0" d="M19.757 128.2936c-0.1592,0.4747 -0.1345,0.9919 0.0692,1.4493"/>
   <path class="fil0 str0" d="M19.757 128.2936c0.3935,-1.1738 0.4903,-2.4268 0.2818,-3.6471"/>
   <path class="fil0 str0" d="M22.0102 122.3097c-0.5893,0 -1.1487,0.2599 -1.5287,0.7104 -0.38,0.4504 -0.542,1.0455 -0.4427,1.6264"/>
   <line class="fil0 str0" x1="22.0102" y1="122.3097" x2="32.0316" y2= "122.3097" />
   <path class="fil0 str0" d="M34.003 124.6465c0.0993,-0.5809 -0.0627,-1.176 -0.4427,-1.6264 -0.38,-0.4505 -0.9394,-0.7104 -1.5287,-0.7104"/>
   <path class="fil0 str0" d="M34.003 124.6465c-0.4097,2.3982 0.3693,4.8462 2.0896,6.5665"/>
   <line class="fil0 str0" x1="36.0926" y1="131.213" x2="55.3426" y2= "150.463" />
   <path class="fil0 str0" d="M55.3426 150.463c1.7203,1.7203 4.1683,2.4993 6.5665,2.0896"/>
   <path class="fil0 str0" d="M64.2459 154.524c0,-0.5893 -0.2599,-1.1487 -0.7104,-1.5287 -0.4504,-0.38 -1.0455,-0.542 -1.6264,-0.4427"/>
   <line class="fil0 str0" x1="64.2459" y1="154.524" x2="64.2459" y2= "163.0454" />
   <path class="fil0 str0" d="M61.9091 165.0168c0.5809,0.0993 1.176,-0.0627 1.6264,-0.4427 0.4505,-0.38 0.7104,-0.9394 0.7104,-1.5287"/>
   <path class="fil0 str0" d="M16.4239 134.3936l6.4862 14.5655c0.3868,0.8676 0.1082,1.8885 -0.6645,2.441 -2.8724,2.0535 -4.0616,5.7414 -2.9241,9.0841 0.2431,0.7148 0.0622,1.5062 -0.4667,2.045l-1.235 1.2574c-0.5289,0.5388 -1.3171,0.7334 -2.0363,0.5035 -1.2281,-0.3928 -2.5324,-0.4831 -3.8029,-0.263 -0.5773,0.1005 -1.1695,-0.0574 -1.6201,-0.4318 -0.4506,-0.3745 -0.7143,-0.9313 -0.7212,-1.5171l-0.2909 -26.7655c-0.0069,-0.5889 0.2462,-1.1508 0.6918,-1.5358 0.4456,-0.385 1.0418,-0.5533 1.6234,-0.461 0.904,0.1443 1.8265,0.122 2.7225,-0.0661 0.9217,-0.1938 1.8543,0.2836 2.2378,1.1438z"/>
   <path class="fil0 str0" d="M20.9675 173.5897c0.3038,-1.4147 0.2185,-2.8845 -0.2472,-4.2545 -0.2431,-0.7148 -0.0622,-1.5062 0.4667,-2.045l1.235 -1.2574c0.5289,-0.5388 1.3171,-0.7334 2.0363,-0.5035 1.5858,0.5072 3.2894,0.5074 4.8752,0 0.7191,-0.2302 1.5071,-0.0351 2.0363,0.5035l1.235 1.2574c0.5291,0.5385 0.7095,1.3301 0.4667,2.045 -0.4656,1.37 -0.5511,2.8398 -0.2472,4.2545 0.1273,0.5901 -0.0189,1.2061 -0.3978,1.6761 -0.379,0.4699 -0.9539,0.7433 -1.5576,0.7439l-7.946 0c-0.6037,0.0006 -1.1753,-0.2717 -1.5551,-0.7409 -0.3799,-0.4692 -0.5265,-1.0888 -0.4003,-1.6791z"/>
   <path class="fil0 str0" d="M12.6459 124.3097c-0.8837,0 -1.6,0.7163 -1.6,1.6 0,0.8837 0.7163,1.6 1.6,1.6 0.8837,0 1.6,-0.7163 1.6,-1.6 0,-0.8836 -0.7163,-1.6 -1.6,-1.6z"/>
   <path class="fil0 str0" d="M41.3959 124.3097c-0.8837,0 -1.6,0.7163 -1.6,1.6 0,0.8837 0.7163,1.6 1.6,1.6 0.8837,0 1.6,-0.7163 1.6,-1.6 0,-0.8836 -0.7163,-1.6 -1.6,-1.6z"/>
   <path class="fil0 str0" d="M40.6459 169.3097c-1.4359,0 -2.6,1.1641 -2.6,2.6 0,1.4359 1.1641,2.6 2.6,2.6 1.4359,0 2.6,-1.1641 2.6,-2.6 0,-1.4359 -1.164,-2.6 -2.6,-2.6z"/>
   <path class="fil0 str0" d="M26.8959 155.3097c-1.4359,0 -2.6,1.1641 -2.6,2.6 0,1.4359 1.1641,2.6 2.6,2.6 1.4359,0 2.6,-1.1641 2.6,-2.6 0,-1.4359 -1.164,-2.6 -2.6,-2.6z"/>
   <path class="fil0 str0" d="M13.1459 169.3097c-1.4359,0 -2.6,1.1641 -2.6,2.6 0,1.4359 1.1641,2.6 2.6,2.6 1.4359,0 2.6,-1.1641 2.6,-2.6 0,-1.4359 -1.164,-2.6 -2.6,-2.6z"/>
   <path class="fil0 str0" d="M60.6459 170.8097c-0.8837,0 -1.6,0.7163 -1.6,1.6 0,0.8837 0.7163,1.6 1.6,1.6 0.8837,0 1.6,-0.7163 1.6,-1.6 0,-0.8836 -0.7163,-1.6 -1.6,-1.6z"/>
   <path class="fil0 str0" d="M60.6459 143.5597c-0.8837,0 -1.6,0.7163 -1.6,1.6 0,0.8837 0.7163,1.6 1.6,1.6 0.8837,0 1.6,-0.7163 1.6,-1.6 0,-0.8836 -0.7163,-1.6 -1.6,-1.6z"/>
   <path class="fil0 str0" d="M49.9959 125.9097c-0.0014,-2.2823 -0.9095,-4.4706 -2.5243,-6.0834 -1.6149,-1.6128 -3.7934,-2.518 -6.0757,-2.5166l-28.75 0c-2.2823,0.0014 -4.4706,0.9095 -6.0834,2.5243 -1.6128,1.6149 -2.518,3.7934 -2.5166,6.0757l0 46c0.0015,2.415 0.9623,4.7305 2.6711,6.4371 1.7087,1.7065 4.0139,2.6644 6.4289,2.6629l47.5 0c2.2823,-0.0014 4.4706,-0.9095 6.0834,-2.5243 1.6128,-1.6149 2.518,-3.7934 2.5166,-6.0757l0 -27.25c-0.0014,-2.2823 -0.9095,-4.4706 -2.5243,-6.0834 -1.6149,-1.6128 -3.7934,-2.518 -6.0757,-2.5166l-10 0c-0.1723,0.0001 -0.3376,-0.0682 -0.4594,-0.19 -0.1219,-0.1217 -0.1905,-0.2877 -0.1906,-0.46l0 -10z"/>
   <path class="fil0 str0" d="M52.9709 176.6998c-1.4237,-0.3322 -2.9041,-0.3323 -4.3277,0 -0.0988,0.0231 -0.2011,-0.0213 -0.2518,-0.1091l-0.7112 -1.2318c-0.0508,-0.0878 -0.038,-0.1986 0.0314,-0.2727 0.9995,-1.0668 1.7398,-2.3488 2.1638,-3.7479 0.0294,-0.0971 0.119,-0.1635 0.2205,-0.1635l1.4223 0c0.1015,0 0.191,0.0665 0.2205,0.1635 0.4241,1.3991 1.1642,2.6812 2.1638,3.7479 0.0694,0.074 0.0821,0.1848 0.0314,0.2727l-0.7112 1.2318c-0.0506,0.0879 -0.153,0.1322 -0.2518,0.1091z"/>
  </g>
  <g id="_1234874166496">
   <path class="fil0 str0" d="M144.4031 104.5811c2.2215,0.3795 4.4959,-0.26 6.194,-1.7416"/>
   <path class="fil0 str0" d="M151.9619 102.3472c-0.5005,-0.0126 -0.9875,0.1631 -1.3648,0.4923"/>
   <line class="fil0 str0" x1="151.9619" y1="102.3472" x2="158.4021" y2= "102.5082" />
   <path class="fil0 str0" d="M159.815 103.1437c-0.3665,-0.3931 -0.8757,-0.6221 -1.4129,-0.6355"/>
   <path class="fil0 str0" d="M159.815 103.1437c2.1114,2.2646 5.3399,3.1075 8.2889,2.1641"/>
   <path class="fil0 str0" d="M170.1402 105.8113c-0.5292,-0.5389 -1.3169,-0.7337 -2.0363,-0.5035"/>
   <line class="fil0 str0" x1="170.1402" y1="105.8113" x2="171.3752" y2= "107.0687" />
   <path class="fil0 str0" d="M171.8419 109.1137c0.243,-0.7151 0.0625,-1.5062 -0.4667,-2.045"/>
   <path class="fil0 str0" d="M171.8419 109.1137c-1.393,4.0983 0.7264,8.5612 4.7828,10.0716"/>
   <path class="fil0 str0" d="M177.7539 120.246c-0.2186,-0.4909 -0.6256,-0.8732 -1.1292,-1.0607"/>
   <line class="fil0 str0" x1="177.7539" y1="120.246" x2="186.486" y2= "139.855" />
   <path class="fil0 str0" d="M186.5552 141.3043c0.1592,-0.4747 0.1345,-0.9919 -0.0692,-1.4493"/>
   <path class="fil0 str0" d="M186.5552 141.3043c-0.3935,1.1738 -0.4903,2.4268 -0.2818,3.6471"/>
   <path class="fil0 str0" d="M184.302 147.2882c0.5893,0 1.1487,-0.2599 1.5287,-0.7104 0.38,-0.4504 0.542,-1.0455 0.4427,-1.6264"/>
   <line class="fil0 str0" x1="184.302" y1="147.2882" x2="174.2806" y2= "147.2882" />
   <path class="fil0 str0" d="M172.3092 144.9514c-0.0993,0.5809 0.0627,1.176 0.4427,1.6264 0.38,0.4505 0.9394,0.7104 1.5287,0.7104"/>
   <path class="fil0 str0" d="M172.3092 144.9514c0.4097,-2.3982 -0.3693,-4.8462 -2.0896,-6.5665"/>
   <line class="fil0 str0" x1="170.2196" y1="138.3849" x2="150.9696" y2= "119.1349" />
   <path class="fil0 str0" d="M150.9696 119.1349c-1.7203,-1.7203 -4.1683,-2.4993 -6.5665,-2.0896"/>
   <path class="fil0 str0" d="M142.0663 115.0739c0,0.5893 0.2599,1.1487 0.7104,1.5287 0.4504,0.38 1.0455,0.542 1.6264,0.4427"/>
   <line class="fil0 str0" x1="142.0663" y1="115.0739" x2="142.0663" y2= "106.5525" />
   <path class="fil0 str0" d="M189.8883 135.2043l-6.4862 -14.5655c-0.3868,-0.8676 -0.1082,-1.8885 0.6645,-2.441 2.8724,-2.0535 4.0616,-5.7414 2.9241,-9.0841 -0.2431,-0.7148 -0.0622,-1.5062 0.4667,-2.045l1.235 -1.2574c0.5289,-0.5388 1.3171,-0.7334 2.0363,-0.5035 1.2281,0.3928 2.5324,0.4831 3.8029,0.263 0.5773,-0.1005 1.1695,0.0574 1.6201,0.4318 0.4506,0.3745 0.7143,0.9313 0.7212,1.5171l0.2909 26.7655c0.0069,0.5889 -0.2462,1.1508 -0.6918,1.5358 -0.4456,0.385 -1.0418,0.5533 -1.6234,0.461 -0.904,-0.1443 -1.8265,-0.122 -2.7225,0.0661 -0.9217,0.1938 -1.8543,-0.2836 -2.2378,-1.1438z"/>
   <path class="fil0 str0" d="M185.3447 96.0082c-0.3038,1.4147 -0.2185,2.8845 0.2472,4.2545 0.2431,0.7148 0.0622,1.5062 -0.4667,2.045l-1.235 1.2574c-0.5289,0.5388 -1.3171,0.7334 -2.0363,0.5035 -1.5858,-0.5072 -3.2894,-0.5074 -4.8752,0 -0.7191,0.2302 -1.5071,0.0351 -2.0363,-0.5035l-1.235 -1.2574c-0.5291,-0.5385 -0.7095,-1.3301 -0.4667,-2.045 0.4656,-1.37 0.5511,-2.8398 0.2472,-4.2545 -0.1273,-0.5901 0.0189,-1.2061 0.3978,-1.6761 0.379,-0.4699 0.9539,-0.7433 1.5576,-0.7439l7.946 0c0.6037,-0.0006 1.1753,0.2717 1.5551,0.7409 0.3799,0.4692 0.5265,1.0888 0.4003,1.6791z"/>
   <path class="fil0 str0" d="M145.6663 98.7882c0.8837,0 1.6,-0.7163 1.6,-1.6 0,-0.8837 -0.7163,-1.6 -1.6,-1.6 -0.8837,0 -1.6,0.7163 -1.6,1.6 0,0.8836 0.7163,1.6 1.6,1.6z"/>
   <path class="fil0 str0" d="M145.6663 126.0382c0.8837,0 1.6,-0.7163 1.6,-1.6 0,-0.8837 -0.7163,-1.6 -1.6,-1.6 -0.8837,0 -1.6,0.7163 -1.6,1.6 0,0.8836 0.7163,1.6 1.6,1.6z"/>
   <path class="fil0 str0" d="M164.9163 145.2882c0.8837,0 1.6,-0.7163 1.6,-1.6 0,-0.8837 -0.7163,-1.6 -1.6,-1.6 -0.8837,0 -1.6,0.7163 -1.6,1.6 0,0.8836 0.7163,1.6 1.6,1.6z"/>
   <path class="fil0 str0" d="M193.1663 100.2882c1.4359,0 2.6,-1.1641 2.6,-2.6 0,-1.4359 -1.1641,-2.6 -2.6,-2.6 -1.4359,0 -2.6,1.1641 -2.6,2.6 0,1.4359 1.164,2.6 2.6,2.6z"/>
   <path class="fil0 str0" d="M165.6663 100.2882c1.4359,0 2.6,-1.1641 2.6,-2.6 0,-1.4359 -1.1641,-2.6 -2.6,-2.6 -1.4359,0 -2.6,1.1641 -2.6,2.6 0,1.4359 1.164,2.6 2.6,2.6z"/>
   <path class="fil0 str0" d="M175.1663 82.1882c6.3513,0 11.5,-5.1487 11.5,-11.5 0,-6.3513 -5.1487,-11.5 -11.5,-11.5 -6.3512,0 -11.5,5.1487 -11.5,11.5 0,6.3512 5.1487,11.5 11.4999,11.5z"/>
   <path class="fil0 str0" d="M159.6663 87.7882c0.8837,0 1.6,-0.7163 1.6,-1.6 0,-0.8837 -0.7163,-1.6 -1.6,-1.6 -0.8837,0 -1.6,0.7163 -1.6,1.6 0,0.8836 0.7163,1.6 1.6,1.6z"/>
   <path class="fil0 str0" d="M159.6663 56.7882c0.8837,0 1.6,-0.7163 1.6,-1.6 0,-0.8837 -0.7163,-1.6 -1.6,-1.6 -0.8837,0 -1.6,0.7163 -1.6,1.6 0,0.8836 0.7163,1.6 1.6,1.6z"/>
   <path class="fil0 str0" d="M190.6663 56.7882c0.8837,0 1.6,-0.7163 1.6,-1.6 0,-0.8837 -0.7163,-1.6 -1.6,-1.6 -0.8837,0 -1.6,0.7163 -1.6,1.6 0,0.8836 0.7163,1.6 1.6,1.6z"/>
   <path class="fil0 str0" d="M193.6663 145.2882c0.8837,0 1.6,-0.7163 1.6,-1.6 0,-0.8837 -0.7163,-1.6 -1.6,-1.6 -0.8837,0 -1.6,0.7163 -1.6,1.6 0,0.8836 0.7163,1.6 1.6,1.6z"/>
   <path class="fil0 str0" d="M145.6663 59.8882c0.8837,0 1.6,-0.7163 1.6,-1.6 0,-0.8837 -0.7163,-1.6 -1.6,-1.6 -0.8837,0 -1.6,0.7163 -1.6,1.6 0,0.8836 0.7163,1.6 1.6,1.6z"/>
   <path class="fil0 str0" d="M179.4163 114.2882c1.4359,0 2.6,-1.1641 2.6,-2.6 0,-1.4359 -1.1641,-2.6 -2.6,-2.6 -1.4359,0 -2.6,1.1641 -2.6,2.6 0,1.4359 1.164,2.6 2.6,2.6z"/>
   <path class="fil0 str0" d="M190.6663 87.7882c0.8837,0 1.6,-0.7163 1.6,-1.6 0,-0.8837 -0.7163,-1.6 -1.6,-1.6 -0.8837,0 -1.6,0.7163 -1.6,1.6 0,0.8836 0.7163,1.6 1.6,1.6z"/>
   <path class="fil0 str0" d="M156.3163 143.6882c0.0014,2.2823 0.9095,4.4706 2.5243,6.0834 1.6149,1.6128 3.7934,2.518 6.0757,2.5166l28.75 0c2.2823,-0.0014 4.4706,-0.9095 6.0834,-2.5243 1.6128,-1.6149 2.518,-3.7934 2.5166,-6.0757l0 -46c-0.0004,-2.8393 -1.3234,-5.5141 -3.5813,-7.2356 -1.5869,-1.21 -2.5184,-3.0932 -2.5187,-5.0888l0 -32.6756 -3 -3 -47.5 0c-2.2823,0.0014 -4.4706,0.9095 -6.0834,2.5243 -1.6128,1.6149 -2.518,3.7934 -2.5166,6.0757l0 66.15c0.0014,2.2823 0.9095,4.4706 2.5243,6.0834 1.6149,1.6128 3.7934,2.518 6.0757,2.5166l10 0c0.1723,-0.0001 0.3376,0.0682 0.4594,0.19 0.1219,0.1217 0.1905,0.2877 0.1906,0.46l0 10z"/>
   <path class="fil0 str0" d="M144.4031 104.5811c-0.5809,-0.0993 -1.176,0.0627 -1.6264,0.4427 -0.4505,0.38 -0.7104,0.9394 -0.7104,1.5287"/>
   <path class="fil0 str0" d="M153.3413 92.8981c1.4237,0.3322 2.9041,0.3323 4.3277,0 0.0988,-0.0231 0.2011,0.0213 0.2518,0.1091l0.7112 1.2318c0.0508,0.0878 0.038,0.1986 -0.0314,0.2727 -0.9995,1.0668 -1.7398,2.3488 -2.1638,3.7479 -0.0294,0.0971 -0.119,0.1635 -0.2205,0.1635l-1.4223 0c-0.1015,0 -0.191,-0.0665 -0.2205,-0.1635 -0.4241,-1.3991 -1.1642,-2.6812 -2.1638,-3.7479 -0.0694,-0.074 -0.0821,-0.1848 -0.0314,-0.2727l0.7112 -1.2318c0.0506,-0.0879 0.153,-0.1322 0.2518,-0.1091z"/>
   <path class="fil0 str0" d="M188.0859 61.6171c1.4236,0.3322 2.904,0.3323 4.3277,0 0.0988,-0.0231 0.2011,0.0213 0.2518,0.1091l0.7112 1.2319c0.0507,0.0878 0.0379,0.1986 -0.0314,0.2726 -0.9995,1.0668 -1.7398,2.3489 -2.1639,3.7479 -0.0293,0.0971 -0.119,0.1635 -0.2204,0.1636l-1.4224 0c-0.1014,0 -0.1909,-0.0665 -0.2204,-0.1636 -0.4241,-1.399 -1.1642,-2.6811 -2.1638,-3.7479 -0.0694,-0.074 -0.0821,-0.1848 -0.0314,-0.2726l0.7111 -1.2319c0.0507,-0.0878 0.1531,-0.1321 0.2519,-0.1091z"/>
  </g>
  <g id="_1236884917504">
   <line class="fil0 str0" x1="155.3904" y1="47.2907" x2="187.8404" y2= "47.2907" />
   <line class="fil0 str0" x1="187.8404" y1="47.2907" x2="187.8404" y2= "39.3907" />
   <line class="fil0 str0" x1="187.8404" y1="39.3907" x2="183.3404" y2= "39.3907" />
   <path class="fil0 str0" d="M179.5404 35.5907c0,1.0078 0.4004,1.9744 1.113,2.687 0.7126,0.7126 1.6792,1.113 2.687,1.113"/>
   <line class="fil0 str0" x1="179.5404" y1="35.5907" x2="179.5404" y2= "13.5907" />
   <path class="fil0 str0" d="M183.3404 9.7907c-1.0078,0 -1.9744,0.4004 -2.687,1.113 -0.7126,0.7126 -1.113,1.6792 -1.113,2.687"/>
   <line class="fil0 str0" x1="183.3404" y1="9.7907" x2="187.8404" y2= "9.7907" />
   <line class="fil0 str0" x1="187.8404" y1="9.7907" x2="187.8404" y2= "1.8907" />
   <line class="fil0 str0" x1="187.8404" y1="1.8907" x2="173.0404" y2= "1.8907" />
   <line class="fil0 str0" x1="173.0404" y1="1.8907" x2="161.2286" y2= "6.8248" />
   <path class="fil0 str0" d="M161.2286 6.8248c-3.5359,1.477 -5.8382,4.9339 -5.8382,8.7659"/>
   <line class="fil0 str0" x1="155.3904" y1="15.5907" x2="155.3904" y2= "47.2907" />
   <path class="fil0 str0" d="M167.4404 34.5906c0,-1.4359 -1.1641,-2.6 -2.6,-2.6 -1.4359,0 -2.6,1.1641 -2.6,2.6 0,1.436 1.1641,2.6 2.6,2.6 1.4359,0 2.6,-1.164 2.6,-2.6z"/>
   <path class="fil0 str0" d="M167.4904 15.5907c0,-1.4359 -1.1641,-2.6 -2.6,-2.6 -1.4359,0 -2.6,1.1641 -2.6,2.6 0,1.4359 1.1641,2.6 2.6,2.6 1.4359,0 2.6,-1.164 2.6,-2.6z"/>
   <path class="fil0 str0" d="M180.0404 42.1907c0,-1.4359 -1.1641,-2.6 -2.6,-2.6 -1.4359,0 -2.6,1.1641 -2.6,2.6 0,1.4359 1.1641,2.6 2.6,2.6 1.4359,0 2.6,-1.164 2.6,-2.6z"/>
   <path class="fil0 str0" d="M180.0404 6.9907c0,-1.4359 -1.1641,-2.6 -2.6,-2.6 -1.4359,0 -2.6,1.1641 -2.6,2.6 0,1.4359 1.1641,2.6 2.6,2.6 1.4359,0 2.6,-1.164 2.6,-2.6z"/>
   <path class="fil0 str0" d="M172.144 32.8438c0.1852,0.1735 0.4619,0.2055 0.6816,0.0785l3.0795 -1.7779c0.2198,-0.127 0.3307,-0.3825 0.2729,-0.6296 -0.8306,-3.5581 -0.8303,-7.2612 0,-10.8193 0.0576,-0.2472 -0.053,-0.5028 -0.2729,-0.6296l-3.0795 -1.7779c-0.2198,-0.1269 -0.4965,-0.0952 -0.6816,0.0784 -2.6661,2.4984 -5.8732,4.3497 -9.3698,5.4097 -0.2429,0.0737 -0.4089,0.2973 -0.4088,0.5511l0 3.5559c0.0001,0.2538 0.1659,0.4775 0.4088,0.5511 3.4966,1.0597 6.7035,2.9115 9.3698,5.4096z"/>
  </g>
  <g id="_1236884911968">
   <path class="fil0 str0" d="M110.3445 231.7997c-0.4703,0 -0.9253,0.1656 -1.2855,0.4679l-5.147 4.3189c-1.7673,1.4972 -2.4094,3.9398 -1.6069,6.1126 0.8024,2.1727 2.826,3.6116 5.1422,3.6006l68.6 0 0 -8 -5.625 0c-0.8415,0.0005 -1.6488,-0.3333 -2.2442,-0.9279 -0.5955,-0.5947 -0.9303,-1.4056 -0.9308,-2.2471l0 -2.65c-0.0005,-0.8415 0.3333,-1.6488 0.9279,-2.2442 0.5947,-0.5955 1.4056,-0.9303 2.2471,-0.9308l5.625 0 0 -11 -5.625 0c-0.8415,0.0005 -1.6488,-0.3333 -2.2442,-0.9279 -0.5955,-0.5947 -0.9303,-1.4056 -0.9308,-2.2471l0 -2.65c-0.0005,-0.8415 0.3333,-1.6488 0.9279,-2.2442 0.5947,-0.5955 1.4056,-0.9303 2.2471,-0.9308l5.625 0 0 -8 -15.4574 0c-0.6512,0.0001 -1.2613,0.3167 -1.6359,0.8495l-18.4629 26.2526c-1.4973,2.1298 -3.9404,3.3975 -6.5438,3.3979l-23.6028 0z"/>
   <path class="fil0 str0" d="M159.3473 211.7997c0,1.4359 1.1641,2.6 2.6,2.6 1.4359,0 2.6,-1.1641 2.6,-2.6 0,-1.4359 -1.1641,-2.6 -2.6,-2.6 -1.4359,0 -2.6,1.164 -2.6,2.6z"/>
   <path class="fil0 str0" d="M159.3473 235.7997c0,1.4359 1.1641,2.6 2.6,2.6 1.4359,0 2.6,-1.1641 2.6,-2.6 0,-1.4359 -1.1641,-2.6 -2.6,-2.6 -1.4359,0 -2.6,1.164 -2.6,2.6z"/>
   <path class="fil0 str0" d="M167.6473 223.7997c0,1.4359 1.1641,2.6 2.6,2.6 1.4359,0 2.6,-1.1641 2.6,-2.6 0,-1.4359 -1.1641,-2.6 -2.6,-2.6 -1.4359,0 -2.6,1.164 -2.6,2.6z"/>
   <path class="fil0 str0" d="M146.741 228.2066c-0.4504,0.6446 -0.4819,1.4931 -0.0805,2.1693 0.4013,0.6762 1.149,1.0563 1.9305,0.9698 1.4417,-0.1553 2.8992,0.0846 4.2153,0.6934 0.8928,0.4125 1.952,0.1166 2.5,-0.7 1.2536,-1.8668 3.237,-3.12 5.461,-3.4519 0.5471,-0.082 1.0358,-0.3868 1.3502,-0.842 0.3143,-0.4551 0.4269,-1.0173 0.3098,-1.558 -0.24,-1.112 -0.2399,-2.2629 0,-3.375 0.1163,-0.5408 0.0036,-1.1057 -0.3114,-1.5604 -0.3151,-0.4548 -0.8014,-0.7584 -1.3486,-0.8396 -1.5,-0.2236 -2.9063,-0.8697 -4.0534,-1.8618 -0.4281,-0.3696 -0.9926,-0.5409 -1.554,-0.4714 -0.5613,0.0694 -1.0653,0.3707 -1.3903,0.8336l-7.0286 9.994z"/>
   <path class="fil0 str0" d="M146.1973 239.2997c0,1.7949 1.4551,3.25 3.25,3.25 1.7949,0 3.25,-1.4551 3.25,-3.25 0,-1.7949 -1.4551,-3.25 -3.25,-3.25 -1.7949,0 -3.25,1.4551 -3.25,3.25z"/>
   <path class="fil0 str0" d="M115.1973 239.2997c0,1.7949 1.4551,3.25 3.25,3.25 1.7949,0 3.25,-1.4551 3.25,-3.25 0,-1.7949 -1.4551,-3.25 -3.25,-3.25 -1.7949,0 -3.25,1.4551 -3.25,3.25z"/>
   <path class="fil0 str0" d="M104.8473 240.7997c0,1.4359 1.1641,2.6 2.6,2.6 1.4359,0 2.6,-1.1641 2.6,-2.6 0,-1.4359 -1.1641,-2.6 -2.6,-2.6 -1.4359,0 -2.6,1.164 -2.6,2.6z"/>
  </g>
  <g id="_1234874216672">
   <path class="fil0 str0" d="M22.603 187.6952l12.8377 0c0.5889,-0.0005 1.148,0.2587 1.5282,0.7085 0.3801,0.4498 0.5419,1.0478 0.4432,1.6284 -0.3561,2.0861 0.1842,4.2241 1.4899,5.8897 0.5679,0.7239 0.5673,1.7431 0,2.4674 -0.7842,1.0007 -1.3011,2.1837 -1.5024,3.439 -0.0927,0.5815 -0.4372,1.0926 -0.9415,1.3967 -0.5043,0.3041 -1.1204,0.3692 -1.678,0.1798l-13.9898 -4.7644c-0.5682,-0.1929 -1.0197,-0.631 -1.2297,-1.1932 -0.2099,-0.5621 -0.1542,-1.1922 0.1485,-1.7104 0.9959,-1.7017 1.3288,-3.7097 0.9343,-5.6415 -0.1206,-0.5879 0.0294,-1.1988 0.4085,-1.664 0.3791,-0.4652 0.951,-0.7354 1.5511,-0.736z"/>
   <path class="fil0 str0" d="M43.205 191.2952c0,0.8837 0.7163,1.6 1.6,1.6 0.8837,0 1.6,-0.7163 1.6,-1.6 0,-0.8836 -0.7163,-1.6 -1.6,-1.6 -0.8836,0 -1.6,0.7163 -1.6,1.6z"/>
   <path class="fil0 str0" d="M43.205 203.0158c0,0.8836 0.7163,1.6 1.6,1.6 0.8837,0 1.6,-0.7163 1.6,-1.6 0,-0.8837 -0.7163,-1.6 -1.6,-1.6 -0.8836,0 -1.6,0.7163 -1.6,1.6z"/>
   <path class="fil0 str0" d="M10.205 191.6952c0,1.4359 1.1641,2.6 2.6,2.6 1.4359,0 2.6,-1.164 2.6,-2.6 0,-1.4359 -1.1641,-2.6 -2.6,-2.6 -1.4359,0 -2.6,1.1641 -2.6,2.6z"/>
   <path class="fil0 str0" d="M42.0325 211.1566c2.6296,0.892 5.5279,0.4606 7.7838,-1.1584 2.2558,-1.6191 3.5921,-4.2057 3.5887,-6.9824l0 -11.7206c-0.0014,-2.2823 -0.9095,-4.4705 -2.5243,-6.0834 -1.6149,-1.6128 -3.7934,-2.518 -6.0757,-2.5166l-32 0c-4.4188,0.0953 -8.12,3.3737 -8.7479,7.7487 -0.628,4.375 1.6328,8.4365 5.8465,9.7708l32.1289 10.9419z"/>
  </g>
  <g id="_1234874214784">
   <path class="fil0 str0" d="M219.8097 168.1381l0 -12.8377c-0.0005,-0.5889 0.2587,-1.148 0.7085,-1.5282 0.4498,-0.3801 1.0478,-0.5419 1.6284,-0.4432 2.0861,0.3561 4.2241,-0.1842 5.8897,-1.4899 0.7239,-0.5679 1.7431,-0.5673 2.4674,0 1.0007,0.7842 2.1837,1.3011 3.439,1.5024 0.5815,0.0927 1.0926,0.4372 1.3967,0.9415 0.3041,0.5043 0.3692,1.1204 0.1798,1.678l-4.7644 13.9898c-0.1929,0.5682 -0.631,1.0197 -1.1932,1.2297 -0.5621,0.2099 -1.1922,0.1542 -1.7104,-0.1485 -1.7017,-0.9959 -3.7097,-1.3288 -5.6415,-0.9343 -0.5879,0.1206 -1.1988,-0.0294 -1.664,-0.4085 -0.4652,-0.3791 -0.7354,-0.951 -0.736,-1.5511z"/>
   <path class="fil0 str0" d="M223.4097 147.5361c0.8837,0 1.6,-0.7163 1.6,-1.6 0,-0.8837 -0.7163,-1.6 -1.6,-1.6 -0.8836,0 -1.6,0.7163 -1.6,1.6 0,0.8836 0.7163,1.6 1.6,1.6z"/>
   <path class="fil0 str0" d="M235.1303 147.5361c0.8836,0 1.6,-0.7163 1.6,-1.6 0,-0.8837 -0.7163,-1.6 -1.6,-1.6 -0.8837,0 -1.6,0.7163 -1.6,1.6 0,0.8836 0.7163,1.6 1.6,1.6z"/>
   <path class="fil0 str0" d="M223.8097 180.5361c1.4359,0 2.6,-1.1641 2.6,-2.6 0,-1.4359 -1.164,-2.6 -2.6,-2.6 -1.4359,0 -2.6,1.1641 -2.6,2.6 0,1.4359 1.1641,2.6 2.6,2.6z"/>
   <path class="fil0 str0" d="M243.2711 148.7086c0.892,-2.6296 0.4606,-5.5279 -1.1584,-7.7838 -1.6191,-2.2558 -4.2057,-3.5921 -6.9824,-3.5887l-11.7206 0c-2.2823,0.0014 -4.4705,0.9095 -6.0834,2.5243 -1.6128,1.6149 -2.518,3.7934 -2.5166,6.0757l0 32c0.0953,4.4188 3.3737,8.12 7.7487,8.7479 4.375,0.628 8.4365,-1.6328 9.7708,-5.8465l10.9419 -32.1289z"/>
  </g>
  <g id="_1234874213696">
   <path class="fil0 str0" d="M242.34 104.6173l-8.7418 -9.4016c-0.4014,-0.4309 -0.5923,-1.0168 -0.5217,-1.6016 0.0705,-0.5846 0.3983,-1.1103 0.8907,-1.4334 1.7702,-1.1597 2.968,-3.0113 3.2987,-5.1016 0.1434,-0.9089 0.8902,-1.6024 1.807,-1.6802 1.2668,-0.1071 2.4851,-0.5341 3.5415,-1.2415 0.489,-0.3281 1.0979,-0.4238 1.664,-0.2616 0.5661,0.1623 1.0333,0.5691 1.2743,1.1064l6.0371 13.4896c0.2456,0.5474 0.2322,1.1764 -0.0365,1.713 -0.2687,0.5365 -0.7681,0.9248 -1.3537,1.056 -1.9244,0.4294 -3.6216,1.5529 -4.7677,3.1573 -0.3484,0.4886 -0.8979,0.7948 -1.4967,0.8339 -0.5989,0.0392 -1.1862,-0.1957 -1.5952,-0.6347z"/>
   <path class="fil0 str0" d="M230.9476 87.0783c0.6471,-0.6018 0.684,-1.6141 0.0822,-2.2613 -0.6017,-0.6471 -1.6141,-0.684 -2.2612,-0.0822 -0.6471,0.6017 -0.684,1.6141 -0.0823,2.2612 0.6017,0.6471 1.6141,0.684 2.2613,0.0823z"/>
   <path class="fil0 str0" d="M239.531 79.0972c0.6471,-0.6017 0.684,-1.6141 0.0822,-2.2612 -0.6017,-0.6472 -1.6141,-0.684 -2.2612,-0.0823 -0.6472,0.6018 -0.684,1.6141 -0.0822,2.2613 0.6016,0.6471 1.614,0.684 2.2612,0.0822z"/>
   <path class="fil0 str0" d="M253.7116 110.973c1.0516,-0.9778 1.1114,-2.623 0.1337,-3.6745 -0.9778,-1.0516 -2.6229,-1.1115 -3.6746,-0.1337 -1.0515,0.9778 -1.1114,2.623 -0.1336,3.6746 0.9778,1.0515 2.623,1.1114 3.6745,0.1336z"/>
   <path class="fil0 str0" d="M246.2912 74.4124c-1.1374,-2.5331 -3.4269,-4.3619 -6.1487,-4.9115 -2.7218,-0.5495 -5.526,0.2332 -7.5571,2.1265l-8.5834 7.981c-1.6705,1.5552 -2.6546,3.7102 -2.7362,5.9911 -0.0815,2.2809 0.739,4.4927 2.2942,6.1631l21.7901 23.4348c3.0788,3.1712 8,3.6493 11.6315,1.13 3.6316,-2.5192 5.0665,-6.9405 3.1744,-10.935l-13.8648 -30.98z"/>
  </g>
  <g id="_1234874740512">
   <path class="fil0 str0" d="M130.8142 197.5349c0.5305,-0.0001 1.0391,-0.2106 1.4142,-0.5858l3.3284 -3.3284c0.3751,-0.3752 0.5859,-0.8837 0.5858,-1.4142l0 -21.4442c-0.0001,-0.591 0.2617,-1.1521 0.7144,-1.5321l8.3209 -6.9821c1.7673,-1.4972 2.4094,-3.9398 1.6069,-6.1126 -0.8024,-2.1727 -2.826,-3.6116 -5.1422,-3.6006l-68.6 0 0 8 5.625 0c0.8415,-0.0005 1.6488,0.3333 2.2442,0.9279 0.5955,0.5947 0.9303,1.4056 0.9308,2.2471l0 2.65c0.0005,0.8415 -0.3333,1.6488 -0.9279,2.2442 -0.5947,0.5955 -1.4056,0.9303 -2.2471,0.9308l-5.625 0 0 11 5.625 0c0.8415,-0.0005 1.6488,0.3333 2.2442,0.9279 0.5955,0.5947 0.9303,1.4056 0.9308,2.2471l0 2.65c0.0005,0.8415 -0.3333,1.6488 -0.9279,2.2442 -0.5947,0.5955 -1.4056,0.9303 -2.2471,0.9308l-5.625 0 0 8 57.7716 0z"/>
   <path class="fil0 str0" d="M122.1953 194.9934c-1.3336,-1.2494 -2.9361,-2.1748 -4.6849,-2.7048 -0.1214,-0.0367 -0.2044,-0.1488 -0.2044,-0.2755l0 -1.778c-0.0001,-0.1268 0.083,-0.2387 0.2044,-0.2755 1.7488,-0.5302 3.3514,-1.4553 4.6849,-2.7049 0.0924,-0.0867 0.231,-0.1026 0.3408,-0.0392l1.5397 0.889c0.1099,0.0633 0.1652,0.1913 0.1365,0.3148 -0.4153,1.7795 -0.4154,3.63 0,5.4096 0.0288,0.1235 -0.0267,0.2514 -0.1365,0.3148l-1.5397 0.889c-0.1098,0.0634 -0.2483,0.0474 -0.3408,-0.0393z"/>
   <path class="fil0 str0" d="M101.2426 190.5349c0,-0.8837 -0.7163,-1.6 -1.6,-1.6 -0.8837,0 -1.6,0.7163 -1.6,1.6 0,0.8837 0.7163,1.6 1.6,1.6 0.8836,0 1.6,-0.7163 1.6,-1.6z"/>
   <path class="fil0 str0" d="M132.2426 190.5349c0,-0.8837 -0.7163,-1.6 -1.6,-1.6 -0.8837,0 -1.6,0.7163 -1.6,1.6 0,0.8837 0.7163,1.6 1.6,1.6 0.8836,0 1.6,-0.7163 1.6,-1.6z"/>
   <path class="fil0 str0" d="M144.2426 158.0349c0,-1.4359 -1.1641,-2.6 -2.6,-2.6 -1.4359,0 -2.6,1.1641 -2.6,2.6 0,1.4359 1.1641,2.6 2.6,2.6 1.4359,0 2.6,-1.164 2.6,-2.6z"/>
   <path class="fil0 str0" d="M89.7426 187.0349c0,-1.4359 -1.1641,-2.6 -2.6,-2.6 -1.4359,0 -2.6,1.1641 -2.6,2.6 0,1.4359 1.1641,2.6 2.6,2.6 1.4359,0 2.6,-1.164 2.6,-2.6z"/>
   <path class="fil0 str0" d="M89.7426 163.0349c0,-1.4359 -1.1641,-2.6 -2.6,-2.6 -1.4359,0 -2.6,1.1641 -2.6,2.6 0,1.4359 1.1641,2.6 2.6,2.6 1.4359,0 2.6,-1.164 2.6,-2.6z"/>
   <path class="fil0 str0" d="M126.6426 175.0349c0,-6.3513 -5.1487,-11.5 -11.5,-11.5 -6.3513,0 -11.5,5.1487 -11.5,11.5 0,6.3512 5.1487,11.5 11.5,11.5 6.3512,0 11.5,-5.1487 11.5,-11.4999z"/>
   <path class="fil0 str0" d="M98.2799 176.4136l-2.9596 4.2084c-0.3246,0.4623 -0.8296,0.7656 -1.3902,0.835 -0.5605,0.0694 -1.1266,-0.1037 -1.5541,-0.4728 -1.1476,-0.9925 -2.5528,-1.6381 -4.0534,-1.8618 -0.5465,-0.0811 -1.035,-0.3847 -1.3496,-0.8389 -0.3146,-0.4541 -0.4265,-1.021 -0.3104,-1.5611 0.24,-1.1124 0.2401,-2.2627 0,-3.375 -0.1169,-0.5399 -0.0051,-1.1042 0.3088,-1.5588 0.3139,-0.4545 0.8049,-0.7593 1.3512,-0.8412 2.2252,-0.3321 4.2067,-1.584 5.461,-3.4519 0.5474,-0.8157 1.6081,-1.112 2.5,-0.7 0.539,0.2494 1.1039,0.4379 1.6846,0.5622 0.5536,0.118 1.0311,0.4653 1.3141,0.9555 0.283,0.4902 0.3439,1.0803 0.1692,1.6187 -0.5571,1.7131 -0.8299,3.5053 -0.8076,5.3065 0.0052,0.4202 -0.1223,0.8315 -0.364,1.1752z"/>
   <path class="fil0 str0" d="M81.4426 175.0349c0,-1.4359 -1.1641,-2.6 -2.6,-2.6 -1.4359,0 -2.6,1.1641 -2.6,2.6 0,1.4359 1.1641,2.6 2.6,2.6 1.4359,0 2.6,-1.164 2.6,-2.6z"/>
   <path class="fil0 str0" d="M101.2426 159.5349c0,-0.8837 -0.7163,-1.6 -1.6,-1.6 -0.8837,0 -1.6,0.7163 -1.6,1.6 0,0.8837 0.7163,1.6 1.6,1.6 0.8836,0 1.6,-0.7163 1.6,-1.6z"/>
   <path class="fil0 str0" d="M132.2426 159.5349c0,-0.8837 -0.7163,-1.6 -1.6,-1.6 -0.8837,0 -1.6,0.7163 -1.6,1.6 0,0.8837 0.7163,1.6 1.6,1.6 0.8836,0 1.6,-0.7163 1.6,-1.6z"/>
  </g>
  <g id="_1234874741312">
   <path class="fil0 str0" d="M155.5376 153.4811c-0.5305,0.0001 -1.0391,0.2106 -1.4142,0.5858l-3.3284 3.3284c-0.3751,0.3752 -0.5859,0.8837 -0.5858,1.4142l0 21.4442c0.0001,0.591 -0.2617,1.1521 -0.7144,1.5321l-8.3209 6.9821c-1.7673,1.4972 -2.4094,3.9398 -1.6069,6.1126 0.8024,2.1727 2.826,3.6116 5.1422,3.6006l68.6 0 0 -8 -5.625 0c-0.8415,0.0005 -1.6488,-0.3333 -2.2442,-0.9279 -0.5955,-0.5947 -0.9303,-1.4056 -0.9308,-2.2471l0 -2.65c-0.0005,-0.8415 0.3333,-1.6488 0.9279,-2.2442 0.5947,-0.5955 1.4056,-0.9303 2.2471,-0.9308l5.625 0 0 -11 -5.625 0c-0.8415,0.0005 -1.6488,-0.3333 -2.2442,-0.9279 -0.5955,-0.5947 -0.9303,-1.4056 -0.9308,-2.2471l0 -2.65c-0.0005,-0.8415 0.3333,-1.6488 0.9279,-2.2442 0.5947,-0.5955 1.4056,-0.9303 2.2471,-0.9308l5.625 0 0 -8 -57.7716 0z"/>
   <path class="fil0 str0" d="M164.1565 156.0226c1.3336,1.2494 2.9361,2.1748 4.6849,2.7048 0.1214,0.0367 0.2044,0.1488 0.2044,0.2755l0 1.778c0.0001,0.1268 -0.083,0.2387 -0.2044,0.2755 -1.7488,0.5302 -3.3514,1.4553 -4.6849,2.7049 -0.0924,0.0867 -0.231,0.1026 -0.3408,0.0392l-1.5397 -0.889c-0.1099,-0.0633 -0.1652,-0.1913 -0.1365,-0.3148 0.4153,-1.7795 0.4154,-3.63 0,-5.4096 -0.0288,-0.1235 0.0267,-0.2514 0.1365,-0.3148l1.5397 -0.889c0.1098,-0.0634 0.2483,-0.0474 0.3408,0.0393z"/>
   <path class="fil0 str0" d="M185.1092 160.4811c0,0.8837 0.7163,1.6 1.6,1.6 0.8837,0 1.6,-0.7163 1.6,-1.6 0,-0.8837 -0.7163,-1.6 -1.6,-1.6 -0.8836,0 -1.6,0.7163 -1.6,1.6z"/>
   <path class="fil0 str0" d="M154.1092 160.4811c0,0.8837 0.7163,1.6 1.6,1.6 0.8837,0 1.6,-0.7163 1.6,-1.6 0,-0.8837 -0.7163,-1.6 -1.6,-1.6 -0.8836,0 -1.6,0.7163 -1.6,1.6z"/>
   <path class="fil0 str0" d="M142.1092 192.9811c0,1.4359 1.1641,2.6 2.6,2.6 1.4359,0 2.6,-1.1641 2.6,-2.6 0,-1.4359 -1.1641,-2.6 -2.6,-2.6 -1.4359,0 -2.6,1.164 -2.6,2.6z"/>
   <path class="fil0 str0" d="M196.6092 163.9811c0,1.4359 1.1641,2.6 2.6,2.6 1.4359,0 2.6,-1.1641 2.6,-2.6 0,-1.4359 -1.1641,-2.6 -2.6,-2.6 -1.4359,0 -2.6,1.164 -2.6,2.6z"/>
   <path class="fil0 str0" d="M196.6092 187.9811c0,1.4359 1.1641,2.6 2.6,2.6 1.4359,0 2.6,-1.1641 2.6,-2.6 0,-1.4359 -1.1641,-2.6 -2.6,-2.6 -1.4359,0 -2.6,1.164 -2.6,2.6z"/>
   <path class="fil0 str0" d="M159.7092 175.9811c0,6.3513 5.1487,11.5 11.5,11.5 6.3513,0 11.5,-5.1487 11.5,-11.5 0,-6.3512 -5.1487,-11.5 -11.5,-11.5 -6.3512,0 -11.5,5.1487 -11.5,11.4999z"/>
   <path class="fil0 str0" d="M188.0719 174.6024l2.9596 -4.2084c0.3246,-0.4623 0.8296,-0.7656 1.3902,-0.835 0.5605,-0.0694 1.1266,0.1037 1.5541,0.4728 1.1476,0.9925 2.5528,1.6381 4.0534,1.8618 0.5465,0.0811 1.035,0.3847 1.3496,0.8389 0.3146,0.4541 0.4265,1.021 0.3104,1.5611 -0.24,1.1124 -0.2401,2.2627 0,3.375 0.1169,0.5399 0.0051,1.1042 -0.3088,1.5588 -0.3139,0.4545 -0.8049,0.7593 -1.3512,0.8412 -2.2252,0.3321 -4.2067,1.584 -5.461,3.4519 -0.5474,0.8157 -1.6081,1.112 -2.5,0.7 -0.539,-0.2494 -1.1039,-0.4379 -1.6846,-0.5622 -0.5536,-0.118 -1.0311,-0.4653 -1.3141,-0.9555 -0.283,-0.4902 -0.3439,-1.0803 -0.1692,-1.6187 0.5571,-1.7131 0.8299,-3.5053 0.8076,-5.3065 -0.0052,-0.4202 0.1223,-0.8315 0.364,-1.1752z"/>
   <path class="fil0 str0" d="M204.9092 175.9811c0,1.4359 1.1641,2.6 2.6,2.6 1.4359,0 2.6,-1.1641 2.6,-2.6 0,-1.4359 -1.1641,-2.6 -2.6,-2.6 -1.4359,0 -2.6,1.164 -2.6,2.6z"/>
   <path class="fil0 str0" d="M185.1092 191.4811c0,0.8837 0.7163,1.6 1.6,1.6 0.8837,0 1.6,-0.7163 1.6,-1.6 0,-0.8837 -0.7163,-1.6 -1.6,-1.6 -0.8836,0 -1.6,0.7163 -1.6,1.6z"/>
   <path class="fil0 str0" d="M154.1092 191.4811c0,0.8837 0.7163,1.6 1.6,1.6 0.8837,0 1.6,-0.7163 1.6,-1.6 0,-0.8837 -0.7163,-1.6 -1.6,-1.6 -0.8836,0 -1.6,0.7163 -1.6,1.6z"/>
  </g>
 </g>
</svg>
